track,note,velocity,time
1,67,127,0
1,67,127,0
1,67,127,0
1,67,127,0
1,67,127,0
1,74,127,0
1,76,127,0
1,72,127,384
1,72,127,0
1,72,127,0
1,72,127,0
1,74,127,0
1,76,127,0
1,79,127,0
1,71,127,384
1,72,127,0
1,72,127,0
1,72,127,0
1,69,127,0
1,67,127,0
1,76,127,1152
1,76,127,0
1,72,127,0
1,67,127,0
1,67,127,0
1,67,127,0
1,67,127,0
1,67,127,0
1,76,127,0
1,74,127,0
1,76,127,0
1,74,127,0
1,72,127,0
1,72,127,0
1,72,127,0
1,72,127,0
1,74,127,0
1,76,127,0
1,79,127,0
1,81,127,0
1,71,127,384
1,72,127,0
1,72,127,0
1,72,127,0
1,69,127,0
1,67,127,0
1,76,127,2688
1,74,127,0
1,72,127,0
1,72,127,0
1,76,127,0
1,72,127,0
1,72,127,0
1,72,127,0
1,72,127,0
1,74,127,0
1,76,127,0
1,76,127,0
1,77,127,0
1,76,127,0
1,76,127,1152
1,79,127,0
1,81,127,0
1,79,127,0
1,79,127,0
1,76,127,0
1,76,127,0
1,74,127,0
1,72,127,0
1,72,127,0
1,72,127,1152
1,74,127,0
1,72,127,0
1,84,127,768
1,83,127,0
1,81,127,0
1,83,127,0
1,81,127,0
1,83,127,0
1,79,127,768
1,81,127,0
1,83,127,0
1,83,127,0
1,84,127,0
1,79,127,0
1,81,127,0
1,79,127,384
1,77,127,0
1,76,127,0
1,77,127,0
1,76,127,0
1,74,127,0
1,74,127,0
1,74,127,0
1,72,127,0
1,84,127,768
1,86,127,0
1,81,127,0
1,83,127,0
1,83,127,0
1,81,127,0
1,79,127,0
1,79,127,384
1,81,127,0
1,83,127,0
1,83,127,0
1,83,127,0
1,84,127,0
1,79,127,0
1,81,127,0
1,79,127,768
1,77,127,0
1,76,127,0
1,77,127,0
1,76,127,0
1,74,127,0
1,74,127,0
1,72,127,0
1,76,127,384
1,74,127,0
1,72,127,0
1,76,127,0
1,74,127,0
1,72,127,0
1,72,127,0
1,67,127,1536
1,67,127,0
1,67,127,0
1,67,127,0
1,67,127,0
1,74,127,0
1,76,127,0
1,72,127,384
1,72,127,0
1,72,127,0
1,72,127,0
1,74,127,0
1,76,127,0
1,79,127,0
1,71,127,384
1,72,127,0
1,72,127,0
1,72,127,0
1,69,127,0
1,67,127,0
1,76,127,1152
1,76,127,0
1,72,127,0
1,67,127,0
1,67,127,0
1,67,127,0
1,67,127,0
1,67,127,0
1,76,127,0
1,74,127,0
1,76,127,0
1,74,127,0
1,72,127,0
1,72,127,0
1,72,127,0
1,72,127,0
1,74,127,0
1,76,127,0
1,79,127,0
1,81,127,0
1,71,127,384
1,72,127,0
1,72,127,0
1,72,127,0
1,69,127,0
1,67,127,0
1,76,127,2688
1,74,127,0
1,72,127,0
1,72,127,0
1,76,127,0
1,72,127,0
1,72,127,0
1,72,127,0
1,72,127,0
1,74,127,0
1,76,127,0
1,76,127,0
1,77,127,0
1,76,127,0
1,76,127,1152
1,79,127,0
1,81,127,0
1,79,127,0
1,79,127,0
1,76,127,0
1,76,127,0
1,74,127,0
1,72,127,0
1,72,127,0
1,72,127,1152
1,74,127,0
1,72,127,0
1,84,127,768
1,83,127,0
1,81,127,0
1,83,127,0
1,81,127,0
1,83,127,0
1,79,127,768
1,81,127,0
1,83,127,0
1,83,127,0
1,84,127,0
1,79,127,0
1,81,127,0
1,79,127,384
1,77,127,0
1,76,127,0
1,77,127,0
1,76,127,0
1,74,127,0
1,74,127,0
1,74,127,0
1,72,127,0
1,84,127,768
1,86,127,0
1,81,127,0
1,83,127,0
1,83,127,0
1,81,127,0
1,79,127,0
1,79,127,384
1,81,127,0
1,83,127,0
1,83,127,0
1,83,127,0
1,84,127,0
1,79,127,0
1,81,127,0
1,79,127,768
1,77,127,0
1,76,127,0
1,77,127,0
1,76,127,0
1,83,127,0
1,84,127,0
1,84,127,0
1,84,127,0
1,84,127,0
1,84,127,384
1,84,127,0
1,83,127,0
1,84,127,0
1,84,127,0
1,84,127,1152
1,83,127,0
1,81,127,0
1,83,127,0
1,81,127,0
1,83,127,0
1,79,127,768
1,81,127,0
1,83,127,0
1,83,127,0
1,84,127,0
1,79,127,0
1,81,127,0
1,79,127,384
1,77,127,0
1,76,127,0
1,77,127,0
1,76,127,0
1,74,127,0
1,74,127,0
1,74,127,0
1,72,127,0
1,84,127,768
1,86,127,0
1,81,127,0
1,83,127,0
1,83,127,0
1,81,127,0
1,79,127,0
1,79,127,384
1,81,127,0
1,83,127,0
1,83,127,0
1,83,127,0
1,84,127,0
1,79,127,0
1,81,127,0
1,79,127,768
1,77,127,0
1,76,127,0
1,77,127,0
1,76,127,0
1,83,127,0
1,83,127,0
1,81,127,0
1,84,127,384
1,83,127,0
1,81,127,0
1,83,127,0
1,81,127,0
1,83,127,0
1,79,127,768
1,81,127,0
1,83,127,0
1,83,127,0
1,84,127,0
1,79,127,0
1,81,127,0
1,79,127,384
1,77,127,0
1,76,127,0
1,77,127,0
1,76,127,0
1,74,127,0
1,74,127,0
1,74,127,0
1,72,127,0
1,84,127,768
1,86,127,0
1,81,127,0
1,83,127,0
1,83,127,0
1,81,127,0
1,79,127,0
1,79,127,384
1,81,127,0
1,83,127,0
1,83,127,0
1,83,127,0
1,84,127,0
1,79,127,0
1,81,127,0
1,79,127,768
1,77,127,0
1,76,127,0
1,77,127,0
1,76,127,0
1,83,127,0
1,83,127,0
1,81,127,0
2,48,95,0
2,48,107,120
2,48,87,24
2,48,100,126
2,48,107,126
2,48,102,48
2,55,98,144
2,55,105,120
2,55,98,32
2,55,105,116
2,55,100,116
2,55,107,116
2,50,98,192
2,45,98,96
2,45,105,122
2,40,85,384
2,45,102,176
2,45,100,122
2,45,102,0
2,52,91,116
2,52,93,122
2,47,82,0
2,55,113,72
2,57,91,36
2,58,105,42
2,59,105,0
2,53,100,88
2,53,105,116
2,48,87,384
2,53,98,184
2,53,100,126
2,48,89,384
2,53,102,0
2,53,85,94
2,53,105,64
2,53,87,72
2,53,89,62
2,53,100,72
2,53,87,62
2,48,98,100
2,48,98,106
2,36,64,384
2,48,85,0
2,48,105,106
2,36,76,0
2,43,93,0
2,55,87,0
2,55,105,88
2,55,82,110
2,47,95,52
2,48,89,8
2,50,85,10
2,55,107,4
2,45,89,84
2,45,102,110
2,40,93,384
2,45,87,174
2,45,102,120
2,40,95,384
2,52,102,56
2,52,102,120
2,47,80,384
2,52,105,184
2,52,91,16
2,52,85,122
2,52,105,144
2,53,100,88
2,53,95,122
2,48,82,384
2,53,91,4
2,53,102,132
2,48,89,384
2,53,93,160
2,53,100,148
2,53,102,52
2,48,82,384
2,53,100,180
2,53,100,64
2,48,89,106
2,48,102,110
2,43,93,384
2,48,87,174
2,48,102,120
2,43,95,384
2,50,87,56
2,50,105,88
2,50,82,110
2,42,95,52
2,43,89,8
2,45,85,10
2,50,107,4
2,53,98,84
2,53,98,106
2,41,64,384
2,53,85,0
2,53,105,106
2,41,76,0
2,48,93,0
2,48,91,0
2,48,93,122
2,43,82,0
2,52,113,72
2,53,91,36
2,54,105,42
2,55,105,0
2,48,95,88
2,48,107,120
2,48,87,24
2,48,100,126
2,48,107,126
2,48,102,48
2,50,98,144
2,50,105,120
2,50,98,32
2,50,105,116
2,50,100,116
2,50,107,116
2,45,98,192
2,53,89,96
2,53,102,110
2,48,93,384
2,53,87,174
2,53,102,120
2,48,95,384
2,48,105,56
2,48,102,112
2,48,102,16
2,55,98,138
2,55,95,122
2,55,98,128
2,50,72,192
2,45,98,88
2,45,105,122
2,40,85,384
2,45,102,176
2,45,100,122
2,45,102,0
2,45,102,116
2,50,102,26
2,50,100,26
2,50,102,10
2,50,87,120
2,50,107,136
2,55,89,128
2,55,102,110
2,50,93,384
2,55,87,174
2,55,102,120
2,50,95,384
2,52,105,56
2,52,102,112
2,52,102,16
2,48,98,138
2,48,95,122
2,48,98,128
2,43,72,192
2,53,95,88
2,53,107,120
2,53,87,24
2,53,100,126
2,53,107,126
2,53,102,48
2,52,102,144
2,52,102,120
2,47,80,384
2,52,105,184
2,52,91,16
2,52,85,122
2,52,105,144
2,45,100,88
2,45,95,122
2,40,82,384
2,45,91,4
2,45,102,132
2,40,89,384
2,45,93,160
2,45,100,148
2,45,102,52
2,40,82,384
2,45,100,180
2,45,100,64
2,45,105,106
2,45,102,112
2,45,102,16
2,50,105,138
2,50,102,112
2,57,102,16
2,55,91,138
2,55,93,122
2,50,82,0
2,59,113,72
2,60,91,36
2,61,105,42
2,62,105,0
2,48,95,88
2,48,107,120
2,48,87,24
2,48,100,126
2,48,107,126
2,48,102,48
2,53,87,144
2,53,105,88
2,53,82,110
2,45,95,52
2,46,89,8
2,48,85,10
2,53,107,4
2,52,98,84
2,52,105,122
2,47,85,384
2,52,102,176
2,52,100,122
2,52,102,0
2,45,98,116
2,45,105,120
2,45,98,32
2,45,105,116
2,45,100,116
2,45,107,116
2,40,98,192
2,53,98,96
2,53,98,106
2,41,64,384
2,53,85,0
2,53,105,106
2,41,76,0
2,48,93,0
2,48,91,0
2,48,93,122
2,43,82,0
2,52,113,72
2,53,91,36
2,54,105,42
2,55,105,0
2,48,95,88
2,48,107,120
2,48,87,24
2,48,100,126
2,48,107,126
2,48,102,48
2,55,87,144
2,55,105,88
2,55,82,110
2,47,95,52
2,48,89,8
2,50,85,10
2,55,107,4
2,45,89,84
2,45,102,110
2,40,93,384
2,45,87,174
2,45,102,120
2,40,95,384
2,52,87,56
2,52,105,88
2,52,82,110
2,43,95,52
2,45,89,8
2,47,85,10
2,52,107,4
2,53,82,84
2,53,102,96
2,48,85,384
2,53,102,0
2,53,100,128
2,48,80,384
2,53,93,170
2,53,102,136
2,53,95,68
2,45,100,24
2,46,60,10
2,45,80,0
2,47,102,94
2,48,80,0
2,48,89,36
2,48,102,110
2,43,93,384
2,48,87,174
2,48,102,120
2,43,95,384
2,55,87,56
2,55,105,88
2,55,82,110
2,47,95,52
2,48,89,8
2,50,85,10
2,55,107,4
2,45,95,84
2,45,107,120
2,45,87,24
2,45,100,126
2,45,107,126
2,45,102,48
2,52,87,144
2,52,105,88
2,52,82,110
2,43,95,52
2,45,89,8
2,47,85,10
2,52,107,4
2,53,100,84
2,53,102,110
2,48,82,384
2,53,87,180
2,41,78,46
2,53,98,74
2,48,82,366
2,53,87,32
2,53,105,122
2,48,93,384
2,53,95,8
2,53,85,120
2,53,100,122
2,53,105,8
2,48,98,152
2,48,98,106
2,36,64,384
2,48,85,0
2,48,105,106
2,36,76,0
2,43,93,0
2,50,98,0
2,50,105,120
2,50,98,32
2,50,105,116
2,50,100,116
2,50,107,116
2,45,98,192
2,53,98,96
2,53,105,122
2,48,85,384
2,53,102,176
2,53,100,122
2,53,102,0
2,48,102,116
2,48,102,120
2,43,80,384
2,48,105,184
2,50,91,16
2,48,85,122
2,48,105,144
2,48,95,88
2,48,107,120
2,48,87,24
2,48,100,126
2,48,107,126
2,48,102,48
2,50,87,144
2,50,105,88
2,50,82,110
2,42,95,52
2,43,89,8
2,45,85,10
2,50,107,4
2,53,98,84
2,53,105,122
2,48,85,384
2,53,102,176
2,53,100,122
2,53,102,0
2,48,98,116
2,48,105,104
2,53,70,16
2,48,89,52
2,55,100,62
2,50,102,10
2,46,87,120
2,55,107,136
2,45,98,128
2,45,98,106
2,33,64,384
2,45,85,0
2,45,105,106
2,33,76,0
2,40,93,0
2,45,98,0
2,45,105,104
2,45,70,16
2,45,89,52
2,50,98,62
2,50,95,122
2,50,98,128
2,45,72,192
2,55,95,88
2,55,107,120
2,55,87,24
2,55,100,126
2,55,107,126
2,55,102,48
2,52,98,144
2,52,105,104
2,52,70,16
2,52,89,52
2,48,100,62
2,50,102,10
2,52,87,120
2,48,107,136
2,53,95,128
2,53,107,120
2,53,87,24
2,53,100,126
2,53,107,126
2,53,102,48
2,52,87,144
2,52,105,88
2,52,82,110
2,43,95,52
2,45,89,8
2,47,85,10
2,52,107,4
2,45,93,84
2,45,98,64
2,40,80,384
2,45,102,180
2,45,102,126
2,40,89,384
2,45,100,180
2,45,89,116
2,40,87,0
2,48,87,0
2,50,89,0
2,51,98,186
2,52,107,8
2,45,100,42
2,45,105,126
2,33,87,480
2,50,98,52
2,50,105,104
2,50,70,16
2,50,89,52
2,55,91,62
2,55,93,122
2,50,82,0
2,59,113,72
2,60,91,36
2,61,105,42
2,62,105,0
2,48,95,88
2,48,107,120
2,48,87,24
2,48,100,126
2,48,107,126
2,48,102,48
2,53,87,144
2,53,105,88
2,53,82,110
2,45,95,52
2,46,89,8
2,48,85,10
2,53,107,4
2,52,98,84
2,52,105,122
2,47,85,384
2,52,102,176
2,52,100,122
2,52,102,0
2,45,102,116
2,45,102,120
2,40,80,384
2,45,105,184
2,52,91,16
2,45,85,122
2,45,105,144
2,53,105,88
2,53,105,122
2,48,100,8
2,55,105,132
2,55,105,122
2,50,100,8
2,45,87,132
2,45,102,120
2,45,102,0
2,50,98,132
2,50,95,122
2,50,98,128
2,45,72,192
2,45,98,88
2,45,98,106
2,33,64,384
2,45,85,0
2,45,105,106
2,33,76,0
2,40,93,0
2,45,105,0
2,45,105,122
2,52,100,8
2,50,100,132
2,50,102,10
2,50,87,120
2,50,107,136
2,55,89,128
2,55,102,110
2,50,93,384
2,55,87,174
2,55,102,120
2,50,95,384
2,52,105,56
2,52,105,122
2,47,100,8
2,48,100,132
2,48,102,10
2,48,87,120
2,48,107,136
2,53,98,128
2,53,98,106
2,41,64,384
2,53,85,0
2,53,105,106
2,41,76,0
2,48,93,0
2,52,87,0
2,52,105,88
2,52,82,110
2,43,95,52
2,45,89,8
2,47,85,10
2,52,107,4
2,45,100,84
2,45,102,110
2,40,82,384
2,45,87,180
2,33,78,46
2,45,98,74
2,40,82,366
2,45,87,32
2,45,105,122
2,40,93,384
2,45,95,8
2,45,85,120
2,45,100,122
2,45,105,8
2,45,105,152
2,45,105,122
2,52,100,8
2,50,105,132
2,50,105,122
2,57,100,8
2,55,87,132
2,55,105,88
2,55,82,110
2,47,95,52
2,48,89,8
2,50,85,10
2,55,107,4
2,48,98,84
2,48,98,106
2,36,64,384
2,48,85,0
2,48,105,106
2,36,76,0
2,43,93,0
2,53,102,0
2,53,102,120
2,48,80,384
2,53,105,184
2,53,91,16
2,53,85,122
2,53,105,144
2,52,98,88
2,52,105,122
2,47,85,384
2,52,102,176
2,52,100,122
2,50,102,0
2,45,91,116
2,45,93,122
2,40,82,0
2,48,113,72
2,50,91,36
2,51,105,42
2,52,105,0
2,45,98,88
2,45,98,106
2,33,64,384
2,45,85,0
2,45,105,106
2,33,76,0
2,40,93,0
2,45,105,0
2,45,102,112
2,45,102,16
2,50,100,138
2,54,102,10
2,50,87,120
2,50,107,136
2,55,89,128
2,55,102,110
2,50,93,384
2,55,87,174
2,55,102,120
2,50,95,384
2,52,105,56
2,52,102,112
2,52,102,16
2,48,98,138
2,48,95,122
2,48,98,128
2,43,72,192
2,53,95,88
2,53,107,120
2,53,87,24
2,53,100,126
2,53,107,126
2,53,102,48
2,52,102,144
2,52,102,120
2,47,80,384
2,52,105,184
2,52,91,16
2,52,85,122
2,52,105,144
2,45,100,88
2,45,102,110
2,40,82,384
2,45,87,180
2,33,78,46
2,45,98,74
2,40,82,366
2,45,87,32
2,45,105,122
2,40,93,384
2,45,95,8
2,45,85,120
2,45,100,122
2,40,105,8
2,45,105,152
2,45,102,112
2,48,102,16
2,50,100,138
2,50,105,126
2,38,87,480
2,55,98,52
2,55,105,120
2,55,98,32
2,55,105,116
2,55,100,116
2,55,107,116
2,50,98,192
2,48,95,96
2,48,107,120
2,48,87,24
2,48,100,126
2,48,107,126
2,48,102,48
2,53,87,144
2,53,105,88
2,53,82,110
2,45,95,52
2,46,89,8
2,48,85,10
2,53,107,4
2,52,98,84
2,52,98,106
2,40,64,384
2,52,85,0
2,52,105,106
2,40,76,0
2,47,93,0
2,45,87,0
2,45,105,88
