track,note,velocity,time
1,76,69,4075
1,79,67,161
1,84,80,122
1,83,76,104
1,81,63,257
1,76,53,299
1,76,62,241
1,79,72,152
1,84,73,4
1,83,66,2
1,81,58,276
1,76,38,1
1,76,67,1891
1,79,79,3
1,84,70,3
1,83,67,2
1,81,58,281
1,76,58,0
1,76,67,12651
1,79,74,157
1,84,70,2
1,83,67,104
1,81,65,273
1,76,38,1
1,76,72,14088
1,79,79,156
1,84,72,0
1,83,68,97
1,81,66,277
1,76,57,0
1,76,70,8010
1,79,79,7
1,84,66,1
1,83,63,99
1,81,66,282
1,76,69,1
1,76,63,324
1,79,72,5
1,84,64,3
1,83,60,105
1,81,66,272
1,76,62,288
1,76,67,1816
1,79,73,3
1,84,67,1
1,76,66,11209
1,79,75,1
1,84,64,2
1,83,60,102
1,81,61,285
1,76,57,0
1,76,67,3425
1,79,66,8
1,84,67,136
1,83,44,98
1,81,60,270
1,76,55,1
1,76,66,1760
1,79,73,0
1,84,71,2
1,83,62,106
1,81,63,264
1,76,57,292
1,76,53,6011
1,72,55,288
1,67,67,8
1,62,66,3
1,76,67,480
1,72,60,282
1,67,58,381
1,62,58,371
1,76,65,473
1,72,66,287
1,67,75,2
1,62,60,384
1,76,71,472
1,72,70,281
1,67,69,372
1,62,57,8
1,76,60,2
1,72,64,288
1,67,62,5
1,62,58,8
1,76,69,480
1,72,66,273
1,67,58,12
1,62,53,384
1,76,62,470
1,72,66,278
1,67,71,4
1,62,65,384
1,76,72,5
1,72,66,288
1,67,66,4
1,62,64,384
2,76,69,4075
2,79,67,161
2,84,80,122
2,83,76,104
2,81,63,257
2,76,53,299
2,76,62,241
2,79,72,152
2,84,73,4
2,83,66,2
2,81,58,276
2,76,38,1
2,76,67,1891
2,79,79,3
2,84,70,3
2,83,67,2
2,81,58,281
2,76,58,0
2,76,67,12651
2,79,74,157
2,84,70,2
2,83,67,104
2,81,65,273
2,76,38,1
2,76,72,14088
2,79,79,156
2,84,72,0
2,83,68,97
2,81,66,277
2,76,57,0
2,76,70,8010
2,79,79,7
2,84,66,1
2,83,63,99
2,81,66,282
2,76,69,1
2,76,63,324
2,79,72,5
2,84,64,3
2,83,60,105
2,81,66,272
2,76,62,288
2,76,67,1816
2,79,73,3
2,84,67,1
2,76,66,11209
2,79,75,1
2,84,64,2
2,83,60,102
2,81,61,285
2,76,57,0
2,76,67,3425
2,79,66,8
2,84,67,136
2,83,44,98
2,81,60,270
2,76,55,1
2,76,66,1760
2,79,73,0
2,84,71,2
2,83,62,106
2,81,63,264
2,76,57,292
2,76,53,6011
2,72,55,288
2,67,67,8
2,62,66,3
2,76,67,480
2,72,60,282
2,67,58,381
2,62,58,371
2,76,65,473
2,72,66,287
2,67,75,2
2,62,60,384
2,76,71,472
2,72,70,281
2,67,69,372
2,62,57,8
2,76,60,2
2,72,64,288
2,67,62,5
2,62,58,8
2,76,69,480
2,72,66,273
2,67,58,12
2,62,53,384
2,76,62,470
2,72,66,278
2,67,71,4
2,62,65,384
2,76,72,5
2,72,66,288
2,67,66,4
2,62,64,384
3,50,100,17232
3,47,100,0
3,47,100,94
3,43,100,17
3,50,100,4383
3,47,100,66
3,43,100,64
3,43,100,33
3,50,100,8906
3,47,100,17
3,47,100,82
3,43,100,0
3,43,100,68
3,43,100,39
3,50,100,2911
3,43,100,126
3,50,100,1180
3,47,100,123
3,43,100,21
3,50,100,1034
3,47,100,0
3,47,100,92
3,43,100,70
3,47,100,24
3,43,100,157
3,47,100,76
3,43,100,40
3,50,100,13177
3,47,100,0
3,47,100,92
3,43,100,70
3,43,100,29
3,50,100,165
3,47,100,23
3,47,100,32
3,43,100,26
3,50,100,894
3,47,100,0
3,47,100,108
3,43,100,68
3,43,100,29
3,43,100,70
3,47,100,120
3,43,100,24
3,43,100,28
3,50,100,5844
3,47,100,12
3,47,100,73
3,43,100,23
3,43,100,34
3,43,100,32
3,50,100,2956
3,47,100,75
3,50,100,994
3,47,100,19
3,47,100,73
3,43,100,65
3,43,100,72
3,43,100,24
3,43,100,71
3,43,100,36
3,50,100,1279
3,47,100,28
3,47,100,30
3,43,100,25
3,43,100,31
3,43,100,28
3,50,100,1034
3,47,100,120
3,43,100,115
3,43,100,71
3,43,100,26
3,50,100,1182
3,47,100,70
3,43,100,55
3,43,100,24
3,43,100,113
3,50,100,3003
3,47,100,37
3,50,107,19517
3,47,120,12
3,47,107,66
3,43,113,70
3,43,113,18
3,43,97,67
3,43,82,25
3,36,117,42
4,45,113,40080
4,57,117,0
4,81,120,0
4,69,120,0
5,55,55,3696
5,60,55,0
5,64,54,0
5,57,64,48
5,55,62,22
5,64,32,0
5,64,60,40
5,57,60,0
5,55,64,56
5,59,76,384
5,64,69,372
5,60,54,0
5,57,64,61
5,64,53,52
5,55,64,0
5,57,60,51
5,59,65,0
5,62,40,0
5,53,66,35
5,62,61,0
5,57,62,0
5,59,66,32
5,62,55,0
5,55,68,0
5,53,59,54
5,57,66,0
5,62,68,0
5,60,69,288
5,65,55,72
5,57,49,0
5,60,57,0
5,67,57,40
5,60,46,0
5,64,21,0
5,57,58,768
5,64,57,35
5,60,60,0
5,55,62,0
5,53,40,4
5,59,69,0
5,64,28,73
5,60,65,0
5,55,45,0
5,57,62,10
5,64,57,48
5,55,67,0
5,64,55,0
5,57,72,89
5,55,68,12
5,62,55,0
5,59,66,0
5,62,66,13
5,53,64,48
5,57,70,0
5,59,62,28
5,62,68,48
5,55,65,0
5,57,75,40
5,62,73,0
5,53,76,0
5,60,78,288
5,65,85,1237
5,64,82,44
5,55,62,0
5,57,79,8
5,55,72,0
5,53,78,28
5,59,80,0
5,64,52,87
5,57,69,0
5,60,62,0
5,55,80,48
5,59,80,70
5,53,58,0
5,64,69,69
5,55,76,0
5,60,73,0
5,57,71,35
5,64,69,36
5,55,80,0
5,57,99,18
5,64,61,0
5,62,83,464
5,59,80,0
5,67,80,0
5,65,62,39
5,57,50,0
5,62,60,0
5,60,74,384
5,67,70,31
5,59,58,16
5,53,66,70
5,57,66,0
5,62,66,0
5,60,72,47
5,55,73,0
5,64,66,0
5,62,57,31
5,64,69,0
5,67,83,0
5,59,57,0
5,62,18,38
5,57,82,630
5,65,47,0
5,55,82,76
5,60,69,0
5,64,58,0
5,60,92,0
5,53,85,0
5,79,80,96
5,79,88,53
5,77,71,96
5,77,80,44
5,72,79,5
5,51,56,81
5,58,68,0
5,79,83,61
5,79,90,56
5,77,65,96
5,75,89,92
5,70,77,2
5,75,92,96
5,79,82,0
5,64,70,0
5,67,63,0
5,60,68,0
5,57,94,768
5,64,76,29
5,55,83,0
5,64,83,24
5,57,90,0
5,55,88,16
5,64,68,0
5,53,94,1
5,59,83,0
5,64,67,50
5,55,82,0
5,60,82,0
5,62,58,144
5,55,58,0
5,59,55,0
5,57,49,2
5,65,52,0
5,64,73,9
5,60,75,252
5,62,14,116
5,55,63,33
5,59,78,0
5,53,79,37
5,62,57,0
5,57,66,0
5,60,79,287
5,65,78,17
5,64,80,24
5,55,67,0
5,57,71,24
5,55,83,48
5,53,80,3
5,59,82,0
5,60,70,9
5,64,71,48
5,55,88,0
5,57,99,4
5,64,52,0
5,57,62,0
5,60,59,0
5,64,68,0
5,55,92,60
5,53,101,0
5,59,74,0
5,57,80,75
5,64,67,0
5,60,68,0
5,55,92,48
5,53,90,13
5,59,82,0
5,55,110,4
5,64,68,0
5,60,63,0
5,57,88,69
5,55,68,40
5,64,68,0
5,53,76,16
5,59,78,0
5,55,63,0
5,64,55,0
5,60,65,0
5,57,83,40
5,55,74,12
5,53,66,13
5,59,76,0
5,55,47,96
5,60,67,0
5,64,58,0
5,48,79,0
5,91,78,0
5,55,79,0
5,84,26,24
5,79,27,0
5,72,25,0
5,84,65,126
5,84,49,49
5,48,59,40
5,36,73,0
5,76,56,0
5,72,54,0
5,84,35,0
6,51,80,624
6,46,80,1406
6,42,80,96
6,46,80,4464
6,42,80,4
6,52,80,0
6,46,80,2957
6,42,80,96
6,38,80,1174
6,38,80,24
6,38,80,76
6,38,80,65
6,38,80,35
6,52,80,9236
6,38,80,1186
6,52,80,1846
6,46,80,1426
6,52,80,96
6,42,80,0
6,38,80,10679
6,46,80,3003
6,42,80,96
6,38,80,1316
6,38,80,20
6,38,80,23
6,46,80,4582
6,52,81,54
6,38,74,1393
6,38,79,30
6,52,80,1554
6,38,80,1427
6,38,80,39
6,46,80,7611
6,42,80,20
6,52,80,0
6,46,80,3729
6,42,80,12
6,52,80,0
6,38,80,1616
6,52,80,3050
6,38,80,1508
6,38,80,75
6,38,80,26
6,46,80,1945
6,52,80,26
6,38,80,5793
6,38,80,22
6,38,80,73
6,38,80,68
6,38,80,24
7,49,80,3696
7,49,80,4590
7,49,80,3056
7,49,80,6132
7,49,80,3052
7,49,80,1529
7,49,80,1521
7,49,80,7665
7,49,80,3062
7,49,80,1520
7,49,80,1524
7,36,123,2577
7,49,124,0
7,49,80,455
7,49,86,4598
7,49,86,1497
7,49,80,1521
7,49,80,1524
7,49,80,1520
7,49,80,1521
7,49,80,6135
7,49,80,3061
7,49,80,1521
7,49,80,1524
7,49,80,847
7,49,80,654
7,49,80,1519
7,49,80,3058
7,49,80,3056
7,49,80,4589
7,49,79,12276
8,67,69,581
8,72,72,34
8,67,64,37
8,74,68,42
8,79,82,6
8,48,65,27
8,55,66,0
8,64,69,0
8,36,73,0
8,60,67,0
8,64,61,48
8,55,58,0
8,60,59,0
8,33,64,154
8,64,66,0
8,45,61,0
8,60,68,0
8,57,60,0
8,62,68,11
8,64,66,3
8,48,65,20
8,36,69,0
8,64,60,0
8,60,66,0
8,55,66,0
8,64,65,29
8,55,62,0
8,60,64,0
8,48,78,41
8,55,66,0
8,60,68,22
8,64,65,40
8,60,68,12
8,57,68,0
8,45,69,0
8,33,69,0
8,64,68,51
8,60,65,0
8,57,65,0
8,42,56,28
8,30,56,0
8,64,68,0
8,57,65,0
8,60,63,0
8,64,64,76
8,60,60,0
8,57,64,0
8,42,61,89
8,57,61,6
8,60,61,45
8,64,60,16
8,43,73,0
8,55,69,0
8,31,72,0
8,59,73,9
8,62,64,0
8,43,76,84
8,55,65,20
8,59,62,48
8,36,68,7
8,64,64,0
8,48,58,0
8,55,63,0
8,60,64,0
8,64,65,90
8,55,68,0
8,60,68,0
8,48,78,41
8,55,64,0
8,60,68,44
8,64,60,34
8,45,73,10
8,57,69,0
8,60,70,0
8,64,60,0
8,33,73,0
8,64,65,56
8,60,69,0
8,57,66,0
8,45,78,55
8,62,63,19
8,57,64,0
8,48,70,30
8,64,61,0
8,55,73,0
8,36,72,0
8,60,68,0
8,64,63,80
8,55,68,0
8,60,66,0
8,48,84,67
8,55,65,24
8,60,65,48
8,33,65,8
8,45,73,0
8,57,61,0
8,64,64,0
8,64,73,51
8,60,68,0
8,57,69,0
8,62,74,7
8,45,65,65
8,31,68,7
8,55,69,0
8,62,66,0
8,59,65,0
8,43,73,0
8,62,69,48
8,59,72,0
8,55,69,0
8,55,69,5
8,57,72,0
8,31,77,40
8,43,69,0
8,59,77,0
8,55,75,0
8,62,72,0
8,55,69,44
8,62,69,0
8,59,65,0
8,43,77,44
8,55,58,0
8,59,51,10
8,53,68,10
8,50,66,0
8,62,69,0
8,57,69,0
8,38,73,0
8,57,66,14
8,53,65,0
8,60,67,0
8,62,69,14
8,50,60,3
8,53,60,0
8,57,68,4
8,38,81,48
8,50,79,86
8,53,65,48
8,57,69,48
8,53,72,16
8,57,75,0
8,62,77,0
8,60,67,19
8,53,65,0
8,57,77,44
8,53,73,0
8,60,76,0
8,50,69,27
8,53,61,17
8,57,41,1
8,55,79,37
8,43,73,0
8,31,79,0
8,62,75,0
8,59,77,0
8,62,72,43
8,55,75,0
8,59,69,0
8,43,69,54
8,55,60,24
8,57,60,0
8,62,77,68
8,57,76,0
8,43,62,43
8,55,56,51
8,43,58,0
8,55,73,24
8,62,75,0
8,62,58,28
8,60,69,0
8,55,73,0
8,60,78,46
8,55,68,0
8,43,68,11
8,55,43,0
8,38,64,5
8,53,72,0
8,62,72,0
8,57,69,0
8,50,68,0
8,53,80,44
8,60,79,0
8,57,81,0
8,50,73,48
8,53,68,60
8,57,73,24
8,38,65,0
8,60,68,0
8,50,61,0
8,53,63,0
8,57,64,0
8,60,64,97
8,53,59,0
8,60,77,178
8,64,81,96
8,67,64,64
8,53,69,8
8,60,73,0
8,69,72,0
8,65,73,0
8,41,75,0
8,65,73,36
8,60,73,0
8,69,76,0
8,69,68,74
8,65,62,0
8,60,64,0
8,60,77,42
8,65,75,0
8,69,76,0
8,69,64,76
8,65,66,0
8,60,64,0
8,53,57,96
8,65,51,56
8,60,64,0
8,69,62,0
8,53,57,55
8,60,66,24
8,69,70,0
8,57,81,113
8,59,84,52
8,60,86,7
8,55,60,12
8,43,68,0
8,67,64,0
8,60,64,0
8,64,69,0
8,64,54,40
8,67,61,0
8,60,56,0
8,64,60,48
8,67,56,0
8,60,58,0
8,64,68,63
8,60,70,0
8,67,66,0
8,67,61,19
8,65,75,0
8,64,66,0
8,64,62,8
8,45,66,0
8,60,62,0
8,57,62,0
8,64,60,55
8,60,65,0
8,54,59,185
8,42,64,0
8,64,63,0
8,57,60,0
8,60,68,0
8,60,60,72
8,57,64,0
8,64,66,0
8,64,68,26
8,60,60,0
8,57,65,0
8,54,56,96
8,64,64,26
8,60,71,0
8,55,69,0
8,64,63,5
8,62,65,192
8,60,64,16
8,36,72,4
8,48,76,0
8,64,71,0
8,60,71,0
8,55,68,0
8,64,63,0
8,60,55,0
8,55,61,0
8,64,64,104
8,60,68,0
8,55,64,0
8,48,68,16
8,55,66,18
8,33,69,20
8,57,73,0
8,64,69,0
8,60,73,0
8,45,60,0
8,64,68,32
8,60,64,0
8,57,62,0
8,45,73,0
8,57,77,4
8,59,77,41
8,36,75,0
8,55,84,0
8,48,70,0
8,60,72,0
8,64,64,0
8,60,75,95
8,55,73,0
8,64,70,0
8,64,77,15
8,55,75,0
8,60,74,0
8,48,76,38
8,55,64,13
8,45,61,20
8,64,68,0
8,60,65,0
8,57,65,0
8,60,69,144
8,57,66,0
8,64,67,0
8,64,70,8
8,59,77,0
8,45,69,142
8,57,65,60
8,60,58,1
8,43,73,9
8,62,73,0
8,59,74,0
8,67,77,0
8,31,76,0
8,62,65,43
8,67,69,0
8,59,46,0
8,43,76,4
8,59,64,27
8,67,76,1
8,62,74,0
8,31,84,0
8,59,65,0
8,67,66,68
8,59,66,0
8,62,64,0
8,43,75,52
8,59,61,9
8,62,61,32
8,53,60,24
8,38,66,0
8,50,66,0
8,62,36,14
8,57,49,0
8,53,71,24
8,57,69,0
8,60,73,0
8,57,75,68
8,62,72,0
8,50,69,2
8,53,63,12
8,53,66,100
8,50,76,10
8,53,69,48
8,57,68,48
8,57,78,28
8,62,84,0
8,53,80,0
8,60,84,36
8,53,73,0
8,53,77,45
8,60,77,0
8,50,72,27
8,53,64,4
8,31,77,28
8,43,68,0
8,59,65,67
8,62,73,96
8,59,48,11
8,67,82,29
8,59,78,0
8,43,78,45
8,59,61,96
8,31,77,8
8,43,72,0
8,62,71,0
8,59,73,0
8,69,73,0
8,62,73,45
8,59,71,0
8,67,73,0
8,67,73,26
8,59,54,0
8,62,78,0
8,43,65,18
8,38,70,32
8,50,69,0
8,53,58,82
8,57,58,29
8,53,75,72
8,57,78,0
8,62,77,0
8,57,74,27
8,53,71,0
8,60,78,0
8,50,73,62
8,53,62,64
8,57,75,40
8,38,90,39
8,50,77,32
8,53,68,96
8,57,64,48
8,60,68,11
8,57,58,19
8,62,84,0
8,53,79,0
8,53,74,32
8,60,82,0
8,60,86,20
8,53,72,0
8,50,77,48
8,29,84,19
8,41,88,0
8,53,90,0
8,57,88,0
8,60,84,0
8,57,84,20
8,53,75,0
8,60,69,0
8,60,73,37
8,57,68,0
8,53,60,16
8,60,75,62
8,57,69,0
8,57,76,152
8,59,88,96
8,60,92,10
8,60,70,20
8,64,73,0
8,67,70,0
8,55,76,0
8,43,72,0
8,67,70,36
8,64,65,0
8,60,61,0
8,64,56,44
8,67,62,0
