track,note,velocity,time
1,57,127,6528
1,60,127,8
1,62,127,32
1,65,127,32
1,53,127,224
1,57,127,32
1,60,127,32
1,62,127,32
1,65,127,32
1,62,127,32
1,60,127,64
1,62,127,32
1,60,127,224
1,70,127,32
1,70,127,32
1,69,127,32
1,67,127,32
1,62,127,32
1,62,127,32
1,65,127,32
1,62,127,32
1,67,127,32
1,65,127,0
1,62,127,0
1,60,127,0
1,62,127,0
1,60,127,0
1,57,127,192
1,60,127,0
1,62,127,0
1,65,127,0
1,53,127,192
1,57,127,32
1,60,127,32
1,62,127,32
1,65,127,32
1,62,127,32
1,60,127,64
1,62,127,0
1,60,127,192
1,70,127,16
1,70,127,16
1,69,127,16
1,67,127,16
1,62,127,16
1,62,127,32
1,65,127,32
1,62,127,32
1,67,127,32
1,65,127,64
1,67,127,64
1,65,127,224
1,65,127,168
1,63,127,16
1,65,127,16
1,67,127,400
1,62,127,32
1,65,127,32
1,62,127,32
1,67,127,32
1,65,127,64
1,65,127,32
1,65,127,32
1,62,127,168
1,60,127,16
1,60,127,256
1,62,127,0
1,60,127,0
1,65,127,960
1,65,127,32
1,57,127,3488
1,60,127,0
1,62,127,0
1,65,127,0
1,53,127,192
1,57,127,16
1,60,127,16
1,62,127,16
1,65,127,16
1,62,127,16
1,60,127,24
1,60,127,0
1,62,127,32
1,60,127,224
1,70,127,32
1,70,127,32
1,69,127,32
1,67,127,32
1,62,127,32
1,62,127,32
1,65,127,32
1,62,127,32
1,67,127,32
1,65,127,0
1,62,127,0
1,60,127,0
1,62,127,0
1,60,127,0
1,57,127,192
1,60,127,0
1,62,127,0
1,65,127,0
1,53,127,192
1,57,127,0
1,60,127,0
1,62,127,0
1,65,127,0
1,62,127,0
1,60,127,0
1,62,127,0
1,60,127,192
1,70,127,64
1,70,127,64
1,69,127,64
1,67,127,0
1,62,127,0
1,62,127,64
1,65,127,64
1,62,127,64
1,67,127,64
1,65,127,128
1,67,127,128
1,65,127,256
1,65,127,192
1,63,127,32
1,65,127,32
1,67,127,416
1,62,127,128
1,65,127,64
1,62,127,64
1,67,127,64
1,65,127,128
1,65,127,64
1,69,127,0
1,67,127,768
1,65,127,0
1,62,127,0
1,60,127,0
1,60,127,960
1,69,127,0
1,69,127,28
1,69,127,32
1,67,127,24
1,67,127,20
1,69,126,24
1,67,127,16
1,65,127,24
1,65,127,28
1,62,127,32
1,67,127,28
1,65,127,36
1,69,127,32
1,69,127,28
1,69,127,32
1,67,127,36
1,67,127,24
1,62,127,32
1,65,127,28
1,70,127,36
1,70,127,24
1,70,127,24
1,70,127,36
1,67,127,36
1,65,127,28
1,65,124,28
1,62,127,14
1,60,127,4
1,59,127,4224
1,62,127,8
1,64,127,8
1,67,127,8
1,55,127,200
1,59,127,8
1,62,127,8
1,64,127,8
1,67,127,8
1,64,127,8
1,62,127,16
1,62,127,592
1,72,127,8
1,71,127,16
1,69,127,8
1,64,127,8
1,64,127,8
1,67,127,8
1,64,127,8
1,69,127,8
1,67,127,0
1,64,127,16
1,62,127,0
1,59,127,192
1,62,127,0
1,64,127,0
1,67,127,0
1,55,127,192
1,59,127,8
1,62,127,8
1,64,127,8
1,67,127,8
1,64,127,8
1,62,127,16
1,62,127,592
1,72,127,8
1,72,127,8
1,71,127,8
1,69,127,8
1,64,127,8
1,64,127,8
1,67,127,8
1,64,127,8
1,69,127,8
1,67,127,16
1,69,127,16
1,67,127,256
1,67,127,96
1,65,127,32
1,67,127,16
1,69,127,400
1,64,127,8
1,67,127,8
1,64,127,8
1,69,127,200
1,67,127,64
1,67,127,32
1,64,127,0
1,62,127,0
1,62,127,1792
1,71,127,24
1,71,127,28
1,71,127,32
1,69,127,24
1,69,127,20
1,71,126,24
1,69,127,16
1,67,127,24
1,67,127,28
1,64,127,32
1,69,127,28
1,67,127,36
1,71,127,32
1,71,127,28
1,71,127,32
1,69,127,36
1,69,127,24
1,64,127,32
1,67,127,28
1,72,127,36
1,72,127,24
1,72,127,24
1,72,127,36
1,69,127,36
1,67,127,28
1,67,127,28
1,60,127,12096
1,69,127,8
1,69,127,28
1,69,127,32
1,67,127,24
1,67,127,20
1,69,126,24
1,67,127,16
1,65,127,24
1,65,127,28
1,62,127,32
1,67,127,28
1,65,127,36
1,69,127,32
1,69,127,28
1,69,127,32
1,67,127,36
1,67,127,24
1,62,127,32
1,65,127,28
1,70,127,36
1,70,127,24
1,70,127,24
1,70,127,36
1,67,127,36
1,65,127,28
1,72,118,28
1,67,112,384
1,67,111,34
1,59,127,3424
1,62,127,8
1,64,127,8
1,67,127,8
1,55,104,406
1,53,97,6
1,55,106,8
1,57,87,38
1,58,107,90
1,55,104,24
1,57,108,12
1,58,104,1836
1,62,86,0
1,53,95,4
1,58,85,58
1,62,85,0
1,53,83,0
1,62,75,30
1,58,79,0
1,53,86,10
1,53,95,98
1,58,95,6
1,62,84,0
1,60,76,80
1,57,88,2
1,52,98,2
1,67,108,356
1,66,116,204
1,64,108,176
1,64,124,76
1,60,118,768
1,60,112,38
1,62,125,190
1,69,127,20
1,58,104,400
1,62,86,0
1,53,95,4
1,58,85,58
1,62,85,0
1,53,83,0
1,62,75,30
1,58,79,0
1,53,86,10
1,53,95,98
1,58,95,6
1,62,84,0
1,60,76,80
1,57,88,2
1,52,98,2
1,60,106,168
1,60,80,40
1,62,106,22
1,62,104,68
1,62,110,44
1,59,97,32
1,59,92,46
1,60,125,68
1,59,110,44
1,57,112,80
1,55,88,176
1,67,125,410
1,66,113,0
1,64,110,12
1,62,125,12
1,66,110,10
1,64,112,18
1,62,117,392
1,58,104,350
1,62,86,0
1,53,95,4
1,58,85,58
1,62,85,0
1,53,83,0
1,62,75,30
1,58,79,0
1,53,86,10
1,53,95,98
1,58,95,6
1,62,84,0
1,60,76,80
1,57,88,2
1,52,98,2
1,62,110,356
1,62,112,212
1,60,102,220
1,59,69,106
1,57,102,4
1,55,104,18
1,62,112,220
1,62,114,230
1,60,110,206
1,59,87,2
1,57,80,10
1,55,106,2
1,62,104,220
1,62,104,210
1,60,108,418
1,58,104,276
1,62,86,0
1,53,95,4
1,58,85,58
1,62,85,0
1,53,83,0
1,62,75,30
1,58,79,0
1,53,86,10
1,53,95,98
1,58,95,6
1,62,84,0
1,60,76,80
1,57,88,2
1,52,98,2
1,67,127,2
1,67,122,20
1,62,127,12
1,67,125,60
1,62,110,186
1,62,112,212
1,60,102,220
1,59,69,106
1,57,102,4
1,55,104,18
1,70,127,240
1,69,114,74
1,69,117,46
1,67,117,52
1,67,112,56
1,64,120,4
1,62,117,102
1,62,110,0
1,62,112,34
1,60,102,74
1,59,69,48
1,57,102,4
1,55,104,18
1,58,104,208
1,62,86,0
1,53,95,4
1,58,85,58
1,62,85,0
1,53,83,0
1,62,75,30
1,58,79,0
1,53,86,10
1,53,95,98
1,58,95,6
1,62,84,0
1,60,76,80
1,57,88,2
1,52,98,2
1,62,110,138
1,62,112,2
1,60,102,220
1,59,69,106
1,57,102,4
1,55,104,18
1,62,110,160
1,62,112,80
1,60,102,26
1,59,69,94
1,57,102,4
1,55,104,18
2,41,98,26
2,41,127,0
2,41,127,64
2,41,127,256
2,34,127,64
2,34,127,64
2,34,127,256
2,41,127,64
2,41,127,64
2,38,127,64
2,36,127,64
2,34,127,64
2,34,127,192
2,36,127,32
2,41,127,128
2,41,127,64
2,41,127,32
2,36,127,0
2,36,127,0
2,36,127,0
2,41,127,384
2,41,127,0
2,38,127,0
2,36,127,0
2,34,127,0
2,36,127,0
2,41,127,0
2,41,127,0
2,41,127,192
2,34,127,0
2,34,127,0
2,41,127,384
2,41,127,0
2,38,127,0
2,36,127,0
2,34,127,0
2,36,127,0
2,41,127,0
2,41,127,0
2,38,127,0
2,36,127,96
2,34,127,64
2,34,127,64
2,41,127,448
2,41,127,64
2,38,127,64
2,36,127,64
2,34,127,64
2,36,127,128
2,41,127,128
2,41,127,64
2,41,127,256
2,34,127,64
2,34,127,64
2,41,127,448
2,41,127,64
2,38,127,64
2,36,127,64
2,34,127,64
2,36,127,128
2,41,127,128
2,41,127,64
2,38,127,32
2,36,127,96
2,34,127,64
2,34,127,64
2,41,127,448
2,41,127,64
2,38,127,64
2,36,127,64
2,34,127,64
2,36,127,128
2,39,127,128
2,36,127,0
2,36,127,32
2,38,127,32
2,39,127,32
2,50,127,608
2,48,127,64
2,46,127,64
2,36,127,64
2,36,127,128
2,41,127,128
2,41,127,64
2,41,127,256
2,34,127,64
2,34,127,64
2,41,127,448
2,41,127,32
2,38,127,32
2,36,127,32
2,34,127,32
2,34,127,32
2,36,127,32
2,41,127,64
2,41,127,32
2,38,127,16
2,36,127,32
2,34,127,0
2,34,127,0
2,41,127,384
2,41,127,0
2,41,127,192
2,38,127,0
2,36,127,0
2,34,127,0
2,34,127,0
2,36,127,0
2,41,127,0
2,41,127,0
2,41,127,192
2,34,127,0
2,34,127,0
2,41,127,384
2,41,127,0
2,38,127,0
2,36,127,0
2,34,127,0
2,36,127,0
2,41,127,0
2,41,127,0
2,38,127,0
2,36,127,96
2,34,127,64
2,34,127,64
2,41,127,448
2,41,127,64
2,38,127,64
2,36,127,64
2,34,127,64
2,36,127,128
2,41,127,128
2,41,127,64
2,41,127,256
2,34,127,64
2,34,127,64
2,41,127,448
2,41,127,64
2,38,127,64
2,36,127,64
2,34,127,64
2,36,127,128
2,41,127,128
2,41,127,64
2,38,127,32
2,36,127,96
2,34,127,64
2,34,127,64
2,41,127,448
2,41,127,64
2,38,127,64
2,36,127,64
2,34,127,64
2,36,127,128
2,55,127,128
2,51,127,0
2,36,127,264
2,36,127,32
2,38,127,32
2,39,127,32
2,50,127,608
2,48,127,64
2,46,127,64
2,36,127,64
2,36,127,128
2,41,127,128
2,41,127,0
2,41,127,192
2,34,127,0
2,34,127,0
2,41,127,384
2,41,127,0
2,38,127,0
2,36,127,0
2,34,127,0
2,36,127,0
2,36,127,0
2,36,127,0
2,36,127,0
2,36,127,0
2,36,127,0
2,36,127,0
2,36,127,0
2,34,127,0
2,34,127,0
2,34,127,0
2,34,127,0
2,34,127,0
2,34,127,0
2,34,127,0
2,34,127,0
2,34,127,0
2,36,127,0
2,36,127,0
2,48,127,0
2,36,127,0
2,36,127,0
2,36,127,0
2,36,127,0
2,36,127,0
2,36,127,0
2,36,127,0
2,39,127,0
2,39,127,0
2,39,127,0
2,39,127,0
2,39,127,0
2,43,127,0
2,46,127,0
2,43,127,0
2,48,127,0
2,43,127,0
2,43,127,32
2,40,127,224
2,36,127,32
2,36,127,32
2,43,127,416
2,43,127,32
2,40,127,32
2,38,127,32
2,36,127,32
2,36,127,32
2,38,127,32
2,43,127,64
2,43,127,32
2,40,127,16
2,38,127,208
2,36,127,32
2,36,127,32
2,43,127,416
2,43,127,32
2,40,127,32
2,38,127,32
2,36,127,32
2,38,127,48
2,40,127,16
2,43,127,16
2,45,127,16
2,47,127,16
2,43,127,16
2,43,127,32
2,43,127,224
2,36,127,32
2,36,127,32
2,43,127,416
2,43,127,32
2,40,127,32
2,38,127,32
2,36,127,32
2,38,127,64
2,43,127,64
2,43,127,32
2,40,127,16
2,38,127,48
2,36,127,32
2,36,127,32
2,43,127,416
2,43,127,32
2,40,127,32
2,38,127,32
2,36,127,32
2,38,127,64
2,43,127,64
2,43,127,32
2,43,127,224
2,36,127,32
2,36,127,32
2,43,127,416
2,43,127,32
2,40,127,32
2,38,127,32
2,36,127,32
2,38,127,64
2,43,127,64
2,43,127,32
2,40,127,16
2,38,127,48
2,36,127,32
2,36,127,32
2,43,127,416
2,43,127,32
2,40,127,32
2,38,127,32
2,36,127,32
2,38,127,64
2,41,127,4
2,38,127,0
2,38,127,16
2,40,127,16
2,41,127,16
2,41,126,0
2,45,127,0
2,48,127,16
2,50,127,16
2,48,127,32
2,45,127,16
2,36,127,16
2,36,127,64
2,43,127,64
2,43,127,32
2,43,127,224
2,36,127,32
2,36,127,32
2,43,127,416
2,43,127,32
2,40,127,32
2,38,127,32
2,36,127,32
2,36,127,32
2,38,127,32
2,38,127,64
2,38,127,0
2,38,127,0
2,38,127,0
2,38,127,0
2,38,127,0
2,38,127,4
2,36,127,188
2,36,127,0
2,36,127,0
2,36,127,0
2,36,127,0
2,36,127,0
2,36,127,0
2,36,127,0
2,36,127,0
2,38,127,0
2,38,127,0
2,50,127,0
2,38,127,0
2,38,127,0
2,38,127,0
2,38,127,0
2,38,127,0
2,38,127,0
2,38,127,0
2,36,127,0
2,36,127,0
2,36,127,4
2,36,127,188
2,41,127,4
2,45,127,0
2,48,127,0
2,45,127,0
2,50,127,4
2,48,110,188
2,41,127,2
2,41,127,64
2,41,127,256
2,34,127,64
2,34,127,64
2,34,127,256
2,36,127,32
2,37,127,32
2,37,127,64
2,37,127,256
2,36,127,64
2,36,127,64
2,36,127,256
2,38,127,32
2,41,127,32
2,41,127,64
2,41,127,256
2,34,127,64
2,34,127,64
2,34,127,256
2,39,127,64
2,41,127,32
2,44,127,32
2,48,127,32
2,51,127,32
2,48,127,64
2,36,127,64
2,36,127,128
2,39,127,128
2,40,127,128
2,41,127,128
2,41,127,128
2,41,127,320
2,34,127,128
2,34,127,128
2,34,127,320
2,37,127,128
2,41,127,128
2,46,127,128
2,41,127,256
2,39,127,64
2,39,125,64
2,39,127,158
2,39,126,16
2,41,127,18
2,41,127,0
2,41,127,192
2,34,127,0
2,34,127,0
2,34,127,192
2,37,127,0
2,37,127,0
2,41,127,0
2,37,127,0
2,44,127,0
2,44,127,0
2,44,127,0
2,39,127,96
2,39,127,0
2,39,127,0
2,36,127,0
2,36,127,0
2,36,127,0
2,36,127,0
2,36,127,0
2,36,127,0
2,36,127,0
2,34,127,0
2,34,127,0
2,34,127,0
2,34,127,0
2,34,127,0
2,34,127,0
2,34,127,0
2,34,127,0
2,34,127,0
2,36,127,0
2,36,127,0
2,48,127,0
2,36,127,0
2,36,127,0
2,36,127,0
2,36,127,0
2,36,127,0
2,36,127,0
2,36,127,0
2,39,127,0
2,39,127,0
2,39,127,0
2,39,127,0
2,39,127,0
2,43,127,0
2,46,127,0
2,43,127,0
2,48,127,0
2,43,127,0
2,43,127,32
2,40,127,224
2,36,127,32
2,36,127,32
2,43,127,416
2,43,127,32
2,40,127,32
2,38,127,32
2,36,127,32
2,36,127,32
2,38,127,32
2,43,127,64
2,43,127,32
2,40,127,16
2,38,127,208
2,36,127,32
2,36,127,32
2,59,47,512
2,57,47,8
2,64,47,8
2,60,47,8
2,59,47,8
2,43,94,6
2,57,47,2
2,41,127,0
2,39,127,8
2,38,127,8
2,36,127,8
2,43,127,8
2,43,127,64
2,43,127,256
2,36,127,64
2,36,127,64
2,36,127,256
2,38,127,32
2,39,127,32
2,39,127,64
2,39,127,256
2,38,127,64
2,38,127,64
2,38,127,256
2,40,127,32
2,43,127,32
2,43,127,64
2,43,127,256
2,36,127,64
2,36,127,64
2,36,127,256
2,41,127,64
2,43,127,32
2,46,127,32
2,50,127,32
2,53,127,32
2,50,127,64
2,38,127,64
2,38,127,128
2,41,127,128
2,42,127,128
2,43,127,128
2,43,127,64
2,43,127,256
2,36,127,64
2,36,127,64
2,36,127,256
2,38,127,32
2,39,127,32
2,39,127,64
2,39,127,256
2,38,127,64
2,38,127,64
2,38,127,256
2,40,127,32
2,43,127,32
2,43,127,64
2,43,127,256
2,36,127,64
2,36,127,64
2,36,127,256
2,41,127,64
2,43,127,32
2,46,127,32
2,50,127,32
2,53,127,32
2,50,127,64
2,38,127,64
2,38,127,128
2,41,127,128
2,42,127,128
2,43,127,128
2,43,127,64
2,43,127,256
2,36,127,64
2,36,127,64
2,36,127,256
2,38,127,32
2,39,127,32
2,39,127,64
2,39,127,256
2,38,127,64
2,38,127,64
2,38,127,256
2,40,127,32
2,43,127,32
2,43,127,64
2,43,127,256
2,36,127,64
2,36,127,64
2,36,127,256
2,41,127,64
2,43,127,32
2,46,127,32
2,50,127,32
2,53,127,32
2,50,127,64
