track,note,velocity,time
1,37,109,5
1,37,103,104
1,35,99,53
1,37,119,21
1,44,115,285
1,43,123,288
1,42,119,296
1,37,105,304
1,40,109,29
1,37,109,37
1,37,127,216
1,37,105,88
1,35,105,40
1,37,111,192
1,44,119,301
1,43,115,277
1,42,107,304
1,37,101,325
1,40,111,8
1,42,105,37
1,37,115,24
1,37,101,93
1,35,109,192
1,37,109,13
1,44,123,237
1,43,127,272
1,42,119,301
1,37,103,309
1,40,115,192
1,37,109,8
1,37,127,205
1,37,101,93
1,35,103,192
1,37,109,21
1,44,123,232
1,43,115,277
1,42,115,296
1,37,107,296
1,40,115,0
1,37,127,21
1,37,107,104
1,35,111,5
1,37,119,29
1,44,119,253
1,43,111,285
1,42,119,301
1,37,103,309
1,40,109,5
1,37,107,0
1,37,123,213
1,37,109,96
1,35,107,192
1,37,109,29
1,44,111,192
1,43,115,272
1,42,109,277
1,37,109,293
1,40,115,16
1,37,123,85
1,37,109,117
1,35,107,16
1,37,123,8
1,32,111,256
1,31,119,245
1,30,109,245
1,37,109,197
1,40,115,16
1,37,123,61
1,37,127,213
1,37,95,93
1,35,105,16
1,37,107,192
1,44,123,248
1,43,119,261
1,42,105,285
1,37,105,285
1,40,105,192
1,37,107,104
1,37,115,88
1,35,101,37
1,37,109,40
1,32,109,216
1,31,127,232
1,30,109,224
1,37,107,200
1,40,115,40
1,37,119,16
1,37,119,173
1,37,105,96
1,35,101,40
1,37,115,0
1,32,115,192
1,31,70,181
1,30,115,264
1,25,109,221
1,28,115,45
1,42,123,117
1,42,109,117
1,40,107,37
1,42,111,192
1,49,115,304
1,48,123,277
1,47,103,293
1,42,115,304
1,45,127,32
1,42,107,56
1,42,127,120
1,42,107,88
1,40,97,32
1,42,123,5
1,37,107,280
1,36,127,237
1,35,119,256
1,30,103,272
1,33,127,192
1,35,109,29
1,37,127,24
1,37,105,96
1,35,115,16
1,37,123,40
1,44,123,304
1,43,111,285
1,42,109,296
1,37,109,296
1,40,111,8
1,37,109,24
1,37,127,208
1,37,109,101
1,35,103,48
1,37,123,16
1,44,119,280
1,43,127,293
1,42,119,312
1,37,105,304
1,40,107,192
1,37,109,69
1,32,127,189
1,32,111,40
1,32,127,72
1,35,127,1021
1,30,127,13
1,32,127,125
1,32,115,45
1,32,127,56
1,35,127,1013
1,30,109,13
1,32,127,109
1,32,109,32
1,32,127,56
1,35,127,997
1,30,127,45
1,32,119,101
1,32,89,77
1,32,82,93
1,32,93,69
1,32,82,93
1,32,103,69
1,32,107,128
1,32,119,53
1,32,123,64
1,32,119,37
1,32,123,85
1,32,119,45
1,32,127,61
1,32,119,48
1,35,111,16
1,36,127,37
1,37,127,13
1,37,115,85
1,35,105,32
1,37,109,45
1,44,115,304
1,43,123,296
1,42,105,309
1,37,107,309
1,40,119,48
1,37,103,40
1,37,119,120
1,37,107,101
1,35,107,16
1,37,109,45
1,44,119,224
1,43,107,261
1,40,107,184
1,42,119,16
1,44,107,16
1,47,101,16
1,49,109,0
1,52,111,16
1,54,109,16
1,52,123,16
1,49,115,384
1,37,127,53
1,37,107,101
1,35,111,56
1,37,111,29
1,32,111,285
1,31,127,277
1,30,127,261
1,37,119,277
1,40,127,45
1,37,127,101
1,37,111,176
1,37,115,93
1,35,111,40
1,37,119,29
1,44,119,237
1,43,119,296
1,42,119,317
1,40,123,293
1,42,101,45
1,40,115,96
1,37,101,29
1,35,109,29
1,32,109,32
1,30,111,24
1,28,111,13
1,25,111,21
1,25,109,96
1,23,123,21
1,25,111,40
1,32,127,288
1,31,127,264
1,30,119,240
1,25,107,248
1,28,127,37
1,25,107,37
1,37,123,208
1,37,119,104
1,35,109,29
1,37,109,13
1,32,123,245
1,31,127,216
1,30,115,253
1,25,105,256
1,28,127,16
1,37,109,5
1,37,109,104
1,35,127,5
1,37,115,40
1,32,123,256
1,31,127,272
1,30,123,245
1,25,107,293
1,28,123,13
1,25,101,69
1,37,123,136
1,37,115,101
1,35,99,32
1,37,107,24
1,44,119,261
1,43,127,277
1,42,111,272
1,37,109,296
1,40,107,192
1,30,127,61
1,30,107,101
1,28,115,40
1,30,123,45
1,37,123,240
1,36,127,256
1,35,111,272
1,30,111,293
1,33,127,192
1,30,111,37
1,30,127,197
1,30,103,85
1,28,109,32
1,30,127,45
1,37,123,256
1,36,119,261
1,35,111,264
1,30,107,264
1,35,127,40
1,33,119,29
1,37,119,53
1,37,109,69
1,35,107,48
1,37,115,53
1,32,109,261
1,31,127,229
1,30,119,232
1,37,105,293
1,40,127,64
1,37,123,21
1,37,127,173
1,37,109,88
1,35,107,32
1,37,109,16
1,32,111,245
1,31,127,237
1,30,119,237
1,25,115,301
1,28,127,56
1,30,97,168
1,31,109,37
1,32,127,45
1,32,97,56
1,32,127,69
1,35,127,1008
1,30,127,48
1,32,127,136
1,32,107,56
1,32,127,72
1,35,127,1016
1,30,127,48
1,32,127,93
1,32,105,77
1,32,127,37
1,35,127,1021
1,30,127,768
1,32,95,165
1,32,77,64
1,32,80,77
1,32,80,61
1,32,83,117
1,32,97,56
1,32,97,112
1,32,101,61
1,32,119,88
1,32,111,56
1,32,127,104
1,32,127,85
1,32,123,96
1,32,127,56
1,35,111,48
1,36,111,85
1,37,109,13
1,37,127,64
1,37,107,85
1,35,109,40
1,37,115,29
1,44,119,280
1,43,127,277
1,42,127,304
1,37,109,312
1,40,119,64
1,37,111,0
1,37,127,208
1,37,107,72
1,35,119,29
1,37,127,40
1,44,123,288
1,43,127,256
1,42,119,304
1,35,123,296
1,37,127,16
1,40,123,16
1,42,119,16
1,40,127,96
1,37,127,16
1,37,127,16
1,37,101,77
1,35,101,29
1,37,119,45
1,44,123,269
1,43,109,285
1,42,111,309
1,37,105,285
1,40,111,40
1,37,107,13
1,37,119,133
1,37,82,101
1,35,105,21
1,37,111,32
1,44,119,272
1,43,127,293
1,42,109,301
1,37,107,312
1,40,119,56
1,42,123,96
1,30,127,133
1,30,103,104
1,28,115,117
1,30,109,45
1,37,127,192
1,36,127,253
1,35,127,272
1,30,109,269
1,33,127,101
1,30,119,13
1,30,127,157
1,30,107,88
1,28,119,192
1,30,109,69
1,37,127,240
1,36,127,293
1,35,111,280
1,30,107,296
1,35,127,120
1,33,109,88
1,37,111,96
1,37,82,69
1,35,109,29
1,37,119,152
1,44,115,285
1,43,127,296
1,42,123,293
1,37,111,317
1,40,111,24
1,37,119,32
1,37,109,192
1,37,105,112
1,35,107,48
1,37,111,24
1,44,123,221
1,43,127,285
1,42,111,304
1,37,107,320
1,40,109,24
1,37,119,45
1,32,127,208
1,32,119,85
1,32,127,69
1,35,127,1040
1,30,123,21
1,32,127,141
1,32,119,85
1,32,127,77
1,35,127,1008
1,30,127,48
1,32,127,173
1,32,127,48
1,32,127,69
1,35,127,1024
1,30,127,69
1,32,109,184
1,32,107,101
1,32,107,80
1,32,111,85
1,32,109,136
1,32,109,61
1,32,127,109
1,32,99,101
1,44,109,29
1,44,127,80
1,44,127,80
1,44,123,85
1,44,127,88
1,32,109,45
1,35,111,29
1,36,109,56
1,37,127,56
1,37,103,104
1,35,111,40
1,37,123,29
1,32,123,288
1,31,127,277
1,30,109,256
1,25,105,293
1,28,127,53
1,25,115,29
1,37,107,152
1,37,123,72
1,35,127,29
1,37,119,13
1,32,127,285
1,31,127,285
1,30,115,253
1,25,115,296
1,28,127,53
1,28,127,8
1,37,123,5
1,37,127,93
1,35,127,45
1,37,119,45
1,44,119,301
1,43,123,293
1,42,111,293
1,37,115,293
1,40,123,69
1,37,123,5
1,37,119,176
1,37,107,101
1,35,101,21
1,37,107,13
1,44,107,277
1,43,103,280
1,42,103,301
1,44,111,16
1,47,109,16
1,49,111,16
1,52,107,16
1,54,111,16
1,54,123,16
1,52,105,85
1,49,109,16
1,47,107,16
1,44,103,16
1,42,115,16
1,37,119,16
1,37,123,109
1,35,105,40
1,37,109,40
1,32,111,301
1,31,127,264
1,30,127,264
1,25,105,277
1,28,127,37
1,25,109,40
1,37,111,245
1,37,115,93
1,35,127,32
1,37,123,40
1,32,123,280
1,31,127,280
1,30,111,264
1,28,107,232
1,40,127,72
1,37,119,16
1,37,127,184
1,37,107,93
1,35,97,32
1,37,119,16
1,32,123,293
1,31,127,216
1,30,111,256
1,25,99,269
1,28,123,24
1,25,115,80
1,37,119,221
1,37,111,80
1,35,123,16
1,37,119,32
1,32,119,256
1,31,127,256
1,30,107,245
1,25,111,264
1,28,127,64
1,25,109,37
1,30,127,256
1,30,107,88
1,28,107,37
1,30,127,37
1,37,123,280
1,36,127,277
1,35,119,285
1,30,111,296
1,33,127,72
1,30,123,32
1,30,127,200
1,30,119,88
1,28,111,32
1,30,123,32
1,37,127,285
1,36,127,285
1,35,115,296
1,30,115,293
1,33,123,13
1,30,123,16
1,37,127,197
1,37,101,93
1,35,107,32
1,37,109,56
1,44,127,285
1,43,127,301
1,42,115,296
1,37,99,296
1,40,115,192
1,37,111,16
1,37,127,208
1,37,101,85
1,35,119,40
1,37,111,192
1,44,119,304
1,43,119,312
1,42,119,309
1,37,109,301
1,40,111,192
1,37,123,29
1,32,127,256
1,32,109,96
1,32,127,72
1,35,127,1037
1,30,127,8
1,32,127,128
1,32,107,93
1,32,123,69
1,35,127,1000
1,30,127,29
1,32,127,120
1,32,115,61
1,32,127,72
1,32,109,829
1,34,119,16
1,35,123,29
1,30,127,32
1,32,127,96
1,32,119,120
1,32,127,61
1,35,127,1016
1,30,109,8
1,32,115,40
1,32,111,128
1,42,101,16
1,41,95,16
1,42,109,16
1,32,97,16
1,32,111,16
1,32,101,16
1,32,107,16
1,32,107,16
1,30,119,16
1,31,109,0
1,32,107,16
1,29,96,16
1,32,107,16
1,29,97,16
1,32,94,16
1,41,95,5
1,39,111,16
1,41,87,16
1,32,97,16
1,36,103,192
1,39,107,8
1,41,97,8
1,42,107,5
1,41,95,16
1,39,109,0
1,36,89,16
1,32,101,16
1,29,96,16
1,32,105,16
1,29,103,192
1,32,105,16
1,39,109,16
1,39,109,16
1,41,95,16
1,32,99,16
1,36,97,192
1,39,101,13
1,41,101,192
1,42,107,8
1,41,99,16
1,39,101,16
1,36,95,8
1,32,105,16
1,30,103,192
1,32,105,16
1,32,109,16
1,41,95,192
1,39,107,136
1,41,97,16
1,32,111,16
1,36,105,192
1,39,105,16
1,41,109,192
1,42,109,16
1,41,89,16
1,39,107,16
1,32,115,16
1,32,107,16
1,29,96,16
1,32,111,16
1,29,95,16
1,32,101,16
1,29,89,16
1,41,111,16
1,39,107,16
1,41,99,16
1,32,95,16
1,29,105,16
1,32,109,16
1,29,103,16
1,32,109,13
1,32,94,16
1,41,109,16
1,39,107,16
1,29,109,16
1,32,103,16
1,29,103,16
1,32,107,16
1,29,107,16
1,32,111,16
1,32,102,16
1,41,103,96
1,39,107,16
1,41,105,16
1,32,109,16
1,29,97,16
1,32,109,16
1,29,103,16
1,32,109,16
1,32,97,16
1,41,99,8
1,39,107,8
1,36,97,16
1,32,103,16
1,29,102,16
1,32,105,16
1,29,107,192
1,32,96,16
1,41,107,16
1,32,65,0
1,39,107,173
1,41,93,0
1,32,109,16
1,36,105,16
1,39,101,16
1,41,99,16
1,42,107,16
1,41,89,16
1,39,101,8
1,41,97,192
1,39,107,16
1,32,105,16
1,29,99,16
1,32,107,16
1,29,107,13
1,32,105,8
1,32,97,16
1,41,97,96
1,39,93,16
1,41,99,16
1,42,89,16
1,41,95,16
1,39,97,96
1,32,97,16
1,39,107,16
1,36,97,8
1,32,93,16
1,30,97,16
1,36,99,16
1,32,109,5
1,30,105,16
1,27,99,16
1,30,111,16
1,32,109,16
1,37,109,16
1,37,103,104
1,35,99,53
1,37,119,21
1,44,115,285
1,43,123,288
1,42,119,296
1,37,105,304
1,40,109,29
1,30,109,37
1,37,122,16
2,49,127,8776
2,49,117,85
2,37,122,0
2,47,122,24
2,35,117,0
2,49,122,13
2,37,127,0
2,56,100,232
2,44,117,0
2,32,104,0
2,55,117,256
2,43,112,0
2,31,104,0
2,54,122,237
2,42,112,0
2,30,100,0
2,49,108,237
2,37,112,0
2,52,122,24
2,40,127,0
2,49,104,29
2,37,117,0
2,49,127,200
2,49,108,64
2,37,117,0
2,47,112,40
2,35,108,0
2,49,122,13
2,37,108,0
2,56,104,272
2,44,117,0
2,55,112,264
2,43,117,0
2,54,117,272
2,42,108,0
2,49,104,272
2,37,104,0
2,52,122,53
2,40,127,0
2,54,122,32
2,42,108,0
2,49,112,16
2,49,117,96
2,37,117,0
2,47,112,29
2,35,112,0
2,49,122,16
2,37,122,0
2,56,104,272
2,44,112,0
2,55,112,269
2,43,117,0
2,54,112,272
2,42,112,0
2,49,100,285
2,37,112,0
2,52,112,21
2,40,117,0
2,49,112,40
2,37,108,0
2,49,122,173
2,49,96,77
2,37,108,0
2,47,100,48
2,35,104,0
2,49,117,13
2,37,112,0
2,56,100,277
2,44,108,0
2,55,112,269
2,43,112,0
2,54,127,237
2,42,122,0
2,49,108,224
2,37,117,0
2,52,122,29
2,40,122,0
2,49,122,69
2,49,104,56
2,37,108,0
2,47,100,45
2,35,117,0
2,49,122,16
2,37,122,0
2,56,112,253
2,44,117,0
2,55,127,264
2,43,122,0
2,54,117,264
2,42,117,0
2,49,100,264
2,37,122,0
2,52,122,24
2,40,127,0
2,49,112,37
2,37,117,0
2,49,127,189
2,49,100,61
2,37,100,0
2,47,108,32
2,35,104,0
2,49,117,13
2,37,117,0
2,56,100,288
2,44,108,0
2,55,108,248
2,43,117,0
2,54,122,256
2,42,100,0
2,49,100,261
2,37,108,0
2,52,117,24
2,40,127,0
2,59,112,64
2,56,108,0
2,52,108,0
2,49,92,0
2,37,96,5
2,47,86,117
2,35,104,0
2,49,104,13
2,37,122,0
2,56,100,317
2,44,104,0
2,55,92,280
2,43,112,0
2,54,104,285
2,42,112,0
2,49,96,301
2,37,104,0
2,52,108,21
2,40,108,0
2,49,100,37
2,37,108,0
2,49,100,168
2,49,96,77
2,37,100,0
2,47,100,32
2,35,104,0
2,49,117,29
2,37,112,0
2,56,100,269
2,44,108,0
2,55,108,269
2,43,112,0
2,54,112,261
2,42,112,0
2,49,117,296
2,37,108,0
2,52,108,16
2,40,117,0
2,40,127,40
2,58,117,53
2,54,92,0
2,49,96,0
2,52,100,24
2,49,92,0
2,49,84,64
2,37,112,0
2,47,108,45
2,35,108,0
2,49,117,21
2,37,117,0
2,56,100,277
2,44,112,0
2,55,112,277
2,43,117,0
2,54,122,272
2,42,112,0
2,49,104,293
2,37,117,0
2,52,117,21
2,40,112,0
2,49,100,45
2,37,108,0
2,49,127,208
2,49,100,64
2,37,104,0
2,47,104,29
2,35,104,0
2,49,117,29
2,37,122,0
2,56,112,285
2,44,108,0
2,55,127,277
2,43,117,0
2,54,108,256
2,42,117,0
2,37,122,192
2,58,117,96
2,54,108,0
2,53,127,0
2,49,108,0
2,56,108,48
2,52,112,0
2,47,122,0
2,37,127,136
2,37,108,85
2,54,117,45
2,54,127,93
2,42,112,0
2,52,122,45
2,40,112,0
2,54,112,5
2,42,127,0
2,61,112,304
2,37,122,0
2,60,117,248
2,36,117,0
2,59,122,248
2,35,122,0
2,30,108,184
2,63,117,96
2,59,122,0
2,54,108,0
2,61,108,48
2,57,117,0
2,54,86,0
2,42,117,0
2,54,108,144
2,42,122,0
2,52,88,72
2,40,108,0
2,54,122,37
2,54,104,64
2,42,112,0
2,52,108,40
2,40,108,0
2,54,122,5
2,42,108,0
2,49,122,272
2,37,122,0
2,48,127,264
2,36,117,0
2,47,122,256
2,35,122,0
2,42,108,288
2,30,108,0
2,45,127,29
2,33,117,0
2,47,122,32
2,35,122,0
2,49,127,224
2,49,112,96
2,37,108,0
2,47,112,48
2,35,112,0
2,49,100,13
2,37,122,0
2,56,117,293
2,44,108,0
2,55,122,277
2,43,112,0
2,54,117,285
2,42,104,0
2,49,104,280
2,37,112,0
2,52,127,16
2,40,122,0
2,49,117,45
2,37,122,0
