track,note,velocity,time
1,55,127,0
1,55,127,0
1,55,127,0
1,55,127,0
1,55,127,0
1,62,127,0
1,64,127,0
1,60,127,192
1,60,127,0
1,60,127,0
1,60,127,0
1,62,127,0
1,64,127,0
1,67,127,0
1,59,127,192
1,60,127,0
1,60,127,0
1,60,127,0
1,57,127,0
1,55,127,0
1,64,127,576
1,64,127,0
1,60,127,0
1,55,127,0
1,55,127,0
1,55,127,0
1,55,127,0
1,55,127,0
1,64,127,0
1,62,127,0
1,64,127,0
1,62,127,0
1,60,127,0
1,60,127,0
1,60,127,0
1,60,127,0
1,62,127,0
1,64,127,0
1,67,127,0
1,69,127,0
1,59,127,192
1,60,127,0
1,60,127,0
1,60,127,0
1,57,127,0
1,55,127,0
1,64,127,1344
1,62,127,0
1,60,127,0
1,60,127,0
1,64,127,0
1,60,127,0
1,60,127,0
1,60,127,0
1,60,127,0
1,62,127,0
1,64,127,0
1,64,127,0
1,65,127,0
1,64,127,0
1,64,127,576
1,67,127,0
1,69,127,0
1,67,127,0
1,67,127,0
1,64,127,0
1,64,127,0
1,62,127,0
1,60,127,0
1,60,127,0
1,60,127,576
1,62,127,0
1,60,127,0
1,72,127,384
1,71,127,0
1,69,127,0
1,71,127,0
1,69,127,0
1,71,127,0
1,67,127,384
1,69,127,0
1,71,127,0
1,71,127,0
1,72,127,0
1,67,127,0
1,69,127,0
1,67,127,192
1,65,127,0
1,64,127,0
1,65,127,0
1,64,127,0
1,62,127,0
1,62,127,0
1,62,127,0
1,60,127,0
1,72,127,384
1,74,127,0
1,69,127,0
1,71,127,0
1,71,127,0
1,69,127,0
1,67,127,0
1,67,127,192
1,69,127,0
1,71,127,0
1,71,127,0
1,71,127,0
1,72,127,0
1,67,127,0
1,69,127,0
1,67,127,384
1,65,127,0
1,64,127,0
1,65,127,0
1,64,127,0
1,62,127,0
1,62,127,0
1,60,127,0
1,64,127,192
1,62,127,0
1,60,127,0
1,64,127,0
1,62,127,0
1,60,127,0
1,60,127,0
1,55,127,768
1,55,127,0
1,55,127,0
1,55,127,0
1,55,127,0
1,62,127,0
1,64,127,0
1,60,127,192
1,60,127,0
1,60,127,0
1,60,127,0
1,62,127,0
1,64,127,0
1,67,127,0
1,59,127,192
1,60,127,0
1,60,127,0
1,60,127,0
1,57,127,0
1,55,127,0
1,64,127,576
1,64,127,0
1,60,127,0
1,55,127,0
1,55,127,0
1,55,127,0
1,55,127,0
1,55,127,0
1,64,127,0
1,62,127,0
1,64,127,0
1,62,127,0
1,60,127,0
1,60,127,0
1,60,127,0
1,60,127,0
1,62,127,0
1,64,127,0
1,67,127,0
1,69,127,0
1,59,127,192
1,60,127,0
1,60,127,0
1,60,127,0
1,57,127,0
1,55,127,0
1,64,127,1344
1,62,127,0
1,60,127,0
1,60,127,0
1,64,127,0
1,60,127,0
1,60,127,0
1,60,127,0
1,60,127,0
1,62,127,0
1,64,127,0
1,64,127,0
1,65,127,0
1,64,127,0
1,64,127,576
1,67,127,0
1,69,127,0
1,67,127,0
1,67,127,0
1,64,127,0
1,64,127,0
1,62,127,0
1,60,127,0
1,60,127,0
1,60,127,576
1,62,127,0
1,60,127,0
1,72,127,384
1,71,127,0
1,69,127,0
1,71,127,0
1,69,127,0
1,71,127,0
1,67,127,384
1,69,127,0
1,71,127,0
1,71,127,0
1,72,127,0
1,67,127,0
1,69,127,0
1,67,127,192
1,65,127,0
1,64,127,0
1,65,127,0
1,64,127,0
1,62,127,0
1,62,127,0
1,62,127,0
1,60,127,0
1,72,127,384
1,74,127,0
1,69,127,0
1,71,127,0
1,71,127,0
1,69,127,0
1,67,127,0
1,67,127,192
1,69,127,0
1,71,127,0
1,71,127,0
1,71,127,0
1,72,127,0
1,67,127,0
1,69,127,0
1,67,127,384
1,65,127,0
1,64,127,0
1,65,127,0
1,64,127,0
1,71,127,0
1,72,127,0
1,72,127,0
1,72,127,0
1,72,127,0
1,72,127,192
1,72,127,0
1,71,127,0
1,72,127,0
1,72,127,0
1,72,127,576
1,71,127,0
1,69,127,0
1,71,127,0
1,69,127,0
1,71,127,0
1,67,127,384
1,69,127,0
1,71,127,0
1,71,127,0
1,72,127,0
1,67,127,0
1,69,127,0
1,67,127,192
1,65,127,0
1,64,127,0
1,65,127,0
1,64,127,0
1,62,127,0
1,62,127,0
1,62,127,0
1,60,127,0
1,72,127,384
1,74,127,0
1,69,127,0
1,71,127,0
1,71,127,0
1,69,127,0
1,67,127,0
1,67,127,192
1,69,127,0
1,71,127,0
1,71,127,0
1,71,127,0
1,72,127,0
1,67,127,0
1,69,127,0
1,67,127,384
1,65,127,0
1,64,127,0
1,65,127,0
1,64,127,0
1,71,127,0
1,71,127,0
1,69,127,0
1,72,127,192
1,71,127,0
1,69,127,0
1,71,127,0
1,69,127,0
1,71,127,0
1,67,127,384
1,69,127,0
1,71,127,0
1,71,127,0
1,72,127,0
1,67,127,0
1,69,127,0
1,67,127,192
1,65,127,0
1,64,127,0
1,65,127,0
1,64,127,0
1,62,127,0
1,62,127,0
1,62,127,0
1,60,127,0
1,72,127,384
1,74,127,0
1,69,127,0
1,71,127,0
1,71,127,0
1,69,127,0
1,67,127,0
1,67,127,192
1,69,127,0
1,71,127,0
1,71,127,0
1,71,127,0
1,72,127,0
1,67,127,0
1,69,127,0
1,67,127,384
1,65,127,0
1,64,127,0
1,65,127,0
1,64,127,0
1,71,127,0
1,71,127,0
1,69,127,0
2,48,95,0
2,48,107,60
2,48,87,12
2,48,100,63
2,48,107,63
2,48,102,24
2,55,98,72
2,55,105,60
2,55,98,16
2,55,105,58
2,55,100,58
2,55,107,58
2,50,98,96
2,45,98,48
2,45,105,61
2,40,85,192
2,45,102,88
2,45,100,61
2,45,102,0
2,52,91,58
2,52,93,61
2,47,82,0
2,55,113,36
2,57,91,18
2,58,105,21
2,59,105,0
2,53,100,44
2,53,105,58
2,48,87,192
2,53,98,92
2,53,100,63
2,48,89,192
2,53,102,0
2,53,85,47
2,53,105,32
2,53,87,36
2,53,89,31
2,53,100,36
2,53,87,31
2,48,98,50
2,48,98,53
2,36,64,192
2,48,85,0
2,48,105,53
2,36,76,0
2,43,93,0
2,55,87,0
2,55,105,44
2,55,82,55
2,47,95,26
2,48,89,4
2,50,85,5
2,55,107,2
2,45,89,42
2,45,102,55
2,40,93,192
2,45,87,87
2,45,102,60
2,40,95,192
2,52,102,28
2,52,102,60
2,47,80,192
2,52,105,92
2,52,91,8
2,52,85,61
2,52,105,72
2,53,100,44
2,53,95,61
2,48,82,192
2,53,91,2
2,53,102,66
2,48,89,192
2,53,93,80
2,53,100,74
2,53,102,26
2,48,82,192
2,53,100,90
2,53,100,32
2,48,89,53
2,48,102,55
2,43,93,192
2,48,87,87
2,48,102,60
2,43,95,192
2,50,87,28
2,50,105,44
2,50,82,55
2,42,95,26
2,43,89,4
2,45,85,5
2,50,107,2
2,53,98,42
2,53,98,53
2,41,64,192
2,53,85,0
2,53,105,53
2,41,76,0
2,48,93,0
2,48,91,0
2,48,93,61
2,43,82,0
2,52,113,36
2,53,91,18
2,54,105,21
2,55,105,0
2,48,95,44
2,48,107,60
2,48,87,12
2,48,100,63
2,48,107,63
2,48,102,24
2,50,98,72
2,50,105,60
2,50,98,16
2,50,105,58
2,50,100,58
2,50,107,58
2,45,98,96
2,53,89,48
2,53,102,55
2,48,93,192
2,53,87,87
2,53,102,60
2,48,95,192
2,48,105,28
2,48,102,56
2,48,102,8
2,55,98,69
2,55,95,61
2,55,98,64
2,50,72,96
2,45,98,44
2,45,105,61
2,40,85,192
2,45,102,88
2,45,100,61
2,45,102,0
2,45,102,58
2,50,102,13
2,50,100,13
2,50,102,5
2,50,87,60
2,50,107,68
2,55,89,64
2,55,102,55
2,50,93,192
2,55,87,87
2,55,102,60
2,50,95,192
2,52,105,28
2,52,102,56
2,52,102,8
2,48,98,69
2,48,95,61
2,48,98,64
2,43,72,96
2,53,95,44
2,53,107,60
2,53,87,12
2,53,100,63
2,53,107,63
2,53,102,24
2,52,102,72
2,52,102,60
2,47,80,192
2,52,105,92
2,52,91,8
2,52,85,61
2,52,105,72
2,45,100,44
2,45,95,61
2,40,82,192
2,45,91,2
2,45,102,66
2,40,89,192
2,45,93,80
2,45,100,74
2,45,102,26
2,40,82,192
2,45,100,90
2,45,100,32
2,45,105,53
2,45,102,56
2,45,102,8
2,50,105,69
2,50,102,56
2,57,102,8
2,55,91,69
2,55,93,61
2,50,82,0
2,59,113,36
2,60,91,18
2,61,105,21
2,62,105,0
2,48,95,44
2,48,107,60
2,48,87,12
2,48,100,63
2,48,107,63
2,48,102,24
2,53,87,72
2,53,105,44
2,53,82,55
2,45,95,26
2,46,89,4
2,48,85,5
2,53,107,2
2,52,98,42
2,52,105,61
2,47,85,192
2,52,102,88
2,52,100,61
2,52,102,0
2,45,98,58
2,45,105,60
2,45,98,16
2,45,105,58
2,45,100,58
2,45,107,58
2,40,98,96
2,53,98,48
2,53,98,53
2,41,64,192
2,53,85,0
2,53,105,53
2,41,76,0
2,48,93,0
2,48,91,0
2,48,93,61
2,43,82,0
2,52,113,36
2,53,91,18
2,54,105,21
2,55,105,0
2,48,95,44
2,48,107,60
2,48,87,12
2,48,100,63
2,48,107,63
2,48,102,24
2,55,87,72
2,55,105,44
2,55,82,55
2,47,95,26
2,48,89,4
2,50,85,5
2,55,107,2
2,45,89,42
2,45,102,55
2,40,93,192
2,45,87,87
2,45,102,60
2,40,95,192
2,52,87,28
2,52,105,44
2,52,82,55
2,43,95,26
2,45,89,4
2,47,85,5
2,52,107,2
2,53,82,42
2,53,102,48
2,48,85,192
2,53,102,0
2,53,100,64
2,48,80,192
2,53,93,85
2,53,102,68
2,53,95,34
2,45,100,12
2,46,60,5
2,45,80,0
2,47,102,47
2,48,80,0
2,48,89,18
2,48,102,55
2,43,93,192
2,48,87,87
2,48,102,60
2,43,95,192
2,55,87,28
2,55,105,44
2,55,82,55
2,47,95,26
2,48,89,4
2,50,85,5
2,55,107,2
2,45,95,42
2,45,107,60
2,45,87,12
2,45,100,63
2,45,107,63
2,45,102,24
2,52,87,72
2,52,105,44
2,52,82,55
2,43,95,26
2,45,89,4
2,47,85,5
2,52,107,2
2,53,100,42
2,53,102,55
2,48,82,192
2,53,87,90
2,41,78,23
2,53,98,37
2,48,82,183
2,53,87,16
2,53,105,61
2,48,93,192
2,53,95,4
2,53,85,60
2,53,100,61
2,53,105,4
2,48,98,76
2,48,98,53
2,36,64,192
2,48,85,0
2,48,105,53
2,36,76,0
2,43,93,0
2,50,98,0
2,50,105,60
2,50,98,16
2,50,105,58
2,50,100,58
2,50,107,58
2,45,98,96
2,53,98,48
2,53,105,61
2,48,85,192
2,53,102,88
2,53,100,61
2,53,102,0
2,48,102,58
2,48,102,60
2,43,80,192
2,48,105,92
2,50,91,8
2,48,85,61
2,48,105,72
2,48,95,44
2,48,107,60
2,48,87,12
2,48,100,63
2,48,107,63
2,48,102,24
2,50,87,72
2,50,105,44
2,50,82,55
2,42,95,26
2,43,89,4
2,45,85,5
2,50,107,2
2,53,98,42
2,53,105,61
2,48,85,192
2,53,102,88
2,53,100,61
2,53,102,0
2,48,98,58
2,48,105,52
2,53,70,8
2,48,89,26
2,55,100,31
2,50,102,5
2,46,87,60
2,55,107,68
2,45,98,64
2,45,98,53
2,33,64,192
2,45,85,0
2,45,105,53
2,33,76,0
2,40,93,0
2,45,98,0
2,45,105,52
2,45,70,8
2,45,89,26
2,50,98,31
2,50,95,61
2,50,98,64
2,45,72,96
2,55,95,44
2,55,107,60
2,55,87,12
2,55,100,63
2,55,107,63
2,55,102,24
2,52,98,72
2,52,105,52
2,52,70,8
2,52,89,26
2,48,100,31
2,50,102,5
2,52,87,60
2,48,107,68
2,53,95,64
2,53,107,60
2,53,87,12
2,53,100,63
2,53,107,63
2,53,102,24
2,52,87,72
2,52,105,44
2,52,82,55
2,43,95,26
2,45,89,4
2,47,85,5
2,52,107,2
2,45,93,42
2,45,98,32
2,40,80,192
2,45,102,90
2,45,102,63
2,40,89,192
2,45,100,90
2,45,89,58
2,40,87,0
2,48,87,0
2,50,89,0
2,51,98,93
2,52,107,4
2,45,100,21
2,45,105,63
2,33,87,240
2,50,98,26
2,50,105,52
2,50,70,8
2,50,89,26
2,55,91,31
2,55,93,61
2,50,82,0
2,59,113,36
2,60,91,18
2,61,105,21
2,62,105,0
2,48,95,44
2,48,107,60
2,48,87,12
2,48,100,63
2,48,107,63
2,48,102,24
2,53,87,72
2,53,105,44
2,53,82,55
2,45,95,26
2,46,89,4
2,48,85,5
2,53,107,2
2,52,98,42
2,52,105,61
2,47,85,192
2,52,102,88
2,52,100,61
2,52,102,0
2,45,102,58
2,45,102,60
2,40,80,192
2,45,105,92
2,52,91,8
2,45,85,61
2,45,105,72
2,53,105,44
2,53,105,61
2,48,100,4
2,55,105,66
2,55,105,61
2,50,100,4
2,45,87,66
2,45,102,60
2,45,102,0
2,50,98,66
2,50,95,61
2,50,98,64
2,45,72,96
2,45,98,44
2,45,98,53
2,33,64,192
2,45,85,0
2,45,105,53
2,33,76,0
2,40,93,0
2,45,105,0
2,45,105,61
2,52,100,4
2,50,100,66
2,50,102,5
2,50,87,60
2,50,107,68
2,55,89,64
2,55,102,55
2,50,93,192
2,55,87,87
2,55,102,60
2,50,95,192
2,52,105,28
2,52,105,61
2,47,100,4
2,48,100,66
2,48,102,5
2,48,87,60
2,48,107,68
2,53,98,64
2,53,98,53
2,41,64,192
2,53,85,0
2,53,105,53
2,41,76,0
2,48,93,0
2,52,87,0
2,52,105,44
2,52,82,55
2,43,95,26
2,45,89,4
2,47,85,5
2,52,107,2
2,45,100,42
2,45,102,55
2,40,82,192
2,45,87,90
2,33,78,23
2,45,98,37
2,40,82,183
2,45,87,16
2,45,105,61
2,40,93,192
2,45,95,4
2,45,85,60
2,45,100,61
2,45,105,4
2,45,105,76
2,45,105,61
2,52,100,4
2,50,105,66
2,50,105,61
2,57,100,4
2,55,87,66
2,55,105,44
2,55,82,55
2,47,95,26
2,48,89,4
2,50,85,5
2,55,107,2
2,48,98,42
2,48,98,53
2,36,64,192
2,48,85,0
2,48,105,53
2,36,76,0
2,43,93,0
2,53,102,0
2,53,102,60
2,48,80,192
2,53,105,92
2,53,91,8
2,53,85,61
2,53,105,72
2,52,98,44
2,52,105,61
2,47,85,192
2,52,102,88
2,52,100,61
2,50,102,0
2,45,91,58
2,45,93,61
2,40,82,0
2,48,113,36
2,50,91,18
2,51,105,21
2,52,105,0
2,45,98,44
2,45,98,53
2,33,64,192
2,45,85,0
2,45,105,53
2,33,76,0
2,40,93,0
2,45,105,0
2,45,102,56
2,45,102,8
2,50,100,69
2,54,102,5
2,50,87,60
2,50,107,68
2,55,89,64
2,55,102,55
2,50,93,192
2,55,87,87
2,55,102,60
2,50,95,192
2,52,105,28
2,52,102,56
2,52,102,8
2,48,98,69
2,48,95,61
2,48,98,64
2,43,72,96
2,53,95,44
2,53,107,60
2,53,87,12
2,53,100,63
2,53,107,63
2,53,102,24
2,52,102,72
2,52,102,60
2,47,80,192
2,52,105,92
2,52,91,8
2,52,85,61
2,52,105,72
2,45,100,44
2,45,102,55
2,40,82,192
2,45,87,90
2,33,78,23
2,45,98,37
2,40,82,183
2,45,87,16
2,45,105,61
2,40,93,192
2,45,95,4
2,45,85,60
2,45,100,61
2,40,105,4
2,45,105,76
2,45,102,56
2,48,102,8
2,50,100,69
2,50,105,63
2,38,87,240
2,55,98,26
2,55,105,60
2,55,98,16
2,55,105,58
2,55,100,58
2,55,107,58
2,50,98,96
2,48,95,48
2,48,107,60
2,48,87,12
2,48,100,63
2,48,107,63
2,48,102,24
2,53,87,72
2,53,105,44
2,53,82,55
2,45,95,26
2,46,89,4
2,48,85,5
2,53,107,2
2,52,98,42
2,52,98,53
2,40,64,192
2,52,85,0
2,52,105,53
2,40,76,0
2,47,93,0
2,45,87,0
2,45,105,44
