track,note,velocity,time
1,36,120,2664
1,33,120,16
1,31,120,24
1,31,120,104
1,31,120,216
1,33,120,24
1,31,120,16
1,33,120,16
1,36,120,24
1,33,120,28
1,31,120,8
1,31,120,92
1,31,120,216
1,33,120,20
1,31,120,16
1,33,120,12
1,38,120,28
1,36,120,36
1,38,120,24
1,26,120,72
1,26,120,60
1,26,120,80
1,31,120,28
1,33,120,16
1,31,120,16
1,38,120,28
1,36,120,28
1,38,120,12
1,26,120,44
1,26,120,88
1,26,120,60
1,33,120,20
1,36,120,12
1,33,120,24
1,36,120,28
1,33,120,12
1,31,120,16
1,31,120,100
1,31,120,216
1,33,120,16
1,31,120,20
1,33,120,12
1,36,120,28
1,33,120,32
1,31,120,8
1,31,120,92
1,31,120,220
1,33,120,20
1,31,120,20
1,33,120,20
1,38,120,28
1,36,120,40
1,38,120,16
1,26,120,72
1,26,120,60
1,26,120,80
1,31,120,20
1,33,120,20
1,31,120,20
1,38,120,20
1,36,120,28
1,38,120,4
1,26,120,36
1,26,120,88
1,26,120,60
1,33,120,20
1,36,120,16
1,33,120,12
1,36,120,28
1,33,120,20
1,31,120,20
1,31,120,100
1,31,120,220
1,33,120,20
1,31,120,12
1,33,120,12
1,36,120,28
1,33,120,36
1,31,120,8
1,31,120,92
1,31,120,216
1,33,120,16
1,31,120,16
1,33,120,20
1,38,120,24
1,36,120,40
1,38,120,20
1,26,120,72
1,26,120,60
1,26,120,80
1,31,120,24
1,33,120,20
1,31,120,16
1,38,120,24
1,36,120,32
1,38,120,8
1,26,120,40
1,26,120,88
1,26,120,64
1,33,120,20
1,36,120,16
1,33,120,24
1,36,120,28
1,33,120,16
1,31,120,16
1,31,120,100
1,31,120,220
1,33,120,20
1,31,120,24
1,33,120,20
1,36,120,24
1,33,120,36
1,31,120,8
1,31,120,92
1,31,120,224
1,33,120,24
1,31,120,20
1,33,120,12
1,38,120,24
1,36,120,44
1,38,120,20
1,26,120,68
1,26,120,60
1,26,120,84
1,31,120,20
1,33,120,16
1,31,120,16
1,38,120,24
1,36,120,36
1,38,120,12
1,26,120,36
1,26,120,88
1,26,120,64
1,33,120,24
1,36,120,20
1,33,120,20
1,38,120,28
1,36,120,8
1,38,120,32
1,33,120,464
1,36,120,44
1,33,120,12
1,36,120,16
1,38,120,20
1,36,120,4
1,38,120,20
1,26,120,444
1,26,120,80
1,31,120,16
1,33,120,20
1,34,120,28
1,33,120,16
1,34,120,132
1,26,120,592
1,31,120,4
1,29,120,128
1,34,120,20
1,26,120,24
1,29,120,24
1,36,104,612
1,33,120,64
1,36,120,68
1,38,120,68
1,36,120,4
1,38,120,24
1,33,120,460
1,36,120,36
1,33,120,20
1,36,120,20
1,38,120,24
1,36,120,4
1,38,120,20
1,26,120,448
1,26,120,80
1,31,120,20
1,33,120,20
1,36,120,24
1,36,120,128
1,34,120,148
1,34,120,124
1,33,120,160
1,26,120,20
1,33,120,44
1,33,120,76
1,31,120,64
1,31,120,120
1,33,120,124
1,33,120,88
1,29,120,32
1,29,120,76
1,29,120,68
1,36,120,16
1,31,120,20
1,28,120,24
1,28,120,100
1,29,120,108
1,29,120,44
1,28,120,32
1,29,120,12
1,31,120,16
1,36,120,32
1,36,120,100
1,31,120,48
1,31,120,64
1,31,120,80
1,36,120,24
1,31,120,16
1,33,120,40
1,33,120,112
1,29,120,380
1,29,120,76
1,29,120,80
1,33,120,32
1,31,120,28
1,36,120,16
1,36,120,88
1,29,120,32
1,29,120,76
1,29,120,68
1,36,120,20
1,31,120,16
1,28,120,20
1,28,120,100
1,29,120,104
1,29,120,44
1,28,120,32
1,29,120,16
1,31,120,20
1,29,120,28
1,29,120,108
1,29,120,44
1,28,120,20
1,28,120,52
1,29,120,76
1,29,120,120
1,28,120,24
1,29,120,20
1,31,120,24
1,31,120,88
1,33,120,8
1,31,120,16
1,33,120,28
1,33,120,56
1,28,120,136
1,29,120,104
1,28,120,116
1,28,120,32
1,29,120,20
1,28,120,12
1,33,120,20
1,33,120,24
1,33,120,56
1,36,120,20
1,29,120,116
1,29,120,124
1,29,120,36
1,33,120,24
1,36,120,16
1,33,120,16
1,33,120,20
1,33,120,60
1,28,120,128
1,29,120,100
1,29,120,120
1,29,120,32
1,31,120,20
1,33,120,16
1,35,120,16
1,33,120,16
1,33,120,56
1,31,120,20
1,33,120,112
1,31,120,124
1,28,120,40
1,31,120,28
1,33,120,16
1,31,120,16
1,36,120,32
1,33,120,16
1,31,120,20
1,31,120,96
1,31,120,220
1,33,120,16
1,31,120,20
1,33,120,16
1,36,120,24
1,33,120,36
1,31,120,8
1,31,120,92
1,31,120,224
1,33,120,24
1,31,120,16
1,33,120,16
1,38,120,32
1,36,120,48
1,38,120,16
1,26,120,72
1,26,120,56
1,26,120,80
1,31,120,24
1,33,120,12
1,31,120,20
1,38,120,28
1,36,120,36
1,38,120,4
1,26,120,44
1,26,120,88
1,26,120,64
1,33,120,24
1,36,120,12
1,33,120,24
1,36,120,32
1,33,120,16
1,31,120,12
1,31,120,104
1,31,120,220
1,33,120,20
1,31,120,24
1,33,120,20
1,36,120,28
1,33,120,32
1,31,120,12
1,31,120,96
1,31,120,224
1,33,120,12
1,31,120,16
1,33,120,16
1,38,120,32
1,36,120,40
1,38,120,24
1,26,120,68
1,26,120,56
1,26,120,80
1,31,120,20
1,33,120,20
1,31,120,16
1,38,120,24
1,36,120,36
1,38,120,8
1,26,120,40
1,26,120,88
1,26,120,60
1,33,120,16
1,36,120,16
1,33,120,12
1,38,120,36
1,36,120,12
1,38,120,24
1,33,120,468
1,36,120,44
1,33,120,12
1,36,120,20
1,38,120,24
1,36,120,8
1,38,120,20
1,26,120,448
1,26,120,80
1,31,120,16
1,33,120,16
1,34,120,32
1,33,120,20
1,34,120,128
1,26,120,592
1,31,120,8
1,29,120,124
1,34,120,16
1,26,120,32
1,29,120,24
1,36,104,612
1,33,120,64
1,36,120,68
1,38,120,68
1,36,120,8
1,38,120,28
1,33,120,468
1,36,120,40
1,33,120,20
1,36,120,20
1,38,120,24
1,36,120,12
1,38,120,20
1,26,120,448
1,26,120,76
1,31,120,16
1,33,120,16
1,36,120,36
1,36,120,124
1,34,120,152
1,34,120,124
1,33,120,172
1,26,120,28
1,33,120,44
1,33,120,72
1,31,120,64
1,31,120,120
1,33,120,128
1,33,120,92
1,29,120,36
1,29,120,76
1,29,120,68
1,36,120,12
1,31,120,20
1,28,120,36
1,28,120,104
1,29,120,104
1,29,120,44
1,28,120,24
1,29,120,16
1,31,120,20
1,36,120,36
1,36,120,100
1,31,120,48
1,31,120,64
1,31,120,76
1,36,120,24
1,31,120,20
1,33,120,40
1,33,120,116
1,29,120,384
1,29,120,88
1,29,120,76
1,33,120,32
1,31,120,28
1,36,120,32
1,36,120,88
1,29,120,40
1,29,120,76
1,29,120,64
1,36,120,16
1,31,120,20
1,28,120,32
1,28,120,104
1,29,120,108
1,29,120,48
1,28,120,28
1,29,120,20
1,31,120,20
1,29,120,32
1,29,120,112
1,29,120,40
1,28,120,32
1,28,120,60
1,29,120,80
1,29,120,120
1,28,120,24
1,29,120,16
1,31,120,32
1,31,120,84
1,33,120,20
1,31,120,20
1,33,120,36
1,33,120,92
1,29,120,32
1,29,120,80
1,29,120,68
1,36,120,16
1,31,120,24
1,28,120,28
1,28,120,100
1,29,120,104
1,29,120,48
1,28,120,28
1,29,120,20
1,31,120,16
1,36,120,32
1,36,120,104
1,31,120,44
1,31,120,68
1,31,120,76
1,36,120,20
1,31,120,16
1,33,120,44
1,33,120,108
1,29,120,388
1,29,120,88
1,29,120,76
1,33,120,28
1,31,120,24
1,36,120,28
1,36,120,88
1,31,120,32
1,31,120,80
1,31,120,68
1,36,120,16
1,31,120,16
1,28,120,36
1,28,120,104
1,29,120,104
1,29,120,44
1,28,120,32
1,29,120,20
1,31,120,20
1,29,120,36
1,29,120,112
1,29,120,40
1,28,120,28
1,28,120,56
1,29,120,80
1,29,120,116
1,28,120,28
1,29,120,20
1,31,120,28
1,31,120,84
1,33,120,20
1,31,120,20
1,31,120,24
1,31,120,112
1,31,120,156
1,26,120,44
1,31,120,20
1,31,120,132
1,26,120,28
1,26,120,136
1,26,120,128
1,26,120,120
1,38,120,4
1,33,120,16
1,31,120,20
1,31,120,116
1,31,120,108
1,31,120,88
1,36,120,16
1,33,120,16
1,24,120,24
1,24,120,144
1,24,120,116
1,24,120,124
1,24,120,128
1,26,120,28
1,26,120,64
1,26,120,172
1,26,120,112
1,24,120,36
1,26,120,12
1,33,120,20
1,34,120,32
1,34,120,56
1,29,120,164
1,34,120,140
1,34,120,28
1,34,120,0
1,29,120,12
1,26,120,36
1,26,120,80
1,38,120,216
1,26,120,100
1,38,120,24
1,34,120,20
1,36,120,24
1,34,120,32
1,34,120,72
1,34,120,144
1,34,120,108
1,33,120,16
1,29,120,20
1,38,120,20
1,36,120,20
1,36,120,120
1,36,120,76
1,24,120,16
1,36,120,12
1,34,120,32
1,34,120,80
1,34,120,120
1,33,120,16
1,34,120,16
1,33,120,28
1,33,120,116
1,33,120,84
1,28,120,16
1,33,120,20
1,31,120,132
1,31,120,100
1,31,120,176
1,31,120,84
1,28,120,24
1,29,120,12
1,31,120,16
1,33,120,36
1,33,120,92
1,29,120,32
1,29,120,80
1,29,120,68
1,36,120,8
1,31,120,20
1,28,120,32
1,28,120,100
1,29,120,104
1,29,120,44
1,28,120,28
1,29,120,20
1,31,120,16
1,36,120,20
1,36,120,96
1,31,120,48
1,31,120,64
1,31,120,76
1,36,120,24
1,31,120,16
1,33,120,44
1,33,120,116
1,29,120,388
1,29,120,88
1,29,120,76
1,33,120,32
1,31,120,28
1,36,120,32
1,36,120,92
1,29,120,32
1,29,120,80
1,29,120,68
1,36,120,20
1,31,120,16
1,28,120,28
1,28,120,104
1,29,120,104
1,29,120,48
1,28,120,28
1,29,120,20
1,31,120,12
1,29,120,32
1,29,120,108
1,29,120,44
1,28,120,32
1,28,120,60
1,29,120,76
1,29,120,116
1,28,120,28
1,29,120,20
1,31,120,28
1,31,120,88
1,33,120,24
1,31,120,20
1,33,120,36
1,33,120,88
1,29,120,36
1,29,120,72
1,29,120,68
1,36,120,16
1,31,120,24
1,28,120,36
1,28,120,100
1,29,120,100
1,29,120,44
1,28,120,32
1,29,120,20
1,31,120,24
1,36,120,36
1,36,120,96
1,31,120,44
1,31,120,68
1,31,120,80
1,36,120,24
1,31,120,20
1,33,120,44
1,33,120,112
1,29,120,388
1,29,120,84
1,29,120,76
1,33,120,32
1,31,120,28
1,36,120,32
1,36,120,92
1,29,120,36
1,29,120,80
1,29,120,68
1,36,120,16
1,31,120,20
1,28,120,32
1,28,120,100
1,29,120,104
1,29,120,48
1,28,120,28
1,29,120,24
1,31,120,20
1,29,120,40
1,29,120,108
1,29,120,44
1,28,120,32
1,28,120,56
1,29,120,84
1,29,120,120
1,28,120,28
1,29,120,16
1,31,120,32
1,31,120,84
1,33,120,20
1,31,120,20
1,33,120,28
1,33,120,88
1,29,120,36
1,29,120,76
1,29,120,68
1,36,120,20
1,31,120,20
1,28,120,28
1,28,120,100
1,29,120,108
1,29,120,48
1,28,120,32
1,29,120,24
1,31,120,24
1,36,120,28
1,36,120,100
1,31,120,48
1,31,120,68
1,31,120,80
1,36,120,24
1,31,120,20
1,33,120,36
1,33,120,116
1,29,120,384
1,29,120,84
1,29,120,76
1,33,120,32
1,31,120,32
1,36,120,28
1,36,120,92
1,29,120,36
1,29,120,80
1,29,120,68
1,36,120,20
1,31,120,16
1,28,120,36
1,28,120,100
1,29,120,104
1,29,120,52
1,28,120,28
1,29,120,24
1,31,120,16
1,29,120,40
1,29,120,108
1,29,120,44
1,28,120,32
1,28,120,56
1,29,120,80
1,29,120,120
1,28,120,24
1,29,120,20
1,31,120,32
1,31,120,80
1,33,120,16
1,31,120,20
1,33,120,36
1,33,120,88
1,29,120,32
1,29,120,76
1,29,120,68
1,36,120,16
1,31,120,24
1,28,120,36
1,28,120,104
1,29,120,104
1,29,120,48
1,28,120,28
1,29,120,20
1,31,120,24
1,36,120,36
1,36,120,96
1,31,120,48
1,31,120,68
1,31,120,80
1,36,120,24
1,31,120,12
1,33,120,44
1,33,120,116
1,29,120,384
1,29,120,84
1,29,120,80
1,33,120,28
1,31,120,32
1,36,120,24
1,36,120,88
1,29,120,36
1,29,120,80
1,29,120,64
1,36,120,16
1,31,120,16
1,28,120,28
1,28,120,104
1,29,120,112
1,29,120,52
1,28,120,28
1,29,120,24
1,31,120,12
1,29,120,40
1,29,120,112
1,29,120,40
1,28,120,28
1,28,120,60
1,29,120,80
1,29,120,120
1,28,120,24
1,29,120,20
1,31,120,28
1,31,120,88
1,33,120,24
1,31,120,16
1,33,120,28
1,33,120,60
1,31,120,128
1,33,120,100
1,31,120,124
1,28,120,32
1,33,120,16
1,28,120,20
1,31,120,16
1,33,120,16
1,33,120,52
1,31,120,16
1,33,120,108
1,31,120,128
1,28,120,32
1,31,120,24
1,33,120,12
1,31,120,20
1,24,120,32
2,48,74,2632
2,48,75,240
2,43,37,80
2,48,69,64
2,43,38,316
2,48,75,68
2,48,73,196
2,43,50,88
2,48,73,44
2,43,48,296
2,50,77,56
2,50,71,196
2,45,51,36
2,50,67,60
2,45,68,472
2,45,65,172
2,48,71,148
2,50,77,124
2,52,53,60
2,48,64,60
2,48,70,196
2,43,46,76
2,48,72,60
2,43,53,328
2,48,75,64
2,48,75,188
2,43,43,84
2,48,78,68
2,43,54,304
2,50,75,72
2,50,80,176
2,45,51,44
2,50,81,80
2,45,69,428
2,45,66,148
2,48,70,136
2,50,72,136
2,52,49,132
2,48,74,56
2,48,74,176
2,43,42,104
2,48,72,76
2,43,49,320
2,48,73,76
2,48,73,156
2,43,37,88
2,48,76,76
2,43,50,324
2,50,76,68
2,50,80,148
2,45,60,72
2,50,76,72
2,45,70,408
2,45,65,164
2,48,72,100
2,50,79,124
2,52,41,68
2,48,64,52
2,48,70,176
2,43,44,68
2,48,72,48
2,43,37,352
2,48,75,80
2,48,76,164
2,43,37,88
2,48,69,68
2,43,52,328
2,50,68,64
2,50,76,164
2,45,46,76
2,50,75,64
2,45,68,436
2,45,66,164
2,48,71,128
2,50,77,148
2,52,51,124
2,50,74,52
2,50,77,180
2,45,58,88
2,50,75,60
2,50,80,208
2,45,54,112
2,50,76,68
2,50,78,228
2,45,53,112
2,50,76,68
2,50,78,208
2,45,47,104
2,46,75,36
2,46,73,184
2,46,67,140
2,46,78,80
2,46,74,124
2,46,59,144
2,46,77,92
2,46,72,148
2,46,52,168
2,46,74,96
2,46,71,144
2,46,61,172
2,50,72,84
2,50,81,224
2,45,51,92
2,50,76,72
2,50,81,212
2,45,53,108
2,50,80,84
2,50,83,128
2,45,70,104
2,50,77,120
2,50,81,188
2,45,53,76
2,48,80,88
2,48,81,120
2,48,79,124
2,46,75,124
2,46,77,156
2,46,71,140
2,45,72,80
2,45,73,112
2,45,66,108
2,43,70,100
2,45,50,56
2,48,76,56
2,50,66,80
2,45,77,68
2,45,71,272
2,40,76,56
2,41,69,52
2,41,78,140
2,36,64,56
2,40,82,60
2,40,81,204
2,36,67,92
2,41,74,60
2,41,78,192
2,36,64,64
2,36,79,64
2,36,78,188
2,36,77,140
2,43,68,60
2,43,70,156
2,43,67,124
2,45,71,40
2,45,73,152
2,45,71,140
2,41,80,32
2,41,78,208
2,41,65,136
2,36,65,64
2,36,76,164
2,38,71,88
2,41,77,64
2,41,80,176
2,36,66,84
2,40,78,76
2,40,76,172
2,36,65,88
2,41,74,72
2,41,75,180
2,36,67,80
2,41,71,64
2,41,80,200
2,40,78,184
2,40,80,196
2,41,79,168
2,41,78,192
2,43,66,200
2,43,71,160
2,43,56,120
2,45,72,64
2,40,74,68
2,41,77,104
2,41,81,132
2,40,84,156
2,45,58,88
2,45,73,60
2,36,73,124
2,41,76,188
2,41,78,176
2,45,74,164
2,40,79,84
2,41,76,96
