track,note,velocity,time
1,38,90,2304
1,38,94,62
1,36,84,10
1,35,94,0
1,35,90,58
1,36,84,56
1,36,84,0
1,35,84,0
1,33,90,0
1,33,94,62
1,40,84,10
1,34,90,0
1,34,94,62
1,34,84,10
1,33,84,0
1,43,94,0
1,43,90,58
1,43,94,56
1,43,90,58
1,38,94,56
1,38,90,58
1,35,94,56
1,35,90,58
1,36,84,56
1,36,84,0
1,40,84,0
1,41,87,0
1,41,97,138
1,34,94,4
1,34,90,58
1,44,94,56
1,44,90,58
1,33,90,56
1,33,94,62
1,35,84,10
1,37,94,0
1,37,90,58
1,38,87,56
1,38,97,138
1,35,94,4
1,35,90,58
1,36,84,56
1,40,90,0
1,40,94,62
1,41,94,10
1,41,90,58
1,34,84,56
1,34,84,0
1,33,84,0
1,43,90,0
1,43,94,62
1,43,90,10
1,43,94,62
1,36,97,10
1,36,90,68
1,36,87,100
1,38,87,32
1,38,97,138
1,43,90,4
1,43,94,62
1,35,84,10
1,36,87,0
1,36,97,138
1,41,94,4
1,41,90,58
1,34,87,56
1,34,97,138
1,40,87,4
1,40,97,138
1,33,84,4
1,35,84,0
1,37,87,0
1,37,97,138
1,38,87,4
1,38,97,138
1,43,90,4
1,43,94,62
1,35,90,10
1,35,94,62
1,36,90,10
1,36,94,62
1,36,84,10
1,41,97,0
1,48,63,960
1,53,97,186
1,48,68,190
1,34,87,32
1,34,97,138
1,43,87,4
1,43,97,138
1,36,90,4
1,36,94,62
1,36,90,10
1,36,94,62
1,36,94,10
1,36,90,58
1,38,87,56
1,38,97,138
1,35,87,4
1,35,97,138
1,36,90,4
1,36,94,62
1,36,84,10
1,40,84,0
1,41,94,0
1,41,90,58
1,34,87,56
1,34,97,138
1,44,94,4
1,44,90,58
1,33,90,56
1,33,94,62
1,35,90,10
1,35,94,62
1,37,97,10
1,40,63,960
1,49,97,186
1,40,68,190
1,38,94,32
1,38,90,58
1,35,94,56
1,35,90,58
1,36,90,56
1,36,94,62
1,40,90,10
1,40,94,62
1,41,97,10
1,48,63,960
1,53,97,186
1,48,68,190
1,34,90,32
1,34,94,62
1,34,84,10
1,33,84,0
1,43,90,0
1,43,94,62
1,43,90,10
1,43,94,62
1,36,90,10
1,36,94,62
1,36,84,10
1,36,97,0
1,43,63,960
1,48,97,186
1,43,68,190
1,34,87,32
1,33,87,0
1,43,87,0
1,41,87,0
1,40,90,0
1,40,90,16
1,38,87,0
1,38,74,30
1,36,87,0
1,35,87,0
1,33,87,0
1,43,87,0
1,41,87,0
1,41,74,30
1,40,87,0
1,40,74,30
1,38,87,0
1,36,87,0
1,35,87,0
1,33,87,0
1,44,94,0
1,44,87,48
1,44,90,40
1,44,71,30
1,33,94,32
1,33,87,48
1,33,90,40
1,33,71,30
1,33,90,32
1,33,84,90
1,33,90,90
1,33,90,64
1,38,94,32
1,38,87,48
1,38,90,40
1,38,71,30
1,43,87,32
1,43,74,30
1,35,87,0
1,35,74,30
1,36,94,0
1,36,87,48
1,36,90,40
1,36,71,30
1,41,87,32
1,41,74,30
1,33,90,0
1,33,90,16
1,34,94,0
1,34,87,48
1,34,90,40
1,34,71,30
1,40,94,32
1,40,87,48
1,40,90,40
1,40,71,30
1,33,87,32
1,33,74,30
1,35,87,0
1,35,74,30
1,37,94,0
1,37,87,48
1,37,90,40
1,37,71,30
1,38,94,32
1,38,87,48
1,38,90,40
1,38,71,30
1,43,90,32
1,43,90,16
1,35,90,0
1,35,90,16
1,36,94,0
1,36,87,48
1,36,90,40
1,36,71,30
1,41,90,32
1,41,90,16
1,33,87,0
1,33,74,30
1,34,94,0
1,34,87,48
1,34,90,40
1,34,71,30
1,43,94,32
1,43,87,48
1,43,90,40
1,43,71,30
1,41,94,32
1,41,87,48
1,41,90,40
1,41,71,30
1,43,94,32
1,43,87,48
1,43,90,40
1,43,71,30
1,38,90,32
1,38,90,16
1,41,90,0
1,41,90,16
1,43,87,0
1,43,74,30
1,35,90,0
1,35,90,16
1,36,87,0
1,36,74,30
1,40,90,0
1,40,90,16
1,41,90,0
1,41,90,16
1,33,90,0
1,33,90,16
1,34,87,0
1,34,74,30
1,38,90,0
1,38,90,16
1,40,90,0
1,40,90,16
1,44,90,0
1,44,90,16
1,33,87,0
1,33,74,30
1,35,87,0
1,35,74,30
1,37,94,0
1,37,87,48
1,37,90,40
1,37,71,30
1,38,90,32
1,38,90,16
1,41,87,0
1,41,87,0
1,43,87,0
1,43,74,30
1,35,87,0
1,35,74,30
1,36,87,0
1,36,74,30
1,40,87,0
1,40,74,30
1,41,90,0
1,41,90,16
1,33,90,0
1,33,90,16
1,34,87,0
1,34,74,30
1,38,87,0
1,38,74,30
1,43,90,0
1,43,90,16
1,35,87,0
1,35,74,30
1,33,94,0
1,33,87,48
1,33,90,40
1,33,71,30
1,33,90,32
1,33,84,90
1,33,90,90
1,33,90,64
1,38,90,32
1,38,90,16
1,41,90,0
1,41,90,16
1,43,87,0
1,43,74,30
1,35,90,0
1,35,90,16
1,36,90,0
1,36,90,16
1,40,87,0
1,40,74,30
1,41,87,0
1,41,74,30
1,33,87,0
1,33,74,30
1,34,90,0
1,34,90,16
1,38,87,0
1,38,74,30
1,40,90,0
1,40,90,16
1,44,90,0
1,44,90,16
1,33,87,0
1,33,74,30
1,35,90,0
1,35,90,16
1,37,94,0
1,37,87,48
1,37,90,40
1,37,71,30
1,38,90,32
1,38,90,16
1,41,87,0
1,41,87,0
1,43,90,0
1,43,90,16
1,35,87,0
1,35,74,30
1,36,90,0
1,36,90,16
1,40,87,0
1,40,74,30
1,41,87,0
1,41,74,30
1,33,87,0
1,33,74,30
1,34,90,0
1,34,90,16
1,38,87,0
1,38,74,30
1,43,87,0
1,43,74,30
1,35,87,0
1,35,74,30
1,36,64,0
1,36,64,126
1,36,64,110
1,36,64,80
1,36,64,132
1,36,64,104
1,36,64,110
1,36,64,112
1,38,94,80
1,38,90,58
1,43,94,56
1,43,90,58
1,36,94,56
1,36,90,58
1,41,94,56
1,41,90,58
1,34,84,56
1,33,84,0
1,43,84,0
1,41,84,0
1,40,87,0
1,40,97,138
1,33,87,4
1,33,97,138
1,33,64,4
1,33,64,132
1,33,64,130
1,33,64,134
1,33,64,108
2,69,84,62208
2,64,87,0
2,62,84,0
2,50,87,0
2,65,74,56
2,67,87,32
2,35,84,0
2,59,81,0
2,62,94,0
2,62,94,40
2,67,94,0
2,57,105,0
2,64,74,40
2,60,74,0
2,55,74,0
2,48,71,0
2,64,87,0
2,60,87,0
2,55,87,0
2,52,71,0
2,64,87,0
2,60,87,0
2,55,87,0
2,65,87,0
2,41,84,0
2,57,81,0
2,60,94,0
2,60,94,40
2,65,94,0
2,55,105,0
2,70,87,40
2,46,84,0
2,62,81,0
2,65,94,0
2,65,94,40
2,70,94,0
2,60,105,0
2,64,87,40
2,44,84,0
2,56,81,0
2,59,94,0
2,59,94,40
2,64,94,0
2,54,105,0
2,64,74,40
2,60,74,0
2,57,74,0
2,62,74,0
2,59,74,0
2,55,74,0
2,64,84,0
2,59,87,0
2,57,84,0
2,49,87,0
2,61,74,56
2,69,84,32
2,64,87,0
2,62,84,0
2,50,87,0
2,65,74,56
2,62,84,32
2,57,87,0
2,55,84,0
2,35,87,0
2,59,74,56
2,64,63,224
2,60,63,0
2,55,63,0
2,64,63,64
2,60,63,0
2,55,63,0
2,64,60,78
2,60,60,0
2,55,60,0
2,64,60,74
2,60,60,0
2,55,60,0
2,65,87,64
2,41,84,0
2,57,81,0
2,60,94,0
2,60,94,40
2,65,94,0
2,55,105,0
2,46,71,40
2,65,87,0
2,62,87,0
2,58,87,0
2,46,77,142
2,46,71,56
2,65,87,0
2,62,87,0
2,58,87,0
2,45,71,0
2,65,87,0
2,62,87,0
2,60,87,0
2,69,87,0
2,62,63,192
2,59,63,0
2,55,63,0
2,62,63,64
2,59,63,0
2,55,63,0
2,43,71,78
2,62,87,0
2,60,87,0
2,55,87,0
2,43,77,142
2,64,74,56
2,60,74,0
2,55,74,0
2,48,71,0
2,65,87,0
2,60,87,0
2,55,87,0
2,48,77,142
2,48,58,56
2,67,81,0
2,64,81,0
2,60,87,0
2,62,94,4
2,46,71,78
2,65,87,0
2,62,87,0
2,58,87,0
2,45,71,0
2,65,87,0
2,62,87,0
2,60,87,0
2,69,87,0
2,43,71,0
2,62,87,0
2,58,87,0
2,55,87,0
2,53,71,0
2,65,87,0
2,62,87,0
2,57,87,0
2,52,71,0
2,64,87,0
2,62,87,0
2,59,87,0
2,68,87,0
2,52,77,142
2,50,71,56
2,64,87,0
2,62,87,0
2,59,87,0
2,68,87,0
2,50,77,142
2,48,71,56
2,64,87,0
2,60,87,0
2,55,87,0
2,47,71,0
2,64,87,0
2,62,87,0
2,59,87,0
2,67,87,0
2,45,71,0
2,64,87,0
2,60,87,0
2,57,87,0
2,43,71,0
2,62,87,0
2,59,87,0
2,55,87,0
2,65,60,0
2,60,60,0
2,57,60,0
2,65,60,74
2,60,60,0
2,57,60,0
2,52,71,64
2,65,87,0
2,60,87,0
2,57,87,0
2,52,77,142
2,50,71,56
2,65,87,0
2,62,87,0
2,57,87,0
2,48,71,0
2,67,87,0
2,64,87,0
2,60,87,0
2,69,87,0
2,47,71,0
2,69,87,0
2,65,87,0
2,62,87,0
2,71,87,0
2,45,71,0
2,65,87,0
2,60,87,0
2,57,87,0
2,64,87,0
2,44,84,0
2,56,81,0
2,59,94,0
2,59,94,40
2,64,94,0
2,54,105,0
2,62,87,40
2,45,84,0
2,53,81,0
2,57,94,0
2,57,94,40
2,62,94,0
2,52,105,0
2,69,87,40
2,45,84,0
2,60,81,0
2,64,94,0
2,64,94,40
2,69,94,0
2,59,105,0
2,62,87,40
2,38,84,0
2,53,81,0
2,57,94,0
2,57,94,40
2,62,94,0
2,52,105,0
2,62,63,232
2,59,63,0
2,55,63,0
2,62,63,64
2,59,63,0
2,55,63,0
2,62,74,78
2,59,74,0
2,55,74,0
2,48,58,0
2,67,81,0
2,64,81,0
2,60,87,0
2,62,94,4
2,53,71,78
2,65,87,0
2,60,87,0
2,57,87,0
2,53,77,142
2,45,71,56
2,65,87,0
2,60,87,0
2,57,87,0
2,45,77,142
2,65,84,56
2,60,87,0
2,58,84,0
2,46,87,0
2,62,74,56
2,71,84,32
2,66,87,0
2,64,84,0
2,52,87,0
2,68,74,56
2,45,71,32
2,64,87,0
2,60,87,0
2,57,87,0
2,45,77,142
2,35,71,56
2,62,87,0
2,59,87,0
2,55,87,0
2,35,77,142
2,69,87,56
2,49,84,0
2,61,81,0
2,64,94,0
2,64,94,40
2,69,94,0
2,59,105,0
2,50,58,40
2,69,81,0
2,65,81,0
2,62,87,0
2,64,94,4
2,62,74,78
2,59,74,0
2,55,74,0
2,35,71,0
2,62,87,0
2,59,87,0
2,55,87,0
2,35,77,142
2,48,58,56
2,67,81,0
2,64,81,0
2,60,87,0
2,62,94,4
2,53,71,78
2,65,87,0
2,60,87,0
2,57,87,0
2,53,77,142
2,45,71,56
2,67,87,0
2,64,87,0
2,60,87,0
2,69,87,0
2,45,77,142
2,70,87,56
2,46,84,0
2,62,81,0
2,65,94,0
2,65,94,40
2,70,94,0
2,60,105,0
2,43,58,40
2,62,81,0
2,59,81,0
2,55,87,0
2,57,94,4
2,65,84,78
2,60,87,0
2,58,84,0
2,53,87,0
2,62,74,56
2,43,58,32
2,62,81,0
2,59,81,0
2,55,87,0
2,57,94,4
2,50,71,78
2,65,87,0
2,62,87,0
2,57,87,0
2,50,77,142
2,53,71,56
2,65,87,0
2,62,87,0
2,57,87,0
2,53,77,142
2,43,71,56
2,62,87,0
2,59,87,0
2,55,87,0
2,43,77,142
2,62,60,56
2,59,60,0
2,55,60,0
2,62,60,74
2,59,60,0
2,55,60,0
2,48,71,64
2,64,87,0
2,60,87,0
2,55,87,0
2,48,77,142
2,64,74,56
2,60,74,0
2,55,74,0
2,65,74,0
2,60,74,0
2,57,74,0
2,65,63,192
2,60,63,0
2,57,63,0
2,65,63,64
2,60,63,0
2,57,63,0
2,65,74,78
2,62,74,0
2,58,74,0
2,65,74,0
2,62,74,0
2,58,74,0
2,52,71,0
2,64,87,0
2,62,87,0
2,59,87,0
2,68,87,0
2,52,77,142
2,64,74,56
2,62,74,0
2,59,74,0
2,68,74,0
2,64,63,192
2,60,63,0
2,57,63,0
2,64,63,64
2,60,63,0
2,57,63,0
2,35,71,78
2,62,87,0
2,59,87,0
2,55,87,0
2,35,77,142
2,69,87,56
2,49,84,0
2,61,81,0
2,64,94,0
2,64,94,40
2,69,94,0
2,59,105,0
2,65,60,40
2,62,60,0
2,57,60,0
2,65,60,74
2,62,60,0
2,57,60,0
2,53,71,64
2,65,87,0
2,62,87,0
2,57,87,0
2,53,71,0
2,64,87,0
2,60,87,0
2,57,87,0
2,43,71,0
2,62,87,0
2,59,87,0
2,55,87,0
2,43,77,142
2,35,71,56
2,62,87,0
2,59,87,0
2,55,87,0
2,35,77,142
2,48,71,56
2,64,87,0
2,60,87,0
2,55,87,0
2,48,77,142
2,52,71,56
2,64,87,0
2,60,87,0
2,55,87,0
2,52,77,142
2,65,63,248
2,60,63,0
2,57,63,0
2,65,63,64
2,60,63,0
2,57,63,0
2,65,60,78
2,60,60,0
2,57,60,0
2,65,60,74
2,60,60,0
2,57,60,0
2,65,63,256
2,62,63,0
2,58,63,0
2,65,63,64
2,62,63,0
2,58,63,0
2,50,71,78
2,65,87,0
2,62,87,0
2,58,87,0
2,50,77,142
2,43,71,56
2,62,87,0
2,59,87,0
2,55,87,0
2,43,77,142
2,62,74,56
2,59,74,0
2,55,74,0
2,45,58,0
2,64,81,0
2,62,81,0
2,57,87,0
2,59,94,4
2,64,84,78
2,59,87,0
2,57,84,0
2,45,87,0
2,61,74,56
2,50,71,32
2,65,87,0
2,62,87,0
2,57,87,0
2,50,77,142
2,53,71,56
2,65,87,0
2,62,87,0
2,57,87,0
2,53,77,142
2,62,74,56
2,59,74,0
2,55,74,0
2,35,71,0
2,62,87,0
2,59,87,0
2,55,87,0
2,35,77,142
2,48,71,56
2,64,87,0
2,60,87,0
2,55,87,0
2,48,77,142
2,52,71,56
2,64,87,0
2,60,87,0
2,55,87,0
2,52,77,142
2,65,74,56
2,60,74,0
2,57,74,0
2,45,71,0
2,65,87,0
2,60,87,0
2,57,87,0
2,45,77,142
2,65,74,56
2,62,74,0
2,58,74,0
2,50,71,0
2,65,87,0
2,62,87,0
2,58,87,0
2,50,77,142
2,52,71,56
2,64,87,0
2,62,87,0
2,59,87,0
2,68,87,0
2,52,77,142
2,44,71,56
2,64,87,0
2,62,87,0
2,59,87,0
2,68,87,0
2,44,77,142
2,64,63,248
2,60,63,0
2,57,63,0
2,64,63,64
2,60,63,0
2,57,63,0
2,35,71,78
2,62,87,0
2,59,87,0
2,55,87,0
2,35,77,142
2,69,87,56
2,49,84,0
2,61,81,0
2,64,94,0
2,64,94,40
2,69,94,0
2,59,105,0
2,65,74,40
2,62,74,0
2,57,74,0
2,53,71,0
2,65,87,0
2,62,87,0
2,57,87,0
2,53,71,0
2,64,87,0
2,60,87,0
2,57,87,0
2,62,74,0
2,59,74,0
2,55,74,0
2,62,60,0
2,59,60,0
2,55,60,0
2,62,60,74
2,59,60,0
2,55,60,0
2,48,71,64
2,64,87,0
2,60,87,0
2,55,87,0
2,48,77,142
2,52,71,56
2,64,87,0
2,60,87,0
2,55,87,0
2,52,77,142
2,65,60,56
2,60,60,0
2,57,60,0
2,65,60,74
2,60,60,0
2,57,60,0
2,45,71,64
2,65,87,0
2,60,87,0
2,57,87,0
2,45,77,142
2,62,74,56
2,58,74,0
2,53,74,0
2,50,71,0
2,65,87,0
2,62,87,0
2,58,87,0
2,50,77,142
2,43,71,56
2,62,87,0
2,59,87,0
2,55,87,0
2,43,77,142
2,35,71,56
2,62,87,0
2,59,87,0
2,55,87,0
2,35,77,142
2,48,84,56
2,55,58,384
2,67,94,192
