track,note,velocity,time
1,64,73,107616
1,69,73,2
1,73,70,6
1,64,78,200
1,68,78,4
1,71,78,4
1,69,82,508
1,64,82,4
1,73,87,2
1,64,82,206
1,68,91,2
1,71,91,0
1,64,73,596
1,69,73,2
1,73,70,6
1,64,78,200
1,68,78,4
1,71,78,4
1,69,82,508
1,64,82,4
1,73,87,2
1,64,82,206
1,68,91,2
1,71,91,0
2,52,34,7416
2,51,53,1512
2,49,70,0
2,51,70,0
2,47,42,6144
2,51,38,46
2,52,54,42
2,52,75,170
2,54,75,0
2,56,75,0
2,54,75,0
2,52,75,0
2,47,75,194
2,47,87,44
2,47,64,28372
2,54,53,0
2,56,70,0
2,52,70,0
2,47,64,0
2,59,53,0
2,56,70,0
2,56,70,0
2,52,64,0
2,51,53,0
2,49,70,0
2,47,70,0
2,47,64,0
2,54,53,0
2,56,70,0
2,52,70,0
2,52,70,1536
2,52,64,13824
2,51,53,0
2,49,70,0
2,47,70,0
2,47,64,0
2,54,53,0
2,56,70,0
2,52,70,0
2,52,70,1536
2,61,75,0
2,62,75,8
2,75,69,0
2,73,64,0
2,71,56,0
2,47,53,18432
2,54,53,0
2,56,53,0
2,54,52,0
2,47,89,10752
2,49,89,96
2,51,89,96
2,52,89,96
2,54,89,96
2,56,89,96
2,57,89,96
2,59,89,96
2,51,53,1632
2,49,70,0
2,47,70,0
2,47,64,0
2,54,53,0
2,56,70,0
2,52,70,0
2,47,64,0
2,54,53,0
2,56,70,0
2,52,70,0
2,47,64,0
2,59,53,0
2,56,70,0
2,47,89,0
2,49,89,96
2,51,89,96
2,52,89,96
2,54,89,96
2,56,89,96
2,57,89,96
2,59,89,96
2,52,64,96
2,51,53,0
2,49,70,0
2,47,70,0
2,47,64,0
2,54,53,0
2,56,70,0
2,52,70,0
3,76,100,120864
3,76,100,0
3,76,100,32
3,76,100,0
3,76,100,32
3,76,100,0
3,73,100,372
3,73,100,0
3,71,100,8
3,71,100,0
3,71,100,0
3,71,100,0
3,73,100,384
3,73,100,0
3,73,100,0
3,75,100,0
3,75,100,0
3,75,100,0
3,76,100,0
3,76,100,0
3,76,100,0
3,75,100,0
3,75,100,0
3,75,100,0
3,73,100,0
3,73,100,0
3,73,100,0
3,71,100,0
3,71,100,0
3,71,100,0
3,71,100,192
3,71,100,0
3,71,100,0
3,76,100,570
3,88,100,0
3,76,100,0
3,88,100,0
3,88,100,0
3,76,100,0
3,88,100,0
3,88,100,0
3,83,100,48
3,83,100,0
3,83,100,0
3,87,100,8
3,87,100,0
3,87,100,0
3,88,100,90
3,88,100,0
3,88,100,0
3,71,100,191
3,71,100,0
3,71,100,0
3,78,100,0
3,78,100,0
3,78,100,0
3,76,100,0
3,76,100,0
3,76,100,0
3,78,100,0
3,78,100,0
3,78,100,0
3,78,100,0
3,78,100,0
3,78,100,0
3,66,100,1152
3,66,100,0
3,66,100,0
3,59,100,0
3,59,100,0
3,59,100,0
3,68,100,0
3,68,100,0
3,68,100,0
3,59,100,0
3,59,100,0
3,59,100,0
3,69,100,0
3,69,100,0
3,69,100,0
3,71,100,48
3,71,100,0
3,71,100,0
3,73,100,48
3,73,100,0
3,73,100,0
3,76,100,144
3,76,100,0
3,76,100,0
3,73,100,144
3,73,100,0
3,73,100,0
3,71,100,4
3,71,100,0
3,71,100,0
3,78,100,0
3,78,100,0
3,78,100,0
3,71,100,0
3,71,100,0
3,71,100,0
3,80,100,0
3,80,100,0
3,80,100,0
3,71,100,0
3,71,100,0
3,71,100,0
3,81,100,0
3,81,100,0
3,81,100,0
3,83,100,48
3,83,100,0
3,83,100,0
3,85,100,48
3,85,100,0
3,85,100,0
3,88,100,144
3,88,100,0
3,88,100,0
3,85,100,144
3,85,100,0
3,85,100,0
3,83,100,4
3,83,100,0
3,83,100,0
4,59,83,1248
4,64,96,0
4,68,90,0
4,71,127,0
4,40,83,0
4,44,72,0
4,59,36,0
4,64,31,0
4,68,27,0
4,71,83,0
4,59,36,0
4,68,31,0
4,71,31,0
4,40,58,0
4,52,96,0
4,56,51,0
4,64,127,0
4,52,58,0
4,47,31,0
4,56,31,0
4,59,31,0
4,68,104,0
4,40,31,0
4,56,31,0
4,59,58,0
4,59,31,0
4,63,31,0
4,66,31,0
4,44,31,0
4,42,83,0
4,47,72,0
4,59,83,0
4,63,96,0
4,66,90,0
4,71,127,0
4,59,36,0
4,63,31,0
4,66,27,0
4,47,36,0
4,59,31,0
4,63,31,0
4,42,58,0
4,59,96,0
4,66,51,0
4,71,127,0
4,59,58,0
4,47,31,0
4,66,104,0
4,63,31,0
4,59,31,0
4,42,31,0
4,59,31,0
4,63,31,0
4,47,31,0
4,59,31,0
4,63,31,0
4,66,31,0
4,45,72,0
4,57,83,0
4,61,96,0
4,64,90,0
4,69,127,0
4,57,36,0
4,61,31,0
4,64,27,0
4,45,36,0
4,57,31,0
4,61,31,0
4,45,58,0
4,64,51,0
4,69,127,0
4,52,96,0
4,45,31,0
4,52,58,0
4,45,31,0
4,57,31,0
4,61,31,0
4,64,104,0
4,57,58,0
4,47,31,0
4,45,31,0
4,57,31,0
4,61,31,0
4,64,31,0
4,42,83,0
4,47,72,0
4,59,83,0
4,63,96,0
4,66,90,0
4,71,127,0
4,59,36,0
4,66,27,0
4,47,36,0
4,59,31,0
4,63,31,0
4,42,58,0
4,66,127,0
4,63,51,0
4,59,96,0
4,59,58,0
4,47,31,0
4,66,104,0
4,63,31,0
4,59,31,0
4,42,31,0
4,47,31,0
4,63,31,0
4,47,31,0
4,59,31,0
4,63,31,0
4,66,31,0
4,59,83,0
4,64,96,0
4,68,90,0
4,71,127,0
4,40,83,0
4,44,72,0
4,59,36,0
4,64,31,0
4,68,27,0
4,71,83,0
4,59,36,0
4,68,31,0
4,71,31,0
4,40,58,0
4,52,96,0
4,56,51,0
4,64,127,0
4,52,58,0
4,47,31,0
4,56,31,0
4,59,31,0
4,68,104,0
4,40,31,0
4,56,31,0
4,59,58,0
4,59,31,0
4,63,31,0
4,66,31,0
4,44,31,0
4,42,83,0
4,47,72,0
4,59,83,0
4,63,96,0
4,66,90,0
4,71,127,0
4,59,36,0
4,63,31,0
4,66,27,0
4,47,36,0
4,59,31,0
4,63,31,0
4,59,96,0
4,66,51,0
4,71,127,0
4,40,58,0
4,59,58,0
4,47,31,0
4,66,104,0
4,63,31,0
4,59,31,0
4,42,31,0
4,59,31,0
4,63,31,0
4,47,31,0
4,59,31,0
4,63,31,0
4,66,31,0
4,45,72,0
4,57,83,0
4,61,96,0
4,64,90,0
4,69,127,0
4,40,83,0
4,57,36,0
4,61,31,0
4,64,27,0
4,45,36,0
4,57,31,0
4,61,31,0
4,45,58,0
4,64,51,0
4,69,127,0
4,52,96,0
4,45,31,0
4,52,58,0
4,45,31,0
4,57,31,0
4,61,31,0
4,64,104,0
4,57,58,0
4,47,31,0
4,45,31,0
4,57,31,0
4,61,31,0
4,64,31,0
4,42,83,0
4,47,72,0
4,59,83,0
4,63,96,0
4,66,90,0
4,71,127,0
4,59,36,0
4,63,31,0
4,66,27,0
4,47,36,0
4,59,31,0
4,63,31,0
4,42,58,0
4,66,127,0
4,63,51,0
4,59,96,0
4,59,58,0
4,47,31,0
4,66,104,0
4,63,31,0
4,59,31,0
4,42,31,0
4,47,31,0
4,63,31,0
4,47,31,0
4,59,31,0
4,63,31,0
4,66,31,0
4,64,127,0
4,40,83,0
4,47,83,0
4,56,90,0
4,52,96,0
4,47,36,0
4,56,27,0
4,64,127,0
4,57,51,0
4,40,58,0
4,45,127,0
4,61,127,0
4,44,36,0
4,52,31,0
4,56,31,0
4,64,127,0
4,59,127,0
4,44,127,0
4,40,58,0
4,52,96,0
4,44,31,0
4,52,58,0
4,47,31,0
4,56,31,0
4,40,31,0
4,47,31,0
4,52,31,0
4,64,127,0
4,45,72,0
4,52,83,0
4,57,96,0
4,61,90,0
4,44,36,0
4,56,27,0
4,64,127,0
4,40,58,0
4,52,58,0
4,57,51,0
4,47,36,0
4,56,36,0
4,61,127,0
4,64,104,0
4,52,96,0
4,40,58,0
4,64,127,0
4,52,62,0
4,56,67,0
4,44,72,0
4,40,31,0
4,40,83,0
4,56,90,0
4,44,31,0
4,56,31,0
4,40,31,0
4,47,31,0
4,40,83,0
4,47,83,0
4,64,127,0
4,56,90,0
4,47,36,0
4,56,27,0
4,57,51,0
4,40,58,0
4,45,127,0
4,52,96,0
4,61,127,0
4,64,127,0
4,44,36,0
4,56,31,0
4,52,58,0
4,47,31,0
4,59,127,0
4,40,58,0
4,64,127,0
4,44,31,0
4,52,58,0
4,47,31,0
4,52,58,0
4,56,31,0
4,40,31,0
4,47,31,0
4,52,31,0
4,40,83,0
4,45,72,0
4,52,83,0
4,57,96,0
4,61,90,0
4,64,127,0
4,44,36,0
4,56,27,0
4,40,58,0
4,45,31,0
4,61,31,0
4,64,127,0
4,44,72,178
4,40,47,0
4,47,107,0
4,52,62,0
4,56,75,0
4,64,104,0
4,45,36,0
4,56,36,0
4,56,90,0
4,47,31,0
4,56,31,0
4,40,31,0
4,52,31,0
4,64,127,0
4,40,83,0
4,47,83,0
4,56,90,0
4,52,96,0
4,47,36,0
4,56,27,0
4,64,127,0
4,57,51,0
4,40,58,0
4,45,127,0
4,61,127,0
4,44,36,0
4,52,31,0
4,56,31,0
4,64,127,0
4,59,127,0
4,44,127,0
4,40,58,0
4,52,96,0
4,44,31,0
4,52,58,0
4,47,31,0
4,56,31,0
4,40,31,0
4,47,31,0
4,52,31,0
4,64,127,0
4,45,72,0
4,52,83,0
4,57,96,0
4,61,90,0
4,44,36,0
4,56,27,0
4,64,127,0
4,40,58,0
4,52,58,0
4,57,51,0
4,47,36,0
4,56,36,0
4,61,127,0
4,64,104,0
4,52,96,0
4,40,58,0
4,64,127,0
4,52,62,0
4,56,67,0
4,44,72,0
4,40,31,0
4,40,83,0
4,56,90,0
4,44,31,0
4,56,31,0
4,40,31,0
4,47,31,0
4,40,83,0
4,47,83,0
4,64,127,0
4,56,90,0
4,47,36,0
4,56,27,0
4,57,51,0
4,40,58,0
4,45,127,0
4,52,96,0
4,61,127,0
4,64,127,0
4,44,36,0
4,56,31,0
4,52,58,0
4,47,31,0
4,59,127,0
4,40,58,0
4,64,127,0
4,44,31,0
4,52,58,0
4,47,31,0
4,52,58,0
4,56,31,0
4,40,31,0
4,47,31,0
4,52,31,0
4,40,83,0
4,45,72,0
4,52,83,0
4,57,96,0
4,61,90,0
4,64,127,0
4,44,36,0
4,56,27,0
4,40,58,0
4,45,31,0
4,61,31,0
4,64,127,0
4,44,72,178
4,40,47,0
4,47,107,0
4,52,62,0
4,56,75,0
4,64,104,0
4,45,36,0
4,56,36,0
4,56,90,0
4,47,31,0
4,56,31,0
4,40,31,0
4,52,31,0
4,47,83,0
4,42,31,0
4,54,96,0
4,59,90,0
4,63,127,0
4,54,31,0
4,59,27,0
4,47,36,0
4,57,31,0
4,54,31,0
4,47,58,0
4,54,96,0
4,59,51,0
4,63,127,0
4,54,58,0
4,47,31,0
4,54,31,0
4,59,31,0
4,63,104,0
4,47,31,0
4,54,31,0
4,42,31,0
4,54,31,0
4,63,31,0
4,47,31,0
4,49,83,0
4,61,127,0
4,57,90,0
4,52,96,0
4,45,31,0
4,45,36,0
4,52,31,0
4,57,27,0
4,57,31,0
4,54,31,0
4,47,58,0
4,54,96,0
4,59,51,0
4,63,127,0
4,54,58,0
4,68,104,0
4,47,31,0
4,54,31,0
4,59,31,0
4,75,31,0
4,47,31,0
4,59,31,0
4,63,31,0
4,66,31,0
4,42,31,0
4,47,31,0
4,47,83,0
4,40,83,0
4,44,72,0
4,64,127,0
4,56,90,0
4,52,96,0
4,47,36,0
4,52,31,0
4,56,27,0
4,56,31,0
4,44,36,0
4,52,31,0
4,40,58,0
4,52,96,0
4,56,51,0
4,64,127,0
4,52,58,0
4,47,31,0
4,40,31,0
4,56,31,0
4,52,31,0
4,64,104,0
4,68,58,0
4,47,31,0
4,52,31,0
4,64,31,0
4,71,31,0
4,44,31,0
4,47,83,0
4,40,83,0
4,44,72,0
4,64,127,0
4,56,90,0
4,52,96,0
4,47,36,0
4,52,31,0
4,56,27,0
4,56,31,0
4,44,36,0
4,52,31,0
4,40,58,0
4,52,96,0
4,56,51,0
4,64,127,0
4,52,58,0
4,40,31,0
4,56,31,0
4,52,31,0
4,64,104,0
4,40,31,0
4,47,31,0
4,44,31,0
4,44,31,0
4,47,31,0
4,52,31,0
4,56,31,0
4,47,83,0
4,42,31,0
4,54,96,0
4,59,90,0
4,63,127,0
4,54,31,0
4,59,27,0
4,47,36,0
4,57,31,0
4,54,31,0
4,47,58,0
4,54,96,0
4,59,51,0
4,63,127,0
4,54,58,0
4,47,31,0
4,54,31,0
4,59,31,0
4,63,104,0
4,47,31,0
4,54,31,0
4,42,31,0
4,54,31,0
4,63,31,0
4,47,31,0
4,61,127,0
4,57,90,0
4,52,96,0
4,45,31,0
4,45,36,0
4,52,31,0
4,57,27,0
4,57,31,0
4,54,31,0
4,47,58,0
4,54,96,0
4,59,51,0
4,63,127,0
4,54,58,0
4,68,104,0
4,47,31,0
4,54,31,0
4,59,31,0
4,75,31,0
4,47,31,0
4,59,31,0
4,63,31,0
4,66,31,0
4,42,31,0
4,47,31,0
4,40,83,0
4,47,83,0
4,44,72,0
4,64,127,0
4,56,90,0
4,52,96,0
4,47,36,0
4,52,31,0
4,56,27,0
4,57,51,0
4,40,58,0
4,45,127,0
4,52,96,0
4,61,127,0
4,64,127,0
4,44,36,0
4,52,31,0
4,56,31,0
4,59,127,0
4,44,127,0
4,56,51,0
4,40,58,0
4,52,96,0
4,64,127,0
4,44,31,0
4,52,58,0
4,47,31,0
4,52,58,0
4,44,31,0
4,56,31,0
4,40,31,0
4,47,31,0
4,52,31,0
4,40,83,0
4,45,72,0
4,52,83,0
4,57,96,0
4,61,90,0
4,64,127,0
4,44,36,0
4,56,27,0
4,52,31,0
4,40,58,0
4,45,31,0
4,52,58,0
4,57,51,0
4,61,31,0
4,64,127,0
4,47,36,0
4,52,36,0
4,56,36,0
4,61,127,0
4,64,104,0
4,57,51,0
4,52,96,0
4,40,58,0
4,52,62,0
4,56,67,0
4,64,127,0
4,44,72,0
4,47,127,0
4,40,31,0
4,40,83,0
4,56,90,0
4,47,31,0
4,52,58,0
4,44,31,0
4,56,31,0
4,40,31,0
4,47,31,0
4,52,31,0
4,59,77,0
4,64,79,0
4,68,82,0
4,71,96,0
4,40,74,0
4,44,69,0
4,59,44,0
4,64,43,0
4,68,41,0
4,71,50,0
4,40,74,0
4,44,69,0
4,59,77,0
4,64,79,0
4,68,82,0
4,71,96,0
4,59,76,0
4,63,76,0
4,66,76,0
4,71,84,0
4,42,76,0
4,47,76,0
4,59,44,0
4,63,43,0
4,66,41,0
4,71,50,0
4,42,76,0
4,47,76,0
4,59,76,0
4,63,76,0
4,66,76,0
4,71,84,0
4,45,77,0
4,57,77,0
4,61,79,0
4,64,82,0
4,69,96,0
4,57,44,0
4,61,43,0
4,64,41,0
4,69,50,0
4,69,84,0
4,45,76,0
4,57,76,0
4,64,76,0
4,61,76,0
4,57,44,192
4,61,43,0
4,64,41,0
4,69,50,0
4,64,59,0
4,61,59,0
4,57,59,0
4,52,59,0
4,45,59,0
4,64,84,0
4,59,84,0
4,56,76,0
4,52,76,0
4,40,76,0
4,47,76,0
4,42,31,0
4,54,96,0
4,59,90,0
4,63,127,0
4,47,83,0
4,54,31,0
4,59,27,0
4,47,36,0
4,57,31,0
4,54,31,0
4,47,58,0
4,54,96,0
4,59,51,0
4,63,127,0
4,54,58,0
4,47,31,0
4,54,31,0
4,59,31,0
4,63,104,0
4,47,31,0
4,54,31,0
4,42,31,0
4,54,31,0
4,63,31,0
4,47,31,0
4,61,127,0
4,57,90,0
4,52,96,0
4,49,83,0
4,45,31,0
4,45,36,0
4,52,31,0
4,57,27,0
4,57,31,0
4,54,31,0
4,47,58,0
4,54,96,0
