track,note,velocity,time
1,29,82,21092
1,33,85,4
1,34,66,0
1,29,85,8
1,33,85,12
1,34,74,768
1,36,85,748
1,34,72,4
1,33,85,388
1,33,82,56
1,34,66,196
1,34,62,116
1,33,85,16
1,34,65,776
1,31,85,40
1,31,85,88
1,33,85,20
1,33,85,112
1,34,95,20
1,34,89,164
1,38,103,40
1,36,97,8
1,38,106,8
1,30,104,32
1,31,106,28
1,35,95,4
1,33,91,36
1,33,91,124
1,35,98,16
1,37,95,24
1,38,85,0
1,30,86,24
1,31,85,16
1,35,85,384
1,33,85,0
1,33,85,164
1,35,85,16
1,37,95,0
1,35,85,8
1,35,86,76
1,37,88,4
1,35,85,28
1,35,85,24
1,37,85,24
1,34,99,24
1,34,99,96
1,36,95,8
1,36,85,64
1,38,93,0
1,38,95,68
1,40,103,16
1,38,85,0
1,38,72,96
1,42,59,4
1,42,62,84
1,29,82,1516
1,33,85,4
1,34,66,0
1,29,85,8
1,33,85,12
1,34,74,768
1,36,85,752
1,34,72,0
1,33,85,396
1,33,82,56
1,34,66,196
1,34,62,116
1,33,85,24
1,34,65,772
1,31,85,36
1,31,85,88
1,33,85,16
1,33,85,112
1,34,95,20
1,34,89,164
1,38,103,40
1,36,97,4
1,38,106,8
1,30,104,32
1,31,106,24
1,35,95,0
1,33,91,32
1,33,91,124
1,35,98,16
1,37,95,24
1,38,85,0
1,30,86,24
1,31,85,16
1,35,85,384
1,33,85,0
1,33,85,164
1,35,85,12
1,37,95,4
1,35,85,8
1,35,86,76
1,37,88,4
1,35,85,28
1,35,85,24
1,37,85,28
1,34,99,24
1,34,99,96
1,36,95,8
1,36,85,64
1,38,93,0
1,38,95,68
1,40,103,16
1,38,85,772
1,38,85,52
1,30,91,8
1,30,88,64
1,31,91,16
1,31,89,80
1,33,106,12
1,33,103,44
1,38,106,20
1,30,104,32
1,31,106,24
1,35,95,4
1,33,91,36
1,33,91,124
1,35,98,16
1,37,95,24
1,38,85,0
1,30,86,24
1,31,85,16
1,35,85,384
1,33,85,372
1,33,85,164
1,35,85,12
1,37,95,4
1,35,85,8
1,35,86,76
1,37,88,0
1,35,85,28
1,35,85,24
1,37,85,24
1,34,99,24
1,34,99,96
1,36,95,8
1,36,85,64
1,38,93,4
1,38,95,68
1,40,103,20
1,38,106,0
2,53,63,2632
2,57,58,196
2,53,51,168
2,57,68,0
2,60,65,24
2,57,65,4
2,58,67,248
2,62,73,164
2,58,64,188
2,58,74,72
2,62,70,4
2,58,60,192
2,57,71,244
2,60,69,0
2,57,65,0
2,60,87,12
2,58,70,744
2,50,80,12
2,52,63,200
2,53,63,288
2,55,77,28
2,45,69,0
2,53,58,4
2,50,70,0
2,50,73,156
2,53,51,0
2,53,72,0
2,53,65,148
2,45,69,0
2,46,83,204
2,48,83,24
2,46,73,368
2,53,64,8
2,45,66,0
2,46,71,8
2,53,63,0
2,53,62,8
2,45,66,0
2,46,72,156
2,53,57,0
2,53,66,4
2,43,64,0
2,52,56,0
2,48,67,0
2,52,61,40
2,48,83,4
2,46,73,196
2,48,72,332
2,53,72,300
2,55,76,32
2,45,59,4
2,50,76,132
2,53,55,4
2,50,70,112
2,53,49,0
2,53,74,44
2,53,69,160
2,45,68,0
2,46,78,8
2,48,74,16
2,46,74,324
2,45,65,12
2,53,59,4
2,46,70,180
2,53,56,0
2,53,61,12
2,45,65,4
2,46,74,12
2,43,62,4
2,45,71,740
2,46,78,748
2,50,81,4
2,52,67,8
2,50,83,32
2,54,82,40
2,55,82,0
2,59,75,12
2,57,65,384
2,49,70,0
2,47,74,752
2,49,85,360
2,50,80,44
2,54,83,4
2,55,79,12
2,59,71,384
2,57,60,364
2,49,73,0
2,55,72,32
2,57,72,4
2,55,83,384
2,47,76,0
2,57,69,0
2,49,78,0
2,55,71,80
2,47,61,4
2,49,74,36
2,57,63,0
2,46,88,764
2,48,78,24
2,50,75,28
2,52,64,36
2,50,79,16
2,50,82,84
2,54,82,8
2,54,77,72
2,55,76,32
2,50,82,472
2,52,71,8
2,53,75,12
2,55,76,12
2,45,62,4
2,53,63,12
2,50,76,0
2,53,61,152
2,50,79,4
2,53,75,24
2,53,76,196
2,45,74,0
2,46,82,640
2,48,77,0
2,46,77,8
2,53,62,4
2,45,66,4
2,53,64,0
2,46,73,0
2,53,66,0
2,45,69,0
2,46,81,8
2,43,70,372
2,45,74,748
2,46,79,368
2,50,83,0
2,52,70,0
2,50,81,28
2,54,82,380
2,55,69,48
2,59,69,0
2,57,58,384
2,49,61,4
2,47,67,4
2,49,83,384
2,50,87,364
2,54,77,12
2,55,68,200
2,59,72,16
2,57,59,380
2,49,66,0
2,55,75,40
2,57,72,388
2,55,80,372
2,47,72,4
2,57,65,16
2,49,70,0
2,47,64,20
2,55,70,0
2,57,63,0
2,49,75,0
2,46,76,736
2,48,78,12
2,50,80,0
2,52,68,36
2,50,82,16
2,50,93,96
2,54,85,16
2,54,84,112
2,55,79,40
2,55,72,136
2,57,76,196
2,57,70,124
2,50,79,28
2,54,83,60
2,55,81,12
2,59,76,4
2,57,69,384
2,49,67,4
2,47,76,12
2,49,81,388
2,50,83,16
2,54,80,12
2,55,81,196
2,59,69,12
2,57,60,384
2,49,65,4
2,55,71,8
2,57,68,384
2,55,69,376
2,47,62,0
2,49,75,24
2,57,63,0
2,55,72,8
2,47,57,0
2,49,73,16
2,57,57,0
2,46,78,12
2,48,71,8
2,50,75,12
2,52,63,8
2,54,68,632
2,50,77,0
3,69,77,2992
3,72,90,12
3,79,85,196
3,77,82,308
3,77,74,140
3,74,69,0
3,74,91,120
3,72,90,196
3,72,68,140
3,70,85,196
3,69,81,4
3,67,79,188
3,65,81,8
3,72,95,196
3,65,69,28
3,72,87,32
3,65,67,32
3,72,85,36
3,65,70,12
3,67,68,192
3,57,70,0
3,60,76,192
3,60,88,108
3,60,83,88
3,60,95,84
3,60,95,88
3,60,91,152
3,58,73,192
3,58,81,72
3,57,76,4
3,55,83,196
3,57,77,376
3,57,78,88
3,60,95,8
3,67,84,0
3,65,83,28
3,65,83,4
3,62,86,204
3,65,79,216
3,67,82,196
3,65,79,4
3,64,83,192
3,62,81,180
3,60,86,184
3,60,89,164
3,65,87,8
3,62,82,8
3,65,86,0
3,57,73,104
3,60,94,16
3,60,89,64
3,67,84,4
3,65,79,104
3,62,83,4
3,55,86,68
3,57,81,4
3,58,92,4
3,57,73,8
3,58,84,192
3,57,72,0
3,58,82,196
3,60,85,156
3,57,74,12
3,55,77,12
3,62,86,256
3,64,84,36
3,57,68,224
3,60,80,172
3,60,87,100
3,60,83,96
3,60,90,92
3,60,84,96
3,60,83,88
3,60,78,92
3,60,90,16
3,58,64,192
3,58,73,76
3,57,65,4
3,55,78,196
3,57,79,232
3,57,80,80
3,60,93,192
3,67,82,8
3,69,87,264
3,67,74,16
3,65,78,0
3,62,78,0
3,67,83,128
3,65,90,132
3,64,84,180
3,62,85,184
3,60,87,188
3,60,92,84
3,65,90,0
3,65,77,156
3,62,78,0
3,57,71,136
3,60,93,12
3,60,84,60
3,67,81,196
3,65,79,104
3,62,78,4
3,57,67,52
3,58,86,4
3,57,74,8
3,58,82,0
3,57,61,8
3,58,82,192
3,60,94,20
3,60,85,84
3,60,86,84
3,62,94,0
3,60,83,16
3,62,89,8
3,67,76,12
3,65,83,12
3,58,75,0
3,67,72,4
3,60,84,4
3,62,75,28
3,66,76,0
3,66,90,120
3,69,91,196
3,71,91,192
3,66,83,8
3,64,87,388
3,66,85,564
3,67,84,192
3,66,78,188
3,64,81,180
3,62,76,8
3,66,81,372
3,69,75,192
3,71,85,8
3,66,79,384
3,64,85,380
3,64,80,72
3,66,87,192
3,67,79,184
3,66,79,188
3,64,85,188
3,62,84,156
3,62,95,76
3,62,73,80
3,71,88,12
3,69,86,200
3,64,82,168
3,59,76,16
3,61,88,0
3,62,88,8
3,62,86,76
3,71,86,196
3,69,78,176
3,64,74,8
3,59,70,8
3,61,78,192
3,62,90,36
3,62,91,64
3,62,81,92
3,64,82,12
3,64,92,72
3,62,80,0
3,60,78,196
3,65,84,28
3,58,81,0
3,65,88,64
3,65,86,80
3,65,84,72
3,67,79,28
3,60,86,0
3,69,89,0
3,66,84,16
3,69,75,0
3,66,90,136
3,69,84,32
3,69,85,8
3,76,91,0
3,74,88,4
3,71,82,108
3,74,81,0
3,65,82,440
3,58,71,0
3,67,75,32
3,60,76,0
3,57,79,12
3,60,85,192
3,60,85,92
3,60,84,104
3,60,94,88
3,60,83,96
3,60,84,92
3,60,80,96
3,60,95,88
3,58,75,140
3,58,81,72
3,57,70,12
3,55,81,196
3,57,81,412
3,60,88,0
3,67,88,12
3,69,90,124
3,67,76,52
3,65,81,4
3,62,81,0
3,65,81,84
3,65,95,36
3,67,84,0
3,65,87,156
3,64,93,172
3,62,90,8
3,60,97,192
3,60,83,8
3,65,92,192
3,65,79,0
3,62,76,0
3,57,76,104
3,57,63,104
3,60,99,88
3,60,88,84
3,67,84,196
3,62,75,8
3,65,77,0
3,57,68,84
3,58,88,196
3,57,69,20
3,58,81,0
3,57,67,12
3,58,85,192
3,60,96,0
3,60,93,104
3,62,99,20
3,60,86,4
3,62,85,0
3,67,81,16
3,65,89,112
3,58,87,0
3,67,84,0
3,60,92,0
3,62,90,28
3,66,81,0
3,66,91,92
3,69,89,192
3,71,91,44
3,66,81,364
3,64,85,16
3,66,90,4
3,67,85,104
3,66,76,0
3,64,65,192
3,62,75,4
3,66,88,364
3,69,78,4
3,71,87,196
3,66,78,0
3,64,78,4
3,64,85,116
3,66,86,8
3,67,85,56
3,66,80,188
3,64,89,180
3,62,83,168
3,62,96,80
3,62,84,80
3,71,90,8
3,69,82,176
3,64,79,16
3,59,74,28
3,61,81,8
3,62,87,12
3,62,89,80
3,71,86,4
3,69,72,164
3,64,75,12
3,59,71,24
3,61,83,20
3,62,86,36
3,62,77,32
3,62,85,84
3,64,85,20
3,64,91,8
3,62,76,8
3,60,83,200
3,66,90,40
3,58,78,0
3,65,89,4
3,65,80,80
3,65,64,92
3,65,89,108
3,67,81,36
3,60,83,0
3,69,93,124
3,66,92,16
3,69,83,0
3,74,89,408
3,69,82,0
3,71,92,4
3,74,88,744
3,73,81,8
3,62,70,56
3,66,82,0
3,66,86,136
3,69,82,136
3,71,88,188
3,66,78,12
3,64,88,16
3,66,85,0
3,67,79,192
3,66,75,4
3,64,80,196
3,62,74,164
3,66,95,404
3,69,90,0
3,71,87,192
3,66,77,0
3,64,79,8
3,64,82,60
3,66,84,192
3,67,80,172
3,66,73,184
3,64,86,184
3,62,82,152
3,62,95,76
3,62,81,80
3,71,87,16
3,69,87,184
3,64,84,0
3,59,74,28
3,61,81,20
3,62,88,8
3,62,87,84
3,71,85,192
3,69,80,180
3,64,79,160
3,59,72,20
3,61,78,188
3,62,91,32
3,62,86,56
3,62,76,84
3,64,85,0
3,64,88,76
3,62,75,4
3,60,80,196
3,58,77,24
3,65,83,0
3,65,74,60
3,65,83,104
3,65,83,32
3,67,79,8
3,60,80,0
3,69,87,140
3,69,84,200
3,62,74,0
4,57,85,33316
4,50,85,4
4,59,85,32
4,50,85,0
4,57,85,20
4,52,85,4
4,55,85,32
4,50,85,0
4,57,85,4
4,52,85,4
4,50,85,32
4,57,85,0
4,59,85,24
4,50,85,0
4,52,85,12
4,57,85,0
4,50,85,4
4,55,78,0
4,52,85,16
4,57,85,0
4,50,85,8
4,55,85,4
4,52,85,16
4,57,85,0
4,55,85,40
4,50,85,0
4,53,85,4
4,52,93,44
4,57,85,0
4,58,89,40
4,53,85,4
4,55,85,32
4,60,85,0
4,46,107,4
4,53,85,4
4,55,92,4
4,48,85,0
4,57,91,768
4,50,85,4
4,57,85,14200
4,50,85,4
4,59,85,32
4,50,85,0
4,57,85,20
4,52,85,0
4,55,85,32
4,50,85,0
4,57,85,8
4,52,85,0
4,50,85,32
4,57,85,0
4,59,85,24
4,50,85,0
4,52,85,12
4,57,85,0
4,50,85,4
4,55,78,0
4,52,85,16
4,57,85,0
4,50,85,12
4,55,85,0
4,52,85,12
4,57,85,0
4,55,85,40
4,50,85,0
4,53,85,4
4,52,93,44
4,57,85,0
4,58,89,40
4,53,85,4
4,55,85,32
4,60,85,0
4,46,107,4
4,53,85,4
4,55,92,4
4,48,85,0
4,57,91,768
4,50,85,4
4,57,85,1912
4,50,85,4
4,59,85,32
4,50,85,0
4,57,85,24
4,52,85,0
4,55,85,32
4,50,85,0
4,57,85,8
4,52,85,0
4,50,85,32
4,57,85,0
4,59,85,24
4,50,85,0
4,52,85,8
4,57,85,4
4,50,85,4
4,55,78,0
4,52,85,16
4,57,85,0
4,50,85,8
4,55,85,0
4,52,85,12
4,57,85,0
4,55,85,40
4,50,85,0
4,53,85,4
4,52,93,40
4,57,85,0
4,58,89,40
4,53,85,4
4,55,85,32
4,60,85,0
4,46,107,8
4,53,85,0
4,55,92,8
4,48,85,0
4,57,101,768
4,62,111,4
4,50,111,4
5,60,106,28112
5,67,106,192
5,65,106,188
5,60,106,344
5,67,106,200
5,65,106,204
5,58,106,1516
5,65,106,0
5,53,106,0
5,60,106,72
5,55,106,0
5,67,106,4
5,50,106,12
5,57,106,92
5,64,104,96
5,62,106,96
5,57,104,80
5,42,106,96
5,43,106,24
5,50,106,0
5,59,106,164
5,45,104,52
5,52,106,0
5,62,106,76
5,61,106,96
5,59,104,136
5,57,106,92
5,47,104,52
5,55,104,92
5,62,106,88
5,49,106,20
5,57,104,64
5,64,104,96
5,50,104,12
5,57,104,96
5,64,106,96
5,62,106,96
5,57,104,12
5,42,96,96
5,43,104,24
5,50,106,8
5,59,106,188
5,45,104,156
5,52,106,92
5,62,106,40
5,61,106,96
5,59,104,0
5,57,106,96
5,47,104,60
5,55,104,8
5,62,104,96
5,49,106,16
5,57,104,76
5,64,104,96
5,47,104,32
5,55,104,92
5,57,104,96
5,62,104,96
5,49,100,24
5,57,104,92
5,59,104,96
5,64,104,96
5,47,104,40
5,55,104,80
5,57,104,96
5,62,104,96
5,49,105,4
5,57,104,92
5,59,104,96
5,64,104,96
5,50,106,56
5,53,106,4
5,58,101,80
5,60,104,104
5,52,105,12
5,55,104,88
5,60,104,88
5,62,104,104
5,53,106,4
5,58,98,100
5,60,104,92
5,62,106,104
5,55,106,8
5,60,104,100
5,62,105,96
5,64,106,100
5,57,106,24
5,62,104,100
5,64,104,88
5,66,93,100
5,60,106,7496
5,67,106,192
5,65,106,188
5,60,106,372
5,67,106,184
5,65,106,192
5,58,106,1488
5,65,106,0
5,53,106,0
5,60,106,76
5,55,106,0
5,67,106,4
5,50,106,12
5,57,106,92
5,64,104,96
5,62,106,96
5,57,104,80
5,42,106,96
5,43,106,24
5,50,106,0
5,59,106,164
5,45,104,52
5,52,106,0
5,62,106,76
5,61,106,96
5,59,104,136
5,57,106,92
5,47,104,48
5,55,104,96
5,62,106,88
5,49,106,20
5,57,104,64
5,64,104,96
5,50,104,16
5,57,104,92
5,64,106,96
5,62,106,96
5,57,104,12
5,42,96,96
5,43,104,24
5,50,106,8
5,59,106,188
5,45,104,156
5,52,106,92
5,62,106,40
5,61,106,96
5,59,104,0
5,57,106,96
5,47,104,60
5,55,104,8
5,62,104,96
5,49,106,16
5,57,104,76
5,64,104,96
5,47,104,32
5,55,104,92
5,57,104,96
5,62,104,96
5,49,100,20
5,57,104,92
5,59,104,96
5,64,104,96
5,47,104,0
5,55,104,80
5,57,104,96
5,62,104,96
5,49,105,0
5,57,104,92
5,59,104,96
5,64,104,96
5,50,106,56
5,53,106,4
5,58,101,80
5,60,104,104
5,52,105,12
5,55,104,88
5,60,104,88
5,62,104,104
5,53,106,4
5,58,98,100
5,60,104,92
5,62,106,108
5,55,106,8
5,60,104,96
5,62,105,100
5,64,106,100
5,57,106,24
5,62,104,96
5,64,104,92
5,66,93,100
5,50,106,400
5,57,106,92
5,64,104,96
5,62,106,96
5,57,104,80
5,42,106,96
5,43,106,24
