track,note,velocity,time
1,67,69,1162
1,72,72,68
1,67,64,74
1,74,68,84
1,79,82,12
1,48,65,54
1,55,66,0
1,64,69,0
1,36,73,0
1,60,67,0
1,64,61,96
1,55,58,0
1,60,59,0
1,33,64,308
1,64,66,0
1,45,61,0
1,60,68,0
1,57,60,0
1,62,68,22
1,64,66,6
1,48,65,40
1,36,69,0
1,64,60,0
1,60,66,0
1,55,66,0
1,64,65,58
1,55,62,0
1,60,64,0
1,48,78,82
1,55,66,0
1,60,68,44
1,64,65,80
1,60,68,24
1,57,68,0
1,45,69,0
1,33,69,0
1,64,68,102
1,60,65,0
1,57,65,0
1,42,56,56
1,30,56,0
1,64,68,0
1,57,65,0
1,60,63,0
1,64,64,152
1,60,60,0
1,57,64,0
1,42,61,178
1,57,61,12
1,60,61,90
1,64,60,32
1,43,73,0
1,55,69,0
1,31,72,0
1,59,73,18
1,62,64,0
1,43,76,168
1,55,65,40
1,59,62,96
1,36,68,14
1,64,64,0
1,48,58,0
1,55,63,0
1,60,64,0
1,64,65,180
1,55,68,0
1,60,68,0
1,48,78,82
1,55,64,0
1,60,68,88
1,64,60,68
1,45,73,20
1,57,69,0
1,60,70,0
1,64,60,0
1,33,73,0
1,64,65,112
1,60,69,0
1,57,66,0
1,45,78,110
1,62,63,38
1,57,64,0
1,48,70,60
1,64,61,0
1,55,73,0
1,36,72,0
1,60,68,0
1,64,63,160
1,55,68,0
1,60,66,0
1,48,84,134
1,55,65,48
1,60,65,96
1,33,65,16
1,45,73,0
1,57,61,0
1,64,64,0
1,64,73,102
1,60,68,0
1,57,69,0
1,62,74,14
1,45,65,130
1,31,68,14
1,55,69,0
1,62,66,0
1,59,65,0
1,43,73,0
1,62,69,96
1,59,72,0
1,55,69,0
1,55,69,10
1,57,72,0
1,31,77,80
1,43,69,0
1,59,77,0
1,55,75,0
1,62,72,0
1,55,69,88
1,62,69,0
1,59,65,0
1,43,77,88
1,55,58,0
1,59,51,20
1,53,68,20
1,50,66,0
1,62,69,0
1,57,69,0
1,38,73,0
1,57,66,28
1,53,65,0
1,60,67,0
1,62,69,28
1,50,60,6
1,53,60,0
1,57,68,8
1,38,81,96
1,50,79,172
1,53,65,96
1,57,69,96
1,53,72,32
1,57,75,0
1,62,77,0
1,60,67,38
1,53,65,0
1,57,77,88
1,53,73,0
1,60,76,0
1,50,69,54
1,53,61,34
1,57,41,2
1,55,79,74
1,43,73,0
1,31,79,0
1,62,75,0
1,59,77,0
1,62,72,86
1,55,75,0
1,59,69,0
1,43,69,108
1,55,60,48
1,57,60,0
1,62,77,136
1,57,76,0
1,43,62,86
1,55,56,102
1,43,58,0
1,55,73,48
1,62,75,0
1,62,58,56
1,60,69,0
1,55,73,0
1,60,78,92
1,55,68,0
1,43,68,22
1,55,43,0
1,38,64,10
1,53,72,0
1,62,72,0
1,57,69,0
1,50,68,0
1,53,80,88
1,60,79,0
1,57,81,0
1,50,73,96
1,53,68,120
1,57,73,48
1,38,65,0
1,60,68,0
1,50,61,0
1,53,63,0
1,57,64,0
1,60,64,194
1,53,59,0
1,60,77,356
1,64,81,192
1,67,64,128
1,53,69,16
1,60,73,0
1,69,72,0
1,65,73,0
1,41,75,0
1,65,73,72
1,60,73,0
1,69,76,0
1,69,68,148
1,65,62,0
1,60,64,0
1,60,77,84
1,65,75,0
1,69,76,0
1,69,64,152
1,65,66,0
1,60,64,0
1,53,57,192
1,65,51,112
1,60,64,0
1,69,62,0
1,53,57,110
1,60,66,48
1,69,70,0
1,57,81,226
1,59,84,104
1,60,86,14
1,55,60,24
1,43,68,0
1,67,64,0
1,60,64,0
1,64,69,0
1,64,54,80
1,67,61,0
1,60,56,0
1,64,60,96
1,67,56,0
1,60,58,0
1,64,68,126
1,60,70,0
1,67,66,0
1,67,61,38
1,65,75,0
1,64,66,0
1,64,62,16
1,45,66,0
1,60,62,0
1,57,62,0
1,64,60,110
1,60,65,0
1,54,59,370
1,42,64,0
1,64,63,0
1,57,60,0
1,60,68,0
1,60,60,144
1,57,64,0
1,64,66,0
1,64,68,52
1,60,60,0
1,57,65,0
1,54,56,192
1,64,64,52
1,60,71,0
1,55,69,0
1,64,63,10
1,62,65,384
1,60,64,32
1,36,72,8
1,48,76,0
1,64,71,0
1,60,71,0
1,55,68,0
1,64,63,0
1,60,55,0
1,55,61,0
1,64,64,208
1,60,68,0
1,55,64,0
1,48,68,32
1,55,66,36
1,33,69,40
1,57,73,0
1,64,69,0
1,60,73,0
1,45,60,0
1,64,68,64
1,60,64,0
1,57,62,0
1,45,73,0
1,57,77,8
1,59,77,82
1,36,75,0
1,55,84,0
1,48,70,0
1,60,72,0
1,64,64,0
1,60,75,190
1,55,73,0
1,64,70,0
1,64,77,30
1,55,75,0
1,60,74,0
1,48,76,76
1,55,64,26
1,45,61,40
1,64,68,0
1,60,65,0
1,57,65,0
1,60,69,288
1,57,66,0
1,64,67,0
1,64,70,16
1,59,77,0
1,45,69,284
1,57,65,120
1,60,58,2
1,43,73,18
1,62,73,0
1,59,74,0
1,67,77,0
1,31,76,0
1,62,65,86
1,67,69,0
1,59,46,0
1,43,76,8
1,59,64,54
1,67,76,2
1,62,74,0
1,31,84,0
1,59,65,0
1,67,66,136
1,59,66,0
1,62,64,0
1,43,75,104
1,59,61,18
1,62,61,64
1,53,60,48
1,38,66,0
1,50,66,0
1,62,36,28
1,57,49,0
1,53,71,48
1,57,69,0
1,60,73,0
1,57,75,136
1,62,72,0
1,50,69,4
1,53,63,24
1,53,66,200
1,50,76,20
1,53,69,96
1,57,68,96
1,57,78,56
1,62,84,0
1,53,80,0
1,60,84,72
1,53,73,0
1,53,77,90
1,60,77,0
1,50,72,54
1,53,64,8
1,31,77,56
1,43,68,0
1,59,65,134
1,62,73,192
1,59,48,22
1,67,82,58
1,59,78,0
1,43,78,90
1,59,61,192
1,31,77,16
1,43,72,0
1,62,71,0
1,59,73,0
1,69,73,0
1,62,73,90
1,59,71,0
1,67,73,0
1,67,73,52
1,59,54,0
1,62,78,0
1,43,65,36
1,38,70,64
1,50,69,0
1,53,58,164
1,57,58,58
1,53,75,144
1,57,78,0
1,62,77,0
1,57,74,54
1,53,71,0
1,60,78,0
1,50,73,124
1,53,62,128
1,57,75,80
1,38,90,78
1,50,77,64
1,53,68,192
1,57,64,96
1,60,68,22
1,57,58,38
1,62,84,0
1,53,79,0
1,53,74,64
1,60,82,0
1,60,86,40
1,53,72,0
1,50,77,96
1,29,84,38
1,41,88,0
1,53,90,0
1,57,88,0
1,60,84,0
1,57,84,40
1,53,75,0
1,60,69,0
1,60,73,74
1,57,68,0
1,53,60,32
1,60,75,124
1,57,69,0
1,57,76,304
1,59,88,192
1,60,92,20
1,60,70,40
1,64,73,0
1,67,70,0
1,55,76,0
1,43,72,0
1,67,70,72
1,64,65,0
1,60,61,0
1,64,56,88
1,67,62,0
1,60,56,0
1,60,80,102
1,64,77,0
1,67,81,0
1,65,81,22
1,64,66,252
1,64,73,18
1,57,72,0
1,60,73,0
1,45,72,0
1,60,61,94
1,64,58,0
1,54,68,36
1,57,72,0
1,64,73,0
1,42,68,0
1,60,74,0
1,64,63,90
1,60,61,0
1,57,60,0
1,64,57,96
1,60,58,0
1,54,55,30
1,64,61,56
1,60,68,0
1,55,65,0
1,43,64,72
1,62,72,86
1,54,71,52
1,42,63,0
1,60,74,0
1,64,71,0
1,57,68,0
1,64,68,70
1,60,70,0
1,57,69,0
1,54,64,136
1,64,64,56
1,60,68,0
1,43,66,0
1,57,65,0
1,55,69,0
1,62,73,34
1,55,73,0
1,36,75,46
1,48,71,0
1,60,77,0
1,52,72,0
1,55,73,0
1,60,69,42
1,55,64,0
1,52,64,0
1,52,67,30
1,55,68,0
1,60,70,0
1,48,75,92
1,55,68,114
1,64,68,22
1,57,69,0
1,45,73,0
1,60,68,0
1,33,75,0
1,62,77,50
1,57,76,0
1,64,77,8
1,57,75,0
1,45,79,120
1,57,60,32
1,48,64,62
1,36,69,0
1,64,64,0
1,60,68,0
1,55,64,0
1,48,64,80
1,60,68,92
1,64,68,0
1,55,61,0
1,64,74,12
1,60,76,0
1,55,73,0
1,48,84,2
1,55,73,36
1,60,69,36
1,64,69,64
1,33,76,74
1,45,80,0
1,60,73,0
1,57,65,0
1,60,72,46
1,64,72,0
1,45,76,2
1,45,96,42
1,33,82,0
1,69,96,0
1,57,96,0
1,55,77,800
1,43,73,0
1,67,76,0
1,59,72,0
1,64,69,0
1,59,77,2
1,62,76,114
1,55,72,384
1,59,61,96
1,62,69,0
1,50,79,64
1,38,73,0
1,57,71,0
1,65,74,0
1,62,73,0
1,57,65,14
1,64,64,0
1,62,73,24
1,50,76,140
1,57,56,44
1,62,54,18
1,55,73,40
1,67,73,0
1,43,73,0
1,59,71,0
1,67,65,78
1,59,65,0
1,62,68,0
1,67,73,44
1,59,64,0
1,62,72,0
1,55,78,0
1,59,63,20
1,62,55,28
1,65,77,58
1,50,78,0
1,38,78,0
1,57,75,0
1,50,72,16
1,60,48,0
1,55,75,48
1,64,76,0
1,60,78,0
1,62,77,18
1,50,78,192
1,38,66,0
1,55,65,24
1,60,69,86
1,62,74,8
1,67,72,60
1,62,78,0
1,55,81,0
1,43,74,0
1,59,71,0
1,59,72,120
1,62,76,0
1,67,74,0
1,67,76,92
1,62,77,0
1,59,62,0
1,55,73,168
1,65,74,32
1,50,77,0
1,62,69,0
1,38,74,0
1,57,71,0
1,60,62,112
1,50,73,30
1,38,77,0
1,64,73,0
1,55,77,0
1,60,77,0
1,64,73,40
1,60,80,0
1,55,68,0
1,50,81,0
1,55,69,8
1,60,73,2
1,64,86,16
1,79,82,210
1,55,82,0
1,55,90,114
1,79,92,0
1,53,64,192
1,77,68,0
1,77,77,144
1,53,72,0
1,48,79,8
1,72,88,0
1,79,77,36
1,55,76,0
1,55,84,100
1,79,84,0
1,53,69,192
1,77,69,0
1,51,61,164
1,75,61,0
1,46,60,0
1,70,63,0
1,75,78,182
1,51,84,0
1,55,90,8
1,79,96,0
1,60,64,0
1,36,66,0
1,64,62,0
1,48,64,0
1,55,64,0
1,64,61,68
1,60,66,0
1,64,68,108
1,60,68,0
1,55,55,0
1,48,81,22
1,55,69,4
1,60,63,96
1,64,50,56
1,60,69,26
1,57,68,0
1,45,72,0
1,33,73,0
1,64,56,0
1,64,67,148
1,57,64,0
1,60,66,0
1,57,44,0
1,64,73,0
1,60,79,0
1,45,79,90
1,57,62,16
1,60,64,96
1,36,77,84
1,55,78,0
1,48,74,0
1,64,68,0
1,60,60,16
1,64,65,0
1,55,60,0
1,64,69,194
1,55,67,0
1,60,69,0
1,48,75,8
1,45,77,48
1,33,73,0
1,60,71,0
1,64,68,0
1,57,64,0
1,64,67,104
1,60,68,0
1,57,67,0
1,45,82,88
1,57,64,0
1,60,64,96
1,64,63,88
1,42,77,22
1,30,71,0
1,57,73,0
1,60,70,0
1,64,68,0
1,64,63,28
1,60,67,0
1,57,64,0
1,42,68,88
1,64,63,14
1,43,76,0
1,55,72,0
1,60,66,0
1,31,73,0
1,43,75,30
1,53,70,0
1,59,74,0
1,31,73,0
1,64,70,32
1,55,72,0
1,48,79,0
1,60,75,0
1,36,76,0
1,64,49,70
1,55,50,0
1,64,65,66
1,55,66,0
1,60,60,0
1,48,77,384
1,36,84,148
1,48,81,208
1,55,75,96
1,60,76,96
1,64,84,40
1,55,70,0
1,64,79,68
1,72,84,262
1,67,84,96
1,64,84,2
1,53,86,12312
1,65,96,0
1,60,93,0
1,69,84,0
1,41,80,0
1,65,92,126
1,69,86,0
1,60,86,0
1,65,73,80
1,60,75,0
1,69,73,0
1,60,92,192
1,65,92,0
1,69,81,0
1,53,76,192
1,60,73,10
1,41,90,86
1,53,73,110
1,60,60,170
1,69,64,24
1,60,64,0
1,57,96,234
1,59,92,192
1,60,93,182
1,55,79,24
1,64,78,0
1,67,77,0
1,60,78,0
1,43,75,0
1,67,77,42
1,60,71,0
1,64,74,0
1,64,59,76
1,67,62,0
1,60,58,0
1,60,80,118
1,64,77,0
1,67,79,0
1,65,81,288
1,64,63,10
1,64,77,164
1,45,73,0
1,57,76,0
1,60,77,0
1,33,75,0
1,64,64,72
1,60,61,0
1,45,92,88
1,57,71,12
1,60,65,96
1,64,64,36
1,64,77,18
1,60,77,0
1,57,78,0
1,54,73,0
1,42,72,0
1,64,68,48
1,57,64,0
1,60,64,0
1,64,75,90
1,57,68,0
1,60,65,0
1,54,64,64
1,57,66,8
1,64,71,8
1,43,81,46
1,60,76,0
1,55,78,0
1,31,77,0
1,64,79,0
1,43,80,32
1,31,79,0
1,53,81,0
1,59,79,0
1,55,73,146
1,60,73,68
1,48,84,4
1,64,86,0
1,36,81,0
1,55,88,0
1,64,59,56
1,60,63,0
1,55,68,0
1,55,75,216
1,64,73,0
1,60,77,0
1,48,90,156
1,55,73,16
1,60,67,72
1,64,65,50
1,45,79,12
1,64,73,0
1,57,81,0
1,60,80,0
1,33,77,0
1,64,72,114
1,57,73,0
1,60,71,0
1,45,96,72
1,57,69,12
1,60,61,84
1,62,69,128
1,64,68,0
1,30,69,0
1,42,87,0
1,57,80,0
1,64,72,132
1,60,75,0
1,57,72,0
1,42,68,86
1,43,81,8
1,64,72,0
1,55,78,0
1,60,76,0
1,31,79,0
1,43,81,40
1,31,77,0
1,53,80,0
1,59,73,0
1,42,84,48
1,30,72,0
1,60,74,0
1,64,69,0
1,57,69,0
1,64,61,58
1,64,74,154
1,57,73,0
1,60,77,0
1,42,95,102
1,57,77,6
1,60,65,40
1,64,61,62
1,64,76,16
1,43,84,0
1,55,82,0
1,31,82,0
1,60,74,0
1,31,80,34
1,43,77,0
1,59,78,0
1,53,80,0
1,55,68,146
1,60,65,96
1,48,80,14
1,60,69,0
1,64,82,0
1,55,75,0
1,36,80,0
1,60,69,30
1,55,68,104
1,64,88,192
1,55,68,36
1,60,66,96
1,64,68,8
1,55,64,22
1,64,84,2
1,60,64,96
1,55,72,0
1,60,68,50
1,60,69,26
1,45,64,0
1,33,68,0
1,64,65,0
1,57,64,0
1,57,64,38
1,45,69,40
1,57,68,164
1,64,68,0
1,60,61,0
1,45,93,0
1,57,76,10
1,60,68,90
1,64,75,6
1,57,74,0
1,60,78,0
1,42,77,0
1,30,71,0
1,57,69,208
1,60,76,0
1,64,69,0
1,42,72,10
1,60,75,46
1,43,81,0
1,55,75,0
1,64,75,0
1,31,79,0
1,59,81,40
1,53,79,0
1,43,88,112
1,53,69,18
1,59,68,84
1,60,66,10
1,64,75,16
1,48,82,0
1,55,84,0
1,36,78,0
1,64,73,102
1,55,80,0
1,60,80,0
1,48,90,38
1,55,72,4
1,60,76,28
1,64,71,0
1,64,74,12
1,57,77,0
1,45,78,0
1,60,73,0
1,33,79,0
1,57,75,56
1,64,75,0
1,60,74,0
1,42,89,234
1,30,68,0
1,57,76,0
1,64,78,0
1,60,77,0
1,43,81,14
1,64,69,0
1,60,73,0
1,31,77,0
1,55,72,0
1,59,78,64
1,53,77,0
1,36,72,60
1,48,80,0
1,67,76,0
1,60,79,0
1,64,81,0
1,60,73,478
1,64,73,0
1,67,73,0
1,48,84,48
1,48,61,206
1,48,73,62
1,55,69,330
1,60,62,192
1,64,62,384
1,67,64,192
1,72,76,164
1,71,72,168
1,69,65,384
1,48,75,26
1,55,62,124
1,60,62,192
1,62,68,124
1,64,68,384
1,67,71,192
1,71,79,16
1,72,78,8
1,67,72,260
1,60,72,0
1,64,69,0
1,48,68,0
1,36,72,0
1,55,63,754
1,60,73,192
1,55,70,86
1,60,68,88
1,67,78,22
1,64,67,288
1,55,69,10
1,60,76,96
1,48,69,134
1,64,76,132
1,48,68,128
1,55,66,80
1,60,77,0
1,36,93,74
1,55,60,190
1,48,86,2
1,55,60,192
1,60,69,32
1,55,65,0
1,48,73,76
1,55,73,192
1,60,72,22
1,36,90,50
1,55,69,186
1,48,82,28
1,55,69,96
1,60,72,42
