track,note,velocity,time
2,38,109,6794
2,38,0,240
2,38,100,48
2,38,0,48
2,38,109,48
2,38,0,238
2,26,60,2
2,29,91,48
2,26,0,4
2,30,82,44
2,29,0,10
2,31,100,38
2,30,0,2
2,31,0,314
2,31,82,20
2,31,0,34
2,31,100,14
2,33,109,192
2,31,0,20
2,33,0,162
2,34,100,10
2,34,0,326
2,34,82,10
2,34,0,42
2,34,101,6
2,34,0,384
2,33,100,0
2,40,100,240
2,33,0,2
2,47,100,94
2,40,0,8
2,47,0,36
2,45,109,4
2,40,109,192
2,45,0,8
2,40,0,128
2,33,73,8
2,38,101,48
2,33,0,2
2,38,0,308
2,38,91,26
2,38,0,30
2,38,100,18
2,38,0,140
2,28,100,4
2,28,0,38
2,28,82,58
2,29,91,48
2,28,0,12
2,29,0,36
2,33,100,0
2,31,100,48
2,33,0,6
2,31,0,322
2,31,91,8
2,31,0,34
2,31,100,14
2,31,0,140
2,33,91,4
2,33,0,42
2,33,91,6
2,33,0,188
2,34,105,4
2,34,0,324
2,34,91,12
2,34,0,38
2,34,91,10
2,46,100,96
2,34,0,126
2,46,0,16
2,34,91,2
2,28,73,96
2,34,0,10
2,33,91,38
2,28,0,6
2,33,0,180
2,40,100,6
2,40,0,132
2,47,91,12
2,47,0,18
2,47,73,6
2,45,100,24
2,47,0,12
2,45,0,366
2,38,104,6
2,38,0,236
2,38,100,52
2,38,0,30
2,38,100,66
2,31,105,384
2,38,0,14
2,31,0,218
2,31,109,56
2,31,0,34
2,31,105,62
2,33,105,192
2,31,0,14
2,34,105,178
2,33,0,4
2,34,0,244
2,34,95,40
2,34,0,30
2,34,105,66
2,33,100,384
2,34,0,16
2,33,0,228
2,33,109,44
2,33,0,32
2,33,100,64
2,33,0,378
2,38,105,6
2,38,0,236
2,38,100,52
2,38,0,30
2,38,101,66
2,31,105,384
2,38,0,14
2,31,0,218
2,31,109,56
2,31,0,34
2,31,105,62
2,33,104,192
2,31,0,14
2,34,105,178
2,33,0,4
2,34,0,244
2,34,99,40
2,34,0,30
2,34,105,66
2,33,100,384
2,34,0,16
2,33,0,228
2,33,101,44
2,33,0,32
2,33,101,64
2,33,0,378
2,38,105,6
2,38,0,236
2,38,100,52
2,38,0,30
2,38,100,66
2,31,105,384
2,38,0,14
2,31,0,218
2,31,105,56
2,31,0,34
2,31,109,62
2,33,105,192
2,31,0,14
2,34,105,178
2,33,0,4
2,34,0,244
2,34,101,40
2,34,0,30
2,34,105,66
2,33,100,384
2,34,0,16
2,33,0,228
2,33,101,44
2,33,0,32
2,33,101,64
2,33,0,378
2,38,104,6
2,38,0,236
2,38,100,52
2,38,0,30
2,38,101,66
2,31,105,384
2,38,0,14
2,31,0,218
2,31,109,56
2,31,0,34
2,31,105,62
2,33,109,192
2,31,0,14
2,34,105,178
2,33,0,4
2,34,0,244
2,34,101,40
2,34,0,30
2,34,105,66
2,33,101,384
2,34,0,16
2,33,0,228
2,33,99,44
2,33,0,32
2,33,101,64
2,33,0,378
2,38,100,6
2,38,0,322
2,38,82,14
2,38,0,34
2,38,101,14
2,38,0,230
2,26,64,10
2,26,0,42
2,29,82,6
2,30,82,48
2,29,0,8
2,30,0,38
2,31,100,2
2,31,0,320
2,31,82,16
2,31,0,36
2,31,100,12
2,33,100,192
2,31,0,12
2,34,105,180
2,33,0,2
2,34,0,324
2,34,91,10
2,34,0,40
2,34,100,8
2,34,0,380
2,33,100,4
2,33,0,326
2,33,82,10
2,33,0,38
2,33,100,10
2,38,100,384
2,33,0,2
2,38,0,320
2,38,82,14
2,38,0,34
2,38,105,14
2,38,0,230
2,26,64,10
2,26,0,42
2,29,82,6
2,30,82,48
2,29,0,8
2,30,0,38
2,31,100,2
2,31,0,320
2,31,82,16
2,31,0,36
2,31,100,12
2,33,100,192
2,31,0,12
2,34,105,180
2,33,0,2
2,34,0,324
2,34,91,10
2,34,0,40
2,34,100,8
2,34,0,380
2,33,100,4
2,33,0,326
2,33,82,10
2,33,0,38
2,33,100,10
2,38,105,384
2,33,0,2
2,38,0,316
2,38,91,18
2,38,0,36
2,38,100,12
2,31,104,384
2,38,0,12
2,31,0,304
2,31,91,20
2,31,0,38
2,31,100,10
2,31,0,192
2,33,100,0
2,34,100,192
2,33,0,12
2,34,0,310
2,34,82,14
2,34,0,40
2,34,100,8
2,33,100,384
2,34,0,4
2,33,0,328
2,33,91,4
2,33,0,38
2,33,101,10
2,33,0,374
2,38,104,10
2,38,0,322
2,38,100,14
2,38,0,36
2,38,100,12
2,38,0,322
2,38,73,14
2,38,0,40
2,43,105,8
2,43,0,128
2,43,100,16
2,43,0,40
2,38,100,8
2,38,0,118
2,38,100,26
2,38,0,44
2,34,82,4
2,34,0,44
2,38,82,4
2,38,0,38
2,34,91,10
2,34,0,38
2,31,100,58
2,31,0,192
2,34,100,0
2,34,0,324
2,34,91,12
2,34,0,40
2,34,91,8
2,33,100,384
2,34,0,4
2,33,0,318
2,33,82,14
2,33,0,38
2,33,100,10
2,33,0,366
2,38,100,18
2,38,0,310
2,38,101,26
2,38,0,38
2,26,100,58
2,26,0,38
2,26,100,58
2,26,0,44
2,29,82,4
2,29,0,48
2,29,100,96
2,31,91,48
2,29,0,6
2,31,0,314
2,31,101,16
2,31,0,34
2,31,105,14
2,33,105,192
2,31,0,8
2,34,105,184
2,33,0,2
2,34,0,214
2,34,91,24
2,34,0,22
2,34,91,74
2,34,0,40
2,34,100,8
2,34,0,366
2,33,100,18
2,33,0,370
2,33,100,14
2,33,0,186
2,33,101,6
2,33,0,188
2,38,101,4
2,38,0,240
2,38,100,48
2,38,0,48
2,38,101,48
2,38,0,238
2,26,60,2
2,29,91,48
2,26,0,4
2,30,82,44
2,29,0,10
2,31,100,38
2,30,0,2
2,31,0,314
2,31,82,20
2,31,0,34
2,31,100,14
2,33,104,192
2,31,0,20
2,33,0,162
2,34,100,10
2,34,0,326
2,34,82,10
2,34,0,42
2,34,91,6
2,34,0,384
2,33,100,0
2,40,100,240
2,33,0,2
2,47,100,94
2,40,0,8
2,47,0,36
2,45,101,4
2,40,101,192
2,45,0,8
2,40,0,128
2,33,73,8
2,38,91,48
2,33,0,2
2,38,0,308
2,38,91,26
2,38,0,30
2,38,100,18
2,38,0,140
2,28,100,4
2,28,0,38
2,28,82,58
2,29,91,48
2,28,0,12
2,29,0,36
2,33,100,0
2,31,100,48
2,33,0,6
2,31,0,322
2,31,91,8
2,31,0,34
2,31,100,14
2,31,0,140
2,33,91,4
2,33,0,42
2,33,91,6
2,33,0,188
2,34,101,4
2,34,0,324
2,34,91,12
2,34,0,38
2,34,91,10
2,46,100,96
2,34,0,126
2,46,0,16
2,34,91,2
2,28,73,96
2,34,0,10
2,33,91,38
2,28,0,6
2,33,0,180
2,40,100,6
2,40,0,132
2,47,91,12
2,47,0,18
2,47,73,6
2,45,100,24
2,47,0,12
2,45,0,366
2,38,101,6
2,38,0,256
2,38,101,32
2,38,0,46
2,38,105,50
2,31,100,384
2,38,0,4
2,31,0,318
2,31,91,14
2,31,0,38
2,31,100,10
2,31,0,128
2,31,91,16
2,31,0,40
2,33,101,8
2,33,0,130
2,33,100,14
2,34,91,48
2,33,0,6
2,34,0,324
2,34,100,6
2,34,0,40
2,34,91,8
2,34,0,358
2,33,105,26
2,45,100,336
2,33,0,2
2,45,0,32
2,45,100,14
2,45,0,140
2,40,105,4
2,33,91,48
2,40,0,2
2,33,0,188
2,38,100,2
2,38,0,316
2,38,100,20
2,38,0,38
2,38,100,10
2,26,73,240
2,38,0,4
2,29,91,44
2,26,0,2
2,30,73,46
2,29,0,2
2,31,100,46
2,30,0,2
2,31,0,324
2,31,100,10
2,31,0,34
2,31,100,14
2,33,104,192
2,31,0,12
2,34,100,180
2,33,0,4
2,34,0,320
2,34,91,12
2,34,0,38
2,34,100,10
2,34,0,374
2,33,100,10
2,40,100,192
2,33,0,4
2,45,101,188
2,40,0,2
2,40,100,190
2,45,0,12
2,40,0,180
2,38,91,0
2,38,0,212
2,33,100,28
2,33,0,18
2,36,91,30
2,36,0,18
2,33,100,30
2,33,0,16
2,38,104,32
2,38,0,100
2,28,100,44
2,28,0,30
2,29,91,66
2,29,0,26
2,29,91,70
2,29,0,28
2,31,104,20
2,31,0,220
2,31,101,20
2,31,0,42
2,31,104,54
2,31,0,26
2,31,106,22
2,31,0,188
2,33,100,4
2,33,0,188
2,34,105,4
2,34,0,236
2,46,105,4
2,46,0,82
2,34,91,14
2,34,0,36
2,34,91,12
2,34,0,224
2,34,100,16
2,34,0,86
2,34,91,10
2,34,0,44
2,33,100,4
2,33,0,140
2,45,101,4
2,33,100,96
2,45,0,8
2,33,0,180
2,40,104,4
2,40,0,134
2,45,105,10
2,45,0,180
2,38,100,12
2,38,0,264
2,38,104,24
2,38,0,78
2,38,104,18
2,38,0,216
2,28,91,24
2,28,0,48
2,29,91,0
2,30,91,48
2,29,0,8
2,31,100,40
2,30,0,2
2,31,0,234
2,43,105,4
2,43,0,94
2,28,91,2
2,31,100,48
2,28,0,12
2,31,0,116
2,31,91,16
2,33,105,48
2,31,0,4
2,33,0,128
2,33,100,12
2,33,0,48
2,34,105,0
2,34,0,230
2,46,102,10
2,46,0,42
2,34,91,54
2,34,0,38
2,34,100,10
2,34,0,326
2,28,91,10
2,28,0,48
2,33,91,0
2,33,0,332
2,40,100,4
2,45,100,48
2,40,0,4
2,40,105,140
2,45,0,16
2,40,0,78
2,33,91,2
2,36,104,48
2,33,0,6
2,33,91,42
2,36,0,10
2,33,0,34
2,38,105,4
2,38,0,318
2,38,100,18
2,38,0,36
2,38,101,12
2,28,73,240
2,38,0,2
2,28,0,44
2,29,91,2
2,30,91,48
2,29,0,8
2,30,0,40
2,31,100,0
2,43,100,144
2,31,0,6
2,33,100,42
2,43,0,2
2,33,0,140
2,45,100,2
2,34,100,48
2,45,0,4
2,46,91,140
2,34,0,48
2,36,82,0
2,46,0,16
2,36,0,118
2,36,91,10
2,36,0,48
2,34,104,0
2,34,0,238
2,46,103,2
2,46,0,38
2,34,91,58
2,34,0,40
2,34,100,8
2,34,0,320
2,34,82,16
2,33,100,48
2,34,0,4
2,33,0,234
2,45,103,2
2,40,103,144
2,45,0,2
2,38,91,94
2,40,0,10
2,33,100,134
2,38,0,4
2,33,0,138
2,38,100,2
2,38,0,226
2,38,100,62
2,38,0,40
2,38,104,56
2,38,0,230
2,28,91,10
2,29,100,48
2,28,0,8
2,30,100,40
2,29,0,4
2,31,100,44
2,30,0,2
2,31,0,322
2,31,91,12
2,31,0,36
2,31,104,12
2,31,0,132
2,31,100,12
2,31,0,44
2,33,100,4
2,33,0,130
2,33,100,14
2,33,0,44
2,34,103,4
2,34,0,222
2,46,101,18
2,46,0,38
2,34,91,58
2,34,0,42
2,34,100,6
2,34,0,320
2,34,91,16
2,33,103,48
2,34,0,4
2,33,0,182
2,40,103,6
2,40,0,142
2,43,100,2
2,43,0,22
2,44,100,2
2,44,0,24
2,45,91,0
2,45,0,22
2,40,105,74
2,40,0,134
2,33,91,10
2,33,0,46
2,36,100,2
2,36,0,96
2,38,100,0
2,38,0,322
2,38,100,14
2,38,0,36
2,38,103,12
2,38,0,236
2,28,82,4
2,28,0,40
2,29,100,8
2,30,82,48
2,29,0,2
2,30,0,46
2,31,100,0
2,31,0,66
2,31,91,78
2,31,0,48
2,33,109,0
2,33,0,52
2,33,100,92
2,34,109,48
2,33,0,4
2,34,0,40
2,34,100,100
2,34,0,40
2,43,100,8
2,43,0,168
2,34,103,24
2,34,0,64
2,46,104,176
2,46,0,32
2,34,100,64
2,34,0,36
2,34,100,12
2,34,0,348
2,33,102,36
2,40,103,192
2,33,0,2
2,40,0,140
2,43,100,2
2,43,0,14
2,44,100,10
2,45,91,24
2,44,0,2
2,33,100,190
2,45,0,4
2,33,0,176
2,38,100,12
2,38,0,228
2,50,99,12
2,50,0,22
2,38,99,74
2,38,0,36
2,38,99,12
2,28,82,240
2,38,0,10
2,29,82,38
2,28,0,2
2,30,100,46
2,29,0,12
2,30,0,30
2,31,100,6
2,31,0,222
2,43,99,18
2,43,0,22
2,31,91,74
2,31,0,34
2,31,100,14
2,33,100,192
2,31,0,4
2,33,0,174
2,34,99,14
2,34,0,312
2,34,100,24
2,34,0,36
2,34,100,12
2,34,0,234
2,46,99,6
2,46,0,38
2,34,100,58
2,34,0,48
2,45,100,0
2,45,0,132
2,45,100,12
2,40,91,48
2,45,0,12
2,40,0,120
2,40,91,12
2,40,0,48
2,33,91,0
2,33,0,190
2,45,99,2
2,45,0,188
2,38,99,4
2,38,0,212
2,50,100,28
2,50,0,34
2,38,99,62
2,38,0,48
2,28,91,48
2,28,0,36
2,28,82,12
2,29,64,48
2,28,0,12
2,29,0,22
2,29,73,14
2,29,0,88
2,30,100,8
2,31,99,96
2,30,0,4
2,31,0,210
2,43,99,26
2,43,0,34
2,31,100,62
2,31,0,40
2,31,91,8
2,33,99,192
2,31,0,10
2,33,0,172
2,34,100,10
2,34,0,224
2,46,100,16
2,46,0,32
2,34,99,64
2,34,0,34
2,34,100,14
2,34,0,220
2,46,99,20
2,46,0,30
2,34,91,66
2,34,0,34
2,33,100,14
2,33,0,180
2,45,99,12
2,45,0,144
2,45,99,48
2,45,0,34
2,48,99,30
2,48,0,28
2,52,99,36
2,52,0,30
2,57,100,34
2,38,100,192
2,57,0,4
2,38,0,318
2,38,100,14
2,38,0,38
2,38,99,10
2,38,0,46
2,29,100,98
2,29,0,32
2,33,100,64
2,29,91,48
2,33,0,2
2,33,100,46
2,29,0,4
2,33,0,38
2,31,100,6
2,31,0,74
2,31,100,22
2,31,0,40
2,31,99,104
2,31,0,32
2,31,100,64
2,31,0,30
2,31,99,18
2,31,0,186
2,33,99,6
2,34,99,192
2,33,0,2
2,34,0,92
2,46,100,2
2,46,0,42
2,34,99,102
2,34,0,38
2,34,100,58
2,34,0,32
2,34,91,16
2,34,0,322
2,34,91,14
2,34,0,44
2,33,100,4
2,33,0,236
2,45,99,4
2,33,91,144
2,45,0,20
2,33,0,360
2,50,100,4
2,45,100,336
2,50,0,2
2,50,100,46
2,45,0,2
2,50,0,42
2,28,91,100
2,28,0,34
2,29,99,62
2,29,0,34
2,29,100,62
2,29,0,48
2,31,100,0
2,31,0,78
2,43,99,18
2,43,0,58
2,33,99,86
2,33,0,56
2,34,99,88
2,34,0,78
2,36,100,114
2,34,91,192
2,36,0,2
2,34,0,46
2,46,99,48
2,46,0,54
2,34,91,90
2,34,0,58
2,46,99,86
2,46,0,62
2,41,82,130
2,41,0,170
2,45,99,22
2,40,100,240
2,45,0,24
2,33,91,216
2,40,0,2
2,33,0,286
2,38,100,0
2,38,0,322
2,38,100,14
2,38,0,38
2,38,99,10
2,38,0,46
2,29,100,98
2,29,0,32
2,33,100,64
2,29,91,48
2,33,0,2
2,33,100,46
2,29,0,4
2,33,0,38
2,31,100,6
2,31,0,74
2,31,100,22
2,31,0,40
2,31,99,104
2,31,0,32
2,31,100,64
2,31,0,30
2,31,99,18
2,31,0,186
2,33,99,6
2,34,99,192
2,33,0,2
2,34,0,92
2,46,100,2
2,46,0,42
2,34,99,102
2,34,0,38
2,34,100,58
2,34,0,32
2,34,91,16
2,34,0,322
2,34,91,14
2,34,0,44
2,33,100,4
2,33,0,236
2,45,99,4
2,33,91,144
2,45,0,20
2,33,0,360
2,50,100,4
2,45,100,336
2,50,0,2
2,50,100,46
2,45,0,2
2,50,0,42
2,28,91,100
2,28,0,34
2,29,99,62
2,29,0,34
2,29,100,62
2,29,0,48
2,31,100,0
2,31,0,78
2,43,99,18
2,43,0,58
2,33,99,86
2,33,0,56
2,34,99,88
2,34,0,78
2,36,100,114
2,34,91,192
2,36,0,2
2,34,0,46
2,46,99,48
2,46,0,54
2,34,91,90
2,34,0,58
2,46,99,86
2,46,0,62
2,41,82,130
2,41,0,170
2,45,99,22
2,40,100,240
2,45,0,24
2,33,91,216
