track,note,velocity,time
1,55,127,0
1,55,0,192
1,55,127,0
1,55,0,192
1,55,127,0
1,55,0,192
1,55,127,0
1,55,0,192
1,55,127,0
1,55,0,192
1,62,127,0
1,62,0,192
1,64,127,0
1,64,0,192
1,60,127,192
1,60,0,192
1,60,127,0
1,60,0,96
1,60,127,0
1,60,0,96
1,60,127,0
1,60,0,96
1,62,127,0
1,62,0,96
1,64,127,0
1,64,0,192
1,67,127,0
1,67,0,192
1,59,127,192
1,59,0,192
1,60,127,0
1,60,0,192
1,60,127,0
1,60,0,64
1,60,127,0
1,60,0,64
1,57,127,0
1,57,0,64
1,55,127,0
1,55,0,192
1,64,127,576
1,64,0,192
1,64,127,0
1,64,0,192
1,60,127,0
1,60,0,192
1,55,127,0
1,55,0,192
1,55,127,0
1,55,0,192
1,55,127,0
1,55,0,192
1,55,127,0
1,55,0,192
1,55,127,0
1,55,0,192
1,64,127,0
1,64,0,192
1,62,127,0
1,62,0,64
1,64,127,0
1,64,0,64
1,62,127,0
1,62,0,64
1,60,127,0
1,60,0,192
1,60,127,0
1,60,0,192
1,60,127,0
1,60,0,192
1,60,127,0
1,60,0,96
1,62,127,0
1,62,0,96
1,64,127,0
1,64,0,192
1,67,127,0
1,67,0,96
1,69,127,0
1,69,0,96
1,59,127,192
1,59,0,192
1,60,127,0
1,60,0,192
1,60,127,0
1,60,0,64
1,60,127,0
1,60,0,64
1,57,127,0
1,57,0,64
1,55,127,0
1,55,0,192
1,64,127,1344
1,64,0,576
1,62,127,0
1,62,0,192
1,60,127,0
1,60,0,192
1,60,127,0
1,60,0,192
1,64,127,0
1,64,0,192
1,60,127,0
1,60,0,192
1,60,127,0
1,60,0,96
1,60,127,0
1,60,0,96
1,60,127,0
1,60,0,96
1,62,127,0
1,62,0,96
1,64,127,0
1,64,0,64
1,64,127,0
1,64,0,64
1,65,127,0
1,65,0,64
1,64,127,0
1,64,0,192
1,64,127,576
1,64,0,192
1,67,127,0
1,67,0,96
1,69,127,0
1,69,0,96
1,67,127,0
1,67,0,192
1,67,127,0
1,67,0,192
1,64,127,0
1,64,0,64
1,64,127,0
1,64,0,64
1,62,127,0
1,62,0,64
1,60,127,0
1,60,0,192
1,60,127,0
1,60,0,192
1,60,127,576
1,60,0,192
1,62,127,0
1,62,0,192
1,60,127,0
1,60,0,384
1,72,127,384
1,72,0,1152
1,71,127,0
1,71,0,192
1,69,127,0
1,69,0,192
1,71,127,0
1,71,0,64
1,69,127,0
1,69,0,64
1,71,127,0
1,71,0,64
1,67,127,384
1,67,0,96
1,69,127,0
1,69,0,96
1,71,127,0
1,71,0,192
1,71,127,0
1,71,0,192
1,72,127,0
1,72,0,192
1,67,127,0
1,67,0,192
1,69,127,0
1,69,0,384
1,67,127,192
1,67,0,96
1,65,127,0
1,65,0,96
1,64,127,0
1,64,0,192
1,65,127,0
1,65,0,192
1,64,127,0
1,64,0,96
1,62,127,0
1,62,0,96
1,62,127,0
1,62,0,96
1,62,127,0
1,62,0,96
1,60,127,0
1,60,0,384
1,72,127,384
1,72,0,1152
1,74,127,0
1,74,0,192
1,69,127,0
1,69,0,192
1,71,127,0
1,71,0,64
1,71,127,0
1,71,0,64
1,69,127,0
1,69,0,64
1,67,127,0
1,67,0,192
1,67,127,192
1,67,0,96
1,69,127,0
1,69,0,96
1,71,127,0
1,71,0,96
1,71,127,0
1,71,0,96
1,71,127,0
1,71,0,192
1,72,127,0
1,72,0,192
1,67,127,0
1,67,0,192
1,69,127,0
1,69,0,192
1,67,127,384
1,67,0,96
1,65,127,0
1,65,0,96
1,64,127,0
1,64,0,192
1,65,127,0
1,65,0,192
1,64,127,0
1,64,0,192
1,62,127,0
1,62,0,96
1,62,127,0
1,62,0,96
1,60,127,0
1,60,0,384
1,64,127,192
1,64,0,96
1,62,127,0
1,62,0,96
1,60,127,0
1,60,0,192
1,64,127,0
1,64,0,192
1,62,127,0
1,62,0,96
1,60,127,0
1,60,0,96
1,60,127,0
1,60,0,192
1,55,127,768
1,55,0,192
1,55,127,0
1,55,0,192
1,55,127,0
1,55,0,192
1,55,127,0
1,55,0,192
1,55,127,0
1,55,0,192
1,62,127,0
1,62,0,192
1,64,127,0
1,64,0,192
1,60,127,192
1,60,0,192
1,60,127,0
1,60,0,96
1,60,127,0
1,60,0,96
1,60,127,0
1,60,0,96
1,62,127,0
1,62,0,96
1,64,127,0
1,64,0,192
1,67,127,0
1,67,0,192
1,59,127,192
1,59,0,192
1,60,127,0
1,60,0,192
1,60,127,0
1,60,0,64
1,60,127,0
1,60,0,64
1,57,127,0
1,57,0,64
1,55,127,0
1,55,0,192
1,64,127,576
1,64,0,192
1,64,127,0
1,64,0,192
1,60,127,0
1,60,0,192
1,55,127,0
1,55,0,192
1,55,127,0
1,55,0,192
1,55,127,0
1,55,0,192
1,55,127,0
1,55,0,192
1,55,127,0
1,55,0,192
1,64,127,0
1,64,0,192
1,62,127,0
1,62,0,64
1,64,127,0
1,64,0,64
1,62,127,0
1,62,0,64
1,60,127,0
1,60,0,192
1,60,127,0
1,60,0,192
1,60,127,0
1,60,0,192
1,60,127,0
1,60,0,96
1,62,127,0
1,62,0,96
1,64,127,0
1,64,0,192
1,67,127,0
1,67,0,96
1,69,127,0
1,69,0,96
1,59,127,192
1,59,0,192
1,60,127,0
1,60,0,192
1,60,127,0
1,60,0,64
1,60,127,0
1,60,0,64
1,57,127,0
1,57,0,64
1,55,127,0
1,55,0,192
1,64,127,1344
1,64,0,576
1,62,127,0
1,62,0,192
1,60,127,0
1,60,0,192
1,60,127,0
1,60,0,192
1,64,127,0
1,64,0,192
1,60,127,0
1,60,0,192
1,60,127,0
1,60,0,96
1,60,127,0
1,60,0,96
1,60,127,0
1,60,0,96
1,62,127,0
1,62,0,96
1,64,127,0
1,64,0,64
1,64,127,0
1,64,0,64
1,65,127,0
1,65,0,64
1,64,127,0
1,64,0,192
1,64,127,576
1,64,0,192
1,67,127,0
1,67,0,96
1,69,127,0
1,69,0,96
1,67,127,0
1,67,0,192
1,67,127,0
1,67,0,192
1,64,127,0
1,64,0,64
1,64,127,0
1,64,0,64
1,62,127,0
1,62,0,64
1,60,127,0
1,60,0,192
1,60,127,0
1,60,0,192
1,60,127,576
1,60,0,192
1,62,127,0
1,62,0,192
1,60,127,0
1,60,0,384
1,72,127,384
1,72,0,1152
1,71,127,0
1,71,0,192
1,69,127,0
1,69,0,192
1,71,127,0
1,71,0,64
1,69,127,0
1,69,0,64
1,71,127,0
1,71,0,64
1,67,127,384
1,67,0,96
1,69,127,0
1,69,0,96
1,71,127,0
1,71,0,192
1,71,127,0
1,71,0,192
1,72,127,0
1,72,0,192
1,67,127,0
1,67,0,192
1,69,127,0
1,69,0,384
1,67,127,192
1,67,0,96
1,65,127,0
1,65,0,96
1,64,127,0
1,64,0,192
1,65,127,0
1,65,0,192
1,64,127,0
1,64,0,96
1,62,127,0
1,62,0,96
1,62,127,0
1,62,0,96
1,62,127,0
1,62,0,96
1,60,127,0
1,60,0,384
1,72,127,384
1,72,0,1152
1,74,127,0
1,74,0,192
1,69,127,0
1,69,0,192
1,71,127,0
1,71,0,64
1,71,127,0
1,71,0,64
1,69,127,0
1,69,0,64
1,67,127,0
1,67,0,192
1,67,127,192
1,67,0,96
1,69,127,0
1,69,0,96
1,71,127,0
1,71,0,96
1,71,127,0
1,71,0,96
1,71,127,0
1,71,0,192
1,72,127,0
1,72,0,192
1,67,127,0
1,67,0,192
1,69,127,0
1,69,0,192
1,67,127,384
1,67,0,96
1,65,127,0
1,65,0,96
1,64,127,0
1,64,0,192
1,65,127,0
1,65,0,192
1,64,127,0
1,64,0,192
1,71,127,0
1,71,0,192
1,72,127,0
1,72,0,384
1,72,127,0
1,72,0,192
1,72,127,0
1,72,0,96
1,72,127,0
1,72,0,96
1,72,127,192
1,72,0,192
1,72,127,0
1,72,0,96
1,71,127,0
1,71,0,96
1,72,127,0
1,72,0,192
1,72,127,0
1,72,0,192
1,72,127,576
1,72,0,1152
1,71,127,0
1,71,0,192
1,69,127,0
1,69,0,192
1,71,127,0
1,71,0,64
1,69,127,0
1,69,0,64
1,71,127,0
1,71,0,64
1,67,127,384
1,67,0,96
1,69,127,0
1,69,0,96
1,71,127,0
1,71,0,192
1,71,127,0
1,71,0,192
1,72,127,0
1,72,0,192
1,67,127,0
1,67,0,192
1,69,127,0
1,69,0,384
1,67,127,192
1,67,0,96
1,65,127,0
1,65,0,96
1,64,127,0
1,64,0,192
1,65,127,0
1,65,0,192
1,64,127,0
1,64,0,96
1,62,127,0
1,62,0,96
1,62,127,0
1,62,0,96
1,62,127,0
1,62,0,96
1,60,127,0
1,60,0,384
1,72,127,384
1,72,0,1152
1,74,127,0
1,74,0,192
1,69,127,0
1,69,0,192
1,71,127,0
1,71,0,64
1,71,127,0
1,71,0,64
1,69,127,0
1,69,0,64
1,67,127,0
1,67,0,192
1,67,127,192
1,67,0,96
1,69,127,0
1,69,0,96
1,71,127,0
1,71,0,96
1,71,127,0
1,71,0,96
1,71,127,0
1,71,0,192
1,72,127,0
1,72,0,192
1,67,127,0
1,67,0,192
1,69,127,0
1,69,0,192
1,67,127,384
1,67,0,96
1,65,127,0
1,65,0,96
1,64,127,0
1,64,0,192
1,65,127,0
1,65,0,192
1,64,127,0
1,64,0,192
1,71,127,0
1,71,0,96
1,71,127,0
1,71,0,96
1,69,127,0
1,69,0,576
1,72,127,192
1,72,0,1152
1,71,127,0
1,71,0,192
1,69,127,0
1,69,0,192
1,71,127,0
1,71,0,64
1,69,127,0
1,69,0,64
1,71,127,0
1,71,0,64
1,67,127,384
1,67,0,96
1,69,127,0
1,69,0,96
1,71,127,0
1,71,0,192
1,71,127,0
1,71,0,192
1,72,127,0
1,72,0,192
1,67,127,0
1,67,0,192
1,69,127,0
1,69,0,384
1,67,127,192
1,67,0,96
1,65,127,0
1,65,0,96
1,64,127,0
1,64,0,192
1,65,127,0
1,65,0,192
1,64,127,0
1,64,0,96
1,62,127,0
1,62,0,96
1,62,127,0
1,62,0,96
1,62,127,0
1,62,0,96
1,60,127,0
1,60,0,384
1,72,127,384
1,72,0,1152
1,74,127,0
1,74,0,192
1,69,127,0
1,69,0,192
1,71,127,0
1,71,0,64
1,71,127,0
1,71,0,64
1,69,127,0
1,69,0,64
1,67,127,0
1,67,0,192
1,67,127,192
1,67,0,96
1,69,127,0
1,69,0,96
1,71,127,0
1,71,0,96
1,71,127,0
1,71,0,96
1,71,127,0
1,71,0,192
1,72,127,0
1,72,0,192
1,67,127,0
1,67,0,192
1,69,127,0
1,69,0,192
1,67,127,384
1,67,0,96
1,65,127,0
1,65,0,96
1,64,127,0
1,64,0,192
1,65,127,0
1,65,0,192
1,64,127,0
1,64,0,192
1,71,127,0
1,71,0,96
1,71,127,0
1,71,0,96
1,69,127,0
1,69,0,576
2,48,95,0
2,48,0,36
2,48,107,60
2,48,0,180
2,48,87,12
2,48,0,33
2,48,100,63
2,48,0,33
2,48,107,63
2,48,0,168
2,48,102,24
2,48,0,24
2,55,98,72
2,55,0,36
2,55,105,60
2,55,0,176
2,55,98,16
2,55,0,38
2,55,105,58
2,55,0,38
2,55,100,58
2,55,0,38
2,55,107,58
2,50,98,96
2,55,0,11
2,50,0,37
2,45,98,48
2,45,0,35
2,45,105,61
2,40,85,192
2,45,0,8
2,45,102,88
2,40,0,16
2,45,0,19
2,45,100,61
2,45,0,196
2,45,102,0
2,45,0,34
2,52,91,58
2,52,0,35
2,52,93,61
2,52,0,192
2,47,82,0
2,47,0,60
2,55,113,36
2,55,0,78
2,57,91,18
2,57,0,75
2,58,105,21
2,58,0,96
2,59,105,0
2,59,0,52
2,53,100,44
2,53,0,38
2,53,105,58
2,48,87,192
2,53,0,4
2,53,98,92
2,48,0,6
2,53,0,27
2,53,100,63
2,48,89,192
2,53,0,1
2,48,0,95
2,53,102,0
2,53,0,49
2,53,85,47
2,53,0,160
2,53,105,32
2,53,0,60
2,53,87,36
2,53,0,65
2,53,89,31
2,53,0,60
2,53,100,36
2,53,0,65
2,53,87,31
2,53,0,46
2,48,98,50
2,48,0,43
2,48,98,53
2,36,64,192
2,48,0,20
2,36,0,76
2,48,85,0
2,48,0,43
2,48,105,53
2,48,0,192
2,36,76,0
2,43,93,0
2,36,0,19
2,43,0,77
2,55,87,0
2,55,0,52
2,55,105,44
2,55,0,137
2,55,82,55
2,55,0,70
2,47,95,26
2,47,0,92
2,48,89,4
2,48,0,91
2,50,85,5
2,50,0,94
2,55,107,2
2,55,0,54
2,45,89,42
2,45,0,41
2,45,102,55
2,40,93,192
2,45,0,9
2,45,87,87
2,40,0,12
2,45,0,24
2,45,102,60
2,40,95,192
2,45,0,6
2,40,0,62
2,52,102,28
2,52,0,36
2,52,102,60
2,47,80,192
2,52,0,4
2,52,105,92
2,47,0,14
2,52,0,74
2,52,91,8
2,52,0,35
2,52,85,61
2,52,0,24
2,52,105,72
2,52,0,52
2,53,100,44
2,53,0,35
2,53,95,61
2,48,82,192
2,53,0,9
2,48,0,85
2,53,91,2
2,53,0,30
2,53,102,66
2,48,89,192
2,53,0,16
2,53,93,80
2,48,0,1
2,53,0,21
2,53,100,74
2,53,0,166
2,53,102,26
2,48,82,192
2,53,0,6
2,53,100,90
2,48,0,9
2,53,0,55
2,53,100,32
2,53,0,43
2,48,89,53
2,48,0,41
2,48,102,55
2,43,93,192
2,48,0,9
2,48,87,87
2,43,0,12
2,48,0,24
2,48,102,60
2,43,95,192
2,48,0,6
2,43,0,62
2,50,87,28
2,50,0,52
2,50,105,44
2,50,0,137
2,50,82,55
2,50,0,70
2,42,95,26
2,42,0,92
2,43,89,4
2,43,0,91
2,45,85,5
2,45,0,94
2,50,107,2
2,50,0,54
2,53,98,42
2,53,0,43
2,53,98,53
2,41,64,192
2,53,0,20
2,41,0,76
2,53,85,0
2,53,0,43
2,53,105,53
2,53,0,192
2,41,76,0
2,48,93,0
2,41,0,19
2,48,0,77
2,48,91,0
2,48,0,35
2,48,93,61
2,48,0,192
2,43,82,0
2,43,0,60
2,52,113,36
2,52,0,78
2,53,91,18
2,53,0,75
2,54,105,21
2,54,0,96
2,55,105,0
2,55,0,52
2,48,95,44
2,48,0,36
2,48,107,60
2,48,0,180
2,48,87,12
2,48,0,33
2,48,100,63
2,48,0,33
2,48,107,63
2,48,0,168
2,48,102,24
2,48,0,24
2,50,98,72
2,50,0,36
2,50,105,60
2,50,0,176
2,50,98,16
2,50,0,38
2,50,105,58
2,50,0,38
2,50,100,58
2,50,0,38
2,50,107,58
2,45,98,96
2,50,0,11
2,45,0,37
2,53,89,48
2,53,0,41
2,53,102,55
2,48,93,192
2,53,0,9
2,53,87,87
2,48,0,12
2,53,0,24
2,53,102,60
2,48,95,192
2,53,0,6
2,48,0,62
2,48,105,28
2,48,0,40
2,48,102,56
2,48,0,184
2,48,102,8
2,48,0,27
2,55,98,69
2,55,0,35
2,55,95,61
2,55,0,32
2,55,98,64
2,50,72,96
2,55,0,19
2,50,0,33
2,45,98,44
2,45,0,35
2,45,105,61
2,40,85,192
2,45,0,8
2,45,102,88
2,40,0,16
2,45,0,19
2,45,100,61
2,45,0,196
2,45,102,0
2,45,0,34
2,45,102,58
2,45,0,179
2,50,102,13
2,50,0,179
2,50,100,13
2,50,0,91
2,50,102,5
2,50,0,36
2,50,87,60
2,50,0,28
2,50,107,68
2,50,0,32
2,55,89,64
2,55,0,41
2,55,102,55
2,50,93,192
2,55,0,9
2,55,87,87
2,50,0,12
2,55,0,24
2,55,102,60
2,50,95,192
2,55,0,6
2,50,0,62
2,52,105,28
2,52,0,40
2,52,102,56
2,52,0,184
2,52,102,8
2,52,0,27
2,48,98,69
2,48,0,35
2,48,95,61
2,48,0,32
2,48,98,64
2,43,72,96
2,48,0,19
2,43,0,33
2,53,95,44
2,53,0,36
2,53,107,60
2,53,0,180
2,53,87,12
2,53,0,33
2,53,100,63
2,53,0,33
