track,note,velocity,time
2,64,79,0
2,67,79,32
2,67,79,32
2,64,79,32
2,67,79,32
2,67,79,32
2,64,79,32
2,67,79,32
2,67,79,32
2,67,79,32
2,67,79,32
2,67,79,32
2,69,79,32
2,64,79,132
2,67,79,32
2,67,79,32
2,67,79,32
2,67,79,32
2,67,79,20
2,64,79,20
2,62,79,20
2,60,79,20
2,60,79,20
2,60,79,20
2,60,79,516
2,64,79,20
2,67,79,20
2,67,79,20
2,67,79,32
2,67,79,32
2,69,79,64
2,64,79,32
2,67,79,32
2,67,79,32
2,67,79,32
2,67,79,32
2,69,79,32
2,64,79,132
2,67,79,32
2,67,79,32
2,67,79,32
2,67,79,95
2,69,79,96
2,71,79,32
2,72,79,32
2,69,79,260
2,69,79,32
2,69,79,32
2,72,79,32
2,74,79,32
2,72,79,32
2,72,79,32
2,71,79,32
2,71,79,32
2,69,79,20
2,69,79,20
2,67,64,20
2,69,79,48
2,60,79,416
2,72,79,20
2,72,79,20
2,72,79,20
2,72,79,32
2,74,79,32
2,74,79,20
2,74,79,20
2,67,79,20
2,67,79,0
2,69,79,0
2,60,79,324
2,69,79,20
2,71,79,20
2,72,79,20
2,72,79,32
2,72,79,32
2,72,79,32
2,71,79,32
2,69,79,20
2,67,79,20
2,60,79,16
2,64,79,20
2,67,79,20
2,69,79,0
2,69,79,32
2,67,79,32
2,65,79,0
2,67,79,32
2,60,79,0
2,65,79,32
2,64,79,20
2,60,79,20
2,62,79,20
2,57,79,64
2,62,79,32
2,65,79,32
2,64,79,20
2,60,79,20
2,62,79,20
2,60,79,32
2,60,79,32
2,64,79,1028
2,67,79,32
2,67,79,0
2,67,79,0
2,64,79,16
2,67,79,20
2,67,79,0
2,64,79,0
2,67,79,32
2,67,79,95
2,67,79,0
2,67,79,0
2,69,79,0
2,64,79,132
2,67,79,32
2,67,79,0
2,67,79,0
2,67,64,0
2,67,64,24
2,64,79,8
2,62,79,20
2,60,79,20
2,60,79,20
2,60,79,20
2,60,79,516
2,64,79,20
2,67,64,12
2,67,79,48
2,67,79,24
2,67,79,24
2,69,79,8
2,64,79,32
2,67,79,32
2,67,79,95
2,67,79,0
2,67,64,24
2,69,79,24
2,64,79,132
2,67,79,32
2,67,79,0
2,67,79,0
2,67,79,0
2,67,79,0
2,69,79,0
2,71,79,32
2,72,79,32
2,69,79,260
2,69,79,32
2,69,79,32
2,72,79,32
2,74,79,32
2,72,79,32
2,72,79,32
2,71,79,32
2,71,79,32
2,69,79,20
2,69,79,20
2,67,64,20
2,69,79,48
2,60,79,416
2,72,79,20
2,72,79,20
2,72,79,20
2,72,79,32
2,74,79,32
2,74,79,20
2,74,79,20
2,67,79,20
2,67,79,0
2,69,79,0
2,60,79,324
2,69,79,20
2,71,79,20
2,72,79,20
2,72,79,32
2,72,79,32
2,72,79,32
2,71,79,32
2,69,79,20
2,67,64,12
2,60,79,24
2,64,79,20
2,67,79,20
2,69,79,0
2,69,79,32
2,67,79,32
2,65,79,0
2,60,79,128
2,65,79,32
2,64,79,20
2,60,79,20
2,62,79,20
2,57,79,60
2,62,79,32
2,65,79,32
2,64,79,20
2,60,79,20
2,62,79,20
2,60,79,20
2,60,79,20
2,69,79,1556
2,69,79,32
2,69,79,32
2,72,79,32
2,74,79,32
2,72,79,32
2,72,79,32
2,71,79,32
2,71,79,32
2,69,79,20
2,69,79,20
2,67,64,20
2,69,79,0
2,60,79,416
2,72,79,20
2,72,79,20
2,72,79,20
2,72,79,32
2,74,79,32
2,74,79,20
2,74,79,20
2,67,79,20
2,67,79,0
2,69,79,0
2,60,79,316
2,69,79,20
2,71,79,20
2,72,79,20
2,72,79,32
2,72,79,32
2,72,79,32
2,71,79,32
2,69,79,20
2,67,64,24
2,60,79,12
2,64,79,20
2,67,79,20
2,69,79,0
2,69,79,32
2,67,79,32
2,65,79,0
2,67,79,32
2,60,79,0
2,65,79,32
2,64,79,20
2,60,79,20
2,62,79,20
2,57,79,60
2,60,79,32
2,65,79,32
2,64,79,20
2,60,79,20
2,62,79,20
2,60,79,20
2,62,79,20
2,64,79,20
2,64,79,316
2,62,79,20
2,60,79,20
2,57,79,64
2,60,79,32
2,65,79,32
2,64,79,20
2,60,79,20
2,62,79,20
2,60,79,32
2,60,79,32
3,64,60,0
3,60,63,0
3,67,80,0
3,72,80,0
3,60,78,44
3,64,66,12
3,67,85,48
3,65,60,24
3,60,63,0
3,69,80,0
3,72,80,0
3,60,78,44
3,65,66,12
3,69,85,48
3,48,57,24
3,60,85,0
3,64,85,0
3,67,80,0
3,55,60,16
3,60,57,44
3,60,89,44
3,41,61,40
3,65,80,0
3,60,74,0
3,69,78,0
3,57,57,40
3,60,59,64
3,60,55,72
3,60,70,28
3,65,102,0
3,48,57,4
3,60,85,0
3,64,85,0
3,67,80,0
3,55,60,16
3,60,57,44
3,60,89,44
3,65,60,40
3,60,63,0
3,69,80,0
3,72,80,0
3,60,78,44
3,65,66,12
3,69,85,48
3,48,61,24
3,64,80,0
3,60,74,0
3,67,78,0
3,55,57,40
3,60,59,64
3,60,55,72
3,60,70,28
3,64,102,0
3,65,60,4
3,60,63,0
3,69,80,0
3,72,80,0
3,60,78,44
3,65,66,12
3,69,85,48
3,45,57,24
3,64,85,0
3,69,85,0
3,72,80,0
3,60,60,16
3,64,57,44
3,64,89,44
3,65,60,40
3,60,63,0
3,69,80,0
3,72,80,0
3,60,78,44
3,65,66,12
3,69,85,48
3,48,57,24
3,64,70,0
3,60,70,0
3,67,78,0
3,60,47,8
3,64,82,48
3,67,78,0
3,59,57,16
3,40,53,0
3,64,76,0
3,67,80,0
3,59,64,56
3,59,74,88
3,41,57,20
3,60,85,0
3,65,85,0
3,69,80,0
3,57,60,16
3,60,57,44
3,60,89,44
3,45,57,40
3,69,70,0
3,64,70,0
3,72,78,0
3,64,47,8
3,69,82,48
3,72,78,0
3,43,57,16
3,67,70,0
3,62,70,0
3,71,78,0
3,62,47,8
3,67,82,48
3,71,78,0
3,60,57,16
3,41,53,0
3,65,76,0
3,69,80,0
3,60,64,56
3,60,74,88
3,59,68,20
3,40,51,0
3,64,70,0
3,67,72,0
3,62,68,28
3,50,51,0
3,65,70,0
3,69,72,0
3,41,57,28
3,65,70,0
3,60,70,0
3,69,78,0
3,60,47,8
3,65,82,48
3,69,78,0
3,64,60,16
3,60,63,0
3,67,80,0
3,72,80,0
3,60,78,44
3,64,66,12
3,67,85,48
3,48,62,28
3,64,85,0
3,60,72,0
3,67,80,0
3,55,80,100
3,60,80,32
3,60,74,28
3,64,72,40
3,60,70,8
3,64,91,0
3,67,82,0
3,72,66,176
3,67,93,0
3,64,64,32
3,60,89,0
3,60,80,72
3,55,59,8
3,41,57,24
3,60,85,0
3,65,85,0
3,69,80,0
3,57,60,16
3,60,57,44
3,60,89,44
3,64,60,40
3,60,63,0
3,67,80,0
3,72,80,0
3,60,78,44
3,64,66,12
3,67,85,48
3,65,60,24
3,60,63,0
3,69,80,0
3,72,80,0
3,60,78,44
3,65,66,12
3,69,85,48
3,48,61,24
3,64,80,0
3,60,74,0
3,67,78,0
3,55,57,40
3,60,59,64
3,60,55,72
3,60,70,28
3,64,102,0
3,41,57,4
3,60,85,0
3,65,85,0
3,69,80,0
3,57,60,16
3,60,57,44
3,60,89,44
3,64,60,40
3,60,63,0
3,67,80,0
3,72,80,0
3,60,78,44
3,64,66,12
3,67,85,48
3,41,61,24
3,65,80,0
3,60,74,0
3,69,78,0
3,57,57,40
3,60,59,64
3,60,55,72
3,60,70,28
3,65,102,0
3,45,61,4
3,69,80,0
3,64,74,0
3,72,78,0
3,60,57,40
3,64,59,64
3,64,55,72
3,64,70,28
3,69,102,0
3,65,60,4
3,60,63,0
3,69,80,0
3,72,80,0
3,60,78,44
3,65,66,12
3,69,85,48
3,60,68,24
3,48,51,0
3,64,70,0
3,67,72,0
3,59,68,28
3,40,51,0
3,64,70,0
3,67,72,0
3,41,61,28
3,65,80,0
3,60,74,0
3,69,78,0
3,57,57,40
3,60,59,64
3,60,55,72
3,60,70,28
3,65,102,0
3,64,68,4
3,45,51,0
3,69,70,0
3,72,72,0
3,62,68,28
3,43,51,0
3,67,70,0
3,71,72,0
3,60,68,28
3,41,51,0
3,65,70,0
3,69,72,0
3,59,68,28
3,40,51,0
3,64,70,0
3,67,72,0
3,50,57,28
3,65,70,0
3,62,70,0
3,69,78,0
3,62,47,8
3,65,82,48
3,69,78,0
3,41,57,16
3,65,70,0
3,60,70,0
3,69,78,0
3,60,47,8
3,65,82,48
3,69,78,0
3,60,55,16
3,72,60,0
3,48,54,0
3,76,57,0
3,64,47,4
3,67,60,0
3,60,51,48
3,64,87,108
3,67,68,0
3,72,59,0
3,64,64,16
3,72,68,0
3,67,68,4
3,76,70,0
3,60,66,40
3,64,59,56
3,67,54,44
3,72,100,64
3,45,61,56
3,69,80,0
3,64,74,0
3,72,78,0
3,60,57,40
3,64,59,64
3,64,55,72
3,64,70,28
3,69,102,0
3,41,57,4
3,60,85,0
3,65,85,0
3,69,80,0
3,57,60,16
3,60,57,44
3,60,89,44
3,60,57,40
3,48,53,0
3,64,76,0
3,67,80,0
3,60,64,56
3,60,74,88
3,40,57,20
3,64,70,0
3,59,70,0
3,67,78,0
3,59,47,8
3,64,82,48
3,67,78,0
3,65,60,16
3,60,63,0
3,69,80,0
3,72,80,0
3,60,78,44
3,65,66,12
3,69,85,48
3,64,68,24
3,45,51,0
3,69,70,0
3,72,72,0
3,62,68,28
3,43,51,0
3,67,70,0
3,71,72,0
3,60,57,28
3,41,53,0
3,65,76,0
3,69,80,0
3,60,64,56
3,60,74,88
3,59,68,20
3,40,51,0
3,64,70,0
3,67,72,0
3,62,68,28
3,50,51,0
3,65,70,0
3,69,72,0
3,60,68,28
3,41,51,0
3,65,70,0
3,69,72,0
3,45,57,28
3,64,85,0
3,69,85,0
3,72,80,0
3,60,60,16
3,64,57,44
3,64,89,44
3,41,57,40
3,60,85,0
3,65,85,0
3,69,80,0
3,57,60,16
3,60,57,44
3,60,89,44
3,48,61,40
3,64,80,0
3,60,74,0
3,67,78,0
3,55,57,40
3,60,59,64
3,60,55,72
3,60,70,28
3,64,102,0
3,48,57,4
3,60,85,0
3,64,85,0
3,67,80,0
3,55,60,16
3,60,57,44
3,60,89,44
3,60,85,40
3,55,85,0
3,64,85,0
3,60,85,36
3,55,85,0
3,64,85,0
3,60,85,44
3,55,85,0
3,64,85,0
4,48,89,0
4,48,89,60
4,48,98,68
4,48,80,12
4,53,85,24
4,53,74,72
4,53,87,64
4,45,82,0
4,48,91,64
4,48,87,64
4,48,89,68
4,52,74,20
4,48,48,28
4,53,91,28
4,53,87,64
4,53,89,68
4,45,74,20
4,41,48,28
4,48,89,28
4,48,87,72
4,48,85,72
4,55,91,8
4,65,105,56
4,65,93,32
4,65,98,68
4,60,68,0
4,53,78,12
4,48,85,28
4,48,80,88
4,48,80,72
4,43,76,0
4,53,91,0
4,53,87,64
4,53,89,68
4,53,74,20
4,53,48,28
4,45,72,28
4,45,66,32
4,45,87,32
4,55,85,12
4,53,82,32
4,53,85,24
4,53,89,28
4,53,87,76
4,48,72,72
4,48,87,20
4,48,85,32
4,52,87,20
4,52,85,32
4,53,82,20
4,53,85,24
4,53,89,28
4,53,87,76
4,48,72,72
4,45,93,20
4,33,72,336
4,55,87,28
4,55,85,32
4,53,87,20
4,53,85,32
4,52,85,20
4,52,76,72
4,59,91,0
4,52,87,16
4,52,80,32
4,50,87,24
4,50,85,32
4,53,93,20
4,41,72,336
4,48,98,28
4,48,87,32
4,48,102,32
4,48,102,72
4,48,107,24
4,60,105,76
4,60,89,28
4,60,93,68
4,55,72,20
4,48,82,96
4,48,74,68
4,48,102,72
4,48,85,0
4,53,89,96
4,53,87,72
4,53,85,72
4,48,91,0
4,48,87,287
4,48,89,0
4,48,74,0
4,48,48,0
4,53,85,48
4,53,74,72
4,53,87,64
4,52,82,0
4,48,87,287
4,48,85,0
4,55,91,288
4,53,91,56
4,53,87,64
4,53,89,68
4,53,74,20
4,53,48,28
4,60,105,28
4,60,93,32
4,60,98,68
4,55,68,0
4,48,78,0
4,53,85,192
4,53,80,40
4,53,98,28
4,53,89,8
4,53,105,24
4,45,85,32
4,45,85,28
4,45,89,24
4,45,87,68
4,55,89,8
4,52,85,28
4,53,72,32
4,53,66,32
4,53,87,32
4,52,85,12
4,48,85,335
4,52,89,52
4,52,87,52
4,64,98,0
4,52,82,100
4,53,85,16
4,53,80,40
4,53,98,28
4,53,89,8
4,53,105,24
4,45,87,32
4,45,85,32
4,55,89,24
4,55,87,52
4,67,98,0
4,55,82,100
4,53,93,16
4,41,72,336
4,52,87,28
4,52,85,32
4,50,87,20
4,50,85,32
4,53,89,24
4,53,87,52
4,65,98,0
4,53,82,100
4,60,100,16
4,55,102,336
4,48,82,0
4,48,87,0
4,43,82,192
4,45,85,48
4,48,87,324
4,48,89,0
4,48,105,0
4,45,85,288
4,45,80,40
4,45,98,28
4,45,89,8
4,45,105,24
4,53,85,32
4,53,85,28
4,53,89,24
4,53,87,68
4,52,89,8
4,50,85,28
4,48,85,335
4,52,93,48
4,40,72,336
4,53,98,28
4,53,87,32
4,53,102,32
4,53,102,72
4,53,107,24
4,45,87,76
4,45,85,32
4,55,87,20
4,55,85,32
4,53,93,20
4,41,72,336
4,52,85,28
4,52,76,72
4,59,91,0
4,52,87,16
4,52,80,32
4,50,87,24
4,50,85,32
4,53,93,20
4,41,72,336
4,45,85,28
4,45,85,28
4,45,89,24
4,45,87,68
4,45,89,8
4,45,85,28
4,53,85,32
4,53,80,40
4,53,98,28
4,45,89,8
4,41,105,24
4,48,85,335
4,48,63,0
4,48,87,0
4,36,85,240
4,48,66,335
4,48,87,0
4,48,85,0
4,48,85,331
4,48,91,0
4,43,85,332
4,48,85,0
5,64,79,0
5,67,79,32
5,67,79,32
5,64,79,32
5,67,79,32
5,67,79,32
5,64,79,32
5,67,79,32
5,67,79,32
5,67,79,32
5,67,79,32
5,67,79,32
5,69,79,32
5,64,79,132
5,67,79,32
5,67,79,32
5,67,79,32
5,67,79,32
5,67,79,20
5,64,79,20
5,62,79,20
5,60,79,20
5,60,79,20
5,60,79,20
5,60,79,516
5,64,79,20
5,67,79,20
5,67,79,20
5,67,79,32
5,67,79,32
5,69,79,64
5,64,79,32
5,67,79,32
5,67,79,32
5,67,79,32
5,67,79,32
5,69,79,32
5,64,79,132
5,67,79,32
5,67,79,32
5,67,79,32
5,67,79,95
5,69,79,96
5,71,79,32
5,72,79,32
5,69,79,260
5,69,79,32
5,69,79,32
5,72,79,32
5,74,79,32
5,72,79,32
5,72,79,32
5,71,79,32
5,71,79,32
5,69,79,20
5,69,79,20
5,67,79,20
5,69,79,48
5,60,79,416
5,72,79,20
5,72,79,20
5,72,79,20
5,72,79,32
5,74,79,32
5,74,79,20
5,74,79,20
5,67,79,20
5,67,79,0
5,69,79,0
5,60,79,324
5,69,79,20
5,71,79,20
5,72,79,20
5,72,79,32
5,72,79,32
5,72,79,32
5,71,79,32
5,69,79,20
5,67,64,36
5,60,79,0
5,64,79,20
5,67,79,20
5,69,79,0
5,69,79,32
5,67,79,32
5,65,79,0
5,67,79,32
5,60,79,0
5,65,79,32
5,64,79,20
5,60,79,20
5,62,79,20
5,57,79,64
5,62,79,32
5,65,79,32
5,64,79,20
5,60,79,20
5,62,79,20
5,60,79,32
5,60,79,32
5,64,79,1028
5,67,79,32
5,67,79,0
5,67,79,0
5,64,79,16
5,67,79,20
5,67,79,0
5,64,79,0
5,67,79,32
5,67,79,95
5,67,79,0
5,67,79,0
5,67,64,11
5,69,79,84
5,64,79,132
5,67,79,32
5,67,79,0
5,67,79,0
5,67,79,0
5,67,79,0
5,67,64,7
5,64,79,56
5,62,79,20
5,60,79,20
5,60,79,20
5,60,79,20
5,60,79,516
5,64,79,20
5,67,79,20
5,67,79,0
5,67,79,0
5,67,79,0
