track,note,velocity,time
0,36,127,0
0,42,127,0
0,51,127,0
0,45,21,0
0,56,127,0
0,49,127,0
0,52,127,0
0,44,127,0
0,56,127,0
0,44,127,0
0,33,127,2
0,51,0,15
0,42,0,0
0,36,0,0
0,56,0,23
0,49,0,0
0,52,0,0
0,44,0,0
0,56,0,0
0,44,0,0
0,38,127,0
0,42,127,0
0,61,70,0
0,57,58,0
0,64,72,0
0,57,127,0
0,52,127,0
0,49,127,0
0,45,127,0
0,57,127,0
0,45,127,0
0,64,15,2
0,61,15,0
0,57,15,0
0,64,0,13
0,57,0,2
0,61,0,0
0,45,0,4
0,42,0,4
0,38,0,0
0,64,0,15
0,61,0,0
0,57,0,0
0,57,0,8
0,52,0,0
0,49,0,0
0,45,0,0
0,57,0,0
0,45,0,0
0,33,0,7
0,40,11,4
0,36,127,0
0,42,127,0
0,57,127,0
0,52,127,0
0,49,127,0
0,45,127,0
0,57,127,0
0,45,127,0
0,40,127,7
0,42,0,18
0,36,0,0
0,57,0,23
0,52,0,0
0,49,0,0
0,45,0,0
0,57,0,0
0,45,0,0
0,64,25,10
0,61,25,0
0,57,25,0
0,38,127,0
0,42,127,0
0,57,56,0
0,64,60,0
0,61,58,0
0,56,127,0
0,49,127,0
0,52,127,0
0,44,127,0
0,56,127,0
0,44,127,0
0,61,0,16
0,57,0,0
0,64,0,2
0,40,0,4
0,42,0,3
0,38,0,0
0,40,0,0
0,46,127,5
0,64,0,2
0,61,0,0
0,57,0,0
0,56,0,16
0,49,0,0
0,52,0,0
0,44,0,0
0,56,0,0
0,44,0,0
0,46,0,7
0,36,127,0
0,42,127,0
0,45,17,0
0,57,127,0
0,52,127,0
0,49,127,0
0,45,127,0
0,57,127,0
0,45,127,0
0,33,127,10
0,42,0,15
0,36,0,0
0,57,0,23
0,52,0,0
0,49,0,0
0,45,0,0
0,57,0,0
0,45,0,0
0,38,127,0
0,42,127,0
0,64,25,0
0,61,25,0
0,57,25,0
0,57,68,0
0,57,127,0
0,52,127,0
0,49,127,0
0,45,127,0
0,57,127,0
0,45,127,0
0,42,0,25
0,38,0,0
0,57,0,1
0,61,0,0
0,64,0,0
0,45,0,2
0,42,127,2
0,57,0,0
0,61,62,0
0,64,50,0
0,57,0,18
0,52,0,0
0,49,0,0
0,45,0,0
0,57,0,0
0,45,0,0
0,42,0,7
0,33,0,1
0,36,127,0
0,42,127,0
0,56,127,0
0,49,127,0
0,52,127,0
0,44,127,0
0,56,127,0
0,44,127,0
0,40,23,2
0,64,0,0
0,61,0,0
0,69,90,0
0,57,49,0
0,40,127,4
0,57,0,8
0,69,0,8
0,42,0,3
0,36,0,0
0,56,0,23
0,49,0,0
0,52,0,0
0,44,0,0
0,56,0,0
0,44,0,0
0,38,127,0
0,42,127,0
0,57,72,0
0,61,79,0
0,64,79,0
0,57,127,0
0,52,127,0
0,49,127,0
0,45,127,0
0,57,127,0
0,45,127,0
0,64,32,2
0,61,32,0
0,57,32,0
0,40,0,9
0,40,0,2
0,61,0,2
0,64,0,2
0,57,0,0
0,42,0,8
0,38,0,0
0,64,0,1
0,61,0,0
0,57,0,0
0,42,127,4
0,57,0,18
0,52,0,0
0,49,0,0
0,45,0,0
0,57,0,0
0,45,0,0
0,42,0,7
0,36,127,0
0,42,127,0
0,45,21,0
0,57,127,0
0,52,127,0
0,49,127,0
0,45,127,0
0,57,127,0
0,45,127,0
0,33,127,7
0,42,0,18
0,36,0,0
0,57,0,23
0,52,0,0
0,49,0,0
0,45,0,0
0,57,0,0
0,45,0,0
0,38,127,0
0,42,127,0
0,61,72,0
0,57,63,0
0,64,67,0
0,56,127,0
0,49,127,0
0,52,127,0
0,44,127,0
0,56,127,0
0,44,127,0
0,64,15,2
0,61,15,0
0,57,15,0
0,57,0,14
0,61,0,1
0,64,0,2
0,45,0,2
0,42,0,4
0,38,0,0
0,64,0,15
0,61,0,0
0,57,0,0
0,56,0,8
0,49,0,0
0,52,0,0
0,44,0,0
0,56,0,0
0,44,0,0
0,33,0,8
0,40,11,3
0,36,127,0
0,42,127,0
0,57,127,0
0,52,127,0
0,49,127,0
0,45,127,0
0,57,127,0
0,45,127,0
0,40,127,8
0,42,0,17
0,36,0,0
0,57,0,23
0,52,0,0
0,49,0,0
0,45,0,0
0,57,0,0
0,45,0,0
0,64,25,10
0,61,25,0
0,57,25,0
0,38,127,0
0,42,127,0
0,61,57,0
0,64,67,0
0,57,55,0
0,57,127,0
0,52,127,0
0,49,127,0
0,45,127,0
0,57,127,0
0,45,127,0
0,61,0,15
0,57,0,2
0,64,0,1
0,42,0,7
0,38,0,0
0,40,0,0
0,46,127,5
0,64,0,2
0,61,0,0
0,57,0,0
0,57,0,16
0,52,0,0
0,49,0,0
0,45,0,0
0,57,0,0
0,45,0,0
0,46,0,7
0,36,127,0
0,42,127,0
0,45,17,0
0,61,127,0
0,57,127,0
0,52,127,0
0,49,127,0
0,61,127,0
0,49,127,0
0,40,0,2
0,33,127,0
0,42,0,23
0,36,0,0
0,61,0,23
0,57,0,0
0,52,0,0
0,49,0,0
0,61,0,0
0,49,0,0
0,38,127,0
0,42,127,0
0,64,25,0
0,61,25,0
0,57,25,0
0,64,72,0
0,57,61,0
0,61,67,0
0,64,127,0
0,61,127,0
0,57,127,0
0,52,127,0
0,64,127,0
0,52,127,0
0,61,0,14
0,64,0,0
0,57,0,1
0,42,0,10
0,38,0,0
0,57,0,1
0,61,0,0
0,64,0,0
0,45,0,2
0,33,0,19
0,64,0,1
0,61,0,0
0,57,0,0
0,52,0,0
0,64,0,0
0,52,0,0
0,36,127,0
0,42,127,0
0,61,67,0
0,57,65,0
0,64,72,0
0,66,127,0
0,62,127,0
0,59,127,0
0,54,127,0
0,66,127,0
0,54,127,0
0,40,23,2
0,33,127,3
0,61,0,8
0,57,0,2
0,64,0,1
0,42,0,9
0,36,0,0
0,66,0,23
0,62,0,0
0,59,0,0
0,54,0,0
0,66,0,0
0,54,0,0
0,33,0,7
0,38,127,0
0,42,127,0
0,64,127,0
0,61,127,0
0,57,127,0
0,52,127,0
0,64,127,0
0,52,127,0
0,64,32,2
0,61,32,0
0,57,32,0
0,33,127,4
0,40,0,5
0,42,0,14
0,38,0,0
0,64,0,1
0,61,0,0
0,57,0,0
0,42,127,4
0,64,0,18
0,61,0,0
0,57,0,0
0,52,0,0
0,64,0,0
0,52,0,0
0,33,0,4
0,42,0,3
0,36,127,0
0,42,127,0
0,45,5,0
0,56,127,0
0,49,127,0
0,52,127,0
0,44,127,0
0,56,127,0
0,44,127,0
0,33,127,7
0,42,0,18
0,36,0,0
0,56,0,23
0,49,0,0
0,52,0,0
0,44,0,0
0,56,0,0
0,44,0,0
0,38,127,0
0,42,127,0
0,61,72,0
0,57,63,0
0,64,67,0
0,57,127,0
0,52,127,0
0,49,127,0
0,45,127,0
0,57,127,0
0,45,127,0
0,64,31,10
0,61,31,0
0,57,31,0
0,57,0,6
0,61,0,1
0,64,0,2
0,42,0,6
0,38,0,0
0,45,0,0
0,64,0,16
0,61,0,0
0,57,0,0
0,57,0,7
0,52,0,0
0,49,0,0
0,45,0,0
0,57,0,0
0,45,0,0
0,33,0,8
0,36,127,0
0,42,127,0
0,57,127,0
0,52,127,0
0,49,127,0
0,45,127,0
0,57,127,0
0,45,127,0
0,40,14,6
0,40,127,2
0,42,0,17
0,36,0,0
0,57,0,23
0,52,0,0
0,49,0,0
0,45,0,0
0,57,0,0
0,45,0,0
0,38,127,0
0,42,127,0
0,61,57,0
0,64,67,0
0,57,55,0
0,56,127,0
0,49,127,0
0,52,127,0
0,44,127,0
0,56,127,0
0,44,127,0
0,64,41,3
0,61,41,0
0,57,41,0
0,61,0,12
0,57,0,2
0,64,0,1
0,40,0,5
0,42,0,2
0,38,0,0
0,42,127,5
0,64,0,0
0,61,0,0
0,57,0,0
0,56,0,18
0,49,0,0
0,52,0,0
0,44,0,0
0,56,0,0
0,44,0,0
0,42,0,7
0,36,127,0
0,42,127,0
0,57,127,0
0,52,127,0
0,49,127,0
0,45,127,0
0,57,127,0
0,45,127,0
0,40,0,2
0,33,127,0
0,45,14,1
0,45,0,1
0,42,0,21
0,36,0,0
0,57,0,23
0,52,0,0
0,49,0,0
0,45,0,0
0,57,0,0
0,45,0,0
0,38,127,0
0,42,127,0
0,64,72,0
0,57,61,0
0,61,67,0
0,57,127,0
0,52,127,0
0,49,127,0
0,45,127,0
0,57,127,0
0,45,127,0
0,64,37,2
0,61,37,0
0,57,37,0
0,61,0,12
0,64,0,0
0,57,0,1
0,42,0,10
0,38,0,0
0,57,0,2
0,61,0,0
0,64,0,0
0,42,127,3
0,33,0,17
0,57,0,1
0,52,0,0
0,49,0,0
0,45,0,0
0,57,0,0
0,45,0,0
0,42,0,7
0,40,5,3
0,36,127,0
0,42,127,0
0,61,67,0
0,57,65,0
0,64,72,0
0,57,127,0
0,52,127,0
0,49,127,0
0,45,127,0
0,57,127,0
0,45,127,0
0,44,127,5
0,61,0,8
0,57,0,2
0,64,0,1
0,42,0,9
0,36,0,0
0,57,0,23
0,52,0,0
0,49,0,0
0,45,0,0
0,57,0,0
0,45,0,0
0,44,0,7
0,64,46,3
0,61,46,0
0,57,46,0
0,38,127,0
0,42,127,0
0,57,127,0
0,52,127,0
0,49,127,0
0,45,127,0
0,57,127,0
0,45,127,0
0,40,0,2
0,42,127,4
0,64,0,18
0,61,0,0
0,57,0,0
0,42,0,1
0,38,0,0
0,42,127,5
0,57,0,18
0,52,0,0
0,49,0,0
0,45,0,0
0,57,0,0
0,45,0,0
0,42,0,4
0,42,0,3
0,40,127,0
0,36,127,0
0,42,127,0
0,52,18,0
0,40,12,0
0,64,30,0
0,59,30,0
0,56,30,0
0,54,127,0
0,49,127,0
0,45,127,0
0,42,127,0
0,54,127,0
0,42,127,0
0,42,0,25
0,36,0,0
0,54,0,23
0,49,0,0
0,45,0,0
0,42,0,0
0,54,0,0
0,42,0,0
0,38,127,0
0,42,127,0
0,64,64,0
0,71,66,0
0,59,54,0
0,68,39,0
0,66,56,0
0,52,127,0
0,47,127,0
0,44,127,0
0,40,127,0
0,52,127,0
0,40,127,0
0,66,0,13
0,59,0,5
0,68,0,0
0,64,0,3
0,42,0,4
0,38,0,0
0,71,0,0
0,52,0,23
0,47,0,0
0,44,0,0
0,40,0,0
0,52,0,0
0,40,0,0
0,36,127,0
0,42,127,0
0,64,71,0
0,59,127,0
0,56,127,0
0,52,127,0
0,47,127,0
0,59,127,0
0,47,127,0
0,40,0,2
0,32,127,0
0,64,0,18
0,42,0,5
0,36,0,0
0,68,82,5
0,68,0,15
0,59,0,3
0,56,0,0
0,52,0,0
0,47,0,0
0,59,0,0
0,47,0,0
0,32,0,1
0,38,127,0
0,42,127,0
0,56,0,0
0,64,0,0
0,59,0,0
0,71,89,0
0,60,127,0
0,56,127,0
0,52,127,0
0,48,127,0
0,60,127,0
0,48,127,0
0,28,127,3
0,40,0,0
0,52,0,0
0,71,0,10
0,42,0,12
0,38,0,0
0,46,127,5
0,60,0,18
0,56,0,0
0,52,0,0
0,48,0,0
0,60,0,0
0,48,0,0
0,28,0,1
0,46,0,6
0,36,127,0
0,42,127,0
0,45,16,0
0,57,127,0
0,52,127,0
0,49,127,0
0,45,127,0
0,57,127,0
0,45,127,0
0,33,127,7
0,42,0,18
0,36,0,0
0,38,127,35
0,42,127,0
0,57,64,0
0,64,66,0
0,52,54,0
0,61,39,0
0,59,56,0
0,64,24,2
0,61,24,0
0,57,24,0
0,57,0,10
0,52,0,0
0,49,0,0
0,45,0,0
0,57,0,0
0,45,0,0
0,59,0,1
0,52,0,5
0,61,0,0
0,57,0,3
0,42,0,4
0,38,0,0
0,64,0,0
0,45,0,6
0,64,0,4
0,61,0,0
0,57,0,0
0,36,127,25
0,42,127,0
0,40,12,0
0,57,71,0
0,33,0,9
0,40,127,1
0,57,0,10
0,42,0,5
0,36,0,0
0,61,82,5
0,61,0,15
0,64,30,12
0,61,30,0
0,57,30,0
0,38,127,3
0,42,127,0
0,64,89,0
0,40,0,11
0,64,0,2
0,40,0,5
0,42,0,7
0,38,0,0
0,64,0,3
0,61,0,0
0,57,0,0
0,42,127,2
0,42,0,25
0,36,127,0
0,42,127,0
0,45,21,0
0,56,127,0
0,49,127,0
0,52,127,0
0,44,127,0
0,56,127,0
0,44,127,0
0,33,127,4
0,42,0,21
0,36,0,0
0,56,0,23
0,49,0,0
0,52,0,0
0,44,0,0
0,56,0,0
0,44,0,0
0,38,127,0
0,42,127,0
0,61,70,0
0,57,58,0
0,64,72,0
0,57,127,0
0,52,127,0
0,49,127,0
0,45,127,0
0,57,127,0
0,45,127,0
0,64,15,2
0,61,15,0
0,57,15,0
0,64,0,13
0,57,0,2
0,61,0,0
0,45,0,4
0,42,0,4
0,38,0,0
0,33,0,13
0,64,0,2
0,61,0,0
0,57,0,0
0,57,0,8
0,52,0,0
0,49,0,0
0,45,0,0
0,57,0,0
0,45,0,0
0,40,11,11
0,36,127,0
0,42,127,0
0,57,127,0
0,52,127,0
0,49,127,0
0,45,127,0
0,57,127,0
0,45,127,0
0,28,127,2
0,42,0,23
0,36,0,0
0,57,0,23
0,52,0,0
0,49,0,0
0,45,0,0
0,57,0,0
0,45,0,0
0,64,25,10
0,61,25,0
0,57,25,0
0,38,127,0
0,42,127,0
0,57,56,0
0,64,60,0
0,61,58,0
0,56,127,0
0,49,127,0
0,52,127,0
0,44,127,0
0,56,127,0
0,44,127,0
0,61,0,16
0,57,0,0
0,64,0,2
0,56,0,6
0,49,0,0
0,52,0,0
0,44,0,0
0,56,0,0
0,44,0,0
0,42,0,1
0,38,0,0
0,40,0,0
0,46,127,5
0,64,0,2
0,61,0,0
0,57,0,0
0,28,0,13
0,46,0,10
0,36,127,0
0,42,127,0
0,45,17,0
0,57,127,0
0,52,127,0
0,49,127,0
0,45,127,0
0,57,127,0
0,45,127,0
0,33,127,2
0,42,0,23
0,36,0,0
0,57,0,23
0,52,0,0
0,49,0,0
0,45,0,0
0,57,0,0
0,45,0,0
0,38,127,0
0,42,127,0
0,64,25,0
0,61,25,0
0,57,25,0
0,57,68,0
0,57,127,0
0,52,127,0
0,49,127,0
0,45,127,0
0,57,127,0
0,45,127,0
0,42,0,25
0,38,0,0
0,57,0,1
0,61,0,0
0,64,0,0
0,45,0,2
0,57,0,2
0,61,62,0
0,64,50,0
0,33,0,1
0,57,0,17
0,52,0,0
0,49,0,0
0,45,0,0
0,57,0,0
0,45,0,0
0,36,127,0
0,42,127,0
0,56,127,0
0,49,127,0
0,52,127,0
0,44,127,0
0,56,127,0
0,44,127,0
0,33,127,2
0,40,23,0
0,64,0,0
0,61,0,0
0,69,90,0
0,57,49,0
0,57,0,12
0,69,0,8
0,42,0,3
0,36,0,0
0,56,0,23
0,49,0,0
0,52,0,0
0,44,0,0
0,56,0,0
0,44,0,0
0,38,127,0
0,42,127,0
0,57,72,0
0,61,79,0
0,64,79,0
0,57,127,0
0,52,127,0
0,49,127,0
0,45,127,0
0,57,127,0
0,45,127,0
0,64,32,2
0,61,32,0
0,57,32,0
0,40,0,9
0,61,0,4
0,64,0,2
0,57,0,0
0,33,0,2
0,42,0,6
0,38,0,0
0,64,0,1
0,61,0,0
0,57,0,0
0,42,127,4
0,57,0,18
0,52,0,0
0,49,0,0
0,45,0,0
0,57,0,0
0,45,0,0
0,42,0,7
0,36,127,0
0,42,127,0
0,45,10,0
0,57,127,0
0,52,127,0
0,49,127,0
0,45,127,0
0,57,127,0
0,45,127,0
0,33,127,4
0,42,0,21
0,36,0,0
0,57,0,8
0,52,0,0
0,49,0,0
0,45,0,0
0,57,0,0
0,45,0,0
0,64,29,9
0,61,29,0
0,57,29,0
0,38,127,0
0,42,127,0
0,61,70,0
0,57,58,0
0,64,72,0
0,56,127,0
0,49,127,0
0,52,127,0
0,44,127,0
0,56,127,0
0,44,127,0
0,64,0,15
0,57,0,2
