track,note,velocity,time
3,47,62,3840
3,47,0,194
3,47,76,46
3,47,0,432
3,47,51,48
3,47,0,442
3,47,48,38
3,47,0,428
3,47,57,52
3,47,0,422
3,47,55,58
3,47,0,427
3,47,60,53
3,47,0,409
3,47,56,71
3,47,0,413
3,47,60,67
3,47,0,142
3,40,68,6818
3,40,0,740
3,35,107,220
3,35,0,417
3,35,89,63
3,30,76,480
3,35,0,9
3,30,0,445
3,37,85,26
3,28,89,480
3,37,0,3
3,28,0,451
3,40,85,26
3,28,89,480
3,40,0,4
3,28,0,454
3,40,59,22
3,39,72,120
3,40,0,39
3,39,0,72
3,37,98,9
3,37,0,148
3,35,98,92
3,35,0,448
3,30,72,32
3,30,0,381
3,30,89,99
3,30,0,478
3,37,72,2
3,37,0,374
3,28,102,106
3,28,0,857
3,28,119,103
3,28,0,130
3,35,107,830
3,35,0,308
3,35,93,52
3,39,76,120
3,35,0,20
3,39,0,187
3,42,93,33
3,30,93,240
3,42,0,5
3,30,0,296
3,30,89,59
3,37,72,120
3,30,0,3
3,37,0,222
3,42,85,15
3,42,0,236
3,28,98,4
3,28,0,303
3,28,93,57
3,28,0,51
3,28,98,69
3,28,0,305
3,28,98,55
3,28,0,67
3,40,80,53
3,40,0,307
3,35,93,53
3,35,0,109
3,28,85,11
3,28,0,115
3,40,89,5
3,40,0,192
3,40,107,48
3,40,0,118
3,35,102,2
3,35,0,305
3,35,98,55
3,35,0,115
3,39,72,5
3,39,0,209
3,42,93,31
3,42,0,211
3,30,98,29
3,30,0,286
3,30,89,74
3,30,0,110
3,37,76,10
3,37,0,213
3,42,93,27
3,42,0,228
3,28,98,12
3,28,0,314
3,28,93,46
3,28,0,115
3,35,80,5
3,35,0,275
3,35,89,85
3,35,0,68
3,40,93,52
3,40,0,334
3,39,102,26
3,39,0,84
3,37,72,36
3,37,0,82
3,35,76,38
3,35,0,105
3,28,102,15
3,28,0,196
3,35,76,44
3,35,0,285
3,35,98,75
3,35,0,114
3,39,76,6
3,39,0,205
3,42,76,35
3,42,0,230
3,30,93,10
3,30,0,276
3,30,93,84
3,30,0,103
3,37,93,17
3,37,0,238
3,30,93,2
3,30,0,142
3,28,102,98
3,28,0,294
3,28,93,66
3,28,0,118
3,35,89,2
3,35,0,274
3,35,89,86
3,35,0,60
3,40,98,60
3,40,0,271
3,40,98,89
3,40,0,51
3,40,93,69
3,40,0,113
3,39,89,7
3,39,0,79
3,37,93,41
3,37,0,148
3,32,98,92
3,32,0,297
3,32,93,63
3,32,0,49
3,32,113,71
3,32,0,301
3,32,98,59
3,32,0,56
3,37,102,64
3,37,0,282
3,37,102,78
3,37,0,41
3,37,113,79
3,37,0,288
3,37,102,72
3,37,0,66
3,40,107,54
3,40,0,276
3,40,107,84
3,40,0,47
3,40,113,73
3,40,0,271
3,40,113,89
3,40,0,103
3,30,127,17
3,30,0,848
3,35,93,112
3,35,0,303
3,35,89,57
3,35,0,54
3,35,93,66
3,35,0,336
3,35,93,24
3,35,0,96
3,30,93,24
3,30,0,301
3,30,102,59
3,42,72,120
3,30,0,11
3,37,80,109
3,42,0,17
3,30,98,103
3,37,0,1
3,30,0,203
3,28,102,36
3,28,0,275
3,28,107,85
3,28,0,54
3,28,102,66
3,28,0,289
3,28,98,71
3,28,0,62
3,30,102,58
3,30,0,293
3,30,107,67
3,30,0,118
3,37,89,2
3,30,107,240
3,37,0,1
3,30,0,136
3,35,98,103
3,35,0,280
3,35,89,80
3,35,0,52
3,35,89,68
3,35,0,258
3,35,80,102
3,35,0,86
3,30,89,34
3,30,0,270
3,30,80,90
3,30,0,40
3,30,89,80
3,30,0,285
3,30,85,75
3,30,0,33
3,28,98,87
3,28,0,264
3,28,89,96
3,28,0,115
3,35,76,5
3,35,0,257
3,35,89,103
3,35,0,70
3,40,89,50
3,40,0,303
3,40,98,57
3,40,0,56
3,40,93,64
3,28,89,120
3,40,0,35
3,28,0,70
3,40,80,15
3,40,0,119
3,39,89,1
3,39,0,97
3,35,80,23
3,37,62,0
3,37,0,13
3,35,0,254
3,35,64,93
3,35,0,59
3,35,93,61
3,35,0,263
3,35,93,97
3,35,0,72
3,30,89,48
3,30,0,296
3,30,89,64
3,30,0,46
3,30,102,74
3,30,0,262
3,30,98,98
3,30,0,50
3,28,102,70
3,28,0,296
3,28,98,64
3,28,0,46
3,28,98,74
3,28,0,277
3,28,93,83
3,28,0,54
3,28,93,66
3,28,0,283
3,28,89,77
3,28,0,51
3,28,98,69
3,28,0,90
3,40,98,30
3,39,93,120
3,40,0,16
3,39,0,76
3,37,85,28
3,37,0,74
3,35,107,46
3,35,0,417
3,35,89,63
3,30,76,480
3,35,0,9
3,30,0,445
3,37,85,26
3,28,89,480
3,37,0,3
3,28,0,451
3,40,85,26
3,28,89,480
3,40,0,4
3,28,0,454
3,40,59,22
3,39,72,120
3,40,0,39
3,39,0,72
3,37,98,9
3,37,0,148
3,35,98,92
3,35,0,448
3,30,72,32
3,30,0,381
3,30,89,99
3,30,0,478
3,37,72,2
3,37,0,374
3,28,102,106
3,28,0,857
3,28,119,103
3,28,0,130
3,35,107,830
3,35,0,308
3,35,93,52
3,39,76,120
3,35,0,20
3,39,0,187
3,42,93,33
3,30,93,240
3,42,0,5
3,30,0,296
3,30,89,59
3,37,72,120
3,30,0,3
3,37,0,222
3,42,85,15
3,42,0,236
3,28,98,4
3,28,0,303
3,28,93,57
3,28,0,51
3,28,98,69
3,28,0,305
3,28,98,55
3,28,0,67
3,40,80,53
3,40,0,307
3,35,93,53
3,35,0,109
3,28,85,11
3,28,0,115
3,40,89,5
3,40,0,192
3,40,107,48
3,40,0,118
3,35,102,2
3,35,0,305
3,35,98,55
3,35,0,115
3,39,72,5
3,39,0,209
3,42,93,31
3,42,0,211
3,30,98,29
3,30,0,286
3,30,89,74
3,30,0,110
3,37,76,10
3,37,0,213
3,42,93,27
3,42,0,228
3,28,98,12
3,28,0,314
3,28,93,46
3,28,0,115
3,35,80,5
3,35,0,275
3,35,89,85
3,35,0,68
3,40,93,52
3,40,0,334
3,39,102,26
3,39,0,84
3,37,72,36
3,37,0,82
3,35,76,38
3,35,0,105
3,28,102,15
3,28,0,196
3,35,76,44
3,35,0,285
3,35,98,75
3,35,0,114
3,39,76,6
3,39,0,205
3,42,76,35
3,42,0,230
3,30,93,10
3,30,0,276
3,30,93,84
3,30,0,103
3,37,93,17
3,37,0,238
3,30,93,2
3,30,0,142
3,28,102,98
3,28,0,294
3,28,93,66
3,28,0,118
3,35,89,2
3,35,0,274
3,35,89,86
3,35,0,60
3,40,98,60
3,40,0,271
3,40,98,89
3,40,0,51
3,40,93,69
3,40,0,113
3,39,89,7
3,39,0,79
3,37,93,41
3,37,0,148
3,32,98,92
3,32,0,297
3,32,93,63
3,32,0,49
3,32,113,71
3,32,0,301
3,32,98,59
3,32,0,56
3,37,102,64
3,37,0,282
3,37,102,78
3,37,0,41
3,37,113,79
3,37,0,288
3,37,102,72
3,37,0,66
3,40,107,54
3,40,0,276
3,40,107,84
3,40,0,47
3,40,113,73
3,40,0,271
3,40,113,89
3,40,0,103
3,30,102,17
3,30,0,295
3,30,102,65
3,30,0,44
3,30,113,76
3,30,0,282
3,30,113,78
3,30,0,57
3,35,93,63
3,35,0,303
3,35,89,57
3,35,0,54
3,35,93,66
3,35,0,336
3,35,93,24
3,35,0,96
3,30,93,24
3,30,0,301
3,30,102,59
3,42,72,120
3,30,0,11
3,37,80,109
3,42,0,17
3,30,98,103
3,37,0,1
3,30,0,203
3,28,102,36
3,28,0,275
3,28,107,85
3,28,0,54
3,28,102,66
3,28,0,289
3,28,98,71
3,28,0,62
3,30,102,58
3,30,0,293
3,30,107,67
3,30,0,118
3,37,89,2
3,30,107,240
3,37,0,1
3,30,0,136
3,35,93,103
3,35,0,303
3,35,89,57
3,35,0,54
3,35,93,66
3,35,0,336
3,35,93,24
3,35,0,96
3,30,93,24
3,30,0,301
3,30,102,59
3,42,72,120
3,30,0,11
3,37,80,109
3,42,0,17
3,30,98,103
3,37,0,1
3,30,0,203
3,28,102,36
3,28,0,275
3,28,107,85
3,28,0,54
3,28,102,66
3,28,0,289
3,28,98,71
3,28,0,62
3,30,102,58
3,30,0,293
3,30,107,67
3,30,0,118
3,37,89,2
3,30,107,240
3,37,0,1
3,30,0,136
3,30,113,103
3,30,0,917
3,35,76,43
3,47,80,840
3,35,0,16
3,42,56,104
3,47,0,9
3,44,60,711
3,42,0,11
3,44,0,219
3,40,80,10
3,52,60,1200
3,40,0,8
3,51,64,112
3,52,0,40
3,49,89,200
3,51,0,15
3,47,89,345
3,49,0,3
3,46,62,717
3,47,0,25
3,46,0,85
3,44,57,10
3,42,68,120
3,44,0,28
3,42,0,564
3,44,64,8
3,44,0,115
3,42,80,5
3,42,0,133
3,28,98,107
3,28,0,1026
3,35,107,894
3,35,0,308
3,35,93,52
3,39,76,120
3,35,0,20
3,39,0,187
3,42,93,33
3,30,93,240
3,42,0,5
3,30,0,296
3,30,89,59
3,37,72,120
3,30,0,3
3,37,0,222
3,42,85,15
3,42,0,236
3,28,98,4
3,28,0,303
3,28,93,57
3,28,0,51
3,28,98,69
3,28,0,305
3,28,98,55
3,28,0,67
3,40,80,53
3,40,0,307
3,35,93,53
3,35,0,109
3,28,85,11
3,28,0,115
3,40,89,5
3,40,0,192
3,40,107,48
3,40,0,118
3,35,102,2
3,35,0,305
3,35,98,55
3,35,0,115
3,39,72,5
3,39,0,209
3,42,93,31
3,42,0,211
3,30,98,29
3,30,0,286
3,30,89,74
3,30,0,110
3,37,76,10
3,37,0,213
3,42,93,27
3,42,0,228
3,28,98,12
3,28,0,314
3,28,93,46
3,28,0,115
3,35,80,5
3,35,0,275
3,35,89,85
3,35,0,68
3,40,93,52
3,40,0,334
3,39,102,26
3,39,0,84
3,37,72,36
3,37,0,82
3,35,76,38
3,35,0,105
3,28,102,15
3,28,0,196
3,35,76,44
3,35,0,285
3,35,98,75
3,35,0,114
3,39,76,6
3,39,0,205
3,42,76,35
3,42,0,230
3,30,93,10
3,30,0,276
3,30,93,84
3,30,0,103
3,37,93,17
3,37,0,238
3,30,93,2
3,30,0,142
3,28,102,98
3,28,0,294
3,28,93,66
3,28,0,118
3,35,89,2
3,35,0,274
3,35,89,86
3,35,0,60
3,40,98,60
3,40,0,271
3,40,98,89
3,40,0,51
3,40,93,69
3,40,0,113
3,39,89,7
3,39,0,79
3,37,93,41
3,37,0,148
3,32,98,92
3,32,0,297
3,32,93,63
3,32,0,49
3,32,113,71
3,32,0,301
3,32,98,59
3,32,0,56
3,37,102,64
3,37,0,282
3,37,102,78
3,37,0,41
3,37,113,79
3,37,0,288
3,37,102,72
3,37,0,66
3,40,107,54
3,40,0,276
3,40,107,84
3,40,0,47
3,40,113,73
3,40,0,271
3,40,113,89
3,40,0,103
3,30,102,17
3,30,0,295
3,30,102,65
3,30,0,44
3,30,113,76
3,30,0,282
3,30,113,78
3,30,0,57
3,35,93,63
3,35,0,303
3,35,89,57
3,35,0,54
3,35,93,66
3,35,0,336
3,35,93,24
3,35,0,96
3,30,93,24
3,30,0,301
3,30,102,59
3,42,72,120
3,30,0,11
3,37,80,109
3,42,0,17
3,30,98,103
3,37,0,1
3,30,0,203
3,28,102,36
3,28,0,275
3,28,107,85
3,28,0,54
3,28,102,66
3,28,0,289
3,28,98,71
3,28,0,62
3,30,102,58
3,30,0,293
3,30,107,67
3,30,0,118
3,37,89,2
3,30,107,240
3,37,0,1
3,30,0,136
3,35,93,103
3,35,0,303
3,35,89,57
3,35,0,54
3,35,93,66
3,35,0,336
3,35,93,24
3,35,0,96
3,30,93,24
3,30,0,301
3,30,102,59
3,42,72,120
3,30,0,11
3,37,80,109
3,42,0,17
3,30,98,103
3,37,0,1
3,30,0,203
3,28,102,36
3,28,0,275
3,28,107,85
3,28,0,54
3,28,102,66
3,28,0,289
3,28,98,71
3,28,0,62
3,30,102,58
3,30,0,293
3,30,107,67
3,30,0,118
3,37,89,2
3,30,107,240
3,37,0,1
3,30,0,136
3,30,113,103
3,30,0,917
3,30,52,4372
3,30,0,658
3,35,76,53
3,35,0,1913
4,66,72,3840
4,35,64,0
4,61,80,0
4,63,68,39
4,61,0,15
4,47,60,1744
4,63,0,1673
4,66,0,29
4,35,0,7
4,47,0,2
4,59,50,209
4,63,46,0
4,54,52,0
4,47,60,0
4,61,27,298
4,58,33,0
4,54,26,0
4,66,62,187
4,59,42,0
4,56,47,0
4,52,33,0
4,59,0,1327
4,66,0,199
4,56,0,3
4,52,0,17
4,59,50,374
4,63,46,0
4,54,52,0
4,47,60,0
4,61,27,298
4,58,33,0
4,54,26,0
4,52,46,187
4,56,56,0
4,59,56,0
4,66,62,0
4,59,0,873
4,66,0,77
4,56,0,248
4,52,0,170
4,47,62,552
4,63,72,240
4,59,62,0
4,66,56,0
4,66,57,54
4,59,64,0
4,63,57,0
4,47,0,36
4,66,0,13
4,63,0,12
4,59,0,6
4,42,76,3
4,61,39,240
4,58,48,0
4,54,50,0
4,59,33,9
4,40,56,0
4,56,46,0
4,52,34,0
4,52,64,416
4,56,10,180
4,59,76,60
4,59,0,105
4,64,64,15
4,64,0,103
4,66,68,17
4,56,0,114
4,52,0,13
4,66,0,46
4,47,76,13
4,54,72,240
4,59,62,0
4,66,55,0
4,63,62,0
4,59,60,33
4,63,72,0
4,66,72,0
4,47,0,24
4,63,0,66
4,66,0,2
4,59,0,7
4,42,76,2
4,54,56,240
4,58,64,0
4,61,62,0
4,54,0,406
4,58,0,9
4,61,0,3
4,54,52,62
4,61,47,0
4,58,56,0
4,54,0,106
4,58,0,9
4,61,0,4
4,42,0,17
4,40,89,104
4,56,64,0
4,64,89,0
4,59,89,0
4,40,0,875
4,64,0,7
4,56,0,2
4,59,0,6
4,56,89,70
4,40,107,0
4,59,102,0
4,64,107,0
4,40,0,80
4,56,0,3
4,59,0,3
4,64,0,9
4,54,76,865
4,63,72,0
4,66,76,0
4,47,85,0
4,59,76,0
4,59,0,209
4,59,21,25
4,59,0,31
4,63,0,27
4,66,0,1
4,59,93,61
4,66,93,0
4,63,98,0
4,61,107,58
4,66,98,0
4,54,0,9
4,47,0,37
4,59,89,74
4,61,0,36
4,66,0,28
4,59,0,12
4,61,64,9
4,58,72,0
4,42,89,0
4,54,72,0
4,58,93,64
4,54,89,0
4,61,93,0
4,42,0,18
4,58,89,10
4,61,98,0
4,54,85,0
4,42,72,120
4,58,0,52
4,54,0,27
4,61,0,11
4,42,0,16
4,56,76,14
4,56,0,69
4,40,76,28
4,56,93,150
4,59,89,0
4,52,76,0
4,56,0,43
4,52,0,5
4,59,0,8
4,40,0,11
4,52,72,53
4,59,102,0
4,54,93,0
4,52,72,24
4,59,85,0
4,54,89,0
4,52,0,105
4,54,0,64
4,59,0,10
4,52,68,61
4,52,0,83
4,40,80,10
4,52,64,120
4,52,0,63
4,56,62,57
4,52,55,0
4,59,53,0
4,56,0,47
4,59,0,3
4,52,0,4
4,52,89,66
4,59,89,0
4,56,89,0
4,52,0,179
4,59,0,10
4,56,0,2
4,52,85,49
4,59,68,0
4,56,89,0
4,40,0,108
4,59,80,44
4,52,76,0
4,56,76,0
4,52,0,44
4,56,0,11
4,59,0,3
4,47,93,43
4,54,76,240
4,63,93,0
4,59,93,0
4,47,76,26
4,54,62,64
4,63,93,0
4,59,89,0
4,59,0,51
4,63,0,1
4,54,0,0
4,54,85,68
4,59,102,0
4,63,102,0
4,47,80,120
4,54,76,1
4,63,0,19
4,54,0,53
4,42,85,18
4,58,50,0
4,54,72,0
4,61,62,0
4,54,0,174
4,54,57,26
4,54,0,53
4,58,0,6
4,61,0,15
4,54,85,46
4,58,89,0
4,61,89,0
4,42,0,48
4,42,72,63
4,58,80,35
4,54,62,0
4,61,76,0
4,42,0,44
4,52,64,44
4,40,68,0
4,59,68,0
4,56,72,0
4,52,0,176
4,52,49,13
4,52,0,62
4,40,0,13
