track,note,velocity,time
0,44,127,0
0,44,127,0
0,44,127,0
0,44,0,96
0,44,127,0
0,76,127,8
0,48,127,2
0,44,0,0
0,67,127,5
0,60,127,1
0,55,127,3
0,44,127,1
0,67,127,2
0,60,127,2
0,60,0,22
0,55,127,2
0,55,0,22
0,67,127,2
0,44,0,2
0,67,0,20
0,60,127,2
0,60,0,22
0,55,127,3
0,55,0,20
0,67,127,3
0,67,0,22
0,44,127,4
0,48,0,1
0,60,127,22
0,60,0,23
0,48,127,1
0,50,127,7
0,48,0,2
0,52,127,2
0,53,127,2
0,72,127,0
0,44,0,0
0,52,0,1
0,67,127,1
0,67,0,22
0,60,127,1
0,60,0,23
0,57,127,1
0,44,127,2
0,57,0,20
0,67,127,2
0,67,0,22
0,60,127,3
0,60,0,21
0,57,127,3
0,57,0,21
0,67,127,3
0,44,0,1
0,67,0,20
0,60,127,3
0,60,0,21
0,57,127,3
0,57,0,21
0,67,127,3
0,44,127,25
0,67,0,3
0,60,127,20
0,57,127,3
0,53,0,11
0,72,0,5
0,57,0,5
0,48,127,1
0,76,127,0
0,44,0,0
0,67,127,1
0,60,127,2
0,55,127,3
0,44,127,1
0,67,127,1
0,67,0,22
0,60,127,2
0,60,0,22
0,55,127,2
0,55,0,22
0,67,127,2
0,44,0,2
0,67,0,20
0,60,127,2
0,55,127,3
0,55,0,20
0,67,127,3
0,76,0,3
0,76,127,0
0,44,127,0
0,48,0,1
0,60,127,21
0,48,127,1
0,50,127,1
0,48,0,2
0,52,127,11
0,50,0,3
0,76,0,4
0,53,127,1
0,76,127,0
0,44,0,0
0,52,0,1
0,67,127,1
0,67,0,22
0,60,127,2
0,60,0,22
0,57,127,3
0,44,127,0
0,57,0,20
0,67,127,2
0,67,0,22
0,60,127,1
0,57,127,3
0,57,0,21
0,67,127,3
0,44,0,1
0,76,0,2
0,72,127,0
0,60,127,1
0,57,127,3
0,57,0,21
0,67,127,3
0,44,127,25
0,67,0,3
0,60,127,20
0,60,0,21
0,52,127,0
0,57,127,0
0,53,0,11
0,57,0,10
0,55,127,0
0,52,0,1
0,55,127,0
0,48,127,1
0,44,0,0
0,72,0,1
0,67,127,4
0,55,127,0
0,60,127,19
0,67,0,2
0,60,0,9
0,55,127,14
0,44,127,4
0,55,0,5
0,67,127,15
0,67,0,11
0,60,127,13
0,55,0,2
0,55,127,0
0,60,0,8
0,55,127,13
0,52,127,0
0,48,0,0
0,55,0,2
0,55,0,6
0,50,127,11
0,52,0,4
0,55,127,0
0,44,0,1
0,52,127,1
0,60,127,26
0,52,127,0
0,50,127,11
0,67,127,11
0,52,0,2
0,60,0,1
0,48,127,1
0,50,0,1
0,44,127,12
0,67,0,21
0,60,127,1
0,48,0,12
0,60,0,3
0,52,127,0
0,55,127,0
0,55,0,13
0,52,0,0
0,55,127,0
0,52,0,2
0,50,127,3
0,55,0,1
0,55,127,0
0,44,0,0
0,67,127,31
0,55,0,23
0,67,0,0
0,55,127,0
0,62,127,1
0,62,0,20
0,55,127,0
0,55,127,1
0,44,127,0
0,55,0,22
0,67,127,2
0,67,0,22
0,62,127,2
0,52,127,0
0,62,0,0
0,55,0,1
0,55,127,1
0,55,0,21
0,50,127,0
0,52,0,1
0,67,127,1
0,44,0,0
0,67,0,23
0,55,127,1
0,55,0,21
0,62,127,3
0,62,0,20
0,67,127,4
0,44,127,24
0,67,0,22
0,62,127,2
0,62,0,20
0,55,127,4
0,55,0,21
0,62,127,3
0,50,0,4
0,53,127,0
0,44,0,1
0,57,127,0
0,65,127,7
0,60,127,0
0,60,127,0
0,57,0,1
0,65,0,22
0,57,127,0
0,60,0,1
0,57,127,21
0,60,127,0
0,44,127,0
0,57,0,1
0,57,0,19
0,60,127,1
0,60,0,22
0,65,127,2
0,65,0,24
0,60,127,0
0,57,127,0
0,60,0,20
0,57,127,2
0,60,127,0
0,44,0,0
0,57,0,20
0,60,127,1
0,60,0,23
0,57,127,2
0,57,127,0
0,60,0,1
0,57,0,19
0,65,127,2
0,57,0,26
0,44,127,0
0,65,0,2
0,60,127,20
0,60,0,22
0,55,127,0
0,57,127,0
0,53,0,4
0,57,0,18
0,55,0,1
0,55,127,0
0,60,127,0
0,55,127,0
0,48,127,1
0,44,0,1
0,57,127,0
0,64,127,1
0,55,127,0
0,55,0,1
0,55,127,0
0,57,0,2
0,64,0,0
0,48,127,0
0,44,127,0
0,55,0,1
0,55,127,23
0,55,0,20
0,48,0,0
0,52,127,0
0,55,0,1
0,60,127,0
0,60,0,20
0,50,127,0
0,64,127,1
0,52,0,1
0,43,127,0
0,44,0,0
0,64,0,1
0,59,127,37
0,50,127,0
0,43,127,0
0,44,127,0
0,50,127,24
0,50,0,20
0,55,127,4
0,43,0,18
0,55,0,2
0,59,127,4
0,50,0,20
0,59,0,2
0,53,127,0
0,44,0,0
0,57,127,0
0,60,127,0
0,57,0,1
0,65,127,0
0,57,127,1
0,53,0,19
0,57,127,0
0,60,0,1
0,65,0,18
0,57,0,4
0,60,127,0
0,57,0,1
0,53,127,0
0,44,127,0
0,57,127,21
0,57,0,8
0,60,0,17
0,60,127,1
0,60,127,0
0,60,0,7
0,65,127,15
0,53,0,3
0,60,0,21
0,60,127,0
0,44,0,1
0,53,127,1
0,65,0,5
0,65,127,39
0,57,127,0
0,57,127,0
0,60,0,3
0,53,0,12
0,65,0,30
0,53,127,3
0,55,127,0
0,57,0,0
0,44,127,0
0,57,127,24
0,57,0,8
0,55,0,14
0,55,127,1
0,60,127,1
0,60,0,9
0,53,0,11
0,52,127,0
0,65,127,1
0,65,0,19
0,55,127,0
0,50,127,1
0,52,0,1
0,50,0,19
0,52,127,0
0,55,0,1
0,55,127,0
0,55,127,25
0,64,127,0
0,55,127,0
0,44,127,25
0,64,0,15
0,60,127,6
0,55,0,1
0,55,127,0
0,60,0,8
0,55,127,14
0,55,0,10
0,52,0,10
0,55,0,3
0,60,127,1
0,57,127,0
0,60,0,22
0,53,127,1
0,55,127,0
0,57,127,0
0,57,0,1
0,53,127,0
0,60,127,0
0,60,0,9
0,65,127,14
0,44,127,27
0,65,0,13
0,60,127,7
0,52,127,4
0,53,0,3
0,60,0,1
0,57,127,16
0,52,0,2
0,55,127,0
0,57,0,6
0,60,127,14
0,52,127,0
0,53,0,3
0,60,0,5
0,48,127,11
0,52,0,3
0,55,127,0
0,64,127,43
0,55,127,0
0,55,0,1
0,55,127,0
0,48,0,20
0,55,0,3
0,55,127,0
0,64,0,18
0,48,127,2
0,55,0,2
0,44,127,4
0,55,0,20
0,55,127,0
0,55,127,0
0,55,0,3
0,60,127,20
0,60,0,7
0,55,0,16
0,55,127,0
0,64,127,0
0,48,0,6
0,48,127,4
0,44,0,2
0,64,0,6
0,55,127,0
0,55,127,1
0,55,0,9
0,55,0,14
0,60,127,0
0,52,127,0
0,60,0,2
0,50,127,0
0,52,0,4
0,64,127,4
0,55,127,0
0,48,127,4
0,50,0,10
0,48,0,9
0,44,127,5
0,48,127,20
0,64,0,2
0,55,0,2
0,48,0,4
0,60,127,18
0,48,0,7
0,60,0,5
0,43,127,0
0,55,127,1
0,43,127,22
0,52,127,0
0,55,0,0
0,44,0,2
0,59,127,1
0,55,127,0
0,52,0,1
0,52,127,0
0,43,0,25
0,43,127,20
0,55,0,1
0,59,0,0
0,44,127,4
0,59,127,44
0,55,127,1
0,47,127,0
0,43,0,1
0,59,0,12
0,55,0,2
0,47,0,8
0,50,127,0
0,48,127,0
0,50,0,15
0,48,0,8
0,48,127,0
0,48,127,0
0,44,0,1
0,64,127,1
0,60,127,1
0,48,0,26
0,64,0,21
0,60,0,1
0,48,127,0
0,44,127,0
0,60,127,47
0,60,0,21
0,55,127,3
0,55,0,21
0,50,127,3
0,55,127,0
0,52,127,21
0,50,0,1
0,55,127,23
0,52,0,1
0,48,0,3
0,52,127,20
0,55,0,1
0,52,0,23
0,57,127,0
0,57,0,24
0,55,127,0
0,52,127,0
0,52,0,24
0,55,127,0
0,52,127,0
0,55,0,1
0,52,127,0
0,55,127,0
0,52,127,0
0,60,127,0
0,55,127,0
0,55,127,0
0,48,127,0
0,48,127,0
0,55,127,0
0,52,127,0
0,60,127,0
0,67,127,0
0,55,127,0
0,60,127,1
0,55,127,1
0,55,0,2
0,55,127,0
0,48,0,1
0,55,127,0
0,55,0,5
0,67,127,15
0,52,127,0
0,55,0,1
0,67,0,6
0,60,127,13
0,60,0,10
0,55,127,13
0,48,0,4
0,55,127,0
0,55,0,7
0,50,127,11
0,55,0,6
0,48,127,0
0,52,127,1
0,52,127,0
0,50,127,12
0,60,127,1
0,48,127,2
0,50,0,6
0,67,127,16
0,60,0,3
0,42,127,6
0,42,0,3
0,55,0,1
0,48,127,0
0,42,127,0
0,52,0,2
0,55,0,8
0,52,0,2
0,42,0,2
0,67,0,3
0,60,127,1
0,52,127,0
0,60,0,13
0,48,0,1
0,52,0,8
0,55,127,0
0,55,127,1
0,55,0,13
0,52,0,0
0,55,127,29
0,50,127,0
0,59,127,0
0,55,0,3
0,50,127,0
0,55,127,0
0,48,0,0
0,55,127,0
0,55,127,0
0,50,127,0
0,59,127,0
0,36,127,0
0,42,127,1
0,42,0,3
0,42,127,1
0,67,127,1
0,57,127,0
0,62,127,0
0,62,0,20
0,55,0,4
0,50,127,0
0,55,127,0
0,42,127,0
0,36,0,0
0,36,127,0
0,42,0,2
0,55,0,20
0,55,127,0
0,67,127,0
0,57,0,2
0,67,0,20
0,62,127,2
0,42,127,0
0,42,0,2
0,62,0,20
0,52,127,0
0,55,0,1
0,55,127,0
0,42,127,0
0,42,0,3
0,55,0,18
0,50,127,0
0,50,0,1
0,55,127,0
0,67,127,0
0,42,127,0
0,36,0,0
0,36,127,0
0,42,0,6
0,67,0,17
0,55,127,1
0,55,0,21
0,62,127,3
0,42,127,0
0,42,0,4
0,62,0,16
0,67,127,4
0,55,0,24
0,55,127,0
0,42,127,0
0,36,0,0
0,36,127,0
0,62,127,2
0,62,0,20
0,60,127,0
0,55,127,0
0,42,127,2
0,42,0,6
0,55,0,13
0,60,0,1
0,60,127,0
0,62,127,1
0,42,127,2
0,50,0,2
0,42,0,3
0,53,127,0
0,57,127,0
0,48,127,1
0,57,127,0
0,60,127,0
0,53,127,0
0,53,127,1
0,60,127,0
0,55,0,0
0,53,127,0
0,36,0,0
0,36,127,0
0,50,0,1
0,42,127,0
0,57,127,2
0,65,127,3
0,60,127,0
0,42,127,0
0,57,127,0
0,60,0,1
0,57,0,21
0,57,127,0
0,60,127,0
0,53,0,0
0,48,127,0
0,42,127,0
0,36,0,0
0,36,127,0
0,42,0,2
0,57,0,18
0,60,127,1
0,60,0,22
0,65,127,2
0,42,127,3
0,42,0,2
0,60,0,18
0,65,0,1
0,60,127,0
0,60,127,0
0,42,127,1
0,42,0,3
0,60,0,17
0,60,0,2
0,57,127,0
0,62,127,0
0,53,127,0
0,42,127,0
0,36,0,0
0,36,127,0
0,42,0,6
0,57,0,14
0,60,127,1
0,60,127,0
0,62,0,3
0,60,0,18
0,57,127,2
0,42,127,2
0,42,0,4
0,57,0,16
0,65,127,2
0,53,0,26
0,53,127,0
0,42,127,0
0,36,0,0
0,36,127,0
0,65,0,2
0,60,127,6
0,53,0,0
0,60,0,1
0,60,0,21
0,57,127,2
0,55,127,0
0,53,0,3
0,42,127,0
0,42,0,6
0,57,0,12
0,60,127,2
0,52,127,0
0,42,127,2
0,42,0,5
0,60,127,1
0,52,127,0
0,48,127,1
0,60,127,0
0,52,127,0
0,55,127,0
0,55,127,0
0,53,0,0
0,48,127,0
0,55,127,0
0,36,0,0
0,36,127,0
0,52,0,1
0,42,127,0
0,42,127,22
0,64,127,1
0,55,127,0
0,57,127,0
0,55,127,0
0,48,0,1
0,48,127,0
0,64,0,0
0,48,127,0
0,42,127,0
0,36,0,0
0,36,127,0
0,57,0,1
0,55,0,0
0,42,0,1
0,55,127,13
0,55,0,4
0,60,0,0
0,52,0,8
0,55,0,8
0,48,0,0
0,52,127,0
0,60,127,1
0,42,127,0
0,42,0,2
0,55,0,5
0,60,0,0
0,52,0,6
0,60,0,7
0,50,127,0
0,52,0,1
0,64,127,0
0,42,127,0
0,42,0,3
0,59,127,1
0,48,0,1
0,55,127,0
0,43,127,0
0,55,127,0
0,50,127,0
0,55,127,0
0,42,127,0
0,36,0,0
0,36,127,0
0,64,0,1
0,59,127,1
0,50,127,0
0,59,127,14
0,50,127,0
0,42,127,0
0,42,0,4
0,55,127,0
0,50,0,0
0,59,0,0
0,43,127,0
0,42,127,0
0,36,0,0
0,36,127,0
0,42,0,6
0,50,127,10
0,59,0,1
0,59,0,7
0,50,0,1
0,50,0,3
0,55,0,1
0,55,0,5
0,50,0,2
0,55,127,4
0,42,127,2
0,42,0,6
0,43,0,10
0,55,0,2
0,59,127,4
0,42,127,2
0,42,0,5
0,57,127,13
0,48,127,1
0,53,127,0
0,59,0,1
0,53,127,0
0,55,0,2
0,53,127,0
0,53,127,0
0,57,127,0
0,36,0,0
0,36,127,0
0,42,127,1
0,57,127,0
0,57,0,21
0,42,127,0
0,60,127,0
0,65,127,1
0,57,127,0
0,42,0,1
0,53,0,19
0,57,127,0
0,65,0,22
0,60,127,0
0,57,0,1
0,53,0,1
0,48,127,0
0,53,127,0
0,42,127,0
0,36,0,0
0,36,127,0
0,42,0,2
0,57,127,21
0,57,0,21
0,60,127,3
0,42,127,1
0,42,0,2
0,60,0,18
0,60,0,2
0,65,127,1
0,60,127,0
0,53,0,0
0,42,127,0
0,42,0,3
0,60,0,18
0,60,127,0
0,53,127,0
0,53,127,0
0,42,127,0
0,36,0,0
0,36,127,0
0,65,0,2
0,42,0,4
0,59,127,0
0,65,127,0
0,57,127,0
0,42,127,1
0,60,0,2
0,42,0,2
0,57,127,0
0,53,0,0
0,59,0,4
0,55,127,12
0,57,0,6
0,65,0,4
0,53,127,1
0,53,127,0
0,57,0,0
0,42,127,0
0,36,0,0
0,36,127,0
0,53,127,2
0,55,0,1
0,42,0,3
0,53,0,6
0,57,0,1
0,48,0,7
0,53,0,3
0,57,127,1
0,57,0,0
0,57,0,20
0,60,127,4
0,42,127,2
0,42,0,6
0,53,0,6
0,60,0,6
0,53,0,2
0,52,127,0
0,65,127,0
0,42,127,2
0,42,0,5
0,60,127,1
0,52,127,1
0,52,0,1
0,65,0,0
0,55,127,0
0,60,127,1
0,55,127,0
0,53,0,0
0,48,127,0
0,50,127,0
0,52,127,0
0,55,127,0
0,36,127,0
0,42,127,1
0,52,127,0
0,42,127,20
0,55,127,2
0,64,127,3
0,52,127,0
0,52,0,21
0,55,127,0
0,48,0,0
0,52,127,0
0,42,127,0
0,36,0,0
0,36,127,0
0,42,0,2
0,64,0,19
0,60,127,2
0,55,0,21
0,60,0,0
0,55,127,3
0,55,127,1
0,42,127,0
0,42,0,2
0,60,0,8
0,55,0,1
0,52,0,0
0,52,0,7
0,55,0,2
0,52,0,1
0,55,0,1
0,60,127,1
0,57,127,0
0,42,127,0
0,42,0,3
0,53,127,0
0,52,0,1
0,53,127,0
0,42,127,0
0,36,0,0
0,36,127,0
0,57,127,1
0,53,127,1
0,60,127,0
0,55,0,2
0,57,127,0
0,53,127,0
0,55,127,0
0,57,127,0
0,57,0,1
0,53,127,1
0,60,127,0
0,42,127,1
0,42,0,4
0,60,0,16
0,65,127,3
0,53,0,25
0,53,127,0
0,42,127,0
0,36,0,0
0,36,127,0
0,53,0,3
0,42,0,3
0,65,0,14
0,60,127,3
0,60,0,21
0,55,127,0
0,57,127,0
0,42,127,3
0,57,0,5
0,42,0,1
0,60,0,2
0,53,0,0
0,57,0,1
0,57,0,9
0,53,0,0
0,60,127,2
0,60,0,0
0,52,127,0
0,55,0,1
0,53,0,1
0,42,127,1
0,42,0,5
0,60,127,12
0,52,127,1
0,60,0,1
0,55,127,0
0,52,0,1
0,48,127,0
0,55,127,0
0,60,127,0
0,55,127,0
0,53,0,1
