track,note,velocity,time
0,42,120,84
0,42,0,36
0,42,120,48
0,42,0,48
0,42,120,48
0,42,0,48
0,42,120,48
0,42,0,48
0,71,108,40
0,68,116,1
0,59,114,6
0,40,100,1
0,68,0,1
0,71,0,2
0,59,0,3
0,71,112,8
0,68,116,1
0,59,108,2
0,40,0,6
0,68,0,4
0,71,0,3
0,59,0,4
0,59,108,14
0,71,112,1
0,68,116,1
0,69,101,1
0,69,0,4
0,40,100,0
0,68,0,4
0,71,0,1
0,59,0,2
0,61,114,15
0,71,110,1
0,68,118,0
0,40,0,4
0,68,0,19
0,71,0,4
0,61,0,4
0,64,96,12
0,71,112,5
0,68,118,0
0,40,98,4
0,64,0,16
0,68,0,2
0,71,0,5
0,66,114,13
0,68,112,5
0,71,106,0
0,40,0,7
0,40,98,0
0,66,0,8
0,68,0,8
0,71,0,4
0,68,125,2
0,68,118,1
0,71,118,0
0,40,0,7
0,40,88,0
0,42,120,0
0,35,110,0
0,64,108,1
0,49,123,0
0,42,0,11
0,71,0,32
0,68,0,0
0,68,0,3
0,71,106,7
0,68,112,0
0,68,118,3
0,40,0,3
0,35,0,0
0,40,98,0
0,42,116,0
0,49,0,9
0,71,0,3
0,68,0,0
0,68,0,12
0,71,110,12
0,68,116,1
0,68,120,4
0,42,0,7
0,40,0,0
0,40,88,0
0,35,84,0
0,68,0,9
0,71,0,4
0,71,118,23
0,68,120,1
0,68,0,2
0,66,118,1
0,35,0,8
0,40,0,0
0,35,74,0
0,35,103,0
0,42,108,0
0,71,106,4
0,42,0,20
0,64,116,20
0,66,0,4
0,68,0,4
0,71,0,2
0,71,99,6
0,68,116,2
0,64,0,1
0,66,114,1
0,40,100,6
0,42,108,0
0,42,0,24
0,35,0,0
0,68,0,1
0,71,0,3
0,71,108,13
0,68,116,1
0,66,0,2
0,64,114,0
0,40,0,4
0,35,0,0
0,42,112,0
0,68,0,5
0,71,0,3
0,42,0,0
0,64,0,3
0,64,0,4
0,68,120,2
0,71,114,1
0,71,0,1
0,68,120,0
0,64,103,3
0,40,78,1
0,35,105,0
0,42,116,0
0,42,0,4
0,68,0,45
0,68,0,6
0,68,114,2
0,71,0,2
0,71,83,6
0,68,114,2
0,42,118,2
0,40,98,0
0,68,0,12
0,68,0,7
0,71,0,1
0,42,0,4
0,68,120,12
0,68,118,5
0,71,112,0
0,40,0,7
0,40,0,0
0,35,0,0
0,68,0,14
0,71,0,3
0,68,0,5
0,59,112,11
0,71,110,7
0,68,120,0
0,64,0,1
0,35,83,7
0,35,99,0
0,42,110,0
0,71,120,2
0,68,0,3
0,71,0,1
0,59,0,4
0,42,0,0
0,61,118,14
0,71,108,2
0,68,118,1
0,68,0,18
0,71,0,1
0,61,0,7
0,64,112,18
0,71,112,1
0,68,123,2
0,35,0,8
0,40,89,0
0,42,118,0
0,68,0,2
0,71,0,2
0,64,0,2
0,42,0,2
0,71,112,10
0,68,120,0
0,66,114,0
0,35,0,10
0,40,0,0
0,68,0,12
0,71,0,1
0,66,0,3
0,71,0,14
0,68,118,2
0,71,114,1
0,68,125,0
0,76,116,3
0,71,116,0
0,40,86,1
0,35,99,0
0,42,108,0
0,42,0,1
0,68,0,36
0,68,0,3
0,71,0,0
0,68,118,9
0,71,105,3
0,68,114,2
0,35,0,2
0,40,0,0
0,40,89,0
0,42,105,0
0,68,0,16
0,71,0,1
0,68,0,3
0,42,0,4
0,71,106,15
0,68,116,1
0,68,123,1
0,40,0,7
0,40,79,0
0,42,94,0
0,35,53,0
0,68,0,9
0,71,0,1
0,42,0,14
0,71,0,12
0,68,0,0
0,71,112,2
0,68,118,1
0,66,116,2
0,76,0,2
0,40,0,5
0,35,0,0
0,35,68,0
0,35,91,0
0,42,116,0
0,71,108,4
0,75,114,0
0,42,0,20
0,66,0,12
0,64,114,4
0,71,0,33
0,68,0,0
0,64,0,7
0,66,101,6
0,68,118,2
0,71,108,0
0,40,91,8
0,42,118,0
0,71,0,16
0,68,0,3
0,42,0,5
0,35,0,0
0,66,0,10
0,64,110,3
0,68,118,2
0,71,106,0
0,35,0,9
0,40,0,0
0,68,0,1
0,71,0,0
0,71,0,1
0,64,0,3
0,75,0,2
0,64,108,0
0,68,116,0
0,71,108,0
0,40,86,2
0,35,99,0
0,42,118,0
0,76,114,1
0,71,116,1
0,42,0,3
0,71,0,4
0,68,0,2
0,64,0,3
0,64,93,4
0,71,94,1
0,68,110,0
0,65,96,0
0,42,114,7
0,40,95,0
0,65,0,2
0,68,0,0
0,71,0,0
0,64,0,5
0,64,98,12
0,71,105,3
0,68,112,0
0,42,0,9
0,35,0,0
0,40,0,0
0,68,0,8
0,71,0,1
0,64,0,10
0,68,118,15
0,71,110,0
0,59,106,4
0,40,0,10
0,35,83,0
0,35,97,0
0,42,110,0
0,68,0,8
0,71,0,3
0,42,0,13
0,59,0,1
0,71,108,12
0,68,118,0
0,61,116,1
0,42,108,10
0,68,0,7
0,71,0,1
0,61,0,8
0,42,0,8
0,64,108,11
0,68,116,1
0,71,108,0
0,35,0,12
0,40,87,0
0,42,118,0
0,68,0,5
0,71,0,5
0,64,0,2
0,42,0,12
0,66,116,10
0,71,108,2
0,68,116,0
0,35,0,12
0,40,0,0
0,40,87,0
0,71,0,2
0,66,0,5
0,71,0,1
0,68,0,0
0,68,125,0
0,76,0,1
0,71,110,1
0,68,116,1
0,64,108,1
0,40,0,3
0,40,84,0
0,42,116,0
0,35,97,0
0,49,120,0
0,42,0,4
0,68,0,53
0,71,0,3
0,68,0,2
0,71,106,9
0,68,116,1
0,68,116,2
0,40,0,2
0,35,0,0
0,42,116,0
0,40,98,0
0,71,0,16
0,68,0,0
0,68,0,6
0,42,0,2
0,49,0,8
0,71,110,8
0,68,114,0
0,68,125,4
0,40,0,4
0,40,88,0
0,35,64,0
0,68,0,11
0,71,0,1
0,68,0,24
0,64,0,3
0,71,112,0
0,68,116,1
0,66,116,3
0,35,0,5
0,40,0,0
0,35,76,0
0,35,97,0
0,42,116,0
0,71,112,4
0,42,0,20
0,66,0,18
0,64,110,2
0,68,0,28
0,71,0,0
0,64,0,16
0,68,116,0
0,71,108,0
0,66,114,5
0,35,0,3
0,40,98,0
0,42,110,0
0,68,0,21
0,71,0,2
0,42,0,1
0,68,118,18
0,71,112,0
0,64,105,1
0,66,0,1
0,35,0,4
0,40,0,0
0,68,0,12
0,71,0,2
0,64,0,16
0,68,120,0
0,71,0,1
0,71,108,1
0,68,116,0
0,64,96,1
0,40,84,1
0,42,114,0
0,35,99,0
0,42,0,3
0,68,0,31
0,71,0,1
0,68,0,0
0,68,114,11
0,71,105,0
0,68,114,0
0,40,95,5
0,42,110,0
0,68,0,15
0,71,0,1
0,68,0,2
0,42,0,6
0,40,0,0
0,71,106,15
0,68,116,0
0,68,125,1
0,35,0,8
0,68,0,7
0,71,0,1
0,68,0,26
0,71,108,2
0,68,116,0
0,71,94,8
0,59,108,0
0,40,0,4
0,35,83,0
0,35,99,0
0,42,106,0
0,68,0,4
0,64,0,0
0,71,0,1
0,42,0,6
0,59,0,4
0,71,106,3
0,68,116,1
0,61,112,4
0,42,89,1
0,68,0,4
0,71,0,2
0,61,0,4
0,42,0,5
0,71,108,11
0,68,118,1
0,64,98,2
0,35,0,10
0,40,100,0
0,42,120,0
0,68,0,5
0,71,0,2
0,64,0,6
0,42,0,11
0,71,106,10
0,68,116,0
0,66,112,2
0,35,0,12
0,40,0,0
0,68,0,2
0,71,0,2
0,66,0,4
0,71,0,14
0,71,108,4
0,68,118,0
0,68,120,0
0,40,78,3
0,35,101,0
0,42,116,0
0,64,106,1
0,71,123,1
0,42,0,1
0,71,0,28
0,68,0,0
0,68,0,5
0,71,106,10
0,68,112,0
0,68,116,3
0,35,0,4
0,40,0,0
0,42,114,0
0,40,98,0
0,68,0,8
0,71,0,1
0,68,0,7
0,42,0,8
0,68,118,12
0,71,108,1
0,68,114,1
0,40,0,10
0,40,81,0
0,35,79,0
0,68,0,3
0,71,0,3
0,68,0,24
0,71,114,8
0,68,118,0
0,66,108,0
0,40,0,10
0,35,0,0
0,35,71,0
0,42,106,0
0,35,99,0
0,42,0,24
0,66,0,11
0,64,106,3
0,71,0,31
0,68,0,0
0,64,0,8
0,66,93,5
0,71,105,3
0,68,114,1
0,35,0,10
0,42,98,0
0,40,95,0
0,71,0,9
0,68,0,1
0,42,0,14
0,71,103,8
0,68,112,0
0,66,0,2
0,64,99,4
0,40,0,10
0,35,0,0
0,71,0,1
0,68,0,1
0,64,0,7
0,71,0,2
0,64,0,5
0,71,110,2
0,68,118,0
0,64,108,4
0,71,123,0
0,64,118,0
0,40,81,4
0,35,103,0
0,42,112,0
0,49,120,2
0,42,0,2
0,68,0,1
0,71,0,1
0,71,99,3
0,35,0,2
0,68,112,0
0,68,0,4
0,71,0,3
0,71,94,10
0,68,110,2
0,68,0,2
0,49,0,0
0,71,0,1
0,71,103,2
0,68,108,0
0,35,95,0
0,42,105,0
0,42,0,4
0,71,0,2
0,68,0,1
0,71,98,3
0,68,112,1
0,35,0,2
0,68,0,3
0,71,0,2
0,68,110,1
0,71,99,1
0,68,0,3
0,71,0,1
0,71,93,2
0,68,99,1
0,35,97,0
0,42,116,0
0,42,0,4
0,35,0,106
0,42,110,48
0,35,97,0
0,42,0,24
0,35,0,3
0,71,0,6
0,64,0,1
0,64,0,4
0,40,0,4
0,71,0,3
0,68,0,1
0,40,79,19
0,35,91,0
0,42,118,0
0,42,0,48
0,40,0,48
0,42,116,0
0,37,120,0
0,42,0,24
0,35,0,24
0,37,0,48
0,35,74,0
0,35,91,0
0,42,116,0
0,42,0,24
0,35,0,72
0,37,118,0
0,42,110,0
0,42,0,24
0,35,0,24
0,42,96,0
0,42,0,24
0,37,0,24
0,40,78,0
0,35,95,0
0,42,118,0
0,42,0,24
0,42,110,72
0,37,120,0
0,42,0,24
0,40,0,0
0,35,0,24
0,37,0,48
0,40,74,0
0,42,108,0
0,35,97,0
0,42,0,24
0,37,118,72
0,42,108,0
0,42,0,24
0,40,0,0
0,35,0,24
0,35,66,0
0,35,0,48
0,37,0,0
0,40,81,0
0,42,106,0
0,35,99,0
0,42,0,24
0,37,118,72
0,42,110,0
0,42,0,24
0,40,0,24
0,35,0,0
0,37,0,48
0,35,67,0
0,35,93,0
0,42,108,0
0,42,0,24
0,35,0,72
0,42,112,0
0,37,118,0
0,42,0,24
0,35,0,24
0,37,0,48
0,40,67,0
0,42,110,0
0,35,97,0
0,42,0,24
0,42,96,24
0,42,0,24
0,42,114,24
0,37,110,0
0,42,0,24
0,40,0,24
0,35,0,0
0,37,0,48
0,35,79,0
0,42,116,0
0,35,97,0
0,42,0,24
0,35,0,72
0,35,0,0
0,37,114,0
0,42,108,0
0,42,0,24
0,35,66,24
0,42,101,0
0,42,0,24
0,35,0,24
0,37,0,0
0,40,76,0
0,35,103,0
0,42,114,0
0,42,0,24
0,35,0,72
0,42,106,0
0,37,116,0
0,42,0,24
0,40,0,48
0,37,0,24
0,35,68,0
0,42,103,0
0,35,97,0
0,42,0,24
0,35,0,72
0,35,0,0
0,42,108,0
0,37,116,0
0,42,0,24
0,37,0,72
0,40,76,0
0,42,110,0
0,35,97,0
0,42,0,24
0,35,0,72
0,42,106,0
0,37,112,0
0,42,0,24
0,40,0,24
0,37,0,48
0,40,78,0
0,35,90,0
0,42,105,0
0,42,0,24
0,35,0,72
0,37,108,0
0,42,106,0
0,42,0,24
0,40,0,0
0,35,66,24
0,42,93,0
0,42,0,24
0,35,0,24
0,37,0,0
0,40,73,0
0,42,110,0
0,35,93,0
0,42,0,24
0,37,112,72
0,42,110,0
0,42,0,24
0,40,0,24
0,35,0,0
0,37,0,48
0,35,73,0
0,42,101,0
0,35,99,0
0,42,0,24
0,35,0,72
0,42,106,0
0,37,116,0
0,42,0,24
0,35,0,24
0,37,0,2
0,40,57,0
0,35,103,0
0,42,112,0
0,42,0,24
0,40,0,48
0,71,110,19
0,64,112,0
0,68,106,1
0,35,0,4
0,28,83,0
0,42,112,0
0,40,98,0
0,68,0,2
0,71,0,5
0,64,0,1
0,42,0,16
0,64,103,14
0,71,110,1
0,68,110,1
0,64,0,7
0,40,0,1
0,68,0,3
0,71,0,2
0,28,0,19
0,71,116,19
0,68,116,1
0,64,101,0
0,30,73,4
0,42,112,0
0,40,100,0
0,64,0,4
0,68,0,4
0,71,0,2
0,42,0,14
0,64,105,16
0,68,114,5
0,71,116,0
0,40,0,3
0,64,0,8
0,68,0,6
0,71,0,3
0,30,0,7
0,68,93,16
0,66,120,0
0,71,98,4
0,64,91,0
0,71,118,0
0,68,123,0
0,32,76,4
0,65,91,0
0,40,98,0
0,42,105,0
0,66,0,5
0,65,0,4
0,68,0,7
0,68,0,1
0,71,0,1
0,71,0,1
0,64,0,1
0,42,0,4
0,71,112,16
0,68,110,0
0,68,114,0
0,68,0,8
0,40,0,0
0,42,98,0
0,40,98,0
0,68,0,11
0,71,0,2
0,32,0,11
0,42,0,0
0,69,99,3
0,69,116,0
0,73,118,0
0,64,94,1
0,73,110,0
0,69,112,2
0,57,88,2
0,40,0,2
0,33,76,0
0,35,99,0
0,42,116,0
0,42,0,3
0,57,0,3
0,69,0,20
0,73,0,5
0,69,0,0
0,69,108,11
0,49,118,2
0,35,0,2
0,33,0,0
0,69,108,0
0,73,114,0
0,42,112,0
0,40,100,0
0,69,0,13
0,73,0,3
0,69,0,1
0,42,0,4
0,49,0,2
0,69,108,10
0,69,112,8
0,73,118,0
0,40,0,4
0,33,64,0
0,35,62,0
0,69,0,3
0,69,0,10
0,73,0,0
0,33,0,10
0,69,116,0
0,73,120,2
0,69,118,0
0,35,0,4
0,33,76,0
0,42,112,0
0,35,97,0
0,42,0,5
0,69,0,5
0,73,0,1
0,69,0,1
0,64,0,0
0,68,82,0
0,69,0,3
0,69,108,2
0,73,110,0
0,73,0,3
0,40,95,0
0,42,112,0
0,73,0,1
0,69,0,3
0,42,0,1
0,68,0,8
0,66,112,8
0,69,110,6
0,73,114,1
0,35,0,1
0,40,0,0
0,33,0,0
0,66,0,20
0,73,0,8
0,69,0,4
0,68,123,9
0,68,114,5
0,71,112,0
0,40,79,2
0,42,112,0
0,35,97,0
0,68,83,6
0,64,73,1
0,71,86,0
0,42,0,4
0,64,0,30
0,68,0,4
0,71,0,6
0,68,0,4
0,68,0,9
0,71,0,4
0,68,114,2
0,68,89,9
0,71,101,1
0,40,98,0
0,42,103,0
0,68,0,5
0,68,0,4
0,71,0,7
0,42,0,6
0,68,114,12
0,68,108,4
0,71,110,1
0,68,0,3
0,35,0,4
0,40,0,0
0,42,99,0
0,68,0,5
0,71,0,7
0,40,0,12
0,42,0,0
0,68,105,12
0,76,98,0
0,71,105,0
0,68,120,2
0,68,116,2
0,71,114,0
0,40,84,3
0,35,97,0
0,42,114,0
0,42,0,19
0,68,0,46
0,71,0,4
0,68,0,2
0,66,105,7
0,71,0,1
0,71,99,5
0,68,93,1
0,76,0,4
0,40,100,1
0,42,106,0
0,68,0,1
0,68,0,2
0,71,0,10
0,42,0,5
0,66,0,2
0,64,93,4
0,68,103,4
0,71,105,0
0,40,0,2
0,35,0,0
0,40,0,0
0,68,0,8
0,71,0,1
0,64,0,3
0,66,114,1
0,66,120,0
0,75,96,0
0,71,110,0
0,71,105,0
0,66,108,1
0,35,74,1
0,35,97,0
0,42,112,0
0,42,0,3
0,66,0,4
0,66,0,2
0,71,0,3
0,66,103,1
0,66,93,3
0,35,0,2
0,71,103,0
0,42,110,0
0,40,98,0
0,66,0,1
0,66,0,3
0,71,0,3
0,42,0,1
0,35,0,0
0,66,114,5
0,66,99,4
0,71,99,1
0,40,0,5
0,35,71,0
0,35,66,0
0,66,0,2
0,66,0,6
0,71,0,8
0,35,0,7
0,66,120,19
0,66,114,2
0,71,110,1
0,35,0,3
0,35,88,0
0,35,97,0
0,42,110,0
0,42,0,24
0,71,0,36
0,75,0,2
