track,note,velocity,time
1,54,127,0
1,54,0,25
1,54,127,0
1,54,0,25
1,54,127,0
1,54,0,26
1,54,127,0
1,54,0,26
1,54,127,0
1,54,0,27
1,56,127,0
1,56,0,24
1,54,127,0
1,54,0,26
1,56,127,0
1,56,0,28
1,54,127,0
1,54,0,28
1,54,127,0
1,54,0,29
1,56,127,0
1,56,0,40
1,54,127,0
1,54,0,31
1,56,127,0
1,56,0,27
1,54,127,0
1,54,0,27
1,56,127,0
1,56,0,27
1,54,127,0
1,54,0,24
1,56,124,0
1,56,0,31
1,54,127,0
1,54,0,26
1,56,127,0
1,56,0,26
1,54,127,0
1,54,0,28
1,56,127,0
1,56,0,26
1,54,127,0
1,54,0,25
1,56,127,0
1,56,0,31
1,54,127,0
1,54,0,28
1,56,127,0
1,56,0,28
1,54,127,0
1,54,0,26
1,56,127,0
1,56,0,27
1,54,127,0
1,54,0,25
1,56,127,0
1,56,0,25
1,54,127,0
1,54,0,27
1,56,127,0
1,56,0,26
1,54,127,0
1,54,0,27
1,56,127,0
1,56,0,29
1,56,127,0
1,56,0,27
1,54,124,0
1,54,0,26
1,56,127,0
1,56,0,27
1,54,127,0
1,54,0,24
1,56,127,0
1,56,0,24
1,56,127,0
1,56,0,27
1,54,127,0
1,54,0,26
1,56,127,0
1,56,0,30
1,54,127,0
1,54,0,27
1,56,127,0
1,56,0,28
1,54,127,0
1,54,0,26
1,56,127,0
1,56,0,32
1,54,124,0
1,54,0,32
1,56,116,0
1,56,0,37
1,54,127,0
1,54,0,29
1,56,127,0
1,56,0,27
1,54,127,0
1,54,0,30
1,56,127,0
1,56,0,34
1,54,127,0
1,54,0,35
1,56,120,0
1,56,0,32
1,54,127,0
1,54,0,30
1,56,127,0
1,56,0,27
1,54,127,0
1,54,0,28
1,56,127,0
1,56,0,27
1,54,127,0
1,54,0,27
1,56,124,0
1,56,0,30
1,54,127,0
1,54,0,26
1,56,127,0
1,56,0,29
1,54,127,0
1,54,0,29
1,56,127,0
1,56,0,31
1,54,124,0
1,54,0,34
1,56,116,0
1,56,0,34
1,54,127,0
1,54,0,30
1,56,127,0
1,56,0,29
1,54,127,0
1,54,0,29
1,56,127,0
1,56,0,36
1,54,127,0
1,54,0,30
1,54,127,0
1,54,0,26
1,56,127,0
1,56,0,34
1,54,127,0
1,54,0,26
1,56,127,0
1,56,0,29
1,54,127,0
1,54,0,24
1,54,124,0
1,54,0,27
1,56,124,0
1,56,0,31
1,54,127,0
1,54,0,28
1,56,127,0
1,56,0,30
1,54,127,0
1,54,0,28
1,56,127,0
1,56,0,24
1,54,127,0
1,54,0,25
1,56,124,0
1,56,0,29
1,54,120,0
1,54,0,26
1,56,127,0
1,56,0,23
1,54,127,0
1,54,0,22
1,56,127,0
1,56,0,29
1,54,124,0
1,54,0,30
1,56,116,0
1,56,0,29
1,54,127,0
1,54,0,29
1,56,127,0
1,56,0,28
1,54,127,0
1,54,0,29
1,56,127,0
1,56,0,28
1,54,127,0
1,54,0,27
1,56,127,0
1,56,0,29
1,54,127,0
1,54,0,28
1,56,124,0
1,56,0,32
1,54,127,0
1,54,0,25
1,56,127,0
1,56,0,24
1,54,127,0
1,54,0,26
1,56,127,0
1,56,0,24
1,54,127,0
1,54,0,28
1,56,127,0
1,56,0,28
1,54,127,0
1,54,0,27
1,56,127,0
1,56,0,30
1,54,127,0
1,54,0,26
1,56,127,0
1,56,0,21
1,56,124,0
1,56,0,32
1,54,124,0
1,54,0,25
1,56,124,0
1,56,0,33
1,54,127,0
1,54,0,26
1,56,127,0
1,56,0,25
1,54,127,0
1,54,0,27
1,56,127,0
1,56,0,33
1,54,127,0
1,54,0,30
1,56,127,0
1,56,0,31
1,54,127,0
1,54,0,27
1,56,127,0
1,56,0,33
1,54,127,0
1,54,0,28
1,54,127,0
1,54,0,31
1,56,127,0
1,56,0,36
1,54,127,0
1,54,0,27
1,56,127,0
1,56,0,32
1,54,127,0
1,54,0,29
1,54,124,0
1,54,0,27
1,56,124,0
1,56,0,30
1,54,127,0
1,54,0,24
1,56,127,0
1,56,0,30
1,54,127,0
1,54,0,26
1,56,124,0
1,56,0,34
1,54,127,0
1,54,0,26
1,56,127,0
1,56,0,27
1,54,124,0
1,54,0,23
1,56,124,0
1,56,0,31
1,54,127,0
1,54,0,23
1,56,127,0
1,56,0,26
1,56,127,0
1,56,0,33
1,54,124,0
1,54,0,27
1,56,127,0
1,56,0,24
1,54,124,0
1,54,0,26
1,56,127,0
1,56,0,28
1,54,127,0
1,54,0,27
1,56,127,0
1,56,0,30
1,54,124,0
1,54,0,26
1,56,112,0
1,56,0,33
1,54,127,0
1,54,0,26
1,56,127,0
1,56,0,26
1,54,127,0
1,54,0,28
1,56,127,0
1,56,0,30
1,56,127,0
1,56,0,24
1,56,127,0
1,56,0,26
1,54,127,0
1,54,0,27
1,56,127,0
1,56,0,26
1,54,127,0
1,54,0,27
1,56,127,0
1,56,0,28
1,54,127,0
1,54,0,25
1,54,127,0
1,54,0,29
1,56,127,0
1,56,0,32
1,54,127,0
1,54,0,27
1,56,127,0
1,56,0,28
1,54,127,0
1,54,0,25
1,56,127,0
1,56,0,31
1,54,127,0
1,54,0,34
1,56,124,0
1,56,0,38
1,54,127,0
1,54,0,30
1,56,127,0
1,56,0,29
1,54,127,0
1,54,0,30
1,56,127,0
1,56,0,40
1,54,127,0
1,54,0,23
1,54,127,0
1,54,0,29
1,56,116,0
1,56,0,22
1,54,106,0
1,54,0,29
1,56,127,0
1,56,0,31
1,54,127,0
1,54,0,25
1,56,127,0
1,56,0,23
1,56,127,0
1,56,0,27
1,54,124,0
1,54,0,28
1,56,127,0
1,56,0,31
1,54,127,0
1,54,0,28
1,56,120,0
1,56,0,36
1,54,127,0
1,54,0,25
1,56,127,0
1,56,0,26
1,54,127,0
1,54,0,25
1,56,127,0
1,56,0,30
1,54,124,0
1,54,0,31
1,56,120,0
1,56,0,36
1,54,127,0
1,54,0,30
1,56,127,0
1,56,0,28
1,54,127,0
1,54,0,26
1,56,124,0
1,56,0,30
1,54,127,0
1,54,0,30
1,56,109,0
1,56,0,32
1,54,127,0
1,54,0,27
1,56,127,0
1,56,0,27
1,54,127,0
1,54,0,30
1,56,127,0
1,56,0,26
1,54,127,0
1,54,0,30
1,56,127,0
1,56,0,26
1,54,127,0
1,54,0,29
1,56,127,0
1,56,0,33
1,54,127,0
1,54,0,28
1,56,127,0
1,56,0,29
1,54,127,0
1,54,0,25
1,54,127,0
1,54,0,26
1,56,127,0
1,56,0,26
1,54,127,0
1,54,0,29
1,56,127,0
1,56,0,29
1,54,127,0
1,54,0,24
1,56,127,0
1,56,0,25
1,56,127,0
1,56,0,27
1,54,124,0
1,54,0,32
1,56,116,0
1,56,0,37
1,54,120,0
1,54,0,24
1,56,127,0
1,56,0,27
1,54,127,0
1,54,0,27
1,54,127,0
1,54,0,26
1,56,127,0
1,56,0,30
1,54,127,0
1,54,0,30
1,56,127,0
1,56,0,27
1,54,127,0
1,54,0,26
1,56,127,0
1,56,0,26
1,56,127,0
1,56,0,30
1,54,124,0
1,54,0,27
1,56,127,0
1,56,0,23
1,54,127,0
1,54,0,26
1,56,127,0
1,56,0,23
1,56,124,0
1,56,0,30
1,54,127,0
1,54,0,30
1,56,127,0
1,56,0,26
1,54,124,0
1,54,0,28
1,56,124,0
1,56,0,33
1,54,127,0
1,54,0,26
1,56,127,0
1,56,0,24
1,56,127,0
1,56,0,29
1,54,127,0
1,54,0,29
1,56,124,0
1,56,0,32
1,54,124,0
1,54,0,26
1,56,127,0
1,56,0,27
1,54,127,0
1,54,0,31
1,56,124,0
1,56,0,29
1,54,127,0
1,54,0,28
1,56,127,0
1,56,0,29
1,54,127,0
1,54,0,24
1,56,127,0
1,56,0,24
1,56,127,0
1,56,0,27
1,54,116,0
1,54,0,33
1,56,112,0
1,56,0,32
1,54,120,0
1,54,0,27
1,56,127,0
1,56,0,27
1,54,127,0
1,54,0,26
1,56,124,0
1,56,0,29
1,54,127,0
1,54,0,30
1,56,127,0
1,56,0,24
1,54,127,0
1,54,0,25
1,56,127,0
1,56,0,27
1,54,127,0
1,54,0,25
1,56,124,0
1,56,0,29
1,54,120,0
1,54,0,31
1,56,120,0
1,56,0,33
1,54,127,0
1,54,0,28
1,56,127,0
1,56,0,26
1,54,127,0
1,54,0,26
2,62,75,28514
2,64,100,20
2,62,0,5
2,64,0,45
2,64,124,85
2,64,0,5
2,62,81,0
2,62,0,295
2,55,103,135
2,55,0,105
2,57,108,0
2,57,0,30
2,55,110,55
2,55,0,20
2,57,119,25
2,57,0,25
2,60,75,0
2,60,0,30
2,62,95,45
2,62,0,15
2,63,109,35
2,63,0,5
2,62,95,0
2,62,0,30
2,62,98,50
2,62,0,30
2,59,94,20
2,57,70,0
2,59,0,5
2,57,0,80
2,57,86,0
2,61,99,35
2,57,0,5
2,64,95,75
2,61,0,5
2,64,0,35
2,67,96,0
2,71,78,70
2,67,0,15
2,71,0,25
2,74,83,0
2,74,0,70
2,71,82,5
2,73,101,50
2,71,0,5
2,73,0,45
2,76,72,20
2,78,88,50
2,76,0,10
2,78,0,65
2,81,86,15
2,81,0,140
2,78,108,35
2,74,102,45
2,78,0,5
2,74,0,70
2,69,72,5
2,72,99,45
2,69,0,5
2,72,0,110
2,66,108,10
2,66,0,75
2,65,112,0
2,65,0,35
2,64,103,5
2,62,80,80
2,64,0,10
2,62,0,220
3,31,103,1554
3,31,0,90
3,31,94,30
3,31,0,80
3,31,98,40
3,31,0,80
3,31,102,40
3,31,0,90
3,36,98,30
3,36,0,90
3,36,87,30
3,36,0,80
3,36,95,40
3,36,0,75
3,36,87,45
3,36,0,80
3,31,98,40
3,31,0,80
3,31,86,40
3,31,0,85
3,31,89,35
3,31,0,75
3,31,92,45
3,31,0,70
3,31,94,50
3,31,0,75
3,31,88,45
3,31,0,65
3,31,91,55
3,31,0,50
3,26,99,40
3,28,94,30
3,26,0,5
3,28,0,80
3,30,93,5
3,30,0,30
3,31,100,0
3,31,0,85
3,31,85,35
3,31,0,80
3,31,88,40
3,31,0,80
3,31,86,40
3,31,0,75
3,31,98,45
3,31,0,80
3,31,89,40
3,31,0,80
3,36,94,40
3,36,0,100
3,37,101,20
3,37,0,100
3,38,92,20
3,38,0,90
3,38,87,30
3,38,0,85
3,38,86,35
3,38,0,80
3,38,92,40
3,38,0,70
3,38,98,50
3,38,0,110
3,36,110,10
3,36,0,110
3,35,89,10
3,35,0,120
3,33,95,0
3,33,0,110
3,31,106,10
3,31,0,80
3,31,95,40
3,31,0,85
3,31,91,35
3,31,0,80
3,31,88,40
3,31,0,90
3,36,89,30
3,36,0,85
3,36,94,35
3,36,0,80
3,36,94,40
3,36,0,70
3,36,93,50
3,36,0,75
3,31,94,45
3,31,0,115
3,33,88,5
3,33,0,115
3,34,99,5
3,34,0,110
3,35,86,10
3,35,0,110
3,36,86,10
3,36,0,85
3,36,86,35
3,36,0,85
3,36,94,35
3,36,0,80
3,36,89,40
3,36,0,85
3,31,99,35
3,31,0,0
3,31,98,0
3,31,0,110
3,31,98,10
3,31,0,95
3,36,98,25
3,36,0,100
3,37,101,20
3,37,0,100
3,38,92,20
3,38,0,95
3,38,88,25
3,38,0,95
3,38,88,25
3,38,0,85
3,38,99,35
3,38,0,60
3,43,98,60
3,43,0,115
3,40,96,5
3,40,0,115
3,38,99,5
3,38,0,60
3,33,100,30
3,33,0,25
3,35,88,5
3,35,0,120
3,36,103,480
3,36,0,225
3,43,95,15
3,43,0,220
3,36,100,20
3,36,0,200
3,36,91,40
3,36,0,215
3,31,89,25
3,31,0,215
3,38,90,25
3,38,0,210
3,31,108,30
3,31,0,205
3,31,106,35
3,31,0,160
3,33,92,80
3,33,0,220
3,40,90,20
3,40,0,210
3,33,100,30
3,33,0,205
3,33,93,35
3,33,0,140
3,38,105,100
3,38,0,215
3,33,95,25
3,33,0,215
3,38,98,25
3,38,0,205
3,33,92,35
3,33,0,200
3,36,95,40
3,36,0,215
3,43,95,25
3,43,0,210
3,36,99,30
3,36,0,215
3,36,96,25
3,36,0,180
3,31,105,60
3,31,0,205
3,31,103,35
3,31,0,100
3,35,106,20
3,35,0,105
3,36,98,15
3,36,0,215
3,36,96,25
3,36,0,200
3,31,91,40
3,31,0,200
3,35,92,40
3,35,0,100
3,36,85,20
3,36,0,95
3,38,94,25
3,38,0,215
3,38,95,25
3,38,0,195
3,43,95,45
3,43,0,115
3,40,100,5
3,40,0,105
3,38,96,15
3,38,0,75
3,33,112,15
3,33,0,25
3,35,76,5
3,35,0,105
3,31,99,15
3,31,0,95
3,31,99,385
3,31,0,95
3,31,99,25
3,31,0,80
3,31,100,40
3,31,0,85
3,31,105,35
3,31,0,85
3,36,94,35
3,36,0,85
3,36,95,35
3,36,0,80
3,36,96,40
3,36,0,80
3,36,93,40
3,36,0,85
3,31,102,35
3,31,0,85
3,31,92,35
3,31,0,85
3,31,102,35
3,31,0,80
3,31,95,40
3,31,0,80
3,31,92,40
3,31,0,80
3,31,98,40
3,31,0,65
3,31,100,55
3,31,0,55
3,26,106,35
3,28,88,30
3,26,0,5
3,28,0,75
3,30,99,10
3,31,105,30
3,30,0,5
3,31,0,80
3,31,82,35
3,31,0,90
3,31,88,30
3,31,0,75
3,31,95,45
3,31,0,75
3,31,93,45
3,31,0,85
3,31,100,35
3,31,0,85
3,35,106,35
3,35,0,90
3,36,105,30
3,36,0,95
3,38,108,25
3,38,0,90
3,38,99,30
3,38,0,80
3,38,100,40
3,38,0,85
3,38,102,35
3,38,0,70
3,38,105,50
3,38,0,0
3,38,106,0
3,33,92,90
3,38,0,20
3,33,0,5
3,36,98,5
3,36,0,120
3,35,105,0
3,35,0,105
3,33,93,15
3,33,0,115
3,31,98,5
3,31,0,90
3,31,102,30
3,31,0,90
3,31,95,30
3,31,0,85
3,31,93,35
3,31,0,85
3,36,95,35
3,36,0,85
3,36,94,35
3,36,0,85
3,36,94,35
3,36,0,75
3,36,88,45
3,36,0,70
3,31,94,50
3,31,0,100
3,33,84,20
3,33,0,115
3,34,93,5
3,34,0,100
3,35,95,20
3,35,0,100
3,36,93,20
3,36,0,90
3,36,86,30
3,36,0,85
3,36,86,35
3,36,0,75
3,36,89,45
3,36,0,85
3,31,105,35
3,31,0,95
3,31,95,25
3,31,0,90
3,35,95,30
3,35,0,90
3,36,92,30
3,36,0,95
3,38,99,25
3,38,0,95
3,38,84,25
3,38,0,75
3,38,89,45
3,38,0,75
3,38,92,45
3,38,0,60
3,31,110,60
3,31,0,80
3,31,102,40
3,31,0,85
3,31,95,35
3,31,0,85
3,31,93,35
3,31,0,75
3,31,102,45
3,31,0,60
3,26,112,15
3,26,0,15
3,28,102,10
3,28,0,110
3,29,112,20
3,29,0,100
3,30,93,15
3,30,0,110
3,31,95,20
3,31,0,5
3,31,80,0
3,31,0,0
3,31,96,0
3,31,0,95
3,31,91,25
3,31,0,80
3,31,92,40
3,31,0,90
3,31,91,30
3,31,0,90
3,36,95,30
3,36,0,80
3,36,82,40
3,36,0,85
3,36,84,35
3,36,0,75
3,36,86,45
3,36,0,75
3,31,90,45
3,31,0,100
3,33,86,20
3,33,0,105
3,34,89,15
3,34,0,85
3,35,90,35
3,35,0,95
3,36,86,25
3,36,0,90
3,36,82,30
3,36,0,80
3,36,88,40
3,36,0,80
3,36,89,40
3,36,0,85
3,31,90,35
3,31,0,80
3,31,85,40
3,31,0,95
3,36,86,25
3,36,0,100
3,37,101,20
3,37,0,95
3,38,93,25
3,38,0,90
3,38,90,30
3,38,0,85
3,38,89,35
3,38,0,80
3,38,83,40
3,38,0,50
3,43,92,70
3,43,0,110
3,40,99,10
3,40,0,115
3,38,88,5
3,38,0,70
3,33,110,20
3,33,0,25
3,35,87,5
3,35,0,110
3,36,99,490
3,36,0,205
3,43,100,35
3,43,0,215
3,36,98,25
3,36,0,200
3,36,98,40
3,36,0,185
