track,note,velocity,time
4,57,127,4620
4,62,127,60
4,57,0,10
4,62,0,36
4,57,127,14
4,57,0,55
4,62,127,5
4,62,0,29
4,62,127,31
4,62,0,29
4,62,127,31
4,62,0,27
4,62,127,33
4,59,127,60
4,62,0,1
4,59,0,113
4,57,127,6
4,54,127,60
4,57,0,7
4,54,0,29
4,57,127,24
4,57,0,22
4,57,127,38
4,57,0,25
4,57,127,35
4,57,0,55
4,59,127,5
4,59,0,37
4,52,127,23
4,50,127,32
4,52,0,7
4,50,0,434
4,57,127,459
4,59,127,60
4,57,0,12
4,59,0,40
4,57,127,8
4,57,0,58
4,62,127,2
4,62,0,26
4,62,127,34
4,62,0,24
4,62,127,36
4,62,0,110
4,59,127,10
4,59,0,46
4,57,127,14
4,57,0,28
4,57,127,32
4,57,0,37
4,54,127,23
4,54,0,26
4,57,127,34
4,57,0,29
4,57,127,31
4,57,0,20
4,57,127,40
4,57,0,60
4,59,127,0
4,59,0,33
4,52,127,27
4,52,0,29
4,50,127,7
4,50,0,420
4,50,127,480
4,50,0,57
4,55,127,3
4,55,0,48
4,53,127,12
4,53,0,59
4,55,127,1
4,53,127,60
4,55,0,8
4,53,0,32
4,55,127,20
4,55,0,46
4,53,127,14
4,53,0,27
4,55,127,33
4,53,127,60
4,55,0,3
4,53,0,41
4,53,127,76
4,53,0,31
4,55,127,29
4,55,0,47
4,53,127,13
4,53,0,39
4,55,127,21
4,55,0,54
4,53,127,6
4,53,0,43
4,57,127,17
4,57,0,100
4,45,127,80
4,47,127,60
4,45,0,10
4,47,0,23
4,38,127,87
4,38,0,29
4,38,127,31
4,38,0,39
4,40,127,21
4,40,0,96
4,38,127,24
4,38,0,17
4,38,127,43
4,38,0,28
4,40,127,32
4,40,0,42
4,38,127,18
4,38,0,28
4,40,127,32
4,40,0,55
4,41,127,65
4,43,127,0
4,43,0,20
4,41,0,56
4,55,127,164
4,55,0,26
4,55,127,34
4,55,0,87
4,53,127,33
4,53,0,30
4,55,127,30
4,55,0,51
4,53,127,9
4,53,0,47
4,53,127,73
4,53,0,25
4,62,127,35
4,62,0,85
4,62,127,35
4,62,0,27
4,62,127,33
4,62,0,49
4,59,127,11
4,59,0,51
4,57,127,9
4,57,127,60
4,57,0,3
4,57,0,34
4,57,127,23
4,57,0,50
4,62,127,10
4,62,0,55
4,62,127,65
4,62,0,73
4,57,127,47
4,57,0,105
4,54,127,15
4,54,0,40
4,50,127,20
4,54,127,60
4,50,0,3
4,57,127,57
4,54,0,1
4,57,0,57
4,52,127,2
4,52,0,37
4,50,127,18
4,50,0,117
4,62,127,1923
4,62,0,30
4,62,127,30
4,62,0,21
4,62,127,39
4,62,0,24
4,62,127,36
4,62,0,25
4,62,127,35
4,62,0,24
4,62,127,36
4,62,0,31
4,59,127,29
4,59,0,52
4,57,127,8
4,57,0,30
4,57,127,30
4,57,0,35
4,54,127,25
4,54,0,22
4,57,127,38
4,57,0,25
4,57,127,35
4,57,0,24
4,57,127,36
4,57,0,48
4,59,127,12
4,59,0,36
4,52,127,24
4,52,0,36
4,50,127,11
4,50,0,234
4,57,127,726
4,57,0,24
4,57,127,36
4,57,0,43
4,62,127,17
4,62,0,29
4,62,127,31
4,62,0,24
4,62,127,36
4,62,0,23
4,62,127,37
4,62,0,30
4,59,127,30
4,59,0,40
4,57,127,20
4,57,0,26
4,57,127,34
4,57,0,68
4,57,127,52
4,57,0,24
4,57,127,36
4,57,0,29
4,57,127,31
4,59,127,60
4,57,0,4
4,59,0,22
4,52,127,34
4,52,0,48
4,50,127,6
4,50,0,240
4,55,127,720
4,55,0,48
4,53,127,12
4,53,0,35
4,55,127,25
4,55,0,44
4,53,127,16
4,53,0,31
4,55,127,29
4,55,0,37
4,53,127,23
4,53,0,26
4,55,127,34
4,55,0,50
4,55,127,70
4,55,0,44
4,53,127,16
4,53,0,33
4,55,127,27
4,55,0,29
4,55,127,31
4,55,0,71
4,53,127,49
4,53,0,29
4,57,127,31
4,57,0,79
4,45,127,101
4,47,127,60
4,45,0,4
4,47,0,55
4,38,127,61
4,38,0,33
4,38,127,27
4,38,0,22
4,38,127,38
4,38,0,74
4,38,127,46
4,38,0,16
4,38,127,44
4,38,0,31
4,40,127,29
4,40,0,35
4,38,127,25
4,38,0,30
4,40,127,30
4,40,0,43
4,38,127,77
4,38,0,105
4,55,127,135
4,55,0,26
4,55,127,34
4,55,0,87
4,53,127,33
4,53,0,30
4,55,127,30
4,55,0,51
4,53,127,9
4,53,0,47
4,53,127,73
4,53,0,25
4,62,127,35
4,62,0,85
4,62,127,35
4,62,0,27
4,62,127,33
4,62,0,49
4,59,127,11
4,59,0,51
4,57,127,9
4,57,127,60
4,57,0,3
4,57,0,34
4,57,127,23
4,57,0,50
4,62,127,10
4,62,0,55
4,62,127,65
4,62,0,73
4,57,127,47
4,57,0,105
4,54,127,15
4,54,0,40
4,50,127,20
4,54,127,60
4,50,0,3
4,57,127,57
4,54,0,1
4,57,0,57
4,52,127,2
4,52,0,37
4,50,127,18
4,50,0,117
4,57,127,9543
4,57,0,52
4,59,127,8
4,59,0,51
4,57,127,9
4,57,0,33
4,62,127,27
4,62,0,61
4,62,127,59
4,62,0,51
4,59,127,69
4,59,0,64
4,57,127,56
4,57,0,50
4,54,127,10
4,54,0,37
4,57,127,23
4,57,0,51
4,54,127,9
4,54,0,39
4,59,127,21
4,59,0,76
4,52,127,44
4,52,0,60
4,50,127,0
4,50,0,322
4,57,127,578
4,57,0,47
4,59,127,13
4,59,0,43
4,57,127,17
4,57,0,30
4,62,127,30
4,62,0,53
4,62,127,67
4,62,0,44
4,59,127,76
4,57,127,60
4,59,0,9
4,57,0,16
4,57,127,35
4,57,0,30
4,54,127,30
4,54,0,26
4,57,127,34
4,57,0,24
4,57,127,36
4,59,127,120
4,57,0,1
4,59,0,29
4,52,127,30
4,52,0,40
4,50,127,5
4,50,0,262
4,55,127,698
4,55,0,58
4,53,127,2
4,53,0,38
4,55,127,22
4,55,0,96
4,53,127,24
4,53,0,33
4,55,127,27
4,55,0,112
4,53,127,8
4,53,0,33
4,55,127,27
4,55,0,28
4,53,127,32
4,53,0,18
4,55,127,42
4,55,0,39
4,53,127,21
4,53,0,68
4,57,127,112
4,57,0,62
4,45,127,118
4,47,127,60
4,45,0,12
4,47,0,43
4,38,127,5
4,38,0,50
4,38,127,70
4,40,127,60
4,38,0,2
4,40,0,78
4,38,127,40
4,38,0,24
4,38,127,36
4,38,0,23
4,40,127,37
4,40,0,35
4,38,127,25
4,38,0,31
4,40,127,29
4,40,0,41
4,38,127,79
4,38,0,100
4,55,127,140
4,55,0,26
4,55,127,34
4,55,0,87
4,53,127,33
4,53,0,30
4,55,127,30
4,55,0,51
4,53,127,9
4,53,0,47
4,53,127,73
4,53,0,25
4,62,127,35
4,62,0,85
4,62,127,35
4,62,0,27
4,62,127,33
4,62,0,49
4,59,127,11
4,59,0,51
4,57,127,9
4,57,127,60
4,57,0,3
4,57,0,34
4,57,127,23
4,57,0,50
4,62,127,10
4,62,0,55
4,62,127,65
4,62,0,73
4,57,127,47
4,57,0,105
4,54,127,15
4,54,0,40
4,50,127,20
4,54,127,60
4,50,0,3
4,57,127,57
4,54,0,1
4,57,0,57
4,52,127,2
4,52,0,37
4,50,127,18
4,50,0,117
4,57,127,9543
4,57,0,57
4,59,127,3
4,57,127,60
4,59,0,4
4,57,0,30
4,62,127,26
4,62,0,30
4,62,127,30
4,62,0,25
4,62,127,35
4,62,0,26
4,62,127,34
4,62,0,25
4,59,127,35
4,59,0,68
4,57,127,52
4,57,0,47
4,57,127,73
4,57,0,25
4,57,127,35
4,57,0,21
4,57,127,39
4,57,0,55
4,59,127,5
4,59,0,50
4,52,127,10
4,50,127,31
4,52,0,18
4,50,0,174
4,57,127,708
4,59,127,60
4,57,0,12
4,59,0,40
4,57,127,8
4,57,0,58
4,62,127,2
4,62,0,26
4,62,127,34
4,62,0,24
4,62,127,36
4,62,0,110
4,59,127,10
4,59,0,46
4,57,127,14
4,57,0,28
4,57,127,32
4,57,0,37
4,54,127,23
4,54,0,26
4,57,127,34
4,57,0,29
4,57,127,31
4,57,0,20
4,57,127,40
4,57,0,60
4,59,127,0
4,59,0,33
4,52,127,27
4,52,0,29
4,50,127,7
4,50,0,420
4,55,127,660
4,55,0,25
4,55,127,35
4,55,0,98
4,53,127,22
4,53,0,30
4,55,127,30
4,55,0,44
4,53,127,16
4,53,0,47
4,53,127,73
4,53,0,21
4,62,127,39
4,62,0,25
4,62,127,35
4,62,0,23
4,62,127,37
4,62,0,22
4,62,127,38
4,62,0,26
4,59,127,34
4,59,0,52
4,57,127,8
4,57,127,60
4,57,0,22
4,57,0,1
4,57,127,37
4,57,0,30
4,62,127,30
4,62,0,73
4,62,127,47
4,62,0,62
4,59,127,58
4,57,127,60
4,59,0,14
4,57,0,22
4,50,127,24
4,50,0,28
4,50,127,32
4,50,0,46
4,54,127,14
4,54,0,53
4,57,127,7
4,57,0,54
4,52,127,6
4,52,0,58
4,50,127,5
4,50,0,129
4,55,127,951
4,55,0,109
4,55,127,11
4,55,0,25
4,55,127,35
4,55,0,98
4,53,127,22
4,53,0,30
4,55,127,30
4,55,0,44
4,53,127,16
4,53,0,47
4,53,127,73
4,53,0,21
4,62,127,39
4,62,0,25
4,62,127,35
4,62,0,23
4,62,127,37
4,62,0,22
4,62,127,38
4,62,0,26
4,59,127,34
4,59,0,52
4,57,127,8
4,57,127,60
4,57,0,22
4,57,0,1
4,57,127,37
4,57,0,30
4,62,127,30
4,62,0,92
4,62,127,28
4,62,0,79
4,59,127,41
4,59,0,83
4,50,127,37
4,50,0,33
4,50,127,27
4,50,0,40
4,54,127,20
4,54,0,54
4,57,127,6
4,57,0,58
4,52,127,2
4,52,0,51
4,50,127,3
4,50,0,120
4,59,127,960
4,57,127,60
4,59,0,11
4,57,0,24
4,62,127,25
4,62,0,80
4,62,127,40
4,62,0,81
4,59,127,39
4,57,127,120
4,59,0,11
4,57,0,21
4,50,127,28
4,54,127,60
4,50,0,12
4,54,0,40
4,57,127,8
4,57,0,50
4,52,127,10
4,52,0,47
4,50,127,7
4,50,0,322
5,38,127,2877
5,38,0,96
5,33,127,144
5,33,0,107
5,38,127,133
5,38,0,97
5,33,127,143
5,33,0,89
5,38,127,151
5,38,0,81
5,33,127,159
5,33,0,108
5,38,127,132
5,38,0,93
5,33,127,27
5,33,0,85
5,35,127,35
5,35,0,73
5,37,127,47
5,37,0,81
5,38,127,39
5,38,0,93
5,33,127,147
5,33,0,110
5,38,127,130
5,38,0,97
5,33,127,143
5,33,0,107
5,38,127,133
5,38,0,96
5,33,127,144
5,33,0,133
5,38,127,107
5,38,0,103
5,33,127,137
5,36,127,120
5,33,0,15
5,36,0,77
5,38,127,28
5,38,0,98
5,33,127,142
5,33,0,90
5,38,127,150
5,38,0,98
5,33,127,142
5,33,0,98
5,38,127,142
5,38,0,90
5,33,127,150
5,33,0,106
5,38,127,134
5,38,0,114
5,35,127,126
5,33,127,120
5,35,0,10
5,33,0,81
5,31,127,29
5,31,0,107
5,38,127,133
5,38,0,135
5,31,127,105
5,31,0,128
5,38,127,112
5,38,0,134
5,26,127,106
5,26,0,102
5,31,127,858
5,31,0,123
5,38,127,117
5,38,0,123
5,31,127,117
5,31,0,145
5,38,127,95
5,38,0,78
5,28,127,42
5,28,0,43
5,26,127,9
5,26,0,86
5,38,127,874
5,38,0,96
5,33,127,144
5,33,0,107
5,38,127,133
5,38,0,97
5,33,127,143
5,33,0,89
5,38,127,151
5,38,0,81
5,33,127,159
5,33,0,108
5,38,127,132
5,38,0,93
5,33,127,27
5,33,0,85
5,35,127,35
5,35,0,73
5,37,127,47
5,37,0,81
5,38,127,39
5,38,0,93
5,33,127,147
5,33,0,110
5,38,127,130
5,38,0,97
5,33,127,143
5,33,0,107
5,38,127,133
5,38,0,96
5,33,127,144
5,33,0,133
5,38,127,107
5,38,0,103
5,33,127,137
5,36,127,120
5,33,0,15
5,36,0,77
5,38,127,28
5,38,0,98
5,33,127,142
5,33,0,90
5,38,127,150
5,38,0,98
5,33,127,142
5,33,0,98
5,38,127,142
5,38,0,90
5,33,127,150
5,33,0,106
5,38,127,134
5,38,0,114
5,35,127,126
5,33,127,120
5,35,0,10
5,33,0,81
5,31,127,29
5,31,0,107
5,38,127,133
5,38,0,135
5,31,127,105
5,31,0,128
5,38,127,112
5,38,0,134
5,26,127,106
5,26,0,102
5,31,127,858
5,31,0,123
5,38,127,117
5,38,0,123
5,31,127,117
5,31,0,145
5,38,127,95
5,38,0,78
5,28,127,42
5,28,0,43
5,26,127,9
5,26,0,86
5,38,127,873
5,38,0,93
5,33,127,147
5,33,0,110
5,38,127,130
5,38,0,97
5,33,127,143
5,33,0,107
5,38,127,133
5,38,0,96
5,33,127,144
5,33,0,133
5,38,127,107
5,38,0,103
5,33,127,137
5,36,127,120
5,33,0,15
5,36,0,77
5,38,127,28
5,38,0,98
5,33,127,142
5,33,0,90
5,38,127,150
5,38,0,98
5,33,127,142
5,33,0,98
5,38,127,142
5,38,0,90
5,33,127,150
5,33,0,106
5,38,127,134
5,38,0,114
5,35,127,126
5,33,127,120
5,35,0,10
5,33,0,81
5,31,127,29
5,31,0,107
5,38,127,133
5,38,0,135
5,31,127,105
5,31,0,128
5,38,127,112
5,38,0,134
5,38,127,106
5,38,0,90
5,33,127,150
5,33,0,106
5,38,127,134
5,38,0,114
5,35,127,126
5,33,127,120
5,35,0,10
5,33,0,81
5,31,127,29
5,31,0,107
5,38,127,133
5,38,0,135
5,31,127,105
5,31,0,128
5,38,127,112
5,38,0,134
5,26,127,106
5,26,0,102
5,38,127,858
5,38,0,96
5,33,127,144
5,33,0,107
5,38,127,133
5,38,0,97
5,33,127,143
5,33,0,89
5,38,127,151
5,38,0,81
5,33,127,159
5,33,0,108
5,38,127,132
5,38,0,93
5,33,127,27
5,33,0,85
5,35,127,35
5,35,0,73
5,37,127,47
5,37,0,81
5,38,127,39
5,38,0,93
5,33,127,147
5,33,0,110
5,38,127,130
5,38,0,97
5,33,127,143
5,33,0,107
5,38,127,133
5,38,0,96
5,33,127,144
5,33,0,133
5,38,127,107
5,38,0,103
5,33,127,137
5,36,127,120
5,33,0,15
5,36,0,77
5,38,127,28
5,38,0,98
5,33,127,142
5,33,0,90
5,38,127,150
5,38,0,98
5,33,127,142
5,33,0,98
5,38,127,142
5,38,0,90
5,33,127,150
5,33,0,106
5,38,127,134
5,38,0,114
5,35,127,126
5,33,127,120
5,35,0,10
5,33,0,81
5,31,127,29
5,31,0,107
5,38,127,133
5,38,0,135
5,31,127,105
5,31,0,128
5,38,127,112
5,38,0,134
5,26,127,106
5,26,0,102
5,31,127,858
5,31,0,123
5,38,127,117
5,38,0,123
5,31,127,117
5,31,0,145
5,38,127,95
5,38,0,78
5,28,127,42
5,28,0,43
5,26,127,9
5,26,0,86
5,38,127,874
5,38,0,93
5,33,127,147
5,33,0,110
5,38,127,130
5,38,0,97
5,33,127,143
5,33,0,107
5,38,127,133
5,38,0,96
5,33,127,144
5,33,0,133
5,38,127,107
5,38,0,103
5,33,127,137
5,36,127,120
5,33,0,15
5,36,0,77
5,38,127,28
5,38,0,98
5,33,127,142
5,33,0,90
5,38,127,150
5,38,0,98
5,33,127,142
5,33,0,98
5,38,127,142
5,38,0,90
5,33,127,150
5,33,0,106
5,38,127,134
5,38,0,114
5,35,127,126
5,33,127,120
5,35,0,10
5,33,0,81
5,31,127,29
5,31,0,107
5,38,127,133
5,38,0,135
5,31,127,105
5,31,0,128
5,38,127,112
5,38,0,134
5,38,127,106
5,38,0,90
5,33,127,150
5,33,0,106
5,38,127,134
5,38,0,114
5,35,127,126
5,33,127,120
5,35,0,10
5,33,0,81
5,31,127,29
5,31,0,107
5,38,127,133
5,38,0,135
5,31,127,105
5,31,0,128
5,38,127,112
5,38,0,134
5,26,127,106
5,26,0,102
