track,note,velocity,time
3,52,127,1866
3,55,127,24
3,52,0,1
3,55,0,21
3,55,127,2
3,55,0,44
3,55,127,5
3,55,0,94
3,55,127,0
3,52,127,25
3,55,0,2
3,52,0,21
3,55,127,1
3,55,0,47
3,52,127,0
3,50,127,11
3,52,0,13
3,48,127,2
3,50,0,1
3,48,0,57
3,52,127,14
3,55,127,23
3,52,0,2
3,55,0,22
3,55,127,1
3,55,0,70
3,55,127,1
3,55,0,24
3,55,127,0
3,52,127,71
3,55,0,1
3,50,127,23
3,52,0,1
3,50,0,192
3,57,127,25
3,60,127,24
3,57,0,1
3,60,0,23
3,57,127,0
3,60,127,24
3,57,0,1
3,60,0,71
3,57,127,0
3,57,0,24
3,60,127,0
3,57,127,48
3,60,0,1
3,57,0,47
3,55,127,46
3,55,0,23
3,55,127,1
3,55,0,23
3,55,127,1
3,57,127,48
3,55,0,2
3,55,127,46
3,57,0,2
3,52,127,47
3,55,0,1
3,50,127,23
3,52,0,2
3,50,0,211
3,57,127,28
3,60,127,23
3,57,0,1
3,57,127,23
3,60,0,1
3,60,127,23
3,57,0,1
3,60,0,46
3,60,127,2
3,60,0,46
3,60,127,1
3,57,127,48
3,60,0,3
3,57,0,46
3,55,127,0
3,55,0,46
3,55,127,1
3,55,0,24
3,52,127,0
3,55,127,23
3,52,0,4
3,55,0,20
3,55,127,1
3,55,0,45
3,55,127,3
3,55,0,47
3,55,127,1
3,55,0,45
3,57,127,2
3,55,127,48
3,57,0,1
3,55,0,23
3,53,127,0
3,52,127,74
3,53,0,3
3,52,0,19
3,55,127,1
3,55,0,24
3,52,127,0
3,52,0,22
3,55,127,1
3,55,0,47
3,55,127,1
3,55,0,23
3,55,127,1
3,55,0,46
3,55,127,2
3,55,0,46
3,55,127,2
3,55,0,44
3,55,127,2
3,55,0,24
3,52,127,4
3,50,127,12
3,52,0,4
3,48,127,8
3,50,0,10
3,48,0,42
3,43,127,42
3,43,0,24
3,52,127,0
3,52,0,47
3,52,127,1
3,52,0,97
3,47,127,0
3,47,0,23
3,48,127,1
3,48,0,23
3,48,127,1
3,48,0,194
3,52,127,118
3,52,0,24
3,55,127,0
3,55,0,24
3,52,127,0
3,52,0,24
3,55,127,0
3,55,0,45
3,55,127,3
3,55,0,47
3,55,127,1
3,52,127,25
3,55,0,1
3,52,0,47
3,55,127,0
3,55,0,48
3,52,127,0
3,50,127,12
3,52,0,7
3,48,127,3
3,50,0,6
3,52,127,68
3,48,0,14
3,52,0,8
3,55,127,1
3,55,0,47
3,55,127,2
3,55,0,71
3,57,127,1
3,55,127,48
3,57,0,2
3,52,127,45
3,55,0,1
3,52,0,23
3,50,127,0
3,60,127,145
3,60,0,22
3,60,127,1
3,60,0,22
3,60,127,3
3,50,0,1
3,57,127,23
3,60,0,1
3,57,0,44
3,57,127,3
3,57,0,22
3,60,127,2
3,60,0,68
3,60,127,3
3,60,0,23
3,62,127,1
3,60,127,24
3,62,0,3
3,60,0,93
3,55,127,24
3,55,0,25
3,52,127,0
3,55,127,24
3,52,0,1
3,57,127,47
3,55,0,2
3,55,127,45
3,57,0,2
3,55,0,46
3,52,127,0
3,50,127,24
3,52,0,1
3,50,0,98
3,57,127,142
3,57,0,21
3,60,127,2
3,60,0,24
3,57,127,0
3,57,0,23
3,60,127,0
3,60,0,72
3,60,127,2
3,60,0,21
3,60,127,2
3,59,127,48
3,60,0,3
3,57,127,18
3,59,0,4
3,55,127,12
3,57,0,6
3,53,127,8
3,55,0,1
3,53,0,59
3,52,127,10
3,52,0,22
3,55,127,2
3,55,0,72
3,52,127,0
3,52,0,21
3,55,127,3
3,55,0,44
3,55,127,4
3,55,0,22
3,57,127,2
3,55,127,47
3,57,0,1
3,55,0,22
3,53,127,1
3,53,0,52
3,55,127,44
3,52,127,24
3,55,0,1
3,52,0,22
3,55,127,1
3,55,0,73
3,52,127,0
3,52,0,21
3,55,127,2
3,55,0,49
3,52,127,0
3,52,0,21
3,55,127,2
3,55,0,49
3,52,127,0
3,52,0,68
3,43,127,52
3,43,0,22
3,43,127,2
3,43,0,22
3,52,127,2
3,52,0,120
3,47,127,0
3,47,0,21
3,47,127,2
3,47,0,22
3,47,127,2
3,47,0,22
3,48,127,1
3,48,0,214
3,60,127,75
3,62,127,48
3,60,0,4
3,62,0,41
3,62,127,3
3,62,0,47
3,62,127,1
3,62,0,47
3,62,127,0
3,62,0,47
3,62,127,2
3,60,127,24
3,62,0,3
3,60,0,20
3,64,127,1
3,64,0,46
3,60,127,2
3,60,0,45
3,60,127,4
3,60,0,45
3,60,127,3
3,60,0,22
3,60,127,1
3,60,0,22
3,62,127,1
3,60,127,13
3,62,0,6
3,60,0,23
3,60,127,7
3,60,0,48
3,57,127,0
3,53,127,48
3,57,0,2
3,53,0,45
3,55,127,1
3,55,0,24
3,52,127,0
3,52,0,49
3,57,127,48
3,57,0,21
3,60,127,2
3,60,0,47
3,62,127,1
3,62,0,47
3,62,127,1
3,62,0,47
3,62,127,1
3,60,127,48
3,62,0,3
3,60,0,22
3,64,127,0
3,64,0,46
3,60,127,2
3,60,0,46
3,57,127,50
3,57,0,21
3,60,127,1
3,60,0,47
3,62,127,3
3,60,127,11
3,62,0,1
3,60,0,35
3,60,127,0
3,60,0,47
3,60,127,1
3,60,0,49
3,57,127,0
3,57,0,22
3,62,127,1
3,62,0,221
3,57,127,116
3,60,127,22
3,57,0,1
3,60,0,46
3,62,127,2
3,60,127,25
3,62,0,2
3,60,0,44
3,60,127,1
3,60,0,68
3,60,127,5
3,60,0,44
3,60,127,4
3,60,0,24
3,57,127,0
3,57,0,47
3,52,127,145
3,52,0,22
3,55,127,1
3,55,0,25
3,52,127,0
3,52,0,20
3,55,127,3
3,52,127,48
3,55,0,2
3,52,0,21
3,57,127,1
3,55,127,49
3,57,0,2
3,55,0,21
3,53,127,0
3,53,0,196
3,52,127,44
3,52,0,47
3,55,127,0
3,55,0,47
3,57,127,2
3,57,0,24
3,55,127,0
3,55,0,47
3,55,127,0
3,55,0,71
3,52,127,1
3,52,0,47
3,55,127,1
3,55,0,46
3,55,127,3
3,55,0,22
3,52,127,2
3,50,127,9
3,52,0,14
3,48,127,2
3,50,0,2
3,48,0,20
3,48,127,2
3,48,0,22
3,48,127,1
3,48,0,46
3,52,127,2
3,50,127,24
3,52,0,2
3,50,0,45
3,48,127,2
3,48,0,21
3,50,127,2
3,50,0,47
3,50,127,1
3,50,0,95
3,48,127,1
3,48,0,117
3,55,127,1323
3,55,0,47
3,55,127,1
3,55,0,24
3,52,127,0
3,52,0,47
3,55,127,0
3,55,0,71
3,55,127,2
3,55,0,45
3,55,127,3
3,55,0,47
3,52,127,1
3,52,0,47
3,55,127,50
3,55,0,43
3,55,127,5
3,55,0,71
3,52,127,1
3,52,0,22
3,55,127,2
3,55,0,70
3,52,127,1
3,50,127,23
3,52,0,1
3,50,0,94
3,57,127,123
3,57,0,22
3,60,127,1
3,60,0,24
3,57,127,0
3,57,0,23
3,60,127,1
3,57,127,71
3,60,0,1
3,57,0,23
3,60,127,0
3,59,127,45
3,60,0,6
3,57,127,19
3,59,0,4
3,55,127,12
3,57,0,1
3,55,0,47
3,55,127,12
3,55,0,23
3,52,127,1
3,52,0,21
3,55,127,2
3,55,0,49
3,57,127,0
3,55,127,47
3,57,0,1
3,52,127,47
3,55,0,1
3,50,127,23
3,52,0,1
3,50,0,122
3,57,127,118
3,57,0,22
3,60,127,1
3,57,127,24
3,60,0,1
3,57,0,22
3,60,127,1
3,57,127,72
3,60,0,1
3,57,0,21
3,60,127,1
3,59,127,44
3,60,0,6
3,57,127,20
3,59,0,5
3,55,127,7
3,57,0,4
3,53,127,6
3,55,0,1
3,53,0,57
3,55,127,46
3,55,0,69
3,52,127,1
3,55,127,21
3,52,0,1
3,55,0,46
3,55,127,1
3,57,127,20
3,55,0,2
3,55,127,11
3,57,0,5
3,53,127,10
3,55,0,2
3,53,0,81
3,52,127,136
3,52,0,17
3,55,127,5
3,52,127,23
3,55,0,3
3,52,0,13
3,55,127,7
3,52,127,70
3,55,0,2
3,52,0,12
3,55,127,7
3,55,0,46
3,55,127,9
3,52,127,18
3,55,0,3
3,50,127,7
3,52,0,6
3,50,0,7
3,48,127,0
3,48,0,95
3,50,127,34
3,50,0,21
3,52,127,2
3,50,127,23
3,52,0,2
3,50,0,21
3,52,127,2
3,52,0,72
3,47,127,0
3,48,127,23
3,47,0,2
3,48,0,194
3,55,127,142
3,55,0,46
3,55,127,1
3,52,127,25
3,55,0,2
3,55,127,44
3,52,0,1
3,55,0,70
3,55,127,1
3,55,0,24
3,55,127,0
3,55,0,47
3,52,127,1
3,52,0,47
3,55,127,75
3,52,127,24
3,55,0,2
3,52,0,21
3,55,127,1
3,55,0,70
3,55,127,1
3,55,0,22
3,55,127,2
3,52,127,47
3,55,0,2
3,50,127,22
3,52,0,1
3,50,0,214
3,57,127,27
3,57,0,22
3,60,127,1
3,60,0,24
3,57,127,0
3,57,0,23
3,60,127,0
3,60,0,46
3,60,127,3
3,62,127,48
3,60,0,2
3,60,127,21
3,62,0,2
3,60,0,94
3,55,127,26
3,55,0,21
3,55,127,2
3,55,0,22
3,57,127,3
3,57,0,67
3,55,127,4
3,55,0,21
3,55,127,3
3,52,127,73
3,55,0,1
3,52,0,20
3,55,127,1
3,52,127,11
3,55,0,2
3,50,127,13
3,52,0,4
3,50,0,71
3,57,127,118
3,57,0,19
3,60,127,2
3,57,127,25
3,60,0,1
3,57,0,22
3,60,127,1
3,57,127,71
3,60,0,2
3,62,127,22
3,57,0,2
3,60,127,47
3,62,0,2
3,60,0,43
3,52,127,51
3,52,0,23
3,55,127,0
3,55,0,23
3,55,127,1
3,55,0,47
3,55,127,1
3,55,0,22
3,55,127,2
3,55,0,46
3,55,127,1
3,57,127,47
3,55,0,4
3,55,127,6
3,57,0,6
3,53,127,7
3,55,0,3
3,55,127,141
3,53,0,21
3,55,0,14
3,55,127,18
3,55,0,48
3,52,127,0
3,52,0,22
3,55,127,2
3,55,0,68
3,55,127,4
3,55,0,22
3,57,127,2
3,57,0,73
3,55,127,0
3,55,0,15
3,52,127,7
3,50,127,13
3,52,0,5
3,48,127,10
3,50,0,2
3,48,0,18
3,48,127,0
3,48,0,23
3,48,127,1
3,48,0,21
3,48,127,2
3,48,0,23
3,52,127,2
3,52,0,22
3,52,127,2
3,52,0,47
3,52,127,2
3,52,0,22
3,52,127,1
3,52,0,47
3,47,127,2
3,48,127,24
3,47,0,3
3,48,0,232
3,60,127,76
3,62,127,48
3,60,0,4
3,62,0,41
3,62,127,3
3,62,0,47
3,62,127,1
3,62,0,47
3,62,127,0
3,62,0,47
3,62,127,2
3,60,127,24
3,62,0,3
3,60,0,20
3,64,127,1
3,64,0,46
3,60,127,2
3,60,0,45
3,60,127,4
3,60,0,45
3,60,127,5
3,60,0,19
3,60,127,2
3,60,0,20
3,62,127,3
3,60,127,13
3,62,0,6
3,60,0,24
3,60,127,6
3,57,127,46
3,60,0,1
3,53,127,46
3,57,0,6
3,53,0,42
3,55,127,0
3,55,0,25
3,52,127,1
3,52,0,51
3,57,127,49
3,57,0,12
3,60,127,6
3,60,0,39
3,62,127,11
3,62,0,37
3,62,127,12
3,62,0,30
3,62,127,17
3,60,127,48
3,62,0,7
3,60,0,17
3,64,127,2
3,64,0,44
3,60,127,4
3,60,0,28
3,57,127,68
3,57,0,12
3,60,127,7
3,60,0,35
3,62,127,13
3,60,127,16
3,62,0,4
3,60,0,24
3,60,127,7
3,60,0,36
3,60,127,12
3,57,127,50
3,60,0,1
3,57,0,21
3,62,127,1
3,62,0,221
3,57,127,116
3,60,127,22
3,57,0,1
3,60,0,46
3,62,127,2
3,60,127,25
3,62,0,2
3,60,0,44
3,60,127,1
3,60,0,68
3,60,127,5
3,60,0,44
3,60,127,4
3,60,0,24
3,57,127,0
3,57,0,26
3,52,127,166
3,52,0,22
3,55,127,1
3,55,0,25
3,52,127,0
3,52,0,20
3,55,127,3
3,52,127,48
3,55,0,2
3,52,0,21
3,57,127,1
3,55,127,49
3,57,0,2
3,55,0,21
3,53,127,0
3,53,0,196
3,52,127,44
3,52,0,47
3,55,127,0
3,55,0,47
3,57,127,2
3,57,0,24
3,55,127,0
3,55,0,47
3,55,127,0
3,55,0,71
3,52,127,1
3,52,0,47
3,55,127,1
3,55,0,46
3,55,127,2
3,55,0,22
3,52,127,2
3,50,127,10
3,52,0,6
3,48,127,10
3,50,0,2
3,48,0,20
3,48,127,2
3,48,0,22
3,48,127,1
3,48,0,42
3,52,127,5
3,50,127,24
3,52,0,4
3,50,0,43
3,48,127,3
3,50,127,20
3,48,0,2
3,50,0,45
3,50,127,2
3,50,0,94
3,48,127,2
3,48,0,183
3,52,127,59
3,52,0,22
3,55,127,1
3,57,127,70
3,55,0,2
3,57,0,20
3,55,127,3
3,55,0,47
3,55,127,0
3,52,127,74
3,55,0,2
3,52,0,20
3,55,127,4
3,55,0,71
3,55,127,1
3,55,0,22
3,52,127,2
3,50,127,11
3,52,0,8
3,48,127,5
3,50,0,9
3,48,0,13
3,48,127,5
3,48,0,19
3,48,127,1
3,48,0,39
3,52,127,2
3,50,127,22
3,52,0,1
3,48,127,240
3,50,0,12
3,48,0,6
3,52,127,6
3,52,0,27
3,50,127,4
3,50,0,41
3,52,127,5
3,52,0,23
3,55,127,5
3,52,127,47
3,50,127,13
3,55,0,5
3,52,0,2
3,48,127,5
3,50,0,8
3,48,0,234
4,55,127,4982
4,55,0,192
4,48,127,0
4,48,0,96
4,55,127,0
4,55,0,96
4,48,127,0
4,48,0,96
4,48,127,0
4,48,0,96
4,55,127,0
4,55,0,96
4,50,127,0
4,50,0,96
4,55,127,0
4,55,0,96
4,55,127,0
4,55,0,96
4,53,127,0
4,53,0,96
4,48,127,0
4,48,0,96
4,53,127,0
4,53,0,96
4,53,127,0
4,53,0,96
4,48,127,0
4,48,0,96
4,48,127,0
4,48,0,96
4,55,127,0
4,55,0,96
4,55,127,0
4,55,0,96
4,53,127,0
4,53,0,96
4,48,127,0
4,48,0,96
4,53,127,0
4,53,0,96
4,53,127,0
4,53,0,96
4,48,127,0
4,48,0,96
4,52,127,0
4,52,0,96
4,53,127,0
4,53,0,96
4,53,127,0
4,53,0,96
4,48,127,0
4,48,0,96
4,55,127,0
4,55,0,96
4,48,127,0
4,48,0,96
4,48,127,0
4,48,0,96
4,55,127,0
4,55,0,96
4,55,127,0
4,55,0,96
4,48,127,0
4,48,0,96
4,55,127,0
4,55,0,96
4,48,127,0
4,48,0,96
4,48,127,0
4,48,0,48
4,45,127,0
4,45,0,48
4,43,127,0
4,43,0,96
4,50,127,0
4,50,0,96
4,43,127,0
4,43,0,96
4,43,127,0
4,43,0,96
4,53,127,0
4,53,0,96
4,53,127,0
4,53,0,96
4,48,127,0
4,48,0,72
4,43,127,0
4,43,0,23
4,48,127,1
4,48,0,48
4,45,127,0
4,45,0,48
4,43,127,0
4,43,0,96
4,50,127,0
4,50,0,96
4,43,127,0
4,43,0,96
4,55,127,0
4,55,0,96
4,53,127,0
4,53,0,96
4,53,127,0
4,53,0,96
4,43,127,0
4,43,0,96
4,50,127,0
4,50,0,96
4,55,127,0
4,55,0,96
4,50,127,0
4,50,0,48
4,52,127,0
4,52,0,48
4,53,127,0
4,53,0,96
4,48,127,0
4,48,0,96
4,53,127,0
4,53,0,96
4,53,127,0
4,53,0,96
4,48,127,0
4,48,0,96
4,52,127,0
4,52,0,96
4,53,127,0
4,53,0,384
4,48,127,0
4,48,0,192
4,60,127,0
4,60,0,96
4,55,127,0
4,55,0,23
4,57,127,1
4,57,0,23
4,55,127,1
4,55,0,48
4,55,127,0
4,55,0,192
4,48,127,0
4,48,0,96
4,55,127,0
4,55,0,96
4,48,127,0
4,48,0,96
4,55,127,0
4,55,0,96
4,53,127,0
4,53,0,96
4,48,127,0
4,48,0,96
4,53,127,0
4,53,0,96
