track,note,velocity,time
3,29,98,12312
3,36,80,11
3,29,89,960
3,36,85,8
3,29,98,110
3,36,80,11
3,33,93,0
3,29,80,960
3,31,85,7
3,36,93,96
3,31,72,7
3,36,76,960
3,36,89,59
3,31,76,1920
3,36,72,4
3,29,98,138
3,36,80,11
3,29,89,960
3,36,85,8
3,29,98,110
3,36,80,11
3,33,93,0
3,29,89,960
3,41,45,958
3,41,60,64
3,29,85,81
3,41,64,80
3,29,102,24
3,29,107,121
3,29,102,14
3,41,89,120
3,40,62,25
3,38,89,120
3,36,98,88
3,36,62,42
3,36,107,54
3,31,89,360
3,29,93,72
3,29,98,33
3,41,89,13
3,40,55,360
3,36,89,27
3,36,72,47
3,36,89,59
3,31,85,120
3,38,89,35
3,40,93,37
3,41,85,67
3,41,72,43
3,41,107,72
3,40,59,240
3,38,60,10
3,36,93,6
3,31,93,360
3,36,102,77
3,36,85,47
3,33,102,52
3,33,80,33
3,33,98,69
3,45,64,240
3,33,89,115
3,29,107,41
3,29,102,47
3,29,98,67
3,41,93,8
3,40,64,9
3,29,102,11
3,29,107,22
3,29,102,14
3,41,89,120
3,40,62,25
3,38,89,120
3,36,98,88
3,36,62,42
3,36,107,54
3,31,89,360
3,29,93,72
3,29,98,33
3,41,89,13
3,40,55,360
3,36,89,27
3,36,72,47
3,36,89,59
3,31,85,120
3,38,89,35
3,40,93,37
3,41,85,67
3,41,72,43
3,41,107,72
3,40,59,240
3,38,60,10
3,36,93,6
3,31,93,360
3,36,102,77
3,36,85,47
3,31,102,52
3,43,89,480
3,31,80,210
3,29,102,71
3,31,98,60
3,36,80,45
3,31,72,840
3,36,64,96
3,36,62,35
3,31,85,120
3,43,76,85
3,36,56,12
3,36,62,43
3,36,62,29
3,36,80,54
3,31,89,840
3,36,76,115
3,36,40,49
3,36,72,59
3,31,89,120
3,43,43,590
3,31,72,95
3,43,93,100
3,36,80,15
3,36,56,40
3,36,93,53
3,36,60,78
3,29,98,46
3,36,80,11
3,29,89,960
3,36,85,8
3,29,98,110
3,36,80,11
3,33,93,0
3,29,80,960
3,31,85,7
3,36,80,96
3,31,72,840
3,36,64,96
3,36,62,35
3,31,85,120
3,43,76,85
3,36,56,12
3,36,62,43
3,36,62,29
3,36,80,54
3,31,89,840
3,36,76,115
3,36,40,49
3,36,72,59
3,31,89,120
3,43,43,590
3,31,72,95
3,43,93,100
3,36,80,15
3,36,56,40
3,36,93,53
3,36,60,78
3,29,98,46
3,36,80,11
3,29,89,960
3,36,85,8
3,29,98,110
3,36,80,11
3,33,93,0
3,29,89,960
3,29,98,0
3,36,80,11
3,29,89,960
3,36,85,8
3,29,98,110
3,36,80,11
3,33,93,0
3,29,89,960
3,41,45,958
3,41,60,64
3,29,85,81
3,41,64,80
3,29,102,24
3,29,107,121
3,29,102,14
3,41,89,120
3,40,62,25
3,38,89,120
3,36,98,88
3,36,62,42
3,36,107,54
3,31,89,360
3,29,93,72
3,29,98,33
3,41,89,13
3,40,55,360
3,36,89,27
3,36,72,47
3,36,89,59
3,31,85,120
3,38,89,35
3,40,93,37
3,41,85,67
3,41,72,43
3,41,107,72
3,40,59,240
3,38,60,10
3,36,93,6
3,31,93,360
3,36,102,77
3,36,85,47
3,33,102,52
3,33,80,33
3,33,98,69
3,45,64,240
3,33,89,115
3,29,107,41
3,29,102,47
3,29,98,67
3,41,93,8
3,40,64,9
3,29,102,11
3,29,107,22
3,29,102,14
3,41,89,120
3,40,62,25
3,38,89,120
3,36,98,88
3,36,62,42
3,36,107,54
3,31,89,360
3,29,93,72
3,29,98,33
3,41,89,13
3,40,55,360
3,36,89,27
3,36,72,47
3,36,89,59
3,31,85,120
3,38,89,35
3,40,93,37
3,41,85,67
3,41,72,43
3,41,107,72
3,40,59,240
3,38,60,10
3,36,93,6
3,31,93,360
3,36,102,77
3,36,85,47
3,31,102,52
3,43,89,480
3,31,80,210
3,29,102,71
3,29,107,0
3,29,102,14
3,41,89,120
3,40,62,25
3,38,89,120
3,36,98,20
3,36,62,42
3,36,107,54
3,31,89,360
3,29,93,72
3,29,98,33
3,41,89,13
3,40,55,360
3,36,89,27
3,36,72,47
3,36,89,59
3,31,85,120
3,38,89,35
3,40,93,37
3,41,85,67
3,41,72,43
3,41,107,72
3,40,59,240
3,38,60,10
3,36,93,6
3,31,93,360
3,36,102,77
3,36,85,47
3,33,102,52
3,33,80,33
3,33,98,69
3,45,64,240
3,33,89,115
3,29,107,41
3,29,102,47
3,29,98,67
3,41,93,8
3,40,64,9
3,29,102,11
3,29,107,22
3,29,102,14
3,41,89,120
3,40,62,25
3,38,89,120
3,36,98,88
3,36,62,42
3,36,107,54
3,31,89,360
3,29,93,72
3,29,98,33
3,41,89,13
3,40,55,360
3,36,89,27
3,36,72,47
3,36,89,59
3,31,85,120
3,38,89,35
3,40,93,37
3,41,85,67
3,41,72,43
3,41,107,72
3,40,59,240
3,38,60,10
3,36,93,6
3,31,93,360
3,36,102,77
3,36,85,47
3,31,102,52
3,43,89,480
3,31,80,210
3,29,102,71
3,31,98,60
3,29,102,45
3,31,98,60
3,29,98,45
3,36,80,4905
4,36,64,2736
4,60,60,0
4,62,72,0
4,64,43,171
4,60,45,0
4,36,56,0
4,60,47,242
4,65,53,0
4,55,56,104
4,62,42,360
4,48,56,167
4,64,43,153
4,60,45,0
4,36,56,0
4,60,47,242
4,65,53,0
4,55,56,104
4,62,42,360
4,48,56,167
4,65,72,153
4,60,72,0
4,57,64,0
4,41,72,0
4,36,59,10
4,55,62,0
4,64,36,0
4,60,50,0
4,57,50,6
4,60,47,0
4,41,62,0
4,65,60,0
4,36,72,292
4,60,55,0
4,55,55,0
4,64,35,0
4,65,72,164
4,60,72,0
4,57,64,0
4,41,72,0
4,36,59,10
4,55,62,0
4,64,36,0
4,60,50,0
4,45,60,6
4,64,60,0
4,57,62,0
4,60,59,0
4,60,51,225
4,57,42,0
4,53,41,0
4,41,60,0
4,55,60,53
4,60,60,0
4,55,64,10
4,43,60,0
4,36,68,215
4,60,64,0
4,55,60,0
4,64,60,0
4,67,46,192
4,64,55,0
4,60,49,0
4,60,49,5
4,67,51,0
4,64,49,0
4,48,55,0
4,55,60,217
4,60,51,16
4,43,46,257
4,62,53,0
4,55,55,0
4,59,56,0
4,55,57,2
4,57,68,89
4,48,60,61
4,60,55,105
4,62,56,55
4,55,44,117
4,48,42,0
4,60,62,0
4,64,64,0
4,60,55,35
4,48,50,42
4,67,51,0
4,60,50,0
4,55,62,348
4,64,72,3
4,62,42,16
4,59,38,0
4,55,38,0
4,43,55,0
4,57,52,47
4,55,59,113
4,48,62,13
4,55,57,120
4,60,57,3
4,62,68,19
4,64,76,120
4,62,68,101
4,60,64,46
4,55,64,8
4,65,72,40
4,60,72,0
4,57,64,0
4,41,72,0
4,36,59,10
4,55,62,0
4,64,36,0
4,60,50,0
4,57,50,6
4,60,47,0
4,41,62,0
4,65,60,0
4,36,72,292
4,60,55,0
4,55,55,0
4,64,35,0
4,65,72,164
4,60,72,0
4,57,64,0
4,41,72,0
4,36,59,10
4,55,62,0
4,64,36,0
4,60,50,0
4,45,76,6
4,52,51,120
4,57,50,120
4,60,55,120
4,64,49,89
4,41,62,0
4,57,47,0
4,60,52,0
4,60,34,80
4,65,10,60
4,65,64,104
4,57,60,0
4,60,72,0
4,41,62,120
4,60,72,60
4,57,72,120
4,57,72,49
4,65,85,0
4,41,76,0
4,60,72,0
4,65,85,151
4,41,93,0
4,57,76,0
4,60,85,0
4,57,55,84
4,41,72,38
4,65,98,7
4,60,98,0
4,57,62,120
4,60,72,23
4,55,72,0
4,64,76,0
4,48,56,0
4,55,72,118
4,60,89,46
4,67,98,0
4,64,102,0
4,67,102,59
4,62,107,0
4,60,85,43
4,53,89,3
4,60,55,240
4,65,52,14
4,69,98,73
4,65,93,0
4,64,72,58
4,67,85,0
4,48,57,154
4,67,53,0
4,60,59,0
4,64,55,0
4,52,72,38
4,55,72,45
4,67,107,10
4,64,102,0
4,60,102,0
4,55,85,120
4,59,76,30
4,62,102,0
4,67,98,0
4,41,62,104
4,60,85,0
4,53,89,0
4,57,93,0
4,53,60,46
4,41,89,240
4,55,98,52
4,60,93,0
4,53,68,97
4,48,80,25
4,55,53,120
4,60,72,8
4,62,93,51
4,64,102,60
4,55,72,93
4,67,93,0
4,64,80,0
4,60,89,0
4,45,89,147
4,64,72,0
4,60,80,0
4,57,76,0
4,57,80,50
4,64,89,0
4,60,89,0
4,55,72,56
4,64,89,0
4,59,89,0
4,41,80,106
4,57,60,0
4,53,46,0
4,60,62,0
4,48,76,0
4,60,72,65
4,53,85,0
4,55,93,55
4,60,93,0
4,53,76,56
4,65,85,63
4,41,93,0
4,57,76,0
4,60,85,0
4,57,55,84
4,41,72,38
4,65,98,7
4,60,98,0
4,57,62,120
4,60,72,23
4,55,72,0
4,64,76,0
4,48,56,0
4,55,72,118
4,60,89,46
4,67,98,0
4,64,102,0
4,67,102,59
4,62,107,0
4,60,85,43
4,53,89,3
4,60,55,240
4,65,52,14
4,69,98,73
4,65,93,0
4,64,72,58
4,67,85,0
4,48,57,154
4,67,53,0
4,60,59,0
4,64,55,0
4,52,72,38
4,55,72,45
4,67,107,10
4,64,102,0
4,60,102,0
4,55,85,120
4,59,76,30
4,62,102,0
4,67,98,0
4,41,62,104
4,60,85,0
4,53,89,0
4,57,93,0
4,53,60,46
4,41,89,240
4,55,98,52
4,60,93,0
4,53,68,97
4,48,80,25
4,55,53,120
4,60,72,8
4,62,93,51
4,64,102,60
4,55,72,93
4,67,93,0
4,64,80,0
4,60,89,0
4,62,76,59
4,59,80,0
4,55,72,0
4,43,85,0
4,50,72,21
4,57,93,69
4,62,89,0
4,50,80,59
4,55,98,4
4,69,72,13
4,65,68,0
4,53,59,0
4,60,64,0
4,62,64,232
4,43,80,0
4,55,62,0
4,59,62,0
4,64,43,103
4,60,45,0
4,36,56,0
4,60,47,242
4,65,53,0
4,55,56,104
4,62,42,360
4,48,56,167
4,64,43,153
4,60,45,0
4,36,56,0
4,60,47,242
4,65,53,0
4,55,56,104
4,62,42,360
4,48,56,167
4,65,72,153
4,60,72,0
4,57,64,0
4,41,72,0
4,36,59,10
4,55,62,0
4,64,36,0
4,60,50,0
4,57,50,6
4,60,47,0
4,41,62,0
4,65,60,0
4,36,72,292
4,60,55,0
4,55,55,0
4,64,35,0
4,65,72,164
4,60,72,0
4,57,64,0
4,41,72,0
4,36,59,10
4,55,62,0
4,64,36,0
4,60,50,0
4,45,60,6
4,64,60,0
4,57,62,0
4,60,59,0
4,60,51,225
4,57,42,0
4,53,41,0
4,41,60,0
4,55,60,53
4,60,60,0
4,55,64,10
4,43,60,0
4,36,68,215
4,60,64,0
4,55,60,0
4,64,60,0
4,67,46,192
4,64,55,0
4,60,49,0
4,60,49,5
4,67,51,0
4,64,49,0
4,48,55,0
4,55,60,217
4,60,51,16
4,43,46,257
4,62,53,0
4,55,55,0
4,59,56,0
4,55,57,2
4,57,68,89
4,48,60,61
4,60,55,105
4,62,56,55
4,55,44,117
4,48,42,0
4,60,62,0
4,64,64,0
4,60,55,35
4,48,50,42
4,67,51,0
4,60,50,0
4,55,62,348
4,64,72,3
4,62,42,16
4,59,38,0
4,55,38,0
4,43,55,0
4,57,52,47
4,55,59,113
4,48,62,13
4,55,57,120
4,60,57,3
4,62,68,19
4,64,76,120
4,62,68,101
4,60,64,46
4,55,64,8
4,65,72,40
4,60,72,0
4,57,64,0
4,41,72,0
4,36,59,10
4,55,62,0
4,64,36,0
4,60,50,0
4,57,50,6
4,60,47,0
4,41,62,0
4,65,60,0
4,36,72,292
4,60,55,0
4,55,55,0
4,64,35,0
4,65,72,164
4,60,72,0
4,57,64,0
4,41,72,0
4,36,59,10
4,55,62,0
4,64,36,0
4,60,50,0
4,45,76,6
4,52,51,120
4,57,50,120
4,60,55,120
4,64,49,89
4,41,62,0
4,57,47,0
4,60,52,0
4,65,72,80
4,60,72,0
4,57,64,0
4,41,72,0
4,36,59,10
4,55,62,0
4,64,36,0
4,60,50,0
4,57,50,6
4,60,47,0
4,41,62,0
4,65,60,0
4,36,72,292
4,60,55,0
4,55,55,0
4,64,35,0
4,65,72,164
4,60,72,0
4,57,64,0
4,41,72,0
4,36,59,10
4,55,62,0
4,64,36,0
4,60,50,0
4,45,76,6
4,52,51,120
4,57,50,120
4,60,55,120
4,64,49,89
4,41,62,0
4,57,47,0
4,60,52,0
4,60,34,80
4,65,10,60
4,65,64,104
4,57,60,0
4,60,72,0
4,41,62,120
4,60,72,60
4,57,72,120
4,57,72,49
4,65,85,0
4,41,76,0
4,60,72,0
4,65,85,151
4,41,93,0
4,57,76,0
4,60,85,0
4,57,55,84
4,41,72,38
4,65,98,7
4,60,98,0
4,57,62,120
4,60,72,23
4,55,72,0
4,64,76,0
4,48,56,0
4,55,72,118
4,60,89,46
4,67,98,0
4,64,102,0
4,67,102,59
4,62,107,0
4,60,85,43
4,53,89,3
4,60,55,240
4,65,52,14
4,69,98,73
4,65,93,0
4,64,72,58
4,67,85,0
4,48,57,154
4,67,53,0
4,60,59,0
4,64,55,0
4,52,72,38
4,55,72,45
4,67,107,10
4,64,102,0
4,60,102,0
4,55,85,120
4,59,76,30
4,62,102,0
4,67,98,0
4,41,62,104
4,60,85,0
4,53,89,0
4,57,93,0
4,53,60,46
4,41,89,240
4,55,98,52
4,60,93,0
4,53,68,97
4,48,80,25
4,55,53,120
4,60,72,8
4,62,93,51
4,64,102,60
4,55,72,93
4,67,93,0
4,64,80,0
4,60,89,0
4,45,89,147
4,64,72,0
4,60,80,0
4,57,76,0
4,57,80,50
4,64,89,0
4,60,89,0
4,55,72,56
4,64,89,0
4,59,89,0
4,41,80,106
4,57,60,0
4,53,46,0
4,60,62,0
4,48,76,0
4,60,72,65
4,53,85,0
4,55,93,55
4,60,93,0
4,53,76,56
4,65,85,63
4,41,93,0
4,57,76,0
4,60,85,0
4,57,55,84
4,41,72,38
4,65,98,7
4,60,98,0
4,57,62,120
4,60,72,23
4,55,72,0
4,64,76,0
4,48,56,0
4,55,72,118
4,60,89,46
4,67,98,0
4,64,102,0
4,67,102,59
4,62,107,0
4,60,85,43
4,53,89,3
4,60,55,240
4,65,52,14
4,69,98,73
4,65,93,0
4,64,72,58
4,67,85,0
4,48,57,154
4,67,53,0
4,60,59,0
4,64,55,0
4,52,72,38
4,55,72,45
4,67,107,10
4,64,102,0
4,60,102,0
4,55,85,120
4,59,76,30
4,62,102,0
4,67,98,0
4,41,62,104
4,60,85,0
4,53,89,0
4,57,93,0
4,53,60,46
4,41,89,240
4,55,98,52
4,60,93,0
4,53,68,97
4,60,68,25
4,64,76,0
4,67,80,0
4,48,76,0
4,67,85,74
4,60,80,0
4,48,89,0
4,64,85,0
4,60,76,181
4,64,85,0
4,67,89,0
4,48,85,0
4,62,98,23
4,60,93,16
4,43,102,29
4,55,59,240
4,50,72,84
4,57,89,50
4,62,72,0
4,55,93,237
4,53,89,32
4,60,28,46
4,53,62,60
4,60,68,0
4,69,76,0
4,65,72,0
4,69,72,76
4,65,72,0
4,53,64,0
4,60,60,0
4,69,98,81
4,65,89,0
4,53,93,0
4,60,102,0
4,69,98,84
4,65,93,0
4,53,98,0
4,60,102,0
4,53,102,85
4,60,107,0
4,69,107,0
4,65,102,0
4,53,93,34
4,65,76,0
4,60,89,0
4,69,89,0
4,65,64,71
4,69,62,0
4,53,76,0
4,60,72,0
4,67,85,39
4,65,80,98
4,48,72,32
4,67,76,0
4,64,89,0
4,60,72,0
4,67,93,43
4,64,89,0
4,60,85,0
4,48,85,0
4,67,68,194
4,64,72,0
4,60,68,0
4,48,85,0
4,62,93,21
4,67,72,0
4,60,85,73
4,53,89,70
4,60,55,240
4,65,52,14
4,69,98,73
4,65,93,0
4,64,72,58
4,67,85,0
4,48,57,154
4,67,53,0
4,60,59,0
4,64,55,0
4,52,72,38
4,55,72,45
