track,note,velocity,time
3,36,59,1704
3,36,0,19
3,36,102,29
3,36,0,24
3,36,102,24
3,36,0,38
3,31,113,10
3,31,0,108
3,31,93,36
3,31,0,21
3,31,93,27
3,31,0,184
3,38,93,8
3,38,0,99
3,38,93,45
3,36,93,48
3,38,0,4
3,36,0,176
3,31,89,12
3,31,0,114
3,31,102,30
3,31,0,16
3,31,93,32
3,31,0,161
3,38,93,31
3,38,0,102
3,38,98,42
3,38,0,44
3,36,80,4
3,36,0,120
3,31,107,72
3,31,0,104
3,31,93,40
3,31,0,17
3,31,102,31
3,31,0,184
3,36,89,8
3,36,0,107
3,36,98,37
3,36,0,42
3,38,93,6
3,38,0,178
3,31,93,14
3,31,0,110
3,31,93,34
3,31,0,18
3,31,93,30
3,31,0,174
3,38,107,18
3,38,0,97
3,38,107,47
3,38,0,46
3,36,89,2
3,36,0,108
3,31,107,84
3,31,0,104
3,31,93,40
3,31,0,17
3,31,102,31
3,31,0,184
3,36,89,8
3,36,0,107
3,36,98,37
3,36,0,42
3,38,93,6
3,38,0,178
3,31,93,14
3,31,0,110
3,31,93,34
3,31,0,18
3,31,93,30
3,31,0,174
3,38,107,18
3,38,0,97
3,38,107,47
3,38,0,46
3,36,89,2
3,36,0,108
3,31,107,84
3,31,0,104
3,31,93,40
3,31,0,17
3,31,102,31
3,31,0,184
3,36,89,8
3,36,0,107
3,36,98,37
3,36,0,42
3,38,93,6
3,38,0,178
3,31,93,14
3,31,0,110
3,31,93,34
3,31,0,18
3,31,93,30
3,31,0,174
3,38,107,18
3,38,0,97
3,38,107,47
3,38,0,46
3,36,89,2
3,36,0,108
3,31,107,84
3,31,0,104
3,31,93,40
3,31,0,17
3,31,102,31
3,31,0,184
3,36,89,8
3,36,0,107
3,36,98,37
3,36,0,42
3,38,93,6
3,38,0,178
3,31,93,14
3,31,0,110
3,31,93,34
3,31,0,18
3,31,93,30
3,31,0,174
3,38,107,18
3,38,0,97
3,38,107,47
3,38,0,46
3,36,89,2
3,36,0,108
3,28,102,84
3,28,0,109
3,28,93,35
3,28,0,20
3,28,102,28
3,40,98,96
3,28,0,1
3,40,0,91
3,38,93,4
3,38,0,94
3,38,89,50
3,38,0,18
3,38,93,30
3,33,85,48
3,38,0,6
3,38,98,42
3,33,0,1
3,38,0,93
3,28,102,2
3,28,0,107
3,28,98,37
3,28,0,20
3,28,98,28
3,28,0,88
3,40,102,8
3,40,0,84
3,38,102,12
3,38,0,106
3,38,102,38
3,38,0,17
3,38,107,31
3,38,0,48
3,40,98,0
3,38,107,48
3,40,0,3
3,38,0,46
3,31,102,47
3,31,0,109
3,31,102,35
3,31,0,19
3,31,102,29
3,31,0,181
3,36,98,11
3,36,0,96
3,36,93,48
3,36,0,20
3,38,102,28
3,38,0,106
3,38,107,38
3,38,0,24
3,31,102,24
3,31,0,109
3,31,102,35
3,31,0,19
3,31,102,29
3,31,0,181
3,36,98,11
3,36,0,96
3,36,93,48
3,36,0,20
3,38,102,28
3,38,0,106
3,38,107,38
3,38,0,24
3,31,102,24
3,31,0,109
3,31,102,35
3,31,0,19
3,31,102,29
3,31,0,181
3,36,98,11
3,36,0,96
3,36,93,48
3,36,0,20
3,38,102,28
3,38,0,106
3,38,107,38
3,38,0,24
3,28,119,24
3,28,0,582
3,31,113,186
3,31,0,108
3,31,93,36
3,31,0,21
3,31,93,27
3,31,0,184
3,38,93,8
3,38,0,99
3,38,93,45
3,36,93,48
3,38,0,4
3,36,0,176
3,31,89,12
3,31,0,114
3,31,102,30
3,31,0,16
3,31,93,32
3,31,0,161
3,38,93,31
3,38,0,102
3,38,98,42
3,38,0,44
3,36,80,4
3,36,0,120
3,31,107,72
3,31,0,104
3,31,93,40
3,31,0,17
3,31,102,31
3,31,0,184
3,36,89,8
3,36,0,107
3,36,98,37
3,36,0,42
3,38,93,6
3,38,0,178
3,31,93,14
3,31,0,110
3,31,93,34
3,31,0,18
3,31,93,30
3,31,0,174
3,38,107,18
3,38,0,97
3,38,107,47
3,38,0,46
3,36,89,2
3,36,0,108
3,31,107,84
3,31,0,104
3,31,93,40
3,31,0,17
3,31,102,31
3,31,0,184
3,36,89,8
3,36,0,107
3,36,98,37
3,36,0,42
3,38,93,6
3,38,0,178
3,31,93,14
3,31,0,110
3,31,93,34
3,31,0,18
3,31,93,30
3,31,0,174
3,38,107,18
3,38,0,97
3,38,107,47
3,38,0,46
3,36,89,2
3,36,0,108
3,31,107,84
3,31,0,104
3,31,93,40
3,31,0,17
3,31,102,31
3,31,0,184
3,36,89,8
3,36,0,107
3,36,98,37
3,36,0,42
3,38,93,6
3,38,0,178
3,31,93,14
3,31,0,110
3,31,93,34
3,31,0,18
3,31,93,30
3,31,0,174
3,38,107,18
3,38,0,97
3,38,107,47
3,38,0,46
3,36,89,2
3,36,0,108
3,31,107,84
3,31,0,104
3,31,93,40
3,31,0,17
3,31,102,31
3,31,0,184
3,36,89,8
3,36,0,107
3,36,98,37
3,36,0,42
3,38,93,6
3,38,0,178
3,31,93,14
3,31,0,110
3,31,93,34
3,31,0,18
3,31,93,30
3,31,0,174
3,38,107,18
3,38,0,97
3,38,107,47
3,38,0,46
3,36,89,2
3,36,0,108
3,28,102,84
3,28,0,109
3,28,93,35
3,28,0,20
3,28,102,28
3,40,98,96
3,28,0,1
3,40,0,91
3,38,93,4
3,38,0,94
3,38,89,50
3,38,0,18
3,38,93,30
3,33,85,48
3,38,0,6
3,38,98,42
3,33,0,1
3,38,0,93
3,28,102,2
3,28,0,107
3,28,98,37
3,28,0,20
3,28,98,28
3,28,0,88
3,40,102,8
3,40,0,84
3,38,102,12
3,38,0,106
3,38,102,38
3,38,0,17
3,38,107,31
3,38,0,48
3,40,98,0
3,38,107,48
3,40,0,3
3,38,0,46
3,31,102,47
3,31,0,109
3,31,102,35
3,31,0,19
3,31,102,29
3,31,0,181
3,36,98,11
3,36,0,96
3,36,93,48
3,36,0,20
3,38,102,28
3,38,0,106
3,38,107,38
3,38,0,24
3,31,102,24
3,31,0,109
3,31,102,35
3,31,0,19
3,31,102,29
3,31,0,181
3,36,98,11
3,36,0,96
3,36,93,48
3,36,0,20
3,38,102,28
3,38,0,106
3,38,107,38
3,38,0,24
3,31,102,24
3,31,0,109
3,31,102,35
3,31,0,19
3,31,102,29
3,31,0,181
3,36,98,11
3,36,0,96
3,36,93,48
3,36,0,20
3,38,102,28
3,38,0,106
3,38,107,38
3,38,0,24
3,28,119,24
3,28,0,582
3,31,102,186
3,31,0,109
3,31,102,35
3,31,0,19
3,31,102,29
3,31,0,181
3,36,98,11
3,36,0,96
3,36,93,48
3,36,0,20
3,38,102,28
3,38,0,106
3,38,107,38
3,38,0,24
3,31,102,24
3,31,0,109
3,31,102,35
3,31,0,19
3,31,102,29
3,31,0,181
3,36,98,11
3,36,0,96
3,36,93,48
3,36,0,20
3,38,102,28
3,38,0,106
3,38,107,38
3,38,0,24
3,31,102,24
3,31,0,109
3,31,102,35
3,31,0,19
3,31,102,29
3,31,0,181
3,36,98,11
3,36,0,96
3,36,93,48
3,36,0,20
3,38,102,28
3,38,0,106
3,38,107,38
3,38,0,24
3,28,119,24
3,28,0,582
3,31,107,186
3,31,0,104
3,31,93,40
3,31,0,17
3,31,102,31
3,31,0,184
3,36,89,8
3,36,0,107
3,36,98,37
3,36,0,42
3,38,93,6
3,38,0,178
3,31,93,14
3,31,0,110
3,31,93,34
3,31,0,18
3,31,93,30
3,31,0,174
3,38,107,18
3,38,0,97
3,38,107,47
3,38,0,46
3,36,89,2
3,36,0,108
3,31,107,84
3,31,0,104
3,31,93,40
3,31,0,17
3,31,102,31
3,31,0,184
3,36,89,8
3,36,0,107
3,36,98,37
3,36,0,42
3,38,93,6
3,38,0,178
3,31,93,14
3,31,0,110
3,31,93,34
3,31,0,18
3,31,93,30
3,31,0,174
3,38,107,18
3,38,0,97
3,38,107,47
3,38,0,46
3,36,89,2
3,36,0,108
3,31,107,84
3,31,0,104
3,31,93,40
3,31,0,17
3,31,102,31
3,31,0,184
3,36,89,8
3,36,0,107
3,36,98,37
3,36,0,42
3,38,93,6
3,38,0,178
3,31,93,14
3,31,0,110
3,31,93,34
3,31,0,18
3,31,93,30
3,31,0,174
3,38,107,18
3,38,0,97
3,38,107,47
3,38,0,46
3,36,89,2
3,36,0,108
3,31,107,84
3,31,0,104
3,31,93,40
3,31,0,17
3,31,102,31
3,31,0,184
3,36,89,8
3,36,0,107
3,36,98,37
3,36,0,42
3,38,93,6
3,38,0,178
3,31,93,14
3,31,0,110
3,31,93,34
3,31,0,18
3,31,93,30
3,31,0,174
3,38,107,18
3,38,0,97
3,38,107,47
3,38,0,46
3,36,89,2
3,36,0,108
3,28,102,84
3,28,0,109
3,28,93,35
3,28,0,20
3,28,102,28
3,40,98,96
3,28,0,1
3,40,0,91
3,38,93,4
3,38,0,94
3,38,89,50
3,38,0,18
3,38,93,30
3,33,85,48
3,38,0,6
3,38,98,42
3,33,0,1
3,38,0,93
3,28,102,2
3,28,0,107
3,28,98,37
3,28,0,20
3,28,98,28
3,28,0,88
3,40,102,8
3,40,0,84
3,38,102,12
3,38,0,106
3,38,102,38
3,38,0,17
3,38,107,31
3,38,0,48
3,40,98,0
3,38,107,48
3,40,0,3
3,38,0,46
3,31,102,47
3,31,0,109
3,31,102,35
3,31,0,19
3,31,102,29
3,31,0,181
3,36,98,11
3,36,0,96
3,36,93,48
3,36,0,20
3,38,102,28
3,38,0,106
3,38,107,38
3,38,0,24
3,31,102,24
3,31,0,109
3,31,102,35
3,31,0,19
3,31,102,29
3,31,0,181
3,36,98,11
3,36,0,96
3,36,93,48
3,36,0,20
3,38,102,28
3,38,0,106
3,38,107,38
3,38,0,24
3,31,102,24
3,31,0,109
3,31,102,35
3,31,0,19
3,31,102,29
3,31,0,181
3,36,98,11
3,36,0,96
3,36,93,48
3,36,0,20
3,38,102,28
3,38,0,106
3,38,107,38
3,38,0,24
3,28,119,24
3,28,0,582
3,43,80,186
3,43,0,374
3,38,55,10
3,38,0,190
3,36,80,2
3,31,93,192
3,36,0,2
3,31,0,94
3,43,64,0
3,43,0,234
3,40,85,6
3,40,0,72
3,38,107,24
3,38,0,56
3,36,89,40
3,36,0,58
3,36,59,38
3,35,107,0
3,36,0,19
3,35,0,25
3,36,102,4
3,33,89,0
3,36,0,24
3,33,0,18
3,36,102,6
3,31,107,0
3,31,0,36
3,36,0,2
3,31,102,10
3,31,0,109
3,31,102,35
3,31,0,19
3,31,102,29
3,31,0,181
3,36,98,11
3,36,0,96
3,36,93,48
3,36,0,20
3,38,102,28
3,38,0,106
3,38,107,38
3,38,0,24
3,31,102,24
3,31,0,109
3,31,102,35
3,31,0,19
3,31,102,29
3,31,0,181
3,36,98,11
3,36,0,96
3,36,93,48
3,36,0,20
3,38,102,28
3,38,0,106
3,38,107,38
3,38,0,24
3,31,102,24
3,31,0,109
3,31,102,35
3,31,0,19
3,31,102,29
3,31,0,181
3,36,98,11
3,36,0,96
3,36,93,48
3,36,0,20
3,38,102,28
3,38,0,106
3,38,107,38
3,38,0,24
3,31,102,24
3,31,0,109
3,31,102,35
3,31,0,19
3,31,102,29
3,31,0,181
3,36,98,11
3,36,0,96
3,36,93,48
3,36,0,20
3,38,102,28
3,38,0,106
3,38,107,38
3,38,0,24
3,31,102,24
3,31,0,109
3,31,102,35
3,31,0,19
3,31,102,29
3,31,0,181
3,36,98,11
3,36,0,96
3,36,93,48
3,36,0,20
3,38,102,28
3,38,0,106
3,38,107,38
3,38,0,24
3,31,102,24
3,31,0,109
3,31,102,35
3,31,0,19
3,31,102,29
3,31,0,181
3,36,98,11
3,36,0,96
3,36,93,48
3,36,0,20
3,38,102,28
3,38,0,106
3,38,107,38
3,38,0,24
3,31,102,24
3,31,0,109
3,31,102,35
3,31,0,19
3,31,102,29
3,31,0,181
3,36,98,11
3,36,0,96
3,36,93,48
3,36,0,20
3,38,102,28
3,38,0,106
3,38,107,38
3,38,0,24
3,28,119,24
3,28,0,774
4,62,93,1877
4,43,89,0
4,55,72,0
4,59,85,0
4,50,68,7
4,55,0,8
4,50,0,17
4,59,0,49
4,62,0,4
4,55,80,18
4,55,0,26
4,62,113,22
4,57,107,0
4,43,0,7
4,55,72,41
4,57,0,2
4,62,0,11
4,55,0,9
4,50,93,74
4,57,80,46
4,62,102,14
4,57,0,26
4,50,0,9
4,62,0,7
4,66,93,6
4,66,0,20
4,48,93,28
4,60,102,42
4,64,107,0
4,67,102,0
4,60,46,20
4,64,60,0
4,67,62,0
4,60,0,13
4,64,0,7
4,67,0,8
4,55,98,20
4,59,72,34
4,62,89,48
4,67,89,10
4,67,0,45
4,59,0,47
4,74,98,4
4,55,0,34
4,74,0,36
4,50,76,74
4,57,76,0
4,74,93,0
4,69,72,0
4,66,59,0
4,69,85,25
4,57,0,19
4,50,0,3
4,66,89,26
4,69,0,8
4,66,0,15
4,48,93,25
4,55,98,42
4,60,89,48
4,64,80,48
4,55,0,3
4,60,0,1
4,48,0,14
4,64,0,6
4,43,85,24
4,62,85,0
4,59,64,0
4,67,76,0
4,59,0,233
4,62,0,7
4,67,0,87
4,43,0,11
4,59,64,1198
4,67,76,0
4,62,85,0
4,43,85,0
4,59,0,233
4,62,0,7
4,67,0,87
4,43,0,11
4,59,64,1198
4,62,85,0
4,43,85,0
4,67,76,0
4,59,0,233
4,62,0,7
4,67,0,87
4,43,0,11
4,59,64,1198
4,43,85,0
4,62,85,0
4,67,76,0
4,59,0,233
4,62,0,7
4,67,0,87
4,43,0,11
4,64,80,1198
4,52,85,0
4,71,85,0
4,67,89,0
4,66,76,1
4,57,76,0
4,69,85,12
4,57,0,40
4,69,0,16
4,57,57,40
4,74,85,0
4,74,0,24
4,57,0,2
4,78,89,70
4,78,0,17
4,71,89,112
4,67,72,9
4,67,0,36
4,64,89,108
4,64,0,22
4,54,72,62
4,50,93,7
4,54,0,28
4,50,0,19
4,54,85,1
4,54,0,40
4,57,76,8
4,57,0,46
4,62,89,2
4,62,0,48
4,57,57,0
4,55,89,71
4,59,102,0
4,62,98,0
4,43,93,0
4,50,80,31
4,59,0,2
4,62,0,6
4,50,0,12
4,62,107,28
4,57,102,0
4,43,0,23
4,62,0,13
4,57,0,1
4,55,76,59
4,55,0,20
4,48,89,28
4,55,93,45
4,60,93,8
4,48,0,22
4,60,0,12
4,64,72,14
4,64,0,19
4,50,107,1
4,54,53,48
4,54,60,18
4,57,89,0
4,62,89,0
4,50,0,34
4,54,0,1
4,43,93,55
4,55,89,0
4,59,102,0
4,62,98,0
4,50,80,31
4,59,0,2
4,62,0,6
4,50,0,12
4,62,107,28
4,57,102,0
4,43,0,23
4,62,0,13
4,57,0,1
4,55,76,59
4,55,0,20
4,48,89,28
4,55,93,45
4,60,93,8
4,48,0,22
4,60,0,12
4,64,72,14
4,64,0,19
4,50,107,1
4,54,53,48
4,62,89,18
4,54,60,0
4,57,89,0
4,50,0,34
4,54,0,1
4,62,98,55
4,55,89,0
4,59,102,0
4,43,93,0
4,50,80,31
4,59,0,2
4,62,0,6
4,50,0,12
4,57,102,28
4,62,107,0
4,43,0,23
4,62,0,13
4,57,0,1
4,55,76,59
4,55,0,20
4,48,89,28
4,55,93,45
4,60,93,8
4,48,0,22
4,60,0,12
4,64,72,14
4,64,0,19
4,50,107,1
4,54,53,48
4,57,89,18
4,62,89,0
4,54,60,0
4,50,0,34
4,54,0,1
4,59,93,22
4,64,102,0
4,40,102,0
4,67,102,0
4,59,0,501
4,64,0,16
4,67,0,28
4,40,0,8
4,59,85,215
4,55,72,0
4,62,93,0
4,43,89,0
4,50,68,7
4,55,0,8
4,50,0,17
4,59,0,49
4,62,0,4
4,55,80,18
4,55,0,26
4,57,107,22
4,62,113,0
4,43,0,7
4,55,72,41
4,57,0,2
4,62,0,11
4,55,0,9
4,50,93,74
4,57,80,46
4,62,102,14
4,57,0,26
4,50,0,9
4,62,0,7
