track,note,velocity,time
3,58,127,25882
3,58,0,234
3,58,124,10
3,58,0,234
3,58,127,2
3,58,0,234
3,58,127,4
3,58,0,234
3,58,127,6
3,58,0,476
3,58,127,489
3,58,0,232
3,55,127,6
3,55,0,230
3,58,127,9
3,58,0,234
3,58,124,7
3,58,0,234
3,58,127,6
3,58,0,234
3,57,121,6
3,57,0,227
3,55,124,10
3,55,0,234
3,55,127,12
3,55,0,234
3,58,127,6
3,57,127,241
3,58,0,3
3,55,127,238
3,57,0,3
3,55,0,219
3,55,111,11
3,55,0,229
3,58,127,13
3,58,0,239
3,57,127,2
3,55,114,241
3,57,0,3
3,55,0,231
3,55,114,3
3,55,0,236
3,57,127,8
3,57,0,486
3,58,127,954
3,58,0,231
3,55,111,9
3,55,0,234
3,58,127,2
3,58,0,234
3,58,127,6
3,58,0,478
3,55,114,2
3,55,0,226
3,58,127,13
3,58,0,706
3,55,124,19
3,55,0,217
3,58,127,18
3,58,0,475
3,58,127,4
3,55,111,243
3,58,0,3
3,55,0,231
3,58,127,5
3,58,0,119
3,57,127,0
3,55,127,124
3,57,0,2
3,55,0,231
3,55,127,4
3,55,0,233
3,55,124,6
3,55,0,233
3,58,127,8
3,58,0,230
3,57,127,10
3,57,0,238
3,55,127,3
3,55,0,233
3,55,127,6
3,55,0,234
3,50,127,5
3,50,0,481
3,53,127,1
3,53,0,234
3,55,127,8
3,55,0,232
3,55,127,5
3,55,0,233
3,53,127,10
3,53,0,233
3,62,127,483
3,62,0,234
3,62,127,5
3,62,0,240
3,58,127,1
3,58,0,232
3,55,127,9
3,55,0,227
3,58,127,15
3,58,0,234
3,58,127,7
3,58,0,473
3,55,114,4
3,55,0,232
3,58,127,8
3,58,0,498
3,60,127,462
3,60,0,234
3,60,127,6
3,60,0,462
3,60,124,16
3,62,127,245
3,60,0,13
3,62,0,450
3,55,114,259
3,55,0,124
3,58,127,111
3,58,0,223
3,58,120,22
3,58,0,215
3,58,127,27
3,58,0,212
3,58,124,29
3,58,0,234
3,58,127,4
3,58,0,225
3,57,127,12
3,57,0,233
3,55,124,6
3,55,0,234
3,55,124,5
3,55,0,238
3,58,127,4
3,58,0,237
3,57,127,1
3,57,0,243
3,53,124,231
3,55,127,241
3,53,0,5
3,53,127,238
3,55,0,4
3,55,127,238
3,53,0,14
3,55,0,223
3,53,127,3
3,53,0,234
3,58,127,10
3,58,0,234
3,58,127,1
3,58,0,474
3,55,124,4
3,55,0,230
3,58,127,10
3,55,117,727
3,58,0,2
3,55,0,232
3,58,127,5
3,58,0,234
3,58,127,1
3,55,111,484
3,58,0,5
3,55,0,216
3,58,127,13
3,57,127,116
3,58,0,4
3,55,127,118
3,57,0,5
3,55,0,267
3,50,117,211
3,50,0,137
3,58,127,105
3,58,0,234
3,58,127,7
3,55,124,478
3,58,0,16
3,55,0,214
3,50,127,11
3,50,0,480
3,55,127,1
3,55,0,456
3,55,127,18
3,53,127,245
3,55,0,6
3,53,0,228
3,55,106,6971
3,55,0,232
3,58,127,6
3,58,0,219
3,58,120,18
3,58,0,234
3,58,127,6
3,58,0,236
3,55,127,5
3,55,0,238
3,58,127,0
3,58,0,476
3,55,127,246
3,58,127,240
3,55,0,3
3,58,0,240
3,55,124,1
3,55,0,233
3,58,127,3
3,58,0,238
3,55,127,4
3,58,127,234
3,55,0,14
3,58,0,222
3,57,127,3
3,57,0,237
3,55,127,6
3,55,0,234
3,55,127,3
3,55,0,234
3,58,127,8
3,58,0,232
3,57,127,4
3,55,127,245
3,57,0,2
3,55,0,232
3,55,127,7
3,58,127,242
3,55,0,12
3,57,127,226
3,58,0,2
3,57,0,236
3,55,127,1
3,55,0,234
3,55,127,11
3,57,127,237
3,55,0,7
3,57,0,478
3,55,99,717
3,55,0,234
3,58,127,0
3,58,0,232
3,55,114,11
3,55,0,234
3,58,127,7
3,58,0,467
3,55,91,7
3,55,0,234
3,58,127,9
3,58,0,720
3,58,127,2
3,58,0,236
3,55,121,6
3,55,0,234
3,58,127,5
3,55,114,484
3,58,0,1
3,55,0,233
3,58,127,0
3,57,127,117
3,58,0,8
3,55,127,117
3,57,0,9
3,55,0,447
3,58,127,507
3,58,0,234
3,58,127,7
3,55,127,474
3,58,0,4
3,55,0,222
3,50,127,12
3,55,127,482
3,50,0,2
3,55,0,454
3,55,127,22
3,53,124,243
3,55,0,1
3,53,0,233
3,62,127,487
3,62,0,234
3,62,127,3
3,62,0,245
3,58,127,0
3,58,0,232
3,55,127,3
3,55,0,234
3,58,127,11
3,58,0,234
3,58,127,6
3,58,0,473
3,55,114,4
3,55,0,232
3,58,127,8
3,58,0,498
3,60,127,462
3,60,0,234
3,60,127,6
3,60,0,462
3,60,124,16
3,62,127,245
3,60,0,13
3,62,0,450
3,55,114,259
3,55,0,234
3,58,127,1
3,58,0,223
3,58,120,22
3,58,0,215
3,58,127,27
3,58,0,212
3,58,124,29
3,58,0,234
3,58,127,4
3,58,0,225
3,57,127,12
3,57,0,233
3,55,124,6
3,55,0,234
3,55,124,5
3,55,0,238
3,58,127,4
3,58,0,237
3,57,127,1
3,57,0,243
3,53,124,231
3,55,127,241
3,53,0,5
3,53,127,238
3,55,0,4
3,55,127,238
3,53,0,14
3,55,0,223
3,53,127,3
3,53,0,234
3,58,127,10
3,58,0,234
3,58,127,1
3,58,0,474
3,55,124,4
3,55,0,230
3,58,127,10
3,55,117,727
3,58,0,2
3,55,0,232
3,58,127,5
3,58,0,234
3,58,127,1
3,55,111,484
3,58,0,5
3,55,0,216
3,58,127,13
3,57,127,116
3,58,0,4
3,55,127,118
3,57,0,5
3,55,0,267
3,50,117,211
3,50,0,137
3,58,127,105
3,58,0,234
3,58,127,7
3,55,124,478
3,58,0,16
3,55,0,214
3,50,127,11
3,50,0,480
3,55,127,1
3,55,0,456
3,55,127,18
3,53,127,245
3,55,0,6
3,53,0,130
3,55,124,24345
3,55,0,222
3,58,127,16
3,58,0,234
3,58,124,7
3,58,0,234
3,58,127,9
3,58,0,232
3,55,127,6
3,55,0,230
3,58,127,12
3,58,0,848
3,58,127,113
3,58,0,234
3,55,127,5
3,58,127,240
3,55,0,8
3,58,0,227
3,55,127,2
3,55,0,231
3,58,127,9
3,57,127,119
3,58,0,9
3,55,127,111
3,57,0,1
3,55,0,228
3,55,127,6
3,55,0,234
3,55,127,10
3,58,127,242
3,55,0,8
3,58,0,235
3,57,127,0
3,57,0,237
3,55,127,3
3,55,0,234
3,55,124,4
3,58,127,239
3,55,0,9
3,57,127,234
3,58,0,2
3,55,127,243
3,57,0,4
3,55,0,205
3,55,127,24
3,57,127,242
3,55,0,5
3,57,0,490
3,58,127,941
3,58,0,241
3,55,111,1
3,55,0,234
3,58,127,2
3,58,0,469
3,58,120,17
3,58,0,233
3,55,127,8
3,58,127,241
3,55,0,1
3,58,0,719
3,55,111,0
3,55,0,234
3,58,127,3
3,58,0,234
3,58,127,5
3,55,103,483
3,58,0,9
3,58,127,224
3,55,0,1
3,57,127,115
3,58,0,3
3,55,127,119
3,57,0,9
3,55,0,225
3,50,117,259
3,50,0,234
3,58,127,5
3,57,127,236
3,58,0,8
3,57,0,225
3,55,127,7
3,55,0,234
3,55,127,3
3,55,0,234
3,50,127,6
3,50,0,234
3,50,127,11
3,50,0,230
3,53,127,4
3,55,127,238
3,53,0,18
3,55,0,216
3,55,127,8
3,55,0,240
3,62,127,724
3,62,0,239
3,62,124,1
3,58,127,237
3,62,0,1
3,58,0,238
3,55,127,4
3,55,0,237
3,58,127,3
3,58,0,234
3,58,127,6
3,58,0,473
3,55,114,4
3,55,0,232
3,58,127,8
3,58,0,498
3,60,127,462
3,60,0,234
3,60,127,6
3,60,0,462
3,60,124,16
3,62,127,245
3,60,0,13
3,62,0,450
3,55,114,259
3,55,0,124
3,58,127,111
3,58,0,223
3,58,120,22
3,58,0,215
3,58,127,27
3,58,0,212
3,58,124,29
3,58,0,234
3,58,127,4
3,58,0,225
3,57,127,12
3,57,0,233
3,55,124,6
3,55,0,234
3,55,124,5
3,55,0,238
3,58,127,4
3,58,0,237
3,57,127,1
3,57,0,243
3,53,124,231
3,55,127,241
3,53,0,5
3,53,127,238
3,55,0,4
3,55,127,238
3,53,0,14
3,55,0,223
3,53,127,3
3,53,0,234
3,58,127,10
3,58,0,234
3,58,127,1
3,58,0,474
3,55,124,4
3,55,0,230
3,58,127,10
3,55,117,727
3,58,0,2
3,55,0,232
3,58,127,5
3,58,0,234
3,58,127,1
3,55,111,484
3,58,0,5
3,55,0,216
3,58,127,13
3,57,127,116
3,58,0,4
3,55,127,118
3,57,0,5
3,55,0,267
3,50,117,211
3,50,0,137
3,58,127,105
3,58,0,234
3,58,127,7
3,55,124,478
3,58,0,16
3,55,0,214
3,50,127,11
3,50,0,480
3,55,127,1
3,55,0,456
3,55,127,18
3,53,127,245
3,55,0,6
3,53,0,228
3,62,127,15849
3,62,0,237
3,62,127,1
3,62,0,239
3,58,127,1
3,58,0,238
3,55,117,2
3,55,0,234
3,58,127,7
3,58,0,234
3,58,127,7
3,58,0,473
3,55,114,4
3,55,0,232
3,58,127,8
3,58,0,498
3,60,127,462
3,60,0,234
3,60,127,6
3,60,0,462
3,60,124,16
3,62,127,245
3,60,0,13
3,62,0,450
3,55,114,259
3,55,0,234
3,58,127,1
3,58,0,223
3,58,120,22
3,58,0,215
3,58,127,27
3,58,0,212
3,58,124,29
3,58,0,234
3,58,127,4
3,58,0,225
3,57,127,12
3,57,0,233
3,55,124,6
3,55,0,234
3,55,124,5
3,55,0,238
3,58,127,4
3,58,0,237
3,57,127,1
3,57,0,243
3,53,124,231
3,55,127,241
3,53,0,5
3,53,127,238
3,55,0,4
3,55,127,238
3,53,0,14
3,55,0,223
3,53,127,3
3,53,0,234
3,58,127,10
3,58,0,234
3,58,127,1
3,58,0,474
3,55,124,4
3,55,0,230
3,58,127,10
3,55,117,727
3,58,0,2
3,55,0,232
3,58,127,5
3,58,0,234
3,58,127,1
3,55,111,484
3,58,0,5
3,55,0,216
3,58,127,13
3,57,127,116
3,58,0,4
3,55,127,118
3,57,0,5
3,55,0,267
3,50,117,211
3,50,0,137
3,58,127,105
3,58,0,234
3,58,127,7
3,55,124,478
3,58,0,16
3,55,0,214
3,50,127,11
3,50,0,480
3,55,127,1
3,55,0,456
3,55,127,18
3,53,127,245
3,55,0,6
3,53,0,228
3,62,127,61929
3,62,0,237
3,62,127,1
3,62,0,239
3,58,127,1
3,58,0,238
3,55,117,2
3,55,0,234
3,58,127,7
3,58,0,234
3,58,127,7
3,58,0,473
3,55,114,4
3,55,0,232
3,58,127,8
3,58,0,498
3,60,127,462
3,60,0,234
3,60,127,6
3,60,0,462
3,60,124,16
3,62,127,245
3,60,0,13
3,62,0,450
3,55,114,259
3,55,0,234
3,58,127,1
3,58,0,223
3,58,120,22
3,58,0,215
3,58,127,27
3,58,0,212
3,58,124,29
3,58,0,234
3,58,127,4
3,58,0,225
3,57,127,12
3,57,0,233
3,55,124,6
3,55,0,234
3,55,124,5
3,55,0,238
3,58,127,4
3,58,0,237
3,57,127,1
3,57,0,243
3,53,124,231
3,55,127,241
3,53,0,5
3,53,127,238
3,55,0,4
3,55,127,238
3,53,0,14
3,55,0,223
3,53,127,3
3,53,0,234
3,58,127,10
3,58,0,234
3,58,127,1
3,58,0,474
3,55,124,4
3,55,0,230
3,58,127,10
3,55,117,727
3,58,0,2
3,55,0,232
3,58,127,5
3,58,0,234
3,58,127,1
3,55,111,484
3,58,0,5
3,55,0,216
3,58,127,13
3,57,127,116
3,58,0,4
3,55,127,118
3,57,0,5
3,55,0,267
3,50,117,211
3,50,0,137
3,58,127,105
3,58,0,234
3,58,127,7
3,55,124,478
3,58,0,16
3,55,0,214
3,50,127,11
3,50,0,480
3,55,127,1
3,55,0,456
3,55,127,18
3,53,127,245
3,55,0,6
3,53,0,228
5,28,124,17466
5,28,0,239
5,29,124,1
5,29,0,239
5,30,122,1
5,30,0,239
5,31,124,1
5,31,0,960
5,38,125,0
5,38,0,960
5,31,127,0
5,31,0,960
5,38,125,0
5,38,0,239
5,31,124,1
5,31,0,239
5,34,123,1
5,34,0,480
5,31,125,0
5,31,0,960
5,38,127,0
5,38,0,960
5,31,124,0
5,31,0,960
5,38,122,0
5,38,0,239
5,41,125,1
5,41,0,239
5,40,124,1
5,40,0,239
5,38,122,1
5,38,0,239
5,31,125,1
5,31,0,960
5,31,127,0
5,31,0,960
5,36,127,0
5,36,0,960
5,36,127,0
5,36,0,960
5,31,124,0
5,31,0,960
5,31,122,0
5,31,0,480
5,36,127,0
5,36,0,480
5,38,125,0
5,38,0,960
5,38,124,0
5,38,0,480
5,38,122,0
5,38,0,480
5,31,124,0
5,31,0,960
5,31,124,0
5,31,0,960
5,36,127,0
5,36,0,960
5,36,127,0
5,36,0,480
5,34,122,0
5,34,0,480
5,31,125,0
5,31,0,960
5,38,127,0
5,38,0,960
5,31,127,0
5,31,0,720
5,38,125,0
5,38,0,239
5,43,124,1
5,43,0,239
5,43,125,1
5,43,0,239
5,38,127,1
5,38,0,239
5,34,120,1
5,34,0,239
5,31,124,1
5,31,0,480
5,35,124,0
5,35,0,480
5,38,125,0
5,38,0,239
5,38,124,1
5,38,0,239
5,40,124,1
5,40,0,239
5,38,122,1
5,38,0,239
5,36,127,1
5,36,0,480
5,40,127,0
5,40,0,239
5,36,124,1
5,36,0,239
5,43,124,1
5,43,0,239
5,43,120,1
5,43,0,239
5,40,124,1
5,40,0,239
5,43,122,1
5,43,0,239
5,31,124,1
5,31,0,480
5,35,122,0
5,35,0,480
5,38,124,0
5,38,0,239
5,38,127,1
5,38,0,239
5,35,124,1
5,35,0,480
5,38,127,0
5,38,0,480
5,38,124,0
5,38,0,480
5,29,127,0
5,29,0,480
5,29,124,0
5,29,0,480
5,31,125,0
5,31,0,480
5,35,125,0
5,35,0,239
5,31,122,1
5,31,0,239
5,38,127,1
5,38,0,239
5,38,124,1
5,38,0,239
5,40,125,1
5,40,0,239
5,38,125,1
5,38,0,239
5,36,124,1
5,36,0,480
5,40,127,0
5,40,0,239
5,36,122,1
5,36,0,239
5,43,124,1
5,43,0,239
5,43,122,1
5,43,0,239
5,40,125,1
5,40,0,239
5,43,124,1
5,43,0,239
5,31,127,1
5,31,0,480
5,35,127,0
5,35,0,480
5,38,124,0
5,38,0,239
5,38,124,1
5,38,0,239
5,29,127,1
5,29,0,239
5,30,126,1
5,30,0,239
5,31,127,1
5,31,0,960
5,38,127,0
5,38,0,960
5,31,127,0
5,31,0,960
5,38,124,0
5,38,0,239
5,31,124,1
5,31,0,239
5,34,123,1
5,34,0,480
5,31,125,0
5,31,0,960
5,38,127,0
5,38,0,960
5,31,124,0
5,31,0,960
5,38,124,0
5,38,0,239
5,41,127,1
5,41,0,239
5,40,125,1
5,40,0,239
5,38,122,1
5,38,0,239
5,31,127,1
5,31,0,960
5,31,127,0
5,31,0,960
5,36,127,0
5,36,0,960
5,36,125,0
5,36,0,480
5,34,123,0
5,34,0,480
5,31,124,0
5,31,0,960
5,31,125,0
5,31,0,480
5,36,127,0
5,36,0,480
5,38,127,0
5,38,0,960
5,38,124,0
5,38,0,480
5,38,122,0
5,38,0,480
5,31,124,0
5,31,0,960
5,31,122,0
5,31,0,960
5,36,127,0
5,36,0,960
5,36,124,0
5,36,0,480
5,34,122,0
5,34,0,480
5,31,124,0
5,31,0,480
5,35,125,0
5,35,0,480
5,38,125,0
5,38,0,480
5,38,124,0
5,38,0,480
5,31,124,0
5,31,0,239
5,43,124,1
5,43,0,239
5,43,122,1
5,43,0,239
5,43,122,1
5,43,0,239
5,43,124,1
5,43,0,239
5,43,125,1
5,43,0,239
5,38,127,1
5,38,0,239
5,34,122,1
5,34,0,239
5,31,124,1
5,31,0,480
5,35,125,0
5,35,0,480
5,38,127,0
5,38,0,239
5,38,124,1
5,38,0,239
5,40,124,1
5,40,0,239
5,38,124,1
5,38,0,239
