track,note,velocity,time
0,42,121,0
0,42,121,232
0,42,121,232
0,42,121,231
0,40,109,228
0,36,120,3
0,42,121,1
0,40,109,83
0,42,116,3
0,43,109,69
0,42,108,3
0,38,117,0
0,44,109,7
0,42,101,3
0,52,109,3
0,42,121,3
0,36,120,0
0,47,109,27
0,42,121,3
0,36,127,0
0,49,84,69
0,42,114,3
0,38,117,0
0,47,92,134
0,42,118,0
0,36,127,0
0,52,109,5
0,42,104,3
0,36,127,0
0,47,109,3
0,42,110,3
0,49,84,69
0,42,120,0
0,38,117,0
0,47,101,149
0,42,107,3
0,52,109,11
0,42,100,3
0,36,117,0
0,47,109,8
0,42,115,3
0,36,127,0
0,49,101,7
0,42,95,3
0,38,117,0
0,47,109,9
0,46,91,3
0,36,109,0
0,40,109,17
0,42,87,3
0,36,127,0
0,40,109,83
0,42,85,3
0,43,109,68
0,42,105,3
0,38,117,0
0,44,109,7
0,42,75,3
0,52,109,3
0,42,89,3
0,36,127,0
0,47,109,27
0,42,100,3
0,36,96,0
0,49,109,68
0,42,118,2
0,38,117,0
0,47,109,3
0,42,97,3
0,36,120,0
0,52,109,0
0,42,109,2
0,36,110,0
0,47,109,16
0,42,77,3
0,49,109,0
0,42,86,3
0,38,117,0
0,47,109,45
0,42,82,3
0,55,109,8
0,42,78,3
0,36,127,0
0,54,109,9
0,42,120,3
0,36,106,0
0,52,109,2
0,42,105,3
0,38,117,0
0,49,109,148
0,46,127,3
0,36,127,0
0,40,107,22
0,40,109,0
0,40,90,0
0,40,84,0
0,42,121,3
0,36,124,0
0,49,117,1
0,40,109,52
0,52,71,0
0,42,104,3
0,43,109,8
0,52,71,0
0,59,85,0
0,56,90,0
0,56,84,0
0,59,84,0
0,52,82,0
0,38,117,3
0,42,121,1
0,44,109,7
0,42,104,0
0,35,107,3
0,52,109,0
0,52,71,0
0,36,127,3
0,42,89,1
0,47,109,27
0,40,84,0
0,36,127,3
0,42,116,1
0,49,84,19
0,59,73,0
0,56,69,0
0,52,65,0
0,52,84,0
0,56,84,0
0,59,84,0
0,38,117,3
0,42,109,1
0,47,92,99
0,42,77,0
0,36,127,0
0,40,107,5
0,52,109,0
0,52,57,0
0,36,115,3
0,42,112,0
0,47,109,3
0,42,121,3
0,49,84,69
0,56,73,0
0,52,71,0
0,59,73,0
0,56,84,0
0,52,84,0
0,59,84,0
0,40,84,0
0,38,117,0
0,42,98,1
0,47,101,102
0,42,94,3
0,35,107,10
0,52,109,0
0,52,82,0
0,36,95,0
0,42,86,1
0,47,109,8
0,40,84,0
0,42,118,3
0,36,118,0
0,49,101,7
0,64,90,0
0,59,81,0
0,56,60,0
0,40,98,0
0,64,84,0
0,59,84,0
0,56,84,0
0,42,121,3
0,38,117,0
0,47,109,9
0,46,100,3
0,36,99,0
0,40,107,17
0,40,109,0
0,47,67,0
0,56,71,0
0,42,104,3
0,36,127,0
0,40,109,73
0,42,101,3
0,43,109,28
0,56,69,0
0,64,81,0
0,59,90,0
0,40,59,0
0,56,84,0
0,64,84,0
0,59,84,0
0,42,78,3
0,38,117,0
0,44,109,7
0,42,97,3
0,35,107,0
0,52,109,0
0,56,62,0
0,42,121,3
0,36,127,0
0,47,109,27
0,52,84,0
0,42,85,3
0,36,111,0
0,49,109,25
0,59,96,0
0,64,90,0
0,56,71,0
0,56,59,0
0,59,76,0
0,64,84,0
0,42,78,2
0,38,117,0
0,47,109,3
0,42,82,3
0,36,127,0
0,40,107,13
0,52,109,0
0,64,67,0
0,56,57,0
0,42,121,3
0,36,96,0
0,47,109,16
0,42,75,3
0,49,109,0
0,56,76,0
0,64,90,0
0,59,96,0
0,52,84,0
0,56,76,0
0,64,84,0
0,59,84,0
0,42,110,3
0,38,117,0
0,47,109,45
0,42,113,3
0,35,107,2
0,55,109,0
0,56,59,0
0,36,127,3
0,42,116,1
0,54,109,9
0,52,84,0
0,36,127,3
0,42,97,1
0,52,109,2
0,56,81,0
0,64,98,0
0,59,98,0
0,56,82,0
0,59,84,0
0,64,84,0
0,38,117,3
0,42,103,1
0,49,109,23
0,36,127,3
0,46,96,1
0,40,107,22
0,40,90,0
0,64,73,0
0,56,58,0
0,59,73,0
0,52,84,0
0,36,92,3
0,42,82,1
0,42,121,151
0,59,84,23
0,64,84,0
0,56,84,0
0,38,117,3
0,42,120,1
0,42,121,90
0,35,107,45
0,36,127,3
0,42,85,1
0,52,82,149
0,42,121,3
0,36,112,0
0,56,59,37
0,59,84,0
0,64,71,0
0,42,113,3
0,38,117,0
0,36,104,109
0,42,111,1
0,40,107,60
0,52,84,0
0,36,97,3
0,42,94,1
0,42,117,112
0,52,84,69
0,56,62,0
0,64,84,0
0,59,84,0
0,42,121,3
0,38,117,0
0,42,116,100
0,35,107,6
0,56,53,0
0,42,96,3
0,36,127,0
0,52,84,64
0,42,120,3
0,36,127,0
0,56,76,39
0,64,84,0
0,59,84,0
0,42,82,3
0,38,117,0
0,46,123,10
0,36,127,0
0,28,107,26
0,40,71,0
0,64,90,0
0,59,73,0
0,56,67,0
0,52,71,0
0,42,92,3
0,36,127,0
0,42,113,18
0,64,84,14
0,59,84,0
0,56,76,0
0,42,113,3
0,38,117,0
0,42,95,103
0,40,107,52
0,56,51,0
0,42,78,3
0,36,111,0
0,52,82,76
0,42,121,3
0,36,104,0
0,59,82,40
0,64,84,0
0,56,76,0
0,42,78,3
0,38,117,0
0,42,112,97
0,36,94,0
0,35,107,9
0,47,85,0
0,66,73,0
0,63,85,0
0,59,90,0
0,51,71,0
0,54,82,0
0,42,86,3
0,36,121,0
0,42,78,40
0,51,76,15
0,59,84,0
0,54,55,0
0,42,86,3
0,38,117,0
0,42,121,9
0,40,107,2
0,56,53,0
0,59,67,0
0,64,60,0
0,52,84,0
0,42,113,3
0,36,127,0
0,42,106,38
0,36,97,0
0,64,84,2
0,56,71,0
0,59,84,0
0,42,116,3
0,38,117,0
0,46,114,35
0,36,127,0
0,40,107,69
0,40,90,0
0,64,73,0
0,56,58,0
0,59,73,0
0,52,84,0
0,42,119,3
0,36,127,0
0,42,105,151
0,59,84,23
0,64,84,0
0,56,84,0
0,42,79,3
0,38,117,0
0,42,112,90
0,35,107,45
0,42,114,3
0,36,104,0
0,52,82,148
0,42,93,3
0,36,127,0
0,56,59,37
0,59,84,0
0,64,71,0
0,42,83,3
0,38,117,0
0,42,85,109
0,36,127,0
0,40,107,60
0,52,84,0
0,42,79,3
0,36,103,0
0,42,115,112
0,52,84,68
0,56,62,0
0,64,84,0
0,59,84,0
0,42,109,3
0,38,117,0
0,42,76,100
0,35,107,6
0,56,53,0
0,42,112,3
0,36,127,0
0,52,84,64
0,42,84,3
0,36,97,0
0,56,76,39
0,64,84,0
0,59,84,0
0,42,121,3
0,38,117,0
0,46,119,10
0,36,127,0
0,28,107,26
0,40,71,0
0,64,90,0
0,59,73,0
0,56,67,0
0,52,71,0
0,42,107,3
0,36,107,0
0,42,121,18
0,64,84,14
0,59,84,0
0,56,76,0
0,38,117,3
0,42,121,1
0,42,100,103
0,40,107,52
0,56,51,0
0,36,111,3
0,42,96,1
0,52,82,76
0,36,94,3
0,42,97,1
0,59,82,40
0,64,84,0
0,56,76,0
0,38,117,3
0,42,100,1
0,36,103,97
0,42,107,1
0,35,107,4
0,66,71,0
0,59,90,0
0,63,90,0
0,47,85,0
0,47,84,0
0,36,121,3
0,42,108,1
0,42,121,83
0,66,71,21
0,59,82,0
0,63,84,0
0,38,117,3
0,42,99,1
0,42,121,7
0,40,107,7
0,40,98,0
0,40,84,0
0,36,108,3
0,42,112,1
0,42,113,146
0,36,100,0
0,52,85,36
0,59,98,0
0,56,90,0
0,52,84,0
0,59,84,0
0,56,84,0
0,38,117,3
0,42,82,1
0,46,123,87
0,36,115,0
0,35,107,23
0,52,26,0
0,36,112,3
0,42,100,1
0,40,82,18
0,36,127,3
0,46,127,1
0,52,85,29
0,59,90,0
0,56,85,0
0,56,84,0
0,59,84,0
0,52,84,0
0,38,117,3
0,42,78,1
0,42,121,68
0,28,107,3
0,40,109,0
0,40,98,0
0,52,98,0
0,40,84,0
0,36,124,3
0,42,78,1
0,42,100,28
0,36,127,0
0,28,107,8
0,40,109,0
0,52,98,0
0,40,98,0
0,56,84,0
0,52,84,0
0,59,84,0
0,42,86,3
0,38,117,0
0,36,91,13
0,42,80,1
0,30,107,0
0,42,109,0
0,54,98,0
0,42,98,0
0,52,59,0
0,36,127,3
0,42,103,1
0,40,84,100
0,46,97,3
0,32,107,8
0,44,107,0
0,44,90,0
0,56,98,0
0,56,84,0
0,52,84,0
0,59,84,0
0,38,117,3
0,42,111,1
0,38,117,16
0,42,101,49
0,38,117,0
0,33,107,0
0,45,109,0
0,45,98,0
0,45,84,0
0,73,100,0
0,69,100,0
0,49,114,3
0,42,80,0
0,36,117,0
0,42,121,151
0,61,85,69
0,64,98,0
0,57,90,0
0,61,84,0
0,64,84,0
0,57,84,0
0,38,117,3
0,42,95,1
0,42,95,21
0,33,107,20
0,57,62,0
0,76,100,0
0,36,111,3
0,42,111,1
0,52,81,76
0,45,84,0
0,42,120,3
0,36,106,0
0,57,90,2
0,64,98,0
0,61,98,0
0,64,84,0
0,57,84,0
0,61,84,0
0,42,121,3
0,38,117,0
0,36,127,20
0,42,117,1
0,40,107,35
0,40,38,0
0,52,84,0
0,68,100,0
0,71,100,0
0,42,87,3
0,36,113,0
0,42,100,76
0,56,73,10
0,64,98,0
0,59,96,0
0,56,67,0
0,59,84,0
0,64,82,0
0,38,117,3
0,42,90,1
0,42,88,6
0,40,107,2
0,56,62,0
0,36,109,3
0,42,99,1
0,52,84,31
0,36,127,3
0,42,121,1
0,64,85,14
0,56,90,0
0,59,98,0
0,56,57,0
0,64,84,0
0,59,84,0
0,76,100,0
0,38,117,3
0,42,92,1
0,46,93,58
0,36,109,0
0,35,107,5
0,47,76,0
0,47,84,0
0,78,100,0
0,42,117,2
0,36,127,0
0,42,115,7
0,63,98,69
0,57,98,0
0,66,98,0
0,59,62,0
0,54,84,0
0,63,82,0
0,75,87,0
0,42,121,3
0,38,117,0
0,42,121,57
0,30,107,20
0,63,17,0
0,59,51,0
0,71,100,0
0,42,84,3
0,36,91,0
0,54,84,60
0,42,87,3
0,36,92,0
0,35,107,3
0,66,98,0
0,63,98,0
0,59,90,0
0,59,84,0
0,63,84,0
0,38,117,3
0,42,116,1
0,36,116,73
0,42,107,1
0,28,107,2
0,52,84,0
0,42,75,3
0,36,114,0
0,68,100,57
0,42,107,3
0,52,76,0
0,56,81,0
0,59,98,0
0,64,84,0
0,56,84,0
0,59,84,0
0,42,99,3
0,38,117,0
0,42,108,7
0,40,107,8
0,56,59,0
0,71,100,0
0,36,104,3
0,42,98,1
0,40,98,88
0,52,84,0
0,36,120,2
0,42,80,1
0,28,107,16
0,59,98,0
0,56,98,0
0,52,98,0
0,64,84,0
0,56,76,0
0,59,84,0
0,68,100,0
0,38,117,3
0,42,88,1
0,36,103,11
0,46,127,1
0,33,107,26
0,57,69,0
0,61,84,0
0,45,90,0
0,45,84,0
0,69,100,0
0,73,100,0
0,36,127,3
0,42,77,1
0,42,85,23
0,61,98,68
0,64,98,0
0,57,90,0
0,64,84,0
0,61,84,0
0,57,84,0
0,38,117,3
0,42,121,1
0,42,117,1
0,33,107,22
0,64,76,0
0,61,67,0
0,57,67,0
0,73,94,0
0,76,100,0
0,42,76,3
0,36,101,0
0,52,98,58
0,52,84,0
0,36,112,3
0,42,121,1
0,59,98,5
0,64,98,0
0,57,76,0
0,64,84,0
0,61,84,0
0,38,117,3
0,42,80,1
0,36,112,75
0,42,114,1
0,28,107,12
0,56,84,0
0,59,101,0
0,59,56,0
0,56,60,0
0,64,71,0
0,52,84,0
0,71,100,0
0,68,90,0
0,36,99,3
0,42,79,1
0,42,121,13
0,64,98,6
0,56,90,0
0,59,98,0
0,64,84,0
0,56,82,0
0,59,84,0
0,38,117,3
0,42,102,1
0,42,118,1
0,33,107,2
0,45,98,0
0,52,85,0
0,64,98,0
0,61,96,0
0,57,96,0
0,52,84,0
0,45,84,0
0,57,84,0
0,64,84,0
0,61,84,0
0,73,100,0
0,69,100,0
0,36,127,3
0,42,114,1
0,42,98,44
0,36,127,0
0,45,109,2
0,64,71,0
0,57,67,0
0,61,84,0
0,42,120,3
0,38,117,0
0,36,107,3
0,46,106,1
0,33,107,23
0,45,109,0
0,57,65,0
0,57,47,0
0,36,127,3
0,42,105,1
0,45,109,38
0,52,98,0
0,52,71,0
0,46,113,3
0,36,127,0
0,57,98,5
0,61,76,0
0,57,71,0
0,64,84,0
0,38,117,3
0,42,121,1
0,45,109,0
0,42,90,3
0,33,107,5
0,45,109,0
0,45,98,0
0,64,85,0
0,55,85,0
0,61,85,0
0,45,84,0
0,76,100,0
0,36,113,1
0,42,110,1
0,42,109,5
0,36,127,0
0,45,109,50
0,57,84,0
0,64,84,0
0,61,84,0
0,42,115,3
0,38,117,0
0,45,109,81
0,36,109,3
0,42,121,1
0,33,107,5
0,57,21,0
0,36,102,3
0,42,76,0
0,52,84,2
0,46,126,3
0,45,109,18
0,61,82,0
0,57,84,0
0,64,84,0
0,38,117,3
0,42,120,1
0,38,117,30
0,42,116,7
0,38,117,0
0,40,107,28
0,56,101,0
0,52,84,0
0,42,98,3
0,36,126,0
0,49,117,1
0,42,106,151
0,59,98,2
0,64,90,0
0,56,71,0
0,59,84,0
0,56,84,0
0,64,84,0
0,42,102,3
0,38,117,0
0,42,93,103
0,35,107,20
0,36,127,3
0,42,115,1
0,52,57,36
0,36,127,3
0,42,93,1
0,64,67,24
0,56,65,0
0,52,65,0
0,59,73,0
0,56,59,0
0,59,84,0
0,64,84,0
0,42,121,3
0,38,117,0
0,42,87,116
0,36,117,0
0,40,107,21
0,42,91,3
0,36,93,0
0,42,81,42
0,52,65,15
0,59,76,0
0,56,60,0
0,64,71,0
0,64,84,0
0,56,84,0
0,59,84,0
0,52,84,0
0,38,117,3
0,42,87,1
0,42,105,111
0,35,107,36
0,56,15,0
0,36,127,3
0,42,121,1
0,52,84,29
0,42,117,3
0,36,118,0
0,56,61,3
0,52,71,0
0,64,85,0
0,59,85,0
0,64,84,0
0,56,84,0
0,59,84,0
0,38,117,3
0,42,99,1
0,36,127,111
0,46,104,1
0,40,107,68
0,64,72,0
0,68,78,0
0,42,92,0
0,36,124,0
0,42,85,20
0,64,90,26
0,59,81,0
0,52,73,0
0,56,67,0
0,64,84,0
0,56,71,0
0,59,84,0
0,52,84,0
0,42,99,3
0,38,117,0
0,42,121,94
0,40,107,13
0,36,127,3
0,42,120,1
0,42,107,38
0,36,106,0
0,64,85,69
0,56,76,0
0,59,90,0
0,59,84,0
0,64,84,0
0,56,84,0
0,38,117,3
0,42,97,1
0,42,81,75
0,36,127,0
0,35,107,18
0,63,87,0
0,59,87,0
0,66,82,0
0,47,96,0
0,47,84,0
0,42,89,3
0,36,127,0
0,38,117,72
0,42,94,51
0,66,87,68
0,63,101,0
0,59,92,0
0,66,98,0
0,59,96,0
0,63,98,0
0,59,84,0
0,63,84,0
0,66,84,0
0,38,117,3
0,42,103,1
0,38,117,0
0,42,106,33
0,38,117,0
0,40,107,69
0,40,109,0
0,40,90,0
0,40,84,0
0,42,107,3
0,36,126,0
0,49,112,1
0,40,109,52
0,52,71,0
0,42,121,3
0,43,109,8
0,52,71,0
0,59,85,0
0,56,90,0
0,56,84,0
0,59,84,0
0,52,82,0
0,42,79,3
0,38,117,0
0,44,109,7
0,42,85,0
0,35,107,3
0,52,109,0
0,52,71,0
0,42,83,3
0,36,126,0
0,47,109,27
0,40,84,0
0,42,111,3
0,36,96,0
0,49,84,19
0,52,65,0
0,56,69,0
0,59,73,0
0,52,84,0
0,56,84,0
0,59,84,0
0,38,117,3
0,42,120,1
0,47,92,99
0,42,110,0
0,36,127,0
0,40,107,5
0,52,109,0
0,52,57,0
0,36,117,3
0,42,121,0
0,47,109,3
