track,note,velocity,time
3,64,100,13632
3,64,96,116
3,57,98,16
3,57,104,54
3,57,92,634
3,61,90,194
3,64,90,140
3,66,82,8
3,64,88,204
3,66,94,810
3,68,88,194
3,69,90,22
3,69,88,100
3,71,86,8
3,69,90,194
3,66,89,104
3,64,90,8
3,62,90,80
3,66,90,844
3,64,99,54
3,64,99,54
3,61,94,382
3,64,94,218
3,62,94,216
3,61,92,8
3,61,90,70
3,61,102,736
3,59,96,0
3,57,100,106
3,59,100,404
3,64,92,2246
3,64,91,72
3,61,92,382
3,57,90,622
3,61,90,188
3,64,96,140
3,64,91,90
3,66,92,870
3,68,92,200
3,69,94,146
3,71,96,12
3,69,96,288
3,66,96,246
3,64,98,68
3,62,100,88
3,57,84,576
3,66,84,202
3,64,86,134
3,64,84,94
3,61,88,400
3,64,87,160
3,62,88,350
3,61,92,196
3,59,92,358
3,62,75,448
3,61,86,68
3,59,80,76
3,56,84,174
3,57,80,6
3,69,102,1658
3,69,106,92
3,71,105,192
3,71,102,116
3,68,108,192
3,71,96,394
3,69,100,6
3,71,102,192
3,73,102,154
3,73,98,140
3,73,102,54
3,71,96,114
3,69,96,100
3,68,96,24
3,69,96,192
3,68,98,190
3,69,98,16
3,68,100,192
3,66,100,188
3,64,98,160
3,61,90,688
3,66,92,192
3,68,96,148
3,69,98,10
3,69,100,142
3,69,96,170
3,68,96,192
3,66,98,152
3,64,100,130
3,64,96,476
3,62,98,96
3,61,92,64
3,59,104,354
3,64,98,2220
3,64,102,82
3,61,98,58
3,57,104,192
3,57,92,608
3,61,92,192
3,64,88,16
3,64,94,78
3,64,92,4
3,66,100,842
3,69,100,180
3,73,92,28
3,71,94,34
3,69,94,42
3,69,90,86
3,69,94,96
3,69,92,92
3,66,90,82
3,64,88,22
3,62,94,96
3,66,94,202
3,64,100,192
3,64,102,62
3,64,89,228
3,61,94,12
3,57,92,300
3,64,92,192
3,62,98,130
3,61,98,168
3,59,100,352
3,62,94,344
3,61,87,96
3,59,96,70
3,56,98,162
3,57,98,190
3,64,100,26754
3,64,102,100
3,64,98,100
3,57,96,100
3,57,96,100
3,57,94,674
3,61,90,194
3,64,92,174
3,66,92,6
3,64,92,204
3,66,88,850
3,68,96,6
3,69,94,184
3,69,92,122
3,71,96,6
3,69,96,6
3,66,96,90
3,64,96,6
3,62,86,80
3,66,94,654
3,64,99,12
3,64,99,22
3,61,92,2
3,64,98,196
3,62,96,200
3,61,96,8
3,61,100,104
3,61,88,764
3,59,84,78
3,57,98,14
3,59,102,12
3,64,96,2284
3,64,96,100
3,61,94,2
3,57,90,288
3,61,90,0
3,64,92,184
3,64,96,110
3,66,94,594
3,68,81,12
3,69,100,182
3,71,90,88
3,69,94,4
3,66,90,4
3,64,94,84
3,62,96,8
3,57,88,578
3,66,94,202
3,64,94,164
3,64,94,112
3,61,94,4
3,64,94,6
3,62,92,378
3,61,88,10
3,59,96,374
3,62,82,488
3,61,82,68
3,59,88,20
3,56,92,8
3,57,88,28
3,69,102,1616
3,69,102,100
3,71,105,4
3,71,102,100
3,68,106,4
3,71,104,388
3,69,102,4
3,71,104,4
3,73,96,4
3,73,94,100
3,73,94,100
3,71,106,100
3,69,96,100
3,68,96,4
3,69,96,4
3,68,96,4
3,69,94,4
3,68,98,4
3,66,98,4
3,64,100,4
3,61,90,676
3,66,96,192
3,68,94,4
3,69,98,4
3,69,98,100
3,69,96,196
3,68,98,4
3,66,100,4
3,64,98,100
3,64,100,484
3,62,98,4
3,61,92,4
3,59,94,4
3,64,94,2212
3,64,99,100
3,61,102,100
3,57,90,4
3,57,92,388
3,61,94,4
3,64,94,4
3,64,90,100
3,64,94,32
3,66,89,794
3,69,90,180
3,73,92,4
3,71,96,182
3,69,102,4
3,69,94,90
3,69,90,112
3,69,94,92
3,66,90,100
3,64,84,10
3,62,90,4
3,66,94,196
3,64,90,4
3,64,98,100
3,64,94,196
3,61,90,4
3,57,94,292
3,64,96,4
3,62,96,4
3,61,96,4
3,59,100,4
3,62,92,388
3,61,92,4
3,59,90,4
3,56,94,4
3,57,98,4
3,69,102,2020
3,69,112,100
3,71,108,4
3,71,110,100
3,68,110,4
3,71,106,388
3,69,102,4
3,71,102,4
3,73,106,4
3,73,102,100
3,73,106,100
3,71,102,100
3,69,98,100
3,68,98,4
3,69,98,4
3,68,98,4
3,69,98,4
3,68,98,4
3,66,98,4
3,64,98,4
3,61,90,676
3,66,89,4
3,68,94,4
3,69,94,4
3,69,102,100
3,69,94,196
3,68,96,4
3,66,98,4
3,64,98,100
3,64,100,484
3,62,98,4
3,61,99,4
3,59,98,384
3,64,98,2212
3,64,102,100
3,61,102,100
3,57,98,4
3,57,96,580
3,61,96,4
3,64,100,4
3,64,98,100
3,64,100,4
3,66,89,974
3,69,90,180
3,73,90,4
3,71,96,102
3,69,102,4
3,69,96,90
3,69,98,112
3,69,98,92
3,66,98,100
3,64,94,10
3,62,96,4
3,66,96,196
3,64,96,4
3,64,98,100
3,64,96,196
3,61,94,4
3,57,86,292
3,64,94,4
3,62,100,4
3,61,100,4
3,59,98,4
3,62,78,388
3,61,87,4
3,59,88,4
3,56,92,4
3,57,96,4
3,66,96,1540
3,66,88,100
3,66,96,100
3,64,94,4
3,62,94,4
3,61,96,4
3,57,94,196
3,64,98,4
3,62,98,4
3,61,94,4
3,59,90,4
3,62,86,388
3,61,84,4
3,59,98,4
3,56,98,4
3,57,99,4
4,57,89,38016
4,62,89,0
4,66,89,0
4,57,86,4
4,62,86,0
4,66,86,0
4,59,86,4
4,64,86,0
4,68,86,0
4,59,91,100
4,64,91,0
4,68,91,0
4,59,67,388
4,64,84,0
4,68,76,0
4,57,83,4
4,62,83,0
4,66,83,0
4,59,83,4
4,64,83,0
4,68,83,0
4,61,83,4
4,69,72,0
4,61,79,4
4,64,79,0
4,69,79,0
4,61,81,4
4,64,81,0
4,69,81,0
4,59,84,4
4,64,84,0
4,68,84,0
4,57,65,100
4,62,76,0
4,66,63,0
4,61,78,4
4,64,78,0
4,62,78,4
4,66,78,0
4,61,81,4
4,64,81,0
4,57,75,4
4,62,76,0
4,66,77,0
4,61,81,4
4,64,70,0
4,59,79,4
4,62,79,0
4,57,79,4
4,61,79,0
4,57,87,772
4,62,87,0
4,66,87,0
4,59,87,4
4,64,87,0
4,68,87,0
4,62,91,4
4,66,91,0
4,69,91,0
4,62,89,100
4,66,89,0
4,69,89,0
4,62,87,100
4,66,87,0
4,69,87,0
4,61,87,4
4,64,87,0
4,68,87,0
4,59,86,4
4,62,86,0
4,66,86,0
4,57,91,4
4,61,91,0
4,64,91,0
4,57,81,388
4,61,84,0
4,64,77,0
4,59,84,4
4,62,84,0
4,57,83,4
4,61,76,0
4,56,86,4
4,59,81,0
4,57,86,5092
4,61,86,0
4,64,86,4
4,69,82,192
4,57,79,100
4,61,79,0
4,66,79,0
4,64,79,4
4,57,81,100
4,62,81,0
4,66,81,0
4,67,83,4
4,57,83,100
4,62,83,0
4,66,83,0
4,62,79,100
4,57,81,100
4,62,81,0
4,66,81,0
4,57,83,100
4,62,83,0
4,66,83,0
4,69,81,4
4,57,75,100
4,61,75,0
4,64,75,0
4,57,81,54244
4,62,81,0
4,66,81,0
4,57,84,4
4,62,84,0
4,66,84,0
4,59,86,4
4,64,86,0
4,68,86,0
4,59,89,100
4,64,89,0
4,68,89,0
4,59,67,388
4,64,84,0
4,68,76,0
4,57,83,4
4,62,83,0
4,66,83,0
4,59,84,4
4,64,84,0
4,68,84,0
4,61,86,4
4,69,86,0
4,61,86,4
4,64,86,0
4,69,86,0
4,61,84,4
4,64,84,0
4,69,84,0
4,59,86,4
4,64,86,0
4,68,86,0
4,57,81,100
4,62,81,0
4,66,81,0
4,61,83,4
4,64,68,0
4,62,81,4
4,66,81,0
4,61,83,4
4,64,83,0
4,57,81,4
4,62,81,0
4,66,81,0
4,61,79,4
4,64,79,0
4,59,78,4
4,62,78,0
4,57,81,4
4,61,81,0
4,57,83,772
4,62,83,0
4,66,83,0
4,59,84,4
4,64,84,0
4,68,84,0
4,62,86,4
4,66,86,0
4,69,86,0
4,62,86,100
4,66,86,0
4,69,86,0
4,62,83,100
4,66,83,0
4,69,83,0
4,61,83,4
4,64,83,0
4,68,83,0
4,59,84,4
4,62,84,0
4,66,84,0
4,57,73,4
4,61,75,0
4,64,83,0
4,57,81,388
4,61,84,0
4,64,77,0
4,59,83,4
4,62,83,0
4,57,83,4
4,61,76,0
4,56,86,4
4,59,81,0
4,57,86,5092
4,61,86,0
4,64,84,4
4,69,82,192
4,57,79,100
4,61,79,0
4,66,79,0
4,64,79,4
4,57,73,100
4,62,76,0
4,66,68,0
4,67,79,4
4,57,79,100
4,62,79,0
4,66,79,0
4,62,79,100
4,57,79,100
4,62,79,0
4,66,79,0
4,57,83,4
4,62,83,0
4,66,83,0
4,69,83,4
4,57,84,100
4,61,84,0
4,64,84,0
4,57,83,5092
4,62,83,0
4,66,83,0
4,57,86,4
4,62,86,0
4,66,86,0
4,59,87,4
4,64,87,0
4,68,87,0
4,59,91,100
4,64,91,0
4,68,91,0
4,59,67,388
4,64,84,0
4,68,76,0
4,57,87,4
4,62,87,0
4,66,87,0
4,59,84,4
4,64,84,0
4,68,84,0
4,61,84,4
4,69,72,0
4,61,84,4
4,64,84,0
4,69,84,0
4,61,87,4
4,64,87,0
4,69,87,0
4,59,84,4
4,64,84,0
4,68,84,0
4,57,65,100
4,62,76,0
4,66,63,0
4,61,83,4
4,64,68,0
4,62,81,4
4,66,81,0
4,61,84,4
4,64,84,0
4,57,86,4
4,62,86,0
4,66,86,0
4,61,83,4
4,64,83,0
4,59,83,4
4,62,83,0
4,57,81,4
4,61,81,0
4,57,84,772
4,62,84,0
4,66,84,0
4,59,86,4
4,64,83,0
4,68,83,0
4,62,87,4
4,66,87,0
4,69,87,0
4,62,84,100
4,66,84,0
4,69,84,0
4,62,84,100
4,66,84,0
4,69,84,0
4,61,86,4
4,64,86,0
4,68,86,0
4,59,87,4
4,62,87,0
4,66,87,0
4,57,73,4
4,61,75,0
4,64,83,0
4,57,81,388
4,61,84,0
4,64,77,0
4,59,89,4
4,62,89,0
4,57,83,4
4,61,76,0
4,56,86,4
4,59,81,0
4,57,87,5092
4,61,87,0
4,64,87,4
4,69,82,192
4,57,84,100
4,61,84,0
4,66,84,0
4,64,83,4
4,57,83,100
4,62,83,0
4,66,83,0
4,67,83,4
4,57,84,100
4,62,84,0
4,66,84,0
4,62,86,100
4,57,84,100
4,62,67,0
4,66,65,0
4,57,83,4
4,62,83,0
4,66,83,0
4,69,84,4
4,57,84,100
4,61,84,0
4,64,84,0
4,62,71,4516
4,66,78,0
4,69,48,0
4,62,76,100
4,66,76,0
4,69,76,0
4,64,83,4
4,68,83,0
4,62,79,4
4,66,79,0
4,61,75,4
4,64,75,0
5,33,73,1808
5,52,81,0
5,57,81,0
5,61,78,0
5,64,81,0
5,45,70,52
5,57,91,106
5,61,77,0
5,64,82,0
5,45,77,80
5,57,67,86
5,61,67,0
5,64,65,0
5,45,67,74
5,57,94,168
5,61,97,0
5,64,94,0
5,33,72,118
5,40,72,14
5,56,81,0
5,59,82,0
5,64,71,0
5,40,72,70
5,56,70,54
5,59,78,0
5,64,78,0
5,40,73,96
5,40,79,12
5,56,66,160
5,56,77,84
5,59,82,0
5,64,81,0
5,40,68,2
5,33,79,28
5,57,72,0
5,61,70,0
5,64,79,0
5,45,72,192
5,57,79,78
5,61,79,0
5,64,79,0
5,45,63,14
5,35,79,50
5,57,75,0
5,59,84,0
5,62,79,0
5,47,68,22
5,37,71,28
5,57,70,0
5,61,78,0
5,64,78,0
5,49,61,20
5,38,79,42
5,57,71,0
5,62,79,0
5,66,73,0
5,50,60,6
5,57,75,74
5,62,81,0
5,66,71,0
5,50,77,146
5,38,61,78
5,57,61,0
5,57,83,100
5,62,78,0
5,66,78,0
5,50,78,48
5,57,73,30
5,33,68,62
5,57,68,0
5,61,67,0
5,64,75,0
5,45,43,12
5,57,70,96
5,61,83,0
5,64,78,0
5,45,68,138
5,33,70,74
5,45,58,134
5,57,47,0
5,57,77,44
5,61,83,0
5,64,78,0
5,45,68,122
5,40,61,14
5,56,65,0
5,59,73,0
5,64,71,0
5,40,57,86
5,56,67,84
5,59,77,0
5,64,77,0
5,40,65,154
5,56,62,92
5,59,67,0
5,62,78,0
5,64,50,0
5,40,63,160
5,56,79,4
5,59,82,0
5,62,75,0
5,64,67,0
5,40,61,116
5,33,71,32
5,57,71,0
5,61,65,0
5,64,73,0
5,45,60,192
5,57,75,84
5,61,78,0
5,64,78,0
5,45,71,70
5,57,62,100
5,61,53,0
5,64,62,0
5,33,67,112
5,45,60,146
5,57,57,0
5,61,48,0
5,64,65,0
5,35,70,24
5,28,41,42
5,56,62,0
5,59,70,0
5,64,68,0
5,40,50,30
5,56,53,110
5,59,68,0
5,64,70,0
5,40,56,102
5,28,67,110
5,56,63,0
5,59,61,0
5,62,71,0
5,40,58,0
5,40,57,92
5,56,60,0
5,59,73,0
5,40,57,24
5,33,68,36
5,57,70,0
5,61,65,0
5,64,65,0
5,45,29,192
5,45,60,120
5,57,57,34
5,45,70,52
5,57,72,106
5,61,75,0
5,64,73,0
5,40,71,34
5,64,21,0
5,52,41,132
5,56,71,22
5,59,75,0
5,64,77,0
5,52,65,132
5,56,67,138
5,56,70,22
5,59,79,0
5,64,76,0
5,52,61,130
5,45,68,0
5,52,68,148
5,57,67,192
5,61,71,0
5,64,73,0
5,52,38,18
5,45,68,38
5,52,56,192
5,57,72,68
5,61,65,0
5,64,72,0
5,45,45,84
5,50,73,138
5,57,60,106
5,57,50,34
5,62,78,0
5,66,67,0
5,50,39,124
5,50,60,126
5,57,52,146
5,57,71,74
5,62,70,0
5,66,58,0
5,50,60,144
5,45,70,26
5,52,60,192
5,57,73,142
5,61,78,0
5,64,77,0
5,45,62,114
5,52,61,192
5,57,66,146
5,61,60,0
5,64,76,0
5,52,37,70
5,45,70,30
5,52,53,56
5,57,68,192
5,61,71,0
5,64,68,0
5,45,60,106
5,52,61,66
5,57,62,12
5,61,61,0
5,64,70,0
5,40,71,62
5,47,60,110
5,56,67,192
5,59,71,0
5,64,73,0
5,47,66,100
5,40,62,20
5,47,46,88
5,56,71,192
5,59,75,0
5,64,72,0
5,47,37,158
5,40,72,60
5,47,47,54
5,56,66,192
5,59,79,0
5,64,78,0
5,47,68,132
5,40,60,20
5,56,58,0
5,59,57,0
5,62,68,0
5,64,60,0
5,47,51,6
5,56,71,142
5,59,81,0
5,45,68,36
5,57,63,0
5,61,68,0
5,64,60,0
5,52,45,192
5,57,67,142
5,61,63,0
5,64,77,0
5,52,60,106
5,45,66,22
5,52,53,192
5,57,70,192
5,61,67,0
5,64,72,0
5,40,71,140
5,47,62,124
5,56,65,62
5,59,78,0
5,64,73,0
5,47,60,0
5,40,70,46
5,47,61,192
5,56,61,98
5,59,71,0
5,64,76,0
5,47,60,114
5,45,53,110
5,52,67,144
5,57,67,130
5,61,71,0
5,64,75,0
5,52,58,2
5,45,63,68
5,52,61,192
5,57,68,94
5,61,67,0
5,64,76,0
5,50,67,304
5,62,78,346
5,66,72,0
5,50,51,74
5,50,70,126
5,57,70,0
5,62,82,192
5,66,77,0
5,50,67,68
5,45,67,50
5,52,70,158
5,57,71,108
5,61,73,0
5,64,81,0
5,52,57,64
5,45,67,84
5,52,58,192
5,57,70,122
5,61,68,0
5,64,75,0
5,40,73,242
5,47,62,150
5,56,70,192
5,59,76,0
5,64,77,0
5,47,48,108
5,40,75,120
5,47,53,192
5,56,63,126
5,59,78,0
5,64,76,0
5,45,72,286
5,52,65,120
5,57,71,192
5,61,57,0
5,64,76,0
5,52,70,118
5,45,67,22
5,52,58,8
5,57,55,184
5,61,50,0
5,64,65,0
5,52,67,126
5,45,65,60
5,57,52,0
5,61,43,0
5,64,58,0
5,45,60,34
5,52,76,0
5,57,75,0
5,61,75,0
5,64,45,0
