track,note,velocity,time
0,52,117,2366
0,57,117,1
0,57,0,35
0,52,0,8
0,59,117,182
0,52,91,1
0,52,0,47
0,59,0,3
0,52,83,195
0,61,117,2
0,61,0,40
0,52,0,0
0,57,113,201
0,64,122,2
0,57,0,39
0,64,0,4
0,57,94,195
0,66,122,4
0,57,0,44
0,66,0,10
0,64,113,203
0,69,127,1
0,64,0,45
0,69,0,11
0,71,101,155
0,76,117,15
0,33,127,10
0,45,72,1
0,45,119,4
0,73,108,0
0,71,0,14
0,57,119,156
0,52,119,1
0,61,114,2
0,38,127,3
0,38,0,1
0,57,54,2
0,61,72,1
0,64,47,1
0,64,69,4
0,57,79,2
0,69,79,4
0,73,79,2
0,33,0,17
0,33,125,197
0,36,117,9
0,36,0,1
0,33,0,23
0,76,0,59
0,73,0,30
0,73,0,16
0,73,68,13
0,76,97,5
0,36,127,37
0,36,0,1
0,33,127,13
0,57,0,19
0,69,0,17
0,52,0,24
0,64,0,16
0,64,0,88
0,61,0,20
0,71,86,4
0,57,18,28
0,69,65,4
0,64,69,1
0,52,100,0
0,73,74,2
0,61,0,14
0,73,0,3
0,57,0,22
0,57,0,14
0,57,0,39
0,52,0,38
0,71,0,69
0,69,117,8
0,57,25,31
0,61,109,5
0,57,119,0
0,38,127,0
0,38,0,1
0,52,86,2
0,52,0,79
0,73,0,29
0,64,0,6
0,69,0,7
0,52,83,103
0,69,31,6
0,73,43,1
0,64,38,2
0,64,16,17
0,57,13,3
0,61,16,0
0,61,0,9
0,57,0,4
0,33,0,6
0,45,0,50
0,61,0,4
0,57,0,14
0,73,0,7
0,64,0,6
0,64,0,6
0,69,0,1
0,52,0,7
0,76,0,20
0,57,0,9
0,76,104,1
0,71,113,4
0,69,0,11
0,40,93,1
0,52,53,0
0,36,127,7
0,36,0,1
0,40,36,3
0,28,109,8
0,45,0,27
0,59,119,215
0,52,119,1
0,56,119,2
0,64,74,3
0,56,38,1
0,68,79,2
0,71,79,1
0,59,51,1
0,64,63,1
0,38,127,7
0,38,0,1
0,28,0,71
0,71,0,99
0,71,83,52
0,28,99,6
0,36,122,11
0,36,0,1
0,28,0,28
0,71,0,20
0,52,0,30
0,76,0,5
0,59,0,51
0,71,101,1
0,64,0,4
0,76,101,0
0,36,127,17
0,36,0,1
0,28,109,2
0,56,0,2
0,52,43,6
0,52,0,28
0,71,0,6
0,68,0,38
0,64,0,26
0,64,5,114
0,56,4,3
0,59,16,1
0,64,38,2
0,68,40,3
0,52,0,1
0,52,105,3
0,71,65,3
0,56,0,34
0,59,0,12
0,52,0,73
0,52,31,105
0,59,119,14
0,56,114,2
0,38,127,1
0,38,0,1
0,69,122,4
0,71,0,2
0,59,0,31
0,71,0,10
0,64,0,7
0,56,0,28
0,68,0,42
0,40,0,16
0,64,0,5
0,28,0,43
0,71,101,36
0,64,6,8
0,71,46,1
0,59,11,1
0,56,1,1
0,52,83,0
0,64,33,1
0,68,25,1
0,59,0,10
0,69,0,26
0,56,0,0
0,68,0,58
0,64,0,11
0,59,0,4
0,71,0,9
0,56,0,7
0,64,0,7
0,76,0,20
0,52,0,3
0,40,0,25
0,69,86,11
0,52,0,9
0,33,127,2
0,45,119,8
0,45,41,1
0,73,127,1
0,57,53,1
0,71,0,1
0,36,127,1
0,36,0,1
0,57,47,243
0,57,119,0
0,73,79,2
0,52,119,0
0,64,79,1
0,61,119,0
0,69,79,1
0,38,127,2
0,38,0,1
0,64,44,1
0,61,58,0
0,33,0,51
0,52,0,53
0,33,99,65
0,52,100,14
0,36,127,4
0,36,0,1
0,57,0,86
0,73,0,44
0,45,0,1
0,74,113,1
0,33,0,11
0,47,119,9
0,35,125,1
0,36,127,1
0,36,0,1
0,57,20,23
0,61,0,14
0,64,0,16
0,57,0,12
0,64,0,15
0,73,0,7
0,52,0,35
0,57,5,14
0,64,38,3
0,64,16,4
0,61,7,1
0,69,0,20
0,57,0,14
0,61,0,8
0,64,0,69
0,35,0,110
0,52,109,0
0,76,113,2
0,61,114,0
0,57,119,1
0,74,0,9
0,38,127,4
0,38,0,1
0,49,119,0
0,37,121,2
0,73,74,2
0,64,69,1
0,69,79,1
0,47,0,22
0,61,0,22
0,64,0,11
0,57,0,3
0,57,0,73
0,64,0,1
0,45,0,16
0,57,1,83
0,64,46,3
0,61,10,1
0,64,4,2
0,73,0,18
0,69,0,21
0,64,0,77
0,64,0,9
0,61,0,3
0,76,0,19
0,57,0,6
0,49,0,3
0,74,86,31
0,37,0,14
0,78,117,0
0,50,119,6
0,69,0,1
0,50,53,0
0,38,29,1
0,36,127,3
0,36,0,1
0,38,112,2
0,57,0,9
0,61,0,4
0,52,0,2
0,74,0,186
0,50,0,83
0,62,69,19
0,57,119,1
0,69,79,1
0,50,119,0
0,38,127,1
0,38,0,1
0,57,36,0
0,66,79,0
0,54,119,0
0,62,63,4
0,66,63,2
0,38,0,88
0,38,116,141
0,36,127,4
0,36,0,1
0,38,0,2
0,50,0,11
0,38,116,28
0,36,127,8
0,36,0,1
0,66,0,37
0,62,0,8
0,69,0,4
0,57,0,13
0,50,0,8
0,66,0,7
0,62,0,15
0,52,82,53
0,52,97,0
0,62,43,50
0,66,14,0
0,66,49,0
0,69,60,0
0,57,14,1
0,62,13,8
0,50,105,1
0,54,0,5
0,57,0,3
0,69,0,4
0,50,0,16
0,66,0,67
0,78,0,12
0,38,127,31
0,38,0,1
0,52,0,0
0,52,0,0
0,50,14,0
0,47,112,1
0,47,127,0
0,81,117,2
0,54,114,1
0,57,114,1
0,62,0,36
0,62,0,72
0,66,0,21
0,57,0,3
0,38,0,1
0,57,0,8
0,54,0,8
0,50,71,1
0,69,46,1
0,62,27,2
0,66,35,1
0,50,0,5
0,62,3,10
0,66,2,1
0,57,1,1
0,50,0,64
0,38,0,10
0,66,0,3
0,62,0,7
0,69,0,0
0,66,0,16
0,57,0,1
0,62,0,11
0,47,0,5
0,47,0,0
0,45,112,1
0,45,127,0
0,45,119,1
0,36,127,0
0,36,0,1
0,57,40,8
0,45,54,5
0,33,125,5
0,52,119,10
0,57,119,1
0,61,114,2
0,64,69,0
0,73,56,1
0,69,79,1
0,57,54,1
0,61,63,5
0,64,58,1
0,38,127,0
0,38,0,1
0,33,0,2
0,57,0,19
0,33,99,49
0,36,122,2
0,36,0,1
0,45,0,14
0,33,0,55
0,45,78,137
0,45,0,1
0,45,0,0
0,49,112,1
0,49,127,0
0,36,127,3
0,36,0,1
0,52,0,5
0,33,127,0
0,64,0,15
0,57,15,2
0,61,0,7
0,57,0,30
0,64,0,3
0,73,0,5
0,69,0,3
0,61,0,42
0,57,0,20
0,52,100,19
0,64,22,12
0,57,10,1
0,64,13,2
0,61,13,1
0,49,0,14
0,49,0,0
0,52,112,1
0,52,127,0
0,52,0,93
0,64,0,4
0,52,93,125
0,61,105,2
0,57,119,0
0,38,127,0
0,38,0,1
0,64,65,4
0,73,74,3
0,69,79,1
0,52,0,18
0,52,0,0
0,42,112,1
0,42,127,0
0,61,0,23
0,64,0,38
0,52,0,3
0,64,0,1
0,57,0,9
0,81,0,46
0,73,0,58
0,64,33,1
0,57,6,5
0,52,78,4
0,61,9,3
0,61,0,1
0,64,14,0
0,33,0,4
0,45,0,11
0,69,0,5
0,57,0,1
0,52,0,66
0,57,0,13
0,61,0,2
0,64,0,2
0,64,0,2
0,57,0,43
0,45,0,8
0,42,0,29
0,42,0,0
0,40,112,1
0,40,127,0
0,40,47,1
0,40,89,1
0,52,49,7
0,28,112,3
0,36,127,3
0,36,0,1
0,64,69,471
0,52,119,1
0,59,119,1
0,68,79,1
0,56,119,0
0,71,60,1
0,52,38,2
0,56,44,0
0,38,127,2
0,38,0,1
0,59,51,0
0,28,0,108
0,36,127,131
0,36,0,1
0,28,99,6
0,40,0,16
0,40,0,0
0,45,107,1
0,45,122,0
0,28,0,88
0,28,109,83
0,49,112,15
0,49,127,0
0,36,127,0
0,36,0,1
0,71,0,8
0,45,0,14
0,45,0,0
0,52,0,22
0,68,0,10
0,52,0,27
0,64,0,1
0,59,0,33
0,52,0,10
0,56,0,16
0,52,112,68
0,52,127,0
0,59,0,10
0,52,93,15
0,64,56,2
0,49,0,2
0,49,0,0
0,68,56,0
0,71,74,0
0,59,8,3
0,56,1,2
0,52,1,4
0,56,0,22
0,52,0,106
0,52,31,87
0,52,0,2
0,52,0,0
0,47,112,1
0,47,127,0
0,71,0,7
0,59,93,4
0,56,96,1
0,38,127,2
0,38,0,1
0,68,0,0
0,52,60,3
0,64,0,9
0,52,0,1
0,28,0,49
0,40,0,16
0,52,0,24
0,59,0,38
0,59,0,1
0,52,75,2
0,68,18,3
0,64,31,0
0,71,11,3
0,52,21,3
0,56,0,18
0,40,0,17
0,56,0,19
0,71,0,6
0,68,0,14
0,52,0,11
0,64,0,7
0,52,0,60
0,47,0,45
0,47,0,0
0,52,0,1
0,45,112,0
0,45,127,0
0,33,127,24
0,45,119,1
0,45,21,1
0,57,40,0
0,36,127,6
0,36,0,1
0,64,69,465
0,52,119,1
0,57,119,2
0,61,119,0
0,69,79,1
0,52,33,2
0,71,104,1
0,57,44,1
0,73,79,1
0,61,44,1
0,59,96,0
0,38,127,4
0,38,0,1
0,59,0,9
0,73,104,72
0,33,0,6
0,71,0,29
0,36,127,123
0,36,0,1
0,45,0,4
0,45,0,0
0,45,112,1
0,45,127,0
0,33,125,5
0,33,0,43
0,57,0,7
0,33,127,2
0,73,0,5
0,52,0,0
0,45,0,0
0,45,0,0
0,43,85,1
0,43,100,0
0,36,127,0
0,36,0,1
0,57,14,9
0,61,0,6
0,69,0,12
0,57,0,6
0,52,0,19
0,64,0,21
0,57,0,16
0,71,83,5
0,57,17,9
0,43,0,1
0,43,0,0
0,69,38,0
0,52,5,1
0,45,71,0
0,45,86,0
0,64,35,2
0,61,3,1
0,73,65,1
0,73,0,1
0,52,89,4
0,61,0,70
0,57,0,3
0,52,0,88
0,71,0,30
0,69,86,2
0,45,0,19
0,61,96,22
0,57,100,2
0,38,127,1
0,38,0,1
0,45,0,0
0,45,0,0
0,42,107,1
0,42,122,0
0,64,0,4
0,61,0,82
0,57,0,9
0,52,0,13
0,73,0,6
0,69,0,24
0,66,97,4
0,52,93,2
0,61,5,3
0,64,69,0
0,57,7,2
0,52,3,3
0,69,0,15
0,57,0,32
0,33,0,1
0,61,0,9
0,61,0,8
0,57,0,9
0,64,0,20
0,52,0,8
0,45,0,41
0,64,88,17
0,28,105,2
0,66,0,6
0,52,49,1
0,52,0,6
0,40,83,1
0,42,0,5
0,42,0,0
0,40,112,1
0,40,127,0
0,40,47,1
0,36,127,1
0,36,0,1
0,52,119,465
0,64,56,2
0,59,114,0
0,56,119,1
0,68,74,4
0,71,69,2
0,52,58,2
0,56,72,2
0,38,127,1
0,38,0,1
0,59,63,0
0,28,0,65
0,28,102,174
0,36,127,0
0,36,0,1
0,40,0,36
0,40,0,0
0,40,0,69
0,28,0,41
0,71,0,12
0,42,114,1
0,30,121,14
0,36,127,2
0,36,0,1
0,68,0,0
0,59,0,18
0,64,0,31
0,56,0,17
0,52,0,25
0,64,40,138
0,68,49,2
0,71,56,1
0,52,1,2
0,59,13,1
0,56,10,3
0,52,0,58
0,59,0,18
0,56,0,36
0,52,0,70
0,42,0,1
0,30,0,23
0,44,119,12
0,71,0,2
0,52,23,4
0,32,125,13
0,38,127,4
0,38,0,1
0,68,0,28
0,64,0,52
0,64,0,48
0,71,33,102
0,64,22,3
0,68,29,1
0,59,25,3
0,52,5,2
0,56,20,2
0,52,0,10
0,40,0,28
0,52,0,25
0,71,0,2
0,56,0,8
0,32,0,6
0,59,0,2
0,59,0,6
0,68,0,1
0,64,0,5
0,52,0,4
0,56,0,7
0,44,0,14
0,57,66,78
0,33,87,35
0,36,104,6
0,36,0,1
0,45,69,4
0,52,65,466
0,42,95,0
0,42,0,1
0,57,71,1
0,61,71,1
0,37,104,9
0,37,0,1
0,45,0,7
0,44,73,222
0,44,0,1
0,46,53,237
0,46,0,1
0,33,0,1
0,33,91,1
0,36,88,4
0,36,0,1
0,57,0,371
0,52,0,24
0,61,0,6
0,61,78,70
0,44,71,0
0,44,0,1
0,52,71,1
0,57,80,2
0,37,110,3
0,37,0,1
0,33,0,475
0,28,96,1
0,36,86,5
0,36,0,1
0,40,71,2
0,61,0,6
0,57,0,9
0,57,0,26
0,52,0,1
0,42,87,425
0,42,0,1
0,37,110,5
0,37,0,1
0,52,59,7
0,59,58,2
0,56,69,0
0,44,59,221
0,44,0,1
0,44,76,241
0,44,0,1
0,28,0,4
0,28,94,1
0,36,88,3
0,36,0,1
0,52,0,336
0,56,0,1
0,59,0,5
0,52,54,129
0,59,73,4
0,42,57,1
0,42,0,1
0,56,65,0
0,37,110,6
0,37,0,1
0,40,0,433
0,45,73,30
0,28,0,8
0,33,91,1
0,36,88,9
0,36,0,1
0,59,0,5
0,56,0,2
0,52,0,28
0,42,83,431
0,42,0,1
0,57,93,2
0,61,86,2
0,52,86,1
0,37,110,4
0,37,0,1
0,44,76,230
0,44,0,1
0,33,0,241
0,33,89,1
0,46,33,1
0,46,0,1
0,36,94,4
0,36,0,1
0,61,0,342
0,57,0,0
0,52,0,15
0,44,55,107
0,44,0,1
0,52,69,5
0,61,71,4
0,57,67,1
0,37,110,4
0,37,0,1
0,61,0,414
0,52,0,12
0,57,0,1
0,45,0,1
0,38,83,26
0,33,0,18
0,38,87,1
0,36,81,6
0,36,0,1
0,49,82,240
0,54,73,230
0,57,73,2
0,42,87,0
0,42,0,1
0,62,75,1
0,37,110,5
0,37,0,1
0,49,0,4
0,50,93,4
0,52,82,211
0,44,68,10
0,44,0,1
0,50,0,98
0,46,59,138
0,46,0,1
0,36,71,4
0,36,0,1
0,38,0,0
0,38,83,1
0,62,79,4
0,52,0,52
0,57,0,319
0,62,0,35
0,54,0,6
0,54,42,59
0,44,65,1
0,44,0,1
0,57,73,0
0,62,83,4
0,37,110,4
0,37,0,1
0,38,0,450
0,62,0,14
0,45,78,2
0,38,0,7
0,33,99,1
0,57,0,8
0,36,86,1
0,36,0,1
0,62,0,8
0,54,0,20
0,52,69,434
0,57,89,3
0,61,86,2
0,42,91,5
0,42,0,1
0,37,104,3
0,37,0,1
0,44,76,226
0,44,0,1
0,46,46,243
0,46,0,1
0,33,0,1
0,40,87,1
0,36,83,6
0,36,0,1
0,57,0,352
0,61,0,14
0,52,0,14
0,44,41,89
0,44,0,1
0,52,71,1
0,61,80,1
0,57,73,2
0,37,110,5
0,37,0,1
0,45,0,276
0,40,0,196
0,33,96,1
0,36,94,8
0,36,0,1
0,61,0,346
0,57,0,10
0,52,0,28
0,52,69,78
0,61,89,2
0,57,80,1
0,42,91,4
0,42,0,1
0,37,110,0
0,37,0,1
0,44,61,233
0,44,0,1
0,44,71,242
0,44,0,1
0,33,0,2
0,33,102,1
0,36,91,5
0,36,0,1
0,57,0,404
0,61,0,1
0,52,0,16
0,52,67,54
0,42,73,0
0,42,0,1
0,61,78,2
0,57,63,0
0,37,110,0
0,37,0,1
0,61,0,419
0,57,0,33
0,40,78,16
0,52,0,3
0,33,0,3
0,28,99,1
0,36,88,2
0,36,0,1
0,64,107,224
0,64,0,192
0,61,112,33
0,52,67,4
0,59,78,0
0,56,86,2
0,37,110,1
0,42,83,0
0,42,0,1
0,37,0,0
0,61,0,38
0,59,71,2
0,44,76,39
0,44,0,1
0,59,0,224
0,57,46,7
0,46,63,7
0,46,0,1
0,36,91,3
0,36,0,1
0,28,0,2
0,28,99,1
0,57,0,206
0,54,107,15
0,56,0,14
0,59,0,4
0,52,0,8
0,52,86,60
0,37,110,0
0,42,55,0
0,42,0,1
0,37,0,0
0,54,0,3
0,52,67,7
0,56,83,2
0,59,86,1
0,49,86,224
0,52,0,2
0,36,104,239
0,36,0,1
0,28,0,0
0,28,99,1
0,52,40,241
0,49,0,29
0,56,0,13
0,59,0,30
0,52,0,1
0,49,64,148
