track,note,velocity,time
0,44,119,0
0,44,124,136
0,40,127,134
0,40,127,12
0,40,127,22
0,40,127,10
0,40,127,38
0,35,125,48
0,57,88,94
0,44,79,0
0,35,102,0
0,44,100,110
0,44,104,110
0,35,95,0
0,44,77,110
0,44,100,110
0,35,93,0
0,40,127,0
0,44,68,110
0,44,100,110
0,35,90,0
0,44,73,110
0,44,92,110
0,35,91,0
0,44,73,110
0,44,92,110
0,35,93,0
0,44,71,110
0,44,84,110
0,35,97,0
0,40,127,0
0,44,81,110
0,44,84,110
0,35,102,0
0,44,77,110
0,40,127,0
0,57,88,110
0,44,79,0
0,35,102,0
0,44,100,110
0,44,104,110
0,35,95,0
0,44,77,110
0,44,100,110
0,35,93,0
0,40,127,0
0,44,68,110
0,44,100,110
0,35,90,0
0,44,73,110
0,44,92,0
0,44,73,110
0,40,55,0
0,44,92,110
0,40,70,0
0,41,41,0
0,44,71,110
0,40,83,0
0,41,52,0
0,96,126,110
0,44,84,0
0,40,83,0
0,41,52,0
0,95,111,12
0,93,127,30
0,91,127,12
0,89,127,0
0,88,127,0
0,86,127,0
0,44,81,0
0,40,95,0
0,41,66,0
0,84,127,20
0,83,127,0
0,81,127,26
0,79,127,0
0,77,127,24
0,76,127,0
0,74,127,16
0,44,84,0
0,40,127,0
0,41,97,0
0,72,127,16
0,71,127,20
0,69,127,0
0,67,127,20
0,65,121,22
0,44,77,0
0,35,122,0
0,38,79,72
0,38,104,0
0,50,83,0
0,57,88,0
0,62,79,0
0,50,98,0
0,57,103,0
0,62,94,0
0,49,109,0
0,44,92,0
0,35,127,0
0,44,73,62
0,57,90,1
0,62,90,0
0,66,85,0
0,66,108,0
0,69,127,0
0,62,118,0
0,57,105,0
0,62,105,0
0,66,100,0
0,44,92,0
0,40,127,0
0,44,89,1
0,33,79,44
0,33,104,0
0,44,89,0
0,35,125,0
0,66,86,1
0,62,84,0
0,66,101,0
0,62,99,0
0,44,79,0
0,66,91,1
0,62,91,0
0,62,127,0
0,69,121,0
0,66,122,0
0,66,106,0
0,62,106,0
0,44,96,0
0,40,127,0
0,44,81,1
0,38,79,107
0,38,104,0
0,57,82,0
0,50,91,0
0,57,97,0
0,50,106,0
0,44,92,0
0,35,125,0
0,44,79,8
0,45,127,107
0,62,91,1
0,66,91,0
0,66,119,0
0,69,125,0
0,62,121,0
0,62,106,0
0,66,106,0
0,44,81,0
0,40,127,0
0,48,127,1
0,44,84,3
0,50,123,1
0,33,95,3
0,33,120,0
0,44,86,0
0,35,127,0
0,53,122,12
0,66,80,1
0,57,80,0
0,62,84,0
0,66,95,0
0,57,95,0
0,62,99,0
0,44,84,0
0,50,127,99
0,36,86,1
0,36,111,0
0,50,86,0
0,57,84,0
0,62,91,0
0,66,85,0
0,62,126,0
0,69,127,0
0,66,127,0
0,50,101,0
0,57,99,0
0,62,106,0
0,66,100,0
0,44,104,0
0,40,127,0
0,48,127,7
0,66,87,1
0,66,102,0
0,44,73,0
0,50,127,2
0,38,84,1
0,38,109,0
0,57,84,0
0,50,83,0
0,62,87,0
0,57,99,0
0,50,98,0
0,62,102,0
0,44,92,0
0,35,127,0
0,44,73,50
0,57,90,1
0,62,91,0
0,66,82,0
0,66,127,0
0,69,127,0
0,62,127,0
0,57,105,0
0,62,106,0
0,66,97,0
0,44,92,0
0,40,127,0
0,66,80,1
0,66,95,0
0,44,89,0
0,33,82,1
0,33,107,0
0,57,81,0
0,62,88,0
0,57,96,0
0,62,103,0
0,44,89,0
0,35,125,0
0,66,86,1
0,66,101,0
0,44,79,0
0,50,89,1
0,57,83,0
0,62,91,0
0,66,91,0
0,69,127,0
0,62,125,0
0,66,127,0
0,50,104,0
0,57,98,0
0,62,106,0
0,66,106,0
0,44,96,0
0,40,127,0
0,66,85,1
0,66,100,0
0,44,81,0
0,38,89,1
0,38,114,0
0,45,87,0
0,57,90,0
0,50,90,0
0,62,84,0
0,45,102,0
0,57,105,0
0,50,105,0
0,62,99,0
0,44,92,0
0,35,125,0
0,44,79,1
0,62,91,1
0,57,81,0
0,66,91,0
0,66,127,0
0,69,124,0
0,62,124,0
0,62,106,0
0,57,96,0
0,66,106,0
0,44,81,0
0,40,127,0
0,44,84,66
0,33,95,1
0,33,120,0
0,62,85,0
0,66,82,0
0,62,100,0
0,66,97,0
0,44,86,0
0,35,127,0
0,36,79,1
0,36,104,0
0,66,85,0
0,57,83,0
0,62,85,0
0,66,100,0
0,57,98,0
0,62,100,0
0,44,84,0
0,36,73,1
0,36,98,0
0,66,91,0
0,62,85,0
0,66,111,0
0,69,117,0
0,62,119,0
0,66,106,0
0,62,100,0
0,44,104,0
0,40,127,0
0,33,86,1
0,33,111,0
0,44,73,0
0,38,89,1
0,38,114,0
0,50,87,0
0,57,83,0
0,62,79,0
0,50,102,0
0,57,98,0
0,62,94,0
0,44,92,0
0,35,127,0
0,57,127,4
0,54,117,2
0,62,114,10
0,44,73,94
0,57,80,1
0,66,91,0
0,62,82,0
0,66,126,0
0,69,126,0
0,62,125,0
0,57,95,0
0,66,106,0
0,62,97,0
0,44,92,0
0,40,127,0
0,44,89,1
0,33,79,1
0,33,104,0
0,62,82,0
0,66,78,0
0,62,97,0
0,66,93,0
0,44,89,0
0,35,125,0
0,57,84,1
0,66,84,0
0,62,82,0
0,57,99,0
0,66,99,0
0,62,97,0
0,44,79,0
0,62,91,1
0,66,91,0
0,69,126,0
0,66,111,0
0,62,116,0
0,62,106,0
0,66,106,0
0,44,96,0
0,40,127,0
0,44,81,80
0,38,77,1
0,38,102,0
0,50,86,0
0,66,80,0
0,57,80,0
0,50,101,0
0,66,95,0
0,57,95,0
0,44,92,0
0,35,125,0
0,44,79,110
0,45,103,107
0,66,91,2
0,62,91,0
0,66,110,0
0,69,127,0
0,62,113,0
0,66,106,0
0,62,106,0
0,44,81,0
0,40,127,0
0,48,102,0
0,57,81,1
0,66,81,0
0,62,81,0
0,57,96,0
0,66,96,0
0,62,96,0
0,44,84,0
0,50,112,0
0,33,95,1
0,33,120,0
0,66,78,0
0,62,78,0
0,57,78,0
0,66,93,0
0,62,93,0
0,57,93,0
0,44,86,0
0,35,127,0
0,53,105,0
0,57,84,1
0,62,84,0
0,66,79,0
0,57,99,0
0,62,99,0
0,66,94,0
0,44,84,0
0,50,98,0
0,36,84,1
0,36,109,0
0,62,91,0
0,57,91,0
0,66,91,0
0,62,111,0
0,69,110,0
0,66,103,0
0,62,106,0
0,57,106,0
0,66,106,0
0,44,104,0
0,40,127,0
0,48,115,0
0,44,73,3
0,50,127,0
0,38,79,1
0,38,104,0
0,50,87,0
0,57,81,0
0,62,83,0
0,50,102,0
0,57,96,0
0,62,98,0
0,44,92,0
0,35,127,0
0,44,73,41
0,50,127,62
0,57,81,1
0,66,91,0
0,62,83,0
0,66,113,0
0,69,118,0
0,62,122,0
0,57,96,0
0,66,106,0
0,62,98,0
0,44,92,0
0,40,127,0
0,44,89,3
0,43,127,36
0,33,70,1
0,33,95,0
0,44,89,0
0,35,125,0
0,62,84,0
0,66,79,0
0,57,83,0
0,62,99,0
0,66,94,0
0,57,98,0
0,44,79,0
0,62,91,1
0,66,91,0
0,62,127,0
0,69,127,0
0,66,127,0
0,62,106,0
0,66,106,0
0,44,96,0
0,40,127,0
0,44,81,2
0,40,127,23
0,26,77,1
0,26,102,0
0,50,87,0
0,57,82,0
0,62,87,0
0,50,102,0
0,57,97,0
0,62,102,0
0,44,92,0
0,35,125,0
0,29,89,1
0,29,114,0
0,44,79,0
0,30,66,1
0,30,91,0
0,57,81,0
0,66,91,0
0,62,83,0
0,66,127,0
0,69,127,0
0,62,127,0
0,57,96,0
0,66,106,0
0,62,98,0
0,44,81,0
0,40,127,0
0,31,73,1
0,31,98,0
0,44,84,0
0,33,65,1
0,33,90,0
0,44,86,0
0,35,127,0
0,35,71,1
0,35,96,0
0,57,80,0
0,66,80,0
0,62,80,0
0,57,95,0
0,66,95,0
0,62,95,0
0,44,84,0
0,40,127,0
0,36,73,1
0,36,98,0
0,62,87,0
0,66,82,0
0,62,119,0
0,69,115,0
0,66,107,0
0,62,102,0
0,66,97,0
0,44,104,0
0,40,127,0
0,37,60,1
0,37,85,0
0,62,74,0
0,66,74,0
0,57,74,0
0,62,89,0
0,66,89,0
0,57,89,0
0,44,73,0
0,35,118,0
0,66,127,6
0,62,123,6
0,38,98,1
0,38,123,0
0,66,80,0
0,50,80,0
0,57,84,0
0,66,95,0
0,50,95,0
0,57,99,0
0,49,100,0
0,44,92,0
0,35,127,0
0,44,73,16
0,57,76,1
0,62,83,0
0,66,91,0
0,66,111,0
0,69,126,0
0,62,115,0
0,57,91,0
0,62,98,0
0,66,106,0
0,44,92,0
0,40,127,0
0,44,89,1
0,33,86,1
0,33,111,0
0,62,84,0
0,66,77,0
0,62,99,0
0,66,92,0
0,44,89,0
0,35,125,0
0,57,82,1
0,62,82,0
0,66,82,0
0,57,97,0
0,62,97,0
0,66,97,0
0,44,79,0
0,57,83,1
0,62,83,0
0,66,91,0
0,66,96,0
0,69,116,0
0,62,111,0
0,57,98,0
0,62,98,0
0,66,106,0
0,44,96,0
0,40,127,0
0,44,81,1
0,38,84,1
0,38,109,0
0,50,79,0
0,57,77,0
0,62,85,0
0,50,94,0
0,57,92,0
0,62,100,0
0,44,92,0
0,35,125,0
0,62,82,1
0,66,82,0
0,57,77,0
0,62,97,0
0,66,97,0
0,57,92,0
0,44,79,0
0,57,81,1
0,66,86,0
0,62,91,0
0,66,102,0
0,69,123,0
0,62,113,0
0,57,96,0
0,66,101,0
0,62,106,0
0,44,81,0
0,40,127,0
0,44,84,1
0,33,89,1
0,33,114,0
0,45,81,0
0,50,80,0
0,57,82,0
0,45,96,0
0,50,95,0
0,57,97,0
0,44,86,0
0,35,127,0
0,44,84,1
0,57,89,1
0,62,83,0
0,66,91,0
0,50,87,0
0,62,114,0
0,69,127,0
0,66,104,0
0,57,104,0
0,62,98,0
0,66,106,0
0,50,102,0
0,44,104,0
0,40,127,0
0,44,73,1
0,38,98,1
0,38,123,0
0,57,83,0
0,62,85,0
0,57,98,0
0,62,100,0
0,44,92,0
0,35,127,0
0,44,73,24
0,50,89,1
0,57,83,0
0,62,91,0
0,66,86,0
0,66,106,0
0,69,124,0
0,62,112,0
0,50,104,0
0,57,98,0
0,62,106,0
0,66,101,0
0,44,92,0
0,40,127,0
0,44,89,1
0,33,92,1
0,33,117,0
0,50,86,0
0,62,82,0
0,50,101,0
0,62,97,0
0,44,89,0
0,35,125,0
0,57,78,110
0,62,78,0
0,66,78,0
0,57,93,0
0,62,93,0
0,66,93,0
0,44,79,0
0,50,87,1
0,57,87,0
0,62,91,0
0,66,91,0
0,66,110,0
0,69,127,0
0,62,117,0
0,50,102,0
0,57,102,0
0,62,106,0
0,66,106,0
0,44,96,0
0,40,127,0
0,44,81,1
0,38,98,1
0,38,123,0
0,54,85,0
0,50,85,0
0,57,80,0
0,54,100,0
0,50,100,0
0,57,95,0
0,44,92,0
0,35,125,0
0,44,79,110
0,57,85,1
0,62,87,0
0,66,91,0
0,66,105,0
0,62,116,0
0,69,127,0
0,57,100,0
0,62,102,0
0,66,106,0
0,44,81,0
0,40,127,0
0,62,77,1
0,66,75,0
0,62,92,0
0,66,90,0
0,44,84,0
0,38,86,0
0,38,111,0
0,62,84,0
0,66,84,0
0,62,99,0
0,66,99,0
0,44,86,0
0,35,127,0
0,66,83,1
0,62,84,0
0,66,98,0
0,62,99,0
0,44,84,0
0,35,77,1
0,35,102,0
0,57,80,0
0,62,86,0
0,66,91,0
0,66,107,0
0,69,127,0
0,62,119,0
0,57,95,0
0,62,101,0
0,66,106,0
0,44,104,0
0,40,127,0
0,33,79,1
0,33,104,0
0,55,77,0
0,59,84,0
0,64,91,0
0,55,92,0
0,59,99,0
0,64,106,0
0,44,73,0
0,31,63,1
0,31,88,0
0,43,81,0
0,55,87,0
0,50,80,0
0,43,96,0
0,55,102,0
0,50,95,0
0,44,92,0
0,35,127,0
0,44,73,1
0,47,79,1
0,50,81,0
0,55,91,0
0,62,87,0
0,67,91,0
0,59,127,0
0,55,116,0
0,62,127,0
0,47,94,0
0,50,96,0
0,55,106,0
0,62,102,0
0,67,106,0
0,44,92,0
0,40,127,0
0,44,89,1
0,38,55,2
0,38,80,0
0,50,83,0
0,67,83,0
0,62,83,0
0,50,98,0
0,67,98,0
0,62,98,0
0,44,89,0
0,35,125,0
0,67,84,1
0,62,85,0
0,55,80,0
0,67,99,0
0,62,100,0
0,55,95,0
0,44,79,0
0,50,90,1
0,62,91,0
0,55,91,0
0,67,91,0
0,62,126,0
0,55,115,0
0,59,126,0
0,50,105,0
0,62,106,0
0,55,106,0
0,67,106,0
0,44,96,0
0,40,127,0
0,44,81,54
0,55,127,0
0,31,86,1
0,31,111,0
0,50,83,0
0,43,83,0
0,47,86,0
0,50,98,0
0,43,98,0
0,47,101,0
0,44,92,0
0,35,125,0
0,44,79,0
0,47,83,1
0,50,90,0
0,55,84,0
0,62,91,0
0,67,91,0
0,55,116,0
0,59,127,0
0,62,127,0
0,47,98,0
0,50,105,0
0,55,99,0
0,62,106,0
0,67,106,0
0,44,81,0
0,40,127,0
0,59,127,6
0,44,84,1
0,62,127,4
0,31,92,1
0,31,117,0
0,62,83,0
0,67,81,0
0,62,98,0
0,67,96,0
0,44,86,0
0,35,127,0
0,67,79,1
0,67,94,0
0,44,84,0
0,50,87,1
0,55,87,0
0,62,82,0
0,67,85,0
0,55,119,0
0,59,127,0
0,62,127,0
0,50,102,0
0,55,102,0
0,62,97,0
0,67,100,0
0,44,104,0
0,40,127,0
0,44,73,1
0,38,86,1
0,38,111,0
0,45,88,0
0,50,89,0
0,62,85,0
0,66,74,0
0,57,86,0
0,45,103,0
0,50,104,0
0,62,100,0
0,66,89,0
0,57,101,0
0,44,92,0
0,35,127,0
0,44,73,108
0,57,86,1
0,66,91,0
0,62,90,0
0,66,113,0
0,62,119,0
0,69,126,0
0,57,101,0
0,66,106,0
0,62,105,0
0,44,92,0
0,40,127,0
0,44,89,1
0,33,79,1
0,33,104,0
0,50,84,0
0,57,80,0
0,62,84,0
0,50,99,0
0,57,95,0
0,62,99,0
0,44,89,0
0,35,125,0
0,62,84,1
0,66,85,0
0,62,99,0
0,66,100,0
0,44,79,0
0,50,80,1
0,57,87,0
0,62,87,0
0,66,91,0
0,66,108,0
0,62,116,0
0,69,126,0
0,50,95,0
0,57,102,0
0,62,102,0
0,66,106,0
0,44,96,0
0,40,127,0
0,44,81,1
0,38,86,1
0,38,111,0
0,45,84,0
0,57,86,0
0,50,86,0
0,62,85,0
0,43,127,0
0,45,99,0
0,57,101,0
0,50,101,0
0,62,100,0
0,44,92,0
0,35,125,0
0,44,79,110
0,50,89,1
0,62,91,0
0,66,91,0
0,57,83,0
0,66,111,0
0,69,127,0
0,62,119,0
0,50,104,0
0,62,106,0
0,66,106,0
0,57,98,0
0,44,81,0
0,40,127,0
0,44,84,1
0,38,58,1
0,38,83,0
0,62,79,0
0,66,80,0
0,62,94,0
0,66,95,0
0,44,86,0
0,35,127,0
0,40,127,1
0,35,43,1
0,35,68,0
0,66,83,0
0,57,84,0
0,62,79,0
0,66,98,0
0,57,99,0
0,62,94,0
0,44,84,0
0,33,70,1
0,33,95,0
0,66,113,0
0,62,124,0
0,69,127,0
0,44,104,0
0,40,127,0
0,31,64,1
0,31,89,0
0,44,73,0
0,35,95,1
0,35,120,0
0,53,81,0
0,47,81,0
0,59,85,0
0,66,85,0
0,62,85,0
0,53,96,0
0,47,96,0
0,59,100,0
0,66,100,0
0,62,100,0
0,44,92,0
0,35,127,0
0,59,81,1
0,62,81,0
0,54,81,0
0,59,96,0
0,62,96,0
0,54,96,0
0,44,73,0
0,47,84,1
0,54,85,0
0,59,90,0
0,62,90,0
0,66,91,0
0,62,127,0
0,66,127,0
0,59,127,0
0,47,99,0
0,54,100,0
0,59,105,0
