track,note,velocity,time
3,43,110,361
3,43,0,36
3,43,110,36
3,43,0,20
3,43,110,2
3,43,0,26
3,35,110,2
3,35,0,26
3,36,110,14
3,36,0,61
3,36,110,44
3,36,0,6
3,36,110,2
3,36,0,2
3,38,110,56
3,38,0,12
3,38,110,3
3,38,0,3
3,38,110,2
3,38,0,40
3,43,110,5
3,43,0,7
3,43,110,40
3,43,0,6
3,43,110,1
3,43,0,1
3,38,110,1
3,38,0,1
3,43,110,1
3,43,0,21
3,38,110,38
3,38,0,21
3,40,110,33
3,40,0,27
3,42,110,1
3,42,0,37
3,43,110,20
3,43,0,115
3,43,110,61
3,43,0,39
3,43,110,21
3,43,0,187
3,38,110,53
3,38,0,133
3,38,110,47
3,38,0,47
3,45,110,13
3,45,0,206
3,38,110,34
3,38,0,134
3,38,110,46
3,38,0,44
3,38,110,16
3,38,0,187
3,43,110,53
3,43,0,122
3,43,110,57
3,43,0,39
3,38,110,22
3,38,0,194
3,43,110,46
3,43,0,137
3,43,110,43
3,43,0,31
3,43,110,29
3,43,0,111
3,35,110,9
3,35,0,111
3,36,110,9
3,36,0,137
3,36,110,43
3,36,0,40
3,36,110,20
3,36,0,189
3,38,110,51
3,38,0,144
3,38,110,36
3,38,0,25
3,38,110,35
3,38,0,177
3,43,110,63
3,43,0,121
3,43,110,59
3,43,0,35
3,38,110,25
3,38,0,98
3,38,110,22
3,37,110,60
3,37,0,1
3,38,0,32
3,43,110,27
3,43,0,139
3,43,110,41
3,43,0,36
3,43,110,24
3,43,0,197
3,38,110,43
3,38,0,134
3,38,110,46
3,38,0,40
3,45,110,20
3,45,0,219
3,38,110,21
3,38,0,134
3,38,110,46
3,38,0,45
3,38,110,15
3,38,0,179
3,43,110,61
3,43,0,128
3,43,110,52
3,43,0,38
3,38,110,21
3,38,0,207
3,43,110,34
3,43,0,133
3,43,110,47
3,43,0,40
3,43,110,20
3,43,0,106
3,35,110,14
3,35,0,100
3,36,110,20
3,36,0,126
3,36,110,54
3,36,0,42
3,36,110,18
3,36,0,179
3,38,110,61
3,38,0,142
3,38,110,38
3,38,0,34
3,38,110,26
3,38,0,177
3,43,110,63
3,43,0,110
3,43,110,10
3,43,0,115
3,44,110,5
3,45,110,0
3,45,0,3
3,44,0,0
3,46,110,117
3,47,110,0
3,46,0,3
3,47,0,113
3,48,110,4
3,48,0,125
3,48,110,55
3,48,0,53
3,40,110,7
3,40,0,107
3,42,110,13
3,42,0,89
3,43,110,31
3,43,0,117
3,43,110,63
3,43,0,56
3,50,110,4
3,50,0,95
3,31,110,25
3,31,0,87
3,33,110,33
3,33,0,84
3,38,110,395
3,38,0,120
3,43,110,361
3,43,0,99
3,43,110,81
3,43,0,37
3,43,110,23
3,43,0,172
3,38,110,68
3,38,0,112
3,38,110,68
3,38,0,44
3,45,110,16
3,45,0,177
3,38,110,63
3,38,0,108
3,38,110,72
3,38,0,43
3,38,110,17
3,38,0,167
3,43,110,73
3,43,0,107
3,43,110,73
3,43,0,42
3,38,110,18
3,38,0,186
3,43,110,54
3,43,0,113
3,43,110,67
3,43,0,37
3,43,110,23
3,43,0,111
3,35,110,9
3,35,0,100
3,36,110,20
3,36,0,112
3,36,110,68
3,36,0,37
3,36,110,23
3,36,0,178
3,38,110,62
3,38,0,126
3,38,110,55
3,38,0,41
3,38,110,18
3,38,0,164
3,43,110,76
3,43,0,99
3,38,110,21
3,38,0,104
3,40,110,16
3,40,0,96
3,42,110,24
3,42,0,82
3,43,110,39
3,43,0,111
3,43,110,61
3,43,0,39
3,43,110,21
3,43,0,187
3,38,110,53
3,38,0,133
3,38,110,46
3,38,0,48
3,45,110,13
3,45,0,206
3,38,110,34
3,38,0,134
3,38,110,46
3,38,0,44
3,38,110,16
3,38,0,187
3,43,110,53
3,43,0,122
3,43,110,58
3,43,0,38
3,38,110,22
3,38,0,194
3,43,110,46
3,43,0,137
3,43,110,43
3,43,0,31
3,43,110,29
3,43,0,111
3,35,110,9
3,35,0,111
3,36,110,9
3,36,0,137
3,36,110,43
3,36,0,40
3,36,110,20
3,36,0,189
3,38,110,51
3,38,0,144
3,38,110,36
3,38,0,25
3,38,110,35
3,38,0,177
3,43,110,63
3,43,0,122
3,43,110,58
3,43,0,35
3,38,110,26
3,38,0,97
3,38,110,22
3,37,110,59
3,37,0,2
3,38,0,31
3,43,110,29
3,43,0,138
3,43,110,41
3,43,0,36
3,43,110,24
3,43,0,197
3,38,110,43
3,38,0,134
3,38,110,46
3,38,0,40
3,45,110,20
3,45,0,219
3,38,110,21
3,38,0,134
3,38,110,46
3,38,0,45
3,38,110,15
3,38,0,179
3,43,110,61
3,43,0,128
3,43,110,52
3,43,0,38
3,38,110,22
3,38,0,206
3,43,110,34
3,43,0,133
3,43,110,47
3,43,0,40
3,43,110,20
3,43,0,106
3,35,110,13
3,35,0,101
3,36,110,20
3,36,0,127
3,36,110,53
3,36,0,42
3,36,110,19
3,36,0,178
3,38,110,61
3,38,0,142
3,38,110,37
3,38,0,35
3,38,110,26
3,38,0,177
3,43,110,63
3,43,0,113
3,43,110,61
3,43,0,39
3,43,110,21
3,43,0,187
3,43,110,53
3,43,0,115
3,43,110,61
3,43,0,39
3,43,110,21
3,43,0,187
3,43,110,54
3,43,0,113
3,43,110,61
3,43,0,39
3,43,110,21
3,43,0,187
3,38,110,53
3,38,0,133
3,38,110,47
3,38,0,47
3,45,110,13
3,45,0,206
3,38,110,34
3,38,0,134
3,38,110,46
3,38,0,44
3,38,110,16
3,38,0,187
3,43,110,53
3,43,0,122
3,43,110,58
3,43,0,38
3,38,110,22
3,38,0,194
3,43,110,46
3,43,0,137
3,43,110,43
3,43,0,31
3,43,110,29
3,43,0,111
3,35,110,9
3,35,0,111
3,36,110,9
3,36,0,137
3,36,110,43
3,36,0,40
3,36,110,19
3,36,0,190
3,38,110,51
3,38,0,144
3,38,110,36
3,38,0,26
3,38,110,34
3,38,0,177
3,43,110,63
3,43,0,121
3,43,110,59
3,43,0,35
3,38,110,25
3,38,0,98
3,38,110,22
3,37,110,60
3,37,0,1
3,38,0,31
3,43,110,28
3,43,0,139
3,43,110,41
3,43,0,36
3,43,110,24
3,43,0,197
3,38,110,43
3,38,0,134
3,38,110,46
3,38,0,40
3,45,110,20
3,45,0,219
3,38,110,21
3,38,0,134
3,38,110,46
3,38,0,45
3,38,110,15
3,38,0,179
3,43,110,61
3,43,0,128
3,43,110,52
3,43,0,38
3,38,110,22
3,38,0,206
3,43,110,34
3,43,0,133
3,43,110,47
3,43,0,40
3,43,110,20
3,43,0,106
3,35,110,14
3,35,0,100
3,36,110,20
3,36,0,126
3,36,110,54
3,36,0,42
3,36,110,18
3,36,0,179
3,38,110,61
3,38,0,142
3,38,110,38
3,38,0,34
3,38,110,26
3,38,0,178
3,43,110,62
3,43,0,110
3,43,110,9
3,43,0,116
3,44,110,5
3,45,110,1
3,45,0,2
3,44,0,0
3,46,110,117
3,47,110,0
3,46,0,3
3,47,0,113
3,48,110,4
3,48,0,125
3,48,110,55
3,48,0,52
3,40,110,8
3,40,0,107
3,42,110,13
3,42,0,89
3,43,110,31
3,43,0,117
3,43,110,63
3,43,0,56
3,50,110,4
3,50,0,95
3,31,110,25
3,31,0,87
3,33,110,33
3,33,0,84
3,38,110,395
3,38,0,120
3,43,110,361
3,43,0,99
3,43,110,81
3,43,0,37
3,43,110,23
3,43,0,172
3,38,110,68
3,38,0,112
3,38,110,68
3,38,0,44
3,45,110,16
3,45,0,177
3,38,110,63
3,38,0,107
3,38,110,73
3,38,0,43
3,38,110,17
3,38,0,167
3,43,110,73
3,43,0,107
3,43,110,73
3,43,0,43
3,38,110,17
3,38,0,186
3,43,110,54
3,43,0,114
3,43,110,66
3,43,0,37
3,43,110,23
3,43,0,111
3,35,110,9
3,35,0,100
3,36,110,20
3,36,0,112
3,36,110,68
3,36,0,37
3,36,110,23
3,36,0,178
3,38,110,62
3,38,0,126
3,38,110,55
3,38,0,41
3,38,110,18
3,38,0,164
3,31,110,77
3,31,0,58
3,43,110,480
3,43,0,36
3,43,110,36
3,43,0,20
3,43,110,1
3,43,0,26
3,35,110,2
3,35,0,26
3,36,110,14
3,36,0,60
3,36,110,44
3,36,0,5
3,36,110,3
3,36,0,2
3,38,110,56
3,38,0,1
3,38,110,3
3,38,0,3
3,38,110,2
3,38,0,40
3,43,84,5
3,43,0,103
3,43,108,77
3,43,0,51
3,38,123,9
3,38,0,135
3,43,126,45
3,43,0,58
3,43,100,62
3,43,0,50
3,38,127,10
3,38,0,64
3,43,127,56
3,43,0,719
4,62,80,361
4,59,80,1
4,62,0,101
4,62,80,17
4,62,0,48
4,50,80,13
4,62,80,1
4,50,0,5
4,59,0,96
4,62,0,7
4,50,80,11
4,49,80,0
4,52,80,0
4,55,80,1
4,59,80,0
4,55,0,1
4,52,0,2
4,50,0,0
4,49,0,9
4,55,80,47
4,50,80,1
4,59,0,52
4,50,0,2
4,55,0,4
4,62,80,1
4,53,80,0
4,62,0,1
4,57,80,0
4,57,0,42
4,53,0,3
4,64,80,195
4,64,0,110
4,55,80,9
4,64,80,1
4,55,0,5
4,60,80,54
4,55,80,0
4,48,80,0
4,60,0,2
4,55,0,50
4,53,80,8
4,57,80,0
4,64,0,2
4,53,0,52
4,48,0,1
4,57,0,3
4,62,80,2
4,57,80,0
4,62,0,18
4,57,0,95
4,62,80,7
4,62,0,48
4,54,80,13
4,57,80,0
4,62,80,1
4,57,0,1
4,54,0,3
4,62,0,100
4,57,80,14
4,57,0,58
4,57,80,2
4,54,80,0
4,50,80,0
4,50,0,4
4,54,0,54
4,48,80,2
4,53,80,0
4,48,0,32
4,57,0,11
4,53,0,6
4,55,80,11
4,50,80,0
4,49,80,0
4,48,80,1
4,48,0,6
4,49,0,0
4,50,0,97
4,55,0,4
4,62,80,12
4,59,80,0
4,55,80,0
4,62,0,6
4,59,0,1
4,62,80,54
4,55,0,117
4,59,80,63
4,50,80,0
4,50,0,1
4,59,0,2
4,62,0,47
4,50,80,69
4,50,0,11
4,62,80,109
4,62,0,2
4,62,80,58
4,62,0,102
4,50,80,18
4,55,80,0
4,55,0,2
4,50,0,46
4,62,80,13
4,59,80,0
4,55,80,0
4,59,0,5
4,62,0,13
4,59,80,42
4,50,80,59
4,50,0,5
4,55,0,111
4,62,80,4
4,62,0,6
4,62,80,54
4,62,0,110
4,62,80,10
4,59,0,58
4,59,80,2
4,55,80,0
4,50,80,0
4,55,0,2
4,59,0,52
4,62,0,1
4,48,80,5
4,53,80,0
4,57,80,0
4,59,80,1
4,62,80,0
4,59,0,2
4,50,0,5
4,48,0,17
4,53,0,12
4,54,80,23
4,50,80,1
4,54,0,104
4,62,0,68
4,62,80,7
4,62,0,112
4,62,80,8
4,50,0,46
4,57,0,10
4,57,80,3
4,54,80,1
4,54,0,2
4,62,0,57
4,54,80,2
4,62,80,0
4,54,0,5
4,62,0,222
4,50,80,12
4,62,80,0
4,50,0,6
4,62,0,109
4,54,80,5
4,62,80,0
4,50,80,60
4,54,0,45
4,50,0,8
4,62,0,0
4,48,80,7
4,53,80,0
4,62,80,0
4,48,0,32
4,53,0,5
4,57,0,10
4,50,80,13
4,55,80,1
4,49,80,0
4,59,80,0
4,48,80,1
4,48,0,4
4,49,0,25
4,50,0,46
4,55,0,27
4,62,0,70
4,59,0,120
4,55,80,6
4,55,0,2
4,62,80,58
4,59,80,0
4,55,80,0
4,59,0,4
4,62,0,2
4,62,80,54
4,50,80,60
4,50,0,7
4,62,0,161
4,62,80,12
4,62,0,110
4,59,80,10
4,50,80,60
4,50,0,57
4,59,0,0
4,55,0,3
4,53,80,0
4,57,80,0
4,62,80,1
4,62,0,0
4,53,0,38
4,57,0,6
4,48,80,16
4,54,80,1
4,59,80,0
4,60,80,1
4,59,0,2
4,54,0,1
4,60,0,8
4,64,80,106
4,64,0,45
4,64,80,15
4,64,0,112
4,55,80,8
4,60,80,0
4,60,0,1
4,55,0,0
4,64,80,0
4,48,0,54
4,48,80,5
4,64,0,58
4,53,80,2
4,62,80,0
4,57,80,0
4,64,80,1
4,64,0,9
4,53,0,36
4,48,0,5
4,50,80,10
4,49,80,0
4,49,0,4
4,50,0,4
4,57,0,106
4,57,80,5
4,54,80,0
4,50,80,0
4,54,0,2
4,62,0,43
4,62,80,15
4,62,0,111
4,57,0,3
4,62,80,6
4,50,0,57
4,57,80,3
4,50,80,0
4,57,0,2
4,62,0,52
4,50,0,2
4,48,80,4
4,53,80,1
4,62,80,0
4,53,0,5
4,48,0,31
4,50,80,23
4,55,80,0
4,59,80,1
4,49,80,0
4,57,80,0
4,54,80,1
4,48,80,0
4,58,80,1
4,57,0,2
4,48,0,1
4,58,0,3
4,49,0,12
4,54,0,0
4,55,0,78
4,59,0,14
4,59,80,7
4,55,80,0
4,62,0,52
4,50,0,106
4,59,0,6
4,55,0,11
4,50,80,5
4,50,0,45
4,62,80,15
4,55,80,0
4,50,80,0
4,55,0,2
4,62,0,9
4,62,80,49
4,50,0,23
4,50,80,38
4,50,0,2
4,59,80,116
4,59,0,10
4,62,0,40
4,62,80,11
4,62,0,113
4,55,80,7
4,55,0,57
4,50,80,3
4,48,80,60
4,53,80,0
4,55,80,1
4,57,80,0
4,59,80,1
4,62,80,0
4,59,0,1
4,55,0,0
4,62,0,1
4,50,0,1
4,48,0,20
4,53,0,8
4,54,80,27
4,50,80,0
4,50,0,100
4,54,0,0
4,62,80,20
4,62,0,4
4,54,80,56
4,62,80,0
4,54,0,8
4,57,0,103
4,54,80,9
4,54,0,53
4,57,80,7
4,54,80,0
4,50,80,0
4,50,0,3
4,57,0,1
4,62,0,54
4,62,80,1
4,54,0,118
4,57,80,63
4,62,0,46
4,54,80,14
4,62,80,1
4,54,0,1
4,57,0,111
4,62,0,1
4,54,80,6
4,57,80,0
4,62,80,0
4,54,0,1
4,54,80,59
4,50,80,0
4,50,0,3
4,54,0,50
4,62,0,4
4,48,80,3
4,53,80,0
4,48,0,35
4,53,0,6
4,57,0,8
4,50,80,11
4,55,80,0
4,49,80,1
4,48,80,0
4,48,0,2
4,49,0,23
4,50,0,52
4,55,0,22
4,62,80,20
4,59,80,0
4,55,80,0
4,62,0,5
4,59,0,3
4,55,0,166
4,55,80,6
4,62,80,60
4,59,80,0
4,50,80,0
4,59,0,2
4,50,0,2
4,62,0,7
4,62,80,49
4,50,80,60
4,55,0,114
4,54,80,6
4,55,80,1
4,55,0,1
4,54,0,0
4,62,0,49
4,55,80,9
4,62,80,1
4,55,0,4
4,62,0,110
4,55,80,5
4,62,80,0
4,50,0,44
4,55,0,12
4,59,80,4
4,55,80,0
4,50,80,1
4,59,0,2
4,55,0,52
4,50,0,1
4,62,0,2
4,48,80,2
4,53,80,0
4,57,80,1
4,62,80,0
4,48,0,35
4,53,0,2
4,57,0,9
4,64,80,13
4,55,80,1
4,60,80,0
4,48,80,0
4,57,80,1
4,59,80,0
4,54,80,0
4,59,0,3
4,57,0,0
4,54,0,1
4,62,0,23
4,55,0,80
4,60,0,7
4,60,80,4
4,64,0,14
4,64,80,46
4,64,0,112
4,60,0,4
4,55,80,4
4,60,80,0
4,64,80,1
4,55,0,2
4,48,0,48
4,48,80,9
4,64,0,56
4,62,80,4
4,53,80,0
4,57,80,1
4,64,80,0
4,60,0,2
4,64,0,11
4,53,0,36
4,48,0,5
4,54,80,5
4,54,0,112
4,62,0,0
4,62,80,8
4,62,0,40
4,57,0,7
4,50,80,13
4,62,80,1
4,50,0,11
4,62,0,105
4,62,80,3
4,57,80,59
4,54,80,1
4,50,80,0
4,54,0,2
4,57,0,1
4,50,0,52
4,62,0,1
4,48,80,4
4,53,80,0
4,48,0,33
4,53,0,9
4,55,80,18
4,49,80,1
4,54,80,0
4,54,0,6
4,49,0,2
4,55,0,94
4,59,80,17
4,59,0,10
4,50,80,50
4,59,80,0
4,62,80,1
4,62,0,1
4,59,0,1
4,50,0,7
