track,note,velocity,time
1,64,101,6521
1,76,127,3
1,76,0,43
1,64,0,6
1,64,98,805
1,76,127,1
1,76,0,59
1,64,0,1
1,64,103,683
1,76,127,1
1,76,0,65
1,64,0,11
1,64,101,6
1,76,127,1
1,64,0,37
1,76,0,7
1,54,7,0
1,61,7,0
1,61,0,21
1,54,0,0
1,54,7,0
1,61,7,0
1,61,0,17
1,54,0,0
1,54,9,1
1,61,9,0
1,61,0,1
1,54,0,0
1,61,11,1
1,54,11,0
1,54,0,19
1,61,0,0
1,61,12,1
1,54,12,0
1,54,0,24
1,61,0,0
1,61,13,1
1,54,13,0
1,54,0,2
1,61,0,0
1,61,16,1
1,54,16,0
1,54,0,24
1,61,0,0
1,61,16,1
1,54,16,0
1,54,0,4
1,61,0,0
1,61,17,1
1,54,17,0
1,54,0,23
1,61,0,0
1,61,19,1
1,54,19,0
1,54,0,6
1,61,0,0
1,55,20,1
1,62,20,0
1,62,0,9
1,55,0,0
1,62,20,0
1,55,20,0
1,55,0,2
1,62,0,0
1,55,21,1
1,62,21,0
1,62,0,1
1,55,0,0
1,55,23,1
1,62,23,0
1,62,0,10
1,55,0,0
1,62,23,1
1,55,23,0
1,55,0,3
1,62,0,0
1,55,24,1
1,62,24,0
1,62,0,12
1,55,0,0
1,55,25,0
1,62,25,0
1,62,0,5
1,55,0,0
1,55,27,1
1,62,27,0
1,62,0,1
1,55,0,0
1,56,28,1
1,63,28,0
1,63,0,1
1,56,0,0
1,63,29,1
1,56,29,0
1,56,0,3
1,63,0,0
1,63,31,1
1,56,31,0
1,56,0,3
1,63,0,0
1,63,32,1
1,56,32,0
1,56,0,2
1,63,0,0
1,63,33,1
1,56,33,0
1,56,0,5
1,63,0,0
1,63,33,1
1,56,33,0
1,56,0,4
1,63,0,0
1,56,34,1
1,63,34,0
1,63,0,23
1,56,0,0
1,57,36,1
1,64,36,0
1,64,0,6
1,57,0,0
1,64,37,1
1,57,37,0
1,57,0,2
1,64,0,0
1,64,37,1
1,57,37,0
1,57,0,2
1,64,0,0
1,64,38,1
1,57,38,0
1,57,0,4
1,64,0,0
1,64,40,1
1,57,40,0
1,57,0,4
1,64,0,0
1,57,41,1
1,64,41,0
1,64,0,6
1,57,0,0
1,57,43,1
1,64,43,0
1,64,0,6
1,57,0,0
1,57,44,1
1,64,44,0
1,64,0,5
1,57,0,0
1,65,45,1
1,58,45,0
1,58,0,8
1,65,0,0
1,65,47,1
1,58,47,0
1,58,0,7
1,65,0,0
1,65,48,1
1,58,48,0
1,58,0,3
1,65,0,0
1,65,49,1
1,58,49,0
1,58,0,9
1,65,0,0
1,65,49,1
1,58,49,0
1,58,0,5
1,65,0,0
1,65,51,1
1,58,51,0
1,58,0,5
1,65,0,0
1,58,51,1
1,65,51,0
1,65,0,7
1,58,0,0
1,59,53,1
1,66,53,0
1,66,0,7
1,59,0,0
1,66,54,1
1,59,54,0
1,59,0,6
1,66,0,0
1,66,54,1
1,59,54,0
1,59,0,9
1,66,0,0
1,66,56,0
1,59,56,0
1,59,0,2
1,66,0,0
1,66,56,1
1,59,56,0
1,59,0,4
1,66,0,0
1,66,57,1
1,59,57,0
1,59,0,4
1,66,0,0
1,66,57,1
1,59,57,0
1,59,0,6
1,66,0,0
1,66,59,1
1,59,59,0
1,59,0,6
1,66,0,0
1,66,60,1
1,59,60,0
1,59,0,8
1,66,0,0
1,66,61,1
1,59,61,0
1,59,0,8
1,66,0,0
1,66,63,1
1,59,63,0
1,59,0,10
1,66,0,0
1,66,64,1
1,59,64,0
1,59,0,10
1,66,0,0
1,60,64,1
1,67,64,0
1,67,0,9
1,60,0,0
1,60,65,1
1,67,65,0
1,67,0,12
1,60,0,0
1,60,67,1
1,67,67,0
1,67,0,11
1,60,0,0
1,60,67,1
1,67,67,0
1,67,0,7
1,60,0,0
1,66,68,1
1,59,68,0
1,59,0,13
1,66,0,0
1,66,68,1
1,59,68,0
1,59,0,9
1,66,0,0
1,66,68,1
1,59,68,0
1,59,0,9
1,66,0,0
1,59,68,0
1,66,68,0
1,66,0,11
1,59,0,0
1,66,68,1
1,59,68,0
1,59,0,1
1,66,0,0
1,66,67,1
1,59,67,0
1,59,0,4
1,66,0,0
1,65,67,0
1,58,67,0
1,58,0,3
1,65,0,0
1,65,66,1
1,58,66,0
1,58,0,6
1,65,0,0
1,65,65,1
1,58,65,0
1,58,0,5
1,65,0,0
1,65,65,1
1,58,65,0
1,58,0,1
1,65,0,0
1,58,65,1
1,65,65,0
1,65,0,1
1,58,0,0
1,58,63,1
1,65,63,0
1,65,0,10
1,58,0,0
1,65,62,1
1,58,62,0
1,58,0,9
1,65,0,0
1,58,61,1
1,65,61,0
1,65,0,12
1,58,0,0
1,65,60,1
1,58,60,0
1,58,0,14
1,65,0,0
1,57,59,1
1,64,59,0
1,64,0,14
1,57,0,0
1,57,57,1
1,64,57,0
1,64,0,13
1,57,0,0
1,57,57,1
1,64,57,0
1,64,0,9
1,57,0,0
1,57,56,1
1,64,56,0
1,64,0,9
1,57,0,0
1,57,56,1
1,64,56,0
1,64,0,8
1,57,0,0
1,57,54,1
1,64,54,0
1,64,0,4
1,57,0,0
1,57,53,1
1,64,53,0
1,64,0,20
1,57,0,0
1,57,53,1
1,64,53,0
1,64,0,3
1,57,0,0
1,64,52,1
1,57,52,0
1,57,0,22
1,64,0,0
1,57,51,0
1,64,51,0
1,64,0,5
1,57,0,0
1,63,50,1
1,56,50,0
1,56,0,1
1,63,0,0
1,63,49,1
1,56,49,0
1,56,0,7
1,63,0,0
1,63,48,1
1,56,48,0
1,56,0,3
1,63,0,0
1,63,47,1
1,56,47,0
1,56,0,9
1,63,0,0
1,56,46,1
1,63,46,0
1,63,0,5
1,56,0,0
1,63,45,1
1,56,45,0
1,56,0,5
1,63,0,0
1,63,44,1
1,56,44,0
1,56,0,4
1,63,0,0
1,56,42,1
1,63,42,0
1,63,0,13
1,56,0,0
1,63,41,1
1,56,41,0
1,56,0,16
1,63,0,0
1,63,40,1
1,56,40,0
1,56,0,15
1,63,0,0
1,63,39,0
1,56,39,0
1,56,0,18
1,63,0,0
1,56,38,1
1,63,38,0
1,63,0,17
1,56,0,0
1,56,37,1
1,63,37,0
1,63,0,20
1,56,0,0
1,55,37,1
1,62,37,0
1,62,0,3
1,55,0,0
1,55,36,1
1,62,36,0
1,62,0,22
1,55,0,0
1,62,34,0
1,55,34,0
1,55,0,5
1,62,0,0
1,62,33,0
1,55,33,0
1,55,0,1
1,62,0,0
1,62,31,1
1,55,31,0
1,55,0,1
1,62,0,0
1,61,30,1
1,54,30,0
1,54,0,3
1,61,0,0
1,61,29,1
1,54,29,0
1,54,0,3
1,61,0,0
1,54,26,1
1,61,26,0
1,61,0,5
1,54,0,0
1,61,24,1
1,54,24,0
1,54,0,5
1,61,0,0
1,61,22,1
1,54,22,0
1,54,0,7
1,61,0,0
1,54,21,1
1,61,21,0
1,61,0,13
1,54,0,0
1,61,18,1
1,54,18,0
1,54,0,9
1,61,0,0
1,61,17,0
1,54,17,0
1,54,0,15
1,61,0,0
1,61,16,0
1,54,16,0
1,54,0,2
1,61,0,0
1,61,14,1
1,54,14,0
1,54,0,4
1,61,0,0
1,61,13,1
1,54,13,0
1,54,0,4
1,61,0,0
1,61,13,1
1,54,13,0
1,54,0,6
1,61,0,0
1,61,12,1
1,54,12,0
1,54,0,12
1,61,0,0
1,61,10,1
1,54,10,0
1,54,0,8
1,61,0,0
1,61,9,0
1,54,9,0
1,54,0,14
1,61,0,0
1,61,9,1
1,54,9,0
1,54,0,1
1,61,0,0
1,54,8,1
1,61,8,0
1,61,0,16
1,54,0,0
1,61,6,1
1,54,6,0
1,54,0,3
1,61,0,0
1,54,5,1
1,61,5,0
1,61,0,2
1,54,0,0
1,61,4,0
1,54,4,0
1,54,0,5
1,61,0,0
1,61,2,1
1,54,2,0
1,54,0,4
1,61,0,0
1,61,2,1
1,54,2,0
1,54,0,7
1,61,0,0
1,64,90,3254
1,64,0,85
1,66,101,18
1,64,65,180
1,66,0,12
1,64,0,73
1,69,101,14
1,66,82,172
1,69,0,27
1,66,0,63
1,64,95,6
1,64,0,605
1,64,93,106
1,64,0,88
1,66,87,3
1,66,0,51
1,69,103,44
1,66,90,76
1,69,0,23
1,66,0,81
1,64,95,10
1,64,0,97
1,66,106,5
1,66,0,78
1,64,85,14
1,64,0,52
1,61,79,50
1,61,0,62
1,59,87,31
1,59,0,90
1,61,82,9
1,61,0,119
1,57,77,39
1,57,0,97
1,54,106,19
1,54,0,1
1,69,98,2600
1,66,85,96
1,69,0,22
1,66,0,71
1,64,101,18
1,64,0,156
1,66,87,28
1,66,0,62
1,69,101,32
1,69,0,130
1,71,93,57
1,71,0,88
1,69,93,388
1,71,90,98
1,69,0,15
1,71,0,30
1,76,98,55
1,71,78,82
1,76,0,15
1,71,0,72
1,69,90,22
1,69,0,73
1,66,79,117
1,66,0,32
1,69,93,56
1,69,0,172
1,71,75,13
1,69,75,94
1,71,0,13
1,69,0,85
1,66,90,5
1,66,0,89
1,64,95,17
1,64,0,75
1,61,93,32
1,61,0,58
1,59,90,44
1,59,0,67
1,57,85,17
1,57,0,69
1,52,106,43
1,52,0,3
1,64,101,68529
1,76,127,3
1,76,0,43
1,64,0,6
1,64,98,805
1,76,127,1
1,76,0,59
1,64,0,1
1,64,103,683
1,76,127,1
1,76,0,65
1,64,0,11
1,64,101,6
1,76,127,1
1,64,0,37
1,76,0,7
2,54,24,0
2,54,0,0
2,54,87,0
2,42,79,0
2,61,52,0
2,61,0,0
2,49,47,0
2,49,0,768
2,42,0,0
2,54,0,0
2,47,85,192
2,59,98,0
2,54,51,0
2,66,58,0
2,66,0,191
2,47,0,0
2,59,0,0
2,54,0,0
2,49,69,1
2,61,85,0
2,56,41,0
2,68,51,0
2,68,0,191
2,49,0,0
2,61,0,0
2,56,0,0
2,44,85,1
2,56,93,0
2,51,51,0
2,63,55,0
2,63,0,191
2,44,0,0
2,56,0,0
2,51,0,0
2,45,78,1
2,57,98,0
2,52,46,0
2,64,58,0
2,64,0,768
2,45,0,0
2,57,0,0
2,52,0,0
2,63,101,192
2,51,85,0
2,70,60,0
2,58,51,0
2,58,0,191
2,63,0,0
2,51,0,0
2,70,0,0
2,64,82,1
2,52,87,0
2,71,49,0
2,59,52,0
2,59,0,191
2,64,0,0
2,52,0,0
2,71,0,0
2,45,85,1
2,57,95,0
2,52,51,0
2,64,57,0
2,64,0,191
2,45,0,0
2,57,0,0
2,52,0,0
2,54,24,1
2,54,0,0
2,54,87,0
2,42,79,0
2,61,52,0
2,61,0,0
2,49,47,0
2,49,0,768
2,42,0,0
2,54,0,0
2,47,85,192
2,59,98,0
2,54,51,0
2,66,58,0
2,66,0,191
2,47,0,0
2,59,0,0
2,54,0,0
2,49,69,1
2,61,85,0
2,56,41,0
2,68,51,0
2,68,0,191
2,49,0,0
2,61,0,0
2,56,0,0
2,44,85,1
2,56,93,0
2,51,51,0
2,63,55,0
2,63,0,191
2,44,0,0
2,56,0,0
2,51,0,0
2,45,78,1
2,57,98,0
2,52,46,0
2,64,58,0
2,64,0,768
2,45,0,0
2,57,0,0
2,52,0,0
2,63,101,192
2,51,85,0
2,70,60,0
2,58,51,0
2,58,0,191
2,63,0,0
2,51,0,0
2,70,0,0
2,64,82,1
2,52,87,0
2,71,49,0
2,59,52,0
2,59,0,191
2,64,0,0
2,52,0,0
2,71,0,0
2,45,85,1
2,57,95,0
2,52,51,0
2,64,57,0
2,64,0,191
2,45,0,0
2,57,0,0
2,52,0,0
2,54,24,1
2,54,0,0
2,54,87,0
2,42,79,0
2,61,52,0
2,61,0,0
2,49,47,0
2,49,0,768
2,42,0,0
2,54,0,0
2,47,85,192
2,59,98,0
2,54,51,0
2,66,58,0
2,66,0,191
2,47,0,0
2,59,0,0
2,54,0,0
2,49,69,1
2,61,85,0
2,56,41,0
2,68,51,0
2,68,0,191
2,49,0,0
2,61,0,0
2,56,0,0
2,44,85,1
2,56,93,0
2,51,51,0
2,63,55,0
2,63,0,191
2,44,0,0
2,56,0,0
2,51,0,0
2,45,78,1
2,57,98,0
2,52,46,0
2,64,58,0
2,64,0,768
2,45,0,0
2,57,0,0
2,52,0,0
2,63,101,192
2,51,85,0
2,70,60,0
2,58,51,0
2,58,0,191
2,63,0,0
2,51,0,0
2,70,0,0
2,64,82,1
2,52,87,0
2,71,49,0
2,59,52,0
2,59,0,191
2,64,0,0
2,52,0,0
2,71,0,0
2,45,85,1
2,57,95,0
2,52,51,0
2,64,57,0
2,64,0,191
2,45,0,0
2,57,0,0
2,52,0,0
2,54,24,1
2,54,0,0
2,54,87,0
2,42,79,0
2,61,52,0
2,61,0,0
2,42,0,768
2,54,0,0
2,47,85,192
2,59,98,0
2,54,51,0
2,66,58,0
2,66,0,191
2,47,0,0
2,59,0,0
2,54,0,0
2,49,69,1
2,61,85,0
2,56,41,0
2,68,51,0
2,68,0,191
2,49,0,0
2,61,0,0
2,56,0,0
2,44,85,1
2,56,93,0
2,51,51,0
2,63,55,0
2,63,0,191
2,44,0,0
2,56,0,0
2,51,0,0
2,45,78,1
2,57,98,0
2,52,46,0
2,64,58,0
2,64,0,768
2,45,0,0
2,57,0,0
2,52,0,0
2,63,101,192
2,51,85,0
2,70,60,0
2,58,51,0
2,58,0,191
2,63,0,0
2,51,0,0
2,70,0,0
2,64,82,1
2,52,87,0
2,71,49,0
2,59,52,0
2,59,0,191
2,64,0,0
2,52,0,0
2,71,0,0
2,45,85,1
2,57,95,0
2,52,51,0
2,64,57,0
2,64,0,191
2,45,0,0
2,57,0,0
2,52,0,0
2,54,1,1
2,54,0,0
2,42,79,0
2,61,14,0
2,61,0,0
2,49,47,0
2,49,0,768
2,42,0,0
2,47,85,192
2,59,98,0
2,54,51,0
2,66,58,0
2,66,0,191
2,47,0,0
2,59,0,0
2,54,0,0
2,49,69,1
2,61,85,0
2,56,41,0
2,68,51,0
2,68,0,191
2,49,0,0
2,61,0,0
2,56,0,0
2,44,85,1
2,56,93,0
2,51,51,0
2,63,55,0
2,63,0,191
2,44,0,0
2,56,0,0
2,51,0,0
2,45,78,1
2,57,98,0
2,52,46,0
2,64,58,0
2,64,0,768
2,45,0,0
2,57,0,0
2,52,0,0
2,63,101,192
2,51,85,0
2,70,60,0
2,58,51,0
2,58,0,191
2,63,0,0
2,51,0,0
2,70,0,0
2,64,82,1
2,52,87,0
2,71,49,0
2,59,52,0
2,59,0,191
2,64,0,0
2,52,0,0
2,71,0,0
2,45,85,1
2,57,95,0
2,52,51,0
2,64,57,0
2,64,0,191
2,45,0,0
2,57,0,0
2,52,0,0
2,54,24,1
2,54,0,0
2,42,79,0
2,61,14,0
2,61,0,0
2,49,47,0
2,49,0,768
2,42,0,0
2,47,85,192
2,59,98,0
2,54,51,0
2,66,58,0
2,66,0,191
2,47,0,0
2,59,0,0
2,54,0,0
2,49,69,1
2,61,85,0
2,56,41,0
2,68,51,0
2,68,0,191
2,49,0,0
2,61,0,0
2,56,0,0
2,44,85,1
2,56,93,0
2,51,51,0
2,63,55,0
2,63,0,191
2,44,0,0
2,56,0,0
2,51,0,0
2,45,78,1
2,57,98,0
2,52,46,0
2,64,58,0
2,64,0,768
2,45,0,0
2,57,0,0
2,52,0,0
2,63,101,192
2,51,85,0
2,70,60,0
2,58,51,0
2,58,0,191
2,63,0,0
2,51,0,0
2,70,0,0
2,64,82,1
2,52,87,0
2,71,49,0
2,59,52,0
2,59,0,191
2,64,0,0
2,52,0,0
2,71,0,0
2,45,85,1
2,57,95,0
2,52,51,0
2,64,57,0
2,64,0,191
2,45,0,0
2,57,0,0
2,52,0,0
2,54,24,1
2,54,0,0
2,42,79,0
2,61,52,0
2,61,0,0
2,49,47,0
2,49,0,768
2,42,0,0
2,47,85,192
2,59,98,0
2,54,51,0
2,66,58,0
2,66,0,191
2,47,0,0
2,59,0,0
2,54,0,0
