track,note,velocity,time
0,42,127,7
0,42,0,6
0,42,127,4
0,42,0,1
0,38,127,76
0,42,127,1
0,42,0,8
0,38,0,0
0,41,127,112
0,41,0,8
0,36,127,111
0,48,127,1
0,48,0,8
0,36,0,0
0,36,127,111
0,45,127,1
0,45,0,8
0,36,0,0
0,36,127,113
0,42,127,1
0,49,127,0
0,42,0,6
0,36,0,0
0,49,0,1
0,42,52,111
0,42,0,8
0,36,127,111
0,42,127,1
0,42,0,8
0,36,0,0
0,42,52,112
0,42,0,8
0,38,127,111
0,42,127,1
0,42,0,8
0,38,0,0
0,42,52,112
0,42,0,8
0,42,127,111
0,42,0,9
0,42,52,111
0,42,0,9
0,36,127,111
0,42,127,1
0,42,0,8
0,36,0,0
0,42,52,112
0,42,0,8
0,36,127,112
0,42,127,0
0,42,0,8
0,36,0,0
0,42,52,111
0,42,0,9
0,38,127,112
0,42,127,0
0,42,0,8
0,38,0,0
0,36,127,111
0,38,127,1
0,42,52,0
0,42,0,8
0,38,0,0
0,36,0,0
0,42,127,112
0,42,0,8
0,36,127,111
0,38,127,1
0,42,52,0
0,38,0,8
0,36,0,0
0,42,0,1
0,36,127,113
0,42,127,0
0,42,0,6
0,36,0,0
0,42,52,112
0,42,0,8
0,36,127,111
0,42,127,1
0,42,0,8
0,36,0,0
0,42,52,111
0,42,0,9
0,38,127,111
0,42,127,1
0,42,0,8
0,38,0,0
0,42,52,112
0,42,0,8
0,42,127,111
0,42,0,9
0,46,127,112
0,46,0,8
0,36,127,111
0,42,127,1
0,42,0,8
0,36,0,0
0,38,30,112
0,42,52,0
0,42,0,8
0,38,0,0
0,36,127,111
0,38,30,1
0,42,127,0
0,38,0,8
0,36,0,0
0,42,0,1
0,38,52,111
0,42,52,0
0,42,0,8
0,38,0,0
0,38,127,111
0,42,127,1
0,42,0,8
0,38,0,0
0,36,127,112
0,42,52,0
0,42,0,8
0,36,0,0
0,38,127,111
0,42,127,1
0,42,0,8
0,38,0,0
0,36,127,112
0,42,52,0
0,42,0,8
0,36,0,0
0,38,119,107
0,50,89,0
0,45,127,0
0,50,89,0
0,36,127,6
0,42,127,1
0,49,127,0
0,49,0,6
0,36,0,0
0,42,0,0
0,50,127,107
0,42,52,4
0,42,0,9
0,45,0,16
0,57,61,17
0,66,84,0
0,62,93,0
0,57,127,0
0,57,81,0
0,62,95,0
0,50,0,2
0,38,127,3
0,42,127,0
0,42,0,8
0,38,0,0
0,62,0,37
0,57,0,2
0,42,52,25
0,42,0,9
0,38,0,57
0,33,113,50
0,45,84,0
0,57,46,0
0,36,127,5
0,42,127,0
0,42,0,8
0,36,0,0
0,57,0,26
0,50,72,61
0,42,52,4
0,42,0,9
0,50,0,39
0,57,56,68
0,66,65,0
0,62,84,0
0,57,81,0
0,62,95,0
0,38,127,5
0,42,127,0
0,42,0,8
0,38,0,0
0,57,0,8
0,62,0,7
0,42,52,27
0,42,0,8
0,33,0,9
0,38,124,7
0,50,69,0
0,50,77,0
0,36,127,5
0,42,127,0
0,42,0,8
0,36,0,0
0,50,0,33
0,42,52,67
0,42,0,9
0,57,54,12
0,62,72,0
0,66,72,0
0,45,127,0
0,57,81,0
0,62,93,0
0,38,127,5
0,42,127,0
0,42,0,8
0,38,0,0
0,50,0,10
0,62,0,25
0,57,0,5
0,62,0,3
0,57,0,12
0,66,0,23
0,45,0,12
0,48,127,17
0,42,52,4
0,42,0,9
0,38,0,86
0,48,0,8
0,33,127,13
0,45,77,0
0,50,127,0
0,57,51,0
0,36,127,5
0,42,127,0
0,42,0,8
0,36,0,0
0,57,0,32
0,50,0,44
0,57,58,31
0,53,127,0
0,50,65,0
0,42,52,4
0,42,0,9
0,50,0,41
0,57,0,25
0,66,69,41
0,60,89,0
0,50,127,0
0,57,81,0
0,62,95,0
0,38,127,5
0,42,127,0
0,42,0,8
0,38,0,0
0,45,0,9
0,53,0,4
0,62,0,27
0,57,0,0
0,66,0,28
0,60,0,4
0,50,0,28
0,48,127,7
0,42,52,4
0,42,0,9
0,48,0,65
0,33,0,7
0,38,127,35
0,50,65,0
0,50,127,0
0,50,84,0
0,36,127,6
0,42,127,1
0,42,0,6
0,36,0,0
0,50,0,22
0,42,52,77
0,42,0,8
0,57,56,108
0,66,61,0
0,62,77,0
0,57,81,0
0,62,95,0
0,38,127,5
0,42,127,0
0,42,0,2
0,38,0,0
0,57,0,42
0,62,0,0
0,42,52,24
0,42,0,8
0,38,0,14
0,33,113,23
0,57,44,0
0,36,127,1
0,42,127,0
0,42,0,0
0,36,0,0
0,57,0,15
0,45,51,32
0,50,18,13
0,42,52,4
0,42,0,6
0,50,0,12
0,57,61,11
0,62,84,0
0,66,81,0
0,57,81,0
0,62,95,0
0,45,0,2
0,38,127,3
0,42,127,0
0,42,0,8
0,38,0,0
0,62,0,5
0,62,0,4
0,57,0,0
0,57,0,7
0,66,0,16
0,42,52,33
0,42,0,8
0,33,0,19
0,38,127,16
0,50,65,0
0,57,51,0
0,36,127,5
0,42,127,0
0,42,0,8
0,36,0,0
0,57,0,3
0,42,52,27
0,42,0,8
0,57,47,108
0,62,81,0
0,66,65,0
0,57,81,0
0,62,95,0
0,38,127,0
0,42,127,0
0,42,0,8
0,38,0,0
0,62,0,6
0,57,0,1
0,45,81,38
0,57,127,0
0,50,84,0
0,42,52,0
0,42,0,0
0,50,0,6
0,38,0,10
0,33,124,4
0,57,65,0
0,57,48,0
0,36,127,0
0,42,127,0
0,45,0,8
0,42,0,0
0,36,0,0
0,57,0,23
0,57,0,27
0,57,72,22
0,66,81,0
0,60,95,0
0,66,127,0
0,57,81,0
0,62,95,0
0,42,52,4
0,42,0,8
0,62,0,25
0,57,0,4
0,36,108,49
0,57,127,0
0,62,81,0
0,33,0,4
0,38,127,1
0,42,127,0
0,42,0,8
0,38,0,0
0,66,0,5
0,62,0,15
0,57,72,87
0,66,84,0
0,60,89,0
0,66,127,0
0,50,81,0
0,42,52,4
0,42,0,8
0,50,0,2
0,57,0,0
0,36,0,23
0,66,0,15
0,38,113,9
0,50,81,0
0,57,127,0
0,57,77,0
0,62,89,0
0,36,127,7
0,42,127,0
0,42,0,4
0,36,0,0
0,42,52,112
0,42,0,8
0,62,0,18
0,57,0,2
0,57,53,87
0,66,65,0
0,62,81,0
0,66,127,0
0,57,81,0
0,62,95,0
0,38,127,4
0,42,127,0
0,42,0,9
0,38,0,0
0,57,0,11
0,62,0,3
0,42,52,69
0,42,0,8
0,38,0,15
0,33,108,17
0,45,69,0
0,36,127,4
0,42,127,1
0,42,0,8
0,36,0,0
0,42,52,35
0,42,0,2
0,62,81,5
0,66,65,0
0,57,69,0
0,57,65,0
0,50,81,0
0,62,95,0
0,38,127,4
0,42,127,1
0,42,0,8
0,38,0,0
0,45,0,4
0,57,0,9
0,50,0,6
0,62,0,5
0,42,52,9
0,42,0,7
0,33,0,35
0,38,108,10
0,50,56,0
0,57,51,0
0,36,127,4
0,42,127,0
0,42,0,3
0,36,0,0
0,57,0,4
0,42,52,42
0,42,0,8
0,57,54,24
0,66,61,0
0,62,81,0
0,66,127,0
0,62,127,0
0,57,65,0
0,62,95,0
0,50,84,0
0,38,127,4
0,42,127,1
0,42,0,1
0,38,0,0
0,50,0,37
0,57,0,0
0,62,0,7
0,62,0,22
0,66,0,3
0,42,52,16
0,42,0,8
0,38,0,100
0,33,119,4
0,45,58,0
0,66,127,0
0,62,127,0
0,57,54,0
0,36,127,0
0,42,127,1
0,42,0,5
0,36,0,0
0,57,0,33
0,50,81,74
0,42,52,5
0,42,0,8
0,50,0,37
0,66,0,29
0,62,0,8
0,62,84,7
0,57,72,0
0,66,65,0
0,57,77,0
0,62,95,0
0,38,127,4
0,42,127,1
0,42,0,8
0,38,0,0
0,57,0,39
0,62,0,2
0,45,0,27
0,42,52,44
0,42,0,8
0,33,0,74
0,38,124,33
0,50,56,0
0,67,127,0
0,50,81,0
0,36,127,6
0,42,127,1
0,42,0,6
0,36,0,0
0,62,0,10
0,66,0,9
0,57,0,12
0,50,0,2
0,42,52,1
0,42,0,0
0,62,65,5
0,66,81,0
0,57,72,0
0,57,72,0
0,62,95,0
0,38,127,0
0,42,127,0
0,42,0,8
0,38,0,0
0,62,0,2
0,57,0,13
0,62,0,2
0,50,0,7
0,42,52,66
0,42,0,9
0,57,0,41
0,66,0,11
0,33,124,55
0,45,69,0
0,57,51,0
0,36,127,5
0,42,127,0
0,38,0,1
0,36,0,7
0,42,0,0
0,57,0,32
0,50,61,19
0,42,52,4
0,42,0,9
0,50,0,26
0,62,84,81
0,57,56,0
0,66,81,0
0,57,84,0
0,62,93,0
0,38,127,5
0,42,127,0
0,42,0,8
0,38,0,0
0,45,0,36
0,62,0,5
0,57,0,1
0,42,52,69
0,42,0,9
0,33,0,19
0,38,127,14
0,50,58,0
0,57,69,0
0,36,127,4
0,42,127,0
0,42,0,8
0,36,0,0
0,57,0,37
0,67,127,70
0,42,52,4
0,42,0,9
0,62,81,3
0,57,65,0
0,66,77,0
0,57,81,0
0,62,93,0
0,38,127,5
0,42,127,0
0,42,0,7
0,38,0,0
0,50,0,5
0,57,0,27
0,62,0,6
0,45,77,27
0,65,127,0
0,50,81,0
0,46,127,4
0,57,0,6
0,62,0,1
0,46,0,2
0,66,0,18
0,50,0,21
0,38,0,22
0,65,0,29
0,33,124,17
0,57,69,0
0,67,127,0
0,57,69,0
0,36,127,5
0,42,127,0
0,42,0,8
0,36,0,0
0,57,0,40
0,66,72,67
0,60,93,0
0,65,127,0
0,57,89,0
0,62,95,0
0,38,127,4
0,42,52,1
0,42,0,8
0,38,0,0
0,57,0,35
0,57,0,0
0,62,0,3
0,67,0,5
0,60,0,24
0,66,0,7
0,65,0,18
0,33,0,10
0,36,119,5
0,50,65,0
0,62,127,0
0,38,127,5
0,41,127,0
0,42,127,0
0,42,0,8
0,38,0,0
0,41,0,1
0,45,0,48
0,50,0,23
0,62,0,11
0,57,61,0
0,69,127,0
0,46,127,4
0,45,127,1
0,45,0,8
0,46,0,0
0,36,0,1
0,57,0,47
0,69,0,19
0,38,119,0
0,50,89,0
0,50,89,0
0,72,124,0
0,36,127,6
0,42,127,1
0,49,127,0
0,49,0,6
0,36,0,0
0,42,0,0
0,42,52,111
0,42,0,8
0,72,0,63
0,57,61,0
0,66,84,0
0,62,93,0
0,57,81,0
0,62,95,0
0,74,127,0
0,50,0,2
0,38,127,3
0,42,127,0
0,42,0,8
0,38,0,0
0,62,0,37
0,57,0,2
0,42,52,25
0,42,0,8
0,74,0,10
0,38,0,48
0,33,113,0
0,45,84,0
0,57,46,0
0,74,124,0
0,36,127,5
0,42,127,0
0,42,0,8
0,36,0,0
0,57,0,26
0,50,72,61
0,42,52,4
0,42,0,8
0,50,0,40
0,57,56,48
0,66,65,0
0,62,84,0
0,57,81,0
0,62,95,0
0,38,127,5
0,42,127,0
0,42,0,8
0,38,0,0
0,57,0,8
0,62,0,7
0,69,127,0
0,42,52,4
0,42,0,8
0,33,0,57
0,69,0,37
0,38,124,0
0,50,69,0
0,50,77,0
0,72,103,0
0,36,127,4
0,42,127,1
0,42,0,8
0,36,0,0
0,50,0,33
0,72,0,31
0,74,113,0
0,42,52,4
0,42,0,8
0,74,0,65
0,57,54,0
0,62,72,0
0,66,72,0
0,57,81,0
0,62,93,0
0,74,119,0
0,38,127,5
0,42,127,0
0,42,0,8
0,38,0,0
0,50,0,10
0,62,0,25
0,57,0,5
0,62,0,3
0,57,0,12
0,74,0,1
0,66,0,22
0,74,113,0
0,42,52,4
0,42,0,8
0,74,0,46
0,38,0,41
0,33,127,0
0,45,77,0
0,57,51,0
0,74,124,0
0,36,127,5
0,42,127,0
0,42,0,8
0,36,0,0
0,57,0,32
0,57,58,75
0,50,65,0
0,42,52,4
0,42,0,8
0,50,0,42
0,57,0,25
0,66,69,41
0,60,89,0
0,57,81,0
0,62,95,0
0,38,127,5
0,42,127,0
0,42,0,8
0,38,0,0
0,45,0,3
0,57,0,15
0,62,0,0
0,66,0,11
0,60,0,4
0,69,119,0
0,42,52,4
0,42,0,8
0,33,0,73
0,69,0,18
0,38,127,0
0,50,65,0
0,50,84,0
0,72,127,0
0,36,127,7
0,42,127,0
0,42,0,6
0,36,0,0
0,50,0,22
0,42,52,77
0,42,0,9
0,72,0,14
0,57,56,0
0,66,61,0
0,62,77,0
0,57,81,0
0,62,95,0
0,74,124,0
0,38,127,4
0,42,127,1
0,42,0,2
0,38,0,0
0,62,0,42
0,57,0,0
0,42,52,25
0,42,0,2
0,38,0,84
0,33,113,0
0,57,44,0
0,74,127,0
0,36,127,4
0,42,127,1
0,42,0,8
0,36,0,0
0,57,0,15
0,45,51,32
0,50,18,60
0,42,52,5
0,42,0,8
0,50,0,11
0,74,0,21
0,57,61,0
0,62,84,0
0,66,81,0
0,57,81,0
0,62,95,0
0,74,127,0
0,45,0,2
0,38,127,2
0,42,127,1
0,42,0,8
0,38,0,0
0,62,0,42
0,57,0,4
0,62,0,0
0,57,0,7
0,66,0,16
0,72,119,0
0,42,52,5
0,74,0,0
0,42,0,8
0,33,0,69
0,38,127,0
0,50,65,0
0,57,51,0
0,69,108,0
0,72,0,1
0,36,127,3
0,42,127,1
0,42,0,8
0,36,0,0
0,57,0,4
0,69,0,68
0,72,113,0
0,42,52,5
0,42,0,8
0,72,0,83
0,57,47,0
0,62,81,0
0,66,65,0
0,57,81,0
0,62,95,0
0,74,119,0
0,38,127,4
0,42,127,0
0,42,0,8
0,38,0,0
0,62,0,6
0,57,0,1
0,45,81,38
0,50,84,0
0,42,52,5
0,42,0,8
0,74,0,10
0,50,0,27
0,38,0,55
0,33,124,0
0,57,65,0
0,57,48,0
0,74,127,0
0,36,127,4
0,42,127,1
0,45,0,8
0,42,0,0
0,36,0,0
0,57,0,26
0,57,0,27
0,57,72,54
0,66,81,0
0,60,95,0
0,57,81,0
0,62,95,0
0,42,52,4
0,42,0,9
0,62,0,25
0,74,0,1
0,57,0,3
0,36,108,49
0,62,81,0
0,33,0,4
0,38,127,0
0,42,127,1
0,42,0,8
0,38,0,0
0,62,0,20
0,57,72,87
0,66,84,0
0,60,89,0
0,50,81,0
0,42,52,5
0,42,0,8
0,50,0,2
0,36,0,23
0,43,113,0
0,55,81,0
0,67,89,0
0,62,77,0
0,71,127,0
0,36,127,6
0,42,127,0
0,42,0,4
0,36,0,0
0,71,0,45
0,71,127,0
0,42,52,5
0,42,0,8
0,67,0,18
0,62,0,2
0,71,0,34
0,67,81,0
0,71,65,0
0,62,53,0
0,67,95,0
0,62,81,0
0,71,113,0
0,38,127,4
0,42,127,1
0,42,0,8
0,38,0,0
0,62,0,11
0,67,0,3
0,71,0,56
0,69,113,0
0,42,52,5
0,42,0,8
0,43,0,15
0,69,0,2
0,38,108,0
0,50,69,0
0,71,103,0
0,36,127,4
0,42,127,1
0,42,0,8
0,36,0,0
0,71,0,98
0,69,108,0
0,42,52,5
0,42,0,8
0,69,0,85
0,62,69,0
0,71,65,0
0,67,81,0
0,67,95,0
0,55,81,0
0,62,65,0
0,67,119,0
0,38,127,4
0,42,127,1
0,42,0,8
0,38,0,0
0,50,0,14
0,62,0,16
0,55,0,6
0,67,0,5
0,42,52,71
0,42,0,8
0,38,0,79
0,43,108,28
0,55,56,0
0,62,51,0
0,36,127,4
0,42,127,1
0,42,0,3
0,36,0,0
0,62,0,4
0,42,52,83
0,42,0,8
0,67,0,91
0,67,81,16
0,71,61,0
0,62,54,0
0,55,84,0
0,67,95,0
0,62,65,0
0,38,127,4
0,42,127,1
0,42,0,1
0,38,0,0
0,55,0,37
0,62,0,0
0,67,0,7
0,42,52,41
0,42,0,8
0,43,0,100
0,38,119,4
0,50,58,0
0,62,54,0
0,36,127,0
0,42,127,1
0,36,0,5
0,42,0,0
0,62,0,33
0,55,81,0
0,74,127,0
0,42,52,5
0,42,0,8
0,55,0,37
0,74,0,14
0,71,65,7
0,62,72,0
