track,note,velocity,time
0,40,124,110
0,40,124,0
0,35,127,0
0,42,105,0
0,49,121,0
0,56,67,0
0,62,99,0
0,59,99,0
0,49,0,30
0,42,0,0
0,35,0,0
0,42,105,20
0,42,0,5
0,64,102,15
0,56,76,0
0,59,104,0
0,40,121,0
0,42,105,0
0,42,0,25
0,40,0,0
0,40,0,10
0,40,0,0
0,42,105,0
0,64,0,5
0,59,0,10
0,42,0,5
0,56,0,20
0,35,84,45
0,36,77,0
0,35,84,0
0,36,77,0
0,35,127,0
0,42,105,0
0,42,0,50
0,35,0,0
0,36,0,15
0,36,0,0
0,40,127,55
0,42,105,0
0,42,0,50
0,40,0,0
0,56,72,70
0,59,99,0
0,64,104,0
0,40,121,0
0,42,105,0
0,42,0,50
0,40,0,0
0,35,0,50
0,35,0,0
0,42,105,20
0,64,0,20
0,59,0,10
0,42,0,20
0,56,0,5
0,40,117,65
0,40,117,0
0,35,127,0
0,42,105,0
0,42,0,50
0,35,0,0
0,42,105,70
0,42,0,10
0,56,69,15
0,59,99,0
0,64,99,0
0,40,121,0
0,42,105,0
0,42,0,25
0,40,0,0
0,42,105,30
0,40,0,10
0,40,0,0
0,64,0,15
0,42,0,5
0,59,0,10
0,56,0,20
0,35,109,35
0,35,109,0
0,35,127,0
0,42,105,0
0,42,0,15
0,35,0,0
0,42,105,40
0,42,0,50
0,59,99,35
0,56,72,0
0,64,102,0
0,40,121,0
0,42,105,0
0,42,0,50
0,40,0,0
0,35,0,20
0,35,0,0
0,42,105,10
0,42,0,50
0,59,0,0
0,64,0,5
0,56,0,20
0,40,120,25
0,40,120,0
0,35,121,0
0,42,105,0
0,42,0,50
0,35,0,0
0,42,105,70
0,42,0,10
0,59,97,15
0,56,69,0
0,64,102,0
0,40,121,0
0,42,105,0
0,42,0,50
0,40,0,0
0,40,0,70
0,40,0,0
0,42,105,0
0,64,0,25
0,59,0,10
0,42,0,15
0,56,0,5
0,35,104,5
0,35,104,0
0,35,121,0
0,42,105,0
0,42,0,50
0,35,0,0
0,42,105,40
0,42,0,10
0,56,69,35
0,59,99,0
0,64,102,0
0,40,121,0
0,42,105,0
0,42,0,50
0,40,0,0
0,42,105,70
0,59,0,15
0,64,0,10
0,42,0,15
0,56,0,0
0,35,0,5
0,35,0,0
0,40,114,5
0,40,114,0
0,35,121,0
0,42,105,0
0,42,0,15
0,35,0,0
0,42,105,20
0,42,0,5
0,56,66,15
0,59,97,0
0,64,99,0
0,40,121,0
0,42,105,0
0,42,0,25
0,40,0,0
0,40,0,5
0,40,0,0
0,35,90,65
0,35,90,0
0,42,105,0
0,64,0,30
0,59,0,0
0,42,0,20
0,35,0,0
0,35,0,0
0,56,0,5
0,38,106,65
0,38,106,0
0,35,121,0
0,42,105,0
0,42,0,50
0,35,0,0
0,42,105,70
0,42,0,50
0,38,0,5
0,38,0,0
0,39,117,65
0,39,117,0
0,56,64,0
0,59,96,0
0,64,102,0
0,40,121,0
0,42,105,0
0,42,0,50
0,40,0,0
0,40,127,70
0,42,105,0
0,59,0,35
0,64,0,10
0,40,0,5
0,39,0,0
0,42,0,0
0,39,0,0
0,56,0,30
0,59,0,15
0,62,0,15
0,56,0,10
0,40,124,0
0,40,124,0
0,35,121,0
0,42,105,0
0,56,66,0
0,62,97,0
0,59,94,0
0,64,92,0
0,42,0,50
0,35,0,0
0,42,105,70
0,42,0,50
0,56,64,70
0,59,96,0
0,64,96,0
0,40,121,0
0,42,105,0
0,42,0,50
0,40,0,0
0,40,0,10
0,40,0,0
0,42,105,0
0,64,0,20
0,59,0,5
0,42,0,15
0,56,0,5
0,35,99,5
0,35,99,0
0,35,121,0
0,42,105,0
0,42,0,15
0,35,0,0
0,42,105,60
0,42,0,5
0,56,67,35
0,59,96,0
0,64,96,0
0,40,121,0
0,42,105,0
0,42,0,50
0,40,0,0
0,35,0,65
0,35,0,0
0,42,105,5
0,64,0,35
0,59,0,5
0,42,0,10
0,56,0,15
0,40,111,50
0,40,111,0
0,35,121,0
0,42,105,0
0,42,0,35
0,35,0,0
0,42,105,20
0,42,0,5
0,56,66,15
0,59,96,0
0,64,97,0
0,40,121,0
0,42,105,0
0,42,0,25
0,40,0,0
0,42,105,10
0,40,0,10
0,40,0,0
0,59,0,25
0,64,0,0
0,42,0,15
0,56,0,25
0,35,102,5
0,35,102,0
0,35,121,0
0,42,105,0
0,42,0,35
0,35,0,0
0,42,105,20
0,42,0,5
0,59,96,70
0,56,66,0
0,64,97,0
0,40,121,0
0,42,105,0
0,35,0,10
0,35,0,0
0,42,0,40
0,40,0,0
0,35,89,70
0,35,89,0
0,42,105,0
0,64,0,25
0,59,0,10
0,42,0,15
0,56,0,15
0,35,0,25
0,35,0,0
0,40,94,30
0,40,94,0
0,35,121,0
0,42,105,0
0,42,0,50
0,35,0,0
0,42,105,70
0,40,0,25
0,40,0,0
0,42,0,25
0,39,103,70
0,39,103,0
0,59,97,0
0,56,66,0
0,64,102,0
0,40,121,0
0,42,105,0
0,42,0,50
0,40,0,0
0,42,105,70
0,39,0,20
0,64,0,0
0,39,0,0
0,59,0,25
0,42,0,5
0,56,0,15
0,37,127,55
0,37,127,0
0,35,121,0
0,42,105,0
0,42,0,50
0,35,0,0
0,42,105,70
0,37,0,25
0,37,0,0
0,42,0,25
0,36,111,70
0,36,111,0
0,56,63,0
0,59,96,0
0,64,96,0
0,40,121,0
0,42,105,0
0,42,0,50
0,40,0,0
0,42,105,70
0,59,0,35
0,64,0,5
0,42,0,10
0,36,0,15
0,36,0,0
0,56,0,5
0,35,109,50
0,35,109,0
0,35,121,0
0,42,105,0
0,64,0,5
0,59,0,10
0,62,0,5
0,56,0,20
0,42,0,10
0,35,0,0
0,40,127,70
0,42,105,0
0,35,0,35
0,35,0,0
0,40,0,15
0,42,0,0
0,36,120,70
0,36,120,0
0,59,97,0
0,56,67,0
0,64,96,0
0,40,121,0
0,42,105,0
0,42,0,50
0,40,0,0
0,42,105,70
0,64,0,25
0,59,0,10
0,36,0,15
0,36,0,0
0,42,0,0
0,56,0,20
0,37,127,50
0,37,127,0
0,35,121,0
0,40,127,0
0,42,105,0
0,42,0,50
0,35,0,0
0,40,0,0
0,42,105,70
0,37,0,5
0,37,0,0
0,42,0,5
0,39,112,10
0,39,112,0
0,56,66,0
0,59,97,0
0,64,90,0
0,40,127,0
0,42,105,0
0,42,0,35
0,40,0,0
0,40,127,25
0,42,105,0
0,39,0,25
0,39,0,0
0,59,0,20
0,40,0,5
0,42,0,0
0,64,0,5
0,56,0,20
0,40,99,20
0,40,99,0
0,35,121,0
0,42,105,0
0,49,121,0
0,59,90,0
0,56,54,0
0,64,84,0
0,49,0,30
0,42,0,0
0,35,0,0
0,56,66,30
0,59,97,0
0,64,96,0
0,40,121,0
0,46,89,0
0,46,0,50
0,40,0,0
0,40,0,15
0,40,0,0
0,64,0,95
0,59,0,5
0,56,0,40
0,35,92,35
0,35,92,0
0,35,121,0
0,42,105,0
0,42,0,50
0,35,0,0
0,56,64,190
0,59,96,0
0,64,94,0
0,40,121,0
0,46,89,0
0,46,0,50
0,40,0,0
0,35,0,60
0,35,0,0
0,59,0,85
0,64,0,5
0,56,0,25
0,40,96,15
0,40,96,0
0,35,121,0
0,42,105,0
0,42,0,50
0,35,0,0
0,59,96,10
0,56,63,0
0,64,96,0
0,40,121,0
0,46,89,0
0,46,0,20
0,40,0,0
0,40,0,10
0,40,0,0
0,64,0,5
0,59,0,15
0,56,0,20
0,35,106,40
0,35,106,0
0,35,121,0
0,42,105,0
0,42,0,50
0,35,0,0
0,59,97,70
0,56,63,0
0,64,99,0
0,40,121,0
0,46,89,0
0,46,0,50
0,40,0,0
0,35,0,15
0,35,0,0
0,64,0,40
0,59,0,15
0,56,0,30
0,40,99,40
0,40,99,0
0,35,121,0
0,42,105,0
0,42,0,50
0,35,0,0
0,59,97,50
0,56,63,0
0,64,97,0
0,40,121,0
0,46,89,0
0,46,0,20
0,40,0,0
0,40,0,40
0,40,0,0
0,64,0,40
0,59,0,5
0,56,0,30
0,35,92,40
0,35,92,0
0,35,121,0
0,42,105,0
0,42,0,50
0,35,0,0
0,59,99,155
0,64,102,0
0,56,69,0
0,40,121,0
0,46,89,0
0,46,0,40
0,40,0,0
0,35,0,35
0,35,0,0
0,64,0,35
0,59,0,25
0,56,0,15
0,40,99,60
0,40,99,0
0,35,121,0
0,42,105,0
0,42,0,10
0,35,0,0
0,59,96,135
0,56,67,0
0,64,97,0
0,40,121,0
0,46,89,0
0,46,0,50
0,40,0,0
0,40,0,25
0,40,0,0
0,64,0,65
0,59,0,25
0,59,0,15
0,64,0,10
0,56,0,20
0,56,0,5
0,35,97,25
0,35,97,0
0,35,121,0
0,42,105,0
0,42,0,50
0,35,0,0
0,40,127,70
0,40,0,50
0,59,97,70
0,56,64,0
0,64,99,0
0,40,121,0
0,46,89,0
0,46,0,50
0,40,0,0
0,35,0,5
0,35,0,0
0,64,0,15
0,59,0,10
0,56,0,35
0,40,99,20
0,40,99,0
0,35,121,0
0,42,105,0
0,56,54,0
0,59,83,0
0,64,69,0
0,62,82,0
0,42,0,30
0,35,0,0
0,59,96,10
0,56,63,0
0,64,99,0
0,40,121,0
0,46,89,0
0,40,0,15
0,40,0,0
0,46,0,5
0,40,0,0
0,64,0,100
0,59,0,35
0,56,0,20
0,35,92,35
0,35,92,0
0,35,121,0
0,42,105,0
0,42,0,50
0,35,0,0
0,56,69,190
0,64,96,0
0,59,99,0
0,40,121,0
0,46,89,0
0,46,0,50
0,40,0,0
0,35,0,60
0,35,0,0
0,64,0,5
0,59,0,5
0,56,0,5
0,40,99,20
0,40,99,0
0,35,121,0
0,42,105,0
0,42,0,10
0,35,0,0
0,59,97,70
0,64,97,0
0,56,66,0
0,40,121,0
0,46,89,0
0,46,0,20
0,40,0,0
0,40,0,5
0,40,0,0
0,64,0,70
0,59,0,5
0,56,0,15
0,35,92,20
0,35,92,0
0,35,121,0
0,42,105,0
0,42,0,5
0,35,0,0
0,56,70,10
0,64,102,0
0,59,97,0
0,40,121,0
0,46,89,0
0,46,0,35
0,40,0,0
0,35,0,35
0,35,0,0
0,64,0,20
0,59,0,20
0,56,0,35
0,40,127,20
0,40,127,0
0,35,121,0
0,42,105,0
0,42,0,5
0,35,0,0
0,59,97,10
0,56,66,0
0,64,97,0
0,40,121,0
0,46,89,0
0,46,0,20
0,40,0,0
0,40,0,20
0,40,0,0
0,64,0,20
0,59,0,20
0,56,0,20
0,35,120,40
0,35,120,0
0,35,121,0
0,42,105,0
0,42,0,50
0,35,0,0
0,59,99,190
0,56,69,0
0,64,97,0
0,40,121,0
0,46,89,0
0,46,0,50
0,40,0,0
0,35,0,45
0,35,0,0
0,64,0,45
0,59,0,25
0,56,0,20
0,40,124,55
0,40,124,0
0,35,121,0
0,42,105,0
0,42,0,50
0,35,0,0
0,56,67,190
0,59,99,0
0,64,97,0
0,40,121,0
0,46,89,0
0,46,0,50
0,40,0,0
0,40,0,70
0,40,0,0
0,64,0,30
0,59,0,15
0,59,0,25
0,56,0,5
0,62,0,30
0,40,120,15
0,40,120,0
0,35,121,0
0,42,105,0
0,64,0,10
0,35,0,40
0,56,0,0
0,42,0,0
0,40,127,70
0,40,0,50
0,56,74,0
0,59,92,0
0,64,96,0
0,40,121,0
0,46,89,0
0,46,0,5
0,40,0,0
0,64,0,15
0,40,0,5
0,40,0,0
0,59,0,25
0,56,0,10
0,33,120,10
0,33,120,0
0,35,121,0
0,42,105,0
0,57,72,0
0,55,70,0
0,64,75,0
0,61,58,0
0,42,0,50
0,35,0,0
0,64,87,190
0,61,82,0
0,57,87,0
0,40,121,0
0,46,89,0
0,46,0,50
0,40,0,0
0,33,0,75
0,33,0,0
0,61,0,40
0,64,0,0
0,57,0,30
0,40,117,45
0,40,117,0
0,35,121,0
0,42,105,0
0,42,0,50
0,35,0,0
0,61,82,190
0,64,92,0
0,57,87,0
0,40,121,0
0,46,89,0
0,46,0,50
0,40,0,0
0,40,0,40
0,40,0,0
0,64,0,75
0,61,0,0
0,57,0,15
0,33,120,60
0,33,120,0
0,35,121,0
0,42,105,0
0,42,0,50
0,35,0,0
0,61,84,190
0,64,86,0
0,57,84,0
0,40,121,0
0,46,89,0
0,46,0,50
0,40,0,0
0,33,0,75
0,33,0,0
0,64,0,25
0,61,0,0
0,57,0,20
0,40,111,70
0,40,111,0
0,35,121,0
0,42,105,0
0,42,0,50
0,35,0,0
0,61,78,190
0,64,90,0
0,57,82,0
0,40,121,0
0,46,89,0
0,46,0,50
0,40,0,0
0,40,0,45
0,40,0,0
0,64,0,65
0,61,0,20
0,57,0,25
0,33,109,35
0,33,109,0
0,35,121,0
0,42,105,0
0,42,0,50
0,35,0,0
0,61,84,190
0,64,87,0
0,57,87,0
0,40,121,0
0,46,89,0
0,46,0,50
0,40,0,0
0,33,0,45
0,33,0,0
0,64,0,80
0,61,0,5
0,57,0,20
0,40,109,40
0,40,109,0
0,35,121,0
0,42,105,0
0,42,0,50
0,35,0,0
0,61,90,190
0,64,87,0
0,55,90,0
0,40,121,0
0,46,89,0
0,46,0,50
0,40,0,0
0,40,0,40
0,40,0,0
0,64,0,120
0,61,0,10
0,55,0,5
0,33,111,15
0,33,111,0
0,35,121,0
0,42,105,0
0,42,0,50
0,35,0,0
0,57,0,160
0,61,84,30
0,64,86,0
0,55,89,0
0,40,121,0
0,46,89,0
0,61,0,15
0,64,0,25
0,46,0,10
0,40,0,0
0,55,0,5
0,33,0,65
0,33,0,0
0,64,0,85
0,61,0,20
0,55,0,5
0,33,114,10
0,33,114,0
0,35,121,0
0,42,105,0
0,42,0,50
0,35,0,0
0,40,127,15
0,40,0,25
0,61,90,10
0,64,89,0
0,55,92,0
0,40,121,0
0,46,89,0
0,46,0,50
0,40,0,0
0,40,127,25
0,33,0,25
0,33,0,0
0,40,0,25
0,64,0,5
0,61,0,25
0,55,0,5
0,40,124,20
0,40,124,0
0,35,121,0
0,42,105,0
0,56,47,0
0,59,74,0
0,62,77,0
0,64,69,0
0,42,0,50
0,35,0,0
0,56,74,30
0,64,87,0
0,59,99,0
0,40,121,0
0,46,89,0
0,46,0,15
0,40,0,0
0,40,0,50
0,40,0,0
0,64,0,65
0,59,0,0
0,56,0,5
0,35,120,70
0,35,120,0
0,35,121,0
0,42,105,0
0,42,0,50
0,35,0,0
0,59,94,10
0,56,80,0
0,64,97,0
0,40,121,0
0,46,89,0
0,46,0,15
0,40,0,0
0,35,0,15
0,35,0,0
0,64,0,5
0,56,0,5
0,59,0,0
0,40,117,55
0,40,117,0
0,35,121,0
0,42,105,0
0,42,0,25
0,35,0,0
0,56,67,10
0,59,99,0
0,64,96,0
0,40,121,0
0,46,89,0
0,46,0,50
0,40,0,0
0,40,0,65
0,40,0,0
0,64,0,40
0,59,0,5
0,56,0,30
0,35,109,50
0,35,109,0
0,35,121,0
0,42,105,0
0,42,0,50
0,35,0,0
0,64,94,190
0,59,97,0
0,56,72,0
0,40,121,0
0,46,89,0
0,46,0,35
0,40,0,0
0,35,0,55
0,35,0,0
0,59,0,50
0,64,0,5
0,56,0,15
0,40,111,65
0,40,111,0
0,35,121,0
0,42,105,0
0,42,0,5
0,35,0,0
0,64,97,175
0,59,92,0
0,56,78,0
0,40,121,0
0,46,89,0
0,46,0,50
0,40,0,0
0,40,0,35
0,40,0,0
0,64,0,20
0,59,0,5
0,56,0,30
0,35,117,20
0,35,117,0
0,35,121,0
0,42,105,0
0,42,0,5
0,35,0,0
0,64,102,115
0,59,97,0
0,56,70,0
0,40,121,0
0,46,89,0
0,46,0,50
0,40,0,0
0,35,0,50
0,35,0,0
0,59,0,90
0,56,0,15
0,64,0,10
0,40,120,25
0,40,120,0
0,35,121,0
0,42,105,0
0,42,0,50
0,35,0,0
0,62,0,125
0,40,0,60
0,40,0,0
0,59,96,5
0,64,104,0
0,56,69,0
0,40,121,0
0,46,89,0
