track,note,velocity,time
0,42,100,0
0,42,0,50
0,42,100,360
0,42,0,50
0,42,100,430
0,42,0,50
0,35,116,550
0,35,0,50
0,49,100,70
0,40,127,0
0,40,0,50
0,49,0,0
0,35,116,190
0,42,100,0
0,42,0,50
0,35,0,0
0,46,68,190
0,40,127,0
0,40,0,50
0,46,0,0
0,35,116,190
0,42,100,0
0,42,0,50
0,35,0,0
0,46,68,190
0,40,127,0
0,40,0,50
0,46,0,0
0,35,116,190
0,42,100,0
0,42,0,50
0,35,0,0
0,46,68,190
0,40,127,0
0,40,0,50
0,46,0,0
0,35,116,190
0,42,100,0
0,42,0,50
0,35,0,0
0,46,68,190
0,40,127,0
0,40,0,50
0,46,0,0
0,35,116,190
0,42,100,0
0,42,0,50
0,35,0,0
0,46,68,190
0,40,127,0
0,40,0,50
0,46,0,0
0,35,100,70
0,35,0,50
0,35,116,70
0,42,100,0
0,42,0,50
0,35,0,0
0,46,68,190
0,40,127,0
0,40,0,50
0,46,0,0
0,35,100,70
0,35,0,50
0,35,116,70
0,42,100,0
0,42,0,50
0,35,0,0
0,46,68,190
0,40,127,0
0,40,0,50
0,46,0,0
0,71,64,62
0,68,64,75
0,35,116,53
0,42,100,0
0,64,64,27
0,42,0,23
0,35,0,0
0,40,127,70
0,40,0,50
0,35,127,70
0,34,89,0
0,35,127,0
0,34,89,0
0,46,68,0
0,40,127,0
0,34,0,10
0,34,0,0
0,40,0,40
0,46,0,0
0,35,0,30
0,35,0,0
0,32,127,40
0,32,127,0
0,40,127,0
0,40,0,50
0,32,0,45
0,32,0,0
0,28,127,25
0,28,127,0
0,68,68,0
0,64,94,0
0,59,80,0
0,59,97,0
0,68,68,0
0,64,94,0
0,59,80,0
0,35,116,0
0,51,100,0
0,49,116,0
0,49,0,50
0,51,0,0
0,35,0,0
0,64,90,190
0,68,110,0
0,64,122,0
0,51,100,0
0,40,127,0
0,40,0,50
0,51,0,0
0,71,0,7
0,59,0,3
0,64,0,2
0,68,0,20
0,59,89,38
0,51,100,0
0,28,0,45
0,28,0,0
0,51,0,5
0,64,0,15
0,35,127,55
0,35,127,0
0,78,95,0
0,35,116,0
0,51,100,0
0,51,0,50
0,35,0,0
0,64,0,15
0,68,0,0
0,59,0,10
0,64,112,40
0,68,96,0
0,59,84,0
0,51,100,0
0,40,127,0
0,40,0,50
0,51,0,0
0,59,0,30
0,35,0,30
0,35,0,0
0,59,92,10
0,28,127,120
0,28,127,0
0,81,76,0
0,35,116,0
0,51,100,0
0,51,0,50
0,35,0,0
0,59,0,150
0,68,0,10
0,64,0,10
0,68,100,20
0,64,116,0
0,59,86,0
0,51,100,0
0,40,127,0
0,64,0,40
0,64,0,0
0,68,0,5
0,68,0,0
0,51,0,5
0,40,0,0
0,59,0,5
0,59,0,0
0,59,0,20
0,59,90,45
0,51,100,0
0,28,0,30
0,28,0,0
0,51,0,20
0,28,127,70
0,28,127,0
0,68,100,0
0,64,107,0
0,59,88,0
0,68,100,0
0,64,107,0
0,59,88,0
0,35,116,0
0,51,100,0
0,51,0,50
0,35,0,0
0,64,0,30
0,68,0,0
0,59,0,0
0,78,0,15
0,81,0,10
0,76,99,0
0,59,74,0
0,64,114,0
0,68,104,0
0,51,100,0
0,40,127,0
0,40,0,50
0,51,0,0
0,59,0,45
0,59,82,25
0,28,0,20
0,28,0,0
0,76,0,15
0,28,127,10
0,28,127,0
0,78,104,0
0,35,116,0
0,51,100,0
0,51,0,5
0,35,0,0
0,59,0,20
0,68,0,5
0,64,0,5
0,81,67,50
0,68,87,0
0,64,104,0
0,59,80,0
0,51,100,0
0,40,127,0
0,59,0,45
0,40,0,5
0,51,0,0
0,59,96,70
0,51,100,0
0,28,0,15
0,28,0,0
0,51,0,35
0,28,127,70
0,28,127,0
0,35,116,0
0,51,100,0
0,51,0,50
0,35,0,0
0,64,0,145
0,59,0,0
0,68,0,0
0,64,112,45
0,68,104,0
0,59,75,0
0,51,100,0
0,40,127,0
0,59,0,40
0,40,0,10
0,51,0,0
0,68,0,20
0,68,0,0
0,64,0,5
0,64,0,0
0,59,0,5
0,59,0,0
0,59,91,40
0,28,0,80
0,28,0,0
0,35,127,40
0,35,127,0
0,35,116,0
0,51,100,0
0,51,0,50
0,35,0,0
0,68,0,145
0,64,0,5
0,59,0,0
0,68,94,40
0,64,112,0
0,59,82,0
0,51,100,0
0,40,127,0
0,40,0,50
0,51,0,0
0,59,0,0
0,59,95,70
0,51,100,0
0,78,0,35
0,35,0,5
0,35,0,0
0,51,0,10
0,81,0,10
0,28,110,10
0,28,110,0
0,35,116,0
0,51,100,0
0,51,0,10
0,35,0,0
0,28,0,15
0,28,0,0
0,35,127,55
0,35,127,0
0,40,127,0
0,40,0,50
0,68,0,30
0,64,0,0
0,64,106,10
0,68,102,0
0,51,100,0
0,40,127,0
0,59,0,15
0,51,0,35
0,40,0,0
0,59,98,70
0,35,0,60
0,35,0,0
0,40,127,20
0,40,127,0
0,35,116,0
0,51,100,0
0,49,116,0
0,49,0,50
0,51,0,0
0,35,0,0
0,68,0,135
0,64,0,10
0,59,0,10
0,68,100,35
0,64,112,0
0,59,76,0
0,51,100,0
0,40,127,0
0,59,0,40
0,51,0,10
0,40,0,0
0,59,93,70
0,51,100,0
0,40,0,35
0,40,0,0
0,51,0,15
0,35,127,70
0,35,127,0
0,35,116,0
0,51,100,0
0,51,0,50
0,35,0,0
0,59,0,150
0,68,0,0
0,64,0,5
0,64,106,35
0,68,100,0
0,51,100,0
0,40,127,0
0,40,0,50
0,51,0,0
0,59,90,70
0,35,0,5
0,35,0,0
0,40,126,115
0,40,126,0
0,35,116,0
0,51,100,0
0,51,0,50
0,35,0,0
0,59,0,145
0,68,0,5
0,64,0,5
0,68,94,35
0,64,109,0
0,59,74,0
0,51,100,0
0,40,127,0
0,59,0,35
0,51,0,15
0,40,0,0
0,59,88,70
0,51,100,0
0,40,0,15
0,40,0,0
0,51,0,35
0,35,127,70
0,35,127,0
0,35,116,0
0,51,100,0
0,51,0,50
0,35,0,0
0,68,0,135
0,64,0,5
0,59,0,0
0,71,122,50
0,68,94,0
0,64,107,0
0,59,73,0
0,51,100,0
0,40,127,0
0,59,0,30
0,40,0,20
0,51,0,0
0,71,0,5
0,35,0,60
0,35,0,0
0,71,122,5
0,59,84,0
0,71,0,60
0,40,119,60
0,40,119,0
0,69,126,0
0,62,106,0
0,35,116,0
0,51,100,0
0,51,0,50
0,35,0,0
0,68,0,60
0,59,0,5
0,64,0,0
0,69,0,45
0,71,116,0
0,64,104,0
0,68,94,0
0,51,100,0
0,40,127,0
0,62,0,10
0,40,0,40
0,51,0,0
0,71,0,20
0,69,114,50
0,71,74,0
0,59,91,0
0,51,100,0
0,71,0,15
0,40,0,0
0,40,0,0
0,51,0,5
0,69,0,5
0,35,124,40
0,35,124,0
0,74,117,0
0,62,92,0
0,35,116,0
0,51,100,0
0,51,0,50
0,35,0,0
0,68,0,75
0,64,0,10
0,62,0,0
0,59,0,5
0,74,0,10
0,69,102,25
0,62,64,0
0,64,104,0
0,68,90,0
0,59,79,0
0,51,100,0
0,40,127,0
0,59,0,45
0,40,0,5
0,51,0,0
0,62,0,5
0,69,0,15
0,35,0,50
0,35,0,0
0,69,116,0
0,62,86,0
0,70,64,0
0,59,89,0
0,70,0,20
0,62,0,25
0,69,0,35
0,40,119,40
0,40,119,0
0,72,123,0
0,62,97,0
0,35,116,0
0,51,100,0
0,51,0,50
0,35,0,0
0,72,0,40
0,71,86,30
0,68,0,70
0,59,0,5
0,64,0,5
0,71,0,15
0,69,107,25
0,68,96,0
0,64,109,0
0,59,79,0
0,51,100,0
0,40,127,0
0,40,0,50
0,51,0,0
0,59,0,0
0,40,0,40
0,40,0,0
0,71,104,30
0,59,90,0
0,51,100,0
0,62,0,5
0,69,0,0
0,71,0,45
0,51,0,0
0,35,117,70
0,35,117,0
0,71,98,0
0,66,114,0
0,35,116,0
0,51,100,0
0,51,0,50
0,35,0,0
0,35,0,35
0,35,0,0
0,35,110,5
0,35,110,0
0,40,127,0
0,40,0,45
0,35,0,15
0,35,0,0
0,59,0,5
0,68,0,0
0,64,0,0
0,66,0,25
0,71,0,0
0,37,124,25
0,37,124,0
0,64,109,0
0,68,94,0
0,64,109,0
0,59,82,0
0,51,100,0
0,40,127,0
0,59,0,45
0,40,0,5
0,51,0,0
0,64,0,70
0,61,104,0
0,59,90,0
0,37,0,65
0,37,0,0
0,61,0,10
0,40,127,45
0,40,127,0
0,71,97,0
0,64,83,0
0,35,116,0
0,51,100,0
0,51,0,50
0,35,0,0
0,68,0,135
0,59,0,0
0,64,0,5
0,64,107,50
0,68,102,0
0,59,73,0
0,51,100,0
0,40,127,0
0,59,0,35
0,40,0,15
0,51,0,0
0,59,90,70
0,51,100,0
0,40,0,35
0,40,0,0
0,51,0,15
0,35,127,70
0,35,127,0
0,35,116,0
0,51,100,0
0,51,0,50
0,35,0,0
0,59,0,145
0,68,0,10
0,64,0,0
0,68,96,35
0,64,109,0
0,59,76,0
0,51,100,0
0,40,127,0
0,59,0,45
0,40,0,5
0,51,0,0
0,59,89,70
0,35,0,5
0,35,0,0
0,40,126,115
0,40,126,0
0,35,116,0
0,51,100,0
0,71,0,40
0,64,0,0
0,35,0,10
0,51,0,0
0,59,0,145
0,68,0,5
0,64,0,10
0,64,104,30
0,68,94,0
0,59,76,0
0,51,100,0
0,40,127,0
0,59,0,40
0,51,0,10
0,40,0,0
0,59,88,70
0,51,100,0
0,40,0,15
0,40,0,0
0,51,0,35
0,35,127,70
0,35,127,0
0,35,116,0
0,51,100,0
0,51,0,50
0,35,0,0
0,68,0,140
0,64,0,10
0,59,0,5
0,78,104,35
0,69,92,0
0,64,106,0
0,68,96,0
0,59,76,0
0,51,100,0
0,40,127,0
0,59,0,45
0,40,0,5
0,51,0,0
0,35,0,65
0,35,0,0
0,59,89,5
0,40,127,5
0,40,127,0
0,35,116,0
0,51,100,0
0,51,0,30
0,35,0,0
0,69,0,70
0,81,106,0
0,78,0,20
0,59,0,50
0,68,0,0
0,64,0,5
0,78,99,45
0,68,110,0
0,64,116,0
0,59,75,0
0,51,100,0
0,40,127,0
0,81,0,25
0,59,0,10
0,40,0,15
0,51,0,0
0,40,0,60
0,40,0,0
0,77,113,10
0,59,90,0
0,51,100,0
0,78,0,20
0,51,0,30
0,77,0,25
0,35,127,45
0,35,127,0
0,76,104,0
0,35,116,0
0,51,100,0
0,51,0,50
0,35,0,0
0,74,104,70
0,76,0,25
0,64,0,40
0,68,0,0
0,59,0,15
0,74,0,35
0,71,90,5
0,64,107,0
0,68,96,0
0,59,74,0
0,51,100,0
0,40,127,0
0,59,0,45
0,40,0,5
0,51,0,0
0,71,0,10
0,69,109,60
0,59,86,0
0,35,0,30
0,35,0,0
0,69,0,5
0,40,124,10
0,40,124,0
0,66,124,0
0,35,116,0
0,51,100,0
0,51,0,50
0,35,0,0
0,59,0,60
0,68,0,0
0,64,0,5
0,64,107,30
0,68,98,0
0,59,82,0
0,51,100,0
0,40,127,0
0,40,0,5
0,51,0,0
0,59,0,0
0,66,0,70
0,69,122,0
0,59,97,0
0,51,100,0
0,40,0,25
0,40,0,0
0,51,0,25
0,40,126,70
0,40,126,0
0,66,126,0
0,62,127,0
0,62,127,0
0,35,116,0
0,51,100,0
0,69,0,10
0,51,0,40
0,35,0,0
0,40,0,10
0,40,0,0
0,40,119,5
0,40,119,0
0,40,0,5
0,40,0,0
0,68,0,10
0,64,0,15
0,66,0,15
0,35,127,10
0,35,127,0
0,64,127,0
0,64,103,0
0,68,107,0
0,51,100,0
0,40,127,0
0,40,0,10
0,51,0,0
0,59,0,5
0,59,86,5
0,35,0,80
0,35,0,0
0,33,127,20
0,33,127,0
0,61,95,0
0,64,93,0
0,57,88,0
0,61,95,0
0,64,93,0
0,57,88,0
0,35,116,0
0,51,100,0
0,69,64,0
0,76,64,0
0,73,64,0
0,59,0,20
0,62,0,10
0,64,0,0
0,62,0,0
0,51,0,20
0,35,0,0
0,64,0,50
0,68,0,15
0,61,91,125
0,64,110,0
0,69,110,0
0,51,100,0
0,40,127,0
0,40,0,50
0,51,0,0
0,61,0,5
0,33,0,55
0,33,0,0
0,61,86,10
0,51,100,0
0,51,0,50
0,40,127,70
0,40,127,0
0,35,116,0
0,51,100,0
0,51,0,50
0,35,0,0
0,69,0,140
0,61,0,5
0,64,0,10
0,64,104,35
0,69,106,0
0,61,65,0
0,51,100,0
0,40,127,0
0,61,0,20
0,40,0,30
0,51,0,0
0,40,0,70
0,40,0,0
0,61,87,0
0,33,127,120
0,33,127,0
0,35,116,0
0,51,100,0
0,51,0,50
0,35,0,0
0,69,0,150
0,64,0,10
0,61,0,0
0,64,110,30
0,61,82,0
0,69,112,0
0,51,100,0
0,40,127,0
0,61,0,45
0,40,0,5
0,51,0,0
0,61,0,35
0,64,0,0
0,61,0,0
0,64,0,0
0,57,0,5
0,57,0,0
0,61,90,30
0,51,100,0
0,33,0,30
0,33,0,0
0,51,0,20
0,33,127,70
0,33,127,0
0,35,116,0
0,51,100,0
0,76,0,17
0,73,0,25
0,35,0,8
0,51,0,0
0,69,0,0
0,40,127,70
0,40,0,50
0,61,0,30
0,61,82,40
0,51,100,0
0,40,127,0
0,33,0,40
0,33,0,0
0,51,0,10
0,40,0,0
0,69,0,105
0,61,0,5
0,64,0,10
0,28,127,70
0,28,127,0
0,68,123,0
0,64,127,0
0,59,110,0
0,35,116,0
0,40,127,0
0,64,64,7
0,68,64,3
0,71,64,0
0,40,0,40
0,35,0,0
0,71,0,107
0,64,0,8
0,59,0,0
0,64,0,9
0,68,0,1
0,68,0,7
0,28,0,3
0,28,0,0
0,35,116,295
0,35,0,50
0,35,116,430
0,35,0,50
0,35,127,430
0,35,0,50
0,35,127,70
0,35,0,50
0,64,104,70
0,68,123,0
0,64,104,0
0,68,123,0
0,49,100,0
0,40,127,0
0,40,0,50
0,49,0,0
0,33,127,10
0,33,127,0
0,63,90,0
0,66,106,0
0,63,90,0
0,66,106,0
0,35,116,0
0,51,100,0
0,69,64,2
0,68,0,3
0,68,0,0
0,71,64,2
0,64,0,3
0,64,0,0
0,76,64,0
0,73,64,12
0,74,64,3
0,77,64,0
0,74,0,12
0,73,0,5
0,35,0,3
0,51,0,0
0,77,0,20
0,71,0,29
0,73,64,8
0,61,91,133
0,64,110,0
0,69,110,0
0,51,100,0
0,40,127,0
0,40,0,50
0,51,0,0
0,61,0,5
0,61,86,65
0,51,100,0
0,33,0,40
0,33,0,0
0,51,0,10
0,40,124,70
0,40,124,0
0,35,116,0
0,51,100,0
0,51,0,50
0,35,0,0
0,69,0,140
0,61,0,5
0,64,0,10
0,64,104,35
0,69,106,0
0,61,65,0
0,51,100,0
0,40,127,0
0,61,0,20
0,40,0,30
0,51,0,0
0,61,87,70
0,40,0,40
0,40,0,0
0,33,127,80
0,33,127,0
0,35,116,0
0,51,100,0
0,63,0,5
0,63,0,0
0,66,0,25
0,66,0,0
0,35,0,20
0,51,0,0
0,69,0,150
0,64,0,10
0,61,0,0
0,64,110,30
0,61,82,0
0,69,112,0
0,51,100,0
0,40,127,0
0,61,0,45
0,40,0,5
0,51,0,0
0,33,0,25
0,33,0,0
0,61,90,0
0,51,100,0
0,51,0,40
0,31,127,70
0,31,127,0
0,63,119,0
0,63,119,0
0,35,127,0
0,51,100,0
0,51,0,50
0,35,0,0
0,31,0,20
0,31,0,0
0,31,127,50
0,31,127,0
0,65,87,0
0,65,87,0
0,35,127,0
0,35,0,50
0,76,0,0
0,73,0,14
0,61,0,16
0,69,0,4
0,63,0,1
0,63,0,0
0,66,127,10
0,61,82,0
0,66,127,0
0,51,100,0
0,40,127,0
0,65,0,5
0,65,0,0
0,40,0,40
0,51,0,0
0,31,0,25
0,31,0,0
0,69,0,0
0,61,0,5
0,64,0,10
0,71,64,42
0,68,64,8
0,64,64,7
0,66,0,8
