track,note,velocity,time
0,42,16,0
0,42,0,10
0,42,16,86
0,42,0,10
0,59,122,86
0,47,122,0
0,47,0,46
0,59,0,1
0,46,122,1
0,58,122,0
0,46,0,43
0,58,0,2
0,44,122,3
0,56,122,0
0,44,0,41
0,56,0,1
0,54,122,6
0,42,122,0
0,42,0,37
0,54,0,5
0,61,62,6
0,66,62,0
0,70,62,0
0,42,108,0
0,49,122,0
0,54,102,0
0,61,102,0
0,58,102,0
0,30,92,0
0,55,57,0
0,36,112,0
0,42,80,0
0,42,122,0
0,54,122,0
0,55,0,6
0,36,0,4
0,42,0,0
0,49,0,26
0,49,122,12
0,54,122,0
0,42,32,0
0,42,0,10
0,61,0,19
0,49,0,6
0,54,0,1
0,58,0,1
0,54,0,3
0,56,122,8
0,49,122,0
0,66,102,0
0,61,102,0
0,42,80,0
0,37,80,0
0,42,0,5
0,37,0,5
0,42,0,0
0,49,0,22
0,30,0,4
0,56,0,1
0,61,0,3
0,66,0,2
0,49,122,6
0,58,122,0
0,54,102,0
0,58,102,0
0,61,102,0
0,30,92,0
0,36,96,0
0,42,32,0
0,42,0,10
0,36,0,0
0,42,0,7
0,54,0,4
0,70,0,12
0,61,0,0
0,58,0,3
0,49,0,2
0,61,0,2
0,30,0,0
0,58,0,1
0,54,0,4
0,61,62,1
0,68,62,0
0,65,62,0
0,37,100,2
0,49,122,0
0,56,122,0
0,61,102,0
0,56,102,0
0,53,102,0
0,37,92,0
0,36,112,0
0,42,80,0
0,66,0,2
0,42,0,8
0,36,0,0
0,42,32,38
0,42,0,10
0,61,0,24
0,56,0,1
0,49,0,1
0,53,0,6
0,44,76,6
0,49,116,0
0,61,102,0
0,65,102,0
0,42,80,0
0,37,80,0
0,37,0,10
0,42,0,0
0,46,48,38
0,44,0,6
0,46,0,4
0,37,0,8
0,49,0,5
0,61,0,3
0,61,0,3
0,68,0,8
0,65,0,3
0,65,0,0
0,66,62,0
0,63,62,1
0,59,62,1
0,37,0,5
0,56,0,0
0,35,100,1
0,51,122,0
0,51,102,0
0,54,102,0
0,59,102,0
0,35,92,0
0,36,112,0
0,42,80,0
0,42,0,1
0,36,0,0
0,51,0,1
0,51,64,9
0,54,122,0
0,42,32,0
0,42,0,6
0,59,0,19
0,51,0,5
0,54,0,5
0,54,0,1
0,51,0,2
0,35,0,6
0,51,122,0
0,59,122,0
0,63,102,0
0,59,102,0
0,42,80,0
0,37,80,0
0,37,0,10
0,42,0,0
0,35,0,9
0,51,0,0
0,59,0,2
0,59,0,1
0,63,0,2
0,51,94,8
0,58,122,0
0,54,102,0
0,51,102,0
0,59,102,0
0,35,92,0
0,36,96,0
0,42,32,0
0,42,0,10
0,36,0,0
0,51,0,1
0,59,0,1
0,58,0,0
0,59,0,8
0,54,0,2
0,35,0,3
0,66,0,1
0,65,62,2
0,63,0,1
0,51,0,0
0,68,62,0
0,61,62,1
0,58,122,3
0,53,102,0
0,56,102,0
0,61,102,0
0,37,92,0
0,36,112,0
0,42,80,0
0,42,0,10
0,36,0,0
0,59,122,2
0,58,0,8
0,58,100,4
0,59,0,9
0,58,0,10
0,56,122,5
0,42,32,0
0,42,0,1
0,61,0,17
0,56,0,11
0,53,0,1
0,37,68,1
0,65,102,0
0,61,102,0
0,42,80,0
0,37,80,0
0,37,0,9
0,37,0,1
0,42,0,0
0,37,0,1
0,37,88,5
0,70,97,0
0,65,97,0
0,25,92,0
0,46,48,0
0,46,0,10
0,68,0,17
0,61,0,7
0,65,0,6
0,65,0,1
0,66,62,0
0,70,62,0
0,25,0,3
0,37,0,0
0,42,122,4
0,66,97,0
0,54,102,0
0,61,102,0
0,58,102,0
0,30,92,0
0,36,112,0
0,42,80,0
0,42,0,10
0,36,0,0
0,65,0,0
0,56,0,1
0,54,122,3
0,49,122,0
0,42,32,0
0,42,0,10
0,42,0,11
0,61,0,12
0,49,0,2
0,58,0,1
0,54,0,5
0,54,0,3
0,49,122,4
0,56,122,0
0,66,102,0
0,61,102,0
0,42,80,0
0,37,80,0
0,37,0,10
0,42,0,0
0,49,0,1
0,66,0,2
0,61,0,0
0,30,0,2
0,56,0,3
0,49,108,1
0,58,122,0
0,54,102,0
0,61,102,0
0,58,102,0
0,30,92,0
0,36,96,0
0,42,32,0
0,42,0,10
0,36,0,0
0,70,0,3
0,58,0,1
0,61,0,2
0,49,0,0
0,61,0,2
0,30,0,5
0,58,0,2
0,54,0,1
0,68,62,1
0,65,62,1
0,61,62,1
0,66,0,1
0,37,100,0
0,56,122,0
0,49,122,0
0,65,97,0
0,61,102,0
0,56,102,0
0,53,102,0
0,37,92,0
0,36,112,0
0,42,80,0
0,66,0,2
0,42,0,3
0,36,0,0
0,42,32,38
0,42,0,10
0,49,0,17
0,56,0,7
0,61,0,1
0,53,0,10
0,61,102,3
0,65,102,0
0,42,80,0
0,37,80,0
0,37,0,10
0,42,0,0
0,37,0,36
0,46,48,2
0,46,0,10
0,61,0,9
0,56,0,9
0,61,0,2
0,68,0,3
0,65,0,6
0,66,62,1
0,63,62,0
0,70,0,1
0,37,0,0
0,65,0,1
0,59,62,0
0,65,0,5
0,35,108,1
0,59,122,0
0,51,122,0
0,68,97,0
0,63,97,0
0,51,102,0
0,59,102,0
0,54,102,0
0,35,92,0
0,36,112,0
0,42,80,0
0,42,0,10
0,36,0,0
0,51,0,23
0,59,0,3
0,58,122,12
0,42,32,0
0,42,0,10
0,59,0,21
0,54,0,3
0,58,0,2
0,35,0,5
0,51,0,1
0,56,122,6
0,58,122,0
0,63,102,0
0,59,102,0
0,42,80,0
0,37,80,0
0,37,0,10
0,42,0,0
0,58,0,10
0,59,0,11
0,35,0,6
0,63,0,2
0,56,0,6
0,54,122,3
0,54,102,0
0,59,102,0
0,51,102,0
0,35,92,0
0,36,96,0
0,42,32,0
0,42,0,10
0,36,0,0
0,63,0,16
0,59,0,2
0,51,0,1
0,59,0,0
0,54,0,0
0,35,0,9
0,54,0,5
0,65,62,1
0,61,62,3
0,56,62,1
0,56,122,0
0,37,94,0
0,65,97,0
0,56,102,0
0,53,102,0
0,61,102,0
0,37,92,0
0,36,112,0
0,42,80,0
0,66,0,1
0,63,0,1
0,42,0,1
0,36,0,0
0,42,32,37
0,42,0,10
0,53,0,15
0,56,0,8
0,61,0,1
0,37,0,9
0,49,116,5
0,53,102,0
0,56,102,0
0,61,102,0
0,32,92,0
0,42,80,0
0,37,80,0
0,37,0,10
0,42,0,0
0,65,0,16
0,68,0,1
0,32,0,5
0,63,97,5
0,25,92,0
0,46,48,0
0,46,0,10
0,37,0,2
0,56,0,14
0,61,0,5
0,56,0,2
0,49,0,1
0,61,0,1
0,65,0,1
0,53,0,0
0,25,0,1
0,56,0,0
0,66,62,1
0,61,62,3
0,58,62,0
0,42,100,2
0,49,122,0
0,54,102,0
0,61,102,0
0,58,102,0
0,30,92,0
0,55,57,0
0,36,112,0
0,42,80,0
0,55,0,6
0,42,0,1
0,36,0,0
0,54,116,35
0,42,32,0
0,49,0,8
0,42,0,2
0,61,0,16
0,58,0,9
0,54,0,7
0,54,0,0
0,42,0,3
0,58,122,3
0,61,102,0
0,66,102,0
0,42,80,0
0,37,80,0
0,37,0,10
0,42,0,0
0,30,0,21
0,66,0,9
0,61,0,1
0,54,102,7
0,61,102,0
0,58,102,0
0,30,92,0
0,36,96,0
0,42,32,0
0,42,0,10
0,36,0,0
0,61,0,20
0,58,0,4
0,58,0,1
0,58,0,1
0,61,0,1
0,54,0,3
0,66,0,1
0,65,62,0
0,68,62,1
0,30,0,2
0,61,62,0
0,49,116,4
0,61,102,0
0,56,102,0
0,53,102,0
0,37,92,0
0,36,112,0
0,42,80,0
0,42,0,10
0,36,0,0
0,53,122,38
0,42,32,0
0,49,0,8
0,42,0,2
0,63,0,23
0,61,0,5
0,56,0,1
0,56,122,9
0,61,102,0
0,65,102,0
0,42,80,0
0,37,80,0
0,53,0,6
0,53,0,0
0,42,0,4
0,37,0,0
0,56,0,38
0,61,88,0
0,46,48,0
0,46,0,10
0,61,0,14
0,61,0,9
0,65,0,6
0,66,62,0
0,68,0,1
0,63,62,0
0,37,0,1
0,65,0,0
0,59,62,0
0,61,0,7
0,47,122,0
0,54,122,0
0,51,102,0
0,59,102,0
0,54,102,0
0,35,92,0
0,36,112,0
0,42,80,0
0,42,0,10
0,36,0,0
0,42,32,38
0,42,0,10
0,59,0,22
0,54,0,4
0,54,0,4
0,51,0,5
0,59,122,3
0,59,102,0
0,63,102,0
0,42,80,0
0,37,80,0
0,47,0,4
0,37,0,6
0,42,0,0
0,35,0,1
0,63,0,1
0,59,0,0
0,47,82,1
0,54,116,0
0,51,102,0
0,54,102,0
0,59,102,0
0,35,92,0
0,36,96,0
0,42,32,0
0,59,0,1
0,36,0,9
0,42,0,0
0,59,0,15
0,54,0,9
0,59,0,1
0,47,0,1
0,54,0,4
0,63,0,0
0,35,0,1
0,51,0,1
0,65,62,2
0,68,62,1
0,61,62,2
0,66,0,1
0,49,88,0
0,56,100,0
0,61,102,0
0,56,102,0
0,53,102,0
0,37,92,0
0,36,112,0
0,42,80,0
0,42,0,10
0,36,0,0
0,42,32,38
0,42,0,10
0,61,0,19
0,56,0,4
0,56,0,9
0,53,0,2
0,49,0,2
0,61,122,2
0,61,102,0
0,65,102,0
0,42,80,0
0,37,80,0
0,37,0,10
0,42,0,0
0,46,48,38
0,61,0,8
0,46,0,2
0,61,0,23
0,65,0,1
0,68,0,1
0,37,0,0
0,61,62,1
0,65,0,1
0,58,62,0
0,66,62,1
0,42,100,10
0,58,102,0
0,61,102,0
0,54,102,0
0,30,92,0
0,36,112,0
0,42,80,0
0,42,0,10
0,36,0,0
0,61,0,8
0,49,24,30
0,42,32,0
0,49,0,8
0,42,0,2
0,42,0,2
0,61,0,20
0,58,0,3
0,54,0,5
0,54,122,8
0,61,116,0
0,66,102,0
0,61,102,0
0,42,80,0
0,37,80,0
0,61,0,2
0,37,0,8
0,42,0,0
0,54,0,6
0,56,122,8
0,30,0,13
0,61,0,0
0,66,0,0
0,56,0,1
0,58,122,10
0,58,102,0
0,61,102,0
0,54,102,0
0,30,92,0
0,36,96,0
0,42,32,0
0,42,0,10
0,36,0,0
0,58,0,4
0,61,0,8
0,61,122,2
0,58,0,6
0,58,0,3
0,61,0,2
0,54,0,3
0,68,62,0
0,65,62,1
0,30,0,1
0,61,62,0
0,66,0,2
0,61,0,2
0,61,122,4
0,58,122,0
0,56,122,0
0,59,122,0
0,61,102,0
0,56,102,0
0,53,102,0
0,37,92,0
0,36,112,0
0,42,80,0
0,59,0,2
0,56,0,1
0,36,0,7
0,42,0,0
0,58,0,36
0,61,0,2
0,56,122,0
0,42,32,0
0,42,0,10
0,61,0,28
0,56,0,3
0,61,102,7
0,65,102,0
0,42,80,0
0,37,80,0
0,53,0,1
0,37,0,9
0,42,0,0
0,46,48,38
0,46,0,10
0,61,0,5
0,56,0,9
0,61,0,1
0,37,0,10
0,65,0,5
0,65,0,1
0,66,62,0
0,63,62,2
0,59,62,0
0,68,0,5
0,54,122,0
0,56,122,0
0,51,102,0
0,59,102,0
0,54,102,0
0,35,92,0
0,36,112,0
0,42,80,0
0,54,0,8
0,42,0,2
0,36,0,0
0,56,0,30
0,54,122,8
0,42,32,0
0,42,0,10
0,59,0,24
0,54,0,2
0,51,0,8
0,59,102,4
0,63,102,0
0,42,80,0
0,37,80,0
0,37,0,10
0,42,0,0
0,54,0,22
0,59,0,3
0,63,0,2
0,35,0,1
0,47,122,10
0,51,102,0
0,59,102,0
0,54,102,0
0,35,92,0
0,36,96,0
0,42,32,0
0,42,0,10
0,36,0,0
0,63,0,16
0,59,0,2
0,54,0,3
0,35,0,3
0,59,0,0
0,47,0,1
0,51,0,4
0,61,62,8
0,56,62,1
0,51,122,0
0,53,122,0
0,54,122,0
0,61,102,0
0,53,102,0
0,56,102,0
0,37,92,0
0,36,112,0
0,42,80,0
0,53,0,7
0,36,0,3
0,42,0,0
0,51,0,32
0,54,0,1
0,49,122,5
0,53,122,0
0,42,32,0
0,42,0,10
0,61,0,22
0,56,0,3
0,56,0,1
0,61,0,0
0,37,0,5
0,65,62,1
0,61,62,2
0,53,0,1
0,56,62,0
0,66,0,2
0,59,97,1
0,61,102,0
0,65,102,0
0,25,92,0
0,42,80,0
0,37,80,0
0,37,0,10
0,42,0,0
0,59,0,13
0,58,97,1
0,25,0,15
0,56,97,9
0,32,92,0
0,46,48,0
0,58,0,2
0,46,0,8
0,56,0,15
0,53,0,3
0,61,0,6
0,61,0,0
0,65,0,6
0,66,62,1
0,65,0,1
0,32,0,0
0,61,62,1
0,58,62,1
0,56,0,3
0,42,108,1
0,54,122,0
0,58,97,0
0,54,102,0
0,61,102,0
0,58,102,0
0,30,92,0
0,36,112,0
0,42,80,0
0,49,0,1
0,42,0,9
0,36,0,0
0,42,32,38
0,42,0,10
0,61,0,24
0,42,0,1
0,58,0,3
0,54,0,3
0,54,0,3
0,49,122,4
0,66,102,0
0,61,102,0
0,42,80,0
0,37,80,0
0,37,0,10
0,42,0,0
0,30,0,22
0,61,0,6
0,66,0,2
0,58,0,8
0,58,102,0
0,61,102,0
0,54,102,0
0,30,92,0
0,36,96,0
0,42,32,0
0,42,0,10
0,36,0,0
0,61,0,22
0,58,0,2
0,58,0,1
0,61,0,1
0,49,0,2
0,54,0,2
0,65,62,5
0,61,62,0
0,68,62,0
0,30,0,2
0,37,6,1
0,61,102,0
0,56,102,0
0,53,102,0
0,37,92,0
0,36,112,0
0,42,80,0
0,66,0,2
0,42,0,8
0,36,0,0
0,37,0,29
0,44,38,9
0,42,32,0
0,42,0,10
0,44,0,4
0,61,0,23
0,56,0,1
0,61,122,10
0,61,102,0
0,65,102,0
0,42,80,0
0,37,80,0
0,53,0,1
0,37,0,9
0,42,0,0
0,46,48,38
0,46,0,10
0,61,0,14
0,61,0,7
0,37,0,5
0,61,0,1
0,68,0,1
0,65,0,2
0,63,62,0
0,66,62,0
0,59,62,0
0,65,0,1
0,59,116,7
0,35,64,0
0,51,102,0
0,59,102,0
0,54,102,0
0,35,92,0
0,36,112,0
0,42,80,0
0,42,0,10
0,36,0,0
0,51,38,38
0,42,32,0
0,35,0,6
0,51,0,3
0,42,0,1
0,59,0,21
0,54,0,1
0,59,0,0
0,51,0,11
0,59,108,5
0,54,122,0
0,63,102,0
0,59,102,0
0,42,80,0
0,37,80,0
0,37,0,10
0,42,0,0
0,59,0,24
0,63,0,3
0,35,0,0
0,54,0,9
0,51,122,2
0,51,102,0
0,54,102,0
0,59,102,0
0,35,92,0
0,36,96,0
0,42,32,0
0,42,0,10
0,36,0,0
0,59,0,22
0,59,0,0
0,54,0,2
0,51,0,1
0,51,0,1
0,66,0,6
0,35,0,2
0,59,0,0
0,68,62,0
0,65,62,0
0,63,0,3
0,61,62,0
0,37,94,1
0,49,122,0
0,61,102,0
0,53,102,0
0,56,102,0
0,37,92,0
0,36,112,0
0,42,80,0
0,42,0,10
0,36,0,0
0,42,32,38
0,42,0,10
0,49,0,23
0,61,0,2
0,56,0,2
0,53,0,5
0,49,108,6
0,56,122,0
0,61,102,0
0,65,102,0
0,42,80,0
0,37,80,0
0,37,0,10
0,42,0,0
0,46,48,38
0,46,0,10
0,37,0,2
0,49,0,6
0,61,0,6
0,61,0,9
0,68,0,5
0,65,0,0
0,37,0,1
0,65,0,1
0,61,62,3
0,66,62,0
0,58,62,1
0,42,116,4
0,54,102,0
0,61,102,0
0,58,102,0
0,30,92,0
0,36,112,0
0,42,80,0
0,56,0,3
0,42,0,7
0,36,0,0
0,42,32,38
0,42,0,10
0,61,0,26
0,42,0,3
0,58,0,1
0,54,0,8
0,54,122,0
0,61,102,0
0,66,102,0
0,42,80,0
0,37,80,0
0,37,0,10
0,42,0,0
0,54,0,9
0,56,122,5
0,61,0,12
0,66,0,0
0,56,0,4
0,30,0,1
0,58,122,7
0,54,102,0
0,61,102,0
