track,note,velocity,time
4,38,100,280
4,38,0,102
4,38,102,18
4,38,0,31
4,31,101,29
4,31,0,106
4,38,101,14
4,38,0,40
4,40,101,20
4,40,0,40
4,43,102,20
4,43,0,36
4,43,102,24
4,43,0,102
4,31,101,18
4,31,0,40
4,36,101,20
4,36,0,44
4,36,101,16
4,36,0,106
4,31,99,14
4,31,0,40
4,36,99,20
4,36,0,38
4,36,99,22
4,36,0,158
4,31,99,22
4,31,0,95
4,38,99,25
4,38,0,40
4,40,99,20
4,40,0,40
4,43,99,20
4,43,0,42
4,43,99,18
4,43,0,112
4,31,99,8
4,31,0,40
4,38,99,20
4,38,0,44
4,38,99,16
4,38,0,104
4,33,98,16
4,33,0,52
4,38,98,8
4,38,0,38
4,38,98,22
4,38,0,139
4,31,101,41
4,31,0,106
4,38,101,14
4,38,0,40
4,40,101,20
4,40,0,40
4,43,102,20
4,43,0,36
4,43,102,24
4,43,0,102
4,31,101,18
4,31,0,40
4,36,101,20
4,36,0,44
4,36,101,16
4,36,0,106
4,31,99,14
4,31,0,40
4,36,99,20
4,36,0,38
4,36,99,22
4,36,0,158
4,31,99,22
4,31,0,95
4,38,99,25
4,38,0,40
4,40,99,20
4,40,0,40
4,43,99,20
4,43,0,42
4,43,99,18
4,43,0,112
4,31,99,8
4,31,0,40
4,38,99,20
4,38,0,44
4,38,99,16
4,38,0,104
4,38,98,16
4,38,0,40
4,31,98,20
4,31,0,40
4,40,98,20
4,40,0,40
4,38,98,20
4,38,0,40
4,40,98,20
4,40,0,40
4,43,96,20
4,43,0,143
4,38,96,37
4,38,0,40
4,43,96,20
4,43,0,40
4,43,96,20
4,43,0,132
4,36,99,48
4,36,0,135
4,31,99,45
4,31,0,51
4,36,99,9
4,36,0,35
4,36,99,25
4,36,0,135
4,43,99,45
4,43,0,155
4,38,99,25
4,38,0,40
4,43,99,20
4,43,0,40
4,43,99,20
4,43,0,150
4,38,99,30
4,38,0,134
4,38,99,46
4,38,0,40
4,31,99,20
4,31,0,32
4,31,99,28
4,31,0,40
4,38,99,20
4,38,0,94
4,43,99,26
4,43,0,143
4,38,99,37
4,38,0,40
4,43,99,20
4,43,0,40
4,43,99,20
4,43,0,132
4,36,99,48
4,36,0,135
4,31,99,45
4,31,0,51
4,36,99,9
4,36,0,35
4,36,99,25
4,36,0,135
4,43,99,45
4,43,0,155
4,38,99,25
4,38,0,40
4,43,99,20
4,43,0,40
4,43,99,20
4,43,0,150
4,38,99,30
4,38,0,134
4,38,99,46
4,38,0,40
4,31,99,20
4,31,0,32
4,31,99,28
4,31,0,40
4,38,99,20
4,38,0,94
4,31,101,26
4,31,0,106
4,38,101,14
4,38,0,40
4,40,101,20
4,40,0,40
4,43,102,20
4,43,0,36
4,43,102,24
4,43,0,106
4,33,101,14
4,33,0,40
4,36,101,20
4,36,0,44
4,36,101,16
4,36,0,105
4,36,99,15
4,36,0,40
4,31,99,20
4,31,0,38
4,31,99,22
4,31,0,170
4,36,101,10
4,36,0,44
4,36,101,16
4,36,0,105
4,36,99,15
4,36,0,40
4,31,99,20
4,31,0,38
4,31,99,22
4,31,0,170
4,38,99,10
4,38,0,134
4,38,99,46
4,38,0,40
4,31,99,20
4,31,0,32
4,31,99,28
4,31,0,40
4,38,99,20
4,38,0,94
4,31,101,26
4,31,0,106
4,38,101,14
4,38,0,40
4,40,101,20
4,40,0,40
4,43,102,20
4,43,0,36
4,43,102,24
4,43,0,106
4,33,101,14
4,33,0,40
4,36,101,20
4,36,0,44
4,36,101,16
4,36,0,105
4,36,99,15
4,36,0,40
4,31,99,20
4,31,0,38
4,31,99,22
4,31,0,170
4,36,101,10
4,36,0,44
4,36,101,16
4,36,0,105
4,36,99,15
4,36,0,40
4,31,99,20
4,31,0,38
4,31,99,22
4,31,0,170
4,38,99,10
4,38,0,134
4,38,99,46
4,38,0,40
4,31,99,20
4,31,0,32
4,31,99,28
4,31,0,40
4,38,99,20
4,38,0,94
4,31,101,26
4,31,0,106
4,38,101,14
4,38,0,40
4,40,101,20
4,40,0,40
4,43,102,20
4,43,0,36
4,43,102,24
4,43,0,102
4,31,101,18
4,31,0,40
4,36,101,20
4,36,0,44
4,36,101,16
4,36,0,106
4,31,99,14
4,31,0,40
4,36,99,20
4,36,0,38
4,36,99,22
4,36,0,158
4,31,99,22
4,31,0,95
4,38,99,25
4,38,0,40
4,40,99,20
4,40,0,40
4,43,99,20
4,43,0,42
4,43,99,18
4,43,0,112
4,31,99,8
4,31,0,40
4,38,99,20
4,38,0,44
4,38,99,16
4,38,0,104
4,33,98,16
4,33,0,52
4,38,98,8
4,38,0,38
4,38,98,22
4,38,0,139
4,31,101,41
4,31,0,106
4,38,101,14
4,38,0,40
4,40,101,20
4,40,0,40
4,43,102,20
4,43,0,36
4,43,102,24
4,43,0,102
4,31,101,18
4,31,0,40
4,36,101,20
4,36,0,44
4,36,101,16
4,36,0,106
4,31,99,14
4,31,0,40
4,36,99,20
4,36,0,38
4,36,99,22
4,36,0,158
4,31,99,22
4,31,0,95
4,38,99,25
4,38,0,40
4,40,99,20
4,40,0,40
4,43,99,20
4,43,0,42
4,43,99,18
4,43,0,112
4,31,99,8
4,31,0,40
4,38,99,20
4,38,0,44
4,38,99,16
4,38,0,104
4,38,98,16
4,38,0,40
4,31,98,20
4,31,0,40
4,40,98,20
4,40,0,40
4,38,98,20
4,38,0,40
4,40,98,20
4,40,0,40
4,43,96,20
4,43,0,143
4,38,96,37
4,38,0,40
4,43,96,20
4,43,0,40
4,43,96,20
4,43,0,132
4,36,99,48
4,36,0,135
4,31,99,45
4,31,0,51
4,36,99,9
4,36,0,35
4,36,99,25
4,36,0,135
4,43,99,45
4,43,0,155
4,38,99,25
4,38,0,40
4,43,99,20
4,43,0,40
4,43,99,20
4,43,0,150
4,38,99,30
4,38,0,134
4,38,99,46
4,38,0,40
4,31,99,20
4,31,0,32
4,31,99,28
4,31,0,40
4,38,99,20
4,38,0,94
4,43,99,26
4,43,0,143
4,38,99,37
4,38,0,40
4,43,99,20
4,43,0,40
4,43,99,20
4,43,0,132
4,36,99,48
4,36,0,135
4,31,99,45
4,31,0,51
4,36,99,9
4,36,0,35
4,36,99,25
4,36,0,135
4,43,99,45
4,43,0,155
4,38,99,25
4,38,0,40
4,43,99,20
4,43,0,40
4,43,99,20
4,43,0,150
4,38,99,30
4,38,0,134
4,38,99,46
4,38,0,40
4,31,99,20
4,31,0,32
4,31,99,28
4,31,0,40
4,38,99,20
4,38,0,94
4,31,101,26
4,31,0,106
4,38,101,14
4,38,0,40
4,40,101,20
4,40,0,40
4,43,102,20
4,43,0,36
4,43,102,24
4,43,0,106
4,33,101,14
4,33,0,40
4,36,101,20
4,36,0,44
4,36,101,16
4,36,0,105
4,36,99,15
4,36,0,40
4,31,99,20
4,31,0,38
4,31,99,22
4,31,0,170
4,36,101,10
4,36,0,44
4,36,101,16
4,36,0,105
4,36,99,15
4,36,0,40
4,31,99,20
4,31,0,38
4,31,99,22
4,31,0,170
4,38,99,10
4,38,0,134
4,38,99,46
4,38,0,40
4,31,99,20
4,31,0,32
4,31,99,28
4,31,0,40
4,38,99,20
4,38,0,94
4,31,101,26
4,31,0,106
4,38,101,14
4,38,0,40
4,40,101,20
4,40,0,40
4,43,102,20
4,43,0,36
4,43,102,24
4,43,0,106
4,33,101,14
4,33,0,40
4,36,101,20
4,36,0,44
4,36,101,16
4,36,0,105
4,36,99,15
4,36,0,40
4,31,99,20
4,31,0,38
4,31,99,22
4,31,0,170
4,36,101,10
4,36,0,44
4,36,101,16
4,36,0,105
4,36,99,15
4,36,0,40
4,31,99,20
4,31,0,38
4,31,99,22
4,31,0,170
4,38,99,10
4,38,0,134
4,38,99,46
4,38,0,40
4,31,99,20
4,31,0,32
4,31,99,28
4,31,0,40
4,38,99,20
4,38,0,94
4,31,101,26
4,31,0,106
4,38,101,14
4,38,0,40
4,40,101,20
4,40,0,40
4,43,102,20
4,43,0,36
4,43,102,24
4,43,0,102
4,31,101,18
4,31,0,40
4,36,101,20
4,36,0,44
4,36,101,16
4,36,0,106
4,31,99,14
4,31,0,40
4,36,99,20
4,36,0,38
4,36,99,22
4,36,0,158
4,31,99,22
4,31,0,95
4,38,99,25
4,38,0,40
4,40,99,20
4,40,0,40
4,43,99,20
4,43,0,42
4,43,99,18
4,43,0,112
4,31,99,8
4,31,0,40
4,38,99,20
4,38,0,44
4,38,99,16
4,38,0,104
4,33,98,16
4,33,0,52
4,38,98,8
4,38,0,38
4,38,98,22
4,38,0,139
4,31,101,41
4,31,0,106
4,38,101,14
4,38,0,40
4,40,101,20
4,40,0,40
4,43,102,20
4,43,0,36
4,43,102,24
4,43,0,102
4,31,101,18
4,31,0,40
4,36,101,20
4,36,0,44
4,36,101,16
4,36,0,106
4,31,99,14
4,31,0,40
4,36,99,20
4,36,0,38
4,36,99,22
4,36,0,158
4,31,99,22
4,31,0,95
4,38,99,25
4,38,0,40
4,40,99,20
4,40,0,40
4,43,99,20
4,43,0,42
4,43,99,18
4,43,0,112
4,31,99,8
4,31,0,40
4,38,99,20
4,38,0,44
4,38,99,16
4,38,0,104
4,38,98,16
4,38,0,40
4,31,98,20
4,31,0,40
4,40,98,20
4,40,0,40
4,38,98,20
4,38,0,40
4,40,98,20
4,40,0,40
4,43,96,20
4,43,0,143
4,38,96,37
4,38,0,40
4,43,96,20
4,43,0,40
4,43,96,20
4,43,0,132
4,36,99,48
4,36,0,135
4,31,99,45
4,31,0,51
4,36,99,9
4,36,0,35
4,36,99,25
4,36,0,135
4,43,99,45
4,43,0,155
4,38,99,25
4,38,0,40
4,43,99,20
4,43,0,40
4,43,99,20
4,43,0,150
4,38,99,30
4,38,0,134
4,38,99,46
4,38,0,40
4,31,99,20
4,31,0,32
4,31,99,28
4,31,0,40
4,38,99,20
4,38,0,94
4,43,99,26
4,43,0,143
4,38,99,37
4,38,0,40
4,43,99,20
4,43,0,40
4,43,99,20
4,43,0,132
4,36,99,48
4,36,0,135
4,31,99,45
4,31,0,51
4,36,99,9
4,36,0,35
4,36,99,25
4,36,0,135
4,43,99,45
4,43,0,155
4,38,99,25
4,38,0,40
4,43,99,20
4,43,0,40
4,43,99,20
4,43,0,150
4,38,99,30
4,38,0,134
4,38,99,46
4,38,0,40
4,31,99,20
4,31,0,32
4,31,99,28
4,31,0,40
4,38,99,20
4,38,0,94
4,31,101,26
4,31,0,106
4,38,101,14
4,38,0,40
4,40,101,20
4,40,0,40
4,43,102,20
4,43,0,36
4,43,102,24
4,43,0,106
4,33,101,14
4,33,0,40
4,36,101,20
4,36,0,44
4,36,101,16
4,36,0,105
4,36,99,15
4,36,0,40
4,31,99,20
4,31,0,38
4,31,99,22
4,31,0,170
4,36,101,10
4,36,0,44
4,36,101,16
4,36,0,105
4,36,99,15
4,36,0,40
4,31,99,20
4,31,0,38
4,31,99,22
4,31,0,170
4,38,99,10
4,38,0,134
4,38,99,46
4,38,0,40
4,31,99,20
4,31,0,32
4,31,99,28
4,31,0,40
4,38,99,20
4,38,0,94
4,31,101,26
4,31,0,106
4,38,101,14
4,38,0,40
4,40,101,20
4,40,0,40
4,43,102,20
4,43,0,36
4,43,102,24
4,43,0,106
4,33,101,14
4,33,0,40
4,36,101,20
4,36,0,44
4,36,101,16
4,36,0,105
4,36,99,15
4,36,0,40
4,31,99,20
4,31,0,38
4,31,99,22
4,31,0,170
4,36,101,10
4,36,0,44
4,36,101,16
4,36,0,105
4,36,99,15
4,36,0,40
4,31,99,20
4,31,0,38
4,31,99,22
4,31,0,170
4,38,99,10
4,38,0,134
4,38,99,46
4,38,0,40
4,31,99,20
4,31,0,32
4,31,99,28
4,31,0,40
4,38,99,20
4,38,0,94
4,31,101,26
4,31,0,106
4,38,101,14
4,38,0,40
4,40,101,20
4,40,0,40
4,43,102,20
4,43,0,36
4,43,102,24
4,43,0,106
4,33,101,14
4,33,0,40
4,36,101,20
4,36,0,44
4,36,101,16
4,36,0,105
4,36,99,15
4,36,0,40
4,31,99,20
4,31,0,38
4,31,99,22
4,31,0,170
4,36,101,10
4,36,0,44
4,36,101,16
4,36,0,105
4,36,99,15
4,36,0,40
4,31,99,20
4,31,0,38
4,31,99,22
4,31,0,170
4,38,99,10
4,38,0,134
4,38,99,46
4,38,0,40
4,31,99,20
4,31,0,32
4,31,99,28
4,31,0,40
4,38,99,20
4,38,0,94
4,31,101,26
4,31,0,106
4,38,101,14
4,38,0,40
4,40,101,20
4,40,0,40
4,43,102,20
4,43,0,36
4,43,102,24
4,43,0,106
4,33,101,14
4,33,0,40
4,36,101,20
4,36,0,44
4,36,101,16
4,36,0,105
4,36,99,15
4,36,0,40
4,31,99,20
4,31,0,38
4,31,99,22
4,31,0,170
4,36,101,10
4,36,0,44
4,36,101,16
4,36,0,105
4,36,99,15
4,36,0,40
4,31,99,20
4,31,0,38
4,31,99,22
4,31,0,170
4,38,99,10
4,38,0,134
4,38,99,46
4,38,0,40
4,31,99,20
4,31,0,32
4,31,99,28
4,31,0,40
4,38,99,20
4,38,0,94
4,31,101,26
4,31,0,106
4,38,101,14
4,38,0,40
4,40,101,20
4,40,0,40
4,43,102,20
4,43,0,36
4,43,102,24
4,43,0,102
4,31,101,18
4,31,0,40
4,36,101,20
4,36,0,44
4,36,101,16
4,36,0,106
4,31,99,14
4,31,0,40
4,36,99,20
4,36,0,38
4,36,99,22
4,36,0,158
4,31,99,22
4,31,0,95
4,38,99,25
4,38,0,40
4,40,99,20
4,40,0,40
4,43,99,20
4,43,0,42
4,43,99,18
4,43,0,112
4,31,99,8
4,31,0,40
4,38,99,20
4,38,0,44
4,38,99,16
4,38,0,104
4,33,98,16
4,33,0,52
4,38,98,8
4,38,0,38
4,38,98,22
4,38,0,139
4,31,101,41
4,31,0,106
4,38,101,14
4,38,0,40
4,40,101,20
4,40,0,40
4,43,102,20
4,43,0,36
4,43,102,24
4,43,0,102
4,31,101,18
4,31,0,40
4,36,101,20
4,36,0,44
4,36,101,16
4,36,0,106
4,31,99,14
4,31,0,40
4,36,99,20
4,36,0,38
4,36,99,22
4,36,0,158
4,31,99,22
4,31,0,95
4,38,99,25
4,38,0,40
4,40,99,20
4,40,0,40
4,43,99,20
4,43,0,42
4,43,99,18
4,43,0,112
4,31,99,8
4,31,0,40
4,38,99,20
4,38,0,44
4,38,99,16
4,38,0,104
4,38,98,16
4,38,0,40
4,31,98,20
4,31,0,1200
5,55,102,460
5,64,110,0
5,62,102,60
5,64,0,1
5,62,0,60
5,59,105,59
5,59,0,87
5,59,102,33
5,55,0,54
5,57,105,6
5,59,0,43
5,57,0,13
5,55,98,4
5,55,0,60
5,52,105,0
5,48,95,0
5,55,94,60
5,55,0,29
5,57,102,31
5,55,113,60
5,57,0,8
5,52,0,242
5,48,0,1
5,55,0,0
5,64,126,49
5,62,98,60
5,64,0,8
5,62,0,85
5,59,102,27
5,59,0,94
5,59,105,26
5,57,99,60
5,59,0,1
5,57,0,49
5,55,95,10
5,55,0,43
5,67,110,17
5,64,99,0
5,64,0,51
5,67,0,5
5,57,95,4
5,64,98,60
5,67,110,0
5,67,0,49
5,64,0,7
5,66,113,4
5,62,98,0
5,62,0,243
5,57,0,1
5,66,0,8
5,55,99,48
5,64,110,0
5,62,107,60
5,64,0,6
5,62,0,44
5,59,110,70
5,59,0,62
5,59,113,58
5,55,0,58
5,57,105,2
5,59,0,16
5,55,110,14
5,57,0,3
5,52,105,27
5,55,0,3
5,52,0,57
5,48,111,0
5,52,99,60
5,57,110,60
5,55,113,60
5,57,0,6
5,48,0,190
5,52,0,10
5,55,0,4
5,81,98,90
5,74,107,0
5,81,0,60
5,79,91,0
5,79,0,36
5,79,99,24
5,76,99,60
5,74,0,10
5,79,0,20
5,76,0,6
5,71,94,24
5,76,102,0
5,74,95,60
5,76,0,30
5,74,0,3
5,71,0,27
5,67,98,0
5,74,89,0
5,71,91,60
5,74,0,30
