track,note,velocity,time
1,38,88,1144
1,57,81,384
1,62,77,12
1,62,86,216
1,58,76,8
1,58,81,476
1,62,73,8
1,58,74,16
1,62,72,12
1,38,84,0
1,57,73,392
1,62,81,8
1,62,85,176
1,58,70,8
1,58,78,452
1,62,81,4
1,58,83,28
1,62,64,16
1,38,83,0
1,57,62,364
1,62,83,16
1,62,85,144
1,58,82,8
1,58,83,452
1,62,80,12
1,58,83,4
1,62,77,12
1,38,85,12
1,57,73,384
1,62,80,4
1,38,85,32
1,57,80,384
1,62,79,12
1,38,63,8
1,47,86,36
1,55,70,360
1,47,73,44
1,50,74,372
1,48,82,12
1,60,74,376
1,48,68,64
1,52,65,168
1,55,76,168
1,47,74,72
1,62,82,376
1,55,81,20
1,57,70,24
1,38,83,8
1,57,79,376
1,62,78,8
1,62,86,216
1,58,79,8
1,58,85,444
1,62,83,8
1,38,85,20
1,57,76,340
1,62,79,12
1,62,85,188
1,58,77,8
1,58,84,456
1,62,81,12
1,62,85,352
1,47,78,1164
1,55,74,76
1,47,77,48
1,50,70,376
1,48,87,188
1,60,81,360
1,48,74,60
1,52,79,376
1,55,75,200
1,47,80,36
1,62,81,572
1,47,76,48
1,55,83,24
1,50,71,192
1,57,74,56
1,38,84,0
1,62,85,224
1,58,67,8
1,58,84,380
1,62,85,8
1,38,92,20
1,62,85,20
1,38,53,0
1,57,77,400
1,50,72,392
1,38,88,596
1,47,70,1536
1,62,85,156
1,55,63,16
1,47,71,32
1,50,74,372
1,48,81,36
1,60,78,384
1,48,83,40
1,52,78,48
1,50,71,32
1,47,86,44
1,62,83,768
1,55,76,192
1,50,73,188
1,38,89,28
1,62,86,280
1,58,74,8
1,58,81,436
1,62,86,8
1,38,85,12
1,57,74,388
1,62,81,12
1,62,85,156
1,58,78,8
1,58,84,452
1,62,85,8
1,62,83,12
1,38,87,96
1,57,56,388
1,62,76,28
1,47,84,52
1,55,79,160
1,47,75,72
1,55,82,28
1,50,74,180
1,48,77,8
1,60,85,380
1,48,81,44
1,52,79,376
1,55,74,28
1,47,75,36
1,50,81,120
1,55,78,4
1,62,70,4
1,55,79,32
1,45,89,12
1,47,87,108
1,50,81,100
1,38,91,20
1,57,77,380
1,62,81,196
1,62,85,80
1,58,80,4
1,58,61,444
1,62,85,8
1,38,88,192
1,50,71,200
1,62,84,184
1,57,61,12
1,57,72,200
1,50,74,20
1,62,83,4
1,57,76,60
1,50,72,16
1,55,74,116
1,62,86,376
1,53,76,40
1,58,74,200
1,62,84,4
1,55,81,32
1,62,85,36
1,53,85,88
1,55,76,8
1,62,85,44
1,60,79,192
1,62,85,44
1,60,87,32
1,58,62,4
1,55,82,16
1,38,87,44
1,62,83,392
1,57,67,8
1,50,71,372
1,57,76,44
1,50,71,24
1,55,71,68
1,62,86,368
1,53,81,68
1,58,79,200
1,62,85,36
1,55,78,40
1,62,85,56
1,53,84,60
1,55,71,0
1,62,85,204
1,60,68,200
1,48,89,196
1,55,81,96
1,48,82,68
1,55,78,20
1,38,92,72
1,62,85,516
1,58,76,4
1,58,85,456
1,62,87,4
1,57,85,480
1,62,84,8
1,50,78,28
1,62,85,108
1,58,77,4
1,58,82,472
1,62,39,0
1,60,83,16
1,62,85,4
1,58,85,8
1,62,84,12
1,38,85,96
1,62,82,208
1,57,71,196
1,50,83,312
1,57,76,16
1,62,78,12
1,38,90,4
1,57,79,0
1,47,79,776
1,55,79,196
1,50,71,200
1,60,83,188
1,48,81,32
1,55,80,16
1,52,75,28
1,47,83,64
1,50,76,368
1,47,71,100
1,55,72,4
1,50,73,28
1,62,84,32
1,38,91,60
1,38,71,16
1,62,81,240
1,58,84,0
1,58,84,460
1,62,85,8
1,57,82,368
1,62,84,4
1,62,83,312
1,58,76,0
1,58,83,440
1,62,85,4
1,62,84,20
1,57,84,0
1,64,56,8
1,62,82,0
1,38,73,196
1,47,88,56
1,55,79,968
1,50,76,196
1,60,88,184
1,48,87,20
1,47,84,52
1,50,81,388
1,47,65,28
1,50,83,24
1,47,76,8
1,50,80,24
1,38,92,12
1,57,84,372
1,62,85,4
1,62,84,116
1,58,83,8
1,58,84,460
1,62,85,12
1,38,89,20
1,50,77,380
1,38,86,28
1,50,39,28
1,50,77,20
1,64,92,180
1,62,87,56
1,57,78,52
1,50,77,188
1,62,87,44
1,38,83,196
1,57,74,28
1,55,84,64
1,62,85,140
1,53,78,84
1,58,69,200
1,62,76,32
1,55,79,76
1,62,79,60
1,53,79,44
1,55,60,200
1,62,84,56
1,60,81,192
1,62,84,32
1,58,75,76
1,55,81,4
1,55,71,32
1,38,86,360
1,50,79,156
1,62,85,204
1,50,70,28
1,57,76,208
1,50,74,4
1,57,76,52
1,55,76,96
1,62,87,376
1,53,65,48
1,58,80,184
1,62,82,24
1,55,80,56
1,62,83,48
1,53,84,52
1,55,65,200
1,62,85,28
1,60,78,196
1,48,83,28
1,55,79,368
1,48,74,52
1,55,78,44
1,38,86,28
1,50,78,392
1,38,73,4
1,50,79,56
1,55,72,68
1,62,87,204
1,53,77,36
1,58,77,196
1,62,85,12
1,55,76,40
1,62,84,60
1,53,83,80
1,55,71,192
1,62,88,32
1,60,77,204
1,62,85,40
1,58,80,388
1,55,78,32
1,55,78,16
1,38,89,8
1,50,81,148
1,62,88,192
1,57,68,8
1,50,76,16
1,57,76,200
1,50,75,8
1,57,76,60
1,55,77,100
1,62,86,376
1,53,76,56
1,58,80,180
1,62,84,28
1,55,78,64
1,62,77,68
1,53,84,24
1,55,67,204
1,62,86,60
1,60,84,204
1,48,81,84
1,62,88,368
1,60,89,40
1,38,90,72
1,57,85,392
1,64,68,0
1,62,85,0
1,62,85,128
1,58,82,4
1,58,84,468
1,62,85,8
1,38,89,4
1,62,85,136
1,58,79,8
1,58,85,456
1,62,84,8
1,64,89,272
1,62,84,188
1,57,65,196
1,50,80,184
1,38,79,216
1,57,79,216
1,62,68,4
1,62,82,28
1,58,79,24
1,62,84,32
1,64,85,24
1,58,77,44
1,62,70,60
1,64,82,4
1,58,67,56
1,62,85,60
1,38,86,136
1,64,85,32
1,62,68,32
1,57,72,68
1,64,83,48
1,62,76,56
1,57,69,64
1,64,82,48
1,58,71,64
1,62,81,72
1,64,82,32
1,58,74,72
1,62,78,56
1,64,84,8
1,58,73,56
1,62,83,44
1,38,101,4
1,38,75,80
1,57,87,3304
1,62,75,4
1,62,80,128
1,55,90,0
1,67,80,20
1,62,73,408
1,57,77,4
1,55,85,260
1,62,73,4
1,64,102,28
1,65,90,16
1,67,73,56
1,62,80,16
1,57,102,20
1,57,85,4
1,62,73,0
1,62,77,4
1,55,65,240
1,57,77,4
1,62,73,0
1,57,80,0
1,62,73,4
1,57,85,0
1,62,73,4
1,57,71,184
1,62,60,4
1,69,105,8
1,57,83,56
1,62,75,4
1,74,85,132
1,62,77,24
1,57,90,0
1,69,113,4
1,62,69,32
1,57,53,12
1,74,97,152
1,67,60,240
1,62,71,156
1,55,67,8
1,62,71,272
1,57,75,4
1,57,75,248
1,62,63,0
1,65,102,4
1,62,69,32
1,57,80,4
1,67,71,144
1,64,63,208
1,62,67,4
1,69,63,544
1,62,73,4
1,57,77,4
1,62,73,8
1,57,85,4
1,62,73,0
1,69,69,12
1,62,48,4
1,69,51,120
1,62,62,60
1,69,31,32
1,64,57,4
1,69,60,204
1,64,62,8
1,69,41,200
1,64,60,176
1,69,50,140
1,65,35,200
1,69,58,20
1,65,51,8
1,69,62,24
1,64,62,12
1,69,58,192
1,62,50,4
1,69,54,196
1,62,80,168
1,69,57,16
1,64,27,180
1,69,65,8
1,64,54,12
1,69,62,20
1,65,37,12
1,69,65,8
1,67,62,212
1,69,57,16
1,65,42,8
1,69,60,20
1,64,60,24
1,69,65,4
1,62,57,24
1,69,51,8
1,64,40,184
1,69,60,184
1,65,35,192
1,69,65,12
1,67,39,24
1,69,57,28
1,57,87,0
1,62,75,4
1,65,43,12
1,69,54,8
1,64,57,20
1,69,62,192
1,55,90,0
1,62,83,4
1,62,65,4
1,69,29,84
1,64,63,116
1,69,60,8
1,65,39,184
1,69,65,12
1,67,60,196
1,69,69,20
1,65,48,176
1,69,57,8
1,64,62,24
1,69,67,8
1,62,63,180
1,69,63,184
1,64,36,12
1,69,45,12
1,65,28,12
1,69,53,8
1,67,40,20
1,69,57,36
1,65,47,20
1,69,51,16
1,64,58,16
1,69,62,188
1,62,60,8
1,69,51,192
1,64,60,188
1,69,65,196
1,65,47,180
1,69,57,180
1,64,48,8
1,69,41,0
1,62,60,8
1,69,60,188
1,64,51,8
1,69,45,188
1,65,42,184
1,69,58,4
1,64,54,12
1,69,60,172
1,62,69,176
1,69,62,136
1,64,48,4
1,69,54,24
1,65,37,40
1,69,58,0
1,64,34,4
1,69,47,8
1,62,32,8
1,69,54,8
1,64,43,148
1,69,41,0
1,65,33,8
1,69,26,32
1,64,41,28
1,69,32,4
1,62,45,12
1,69,26,36
1,64,32,16
1,69,28,8
1,65,19,20
1,69,39,32
2,38,98,1116
2,33,99,160
2,35,93,0
2,38,101,24
2,33,97,228
2,35,92,24
2,38,96,0
2,38,99,24
2,38,98,16
2,38,98,24
2,33,97,112
2,35,87,4
2,38,99,8
2,38,95,8
2,38,96,24
2,38,97,8
2,33,97,136
2,35,92,8
2,38,99,32
2,38,100,20
2,31,99,120
2,31,97,44
2,38,105,40
2,37,97,24
2,36,100,32
2,36,98,4
2,35,102,140
2,33,94,8
2,31,98,16
2,31,96,28
2,40,104,80
2,39,93,28
2,38,102,40
2,38,100,16
2,38,99,4
2,38,100,16
2,33,100,124
2,35,96,40
2,38,100,28
2,38,97,20
2,38,101,32
2,38,99,28
2,33,100,128
2,35,78,16
2,38,102,8
2,38,100,4
2,31,98,160
2,31,99,24
2,38,100,88
2,37,95,28
2,36,104,40
2,36,100,40
2,35,103,52
2,33,101,0
2,31,100,32
2,31,101,20
2,40,103,92
2,39,98,24
2,38,102,32
2,38,102,12
2,38,103,20
2,38,101,28
2,33,98,156
2,35,94,44
2,38,101,24
2,38,100,16
2,38,99,24
2,38,101,12
2,33,99,128
2,35,93,0
2,38,99,52
2,38,102,8
2,31,98,96
2,31,102,56
2,38,104,36
2,37,98,24
2,36,102,48
2,36,103,20
2,35,101,40
2,33,92,4
2,31,97,44
2,31,98,44
2,40,102,164
2,39,97,32
2,38,103,40
2,38,102,68
2,38,103,32
2,38,103,44
2,33,99,88
2,35,98,32
2,38,94,12
2,38,102,36
2,38,101,32
2,38,103,24
2,33,101,116
2,35,92,24
2,38,104,28
2,38,102,216
2,42,100,4
2,40,102,20
2,33,104,60
2,31,103,40
2,31,99,48
2,38,102,96
2,37,98,12
2,36,106,16
2,36,103,32
2,35,100,132
2,33,101,24
2,31,97,8
2,31,103,44
2,40,104,36
2,39,102,20
2,38,103,44
2,38,104,20
2,38,105,28
2,38,104,16
2,33,104,4
2,35,95,12
2,38,105,32
2,38,105,24
2,38,106,16
2,38,102,20
2,45,100,0
2,34,102,0
2,34,101,4
2,45,98,0
2,35,102,0
2,35,101,28
2,45,100,0
2,36,101,0
2,36,104,92
2,35,100,4
2,36,104,48
2,37,102,32
2,38,107,32
2,38,102,28
2,33,99,40
2,38,105,16
2,34,106,8
2,34,100,24
2,45,98,48
2,35,102,0
2,35,100,20
2,45,98,0
2,36,102,80
2,36,104,44
2,35,101,0
2,36,106,28
2,37,102,36
2,38,106,40
2,38,106,4
2,38,109,32
2,38,107,20
2,33,105,88
2,35,94,16
2,38,107,32
2,38,102,20
2,38,105,20
2,38,104,20
2,33,103,84
2,35,98,24
2,38,105,44
2,38,105,20
2,38,103,16
2,38,105,72
2,41,102,32
2,40,100,64
2,38,104,48
2,36,104,64
2,35,105,12
2,33,101,44
2,31,101,40
2,38,107,140
2,31,102,276
2,31,101,4
2,38,105,52
2,37,102,28
2,36,105,40
2,36,103,20
2,35,103,60
2,33,99,36
2,31,102,40
2,31,100,56
2,31,102,12
2,40,108,136
2,39,99,32
2,38,104,60
2,38,99,4
2,38,103,24
2,38,103,8
2,33,100,100
2,35,97,24
2,38,94,48
2,38,108,4
2,38,102,8
2,38,101,28
2,33,104,100
2,35,98,12
2,38,104,28
2,38,104,8
2,31,100,132
2,31,99,20
2,38,105,80
2,37,101,24
2,36,104,32
2,36,105,48
2,35,103,12
2,33,103,32
2,31,104,28
2,31,104,16
2,40,102,84
2,39,100,28
2,38,102,48
2,38,103,20
2,38,102,16
2,38,101,8
2,33,102,84
2,35,101,28
2,38,105,24
2,38,104,28
2,38,102,16
2,38,103,8
2,45,102,0
2,34,100,0
2,34,94,16
2,45,97,0
2,35,102,0
2,35,96,12
2,45,97,0
2,36,103,100
2,36,97,24
2,35,96,32
2,36,105,28
2,37,103,44
2,38,104,28
2,38,104,32
2,33,101,32
2,38,102,24
2,34,105,96
2,34,97,28
2,45,100,32
2,35,103,24
2,35,96,4
2,45,94,0
2,36,105,136
2,36,103,20
2,35,100,32
2,36,105,20
2,37,103,0
2,38,105,20
2,38,106,24
2,38,105,32
2,33,97,16
2,38,107,16
2,36,104,24
2,34,105,76
2,34,104,20
2,45,102,116
2,35,105,16
2,35,105,4
2,45,98,56
2,36,108,72
2,36,106,8
2,35,101,28
2,36,102,40
2,37,100,24
2,38,104,36
2,38,102,56
2,38,104,80
2,38,102,20
2,34,106,56
2,34,103,4
2,45,101,84
2,35,102,0
2,35,99,8
2,45,95,0
2,36,104,76
2,36,105,24
2,35,102,16
2,36,104,48
2,37,103,32
2,38,103,24
2,38,97,8
2,38,102,48
2,38,103,24
2,33,104,68
2,35,100,12
2,38,103,32
2,38,101,28
2,38,101,28
2,38,104,12
2,33,103,64
2,35,101,12
2,38,99,60
2,38,105,4
2,38,105,56
2,38,104,20
2,33,103,48
2,35,95,12
2,38,107,4
2,38,104,16
2,38,105,20
2,38,103,20
2,33,102,60
2,35,98,20
2,38,106,36
2,37,88,72
2,38,98,0
2,37,102,44
2,38,108,8
2,38,102,12
2,50,87,0
2,38,99,48
2,36,92,32
2,38,100,48
2,38,101,124
2,45,88,12
2,50,95,0
2,50,100,168
2,38,106,44
2,33,103,164
2,35,98,0
2,38,103,36
2,38,105,168
2,50,96,0
2,33,102,8
2,33,104,188
2,38,105,168
2,38,101,8
2,52,97,184
2,53,97,28
2,52,97,12
2,50,98,16
2,33,100,160
2,35,96,0
2,38,103,12
2,38,98,344
2,38,103,12
2,52,97,88
2,53,97,12
2,52,98,4
2,50,97,12
2,33,94,116
2,35,91,12
2,38,103,24
2,38,98,384
2,38,103,12
2,52,97,88
2,53,97,12
2,52,98,4
2,50,97,12
2,33,94,116
2,35,91,12
2,38,103,24
2,38,98,384
2,38,103,12
2,52,97,88
2,53,97,12
2,52,98,4
2,50,97,12
2,33,94,116
2,35,91,12
2,38,103,24
2,38,98,384
2,38,103,12
2,52,97,88
2,53,97,12
2,52,98,4
2,50,97,12
2,33,94,116
2,35,91,12
2,38,103,24
2,38,98,384
2,38,103,12
2,52,97,88
2,53,97,12
2,52,98,4
2,50,97,12
2,33,94,116
2,35,91,12
2,38,103,24
2,38,98,384
2,38,103,12
2,52,97,88
2,53,97,12
2,52,98,4
2,50,97,12
2,33,94,116
2,35,91,12
2,38,103,24
2,38,98,384
2,38,103,12
2,52,97,88
2,53,97,12
2,52,98,4
2,50,97,12
2,33,94,116
2,35,91,12
2,38,103,24
2,38,98,384
2,38,103,12
2,52,97,88
2,53,97,12
2,52,98,4
2,50,97,12
2,33,94,116
2,35,91,12
2,38,103,24
2,38,98,384
2,38,103,12
2,52,97,48
2,53,97,12
2,52,98,4
2,50,97,12
2,33,94,96
2,35,91,12
2,38,103,24
2,38,98,4
2,38,103,12
2,52,97,32
2,53,97,12
2,52,98,4
2,50,97,12
2,33,94,116
2,35,91,12
2,38,103,24
2,38,98,12
3,50,75,1100
3,57,64,400
3,62,59,4
3,62,53,4
3,50,77,4
3,57,48,4
3,50,55,4
3,50,39,4
3,58,73,16
