track,note,velocity,time
0,40,52,673
0,40,0,24
0,40,62,8
0,40,0,23
0,40,70,9
0,40,0,23
0,40,123,9
0,40,0,36
0,45,120,59
0,45,0,36
0,41,95,59
0,29,122,1
0,35,120,1
0,64,114,1
0,57,117,0
0,72,122,1
0,35,0,34
0,57,100,153
0,60,94,0
0,52,112,0
0,57,104,3
0,40,122,0
0,42,114,1
0,40,0,35
0,57,0,0
0,42,0,1
0,29,0,1
0,41,0,2
0,29,127,55
0,42,54,1
0,35,120,0
0,41,94,0
0,57,0,26
0,60,0,0
0,52,0,8
0,35,0,1
0,42,0,0
0,29,0,3
0,41,0,5
0,29,127,52
0,42,114,1
0,35,120,0
0,41,102,1
0,42,0,15
0,35,0,20
0,42,58,11
0,42,0,17
0,70,94,32
0,42,54,0
0,42,0,36
0,70,0,3
0,42,114,21
0,40,122,0
0,60,94,1
0,52,108,0
0,57,100,0
0,41,0,27
0,40,0,8
0,42,0,0
0,29,0,14
0,29,127,45
0,42,54,1
0,41,88,0
0,57,0,1
0,72,0,5
0,64,0,0
0,42,0,6
0,60,0,26
0,57,0,0
0,52,0,0
0,41,0,5
0,42,66,5
0,42,0,12
0,71,122,32
0,62,117,1
0,55,122,1
0,31,127,1
0,42,114,1
0,35,120,0
0,43,102,1
0,29,0,4
0,70,74,12
0,70,0,39
0,41,95,8
0,42,54,1
0,82,64,0
0,43,0,6
0,42,0,30
0,82,0,11
0,69,54,1
0,69,0,23
0,42,114,25
0,40,122,0
0,59,90,0
0,55,92,0
0,50,108,0
0,40,0,35
0,42,0,0
0,31,0,7
0,55,0,24
0,59,0,8
0,50,0,4
0,31,127,17
0,41,0,0
0,42,54,1
0,35,120,0
0,35,0,36
0,42,0,0
0,31,0,4
0,43,106,0
0,62,101,0
0,31,127,0
0,42,114,1
0,35,120,0
0,59,91,1
0,50,106,0
0,55,98,0
0,42,58,11
0,42,0,16
0,70,94,32
0,42,54,0
0,42,0,36
0,70,0,4
0,59,92,56
0,42,114,0
0,40,122,0
0,62,0,1
0,40,0,34
0,42,0,0
0,31,0,21
0,59,0,30
0,55,95,7
0,31,122,2
0,42,54,1
0,42,0,12
0,43,0,31
0,42,66,4
0,42,0,13
0,59,0,16
0,50,0,0
0,55,0,0
0,29,127,0
0,41,94,0
0,55,0,0
0,62,0,0
0,71,0,0
0,42,114,1
0,35,120,0
0,64,114,0
0,57,117,0
0,72,122,1
0,69,127,3
0,70,74,12
0,42,54,9
0,82,64,0
0,69,54,1
0,53,102,19
0,57,94,0
0,48,100,0
0,42,114,2
0,40,122,0
0,41,94,3
0,29,127,1
0,42,54,1
0,35,120,0
0,29,127,1
0,42,114,1
0,35,120,0
0,41,97,0
0,42,58,1
0,70,94,21
0,42,54,0
0,36,127,4
0,42,114,1
0,40,122,0
0,53,110,0
0,48,112,0
0,57,106,0
0,41,76,18
0,36,0,1
0,29,127,1
0,42,54,1
0,57,0,1
0,42,66,20
0,43,97,9
0,71,122,0
0,62,117,1
0,55,122,1
0,31,127,1
0,42,114,1
0,35,120,0
0,70,74,12
0,41,100,5
0,42,54,3
0,82,64,0
0,69,54,1
0,42,114,5
0,40,122,0
0,55,94,1
0,50,102,0
0,59,87,0
0,31,127,41
0,42,54,1
0,35,120,0
0,35,0,36
0,42,0,0
0,31,0,11
0,31,127,48
0,59,97,0
0,55,104,0
0,50,114,0
0,43,112,0
0,42,114,1
0,35,120,0
0,62,127,6
0,42,0,10
0,35,0,19
0,42,58,13
0,42,0,16
0,31,0,10
0,31,127,21
0,70,94,1
0,42,54,0
0,42,114,56
0,40,122,0
0,31,127,40
0,42,54,1
0,60,119,6
0,42,0,6
0,62,0,1
0,50,0,33
0,42,66,1
0,59,0,3
0,55,0,0
0,42,0,10
0,43,0,18
0,41,91,14
0,31,0,3
0,29,122,0
0,55,0,0
0,62,0,0
0,71,0,0
0,42,114,1
0,35,120,0
0,64,114,1
0,57,117,0
0,72,122,1
0,60,0,2
0,57,122,2
0,35,0,29
0,42,0,1
0,70,74,12
0,70,0,39
0,42,54,9
0,82,64,0
0,42,0,36
0,82,0,11
0,69,54,1
0,69,0,23
0,42,114,25
0,40,122,0
0,60,97,1
0,52,108,0
0,57,102,0
0,40,0,34
0,42,0,0
0,29,0,3
0,41,0,5
0,29,127,1
0,60,0,0
0,52,0,0
0,57,0,0
0,42,54,1
0,35,120,0
0,41,92,0
0,29,127,15
0,42,114,1
0,35,120,0
0,41,100,0
0,42,58,13
0,70,94,29
0,42,54,0
0,42,0,36
0,70,0,4
0,60,97,19
0,52,112,0
0,57,106,0
0,42,114,2
0,40,122,0
0,41,97,43
0,29,127,2
0,42,54,1
0,57,0,1
0,72,0,5
0,64,0,0
0,42,0,6
0,60,0,7
0,57,0,0
0,52,0,0
0,42,66,28
0,42,0,13
0,71,122,32
0,62,117,1
0,43,100,1
0,55,122,0
0,31,127,1
0,42,114,1
0,35,120,0
0,29,0,5
0,70,74,12
0,42,54,5
0,82,64,0
0,69,54,1
0,59,85,11
0,55,100,0
0,50,108,0
0,42,114,2
0,40,122,0
0,40,0,35
0,42,0,0
0,43,0,2
0,31,0,5
0,50,0,10
0,55,0,0
0,59,0,8
0,31,127,35
0,43,84,0
0,42,54,1
0,35,120,0
0,43,0,34
0,35,0,2
0,42,0,0
0,31,0,4
0,43,100,6
0,62,93,0
0,31,127,1
0,42,114,1
0,35,120,0
0,55,106,0
0,50,110,0
0,59,92,0
0,57,127,6
0,42,58,13
0,42,0,16
0,70,94,3
0,42,54,0
0,42,114,56
0,40,122,0
0,59,91,1
0,55,101,4
0,43,87,0
0,31,122,1
0,42,54,1
0,55,122,6
0,42,0,6
0,57,0,4
0,42,66,31
0,59,0,8
0,42,0,5
0,55,0,3
0,50,0,0
0,31,0,32
0,29,122,0
0,41,95,0
0,55,0,0
0,62,0,0
0,71,0,0
0,42,114,1
0,35,120,0
0,64,114,1
0,57,117,0
0,72,122,1
0,52,127,0
0,70,74,12
0,70,0,39
0,42,54,9
0,82,64,0
0,42,0,36
0,82,0,11
0,69,54,1
0,69,0,23
0,57,92,23
0,48,108,0
0,53,106,0
0,42,114,2
0,40,122,0
0,41,0,34
0,40,0,1
0,42,0,0
0,29,0,3
0,29,127,3
0,42,54,1
0,35,120,0
0,41,85,1
0,29,127,11
0,42,114,1
0,35,120,0
0,41,95,0
0,42,0,16
0,35,0,19
0,42,58,13
0,42,0,16
0,70,94,32
0,42,54,0
0,42,0,36
0,70,0,4
0,42,114,6
0,40,122,0
0,57,102,1
0,48,110,0
0,53,110,0
0,40,0,34
0,42,0,0
0,41,0,7
0,29,0,8
0,29,127,45
0,41,88,0
0,42,54,1
0,57,0,1
0,72,0,5
0,64,0,0
0,57,0,1
0,48,0,0
0,42,0,5
0,53,0,2
0,42,66,33
0,42,0,13
0,41,0,13
0,71,122,2
0,62,117,1
0,43,94,1
0,55,122,0
0,31,127,1
0,42,114,1
0,35,120,0
0,70,74,4
0,42,54,9
0,82,64,0
0,69,54,1
0,69,0,23
0,59,90,23
0,50,102,0
0,42,114,2
0,40,122,0
0,55,95,0
0,40,0,35
0,42,0,0
0,31,0,7
0,43,0,6
0,55,0,2
0,50,0,10
0,59,0,0
0,31,127,35
0,42,54,1
0,35,120,0
0,43,90,1
0,35,0,35
0,42,0,0
0,43,0,0
0,31,0,4
0,31,127,55
0,50,108,0
0,59,104,0
0,43,102,0
0,42,114,1
0,35,120,0
0,55,104,1
0,42,0,15
0,35,0,19
0,42,58,13
0,42,0,16
0,70,94,32
0,42,54,0
0,42,0,36
0,70,0,4
0,42,114,56
0,40,122,0
0,40,0,35
0,42,0,0
0,43,0,2
0,31,0,19
0,31,122,39
0,42,54,1
0,43,104,1
0,42,0,11
0,42,66,35
0,50,0,0
0,59,0,0
0,55,0,2
0,42,0,11
0,31,0,35
0,29,122,0
0,55,0,0
0,62,0,0
0,71,0,0
0,42,114,1
0,35,120,0
0,41,95,0
0,64,114,1
0,57,117,0
0,72,122,1
0,43,0,12
0,35,0,21
0,42,0,1
0,70,74,12
0,70,0,39
0,42,54,9
0,82,64,0
0,42,0,36
0,82,0,11
0,69,54,1
0,57,107,0
0,42,114,1
0,40,122,0
0,60,98,0
0,57,104,0
0,52,112,0
0,29,127,1
0,42,54,1
0,35,120,0
0,41,80,0
0,35,0,36
0,42,0,0
0,41,0,0
0,29,0,2
0,29,127,57
0,42,114,1
0,35,120,0
0,41,95,0
0,60,99,0
0,42,0,14
0,57,0,4
0,35,0,15
0,42,58,13
0,42,0,16
0,70,94,32
0,42,54,0
0,62,87,0
0,60,0,1
0,42,0,34
0,70,0,4
0,60,97,17
0,57,106,0
0,52,112,0
0,42,114,4
0,40,122,0
0,62,0,8
0,41,0,23
0,40,0,4
0,42,0,0
0,29,0,15
0,41,88,42
0,62,109,0
0,29,127,1
0,42,54,1
0,57,0,1
0,72,0,5
0,64,0,0
0,42,0,6
0,60,0,9
0,52,0,0
0,57,0,0
0,42,66,26
0,42,0,13
0,71,122,32
0,62,117,1
0,55,122,1
0,31,127,1
0,43,102,0
0,42,114,1
0,35,120,0
0,29,0,5
0,70,74,12
0,70,0,39
0,42,54,9
0,82,64,0
0,69,54,1
0,62,0,19
0,69,0,4
0,42,114,25
0,40,122,0
0,59,90,0
0,55,98,0
0,50,112,0
0,62,88,0
0,40,0,34
0,42,0,0
0,43,0,2
0,31,0,5
0,55,0,13
0,59,0,7
0,50,0,0
0,62,0,30
0,60,93,0
0,31,127,0
0,42,54,1
0,35,120,0
0,43,92,1
0,43,0,32
0,35,0,3
0,42,0,0
0,31,0,4
0,31,127,55
0,42,114,1
0,35,120,0
0,50,110,0
0,59,100,0
0,55,106,0
0,43,110,1
0,42,0,15
0,35,0,19
0,42,58,13
0,42,0,16
0,57,66,0
0,60,0,1
0,70,94,1
0,42,54,0
0,42,0,36
0,70,0,4
0,60,96,0
0,57,0,1
0,42,114,2
0,40,122,0
0,40,0,35
0,42,0,0
0,31,0,21
0,31,122,39
0,42,54,1
0,42,0,12
0,43,0,29
0,42,66,6
0,42,0,13
0,50,0,31
0,59,0,0
0,55,0,0
0,60,0,2
0,41,90,0
0,31,0,2
0,29,122,0
0,55,0,0
0,62,0,0
0,71,0,0
0,42,114,1
0,35,120,0
0,64,114,1
0,57,117,0
0,72,122,1
0,35,0,33
0,42,0,1
0,70,74,12
0,70,0,39
0,42,54,9
0,82,64,0
0,42,0,36
0,82,0,11
0,69,54,1
0,69,0,23
0,57,95,0
0,42,114,3
0,40,122,0
0,57,97,0
0,53,106,0
0,48,106,0
0,41,0,24
0,40,0,11
0,42,0,0
0,29,0,3
0,41,92,55
0,60,86,0
0,29,127,1
0,42,54,1
0,35,120,0
0,57,0,3
0,53,0,3
0,48,0,3
0,57,0,0
0,35,0,27
0,42,0,0
0,29,0,2
0,41,0,6
0,29,127,51
0,42,114,1
0,35,120,0
0,41,97,1
0,42,0,15
0,35,0,19
0,42,58,13
0,42,0,16
0,60,0,24
0,57,79,0
0,70,94,4
0,42,54,0
0,42,0,36
0,70,0,4
0,60,96,0
0,42,114,4
0,40,122,0
0,48,110,0
0,53,108,0
0,57,94,0
0,41,0,16
0,40,0,19
0,42,0,0
0,29,0,15
0,48,0,16
0,53,0,4
0,57,0,4
0,41,92,0
0,29,127,1
0,42,54,1
0,42,66,33
0,42,0,13
0,71,122,32
0,62,117,1
0,55,122,1
0,31,127,1
0,42,114,1
0,35,120,0
0,43,102,0
0,29,0,5
0,70,74,12
0,42,54,2
0,82,64,0
0,69,54,0
0,57,95,0
0,55,94,3
0,59,87,0
0,50,102,0
0,42,114,2
0,40,122,0
0,43,0,23
0,40,0,12
0,42,0,0
0,31,0,7
0,55,0,27
0,59,0,0
0,50,0,0
0,43,102,25
0,31,127,1
0,42,54,1
0,35,120,0
0,43,0,33
0,35,0,3
0,42,0,0
0,31,0,4
0,31,127,55
0,42,114,1
0,35,120,0
0,59,98,0
0,55,102,0
0,50,114,0
0,43,106,0
0,57,127,2
0,42,0,14
0,35,0,19
0,42,58,13
0,42,0,16
0,70,94,1
0,42,54,0
0,42,114,3
0,40,122,0
0,31,122,39
0,42,54,1
0,55,122,2
0,42,0,10
0,57,0,0
0,50,0,20
0,59,0,0
0,55,0,4
0,42,66,11
0,42,0,13
0,41,95,34
0,31,0,1
0,29,122,0
0,55,0,0
0,62,0,0
0,71,0,0
0,42,114,1
0,35,120,0
0,64,114,1
0,57,117,0
0,52,127,1
0,72,122,0
0,55,0,3
0,43,0,5
0,35,0,25
0,42,0,1
0,70,74,12
0,70,0,39
0,42,54,9
0,82,64,0
0,42,0,36
0,82,0,11
0,69,54,1
0,69,0,23
0,57,109,0
0,60,92,1
0,57,98,0
0,52,112,0
0,42,114,2
0,40,122,0
0,41,0,17
0,40,0,18
0,42,0,0
0,29,0,3
0,41,91,1
0,29,127,1
0,60,0,0
0,57,0,0
0,42,54,1
0,35,120,0
0,29,127,15
0,60,103,0
0,42,114,0
0,35,120,0
0,41,98,0
0,57,0,12
0,42,0,4
0,35,0,19
0,42,58,13
0,42,0,16
0,62,92,0
0,70,94,0
0,42,54,0
0,60,0,12
0,42,0,24
0,70,0,4
0,42,114,10
0,40,122,0
0,52,108,0
0,57,102,0
0,60,100,0
0,40,0,35
0,42,0,0
0,41,0,3
0,29,0,12
0,62,0,2
0,57,0,38
0,62,107,0
0,60,0,1
0,29,127,1
0,42,54,1
0,41,100,1
0,57,0,0
0,52,0,1
0,72,0,4
0,64,0,0
0,42,0,6
0,42,66,35
0,42,0,13
0,71,122,0
0,62,117,1
0,55,122,0
0,29,0,1
0,31,122,0
0,42,114,1
0,35,120,0
0,43,100,2
0,70,74,3
0,42,54,4
0,82,64,0
0,69,54,1
0,69,0,23
0,62,0,13
0,60,87,0
0,42,114,0
0,40,122,0
0,50,98,2
0,59,80,0
0,55,87,0
0,43,0,15
0,40,0,18
0,42,0,0
0,31,0,8
0,55,0,10
0,59,0,0
0,50,0,8
0,60,0,3
0,60,101,0
0,31,116,1
0,42,54,1
0,35,120,0
0,43,100,0
0,31,0,34
0,43,0,1
0,35,0,1
0,42,0,0
0,55,104,58
0,59,104,0
0,50,112,0
0,43,102,0
0,31,119,1
0,42,114,1
0,35,120,0
0,42,0,16
0,35,0,19
0,42,58,13
0,42,0,16
0,62,79,0
0,70,94,3
0,42,54,0
0,60,0,8
0,42,0,28
0,70,0,4
0,62,0,51
0,55,105,0
0,38,122,1
0,42,114,1
0,40,122,0
0,31,0,2
0,40,0,33
0,42,0,0
0,31,127,4
0,42,54,0
0,38,0,1
0,42,66,35
0,42,0,13
0,59,0,9
0,55,0,4
0,50,0,4
0,31,0,16
0,41,98,1
0,29,127,1
0,55,0,0
0,62,0,0
0,71,0,0
0,42,114,1
0,35,120,0
0,64,114,1
0,57,117,0
0,72,122,1
0,43,0,10
0,35,0,23
0,42,0,1
0,70,74,12
0,70,0,39
0,42,54,9
0,82,64,0
0,42,0,36
0,82,0,11
0,69,54,1
0,69,0,23
0,42,114,5
0,40,122,0
0,57,97,1
0,53,106,0
0,48,112,0
0,41,0,20
0,40,0,14
0,42,0,0
0,29,0,5
0,41,88,54
0,29,122,1
0,42,54,1
0,35,120,0
0,57,0,19
0,48,0,0
0,53,0,0
0,29,0,16
0,35,0,1
0,42,0,0
0,41,0,5
0,29,127,54
0,42,114,1
0,35,120,0
0,41,95,2
0,42,0,14
0,35,0,19
0,42,58,13
0,42,0,16
0,50,127,26
0,70,94,6
0,42,54,0
0,42,0,36
0,70,0,4
0,57,94,3
0,48,108,0
0,53,108,0
0,36,127,2
0,42,114,1
0,40,122,0
0,41,0,5
0,41,90,0
0,29,127,2
0,55,127,0
0,42,54,1
0,57,0,1
0,57,0,2
0,48,0,0
0,72,0,3
0,64,0,0
0,53,0,1
0,42,0,5
0,42,66,35
0,42,0,13
0,29,0,30
0,71,122,2
0,43,104,1
0,62,117,0
0,55,122,1
