track,note,velocity,time
1,72,122,4204
1,72,0,280
1,71,117,22
1,71,0,66
1,69,122,52
1,69,0,204
1,67,112,27
1,67,0,205
1,67,107,36
1,67,0,86
1,72,102,935
1,72,0,259
1,71,117,29
1,71,0,55
1,69,107,73
1,69,0,198
1,67,107,33
1,67,0,212
1,67,112,35
1,67,0,78
1,67,112,895
1,67,0,52
1,69,122,11
1,69,0,97
1,69,112,22
1,69,0,35
1,69,107,17
1,69,0,45
1,67,112,19
1,67,0,110
1,62,107,13
1,62,0,44
1,64,122,15
1,64,0,105
1,67,122,13
1,67,0,72
1,60,122,160
1,60,0,32
1,60,122,29
1,60,0,32
1,60,107,27
1,60,0,39
1,69,122,21
1,69,0,162
1,69,117,18
1,69,0,41
1,71,122,21
1,71,0,44
1,71,107,19
1,71,0,40
1,71,112,21
1,71,0,46
1,72,122,15
1,72,0,278
1,72,117,491
1,72,0,56
1,71,122,20
1,71,0,69
1,71,117,37
1,71,0,98
1,72,117,14
1,72,0,101
1,69,122,455
1,69,0,37
1,69,112,20
1,69,0,42
1,71,122,18
1,71,0,37
1,71,112,26
1,71,0,34
1,71,112,25
1,71,0,34
1,72,117,22
1,72,0,154
1,69,112,511
1,69,0,38
1,69,102,17
1,69,0,45
1,71,122,18
1,71,0,91
1,71,112,28
1,71,0,36
1,71,112,24
1,71,0,100
1,72,112,14
1,72,0,44
1,72,122,24
1,72,0,83
1,69,117,400
1,69,0,42
1,69,107,18
1,69,0,36
1,71,122,21
1,71,0,84
1,71,117,28
1,71,0,33
1,72,122,22
1,72,0,989
1,72,122,50
1,72,0,290
1,71,122,21
1,71,0,65
1,69,122,56
1,69,0,202
1,67,117,28
1,67,0,203
1,67,112,27
1,67,0,83
1,72,117,945
1,72,0,286
1,71,122,23
1,71,0,70
1,69,117,47
1,69,0,192
1,67,117,30
1,67,0,208
1,67,112,39
1,67,0,98
1,72,117,6687
1,72,0,276
1,71,122,23
1,71,0,62
1,69,107,57
1,69,0,214
1,67,112,20
1,67,0,212
1,67,122,29
1,67,0,107
1,72,122,908
1,72,0,286
1,71,122,20
1,71,0,70
1,69,117,59
1,69,0,196
1,67,117,33
1,67,0,212
1,67,117,27
1,67,0,114
1,69,122,1030
1,69,0,45
1,69,112,17
1,69,0,46
1,71,127,19
1,71,0,94
1,71,122,24
1,71,0,34
1,71,122,27
1,71,0,83
1,72,122,25
1,72,0,41
1,72,122,23
1,72,0,126
1,67,107,175
1,67,0,39
1,69,122,16
1,69,0,112
1,69,117,20
1,69,0,35
1,69,112,20
1,69,0,38
1,71,122,21
1,71,0,87
1,71,117,25
1,71,0,40
1,72,127,23
1,72,0,193
1,69,97,503
1,69,0,40
1,71,122,40
1,71,0,101
1,71,112,24
1,71,0,33
1,71,117,26
1,71,0,87
1,72,122,22
1,72,0,38
1,72,117,29
1,72,0,83
1,69,112,297
1,69,0,90
1,69,112,15
1,69,0,46
1,69,107,17
1,69,0,44
1,71,117,17
1,71,0,99
1,71,117,23
1,71,0,36
1,71,117,24
1,71,0,90
1,72,117,23
1,72,0,41
1,72,117,21
1,72,0,77
1,69,117,221
1,69,0,28
1,69,117,32
1,69,0,88
1,69,117,23
1,69,0,34
1,69,112,22
1,69,0,41
1,71,122,30
1,71,0,44
1,71,117,24
1,71,0,29
1,71,112,32
1,71,0,18
1,71,112,20
1,71,0,19
1,71,112,19
1,71,0,22
1,71,122,28
1,71,0,38
1,72,117,17
1,72,0,37
1,72,117,29
1,72,0,168
1,72,122,425
1,72,0,54
1,71,107,7
1,71,0,76
1,71,117,36
1,71,0,112
1,72,117,10
1,72,0,120
1,69,117,425
1,69,0,43
1,69,112,15
1,69,0,41
1,71,127,24
1,71,0,42
1,71,117,23
1,71,0,33
1,71,102,25
1,71,0,38
1,72,122,21
1,72,0,134
1,69,117,514
1,69,0,97
1,71,117,20
1,71,0,95
1,71,117,30
1,71,0,28
1,71,117,31
1,71,0,94
1,72,122,24
1,72,0,38
1,72,112,28
1,72,0,73
1,69,112,401
1,69,0,39
1,69,107,22
1,69,0,37
1,71,122,24
1,71,0,37
1,71,112,26
1,71,0,30
1,71,117,26
1,71,0,30
1,72,117,28
1,72,0,982
1,72,127,43
1,72,0,285
1,71,122,19
1,71,0,55
1,69,122,66
1,69,0,206
1,67,112,24
1,67,0,211
1,67,117,29
1,67,0,99
1,72,122,939
1,72,0,272
1,71,122,20
1,71,0,59
1,69,122,58
1,69,0,198
1,67,117,26
1,67,0,228
1,67,117,27
1,67,0,106
1,72,107,22272
1,76,102,3
1,72,0,262
1,76,0,8
1,71,102,15
1,74,107,2
1,74,0,55
1,71,0,1
1,72,107,67
1,69,102,3
1,69,0,206
1,72,0,6
1,71,107,26
1,67,97,2
1,71,0,206
1,67,0,1
1,69,107,36
1,72,117,2
1,69,0,70
1,72,0,3
1,72,107,939
1,76,97,2
1,72,0,263
1,76,0,7
1,71,112,19
1,74,107,3
1,71,0,59
1,74,0,3
1,69,92,63
1,72,112,2
1,69,0,213
1,72,0,6
1,67,97,23
1,71,112,2
1,71,0,201
1,67,0,0
1,69,102,34
1,72,117,2
1,69,0,77
1,72,0,4
1,69,67,880
1,69,0,22
1,69,122,36
1,69,0,110
1,69,112,16
1,69,0,35
1,69,102,24
1,69,0,43
1,71,122,21
1,71,0,112
1,71,112,20
1,71,0,35
1,71,117,25
1,71,0,29
1,71,112,23
1,71,0,45
1,72,117,17
1,72,0,37
1,72,117,22
1,72,0,194
1,67,117,84
1,67,0,60
1,69,122,19
1,69,0,108
1,69,107,19
1,69,0,33
1,69,107,19
1,69,0,35
1,71,117,25
1,71,0,41
1,71,117,24
1,71,0,31
1,71,117,25
1,71,0,40
1,72,117,21
1,72,0,282
1,69,112,199
1,69,0,28
1,69,112,34
1,69,0,101
1,69,107,20
1,69,0,36
1,71,117,23
1,71,0,92
1,71,117,24
1,71,0,31
1,71,112,28
1,71,0,31
1,71,112,25
1,71,0,27
1,71,117,26
1,71,0,44
1,72,117,16
1,72,0,47
1,72,117,27
1,72,0,115
1,69,107,181
1,69,0,35
1,69,112,27
1,69,0,93
1,69,107,22
1,69,0,29
1,71,117,26
1,71,0,45
1,71,122,76
1,71,0,28
1,71,117,45
1,71,0,29
1,71,112,29
1,71,0,25
1,71,117,29
1,71,0,42
1,72,117,12
1,72,0,46
1,72,122,25
1,72,0,110
1,69,107,189
1,69,0,32
1,69,117,31
1,69,0,78
1,69,107,26
1,69,0,32
1,69,107,30
1,69,0,38
1,71,122,27
1,71,0,40
1,71,112,26
1,71,0,31
1,71,112,29
1,71,0,19
1,71,112,23
1,71,0,19
1,71,117,22
1,71,0,24
1,71,117,25
1,71,0,41
1,72,122,16
1,72,0,40
1,72,117,23
1,72,0,135
1,72,117,448
1,72,0,60
1,71,122,5
1,71,0,85
1,71,117,30
1,71,0,120
1,72,117,0
1,72,0,90
1,69,117,451
1,69,0,59
1,69,107,2
1,69,0,58
1,71,117,2
1,71,0,58
1,71,112,5
1,71,0,55
1,71,112,2
1,71,0,58
1,72,122,5
1,72,0,115
1,69,107,570
1,69,0,30
1,69,102,5
1,69,0,55
1,71,117,3
1,71,0,57
1,71,117,30
1,71,0,30
1,71,117,30
1,71,0,30
1,72,122,60
1,72,0,60
1,69,117,545
1,69,0,55
1,69,102,2
1,69,0,58
1,71,122,3
1,71,0,57
1,71,117,5
1,71,0,85
1,72,112,30
1,72,0,180
2,60,116,4198
2,60,0,282
2,59,116,21
2,59,0,56
2,57,121,61
2,57,0,196
2,55,115,36
2,55,0,206
2,55,106,35
2,55,0,97
2,60,101,923
2,60,0,251
2,59,119,38
2,59,0,48
2,57,103,80
2,57,0,205
2,55,107,25
2,55,0,223
2,55,107,24
2,55,0,69
2,55,117,904
2,55,0,42
2,57,126,22
2,57,0,95
2,57,116,24
2,57,0,47
2,57,101,5
2,57,0,47
2,55,111,16
2,55,0,94
2,50,108,30
2,52,124,58
2,50,0,1
2,52,0,89
2,55,125,29
2,55,0,75
2,48,119,156
2,48,0,24
2,48,126,37
2,48,0,21
2,48,110,39
2,48,0,26
2,57,118,33
2,57,0,153
2,57,117,27
2,57,0,40
2,59,116,23
2,59,0,58
2,59,107,4
2,59,0,25
2,59,115,36
2,59,0,32
2,60,124,29
2,60,0,272
2,60,111,497
2,60,0,48
2,59,124,29
2,59,0,69
2,59,117,36
2,59,0,97
2,60,121,15
2,60,0,98
2,57,126,458
2,57,0,50
2,57,115,7
2,57,0,45
2,59,119,16
2,59,0,30
2,59,110,33
2,59,0,33
2,59,111,25
2,59,0,30
2,60,111,27
2,60,0,168
2,57,113,497
2,57,0,39
2,57,96,16
2,57,0,55
2,59,125,8
2,59,0,100
2,59,115,18
2,59,0,45
2,59,108,15
2,59,0,102
2,60,107,12
2,60,0,55
2,60,116,13
2,60,0,77
2,57,119,407
2,57,0,56
2,57,101,3
2,57,0,28
2,59,120,29
2,59,0,98
2,59,119,15
2,59,0,40
2,60,125,15
2,60,0,977
2,60,121,62
2,60,0,298
2,59,127,13
2,59,0,64
2,57,123,57
2,57,0,191
2,55,114,38
2,55,0,187
2,55,111,44
2,55,0,68
2,60,121,960
2,60,0,284
2,59,116,25
2,59,0,81
2,57,112,36
2,57,0,180
2,55,112,42
2,55,0,192
2,55,107,55
2,55,0,88
2,60,122,6697
2,60,0,286
2,59,119,13
2,59,0,71
2,57,105,48
2,57,0,222
2,55,115,11
2,55,0,217
2,55,116,24
2,55,0,100
2,60,125,915
2,60,0,295
2,59,118,12
2,59,0,83
2,57,121,45
2,57,0,206
2,55,114,23
2,55,0,203
2,55,114,36
2,55,0,113
2,57,118,1032
2,57,0,29
2,57,108,33
2,57,0,32
2,59,127,32
2,59,0,78
2,59,126,40
2,59,0,29
2,59,126,32
2,59,0,89
2,60,126,20
2,60,0,38
2,60,123,26
2,60,0,115
2,55,101,185
2,55,0,32
2,57,118,23
2,57,0,101
2,57,113,31
2,57,0,42
2,57,110,13
2,57,0,26
2,59,121,33
2,59,0,72
2,59,113,41
2,59,0,40
2,60,127,23
2,60,0,188
2,57,98,507
2,57,0,49
2,59,122,32
2,59,0,90
2,59,116,35
2,59,0,45
2,59,117,13
2,59,0,75
2,60,124,34
2,60,0,22
2,60,122,45
2,60,0,72
2,57,117,308
2,57,0,100
2,57,116,6
2,57,0,37
2,57,111,26
2,57,0,46
2,59,112,14
2,59,0,94
2,59,115,29
2,59,0,37
2,59,114,22
2,59,0,95
2,60,113,19
2,60,0,52
2,60,122,10
2,60,0,90
2,57,119,208
2,57,0,42
2,57,119,17
2,57,0,75
2,57,111,36
2,57,0,22
2,57,113,34
2,57,0,42
2,59,125,30
2,59,0,53
2,59,119,14
2,59,0,41
2,59,115,20
2,59,0,4
2,59,107,35
2,59,0,30
2,59,114,7
2,59,0,32
2,59,120,19
2,59,0,34
2,60,118,21
2,60,0,38
2,60,121,27
2,60,0,173
2,60,126,420
2,60,0,52
2,59,101,10
2,59,0,69
2,59,120,43
2,60,116,122
2,59,0,4
2,60,0,131
2,57,111,410
2,57,0,50
2,57,108,8
2,57,0,44
2,59,126,21
2,59,0,34
2,59,112,31
2,59,0,21
2,59,107,36
2,59,0,28
2,60,122,32
2,60,0,137
2,57,113,510
2,57,0,96
2,59,120,22
2,59,0,90
2,59,121,35
2,59,0,19
2,59,113,39
2,59,0,93
2,60,116,26
2,60,0,44
2,60,115,21
2,60,0,87
2,57,108,388
2,57,0,44
2,57,107,17
2,57,0,52
2,59,125,9
2,59,0,28
2,59,116,35
2,59,0,30
2,59,114,25
2,59,0,21
2,60,117,38
2,60,0,994
2,60,127,31
2,60,0,284
2,59,126,20
2,59,0,49
2,57,123,71
2,57,0,207
2,55,108,24
2,55,0,213
2,55,120,27
2,55,0,93
2,60,120,945
2,60,0,267
2,59,120,25
2,59,0,48
2,57,116,69
2,57,0,191
2,55,117,32
2,55,0,219
2,55,115,36
2,55,0,119
2,60,102,22260
2,64,99,3
2,60,0,269
2,64,0,10
2,59,106,5
2,62,103,2
2,62,0,60
2,59,0,0
2,60,112,63
2,57,97,4
2,60,0,203
2,57,0,11
2,59,111,24
2,55,101,2
2,59,0,192
2,55,0,22
2,57,106,28
2,60,113,3
2,60,0,67
2,57,0,13
2,60,108,931
2,64,97,3
2,60,0,247
2,64,0,22
2,59,113,20
2,62,106,2
2,59,0,44
2,62,0,28
2,57,86,53
2,60,116,3
2,57,0,215
2,60,0,5
2,55,92,21
2,59,109,3
2,59,0,203
2,55,0,0
2,57,99,31
2,60,119,2
2,60,0,85
2,57,0,0
2,57,67,877
2,57,0,28
2,57,127,29
2,57,0,118
2,57,113,8
2,57,0,46
2,57,105,14
2,57,0,32
2,59,121,31
2,59,0,109
2,59,115,23
2,59,0,44
2,59,119,16
2,59,0,13
2,59,107,40
2,59,0,43
2,60,117,18
2,60,0,22
2,60,111,37
2,60,0,194
2,55,111,85
2,55,0,52
2,57,124,27
2,57,0,94
2,57,105,32
2,57,0,24
2,57,111,28
2,57,0,50
2,59,116,10
2,59,0,41
2,59,120,24
2,59,0,34
2,59,111,22
2,59,0,26
2,60,118,36
2,60,0,277
2,57,106,204
2,57,0,42
2,57,114,20
2,57,0,112
2,57,112,9
2,57,0,30
2,59,117,29
2,59,0,83
2,59,119,33
2,59,0,24
2,59,109,35
2,59,0,16
2,59,115,40
2,59,0,42
2,59,118,11
2,59,0,33
2,60,118,26
2,60,0,33
2,60,114,41
2,60,0,106
2,57,111,190
2,57,0,28
2,57,111,35
2,57,0,102
2,57,109,13
2,57,0,33
2,59,115,21
2,59,0,31
2,59,116,90
2,59,0,20
2,59,116,54
2,59,0,17
2,59,113,41
2,59,0,15
2,59,115,38
2,59,0,44
2,60,115,10
2,60,0,35
2,60,116,37
2,60,0,114
2,57,104,184
2,57,0,19
2,57,118,44
2,57,0,76
2,57,111,28
2,57,0,40
2,57,106,22
2,57,0,32
2,59,127,34
2,59,0,25
2,59,110,40
2,59,0,24
2,59,112,37
2,59,0,25
2,59,106,17
2,59,0,30
2,59,122,11
2,59,0,26
2,59,121,23
2,59,0,52
2,60,121,5
2,60,0,26
2,60,119,37
2,60,0,144
2,60,114,438
2,59,123,66
2,60,0,9
2,59,0,80
2,59,116,25
2,60,117,121
2,59,0,2
2,60,0,91
2,57,111,448
2,57,105,60
2,57,0,1
2,57,0,47
2,59,113,12
2,59,117,63
2,59,0,10
2,59,0,36
2,59,116,11
2,59,0,43
2,60,127,21
2,60,0,106
2,57,108,578
2,57,0,22
2,57,103,14
2,57,0,52
2,59,111,5
2,59,0,66
2,59,115,21
2,59,0,22
2,59,114,38
2,59,0,42
2,60,121,48
2,60,0,56
2,57,111,549
2,57,106,57
2,57,0,5
2,57,0,43
2,59,119,14
2,59,0,42
2,59,120,20
2,59,0,88
2,60,117,27
2,60,0,175
3,84,122,4197
3,84,0,280
3,83,117,22
3,83,0,66
3,81,122,52
3,81,0,204
3,79,112,27
3,79,0,205
3,79,107,36
3,79,0,86
3,84,102,935
3,84,0,259
3,83,117,29
3,83,0,55
3,81,107,73
3,81,0,198
3,79,107,33
3,79,0,212
3,79,112,35
3,79,0,78
3,79,112,895
3,79,0,52
3,81,122,11
3,81,0,97
3,81,112,22
3,81,0,35
3,81,107,17
3,81,0,45
3,79,112,19
3,79,0,110
3,74,107,13
3,74,0,44
3,76,122,15
3,76,0,105
3,79,122,13
3,79,0,72
3,72,122,160
3,72,0,32
3,72,122,29
3,72,0,32
3,72,107,27
3,72,0,39
3,81,122,21
3,81,0,162
3,81,117,18
3,81,0,41
3,83,122,21
3,83,0,44
3,83,107,19
3,83,0,40
3,83,112,21
3,83,0,46
3,84,122,15
3,84,0,278
3,84,117,491
3,84,0,56
3,83,122,20
3,83,0,69
3,83,117,37
3,83,0,98
3,84,117,14
3,84,0,101
3,81,122,455
3,81,0,37
3,81,112,20
3,81,0,42
3,83,122,18
3,83,0,37
3,83,112,26
3,83,0,34
3,83,112,25
3,83,0,34
