track,note,velocity,time
1,35,120,0
1,35,0,119
1,56,115,1
1,56,0,119
1,35,106,1
1,35,0,119
1,56,122,1
1,56,0,119
1,35,108,1
1,35,0,119
1,56,115,1
1,56,0,119
1,35,113,1
1,35,0,119
1,56,125,1
1,56,0,119
1,35,113,1
1,35,0,119
1,56,127,1
1,56,0,119
1,35,108,1
1,35,0,119
1,56,127,1
1,56,0,119
1,35,103,1
1,35,0,119
1,56,127,1
1,56,0,119
1,35,93,1
1,35,0,119
1,56,125,1
1,56,0,119
1,35,111,1
1,35,0,53
1,42,125,67
1,40,108,0
1,40,0,36
1,42,0,1
1,35,108,83
1,35,0,30
1,42,127,90
1,40,120,0
1,40,0,26
1,42,0,1
1,35,113,93
1,35,0,33
1,40,123,87
1,42,127,0
1,42,0,25
1,40,0,2
1,35,106,93
1,35,0,29
1,40,117,91
1,42,125,0
1,40,0,25
1,42,0,1
1,35,93,94
1,35,0,34
1,42,115,86
1,40,108,0
1,40,0,22
1,42,0,3
1,35,108,95
1,35,0,26
1,42,119,94
1,40,106,0
1,40,0,23
1,42,0,1
1,35,103,96
1,35,0,28
1,42,119,92
1,40,111,0
1,40,0,26
1,42,0,0
1,35,93,94
1,35,0,30
1,42,115,90
1,40,103,0
1,40,0,20
1,42,0,1
1,35,106,99
1,35,0,47
1,42,115,73
1,40,106,0
1,40,0,25
1,42,0,0
1,35,113,95
1,50,120,0
1,35,0,13
1,50,0,1
1,46,127,106
1,46,0,7
1,35,120,113
1,35,0,48
1,42,107,72
1,40,108,0
1,40,0,43
1,42,0,1
1,35,108,76
1,35,0,40
1,42,125,80
1,40,113,0
1,42,0,37
1,40,0,1
1,35,106,82
1,35,0,36
1,42,125,84
1,40,111,0
1,42,0,35
1,40,0,3
1,35,113,82
1,35,0,32
1,42,122,88
1,40,111,0
1,42,0,32
1,40,0,4
1,35,98,84
1,35,0,28
1,42,122,92
1,40,108,0
1,42,0,29
1,40,0,3
1,35,98,88
1,35,0,27
1,42,115,93
1,40,100,0
1,42,0,30
1,40,0,1
1,35,106,89
1,35,0,34
1,42,96,86
1,40,91,0
1,40,0,35
1,42,0,1
1,35,106,84
1,35,0,37
1,40,108,83
1,42,122,0
1,42,0,30
1,40,0,0
1,35,98,90
1,35,0,27
1,56,127,85
1,42,115,8
1,42,0,30
1,56,0,2
1,35,103,88
1,35,0,30
1,46,127,90
1,56,127,5
1,46,0,15
1,56,0,17
1,35,117,83
1,35,0,36
1,42,76,84
1,40,93,0
1,42,0,37
1,40,0,1
1,35,100,82
1,35,0,30
1,42,104,90
1,40,86,0
1,42,0,27
1,40,0,2
1,35,123,90
1,35,0,63
1,42,104,58
1,40,108,0
1,42,0,43
1,40,0,2
1,35,108,75
1,35,0,48
1,42,122,72
1,40,106,0
1,42,0,24
1,40,0,4
1,35,106,92
1,35,0,29
1,40,111,91
1,42,122,0
1,42,0,19
1,40,0,5
1,35,108,96
1,35,0,30
1,42,119,90
1,40,106,0
1,42,0,21
1,40,0,5
1,35,98,94
1,35,0,29
1,42,115,91
1,40,106,0
1,42,0,18
1,40,0,4
1,35,93,98
1,35,0,34
1,42,107,86
1,40,103,0
1,42,0,19
1,40,0,2
1,35,108,99
1,35,0,35
1,40,96,85
1,42,111,0
1,42,0,20
1,40,0,3
1,35,103,97
1,35,0,25
1,40,100,95
1,42,111,0
1,42,0,19
1,40,0,3
1,35,111,98
1,35,0,25
1,42,107,95
1,40,93,0
1,42,0,18
1,40,0,3
1,35,100,99
1,35,0,26
1,42,111,94
1,40,96,0
1,42,0,20
1,40,0,1
1,35,96,99
1,35,0,25
1,40,96,95
1,42,111,0
1,42,0,22
1,40,0,1
1,35,98,97
1,35,0,26
1,42,115,94
1,40,98,0
1,42,0,18
1,40,0,4
1,35,103,98
1,35,0,29
1,40,96,91
1,42,107,0
1,42,0,17
1,40,0,4
1,35,111,99
1,35,0,29
1,42,115,91
1,40,93,0
1,42,0,17
1,40,0,2
1,35,103,101
1,35,0,28
1,42,115,92
1,40,100,0
1,42,0,20
1,40,0,1
1,35,96,99
1,35,0,28
1,42,119,92
1,40,98,0
1,42,0,20
1,40,0,2
1,35,96,98
1,35,0,28
1,42,107,92
1,40,93,0
1,42,0,19
1,40,0,2
1,35,96,99
1,35,0,29
1,40,86,91
1,42,96,0
1,42,0,21
1,40,0,2
1,35,96,97
1,35,0,26
1,56,127,94
1,42,119,0
1,42,0,27
1,56,0,3
1,35,93,90
1,35,0,31
1,50,117,29
1,50,0,20
1,42,107,40
1,56,127,0
1,42,0,19
1,56,0,3
1,49,110,83
1,35,117,0
1,49,0,17
1,35,0,54
1,56,127,64
1,42,127,0
1,56,0,36
1,42,0,83
1,35,111,1
1,35,0,119
1,42,127,1
1,56,127,0
1,56,0,27
1,42,0,92
1,35,106,1
1,35,0,119
1,42,122,1
1,40,127,0
1,40,0,119
1,42,0,0
1,35,96,1
1,35,0,119
1,42,96,1
1,40,111,0
1,40,0,119
1,42,0,0
1,35,106,1
1,35,0,119
1,42,119,1
1,40,127,0
1,40,0,119
1,42,0,0
1,35,103,1
1,35,0,119
1,42,111,1
1,40,123,0
1,40,0,119
1,42,0,0
1,35,103,1
1,35,0,119
1,56,127,1
1,42,127,0
1,56,0,38
1,42,0,81
1,35,111,1
1,47,93,60
1,47,0,48
1,35,0,11
1,48,108,1
1,42,127,0
1,45,113,60
1,48,0,5
1,45,0,19
1,42,0,35
1,35,108,1
1,49,127,0
1,49,0,24
1,35,0,95
1,56,127,1
1,42,127,0
1,56,0,32
1,42,0,87
1,35,106,1
1,35,0,119
1,56,127,1
1,42,127,0
1,56,0,27
1,42,0,92
1,35,103,1
1,35,0,119
1,42,96,1
1,40,96,0
1,40,0,119
1,42,0,0
1,35,83,1
1,35,0,119
1,42,111,1
1,40,120,0
1,40,0,119
1,42,0,0
1,35,98,1
1,35,0,119
1,42,92,1
1,40,89,0
1,40,0,119
1,42,0,0
1,35,98,1
1,35,0,119
1,40,100,1
1,42,94,0
1,42,0,119
1,40,0,0
1,35,111,1
1,35,0,119
1,56,127,1
1,42,127,0
1,56,0,30
1,42,0,89
1,35,108,1
1,48,91,58
1,50,91,1
1,48,0,19
1,50,0,2
1,48,123,36
1,50,120,0
1,35,0,3
1,42,127,1
1,50,0,20
1,48,0,0
1,42,0,99
1,35,93,1
1,35,0,119
1,42,107,1
1,42,0,119
1,35,111,1
1,35,0,119
1,56,127,1
1,42,122,0
1,56,0,28
1,42,0,91
1,35,106,1
1,35,0,119
1,42,104,1
1,40,120,0
1,40,0,119
1,42,0,0
1,35,93,1
1,35,0,119
1,42,111,1
1,40,113,0
1,35,117,115
1,40,0,4
1,42,0,0
1,35,0,66
1,49,105,55
1,56,127,0
1,42,127,0
1,49,0,20
1,56,0,15
1,42,0,21
1,35,123,64
1,35,0,61
1,56,127,59
1,42,127,0
1,56,0,30
1,42,0,15
1,35,120,75
1,35,0,75
1,42,127,45
1,42,0,36
1,50,127,24
1,50,0,21
1,38,127,39
1,38,0,18
1,42,127,102
1,48,127,4
1,48,0,24
1,42,0,13
1,48,127,20
1,48,0,21
1,35,126,38
1,49,127,0
1,49,0,19
1,35,0,42
1,56,127,59
1,42,127,0
1,56,0,28
1,42,0,10
1,35,117,82
1,35,0,55
1,56,127,65
1,42,127,0
1,56,0,24
1,42,0,12
1,35,123,84
1,35,0,60
1,42,127,60
1,56,127,0
1,56,0,24
1,42,0,6
1,35,120,90
1,35,0,44
1,56,127,76
1,42,127,0
1,56,0,20
1,42,0,17
1,35,106,83
1,35,0,49
1,56,127,71
1,42,127,0
1,56,0,23
1,42,0,10
1,42,127,207
1,42,0,38
1,35,111,82
1,35,0,45
1,42,115,75
1,40,108,0
1,42,0,38
1,40,0,4
1,35,108,78
1,35,0,45
1,42,127,75
1,40,117,0
1,40,0,34
1,42,0,1
1,35,103,85
1,35,0,42
1,42,127,78
1,40,111,0
1,40,0,32
1,42,0,2
1,35,100,86
1,35,0,40
1,42,127,80
1,40,108,0
1,42,0,36
1,40,0,4
1,35,111,80
1,35,0,36
1,42,127,84
1,40,117,0
1,40,0,32
1,42,0,0
1,35,93,88
1,35,0,35
1,42,125,85
1,40,108,0
1,42,0,27
1,40,0,2
1,35,127,79
1,35,0,60
1,40,127,65
1,42,127,7
1,40,0,18
1,42,0,30
1,35,120,72
1,35,0,46
1,42,127,74
1,40,123,0
1,42,0,30
1,40,0,2
1,35,123,88
1,35,0,33
1,56,127,86
1,42,127,1
1,56,0,24
1,42,0,7
1,35,120,89
1,48,127,1
1,48,0,27
1,35,0,7
1,50,106,20
1,50,0,16
1,47,127,42
1,42,127,7
1,47,0,12
1,42,0,17
1,49,127,82
1,35,120,9
1,49,0,12
1,35,0,20
1,42,125,88
1,56,127,2
1,56,0,24
1,42,0,2
1,35,117,92
1,35,0,36
1,56,127,80
1,42,125,4
1,56,0,17
1,42,0,8
1,35,111,95
1,35,0,37
1,42,122,83
1,40,111,0
1,42,0,29
1,40,0,1
1,35,111,90
1,35,0,28
1,42,122,92
1,40,111,0
1,42,0,23
1,40,0,3
1,35,108,94
1,35,0,27
1,42,122,93
1,40,103,0
1,42,0,21
1,40,0,2
1,35,113,97
1,35,0,25
1,42,119,95
1,40,106,0
1,42,0,20
1,40,0,2
1,35,108,98
1,35,0,25
1,42,119,95
1,40,106,0
1,42,0,22
1,40,0,1
1,35,111,97
1,35,0,27
1,42,119,93
1,40,103,0
1,42,0,23
1,40,0,2
1,35,111,95
1,35,0,33
1,42,119,87
1,40,106,0
1,42,0,23
1,40,0,3
1,35,106,94
1,35,0,37
1,42,111,83
1,40,93,0
1,42,0,24
1,40,0,3
1,35,111,93
1,35,0,50
1,42,111,70
1,40,100,0
1,42,0,26
1,40,0,2
1,35,108,92
1,35,0,41
1,40,103,79
1,42,115,0
1,42,0,24
1,40,0,5
1,35,117,91
1,35,0,31
1,40,98,89
1,42,111,0
1,42,0,27
1,40,0,2
1,35,106,91
1,35,0,39
1,42,119,81
1,40,103,0
1,42,0,26
1,40,0,2
1,35,111,92
1,35,0,35
1,42,111,85
1,40,98,0
1,42,0,27
1,40,0,2
1,35,120,91
1,35,0,31
1,40,96,89
1,42,115,0
1,42,0,25
1,40,0,3
1,35,127,79
1,35,0,93
1,42,127,40
1,40,127,0
1,42,0,56
1,40,0,1
1,35,123,63
1,35,0,54
1,40,126,66
1,42,127,0
1,42,0,37
1,40,0,6
1,35,123,77
1,35,0,57
1,42,127,63
1,40,127,0
1,42,0,33
1,40,0,6
1,35,126,81
1,35,0,57
1,40,127,63
1,42,127,0
1,42,0,40
1,40,0,6
1,35,120,74
1,35,0,59
1,56,127,58
1,42,127,3
1,56,0,29
1,42,0,4
1,35,123,87
1,48,98,56
1,35,0,1
1,48,0,42
1,50,127,17
1,42,127,4
1,50,0,20
1,42,0,12
1,50,127,19
1,50,0,23
1,49,127,37
1,35,113,9
1,49,0,9
1,35,0,35
1,56,127,74
1,42,127,2
1,56,0,25
1,42,0,9
1,35,123,86
1,35,0,43
1,56,127,73
1,42,127,4
1,56,0,23
1,42,0,10
1,35,120,87
1,35,0,41
1,56,127,76
1,42,127,3
1,49,119,0
1,49,0,14
1,56,0,11
1,42,0,12
1,35,123,83
1,35,0,36
1,50,127,81
1,42,127,3
1,50,0,7
1,50,127,11
1,50,0,13
1,42,0,4
1,50,113,3
1,50,0,11
1,50,126,7
1,50,0,10
1,35,120,54
1,35,0,31
1,56,127,86
1,42,127,3
1,56,0,23
1,42,0,10
1,35,120,87
1,35,0,33
1,56,127,80
1,42,127,7
1,56,0,15
1,42,0,17
1,35,120,88
1,35,0,34
1,42,122,86
1,40,117,0
1,42,0,32
1,40,0,1
1,35,106,87
1,35,0,33
1,40,123,87
1,42,127,0
1,42,0,30
1,40,0,3
1,35,113,87
1,35,0,30
1,40,120,90
1,42,127,0
1,42,0,25
1,40,0,1
1,35,123,94
1,35,0,27
1,40,117,93
1,42,122,0
1,42,0,24
1,40,0,5
1,35,120,82
1,35,111,9
1,35,0,29
1,40,127,87
1,42,127,0
1,42,0,50
1,40,0,3
1,35,0,0
1,35,108,71
1,35,0,27
1,40,111,93
1,42,127,0
1,42,0,21
1,40,0,6
1,35,127,83
1,35,0,103
1,40,127,27
1,42,127,0
1,42,0,48
1,40,0,3
1,35,120,69
1,35,0,76
1,40,127,44
1,42,127,0
1,42,0,44
1,40,0,6
1,35,123,70
1,35,0,69
1,47,127,51
1,42,127,0
1,47,0,22
1,42,0,12
1,47,113,26
1,47,0,20
1,47,127,40
1,47,0,22
1,47,106,38
1,47,0,21
1,47,127,39
1,42,127,0
1,47,0,20
1,42,0,13
1,47,127,27
1,47,0,17
1,49,127,40
1,35,123,3
1,49,0,20
1,35,0,41
1,42,127,59
1,56,127,0
1,56,0,25
1,42,0,7
1,35,127,88
1,35,0,45
1,56,127,75
1,42,127,0
1,56,0,24
1,42,0,8
1,35,127,88
1,35,0,43
1,42,127,77
1,56,127,0
1,56,0,23
1,42,0,9
1,35,127,88
1,35,0,32
1,50,117,25
1,50,0,20
1,56,127,43
1,42,127,0
1,56,0,21
1,42,0,12
1,49,127,83
1,35,127,4
1,49,0,19
1,35,0,15
1,56,127,86
1,42,127,0
1,56,0,22
1,42,0,12
1,35,123,86
1,35,0,42
1,56,127,78
1,42,127,0
1,56,0,24
1,42,0,6
1,35,127,90
1,35,0,43
1,40,123,77
1,42,127,0
1,42,0,29
1,40,0,3
1,35,111,88
1,35,0,34
1,42,127,86
1,40,127,0
1,42,0,27
1,40,0,2
1,35,113,91
1,35,0,39
1,42,127,81
1,42,0,31
1,35,117,89
1,35,0,34
1,40,127,86
1,42,127,0
1,42,0,28
1,40,0,3
1,35,103,89
1,35,0,51
1,40,123,69
1,42,127,0
1,42,0,29
1,40,0,3
1,35,117,88
1,35,0,34
1,42,127,86
1,40,123,0
1,40,0,27
1,42,0,0
1,35,120,93
1,35,0,31
1,42,127,89
1,40,126,0
1,42,0,21
1,40,0,1
1,35,111,98
1,35,0,27
1,40,120,93
1,42,127,0
1,42,0,22
1,40,0,2
1,35,127,87
1,35,0,104
1,40,127,25
1,42,127,0
1,42,0,52
1,40,0,1
1,35,106,67
1,35,0,68
1,42,127,52
1,40,127,0
1,42,0,35
1,40,0,1
1,35,111,84
1,35,0,55
1,42,127,65
1,40,123,0
1,42,0,33
1,40,0,5
1,35,100,82
1,35,0,50
1,40,120,70
1,42,122,0
1,42,0,26
1,40,0,7
1,35,108,87
1,35,0,47
1,40,113,73
1,42,119,0
1,42,0,28
1,40,0,4
1,35,98,88
1,35,0,49
1,42,111,71
1,40,106,0
1,42,0,32
1,40,0,2
1,35,98,86
1,35,0,52
1,42,107,68
1,40,108,0
1,42,0,30
1,40,0,2
1,35,100,88
1,35,0,41
1,42,119,79
1,40,106,0
1,40,0,31
1,42,0,1
1,35,96,88
1,35,0,53
1,56,127,64
1,42,127,3
1,56,0,25
1,42,0,7
1,35,108,88
1,50,106,55
1,35,0,0
1,50,0,33
1,48,123,27
1,42,127,5
1,48,0,17
1,42,0,15
1,48,123,19
1,48,0,23
1,35,103,46
1,35,0,61
1,42,127,59
1,42,0,32
1,35,106,88
1,35,0,50
1,42,119,70
1,56,127,2
1,56,0,26
1,42,0,7
1,35,98,85
1,35,0,44
1,40,103,76
1,42,119,0
1,42,0,32
1,40,0,1
1,35,100,87
1,35,0,36
1,42,122,84
1,40,108,0
1,42,0,24
1,40,0,4
1,35,93,92
1,35,0,33
1,42,115,87
1,40,108,0
1,42,0,26
1,40,0,1
1,35,106,93
1,35,0,32
1,40,103,88
1,42,107,0
1,42,0,26
1,40,0,1
1,35,127,93
1,35,0,68
1,46,127,52
1,46,0,35
1,35,120,85
1,35,0,52
1,50,106,2
1,50,0,21
1,48,127,37
1,42,127,8
1,48,0,13
1,42,0,14
1,35,126,93
1,35,0,51
1,56,127,67
1,42,127,2
1,42,0,27
1,56,0,1
