track,note,velocity,time
1,74,107,6912
1,74,95,0
1,74,95,0
1,74,95,0
1,74,95,0
1,76,95,0
1,74,107,0
1,71,95,0
1,71,95,0
1,71,95,0
1,69,95,0
1,67,95,0
1,74,95,4224
1,74,95,0
1,74,95,0
1,74,95,0
1,76,95,0
1,76,114,0
1,71,95,0
1,74,95,0
1,74,114,0
1,71,95,0
1,69,95,0
1,67,95,0
1,64,95,0
1,62,95,0
1,64,95,0
1,67,120,0
1,67,120,0
1,69,120,0
1,64,114,0
1,64,114,0
1,62,114,0
1,64,114,0
1,67,120,0
1,67,120,0
1,69,120,0
1,64,114,0
1,62,114,0
1,64,114,0
1,62,114,0
1,64,114,0
1,71,114,0
1,69,114,0
1,67,114,0
1,69,114,0
1,67,114,0
1,64,114,0
1,64,114,0
1,67,114,0
1,64,114,0
1,64,114,0
1,62,114,0
1,64,114,0
1,64,114,0
1,64,114,0
1,67,114,0
1,67,114,0
1,69,114,0
1,64,114,0
1,64,114,0
1,62,114,192
1,64,114,0
1,67,114,0
1,67,114,0
1,69,114,0
1,64,114,0
1,62,114,0
1,64,114,0
1,62,114,0
1,64,114,0
1,71,114,0
1,69,114,0
1,67,114,0
1,69,114,0
1,67,114,0
1,64,114,0
1,64,114,0
1,67,114,0
1,64,114,0
1,64,114,0
1,62,114,0
1,64,114,0
1,74,107,768
1,74,95,0
1,74,95,0
1,74,95,0
1,74,95,0
1,76,95,0
1,74,107,0
1,71,95,0
1,71,95,0
1,71,95,0
1,69,95,0
1,67,95,0
1,74,95,4224
1,74,95,0
1,74,95,0
1,74,95,0
1,76,95,0
1,76,114,0
1,71,95,0
1,74,95,0
1,74,114,0
1,71,95,0
1,69,95,0
1,67,95,0
1,64,95,0
1,74,95,3072
1,74,95,0
1,74,95,0
1,76,95,0
1,76,114,0
1,71,95,0
1,74,95,0
1,74,114,0
1,71,95,0
1,69,95,0
1,67,95,0
1,64,95,0
1,62,95,0
1,64,95,0
1,67,120,0
1,67,120,0
1,69,120,0
1,64,114,0
1,64,114,0
1,62,114,0
1,64,114,0
1,67,120,0
1,67,120,0
1,69,120,0
1,64,114,0
1,62,114,0
1,64,114,0
1,62,114,0
1,64,114,0
1,71,114,0
1,69,114,0
1,67,114,0
1,69,114,0
1,67,114,0
1,64,114,0
1,64,114,0
1,67,114,0
1,64,114,0
1,64,114,0
1,62,114,0
1,64,114,0
1,64,114,0
1,64,114,0
1,67,114,0
1,67,114,0
1,69,114,0
1,64,114,0
1,64,114,0
1,62,114,192
1,64,114,0
1,67,114,0
1,67,114,0
1,69,114,0
1,64,114,0
1,62,114,0
1,64,114,0
1,62,114,0
1,64,114,0
1,71,114,0
1,69,114,0
1,67,114,0
1,69,114,0
1,67,114,0
1,64,114,0
1,64,114,0
1,67,114,0
1,64,114,0
1,64,114,0
1,62,114,0
1,64,114,0
1,64,114,0
1,64,114,0
1,67,114,0
1,67,114,0
1,69,114,0
1,64,114,0
1,64,114,0
1,62,114,192
1,64,114,0
1,67,114,0
1,67,114,0
1,69,114,0
1,64,114,0
1,62,114,0
1,64,114,0
1,62,114,0
1,64,114,0
1,71,114,0
1,69,114,0
1,67,114,0
1,69,114,0
1,67,114,0
1,64,114,0
1,64,114,0
1,67,114,0
1,64,114,0
1,64,114,0
1,62,114,0
1,64,114,0
1,64,114,0
1,66,114,0
1,66,114,0
1,66,114,0
1,64,114,0
1,60,114,0
1,66,114,0
1,64,114,0
1,59,114,0
1,66,114,0
1,64,114,0
1,66,114,0
1,66,114,0
1,64,114,0
1,60,114,0
1,66,114,0
1,64,114,0
1,59,114,0
1,66,114,0
1,64,114,0
1,60,114,0
1,66,114,0
1,64,114,0
1,60,114,0
1,66,114,0
1,59,114,0
1,76,63,6144
1,76,63,0
1,76,63,0
1,76,63,0
1,76,66,0
1,76,66,0
1,76,66,0
1,76,66,0
1,76,68,0
1,76,68,0
1,76,68,0
1,76,68,0
1,76,71,0
1,76,71,0
1,76,71,0
1,76,71,0
1,76,73,0
1,76,73,0
1,76,73,0
1,76,73,0
1,76,76,0
1,76,76,0
1,76,76,0
1,76,76,0
1,76,78,0
1,76,78,0
1,76,78,0
1,76,78,0
1,76,81,0
1,76,81,0
1,76,81,0
1,76,81,0
1,76,83,0
1,76,83,0
1,76,83,0
1,76,83,0
1,76,86,0
1,76,86,0
1,76,86,0
1,76,86,0
1,76,88,0
1,76,88,0
1,76,88,0
1,76,88,0
1,76,91,0
1,76,91,0
1,76,91,0
1,76,91,0
1,76,93,0
1,76,93,0
1,76,93,0
1,76,93,0
1,76,96,0
1,76,96,0
1,76,96,0
1,76,96,0
1,76,99,0
1,76,99,0
1,76,99,0
1,76,99,0
1,76,101,0
1,76,101,0
1,76,101,0
1,76,101,0
1,76,104,0
1,76,104,0
1,76,104,0
1,76,104,0
1,76,106,0
1,76,106,0
1,76,106,0
1,76,106,0
1,76,109,0
1,76,109,0
1,76,109,0
1,76,109,0
1,76,109,0
1,76,109,0
1,76,109,0
1,76,109,0
1,76,109,0
1,76,109,0
1,76,109,0
1,76,109,0
1,76,109,0
1,76,109,0
1,76,109,0
1,76,109,0
1,76,109,0
1,76,109,0
1,76,109,0
1,76,109,0
1,76,109,0
1,76,109,0
1,76,109,0
1,76,109,0
1,79,120,0
1,78,120,0
1,76,120,0
1,76,120,0
1,76,120,0
1,74,120,0
1,76,120,0
1,76,120,0
1,83,120,384
1,81,120,0
1,79,120,0
1,81,120,0
1,76,120,0
1,79,101,0
1,78,101,0
1,76,101,0
1,76,101,0
1,76,101,0
1,74,101,0
1,76,101,0
1,76,101,0
1,83,101,384
1,81,101,0
1,79,101,0
1,81,101,0
1,76,101,0
1,79,63,0
1,78,63,0
1,76,63,0
1,76,63,0
1,76,63,0
1,74,63,0
1,76,63,0
1,76,63,0
1,83,63,384
1,81,63,0
1,79,63,0
1,81,63,0
1,76,63,0
1,79,38,0
1,78,38,0
1,76,38,0
1,76,38,0
1,76,38,0
1,74,38,0
1,76,38,0
1,76,38,0
1,83,38,384
1,81,38,0
1,79,38,0
1,81,38,0
1,76,38,0
2,52,95,192
2,62,95,0
2,59,95,0
2,66,95,0
2,52,95,576
2,62,95,0
2,59,95,0
2,62,95,0
2,62,95,0
2,64,95,0
2,64,95,192
2,62,95,0
2,59,95,0
2,62,95,0
2,62,95,0
2,64,95,0
2,64,95,192
2,64,95,0
2,59,82,1056
2,59,82,0
2,71,82,0
2,71,82,0
2,71,82,0
2,71,82,0
2,71,82,0
2,73,82,0
2,71,82,0
2,67,82,0
2,67,82,0
2,67,82,0
2,66,82,0
2,64,82,0
2,64,82,192
2,64,82,96
2,59,82,0
2,64,82,0
2,52,82,0
2,64,82,0
2,66,82,768
2,62,82,96
2,52,82,96
2,59,82,0
2,64,82,0
2,62,82,0
2,59,82,0
2,64,82,0
2,71,82,0
2,71,82,0
2,71,82,0
2,71,82,0
2,73,82,0
2,71,101,0
2,71,82,96
2,66,82,288
2,71,82,192
2,66,82,0
2,71,82,0
2,69,82,0
2,64,82,0
2,69,82,0
2,64,82,0
2,64,82,192
2,59,82,0
2,62,82,0
2,67,82,0
2,64,82,0
2,64,107,384
2,64,107,288
2,60,107,96
2,60,107,0
2,64,107,288
2,64,107,192
2,60,107,192
2,60,107,0
2,67,107,288
2,64,107,0
2,64,107,0
2,60,107,0
2,62,107,0
2,62,107,288
2,62,107,0
2,64,107,0
2,64,107,288
2,60,107,96
2,60,107,192
2,64,107,288
2,64,107,192
2,60,107,192
2,60,107,0
2,67,107,288
2,64,107,0
2,64,107,0
2,60,107,0
2,62,107,0
2,62,107,288
2,52,95,192
2,64,95,0
2,64,95,0
2,62,95,0
2,52,95,0
2,59,95,0
2,52,95,0
2,62,95,0
2,62,95,0
2,64,95,0
2,52,95,192
2,64,95,0
2,62,95,0
2,59,95,0
2,64,95,0
2,59,95,96
2,59,95,0
2,59,95,0
2,59,82,864
2,59,82,0
2,71,82,0
2,71,82,0
2,71,82,0
2,71,82,0
2,71,82,0
2,73,82,0
2,71,82,0
2,67,82,0
2,67,82,0
2,67,82,0
2,66,82,0
2,64,82,0
2,64,82,192
2,64,82,96
2,59,82,0
2,64,82,0
2,52,82,0
2,64,82,0
2,66,82,768
2,62,82,96
2,52,82,96
2,59,82,0
2,64,82,0
2,62,82,0
2,59,82,0
2,64,82,0
2,71,82,0
2,71,82,0
2,71,82,0
2,71,82,0
2,73,82,0
2,71,101,0
2,71,82,96
2,66,82,288
2,71,82,192
2,66,82,0
2,71,82,0
2,69,82,0
2,64,82,0
2,69,82,0
2,64,82,0
2,64,82,192
2,62,82,0
2,59,82,0
2,64,82,0
2,52,82,0
2,59,82,0
2,64,82,0
2,62,82,0
2,59,82,0
2,64,82,0
2,71,82,0
2,71,82,0
2,71,82,0
2,73,82,0
2,71,82,0
2,71,82,96
2,71,82,0
2,66,82,96
2,66,82,192
2,71,82,0
2,66,82,0
2,71,82,0
2,69,82,0
2,64,82,0
2,69,82,0
2,64,82,0
2,64,82,192
2,59,82,0
2,62,82,0
2,67,82,0
2,64,82,0
2,64,107,384
2,64,107,288
2,60,107,96
2,60,107,0
2,64,107,288
2,64,107,192
2,60,107,192
2,60,107,0
2,67,107,288
2,64,107,0
2,64,107,0
2,60,107,0
2,62,107,0
2,62,107,288
2,62,107,0
2,64,107,0
2,64,107,288
2,60,107,96
2,60,107,192
2,64,107,288
2,64,107,192
2,60,107,192
2,60,107,0
2,67,107,288
2,64,107,0
2,64,107,0
2,60,107,0
2,62,107,0
2,62,107,288
2,62,107,0
2,64,107,0
2,64,107,288
2,60,107,96
2,60,107,192
2,64,107,288
2,64,107,192
2,60,107,192
2,60,107,0
2,67,107,288
2,64,107,0
2,64,107,0
2,60,107,0
2,62,107,0
2,62,107,288
2,59,107,0
2,64,107,0
2,64,107,1152
2,64,107,576
2,72,63,9792
2,72,63,0
2,72,63,0
2,72,63,0
2,72,66,0
2,72,66,0
2,72,66,0
2,72,66,0
2,72,68,0
2,72,68,0
2,72,68,0
2,72,68,0
2,72,71,0
2,72,71,0
2,71,71,0
2,71,71,0
2,71,73,0
2,71,73,0
2,71,73,0
2,71,73,0
2,71,73,0
2,71,73,0
2,71,73,0
2,71,73,0
2,71,76,0
2,71,76,0
2,71,76,0
2,71,76,0
2,71,78,0
2,71,78,0
2,71,78,0
2,71,78,0
2,72,81,0
2,72,81,0
2,72,81,0
2,72,81,0
2,72,83,0
2,72,83,0
2,72,83,0
2,72,83,0
2,72,86,0
2,72,86,0
2,72,86,0
2,72,86,0
2,72,88,0
2,72,88,0
2,71,88,0
2,71,88,0
2,71,91,0
2,71,91,0
2,71,91,0
2,71,91,0
2,71,93,0
2,71,93,0
2,71,93,0
2,71,93,0
2,71,96,0
2,71,96,0
2,71,96,0
2,71,96,0
2,71,99,0
2,71,99,0
2,71,99,0
2,71,99,0
2,72,101,0
2,72,101,0
2,72,101,0
2,72,101,0
2,72,104,0
2,72,104,0
2,72,104,0
2,72,104,0
2,72,106,0
2,72,106,0
2,72,106,0
2,72,106,0
2,72,109,0
2,72,109,0
2,71,109,0
2,71,109,0
2,71,109,0
2,71,109,0
2,71,109,0
2,71,109,0
2,71,109,0
2,71,109,0
2,71,109,0
2,71,109,0
2,71,109,0
2,71,109,0
2,71,109,0
2,71,109,0
2,71,109,0
2,71,109,0
2,71,109,0
2,71,109,0
2,67,114,0
2,66,114,0
2,64,114,0
2,64,114,0
2,64,114,0
2,62,114,0
2,64,114,0
2,64,114,0
2,71,114,384
2,69,114,0
2,67,114,0
2,69,114,0
2,64,114,0
2,67,88,0
2,66,88,0
2,64,88,0
2,64,88,0
2,64,88,0
2,62,88,0
2,64,88,0
2,64,88,0
2,71,88,384
2,69,88,0
2,67,88,0
2,69,88,0
2,64,88,0
2,67,63,0
2,66,63,0
2,64,63,0
2,64,63,0
2,64,63,0
2,62,63,0
2,64,63,0
2,64,63,0
2,71,63,384
2,69,63,0
2,67,63,0
2,69,63,0
2,64,63,0
2,67,38,0
2,66,38,0
2,64,38,0
2,64,38,0
2,64,38,0
2,62,38,0
2,64,38,0
2,64,38,0
2,71,38,384
2,69,38,0
2,67,38,0
2,69,38,0
2,64,38,0
3,59,95,2304
3,64,82,3360
3,64,82,0
3,68,82,0
3,68,82,0
3,68,82,0
3,68,82,0
3,68,82,0
3,69,82,0
3,67,82,0
3,64,82,0
3,64,82,0
3,64,82,0
3,62,82,0
3,60,82,0
3,59,82,192
3,59,82,576
3,64,82,960
3,59,82,96
3,68,82,768
3,68,82,0
3,68,82,0
3,68,82,0
3,69,82,0
3,67,82,0
3,67,82,96
3,62,82,288
3,59,82,1248
3,60,107,1536
3,60,107,288
3,55,107,96
3,55,107,0
3,60,107,288
3,60,107,192
3,55,107,192
3,55,107,0
3,64,107,288
3,59,107,0
3,60,107,0
3,55,107,0
3,57,107,0
3,57,107,0
3,57,107,0
3,57,107,0
3,60,107,0
3,60,107,288
3,55,107,96
3,55,107,192
3,60,107,288
3,60,107,192
3,55,107,192
3,55,107,0
3,64,107,288
3,59,107,0
3,60,107,0
3,55,107,0
3,59,107,0
3,59,107,0
3,59,107,0
3,52,95,1920
3,52,95,2304
3,64,82,864
3,64,82,0
3,68,82,0
3,68,82,0
3,68,82,0
3,68,82,0
3,68,82,0
3,69,82,0
3,67,82,0
3,64,82,0
3,64,82,0
3,64,82,0
3,62,82,0
3,60,82,0
3,59,82,192
3,59,82,576
3,64,82,960
3,59,82,96
3,68,82,768
3,68,82,0
3,68,82,0
3,68,82,0
3,69,82,0
3,67,82,0
3,67,82,96
3,62,82,288
3,59,82,1248
3,60,107,7680
3,60,107,288
3,55,107,96
3,55,107,0
3,60,107,288
3,60,107,192
3,55,107,192
3,55,107,0
3,64,107,288
3,59,107,0
3,60,107,0
3,55,107,0
3,57,107,0
3,57,107,0
3,57,107,0
3,57,107,0
3,60,107,0
3,60,107,288
3,55,107,96
3,55,107,192
3,60,107,288
3,60,107,192
3,55,107,192
3,55,107,0
3,64,107,288
3,59,107,0
3,60,107,0
3,55,107,0
3,59,107,0
3,59,107,0
3,59,107,0
3,57,107,0
3,60,107,0
3,60,107,288
3,55,107,96
3,55,107,192
3,60,107,288
3,60,107,192
3,55,107,192
3,55,107,0
3,64,107,288
3,59,107,0
3,60,107,0
3,55,107,0
3,59,107,0
3,59,107,0
3,59,107,0
3,76,107,0
3,60,107,192
3,59,107,1152
3,59,63,0
3,60,63,0
3,69,63,9792
3,69,63,0
3,69,63,0
3,69,63,0
3,69,66,0
3,69,66,0
3,69,66,0
3,69,66,0
3,67,68,0
3,67,68,0
3,67,68,0
3,67,68,0
3,67,71,0
3,67,71,0
3,67,71,0
3,67,71,0
3,67,73,0
3,67,73,0
3,67,73,0
3,67,73,0
3,67,76,0
3,67,76,0
3,67,76,0
3,67,76,0
3,67,78,0
3,67,78,0
3,67,78,0
3,67,78,0
3,67,81,0
3,67,81,0
3,67,81,0
3,67,81,0
3,69,83,0
3,69,83,0
3,69,83,0
3,69,83,0
3,69,86,0
3,69,86,0
3,69,86,0
3,69,86,0
3,67,88,0
3,67,88,0
3,67,88,0
3,67,88,0
3,67,91,0
3,67,91,0
3,67,91,0
3,67,91,0
3,67,93,0
3,67,93,0
3,67,93,0
3,67,93,0
3,67,96,0
3,67,96,0
3,67,96,0
3,67,96,0
3,67,99,0
3,67,99,0
3,67,99,0
3,67,99,0
3,67,101,0
3,67,101,0
3,67,101,0
3,67,101,0
3,69,104,0
3,69,104,0
3,69,104,0
3,69,104,0
3,69,106,0
3,69,106,0
3,69,106,0
3,69,106,0
3,67,109,0
3,67,109,0
3,67,109,0
3,67,109,0
3,67,109,0
3,67,109,0
3,67,109,0
3,67,109,0
3,67,109,0
3,67,109,0
3,67,109,0
3,67,109,0
3,67,109,0
3,67,109,0
3,67,109,0
3,67,109,0
3,67,109,0
3,67,109,0
3,67,109,0
3,67,109,0
3,67,109,0
3,67,109,0
3,67,109,0
3,67,109,0
