track,note,velocity,time
0,49,41,752
0,82,81,0
0,47,97,0
0,49,43,44
0,49,44,44
0,49,46,44
0,49,47,44
0,49,48,20
0,49,50,44
0,49,51,20
0,49,101,0
0,54,108,24
0,49,52,20
0,40,66,0
0,40,115,0
0,47,69,0
0,57,109,16
0,49,54,28
0,49,55,44
0,49,57,20
0,49,57,8
0,47,101,20
0,49,56,16
0,52,109,4
0,40,58,8
0,40,121,0
0,47,69,0
0,56,99,20
0,49,55,8
0,49,54,44
0,49,53,4
0,40,61,0
0,40,119,0
0,47,72,0
0,49,52,44
0,49,51,44
0,49,50,20
0,49,49,44
0,49,48,44
0,40,51,12
0,40,105,0
0,47,64,0
0,49,47,28
0,49,46,44
0,40,52,4
0,40,113,0
0,47,82,0
0,40,68,52
0,40,112,0
0,47,82,0
0,49,104,36
0,54,98,36
0,40,61,4
0,40,117,0
0,47,69,0
0,57,103,20
0,47,92,0
0,52,107,28
0,40,55,4
0,40,117,0
0,47,83,0
0,56,95,16
0,40,51,4
0,40,122,0
0,47,72,0
0,40,63,132
0,40,122,0
0,47,82,0
0,40,63,4
0,40,112,0
0,47,68,0
0,40,58,132
0,40,114,0
0,47,80,0
0,40,68,4
0,40,122,0
0,47,76,0
0,40,53,132
0,40,120,0
0,47,82,0
0,49,33,4
0,40,56,0
0,82,76,0
0,40,118,0
0,47,82,0
0,47,107,0
0,49,34,44
0,49,36,44
0,49,37,20
0,49,39,44
0,49,40,44
0,40,50,12
0,40,104,0
0,47,79,0
0,49,41,28
0,49,43,32
0,49,98,4
0,54,98,16
0,49,44,4
0,40,54,0
0,40,114,0
0,47,73,0
0,57,102,0
0,49,45,44
0,49,47,44
0,49,48,20
0,49,49,4
0,47,94,0
0,52,94,16
0,49,48,4
0,40,63,12
0,40,112,0
0,47,74,0
0,56,98,0
0,49,47,28
0,49,46,44
0,49,45,4
0,40,57,0
0,40,114,0
0,47,81,0
0,49,44,44
0,49,43,44
0,49,42,20
0,49,41,44
0,49,40,44
0,40,50,12
0,40,106,0
0,47,83,0
0,49,39,28
0,49,38,44
0,40,57,4
0,40,116,0
0,47,68,0
0,40,68,20
0,40,107,0
0,47,66,0
0,49,95,92
0,54,106,20
0,57,107,0
0,40,49,4
0,40,118,0
0,47,74,0
0,47,109,8
0,40,57,24
0,40,104,0
0,47,78,0
0,52,105,0
0,56,96,24
0,40,55,4
0,40,108,0
0,47,80,0
0,40,55,132
0,40,110,0
0,47,80,0
0,40,66,4
0,40,110,0
0,47,80,0
0,40,51,132
0,40,119,0
0,47,82,0
0,40,58,4
0,40,117,0
0,47,72,0
0,40,66,132
0,40,106,0
0,47,77,0
0,47,96,0
0,49,38,4
0,40,57,0
0,82,70,0
0,35,115,0
0,47,71,0
0,49,92,0
0,49,39,44
0,49,41,44
0,37,105,4
0,52,106,0
0,49,42,16
0,49,44,44
0,49,46,4
0,40,54,4
0,40,115,0
0,47,70,0
0,49,93,0
0,49,47,28
0,49,49,44
0,49,50,4
0,40,49,0
0,42,120,0
0,49,77,0
0,56,103,0
0,49,52,16
0,49,53,44
0,49,55,20
0,49,57,44
0,49,55,4
0,40,54,12
0,42,116,0
0,49,66,0
0,54,98,0
0,49,53,28
0,49,51,44
0,49,49,4
0,40,59,0
0,42,108,0
0,49,75,0
0,49,47,44
0,49,45,44
0,49,43,20
0,49,41,44
0,49,40,44
0,40,60,12
0,42,112,0
0,49,83,0
0,49,38,28
0,49,36,44
0,40,59,4
0,42,109,0
0,49,73,0
0,40,54,20
0,42,109,0
0,49,81,0
0,40,55,4
0,42,121,0
0,49,70,0
0,49,99,0
0,40,51,20
0,42,107,0
0,49,76,0
0,49,103,0
0,40,56,4
0,42,118,0
0,49,78,0
0,56,107,0
0,40,67,20
0,42,107,0
0,49,77,0
0,54,90,0
0,40,54,4
0,42,108,0
0,49,77,0
0,40,68,132
0,42,108,0
0,49,79,0
0,40,49,4
0,42,118,0
0,49,79,0
0,40,66,20
0,42,120,0
0,49,78,0
0,49,34,4
0,40,62,0
0,82,76,0
0,42,106,0
0,49,66,0
0,49,107,0
0,49,35,44
0,49,37,44
0,42,112,4
0,49,39,16
0,49,40,44
0,49,42,4
0,40,63,4
0,42,109,0
0,49,79,0
0,49,99,0
0,49,43,28
0,49,45,44
0,49,46,4
0,40,50,0
0,40,111,0
0,47,76,0
0,54,103,0
0,49,48,44
0,49,50,44
0,49,51,20
0,49,54,44
0,49,52,4
0,40,63,12
0,40,106,0
0,47,67,0
0,52,91,0
0,49,51,28
0,49,49,44
0,49,48,4
0,40,52,0
0,40,119,0
0,47,76,0
0,49,46,44
0,49,45,44
0,49,43,20
0,49,42,44
0,49,40,44
0,40,62,12
0,40,113,0
0,47,82,0
0,49,39,28
0,49,37,44
0,40,65,4
0,40,111,0
0,47,75,0
0,40,51,20
0,40,119,0
0,47,76,0
0,40,60,4
0,40,121,0
0,47,69,0
0,54,107,0
0,47,109,4
0,40,60,4
0,40,118,0
0,47,74,0
0,52,94,0
0,40,49,4
0,40,111,0
0,47,70,0
0,40,59,132
0,40,120,0
0,47,72,0
0,40,68,4
0,40,107,0
0,47,66,0
0,40,58,132
0,40,104,0
0,47,70,0
0,40,66,4
0,40,117,0
0,47,66,0
0,40,65,20
0,40,117,0
0,47,75,0
0,49,31,4
0,40,53,0
0,82,86,0
0,40,120,0
0,47,68,0
0,47,109,0
0,49,33,44
0,49,35,44
0,49,37,20
0,49,38,44
0,49,40,44
0,40,52,12
0,40,107,0
0,47,80,0
0,49,42,28
0,49,44,16
0,49,93,4
0,54,97,20
0,49,45,4
0,40,68,0
0,40,105,0
0,47,81,0
0,57,97,0
0,49,47,44
0,49,51,44
0,49,49,20
0,49,48,44
0,47,94,8
0,49,46,20
0,40,57,12
0,40,113,0
0,47,75,0
0,52,93,0
0,56,103,20
0,49,44,8
0,49,43,44
0,49,41,4
0,40,56,0
0,40,109,0
0,47,79,0
0,49,40,44
0,49,38,44
0,49,37,20
0,49,35,44
0,49,34,44
0,40,52,12
0,40,104,0
0,47,76,0
0,49,32,28
0,49,31,44
0,40,57,4
0,40,104,0
0,47,71,0
0,40,60,16
0,40,107,0
0,47,79,0
0,49,101,100
0,54,92,16
0,40,64,4
0,40,119,0
0,47,83,0
0,57,95,0
0,47,90,4
0,52,107,20
0,40,65,8
0,40,117,0
0,47,65,0
0,56,102,16
0,40,65,4
0,40,113,0
0,47,76,0
0,87,98,4
0,40,67,4
0,40,117,0
0,47,79,0
0,40,66,4
0,40,120,0
0,47,72,0
0,40,66,132
0,40,114,0
0,47,83,0
0,40,67,4
0,40,121,0
0,47,74,0
0,40,52,20
0,40,113,0
0,47,69,0
0,49,33,4
0,40,64,0
0,82,69,0
0,40,109,0
0,47,74,0
0,47,94,0
0,49,35,16
0,49,37,32
0,49,39,20
0,49,41,44
0,49,43,4
0,40,67,12
0,40,121,0
0,47,82,0
0,47,95,0
0,49,45,28
0,49,47,44
0,49,100,16
0,54,96,12
0,49,50,4
0,40,53,0
0,40,109,0
0,47,81,0
0,57,108,0
0,49,52,44
0,49,55,44
0,49,55,20
0,49,55,44
0,47,98,24
0,49,54,4
0,52,107,4
0,40,59,8
0,40,121,0
0,47,79,0
0,56,104,12
0,49,53,16
0,49,51,16
0,49,50,4
0,40,66,0
0,40,120,0
0,47,76,0
0,49,49,44
0,49,48,44
0,49,46,20
0,49,45,44
0,49,44,44
0,40,61,12
0,40,121,0
0,47,71,0
0,49,42,28
0,49,41,44
0,40,51,4
0,40,117,0
0,47,71,0
0,40,57,0
0,40,120,0
0,47,69,0
0,49,97,92
0,54,102,12
0,40,61,4
0,40,104,0
0,47,75,0
0,57,99,4
0,47,109,12
0,52,97,12
0,40,61,8
0,40,111,0
0,47,75,0
0,56,90,12
0,40,50,4
0,40,113,0
0,47,69,0
0,87,103,4
0,40,58,128
0,40,113,0
0,47,68,0
0,40,60,4
0,40,119,0
0,47,72,0
0,40,49,4
0,40,110,0
0,47,66,0
0,40,67,4
0,40,117,0
0,47,82,0
0,40,51,132
0,40,123,0
0,47,79,0
0,47,104,0
0,49,30,4
0,40,49,0
0,82,82,0
0,35,105,0
0,47,77,0
0,49,93,0
0,49,32,16
0,49,34,32
0,37,110,4
0,52,94,0
0,49,35,16
0,49,37,32
0,49,39,4
0,40,52,4
0,40,115,0
0,47,71,0
0,49,95,0
0,49,41,28
0,49,43,16
0,49,45,4
0,40,67,0
0,42,108,0
0,49,75,0
0,56,92,0
0,49,46,16
0,49,51,32
0,49,49,20
0,49,48,44
0,49,47,4
0,40,66,12
0,42,106,0
0,49,68,0
0,54,93,0
0,49,46,28
0,49,44,16
0,49,43,4
0,40,52,0
0,42,110,0
0,49,73,0
0,49,42,44
0,49,41,44
0,49,39,20
0,49,38,44
0,49,37,44
0,40,58,12
0,42,114,0
0,49,73,0
0,49,36,28
0,49,34,44
0,40,59,4
0,42,105,0
0,49,79,0
0,80,103,0
0,40,52,20
0,42,109,0
0,49,82,0
0,40,59,4
0,42,121,0
0,49,65,0
0,54,108,0
0,56,93,4
0,40,59,20
0,42,108,0
0,49,68,0
0,59,103,0
0,40,63,4
0,42,120,0
0,49,79,0
0,56,97,0
0,40,58,20
0,42,121,0
0,49,83,0
0,54,94,0
0,40,59,4
0,42,108,0
0,49,80,0
0,40,63,132
0,42,118,0
0,49,81,0
0,40,55,4
0,42,120,0
0,49,81,0
0,80,97,0
0,40,60,132
0,42,116,0
0,49,77,0
0,49,32,4
0,40,52,0
0,82,78,0
0,42,121,0
0,49,64,0
0,49,100,0
0,49,34,44
0,49,35,44
0,42,115,4
0,52,104,0
0,49,37,16
0,49,39,44
0,49,40,4
0,40,64,4
0,42,112,0
0,49,67,0
0,54,95,0
0,49,42,28
0,49,44,16
0,49,46,4
0,40,49,0
0,40,122,0
0,47,81,0
0,56,97,0
0,49,47,16
0,49,50,32
0,49,49,16
0,49,47,32
0,49,46,4
0,40,49,12
0,40,114,0
0,47,64,0
0,52,90,0
0,49,45,28
0,49,44,44
0,49,42,4
0,40,59,0
0,40,107,0
0,47,69,0
0,49,41,44
0,49,40,44
0,49,39,20
0,49,37,44
0,49,36,44
0,40,62,12
0,40,107,0
0,47,79,0
0,49,35,28
0,49,34,44
0,40,49,4
0,40,120,0
0,47,77,0
0,40,52,20
0,40,105,0
0,47,68,0
0,47,99,0
0,40,62,4
0,40,106,0
0,47,68,0
0,54,101,0
0,40,63,20
0,40,105,0
0,47,81,0
0,52,107,0
0,40,61,4
0,40,117,0
0,47,69,0
0,40,67,132
0,40,118,0
0,47,83,0
0,40,64,4
0,40,114,0
0,47,64,0
0,40,56,132
0,40,116,0
0,47,82,0
0,40,56,4
0,40,120,0
0,47,81,0
0,40,52,132
0,40,121,0
0,47,72,0
0,40,55,4
0,40,117,0
0,47,76,0
0,35,109,4
0,40,56,4
0,37,116,0
0,47,64,0
0,40,50,4
0,40,113,0
0,47,70,0
0,68,109,0
0,71,109,0
0,40,57,4
0,40,121,0
0,47,82,0
0,68,108,0
0,71,103,0
0,40,66,4
0,40,122,0
0,47,82,0
0,40,50,132
0,40,112,0
0,47,83,0
0,40,61,4
0,40,115,0
0,47,80,0
0,40,58,20
0,40,112,0
0,47,73,0
0,49,34,4
0,40,49,0
0,82,78,0
0,40,110,0
0,47,74,0
0,68,101,0
0,71,95,0
0,49,35,44
0,49,37,44
0,49,39,20
0,49,40,44
0,49,42,4
0,40,55,4
0,40,115,0
0,47,65,0
0,64,103,0
0,68,101,0
0,49,43,28
0,49,45,44
0,49,46,4
0,40,53,0
0,40,108,0
0,47,78,0
0,68,97,0
0,71,103,0
0,49,48,44
0,49,50,44
0,49,51,20
0,49,52,44
0,49,51,44
0,40,58,12
0,40,107,0
0,47,83,0
0,49,50,28
0,49,48,44
0,49,47,4
0,40,52,0
0,40,115,0
0,47,68,0
0,49,46,44
0,49,45,44
0,49,43,20
0,49,42,44
0,49,41,44
0,40,53,12
0,40,115,0
0,47,81,0
0,49,40,28
0,49,38,44
0,40,49,4
0,40,107,0
0,47,83,0
0,40,56,132
0,40,104,0
0,47,68,0
0,40,54,4
0,40,106,0
0,47,71,0
0,47,113,4
0,40,56,4
0,40,118,0
0,47,73,0
0,40,61,4
0,40,118,0
0,47,68,0
0,68,96,0
0,71,103,0
0,40,50,4
0,40,105,0
0,47,76,0
0,68,103,0
0,71,98,0
0,40,49,4
0,40,121,0
0,47,82,0
0,40,54,132
0,40,118,0
0,47,74,0
0,40,53,4
0,40,107,0
0,47,76,0
0,40,65,20
0,40,110,0
0,47,78,0
0,40,53,4
0,40,116,0
0,47,66,0
0,68,104,0
0,71,105,0
0,40,49,4
0,40,117,0
0,47,69,0
0,64,100,0
0,68,95,0
0,40,67,4
0,40,116,0
0,47,81,0
0,68,108,0
0,71,93,0
0,40,63,4
0,40,117,0
0,47,72,0
0,68,97,0
0,71,99,0
0,40,57,4
0,40,109,0
0,47,70,0
0,40,51,132
0,40,117,0
0,47,65,0
0,40,67,4
0,40,111,0
0,47,66,0
0,68,106,4
0,71,109,0
0,40,54,32
0,40,107,0
0,47,81,0
0,49,34,4
0,40,60,0
0,82,73,0
0,40,112,0
0,47,81,0
0,49,35,44
0,49,37,44
0,35,120,4
0,49,38,16
0,49,39,44
0,49,41,4
0,40,66,4
0,37,113,0
0,47,78,0
0,49,42,28
0,49,43,44
0,49,45,4
0,40,62,0
0,42,121,0
0,49,77,0
0,68,92,0
0,71,108,0
0,49,46,44
0,49,47,44
0,49,48,20
0,49,49,44
0,49,48,8
0,40,67,4
0,42,113,0
0,49,71,0
0,49,46,28
0,49,45,44
0,49,44,4
0,40,58,0
0,42,116,0
0,49,74,0
0,49,42,44
0,49,41,44
0,49,40,20
0,49,39,44
0,49,37,44
0,40,60,12
0,42,106,0
0,49,76,0
0,49,36,28
0,49,35,44
0,40,56,4
0,42,118,0
0,49,73,0
0,80,95,0
0,40,65,32
0,42,117,0
0,49,78,0
0,40,63,4
0,42,121,0
0,49,65,0
0,37,116,4
0,40,55,4
0,40,118,0
0,49,75,0
0,40,61,4
0,42,110,0
0,49,65,0
0,68,108,0
0,71,95,0
0,40,64,4
0,42,117,0
0,49,73,0
0,40,66,4
0,42,113,0
0,49,83,0
0,40,65,32
0,42,113,0
0,49,75,0
0,40,62,4
0,42,108,0
0,49,82,0
0,81,103,0
0,40,66,16
0,42,120,0
0,49,65,0
0,49,32,4
0,40,60,0
0,82,83,0
0,42,119,0
0,49,72,0
0,49,33,16
0,49,35,12
0,37,114,4
0,49,36,16
0,49,37,32
0,49,39,16
0,40,65,4
0,42,112,0
0,49,80,0
0,49,40,28
0,49,41,16
0,49,43,4
0,40,53,0
0,40,106,0
0,47,73,0
0,66,98,0
0,69,104,0
0,49,44,44
0,49,48,44
0,49,47,20
0,49,46,44
0,49,46,44
0,40,59,4
0,40,118,0
0,47,69,0
0,49,45,28
0,49,44,44
0,49,43,4
0,40,57,0
0,40,120,0
0,47,80,0
0,49,42,16
0,49,41,32
0,49,40,16
0,49,39,32
0,49,38,44
0,40,50,12
0,40,110,0
0,47,67,0
0,49,37,28
0,49,36,44
0,40,57,4
0,40,112,0
0,47,70,0
0,40,62,4
0,40,114,0
0,47,83,0
0,61,91,0
0,64,101,0
0,40,63,4
0,40,108,0
0,47,65,0
0,66,102,0
0,69,94,0
0,47,117,4
0,40,59,4
0,47,115,0
0,47,81,0
0,40,52,4
0,40,116,0
0,47,76,0
0,40,63,132
0,40,116,0
0,47,68,0
0,40,60,4
0,40,109,0
0,47,75,0
0,40,65,132
0,40,118,0
0,47,66,0
0,40,56,4
0,40,121,0
0,47,79,0
0,40,64,132
0,40,123,0
0,47,68,0
0,49,26,4
0,40,54,0
0,82,71,0
0,40,116,0
0,47,68,0
0,49,28,44
0,49,30,44
0,49,31,20
0,49,33,44
0,49,35,4
0,40,64,12
0,40,120,0
0,47,72,0
0,49,36,28
0,49,38,44
0,49,40,4
