track,note,velocity,time
0,40,66,0
0,40,0,1
0,53,82,1
0,53,80,1
0,60,68,57
0,60,73,3
0,60,0,27
0,40,58,15
0,40,0,1
0,65,73,15
0,65,78,2
0,65,0,20
0,69,84,37
0,69,83,2
0,69,0,18
0,60,63,101
0,60,0,20
0,40,50,17
0,40,0,1
0,65,71,81
0,65,0,20
0,53,0,7
0,53,0,11
0,40,61,7
0,40,0,1
0,53,78,17
0,53,76,1
0,60,0,1
0,65,0,12
0,62,66,21
0,62,70,2
0,62,0,20
0,67,68,38
0,67,66,2
0,67,0,14
0,71,80,44
0,71,74,1
0,71,0,17
0,40,58,27
0,40,0,1
0,67,68,72
0,67,0,24
0,62,73,36
0,62,0,18
0,53,0,64
0,53,0,13
0,40,65,10
0,40,0,1
0,62,0,14
0,53,66,1
0,53,80,3
0,67,0,4
0,71,0,3
0,64,68,17
0,64,68,4
0,64,0,24
0,69,75,32
0,69,76,3
0,69,0,17
0,72,73,40
0,72,78,0
0,72,0,20
0,40,51,22
0,40,0,1
0,69,70,77
0,69,0,24
0,40,53,14
0,40,0,1
0,64,69,21
0,64,0,24
0,69,67,37
0,69,0,14
0,53,0,5
0,53,0,23
0,40,56,2
0,40,0,1
0,64,0,16
0,53,90,1
0,53,73,1
0,69,0,1
0,72,0,3
0,62,73,12
0,62,65,1
0,62,0,26
0,40,40,22
0,40,0,1
0,67,68,11
0,67,65,0
0,67,0,20
0,71,73,38
0,71,70,2
0,71,0,16
0,40,50,34
0,40,0,1
0,62,58,67
0,62,0,18
0,40,58,33
0,40,0,1
0,67,65,10
0,67,0,14
0,53,0,55
0,53,0,21
0,40,48,16
0,40,0,1
0,62,0,6
0,67,0,3
0,71,0,2
0,53,73,0
0,53,69,2
0,60,51,16
0,60,60,0
0,60,0,26
0,65,79,33
0,65,66,0
0,65,0,22
0,69,79,37
0,69,71,1
0,69,0,22
0,40,55,27
0,40,0,1
0,60,58,70
0,60,0,20
0,65,66,100
0,53,0,16
0,65,0,4
0,53,0,16
0,40,63,12
0,40,0,1
0,53,77,11
0,53,65,0
0,60,0,3
0,62,73,39
0,62,65,2
0,62,0,20
0,40,54,36
0,67,75,1
0,40,0,0
0,67,66,3
0,67,0,18
0,71,74,39
0,71,72,3
0,71,0,22
0,40,64,36
0,40,0,1
0,67,66,59
0,67,0,24
0,40,50,22
0,40,0,1
0,62,64,13
0,62,0,22
0,67,65,38
0,67,0,16
0,53,0,4
0,53,0,18
0,53,63,22
0,53,77,3
0,62,0,13
0,71,0,3
0,67,0,4
0,64,65,12
0,64,60,1
0,64,0,19
0,40,49,22
0,40,0,1
0,69,75,16
0,69,78,0
0,69,0,20
0,72,80,40
0,72,80,1
0,72,0,19
0,69,61,100
0,69,0,26
0,40,63,25
0,40,0,1
0,64,60,9
0,64,0,20
0,53,0,50
0,40,56,32
0,53,0,1
0,40,0,0
0,53,70,16
0,53,66,2
0,64,0,2
0,72,0,3
0,62,60,18
0,62,57,1
0,62,0,28
0,40,56,9
0,40,0,1
0,67,73,21
0,67,68,1
0,67,0,22
0,71,73,37
0,71,72,1
0,71,0,22
0,40,77,30
0,40,0,1
0,67,58,67
0,67,0,22
0,40,59,35
0,40,0,1
0,62,64,3
0,62,0,16
0,40,60,3
0,40,0,1
0,53,56,3
0,62,93,0
0,53,77,0
0,60,57,12
0,60,58,0
0,64,89,0
0,62,0,9
0,60,0,13
0,65,75,35
0,65,70,0
0,64,0,2
0,62,100,0
0,65,0,19
0,62,0,36
0,69,70,2
0,69,74,1
0,60,90,0
0,69,0,22
0,60,0,18
0,40,73,10
0,40,0,1
0,60,94,0
0,60,59,57
0,60,0,18
0,60,0,14
0,40,53,14
0,40,0,1
0,60,86,0
0,65,54,58
0,65,0,8
0,53,0,7
0,53,0,28
0,40,71,2
0,40,0,1
0,53,60,13
0,53,79,2
0,60,0,1
0,69,0,8
0,65,0,1
0,62,66,21
0,62,69,1
0,62,0,25
0,60,0,2
0,67,65,16
0,67,74,1
0,67,0,19
0,71,73,40
0,71,77,0
0,71,0,24
0,40,64,26
0,40,0,1
0,67,64,69
0,67,0,24
0,40,72,28
0,40,0,1
0,62,62,7
0,62,0,22
0,67,56,38
0,40,69,7
0,40,0,1
0,62,90,0
0,53,70,0
0,53,63,3
0,64,68,11
0,62,82,0
0,64,68,0
0,64,0,21
0,62,0,19
0,62,76,0
0,69,73,1
0,69,78,1
0,69,0,21
0,62,0,32
0,64,84,0
0,72,80,1
0,72,80,0
0,72,0,22
0,64,0,16
0,40,68,7
0,40,0,1
0,62,97,0
0,69,64,59
0,40,68,15
0,40,0,1
0,64,67,10
0,64,0,20
0,40,64,10
0,40,0,1
0,53,58,1
0,53,78,2
0,64,0,1
0,72,0,7
0,62,0,1
0,69,0,0
0,62,58,13
0,62,58,1
0,62,0,23
0,40,58,26
0,40,0,1
0,67,68,9
0,67,69,2
0,67,0,20
0,71,72,38
0,71,78,0
0,71,0,20
0,40,55,32
0,40,0,1
0,40,65,126
0,62,66,1
0,40,0,0
0,62,0,16
0,62,93,0
0,53,75,2
0,62,0,1
0,53,58,0
0,40,64,0
0,64,95,0
0,60,58,1
0,60,65,1
0,60,0,20
0,64,0,14
0,40,54,18
0,40,0,1
0,64,81,0
0,65,65,2
0,65,72,0
0,65,0,20
0,64,0,22
0,64,97,0
0,69,75,1
0,69,80,0
0,69,0,20
0,64,0,7
0,40,68,30
0,40,0,1
0,62,86,0
0,60,64,61
0,60,0,14
0,40,54,28
0,40,0,1
0,65,66,1
0,40,45,6
0,40,0,1
0,53,60,0
0,53,74,0
0,60,0,3
0,62,66,21
0,62,59,1
0,62,0,16
0,40,54,31
0,40,0,1
0,67,70,11
0,67,69,1
0,67,0,18
0,60,69,0
0,71,77,3
0,71,73,1
0,71,0,19
0,60,0,4
0,62,94,0
0,40,78,24
0,62,0,1
0,40,0,0
0,62,81,0
0,62,0,47
0,62,95,0
0,67,60,0
0,67,0,14
0,40,60,35
0,40,0,1
0,62,69,11
0,62,0,16
0,62,0,4
0,62,97,0
0,40,71,3
0,40,0,1
0,53,56,8
0,53,76,3
0,62,0,17
0,71,0,1
0,62,83,0
0,64,64,0
0,64,74,2
0,64,0,18
0,62,0,4
0,40,58,32
0,40,0,1
0,62,95,0
0,69,73,0
0,69,73,2
0,69,0,20
0,60,83,0
0,72,83,0
0,62,0,1
0,72,78,0
0,72,0,21
0,60,0,6
0,40,61,22
0,40,0,1
0,62,93,0
0,69,67,58
0,69,0,26
0,40,58,23
0,40,0,1
0,64,63,10
0,69,64,21
0,69,0,10
0,53,0,3
0,53,0,27
0,40,55,9
0,40,0,1
0,64,0,4
0,53,76,6
0,53,63,0
0,62,63,3
0,62,61,1
0,40,56,2
0,40,0,1
0,67,71,0
0,67,71,0
0,71,70,41
0,71,77,1
0,71,0,18
0,40,71,47
0,40,0,1
0,67,61,54
0,67,0,22
0,40,62,33
0,40,0,1
0,62,66,4
0,62,0,18
0,53,0,64
0,53,0,22
0,40,63,15
0,40,0,1
0,53,77,1
0,53,60,0
0,62,0,2
0,71,0,6
0,67,0,1
0,60,53,13
0,60,59,2
0,60,0,22
0,40,54,32
0,40,0,1
0,65,69,3
0,65,68,2
0,65,0,18
0,69,69,40
0,69,70,0
0,69,0,22
0,40,74,31
0,40,0,1
0,60,60,66
0,60,0,20
0,40,57,29
0,40,0,1
0,65,65,70
0,53,0,13
0,65,0,7
0,53,0,27
0,40,60,2
0,40,0,1
0,60,0,8
0,53,76,2
0,53,69,2
0,65,0,6
0,69,0,4
0,62,68,1
0,62,73,2
0,62,0,16
0,40,69,9
0,40,0,1
0,67,68,4
0,67,75,1
0,67,0,19
0,71,74,39
0,71,69,2
0,71,0,20
0,40,65,38
0,40,0,1
0,67,61,59
0,67,0,22
0,40,68,35
0,40,0,1
0,62,64,2
0,62,0,18
0,53,0,60
0,53,0,24
0,40,71,12
0,40,0,1
0,53,59,6
0,53,80,1
0,62,0,4
0,67,0,4
0,71,0,2
0,64,73,17
0,64,71,0
0,64,0,22
0,40,66,29
0,40,0,1
0,69,72,8
0,69,76,2
0,69,0,20
0,72,79,38
0,72,79,0
0,72,0,22
0,40,63,26
0,40,0,1
0,64,58,71
0,64,0,18
0,40,68,34
0,40,0,1
0,69,73,7
0,69,0,16
0,53,0,54
0,53,0,25
0,40,67,17
0,40,0,1
0,53,62,7
0,53,79,1
0,64,0,3
0,69,0,8
0,72,0,2
0,62,62,13
0,62,62,1
0,62,0,21
0,40,65,34
0,40,0,1
0,67,68,3
0,67,73,2
0,67,0,18
0,71,66,40
0,71,72,1
0,71,0,21
0,40,67,23
0,40,0,1
0,67,66,8
0,38,89,12
0,38,0,1
0,67,0,7
0,38,89,12
0,38,0,1
0,62,71,27
0,37,127,10
0,37,0,1
0,62,0,7
0,38,127,48
0,38,0,1
0,53,0,6
0,29,107,48
0,62,0,0
0,71,0,0
0,69,88,0
0,36,117,1
0,53,0,0
0,65,85,0
0,40,62,0
0,36,0,1
0,69,88,0
0,65,86,0
0,40,0,0
0,67,0,1
0,60,87,0
0,60,64,0
0,60,0,73
0,40,35,40
0,40,0,1
0,39,127,4
0,60,64,0
0,39,0,1
0,65,0,7
0,69,0,0
0,60,0,1
0,29,0,3
0,69,0,4
0,65,0,1
0,29,95,40
0,36,93,3
0,60,81,0
0,67,85,0
0,64,86,0
0,36,0,1
0,67,79,1
0,64,79,0
0,29,0,28
0,40,35,24
0,40,0,1
0,29,104,3
0,36,111,2
0,36,0,1
0,60,0,4
0,64,0,51
0,67,0,3
0,60,61,2
0,64,0,12
0,60,0,2
0,67,0,3
0,40,46,37
0,40,0,1
0,39,127,3
0,39,0,1
0,69,88,0
0,69,87,1
0,65,81,0
0,60,84,0
0,65,79,0
0,29,0,17
0,29,97,40
0,60,0,23
0,29,0,7
0,40,39,28
0,40,0,1
0,65,0,1
0,60,57,0
0,36,90,1
0,69,0,0
0,36,0,1
0,29,102,0
0,60,0,21
0,65,0,0
0,69,0,3
0,67,84,32
0,64,91,0
0,60,80,6
0,64,88,0
0,67,86,0
0,60,0,28
0,40,41,28
0,40,0,1
0,39,127,1
0,39,0,1
0,29,0,18
0,60,50,37
0,29,95,2
0,36,86,3
0,36,0,1
0,60,0,2
0,67,0,2
0,64,0,0
0,64,0,0
0,67,0,0
0,29,0,19
0,40,23,32
0,29,98,1
0,69,85,0
0,69,83,0
0,65,78,0
0,40,0,0
0,60,75,2
0,65,78,0
0,36,103,2
0,36,0,1
0,60,0,24
0,29,0,30
0,31,84,0
0,60,53,1
0,69,0,8
0,65,0,3
0,65,0,5
0,60,0,0
0,69,0,1
0,40,41,39
0,40,0,1
0,31,0,1
0,67,81,1
0,64,87,0
0,33,100,1
0,39,127,2
0,64,83,0
0,67,76,0
0,60,77,0
0,39,0,1
0,60,0,18
0,36,95,38
0,60,53,1
0,33,0,1
0,60,0,4
0,64,0,0
0,67,0,3
0,67,0,2
0,64,0,2
0,40,41,44
0,40,0,1
0,36,0,3
0,38,104,0
0,69,81,1
0,60,77,0
0,69,83,0
0,65,80,0
0,36,99,1
0,65,73,0
0,36,0,1
0,60,0,69
0,40,41,45
0,40,0,1
0,39,127,2
0,60,45,0
0,39,0,1
0,69,0,4
0,65,0,5
0,65,0,4
0,69,0,1
0,38,0,1
0,60,0,2
0,67,80,42
0,64,85,0
0,38,88,2
0,67,81,0
0,60,80,0
0,64,87,0
0,36,90,1
0,36,0,1
0,38,0,19
0,40,16,32
0,40,0,1
0,38,101,4
0,36,97,2
0,36,0,1
0,60,0,6
0,67,0,48
0,60,47,2
0,64,0,1
0,60,0,6
0,64,0,3
0,67,0,5
0,40,40,42
0,40,0,1
0,65,80,1
0,69,88,1
0,39,127,2
0,69,91,0
0,60,81,0
0,65,86,0
0,39,0,1
0,33,98,58
0,38,0,3
0,60,0,6
0,60,50,50
0,40,43,0
0,36,100,1
0,40,0,0
0,36,0,1
0,33,0,2
0,38,108,0
0,69,0,0
0,65,0,2
0,65,0,8
0,69,0,0
0,60,0,3
0,67,86,43
0,64,86,0
0,67,80,3
0,60,73,0
0,64,81,0
0,40,48,57
0,39,127,1
0,40,0,0
0,39,0,1
0,60,0,5
0,38,0,5
0,36,85,49
0,38,95,0
0,60,47,0
0,36,0,1
0,60,0,8
0,67,0,0
0,64,0,2
0,64,0,1
0,67,0,5
0,38,0,7
0,40,36,32
0,40,0,1
0,38,96,2
0,36,90,1
0,65,79,0
0,69,87,0
0,36,0,1
0,69,80,1
0,60,72,0
0,65,76,0
0,60,0,21
0,40,86,36
0,38,0,1
0,60,53,0
0,69,0,9
0,69,0,4
0,65,0,1
0,65,0,2
0,60,0,2
0,40,42,36
0,40,0,1
0,40,0,4
0,39,127,1
0,67,80,0
0,64,87,0
0,39,0,1
0,41,98,0
0,67,77,2
0,64,85,0
0,60,81,0
0,60,0,21
0,41,0,38
0,36,98,0
0,60,49,0
0,67,0,1
0,64,0,3
0,60,0,9
0,64,0,0
0,67,0,0
0,40,40,40
0,40,0,1
0,36,95,3
0,36,0,1
0,34,105,1
0,69,85,0
0,60,79,0
0,65,79,0
0,69,79,0
0,65,83,1
0,36,0,1
0,60,0,54
0,40,42,59
0,40,0,1
0,39,127,3
0,69,0,0
0,65,0,0
0,60,60,0
0,39,0,1
0,34,0,4
0,65,0,14
0,60,0,4
0,69,0,0
0,64,86,36
0,67,80,0
0,34,101,1
0,36,82,1
0,36,0,1
0,60,78,1
0,64,84,0
0,67,80,1
0,34,0,15
0,40,37,37
0,40,0,1
0,36,86,3
0,34,117,0
0,36,0,1
0,60,0,1
0,60,0,50
0,67,0,1
0,64,0,0
0,67,0,1
0,64,0,1
0,60,50,3
0,40,43,58
0,40,0,1
0,65,78,1
0,69,85,0
0,69,85,1
0,60,81,0
0,65,87,0
0,39,127,1
0,39,0,1
0,34,0,20
0,34,103,40
0,60,0,4
0,34,0,17
0,40,37,34
0,40,0,1
0,36,100,2
0,60,51,0
0,36,0,1
0,34,109,0
0,69,0,10
0,65,0,2
0,65,0,7
0,60,0,0
0,69,0,0
0,64,87,40
0,67,83,0
0,60,75,3
0,64,87,0
0,67,80,0
0,40,46,55
0,40,0,1
0,60,0,1
0,39,127,1
0,39,0,1
0,34,0,14
0,67,0,38
0,64,0,0
0,60,52,4
0,34,103,1
0,64,0,1
0,60,0,0
0,36,85,1
0,36,0,1
0,67,0,1
0,34,0,21
0,40,34,33
0,65,80,1
0,69,87,0
0,40,0,0
0,34,107,2
0,69,86,0
0,65,85,0
0,60,77,0
0,36,96,1
0,36,0,1
0,60,0,25
0,60,58,34
0,69,0,16
0,65,0,2
0,60,0,2
0,65,0,0
0,69,0,0
0,34,0,3
0,40,42,33
0,40,0,1
0,34,97,1
0,67,81,1
0,39,127,1
0,64,87,0
0,39,0,1
0,64,90,1
0,67,80,0
0,60,78,0
0,60,0,29
0,31,90,28
0,60,59,3
0,34,0,1
0,67,0,10
0,64,0,1
0,40,40,41
0,40,0,1
0,36,112,4
0,36,94,3
0,36,0,1
0,65,78,0
0,69,86,0
0,31,0,2
0,60,0,10
0,67,0,0
0,64,0,0
0,60,0,58
0,40,42,42
0,40,0,1
0,60,81,3
0,69,80,0
0,65,84,0
0,60,61,0
0,39,127,2
0,39,0,1
0,69,0,3
0,65,0,3
0,36,0,12
0,36,88,40
0,69,0,0
0,36,0,1
0,36,97,0
0,67,85,0
0,64,88,1
0,65,0,1
0,60,0,2
0,36,0,19
0,40,37,31
0,40,0,1
0,60,75,3
0,64,87,0
0,67,80,0
0,36,103,2
0,36,110,0
0,36,0,1
0,60,0,17
0,60,60,40
0,64,0,3
0,67,0,1
0,40,44,54
0,40,0,1
0,69,87,1
0,65,83,0
0,39,127,2
0,39,0,1
0,60,0,4
0,64,0,3
0,67,0,5
0,36,0,3
0,36,101,42
0,69,87,0
0,65,81,0
0,60,86,0
0,60,0,5
0,36,0,16
0,40,36,36
0,40,0,1
