track,note,velocity,time
1,83,82,0
1,78,76,432
1,76,76,96
1,78,76,480
1,76,76,96
1,78,76,96
1,83,95,48
1,78,88,432
1,76,88,48
1,78,88,432
1,78,101,48
1,83,101,48
1,78,95,432
1,76,95,48
1,78,95,432
1,76,95,48
1,78,95,48
1,83,95,48
1,78,95,432
1,76,95,48
1,78,95,432
1,78,95,48
1,71,95,432
1,71,95,48
1,71,95,48
1,66,95,48
1,68,95,48
1,66,82,48
1,66,82,48
1,64,82,48
1,64,82,48
1,64,82,48
1,66,95,48
1,64,82,48
1,63,82,48
1,71,95,48
1,71,95,48
1,66,82,48
1,68,82,48
1,70,95,48
1,68,88,48
1,66,82,48
1,63,82,48
1,64,88,48
1,66,76,192
1,71,95,48
1,71,95,48
1,71,95,48
1,66,82,48
1,68,82,48
1,66,82,48
1,66,82,48
1,64,82,48
1,64,82,48
1,66,82,48
1,64,82,48
1,64,82,48
1,63,82,48
1,71,95,48
1,68,95,48
1,66,95,48
1,68,95,48
1,70,95,48
1,68,95,48
1,66,82,48
1,71,95,816
1,71,95,48
1,71,95,48
1,66,95,48
1,68,95,48
1,66,95,48
1,66,95,48
1,64,95,48
1,64,95,48
1,64,95,48
1,66,95,48
1,64,95,48
1,63,95,48
1,71,95,48
1,71,95,48
1,66,95,48
1,68,95,48
1,70,95,48
1,68,95,48
1,66,95,48
1,63,95,48
1,64,95,48
1,70,95,432
1,71,95,48
1,71,95,48
1,71,95,48
1,66,95,48
1,68,95,48
1,66,95,0
1,66,95,48
1,64,95,48
1,64,95,48
1,66,95,48
1,64,95,48
1,64,95,48
1,63,95,48
1,71,95,48
1,68,95,48
1,66,95,48
1,68,95,48
1,70,95,48
1,68,95,48
1,66,95,48
1,73,95,0
1,75,95,48
1,73,88,48
1,71,88,48
1,71,88,48
1,64,88,48
1,71,88,48
1,71,82,48
1,66,95,0
1,64,95,48
1,66,95,48
1,66,95,48
1,64,95,48
1,63,95,48
1,71,95,0
1,64,95,48
1,71,95,48
1,71,101,48
1,66,101,240
1,66,95,48
1,64,95,48
1,66,95,48
1,64,88,48
1,63,82,48
1,71,95,0
1,64,95,48
1,71,95,48
1,71,95,48
1,64,88,0
1,66,88,48
1,64,88,48
1,66,88,48
1,64,88,48
1,63,88,48
1,66,101,48
1,64,101,48
1,63,101,48
1,71,101,0
1,64,101,48
1,71,101,48
1,71,101,48
1,64,101,0
1,66,101,48
1,64,88,48
1,66,88,48
1,66,88,48
1,64,82,48
1,63,82,48
1,71,82,0
1,64,82,48
1,71,82,48
1,71,88,48
1,71,82,0
1,70,95,48
1,70,95,48
1,70,95,48
1,71,95,48
1,70,95,48
1,71,82,48
1,64,82,48
1,63,82,48
1,68,82,48
1,68,95,48
1,66,95,48
1,66,95,48
1,64,95,48
1,66,95,48
1,64,95,48
1,63,95,48
1,66,95,48
1,64,82,48
1,63,82,48
1,71,95,0
1,64,95,48
1,71,95,48
1,71,95,48
1,66,82,0
1,64,82,48
1,66,82,48
1,64,82,48
1,66,82,48
1,64,82,48
1,63,82,48
1,66,95,48
1,64,88,48
1,63,82,48
1,71,95,48
1,64,95,48
1,71,95,48
1,71,95,48
1,64,95,240
1,66,95,48
1,63,95,0
1,56,95,48
1,54,95,48
1,71,95,240
1,64,95,240
1,66,95,48
1,71,95,48
1,71,95,48
1,71,95,48
1,66,95,48
1,68,95,48
1,66,82,48
1,66,82,48
1,64,82,48
1,64,82,48
1,64,82,48
1,66,95,48
1,64,82,48
1,63,82,48
1,71,95,48
1,71,95,48
1,66,82,48
1,68,82,48
1,70,95,48
1,68,88,48
1,66,82,48
1,63,82,48
1,64,82,48
1,66,95,192
1,71,95,48
1,71,95,48
1,71,95,48
1,66,82,48
1,68,82,48
1,66,82,48
1,66,82,48
1,64,82,48
1,64,82,48
1,66,82,48
1,64,82,48
1,64,82,48
1,63,82,48
1,71,95,48
1,68,95,48
1,66,95,48
1,68,95,48
1,70,95,48
1,68,95,48
1,66,82,48
1,71,95,816
1,71,95,48
1,71,95,48
1,66,95,48
1,68,95,48
1,66,95,48
1,66,95,48
1,64,95,48
1,64,95,48
1,64,95,48
1,66,95,48
1,64,95,48
1,63,95,48
1,71,95,48
1,71,95,48
1,66,95,48
1,68,95,48
1,70,95,48
1,68,95,48
1,66,95,48
1,63,95,48
1,64,95,48
1,70,95,432
1,71,95,48
1,71,95,48
1,71,95,48
1,66,95,48
1,68,95,48
1,66,95,0
1,66,95,48
1,64,95,48
1,64,95,48
1,66,95,48
1,64,95,48
1,64,95,48
1,63,95,48
1,71,95,48
1,68,95,48
1,66,95,48
1,68,95,48
1,70,95,48
1,68,95,48
1,66,95,48
1,73,95,0
1,75,95,48
1,73,88,48
1,71,88,48
1,71,88,48
1,64,88,48
1,71,88,48
1,71,82,48
1,66,95,0
1,64,95,48
1,66,95,48
1,66,95,48
1,64,95,48
1,63,95,48
1,71,95,0
1,64,95,48
1,71,95,48
1,71,101,48
1,66,101,240
1,66,95,48
1,64,95,48
1,66,95,48
1,64,88,48
1,63,82,48
1,71,95,0
1,64,95,48
1,71,95,48
1,71,95,48
1,64,88,0
1,66,88,48
1,64,88,48
1,66,88,48
1,64,88,48
1,63,88,48
1,66,101,48
1,64,101,48
1,63,101,48
1,71,101,0
1,64,101,48
1,71,101,48
1,71,101,48
1,64,101,0
1,66,101,48
1,64,88,48
1,66,88,48
1,66,88,48
1,64,82,48
1,63,82,48
1,71,82,0
1,64,82,48
1,71,82,48
1,71,88,48
1,71,82,0
1,70,95,48
1,70,95,48
1,70,95,48
1,71,95,48
1,70,95,48
1,71,82,48
1,64,82,48
1,63,82,48
1,68,82,48
1,68,95,48
1,66,95,48
1,66,95,48
1,64,95,48
1,66,95,48
1,64,95,48
1,63,95,48
1,66,95,48
1,64,82,48
1,63,82,48
1,71,95,0
1,64,95,48
1,71,95,48
1,71,95,48
1,66,82,0
1,64,82,48
1,66,82,48
1,64,82,48
1,66,82,48
1,64,82,48
1,63,82,48
1,66,95,48
1,64,88,48
1,63,82,48
1,71,95,48
1,64,95,48
1,71,95,48
1,71,95,48
1,70,95,240
1,68,95,48
1,66,95,48
1,68,95,48
1,66,95,48
1,71,95,48
1,71,95,48
1,64,95,240
1,66,95,48
1,63,95,48
1,56,95,48
1,54,95,48
1,71,95,240
1,64,95,240
1,66,95,48
1,71,95,48
1,71,95,48
1,71,95,48
1,66,95,48
1,68,95,48
1,66,82,48
1,66,82,48
1,64,82,48
1,64,82,48
1,64,82,48
1,66,95,48
1,64,82,48
1,63,82,48
1,71,95,48
1,71,95,48
1,66,82,48
1,68,82,48
1,70,95,48
1,68,88,48
1,66,82,48
1,63,82,48
1,64,82,48
1,66,95,192
1,71,95,48
1,71,95,48
1,71,95,48
1,66,82,48
1,68,82,48
1,66,82,48
1,66,82,48
1,64,82,48
1,64,82,48
1,66,82,48
1,64,82,48
1,64,82,48
1,63,82,48
1,71,95,48
1,68,95,48
1,66,95,48
1,68,95,48
1,70,95,48
1,68,95,48
1,66,82,48
1,70,82,432
1,66,95,0
1,73,101,0
1,71,101,48
1,71,101,48
1,68,101,48
1,73,101,48
1,71,101,48
1,66,101,48
1,64,101,48
1,66,101,48
1,71,101,48
1,71,114,432
1,71,120,48
2,78,82,0
2,73,76,432
2,71,76,96
2,73,76,480
2,71,76,96
2,73,76,96
2,78,95,48
2,73,88,432
2,71,88,48
2,73,88,432
2,73,101,48
2,78,101,48
2,73,95,432
2,71,95,48
2,73,95,432
2,71,95,48
2,73,95,48
2,78,95,48
2,73,95,432
2,71,95,48
2,73,95,432
2,73,95,48
2,66,95,432
2,66,95,48
2,66,95,48
2,63,95,48
2,64,95,48
2,66,82,48
2,63,82,48
2,59,82,48
2,61,82,48
2,59,82,48
2,63,95,48
2,61,82,48
2,59,82,48
2,66,95,48
2,66,95,48
2,63,82,48
2,64,82,48
2,66,95,48
2,64,88,48
2,63,82,48
2,59,82,48
2,61,88,48
2,61,76,192
2,66,95,48
2,66,95,48
2,66,95,48
2,63,82,48
2,64,82,48
2,66,82,48
2,63,82,48
2,59,82,48
2,61,82,48
2,63,82,48
2,61,82,48
2,61,82,48
2,59,82,48
2,66,95,48
2,64,95,48
2,63,95,48
2,64,95,48
2,66,95,48
2,63,95,48
2,61,82,0
2,66,95,768
2,66,95,48
2,66,95,48
2,63,95,48
2,64,95,48
2,63,95,240
2,59,95,48
2,61,95,48
2,59,95,48
2,63,95,48
2,61,95,48
2,59,95,48
2,66,95,48
2,66,95,48
2,63,95,48
2,64,95,48
2,66,95,48
2,64,95,48
2,63,95,48
2,59,95,48
2,61,95,48
2,66,95,432
2,66,95,48
2,66,95,48
2,66,95,48
2,63,95,48
2,64,95,48
2,66,95,48
2,63,95,48
2,59,95,48
2,61,95,48
2,63,95,48
2,61,95,48
2,61,95,48
2,59,95,48
2,66,95,48
2,64,95,48
2,63,95,48
2,64,95,48
2,66,95,48
2,64,95,48
2,61,95,48
2,64,95,0
2,66,95,48
2,64,88,48
2,63,88,48
2,63,88,48
2,64,88,48
2,63,88,48
2,68,76,48
2,63,95,0
2,61,95,48
2,63,95,48
2,63,95,48
2,61,95,48
2,59,95,48
2,63,95,0
2,64,95,48
2,63,95,48
2,68,101,48
2,61,101,48
2,63,101,48
2,63,95,48
2,61,95,48
2,63,95,48
2,61,88,48
2,59,82,48
2,63,95,0
2,64,95,48
2,63,95,48
2,64,95,48
2,61,88,0
2,63,88,48
2,61,88,48
2,63,88,48
2,61,88,48
2,59,88,48
2,63,101,48
2,61,101,48
2,59,101,48
2,63,101,0
2,64,101,48
2,63,101,48
2,64,101,48
2,61,101,0
2,63,101,48
2,61,88,48
2,63,88,48
2,63,88,48
2,61,82,48
2,59,82,48
2,63,82,0
2,64,82,48
2,63,82,48
2,64,88,48
2,68,82,0
2,66,95,48
2,66,95,48
2,66,95,48
2,68,95,48
2,66,95,48
2,63,82,48
2,64,82,48
2,63,82,48
2,64,82,48
2,64,95,48
2,63,95,48
2,63,95,48
2,61,95,48
2,63,95,48
2,61,95,48
2,59,95,48
2,63,95,48
2,61,82,48
2,59,82,48
2,63,95,0
2,64,95,48
2,63,95,48
2,64,95,48
2,63,82,0
2,61,82,48
2,63,82,48
2,61,82,48
2,63,82,48
2,61,82,48
2,59,82,48
2,63,95,48
2,61,88,48
2,59,82,48
2,63,95,48
2,64,95,48
2,63,95,48
2,64,95,48
2,61,95,240
2,63,95,48
2,59,95,48
2,68,95,528
2,61,95,240
2,63,95,48
2,66,95,48
2,66,95,48
2,66,95,48
2,63,95,48
2,64,95,48
2,66,82,48
2,63,82,48
2,59,82,48
2,61,82,48
2,59,82,48
2,63,95,48
2,61,82,48
2,59,82,48
2,66,95,48
2,66,95,48
2,63,82,48
2,64,82,48
2,66,95,48
2,64,88,48
2,63,82,48
2,59,82,48
2,61,82,48
2,61,95,192
2,66,95,48
2,66,95,48
2,66,95,48
2,63,82,48
2,64,82,48
2,66,82,48
2,63,82,48
2,59,82,48
2,61,82,48
2,63,82,48
2,61,82,48
2,61,82,48
2,59,82,48
2,66,95,48
2,64,95,48
2,63,95,48
2,64,95,48
2,66,95,48
2,63,95,48
2,61,82,0
2,66,95,768
2,66,95,48
2,66,95,48
2,63,95,48
2,64,95,48
2,63,95,240
2,59,95,48
2,61,95,48
2,59,95,48
2,63,95,48
2,61,95,48
2,59,95,48
2,66,95,48
2,66,95,48
2,63,95,48
2,64,95,48
2,66,95,48
2,64,95,48
2,63,95,48
2,59,95,48
2,61,95,48
2,66,95,432
2,66,95,48
2,66,95,48
2,66,95,48
2,63,95,48
2,64,95,48
2,66,95,48
2,63,95,48
2,59,95,48
2,61,95,48
2,63,95,48
2,61,95,48
2,61,95,48
2,59,95,48
2,66,95,48
2,64,95,48
2,63,95,48
2,64,95,48
2,66,95,48
2,64,95,48
2,61,95,48
2,64,95,0
2,66,95,48
2,64,88,48
2,63,88,48
2,63,88,48
2,64,88,48
2,63,88,48
2,68,76,48
2,63,95,0
2,61,95,48
2,63,95,48
2,63,95,48
2,61,95,48
2,59,95,48
2,63,95,0
2,64,95,48
2,63,95,48
2,68,101,48
2,61,101,48
2,63,101,48
2,63,95,48
2,61,95,48
2,63,95,48
2,61,88,48
2,59,82,48
2,63,95,0
2,64,95,48
2,63,95,48
2,64,95,48
2,61,88,0
2,63,88,48
2,61,88,48
2,63,88,48
2,61,88,48
2,59,88,48
2,63,101,48
2,61,101,48
2,59,101,48
2,63,101,0
2,64,101,48
2,63,101,48
2,64,101,48
2,61,101,0
2,63,101,48
2,61,88,48
2,63,88,48
2,63,88,48
2,61,82,48
2,59,82,48
2,63,82,0
2,64,82,48
2,63,82,48
2,64,88,48
2,68,82,0
2,66,95,48
2,66,95,48
2,66,95,48
2,68,95,48
2,66,95,48
2,63,82,48
2,64,82,48
2,63,82,48
2,64,82,48
2,64,95,48
2,63,95,48
2,63,95,48
2,61,95,48
2,63,95,48
2,61,95,48
2,59,95,48
2,63,95,48
2,61,82,48
2,59,82,48
2,63,95,0
2,64,95,48
2,63,95,48
2,64,95,48
2,63,82,0
2,61,82,48
2,63,82,48
2,61,82,48
2,63,82,48
2,61,82,48
2,59,82,48
2,63,95,48
2,61,88,48
2,59,82,48
2,63,95,48
2,64,95,48
2,63,95,48
2,64,95,48
2,66,95,240
2,64,95,48
2,63,95,48
2,64,95,48
2,63,95,48
2,63,95,48
2,64,95,48
2,61,95,240
2,63,95,48
2,59,95,48
2,68,95,528
2,61,95,240
2,63,95,48
2,66,95,48
2,66,95,48
2,66,95,48
2,63,95,48
2,64,95,48
2,66,82,48
2,63,82,48
2,59,82,48
2,61,82,48
2,59,82,48
2,63,95,48
2,61,82,48
2,59,82,48
2,66,95,48
2,66,95,48
2,63,82,48
2,64,82,48
2,66,95,48
2,64,88,48
2,63,82,48
2,59,82,48
2,61,82,48
2,61,95,192
2,66,95,48
2,66,95,48
2,66,95,48
2,63,82,48
2,64,82,48
2,66,82,48
2,63,82,48
2,59,82,48
2,61,82,48
2,63,82,48
2,61,82,48
2,61,82,48
2,59,82,48
2,66,95,48
2,64,95,48
2,63,95,48
2,64,95,48
2,66,95,48
2,63,95,48
2,61,82,0
2,66,82,384
2,63,101,48
2,61,101,432
2,59,101,48
2,61,101,432
2,59,101,48
2,61,101,48
2,63,101,48
2,61,101,432
2,59,101,48
2,61,101,432
2,68,101,48
2,66,101,48
2,66,101,48
2,63,101,48
2,68,101,48
2,66,101,48
2,61,101,48
2,59,101,48
2,61,101,48
2,66,101,48
2,68,114,432
2,66,120,48
3,75,82,0
3,70,76,432
3,68,76,96
3,70,76,480
3,68,76,96
3,70,76,96
3,75,95,48
3,70,88,432
3,68,88,48
3,70,88,432
3,70,101,48
3,75,101,48
3,70,95,432
3,68,95,48
3,70,95,432
3,68,95,48
3,70,95,48
3,75,95,48
3,70,95,432
3,68,95,48
3,70,95,432
3,70,88,48
3,70,76,6000
3,61,88,11952
3,64,82,48
3,61,88,1104
3,64,101,1344
3,78,63,9600
3,78,63,0
3,78,63,0
3,78,63,0
3,78,63,0
3,78,63,0
3,78,63,0
3,78,69,0
3,78,69,0
3,78,69,0
3,78,69,0
3,78,69,0
3,78,69,0
3,78,69,0
3,78,69,0
3,78,69,0
3,78,76,0
3,78,76,0
3,78,76,0
3,78,76,0
3,78,76,0
3,78,76,0
3,78,76,0
3,78,76,0
3,78,76,0
3,78,76,0
3,78,76,0
3,78,76,0
3,78,76,0
3,64,95,48
3,70,88,7728
3,61,88,11952
3,64,82,48
3,61,88,1104
3,64,101,1344
3,73,50,0
3,78,50,0
3,78,50,0
3,78,50,0
3,78,50,0
3,78,50,0
3,78,50,0
3,78,50,0
3,78,50,0
3,78,57,0
3,78,57,0
3,78,57,0
3,78,57,0
3,78,57,0
3,78,57,0
3,78,57,0
3,78,57,0
3,78,63,0
3,78,63,0
3,78,63,0
3,78,63,0
3,78,63,0
3,78,63,0
3,78,63,0
3,78,63,0
