track,note,velocity,time
1,71,108,14049
1,73,107,28
1,76,100,11
1,78,94,144
1,76,103,52
1,77,99,2
1,79,95,6
1,81,105,22
1,78,91,373
1,76,105,148
1,73,104,12
1,71,102,17
1,73,104,23
1,69,92,1836
1,71,103,15
1,71,93,56
1,73,109,71
1,71,106,32
1,76,109,205
1,73,92,21
1,76,93,111
1,73,91,77
1,71,108,30
1,69,101,26
1,71,108,234
1,69,91,17
1,71,99,2443
1,73,114,52
1,76,93,94
1,80,123,98
1,81,108,30
1,78,110,343
1,76,104,46
1,73,118,17
1,71,81,83
1,73,101,186
1,69,101,1027
1,69,98,134
1,69,109,124
1,71,90,78
1,73,91,37
1,71,93,20
1,73,92,84
1,71,102,14
1,76,98,70
1,73,95,77
1,71,105,200
1,73,102,25
1,71,107,28
1,73,98,16
1,69,93,106
1,76,93,1167
1,78,92,51
1,76,91,19
1,81,94,79
1,81,99,126
1,81,91,86
1,78,101,553
1,76,98,21
1,78,104,39
1,76,104,20
1,76,101,92
1,76,98,147
1,78,102,16
1,78,101,123
1,76,91,22
1,78,94,30
1,76,108,25
1,78,99,25
1,76,90,23
1,78,97,63
1,76,94,20
1,73,90,26
1,76,106,243
1,81,100,60
1,81,91,132
1,81,106,144
1,78,102,52
1,76,95,19
1,78,101,65
1,76,94,30
1,76,95,256
1,76,94,96
1,76,101,15
1,78,95,0
1,76,91,75
1,73,93,29
1,73,108,79
1,71,103,62
1,69,94,18
1,71,108,1651
1,73,107,28
1,76,100,11
1,78,94,144
1,76,103,52
1,77,99,2
1,79,95,6
1,81,105,22
1,78,91,373
1,76,105,148
1,73,104,12
1,71,102,17
1,73,104,23
1,69,92,1763
1,71,103,15
1,71,93,56
1,73,109,71
1,71,106,32
1,76,109,205
1,73,92,21
1,76,93,111
1,73,91,77
1,71,108,30
1,69,101,26
1,71,108,234
1,69,91,17
1,71,99,2484
1,73,114,52
1,76,93,94
1,80,123,98
1,81,108,30
1,78,110,343
1,76,104,46
1,73,118,17
1,71,81,83
1,73,101,145
1,69,101,1186
1,69,98,134
1,69,109,124
1,71,90,78
1,73,91,37
1,71,93,20
1,73,92,84
1,71,102,14
1,76,98,70
1,73,95,77
1,71,105,200
1,73,102,25
1,71,107,28
1,73,98,16
1,69,93,106
1,76,93,1230
1,78,92,51
1,76,91,19
1,81,94,79
1,81,99,126
1,81,91,86
1,78,101,553
1,76,98,21
1,78,104,39
1,76,104,20
1,76,101,92
1,76,98,147
1,78,102,16
1,78,101,123
1,76,91,22
1,78,94,30
1,76,108,25
1,78,99,25
1,76,90,23
1,78,97,63
1,76,94,20
1,73,90,26
1,76,106,243
1,81,100,60
1,81,91,132
1,81,106,144
1,78,102,52
1,76,95,19
1,78,101,65
1,76,94,30
1,76,95,256
1,76,94,96
1,76,101,15
1,78,95,0
1,76,91,75
1,73,93,29
1,73,108,79
1,71,103,62
1,69,94,18
1,71,108,26172
1,73,107,28
1,76,100,11
1,78,94,144
1,76,103,52
1,77,99,2
1,79,95,6
1,81,105,22
1,78,91,373
1,76,105,148
1,73,104,12
1,71,102,17
1,73,104,23
1,69,92,1798
1,71,103,15
1,71,93,56
1,73,109,71
1,71,106,32
1,76,109,205
1,73,92,21
1,76,93,111
1,73,91,77
1,71,108,30
1,69,101,26
1,71,108,234
1,69,91,17
1,71,99,2439
1,73,114,52
1,76,93,94
1,80,123,98
1,81,108,30
1,78,110,343
1,76,104,46
1,78,95,149
1,76,104,22
1,73,118,11
1,71,81,36
1,73,101,171
1,69,101,1123
1,69,98,134
1,69,109,124
1,71,90,78
1,73,91,37
1,71,93,20
1,73,92,84
1,71,102,14
1,76,98,70
1,73,95,77
1,71,105,200
1,73,102,25
1,71,107,28
1,73,98,16
1,69,93,106
1,76,93,1278
1,78,92,51
1,76,91,19
1,81,94,79
1,81,99,126
1,81,91,86
1,78,101,553
1,76,98,21
1,78,104,39
1,76,104,20
1,76,101,92
1,76,98,147
1,78,102,16
1,78,101,123
1,76,91,22
1,78,94,30
1,76,108,25
1,78,99,25
1,76,90,23
1,78,97,63
1,76,94,20
1,73,90,26
1,76,106,243
1,81,100,60
1,81,91,132
1,81,106,144
1,78,102,52
1,76,95,19
1,78,101,65
1,76,94,30
1,76,95,256
1,76,94,96
1,76,101,15
1,78,95,0
1,76,91,75
1,73,93,29
1,73,108,79
1,71,103,62
1,69,94,18
1,76,93,1151
1,78,92,51
1,76,91,19
1,81,94,79
1,81,99,126
1,81,91,86
1,78,101,553
1,76,98,21
1,78,104,39
1,76,104,20
1,76,101,92
1,76,98,147
1,78,102,16
1,78,101,123
1,76,91,22
1,78,94,30
1,76,108,25
1,78,99,25
1,76,90,23
1,78,97,63
1,76,94,20
1,73,90,26
1,76,106,243
1,81,100,60
1,81,91,132
1,81,106,144
1,78,102,52
1,76,95,19
1,78,101,65
1,76,94,30
1,76,95,256
1,76,94,96
1,76,101,15
1,78,95,0
1,76,91,75
1,73,93,29
1,73,108,79
1,71,103,62
1,69,94,18
1,78,94,265
1,76,93,1
1,73,93,5
1,73,108,79
1,71,103,62
1,69,94,18
1,78,94,199
1,76,93,0
1,73,93,5
1,73,108,79
1,71,103,62
1,69,94,18
1,77,102,3310
1,79,99,18
1,81,105,19
1,81,103,169
1,78,108,46
1,76,106,3
1,78,108,34
1,76,104,60
1,77,90,2932
1,79,109,18
1,81,105,19
1,81,90,169
1,78,108,46
1,76,96,3
1,78,103,34
1,76,106,60
1,77,93,2932
1,79,98,18
1,81,97,19
1,81,99,169
1,78,98,46
1,76,103,3
1,78,106,34
1,76,110,60
1,77,105,2820
1,79,96,18
1,81,91,19
1,81,103,169
1,78,109,46
1,76,98,3
1,78,106,34
1,76,106,60
2,42,93,7296
2,40,103,77
2,33,91,77
2,33,99,116
2,33,99,39
2,33,97,116
2,33,102,39
2,33,93,116
2,42,105,39
2,40,94,0
2,33,91,0
2,33,99,116
2,33,99,39
2,33,97,116
2,33,102,39
2,33,93,116
2,42,105,39
2,40,94,0
2,33,102,0
2,33,96,116
2,33,92,39
2,33,104,116
2,33,95,39
2,33,109,116
2,33,101,39
2,33,105,116
2,33,98,39
2,33,108,116
2,33,92,39
2,33,92,116
2,33,92,39
2,33,107,116
2,37,107,39
2,37,108,39
2,38,94,39
2,39,98,39
2,40,108,39
2,40,94,116
2,40,106,39
2,40,97,116
2,40,103,39
2,40,107,116
2,40,108,39
2,42,98,39
2,40,107,39
2,37,91,39
2,33,98,39
2,33,102,116
2,33,95,39
2,33,96,116
2,33,108,39
2,33,97,116
2,42,106,39
2,40,99,77
2,33,102,77
2,33,96,116
2,33,92,39
2,33,104,116
2,33,95,39
2,33,109,116
2,33,101,39
2,33,105,116
2,33,98,39
2,33,108,116
2,33,92,39
2,33,92,116
2,33,92,39
2,33,107,116
2,37,107,39
2,37,108,39
2,38,94,39
2,39,98,39
2,40,104,39
2,40,105,116
2,40,104,39
2,40,106,116
2,40,107,39
2,40,91,116
2,40,107,39
2,42,108,39
2,40,100,39
2,37,91,39
2,33,104,39
2,33,100,116
2,33,101,39
2,33,90,116
2,33,103,39
2,33,109,116
2,35,105,39
2,37,104,39
2,40,105,39
2,41,108,39
2,42,94,39
2,40,106,77
2,38,101,77
2,40,95,39
2,42,105,39
2,45,96,39
2,45,90,39
2,47,103,39
2,49,91,39
2,47,92,39
2,45,105,39
2,42,109,39
2,40,98,39
2,42,109,39
2,42,102,116
2,40,107,39
2,37,102,39
2,35,104,39
2,33,94,39
2,33,95,39
2,35,106,39
2,33,102,39
2,35,93,39
2,37,96,39
2,40,95,39
2,41,92,39
2,42,91,39
2,40,91,77
2,38,102,77
2,40,104,39
2,42,94,39
2,45,92,39
2,45,106,39
2,47,91,39
2,49,94,39
2,47,91,39
2,45,99,39
2,42,101,39
2,40,108,39
2,42,95,39
2,42,107,116
2,40,107,39
2,37,106,39
2,35,105,39
2,33,107,39
2,33,108,116
2,33,96,39
2,33,108,116
2,33,99,39
2,33,91,116
2,42,104,39
2,40,100,77
2,33,94,77
2,33,99,116
2,33,109,39
2,33,91,116
2,33,97,39
2,33,107,116
2,33,90,39
2,33,96,116
2,33,102,39
2,33,96,116
2,33,97,39
2,33,91,116
2,33,106,39
2,33,101,116
2,37,102,39
2,37,94,39
2,38,95,39
2,39,98,39
2,40,101,39
2,40,90,116
2,40,107,39
2,40,96,116
2,40,100,39
2,40,104,116
2,40,109,39
2,42,95,39
2,40,101,39
2,37,95,39
2,33,109,39
2,33,95,116
2,33,100,39
2,33,100,116
2,33,102,39
2,33,95,116
2,42,106,39
2,40,92,77
2,33,96,77
2,33,96,116
2,33,105,39
2,33,103,116
2,33,105,39
2,33,92,116
2,33,107,39
2,33,90,116
2,33,103,39
2,33,99,116
2,33,108,39
2,33,99,116
2,33,91,39
2,33,100,116
2,37,102,39
2,37,94,39
2,38,99,39
2,39,100,39
2,40,91,39
2,40,103,116
2,40,103,39
2,40,103,116
2,40,90,39
2,40,97,116
2,40,100,39
2,42,97,39
2,40,108,39
2,37,91,39
2,33,90,39
2,33,101,116
2,33,100,39
2,33,106,116
2,33,102,39
2,33,101,116
2,35,99,39
2,37,108,39
2,40,91,39
2,41,104,39
2,42,99,39
2,40,96,77
2,38,107,77
2,40,106,39
2,42,98,39
2,45,105,39
2,45,106,39
2,47,99,39
2,49,106,39
2,47,95,39
2,45,92,39
2,42,102,39
2,40,104,39
2,42,99,39
2,42,90,116
2,40,103,39
2,37,99,39
2,35,99,39
2,33,103,39
2,33,100,39
2,35,91,39
2,33,90,39
2,35,98,39
2,37,90,39
2,40,104,39
2,41,100,39
2,42,105,39
2,40,104,77
2,38,97,77
2,40,109,39
2,42,98,39
2,45,104,39
2,45,108,39
2,47,96,39
2,49,106,39
2,47,105,39
2,45,95,39
2,42,107,39
2,40,100,39
2,42,106,39
2,42,109,116
2,40,99,39
2,37,95,39
2,35,103,39
2,33,103,39
2,33,108,116
2,33,108,39
2,33,106,116
2,33,91,39
2,33,99,116
2,33,99,39
2,33,97,116
2,35,91,39
2,35,99,116
2,35,99,39
2,32,97,116
2,28,91,39
2,28,99,116
2,28,99,39
2,28,97,116
2,35,91,39
2,35,99,116
2,35,99,39
2,32,97,116
2,28,91,39
2,28,99,116
2,28,99,39
2,28,97,116
2,35,91,39
2,35,99,116
2,35,99,39
2,32,97,116
2,28,91,39
2,28,99,116
2,28,99,39
2,28,97,116
2,33,91,39
2,33,99,116
2,35,99,39
2,35,97,132
2,33,91,23
2,33,99,116
2,33,99,39
2,33,97,116
2,35,91,39
2,35,99,116
2,35,99,39
2,32,97,116
2,28,91,39
2,28,99,116
2,28,99,39
2,28,97,116
2,35,91,39
2,35,99,116
2,35,99,39
2,32,97,116
2,28,91,39
2,28,99,116
2,28,99,39
2,28,97,116
2,35,91,39
2,35,99,116
2,35,99,39
2,32,97,116
2,28,91,39
2,28,99,116
2,28,99,39
2,28,97,116
2,33,91,39
2,33,99,116
2,35,99,39
2,35,97,132
2,33,91,23
2,33,99,116
2,35,99,39
2,35,97,132
2,33,102,23
2,33,96,116
2,33,92,39
2,33,104,116
2,33,95,39
2,33,109,116
2,33,101,39
2,33,105,116
2,33,98,39
2,33,108,116
2,33,92,39
2,33,92,116
2,33,92,39
2,33,107,116
2,37,107,39
2,37,108,39
2,38,94,39
2,39,98,39
2,40,108,39
2,40,94,116
2,40,106,39
2,40,97,116
2,40,103,39
2,40,107,116
2,40,108,39
2,42,98,39
2,40,107,39
2,37,91,39
2,33,98,39
2,33,102,116
2,33,95,39
2,33,96,116
2,33,108,39
2,33,97,116
2,42,106,39
2,40,99,77
2,33,102,77
2,33,96,116
2,33,92,39
2,33,104,116
2,33,95,39
2,33,109,116
2,33,101,39
2,33,105,116
2,33,98,39
2,33,108,116
2,33,92,39
2,33,92,116
2,33,92,39
2,33,107,116
2,37,107,39
2,37,108,39
2,38,94,39
2,39,98,39
2,40,104,39
2,40,105,116
2,40,104,39
2,40,106,116
2,40,107,39
2,40,91,116
2,40,107,39
2,42,108,39
2,40,100,39
2,37,91,39
2,33,104,39
2,33,100,116
2,33,101,39
2,33,90,116
2,33,103,39
2,33,109,116
2,35,105,39
2,37,104,39
2,40,105,39
2,41,108,39
2,42,94,39
2,40,106,77
2,38,101,77
2,40,95,39
2,42,105,39
2,45,96,39
2,45,90,39
2,47,103,39
2,49,91,39
2,47,92,39
2,45,105,39
2,42,109,39
2,40,98,39
2,42,109,39
2,42,102,116
2,40,107,39
2,37,102,39
2,35,104,39
2,33,94,39
2,33,95,39
2,35,106,39
2,33,102,39
2,35,93,39
2,37,96,39
2,40,95,39
2,41,92,39
2,42,91,39
2,40,91,77
2,38,102,77
2,40,104,39
2,42,94,39
2,45,92,39
2,45,106,39
2,47,91,39
2,49,94,39
2,47,91,39
2,45,99,39
2,42,101,39
2,40,108,39
2,42,95,39
2,42,107,116
2,40,107,39
2,37,106,39
2,35,105,39
2,33,107,39
2,33,108,116
2,33,96,39
2,33,108,116
2,33,99,39
2,33,91,116
2,42,104,39
2,40,100,77
2,42,94,77
2,40,106,77
2,38,101,77
2,40,95,39
2,42,105,39
2,45,96,39
2,45,90,39
2,47,103,39
2,49,91,39
2,47,92,39
2,45,105,39
2,42,109,39
2,40,98,39
2,42,109,39
2,42,102,116
2,40,107,39
2,37,102,39
2,35,104,39
2,33,94,39
2,33,95,39
2,35,106,39
2,33,102,39
2,35,93,39
2,37,96,39
2,40,95,39
2,41,92,39
2,42,91,39
2,40,91,77
2,38,102,77
2,40,104,39
2,42,94,39
2,45,92,39
2,45,106,39
2,47,91,39
2,49,94,39
2,47,91,39
2,45,99,39
2,42,101,39
2,40,108,39
2,42,95,39
2,42,107,116
2,40,107,39
2,37,106,39
2,35,105,39
2,33,107,39
2,33,108,116
2,33,96,39
2,33,108,116
2,42,101,39
2,42,109,116
2,40,107,39
2,37,105,39
2,35,94,39
2,33,94,39
2,33,104,116
2,33,93,39
2,33,93,116
2,42,101,39
2,42,109,116
2,40,107,39
2,37,105,39
2,35,94,39
2,26,101,39
2,38,101,0
2,33,91,1728
2,33,99,116
2,35,99,39
2,35,97,132
2,33,91,23
2,33,99,116
2,35,99,39
2,35,97,132
2,33,91,23
2,33,99,116
2,35,99,39
2,35,97,132
2,33,91,23
2,33,99,116
2,35,99,39
2,35,97,132
2,33,91,23
2,33,99,116
2,35,99,39
2,35,97,132
2,33,91,23
2,33,99,116
2,35,99,39
2,35,97,132
2,33,91,23
2,33,99,116
2,35,99,39
2,35,97,132
2,33,91,23
2,33,99,116
2,35,99,39
2,35,97,132
2,33,91,23
2,33,99,116
2,35,99,39
2,35,97,132
2,33,91,23
2,33,99,116
2,35,99,39
2,35,97,132
2,33,91,23
2,33,99,116
2,35,99,39
2,35,97,132
2,33,91,23
2,33,99,116
2,35,99,39
2,35,97,132
2,33,91,23
2,33,99,116
2,35,99,39
2,35,97,132
2,33,91,23
2,33,99,116
2,35,99,39
2,35,97,132
2,33,91,23
2,33,99,116
2,35,99,39
2,35,97,132
2,33,91,23
2,33,99,116
2,35,99,39
2,35,97,132
2,33,110,23
3,61,101,1920
3,57,100,0
3,52,106,0
3,57,103,192
3,61,97,0
3,52,94,0
3,52,93,0
3,54,90,0
3,52,96,0
3,61,96,0
3,57,104,0
3,52,98,0
3,57,93,192
3,61,104,0
3,52,102,0
3,52,95,0
3,54,92,0
3,52,101,0
3,61,92,0
3,57,95,0
3,52,97,0
3,57,98,192
3,61,94,0
3,52,98,0
3,52,108,0
3,54,106,0
3,52,95,0
3,61,97,0
3,57,98,0
3,52,103,0
3,52,104,192
3,57,101,0
3,61,106,0
3,61,92,58
3,57,103,0
3,52,100,0
3,57,103,192
3,61,107,0
3,52,107,0
3,52,94,0
3,54,108,0
3,52,95,0
3,61,102,0
3,57,107,0
3,52,92,0
3,57,93,192
3,61,103,0
3,52,109,0
3,61,98,0
3,57,100,0
3,54,101,0
3,64,98,0
3,59,100,0
3,56,101,0
3,61,92,0
3,57,103,0
