track,note,velocity,time
1,57,102,2684
1,60,120,0
1,65,114,0
1,65,0,1216
1,57,0,0
1,60,0,12
1,60,112,112
1,64,100,0
1,57,100,0
1,57,0,1428
1,60,0,12
1,64,0,4
1,60,102,92
1,62,100,0
1,57,86,0
1,57,0,1592
1,62,0,0
1,60,0,4
1,53,80,120
1,60,97,8
1,57,88,0
1,57,0,1060
1,60,0,32
1,53,0,64
1,65,97,372
1,62,90,0
1,72,104,0
1,62,0,1132
1,65,0,8
1,72,0,8
1,74,110,208
1,67,108,0
1,64,98,0
1,72,98,568
1,74,0,4
1,72,0,704
1,67,0,60
1,64,0,12
1,72,100,184
1,65,110,0
1,62,104,0
1,62,0,1308
1,65,0,12
1,72,0,16
1,74,100,196
1,67,108,0
1,64,106,0
1,74,0,1172
1,67,0,20
1,64,0,12
1,60,106,516
1,57,95,0
1,65,108,0
1,65,0,1440
1,57,0,4
1,60,0,4
1,60,106,96
1,64,98,0
1,57,90,0
1,57,0,1200
1,64,0,4
1,60,0,12
1,60,106,128
1,57,92,0
1,62,104,0
1,62,0,1612
1,57,0,0
1,60,0,8
1,53,80,96
1,57,81,4
1,60,91,0
1,57,0,1040
1,60,0,40
1,53,0,92
1,65,106,364
1,62,100,0
1,72,110,0
1,62,0,1124
1,65,0,16
1,72,0,12
1,67,98,200
1,74,104,0
1,64,90,4
1,64,0,568
1,74,0,0
1,67,0,0
1,67,100,4
1,64,84,0
1,72,102,8
1,64,0,812
1,72,0,4
1,67,0,0
1,72,91,132
1,62,98,0
1,65,104,0
1,65,0,1528
1,62,0,4
1,72,0,28
1,64,86,156
1,67,97,0
1,74,104,0
1,74,0,1028
1,67,0,28
1,64,0,12
1,60,104,476
1,57,95,0
1,65,104,0
1,65,0,1264
1,57,0,16
1,60,0,0
1,60,104,80
1,57,87,0
1,64,100,0
1,57,0,1624
1,64,0,16
1,60,0,0
1,60,88,80
1,57,76,0
1,62,94,4
1,62,0,1236
1,57,0,0
1,60,0,0
1,53,77,100
1,60,100,8
1,57,92,0
1,57,0,1120
1,60,0,60
1,53,0,28
1,62,97,328
1,65,104,0
1,72,104,0
1,62,0,1212
1,65,0,16
1,72,0,8
1,67,106,300
1,74,112,0
1,64,102,0
1,64,0,572
1,74,0,0
1,67,0,0
1,67,100,4
1,64,80,0
1,72,100,0
1,72,0,736
1,67,0,8
1,64,0,4
1,65,100,204
1,62,94,0
1,72,92,4
1,62,0,1324
1,65,0,16
1,72,0,16
1,67,102,176
1,74,104,0
1,64,94,0
1,67,0,552
1,64,0,8
1,74,0,12
1,67,85,0
1,64,77,0
1,72,95,4
1,72,0,728
1,64,0,20
1,67,0,0
1,65,100,212
1,72,104,4
1,62,97,0
1,62,0,1328
1,65,0,20
1,72,0,12
1,67,112,172
1,64,102,0
1,74,114,0
1,74,0,1216
1,67,0,36
1,64,0,4
1,60,97,468
1,57,90,0
1,65,102,4
1,65,0,1256
1,57,0,0
1,60,0,0
1,60,100,88
1,57,84,0
1,64,97,0
1,57,0,1444
1,64,0,16
1,60,0,0
1,60,95,76
1,57,80,0
1,62,100,0
1,62,0,1420
1,57,0,4
1,60,0,4
1,53,87,108
1,60,102,4
1,57,92,4
1,57,0,868
1,60,0,12
1,53,0,48
1,60,95,20
1,57,80,0
1,64,91,0
1,64,0,668
1,57,0,0
1,60,0,0
1,62,78,100
1,65,88,0
1,72,80,4
1,65,0,376
1,62,0,0
1,72,0,4
1,62,86,4
1,65,94,0
1,72,81,0
1,62,0,820
1,65,0,16
1,72,0,4
1,64,95,120
1,67,106,4
1,74,117,0
1,74,0,1340
1,64,0,16
1,67,0,8
1,72,97,164
1,62,98,0
1,65,102,0
1,65,0,572
1,62,0,0
1,72,0,0
1,65,100,4
1,72,92,0
1,62,91,0
1,62,0,688
1,65,0,12
1,72,0,12
1,67,97,248
1,64,91,0
1,74,98,4
1,74,0,1244
1,64,0,24
1,67,0,8
1,60,84,444
1,57,83,0
1,65,84,0
1,57,0,1456
1,65,0,12
1,60,0,0
1,60,98,76
1,64,90,0
1,57,86,0
1,57,0,1248
1,64,0,12
1,60,0,8
1,60,108,92
1,57,91,0
1,62,98,0
1,57,0,1596
1,62,0,4
1,60,0,4
1,53,80,96
1,60,97,4
1,57,85,0
1,60,0,1244
1,57,0,20
1,53,0,44
1,72,90,236
1,65,98,0
1,62,97,0
1,62,0,1100
1,65,0,12
1,72,0,12
1,64,84,220
1,74,102,0
1,67,97,0
1,67,0,572
1,74,0,0
1,64,0,0
1,67,86,8
1,64,80,0
1,72,97,0
1,64,0,916
1,67,0,4
1,72,0,44
1,65,98,180
1,62,87,0
1,72,98,0
1,62,0,1228
1,65,0,24
1,72,0,8
1,67,95,268
1,74,100,0
1,64,90,0
1,74,0,1100
1,67,0,24
1,64,0,8
1,60,97,408
1,57,87,4
1,65,104,0
1,57,0,1220
1,65,0,12
1,60,0,8
1,60,102,104
1,57,80,4
1,64,95,0
1,57,0,1632
1,64,0,20
1,60,0,0
1,60,98,72
1,57,87,0
1,62,100,4
1,62,0,1408
1,57,0,4
1,60,0,12
1,53,86,104
1,60,98,4
1,57,88,0
1,60,0,1140
1,57,0,156
1,53,0,56
1,65,97,184
1,62,88,0
1,72,90,0
1,62,0,1140
1,65,0,24
1,72,0,16
1,67,102,164
1,74,100,0
1,64,86,4
1,74,0,1372
1,64,0,28
1,67,0,8
1,65,98,312
1,72,102,0
1,62,87,0
1,62,0,380
1,72,0,0
1,65,0,0
1,65,100,24
1,72,95,0
1,62,83,0
1,62,0,824
1,72,0,20
1,65,0,0
1,64,87,104
1,67,100,0
1,74,110,4
1,74,0,1480
1,67,0,20
1,64,0,12
1,72,86,200
1,65,97,0
1,62,94,4
1,62,0,1244
1,65,0,24
1,72,0,8
1,64,91,76
1,67,104,0
1,74,108,8
1,74,0,1296
1,67,0,28
1,64,0,8
1,57,75,400
1,65,86,0
1,60,85,0
1,65,0,1232
1,57,0,0
1,60,0,12
1,60,104,96
1,64,100,0
1,57,84,0
1,60,0,1416
1,57,0,12
1,64,0,24
1,60,97,84
1,62,98,0
1,57,81,4
1,57,0,1412
1,62,0,0
1,60,0,4
1,53,83,104
1,57,83,4
1,60,92,0
1,57,0,1136
1,60,0,16
1,53,0,28
1,62,102,548
1,69,108,0
1,65,112,0
1,69,0,1460
1,65,0,4
1,62,0,0
1,62,84,68
1,65,97,0
1,69,92,4
1,62,0,1220
1,65,0,92
1,69,0,20
1,67,95,200
1,72,91,0
1,64,86,0
1,64,0,1428
1,72,0,24
1,67,0,12
1,67,98,76
1,64,87,0
1,72,92,0
1,64,0,1196
1,67,0,8
1,72,0,80
1,60,86,248
1,65,97,0
1,69,92,0
1,60,0,1272
1,65,0,8
1,69,0,16
1,69,60,64
1,65,75,0
1,60,63,0
1,60,0,184
1,65,0,0
1,69,0,0
1,65,83,4
1,69,78,0
1,60,81,0
1,60,0,1092
1,69,0,52
1,65,0,4
1,65,94,372
1,62,80,4
1,70,87,0
1,70,0,1192
1,65,0,68
1,62,0,4
1,70,91,276
1,62,88,0
1,65,100,0
1,70,0,664
1,62,0,28
1,65,0,16
1,65,94,68
1,69,98,4
1,62,79,0
1,62,0,372
1,70,79,4
1,62,75,0
1,69,0,4
1,70,0,220
1,65,0,4
1,62,0,44
1,62,97,112
1,69,106,0
1,65,100,0
1,62,0,1448
1,69,0,4
1,65,0,4
1,65,94,76
1,69,95,0
1,62,90,0
1,62,0,692
1,69,0,0
1,65,0,16
1,69,102,64
1,65,102,0
1,62,97,0
1,62,0,648
1,65,0,52
1,69,0,8
1,67,98,60
1,72,95,0
1,64,92,0
1,64,0,1416
1,72,0,28
1,67,0,4
1,72,100,84
1,67,106,0
1,64,100,0
1,64,0,1208
1,67,0,0
1,72,0,60
1,60,87,268
1,65,94,0
1,69,90,0
1,60,0,1384
1,69,0,4
1,65,0,8
1,65,94,140
1,60,90,0
1,69,91,0
1,69,0,1188
1,60,0,8
1,65,0,92
1,65,104,248
1,62,97,0
1,70,101,0
1,62,0,1240
1,65,0,36
1,70,0,48
1,62,91,212
1,70,99,4
1,65,106,0
1,62,0,344
1,69,88,32
1,70,0,4
1,62,62,0
1,65,0,368
1,62,0,12
1,65,84,0
1,67,108,4
1,62,83,4
1,69,0,12
1,62,0,368
1,65,0,4
1,65,95,4
1,62,77,4
1,69,98,0
1,67,0,4
1,65,0,248
1,62,0,0
1,69,0,20
1,65,106,100
1,62,102,0
1,69,102,8
1,69,0,1420
1,62,0,0
1,65,0,12
1,62,95,96
1,65,100,0
1,69,106,0
1,62,0,1128
1,65,0,28
1,69,0,24
1,67,106,360
1,72,104,0
1,64,100,0
1,72,0,2148
1,67,0,12
1,64,0,8
1,60,106,892
1,57,95,0
1,65,98,0
1,65,0,1236
1,57,0,16
1,60,0,4
1,60,112,96
1,57,94,0
1,64,102,0
1,57,0,1604
1,64,0,12
1,60,0,12
1,60,100,96
1,62,104,4
1,57,92,0
1,57,0,1216
1,62,0,4
1,60,0,4
1,53,80,116
1,60,104,0
1,57,97,0
1,57,0,1212
1,60,0,56
1,53,0,116
1,65,106,348
1,72,102,0
1,62,98,0
1,62,0,1388
1,65,0,8
1,72,0,28
1,64,92,116
1,74,110,0
1,67,90,0
1,74,0,1152
1,67,0,44
1,64,0,12
1,65,92,324
1,72,86,0
1,62,91,0
1,69,91,0
1,69,0,1172
1,62,0,4
1,65,0,12
1,72,0,32
1,67,102,124
1,64,92,0
1,74,106,0
1,74,0,1156
1,67,0,24
1,64,0,8
1,60,98,536
1,57,90,0
1,65,97,4
1,65,0,1448
1,57,0,0
1,60,0,8
1,57,84,80
1,60,100,0
1,64,95,4
1,57,0,1400
1,60,0,16
1,64,0,8
1,60,97,104
1,57,86,0
1,62,98,0
1,57,0,1220
1,62,0,4
1,60,0,0
1,53,64,124
1,60,98,4
1,57,88,0
1,60,0,1156
1,57,0,12
1,53,0,36
1,62,87,328
1,72,88,0
1,65,97,0
1,62,0,1236
1,65,0,8
1,72,0,24
1,74,110,276
1,67,108,0
1,64,102,0
1,67,0,560
1,64,0,8
1,67,83,0
1,74,0,4
1,64,88,0
1,72,90,0
1,72,0,748
1,64,0,20
1,67,0,4
1,65,104,380
1,72,94,4
1,62,100,0
1,62,0,1068
1,65,0,8
1,72,0,24
1,67,95,236
1,74,97,4
1,64,84,0
1,64,0,708
1,74,0,0
1,67,0,12
1,74,100,56
1,64,98,0
1,67,104,0
1,64,0,552
1,67,0,4
1,67,77,4
1,64,85,4
1,72,92,0
1,74,0,8
1,67,0,368
1,64,0,4
1,72,0,0
1,62,95,8
1,65,102,0
1,72,88,0
1,62,0,996
1,65,0,20
1,72,0,64
1,74,92,272
1,64,86,0
1,67,95,0
1,64,0,1272
1,74,0,28
1,67,0,20
1,65,95,392
1,62,85,0
1,72,97,0
1,62,0,1072
1,65,0,48
1,72,0,24
1,67,106,212
1,74,104,0
1,64,102,0
1,74,0,1164
1,67,0,48
1,64,0,12
1,60,98,496
1,65,104,0
1,57,92,0
1,65,0,1240
1,57,0,20
1,60,0,0
1,60,104,92
1,64,98,4
1,57,87,0
1,64,0,1380
1,57,0,12
1,60,0,12
1,62,100,128
1,60,98,0
1,57,91,0
1,62,0,1560
1,57,0,4
1,60,0,20
1,53,83,132
1,60,97,0
1,57,81,0
1,57,0,968
1,60,0,60
1,53,0,32
1,62,87,288
1,72,95,0
1,65,97,0
1,62,0,556
1,65,0,4
1,72,0,0
1,62,83,8
1,65,92,0
1,72,85,0
1,65,0,800
1,62,0,0
1,72,0,12
1,67,106,160
1,74,106,0
1,64,94,0
1,74,0,1232
1,64,0,4
1,67,0,12
1,62,104,284
1,65,110,0
1,72,114,4
1,72,0,564
1,65,0,4
1,62,0,0
1,72,72,4
1,65,80,0
1,62,79,0
1,62,0,964
1,65,0,24
1,72,0,32
1,74,98,136
1,64,97,4
1,67,100,0
1,74,0,880
1,67,0,48
1,64,0,12
1,60,102,408
1,57,95,0
1,65,104,0
1,57,0,1448
1,65,0,4
1,60,0,0
1,60,98,72
1,57,85,0
1,64,102,0
1,57,0,1456
1,64,0,20
1,60,0,0
1,60,100,72
1,57,90,0
1,62,104,0
1,62,0,1616
1,57,0,0
1,60,0,12
1,57,80,84
1,60,91,0
1,53,80,0
1,57,0,1004
1,60,0,56
1,53,0,60
1,65,104,228
1,72,110,0
1,62,98,0
1,62,0,572
1,65,0,0
1,65,80,8
1,62,83,0
1,62,0,788
1,65,0,40
1,72,0,4
1,64,97,128
1,67,106,0
1,74,114,0
1,74,0,572
1,67,0,0
1,64,0,0
1,67,77,8
1,72,95,4
1,64,86,0
1,64,0,736
1,72,0,28
1,67,0,4
1,72,104,180
1,65,102,0
1,62,98,0
1,62,0,1340
1,65,0,32
1,72,0,44
1,74,100,312
1,67,102,0
1,64,100,0
1,74,0,1160
1,64,0,24
1,67,0,24
1,60,95,328
1,57,84,0
1,65,98,0
1,57,0,1256
1,60,0,4
1,65,0,12
1,60,100,80
1,57,85,0
1,64,95,0
1,64,0,1468
1,57,0,16
1,60,0,12
1,60,91,40
1,57,86,4
1,62,104,0
1,62,0,1632
1,57,0,4
1,60,0,12
1,53,78,60
1,57,80,4
1,60,91,0
1,57,0,1052
1,60,0,8
1,53,0,68
1,65,106,216
1,72,100,4
1,62,98,0
1,65,0,568
1,62,0,4
1,62,90,4
1,65,98,0
1,62,0,796
1,65,0,12
1,72,0,20
1,67,104,140
1,64,95,0
1,74,108,0
1,64,0,1376
1,74,0,8
1,67,0,24
1,72,106,116
1,65,112,0
1,62,110,4
1,62,0,1556
1,65,0,44
1,72,0,24
1,64,90,100
1,67,100,4
1,74,102,0
1,74,0,1092
1,67,0,36
1,64,0,8
1,60,95,396
1,65,98,4
1,57,73,0
1,65,0,1440
1,60,0,16
1,57,0,4
2,29,111,2660
2,29,0,488
2,29,104,84
2,29,0,80
2,29,115,116
2,29,0,668
2,29,108,92
2,29,0,480
2,29,105,92
2,29,0,100
2,29,108,104
2,29,0,640
2,29,109,124
2,29,0,464
2,29,99,100
2,29,0,76
2,29,111,120
2,29,0,640
2,29,113,124
2,29,0,300
2,29,113,92
2,29,0,328
2,36,108,68
2,36,0,228
2,34,102,156
2,34,0,528
2,34,103,60
2,34,0,88
2,34,116,104
2,34,0,344
2,33,103,32
2,33,0,188
2,31,103,0
2,31,0,188
2,36,105,8
2,36,0,468
2,36,105,104
2,36,0,92
2,36,111,116
2,36,0,404
2,36,107,156
2,36,0,172
2,34,105,24
2,34,0,464
2,34,102,112
2,34,0,64
2,34,110,132
2,34,0,360
2,33,100,20
2,33,0,188
2,31,105,0
2,31,0,184
2,36,105,12
2,36,0,452
2,36,107,120
2,36,0,76
2,36,113,128
2,36,0,416
2,36,107,152
2,36,0,168
2,29,103,20
2,29,0,484
2,29,105,96
2,29,0,80
2,29,112,112
2,29,0,472
2,29,102,96
2,29,0,80
2,29,112,124
2,29,0,452
2,29,102,112
2,29,0,84
2,29,114,120
2,29,0,396
2,29,108,164
2,29,0,64
2,29,109,132
2,29,0,472
2,29,102,100
2,29,0,80
2,29,112,112
2,29,0,456
2,29,105,128
2,29,0,56
2,29,114,140
2,29,0,428
2,29,111,144
2,29,0,176
2,31,108,24
2,31,0,384
2,33,108,0
2,33,0,320
2,34,103,68
2,34,0,460
2,34,112,116
2,34,0,84
2,34,116,108
2,34,0,76
2,34,102,104
2,34,0,184
2,33,107,8
2,33,0,192
2,31,106,0
2,31,0,180
2,36,96,20
2,36,0,508
2,36,103,60
2,36,0,92
2,36,112,100
2,36,0,440
2,36,105,128
2,36,0,180
2,34,101,20
2,34,0,456
2,34,105,120
2,34,0,76
2,34,110,116
2,34,0,444
2,34,105,128
2,34,0,124
2,36,105,72
2,36,0,448
2,36,105,124
2,36,0,80
2,36,107,112
2,36,0,104
2,36,107,88
2,36,0,132
2,34,109,60
2,34,0,88
2,33,100,8
2,33,0,92
2,31,104,0
2,31,0,192
2,29,115,20
2,29,0,424
2,29,106,136
2,29,0,64
2,29,115,132
2,29,0,624
2,29,107,136
2,29,0,500
2,29,101,80
2,29,0,72
2,29,110,124
2,29,0,608
