track,note,velocity,time
1,57,102,2680
1,60,120,0
1,65,114,0
1,60,112,112
1,64,100,0
1,57,100,0
1,60,102,92
1,62,100,0
1,57,86,0
1,53,80,120
1,60,97,8
1,57,88,0
1,65,97,372
1,62,90,0
1,72,104,0
1,74,110,208
1,67,108,0
1,64,98,0
1,72,98,568
1,72,100,184
1,65,110,0
1,62,104,0
1,74,100,196
1,67,108,0
1,64,106,0
1,60,106,516
1,57,95,0
1,65,108,0
1,60,106,96
1,64,98,0
1,57,90,0
1,60,106,128
1,57,92,0
1,62,104,0
1,53,80,96
1,57,81,4
1,60,91,0
1,65,106,364
1,62,100,0
1,72,110,0
1,67,98,200
1,74,104,0
1,64,90,4
1,67,100,4
1,64,84,0
1,72,102,8
1,72,91,132
1,62,98,0
1,65,104,0
1,64,86,156
1,67,97,0
1,74,104,0
1,60,104,476
1,57,95,0
1,65,104,0
1,60,104,80
1,57,87,0
1,64,100,0
1,60,88,80
1,57,76,0
1,62,94,4
1,53,77,100
1,60,100,8
1,57,92,0
1,62,97,328
1,65,104,0
1,72,104,0
1,67,106,300
1,74,112,0
1,64,102,0
1,67,100,4
1,64,80,0
1,72,100,0
1,65,100,204
1,62,94,0
1,72,92,4
1,67,102,176
1,74,104,0
1,64,94,0
1,67,85,0
1,64,77,0
1,72,95,4
1,65,100,212
1,72,104,4
1,62,97,0
1,67,112,172
1,64,102,0
1,74,114,0
1,60,97,468
1,57,90,0
1,65,102,4
1,60,100,88
1,57,84,0
1,64,97,0
1,60,95,76
1,57,80,0
1,62,100,0
1,53,87,108
1,60,102,4
1,57,92,4
1,60,95,20
1,57,80,0
1,64,91,0
1,62,78,100
1,65,88,0
1,72,80,4
1,62,86,4
1,65,94,0
1,72,81,0
1,64,95,120
1,67,106,4
1,74,117,0
1,72,97,164
1,62,98,0
1,65,102,0
1,65,100,4
1,72,92,0
1,62,91,0
1,67,97,248
1,64,91,0
1,74,98,4
1,60,84,444
1,57,83,0
1,65,84,0
1,60,98,76
1,64,90,0
1,57,86,0
1,60,108,92
1,57,91,0
1,62,98,0
1,53,80,96
1,60,97,4
1,57,85,0
1,72,90,236
1,65,98,0
1,62,97,0
1,64,84,220
1,74,102,0
1,67,97,0
1,67,86,8
1,64,80,0
1,72,97,0
1,65,98,180
1,62,87,0
1,72,98,0
1,67,95,268
1,74,100,0
1,64,90,0
1,60,97,408
1,57,87,4
1,65,104,0
1,60,102,104
1,57,80,4
1,64,95,0
1,60,98,72
1,57,87,0
1,62,100,4
1,53,86,104
1,60,98,4
1,57,88,0
1,65,97,184
1,62,88,0
1,72,90,0
1,67,102,164
1,74,100,0
1,64,86,4
1,65,98,312
1,72,102,0
1,62,87,0
1,65,100,24
1,72,95,0
1,62,83,0
1,64,87,104
1,67,100,0
1,74,110,4
1,72,86,200
1,65,97,0
1,62,94,4
1,64,91,76
1,67,104,0
1,74,108,8
1,57,75,400
1,65,86,0
1,60,85,0
1,60,104,96
1,64,100,0
1,57,84,0
1,60,97,84
1,62,98,0
1,57,81,4
1,53,83,104
1,57,83,4
1,60,92,0
1,62,102,548
1,69,108,0
1,65,112,0
1,62,84,68
1,65,97,0
1,69,92,4
1,67,95,200
1,72,91,0
1,64,86,0
1,67,98,76
1,64,87,0
1,72,92,0
1,60,86,248
1,65,97,0
1,69,92,0
1,69,60,64
1,65,75,0
1,60,63,0
1,65,83,4
1,69,78,0
1,60,81,0
1,65,94,372
1,62,80,4
1,70,87,0
1,70,91,276
1,62,88,0
1,65,100,0
1,65,94,68
1,69,98,4
1,62,79,0
1,70,79,4
1,62,75,0
1,62,97,112
1,69,106,0
1,65,100,0
1,65,94,76
1,69,95,0
1,62,90,0
1,69,102,64
1,65,102,0
1,62,97,0
1,67,98,60
1,72,95,0
1,64,92,0
1,72,100,84
1,67,106,0
1,64,100,0
1,60,87,268
1,65,94,0
1,69,90,0
1,65,94,140
1,60,90,0
1,69,91,0
1,65,104,248
1,62,97,0
1,70,101,0
1,62,91,212
1,70,99,4
1,65,106,0
1,69,88,32
1,62,62,0
1,65,84,0
1,67,108,4
1,62,83,4
1,65,95,4
1,62,77,4
1,69,98,0
1,65,106,100
1,62,102,0
1,69,102,8
1,62,95,96
1,65,100,0
1,69,106,0
1,67,106,360
1,72,104,0
1,64,100,0
1,60,106,892
1,57,95,0
1,65,98,0
1,60,112,96
1,57,94,0
1,64,102,0
1,60,100,96
1,62,104,4
1,57,92,0
1,53,80,116
1,60,104,0
1,57,97,0
1,65,106,348
1,72,102,0
1,62,98,0
1,64,92,116
1,74,110,0
1,67,90,0
1,65,92,324
1,72,86,0
1,62,91,0
1,69,91,0
1,67,102,124
1,64,92,0
1,74,106,0
1,60,98,536
1,57,90,0
1,65,97,4
1,57,84,80
1,60,100,0
1,64,95,4
1,60,97,104
1,57,86,0
1,62,98,0
1,53,64,124
1,60,98,4
1,57,88,0
1,62,87,328
1,72,88,0
1,65,97,0
1,74,110,276
1,67,108,0
1,64,102,0
1,67,83,0
1,64,88,0
1,72,90,0
1,65,104,380
1,72,94,4
1,62,100,0
1,67,95,236
1,74,97,4
1,64,84,0
1,74,100,56
1,64,98,0
1,67,104,0
1,67,77,4
1,64,85,4
1,72,92,0
1,62,95,8
1,65,102,0
1,72,88,0
1,74,92,272
1,64,86,0
1,67,95,0
1,65,95,392
1,62,85,0
1,72,97,0
1,67,106,212
1,74,104,0
1,64,102,0
1,60,98,496
1,65,104,0
1,57,92,0
1,60,104,92
1,64,98,4
1,57,87,0
1,62,100,128
1,60,98,0
1,57,91,0
1,53,83,132
1,60,97,0
1,57,81,0
1,62,87,288
1,72,95,0
1,65,97,0
1,62,83,8
1,65,92,0
1,72,85,0
1,67,106,160
1,74,106,0
1,64,94,0
1,62,104,284
1,65,110,0
1,72,114,4
1,72,72,4
1,65,80,0
1,62,79,0
1,74,98,136
1,64,97,4
1,67,100,0
1,60,102,408
1,57,95,0
1,65,104,0
1,60,98,72
1,57,85,0
1,64,102,0
1,60,100,72
1,57,90,0
1,62,104,0
1,57,80,84
1,60,91,0
1,53,80,0
1,65,104,228
1,72,110,0
1,62,98,0
1,65,80,8
1,62,83,0
1,64,97,128
1,67,106,0
1,74,114,0
1,67,77,8
1,72,95,4
1,64,86,0
1,72,104,180
1,65,102,0
1,62,98,0
1,74,100,312
1,67,102,0
1,64,100,0
1,60,95,328
1,57,84,0
1,65,98,0
1,60,100,80
1,57,85,0
1,64,95,0
1,60,91,40
1,57,86,4
1,62,104,0
1,53,78,60
1,57,80,4
1,60,91,0
1,65,106,216
1,72,100,4
1,62,98,0
1,62,90,4
1,65,98,0
1,67,104,140
1,64,95,0
1,74,108,0
1,72,106,116
1,65,112,0
1,62,110,4
1,64,90,100
1,67,100,4
1,74,102,0
1,60,95,396
1,65,98,4
1,57,73,0
2,29,111,2656
2,29,104,84
2,29,115,116
2,29,108,92
2,29,105,92
2,29,108,104
2,29,109,124
2,29,99,100
2,29,111,120
2,29,113,124
2,29,113,92
2,36,108,68
2,34,102,156
2,34,103,60
2,34,116,104
2,33,103,32
2,31,103,0
2,36,105,8
2,36,105,104
2,36,111,116
2,36,107,156
2,34,105,24
2,34,102,112
2,34,110,132
2,33,100,20
2,31,105,0
2,36,105,12
2,36,107,120
2,36,113,128
2,36,107,152
2,29,103,20
2,29,105,96
2,29,112,112
2,29,102,96
2,29,112,124
2,29,102,112
2,29,114,120
2,29,108,164
2,29,109,132
2,29,102,100
2,29,112,112
2,29,105,128
2,29,114,140
2,29,111,144
2,31,108,24
2,33,108,0
2,34,103,68
2,34,112,116
2,34,116,108
2,34,102,104
2,33,107,8
2,31,106,0
2,36,96,20
2,36,103,60
2,36,112,100
2,36,105,128
2,34,101,20
2,34,105,120
2,34,110,116
2,34,105,128
2,36,105,72
2,36,105,124
2,36,107,112
2,36,107,88
2,34,109,60
2,33,100,8
2,31,104,0
2,29,115,20
2,29,106,136
2,29,115,132
2,29,107,136
2,29,101,80
2,29,110,124
2,29,109,156
2,29,105,120
2,29,111,132
2,29,111,172
2,29,105,60
2,29,107,80
2,36,111,72
2,34,100,8
2,34,110,124
2,34,96,72
2,34,113,128
2,34,108,88
2,33,103,0
2,31,103,0
2,36,103,0
2,36,109,88
2,36,113,76
2,36,107,104
2,34,102,28
2,34,99,88
2,34,109,112
2,34,109,100
2,33,102,0
2,31,106,0
2,36,104,0
2,36,100,104
2,36,113,112
2,36,113,72
2,36,107,116
2,34,106,32
2,34,109,248
2,34,109,92
2,33,104,28
2,31,105,0
2,36,107,8
2,36,114,260
2,36,108,84
2,29,109,40
2,29,105,108
2,29,111,128
2,29,108,144
2,29,103,116
2,29,113,108
2,29,107,140
2,29,98,72
2,29,111,132
2,29,107,164
2,29,103,104
2,31,107,100
2,31,106,72
2,33,110,20
2,33,105,60
2,34,108,40
2,34,98,100
2,34,107,96
2,34,107,88
2,33,106,36
2,31,104,0
2,36,102,48
2,36,101,108
2,36,110,108
2,36,105,140
2,34,108,80
2,34,110,224
2,34,110,140
2,36,103,40
2,36,100,120
2,36,104,92
2,36,105,84
2,34,109,76
2,33,99,4
2,31,108,0
2,29,115,12
2,29,106,128
2,29,107,112
2,29,106,104
2,29,111,124
2,29,102,124
2,29,107,124
2,29,103,144
2,29,109,136
2,29,100,120
2,29,107,120
2,29,109,100
2,29,104,100
2,29,110,124
2,29,106,140
2,31,107,48
2,33,103,0
2,33,100,68
2,34,99,104
2,34,101,56
2,34,108,104
2,34,99,100
2,36,102,64
2,36,99,124
2,36,103,108
2,36,99,160
2,34,107,72
2,34,100,144
2,34,106,112
2,36,107,0
2,38,102,4
2,36,107,84
2,36,104,116
2,36,107,104
2,36,107,92
2,36,106,152
2,29,97,48
2,29,104,116
2,29,107,112
2,29,109,212
2,29,102,180
2,29,110,124
2,29,107,144
2,29,107,128
2,29,102,104
2,29,106,120
2,29,113,144
2,29,113,116
2,36,112,100
2,34,108,136
2,34,105,120
2,34,115,128
2,33,102,28
2,31,99,0
2,36,101,32
2,36,100,120
2,36,108,128
2,36,105,164
2,34,109,100
2,34,96,124
2,34,113,128
2,33,104,0
2,34,112,16
2,31,104,4
2,36,100,12
2,36,106,144
2,36,108,100
2,36,107,100
2,34,109,48
2,33,102,0
2,34,109,56
2,34,102,120
2,34,108,128
2,34,106,160
2,36,107,100
2,36,109,168
2,36,116,116
2,36,111,80
2,29,103,120
2,29,95,108
2,29,100,88
2,29,99,64
2,29,101,64
2,29,99,72
2,29,101,72
2,29,99,64
2,29,103,64
2,29,96,64
2,29,97,84
2,29,103,80
2,29,94,60
2,29,97,96
2,29,105,84
2,29,95,64
2,29,96,100
2,29,106,96
2,29,91,64
2,29,96,100
2,29,105,88
2,29,99,68
2,29,107,92
2,31,104,12
2,35,102,0
2,38,101,32
2,38,94,52
2,38,99,76
2,38,97,60
2,38,102,80
2,38,100,80
2,38,100,76
2,38,96,68
2,38,102,76
2,38,100,64
2,38,102,68
2,38,99,64
2,38,102,76
2,38,100,72
2,38,104,76
2,38,104,72
2,36,105,72
2,36,105,84
2,36,104,88
2,36,100,68
2,36,99,72
2,36,102,76
2,36,103,84
2,36,101,72
2,36,98,88
2,36,96,64
2,36,100,84
2,36,102,76
2,36,105,80
2,36,104,80
2,33,108,56
2,31,104,20
2,29,104,36
2,29,100,64
2,29,97,68
2,29,97,68
2,29,101,80
2,29,100,72
2,29,99,80
2,29,102,76
2,29,105,92
2,29,100,80
2,29,100,88
2,29,100,88
2,31,105,64
2,31,105,80
2,33,106,56
2,33,106,80
2,34,99,56
2,34,101,68
2,34,99,76
2,34,97,68
2,34,103,88
2,34,101,84
2,34,103,92
2,34,98,80
2,34,103,84
2,34,99,76
2,34,101,96
2,34,102,92
2,34,105,100
2,34,98,80
2,36,98,72
2,36,100,68
2,38,103,72
2,38,105,68
2,38,103,80
2,38,102,80
2,38,104,84
2,38,102,84
2,38,103,84
2,38,99,76
2,38,102,84
2,38,100,84
2,38,101,92
2,38,100,84
2,38,102,96
2,38,97,84
2,38,101,96
2,38,99,88
2,36,102,96
2,36,99,84
2,36,102,84
2,36,102,88
2,36,109,80
2,36,102,84
2,36,102,84
2,36,102,84
2,36,104,92
2,36,100,76
2,36,103,88
2,36,102,88
2,36,105,92
2,36,101,80
2,36,108,84
2,31,105,56
2,29,113,108
2,29,105,60
2,29,96,64
2,29,100,60
2,29,100,64
2,29,100,68
2,29,105,76
2,29,113,88
2,29,99,80
2,29,96,84
2,29,100,96
2,29,97,80
2,31,108,44
2,33,107,0
2,34,101,100
2,34,97,56
2,34,94,68
2,34,94,76
2,34,104,80
2,34,101,84
2,34,102,84
2,34,100,88
2,34,102,84
2,34,100,80
2,34,99,84
2,34,99,80
2,34,101,84
2,34,98,72
2,34,100,84
2,36,105,76
2,38,108,68
2,38,107,76
2,38,99,84
2,38,100,88
2,38,99,72
2,38,100,80
2,38,100,88
2,38,107,92
2,38,104,92
2,38,100,80
2,38,101,80
2,38,100,76
2,38,102,80
2,38,100,72
2,38,105,88
2,38,105,76
2,36,108,72
2,36,97,88
2,36,98,76
2,36,99,80
2,36,100,88
2,36,100,76
2,36,102,92
2,36,100,80
2,36,103,92
2,36,103,88
2,36,101,88
2,36,102,88
2,36,103,80
2,36,105,88
2,36,107,80
2,31,107,68
2,29,112,96
2,29,109,160
2,29,110,124
2,29,105,344
2,29,103,124
2,29,109,128
2,29,105,148
2,29,110,140
2,29,106,168
2,29,107,144
2,29,105,180
2,29,109,140
2,29,108,244
2,29,104,96
2,31,105,44
2,33,106,0
2,34,102,80
2,34,106,132
2,34,110,112
2,33,100,52
2,31,104,0
2,36,108,60
2,36,103,120
2,36,110,128
2,36,104,124
2,34,107,84
2,34,102,120
2,34,112,124
2,34,106,88
2,33,107,32
2,31,103,4
2,36,106,20
2,36,108,140
2,36,106,80
2,33,110,20
2,31,105,0
2,29,109,84
2,29,108,140
2,29,110,132
2,29,108,160
2,29,109,132
2,29,113,168
2,29,106,140
2,29,111,140
2,29,104,128
2,29,111,132
2,29,109,152
2,29,108,160
2,29,108,132
2,29,103,116
2,31,107,68
2,33,104,40
2,34,104,108
2,34,106,136
2,34,108,120
2,34,105,92
2,33,107,44
2,31,105,0
2,36,104,40
2,36,107,48
2,36,105,76
2,36,105,88
2,36,107,84
2,36,107,80
2,34,100,52
2,34,98,176
2,34,106,112
2,34,105,164
2,36,105,96
2,36,103,284
2,36,104,192
2,34,107,116
2,34,103,124
2,34,110,120
2,33,107,8
2,31,103,0
2,36,105,188
2,36,101,124
2,36,106,128
2,34,113,384
2,34,101,136
2,34,115,132
2,33,100,0
2,31,111,32
2,36,103,184
2,36,100,132
2,36,108,116
2,36,105,92
2,33,104,0
2,31,98,0
2,29,107,72
2,29,107,156
2,29,111,124
2,29,101,168
2,29,111,144
2,29,103,140
2,29,109,136
2,29,107,168
2,29,112,136
2,29,105,124
2,29,109,140
2,29,105,184
2,29,108,128
2,29,107,176
2,29,107,128
2,29,105,108
2,31,105,40
2,33,107,0
2,34,103,72
2,34,93,56
2,34,104,276
2,34,107,100
2,34,107,204
2,36,103,68
2,36,102,172
2,36,107,124
2,36,100,188
2,34,105,100
2,34,102,140
2,34,108,136
2,34,106,168
2,36,105,108
2,36,104,184
2,36,108,116
2,34,103,120
2,33,102,0
2,31,107,0
2,29,108,92
2,29,111,160
2,29,107,124
2,29,108,96
2,29,106,224
2,29,110,112
2,29,109,160
2,29,102,96
2,29,105,108
2,29,104,272
2,29,108,104
2,29,105,144
2,29,103,108
2,29,101,72
2,29,105,248
2,29,113,116
2,29,110,92
2,36,107,108
2,38,103,0
2,36,113,8
2,34,108,104
2,34,106,116
2,34,108,96
2,33,100,16
2,34,107,32
2,31,106,0
2,36,102,32
2,36,105,128
2,36,108,112
2,36,106,116
2,34,107,72
2,34,102,88
2,34,113,112
2,33,101,44
2,31,102,0
2,36,106,56
2,36,105,184
2,36,105,88
2,38,103,28
2,41,103,0
