track,note,velocity,time
3,74,73,5
3,74,0,109
3,72,83,13
3,72,0,70
3,72,88,23
3,72,0,33
3,72,93,13
3,72,0,56
3,67,88,40
3,67,0,29
3,67,73,17
3,67,0,33
3,67,81,15
3,67,0,66
3,67,96,33
3,67,0,74
3,67,88,300
3,67,0,24
3,67,88,24
3,67,0,72
3,69,88,20
3,69,0,47
3,71,98,4
3,71,0,44
3,69,88,3
3,69,0,91
3,71,88,8
3,69,86,17
3,71,0,5
3,67,88,15
3,69,0,1
3,67,0,1
3,74,91,6
3,74,0,10
3,74,93,13
3,74,0,15
3,74,98,13
3,74,0,13
3,74,96,8
3,74,0,42
3,74,93,3
3,74,0,40
3,71,91,6
3,71,0,83
3,69,86,13
3,69,0,42
3,67,88,4
3,67,0,72
3,69,93,494
3,69,0,23
3,69,93,29
3,69,0,88
3,71,98,7
3,71,0,129
3,69,91,18
3,69,0,128
3,76,101,10
3,76,0,13
3,76,96,55
3,76,0,43
3,74,83,7
3,74,0,38
3,71,96,11
3,69,96,46
3,71,0,1
3,69,0,126
3,67,88,20
3,67,0,7
3,72,83,6
3,72,0,1
3,72,91,18
3,72,0,44
3,74,86,7
3,74,0,26
3,74,93,24
3,74,0,67
3,67,79,298
3,67,0,25
3,67,81,22
3,67,0,22
3,67,81,25
3,67,0,23
3,69,98,24
3,69,0,43
3,71,88,6
3,71,0,31
3,69,86,14
3,69,0,22
3,71,83,31
3,71,0,18
3,69,93,33
3,69,0,40
3,71,83,2
3,69,93,51
3,71,0,1
3,69,0,43
3,67,96,8
3,67,0,1
3,69,96,1
3,69,0,14
3,69,86,1
3,67,88,47
3,69,0,5
3,67,0,33
3,71,98,9
3,69,88,23
3,71,0,2
3,69,0,40
3,67,81,3
3,67,0,67
3,67,86,88
3,67,0,40
3,69,88,8
3,69,0,42
3,69,88,10
3,71,101,46
3,69,0,1
3,71,0,145
3,69,81,11
3,69,0,53
3,67,86,1
3,67,0,8
3,69,101,2
3,69,0,10
3,71,101,11
3,71,0,83
3,74,104,6
3,74,0,2
3,71,98,3
3,71,0,64
3,69,109,8
3,69,0,1
3,74,109,184
3,74,0,30
3,74,79,15
3,74,0,28
3,74,93,25
3,74,0,97
3,72,101,2
3,72,0,166
3,71,109,6
3,71,0,19
3,74,101,4
3,74,0,55
3,76,91,13
3,76,0,70
3,74,93,29
3,74,0,53
3,74,91,39
3,74,0,85
3,74,98,66
3,74,0,53
3,74,96,39
3,74,0,54
3,71,109,94
3,71,0,33
3,71,109,14
3,71,0,33
3,74,96,15
3,74,0,34
3,76,96,17
3,76,0,4
3,74,91,19
3,74,0,84
3,71,98,16
3,71,0,31
3,71,88,15
3,71,0,36
3,71,101,8
3,71,0,31
3,74,93,16
3,74,0,38
3,71,104,38
3,71,0,17
3,71,96,28
3,71,0,21
3,72,101,26
3,72,0,1
3,69,91,1
3,69,0,60
3,69,93,36
3,69,0,64
3,69,96,32
3,69,0,71
3,67,101,25
3,67,0,102
3,69,98,3
3,69,0,54
3,71,104,6
3,71,0,11
3,74,98,15
3,74,0,27
3,76,109,21
3,76,0,6
3,74,91,17
3,74,0,19
3,74,86,23
3,74,0,18
3,74,101,31
3,74,0,2
3,71,96,9
3,71,0,9
3,74,96,14
3,74,0,25
3,76,109,4
3,76,0,58
3,74,88,14
3,74,0,20
3,74,91,24
3,74,0,20
3,74,98,29
3,74,0,38
3,74,88,18
3,74,0,32
3,74,81,16
3,74,0,28
3,76,109,66
3,76,0,65
3,74,98,29
3,74,0,25
3,74,101,26
3,74,0,44
3,74,101,1
3,74,0,12
3,71,101,1
3,71,0,25
3,71,88,19
3,71,0,26
3,71,93,26
3,71,0,31
3,71,93,20
3,71,0,56
3,71,101,39
3,71,0,19
3,71,88,6
3,71,0,26
3,71,93,24
3,71,0,34
3,69,96,11
3,69,0,50
3,67,104,47
3,67,0,5
3,69,96,1
3,69,0,5
3,69,93,16
3,69,0,77
3,69,96,21
3,69,0,129
3,69,101,591
3,69,0,1
3,67,104,1
3,67,0,163
3,67,98,254
3,67,0,24
3,67,101,22
3,67,0,2
3,69,104,19
3,69,0,201
3,71,112,414
3,71,0,46
3,71,104,4
3,71,0,43
3,72,104,7
3,72,0,36
3,72,109,61
3,72,0,34
3,72,104,14
3,72,0,49
3,74,93,0
3,74,0,32
3,74,96,16
3,74,0,136
3,67,91,295
3,67,0,23
3,67,86,23
3,67,0,22
3,67,91,25
3,67,0,23
3,69,91,23
3,71,98,47
3,69,0,3
3,71,0,40
3,71,88,6
3,71,0,34
3,71,93,16
3,71,0,22
3,71,88,30
3,71,0,36
3,71,91,7
3,71,0,45
3,69,98,5
3,69,0,38
3,67,109,10
3,67,0,2
3,67,88,833
3,67,0,38
3,69,91,14
3,69,0,34
3,69,91,12
3,69,0,46
3,71,104,1
3,71,0,184
3,69,86,8
3,69,0,91
3,67,104,4
3,67,0,366
3,67,96,15
3,62,65,100
3,67,0,2
3,62,0,88
3,74,76,294
3,74,0,94
3,74,93,52
3,74,0,32
3,74,83,15
3,74,0,27
3,69,96,1
3,69,0,2
3,69,69,13
3,69,0,35
3,69,91,1
3,69,0,45
3,67,88,5
3,67,0,90
3,74,98,2
3,74,0,17
3,74,104,6
3,74,0,23
3,69,96,23
3,69,0,23
3,69,101,30
3,69,0,41
3,67,109,6
3,67,0,217
3,69,88,189
3,69,0,20
3,69,96,26
3,69,0,34
3,69,101,17
3,69,0,98
3,69,104,185
3,69,0,50
3,69,104,45
3,69,0,51
3,69,104,7
3,69,0,123
3,71,98,4
3,71,0,19
3,71,98,4
3,71,0,42
3,74,93,10
3,74,0,98
3,71,101,51
3,71,0,110
3,69,96,16
3,69,0,36
3,67,98,5
3,67,0,11
3,69,104,141
3,69,0,27
3,69,101,44
3,69,0,32
3,71,104,17
3,71,0,95
3,71,104,1
3,71,0,40
3,71,104,10
3,71,0,86
3,69,104,11
3,69,0,242
3,69,96,96
3,69,0,36
3,71,101,6
3,71,0,78
3,74,101,15
3,74,0,84
3,76,109,14
3,76,0,65
3,79,109,6
3,79,0,6
3,79,93,23
3,79,0,176
3,71,96,253
3,71,0,22
3,71,88,26
3,71,0,20
3,71,88,30
3,71,0,36
3,71,98,12
3,71,0,21
3,71,96,29
3,71,0,47
3,69,88,92
3,69,0,26
3,69,104,25
3,69,0,55
3,69,104,44
3,69,0,41
3,69,93,12
3,69,0,77
3,71,101,4
3,71,0,1
3,71,91,12
3,71,0,26
3,74,98,23
3,74,0,48
3,69,104,3
3,69,0,17
3,69,96,10
3,69,0,3
3,71,112,413
3,71,0,24
3,71,112,22
3,71,0,46
3,71,98,50
3,71,0,39
3,71,109,6
3,71,0,28
3,72,104,36
3,72,0,1
3,71,104,11
3,71,0,17
3,74,91,15
3,74,0,122
3,76,104,25
3,76,0,69
3,74,101,31
3,74,0,61
3,74,96,33
3,74,0,115
3,74,96,30
3,74,0,59
3,74,93,36
3,74,0,105
3,71,93,39
3,71,0,33
3,71,93,10
3,71,0,33
3,74,91,19
3,74,0,46
3,76,101,1
3,76,0,79
3,74,101,69
3,74,0,34
3,71,91,61
3,71,0,39
3,71,86,5
3,71,0,25
3,71,83,22
3,71,0,24
3,74,98,27
3,74,0,106
3,71,98,36
3,71,0,28
3,71,91,21
3,71,0,21
3,74,101,2
3,74,0,77
3,71,104,52
3,71,0,85
3,69,83,11
3,69,0,89
3,69,91,7
3,69,0,67
3,67,88,29
3,67,0,186
3,69,96,208
3,69,0,82
3,74,110,476
3,74,0,22
3,78,97,23
3,78,0,27
3,79,104,1
3,79,0,67
3,78,93,5
3,78,0,27
3,78,83,20
3,78,0,31
3,78,97,20
3,78,0,84
3,78,80,14
3,78,0,29
3,78,83,20
3,78,0,26
3,79,104,5
3,79,0,53
3,78,93,1
3,78,0,32
3,78,83,13
3,78,0,33
3,78,89,15
3,78,0,73
3,78,97,23
3,78,0,34
3,78,97,16
3,78,0,37
3,79,104,59
3,79,0,120
3,78,93,25
3,78,0,30
3,78,97,18
3,78,0,43
3,78,91,0
3,78,0,24
3,76,93,23
3,76,0,22
3,76,101,28
3,76,0,24
3,77,91,24
3,77,0,74
3,76,91,24
3,76,0,67
3,74,88,25
3,74,0,29
3,74,93,25
3,74,0,23
3,74,101,24
3,74,0,19
3,76,88,1
3,76,0,85
3,74,93,347
3,74,0,138
3,76,101,1
3,76,0,80
3,69,91,158
3,69,0,36
3,69,96,14
3,69,0,77
3,69,98,22
3,69,0,182
3,71,118,150
3,71,0,90
3,72,109,8
3,72,0,23
3,72,104,29
3,72,0,182
3,71,112,149
3,71,0,121
3,71,104,25
3,71,0,33
3,71,101,13
3,71,0,28
3,71,109,20
3,69,88,47
3,71,0,5
3,69,0,151
3,76,118,471
3,76,0,54
3,74,104,37
3,74,0,77
3,69,109,21
3,69,0,21
3,69,98,25
3,69,0,43
3,67,104,11
3,67,0,243
3,69,118,374
3,69,0,135
3,74,112,351
3,74,0,17
3,74,115,30
3,74,0,78
3,74,109,15
3,74,0,64
3,74,91,31
3,74,0,19
3,74,109,32
3,74,0,40
3,69,96,7
3,69,0,18
3,67,112,31
3,67,0,116
3,66,119,12
3,66,0,108
4,42,110,95
4,42,0,22
4,35,88,75
4,42,88,0
4,54,56,0
4,54,0,12
4,42,0,0
4,35,0,0
4,35,104,36
4,42,56,0
4,54,40,0
4,54,0,12
4,42,0,0
4,35,0,0
4,40,127,36
4,42,56,0
4,54,72,0
4,54,0,12
4,42,0,0
4,40,0,0
4,42,56,36
4,54,56,0
4,54,0,12
4,42,0,0
4,35,104,36
4,42,88,0
4,54,72,0
4,54,0,12
4,42,0,0
4,35,0,0
4,42,72,36
4,54,56,0
4,54,0,12
4,42,0,0
4,40,120,36
4,42,104,0
4,54,72,0
4,54,0,12
4,42,0,0
4,40,0,0
4,42,104,36
4,54,40,0
4,54,0,12
4,42,0,0
4,35,88,36
4,42,88,0
4,54,56,0
4,54,0,12
4,42,0,0
4,35,0,0
4,35,104,36
4,42,56,0
4,54,40,0
4,54,0,12
4,42,0,0
4,35,0,0
4,40,127,36
4,42,56,0
4,54,72,0
4,54,0,12
4,42,0,0
4,40,0,0
4,42,56,36
4,54,56,0
4,54,0,12
4,42,0,0
4,35,104,36
4,42,88,0
4,54,72,0
4,54,0,12
4,42,0,0
4,35,0,0
4,42,72,36
4,54,56,0
4,54,0,12
4,42,0,0
4,40,120,36
4,42,104,0
4,54,72,0
4,54,0,12
4,42,0,0
4,40,0,0
4,42,104,36
4,54,40,0
4,54,0,12
4,42,0,0
4,35,88,36
4,42,88,0
4,54,56,0
4,54,0,12
4,42,0,0
4,35,0,0
4,35,104,36
4,42,56,0
4,54,40,0
4,54,0,12
4,42,0,0
4,35,0,0
4,40,127,36
4,42,56,0
4,54,72,0
4,54,0,12
4,42,0,0
4,40,0,0
4,42,56,36
4,54,56,0
4,54,0,12
4,42,0,0
4,35,104,36
4,42,88,0
4,54,72,0
4,54,0,12
4,42,0,0
4,35,0,0
4,42,72,36
4,54,56,0
4,54,0,12
4,42,0,0
4,40,120,36
4,42,104,0
4,54,72,0
4,54,0,12
4,42,0,0
4,40,0,0
4,42,104,36
4,54,40,0
4,54,0,12
4,42,0,0
4,35,88,36
4,42,88,0
4,54,56,0
4,54,0,12
4,42,0,0
4,35,0,0
4,35,104,36
4,42,56,0
4,54,40,0
4,54,0,12
4,42,0,0
4,35,0,0
4,40,127,36
4,42,56,0
4,54,72,0
4,54,0,12
4,42,0,0
4,40,0,0
4,42,56,36
4,54,56,0
4,54,0,12
4,42,0,0
4,35,104,36
4,42,88,0
4,54,72,0
4,54,0,12
4,42,0,0
4,35,0,0
4,42,72,36
4,54,56,0
4,54,0,12
4,42,0,0
4,40,120,36
4,42,104,0
4,54,72,0
4,54,0,12
4,42,0,0
4,40,0,0
4,42,104,36
4,54,40,0
4,54,0,12
4,42,0,0
4,35,88,36
4,42,88,0
4,54,56,0
4,54,0,12
4,42,0,0
4,35,0,0
4,35,104,36
4,42,56,0
4,54,40,0
4,54,0,12
4,42,0,0
4,35,0,0
4,40,127,36
4,42,56,0
4,54,72,0
4,54,0,12
4,42,0,0
4,40,0,0
4,42,56,36
4,54,56,0
4,54,0,12
4,42,0,0
4,35,104,36
4,42,88,0
4,54,72,0
4,54,0,12
4,42,0,0
4,35,0,0
4,42,72,36
4,54,56,0
4,54,0,12
4,42,0,0
4,40,120,36
4,42,104,0
4,54,72,0
4,54,0,12
4,42,0,0
4,40,0,0
4,42,104,36
4,54,40,0
4,54,0,12
4,42,0,0
4,35,88,36
4,42,88,0
4,54,56,0
4,54,0,12
4,42,0,0
4,35,0,0
4,35,104,36
4,42,56,0
4,54,40,0
4,54,0,12
4,42,0,0
4,35,0,0
4,40,127,36
4,42,56,0
4,54,72,0
4,54,0,12
4,42,0,0
4,40,0,0
4,42,56,36
4,54,56,0
4,54,0,12
4,42,0,0
4,35,104,36
4,42,88,0
4,54,72,0
4,54,0,12
4,42,0,0
4,35,0,0
4,42,72,36
4,54,56,0
4,54,0,12
4,42,0,0
4,40,120,36
4,42,104,0
4,54,72,0
4,54,0,12
4,42,0,0
4,40,0,0
4,42,104,36
4,54,40,0
4,54,0,12
4,42,0,0
4,35,88,36
4,42,88,0
4,54,56,0
4,54,0,12
4,42,0,0
4,35,0,0
4,35,104,36
4,42,56,0
4,54,40,0
4,54,0,12
4,42,0,0
4,35,0,0
4,40,127,36
4,42,56,0
4,54,72,0
4,54,0,12
4,42,0,0
4,40,0,0
4,42,56,36
4,54,56,0
4,54,0,12
4,42,0,0
4,35,104,36
4,42,88,0
4,54,72,0
4,54,0,12
4,42,0,0
4,35,0,0
4,42,72,36
4,54,56,0
4,54,0,12
4,42,0,0
4,40,120,36
4,42,104,0
4,54,72,0
4,54,0,12
4,42,0,0
4,40,0,0
4,42,104,36
4,54,40,0
4,54,0,12
4,42,0,0
4,35,88,36
4,42,88,0
4,54,56,0
4,54,0,12
4,42,0,0
4,35,0,0
4,35,104,36
4,42,56,0
4,54,40,0
4,54,0,12
4,42,0,0
4,35,0,0
4,40,127,36
4,42,56,0
4,54,72,0
4,54,0,12
4,42,0,0
4,40,0,0
4,42,56,36
4,54,56,0
4,54,0,12
4,42,0,0
4,35,104,36
4,42,88,0
4,54,72,0
4,54,0,12
4,42,0,0
4,35,0,0
4,42,72,36
4,54,56,0
4,54,0,12
4,42,0,0
4,40,120,36
4,42,104,0
4,54,72,0
4,54,0,12
4,42,0,0
4,40,0,0
4,42,104,36
4,54,40,0
4,54,0,12
4,42,0,0
4,35,88,36
4,42,88,0
4,54,56,0
4,54,0,12
4,42,0,0
4,35,0,0
4,35,104,36
4,42,56,0
4,54,40,0
4,54,0,12
4,42,0,0
4,35,0,0
4,40,127,36
4,42,56,0
4,54,72,0
4,54,0,12
4,42,0,0
4,40,0,0
4,42,56,36
4,54,56,0
4,54,0,12
4,42,0,0
4,35,104,36
4,42,88,0
4,54,72,0
4,54,0,12
4,42,0,0
4,35,0,0
4,42,72,36
4,54,56,0
4,54,0,12
4,42,0,0
4,40,120,36
4,42,104,0
4,54,72,0
4,54,0,12
4,42,0,0
4,40,0,0
4,42,104,36
4,54,40,0
4,54,0,12
4,42,0,0
4,35,88,36
4,42,88,0
4,54,56,0
4,54,0,12
4,42,0,0
4,35,0,0
4,35,104,36
4,42,56,0
4,54,40,0
4,54,0,12
4,42,0,0
4,35,0,0
4,40,127,36
4,42,56,0
4,54,72,0
4,54,0,12
4,42,0,0
4,40,0,0
4,42,56,36
4,54,56,0
4,54,0,12
4,42,0,0
4,35,104,36
4,42,88,0
4,54,72,0
4,54,0,12
4,42,0,0
4,35,0,0
4,42,72,36
4,54,56,0
4,54,0,12
4,42,0,0
4,40,120,36
4,42,104,0
4,54,72,0
4,54,0,12
4,42,0,0
4,40,0,0
4,42,104,36
4,54,40,0
4,54,0,12
4,42,0,0
4,35,88,36
4,42,88,0
4,54,56,0
4,54,0,12
