track,note,velocity,time
0,35,115,60
0,47,91,0
0,54,93,0
0,42,78,188
0,37,114,20
0,49,87,0
0,56,93,0
0,42,80,384
0,33,122,20
0,45,84,0
0,52,89,0
0,42,80,324
0,42,79,764
0,35,122,24
0,47,92,0
0,54,88,0
0,75,83,192
0,87,99,0
0,42,82,12
0,76,85,0
0,88,103,0
0,83,82,12
0,95,94,0
0,37,118,20
0,49,88,0
0,56,91,0
0,42,82,384
0,33,119,20
0,45,93,0
0,52,86,0
0,42,82,12
0,42,82,660
0,35,122,20
0,47,91,0
0,54,85,0
0,75,80,192
0,87,96,0
0,42,80,192
0,76,80,0
0,88,97,0
0,83,79,188
0,95,95,0
0,37,122,20
0,49,91,0
0,56,88,0
0,75,85,8
0,87,101,0
0,42,85,0
0,76,81,0
0,88,96,0
0,33,122,8
0,73,86,0
0,45,89,0
0,52,91,0
0,85,96,0
0,42,84,568
0,42,79,764
0,35,116,20
0,47,93,0
0,54,88,0
0,75,87,136
0,87,99,0
0,42,77,192
0,76,85,0
0,88,97,0
0,83,83,188
0,95,98,0
0,37,113,16
0,49,92,0
0,56,84,0
0,75,82,32
0,87,103,0
0,42,85,192
0,76,82,0
0,88,102,0
0,33,116,0
0,73,85,0
0,45,91,0
0,52,87,0
0,85,97,0
0,38,38,176
0,38,46,188
0,38,53,188
0,42,69,0
0,38,60,188
0,48,83,188
0,38,68,8
0,48,84,0
0,45,91,176
0,38,75,8
0,45,91,0
0,42,98,176
0,43,98,0
0,38,82,8
0,43,98,0
0,41,105,176
0,38,89,8
0,41,105,0
0,35,112,12
0,49,112,0
0,33,122,0
0,45,83,0
0,52,81,0
0,42,77,188
0,63,63,0
0,35,117,180
0,38,103,0
0,42,78,0
0,63,63,0
0,42,83,24
0,33,122,0
0,35,115,24
0,42,94,0
0,33,118,0
0,61,118,0
0,42,78,16
0,64,65,0
0,61,116,0
0,35,118,188
0,38,97,0
0,42,82,0
0,64,58,0
0,42,83,16
0,33,114,0
0,59,120,0
0,35,115,12
0,42,99,0
0,32,121,0
0,44,86,0
0,52,79,0
0,42,82,188
0,63,65,0
0,35,120,188
0,38,102,0
0,42,83,0
0,63,64,0
0,42,81,24
0,32,113,0
0,35,116,24
0,42,89,0
0,32,120,0
0,42,86,16
0,64,62,0
0,59,121,0
0,35,121,16
0,38,99,0
0,42,83,0
0,64,63,0
0,66,118,0
0,42,81,16
0,75,57,0
0,32,122,0
0,64,120,0
0,35,118,12
0,42,100,0
0,37,119,0
0,49,80,0
0,56,78,0
0,42,85,188
0,63,65,0
0,35,116,188
0,38,105,0
0,42,84,0
0,63,64,0
0,42,77,24
0,37,116,0
0,35,116,24
0,42,89,0
0,37,121,0
0,42,85,16
0,64,56,0
0,56,120,0
0,35,122,16
0,38,105,0
0,42,82,0
0,64,59,0
0,56,119,0
0,42,79,16
0,37,120,0
0,54,116,0
0,35,117,12
0,42,100,0
0,35,116,0
0,47,86,0
0,54,82,0
0,42,77,188
0,63,62,0
0,35,121,188
0,38,103,0
0,42,82,0
0,63,59,0
0,42,84,24
0,35,120,0
0,35,117,24
0,42,92,0
0,35,117,0
0,42,77,188
0,64,56,0
0,35,116,188
0,38,97,0
0,42,86,0
0,64,57,0
0,42,81,188
0,75,61,0
0,35,119,12
0,42,105,0
0,33,117,0
0,45,78,0
0,52,86,0
0,42,79,188
0,63,62,0
0,35,118,188
0,38,97,0
0,42,85,0
0,63,56,0
0,42,83,24
0,33,122,0
0,35,118,24
0,42,94,0
0,33,119,0
0,61,118,0
0,42,83,16
0,64,59,0
0,61,116,0
0,35,121,188
0,38,100,0
0,42,85,0
0,64,59,0
0,42,85,16
0,33,121,0
0,59,121,0
0,35,114,12
0,42,99,0
0,32,118,0
0,44,81,0
0,52,83,0
0,42,86,188
0,63,61,0
0,35,120,188
0,38,105,0
0,42,77,0
0,63,59,0
0,42,82,24
0,32,119,0
0,35,116,24
0,42,91,0
0,32,114,0
0,42,82,16
0,64,58,0
0,64,115,0
0,35,116,16
0,38,106,0
0,42,80,0
0,50,119,0
0,64,65,0
0,66,121,0
0,42,84,16
0,75,58,0
0,32,119,0
0,68,119,0
0,35,113,12
0,42,103,0
0,37,117,0
0,49,82,0
0,56,86,0
0,68,117,0
0,42,81,188
0,63,63,0
0,35,119,188
0,38,106,0
0,42,86,0
0,63,62,0
0,42,77,24
0,37,115,0
0,35,113,24
0,42,91,0
0,37,116,0
0,42,85,188
0,64,59,0
0,35,118,16
0,38,105,0
0,42,81,0
0,64,65,0
0,69,115,0
0,42,83,16
0,37,115,0
0,71,113,0
0,35,122,12
0,42,96,0
0,35,118,0
0,47,83,0
0,54,79,0
0,42,80,188
0,63,62,0
0,35,115,16
0,38,104,0
0,42,79,0
0,63,59,0
0,71,115,0
0,42,80,16
0,35,113,0
0,71,122,0
0,35,122,24
0,42,91,0
0,35,118,0
0,42,78,16
0,64,59,0
0,69,115,0
0,35,119,16
0,38,103,0
0,42,79,0
0,64,57,0
0,68,118,0
0,46,113,24
0,50,121,0
0,75,56,0
0,35,115,0
0,35,120,12
0,42,105,0
0,33,116,0
0,45,87,0
0,52,84,0
0,42,83,188
0,63,65,0
0,35,120,188
0,38,99,0
0,42,85,0
0,63,62,0
0,42,81,16
0,33,114,0
0,61,119,0
0,35,121,16
0,42,89,0
0,33,119,0
0,61,114,0
0,42,80,188
0,64,58,0
0,35,121,16
0,38,106,0
0,42,81,0
0,64,59,0
0,68,119,0
0,42,79,16
0,33,116,0
0,66,117,0
0,35,118,12
0,42,104,0
0,35,119,0
0,47,78,0
0,54,78,0
0,42,85,188
0,63,63,0
0,35,119,188
0,38,105,0
0,42,82,0
0,63,60,0
0,42,86,16
0,35,118,0
0,59,115,0
0,35,113,16
0,42,89,0
0,35,120,0
0,59,119,0
0,42,85,188
0,64,65,0
0,35,115,16
0,38,102,0
0,42,86,0
0,64,58,0
0,69,117,0
0,42,85,16
0,75,63,0
0,35,117,0
0,68,114,0
0,35,121,12
0,42,103,0
0,37,116,0
0,49,81,0
0,56,86,0
0,42,86,188
0,63,60,0
0,35,116,188
0,38,98,0
0,42,80,0
0,63,58,0
0,42,78,24
0,37,118,0
0,35,116,24
0,42,92,0
0,37,118,0
0,42,82,188
0,64,65,0
0,35,118,188
0,38,102,0
0,42,77,0
0,64,63,0
0,42,86,16
0,37,120,0
0,71,117,0
0,35,116,12
0,46,63,0
0,33,114,0
0,45,83,0
0,52,86,0
0,46,79,16
0,63,61,0
0,71,117,0
0,35,119,16
0,38,97,0
0,46,83,0
0,63,65,0
0,71,113,0
0,46,95,16
0,33,116,0
0,71,115,0
0,35,122,16
0,46,99,0
0,33,114,0
0,71,116,0
0,46,101,16
0,64,57,0
0,69,116,0
0,35,115,16
0,38,98,0
0,46,110,0
0,64,57,0
0,68,121,0
0,38,106,16
0,46,121,0
0,75,59,0
0,33,118,0
0,69,120,0
0,38,100,36
0,35,114,12
0,49,114,0
0,40,120,0
0,64,68,0
0,68,69,0
0,71,77,0
0,63,58,13
0,68,117,0
0,35,118,16
0,38,99,0
0,42,79,0
0,50,121,0
0,63,59,0
0,68,119,0
0,42,81,16
0,44,115,0
0,68,119,0
0,35,114,16
0,42,92,0
0,45,120,0
0,69,73,0
0,68,116,0
0,42,86,16
0,64,62,0
0,44,121,0
0,68,119,0
0,35,122,16
0,38,102,0
0,42,83,0
0,64,62,0
0,42,114,0
0,68,76,0
0,68,120,0
0,42,83,24
0,40,116,0
0,35,113,24
0,42,99,0
0,35,116,0
0,63,77,0
0,66,77,0
0,42,83,16
0,63,62,0
0,68,119,0
0,35,114,16
0,38,106,0
0,42,85,0
0,63,58,0
0,66,117,0
0,42,77,16
0,35,117,0
0,66,115,0
0,35,114,24
0,42,97,0
0,35,116,0
0,64,75,0
0,42,79,16
0,64,58,0
0,35,118,0
0,64,114,0
0,35,118,24
0,38,97,0
0,42,84,0
0,64,58,0
0,66,73,0
0,42,77,24
0,35,120,0
0,35,121,20
0,42,98,0
0,40,116,0
0,64,74,0
0,68,76,0
0,42,80,16
0,63,59,0
0,68,118,0
0,35,115,16
0,38,104,0
0,42,85,0
0,63,58,0
0,68,118,0
0,42,85,16
0,44,114,0
0,68,120,0
0,35,120,16
0,42,92,0
0,45,118,0
0,69,72,0
0,69,113,0
0,42,81,24
0,64,62,0
0,44,119,0
0,35,113,16
0,38,102,0
0,42,80,0
0,64,60,0
0,42,114,0
0,68,74,0
0,68,113,0
0,42,85,24
0,40,113,0
0,35,120,16
0,42,104,0
0,35,118,0
0,63,69,0
0,66,76,0
0,66,113,0
0,42,79,188
0,63,57,0
0,35,122,16
0,38,102,0
0,42,77,0
0,63,58,0
0,59,116,0
0,42,86,24
0,35,118,0
0,35,113,16
0,42,94,0
0,35,121,0
0,64,68,0
0,59,120,0
0,42,82,188
0,64,63,0
0,35,113,4
0,38,101,0
0,42,79,0
0,64,60,0
0,66,68,0
0,42,77,24
0,35,116,0
0,35,119,24
0,42,103,0
0,40,118,0
0,64,76,0
0,68,72,0
0,42,82,16
0,63,58,0
0,68,121,0
0,35,120,16
0,38,106,0
0,42,83,0
0,63,59,0
0,68,114,0
0,42,77,16
0,44,120,0
0,68,115,0
0,35,118,16
0,42,96,0
0,45,113,0
0,69,72,0
0,69,115,0
0,42,78,24
0,64,59,0
0,44,119,0
0,35,115,8
0,38,104,0
0,42,84,0
0,50,114,0
0,64,64,0
0,42,121,0
0,68,68,0
0,68,117,0
0,42,79,24
0,40,115,0
0,35,116,16
0,42,98,0
0,35,113,0
0,63,69,0
0,66,70,0
0,66,120,0
0,42,79,188
0,63,65,0
0,35,120,188
0,38,101,0
0,42,86,0
0,63,61,0
0,42,77,16
0,35,120,0
0,59,115,0
0,35,121,16
0,42,93,0
0,35,116,0
0,64,74,0
0,59,116,0
0,42,79,188
0,64,60,0
0,35,114,24
0,38,105,0
0,42,77,0
0,64,62,0
0,66,70,0
0,42,84,16
0,35,122,0
0,59,116,0
0,35,114,16
0,42,101,0
0,33,119,0
0,61,73,0
0,64,69,0
0,69,74,0
0,61,116,0
0,42,85,188
0,63,57,0
0,88,84,0
0,35,119,188
0,38,98,0
0,42,80,0
0,63,63,0
0,42,78,24
0,33,120,0
0,83,83,0
0,35,122,24
0,42,96,0
0,33,113,0
0,42,78,0
0,64,57,0
0,33,116,0
0,88,88,0
0,35,121,188
0,38,101,0
0,42,78,0
0,64,63,0
0,42,85,24
0,33,119,0
0,83,80,0
0,35,115,24
0,42,97,0
0,35,119,0
0,63,68,0
0,66,71,0
0,71,70,0
0,42,85,0
0,63,65,0
0,88,88,0
0,35,116,188
0,38,104,0
0,42,78,0
0,63,64,0
0,42,80,24
0,35,117,0
0,83,88,0
0,35,118,24
0,42,90,0
0,35,122,0
0,42,80,20
0,64,61,0
0,35,113,0
0,35,121,188
0,38,100,0
0,42,86,0
0,64,64,0
0,42,84,24
0,35,118,0
0,35,119,8
0,49,120,0
0,35,122,0
0,47,85,0
0,54,88,0
0,42,86,188
0,63,58,0
0,75,81,4
0,35,119,184
0,38,105,0
0,42,86,0
0,50,113,0
0,63,60,0
0,76,84,4
0,42,84,24
0,35,116,0
0,83,85,4
0,35,116,16
0,42,89,0
0,37,118,0
0,49,93,0
0,56,92,0
0,42,80,4
0,64,61,0
0,75,84,4
0,35,117,184
0,38,99,0
0,42,77,0
0,64,62,0
0,76,80,0
0,42,82,20
0,33,113,0
0,57,91,0
0,61,93,0
0,45,92,0
0,52,85,0
0,73,79,4
0,35,120,4
0,42,97,0
0,64,85,0
0,68,86,0
0,42,81,188
0,63,59,0
0,57,92,28
0,61,86,0
0,35,122,4
0,38,97,0
0,42,82,0
0,63,61,0
0,64,85,0
0,68,85,0
0,42,85,24
0,33,119,0
0,64,87,0
0,68,89,0
0,35,116,24
0,42,90,0
0,64,61,0
0,33,121,0
0,59,92,0
0,63,90,0
0,66,92,0
0,63,60,8
0,42,80,24
0,64,57,0
0,33,117,0
0,63,57,8
0,35,115,176
0,38,98,0
0,42,78,0
0,64,65,0
0,63,59,8
0,42,85,24
0,75,56,0
0,33,119,0
0,35,116,20
0,42,97,0
0,35,118,0
0,47,92,0
0,54,89,0
0,42,81,40
0,63,57,0
0,75,84,4
0,35,121,184
0,38,106,0
0,42,82,0
0,63,56,0
0,76,84,4
0,42,81,24
0,35,115,0
0,83,88,4
0,35,121,20
0,42,96,0
0,37,116,0
0,49,90,0
0,56,89,0
0,42,77,188
0,64,57,0
0,75,82,4
0,35,122,144
0,38,102,0
0,42,81,0
0,64,58,0
0,76,86,4
0,42,78,20
0,33,120,0
0,57,93,0
0,61,85,0
0,45,86,0
0,52,84,0
0,73,79,4
0,35,113,12
0,42,105,0
0,33,114,0
0,64,87,0
0,68,84,0
0,42,78,188
0,63,59,0
0,57,85,28
0,61,87,0
0,35,114,4
0,38,105,0
0,42,81,0
0,63,58,0
0,64,92,0
0,68,90,0
0,42,85,24
0,33,115,0
0,64,90,0
0,68,92,0
0,35,114,24
0,42,89,0
0,64,62,0
0,33,117,0
0,59,91,0
0,63,92,0
0,66,91,0
0,63,65,8
0,42,80,24
0,64,58,0
0,33,122,0
0,63,58,8
0,35,121,176
0,38,100,0
0,42,82,0
0,50,118,0
0,64,57,0
0,63,62,8
0,46,119,176
0,75,57,0
0,35,116,20
0,42,103,0
0,35,113,0
0,47,87,0
0,54,91,0
0,42,86,40
0,63,63,0
0,75,82,4
0,87,94,0
0,35,114,184
0,38,102,0
0,42,82,0
0,63,62,0
0,76,83,4
0,88,100,0
0,42,84,24
0,35,122,0
0,83,88,4
0,95,103,0
0,35,117,20
0,42,95,0
0,37,114,0
0,49,86,0
0,56,93,0
0,42,83,4
0,64,64,0
0,75,87,4
0,87,103,0
0,35,114,4
0,38,100,0
0,42,82,0
0,64,59,0
0,76,83,4
0,88,94,0
0,42,80,20
0,33,121,0
0,57,92,0
0,61,93,0
0,45,84,0
0,52,85,0
0,73,79,4
0,85,94,0
0,35,113,4
0,42,100,0
0,33,118,0
0,64,89,0
0,68,84,0
0,42,82,188
0,63,61,0
0,57,91,28
0,61,85,0
0,35,117,4
0,38,104,0
0,42,78,0
0,50,118,0
0,63,63,0
0,64,89,0
0,68,89,0
0,42,85,24
0,33,118,0
0,64,84,0
0,68,88,0
0,35,114,24
0,42,97,0
0,64,56,0
0,33,119,0
0,59,91,0
0,63,92,0
0,66,91,0
0,63,61,8
0,42,85,24
0,64,59,0
0,33,118,0
0,63,57,8
0,35,121,176
0,38,105,0
0,42,85,0
0,50,114,0
0,64,62,0
0,63,63,8
0,42,84,24
0,75,59,0
0,33,120,0
0,35,114,20
0,42,100,0
0,35,113,0
0,47,90,0
0,54,86,0
0,42,82,40
0,63,65,0
0,75,80,4
0,87,101,0
0,35,122,184
0,38,98,0
0,42,81,0
0,50,120,0
0,63,64,0
0,76,82,4
0,88,103,0
0,42,86,24
0,35,120,0
0,83,88,4
0,95,102,0
0,35,120,20
0,42,98,0
0,37,117,0
0,49,86,0
0,56,91,0
0,42,79,28
0,64,56,0
0,75,85,4
0,87,101,0
0,35,121,0
0,38,104,0
0,42,85,0
0,50,113,0
0,64,63,0
0,76,88,4
0,88,102,0
0,42,77,4
0,33,114,0
0,57,91,0
0,61,91,0
0,45,87,0
0,52,91,0
0,73,83,4
0,85,102,0
0,35,113,0
0,42,104,0
0,64,89,0
0,68,92,0
0,42,83,188
0,63,63,0
0,57,93,28
0,61,84,0
0,35,113,4
0,38,104,0
0,42,79,0
0,63,63,0
0,64,89,0
0,68,93,0
0,42,86,24
0,33,114,0
0,64,88,0
0,68,89,0
0,35,121,24
0,42,94,0
0,64,56,0
0,33,117,0
0,59,92,0
0,63,88,0
0,66,90,0
0,63,64,8
0,38,101,24
0,42,77,0
0,64,64,0
0,33,115,0
0,63,65,8
0,38,106,80
0,35,118,92
0,38,99,0
0,42,84,0
0,64,57,0
0,63,62,8
0,38,102,24
0,46,119,0
