track,note,velocity,time
0,48,91,48
0,48,0,25
0,50,96,23
0,50,0,18
0,53,101,30
0,36,109,0
0,42,75,0
0,70,82,0
0,29,101,0
0,60,101,0
0,65,109,0
0,69,104,1
0,69,101,0
0,57,67,1
0,53,42,3
0,53,81,1
0,42,62,3
0,70,31,0
0,40,106,1
0,42,81,0
0,70,76,0
0,42,54,31
0,70,55,0
0,29,83,0
0,53,76,0
0,53,0,9
0,42,0,3
0,70,0,3
0,29,0,3
0,42,77,30
0,70,66,0
0,53,91,0
0,29,101,2
0,42,0,14
0,70,0,1
0,36,0,1
0,36,106,23
0,42,56,0
0,70,51,0
0,42,0,11
0,40,0,0
0,70,0,4
0,40,101,3
0,42,88,0
0,70,72,0
0,65,0,1
0,42,0,14
0,69,0,3
0,70,0,1
0,29,0,4
0,69,0,1
0,42,59,24
0,70,51,0
0,36,0,3
0,53,65,1
0,42,0,6
0,53,0,4
0,70,0,1
0,53,0,26
0,60,58,1
0,69,101,3
0,72,109,1
0,36,114,2
0,42,85,0
0,70,69,0
0,53,81,0
0,72,118,2
0,29,104,2
0,42,54,12
0,70,46,0
0,40,0,2
0,42,0,9
0,70,0,6
0,40,106,3
0,42,88,0
0,70,82,0
0,42,59,8
0,70,55,0
0,29,88,0
0,53,81,1
0,36,0,10
0,42,0,2
0,70,0,3
0,29,0,2
0,53,0,11
0,36,91,19
0,42,66,0
0,70,64,0
0,29,104,4
0,42,0,9
0,36,0,0
0,70,0,5
0,72,0,15
0,69,0,3
0,36,103,12
0,42,81,0
0,70,66,0
0,53,76,1
0,40,98,6
0,42,94,0
0,70,69,0
0,55,86,0
0,42,69,4
0,70,57,0
0,60,79,0
0,57,88,1
0,48,36,0
0,53,35,1
0,65,121,1
0,60,65,2
0,36,109,2
0,42,85,0
0,70,72,0
0,65,109,0
0,53,71,1
0,29,96,2
0,42,62,2
0,70,55,0
0,40,98,12
0,42,92,0
0,70,74,0
0,53,0,9
0,29,0,2
0,42,56,15
0,70,57,0
0,53,76,2
0,29,81,1
0,42,0,8
0,70,0,4
0,53,0,7
0,29,0,6
0,42,72,20
0,70,69,0
0,53,81,0
0,29,98,3
0,36,0,10
0,42,0,2
0,70,0,4
0,36,114,29
0,42,85,0
0,70,58,0
0,40,0,2
0,42,0,12
0,70,0,1
0,40,101,24
0,42,92,0
0,70,82,0
0,53,0,7
0,29,0,6
0,42,0,1
0,70,0,5
0,53,65,27
0,42,69,2
0,70,69,0
0,36,0,9
0,42,0,2
0,53,0,2
0,70,0,3
0,65,0,20
0,53,0,3
0,48,0,0
0,57,43,2
0,60,38,1
0,53,83,3
0,36,106,1
0,42,92,0
0,70,72,0
0,57,101,1
0,60,112,1
0,29,98,1
0,42,0,13
0,70,0,4
0,40,0,6
0,42,54,22
0,70,66,0
0,42,0,11
0,70,0,5
0,40,98,2
0,42,92,0
0,70,74,0
0,42,72,21
0,70,64,0
0,29,83,0
0,53,83,1
0,42,0,11
0,36,0,2
0,70,0,5
0,29,0,2
0,53,0,7
0,29,96,5
0,36,98,1
0,42,85,0
0,70,66,0
0,53,81,7
0,36,106,3
0,42,75,0
0,70,66,0
0,55,101,13
0,40,103,1
0,42,88,0
0,70,82,0
0,29,0,4
0,57,0,7
0,60,0,4
0,42,0,1
0,70,0,3
0,55,0,13
0,57,101,15
0,42,72,1
0,70,69,0
0,29,91,3
0,42,0,9
0,36,0,2
0,70,0,3
0,57,0,9
0,29,0,10
0,62,49,6
0,58,36,0
0,69,98,5
0,74,104,0
0,36,109,1
0,42,88,0
0,70,64,0
0,53,83,0
0,34,110,1
0,58,87,2
0,62,91,1
0,65,96,0
0,69,96,1
0,69,96,0
0,42,56,7
0,70,62,0
0,40,101,1
0,42,94,0
0,70,72,0
0,53,0,4
0,72,109,0
0,42,52,6
0,70,60,0
0,34,97,0
0,53,88,0
0,42,77,10
0,70,82,0
0,34,97,2
0,74,109,0
0,53,81,0
0,36,114,7
0,42,88,0
0,70,55,0
0,40,98,2
0,42,88,0
0,70,79,0
0,53,0,0
0,77,109,3
0,70,0,15
0,42,0,0
0,77,0,1
0,42,72,29
0,70,66,0
0,53,69,0
0,34,97,1
0,36,0,2
0,58,0,8
0,42,0,2
0,70,0,3
0,53,0,1
0,62,0,2
0,34,0,9
0,69,0,4
0,60,69,3
0,64,61,1
0,36,114,3
0,42,88,0
0,70,87,0
0,60,98,0
0,65,101,0
0,36,98,1
0,69,96,0
0,53,81,0
0,74,109,0
0,67,93,2
0,72,98,1
0,74,0,5
0,42,69,7
0,70,69,0
0,40,101,2
0,42,92,0
0,70,76,0
0,72,109,0
0,42,64,6
0,70,58,0
0,53,88,1
0,36,88,3
0,36,93,15
0,42,85,0
0,70,85,0
0,69,109,0
0,36,91,4
0,42,0,10
0,36,0,0
0,70,0,4
0,69,0,0
0,69,0,2
0,53,81,6
0,40,0,1
0,36,109,0
0,42,77,0
0,70,69,0
0,55,98,13
0,40,101,2
0,42,88,0
0,70,85,0
0,67,93,2
0,36,0,1
0,60,0,11
0,67,0,2
0,57,93,19
0,42,75,2
0,70,72,0
0,36,91,1
0,58,101,0
0,42,0,14
0,70,0,1
0,36,0,0
0,67,0,8
0,57,0,2
0,36,0,6
0,64,0,4
0,58,67,1
0,62,54,1
0,36,109,1
0,42,88,0
0,70,79,0
0,58,70,0
0,53,81,0
0,62,91,1
0,69,101,0
0,65,98,1
0,69,91,0
0,74,98,1
0,34,104,2
0,69,0,10
0,42,69,25
0,70,66,0
0,42,0,12
0,40,96,2
0,42,92,0
0,70,72,0
0,72,120,2
0,53,88,3
0,42,77,2
0,70,66,0
0,58,0,0
0,34,97,1
0,42,77,22
0,70,74,0
0,34,101,0
0,53,83,1
0,74,109,1
0,36,0,9
0,42,0,3
0,74,0,1
0,65,0,2
0,70,0,2
0,62,0,1
0,36,106,28
0,42,92,0
0,70,66,0
0,40,0,1
0,40,96,1
0,42,88,0
0,70,91,0
0,77,106,2
0,42,0,12
0,70,0,4
0,77,0,1
0,53,79,27
0,42,75,2
0,70,64,0
0,34,101,1
0,42,0,12
0,53,0,0
0,70,0,3
0,36,0,1
0,69,0,5
0,34,0,1
0,58,0,6
0,62,0,3
0,64,50,6
0,53,81,1
0,36,103,1
0,42,88,0
0,70,79,0
0,36,91,0
0,74,109,0
0,60,65,0
0,67,101,1
0,72,101,1
0,60,101,2
0,65,101,0
0,69,96,0
0,74,0,2
0,40,0,6
0,42,69,5
0,70,66,0
0,40,96,4
0,42,88,0
0,70,87,0
0,36,0,1
0,72,106,0
0,42,0,15
0,70,0,2
0,72,0,6
0,53,79,10
0,42,75,2
0,70,69,0
0,36,93,0
0,36,98,2
0,42,88,0
0,70,85,0
0,36,91,0
0,69,98,0
0,53,86,3
0,36,103,1
0,42,81,0
0,70,60,0
0,57,109,2
0,40,103,1
0,42,94,0
0,70,85,0
0,67,96,1
0,69,0,2
0,36,0,2
0,65,0,0
0,55,71,4
0,70,66,1
0,67,0,0
0,36,93,1
0,69,104,5
0,57,56,4
0,53,86,1
0,53,54,0
0,36,109,1
0,42,75,0
0,70,85,0
0,60,91,0
0,65,101,0
0,69,104,1
0,69,91,0
0,69,79,1
0,29,93,1
0,42,62,2
0,70,64,0
0,40,106,1
0,42,81,0
0,70,82,0
0,29,0,3
0,53,0,0
0,53,79,29
0,42,54,2
0,70,60,0
0,29,79,3
0,42,0,9
0,53,0,1
0,70,0,2
0,29,0,7
0,42,77,1
0,70,79,0
0,53,83,0
0,29,91,0
0,69,0,1
0,69,111,0
0,42,0,11
0,70,0,1
0,36,0,1
0,36,106,10
0,42,56,0
0,70,60,0
0,72,98,0
0,69,0,4
0,42,0,4
0,40,0,0
0,70,0,4
0,40,101,0
0,42,88,0
0,70,79,0
0,53,0,1
0,29,0,2
0,74,105,0
0,65,0,7
0,42,0,4
0,70,0,3
0,69,0,0
0,60,0,3
0,29,76,24
0,53,67,0
0,42,59,3
0,70,64,0
0,36,0,3
0,42,0,7
0,69,0,2
0,29,0,3
0,70,0,1
0,53,0,1
0,53,81,0
0,29,88,1
0,36,114,1
0,42,85,0
0,70,82,0
0,60,50,0
0,69,101,1
0,72,118,1
0,72,109,0
0,53,0,1
0,42,54,12
0,70,57,0
0,40,0,2
0,42,0,9
0,70,0,3
0,40,106,3
0,42,88,0
0,70,82,0
0,42,59,19
0,70,69,0
0,29,91,0
0,53,86,0
0,36,0,11
0,42,0,2
0,70,0,1
0,29,0,6
0,53,0,14
0,65,95,0
0,36,91,7
0,42,66,0
0,70,79,0
0,29,88,1
0,42,0,12
0,36,0,0
0,70,0,3
0,65,0,22
0,65,90,0
0,53,91,3
0,36,103,1
0,42,81,0
0,70,72,0
0,72,0,4
0,69,0,3
0,55,96,0
0,69,100,0
0,40,98,0
0,42,94,0
0,70,82,0
0,57,96,1
0,42,69,3
0,70,69,0
0,29,83,1
0,69,98,0
0,48,46,0
0,65,121,1
0,53,37,0
0,53,88,0
0,36,109,0
0,42,85,0
0,70,82,0
0,29,91,0
0,65,101,0
0,60,98,1
0,42,62,2
0,70,66,0
0,40,98,35
0,42,92,0
0,70,82,0
0,53,0,4
0,29,0,7
0,53,86,4
0,42,56,1
0,70,58,0
0,29,88,1
0,42,0,10
0,70,0,2
0,53,0,4
0,29,0,7
0,42,72,24
0,70,85,0
0,53,86,0
0,29,86,2
0,60,0,1
0,65,0,4
0,36,0,6
0,42,0,2
0,70,0,1
0,36,114,32
0,42,85,0
0,70,69,0
0,40,0,2
0,70,0,12
0,42,0,0
0,40,101,3
0,42,92,0
0,70,85,0
0,29,0,10
0,42,0,4
0,70,0,3
0,42,69,31
0,70,64,0
0,29,83,0
0,53,86,1
0,36,0,8
0,42,0,2
0,53,0,2
0,70,0,2
0,29,0,8
0,65,0,13
0,48,0,3
0,53,0,3
0,57,53,2
0,60,58,0
0,57,93,2
0,36,106,1
0,42,92,0
0,70,82,0
0,29,96,0
0,60,104,0
0,53,91,1
0,42,54,22
0,70,60,0
0,42,0,11
0,70,0,3
0,69,0,8
0,40,98,8
0,42,92,0
0,70,82,0
0,42,72,32
0,70,69,0
0,29,83,1
0,53,88,1
0,57,0,4
0,60,0,4
0,42,0,2
0,36,0,2
0,70,0,2
0,29,0,7
0,53,0,2
0,29,91,4
0,36,98,2
0,42,85,0
0,70,76,0
0,67,100,0
0,67,93,0
0,53,88,1
0,36,106,1
0,42,75,0
0,70,69,0
0,67,90,0
0,55,96,5
0,40,103,1
0,42,88,0
0,70,85,0
0,29,0,4
0,70,0,12
0,42,0,0
0,55,0,12
0,67,0,12
0,57,93,6
0,65,98,1
0,42,72,1
0,70,66,0
0,29,91,1
0,42,0,11
0,36,0,2
0,70,0,1
0,57,0,4
0,29,0,8
0,58,61,14
0,62,59,0
0,57,0,3
0,60,0,2
0,69,98,1
0,74,104,0
0,36,109,1
0,42,88,0
0,70,82,0
0,34,104,0
0,53,79,0
0,58,89,1
0,69,93,0
0,62,91,1
0,65,93,1
0,69,96,1
0,42,56,7
0,70,64,0
0,65,88,0
0,40,101,2
0,42,94,0
0,70,82,0
0,34,0,0
0,72,88,2
0,34,97,4
0,53,81,1
0,42,52,1
0,70,60,0
0,65,93,0
0,42,77,3
0,70,82,0
0,34,97,1
0,53,88,0
0,74,109,3
0,65,95,0
0,36,114,0
0,42,88,0
0,70,66,0
0,40,98,5
0,42,88,0
0,70,85,0
0,69,103,0
0,77,104,2
0,70,0,13
0,42,0,0
0,77,0,2
0,53,81,22
0,34,97,4
0,42,72,2
0,70,62,0
0,36,0,3
0,53,0,2
0,42,0,8
0,70,0,2
0,34,0,0
0,58,0,14
0,69,0,3
0,62,0,3
0,60,59,6
0,64,63,1
0,36,88,2
0,53,91,1
0,36,114,2
0,42,88,0
0,70,85,0
0,65,98,1
0,69,98,1
0,60,98,1
0,67,93,0
0,74,93,1
0,72,98,0
0,74,0,5
0,42,69,7
0,70,51,0
0,40,101,10
0,42,92,0
0,70,85,0
0,36,0,3
0,72,93,1
0,36,91,3
0,42,64,3
0,70,64,0
0,53,96,2
0,36,93,16
0,42,85,0
0,70,79,0
0,36,93,0
0,69,96,4
0,42,0,10
0,36,0,0
0,70,0,2
0,69,0,5
0,36,109,0
0,42,77,0
0,70,69,0
0,53,81,1
0,40,101,5
0,42,88,0
0,70,82,0
0,55,98,0
0,67,93,1
0,36,0,12
0,67,0,1
0,70,0,2
0,57,91,14
0,42,75,1
0,70,58,0
0,36,98,1
0,70,0,14
0,42,0,0
0,36,0,1
0,67,0,8
0,57,0,2
0,36,0,2
0,53,73,1
0,58,54,0
0,62,43,0
0,36,109,2
0,42,88,0
0,70,87,0
0,34,110,1
0,69,91,1
0,69,98,1
0,74,98,0
0,58,104,2
0,62,93,1
0,69,91,1
0,65,83,0
0,42,69,25
0,70,64,0
0,42,0,12
0,40,96,3
0,42,92,0
0,70,87,0
0,53,0,1
0,72,93,1
0,53,69,4
0,42,77,1
0,70,62,0
0,34,101,1
0,65,105,0
0,42,77,3
0,70,82,0
0,34,101,1
0,53,79,0
0,74,98,1
0,65,95,0
0,36,106,7
0,42,92,0
0,70,58,0
0,40,0,1
0,69,103,0
0,40,96,0
0,42,88,0
0,70,82,0
0,77,101,4
0,34,0,1
0,42,0,9
0,70,0,4
0,77,0,1
0,60,83,24
0,53,79,2
0,34,101,2
0,42,75,1
0,70,58,0
0,42,0,13
0,53,0,1
0,70,0,3
0,36,0,0
0,34,0,2
0,69,0,3
0,60,0,8
0,60,63,3
0,58,0,1
0,64,63,0
0,53,88,1
0,36,103,1
0,42,88,0
0,70,85,0
0,36,93,0
0,60,81,0
0,65,98,1
0,74,104,0
0,67,101,0
0,69,96,1
0,72,101,0
0,42,69,5
0,70,66,0
0,40,96,7
0,42,88,0
0,70,82,0
0,72,96,2
0,36,0,3
0,53,0,2
0,42,0,9
0,70,0,2
0,72,0,2
0,36,91,11
0,42,75,1
0,70,64,0
0,53,83,3
0,69,93,1
0,36,98,1
0,42,88,0
0,70,87,0
0,36,86,0
0,60,0,7
0,36,103,4
0,42,81,0
0,70,66,0
0,38,98,0
0,53,88,1
0,36,88,3
0,57,109,0
0,40,103,1
0,42,94,0
0,70,87,0
0,67,86,3
0,55,63,4
0,70,66,1
0,67,0,0
0,69,104,2
0,65,101,0
0,53,88,0
0,57,47,0
0,36,109,1
0,42,75,0
0,70,85,0
0,60,98,0
0,53,56,0
0,69,104,1
0,69,93,0
0,29,96,5
0,42,62,3
0,70,69,0
0,40,106,1
0,42,81,0
0,70,91,0
0,53,0,4
0,29,88,27
0,53,73,3
0,42,54,1
0,70,64,0
0,42,0,12
0,69,111,0
0,29,96,3
0,42,77,1
0,70,79,0
0,53,88,1
0,69,0,1
0,72,98,0
0,36,106,3
0,42,56,0
0,70,69,0
0,42,0,11
0,40,0,0
0,70,0,4
0,40,101,10
0,42,88,0
0,70,79,0
0,74,100,0
0,53,0,2
0,29,0,1
0,60,0,6
0,65,0,0
0,42,0,4
0,70,0,2
0,69,0,1
0,53,65,28
0,42,59,2
0,70,62,0
0,69,0,2
0,36,0,1
0,42,0,7
0,53,0,1
0,60,59,26
0,29,96,1
0,53,0,0
0,36,114,2
0,42,85,0
0,70,76,0
0,69,101,0
0,72,101,1
0,53,81,0
0,72,118,1
0,42,54,12
0,70,62,0
0,40,0,2
0,42,0,9
0,70,0,4
0,40,106,3
0,42,88,0
0,70,82,0
0,65,103,0
0,29,83,0
0,42,59,1
0,70,66,0
0,53,88,3
0,36,0,8
0,42,0,2
0,70,0,2
0,29,0,8
0,53,0,8
0,36,91,17
0,42,66,0
0,70,85,0
0,29,93,0
0,69,105,0
0,65,0,2
0,42,0,10
0,36,0,0
0,70,0,5
0,36,103,30
0,42,81,0
0,70,64,0
0,53,81,0
0,55,101,5
0,69,105,0
0,40,98,0
0,42,94,0
0,70,87,0
0,57,91,2
0,42,69,2
0,70,69,0
0,65,121,1
0,53,81,2
0,53,43,1
