track,note,velocity,time
1,51,83,768
1,63,74,0
1,58,74,96
1,63,68,96
1,67,65,96
1,70,77,0
1,67,72,96
1,63,54,0
1,62,80,96
1,50,61,0
1,58,74,96
1,62,66,0
1,65,61,96
1,70,56,0
1,65,61,96
1,62,68,32
1,48,65,96
1,60,80,0
1,55,74,96
1,60,76,0
1,63,71,96
1,70,68,0
1,67,70,96
1,63,64,16
1,62,83,192
1,50,80,0
1,58,66,36
1,62,70,56
1,65,74,96
1,70,64,0
1,65,74,96
1,62,76,44
1,51,71,96
1,63,64,0
1,58,64,96
1,63,71,0
1,67,61,96
1,70,79,0
1,67,68,0
1,63,61,92
1,62,76,96
1,50,76,0
1,58,61,96
1,62,70,0
1,65,60,96
1,70,56,0
1,65,70,36
1,62,74,76
1,60,80,96
1,48,68,0
1,55,83,16
1,60,78,0
1,63,64,96
1,70,71,0
1,67,74,16
1,63,74,56
1,50,65,192
1,62,68,0
1,58,52,16
1,62,70,68
1,65,60,96
1,70,54,0
1,65,74,4
1,62,70,96
1,51,83,124
1,63,74,0
1,58,74,12
1,63,68,0
1,67,65,96
1,70,77,0
1,67,72,96
1,63,54,0
1,62,80,96
1,50,61,0
1,58,74,96
1,62,66,0
1,65,61,96
1,70,56,0
1,65,61,96
1,62,68,32
1,48,65,96
1,60,80,0
1,55,74,96
1,60,76,0
1,63,71,96
1,70,68,0
1,67,70,96
1,63,64,16
1,62,83,192
1,50,80,0
1,58,66,36
1,62,70,56
1,65,74,96
1,70,64,0
1,65,74,96
1,62,76,44
1,51,71,96
1,63,64,0
1,58,64,96
1,63,71,0
1,67,61,96
1,70,79,0
1,67,68,0
1,63,61,92
1,62,76,96
1,50,76,0
1,58,61,96
1,62,70,0
1,65,60,96
1,70,56,0
1,65,70,36
1,62,74,76
1,60,80,96
1,48,68,0
1,55,83,16
1,60,78,0
1,63,64,96
1,70,71,0
1,67,74,16
1,63,74,56
1,50,65,192
1,62,68,0
1,58,52,16
1,62,70,68
1,65,60,96
1,70,54,0
1,65,74,4
1,62,70,96
1,51,83,124
1,63,74,0
1,58,74,12
1,63,68,0
1,67,65,96
1,70,77,0
1,67,72,96
1,63,54,0
1,62,80,96
1,50,61,0
1,58,74,96
1,62,66,0
1,65,61,96
1,70,56,0
1,65,61,96
1,62,68,32
1,48,65,96
1,60,80,0
1,55,74,96
1,60,76,0
1,63,71,96
1,70,68,0
1,67,70,96
1,63,64,16
1,62,83,192
1,50,80,0
1,58,66,36
1,62,70,56
1,65,74,96
1,70,64,0
1,65,74,96
1,62,76,44
1,51,71,96
1,63,64,0
1,58,64,96
1,63,71,0
1,67,61,96
1,70,79,0
1,67,68,0
1,63,61,92
1,62,76,96
1,50,76,0
1,58,61,96
1,62,70,0
1,65,60,96
1,70,56,0
1,65,70,36
1,62,74,76
1,60,80,96
1,48,68,0
1,55,83,16
1,60,78,0
1,63,64,96
1,70,71,0
1,67,74,16
1,63,74,56
1,58,74,740
1,63,68,96
1,67,65,96
1,70,77,96
1,67,72,96
1,63,54,0
1,62,80,96
1,50,61,0
1,58,74,96
1,62,66,0
1,65,61,96
1,70,56,0
1,65,61,96
1,62,68,32
1,48,65,96
1,60,80,0
1,55,74,96
1,60,76,0
1,63,71,96
1,70,68,0
1,67,70,96
1,63,64,16
1,62,83,192
1,50,80,0
1,58,66,36
1,62,70,56
1,65,74,96
1,70,64,0
1,65,74,96
1,62,76,44
1,51,71,96
1,63,64,0
1,58,64,96
1,63,71,0
1,67,61,96
1,70,79,0
1,67,68,0
1,63,61,92
1,62,76,96
1,50,76,0
1,58,61,96
1,62,70,0
1,65,60,96
1,70,56,0
1,65,70,36
1,62,74,76
1,60,80,96
1,48,68,0
1,55,83,16
1,60,78,0
1,63,64,96
1,70,71,0
1,67,74,16
1,63,74,56
1,50,65,192
1,62,68,0
1,58,52,16
1,62,70,68
1,65,60,96
1,70,54,0
1,65,74,4
1,62,70,96
1,51,83,124
1,63,74,0
1,58,74,12
1,63,68,0
1,67,65,96
1,70,77,0
1,67,72,96
1,63,54,0
1,62,80,96
1,50,61,0
1,58,74,96
1,62,66,0
1,65,61,96
1,70,56,0
1,65,61,96
1,62,68,32
1,48,65,96
1,60,80,0
1,55,74,96
1,60,76,0
1,63,71,96
1,70,68,0
1,67,70,96
1,63,64,16
1,62,83,192
1,50,80,0
1,58,66,36
1,62,70,56
1,65,74,96
1,70,64,0
1,65,74,96
1,62,76,44
1,51,71,96
1,63,64,0
1,58,64,96
1,63,71,0
1,67,61,96
1,70,79,0
1,67,68,0
1,63,61,92
1,62,76,96
1,50,76,0
1,58,61,96
1,62,70,0
1,65,60,96
1,70,56,0
1,65,70,36
1,62,74,76
1,60,80,96
1,48,68,0
1,55,83,16
1,60,78,0
1,63,64,96
1,70,71,0
1,67,74,16
1,63,74,56
1,50,65,192
1,62,68,0
1,58,52,16
1,62,70,68
1,65,60,96
1,70,54,0
1,65,74,4
1,62,70,96
1,51,83,124
1,63,74,0
1,58,74,12
1,63,68,0
1,67,65,96
1,70,77,0
1,67,72,96
1,63,54,0
1,62,80,96
1,50,61,0
1,58,74,96
1,62,66,0
1,65,61,96
1,70,56,0
1,65,61,96
1,62,68,32
1,48,65,96
1,60,80,0
1,55,74,96
1,60,76,0
1,63,71,96
1,70,68,0
1,67,70,96
1,63,64,16
1,62,83,192
1,50,80,0
1,58,66,36
1,62,70,56
1,65,74,96
1,70,64,0
1,65,74,96
1,62,76,44
1,51,71,96
1,63,64,0
1,58,64,96
1,63,71,0
1,67,61,96
1,70,79,0
1,67,68,0
1,63,61,92
1,62,76,96
1,50,76,0
1,58,61,96
1,62,70,0
1,65,60,96
1,70,56,0
1,65,70,36
1,62,74,76
1,60,80,96
1,48,68,0
1,55,83,16
1,60,78,0
1,63,64,96
1,70,71,0
1,67,74,16
1,63,74,56
1,62,103,192
1,63,77,16
1,62,86,384
1,60,90,116
1,58,96,132
1,58,74,120
1,63,90,388
1,62,90,184
1,62,100,116
1,63,83,100
1,62,98,744
1,60,100,100
1,58,100,84
1,63,100,712
1,62,88,224
1,62,103,108
1,63,79,96
1,62,98,12660
1,63,100,96
1,62,88,256
1,60,95,100
1,58,96,72
1,63,94,780
1,62,90,152
1,62,95,132
1,63,87,100
1,62,95,724
1,60,98,760
1,58,100,20
1,63,94,784
1,62,93,92
1,62,105,76
1,63,94,96
1,51,83,9760
1,63,74,0
1,58,74,96
1,63,68,96
1,67,65,96
1,70,77,0
1,67,72,96
1,63,54,0
1,62,80,96
1,50,61,0
1,58,74,96
1,62,66,0
1,65,61,96
1,70,56,0
1,65,61,96
1,62,68,32
1,48,65,96
1,60,80,0
1,55,74,96
1,60,76,0
1,63,71,96
1,70,68,0
1,67,70,96
1,63,64,16
1,62,83,192
1,50,80,0
1,58,66,36
1,62,70,56
1,65,74,96
1,70,64,0
1,65,74,96
1,62,76,44
1,51,71,96
1,63,64,0
1,58,64,96
1,63,71,0
1,67,61,96
1,70,79,0
1,67,68,0
1,63,61,92
1,62,76,96
1,50,76,0
1,58,61,96
1,62,70,0
1,65,60,96
1,70,56,0
1,65,70,36
1,62,74,76
1,60,80,96
1,48,68,0
1,55,83,16
1,60,78,0
1,63,64,96
1,70,71,0
1,67,74,16
1,63,74,56
1,50,65,192
1,62,68,0
1,58,52,16
1,62,70,68
1,65,60,96
1,70,54,0
1,65,74,4
1,62,70,96
1,51,83,124
1,63,74,0
1,58,74,12
1,63,68,0
1,67,65,96
1,70,77,0
1,67,72,96
1,63,54,0
1,62,80,96
1,50,61,0
1,58,74,96
1,62,66,0
1,65,61,96
1,70,56,0
1,65,61,96
1,62,68,32
1,48,65,96
1,60,80,0
1,55,74,96
1,60,76,0
1,63,71,96
1,70,68,0
1,67,70,96
1,63,64,16
1,62,81,168
1,62,83,24
1,50,80,0
1,65,91,4
1,70,97,8
1,51,83,328
1,63,74,0
1,58,74,96
1,63,68,96
1,67,65,96
1,70,77,0
1,67,72,96
1,63,54,0
1,62,80,96
1,50,61,0
1,58,74,96
1,62,66,0
1,65,61,96
1,70,56,0
1,65,61,96
1,62,68,32
1,48,65,96
1,60,80,0
1,55,74,96
1,60,76,0
1,63,71,96
1,70,68,0
1,67,70,96
1,63,64,16
1,62,83,192
1,50,80,0
1,58,66,36
1,62,70,56
1,65,74,96
1,70,64,0
1,65,74,96
1,62,76,44
1,51,71,96
1,63,64,0
1,58,64,96
1,63,71,0
1,67,61,96
1,70,79,0
1,67,68,0
1,63,61,92
1,62,76,96
1,50,76,0
1,58,61,96
1,62,70,0
1,65,60,96
1,70,56,0
1,65,70,36
1,62,74,76
1,60,80,96
1,48,68,0
1,55,83,16
1,60,78,0
1,63,64,96
1,70,71,0
1,67,74,16
1,63,74,56
2,51,95,768
2,67,80,0
2,55,82,192
2,58,72,96
2,67,76,0
2,51,51,60
2,55,80,0
2,50,91,0
2,65,76,0
2,53,58,192
2,58,72,96
2,65,75,0
2,50,84,88
2,53,80,0
2,48,88,16
2,63,64,0
2,51,66,192
2,55,86,96
2,63,56,0
2,48,86,40
2,51,82,0
2,50,96,12
2,53,71,184
2,58,87,96
2,65,76,0
2,65,83,96
2,50,82,0
2,53,78,68
2,51,91,4
2,67,72,0
2,55,80,192
2,58,82,96
2,67,74,0
2,51,76,36
2,55,82,0
2,50,101,0
2,65,76,0
2,53,71,192
2,58,82,96
2,65,76,0
2,50,84,84
2,53,65,0
2,48,96,24
2,63,56,0
2,51,66,192
2,55,82,96
2,63,61,0
2,48,64,48
2,51,66,0
2,50,88,8
2,53,68,192
2,58,72,96
2,65,72,0
2,65,76,96
2,50,64,0
2,53,64,16
2,51,95,72
2,67,76,0
2,55,82,156
2,58,72,96
2,67,76,0
2,51,51,60
2,55,80,0
2,50,91,0
2,65,65,0
2,53,58,192
2,58,72,96
2,65,75,0
2,50,84,88
2,53,80,0
2,48,88,16
2,63,58,0
2,51,66,192
2,55,86,96
2,63,56,0
2,48,86,40
2,51,82,0
2,50,96,12
2,53,71,184
2,58,87,96
2,65,76,0
2,65,72,96
2,50,82,0
2,53,78,68
2,51,91,16
2,67,70,0
2,55,80,176
2,58,82,96
2,67,74,0
2,51,76,36
2,55,82,0
2,50,101,0
2,65,65,0
2,53,71,192
2,58,82,96
2,65,76,0
2,50,84,84
2,53,65,0
2,48,96,24
2,63,56,0
2,51,66,192
2,55,82,96
2,63,61,0
2,48,64,48
2,51,66,0
2,50,88,8
2,53,68,192
2,58,72,96
2,65,72,0
2,65,74,96
2,50,64,0
2,53,64,16
2,51,95,72
2,55,82,156
2,58,72,96
2,67,76,0
2,51,51,60
2,55,80,92
2,50,91,0
2,53,58,144
2,58,72,96
2,65,75,0
2,50,84,88
2,53,80,80
2,48,88,16
2,51,66,148
2,55,86,96
2,63,56,0
2,48,86,40
2,51,82,36
2,50,96,12
2,53,71,184
2,58,87,96
2,65,76,0
2,50,82,12
2,53,78,68
2,51,91,16
2,55,80,164
2,58,82,96
2,67,74,0
2,51,76,36
2,55,82,32
2,50,101,0
2,53,71,164
2,58,82,96
2,65,76,0
2,50,84,84
2,53,65,52
2,48,96,8
2,51,66,192
2,55,82,96
2,63,61,0
2,48,64,48
2,51,66,64
2,48,95,0
2,70,87,12
2,51,66,176
2,55,74,96
2,50,95,96
2,65,74,20
2,53,70,120
2,57,88,92
2,51,94,100
2,55,82,128
2,58,72,96
2,67,76,0
2,51,51,48
2,55,80,92
2,50,91,0
2,65,76,0
2,53,58,144
2,58,72,96
2,65,75,0
2,50,84,88
2,53,80,0
2,48,88,16
2,63,64,0
2,51,66,192
2,55,86,96
2,63,56,0
2,48,86,40
2,51,82,0
2,50,96,12
2,53,71,184
2,58,87,96
2,65,76,0
2,65,83,96
2,50,82,0
2,53,78,68
2,51,91,4
2,67,72,0
2,55,80,192
2,58,82,96
2,67,74,0
2,51,76,36
2,55,82,0
2,50,101,0
2,65,76,0
2,53,71,192
2,58,82,96
2,65,76,0
2,50,84,84
2,53,65,0
2,48,96,24
2,63,56,0
2,51,66,192
2,55,82,96
2,63,61,0
2,48,64,48
2,51,66,0
2,50,88,8
2,53,68,192
2,58,72,96
2,65,72,0
2,65,76,96
2,50,64,0
2,53,64,16
2,51,95,72
2,67,76,0
2,55,82,156
2,58,72,96
2,67,76,0
2,51,51,60
2,55,80,0
2,50,91,0
2,65,65,0
2,53,58,192
2,58,72,96
2,65,75,0
2,50,84,88
2,53,80,0
2,48,88,16
2,63,58,0
2,51,66,192
2,55,86,96
2,63,56,0
2,48,86,40
2,51,82,0
2,50,96,12
2,53,71,184
2,58,87,96
2,65,76,0
2,65,72,96
2,50,82,0
2,53,78,68
2,51,91,16
2,67,70,0
2,55,80,176
2,58,82,96
2,67,74,0
2,51,76,36
2,55,82,0
2,50,101,0
2,65,65,0
2,53,71,192
2,58,82,96
2,65,76,0
2,50,84,84
2,53,65,0
2,48,96,24
2,63,56,0
2,51,66,192
2,55,82,96
2,63,61,0
2,48,64,48
2,51,66,0
2,50,88,8
2,53,68,192
2,58,72,96
2,65,72,0
2,65,74,96
2,50,64,0
2,53,64,16
2,51,95,72
2,55,82,156
2,58,72,96
2,67,76,0
2,51,51,60
2,55,80,92
2,50,91,0
2,53,58,144
2,58,72,96
2,65,75,0
2,50,84,88
2,53,80,80
2,48,88,16
2,51,66,148
2,55,86,96
2,63,56,0
2,48,86,40
2,51,82,36
2,50,96,12
2,53,71,184
2,58,87,96
2,65,76,0
2,50,82,12
2,53,78,68
2,51,91,16
2,55,80,164
2,58,82,96
2,67,74,0
2,51,76,36
2,55,82,32
2,50,101,0
2,53,71,164
2,58,82,96
2,65,76,0
2,50,84,84
2,53,65,52
2,48,96,8
2,51,66,192
2,55,82,96
2,63,61,0
2,48,64,48
2,51,66,64
2,48,95,0
2,70,87,12
2,51,66,176
2,55,74,96
2,45,78,108
2,53,61,40
2,57,93,96
2,60,88,96
2,46,96,16
2,58,71,92
2,62,86,96
2,46,74,96
2,65,93,32
2,62,86,8
2,58,71,96
2,45,93,0
2,53,70,136
2,57,90,96
2,45,70,0
2,60,90,0
2,53,20,0
2,57,90,4
2,53,83,96
2,43,93,0
2,55,74,64
2,58,87,96
2,43,72,96
2,62,83,76
2,58,74,8
2,55,80,0
2,43,86,0
2,55,76,164
2,58,87,96
2,43,76,0
2,62,88,52
2,58,77,20
2,55,93,96
2,51,96,88
2,63,74,128
2,67,74,96
2,51,64,0
2,70,79,52
2,63,26,0
2,67,74,0
2,63,87,96
2,50,93,0
2,62,88,108
2,65,88,96
2,50,74,96
2,70,94,52
2,62,66,0
2,65,76,52
2,62,88,4
2,48,86,0
2,60,78,176
2,60,26,96
2,63,79,0
2,48,72,0
2,67,80,44
2,63,66,32
2,60,78,96
2,45,100,0
2,53,76,136
2,57,103,96
2,53,51,0
2,45,93,0
2,60,116,56
2,57,100,20
2,53,78,96
2,46,96,0
2,58,96,120
2,62,80,96
2,46,83,96
2,65,88,24
2,62,74,4
2,58,37,96
2,45,93,0
2,53,50,176
2,57,83,96
2,45,76,0
2,60,95,40
2,53,60,0
2,57,90,36
2,53,80,96
2,43,95,0
2,55,83,120
2,58,94,96
2,43,80,96
2,62,93,44
2,55,35,0
2,58,77,8
2,55,80,96
2,43,90,0
2,55,78,36
2,58,90,96
2,43,88,96
2,62,95,92
2,55,28,0
2,58,79,12
2,55,80,96
2,51,87,0
2,63,74,124
2,67,80,96
2,51,74,96
2,70,83,68
2,63,52,0
2,67,66,44
2,63,79,96
2,50,88,0
2,62,95,104
2,65,90,96
2,50,76,96
2,62,46,68
2,70,94,0
2,65,72,44
2,62,70,4
2,48,98,0
2,60,80,84
2,63,90,96
2,48,78,96
2,67,76,64
2,63,77,36
2,60,86,12
2,48,93,0
2,60,80,56
2,63,68,96
2,50,103,96
2,62,86,88
2,65,86,96
2,51,96,96
2,63,74,104
2,67,78,96
2,51,74,96
2,70,79,56
2,63,37,0
2,67,83,24
2,63,77,96
