track,note,velocity,time
0,36,106,3
0,37,89,0
0,57,91,0
0,57,107,0
0,61,113,0
0,61,102,0
0,64,91,0
0,64,96,0
0,45,108,3
0,36,95,92
0,42,61,0
0,37,90,92
0,42,87,0
0,42,42,92
0,36,82,44
0,64,105,4
0,47,97,1
0,59,97,0
0,61,124,0
0,36,105,1
0,37,106,0
0,42,87,0
0,57,91,0
0,61,97,0
0,64,90,0
0,36,93,1
0,42,50,0
0,61,103,2
0,64,93,0
0,68,85,0
0,49,124,0
0,37,96,18
0,42,88,0
0,49,96,91
0,42,40,1
0,64,105,3
0,68,113,0
0,59,105,0
0,61,97,2
0,68,90,0
0,64,96,1
0,36,106,89
0,37,103,0
0,42,80,0
0,37,113,9
0,36,95,1
0,42,56,0
0,66,72,5
0,68,88,0
0,71,87,2
0,37,96,53
0,42,82,0
0,42,96,23
0,42,58,2
0,54,106,1
0,57,88,2
0,61,103,0
0,66,107,4
0,57,82,2
0,61,100,0
0,36,82,38
0,36,105,44
0,37,96,0
0,42,76,0
0,36,93,92
0,42,42,0
0,73,126,29
0,37,96,6
0,42,81,0
0,46,67,10
0,71,119,0
0,36,106,1
0,37,89,0
0,42,92,0
0,57,91,0
0,61,113,0
0,64,91,0
0,45,108,0
0,71,126,0
0,69,122,7
0,36,95,1
0,42,61,0
0,37,90,92
0,42,87,0
0,61,88,1
0,64,85,0
0,57,73,2
0,42,51,36
0,36,82,44
0,47,97,8
0,59,97,0
0,61,124,0
0,64,105,0
0,36,105,1
0,37,106,0
0,42,94,0
0,57,91,0
0,61,97,0
0,64,90,0
0,36,93,1
0,42,58,0
0,61,103,1
0,64,93,1
0,68,85,0
0,49,124,1
0,59,80,5
0,66,100,0
0,37,96,19
0,42,94,0
0,64,95,2
0,49,96,68
0,42,47,1
0,59,105,2
0,64,105,0
0,68,113,0
0,61,97,2
0,68,90,0
0,64,96,1
0,36,106,89
0,37,103,0
0,42,90,0
0,71,97,10
0,37,113,1
0,36,95,1
0,42,63,0
0,66,72,5
0,68,88,0
0,71,87,2
0,37,96,53
0,42,90,0
0,42,63,25
0,42,96,0
0,54,106,0
0,57,88,0
0,61,103,0
0,66,107,4
0,57,82,2
0,61,100,0
0,36,82,38
0,36,105,44
0,37,96,0
0,42,85,0
0,36,93,10
0,42,50,0
0,42,103,0
0,37,96,92
0,42,90,0
0,46,67,92
0,36,106,1
0,37,89,0
0,42,92,0
0,57,91,0
0,61,113,0
0,64,91,0
0,57,107,0
0,61,102,0
0,64,96,0
0,45,108,3
0,36,95,92
0,42,61,0
0,42,61,44
0,37,90,44
0,42,87,0
0,42,51,92
0,36,82,44
0,42,61,0
0,64,105,4
0,47,97,1
0,59,97,0
0,61,124,0
0,36,105,1
0,37,106,0
0,42,94,0
0,57,91,0
0,61,97,0
0,64,90,0
0,36,93,1
0,42,58,0
0,61,103,2
0,64,93,0
0,68,85,0
0,49,124,0
0,42,61,43
0,37,96,18
0,42,94,0
0,49,96,91
0,42,47,1
0,64,105,3
0,68,113,0
0,59,105,0
0,61,97,2
0,68,90,0
0,64,96,1
0,42,61,41
0,36,106,44
0,37,103,0
0,42,90,0
0,37,113,9
0,36,95,1
0,42,63,0
0,66,72,5
0,68,88,0
0,71,87,2
0,42,61,5
0,37,96,44
0,42,90,0
0,42,96,23
0,42,63,2
0,54,106,1
0,57,88,2
0,61,103,0
0,66,107,4
0,57,82,2
0,61,100,0
0,36,82,38
0,42,61,0
0,36,105,44
0,37,96,0
0,42,85,0
0,36,93,92
0,42,50,0
0,42,61,44
0,37,96,44
0,42,90,0
0,42,67,92
0,36,106,1
0,37,89,0
0,42,92,0
0,57,91,0
0,57,65,0
0,61,113,0
0,61,86,0
0,64,91,0
0,45,108,0
0,36,95,50
0,42,61,0
0,42,61,44
0,37,90,44
0,42,87,0
0,61,88,1
0,64,85,0
0,57,73,2
0,42,51,43
0,36,82,44
0,42,61,0
0,47,97,8
0,59,97,0
0,61,124,0
0,64,105,0
0,36,105,1
0,37,106,0
0,42,94,0
0,57,91,0
0,61,97,0
0,64,90,0
0,36,93,1
0,42,58,0
0,61,103,1
0,64,93,1
0,68,85,0
0,49,124,1
0,59,80,5
0,66,100,0
0,42,61,7
0,37,96,19
0,42,94,0
0,64,95,2
0,49,96,68
0,42,47,1
0,59,105,2
0,64,105,0
0,68,113,0
0,61,97,2
0,68,90,0
0,64,96,1
0,42,61,41
0,36,106,44
0,37,103,0
0,42,90,0
0,71,97,10
0,37,113,1
0,36,95,1
0,42,63,0
0,66,72,5
0,68,88,0
0,71,87,2
0,42,61,5
0,37,96,44
0,42,90,0
0,42,63,25
0,42,96,0
0,54,106,0
0,57,88,0
0,61,103,0
0,40,105,4
0,66,107,4
0,57,82,2
0,61,100,0
0,36,82,38
0,42,61,0
0,36,105,44
0,37,96,0
0,42,85,0
0,36,93,10
0,38,105,0
0,42,50,0
0,42,103,0
0,42,61,44
0,40,88,42
0,37,96,2
0,38,123,0
0,42,90,0
0,38,67,3
0,41,91,0
0,43,93,7
0,45,92,8
0,47,72,11
0,48,80,0
0,50,89,11
0,52,88,10
0,53,88,10
0,38,124,1
0,42,67,0
0,55,81,10
0,57,84,11
0,59,82,8
0,38,123,6
0,60,69,10
0,33,112,1
0,36,103,0
0,49,92,0
0,57,91,0
0,61,113,0
0,64,91,0
0,69,64,0
0,80,82,0
0,57,93,0
0,61,90,0
0,62,34,0
0,64,96,0
0,92,90,0
0,45,108,3
0,64,21,25
0,46,90,34
0,76,67,0
0,38,120,92
0,39,112,0
0,42,81,0
0,42,61,63
0,33,106,44
0,47,103,5
0,35,110,1
0,36,103,0
0,42,87,0
0,57,91,0
0,59,96,0
0,61,97,0
0,62,99,0
0,64,90,0
0,36,88,1
0,37,118,0
0,42,82,0
0,61,103,1
0,64,93,1
0,49,118,1
0,38,122,19
0,39,112,0
0,42,96,0
0,36,102,1
0,37,118,0
0,46,108,0
0,49,96,0
0,59,105,0
0,64,105,0
0,68,113,0
0,83,48,0
0,88,62,0
0,95,96,0
0,61,97,2
0,68,90,0
0,64,96,1
0,42,76,89
0,37,113,92
0,42,65,0
0,66,72,5
0,68,88,0
0,71,87,2
0,38,119,53
0,39,112,0
0,36,106,10
0,42,102,0
0,42,104,0
0,46,109,0
0,54,106,0
0,57,98,0
0,61,108,0
0,76,57,0
0,85,61,0
0,93,92,0
0,66,107,3
0,57,82,2
0,61,100,0
0,42,62,182
0,81,51,0
0,38,108,92
0,39,112,0
0,42,103,0
0,32,95,43
0,42,75,0
0,33,112,1
0,36,103,0
0,42,87,0
0,57,91,0
0,57,65,0
0,61,113,0
0,61,86,0
0,64,91,0
0,80,62,0
0,92,89,0
0,97,89,0
0,45,108,3
0,42,69,50
0,38,120,92
0,39,112,0
0,42,81,0
0,61,88,1
0,64,85,0
0,57,73,2
0,42,61,9
0,33,106,44
0,47,103,5
0,35,110,1
0,36,103,0
0,42,87,0
0,59,96,0
0,62,99,0
0,62,78,6
0,66,83,1
0,59,47,3
0,36,88,1
0,37,118,0
0,42,82,0
0,61,103,1
0,64,93,1
0,49,118,1
0,68,97,4
0,61,83,1
0,64,76,2
0,38,122,19
0,39,112,0
0,42,96,0
0,36,102,1
0,37,118,0
0,46,108,0
0,49,96,0
0,59,105,0
0,64,105,0
0,68,113,0
0,95,98,0
0,100,89,0
0,61,97,2
0,68,90,0
0,64,96,1
0,42,76,89
0,28,103,19
0,36,96,3
0,46,96,0
0,68,97,0
0,71,97,1
0,66,72,4
0,68,88,0
0,71,87,2
0,38,119,20
0,39,112,0
0,29,96,2
0,30,105,2
0,36,106,0
0,42,102,0
0,46,109,0
0,54,106,0
0,57,98,0
0,61,108,0
0,88,88,0
0,93,94,0
0,97,90,0
0,66,107,4
0,57,82,2
0,61,100,0
0,30,94,182
0,36,99,0
0,42,62,0
0,38,108,92
0,39,112,0
0,42,103,0
0,32,92,14
0,32,103,0
0,42,75,0
0,33,112,1
0,36,103,0
0,49,92,0
0,57,91,0
0,57,93,0
0,61,113,0
0,61,90,0
0,64,91,0
0,64,96,0
0,85,94,0
0,88,84,0
0,92,84,0
0,45,108,3
0,46,90,92
0,38,120,92
0,39,112,0
0,42,81,0
0,42,61,63
0,33,106,44
0,47,103,5
0,35,110,1
0,36,103,0
0,42,87,0
0,57,91,0
0,59,96,0
0,61,97,0
0,62,99,0
0,64,90,0
0,36,88,1
0,37,118,0
0,42,82,0
0,61,103,1
0,64,93,1
0,49,118,1
0,38,122,19
0,39,112,0
0,42,96,0
0,36,102,8
0,37,118,0
0,46,108,0
0,49,96,0
0,59,105,0
0,64,105,0
0,68,113,0
0,88,86,0
0,95,89,0
0,100,89,0
0,61,97,2
0,68,90,0
0,64,96,1
0,42,76,89
0,37,113,92
0,42,65,0
0,66,72,5
0,68,88,0
0,71,87,2
0,38,119,53
0,39,112,0
0,36,106,3
0,42,102,0
0,42,104,0
0,46,109,0
0,54,106,0
0,57,98,0
0,61,108,0
0,93,87,0
0,97,83,0
0,97,82,0
0,66,107,3
0,57,82,2
0,61,100,0
0,42,62,182
0,38,108,92
0,39,112,0
0,42,103,0
0,32,95,43
0,36,102,0
0,42,75,0
0,76,121,0
0,33,112,1
0,36,103,0
0,42,87,0
0,57,91,0
0,57,65,0
0,61,113,0
0,61,86,0
0,64,91,0
0,92,88,0
0,97,88,0
0,45,108,3
0,42,69,50
0,38,120,15
0,39,112,0
0,49,91,0
0,73,106,0
0,61,88,1
0,64,85,0
0,57,73,2
0,71,80,3
0,42,61,9
0,69,96,0
0,33,106,34
0,47,103,5
0,35,110,1
0,36,103,0
0,42,87,0
0,59,96,0
0,62,99,0
0,62,78,6
0,66,83,1
0,59,47,3
0,36,88,1
0,37,118,0
0,42,82,0
0,61,103,1
0,64,93,1
0,49,118,1
0,68,97,4
0,61,83,1
0,64,76,2
0,38,122,11
0,39,112,0
0,42,96,0
0,36,102,1
0,37,118,0
0,46,108,0
0,49,96,0
0,59,105,0
0,64,105,0
0,68,113,0
0,95,94,0
0,100,94,0
0,61,97,2
0,68,90,0
0,64,96,1
0,42,76,89
0,28,103,19
0,36,96,3
0,46,96,0
0,68,97,0
0,71,97,1
0,66,72,4
0,68,88,0
0,71,87,2
0,38,119,20
0,39,112,0
0,29,96,2
0,30,105,2
0,36,106,0
0,42,102,0
0,46,109,0
0,54,106,0
0,57,98,0
0,61,108,0
0,88,94,0
0,93,88,0
0,97,100,0
0,66,107,4
0,57,82,2
0,61,100,0
0,30,94,182
0,36,99,0
0,42,62,0
0,38,108,92
0,39,112,0
0,42,103,0
0,32,92,14
0,32,103,0
0,38,114,0
0,42,75,0
0,38,111,44
0,33,117,1
0,36,103,0
0,49,92,0
0,57,91,0
0,61,113,0
0,64,91,0
0,88,58,0
0,92,66,0
0,97,70,0
0,45,108,3
0,46,90,92
0,38,120,92
0,39,112,0
0,42,81,0
0,69,123,0
0,42,61,51
0,69,121,0
0,33,111,15
0,47,103,5
0,35,115,1
0,36,103,0
0,42,87,0
0,59,96,0
0,62,99,0
0,69,126,0
0,36,88,2
0,37,123,0
0,42,82,0
0,78,122,0
0,61,103,1
0,64,93,1
0,49,118,1
0,38,122,19
0,39,112,0
0,42,96,0
0,36,102,2
0,37,123,0
0,46,95,0
0,49,96,0
0,59,105,0
0,64,105,0
0,68,113,0
0,76,120,0
0,88,53,0
0,92,70,0
0,95,67,0
0,42,76,92
0,36,106,2
0,37,113,0
0,42,65,0
0,73,125,0
0,38,119,28
0,39,112,0
0,36,94,6
0,42,89,0
0,42,102,0
0,42,109,0
0,54,106,0
0,57,98,0
0,61,108,0
0,71,126,0
0,93,73,0
0,97,69,0
0,100,68,0
0,36,106,91
0,42,103,0
0,42,62,23
0,69,125,0
0,30,108,4
0,38,108,39
0,39,112,0
0,42,103,0
0,33,98,3
0,37,102,21
0,42,75,0
0,71,126,0
0,30,91,13
0,35,119,6
0,36,103,0
0,42,92,0
0,47,112,0
0,59,79,0
0,62,79,0
0,90,73,0
0,95,65,0
0,42,70,92
0,38,120,40
0,39,112,0
0,42,81,0
0,57,115,0
0,57,85,0
0,62,115,0
0,62,80,0
0,35,114,1
0,42,61,0
0,35,114,29
0,36,103,41
0,42,87,0
0,42,107,0
0,62,80,0
0,66,85,0
0,35,116,8
0,36,88,0
0,42,82,0
0,57,105,0
0,62,95,0
0,73,126,0
0,38,122,31
0,39,112,0
0,42,96,0
0,36,102,10
0,46,95,0
0,52,108,0
0,52,78,0
0,57,102,0
0,59,75,0
0,64,95,0
0,78,111,0
0,92,69,0
0,95,65,0
0,100,68,0
0,40,110,1
0,42,76,61
0,36,106,4
0,42,65,0
0,52,88,0
0,56,109,0
0,76,107,0
0,38,119,84
0,39,112,0
0,40,107,0
0,36,106,9
0,42,89,0
0,52,105,0
0,35,102,3
0,36,106,92
0,42,103,0
0,59,108,0
0,64,108,0
0,28,111,2
0,42,62,4
0,52,97,0
0,38,108,78
0,39,112,0
0,42,103,0
0,56,96,0
0,32,114,64
0,42,75,4
0,33,117,4
0,36,103,0
0,42,92,0
0,57,91,0
0,61,113,0
0,64,91,0
0,88,58,0
0,92,66,0
0,97,70,0
0,45,108,3
0,42,76,92
0,38,120,92
0,39,112,0
0,42,81,0
0,57,73,0
0,61,81,0
0,69,123,0
0,42,61,1
0,69,121,0
0,33,111,15
0,47,103,5
0,35,115,1
0,36,103,0
0,42,87,0
0,59,96,0
0,62,99,0
0,69,126,0
0,36,88,2
0,37,123,0
0,42,82,0
0,61,103,1
0,64,93,1
0,49,118,1
0,61,100,3
0,64,89,0
0,57,82,1
0,38,122,19
0,39,112,0
0,42,96,0
0,78,122,1
0,36,102,2
0,37,123,0
0,46,95,0
0,49,96,0
0,59,105,0
0,64,105,0
0,68,113,0
0,76,120,0
0,88,53,0
0,92,70,0
0,95,67,0
0,61,97,3
0,68,90,0
0,64,96,0
0,42,76,92
0,36,106,3
0,37,113,0
0,42,65,0
0,73,125,0
0,66,72,1
0,68,88,0
0,71,87,1
0,38,119,28
0,39,112,0
0,36,106,6
0,42,89,0
0,42,102,0
0,42,109,0
0,54,106,0
0,57,98,0
0,61,108,0
0,71,126,0
0,93,73,0
0,97,69,0
0,100,68,0
0,66,107,0
0,57,82,0
0,61,100,0
0,36,106,91
0,42,103,0
0,42,62,27
0,69,125,0
0,30,108,4
0,38,108,39
0,39,112,0
0,42,103,0
0,33,98,3
0,37,102,48
0,42,75,0
0,71,126,0
0,30,91,13
0,35,119,2
0,36,103,0
0,42,92,0
0,47,112,0
0,57,85,0
0,59,79,0
0,62,79,0
0,62,82,0
0,90,73,0
0,95,65,0
0,42,70,92
0,38,120,40
0,39,112,0
0,42,81,0
0,57,115,0
0,62,115,0
0,35,114,3
0,42,61,0
0,35,114,7
0,36,103,41
0,42,87,0
0,42,107,0
0,62,86,0
0,66,89,0
0,35,116,8
0,36,88,0
0,42,82,0
0,57,105,0
0,62,95,0
0,62,72,0
0,66,86,0
0,69,91,0
0,38,122,32
0,39,112,0
0,42,96,0
0,73,126,0
0,36,102,11
0,46,95,0
0,52,108,0
0,57,102,0
0,64,95,0
0,76,125,0
0,92,69,0
0,95,65,0
0,100,68,0
0,40,110,1
0,42,76,92
0,36,106,4
0,42,65,0
0,52,88,0
0,56,109,0
0,57,85,0
0,62,89,0
0,38,119,43
0,39,112,0
0,40,107,0
0,36,106,9
0,46,81,0
0,52,105,0
0,52,82,0
0,35,102,3
0,36,106,92
0,42,103,0
0,59,108,0
0,59,76,0
0,64,108,0
0,64,87,0
0,28,111,2
0,46,72,4
0,52,97,0
0,69,121,0
0,38,108,57
0,39,112,0
0,42,103,0
0,56,96,0
0,73,126,0
0,32,114,64
0,46,80,2
0,76,105,0
0,36,103,1
0,38,93,0
0,38,111,0
0,49,92,0
0,78,125,0
0,86,57,0
0,93,60,0
0,97,65,0
0,46,90,92
0,38,120,9
0,39,112,0
0,42,81,0
0,47,113,0
0,66,96,0
