track,note,velocity,time
3,71,88,1
3,71,0,28
3,72,88,13
3,72,0,38
3,74,93,6
3,74,0,51
3,76,101,46
3,74,91,5
3,76,0,3
3,74,0,26
3,74,81,17
3,74,0,23
3,72,96,27
3,72,0,76
3,71,93,21
3,71,0,45
3,69,93,1
3,69,0,45
3,69,88,5
3,69,0,88
3,67,79,7
3,67,0,71
3,69,88,23
3,69,0,21
3,69,77,6
3,69,0,21
3,71,93,3
3,71,0,69
3,72,96,26
3,72,0,133
3,71,88,6
3,71,0,27
3,71,83,25
3,71,0,56
3,69,93,42
3,69,0,2
3,72,98,155
3,72,0,35
3,74,93,10
3,74,0,29
3,76,93,20
3,76,0,26
3,76,101,26
3,76,0,6
3,74,93,5
3,74,0,28
3,72,79,20
3,72,0,32
3,72,91,10
3,72,0,94
3,71,91,8
3,71,0,42
3,69,93,6
3,69,0,91
3,67,88,5
3,67,0,119
3,69,91,22
3,69,0,37
3,71,98,12
3,71,0,63
3,72,104,36
3,72,0,130
3,71,96,16
3,71,0,22
3,71,96,24
3,71,0,84
3,69,93,12
3,69,0,6
3,79,98,4
3,79,0,7
3,81,96,19
3,81,0,24
3,84,98,19
3,84,0,6
3,81,96,26
3,81,0,38
3,79,91,9
3,79,0,75
3,75,96,3
3,75,0,52
3,74,88,13
3,74,0,79
3,72,88,21
3,72,0,21
3,76,101,1
3,76,0,17
3,74,88,1
3,74,0,24
3,79,104,2
3,79,0,26
3,72,88,45
3,72,0,20
3,72,101,23
3,72,0,26
3,69,93,18
3,69,0,29
3,74,101,5
3,74,0,49
3,72,101,8
3,72,0,2
3,79,109,1
3,79,0,6
3,81,93,21
3,81,0,25
3,84,101,20
3,84,0,54
3,84,101,13
3,84,0,22
3,81,96,3
3,81,0,40
3,79,96,9
3,79,0,54
3,79,98,38
3,79,0,29
3,75,101,3
3,75,0,65
3,74,91,13
3,74,0,30
3,72,109,14
3,72,0,2
3,72,93,54
3,72,0,23
3,72,88,24
3,72,0,29
3,79,109,22
3,79,0,82
3,79,101,17
3,79,0,56
3,76,109,11
3,76,0,22
3,74,91,4
3,74,0,25
3,72,88,2
3,72,0,5
3,75,98,2
3,75,0,26
3,76,98,1
3,76,0,8
3,74,88,15
3,74,0,27
3,74,88,27
3,74,0,35
3,72,96,10
3,72,0,86
3,71,91,8
3,71,0,25
3,71,93,21
3,71,0,33
3,69,101,16
3,69,0,92
3,67,83,7
3,67,0,26
3,69,93,25
3,69,0,120
3,71,96,20
3,71,0,25
3,72,93,20
3,72,0,129
3,71,96,18
3,71,0,24
3,71,98,25
3,71,0,82
3,69,91,14
3,69,0,192
3,72,96,192
3,72,0,37
3,74,91,11
3,74,0,26
3,76,86,19
3,76,0,25
3,76,98,27
3,76,0,95
3,74,96,2
3,74,0,21
3,74,79,25
3,74,0,30
3,72,104,17
3,72,0,94
3,71,98,2
3,71,0,79
3,69,93,19
3,69,0,83
3,67,86,13
3,67,0,36
3,69,96,13
3,69,0,126
3,71,104,17
3,71,0,36
3,72,98,14
3,72,0,130
3,71,101,14
3,71,0,21
3,71,96,27
3,71,0,67
3,69,93,31
3,69,0,3
3,79,101,169
3,79,0,28
3,81,98,19
3,81,0,22
3,84,104,23
3,84,0,115
3,80,101,28
3,81,73,4
3,80,0,8
3,81,0,31
3,79,88,10
3,79,0,94
3,75,108,10
3,75,0,66
3,74,91,22
3,74,0,84
3,72,91,10
3,72,0,34
3,76,96,17
3,76,0,44
3,74,93,5
3,74,0,168
3,79,96,21
3,79,0,32
3,72,93,28
3,72,0,31
3,72,96,17
3,72,0,25
3,69,96,21
3,69,0,36
3,74,96,2
3,74,0,59
3,72,96,4
3,72,0,100
3,79,98,3
3,79,0,13
3,81,91,13
3,81,0,26
3,84,101,22
3,84,0,9
3,84,101,7
3,84,0,22
3,81,93,8
3,81,0,38
3,79,104,11
3,79,0,53
3,79,91,41
3,79,0,2
3,75,109,2
3,75,0,62
3,74,91,16
3,74,0,40
3,72,104,10
3,72,0,163
3,72,86,32
3,72,0,21
3,72,86,22
3,72,0,31
3,79,101,18
3,79,0,121
3,79,101,22
3,79,0,91
3,76,93,13
3,76,0,21
3,74,88,2
3,72,93,18
3,74,0,3
3,72,0,2
3,81,104,6
3,81,0,56
3,79,91,10
3,79,0,68
3,79,96,32
3,79,0,41
3,79,98,7
3,79,0,95
3,76,98,52
3,76,0,18
3,74,91,8
3,72,98,23
3,74,0,5
3,72,0,108
3,72,98,6
3,69,79,2
3,69,0,2
3,72,0,14
3,76,101,11
3,79,96,1
3,79,0,62
3,76,0,1
3,72,96,4
3,69,83,1
3,69,0,4
3,72,0,5
3,72,98,7
3,69,83,1
3,69,0,4
3,72,0,8
3,76,96,12
3,79,91,2
3,76,0,80
3,79,0,1
3,72,96,7
3,69,86,1
3,69,0,12
3,72,0,4
3,72,98,8
3,69,81,1
3,69,0,8
3,72,0,7
3,76,91,12
3,79,83,1
3,76,0,51
3,79,0,1
3,69,81,2
3,72,93,1
3,69,0,43
3,72,0,4
3,72,93,4
3,69,79,2
3,69,0,6
3,72,0,4
3,81,98,17
3,77,88,1
3,81,0,49
3,77,0,1
3,69,91,6
3,72,93,1
3,69,0,141
3,72,0,2
3,74,88,261
3,74,0,28
3,76,96,19
3,76,0,1
3,74,96,1
3,74,0,28
3,74,76,22
3,74,0,33
3,72,96,15
3,72,0,1
3,71,91,5
3,71,0,30
3,71,86,18
3,71,0,36
3,69,93,12
3,69,0,1
3,67,88,3
3,67,0,85
3,69,91,15
3,69,0,21
3,69,76,5
3,69,0,20
3,71,98,4
3,71,0,63
3,72,83,30
3,72,0,7
3,71,81,13
3,71,0,29
3,71,86,18
3,71,0,96
3,69,93,4
3,69,0,145
3,72,88,159
3,72,0,34
3,74,88,12
3,74,0,29
3,76,91,20
3,76,0,24
3,76,91,25
3,76,0,89
3,74,86,8
3,74,0,19
3,72,76,25
3,72,0,28
3,72,96,22
3,72,0,94
3,71,93,6
3,71,0,26
3,69,86,21
3,69,0,93
3,67,86,3
3,67,0,78
3,69,88,62
3,69,0,28
3,71,88,21
3,71,0,87
3,72,93,10
3,72,0,5
3,71,91,14
3,71,0,27
3,71,86,22
3,71,0,92
3,69,83,11
3,69,0,167
3,79,91,3
3,79,0,13
3,81,88,10
3,81,0,22
3,84,91,27
3,84,0,5
3,81,93,21
3,81,0,37
3,79,93,11
3,79,0,52
3,75,98,3
3,75,0,54
3,74,98,14
3,74,0,53
3,72,83,37
3,72,0,25
3,76,101,8
3,76,0,22
3,74,101,6
3,74,0,24
3,79,104,38
3,79,0,49
3,72,91,41
3,72,0,23
3,72,98,26
3,72,0,19
3,69,98,28
3,69,0,23
3,74,104,1
3,74,0,57
3,72,93,15
3,72,0,2
3,79,98,145
3,79,0,26
3,81,91,22
3,81,0,20
3,84,101,5
3,84,86,73
3,84,0,29
3,84,0,17
3,81,83,5
3,81,0,39
3,79,91,8
3,79,0,55
3,79,91,38
3,79,0,33
3,75,96,2
3,75,0,60
3,74,98,8
3,74,0,33
3,72,101,17
3,72,0,11
3,72,93,51
3,72,0,21
3,72,88,28
3,72,0,18
3,79,93,28
3,79,0,120
3,79,93,26
3,79,0,86
3,76,96,14
3,76,0,19
3,74,91,6
3,72,91,19
3,74,0,3
3,72,0,13
3,81,101,4
3,81,0,56
3,79,98,21
3,79,0,63
3,79,96,37
3,79,0,45
3,79,93,0
3,79,0,91
3,76,98,56
3,76,0,23
3,74,91,1
3,72,98,24
3,74,0,5
3,72,0,163
3,72,93,2
3,69,83,2
3,69,0,7
3,72,0,2
3,76,93,19
3,79,96,1
3,79,0,15
3,76,0,2
3,72,96,1
3,69,88,1
3,69,0,66
3,72,0,7
3,72,91,9
3,69,73,2
3,69,0,12
3,72,0,8
3,76,88,8
3,79,81,2
3,76,0,61
3,79,0,5
3,72,93,5
3,69,83,1
3,69,0,67
3,72,0,9
3,72,91,566
3,69,67,1
3,69,0,26
3,72,0,11
3,76,91,12
3,79,86,1
3,76,0,24
3,79,0,1
3,69,93,2
3,72,93,1
3,69,0,38
3,72,0,8
3,79,81,644
3,79,0,69
3,72,86,23
3,72,0,43
3,72,61,18
3,72,0,84
3,79,81,1
3,79,0,39
3,72,71,30
3,72,0,24
3,72,81,26
3,72,0,16
3,69,69,2
3,69,0,29
3,74,67,1
3,74,0,2
3,72,81,1
3,72,0,64
3,79,79,1
3,79,0,106
3,72,71,17
3,72,0,49
3,72,81,43
3,72,0,48
3,79,76,99
3,79,0,46
3,72,81,47
3,72,0,23
3,72,83,25
3,72,0,17
3,69,76,34
3,69,0,22
3,74,83,4
3,74,0,87
3,72,69,9
3,72,0,10
3,79,79,425
3,79,0,93
3,72,83,17
3,72,0,48
3,72,81,49
3,72,0,51
3,79,88,92
3,79,0,53
3,72,79,43
3,72,0,22
3,72,91,27
3,72,0,17
3,72,83,30
3,72,0,23
3,74,88,2
3,74,0,15
3,72,79,10
3,72,0,243
4,42,92,0
4,42,0,6
4,42,92,90
4,42,0,10
4,42,91,86
4,42,0,10
4,42,92,84
4,42,0,11
4,51,91,1576
4,51,0,8
4,51,98,13
4,51,0,12
4,51,94,10
4,35,99,4
4,42,83,0
4,51,0,2
4,35,0,4
4,42,0,6
4,69,83,79
4,38,76,3
4,38,96,1
4,40,99,0
4,35,91,1
4,42,91,0
4,35,0,6
4,42,0,6
4,35,91,36
4,40,0,1
4,69,0,1
4,38,0,2
4,35,0,2
4,35,99,42
4,42,91,0
4,35,0,6
4,42,0,6
4,38,0,39
4,42,83,45
4,38,68,2
4,42,0,10
4,35,99,84
4,42,83,0
4,35,0,6
4,42,0,6
4,38,0,35
4,38,85,47
4,69,85,1
4,40,100,1
4,35,91,0
4,42,91,0
4,38,72,4
4,35,0,2
4,42,0,6
4,69,0,29
4,35,91,7
4,35,0,6
4,35,99,42
4,42,91,0
4,35,0,6
4,42,0,6
4,38,0,6
4,40,0,1
4,38,0,5
4,38,77,70
4,42,83,2
4,42,0,12
4,35,99,84
4,42,83,0
4,35,0,6
4,42,0,6
4,38,0,1
4,69,88,80
4,38,74,1
4,35,91,2
4,42,91,0
4,35,0,6
4,42,0,6
4,35,91,36
4,35,0,6
4,69,0,4
4,35,99,38
4,42,91,0
4,35,0,6
4,42,0,6
4,38,0,33
4,40,98,51
4,38,99,0
4,42,83,0
4,38,76,3
4,42,0,9
4,38,0,42
4,40,0,3
4,35,99,39
4,42,83,0
4,35,0,6
4,42,0,6
4,38,0,19
4,69,87,63
4,35,91,2
4,42,91,0
4,38,72,0
4,35,0,6
4,42,0,6
4,35,91,36
4,69,0,4
4,35,0,2
4,35,99,42
4,42,91,0
4,35,0,6
4,42,0,6
4,38,0,25
4,38,69,57
4,38,93,1
4,40,106,1
4,42,83,0
4,42,0,12
4,40,0,62
4,38,0,1
4,35,99,21
4,42,83,0
4,35,0,6
4,42,0,6
4,38,0,4
4,51,71,79
4,69,87,0
4,35,91,1
4,42,91,0
4,38,74,0
4,35,0,6
4,42,0,6
4,51,0,0
4,69,0,31
4,35,91,5
4,35,0,6
4,35,99,42
4,42,91,0
4,35,0,6
4,42,0,6
4,38,0,37
4,42,83,47
4,38,75,0
4,42,0,12
4,35,99,84
4,42,83,0
4,35,0,6
4,42,0,6
4,38,0,30
4,40,98,54
4,38,98,0
4,35,91,0
4,42,91,0
4,38,66,0
4,69,89,1
4,35,0,5
4,42,0,6
4,35,91,36
4,69,0,3
4,35,0,3
4,38,0,2
4,40,0,2
4,35,99,38
4,42,91,0
4,35,0,6
4,42,0,6
4,38,0,25
4,38,72,56
4,42,83,3
4,42,0,12
4,51,61,38
4,51,0,7
4,51,81,13
4,51,0,23
4,35,99,3
4,42,83,0
4,35,0,6
4,42,0,6
4,38,0,11
4,38,72,69
4,69,85,1
4,35,91,3
4,42,91,0
4,35,0,6
4,42,0,6
4,69,0,35
4,35,91,1
4,35,0,6
4,35,99,42
4,42,91,0
4,35,0,6
4,42,0,6
4,38,0,2
4,38,74,80
4,42,83,2
4,42,0,12
4,35,99,84
4,42,83,0
4,35,0,6
4,42,0,6
4,38,0,39
4,40,98,44
4,38,99,1
4,35,91,0
4,42,91,0
4,38,74,0
4,35,0,6
4,42,0,6
4,35,91,36
4,38,0,3
4,40,0,1
4,35,0,2
4,35,99,42
4,42,91,0
4,35,0,6
4,42,0,6
4,38,0,30
4,69,85,51
4,38,70,1
4,42,83,2
4,42,0,12
4,69,0,42
4,35,99,42
4,42,83,0
4,35,0,6
4,42,0,6
4,38,0,20
4,38,70,62
4,35,91,2
4,42,91,0
4,35,0,6
4,42,0,6
4,35,91,36
4,35,0,6
4,35,99,42
4,42,91,0
4,35,0,6
4,42,0,6
4,38,0,30
4,51,83,10
4,51,0,11
4,51,89,10
4,51,0,10
4,38,72,11
4,69,88,0
4,51,82,0
4,42,83,2
4,51,0,5
4,42,0,7
4,69,0,27
4,35,99,57
4,42,83,0
4,35,0,6
4,42,0,6
4,38,0,15
4,40,103,68
4,38,102,0
4,35,91,1
4,42,91,0
4,38,71,0
4,35,0,6
4,42,0,6
4,35,91,36
4,35,0,6
4,38,0,4
4,40,0,1
4,35,99,37
4,42,91,0
4,35,0,6
4,42,0,6
4,38,0,13
4,38,76,67
4,42,83,4
4,42,0,12
4,35,99,84
4,42,83,0
4,35,0,6
4,42,0,6
4,38,0,3
4,69,82,79
4,35,91,2
4,42,91,0
4,38,70,1
4,35,0,5
4,42,0,6
4,69,0,21
4,35,91,15
4,35,0,6
4,35,99,42
4,42,91,0
4,35,0,6
4,42,0,6
4,38,0,2
4,38,76,80
4,38,99,0
4,40,100,1
4,42,83,1
4,42,0,12
4,38,0,46
4,40,0,1
4,35,99,37
4,42,83,0
4,35,0,6
4,42,0,6
4,38,0,23
4,38,68,59
4,35,91,2
4,42,91,0
4,35,0,6
4,42,0,6
4,35,91,36
4,35,0,6
4,35,99,42
4,42,91,0
4,35,0,6
4,42,0,6
4,38,0,11
4,38,98,52
4,40,100,20
4,38,74,0
4,42,83,1
4,42,0,12
4,38,0,36
4,40,0,8
4,35,99,40
4,42,83,0
4,35,0,6
4,42,0,6
4,38,0,16
4,40,102,67
4,35,91,1
4,42,91,0
4,38,99,0
4,38,80,1
4,69,85,0
4,35,0,5
4,42,0,6
4,69,0,22
4,35,91,14
4,35,0,6
4,38,0,8
4,40,0,1
4,35,99,33
4,42,91,0
4,35,0,6
4,42,0,6
4,38,0,38
4,51,81,0
4,51,0,8
4,51,83,15
4,51,0,7
4,51,82,13
4,42,83,3
4,38,75,2
4,51,0,2
4,42,0,8
4,35,99,84
4,42,83,0
4,35,0,6
4,42,0,6
4,38,0,50
4,35,91,34
4,42,91,0
4,38,98,1
4,40,98,0
4,38,82,0
4,69,82,0
4,35,0,5
4,42,0,6
4,69,0,24
4,35,91,12
4,35,0,6
4,38,0,10
4,40,0,2
4,35,99,30
4,42,91,0
4,35,0,6
4,42,0,6
4,38,0,44
4,38,71,39
4,42,83,1
4,42,0,12
4,35,99,84
4,42,83,0
4,35,0,6
4,42,0,6
4,38,0,55
4,69,84,27
4,51,83,1
4,35,91,1
4,42,91,0
4,38,95,1
4,40,94,0
4,38,74,2
4,35,0,3
4,42,0,6
4,51,0,0
4,69,0,27
4,35,91,9
4,35,0,6
4,38,0,0
4,40,0,0
4,35,99,42
4,42,91,0
4,35,0,6
4,42,0,6
4,38,0,49
4,42,83,35
4,38,78,1
4,42,0,11
4,35,99,84
4,42,83,0
4,35,0,6
4,42,0,6
4,38,0,51
4,69,82,32
4,35,91,1
4,42,91,0
4,38,81,1
4,35,0,5
4,42,0,6
4,69,0,31
4,35,91,5
4,35,0,6
4,35,99,42
4,42,91,0
4,35,0,6
4,42,0,6
4,51,76,39
4,51,0,7
4,38,0,2
4,51,83,12
4,51,0,8
4,51,94,13
4,38,102,2
4,40,100,0
4,42,83,1
4,38,78,2
4,51,0,2
4,42,0,8
4,38,0,53
4,40,0,1
4,35,99,30
