track,note,velocity,time
0,53,80,0
0,46,21,0
0,53,80,1
0,46,0,5
0,60,66,41
0,60,73,2
0,60,0,22
0,46,22,23
0,65,71,2
0,65,78,1
0,46,0,3
0,65,0,13
0,69,82,30
0,69,83,1
0,69,0,15
0,60,61,81
0,60,0,16
0,46,22,31
0,46,0,6
0,65,69,42
0,65,0,16
0,53,0,5
0,53,0,8
0,46,21,19
0,53,76,2
0,60,0,1
0,53,76,0
0,46,0,3
0,65,0,7
0,69,0,2
0,62,64,16
0,62,70,2
0,62,0,15
0,67,66,31
0,67,66,2
0,67,0,10
0,71,78,36
0,71,74,1
0,71,0,13
0,46,19,33
0,46,0,6
0,67,66,42
0,67,0,19
0,62,71,29
0,62,0,14
0,53,0,51
0,53,0,10
0,62,0,20
0,46,20,0
0,53,64,2
0,53,80,2
0,46,0,2
0,67,0,1
0,71,0,2
0,64,66,14
0,64,68,3
0,64,0,19
0,69,73,26
0,69,76,2
0,69,0,14
0,72,73,32
0,72,76,0
0,72,0,16
0,46,20,32
0,46,0,6
0,69,68,42
0,69,0,19
0,64,67,29
0,46,20,0
0,46,0,6
0,64,0,13
0,69,65,30
0,69,0,11
0,53,0,3
0,53,0,19
0,46,19,13
0,64,0,2
0,53,90,1
0,69,0,1
0,53,71,0
0,46,0,2
0,72,0,1
0,62,73,10
0,62,63,0
0,62,0,20
0,67,68,28
0,67,63,0
0,46,17,0
0,46,0,6
0,67,0,10
0,71,73,31
0,71,68,1
0,71,0,12
0,46,16,35
0,46,0,6
0,62,56,42
0,62,0,14
0,46,16,34
0,67,63,1
0,46,0,5
0,67,0,6
0,53,0,44
0,53,0,17
0,62,0,19
0,67,0,1
0,46,17,2
0,71,0,1
0,53,73,0
0,53,67,1
0,46,0,4
0,60,51,13
0,60,58,0
0,60,0,20
0,65,79,27
0,65,64,0
0,65,0,17
0,69,79,30
0,69,69,1
0,69,0,17
0,46,18,31
0,46,0,6
0,60,56,42
0,60,0,16
0,65,64,80
0,53,0,12
0,65,0,4
0,53,0,12
0,46,19,19
0,53,77,1
0,53,63,0
0,60,0,2
0,46,0,3
0,65,0,1
0,69,0,2
0,62,73,31
0,62,63,1
0,62,0,16
0,67,75,30
0,46,20,1
0,67,64,1
0,46,0,5
0,67,0,9
0,71,74,32
0,71,70,2
0,71,0,17
0,46,18,32
0,46,0,6
0,67,64,40
0,67,0,19
0,46,16,27
0,62,62,2
0,46,0,4
0,62,0,13
0,67,63,31
0,67,0,12
0,53,0,4
0,53,0,14
0,53,61,18
0,53,77,2
0,62,0,10
0,71,0,3
0,67,0,3
0,64,60,10
0,64,63,0
0,64,0,16
0,69,75,31
0,69,76,0
0,46,17,0
0,46,0,6
0,69,0,10
0,72,78,32
0,72,80,1
0,72,0,15
0,69,59,80
0,69,0,20
0,64,58,29
0,46,17,1
0,46,0,6
0,64,0,9
0,53,0,39
0,53,0,27
0,53,70,13
0,53,64,1
0,46,16,0
0,64,0,1
0,72,0,3
0,46,0,2
0,69,0,1
0,62,60,14
0,62,55,1
0,62,0,22
0,46,16,24
0,67,73,1
0,67,66,1
0,46,0,4
0,67,0,13
0,71,73,30
0,71,70,1
0,71,0,17
0,46,16,33
0,46,0,6
0,67,56,40
0,67,0,17
0,62,62,32
0,46,16,0
0,46,0,6
0,62,0,6
0,53,0,49
0,53,0,14
0,53,54,20
0,53,77,1
0,62,93,0
0,46,17,1
0,71,0,3
0,62,0,0
0,67,0,3
0,46,0,0
0,60,57,10
0,60,56,0
0,64,89,1
0,62,0,7
0,60,0,11
0,65,75,28
0,65,68,0
0,64,0,1
0,62,100,1
0,65,0,15
0,62,0,29
0,69,68,2
0,69,74,1
0,60,90,0
0,69,0,18
0,60,0,14
0,60,94,17
0,46,17,0
0,46,0,6
0,60,57,40
0,60,0,14
0,60,0,11
0,46,18,23
0,60,86,2
0,46,0,4
0,65,52,43
0,65,0,6
0,53,0,5
0,53,0,23
0,53,58,13
0,46,18,0
0,53,79,1
0,60,0,1
0,46,0,4
0,69,0,3
0,65,0,0
0,62,64,17
0,62,69,1
0,62,0,19
0,60,0,2
0,67,63,26
0,67,74,1
0,67,0,15
0,71,73,32
0,71,75,0
0,71,0,19
0,46,19,30
0,46,0,6
0,67,62,41
0,67,0,19
0,62,60,29
0,46,20,2
0,46,0,6
0,62,0,9
0,67,54,31
0,67,0,8
0,53,0,2
0,53,0,26
0,53,70,12
0,62,90,0
0,53,61,2
0,46,21,0
0,46,0,6
0,62,0,1
0,67,0,4
0,71,0,1
0,62,0,3
0,64,66,9
0,64,68,1
0,62,82,0
0,64,0,16
0,62,0,16
0,62,76,14
0,69,71,1
0,69,78,1
0,69,0,16
0,62,0,26
0,64,84,4
0,72,80,1
0,72,78,0
0,72,0,17
0,64,0,13
0,46,19,17
0,62,97,2
0,46,0,4
0,69,62,43
0,69,0,3
0,64,65,21
0,46,20,0
0,46,0,6
0,64,0,10
0,53,0,44
0,53,0,14
0,53,56,1
0,53,78,1
0,64,0,1
0,46,19,0
0,46,0,4
0,72,0,0
0,69,0,1
0,62,0,0
0,62,56,11
0,62,58,1
0,62,0,18
0,67,66,29
0,67,69,1
0,46,18,0
0,46,0,6
0,67,0,10
0,71,72,31
0,71,76,0
0,71,0,16
0,46,20,34
0,46,0,6
0,62,64,88
0,46,22,2
0,46,0,6
0,62,0,4
0,53,0,41
0,53,0,30
0,62,93,11
0,53,75,2
0,62,0,1
0,53,56,0
0,46,22,1
0,71,0,2
0,67,0,1
0,46,0,3
0,62,0,7
0,64,95,1
0,60,58,1
0,60,63,1
0,60,0,16
0,64,0,10
0,64,81,19
0,65,65,2
0,65,70,0
0,46,22,1
0,46,0,6
0,65,0,9
0,64,0,17
0,64,97,14
0,69,75,1
0,69,78,0
0,69,0,16
0,64,0,5
0,62,86,27
0,46,22,2
0,46,0,6
0,60,62,41
0,60,0,11
0,46,22,28
0,46,0,6
0,65,64,41
0,65,0,12
0,53,0,0
0,53,0,22
0,62,0,3
0,53,58,0
0,46,22,0
0,53,74,1
0,60,0,2
0,46,0,2
0,69,0,2
0,65,0,1
0,62,66,17
0,62,57,1
0,62,0,12
0,46,22,34
0,67,70,1
0,67,67,1
0,46,0,4
0,67,0,10
0,60,69,30
0,71,75,3
0,71,73,1
0,71,0,15
0,60,0,2
0,62,94,4
0,62,0,20
0,62,81,3
0,46,22,5
0,46,0,6
0,62,0,26
0,67,58,14
0,62,95,0
0,67,0,11
0,46,23,37
0,62,67,1
0,46,0,5
0,62,0,7
0,62,0,3
0,62,97,2
0,53,0,3
0,53,0,23
0,53,54,10
0,53,76,2
0,46,19,0
0,46,0,6
0,62,0,8
0,71,0,1
0,67,0,2
0,62,0,6
0,64,62,11
0,62,83,0
0,64,74,1
0,64,0,15
0,62,0,3
0,69,71,29
0,62,95,0
0,69,73,1
0,46,19,1
0,46,0,6
0,69,0,9
0,62,0,31
0,72,81,0
0,60,83,0
0,72,78,1
0,72,0,16
0,60,0,5
0,62,93,27
0,46,19,0
0,46,0,6
0,69,65,41
0,69,0,20
0,64,61,28
0,46,18,0
0,46,0,6
0,64,0,1
0,69,62,17
0,69,0,8
0,53,0,2
0,53,0,22
0,64,0,10
0,53,76,6
0,53,61,0
0,46,16,0
0,69,0,4
0,72,0,0
0,46,0,1
0,62,63,21
0,62,59,1
0,62,0,20
0,62,0,21
0,67,71,7
0,67,69,0
0,46,16,2
0,46,0,3
0,67,0,2
0,71,70,33
0,71,75,1
0,71,0,14
0,46,18,37
0,46,0,6
0,67,59,39
0,67,0,17
0,62,64,31
0,46,18,2
0,46,0,6
0,62,0,6
0,53,0,51
0,53,0,18
0,53,77,14
0,53,58,0
0,62,0,1
0,46,17,0
0,71,0,5
0,67,0,1
0,46,0,0
0,60,51,11
0,60,59,1
0,60,0,18
0,65,67,29
0,65,68,1
0,46,17,1
0,46,0,6
0,65,0,8
0,69,69,32
0,69,68,0
0,69,0,17
0,46,18,34
0,46,0,6
0,60,58,39
0,60,0,16
0,46,18,32
0,46,0,6
0,65,63,42
0,53,0,10
0,65,0,6
0,53,0,21
0,60,0,8
0,53,76,3
0,46,17,0
0,53,67,1
0,65,0,4
0,46,0,1
0,69,0,3
0,62,66,1
0,62,73,1
0,62,0,13
0,67,75,12
0,67,66,0
0,46,17,1
0,46,0,6
0,67,0,9
0,71,72,31
0,71,69,1
0,71,0,16
0,46,18,34
0,46,0,6
0,67,59,39
0,67,0,17
0,62,62,31
0,46,19,2
0,46,0,6
0,62,0,6
0,53,0,48
0,53,0,19
0,53,80,16
0,53,57,0
0,62,0,3
0,46,19,0
0,67,0,3
0,71,0,2
0,46,0,1
0,64,73,14
0,64,69,0
0,64,0,17
0,69,70,31
0,69,76,1
0,46,17,1
0,46,0,6
0,69,0,9
0,72,79,31
0,72,77,0
0,72,0,17
0,46,19,30
0,46,0,6
0,64,56,43
0,64,0,14
0,69,71,34
0,46,21,2
0,46,0,6
0,69,0,4
0,53,0,43
0,53,0,21
0,53,60,20
0,53,79,1
0,46,22,1
0,64,0,1
0,46,0,3
0,69,0,1
0,72,0,2
0,62,60,11
0,62,62,1
0,62,0,16
0,67,66,31
0,67,73,1
0,46,23,1
0,46,0,6
0,67,0,8
0,71,64,32
0,71,72,1
0,71,0,16
0,46,25,28
0,46,0,6
0,67,64,45
0,40,84,1
0,40,0,6
0,67,0,9
0,40,114,10
0,40,0,6
0,62,69,16
0,37,127,1
0,37,0,6
0,62,0,7
0,40,117,36
0,40,0,6
0,53,0,2
0,62,0,39
0,53,0,0
0,71,0,0
0,29,117,0
0,69,86,0
0,65,83,0
0,36,117,0
0,67,0,1
0,69,88,0
0,65,86,0
0,60,87,1
0,60,62,0
0,46,48,0
0,36,0,4
0,46,0,2
0,60,0,52
0,60,62,36
0,40,117,0
0,46,48,0
0,46,0,6
0,40,0,0
0,69,0,0
0,65,0,0
0,60,0,1
0,29,0,3
0,65,0,3
0,69,0,0
0,29,105,34
0,60,81,1
0,67,85,0
0,64,86,0
0,36,93,0
0,67,77,2
0,64,77,0
0,36,0,4
0,29,0,19
0,29,114,22
0,36,111,1
0,46,48,1
0,60,0,3
0,36,0,2
0,46,0,1
0,64,0,38
0,67,0,2
0,60,59,2
0,64,0,9
0,60,0,2
0,67,0,2
0,69,86,34
0,40,117,0
0,46,48,0
0,69,87,1
0,65,81,0
0,60,84,0
0,65,77,0
0,46,0,5
0,40,0,0
0,29,0,9
0,29,107,32
0,60,0,18
0,29,0,6
0,65,0,23
0,69,0,1
0,60,55,0
0,29,112,1
0,36,90,0
0,46,49,0
0,46,0,6
0,36,0,0
0,65,0,11
0,60,0,0
0,69,0,2
0,67,82,26
0,64,89,0
0,60,80,5
0,64,88,0
0,67,86,0
0,60,0,22
0,40,117,24
0,46,48,2
0,40,0,4
0,46,0,2
0,29,0,7
0,60,48,30
0,29,105,2
0,36,86,2
0,60,0,2
0,67,0,2
0,64,0,0
0,64,0,0
0,67,0,0
0,36,0,2
0,29,0,13
0,69,85,27
0,29,108,0
0,69,81,0
0,65,76,0
0,60,75,1
0,65,78,0
0,36,103,1
0,46,46,1
0,36,0,5
0,46,0,1
0,60,0,13
0,29,0,25
0,31,94,1
0,60,51,0
0,69,0,6
0,65,0,2
0,60,0,4
0,65,0,0
0,69,0,1
0,31,0,34
0,67,79,0
0,64,85,0
0,33,110,1
0,64,83,1
0,67,76,0
0,60,77,0
0,40,117,0
0,46,45,1
0,40,0,5
0,46,0,1
0,60,0,8
0,33,0,32
0,36,105,0
0,60,51,0
0,64,0,3
0,60,0,0
0,67,0,2
0,67,0,2
0,64,0,2
0,36,0,39
0,38,114,0
0,69,81,1
0,60,77,0
0,65,73,0
0,69,81,0
0,65,78,0
0,36,99,0
0,46,46,1
0,36,0,5
0,46,0,1
0,60,0,49
0,60,43,39
0,40,117,0
0,46,49,2
0,69,0,2
0,40,0,2
0,46,0,2
0,65,0,0
0,65,0,2
0,38,0,2
0,69,0,0
0,60,0,2
0,67,78,34
0,64,83,0
0,67,81,1
0,60,80,0
0,64,87,0
0,38,98,0
0,36,90,1
0,36,0,6
0,38,0,9
0,38,111,31
0,36,97,1
0,46,50,0
0,46,0,6
0,36,0,0
0,60,0,0
0,67,0,38
0,60,45,2
0,64,0,1
0,60,0,4
0,64,0,2
0,67,0,4
0,65,78,36
0,69,86,1
0,69,91,2
0,60,81,0
0,65,86,0
0,40,117,0
0,46,50,1
0,40,0,5
0,46,0,1
0,33,108,40
0,38,0,2
0,60,0,5
0,60,48,40
0,36,100,1
0,69,0,2
0,33,0,0
0,38,118,0
0,65,0,1
0,46,49,0
0,36,0,3
0,46,0,3
0,65,0,1
0,69,0,0
0,60,0,3
0,67,84,34
0,64,84,0
0,67,80,2
0,60,73,0
0,64,81,0
0,40,117,47
0,46,46,3
0,60,0,1
0,40,0,2
0,38,0,2
0,46,0,1
0,38,105,39
0,60,45,0
0,36,85,0
0,36,0,6
0,60,0,0
0,67,0,1
0,64,0,1
0,64,0,1
0,67,0,4
0,38,0,6
0,38,106,29
0,65,77,0
0,69,85,0
0,36,90,0
0,69,80,1
0,60,72,0
0,65,76,0
0,46,45,0
0,36,0,5
0,46,0,1
0,60,0,11
0,38,0,30
0,40,96,0
0,60,51,0
0,69,0,7
0,69,0,2
0,65,0,2
0,65,0,1
0,60,0,1
0,46,44,34
0,40,0,1
0,67,78,0
0,64,85,0
0,40,117,0
0,41,108,1
0,67,77,1
0,64,85,0
0,60,81,0
0,46,0,3
0,40,0,1
0,60,0,13
0,41,0,30
0,36,108,0
0,60,47,0
0,67,0,1
0,64,0,2
0,64,0,7
0,60,0,0
0,67,0,0
0,36,95,37
0,46,44,0
0,36,0,1
0,69,85,0
0,60,79,0
0,65,83,0
0,34,115,0
0,65,77,0
0,69,77,0
0,46,0,5
0,36,0,0
0,60,0,39
0,69,0,51
0,65,0,0
0,60,58,0
0,40,117,0
0,46,48,1
0,34,0,3
0,40,0,2
0,46,0,1
0,65,0,7
0,69,0,4
0,60,0,0
0,64,84,29
0,67,78,0
0,34,111,1
0,36,82,1
0,60,78,1
0,64,84,0
0,67,80,1
0,36,0,4
0,34,0,8
0,34,127,33
0,36,86,0
0,60,0,1
0,46,50,0
0,36,0,5
0,46,0,1
0,60,0,34
0,64,0,1
0,67,0,0
0,64,0,1
0,67,0,0
0,60,48,3
0,65,76,48
0,69,83,0
0,69,85,1
0,60,81,0
0,65,87,0
0,40,117,1
0,46,49,1
0,40,0,5
0,46,0,1
0,34,0,9
0,34,113,33
0,60,0,2
0,34,0,14
0,60,49,30
0,34,119,1
0,36,100,0
0,46,49,1
0,36,0,5
0,46,0,1
0,69,0,0
0,65,0,2
0,65,0,6
0,69,0,0
0,60,0,0
0,64,85,32
0,67,81,0
0,60,75,2
0,64,87,0
0,67,80,0
0,60,0,46
0,40,117,1
0,46,48,1
0,40,0,5
0,46,0,1
0,34,0,5
0,67,0,30
0,64,0,0
0,60,50,3
0,64,0,1
0,60,0,0
0,34,113,2
0,36,85,0
0,67,0,1
0,36,0,5
0,34,0,14
0,65,78,25
0,69,85,0
0,69,86,2
0,65,85,0
0,60,77,0
0,34,117,1
0,36,96,0
0,46,49,1
0,36,0,5
0,46,0,1
0,60,0,13
0,60,56,28
0,69,0,12
0,65,0,1
0,69,0,2
0,65,0,0
0,60,0,0
0,34,0,4
0,67,79,28
0,34,107,1
0,64,85,0
0,40,117,0
0,64,90,1
0,67,80,0
0,60,78,0
0,46,50,0
0,40,0,5
0,46,0,1
0,60,0,17
0,31,100,24
0,60,57,1
0,34,0,3
0,67,0,6
0,64,0,1
0,36,122,37
0,46,52,0
0,36,94,2
0,65,76,1
0,69,84,0
0,31,0,2
0,46,0,1
0,36,0,2
0,67,0,4
0,60,0,0
0,64,0,0
0,60,0,46
0,60,81,38
0,69,80,0
0,65,84,0
0,60,59,0
0,40,117,1
0,46,52,0
0,69,0,3
0,65,0,3
0,46,0,0
