track,note,velocity,time
3,71,38,1
3,71,0,28
3,72,38,13
3,72,0,38
3,74,43,6
3,74,0,51
3,76,51,46
3,74,41,5
3,76,0,3
3,74,0,26
3,74,31,17
3,74,0,23
3,72,46,27
3,72,0,76
3,71,43,21
3,71,0,45
3,69,43,1
3,69,0,45
3,69,38,5
3,69,0,88
3,67,29,7
3,67,0,71
3,69,38,23
3,69,0,21
3,69,27,6
3,69,0,21
3,71,43,3
3,71,0,69
3,72,46,26
3,72,0,133
3,71,38,6
3,71,0,27
3,71,33,25
3,71,0,56
3,69,43,42
3,69,0,2
3,72,48,155
3,72,0,35
3,74,43,10
3,74,0,29
3,76,43,20
3,76,0,26
3,76,51,26
3,76,0,6
3,74,43,5
3,74,0,28
3,72,29,20
3,72,0,32
3,72,41,10
3,72,0,94
3,71,41,8
3,71,0,42
3,69,43,6
3,69,0,91
3,67,38,5
3,67,0,119
3,69,41,22
3,69,0,37
3,71,48,12
3,71,0,63
3,72,54,36
3,72,0,130
3,71,46,16
3,71,0,22
3,71,46,24
3,71,0,84
3,69,43,12
3,69,0,6
3,79,48,4
3,79,0,7
3,81,46,19
3,81,0,24
3,84,48,19
3,84,0,6
3,81,46,26
3,81,0,38
3,79,41,9
3,79,0,75
3,75,46,3
3,75,0,52
3,74,38,13
3,74,0,79
3,72,38,21
3,72,0,21
3,76,51,1
3,76,0,17
3,74,38,1
3,74,0,24
3,79,54,2
3,79,0,26
3,72,38,45
3,72,0,20
3,72,51,23
3,72,0,26
3,69,43,18
3,69,0,29
3,74,51,5
3,74,0,49
3,72,51,8
3,72,0,2
3,79,59,1
3,79,0,6
3,81,43,21
3,81,0,25
3,84,51,20
3,84,0,54
3,84,51,13
3,84,0,22
3,81,46,3
3,81,0,40
3,79,46,9
3,79,0,54
3,79,48,38
3,79,0,29
3,75,51,3
3,75,0,65
3,74,41,13
3,74,0,30
3,72,59,14
3,72,0,2
3,72,43,54
3,72,0,23
3,72,38,24
3,72,0,29
3,79,59,22
3,79,0,82
3,79,51,17
3,79,0,56
3,76,59,11
3,76,0,22
3,74,41,4
3,74,0,25
3,72,38,2
3,72,0,5
3,75,48,2
3,75,0,26
3,76,48,1
3,76,0,8
3,74,38,15
3,74,0,27
3,74,38,27
3,74,0,35
3,72,46,10
3,72,0,86
3,71,41,8
3,71,0,25
3,71,43,21
3,71,0,33
3,69,51,16
3,69,0,92
3,67,33,7
3,67,0,26
3,69,43,25
3,69,0,120
3,71,46,20
3,71,0,25
3,72,43,20
3,72,0,129
3,71,46,18
3,71,0,24
3,71,48,25
3,71,0,82
3,69,41,14
3,69,0,192
3,72,46,192
3,72,0,37
3,74,41,11
3,74,0,26
3,76,36,19
3,76,0,25
3,76,48,27
3,76,0,95
3,74,46,2
3,74,0,21
3,74,29,25
3,74,0,30
3,72,54,17
3,72,0,94
3,71,48,2
3,71,0,79
3,69,43,19
3,69,0,83
3,67,36,13
3,67,0,36
3,69,46,13
3,69,0,126
3,71,54,17
3,71,0,36
3,72,48,14
3,72,0,130
3,71,51,14
3,71,0,21
3,71,46,27
3,71,0,67
3,69,43,31
3,69,0,3
3,79,51,169
3,79,0,28
3,81,48,19
3,81,0,22
3,84,54,23
3,84,0,115
3,80,51,28
3,81,23,4
3,80,0,8
3,81,0,31
3,79,38,10
3,79,0,94
3,75,58,10
3,75,0,66
3,74,41,22
3,74,0,84
3,72,41,10
3,72,0,34
3,76,46,17
3,76,0,44
3,74,43,5
3,74,0,168
3,79,46,21
3,79,0,32
3,72,43,28
3,72,0,31
3,72,46,17
3,72,0,25
3,69,46,21
3,69,0,36
3,74,46,2
3,74,0,59
3,72,46,4
3,72,0,100
3,79,48,3
3,79,0,13
3,81,41,13
3,81,0,26
3,84,51,22
3,84,0,9
3,84,51,7
3,84,0,22
3,81,43,8
3,81,0,38
3,79,54,11
3,79,0,53
3,79,41,41
3,79,0,2
3,75,59,2
3,75,0,62
3,74,41,16
3,74,0,40
3,72,54,10
3,72,0,163
3,72,36,32
3,72,0,21
3,72,36,22
3,72,0,31
3,79,51,18
3,79,0,121
3,79,51,22
3,79,0,91
3,76,43,13
3,76,0,21
3,74,38,2
3,72,43,18
3,74,0,3
3,72,0,2
3,81,54,6
3,81,0,56
3,79,41,10
3,79,0,68
3,79,46,32
3,79,0,41
3,79,48,7
3,79,0,95
3,76,48,52
3,76,0,18
3,74,41,8
3,72,48,23
3,74,0,5
3,72,0,108
3,72,48,6
3,69,29,2
3,69,0,2
3,72,0,14
3,76,51,11
3,79,46,1
3,79,0,62
3,76,0,1
3,72,46,4
3,69,33,1
3,69,0,4
3,72,0,5
3,72,48,7
3,69,33,1
3,69,0,4
3,72,0,8
3,76,46,12
3,79,41,2
3,76,0,80
3,79,0,1
3,72,46,7
3,69,36,1
3,69,0,12
3,72,0,4
3,72,48,8
3,69,31,1
3,69,0,8
3,72,0,7
3,76,41,12
3,79,33,1
3,76,0,51
3,79,0,1
3,69,31,2
3,72,43,1
3,69,0,43
3,72,0,4
3,72,43,4
3,69,29,2
3,69,0,6
3,72,0,4
3,81,48,17
3,77,38,1
3,81,0,49
3,77,0,1
3,69,41,6
3,72,43,1
3,69,0,141
3,72,0,2
3,74,38,261
3,74,0,28
3,76,46,19
3,76,0,1
3,74,46,1
3,74,0,28
3,74,26,22
3,74,0,33
3,72,46,15
3,72,0,1
3,71,41,5
3,71,0,30
3,71,36,18
3,71,0,36
3,69,43,12
3,69,0,1
3,67,38,3
3,67,0,85
3,69,41,15
3,69,0,21
3,69,26,5
3,69,0,20
3,71,48,4
3,71,0,63
3,72,33,30
3,72,0,7
3,71,31,13
3,71,0,29
3,71,36,18
3,71,0,96
3,69,43,4
3,69,0,145
3,72,38,159
3,72,0,34
3,74,38,12
3,74,0,29
3,76,41,20
3,76,0,24
3,76,41,25
3,76,0,89
3,74,36,8
3,74,0,19
3,72,26,25
3,72,0,28
3,72,46,22
3,72,0,94
3,71,43,6
3,71,0,26
3,69,36,21
3,69,0,93
3,67,36,3
3,67,0,78
3,69,38,62
3,69,0,28
3,71,38,21
3,71,0,87
3,72,43,10
3,72,0,5
3,71,41,14
3,71,0,27
3,71,36,22
3,71,0,92
3,69,33,11
3,69,0,167
3,79,41,3
3,79,0,13
3,81,38,10
3,81,0,22
3,84,41,27
3,84,0,5
3,81,43,21
3,81,0,37
3,79,43,11
3,79,0,52
3,75,48,3
3,75,0,54
3,74,48,14
3,74,0,53
3,72,33,37
3,72,0,25
3,76,51,8
3,76,0,22
3,74,51,6
3,74,0,24
3,79,54,38
3,79,0,49
3,72,41,41
3,72,0,23
3,72,48,26
3,72,0,19
3,69,48,28
3,69,0,23
3,74,54,1
3,74,0,57
3,72,43,15
3,72,0,2
3,79,48,145
3,79,0,26
3,81,41,22
3,81,0,20
3,84,51,5
3,84,36,73
3,84,0,29
3,84,0,17
3,81,33,5
3,81,0,39
3,79,41,8
3,79,0,55
3,79,41,38
3,79,0,33
3,75,46,2
3,75,0,60
3,74,48,8
3,74,0,33
3,72,51,17
3,72,0,11
3,72,43,51
3,72,0,21
3,72,38,28
3,72,0,18
3,79,43,28
3,79,0,120
3,79,43,26
3,79,0,86
3,76,46,14
3,76,0,19
3,74,41,6
3,72,41,19
3,74,0,3
3,72,0,13
3,81,51,4
3,81,0,56
3,79,48,21
3,79,0,63
3,79,46,37
3,79,0,45
3,79,43,0
3,79,0,91
3,76,48,56
3,76,0,23
3,74,41,1
3,72,48,24
3,74,0,5
3,72,0,163
3,72,43,2
3,69,33,2
3,69,0,7
3,72,0,2
3,76,43,19
3,79,46,1
3,79,0,15
3,76,0,2
3,72,46,1
3,69,38,1
3,69,0,66
3,72,0,7
3,72,41,9
3,69,23,2
3,69,0,12
3,72,0,8
3,76,38,8
3,79,31,2
3,76,0,61
3,79,0,5
3,72,43,5
3,69,33,1
3,69,0,67
3,72,0,9
3,72,41,566
3,69,17,1
3,69,0,26
3,72,0,11
3,76,41,12
3,79,36,1
3,76,0,24
3,79,0,1
3,69,43,2
3,72,43,1
3,69,0,38
3,72,0,8
3,79,31,644
3,79,0,69
3,72,36,23
3,72,0,43
3,72,11,18
3,72,0,84
3,79,31,1
3,79,0,39
3,72,21,30
3,72,0,24
3,72,31,26
3,72,0,16
3,69,19,2
3,69,0,29
3,74,17,1
3,74,0,2
3,72,31,1
3,72,0,64
3,79,29,1
3,79,0,106
3,72,21,17
3,72,0,49
3,72,31,43
3,72,0,48
3,79,26,99
3,79,0,46
3,72,31,47
3,72,0,23
3,72,33,25
3,72,0,17
3,69,26,34
3,69,0,22
3,74,33,4
3,74,0,87
3,72,19,9
3,72,0,10
3,79,29,425
3,79,0,93
3,72,33,17
3,72,0,48
3,72,31,49
3,72,0,51
3,79,38,92
3,79,0,53
3,72,29,43
3,72,0,22
3,72,41,27
3,72,0,17
3,72,33,30
3,72,0,23
3,74,38,2
3,74,0,15
3,72,29,10
3,72,0,243
4,42,92,0
4,42,0,6
4,42,92,90
4,42,0,10
4,42,91,86
4,42,0,10
4,42,92,84
4,42,0,11
4,51,91,1576
4,51,0,8
4,51,98,13
4,51,0,12
4,51,94,10
4,35,99,4
4,42,83,0
4,51,0,2
4,35,0,4
4,42,0,6
4,69,83,79
4,38,76,3
4,38,96,1
4,40,99,0
4,35,91,1
4,42,91,0
4,35,0,6
4,42,0,6
4,35,91,36
4,40,0,1
4,69,0,1
4,38,0,2
4,35,0,2
4,35,99,42
4,42,91,0
4,35,0,6
4,42,0,6
4,38,0,39
4,42,83,45
4,38,68,2
4,42,0,10
4,35,99,84
4,42,83,0
4,35,0,6
4,42,0,6
4,38,0,35
4,38,85,47
4,69,85,1
4,40,100,1
4,35,91,0
4,42,91,0
4,38,72,4
4,35,0,2
4,42,0,6
4,69,0,29
4,35,91,7
4,35,0,6
4,35,99,42
4,42,91,0
4,35,0,6
4,42,0,6
4,38,0,6
4,40,0,1
4,38,0,5
4,38,77,70
4,42,83,2
4,42,0,12
4,35,99,84
4,42,83,0
4,35,0,6
4,42,0,6
4,38,0,1
4,69,88,80
4,38,74,1
4,35,91,2
4,42,91,0
4,35,0,6
4,42,0,6
4,35,91,36
4,35,0,6
4,69,0,4
4,35,99,38
4,42,91,0
4,35,0,6
4,42,0,6
4,38,0,33
4,40,98,51
4,38,99,0
4,42,83,0
4,38,76,3
4,42,0,9
4,38,0,42
4,40,0,3
4,35,99,39
4,42,83,0
4,35,0,6
4,42,0,6
4,38,0,19
4,69,87,63
4,35,91,2
4,42,91,0
4,38,72,0
4,35,0,6
4,42,0,6
4,35,91,36
4,69,0,4
4,35,0,2
4,35,99,42
4,42,91,0
4,35,0,6
4,42,0,6
4,38,0,25
4,38,69,57
4,38,93,1
4,40,106,1
4,42,83,0
4,42,0,12
4,40,0,62
4,38,0,1
4,35,99,21
4,42,83,0
4,35,0,6
4,42,0,6
4,38,0,4
4,51,71,79
4,69,87,0
4,35,91,1
4,42,91,0
4,38,74,0
4,35,0,6
4,51,0,6
4,42,0,0
4,69,0,31
4,35,91,5
4,35,0,6
4,35,99,42
4,42,91,0
4,35,0,6
4,42,0,6
4,38,0,37
4,42,83,47
4,38,75,0
4,42,0,12
4,35,99,84
4,42,83,0
4,35,0,6
4,42,0,6
4,38,0,30
4,40,98,54
4,38,98,0
4,35,91,0
4,42,91,0
4,38,66,0
4,69,89,1
4,35,0,5
4,42,0,6
4,35,91,36
4,69,0,3
4,35,0,3
4,38,0,2
4,40,0,2
4,35,99,38
4,42,91,0
4,35,0,6
4,42,0,6
4,38,0,25
4,38,72,56
4,42,83,3
4,42,0,12
4,51,61,38
4,51,0,7
4,51,81,13
4,51,0,23
4,35,99,3
4,42,83,0
4,35,0,6
4,42,0,6
4,38,0,11
4,38,72,69
4,69,85,1
4,35,91,3
4,42,91,0
4,35,0,6
4,42,0,6
4,69,0,35
4,35,91,1
4,35,0,6
4,35,99,42
4,42,91,0
4,35,0,6
4,42,0,6
4,38,0,2
4,38,74,80
4,42,83,2
4,42,0,12
4,35,99,84
4,42,83,0
4,35,0,6
4,42,0,6
4,38,0,39
4,40,98,44
4,38,99,1
4,35,91,0
4,42,91,0
4,38,74,0
4,35,0,6
4,42,0,6
4,35,91,36
4,38,0,3
4,40,0,1
4,35,0,2
4,35,99,42
4,42,91,0
4,35,0,6
4,42,0,6
4,38,0,30
4,69,85,51
4,38,70,1
4,42,83,2
4,42,0,12
4,69,0,42
4,35,99,42
4,42,83,0
4,35,0,6
4,42,0,6
4,38,0,20
4,38,70,62
4,35,91,2
4,42,91,0
4,35,0,6
4,42,0,6
4,35,91,36
4,35,0,6
4,35,99,42
4,42,91,0
4,35,0,6
4,42,0,6
4,38,0,30
4,51,83,10
4,51,0,11
4,51,89,10
4,51,0,10
4,38,72,11
4,69,88,0
4,51,82,0
4,42,83,2
4,51,0,5
4,42,0,7
4,69,0,27
4,35,99,57
4,42,83,0
4,35,0,6
4,42,0,6
4,38,0,15
4,40,103,68
4,38,102,0
4,35,91,1
4,42,91,0
4,38,71,0
4,35,0,6
4,42,0,6
4,35,91,36
4,35,0,6
4,38,0,4
4,40,0,1
4,35,99,37
4,42,91,0
4,35,0,6
4,42,0,6
4,38,0,13
4,38,76,67
4,42,83,4
4,42,0,12
4,35,99,84
4,42,83,0
4,35,0,6
4,42,0,6
4,38,0,3
4,69,82,79
4,35,91,2
4,42,91,0
4,38,70,1
4,35,0,5
4,42,0,6
4,69,0,21
4,35,91,15
4,35,0,6
4,35,99,42
4,42,91,0
4,35,0,6
4,42,0,6
4,38,0,2
4,38,76,80
4,38,99,0
4,40,100,1
4,42,83,1
4,42,0,12
4,38,0,46
4,40,0,1
4,35,99,37
4,42,83,0
4,35,0,6
4,42,0,6
4,38,0,23
4,38,68,59
4,35,91,2
4,42,91,0
4,35,0,6
4,42,0,6
4,35,91,36
4,35,0,6
4,35,99,42
4,42,91,0
4,35,0,6
4,42,0,6
4,38,0,11
4,38,98,52
4,40,100,20
4,38,74,0
4,42,83,1
4,42,0,12
4,38,0,36
4,40,0,8
4,35,99,40
4,42,83,0
4,35,0,6
4,42,0,6
4,38,0,16
4,40,102,67
4,35,91,1
4,42,91,0
4,38,99,0
4,38,80,1
4,69,85,0
4,35,0,5
4,42,0,6
4,69,0,22
4,35,91,14
4,35,0,6
4,38,0,8
4,40,0,1
4,35,99,33
4,42,91,0
4,35,0,6
4,42,0,6
4,38,0,38
4,51,81,0
4,51,0,8
4,51,83,15
4,51,0,7
4,51,82,13
4,42,83,3
4,38,75,2
4,51,0,2
4,42,0,8
4,35,99,84
4,42,83,0
4,35,0,6
4,42,0,6
4,38,0,50
4,35,91,34
4,42,91,0
4,38,98,1
4,40,98,0
4,38,82,0
4,69,82,0
4,35,0,5
4,42,0,6
4,69,0,24
4,35,91,12
4,35,0,6
4,38,0,10
4,40,0,2
4,35,99,30
4,42,91,0
4,35,0,6
4,42,0,6
4,38,0,44
4,38,71,39
4,42,83,1
4,42,0,12
4,35,99,84
4,42,83,0
4,35,0,6
4,42,0,6
4,38,0,55
4,69,84,27
4,51,83,1
4,35,91,1
4,42,91,0
4,38,95,1
4,40,94,0
4,38,74,2
4,35,0,3
4,51,0,6
4,42,0,0
4,69,0,27
4,35,91,9
4,38,0,6
4,40,0,0
4,35,0,0
4,35,99,42
4,42,91,0
4,35,0,6
4,42,0,6
4,38,0,49
4,42,83,35
4,38,78,1
4,42,0,11
4,35,99,84
4,42,83,0
4,35,0,6
4,42,0,6
4,38,0,51
4,69,82,32
4,35,91,1
4,42,91,0
4,38,81,1
4,35,0,5
4,42,0,6
4,69,0,31
4,35,91,5
4,35,0,6
4,35,99,42
4,42,91,0
4,35,0,6
4,42,0,6
4,51,76,39
4,51,0,7
4,38,0,2
4,51,83,12
4,51,0,8
4,51,94,13
4,38,102,2
4,40,100,0
4,42,83,1
4,38,78,2
4,51,0,2
4,42,0,8
4,38,0,53
4,40,0,1
4,35,99,30
