track,note,velocity,time
1,53,84,1140
1,60,77,188
1,65,82,192
1,69,87,188
1,53,80,0
1,62,74,144
1,67,70,192
1,71,78,188
1,53,84,16
1,64,72,172
1,69,80,188
1,72,77,184
1,53,94,4
1,62,77,172
1,67,72,192
1,71,77,188
1,53,77,0
1,60,55,196
1,65,83,188
1,69,83,188
1,53,81,144
1,62,77,160
1,67,79,188
1,71,78,192
1,53,81,136
1,64,64,124
1,69,79,188
1,72,84,196
1,53,74,160
1,62,64,156
1,67,77,192
1,71,77,192
1,53,81,140
1,60,61,164
1,65,79,188
1,69,78,196
1,53,83,148
1,62,73,160
1,67,78,192
1,71,77,188
1,53,74,152
1,64,72,132
1,69,82,192
1,72,84,188
1,53,82,148
1,62,62,160
1,67,73,192
1,71,76,188
1,53,79,172
1,60,62,172
1,65,69,192
1,69,79,192
1,53,78,148
1,62,70,156
1,67,74,192
1,71,77,196
1,53,80,140
1,64,78,120
1,69,77,192
1,72,82,192
1,53,80,24
1,62,67,172
1,67,75,196
1,71,74,188
1,53,81,128
1,60,63,164
1,65,72,192
1,69,73,188
1,53,80,12
1,62,77,160
1,67,79,192
1,71,73,192
1,53,84,140
1,64,77,156
1,69,80,196
1,72,83,188
1,53,83,168
1,62,66,152
1,67,77,192
1,71,76,192
1,69,92,0
1,65,90,0
1,60,91,4
1,60,85,164
1,67,89,0
1,64,90,0
1,69,91,140
1,65,85,0
1,60,88,0
1,60,84,124
1,64,92,0
1,67,90,0
1,69,89,168
1,60,79,4
1,65,82,0
1,64,87,144
1,67,80,0
1,60,81,0
1,69,85,176
1,60,81,0
1,65,77,0
1,67,85,140
1,60,84,0
1,64,91,0
1,69,95,156
1,60,85,0
1,65,90,0
1,67,84,144
1,60,77,0
1,64,85,0
1,69,84,144
1,60,76,0
1,65,80,0
1,67,81,148
1,64,89,0
1,60,85,0
1,69,89,152
1,60,83,0
1,65,87,0
1,60,82,128
1,64,88,0
1,67,84,4
1,69,89,208
1,60,85,0
1,65,91,0
1,60,79,136
1,64,91,0
1,67,84,0
1,69,90,184
1,65,89,0
1,60,81,0
1,64,94,136
1,67,84,0
1,60,82,0
1,60,85,336
1,69,84,0
1,65,88,0
1,60,79,176
1,64,91,0
1,67,84,0
1,69,91,144
1,65,85,0
1,60,90,0
1,67,84,196
1,60,78,0
1,64,92,0
1,69,91,164
1,65,91,0
1,60,84,0
1,60,74,172
1,67,88,0
1,64,92,0
1,69,89,160
1,65,89,0
1,60,84,0
1,67,84,112
1,64,90,0
1,60,84,0
1,69,91,180
1,65,88,0
1,60,82,0
1,60,87,152
1,64,94,0
1,67,83,0
1,65,84,144
1,69,85,0
1,60,77,0
1,64,87,128
1,60,80,0
1,67,84,0
1,69,88,124
1,60,81,0
1,65,89,0
1,60,81,132
1,67,83,0
1,64,87,0
1,69,89,148
1,60,72,0
1,65,89,0
1,60,82,136
1,64,90,0
1,67,74,0
1,60,77,156
1,69,88,0
1,65,82,4
1,60,78,156
1,67,84,0
1,64,89,0
1,60,78,156
1,69,88,0
1,65,87,0
1,64,90,136
1,67,82,0
1,60,77,0
1,69,90,188
1,60,83,0
1,65,87,0
1,67,84,164
1,64,89,0
1,60,77,0
1,60,78,148
1,69,85,0
1,65,85,0
1,64,89,172
1,60,84,0
1,67,72,4
1,69,89,176
1,60,82,0
1,65,89,0
1,67,84,160
1,60,80,4
1,64,89,0
1,65,88,164
1,60,82,0
1,69,88,4
1,67,79,164
1,60,79,0
1,64,96,0
1,69,89,164
1,60,80,0
1,65,89,0
1,60,80,124
1,67,81,0
1,64,88,0
1,69,89,152
1,60,78,0
1,65,89,0
1,64,95,144
1,60,84,0
1,67,87,0
1,69,87,168
1,60,84,0
1,65,87,4
1,60,83,116
1,67,88,0
1,64,94,4
1,69,89,124
1,60,82,0
1,65,90,0
1,67,88,124
1,60,77,0
1,64,92,0
1,60,77,136
1,69,90,4
1,65,84,0
1,64,84,128
1,60,81,0
1,67,73,0
1,60,81,152
1,69,84,0
1,65,83,0
1,60,79,160
1,67,85,0
1,64,92,0
1,60,81,132
1,69,91,0
1,65,85,0
1,60,74,120
1,67,85,0
1,64,87,4
1,69,89,180
1,60,84,0
1,65,90,0
1,60,80,132
1,64,89,0
1,67,76,0
1,69,91,152
1,60,83,0
1,65,91,0
1,60,84,160
1,67,84,4
1,64,91,0
1,60,82,124
1,69,88,0
1,65,87,4
1,60,96,220
1,69,95,0
1,65,87,0
1,62,95,148
1,71,99,0
1,67,92,0
1,64,89,192
1,69,90,0
1,72,90,0
1,69,83,244
1,65,84,0
1,60,88,4
1,71,90,92
1,62,84,0
1,67,84,0
1,64,92,204
1,69,91,0
1,72,95,0
1,69,84,236
1,65,83,0
1,60,89,0
1,62,92,104
1,71,95,0
1,67,90,0
1,64,90,196
1,72,95,0
1,69,88,0
1,65,88,232
1,60,91,0
1,69,87,4
1,62,91,164
1,71,88,0
1,67,85,0
1,64,90,172
1,72,91,0
1,69,92,0
1,69,84,236
1,65,85,0
1,60,95,0
1,62,90,140
1,71,90,0
1,67,85,0
1,64,89,180
1,69,89,0
1,72,91,0
1,69,85,240
1,65,87,0
1,60,95,0
1,62,91,164
1,71,90,0
1,67,85,0
1,64,91,176
1,72,89,0
1,69,89,0
1,69,85,228
1,65,84,0
1,60,94,4
1,62,91,136
1,71,92,0
1,67,88,4
1,64,91,188
1,72,91,0
1,69,88,0
1,69,85,220
1,65,83,0
1,60,94,0
1,62,87,136
1,71,91,4
1,67,84,0
1,64,89,184
1,72,91,0
1,69,89,0
1,69,85,196
1,60,92,0
1,65,84,0
1,62,84,148
1,71,90,0
1,67,80,0
1,64,84,136
1,69,87,0
1,72,94,0
1,69,84,192
1,65,81,0
1,60,88,0
1,62,85,120
1,67,84,4
1,71,89,0
1,72,92,148
1,64,88,0
1,69,85,0
1,69,85,216
1,65,84,0
1,60,90,0
1,62,84,132
1,67,84,0
1,71,89,0
1,64,89,172
1,69,89,0
1,72,92,4
1,60,91,196
1,69,90,0
1,65,89,0
1,62,90,136
1,71,95,4
1,67,84,0
1,72,95,196
1,64,89,0
1,69,89,0
1,69,84,232
1,60,89,0
1,65,83,0
1,62,91,108
1,71,92,0
1,67,88,0
1,69,84,136
1,64,84,0
1,72,92,0
1,69,87,196
1,65,84,0
1,60,95,0
1,62,85,140
1,71,89,4
1,67,80,0
1,72,92,156
1,69,88,0
1,64,90,0
1,60,92,180
1,69,84,0
1,65,81,0
1,62,88,172
1,71,91,0
1,67,83,0
1,72,91,148
1,64,89,0
1,69,84,0
1,69,90,220
1,60,92,0
1,65,88,0
1,62,70,160
1,67,77,0
1,71,80,0
1,64,85,228
1,72,94,0
1,69,87,0
1,60,90,204
1,65,85,0
1,69,87,0
1,62,88,156
1,71,88,0
1,67,84,0
1,64,83,176
1,69,84,0
1,72,88,0
1,69,87,224
1,65,87,4
1,60,94,0
1,62,88,148
1,71,89,0
1,67,82,4
1,69,89,176
1,64,88,0
1,72,88,0
1,65,84,208
1,69,88,0
1,60,88,0
1,71,87,148
1,62,87,0
1,67,81,0
1,72,90,172
1,64,84,0
1,69,82,0
1,65,83,212
1,69,84,0
1,60,89,0
1,62,90,116
1,67,85,0
1,71,87,0
1,64,85,176
1,72,92,0
1,69,84,0
1,69,92,328
1,65,90,0
1,60,91,4
1,60,85,164
1,67,89,0
1,64,90,0
1,69,91,140
1,65,85,0
1,60,88,0
1,60,84,124
1,64,92,0
1,67,90,0
1,69,89,168
1,60,79,4
1,65,82,0
1,64,87,144
1,67,80,0
1,60,81,0
1,69,85,176
1,60,81,0
1,65,77,0
1,67,85,140
1,60,84,0
1,64,91,0
1,69,95,156
1,60,85,0
1,65,90,0
1,67,84,144
1,60,77,0
1,64,85,0
1,69,84,144
1,60,76,0
1,65,80,0
1,67,81,148
1,64,89,0
1,60,85,0
1,69,89,152
1,60,83,0
1,65,87,0
1,60,82,128
1,64,88,0
1,67,84,4
1,69,89,208
1,60,85,0
1,65,91,0
1,60,79,136
1,64,91,0
1,67,84,0
1,69,90,184
1,65,89,0
1,60,81,0
1,64,94,136
1,67,84,0
1,60,82,0
1,60,85,336
1,69,84,0
1,65,88,0
1,60,79,176
1,64,91,0
1,67,84,0
1,69,91,144
1,65,85,0
1,60,90,0
1,67,84,196
1,60,78,0
1,64,92,0
1,69,91,164
1,65,91,0
1,60,84,0
1,60,74,172
1,67,88,0
1,64,92,0
1,69,89,160
1,65,89,0
1,60,84,0
1,67,84,112
1,64,90,0
1,60,84,0
1,69,91,180
1,65,88,0
1,60,82,0
1,60,87,152
1,64,94,0
1,67,83,0
1,65,84,144
1,69,85,0
1,60,77,0
1,64,87,128
1,60,80,0
1,67,84,0
1,69,88,124
1,60,81,0
1,65,89,0
1,60,81,132
1,67,83,0
1,64,87,0
1,69,89,148
1,60,72,0
1,65,89,0
1,60,82,136
1,64,90,0
1,67,74,0
1,60,77,156
1,69,88,0
1,65,82,4
1,60,78,156
1,67,84,0
1,64,89,0
1,60,78,156
1,69,88,0
1,65,87,0
1,64,90,136
1,67,82,0
1,60,77,0
1,69,90,188
1,60,83,0
1,65,87,0
1,67,84,164
1,64,89,0
1,60,77,0
1,60,78,148
1,69,85,0
1,65,85,0
1,64,89,172
1,60,84,0
1,67,72,4
1,69,89,176
1,60,82,0
1,65,89,0
1,67,84,160
1,60,80,4
1,64,89,0
1,65,88,164
1,60,82,0
1,69,88,4
1,67,79,164
1,60,79,0
1,64,96,0
1,69,89,164
1,60,80,0
1,65,89,0
1,60,80,124
1,67,81,0
1,64,88,0
1,69,89,152
1,60,78,0
1,65,89,0
1,64,95,144
1,60,84,0
1,67,87,0
1,69,87,168
1,60,84,0
1,65,87,4
1,60,83,116
1,67,88,0
1,64,94,4
1,69,89,124
1,60,82,0
1,65,90,0
1,67,88,124
1,60,77,0
1,64,92,0
1,60,77,136
1,69,90,4
1,65,84,0
1,64,84,128
1,60,81,0
1,67,73,0
1,60,81,152
1,69,84,0
1,65,83,0
1,60,79,160
1,67,85,0
1,64,92,0
1,60,81,132
1,69,91,0
1,65,85,0
1,60,74,120
1,67,85,0
1,64,87,4
1,69,89,180
1,60,84,0
1,65,90,0
1,60,80,132
1,64,89,0
1,67,76,0
1,69,91,152
1,60,83,0
1,65,91,0
1,60,84,160
1,67,84,4
1,64,91,0
1,60,82,124
1,69,88,0
1,65,87,4
1,60,96,220
1,69,95,0
1,65,87,0
1,62,95,148
1,71,99,0
1,67,92,0
1,64,89,192
1,69,90,0
1,72,90,0
1,69,83,244
1,65,84,0
1,60,88,4
1,71,90,92
1,62,84,0
1,67,84,0
1,64,92,204
1,69,91,0
1,72,95,0
1,69,84,236
1,65,83,0
1,60,89,0
1,62,92,104
1,71,95,0
1,67,90,0
1,64,90,196
1,72,95,0
1,69,88,0
1,65,88,232
1,60,91,0
1,69,87,4
1,62,91,164
1,71,88,0
1,67,85,0
1,64,90,172
1,72,91,0
1,69,92,0
1,69,84,236
1,65,85,0
1,60,95,0
1,62,90,140
1,71,90,0
1,67,85,0
1,64,89,180
1,69,89,0
1,72,91,0
1,69,85,240
1,65,87,0
1,60,95,0
1,62,91,164
1,71,90,0
1,67,85,0
1,64,91,176
1,72,89,0
1,69,89,0
1,69,85,228
1,65,84,0
1,60,94,4
1,62,91,136
1,71,92,0
1,67,88,4
1,64,91,188
1,72,91,0
1,69,88,0
1,69,85,220
1,65,83,0
1,60,94,0
1,62,87,136
1,71,91,4
1,67,84,0
1,72,91,184
1,69,89,0
1,64,89,0
1,69,85,196
1,60,92,0
1,65,84,0
1,62,84,148
1,71,90,0
1,67,80,0
1,64,84,136
1,69,87,0
1,72,94,0
1,69,84,192
1,65,81,0
1,60,88,0
1,62,85,120
1,67,84,4
1,71,89,0
1,72,92,148
1,64,88,0
1,69,85,0
1,69,85,216
1,65,84,0
1,60,90,0
1,62,84,132
1,67,84,0
1,71,89,0
1,64,89,172
1,69,89,0
1,72,92,4
1,60,91,196
1,69,90,0
1,65,89,0
1,62,90,136
1,71,95,4
1,67,84,0
1,72,95,196
1,64,89,0
1,69,89,0
1,69,84,232
1,60,89,0
1,65,83,0
1,62,91,108
1,71,92,0
1,67,88,0
1,69,84,136
1,64,84,0
1,72,92,0
1,69,87,196
1,65,84,0
1,60,95,0
1,62,85,140
1,71,89,4
1,67,80,0
1,72,92,156
1,69,88,0
1,64,90,0
1,60,92,180
1,69,84,0
1,65,81,0
1,62,88,172
1,71,91,0
1,67,83,0
1,72,91,148
1,64,89,0
1,69,84,0
1,69,90,220
1,60,92,0
1,65,88,0
1,62,70,160
1,67,77,0
1,71,80,0
1,64,85,228
1,72,94,0
1,69,87,0
1,65,85,204
1,69,87,0
1,60,91,12
1,60,85,156
1,67,89,0
1,64,90,0
1,69,91,140
1,65,85,0
1,60,88,0
1,60,84,124
1,64,92,0
1,67,90,0
1,69,89,168
1,60,79,4
1,65,82,0
1,64,87,144
1,67,80,0
1,60,81,0
1,69,85,176
1,60,81,0
1,65,77,0
1,67,85,140
1,60,84,0
1,64,91,0
1,69,95,156
1,60,85,0
1,65,90,0
1,67,84,144
1,60,77,0
1,64,85,0
1,69,84,144
1,60,76,0
1,65,80,0
1,67,81,148
1,64,89,0
1,60,85,0
1,69,89,152
1,60,83,0
1,65,87,0
1,60,82,128
1,64,88,0
1,67,84,4
1,69,89,208
1,60,85,0
1,65,91,0
1,60,79,136
1,64,91,0
1,67,84,0
1,69,90,184
1,65,89,0
1,60,81,0
1,64,94,136
1,67,84,0
1,60,82,0
1,60,85,336
1,69,84,0
1,65,88,0
1,60,79,176
1,64,91,0
1,67,84,0
1,69,91,144
1,65,85,0
1,60,90,0
1,67,84,196
1,60,78,0
1,64,92,0
1,69,92,168
1,65,90,0
1,60,91,4
1,60,85,164
1,67,89,0
1,64,90,0
1,69,91,140
1,65,85,0
1,60,88,0
1,60,84,124
1,64,92,0
1,67,90,0
1,69,89,168
1,60,79,4
1,65,82,0
1,64,87,144
1,67,80,0
1,60,81,0
1,69,85,176
1,60,81,0
1,65,77,0
1,67,85,140
1,60,84,0
1,64,91,0
1,69,95,156
1,60,85,0
1,65,90,0
1,67,84,144
1,60,77,0
1,64,85,0
1,69,84,144
1,60,76,0
1,65,80,0
1,67,81,148
1,64,89,0
1,60,85,0
1,69,89,152
1,60,83,0
1,65,87,0
1,60,82,128
1,64,88,0
1,67,84,4
1,69,89,208
1,60,85,0
1,65,91,0
1,60,79,136
1,64,91,0
1,67,84,0
1,69,90,184
1,65,89,0
1,60,81,0
1,64,94,136
1,67,84,0
1,60,82,0
1,60,85,336
1,69,84,0
1,65,88,0
1,60,79,176
1,64,91,0
1,67,84,0
1,69,91,144
1,65,85,0
1,60,90,0
1,67,84,196
1,60,78,0
1,64,92,0
1,69,92,168
1,65,90,0
1,60,91,4
1,60,85,164
1,67,89,0
1,64,90,0
1,69,91,140
1,65,85,0
1,60,88,0
1,60,84,124
1,64,92,0
1,67,90,0
1,69,89,168
1,60,79,4
1,65,82,0
1,64,87,144
1,67,80,0
1,60,81,0
1,69,85,176
1,60,81,0
1,65,77,0
1,67,85,140
1,60,84,0
1,64,91,0
1,69,95,156
1,60,85,0
1,65,90,0
1,67,84,144
1,60,77,0
1,64,85,0
1,69,84,144
1,60,76,0
1,65,80,0
1,67,81,148
1,64,89,0
1,60,85,0
1,69,89,152
1,60,83,0
1,65,87,0
1,60,82,128
1,64,88,0
1,67,84,4
1,69,89,208
1,60,85,0
1,65,91,0
1,60,79,136
1,64,91,0
1,67,84,0
1,69,90,184
1,65,89,0
1,60,81,0
1,64,94,136
1,67,84,0
1,60,82,0
1,60,85,336
1,69,84,0
1,65,88,0
1,60,79,176
1,64,91,0
1,67,84,0
1,69,91,144
1,65,85,0
1,60,90,0
1,67,84,196
1,60,78,0
1,64,92,0
1,69,92,168
1,65,90,0
1,60,91,4
1,60,85,164
1,67,89,0
1,64,90,0
1,69,91,140
1,65,85,0
