track,note,velocity,time
1,72,95,7656
1,69,90,0
1,76,93,0
1,71,102,664
1,72,98,192
1,69,91,24
1,65,89,136
1,79,98,632
1,81,90,40
1,79,90,24
1,77,90,36
1,77,94,88
1,72,93,20
1,76,96,0
1,69,90,16
1,72,96,4
1,76,94,0
1,65,99,1028
1,76,91,788
1,69,85,4
1,72,91,0
1,65,74,900
1,69,91,0
1,72,85,28
1,81,95,220
1,81,98,120
1,79,96,396
1,77,89,44
1,76,96,56
1,72,94,428
1,76,91,0
1,67,83,4
1,72,96,136
1,76,95,4
1,67,89,4
1,72,93,104
1,76,95,0
1,67,78,96
1,72,93,4
1,76,91,4
1,67,91,144
1,72,95,0
1,76,95,4
1,67,78,4
1,72,87,80
1,72,93,148
1,65,89,4
1,69,91,0
1,72,95,136
1,65,90,0
1,69,95,4
1,72,85,172
1,65,79,8
1,69,83,0
1,65,93,144
1,72,93,392
1,67,83,180
1,72,80,60
1,76,91,8
1,67,83,4
1,72,89,4
1,67,91,148
1,72,98,0
1,76,96,4
1,72,94,124
1,76,95,4
1,72,94,96
1,76,94,4
1,67,74,0
1,67,93,136
1,72,96,4
1,76,96,0
1,67,85,96
1,72,93,4
1,76,90,4
1,72,90,436
1,65,79,4
1,69,87,4
1,72,96,132
1,65,90,0
1,69,93,4
1,65,94,224
1,72,90,400
1,72,98,144
1,71,95,12
1,69,89,4
1,67,84,20
1,72,93,160
1,76,96,0
1,57,102,16
1,69,90,0
1,72,96,4
1,76,94,0
1,53,99,644
1,65,99,384
1,60,98,568
1,59,94,192
1,60,98,200
1,60,91,48
1,57,93,0
1,57,102,12
1,62,95,104
1,59,94,0
1,76,91,12
1,69,85,4
1,72,91,0
1,64,93,188
1,60,91,4
1,62,91,108
1,59,91,4
1,60,91,112
1,57,91,4
1,59,91,116
1,55,95,0
1,57,98,0
1,52,90,4
1,65,74,304
1,69,91,36
1,57,95,16
1,53,88,0
1,72,85,12
1,55,90,108
1,59,91,0
1,60,98,220
1,57,91,4
1,59,94,124
1,55,89,4
1,59,98,124
1,55,90,4
1,57,98,188
1,53,88,4
1,64,95,84
1,60,90,4
1,69,91,0
1,60,93,136
1,69,93,0
1,64,93,0
1,64,95,140
1,67,91,4
1,60,91,4
1,60,90,568
1,64,93,4
1,67,89,4
1,67,91,188
1,64,93,0
1,60,90,256
1,64,96,0
1,67,93,4
1,60,87,244
1,64,91,0
1,67,89,4
1,60,96,28
1,57,93,4
1,57,91,92
1,65,94,4
1,60,94,4
1,60,89,92
1,57,85,4
1,65,90,0
1,57,80,84
1,72,102,104
1,60,93,4
1,65,96,4
1,57,89,4
1,71,93,60
1,69,90,32
1,67,88,24
1,60,91,152
1,64,94,4
1,67,90,0
1,60,90,144
1,64,91,4
1,67,88,0
1,60,90,16
1,64,94,4
1,67,89,0
1,60,90,104
1,67,94,4
1,64,94,4
1,60,95,108
1,57,91,4
1,57,91,128
1,60,98,4
1,60,93,68
1,69,96,0
1,57,90,12
1,60,93,76
1,69,95,4
1,57,85,4
1,60,94,80
1,69,94,4
1,57,93,8
1,57,69,28
1,60,93,60
1,57,88,0
1,69,94,4
1,60,91,52
1,69,95,4
1,57,87,4
1,57,69,92
1,60,95,88
1,57,89,4
1,69,95,0
1,57,82,84
1,60,99,3220
1,53,94,4
1,65,98,4
1,53,94,132
1,60,94,176
1,60,96,136
1,65,96,4
1,72,95,36
1,69,90,0
1,76,93,0
1,60,102,1932
1,53,96,4
1,65,96,4
1,65,99,728
1,60,96,72
1,72,95,12
1,69,90,0
1,76,93,0
1,60,99,1932
1,65,98,4
1,53,96,4
1,53,94,472
1,60,98,180
1,65,96,24
1,72,95,24
1,69,90,0
1,76,93,0
1,60,99,1928
1,53,96,4
1,65,98,0
1,53,94,72
1,60,98,176
1,67,84,2920
1,72,93,160
1,76,96,0
1,57,102,16
1,69,90,0
1,72,96,4
1,76,94,0
1,53,99,644
1,65,99,384
1,77,99,172
1,79,95,60
1,60,98,0
1,59,94,192
1,60,98,88
1,81,95,4
1,83,95,224
1,60,91,48
1,57,93,0
1,57,102,0
1,84,99,4
1,62,95,104
1,59,94,0
1,76,91,12
1,69,85,4
1,72,91,0
1,64,93,188
1,60,91,4
1,62,91,108
1,59,91,4
1,60,91,112
1,57,91,4
1,59,91,44
1,55,95,0
1,57,98,0
1,52,90,4
1,65,74,304
1,69,91,36
1,57,95,16
1,53,88,0
1,72,85,12
1,55,90,108
1,59,91,0
1,60,98,220
1,57,91,4
1,59,94,124
1,55,89,4
1,59,98,124
1,55,90,4
1,57,98,188
1,53,88,4
1,64,95,84
1,60,90,4
1,69,91,0
1,60,93,136
1,69,93,0
1,64,93,0
1,64,95,140
1,67,91,4
1,60,91,4
1,60,90,568
1,64,93,4
1,67,89,4
1,67,91,188
1,64,93,0
1,60,90,256
1,64,96,0
1,67,93,4
1,60,87,244
1,64,91,0
1,67,89,4
1,60,96,28
1,57,93,4
1,57,91,92
1,65,94,4
1,60,94,4
1,60,89,92
1,57,85,4
1,65,90,0
1,57,80,84
1,72,102,104
1,60,93,4
1,65,96,4
1,57,89,4
1,71,93,60
1,69,90,32
1,67,88,24
1,60,91,152
1,64,94,4
1,67,90,0
1,60,90,144
1,64,91,4
1,67,88,0
1,60,90,16
1,64,94,4
1,67,89,0
1,60,90,104
1,67,94,4
1,64,94,4
1,60,95,108
1,57,91,4
1,57,91,128
1,60,98,4
1,60,93,68
1,69,96,0
1,57,90,12
1,60,93,76
1,69,95,4
1,57,85,4
1,60,94,80
1,69,94,4
1,57,93,8
1,57,69,28
1,60,93,60
1,57,88,0
1,69,94,4
1,60,91,52
1,69,95,4
1,57,87,4
1,57,69,92
1,60,95,88
1,57,89,4
1,69,95,0
1,57,82,84
1,47,52,1364
1,48,52,48
1,45,52,36
1,43,52,152
1,60,99,1528
1,53,94,4
1,65,98,4
1,53,94,132
1,60,94,176
1,60,96,136
1,65,96,4
1,72,95,36
1,69,90,0
1,76,93,0
1,60,102,1932
1,53,96,4
1,65,96,4
1,65,99,728
1,60,96,72
1,72,95,12
1,69,90,0
1,76,93,0
1,60,99,1944
1,53,94,4
1,65,98,4
1,53,94,132
1,60,94,176
1,60,96,136
1,65,96,4
1,72,95,36
1,69,90,0
1,76,93,0
1,60,102,1932
1,53,96,4
1,65,96,4
1,65,99,728
1,60,96,72
1,72,95,12
1,69,90,0
1,76,93,0
1,60,99,1944
1,53,94,4
1,65,98,4
1,53,94,132
1,60,94,176
1,60,96,136
1,65,96,4
1,72,95,36
1,69,90,0
1,76,93,0
1,60,102,1932
1,53,96,4
1,65,96,4
1,65,99,728
1,60,96,72
1,72,95,12
1,69,90,0
1,76,93,0
1,60,99,1944
1,53,94,4
1,65,98,4
1,53,94,132
1,60,94,176
1,60,96,136
1,65,96,4
1,72,95,36
1,69,90,0
1,76,93,0
1,60,102,1932
1,53,96,4
1,65,96,4
1,65,99,728
1,60,96,72
1,72,95,12
1,69,90,0
1,76,93,0
1,60,99,1944
1,53,94,4
1,65,98,4
1,53,94,132
1,60,94,176
1,60,96,136
1,65,96,4
1,72,95,36
1,69,90,0
1,76,93,0
1,60,102,1932
1,53,96,4
1,65,96,4
1,65,99,728
1,60,96,72
1,72,95,12
1,69,90,0
1,76,93,0
1,60,99,1944
1,53,94,4
1,65,98,4
1,53,94,132
1,60,94,176
1,60,96,136
1,65,96,4
1,72,95,36
1,69,90,0
1,76,93,0
1,60,102,304
1,53,96,4
1,65,96,4
1,65,99,28
1,60,96,72
1,72,95,12
1,69,90,0
1,76,93,0
1,60,99,48
1,53,94,4
1,65,98,4
1,53,94,48
1,60,94,4
1,60,96,20
1,65,96,4
1,72,95,24
1,69,90,0
1,76,93,0
1,60,102,1392
1,53,96,4
1,65,96,4
1,65,99,728
1,60,96,72
1,72,95,12
1,69,90,0
1,76,93,0
2,33,96,1536
2,33,94,196
2,33,96,212
2,33,96,184
2,33,93,180
2,33,96,172
2,33,94,180
2,33,98,164
2,35,98,20
2,29,96,48
2,29,95,196
2,29,91,184
2,29,94,180
2,29,90,180
2,29,90,172
2,29,93,176
2,29,94,228
2,36,91,32
2,33,98,32
2,33,96,180
2,33,94,196
2,33,96,204
2,35,94,64
2,33,90,28
2,35,91,52
2,33,95,56
2,33,93,168
2,33,98,188
2,29,99,140
2,29,93,188
2,29,96,184
2,29,94,144
2,29,94,148
2,29,91,156
2,29,87,152
2,36,90,8
2,29,89,24
2,33,96,244
2,33,94,196
2,33,96,212
2,33,96,184
2,33,93,180
2,33,96,172
2,33,94,180
2,33,98,164
2,35,98,20
2,29,96,48
2,29,95,196
2,29,91,184
2,29,94,180
2,29,90,180
2,29,90,172
2,29,93,176
2,29,94,228
2,36,91,32
2,33,98,32
2,33,96,180
2,33,94,196
2,33,96,204
2,35,94,64
2,33,90,28
2,35,91,52
2,33,95,56
2,33,93,168
2,33,98,188
2,29,99,140
2,29,93,188
2,29,96,184
2,29,94,144
2,29,94,148
2,29,91,156
2,29,87,152
2,36,90,8
2,29,89,24
2,36,93,224
2,36,98,20
2,40,96,52
2,43,90,56
2,36,91,40
2,40,91,184
2,36,98,20
2,40,96,56
2,36,95,24
2,38,98,60
2,40,94,20
2,29,102,8
2,33,102,48
2,29,95,16
2,36,99,32
2,41,94,28
2,29,98,16
2,33,99,32
2,36,99,40
2,33,93,8
2,36,102,52
2,41,95,20
2,36,98,72
2,40,98,76
2,36,93,16
2,38,93,52
2,40,95,188
2,36,96,8
2,40,99,12
2,43,93,44
2,36,90,32
2,40,87,176
2,29,102,84
2,33,96,32
2,36,95,48
2,41,96,4
2,33,96,12
2,29,102,204
2,33,96,32
2,36,98,32
2,36,93,60
2,41,96,4
2,33,96,60
2,33,94,196
2,33,96,212
2,33,96,184
2,33,93,180
2,33,96,172
2,33,94,180
2,33,98,164
2,35,98,20
2,29,96,48
2,29,95,196
2,29,91,184
2,29,94,180
2,29,90,180
2,29,90,172
2,29,93,176
2,29,94,228
2,36,91,32
2,33,98,32
2,33,96,180
2,33,94,196
2,33,96,204
2,35,94,64
2,33,90,28
2,35,91,52
2,33,95,56
2,33,93,168
2,33,98,188
2,29,99,140
2,29,93,188
2,29,96,184
2,29,94,144
2,29,94,148
2,29,91,156
2,29,87,152
2,36,90,8
2,29,89,24
2,36,93,224
2,36,98,20
2,40,96,52
2,43,90,56
2,36,91,40
2,40,91,184
2,36,98,20
2,40,96,56
2,36,95,24
2,38,98,60
2,40,94,20
2,29,102,8
2,33,102,48
2,29,95,16
2,36,99,32
2,41,94,28
2,29,98,16
2,33,99,32
2,36,99,40
2,33,93,8
2,36,102,52
2,41,95,20
2,36,98,72
2,40,98,76
2,36,93,16
2,38,93,52
2,40,95,188
2,36,96,8
2,40,99,12
2,43,93,44
2,36,90,32
2,40,87,176
2,29,102,84
2,33,96,32
2,36,95,48
2,41,96,4
2,33,96,12
2,29,102,204
2,33,96,32
2,36,98,32
2,36,93,60
2,41,96,4
2,29,102,68
2,33,96,32
2,36,95,48
2,41,96,4
2,33,96,12
2,29,102,204
2,33,96,32
2,36,98,32
2,36,93,60
2,41,96,4
2,33,98,64
2,33,102,116
2,40,93,44
2,40,93,100
2,45,90,68
2,45,93,112
2,43,94,28
2,40,91,20
2,33,98,32
2,33,99,108
2,36,96,52
2,40,96,60
2,36,94,44
2,33,90,24
2,36,93,68
2,40,102,28
2,29,103,24
2,29,96,76
2,36,102,32
2,41,99,28
2,36,96,40
2,33,95,36
2,29,102,12
2,29,98,108
2,33,96,32
2,33,98,100
2,36,99,56
2,36,95,112
2,41,95,24
2,36,94,192
2,33,96,56
2,33,96,92
2,40,96,56
2,40,89,108
2,45,94,56
2,45,98,100
2,43,95,192
2,40,94,0
2,33,96,8
2,33,90,96
2,40,96,72
2,40,94,116
2,43,93,52
2,40,94,0
2,36,99,104
2,40,98,40
2,29,102,52
2,29,93,108
2,36,98,52
2,41,96,28
2,36,98,24
2,29,102,72
2,29,95,116
2,33,102,64
2,36,98,384
2,33,95,168
2,36,95,24
2,33,57,0
2,41,94,20
2,33,98,68
2,33,98,92
2,40,96,64
2,40,93,108
2,45,95,56
2,45,91,112
2,43,93,192
2,40,91,144
2,33,94,20
2,33,99,104
2,36,98,192
2,40,91,48
2,36,93,4
2,33,95,28
2,36,102,40
2,40,96,20
2,29,98,24
2,29,94,120
2,36,102,48
2,41,99,4
2,36,93,40
2,33,95,0
2,29,96,20
2,29,90,116
2,33,102,64
2,36,98,388
2,41,95,360
2,36,90,176
2,33,98,64
2,33,96,96
2,40,96,60
2,40,89,108
2,45,95,80
2,45,98,112
2,43,96,188
2,40,95,0
2,33,98,44
2,33,102,100
2,36,98,196
2,40,90,64
2,36,96,52
2,33,95,24
2,40,98,52
2,33,96,0
2,29,98,52
2,36,102,60
2,33,96,28
2,36,98,40
2,41,96,28
2,29,98,56
2,29,95,120
2,36,99,80
2,41,98,28
2,36,99,0
2,29,96,168
2,29,95,108
2,33,98,64
2,33,94,116
2,36,95,92
2,36,98,140
2,33,102,44
2,36,98,180
2,41,96,1404
2,33,96,60
2,33,94,196
2,33,96,212
2,33,96,184
2,33,93,180
2,33,96,172
2,33,94,180
2,33,98,164
2,35,98,20
2,29,96,48
2,29,95,196
2,29,91,184
2,29,94,180
2,29,90,180
2,29,90,172
2,29,93,176
2,29,94,228
2,36,91,32
2,33,98,32
2,33,96,180
2,33,94,196
2,33,96,204
2,35,94,64
2,33,90,28
2,35,91,52
2,33,95,56
2,33,93,168
2,33,98,188
2,29,99,140
2,29,93,188
2,29,96,184
2,29,94,144
2,29,94,148
2,29,91,156
2,29,87,152
2,36,90,8
2,29,89,24
2,36,93,224
2,36,98,20
2,40,96,52
2,43,90,56
2,36,91,40
2,40,91,184
2,36,98,20
2,40,96,56
2,36,95,24
2,38,98,60
2,40,94,20
2,29,102,8
2,33,102,48
2,29,95,16
2,36,99,32
2,41,94,28
2,29,98,16
2,33,99,32
2,36,99,40
2,33,93,8
2,36,102,52
2,41,95,20
2,36,98,72
2,40,98,76
2,36,93,16
2,38,93,52
2,40,95,188
2,36,96,8
2,40,99,12
2,43,93,44
2,36,90,32
2,40,87,176
2,29,102,84
2,33,96,32
2,36,95,48
2,41,96,4
2,33,96,12
2,29,102,204
2,33,96,32
2,36,98,32
2,36,93,60
2,41,96,4
2,29,102,68
2,33,96,32
2,36,95,48
2,41,96,4
2,33,96,12
2,29,102,204
2,33,96,32
2,36,98,32
2,36,93,60
2,41,96,4
2,33,98,64
2,33,102,116
2,40,93,44
2,40,93,100
2,45,90,68
2,45,93,112
2,43,94,28
2,40,91,20
2,33,98,32
2,33,99,108
2,36,96,52
2,40,96,60
2,36,94,44
2,33,90,24
2,36,93,68
2,40,102,28
2,29,103,24
2,29,96,76
2,36,102,32
2,41,99,28
2,36,96,40
2,33,95,36
2,29,102,12
2,29,98,108
2,33,96,32
2,33,98,100
2,36,99,56
2,36,95,112
2,41,95,24
2,36,94,192
2,33,96,56
2,33,96,92
2,40,96,56
2,40,89,108
2,45,94,56
2,45,98,100
2,43,95,192
2,40,94,0
2,33,96,8
2,33,90,96
2,40,96,72
2,40,94,116
2,43,93,52
2,40,94,0
2,36,99,104
2,40,98,40
2,29,102,52
2,29,93,108
2,36,98,52
2,41,96,28
2,36,98,24
2,29,102,72
2,29,95,116
2,33,102,64
2,36,98,384
2,33,95,168
2,36,95,24
2,33,57,0
2,41,94,20
2,33,98,64
2,33,102,116
2,40,93,44
2,40,93,100
2,45,90,68
2,45,93,112
2,43,94,28
2,40,91,20
2,33,98,32
2,33,99,108
2,36,96,52
2,40,96,60
2,36,94,44
2,33,90,24
2,36,93,68
2,40,102,28
2,29,103,24
2,29,96,76
2,36,102,32
2,41,99,28
2,36,96,40
2,33,95,36
2,29,102,12
2,29,98,108
2,33,96,32
2,33,98,100
2,36,99,56
2,36,95,112
2,41,95,24
2,36,94,192
2,33,96,56
2,33,96,92
2,40,96,56
2,40,89,108
2,45,94,56
2,45,98,100
