track,note,velocity,time
3,63,60,1799
3,63,0,20
3,67,66,3
3,70,68,24
3,67,0,2
3,70,0,34
3,70,67,13
3,70,0,86
3,70,73,11
3,70,0,19
3,65,73,4
3,65,0,15
3,65,68,9
3,63,69,24
3,65,0,1
3,63,0,75
3,67,72,428
3,67,0,13
3,70,96,13
3,70,0,40
3,70,82,6
3,70,0,20
3,70,78,6
3,70,0,39
3,70,82,9
3,70,0,16
3,70,76,8
3,70,0,16
3,70,101,8
3,70,0,24
3,65,78,0
3,65,0,36
3,65,87,10
3,63,78,24
3,65,0,4
3,63,0,73
3,72,99,237
3,70,73,25
3,72,0,5
3,74,101,43
3,70,0,2
3,74,0,107
3,75,87,7
3,74,94,48
3,75,0,3
3,72,86,22
3,74,0,3
3,70,80,44
3,72,0,2
3,67,77,71
3,70,0,7
3,65,67,17
3,67,0,3
3,74,94,21
3,65,0,3
3,72,82,141
3,74,0,5
3,70,84,21
3,72,0,8
3,70,0,39
3,67,75,1
3,65,84,48
3,67,0,2
3,65,0,72
3,65,101,44
3,65,0,17
3,65,72,7
3,72,88,24
3,65,0,5
3,72,0,90
3,70,112,1
3,70,0,96
3,65,88,0
3,62,80,96
3,65,0,1
3,62,0,47
3,67,86,0
3,67,0,107
3,72,113,228
3,70,76,97
3,72,0,4
3,70,0,11
3,70,73,9
3,70,0,35
3,70,94,12
3,70,0,35
3,70,86,14
3,70,0,22
3,72,88,2
3,72,0,64
3,65,91,7
3,65,0,23
3,62,60,2
3,62,0,60
3,63,74,12
3,63,0,91
3,72,91,197
3,72,0,43
3,74,72,4
3,70,71,25
3,74,0,6
3,70,0,82
3,70,94,10
3,70,0,12
3,70,71,11
3,70,0,24
3,72,88,0
3,72,0,72
3,70,87,0
3,70,0,92
3,65,75,2
3,65,0,40
3,65,75,7
3,63,66,25
3,65,0,1
3,63,0,102
3,72,96,210
3,72,0,24
3,70,67,0
3,70,0,49
3,74,86,1
3,74,0,114
3,75,94,4
3,74,73,25
3,75,0,3
3,74,0,38
3,74,101,6
3,72,76,24
3,74,0,2
3,72,0,46
3,70,70,0
3,70,0,94
3,77,87,2
3,74,101,97
3,77,0,6
3,74,0,90
3,75,91,0
3,74,88,25
3,75,0,5
3,70,73,19
3,74,0,2
3,70,0,73
3,72,99,21
3,72,0,22
3,70,78,0
3,74,75,73
3,70,0,1
3,74,0,88
3,75,96,5
3,74,78,25
3,75,0,5
3,74,0,40
3,74,109,3
3,72,91,24
3,74,0,1
3,70,80,47
3,72,0,4
3,70,0,90
3,77,88,2
3,74,101,99
3,77,0,5
3,74,0,84
3,75,86,4
3,74,87,24
3,75,0,4
3,74,0,22
3,70,84,0
3,67,84,94
3,70,0,1
3,65,91,23
3,67,0,5
3,70,105,68
3,65,0,3
3,70,0,140
3,72,99,0
3,70,99,48
3,72,0,4
3,70,0,94
3,65,77,0
3,63,65,94
3,65,0,4
3,63,0,92
3,70,99,408
3,65,91,100
3,70,0,7
3,63,69,89
3,65,0,4
3,63,0,106
3,67,65,178
3,67,0,44
3,67,77,4
3,67,0,94
3,65,78,0
3,65,0,65
3,65,68,9
3,65,0,23
3,72,74,1
3,72,0,90
3,70,69,5
3,70,0,86
3,75,82,12
3,75,0,86
3,74,75,9
3,74,0,129
3,72,91,13
3,72,0,23
3,70,64,2
3,70,0,83
3,75,94,38
3,75,0,93
3,74,94,3
3,74,0,91
3,70,99,5
3,70,0,89
3,65,85,7
3,65,0,18
3,65,86,6
3,65,0,67
3,67,79,6
3,67,0,128
3,67,70,205
3,67,0,35
3,67,77,12
3,65,80,97
3,67,0,3
3,65,0,61
3,65,80,8
3,65,0,18
3,72,80,6
3,70,115,96
3,72,0,2
3,70,0,35
3,67,91,10
3,67,0,21
3,70,101,4
3,70,0,28
3,75,113,45
3,75,0,62
3,77,96,9
3,74,96,49
3,77,0,6
3,74,0,54
3,74,112,11
3,72,101,48
3,74,0,5
3,70,96,19
3,72,0,4
3,70,0,61
3,70,77,7
3,70,0,26
3,75,105,0
3,75,0,106
3,74,112,12
3,74,0,14
3,74,82,10
3,74,0,26
3,70,88,0
3,70,0,93
3,65,88,2
3,65,0,90
3,67,101,5
3,67,0,146
3,67,88,3262
3,67,0,43
3,67,84,7
3,67,0,92
3,65,78,2
3,65,0,64
3,65,71,8
3,65,0,25
3,72,94,0
3,72,0,95
3,70,91,0
3,70,0,48
3,75,94,48
3,75,0,97
3,74,101,1
3,74,0,129
3,72,113,13
3,70,82,24
3,72,0,1
3,70,0,116
3,75,101,6
3,75,0,93
3,74,99,3
3,74,0,91
3,70,109,5
3,70,0,87
3,65,94,6
3,65,0,20
3,65,78,6
3,65,0,67
3,67,94,5
3,67,0,166
3,67,88,170
3,67,0,37
3,67,78,9
3,67,0,92
3,65,86,3
3,65,0,69
3,65,73,7
3,65,0,15
3,72,86,8
3,72,0,88
3,70,101,6
3,70,0,44
3,67,84,4
3,67,0,26
3,70,88,0
3,70,0,28
3,75,101,43
3,75,0,63
3,77,105,8
3,74,86,50
3,77,0,4
3,74,0,52
3,74,94,14
3,72,91,47
3,74,0,2
3,70,82,23
3,72,0,1
3,70,0,60
3,70,68,11
3,70,0,25
3,75,109,1
3,75,0,109
3,74,101,9
3,74,0,17
3,74,91,7
3,70,96,26
3,74,0,2
3,70,0,94
3,65,78,0
3,65,0,92
3,67,76,3
3,67,0,138
3,74,109,197
3,74,0,48
3,75,105,2
3,75,0,143
3,74,96,1
3,74,0,16
3,74,86,8
3,70,113,24
3,74,0,5
3,70,0,89
3,65,91,2
3,65,0,96
3,67,99,0
3,67,0,155
3,72,82,181
3,70,74,96
3,72,0,5
3,70,0,69
3,70,80,20
3,70,0,21
3,70,70,3
3,70,0,68
3,70,73,5
3,70,0,93
3,65,63,2
3,65,0,14
3,65,61,10
3,65,0,24
3,63,62,0
3,63,0,62
3,72,94,275
3,70,109,96
3,72,0,2
3,70,0,79
3,70,68,13
3,70,0,37
3,70,77,11
3,70,0,18
3,70,71,6
3,70,0,36
3,70,96,13
3,70,0,12
3,70,68,11
3,65,75,48
3,70,0,4
3,65,0,37
3,65,84,7
3,63,68,25
3,65,0,1
3,63,0,66
3,70,87,221
3,70,0,17
3,72,101,6
3,70,94,25
3,72,0,1
3,70,0,43
3,74,96,4
3,74,0,113
3,75,96,7
3,75,0,42
3,74,109,6
3,74,0,19
3,72,88,5
3,72,0,48
3,70,82,0
3,67,84,71
3,70,0,4
3,65,82,21
3,67,0,1
3,65,0,23
3,74,88,0
3,74,0,100
3,72,99,45
3,70,91,25
3,72,0,5
3,70,0,33
3,67,84,9
3,65,80,48
3,67,0,2
3,65,0,68
3,65,91,49
3,65,0,17
3,65,77,9
3,65,0,22
3,72,91,1
3,72,0,92
3,70,84,4
3,62,74,97
3,70,0,6
3,62,0,11
3,62,70,8
3,62,0,70
3,67,91,49
3,67,0,81
3,70,96,229
3,70,0,18
3,72,109,6
3,70,101,26
3,72,0,2
3,70,0,33
3,74,112,11
3,74,0,113
3,75,99,7
3,75,0,45
3,74,118,4
3,72,96,25
3,74,0,9
3,72,0,32
3,70,87,7
3,70,0,54
3,67,94,16
3,67,0,24
3,65,96,0
3,65,0,17
3,77,101,7
3,74,113,145
3,77,0,3
3,74,0,17
3,72,99,4
3,72,0,47
3,74,99,2
3,74,0,24
3,72,80,1
3,70,94,21
3,72,0,3
3,70,0,176
3,65,64,133
3,65,0,18
3,65,63,7
3,72,82,25
3,65,0,2
3,70,77,93
3,72,0,1
3,70,0,95
3,62,65,0
3,62,0,17
3,62,75,8
3,62,0,109
3,67,69,9
3,67,0,121
3,74,94,72
3,74,0,91
3,77,101,6
3,77,0,106
3,77,71,15
3,77,0,14
3,79,96,9
3,79,0,85
3,77,109,9
3,77,0,86
3,72,87,10
3,70,68,49
3,72,0,2
3,70,0,69
3,67,65,26
3,67,0,240
4,51,95,192
4,67,80,0
4,55,82,48
4,58,72,24
4,67,76,0
4,55,0,23
4,51,0,10
4,51,51,15
4,58,0,1
4,67,0,19
4,55,80,4
4,51,0,34
4,55,0,14
4,50,91,0
4,65,76,0
4,67,0,12
4,53,58,36
4,58,72,24
4,65,75,0
4,53,0,26
4,50,0,0
4,50,84,22
4,58,0,4
4,53,80,20
4,65,0,34
4,53,0,9
4,50,0,1
4,48,88,4
4,63,64,0
4,65,0,11
4,51,66,37
4,55,86,24
4,63,56,0
4,48,0,38
4,48,86,10
4,55,0,3
4,51,0,12
4,51,82,9
4,48,0,44
4,51,0,1
4,50,96,3
4,63,0,2
4,63,0,28
4,53,71,18
4,58,87,24
4,65,76,0
4,65,83,24
4,50,0,3
4,53,0,18
4,50,82,3
4,58,0,7
4,53,78,17
4,50,0,37
4,53,0,7
4,65,0,3
4,51,91,1
4,67,72,0
4,65,0,7
4,55,80,41
4,58,82,24
4,67,74,0
4,51,0,28
4,55,0,11
4,51,76,9
4,58,0,16
4,55,82,8
4,51,0,31
4,67,0,2
4,55,0,15
4,50,101,0
4,65,76,0
4,67,0,7
4,53,71,41
4,58,82,24
4,65,76,0
4,50,0,23
4,53,0,4
4,50,84,21
4,58,0,11
4,53,65,13
4,65,0,22
4,53,0,19
4,50,0,1
4,65,0,4
4,48,96,2
4,63,56,0
4,51,66,48
4,55,82,24
4,63,61,0
4,48,0,36
4,48,64,12
4,55,0,6
4,51,0,2
4,51,66,16
4,63,0,34
4,48,0,9
4,51,0,3
4,50,88,2
4,53,68,48
4,58,72,24
4,65,72,0
4,63,0,3
4,65,76,21
4,50,0,14
4,50,64,10
4,53,0,20
4,53,64,4
4,65,0,30
4,65,0,17
4,51,95,1
4,67,76,0
4,50,0,4
4,53,0,2
4,58,0,3
4,55,82,39
4,58,72,24
4,67,76,0
4,55,0,23
4,51,0,10
4,51,51,15
4,58,0,1
4,55,80,23
4,51,0,34
4,67,0,5
4,55,0,9
4,50,91,0
4,65,65,0
4,67,0,12
4,53,58,36
4,58,72,24
4,65,75,0
4,53,0,26
4,50,0,0
4,50,84,22
4,58,0,4
4,53,80,20
4,65,0,25
4,53,0,18
4,50,0,1
4,48,88,4
4,63,58,0
4,65,0,11
4,51,66,37
4,55,86,24
4,63,56,0
4,48,0,38
4,48,86,10
4,55,0,3
4,51,0,12
4,51,82,9
4,48,0,44
4,51,0,1
4,50,96,3
4,63,0,2
4,63,0,29
4,53,71,17
4,58,87,24
4,65,76,0
4,65,72,24
4,50,0,3
4,53,0,18
4,50,82,3
4,58,0,7
4,53,78,17
4,50,0,37
4,53,0,7
4,51,91,4
4,67,70,0
4,65,0,4
4,65,0,3
4,55,80,41
4,58,82,24
4,67,74,0
4,51,0,28
4,55,0,11
4,51,76,9
4,58,0,16
4,55,82,8
4,51,0,31
4,67,0,10
4,55,0,7
4,50,101,0
4,65,65,0
4,67,0,7
4,53,71,41
4,58,82,24
4,65,76,0
4,50,0,23
4,53,0,4
4,50,84,21
4,58,0,11
4,53,65,13
4,65,0,9
4,53,0,32
4,50,0,1
4,65,0,4
4,48,96,2
4,63,56,0
4,51,66,48
4,55,82,24
4,63,61,0
4,48,0,36
4,48,64,12
4,55,0,6
4,51,0,2
4,51,66,16
4,63,0,34
4,48,0,9
4,51,0,3
4,50,88,2
4,53,68,48
4,63,0,4
4,58,72,20
4,65,72,0
4,65,74,24
4,50,0,14
4,50,64,10
4,53,0,20
4,53,64,4
4,65,0,30
4,65,0,12
4,51,95,6
4,50,0,4
4,53,0,2
4,58,0,3
4,55,82,39
4,58,72,24
4,67,76,0
4,55,0,23
4,51,0,10
4,51,51,15
4,58,0,1
4,55,80,23
4,51,0,34
4,55,0,14
4,50,91,0
4,67,0,12
4,53,58,36
4,58,72,24
4,65,75,0
4,53,0,26
4,50,0,0
4,50,84,22
4,58,0,4
4,53,80,20
4,53,0,43
4,50,0,1
4,48,88,4
4,65,0,11
4,51,66,37
4,55,86,24
4,63,56,0
4,48,0,38
4,48,86,10
4,55,0,3
4,51,0,12
4,51,82,9
4,48,0,44
4,51,0,1
4,50,96,3
4,63,0,2
4,53,71,46
4,58,87,24
4,65,76,0
4,50,0,27
4,53,0,18
4,50,82,3
4,58,0,7
4,53,78,17
4,50,0,37
4,53,0,7
4,51,91,4
4,65,0,7
4,55,80,41
4,58,82,24
4,67,74,0
4,51,0,28
4,55,0,11
4,51,76,9
4,58,0,16
4,55,82,8
4,51,0,31
4,55,0,17
4,50,101,0
4,67,0,7
4,53,71,41
4,58,82,24
4,65,76,0
4,50,0,23
4,53,0,4
4,50,84,21
4,58,0,11
4,53,65,13
4,53,0,41
4,50,0,1
4,65,0,4
4,48,96,2
4,51,66,48
4,55,82,24
4,63,61,0
4,48,0,36
4,48,64,12
4,55,0,6
4,51,0,2
4,51,66,16
4,63,0,34
4,48,0,9
4,51,0,3
4,48,95,0
4,70,87,3
4,51,66,44
4,55,74,24
4,50,95,24
4,65,74,5
4,48,0,4
4,51,0,1
4,55,0,7
4,53,70,30
4,57,88,23
4,51,94,25
4,50,0,1
4,65,0,6
4,70,0,1
4,53,0,2
4,57,0,10
4,55,82,32
4,58,72,24
4,67,76,0
4,55,0,23
4,51,0,13
4,51,51,12
4,58,0,1
4,55,80,23
4,51,0,34
4,55,0,14
4,50,91,0
4,65,76,0
4,67,0,12
4,53,58,36
4,58,72,24
4,65,75,0
4,53,0,26
4,50,0,0
4,50,84,22
4,58,0,4
4,53,80,20
4,65,0,34
4,53,0,9
4,50,0,1
4,48,88,4
4,63,64,0
4,65,0,11
4,51,66,37
4,55,86,24
4,63,56,0
4,48,0,38
4,48,86,10
4,55,0,3
4,51,0,12
4,51,82,9
4,48,0,44
4,51,0,1
4,50,96,3
4,63,0,2
4,63,0,28
4,53,71,18
4,58,87,24
4,65,76,0
4,65,83,24
4,50,0,3
4,53,0,18
4,50,82,3
4,58,0,7
4,53,78,17
4,50,0,37
4,53,0,7
4,65,0,3
4,51,91,1
4,67,72,0
4,65,0,7
4,55,80,41
4,58,82,24
4,67,74,0
4,51,0,28
4,55,0,11
4,51,76,9
4,58,0,16
4,55,82,8
4,51,0,31
4,67,0,2
4,55,0,15
4,50,101,0
4,65,76,0
4,67,0,7
4,53,71,41
4,58,82,24
4,65,76,0
4,50,0,23
4,53,0,4
4,50,84,21
4,58,0,11
4,53,65,13
4,65,0,22
4,53,0,19
4,50,0,1
4,65,0,4
4,48,96,2
4,63,56,0
4,51,66,48
4,55,82,24
4,63,61,0
4,48,0,36
4,48,64,12
4,55,0,6
4,51,0,2
4,51,66,16
4,63,0,34
4,48,0,9
4,51,0,3
4,50,88,2
4,53,68,48
4,58,72,24
4,65,72,0
4,63,0,3
4,65,76,21
4,50,0,14
4,50,64,10
4,53,0,20
4,53,64,4
4,65,0,30
4,65,0,17
4,51,95,1
4,67,76,0
4,50,0,4
4,53,0,2
4,58,0,3
4,55,82,39
4,58,72,24
4,67,76,0
4,55,0,23
4,51,0,10
4,51,51,15
4,58,0,1
4,55,80,23
4,51,0,34
4,67,0,5
4,55,0,9
4,50,91,0
4,65,65,0
4,67,0,12
4,53,58,36
4,58,72,24
4,65,75,0
4,53,0,26
4,50,0,0
4,50,84,22
4,58,0,4
4,53,80,20
4,65,0,25
4,53,0,18
4,50,0,1
4,48,88,4
4,63,58,0
4,65,0,11
4,51,66,37
4,55,86,24
4,63,56,0
4,48,0,38
4,48,86,10
4,55,0,3
4,51,0,12
4,51,82,9
4,48,0,44
4,51,0,1
4,50,96,3
4,63,0,2
4,63,0,29
4,53,71,17
4,58,87,24
4,65,76,0
4,65,72,24
4,50,0,3
4,53,0,18
4,50,82,3
4,58,0,7
4,53,78,17
4,50,0,37
4,53,0,7
4,51,91,4
4,67,70,0
4,65,0,4
4,65,0,3
4,55,80,41
4,58,82,24
4,67,74,0
4,51,0,28
4,55,0,11
4,51,76,9
4,58,0,16
4,55,82,8
4,51,0,31
4,67,0,10
4,55,0,7
4,50,101,0
4,65,65,0
4,67,0,7
4,53,71,41
4,58,82,24
