track,note,velocity,time
3,63,59,1799
3,63,0,20
3,67,65,3
3,70,67,24
3,67,0,2
3,70,0,34
3,70,66,13
3,70,0,86
3,70,72,11
3,70,0,19
3,65,72,4
3,65,0,15
3,65,67,9
3,63,68,24
3,65,0,1
3,63,0,75
3,67,71,428
3,67,0,13
3,70,95,13
3,70,0,40
3,70,81,6
3,70,0,20
3,70,77,6
3,70,0,39
3,70,81,9
3,70,0,16
3,70,75,8
3,70,0,16
3,70,100,8
3,65,77,24
3,70,0,0
3,65,0,36
3,65,86,10
3,63,77,24
3,65,0,4
3,63,0,73
3,72,98,237
3,70,72,25
3,72,0,5
3,74,100,43
3,70,0,2
3,74,0,107
3,75,86,7
3,74,93,48
3,75,0,3
3,72,85,22
3,74,0,3
3,70,79,44
3,72,0,2
3,67,76,71
3,70,0,7
3,65,66,17
3,67,0,3
3,74,93,21
3,65,0,3
3,72,81,141
3,74,0,5
3,70,83,21
3,72,0,8
3,70,0,39
3,67,74,1
3,65,83,48
3,67,0,2
3,65,0,72
3,65,100,44
3,65,0,17
3,65,71,7
3,72,87,24
3,65,0,5
3,72,0,90
3,70,111,1
3,65,87,96
3,70,0,0
3,62,79,96
3,65,0,1
3,67,85,47
3,62,0,0
3,67,0,107
3,72,112,228
3,70,75,97
3,72,0,4
3,70,0,11
3,70,72,9
3,70,0,35
3,70,93,12
3,70,0,35
3,70,85,14
3,70,0,22
3,72,87,2
3,72,0,64
3,65,90,7
3,65,0,23
3,62,59,2
3,62,0,60
3,63,73,12
3,63,0,91
3,72,90,197
3,72,0,43
3,74,71,4
3,70,70,25
3,74,0,6
3,70,0,82
3,70,93,10
3,70,0,12
3,70,70,11
3,72,87,24
3,70,0,0
3,70,86,72
3,72,0,0
3,70,0,92
3,65,74,2
3,65,0,40
3,65,74,7
3,63,65,25
3,65,0,1
3,63,0,102
3,72,95,210
3,70,66,24
3,72,0,0
3,70,0,49
3,74,85,1
3,74,0,114
3,75,93,4
3,74,72,25
3,75,0,3
3,74,0,38
3,74,100,6
3,72,75,24
3,74,0,2
3,70,69,46
3,72,0,0
3,70,0,94
3,77,86,2
3,74,100,97
3,77,0,6
3,75,90,90
3,74,0,0
3,74,87,25
3,75,0,5
3,70,72,19
3,74,0,2
3,70,0,73
3,72,98,21
3,70,77,22
3,72,0,0
3,74,74,73
3,70,0,1
3,74,0,88
3,75,95,5
3,74,77,25
3,75,0,5
3,74,0,40
3,74,108,3
3,72,90,24
3,74,0,1
3,70,79,47
3,72,0,4
3,70,0,90
3,77,87,2
3,74,100,99
3,77,0,5
3,74,0,84
3,75,85,4
3,74,86,24
3,75,0,4
3,70,83,22
3,74,0,0
3,67,83,94
3,70,0,1
3,65,90,23
3,67,0,5
3,70,104,68
3,65,0,3
3,72,98,140
3,70,0,0
3,70,98,48
3,72,0,4
3,65,76,94
3,70,0,0
3,63,64,94
3,65,0,4
3,63,0,92
3,70,98,408
3,65,90,100
3,70,0,7
3,63,68,89
3,65,0,4
3,63,0,106
3,67,64,178
3,67,0,44
3,67,76,4
3,65,77,94
3,67,0,0
3,65,0,65
3,65,67,9
3,65,0,23
3,72,73,1
3,72,0,90
3,70,68,5
3,70,0,86
3,75,81,12
3,75,0,86
3,74,74,9
3,74,0,129
3,72,90,13
3,72,0,23
3,70,63,2
3,70,0,83
3,75,93,38
3,75,0,93
3,74,93,3
3,74,0,91
3,70,98,5
3,70,0,89
3,65,84,7
3,65,0,18
3,65,85,6
3,65,0,67
3,67,78,6
3,67,0,128
3,67,69,205
3,67,0,35
3,67,76,12
3,65,79,97
3,67,0,3
3,65,0,61
3,65,79,8
3,65,0,18
3,72,79,6
3,70,114,96
3,72,0,2
3,70,0,35
3,67,90,10
3,67,0,21
3,70,100,4
3,70,0,28
3,75,112,45
3,75,0,62
3,77,95,9
3,74,95,49
3,77,0,6
3,74,0,54
3,74,111,11
3,72,100,48
3,74,0,5
3,70,95,19
3,72,0,4
3,70,0,61
3,70,76,7
3,75,104,26
3,70,0,0
3,75,0,106
3,74,111,12
3,74,0,14
3,74,81,10
3,70,87,26
3,74,0,0
3,70,0,93
3,65,87,2
3,65,0,90
3,67,100,5
3,67,0,146
3,67,87,3262
3,67,0,43
3,67,83,7
3,67,0,92
3,65,77,2
3,65,0,64
3,65,70,8
3,72,93,25
3,65,0,0
3,70,90,95
3,72,0,0
3,70,0,48
3,75,93,48
3,75,0,97
3,74,100,1
3,74,0,129
3,72,112,13
3,70,81,24
3,72,0,1
3,70,0,116
3,75,100,6
3,75,0,93
3,74,98,3
3,74,0,91
3,70,108,5
3,70,0,87
3,65,93,6
3,65,0,20
3,65,77,6
3,65,0,67
3,67,93,5
3,67,0,166
3,67,87,170
3,67,0,37
3,67,77,9
3,67,0,92
3,65,85,3
3,65,0,69
3,65,72,7
3,65,0,15
3,72,85,8
3,72,0,88
3,70,100,6
3,70,0,44
3,67,83,4
3,70,87,26
3,67,0,0
3,70,0,28
3,75,100,43
3,75,0,63
3,77,104,8
3,74,85,50
3,77,0,4
3,74,0,52
3,74,93,14
3,72,90,47
3,74,0,2
3,70,81,23
3,72,0,1
3,70,0,60
3,70,67,11
3,70,0,25
3,75,108,1
3,75,0,109
3,74,100,9
3,74,0,17
3,74,90,7
3,70,95,26
3,74,0,2
3,65,77,94
3,70,0,0
3,65,0,92
3,67,75,3
3,67,0,138
3,74,108,197
3,74,0,48
3,75,104,2
3,75,0,143
3,74,95,1
3,74,0,16
3,74,85,8
3,70,112,24
3,74,0,5
3,70,0,89
3,65,90,2
3,67,98,96
3,65,0,0
3,67,0,155
3,72,81,181
3,70,73,96
3,72,0,5
3,70,0,69
3,70,79,20
3,70,0,21
3,70,69,3
3,70,0,68
3,70,72,5
3,70,0,93
3,65,62,2
3,65,0,14
3,65,60,10
3,63,61,24
3,65,0,0
3,63,0,62
3,72,93,275
3,70,108,96
3,72,0,2
3,70,0,79
3,70,67,13
3,70,0,37
3,70,76,11
3,70,0,18
3,70,70,6
3,70,0,36
3,70,95,13
3,70,0,12
3,70,67,11
3,65,74,48
3,70,0,4
3,65,0,37
3,65,83,7
3,63,67,25
3,65,0,1
3,63,0,66
3,70,86,221
3,70,0,17
3,72,100,6
3,70,93,25
3,72,0,1
3,70,0,43
3,74,95,4
3,74,0,113
3,75,95,7
3,75,0,42
3,74,108,6
3,74,0,19
3,72,87,5
3,70,81,48
3,72,0,0
3,67,83,71
3,70,0,4
3,65,81,21
3,67,0,1
3,74,87,23
3,65,0,0
3,74,0,100
3,72,98,45
3,70,90,25
3,72,0,5
3,70,0,33
3,67,83,9
3,65,79,48
3,67,0,2
3,65,0,68
3,65,90,49
3,65,0,17
3,65,76,9
3,65,0,22
3,72,90,1
3,72,0,92
3,70,83,4
3,62,73,97
3,70,0,6
3,62,0,11
3,62,69,8
3,62,0,70
3,67,90,49
3,67,0,81
3,70,95,229
3,70,0,18
3,72,108,6
3,70,100,26
3,72,0,2
3,70,0,33
3,74,111,11
3,74,0,113
3,75,98,7
3,75,0,45
3,74,117,4
3,72,95,25
3,74,0,9
3,72,0,32
3,70,86,7
3,70,0,54
3,67,93,16
3,65,95,24
3,67,0,0
3,65,0,17
3,77,100,7
3,74,112,145
3,77,0,3
3,74,0,17
3,72,98,4
3,72,0,47
3,74,98,2
3,74,0,24
3,72,79,1
3,70,93,21
3,72,0,3
3,70,0,176
3,65,63,133
3,65,0,18
3,65,62,7
3,72,81,25
3,65,0,2
3,70,76,93
3,72,0,1
3,62,64,95
3,70,0,0
3,62,0,17
3,62,74,8
3,62,0,109
3,67,68,9
3,67,0,121
3,74,93,72
3,74,0,91
3,77,100,6
3,77,0,106
3,77,70,15
3,77,0,14
3,79,95,9
3,79,0,85
3,77,108,9
3,77,0,86
3,72,86,10
3,70,67,49
3,72,0,2
3,70,0,69
3,67,64,26
3,67,0,240
4,51,95,192
4,67,80,0
4,55,82,48
4,58,72,24
4,67,76,0
4,55,0,23
4,51,0,10
4,51,51,15
4,58,0,1
4,67,0,19
4,55,80,4
4,51,0,34
4,50,91,14
4,65,76,0
4,55,0,0
4,67,0,12
4,53,58,36
4,58,72,24
4,65,75,0
4,53,0,26
4,50,0,0
4,50,84,22
4,58,0,4
4,53,80,20
4,65,0,34
4,53,0,9
4,50,0,1
4,48,88,4
4,63,64,0
4,65,0,11
4,51,66,37
4,55,86,24
4,63,56,0
4,48,0,38
4,48,86,10
4,55,0,3
4,51,0,12
4,51,82,9
4,48,0,44
4,51,0,1
4,50,96,3
4,63,0,2
4,63,0,28
4,53,71,18
4,58,87,24
4,65,76,0
4,65,83,24
4,50,0,3
4,53,0,18
4,50,82,3
4,58,0,7
4,53,78,17
4,50,0,37
4,53,0,7
4,65,0,3
4,51,91,1
4,67,72,0
4,65,0,7
4,55,80,41
4,58,82,24
4,67,74,0
4,51,0,28
4,55,0,11
4,51,76,9
4,58,0,16
4,55,82,8
4,51,0,31
4,67,0,2
4,50,101,15
4,65,76,0
4,55,0,0
4,67,0,7
4,53,71,41
4,58,82,24
4,65,76,0
4,50,0,23
4,53,0,4
4,50,84,21
4,58,0,11
4,53,65,13
4,65,0,22
4,53,0,19
4,50,0,1
4,65,0,4
4,48,96,2
4,63,56,0
4,51,66,48
4,55,82,24
4,63,61,0
4,48,0,36
4,48,64,12
4,55,0,6
4,51,0,2
4,51,66,16
4,63,0,34
4,48,0,9
4,51,0,3
4,50,88,2
4,53,68,48
4,58,72,24
4,65,72,0
4,63,0,3
4,65,76,21
4,50,0,14
4,50,64,10
4,53,0,20
4,53,64,4
4,65,0,30
4,65,0,17
4,51,95,1
4,67,76,0
4,50,0,4
4,53,0,2
4,58,0,3
4,55,82,39
4,58,72,24
4,67,76,0
4,55,0,23
4,51,0,10
4,51,51,15
4,58,0,1
4,55,80,23
4,51,0,34
4,67,0,5
4,50,91,9
4,65,65,0
4,55,0,0
4,67,0,12
4,53,58,36
4,58,72,24
4,65,75,0
4,53,0,26
4,50,0,0
4,50,84,22
4,58,0,4
4,53,80,20
4,65,0,25
4,53,0,18
4,50,0,1
4,48,88,4
4,63,58,0
4,65,0,11
4,51,66,37
4,55,86,24
4,63,56,0
4,48,0,38
4,48,86,10
4,55,0,3
4,51,0,12
4,51,82,9
4,48,0,44
4,51,0,1
4,50,96,3
4,63,0,2
4,63,0,29
4,53,71,17
4,58,87,24
4,65,76,0
4,65,72,24
4,50,0,3
4,53,0,18
4,50,82,3
4,58,0,7
4,53,78,17
4,50,0,37
4,53,0,7
4,51,91,4
4,67,70,0
4,65,0,4
4,65,0,3
4,55,80,41
4,58,82,24
4,67,74,0
4,51,0,28
4,55,0,11
4,51,76,9
4,58,0,16
4,55,82,8
4,51,0,31
4,67,0,10
4,50,101,7
4,65,65,0
4,55,0,0
4,67,0,7
4,53,71,41
4,58,82,24
4,65,76,0
4,50,0,23
4,53,0,4
4,50,84,21
4,58,0,11
4,53,65,13
4,65,0,9
4,53,0,32
4,50,0,1
4,65,0,4
4,48,96,2
4,63,56,0
4,51,66,48
4,55,82,24
4,63,61,0
4,48,0,36
4,48,64,12
4,55,0,6
4,51,0,2
4,51,66,16
4,63,0,34
4,48,0,9
4,51,0,3
4,50,88,2
4,53,68,48
4,63,0,4
4,58,72,20
4,65,72,0
4,65,74,24
4,50,0,14
4,50,64,10
4,53,0,20
4,53,64,4
4,65,0,30
4,65,0,12
4,51,95,6
4,50,0,4
4,53,0,2
4,58,0,3
4,55,82,39
4,58,72,24
4,67,76,0
4,55,0,23
4,51,0,10
4,51,51,15
4,58,0,1
4,55,80,23
4,51,0,34
4,50,91,14
4,55,0,0
4,67,0,12
4,53,58,36
4,58,72,24
4,65,75,0
4,53,0,26
4,50,0,0
4,50,84,22
4,58,0,4
4,53,80,20
4,53,0,43
4,50,0,1
4,48,88,4
4,65,0,11
4,51,66,37
4,55,86,24
4,63,56,0
4,48,0,38
4,48,86,10
4,55,0,3
4,51,0,12
4,51,82,9
4,48,0,44
4,51,0,1
4,50,96,3
4,63,0,2
4,53,71,46
4,58,87,24
4,65,76,0
4,50,0,27
4,53,0,18
4,50,82,3
4,58,0,7
4,53,78,17
4,50,0,37
4,53,0,7
4,51,91,4
4,65,0,7
4,55,80,41
4,58,82,24
4,67,74,0
4,51,0,28
4,55,0,11
4,51,76,9
4,58,0,16
4,55,82,8
4,51,0,31
4,50,101,17
4,55,0,0
4,67,0,7
4,53,71,41
4,58,82,24
4,65,76,0
4,50,0,23
4,53,0,4
4,50,84,21
4,58,0,11
4,53,65,13
4,53,0,41
4,50,0,1
4,65,0,4
4,48,96,2
4,51,66,48
4,55,82,24
4,63,61,0
4,48,0,36
4,48,64,12
4,55,0,6
4,51,0,2
4,51,66,16
4,63,0,34
4,48,0,9
4,48,95,3
4,51,0,0
4,70,87,3
4,51,66,44
4,55,74,24
4,50,95,24
4,65,74,5
4,48,0,4
4,51,0,1
4,55,0,7
4,53,70,30
4,57,88,23
4,51,94,25
4,50,0,1
4,65,0,6
4,70,0,1
4,53,0,2
4,57,0,10
4,55,82,32
4,58,72,24
4,67,76,0
4,55,0,23
4,51,0,13
4,51,51,12
4,58,0,1
4,55,80,23
4,51,0,34
4,50,91,14
4,65,76,0
4,55,0,0
4,67,0,12
4,53,58,36
4,58,72,24
4,65,75,0
4,53,0,26
4,50,0,0
4,50,84,22
4,58,0,4
4,53,80,20
4,65,0,34
4,53,0,9
4,50,0,1
4,48,88,4
4,63,64,0
4,65,0,11
4,51,66,37
4,55,86,24
4,63,56,0
4,48,0,38
4,48,86,10
4,55,0,3
4,51,0,12
4,51,82,9
4,48,0,44
4,51,0,1
4,50,96,3
4,63,0,2
4,63,0,28
4,53,71,18
4,58,87,24
4,65,76,0
4,65,83,24
4,50,0,3
4,53,0,18
4,50,82,3
4,58,0,7
4,53,78,17
4,50,0,37
4,53,0,7
4,65,0,3
4,51,91,1
4,67,72,0
4,65,0,7
4,55,80,41
4,58,82,24
4,67,74,0
4,51,0,28
4,55,0,11
4,51,76,9
4,58,0,16
4,55,82,8
4,51,0,31
4,67,0,2
4,50,101,15
4,65,76,0
4,55,0,0
4,67,0,7
4,53,71,41
4,58,82,24
4,65,76,0
4,50,0,23
4,53,0,4
4,50,84,21
4,58,0,11
4,53,65,13
4,65,0,22
4,53,0,19
4,50,0,1
4,65,0,4
4,48,96,2
4,63,56,0
4,51,66,48
4,55,82,24
4,63,61,0
4,48,0,36
4,48,64,12
4,55,0,6
4,51,0,2
4,51,66,16
4,63,0,34
4,48,0,9
4,51,0,3
4,50,88,2
4,53,68,48
4,58,72,24
4,65,72,0
4,63,0,3
4,65,76,21
4,50,0,14
4,50,64,10
4,53,0,20
4,53,64,4
4,65,0,30
4,65,0,17
4,51,95,1
4,67,76,0
4,50,0,4
4,53,0,2
4,58,0,3
4,55,82,39
4,58,72,24
4,67,76,0
4,55,0,23
4,51,0,10
4,51,51,15
4,58,0,1
4,55,80,23
4,51,0,34
4,67,0,5
4,50,91,9
4,65,65,0
4,55,0,0
4,67,0,12
4,53,58,36
4,58,72,24
4,65,75,0
4,53,0,26
4,50,0,0
4,50,84,22
4,58,0,4
4,53,80,20
4,65,0,25
4,53,0,18
4,50,0,1
4,48,88,4
4,63,58,0
4,65,0,11
4,51,66,37
4,55,86,24
4,63,56,0
4,48,0,38
4,48,86,10
4,55,0,3
4,51,0,12
4,51,82,9
4,48,0,44
4,51,0,1
4,50,96,3
4,63,0,2
4,63,0,29
4,53,71,17
4,58,87,24
4,65,76,0
4,65,72,24
4,50,0,3
4,53,0,18
4,50,82,3
4,58,0,7
4,53,78,17
4,50,0,37
4,53,0,7
4,51,91,4
4,67,70,0
4,65,0,4
4,65,0,3
4,55,80,41
4,58,82,24
4,67,74,0
4,51,0,28
4,55,0,11
4,51,76,9
4,58,0,16
4,55,82,8
4,51,0,31
4,67,0,10
4,50,101,7
4,65,65,0
4,55,0,0
4,67,0,7
4,53,71,41
4,58,82,24
