track,note,velocity,time
1,45,86,1544
1,45,98,8
1,45,75,20
1,45,66,4
1,45,68,52
1,45,42,4
1,45,63,20
1,45,37,0
1,45,33,20
1,45,25,4
1,45,27,56
1,45,31,4
1,45,23,4
1,45,19,4
1,45,22,0
1,45,34,4
1,45,21,4
1,45,17,76
1,41,96,20
1,41,78,88
1,41,74,80
1,45,33,184
1,45,38,132
1,45,43,88
1,45,40,4
1,45,58,84
1,45,59,0
1,45,42,8
1,45,59,0
1,45,63,4
1,45,59,52
1,45,58,4
1,45,68,88
1,45,59,4
1,45,49,12
1,45,48,4
1,45,38,4
1,45,27,28
1,45,59,4
1,45,47,80
1,45,46,0
1,45,55,40
1,45,43,0
1,45,46,0
1,45,42,44
1,45,47,4
1,45,24,80
1,45,41,4
1,41,51,48
1,45,24,12
1,45,19,140
1,41,46,76
1,41,43,112
1,41,41,80
1,45,22,168
1,45,32,80
1,45,40,68
1,45,58,4
1,45,66,104
1,45,29,0
1,45,59,80
1,45,61,4
1,45,17,72
1,45,61,108
1,45,58,0
1,45,49,48
1,45,37,0
1,45,61,84
1,45,49,4
1,45,61,104
1,45,29,0
1,45,51,4
1,45,24,52
1,45,27,0
1,45,64,108
1,45,30,88
1,45,72,88
1,45,55,60
1,45,55,8
1,45,41,76
1,45,72,124
1,45,74,72
1,45,48,0
1,45,40,68
1,45,72,0
1,45,76,4
1,45,49,100
1,45,68,4
1,45,42,72
1,45,74,112
1,45,61,4
1,45,49,88
1,45,74,100
1,45,72,84
1,45,27,84
1,45,54,104
1,45,59,96
1,45,93,84
1,45,81,88
1,45,43,68
1,45,78,116
1,45,59,80
1,45,74,0
1,45,76,84
1,45,72,0
1,45,72,44
1,45,70,4
1,45,54,36
1,45,68,44
1,45,74,0
1,45,70,48
1,45,61,0
1,45,74,72
1,45,68,4
1,45,74,84
1,45,61,4
1,45,46,48
1,45,74,80
1,45,52,0
1,45,63,68
1,45,70,56
1,45,64,80
1,45,52,52
1,45,61,88
1,41,81,140
1,41,78,48
1,41,68,76
1,41,54,80
1,41,74,120
1,45,59,144
1,45,61,44
1,45,74,112
1,45,64,124
1,45,64,80
1,45,59,108
1,45,68,116
1,45,76,100
1,45,70,64
1,45,68,84
1,41,74,156
1,41,68,96
1,41,66,112
1,41,70,96
1,41,52,116
1,41,74,132
1,41,55,92
1,41,66,124
1,41,74,120
1,45,72,60
1,45,58,96
1,45,70,80
1,45,72,100
1,45,44,80
1,45,76,104
1,45,59,100
1,45,78,96
1,45,70,72
1,45,86,100
1,45,72,68
1,41,81,200
1,41,78,104
1,41,76,104
1,41,64,104
1,41,72,100
1,41,74,104
1,41,72,96
1,45,64,36
1,45,68,124
1,45,81,104
1,45,72,84
1,45,54,96
1,45,76,116
1,45,66,116
1,45,81,124
1,45,76,92
1,45,81,116
1,45,61,72
1,41,88,132
1,41,76,76
1,41,91,116
1,41,59,100
1,41,88,164
1,41,68,112
1,41,84,108
1,41,72,112
1,41,81,96
1,45,81,28
1,45,61,140
1,45,86,100
1,45,81,108
1,45,52,48
1,45,76,96
1,45,74,116
1,45,78,104
1,45,70,112
1,45,78,56
1,45,78,108
1,45,74,6432
1,52,84,4
1,48,74,468
1,41,74,4
1,53,74,1512
1,57,88,680
1,52,86,4
1,45,81,8
1,48,78,784
1,53,72,4
1,57,91,972
1,52,91,12
1,48,84,900
1,53,76,4
1,52,93,1200
1,57,88,4
1,48,78,1020
1,53,72,0
1,52,84,1196
1,57,76,8
1,48,88,1336
1,53,74,4
1,48,78,16772
1,53,72,8
1,57,91,972
1,52,91,12
1,48,84,904
1,53,76,0
1,52,93,1200
1,57,88,4
1,48,78,1024
1,53,72,4
1,52,84,1200
1,57,76,4
1,48,88,1336
1,53,74,4
1,60,91,27116
1,53,68,4
1,53,66,196
1,60,78,192
1,53,66,144
1,60,91,196
1,53,68,148
1,53,74,124
1,60,84,184
1,62,88,136
1,55,76,4
1,55,72,184
1,62,76,204
1,55,76,196
1,62,88,200
1,55,86,216
1,62,78,180
1,57,84,156
1,60,119,572
1,57,111,4
1,64,119,0
1,64,84,584
1,57,84,460
1,64,86,204
1,53,68,176
1,60,93,200
1,53,81,180
1,60,91,184
1,53,64,168
1,60,91,40
1,53,28,0
1,53,76,180
1,60,84,192
1,55,68,124
1,62,86,204
1,55,76,164
1,62,91,192
1,55,78,164
1,62,91,184
1,55,86,164
1,62,86,192
2,33,96,1552
2,29,88,316
2,29,38,120
2,29,40,96
2,33,91,104
2,33,51,84
2,33,47,100
2,33,70,96
2,29,84,88
2,33,70,144
2,33,59,120
2,33,41,96
2,33,49,104
2,33,17,48
2,33,40,100
2,33,24,96
2,33,38,100
2,33,48,96
2,33,30,76
2,33,46,108
2,33,72,100
2,33,61,76
2,33,72,120
2,33,40,64
2,33,48,96
2,33,72,108
2,33,19,32
2,33,38,96
2,33,74,72
2,33,32,44
2,33,74,108
2,33,38,48
2,33,48,92
2,33,84,108
2,33,21,32
2,33,42,92
2,33,66,84
2,33,20,48
2,33,49,108
2,33,47,68
2,33,49,88
2,33,96,116
2,33,59,56
2,33,49,92
2,33,78,100
2,33,33,44
2,33,74,96
2,33,51,52
2,33,42,88
2,33,91,112
2,33,47,52
2,33,52,104
2,33,81,104
2,33,40,64
2,33,72,100
2,33,54,64
2,33,43,100
2,33,91,100
2,33,48,108
2,33,72,104
2,33,49,76
2,33,84,96
2,33,51,72
2,33,51,96
2,33,98,112
2,33,49,60
2,33,54,100
2,33,78,100
2,33,61,60
2,33,78,100
2,33,58,64
2,33,59,84
2,33,93,100
2,33,63,56
2,33,63,104
2,33,78,92
2,33,51,68
2,33,74,100
2,33,59,64
2,33,49,108
2,33,93,120
2,29,76,172
2,29,74,116
2,29,63,112
2,29,72,136
2,29,55,108
2,29,68,112
2,29,63,108
2,33,74,108
2,33,88,140
2,33,81,128
2,33,66,104
2,33,76,128
2,33,70,112
2,33,86,128
2,33,78,124
2,33,72,124
2,33,78,128
2,33,81,128
2,33,61,104
2,33,81,132
2,33,66,108
2,33,81,124
2,33,86,128
2,29,68,100
2,29,63,132
2,29,72,144
2,29,54,128
2,29,70,128
2,29,59,124
2,29,70,132
2,29,76,124
2,29,58,112
2,29,63,120
2,29,78,124
2,29,52,104
2,29,76,128
2,29,63,108
2,29,81,132
2,29,72,112
2,33,84,116
2,33,84,124
2,33,88,124
2,33,70,108
2,33,88,124
2,33,70,104
2,33,81,120
2,33,86,132
2,33,74,116
2,33,81,128
2,33,86,124
2,33,72,100
2,33,88,128
2,33,63,100
2,33,86,128
2,33,88,124
2,29,59,104
2,29,70,140
2,29,72,128
2,29,59,116
2,29,70,132
2,29,55,116
2,29,70,132
2,29,68,128
2,29,74,132
2,29,70,120
2,29,76,144
2,29,72,136
2,29,76,124
2,29,64,120
2,29,76,128
2,29,64,120
2,33,78,124
2,33,81,136
2,33,84,120
2,33,74,124
2,33,88,124
2,33,70,108
2,33,86,128
2,33,88,128
2,33,74,108
2,33,86,128
2,33,88,128
2,33,76,112
2,33,86,128
2,33,76,116
2,33,81,128
2,33,91,120
2,29,35,104
2,29,68,144
2,29,72,124
2,29,61,124
2,29,76,124
2,29,63,108
2,29,72,140
2,29,76,128
2,29,70,120
2,29,72,136
2,29,76,132
2,29,70,124
2,29,74,140
2,29,66,128
2,29,76,128
2,29,76,120
2,33,84,120
2,33,86,140
2,33,88,120
2,33,74,124
2,33,86,124
2,33,74,116
2,33,86,136
2,33,86,128
2,33,74,104
2,33,84,128
2,33,86,128
2,33,74,124
2,33,88,128
2,33,72,120
2,33,84,128
2,33,88,124
2,33,88,68
2,33,86,144
2,33,91,152
2,33,91,184
2,29,74,168
2,29,78,84
2,29,86,152
2,29,91,200
2,29,76,168
2,29,84,112
2,29,78,200
2,33,91,116
2,33,88,144
2,33,91,112
2,33,88,164
2,33,88,176
2,33,84,132
2,33,88,124
2,33,86,152
2,33,81,80
2,29,76,68
2,29,84,168
2,29,78,152
2,29,81,180
2,29,74,148
2,29,81,100
2,29,76,152
2,33,86,124
2,33,86,152
2,33,76,108
2,33,86,176
2,33,88,168
2,33,76,124
2,33,88,136
2,33,88,160
2,33,91,152
2,29,72,200
2,29,86,128
2,29,86,120
2,29,78,184
2,29,72,152
2,29,81,112
2,29,70,204
2,33,86,112
2,33,88,152
2,33,88,104
2,33,81,180
2,33,81,168
2,33,81,148
2,33,88,136
2,33,93,200
2,33,93,160
2,29,74,220
2,29,86,104
2,29,86,184
2,29,84,188
2,29,76,152
2,29,76,112
2,29,81,200
2,33,91,144
2,33,88,168
2,33,91,124
2,33,81,220
2,33,88,208
2,33,74,128
2,33,91,136
2,33,86,180
2,33,84,148
2,29,76,200
2,29,86,100
2,29,81,172
2,29,91,172
2,29,91,148
2,29,84,116
2,29,84,216
2,33,96,144
2,33,91,148
2,33,88,120
2,33,88,196
2,33,81,176
2,33,84,140
2,33,93,128
2,33,91,164
2,33,91,148
2,29,72,212
2,29,91,104
2,29,81,188
2,29,86,156
2,29,76,152
2,29,78,120
2,29,76,208
2,29,86,84
2,29,86,72
2,29,74,128
2,29,86,112
2,29,88,192
2,33,98,212
2,33,91,148
2,31,93,40
2,31,101,120
2,29,84,168
2,29,86,96
2,29,91,236
2,28,96,24
2,29,91,24
2,31,91,52
2,33,98,144
2,33,93,96
2,33,93,228
2,33,93,320
2,31,98,16
2,29,88,68
2,29,84,124
2,29,91,104
2,29,93,256
2,28,98,12
2,29,91,32
2,31,93,84
2,33,98,128
2,33,91,108
2,33,93,272
2,33,76,0
2,33,88,4
2,33,76,268
2,33,88,136
2,33,88,160
2,33,91,148
2,29,72,200
2,29,86,132
2,29,86,120
2,29,78,184
2,29,72,156
2,29,81,116
2,29,70,204
2,33,86,108
2,33,88,152
2,33,88,108
2,33,81,176
2,33,81,172
2,33,81,152
2,33,88,136
2,33,93,204
2,33,93,156
2,29,74,216
2,29,86,104
2,29,86,188
2,29,84,180
2,29,76,152
2,29,76,116
2,29,81,196
2,33,91,144
2,33,88,168
2,33,91,124
2,33,81,212
2,33,88,204
2,33,74,128
2,33,91,136
2,33,86,172
2,33,84,148
2,29,76,200
2,29,86,104
2,29,81,172
2,29,91,168
2,29,91,148
2,29,84,116
2,29,84,216
2,33,96,144
2,33,91,152
2,33,88,120
2,33,88,196
2,33,81,172
2,33,84,140
2,33,93,132
2,33,91,160
2,33,91,144
2,29,72,212
2,29,91,108
2,29,81,188
2,29,86,160
2,29,76,168
2,29,78,120
2,29,76,208
2,29,86,88
2,29,86,72
2,29,74,128
2,29,86,108
2,29,88,184
2,33,98,204
2,33,91,148
2,31,93,32
2,31,101,120
2,29,84,168
2,29,86,92
2,29,91,232
2,28,96,28
2,29,91,24
2,31,91,52
2,33,98,144
2,33,93,92
2,33,93,228
2,33,93,316
2,31,98,16
2,29,88,68
2,29,84,120
2,29,91,100
2,29,93,256
2,28,98,8
2,29,91,32
2,31,93,84
2,33,98,120
2,33,91,112
2,33,93,276
2,33,98,280
2,33,91,148
2,31,93,32
2,31,101,120
2,29,84,168
2,29,86,88
2,29,91,228
2,28,96,32
2,29,91,24
2,31,91,52
2,33,98,148
2,33,93,96
2,33,93,228
2,33,93,316
2,31,98,12
2,29,88,68
2,29,84,124
2,29,91,104
2,29,93,256
2,28,98,8
2,29,91,32
2,31,93,80
2,33,98,124
2,33,91,108
2,33,93,276
2,29,88,268
2,29,74,164
2,29,88,140
2,29,74,144
2,29,86,120
2,29,72,136
2,29,84,144
2,29,84,184
2,31,91,76
2,31,86,176
2,31,81,132
2,31,72,132
2,36,93,56
2,36,91,164
2,35,88,48
2,35,88,200
2,33,93,36
2,33,81,136
2,33,88,120
2,33,86,176
2,33,98,120
2,33,86,172
2,33,96,124
2,33,98,148
2,29,96,28
2,29,81,148
2,29,81,108
2,29,81,164
2,29,86,108
2,29,84,156
2,29,84,104
2,29,78,144
2,31,98,60
2,31,84,160
2,31,98,140
2,31,86,168
2,31,91,140
2,31,84,136
2,31,98,148
2,33,109,188
2,33,93,152
2,31,103,44
2,31,98,124
2,29,98,168
2,29,103,108
2,29,101,220
2,28,117,76
2,29,96,20
2,31,103,576
2,33,98,156
2,33,96,132
2,33,114,208
2,33,114,216
2,31,106,8
2,29,101,12
2,29,98,192
2,29,101,120
2,29,101,212
2,28,103,36
2,29,98,584
2,31,101,8
2,33,103,128
2,33,98,128
2,33,106,240
2,33,98,192
2,31,101,576
2,29,96,16
2,29,96,192
2,29,98,116
2,29,98,220
2,28,103,4
2,29,88,12
2,31,96,576
2,33,103,156
2,33,106,92
2,33,103,240
2,33,103,172
2,31,103,8
2,29,98,32
2,29,96,204
2,29,98,116
2,29,98,216
2,28,103,4
2,29,98,596
2,31,98,556
2,33,103,164
2,33,106,100
2,33,109,220
2,33,101,232
2,31,106,72
2,29,101,24
2,29,96,196
2,29,98,120
2,29,101,232
2,28,103,60
2,29,93,24
2,31,101,52
2,33,109,200
2,33,109,124
2,33,106,256
2,33,109,364
2,31,101,28
2,29,98,20
2,29,91,200
2,29,101,120
2,29,96,220
2,28,103,20
2,29,96,60
2,31,103,32
2,33,101,200
2,33,101,112
2,33,101,244
2,33,101,128
2,31,98,32
2,29,93,24
2,29,96,212
2,29,96,124
2,29,98,220
2,28,103,736
2,29,93,8
2,31,98,12
2,33,103,112
2,33,103,124
2,33,109,84
2,33,103,140
2,31,98,556
2,29,96,32
2,29,86,192
2,29,91,104
2,29,98,100
2,28,103,40
2,29,93,4
2,31,96,36
2,33,103,36
2,33,98,100
2,33,101,160
2,33,103,256
2,31,96,32
2,29,88,24
2,29,93,12
2,29,96,100
2,29,98,16
2,28,103,144
2,29,93,24
2,31,98,32
2,33,98,40
2,33,114,48
2,33,109,16
3,69,56,60
3,76,41,4
3,79,83,4
3,69,51,8
3,69,44,24
3,72,67,16
3,69,59,20
3,72,61,12
3,76,63,20
3,79,69,12
3,69,36,4
3,81,61,8
3,79,85,4
3,76,83,12
3,74,62,12
3,72,70,8
3,74,37,16
3,69,64,28
3,67,49,0
3,69,66,32
3,72,76,8
3,79,73,12
3,76,73,12
3,72,63,24
3,69,64,24
3,74,52,36
3,72,81,4
3,69,59,20
3,71,81,88
3,72,76,4
3,67,64,8
3,69,56,12
3,76,55,12
3,79,58,32
3,76,31,88
3,69,30,84
3,76,69,24
3,81,74,8
3,69,62,4
3,74,31,12
3,69,58,12
3,76,74,12
3,69,59,268
3,74,49,8
3,81,81,4
3,64,68,4
3,79,61,40
3,57,51,8
3,69,72,200
3,72,63,8
3,57,49,100
3,64,66,408
3,69,54,200
3,74,78,188
3,69,76,0
3,60,61,176
3,62,64,140
3,64,91,388
3,69,66,0
3,72,72,196
3,74,78,900
3,76,72,188
3,72,70,176
3,76,84,4
3,72,68,4
3,64,66,180
3,64,91,760
3,67,74,16
3,69,58,180
3,69,68,0
3,74,72,92
3,64,49,4
3,72,70,52
3,69,63,68
3,64,52,4
3,64,88,168
3,64,91,4
3,67,58,188
3,67,63,0
3,69,76,196
3,69,59,0
3,64,98,1312
3,69,74,188
3,74,84,192
3,64,48,76
3,72,81,4
3,60,84,396
3,62,63,192
3,64,61,72
3,69,76,4
3,69,70,4
3,76,88,72
3,64,17,4
3,60,96,552
3,62,78,212
3,69,63,192
3,67,68,788
3,64,93,104
3,69,55,4
3,74,86,32
3,72,78,68
3,57,101,1776
3,57,84,0
3,64,81,0
3,60,66,8
3,57,63,0
3,67,81,140
3,59,88,0
3,62,81,4
3,64,70,4
3,57,54,340
3,64,70,168
3,57,76,60
3,57,88,4
3,60,76,4
3,65,72,4
3,64,64,28
3,69,63,60
3,57,81,8
3,60,78,0
3,65,78,0
3,64,78,4
3,55,84,4
3,59,70,0
3,60,91,120
3,57,86,8
3,65,86,0
3,62,84,136
3,67,76,12
3,59,74,0
3,57,91,104
3,69,72,8
3,64,78,196
3,76,81,4
3,81,61,20
3,69,88,0
3,64,76,52
3,57,72,0
3,69,54,372
3,76,84,40
3,62,91,32
