track,note,velocity,time
3,62,101,2
3,59,92,155
3,62,0,1
3,59,0,85
3,55,95,7
3,55,0,81
3,62,93,7
3,59,91,161
3,62,0,2
3,59,0,87
3,55,101,4
3,55,0,279
3,57,107,9
3,60,99,176
3,57,0,18
3,62,87,77
3,60,0,1
3,62,0,102
3,62,109,86
3,62,0,44
3,62,88,30
3,62,0,91
3,60,93,3
3,57,66,191
3,60,0,1
3,60,96,94
3,57,0,1
3,60,0,191
3,57,95,192
3,60,86,97
3,57,0,5
3,60,0,181
3,57,79,4
3,57,0,94
3,60,96,2
3,60,0,32
3,57,95,6
3,57,0,396
3,57,109,374
3,60,103,195
3,57,0,12
3,62,92,84
3,60,0,12
3,62,0,136
3,62,107,41
3,62,0,83
3,60,87,12
3,60,0,64
3,60,101,30
3,62,79,191
3,60,0,11
3,62,0,83
3,55,105,3
3,55,0,2
3,69,103,15
3,69,0,18
3,69,101,35
3,67,67,192
3,69,0,10
3,67,0,29
3,72,107,4
3,71,95,72
3,72,0,8
3,71,0,212
3,69,101,1
3,69,0,58
3,69,88,36
3,69,0,183
3,67,93,13
3,67,0,213
3,64,103,74
3,64,89,191
3,64,0,5
3,64,0,18
3,64,96,30
3,64,0,139
3,64,101,7
3,64,0,91
3,64,98,5
3,64,0,5
3,57,91,7
3,57,0,7
3,57,87,186
3,57,0,34
3,64,103,1
3,64,0,58
3,62,101,12
3,62,0,28
3,62,107,68
3,62,0,168
3,57,92,11
3,57,0,37
3,62,109,58
3,62,0,59
3,60,95,26
3,60,0,87
3,57,82,8
3,57,0,92
3,60,98,3
3,60,0,16
3,57,95,0
3,57,0,33
3,57,105,49
3,57,0,88
3,62,107,0
3,62,0,49
3,62,98,36
3,62,0,41
3,60,98,20
3,60,0,134
3,60,88,53
3,60,0,85
3,57,62,0
3,57,0,66
3,60,105,44
3,60,0,107
3,60,98,61
3,60,0,143
3,62,101,55
3,62,0,44
3,62,101,5
3,62,0,185
3,55,81,165
3,55,0,44
3,55,107,52
3,62,111,88
3,55,0,6
3,62,0,44
3,62,103,41
3,62,0,157
3,60,92,36
3,60,0,140
3,62,99,58
3,62,0,88
3,64,91,5
3,64,0,47
3,62,107,47
3,62,0,52
3,62,99,33
3,60,84,94
3,62,0,8
3,57,45,83
3,60,0,5
3,57,0,58
3,60,105,48
3,60,0,50
3,60,101,45
3,60,0,44
3,60,98,52
3,60,0,5
3,57,96,11
3,60,95,82
3,57,0,9
3,60,0,79
3,62,91,0
3,62,0,47
3,62,111,5
3,62,0,220
3,55,92,2
3,60,99,95
3,55,0,3
3,60,0,54
3,60,95,36
3,60,0,44
3,67,99,52
3,67,0,25
3,62,103,28
3,62,0,42
3,62,101,33
3,62,0,47
3,62,113,47
3,62,0,5
3,62,111,4
3,62,0,425
3,63,100,960
3,64,92,50
3,63,0,11
3,64,0,77
3,64,103,2
3,64,0,91
3,64,107,65
3,64,0,130
3,64,98,6
3,64,0,27
3,64,101,39
3,64,0,115
3,64,109,2
3,64,0,27
3,62,107,20
3,62,0,50
3,60,84,21
3,60,0,52
3,60,99,43
3,60,0,121
3,60,103,27
3,60,0,60
3,60,98,29
3,60,0,32
3,64,105,13
3,64,0,43
3,64,107,26
3,64,0,220
3,64,105,4
3,64,0,23
3,64,103,50
3,64,0,124
3,67,107,68
3,67,0,33
3,67,105,53
3,67,0,121
3,64,91,72
3,64,0,52
3,62,103,44
3,62,0,10
3,62,96,11
3,62,0,3
3,62,107,32
3,62,0,318
3,64,101,683
3,63,98,94
3,64,0,2
3,63,0,1
3,64,103,0
3,64,0,32
3,64,101,43
3,64,0,215
3,64,99,71
3,55,101,98
3,64,0,4
3,55,0,90
3,63,92,99
3,64,96,48
3,63,0,11
3,64,0,28
3,62,91,23
3,62,0,25
3,60,91,29
3,55,96,94
3,60,0,3
3,55,0,115
3,57,103,73
3,57,0,6
3,64,105,3
3,64,0,108
3,64,99,54
3,64,0,56
3,64,101,0
3,64,0,118
3,64,98,42
3,64,0,116
3,69,113,7
3,69,0,225
3,67,105,53
3,64,109,201
3,67,0,3
3,64,0,139
3,64,101,17
3,64,0,70
3,64,95,96
3,62,109,44
3,64,0,2
3,62,0,226
3,64,113,973
3,64,0,97
3,64,105,92
3,62,113,49
3,64,0,2
3,62,0,248
3,57,107,9
3,60,99,176
3,57,0,18
3,62,87,77
3,60,0,1
3,62,0,102
3,62,109,86
3,62,0,44
3,62,88,30
3,62,0,91
3,60,93,3
3,57,66,191
3,60,0,1
3,60,96,94
3,57,0,1
3,60,0,191
3,57,95,192
3,60,86,97
3,57,0,5
3,60,0,181
3,57,79,4
3,57,0,94
3,60,96,2
3,60,0,25
3,57,95,13
3,57,0,396
3,57,95,374
3,57,0,108
3,60,96,85
3,60,0,3
3,62,91,76
3,62,0,199
3,59,85,73
3,55,92,96
3,59,0,48
3,55,0,322
3,69,103,15
3,69,0,18
3,69,101,35
3,67,67,192
3,69,0,10
3,67,0,29
3,72,107,4
3,71,95,72
3,72,0,8
3,71,0,212
3,69,101,4
3,69,0,48
3,69,88,36
3,67,93,196
3,69,0,11
3,67,0,113
3,64,103,24
3,64,0,141
3,64,89,8
3,64,0,23
3,64,96,30
3,64,0,139
3,64,101,7
3,64,0,91
3,64,98,5
3,64,0,5
3,57,91,10
3,57,0,10
3,64,101,103
3,62,89,3
3,64,0,20
3,62,0,99
3,60,91,72
3,60,0,130
3,57,80,61
3,57,0,38
3,64,105,19
3,64,0,3
3,62,93,5
3,62,0,134
3,60,92,60
3,60,0,84
3,55,77,106
3,55,0,42
3,57,93,55
3,57,0,2
3,55,95,15
3,55,0,33
3,55,105,49
3,55,0,88
3,62,107,0
3,62,0,49
3,62,98,36
3,62,0,41
3,60,98,20
3,60,0,134
3,60,88,53
3,60,0,85
3,57,62,0
3,57,0,66
3,60,105,44
3,60,105,1
3,60,0,44
3,60,0,9
3,60,98,133
3,60,0,143
3,62,101,55
3,62,0,44
3,62,101,5
3,62,0,185
3,55,81,165
3,55,0,44
3,55,107,52
3,62,111,88
3,55,0,6
3,62,0,44
3,62,103,41
3,62,0,157
3,60,92,36
3,60,0,140
3,62,99,58
3,62,0,88
3,64,91,5
3,64,0,47
3,62,107,47
3,62,0,52
3,62,99,33
3,60,84,94
3,62,0,8
3,57,45,83
3,60,0,5
3,57,0,58
3,60,105,49
3,60,0,50
3,60,101,44
3,60,0,44
3,60,98,52
3,60,0,5
3,57,96,11
3,60,95,82
3,57,0,9
3,60,0,79
3,62,91,0
3,62,0,47
3,62,111,5
3,62,0,220
3,55,92,1
3,60,99,95
3,55,0,6
3,60,0,51
3,60,95,36
3,60,0,44
3,67,99,52
3,67,0,25
3,67,99,715
3,62,75,206
3,67,0,9
3,62,0,44
3,62,98,45
3,62,0,30
3,62,105,73
3,62,0,407
3,64,103,1047
3,64,0,91
3,64,107,62
3,64,0,130
3,64,98,6
3,64,0,27
3,64,101,39
3,64,0,115
3,64,109,3
3,64,0,28
3,62,107,20
3,62,0,50
3,60,84,21
3,60,0,52
3,60,99,43
3,60,0,121
3,60,103,27
3,60,0,60
3,60,98,29
3,60,0,32
3,64,105,13
3,64,0,43
3,64,107,26
3,64,0,220
3,64,105,4
3,64,0,23
3,64,103,50
3,64,0,124
3,67,107,68
3,67,0,33
3,67,105,53
3,67,0,121
3,64,91,72
3,64,0,52
3,62,103,44
3,62,0,10
3,62,96,11
3,62,0,3
3,62,107,32
3,62,0,318
3,64,103,873
3,64,0,28
3,64,101,47
3,64,0,215
3,64,99,71
3,55,101,98
3,64,0,4
3,55,0,90
3,63,92,99
3,64,96,48
3,63,0,11
3,64,0,28
3,62,91,23
3,62,0,25
3,60,91,31
3,55,96,92
3,60,0,5
3,55,0,113
3,57,103,73
3,57,0,6
3,64,105,3
3,64,0,108
3,64,99,54
3,64,0,56
3,64,101,0
3,64,0,118
3,64,98,42
3,64,0,116
3,69,113,26
3,69,0,5
3,67,105,67
3,64,109,202
3,67,0,2
3,64,0,140
3,64,101,17
3,64,0,70
3,64,95,96
3,62,109,44
3,64,0,5
3,62,0,226
3,64,113,973
3,64,0,97
3,64,103,97
3,64,0,91
3,64,107,62
3,64,0,130
3,64,98,6
3,64,0,27
3,64,101,39
3,64,0,115
3,64,109,3
3,64,0,28
3,62,107,20
3,62,0,50
3,60,84,22
3,60,0,52
3,60,99,42
3,60,0,121
3,60,103,27
3,60,0,60
3,60,98,29
3,60,0,32
3,64,105,13
3,64,0,43
3,64,107,26
3,64,0,220
3,64,105,4
3,64,0,23
3,64,103,50
3,64,0,124
3,67,107,70
3,67,0,35
3,67,105,51
3,67,0,121
3,64,91,72
3,64,0,52
3,62,103,44
3,62,0,10
3,62,96,11
3,62,0,3
3,62,107,32
3,62,0,318
3,64,101,0
3,64,0,3
3,64,96,18
3,57,92,69
3,64,0,2
3,57,0,144
3,64,109,16
3,57,99,67
3,64,0,7
3,57,0,112
3,62,111,75
3,62,0,42
3,62,96,39
3,62,0,188
3,60,95,5
3,60,0,96
3,55,89,92
3,55,0,42
3,59,95,3
3,59,0,479
3,64,105,3
3,64,0,108
3,64,99,54
3,64,0,56
3,64,101,0
3,64,0,118
3,64,98,42
3,64,0,116
3,69,113,26
3,69,0,5
3,67,105,67
3,64,109,203
3,67,0,1
3,64,0,141
3,64,101,17
3,64,0,70
3,64,95,95
3,62,109,45
3,64,0,4
3,62,0,226
3,64,103,43
3,64,0,238
3,64,107,100
3,64,0,131
3,60,92,0
3,60,0,529
3,64,118,15
3,64,0,67
3,64,111,32
3,64,0,200
3,62,111,2
3,62,0,4
3,74,80,32
3,72,98,2
3,74,0,6
3,72,0,160
3,71,93,8
3,71,0,59
3,71,109,38
3,71,0,97
3,69,96,0
3,69,0,56
3,69,107,43
3,69,0,86
3,67,69,5
3,67,0,65
3,67,107,5
3,67,0,58
3,62,95,1
3,62,0,53
3,62,103,45
3,62,0,1
4,40,52,673
4,40,0,24
4,40,62,8
4,40,0,23
4,40,70,9
4,40,0,23
4,40,123,9
4,40,0,36
4,45,120,59
4,45,0,36
4,35,120,61
4,35,0,36
4,57,104,156
4,40,122,0
4,42,114,1
4,40,0,35
4,57,0,0
4,42,0,1
4,42,54,59
4,35,120,0
4,35,0,35
4,42,0,0
4,42,114,61
4,35,120,0
4,42,0,16
4,35,0,20
4,42,58,11
4,42,0,17
4,70,94,32
4,42,54,0
4,42,0,36
4,70,0,3
4,42,114,57
4,40,122,0
4,40,0,36
4,42,0,0
4,42,54,60
4,42,0,12
4,42,66,36
4,42,0,12
4,42,114,36
4,35,120,0
4,35,0,35
4,42,0,1
4,70,74,12
4,70,0,39
4,42,54,9
4,82,64,0
4,42,0,36
4,82,0,11
4,69,54,1
4,69,0,23
4,42,114,25
4,40,122,0
4,40,0,35
4,42,0,0
4,42,54,61
4,35,120,0
4,35,0,36
4,42,0,0
4,42,114,60
4,35,120,0
4,42,0,16
4,35,0,19
4,42,58,13
4,42,0,16
4,70,94,32
4,42,54,0
4,42,0,36
4,70,0,4
4,42,114,56
4,40,122,0
4,40,0,35
4,42,0,0
4,42,54,61
4,42,0,12
4,42,66,35
4,42,0,13
4,42,114,36
4,35,120,0
4,35,0,35
4,42,0,1
4,70,74,12
4,70,0,39
4,42,54,9
4,82,64,0
4,42,0,36
4,82,0,11
4,69,54,1
4,69,0,23
4,42,114,25
4,40,122,0
4,40,0,35
4,42,0,0
4,42,54,61
4,35,120,0
4,35,0,36
4,42,0,0
4,42,114,60
4,35,120,0
4,42,0,16
4,35,0,19
4,42,58,13
4,42,0,16
4,70,94,32
4,42,54,0
4,42,0,36
4,70,0,4
4,42,114,56
4,40,122,0
4,40,0,35
4,42,0,0
4,42,54,61
4,42,0,12
4,42,66,35
4,42,0,13
4,42,114,36
4,35,120,0
4,35,0,35
4,42,0,1
4,70,74,12
4,70,0,39
4,42,54,9
4,82,64,0
4,42,0,36
4,82,0,11
4,69,54,1
4,69,0,23
4,42,114,25
4,40,122,0
4,40,0,35
4,42,0,0
4,42,54,61
4,35,120,0
4,35,0,36
4,42,0,0
4,42,114,60
4,35,120,0
4,42,0,16
4,35,0,19
4,42,58,13
4,42,0,16
4,70,94,32
4,42,54,0
4,42,0,36
4,70,0,4
4,42,114,56
4,40,122,0
4,40,0,35
4,42,0,0
4,42,54,61
4,42,0,12
4,42,66,35
4,42,0,13
4,42,114,36
4,35,120,0
4,35,0,35
4,42,0,1
4,70,74,12
4,70,0,39
4,42,54,9
4,82,64,0
4,42,0,36
4,82,0,11
4,69,54,1
4,69,0,23
4,42,114,25
4,40,122,0
4,40,0,35
4,42,0,0
4,42,54,61
4,35,120,0
4,35,0,36
4,42,0,0
4,42,114,60
4,35,120,0
4,42,0,16
4,35,0,19
4,42,58,13
4,42,0,16
4,70,94,32
4,42,54,0
4,42,0,36
4,70,0,4
4,42,114,56
4,40,122,0
4,40,0,35
4,42,0,0
4,42,54,61
4,42,0,12
4,42,66,35
4,42,0,13
4,42,114,36
4,35,120,0
4,35,0,35
4,42,0,1
4,70,74,12
4,70,0,39
4,42,54,9
4,82,64,0
4,42,0,36
4,82,0,11
4,69,54,1
4,69,0,23
4,42,114,25
4,40,122,0
4,40,0,35
4,42,0,0
4,42,54,61
4,35,120,0
4,35,0,36
4,42,0,0
4,42,114,60
4,35,120,0
4,42,0,16
4,35,0,19
4,42,58,13
4,42,0,16
4,70,94,32
4,42,54,0
4,42,0,36
4,70,0,4
4,42,114,56
4,40,122,0
4,40,0,35
4,42,0,0
4,42,54,61
4,42,0,12
4,42,66,35
4,42,0,13
4,42,114,36
4,35,120,0
4,35,0,35
4,42,0,1
4,70,74,12
4,70,0,39
4,42,54,9
4,82,64,0
4,42,0,36
4,82,0,11
4,69,54,1
4,69,0,23
4,42,114,25
4,40,122,0
4,40,0,35
4,42,0,0
4,42,54,61
4,35,120,0
4,35,0,36
4,42,0,0
4,42,114,60
4,35,120,0
4,42,0,16
4,35,0,19
4,42,58,13
4,42,0,16
4,70,94,32
4,42,54,0
4,42,0,36
4,70,0,4
4,42,114,56
4,40,122,0
4,40,0,35
4,42,0,0
4,42,54,61
4,42,0,12
4,42,66,35
4,42,0,13
4,42,114,36
4,35,120,0
4,35,0,35
4,42,0,1
4,70,74,12
4,70,0,39
4,42,54,9
4,82,64,0
4,42,0,36
4,82,0,11
4,69,54,1
4,69,0,23
4,42,114,25
4,40,122,0
4,40,0,35
4,42,0,0
4,42,54,61
4,35,120,0
4,35,0,36
4,42,0,0
4,42,114,60
4,35,120,0
4,42,0,16
4,35,0,19
4,42,58,13
4,42,0,16
4,70,94,32
4,42,54,0
4,42,0,36
4,70,0,4
4,42,114,56
4,40,122,0
4,40,0,35
4,42,0,0
4,42,54,61
4,42,0,12
4,42,66,35
4,42,0,13
4,42,114,36
4,35,120,0
4,35,0,35
4,42,0,1
4,70,74,12
4,70,0,39
4,42,54,9
4,82,64,0
4,42,0,36
4,82,0,11
4,69,54,1
4,69,0,23
4,42,114,25
4,40,122,0
4,40,0,35
4,42,0,0
4,42,54,61
4,35,120,0
4,35,0,36
4,42,0,0
4,42,114,60
4,35,120,0
4,42,0,16
4,35,0,19
4,42,58,13
4,42,0,16
4,70,94,32
4,42,54,0
4,42,0,36
4,70,0,4
4,42,114,56
4,40,122,0
4,40,0,35
4,42,0,0
4,42,54,61
4,42,0,12
4,42,66,35
4,42,0,13
4,42,114,36
4,35,120,0
4,35,0,35
4,42,0,1
4,70,74,12
4,70,0,39
4,42,54,9
4,82,64,0
4,42,0,36
4,82,0,11
4,69,54,1
4,69,0,23
4,42,114,25
4,40,122,0
4,40,0,35
4,42,0,0
4,42,54,61
4,35,120,0
4,35,0,36
4,42,0,0
4,42,114,60
4,35,120,0
4,42,0,16
4,35,0,19
4,42,58,13
4,42,0,16
4,70,94,32
4,42,54,0
4,42,0,36
4,70,0,4
4,42,114,56
4,40,122,0
4,40,0,35
4,42,0,0
4,42,54,61
4,42,0,12
