track,note,velocity,time
3,43,127,480
3,43,0,81
3,43,127,159
3,43,0,68
3,43,120,172
3,43,0,73
3,43,127,167
3,43,0,83
3,43,120,157
3,43,0,100
3,43,116,140
3,43,0,110
3,43,109,130
3,43,0,118
3,43,95,122
3,43,0,116
3,41,116,124
3,41,0,117
3,41,118,123
3,41,0,128
3,41,126,112
3,41,0,125
3,41,127,115
3,41,0,115
3,39,127,125
3,39,0,122
3,39,127,118
3,39,0,115
3,39,127,125
3,39,0,121
3,39,127,119
3,39,0,83
3,39,127,37
3,34,120,60
3,39,0,2
3,34,0,53
3,31,127,5
3,31,0,112
3,31,127,128
3,31,0,138
3,31,127,102
3,31,0,147
3,31,127,93
3,31,0,121
3,43,127,110
3,43,0,76
3,43,127,173
3,43,0,68
3,43,127,172
3,43,0,75
3,43,127,165
3,43,0,70
3,41,127,170
3,41,0,105
3,41,127,135
3,41,0,102
3,41,127,138
3,41,0,103
3,41,127,137
3,41,0,100
3,39,127,140
3,39,0,115
3,39,127,125
3,39,0,121
3,39,127,119
3,39,0,120
3,39,127,120
3,39,0,60
3,39,120,60
3,39,0,15
3,39,120,15
3,39,0,27
3,34,127,3
3,34,0,57
3,31,127,3
3,31,0,115
3,31,127,125
3,31,0,122
3,31,127,118
3,31,0,111
3,31,127,129
3,31,0,125
3,31,127,115
3,31,0,120
3,31,127,120
3,31,0,118
3,31,127,122
3,31,0,121
3,31,127,119
3,31,0,100
3,30,82,20
3,30,0,12
3,31,127,48
3,31,0,55
3,29,127,5
3,29,0,120
3,29,127,120
3,29,0,122
3,29,127,118
3,29,0,111
3,29,127,129
3,29,0,56
3,31,127,4
3,33,127,60
3,31,0,6
3,36,118,54
3,33,0,3
3,39,127,57
3,36,0,2
3,39,0,121
3,39,127,117
3,39,0,115
3,39,127,125
3,39,0,135
3,39,127,105
3,39,0,117
3,38,126,3
3,36,127,4
3,38,0,3
3,34,127,40
3,36,0,3
3,34,0,523
3,44,127,0
3,44,0,963
3,43,127,4
3,41,127,480
3,43,0,2
3,41,0,473
3,39,127,5
3,39,0,450
3,39,127,30
3,38,127,360
3,39,0,5
3,38,0,55
3,36,127,0
3,34,127,60
3,36,0,5
3,34,0,602
3,34,112,53
3,34,0,58
3,36,127,2
3,38,109,60
3,36,0,1
3,41,127,59
3,38,0,5
3,43,127,55
3,41,0,1
3,43,0,54
3,44,127,5
3,44,0,960
3,43,127,0
3,43,0,480
3,41,127,0
3,36,127,360
3,41,0,1
3,36,0,59
3,38,127,0
3,38,0,56
3,39,127,4
3,38,127,720
3,39,0,8
3,38,0,48
3,39,114,4
3,32,127,60
3,39,0,10
3,34,127,50
3,32,0,1
3,34,0,13
3,31,127,0
3,31,0,10
3,31,127,34
3,31,0,18
3,31,127,17
3,31,0,13
3,31,127,54
3,31,0,50
3,31,127,70
3,31,0,36
3,31,127,84
3,31,0,18
3,31,127,30
3,31,0,38
3,31,127,72
3,31,0,50
3,31,127,14
3,31,0,30
3,31,127,80
3,31,0,55
3,43,127,65
3,43,0,47
3,31,127,10
3,31,0,57
3,31,127,63
3,31,0,37
3,31,120,73
3,36,85,60
3,31,0,15
3,38,95,15
3,36,0,5
3,38,0,18
3,41,105,5
3,38,127,27
3,41,0,7
3,36,127,53
3,38,0,8
3,33,127,49
3,36,0,8
3,33,0,44
3,29,127,11
3,29,0,57
3,29,126,63
3,29,0,62
3,29,127,58
3,29,0,66
3,29,127,33
3,29,0,70
3,29,127,50
3,29,0,65
3,29,126,55
3,29,0,63
3,29,120,57
3,29,0,60
3,29,127,60
3,29,0,60
3,39,124,60
3,39,0,67
3,39,114,53
3,39,0,77
3,39,127,43
3,39,0,65
3,39,127,55
3,39,0,72
3,39,116,48
3,39,0,71
3,39,127,49
3,39,0,76
3,39,127,44
3,39,0,60
3,39,127,3
3,39,0,10
3,39,127,20
3,34,124,23
3,39,0,5
3,34,0,8
3,31,127,9
3,31,0,70
3,31,123,50
3,31,0,61
3,31,126,59
3,31,0,51
3,31,126,69
3,31,0,70
3,31,126,50
3,31,0,60
3,31,118,60
3,31,0,61
3,31,127,59
3,31,0,11
3,31,109,77
3,31,0,60
3,29,118,0
3,31,120,60
3,29,0,1
3,31,0,60
3,31,120,59
3,31,0,60
3,31,116,60
3,31,0,65
3,31,123,55
3,31,0,63
3,31,118,57
3,31,0,65
3,31,111,55
3,31,0,60
3,31,126,60
3,31,0,62
3,31,123,58
3,31,0,120
3,29,120,0
3,29,0,45
3,29,116,75
3,29,0,110
3,41,123,10
3,41,0,77
3,41,127,43
3,36,127,60
3,41,0,6
3,36,0,54
3,41,127,0
3,41,0,58
3,36,98,2
3,36,0,53
3,41,127,7
3,41,0,96
3,41,123,24
3,31,105,120
3,41,0,5
3,31,0,25
3,33,105,0
3,36,110,30
3,33,0,10
3,39,127,50
3,36,0,3
3,39,0,63
3,39,127,54
3,39,0,68
3,39,127,52
3,39,0,65
3,39,127,55
3,39,0,67
3,39,127,53
3,39,0,65
3,39,127,55
3,39,0,70
3,39,127,50
3,39,0,116
3,38,127,4
3,38,0,56
3,36,127,4
3,36,0,50
3,34,127,10
3,36,126,720
3,34,0,6
3,38,109,54
3,36,0,2
3,41,127,58
3,38,0,5
3,41,0,3
3,43,126,5
3,43,0,35
3,44,124,3
3,44,0,830
3,44,127,19
3,31,127,59
3,44,0,4
3,41,127,481
3,31,0,5
3,41,0,470
3,39,127,3
3,39,0,840
3,38,127,0
3,36,127,57
3,38,0,6
3,36,0,53
3,34,127,2
3,34,0,723
3,36,127,3
3,38,127,53
3,36,0,4
3,41,127,59
3,38,0,3
3,43,127,59
3,41,0,6
3,43,0,52
3,44,127,3
3,44,0,773
3,39,114,1
3,39,0,59
3,44,127,3
3,44,0,85
3,43,127,28
3,43,0,481
3,41,127,9
3,36,127,360
3,41,0,8
3,38,127,52
3,36,0,5
3,39,127,55
3,38,0,6
3,39,0,712
3,38,127,2
3,39,127,60
3,38,0,7
3,33,127,53
3,39,0,16
3,33,0,41
3,34,127,3
3,31,127,60
3,34,0,2
3,31,0,36
3,31,127,82
3,31,0,36
3,31,127,84
3,31,0,35
3,31,127,85
3,31,0,30
3,31,127,90
3,31,0,37
3,31,127,83
3,31,0,33
3,31,127,87
3,31,0,43
3,31,123,77
3,31,0,35
3,31,126,8
3,31,0,8
3,31,127,5
3,31,0,35
3,31,127,10
3,31,0,45
3,31,127,34
3,31,0,4
3,43,127,70
3,31,127,15
3,31,0,38
3,43,0,7
3,31,126,75
3,31,0,47
3,31,120,73
3,31,0,11
3,31,127,39
3,31,0,25
3,41,127,26
3,41,0,59
3,41,127,69
3,41,0,63
3,41,127,57
3,41,0,58
3,41,127,62
3,41,0,60
3,41,126,60
3,41,0,62
3,41,116,58
3,41,0,60
3,41,106,60
3,41,0,68
3,43,109,52
3,45,123,30
3,43,0,5
3,48,127,25
3,45,0,2
3,48,0,38
3,51,127,20
3,51,0,57
3,51,127,63
3,51,0,55
3,51,127,65
3,51,0,55
3,51,127,65
3,51,0,60
3,51,127,60
3,51,0,50
3,51,127,70
3,51,0,52
3,51,127,68
3,51,0,70
3,51,127,50
3,51,0,10
3,51,127,20
3,51,0,30
3,46,127,0
3,46,0,57
3,43,127,3
3,43,0,55
3,43,127,65
3,43,0,53
3,43,113,67
3,43,0,56
3,43,127,64
3,43,0,61
3,43,120,59
3,43,0,62
3,43,123,58
3,43,0,55
3,43,123,65
3,43,0,58
3,43,123,62
3,43,0,55
3,43,123,65
3,43,0,52
3,53,105,8
3,54,127,13
3,53,0,15
3,55,127,0
3,54,0,13
3,58,127,2
3,55,0,5
3,43,123,12
3,55,127,50
3,58,0,1
3,43,0,5
3,55,0,46
3,53,127,8
3,43,126,10
3,53,0,43
3,55,127,7
3,43,0,10
3,55,0,18
3,43,118,42
3,43,0,58
3,43,118,62
3,53,111,61
3,43,0,1
3,54,127,15
3,55,127,13
3,53,0,1
3,54,0,18
3,58,127,1
3,55,0,5
3,43,123,5
3,55,127,53
3,58,0,7
3,43,0,2
3,55,0,44
3,53,127,6
3,43,127,8
3,53,0,28
3,43,0,15
3,55,127,9
3,55,0,24
3,51,127,42
3,51,0,15
3,48,127,17
3,48,0,27
3,45,127,3
3,45,0,41
3,41,127,19
3,41,0,63
3,41,127,57
3,41,0,72
3,41,127,48
3,41,0,62
3,41,127,58
3,41,0,71
3,41,126,49
3,41,0,66
3,41,126,54
3,41,0,58
3,41,126,62
3,41,0,55
3,43,111,5
3,43,0,13
3,43,126,17
3,43,0,27
3,46,120,3
3,46,0,58
3,48,127,2
3,48,0,50
3,51,127,10
3,51,0,70
3,51,127,50
3,51,0,67
3,51,127,53
3,51,0,63
3,51,127,57
3,51,0,70
3,51,127,50
3,51,0,57
3,51,127,63
3,51,0,63
3,51,127,57
3,51,0,60
3,50,118,0
3,51,120,60
3,50,0,7
3,51,0,53
3,53,116,0
3,53,0,52
3,46,127,8
3,50,127,120
3,46,0,8
3,53,127,52
3,50,0,6
3,53,0,54
3,55,127,0
3,50,123,180
3,55,0,5
3,50,0,51
3,53,127,4
3,53,0,176
3,48,113,4
3,48,0,60
3,53,127,0
3,53,0,180
3,48,111,0
3,48,0,57
3,51,127,3
3,46,114,180
3,51,0,3
3,46,0,55
3,51,114,2
3,51,0,64
3,46,127,74
3,46,0,56
3,51,93,3
3,55,126,60
3,51,0,6
3,58,127,54
3,55,0,1
3,58,0,116
3,55,120,1
3,55,0,61
3,53,127,1
3,50,102,28
3,53,0,8
3,48,120,16
3,50,0,2
3,48,0,51
3,34,120,5
3,34,0,121
3,38,127,9
3,41,127,60
3,38,0,5
3,41,0,55
3,43,120,0
3,38,120,180
3,43,0,5
3,41,127,55
3,38,0,3
3,36,127,177
3,41,0,5
3,36,0,52
3,41,127,3
3,36,123,180
3,41,0,7
3,36,0,48
3,39,114,5
3,39,0,178
3,34,116,2
3,34,0,58
3,39,127,2
3,34,124,240
3,39,0,11
3,34,0,44
3,39,82,5
3,43,84,60
3,39,0,1
3,46,127,59
3,43,0,16
3,43,116,104
3,46,0,12
3,41,127,48
3,43,0,7
3,41,0,23
3,38,120,0
3,36,100,30
3,38,0,8
3,36,0,48
3,34,127,4
3,38,120,120
3,34,0,2
3,38,0,58
3,41,118,0
3,41,0,56
3,43,126,4
3,38,116,180
3,43,0,5
3,41,127,55
3,38,0,2
3,36,126,178
3,41,0,7
3,36,0,51
3,41,127,2
3,36,106,180
3,41,0,3
3,36,0,52
3,39,127,5
3,34,120,180
3,39,0,2
3,34,0,55
3,39,127,3
3,39,0,217
3,34,127,16
3,39,124,55
3,34,0,5
3,39,0,53
3,43,127,2
3,46,127,62
3,43,0,1
3,46,0,124
3,43,127,2
3,43,0,54
3,41,127,1
3,38,103,31
3,41,0,13
3,36,127,14
3,38,0,4
3,34,127,56
3,36,0,1
3,34,0,124
3,38,127,0
3,38,0,55
3,41,118,0
3,41,0,58
3,43,127,2
3,43,0,181
3,38,123,10
3,41,127,59
3,38,0,1
3,36,127,177
3,41,0,2
3,36,0,54
3,41,127,2
3,36,127,181
3,41,0,9
3,39,127,50
3,36,0,6
3,34,127,178
3,39,0,6
3,34,0,47
3,39,127,7
3,39,0,218
3,34,127,22
3,39,127,57
3,34,0,6
3,43,127,54
3,39,0,3
3,46,127,57
3,43,0,2
3,46,0,120
3,43,127,6
3,41,109,56
3,43,0,12
3,38,106,13
3,41,0,6
3,36,127,29
3,38,0,6
3,36,0,52
3,34,127,1
3,34,0,117
3,38,126,3
3,38,0,34
3,41,120,0
3,41,0,31
3,43,127,4
3,38,123,177
3,43,0,4
3,38,0,55
3,41,127,4
3,36,111,175
3,41,0,1
3,41,127,61
3,36,0,7
3,36,126,173
3,41,0,4
3,36,0,54
3,39,127,3
3,39,0,180
3,34,127,2
3,34,0,51
3,39,127,6
3,39,0,25
3,34,127,16
3,39,127,59
3,34,0,4
3,39,0,55
3,43,127,1
3,43,0,64
3,46,127,1
3,46,0,121
3,43,127,7
3,43,0,58
3,41,127,2
3,38,105,23
3,41,0,7
3,36,127,27
3,38,0,6
3,34,127,50
3,36,0,4
3,34,0,131
3,38,127,0
3,41,123,49
3,38,0,1
3,41,0,54
3,43,127,6
3,38,127,182
3,43,0,1
3,41,127,58
3,38,0,2
3,36,127,181
3,41,0,1
3,41,127,59
3,36,0,2
3,36,126,178
3,41,0,28
3,39,127,32
3,36,0,1
3,39,0,174
3,34,127,2
3,34,0,49
3,39,127,9
3,39,0,213
3,43,127,992
3,41,127,480
3,43,0,2
3,41,0,473
3,39,127,5
3,39,0,450
3,39,127,30
3,38,127,360
3,39,0,5
3,38,0,55
3,36,127,0
3,34,127,60
3,36,0,5
3,34,0,602
3,34,112,53
3,34,0,58
3,36,127,2
3,38,109,60
3,36,0,1
3,41,127,59
3,38,0,5
3,43,127,55
3,41,0,1
3,43,0,54
3,44,127,5
3,44,0,960
3,43,127,0
3,43,0,480
3,41,127,0
3,36,127,360
3,41,0,1
3,36,0,59
3,38,127,0
3,38,0,56
3,39,127,4
3,38,127,720
3,39,0,8
3,38,0,48
3,39,114,4
3,32,127,60
3,39,0,10
3,34,127,50
3,32,0,1
3,34,0,13
4,31,127,477
4,31,0,22
4,31,127,39
4,31,0,60
4,43,127,3
4,43,0,50
4,41,127,4
4,43,127,7
4,41,0,4
4,43,0,48
4,31,127,3
4,31,0,25
4,31,127,33
4,31,0,56
4,43,127,1
4,43,0,56
4,41,127,5
4,41,0,28
4,31,127,29
4,34,125,3
4,34,0,8
4,31,0,19
4,31,127,32
4,31,0,61
4,43,127,3
4,31,127,57
4,43,0,3
4,31,0,15
4,43,127,46
4,46,127,60
4,48,127,3
4,43,0,9
4,48,0,2
4,46,0,41
4,43,127,5
4,41,127,58
4,43,0,14
4,41,0,22
4,31,127,24
4,34,127,1
4,34,0,5
4,31,0,17
4,31,127,35
4,31,0,58
4,43,127,5
4,31,127,55
4,43,0,8
4,31,0,13
4,31,127,40
4,31,0,22
4,31,127,37
4,31,0,63
4,43,127,3
4,31,127,56
4,43,0,5
4,31,0,23
4,31,127,39
4,31,0,10
4,31,127,47
4,31,0,56
4,43,127,5
4,43,0,23
4,41,127,30
4,43,127,4
4,41,0,16
4,43,0,40
4,31,127,2
4,46,127,62
4,31,0,6
4,41,127,47
4,46,0,7
4,43,127,3
4,41,0,40
4,41,127,12
4,43,0,4
4,29,127,59
4,41,0,13
4,29,0,13
4,29,127,34
4,29,0,58
4,41,127,4
4,41,0,28
4,41,127,34
4,41,0,55
4,29,127,3
4,29,0,23
4,29,127,37
4,29,0,59
4,41,127,3
4,41,0,28
4,41,127,35
4,41,0,25
4,29,127,30
4,29,0,31
4,29,127,27
4,29,0,58
4,41,127,4
4,41,0,21
4,41,127,39
4,41,0,56
4,29,127,5
4,29,0,58
4,43,127,1
4,43,0,61
4,46,127,2
4,46,0,51
4,48,127,6
4,48,0,56
4,46,127,4
4,46,0,58
4,39,127,0
4,39,0,56
4,43,127,6
4,39,127,60
4,43,0,2
4,39,0,19
4,39,127,41
4,39,0,62
4,43,127,1
4,43,0,47
4,39,127,13
4,39,0,52
4,43,127,6
4,39,127,120
4,43,0,3
4,39,0,12
4,39,127,42
4,39,0,60
4,46,127,0
4,46,0,115
4,43,127,5
4,39,127,57
4,43,0,9
4,43,125,56
4,39,0,53
4,31,127,3
4,43,0,5
4,31,0,23
4,31,127,35
4,43,127,65
4,31,0,45
4,43,0,3
4,41,127,6
4,43,127,11
4,41,0,23
4,43,0,27
4,31,127,2
4,31,0,31
4,31,127,28
4,43,127,59
4,31,0,33
4,43,0,17
4,41,127,7
4,43,127,5
4,41,0,10
4,43,0,45
4,31,127,0
4,31,0,33
4,31,127,29
4,43,127,63
4,31,0,1
4,43,0,49
4,31,127,9
4,31,0,51
4,43,127,10
4,43,0,61
4,46,127,1
4,46,0,57
4,41,127,3
4,41,0,56
4,43,127,0
4,43,0,50
4,31,127,4
4,31,0,20
