track,note,velocity,time
3,62,100,2
3,59,91,155
3,62,0,1
3,59,0,85
3,55,94,7
3,55,0,81
3,62,92,7
3,59,90,161
3,62,0,2
3,59,0,87
3,55,100,4
3,55,0,279
3,57,106,9
3,60,98,176
3,57,0,18
3,62,86,77
3,60,0,1
3,62,0,102
3,62,108,86
3,62,0,44
3,62,87,30
3,62,0,91
3,60,92,3
3,57,65,191
3,60,0,1
3,60,95,94
3,57,0,1
3,60,0,191
3,57,94,192
3,60,85,97
3,57,0,5
3,60,0,181
3,57,78,4
3,57,0,94
3,60,95,2
3,60,0,32
3,57,94,6
3,57,0,396
3,57,108,374
3,60,102,195
3,57,0,12
3,62,91,84
3,60,0,12
3,62,0,136
3,62,106,41
3,62,0,83
3,60,86,12
3,60,0,64
3,60,100,30
3,62,78,191
3,60,0,11
3,62,0,83
3,55,104,3
3,55,0,2
3,69,102,15
3,69,0,18
3,69,100,35
3,67,66,192
3,69,0,10
3,67,0,29
3,72,106,4
3,71,94,72
3,72,0,8
3,71,0,212
3,69,100,1
3,69,0,58
3,69,87,36
3,69,0,183
3,67,92,13
3,67,0,213
3,64,102,74
3,64,88,191
3,64,0,5
3,64,0,18
3,64,95,30
3,64,0,139
3,64,100,7
3,64,0,91
3,64,97,5
3,64,0,5
3,57,90,7
3,57,0,7
3,57,86,186
3,57,0,34
3,64,102,1
3,64,0,58
3,62,100,12
3,62,0,28
3,62,106,68
3,62,0,168
3,57,91,11
3,57,0,37
3,62,108,58
3,62,0,59
3,60,94,26
3,60,0,87
3,57,81,8
3,57,0,92
3,60,97,3
3,60,0,16
3,57,94,0
3,57,0,33
3,57,104,49
3,57,0,88
3,62,106,0
3,62,0,49
3,62,97,36
3,62,0,41
3,60,97,20
3,60,0,134
3,60,87,53
3,60,0,85
3,57,61,0
3,57,0,66
3,60,104,44
3,60,0,107
3,60,97,61
3,60,0,143
3,62,100,55
3,62,0,44
3,62,100,5
3,62,0,185
3,55,80,165
3,55,0,44
3,55,106,52
3,62,110,88
3,55,0,6
3,62,0,44
3,62,102,41
3,62,0,157
3,60,91,36
3,60,0,140
3,62,98,58
3,62,0,88
3,64,90,5
3,64,0,47
3,62,106,47
3,62,0,52
3,62,98,33
3,60,83,94
3,62,0,8
3,57,45,83
3,60,0,5
3,57,0,58
3,60,104,48
3,60,0,50
3,60,100,45
3,60,0,44
3,60,97,52
3,60,0,5
3,57,95,11
3,60,94,82
3,57,0,9
3,60,0,79
3,62,90,0
3,62,0,47
3,62,110,5
3,62,0,220
3,55,91,2
3,60,98,95
3,55,0,3
3,60,0,54
3,60,94,36
3,60,0,44
3,67,98,52
3,67,0,25
3,62,102,28
3,62,0,42
3,62,100,33
3,62,0,47
3,62,112,47
3,62,0,5
3,62,110,4
3,62,0,425
3,63,99,960
3,64,91,50
3,63,0,11
3,64,0,77
3,64,102,2
3,64,0,91
3,64,106,65
3,64,0,130
3,64,97,6
3,64,0,27
3,64,100,39
3,64,0,115
3,64,108,2
3,64,0,27
3,62,106,20
3,62,0,50
3,60,83,21
3,60,0,52
3,60,98,43
3,60,0,121
3,60,102,27
3,60,0,60
3,60,97,29
3,60,0,32
3,64,104,13
3,64,0,43
3,64,106,26
3,64,0,220
3,64,104,4
3,64,0,23
3,64,102,50
3,64,0,124
3,67,106,68
3,67,0,33
3,67,104,53
3,67,0,121
3,64,90,72
3,64,0,52
3,62,102,44
3,62,0,10
3,62,95,11
3,62,0,3
3,62,106,32
3,62,0,318
3,64,100,683
3,63,97,94
3,64,0,2
3,63,0,1
3,64,102,0
3,64,0,32
3,64,100,43
3,64,0,215
3,64,98,71
3,55,100,98
3,64,0,4
3,55,0,90
3,63,91,99
3,64,95,48
3,63,0,11
3,64,0,28
3,62,90,23
3,62,0,25
3,60,90,29
3,55,95,94
3,60,0,3
3,55,0,115
3,57,102,73
3,57,0,6
3,64,104,3
3,64,0,108
3,64,98,54
3,64,0,56
3,64,100,0
3,64,0,118
3,64,97,42
3,64,0,116
3,69,112,7
3,69,0,225
3,67,104,53
3,64,108,201
3,67,0,3
3,64,0,139
3,64,100,17
3,64,0,70
3,64,94,96
3,62,108,44
3,64,0,2
3,62,0,226
3,64,112,973
3,64,0,97
3,64,104,92
3,62,112,49
3,64,0,2
3,62,0,248
3,57,106,9
3,60,98,176
3,57,0,18
3,62,86,77
3,60,0,1
3,62,0,102
3,62,108,86
3,62,0,44
3,62,87,30
3,62,0,91
3,60,92,3
3,57,65,191
3,60,0,1
3,60,95,94
3,57,0,1
3,60,0,191
3,57,94,192
3,60,85,97
3,57,0,5
3,60,0,181
3,57,78,4
3,57,0,94
3,60,95,2
3,60,0,25
3,57,94,13
3,57,0,396
3,57,94,374
3,57,0,108
3,60,95,85
3,60,0,3
3,62,90,76
3,62,0,199
3,59,84,73
3,55,91,96
3,59,0,48
3,55,0,322
3,69,102,15
3,69,0,18
3,69,100,35
3,67,66,192
3,69,0,10
3,67,0,29
3,72,106,4
3,71,94,72
3,72,0,8
3,71,0,212
3,69,100,4
3,69,0,48
3,69,87,36
3,67,92,196
3,69,0,11
3,67,0,113
3,64,102,24
3,64,0,141
3,64,88,8
3,64,0,23
3,64,95,30
3,64,0,139
3,64,100,7
3,64,0,91
3,64,97,5
3,64,0,5
3,57,90,10
3,57,0,10
3,64,100,103
3,62,88,3
3,64,0,20
3,62,0,99
3,60,90,72
3,60,0,130
3,57,79,61
3,57,0,38
3,64,104,19
3,64,0,3
3,62,92,5
3,62,0,134
3,60,91,60
3,60,0,84
3,55,76,106
3,55,0,42
3,57,92,55
3,57,0,2
3,55,94,15
3,55,0,33
3,55,104,49
3,55,0,88
3,62,106,0
3,62,0,49
3,62,97,36
3,62,0,41
3,60,97,20
3,60,0,134
3,60,87,53
3,60,0,85
3,57,61,0
3,57,0,66
3,60,104,44
3,60,104,1
3,60,0,44
3,60,0,9
3,60,97,133
3,60,0,143
3,62,100,55
3,62,0,44
3,62,100,5
3,62,0,185
3,55,80,165
3,55,0,44
3,55,106,52
3,62,110,88
3,55,0,6
3,62,0,44
3,62,102,41
3,62,0,157
3,60,91,36
3,60,0,140
3,62,98,58
3,62,0,88
3,64,90,5
3,64,0,47
3,62,106,47
3,62,0,52
3,62,98,33
3,60,83,94
3,62,0,8
3,57,45,83
3,60,0,5
3,57,0,58
3,60,104,49
3,60,0,50
3,60,100,44
3,60,0,44
3,60,97,52
3,60,0,5
3,57,95,11
3,60,94,82
3,57,0,9
3,60,0,79
3,62,90,0
3,62,0,47
3,62,110,5
3,62,0,220
3,55,91,1
3,60,98,95
3,55,0,6
3,60,0,51
3,60,94,36
3,60,0,44
3,67,98,52
3,67,0,25
3,67,98,715
3,62,74,206
3,67,0,9
3,62,0,44
3,62,97,45
3,62,0,30
3,62,104,73
3,62,0,407
3,64,102,1047
3,64,0,91
3,64,106,62
3,64,0,130
3,64,97,6
3,64,0,27
3,64,100,39
3,64,0,115
3,64,108,3
3,64,0,28
3,62,106,20
3,62,0,50
3,60,83,21
3,60,0,52
3,60,98,43
3,60,0,121
3,60,102,27
3,60,0,60
3,60,97,29
3,60,0,32
3,64,104,13
3,64,0,43
3,64,106,26
3,64,0,220
3,64,104,4
3,64,0,23
3,64,102,50
3,64,0,124
3,67,106,68
3,67,0,33
3,67,104,53
3,67,0,121
3,64,90,72
3,64,0,52
3,62,102,44
3,62,0,10
3,62,95,11
3,62,0,3
3,62,106,32
3,62,0,318
3,64,102,873
3,64,0,28
3,64,100,47
3,64,0,215
3,64,98,71
3,55,100,98
3,64,0,4
3,55,0,90
3,63,91,99
3,64,95,48
3,63,0,11
3,64,0,28
3,62,90,23
3,62,0,25
3,60,90,31
3,55,95,92
3,60,0,5
3,55,0,113
3,57,102,73
3,57,0,6
3,64,104,3
3,64,0,108
3,64,98,54
3,64,0,56
3,64,100,0
3,64,0,118
3,64,97,42
3,64,0,116
3,69,112,26
3,69,0,5
3,67,104,67
3,64,108,202
3,67,0,2
3,64,0,140
3,64,100,17
3,64,0,70
3,64,94,96
3,62,108,44
3,64,0,5
3,62,0,226
3,64,112,973
3,64,0,97
3,64,102,97
3,64,0,91
3,64,106,62
3,64,0,130
3,64,97,6
3,64,0,27
3,64,100,39
3,64,0,115
3,64,108,3
3,64,0,28
3,62,106,20
3,62,0,50
3,60,83,22
3,60,0,52
3,60,98,42
3,60,0,121
3,60,102,27
3,60,0,60
3,60,97,29
3,60,0,32
3,64,104,13
3,64,0,43
3,64,106,26
3,64,0,220
3,64,104,4
3,64,0,23
3,64,102,50
3,64,0,124
3,67,106,70
3,67,0,35
3,67,104,51
3,67,0,121
3,64,90,72
3,64,0,52
3,62,102,44
3,62,0,10
3,62,95,11
3,62,0,3
3,62,106,32
3,62,0,318
3,64,100,0
3,64,0,3
3,64,95,18
3,57,91,69
3,64,0,2
3,57,0,144
3,64,108,16
3,57,98,67
3,64,0,7
3,57,0,112
3,62,110,75
3,62,0,42
3,62,95,39
3,62,0,188
3,60,94,5
3,60,0,96
3,55,88,92
3,55,0,42
3,59,94,3
3,59,0,479
3,64,104,3
3,64,0,108
3,64,98,54
3,64,0,56
3,64,100,0
3,64,0,118
3,64,97,42
3,64,0,116
3,69,112,26
3,69,0,5
3,67,104,67
3,64,108,203
3,67,0,1
3,64,0,141
3,64,100,17
3,64,0,70
3,64,94,95
3,62,108,45
3,64,0,4
3,62,0,226
3,64,102,43
3,64,0,238
3,64,106,100
3,64,0,131
3,60,91,0
3,60,0,529
3,64,117,15
3,64,0,67
3,64,110,32
3,64,0,200
3,62,110,2
3,62,0,4
3,74,79,32
3,72,97,2
3,74,0,6
3,72,0,160
3,71,92,8
3,71,0,59
3,71,108,38
3,71,0,97
3,69,95,0
3,69,0,56
3,69,106,43
3,69,0,86
3,67,68,5
3,67,0,65
3,67,106,5
3,67,0,58
3,62,94,1
3,62,0,53
3,62,102,45
3,62,0,1
4,40,52,673
4,40,0,24
4,40,62,8
4,40,0,23
4,40,70,9
4,40,0,23
4,40,123,9
4,40,0,36
4,45,120,59
4,45,0,36
4,35,120,61
4,35,0,36
4,57,104,156
4,40,122,0
4,42,114,1
4,40,0,35
4,57,0,0
4,42,0,1
4,42,54,59
4,35,120,0
4,35,0,35
4,42,0,0
4,42,114,61
4,35,120,0
4,42,0,16
4,35,0,20
4,42,58,11
4,42,0,17
4,70,94,32
4,42,54,0
4,42,0,36
4,70,0,3
4,42,114,57
4,40,122,0
4,40,0,36
4,42,0,0
4,42,54,60
4,42,0,12
4,42,66,36
4,42,0,12
4,42,114,36
4,35,120,0
4,35,0,35
4,42,0,1
4,70,74,12
4,70,0,39
4,42,54,9
4,82,64,0
4,42,0,36
4,82,0,11
4,69,54,1
4,69,0,23
4,42,114,25
4,40,122,0
4,40,0,35
4,42,0,0
4,42,54,61
4,35,120,0
4,35,0,36
4,42,0,0
4,42,114,60
4,35,120,0
4,42,0,16
4,35,0,19
4,42,58,13
4,42,0,16
4,70,94,32
4,42,54,0
4,42,0,36
4,70,0,4
4,42,114,56
4,40,122,0
4,40,0,35
4,42,0,0
4,42,54,61
4,42,0,12
4,42,66,35
4,42,0,13
4,42,114,36
4,35,120,0
4,35,0,35
4,42,0,1
4,70,74,12
4,70,0,39
4,42,54,9
4,82,64,0
4,42,0,36
4,82,0,11
4,69,54,1
4,69,0,23
4,42,114,25
4,40,122,0
4,40,0,35
4,42,0,0
4,42,54,61
4,35,120,0
4,35,0,36
4,42,0,0
4,42,114,60
4,35,120,0
4,42,0,16
4,35,0,19
4,42,58,13
4,42,0,16
4,70,94,32
4,42,54,0
4,42,0,36
4,70,0,4
4,42,114,56
4,40,122,0
4,40,0,35
4,42,0,0
4,42,54,61
4,42,0,12
4,42,66,35
4,42,0,13
4,42,114,36
4,35,120,0
4,35,0,35
4,42,0,1
4,70,74,12
4,70,0,39
4,42,54,9
4,82,64,0
4,42,0,36
4,82,0,11
4,69,54,1
4,69,0,23
4,42,114,25
4,40,122,0
4,40,0,35
4,42,0,0
4,42,54,61
4,35,120,0
4,35,0,36
4,42,0,0
4,42,114,60
4,35,120,0
4,42,0,16
4,35,0,19
4,42,58,13
4,42,0,16
4,70,94,32
4,42,54,0
4,42,0,36
4,70,0,4
4,42,114,56
4,40,122,0
4,40,0,35
4,42,0,0
4,42,54,61
4,42,0,12
4,42,66,35
4,42,0,13
4,42,114,36
4,35,120,0
4,35,0,35
4,42,0,1
4,70,74,12
4,70,0,39
4,42,54,9
4,82,64,0
4,42,0,36
4,82,0,11
4,69,54,1
4,69,0,23
4,42,114,25
4,40,122,0
4,40,0,35
4,42,0,0
4,42,54,61
4,35,120,0
4,35,0,36
4,42,0,0
4,42,114,60
4,35,120,0
4,42,0,16
4,35,0,19
4,42,58,13
4,42,0,16
4,70,94,32
4,42,54,0
4,42,0,36
4,70,0,4
4,42,114,56
4,40,122,0
4,40,0,35
4,42,0,0
4,42,54,61
4,42,0,12
4,42,66,35
4,42,0,13
4,42,114,36
4,35,120,0
4,35,0,35
4,42,0,1
4,70,74,12
4,70,0,39
4,42,54,9
4,82,64,0
4,42,0,36
4,82,0,11
4,69,54,1
4,69,0,23
4,42,114,25
4,40,122,0
4,40,0,35
4,42,0,0
4,42,54,61
4,35,120,0
4,35,0,36
4,42,0,0
4,42,114,60
4,35,120,0
4,42,0,16
4,35,0,19
4,42,58,13
4,42,0,16
4,70,94,32
4,42,54,0
4,42,0,36
4,70,0,4
4,42,114,56
4,40,122,0
4,40,0,35
4,42,0,0
4,42,54,61
4,42,0,12
4,42,66,35
4,42,0,13
4,42,114,36
4,35,120,0
4,35,0,35
4,42,0,1
4,70,74,12
4,70,0,39
4,42,54,9
4,82,64,0
4,42,0,36
4,82,0,11
4,69,54,1
4,69,0,23
4,42,114,25
4,40,122,0
4,40,0,35
4,42,0,0
4,42,54,61
4,35,120,0
4,35,0,36
4,42,0,0
4,42,114,60
4,35,120,0
4,42,0,16
4,35,0,19
4,42,58,13
4,42,0,16
4,70,94,32
4,42,54,0
4,42,0,36
4,70,0,4
4,42,114,56
4,40,122,0
4,40,0,35
4,42,0,0
4,42,54,61
4,42,0,12
4,42,66,35
4,42,0,13
4,42,114,36
4,35,120,0
4,35,0,35
4,42,0,1
4,70,74,12
4,70,0,39
4,42,54,9
4,82,64,0
4,42,0,36
4,82,0,11
4,69,54,1
4,69,0,23
4,42,114,25
4,40,122,0
4,40,0,35
4,42,0,0
4,42,54,61
4,35,120,0
4,35,0,36
4,42,0,0
4,42,114,60
4,35,120,0
4,42,0,16
4,35,0,19
4,42,58,13
4,42,0,16
4,70,94,32
4,42,54,0
4,42,0,36
4,70,0,4
4,42,114,56
4,40,122,0
4,40,0,35
4,42,0,0
4,42,54,61
4,42,0,12
4,42,66,35
4,42,0,13
4,42,114,36
4,35,120,0
4,35,0,35
4,42,0,1
4,70,74,12
4,70,0,39
4,42,54,9
4,82,64,0
4,42,0,36
4,82,0,11
4,69,54,1
4,69,0,23
4,42,114,25
4,40,122,0
4,40,0,35
4,42,0,0
4,42,54,61
4,35,120,0
4,35,0,36
4,42,0,0
4,42,114,60
4,35,120,0
4,42,0,16
4,35,0,19
4,42,58,13
4,42,0,16
4,70,94,32
4,42,54,0
4,42,0,36
4,70,0,4
4,42,114,56
4,40,122,0
4,40,0,35
4,42,0,0
4,42,54,61
4,42,0,12
4,42,66,35
4,42,0,13
4,42,114,36
4,35,120,0
4,35,0,35
4,42,0,1
4,70,74,12
4,70,0,39
4,42,54,9
4,82,64,0
4,42,0,36
4,82,0,11
4,69,54,1
4,69,0,23
4,42,114,25
4,40,122,0
4,40,0,35
4,42,0,0
4,42,54,61
4,35,120,0
4,35,0,36
4,42,0,0
4,42,114,60
4,35,120,0
4,42,0,16
4,35,0,19
4,42,58,13
4,42,0,16
4,70,94,32
4,42,54,0
4,42,0,36
4,70,0,4
4,42,114,56
4,40,122,0
4,40,0,35
4,42,0,0
4,42,54,61
4,42,0,12
