track,note,velocity,time
1,57,107,2672
1,69,87,0
1,48,77,180
1,60,57,0
1,53,85,196
1,65,65,0
1,58,99,200
1,70,79,0
1,48,75,12
1,60,55,0
1,53,79,60
1,65,59,0
1,58,95,4
1,70,75,0
1,57,99,64
1,69,79,0
1,48,77,188
1,60,57,0
1,53,79,148
1,65,59,0
1,55,104,200
1,67,84,0
1,57,94,380
1,69,74,0
1,55,85,4
1,67,65,0
1,53,69,4
1,65,56,0
1,57,104,68
1,69,84,0
1,48,56,188
1,60,36,0
1,53,75,160
1,65,55,0
1,58,103,188
1,70,83,0
1,48,77,48
1,60,57,0
1,53,82,8
1,65,62,0
1,58,93,60
1,70,73,0
1,57,97,76
1,69,77,0
1,48,67,188
1,60,47,0
1,53,85,164
1,65,65,0
1,55,94,196
1,67,74,0
1,57,97,332
1,69,77,0
1,55,92,168
1,67,72,0
1,53,94,148
1,65,74,0
1,57,104,192
1,69,84,0
1,48,75,180
1,60,55,0
1,53,79,140
1,65,59,0
1,58,99,20
1,70,79,0
1,48,79,380
1,60,59,0
1,53,77,196
1,65,57,0
1,58,95,4
1,70,75,0
1,57,99,68
1,69,79,0
1,48,73,188
1,60,53,0
1,53,89,160
1,65,69,0
1,55,97,196
1,67,77,0
1,57,92,288
1,69,72,0
1,55,92,136
1,67,72,0
1,53,97,144
1,65,77,0
1,57,104,320
1,69,84,0
1,48,71,184
1,60,51,0
1,53,77,148
1,65,57,0
1,58,95,200
1,70,75,0
1,48,71,32
1,60,51,0
1,53,79,8
1,65,59,0
1,58,93,40
1,70,73,0
1,57,99,56
1,69,79,0
1,48,75,184
1,60,55,0
1,53,82,156
1,65,62,0
1,55,94,204
1,67,74,0
1,57,94,340
1,69,74,0
1,55,87,156
1,67,67,0
1,53,97,144
1,65,77,0
1,57,104,912
1,69,84,0
1,48,71,188
1,60,51,0
1,53,87,192
1,65,67,0
1,58,103,20
1,70,83,0
1,48,56,400
1,60,36,0
1,53,82,184
1,65,62,0
1,58,95,44
1,70,75,0
1,57,99,12
1,69,79,0
1,48,77,188
1,60,57,0
1,53,87,168
1,65,67,0
1,55,94,192
1,67,74,0
1,57,89,8
1,69,69,0
1,55,82,188
1,67,62,0
1,53,97,156
1,65,77,0
1,57,99,1248
1,69,79,0
1,48,67,192
1,60,47,0
1,53,85,188
1,65,65,0
1,58,99,4
1,70,79,0
1,48,79,384
1,60,59,0
1,53,87,136
1,65,67,0
1,58,99,184
1,70,79,0
1,57,97,68
1,69,77,0
1,48,79,192
1,60,59,0
1,53,89,164
1,65,69,0
1,55,102,200
1,67,82,0
1,57,94,332
1,69,74,0
1,55,89,132
1,67,69,0
1,53,92,0
1,65,72,0
1,57,104,1612
1,69,84,0
1,48,67,188
1,60,47,0
1,53,87,188
1,65,67,0
1,58,99,8
1,70,79,0
1,48,73,388
1,60,53,0
1,53,79,132
1,65,59,0
1,58,95,184
1,70,75,0
1,57,94,20
1,69,74,0
1,48,73,188
1,60,53,0
1,53,71,168
1,65,51,0
1,55,99,24
1,67,79,0
1,57,92,20
1,69,72,0
1,55,92,200
1,67,72,0
1,53,97,132
1,65,77,0
1,57,107,1044
1,69,87,0
1,48,64,188
1,60,44,0
1,53,79,160
1,65,59,0
1,58,107,192
1,70,87,0
1,48,79,344
1,60,59,0
1,53,87,136
1,65,67,0
1,58,95,0
1,70,75,0
1,57,99,56
1,69,79,0
1,48,71,184
1,60,51,0
1,53,89,152
1,65,69,0
1,55,94,4
1,67,74,0
1,57,92,388
1,69,72,0
1,55,89,156
1,67,69,0
1,53,79,144
1,65,59,0
1,60,110,160
1,55,94,0
1,64,104,0
1,55,99,68
1,55,25,4
1,60,97,12
1,64,99,28
1,60,104,0
1,55,92,4
1,60,104,8
1,55,94,0
1,64,102,0
1,60,107,20
1,64,102,0
1,55,94,4
1,58,110,212
1,62,102,4
1,57,110,764
1,60,107,0
1,53,104,244
1,58,95,136
1,62,97,0
1,65,99,4
1,58,116,52
1,65,62,12
1,62,94,36
1,58,89,32
1,62,92,0
1,65,94,4
1,58,103,4
1,62,97,4
1,65,97,4
1,58,95,68
1,58,99,88
1,62,97,0
1,53,92,576
1,58,107,96
1,62,99,8
1,53,87,0
1,58,99,4
1,53,102,32
1,58,99,52
1,55,87,68
1,60,102,4
1,64,97,4
1,64,104,148
1,55,102,4
1,60,102,0
1,60,107,8
1,64,99,0
1,55,94,4
1,55,89,4
1,60,104,0
1,64,97,0
1,60,115,248
1,64,104,0
1,55,97,4
1,58,110,212
1,62,102,0
1,60,110,112
1,57,110,0
1,53,104,760
1,58,103,228
1,62,94,4
1,65,92,4
1,58,116,56
1,65,31,8
1,62,89,32
1,62,94,4
1,58,78,4
1,65,97,0
1,58,116,60
1,62,52,4
1,65,92,0
1,62,65,4
1,57,107,80
1,60,107,0
1,53,79,4
1,53,104,216
1,57,97,16
1,60,79,16
1,57,62,4
1,55,115,136
1,60,110,4
1,53,94,4
1,57,107,240
1,69,87,0
1,48,77,184
1,60,57,0
1,53,85,196
1,65,65,0
1,58,99,200
1,70,79,0
1,48,75,0
1,60,55,0
1,53,79,196
1,65,59,0
1,58,95,12
1,70,75,0
1,57,99,68
1,69,79,0
1,48,77,188
1,60,57,0
1,53,79,148
1,65,59,0
1,55,104,200
1,67,84,0
1,57,94,380
1,69,74,0
1,55,85,4
1,67,65,0
1,53,47,4
1,65,27,0
1,57,104,68
1,69,84,0
1,48,56,188
1,60,36,0
1,53,75,160
1,65,55,0
1,58,103,188
1,70,83,0
1,48,77,80
1,60,57,0
1,53,82,36
1,65,62,0
1,58,93,12
1,70,73,0
1,57,97,76
1,69,77,0
1,48,67,188
1,60,47,0
1,53,85,164
1,65,65,0
1,55,94,196
1,67,74,0
1,57,97,332
1,69,77,0
1,55,92,168
1,67,72,0
1,53,94,148
1,65,74,0
1,57,104,868
1,69,84,0
1,48,71,188
1,60,51,0
1,53,87,192
1,65,67,0
1,58,103,20
1,70,83,0
1,48,56,400
1,60,36,0
1,53,82,184
1,65,62,0
1,58,95,68
1,70,75,0
1,57,99,4
1,69,79,0
1,48,77,188
1,60,57,0
1,53,87,168
1,65,67,0
1,55,94,192
1,67,74,0
1,57,89,8
1,69,69,0
1,55,82,192
1,67,62,0
1,53,97,156
1,65,77,0
1,57,99,1164
1,69,79,0
1,48,67,192
1,60,47,0
1,53,85,188
1,65,65,0
1,58,99,4
1,70,79,0
1,48,79,384
1,60,59,0
1,53,87,136
1,65,67,0
1,58,99,184
1,70,79,0
1,57,97,68
1,69,77,0
1,48,79,192
1,60,59,0
1,53,89,164
1,65,69,0
1,55,102,200
1,67,82,0
1,57,94,332
1,69,74,0
1,55,89,132
1,67,69,0
1,53,92,0
1,65,72,0
1,57,104,1624
1,69,84,0
1,48,67,188
1,60,47,0
1,53,87,188
1,65,67,0
1,58,99,8
1,70,79,0
1,48,73,388
1,60,53,0
1,53,79,132
1,65,59,0
1,58,95,184
1,70,75,0
1,57,94,20
1,69,74,0
1,48,73,188
1,60,53,0
1,53,71,168
1,65,51,0
1,55,99,24
1,67,79,0
1,57,92,36
1,69,72,0
1,55,92,196
1,67,72,0
1,53,97,132
1,65,77,0
1,57,107,1044
1,69,87,0
1,48,64,188
1,60,44,0
1,53,79,160
1,65,59,0
1,58,107,192
1,70,87,0
1,48,79,344
1,60,59,0
1,53,87,136
1,65,67,0
1,58,95,0
1,70,75,0
1,57,99,56
1,69,79,0
1,48,71,184
1,60,51,0
1,53,89,152
1,65,69,0
1,55,94,0
1,67,74,0
1,57,92,388
1,69,72,0
1,55,89,156
1,67,69,0
1,53,79,144
1,65,59,0
1,60,110,160
1,55,94,0
1,64,104,0
1,55,99,16
1,55,25,4
1,60,97,12
1,64,99,40
1,60,104,0
1,55,92,4
1,60,104,12
1,55,94,0
1,64,102,0
1,60,107,8
1,64,102,0
1,55,94,4
1,58,110,212
1,62,102,4
1,57,110,764
1,60,107,0
1,53,104,212
1,58,95,136
1,62,97,0
1,65,99,4
1,58,116,28
1,65,62,12
1,62,94,100
1,58,89,8
1,62,92,0
1,65,94,4
1,58,103,4
1,62,97,4
1,65,97,4
1,58,95,28
1,58,99,88
1,62,97,0
1,53,92,576
1,58,107,44
1,62,99,40
1,53,87,0
1,58,99,4
1,53,102,8
1,58,99,140
1,55,87,68
1,60,102,4
1,64,97,4
1,64,104,148
1,55,102,4
1,60,102,0
1,60,107,36
1,64,99,0
1,55,94,4
1,55,89,4
1,60,104,0
1,64,97,0
1,60,115,248
1,64,104,0
1,55,97,4
1,58,110,200
1,62,102,0
1,60,110,112
1,57,110,0
1,53,104,760
1,58,103,228
1,62,94,4
1,65,92,4
1,58,116,16
1,65,31,8
1,62,89,68
1,62,94,4
1,58,78,4
1,65,97,0
1,58,116,20
1,62,52,4
1,65,92,0
1,62,65,4
1,57,107,80
1,60,107,0
1,53,79,4
1,53,104,228
1,57,97,48
1,60,79,24
1,57,62,4
1,55,115,136
1,60,110,4
1,53,94,4
1,57,107,240
1,69,87,0
1,48,77,184
1,60,57,0
1,53,85,196
1,65,65,0
1,58,99,200
1,70,79,0
1,48,75,36
1,60,55,0
1,53,79,196
1,65,59,0
1,58,95,12
1,70,75,0
1,57,99,68
1,69,79,0
1,48,77,188
1,60,57,0
1,53,79,148
1,65,59,0
1,55,104,200
1,67,84,0
1,57,94,380
1,69,74,0
1,55,85,4
1,67,65,0
1,53,47,4
1,65,27,0
1,57,104,68
1,69,84,0
1,48,56,188
1,60,36,0
1,53,75,160
1,65,55,0
1,58,103,188
1,70,83,0
1,48,77,68
1,60,57,0
1,53,82,24
1,65,62,0
1,58,93,76
1,70,73,0
1,57,97,76
1,69,77,0
1,48,67,188
1,60,47,0
1,53,85,164
1,65,65,0
1,55,94,196
1,67,74,0
1,57,97,332
1,69,77,0
1,55,92,168
1,67,72,0
1,53,94,148
1,65,74,0
1,46,107,176
1,58,99,192
1,62,92,140
1,65,92,180
1,62,85,4
1,58,103,4
1,62,94,8
1,65,79,28
1,70,89,196
1,65,85,4
1,62,97,60
1,58,99,4
1,62,89,4
1,58,103,4
1,46,110,200
1,58,103,52
1,46,107,20
1,58,99,36
1,62,102,104
1,58,93,4
1,62,92,4
1,65,85,4
1,58,107,68
1,62,77,4
1,65,102,4
1,62,79,4
1,58,110,4
1,65,50,12
1,62,82,4
1,65,99,24
1,58,60,12
1,62,87,44
1,58,110,8
1,65,62,8
1,62,75,32
1,41,107,68
1,53,87,192
1,57,104,192
1,60,94,192
1,57,94,52
1,53,92,16
1,57,110,24
1,53,56,0
1,60,94,4
1,57,99,36
1,53,89,24
1,53,62,16
1,57,107,4
1,60,92,4
1,60,110,12
1,53,92,0
1,57,87,28
1,53,92,24
1,57,94,32
1,60,104,96
1,53,77,4
1,57,115,16
1,60,94,28
1,53,85,44
1,57,99,56
1,60,110,68
1,53,89,12
1,57,99,24
1,60,92,64
1,53,97,16
1,57,99,4
1,60,107,20
1,53,94,4
1,57,104,4
1,60,59,32
1,46,118,84
1,58,99,200
1,58,42,28
1,62,102,8
1,58,23,12
1,65,99,4
1,62,92,24
1,58,99,32
1,62,99,40
1,45,104,72
1,53,85,192
1,57,107,60
1,53,49,16
1,60,94,184
1,57,102,48
1,53,89,12
1,53,60,16
1,57,104,0
1,60,94,0
1,53,45,12
1,57,49,0
1,43,104,12
1,53,85,180
1,55,99,196
1,58,99,196
1,55,82,52
1,53,73,4
1,55,94,52
1,58,107,20
1,55,65,4
1,53,73,4
1,55,99,24
1,58,99,4
1,55,85,36
1,53,73,60
1,48,107,388
1,60,107,388
1,67,107,0
1,48,79,104
1,60,97,0
1,67,92,4
1,48,79,188
1,60,99,148
1,48,102,32
1,55,102,360
1,60,110,4
1,64,110,0
1,48,97,104
1,55,94,116
1,60,107,4
1,64,104,0
1,48,85,8
1,55,97,24
1,48,99,32
1,60,102,388
1,64,104,4
1,48,75,96
1,60,97,4
1,67,99,0
1,48,94,4
1,60,94,4
1,48,94,4
1,55,99,4
1,64,104,0
1,60,107,4
1,48,85,76
1,60,104,12
1,64,107,4
1,48,97,40
1,46,118,88
1,58,95,384
1,62,94,4
1,65,97,0
1,46,86,108
1,58,107,20
1,65,97,4
1,62,41,8
1,46,95,40
1,58,95,40
1,46,95,60
1,58,107,304
1,65,102,4
1,46,82,96
1,60,97,16
1,65,107,0
1,46,82,20
1,58,86,68
1,46,116,152
1,58,107,276
1,62,97,4
1,65,94,0
1,46,86,4
1,58,95,0
1,62,92,4
1,65,94,0
1,46,82,4
1,58,86,4
1,46,99,72
1,58,95,276
1,62,94,0
1,65,97,0
1,46,95,16
1,58,95,148
1,62,94,4
1,65,94,0
1,46,99,160
1,55,62,4
1,57,65,0
1,48,110,80
1,55,104,384
1,60,115,0
1,64,107,0
1,48,92,36
1,60,99,4
1,55,92,0
1,64,97,0
1,48,87,0
1,55,87,120
1,60,26,16
1,64,28,20
1,48,102,92
1,55,104,252
1,60,107,0
1,64,104,4
1,48,85,28
1,55,104,8
1,60,99,0
1,64,97,4
1,48,87,8
1,55,104,104
1,48,102,120
1,55,99,212
1,60,107,4
1,64,102,0
1,48,89,44
1,55,102,12
1,60,104,0
1,64,104,0
1,48,92,4
1,55,97,68
1,48,99,148
1,60,102,304
1,55,97,0
1,64,102,0
1,48,89,8
1,64,102,196
1,60,104,0
1,48,94,4
1,46,116,60
1,58,103,384
1,62,94,4
1,65,99,4
1,46,86,196
1,58,95,28
1,62,94,0
1,65,89,0
1,46,93,4
1,58,95,4
1,46,103,48
1,58,107,12
1,62,97,0
1,65,99,4
1,46,89,4
1,58,95,4
1,62,97,4
1,65,97,0
1,46,103,24
1,45,102,104
1,57,115,384
1,60,107,0
1,53,99,4
1,45,77,4
1,60,110,44
1,57,107,0
1,53,92,0
1,45,79,8
1,53,59,4
1,58,116,100
1,53,92,4
1,43,77,0
1,55,104,0
1,43,89,140
1,58,116,0
1,53,94,8
1,55,110,0
1,43,36,28
1,53,104,4
1,43,65,32
1,53,89,44
1,41,107,88
1,53,94,324
1,57,107,4
1,60,99,0
1,41,92,8
1,57,97,20
1,60,94,0
1,53,79,4
1,41,92,188
1,53,87,28
1,41,107,32
1,53,94,64
1,57,110,4
1,60,104,0
1,41,94,40
1,57,107,152
1,60,99,0
1,53,94,0
1,41,97,4
1,53,89,40
1,48,97,32
1,60,102,380
1,64,107,0
1,67,102,4
1,48,77,4
1,60,97,4
1,64,107,0
1,67,97,0
1,48,71,4
1,60,85,4
1,48,99,140
1,64,104,260
1,60,99,0
1,67,92,0
1,48,82,68
1,64,102,8
1,67,92,4
1,60,92,4
1,48,85,24
1,60,97,60
1,48,94,132
1,60,102,132
1,64,104,0
1,67,97,4
1,48,77,100
1,64,97,4
1,60,92,0
1,67,87,4
1,48,82,28
1,60,82,36
1,48,94,140
1,64,104,204
1,60,99,0
1,67,94,0
1,48,79,84
1,60,97,12
1,64,107,0
1,67,97,4
1,48,85,4
1,60,79,16
1,46,110,52
1,58,103,384
1,62,94,4
1,65,97,0
1,46,86,68
1,58,99,4
1,62,94,4
1,65,94,0
1,46,93,4
1,58,107,72
1,46,103,36
1,58,99,124
1,62,97,0
1,65,97,0
1,46,86,4
1,58,89,16
1,62,92,0
1,65,94,4
1,46,89,12
1,58,93,192
1,46,103,104
1,58,99,284
1,62,92,0
1,65,92,4
1,46,70,24
1,58,95,8
1,65,92,4
1,62,85,4
1,46,82,4
1,58,99,24
1,46,103,132
1,58,95,268
1,62,94,0
1,65,92,0
1,46,70,4
1,58,107,16
1,62,94,0
1,65,82,0
1,46,103,4
1,48,97,4
1,60,97,388
1,64,107,0
1,67,97,4
1,48,85,36
1,64,104,36
1,67,94,0
1,60,97,0
1,48,82,8
1,60,94,4
1,64,32,8
1,67,31,8
1,48,94,36
1,60,99,288
1,64,102,0
1,67,89,4
1,48,82,48
1,60,97,16
1,64,104,0
1,67,97,4
1,48,89,12
1,60,97,188
1,48,99,164
1,64,104,212
