track,note,velocity,time
3,64,69,3362
3,67,67,48
3,64,0,4
3,67,0,39
3,67,74,5
3,67,0,83
3,67,73,10
3,67,0,93
3,69,74,2
3,69,0,45
3,69,70,12
3,69,0,131
3,64,65,181
3,64,0,90
3,64,77,8
3,64,0,23
3,62,63,3
3,62,0,18
3,60,71,7
3,60,0,81
3,65,77,13
3,65,0,82
3,64,79,14
3,64,0,81
3,60,68,15
3,60,0,80
3,60,70,18
3,60,0,113
3,69,87,78
3,69,0,31
3,69,72,10
3,69,0,1
3,64,68,2
3,64,0,67
3,64,68,25
3,64,0,39
3,65,81,10
3,64,63,96
3,65,0,4
3,64,0,9
3,65,93,35
3,65,0,96
3,60,66,63
3,60,0,23
3,65,87,23
3,65,0,89
3,64,81,6
3,64,0,44
3,62,83,53
3,60,74,51
3,62,0,0
3,60,0,73
3,65,95,22
3,65,0,84
3,67,98,9
3,64,83,96
3,67,0,2
3,64,0,80
3,64,111,14
3,62,64,49
3,64,0,22
3,60,71,26
3,62,0,0
3,62,93,47
3,60,0,0
3,60,73,96
3,62,0,3
3,60,0,112
3,60,74,270
3,60,0,86
3,60,74,10
3,60,0,83
3,60,98,12
3,60,0,33
3,60,76,15
3,69,98,48
3,60,0,0
3,67,112,97
3,69,0,2
3,67,0,92
3,60,54,240
3,60,0,37
3,60,64,10
3,60,0,38
3,60,64,10
3,60,0,42
3,60,74,8
3,60,0,79
3,60,73,15
3,60,0,47
3,64,81,1
3,64,0,49
3,62,75,2
3,62,0,94
3,60,74,1
3,60,0,92
3,69,111,245
3,67,81,96
3,69,0,4
3,67,0,39
3,67,112,6
3,63,95,47
3,67,0,2
3,62,81,46
3,63,0,1
3,60,75,46
3,62,0,4
3,60,0,39
3,62,104,6
3,60,81,50
3,62,0,1
3,60,0,95
3,64,64,1438
3,64,0,39
3,64,71,9
3,67,74,46
3,64,0,1
3,67,0,45
3,67,93,4
3,67,0,84
3,67,86,11
3,64,64,48
3,67,0,2
3,64,0,46
3,69,83,1
3,69,0,47
3,67,73,2
3,67,0,86
3,67,52,14
3,67,0,56
3,64,75,272
3,64,0,71
3,62,67,4
3,64,72,23
3,62,0,3
3,64,0,19
3,62,65,3
3,62,0,23
3,60,63,1
3,60,0,46
3,60,65,26
3,60,0,19
3,65,69,5
3,65,0,83
3,64,83,11
3,64,0,91
3,62,67,4
3,60,59,51
3,62,0,3
3,60,0,41
3,60,62,6
3,60,0,101
3,69,85,43
3,67,71,92
3,69,0,4
3,67,0,36
3,67,71,9
3,67,0,23
3,67,93,27
3,67,0,20
3,65,72,3
3,65,0,22
3,64,79,2
3,64,0,36
3,64,85,12
3,64,0,44
3,65,104,6
3,64,72,95
3,65,0,3
3,64,0,12
3,65,111,33
3,65,0,108
3,65,85,107
3,64,79,94
3,65,0,0
3,64,0,90
3,62,74,6
3,60,66,49
3,62,0,1
3,60,0,37
3,60,77,10
3,65,98,49
3,60,0,1
3,65,0,90
3,67,87,4
3,67,0,37
3,64,100,10
3,64,0,85
3,64,85,12
3,64,0,23
3,62,68,1
3,62,0,21
3,60,68,3
3,60,0,72
3,62,98,72
3,60,83,35
3,62,0,37
3,60,0,17
3,60,70,318
3,60,0,40
3,60,73,10
3,60,0,90
3,60,74,4
3,60,0,84
3,60,93,12
3,60,0,37
3,60,85,12
3,60,0,45
3,69,86,1
3,67,77,96
3,69,0,9
3,67,0,87
3,60,64,239
3,60,0,39
3,60,77,10
3,60,0,38
3,60,62,10
3,60,0,40
3,60,76,9
3,60,0,73
3,60,83,22
3,60,0,34
3,64,100,13
3,62,77,49
3,64,0,1
3,60,74,47
3,62,0,3
3,60,0,37
3,60,74,11
3,60,0,94
3,69,104,239
3,67,81,97
3,69,0,6
3,67,0,32
3,67,87,9
3,63,111,49
3,67,0,2
3,62,77,46
3,63,0,4
3,62,0,36
3,60,64,6
3,62,111,50
3,60,0,6
3,60,77,69
3,62,0,6
3,60,0,101
3,62,100,490
3,62,0,77
3,62,104,18
3,62,0,92
3,60,76,3
3,60,0,107
3,60,74,278
3,60,0,36
3,60,65,11
3,60,0,39
3,60,67,11
3,60,0,34
3,60,63,13
3,60,0,33
3,60,67,14
3,60,0,27
3,60,72,22
3,60,0,24
3,60,83,2
3,60,0,38
3,69,83,35
3,69,0,133
3,67,64,10
3,67,0,43
3,67,90,4
3,67,0,78
3,69,98,115
3,67,87,95
3,69,0,1
3,67,0,37
3,67,95,9
3,64,108,48
3,67,0,3
3,62,75,45
3,64,0,5
3,62,0,40
3,60,70,3
3,62,98,48
3,60,0,1
3,62,0,49
3,60,79,1
3,60,0,131
3,57,81,1358
3,57,0,72
3,57,77,20
3,57,0,39
3,57,81,9
3,57,0,40
3,59,93,9
3,59,0,42
3,59,95,8
3,59,0,75
3,60,100,17
3,60,0,61
3,60,90,83
3,60,0,33
3,69,98,16
3,69,0,82
3,67,95,14
3,64,86,95
3,67,0,2
3,64,0,35
3,64,108,12
3,64,0,93
3,62,95,1
3,62,0,81
3,64,104,497
3,64,0,19
3,64,89,6
3,64,0,70
3,57,108,4
3,57,0,73
3,57,85,23
3,57,0,34
3,57,86,12
3,57,0,42
3,59,86,6
3,59,0,40
3,59,93,8
3,59,0,89
3,60,95,7
3,60,0,89
3,60,95,9
3,60,0,43
3,60,95,5
3,60,0,19
3,69,111,26
3,69,0,86
3,67,86,11
3,67,0,44
3,67,75,3
3,67,0,39
3,64,112,9
3,64,0,95
3,62,86,1
3,62,0,64
3,57,81,6804
3,57,0,72
3,57,77,20
3,57,0,39
3,57,81,9
3,57,0,40
3,59,93,9
3,59,0,42
3,59,95,8
3,59,0,75
3,60,100,17
3,60,0,61
3,60,90,83
3,60,0,33
3,69,98,16
3,69,0,82
3,67,95,14
3,64,86,95
3,67,0,2
3,64,0,35
3,64,108,12
3,64,0,93
3,62,95,1
3,62,0,81
3,64,104,497
3,64,0,19
3,64,90,6
3,64,0,70
3,57,108,2
3,57,0,73
3,57,85,25
3,57,85,45
3,57,0,27
3,59,86,22
3,57,0,23
3,59,0,17
3,59,93,8
3,59,0,89
3,60,95,7
3,60,0,89
3,60,95,9
3,60,0,43
3,60,95,5
3,60,0,19
3,69,111,26
3,69,0,86
3,67,86,11
3,67,0,44
3,67,75,3
3,67,0,39
3,64,112,9
3,64,0,95
3,62,86,1
3,62,0,64
3,64,69,563
3,64,0,85
3,57,60,9
3,57,0,38
3,57,71,12
3,57,0,39
3,57,83,9
3,57,0,86
3,59,72,9
3,59,0,82
3,59,87,13
3,59,0,36
3,59,79,12
3,59,0,40
3,60,83,8
3,60,0,88
3,60,79,8
3,60,0,36
3,60,73,12
3,60,0,43
3,69,83,4
3,67,74,48
3,69,0,0
3,67,0,39
3,67,87,9
3,67,0,41
3,64,74,5
3,62,86,99
3,64,0,4
3,62,0,87
3,64,81,220
3,64,0,16
3,69,81,9
3,69,0,34
3,69,83,14
3,69,0,12
3,67,75,11
3,67,0,41
3,64,74,8
3,64,0,14
3,69,93,9
3,67,93,96
3,69,0,2
3,64,90,45
3,67,0,1
3,57,69,98
3,64,0,5
3,57,0,37
3,57,67,7
3,57,0,38
3,57,71,10
3,57,0,36
3,57,74,10
3,57,0,43
3,59,87,5
3,59,0,82
3,59,90,14
3,59,0,36
3,59,79,11
3,59,0,40
3,60,95,8
3,60,0,85
3,60,85,11
3,60,0,33
3,60,73,14
3,60,0,47
3,69,75,1
3,69,0,46
3,67,75,3
3,67,0,45
3,64,75,3
3,64,0,38
3,64,98,11
3,64,0,89
3,62,73,4
3,62,0,46
3,62,93,4
3,62,0,62
3,69,112,227
3,67,71,48
3,69,0,2
3,67,0,13
3,67,87,9
3,67,0,37
3,64,77,10
3,64,0,17
3,69,104,8
3,67,95,48
3,69,0,44
3,67,0,2
3,64,83,49
3,57,65,99
3,64,0,3
3,57,0,33
3,57,74,12
3,57,0,36
3,57,85,12
3,57,0,83
3,59,87,11
3,59,0,87
3,59,86,10
3,59,0,36
3,59,104,12
3,59,0,40
3,60,87,7
3,60,0,88
3,60,79,7
3,60,0,36
3,60,71,12
3,60,0,46
3,69,90,2
3,67,86,48
3,69,0,10
3,64,87,38
3,67,0,0
3,64,0,41
3,64,111,8
3,62,86,96
3,64,0,2
3,62,0,83
3,69,114,250
3,69,0,46
3,67,74,1
3,67,0,16
3,67,90,7
3,67,0,33
3,64,85,16
3,64,0,17
3,69,112,8
3,67,108,74
3,69,0,18
3,64,104,52
3,67,0,0
3,64,0,95
3,57,72,2
3,57,0,38
3,57,74,10
3,57,0,34
3,57,75,13
3,57,0,38
3,57,85,11
3,57,0,40
3,59,100,8
3,59,0,84
3,59,100,13
3,59,0,34
3,59,90,12
3,59,0,36
3,60,108,12
3,60,0,85
3,60,74,11
3,60,0,31
3,60,77,17
3,60,0,45
3,69,85,3
3,67,81,48
3,69,0,5
3,67,0,35
3,64,86,6
3,64,0,41
3,64,111,9
3,64,0,95
3,62,104,1
3,62,0,55
3,57,81,669
3,57,0,72
3,57,77,20
3,57,0,39
3,57,81,9
3,57,0,40
3,59,93,9
3,59,0,42
3,59,95,8
3,59,0,75
3,60,100,17
3,60,0,61
3,60,90,83
3,60,0,33
3,69,98,16
3,69,0,82
3,67,95,14
3,64,86,95
3,67,0,2
3,64,0,35
3,64,108,12
3,64,0,93
3,62,95,1
3,62,0,81
4,42,61,0
4,42,0,13
4,42,57,84
4,42,0,17
4,42,61,78
4,42,0,29
4,59,96,1459
4,59,0,10
4,59,86,4
4,59,0,10
4,59,58,5
4,59,0,6
4,59,88,3
4,59,0,10
4,59,104,5
4,59,0,287
4,51,47,143
4,51,0,15
4,51,61,30
4,51,0,146
4,51,51,44
4,51,0,18
4,51,45,33
4,51,0,24
4,49,32,23
4,49,0,198
4,49,25,379
4,49,0,65
4,51,43,28
4,51,0,19
4,51,40,28
4,51,0,20
4,51,49,27
4,51,0,236
4,51,70,872
4,51,0,17
4,51,51,78
4,51,0,20
4,51,67,79
4,51,0,18
4,51,64,79
4,51,0,14
4,53,54,79
4,51,54,47
4,51,0,133
4,53,0,8
4,51,64,578
4,53,56,1
4,51,0,15
4,51,59,31
4,53,0,100
4,51,0,205
4,51,57,31
4,51,0,68
4,51,64,34
4,51,0,64
4,51,57,29
4,51,0,62
4,51,51,33
4,51,0,13
4,48,112,34
4,51,54,1
4,51,0,13
4,51,30,32
4,45,98,2
4,51,0,12
4,49,49,35
4,36,104,1
4,41,104,1
4,54,67,3
4,49,0,3
4,54,0,35
4,54,47,12
4,54,0,15
4,48,0,17
4,45,0,2
4,41,0,9
4,38,121,1
4,54,70,2
4,54,0,39
4,54,57,7
4,54,0,14
4,54,57,34
4,36,0,18
4,54,0,21
4,54,49,8
4,36,109,1
4,38,0,12
4,54,0,17
4,54,51,16
4,38,127,3
4,54,0,38
4,54,28,7
4,36,0,21
4,54,0,10
4,54,57,17
4,36,104,4
4,54,0,37
4,54,35,10
4,38,0,5
4,54,0,28
4,54,67,14
4,38,115,2
4,54,0,39
4,54,47,10
4,54,0,35
4,54,64,12
4,54,0,44
4,54,27,2
4,38,0,14
4,54,0,28
4,54,64,7
4,38,118,0
4,54,0,41
4,54,40,7
4,36,0,14
4,54,0,24
4,54,70,11
4,36,104,1
4,54,0,41
4,54,30,6
4,38,0,2
4,54,0,38
4,38,115,8
4,54,57,3
4,54,0,35
4,54,45,9
4,54,0,38
4,54,49,11
4,36,0,5
4,54,0,33
4,36,101,8
4,54,38,2
4,38,0,3
4,54,0,37
4,38,124,6
4,54,72,2
4,36,0,61
4,54,0,21
4,54,57,12
4,36,104,1
4,54,0,37
4,38,0,6
4,54,33,4
4,54,0,43
4,38,118,5
4,54,76,2
4,54,0,36
4,54,35,11
4,54,0,36
4,54,59,13
4,36,0,9
4,54,0,29
4,36,112,9
4,54,40,1
4,38,0,9
4,54,0,29
4,38,127,9
4,54,72,1
4,54,0,38
4,54,38,11
4,36,0,14
4,54,0,22
4,54,67,11
4,36,104,0
4,54,0,40
4,38,0,5
4,54,27,4
4,54,0,40
4,38,115,6
4,54,80,4
4,54,0,37
4,54,38,9
4,54,0,40
4,54,59,9
4,36,0,1
4,54,0,35
4,36,101,8
4,38,0,0
4,54,45,2
4,54,0,40
4,38,124,5
4,54,72,5
4,54,0,37
4,54,27,11
4,36,0,10
4,54,0,33
4,36,104,3
4,54,70,4
4,54,0,39
4,38,0,2
4,54,47,6
4,54,0,40
4,38,127,3
4,54,76,5
4,54,0,38
4,54,49,7
4,36,0,58
4,54,0,30
4,36,104,7
4,48,71,0
4,54,43,1
4,45,65,0
4,38,0,4
4,45,0,7
4,48,0,0
4,54,0,30
4,48,83,5
4,45,79,0
4,38,127,1
4,54,83,3
4,45,0,9
4,48,0,1
4,54,0,28
4,48,79,4
4,45,79,1
4,54,38,2
4,45,0,31
4,48,0,3
4,54,0,9
4,36,104,5
4,49,50,1
4,36,0,0
4,38,0,5
4,54,33,41
4,54,0,43
4,38,118,5
4,54,76,2
4,54,0,36
4,54,35,11
4,49,0,12
4,54,0,24
4,54,59,13
4,36,0,9
4,54,0,29
4,36,112,9
4,54,40,1
4,38,0,9
4,54,0,29
4,38,127,9
4,54,72,1
4,54,0,38
4,54,38,11
4,36,0,14
4,54,0,22
4,54,67,11
4,36,104,0
4,54,0,40
4,38,0,5
4,54,27,4
4,54,0,40
4,38,115,6
4,54,80,4
4,54,0,37
4,54,38,9
4,54,0,40
4,54,59,9
4,36,0,1
4,54,0,35
4,36,101,8
4,38,0,0
4,54,45,2
4,54,0,40
4,38,124,5
4,54,72,5
4,54,0,37
4,54,27,11
4,36,0,10
4,54,0,33
4,36,104,2
4,38,0,46
4,54,33,1
4,54,0,43
4,38,118,5
4,54,76,2
4,54,0,36
4,54,35,11
4,54,0,36
4,54,59,13
4,36,0,9
4,54,0,29
4,36,112,9
4,54,40,1
4,38,0,9
4,54,0,29
4,38,127,9
4,54,72,1
4,54,0,38
4,54,38,11
4,36,0,14
4,54,0,22
4,54,67,11
4,36,104,0
4,54,0,40
4,38,0,5
4,54,27,4
4,54,0,40
4,38,115,6
4,54,80,4
4,54,0,37
4,54,38,9
4,54,0,40
4,54,59,9
4,36,0,1
4,54,0,35
4,36,101,8
4,38,0,0
4,54,45,2
4,54,0,40
4,38,124,5
4,54,72,5
4,54,0,37
4,54,27,11
4,36,0,10
4,54,0,33
4,36,104,2
4,38,0,46
4,54,33,1
4,54,0,43
4,38,118,5
4,54,76,2
4,54,0,36
4,54,35,11
4,54,0,36
4,54,59,13
4,36,0,9
4,54,0,29
4,36,112,9
4,54,40,1
4,38,0,9
4,54,0,29
4,38,127,9
4,54,72,1
4,54,0,38
4,54,38,11
4,36,0,14
4,54,0,22
4,54,67,11
4,36,104,0
4,54,0,40
4,38,0,5
4,54,27,4
4,54,0,40
4,38,115,6
4,54,80,4
4,54,0,37
4,54,38,9
4,54,0,40
4,54,59,9
4,36,0,1
4,54,0,35
4,36,101,8
4,38,0,0
4,54,45,2
4,54,0,40
4,38,124,5
4,54,72,5
4,54,0,37
4,54,27,11
4,36,0,10
4,54,0,33
4,36,104,2
4,38,0,46
4,54,33,1
4,54,0,43
4,38,118,5
4,54,76,2
4,54,0,36
4,54,35,11
4,54,0,36
4,54,59,13
4,36,0,9
4,54,0,29
4,36,112,9
4,54,40,1
4,38,0,9
4,54,0,29
4,38,127,9
4,54,72,1
4,54,0,38
4,54,38,11
4,36,0,14
4,54,0,22
4,54,67,11
4,36,104,0
4,54,0,40
4,38,0,5
4,54,27,4
4,54,0,40
4,38,115,6
4,54,80,4
4,54,0,37
4,54,38,9
4,54,0,40
4,54,59,9
4,36,0,1
4,54,0,35
4,36,101,8
4,38,0,0
4,54,45,2
4,54,0,40
4,38,124,5
4,54,72,5
4,54,0,37
4,54,27,11
4,36,0,10
4,54,0,33
4,36,104,2
4,38,0,46
4,54,33,1
4,54,0,43
4,38,118,5
4,54,76,2
4,54,0,36
4,54,35,11
4,54,0,36
