track,note,velocity,time
1,72,119,2164
1,72,0,272
1,71,90,10
1,71,0,105
1,72,98,23
1,72,0,57
1,71,82,7
1,71,0,109
1,69,98,19
1,69,0,57
1,72,98,7
1,71,109,320
1,72,0,18
1,71,0,393
1,72,110,37
1,72,0,355
1,71,113,29
1,71,0,108
1,72,98,20
1,72,0,57
1,71,106,7
1,71,0,105
1,69,105,23
1,73,101,64
1,69,0,11
1,73,0,91
1,76,92,26
1,73,89,64
1,76,0,1
1,73,0,115
1,70,107,12
1,70,0,172
1,69,110,20
1,74,110,256
1,69,0,12
1,74,0,361
1,72,110,11
1,72,0,98
1,74,98,30
1,74,0,57
1,72,108,7
1,72,0,104
1,69,92,24
1,69,0,64
1,74,93,0
1,74,0,97
1,72,100,31
1,68,104,64
1,72,0,1
1,68,0,112
1,72,111,15
1,72,0,414
1,67,105,34
1,67,0,120
1,69,103,8
1,69,0,61
1,72,110,3
1,72,0,97
1,74,98,31
1,76,118,64
1,74,0,19
1,81,86,173
1,76,0,1
1,81,0,115
1,79,108,12
1,79,0,718
1,72,120,114
1,72,0,369
1,71,127,15
1,71,0,94
1,72,118,34
1,72,0,53
1,71,127,11
1,71,0,105
1,69,117,23
1,69,0,57
1,72,127,7
1,72,0,362
1,71,127,22
1,71,0,354
1,72,127,30
1,72,0,361
1,71,123,23
1,71,0,112
1,72,118,16
1,72,0,58
1,71,123,6
1,71,0,108
1,69,104,20
1,69,0,60
1,73,123,4
1,73,0,101
1,76,104,27
1,76,0,53
1,73,118,11
1,73,0,101
1,70,127,27
1,69,127,192
1,70,0,4
1,74,127,252
1,69,0,27
1,74,0,342
1,72,125,15
1,72,0,120
1,74,113,8
1,72,119,64
1,74,0,31
1,72,0,70
1,69,104,27
1,74,116,64
1,69,0,16
1,74,0,109
1,72,114,3
1,68,106,64
1,72,0,20
1,68,0,107
1,72,127,1
1,67,116,448
1,72,0,10
1,67,0,92
1,69,104,26
1,72,115,64
1,69,0,9
1,74,102,119
1,72,0,30
1,75,127,34
1,74,0,4
1,74,127,188
1,75,0,6
1,74,0,181
1,72,127,5
1,72,0,428
1,80,127,340
1,77,127,384
1,80,0,2
1,77,0,113
1,80,116,13
1,80,0,110
1,77,124,18
1,77,0,112
1,75,125,16
1,75,0,127
1,72,111,1
1,72,0,101
1,75,116,27
1,75,0,109
1,65,124,19
1,67,127,128
1,65,0,28
1,67,0,210
1,80,127,18
1,80,0,365
1,77,127,19
1,77,0,120
1,80,127,8
1,80,0,100
1,77,127,28
1,77,0,91
1,75,127,37
1,75,0,726
1,80,127,42
1,77,127,384
1,80,0,0
1,77,0,112
1,80,108,16
1,80,0,120
1,77,123,8
1,77,0,116
1,75,109,12
1,75,0,119
1,72,104,9
1,72,0,116
1,75,104,12
1,75,0,127
1,65,113,1
1,67,127,128
1,65,0,10
1,80,127,246
1,67,0,12
1,80,0,358
1,75,121,14
1,77,127,192
1,75,0,1
1,77,0,182
1,79,127,9
1,79,0,692
1,72,120,76
1,72,0,369
1,71,127,15
1,71,0,94
1,72,118,34
1,72,0,53
1,71,127,11
1,71,0,105
1,69,117,23
1,69,0,57
1,72,127,7
1,72,0,362
1,71,127,22
1,71,0,354
1,72,127,30
1,72,0,361
1,71,123,23
1,71,0,112
1,72,118,16
1,72,0,58
1,71,123,6
1,71,0,108
1,69,104,20
1,69,0,60
1,73,123,4
1,73,0,101
1,76,104,27
1,76,0,53
1,73,118,11
1,73,0,101
1,70,127,27
1,69,127,192
1,70,0,4
1,74,127,252
1,69,0,3
1,74,0,366
1,72,125,15
1,72,0,120
1,74,113,8
1,72,119,64
1,74,0,10
1,72,0,102
1,69,104,16
1,74,116,64
1,69,0,16
1,74,0,109
1,72,114,3
1,68,106,64
1,72,0,20
1,68,0,107
1,72,127,1
1,67,116,448
1,72,0,10
1,67,0,92
1,69,104,26
1,72,115,64
1,69,0,9
1,74,102,119
1,72,0,5
1,75,127,59
1,74,0,4
1,74,127,188
1,75,0,6
1,74,0,181
1,72,127,5
1,72,0,475
1,80,127,6437
1,77,127,384
1,80,0,2
1,77,0,113
1,80,116,13
1,80,0,110
1,77,124,18
1,77,0,112
1,75,125,16
1,75,0,127
1,72,111,1
1,72,0,101
1,75,116,27
1,75,0,109
1,65,124,19
1,67,127,128
1,65,0,6
1,67,0,232
1,80,127,18
1,80,0,365
1,77,127,19
1,77,0,120
1,80,127,8
1,80,0,100
1,77,127,28
1,77,0,91
1,75,127,37
1,75,0,726
1,80,127,42
1,77,127,384
1,80,0,0
1,77,0,112
1,80,108,16
1,80,0,120
1,77,123,8
1,77,0,116
1,75,109,12
1,75,0,119
1,72,104,9
1,72,0,116
1,75,104,12
1,75,0,127
1,65,113,1
1,67,127,128
1,65,0,10
1,80,127,246
1,67,0,12
1,80,0,358
1,75,121,14
1,77,127,192
1,75,0,1
1,77,0,182
1,79,127,9
1,79,0,692
1,72,120,76
1,72,0,369
1,71,127,15
1,71,0,94
1,72,118,34
1,72,0,53
1,71,127,11
1,71,0,105
1,69,117,23
1,69,0,57
1,72,127,7
1,72,0,362
1,71,127,22
1,71,0,354
1,72,127,30
1,72,0,361
1,71,123,23
1,71,0,112
1,72,118,16
1,72,0,58
1,71,123,6
1,71,0,108
1,69,104,20
1,69,0,60
1,73,123,4
1,73,0,101
1,76,104,27
1,76,0,53
1,73,118,11
1,73,0,101
1,70,127,27
1,69,127,192
1,70,0,4
1,74,127,252
1,69,0,9
1,74,0,360
1,72,125,15
1,72,0,120
1,74,113,8
1,72,119,64
1,74,0,8
1,72,0,106
1,69,104,14
1,74,116,64
1,69,0,16
1,72,114,112
1,74,0,2
1,68,106,62
1,72,0,7
1,68,0,120
1,72,127,1
1,67,116,448
1,72,0,10
1,67,0,114
1,69,104,4
1,72,115,64
1,69,0,9
1,74,102,119
1,72,0,10
1,75,127,54
1,74,0,4
1,74,127,188
1,75,0,6
1,74,0,181
1,72,127,5
1,72,0,475
1,72,127,293
1,72,0,371
1,71,109,13
1,71,0,120
1,72,113,8
1,71,112,64
1,72,0,4
1,71,0,121
1,69,100,3
1,69,0,60
1,72,113,4
1,72,0,304
1,71,127,16
1,71,0,255
1,67,123,1
1,67,0,42
1,69,119,22
1,69,0,42
1,71,127,22
1,71,0,49
1,72,127,15
1,72,0,371
1,71,114,13
1,71,0,105
1,72,112,23
1,72,0,57
1,71,121,7
1,71,0,102
1,69,71,26
1,69,0,50
1,72,127,14
1,72,0,366
1,71,104,18
1,71,0,384
2,36,115,11520
2,36,0,297
2,36,96,23
2,36,0,53
2,35,105,11
2,35,0,248
2,35,93,72
2,35,0,49
2,32,92,15
2,32,0,160
2,32,101,32
2,32,0,153
2,31,108,39
2,31,0,346
2,36,100,38
2,36,0,264
2,36,97,56
2,36,0,50
2,35,98,14
2,35,0,257
2,35,85,63
2,35,0,49
2,33,97,15
2,33,0,246
2,33,92,74
2,33,0,57
2,34,108,7
2,34,0,162
2,33,94,30
2,33,0,154
2,38,101,38
2,38,0,236
2,38,103,84
2,38,0,53
2,38,96,11
2,38,0,256
2,38,95,64
2,38,0,49
2,41,101,15
2,41,0,249
2,41,100,71
2,41,0,45
2,41,96,19
2,41,0,146
2,41,97,46
2,41,0,148
2,36,104,44
2,36,0,274
2,36,95,46
2,36,0,64
2,41,96,0
2,41,0,134
2,43,87,58
2,43,0,155
2,36,101,37
2,36,0,281
2,36,92,39
2,36,0,50
2,39,116,14
2,39,0,178
2,39,107,14
2,39,0,75
2,44,86,117
2,44,0,277
2,44,81,43
2,44,0,63
2,41,91,1
2,41,0,152
2,41,96,40
2,41,0,163
2,39,98,29
2,39,0,264
2,39,101,56
2,39,0,57
2,39,99,7
2,39,0,163
2,39,99,29
2,39,0,156
2,44,103,36
2,44,0,274
2,44,79,46
2,41,91,64
2,44,0,0
2,41,0,145
2,41,92,47
2,41,0,178
2,39,105,14
2,39,0,252
2,39,101,68
2,39,0,60
2,39,94,4
2,39,0,153
2,39,99,39
2,39,0,166
2,44,96,26
2,44,0,288
2,44,87,32
2,44,0,63
2,41,98,1
2,41,0,149
2,41,109,43
2,41,0,160
2,39,101,32
2,39,0,263
2,39,101,57
2,39,0,58
2,39,107,6
2,39,0,153
2,39,99,39
2,39,0,167
2,44,92,25
2,44,0,269
2,44,84,51
2,39,94,64
2,44,0,4
2,39,0,155
2,41,95,33
2,41,0,179
2,43,92,13
2,43,0,171
2,41,91,21
2,41,0,182
2,40,96,10
2,40,0,174
2,38,92,18
2,38,0,178
2,36,115,14
2,36,0,297
2,36,96,23
2,36,0,53
2,35,105,11
2,35,0,248
2,35,93,72
2,35,0,49
2,32,92,15
2,32,0,160
2,32,101,32
2,32,0,153
2,31,108,39
2,31,0,346
2,36,100,38
2,36,0,264
2,36,97,56
2,36,0,50
2,35,98,14
2,35,0,257
2,35,85,63
2,35,0,49
2,33,97,15
2,33,0,246
2,33,92,74
2,33,0,57
2,34,108,7
2,34,0,162
2,33,94,30
2,33,0,154
2,38,101,38
2,38,0,236
2,38,103,84
2,38,0,53
2,38,96,11
2,38,0,256
2,38,95,64
2,38,0,49
2,41,101,15
2,41,0,249
2,41,100,71
2,41,0,45
2,41,96,19
2,41,0,146
2,41,97,46
2,41,0,148
2,36,104,44
2,36,0,274
2,36,95,46
2,36,0,64
2,41,96,0
2,41,0,134
2,43,87,58
2,43,0,155
2,36,108,37
2,36,0,341
2,32,116,43
2,32,0,131
2,31,118,61
2,31,0,156
2,36,115,36
2,36,0,297
2,36,96,23
2,36,0,53
2,35,105,11
2,35,0,248
2,35,93,72
2,35,0,49
2,32,92,15
2,32,0,160
2,32,101,32
2,32,0,153
2,31,108,39
2,31,0,346
2,36,100,38
2,36,0,264
2,36,97,56
2,36,0,50
2,35,98,14
2,35,0,257
2,35,85,63
2,35,0,49
2,33,97,15
2,33,0,246
2,33,92,74
2,33,0,57
2,34,108,7
2,34,0,162
2,33,94,30
2,33,0,154
2,38,101,38
2,38,0,236
2,38,103,84
2,38,0,53
2,38,96,11
2,38,0,256
2,38,95,64
2,38,0,49
2,41,101,15
2,41,0,249
2,41,100,71
2,41,0,45
2,41,96,19
2,41,0,146
2,41,97,46
2,41,0,148
2,36,104,44
2,36,0,274
2,36,95,46
2,36,0,64
2,41,96,0
2,41,0,134
2,43,87,58
2,43,0,155
2,36,101,37
2,36,0,281
2,36,92,39
2,36,0,50
2,39,116,14
2,39,0,178
2,39,107,14
2,39,0,75
2,44,86,117
2,44,0,277
2,44,81,43
2,44,0,63
2,41,91,1
2,41,0,152
2,41,96,40
2,41,0,163
2,39,98,29
2,39,0,264
2,39,101,56
2,39,0,57
2,39,99,7
2,39,0,163
2,39,99,29
2,39,0,156
2,44,103,36
2,44,0,274
2,44,79,46
2,41,91,64
2,44,0,0
2,41,0,145
2,41,92,47
2,41,0,178
2,39,105,14
2,39,0,252
2,39,101,68
2,39,0,60
2,39,94,4
2,39,0,153
2,39,99,39
2,39,0,166
2,44,96,26
2,44,0,288
2,44,87,32
2,44,0,63
2,41,98,1
2,41,0,149
2,41,109,43
2,41,0,160
2,39,101,32
2,39,0,263
2,39,101,57
2,39,0,58
2,39,107,6
2,39,0,153
2,39,99,39
2,39,0,167
2,44,92,25
2,44,0,269
2,44,84,51
2,39,94,64
2,44,0,4
2,39,0,155
2,41,95,33
2,41,0,179
2,43,92,13
2,43,0,171
2,41,91,21
2,41,0,182
2,40,96,10
2,40,0,174
2,38,92,18
2,38,0,178
2,36,115,14
2,36,0,297
2,36,96,23
2,36,0,53
2,35,105,11
2,35,0,248
2,35,93,72
2,35,0,49
2,32,92,15
2,32,0,160
2,32,101,32
2,32,0,153
2,31,108,39
2,31,0,346
2,36,100,38
2,36,0,264
2,36,97,56
2,36,0,50
2,35,98,14
2,35,0,257
2,35,85,63
2,35,0,49
2,33,97,15
2,33,0,246
2,33,92,74
2,33,0,57
2,34,108,7
2,34,0,162
2,33,94,30
2,33,0,154
2,38,101,38
2,38,0,236
2,38,103,84
2,38,0,53
2,38,96,11
2,38,0,256
2,38,95,64
2,38,0,49
2,41,101,15
2,41,0,249
2,41,100,71
2,41,0,45
2,41,96,19
2,41,0,146
2,41,97,46
2,41,0,148
2,36,104,44
2,36,0,274
2,36,95,46
2,36,0,64
2,41,96,0
2,41,0,134
2,43,87,58
2,43,0,155
2,36,108,37
2,36,0,341
2,32,116,43
2,32,0,131
2,31,118,61
2,31,0,156
2,36,115,36
2,36,0,297
2,36,96,23
2,36,0,53
2,35,105,11
2,35,0,248
2,35,93,72
2,35,0,49
2,32,92,15
2,32,0,160
2,32,101,32
2,32,0,153
2,31,108,39
2,31,0,346
2,36,115,38
2,36,0,297
2,36,96,23
2,36,0,53
2,35,105,11
2,35,0,248
2,35,93,72
2,35,0,49
2,32,92,15
2,32,0,160
2,32,101,32
2,32,0,153
2,31,108,39
2,31,0,346
2,36,115,38
2,36,0,297
2,36,96,23
2,36,0,53
2,35,105,11
2,35,0,248
2,35,93,72
2,35,0,49
2,32,92,15
2,32,0,160
2,32,101,32
2,32,0,153
2,31,108,39
2,31,0,346
2,36,115,38
2,36,0,297
2,36,96,23
2,36,0,53
2,35,105,11
2,35,0,248
2,35,93,72
2,35,0,49
2,32,92,15
2,32,0,160
2,32,101,32
2,32,0,153
2,31,108,39
2,31,0,346
3,43,102,1728
3,43,0,168
3,45,104,24
3,45,0,186
3,47,97,6
3,47,0,164
3,48,102,28
3,48,0,95
3,52,80,33
3,55,103,64
3,60,104,0
3,48,94,128
3,55,0,24
3,60,0,8
3,52,0,4
3,48,0,19
3,47,104,9
3,54,73,128
3,57,97,64
3,59,88,0
3,47,0,96
3,47,88,32
3,57,0,17
3,59,0,4
3,54,0,13
3,47,0,28
3,44,101,2
3,51,84,128
3,56,124,64
3,51,0,165
3,44,0,7
3,56,0,19
3,43,110,1
3,50,78,64
3,50,0,47
3,53,100,17
3,53,0,32
3,50,110,32
3,53,113,0
3,59,109,0
3,53,0,32
3,59,0,24
3,53,109,8
3,59,106,64
3,53,0,12
3,50,0,6
3,43,0,13
3,59,0,8
3,48,116,25
3,52,85,128
3,55,108,64
3,60,110,0
3,48,0,98
3,48,110,30
3,55,0,17
3,60,0,31
3,48,0,10
3,52,0,0
3,47,106,6
3,54,78,128
3,57,101,64
3,59,94,0
3,47,0,98
3,47,94,30
3,59,0,24
3,57,0,1
3,54,0,20
3,47,0,13
3,44,103,6
3,51,69,128
3,51,0,42
3,51,94,22
3,54,101,0
3,56,105,0
3,44,0,71
3,44,91,57
3,51,0,11
3,56,0,8
3,54,0,7
3,44,0,32
3,43,116,6
3,50,66,128
3,53,119,64
3,59,106,0
3,43,0,105
3,50,0,11
3,53,0,9
3,47,100,3
3,59,0,2
3,47,0,57
3,48,116,5
3,52,83,128
3,55,108,64
3,60,112,0
3,48,0,65
3,48,108,63
3,55,0,13
3,60,0,24
3,52,0,18
3,48,0,4
3,47,101,5
3,54,77,128
3,57,105,64
3,59,91,0
3,47,0,69
3,59,0,57
3,47,93,2
3,57,0,3
3,54,0,16
3,44,99,45
3,47,0,3
3,51,79,125
3,54,89,64
3,56,96,0
3,44,0,91
3,44,94,37
3,54,0,40
3,56,0,0
3,51,0,7
3,44,0,16
3,43,115,1
3,50,88,128
3,53,112,64
3,59,97,0
3,43,0,98
3,53,0,15
3,50,0,9
3,47,85,6
3,59,0,7
3,47,0,51
3,48,102,6
3,52,83,128
3,55,107,64
3,60,108,0
3,48,0,65
3,48,110,63
3,55,0,24
3,60,0,28
3,47,109,12
3,48,0,1
3,52,0,2
3,54,76,125
3,54,0,50
3,54,77,14
3,57,98,0
3,59,90,0
3,47,0,78
3,47,103,50
3,57,0,17
3,59,0,1
3,54,0,1
3,47,0,43
3,45,112,2
3,52,89,128
3,55,108,64
3,61,97,0
3,45,0,91
3,45,99,37
3,55,0,24
3,52,0,12
3,61,0,1
3,45,0,10
3,46,101,17
3,50,97,0
3,55,94,0
3,58,104,0
