track,note,velocity,time
1,41,127,6144
1,41,0,96
1,41,127,48
1,41,0,48
1,41,127,0
1,41,0,96
1,43,127,0
1,43,0,96
1,36,127,0
1,36,0,48
1,36,127,48
1,36,0,48
1,36,127,48
1,36,0,144
1,41,127,48
1,41,0,96
1,41,127,48
1,41,0,48
1,41,127,0
1,41,0,48
1,43,127,48
1,43,0,48
1,36,127,48
1,36,0,336
1,41,127,48
1,41,0,96
1,41,127,48
1,41,0,48
1,41,127,0
1,41,0,96
1,43,127,0
1,43,0,96
1,36,127,0
1,36,0,48
1,36,127,48
1,36,0,48
1,36,127,48
1,36,0,192
1,38,127,0
1,38,0,96
1,38,127,48
1,38,0,48
1,38,127,0
1,38,0,96
1,36,127,0
1,36,0,96
1,34,127,0
1,34,0,384
1,41,127,0
1,41,0,96
1,41,127,48
1,41,0,48
1,41,127,0
1,41,0,96
1,43,127,0
1,43,0,96
1,36,127,0
1,36,0,48
1,36,127,48
1,36,0,48
1,36,127,48
1,36,0,144
1,41,127,48
1,41,0,96
1,41,127,48
1,41,0,48
1,41,127,0
1,41,0,48
1,43,127,48
1,43,0,48
1,36,127,48
1,36,0,336
1,41,127,48
1,41,0,96
1,41,127,48
1,41,0,48
1,41,127,0
1,41,0,96
1,43,127,0
1,43,0,96
1,36,127,0
1,36,0,48
1,36,127,48
1,36,0,48
1,36,127,48
1,36,0,192
1,38,127,0
1,38,0,96
1,38,127,48
1,38,0,48
1,38,127,0
1,38,0,96
1,36,127,0
1,36,0,96
1,34,127,0
1,34,0,384
1,41,127,0
1,41,0,96
1,41,127,48
1,41,0,48
1,41,127,0
1,41,0,96
1,43,127,0
1,43,0,96
1,36,127,0
1,36,0,48
1,36,127,48
1,36,0,48
1,36,127,48
1,36,0,144
1,41,127,48
1,41,0,96
1,41,127,48
1,41,0,48
1,41,127,0
1,41,0,48
1,43,127,48
1,43,0,48
1,36,127,48
1,36,0,336
1,41,127,48
1,41,0,96
1,41,127,48
1,41,0,48
1,41,127,0
1,41,0,96
1,43,127,0
1,43,0,96
1,36,127,0
1,36,0,48
1,36,127,48
1,36,0,48
1,36,127,48
1,36,0,192
1,38,127,0
1,38,0,96
1,38,127,48
1,38,0,48
1,38,127,0
1,38,0,96
1,36,127,0
1,36,0,96
1,34,127,0
1,34,0,384
1,41,127,0
1,41,0,96
1,41,127,48
1,41,0,48
1,41,127,0
1,41,0,96
1,43,127,0
1,43,0,96
1,36,127,0
1,36,0,48
1,36,127,48
1,36,0,48
1,36,127,48
1,36,0,144
1,41,127,48
1,41,0,96
1,41,127,48
1,41,0,48
1,41,127,0
1,41,0,48
1,43,127,48
1,43,0,48
1,36,127,48
1,36,0,336
1,41,127,48
1,41,0,96
1,41,127,48
1,41,0,48
1,41,127,0
1,41,0,96
1,43,127,0
1,43,0,96
1,36,127,0
1,36,0,48
1,36,127,48
1,36,0,48
1,36,127,48
1,36,0,192
1,38,127,0
1,38,0,96
1,38,127,48
1,38,0,48
1,38,127,0
1,38,0,96
1,36,127,0
1,36,0,96
1,34,127,0
1,34,0,384
1,36,127,0
1,36,0,96
1,36,127,48
1,36,0,80
1,36,127,64
1,36,0,64
1,38,127,32
1,38,0,120
1,38,127,72
1,38,0,64
1,38,127,32
1,38,0,72
1,34,127,24
1,34,0,120
1,34,127,24
1,34,0,120
1,38,127,24
1,38,0,72
1,36,127,24
1,36,0,128
1,36,127,64
1,36,0,64
1,36,127,32
1,36,0,72
1,38,127,24
1,38,0,112
1,38,127,32
1,38,0,32
1,38,127,16
1,38,0,88
1,36,127,8
1,36,0,88
1,34,127,8
1,34,0,120
1,34,127,72
1,34,0,48
1,34,127,48
1,34,0,56
1,34,127,40
1,34,0,96
1,34,127,48
1,34,0,96
1,38,127,48
1,38,0,72
1,36,127,24
1,36,0,128
1,36,127,64
1,36,0,64
1,36,127,32
1,36,0,64
1,36,127,32
1,36,0,112
1,36,127,32
1,36,0,104
1,36,127,40
1,36,0,72
1,38,127,24
1,38,0,112
1,38,127,80
1,38,0,40
1,38,127,56
1,38,0,80
1,34,127,16
1,34,0,104
1,34,127,40
1,34,0,104
1,38,127,40
1,38,0,80
1,36,127,16
1,36,0,120
1,36,127,72
1,36,0,56
1,36,127,40
1,36,0,64
1,38,127,32
1,38,0,112
1,38,127,32
1,38,0,136
1,36,127,8
1,36,0,80
1,34,127,16
1,34,0,104
1,34,127,88
1,34,0,40
1,34,127,56
1,34,0,48
1,34,127,48
1,34,0,96
1,34,127,48
1,34,0,88
1,38,127,56
1,38,0,72
1,36,127,24
1,36,0,104
1,36,127,88
1,36,0,64
1,36,127,32
1,36,0,72
1,41,127,24
1,41,0,96
1,41,127,48
1,41,0,16
1,41,127,32
1,41,0,88
1,43,127,8
1,43,0,80
1,36,127,16
1,36,0,136
1,36,127,56
1,36,0,88
1,38,127,8
1,38,0,96
1,41,127,0
1,41,0,96
1,41,127,48
1,41,0,16
1,41,127,32
1,43,127,96
1,41,0,8
1,43,0,88
1,36,127,0
1,36,0,152
1,36,127,40
1,38,127,96
1,36,0,24
1,38,0,72
1,41,127,0
1,41,0,96
1,41,127,48
1,41,0,16
1,41,127,32
1,43,127,96
1,41,0,8
1,43,0,80
1,36,127,8
1,36,0,136
1,36,127,56
1,36,0,72
1,36,127,24
1,36,0,88
1,38,127,8
1,38,0,96
1,38,127,48
1,38,0,32
1,38,127,16
1,38,0,96
1,36,127,0
1,34,127,96
1,36,0,8
1,34,0,112
1,34,127,72
1,34,0,88
1,36,127,8
1,36,0,72
1,41,127,24
1,41,0,96
1,41,127,48
1,41,0,48
1,41,127,0
1,41,0,96
1,43,127,0
1,43,0,96
1,36,127,0
1,36,0,48
1,36,127,48
1,36,0,48
1,36,127,48
1,36,0,144
1,41,127,48
1,41,0,96
1,41,127,48
1,41,0,48
1,41,127,0
1,41,0,48
1,43,127,48
1,43,0,48
1,36,127,48
1,36,0,336
1,41,127,48
1,41,0,96
1,41,127,48
1,41,0,48
1,41,127,0
1,41,0,96
1,43,127,0
1,43,0,96
1,36,127,0
1,36,0,48
1,36,127,48
1,36,0,48
1,36,127,48
1,36,0,192
1,38,127,0
1,38,0,96
1,38,127,48
1,38,0,48
1,38,127,0
1,38,0,96
1,36,127,0
1,36,0,96
1,34,127,0
1,34,0,384
1,41,127,0
1,41,0,96
1,41,127,48
1,41,0,48
1,41,127,0
1,41,0,96
1,43,127,0
1,43,0,96
1,36,127,0
1,36,0,48
1,36,127,48
1,36,0,48
1,36,127,48
1,36,0,144
1,41,127,48
1,41,0,96
1,41,127,48
1,41,0,48
1,41,127,0
1,41,0,48
1,43,127,48
1,43,0,48
1,36,127,48
1,36,0,336
1,41,127,48
1,41,0,96
1,41,127,48
1,41,0,48
1,41,127,0
1,41,0,96
1,43,127,0
1,43,0,96
1,36,127,0
1,36,0,48
1,36,127,48
1,36,0,48
1,36,127,48
1,36,0,192
1,38,127,0
1,38,0,96
1,38,127,48
1,38,0,48
1,38,127,0
1,38,0,96
1,36,127,0
1,36,0,96
1,34,127,0
1,34,0,384
1,36,127,0
1,36,0,96
1,36,127,48
1,36,0,80
1,36,127,64
1,36,0,64
1,38,127,32
1,38,0,120
1,38,127,72
1,38,0,64
1,38,127,32
1,38,0,72
1,34,127,24
1,34,0,120
1,34,127,24
1,34,0,120
1,38,127,24
1,38,0,72
1,36,127,24
1,36,0,128
1,36,127,64
1,36,0,64
1,36,127,32
1,36,0,72
1,38,127,24
1,38,0,112
1,38,127,32
1,38,0,32
1,38,127,16
1,38,0,88
1,36,127,8
1,36,0,88
1,34,127,8
1,34,0,120
1,34,127,72
1,34,0,48
1,34,127,48
1,34,0,56
1,34,127,40
1,34,0,96
1,34,127,48
1,34,0,96
1,38,127,48
1,38,0,72
1,36,127,24
1,36,0,128
1,36,127,64
1,36,0,64
1,36,127,32
1,36,0,64
1,36,127,32
1,36,0,112
1,36,127,32
1,36,0,104
1,36,127,40
1,36,0,72
1,38,127,24
1,38,0,112
1,38,127,80
1,38,0,40
1,38,127,56
1,38,0,80
1,34,127,16
1,34,0,104
1,34,127,40
1,34,0,104
1,38,127,40
1,38,0,80
1,36,127,16
1,36,0,120
1,36,127,72
1,36,0,56
1,36,127,40
1,36,0,64
1,38,127,32
1,38,0,112
1,38,127,32
1,38,0,136
1,36,127,8
1,36,0,80
1,34,127,16
1,34,0,104
1,34,127,88
1,34,0,40
1,34,127,56
1,34,0,48
1,34,127,48
1,34,0,96
1,34,127,48
1,34,0,88
1,38,127,56
1,38,0,72
1,36,127,24
1,36,0,104
1,36,127,88
1,36,0,64
1,36,127,32
1,36,0,72
1,41,127,24
1,41,0,240
1,41,127,48
1,41,0,48
1,41,127,48
1,41,0,240
1,41,127,48
1,41,0,48
1,41,127,48
1,41,0,240
1,41,127,48
1,41,0,48
1,41,127,48
1,41,0,240
1,41,127,48
1,41,0,48
1,41,127,48
1,41,0,240
1,41,127,48
1,41,0,48
1,41,127,48
1,41,0,240
1,41,127,48
1,41,0,48
1,41,127,48
1,41,0,240
1,41,127,0
1,41,0,96
1,41,127,48
1,41,0,240
1,41,127,48
1,41,0,48
1,41,127,48
1,41,0,240
1,41,127,48
1,41,0,48
1,41,127,48
1,41,0,240
1,41,127,48
1,41,0,48
1,41,127,48
1,41,0,240
1,41,127,48
1,41,0,48
1,41,127,48
1,41,0,240
1,41,127,48
1,41,0,48
1,41,127,48
1,41,0,240
1,41,127,48
1,41,0,48
1,41,127,48
1,41,0,192
1,41,127,96
1,41,0,48
1,41,127,48
1,41,0,528
1,43,127,0
1,43,0,192
1,41,127,48
1,41,0,96
1,41,127,48
1,41,0,48
1,41,127,0
1,41,0,96
1,43,127,0
1,43,0,96
1,36,127,0
1,36,0,48
1,36,127,48
1,36,0,48
1,36,127,48
1,36,0,144
1,41,127,48
1,41,0,96
1,41,127,48
1,41,0,48
1,41,127,0
1,41,0,48
1,43,127,48
1,43,0,48
1,36,127,48
1,36,0,336
1,41,127,48
1,41,0,96
1,41,127,48
1,41,0,48
1,41,127,0
1,41,0,96
1,43,127,0
1,43,0,96
1,36,127,0
1,36,0,48
1,36,127,48
1,36,0,48
1,36,127,48
1,36,0,192
1,38,127,0
1,38,0,96
1,38,127,48
1,38,0,48
1,38,127,0
1,38,0,96
1,36,127,0
1,36,0,96
1,34,127,0
1,34,0,384
1,41,127,0
1,41,0,96
1,41,127,48
1,41,0,48
1,41,127,0
1,41,0,96
1,43,127,0
1,43,0,96
1,36,127,0
1,36,0,48
1,36,127,48
1,36,0,48
1,36,127,48
1,36,0,144
1,41,127,48
1,41,0,96
1,41,127,48
1,41,0,48
1,41,127,0
1,41,0,48
1,43,127,48
1,43,0,48
1,36,127,48
1,36,0,336
1,41,127,48
1,41,0,96
1,41,127,48
1,41,0,48
1,41,127,0
1,41,0,96
1,43,127,0
1,43,0,96
1,36,127,0
1,36,0,48
1,36,127,48
1,36,0,48
1,36,127,48
1,36,0,192
1,38,127,0
1,38,0,96
1,38,127,48
1,38,0,48
1,38,127,0
1,38,0,96
1,36,127,0
1,36,0,96
1,34,127,0
1,34,0,384
1,36,127,0
1,36,0,96
1,36,127,48
1,36,0,96
1,36,127,48
1,36,0,48
1,38,127,48
1,38,0,96
1,38,127,96
1,38,0,48
1,38,127,48
1,38,0,48
1,34,127,48
1,34,0,96
1,34,127,48
1,34,0,96
1,38,127,48
1,38,0,48
1,36,127,48
1,36,0,144
1,36,127,48
1,36,0,48
1,36,127,48
1,36,0,48
1,38,127,48
1,38,0,96
1,38,127,48
1,38,0,48
1,38,127,0
1,38,0,96
1,36,127,0
1,36,0,96
1,34,127,0
1,34,0,96
1,34,127,96
1,34,0,48
1,34,127,48
1,34,0,48
1,34,127,48
1,34,0,96
1,34,127,48
1,34,0,96
1,38,127,48
1,38,0,48
1,36,127,48
1,36,0,144
1,36,127,48
1,36,0,48
1,36,127,48
1,36,0,48
1,36,127,48
1,36,0,96
1,36,127,48
1,36,0,96
1,36,127,48
1,36,0,48
1,38,127,48
1,38,0,96
1,38,127,96
1,38,0,48
1,38,127,48
1,38,0,96
1,34,127,0
1,34,0,96
1,34,127,48
1,34,0,96
1,38,127,48
1,38,0,96
1,36,127,0
1,36,0,96
1,36,127,96
1,36,0,48
1,36,127,48
1,36,0,48
1,38,127,48
1,38,0,96
1,38,127,48
1,38,0,144
1,36,127,0
1,36,0,96
1,34,127,0
1,34,0,96
1,34,127,96
1,34,0,48
1,34,127,48
1,34,0,48
1,34,127,48
1,34,0,96
1,34,127,48
1,34,0,96
1,38,127,48
1,38,0,48
1,36,127,48
1,36,0,96
1,36,127,96
1,36,0,48
1,36,127,48
1,36,0,48
1,29,127,48
1,29,0,192
1,29,127,96
1,29,0,96
1,36,127,0
1,36,0,240
1,36,127,48
1,36,0,96
1,29,127,0
1,29,0,240
1,29,127,48
1,29,0,96
1,36,127,0
1,36,0,240
1,36,127,48
1,36,0,96
1,29,127,0
1,29,0,240
1,29,127,48
1,29,0,96
1,36,127,0
1,36,0,240
1,36,127,48
1,36,0,96
1,29,127,0
1,29,0,240
1,29,127,48
1,29,0,96
1,36,127,0
1,36,0,240
1,36,127,48
1,36,0,96
1,29,127,0
1,29,0,192
1,29,127,96
1,29,0,96
1,36,127,0
1,36,0,240
1,36,127,48
1,36,0,96
1,29,127,0
1,29,0,240
1,29,127,48
1,29,0,96
1,36,127,0
1,36,0,240
1,36,127,48
1,36,0,96
1,29,127,0
1,29,0,240
1,29,127,48
1,29,0,96
1,36,127,0
1,36,0,192
1,36,127,96
1,36,0,96
1,29,127,0
1,29,0,240
1,29,127,48
1,29,0,96
1,36,127,0
1,36,0,144
1,36,127,48
1,36,0,48
1,36,127,48
1,36,0,96
1,29,127,0
1,29,0,240
1,29,127,48
1,29,0,96
1,36,127,0
1,36,0,192
1,36,127,96
1,36,0,96
1,29,127,0
1,29,0,240
1,29,127,48
1,29,0,96
1,36,127,0
1,36,0,240
1,29,127,0
1,29,0,48
1,36,127,0
1,36,0,96
1,29,127,0
1,29,0,240
1,29,127,48
1,29,0,96
1,36,127,0
1,36,0,240
1,36,127,48
1,36,0,96
1,29,127,0
1,29,0,240
1,29,127,48
1,29,0,48
1,36,127,48
1,36,0,240
1,29,127,144
1,29,0,680
2,89,127,0
2,89,0,16
2,86,127,16
2,86,0,16
2,84,127,16
2,84,0,16
2,81,127,16
2,81,0,16
2,84,127,16
2,84,0,16
2,86,127,16
2,86,0,16
2,89,127,16
2,89,0,16
2,86,127,16
2,86,0,16
2,84,127,16
2,84,0,16
2,81,127,16
2,81,0,16
2,84,127,16
2,84,0,16
2,86,127,16
2,86,0,16
2,89,127,16
2,89,0,16
2,86,127,16
2,86,0,16
2,84,127,16
2,84,0,16
2,81,127,16
2,81,0,16
2,84,127,16
2,84,0,16
2,86,127,16
2,86,0,16
2,89,127,16
2,89,0,16
2,86,127,16
2,86,0,16
2,84,127,16
2,84,0,16
2,81,127,16
2,81,0,16
2,84,127,16
2,84,0,16
2,86,127,16
2,86,0,16
2,89,127,16
2,89,0,16
2,86,127,16
2,86,0,16
2,84,127,16
2,84,0,16
2,81,127,16
2,81,0,16
2,84,127,16
2,84,0,16
2,86,127,16
2,86,0,16
2,89,127,16
2,89,0,16
2,86,127,16
2,86,0,16
2,84,127,16
2,84,0,16
2,81,127,16
2,81,0,16
2,84,127,16
2,84,0,16
2,86,127,16
2,86,0,16
2,89,127,16
2,89,0,16
2,86,127,16
2,86,0,16
2,84,127,16
2,84,0,16
2,81,127,16
2,81,0,16
2,84,127,16
2,84,0,16
2,86,127,16
2,86,0,16
2,89,127,16
2,89,0,16
2,86,127,16
2,86,0,16
2,84,127,16
2,84,0,16
2,81,127,16
2,81,0,16
2,84,127,16
2,84,0,16
2,86,127,16
2,86,0,16
2,89,127,16
2,89,0,16
2,86,127,16
2,86,0,16
2,84,127,16
2,84,0,16
2,81,127,16
2,81,0,16
2,84,127,16
2,84,0,16
