track,note,velocity,time
0,85,90,0
0,61,90,0
0,73,80,16
0,69,80,0
0,66,80,0
0,85,0,368
0,83,90,0
0,61,0,0
0,59,90,0
0,66,0,16
0,69,0,0
0,68,80,0
0,64,80,0
0,83,0,176
0,88,90,0
0,59,0,0
0,64,90,0
0,88,0,192
0,85,90,0
0,64,0,0
0,61,90,0
0,64,0,16
0,68,0,0
0,69,80,0
0,66,80,0
0,64,80,8
0,64,0,88
0,73,0,288
0,69,0,0
0,66,0,0
0,73,80,0
0,71,80,0
0,68,80,8
0,64,80,0
0,73,0,88
0,85,0,32
0,85,90,48
0,61,0,0
0,61,90,0
0,85,0,96
0,88,90,0
0,61,0,0
0,64,90,0
0,71,0,16
0,88,0,80
0,90,90,0
0,64,0,0
0,66,90,0
0,68,0,16
0,69,80,0
0,66,80,0
0,64,0,8
0,62,80,0
0,66,0,264
0,68,90,0
0,62,0,16
0,66,0,0
0,90,0,32
0,92,90,0
0,90,90,48
0,68,0,0
0,66,90,0
0,69,0,16
0,71,80,0
0,68,80,0
0,64,80,0
0,92,0,32
0,90,0,144
0,88,90,0
0,66,0,0
0,64,90,0
0,64,0,112
0,68,0,0
0,71,0,0
0,85,90,80
0,64,0,0
0,61,90,0
0,73,80,16
0,69,80,0
0,66,80,0
0,88,0,32
0,85,0,336
0,83,90,0
0,61,0,0
0,59,90,0
0,66,0,16
0,69,0,0
0,68,80,0
0,64,80,0
0,83,0,176
0,81,90,0
0,59,0,0
0,57,90,0
0,81,0,192
0,83,90,0
0,57,0,0
0,61,90,0
0,64,0,16
0,68,0,0
0,69,80,0
0,66,80,0
0,85,90,32
0,83,0,48
0,66,0,208
0,69,0,0
0,73,0,0
0,85,0,80
0,83,90,0
0,61,0,0
0,59,90,0
0,71,80,16
0,68,80,0
0,64,80,0
0,83,0,176
0,88,90,0
0,59,0,0
0,64,90,0
0,88,0,192
0,85,90,0
0,64,0,0
0,61,90,0
0,68,0,16
0,71,0,0
0,73,80,0
0,69,80,0
0,66,80,0
0,64,0,8
0,73,0,376
0,69,0,0
0,66,0,0
0,71,80,0
0,68,80,0
0,64,80,0
0,61,0,128
0,85,0,48
0,85,90,0
0,61,90,0
0,85,0,96
0,88,90,0
0,61,0,0
0,64,90,0
0,88,0,96
0,90,90,0
0,64,0,0
0,66,90,0
0,68,0,16
0,71,0,0
0,69,80,0
0,66,80,0
0,64,0,8
0,62,80,0
0,90,0,504
0,66,0,0
0,90,90,48
0,66,90,0
0,90,0,96
0,93,90,0
0,69,90,0
0,66,0,48
0,38,127,48
0,93,0,0
0,95,90,0
0,69,0,0
0,71,90,0
0,38,127,0
0,42,97,0
0,69,0,16
0,71,80,0
0,68,80,0
0,62,0,8
0,66,0,0
0,64,80,0
0,38,0,24
0,42,0,0
0,95,0,48
0,97,90,0
0,38,127,0
0,42,97,0
0,38,0,48
0,42,0,0
0,38,127,48
0,42,97,0
0,38,0,48
0,42,0,0
0,38,127,96
0,42,97,0
0,38,0,48
0,42,0,0
0,38,0,48
0,40,127,0
0,38,127,0
0,42,97,0
0,69,127,20
0,66,127,3
0,38,0,25
0,38,127,0
0,42,0,0
0,42,97,0
0,40,0,48
0,71,0,0
0,38,0,0
0,38,127,0
0,42,0,0
0,42,97,0
0,38,0,48
0,42,0,0
0,42,127,48
0,73,127,0
0,69,127,0
0,66,127,0
0,54,127,0
0,97,0,0
0,64,0,0
0,71,0,0
0,68,0,0
0,73,127,0
0,36,127,0
0,42,97,0
0,46,127,0
0,51,127,0
0,49,127,0
0,42,0,48
0,42,97,0
0,42,0,48
0,42,0,0
0,69,0,36
0,66,0,3
0,42,127,9
0,36,127,0
0,38,127,0
0,42,97,0
0,42,0,48
0,42,0,48
0,36,0,0
0,46,97,0
0,49,0,16
0,51,0,0
0,40,127,0
0,78,127,0
0,73,127,0
0,36,127,0
0,42,97,0
0,40,0,48
0,42,0,0
0,42,127,0
0,78,0,0
0,80,127,0
0,69,127,0
0,36,0,0
0,42,97,0
0,38,0,16
0,42,0,32
0,81,127,0
0,36,127,0
0,38,127,0
0,42,97,0
0,42,0,48
0,40,127,0
0,81,0,0
0,80,127,0
0,66,127,0
0,36,0,0
0,46,97,0
0,54,0,40
0,40,0,8
0,73,0,0
0,69,0,0
0,66,0,0
0,46,0,0
0,42,127,48
0,36,127,0
0,42,97,0
0,42,0,48
0,38,0,8
0,42,0,40
0,36,0,0
0,42,97,0
0,42,0,48
0,42,127,0
0,80,0,0
0,78,127,0
0,36,127,0
0,38,127,0
0,42,97,0
0,42,0,48
0,66,0,32
0,73,127,0
0,36,0,0
0,46,97,0
0,69,0,40
0,42,0,8
0,46,0,0
0,73,0,16
0,40,127,32
0,36,127,0
0,42,97,0
0,38,0,48
0,42,0,0
0,40,0,48
0,42,127,0
0,66,127,0
0,36,0,0
0,42,97,0
0,42,0,48
0,69,127,48
0,36,127,0
0,38,127,0
0,42,97,0
0,42,0,48
0,42,0,0
0,40,127,48
0,73,127,0
0,36,0,0
0,46,97,0
0,40,0,48
0,73,0,0
0,46,0,0
0,73,0,16
0,69,0,8
0,66,0,0
0,38,0,0
0,42,127,24
0,73,127,0
0,66,127,0
0,69,127,0
0,36,127,0
0,42,97,0
0,42,0,48
0,36,0,48
0,42,97,0
0,42,0,48
0,42,0,0
0,42,127,48
0,36,127,0
0,38,127,0
0,42,97,0
0,42,0,48
0,73,127,0
0,36,0,0
0,46,97,0
0,42,0,48
0,46,0,0
0,40,127,0
0,73,0,0
0,78,127,0
0,36,127,0
0,42,97,0
0,38,0,24
0,42,0,24
0,40,0,48
0,42,127,0
0,36,0,0
0,42,97,0
0,42,0,48
0,80,127,0
0,36,127,0
0,38,127,0
0,42,97,0
0,42,0,48
0,42,127,0
0,80,0,0
0,81,127,0
0,36,0,0
0,46,97,0
0,46,0,48
0,40,127,0
0,81,0,0
0,80,127,0
0,36,127,0
0,42,97,0
0,38,0,40
0,66,0,8
0,42,0,0
0,78,127,0
0,69,0,0
0,36,0,0
0,42,97,0
0,40,0,48
0,42,0,0
0,73,0,16
0,40,127,32
0,36,127,0
0,38,127,0
0,42,97,0
0,42,0,48
0,73,127,0
0,36,0,0
0,46,97,0
0,40,0,48
0,46,0,0
0,40,127,48
0,36,127,0
0,42,97,0
0,38,0,16
0,42,0,32
0,68,127,48
0,64,127,0
0,71,127,0
0,36,0,0
0,42,97,0
0,71,0,32
0,64,0,0
0,68,0,0
0,40,0,16
0,42,0,0
0,40,127,0
0,73,0,0
0,71,127,0
0,36,127,0
0,38,127,0
0,42,97,0
0,42,0,48
0,69,127,0
0,36,0,0
0,46,97,0
0,40,0,48
0,46,0,0
0,69,127,40
0,62,127,0
0,66,127,0
0,50,127,0
0,38,127,0
0,69,0,0
0,71,127,0
0,69,127,0
0,66,127,0
0,62,127,0
0,36,127,0
0,42,97,0
0,38,0,40
0,42,0,8
0,38,0,48
0,36,0,0
0,42,97,0
0,42,0,48
0,38,127,0
0,71,0,0
0,73,127,0
0,36,127,0
0,38,127,0
0,42,97,0
0,66,0,24
0,62,0,8
0,69,0,0
0,42,0,16
0,69,127,0
0,64,127,0
0,71,127,0
0,68,127,0
0,36,0,0
0,42,97,0
0,42,0,48
0,68,0,8
0,71,0,0
0,64,0,0
0,37,127,40
0,71,127,0
0,68,127,0
0,64,127,0
0,36,127,0
0,42,97,0
0,37,0,48
0,38,127,0
0,42,0,0
0,36,0,48
0,38,0,0
0,42,97,0
0,42,0,48
0,38,0,48
0,68,0,0
0,71,0,0
0,36,127,0
0,38,127,0
0,42,97,0
0,64,0,8
0,42,0,40
0,37,127,48
0,62,127,0
0,66,127,0
0,69,127,0
0,36,0,0
0,42,97,0
0,66,0,40
0,37,0,8
0,69,0,0
0,62,0,0
0,42,0,0
0,38,127,48
0,62,127,0
0,69,127,0
0,66,127,0
0,36,127,0
0,42,97,0
0,42,0,48
0,38,0,48
0,36,0,0
0,42,97,0
0,38,0,8
0,42,0,40
0,38,127,48
0,69,0,0
0,36,127,0
0,38,127,0
0,42,97,0
0,66,0,16
0,69,0,0
0,62,0,0
0,42,0,32
0,69,127,0
0,62,127,0
0,71,127,0
0,68,127,0
0,36,0,0
0,42,97,0
0,68,0,48
0,71,0,0
0,62,0,0
0,42,0,0
0,37,127,48
0,71,127,0
0,68,127,0
0,62,127,0
0,36,127,0
0,42,97,0
0,66,0,32
0,69,0,0
0,62,0,0
0,37,0,16
0,50,0,0
0,69,0,0
0,42,0,0
0,38,0,40
0,38,127,0
0,69,127,0
0,36,0,0
0,42,97,0
0,42,0,48
0,36,127,48
0,38,127,0
0,42,97,0
0,68,0,16
0,71,0,0
0,62,0,16
0,37,127,0
0,69,127,0
0,71,127,0
0,62,127,0
0,69,127,0
0,66,127,0
0,59,127,0
0,36,0,0
0,42,97,0
0,37,0,48
0,66,0,0
0,42,0,0
0,69,0,8
0,62,0,0
0,38,127,24
0,71,0,0
0,69,0,0
0,62,127,0
0,66,127,0
0,69,127,0
0,36,127,0
0,42,97,0
0,71,127,0
0,69,127,0
0,59,127,0
0,36,0,0
0,42,97,0
0,38,127,8
0,36,127,0
0,38,127,0
0,42,97,0
0,59,0,40
0,69,0,8
0,71,0,0
0,42,0,0
0,69,127,0
0,71,127,0
0,74,127,0
0,59,127,0
0,62,127,0
0,36,0,0
0,42,97,0
0,37,127,48
0,71,127,0
0,68,127,0
0,64,127,0
0,36,127,0
0,42,97,0
0,64,0,32
0,62,0,0
0,59,0,0
0,68,0,8
0,71,0,0
0,74,0,8
0,71,0,0
0,69,0,0
0,42,0,0
0,38,127,0
0,74,127,0
0,71,127,0
0,69,127,0
0,69,127,0
0,66,127,0
0,62,127,0
0,59,127,0
0,62,127,0
0,36,0,0
0,42,97,0
0,38,0,8
0,42,0,40
0,62,0,40
0,66,0,0
0,69,0,0
0,36,127,8
0,38,127,0
0,42,97,0
0,69,127,40
0,33,127,0
0,69,127,0
0,73,127,0
0,76,127,0
0,57,127,0
0,61,127,0
0,64,127,0
0,61,127,0
0,57,127,0
0,64,127,0
0,36,0,0
0,42,97,0
0,57,127,8
0,61,127,8
0,64,127,8
0,42,0,24
0,36,127,48
0,42,97,0
0,33,0,48
0,42,0,0
0,33,127,48
0,36,0,0
0,42,97,0
0,38,0,8
0,42,0,40
0,36,127,48
0,38,127,0
0,42,97,0
0,33,0,48
0,42,0,0
0,33,127,48
0,36,0,0
0,42,97,0
0,42,0,48
0,36,127,48
0,42,97,0
0,61,0,32
0,57,0,0
0,33,0,16
0,38,0,0
0,42,0,0
0,64,0,8
0,61,0,32
0,33,127,8
0,64,0,0
0,69,0,0
0,57,127,0
0,36,0,0
0,42,97,0
0,42,0,48
0,45,127,48
0,61,127,0
0,57,127,0
0,36,127,0
0,38,127,0
0,42,97,0
0,57,0,8
0,33,0,40
0,45,0,0
0,64,127,0
0,57,0,0
0,42,0,0
0,64,0,8
0,61,0,8
0,57,0,24
0,33,127,8
0,44,127,0
0,61,0,0
0,36,0,0
0,42,97,0
0,64,0,16
0,57,0,16
0,54,127,8
0,66,127,0
0,33,0,8
0,66,127,0
0,42,0,0
0,44,0,8
0,69,127,8
0,42,127,32
0,76,0,0
0,73,0,0
0,69,0,0
0,42,127,0
0,69,127,0
0,68,127,0
0,68,0,0
0,73,127,0
0,36,127,0
0,42,97,0
0,61,127,8
0,42,0,40
0,42,0,0
0,36,0,48
0,38,0,0
0,42,97,0
0,42,0,48
0,42,127,48
0,42,0,0
0,36,127,0
0,38,127,0
0,42,97,0
0,42,0,48
0,42,0,48
0,36,0,0
0,46,97,0
0,46,0,48
0,40,127,0
0,78,127,0
0,36,127,0
0,42,97,0
0,38,0,40
0,40,0,8
0,42,0,0
0,42,127,0
0,78,0,0
0,80,127,0
0,36,0,0
0,42,97,0
0,66,0,24
0,73,0,16
0,69,0,8
0,42,0,0
0,81,127,0
0,36,127,0
0,38,127,0
0,42,97,0
0,42,0,48
0,40,127,0
0,81,0,0
0,80,127,0
0,36,0,0
0,46,97,0
0,61,0,40
0,69,0,0
0,40,0,8
0,66,0,0
0,46,0,0
0,42,127,48
0,36,127,0
0,42,97,0
0,54,0,24
0,42,0,24
0,38,0,24
0,36,0,24
0,42,97,0
0,42,0,48
0,42,0,0
0,42,127,0
0,80,0,0
0,78,127,0
0,73,127,0
0,36,127,0
0,38,127,0
0,42,97,0
0,42,0,48
0,73,127,0
0,69,127,0
0,36,0,0
0,46,97,0
0,46,0,48
0,40,127,48
0,36,127,0
0,42,97,0
0,40,0,48
0,38,0,0
0,42,0,0
0,42,127,48
0,36,0,0
0,42,97,0
0,42,0,48
0,42,0,48
0,36,127,0
0,38,127,0
0,42,97,0
0,42,0,48
0,69,0,24
0,40,127,24
0,66,127,0
0,36,0,0
0,46,97,0
0,73,0,8
0,40,0,40
0,46,0,0
0,42,127,48
0,73,0,0
0,73,127,0
0,69,127,0
0,36,127,0
0,42,97,0
0,42,0,48
0,38,0,24
0,36,0,24
0,42,97,0
0,69,0,8
0,66,0,0
0,73,0,8
0,42,0,32
0,42,0,0
0,42,127,48
0,36,127,0
0,38,127,0
0,42,97,0
0,42,0,48
0,73,127,0
0,36,0,0
0,46,97,0
0,42,0,48
0,46,0,0
0,40,127,0
0,73,0,0
0,78,127,0
0,36,127,0
0,42,97,0
0,40,0,48
0,42,0,0
0,38,0,40
0,42,127,8
0,36,0,0
0,42,97,0
0,42,0,48
0,80,127,0
0,36,127,0
0,38,127,0
0,42,97,0
0,42,0,48
0,42,0,0
0,42,127,0
0,80,0,0
0,81,127,0
0,36,0,0
0,46,97,0
0,46,0,48
0,40,127,0
0,81,0,0
0,80,127,0
0,73,127,0
0,71,127,0
0,36,127,0
0,42,97,0
0,42,97,0
0,71,0,8
0,40,127,0
0,80,0,0
0,78,127,0
0,36,127,0
0,38,127,0
0,42,97,0
0,73,127,0
0,68,127,0
0,36,0,0
0,46,97,0
0,40,127,48
0,36,127,0
0,42,97,0
0,42,0,48
0,38,0,40
0,36,0,8
0,42,97,0
0,40,0,48
0,42,0,0
0,40,127,0
0,73,0,0
0,71,127,0
0,64,127,0
0,36,127,0
0,38,127,0
0,42,97,0
0,42,0,48
0,69,127,0
0,36,0,0
0,46,97,0
0,40,0,48
0,46,0,0
0,64,0,8
0,68,0,0
0,73,0,0
0,66,127,32
0,69,127,0
0,62,127,0
0,38,127,0
0,50,127,0
0,69,0,0
0,71,127,0
0,66,127,0
0,69,127,0
0,62,127,0
0,36,127,0
0,42,97,0
0,42,0,48
0,36,0,48
0,38,0,0
0,42,97,0
0,38,0,48
0,42,0,0
0,38,127,0
0,71,0,0
0,73,127,0
0,36,127,0
0,38,127,0
0,42,97,0
0,42,0,48
0,69,127,0
0,36,0,0
0,42,97,0
0,69,0,32
0,66,0,0
0,38,0,16
0,42,0,0
0,37,127,48
0,68,127,0
0,71,127,0
0,66,127,0
0,36,127,0
0,42,97,0
0,42,0,48
0,66,0,32
0,37,0,16
0,38,127,0
0,36,0,0
0,38,0,0
0,42,97,0
0,42,0,48
0,36,127,48
0,38,127,0
0,42,97,0
0,71,0,24
0,68,0,8
0,38,0,16
0,62,127,0
0,42,0,0
0,62,0,8
0,37,127,40
0,69,127,0
0,66,127,0
0,36,0,0
0,42,97,0
0,66,0,32
0,69,0,0
0,37,0,16
0,42,0,0
0,38,127,48
0,69,0,0
0,69,127,0
0,66,127,0
0,36,127,0
0,42,97,0
0,38,0,32
0,42,0,16
0,36,0,48
0,42,97,0
0,38,0,48
0,42,0,0
0,38,127,48
0,36,127,0
0,38,127,0
0,42,97,0
0,66,0,32
0,69,0,0
0,62,127,16
0,42,0,0
0,62,0,16
0,69,127,0
0,71,127,0
0,68,127,0
0,36,0,0
0,42,97,0
0,68,0,48
0,71,0,0
0,42,0,0
0,62,0,16
0,37,127,32
0,69,0,0
0,62,127,0
0,71,127,0
0,68,127,0
0,36,127,0
0,42,97,0
0,37,0,48
0,42,0,0
