track,note,velocity,time
0,88,55,1334
0,88,70,6
0,95,67,0
0,68,72,0
0,88,66,0
0,76,35,0
0,52,83,0
0,56,84,0
0,81,42,0
0,61,83,2
0,64,82,0
0,85,58,6
0,83,71,4
0,85,59,0
0,83,57,6
0,80,69,6
0,83,65,0
0,80,59,4
0,80,61,6
0,73,34,0
0,59,86,0
0,83,59,6
0,80,77,6
0,83,66,0
0,85,55,6
0,83,75,6
0,85,66,0
0,88,58,4
0,88,78,6
0,88,68,0
0,76,37,0
0,81,42,0
0,85,61,6
0,83,70,6
0,85,61,0
0,83,55,6
0,80,72,6
0,83,62,0
0,80,56,1
0,80,63,6
0,73,40,0
0,59,86,0
0,83,60,6
0,80,70,6
0,83,65,0
0,85,59,6
0,83,76,6
0,85,68,0
0,88,57,0
0,88,70,6
0,88,60,0
0,75,42,0
0,81,41,0
0,59,85,2
0,63,86,0
0,85,63,6
0,83,74,6
0,85,61,0
0,83,59,6
0,80,74,6
0,83,63,0
0,80,54,1
0,80,60,6
0,71,40,0
0,59,87,0
0,83,63,6
0,80,74,6
0,83,62,0
0,85,54,6
0,83,72,6
0,85,59,0
0,88,59,0
0,88,77,3
0,71,71,0
0,88,61,0
0,75,35,0
0,81,37,0
0,85,61,6
0,83,69,6
0,85,68,0
0,83,63,6
0,80,75,6
0,83,64,0
0,80,57,6
0,80,67,6
0,71,36,0
0,59,89,0
0,83,60,6
0,80,72,6
0,83,60,0
0,85,54,6
0,83,72,6
0,85,68,0
0,88,57,0
0,88,73,4
0,68,73,0
0,88,62,0
0,76,39,0
0,81,41,0
0,57,80,2
0,61,83,0
0,85,55,6
0,83,76,6
0,85,67,0
0,83,60,6
0,80,71,6
0,83,60,0
0,80,57,3
0,80,60,6
0,73,37,0
0,59,86,0
0,83,58,6
0,80,71,6
0,83,65,0
0,85,56,6
0,83,69,6
0,85,67,0
0,88,60,6
0,88,71,1
0,88,59,0
0,76,42,0
0,81,41,0
0,85,56,6
0,83,75,6
0,85,65,0
0,83,63,6
0,80,75,6
0,83,60,0
0,80,60,6
0,80,67,6
0,73,39,0
0,59,88,0
0,83,57,6
0,80,71,6
0,83,62,0
0,85,62,6
0,83,70,6
0,85,62,0
0,88,56,0
0,88,77,6
0,88,64,0
0,75,43,0
0,81,41,0
0,59,88,2
0,63,82,0
0,85,63,6
0,83,72,6
0,85,64,0
0,83,63,6
0,80,78,6
0,83,64,0
0,80,59,3
0,80,68,6
0,71,43,0
0,59,85,0
0,83,57,6
0,80,73,6
0,83,59,0
0,85,57,6
0,83,72,6
0,85,62,0
0,88,62,6
0,88,76,1
0,88,63,0
0,75,38,0
0,81,40,0
0,85,61,6
0,83,72,6
0,85,68,0
0,83,63,6
0,80,75,6
0,83,64,0
0,80,59,6
0,80,67,6
0,71,34,0
0,59,94,0
0,83,63,6
0,80,73,6
0,83,64,0
0,85,58,6
0,83,77,6
0,85,63,0
0,88,57,0
0,88,75,6
0,68,73,0
0,88,67,0
0,76,41,0
0,81,41,0
0,61,82,2
0,64,84,0
0,85,61,6
0,83,71,6
0,85,66,0
0,83,56,6
0,80,72,6
0,83,63,0
0,80,63,6
0,80,59,6
0,73,43,0
0,59,92,0
0,83,56,6
0,80,77,6
0,83,68,0
0,85,56,6
0,83,69,6
0,85,63,0
0,88,55,3
0,88,73,6
0,88,62,0
0,76,35,0
0,81,38,0
0,85,59,6
0,83,78,6
0,85,59,0
0,83,57,6
0,80,71,6
0,83,66,0
0,80,58,6
0,80,63,6
0,73,38,0
0,59,94,0
0,83,60,6
0,80,71,6
0,83,59,0
0,85,56,6
0,83,71,6
0,85,65,0
0,88,57,0
0,88,70,6
0,88,59,0
0,75,39,0
0,81,42,0
0,59,83,2
0,63,83,0
0,85,57,6
0,83,72,6
0,85,63,0
0,83,63,6
0,80,70,6
0,83,61,0
0,80,55,3
0,80,66,6
0,71,36,0
0,59,85,0
0,83,55,6
0,80,76,6
0,83,62,0
0,85,60,6
0,83,74,6
0,85,66,0
0,88,61,0
0,88,77,0
0,71,70,0
0,88,63,0
0,75,36,0
0,81,40,0
0,85,61,6
0,83,74,6
0,85,67,0
0,83,57,6
0,80,70,6
0,83,66,0
0,80,55,0
0,80,63,6
0,71,37,0
0,59,88,0
0,83,56,6
0,80,73,6
0,83,66,0
0,85,61,6
0,83,72,6
0,85,67,0
0,88,55,0
0,88,70,6
0,68,71,0
0,88,65,0
0,76,37,0
0,81,35,0
0,57,87,2
0,61,83,0
0,85,56,6
0,83,75,6
0,85,65,0
0,83,57,6
0,80,69,6
0,83,61,0
0,80,61,6
0,80,67,0
0,73,43,0
0,59,89,0
0,83,54,6
0,80,75,6
0,83,59,0
0,85,62,6
0,83,71,6
0,85,64,0
0,88,61,1
0,88,73,6
0,88,60,0
0,76,40,0
0,81,36,0
0,85,59,6
0,83,74,6
0,85,62,0
0,83,55,6
0,80,77,6
0,83,67,0
0,80,55,6
0,80,67,1
0,73,36,0
0,59,85,0
0,83,63,6
0,80,74,6
0,83,62,0
0,85,60,6
0,83,75,6
0,85,68,0
0,88,62,0
0,88,75,1
0,88,67,0
0,75,43,0
0,81,43,0
0,59,81,2
0,63,80,0
0,85,55,6
0,83,70,6
0,85,68,0
0,83,59,6
0,80,70,6
0,83,60,0
0,80,62,6
0,80,61,6
0,71,35,0
0,59,86,0
0,83,58,6
0,80,75,6
0,83,64,0
0,85,54,6
0,83,71,6
0,85,60,0
0,88,63,0
0,88,78,6
0,88,63,0
0,75,39,0
0,81,42,0
0,85,55,6
0,83,70,6
0,85,66,0
0,83,54,6
0,80,73,6
0,83,64,0
0,80,56,4
0,80,61,6
0,71,35,0
0,59,86,0
0,83,57,6
0,80,77,6
0,83,61,0
0,85,61,6
0,83,73,6
0,85,61,0
0,88,62,0
0,88,74,6
0,88,66,0
0,76,37,0
0,81,40,0
0,61,80,2
0,64,80,0
0,85,56,6
0,83,72,6
0,85,65,0
0,83,60,6
0,80,75,6
0,83,68,0
0,80,63,1
0,80,60,6
0,73,40,0
0,59,91,0
0,83,60,6
0,80,71,6
0,83,62,0
0,85,62,6
0,83,78,6
0,85,62,0
0,88,60,6
0,88,75,2
0,88,63,0
0,76,35,0
0,81,43,0
0,85,57,6
0,83,75,6
0,85,64,0
0,83,61,6
0,80,74,6
0,83,68,0
0,80,63,6
0,80,67,5
0,73,39,0
0,59,86,0
0,83,55,6
0,80,76,6
0,83,65,0
0,85,63,6
0,83,70,6
0,85,61,0
0,88,57,0
0,88,77,6
0,88,60,0
0,75,35,0
0,81,38,0
0,59,80,2
0,63,83,0
0,85,56,6
0,83,75,6
0,85,68,0
0,83,58,6
0,80,77,6
0,83,67,0
0,80,58,6
0,80,59,6
0,71,39,0
0,59,93,0
0,83,60,6
0,80,72,6
0,83,62,0
0,85,55,6
0,83,78,6
0,85,67,0
0,88,59,6
0,88,72,6
0,88,65,0
0,75,42,0
0,81,40,0
0,85,58,6
0,83,73,6
0,85,65,0
0,83,59,6
0,80,74,6
0,83,66,0
0,80,57,6
0,80,68,6
0,71,41,0
0,59,87,0
0,83,57,6
0,80,76,6
0,83,63,0
0,85,56,6
0,83,69,6
0,85,66,0
0,88,54,0
0,88,76,6
0,68,78,0
0,88,64,0
0,76,39,0
0,81,43,0
0,57,79,2
0,61,81,0
0,85,62,6
0,83,77,6
0,85,66,0
0,83,59,6
0,80,78,6
0,83,60,0
0,80,60,6
0,80,66,2
0,73,41,0
0,59,88,0
0,83,58,6
0,80,75,6
0,83,63,0
0,85,58,6
0,83,77,6
0,85,68,0
0,88,59,6
0,88,75,6
0,88,64,0
0,76,35,0
0,81,38,0
0,85,56,6
0,83,72,6
0,85,65,0
0,83,58,6
0,80,72,6
0,83,65,0
0,80,57,1
0,80,61,6
0,73,41,0
0,59,90,0
0,83,63,6
0,80,73,6
0,83,63,0
0,85,63,6
0,83,74,6
0,85,65,0
0,88,63,0
0,88,78,6
0,88,61,0
0,75,37,0
0,81,42,0
0,59,87,2
0,63,82,0
0,85,58,6
0,83,73,6
0,85,64,0
0,83,61,6
0,80,78,6
0,83,67,0
0,80,58,6
0,80,59,6
0,71,35,0
0,59,94,0
0,83,56,6
0,80,75,6
0,83,60,0
0,85,56,6
0,83,71,6
0,85,66,0
0,88,57,6
0,88,77,6
0,88,61,0
0,75,37,0
0,81,40,0
0,85,55,6
0,83,71,6
0,85,61,0
0,83,60,6
0,80,75,6
0,83,67,0
0,80,54,4
0,80,62,6
0,71,38,0
0,59,94,0
0,83,60,6
0,80,70,6
0,83,68,0
0,85,57,6
0,83,70,6
0,85,63,0
0,88,54,0
0,88,72,6
0,88,61,0
0,76,37,0
0,81,40,0
0,61,81,2
0,64,85,0
0,85,59,6
0,83,70,6
0,85,66,0
0,83,54,6
0,80,74,6
0,83,65,0
0,80,63,3
0,80,62,6
0,73,39,0
0,59,88,0
0,83,54,6
0,80,71,6
0,83,66,0
0,85,54,6
0,83,78,6
0,85,61,0
0,88,54,6
0,88,74,4
0,88,66,0
0,76,37,0
0,81,42,0
0,85,60,6
0,83,73,6
0,85,65,0
0,83,55,6
0,80,75,6
0,83,63,0
0,80,59,2
0,80,65,6
0,73,35,0
0,59,85,0
0,83,58,6
0,80,72,6
0,83,60,0
0,85,56,6
0,83,77,6
0,85,62,0
0,88,55,0
0,88,72,6
0,88,62,0
0,75,35,0
0,81,44,0
0,59,82,2
0,63,86,0
0,85,55,6
0,83,73,6
0,85,64,0
0,83,61,6
0,80,78,6
0,83,68,0
0,80,61,6
0,80,67,5
0,71,36,0
0,59,91,0
0,83,63,6
0,80,69,6
0,83,62,0
0,85,61,6
0,83,73,6
0,85,60,0
0,88,60,0
0,88,69,6
0,71,70,0
0,88,64,0
0,75,36,0
0,81,38,0
0,85,58,6
0,83,69,6
0,85,67,0
0,83,62,6
0,80,74,6
0,83,63,0
0,80,57,6
0,80,60,6
0,71,38,0
0,59,88,0
0,83,63,6
0,80,75,6
0,83,59,0
0,85,55,6
0,83,75,6
0,85,63,0
0,88,63,0
0,88,75,6
0,68,75,0
0,88,59,0
0,76,40,0
0,81,44,0
0,57,83,2
0,61,85,0
0,85,62,6
0,83,70,6
0,85,66,0
0,83,61,6
0,80,70,6
0,83,67,0
0,80,61,3
0,80,65,6
0,73,39,0
0,59,90,0
0,83,60,6
0,80,78,6
0,83,65,0
0,85,59,6
0,83,69,6
0,85,65,0
0,88,59,4
0,88,74,6
0,88,60,0
0,76,36,0
0,81,44,0
0,85,56,6
0,83,78,6
0,85,63,0
0,83,59,6
0,80,76,6
0,83,60,0
0,80,56,6
0,80,67,6
0,73,40,0
0,59,94,0
0,83,58,6
0,80,69,6
0,83,61,0
0,85,60,6
0,83,71,6
0,85,63,0
0,88,54,6
0,88,72,6
0,88,64,0
0,76,38,0
0,81,38,0
0,85,60,6
0,83,69,6
0,85,68,0
0,83,54,6
0,80,69,6
0,83,64,0
0,80,56,6
0,80,61,6
0,73,43,0
0,59,90,0
0,83,54,6
0,80,73,6
0,83,62,0
0,85,54,6
0,83,72,6
0,85,68,0
0,88,60,6
0,88,76,6
0,88,65,0
0,76,36,0
0,56,113,0
0,81,39,0
0,44,94,0
0,38,116,0
0,55,122,0
0,85,61,6
0,83,75,6
0,85,60,0
0,83,62,6
0,80,71,6
0,83,59,0
0,80,61,6
0,80,60,5
0,73,36,0
0,83,59,2
0,80,69,6
0,83,62,0
0,85,56,2
0,83,71,6
0,85,67,0
0,76,43,6
0,52,117,0
0,40,98,0
0,35,119,0
0,42,60,0
0,55,120,0
0,52,111,6
0,42,54,0
0,52,114,6
0,52,109,6
0,40,101,0
0,35,120,0
0,38,120,0
0,42,61,0
0,54,85,6
0,61,85,0
0,54,111,0
0,42,98,0
0,42,56,0
0,69,75,6
0,75,43,0
0,47,110,0
0,35,95,0
0,35,117,0
0,42,56,0
0,59,84,6
0,63,85,0
0,42,59,0
0,47,111,102
0,35,101,0
0,35,121,0
0,38,119,0
0,42,57,0
0,54,79,6
0,59,86,0
0,42,59,0
0,68,76,6
0,76,38,0
0,52,109,0
0,40,94,0
0,35,114,0
0,42,58,0
0,52,110,102
0,42,61,0
0,52,116,6
0,40,94,0
0,52,111,6
0,40,95,0
0,35,121,0
0,38,113,0
0,42,61,0
0,54,87,6
0,61,83,0
0,54,114,0
0,42,101,0
0,42,55,0
0,66,76,1
0,75,35,0
0,47,117,0
0,35,98,0
0,35,120,0
0,42,61,0
0,59,88,188
0,63,85,0
0,61,66,0
0,46,88,0
0,55,118,0
0,62,64,102
0,35,121,0
0,38,122,0
0,42,56,0
0,54,82,62
0,59,86,0
0,62,62,0
0,46,87,0
0,68,75,6
0,76,39,0
0,52,112,0
0,40,102,0
0,35,119,0
0,42,54,0
0,42,59,6
0,52,110,6
0,42,61,0
0,52,110,6
0,40,96,0
0,42,61,0
0,52,113,6
0,40,95,0
0,35,122,0
0,38,114,0
0,42,54,0
0,54,82,6
0,61,85,0
0,54,111,0
0,42,103,0
0,42,59,0
0,42,56,6
0,69,70,5
0,75,42,0
0,47,117,0
0,35,103,0
0,35,118,0
0,42,59,0
0,66,104,6
0,59,81,0
0,63,87,0
0,42,62,0
0,47,113,102
0,35,94,0
0,35,121,0
0,38,121,0
0,42,60,0
0,68,105,0
0,54,82,0
0,59,87,0
0,42,60,0
0,64,107,6
0,68,74,0
0,76,42,0
0,49,116,0
0,37,100,0
0,35,118,0
0,42,58,0
0,49,110,6
0,42,54,0
0,61,109,6
0,49,109,0
0,37,100,0
0,75,35,6
0,49,110,0
0,37,99,0
0,35,119,0
0,38,117,0
0,42,62,0
0,47,112,6
0,35,99,0
0,42,59,0
0,47,86,92
0,66,72,6
0,73,39,0
0,45,116,0
0,33,103,0
0,35,116,0
0,42,55,0
0,47,86,0
0,61,65,188
0,42,57,0
0,47,90,0
0,62,68,6
0,35,121,0
0,38,121,0
0,42,59,0
0,47,91,0
0,62,69,6
0,42,62,0
0,47,87,0
0,42,62,92
0,47,90,0
0,68,71,6
0,76,34,0
0,52,115,0
0,40,99,0
0,35,116,0
0,42,53,0
0,42,54,6
0,52,118,6
0,42,54,0
0,52,114,6
0,40,96,0
0,42,59,0
0,52,112,6
0,40,99,0
0,35,114,0
0,38,118,0
0,42,58,0
0,42,58,92
0,54,81,6
0,61,87,0
0,54,117,0
0,42,100,0
0,42,53,0
0,42,61,6
0,69,72,3
0,75,39,0
0,47,117,0
0,35,101,0
0,35,117,0
0,42,58,0
0,59,81,6
0,63,88,0
0,47,111,0
0,35,102,0
0,42,55,0
0,47,112,102
0,35,94,0
0,35,114,0
0,38,114,0
0,42,62,0
0,54,88,6
0,59,85,0
0,42,54,0
0,68,76,6
0,76,36,0
0,52,110,0
0,40,98,0
0,35,115,0
0,42,60,0
0,52,116,6
0,42,62,0
0,52,110,6
0,40,96,0
0,52,116,6
0,40,101,0
0,35,117,0
0,38,116,0
0,42,57,0
0,54,83,6
0,61,88,0
0,54,113,0
0,42,102,0
0,42,53,0
0,66,70,6
0,75,34,0
0,47,115,0
0,35,103,0
0,35,122,0
0,42,57,0
0,59,87,182
0,63,82,0
0,61,69,0
0,42,62,0
0,62,68,102
0,35,119,0
0,38,117,0
0,42,59,0
0,54,88,6
0,59,86,0
0,62,61,0
0,42,55,0
0,42,55,6
0,68,102,0
0,68,73,0
0,76,37,0
0,52,115,0
0,40,95,0
0,35,118,0
0,42,60,0
0,52,115,6
0,42,60,0
0,64,110,6
0,52,111,0
0,40,102,0
0,64,104,6
0,52,110,0
0,40,96,0
0,35,118,0
0,38,115,0
0,42,57,0
0,54,84,6
0,61,83,0
0,54,114,0
0,42,99,0
0,42,55,0
0,59,105,6
0,42,57,0
0,59,107,1
0,69,73,0
0,75,36,0
0,47,112,0
0,35,95,0
0,35,115,0
0,42,60,0
0,59,80,102
0,63,79,0
0,47,117,0
0,35,95,0
0,42,61,0
0,55,118,0
0,47,109,102
0,35,100,0
0,35,120,0
0,38,119,0
