track,note,velocity,time
1,74,100,4560
1,74,0,30
1,74,100,0
1,74,0,30
1,74,100,0
1,74,0,30
1,74,100,0
1,74,0,30
1,74,100,0
1,74,0,60
1,74,100,0
1,74,0,30
1,76,100,0
1,76,0,240
1,74,100,0
1,74,0,30
1,74,100,0
1,74,0,90
1,71,100,0
1,71,0,90
1,69,100,0
1,69,0,30
1,71,100,0
1,71,0,90
1,69,100,0
1,69,0,30
1,71,100,0
1,71,0,60
1,69,100,0
1,69,0,30
1,67,100,0
1,67,0,180
1,74,100,840
1,74,0,30
1,74,100,0
1,74,0,60
1,74,100,0
1,74,0,30
1,74,100,0
1,74,0,60
1,74,100,0
1,74,0,30
1,76,100,0
1,76,0,210
1,76,100,0
1,76,0,60
1,71,100,0
1,71,0,30
1,74,100,0
1,74,0,90
1,74,100,0
1,74,0,60
1,70,100,0
1,70,0,15
1,71,100,0
1,71,0,15
1,69,100,0
1,69,0,60
1,67,100,0
1,67,0,30
1,64,100,0
1,64,0,180
1,74,100,600
1,74,0,30
1,76,100,0
1,76,0,90
1,79,100,0
1,79,0,30
1,79,100,0
1,79,0,90
1,81,100,0
1,81,0,60
1,76,100,0
1,76,0,30
1,76,100,0
1,76,0,30
1,74,100,120
1,74,0,30
1,76,100,0
1,76,0,90
1,79,100,0
1,79,0,30
1,79,100,0
1,79,0,60
1,81,100,0
1,81,0,60
1,76,100,30
1,76,0,30
1,74,100,0
1,74,0,30
1,76,100,0
1,76,0,60
1,74,100,60
1,74,0,30
1,76,100,0
1,76,0,90
1,83,100,0
1,83,0,120
1,81,100,0
1,81,0,60
1,79,100,0
1,79,0,60
1,81,100,0
1,81,0,60
1,79,100,0
1,79,0,60
1,74,100,0
1,74,0,30
1,76,100,0
1,76,0,90
1,79,100,0
1,79,0,30
1,76,100,0
1,76,0,90
1,76,100,0
1,76,0,60
1,74,100,0
1,74,0,30
1,76,100,0
1,76,0,30
1,74,100,120
1,74,0,30
1,76,100,0
1,76,0,90
1,79,100,0
1,79,0,30
1,79,100,0
1,79,0,90
1,81,100,0
1,81,0,60
1,76,100,0
1,76,0,30
1,76,100,0
1,76,0,30
1,74,100,120
1,74,0,30
1,76,100,0
1,76,0,90
1,79,100,0
1,79,0,30
1,79,100,0
1,79,0,60
1,81,100,0
1,81,0,60
1,76,100,30
1,76,0,30
1,74,100,0
1,74,0,30
1,76,100,0
1,76,0,60
1,74,100,60
1,74,0,30
1,76,100,0
1,76,0,90
1,83,100,0
1,83,0,120
1,81,100,0
1,81,0,60
1,79,100,0
1,79,0,60
1,81,100,0
1,81,0,60
1,76,100,0
1,76,0,60
1,74,100,0
1,74,0,60
1,76,100,0
1,76,0,60
1,79,100,0
1,79,0,30
1,76,100,0
1,76,0,90
1,76,100,0
1,76,0,60
1,74,100,0
1,74,0,30
1,76,100,0
1,76,0,30
1,74,100,2400
1,74,0,30
1,74,100,0
1,74,0,30
1,74,100,0
1,74,0,30
1,74,100,0
1,74,0,30
1,74,100,0
1,74,0,60
1,74,100,0
1,74,0,30
1,76,100,0
1,76,0,270
1,74,100,0
1,74,0,30
1,71,100,0
1,71,0,150
1,71,100,0
1,71,0,120
1,71,100,0
1,71,0,30
1,71,100,0
1,71,0,90
1,74,100,1020
1,74,0,30
1,74,100,0
1,74,0,60
1,74,100,0
1,74,0,30
1,74,100,0
1,74,0,60
1,74,100,0
1,74,0,30
1,76,100,0
1,76,0,210
1,76,100,0
1,76,0,60
1,71,100,0
1,71,0,30
1,74,100,0
1,74,0,90
1,74,100,0
1,74,0,60
1,70,100,0
1,70,0,15
1,71,100,0
1,71,0,15
1,69,100,0
1,69,0,60
1,67,100,0
1,67,0,30
1,64,100,0
1,64,0,120
1,74,100,1020
1,74,0,60
1,74,100,0
1,74,0,30
1,74,100,0
1,74,0,90
1,74,100,0
1,74,0,30
1,76,100,0
1,76,0,210
1,76,108,0
1,76,0,60
1,71,108,0
1,71,0,30
1,74,108,0
1,74,0,90
1,74,108,0
1,74,0,60
1,70,108,0
1,70,0,15
1,71,108,0
1,71,0,15
1,69,108,0
1,69,0,90
1,67,108,0
1,67,0,30
1,64,108,0
1,64,0,90
1,74,100,660
1,74,0,30
1,76,100,0
1,76,0,90
1,79,100,0
1,79,0,30
1,79,100,0
1,79,0,90
1,81,100,0
1,81,0,60
1,76,100,0
1,76,0,30
1,76,100,0
1,76,0,30
1,74,100,120
1,74,0,30
1,76,100,0
1,76,0,90
1,79,100,0
1,79,0,30
1,79,100,0
1,79,0,60
1,81,100,0
1,81,0,60
1,76,100,30
1,76,0,30
1,74,100,0
1,74,0,30
1,76,100,0
1,76,0,60
1,74,100,60
1,74,0,30
1,76,100,0
1,76,0,90
1,83,100,0
1,83,0,120
1,81,100,0
1,81,0,60
1,79,100,0
1,79,0,60
1,81,100,0
1,81,0,60
1,79,100,0
1,79,0,60
1,74,100,0
1,74,0,30
1,76,100,0
1,76,0,90
1,79,100,0
1,79,0,30
1,76,100,0
1,76,0,90
1,76,100,0
1,76,0,60
1,74,100,0
1,74,0,30
1,76,100,0
1,76,0,30
1,74,100,150
1,74,0,30
1,76,100,0
1,76,0,60
1,79,100,0
1,79,0,30
1,79,100,0
1,79,0,90
1,81,100,0
1,81,0,60
1,76,100,0
1,76,0,30
1,76,100,0
1,76,0,30
1,74,100,120
1,74,0,30
1,76,100,0
1,76,0,90
1,79,100,0
1,79,0,30
1,79,100,0
1,79,0,60
1,81,100,0
1,81,0,60
1,76,100,30
1,76,0,30
1,74,100,0
1,74,0,30
1,76,100,0
1,76,0,60
1,74,100,60
1,74,0,30
1,76,100,0
1,76,0,90
1,83,100,0
1,83,0,120
1,81,100,0
1,81,0,60
1,79,100,0
1,79,0,60
1,81,100,0
1,81,0,60
1,79,100,0
1,79,0,60
1,74,100,0
1,74,0,30
1,76,100,0
1,76,0,90
1,79,100,0
1,79,0,30
1,76,100,0
1,76,0,90
1,76,100,0
1,76,0,60
1,74,100,0
1,74,0,30
1,76,100,0
1,76,0,30
1,74,100,150
1,74,0,30
1,76,100,0
1,76,0,60
1,79,100,0
1,79,0,30
1,79,100,0
1,79,0,90
1,81,100,0
1,81,0,60
1,76,100,0
1,76,0,30
1,76,100,0
1,76,0,30
1,74,100,120
1,74,0,30
1,76,100,0
1,76,0,90
1,79,100,0
1,79,0,30
1,81,100,0
1,81,0,90
1,81,100,0
1,81,0,30
1,76,100,0
1,76,0,30
1,76,100,0
1,76,0,30
1,74,100,0
1,74,0,30
1,76,100,0
1,76,0,60
1,74,100,60
1,74,0,30
1,76,100,0
1,76,0,90
1,83,100,0
1,83,0,120
1,81,100,0
1,81,0,60
1,79,100,0
1,79,0,60
1,81,100,0
1,81,0,60
1,79,100,0
1,79,0,60
1,74,100,0
1,74,0,30
1,76,100,0
1,76,0,90
1,79,100,0
1,79,0,30
1,76,100,0
1,76,0,90
1,76,100,0
1,76,0,60
1,74,100,0
1,74,0,30
1,76,100,0
1,76,0,30
1,76,110,21780
1,76,0,60
1,81,110,0
1,81,0,60
1,83,110,0
1,83,0,60
1,81,110,60
1,81,0,120
1,79,110,0
1,79,0,60
1,81,110,0
1,81,0,60
1,76,110,0
1,76,0,60
1,76,110,0
1,76,0,420
1,76,110,900
1,76,0,60
1,76,110,0
1,76,0,60
1,81,110,0
1,81,0,60
1,83,110,0
1,83,0,60
1,81,110,0
1,81,0,60
1,79,110,0
1,79,0,60
1,81,110,0
1,81,0,60
1,76,110,0
1,76,0,60
1,76,110,0
1,76,0,480
1,76,110,1020
1,76,0,60
1,83,110,0
1,83,0,60
1,83,110,0
1,83,0,60
1,81,110,0
1,81,0,60
1,79,110,0
1,79,0,60
1,81,110,0
1,81,0,60
1,76,110,0
1,76,0,60
1,76,110,0
1,76,0,480
1,76,79,1020
1,76,0,60
1,81,77,0
1,81,0,60
1,83,75,0
1,83,0,60
1,81,73,60
1,81,0,120
1,79,70,0
1,79,0,60
1,81,69,0
1,81,0,60
1,76,68,0
1,76,0,60
1,76,66,0
1,76,0,480
1,76,32,900
1,76,0,60
1,81,30,0
1,81,0,60
1,83,29,0
1,83,0,60
1,81,27,60
1,81,0,120
1,79,24,0
1,79,0,60
1,81,23,0
1,81,0,60
1,76,22,0
1,76,0,60
1,76,20,0
1,76,0,240
2,68,100,4560
2,71,100,0
2,71,0,30
2,68,0,0
2,68,100,0
2,71,100,0
2,71,0,30
2,68,0,0
2,68,100,0
2,71,100,0
2,71,0,30
2,68,0,0
2,68,100,0
2,71,100,0
2,71,0,30
2,68,0,0
2,71,100,0
2,71,0,60
2,68,100,0
2,71,100,0
2,71,0,30
2,68,0,0
2,69,100,0
2,73,100,0
2,73,0,240
2,69,0,0
2,67,100,0
2,71,100,0
2,71,0,30
2,67,0,0
2,67,100,0
2,71,100,0
2,71,0,90
2,67,0,0
2,64,100,0
2,67,100,0
2,67,0,90
2,64,0,0
2,62,100,0
2,66,100,0
2,66,0,30
2,62,0,0
2,64,100,0
2,67,100,0
2,67,0,90
2,64,0,0
2,62,100,0
2,66,100,0
2,66,0,30
2,62,0,0
2,64,100,0
2,67,100,0
2,67,0,90
2,64,0,0
2,62,100,0
2,66,100,0
2,66,0,30
2,62,0,0
2,60,100,0
2,64,100,0
2,64,0,150
2,60,0,0
2,68,100,840
2,71,100,0
2,71,0,30
2,68,0,0
2,68,100,0
2,71,100,0
2,71,0,60
2,68,0,0
2,68,100,0
2,71,100,0
2,71,0,30
2,68,0,0
2,68,100,0
2,71,100,0
2,71,0,60
2,68,0,0
2,68,100,0
2,71,100,0
2,71,0,30
2,68,0,0
2,69,100,0
2,73,100,0
2,73,0,210
2,69,0,0
2,67,100,0
2,71,100,0
2,71,0,60
2,67,0,0
2,64,100,0
2,67,100,0
2,67,0,30
2,64,0,0
2,67,100,0
2,71,100,0
2,71,0,90
2,67,0,0
2,64,100,0
2,67,100,0
2,67,0,60
2,64,0,0
2,64,100,0
2,67,100,0
2,67,0,30
2,64,0,0
2,64,100,0
2,67,100,0
2,67,0,60
2,64,0,0
2,62,100,0
2,66,100,0
2,66,0,30
2,62,0,0
2,59,100,0
2,64,100,0
2,64,0,180
2,59,0,0
2,62,100,1560
2,62,0,30
2,64,100,0
2,64,0,90
2,67,100,0
2,67,0,120
2,64,100,0
2,64,0,60
2,64,100,0
2,64,0,60
2,64,100,0
2,64,0,60
2,64,100,0
2,64,0,60
2,67,100,360
2,67,0,30
2,64,100,0
2,64,0,90
2,64,100,0
2,64,0,60
2,62,100,0
2,62,0,30
2,64,100,0
2,64,0,30
2,67,100,240
2,67,0,30
2,67,100,0
2,67,0,90
2,69,100,0
2,69,0,30
2,64,100,0
2,64,0,30
2,64,100,0
2,64,0,30
2,64,100,0
2,64,0,30
2,62,100,360
2,62,0,30
2,64,100,0
2,64,0,90
2,67,100,0
2,67,0,120
2,64,100,0
2,64,0,60
2,64,100,0
2,64,0,60
2,64,100,0
2,64,0,60
2,64,100,0
2,64,0,60
2,67,100,360
2,67,0,30
2,64,100,0
2,64,0,90
2,64,100,0
2,64,0,60
2,62,100,0
2,62,0,30
2,64,100,0
2,64,0,30
2,68,100,2160
2,71,100,0
2,71,0,30
2,68,0,0
2,68,100,0
2,71,100,0
2,71,0,30
2,68,0,0
2,68,100,0
2,71,100,0
2,71,0,30
2,68,0,0
2,68,100,0
2,71,100,0
2,71,0,30
2,68,0,0
2,68,100,0
2,71,100,0
2,71,0,60
2,68,0,0
2,68,100,0
2,71,100,0
2,71,0,30
2,68,0,0
2,69,100,0
2,73,100,0
2,73,0,270
2,69,0,0
2,67,100,0
2,71,100,0
2,71,0,30
2,67,0,0
2,62,100,0
2,67,100,0
2,67,0,150
2,62,0,0
2,67,100,0
2,64,100,0
2,64,0,120
2,67,0,0
2,64,100,0
2,66,100,0
2,66,0,30
2,64,0,0
2,67,100,0
2,64,100,0
2,64,0,90
2,67,0,0
2,68,100,1020
2,71,100,0
2,71,0,30
2,68,0,0
2,68,100,0
2,71,100,0
2,71,0,60
2,68,0,0
2,68,100,0
2,71,100,0
2,71,0,30
2,68,0,0
2,71,100,0
2,68,100,0
2,68,0,60
2,71,0,0
2,68,100,0
2,71,100,0
2,71,0,30
2,68,0,0
2,69,100,0
2,73,100,0
2,73,0,210
2,69,0,0
2,67,100,0
2,71,100,0
2,71,0,60
2,67,0,0
2,64,100,0
2,67,100,0
2,67,0,30
2,64,0,0
2,67,100,0
2,71,100,0
2,71,0,90
2,67,0,0
2,64,100,0
2,67,100,0
2,67,0,60
2,64,0,0
2,64,100,0
2,67,100,0
2,67,0,30
2,64,0,0
2,64,100,0
2,67,100,0
2,67,0,60
2,64,0,0
2,62,100,0
2,66,100,0
2,66,0,30
2,62,0,0
2,59,100,0
2,64,100,0
2,64,0,120
2,59,0,0
2,68,100,1020
2,71,100,0
2,71,0,60
2,68,0,0
2,68,100,0
2,71,100,0
2,71,0,30
2,68,0,0
2,68,100,0
2,71,100,0
2,71,0,90
2,68,0,0
2,68,100,0
2,71,100,0
2,71,0,30
2,68,0,0
2,69,100,0
2,73,100,0
2,73,0,210
2,69,0,0
2,71,108,0
2,67,108,0
2,67,0,60
2,71,0,0
2,64,108,0
2,67,108,0
2,67,0,30
2,64,0,0
2,71,108,0
2,67,108,0
2,67,0,90
2,71,0,0
2,64,108,0
2,67,108,0
2,67,0,60
2,64,0,0
2,64,108,0
2,67,108,0
2,67,0,30
2,64,0,0
2,64,108,0
2,67,108,0
2,67,0,60
2,64,0,0
2,62,108,0
2,66,108,0
2,66,0,30
2,62,0,0
2,64,108,0
2,59,108,0
2,59,0,120
2,64,0,0
2,62,100,1620
2,62,0,30
2,64,100,0
2,64,0,90
2,67,100,0
2,67,0,120
2,64,100,0
2,64,0,60
2,64,100,0
2,64,0,60
2,64,100,0
2,64,0,60
2,64,100,0
2,64,0,60
2,67,100,360
2,67,0,30
2,64,100,0
2,64,0,90
2,64,100,0
2,64,0,60
2,62,100,0
2,62,0,30
2,64,100,0
2,64,0,30
2,67,100,240
2,67,0,30
2,67,100,0
2,67,0,90
2,69,100,0
2,69,0,30
2,64,100,0
2,64,0,30
2,64,100,0
2,64,0,30
2,64,100,0
2,64,0,30
2,62,100,360
2,62,0,30
2,64,100,0
2,64,0,90
2,67,100,0
2,67,0,120
2,64,100,0
2,64,0,60
2,64,100,0
2,64,0,60
2,64,100,0
2,64,0,60
2,64,100,0
2,64,0,60
2,67,100,360
2,67,0,30
2,64,100,0
2,64,0,90
2,64,100,0
2,64,0,60
2,62,100,0
2,62,0,30
2,64,100,0
2,64,0,30
2,67,100,240
2,67,0,30
2,67,100,0
2,67,0,90
2,69,100,0
2,69,0,30
2,64,100,0
2,64,0,30
2,64,100,0
2,64,0,30
2,64,100,0
2,64,0,30
2,62,100,360
2,62,0,30
2,64,100,0
2,64,0,90
2,67,100,0
2,67,0,120
2,64,100,0
2,64,0,60
2,64,100,0
2,64,0,60
2,64,100,0
2,64,0,60
2,64,100,0
2,64,0,60
2,67,100,360
2,67,0,30
2,64,100,0
2,64,0,90
2,64,100,0
2,64,0,60
2,62,100,0
2,62,0,30
2,64,100,0
2,64,0,30
3,74,100,11280
3,74,0,120
3,72,100,0
3,72,0,90
3,71,100,0
3,71,0,90
3,69,100,0
3,69,0,60
3,74,100,11160
3,74,0,120
3,72,100,0
3,72,0,90
3,71,100,0
3,71,0,90
3,69,100,0
3,69,0,90
3,74,100,1530
3,74,0,120
3,72,100,0
3,72,0,90
3,71,100,0
3,71,0,90
3,69,100,0
3,69,0,90
4,60,110,3870
4,64,110,0
4,64,0,30
4,60,0,0
4,55,110,0
4,55,0,30
4,52,110,0
4,52,0,30
4,50,110,0
4,50,0,30
4,47,110,0
4,52,110,0
4,52,0,30
4,47,0,0
4,47,110,0
4,52,110,0
4,52,0,60
4,47,0,0
4,40,110,0
4,47,110,0
4,52,110,0
4,52,0,15
4,47,0,0
4,40,0,0
4,64,34,30045
4,64,34,3
4,64,0,57
4,64,38,0
