track,note,velocity,time
1,50,79,12288
1,42,84,4
1,42,79,96
1,42,84,96
1,42,81,48
1,42,77,96
1,42,84,48
1,42,79,96
1,42,84,96
1,42,81,48
1,40,77,96
1,42,84,52
1,42,79,96
1,42,84,96
1,42,81,48
1,40,77,96
1,40,84,48
1,40,79,96
1,40,84,96
1,40,81,48
1,38,77,96
1,38,84,52
1,38,79,96
1,38,84,100
1,38,81,48
1,37,77,96
1,38,84,52
1,38,79,96
1,38,84,104
1,38,81,48
1,37,77,96
1,38,84,52
1,38,79,96
1,38,84,104
1,38,81,48
1,33,77,96
1,33,84,52
1,33,79,96
1,33,84,96
1,40,77,192
1,42,84,52
1,42,79,96
1,42,84,96
1,42,81,48
1,42,77,96
1,42,84,48
1,42,79,96
1,42,84,96
1,42,81,48
1,40,77,96
1,42,84,52
1,42,79,96
1,42,84,96
1,42,81,48
1,40,77,96
1,40,84,48
1,40,79,96
1,40,84,96
1,40,81,48
1,38,77,96
1,38,84,52
1,38,79,96
1,38,84,100
1,38,81,48
1,37,77,96
1,38,84,52
1,38,79,96
1,38,84,104
1,38,81,48
1,37,77,96
1,38,84,52
1,38,79,96
1,38,84,100
1,38,81,48
1,33,77,96
1,33,84,52
1,33,79,96
1,33,84,96
1,33,77,192
1,30,84,52
1,30,77,100
1,30,84,96
1,30,79,100
1,30,81,100
1,32,77,100
1,33,84,100
1,33,77,96
1,33,84,96
1,33,79,100
1,35,81,0
1,37,77,0
1,38,84,0
1,38,77,100
1,38,84,96
1,38,79,100
1,37,81,0
1,33,77,0
1,40,84,0
1,40,77,0
1,40,84,4
1,40,81,0
1,30,84,0
1,30,77,100
1,30,84,96
1,30,79,100
1,30,81,96
1,32,77,100
1,33,84,100
1,33,77,100
1,33,84,96
1,33,79,100
1,35,81,4
1,37,77,0
1,38,84,0
1,38,77,100
1,38,84,96
1,38,79,100
1,37,81,0
1,33,77,0
1,40,84,0
1,40,77,0
1,40,84,0
1,40,81,0
1,30,84,0
1,30,77,100
1,30,84,96
1,30,79,100
1,30,81,100
1,32,77,100
1,33,84,100
1,33,77,96
1,33,84,96
1,33,79,100
1,35,81,0
1,37,77,0
1,38,84,0
1,38,77,100
1,38,84,96
1,38,79,100
1,37,81,0
1,33,77,0
1,40,84,0
1,40,77,96
1,40,84,56
1,40,81,96
1,42,84,52
1,42,79,96
1,42,84,96
1,42,81,48
1,42,77,96
1,42,84,48
1,42,79,96
1,42,84,96
1,42,81,48
1,40,77,96
1,42,84,52
1,42,79,96
1,42,84,96
1,42,81,48
1,40,77,96
1,40,84,48
1,40,79,96
1,40,84,96
1,40,81,48
1,38,77,96
1,38,84,52
1,38,79,96
1,38,84,104
1,38,81,48
1,37,77,96
1,38,84,52
1,38,79,96
1,38,84,104
1,38,81,48
1,37,77,96
1,38,84,52
1,38,79,96
1,38,84,104
1,38,81,48
1,33,77,96
1,33,84,52
1,33,79,96
1,33,84,96
1,40,77,192
1,42,84,52
1,42,79,96
1,42,84,96
1,42,81,48
1,42,77,96
1,42,84,48
1,42,79,96
1,42,84,96
1,42,81,48
1,40,77,96
1,42,84,52
1,42,79,96
1,42,84,96
1,42,81,48
1,40,77,96
1,40,84,48
1,40,79,96
1,40,84,96
1,40,81,48
1,38,77,96
1,38,84,52
1,38,79,96
1,38,84,104
1,38,81,48
1,37,77,96
1,38,84,52
1,38,79,96
1,38,84,104
1,38,81,48
1,37,77,96
1,38,84,52
1,38,79,96
1,38,84,104
1,38,81,48
1,33,77,96
1,33,84,52
1,33,79,96
1,33,84,96
1,33,77,192
1,30,84,52
1,30,77,100
1,30,84,96
1,30,79,100
1,30,81,100
1,32,77,100
1,33,84,100
1,33,77,100
1,33,84,96
1,33,79,100
1,35,81,0
1,37,77,4
1,38,84,0
1,38,77,100
1,38,84,96
1,38,79,100
1,37,81,0
1,33,77,4
1,40,84,0
1,40,77,0
1,40,84,0
1,40,81,0
1,30,84,0
1,30,77,100
1,30,84,96
1,30,79,100
1,30,81,100
1,32,77,100
1,33,84,100
1,33,77,96
1,33,84,96
1,33,79,100
1,35,81,0
1,37,77,0
1,38,84,0
1,38,77,96
1,38,84,96
1,38,79,100
1,37,81,0
1,33,77,0
1,40,84,0
1,40,77,0
1,40,84,4
1,40,81,0
1,30,84,0
1,30,77,100
1,30,84,96
1,30,79,100
1,30,81,100
1,32,77,100
1,33,84,100
1,33,77,100
1,33,84,96
1,33,79,100
1,35,81,0
1,37,77,0
1,38,84,0
1,38,77,100
1,38,84,96
1,38,79,100
1,37,81,0
1,33,77,0
1,40,84,0
1,40,77,96
1,40,84,56
1,40,81,96
1,38,84,56
1,40,84,0
1,38,84,4
1,40,84,0
1,38,84,4
1,40,84,4
1,38,84,8
1,40,84,0
1,38,84,4
1,40,84,0
1,38,84,4
1,40,84,0
1,38,84,4
1,40,84,0
1,38,84,4
1,40,84,0
1,42,84,0
1,42,79,96
1,42,84,96
1,42,81,48
1,42,77,96
1,42,84,48
1,42,79,96
1,42,84,96
1,42,81,48
1,40,77,96
1,42,84,52
1,42,79,96
1,42,84,96
1,42,81,48
1,40,77,96
1,40,84,48
1,40,79,96
1,40,84,96
1,40,81,48
1,38,77,96
1,38,84,52
1,38,79,96
1,38,84,100
1,38,81,48
1,37,77,96
1,38,84,52
1,38,79,96
1,38,84,104
1,38,81,48
1,37,77,96
1,38,84,52
1,38,79,96
1,38,84,104
1,38,81,48
1,33,77,96
1,33,84,52
1,33,79,96
1,33,84,96
1,40,77,192
1,42,84,52
1,42,79,96
1,42,84,96
1,42,81,48
1,42,77,96
1,42,84,48
1,42,79,96
1,42,84,96
1,42,81,48
1,40,77,96
1,42,84,52
1,42,79,96
1,42,84,96
1,42,81,48
1,40,77,96
1,40,84,48
1,40,79,96
1,40,84,96
1,40,81,48
1,38,77,96
1,38,84,52
1,38,79,96
1,38,84,100
1,38,81,48
1,37,77,96
1,38,84,52
1,38,79,96
1,38,84,104
1,38,81,48
1,37,77,96
1,38,84,52
1,38,79,96
1,38,84,104
1,38,81,48
1,33,77,96
1,33,84,52
1,33,79,96
1,33,84,96
1,33,77,192
1,30,84,52
1,30,77,100
1,30,84,96
1,30,79,100
1,30,81,100
1,32,77,100
1,33,84,100
1,33,77,96
1,33,84,96
1,33,79,100
1,35,81,0
1,37,77,0
1,38,84,0
1,38,77,100
1,38,84,96
1,38,79,100
1,37,81,0
1,33,77,0
1,40,84,0
1,40,77,0
1,40,84,4
1,40,81,0
1,30,84,0
1,30,77,100
1,30,84,96
1,30,79,100
1,30,81,100
1,32,77,100
1,33,84,100
1,33,77,100
1,33,84,96
1,33,79,100
1,35,81,0
1,37,77,0
1,38,84,0
1,38,77,100
1,38,84,96
1,38,79,100
1,37,81,0
1,33,77,4
1,40,84,0
1,40,77,0
1,40,84,4
1,40,81,0
1,30,84,0
1,30,77,100
1,30,84,96
1,30,79,100
1,30,81,100
1,32,77,100
1,33,84,100
1,33,77,96
1,33,84,96
1,33,79,100
1,35,81,0
1,37,77,0
1,38,84,0
1,38,77,100
1,38,84,96
1,38,79,100
1,37,81,0
1,33,77,0
1,40,84,0
1,40,77,0
1,40,84,4
1,40,81,0
1,30,84,0
1,30,77,100
1,30,84,96
1,30,79,96
1,30,81,96
1,32,77,100
1,33,84,100
1,33,77,100
1,33,84,96
1,33,79,100
1,35,81,0
1,37,77,0
1,38,84,0
1,38,77,100
1,38,84,96
1,38,79,100
1,37,81,0
1,33,77,0
1,40,84,0
1,40,77,0
1,40,84,4
1,40,81,0
1,30,84,0
1,30,77,100
1,30,84,96
1,30,79,100
1,30,81,100
1,32,77,100
1,33,84,100
1,33,77,96
1,33,84,16
1,33,79,16
1,35,81,0
1,37,77,0
1,38,84,0
1,38,77,16
1,38,84,16
1,38,79,16
1,37,81,0
1,33,77,0
1,40,84,0
1,40,77,0
1,40,84,0
1,40,81,0
1,30,84,4
1,30,77,16
1,30,84,12
1,30,79,16
1,30,81,16
1,32,77,16
1,33,84,16
1,33,77,16
1,33,84,16
1,33,79,16
1,35,81,0
1,37,77,0
1,38,84,0
1,38,77,100
1,38,84,96
1,38,79,100
1,37,81,0
1,33,77,0
1,40,84,0
1,40,77,0
1,40,84,0
2,73,104,0
2,76,104,344
2,73,104,24
2,73,104,192
2,76,104,0
2,78,104,8
2,80,104,0
2,78,104,4
2,76,104,12
2,73,104,0
2,69,104,20
2,73,104,0
2,76,104,16
2,73,104,8
2,73,104,192
2,76,104,4
2,78,104,8
2,78,104,192
2,81,104,4
2,83,104,8
2,85,104,0
2,73,104,0
2,76,104,316
2,73,104,44
2,73,104,192
2,76,104,0
2,78,104,24
2,80,104,0
2,78,104,4
2,76,104,12
2,73,104,0
2,69,104,32
2,73,104,0
2,76,104,16
2,73,104,24
2,73,104,192
2,76,104,4
2,78,104,24
2,78,104,192
2,81,104,0
2,83,104,24
2,85,104,4
2,73,94,36876
2,71,94,0
2,69,94,4
2,71,94,4
2,73,94,20
2,76,94,4
2,78,94,20
2,76,94,4
2,73,94,4
2,71,94,8
2,73,94,8
2,71,94,0
2,69,94,0
2,73,94,0
2,71,94,4
2,69,94,4
2,66,94,20
2,64,94,4
2,71,94,8
2,73,94,8
2,76,94,0
2,73,94,0
2,76,94,4
2,78,94,0
2,76,94,4
2,73,94,0
2,76,84,4
2,73,74,0
2,71,64,4
3,69,100,13824
3,68,100,140
3,66,100,144
3,69,100,144
3,71,100,336
3,73,100,336
3,74,100,336
3,73,100,336
3,71,100,336
3,69,100,336
3,69,100,148
3,68,100,140
3,66,100,144
3,69,100,144
3,71,100,336
3,73,100,336
3,74,100,336
3,73,100,336
3,71,100,336
3,69,100,336
3,62,100,148
3,66,100,0
3,64,100,720
3,68,100,0
3,62,100,720
3,66,100,0
3,64,100,524
3,68,100,0
3,62,100,916
3,66,100,0
3,64,100,720
3,68,100,0
3,64,100,720
3,69,100,0
3,69,100,1488
3,68,100,140
3,66,100,144
3,69,100,144
3,71,100,336
3,73,100,336
3,74,100,336
3,73,100,336
3,71,100,336
3,69,100,336
3,69,100,148
3,68,100,140
3,66,100,144
3,69,100,144
3,71,100,336
3,73,100,336
3,74,100,336
3,73,100,336
3,71,100,336
3,69,100,336
3,62,100,148
3,66,100,0
3,64,100,720
3,68,100,0
3,62,100,720
3,66,100,0
3,64,100,524
3,68,100,0
3,62,100,916
3,66,100,0
3,64,100,720
3,68,100,0
3,64,100,720
3,69,100,0
3,78,100,192
3,76,100,336
3,73,100,144
3,71,100,144
3,73,100,336
3,76,100,144
3,78,100,144
3,76,100,336
3,73,100,144
3,71,100,144
3,73,100,336
3,76,100,144
3,78,100,144
3,76,100,336
3,73,100,144
3,71,100,144
3,73,100,336
3,76,100,144
3,78,100,144
3,76,100,336
3,73,100,144
3,71,100,144
3,73,100,336
3,76,100,144
3,78,100,144
3,76,100,336
3,73,100,144
3,71,100,144
3,73,100,336
3,76,100,144
3,78,100,144
3,76,100,336
3,73,100,144
3,71,100,144
3,73,100,336
3,76,100,144
3,78,100,144
3,76,100,336
3,73,100,144
3,71,100,144
3,73,100,336
3,76,100,144
3,78,100,144
3,76,100,336
3,73,100,144
3,71,100,144
3,73,100,336
3,76,100,144
3,78,100,144
3,76,100,336
3,73,100,144
3,71,100,144
3,73,100,336
3,76,100,144
3,78,100,144
3,76,100,336
3,73,100,144
3,71,100,144
3,73,100,336
3,76,100,144
3,78,100,144
3,76,100,336
3,73,100,144
3,71,100,144
3,73,100,336
3,76,100,144
3,78,100,144
3,76,100,336
3,73,100,144
3,71,100,144
3,73,100,336
3,76,100,144
3,78,100,144
3,68,100,12
3,66,100,144
3,69,100,144
3,71,100,336
3,73,100,336
3,74,100,336
3,73,100,336
3,71,100,336
3,69,100,336
3,69,100,148
3,68,100,140
3,66,100,144
3,69,100,144
3,71,100,336
3,73,100,336
3,74,100,336
3,73,100,336
3,71,100,336
3,69,100,336
3,62,100,148
3,66,100,0
3,64,100,720
3,68,100,0
3,62,100,720
3,66,100,0
3,64,100,524
3,68,100,0
3,62,100,916
3,66,100,0
3,64,100,720
3,68,100,0
3,64,100,720
3,69,100,0
3,69,100,1488
3,68,100,140
3,66,100,144
3,69,100,144
3,71,100,336
3,73,100,336
3,74,100,336
3,73,100,336
3,71,100,336
3,69,100,336
3,69,100,148
3,68,100,140
3,66,100,144
3,69,100,144
3,71,100,336
3,73,100,336
3,74,100,336
3,73,100,336
3,71,100,336
3,69,100,336
3,62,100,148
3,66,100,0
3,64,100,720
3,68,100,0
3,62,100,720
3,66,100,0
3,64,100,524
3,68,100,0
3,62,100,916
3,66,100,0
3,64,100,716
3,68,100,4
3,64,100,720
3,69,100,0
3,78,100,192
3,76,100,336
3,73,100,144
3,71,100,144
3,73,100,336
3,76,100,144
3,78,100,144
3,76,100,336
3,73,100,144
3,71,100,144
3,73,100,336
3,76,100,144
3,78,100,144
3,76,100,336
3,73,100,144
3,71,100,144
3,73,100,336
3,76,100,144
3,78,100,144
3,76,100,336
3,73,100,144
3,71,100,144
3,73,100,336
3,76,100,144
3,78,100,144
3,76,100,336
3,73,100,144
3,71,100,144
3,73,100,336
3,76,100,144
3,78,100,144
3,76,100,336
3,73,100,144
3,71,100,144
3,73,100,336
3,76,100,144
3,78,100,144
3,76,100,336
3,73,100,144
3,71,100,144
3,73,100,336
3,76,100,144
3,78,100,144
3,76,100,336
3,73,100,144
3,71,100,144
3,73,100,336
3,76,100,144
3,78,100,144
3,76,100,336
3,73,100,144
3,71,100,144
3,73,100,336
3,76,100,144
3,78,100,144
3,76,100,336
3,73,100,144
3,71,100,144
3,73,100,336
3,76,100,144
3,78,100,144
3,76,100,336
3,73,100,144
3,71,100,144
3,73,100,336
3,76,100,144
3,78,100,144
3,76,100,336
3,73,100,144
3,71,100,144
3,73,100,336
3,76,100,144
3,78,100,144
3,69,100,1156
3,68,100,140
3,66,100,144
3,69,100,144
3,71,100,336
3,73,100,336
3,74,100,336
3,73,100,336
3,71,100,336
3,69,100,336
3,69,100,148
3,68,100,140
3,66,100,144
3,69,100,144
3,71,100,336
3,73,100,336
3,74,100,336
3,73,100,336
3,71,100,336
3,69,100,336
3,62,100,148
3,66,100,0
3,64,100,720
3,68,100,0
3,62,100,720
3,66,100,0
3,64,100,524
3,68,100,0
3,62,100,916
3,66,100,0
3,64,100,720
3,68,100,0
3,64,100,720
3,69,100,0
3,69,100,1488
3,68,100,140
3,66,100,144
3,69,100,144
3,71,100,336
3,73,100,336
3,74,100,336
3,73,100,336
3,71,100,336
3,69,100,336
3,69,100,148
3,68,100,140
3,66,100,144
3,69,100,144
3,71,100,336
3,73,100,336
3,74,100,336
3,73,100,336
3,71,100,336
3,69,100,336
3,62,100,148
3,66,100,0
3,64,100,720
3,68,100,0
3,62,100,720
3,66,100,0
3,64,100,524
3,68,100,0
3,62,100,916
3,66,100,0
3,64,100,720
3,68,100,0
3,64,100,720
3,69,100,0
3,78,100,192
3,76,100,336
3,73,100,144
3,71,100,144
3,73,100,336
3,76,100,144
3,78,100,144
3,76,100,336
3,73,100,144
3,71,100,144
3,73,100,336
3,76,100,144
3,78,100,144
3,76,100,336
3,73,100,144
3,71,100,144
3,73,100,336
3,76,100,144
3,78,100,144
3,76,100,336
3,73,100,144
3,71,100,144
3,73,100,336
3,76,100,144
3,78,100,144
3,76,100,336
3,73,100,144
3,71,100,144
3,73,100,336
3,76,100,144
3,78,100,144
3,76,100,336
3,73,100,144
3,71,100,144
3,73,100,336
3,76,100,144
3,78,100,144
3,76,100,336
3,73,100,144
3,71,100,144
3,73,100,336
3,76,100,144
3,78,100,144
3,76,100,336
3,73,100,144
3,71,100,144
3,73,100,336
3,76,100,144
3,78,100,144
3,76,100,336
3,73,100,144
3,71,100,144
3,73,100,336
3,76,100,144
3,78,100,144
3,76,100,336
3,73,100,144
3,71,100,144
3,73,100,336
3,76,100,144
3,78,100,144
3,76,100,336
3,73,100,144
3,71,100,144
3,73,100,336
3,76,100,144
