track,note,velocity,time
2,31,110,14940
2,31,110,68
2,31,110,228
2,31,110,20
2,31,110,68
2,31,110,228
2,27,110,20
2,27,110,68
2,27,110,228
2,27,110,20
2,27,110,68
2,27,110,228
2,34,110,20
2,34,110,68
2,34,110,228
2,34,110,20
2,34,110,68
2,34,110,228
2,29,110,20
2,29,110,68
2,29,110,228
2,29,110,20
2,29,110,68
2,33,110,228
2,31,110,20
2,31,110,68
2,31,110,228
2,31,110,56
2,31,110,68
2,31,110,228
2,27,110,20
2,27,110,68
2,27,110,228
2,27,110,20
2,27,110,68
2,27,110,228
2,34,110,20
2,34,110,68
2,34,110,228
2,34,110,20
2,34,110,68
2,34,110,228
2,31,110,1556
2,31,110,68
2,31,110,228
2,31,110,20
2,31,110,68
2,31,110,228
2,27,110,20
2,27,110,68
2,27,110,228
2,27,110,20
2,27,110,68
2,27,110,228
2,34,110,20
2,34,110,68
2,34,110,228
2,34,110,20
2,34,110,68
2,34,110,228
2,29,110,20
2,29,110,68
2,29,110,228
2,29,110,20
2,29,110,68
2,33,110,228
2,31,110,20
2,31,110,68
2,31,110,228
2,31,110,56
2,31,110,68
2,31,110,228
2,27,110,20
2,27,110,68
2,27,110,228
2,27,110,20
2,27,110,68
2,27,110,228
2,34,110,20
2,34,110,68
2,34,110,228
2,34,110,20
2,34,110,68
2,34,110,228
2,31,123,1556
2,31,107,80
2,29,120,228
2,31,120,24
2,31,107,108
2,29,120,228
2,31,120,16
2,31,110,100
2,29,120,228
2,31,120,12
2,31,110,96
2,29,125,228
2,31,123,192
2,31,104,76
2,29,123,228
2,31,120,16
2,31,110,100
2,29,120,228
2,34,114,48
2,34,109,88
2,34,114,228
2,29,113,52
2,29,120,80
2,29,120,228
2,31,120,36
2,31,110,100
2,29,117,228
2,31,120,24
2,31,107,104
2,29,120,228
2,31,117,20
2,31,110,96
2,29,123,208
2,31,123,32
2,31,120,128
2,29,120,228
2,31,120,36
2,31,107,144
2,29,123,228
2,31,123,44
2,31,110,140
2,29,120,228
2,31,123,1588
2,31,107,80
2,29,120,228
2,31,120,24
2,31,107,108
2,29,120,228
2,31,120,16
2,31,110,100
2,29,120,228
2,31,120,12
2,31,110,96
2,29,125,228
2,31,123,192
2,31,104,76
2,29,123,228
2,31,120,16
2,31,110,100
2,29,120,228
2,34,114,48
2,34,109,88
2,34,114,228
2,29,113,52
2,29,120,80
2,29,120,228
2,31,120,36
2,31,110,100
2,29,117,228
2,31,120,24
2,31,107,104
2,29,120,228
2,31,117,20
2,31,110,96
2,29,123,208
2,31,123,32
2,31,120,128
2,29,120,228
2,31,120,36
2,31,107,144
2,29,123,228
2,31,123,44
2,31,110,140
2,29,120,228
2,31,123,1588
2,31,107,80
2,29,120,228
2,31,120,24
2,31,107,108
2,29,120,228
2,31,120,16
2,31,110,100
2,29,120,228
2,31,120,12
2,31,110,96
2,29,125,228
2,31,123,192
2,31,104,76
2,29,123,228
2,31,120,16
2,31,110,100
2,29,120,228
2,34,114,48
2,34,109,88
2,34,114,228
2,29,113,52
2,29,120,80
2,29,120,228
2,31,120,36
2,31,110,100
2,29,117,228
2,31,120,24
2,31,107,104
2,29,120,228
2,31,117,20
2,31,110,96
2,29,123,208
2,31,123,32
2,31,120,128
2,29,120,228
2,31,120,36
2,31,107,144
2,29,123,228
2,31,123,44
2,31,110,140
2,29,120,228
2,31,110,1588
2,31,110,68
2,31,110,228
2,31,110,20
2,31,110,68
2,31,110,228
2,27,110,20
2,27,110,68
2,27,110,228
2,27,110,20
2,27,110,68
2,27,110,228
2,34,110,20
2,34,110,68
2,34,110,228
2,34,110,20
2,34,110,68
2,34,110,228
2,29,110,20
2,29,110,68
2,29,110,228
2,29,110,20
2,29,110,68
2,33,110,228
2,31,110,20
2,31,110,68
2,31,110,228
2,31,110,56
2,31,110,68
2,31,110,228
2,27,110,20
2,27,110,68
2,27,110,228
2,27,110,20
2,27,110,68
2,27,110,228
2,34,110,20
2,34,110,68
2,34,110,228
2,34,110,20
2,34,110,68
2,34,110,228
2,31,110,1556
2,31,110,68
2,31,110,228
2,31,110,20
2,31,110,68
2,31,110,228
2,27,110,20
2,27,110,68
2,27,110,228
2,27,110,20
2,27,110,68
2,27,110,228
2,34,110,20
2,34,110,68
2,34,110,228
2,34,110,20
2,34,110,68
2,34,110,228
2,29,110,20
2,29,110,68
2,29,110,228
2,29,110,20
2,29,110,68
2,33,110,228
2,31,110,20
2,31,110,68
2,31,110,228
2,31,110,56
2,31,110,68
2,31,110,228
2,27,110,20
2,27,110,68
2,27,110,228
2,27,110,20
2,27,110,68
2,27,110,228
2,34,110,20
2,34,110,68
2,34,110,228
2,34,110,20
2,34,110,68
2,34,110,228
2,29,110,20
2,29,110,68
2,29,110,228
2,29,110,20
2,29,110,68
2,29,110,228
2,31,110,6164
2,31,110,68
2,31,110,228
2,31,110,20
2,31,110,68
2,31,110,228
2,27,110,20
2,27,110,68
2,27,110,228
2,27,110,20
2,27,110,68
2,27,110,228
2,34,110,20
2,34,110,68
2,34,110,228
2,34,110,20
2,34,110,68
2,34,110,228
2,29,110,20
2,29,110,68
2,29,110,228
2,29,110,20
2,29,110,68
2,33,110,228
2,31,123,20
2,31,107,80
2,29,120,228
2,31,120,24
2,31,107,108
2,29,120,228
2,31,120,16
2,31,110,100
2,29,120,228
2,31,120,12
2,31,110,96
2,29,125,228
2,31,123,192
2,31,104,76
2,29,123,228
2,31,120,16
2,31,110,100
2,29,120,228
2,34,114,48
2,34,109,88
2,34,114,228
2,29,113,52
2,29,120,80
2,29,120,228
2,31,120,36
2,31,110,100
2,29,117,228
2,31,120,24
2,31,107,104
2,29,120,228
2,31,117,20
2,31,110,96
2,29,123,208
2,31,123,32
2,31,120,128
2,29,120,228
2,31,120,36
2,31,107,144
2,29,123,228
2,31,123,44
2,31,110,140
2,29,120,228
2,31,123,1588
2,31,107,80
2,29,120,228
2,31,120,24
2,31,107,108
2,29,120,228
2,31,120,16
2,31,110,100
2,29,120,228
2,31,120,12
2,31,110,96
2,29,125,228
2,31,123,192
2,31,104,76
2,29,123,228
2,31,120,16
2,31,110,100
2,29,120,228
2,34,114,48
2,34,109,88
2,34,114,228
2,29,113,52
2,29,120,80
2,29,120,228
2,31,120,36
2,31,110,100
2,29,117,228
2,31,120,24
2,31,107,104
2,29,120,228
2,31,117,20
2,31,110,96
2,29,123,208
2,31,123,32
2,31,120,128
2,29,120,228
2,31,120,36
2,31,107,144
2,29,123,228
2,31,123,44
2,31,110,140
2,29,120,228
2,31,110,1588
2,31,110,68
2,31,110,228
2,31,110,20
2,31,110,68
2,31,110,228
2,27,110,20
2,27,110,68
2,27,110,228
2,27,110,20
2,27,110,68
2,27,110,228
2,34,110,20
2,34,110,68
2,34,110,228
2,34,110,20
2,34,110,68
2,34,110,228
2,29,110,20
2,29,110,68
2,29,110,228
2,29,110,20
2,29,110,68
2,33,110,228
2,31,110,20
2,31,110,68
2,31,110,228
2,31,110,56
2,31,110,68
2,31,110,228
2,27,110,20
2,27,110,68
2,27,110,228
2,27,110,20
2,27,110,68
2,27,110,228
2,34,110,20
2,34,110,68
2,34,110,228
2,34,110,20
2,34,110,68
2,34,110,228
2,29,110,20
2,29,110,68
2,29,110,228
2,29,110,20
2,29,110,68
2,29,110,228
2,31,110,6164
2,31,110,68
2,31,110,228
2,31,110,20
2,31,110,68
2,31,110,228
2,27,110,20
2,27,110,68
2,27,110,228
2,27,110,20
2,27,110,68
2,27,110,228
2,34,110,20
2,34,110,68
2,34,110,228
2,34,110,20
2,34,110,68
2,34,110,228
2,29,110,20
2,29,110,68
2,29,110,228
2,29,110,20
2,29,110,68
2,33,110,228
2,31,123,20
2,31,107,80
2,29,120,228
2,31,120,24
2,31,107,108
2,29,120,228
2,31,120,16
2,31,110,100
2,29,120,228
2,31,120,12
2,31,110,96
2,29,125,228
2,31,123,192
2,31,104,76
2,29,123,228
2,31,120,16
2,31,110,100
2,29,120,228
2,34,114,48
2,34,109,88
2,34,114,228
2,29,113,52
2,29,120,80
2,29,120,228
2,31,120,36
2,31,110,100
2,29,117,228
2,31,120,24
2,31,107,104
2,29,120,228
2,31,117,20
2,31,110,96
2,29,123,208
2,31,123,32
2,31,120,128
2,29,120,228
2,31,120,36
2,31,107,144
2,29,123,228
2,31,123,44
2,31,110,140
2,29,120,228
2,31,123,1588
2,31,107,80
2,29,120,228
2,31,120,24
2,31,107,108
2,29,120,228
2,31,120,16
2,31,110,100
2,29,120,228
2,31,120,12
2,31,110,96
2,29,125,228
2,31,123,192
2,31,104,76
2,29,123,228
2,31,120,16
2,31,110,100
2,29,120,228
2,31,120,1584
2,31,110,100
2,29,117,228
2,31,120,24
2,31,107,104
2,29,120,228
2,31,117,20
2,31,110,96
2,29,123,208
2,31,123,32
2,31,120,128
2,29,120,228
2,31,120,36
2,31,107,144
2,29,123,228
2,31,123,44
2,31,110,140
2,29,120,228
2,31,110,1588
2,31,110,68
2,31,110,228
2,31,110,20
2,31,110,68
2,31,110,228
2,27,110,20
2,27,110,68
2,27,110,228
2,27,110,20
2,27,110,68
2,27,110,228
2,34,110,20
2,34,110,68
2,34,110,228
2,34,110,20
2,34,110,68
2,34,110,228
2,29,110,20
2,29,110,68
2,29,110,228
2,29,110,20
2,29,110,68
2,33,110,228
2,31,110,20
2,31,110,68
2,31,110,228
2,31,110,56
2,31,110,68
2,31,110,228
2,27,110,20
2,27,110,68
2,27,110,228
2,27,110,20
2,27,110,68
2,27,110,228
2,34,110,20
2,34,110,68
2,34,110,228
2,34,110,20
2,34,110,68
2,34,110,228
2,31,110,1556
2,31,110,68
2,31,110,228
2,31,110,20
2,31,110,68
2,31,110,228
2,27,110,20
2,27,110,68
2,27,110,228
2,27,110,20
2,27,110,68
2,27,110,228
2,34,110,20
2,34,110,68
2,34,110,228
2,34,110,20
2,34,110,68
2,34,110,228
2,29,110,20
2,29,110,68
2,29,110,228
2,29,110,20
2,29,110,68
2,33,110,228
2,31,110,20
2,31,110,68
2,31,110,228
2,31,110,56
2,31,110,68
2,31,110,228
2,27,110,20
2,27,110,68
2,27,110,228
2,27,110,20
2,27,110,68
2,27,110,228
2,34,110,20
2,34,110,68
2,34,110,228
2,34,110,20
2,34,110,68
2,34,110,228
2,29,110,20
2,29,110,68
2,29,110,228
2,29,110,20
2,29,110,68
2,29,110,228
3,55,70,2632
3,62,70,0
3,58,70,0
3,63,70,0
3,55,70,0
3,58,70,0
3,62,70,0
3,53,70,0
3,58,70,0
3,57,70,0
3,53,70,0
3,60,70,0
3,55,70,144
3,62,70,0
3,58,70,0
3,63,70,0
3,55,70,0
3,58,70,0
3,62,70,0
3,53,70,0
3,58,70,0
3,57,70,0
3,53,70,0
3,60,70,0
3,55,70,144
3,62,70,0
3,58,70,0
3,63,70,0
3,55,70,0
3,58,70,0
3,62,70,0
3,53,70,0
3,58,70,0
3,57,70,0
3,53,70,0
3,60,70,0
3,55,70,144
3,62,70,0
3,58,70,0
3,63,70,0
3,55,70,0
3,58,70,0
3,62,70,0
3,53,70,0
3,58,70,0
3,55,70,1536
3,62,70,0
3,58,70,0
3,63,70,0
3,55,70,0
3,58,70,0
3,62,70,0
3,53,70,0
3,58,70,0
3,57,70,0
3,53,70,0
3,60,70,0
3,55,70,144
3,62,70,0
3,58,70,0
3,63,70,0
3,55,70,0
3,58,70,0
3,62,70,0
3,53,70,0
3,58,70,0
3,57,70,0
3,53,70,0
3,60,70,0
3,55,70,37008
3,62,70,0
3,58,70,0
3,63,70,0
3,55,70,0
3,58,70,0
3,62,70,0
3,53,70,0
3,58,70,0
3,57,70,0
3,53,70,0
3,60,70,0
3,55,70,144
3,62,70,0
3,58,70,0
3,63,70,0
3,55,70,0
3,58,70,0
3,62,70,0
3,53,70,0
3,58,70,0
3,57,70,0
3,53,70,0
3,60,70,0
3,55,70,144
3,62,70,0
3,58,70,0
3,63,70,0
3,55,70,0
3,58,70,0
3,62,70,0
3,53,70,0
3,58,70,0
3,57,70,0
3,53,70,0
3,60,70,0
3,55,70,144
3,62,70,0
3,58,70,0
3,63,70,0
3,55,70,0
3,58,70,0
3,62,70,0
3,53,70,0
3,58,70,0
3,57,70,0
3,53,70,0
3,60,70,0
3,55,70,144
3,62,70,0
3,58,70,0
3,63,70,0
3,55,70,0
3,58,70,0
3,62,70,0
3,53,70,0
3,58,70,0
3,57,70,0
3,53,70,0
3,60,70,0
3,55,70,144
3,62,70,0
3,58,70,0
3,63,70,0
3,55,70,0
3,58,70,0
3,62,70,0
3,53,70,0
3,58,70,0
3,57,70,0
3,53,70,0
3,60,70,0
3,55,70,24720
3,62,70,0
3,58,70,0
3,63,70,0
3,55,70,0
3,58,70,0
3,62,70,0
3,53,70,0
3,58,70,0
3,57,70,0
3,53,70,0
3,60,70,0
3,55,70,144
3,62,70,0
3,58,70,0
3,63,70,0
3,55,70,0
3,58,70,0
3,62,70,0
3,53,70,0
3,58,70,0
3,57,70,0
3,53,70,0
3,60,70,0
3,55,70,144
3,62,70,0
3,58,70,0
3,63,70,0
3,55,70,0
3,58,70,0
3,62,70,0
3,53,70,0
3,58,70,0
3,57,70,0
3,53,70,0
3,60,70,0
3,55,70,144
3,62,70,0
3,58,70,0
3,63,70,0
3,55,70,0
3,58,70,0
3,62,70,0
3,53,70,0
3,58,70,0
3,57,70,0
3,53,70,0
3,60,70,0
3,55,70,24720
3,62,70,0
3,58,70,0
3,63,70,0
3,55,70,0
3,58,70,0
3,62,70,0
3,53,70,0
3,58,70,0
3,57,70,0
3,53,70,0
3,60,70,0
3,55,70,144
3,62,70,0
3,58,70,0
3,63,70,0
3,55,70,0
3,58,70,0
3,62,70,0
3,53,70,0
3,58,70,0
3,57,70,0
3,53,70,0
3,60,70,0
3,55,70,144
3,62,70,0
3,58,70,0
3,63,70,0
3,55,70,0
3,58,70,0
3,62,70,0
3,53,70,0
3,58,70,0
3,57,70,0
3,53,70,0
3,60,70,0
3,55,70,144
3,62,70,0
3,58,70,0
3,63,70,0
3,55,70,0
3,58,70,0
3,62,70,0
3,53,70,0
3,58,70,0
3,57,70,0
3,53,70,0
3,60,70,0
3,55,70,144
3,62,70,0
3,58,70,0
3,63,70,0
3,55,70,0
3,58,70,0
3,62,70,0
3,53,70,0
3,58,70,0
3,57,70,0
3,53,70,0
3,60,70,0
3,55,70,144
3,62,70,0
3,58,70,0
3,63,70,0
3,55,70,0
3,58,70,0
3,62,70,0
3,53,70,0
3,58,70,0
3,57,70,0
3,53,70,0
3,60,70,0
4,67,110,2612
4,69,120,152
4,70,104,24
4,63,109,16
4,70,109,204
4,72,107,960
4,74,110,84
4,74,113,124
4,77,99,224
4,72,123,4
4,74,110,360
4,72,117,12
4,70,104,192
4,67,117,20
4,67,101,140
4,69,110,80
4,70,104,28
4,63,114,24
4,70,104,140
4,70,104,136
4,69,104,36
4,65,107,172
4,74,123,96
4,77,99,12
4,74,120,20
4,72,107,12
4,70,114,24
4,70,104,168
4,70,104,128
4,69,107,36
4,70,109,44
4,70,114,580
4,70,114,128
4,69,107,36
4,70,119,184
4,70,114,620
4,70,114,144
4,69,104,20
4,70,114,192
4,65,113,20
4,65,99,144
4,74,120,124
4,77,104,36
4,74,123,192
4,72,107,16
4,70,104,4
4,70,84,164
4,70,109,128
4,69,101,40
4,70,109,4
4,70,109,304
4,70,104,124
4,69,104,28
4,70,109,192
4,70,109,284
4,70,114,124
4,69,110,28
4,70,109,28
4,65,120,0
4,65,117,412
4,74,123,112
4,77,101,20
4,74,123,12
4,72,107,8
4,70,109,8
4,65,110,5152
4,74,107,100
4,77,107,8
4,74,113,180
4,72,107,4
4,70,92,84
4,65,107,5100
4,74,117,80
4,77,110,8
4,74,107,188
4,72,99,8
4,70,114,96
4,67,110,36856
4,69,120,152
4,70,104,24
4,63,109,16
4,70,109,204
4,72,107,960
4,74,110,84
4,74,113,124
4,77,99,224
4,72,123,4
4,74,110,360
4,72,117,12
4,70,104,192
4,67,117,20
