track,note,velocity,time
0,42,120,239
0,42,100,93
0,45,107,93
0,45,119,19
0,41,127,23
0,38,127,39
0,38,127,3
0,60,49,92
0,64,47,0
0,67,61,0
0,36,106,1
0,60,49,0
0,64,47,0
0,67,61,0
0,48,85,0
0,76,97,0
0,36,127,0
0,49,127,0
0,72,97,1
0,76,96,25
0,74,110,5
0,38,122,2
0,44,127,1
0,72,106,0
0,42,107,4
0,36,121,1
0,36,102,0
0,72,111,21
0,64,91,2
0,36,106,3
0,48,86,0
0,42,127,2
0,36,127,1
0,46,70,38
0,42,95,9
0,69,108,16
0,46,127,5
0,39,127,0
0,38,127,1
0,76,104,38
0,67,103,2
0,48,109,14
0,36,104,3
0,42,127,1
0,36,107,1
0,42,93,1
0,42,110,21
0,38,113,19
0,44,119,1
0,48,90,0
0,36,107,6
0,36,90,1
0,42,113,0
0,36,104,26
0,36,127,0
0,48,82,1
0,42,116,1
0,44,59,9
0,42,85,11
0,43,100,0
0,39,127,0
0,38,127,1
0,46,122,1
0,31,117,0
0,44,106,0
0,32,104,2
0,69,72,26
0,69,72,1
0,36,87,4
0,33,119,1
0,42,127,0
0,45,102,1
0,44,57,8
0,42,93,20
0,38,127,19
0,69,97,1
0,44,122,0
0,64,75,0
0,36,74,9
0,72,110,0
0,42,116,2
0,33,117,2
0,72,113,3
0,36,110,0
0,33,121,1
0,45,97,0
0,42,116,1
0,69,84,0
0,69,98,12
0,44,68,3
0,42,102,1
0,72,115,18
0,46,127,2
0,38,127,1
0,39,127,0
0,26,123,35
0,74,110,0
0,71,102,1
0,67,59,11
0,67,59,1
0,59,64,0
0,59,64,1
0,62,62,1
0,62,62,0
0,28,119,3
0,42,127,0
0,40,105,1
0,36,102,1
0,44,89,21
0,74,120,2
0,42,98,20
0,71,105,6
0,44,110,0
0,38,113,1
0,69,101,9
0,28,119,11
0,36,87,4
0,42,122,0
0,67,112,1
0,64,81,1
0,28,115,19
0,42,91,2
0,36,116,0
0,47,91,2
0,44,87,45
0,42,95,21
0,35,119,20
0,39,127,0
0,38,127,1
0,46,122,0
0,40,94,1
0,28,119,0
0,69,72,19
0,69,72,0
0,60,58,1
0,60,58,1
0,65,63,4
0,65,63,0
0,42,122,0
0,29,121,0
0,41,100,0
0,36,91,0
0,44,89,0
0,65,103,1
0,42,98,20
0,44,119,20
0,38,122,1
0,69,113,0
0,65,111,0
0,72,122,15
0,42,113,3
0,29,89,1
0,36,85,0
0,42,110,6
0,41,85,0
0,29,112,1
0,44,114,0
0,36,119,0
0,69,106,2
0,72,117,0
0,44,91,14
0,42,110,12
0,38,127,19
0,39,127,1
0,46,116,0
0,65,88,0
0,69,104,1
0,24,117,13
0,62,61,37
0,62,61,1
0,38,80,2
0,36,102,2
0,42,127,0
0,26,119,1
0,44,85,6
0,42,98,21
0,44,116,20
0,38,113,0
0,65,106,1
0,62,99,1
0,26,117,20
0,42,119,2
0,36,100,0
0,69,98,0
0,26,125,26
0,36,127,1
0,42,113,0
0,50,91,0
0,69,97,0
0,65,95,0
0,72,113,0
0,74,120,20
0,44,89,0
0,42,116,5
0,39,119,20
0,38,119,1
0,46,119,1
0,76,113,0
0,50,96,0
0,67,105,22
0,72,115,1
0,76,112,3
0,67,68,31
0,67,68,1
0,64,52,3
0,64,52,0
0,60,54,4
0,60,54,0
0,36,121,4
0,42,119,0
0,36,107,0
0,48,103,0
0,44,82,18
0,42,93,11
0,38,95,19
0,44,116,2
0,48,97,0
0,64,91,0
0,67,111,0
0,36,94,17
0,36,68,1
0,42,116,1
0,36,127,7
0,42,107,1
0,36,102,1
0,43,105,0
0,64,101,0
0,67,99,0
0,42,78,6
0,38,127,19
0,39,127,0
0,46,127,1
0,31,117,1
0,48,97,0
0,67,110,0
0,64,94,0
0,33,119,13
0,65,95,2
0,69,102,1
0,36,106,0
0,36,95,0
0,42,127,1
0,48,104,0
0,44,85,22
0,42,113,18
0,38,110,17
0,67,108,1
0,48,94,0
0,64,92,0
0,36,72,10
0,42,119,2
0,36,100,0
0,36,112,18
0,36,116,2
0,42,110,1
0,48,90,1
0,69,104,0
0,65,92,0
0,42,100,27
0,38,127,9
0,39,127,1
0,46,127,0
0,67,110,0
0,48,98,1
0,64,90,0
0,72,116,18
0,76,115,0
0,36,108,23
0,36,110,1
0,42,127,0
0,48,85,2
0,44,89,11
0,76,96,2
0,42,110,1
0,38,89,1
0,44,110,1
0,74,110,1
0,36,98,0
0,36,110,1
0,72,106,0
0,42,119,1
0,60,112,1
0,36,106,23
0,64,91,0
0,72,111,1
0,36,127,0
0,48,86,2
0,42,119,0
0,44,91,37
0,42,107,6
0,55,98,18
0,69,108,0
0,39,127,1
0,38,127,1
0,46,116,1
0,57,98,36
0,67,103,0
0,76,104,2
0,48,109,10
0,36,110,1
0,60,114,0
0,36,103,1
0,42,119,0
0,44,72,0
0,44,107,0
0,38,116,2
0,48,90,2
0,42,119,7
0,36,87,3
0,60,113,2
0,36,108,1
0,42,116,5
0,36,119,14
0,36,108,2
0,48,82,0
0,42,91,6
0,55,94,13
0,39,127,4
0,38,127,0
0,31,115,2
0,43,100,0
0,46,122,1
0,57,93,2
0,32,108,5
0,44,106,7
0,69,68,21
0,69,68,0
0,57,111,2
0,42,127,1
0,36,110,0
0,33,121,1
0,45,102,0
0,44,87,2
0,42,98,16
0,69,97,0
0,38,119,0
0,44,116,0
0,64,75,0
0,72,110,13
0,42,110,0
0,36,66,1
0,57,111,0
0,33,119,2
0,72,113,3
0,45,97,1
0,42,119,0
0,33,119,1
0,36,113,0
0,69,84,1
0,55,83,12
0,69,98,0
0,44,68,3
0,42,100,1
0,72,115,18
0,46,127,2
0,57,91,1
0,38,127,0
0,39,127,1
0,26,121,3
0,60,109,2
0,74,110,1
0,71,102,2
0,67,60,1
0,67,60,0
0,62,53,1
0,62,53,0
0,28,125,0
0,59,60,1
0,59,60,0
0,42,127,0
0,59,103,1
0,40,105,0
0,36,110,0
0,44,89,0
0,74,120,1
0,42,107,2
0,38,113,4
0,44,110,0
0,71,105,2
0,69,101,2
0,55,106,7
0,36,93,2
0,28,123,1
0,42,119,1
0,67,112,0
0,64,81,2
0,35,110,0
0,42,122,1
0,36,127,0
0,47,91,0
0,44,95,46
0,42,110,21
0,55,111,4
0,39,127,1
0,38,127,1
0,40,94,1
0,46,127,0
0,35,117,1
0,28,119,13
0,69,57,22
0,69,57,0
0,60,60,1
0,60,60,0
0,65,76,3
0,65,76,0
0,42,127,7
0,57,113,0
0,36,127,0
0,29,121,0
0,41,100,0
0,44,80,1
0,65,103,1
0,42,110,12
0,38,91,0
0,69,113,0
0,65,111,0
0,44,127,0
0,29,108,20
0,57,113,2
0,72,122,0
0,42,119,0
0,36,98,1
0,29,117,26
0,41,85,0
0,42,116,1
0,36,127,0
0,69,106,2
0,72,117,0
0,44,91,15
0,42,113,13
0,39,127,20
0,46,127,0
0,38,127,1
0,55,100,1
0,65,88,0
0,69,104,0
0,24,123,10
0,57,98,0
0,62,74,0
0,62,74,0
0,38,80,0
0,36,105,0
0,60,116,1
0,26,119,0
0,42,127,0
0,44,58,6
0,42,110,0
0,65,106,1
0,62,99,0
0,38,113,0
0,44,119,0
0,26,119,25
0,36,89,0
0,42,122,2
0,60,116,0
0,69,98,0
0,26,121,20
0,36,122,2
0,42,127,1
0,50,91,0
0,69,97,0
0,65,95,0
0,72,113,0
0,74,120,17
0,44,72,3
0,42,110,7
0,76,113,15
0,55,104,3
0,39,127,2
0,38,127,0
0,46,127,1
0,50,96,0
0,57,96,1
0,76,112,2
0,67,105,1
0,72,115,1
0,67,62,12
0,67,62,0
0,60,58,1
0,60,58,0
0,64,63,0
0,64,63,0
0,42,127,0
0,36,108,1
0,60,116,0
0,36,107,0
0,48,103,0
0,44,100,16
0,42,107,13
0,38,113,0
0,44,116,0
0,48,97,0
0,64,91,0
0,67,111,0
0,60,111,12
0,36,106,7
0,36,89,1
0,42,127,1
0,42,127,0
0,36,127,0
0,36,104,1
0,43,105,1
0,64,101,0
0,67,99,0
0,44,91,8
0,42,113,7
0,67,110,13
0,64,94,1
0,31,119,0
0,46,127,1
0,48,97,2
0,39,116,0
0,38,127,0
0,55,92,1
0,33,115,3
0,57,90,3
0,65,95,1
0,69,102,0
0,36,100,12
0,42,127,0
0,36,119,0
0,60,114,0
0,48,84,0
0,42,110,1
0,44,87,1
0,67,108,19
0,64,92,0
0,38,127,0
0,46,127,1
0,48,81,1
0,36,96,1
0,60,112,5
0,69,106,12
0,43,103,0
0,36,104,2
0,65,96,0
0,48,84,2
0,43,106,3
0,74,103,38
0,41,116,1
0,76,117,12
0,72,117,1
0,67,97,2
0,48,99,1
0,41,127,0
0,69,103,15
0,77,108,0
0,74,112,0
0,38,119,1
0,42,127,0
0,69,66,1
0,65,55,0
0,62,53,0
0,69,66,0
0,65,55,0
0,62,53,1
0,62,80,0
0,57,80,0
0,38,97,0
0,36,127,0
0,50,80,1
0,77,110,10
0,42,91,1
0,42,82,16
0,69,103,18
0,76,112,0
0,65,78,0
0,46,127,1
0,38,127,1
0,38,82,0
0,26,94,3
0,36,89,4
0,45,92,1
0,42,110,0
0,42,95,10
0,74,117,15
0,69,107,2
0,26,125,1
0,65,92,0
0,38,78,1
0,42,127,0
0,36,127,1
0,42,64,0
0,42,89,17
0,57,56,11
0,62,56,2
0,72,118,1
0,50,56,1
0,65,94,2
0,69,97,0
0,26,121,1
0,38,89,2
0,46,122,0
0,38,127,0
0,74,105,2
0,33,102,1
0,72,118,17
0,60,50,3
0,60,50,0
0,64,72,2
0,64,72,0
0,69,109,0
0,33,119,1
0,57,57,2
0,64,97,0
0,52,57,0
0,42,122,0
0,36,127,1
0,45,78,1
0,60,92,0
0,45,56,0
0,44,74,0
0,42,102,16
0,60,94,14
0,64,98,1
0,38,127,6
0,45,93,1
0,46,127,0
0,40,97,21
0,36,113,1
0,28,96,1
0,44,80,0
0,42,102,4
0,44,119,2
0,36,127,0
0,45,97,1
0,33,100,1
0,71,115,19
0,44,85,10
0,42,110,14
0,36,98,0
0,67,72,2
0,67,72,0
0,43,56,5
0,50,55,5
0,71,118,2
0,62,102,2
0,67,108,1
0,43,90,2
0,39,127,0
0,46,127,1
0,38,127,0
0,55,55,1
0,69,115,0
0,28,108,0
0,69,72,15
0,69,72,0
0,65,76,1
0,65,76,0
0,48,60,6
0,53,60,0
0,41,60,2
0,69,112,6
0,42,127,0
0,36,127,1
0,29,117,1
0,41,87,0
0,65,97,0
0,44,102,15
0,42,116,3
0,46,122,21
0,38,127,0
0,41,92,5
0,48,58,16
0,41,57,3
0,36,110,1
0,29,119,1
0,44,105,1
0,76,108,0
0,42,110,3
0,41,56,16
0,53,56,2
0,48,56,2
0,76,109,0
0,44,127,1
0,29,117,2
0,65,104,0
0,36,127,0
0,41,91,0
0,69,109,0
0,44,100,7
0,42,113,20
0,46,127,18
0,29,121,1
0,41,104,0
0,38,127,1
0,36,119,9
0,48,103,2
0,74,110,4
0,65,101,0
0,69,106,1
0,42,127,0
0,36,127,0
0,29,119,1
0,41,88,1
0,44,107,18
0,42,122,8
0,46,127,21
0,38,127,0
0,41,95,1
0,36,105,3
0,44,110,0
0,72,101,1
0,29,117,0
0,42,127,6
0,41,85,2
0,44,127,0
0,29,121,1
0,36,127,0
0,69,105,1
0,72,120,0
0,42,119,14
0,44,119,3
0,42,127,20
0,36,102,3
0,46,127,7
0,29,121,2
0,41,89,0
0,39,127,0
0,38,127,1
0,77,112,9
0,74,109,0
0,28,127,1
0,69,103,0
0,62,61,8
0,62,61,0
0,50,79,5
0,62,79,1
0,57,79,2
0,36,127,1
0,38,96,1
0,26,125,1
0,42,127,0
0,77,112,2
0,42,110,3
0,42,113,18
0,76,116,18
0,38,127,1
0,69,110,1
0,65,88,1
0,46,127,0
0,38,77,1
0,42,98,5
0,74,119,9
0,36,100,3
0,26,90,0
0,45,94,1
0,42,74,0
0,42,119,3
0,74,120,16
0,26,121,3
0,42,127,0
0,36,127,0
0,38,88,0
0,72,123,5
0,69,109,2
0,65,97,0
0,42,116,5
0,26,115,8
0,62,64,0
0,38,127,0
0,50,64,2
0,46,127,0
0,57,64,1
0,38,84,0
0,47,93,0
0,74,108,9
0,72,116,3
0,60,51,3
0,60,51,0
0,69,66,2
0,69,66,0
0,57,68,2
0,64,74,1
0,64,74,0
0,45,102,0
0,36,122,0
0,33,117,1
0,52,68,0
0,42,127,0
0,45,68,1
0,60,93,0
0,64,79,0
0,69,102,0
0,42,110,24
0,42,122,13
0,64,100,0
0,38,127,1
0,45,91,1
0,60,98,0
0,46,127,0
0,42,110,22
0,36,107,2
0,42,127,14
0,28,115,0
0,40,90,0
0,42,127,1
0,42,127,0
0,36,127,1
0,33,123,1
0,45,98,0
0,71,120,32
0,42,122,1
0,42,127,3
0,36,102,1
0,50,71,15
0,71,117,0
0,55,71,1
0,62,109,0
0,38,127,0
0,43,71,1
0,67,109,0
0,39,127,0
0,46,127,1
0,43,90,0
0,69,121,3
0,31,117,1
0,41,76,2
0,69,78,1
0,69,78,0
0,53,76,1
0,48,76,2
0,65,61,1
0,65,61,0
0,36,127,0
0,29,119,1
0,69,115,0
0,41,89,0
0,44,91,0
0,65,103,1
0,42,113,18
0,42,119,9
0,41,87,21
0,38,127,0
0,46,127,0
0,42,107,4
0,76,108,13
0,29,117,6
0,36,102,0
0,42,113,1
0,42,122,6
0,29,121,18
0,53,79,0
0,76,111,0
0,65,109,2
0,69,111,0
0,42,127,0
0,48,79,1
0,36,127,0
0,41,83,1
0,41,81,0
0,42,52,23
0,42,110,17
0,42,122,4
0,46,127,19
0,38,127,2
0,29,119,0
0,41,100,1
0,48,102,1
0,42,91,0
0,36,104,0
0,42,119,19
0,74,113,1
0,29,100,1
0,65,94,2
0,42,127,0
0,36,127,0
0,41,87,1
0,69,99,0
0,42,113,20
0,42,98,8
0,36,127,0
0,42,116,16
0,38,127,18
0,41,98,1
0,46,127,1
0,36,127,7
0,42,113,0
0,29,110,11
0,42,116,3
0,72,119,2
0,42,116,7
0,41,90,12
0,29,108,1
0,36,127,1
0,72,110,1
0,44,127,0
0,69,104,0
0,42,113,21
0,72,105,5
0,44,127,4
0,42,127,8
0,36,119,0
0,41,84,19
0,38,127,0
0,72,113,1
0,39,127,0
0,46,127,1
0,69,97,0
0,42,113,5
0,29,104,14
0,42,102,0
0,69,116,1
0,42,119,5
0,43,89,14
0,55,89,1
0,59,60,1
0,59,60,0
0,31,123,0
0,36,127,0
0,50,91,1
0,62,47,0
0,62,47,0
0,43,105,1
0,67,74,0
0,67,74,0
0,65,88,0
0,59,108,0
0,69,98,0
0,42,127,1
0,55,55,0
0,55,55,0
0,42,113,3
0,42,127,20
0,38,122,18
0,43,103,2
0,46,127,0
0,42,110,5
0,76,119,4
0,36,116,4
0,31,121,1
0,42,107,0
0,55,99,0
0,48,100,2
0,43,79,2
0,42,127,1
0,76,111,2
0,31,119,1
0,43,93,1
0,71,112,0
0,65,109,0
0,36,127,2
0,44,127,1
0,55,77,0
0,50,83,2
0,43,83,1
0,42,105,17
0,42,127,3
0,42,127,0
0,31,119,18
0,43,95,2
0,38,127,0
0,46,127,2
0,38,110,19
0,50,81,2
0,50,110,7
0,50,107,10
0,50,127,8
0,74,110,12
0,31,117,3
0,50,127,1
0,43,94,0
0,48,127,11
0,48,127,11
0,48,127,22
0,43,94,5
0,47,127,13
0,47,91,22
0,31,92,4
0,45,89,14
0,45,127,11
0,31,119,2
0,43,97,4
0,45,127,10
0,52,127,3
0,31,121,17
0,43,94,1
0,43,127,12
0,41,127,19
0,41,127,3
0,33,127,1
0,45,102,2
0,35,127,3
0,47,95,0
0,49,127,1
0,67,87,4
0,67,87,0
0,64,74,2
0,64,74,0
0,24,103,1
0,36,127,0
0,42,113,0
0,72,109,1
0,60,56,1
0,60,56,0
0,48,81,0
0,64,97,0
0,42,87,9
0,36,86,6
0,46,115,2
