track,note,velocity,time
0,37,100,672
0,42,69,4
0,42,67,0
0,36,112,0
0,42,60,76
0,42,45,0
0,42,57,92
0,42,46,0
0,42,67,92
0,42,40,0
0,42,68,92
0,37,100,0
0,42,59,0
0,42,52,184
0,36,112,0
0,42,56,188
0,37,100,0
0,42,51,188
0,42,51,188
0,37,100,0
0,38,100,0
0,42,51,184
0,36,96,0
0,37,100,188
0,42,50,4
0,36,112,0
0,42,52,180
0,42,57,188
0,37,100,0
0,42,56,188
0,36,112,0
0,42,53,188
0,37,100,0
0,42,54,188
0,42,52,188
0,37,100,0
0,38,100,0
0,42,55,184
0,57,117,180
0,54,117,0
0,62,117,4
0,26,121,4
0,37,100,4
0,42,67,0
0,42,69,4
0,36,112,0
0,66,79,4
0,78,79,4
0,42,60,68
0,42,45,0
0,42,57,60
0,42,46,0
0,42,67,92
0,42,40,0
0,78,117,80
0,37,100,12
0,42,59,0
0,36,112,0
0,42,68,4
0,26,119,180
0,42,52,0
0,78,117,52
0,42,56,16
0,37,100,0
0,36,112,0
0,78,117,108
0,42,51,16
0,81,117,88
0,37,100,12
0,38,100,0
0,36,112,0
0,42,51,4
0,36,118,8
0,42,51,4
0,79,117,168
0,26,119,24
0,37,100,4
0,36,127,0
0,42,50,4
0,42,52,76
0,78,117,56
0,42,57,16
0,37,100,0
0,36,112,0
0,78,117,120
0,26,121,16
0,42,56,0
0,76,117,56
0,42,53,16
0,37,100,0
0,36,112,0
0,76,117,96
0,42,54,12
0,74,117,104
0,37,100,12
0,38,100,0
0,36,112,0
0,42,52,4
0,42,55,44
0,36,121,0
0,78,117,120
0,62,117,4
0,59,117,0
0,66,117,4
0,31,121,4
0,55,117,4
0,37,100,0
0,42,69,4
0,42,67,0
0,36,112,0
0,42,60,80
0,42,45,0
0,42,57,68
0,42,46,0
0,42,67,0
0,42,40,0
0,79,117,80
0,37,100,12
0,42,59,0
0,36,112,0
0,42,68,4
0,64,71,20
0,76,71,0
0,76,117,12
0,31,121,8
0,42,52,0
0,42,56,64
0,37,100,0
0,36,112,0
0,42,51,184
0,37,100,188
0,38,100,0
0,36,112,0
0,42,51,4
0,42,51,120
0,36,118,0
0,78,117,180
0,31,121,8
0,42,50,4
0,37,100,0
0,36,127,0
0,42,52,76
0,76,117,108
0,42,57,8
0,37,100,0
0,36,112,0
0,74,117,16
0,31,121,8
0,42,56,0
0,74,117,60
0,37,100,12
0,36,112,0
0,42,53,4
0,76,117,8
0,42,54,16
0,78,117,132
0,37,100,8
0,38,100,0
0,36,112,0
0,42,52,4
0,42,55,0
0,36,121,0
0,78,70,24
0,66,70,4
0,78,117,36
0,57,117,0
0,62,117,4
0,54,117,0
0,26,119,8
0,37,100,4
0,42,67,0
0,36,112,0
0,42,69,4
0,42,60,84
0,42,45,0
0,42,57,76
0,42,46,0
0,42,67,92
0,42,40,0
0,37,100,92
0,42,59,0
0,36,112,0
0,42,68,4
0,26,119,180
0,42,52,0
0,42,56,24
0,37,100,0
0,36,112,0
0,42,51,184
0,86,117,172
0,37,100,16
0,38,100,0
0,36,112,0
0,42,51,4
0,42,51,52
0,36,118,0
0,85,117,96
0,54,117,4
0,59,117,0
0,62,117,4
0,35,117,8
0,42,50,4
0,37,100,0
0,36,127,0
0,42,52,48
0,86,117,176
0,42,57,12
0,37,100,0
0,36,112,0
0,35,119,184
0,42,56,0
0,85,117,60
0,42,53,12
0,37,100,0
0,36,112,0
0,42,54,184
0,81,117,96
0,37,100,12
0,38,100,0
0,36,112,0
0,42,52,4
0,79,117,12
0,42,55,12
0,36,121,0
0,67,79,8
0,79,79,4
0,59,117,24
0,64,117,0
0,55,117,4
0,28,121,4
0,37,100,4
0,42,67,0
0,36,112,0
0,42,69,4
0,42,60,84
0,42,45,0
0,42,57,64
0,42,46,0
0,42,67,92
0,42,40,0
0,37,100,92
0,42,59,0
0,36,112,0
0,42,68,4
0,28,121,176
0,42,52,0
0,42,56,60
0,37,100,0
0,36,112,0
0,42,51,184
0,37,100,188
0,38,100,0
0,36,112,0
0,42,51,4
0,42,51,176
0,36,118,0
0,28,119,188
0,42,50,4
0,37,100,0
0,36,127,0
0,42,52,80
0,42,57,188
0,37,100,0
0,36,112,0
0,28,121,184
0,42,56,0
0,42,53,64
0,37,100,0
0,36,112,0
0,42,54,184
0,37,100,188
0,38,100,0
0,36,112,0
0,42,52,4
0,42,55,184
0,36,121,0
0,78,71,28
0,66,71,0
0,57,117,20
0,54,117,0
0,62,117,0
0,26,119,4
0,37,100,4
0,42,67,4
0,36,112,0
0,42,69,4
0,42,60,44
0,42,45,0
0,42,57,80
0,42,46,0
0,42,67,92
0,42,40,0
0,78,117,84
0,37,100,8
0,42,59,0
0,36,112,0
0,42,68,4
0,26,117,180
0,42,52,0
0,78,117,84
0,42,56,12
0,37,100,0
0,36,112,0
0,78,117,56
0,42,51,16
0,81,117,88
0,37,100,16
0,38,100,0
0,36,112,0
0,42,51,4
0,42,51,180
0,36,118,0
0,79,117,148
0,26,119,12
0,42,50,4
0,37,100,0
0,36,127,0
0,42,52,96
0,78,117,20
0,42,57,8
0,37,100,0
0,36,112,0
0,78,117,92
0,26,121,16
0,42,56,0
0,76,117,20
0,42,53,16
0,37,100,0
0,36,112,0
0,76,117,112
0,42,54,16
0,74,117,100
0,37,100,12
0,38,100,0
0,36,112,0
0,42,52,4
0,42,55,120
0,36,121,0
0,59,117,64
0,78,117,4
0,55,117,0
0,62,117,0
0,66,117,4
0,31,121,4
0,37,100,4
0,42,67,0
0,36,112,0
0,42,69,4
0,42,60,84
0,42,45,0
0,42,57,92
0,42,46,0
0,42,67,16
0,42,40,0
0,79,117,80
0,37,100,12
0,42,59,0
0,42,68,4
0,36,112,0
0,76,117,60
0,31,121,8
0,42,52,0
0,64,79,12
0,76,79,0
0,42,56,104
0,37,100,0
0,36,112,0
0,42,51,184
0,37,100,188
0,38,100,0
0,42,51,4
0,36,112,0
0,42,51,84
0,36,118,0
0,78,117,176
0,31,119,12
0,42,50,4
0,37,100,0
0,36,127,0
0,42,52,108
0,76,117,124
0,42,57,16
0,37,100,0
0,36,112,0
0,74,117,28
0,31,121,16
0,42,56,0
0,74,117,68
0,42,53,12
0,37,100,0
0,36,112,0
0,76,117,16
0,42,54,16
0,78,117,112
0,37,100,12
0,38,100,0
0,42,52,4
0,36,112,0
0,42,55,180
0,36,121,0
0,78,75,12
0,66,75,0
0,78,117,12
0,57,117,8
0,62,117,0
0,54,117,4
0,26,119,4
0,37,100,4
0,42,67,0
0,36,112,0
0,42,69,4
0,42,60,84
0,42,45,0
0,42,57,88
0,42,46,0
0,42,67,92
0,42,40,0
0,37,100,92
0,42,59,0
0,36,112,0
0,42,68,4
0,26,117,180
0,42,52,0
0,42,56,84
0,37,100,0
0,36,112,0
0,42,51,124
0,86,117,172
0,37,100,16
0,38,100,0
0,36,112,0
0,42,51,4
0,42,51,8
0,36,118,0
0,85,117,100
0,54,117,0
0,62,117,4
0,59,117,0
0,35,121,8
0,37,100,0
0,42,50,4
0,36,127,0
0,42,52,44
0,86,117,172
0,42,57,16
0,37,100,0
0,36,112,0
0,35,119,184
0,42,56,0
0,85,117,60
0,42,53,12
0,37,100,0
0,36,112,0
0,42,54,184
0,81,117,44
0,37,100,16
0,38,100,0
0,36,112,0
0,42,52,4
0,79,117,156
0,42,55,12
0,36,121,0
0,67,75,28
0,79,75,0
0,59,117,56
0,64,117,0
0,55,117,0
0,28,119,8
0,37,100,4
0,42,67,0
0,36,112,0
0,42,69,4
0,42,60,84
0,42,45,0
0,42,57,76
0,42,46,0
0,42,67,92
0,42,40,0
0,37,100,92
0,42,59,0
0,36,112,0
0,42,68,4
0,28,119,180
0,42,52,0
0,42,56,80
0,37,100,0
0,36,112,0
0,42,51,184
0,37,100,188
0,38,100,0
0,42,51,4
0,36,112,0
0,42,51,4
0,36,118,0
0,28,117,96
0,42,50,4
0,37,100,0
0,36,127,0
0,42,52,48
0,42,57,84
0,37,100,0
0,36,112,0
0,28,117,184
0,42,56,0
0,37,100,80
0,36,112,0
0,42,53,4
0,42,54,184
0,37,100,188
0,38,100,0
0,36,112,0
0,42,52,4
0,42,55,176
0,36,121,0
0,69,83,0
0,81,83,0
0,60,117,4
0,65,117,4
0,57,117,0
0,29,121,8
0,37,100,4
0,42,67,0
0,36,112,0
0,42,69,4
0,42,60,84
0,42,45,0
0,42,57,60
0,42,46,0
0,42,67,92
0,42,40,0
0,81,117,76
0,37,100,16
0,42,59,0
0,36,112,0
0,42,68,4
0,29,119,180
0,42,52,0
0,81,117,72
0,42,56,8
0,37,100,0
0,36,112,0
0,81,117,36
0,42,51,16
0,84,117,124
0,37,100,12
0,38,100,0
0,36,112,0
0,42,51,4
0,42,51,4
0,36,118,0
0,82,117,172
0,29,121,16
0,42,50,4
0,37,100,0
0,36,127,0
0,42,52,64
0,81,117,28
0,42,57,16
0,37,100,0
0,36,112,0
0,81,117,100
0,29,121,16
0,42,56,0
0,79,117,28
0,42,53,16
0,37,100,0
0,36,112,0
0,79,117,120
0,42,54,16
0,77,117,76
0,37,100,16
0,38,100,0
0,36,112,0
0,42,52,4
0,42,55,180
0,36,121,0
0,81,117,52
0,62,117,4
0,65,117,4
0,58,117,0
0,57,117,4
0,34,111,4
0,37,100,4
0,42,67,0
0,36,112,0
0,42,69,4
0,42,60,84
0,42,45,0
0,42,57,52
0,42,46,0
0,42,67,92
0,42,40,0
0,82,117,52
0,37,100,24
0,42,59,0
0,36,112,0
0,42,68,4
0,79,117,16
0,34,116,12
0,42,52,0
0,42,56,24
0,37,100,0
0,36,112,0
0,42,51,184
0,37,100,188
0,38,100,0
0,36,112,0
0,42,51,4
0,42,51,180
0,36,118,0
0,81,117,88
0,34,116,16
0,42,50,4
0,37,100,0
0,36,127,0
0,42,52,60
0,79,117,36
0,37,100,20
0,36,112,0
0,42,57,4
0,77,117,172
0,34,116,12
0,42,56,0
0,77,117,40
0,42,53,12
0,37,100,0
0,36,112,0
0,79,117,16
0,42,54,16
0,81,117,12
0,37,100,16
0,38,100,0
0,36,112,0
0,42,52,4
0,42,55,180
0,36,121,0
0,67,77,16
0,79,77,0
0,79,117,32
0,60,117,8
0,64,117,0
0,57,117,0
0,33,121,8
0,37,100,4
0,42,67,0
0,36,112,0
0,42,69,4
0,42,60,84
0,42,45,0
0,42,57,56
0,42,46,0
0,42,67,92
0,42,40,0
0,37,100,92
0,42,59,0
0,36,112,0
0,42,68,4
0,33,119,180
0,42,52,0
0,42,56,48
0,37,100,0
0,36,112,0
0,42,51,132
0,89,117,168
0,37,100,20
0,38,100,0
0,36,112,0
0,42,51,4
0,42,51,180
0,36,118,0
0,69,74,4
0,81,74,0
0,88,117,28
0,57,117,8
0,65,117,0
0,62,117,4
0,26,117,4
0,42,50,4
0,37,100,0
0,36,127,0
0,42,52,56
0,89,117,64
0,42,57,16
0,37,100,0
0,36,112,0
0,26,117,184
0,42,56,0
0,88,117,52
0,42,53,16
0,37,100,0
0,36,112,0
0,42,54,184
0,84,117,52
0,37,100,16
0,38,100,0
0,42,52,4
0,36,112,0
0,82,117,24
0,42,55,8
0,36,121,0
0,82,71,12
0,70,71,0
0,62,117,12
0,58,117,4
0,67,117,0
0,31,121,8
0,37,100,4
0,42,67,0
0,36,112,0
0,42,69,4
0,42,60,84
0,42,45,0
0,42,57,56
0,42,46,0
0,42,67,92
0,42,40,0
0,37,100,92
0,42,59,0
0,36,112,0
0,42,68,4
0,31,119,180
0,42,52,0
0,42,56,52
0,37,100,0
0,36,112,0
0,42,51,184
0,37,100,188
0,38,100,0
0,42,51,4
0,36,112,0
0,42,51,56
0,36,118,0
0,31,121,188
0,42,50,4
0,37,100,0
0,36,127,0
0,42,52,48
0,81,117,180
0,42,57,8
0,37,100,0
0,36,112,0
0,31,119,184
0,42,56,0
0,79,117,56
0,42,53,12
0,37,100,0
0,36,112,0
0,42,54,184
0,77,117,60
0,37,100,4
0,38,100,0
0,36,112,0
0,42,52,4
0,42,55,180
0,36,121,0
0,84,74,4
0,72,74,0
0,60,117,60
0,55,117,0
0,64,117,0
0,79,117,4
0,36,119,4
0,37,100,4
0,42,67,0
0,36,112,0
0,42,69,4
0,42,60,84
0,42,45,0
0,42,57,52
0,42,46,0
0,42,67,92
0,42,40,0
0,81,117,52
0,37,100,16
0,42,59,0
0,36,112,0
0,42,68,4
0,79,117,24
0,36,119,12
0,42,52,0
0,42,56,32
0,37,100,0
0,36,112,0
0,42,51,184
0,37,100,188
0,38,100,0
0,36,112,0
0,42,51,4
0,42,51,180
0,36,118,0
0,36,119,72
0,42,50,4
0,37,100,0
0,36,127,0
0,42,52,56
0,81,117,176
0,42,57,12
0,37,100,0
0,36,112,0
0,36,121,184
0,42,56,0
0,79,117,60
0,42,53,8
0,37,100,0
0,36,112,0
0,77,117,16
0,42,54,16
0,76,117,28
0,37,100,12
0,38,100,0
0,36,112,0
0,42,52,4
0,42,55,8
0,36,121,0
0,69,80,24
0,81,80,4
0,74,117,20
0,54,127,4
0,62,117,4
0,62,127,0
0,57,127,0
0,26,127,4
0,26,127,0
0,54,117,0
0,57,117,4
0,49,67,0
0,35,112,0
0,45,127,4
0,38,127,4
0,26,125,92
0,42,44,0
0,26,125,0
0,42,58,88
0,57,97,80
0,26,127,12
0,38,112,0
0,42,65,0
0,26,127,0
0,26,123,100
0,35,81,0
0,42,52,0
0,26,125,0
0,42,55,32
0,62,97,0
0,26,123,24
0,35,112,0
0,42,77,0
0,26,125,0
0,26,120,184
0,42,56,0
0,26,123,0
0,42,63,88
0,69,97,0
0,26,120,40
0,38,112,0
0,42,69,0
0,26,123,0
0,26,116,184
0,26,118,0
0,42,60,0
0,42,69,92
0,67,97,24
0,26,120,36
0,26,123,0
0,35,112,0
0,42,62,0
0,26,118,180
0,42,48,0
0,26,121,0
0,35,81,80
0,42,63,0
0,66,97,16
0,26,114,16
0,38,112,0
0,42,66,0
0,26,123,0
0,26,120,184
0,35,112,0
0,42,53,0
0,26,121,0
0,42,59,88
0,62,97,20
0,26,116,28
0,35,112,0
0,26,123,0
0,42,66,0
0,26,120,176
0,42,60,0
0,26,123,0
0,42,55,84
0,57,97,16
0,26,116,28
0,38,112,0
0,42,78,0
0,26,120,0
0,26,118,32
0,38,112,0
0,26,116,0
0,38,112,4
0,83,73,12
0,71,73,0
0,59,97,28
0,59,117,8
0,55,127,0
0,59,127,0
0,62,103,4
0,66,127,0
0,31,127,4
0,33,113,0
0,31,116,0
0,55,117,0
0,66,117,4
0,35,112,0
0,42,76,4
0,50,127,4
0,43,127,0
0,62,93,0
0,42,59,60
0,31,118,92
0,42,66,0
0,31,123,0
0,42,67,88
0,31,120,92
0,38,112,0
0,42,65,0
0,31,121,0
0,31,120,180
0,35,81,0
0,42,53,0
0,31,120,0
0,42,60,88
0,31,118,92
0,35,112,0
0,42,67,0
0,31,120,0
0,31,113,184
0,42,60,0
0,31,118,0
0,42,58,88
0,31,120,92
0,38,112,0
0,42,63,0
0,31,118,0
0,31,116,184
0,42,51,0
0,31,120,0
0,42,63,88
0,67,97,44
0,31,118,8
0,31,116,0
0,35,112,0
0,42,71,0
0,31,118,180
0,42,44,0
0,31,120,0
0,35,81,84
0,42,56,0
0,31,120,92
0,31,114,0
0,38,112,0
0,42,72,4
0,66,97,4
0,31,118,44
0,35,112,0
0,42,54,0
0,31,109,0
0,42,62,88
0,31,114,92
0,35,112,0
0,42,69,0
0,31,123,0
0,31,114,184
0,42,64,0
0,31,118,0
0,42,56,88
0,62,97,52
0,31,113,36
0,38,112,0
0,31,123,0
0,42,68,0
0,31,114,180
0,38,112,0
0,31,120,0
0,38,112,12
0,81,74,12
0,69,74,4
0,57,127,16
0,62,127,0
0,62,117,4
0,57,117,0
0,54,127,0
0,54,117,4
0,26,116,4
0,35,112,0
0,26,123,0
0,42,67,0
0,45,127,4
0,38,127,4
0,42,65,56
0,26,111,92
