track,note,velocity,time
3,59,127,9602
3,59,0,482
3,71,114,27
3,71,0,280
3,69,122,199
3,69,0,299
3,68,106,27
3,68,0,143
3,66,108,9
3,66,0,299
3,64,112,17
3,64,0,204
3,66,120,444
3,66,0,293
3,68,102,23
3,66,110,151
3,68,0,43
3,66,0,269
3,64,108,9
3,64,0,133
3,61,102,34
3,59,108,284
3,61,0,14
3,59,0,151
3,59,112,478
3,59,0,278
3,71,102,64
3,69,120,161
3,71,0,29
3,69,0,274
3,68,106,27
3,68,0,140
3,66,108,13
3,66,0,279
3,64,106,10
3,64,0,167
3,68,114,321
3,68,0,164
3,69,114,19
3,69,0,281
3,66,120,46
3,66,0,672
3,59,112,443
3,59,0,442
3,71,112,24
3,71,0,231
3,69,117,249
3,69,0,300
3,68,102,23
3,68,0,130
3,66,106,13
3,66,0,308
3,64,104,14
3,64,0,160
3,66,114,498
3,66,0,284
3,68,88,31
3,66,110,149
3,68,0,38
3,64,108,290
3,66,0,2
3,64,0,126
3,61,102,61
3,59,106,286
3,61,0,5
3,59,0,150
3,66,120,38
3,66,0,228
3,66,112,251
3,66,0,307
3,68,94,28
3,66,108,154
3,68,0,32
3,66,0,297
3,64,110,2
3,61,95,120
3,64,0,2
3,61,0,266
3,64,100,189
3,64,0,462
3,68,102,46
3,68,0,418
3,59,112,71
3,59,0,504
3,66,120,477
3,66,0,162
3,66,117,298
3,66,0,267
3,68,112,37
3,66,110,152
3,68,0,41
3,64,110,272
3,66,0,1
3,64,0,142
3,61,106,25
3,61,0,260
3,64,117,221
3,64,0,1190
3,64,100,577
3,64,0,140
3,66,108,26
3,66,0,294
3,66,110,217
3,66,0,276
3,64,108,31
3,64,0,117
3,66,112,61
3,66,0,314
3,68,102,137
3,68,0,274
3,64,110,25
3,64,0,211
3,59,106,280
3,59,0,1062
3,68,112,378
3,68,0,135
3,69,114,19
3,69,0,284
3,69,114,207
3,69,0,279
3,69,117,213
3,69,0,267
3,73,120,37
3,73,0,271
3,71,106,82
3,71,0,244
3,68,114,58
3,68,0,1214
3,68,117,233
3,68,0,301
3,70,119,12
3,70,0,124
3,71,125,45
3,71,0,454
3,68,114,40
3,68,0,260
3,70,113,34
3,70,0,128
3,71,120,21
3,71,0,451
3,73,112,31
3,73,0,332
3,75,100,16
3,73,91,80
3,75,0,28
3,73,0,439
3,71,114,24
3,71,0,996
3,66,112,331
3,66,0,130
3,76,125,14
3,76,0,271
3,76,120,227
3,76,0,304
3,75,120,154
3,75,0,440
3,73,117,64
3,73,0,316
3,71,106,168
3,71,0,472
3,59,112,1455
3,71,120,425
3,59,0,13
3,71,0,270
3,69,114,222
3,69,0,300
3,68,106,19
3,66,104,147
3,68,0,2
3,66,0,291
3,64,102,15
3,64,0,171
3,66,112,496
3,66,0,292
3,68,95,22
3,66,110,164
3,68,0,45
3,66,0,245
3,64,104,9
3,64,0,159
3,61,98,21
3,59,106,292
3,61,0,18
3,59,0,157
3,59,106,491
3,59,0,289
3,71,120,21
3,69,127,161
3,71,0,30
3,69,0,253
3,68,114,40
3,68,0,158
3,66,117,15
3,66,0,236
3,64,120,49
3,64,0,177
3,68,114,348
3,68,0,144
3,69,122,22
3,69,0,295
3,66,114,29
3,66,0,688
3,59,110,435
3,59,0,436
3,71,108,6
3,71,0,297
3,69,104,183
3,69,0,320
3,68,104,14
3,68,0,149
3,66,106,4
3,66,0,276
3,64,106,17
3,64,0,177
3,66,108,486
3,66,0,289
3,68,90,29
3,66,106,150
3,68,0,44
3,66,0,274
3,64,104,0
3,64,0,142
3,61,91,39
3,61,0,246
3,66,120,260
3,66,0,210
3,66,112,250
3,66,0,292
3,68,92,29
3,68,0,160
3,66,106,1
3,64,108,316
3,66,0,14
3,64,0,120
3,61,106,27
3,61,0,257
3,64,110,199
3,64,0,464
3,68,106,17
3,68,0,435
3,59,106,46
3,59,0,525
3,66,114,474
3,66,0,221
3,66,122,264
3,66,0,284
3,68,108,20
3,66,106,151
3,68,0,41
3,66,0,239
3,64,100,20
3,61,108,182
3,64,0,38
3,61,0,231
3,64,112,223
3,64,0,949
3,64,114,20001
3,64,0,141
3,66,114,18
3,66,0,221
3,66,125,280
3,66,0,294
3,64,110,33
3,64,0,114
3,66,110,36
3,66,0,301
3,68,114,160
3,68,0,256
3,64,127,40
3,64,0,237
3,59,127,231
3,59,0,1084
3,68,122,389
3,68,0,111
3,69,112,48
3,69,0,261
3,69,122,211
3,69,0,227
3,69,114,97
3,69,0,89
3,69,120,73
3,69,0,221
3,73,125,100
3,73,0,267
3,71,122,85
3,71,0,215
3,68,127,71
3,68,0,1013
3,68,112,416
3,68,0,341
3,70,119,33
3,70,0,107
3,71,120,31
3,71,0,450
3,68,117,50
3,68,0,286
3,70,116,16
3,70,0,145
3,71,122,20
3,71,0,451
3,73,117,9
3,73,0,303
3,75,123,30
3,75,0,120
3,73,108,2
3,73,0,482
3,71,122,7
3,71,0,816
3,66,127,470
3,66,0,151
3,76,125,20
3,76,0,240
3,76,120,244
3,76,0,310
3,75,108,191
3,75,0,474
3,73,122,3
3,73,0,249
3,71,110,194
3,71,0,458
3,60,120,1493
3,60,0,469
3,72,122,21
3,72,0,267
3,70,117,233
3,70,0,304
3,69,110,13
3,69,0,153
3,67,112,4
3,67,0,284
3,65,112,8
3,65,0,191
3,67,122,422
3,67,0,309
3,69,102,24
3,67,110,158
3,69,0,35
3,67,0,258
3,65,102,17
3,62,106,177
3,65,0,10
3,60,94,284
3,62,0,10
3,60,0,139
3,60,108,531
3,60,0,290
3,72,106,37
3,70,112,148
3,72,0,47
3,70,0,214
3,69,110,36
3,67,112,178
3,69,0,11
3,67,0,276
3,65,112,6
3,65,0,161
3,69,112,312
3,69,0,152
3,70,108,17
3,70,0,305
3,67,114,25
3,67,0,677
3,60,112,472
3,60,0,464
3,72,87,7
3,72,0,251
3,70,117,222
3,70,0,290
3,69,102,16
3,67,104,164
3,69,0,31
3,67,0,285
3,65,110,6
3,65,0,144
3,67,110,482
3,67,0,290
3,69,86,26
3,67,108,148
3,69,0,50
3,67,0,290
3,65,110,4
3,65,0,144
3,62,104,17
3,62,0,305
3,60,87,8
3,60,0,84
3,67,114,70
3,67,0,262
3,67,112,235
3,67,0,298
3,69,88,35
3,69,0,140
3,67,104,5
3,67,0,295
3,65,104,11
3,62,110,162
3,65,0,1
3,62,0,303
3,65,108,177
3,65,0,495
3,69,120,19
3,69,0,456
3,60,94,24
3,60,0,533
3,67,117,441
3,67,0,248
3,67,110,211
3,67,0,304
3,69,98,8
3,67,102,165
3,69,0,49
3,65,106,258
3,67,0,1
3,62,95,140
3,65,0,10
3,62,0,329
3,65,110,111
3,65,0,1037
3,65,100,780
3,65,0,139
3,67,106,14
3,67,0,248
3,67,104,239
3,67,0,272
3,69,102,23
3,67,104,157
3,69,0,45
3,67,0,277
3,65,104,6
3,65,0,163
3,62,106,1
3,62,0,268
3,65,114,189
3,65,0,1466
3,67,108,455
3,67,0,243
3,67,104,246
3,67,0,309
3,69,76,34
3,67,97,177
3,69,0,23
3,67,0,263
3,65,95,4
3,62,90,172
3,65,0,19
3,62,0,215
3,65,98,215
3,65,0,1461
3,65,112,348
3,65,0,128
3,67,112,3
3,67,0,243
3,67,112,248
3,67,0,284
3,69,106,14
3,67,110,186
3,69,0,32
3,67,0,286
3,65,112,9
3,65,0,157
3,62,106,17
3,62,0,192
3,65,116,3059
3,65,0,233
4,53,65,115191
4,65,65,0
4,72,65,0
4,69,65,0
4,69,0,540
4,72,0,20
4,65,0,240
4,53,0,160
4,50,65,0
4,62,65,0
4,65,65,0
4,69,65,0
4,69,0,540
4,65,0,0
4,62,0,80
4,50,0,320
4,43,65,20
4,62,65,0
4,58,65,0
4,55,65,0
4,55,0,620
4,58,0,20
4,62,0,100
4,43,0,200
4,48,65,20
4,67,65,0
4,64,65,0
4,60,65,0
4,60,0,680
4,64,0,40
4,67,0,60
4,48,0,160
4,53,65,20
4,65,65,0
4,72,65,0
4,69,65,0
4,69,0,520
4,72,0,40
4,65,0,240
4,53,0,140
4,50,65,20
4,62,65,0
4,65,65,0
4,69,65,0
4,69,0,560
4,65,0,0
4,62,0,140
4,43,65,260
4,62,65,0
4,55,65,0
4,58,65,0
4,50,0,140
4,58,0,540
4,55,0,20
4,62,0,40
4,43,0,220
4,48,65,0
4,67,65,0
4,64,65,0
4,60,65,0
4,60,0,720
4,64,0,20
4,67,0,20
4,48,0,160
4,53,65,40
4,65,65,0
4,72,65,0
4,69,65,0
4,69,0,680
4,72,0,0
4,65,0,140
4,53,0,100
4,50,65,40
4,62,65,0
4,69,65,0
4,65,65,0
4,65,0,560
4,69,0,20
4,62,0,60
4,50,0,320
4,43,65,0
4,62,65,0
4,58,65,0
4,55,65,0
4,55,0,660
4,58,0,40
4,62,0,40
4,43,0,140
4,48,65,80
4,60,65,0
4,64,65,0
4,67,65,0
4,67,0,880
4,64,0,0
4,60,0,20
4,48,0,0
5,64,100,13266
5,68,100,0
5,71,100,160
5,68,0,1760
5,64,0,0
5,71,0,160
5,64,100,32480
5,68,100,0
5,71,100,160
5,68,0,1760
5,64,0,0
5,71,0,160
5,65,100,51680
5,69,100,0
5,72,100,160
5,69,0,1760
5,65,0,0
5,72,0,160
6,87,100,4781
6,83,100,0
6,83,0,480
6,85,100,0
6,81,100,0
6,87,0,20
6,81,0,80
6,85,0,20
6,81,100,200
6,85,100,0
6,85,0,140
6,81,0,20
6,80,100,0
6,83,100,0
6,83,0,1220
6,80,0,40
6,87,100,1620
6,83,100,0
6,83,0,400
6,87,0,60
6,81,100,20
6,85,100,0
6,85,0,140
6,81,0,20
6,81,100,160
6,85,100,0
6,85,0,140
6,81,0,20
6,80,100,0
6,83,100,0
6,83,0,1260
6,80,0,20
6,56,100,16480
6,52,100,0
6,52,0,460
6,59,100,20
6,56,0,400
6,64,100,80
6,59,0,440
6,64,0,40
6,61,100,0
6,49,100,0
6,52,100,0
6,57,100,0
6,57,0,880
6,52,0,20
6,49,0,20
6,61,0,0
6,54,100,40
6,51,100,0
6,63,100,0
6,59,100,0
6,59,0,880
6,63,0,0
6,51,0,20
6,54,0,20
6,56,100,40
6,52,100,0
6,59,100,0
6,64,100,0
6,64,0,440
6,64,100,40
6,59,0,420
6,52,0,40
6,68,100,20
6,59,100,0
6,64,0,400
6,64,100,80
6,71,100,0
6,59,0,360
6,68,0,20
6,56,0,20
6,71,0,20
6,73,100,60
6,69,100,0
6,61,100,0
6,64,100,0
6,64,0,20
6,64,0,700
6,61,0,120
6,69,0,60
6,73,0,20
6,71,100,40
6,63,100,0
6,66,100,0
6,75,100,0
6,75,0,880
6,66,0,40
6,63,0,0
6,68,100,40
6,64,100,0
6,76,100,0
6,71,0,440
6,76,0,20
6,76,100,20
6,71,100,0
6,71,0,400
6,76,0,40
6,64,0,0
6,71,100,40
6,80,100,0
6,76,100,0
6,76,0,360
6,80,0,40
6,80,100,80
6,76,100,0
6,83,100,0
6,71,0,320
6,68,0,0
6,83,0,160
6,71,100,0
6,75,100,0
6,83,100,0
6,75,100,0
6,75,0,40
6,76,0,60
6,83,0,1660
6,80,0,40
6,75,0,100
6,71,0,20
6,68,100,23520
6,64,100,0
6,64,0,120
6,68,0,0
6,69,100,40
6,66,100,0
6,66,0,80
6,69,0,40
6,71,100,40
6,68,100,0
6,68,0,80
6,71,0,40
6,73,100,40
6,69,100,0
6,69,0,80
6,73,0,20
6,75,100,60
6,71,100,0
6,71,0,60
6,75,0,40
6,76,100,60
6,73,100,0
6,73,0,60
6,76,0,20
6,78,100,80
6,75,100,0
6,75,0,80
6,78,0,0
6,80,100,80
6,76,100,0
6,76,0,60
6,80,0,20
6,81,100,80
6,78,100,0
6,78,0,40
6,81,0,40
6,83,100,80
6,80,100,0
6,80,0,1660
6,83,0,80
6,83,100,1140
6,87,100,0
6,87,0,460
6,83,0,20
6,85,100,0
6,81,100,0
6,81,0,100
6,85,0,40
6,85,100,180
6,81,100,0
6,81,0,140
6,85,0,0
6,83,100,20
6,80,100,0
6,80,0,1760
6,83,0,160
6,87,100,960
6,83,100,0
6,83,0,460
6,87,0,0
6,85,100,20
6,81,100,0
6,81,0,100
6,85,0,20
6,85,100,200
6,81,100,0
6,81,0,140
6,85,0,0
6,80,100,20
6,83,100,0
6,83,0,1700
6,80,0,100
6,61,100,9720
6,52,100,0
6,49,100,0
6,57,100,0
6,57,0,860
6,49,0,0
6,52,0,20
6,61,0,40
6,54,100,40
6,51,100,0
6,63,100,0
6,59,100,0
6,59,0,880
6,63,0,0
6,51,0,60
6,54,0,0
6,56,100,20
6,59,100,0
6,52,100,0
6,64,100,0
6,64,0,440
6,64,100,40
6,52,0,400
6,59,0,20
6,68,100,60
6,59,100,0
6,64,0,400
6,56,0,60
6,64,100,20
6,71,100,0
6,59,0,40
6,68,0,340
6,71,0,40
6,73,100,60
6,69,100,0
6,61,100,0
6,61,0,880
6,64,0,0
6,69,0,20
6,73,0,20
6,71,100,40
6,63,100,0
6,66,100,0
6,75,100,0
6,75,0,880
6,66,0,20
6,63,0,40
6,68,100,20
6,64,100,0
6,76,100,0
6,71,0,440
6,76,0,20
6,76,100,20
6,71,100,0
6,71,0,400
6,76,0,40
6,64,0,20
6,71,100,20
6,80,100,0
6,76,100,0
6,76,0,340
6,80,0,60
6,71,0,40
6,68,0,20
6,80,100,20
6,76,100,0
6,83,100,0
6,68,100,0
6,68,0,360
6,83,0,120
6,75,100,0
6,71,100,0
6,83,100,0
6,75,100,0
6,75,0,40
6,76,0,80
6,83,0,1640
6,80,0,40
6,71,0,40
6,75,0,60
6,84,100,8660
6,76,100,0
6,72,100,0
6,88,100,0
6,88,0,460
6,72,0,0
6,76,0,20
6,84,0,0
6,82,100,0
6,86,100,0
6,70,100,0
6,74,100,0
6,74,0,80
6,70,0,0
6,86,0,20
6,82,0,20
6,86,100,200
6,82,100,0
6,70,100,0
6,74,100,0
6,74,0,100
6,70,0,0
6,82,0,20
6,86,0,0
6,84,100,40
6,81,100,0
6,72,100,0
6,69,100,0
6,69,0,1200
6,72,0,20
6,81,0,140
6,84,0,20
6,84,100,1500
6,88,100,0
6,76,100,0
6,72,100,0
6,72,0,460
6,76,0,0
6,88,0,20
6,82,100,0
6,70,100,0
6,86,100,0
6,74,100,0
6,84,0,20
6,74,0,40
6,86,0,20
6,70,0,0
6,82,0,20
6,86,100,220
6,82,100,0
6,70,100,0
6,74,100,0
6,74,0,80
6,70,0,0
6,82,0,40
6,86,0,0
6,84,100,40
6,81,100,0
6,72,100,0
6,69,100,0
6,69,0,1180
6,72,0,0
6,81,0,260
6,84,0,20
7,71,100,23976
7,63,100,0
7,68,100,0
7,68,0,300
7,63,0,60
7,71,0,40
7,62,100,80
7,70,100,0
7,67,100,0
7,67,0,220
7,70,0,20
7,62,0,20
7,66,100,220
7,61,100,0
7,69,100,0
7,69,0,1140
7,61,0,0
7,66,0,0
7,75,100,13260
7,63,100,0
7,63,0,140
7,75,0,0
7,80,100,340
7,68,100,0
7,68,0,140
7,80,0,20
7,78,100,320
7,66,100,0
7,66,0,120
7,78,0,0
7,73,100,360
7,61,100,0
7,61,0,120
7,73,0,60
7,70,100,300
7,58,100,0
7,58,0,140
7,70,0,80
7,78,100,260
7,66,100,0
7,66,0,120
7,78,0,80
7,63,100,280
7,75,100,0
7,75,0,120
7,63,0,0
7,59,100,360
7,71,100,0
7,71,0,160
7,59,0,0
7,69,100,320
7,57,100,0
7,57,0,140
7,69,0,100
7,66,100,240
7,54,100,0
7,54,0,100
7,66,0,20
7,71,100,14760
7,63,100,0
7,68,100,0
7,68,0,300
7,63,0,60
7,71,0,40
7,62,100,80
7,70,100,0
7,67,100,0
7,67,0,220
7,70,0,20
7,62,0,20
7,66,100,220
7,61,100,0
7,69,100,0
7,69,0,1140
7,61,0,0
7,66,0,0
7,73,100,14220
7,61,100,0
7,61,0,80
7,73,0,20
7,76,100,380
7,64,100,0
7,64,0,100
7,76,0,20
7,75,100,360
7,63,100,0
