track,note,velocity,time
1,31,89,3612
1,33,99,112
1,35,89,112
1,36,99,112
1,36,79,112
1,36,99,112
1,36,79,112
1,36,99,112
1,36,79,112
1,36,99,112
1,36,79,112
1,36,99,112
1,36,79,112
1,36,99,112
1,36,79,112
1,36,99,112
1,36,79,112
1,36,99,112
1,36,79,112
1,43,66,16
1,36,99,32
1,36,79,112
1,36,99,112
1,36,79,112
1,36,99,112
1,36,79,112
1,36,99,112
1,36,79,112
1,36,99,112
1,36,79,112
1,36,99,112
1,36,79,112
1,36,99,112
1,36,79,112
1,36,99,112
1,36,79,112
1,43,66,16
1,36,99,16
1,36,79,112
1,36,99,112
1,36,79,112
1,36,99,112
1,36,79,112
1,36,99,112
1,36,79,112
1,36,99,112
1,36,79,112
1,36,99,112
1,36,79,112
1,36,99,112
1,36,79,112
1,36,99,112
1,36,79,112
1,36,99,112
1,36,79,112
1,36,99,112
1,36,79,112
1,36,99,112
1,36,79,112
1,36,99,112
1,36,79,112
1,43,76,16
1,36,99,16
1,36,79,112
1,36,99,112
1,36,79,112
1,36,99,112
1,31,79,112
1,33,99,32
1,36,79,32
1,36,76,32
1,36,76,32
1,33,76,32
1,31,76,128
1,31,76,32
1,33,76,32
1,36,76,32
1,36,76,32
1,36,76,32
1,36,76,32
1,33,76,32
1,33,76,128
1,33,76,32
1,28,76,32
1,31,76,32
1,32,76,32
1,33,76,32
1,33,76,32
1,31,76,32
1,28,76,32
1,33,76,32
1,28,76,32
1,33,76,32
1,28,76,32
1,28,76,32
1,38,76,32
1,40,76,224
1,38,76,32
1,28,76,32
1,31,76,32
1,29,76,32
1,38,76,128
1,41,76,128
1,36,76,224
1,37,76,32
1,38,76,32
1,36,76,224
1,38,76,128
1,36,76,32
1,38,76,32
1,36,76,128
1,36,76,128
1,33,76,128
1,31,76,128
1,31,76,32
1,33,76,32
1,36,76,32
1,36,76,32
1,36,76,32
1,36,76,32
1,36,76,32
1,33,76,128
1,31,76,32
1,33,76,32
1,36,76,32
1,36,76,128
1,36,76,32
1,36,76,32
1,33,76,32
1,31,76,128
1,31,76,32
1,33,76,32
1,36,76,32
1,36,76,32
1,36,76,32
1,36,76,32
1,33,76,32
1,33,76,128
1,33,76,32
1,28,76,32
1,31,76,32
1,32,76,32
1,33,76,32
1,33,76,32
1,31,76,32
1,28,76,32
1,33,76,32
1,28,76,32
1,33,76,32
1,28,76,32
1,28,76,32
1,38,76,32
1,40,76,224
1,38,76,32
1,28,76,32
1,31,76,32
1,29,76,32
1,38,76,128
1,41,76,128
1,36,76,224
1,37,76,32
1,38,76,32
1,36,76,224
1,38,76,128
1,36,76,32
1,38,76,32
1,36,76,128
1,36,76,128
1,33,76,128
1,31,76,128
1,31,76,32
1,33,76,32
1,36,76,32
1,36,76,32
1,36,76,32
1,36,76,32
1,36,76,32
1,33,76,128
1,31,76,32
1,33,76,32
1,36,76,32
1,36,76,128
1,38,76,32
1,38,76,32
1,33,76,32
1,36,76,32
1,38,76,32
1,38,76,32
1,36,76,288
1,33,76,32
1,33,76,32
1,31,76,128
1,33,76,32
1,31,76,32
1,31,76,32
1,29,76,32
1,29,76,32
1,29,76,128
1,38,76,32
1,41,76,32
1,41,76,32
1,36,76,32
1,36,76,32
1,29,76,32
1,29,76,32
1,29,76,32
1,38,76,32
1,41,76,32
1,41,76,32
1,36,76,32
1,37,76,32
1,38,76,32
1,38,76,32
1,33,76,32
1,36,76,32
1,38,76,32
1,38,76,32
1,36,76,288
1,33,76,32
1,33,76,32
1,31,76,128
1,33,76,32
1,31,76,32
1,31,76,32
1,29,76,32
1,29,76,32
1,29,76,128
1,38,76,32
1,41,76,32
1,41,76,32
1,36,76,32
1,38,76,32
1,29,76,32
1,29,76,32
1,29,76,32
1,38,76,32
1,41,76,32
1,41,76,32
1,36,76,32
1,38,76,32
1,31,76,32
1,31,76,32
1,40,76,32
1,43,76,32
1,43,76,32
1,38,76,32
1,40,76,32
1,31,76,32
1,43,76,32
1,31,76,32
1,43,76,32
1,31,76,32
1,43,76,32
1,31,76,32
1,43,76,32
1,36,99,32
1,36,79,112
1,36,99,112
1,36,79,112
1,36,99,112
1,36,79,112
1,36,99,112
1,36,79,112
1,36,99,112
1,36,79,112
1,36,99,112
1,36,79,112
1,36,99,112
1,36,79,112
1,36,99,112
1,36,79,112
1,43,66,16
1,36,99,32
1,36,79,112
1,36,99,112
1,36,79,112
1,36,99,112
1,36,79,112
1,36,99,112
1,36,79,112
1,36,99,112
1,36,79,112
1,36,99,112
1,36,79,112
1,36,99,112
1,36,79,112
1,36,99,112
1,36,79,112
1,43,66,16
1,36,99,16
1,36,79,112
1,36,99,112
1,36,79,112
1,36,99,112
1,36,79,112
1,36,99,112
1,36,79,112
1,36,99,112
1,36,79,112
1,36,99,112
1,36,79,112
1,36,99,112
1,36,79,112
1,36,99,112
1,36,79,112
1,36,99,112
1,36,79,112
1,36,99,112
1,36,79,112
1,36,99,112
1,36,79,112
1,36,99,112
1,36,79,112
1,43,76,16
1,36,99,16
1,36,79,112
1,36,99,112
1,36,79,112
1,36,99,112
1,31,79,112
1,33,99,32
1,36,79,32
1,36,96,32
1,36,76,96
1,36,96,96
1,36,76,96
1,36,96,96
1,36,76,96
1,36,96,96
1,29,76,96
1,29,96,96
1,29,76,96
1,29,96,96
1,29,76,96
1,29,96,96
1,29,76,96
1,29,96,96
1,29,76,96
1,31,96,96
1,31,76,96
1,31,96,96
1,31,76,96
1,31,96,96
1,31,76,96
1,31,96,96
1,31,76,96
1,33,96,96
1,33,76,96
1,33,96,96
1,33,76,96
1,33,96,96
1,33,76,96
1,33,96,96
1,33,76,96
1,33,99,96
1,33,79,112
1,33,99,112
1,33,79,112
1,33,99,112
1,33,79,112
1,33,99,112
1,33,79,112
1,33,99,112
1,33,79,112
1,33,99,112
1,33,79,112
1,33,99,112
1,33,79,112
1,33,99,112
1,33,79,112
1,40,76,16
1,33,99,32
1,33,79,112
1,33,99,112
1,33,79,112
1,33,99,112
1,33,79,112
1,33,99,112
1,33,79,112
1,33,99,112
1,33,79,112
1,33,99,112
1,33,79,112
1,33,79,112
1,28,86,16
1,36,99,16
1,36,79,112
1,36,99,112
1,36,79,112
1,36,99,112
1,36,79,112
1,36,99,112
1,36,79,112
1,36,99,112
1,36,79,112
1,36,99,112
1,36,79,112
1,36,99,112
1,36,79,112
1,36,99,112
1,36,79,112
1,43,66,16
1,36,99,32
1,36,79,112
1,36,99,112
1,36,79,112
1,36,99,112
1,36,79,112
1,36,99,112
1,36,79,112
1,36,99,112
1,36,79,112
1,36,99,112
1,36,79,112
1,36,99,112
1,36,79,112
1,36,99,112
1,36,79,112
1,43,66,16
1,36,99,16
1,36,79,112
1,36,99,112
1,36,79,112
1,36,99,112
1,36,79,112
1,36,99,112
1,36,79,112
1,36,99,112
1,36,79,112
1,36,99,112
1,36,79,112
1,36,99,112
1,36,79,112
1,36,99,112
1,36,79,112
1,36,99,112
1,36,79,112
1,36,99,112
1,36,79,112
1,36,99,112
1,36,79,112
1,36,99,112
1,36,79,112
1,43,76,16
1,36,99,16
1,36,79,112
1,36,99,112
1,36,79,112
1,36,99,112
1,31,79,112
1,33,99,32
1,36,79,32
1,36,76,32
1,36,76,32
1,33,76,32
1,31,76,128
1,31,76,32
1,33,76,32
1,36,76,32
1,36,76,32
1,36,76,32
1,36,76,32
1,33,76,32
1,33,76,128
1,33,76,32
1,28,76,32
1,31,76,32
1,32,76,32
1,33,76,32
1,33,76,32
1,31,76,32
1,28,76,32
1,33,76,32
1,28,76,32
1,33,76,32
1,28,76,32
1,28,76,32
1,38,76,32
1,40,76,224
1,38,76,32
1,28,76,32
1,31,76,32
1,29,76,32
1,38,76,128
1,41,76,128
1,36,76,224
1,37,76,32
1,38,76,32
1,36,76,224
1,38,76,128
1,36,76,32
1,38,76,32
1,36,76,128
1,36,76,128
1,33,76,128
1,31,76,128
1,31,76,32
1,33,76,32
1,36,76,32
1,36,76,32
1,36,76,32
1,36,76,32
1,36,76,32
1,33,76,128
1,31,76,32
1,33,76,32
1,36,76,32
1,36,76,128
1,38,76,32
1,38,76,32
1,33,76,32
1,36,76,32
1,38,76,32
1,38,76,32
1,36,76,288
1,33,76,32
1,33,76,32
1,31,76,128
1,33,76,32
1,31,76,32
1,31,76,32
1,29,76,32
1,29,76,32
1,29,76,128
1,38,76,32
1,41,76,32
1,41,76,32
1,36,76,32
1,36,76,32
1,29,76,32
1,29,76,32
1,29,76,32
1,38,76,32
1,41,76,32
1,41,76,32
1,36,76,32
1,37,76,32
1,38,76,32
1,38,76,32
1,33,76,32
1,36,76,32
1,38,76,32
1,38,76,32
1,36,76,288
1,33,76,32
1,33,76,32
1,31,76,128
1,33,76,32
1,31,76,32
1,31,76,32
1,29,76,32
1,29,76,32
1,29,76,128
1,38,76,32
1,41,76,32
1,41,76,32
1,36,76,32
1,38,76,32
1,29,76,32
1,29,76,32
1,29,76,32
1,38,76,32
1,41,76,32
1,41,76,32
1,36,76,32
1,38,76,32
1,31,76,32
1,31,76,32
1,40,76,32
1,43,76,32
1,43,76,32
1,38,76,32
1,40,76,32
1,31,76,32
1,43,76,32
1,31,76,32
1,43,76,32
1,31,76,32
1,43,76,32
1,31,76,32
1,43,76,32
1,36,99,32
1,36,79,112
1,36,99,112
1,36,79,112
1,36,99,112
1,36,79,112
1,36,99,112
1,36,79,112
1,36,99,112
1,36,79,112
1,36,99,112
1,36,79,112
1,36,99,112
1,36,79,112
1,36,99,112
1,36,79,112
1,43,66,16
1,36,99,32
1,36,79,112
1,36,99,112
1,36,79,112
1,36,99,112
1,36,79,112
1,36,99,112
1,36,79,112
1,36,99,112
1,36,79,112
1,36,99,112
1,36,79,112
1,36,99,112
1,36,79,112
1,36,99,112
1,36,79,112
1,43,66,16
1,36,99,16
1,36,79,112
1,36,99,112
1,36,79,112
1,36,99,112
1,36,79,112
1,36,99,112
1,36,79,112
1,36,99,112
1,36,79,112
1,36,99,112
1,36,79,112
1,36,99,112
1,36,79,112
1,36,99,112
1,36,79,112
1,36,99,112
1,36,79,112
1,36,99,112
1,36,79,112
1,36,99,112
1,36,79,112
1,36,99,112
1,36,79,112
1,43,76,16
1,36,99,16
1,36,79,112
1,36,99,112
1,36,79,112
1,36,99,112
1,31,79,112
1,33,99,32
1,36,79,32
1,36,96,32
1,36,76,96
1,36,96,96
1,36,76,96
1,36,96,96
1,36,76,96
1,36,96,96
1,29,76,96
1,29,96,96
1,29,76,96
1,29,96,96
1,29,76,96
1,29,96,96
1,29,76,96
1,29,96,96
1,29,76,96
1,31,96,96
1,31,76,96
1,31,96,96
1,31,76,96
1,31,96,96
1,31,76,96
1,31,96,96
1,31,76,96
1,33,96,96
1,33,76,96
1,33,96,96
1,33,76,96
1,33,96,96
1,33,76,96
1,33,96,96
1,33,76,96
1,33,99,96
1,33,79,112
1,33,99,112
1,33,79,112
1,33,99,112
1,33,79,112
1,33,99,112
1,33,79,112
1,33,99,112
1,33,79,112
1,33,99,112
1,33,79,112
1,33,99,112
1,33,79,112
1,33,99,112
1,33,79,112
1,40,76,16
1,33,99,32
1,33,79,112
1,33,99,112
1,33,79,112
1,33,99,112
1,33,79,112
1,33,99,112
1,33,79,112
1,33,99,112
1,33,79,112
1,33,99,112
1,33,79,112
1,33,79,112
1,28,86,16
1,36,99,16
1,36,79,112
1,36,99,112
1,36,79,112
1,36,99,112
1,36,79,112
1,36,99,112
1,36,79,112
1,36,99,112
1,36,79,112
1,36,99,112
1,36,79,112
1,36,99,112
1,36,79,112
1,36,99,112
1,36,79,112
1,43,66,16
1,36,99,32
1,36,79,112
1,36,99,112
1,36,79,112
1,36,99,112
1,36,79,112
1,36,99,112
1,36,79,112
1,36,99,112
1,36,79,112
1,36,99,112
1,36,79,112
1,36,99,112
1,36,79,112
1,36,99,112
1,36,79,112
1,43,66,16
1,36,99,16
1,36,79,112
1,36,99,112
1,36,79,112
1,36,99,112
1,36,79,112
1,36,99,112
1,36,79,112
1,36,99,112
1,36,79,112
1,36,99,112
1,36,79,112
1,36,99,112
1,36,79,112
1,36,99,112
1,36,79,112
1,36,99,112
1,36,79,112
1,36,99,112
1,36,79,112
1,36,99,112
1,36,79,112
1,36,99,112
1,36,79,112
1,43,76,16
1,36,99,16
1,36,79,112
1,36,99,112
1,36,79,112
1,36,99,112
1,31,79,112
1,33,99,32
1,36,79,32
1,36,96,32
1,36,76,96
1,36,96,96
1,36,76,96
1,36,96,96
1,36,76,96
1,36,96,96
1,29,76,96
1,29,96,96
1,29,76,96
1,29,96,96
1,29,76,96
1,29,96,96
1,29,76,96
1,29,96,96
1,29,76,96
1,31,96,96
1,31,76,96
1,31,96,96
1,31,76,96
1,31,96,96
1,31,76,96
1,31,96,96
1,31,76,96
1,33,96,96
1,33,76,96
1,33,96,96
1,33,76,96
1,33,96,96
1,33,76,96
1,33,96,96
1,33,76,96
1,33,99,96
1,33,79,112
1,33,99,112
1,33,79,112
1,33,99,112
1,33,79,112
1,33,99,112
1,33,79,112
1,33,99,112
1,33,79,112
1,33,99,112
1,33,79,112
1,33,99,112
1,33,79,112
1,33,99,112
1,33,79,112
1,40,76,16
1,33,99,32
1,33,79,112
1,33,99,112
1,33,79,112
1,33,99,112
1,33,79,112
1,33,99,112
1,33,79,112
1,33,99,112
1,33,79,112
1,33,99,112
1,33,79,112
1,33,79,112
1,28,86,16
1,36,99,16
1,36,79,112
1,36,99,112
1,36,79,112
1,36,99,112
1,36,79,112
1,36,99,112
1,36,79,112
1,36,99,112
1,36,79,112
1,36,99,112
1,36,79,112
1,36,99,112
1,36,79,112
1,36,99,112
1,36,79,112
1,43,66,16
1,36,99,32
1,36,79,112
1,36,99,112
1,36,79,112
1,36,99,112
1,36,79,112
1,36,99,112
1,36,79,112
1,36,99,112
1,36,79,112
1,36,99,112
1,36,79,112
1,36,99,112
1,36,79,112
1,36,99,112
1,36,79,112
1,43,66,16
1,36,99,16
1,36,79,112
1,36,99,112
1,36,79,112
1,36,99,112
1,36,79,112
1,36,99,112
1,36,79,112
1,36,99,112
1,36,79,112
1,36,99,112
1,36,79,112
1,36,99,112
1,36,79,112
1,36,99,112
1,36,79,112
1,36,99,112
1,36,79,112
1,36,99,112
1,36,79,112
1,36,99,112
1,36,79,112
1,36,99,112
1,36,79,112
1,43,76,16
1,36,99,16
1,36,79,112
1,36,99,112
1,36,79,112
1,36,99,112
1,31,79,112
1,33,99,32
1,36,79,32
1,36,99,32
1,36,79,112
1,36,99,112
1,36,79,112
1,36,99,112
1,36,79,112
1,36,99,112
1,36,79,112
1,36,99,112
1,36,79,112
1,36,99,112
1,36,79,112
1,36,99,112
1,36,79,112
1,36,99,112
1,36,79,112
1,43,66,16
1,36,99,32
1,36,79,112
1,36,99,112
1,36,79,112
1,36,99,112
1,36,79,112
1,36,99,112
1,36,79,112
1,36,99,112
1,36,79,112
1,36,99,112
1,36,79,112
1,36,99,112
1,36,79,112
1,36,99,112
1,36,79,112
1,43,66,16
1,48,86,16
1,48,86,48
1,48,86,240
1,36,86,240
2,64,64,4
2,67,64,0
2,72,64,0
2,64,64,32
2,67,64,0
2,72,64,0
2,64,64,0
2,69,64,0
2,72,64,0
2,71,64,8
2,64,64,0
2,67,64,0
2,65,64,4
2,69,64,0
2,72,64,0
2,65,64,0
2,69,64,0
2,72,64,0
2,64,64,8
2,67,64,0
2,72,64,0
2,64,64,4
2,67,64,0
2,72,64,0
2,64,64,32
2,67,64,0
2,72,64,0
2,64,64,0
2,69,64,0
2,72,64,0
2,71,64,8
2,64,64,0
2,67,64,0
2,65,64,4
2,69,64,0
2,72,64,0
2,65,64,0
2,69,64,0
2,72,64,0
2,64,64,8
2,67,64,0
2,72,64,0
2,64,64,4
2,67,64,0
2,72,64,0
2,64,64,32
2,67,64,0
2,72,64,0
2,64,64,0
2,69,64,0
2,72,64,0
2,71,64,8
2,64,64,0
2,67,64,0
