track,note,velocity,time
1,54,72,1918
1,50,64,4
1,54,0,462
1,50,0,2
1,54,60,4
1,50,61,2
1,54,0,70
1,50,0,8
1,50,60,108
1,55,67,2
1,55,0,528
1,50,0,4
1,55,76,44
1,50,62,0
1,50,0,118
1,55,0,0
1,53,71,78
1,48,67,2
1,48,0,336
1,53,0,8
1,52,63,38
1,48,64,2
1,48,0,314
1,52,0,6
1,50,74,60
1,45,70,4
1,45,0,668
1,50,0,16
1,50,62,96
1,54,66,2
1,50,0,530
1,54,0,2
1,54,78,20
1,50,52,2
1,54,0,66
1,50,0,8
1,55,78,112
1,50,61,0
1,55,0,544
1,50,0,2
1,50,60,38
1,55,74,2
1,50,0,94
1,55,0,2
1,48,70,86
1,53,79,0
1,48,0,342
1,53,0,2
1,52,74,44
1,48,63,2
1,48,0,326
1,52,0,6
1,50,82,52
1,45,64,4
1,45,0,654
1,50,0,20
1,50,64,196
1,54,72,2
1,50,0,466
1,54,0,2
1,54,60,4
1,50,61,2
1,54,0,70
1,50,0,8
1,50,60,108
1,55,67,4
1,55,0,526
1,50,0,4
1,55,76,44
1,50,62,0
1,50,0,118
1,55,0,0
1,53,71,78
1,48,67,2
1,48,0,336
1,53,0,8
1,52,63,38
1,48,64,2
1,48,0,314
1,52,0,6
1,50,74,58
1,45,70,4
1,45,0,670
1,50,0,16
1,50,62,94
1,54,66,4
1,50,0,530
1,54,0,2
1,54,78,20
1,50,52,0
1,54,0,68
1,50,0,8
1,50,61,112
1,55,78,0
1,55,0,544
1,50,0,2
1,50,60,38
1,55,74,0
1,50,0,94
1,55,0,4
1,48,70,86
1,53,79,0
1,48,0,344
1,53,0,2
1,52,74,42
1,48,63,2
1,48,0,328
1,52,0,4
1,50,82,52
1,45,64,4
1,45,0,654
1,50,0,20
1,48,83,78
1,55,81,2
1,55,0,18
1,48,0,0
1,48,68,26
1,55,75,2
1,55,0,22
1,48,0,0
1,55,62,28
1,48,72,4
1,48,0,608
1,55,0,36
1,50,85,26
1,57,85,2
1,50,0,532
1,57,0,10
1,50,42,44
1,57,43,0
1,50,0,30
1,57,0,4
1,57,32,60
1,50,32,2
1,50,0,22
1,57,0,2
1,50,64,62
1,57,50,4
1,57,0,24
1,50,0,8
1,48,85,62
1,55,88,0
1,48,0,618
1,55,0,4
1,50,88,44
1,57,83,2
1,50,0,374
1,57,0,6
1,60,90,86
1,53,95,2
1,53,0,60
1,60,0,8
1,60,70,26
1,55,90,6
1,55,0,42
1,60,0,4
1,48,79,148
1,55,92,0
1,55,0,718
1,48,0,6
1,50,85,58
1,57,88,2
1,57,0,426
1,50,0,18
1,57,70,14
1,50,64,2
1,50,0,44
1,57,0,0
1,55,92,54
1,48,75,0
1,48,0,38
1,55,0,0
1,53,85,146
1,46,88,6
1,46,0,762
1,53,0,12
1,45,88,96
1,52,83,4
1,45,0,30
1,52,0,2
1,52,85,56
1,45,77,2
1,45,0,36
1,52,0,0
1,52,97,60
1,45,90,4
1,45,0,44
1,52,0,10
1,36,105,228
1,48,102,2
1,48,0,2
1,36,0,6
1,57,81,10
1,50,92,0
1,50,0,188
1,57,0,0
1,57,72,0
1,50,75,0
1,57,0,56
1,50,0,12
1,48,70,148
1,55,88,0
1,48,0,46
1,55,0,4
1,48,68,24
1,55,90,2
1,55,0,118
1,48,0,6
1,57,85,78
1,50,79,2
1,57,0,268
1,50,0,10
1,57,77,0
1,50,90,2
1,57,0,138
1,50,0,20
1,55,79,38
1,48,75,2
1,48,0,42
1,55,0,8
1,55,88,38
1,48,66,2
1,55,0,120
1,48,0,4
1,50,85,56
1,57,85,2
1,57,0,228
1,50,0,18
1,50,83,38
1,57,81,0
1,57,0,138
1,50,0,20
1,55,79,48
1,48,68,2
1,48,0,38
1,55,0,4
1,55,83,50
1,48,72,0
1,55,0,112
1,48,0,14
1,53,90,72
1,46,85,8
1,53,0,252
1,46,0,6
1,53,85,10
1,46,77,0
1,46,0,160
1,53,0,6
1,48,70,40
1,55,85,6
1,55,0,38
1,48,0,0
1,48,75,52
1,55,83,2
1,55,0,124
1,48,0,4
1,50,79,50
1,57,88,4
1,57,0,252
1,50,0,8
1,57,77,28
1,50,81,2
1,57,0,142
1,50,0,12
1,55,81,46
1,48,70,2
1,48,0,34
1,55,0,2
1,48,75,56
1,55,88,2
1,55,0,118
1,48,0,4
1,57,90,46
1,50,81,0
1,57,0,252
1,50,0,8
1,57,79,34
1,50,81,2
1,57,0,150
1,50,0,16
1,55,90,40
1,48,68,2
1,48,0,32
1,55,0,10
1,55,90,50
1,48,70,2
1,48,0,122
1,55,0,2
1,57,92,46
1,50,72,2
1,52,79,4
1,52,0,70
1,57,0,170
1,50,0,12
1,57,77,32
1,50,72,2
1,57,0,138
1,50,0,10
1,55,90,52
1,48,70,4
1,48,0,36
1,55,0,2
1,55,90,48
1,48,68,2
1,55,0,124
1,48,0,6
1,53,90,58
1,46,88,4
1,53,0,254
1,46,0,2
1,46,77,32
1,53,90,2
1,53,0,140
1,46,0,2
1,48,77,58
1,55,83,2
1,55,0,42
1,48,0,4
1,48,72,48
1,55,88,0
1,55,0,234
1,48,0,0
1,54,100,48
1,50,97,2
1,50,0,428
1,54,0,10
1,54,96,34
1,50,94,2
1,50,0,38
1,54,0,0
1,50,73,164
1,55,90,0
1,55,0,542
1,50,0,4
1,50,72,38
1,55,86,2
1,50,0,94
1,55,0,2
1,53,91,88
1,48,82,0
1,48,0,340
1,53,0,2
1,52,86,44
1,48,75,2
1,48,0,326
1,52,0,6
1,50,94,52
1,45,76,4
1,45,0,654
1,50,0,16
1,54,72,180
1,54,0,466
1,54,60,28
1,50,61,2
1,54,0,70
1,50,0,8
1,50,60,108
1,55,67,4
1,55,0,526
1,50,0,4
1,50,62,44
1,55,76,0
1,55,0,118
1,50,0,0
1,53,71,78
1,48,67,2
1,48,0,336
1,53,0,8
1,52,63,38
1,48,64,2
1,48,0,314
1,52,0,6
1,50,74,58
1,45,70,4
1,45,0,668
1,50,0,18
1,50,62,70
1,54,66,4
1,50,0,530
1,54,0,2
1,54,78,44
1,50,52,2
1,54,0,66
1,50,0,8
1,50,61,112
1,55,78,0
1,55,0,544
1,50,0,2
1,55,74,38
1,50,60,0
1,50,0,94
1,55,0,4
1,48,70,86
1,53,79,0
1,48,0,344
1,53,0,2
1,52,74,42
1,48,63,2
1,48,0,328
1,52,0,4
1,50,82,52
1,45,64,4
1,45,0,654
1,50,0,20
1,48,83,78
1,55,81,2
1,55,0,18
1,48,0,0
1,48,68,26
1,55,75,2
1,55,0,22
1,48,0,0
1,55,62,28
1,48,72,4
1,48,0,608
1,55,0,36
1,50,85,24
1,57,85,2
1,50,0,534
1,57,0,10
1,57,43,42
1,50,42,2
1,50,0,30
1,57,0,4
1,57,32,60
1,50,32,2
1,50,0,22
1,57,0,2
1,50,64,64
1,57,50,2
1,57,0,24
1,50,0,8
1,55,88,64
1,48,85,0
1,48,0,616
1,55,0,4
1,57,83,44
1,50,88,0
1,50,0,376
1,57,0,6
1,60,90,86
1,53,95,2
1,53,0,60
1,60,0,8
1,60,70,26
1,55,90,6
1,55,0,42
1,60,0,4
1,55,92,148
1,48,79,0
1,55,0,718
1,48,0,6
1,50,85,34
1,57,88,2
1,57,0,426
1,50,0,18
1,57,70,38
1,50,64,2
1,50,0,44
1,57,0,0
1,55,92,54
1,48,75,2
1,48,0,36
1,55,0,0
1,53,85,146
1,46,88,4
1,46,0,764
1,53,0,12
1,45,88,98
1,52,83,4
1,45,0,28
1,52,0,2
1,45,77,58
1,52,85,0
1,52,0,36
1,45,0,0
1,52,97,60
1,45,90,4
1,45,0,44
1,52,0,10
1,36,105,230
1,48,102,2
1,48,0,2
1,36,0,6
1,50,92,10
1,50,0,188
1,57,72,0
1,50,75,0
1,50,0,68
1,57,0,54
1,48,70,70
1,55,88,0
1,48,0,46
1,55,0,4
1,48,68,46
1,55,90,2
1,55,0,120
1,48,0,6
1,50,79,56
1,57,85,0
1,57,0,268
1,50,0,10
1,57,77,24
1,50,90,2
1,57,0,138
1,50,0,20
1,55,79,38
1,48,75,2
1,48,0,42
1,55,0,8
1,55,88,38
1,48,66,2
1,55,0,120
1,48,0,4
1,50,85,56
1,57,85,6
1,57,0,224
1,50,0,18
1,57,81,38
1,50,83,0
1,57,0,138
1,50,0,20
1,55,79,48
1,48,68,2
1,48,0,38
1,55,0,4
1,48,72,50
1,55,83,0
1,55,0,112
1,48,0,14
1,53,90,48
1,46,85,8
1,53,0,252
1,46,0,6
1,53,85,34
1,46,77,0
1,46,0,158
1,53,0,8
1,48,70,38
1,55,85,8
1,55,0,38
1,48,0,0
1,48,75,52
1,55,83,0
1,55,0,126
1,48,0,4
1,50,79,50
1,57,88,2
1,57,0,254
1,50,0,8
1,57,77,26
1,50,81,2
1,57,0,144
1,50,0,12
1,55,81,46
1,48,70,2
1,48,0,36
1,55,0,0
1,48,75,56
1,55,88,2
1,55,0,118
1,48,0,4
1,57,90,46
1,50,81,0
1,57,0,252
1,50,0,10
1,57,79,32
1,50,81,4
1,57,0,148
1,50,0,16
1,48,68,40
1,55,90,0
1,48,0,36
1,55,0,8
1,55,90,50
1,48,70,2
1,48,0,122
1,55,0,2
1,57,92,46
1,50,72,2
1,52,79,4
1,52,0,70
1,57,0,170
1,50,0,12
1,57,77,32
1,50,72,4
1,57,0,136
1,50,0,10
1,55,90,52
1,48,70,4
1,48,0,36
1,55,0,2
1,55,90,54
1,48,68,2
1,55,0,118
1,48,0,6
1,53,90,58
1,46,88,4
1,53,0,254
1,46,0,2
1,46,77,32
1,53,90,2
1,53,0,140
1,46,0,2
1,48,77,58
1,55,83,2
1,55,0,42
1,48,0,4
1,55,88,48
1,48,72,2
1,55,0,230
1,48,0,2
1,46,83,52
1,53,85,2
1,46,0,680
1,53,0,10
1,48,83,78
1,55,74,0
1,55,0,648
1,48,0,2
1,46,85,106
1,53,90,0
1,46,0,698
1,53,0,10
1,55,88,76
1,48,83,2
1,48,0,674
1,55,0,6
1,54,72,76
1,54,0,468
1,54,60,28
1,50,61,0
1,54,0,72
1,50,0,8
1,50,60,108
1,55,67,4
1,55,0,524
1,50,0,6
1,50,62,44
1,55,76,0
1,50,0,118
1,55,0,2
1,53,71,76
1,48,67,2
1,48,0,336
1,53,0,6
1,52,63,40
1,48,64,2
1,48,0,314
1,52,0,8
1,50,74,58
1,45,70,2
1,45,0,668
1,50,0,18
1,50,62,70
1,54,66,4
1,54,0,86
1,54,72,0
1,50,0,444
1,54,0,2
1,54,60,50
1,50,61,2
1,54,0,68
1,50,0,10
1,50,60,108
1,55,67,4
1,55,0,524
1,50,0,6
1,50,62,44
1,55,76,0
1,55,0,118
1,50,0,0
1,53,71,78
1,48,67,2
1,48,0,336
1,53,0,8
1,52,63,38
1,48,64,2
1,48,0,314
1,52,0,6
1,50,74,58
1,45,70,4
1,45,0,670
1,50,0,16
1,50,62,70
1,54,66,4
1,50,0,530
1,54,0,2
1,50,52,44
1,54,78,0
1,54,0,68
1,50,0,8
1,55,78,112
1,50,61,0
1,55,0,544
1,50,0,2
1,55,74,38
1,50,60,0
1,50,0,94
1,55,0,4
1,53,79,86
1,48,70,0
1,48,0,344
1,53,0,2
1,52,74,42
1,48,63,2
1,48,0,328
1,52,0,4
1,50,82,52
1,45,64,4
1,45,0,656
1,50,0,18
1,48,83,78
1,55,81,2
1,55,0,18
1,48,0,0
1,48,68,26
1,55,75,2
1,55,0,22
1,48,0,0
1,55,62,30
1,48,72,2
1,48,0,608
1,55,0,38
1,50,85,22
1,57,85,4
1,50,0,534
1,57,0,8
1,50,42,44
1,57,43,0
1,50,0,30
1,57,0,4
1,57,32,60
1,50,32,2
1,50,0,22
1,57,0,0
1,50,64,64
1,57,50,4
1,57,0,24
1,50,0,8
1,55,88,62
1,48,85,2
1,48,0,616
1,55,0,4
1,50,88,44
1,57,83,2
1,50,0,374
1,57,0,6
1,60,90,86
1,53,95,2
1,53,0,60
1,60,0,8
1,60,70,26
1,55,90,6
1,55,0,42
1,60,0,4
1,48,79,148
1,55,92,2
1,55,0,718
1,48,0,2
1,50,85,36
1,57,88,2
1,57,0,426
1,50,0,18
1,57,70,32
1,50,64,6
1,50,0,46
1,57,0,0
1,55,92,54
1,48,75,0
1,55,0,36
1,48,0,2
1,53,85,146
1,46,88,6
1,46,0,762
1,53,0,12
1,45,88,96
1,52,83,6
1,52,0,30
1,45,0,0
1,45,77,58
1,52,85,0
1,52,0,36
1,45,0,0
1,52,97,62
1,45,90,2
1,45,0,44
1,52,0,10
1,48,102,230
1,36,105,0
1,48,0,2
1,36,0,6
1,50,92,10
1,50,0,188
1,57,72,0
1,50,75,0
1,50,0,68
1,57,0,54
1,48,70,68
1,55,88,2
1,48,0,46
1,55,0,4
1,48,68,48
1,55,90,2
1,55,0,116
1,48,0,8
1,57,85,54
1,50,79,2
1,57,0,268
1,50,0,10
1,57,77,24
1,50,90,2
1,57,0,138
1,50,0,20
1,55,79,38
1,48,75,2
1,48,0,42
1,55,0,8
1,55,88,38
1,48,66,2
1,55,0,120
1,48,0,4
1,50,85,56
1,57,85,4
1,57,0,226
1,50,0,18
1,57,81,38
1,50,83,0
1,57,0,138
1,50,0,20
1,55,79,48
1,48,68,2
1,48,0,38
1,55,0,4
1,48,72,50
1,55,83,0
1,55,0,112
1,48,0,14
1,53,90,48
1,46,85,6
1,53,0,254
1,46,0,6
1,46,77,34
1,53,85,2
1,46,0,158
1,53,0,6
1,48,70,40
1,55,85,6
1,55,0,38
1,48,0,0
1,48,75,52
1,55,83,2
1,55,0,124
1,48,0,4
1,50,79,50
1,57,88,2
1,57,0,254
1,50,0,10
1,57,77,26
1,50,81,2
1,57,0,142
1,50,0,12
1,55,81,46
1,48,70,2
1,48,0,36
1,55,0,2
1,48,75,52
1,55,88,4
1,55,0,118
1,48,0,4
1,57,90,46
1,50,81,0
1,57,0,252
1,50,0,10
1,57,79,32
1,50,81,2
1,57,0,150
1,50,0,16
1,55,90,40
1,48,68,2
1,48,0,34
1,55,0,8
1,55,90,50
1,48,70,2
1,48,0,122
1,55,0,2
1,57,92,46
1,50,72,2
1,52,79,4
1,52,0,70
1,57,0,170
1,50,0,12
1,57,77,32
1,50,72,2
1,57,0,138
1,50,0,10
1,55,90,52
1,48,70,4
1,48,0,36
1,55,0,2
1,55,90,54
1,48,68,2
1,55,0,118
1,48,0,6
1,53,90,58
1,46,88,4
1,53,0,254
1,46,0,2
1,46,77,32
1,53,90,2
1,53,0,140
1,46,0,2
1,48,77,58
1,55,83,2
1,55,0,42
1,48,0,4
1,55,88,48
1,48,72,0
1,55,0,232
1,48,0,2
1,50,92,50
1,57,72,186
1,50,0,2
1,50,75,0
1,50,0,66
1,57,0,54
1,48,70,68
1,55,88,2
1,48,0,46
1,55,0,2
1,48,68,50
1,55,90,0
1,55,0,120
1,48,0,4
1,57,85,56
1,50,79,2
1,57,0,268
1,50,0,10
1,57,77,24
1,50,90,2
1,57,0,138
1,50,0,20
1,55,79,38
1,48,75,4
1,48,0,40
1,55,0,8
1,55,88,38
1,48,66,2
1,55,0,120
1,48,0,4
1,50,85,56
1,57,85,2
1,57,0,228
1,50,0,18
1,57,81,36
1,50,83,2
1,57,0,138
1,50,0,20
1,55,79,46
1,48,68,4
1,48,0,38
1,55,0,4
1,55,83,50
1,48,72,0
1,55,0,112
1,48,0,12
1,53,90,50
1,46,85,8
1,53,0,252
1,46,0,6
1,46,77,34
1,53,85,2
1,46,0,158
1,53,0,6
1,48,70,40
1,55,85,6
1,55,0,38
1,48,0,0
1,48,75,52
1,55,83,2
1,55,0,124
1,48,0,2
1,50,79,52
1,57,88,2
1,57,0,254
1,50,0,10
1,57,77,24
1,50,81,4
1,57,0,142
1,50,0,12
1,55,81,46
1,48,70,2
1,48,0,36
1,55,0,2
1,55,88,54
1,48,75,0
1,55,0,120
1,48,0,4
1,57,90,44
1,50,81,2
