track,note,velocity,time
0,48,119,577
0,48,0,98
0,48,114,46
0,48,0,25
0,48,119,23
0,48,0,103
0,60,106,92
0,60,100,0
0,64,112,0
0,64,108,0
0,60,0,91
0,60,0,0
0,64,0,0
0,64,0,0
0,64,110,109
0,64,107,0
0,60,108,1
0,60,102,0
0,64,0,105
0,64,0,0
0,60,0,2
0,60,0,0
0,48,117,73
0,48,0,98
0,48,113,46
0,48,0,25
0,48,116,23
0,48,0,107
0,60,107,75
0,60,96,0
0,64,109,1
0,64,109,0
0,64,0,73
0,64,0,0
0,60,0,3
0,60,0,0
0,60,94,28
0,60,81,0
0,64,110,0
0,64,105,0
0,60,0,74
0,60,0,0
0,64,0,3
0,64,0,0
0,60,110,29
0,60,104,0
0,64,110,0
0,64,108,0
0,60,0,112
0,60,0,0
0,64,0,4
0,64,0,0
0,48,122,67
0,60,112,0
0,48,0,81
0,60,0,0
0,48,100,16
0,60,99,0
0,48,0,28
0,60,0,0
0,48,116,16
0,60,111,0
0,48,0,77
0,60,0,0
0,48,84,22
0,60,92,0
0,48,0,26
0,60,0,0
0,48,99,16
0,60,103,0
0,48,0,27
0,60,0,0
0,48,126,14
0,60,114,0
0,48,0,28
0,60,0,0
0,48,124,21
0,60,112,0
0,48,0,35
0,60,0,0
0,48,106,18
0,60,102,0
0,48,0,13
0,60,0,0
0,48,76,37
0,60,92,0
0,48,0,10
0,60,0,0
0,48,105,30
0,60,105,0
0,48,0,24
0,60,0,0
0,48,126,21
0,60,115,0
0,48,0,86
0,60,0,0
0,48,108,14
0,60,109,0
0,48,0,58
0,60,0,0
0,41,124,56
0,53,113,0
0,41,0,81
0,53,0,0
0,41,100,16
0,53,105,0
0,41,0,28
0,53,0,0
0,41,117,16
0,53,109,0
0,41,0,77
0,53,0,0
0,41,94,22
0,53,99,0
0,41,0,26
0,53,0,0
0,41,102,16
0,53,100,0
0,41,0,27
0,53,0,0
0,41,123,14
0,53,111,0
0,41,0,28
0,53,0,0
0,43,125,20
0,55,114,0
0,43,0,35
0,55,0,0
0,43,103,18
0,55,101,0
0,43,0,13
0,55,0,0
0,43,77,37
0,55,87,0
0,43,0,10
0,55,0,0
0,43,110,30
0,55,105,0
0,43,0,24
0,55,0,0
0,43,120,21
0,55,115,0
0,43,0,42
0,55,0,0
0,36,110,161
0,36,103,0
0,48,127,0
0,48,125,0
0,55,127,0
0,60,115,0
0,60,105,0
0,64,113,0
0,64,125,0
0,67,105,0
0,67,102,0
0,67,113,0
0,72,125,0
0,36,0,4
0,52,126,7
0,60,127,3
0,64,125,1
0,48,0,66
0,60,0,0
0,64,0,0
0,48,0,12
0,55,0,1
0,72,0,0
0,60,0,1
0,36,106,1
0,39,102,0
0,40,107,0
0,48,110,0
0,54,93,0
0,48,100,1
0,60,103,0
0,64,103,0
0,67,0,0
0,64,0,2
0,39,0,1
0,40,0,0
0,54,0,0
0,52,0,4
0,52,125,3
0,60,0,1
0,55,125,1
0,64,0,0
0,60,127,2
0,64,127,2
0,72,127,1
0,48,0,11
0,60,0,0
0,64,0,0
0,36,0,4
0,36,0,7
0,48,0,1
0,48,118,4
0,60,113,0
0,64,108,0
0,60,93,3
0,64,108,0
0,67,113,0
0,52,0,10
0,52,126,6
0,48,105,4
0,67,0,2
0,64,0,1
0,60,0,1
0,36,115,24
0,36,96,0
0,48,0,0
0,60,75,0
0,64,97,0
0,67,88,0
0,36,0,4
0,48,127,0
0,55,0,3
0,55,115,3
0,60,0,0
0,60,71,2
0,48,0,14
0,60,0,0
0,64,0,0
0,64,0,7
0,67,0,0
0,60,0,2
0,72,0,8
0,36,108,3
0,48,83,0
0,48,117,0
0,60,91,0
0,64,97,0
0,64,0,4
0,72,125,2
0,60,0,1
0,64,127,1
0,55,0,2
0,52,0,1
0,60,127,0
0,55,125,2
0,48,0,1
0,48,127,2
0,52,124,0
0,48,0,9
0,60,0,0
0,64,0,0
0,36,0,7
0,48,0,2
0,48,96,7
0,60,98,0
0,64,103,0
0,48,0,2
0,67,0,2
0,67,0,0
0,39,102,2
0,40,106,0
0,52,0,0
0,54,95,0
0,60,113,0
0,64,121,0
0,67,121,0
0,72,106,0
0,72,93,0
0,48,81,1
0,55,0,1
0,52,124,1
0,39,0,1
0,40,0,0
0,54,0,0
0,60,0,0
0,55,125,2
0,64,0,0
0,60,127,1
0,64,127,2
0,72,0,0
0,72,111,2
0,48,0,10
0,60,0,0
0,64,0,0
0,36,0,14
0,48,124,0
0,60,112,0
0,64,114,0
0,55,0,18
0,52,0,1
0,55,127,2
0,48,0,6
0,48,0,1
0,60,0,0
0,64,0,0
0,52,127,1
0,48,127,4
0,64,0,3
0,67,0,1
0,60,0,1
0,48,125,11
0,60,112,0
0,64,115,0
0,33,108,12
0,36,96,0
0,60,99,0
0,64,121,0
0,69,119,0
0,48,0,2
0,36,0,2
0,52,0,1
0,45,126,1
0,55,0,1
0,52,114,1
0,60,0,0
0,57,109,2
0,60,127,1
0,48,0,12
0,60,0,0
0,64,0,0
0,48,101,18
0,60,106,0
0,64,103,0
0,48,0,13
0,60,0,0
0,64,0,0
0,69,0,22
0,64,0,1
0,60,0,4
0,48,73,10
0,60,86,0
0,64,92,0
0,33,96,5
0,39,88,0
0,40,87,0
0,45,0,0
0,45,105,0
0,54,80,0
0,60,100,0
0,64,116,0
0,69,121,0
0,52,0,3
0,39,0,1
0,40,0,0
0,45,124,0
0,54,0,0
0,48,0,1
0,52,127,0
0,57,0,0
0,60,0,0
0,64,0,0
0,60,0,1
0,57,119,1
0,64,0,1
0,60,127,1
0,72,0,1
0,33,0,1
0,64,126,0
0,69,81,1
0,60,0,10
0,64,0,0
0,69,0,0
0,33,0,10
0,48,109,3
0,60,107,0
0,64,107,0
0,45,0,7
0,69,0,4
0,64,0,4
0,69,126,1
0,60,0,1
0,64,127,2
0,57,0,1
0,60,124,1
0,52,0,1
0,57,124,1
0,45,0,1
0,48,0,0
0,60,0,0
0,64,0,0
0,52,127,2
0,45,125,3
0,48,124,16
0,60,110,0
0,64,114,0
0,45,0,13
0,33,109,3
0,36,90,0
0,60,94,0
0,64,108,0
0,69,110,0
0,45,117,1
0,57,0,2
0,36,0,1
0,60,0,0
0,57,112,2
0,60,127,2
0,69,0,34
0,60,0,7
0,64,0,1
0,64,0,0
0,69,0,0
0,69,127,2
0,60,0,1
0,64,127,2
0,57,0,1
0,52,0,2
0,60,126,0
0,57,125,2
0,45,0,1
0,52,127,2
0,45,127,2
0,48,0,5
0,60,0,0
0,64,0,0
0,48,109,14
0,60,108,0
0,64,107,0
0,45,0,2
0,52,0,5
0,45,115,1
0,57,0,0
0,60,0,0
0,64,0,0
0,69,0,0
0,52,112,2
0,57,126,0
0,60,127,0
0,64,127,0
0,69,127,0
0,33,101,2
0,39,102,0
0,40,100,0
0,45,87,0
0,54,88,0
0,60,93,0
0,64,107,0
0,69,113,0
0,39,0,4
0,40,0,0
0,54,0,0
0,33,0,13
0,33,0,16
0,45,0,8
0,48,0,5
0,60,0,0
0,64,0,0
0,60,0,3
0,64,0,1
0,69,0,0
0,45,0,3
0,45,94,3
0,72,0,38
0,72,0,0
0,29,108,2
0,36,91,0
0,60,115,0
0,60,107,0
0,65,112,0
0,65,121,0
0,69,112,0
0,76,105,0
0,76,91,0
0,45,0,2
0,36,0,2
0,52,0,0
0,41,123,2
0,48,127,0
0,53,127,0
0,53,116,0
0,57,0,1
0,60,0,1
0,57,79,1
0,60,108,2
0,60,0,70
0,65,0,0
0,41,0,6
0,53,0,0
0,60,0,8
0,29,103,1
0,39,100,0
0,40,94,0
0,41,110,0
0,54,89,0
0,60,100,1
0,65,102,0
0,69,0,0
0,48,0,2
0,65,0,0
0,39,0,1
0,40,0,0
0,54,0,0
0,48,125,2
0,41,97,1
0,53,105,0
0,57,0,0
0,60,0,1
0,57,125,2
0,64,0,0
0,69,0,0
0,60,107,2
0,65,120,0
0,69,82,0
0,29,0,12
0,60,0,5
0,65,0,0
0,41,0,6
0,53,0,0
0,29,0,5
0,41,0,1
0,60,114,4
0,65,112,0
0,60,89,3
0,65,108,0
0,69,109,0
0,41,122,3
0,53,108,0
0,65,0,1
0,60,0,3
0,65,127,1
0,57,0,5
0,60,127,1
0,53,0,3
0,57,127,2
0,69,0,3
0,65,0,1
0,60,0,1
0,48,0,2
0,53,127,2
0,48,37,13
0,53,0,4
0,29,106,3
0,36,78,0
0,60,71,0
0,65,91,0
0,69,88,0
0,36,0,4
0,53,64,2
0,60,0,2
0,60,127,3
0,60,0,15
0,65,0,0
0,41,0,6
0,53,0,0
0,65,0,3
0,69,0,0
0,60,0,2
0,69,0,9
0,29,109,2
0,41,115,0
0,60,94,0
0,65,98,0
0,41,89,6
0,53,95,0
0,65,0,1
0,69,127,2
0,60,0,1
0,65,124,2
0,57,0,2
0,60,127,1
0,53,0,1
0,57,126,2
0,48,0,1
0,53,127,1
0,48,127,2
0,60,0,4
0,65,0,0
0,41,0,6
0,53,0,0
0,29,0,1
0,41,0,2
0,60,106,7
0,65,101,0
0,39,103,6
0,40,99,0
0,41,102,0
0,48,0,0
0,53,102,0
0,54,94,0
0,60,112,0
0,65,125,0
0,69,118,0
0,39,0,4
0,40,0,0
0,53,0,0
0,54,0,0
0,48,119,2
0,57,0,0
0,53,127,1
0,60,0,1
0,57,127,1
0,65,0,1
0,60,124,1
0,69,0,0
0,65,127,2
0,69,110,0
0,60,0,8
0,65,0,0
0,41,0,6
0,53,0,0
0,29,0,6
0,60,112,2
0,65,116,0
0,41,120,6
0,53,113,0
0,60,0,16
0,57,0,6
0,60,0,0
0,65,0,0
0,60,123,1
0,53,0,1
0,57,127,2
0,48,0,1
0,41,0,1
0,53,127,0
0,53,0,0
0,65,0,2
0,48,125,1
0,69,0,0
0,60,0,1
0,62,116,10
0,43,120,6
0,55,116,0
0,48,0,5
0,65,0,0
0,69,0,0
0,31,120,2
0,36,89,0
0,59,124,0
0,62,99,0
0,67,121,0
0,36,0,4
0,53,0,9
0,57,0,2
0,50,127,1
0,60,0,0
0,55,106,1
0,59,127,2
0,62,0,3
0,43,0,6
0,55,0,0
0,62,104,12
0,43,100,6
0,55,103,0
0,62,0,7
0,43,0,6
0,55,0,0
0,59,0,17
0,67,0,1
0,62,0,4
0,62,90,9
0,76,0,4
0,76,0,0
0,31,94,2
0,39,101,0
0,40,98,0
0,43,72,0
0,43,94,0
0,54,90,0
0,55,90,0
0,59,90,0
0,62,89,0
0,67,88,0
0,72,107,0
0,72,101,0
0,39,0,4
0,40,0,0
0,54,0,0
0,62,0,0
0,43,0,6
0,55,0,0
0,50,0,4
0,31,0,2
0,50,124,1
0,59,0,0
0,59,127,3
0,62,0,0
0,67,94,1
0,67,0,1
0,71,70,0
0,59,0,1
0,31,0,9
0,62,106,2
0,43,106,6
0,55,104,0
0,43,0,2
0,62,0,16
0,67,0,1
0,59,0,4
0,43,0,1
0,55,0,0
0,67,124,0
0,55,0,3
0,59,125,2
0,50,0,2
0,55,127,2
0,50,127,6
0,62,111,0
0,43,120,6
0,55,114,0
0,31,115,11
0,36,92,0
0,59,110,0
0,62,96,0
0,67,105,0
0,36,0,4
0,59,0,9
0,59,127,2
0,62,0,10
0,43,0,6
0,55,0,0
0,71,0,16
0,31,104,1
0,43,89,0
0,62,0,1
0,59,0,1
0,67,0,0
0,67,0,7
0,71,126,2
0,59,0,1
0,67,127,2
0,31,0,2
0,40,105,0
0,55,0,0
0,59,126,1
0,50,0,1
0,55,124,1
0,40,0,1
0,50,126,2
0,31,0,11
0,43,0,8
0,35,111,7
0,39,117,0
0,40,120,0
0,54,113,0
0,59,92,0
0,62,86,0
0,67,90,0
0,50,0,1
0,50,116,2
0,55,0,0
0,39,0,1
0,40,0,0
0,54,0,0
0,59,0,0
0,55,125,1
0,67,0,1
0,59,126,1
0,71,0,1
0,67,127,1
0,71,125,2
0,59,0,50
0,67,0,1
0,62,0,3
0,35,0,17
0,72,0,2
0,72,0,0
0,55,0,11
0,36,110,1
0,36,107,0
0,48,127,0
0,48,125,0
0,55,125,0
0,60,113,0
0,60,108,0
0,64,113,0
0,64,119,0
0,67,111,0
0,72,126,0
0,36,0,4
0,55,0,3
0,59,0,1
0,52,127,3
0,60,124,3
0,64,124,1
0,48,0,66
0,60,0,0
0,64,0,0
0,48,0,12
0,72,0,1
0,60,0,1
0,36,110,1
0,39,107,0
0,40,102,0
0,48,109,0
0,54,93,0
0,76,100,0
0,76,93,0
0,48,99,1
0,60,101,0
0,64,100,0
0,67,0,0
0,64,0,2
0,39,0,1
0,40,0,0
0,54,0,0
0,52,0,4
0,52,127,3
0,60,0,1
0,55,126,1
0,64,0,0
0,60,127,2
0,64,126,2
0,72,125,1
0,48,0,11
0,60,0,0
0,64,0,0
0,36,0,4
0,36,0,7
0,48,0,1
0,48,119,4
0,60,113,0
0,64,112,0
0,71,0,2
0,60,88,1
0,64,108,0
0,67,108,0
0,67,0,1
0,50,0,9
0,52,0,0
0,52,122,6
0,48,103,4
0,67,0,2
0,64,0,1
0,60,0,1
0,36,117,24
0,36,91,0
0,48,0,0
0,60,74,0
0,64,96,0
0,67,93,0
0,36,0,4
0,48,124,0
0,55,0,3
0,55,114,3
0,60,0,0
0,60,73,2
0,48,0,14
0,60,0,0
0,64,0,0
0,64,0,9
0,67,0,0
0,60,0,2
0,72,0,8
0,36,106,3
0,48,83,0
0,48,112,0
0,60,94,0
0,64,97,0
0,64,0,4
0,72,127,2
0,60,0,1
0,64,124,2
0,55,0,2
0,52,0,1
0,60,127,0
0,55,126,2
0,48,0,1
0,48,127,2
0,52,127,0
0,48,0,9
0,60,0,0
0,64,0,0
0,36,0,7
0,48,0,2
0,48,98,7
0,60,102,0
0,64,98,0
0,48,0,2
0,76,0,2
0,76,0,0
0,39,106,2
0,40,106,0
0,52,0,0
0,54,96,0
0,60,113,0
0,64,120,0
0,67,118,0
0,74,106,0
0,74,94,0
0,48,84,1
0,55,0,1
0,52,127,1
0,39,0,1
0,40,0,0
0,54,0,0
0,60,0,0
0,55,127,2
0,64,0,0
0,60,126,1
0,64,126,2
0,72,0,0
0,72,114,2
0,48,0,10
0,60,0,0
0,64,0,0
0,36,0,14
0,48,126,0
0,60,112,0
0,64,116,0
0,55,0,18
0,52,0,1
0,55,125,2
0,48,0,6
0,48,0,1
0,60,0,0
0,64,0,0
0,52,126,1
0,48,125,4
0,64,0,3
0,67,0,1
0,60,0,1
0,48,120,11
0,60,111,0
0,64,116,0
0,33,108,12
0,36,94,0
0,60,101,0
0,64,118,0
0,69,123,0
0,72,106,0
0,72,95,0
0,48,0,2
0,36,0,2
0,52,0,1
0,45,127,1
0,55,0,1
0,74,0,0
0,74,0,0
0,52,109,1
0,60,0,0
0,57,109,2
0,60,125,1
0,48,0,12
0,60,0,0
0,64,0,0
0,48,106,18
0,60,106,0
0,64,104,0
0,48,0,13
0,60,0,0
0,64,0,0
0,69,0,22
0,64,0,1
0,60,0,4
0,48,76,10
0,60,86,0
0,64,88,0
0,33,95,5
0,39,86,0
0,40,91,0
0,45,0,0
0,45,104,0
0,54,81,0
0,60,105,0
0,64,115,0
0,69,119,0
0,52,0,3
0,39,0,1
0,40,0,0
0,45,126,0
0,54,0,0
0,48,0,1
0,52,127,0
0,57,0,0
0,60,0,0
0,64,0,0
0,60,0,1
0,57,119,1
0,64,0,1
0,60,126,1
0,72,0,1
0,33,0,1
0,64,124,0
0,69,75,1
0,60,0,10
0,64,0,0
0,69,0,0
0,33,0,10
0,48,109,3
0,60,105,0
0,64,104,0
0,45,0,7
0,69,0,4
0,64,0,4
0,69,127,1
0,60,0,1
0,64,127,2
0,57,0,1
0,60,127,1
0,52,0,1
0,57,127,1
0,45,0,1
0,48,0,0
0,60,0,0
0,64,0,0
0,52,127,2
0,45,127,3
0,48,124,16
0,60,116,0
0,64,116,0
0,72,0,6
0,72,0,0
0,45,0,7
0,33,109,3
0,36,96,0
