track,note,velocity,time
1,34,106,14450
1,34,89,682
1,41,97,642
1,36,81,272
1,41,102,280
1,34,81,662
1,36,86,84
1,38,93,130
1,39,89,164
1,34,92,178
1,39,89,172
1,34,92,192
1,39,81,196
1,34,79,196
1,41,93,172
1,36,95,178
1,34,75,158
1,41,89,186
1,34,86,198
1,41,87,198
1,34,89,178
1,41,91,164
1,39,122,172
1,38,95,198
1,36,86,204
1,41,91,186
1,36,87,204
1,41,86,204
1,36,82,192
1,41,84,184
1,38,93,170
1,37,89,230
1,39,92,186
1,34,77,198
1,38,93,176
1,41,97,218
1,46,102,184
1,38,95,206
1,39,127,160
1,41,87,190
1,39,89,186
1,34,92,190
1,39,116,178
1,34,81,184
1,39,81,184
1,34,77,204
1,41,82,186
1,36,70,204
1,34,75,178
1,41,91,190
1,34,79,192
1,41,86,198
1,34,70,184
1,41,87,198
1,39,81,184
1,38,87,226
1,36,89,204
1,41,91,210
1,36,78,184
1,41,84,192
1,36,81,198
1,41,76,178
1,36,89,192
1,41,91,196
1,34,72,204
1,41,89,192
1,46,79,212
1,41,82,224
1,46,81,210
1,41,84,212
1,48,102,192
1,41,81,192
1,46,116,184
1,44,116,118
1,43,84,124
1,41,100,112
1,39,91,98
1,34,82,324
1,39,88,312
1,34,91,304
1,41,89,292
1,34,87,272
1,41,93,298
1,34,87,278
1,40,93,292
1,43,93,292
1,41,87,290
1,34,85,286
1,36,80,280
1,40,93,298
1,41,93,290
1,34,81,676
1,36,86,84
1,38,93,130
1,39,89,164
1,34,92,178
1,39,89,172
1,34,92,192
1,39,81,196
1,34,79,196
1,41,93,172
1,36,95,178
1,34,75,158
1,41,89,186
1,34,86,198
1,41,87,198
1,34,89,178
1,41,91,164
1,39,122,172
1,38,95,198
1,36,86,204
1,41,91,186
1,36,87,204
1,41,86,204
1,36,82,192
1,41,84,184
1,38,93,170
1,37,89,230
1,39,92,186
1,34,77,198
1,38,93,176
1,41,97,218
1,46,102,184
1,38,95,206
1,39,127,160
1,41,87,190
1,39,89,186
1,34,92,190
1,39,116,178
1,34,81,184
1,39,81,184
1,34,77,204
1,41,82,186
1,36,70,204
1,34,75,178
1,41,91,190
1,34,79,192
1,41,86,198
1,34,70,184
1,41,87,198
1,39,81,184
1,38,87,226
1,36,89,204
1,41,91,210
1,36,78,184
1,41,84,192
1,36,81,198
1,41,76,178
1,36,89,192
1,41,91,196
1,34,72,204
1,41,89,192
1,46,79,212
1,41,82,224
1,46,81,210
1,41,84,212
1,48,102,192
1,41,81,192
1,46,116,184
1,44,116,118
1,43,84,124
1,41,100,112
1,39,91,98
1,34,82,324
1,39,88,312
1,34,91,304
1,41,89,292
1,34,87,272
1,41,93,298
1,34,87,278
1,40,93,292
1,43,93,292
1,41,87,290
1,34,85,286
1,36,80,280
1,40,93,298
1,41,93,290
1,34,81,676
1,36,86,84
1,38,93,130
1,39,89,164
1,34,92,178
1,39,89,172
1,34,92,192
1,39,81,196
1,34,79,196
1,41,93,172
1,36,95,178
1,34,75,158
1,41,89,186
1,34,86,198
1,41,87,198
1,34,89,178
1,41,91,164
1,39,122,172
1,38,95,198
1,36,86,204
1,41,91,186
1,36,87,204
1,41,86,204
1,36,82,192
1,41,84,184
1,38,93,170
1,37,89,230
1,39,92,186
1,34,77,198
1,38,93,176
1,41,97,218
1,46,102,184
1,38,95,206
1,39,127,160
1,41,87,190
1,39,89,186
1,34,92,190
1,39,116,178
1,34,81,184
1,39,81,184
1,34,77,204
1,41,82,186
1,36,70,204
1,34,75,178
1,41,91,190
1,34,79,192
1,41,86,198
1,34,70,184
1,41,87,198
1,39,81,184
1,38,87,226
1,36,89,204
1,41,91,210
1,36,78,184
1,41,84,192
1,36,81,198
1,41,76,178
1,36,89,192
1,41,91,196
1,34,72,204
1,41,89,192
1,46,79,212
1,41,82,224
1,46,81,210
1,41,84,212
1,48,102,192
1,41,81,192
1,46,116,184
1,44,116,118
1,43,84,124
1,41,100,112
1,39,91,98
1,34,82,324
1,39,88,312
1,34,91,304
1,41,89,292
1,34,87,272
1,41,93,298
1,34,87,278
1,40,93,292
1,43,93,292
1,41,87,290
1,34,85,286
1,36,80,280
1,40,93,298
1,41,93,290
1,34,81,676
1,36,86,84
1,38,93,130
1,39,89,164
1,34,92,178
1,39,89,172
1,34,92,192
1,39,81,196
1,34,79,196
1,41,93,172
1,36,95,178
1,34,75,158
1,41,89,186
1,34,86,198
1,41,87,198
1,34,89,178
1,41,91,164
1,39,122,172
1,38,95,198
1,36,86,204
1,41,91,186
1,36,87,204
1,41,86,204
1,36,82,192
1,41,84,184
1,38,93,170
1,37,89,230
1,39,92,186
1,34,77,198
1,38,93,176
1,41,97,218
1,46,102,184
1,38,95,206
1,39,127,160
1,41,87,190
1,39,89,186
1,34,92,190
1,39,116,178
1,34,81,184
1,39,81,184
1,34,77,204
1,41,82,186
1,36,70,204
1,34,75,178
1,41,91,190
1,34,79,192
1,41,86,198
1,34,70,184
1,41,87,198
1,39,81,184
1,38,87,226
1,36,89,204
1,41,91,210
1,36,78,184
1,41,84,192
1,36,81,198
1,41,76,178
1,36,89,192
1,41,91,196
1,34,106,204
1,41,118,300
1,39,102,278
1,43,118,310
1,34,111,266
1,41,127,284
1,46,92,284
1,34,111,272
2,34,114,14494
2,34,97,682
2,41,105,642
2,36,89,272
2,41,110,280
2,34,127,662
2,36,104,84
2,38,127,130
2,39,107,164
2,34,110,178
2,39,107,172
2,34,110,192
2,39,99,196
2,34,97,196
2,41,111,172
2,36,113,178
2,34,93,158
2,41,107,186
2,34,104,198
2,41,105,198
2,34,107,178
2,41,109,164
2,39,127,172
2,38,113,198
2,36,104,204
2,41,109,186
2,36,105,204
2,41,104,204
2,36,100,192
2,41,102,184
2,38,111,170
2,37,107,230
2,39,110,186
2,34,95,198
2,38,111,176
2,41,115,218
2,46,120,184
2,38,113,206
2,39,127,160
2,41,105,190
2,39,107,186
2,34,110,190
2,39,127,178
2,34,99,184
2,39,99,184
2,34,95,204
2,41,100,186
2,36,88,204
2,34,93,178
2,41,109,190
2,34,97,192
2,41,104,198
2,34,88,184
2,41,105,198
2,39,99,184
2,38,105,226
2,36,107,204
2,41,109,210
2,36,96,184
2,41,102,192
2,36,99,198
2,41,94,178
2,36,107,192
2,41,109,196
2,34,90,204
2,41,107,192
2,46,97,212
2,41,100,224
2,46,99,210
2,41,102,212
2,48,120,192
2,41,99,192
2,46,116,184
2,44,116,118
2,43,84,124
2,41,100,112
2,39,95,98
2,34,86,324
2,39,92,312
2,34,95,304
2,41,93,292
2,34,98,272
2,41,97,298
2,34,98,278
2,40,105,292
2,43,97,292
2,41,108,290
2,34,89,286
2,36,84,280
2,40,97,298
2,41,114,290
2,34,127,676
2,36,104,84
2,38,127,130
2,39,107,164
2,34,110,178
2,39,107,172
2,34,110,192
2,39,99,196
2,34,97,196
2,41,111,172
2,36,113,178
2,34,93,158
2,41,107,186
2,34,104,198
2,41,105,198
2,34,107,178
2,41,109,164
2,39,127,172
2,38,113,198
2,36,104,204
2,41,109,186
2,36,105,204
2,41,104,204
2,36,100,192
2,41,102,184
2,38,111,170
2,37,107,230
2,39,110,186
2,34,95,198
2,38,111,176
2,41,115,218
2,46,120,184
2,38,113,206
2,39,127,160
2,41,105,190
2,39,107,186
2,34,110,190
2,39,127,178
2,34,99,184
2,39,99,184
2,34,95,204
2,41,100,186
2,36,88,204
2,34,93,178
2,41,109,190
2,34,97,192
2,41,104,198
2,34,88,184
2,41,105,198
2,39,99,184
2,38,105,226
2,36,107,204
2,41,109,210
2,36,96,184
2,41,102,192
2,36,99,198
2,41,94,178
2,36,107,192
2,41,109,196
2,34,90,204
2,41,107,192
2,46,97,212
2,41,100,224
2,46,99,210
2,41,102,212
2,48,120,192
2,41,99,192
2,46,116,184
2,44,116,118
2,43,84,124
2,41,100,112
2,39,95,98
2,34,86,324
2,39,92,312
2,34,95,304
2,41,93,292
2,34,98,272
2,41,97,298
2,34,98,278
2,40,105,292
2,43,97,292
2,41,108,290
2,34,89,286
2,36,84,280
2,40,97,298
2,41,114,290
2,34,127,676
2,36,104,84
2,38,127,130
2,39,107,164
2,34,110,178
2,39,107,172
2,34,110,192
2,39,99,196
2,34,97,196
2,41,111,172
2,36,113,178
2,34,93,158
2,41,107,186
2,34,104,198
2,41,105,198
2,34,107,178
2,41,109,164
2,39,127,172
2,38,113,198
2,36,104,204
2,41,109,186
2,36,105,204
2,41,104,204
2,36,100,192
2,41,102,184
2,38,111,170
2,37,107,230
2,39,110,186
2,34,95,198
2,38,111,176
2,41,115,218
2,46,120,184
2,38,113,206
2,39,127,160
2,41,105,190
2,39,107,186
2,34,110,190
2,39,127,178
2,34,99,184
2,39,99,184
2,34,95,204
2,41,100,186
2,36,88,204
2,34,93,178
2,41,109,190
2,34,97,192
2,41,104,198
2,34,88,184
2,41,105,198
2,39,99,184
2,38,105,226
2,36,107,204
2,41,109,210
2,36,96,184
2,41,102,192
2,36,99,198
2,41,94,178
2,36,107,192
2,41,109,196
2,34,90,204
2,41,107,192
2,46,97,212
2,41,100,224
2,46,99,210
2,41,102,212
2,48,120,192
2,41,99,192
2,46,116,184
2,44,116,118
2,43,84,124
2,41,100,112
2,39,95,98
2,34,86,324
2,39,92,312
2,34,95,304
2,41,93,292
2,34,98,272
2,41,97,298
2,34,98,278
2,40,105,292
2,43,97,292
2,41,108,290
2,34,89,286
2,36,84,280
2,40,97,298
2,41,114,290
2,34,127,676
2,36,104,84
2,38,127,130
2,39,107,164
2,34,110,178
2,39,107,172
2,34,110,192
2,39,99,196
2,34,97,196
2,41,111,172
2,36,113,178
2,34,93,158
2,41,107,186
2,34,104,198
2,41,105,198
2,34,107,178
2,41,109,164
2,39,127,172
2,38,113,198
2,36,104,204
2,41,109,186
2,36,105,204
2,41,104,204
2,36,100,192
2,41,102,184
2,38,111,170
2,37,107,230
2,39,110,186
2,34,95,198
2,38,111,176
2,41,115,218
2,46,120,184
2,38,113,206
2,39,127,160
2,41,105,190
2,39,107,186
2,34,110,190
2,39,127,178
2,34,99,184
2,39,99,184
2,34,95,204
2,41,100,186
2,36,88,204
2,34,93,178
2,41,109,190
2,34,97,192
2,41,104,198
2,34,88,184
2,41,105,198
2,39,99,184
2,38,105,226
2,36,107,204
2,41,109,210
2,36,96,184
2,41,102,192
2,36,99,198
2,41,94,178
2,36,107,192
2,41,109,196
2,34,106,204
2,41,118,300
2,39,102,278
2,43,118,310
2,34,111,266
2,41,127,284
2,46,92,284
2,34,111,272
3,70,117,36
3,72,123,2
3,74,117,18
3,75,117,12
3,72,108,18
3,74,102,88
3,75,127,94
3,79,126,42
3,77,120,12
3,75,113,50
3,74,110,54
3,70,101,10
3,72,112,46
3,74,115,42
3,77,117,10
3,75,121,32
3,74,115,34
3,72,110,54
3,69,110,28
3,70,127,48
3,72,120,8
3,75,108,14
3,74,108,24
3,73,115,20
3,75,108,20
3,74,106,152
3,70,127,6
3,72,117,72
3,74,127,120
3,75,121,12
3,72,112,52
3,74,106,94
3,75,121,106
3,79,127,50
3,77,118,32
3,75,123,40
3,74,120,2
3,70,111,6
3,72,120,86
3,74,111,106
3,77,122,34
3,75,123,24
3,74,120,50
3,72,125,108
3,69,116,24
3,70,123,66
3,72,120,86
3,75,127,24
3,74,120,32
3,72,118,62
3,70,127,120
3,58,95,3308
3,58,111,124
3,58,92,42
3,58,95,126
3,63,102,106
3,70,111,4
3,70,95,36
3,58,49,92
3,58,98,152
3,65,127,16
3,65,93,38
3,61,65,96
3,62,108,44
3,65,127,86
3,58,127,106
3,62,127,382
3,69,127,6
3,67,122,38
3,65,114,74
3,64,105,40
3,62,118,74
3,65,108,34
3,62,118,100
3,65,111,106
3,58,127,112
3,60,108,54
3,65,118,86
3,67,118,86
3,69,127,100
3,70,117,654
3,72,123,2
3,74,117,18
3,75,117,12
3,72,108,18
3,74,102,88
3,75,127,94
3,79,126,42
3,77,120,12
3,75,113,50
3,74,110,54
3,70,101,10
3,72,112,46
3,74,115,42
3,77,117,10
3,75,121,32
3,74,115,34
3,72,110,54
3,69,110,28
3,70,127,48
3,72,120,8
3,75,108,14
3,74,108,24
3,73,115,20
3,75,108,20
3,74,106,152
3,70,127,6
3,72,117,72
3,74,127,120
3,75,121,20
3,72,112,52
3,74,106,94
3,75,121,106
3,79,127,50
3,77,118,32
3,75,123,40
3,74,120,2
3,70,111,6
3,72,120,86
3,74,111,106
3,77,122,34
3,75,123,24
3,74,120,50
3,72,125,108
3,69,116,24
3,70,123,66
3,72,120,86
3,75,127,24
3,74,120,32
3,72,118,62
3,70,127,120
3,58,92,3308
3,58,111,124
3,58,92,42
3,58,95,126
3,63,102,106
3,70,111,24
3,70,95,36
3,58,49,92
3,58,98,152
3,65,127,10
3,65,93,38
3,61,65,96
3,62,108,44
3,65,127,86
3,58,127,106
3,62,127,382
3,69,127,6
3,67,122,38
3,65,114,74
3,64,105,40
3,62,118,74
3,65,108,34
3,62,118,100
3,65,111,106
3,58,127,112
3,60,108,54
3,65,118,86
3,67,118,86
3,69,127,100
3,70,117,654
3,72,123,2
3,74,117,18
3,75,117,18
3,72,108,18
3,74,102,88
3,75,127,94
3,79,126,42
3,77,120,12
3,75,113,50
3,74,110,54
3,70,101,10
3,72,112,46
3,74,115,42
3,77,117,10
3,75,121,32
3,74,115,34
3,72,110,54
3,69,110,28
3,70,127,48
3,72,120,8
3,75,108,14
3,74,108,24
3,73,115,20
3,75,108,20
3,74,106,152
3,70,127,6
3,72,117,72
3,74,127,120
3,75,121,12
3,72,112,52
3,74,106,94
3,75,121,106
3,79,127,4
3,77,118,32
3,75,123,40
3,74,120,2
3,70,111,6
3,72,120,86
3,74,111,106
3,77,122,34
3,75,123,24
3,74,120,50
3,72,125,108
3,69,116,24
3,70,123,66
3,72,120,86
3,75,127,24
3,74,120,32
3,72,118,62
3,70,127,120
3,58,92,3308
3,58,111,124
3,58,92,42
3,58,95,126
3,63,102,106
3,70,111,10
3,70,95,36
3,58,49,92
3,58,98,152
3,65,127,16
3,65,93,38
3,61,65,96
3,62,108,44
3,65,127,86
3,58,127,106
3,62,127,382
3,69,127,0
3,67,122,38
3,65,114,74
3,64,105,40
3,62,118,74
3,65,108,34
3,62,118,100
3,65,111,106
3,58,127,112
3,60,108,54
3,65,118,86
3,67,118,86
3,69,127,100
3,70,117,654
3,72,123,2
3,74,117,18
3,75,117,18
3,72,108,18
3,74,102,88
3,75,127,94
3,79,126,42
3,77,120,12
3,75,113,50
3,74,110,54
3,70,101,10
3,72,112,46
3,74,115,42
3,77,117,10
3,75,121,32
3,74,115,34
3,72,110,54
3,69,110,28
3,70,127,48
3,72,120,8
3,75,108,14
3,74,108,24
3,73,115,20
3,75,108,20
3,74,106,152
3,70,127,6
3,72,117,72
3,74,127,120
3,75,121,12
3,72,112,52
3,74,106,94
3,75,121,106
3,79,127,50
3,77,118,32
3,75,123,40
3,74,120,2
3,70,111,6
3,72,120,86
3,74,111,106
3,77,122,34
3,75,123,24
3,74,120,50
3,72,125,108
3,69,116,24
3,70,123,66
3,72,120,86
3,75,127,24
3,74,120,32
3,72,118,62
3,70,127,120
4,62,106,17556
4,63,78,768
4,65,93,764
4,67,90,30
4,63,88,384
4,65,97,70
4,67,89,46
4,70,92,666
4,69,99,24
4,67,95,384
4,65,97,374
4,62,94,32
4,63,87,18
4,65,85,20
4,69,99,720
4,67,99,26
4,65,95,4
4,63,92,384
4,60,100,38
4,62,100,12
4,63,94,4
4,67,102,720
4,65,94,384
4,64,89,362
4,67,93,368
4,65,93,766
4,62,104,354
4,63,92,16
4,65,99,6
4,67,89,18
4,63,92,26
4,65,99,40
4,67,99,26
4,70,92,706
4,69,102,38
4,67,97,24
4,65,99,12
4,62,94,26
4,63,82,40
4,65,94,192
4,69,104,774
4,67,91,12
4,65,86,24
4,63,88,12
4,60,102,32
4,62,100,12
4,63,88,6
4,67,94,708
4,65,95,52
