track,note,velocity,time
1,45,61,20157
1,43,70,103
1,38,74,167
1,28,81,432
1,33,85,78
1,38,116,125
1,40,107,44
1,40,72,16
1,40,105,15
1,43,100,47
1,45,78,1
1,38,107,1
1,40,111,44
1,40,72,13
1,40,107,13
1,33,105,47
1,35,82,0
1,38,116,54
1,40,107,44
1,40,72,16
1,40,105,15
1,43,100,47
1,45,78,1
1,38,107,1
1,40,111,44
1,40,72,13
1,40,107,13
1,33,105,47
1,35,82,0
1,38,116,54
1,40,107,44
1,40,72,16
1,40,105,15
1,43,100,47
1,45,78,1
1,38,107,1
1,40,111,44
1,40,72,13
1,40,107,13
1,33,105,47
1,35,82,0
1,38,116,54
1,40,107,44
1,40,72,16
1,40,105,15
1,43,100,47
1,45,78,1
1,38,107,1
1,40,111,44
1,40,72,13
1,52,107,3
1,33,105,114
1,35,82,0
1,38,116,35
1,40,107,44
1,40,72,16
1,40,105,15
1,43,100,47
1,45,78,1
1,38,107,1
1,40,111,44
1,40,72,13
1,40,107,13
1,33,105,47
1,35,82,0
1,38,116,54
1,40,107,44
1,40,72,16
1,40,105,15
1,43,100,47
1,45,78,1
1,38,107,0
1,40,111,45
1,40,72,13
1,52,107,3
1,33,105,114
1,35,82,0
1,38,116,36
1,40,107,44
1,40,72,16
1,40,105,15
1,43,100,47
1,45,78,1
1,38,107,1
1,40,111,44
1,40,72,13
1,40,107,13
1,33,105,47
1,35,82,0
1,38,116,54
1,40,107,44
1,40,72,16
1,40,105,15
1,43,100,47
1,45,78,1
1,38,107,1
1,40,111,44
1,40,72,13
1,52,107,3
1,33,105,114
1,35,82,0
1,38,116,35
1,40,107,44
1,40,72,16
1,40,105,15
1,43,100,47
1,45,78,1
1,38,107,1
1,40,111,44
1,40,72,13
1,40,107,13
1,33,105,47
1,35,82,0
1,38,116,54
1,40,107,44
1,40,72,16
1,40,105,15
1,43,100,47
1,45,78,1
1,38,107,1
1,40,111,44
1,40,72,13
1,52,107,3
1,33,105,114
1,35,82,0
1,33,115,35
1,40,115,164
1,45,115,165
1,45,115,2
1,31,115,0
1,38,115,182
1,43,115,172
1,43,115,0
1,43,100,5
1,45,78,1
1,38,107,1
1,40,111,44
1,40,72,13
1,40,107,13
1,33,105,47
1,35,82,0
1,38,116,54
1,40,107,44
1,40,72,16
1,40,105,15
1,43,100,47
1,45,78,1
1,40,107,51
1,40,107,54
1,35,59,178
1,40,99,17
1,28,67,239
1,33,93,20
1,33,120,57
1,33,120,48
1,33,111,41
1,38,116,11
1,40,107,44
1,40,72,15
1,40,105,15
1,43,100,47
1,45,78,2
1,38,107,1
1,40,111,45
1,40,72,13
1,40,107,13
1,33,105,47
1,35,82,0
1,38,116,55
1,40,107,44
1,40,72,15
1,40,105,15
1,43,100,47
1,45,78,2
1,38,107,1
1,40,111,45
1,40,72,13
1,40,107,13
1,33,105,47
1,35,82,0
1,33,115,54
1,40,115,163
1,45,115,165
1,45,115,2
1,31,115,0
1,38,115,182
1,43,115,172
1,43,115,0
1,43,100,5
1,45,78,1
1,38,107,1
1,40,111,44
1,40,72,13
1,40,107,13
1,33,105,47
1,35,82,0
1,38,116,54
1,40,107,44
1,40,72,16
1,40,105,15
1,43,100,47
1,45,78,1
1,40,107,51
1,40,107,54
1,35,59,178
1,40,99,17
1,28,67,239
1,33,116,25
1,45,118,351
1,43,79,234
1,43,110,33
1,42,95,121
1,40,83,46
1,38,116,57
1,40,107,44
1,40,72,15
1,40,105,15
1,43,100,47
1,45,78,2
1,38,107,1
1,40,111,45
1,40,72,13
1,40,111,13
1,40,115,5
1,35,121,118
1,45,72,189
1,47,96,2
1,33,121,100
1,33,103,28
1,43,75,197
1,45,99,27
1,31,121,96
1,33,99,0
1,34,89,22
1,35,82,7
1,38,117,93
1,38,112,9
1,40,78,178
1,43,108,47
1,35,121,108
1,45,72,184
1,47,96,2
1,33,121,100
1,33,103,28
1,43,75,197
1,45,99,27
1,38,121,0
1,40,96,1
1,42,96,50
1,43,121,82
1,38,103,166
1,31,121,42
1,31,121,11
1,33,121,41
1,31,121,5
1,31,117,32
1,31,121,54
1,33,121,131
1,31,121,9
1,31,121,38
1,31,117,46
1,33,117,123
1,33,117,37
1,33,117,41
1,33,121,47
1,31,121,122
1,31,120,43
1,31,120,39
1,31,120,44
1,38,116,39
1,40,107,44
1,40,72,15
1,40,105,15
1,43,100,47
1,45,78,2
1,38,107,1
1,40,111,45
1,40,72,13
1,40,107,13
1,33,105,47
1,35,82,0
1,38,116,55
1,40,107,44
1,40,72,15
1,40,105,15
1,43,100,47
1,45,78,2
1,38,107,1
1,40,111,45
1,40,72,13
1,40,107,13
1,33,105,47
1,35,82,0
1,33,115,54
1,40,115,163
1,45,115,165
1,45,115,2
1,31,115,0
1,38,115,182
1,43,115,172
1,43,115,0
1,43,100,5
1,45,78,1
1,38,107,1
1,40,111,44
1,40,72,13
1,40,107,13
1,33,105,47
1,35,82,0
1,38,116,54
1,40,107,44
1,40,72,16
1,40,105,15
1,43,100,47
1,45,78,1
1,38,107,1
1,40,111,44
1,40,72,13
1,40,107,13
1,33,105,47
1,35,82,0
1,38,116,54
1,40,107,44
1,40,72,16
1,40,105,15
1,43,100,47
1,45,78,1
1,38,116,1
1,40,107,44
1,40,72,16
1,40,105,15
1,43,100,47
1,45,78,1
1,38,107,1
1,40,111,44
1,40,72,13
1,40,107,13
1,33,105,47
1,35,82,0
1,38,116,54
1,40,107,44
1,40,72,16
1,40,105,15
1,43,100,47
1,45,78,1
1,38,107,1
1,40,111,44
1,40,72,13
1,52,107,3
1,33,105,114
1,35,82,0
1,38,116,35
1,40,107,44
1,40,72,16
1,40,105,15
1,43,100,47
1,45,78,1
1,38,107,1
1,40,111,44
1,40,72,13
1,40,107,13
1,33,105,47
1,35,82,0
1,38,116,54
1,40,107,44
1,40,72,16
1,40,105,15
1,43,100,47
1,45,78,1
1,38,107,0
1,40,111,45
1,40,72,13
1,52,107,3
1,33,105,114
1,35,82,0
1,38,116,36
1,40,107,44
1,40,72,16
1,40,105,15
1,43,100,47
1,45,78,1
1,38,107,1
1,40,111,44
1,40,72,13
1,40,107,13
1,33,105,47
1,35,82,0
1,38,116,54
1,40,107,44
1,40,72,16
1,40,105,15
1,43,100,47
1,45,78,1
1,38,107,1
1,40,111,44
1,40,72,13
1,52,107,3
1,33,105,114
1,35,82,0
1,38,116,35
1,40,107,44
1,40,72,16
1,40,105,15
1,43,100,47
1,45,78,1
1,38,107,1
1,40,111,44
1,40,72,13
1,40,107,13
1,33,105,47
1,35,82,0
1,38,116,54
1,40,107,44
1,40,72,16
1,40,105,15
1,43,100,47
1,45,78,1
1,38,107,1
1,40,111,44
1,40,72,13
1,52,107,3
1,33,105,114
1,35,82,0
1,33,115,35
1,40,115,164
1,45,115,165
1,45,115,2
1,31,115,0
1,38,115,182
1,43,115,172
1,43,115,0
1,43,100,5
1,45,78,1
1,38,107,1
1,40,111,44
1,40,72,13
1,40,107,13
1,33,105,47
1,35,82,0
1,38,116,54
1,40,107,44
1,40,72,16
1,40,105,15
1,43,100,47
1,45,78,1
1,40,107,51
1,40,107,54
1,35,59,178
1,40,99,17
1,28,67,239
1,33,93,20
1,33,120,57
1,33,120,48
1,33,111,41
1,38,116,11
1,40,107,44
1,40,72,15
1,40,105,15
1,43,100,47
1,45,78,2
1,38,107,1
1,40,111,45
1,40,72,13
1,40,107,13
1,33,105,47
1,35,82,0
1,38,116,55
1,40,107,44
1,40,72,15
1,40,105,15
1,43,100,47
1,45,78,2
1,38,107,1
1,40,111,45
1,40,72,13
1,40,107,13
1,33,105,47
1,35,82,0
1,38,116,55
1,40,107,44
1,40,72,15
1,40,105,15
1,43,100,47
1,45,78,2
1,38,107,1
1,40,111,45
1,40,72,13
1,40,107,13
1,33,105,47
1,35,82,0
1,38,116,55
1,40,107,44
1,40,72,15
1,40,105,15
1,43,100,47
1,45,78,2
1,38,107,1
1,40,111,45
1,40,72,13
1,40,107,13
1,33,105,47
1,35,82,0
1,33,115,54
1,40,115,164
1,45,115,165
1,45,115,2
1,31,115,0
1,38,115,182
1,43,115,172
1,43,115,0
1,43,100,5
1,45,78,1
1,38,107,1
1,40,111,44
1,40,72,13
1,40,107,13
1,33,105,47
1,35,82,0
1,38,116,54
1,40,107,44
1,40,72,16
1,40,105,15
1,43,100,47
1,45,78,1
1,40,107,51
1,33,93,5
1,33,93,7
2,50,108,960
2,57,84,119
2,62,107,121
2,50,84,75
2,52,95,60
2,55,96,16
2,62,94,9
2,67,95,120
2,62,82,11
2,50,110,12
2,57,83,93
2,62,107,18
2,50,83,77
2,52,95,60
2,55,95,17
2,62,95,9
2,67,96,120
2,50,108,9
2,57,84,119
2,62,108,121
2,50,83,75
2,52,96,60
2,55,96,16
2,62,95,9
2,67,96,120
2,62,85,11
2,50,110,12
2,57,85,93
2,62,110,18
2,50,85,77
2,52,96,60
2,55,94,17
2,62,96,9
2,67,94,120
2,50,110,9
2,57,84,119
2,62,107,121
2,50,84,75
2,52,96,60
2,55,94,16
2,62,95,9
2,67,95,120
2,62,82,11
2,50,107,12
2,57,83,93
2,62,110,18
2,50,82,77
2,52,95,60
2,55,96,17
2,62,96,9
2,67,96,120
2,50,110,9
2,57,83,119
2,62,110,121
2,50,82,75
2,52,95,60
2,55,96,16
2,62,94,9
2,67,96,120
2,62,84,11
2,50,108,12
2,57,83,93
2,62,107,18
2,50,84,77
2,52,96,60
2,55,94,17
2,62,95,9
2,67,96,120
2,50,110,9
2,57,83,119
2,62,110,121
2,50,85,75
2,52,94,60
2,55,95,16
2,62,94,9
2,67,94,120
2,62,83,11
2,50,109,12
2,57,82,93
2,62,107,18
2,50,82,77
2,52,94,60
2,55,96,17
2,62,96,9
2,67,94,120
2,50,110,9
2,57,84,119
2,62,108,121
2,50,84,75
2,52,96,60
2,55,96,16
2,62,94,9
2,67,94,120
2,62,85,11
2,50,107,12
2,57,82,93
2,62,110,18
2,50,82,77
2,52,96,60
2,55,96,17
2,62,96,9
2,67,96,120
2,50,110,9
2,57,82,119
2,62,107,121
2,50,83,75
2,52,94,60
2,55,95,16
2,62,95,9
2,67,96,120
2,62,82,11
2,50,110,12
2,57,84,93
2,62,107,18
2,50,82,77
2,52,96,60
2,55,96,17
2,62,96,9
2,67,95,120
2,50,110,9
2,57,84,119
2,62,109,121
2,50,85,75
2,52,96,60
2,55,96,16
2,62,94,9
2,67,96,120
2,62,85,11
2,50,108,12
2,57,82,93
2,62,109,18
2,50,83,77
2,52,96,60
2,55,96,17
2,62,94,9
2,67,96,120
2,50,109,9
2,57,82,119
2,62,108,121
2,50,84,75
2,52,95,60
2,55,95,16
2,62,96,9
2,67,94,120
2,62,85,11
2,50,108,12
2,57,85,93
2,62,109,18
2,50,84,77
2,52,96,60
2,55,95,17
2,62,95,9
2,67,96,120
2,50,108,9
2,57,82,119
2,62,107,121
2,50,84,75
2,52,96,60
2,55,94,16
2,62,96,9
2,67,96,120
2,62,82,11
2,50,107,12
2,57,83,93
2,62,107,18
2,50,85,77
2,52,96,60
2,55,95,17
2,62,95,9
2,67,95,120
2,64,80,2
2,61,84,3
2,45,86,10
2,57,90,0
2,52,89,2
2,57,81,0
2,52,75,0
2,45,82,0
2,52,69,0
2,57,70,0
2,45,74,0
2,64,75,0
2,57,78,0
2,52,78,0
2,45,77,0
2,61,74,0
2,57,75,0
2,52,77,0
2,45,81,0
2,52,67,0
2,57,68,0
2,45,75,0
2,45,81,0
2,52,76,0
2,61,81,0
2,57,83,0
2,57,68,0
2,52,69,0
2,45,67,0
2,43,73,3
2,50,103,3
2,55,80,3
2,62,72,111
2,50,77,0
2,55,76,0
2,55,81,0
2,67,98,2
2,62,71,0
2,55,73,0
2,43,66,0
2,50,84,0
2,50,88,0
2,62,71,0
2,55,86,0
2,55,85,0
2,62,79,0
2,67,101,0
2,47,74,0
2,55,82,0
2,50,83,0
2,62,68,0
2,55,84,0
2,67,101,0
2,50,110,2
2,57,84,119
2,62,110,121
2,50,85,75
2,52,94,60
2,55,96,16
2,62,95,9
2,67,95,120
2,62,82,11
2,50,108,12
2,57,82,93
2,62,110,18
2,50,85,77
2,52,96,60
2,55,94,17
2,62,96,9
2,67,95,120
2,59,104,2
2,40,75,1
2,47,89,4
2,55,72,5
2,52,71,2
2,52,86,0
2,55,83,0
2,62,88,112
2,67,102,113
2,62,84,7
2,55,89,0
2,52,81,0
2,52,67,0
2,45,73,3
2,62,111,6
2,55,69,1
2,55,78,0
2,52,78,0
2,45,78,2
2,61,104,7
2,50,97,1
2,57,75,119
2,62,98,121
2,50,75,75
2,52,88,60
2,55,88,16
2,62,88,9
2,67,92,120
2,62,75,11
2,50,97,12
2,57,75,93
2,62,98,18
2,50,75,77
2,52,88,60
2,55,88,17
2,62,88,9
2,67,92,120
2,50,97,9
2,57,75,119
2,62,98,121
2,50,75,75
2,52,88,60
2,55,88,16
2,62,88,9
2,67,92,120
2,62,75,11
2,50,97,12
2,57,75,93
2,62,98,18
2,50,75,77
2,52,88,60
2,55,88,17
2,62,88,9
2,67,92,120
2,50,97,9
2,57,75,119
2,62,98,121
2,50,75,75
2,52,88,60
2,55,88,16
2,62,88,9
2,67,92,120
2,62,75,11
2,50,97,12
2,57,75,93
2,62,98,18
2,50,75,77
2,52,88,60
2,55,88,17
2,62,88,9
2,67,92,120
2,50,97,9
2,57,75,119
2,62,98,121
2,50,75,75
2,52,88,60
2,55,88,16
2,62,88,9
2,67,92,120
2,62,75,11
2,50,97,12
2,57,75,93
2,62,98,18
2,50,75,77
2,52,88,60
2,55,88,17
2,62,88,9
2,67,92,120
2,50,97,9
2,57,75,119
2,62,98,121
2,50,75,75
2,52,88,60
2,55,88,16
2,62,88,9
2,67,92,120
2,62,75,11
2,50,97,12
2,57,75,93
2,62,98,18
2,50,75,77
2,52,88,60
2,55,88,17
2,62,88,9
2,67,92,120
2,50,97,9
2,57,75,119
2,62,98,121
2,50,75,75
2,52,88,60
2,55,88,16
2,62,88,9
2,67,92,120
2,62,75,11
2,50,97,12
2,57,75,93
2,62,98,18
2,50,75,77
2,52,88,60
2,55,88,17
2,62,88,9
2,67,92,120
2,50,97,9
2,57,75,119
2,62,98,121
2,50,75,75
2,52,88,60
2,55,88,16
2,62,88,9
2,67,92,120
2,62,75,11
2,50,97,12
2,57,75,93
2,62,98,18
2,50,75,77
2,52,88,60
2,55,88,17
2,62,88,9
2,67,92,120
2,50,97,9
2,57,75,119
2,62,98,121
2,50,75,75
2,52,88,60
2,55,88,16
2,62,88,9
2,67,92,120
2,62,75,11
2,50,97,12
2,57,75,93
2,62,98,18
2,50,75,77
2,52,88,60
2,55,88,17
2,62,88,9
2,67,92,120
2,50,97,9
2,57,75,119
2,62,98,121
2,50,75,75
2,52,88,60
2,55,88,16
2,62,88,9
2,67,92,120
2,62,75,11
2,50,97,12
2,57,75,93
2,62,98,18
2,50,75,77
2,52,88,60
2,55,88,17
2,62,88,9
2,67,92,120
2,50,97,9
2,57,75,119
2,62,98,121
2,50,75,75
2,52,88,60
2,55,88,16
2,62,88,9
2,67,92,120
2,62,75,11
2,50,97,12
2,57,75,93
2,62,98,18
2,50,75,77
2,52,88,60
2,55,88,17
2,62,88,9
2,67,92,120
2,64,73,2
2,61,75,3
2,45,80,10
2,57,81,0
2,52,80,2
2,57,73,0
2,52,69,0
2,45,73,0
2,52,63,0
2,57,65,0
2,45,69,0
2,64,68,0
2,57,72,0
2,52,72,0
2,45,69,0
2,61,69,0
2,57,68,0
2,52,72,0
2,45,72,0
2,52,62,0
2,57,63,0
2,45,69,0
2,45,73,0
2,52,69,0
2,61,73,0
2,57,73,0
2,57,62,0
2,52,65,0
2,45,62,0
2,43,66,3
2,50,96,3
2,55,72,3
2,62,66,111
2,50,69,0
2,55,69,0
2,55,72,0
2,67,92,2
2,62,65,0
2,55,69,0
2,43,62,0
2,50,75,0
2,50,80,0
2,62,65,0
