track,note,velocity,time
3,79,100,390
3,79,0,30
3,79,100,0
3,79,0,30
3,81,100,0
3,81,0,30
3,83,40,0
3,83,0,480
3,81,40,2
3,62,40,478
3,81,0,2
3,62,0,478
3,79,100,390
3,79,0,30
3,79,100,0
3,79,0,30
3,81,100,0
3,81,0,30
3,83,60,0
3,83,0,360
3,74,80,120
3,74,0,480
3,84,80,0
3,79,80,0
3,79,0,480
3,84,0,0
3,79,80,0
3,71,80,0
3,74,80,0
3,74,0,480
3,71,0,0
3,79,0,0
3,83,60,0
3,83,0,360
3,74,80,120
3,74,0,480
3,84,80,0
3,79,80,0
3,79,0,480
3,84,0,0
3,79,80,0
3,71,80,0
3,74,80,0
3,74,0,480
3,71,0,0
3,79,0,0
3,76,100,0
3,72,100,0
3,79,100,0
3,79,0,480
3,72,0,0
3,76,0,0
3,71,100,0
3,74,100,0
3,79,100,0
3,79,0,480
3,74,0,0
3,71,0,0
3,76,100,0
3,72,100,0
3,79,100,0
3,79,0,480
3,72,0,0
3,76,0,0
3,69,100,0
3,66,100,0
3,74,100,0
3,74,0,480
3,66,0,0
3,69,0,0
3,76,100,0
3,72,100,0
3,79,100,0
3,79,0,480
3,72,0,0
3,76,0,0
3,71,100,0
3,74,100,0
3,79,100,0
3,79,0,480
3,74,0,0
3,71,0,0
3,66,100,0
3,74,100,0
3,81,100,0
3,81,0,480
3,74,0,0
3,66,0,0
3,67,100,0
3,72,100,0
3,79,100,0
3,79,0,480
3,72,0,0
3,67,0,0
3,79,100,0
3,74,100,0
3,71,100,0
3,67,100,0
3,67,0,480
3,79,0,0
3,74,0,0
3,71,0,0
3,66,100,0
3,74,100,0
3,81,100,0
3,81,0,480
3,74,0,0
3,66,0,0
3,67,100,0
3,72,100,0
3,79,100,0
3,79,0,480
3,72,0,0
3,67,0,0
3,79,100,0
3,74,100,0
3,71,100,0
3,67,100,0
3,67,0,480
3,79,0,0
3,74,0,0
3,71,0,0
3,83,60,0
3,83,0,360
3,74,80,120
3,74,0,480
3,84,80,0
3,79,80,0
3,79,0,480
3,84,0,0
3,79,80,0
3,71,80,0
3,74,80,0
3,74,0,480
3,71,0,0
3,79,0,0
3,83,60,0
3,83,0,360
3,74,80,120
3,74,0,480
3,84,80,0
3,79,80,0
3,79,0,480
3,84,0,0
3,79,80,0
3,71,80,0
3,74,80,0
3,74,0,480
3,71,0,0
3,79,0,0
3,76,100,0
3,72,100,0
3,79,100,0
3,79,0,480
3,72,0,0
3,76,0,0
3,71,100,0
3,74,100,0
3,79,100,0
3,79,0,480
3,74,0,0
3,71,0,0
3,76,100,0
3,72,100,0
3,79,100,0
3,79,0,480
3,72,0,0
3,76,0,0
3,69,100,0
3,66,100,0
3,74,100,0
3,74,0,480
3,66,0,0
3,69,0,0
3,76,100,0
3,72,100,0
3,79,100,0
3,79,0,480
3,72,0,0
3,76,0,0
3,71,100,0
3,74,100,0
3,79,100,0
3,79,0,480
3,74,0,0
3,71,0,0
3,66,100,0
3,74,100,0
3,81,100,0
3,81,0,480
3,74,0,0
3,66,0,0
3,67,100,0
3,72,100,0
3,79,100,0
3,79,0,480
3,72,0,0
3,67,0,0
3,79,100,0
3,74,100,0
3,71,100,0
3,67,100,0
3,67,0,480
3,79,0,0
3,74,0,0
3,71,0,0
3,66,100,0
3,74,100,0
3,81,100,0
3,81,0,480
3,74,0,0
3,66,0,0
3,67,100,0
3,72,100,0
3,79,100,0
3,79,0,480
3,72,0,0
3,67,0,0
3,79,100,0
3,74,100,0
3,71,100,0
3,67,100,0
3,67,0,480
3,79,0,0
3,74,0,0
3,71,0,0
3,79,100,0
3,74,100,0
3,71,100,0
3,67,100,0
3,67,0,480
3,79,0,0
3,74,0,0
3,71,0,0
3,66,100,0
3,74,100,0
3,81,100,0
3,81,0,480
3,74,0,0
3,66,0,0
3,67,100,0
3,72,100,0
3,79,100,0
3,79,0,480
3,72,0,0
3,67,0,0
3,79,100,0
3,74,100,0
3,71,100,0
3,67,100,0
3,67,0,480
3,79,0,0
3,74,0,0
3,71,0,0
3,76,100,0
3,72,100,0
3,79,100,0
3,79,0,480
3,72,0,0
3,76,0,0
3,83,60,5280
3,83,0,360
3,74,80,120
3,74,0,480
3,84,80,0
3,79,80,0
3,79,0,480
3,84,0,0
3,79,80,0
3,71,80,0
3,74,80,0
3,74,0,480
3,71,0,0
3,79,0,0
3,83,60,0
3,83,0,360
3,74,80,120
3,74,0,480
3,84,80,0
3,79,80,0
3,79,0,480
3,84,0,0
3,79,80,0
3,71,80,0
3,74,80,0
3,74,0,480
3,71,0,0
3,79,0,0
3,76,100,0
3,72,100,0
3,79,100,0
3,79,0,480
3,72,0,0
3,76,0,0
3,71,100,0
3,74,100,0
3,79,100,0
3,79,0,480
3,74,0,0
3,71,0,0
3,76,100,0
3,72,100,0
3,79,100,0
3,79,0,480
3,72,0,0
3,76,0,0
3,69,100,0
3,66,100,0
3,74,100,0
3,74,0,480
3,66,0,0
3,69,0,0
3,76,100,0
3,72,100,0
3,79,100,0
3,79,0,480
3,72,0,0
3,76,0,0
3,71,100,0
3,74,100,0
3,79,100,0
3,79,0,480
3,74,0,0
3,71,0,0
3,66,100,0
3,74,100,0
3,81,100,0
3,81,0,480
3,74,0,0
3,66,0,0
3,67,100,0
3,72,100,0
3,79,100,0
3,79,0,480
3,72,0,0
3,67,0,0
3,76,100,0
3,72,100,0
3,79,100,0
3,79,0,480
3,72,0,0
3,76,0,0
3,71,100,0
3,74,100,0
3,79,100,0
3,79,0,480
3,74,0,0
3,71,0,0
3,76,100,0
3,72,100,0
3,79,100,0
3,79,0,480
3,72,0,0
3,76,0,0
3,69,100,0
3,66,100,0
3,74,100,0
3,74,0,480
3,66,0,0
3,69,0,0
3,76,100,0
3,72,100,0
3,79,100,0
3,79,0,480
3,72,0,0
3,76,0,0
3,71,100,0
3,74,100,0
3,79,100,0
3,79,0,480
3,74,0,0
3,71,0,0
3,66,100,0
3,74,100,0
3,81,100,0
3,81,0,480
3,74,0,0
3,66,0,0
3,67,100,0
3,72,100,0
3,79,100,0
3,79,0,480
3,72,0,0
3,67,0,0
3,79,100,0
3,74,100,0
3,71,100,0
3,67,100,0
3,67,0,241
3,79,0,0
3,74,0,0
3,71,0,0
4,43,85,960
4,50,60,0
4,55,80,0
4,59,80,0
4,67,110,0
4,67,0,120
4,55,0,0
4,43,0,0
4,50,0,0
4,59,0,0
4,43,80,0
4,47,80,0
4,59,90,0
4,67,90,0
4,67,0,90
4,43,0,0
4,47,0,0
4,59,0,0
4,47,38,0
4,50,58,0
4,55,55,0
4,67,62,0
4,67,0,30
4,47,0,0
4,50,0,0
4,55,0,0
4,43,44,0
4,55,42,0
4,50,43,0
4,59,51,0
4,59,0,30
4,43,0,0
4,55,0,0
4,50,0,0
4,50,49,0
4,59,59,0
4,67,66,0
4,67,0,30
4,59,0,0
4,50,0,0
4,43,90,0
4,47,90,0
4,55,90,0
4,67,90,0
4,67,0,90
4,43,0,0
4,47,0,0
4,55,0,0
4,47,38,0
4,55,64,0
4,67,65,0
4,67,0,30
4,55,0,0
4,47,0,0
4,43,44,0
4,55,52,0
4,59,51,0
4,59,0,30
4,55,0,0
4,43,0,0
4,43,44,0
4,47,41,0
4,50,49,0
4,59,62,0
4,67,66,0
4,67,0,30
4,50,0,0
4,43,0,0
4,47,0,0
4,59,0,0
4,66,110,0
4,62,80,0
4,57,80,0
4,45,85,0
4,50,60,0
4,50,0,120
4,57,0,0
4,66,0,0
4,62,0,0
4,45,0,0
4,45,80,0
4,50,80,0
4,62,90,0
4,66,90,0
4,66,0,90
4,45,0,0
4,50,0,0
4,62,0,0
4,45,38,0
4,50,58,0
4,57,55,0
4,66,62,0
4,66,0,60
4,45,0,0
4,50,0,0
4,57,0,0
4,62,59,0
4,66,66,0
4,50,49,0
4,50,0,30
4,66,0,0
4,62,0,0
4,45,90,0
4,50,90,0
4,57,90,0
4,62,90,0
4,66,90,0
4,66,0,90
4,57,0,0
4,45,0,0
4,50,0,0
4,62,0,0
4,50,38,0
4,66,65,0
4,66,0,30
4,50,0,0
4,45,44,0
4,57,52,0
4,62,51,0
4,62,0,30
4,57,0,0
4,45,0,0
4,45,44,0
4,62,62,0
4,66,66,0
4,50,49,0
4,50,0,30
4,45,0,0
4,62,0,0
4,66,0,0
4,48,85,0
4,55,80,0
4,60,80,0
4,64,110,0
4,64,0,300
4,48,0,0
4,55,0,0
4,60,0,0
4,64,80,0
4,60,90,0
4,55,90,0
4,48,90,0
4,48,0,90
4,64,0,0
4,60,0,0
4,55,0,0
4,64,65,0
4,52,38,0
4,52,0,30
4,64,0,0
4,60,51,0
4,55,52,0
4,48,44,0
4,48,0,30
4,55,0,0
4,60,0,0
4,64,66,0
4,60,62,0
4,48,44,0
4,52,49,0
4,52,0,30
4,64,0,0
4,60,0,0
4,48,0,0
4,43,85,0
4,50,60,0
4,55,80,0
4,59,80,0
4,67,110,0
4,67,0,120
4,55,0,0
4,43,0,0
4,50,0,0
4,59,0,0
4,43,80,0
4,47,80,0
4,59,90,0
4,67,90,0
4,67,0,90
4,43,0,0
4,47,0,0
4,59,0,0
4,47,38,0
4,50,58,0
4,55,55,0
4,67,62,0
4,67,0,30
4,47,0,0
4,50,0,0
4,55,0,0
4,43,44,0
4,50,43,0
4,59,51,0
4,59,0,30
4,50,0,0
4,43,0,0
4,50,49,0
4,59,59,0
4,67,66,0
4,67,0,30
4,59,0,0
4,50,0,0
4,43,90,0
4,47,90,0
4,55,90,0
4,67,90,0
4,67,0,90
4,43,0,0
4,47,0,0
4,55,0,0
4,47,38,0
4,55,64,0
4,67,65,0
4,67,0,30
4,55,0,0
4,47,0,0
4,43,44,0
4,55,52,0
4,59,51,0
4,59,0,30
4,55,0,0
4,43,0,0
4,43,44,0
4,47,41,0
4,50,49,0
4,59,62,0
4,67,66,0
4,67,0,30
4,50,0,0
4,43,0,0
4,47,0,0
4,59,0,0
4,43,85,0
4,50,60,0
4,55,80,0
4,59,80,0
4,67,110,0
4,67,0,120
4,55,0,0
4,43,0,0
4,50,0,0
4,59,0,0
4,43,80,0
4,47,80,0
4,59,90,0
4,67,90,0
4,67,0,90
4,43,0,0
4,47,0,0
4,59,0,0
4,47,38,0
4,50,58,0
4,55,55,0
4,67,62,0
4,67,0,30
4,47,0,0
4,50,0,0
4,55,0,0
4,43,44,0
4,50,43,0
4,59,51,0
4,59,0,30
4,50,0,0
4,43,0,0
4,50,49,0
4,59,59,0
4,67,66,0
4,67,0,30
4,59,0,0
4,50,0,0
4,43,90,0
4,47,90,0
4,55,90,0
4,67,90,0
4,67,0,90
4,43,0,0
4,47,0,0
4,55,0,0
4,47,38,0
4,55,64,0
4,67,65,0
4,67,0,30
4,55,0,0
4,47,0,0
4,43,44,0
4,55,52,0
4,59,51,0
4,59,0,30
4,55,0,0
4,43,0,0
4,43,44,0
4,47,41,0
4,50,49,0
4,59,62,0
4,67,66,0
4,67,0,30
4,50,0,0
4,43,0,0
4,47,0,0
4,59,0,0
4,66,110,0
4,62,80,0
4,57,80,0
4,45,85,0
4,50,60,0
4,50,0,120
4,57,0,0
4,66,0,0
4,62,0,0
4,45,0,0
4,45,80,0
4,50,80,0
4,62,90,0
4,66,90,0
4,66,0,90
4,45,0,0
4,50,0,0
4,62,0,0
4,45,38,0
4,50,58,0
4,57,55,0
4,66,62,0
4,66,0,60
4,45,0,0
4,50,0,0
4,57,0,0
4,62,59,0
4,66,66,0
4,50,49,0
4,50,0,30
4,66,0,0
4,62,0,0
4,45,90,0
4,50,90,0
4,57,90,0
4,62,90,0
4,66,90,0
4,66,0,90
4,57,0,0
4,45,0,0
4,50,0,0
4,62,0,0
4,50,38,0
4,66,65,0
4,66,0,30
4,50,0,0
4,45,44,0
4,57,52,0
4,62,51,0
4,62,0,30
4,57,0,0
4,45,0,0
4,62,62,0
4,66,66,0
4,50,49,0
4,50,0,30
4,66,0,0
4,62,0,0
4,64,110,0
4,60,80,0
4,55,80,0
4,48,85,0
4,48,0,120
4,64,0,0
4,60,0,0
4,55,0,0
4,64,90,0
4,60,90,0
4,48,80,0
4,52,80,0
4,52,0,90
4,64,0,0
4,60,0,0
4,48,0,0
4,64,62,0
4,55,55,0
4,48,38,0
4,52,58,0
4,52,0,30
4,64,0,0
4,55,0,0
4,48,0,0
4,60,51,0
4,55,42,0
4,48,44,0
4,48,0,30
4,55,0,0
4,60,0,0
4,64,66,0
4,60,59,0
4,52,49,0
4,52,0,30
4,60,0,0
4,64,0,0
4,64,90,0
4,60,90,0
4,55,90,0
4,48,90,0
4,48,0,90
4,64,0,0
4,60,0,0
4,55,0,0
4,64,65,0
4,52,38,0
4,52,0,30
4,64,0,0
4,60,51,0
4,55,52,0
4,48,44,0
4,48,0,30
4,55,0,0
4,60,0,0
4,64,66,0
4,60,62,0
4,48,44,0
4,52,49,0
4,52,0,30
4,64,0,0
4,60,0,0
4,48,0,0
4,43,85,0
4,50,60,0
4,55,80,0
4,59,80,0
4,67,110,0
4,67,0,120
4,55,0,0
4,43,0,0
4,50,0,0
4,59,0,0
4,43,80,0
4,47,80,0
4,59,90,0
4,67,90,0
4,67,0,90
4,43,0,0
4,47,0,0
4,59,0,0
4,47,38,0
4,50,58,0
4,55,55,0
4,67,62,0
4,67,0,30
4,47,0,0
4,50,0,0
4,55,0,0
4,43,44,0
4,50,43,0
4,59,51,0
4,59,0,30
4,50,0,0
4,43,0,0
4,50,49,0
4,59,59,0
4,67,66,0
4,67,0,30
4,59,0,0
4,50,0,0
4,43,90,0
4,47,90,0
4,55,90,0
4,67,90,0
4,67,0,90
4,43,0,0
4,47,0,0
4,55,0,0
4,47,38,0
4,55,64,0
4,67,65,0
4,67,0,30
4,55,0,0
4,47,0,0
4,43,44,0
4,55,52,0
4,59,51,0
4,59,0,30
4,55,0,0
4,43,0,0
4,43,44,0
4,47,41,0
4,50,49,0
4,59,62,0
4,67,66,0
4,67,0,30
4,50,0,0
4,43,0,0
4,47,0,0
4,59,0,0
4,43,85,0
4,50,60,0
4,55,80,0
4,59,80,0
4,67,110,0
4,67,0,120
4,55,0,0
4,43,0,0
4,50,0,0
4,59,0,0
4,43,80,0
4,47,80,0
4,59,90,0
4,67,90,0
4,67,0,90
4,43,0,0
4,47,0,0
4,59,0,0
4,47,38,0
4,50,58,0
4,55,55,0
4,67,62,0
4,67,0,30
4,47,0,0
4,50,0,0
4,55,0,0
4,43,44,0
4,50,43,0
4,59,51,0
4,59,0,30
4,50,0,0
4,43,0,0
4,50,49,0
4,59,59,0
4,67,66,0
4,67,0,30
4,59,0,0
4,50,0,0
4,43,90,0
4,47,90,0
4,55,90,0
4,67,90,0
4,67,0,90
4,43,0,0
4,47,0,0
4,55,0,0
4,47,38,0
4,55,64,0
4,67,65,0
4,67,0,30
4,55,0,0
4,47,0,0
4,43,44,0
4,55,52,0
4,59,51,0
4,59,0,30
4,55,0,0
4,43,0,0
4,43,44,0
4,47,41,0
4,50,49,0
4,59,62,0
4,67,66,0
4,67,0,30
4,50,0,0
4,43,0,0
4,47,0,0
4,59,0,0
4,66,110,0
4,62,80,0
4,57,80,0
4,45,85,0
4,50,60,0
4,50,0,120
4,57,0,0
4,66,0,0
4,62,0,0
4,45,0,0
4,45,80,0
4,50,80,0
4,62,90,0
4,66,90,0
4,66,0,90
4,45,0,0
4,50,0,0
4,62,0,0
4,45,38,0
4,50,58,0
4,57,55,0
4,66,62,0
4,66,0,60
4,45,0,0
4,50,0,0
4,57,0,0
4,62,59,0
4,66,66,0
4,50,49,0
4,50,0,30
4,66,0,0
4,62,0,0
4,45,90,0
4,50,90,0
4,57,90,0
4,62,90,0
4,66,90,0
4,66,0,90
4,57,0,0
4,45,0,0
4,50,0,0
4,62,0,0
4,50,38,0
4,66,65,0
4,66,0,30
4,50,0,0
4,45,44,0
4,57,52,0
4,62,51,0
4,62,0,30
4,57,0,0
4,45,0,0
