track,note,velocity,time
0,73,118,379
0,78,116,0
0,82,112,2
0,42,114,2
0,58,118,0
0,54,106,0
0,49,113,0
0,61,119,0
0,66,116,0
0,58,111,0
0,54,117,0
0,61,117,1
0,66,107,2
0,42,57,1
0,42,63,3
0,61,85,1
0,66,103,0
0,61,101,0
0,58,98,1
0,82,90,0
0,42,53,1
0,78,91,0
0,61,87,0
0,58,97,0
0,54,98,1
0,58,117,0
0,54,88,0
0,61,119,0
0,42,123,1
0,66,118,0
0,58,113,0
0,54,113,0
0,78,106,0
0,73,114,0
0,61,124,1
0,49,103,0
0,82,119,1
0,66,111,0
0,61,110,1
0,42,62,1
0,61,101,0
0,58,100,0
0,82,102,0
0,49,83,1
0,78,98,3
0,73,83,1
0,61,100,0
0,66,106,1
0,42,73,1
0,47,114,1
0,66,110,0
0,61,100,1
0,59,116,0
0,42,112,1
0,56,113,0
0,59,95,0
0,54,75,0
0,54,113,0
0,47,99,0
0,83,116,1
0,78,117,1
0,71,111,1
0,42,37,19
0,59,93,1
0,42,67,1
0,66,107,0
0,59,118,0
0,56,111,0
0,61,97,0
0,54,111,0
0,59,79,1
0,83,118,0
0,78,116,1
0,59,105,0
0,61,112,0
0,66,106,1
0,42,59,1
0,78,96,0
0,83,92,1
0,59,98,0
0,56,109,1
0,42,59,2
0,83,65,0
0,78,83,0
0,54,97,0
0,59,118,0
0,56,115,0
0,47,111,0
0,61,119,0
0,42,117,1
0,66,119,0
0,59,122,0
0,71,119,0
0,78,118,0
0,83,119,1
0,59,102,1
0,42,62,1
0,56,104,0
0,83,96,0
0,78,96,0
0,54,93,2
0,54,86,0
0,59,107,0
0,61,111,0
0,42,73,1
0,66,94,0
0,71,106,0
0,78,115,0
0,83,96,1
0,42,59,9
0,61,105,0
0,54,98,0
0,49,83,0
0,80,73,0
0,54,99,0
0,58,117,0
0,61,119,1
0,54,118,0
0,42,117,1
0,66,118,0
0,49,108,0
0,58,115,0
0,73,115,0
0,61,119,0
0,78,116,0
0,82,98,1
0,66,98,3
0,42,56,4
0,54,98,0
0,66,101,1
0,42,76,1
0,61,83,0
0,66,87,3
0,61,84,1
0,42,67,1
0,61,114,0
0,58,111,0
0,54,105,0
0,78,84,0
0,54,71,0
0,58,111,0
0,61,117,0
0,49,105,0
0,73,118,0
0,42,123,1
0,66,118,0
0,54,116,0
0,61,122,0
0,78,117,0
0,58,118,0
0,82,109,0
0,66,106,0
0,61,107,0
0,61,107,1
0,42,73,1
0,58,100,0
0,82,102,0
0,78,100,0
0,73,91,1
0,82,77,1
0,78,83,0
0,61,114,0
0,66,116,1
0,42,83,1
0,47,106,0
0,66,118,0
0,61,117,1
0,59,118,1
0,42,109,1
0,59,108,0
0,54,109,0
0,83,118,0
0,54,83,0
0,56,78,0
0,47,96,0
0,78,115,0
0,71,109,1
0,42,28,1
0,59,67,3
0,42,56,1
0,66,104,0
0,59,117,0
0,56,113,0
0,61,103,0
0,54,118,1
0,47,90,0
0,83,118,0
0,78,116,0
0,54,60,1
0,71,114,0
0,54,84,0
0,59,106,0
0,61,111,0
0,66,98,1
0,42,69,1
0,59,90,0
0,78,90,0
0,83,85,1
0,59,88,1
0,42,67,1
0,56,99,0
0,83,89,0
0,78,96,0
0,71,87,1
0,54,98,0
0,47,96,0
0,56,117,0
0,59,119,0
0,59,123,0
0,42,123,1
0,66,118,0
0,61,119,0
0,71,114,0
0,78,119,0
0,83,70,1
0,56,87,1
0,42,56,1
0,83,96,0
0,78,98,1
0,54,93,0
0,42,74,1
0,59,118,0
0,71,116,0
0,61,119,0
0,47,106,0
0,78,109,0
0,66,116,1
0,83,71,0
0,58,90,1
0,42,65,13
0,58,101,0
0,54,94,1
0,49,75,0
0,49,113,0
0,42,123,1
0,54,107,0
0,58,119,0
0,58,111,0
0,54,117,0
0,73,118,0
0,61,119,0
0,66,119,0
0,61,117,0
0,78,116,0
0,82,65,2
0,42,67,2
0,66,98,0
0,61,101,1
0,58,88,7
0,42,79,1
0,66,106,0
0,61,85,1
0,66,108,1
0,61,107,1
0,42,59,1
0,82,98,0
0,58,95,0
0,61,87,0
0,58,97,0
0,78,103,0
0,73,85,0
0,54,98,1
0,54,92,1
0,58,117,0
0,42,123,1
0,61,117,0
0,73,120,0
0,66,116,0
0,58,113,0
0,54,113,0
0,78,118,0
0,61,124,1
0,49,103,0
0,82,93,0
0,66,108,0
0,42,69,2
0,61,104,0
0,61,101,0
0,82,93,0
0,58,100,0
0,78,91,0
0,49,83,1
0,58,109,1
0,61,115,0
0,42,83,1
0,66,117,0
0,47,114,1
0,66,115,2
0,59,116,0
0,42,69,1
0,61,115,0
0,56,113,0
0,83,118,0
0,54,113,0
0,47,99,0
0,78,115,0
0,59,103,1
0,54,84,0
0,71,88,0
0,42,28,21
0,59,93,1
0,61,115,1
0,59,118,0
0,56,111,0
0,83,118,0
0,66,111,1
0,54,111,0
0,42,65,1
0,59,97,0
0,78,116,0
0,71,109,0
0,54,78,0
0,59,111,1
0,61,116,0
0,66,113,1
0,42,80,1
0,83,69,0
0,59,98,0
0,56,109,1
0,83,96,0
0,42,65,1
0,78,109,0
0,71,100,0
0,54,89,0
0,59,116,0
0,56,115,0
0,47,111,0
0,71,120,0
0,61,118,0
0,42,102,1
0,66,117,0
0,59,122,0
0,78,118,0
0,83,118,0
0,59,102,1
0,83,89,0
0,42,69,1
0,56,104,0
0,78,97,0
0,71,85,1
0,54,93,2
0,54,80,0
0,59,113,0
0,61,119,1
0,42,81,1
0,66,117,0
0,42,76,1
0,61,105,0
0,54,98,0
0,49,83,0
0,49,111,1
0,35,108,1
0,37,111,0
0,54,118,0
0,49,114,0
0,49,113,0
0,61,122,0
0,54,115,0
0,56,111,0
0,78,118,0
0,59,119,1
0,61,120,0
0,80,119,0
0,85,115,0
0,54,109,44
0,49,102,0
0,56,111,1
0,61,122,1
0,37,111,1
0,35,106,1
0,49,118,0
0,49,123,0
0,54,119,0
0,59,121,0
0,78,114,0
0,80,114,0
0,85,115,0
0,61,123,2
0,38,118,92
0,45,122,11
0,32,110,1
0,43,123,5
0,37,111,0
0,57,110,1
0,41,116,12
0,85,36,1
0,54,113,16
0,49,111,1
0,30,111,1
0,61,115,0
0,58,120,0
0,54,71,0
0,49,114,1
0,35,108,0
0,66,118,0
0,54,119,0
0,58,113,0
0,61,119,0
0,73,117,1
0,78,114,0
0,82,119,0
0,66,93,3
0,54,46,1
0,42,57,1
0,82,92,0
0,61,96,1
0,54,66,0
0,42,63,1
0,66,101,0
0,61,78,0
0,61,99,1
0,66,100,0
0,61,82,0
0,42,62,1
0,54,43,0
0,58,86,0
0,78,101,0
0,82,98,1
0,30,111,1
0,54,97,0
0,42,123,1
0,38,118,0
0,58,117,0
0,61,119,0
0,49,103,0
0,54,119,0
0,73,121,0
0,54,120,0
0,66,117,1
0,58,118,0
0,61,120,0
0,78,120,0
0,82,119,1
0,66,102,1
0,54,49,0
0,42,62,1
0,82,96,0
0,54,107,1
0,78,87,0
0,35,102,2
0,61,104,0
0,42,73,1
0,66,109,0
0,47,93,0
0,54,61,0
0,59,100,1
0,82,76,0
0,35,101,1
0,66,117,0
0,37,111,0
0,59,119,0
0,42,107,1
0,61,115,0
0,54,115,0
0,83,118,0
0,54,40,0
0,59,104,0
0,47,81,0
0,56,95,0
0,78,114,0
0,71,85,0
0,54,87,1
0,42,28,7
0,59,67,0
0,54,67,0
0,59,118,0
0,42,67,1
0,66,111,0
0,56,113,0
0,37,97,0
0,83,118,0
0,61,105,0
0,47,105,0
0,54,118,0
0,54,41,0
0,59,91,1
0,78,116,0
0,71,106,0
0,54,99,0
0,61,117,1
0,59,113,0
0,56,104,0
0,37,111,1
0,35,106,1
0,42,59,0
0,66,111,0
0,59,101,0
0,78,110,0
0,54,69,0
0,83,73,0
0,59,113,0
0,56,111,1
0,42,59,1
0,83,90,0
0,54,43,0
0,78,102,0
0,71,95,1
0,54,94,0
0,59,119,0
0,47,111,0
0,42,117,1
0,38,118,0
0,61,121,0
0,54,120,0
0,66,119,0
0,56,115,0
0,71,109,0
0,59,124,1
0,78,116,0
0,83,118,1
0,37,97,2
0,35,105,1
0,54,49,0
0,42,62,0
0,83,115,0
0,78,113,0
0,71,96,1
0,54,86,1
0,42,100,1
0,42,73,1
0,59,114,0
0,61,117,0
0,54,58,0
0,66,114,0
0,59,94,0
0,78,100,0
0,47,67,1
0,83,97,0
0,54,39,1
0,42,59,1
0,78,69,0
0,58,81,0
0,49,83,1
0,54,104,0
0,58,117,0
0,73,119,0
0,54,80,0
0,35,108,1
0,42,117,0
0,61,115,0
0,54,118,0
0,78,116,0
0,66,117,0
0,58,125,0
0,82,119,0
0,61,122,1
0,66,111,0
0,82,87,0
0,61,111,1
0,42,56,1
0,54,42,0
0,78,86,0
0,66,110,1
0,42,76,1
0,42,111,0
0,54,60,0
0,61,92,0
0,78,84,0
0,82,64,0
0,54,43,0
0,61,107,0
0,66,109,0
0,42,67,1
0,58,93,0
0,61,113,0
0,82,103,0
0,58,109,0
0,54,104,0
0,78,103,0
0,73,83,1
0,42,123,1
0,38,118,0
0,54,111,0
0,54,116,0
0,42,110,0
0,54,122,0
0,58,118,1
0,61,117,0
0,58,118,0
0,61,122,0
0,73,119,0
0,66,121,1
0,78,118,0
0,82,120,1
0,66,113,0
0,54,50,1
0,42,73,1
0,61,110,0
0,58,95,0
0,78,102,1
0,82,98,0
0,61,112,0
0,66,115,1
0,42,83,1
0,54,64,0
0,47,107,0
0,82,86,2
0,35,101,1
0,37,111,0
0,66,117,0
0,54,38,0
0,42,109,1
0,61,117,0
0,59,116,0
0,59,118,0
0,83,117,0
0,54,111,0
0,56,93,0
0,47,90,0
0,78,113,0
0,54,88,1
0,71,96,0
0,42,28,2
0,54,72,0
0,83,64,0
0,42,56,3
0,83,117,0
0,66,115,0
0,37,95,1
0,61,113,0
0,59,115,0
0,78,114,0
0,54,39,0
0,56,113,0
0,54,118,0
0,71,111,0
0,59,100,0
0,47,104,0
0,54,69,1
0,54,104,0
0,59,117,1
0,37,111,1
0,78,109,0
0,42,69,1
0,35,106,0
0,61,117,0
0,66,117,0
0,54,77,0
0,83,89,0
0,47,67,4
0,59,111,1
0,83,88,0
0,42,67,1
0,56,111,0
0,54,44,0
0,78,94,0
0,38,118,1
0,42,123,0
0,54,105,0
0,47,110,0
0,71,120,0
0,37,103,0
0,59,117,0
0,61,119,1
0,78,116,0
0,54,120,0
0,66,118,1
0,56,122,0
0,59,120,0
0,54,113,0
0,83,119,0
0,37,108,2
0,35,105,1
0,42,56,0
0,83,89,0
0,78,91,0
0,54,45,0
0,54,100,0
0,35,103,1
0,59,115,0
0,61,117,0
0,42,74,1
0,66,115,0
0,47,67,0
0,59,95,0
0,78,114,0
0,71,105,0
0,54,70,0
0,83,76,0
0,32,110,8
0,54,36,1
0,42,65,1
0,58,105,0
0,49,69,1
0,54,80,0
0,30,111,1
0,54,105,0
0,35,108,1
0,42,114,0
0,61,116,0
0,58,117,0
0,49,103,0
0,54,113,0
0,66,117,0
0,58,118,0
0,61,122,0
0,73,118,0
0,78,114,1
0,82,102,1
0,66,92,0
0,54,41,1
0,61,98,1
0,42,57,1
0,82,83,0
0,54,70,0
0,58,100,0
0,54,72,0
0,61,114,0
0,42,63,1
0,66,115,0
0,61,90,0
0,78,87,1
0,66,115,0
0,61,92,1
0,54,44,0
0,61,115,1
0,42,62,1
0,58,102,0
0,54,102,0
0,54,66,0
0,49,89,0
0,82,95,0
0,78,99,0
0,73,82,1
0,54,100,1
0,42,117,1
0,30,111,0
0,58,117,0
0,54,120,0
0,38,118,0
0,61,121,0
0,58,111,0
0,66,118,0
0,54,113,0
0,61,125,0
0,73,120,0
0,49,111,1
0,78,119,0
0,82,119,1
0,66,114,0
0,61,113,1
0,54,49,0
0,82,87,0
0,42,62,1
0,58,97,0
0,54,94,0
0,61,117,0
0,54,68,0
0,35,102,1
0,66,117,0
0,42,73,1
0,47,97,0
0,83,71,2
0,66,117,0
0,35,101,1
0,61,118,0
0,59,117,0
0,83,118,0
0,37,111,0
0,54,38,0
0,42,59,1
0,59,115,0
0,56,114,0
0,78,116,0
0,54,117,0
0,47,93,0
0,71,96,0
0,66,115,1
0,54,63,0
0,42,117,1
0,66,117,2
0,59,118,0
0,54,46,0
0,37,97,1
0,56,113,0
0,42,56,1
0,61,116,0
0,54,116,0
0,78,116,0
0,83,116,0
0,59,104,0
0,47,104,0
0,71,109,0
0,54,77,0
0,54,91,0
0,59,117,1
0,61,117,1
0,37,111,1
0,54,66,0
0,35,106,1
0,42,76,0
0,66,111,0
0,56,93,1
0,42,67,1
0,78,110,0
0,83,106,0
0,54,45,0
0,71,92,0
0,54,102,0
0,42,117,1
0,38,118,0
0,59,118,0
0,56,118,0
0,54,115,0
0,61,119,0
0,59,121,0
0,71,115,0
0,66,119,1
0,78,119,0
0,54,120,0
0,47,106,1
0,83,95,0
0,37,97,1
0,56,99,0
0,35,105,1
0,54,51,0
0,42,62,0
0,54,99,0
0,47,93,0
0,78,108,0
0,83,106,0
0,54,65,0
0,42,100,1
0,54,103,0
0,71,112,0
0,42,73,1
0,59,115,0
0,47,109,0
0,78,116,0
0,61,114,0
0,83,96,0
0,42,59,3
0,58,110,0
0,54,38,0
0,54,107,0
0,54,107,0
0,58,109,0
0,54,111,0
0,58,119,0
0,49,100,0
0,54,71,0
0,35,108,1
0,42,117,0
0,66,117,0
0,61,118,0
0,61,122,0
0,73,120,0
0,78,118,0
0,82,95,0
0,66,111,3
0,82,90,0
0,54,41,0
0,61,107,0
0,42,56,1
0,58,113,0
0,78,76,0
0,54,93,1
0,61,110,0
0,54,64,0
0,66,112,1
0,42,76,1
0,42,110,0
0,61,93,0
0,78,89,0
0,82,48,0
0,61,111,1
0,61,109,0
0,66,114,1
0,58,109,0
0,42,67,1
0,54,111,0
0,82,102,0
0,54,51,0
0,78,105,0
0,73,89,1
0,54,104,1
0,58,118,0
0,38,118,1
0,42,123,0
0,46,110,0
0,58,117,0
0,54,115,0
0,61,118,0
0,61,124,0
0,73,116,0
0,78,119,0
0,54,120,0
0,66,116,1
0,82,119,0
0,66,102,2
0,61,107,1
0,58,109,0
0,42,73,1
0,82,100,0
0,54,37,0
0,54,107,0
0,48,91,1
0,61,111,1
0,42,83,1
0,66,115,0
0,47,110,0
0,54,67,0
0,83,31,3
0,35,101,3
0,37,111,0
0,61,119,0
0,59,115,0
0,83,118,0
0,42,109,1
0,66,115,0
0,78,116,0
0,54,42,0
0,54,90,0
0,59,108,0
0,56,104,0
0,54,118,0
0,47,97,0
0,71,91,0
0,42,28,1
0,66,99,0
0,54,71,0
0,59,111,10
0,42,56,1
0,56,115,0
0,66,117,0
0,54,118,0
0,83,118,0
0,37,95,1
0,61,115,0
0,47,102,0
0,54,38,0
0,59,104,1
0,78,116,0
0,71,111,0
0,54,86,1
0,54,95,0
0,37,111,1
0,61,114,0
0,59,113,0
0,42,69,1
0,35,106,0
0,54,60,0
0,66,103,0
0,83,76,0
0,59,113,0
0,56,113,0
0,54,111,1
0,42,67,1
0,83,87,0
0,54,45,0
0,71,91,1
0,78,93,0
0,38,118,1
0,42,123,0
0,54,103,0
0,56,121,0
0,59,122,0
0,37,103,0
0,59,118,0
0,66,119,1
0,61,121,0
0,54,120,0
0,71,100,0
0,78,115,0
0,83,102,1
0,37,108,1
0,35,105,1
0,42,56,0
0,54,46,0
0,83,78,1
0,78,94,0
0,35,103,1
0,54,82,0
0,59,101,1
0,46,111,1
0,54,77,0
0,66,79,0
0,61,111,0
0,83,47,1
0,78,86,1
0,32,110,4
0,54,47,0
0,58,110,1
0,54,107,1
0,78,82,1
0,54,106,1
0,49,114,1
0,30,111,0
0,49,113,0
0,54,71,0
0,35,108,0
0,58,117,0
0,58,111,0
0,54,117,0
0,66,118,0
0,61,117,0
0,61,117,0
0,73,117,0
0,78,116,1
0,82,81,0
