track,note,velocity,time
0,43,93,0
0,47,100,0
0,50,100,0
0,55,106,0
0,62,104,1
0,67,104,0
0,50,99,1
0,55,105,1
0,62,104,0
0,67,103,0
0,62,72,0
0,71,85,0
0,67,104,0
0,62,102,0
0,55,105,0
0,47,99,0
0,50,91,0
0,71,91,0
0,72,92,0
0,67,102,0
0,62,102,1
0,55,102,1
0,55,108,0
0,62,103,0
0,50,95,1
0,67,104,0
0,47,98,1
0,71,91,0
0,67,104,1
0,69,79,0
0,62,104,0
0,50,93,1
0,47,98,0
0,62,102,1
0,43,88,0
0,55,106,0
0,67,104,1
0,67,73,0
0,69,83,2
0,64,85,0
0,62,97,1
0,45,84,0
0,50,99,0
0,62,105,1
0,57,105,0
0,66,104,0
0,71,82,0
0,69,70,19
0,50,101,0
0,45,82,0
0,67,70,1
0,57,105,0
0,62,105,0
0,66,102,1
0,66,102,1
0,62,102,0
0,66,102,2
0,62,102,0
0,57,98,1
0,45,97,0
0,57,106,0
0,50,102,1
0,62,102,0
0,66,104,0
0,66,104,1
0,62,102,0
0,57,101,1
0,50,99,0
0,57,104,0
0,62,104,0
0,66,104,1
0,55,80,3
0,62,105,1
0,48,91,0
0,55,105,0
0,67,104,1
0,52,99,0
0,67,66,0
0,67,71,0
0,67,71,0
0,67,69,0
0,67,70,0
0,67,65,0
0,48,100,2
0,52,101,0
0,55,104,0
0,62,104,1
0,67,102,0
0,67,62,0
0,67,78,0
0,67,104,0
0,62,104,0
0,64,75,0
0,55,104,0
0,52,95,1
0,48,102,0
0,64,74,0
0,52,99,0
0,48,88,0
0,55,105,0
0,62,104,0
0,67,102,1
0,55,97,1
0,62,98,0
0,67,102,0
0,62,61,0
0,55,104,0
0,43,78,0
0,50,94,0
0,47,91,1
0,62,104,0
0,67,104,0
0,47,98,0
0,43,95,0
0,62,104,0
0,55,104,0
0,67,102,1
0,50,95,0
0,67,104,1
0,62,102,0
0,55,104,1
0,67,101,1
0,62,101,1
0,55,101,0
0,47,86,1
0,43,93,0
0,50,93,0
0,55,105,0
0,62,102,1
0,47,97,0
0,67,69,1
0,67,102,2
0,62,101,0
0,55,104,0
0,47,97,1
0,79,106,3
0,47,97,0
0,67,102,1
0,62,102,0
0,81,92,21
0,67,98,1
0,62,99,0
0,83,99,1
0,47,95,0
0,67,104,1
0,50,98,0
0,55,105,0
0,62,102,0
0,43,98,0
0,54,68,0
0,47,100,1
0,50,98,0
0,62,102,1
0,67,104,0
0,55,105,0
0,62,69,0
0,71,77,0
0,67,102,0
0,72,77,0
0,62,104,0
0,47,101,1
0,71,79,0
0,67,101,0
0,62,102,0
0,55,104,2
0,50,100,0
0,62,104,0
0,71,85,0
0,55,105,0
0,67,103,0
0,69,80,0
0,69,81,0
0,67,102,0
0,62,102,0
0,55,104,1
0,55,105,0
0,67,104,1
0,50,95,0
0,62,103,0
0,64,69,4
0,57,104,0
0,50,88,0
0,81,111,1
0,66,102,0
0,62,103,0
0,67,85,0
0,71,81,0
0,69,75,21
0,50,95,0
0,45,64,0
0,54,91,0
0,57,104,1
0,62,104,0
0,66,104,0
0,67,73,1
0,66,102,0
0,62,102,1
0,64,67,1
0,66,101,0
0,62,103,0
0,50,87,1
0,57,104,0
0,62,66,22
0,45,91,0
0,57,102,0
0,62,102,0
0,50,102,0
0,66,104,1
0,66,102,0
0,62,103,0
0,57,101,1
0,57,104,1
0,66,102,0
0,62,104,0
0,62,98,1
0,55,80,0
0,79,95,0
0,76,86,1
0,52,93,0
0,48,70,0
0,55,103,1
0,62,104,0
0,67,104,1
0,48,99,0
0,55,106,1
0,52,100,0
0,62,102,0
0,67,104,1
0,54,81,1
0,67,102,1
0,62,102,0
0,62,66,0
0,55,104,0
0,52,97,1
0,67,81,0
0,67,101,0
0,62,100,0
0,55,93,1
0,67,80,0
0,52,95,0
0,48,97,0
0,62,101,0
0,67,104,1
0,67,79,0
0,67,102,0
0,62,103,0
0,55,104,0
0,52,97,1
0,64,75,0
0,52,99,0
0,55,104,0
0,48,97,0
0,62,102,0
0,67,102,1
0,71,83,0
0,67,93,0
0,62,95,0
0,55,86,0
0,69,78,1
0,74,85,0
0,47,93,1
0,43,77,0
0,55,104,0
0,50,91,0
0,67,81,1
0,67,104,0
0,62,102,0
0,43,82,0
0,54,81,0
0,55,104,1
0,50,95,0
0,47,93,1
0,62,102,0
0,67,104,0
0,57,13,27
0,49,18,12
0,57,29,21
0,67,105,0
0,55,104,0
0,62,106,0
0,50,101,0
0,43,93,1
0,47,97,0
0,49,35,2
0,57,39,11
0,49,43,8
0,57,48,1
0,67,104,0
0,62,105,0
0,50,91,1
0,55,104,0
0,49,56,17
0,43,108,1
0,43,95,0
0,55,107,0
0,50,101,0
0,62,105,0
0,67,104,1
0,47,98,0
0,57,34,19
0,49,41,10
0,67,103,1
0,62,102,1
0,57,54,2
0,49,64,16
0,38,106,1
0,55,107,0
0,62,104,0
0,67,104,1
0,67,88,0
0,62,94,0
0,59,85,0
0,62,94,0
0,67,95,4
0,49,63,2
0,83,88,0
0,43,97,0
0,71,90,0
0,31,95,0
0,50,99,0
0,55,107,0
0,62,102,0
0,47,98,0
0,67,104,1
0,31,104,1
0,43,80,0
0,54,68,0
0,55,106,1
0,50,97,0
0,62,104,1
0,67,105,0
0,71,85,0
0,67,85,1
0,71,88,0
0,71,92,0
0,62,102,1
0,67,102,0
0,55,102,1
0,72,96,0
0,67,102,1
0,62,104,0
0,55,104,1
0,50,95,0
0,31,101,1
0,47,101,0
0,50,95,0
0,55,106,1
0,62,103,0
0,43,98,0
0,71,82,0
0,71,89,0
0,67,102,0
0,62,102,0
0,55,105,0
0,50,100,1
0,31,98,8
0,50,98,1
0,67,104,0
0,55,104,0
0,62,105,0
0,31,97,3
0,62,100,2
0,50,75,1
0,62,82,1
0,66,89,6
0,69,93,4
0,74,95,5
0,38,98,0
0,81,88,2
0,45,96,0
0,50,98,0
0,62,102,1
0,57,103,0
0,66,104,0
0,69,86,0
0,69,78,0
0,69,87,0
0,57,106,0
0,50,100,0
0,38,104,1
0,62,102,0
0,66,102,0
0,54,77,0
0,41,76,1
0,67,79,0
0,38,101,6
0,71,84,0
0,66,101,0
0,62,102,0
0,42,102,0
0,57,101,0
0,69,82,0
0,38,97,0
0,66,102,0
0,62,102,0
0,57,101,0
0,45,91,1
0,69,82,0
0,67,78,17
0,43,101,1
0,57,104,0
0,50,99,0
0,66,103,1
0,62,102,0
0,41,52,3
0,66,101,0
0,42,96,0
0,62,102,0
0,57,104,1
0,38,104,0
0,50,100,0
0,57,105,0
0,62,103,0
0,66,104,1
0,62,100,1
0,38,104,1
0,55,90,0
0,71,91,5
0,67,95,1
0,64,97,1
0,36,102,0
0,79,96,1
0,76,73,0
0,52,95,0
0,60,81,0
0,62,105,1
0,55,102,0
0,67,105,0
0,48,96,2
0,55,104,0
0,62,101,0
0,36,103,1
0,52,97,0
0,67,102,0
0,54,77,0
0,62,69,0
0,64,74,0
0,43,102,7
0,67,104,0
0,62,104,0
0,55,102,1
0,52,99,0
0,67,85,0
0,36,90,0
0,62,99,0
0,67,101,0
0,55,93,1
0,42,100,1
0,67,87,0
0,52,100,0
0,62,104,1
0,67,104,0
0,48,95,0
0,67,70,0
0,64,84,0
0,42,91,0
0,67,102,0
0,62,104,0
0,55,104,0
0,52,94,0
0,43,97,0
0,48,97,1
0,71,79,0
0,55,106,0
0,52,95,0
0,62,102,1
0,67,103,0
0,69,66,2
0,43,103,1
0,67,101,1
0,62,100,0
0,50,60,1
0,59,60,10
0,62,77,6
0,74,82,2
0,31,99,0
0,67,78,0
0,47,98,0
0,50,98,0
0,43,87,1
0,67,102,0
0,62,102,0
0,55,104,0
0,71,75,3
0,67,73,2
0,31,99,1
0,43,81,0
0,47,100,0
0,54,70,0
0,55,105,1
0,50,98,0
0,62,104,1
0,67,102,0
0,31,96,10
0,67,102,0
0,62,104,0
0,55,104,0
0,50,89,1
0,31,99,6
0,35,105,0
0,67,102,0
0,62,102,0
0,55,102,1
0,36,100,0
0,43,93,0
0,62,102,0
0,55,105,0
0,47,96,0
0,50,91,1
0,67,102,0
0,38,95,1
0,67,102,0
0,62,102,1
0,41,111,1
0,50,82,1
0,47,87,0
0,38,96,0
0,62,102,0
0,67,102,1
0,67,95,0
0,42,97,0
0,62,95,0
0,59,74,5
0,62,86,2
0,83,98,2
0,47,97,0
0,55,107,0
0,43,100,0
0,50,93,0
0,67,104,0
0,62,102,0
0,67,89,0
0,71,87,6
0,62,76,0
0,31,98,0
0,50,98,0
0,43,72,0
0,47,97,0
0,54,70,0
0,55,105,1
0,71,96,0
0,62,102,0
0,67,102,0
0,71,85,0
0,72,79,0
0,43,103,1
0,67,104,0
0,62,102,0
0,55,104,1
0,71,84,0
0,47,88,3
0,67,102,1
0,38,103,1
0,62,100,0
0,71,83,0
0,55,102,0
0,50,77,1
0,31,98,0
0,55,106,0
0,50,98,0
0,62,104,0
0,67,104,1
0,71,92,0
0,67,101,1
0,62,101,1
0,43,108,0
0,50,99,1
0,31,94,2
0,71,92,0
0,67,102,0
0,47,101,0
0,62,104,0
0,31,99,3
0,64,75,0
0,62,86,1
0,62,73,5
0,66,77,7
0,69,86,3
0,69,85,0
0,38,103,0
0,81,103,0
0,45,79,0
0,50,95,0
0,74,75,1
0,62,102,1
0,66,104,0
0,57,101,0
0,69,81,0
0,69,85,0
0,38,102,1
0,57,104,0
0,66,102,1
0,62,104,1
0,54,70,0
0,42,105,2
0,71,84,0
0,62,100,0
0,66,100,0
0,57,100,1
0,69,86,0
0,38,96,0
0,62,95,0
0,66,100,0
0,57,88,1
0,69,85,0
0,43,105,0
0,57,104,0
0,50,96,0
0,66,102,1
0,62,102,0
0,67,80,0
0,42,101,0
0,66,102,0
0,62,101,0
0,67,84,0
0,57,103,0
0,38,100,1
0,57,101,0
0,62,101,1
0,66,102,0
0,67,90,0
0,64,77,0
0,55,75,0
0,71,94,1
0,67,91,5
0,64,93,2
0,79,91,1
0,76,81,0
0,60,81,0
0,36,112,1
0,52,93,0
0,55,104,0
0,62,104,1
0,48,78,0
0,67,104,0
0,71,88,0
0,69,71,0
0,67,91,0
0,69,85,10
0,52,95,1
0,55,102,0
0,48,89,0
0,54,77,0
0,36,107,1
0,62,104,0
0,67,102,0
0,67,75,0
0,67,64,0
0,67,74,0
0,43,104,1
0,67,102,0
0,62,103,0
0,55,103,1
0,71,93,0
0,36,94,0
0,67,100,0
0,62,98,1
0,67,76,0
0,42,104,1
0,48,93,0
0,55,102,1
0,62,104,0
0,67,104,0
0,52,100,1
0,69,81,0
0,67,102,0
0,43,104,1
0,62,102,0
0,55,104,1
0,67,80,0
0,52,100,0
0,48,101,0
0,62,101,0
0,43,104,1
0,67,104,0
0,43,95,1
0,67,95,0
0,67,86,0
0,59,74,4
0,62,86,6
0,67,90,6
0,31,104,0
0,74,76,0
0,55,106,1
0,62,102,0
0,50,91,0
0,71,87,0
0,47,91,1
0,67,102,0
0,43,89,0
0,43,94,0
0,50,98,0
0,54,99,0
0,55,106,1
0,67,102,0
0,62,102,0
0,47,98,1
0,67,84,2
0,43,113,4
0,67,102,0
0,62,101,1
0,55,100,0
0,31,103,0
0,44,89,1
0,67,93,0
0,35,108,0
0,67,101,0
0,62,101,1
0,45,109,1
0,47,121,0
0,36,106,0
0,67,88,0
0,50,96,0
0,43,86,0
0,62,100,0
0,55,106,0
0,67,102,1
0,38,108,0
0,44,85,17
0,71,95,0
0,43,127,1
0,41,119,0
0,67,100,0
0,62,100,0
0,55,88,0
0,50,95,0
0,69,96,0
0,36,108,0
0,43,72,0
0,55,102,0
0,41,93,1
0,50,98,0
0,62,102,0
0,67,104,0
0,38,97,0
0,67,93,0
0,67,101,1
0,62,101,0
0,38,108,1
0,69,95,9
0,48,72,0
0,67,103,1
0,79,90,0
0,83,98,0
0,76,88,0
0,52,90,0
0,36,106,0
0,55,116,0
0,59,113,0
0,35,111,1
0,49,101,0
0,64,113,0
0,54,76,0
0,48,74,0
0,52,89,0
0,55,104,0
0,60,102,0
0,64,102,0
0,71,98,21
0,54,62,0
0,51,92,23
0,67,92,0
0,54,63,0
0,60,81,22
0,54,40,1
0,48,53,0
0,52,80,0
0,55,110,0
0,59,111,0
0,38,117,1
0,51,96,0
0,36,97,0
0,52,98,0
0,48,81,0
0,55,104,0
0,71,72,0
0,64,104,0
0,54,66,0
0,64,103,0
0,60,102,0
0,67,80,6
0,54,39,2
0,60,84,22
0,54,59,0
0,51,89,1
0,64,113,0
0,71,104,0
0,59,113,0
0,54,51,0
0,64,100,0
0,55,100,0
0,60,100,0
0,55,106,0
0,52,83,0
0,52,85,1
0,67,86,8
0,54,71,0
0,51,93,1
0,64,101,0
0,64,110,0
0,60,101,1
0,55,104,0
0,60,83,1
0,59,104,0
0,54,40,0
0,48,82,1
0,48,73,1
0,52,90,0
0,55,108,0
0,36,104,1
0,59,100,0
0,71,103,0
0,54,69,0
0,35,111,1
0,51,86,0
0,60,102,0
0,55,103,0
0,48,100,0
0,64,102,0
0,67,98,6
0,54,43,0
0,48,68,1
0,52,88,0
0,55,117,0
0,38,127,1
0,51,103,0
0,59,114,0
0,64,111,0
0,54,76,0
0,64,69,1
0,60,78,0
0,62,70,0
0,71,85,0
0,54,49,0
0,64,100,0
0,55,104,1
0,60,99,0
0,62,80,0
0,38,106,0
0,59,103,0
0,64,106,0
0,51,89,1
0,52,97,0
0,48,96,0
0,67,95,0
0,54,66,0
0,55,108,0
0,64,98,1
0,60,101,0
0,62,80,1
0,54,43,0
0,71,88,0
0,64,96,0
0,59,97,0
0,50,69,0
0,67,31,0
0,43,33,4
0,47,50,1
0,31,104,0
0,50,70,0
0,35,111,1
0,51,93,0
0,55,109,0
0,54,70,0
0,83,80,0
0,79,77,0
0,59,110,0
0,67,109,0
0,86,100,1
0,59,101,1
0,55,104,0
0,50,91,0
0,43,91,1
0,67,100,0
0,47,99,0
0,69,92,0
0,54,24,3
0,54,66,23
0,51,75,1
0,69,88,0
0,54,48,15
0,67,97,0
0,47,83,0
0,38,117,1
0,31,108,0
0,43,95,0
0,55,105,0
0,50,90,0
0,55,111,0
0,54,73,0
0,51,91,0
0,47,94,0
0,67,104,0
0,50,97,0
0,59,105,0
0,59,111,0
0,67,111,0
0,54,40,0
0,67,83,0
0,54,62,19
0,51,76,1
0,31,94,0
0,64,83,4
0,67,112,0
0,59,111,0
0,67,102,0
0,54,41,0
0,35,111,1
0,59,103,0
0,55,99,0
0,43,112,0
0,55,105,0
0,47,97,1
0,62,87,5
0,51,95,13
0,54,62,0
0,38,96,1
0,67,100,1
0,59,103,0
0,67,111,0
0,54,46,0
0,35,85,1
0,55,101,0
0,50,88,0
0,47,100,0
0,59,109,0
0,55,104,0
0,47,72,0
0,42,102,0
0,50,70,0
0,51,88,1
0,54,63,0
0,35,111,0
0,43,87,0
0,55,104,0
0,59,104,0
0,67,102,0
0,54,53,22
0,71,110,0
0,38,120,1
0,51,92,0
0,50,99,0
0,55,117,0
0,54,66,0
0,59,113,0
0,67,84,1
0,67,113,0
0,42,104,2
0,67,100,0
0,59,101,0
0,54,53,0
0,69,101,0
0,50,95,0
0,55,104,0
0,71,87,0
0,47,85,1
0,50,78,0
0,51,95,1
0,43,95,0
0,55,113,0
0,54,65,0
0,55,105,0
0,47,93,0
0,59,108,0
0,67,110,0
0,50,101,1
0,59,98,0
0,43,91,0
0,67,91,0
0,54,43,0
0,59,85,1
0,69,86,10
0,48,78,0
0,35,111,1
0,49,94,0
0,52,95,0
0,52,90,0
0,54,71,0
0,79,89,0
0,76,97,0
0,83,98,0
0,55,104,0
0,55,113,0
0,67,88,1
0,36,112,0
0,48,91,0
0,64,100,0
0,60,104,1
0,59,113,0
0,64,106,1
0,71,103,15
0,54,37,0
0,51,72,23
0,67,87,0
0,54,66,0
0,60,73,23
0,54,48,0
0,52,87,0
0,48,65,0
0,38,110,1
