track,note,velocity,time
0,47,54,0
0,59,101,0
0,66,111,1
0,63,115,0
0,54,54,0
0,66,114,1
0,63,113,0
0,59,111,1
0,54,89,1
0,59,38,13
0,55,37,1
0,50,21,0
0,45,21,0
0,47,99,16
0,40,65,0
0,52,90,1
0,56,104,0
0,59,102,0
0,64,92,1
0,59,102,0
0,64,99,1
0,52,71,0
0,56,105,0
0,59,112,1
0,64,92,0
0,64,115,0
0,59,114,0
0,52,80,1
0,56,110,0
0,59,107,1
0,64,104,0
0,64,76,0
0,59,86,1
0,56,79,0
0,63,93,5
0,59,106,0
0,66,90,0
0,54,91,1
0,47,93,0
0,66,114,0
0,63,113,0
0,59,111,0
0,54,89,1
0,64,21,11
0,50,67,2
0,40,21,2
0,47,75,5
0,52,95,0
0,40,85,0
0,56,104,1
0,59,102,0
0,64,92,1
0,47,90,0
0,64,101,0
0,52,88,0
0,56,105,0
0,59,95,0
0,40,51,1
0,47,99,0
0,56,103,0
0,52,98,0
0,59,98,1
0,64,95,0
0,52,86,0
0,56,109,0
0,59,110,0
0,64,92,1
0,64,95,0
0,59,102,1
0,55,89,1
0,50,77,0
0,45,73,1
0,47,96,3
0,54,82,0
0,59,102,1
0,63,106,0
0,66,96,1
0,66,113,0
0,63,113,0
0,59,107,0
0,54,81,1
0,63,84,1
0,66,71,0
0,45,33,1
0,64,56,10
0,45,63,1
0,40,24,2
0,40,80,0
0,59,99,0
0,52,85,1
0,64,96,0
0,47,85,0
0,56,108,1
0,52,75,0
0,56,101,0
0,64,83,1
0,47,92,0
0,52,91,1
0,64,99,0
0,40,56,1
0,64,113,0
0,59,114,0
0,56,109,0
0,52,106,1
0,52,90,0
0,56,106,0
0,59,102,1
0,64,86,0
0,40,21,5
0,64,67,0
0,56,88,2
0,47,90,3
0,63,99,1
0,66,96,1
0,54,89,1
0,59,106,0
0,66,116,0
0,63,113,0
0,59,109,1
0,59,93,0
0,63,98,0
0,45,29,0
0,66,91,1
0,50,61,7
0,40,21,3
0,52,95,3
0,47,83,0
0,40,73,1
0,56,110,0
0,59,96,0
0,64,89,1
0,47,73,0
0,52,83,0
0,56,92,0
0,59,96,0
0,64,88,1
0,40,65,1
0,47,93,0
0,52,84,0
0,59,108,0
0,56,109,0
0,64,106,1
0,71,92,0
0,71,82,0
0,52,75,0
0,59,104,1
0,64,88,0
0,71,80,0
0,64,107,0
0,59,110,0
0,71,84,0
0,50,77,0
0,45,51,0
0,56,82,1
0,47,89,1
0,46,101,1
0,63,96,0
0,75,93,0
0,59,104,0
0,54,76,0
0,66,91,1
0,66,113,0
0,63,112,0
0,59,109,1
0,46,102,1
0,54,96,0
0,63,108,0
0,66,98,1
0,40,75,0
0,52,90,1
0,40,96,1
0,47,77,0
0,59,101,0
0,64,95,0
0,56,80,2
0,47,108,0
0,52,88,0
0,56,96,0
0,59,95,0
0,40,58,1
0,52,94,0
0,56,108,0
0,71,95,0
0,59,110,0
0,64,85,1
0,64,102,0
0,59,106,1
0,40,21,1
0,64,102,0
0,59,102,1
0,68,80,0
0,47,74,1
0,64,67,1
0,56,76,1
0,47,97,5
0,54,84,0
0,71,94,0
0,47,96,0
0,59,105,0
0,63,105,0
0,66,92,1
0,71,85,0
0,66,109,0
0,63,109,0
0,46,97,1
0,59,106,0
0,66,80,0
0,54,95,0
0,63,96,1
0,66,92,0
0,45,71,2
0,59,73,2
0,56,74,1
0,47,80,6
0,56,106,0
0,54,98,1
0,52,108,0
0,59,100,0
0,64,103,0
0,47,72,0
0,56,96,0
0,64,92,1
0,52,95,0
0,47,92,0
0,52,98,1
0,56,108,0
0,59,110,0
0,64,96,0
0,52,77,0
0,56,100,0
0,59,110,1
0,64,94,0
0,64,114,0
0,59,114,1
0,47,38,0
0,66,61,0
0,74,92,0
0,47,84,0
0,46,93,1
0,54,88,0
0,59,112,0
0,63,102,1
0,66,79,0
0,73,71,0
0,66,113,0
0,63,112,0
0,71,70,0
0,59,101,0
0,46,100,1
0,54,70,0
0,63,103,1
0,48,43,0
0,66,92,0
0,54,51,0
0,59,79,0
0,68,60,0
0,55,82,0
0,50,51,0
0,40,28,2
0,45,59,0
0,40,94,1
0,47,91,0
0,52,82,0
0,56,110,0
0,59,99,0
0,64,88,1
0,71,75,0
0,40,42,0
0,71,70,0
0,52,84,0
0,47,68,0
0,56,105,0
0,64,108,1
0,59,110,0
0,47,92,0
0,52,98,0
0,56,110,0
0,59,113,0
0,42,91,1
0,64,96,0
0,40,31,1
0,64,102,0
0,59,109,0
0,56,109,1
0,40,55,0
0,52,83,0
0,56,111,0
0,59,106,0
0,64,92,1
0,47,73,0
0,64,88,0
0,55,71,1
0,59,97,0
0,50,75,2
0,68,67,0
0,59,106,8
0,63,108,0
0,74,90,0
0,66,94,0
0,54,90,0
0,46,100,1
0,47,66,0
0,73,70,0
0,66,105,0
0,63,110,0
0,59,105,1
0,54,71,0
0,71,76,0
0,46,100,0
0,45,52,0
0,54,91,0
0,59,108,0
0,63,98,0
0,66,96,1
0,68,65,0
0,55,76,0
0,47,79,3
0,40,58,1
0,52,102,0
0,40,91,1
0,59,102,0
0,64,98,0
0,56,104,0
0,71,72,0
0,52,101,0
0,47,71,0
0,40,52,0
0,56,88,0
0,59,89,1
0,64,81,0
0,47,83,0
0,56,105,0
0,68,86,0
0,59,99,0
0,64,99,0
0,71,85,0
0,47,64,0
0,56,99,1
0,59,106,0
0,64,88,0
0,71,79,0
0,40,21,0
0,46,38,0
0,64,102,0
0,59,104,1
0,71,80,0
0,50,70,0
0,46,101,0
0,63,101,0
0,59,101,1
0,63,98,0
0,47,21,0
0,54,83,1
0,66,90,0
0,74,88,0
0,66,111,0
0,63,110,0
0,59,106,0
0,46,102,0
0,54,65,0
0,66,110,0
0,73,80,1
0,66,96,0
0,71,80,1
0,47,49,2
0,64,102,1
0,68,85,0
0,40,96,1
0,40,26,0
0,59,110,1
0,64,93,0
0,52,92,0
0,47,74,1
0,56,111,1
0,64,66,1
0,47,71,1
0,52,80,0
0,59,98,1
0,64,82,0
0,47,74,0
0,71,79,0
0,52,88,0
0,59,112,0
0,64,99,1
0,64,102,0
0,59,110,0
0,56,112,1
0,52,88,0
0,71,78,0
0,56,90,0
0,59,104,0
0,64,89,1
0,64,83,0
0,59,86,1
0,55,89,0
0,71,74,0
0,47,96,0
0,47,89,0
0,54,107,0
0,63,110,0
0,59,102,1
0,63,102,1
0,66,99,0
0,71,73,0
0,66,110,0
0,46,97,1
0,63,110,0
0,59,107,0
0,66,111,0
0,66,77,0
0,47,59,0
0,59,96,0
0,63,106,0
0,66,96,1
0,54,89,0
0,55,59,2
0,45,65,0
0,40,56,6
0,47,90,0
0,59,109,0
0,54,98,1
0,52,93,0
0,56,116,0
0,64,94,0
0,59,110,1
0,64,101,0
0,52,88,0
0,56,91,0
0,59,92,1
0,64,85,0
0,52,98,1
0,47,93,0
0,56,110,0
0,59,107,0
0,64,94,1
0,52,96,1
0,59,100,0
0,64,95,1
0,64,101,0
0,59,104,0
0,56,107,0
0,66,71,0
0,52,99,0
0,74,84,0
0,46,93,0
0,59,101,1
0,63,98,0
0,47,21,0
0,63,104,0
0,54,83,1
0,66,90,0
0,73,56,0
0,66,111,0
0,63,110,0
0,59,106,0
0,66,104,0
0,71,78,0
0,46,100,0
0,54,65,0
0,66,96,1
0,47,49,3
0,68,58,0
0,40,94,1
0,40,26,0
0,64,108,0
0,59,110,1
0,64,93,0
0,52,92,0
0,68,99,0
0,47,74,1
0,71,75,0
0,56,111,0
0,71,82,0
0,64,66,1
0,47,71,1
0,52,80,0
0,59,98,1
0,64,82,0
0,47,74,0
0,42,91,1
0,52,88,0
0,59,112,0
0,64,99,1
0,64,102,0
0,59,110,0
0,56,112,1
0,52,88,0
0,56,90,0
0,59,104,0
0,64,89,1
0,64,83,0
0,66,65,0
0,59,86,0
0,55,89,1
0,46,100,1
0,47,89,0
0,54,107,0
0,74,80,0
0,59,102,0
0,63,102,1
0,66,99,0
0,63,100,0
0,73,70,0
0,66,110,0
0,63,110,1
0,59,107,0
0,71,74,0
0,47,100,0
0,66,107,0
0,47,59,0
0,59,96,0
0,63,106,0
0,66,96,1
0,54,89,0
0,55,59,2
0,66,59,0
0,45,65,0
0,47,100,1
0,40,56,0
0,47,90,0
0,52,93,1
0,56,116,0
0,71,80,0
0,59,110,0
0,64,101,0
0,59,105,0
0,64,100,0
0,66,68,1
0,68,58,1
0,46,97,0
0,52,88,0
0,56,91,0
0,59,92,1
0,64,85,0
0,35,106,1
0,35,104,3
0,40,127,1
0,38,102,0
0,46,103,0
0,47,93,0
0,56,110,0
0,59,107,0
0,64,94,0
0,52,96,1
0,38,99,1
0,40,124,0
0,45,108,1
0,59,100,0
0,64,95,1
0,43,101,2
0,64,101,0
0,59,104,0
0,56,107,0
0,52,99,1
0,43,112,1
0,49,77,2
0,35,113,0
0,85,85,0
0,82,85,0
0,78,90,0
0,54,95,0
0,58,103,0
0,70,99,0
0,66,101,0
0,61,97,0
0,30,113,0
0,61,95,0
0,66,79,0
0,42,124,1
0,49,105,0
0,53,57,42
0,66,105,0
0,58,77,1
0,54,77,0
0,49,76,0
0,61,104,0
0,58,106,0
0,66,77,0
0,54,92,0
0,61,101,0
0,66,101,0
0,70,101,0
0,38,102,1
0,40,127,0
0,53,91,0
0,54,98,0
0,58,102,0
0,73,101,0
0,66,101,0
0,61,101,0
0,58,101,0
0,61,100,0
0,66,101,0
0,49,102,0
0,42,111,0
0,54,101,0
0,73,84,0
0,61,84,0
0,66,84,0
0,58,84,0
0,30,91,0
0,61,112,0
0,58,112,0
0,66,103,1
0,53,52,1
0,73,85,0
0,61,85,0
0,66,85,0
0,58,85,0
0,65,67,0
0,61,57,1
0,59,88,3
0,59,106,0
0,64,103,0
0,71,94,0
0,59,94,0
0,64,94,0
0,56,94,0
0,64,106,0
0,56,109,0
0,68,89,0
0,40,83,0
0,47,103,0
0,40,115,1
0,52,106,0
0,35,107,1
0,53,76,0
0,83,79,0
0,76,76,0
0,79,71,0
0,37,105,2
0,40,108,0
0,59,109,0
0,64,106,0
0,71,83,0
0,59,83,0
0,64,83,0
0,56,83,0
0,53,53,0
0,35,109,0
0,80,105,0
0,83,94,0
0,76,93,0
0,59,101,0
0,68,95,0
0,64,102,0
0,40,100,0
0,47,118,0
0,30,107,1
0,64,92,0
0,40,127,1
0,38,102,0
0,53,97,0
0,63,93,0
0,63,81,9
0,83,51,1
0,59,58,0
0,54,21,1
0,32,96,1
0,54,98,0
0,59,106,0
0,54,97,0
0,71,80,0
0,59,80,0
0,63,80,0
0,54,80,0
0,35,109,0
0,53,56,0
0,63,105,0
0,66,103,0
0,59,103,0
0,63,101,0
0,47,122,0
0,78,90,0
0,83,93,0
0,75,105,0
0,54,118,0
0,35,109,1
0,53,86,45
0,63,91,1
0,66,85,0
0,54,94,0
0,66,106,0
0,59,108,0
0,53,48,1
0,35,108,0
0,63,97,0
0,47,106,0
0,54,102,0
0,35,100,1
0,63,43,0
0,53,88,1
0,40,120,0
0,38,95,0
0,59,110,0
0,63,112,0
0,54,93,0
0,66,102,0
0,54,97,0
0,59,103,0
0,47,126,0
0,63,96,0
0,54,122,0
0,35,102,0
0,53,62,13
0,63,103,0
0,66,98,0
0,59,96,0
0,54,77,1
0,63,55,1
0,59,74,1
0,54,86,0
0,59,108,0
0,63,108,0
0,35,109,1
0,53,87,0
0,66,102,0
0,54,94,0
0,47,106,0
0,54,98,0
0,35,98,1
0,59,106,0
0,63,82,1
0,66,104,0
0,63,107,0
0,59,104,1
0,54,82,0
0,54,98,0
0,63,101,0
0,47,111,0
0,59,103,0
0,54,94,1
0,63,71,1
0,71,90,0
0,54,112,0
0,47,111,0
0,34,99,1
0,53,43,1
0,35,102,0
0,59,93,0
0,63,62,0
0,66,75,0
0,63,87,1
0,59,92,0
0,35,93,1
0,63,47,0
0,35,106,1
0,59,66,0
0,54,102,0
0,63,108,0
0,66,109,1
0,54,96,0
0,54,124,0
0,47,127,0
0,63,101,1
0,59,103,0
0,40,110,1
0,53,90,0
0,38,85,0
0,34,94,0
0,35,114,1
0,54,90,0
0,59,75,0
0,59,102,0
0,63,106,0
0,53,54,1
0,66,92,0
0,34,102,0
0,64,26,3
0,59,66,0
0,55,64,0
0,61,99,1
0,66,99,1
0,85,84,1
0,82,97,0
0,78,93,0
0,70,88,0
0,49,103,0
0,42,126,0
0,53,83,1
0,35,110,0
0,30,110,0
0,58,108,0
0,66,96,0
0,61,104,0
0,54,93,0
0,53,41,9
0,66,64,1
0,61,85,0
0,54,77,2
0,58,77,0
0,49,77,0
0,66,90,0
0,66,100,0
0,61,98,0
0,70,95,0
0,38,89,1
0,40,114,0
0,53,81,0
0,73,101,0
0,61,101,0
0,66,101,0
0,58,101,0
0,54,99,0
0,58,111,0
0,61,99,0
0,49,125,0
0,42,126,0
0,66,104,1
0,73,84,0
0,61,84,0
0,66,84,0
0,58,84,0
0,54,99,0
0,53,44,1
0,61,102,0
0,30,99,0
0,66,102,0
0,73,85,0
0,61,85,0
0,66,85,0
0,58,85,0
0,52,58,0
0,59,70,4
0,80,67,0
0,64,102,0
0,68,85,0
0,71,94,0
0,59,94,0
0,64,94,0
0,56,94,0
0,40,115,0
0,83,71,0
0,47,98,0
0,35,106,1
0,53,73,0
0,40,109,0
0,76,67,0
0,52,90,0
0,56,106,0
0,64,109,0
0,59,104,0
0,37,106,3
0,40,112,0
0,59,101,0
0,71,83,0
0,59,83,0
0,64,83,0
0,56,83,0
0,53,47,0
0,35,107,0
0,64,101,0
0,68,97,0
0,56,108,0
0,59,104,0
0,47,107,0
0,80,97,1
0,83,100,0
0,76,97,0
0,64,108,0
0,40,119,1
0,38,95,1
0,40,120,0
0,53,85,0
0,56,95,0
0,63,92,0
0,59,97,0
0,30,99,1
0,64,84,0
0,83,63,0
0,54,21,2
0,33,95,0
0,54,98,0
0,71,80,0
0,59,80,0
0,63,80,0
0,54,80,0
0,35,111,0
0,53,36,0
0,54,104,0
0,63,101,0
0,59,106,0
0,59,108,0
0,83,87,0
0,78,81,0
0,63,107,0
0,66,99,0
0,54,118,0
0,35,109,0
0,75,97,0
0,47,127,0
0,53,80,15
0,66,81,0
0,63,90,0
0,59,93,0
0,54,74,1
0,54,85,0
0,59,96,0
0,53,39,1
0,35,108,0
0,54,91,0
0,54,91,0
0,59,105,0
0,63,104,0
0,47,121,0
0,66,94,1
0,35,99,1
0,63,105,0
0,59,106,0
0,54,101,0
0,66,106,1
0,63,97,0
0,40,120,1
0,38,95,0
0,53,79,0
0,54,118,0
0,47,122,0
0,35,107,0
0,53,59,13
0,66,98,0
0,63,70,0
0,63,104,1
0,59,77,0
0,54,100,0
0,54,83,1
0,47,100,0
0,59,106,0
0,63,106,0
0,53,80,1
0,35,110,0
0,35,104,0
0,66,102,0
0,47,125,0
0,54,120,0
0,59,100,0
0,54,92,0
0,63,50,1
0,54,102,0
0,66,91,0
0,63,105,0
0,63,101,0
0,59,101,0
0,47,108,0
0,59,102,1
0,54,98,0
0,63,95,1
0,59,102,0
0,47,127,0
0,54,122,0
0,53,55,1
0,35,104,0
0,34,104,0
0,66,102,0
0,59,83,0
0,66,95,0
0,63,43,0
0,34,92,1
0,63,104,0
0,35,100,1
0,59,60,0
0,68,107,0
0,54,99,0
0,53,81,1
0,38,85,0
0,40,110,0
0,63,102,0
0,66,107,0
0,54,102,0
0,54,127,0
0,47,125,0
0,59,106,0
0,63,98,0
0,71,108,0
0,35,112,2
0,34,96,0
0,42,100,1
0,53,65,1
0,59,105,0
0,54,101,0
0,63,106,0
0,66,104,0
0,74,86,0
0,45,94,0
0,47,89,2
0,63,96,1
0,63,101,0
0,57,71,1
0,35,112,0
0,75,73,0
0,78,62,0
0,83,74,0
0,47,96,0
0,59,104,0
0,54,76,0
0,66,91,1
0,73,85,1
0,55,48,0
0,71,76,1
0,66,113,0
0,63,112,0
