track,note,velocity,time
0,52,102,836
0,57,101,24
0,60,115,28
0,57,105,14
0,60,109,0
0,64,108,0
0,64,105,13
0,64,0,145
0,52,0,4
0,57,0,0
0,60,0,8
0,69,100,8
0,52,110,16
0,64,96,2
0,57,100,1
0,60,107,1
0,69,0,65
0,64,0,45
0,52,0,18
0,57,0,4
0,60,0,22
0,57,100,24
0,69,97,0
0,52,104,6
0,64,117,2
0,60,82,8
0,60,0,18
0,52,0,16
0,57,0,2
0,69,0,23
0,55,107,29
0,59,92,4
0,69,95,4
0,62,92,4
0,64,0,32
0,59,0,12
0,62,0,7
0,55,0,39
0,69,0,2
0,64,0,34
0,57,0,3
0,60,0,5
0,69,109,28
0,55,117,13
0,62,98,5
0,55,117,2
0,62,112,0
0,59,97,2
0,59,107,2
0,69,0,156
0,59,0,4
0,72,115,0
0,62,0,4
0,55,0,6
0,62,58,0
0,57,71,6
0,54,75,2
0,64,71,0
0,64,0,26
0,57,0,2
0,62,0,8
0,54,0,6
0,62,76,48
0,57,87,2
0,64,79,2
0,54,78,3
0,72,0,16
0,64,0,2
0,57,0,5
0,54,0,4
0,62,0,2
0,55,0,31
0,59,0,9
0,62,0,4
0,71,114,12
0,54,102,6
0,57,114,0
0,62,116,4
0,64,105,2
0,62,99,16
0,57,120,2
0,64,118,1
0,69,83,187
0,71,0,2
0,69,0,136
0,57,0,58
0,64,0,8
0,57,0,2
0,62,0,2
0,62,0,2
0,64,0,8
0,54,0,7
0,52,97,21
0,57,99,10
0,57,103,8
0,60,106,14
0,60,109,11
0,64,104,13
0,64,101,13
0,52,0,99
0,64,0,0
0,57,0,4
0,60,0,5
0,52,88,45
0,57,97,1
0,72,91,1
0,60,74,13
0,64,86,13
0,72,0,80
0,52,0,24
0,64,0,7
0,57,0,11
0,60,0,1
0,52,95,31
0,72,107,8
0,57,84,3
0,60,94,17
0,64,98,7
0,52,0,19
0,72,0,10
0,57,0,10
0,64,0,2
0,60,0,5
0,72,94,31
0,57,90,2
0,60,89,2
0,52,108,2
0,64,82,4
0,52,0,88
0,72,0,4
0,64,0,6
0,57,0,10
0,60,0,6
0,72,106,56
0,52,104,1
0,60,82,0
0,57,100,1
0,64,88,1
0,52,0,155
0,64,0,1
0,60,0,7
0,57,0,6
0,74,109,18
0,72,0,5
0,52,71,11
0,60,89,0
0,64,74,1
0,57,95,3
0,64,0,22
0,52,0,4
0,57,0,0
0,60,0,7
0,57,118,57
0,52,119,2
0,60,94,6
0,64,0,1
0,64,60,3
0,74,0,2
0,57,0,6
0,60,0,4
0,64,0,11
0,57,0,1
0,52,0,4
0,60,0,2
0,71,112,34
0,55,99,21
0,55,87,3
0,59,97,2
0,64,96,3
0,59,95,1
0,47,90,4
0,52,95,9
0,55,0,301
0,59,0,0
0,71,0,0
0,47,0,48
0,52,0,0
0,52,102,40
0,57,101,24
0,57,92,13
0,60,115,15
0,60,106,2
0,64,0,19
0,64,94,1
0,55,0,2
0,64,105,3
0,59,0,1
0,64,0,2
0,64,0,142
0,52,0,4
0,57,0,0
0,60,0,8
0,69,89,8
0,52,110,16
0,64,96,2
0,57,100,1
0,60,107,1
0,69,0,60
0,64,0,50
0,52,0,18
0,57,0,4
0,60,0,22
0,69,100,16
0,57,100,8
0,52,104,6
0,64,117,2
0,60,82,8
0,60,0,18
0,52,0,16
0,57,0,2
0,69,0,2
0,55,107,50
0,69,97,2
0,59,92,2
0,62,92,8
0,64,0,32
0,59,0,12
0,62,0,7
0,69,0,31
0,55,0,8
0,57,0,7
0,60,0,12
0,55,95,50
0,69,110,5
0,59,102,8
0,55,117,3
0,62,98,5
0,59,97,4
0,62,92,4
0,59,0,158
0,69,0,1
0,62,0,3
0,72,112,4
0,55,0,2
0,62,58,0
0,57,71,6
0,54,75,2
0,64,71,0
0,64,0,26
0,57,0,2
0,62,0,8
0,54,0,6
0,62,76,48
0,57,87,2
0,64,79,2
0,54,78,3
0,72,0,2
0,64,0,16
0,57,0,5
0,54,0,4
0,62,0,2
0,55,0,2
0,62,0,14
0,59,0,10
0,54,102,36
0,57,114,0
0,74,113,2
0,62,116,2
0,64,105,2
0,57,113,28
0,62,102,0
0,64,107,0
0,69,86,184
0,74,0,4
0,69,0,176
0,57,0,20
0,62,0,2
0,64,0,10
0,57,0,4
0,54,0,3
0,64,0,6
0,62,0,4
0,52,97,11
0,57,103,18
0,57,91,11
0,60,105,13
0,60,109,1
0,64,101,26
0,64,94,11
0,52,0,88
0,64,0,0
0,57,0,4
0,60,0,5
0,72,87,43
0,52,88,2
0,57,97,1
0,60,74,14
0,64,86,13
0,72,0,77
0,52,0,27
0,64,0,7
0,57,0,11
0,60,0,1
0,52,95,31
0,72,108,4
0,57,84,7
0,60,94,17
0,64,98,7
0,52,0,19
0,72,0,13
0,57,0,7
0,64,0,2
0,60,0,5
0,72,93,30
0,57,90,3
0,60,89,2
0,52,108,2
0,64,82,4
0,52,0,88
0,64,0,10
0,72,0,2
0,57,0,8
0,60,0,6
0,52,104,57
0,60,82,0
0,57,100,1
0,72,104,0
0,64,88,1
0,52,0,155
0,64,0,1
0,60,0,7
0,57,0,6
0,72,0,0
0,74,114,27
0,52,71,7
0,60,89,0
0,64,74,1
0,57,95,3
0,64,0,22
0,52,0,4
0,57,0,0
0,60,0,7
0,57,118,57
0,52,119,2
0,60,94,6
0,64,0,0
0,64,60,4
0,57,0,4
0,74,0,3
0,60,0,5
0,60,0,4
0,64,0,7
0,57,0,1
0,52,0,4
0,71,104,58
0,55,87,2
0,55,99,4
0,64,99,0
0,59,95,2
0,59,90,2
0,47,90,2
0,52,95,9
0,55,0,301
0,59,0,0
0,71,0,46
0,47,0,2
0,52,0,0
0,55,0,44
0,59,0,0
0,64,0,0
0,55,96,34
0,55,86,0
0,60,113,14
0,60,103,0
0,64,111,20
0,64,101,0
0,67,105,10
0,67,95,0
0,55,0,119
0,55,0,0
0,67,0,3
0,67,0,0
0,60,0,8
0,60,0,0
0,64,0,6
0,64,0,0
0,55,79,30
0,55,69,0
0,60,84,4
0,60,74,0
0,64,88,17
0,64,78,0
0,67,85,7
0,67,75,0
0,67,0,118
0,67,0,0
0,64,0,5
0,64,0,0
0,60,0,5
0,60,0,0
0,55,0,15
0,55,0,0
0,76,115,23
0,55,114,10
0,55,104,0
0,60,76,6
0,60,66,0
0,64,80,12
0,64,70,0
0,55,0,1
0,55,0,0
0,60,0,5
0,60,0,0
0,64,0,10
0,64,0,0
0,76,0,22
0,60,118,43
0,60,108,0
0,76,109,0
0,55,119,3
0,55,109,0
0,64,111,0
0,64,101,0
0,67,93,6
0,67,83,0
0,67,0,92
0,67,0,0
0,76,0,2
0,64,0,10
0,64,0,0
0,60,0,4
0,60,0,0
0,55,0,4
0,55,0,0
0,74,109,58
0,52,119,15
0,52,109,0
0,55,113,7
0,55,103,0
0,59,74,20
0,59,64,0
0,64,80,12
0,64,70,0
0,52,0,94
0,52,0,0
0,64,0,16
0,64,0,0
0,55,0,5
0,55,0,0
0,59,0,11
0,59,0,0
0,52,84,20
0,52,74,0
0,71,107,8
0,55,77,4
0,55,67,0
0,59,53,3
0,59,43,0
0,74,0,0
0,55,0,15
0,55,0,0
0,59,0,4
0,59,0,0
0,52,0,9
0,52,0,0
0,71,0,39
0,55,114,11
0,55,104,0
0,59,103,11
0,59,93,0
0,64,86,9
0,64,76,0
0,59,0,15
0,59,0,0
0,64,0,1
0,64,0,0
0,55,0,4
0,55,0,0
0,52,119,61
0,52,109,0
0,71,114,0
0,55,116,2
0,55,106,0
0,64,104,0
0,64,94,0
0,59,94,2
0,59,84,0
0,52,0,136
0,52,0,0
0,52,90,52
0,52,80,0
0,74,108,2
0,64,0,8
0,64,0,0
0,71,0,2
0,55,0,9
0,55,0,0
0,59,0,3
0,59,0,0
0,52,0,4
0,52,0,0
0,52,127,64
0,52,117,0
0,55,114,4
0,55,104,0
0,59,97,6
0,59,87,0
0,74,0,0
0,64,97,2
0,64,87,0
0,52,0,42
0,52,0,0
0,64,0,36
0,64,0,0
0,55,0,2
0,55,0,0
0,52,93,4
0,52,83,0
0,74,100,4
0,59,0,1
0,59,0,0
0,52,0,25
0,52,0,0
0,50,120,60
0,50,110,0
0,55,109,3
0,55,99,0
0,62,104,7
0,62,94,0
0,59,75,12
0,59,65,0
0,57,73,3
0,57,63,0
0,57,0,81
0,57,0,0
0,62,0,38
0,62,0,0
0,59,0,6
0,59,0,0
0,50,0,18
0,50,0,0
0,55,0,0
0,55,0,0
0,50,98,38
0,50,88,0
0,55,107,0
0,55,97,0
0,59,99,10
0,59,89,0
0,74,0,0
0,62,94,2
0,62,84,0
0,50,0,37
0,50,0,0
0,62,0,69
0,62,0,0
0,55,0,4
0,55,0,0
0,59,0,0
0,59,0,0
0,50,92,62
0,50,82,0
0,74,102,2
0,55,101,3
0,55,91,0
0,59,88,5
0,59,78,0
0,62,68,2
0,62,58,0
0,50,0,10
0,50,0,0
0,55,0,2
0,55,0,0
0,62,0,5
0,62,0,0
0,59,0,1
0,59,0,0
0,74,0,18
0,74,98,52
0,59,110,6
0,59,100,0
0,50,110,2
0,50,100,0
0,55,118,0
0,55,108,0
0,62,96,2
0,62,86,0
0,50,0,90
0,50,0,0
0,55,0,21
0,55,0,0
0,62,0,15
0,62,0,0
0,74,0,10
0,59,0,1
0,59,0,0
0,50,90,24
0,72,104,13
0,50,100,11
0,57,84,7
0,62,96,4
0,57,94,20
0,62,106,4
0,50,0,98
0,62,0,20
0,50,0,4
0,57,0,12
0,62,0,8
0,50,76,13
0,50,66,0
0,69,102,1
0,57,0,2
0,72,0,10
0,57,46,4
0,57,36,0
0,50,0,10
0,50,0,0
0,57,0,12
0,57,0,0
0,69,0,22
0,50,99,35
0,50,89,0
0,57,83,5
0,57,73,0
0,62,73,2
0,62,63,0
0,62,0,20
0,62,0,0
0,57,0,2
0,57,0,0
0,50,0,4
0,50,0,0
0,69,109,54
0,50,122,10
0,50,112,0
0,57,99,2
0,57,89,0
0,62,104,0
0,62,94,0
0,50,0,134
0,50,0,0
0,69,0,30
0,74,109,20
0,50,111,8
0,50,101,0
0,62,0,19
0,62,0,0
0,57,0,1
0,57,0,0
0,50,0,14
0,50,0,0
0,74,0,56
0,50,127,2
0,50,122,0
0,62,98,8
0,62,88,0
0,57,95,4
0,57,85,0
0,50,0,38
0,50,0,0
0,57,0,40
0,57,0,0
0,72,102,5
0,62,0,11
0,62,0,0
0,52,79,15
0,52,69,0
0,57,112,49
0,57,102,0
0,60,106,14
0,60,96,0
0,64,97,3
0,53,112,13
0,64,107,11
0,64,0,112
0,52,0,4
0,52,0,0
0,60,0,11
0,60,0,0
0,57,0,2
0,57,0,0
0,64,0,7
0,52,109,31
0,52,99,0
0,57,86,0
0,60,85,2
0,60,75,0
0,64,105,5
0,64,95,0
0,57,96,7
0,72,0,24
0,52,0,59
0,52,0,0
0,52,54,28
0,52,44,0
0,64,0,15
0,64,0,0
0,60,0,7
0,60,0,0
0,57,0,7
0,57,0,14
0,72,98,11
0,57,82,17
0,60,74,2
0,60,64,0
0,64,92,5
0,64,82,0
0,57,92,3
0,57,0,15
0,52,0,1
0,52,0,0
0,64,0,1
0,64,0,0
0,57,0,8
0,60,0,7
0,60,0,0
0,72,0,2
0,72,91,48
0,52,123,8
0,52,113,0
0,57,112,0
0,57,102,0
0,60,102,4
0,60,92,0
0,64,100,2
0,64,90,0
0,53,0,46
0,72,0,32
0,64,0,18
0,64,0,0
0,60,0,13
0,60,0,0
0,57,0,3
0,57,0,0
0,52,0,4
0,52,0,0
0,48,117,62
0,48,107,0
0,52,111,4
0,52,101,0
0,72,110,4
0,55,92,4
0,55,82,0
0,60,87,0
0,60,77,0
0,48,0,114
0,48,0,0
0,67,93,62
0,72,0,4
0,48,103,2
0,48,93,0
0,60,0,12
0,60,0,0
0,52,0,6
0,52,0,0
0,55,0,1
0,55,0,0
0,48,0,23
0,48,0,0
0,67,0,34
0,48,74,10
0,48,64,0
0,52,96,4
0,52,86,0
0,55,95,4
0,55,85,0
0,60,109,8
0,60,99,0
0,48,0,4
0,48,0,0
0,52,0,4
0,52,0,0
0,55,0,20
0,55,0,0
0,60,0,8
0,60,0,0
0,67,108,36
0,52,109,15
0,52,99,0
0,55,116,4
0,55,106,0
0,60,67,33
0,60,57,0
0,59,65,2
0,59,55,0
0,64,56,2
0,64,46,0
0,60,0,21
0,60,0,0
0,52,0,88
0,52,0,0
0,52,100,49
0,52,90,0
0,64,0,12
0,64,0,0
0,67,0,0
0,69,94,0
0,55,0,12
0,55,0,0
0,59,0,1
0,59,0,0
0,52,0,18
0,52,0,0
0,55,119,47
0,55,109,0
0,52,110,1
0,52,100,0
0,59,98,6
0,59,88,0
0,64,116,0
0,64,106,0
0,52,0,45
0,52,0,0
0,69,0,2
0,55,0,30
0,55,0,0
0,59,0,12
0,59,0,0
0,52,81,4
0,52,71,0
0,67,104,12
0,64,0,4
0,64,0,0
0,52,0,12
0,52,0,0
0,55,107,64
0,59,97,2
0,62,86,6
0,67,81,2
0,55,117,4
0,59,107,0
0,62,96,0
0,67,91,0
0,55,0,124
0,55,0,14
0,59,0,18
0,67,0,7
0,67,0,3
0,59,0,2
0,62,0,0
0,62,0,6
0,55,109,18
0,55,99,0
0,59,99,0
0,59,89,0
0,62,70,0
0,62,60,0
0,67,80,0
0,67,70,0
0,55,0,122
0,55,0,0
0,67,0,3
0,67,0,0
0,62,0,7
0,62,0,0
0,59,0,2
0,59,0,0
0,55,63,58
0,55,53,0
0,59,94,0
0,59,84,0
0,62,94,0
0,62,84,0
0,67,105,0
0,67,95,0
0,67,0,28
0,67,0,0
0,59,0,7
0,59,0,0
0,62,0,3
0,62,0,0
0,55,0,6
0,55,0,0
0,55,116,52
0,55,106,0
0,59,102,0
0,59,92,0
0,62,109,0
0,62,99,0
0,67,102,0
0,67,92,0
0,67,0,77
0,67,0,53
0,67,0,0
0,62,0,2
0,62,0,0
0,59,0,6
0,59,0,0
0,55,0,17
0,55,0,0
0,55,110,37
0,55,100,0
0,59,102,0
0,59,92,0
0,62,91,0
0,62,81,0
0,67,105,0
0,67,95,0
0,55,0,81
0,55,0,0
0,59,0,85
0,59,0,0
0,67,0,11
0,67,0,0
0,62,0,3
0,62,0,0
0,55,93,12
0,55,83,0
0,55,0,64
0,55,0,0
0,55,83,32
0,55,73,0
0,59,74,0
0,59,64,0
0,62,78,0
0,62,68,0
0,67,56,0
0,67,46,0
0,59,0,16
0,59,0,0
0,62,0,2
0,62,0,0
0,67,0,2
0,67,0,0
0,55,0,9
0,55,0,0
0,55,119,67
0,55,109,0
0,59,115,0
0,59,105,0
0,62,106,0
0,62,96,0
0,67,114,0
0,67,104,0
0,55,0,108
0,55,0,0
0,55,99,84
0,55,89,0
0,62,0,16
0,62,0,0
0,67,0,12
0,67,0,0
0,59,0,2
0,59,0,0
0,55,0,36
0,55,0,0
0,55,106,30
0,55,96,0
0,59,108,0
0,59,98,0
0,62,108,0
0,62,98,0
0,67,110,0
0,67,100,0
0,67,0,47
0,67,0,0
0,62,0,9
0,62,0,0
0,55,0,6
0,55,0,0
0,59,0,4
0,59,0,0
0,38,87,30
0,45,116,0
0,52,116,0
0,57,116,0
0,38,0,4
0,38,108,28
0,38,0,4
0,45,0,10
0,52,0,0
0,57,0,0
0,45,116,2
0,52,116,0
0,57,116,0
0,45,0,46
0,52,0,0
0,57,0,0
0,33,121,2
0,36,111,0
0,45,111,0
0,52,118,0
0,57,103,0
0,57,107,0
0,57,114,0
0,60,112,0
0,64,113,0
0,36,0,4
0,57,0,138
0,60,0,0
0,64,0,0
0,38,104,50
0,57,119,0
0,60,105,0
0,64,105,0
0,64,124,0
0,38,0,4
0,64,0,168
0,62,108,20
0,38,95,192
0,38,0,4
0,57,0,28
0,45,0,10
0,52,0,4
0,57,0,0
0,60,0,0
0,64,0,0
0,33,0,8
0,43,110,42
0,45,112,0
