track,note,velocity,time
1,35,112,8544
1,35,0,230
1,30,112,442
1,30,0,96
1,35,106,0
1,35,0,202
1,35,106,566
1,35,0,232
1,30,112,440
1,35,106,96
1,30,0,2
1,35,0,222
1,35,112,544
1,35,0,230
1,30,112,442
1,30,0,96
1,35,106,0
1,35,0,202
1,35,106,566
1,35,0,232
1,30,112,440
1,30,0,94
1,31,118,2
1,31,0,178
1,31,112,110
1,31,0,14
1,31,118,82
1,31,0,244
1,31,106,44
1,31,0,16
1,43,100,80
1,38,112,2
1,43,0,6
1,38,0,4
1,31,94,10
1,31,0,294
1,35,112,72
1,35,0,230
1,30,112,442
1,30,0,96
1,35,106,0
1,35,0,202
1,35,106,566
1,35,0,232
1,30,112,440
1,30,0,94
1,31,118,2
1,31,0,178
1,31,112,110
1,31,0,14
1,31,118,82
1,31,0,244
1,31,106,44
1,31,0,16
1,43,100,80
1,38,112,2
1,43,0,6
1,38,0,4
1,31,94,10
1,31,0,294
1,35,106,72
1,35,0,224
1,35,112,544
1,35,0,230
1,30,112,442
1,30,0,96
1,35,106,0
1,35,0,202
1,35,106,566
1,35,0,232
1,30,112,440
1,30,0,94
1,31,118,2
1,31,0,178
1,31,112,110
1,31,0,14
1,31,118,82
1,31,0,244
1,31,106,44
1,31,0,16
1,43,100,80
1,38,112,2
1,43,0,6
1,38,0,4
1,31,94,10
1,31,0,294
1,35,112,72
1,35,0,230
1,30,112,442
1,30,0,96
1,35,106,0
1,35,0,202
1,35,106,566
1,35,0,232
1,30,112,440
1,30,0,94
1,31,118,2
1,31,0,178
1,31,112,110
1,31,0,14
1,31,118,82
1,31,0,244
1,31,106,44
1,31,0,16
1,43,100,80
1,38,112,2
1,43,0,6
1,38,0,4
1,31,94,10
1,31,0,294
1,35,106,72
1,35,0,184
1,30,118,104
1,30,0,36
1,35,118,60
1,35,0,180
1,30,106,12
1,30,0,84
1,35,112,12
1,35,0,58
1,28,112,38
1,28,0,260
1,35,106,28
1,35,0,286
1,40,94,2
1,40,0,78
1,35,90,18
1,35,0,80
1,28,106,16
1,28,0,276
1,40,106,12
1,40,0,278
1,35,94,10
1,35,0,86
1,28,106,10
1,28,0,92
1,26,100,4
1,26,0,272
1,38,100,16
1,38,0,270
1,33,100,18
1,33,0,190
1,26,100,2
1,26,0,250
1,33,106,38
1,33,0,94
1,38,94,2
1,33,106,192
1,38,0,4
1,33,0,186
1,37,106,2
1,25,86,288
1,37,0,12
1,25,0,44
1,37,94,136
1,25,94,288
1,37,0,26
1,25,0,218
1,37,106,44
1,37,0,88
1,25,94,8
1,25,0,84
1,32,106,12
1,37,94,96
1,32,0,6
1,25,90,90
1,37,0,6
1,42,106,90
1,25,0,4
1,42,0,256
1,30,90,28
1,30,0,374
1,42,112,10
1,30,106,192
1,30,0,58
1,42,0,18
1,37,100,20
1,37,0,88
1,42,94,8
1,42,0,84
1,37,86,12
1,30,106,96
1,37,0,16
1,30,0,68
1,37,100,12
1,37,0,190
1,28,112,2
1,28,0,260
1,35,106,28
1,35,0,286
1,40,94,2
1,40,0,78
1,35,90,18
1,35,0,80
1,28,106,16
1,28,0,276
1,40,106,12
1,40,0,278
1,35,94,10
1,35,0,86
1,28,106,10
1,28,0,92
1,26,112,4
1,26,0,200
1,26,118,88
1,26,0,30
1,26,112,66
1,26,0,250
1,49,112,38
1,49,0,92
1,45,112,4
1,45,0,90
1,26,112,6
1,26,0,70
1,42,112,26
1,42,0,80
1,38,112,16
1,38,0,90
1,35,106,6
1,33,72,96
1,35,0,6
1,33,0,60
1,26,112,30
1,26,0,154
1,37,106,38
1,25,86,288
1,37,0,12
1,25,0,44
1,37,94,136
1,25,94,288
1,37,0,26
1,25,0,218
1,37,106,44
1,37,0,88
1,25,94,8
1,25,0,84
1,32,106,12
1,37,94,96
1,32,0,6
1,25,90,90
1,37,0,6
1,42,106,90
1,25,0,4
1,42,0,256
1,30,90,28
1,30,0,374
1,42,112,10
1,30,106,192
1,30,0,58
1,42,0,18
1,37,100,20
1,37,0,88
1,42,94,8
1,42,0,84
1,37,86,12
1,30,106,96
1,37,0,16
1,30,0,68
1,37,100,12
1,37,0,190
1,31,118,2
1,31,0,32
1,31,118,64
1,31,0,92
1,31,112,100
1,31,0,16
1,31,118,80
1,31,0,24
1,31,118,72
1,31,0,94
1,31,112,98
1,31,0,16
1,31,106,80
1,31,0,22
1,31,118,74
1,31,0,84
1,31,106,108
1,31,0,14
1,31,106,82
1,31,0,22
1,31,118,74
1,31,0,90
1,31,112,102
1,31,0,26
1,33,112,70
1,33,0,30
1,33,106,66
1,33,0,84
1,33,106,108
1,33,0,24
1,33,106,72
1,33,0,30
1,33,112,66
1,33,0,108
1,33,106,84
1,33,0,24
1,33,118,72
1,33,0,32
1,33,106,64
1,33,0,92
1,33,100,100
1,33,0,18
1,33,100,78
1,33,0,24
1,33,112,72
1,33,0,94
1,33,106,98
1,33,0,38
1,34,106,58
1,34,0,20
1,34,112,76
1,34,0,94
1,34,56,2
1,34,0,16
1,34,106,80
1,34,0,24
1,34,100,72
1,34,0,22
1,34,106,74
1,34,0,95
1,34,52,1
1,34,0,2
1,34,106,94
1,34,0,30
1,34,106,66
1,34,0,26
1,34,106,70
1,34,0,82
1,34,52,14
1,34,0,12
1,34,100,84
1,34,0,32
1,34,100,64
1,34,0,32
1,34,106,64
1,34,0,86
1,34,90,10
1,34,0,28
1,35,100,68
1,35,0,28
1,35,118,68
1,35,0,200
1,35,118,88
1,35,0,24
1,35,118,72
1,35,0,306
1,35,118,78
1,35,0,186
1,33,112,6
1,30,106,192
1,33,0,2
1,30,0,174
1,33,118,16
1,33,0,132
1,31,118,60
1,31,0,32
1,31,118,64
1,31,0,92
1,31,112,100
1,31,0,16
1,31,118,80
1,31,0,24
1,31,118,72
1,31,0,94
1,31,112,98
1,31,0,16
1,31,106,80
1,31,0,22
1,31,118,74
1,31,0,84
1,31,106,108
1,31,0,14
1,31,106,82
1,31,0,22
1,31,118,74
1,31,0,90
1,31,112,102
1,31,0,26
1,33,112,70
1,33,0,30
1,33,106,66
1,33,0,84
1,33,106,108
1,33,0,24
1,33,106,72
1,33,0,30
1,33,112,66
1,33,0,108
1,33,106,84
1,33,0,24
1,33,118,72
1,33,0,32
1,33,106,64
1,33,0,92
1,33,100,100
1,33,0,18
1,33,100,78
1,33,0,24
1,33,112,72
1,33,0,94
1,33,106,98
1,33,0,38
1,33,112,58
1,33,0,30
1,33,118,66
1,33,0,118
1,33,106,74
1,33,0,22
1,33,106,74
1,33,0,24
1,33,112,72
1,33,0,216
1,33,106,72
1,33,0,26
1,33,118,70
1,33,0,112
1,33,106,80
1,33,0,20
1,33,106,76
1,33,0,22
1,33,118,74
1,33,0,34
1,33,112,62
1,33,0,86
1,31,112,10
1,30,118,96
1,31,0,2
1,30,0,32
1,30,118,62
1,30,0,106
1,30,112,86
1,30,0,22
1,30,112,74
1,30,0,30
1,30,112,66
1,30,0,216
1,30,112,72
1,30,0,24
1,30,118,72
1,30,0,118
1,30,106,74
1,30,0,26
1,30,100,70
1,30,0,24
1,30,118,72
1,30,0,140
1,30,100,52
1,30,0,44
1,37,106,52
1,37,0,22
1,37,112,74
1,37,0,114
1,37,106,78
1,37,0,18
1,37,112,78
1,37,0,20
1,37,106,76
1,37,0,132
1,37,100,60
1,37,0,40
1,31,112,56
1,31,0,18
1,31,118,78
1,31,0,116
1,31,112,76
1,31,0,22
1,31,118,74
1,31,0,26
1,31,112,70
1,31,0,142
1,31,100,50
1,31,0,44
1,30,112,52
1,30,0,28
1,30,118,68
1,30,0,118
1,30,100,74
1,30,0,24
1,30,112,72
1,30,0,26
1,30,112,70
1,30,0,164
1,42,112,28
1,42,0,74
1,30,106,22
1,30,0,24
1,30,112,72
1,30,0,280
1,42,106,8
1,42,0,86
1,37,86,10
1,37,0,76
1,30,100,20
1,30,0,74
1,42,100,22
1,42,0,38
1,31,112,58
1,31,0,22
1,31,112,74
1,31,0,92
1,31,106,100
1,31,0,20
1,31,106,76
1,31,0,24
1,31,106,72
1,31,0,194
1,31,106,94
1,31,0,24
1,31,112,72
1,31,0,106
1,31,106,86
1,31,0,26
1,31,106,70
1,31,0,24
1,31,106,72
1,31,0,128
1,31,100,64
1,31,0,22
1,33,112,74
1,33,0,30
1,33,118,66
1,33,0,112
1,33,112,80
1,33,0,28
1,33,106,68
1,33,0,28
1,33,112,68
1,33,0,210
1,33,112,78
1,33,0,28
1,33,112,68
1,33,0,110
1,33,106,82
1,33,0,32
1,33,112,64
1,33,0,30
1,33,112,66
1,33,0,120
1,33,106,72
1,33,0,36
1,37,106,60
1,37,0,22
1,37,112,74
1,37,0,114
1,37,106,78
1,37,0,18
1,37,112,78
1,37,0,20
1,37,106,76
1,37,0,132
1,37,100,60
1,37,0,40
1,31,112,56
1,31,0,18
1,31,118,78
1,31,0,116
1,31,112,76
1,31,0,22
1,31,118,74
1,31,0,26
1,31,112,70
1,31,0,142
1,31,100,50
1,31,0,44
1,30,112,52
1,30,0,28
1,30,118,68
1,30,0,118
1,30,100,74
1,30,0,24
1,30,112,72
1,30,0,26
1,30,112,70
1,30,0,164
1,42,112,28
1,42,0,74
1,30,106,22
1,38,112,98
1,30,0,14
1,38,0,92
1,38,106,10
1,38,0,122
1,35,112,16
1,35,0,230
1,30,112,442
1,30,0,96
1,35,106,0
1,35,0,202
1,35,106,566
1,35,0,232
1,30,112,440
1,30,0,94
1,31,118,2
1,31,0,178
1,31,112,110
1,31,0,14
1,31,118,82
1,31,0,244
1,31,106,44
1,31,0,16
1,43,100,80
1,38,112,2
1,43,0,6
1,38,0,4
1,31,94,10
1,31,0,294
1,35,112,72
1,35,0,230
1,30,112,442
1,30,0,96
1,35,106,0
1,35,0,202
1,35,106,566
1,35,0,232
1,30,112,440
1,30,0,94
1,31,118,2
1,31,0,178
1,31,112,110
1,31,0,14
1,31,118,82
1,31,0,244
1,31,106,44
1,31,0,16
1,43,100,80
1,38,112,2
1,43,0,6
1,38,0,4
1,31,94,10
1,31,0,294
1,35,106,72
1,35,0,224
1,28,118,544
1,35,48,192
1,35,0,20
1,28,0,66
1,40,106,10
1,40,0,252
1,35,106,36
1,35,0,86
1,40,94,10
1,28,112,96
1,40,0,2
1,28,0,180
1,35,64,10
1,35,0,88
1,40,94,8
1,35,90,288
1,40,0,2
1,35,0,80
1,40,100,14
1,26,106,96
1,40,0,18
1,33,52,174
1,33,0,38
1,26,0,54
1,38,106,4
1,38,0,270
1,33,94,18
1,33,0,82
1,38,82,14
1,26,106,96
1,38,0,12
1,26,0,270
1,38,112,6
1,38,0,276
1,33,100,12
1,33,0,86
1,38,94,10
1,25,100,96
1,38,0,28
1,25,0,250
1,37,106,10
1,37,0,266
1,32,106,22
1,32,0,64
1,37,106,32
1,37,0,70
1,25,106,26
1,25,0,266
1,37,106,22
1,37,0,268
1,32,100,20
1,32,0,72
1,37,106,24
1,30,106,96
1,37,0,4
1,42,112,284
1,30,0,2
1,42,0,276
1,37,106,10
1,37,0,78
1,42,106,18
1,42,0,102
1,30,106,90
1,30,0,58
1,37,100,38
1,37,0,88
1,42,94,8
1,42,0,84
1,37,86,12
1,30,106,96
1,37,0,16
1,30,0,68
1,37,100,12
1,37,0,190
1,28,112,2
1,28,0,260
1,35,106,28
1,35,0,286
1,40,94,2
1,40,0,78
1,35,90,18
1,35,0,80
1,28,106,16
1,28,0,276
1,40,106,12
1,40,0,278
1,35,94,10
1,35,0,86
1,28,106,10
1,28,0,92
1,26,112,4
1,26,0,200
1,26,118,88
1,26,0,30
1,26,112,66
1,26,0,250
1,49,112,38
1,49,0,92
1,45,112,4
1,45,0,90
1,26,112,6
1,26,0,70
1,42,112,26
1,42,0,80
1,38,112,16
1,38,0,90
1,35,106,6
1,33,72,96
1,35,0,6
1,33,0,60
1,26,112,30
1,26,0,154
1,37,106,38
1,25,86,288
1,37,0,12
1,25,0,44
1,37,94,136
1,25,94,288
1,37,0,26
1,25,0,218
1,37,106,44
1,37,0,88
1,25,94,8
1,25,0,84
1,32,106,12
1,37,94,96
1,32,0,6
1,25,90,90
1,37,0,6
1,42,106,90
1,25,0,4
1,42,0,256
1,30,90,28
1,30,0,374
1,42,112,10
1,30,106,192
1,30,0,58
1,42,0,18
1,37,100,20
1,37,0,88
1,42,94,8
1,42,0,84
1,37,86,12
1,30,106,96
1,37,0,16
1,30,0,68
1,37,100,12
1,37,0,190
1,31,118,2
1,31,0,32
1,31,118,64
1,31,0,92
1,31,112,100
1,31,0,16
1,31,118,80
1,31,0,24
1,31,118,72
1,31,0,94
1,31,112,98
1,31,0,16
1,31,106,80
1,31,0,22
1,31,118,74
1,31,0,84
1,31,106,108
1,31,0,14
1,31,106,82
1,31,0,22
1,31,118,74
1,31,0,90
1,31,112,102
1,31,0,26
1,33,112,70
1,33,0,30
1,33,106,66
1,33,0,84
1,33,106,108
1,33,0,24
1,33,106,72
1,33,0,30
1,33,112,66
1,33,0,108
1,33,106,84
1,33,0,24
1,33,118,72
1,33,0,32
1,33,106,64
1,33,0,92
1,33,100,100
1,33,0,18
1,33,100,78
1,33,0,24
1,33,112,72
1,33,0,94
1,33,106,98
1,33,0,38
1,34,106,58
1,34,0,20
1,34,112,76
1,34,0,94
1,34,56,2
1,34,0,16
1,34,106,80
1,34,0,24
1,34,100,72
1,34,0,22
1,34,106,74
1,34,0,95
1,34,52,1
1,34,0,2
1,34,106,94
1,34,0,30
1,34,106,66
1,34,0,26
1,34,106,70
1,34,0,82
1,34,52,14
1,34,0,12
1,34,100,84
1,34,0,32
1,34,100,64
1,34,0,32
1,34,106,64
1,34,0,86
1,34,90,10
1,34,0,28
1,35,100,68
1,35,0,28
1,35,118,68
1,35,0,200
1,35,118,88
1,35,0,24
1,35,118,72
1,35,0,306
1,35,118,78
1,35,0,186
1,33,112,6
1,30,106,192
1,33,0,2
1,30,0,174
1,33,118,16
1,33,0,132
1,31,118,60
1,31,0,32
1,31,118,64
1,31,0,92
1,31,112,100
1,31,0,16
1,31,118,80
1,31,0,24
1,31,118,72
1,31,0,94
1,31,112,98
1,31,0,16
1,31,106,80
1,31,0,22
1,31,118,74
1,31,0,84
1,31,106,108
1,31,0,14
1,31,106,82
1,31,0,22
1,31,118,74
1,31,0,90
1,31,112,102
1,31,0,26
1,33,112,70
1,33,0,30
1,33,106,66
1,33,0,84
1,33,106,108
1,33,0,24
1,33,106,72
1,33,0,30
1,33,112,66
1,33,0,108
1,33,106,84
1,33,0,24
1,33,118,72
1,33,0,32
1,33,106,64
1,33,0,92
1,33,100,100
1,33,0,18
1,33,100,78
1,33,0,24
1,33,112,72
1,33,0,94
1,33,106,98
1,33,0,38
1,33,112,58
1,33,0,30
1,33,118,66
1,33,0,118
1,33,106,74
1,33,0,22
1,33,106,74
1,33,0,24
1,33,112,72
1,33,0,216
1,33,106,72
1,33,0,26
1,33,118,70
1,33,0,112
1,33,106,80
1,33,0,20
1,33,106,76
1,33,0,22
1,33,118,74
1,33,0,34
1,33,112,62
1,33,0,86
1,31,112,10
1,30,118,96
1,31,0,2
1,30,0,32
1,30,118,62
1,30,0,106
1,30,112,86
1,30,0,22
1,30,112,74
1,30,0,30
1,30,112,66
1,30,0,216
1,30,112,72
1,30,0,24
1,30,118,72
1,30,0,118
1,30,106,74
1,30,0,26
1,30,100,70
1,30,0,24
1,30,118,72
1,30,0,140
1,30,100,52
1,30,0,44
1,37,106,52
1,37,0,22
1,37,112,74
1,37,0,114
1,37,106,78
1,37,0,18
1,37,112,78
1,37,0,20
1,37,106,76
1,37,0,132
1,37,100,60
1,37,0,40
1,31,112,56
1,31,0,18
1,31,118,78
1,31,0,116
1,31,112,76
1,31,0,22
1,31,118,74
1,31,0,26
1,31,112,70
1,31,0,142
1,31,100,50
1,31,0,44
1,30,112,52
1,30,0,28
1,30,118,68
1,30,0,118
1,30,100,74
1,30,0,24
1,30,112,72
1,30,0,26
