track,note,velocity,time
1,29,119,7748
1,41,105,4
1,41,105,4
1,29,119,4
1,41,105,4
1,29,119,4
1,41,105,4
1,29,119,4
1,41,105,4
1,29,119,4
1,41,105,4
1,29,119,4
1,41,105,4
1,29,119,4
1,41,105,4
1,29,119,2
1,41,105,4
1,29,119,68
1,41,105,4
1,41,105,4
1,29,119,4
1,41,105,4
1,29,119,4
1,41,105,4
1,29,119,4
1,41,105,4
1,29,119,4
1,41,105,4
1,29,119,4
1,41,105,4
1,29,119,4
1,41,105,4
1,29,119,2
1,41,105,4
1,29,119,68
1,41,105,4
1,41,105,4
1,29,119,4
1,41,105,4
1,29,119,4
1,41,105,4
1,29,119,4
1,41,105,4
1,29,119,4
1,41,105,4
1,29,119,4
1,41,105,4
1,29,119,4
1,41,105,4
1,29,119,2
1,41,105,4
1,29,119,68
1,41,105,4
1,41,105,4
1,29,119,4
1,41,105,4
1,29,119,4
1,41,105,4
1,29,119,4
1,41,105,4
1,29,119,4
1,41,105,4
1,29,119,4
1,41,105,4
1,29,119,4
1,41,105,4
1,29,119,2
1,41,105,4
1,31,119,68
1,43,105,4
1,43,105,4
1,31,119,4
1,43,105,4
1,31,119,4
1,43,105,4
1,31,119,4
1,43,105,4
1,33,119,4
1,45,105,4
1,45,99,4
1,33,119,4
1,45,105,4
1,33,119,4
1,45,105,4
1,33,119,2
1,45,105,4
1,34,119,6
1,46,105,4
1,46,105,4
1,34,119,4
1,46,105,4
1,34,119,4
1,46,105,4
1,34,119,4
1,46,105,4
1,36,119,4
1,48,105,4
1,36,119,4
1,48,105,4
1,36,119,4
1,48,105,4
1,36,119,2
1,48,105,4
1,36,119,8
1,48,105,4
1,36,119,4
1,48,105,4
1,36,119,4
1,48,105,4
1,36,119,2
1,35,102,96
1,34,100,18
1,32,97,26
1,31,95,26
1,30,93,26
1,29,90,26
1,28,83,26
1,27,81,26
1,26,76,26
1,29,119,4
1,41,105,4
1,29,119,4
1,41,105,4
1,29,119,4
1,41,105,4
1,41,99,4
1,29,119,4
1,41,105,4
1,29,119,4
1,41,105,4
1,29,119,4
1,41,105,4
1,29,119,4
1,41,105,4
1,29,119,2
1,41,105,4
1,33,119,68
1,45,105,4
1,33,119,4
1,45,105,4
1,33,119,4
1,45,105,4
1,33,119,4
1,45,105,4
1,33,119,4
1,45,105,4
1,33,119,4
1,45,105,4
1,33,119,4
1,45,105,4
1,45,99,4
1,33,119,4
1,45,105,4
1,31,119,68
1,43,105,4
1,31,119,4
1,43,105,4
1,31,119,4
1,43,105,4
1,31,119,4
1,43,105,4
1,31,119,4
1,43,105,4
1,31,119,4
1,43,105,4
1,31,119,4
1,43,105,4
1,31,119,2
1,43,105,4
1,29,119,68
1,41,105,4
1,29,119,4
1,41,105,4
1,29,119,4
1,41,105,4
1,41,99,4
1,29,119,4
1,41,105,4
1,29,119,4
1,41,105,4
1,31,119,4
1,43,105,4
1,32,119,4
1,44,105,4
1,33,119,2
1,45,105,4
1,29,119,68
1,41,105,4
1,29,119,4
1,41,105,4
1,29,119,4
1,41,105,4
1,41,99,4
1,29,119,4
1,41,105,4
1,29,119,4
1,41,105,4
1,29,119,4
1,41,105,4
1,29,119,4
1,41,105,4
1,29,119,2
1,41,105,4
1,33,119,68
1,45,105,4
1,33,119,4
1,45,105,4
1,33,119,4
1,45,105,4
1,33,119,4
1,45,105,4
1,33,119,4
1,45,105,4
1,33,119,4
1,45,105,4
1,33,119,4
1,45,105,4
1,45,99,4
1,33,119,4
1,45,105,4
1,31,119,68
1,43,105,4
1,31,119,4
1,43,105,4
1,31,119,4
1,43,105,4
1,31,119,4
1,43,105,4
1,31,119,4
1,43,105,4
1,31,119,4
1,43,105,4
1,31,119,4
1,43,105,4
1,31,119,2
1,43,105,4
1,29,119,68
1,41,105,4
1,29,119,4
1,41,105,4
1,29,119,4
1,41,105,4
1,41,99,4
1,29,119,4
1,41,105,4
1,29,119,4
1,41,105,4
1,31,119,4
1,43,105,4
1,32,119,4
1,44,105,4
1,33,119,2
1,45,105,4
1,29,119,68
1,41,105,4
1,41,105,4
1,29,119,4
1,41,105,4
1,29,119,4
1,41,105,4
1,29,119,4
1,41,105,4
1,29,119,4
1,41,105,4
1,29,119,4
1,41,105,4
1,29,119,4
1,41,105,4
1,29,119,2
1,41,105,4
1,29,119,68
1,41,105,4
1,41,105,4
1,29,119,4
1,41,105,4
1,29,119,4
1,41,105,4
1,29,119,4
1,41,105,4
1,29,119,4
1,41,105,4
1,29,119,4
1,41,105,4
1,29,119,4
1,41,105,4
1,29,119,2
1,41,105,4
1,29,119,68
1,41,105,4
1,41,105,4
1,29,119,4
1,41,105,4
1,29,119,4
1,41,105,4
1,29,119,4
1,41,105,4
1,29,119,4
1,41,105,4
1,29,119,4
1,41,105,4
1,29,119,4
1,41,105,4
1,29,119,2
1,41,105,4
1,29,119,68
1,41,105,4
1,41,105,4
1,29,119,4
1,41,105,4
1,29,119,4
1,41,105,4
1,29,119,4
1,41,105,4
1,29,119,4
1,41,105,4
1,29,119,4
1,41,105,4
1,29,119,4
1,41,105,4
1,29,119,2
1,41,105,4
1,29,119,68
1,41,105,4
1,41,105,4
1,29,119,4
1,41,105,4
1,29,119,4
1,41,105,4
1,29,119,4
1,41,105,4
1,29,119,4
1,41,105,4
1,29,119,4
1,41,105,4
1,29,119,4
1,41,105,4
1,29,119,2
1,41,105,4
1,29,119,68
1,41,105,4
1,29,119,4
1,41,105,4
1,29,119,4
1,41,105,4
1,41,99,4
1,29,119,4
1,41,105,4
1,29,119,4
1,41,105,4
1,31,119,4
1,43,105,4
1,32,119,4
1,44,105,4
1,33,119,2
1,45,105,4
1,29,119,68
1,41,105,4
1,41,105,4
1,29,119,4
1,41,105,4
1,29,119,4
1,41,105,4
1,29,119,4
1,41,105,4
1,29,119,4
1,41,105,4
1,29,119,4
1,41,105,4
1,29,119,4
1,41,105,4
1,29,119,2
1,41,105,4
1,29,119,68
1,41,105,4
1,41,105,4
1,29,119,4
1,41,105,4
1,29,119,4
1,41,105,4
1,29,119,4
1,41,105,4
1,29,119,4
1,41,105,4
1,29,119,4
1,41,105,4
1,29,119,4
1,41,105,4
1,29,119,2
1,41,105,4
1,29,119,68
1,41,105,4
1,41,105,4
1,29,119,4
1,41,105,4
1,29,119,4
1,41,105,4
1,29,119,4
1,41,105,4
1,29,119,4
1,41,105,4
1,29,119,4
1,41,105,4
1,29,119,4
1,41,105,4
1,29,119,2
1,41,105,4
1,29,119,68
1,41,105,4
1,41,105,4
1,29,119,4
1,41,105,4
1,29,119,4
1,41,105,4
1,29,119,4
1,41,105,4
1,29,119,4
1,41,105,4
1,29,119,4
1,41,105,4
1,29,119,4
1,41,105,4
1,29,119,2
1,41,105,4
1,36,119,68
1,48,105,4
1,36,119,4
1,48,105,4
1,36,119,4
1,48,105,4
1,36,119,2
1,48,105,4
1,36,119,8
1,48,105,4
1,36,119,4
1,48,105,4
1,36,119,4
1,48,105,4
1,36,119,2
1,35,102,96
1,34,100,18
1,32,97,26
1,31,95,26
1,30,93,26
1,29,90,26
1,28,83,26
1,27,81,26
1,26,76,26
1,29,119,4
1,41,105,4
1,29,119,4
1,41,105,4
1,29,119,4
1,41,105,4
1,41,99,4
1,29,119,4
1,41,105,4
1,29,119,4
1,41,105,4
1,29,119,4
1,41,105,4
1,29,119,4
1,41,105,4
1,29,119,2
1,41,105,4
1,33,119,68
1,45,105,4
1,33,119,4
1,45,105,4
1,33,119,4
1,45,105,4
1,33,119,4
1,45,105,4
1,33,119,4
1,45,105,4
1,33,119,4
1,45,105,4
1,33,119,4
1,45,105,4
1,45,99,4
1,33,119,4
1,45,105,4
1,31,119,68
1,43,105,4
1,31,119,4
1,43,105,4
1,31,119,4
1,43,105,4
1,31,119,4
1,43,105,4
1,31,119,4
1,43,105,4
1,31,119,4
1,43,105,4
1,31,119,4
1,43,105,4
1,31,119,2
1,43,105,4
1,29,119,68
1,41,105,4
1,29,119,4
1,41,105,4
1,29,119,4
1,41,105,4
1,41,99,4
1,29,119,4
1,41,105,4
1,29,119,4
1,41,105,4
1,31,119,4
1,43,105,4
1,32,119,4
1,44,105,4
1,33,119,2
1,45,105,4
1,29,119,68
1,41,105,4
1,29,119,4
1,41,105,4
1,29,119,4
1,41,105,4
1,41,99,4
1,29,119,4
1,41,105,4
1,29,119,4
1,41,105,4
1,29,119,4
1,41,105,4
1,29,119,4
1,41,105,4
1,29,119,2
1,41,105,4
1,33,119,68
1,45,105,4
1,33,119,4
1,45,105,4
1,33,119,4
1,45,105,4
1,33,119,4
1,45,105,4
1,33,119,4
1,45,105,4
1,33,119,4
1,45,105,4
1,33,119,4
1,45,105,4
1,45,99,4
1,33,119,4
1,45,105,4
1,31,119,68
1,43,105,4
1,31,119,4
1,43,105,4
1,31,119,4
1,43,105,4
1,31,119,4
1,43,105,4
1,31,119,4
1,43,105,4
1,31,119,4
1,43,105,4
1,31,119,4
1,43,105,4
1,31,119,2
1,43,105,4
1,29,119,68
1,41,105,4
1,29,119,4
1,41,105,4
1,29,119,4
1,41,105,4
1,41,99,4
1,29,119,4
1,41,105,4
1,29,119,4
1,41,105,4
1,31,119,4
1,43,105,4
1,32,119,4
1,44,105,4
1,33,119,2
1,45,105,4
1,29,119,68
1,41,105,4
1,41,105,4
1,29,119,4
1,41,105,4
1,29,119,4
1,41,105,4
1,29,119,4
1,41,105,4
1,29,119,4
1,41,105,4
1,29,119,4
1,41,105,4
1,29,119,4
1,41,105,4
1,29,119,2
1,41,105,4
1,29,119,68
1,41,105,4
1,41,105,4
1,29,119,4
1,41,105,4
1,29,119,4
1,41,105,4
1,29,119,4
1,41,105,4
1,29,119,4
1,41,105,4
1,29,119,4
1,41,105,4
1,29,119,4
1,41,105,4
1,29,119,2
1,41,105,4
1,29,119,68
1,41,105,4
1,41,105,4
1,29,119,4
1,41,105,4
1,29,119,4
1,41,105,4
1,29,119,4
1,41,105,4
1,29,119,4
1,41,105,4
1,29,119,4
1,41,105,4
1,29,119,4
1,41,105,4
1,29,119,2
1,41,105,4
1,29,119,68
1,41,105,4
1,41,105,4
1,29,119,4
1,41,105,4
1,29,119,4
1,41,105,4
1,29,119,4
1,41,105,4
1,29,119,4
1,41,105,4
1,29,119,4
1,41,105,4
1,29,119,4
1,41,105,4
1,29,119,2
1,41,105,4
1,29,119,68
1,41,105,4
1,41,105,4
1,29,119,4
1,41,105,4
1,29,119,4
1,41,105,4
1,29,119,4
1,41,105,4
1,29,119,4
1,41,105,4
1,29,119,4
1,41,105,4
1,29,119,4
1,41,105,4
1,29,119,2
1,41,105,4
1,29,119,68
1,41,105,4
1,29,119,4
1,41,105,4
1,29,119,4
1,41,105,4
1,41,99,4
1,29,119,4
1,41,105,4
1,29,119,4
1,41,105,4
1,31,119,4
1,43,105,4
1,32,119,4
1,44,105,4
1,33,119,2
1,45,105,4
1,29,119,68
1,41,105,4
1,41,105,4
1,29,119,4
1,41,105,4
1,29,119,4
1,41,105,4
1,29,119,4
1,41,105,4
1,29,119,4
1,41,105,4
1,29,119,4
1,41,105,4
1,29,119,4
1,41,105,4
1,29,119,2
1,41,105,4
1,29,119,68
1,41,105,4
1,41,105,4
1,29,119,4
1,41,105,4
1,29,119,4
1,41,105,4
1,29,119,4
1,41,105,4
1,29,119,4
1,41,105,4
1,29,119,4
1,41,105,4
1,29,119,4
1,41,105,4
1,29,119,2
1,41,105,4
1,29,119,68
1,41,105,4
1,41,105,4
1,29,119,4
1,41,105,4
1,29,119,4
1,41,105,4
1,29,119,4
1,41,105,4
1,29,119,4
1,41,105,4
1,29,119,4
1,41,105,4
1,29,119,4
1,41,105,4
1,29,119,2
1,41,105,4
1,29,119,68
1,41,105,4
1,41,105,4
1,29,119,4
1,41,105,4
1,29,119,4
1,41,105,4
1,29,119,4
1,41,105,4
1,29,119,4
1,41,105,4
1,29,119,4
1,41,105,4
1,29,119,4
1,41,105,4
1,29,119,2
1,41,105,4
1,31,119,68
1,43,105,4
1,43,105,4
1,31,119,4
1,43,105,4
1,31,119,4
1,43,105,4
1,31,119,4
1,43,105,4
1,33,119,4
1,45,105,4
1,45,99,4
1,33,119,4
1,45,105,4
1,33,119,4
1,45,105,4
1,33,119,2
1,45,105,4
1,34,119,6
1,46,105,4
1,46,105,4
1,34,119,4
1,46,105,4
1,34,119,4
1,46,105,4
1,34,119,4
1,46,105,4
1,36,119,4
1,48,105,4
1,36,119,4
1,48,105,4
1,36,119,4
1,48,105,4
1,36,119,2
1,48,105,4
1,36,119,8
1,48,105,4
1,36,119,4
1,48,105,4
1,36,119,4
1,48,105,4
1,36,119,2
1,35,102,96
1,34,100,18
1,32,97,26
1,31,95,26
1,30,93,26
1,29,90,26
1,28,83,26
1,27,81,26
1,26,76,26
1,41,120,11932
1,40,72,132
1,38,67,34
1,36,64,38
1,35,64,38
1,29,119,4
1,41,105,4
1,29,119,4
1,41,105,4
1,29,119,4
1,41,105,4
1,41,99,4
1,29,119,4
1,41,105,4
1,29,119,4
1,41,105,4
1,29,119,4
1,41,105,4
1,29,119,4
1,41,105,4
1,29,119,2
1,41,105,4
1,33,119,68
1,45,105,4
1,33,119,4
1,45,105,4
1,33,119,4
1,45,105,4
1,33,119,4
1,45,105,4
1,33,119,4
1,45,105,4
1,33,119,4
1,45,105,4
1,33,119,4
1,45,105,4
1,45,99,4
1,33,119,4
1,45,105,4
1,31,119,68
1,43,105,4
1,31,119,4
1,43,105,4
1,31,119,4
1,43,105,4
1,31,119,4
1,43,105,4
1,31,119,4
1,43,105,4
1,31,119,4
1,43,105,4
1,31,119,4
1,43,105,4
1,31,119,2
1,43,105,4
1,29,119,68
1,41,105,4
1,29,119,4
1,41,105,4
1,29,119,4
1,41,105,4
1,41,99,4
1,29,119,4
1,41,105,4
1,29,119,4
1,41,105,4
1,31,119,4
1,43,105,4
1,32,119,4
1,44,105,4
1,33,119,2
1,45,105,4
1,29,119,68
1,41,105,4
1,29,119,4
1,41,105,4
1,29,119,4
1,41,105,4
1,41,99,4
1,29,119,4
1,41,105,4
1,29,119,4
1,41,105,4
1,29,119,4
1,41,105,4
1,29,119,4
1,41,105,4
1,29,119,2
1,41,105,4
1,33,119,68
1,45,105,4
1,33,119,4
1,45,105,4
1,33,119,4
1,45,105,4
1,33,119,4
1,45,105,4
1,33,119,4
1,45,105,4
1,33,119,4
1,45,105,4
1,33,119,4
1,45,105,4
1,45,99,4
1,33,119,4
1,45,105,4
1,31,99,68
1,43,96,4
1,31,93,4
1,43,90,4
1,31,87,4
1,43,84,4
1,31,81,4
1,43,78,4
1,31,75,4
1,43,72,4
1,31,69,4
1,43,66,4
1,31,63,4
1,43,60,4
1,31,57,2
1,43,54,4
1,29,51,68
1,41,48,4
1,29,45,4
1,41,42,4
1,29,39,4
1,41,36,4
1,41,34,4
1,29,33,4
1,41,30,4
1,29,27,4
1,41,24,4
1,31,21,4
1,43,18,4
1,32,15,4
1,44,12,4
1,33,9,2
1,45,6,4
2,65,95,1696
2,65,95,4
2,65,109,102
2,65,104,162
2,65,95,60
2,65,99,68
2,65,99,68
2,65,109,108
2,65,104,108
2,65,99,102
2,65,109,22
2,65,99,102
2,65,99,90
2,65,99,8
2,65,99,22
2,65,109,70
2,65,95,122
2,65,95,108
2,65,95,4
2,65,109,102
2,65,104,162
2,65,95,60
2,65,99,68
2,65,99,68
2,65,109,108
2,65,104,108
2,65,99,102
2,65,109,22
2,65,99,102
2,65,99,90
2,65,99,8
2,65,99,22
2,65,109,70
2,65,95,122
2,65,95,108
2,65,95,4
2,65,109,102
2,65,104,162
2,65,95,60
2,65,99,68
2,65,99,68
2,65,109,108
2,65,104,108
2,65,99,102
2,65,109,22
2,65,99,102
2,65,99,90
2,65,99,8
2,65,99,22
2,65,109,70
2,65,95,122
2,65,95,108
2,65,95,4
2,65,109,102
2,65,104,162
2,65,95,60
2,65,99,68
2,65,99,68
2,65,109,108
