track,note,velocity,time
1,64,127,0
1,64,127,84
1,67,127,92
1,64,126,192
1,67,126,24
1,69,127,24
1,71,127,24
1,71,127,796
1,71,123,72
1,69,127,36
1,67,117,24
1,69,127,368
1,64,105,48
1,64,126,328
1,64,126,80
1,67,127,36
1,69,127,192
1,67,127,0
1,71,127,372
1,71,127,468
1,71,127,108
1,75,127,48
1,71,127,12
1,69,127,348
1,71,127,24
1,74,127,220
1,71,127,92
1,69,127,84
1,67,127,12
1,67,127,264
1,67,110,164
1,71,127,140
1,71,126,128
1,69,126,72
1,67,125,36
1,64,115,120
1,62,126,1536
1,67,127,160
1,67,127,32
1,67,127,24
1,67,127,36
1,69,127,120
1,69,125,12
1,67,127,20
1,71,127,392
1,71,127,96
1,71,127,84
1,74,127,36
1,71,127,384
1,69,127,148
1,71,127,52
1,71,127,96
1,74,127,60
1,76,127,84
1,64,127,6256
1,67,127,36
1,64,111,320
1,69,127,36
1,71,127,348
1,67,117,932
1,71,127,124
1,71,127,108
1,69,127,60
1,67,127,24
1,69,122,372
1,64,115,36
1,64,127,588
1,64,127,120
1,67,127,96
1,64,125,12
1,67,124,184
1,69,127,0
1,67,127,12
1,71,127,196
1,69,127,604
1,71,127,24
1,71,127,124
1,75,127,60
1,71,127,192
1,69,127,216
1,71,127,380
1,76,125,20
1,74,127,568
1,71,127,24
1,69,127,344
1,71,127,228
1,67,126,40
1,64,127,60
1,67,127,64
1,64,127,132
1,71,127,136
1,69,127,200
1,67,117,8
1,69,127,208
1,64,127,24
1,64,127,132
1,67,127,36
1,67,126,12
1,67,127,40
1,69,127,208
1,69,127,48
1,67,125,752
1,71,127,76
1,71,127,84
1,71,127,84
1,71,127,128
1,74,127,24
1,71,127,28
1,69,127,12
1,71,127,392
1,71,127,96
1,69,127,108
1,67,127,36
1,71,125,8
1,71,127,932
1,74,127,12
1,76,127,0
1,64,127,33080
1,64,127,212
1,67,127,128
1,64,123,24
1,67,127,48
1,69,127,120
1,71,127,72
1,71,127,1072
1,71,127,92
1,69,127,24
1,67,127,12
1,69,127,368
1,71,127,28
1,64,123,60
1,64,127,492
1,64,127,252
1,67,127,192
1,69,127,472
1,71,127,24
1,69,127,616
1,71,127,20
1,71,127,176
1,75,127,84
1,71,127,92
1,69,127,164
1,71,127,548
1,76,127,192
1,74,127,492
1,71,127,12
1,69,127,156
1,71,127,84
1,67,121,8
1,64,127,156
1,67,127,128
1,67,127,108
1,67,127,308
1,64,127,156
1,64,126,192
1,67,127,12
1,64,127,12
1,67,127,16
1,67,127,120
1,69,127,936
1,69,127,108
1,71,127,12
1,71,127,96
1,71,127,392
1,71,127,36
1,74,127,364
1,71,127,8
1,69,127,0
1,71,127,212
1,71,127,84
1,71,127,1420
1,74,127,72
1,76,127,12
2,23,127,55488
2,23,127,88
2,31,127,196
2,26,127,36
2,28,127,52
2,28,127,120
2,28,127,116
2,28,127,124
2,28,127,120
2,23,127,0
2,23,127,80
2,31,127,196
2,26,127,24
2,28,127,56
2,28,127,100
2,28,127,132
2,28,127,132
2,28,127,136
2,23,127,24
2,23,127,56
2,31,127,16
2,26,127,48
2,28,127,68
2,28,127,108
2,28,127,104
2,28,127,128
2,28,127,88
2,23,127,8
2,23,127,112
2,31,127,12
2,26,127,32
2,28,127,96
2,28,127,108
2,28,127,100
2,28,127,136
2,28,127,124
2,23,127,44
2,23,127,96
2,31,127,24
2,26,127,68
2,28,127,100
2,28,127,112
2,28,127,112
2,28,127,124
2,28,127,104
2,28,127,0
2,23,127,4
2,23,127,108
2,31,127,12
2,26,127,48
2,23,127,56
2,23,127,92
2,23,127,140
2,23,127,120
2,23,127,108
2,23,127,96
2,23,127,128
2,26,127,104
2,28,127,84
2,28,127,100
2,28,127,96
2,28,127,120
2,28,127,136
2,23,127,0
2,23,127,88
2,31,127,192
2,26,127,12
2,28,127,28
2,28,127,84
2,28,127,88
2,28,127,112
2,28,127,88
2,23,127,0
2,23,127,112
2,31,127,0
2,26,127,72
2,19,127,56
2,19,127,64
2,19,127,76
2,19,127,80
2,19,127,88
2,19,127,52
2,19,127,76
2,19,127,68
2,21,127,36
2,21,127,40
2,21,127,64
2,21,127,64
2,21,127,76
2,21,127,48
2,21,127,80
2,21,127,64
2,23,127,60
2,23,127,124
2,23,127,132
2,23,127,132
2,23,127,132
2,23,127,104
2,23,127,132
2,26,127,116
2,28,127,88
2,28,127,88
2,28,127,112
2,28,127,112
2,28,127,124
2,23,127,24
2,23,127,64
2,31,127,0
2,26,127,12
2,28,127,4
2,28,127,96
2,28,127,104
2,28,127,112
2,28,127,100
2,23,127,12
2,23,127,100
2,31,127,192
2,26,127,32
2,28,127,100
2,28,127,108
2,28,127,120
2,28,127,124
2,28,127,100
2,23,127,192
2,23,127,88
2,31,127,4
2,26,127,36
2,28,127,96
2,28,127,112
2,28,127,104
2,28,127,120
2,28,127,124
2,23,127,8
2,23,127,100
2,31,127,24
2,26,127,56
2,28,127,120
2,28,127,120
2,28,127,124
2,28,127,136
2,28,127,124
2,23,127,192
2,23,127,120
2,31,127,12
2,26,127,88
2,28,127,64
2,28,127,124
2,28,127,104
2,28,127,112
2,28,127,112
2,23,127,36
2,23,127,112
2,31,127,16
2,26,127,40
2,23,127,100
2,23,127,88
2,23,127,132
2,23,127,136
2,23,127,128
2,23,127,96
2,23,127,120
2,26,127,68
2,28,127,36
2,28,127,76
2,28,127,104
2,28,127,124
2,28,127,124
2,23,127,20
2,23,127,100
2,31,127,12
2,26,127,72
2,28,127,88
2,28,127,104
2,28,127,116
2,28,127,116
2,28,127,124
2,23,127,12
2,23,127,96
2,31,127,8
2,26,127,52
2,19,127,76
2,19,127,64
2,19,127,88
2,19,127,92
2,19,127,100
2,19,127,88
2,19,127,92
2,19,127,80
2,21,127,68
2,21,127,52
2,21,127,80
2,21,127,76
2,21,127,76
2,21,127,60
2,21,127,64
2,21,127,76
2,23,127,68
2,23,127,136
2,23,127,132
2,23,127,108
2,23,127,108
2,23,127,132
2,23,127,156
2,26,127,120
2,28,127,72
2,28,127,112
2,28,127,112
2,28,127,136
2,28,127,160
2,23,127,0
2,23,127,100
2,31,127,4
2,26,127,32
2,28,127,64
2,28,127,108
2,28,127,124
2,28,127,136
2,28,127,136
2,23,127,0
2,23,127,112
2,31,127,8
2,26,127,68
2,28,127,120
2,28,127,108
2,28,127,136
2,28,127,160
2,28,127,148
2,23,127,12
2,23,127,128
2,31,127,8
2,26,127,56
2,28,127,108
2,28,127,124
2,28,127,120
2,28,127,180
2,28,127,140
2,23,127,188
2,23,127,132
2,31,127,16
2,26,127,28
2,28,127,84
2,28,127,112
2,28,127,104
2,28,127,136
2,28,127,136
2,23,127,8
2,23,127,112
2,31,127,12
2,26,127,84
2,23,127,88
2,23,127,104
2,23,127,124
2,23,127,124
2,23,127,132
2,23,127,84
2,23,127,44
2,23,127,52
2,26,127,76
2,28,127,20
2,28,127,92
2,28,127,100
2,28,127,88
2,28,127,100
2,23,127,8
2,23,127,116
2,31,127,12
2,26,127,40
2,28,127,100
2,28,127,112
2,28,127,124
2,28,127,148
2,28,127,124
2,23,127,12
2,23,127,120
2,31,127,192
2,26,127,72
2,19,127,16
2,19,127,76
2,19,127,104
2,19,127,100
2,19,127,104
2,19,127,52
2,19,127,88
2,19,127,88
2,21,127,52
2,21,127,68
2,21,127,100
2,21,127,92
2,21,127,92
2,21,127,72
2,21,127,84
2,21,127,76
2,23,127,76
2,23,127,164
2,23,127,144
2,23,127,112
2,23,127,124
2,23,127,68
2,23,127,68
2,23,127,52
2,26,127,64
2,28,127,380
2,28,127,124
2,28,127,136
2,28,127,136
2,28,127,120
2,23,127,12
2,23,127,120
2,31,127,188
2,26,127,52
2,28,127,88
2,28,127,120
2,28,127,124
2,28,127,124
2,28,127,128
2,23,127,20
2,23,127,136
2,31,127,192
2,26,127,52
2,28,127,72
2,28,127,100
2,28,127,124
2,28,127,116
2,28,127,112
2,23,127,0
2,23,127,120
2,31,127,12
2,26,127,72
2,28,127,96
2,28,127,124
2,28,127,140
2,28,127,140
2,28,127,124
2,23,127,8
2,23,127,120
2,31,127,4
2,26,127,68
2,28,127,112
2,28,127,132
2,28,127,116
2,28,127,100
2,28,127,116
2,23,127,0
2,23,127,80
2,31,127,196
2,31,127,52
2,26,127,8
2,23,127,64
2,23,127,108
2,23,127,124
2,23,127,92
2,23,127,100
2,23,127,108
2,23,127,96
2,26,127,72
2,28,127,92
2,28,127,92
2,28,127,112
2,28,127,112
2,28,127,136
2,23,127,192
2,23,127,112
2,31,127,0
2,26,127,380
2,28,127,380
2,28,127,108
2,28,127,116
2,28,127,104
2,28,127,92
2,23,127,192
2,23,127,108
2,31,127,0
2,26,127,44
2,19,127,12
2,19,127,100
2,19,127,100
2,19,127,104
2,19,127,112
2,19,127,76
2,19,127,80
2,19,127,88
2,21,127,92
2,21,127,64
2,21,127,92
2,21,127,80
2,21,127,92
2,21,127,52
2,21,127,76
2,21,127,76
2,23,127,84
2,23,127,148
2,23,127,156
2,23,127,144
2,23,127,84
2,23,127,32
2,23,127,64
2,23,127,40
2,26,127,52
2,28,127,64
2,28,127,120
2,28,127,108
2,28,127,120
2,28,127,76
2,23,127,192
2,23,127,100
2,31,127,0
2,26,127,8
2,28,127,16
2,28,127,116
2,28,127,68
2,28,127,116
2,28,127,80
2,23,127,192
2,23,127,104
2,31,127,192
2,26,127,16
2,28,127,56
2,28,127,112
2,28,127,116
2,28,127,116
2,28,127,124
2,23,127,8
2,23,127,108
2,31,127,0
2,26,127,20
2,28,127,56
2,28,127,112
2,28,127,116
2,28,127,104
2,28,127,100
2,23,127,0
2,23,127,124
2,31,127,8
2,26,127,384
2,28,127,24
2,28,127,108
2,28,127,96
2,28,127,120
2,28,127,112
2,23,127,0
2,23,127,96
2,31,127,192
2,26,127,384
2,16,127,4
3,52,105,0
3,64,69,0
3,59,92,0
3,59,114,132
3,63,50,0
3,59,56,104
3,62,114,104
3,67,110,0
3,57,99,88
3,62,99,0
3,64,78,32
3,59,74,0
3,64,47,96
3,59,28,0
3,64,92,128
3,59,78,4
3,64,34,100
3,59,30,0
3,64,49,116
3,59,39,4
3,64,110,120
3,59,92,0
3,64,37,52
3,59,29,4
3,64,99,144
3,59,78,0
3,59,117,136
3,59,66,92
3,62,114,88
3,67,114,0
3,57,105,72
3,62,105,0
3,64,92,64
3,59,92,4
3,64,46,60
3,59,40,0
3,64,99,116
3,59,92,4
3,64,45,64
3,59,38,0
3,64,52,120
3,59,42,4
3,64,105,116
3,59,82,4
3,64,45,40
3,59,34,4
3,64,99,116
3,59,78,0
3,59,71,100
3,59,54,32
3,59,59,84
3,62,105,100
3,67,105,0
3,62,105,88
3,57,110,0
3,59,87,44
3,64,99,4
3,64,38,64
3,59,25,0
3,64,74,132
3,59,59,0
3,64,36,104
3,59,26,0
3,64,69,156
3,59,52,4
3,64,38,132
3,64,78,152
3,59,56,4
3,59,34,116
3,64,40,0
3,64,48,136
3,59,37,0
3,59,117,128
3,59,69,116
3,62,105,100
3,67,105,0
3,57,110,72
3,62,110,0
3,59,59,0
3,59,82,60
3,64,92,0
3,64,40,72
3,59,32,0
3,64,99,128
3,59,78,4
3,64,51,72
3,59,38,0
3,64,45,128
3,59,33,4
3,59,66,128
3,64,99,0
3,64,39,100
3,59,33,4
3,59,59,116
3,64,78,0
3,64,33,64
3,59,16,4
3,59,52,128
3,64,54,4
3,59,48,112
3,59,56,100
3,62,105,100
3,67,99,0
3,57,110,76
3,62,105,0
3,59,56,56
3,64,62,0
3,64,51,112
3,59,39,0
3,64,92,140
3,59,71,4
3,64,35,100
3,59,28,0
3,64,52,128
3,59,40,4
3,64,99,128
3,59,66,0
3,64,38,92
3,59,29,4
3,64,87,116
3,59,61,4
3,64,40,92
3,59,28,0
3,59,74,136
3,59,55,92
3,59,71,96
3,62,110,88
3,67,110,0
3,62,105,68
3,57,92,0
3,59,71,80
3,59,52,96
3,66,95,112
3,59,87,4
3,63,48,0
3,66,48,56
3,59,38,0
3,66,51,112
3,59,41,0
3,66,88,104
3,59,87,0
3,63,59,0
3,66,48,28
3,59,36,4
3,66,78,116
3,59,69,0
3,66,54,104
3,59,46,0
3,66,48,116
3,59,42,4
3,66,48,104
3,59,36,0
3,59,82,120
3,66,88,0
3,57,110,100
3,62,110,0
3,64,92,56
3,59,87,0
3,64,43,52
3,59,37,4
3,59,82,132
3,64,99,0
3,64,44,60
3,59,35,0
3,59,37,128
3,64,41,4
3,59,66,128
3,64,87,0
3,59,36,84
3,64,41,4
3,59,64,128
3,64,82,0
3,59,34,88
3,64,42,4
3,59,105,128
3,64,52,4
3,59,56,104
3,67,105,100
3,62,105,0
3,57,110,68
3,62,105,0
3,59,69,56
3,64,82,0
3,64,42,72
3,59,35,0
3,64,92,128
3,59,82,4
3,64,36,52
3,59,30,0
3,64,38,108
3,59,32,4
3,64,92,116
3,59,71,0
3,59,57,104
3,64,82,0
3,59,42,80
3,59,53,116
3,59,52,88
3,62,92,100
3,67,92,0
3,57,87,76
3,62,92,0
3,55,114,92
3,62,117,0
3,64,110,104
3,57,117,0
3,66,88,64
3,59,105,0
3,63,49,0
3,66,57,244
3,59,53,4
3,59,30,104
3,66,31,0
3,66,78,128
3,59,64,4
3,66,35,88
3,59,31,0
3,66,42,108
3,59,36,0
3,59,87,140
3,66,88,0
3,66,43,108
3,59,38,0
3,66,45,128
3,59,33,0
3,59,36,132
3,66,46,0
3,59,71,120
3,66,78,0
3,57,114,164
3,62,110,0
3,59,78,48
3,64,78,0
3,64,33,92
3,59,30,0
3,59,66,132
3,64,87,4
3,64,32,92
3,59,28,0
3,64,39,120
3,59,28,4
3,64,87,128
3,59,62,0
3,64,62,176
3,59,53,0
3,59,17,144
3,64,41,0
3,64,41,140
3,59,36,0
3,59,51,128
3,62,92,104
3,67,99,0
3,57,87,72
3,62,92,0
3,59,69,24
3,64,82,0
3,64,24,40
3,59,31,0
3,64,78,116
3,59,62,4
3,64,34,88
3,59,26,0
3,64,33,116
3,59,30,4
3,64,78,128
3,59,59,0
3,64,38,44
3,59,24,4
3,64,74,116
3,59,56,0
3,59,50,152
3,64,32,0
3,59,56,116
3,64,34,0
3,59,43,96
3,62,92,104
3,67,92,0
3,57,92,72
3,62,99,4
3,59,66,32
3,64,87,0
3,64,41,88
3,59,35,0
3,59,69,136
3,64,92,0
3,64,34,52
3,59,27,0
3,64,38,128
3,59,36,4
3,64,82,120
3,59,66,0
3,64,40,40
3,59,28,4
3,64,99,144
3,59,69,0
3,64,35,116
3,59,48,160
3,64,59,0
3,59,39,116
3,59,59,112
3,62,105,108
3,67,87,0
3,57,82,88
3,62,87,0
3,59,66,76
3,64,78,4
3,59,37,80
3,64,41,0
3,64,87,128
3,59,69,4
3,64,38,64
3,59,31,0
3,64,41,124
3,59,32,0
3,64,82,132
3,59,64,0
3,64,33,124
3,59,69,148
3,64,92,0
3,64,41,56
3,59,31,0
3,59,57,128
3,59,50,116
3,59,45,108
3,62,99,116
3,67,99,0
3,57,99,80
3,62,99,0
3,64,78,76
3,59,62,0
3,59,35,88
3,64,38,4
3,64,78,116
3,59,64,4
3,64,33,100
3,59,28,4
3,64,36,132
3,59,31,4
3,64,78,128
3,59,62,0
3,64,31,4
3,64,78,148
3,59,64,0
3,59,48,136
3,64,37,0
3,59,42,128
3,64,31,0
3,59,39,128
3,64,29,0
3,62,92,120
3,67,87,0
3,57,87,92
3,62,87,0
3,59,51,508
3,64,55,4
3,64,35,132
3,59,32,0
3,64,39,128
3,59,27,4
3,64,82,140
3,59,64,0
3,64,45,104
3,59,34,4
3,64,82,128
3,59,66,0
3,59,31,92
3,64,40,0
3,59,82,132
3,64,45,0
3,59,27,48
3,59,57,116
3,62,105,108
3,67,87,0
3,57,82,80
3,62,82,0
3,59,71,88
3,66,78,4
3,66,32,72
3,59,29,0
3,66,82,108
3,59,74,4
3,66,47,68
3,59,30,0
