track,note,velocity,time
1,48,107,0
1,43,78,0
1,36,98,192
1,39,107,0
1,43,78,0
1,41,107,0
1,53,81,0
1,48,107,192
1,43,78,0
1,36,98,192
1,39,107,0
1,43,78,0
1,41,107,0
1,53,81,0
1,48,107,192
1,43,78,0
1,36,98,192
1,39,107,0
1,43,78,0
1,41,107,0
1,53,81,0
1,48,107,192
1,43,78,0
1,36,98,192
1,39,107,0
1,43,78,0
1,41,107,0
1,53,81,0
1,48,107,192
1,43,78,0
1,36,98,192
1,39,107,0
1,43,78,0
1,41,107,0
1,53,81,0
1,48,107,192
1,43,78,0
1,36,98,192
1,39,107,0
1,43,78,0
1,41,107,0
1,53,81,0
1,41,104,192
1,41,78,0
1,41,84,192
1,48,107,0
1,51,95,0
1,46,84,0
1,48,107,192
1,43,78,0
1,36,98,192
1,39,107,0
1,43,78,0
1,48,107,0
1,43,81,0
1,41,104,192
1,41,78,0
1,41,84,192
1,48,107,0
1,51,95,0
1,46,84,0
1,48,107,192
1,43,78,0
1,36,98,192
1,39,107,0
1,43,78,0
1,48,107,0
1,43,81,0
1,48,84,192
1,41,107,1728
1,41,78,0
1,36,98,192
1,41,107,0
1,36,78,0
1,41,107,0
1,41,81,0
1,43,107,192
1,43,78,0
1,38,98,192
1,43,107,0
1,38,78,0
1,43,107,0
1,43,81,0
1,43,107,192
1,43,78,0
1,38,98,192
1,43,107,0
1,38,78,0
1,50,107,0
1,50,81,0
1,43,107,0
1,43,78,0
1,38,98,192
1,43,107,0
1,38,78,0
1,50,107,0
1,50,81,0
1,43,107,0
1,43,78,0
1,38,98,192
1,43,107,0
1,38,78,0
1,50,107,0
1,50,81,0
1,50,107,0
1,50,78,0
1,45,98,192
1,50,107,0
1,45,78,0
1,43,107,0
1,47,81,0
1,50,107,192
1,50,78,0
1,45,98,192
1,50,107,0
1,45,78,0
1,43,107,0
1,47,81,0
1,50,107,192
1,50,78,0
1,45,98,192
1,50,107,0
1,45,78,0
1,43,107,0
1,47,81,0
1,50,107,192
1,50,78,0
1,45,98,192
1,50,107,0
1,45,78,0
1,50,107,0
1,50,81,0
1,48,107,192
1,55,78,0
1,52,98,192
1,50,107,0
1,48,78,0
1,46,107,0
1,53,81,0
1,48,107,192
1,55,78,0
1,52,98,192
1,50,107,0
1,48,78,0
1,46,107,0
1,53,81,0
1,48,107,192
1,48,78,0
1,52,98,192
1,50,107,0
1,48,78,0
1,46,107,0
1,53,81,0
1,48,107,192
1,48,78,0
1,52,98,192
1,50,107,0
1,48,78,0
1,46,107,0
1,53,81,0
1,48,107,192
1,55,78,0
1,52,98,192
1,50,107,0
1,48,78,0
1,46,107,0
1,53,81,0
1,48,107,192
1,55,78,0
1,52,98,192
1,50,107,0
1,48,78,0
1,46,107,0
1,53,81,0
1,48,107,192
1,55,78,0
1,52,98,192
1,50,107,0
1,48,78,0
1,46,107,0
1,53,81,0
1,48,107,192
1,55,78,0
1,48,98,192
1,48,107,0
1,48,78,0
1,48,107,0
1,48,81,0
1,41,107,0
1,48,78,0
1,41,98,0
1,45,107,0
1,48,78,0
1,51,107,0
1,46,81,0
1,41,107,0
1,48,78,0
1,41,98,0
1,45,107,0
1,48,78,0
1,51,107,0
1,46,81,0
1,41,107,0
1,48,78,0
1,41,98,0
1,45,107,0
1,48,78,0
1,51,107,0
1,46,81,0
1,41,107,0
1,48,78,0
1,41,98,0
1,45,107,0
1,48,78,0
1,51,107,0
1,46,81,0
1,48,107,0
1,48,107,0
1,48,78,0
1,55,78,0
1,43,98,192
1,52,98,0
1,48,107,0
1,50,107,0
1,48,78,0
1,46,107,0
1,46,107,0
1,45,81,0
1,53,81,0
1,48,107,192
1,48,107,0
1,48,78,0
1,55,78,0
1,43,98,192
1,52,98,0
1,48,107,0
1,50,107,0
1,48,78,0
1,46,107,0
1,46,107,0
1,45,81,0
1,53,81,0
1,48,107,192
1,48,107,0
1,55,78,0
1,48,78,0
1,52,98,192
1,43,98,0
1,50,107,0
1,48,107,0
1,48,78,0
1,46,107,0
1,46,107,0
1,53,81,0
1,45,81,0
1,48,107,192
1,48,107,0
1,55,78,0
1,48,78,0
1,48,98,192
1,43,98,0
1,48,107,0
1,48,107,0
1,48,78,0
1,48,107,0
1,48,107,0
1,48,81,0
1,48,81,0
1,48,107,0
1,43,78,0
1,36,98,192
1,39,107,0
1,43,78,0
1,41,107,0
1,53,81,0
1,48,107,192
1,43,78,0
1,36,98,192
1,39,107,0
1,43,78,0
1,41,107,0
1,53,81,0
1,48,107,192
1,43,78,0
1,36,98,192
1,39,107,0
1,43,78,0
1,41,107,0
1,53,81,0
1,48,107,192
1,43,78,0
1,36,98,192
1,39,107,0
1,43,78,0
1,41,107,0
1,53,81,0
1,41,104,192
1,41,78,0
1,41,84,192
1,48,107,0
1,51,95,0
1,46,84,0
1,48,107,192
1,43,78,0
1,36,98,192
1,39,107,0
1,43,78,0
1,48,107,0
1,43,81,0
1,41,104,192
1,41,78,0
1,41,84,192
1,48,107,0
1,41,90,0
1,51,107,0
1,46,84,0
1,48,107,192
1,43,78,0
1,36,98,192
1,39,107,0
1,43,78,0
1,48,107,0
1,43,81,0
1,48,84,192
1,41,107,1728
1,41,78,0
1,36,98,192
1,41,107,0
1,36,78,0
1,41,107,0
1,41,81,0
1,43,107,192
1,43,78,0
1,38,98,192
1,43,107,0
1,38,78,0
1,43,107,0
1,43,81,0
1,43,107,192
1,43,78,0
1,38,98,192
1,43,107,0
1,38,78,0
1,50,107,0
1,50,81,0
1,43,107,192
1,43,78,0
1,38,98,192
1,43,107,0
1,38,78,0
1,50,107,0
1,50,81,0
1,43,107,192
1,43,78,0
1,38,98,192
1,43,107,0
1,38,78,0
1,50,107,0
1,50,81,0
1,50,107,192
1,50,78,0
1,45,98,192
1,50,107,0
1,45,78,0
1,43,107,0
1,47,81,0
1,50,107,192
1,50,78,0
1,45,98,192
1,50,107,0
1,45,78,0
1,43,107,0
1,47,81,0
1,50,107,192
1,50,78,0
1,45,98,192
1,50,107,0
1,45,78,0
1,43,107,0
1,47,81,0
1,50,107,192
1,50,78,0
1,45,98,192
1,50,107,0
1,45,78,0
1,50,107,0
1,50,81,192
1,48,107,192
1,55,78,0
1,52,98,192
1,50,107,0
1,48,78,0
1,46,107,0
1,53,81,0
1,48,107,192
1,55,78,0
1,52,98,192
1,50,107,0
1,48,78,0
1,46,107,0
1,53,81,0
1,48,107,192
1,48,78,0
1,52,98,192
1,50,107,0
1,48,78,0
1,46,107,0
1,53,81,0
1,48,107,192
1,48,78,0
1,52,98,192
1,50,107,0
1,48,78,0
1,46,107,0
1,53,81,0
1,48,107,192
1,55,78,0
1,52,98,192
1,50,107,0
1,48,78,0
1,46,107,0
1,53,81,0
1,48,107,192
1,55,78,0
1,52,98,192
1,50,107,0
1,48,78,0
1,46,107,0
1,53,81,0
1,48,107,192
1,55,78,0
1,52,98,192
1,50,107,0
1,48,78,0
1,46,107,0
1,53,81,0
1,48,107,192
1,55,78,0
1,48,98,192
1,48,107,0
1,48,78,0
1,48,107,0
1,48,81,0
1,41,107,0
1,48,78,0
1,41,98,192
1,45,107,0
1,48,78,0
1,51,107,0
1,46,81,0
1,41,107,192
1,48,78,0
1,41,98,192
1,45,107,0
1,48,78,0
1,51,107,0
1,46,81,0
1,41,107,192
1,48,78,0
1,41,98,192
1,45,107,0
1,48,78,0
1,51,107,0
1,46,81,0
1,41,107,192
1,48,78,0
1,41,98,192
1,45,107,0
1,48,78,0
1,51,107,0
1,46,81,0
1,48,107,192
1,48,78,0
1,43,98,192
1,48,107,0
1,43,93,0
1,46,107,0
1,45,81,0
1,48,107,0
1,48,78,0
1,43,98,192
1,48,107,0
1,43,90,0
1,46,107,0
1,45,81,0
1,48,107,0
1,48,78,0
1,43,98,192
1,48,107,0
1,43,93,0
1,46,107,0
1,45,81,0
1,48,107,0
1,48,78,0
1,43,98,192
1,48,107,0
1,43,93,0
1,48,107,0
1,48,81,192
1,48,107,192
1,43,78,0
1,36,98,192
1,39,107,0
1,43,78,0
1,41,107,0
1,53,81,0
1,48,107,0
1,43,78,0
1,36,98,192
1,39,107,0
1,43,78,0
1,41,107,0
1,53,81,0
1,48,107,0
1,43,78,0
1,36,98,192
1,39,107,0
1,43,78,0
1,41,107,0
1,53,81,0
1,48,107,0
1,43,78,0
1,36,98,192
1,39,107,0
1,43,78,0
1,41,107,0
1,53,81,0
1,41,104,0
1,41,78,0
1,41,84,192
1,48,107,0
1,51,95,0
1,46,84,0
1,48,107,0
1,43,78,0
1,36,98,192
1,39,107,0
1,43,78,0
1,48,107,0
1,43,81,0
1,41,104,192
1,41,78,0
1,41,84,192
1,48,107,0
1,41,90,0
1,51,107,0
1,46,84,0
1,48,107,0
1,43,78,0
1,36,98,192
1,39,107,0
1,43,78,0
1,48,107,0
1,43,81,0
1,48,84,192
1,48,107,1728
1,55,78,0
1,57,98,192
1,53,107,0
1,50,78,0
1,46,107,0
1,53,81,0
1,48,107,192
1,55,78,0
1,57,98,192
1,53,107,0
1,50,78,0
1,46,107,0
1,53,81,0
1,48,107,192
1,55,78,0
1,57,98,192
1,53,107,0
1,50,78,0
1,46,107,0
1,53,81,0
1,48,107,192
1,55,78,0
1,57,98,192
1,53,107,0
1,50,78,0
1,46,107,0
1,53,81,0
1,48,107,192
1,55,78,0
1,57,98,192
1,53,107,0
1,50,78,0
1,46,107,0
1,53,81,0
1,48,107,192
1,55,78,0
1,57,98,192
1,53,107,0
1,50,78,0
1,46,107,0
1,53,81,0
1,48,107,192
1,55,78,0
1,57,98,192
1,53,107,0
1,50,78,0
1,46,107,0
1,53,81,0
1,48,107,192
1,48,78,0
1,43,98,192
1,48,107,0
1,46,107,0
1,45,81,0
1,48,107,192
1,48,78,0
1,43,98,192
1,48,107,0
1,48,107,0
1,48,81,192
1,48,107,192
1,55,78,0
1,52,98,192
1,50,107,0
1,48,78,0
1,46,107,0
1,53,81,0
1,48,107,192
1,48,78,0
1,52,98,192
1,50,107,0
1,48,78,0
1,46,107,0
1,53,81,0
1,48,107,192
1,55,78,0
1,57,98,192
1,53,107,0
1,50,78,0
1,46,107,0
1,53,81,0
1,48,72,192
1,48,43,0
1,52,69,192
1,50,43,0
1,48,58,0
1,46,55,0
1,53,49,0
1,48,55,192
1,55,64,0
1,57,69,192
1,53,66,0
1,50,52,0
1,46,58,0
1,53,52,0
1,48,43,192
1,48,40,0
1,52,37,192
1,50,31,0
1,48,17,0
1,46,31,0
1,53,17,0
1,48,1,192
1,55,8,0
1,57,1,192
1,53,11,0
1,50,5,0
1,46,1,0
1,53,1,0
2,72,95,0
2,72,84,0
2,70,84,0
2,69,75,0
2,67,95,0
2,67,84,0
2,69,98,0
2,70,84,0
2,69,75,0
2,67,95,0
2,67,84,0
2,69,101,0
2,63,84,0
2,62,75,0
2,60,95,0
2,57,84,0
2,70,75,576
2,72,95,0
2,72,84,0
2,70,84,0
2,69,75,0
2,67,95,0
2,67,84,0
2,69,98,0
2,70,84,0
2,69,75,0
2,67,95,0
2,67,84,0
2,69,95,0
2,63,84,0
2,62,75,0
2,60,95,0
2,57,84,0
2,65,101,768
2,65,87,0
2,68,93,0
2,70,78,0
2,68,98,0
2,70,87,0
2,65,72,0
2,72,90,0
2,70,81,0
2,70,90,0
2,72,78,0
2,65,81,192
2,68,93,0
2,65,84,0
2,65,93,0
2,63,78,0
2,65,90,0
2,63,69,0
2,65,87,0
2,63,78,0
2,65,72,0
2,72,72,576
2,70,84,0
2,69,69,0
2,67,95,0
2,67,84,0
2,69,98,0
2,70,84,0
2,69,75,0
2,67,95,0
2,67,84,0
2,69,32,0
2,63,84,0
2,62,75,0
2,60,95,0
2,57,84,0
2,72,95,0
2,72,84,0
2,70,84,0
2,69,75,0
2,67,95,0
2,67,84,0
2,69,98,0
2,70,84,0
2,69,75,0
2,67,95,0
2,67,84,0
2,69,101,0
2,63,84,0
2,62,75,0
2,60,95,0
2,57,84,0
2,72,95,768
2,72,84,0
2,70,84,0
2,69,75,0
2,67,95,0
2,67,84,0
2,69,98,0
2,70,84,0
2,69,75,0
2,67,95,0
2,67,84,0
2,69,95,0
2,63,84,0
2,62,75,0
2,60,95,0
2,57,84,0
2,65,101,768
2,65,87,0
2,68,93,0
2,70,78,0
2,68,98,0
2,70,87,0
2,65,72,0
2,72,90,0
2,70,81,0
2,70,90,0
2,72,78,0
2,65,81,192
2,68,93,0
2,65,84,0
2,65,93,0
2,63,78,0
2,65,90,0
2,63,69,0
2,65,87,0
2,63,78,0
2,65,72,0
2,72,72,576
2,70,84,0
2,69,69,0
2,67,95,0
2,67,84,0
2,69,98,0
2,70,84,0
2,69,75,0
2,67,95,0
2,67,84,0
2,69,32,0
2,63,84,0
2,62,75,0
2,60,95,0
2,57,84,0
2,72,84,576
2,70,84,0
2,69,75,0
2,67,95,0
2,67,84,0
2,69,98,0
2,70,84,0
2,69,75,0
2,67,95,0
2,67,84,0
2,69,101,0
2,63,84,0
2,62,75,0
2,60,95,0
2,57,84,0
2,72,75,384
2,72,95,0
2,72,84,0
2,70,84,0
2,69,75,0
2,67,95,0
2,67,84,0
2,69,98,0
2,70,84,0
2,69,75,0
2,67,95,0
2,67,84,0
2,69,95,0
2,63,84,0
2,62,75,0
2,60,95,0
2,53,84,0
3,67,101,0
3,65,93,1152
3,70,69,380
3,69,95,380
3,67,107,380
3,67,93,188
3,67,101,1340
3,65,93,1148
3,70,69,380
3,69,95,380
3,67,107,380
3,67,93,188
3,72,98,1340
3,70,90,1148
3,69,87,380
3,70,93,188
3,69,87,92
3,67,72,92
3,65,98,380
3,67,78,188
3,72,98,1340
3,70,90,1148
3,69,87,380
3,70,93,188
3,69,87,92
3,67,72,92
3,65,98,380
3,67,78,188
3,67,113,1340
3,65,78,188
3,62,95,188
3,67,75,188
3,65,95,188
3,62,93,188
3,65,81,188
3,64,95,380
3,60,104,380
3,60,75,188
3,60,69,188
3,60,93,188
3,60,110,188
3,60,95,192
3,60,72,380
3,62,87,380
3,62,84,188
3,62,72,380
3,62,61,96
3,64,98,92
3,65,81,188
3,64,95,188
3,62,81,188
3,62,61,380
3,67,98,1148
3,65,78,192
3,64,101,188
3,65,93,188
3,65,93,380
3,64,87,188
3,64,64,188
3,60,87,188
3,64,93,188
3,62,84,188
3,62,81,188
3,62,72,188
3,62,61,188
3,62,87,956
3,62,69,192
3,62,90,380
3,62,87,572
3,62,75,96
3,65,87,92
3,67,81,188
3,65,72,188
3,62,84,188
3,62,81,188
3,62,84,572
3,62,69,96
3,65,78,92
3,67,87,188
3,68,101,188
3,69,69,92
3,67,104,92
3,65,93,92
3,67,104,92
3,65,104,188
3,65,81,188
3,62,90,192
3,60,75,188
3,62,95,188
3,65,87,380
3,62,98,380
3,62,90,188
3,60,87,380
3,62,61,188
3,67,101,0
3,65,93,1152
3,70,69,186
3,69,95,384
3,67,107,378
3,67,93,186
3,67,101,1338
3,65,93,1146
3,70,69,186
3,69,95,186
3,67,107,384
3,67,93,186
3,72,98,1338
3,70,90,1146
3,69,87,378
3,70,93,90
3,69,87,96
3,67,72,90
3,65,98,378
3,67,78,186
3,72,98,1338
3,70,90,1146
3,69,87,378
3,70,93,186
3,69,87,90
3,67,72,90
3,65,98,378
3,67,78,186
3,67,113,378
3,65,78,192
3,62,95,186
3,67,75,186
3,65,95,186
3,62,93,186
3,65,81,186
3,69,95,378
3,67,90,186
3,67,101,576
3,67,104,186
3,69,93,192
3,69,95,186
3,70,81,186
3,72,104,378
3,72,90,186
3,81,95,378
3,81,95,192
3,82,87,90
3,81,72,90
3,79,93,378
3,79,84,186
3,84,104,186
3,82,84,192
3,84,104,186
3,82,87,90
3,79,75,90
3,77,90,186
3,79,87,186
3,79,81,186
3,79,98,186
3,84,93,186
3,82,101,192
3,84,95,186
3,82,84,90
3,79,66,90
3,77,87,186
3,79,101,186
3,79,87,186
3,79,101,186
3,77,98,186
3,76,87,96
3,77,72,90
3,76,90,186
