track,note,velocity,time
1,35,125,3324
1,35,123,162
1,35,126,162
1,44,118,66
1,44,123,162
1,44,124,162
1,42,122,66
1,42,123,162
1,42,125,162
1,44,123,258
1,35,122,66
1,35,122,66
1,37,123,66
1,37,124,162
1,37,123,162
1,47,123,66
1,47,122,162
1,47,123,162
1,42,122,66
1,42,124,162
1,42,124,162
1,42,117,258
1,42,123,66
1,44,123,66
1,35,125,66
1,35,123,162
1,35,126,162
1,44,118,66
1,44,123,162
1,44,124,162
1,42,122,66
1,42,123,162
1,42,125,162
1,44,123,258
1,35,122,66
1,35,122,66
1,37,123,66
1,37,124,162
1,37,123,162
1,47,123,66
1,47,122,162
1,47,123,162
1,42,122,66
1,42,124,162
1,42,124,162
1,42,117,258
1,42,123,66
1,44,123,66
1,35,125,66
1,35,123,162
1,35,126,162
1,44,118,66
1,44,123,162
1,44,124,162
1,42,122,66
1,42,123,162
1,42,125,162
1,44,123,258
1,35,122,66
1,35,122,66
1,37,123,66
1,37,124,162
1,37,123,162
1,47,123,66
1,47,122,162
1,47,123,162
1,42,122,66
1,42,124,162
1,42,124,162
1,42,117,258
1,42,123,66
1,44,123,66
1,35,125,66
1,35,123,162
1,35,126,162
1,44,118,66
1,44,123,162
1,44,124,162
1,42,122,66
1,42,123,162
1,42,125,162
1,44,123,258
1,35,122,66
1,35,122,66
1,37,123,66
1,37,124,162
1,37,123,162
1,47,123,66
1,47,122,162
1,47,123,162
1,42,122,66
1,42,124,162
1,42,124,162
1,42,117,258
1,42,123,66
1,44,123,66
1,35,125,66
1,35,123,162
1,35,126,162
1,44,118,66
1,44,123,162
1,44,124,162
1,42,122,66
1,42,123,162
1,42,125,162
1,44,123,258
1,35,122,66
1,35,122,66
1,37,123,66
1,37,124,162
1,37,123,162
1,47,123,66
1,47,122,162
1,47,123,162
1,42,122,66
1,42,124,162
1,42,124,162
1,42,117,258
1,42,123,66
1,44,123,66
1,35,125,66
1,35,123,162
1,35,126,162
1,44,118,66
1,44,123,162
1,44,124,162
1,42,122,66
1,42,123,162
1,42,125,162
1,44,123,258
1,35,122,66
1,35,122,66
1,37,123,66
1,37,124,162
1,37,123,162
1,47,123,66
1,47,122,162
1,47,123,162
1,42,122,66
1,42,124,162
1,42,124,162
1,42,117,258
1,42,123,66
1,44,123,66
1,35,125,66
1,35,123,162
1,35,126,162
1,44,118,66
1,44,123,162
1,44,124,162
1,42,122,66
1,42,123,162
1,42,125,162
1,44,123,258
1,35,122,66
1,35,122,66
1,37,123,66
1,37,124,162
1,37,123,162
1,47,123,66
1,47,122,162
1,47,123,162
1,42,122,66
1,42,124,162
1,42,124,162
1,42,117,258
1,42,123,66
1,44,123,66
1,35,125,66
1,35,123,162
1,35,126,162
1,44,118,66
1,44,123,162
1,44,124,162
1,42,122,66
1,42,123,162
1,42,125,162
1,44,123,258
1,35,122,66
1,35,122,66
1,37,123,66
1,37,124,162
1,37,123,162
1,47,123,66
1,47,122,162
1,47,123,162
1,42,122,66
1,42,124,162
1,42,124,162
1,42,117,258
1,42,123,66
1,44,123,66
1,35,125,66
1,35,123,162
1,35,126,162
1,44,118,66
1,44,123,162
1,44,124,162
1,42,122,66
1,42,123,162
1,42,125,162
1,44,123,258
1,35,122,66
1,35,122,66
1,37,123,66
1,37,124,162
1,37,123,162
1,47,123,66
1,47,122,162
1,47,123,162
1,42,122,66
1,42,124,162
1,42,124,162
1,42,117,258
1,42,123,66
1,44,123,66
1,35,125,66
1,35,123,162
1,35,126,162
1,44,118,66
1,44,123,162
1,44,124,162
1,42,122,66
1,42,123,162
1,42,125,162
1,44,123,258
1,35,122,66
1,35,122,66
1,37,123,66
1,37,124,162
1,37,123,162
1,47,123,66
1,47,122,162
1,47,123,162
1,42,122,66
1,42,124,162
1,42,124,162
1,42,117,258
1,42,123,66
1,44,123,66
1,35,125,66
1,35,123,162
1,35,126,162
1,44,118,66
1,44,123,162
1,44,124,162
1,42,122,66
1,42,123,162
1,42,125,162
1,44,123,258
1,35,122,66
1,35,122,66
1,37,123,66
1,37,124,162
1,37,123,162
1,47,123,66
1,47,122,162
1,47,123,162
1,42,122,66
1,42,124,162
1,42,124,162
1,42,117,258
1,42,123,66
1,44,123,66
1,35,125,66
1,35,123,162
1,35,126,162
1,44,118,66
1,44,123,162
1,44,124,162
1,42,122,66
1,42,123,162
1,42,125,162
1,44,123,258
1,35,122,66
1,35,122,66
1,37,123,66
1,37,124,162
1,37,123,162
1,47,123,66
1,47,122,162
1,47,123,162
1,42,122,66
1,42,124,162
1,42,124,162
1,42,117,258
1,42,123,66
1,44,123,66
1,35,125,66
1,35,123,162
1,35,126,162
1,44,118,66
1,44,123,162
1,44,124,162
1,42,122,66
1,42,123,162
1,42,125,162
1,44,123,258
1,35,122,66
1,35,122,66
1,37,123,66
1,37,124,162
1,37,123,162
1,47,123,66
1,47,122,162
1,47,123,162
1,42,122,66
1,42,124,162
1,42,124,162
1,42,117,258
1,42,123,66
1,44,123,66
1,35,125,66
1,35,123,162
1,35,126,162
1,44,118,66
1,44,123,162
1,44,124,162
1,42,122,66
1,42,123,162
1,42,125,162
1,44,123,258
1,35,122,66
1,35,122,66
1,37,123,66
1,37,124,162
1,37,123,162
1,47,123,66
1,47,122,162
1,47,123,162
1,42,122,66
1,42,124,162
1,42,124,162
1,42,117,258
1,42,123,66
1,44,123,66
1,35,125,66
1,35,123,162
1,35,126,162
1,44,118,66
1,44,123,162
1,44,124,162
1,42,122,66
1,42,123,162
1,42,125,162
1,44,123,258
1,35,122,66
1,35,122,66
1,37,123,66
1,37,124,162
1,37,123,162
1,47,123,66
1,47,122,162
1,47,123,162
1,42,122,66
1,42,124,162
1,42,124,162
1,42,117,258
1,42,123,66
1,44,123,66
1,35,125,66
1,35,123,162
1,35,126,162
1,44,118,66
1,44,123,162
1,44,124,162
1,42,122,66
1,42,123,162
1,42,125,162
1,44,123,258
1,35,122,66
1,35,122,66
1,37,123,66
1,37,124,162
1,37,123,162
1,47,123,66
1,47,122,162
1,47,123,162
1,42,122,66
1,42,124,162
1,42,124,162
1,42,117,258
1,42,123,66
1,44,123,66
1,35,125,66
1,35,123,162
1,35,126,162
1,44,118,66
1,44,123,162
1,44,124,162
1,42,122,66
1,42,123,162
1,42,125,162
1,44,123,258
1,35,122,66
1,35,122,66
1,37,123,66
1,37,124,162
1,37,123,162
1,47,123,66
1,47,122,162
1,47,123,162
1,42,122,66
1,42,124,162
1,42,124,162
1,42,117,258
1,42,123,66
1,44,123,66
1,35,125,66
1,35,123,162
1,35,126,162
1,44,118,66
1,44,123,162
1,44,124,162
1,42,122,66
1,42,123,162
1,42,125,162
1,44,123,258
1,35,122,66
1,35,122,66
1,37,123,66
1,37,124,162
1,37,123,162
1,47,123,66
1,47,122,162
1,47,123,162
1,42,122,66
1,42,124,162
1,42,124,162
1,42,117,258
1,42,123,66
1,44,123,66
1,35,125,66
1,35,123,162
1,35,126,162
1,44,118,66
1,44,123,162
1,44,124,162
1,42,122,66
1,42,123,162
1,42,125,162
1,44,123,258
1,35,122,66
1,35,122,66
1,37,123,66
1,37,124,162
1,37,123,162
1,47,123,66
1,47,122,162
1,47,123,162
1,42,122,66
1,42,124,162
1,42,124,162
1,42,117,258
1,42,123,66
1,44,123,66
1,35,125,66
1,35,123,162
1,35,126,162
1,44,118,66
1,44,123,162
1,44,124,162
1,42,122,66
1,42,123,162
1,42,125,162
1,44,123,258
1,35,122,66
1,35,122,66
1,37,123,66
1,37,124,162
1,37,123,162
1,47,123,66
1,47,122,162
1,47,123,162
1,42,122,66
1,42,124,162
1,42,124,162
1,42,117,258
1,42,123,66
1,44,123,66
1,35,125,66
1,35,123,162
1,35,126,162
1,44,118,66
1,44,123,162
1,44,124,162
1,42,122,66
1,42,123,162
1,42,125,162
1,44,123,258
1,35,122,66
1,35,122,66
1,37,123,66
1,37,124,162
1,37,123,162
1,47,123,66
1,47,122,162
1,47,123,162
1,42,122,66
1,42,124,162
1,42,124,162
1,42,117,258
1,42,123,66
1,44,123,66
1,35,125,66
1,35,123,162
1,35,126,162
1,44,118,66
1,44,123,162
1,44,124,162
1,42,122,66
1,42,123,162
1,42,125,162
1,44,123,258
1,35,122,66
1,35,122,66
1,37,123,66
1,37,124,162
1,37,123,162
1,47,123,66
1,47,122,162
1,47,123,162
1,42,122,66
1,42,124,162
1,42,124,162
1,42,117,258
1,42,123,66
1,44,123,66
1,35,125,66
1,35,123,162
1,35,126,162
1,44,118,66
1,44,123,162
1,44,124,162
1,42,122,66
1,42,123,162
1,42,125,162
1,44,123,258
1,35,122,66
1,35,122,66
1,37,123,66
1,37,124,162
1,37,123,162
1,47,123,66
1,47,122,162
1,47,123,162
1,42,122,66
1,42,124,162
1,42,124,162
1,42,117,258
1,42,123,66
1,44,123,66
1,35,125,66
1,35,123,162
1,35,126,162
1,44,118,66
1,44,123,162
1,44,124,162
1,42,122,66
1,42,123,162
1,42,125,162
1,44,123,258
1,35,122,66
1,35,122,66
1,37,123,66
1,37,124,162
1,37,123,162
1,47,123,66
1,47,122,162
1,47,123,162
1,42,122,66
1,42,124,162
1,42,124,162
1,42,117,258
1,42,123,66
1,44,123,66
1,35,125,66
1,35,123,162
1,35,126,162
1,44,118,66
1,44,123,162
1,44,124,162
1,42,122,66
1,42,123,162
1,42,125,162
1,44,123,258
1,35,122,66
1,35,122,66
1,37,123,66
1,37,124,162
1,37,123,162
1,47,123,66
1,47,122,162
1,47,123,162
1,42,122,66
1,42,124,162
1,42,124,162
1,42,117,258
1,42,123,66
1,44,123,66
1,35,125,66
1,35,123,162
1,35,126,162
1,44,118,66
1,44,123,162
1,44,124,162
1,42,122,66
1,42,123,162
1,42,125,162
1,44,123,258
1,35,122,66
1,35,122,66
1,37,123,66
1,37,124,162
1,37,123,162
1,47,123,66
1,47,122,162
1,47,123,162
1,42,122,66
1,42,124,162
1,42,124,162
1,42,117,258
1,42,123,66
1,44,123,66
1,35,125,66
1,35,123,162
1,35,126,162
1,44,118,66
1,44,123,162
1,44,124,162
1,42,122,66
1,42,123,162
1,42,125,162
1,44,123,258
1,35,122,66
1,35,122,66
1,37,123,66
1,37,124,162
1,37,123,162
1,47,123,66
1,47,122,162
1,47,123,162
1,42,122,66
1,42,124,162
1,42,124,162
1,42,117,258
1,42,123,66
1,44,123,66
1,35,125,66
1,35,123,162
1,35,126,162
1,44,118,66
1,44,123,162
1,44,124,162
1,42,122,66
1,42,123,162
1,42,125,162
1,44,123,258
1,35,122,66
1,35,122,66
1,37,123,66
1,37,124,162
1,37,123,162
1,47,123,66
1,47,122,162
1,47,123,162
1,42,122,66
1,42,124,162
1,42,124,162
1,42,117,258
1,42,123,66
1,44,123,66
1,35,125,66
1,35,123,162
1,35,126,162
1,44,118,66
1,44,123,162
1,44,124,162
1,42,122,66
1,42,123,162
1,42,125,162
1,44,123,258
1,35,122,66
1,35,122,66
1,37,123,66
1,37,124,162
1,37,123,162
1,47,123,66
1,47,122,162
1,47,123,162
1,42,122,66
1,42,124,162
1,42,124,162
1,42,117,258
1,42,123,66
1,44,123,66
1,35,125,66
1,35,123,162
1,35,126,162
1,44,118,66
1,44,123,162
1,44,124,162
1,42,122,66
1,42,123,162
1,42,125,162
1,44,123,258
1,35,122,66
1,35,122,66
1,37,123,66
1,37,124,162
1,37,123,162
1,47,123,66
1,47,122,162
1,47,123,162
1,42,122,66
1,42,124,162
1,42,124,162
1,42,117,258
1,42,123,66
1,44,123,66
1,35,125,66
1,35,123,162
1,35,126,162
1,44,118,66
1,44,123,162
1,44,124,162
1,42,122,66
1,42,123,162
1,42,125,162
1,44,123,258
1,35,122,66
1,35,122,66
1,37,123,66
1,37,124,162
1,37,123,162
1,47,123,66
1,47,122,162
1,47,123,162
1,42,122,66
1,42,124,162
1,42,124,162
1,42,117,258
1,42,123,66
1,44,123,66
1,35,123,66
2,60,59,636
2,60,59,264
2,60,59,264
2,60,59,264
2,60,59,264
2,60,59,264
2,60,59,1032
2,60,59,264
2,60,59,264
2,60,59,264
2,60,59,264
2,60,59,264
2,60,59,264
2,60,59,264
2,60,59,264
2,60,59,264
2,60,59,264
2,60,59,264
2,60,59,264
2,60,59,264
2,60,59,264
2,60,59,264
2,60,59,264
2,60,59,264
2,60,59,264
2,60,59,264
2,60,59,264
2,60,59,264
2,60,59,264
2,60,59,264
2,60,59,264
2,60,59,264
2,60,59,264
2,60,59,264
2,60,59,264
2,60,59,264
2,60,59,264
2,60,59,264
2,60,59,264
2,60,59,264
2,60,59,264
2,60,59,264
2,60,59,264
2,60,59,264
2,60,59,264
2,60,59,264
2,60,59,264
2,60,59,264
2,60,59,264
2,60,59,264
2,60,59,264
2,60,59,264
2,60,59,264
2,60,59,264
2,60,59,264
2,60,59,264
2,60,59,264
2,60,59,264
2,60,59,264
2,60,59,264
2,60,59,264
2,60,59,264
2,60,59,264
2,60,59,264
2,60,59,264
2,60,59,264
2,60,59,264
2,60,59,264
2,60,59,264
2,60,59,264
2,60,59,264
2,60,59,264
2,60,59,264
2,60,59,264
2,60,59,264
2,60,59,264
2,60,59,264
2,60,59,264
2,60,59,264
2,60,59,264
2,60,59,264
2,60,59,264
2,60,59,264
2,60,59,264
2,60,59,264
2,60,59,264
2,60,59,264
2,60,59,264
2,60,59,264
2,60,59,264
2,60,59,264
2,60,59,264
2,60,59,264
2,60,59,264
2,60,59,264
2,60,59,264
2,60,59,264
2,60,59,264
2,60,59,264
2,60,59,264
2,60,59,264
2,60,59,264
2,60,59,264
2,60,59,264
2,60,59,264
2,60,59,264
2,60,59,264
2,60,59,264
2,60,59,264
2,60,59,264
2,60,59,264
2,60,59,264
2,60,59,264
2,60,59,264
2,60,59,264
2,60,59,264
2,60,59,264
2,60,59,264
2,60,59,264
2,60,59,264
2,60,59,264
2,60,59,264
2,60,59,264
2,60,59,264
2,60,59,264
2,60,59,264
2,60,59,264
2,60,59,264
2,60,59,264
2,60,59,264
2,60,59,264
2,60,59,264
2,60,59,264
2,60,59,264
2,60,59,264
2,60,59,264
2,60,59,264
2,60,59,264
2,60,59,264
2,60,59,264
2,60,59,264
2,60,59,264
2,60,59,264
2,60,59,264
2,60,59,264
2,60,59,264
2,60,59,264
2,60,59,264
2,60,59,264
2,60,59,264
2,60,59,264
2,60,59,264
2,60,59,264
2,60,59,264
2,60,59,264
2,60,59,264
2,60,59,264
2,60,59,264
2,60,59,264
2,60,59,264
2,60,59,264
2,60,59,264
2,60,59,264
2,60,59,264
2,60,59,264
2,60,59,264
2,60,59,264
2,60,59,264
2,60,59,264
2,60,59,264
2,60,59,264
2,60,59,264
2,60,59,264
2,60,59,264
2,60,59,264
2,60,59,264
2,60,59,264
2,60,59,264
2,60,59,264
2,60,59,264
2,60,59,264
2,60,59,264
2,60,59,264
2,60,59,264
2,60,59,264
2,60,59,264
2,60,59,264
2,60,59,264
2,60,59,264
2,60,59,264
2,60,59,264
2,60,59,264
2,60,59,264
2,60,59,264
2,60,59,264
2,60,59,264
2,60,59,264
2,60,59,264
2,60,59,264
2,60,59,264
2,60,59,264
2,60,59,264
2,60,59,264
2,60,59,264
2,60,59,264
2,60,59,264
2,60,59,264
2,60,59,264
2,60,59,264
2,60,59,264
2,60,59,264
2,60,59,264
2,60,59,264
2,60,59,264
2,60,59,264
2,60,59,264
2,60,59,264
2,60,59,264
2,60,59,264
2,60,59,264
2,60,59,264
2,60,59,264
2,60,59,264
2,60,59,264
2,60,59,264
2,60,59,264
2,60,59,264
2,60,59,264
2,60,59,264
2,60,59,264
2,60,59,264
2,60,59,264
2,60,59,264
2,60,59,264
2,60,59,264
2,60,59,264
2,60,59,264
2,60,59,264
2,60,59,264
2,60,59,264
2,60,59,264
2,60,59,264
2,60,59,264
2,60,59,264
2,60,59,264
2,60,59,264
2,60,59,264
2,60,59,264
2,60,59,264
2,60,59,264
2,60,59,264
2,60,59,264
2,60,59,264
2,60,59,264
2,60,59,264
