track,note,velocity,time
1,74,82,503
1,74,0,40
1,76,72,24
1,76,0,76
1,77,85,52
1,77,0,176
1,76,82,16
1,76,0,52
1,74,95,12
1,73,104,128
1,74,0,0
1,73,0,186
1,74,79,6
1,76,81,64
1,74,0,29
1,76,0,64
1,69,86,35
1,69,0,160
1,71,89,32
1,71,0,56
1,73,81,8
1,73,0,116
1,74,85,12
1,74,0,160
1,72,72,32
1,72,0,52
1,70,69,12
1,70,0,104
1,69,82,24
1,69,0,176
1,67,75,16
1,65,79,64
1,67,0,4
1,65,0,108
1,64,78,16
1,64,0,184
1,65,81,8
1,67,98,64
1,65,0,8
1,69,101,120
1,67,0,0
1,69,0,178
1,67,86,14
1,65,82,64
1,67,0,29
1,64,91,35
1,65,0,4
1,62,95,60
1,64,0,29
1,62,0,64
1,74,85,99
1,74,0,53
1,76,93,11
1,76,0,104
1,77,84,24
1,77,0,168
1,76,78,24
1,74,85,64
1,76,0,5
1,74,0,107
1,81,91,16
1,81,0,162
1,77,79,30
1,81,79,64
1,77,0,0
1,81,0,98
1,69,81,30
1,69,0,21
1,71,81,8
1,73,69,0
1,71,0,2
1,73,0,24
1,74,89,8
1,74,0,0
1,72,95,8
1,70,82,0
1,72,0,21
1,69,101,8
1,70,0,0
1,69,0,20
1,67,93,12
1,65,78,24
1,67,0,8
1,65,0,32
1,65,91,8
1,67,95,24
1,67,0,18
1,65,95,0
1,65,0,0
1,67,94,0
1,65,95,24
1,67,0,0
1,65,0,0
1,65,0,16
1,67,97,0
1,67,0,18
1,65,94,0
1,65,0,21
1,64,89,0
1,64,0,37
1,65,91,32
1,65,0,16
1,65,85,24
1,65,0,0
1,74,72,32
1,74,0,0
1,76,82,24
1,76,0,28
1,77,77,8
1,77,0,136
1,76,77,16
1,76,0,52
1,74,88,12
1,73,98,128
1,74,0,0
1,73,0,186
1,74,98,6
1,76,98,64
1,74,0,40
1,76,0,64
1,69,86,24
1,69,0,164
1,71,101,28
1,71,0,56
1,73,88,8
1,73,0,116
1,74,91,12
1,74,0,160
1,72,98,32
1,72,0,52
1,70,101,12
1,70,0,106
1,69,104,22
1,69,0,173
1,67,86,19
1,65,88,64
1,67,0,4
1,65,0,108
1,67,91,16
1,65,86,320
1,67,0,24
1,65,0,37
1,67,104,3
1,67,0,61
1,67,86,131
1,65,82,64
1,67,0,29
1,64,91,35
1,65,0,29
1,62,95,35
1,64,0,29
1,62,0,61
1,74,85,102
1,74,0,53
1,76,93,11
1,76,0,104
1,77,84,24
1,77,0,164
1,76,78,28
1,74,85,64
1,76,0,5
1,74,0,107
1,81,91,16
1,81,0,162
1,77,79,30
1,81,79,64
1,77,0,0
1,81,0,98
1,69,79,30
1,69,0,157
1,71,81,35
1,73,69,64
1,71,0,2
1,73,0,118
1,74,89,8
1,74,0,160
1,72,95,32
1,70,82,64
1,72,0,29
1,69,101,99
1,70,0,0
1,69,0,180
1,67,93,12
1,65,88,64
1,67,0,8
1,65,0,96
1,65,91,24
1,67,95,88
1,65,95,24
1,65,0,0
1,67,94,24
1,67,0,0
1,65,95,24
1,65,0,0
1,67,97,24
1,67,0,0
1,65,94,24
1,65,0,0
1,64,89,48
1,67,0,8
1,65,0,21
1,64,0,32
1,65,91,67
1,65,0,61
1,65,84,11
1,65,0,200
1,74,78,432
1,74,0,189
1,74,95,195
1,74,0,45
1,74,95,3
1,74,0,45
1,77,79,99
1,77,0,45
1,76,82,147
1,76,0,45
1,76,75,147
1,76,0,45
1,77,78,3
1,77,0,45
1,79,86,3
1,79,0,45
1,81,85,3
1,81,0,45
1,77,75,3
1,77,0,45
1,74,69,3
1,74,0,45
1,74,98,99
1,74,0,45
1,76,95,83
1,76,0,61
1,77,66,3
1,77,0,45
1,77,69,3
1,77,0,45
1,77,51,99
1,77,0,45
1,77,58,211
1,77,0,61
1,77,65,3
1,77,0,61
1,77,74,3
1,77,0,61
1,77,71,67
1,77,0,61
1,79,81,3
1,79,0,61
1,77,63,67
1,77,0,61
1,79,78,3
1,79,0,61
1,77,75,3
1,77,0,61
1,81,85,3
1,81,0,176
1,84,83,80
1,84,0,61
1,81,89,3
1,81,0,61
1,98,69,131
1,98,0,61
1,100,60,3
1,100,0,61
1,101,66,3
1,101,0,61
1,101,79,3
1,101,0,61
1,95,89,67
1,95,0,61
1,100,69,3
1,100,0,61
1,98,77,3
1,98,0,61
1,100,79,3
1,100,0,61
1,93,65,195
1,93,0,61
1,95,75,3
1,95,0,61
1,93,83,3
1,93,0,61
1,91,86,67
1,91,0,61
1,93,82,3
1,93,0,61
1,93,83,3
1,93,0,61
1,98,79,67
1,98,0,61
1,96,86,131
1,96,0,45
1,93,76,3
1,93,0,45
1,93,85,99
1,93,0,45
1,91,77,147
1,91,0,45
1,93,78,3
1,93,0,45
1,93,88,99
1,93,0,45
1,91,101,147
1,91,0,45
1,93,75,51
1,93,0,45
1,91,86,3
1,91,0,45
1,89,85,3
1,89,0,45
1,88,88,3
1,88,0,45
1,89,79,51
1,89,0,301
1,74,120,227
1,74,0,45
1,74,120,51
1,74,0,45
1,72,120,3
1,72,0,45
1,74,120,3
1,74,0,45
1,76,120,3
1,76,0,45
1,77,120,3
1,77,0,45
1,76,120,3
1,76,0,45
1,74,120,3
1,74,0,45
1,79,120,3
1,79,0,45
1,77,120,3
1,77,0,45
1,76,120,3
1,76,0,45
1,77,120,3
1,77,0,45
1,79,120,3
1,79,0,45
1,81,120,3
1,81,0,45
1,81,120,51
1,81,0,45
1,84,120,3
1,84,0,45
1,81,120,3
1,81,0,45
1,79,120,3
1,79,0,45
1,81,120,51
1,81,0,45
1,81,120,3
1,81,0,45
1,86,120,51
1,86,0,45
1,86,120,339
1,86,0,29
1,88,120,3
1,88,0,29
1,89,120,3
1,89,0,29
1,88,120,3
1,88,0,29
1,79,120,67
1,79,0,29
1,81,120,3
1,81,0,29
1,82,120,3
1,82,0,29
1,81,120,3
1,81,0,29
1,76,120,67
1,76,0,29
1,77,120,3
1,77,0,29
1,79,120,3
1,79,0,29
1,77,120,3
1,77,0,29
1,76,120,67
1,76,0,29
1,77,120,67
1,77,0,61
1,76,121,3
1,76,0,61
1,74,121,3
1,74,0,61
1,76,121,3
1,76,0,61
1,74,121,3
1,74,0,61
1,72,121,3
1,72,0,61
1,74,121,3
1,74,0,61
1,77,121,3
1,77,0,61
1,74,122,355
1,74,0,45
1,74,122,51
1,74,0,45
1,72,122,3
1,72,0,45
1,74,122,3
1,74,0,45
1,76,122,3
1,76,0,45
1,77,122,3
1,77,0,45
1,76,122,3
1,76,0,45
1,74,122,3
1,74,0,45
1,79,122,3
1,79,0,45
1,77,122,3
1,77,0,45
1,76,122,3
1,76,0,45
1,77,122,3
1,77,0,45
1,79,123,3
1,79,0,45
1,81,123,3
1,81,0,45
1,81,123,51
1,81,0,45
1,84,123,3
1,84,0,45
1,81,123,3
1,81,0,45
1,79,123,3
1,79,0,45
1,81,123,51
1,81,0,45
1,81,123,3
1,81,0,45
1,86,123,51
1,86,0,45
1,91,124,339
1,91,0,45
1,88,124,147
1,88,0,45
1,89,124,3
1,89,0,45
1,88,124,3
1,88,0,45
1,86,124,3
1,86,0,45
1,81,124,3
1,81,0,45
1,86,124,3
1,86,0,45
1,84,124,3
1,84,0,45
1,82,125,3
1,82,0,45
1,81,125,3
1,81,0,45
1,79,125,3
1,79,0,45
1,81,125,3
1,81,0,45
1,81,125,147
1,81,0,61
1,79,125,3
1,79,0,61
1,77,125,3
1,77,0,61
1,74,125,3
1,74,0,61
1,74,126,323
1,77,126,256
1,74,0,5
1,77,0,56
1,79,126,3
1,79,0,61
1,81,126,3
1,81,0,252
1,79,127,4
1,79,0,61
1,77,127,3
1,77,0,61
1,79,127,3
1,79,0,61
1,79,127,131
1,79,0,61
1,74,127,131
1,74,0,61
1,72,127,131
1,72,0,45
1,74,127,3
1,74,0,45
1,74,127,291
1,74,0,45
1,74,127,99
1,74,0,45
1,77,127,3
1,77,0,45
1,74,127,3
1,74,0,45
1,74,127,51
1,74,0,45
1,79,127,3
1,79,0,45
1,79,127,99
1,79,0,45
1,79,127,3
1,79,0,45
1,77,127,3
1,77,0,45
1,79,127,3
1,79,0,45
1,79,127,51
1,79,0,45
1,81,127,51
1,81,0,45
1,81,127,51
1,81,0,45
1,84,120,3
1,84,0,45
1,81,120,3
1,81,0,45
1,79,120,3
1,79,0,45
1,81,120,3
1,81,0,45
1,62,63,611
1,64,57,26
1,62,0,2
1,65,75,12
1,64,0,0
1,67,82,10
1,65,0,2
1,69,79,9
1,67,0,3
1,71,74,10
1,69,0,2
1,72,72,12
1,71,0,2
1,74,68,14
1,72,0,2
1,86,120,6
1,74,0,8
1,86,0,248
1,84,120,32
1,84,0,45
1,81,120,3
1,81,0,45
1,84,120,3
1,84,0,45
1,81,120,51
1,81,0,45
1,79,120,51
1,79,0,45
1,79,120,51
1,79,0,45
1,79,120,51
1,79,0,45
1,77,120,3
1,77,0,45
1,74,120,3
1,74,0,45
1,74,120,51
1,74,0,45
1,74,120,51
1,74,0,45
1,72,120,51
1,72,0,45
1,77,120,3
1,77,0,45
1,74,120,99
1,74,0,45
1,74,120,99
1,74,0,45
1,77,120,3
1,77,0,45
1,74,120,3
1,74,0,45
1,74,120,51
1,74,0,45
1,79,120,3
1,79,0,45
1,74,120,3
1,74,0,45
1,74,120,51
1,74,0,45
1,81,120,3
1,81,0,45
1,81,120,51
1,81,0,45
1,79,120,51
1,79,0,45
1,77,120,3
1,77,0,45
1,79,120,3
1,79,0,45
1,77,120,51
1,77,0,45
1,74,120,51
1,74,0,45
1,74,120,51
1,74,0,45
1,72,120,339
1,72,0,45
1,74,120,3
1,74,0,45
1,77,120,99
1,77,0,45
1,62,63,227
1,64,57,26
1,62,0,2
1,65,75,12
1,64,0,0
1,67,82,10
1,65,0,2
1,69,79,9
1,67,0,3
1,71,74,10
1,69,0,2
1,72,72,12
1,71,0,2
1,74,68,14
1,72,0,2
1,86,120,6
1,74,0,8
1,84,120,232
1,86,0,21
1,84,0,24
1,81,120,3
1,81,0,45
1,81,120,99
1,81,0,45
1,79,120,3
1,79,0,45
1,81,120,3
1,81,0,112
1,79,120,32
1,79,0,45
1,77,120,3
1,77,0,45
1,79,120,3
1,79,0,45
1,77,120,3
1,77,0,45
1,79,120,3
1,79,0,45
1,79,85,51
1,79,0,45
1,77,75,3
1,77,0,45
1,79,81,3
1,79,0,45
1,77,72,3
1,77,0,45
1,79,83,3
1,79,0,45
1,81,88,3
1,81,0,45
1,79,89,3
1,79,0,45
1,77,85,3
1,77,0,45
1,79,81,3
1,79,0,45
1,77,82,3
1,77,0,45
1,74,86,3
1,74,0,45
1,77,83,3
1,77,0,45
1,74,86,3
1,74,0,45
1,77,79,3
1,77,0,45
1,74,85,3
1,74,0,45
1,77,77,3
1,77,0,45
1,74,89,99
1,74,0,45
1,74,88,3
1,74,0,45
1,74,79,51
1,74,0,45
1,74,83,51
1,74,0,45
1,77,86,3
1,77,0,45
1,74,76,3
1,74,0,45
1,74,77,3
1,74,0,45
1,79,86,3
1,79,0,45
1,74,77,3
1,74,0,45
1,74,83,3
1,74,0,45
1,81,89,3
1,81,0,45
1,74,85,3
1,74,0,45
1,74,86,3
1,74,0,45
1,79,81,3
1,79,0,45
1,74,83,3
1,74,0,45
1,74,86,3
1,74,0,45
1,77,82,3
1,77,0,45
1,74,78,51
1,74,0,45
1,74,83,51
1,74,0,45
1,74,83,3
1,74,0,45
1,74,82,3
1,74,0,45
1,77,91,3
1,77,0,45
1,74,81,3
1,74,0,45
1,74,82,3
1,74,0,45
1,79,89,3
1,79,0,45
1,74,82,3
1,74,0,45
1,74,88,3
1,74,0,45
1,81,91,3
1,81,0,45
1,74,83,3
1,74,0,45
1,74,89,3
1,74,0,45
1,79,91,3
1,79,0,45
1,77,91,51
1,77,0,45
1,79,82,51
1,79,0,45
1,77,83,3
1,77,0,45
1,74,77,3
1,74,0,45
1,77,83,3
1,77,0,45
1,74,98,3
1,74,0,45
1,72,74,3
1,72,0,45
1,74,88,3
1,74,0,45
1,74,89,3
1,74,0,45
1,74,86,3
1,74,0,45
1,74,85,3
1,74,0,45
1,77,82,3
1,77,0,45
1,74,83,291
1,74,0,45
1,74,78,3
1,74,0,45
1,74,77,3
1,74,0,45
1,74,79,3
1,74,0,45
1,74,74,3
1,74,0,45
1,74,76,3
1,74,0,45
1,77,77,3
1,77,0,45
1,74,85,3
1,74,0,45
1,74,79,3
1,74,0,45
1,79,89,3
1,79,0,45
1,77,78,3
1,77,0,45
1,74,89,3
1,74,0,45
1,77,79,51
1,77,0,45
1,74,95,51
1,74,0,45
1,77,95,147
1,77,0,45
1,81,98,195
1,81,0,45
1,81,85,3
1,81,0,45
1,81,93,3
1,81,0,45
1,81,95,3
1,81,0,45
1,79,93,51
1,79,0,45
1,81,83,99
1,81,0,45
1,81,89,51
1,81,0,45
1,81,91,3
1,81,0,45
1,79,89,51
1,79,0,45
1,84,85,99
1,84,0,45
1,84,83,3
1,84,0,45
1,84,86,3
1,84,0,45
1,84,88,3
1,84,0,45
1,81,95,51
1,86,86,144
1,81,0,21
1,86,0,24
1,86,86,3
1,86,0,45
1,86,91,3
1,86,0,45
1,86,95,3
1,86,0,45
1,84,88,51
1,84,0,45
1,81,95,99
1,81,0,45
1,81,93,51
1,81,0,45
1,81,89,51
1,81,0,45
1,81,93,51
1,81,0,45
1,81,85,51
1,81,0,45
1,79,83,3
1,79,0,45
1,77,79,3
1,77,0,45
1,79,82,3
1,79,0,45
1,77,69,3
1,77,0,45
1,79,83,3
1,79,0,45
1,79,81,51
1,79,0,45
1,77,82,51
1,77,0,45
1,74,83,51
1,74,0,45
1,77,76,51
1,77,0,45
1,74,70,51
1,74,0,45
1,76,64,3
1,76,0,45
1,77,71,3
1,77,0,45
1,79,82,3
1,79,0,101
1,77,76,43
1,77,0,45
1,76,82,3
1,81,93,96
1,76,0,8
1,81,0,37
1,81,85,3
1,81,0,45
1,81,95,3
1,81,0,45
1,79,85,3
1,79,0,45
1,77,76,51
1,77,0,45
1,79,83,51
1,79,0,45
1,79,86,51
1,79,0,45
1,79,83,51
1,79,0,45
1,79,88,51
1,79,0,45
1,77,78,3
1,77,0,45
1,77,79,51
1,77,0,45
1,77,83,51
1,77,0,45
1,77,78,51
1,77,0,45
1,74,83,3
1,74,0,45
1,72,83,3
1,72,0,45
1,74,89,3
1,74,0,45
1,74,88,3
1,74,0,45
1,74,85,3
1,74,0,45
1,74,85,3
1,74,0,45
1,77,81,3
1,77,0,45
1,74,78,3
1,74,0,45
1,74,79,3
1,74,0,45
1,79,88,3
1,79,0,45
1,74,86,51
1,74,0,45
1,81,89,51
1,81,0,45
1,81,89,147
1,81,0,45
1,79,88,51
1,79,0,45
1,86,85,3
1,86,0,45
1,84,88,3
1,84,0,45
1,81,88,3
1,81,0,45
1,79,86,3
1,79,0,45
1,81,83,3
1,81,0,45
1,62,63,51
1,74,85,0
1,64,57,26
1,62,0,2
1,65,75,12
1,64,0,0
1,74,0,5
1,67,82,5
1,65,0,2
1,69,79,9
1,67,0,3
1,71,74,10
1,69,0,2
1,72,72,12
1,71,0,2
1,74,68,14
1,72,0,2
1,74,0,14
1,86,89,264
1,86,0,45
1,79,88,51
1,79,0,45
1,77,76,4467
1,77,0,45
1,79,93,339
1,79,0,45
1,76,98,243
1,76,0,45
1,77,82,51
1,77,0,45
1,77,82,147
1,77,0,45
1,77,78,147
1,77,0,45
1,77,75,3
1,77,0,45
1,77,69,3
1,77,0,45
1,77,69,3
1,77,0,45
1,77,79,3
1,77,0,45
1,77,82,3
1,77,0,45
1,77,85,51
1,77,0,45
1,75,91,3
1,76,95,32
1,75,0,13
1,76,0,32
1,91,86,5299
1,91,0,93
1,91,86,99
1,91,0,93
1,91,83,3
1,91,0,93
1,89,89,3
1,89,0,93
1,89,83,99
1,89,0,93
1,88,88,99
1,88,0,93
