track,note,velocity,time
1,47,78,0
1,47,63,192
1,47,101,190
1,47,43,190
1,47,75,190
1,47,64,190
1,47,107,190
1,47,52,190
1,47,78,190
1,47,63,190
1,47,101,190
1,47,43,190
1,47,75,190
1,47,64,190
1,47,107,190
1,47,52,190
1,48,78,190
1,48,63,190
1,48,101,190
1,48,43,190
1,48,75,190
1,48,64,190
1,48,107,190
1,48,52,190
1,48,78,190
1,48,63,190
1,48,101,190
1,48,43,190
1,48,75,190
1,48,64,190
1,48,107,190
1,48,52,190
1,50,78,190
1,50,63,190
1,50,101,190
1,50,43,190
1,50,75,190
1,50,64,190
1,50,107,190
1,50,52,190
1,50,78,190
1,50,63,190
1,50,101,190
1,50,43,190
1,50,75,190
1,50,64,190
1,50,107,190
1,50,52,190
1,52,78,190
1,52,63,190
1,52,101,190
1,52,43,190
1,52,75,190
1,52,64,190
1,52,107,190
1,52,52,190
1,53,78,190
1,53,63,190
1,53,101,190
1,53,43,190
1,53,75,190
1,53,64,190
1,53,107,190
1,53,52,190
1,40,95,190
1,35,46,142
1,40,98,96
1,35,46,142
1,40,95,96
1,35,34,142
1,40,93,96
1,40,58,190
1,46,95,94
1,41,46,142
1,46,98,96
1,41,46,142
1,46,95,96
1,41,34,142
1,46,93,96
1,46,58,190
1,40,95,94
1,35,46,142
1,40,98,96
1,35,46,142
1,40,95,96
1,35,34,142
1,40,93,96
1,40,58,190
1,46,95,94
1,41,46,142
1,46,98,96
1,41,46,142
1,46,95,96
1,41,34,142
1,46,93,96
1,46,58,190
1,48,95,94
1,43,46,142
1,48,98,96
1,43,46,142
1,48,95,96
1,43,34,142
1,48,93,96
1,48,58,190
1,44,95,94
1,39,46,142
1,44,98,96
1,39,46,142
1,44,95,96
1,39,34,142
1,44,93,96
1,44,58,190
1,50,95,94
1,45,46,142
1,50,98,96
1,45,46,142
1,50,95,96
1,45,34,142
1,50,93,96
1,50,58,190
1,48,95,94
1,43,46,142
1,48,98,96
1,43,46,142
1,48,95,96
1,43,34,142
1,48,93,96
1,48,58,190
1,48,95,94
1,43,46,142
1,48,98,96
1,43,46,142
1,48,95,96
1,43,34,142
1,48,93,96
1,48,58,190
1,46,95,94
1,41,46,142
1,46,98,96
1,41,46,142
1,46,95,96
1,41,34,142
1,46,93,96
1,46,58,190
1,45,95,94
1,45,75,384
1,45,87,382
1,45,98,382
1,44,84,190
1,43,58,48
1,42,40,46
1,41,61,46
1,40,107,46
1,40,81,766
1,40,87,766
1,40,58,286
1,40,69,94
1,41,93,958
1,41,49,288
1,41,61,94
1,43,90,958
1,43,52,288
1,43,66,94
1,45,93,958
1,45,58,288
1,45,75,94
1,45,58,190
1,48,75,94
1,45,55,190
1,52,101,94
1,45,58,190
1,48,49,94
1,43,90,94
1,40,87,190
1,40,58,286
1,40,69,94
1,41,93,958
1,41,49,288
1,41,61,94
1,43,90,958
1,43,52,288
1,43,66,94
1,45,93,958
1,45,58,288
1,45,75,94
1,45,58,190
1,48,75,94
1,45,55,190
1,52,101,94
1,45,58,190
1,48,49,94
1,43,90,94
1,45,98,190
1,45,90,94
1,48,64,96
1,45,81,94
1,52,52,94
1,45,113,94
1,48,55,94
1,43,90,94
1,43,107,190
1,45,98,384
1,45,90,94
1,48,64,96
1,45,81,94
1,52,52,94
1,45,113,94
1,48,55,94
1,43,90,94
1,43,107,190
1,45,98,384
1,45,90,94
1,48,64,96
1,45,81,94
1,52,52,94
1,45,113,94
1,48,55,94
1,43,90,94
1,43,107,190
1,45,98,384
1,45,90,94
1,48,64,96
1,45,81,94
1,52,52,94
1,45,113,94
1,48,55,94
1,43,90,94
1,43,107,190
1,46,98,384
1,46,90,94
1,49,64,96
1,46,81,94
1,53,52,94
1,46,113,94
1,49,55,94
1,44,90,94
1,44,107,190
1,46,98,384
1,46,90,94
1,49,64,96
1,46,81,94
1,53,52,94
1,46,113,94
1,49,55,94
1,44,90,94
1,44,107,190
1,46,98,384
1,46,90,94
1,49,64,96
1,46,81,94
1,53,52,94
1,46,113,94
1,49,55,94
1,44,90,94
1,44,107,190
1,48,90,384
1,48,75,190
1,48,84,190
1,48,75,190
1,50,81,190
1,50,110,94
1,50,87,94
1,48,84,94
1,50,113,94
1,47,107,94
1,47,87,96
1,45,78,94
1,47,116,94
1,40,101,382
1,40,64,286
1,40,98,94
1,52,93,190
1,50,113,96
1,47,101,190
1,45,69,190
1,43,116,94
1,41,101,190
1,41,87,286
1,41,113,94
1,41,107,190
1,43,93,288
1,45,78,190
1,48,116,94
1,43,101,190
1,43,81,286
1,43,98,94
1,43,93,190
1,42,113,96
1,43,87,190
1,47,84,190
1,48,116,94
1,50,101,190
1,50,90,286
1,50,113,94
1,45,69,190
1,48,93,94
1,45,69,190
1,48,110,94
1,45,84,190
1,48,66,94
1,43,107,94
1,40,101,190
1,40,64,286
1,40,98,94
1,52,93,190
1,50,113,96
1,47,101,190
1,45,69,190
1,43,116,94
1,41,101,190
1,41,87,286
1,41,113,94
1,41,107,190
1,43,93,288
1,45,78,190
1,48,116,94
1,43,101,190
1,43,81,286
1,43,98,94
1,43,93,190
1,42,113,96
1,43,87,190
1,47,84,190
1,48,116,94
1,50,101,190
1,50,90,286
1,50,113,94
1,45,69,190
1,48,93,94
1,45,69,190
1,48,110,94
1,45,84,190
1,48,66,94
1,43,107,94
1,45,98,190
1,45,90,94
1,48,64,96
1,45,81,94
1,52,52,94
1,45,113,94
1,48,55,94
1,43,90,94
1,43,107,190
1,45,98,384
1,45,90,94
1,48,64,96
1,45,81,94
1,52,52,94
1,45,113,94
1,48,55,94
1,43,90,94
1,43,107,190
1,45,98,384
1,45,90,94
1,48,64,96
1,45,81,94
1,52,52,94
1,45,113,94
1,48,55,94
1,43,90,94
1,43,107,190
1,45,98,384
1,45,90,94
1,48,64,96
1,45,81,94
1,52,52,94
1,45,113,94
1,48,55,94
1,43,90,94
1,43,107,190
1,46,98,384
1,46,90,94
1,49,64,96
1,46,81,94
1,53,52,94
1,46,113,94
1,49,55,94
1,44,90,94
1,44,107,190
1,46,98,384
1,46,90,94
1,49,64,96
1,46,81,94
1,53,52,94
1,46,113,94
1,49,55,94
1,44,90,94
1,44,107,190
1,46,98,384
1,46,90,94
1,49,64,96
1,46,81,94
1,53,52,94
1,46,113,94
1,49,72,94
1,44,90,94
1,44,107,190
1,48,107,384
1,48,81,190
1,48,98,190
1,48,93,190
1,50,110,190
1,50,84,94
1,50,95,94
1,48,87,94
1,50,113,94
1,47,113,94
1,47,101,96
1,45,93,94
1,47,107,94
1,45,98,382
1,45,90,94
1,48,64,96
1,45,81,94
1,52,52,94
1,45,113,94
1,48,55,94
1,43,90,94
1,43,107,190
1,45,98,384
1,45,90,94
1,48,64,96
1,45,81,94
1,52,52,94
1,45,113,94
1,48,55,94
1,43,90,94
1,43,107,190
1,45,98,384
1,45,90,94
1,48,64,96
1,45,81,94
1,52,52,94
1,45,113,94
1,48,55,94
1,43,90,94
1,43,107,190
1,45,98,384
1,45,90,94
1,48,64,96
1,45,81,94
1,52,52,94
1,45,113,94
1,48,55,94
1,43,90,94
1,43,107,190
1,46,98,384
1,46,90,94
1,49,64,96
1,46,81,94
1,53,52,94
1,46,113,94
1,49,55,94
1,44,90,94
1,44,107,190
1,46,98,384
1,46,90,94
1,49,64,96
1,46,81,94
1,53,52,94
1,46,113,94
1,49,55,94
1,44,90,94
1,44,107,190
1,46,98,384
1,46,90,94
1,49,64,96
1,46,81,94
1,53,52,94
1,46,113,94
1,49,55,94
1,44,90,94
1,44,107,190
1,48,107,384
1,48,81,190
1,48,98,190
1,48,93,190
1,50,110,190
1,50,61,94
1,50,95,94
1,48,78,94
1,50,107,94
1,47,87,94
1,47,49,96
1,45,101,94
1,47,84,94
1,40,101,382
1,40,64,286
1,40,98,94
1,52,93,190
1,50,113,96
1,47,101,190
1,45,69,190
1,43,116,94
1,41,101,190
1,41,87,286
1,41,113,94
1,41,107,190
1,43,93,288
1,45,78,190
1,48,116,94
1,43,101,190
1,43,81,286
1,43,98,94
1,43,93,190
1,42,113,96
1,43,87,190
1,47,84,190
1,48,116,94
1,50,101,190
1,50,90,286
1,50,113,94
1,45,69,190
1,48,93,94
1,45,69,190
1,48,110,94
1,45,84,190
1,48,66,94
1,43,107,94
1,40,101,190
1,40,64,286
1,40,98,94
1,52,93,190
1,50,113,96
1,47,101,190
1,45,69,190
1,43,116,94
1,41,101,190
1,41,87,286
1,41,113,94
1,41,107,190
1,43,93,288
1,45,78,190
1,48,116,94
1,43,101,190
1,43,81,286
1,43,98,94
1,43,93,190
1,42,113,96
1,43,87,190
1,47,84,190
1,48,116,94
1,50,101,190
1,50,90,286
1,50,113,94
1,45,69,190
1,48,93,94
1,45,69,190
1,48,110,94
1,45,84,190
1,48,66,94
1,43,107,94
1,50,110,190
1,50,61,94
1,50,95,94
1,48,78,94
1,50,107,94
1,47,87,94
1,47,49,96
1,45,101,94
1,47,84,94
1,52,95,382
1,52,90,286
1,52,104,94
1,52,66,94
1,52,90,94
1,52,58,94
1,52,61,94
1,52,95,94
1,52,107,94
1,52,69,94
1,52,58,94
1,52,87,190
1,36,110,190
1,36,107,286
1,36,69,94
1,36,69,94
1,36,95,94
1,36,72,94
1,36,101,94
1,36,64,94
1,36,95,94
1,36,78,94
1,36,101,94
1,36,66,94
1,36,49,94
1,36,98,94
1,38,61,94
1,38,66,94
1,38,75,94
1,38,98,94
1,38,90,94
1,38,100,94
1,38,61,94
1,38,61,94
1,38,95,94
1,38,81,94
1,38,78,94
1,38,101,94
1,38,55,94
1,38,69,94
1,38,90,94
1,38,104,94
1,40,98,94
1,40,69,94
1,40,87,94
1,40,81,94
1,40,66,94
1,40,95,94
1,40,72,94
1,40,90,94
1,41,90,94
1,41,113,94
1,41,107,94
1,41,66,94
1,41,81,94
1,41,101,94
1,41,113,94
1,41,90,94
1,40,98,94
1,40,55,286
1,40,64,94
1,46,95,190
1,46,52,288
1,46,66,94
1,48,95,190
1,48,52,288
1,48,66,94
1,50,87,190
1,50,49,288
1,50,64,94
1,40,98,190
1,40,104,2304
2,64,55,960
2,71,34,192
2,67,34,0
2,71,113,192
2,71,66,2
2,71,98,2
2,71,81,2
2,74,107,2
2,71,113,2
2,69,107,2
2,67,93,2
2,69,66,2
2,69,113,2
2,69,87,2
2,70,116,2
2,69,93,2
2,67,58,2
2,65,98,2
2,67,49,386
2,67,110,2
2,67,93,2
2,69,78,2
2,71,107,2
2,72,113,2
2,71,90,2
2,67,43,2
2,69,95,2
2,67,61,2
2,66,110,2
2,71,116,866
2,71,78,2
2,71,95,2
2,71,98,2
2,74,55,2
2,71,98,2
2,71,116,2
2,69,110,2
2,67,101,2
2,69,52,2
2,69,98,2
2,69,116,2
2,70,107,2
2,69,90,2
2,67,58,2
2,65,110,2
2,67,81,290
2,67,58,2
2,67,107,2
2,67,101,2
2,69,81,2
2,71,113,2
2,72,95,2
2,71,101,2
2,67,40,2
2,69,107,2
2,67,49,2
2,66,107,2
2,72,58,770
2,72,110,2
2,72,95,2
2,71,40,2
2,69,110,2
2,67,75,2
2,71,98,386
2,72,95,2
2,69,69,2
2,69,107,2
2,67,32,2
2,69,81,2
2,71,84,2
2,71,43,482
2,72,107,2
2,72,90,2
2,72,101,2
2,71,104,2
2,69,46,2
2,67,81,2
2,69,90,386
2,69,43,2
2,72,95,2
2,69,101,2
2,69,113,2
2,69,87,2
2,69,40,2
2,71,69,2
2,72,55,482
2,73,107,2
2,73,87,2
2,73,95,2
2,72,43,2
2,70,98,2
2,70,66,2
2,68,95,2
2,70,72,290
2,70,101,2
2,73,110,2
2,70,46,2
2,70,110,2
2,68,46,2
2,70,90,2
2,72,119,2
2,70,87,194
2,70,46,2
2,73,95,2
2,73,113,2
2,72,104,2
2,70,66,2
2,70,72,2
2,68,98,2
2,72,101,578
2,72,72,2
2,72,98,2
2,72,69,2
2,74,107,2
2,71,43,2
2,71,93,578
2,71,61,2
2,71,87,2
2,74,110,2
2,71,104,2
2,69,78,2
2,67,101,2
2,69,69,98
2,67,93,2
2,69,55,2
2,69,93,194
2,69,61,2
2,71,107,2
2,69,90,2
2,67,43,2
2,65,64,2
2,64,72,290
2,67,40,2
2,67,95,2
2,67,84,2
2,69,98,2
2,71,119,2
2,72,98,2
2,71,84,2
2,67,98,2
2,69,101,2
2,67,61,2
2,66,110,2
2,71,107,866
2,71,64,2
2,71,64,2
2,71,90,2
2,74,58,2
2,71,113,2
2,71,75,2
2,67,101,98
2,69,72,98
2,69,110,2
2,69,101,2
2,70,116,2
2,69,87,2
2,67,69,2
2,65,58,2
2,67,58,290
2,67,95,2
2,67,81,2
2,67,72,2
2,69,93,2
2,71,110,2
2,72,84,2
2,71,66,2
2,67,49,2
2,69,72,2
2,67,61,2
2,66,55,2
2,69,40,386
2,72,72,194
2,72,95,2
2,72,90,2
2,71,81,2
2,69,55,2
2,67,69,2
2,71,90,290
2,71,75,2
2,72,104,2
2,69,87,2
2,69,72,2
2,69,107,2
2,67,81,2
2,69,72,2
2,71,93,2
2,71,87,386
2,71,69,2
2,72,101,2
2,72,75,2
2,72,75,2
2,71,87,2
2,69,64,2
2,67,75,2
2,69,61,386
2,69,49,2
2,72,98,2
2,69,90,2
2,69,66,98
2,69,43,2
2,74,101,2
2,72,93,2
2,69,61,2
2,72,90,194
2,72,64,2
2,73,93,2
2,73,66,2
2,73,104,2
2,72,87,2
2,70,64,2
2,68,58,2
2,70,58,290
2,70,90,2
2,73,104,2
2,70,98,2
2,70,66,2
2,68,90,2
2,70,90,2
2,72,58,2
2,70,78,386
2,70,66,2
2,73,90,2
2,73,81,2
2,73,93,2
2,72,75,2
2,70,93,2
2,75,75,2
2,75,81,2
2,70,66,194
2,70,55,2
2,72,101,2
2,72,81,2
2,72,75,2
2,72,58,2
2,74,101,2
2,78,64,2
2,71,52,578
2,71,93,192
2,71,61,2
2,71,87,2
2,74,110,2
2,71,104,2
2,69,78,2
2,67,101,2
2,69,69,98
2,67,93,2
2,69,55,2
2,69,93,194
2,69,61,2
2,71,107,2
2,69,90,2
2,67,43,2
2,65,64,2
2,64,72,290
2,67,40,2
2,67,95,2
2,67,84,2
2,69,98,2
2,71,119,2
2,72,98,2
2,71,84,2
2,67,98,2
2,69,101,2
2,67,61,2
2,66,110,2
2,71,107,866
2,71,64,2
2,71,64,2
2,71,90,2
2,74,58,2
2,71,113,2
2,71,75,2
2,67,101,98
2,69,72,98
2,69,110,2
2,69,101,2
2,70,116,2
2,69,87,2
2,67,69,2
2,65,58,2
2,67,58,290
2,67,95,2
2,67,81,2
2,67,72,2
2,69,93,2
2,71,110,2
2,72,84,2
2,71,107,2
2,67,78,2
2,69,55,2
2,67,61,2
2,66,81,2
2,77,58,386
2,74,58,0
2,74,90,194
2,77,87,2
2,71,72,2
2,71,32,194
2,71,78,578
2,74,98,2
2,76,78,2
2,74,55,2
2,76,93,2
2,74,72,2
2,76,101,2
2,74,58,2
2,71,104,2
2,71,78,4994
2,76,101,2
2,76,87,2
2,74,64,2
2,71,87,2
2,76,95,578
2,74,61,2
2,71,84,2
2,69,69,2
2,71,104,2
2,71,64,2
2,74,90,2
2,71,90,2
2,69,64,2
2,67,78,2
2,69,66,2
2,71,104,2
2,71,75,2
2,67,55,2
2,64,87,2
3,64,110,0
3,67,52,48
3,64,101,42
3,67,75,42
3,64,93,42
3,67,122,42
3,64,98,42
3,67,72,42
3,64,116,42
3,67,61,42
3,64,116,42
3,79,66,42
3,76,110,42
3,79,90,42
3,83,113,42
3,86,98,42
3,83,75,42
3,86,110,42
3,76,113,282
3,75,69,192
3,74,119,90
3,64,110,378
3,67,52,48
3,64,101,42
3,67,75,42
3,64,93,42
3,67,122,42
3,64,98,42
3,67,72,42
3,64,116,42
3,67,61,42
3,64,116,42
3,79,66,42
3,76,110,42
3,79,90,42
3,83,113,42
3,86,98,42
3,83,75,42
3,86,110,42
3,76,113,282
