track,note,velocity,time
1,33,111,192
1,34,76,2
1,35,102,2
1,38,91,2
1,39,99,2
1,40,123,2
1,40,94,2
1,40,99,2
1,38,76,2
1,35,97,2
1,43,117,2
1,33,85,2
1,34,76,2
1,35,94,2
1,38,79,2
1,39,99,2
1,40,120,2
1,40,83,2
1,40,94,2
1,38,73,2
1,35,97,2
1,43,123,2
1,33,85,2
1,34,76,2
1,35,94,2
1,38,88,2
1,39,99,2
1,40,117,2
1,40,83,2
1,40,88,2
1,38,68,2
1,35,97,2
1,43,126,2
1,33,85,2
1,34,76,2
1,35,94,2
1,38,79,2
1,39,99,2
1,40,126,2
1,40,102,2
1,40,82,2
1,38,68,2
1,35,94,2
1,43,126,2
1,33,85,2
1,34,76,2
1,35,94,2
1,38,79,2
1,39,99,2
1,40,123,2
1,40,97,2
1,40,88,2
1,38,68,2
1,35,105,2
1,43,123,2
1,33,85,2
1,34,76,2
1,35,94,2
1,38,79,2
1,39,99,2
1,40,123,2
1,40,99,2
1,40,85,2
1,38,70,2
1,35,99,2
1,43,126,2
1,33,85,2
1,34,76,2
1,35,94,2
1,38,79,2
1,39,99,2
1,40,120,2
1,40,83,2
1,40,94,2
1,38,68,2
1,35,97,2
1,43,123,2
1,48,85,2
1,47,76,2
1,45,94,2
1,47,79,2
1,43,99,2
1,40,120,2
1,40,97,2
1,40,85,2
1,38,76,2
1,35,88,2
1,43,120,2
1,48,85,2
1,47,76,2
1,45,94,2
1,47,79,2
1,43,76,2
1,40,123,2
1,40,94,2
1,40,94,2
1,38,73,2
1,35,99,2
1,43,123,2
1,48,85,2
1,47,76,2
1,45,94,2
1,47,79,2
1,43,76,2
1,40,120,2
1,40,97,2
1,40,94,2
1,38,73,2
1,35,91,2
1,43,123,2
1,48,85,2
1,47,76,2
1,45,94,2
1,47,79,2
1,43,99,2
1,45,120,2
1,45,85,2
1,52,97,2
1,52,85,2
1,52,97,2
1,52,123,2
1,52,99,2
1,47,70,2
1,40,97,2
1,38,108,2
1,36,123,2
1,36,68,2
1,43,102,2
1,36,88,2
1,38,105,2
1,40,123,2
1,40,91,2
1,47,102,2
1,40,76,2
1,42,97,2
1,43,126,2
1,43,97,2
1,50,123,2
1,43,94,2
1,45,120,2
1,45,82,2
1,40,102,2
1,40,94,2
1,38,105,2
1,36,120,2
1,36,82,2
1,43,108,2
1,36,85,2
1,38,105,2
1,40,123,2
1,40,79,2
1,40,117,2
1,40,114,2
1,33,102,2
1,34,88,2
1,35,82,2
1,38,105,2
1,39,91,2
1,40,120,2
1,40,99,2
1,40,99,2
1,38,70,2
1,35,105,2
1,43,126,2
1,33,85,2
1,34,76,2
1,35,94,2
1,38,79,2
1,39,99,2
1,40,120,2
1,40,102,2
1,40,97,2
1,38,73,2
1,35,102,2
1,43,123,2
1,48,85,2
1,47,76,2
1,45,94,2
1,47,79,2
1,43,99,2
1,40,126,2
1,40,94,2
1,40,91,2
1,38,82,2
1,35,97,2
1,43,126,2
1,48,85,2
1,47,76,2
1,45,94,2
1,47,79,2
1,43,99,2
1,40,120,2
1,40,83,2
1,40,82,2
1,38,70,2
1,35,88,2
1,43,123,2
1,48,85,2
1,47,76,2
1,45,94,2
1,47,79,2
1,43,99,2
1,40,120,2
1,40,83,2
1,40,91,2
1,38,76,2
1,35,91,2
1,43,123,2
1,48,85,2
1,47,76,2
1,45,94,2
1,47,79,2
1,43,99,2
1,45,123,2
1,45,94,2
1,40,105,2
1,40,94,2
1,45,85,2
1,43,99,2
1,40,120,2
1,40,99,2
1,43,88,2
1,40,82,2
1,38,102,2
1,36,120,2
1,36,108,2
1,43,79,2
1,36,108,2
1,38,99,2
1,40,123,2
1,40,94,2
1,47,105,2
1,40,91,2
1,40,105,2
1,43,126,2
1,43,97,2
1,50,123,2
1,43,94,2
1,45,120,2
1,45,82,2
1,40,102,2
1,40,94,2
1,38,105,2
1,36,120,2
1,36,82,2
1,43,108,2
1,36,85,2
1,38,105,2
1,40,123,2
1,40,79,2
1,40,117,2
1,43,114,2
1,33,102,194
1,34,88,2
1,35,82,2
1,38,105,2
1,39,91,2
1,40,120,2
1,40,99,2
1,40,99,2
1,38,70,2
1,35,105,2
1,43,126,2
1,33,85,2
1,34,76,2
1,35,94,2
1,38,79,2
1,39,99,2
1,40,120,2
1,40,99,2
1,40,99,2
1,38,70,2
1,35,105,2
1,43,126,2
1,33,85,2
1,34,76,2
1,35,94,2
1,38,79,2
1,39,99,2
1,40,120,2
1,40,99,2
1,40,99,2
1,38,70,2
1,35,105,2
1,43,126,2
1,33,85,2
1,34,76,2
1,35,94,2
1,38,79,2
1,39,99,2
1,40,117,2
1,40,94,2
1,45,126,2
1,44,99,2
1,40,114,2
1,40,88,2
1,52,108,2
1,50,91,2
1,47,114,2
1,40,123,2
1,52,114,2
1,50,85,2
1,47,108,2
1,43,88,2
1,45,117,2
1,40,108,2
1,40,97,2
1,40,108,2
1,38,99,2
1,35,114,2
1,38,102,2
1,40,117,2
1,40,85,2
1,45,105,2
1,47,85,2
1,50,108,2
1,52,91,2
1,52,114,2
1,50,91,2
1,47,120,2
1,46,94,2
1,45,111,2
1,43,97,2
1,40,108,2
1,40,91,2
1,40,108,2
1,38,91,2
1,35,102,2
1,40,114,2
1,40,94,2
1,33,88,2
1,34,97,2
1,35,117,2
1,38,105,2
1,39,108,2
1,40,120,2
1,40,99,2
1,40,99,2
1,38,70,2
1,35,105,2
1,43,126,2
1,33,85,2
1,34,76,2
1,35,94,2
1,38,79,2
1,39,99,2
1,40,120,2
1,40,99,2
1,40,99,2
1,38,70,2
1,35,105,2
1,43,126,2
1,33,85,2
1,34,76,2
1,35,94,2
1,38,79,2
1,39,99,2
1,40,120,2
1,40,99,2
1,40,99,2
1,38,70,2
1,35,105,2
1,43,126,2
1,33,85,2
1,34,76,2
1,35,94,2
1,38,79,2
1,39,99,2
1,40,120,2
1,40,99,2
1,40,99,2
1,38,70,2
1,35,105,2
1,43,126,2
1,33,85,2
1,34,76,2
1,35,94,2
1,38,79,2
1,39,99,2
1,40,120,2
1,40,99,2
1,40,99,2
1,38,70,2
1,35,105,2
1,43,126,2
1,33,85,2
1,34,76,2
1,35,94,2
1,38,79,2
1,39,99,2
1,40,120,2
1,40,99,2
1,40,99,2
1,38,70,2
1,35,105,2
1,43,126,2
1,33,85,2
1,34,76,2
1,35,94,2
1,38,79,2
1,39,99,2
1,40,120,2
1,40,99,2
1,40,99,2
1,38,70,2
1,35,105,2
1,43,126,2
1,33,85,2
1,34,76,2
1,35,94,2
1,38,79,2
1,39,99,2
1,40,120,2
1,40,99,2
1,40,99,2
1,38,70,2
1,35,105,2
1,43,126,2
1,33,85,2
1,34,76,2
1,35,94,2
1,38,79,2
1,39,99,2
1,40,120,2
1,40,99,2
1,40,99,2
1,38,70,2
1,35,105,2
1,43,126,2
1,33,85,2
1,34,76,2
1,35,94,2
1,38,79,2
1,39,99,2
1,40,120,2
1,40,99,2
1,40,99,2
1,38,70,2
1,35,105,2
1,43,126,2
1,33,85,2
1,34,76,2
1,35,94,2
1,38,79,2
1,39,99,2
1,40,120,2
1,40,99,2
1,40,99,2
1,38,70,2
1,35,105,2
1,43,126,2
1,33,85,2
1,34,76,2
1,35,94,2
1,38,79,2
1,39,99,2
1,40,120,2
1,40,99,2
1,40,99,2
1,38,70,2
1,35,105,2
1,43,126,2
1,33,85,2
1,34,76,2
1,35,94,2
1,38,79,2
1,39,99,2
1,40,120,2
1,40,99,2
1,40,99,2
1,38,70,2
1,35,105,2
1,43,126,2
1,33,85,2
1,34,76,2
1,35,94,2
1,38,79,2
1,39,99,2
1,40,120,2
1,40,99,2
1,40,99,2
1,38,70,2
1,35,105,2
1,43,126,2
1,33,85,2
1,34,76,2
1,35,94,2
1,38,79,2
1,39,99,2
1,40,120,2
1,40,99,2
1,40,99,2
1,38,70,2
1,35,105,2
1,43,126,2
1,33,85,2
1,34,76,2
1,35,94,2
1,38,79,2
1,39,99,2
1,40,120,2
1,40,99,2
1,40,99,2
1,38,70,2
1,35,105,2
1,43,126,2
1,33,85,2
1,34,76,2
1,35,94,2
1,38,79,2
1,39,99,2
1,40,120,2
1,40,102,2
1,40,97,2
1,38,73,2
1,35,102,2
1,43,123,2
1,48,85,2
1,47,76,2
1,45,94,2
1,47,79,2
1,43,99,2
1,40,126,2
1,40,94,2
1,40,91,2
1,38,82,2
1,35,97,2
1,43,126,2
1,48,85,2
1,47,76,2
1,45,94,2
1,47,79,2
1,43,99,2
1,40,120,2
1,40,83,2
1,40,82,2
1,38,70,2
1,35,88,2
1,43,123,2
1,48,85,2
1,47,76,2
1,45,94,2
1,47,79,2
1,43,99,2
1,40,120,2
1,40,83,2
1,40,91,2
1,38,76,2
1,35,91,2
1,43,123,2
1,48,85,2
1,47,76,2
1,45,94,2
1,47,79,2
1,43,99,2
1,45,123,2
1,45,94,2
1,40,105,2
1,40,94,2
1,45,85,2
1,43,99,2
1,40,120,2
1,40,99,2
1,43,88,2
1,40,82,2
1,38,102,2
1,36,120,2
1,36,108,2
1,43,79,2
1,36,108,2
1,38,99,2
1,40,123,2
1,40,94,2
1,47,105,2
1,40,91,2
1,40,105,2
1,43,126,2
1,43,97,2
1,50,123,2
1,43,94,2
1,45,120,2
1,45,82,2
1,40,102,2
1,40,94,2
1,38,105,2
1,40,108,2
1,40,91,2
1,40,82,2
1,40,105,2
1,38,88,2
1,35,114,2
1,43,105,2
1,33,123,2
1,34,102,2
1,35,79,2
1,38,117,2
1,39,97,2
1,40,114,2
1,43,126,2
1,43,97,2
1,50,123,2
1,43,94,2
1,45,120,2
1,45,82,2
1,40,102,2
1,40,94,2
1,38,105,2
1,40,108,2
1,40,91,2
1,40,82,2
1,40,105,2
1,38,88,2
1,35,114,2
1,43,105,2
1,33,123,2
1,34,102,2
1,35,79,2
1,38,117,2
1,39,97,2
1,40,114,2
1,43,126,2
1,43,97,2
1,50,123,2
1,43,94,2
1,45,120,2
1,45,82,2
1,40,102,2
1,40,94,2
1,38,105,2
1,48,114,194
1,33,123,1346
1,34,102,2
1,35,117,2
1,38,91,2
1,39,120,2
1,40,117,2
1,40,108,2
1,40,99,2
1,38,91,2
1,35,111,2
1,40,114,2
1,40,108,2
1,38,85,2
1,35,114,2
1,38,105,2
1,40,120,2
1,40,94,2
1,40,105,2
1,42,88,2
1,43,120,2
1,40,114,2
1,40,102,2
1,40,94,2
1,40,111,2
1,40,117,2
1,40,102,2
1,40,82,2
1,40,114,2
1,40,97,2
1,40,88,2
1,40,117,2
1,40,99,2
1,40,97,2
1,40,127,2
1,40,94,2
1,40,105,2
1,40,117,2
1,40,97,2
1,40,120,2
1,40,99,2
1,40,127,2
2,76,127,384
2,76,127,4
2,74,127,4
2,76,127,4
2,74,127,4
2,69,127,4
2,69,127,4
2,71,127,4
2,64,127,772
2,64,127,4
2,67,127,4
2,69,127,4
2,69,127,4
2,71,127,4
2,76,127,1348
2,76,127,4
2,74,127,4
2,76,127,4
2,74,127,4
2,71,127,4
2,69,127,4
2,71,127,4
2,64,127,868
2,64,127,4
2,64,127,4
2,67,127,4
2,69,127,4
2,69,127,4
2,71,127,4
2,76,127,1540
2,76,127,4
2,76,127,4
2,74,127,4
2,76,127,4
2,74,127,4
2,69,127,4
2,71,127,4
2,71,127,772
2,69,127,4
2,67,127,4
2,69,127,4
2,69,127,4
2,71,127,4
2,67,127,100
2,67,127,4
2,69,127,4
2,71,127,4
2,74,127,196
2,74,127,4
2,76,127,4
2,70,127,4
2,69,127,4
2,67,127,4
2,69,127,4
2,64,127,100
2,67,127,4
2,69,127,4
2,70,127,4
2,69,127,4
2,69,127,4
2,64,127,4
2,76,127,4420
2,76,127,4
2,76,127,4
2,74,127,4
2,69,127,4
2,69,127,4
2,74,127,4
2,64,127,1156
2,64,127,4
2,67,127,4
2,69,127,4
2,69,127,4
2,71,127,4
2,76,127,1348
2,76,127,12
2,74,127,0
2,76,127,4
2,74,127,8
2,69,127,0
2,69,127,4
2,71,127,4
2,64,127,868
2,64,127,4
2,64,127,4
2,67,127,4
2,69,127,4
2,69,127,4
2,71,127,4
2,76,127,1732
2,76,127,4
2,74,127,4
2,76,127,4
2,74,127,4
2,69,127,4
2,71,127,4
2,71,127,388
2,71,127,8
2,69,127,8
2,67,127,0
2,69,127,8
2,71,127,0
2,71,127,4
2,64,127,484
2,67,127,4
2,69,127,4
2,71,127,4
2,74,127,196
2,74,127,4
2,76,127,4
2,70,127,4
2,69,127,4
2,67,127,4
2,69,127,4
2,64,127,100
2,67,127,4
2,69,127,4
2,70,127,4
2,69,127,4
2,69,127,4
2,67,127,96
2,64,127,4
2,76,127,384
2,76,127,4
2,76,127,4
2,74,127,4
2,69,127,4
2,69,127,4
2,74,127,4
2,64,127,1156
2,64,127,4
2,67,127,4
2,69,127,4
2,69,127,4
2,71,127,4
2,76,127,1348
2,76,127,12
2,74,127,0
2,76,127,4
2,74,127,8
2,69,127,0
2,69,127,4
2,71,127,4
2,64,127,868
2,64,127,4
2,64,127,4
2,67,127,4
2,69,127,4
2,69,127,4
2,71,127,4
2,76,127,1732
2,76,127,4
2,74,127,4
2,76,127,4
2,74,127,4
2,69,127,4
2,71,127,4
2,71,127,388
2,71,127,8
2,69,127,8
2,67,127,0
2,69,127,8
2,71,127,0
2,71,127,4
2,64,127,484
2,67,127,4
2,69,127,4
2,71,127,4
2,74,127,196
2,74,127,4
2,76,127,4
2,70,127,4
2,69,127,4
2,67,127,4
2,69,127,4
2,71,127,288
2,71,127,4
2,71,127,4
2,74,127,4
2,74,127,4
2,76,127,4
2,70,127,4
2,69,127,4
2,67,127,4
2,69,127,4
2,71,127,288
2,71,127,4
2,71,127,4
2,74,127,4
2,74,127,4
2,76,127,4
2,70,127,4
2,69,127,4
2,67,127,4
2,69,127,4
2,64,127,292
2,67,127,4
2,69,127,4
2,67,127,4
2,69,127,4
2,67,127,4
2,69,127,4
2,64,127,4
3,64,104,0
3,64,75,194
3,62,55,2
3,59,98,2
3,67,101,2
3,64,84,2
3,69,93,290
3,67,67,2
3,70,72,0
3,71,98,2
3,74,93,2
3,72,75,2
3,71,61,2
3,69,46,2
3,64,84,386
3,64,61,2
3,62,72,2
3,59,98,2
3,67,90,2
3,64,69,2
3,69,93,290
3,67,67,2
3,70,72,0
3,71,98,2
3,74,93,2
3,72,75,2
3,71,61,2
3,69,46,2
3,64,104,0
3,64,75,194
3,62,55,2
3,59,98,2
3,67,101,2
3,64,84,2
3,69,93,290
3,67,67,2
3,70,72,0
3,71,98,2
3,74,93,2
3,72,75,2
3,71,61,2
3,69,46,2
3,64,84,386
3,64,61,2
3,62,72,2
3,59,98,2
3,67,90,2
3,64,69,2
3,69,93,290
3,67,67,2
3,70,72,0
3,71,98,2
3,74,93,2
3,72,75,2
3,71,61,2
3,69,46,2
3,64,107,194
3,64,93,2
3,64,78,2
3,62,110,2
3,64,101,578
3,64,87,2
3,64,75,2
3,62,78,2
3,59,107,98
3,62,75,2
3,59,95,2
3,64,104,98
3,64,93,2
3,62,81,2
3,64,93,2
3,59,110,98
3,62,93,2
3,59,95,2
3,64,104,98
3,64,93,2
3,62,81,2
3,64,93,2
3,59,110,98
3,62,93,2
3,59,95,2
3,64,104,98
3,64,93,2
3,62,81,2
3,64,93,2
3,59,110,98
3,62,93,2
3,59,95,2
3,64,104,98
3,64,93,2
3,62,81,2
3,64,93,2
3,59,110,98
3,62,93,2
3,59,95,2
3,64,104,98
3,64,93,2
3,62,81,2
3,64,93,2
3,59,110,98
3,62,93,2
3,64,75,1730
3,62,55,2
3,59,98,2
3,67,101,2
3,64,84,2
3,69,93,290
3,67,67,2
3,70,72,0
3,71,98,2
3,74,93,2
3,72,75,2
3,71,61,2
3,69,46,2
3,64,84,386
3,64,61,2
3,62,72,2
3,59,98,2
3,67,90,2
3,64,69,2
3,69,93,290
3,67,67,2
3,70,72,0
3,71,87,2
3,74,104,2
3,64,104,0
