track,note,velocity,time
2,65,65,3000
2,65,0,58
2,67,65,2
2,67,0,58
2,69,65,2
2,69,0,58
2,70,65,2
2,70,0,160
2,69,65,20
2,69,0,58
2,67,65,2
2,67,0,160
2,67,65,20
2,67,0,58
2,65,65,2
2,65,0,178
2,65,65,2
2,65,0,100
2,65,65,20
2,65,0,100
2,65,65,1280
2,65,0,58
2,65,65,2
2,65,0,210
2,67,65,30
2,67,0,58
2,69,65,2
2,69,0,58
2,70,65,2
2,70,0,58
2,69,65,2
2,69,0,160
2,67,65,20
2,67,0,100
2,67,65,20
2,67,0,100
2,65,65,20
2,65,0,58
2,65,65,2
2,65,0,160
2,62,65,20
2,62,0,58
2,60,50,2
2,60,0,100
2,65,65,1220
2,65,0,58
2,65,65,2
2,65,0,100
2,67,65,20
2,67,0,58
2,69,65,2
2,69,0,58
2,70,65,2
2,70,0,60
2,69,65,0
2,69,0,220
2,69,65,20
2,69,0,58
2,67,65,2
2,67,0,100
2,67,65,20
2,67,0,100
2,65,65,20
2,65,0,100
2,65,65,20
2,65,0,100
2,62,65,20
2,62,0,58
2,60,50,2
2,60,0,100
2,65,65,1220
2,65,0,58
2,65,65,2
2,65,0,210
2,67,65,30
2,67,0,58
2,69,65,2
2,69,0,58
2,70,65,2
2,70,0,58
2,69,65,2
2,69,0,100
2,67,65,80
2,67,0,100
2,67,65,20
2,67,0,100
2,65,65,20
2,65,0,58
2,65,65,2
2,65,0,160
2,65,65,20
2,65,0,80
2,67,65,0
2,67,0,40
2,65,65,0
2,65,0,160
2,70,92,1040
2,70,0,58
2,70,92,2
2,70,0,58
2,70,92,2
2,70,0,100
2,70,92,20
2,70,0,58
2,69,92,2
2,69,0,160
2,69,92,20
2,69,0,100
2,67,92,20
2,67,0,58
2,65,92,2
2,65,0,160
2,69,92,20
2,69,0,120
2,67,92,0
2,67,0,60
2,69,92,0
2,69,0,120
2,67,92,0
2,67,0,60
2,69,92,0
2,69,0,60
2,70,92,0
2,70,0,60
2,69,92,0
2,69,0,118
2,67,92,2
2,67,0,58
2,69,92,2
2,69,0,58
2,70,92,2
2,70,0,58
2,70,92,2
2,70,0,178
2,69,92,2
2,69,0,100
2,69,92,20
2,69,0,100
2,67,92,20
2,67,0,58
2,65,92,2
2,65,0,160
2,69,92,20
2,69,0,120
2,67,92,0
2,67,0,60
2,69,92,0
2,69,0,120
2,67,92,0
2,67,0,60
2,69,92,0
2,69,0,60
2,70,92,0
2,70,0,60
2,69,92,0
2,69,0,118
2,67,92,2
2,67,0,58
2,69,92,2
2,69,0,58
2,70,92,2
2,70,0,100
2,70,92,20
2,70,0,100
2,69,92,20
2,69,0,100
2,67,92,20
2,67,0,100
2,65,92,140
2,65,0,58
2,67,92,2
2,67,0,58
2,69,92,2
2,69,0,120
2,67,92,0
2,67,0,60
2,69,92,0
2,69,0,120
2,67,92,0
2,67,0,60
2,69,92,0
2,69,0,60
2,70,92,0
2,70,0,60
2,69,92,0
2,69,0,120
2,65,92,0
2,65,0,60
2,67,92,0
2,67,0,240
2,60,60,780
2,60,0,58
2,60,60,2
2,60,0,58
2,67,80,2
2,67,0,238
2,65,80,2
2,65,0,58
2,65,80,2
2,65,0,58
2,65,80,2
2,65,0,160
2,65,80,2600
2,65,0,58
2,65,80,2
2,65,0,58
2,65,80,2
2,65,0,100
2,67,80,20
2,67,0,58
2,69,80,2
2,69,0,160
2,70,80,20
2,70,0,58
2,69,80,2
2,69,0,178
2,67,80,2
2,67,0,100
2,67,80,20
2,67,0,100
2,65,80,20
2,65,0,58
2,65,80,2
2,65,0,160
2,65,80,20
2,65,0,160
2,65,80,1160
2,65,0,58
2,65,80,2
2,65,0,58
2,65,80,2
2,65,0,100
2,67,80,20
2,67,0,58
2,69,80,2
2,69,0,160
2,70,80,20
2,70,0,58
2,69,80,2
2,69,0,178
2,67,80,2
2,67,0,100
2,67,80,20
2,67,0,100
2,65,80,20
2,65,0,58
2,65,80,2
2,65,0,160
2,65,80,20
2,65,0,160
2,65,80,1160
2,65,0,58
2,65,80,2
2,65,0,58
2,65,80,2
2,65,0,100
2,67,80,20
2,67,0,58
2,69,80,2
2,69,0,160
2,70,80,20
2,70,0,58
2,69,80,2
2,69,0,178
2,67,80,2
2,67,0,100
2,67,80,20
2,67,0,100
2,65,80,20
2,65,0,58
2,65,80,2
2,65,0,160
2,65,80,20
2,65,0,160
2,65,80,1160
2,65,0,58
2,65,80,2
2,65,0,58
2,65,80,2
2,65,0,100
2,67,80,20
2,67,0,58
2,69,80,2
2,69,0,160
2,70,80,20
2,70,0,58
2,69,80,2
2,69,0,178
2,67,80,2
2,67,0,100
2,67,80,20
2,67,0,100
2,65,80,20
2,65,0,58
2,65,80,2
2,65,0,160
2,65,80,20
2,65,0,160
2,70,80,1160
2,70,0,58
2,70,80,2
2,70,0,58
2,70,113,2
2,70,0,100
2,70,113,20
2,70,0,100
2,69,113,20
2,69,0,100
2,67,113,20
2,67,0,100
2,65,113,140
2,65,0,58
2,67,113,2
2,67,0,58
2,69,113,2
2,69,0,120
2,67,113,0
2,67,0,60
2,69,113,0
2,69,0,120
2,67,113,0
2,67,0,60
2,69,113,0
2,69,0,60
2,70,113,0
2,70,0,60
2,69,113,0
2,69,0,118
2,67,113,2
2,67,0,58
2,69,113,2
2,69,0,58
2,70,113,2
2,70,0,100
2,70,113,20
2,70,0,100
2,69,113,20
2,69,0,100
2,69,113,20
2,69,0,58
2,67,113,2
2,67,0,58
2,65,113,2
2,65,0,58
2,69,113,182
2,69,0,120
2,67,113,0
2,67,0,60
2,69,113,0
2,69,0,120
2,67,113,0
2,67,0,60
2,69,113,0
2,69,0,60
2,70,113,0
2,70,0,60
2,69,113,0
2,69,0,118
2,67,113,2
2,67,0,58
2,69,113,2
2,69,0,58
2,70,113,2
2,70,0,100
2,70,113,20
2,70,0,100
2,69,113,20
2,69,0,100
2,67,113,20
2,67,0,100
2,65,113,140
2,65,0,58
2,67,113,2
2,67,0,58
2,69,113,2
2,69,0,120
2,67,113,0
2,67,0,60
2,69,113,0
2,69,0,120
2,67,113,0
2,67,0,60
2,69,113,0
2,69,0,60
2,70,113,0
2,70,0,60
2,69,113,0
2,69,0,120
2,65,113,0
2,65,0,60
2,67,113,0
2,67,0,240
2,60,93,780
2,60,0,58
2,60,93,2
2,60,0,58
2,67,113,2
2,67,0,100
2,65,113,140
2,65,0,58
2,65,113,2
2,65,0,58
2,65,113,2
2,65,0,160
2,60,80,2960
2,60,0,58
2,60,80,2
2,60,0,58
2,65,80,2
2,65,0,100
2,67,80,20
2,67,0,58
2,69,80,2
2,69,0,160
2,70,80,20
2,70,0,120
2,69,80,0
2,69,0,60
2,67,80,0
2,67,0,180
2,63,80,660
2,63,0,58
2,67,80,2
2,67,0,100
2,67,80,20
2,67,0,58
2,69,80,2
2,69,0,160
2,70,80,20
2,70,0,120
2,69,80,0
2,69,0,60
2,67,80,0
2,67,0,60
2,65,80,0
2,65,0,120
2,70,80,480
2,70,0,58
2,70,80,2
2,70,0,58
2,70,80,2
2,70,0,100
2,70,80,20
2,70,0,100
2,69,80,20
2,69,0,58
2,67,80,2
2,67,0,160
2,69,90,20
2,69,0,120
2,67,90,0
2,67,0,60
2,69,90,0
2,69,0,120
2,67,90,0
2,67,0,60
2,69,90,0
2,69,0,120
2,67,90,0
2,67,0,60
2,69,90,0
2,69,0,100
2,67,90,20
2,67,0,60
2,69,95,0
2,69,0,120
2,67,95,0
2,67,0,60
2,69,95,0
2,69,0,120
2,67,95,0
2,67,0,60
2,69,95,0
2,69,0,120
2,67,95,0
2,67,0,60
2,69,95,0
2,69,0,100
2,67,95,20
2,67,0,60
2,69,100,0
2,69,0,120
2,67,100,0
2,67,0,60
2,69,100,0
2,69,0,120
2,67,100,0
2,67,0,60
2,69,100,0
2,69,0,180
2,70,100,480
2,70,0,58
2,70,100,2
2,70,0,100
2,69,100,20
2,69,0,100
2,65,100,20
2,65,0,58
2,67,100,2
2,67,0,220
2,67,80,320
2,67,0,58
2,67,80,2
2,67,0,58
2,65,80,2
2,65,0,58
2,64,80,2
2,64,0,58
2,65,80,2
2,65,0,160
2,72,80,2960
2,72,0,58
2,72,80,2
2,72,0,58
2,72,80,2
2,72,0,100
2,70,80,20
2,70,0,100
2,68,80,20
2,68,0,58
2,70,80,2
2,70,0,120
2,72,80,0
2,72,0,280
2,70,80,200
2,70,0,100
2,67,80,20
2,67,0,58
2,67,80,2
2,67,0,60
2,68,80,0
2,68,0,60
2,67,80,0
2,67,0,60
2,65,80,0
2,65,0,340
2,65,80,20
2,65,0,100
2,65,80,20
2,65,0,58
2,65,80,2
2,65,0,160
2,72,80,800
2,72,0,58
2,72,80,2
2,72,0,58
2,72,80,2
2,72,0,100
2,70,80,20
2,70,0,100
2,68,80,20
2,68,0,58
2,70,80,2
2,70,0,120
2,72,80,0
2,72,0,280
2,70,80,200
2,70,0,60
2,68,80,0
2,68,0,100
2,67,80,20
2,67,0,58
2,65,80,2
2,65,0,280
2,65,80,140
2,65,0,58
2,65,80,2
2,65,0,160
2,65,80,20
2,65,0,160
2,65,80,680
2,65,0,100
2,67,80,20
2,67,0,58
2,68,80,2
2,68,0,160
2,70,80,20
2,70,0,58
2,72,80,2
2,72,0,100
2,70,80,20
2,70,0,120
2,68,80,0
2,68,0,100
2,65,80,20
2,65,0,100
2,65,80,20
2,65,0,100
2,67,80,20
2,67,0,100
2,63,80,20
2,63,0,58
2,65,80,2
2,65,0,810
3,65,65,3004
3,65,0,58
3,67,65,2
3,67,0,58
3,69,65,2
3,69,0,58
3,70,65,2
3,70,0,160
3,69,65,20
3,69,0,58
3,67,65,2
3,67,0,160
3,67,65,20
3,67,0,58
3,65,65,2
3,65,0,178
3,65,65,2
3,65,0,100
3,65,65,20
3,65,0,100
3,65,65,1280
3,65,0,58
3,65,65,2
3,65,0,210
3,67,65,30
3,67,0,58
3,69,65,2
3,69,0,58
3,70,65,2
3,70,0,58
3,69,65,2
3,69,0,160
3,67,65,20
3,67,0,100
3,67,65,20
3,67,0,100
3,65,65,20
3,65,0,58
3,65,65,2
3,65,0,160
3,62,65,20
3,62,0,58
3,60,50,2
3,60,0,100
3,65,65,1220
3,65,0,58
3,65,65,2
3,65,0,100
3,67,65,20
3,67,0,58
3,69,65,2
3,69,0,58
3,70,65,2
3,70,0,60
3,69,65,0
3,69,0,220
3,69,65,20
3,69,0,58
3,67,65,2
3,67,0,100
3,67,65,20
3,67,0,100
3,65,65,20
3,65,0,100
3,65,65,20
3,65,0,100
3,62,65,20
3,62,0,58
3,60,50,2
3,60,0,100
3,65,65,1220
3,65,0,58
3,65,65,2
3,65,0,210
3,67,65,30
3,67,0,58
3,69,65,2
3,69,0,58
3,70,65,2
3,70,0,58
3,69,65,2
3,69,0,100
3,67,65,80
3,67,0,100
3,67,65,20
3,67,0,100
3,65,65,20
3,65,0,58
3,65,65,2
3,65,0,160
3,65,65,20
3,65,0,80
3,67,65,0
3,67,0,40
3,65,65,0
3,65,0,160
3,70,92,1040
3,70,0,58
3,70,92,2
3,70,0,58
3,70,92,2
3,70,0,100
3,70,92,20
3,70,0,58
3,69,92,2
3,69,0,160
3,69,92,20
3,69,0,100
3,67,92,20
3,67,0,58
3,65,92,2
3,65,0,160
3,69,92,20
3,69,0,120
3,67,92,0
3,67,0,60
3,69,92,0
3,69,0,120
3,67,92,0
3,67,0,60
3,69,92,0
3,69,0,60
3,70,92,0
3,70,0,60
3,69,92,0
3,69,0,118
3,67,92,2
3,67,0,58
3,69,92,2
3,69,0,58
3,70,92,2
3,70,0,58
3,70,92,2
3,70,0,178
3,69,92,2
3,69,0,100
3,69,92,20
3,69,0,100
3,67,92,20
3,67,0,58
3,65,92,2
3,65,0,160
3,69,92,20
3,69,0,120
3,67,92,0
3,67,0,60
3,69,92,0
3,69,0,120
3,67,92,0
3,67,0,60
3,69,92,0
3,69,0,60
3,70,92,0
3,70,0,60
3,69,92,0
3,69,0,118
3,67,92,2
3,67,0,58
3,69,92,2
3,69,0,58
3,70,92,2
3,70,0,100
3,70,92,20
3,70,0,100
3,69,92,20
3,69,0,100
3,67,92,20
3,67,0,100
3,65,92,140
3,65,0,58
3,67,92,2
3,67,0,58
3,69,92,2
3,69,0,120
3,67,92,0
3,67,0,60
3,69,92,0
3,69,0,120
3,67,92,0
3,67,0,60
3,69,92,0
3,69,0,60
3,70,92,0
3,70,0,60
3,69,92,0
3,69,0,120
3,65,92,0
3,65,0,60
3,67,92,0
3,67,0,240
3,60,60,780
3,60,0,58
3,60,60,2
3,60,0,58
3,67,80,2
3,67,0,238
3,65,80,2
3,65,0,58
3,65,80,2
3,65,0,58
3,65,80,2
3,65,0,160
3,65,80,2600
3,65,0,58
3,65,80,2
3,65,0,58
3,65,80,2
3,65,0,100
3,67,80,20
3,67,0,58
3,69,80,2
3,69,0,160
3,70,80,20
3,70,0,58
3,69,80,2
3,69,0,178
3,67,80,2
3,67,0,100
3,67,80,20
3,67,0,100
3,65,80,20
3,65,0,58
3,65,80,2
3,65,0,160
3,65,80,20
3,65,0,160
3,65,80,1160
3,65,0,58
3,65,80,2
3,65,0,58
3,65,80,2
3,65,0,100
3,67,80,20
3,67,0,58
3,69,80,2
3,69,0,160
3,70,80,20
3,70,0,58
3,69,80,2
3,69,0,178
3,67,80,2
3,67,0,100
3,67,80,20
3,67,0,100
3,65,80,20
3,65,0,58
3,65,80,2
3,65,0,160
3,65,80,20
3,65,0,160
3,65,80,1160
3,65,0,58
3,65,80,2
3,65,0,58
3,65,80,2
3,65,0,100
3,67,80,20
3,67,0,58
3,69,80,2
3,69,0,160
3,70,80,20
3,70,0,58
3,69,80,2
3,69,0,178
3,67,80,2
3,67,0,100
3,67,80,20
3,67,0,100
3,65,80,20
3,65,0,58
3,65,80,2
3,65,0,160
3,65,80,20
3,65,0,160
3,65,80,1160
3,65,0,58
3,65,80,2
3,65,0,58
3,65,80,2
3,65,0,100
3,67,80,20
3,67,0,58
3,69,80,2
3,69,0,160
3,70,80,20
3,70,0,58
3,69,80,2
3,69,0,178
3,67,80,2
3,67,0,100
3,67,80,20
3,67,0,100
3,65,80,20
3,65,0,58
3,65,80,2
3,65,0,160
3,65,80,20
3,65,0,160
3,70,80,1160
3,70,0,58
3,70,80,2
3,70,0,58
3,70,113,2
3,70,0,100
3,70,113,20
3,70,0,100
3,69,113,20
3,69,0,100
3,67,113,20
3,67,0,100
3,65,113,140
3,65,0,58
3,67,113,2
3,67,0,58
3,69,113,2
3,69,0,120
3,67,113,0
3,67,0,60
3,69,113,0
3,69,0,120
3,67,113,0
3,67,0,60
3,69,113,0
3,69,0,60
3,70,113,0
3,70,0,60
3,69,113,0
3,69,0,118
3,67,113,2
3,67,0,58
3,69,113,2
3,69,0,58
3,70,113,2
3,70,0,100
3,70,113,20
3,70,0,100
3,69,113,20
3,69,0,100
3,69,113,20
3,69,0,58
3,67,113,2
3,67,0,58
3,65,113,2
3,65,0,58
3,69,113,182
3,69,0,120
3,67,113,0
3,67,0,60
3,69,113,0
3,69,0,120
3,67,113,0
3,67,0,60
3,69,113,0
3,69,0,60
3,70,113,0
3,70,0,60
3,69,113,0
3,69,0,118
3,67,113,2
3,67,0,58
3,69,113,2
3,69,0,58
3,70,113,2
3,70,0,100
3,70,113,20
3,70,0,100
3,69,113,20
3,69,0,100
3,67,113,20
3,67,0,100
3,65,113,140
3,65,0,58
3,67,113,2
3,67,0,58
3,69,113,2
3,69,0,120
3,67,113,0
3,67,0,60
3,69,113,0
3,69,0,120
3,67,113,0
3,67,0,60
3,69,113,0
3,69,0,60
3,70,113,0
3,70,0,60
3,69,113,0
3,69,0,120
3,65,113,0
3,65,0,60
3,67,113,0
3,67,0,240
3,60,93,780
3,60,0,58
3,60,93,2
3,60,0,58
3,67,113,2
3,67,0,100
3,65,113,140
3,65,0,58
3,65,113,2
3,65,0,58
3,65,113,2
3,65,0,160
3,60,80,2960
3,60,0,58
