track,note,velocity,time
1,36,121,462
1,36,127,138
1,48,127,3
1,43,127,120
1,36,127,10
1,48,127,150
1,43,127,23
1,36,127,0
1,48,127,185
1,43,127,113
1,36,127,15
1,36,127,35
1,43,127,3
1,48,127,5
1,36,127,40
1,48,127,3
1,43,127,13
1,36,127,10
1,48,127,240
1,43,127,28
1,36,127,0
1,48,127,65
1,43,127,43
1,36,127,15
1,36,127,35
1,43,127,10
1,48,127,5
1,36,127,35
1,48,127,3
1,43,127,35
1,36,127,10
1,48,127,75
1,43,127,113
1,36,127,0
1,48,127,35
1,43,127,48
1,36,127,15
1,36,127,35
1,43,127,10
1,48,127,5
1,36,127,40
1,48,127,3
1,43,127,120
1,36,127,3
1,48,127,240
1,43,127,113
1,36,127,0
1,48,127,25
1,43,127,113
1,36,127,15
1,36,127,35
1,43,127,10
1,48,127,5
1,36,127,40
1,48,127,0
1,43,127,68
1,36,127,10
1,48,127,13
1,43,127,120
1,36,127,103
1,48,127,68
1,43,127,8
1,36,127,15
1,36,127,48
1,43,127,15
1,48,127,43
1,36,127,20
1,48,127,3
1,43,127,55
1,36,127,10
1,48,127,113
1,43,127,108
1,36,127,0
1,48,127,3
1,43,127,85
1,36,127,15
1,36,127,40
1,43,127,0
1,48,127,83
1,36,127,95
1,48,127,0
1,43,127,28
1,36,127,13
1,36,127,43
1,43,127,5
1,48,127,23
1,34,127,0
1,46,127,0
1,41,127,93
1,34,127,18
1,34,127,25
1,41,127,0
1,46,127,15
1,32,127,23
1,44,127,145
1,39,127,105
1,32,127,40
1,32,127,30
1,39,127,0
1,44,127,13
1,36,127,28
1,48,127,0
1,41,127,0
1,36,127,40
1,36,127,18
1,41,127,13
1,48,127,30
1,36,127,38
1,48,127,13
1,43,127,120
1,36,127,10
1,48,127,13
1,43,127,120
1,36,127,85
1,48,127,165
1,43,127,35
1,36,127,15
1,36,127,48
1,43,127,15
1,48,127,50
1,36,127,20
1,48,127,3
1,43,127,10
1,36,127,10
1,48,127,103
1,43,127,80
1,36,127,0
1,48,127,3
1,43,127,23
1,36,127,15
1,36,127,40
1,43,127,0
1,48,127,120
1,36,127,105
1,48,127,0
1,43,127,120
1,36,127,13
1,36,127,43
1,43,127,5
1,48,127,23
1,34,127,23
1,46,127,0
1,41,127,83
1,34,127,18
1,34,127,25
1,41,127,0
1,46,127,15
1,32,127,23
1,44,127,83
1,39,127,115
1,32,127,40
1,32,127,30
1,39,127,3
1,44,127,20
1,39,127,28
1,51,127,25
1,46,127,73
1,39,127,40
1,39,127,30
1,46,127,3
1,51,127,20
1,39,127,28
1,51,127,20
1,46,127,13
1,39,127,48
1,51,127,3
1,46,127,100
1,39,127,33
1,51,127,10
1,46,127,15
1,39,127,68
1,39,127,38
1,46,127,20
1,51,127,40
1,39,127,43
1,51,127,43
1,46,127,20
1,39,127,43
1,51,127,240
1,46,127,113
1,39,127,10
1,51,127,30
1,46,127,18
1,39,127,60
1,39,127,60
1,46,127,15
1,51,127,18
1,43,127,40
1,55,127,48
1,50,127,13
1,43,127,20
1,43,127,33
1,50,127,28
1,55,127,0
1,41,127,40
1,53,127,5
1,48,127,120
1,41,127,28
1,41,127,8
1,48,127,5
1,53,127,15
1,39,127,23
1,51,127,8
1,46,127,85
1,39,127,28
1,39,127,53
1,46,127,10
1,51,127,30
1,39,127,38
1,51,127,240
1,46,127,45
1,39,127,38
1,39,127,50
1,46,127,28
1,51,127,25
1,39,127,43
1,51,127,20
1,46,127,13
1,39,127,48
1,51,127,3
1,46,127,73
1,39,127,33
1,51,127,10
1,46,127,15
1,39,127,68
1,39,127,38
1,46,127,20
1,51,127,55
1,39,127,43
1,51,127,0
1,46,127,20
1,39,127,43
1,51,127,83
1,46,127,25
1,39,127,38
1,51,127,30
1,46,127,18
1,39,127,60
1,39,127,60
1,46,127,30
1,51,127,18
1,43,127,40
1,55,127,75
1,50,127,13
1,43,127,20
1,43,127,48
1,50,127,120
1,55,127,0
1,41,127,40
1,53,127,5
1,48,127,10
1,41,127,28
1,41,127,0
1,48,127,5
1,53,127,15
1,39,127,20
1,51,127,8
1,46,127,120
1,39,127,28
1,39,127,53
1,46,127,10
1,51,127,30
1,36,127,38
1,48,127,23
1,43,127,110
1,36,127,38
1,36,127,50
1,43,127,28
1,48,127,25
1,36,127,28
1,48,127,53
1,43,127,105
1,36,127,10
1,48,127,13
1,43,127,120
1,36,127,58
1,48,127,100
1,43,127,43
1,36,127,15
1,36,127,48
1,43,127,15
1,48,127,93
1,36,127,20
1,48,127,3
1,43,127,120
1,36,127,10
1,48,127,240
1,43,127,113
1,36,127,0
1,48,127,3
1,43,127,103
1,36,127,8
1,36,127,40
1,43,127,0
1,48,127,100
1,36,127,105
1,48,127,0
1,43,127,120
1,36,127,13
1,36,127,43
1,43,127,5
1,48,127,23
1,34,127,23
1,46,127,0
1,41,127,120
1,34,127,18
1,34,127,25
1,41,127,0
1,46,127,15
1,32,127,23
1,44,127,20
1,39,127,115
1,32,127,40
1,32,127,30
1,39,127,3
1,44,127,20
1,36,127,28
1,48,127,0
1,41,127,0
1,36,127,20
1,36,127,40
1,41,127,15
1,48,127,30
1,36,127,38
1,48,127,20
1,43,127,20
1,36,127,10
1,48,127,13
1,43,127,70
1,36,127,85
1,48,127,230
1,43,127,93
1,36,127,15
1,36,127,40
1,43,127,15
1,48,127,83
1,36,127,20
1,48,127,3
1,43,127,120
1,36,127,10
1,48,127,240
1,43,127,5
1,36,127,0
1,48,127,3
1,43,127,58
1,36,127,15
1,36,127,10
1,43,127,0
1,48,127,120
1,36,127,30
1,48,127,0
1,43,127,120
1,36,127,13
1,36,127,5
1,43,127,5
1,48,127,23
1,34,127,23
1,46,127,0
1,41,127,0
1,34,127,18
1,34,127,25
1,41,127,0
1,46,127,5
1,32,127,23
1,44,127,118
1,39,127,115
1,32,127,40
1,32,127,30
1,39,127,3
1,44,127,20
1,39,127,28
1,51,127,23
1,46,127,70
1,39,127,40
1,39,127,5
1,46,127,3
1,51,127,20
1,39,127,28
1,51,127,20
1,46,127,13
1,39,127,48
1,51,127,3
1,46,127,25
1,39,127,33
1,51,127,10
1,46,127,15
1,39,127,53
1,39,127,38
1,46,127,20
1,51,127,38
1,39,127,43
1,51,127,0
1,46,127,18
1,39,127,43
1,51,127,20
1,46,127,113
1,39,127,38
1,51,127,30
1,46,127,18
1,39,127,60
1,39,127,60
1,46,127,30
1,51,127,18
1,43,127,40
1,55,127,118
1,50,127,13
1,43,127,20
1,43,127,48
1,50,127,8
1,55,127,0
1,41,127,33
1,53,127,5
1,48,127,120
1,41,127,28
1,41,127,8
1,48,127,5
1,53,127,15
1,39,127,23
1,51,127,8
1,46,127,68
1,39,127,28
1,39,127,53
1,46,127,10
1,51,127,30
1,39,127,38
1,51,127,13
1,46,127,43
1,39,127,38
1,39,127,50
1,46,127,28
1,51,127,25
1,39,127,43
1,51,127,5
1,46,127,13
1,39,127,33
1,51,127,3
1,46,127,15
1,39,127,33
1,51,127,10
1,46,127,15
1,39,127,63
1,39,127,38
1,46,127,15
1,51,127,45
1,39,127,43
1,51,127,0
1,46,127,20
1,39,127,43
1,51,127,240
1,46,127,78
1,39,127,38
1,51,127,8
1,46,127,18
1,39,127,60
1,39,127,28
1,46,127,30
1,51,127,18
1,43,127,40
1,55,127,73
1,50,127,13
1,43,127,20
1,43,127,48
1,50,127,18
1,55,127,0
1,41,127,8
1,53,127,5
1,48,127,63
1,41,127,28
1,41,127,8
1,48,127,5
1,53,127,15
1,39,127,23
1,51,127,8
1,46,127,120
1,39,127,28
1,39,127,53
1,46,127,10
1,51,127,30
1,36,127,38
1,48,127,38
1,43,127,110
1,36,127,38
1,36,127,50
1,43,127,28
1,48,127,25
1,67,127,120
1,72,127,120
1,75,127,65
1,79,127,25
1,75,127,120
1,72,127,48
1,67,127,80
1,67,127,13
1,72,127,8
1,75,127,120
1,79,127,5
1,75,127,120
1,72,127,90
1,67,127,98
1,67,127,18
1,72,127,8
1,75,127,120
1,79,127,5
1,75,127,120
1,72,127,90
1,67,127,98
1,67,127,20
1,72,127,8
1,75,127,120
1,79,127,5
1,75,127,120
1,72,127,90
1,67,127,98
1,67,127,23
1,72,127,8
1,75,127,120
1,79,127,5
1,75,127,120
1,72,127,90
1,65,127,98
1,65,127,120
1,70,127,0
1,74,127,120
1,77,127,5
1,74,127,120
1,70,127,90
1,63,127,98
1,63,127,120
1,68,127,0
1,72,127,0
1,75,127,0
1,72,127,0
1,63,127,0
1,60,127,0
1,67,127,120
1,72,127,120
1,75,127,65
1,79,127,25
1,75,127,120
1,72,127,48
1,67,127,80
1,67,127,13
1,72,127,120
1,75,127,65
1,79,127,25
1,75,127,120
1,72,127,48
1,67,127,80
1,67,127,13
1,72,127,8
1,75,127,120
1,79,127,5
1,75,127,120
1,72,127,90
1,67,127,98
1,67,127,18
1,72,127,8
1,75,127,120
1,79,127,5
1,75,127,120
1,72,127,90
1,67,127,98
1,67,127,20
1,72,127,8
1,75,127,120
1,79,127,5
1,75,127,120
1,72,127,90
1,67,127,98
1,67,127,23
1,72,127,8
1,75,127,120
1,79,127,5
1,75,127,120
1,72,127,90
1,65,127,98
1,65,127,120
1,70,127,0
1,74,127,120
1,77,127,5
1,74,127,120
1,70,127,90
1,63,127,98
1,63,127,120
1,68,127,0
1,72,127,0
1,75,127,0
1,72,127,0
1,63,127,0
1,60,127,0
1,67,127,120
1,72,127,8
1,75,127,120
1,79,127,5
1,75,127,120
1,72,127,90
1,67,127,98
1,70,127,23
1,75,127,120
1,79,127,65
1,82,127,25
1,79,127,120
1,75,127,48
1,70,127,80
1,70,127,13
1,75,127,8
1,79,127,120
1,82,127,5
1,79,127,120
1,75,127,90
1,70,127,98
1,70,127,18
1,75,127,8
1,79,127,120
1,82,127,5
1,79,127,120
1,75,127,90
1,70,127,98
1,70,127,20
1,75,127,8
1,79,127,120
1,82,127,5
1,79,127,120
1,75,127,90
1,70,127,98
1,74,127,23
1,79,127,8
1,82,127,120
1,86,127,5
1,82,127,120
1,79,127,90
1,74,127,98
1,72,127,120
1,77,127,0
1,81,127,120
1,84,127,5
1,81,127,120
1,77,127,90
1,72,127,98
1,70,127,120
1,75,127,0
1,79,127,0
1,82,127,0
1,79,127,0
1,70,127,0
1,67,127,0
1,70,127,120
1,75,127,120
1,79,127,65
1,82,127,25
1,79,127,120
1,75,127,48
1,70,127,80
1,70,127,13
1,75,127,120
1,79,127,65
1,82,127,25
1,79,127,120
1,75,127,48
1,70,127,80
1,70,127,13
1,75,127,8
1,79,127,120
1,82,127,5
1,79,127,120
1,75,127,90
1,70,127,98
1,70,127,18
1,75,127,8
1,79,127,120
1,82,127,5
1,79,127,120
1,75,127,90
1,70,127,98
1,70,127,20
1,75,127,8
1,79,127,120
1,82,127,5
1,79,127,120
1,75,127,90
1,70,127,98
1,74,127,23
1,79,127,8
1,82,127,120
1,86,127,5
1,82,127,120
1,79,127,90
1,74,127,98
1,72,127,120
1,77,127,0
1,81,127,120
1,84,127,5
1,81,127,120
1,77,127,90
1,72,127,98
1,70,127,120
1,75,127,0
1,79,127,0
1,82,127,0
1,79,127,0
1,70,127,0
1,67,127,0
1,70,127,120
1,75,127,120
1,79,127,65
1,84,127,25
1,36,127,0
1,36,127,50
1,43,127,28
1,48,127,25
1,36,127,43
1,48,127,173
1,43,127,105
1,36,127,3
1,48,127,13
1,43,127,40
1,36,127,103
1,48,127,133
1,43,127,93
1,36,127,15
1,36,127,45
1,43,127,15
1,48,127,120
1,36,127,20
1,48,127,3
1,43,127,103
1,36,127,10
1,48,127,33
1,43,127,113
1,36,127,0
1,48,127,3
1,43,127,120
1,36,127,3
1,36,127,40
1,43,127,0
1,48,127,5
1,36,127,55
1,48,127,0
1,43,127,38
1,36,127,13
1,36,127,43
1,43,127,5
1,48,127,23
1,34,127,13
1,46,127,0
1,41,127,15
1,34,127,18
1,34,127,25
1,41,127,0
1,46,127,15
1,32,127,23
1,44,127,50
1,39,127,98
1,32,127,40
1,32,127,30
1,39,127,3
1,44,127,20
1,36,127,28
1,48,127,0
1,41,127,0
1,36,127,35
1,36,127,40
1,41,127,15
1,48,127,30
1,36,127,38
1,48,127,20
1,43,127,120
1,36,127,10
1,48,127,13
1,43,127,85
1,36,127,103
1,48,127,15
1,43,127,10
1,36,127,15
1,36,127,48
1,43,127,13
1,48,127,120
1,36,127,20
1,48,127,3
1,43,127,75
1,36,127,10
1,48,127,25
1,43,127,113
1,36,127,0
1,48,127,3
1,43,127,70
1,36,127,15
1,36,127,40
1,43,127,0
1,48,127,120
1,36,127,105
1,48,127,0
1,43,127,120
1,36,127,13
1,36,127,43
1,43,127,5
1,48,127,23
1,34,127,3
1,46,127,0
1,41,127,23
1,34,127,18
1,34,127,25
1,41,127,0
1,46,127,15
1,32,127,23
1,44,127,240
1,39,127,18
1,32,127,40
1,32,127,30
1,39,127,3
1,44,127,20
1,39,127,28
1,51,127,195
1,46,127,115
1,39,127,40
1,39,127,30
1,46,127,3
1,51,127,20
1,39,127,28
1,51,127,20
1,46,127,13
1,39,127,38
1,51,127,3
1,46,127,58
1,39,127,33
1,51,127,10
1,46,127,15
1,39,127,68
1,39,127,38
1,46,127,20
1,51,127,15
1,39,127,43
1,51,127,0
1,46,127,20
1,39,127,43
1,51,127,240
1,46,127,10
1,39,127,38
1,51,127,30
1,46,127,18
1,39,127,38
1,39,127,60
1,46,127,28
1,51,127,18
1,43,127,40
1,55,127,25
1,50,127,13
1,43,127,20
1,43,127,10
1,50,127,40
1,55,127,0
1,41,127,40
1,53,127,5
1,48,127,120
1,41,127,8
1,41,127,8
1,48,127,5
1,53,127,15
1,39,127,23
1,51,127,8
1,46,127,45
1,39,127,28
1,39,127,53
1,46,127,10
1,51,127,30
1,39,127,38
1,51,127,8
1,46,127,3
1,39,127,38
1,39,127,50
1,46,127,28
1,51,127,18
1,39,127,43
1,51,127,20
1,46,127,13
1,39,127,48
1,51,127,3
1,46,127,120
1,39,127,5
1,51,127,10
1,46,127,10
1,39,127,40
1,39,127,33
1,46,127,20
1,51,127,55
1,39,127,43
1,51,127,0
1,46,127,20
1,39,127,15
1,51,127,43
1,46,127,113
1,39,127,38
1,51,127,30
1,46,127,18
1,39,127,60
1,39,127,60
1,46,127,30
1,51,127,18
1,43,127,25
1,55,127,33
1,50,127,13
1,43,127,20
1,43,127,48
1,50,127,13
1,55,127,0
1,41,127,0
1,53,127,5
1,48,127,78
1,41,127,28
1,41,127,8
1,48,127,5
1,53,127,15
1,39,127,23
1,51,127,8
1,46,127,120
1,39,127,28
1,39,127,43
1,46,127,10
1,51,127,30
1,36,127,38
1,48,127,70
1,43,127,100
1,36,127,38
1,36,127,50
1,43,127,28
1,48,127,25
1,36,127,43
1,48,127,63
1,43,127,40
1,36,127,10
1,48,127,13
1,43,127,58
1,36,127,103
1,48,127,230
1,43,127,53
1,36,127,15
1,36,127,25
1,43,127,3
1,48,127,120
1,36,127,20
1,48,127,3
1,43,127,118
1,36,127,10
1,48,127,50
1,43,127,63
1,36,127,0
1,48,127,3
1,43,127,113
1,36,127,15
1,36,127,40
1,43,127,0
1,48,127,120
1,36,127,105
1,48,127,0
1,43,127,120
1,36,127,13
1,36,127,25
1,43,127,3
1,48,127,23
1,34,127,23
1,46,127,0
1,41,127,120
1,34,127,18
1,34,127,25
1,41,127,0
1,46,127,15
1,32,127,23
1,44,127,190
1,39,127,25
1,32,127,38
1,32,127,30
1,39,127,3
1,44,127,20
1,36,127,28
1,48,127,0
1,41,127,0
1,36,127,40
1,36,127,40
1,41,127,15
1,48,127,30
1,36,127,38
1,48,127,20
1,43,127,33
1,36,127,10
1,48,127,13
1,43,127,48
1,36,127,23
1,48,127,230
1,43,127,93
1,36,127,15
1,36,127,15
1,43,127,15
1,48,127,40
1,36,127,20
1,48,127,3
1,43,127,110
1,36,127,10
1,48,127,235
1,43,127,70
1,36,127,0
