track,note,velocity,time
3,74,60,3768
3,67,60,0
3,71,60,0
3,74,60,120
3,67,60,0
3,71,60,0
3,74,60,120
3,67,60,0
3,71,60,0
3,66,60,161
3,69,60,0
3,76,60,0
3,73,60,0
3,74,60,13
3,67,60,0
3,71,60,0
3,74,60,120
3,67,60,0
3,71,60,0
3,74,60,120
3,67,60,0
3,71,60,0
3,66,60,161
3,69,60,0
3,76,60,0
3,73,60,0
3,74,60,13
3,67,60,0
3,71,60,0
3,74,60,120
3,67,60,0
3,71,60,0
3,74,60,120
3,67,60,0
3,71,60,0
3,66,60,161
3,69,60,0
3,76,60,0
3,73,60,0
3,74,60,13
3,67,60,0
3,71,60,0
3,71,60,120
3,67,60,0
3,74,60,0
3,71,92,0
3,67,92,0
3,74,92,0
3,76,92,161
3,69,92,0
3,73,92,0
3,66,92,0
3,71,92,0
3,74,92,0
3,67,92,0
3,67,92,120
3,71,92,0
3,74,92,0
3,67,92,120
3,71,92,0
3,74,92,0
3,69,92,161
3,66,92,0
3,73,92,0
3,76,92,0
3,71,92,13
3,74,92,0
3,67,92,0
3,67,92,120
3,71,92,0
3,74,92,0
3,67,92,120
3,71,92,0
3,74,92,0
3,69,92,161
3,66,92,0
3,73,92,0
3,76,92,0
3,71,92,13
3,74,92,0
3,67,92,0
3,67,92,120
3,71,92,0
3,74,92,0
3,67,92,120
3,71,92,0
3,74,92,0
3,73,92,161
3,66,92,0
3,69,92,0
3,76,92,0
3,69,92,80
3,76,92,0
3,66,92,0
3,73,92,0
3,69,92,66
3,76,92,0
3,66,92,0
3,73,92,0
3,69,92,66
3,76,92,0
3,66,92,0
3,73,92,0
3,69,92,66
3,76,92,0
3,66,92,0
3,73,92,0
3,69,92,66
3,66,92,0
3,76,92,0
3,73,92,0
3,69,92,66
3,66,92,0
3,76,92,0
3,73,92,0
3,69,92,66
3,66,92,0
3,73,92,0
3,76,92,0
3,66,92,161
3,64,92,0
3,73,92,0
3,69,92,0
3,71,92,80
3,74,92,0
3,67,92,0
3,67,92,120
3,71,92,0
3,74,92,0
3,67,92,120
3,74,92,0
3,71,92,0
3,76,92,161
3,66,92,0
3,73,92,0
3,69,92,0
3,67,92,13
3,71,92,0
3,74,92,0
3,67,92,120
3,74,92,0
3,71,92,0
3,67,92,120
3,74,92,0
3,71,92,0
3,69,92,161
3,66,92,0
3,73,92,0
3,76,92,0
3,71,92,13
3,74,92,0
3,67,92,0
3,67,92,120
3,71,92,0
3,74,92,0
3,67,92,120
3,74,92,0
3,71,92,0
3,76,92,161
3,66,92,0
3,73,92,0
3,69,92,0
3,67,92,13
3,71,92,0
3,74,92,0
3,67,92,120
3,74,92,0
3,71,92,0
3,67,92,120
3,74,92,0
3,71,92,0
3,69,92,161
3,66,92,0
3,73,92,0
3,76,92,0
3,71,92,13
3,74,92,0
3,67,92,0
3,67,92,120
3,71,92,0
3,74,92,0
3,67,92,120
3,74,92,0
3,71,92,0
3,76,92,161
3,66,92,0
3,73,92,0
3,69,92,0
3,67,92,13
3,71,92,0
3,74,92,0
3,67,92,120
3,74,92,0
3,71,92,0
3,67,92,120
3,74,92,0
3,71,92,0
3,69,92,161
3,66,92,0
3,73,92,0
3,76,92,0
3,71,92,13
3,74,92,0
3,67,92,0
3,67,92,120
3,71,92,0
3,74,92,0
3,67,92,120
3,74,92,0
3,71,92,0
3,69,92,161
3,76,92,0
3,66,92,0
3,73,92,0
3,71,92,0
3,74,92,0
3,67,92,0
3,67,92,10
3,71,92,0
3,74,92,0
3,67,92,18
3,71,92,0
3,74,92,0
3,76,92,53
3,73,92,0
3,66,92,0
3,69,92,0
3,71,92,13
3,74,92,0
3,67,92,0
3,67,92,40
3,71,92,0
3,74,92,0
3,67,92,48
3,74,92,0
3,71,92,0
3,76,92,83
3,66,92,0
3,73,92,0
3,69,92,0
3,71,92,13
3,74,92,0
3,67,92,0
3,67,92,70
3,71,92,0
3,74,92,0
3,67,92,78
3,71,92,0
3,74,92,0
3,76,92,8
3,73,92,0
3,66,92,0
3,69,92,0
3,71,92,13
3,74,92,0
3,67,92,0
3,67,92,100
3,71,92,0
3,74,92,0
3,67,92,0
3,74,92,0
3,71,92,0
3,76,92,161
3,66,92,0
3,73,92,0
3,69,92,0
3,71,92,13
3,74,92,0
3,67,92,0
3,67,92,120
3,71,92,0
3,74,92,0
3,67,92,120
3,71,92,0
3,74,92,0
3,76,92,161
3,73,92,0
3,66,92,0
3,69,92,0
3,71,92,13
3,74,92,0
3,67,92,0
3,67,92,120
3,71,92,0
3,74,92,0
3,67,92,120
3,74,92,0
3,71,92,0
3,76,92,161
3,66,92,0
3,73,92,0
3,69,92,0
3,71,92,13
3,74,92,0
3,67,92,0
3,67,92,120
3,71,92,0
3,74,92,0
3,67,92,120
3,71,92,0
3,74,92,0
3,76,92,161
3,73,92,0
3,66,92,0
3,69,92,0
3,71,92,13
3,74,92,0
3,67,92,0
3,71,92,120
3,67,92,0
3,74,92,0
3,67,92,2040
3,74,92,0
3,71,92,0
3,67,92,120
3,71,92,0
3,74,92,0
3,67,92,120
3,74,92,0
3,71,92,0
3,69,92,161
3,66,92,0
3,73,92,0
3,76,92,0
3,67,92,13
3,74,92,0
3,71,92,0
3,67,92,120
3,71,92,0
3,74,92,0
3,67,92,120
3,71,92,0
3,74,92,0
3,76,92,161
3,66,92,0
3,73,92,0
3,69,92,0
3,67,92,13
3,74,92,0
3,71,92,0
3,67,92,120
3,71,92,0
3,74,92,0
3,67,92,120
3,74,92,0
3,71,92,0
3,69,92,161
3,66,92,0
3,73,92,0
3,76,92,0
3,76,92,13
3,73,92,0
3,66,92,0
3,69,92,0
3,76,92,66
3,69,92,0
3,73,92,0
3,66,92,0
3,66,92,66
3,76,92,0
3,73,92,0
3,69,92,0
3,76,92,66
3,69,92,0
3,73,92,0
3,66,92,0
3,66,92,66
3,76,92,0
3,73,92,0
3,69,92,0
3,66,92,66
3,76,92,0
3,73,92,0
3,69,92,0
3,66,92,66
3,69,92,0
3,73,92,0
3,76,92,0
3,66,92,161
3,73,92,0
3,64,92,0
3,69,92,0
3,67,92,0
3,74,92,0
3,71,92,0
3,67,92,115
3,71,92,0
3,74,92,0
3,67,92,108
3,74,92,0
3,71,92,0
3,69,92,98
3,66,92,0
3,73,92,0
3,76,92,0
3,67,92,13
3,74,92,0
3,71,92,0
3,67,92,85
3,71,92,0
3,74,92,0
3,67,92,78
3,71,92,0
3,74,92,0
3,76,92,68
3,66,92,0
3,73,92,0
3,69,92,0
3,67,92,13
3,74,92,0
3,71,92,0
3,67,92,55
3,71,92,0
3,74,92,0
3,67,92,48
3,74,92,0
3,71,92,0
3,69,92,38
3,66,92,0
3,76,92,0
3,73,92,0
4,43,75,3748
4,38,75,80
4,43,75,5
4,38,75,80
4,43,75,13
4,38,75,80
4,40,75,5
4,33,75,5
4,43,75,80
4,38,75,80
4,43,75,5
4,38,75,80
4,43,75,13
4,38,75,80
4,40,75,5
4,33,75,5
4,43,75,80
4,38,75,80
4,43,75,5
4,38,75,80
4,43,75,13
4,38,75,80
4,40,75,5
4,33,75,5
4,43,75,80
4,38,75,80
4,43,75,5
4,38,75,80
4,43,75,13
4,38,75,80
4,40,75,5
4,33,75,5
4,31,92,0
4,31,92,80
4,31,92,5
4,31,92,80
4,31,92,13
4,31,92,80
4,38,92,5
4,33,92,5
4,31,92,80
4,31,92,80
4,31,92,5
4,31,92,80
4,31,92,13
4,31,92,80
4,38,92,5
4,33,92,5
4,31,92,80
4,31,92,80
4,31,92,5
4,31,92,80
4,31,92,13
4,31,92,80
4,38,92,5
4,33,92,5
4,30,92,110
4,30,92,81
4,30,92,81
4,30,92,81
4,30,92,13
4,30,92,80
4,30,92,80
4,33,92,5
4,31,92,80
4,31,92,80
4,31,92,5
4,31,92,80
4,31,92,13
4,31,92,80
4,38,92,5
4,33,92,5
4,31,92,80
4,31,92,80
4,31,92,5
4,31,92,80
4,31,92,13
4,31,92,80
4,38,92,5
4,33,92,5
4,31,92,80
4,31,92,80
4,31,92,5
4,31,92,80
4,31,92,13
4,31,92,80
4,38,92,5
4,33,92,5
4,31,92,80
4,31,92,80
4,31,92,5
4,31,92,80
4,31,92,13
4,31,92,80
4,38,92,5
4,33,92,5
4,31,92,80
4,31,92,80
4,31,92,5
4,31,92,80
4,31,92,13
4,31,92,80
4,38,92,5
4,33,92,5
4,31,92,80
4,31,92,80
4,31,92,5
4,31,92,80
4,31,92,13
4,31,92,80
4,38,92,5
4,33,92,5
4,31,92,80
4,31,92,80
4,31,92,5
4,31,92,80
4,31,92,13
4,31,92,80
4,38,92,5
4,33,92,5
4,31,92,132560
4,31,92,80
4,31,92,5
4,31,92,80
4,31,92,13
4,31,92,80
4,38,92,5
4,33,92,5
4,31,92,80
4,31,92,80
4,31,92,5
4,31,92,80
4,31,92,13
4,31,92,80
4,38,92,5
4,33,92,5
4,31,92,80
4,31,92,80
4,31,92,5
4,31,92,80
4,31,92,13
4,31,92,80
4,38,92,5
4,33,92,5
4,30,92,110
4,30,92,81
4,30,92,81
4,30,92,81
4,30,92,13
4,30,92,80
4,30,92,80
4,33,92,5
4,31,92,0
4,31,92,80
4,31,92,5
4,31,92,80
4,31,92,13
4,31,92,80
4,38,92,5
4,33,92,5
4,31,92,80
4,31,92,80
4,31,92,5
4,31,92,78
4,31,92,13
4,31,92,70
4,38,92,5
4,33,92,5
4,31,92,63
4,31,92,55
4,31,92,5
4,31,92,48
4,31,92,13
4,31,92,40
4,38,92,5
4,33,92,5
5,74,110,0
5,67,110,0
5,71,110,0
6,55,110,19068
6,54,110,5
6,55,110,80
6,54,110,5
6,55,110,80
6,54,110,5
6,66,110,110
6,66,110,81
6,66,110,81
6,66,110,81
6,66,110,13
6,66,110,80
6,66,110,80
6,64,110,5
6,55,110,80
6,54,110,5
6,55,110,80
6,54,110,5
6,55,110,80
6,54,110,5
6,55,110,80
6,54,110,5
6,55,110,80
6,54,110,5
6,55,110,80
6,54,110,5
6,55,110,80
6,54,110,5
6,55,110,0
6,54,110,5
6,55,110,78
6,54,110,5
6,55,110,20
6,54,110,5
6,55,110,80
6,54,110,5
6,55,110,80
6,54,110,5
6,55,110,80
6,54,110,5
6,55,110,80
6,54,110,5
6,55,110,80
6,55,110,2040
6,54,110,5
6,55,110,80
6,54,110,5
6,55,110,80
6,54,110,5
6,55,110,80
6,54,110,5
6,55,110,0
6,54,110,5
6,55,110,80
6,54,110,5
6,55,110,63
6,54,110,5
7,59,110,19048
7,55,110,0
7,62,110,0
7,61,110,5
7,54,110,0
7,57,110,0
7,62,110,80
7,59,110,0
7,55,110,0
7,61,110,5
7,54,110,0
7,57,110,0
7,62,110,80
7,59,110,0
7,55,110,0
7,54,110,5
7,61,110,0
7,57,110,0
7,57,110,80
7,54,110,0
7,61,110,0
7,64,110,0
7,57,110,66
7,54,110,0
7,61,110,0
7,64,110,0
7,57,110,66
7,54,110,0
7,61,110,0
7,64,110,0
7,57,110,66
7,54,110,0
7,61,110,0
7,64,110,0
7,57,110,66
7,61,110,0
7,64,110,0
7,54,110,0
7,57,110,66
7,61,110,0
7,64,110,0
7,54,110,0
7,61,110,66
7,64,110,0
7,54,110,0
7,57,110,0
7,57,110,5
7,52,110,0
7,61,110,0
7,54,110,0
7,55,110,80
7,62,110,0
7,59,110,0
7,54,110,5
7,57,110,0
7,61,110,0
7,59,110,80
7,62,110,0
7,55,110,0
7,57,110,5
7,54,110,0
7,61,110,0
7,55,110,80
7,62,110,0
7,59,110,0
7,54,110,5
7,57,110,0
7,61,110,0
7,59,110,80
7,62,110,0
7,55,110,0
7,57,110,5
7,54,110,0
7,61,110,0
7,55,110,80
7,62,110,0
7,59,110,0
7,54,110,5
7,57,110,0
7,61,110,0
7,59,110,80
7,62,110,0
7,55,110,0
7,57,110,5
7,54,110,0
7,61,110,0
7,55,110,80
7,62,110,0
7,59,110,0
7,61,110,5
7,54,110,0
7,57,110,0
7,59,110,132560
7,62,110,0
7,55,110,0
7,57,110,5
7,54,110,0
7,61,110,0
7,59,110,80
7,55,110,0
7,62,110,0
7,57,110,5
7,54,110,0
7,61,110,0
7,59,110,80
7,62,110,0
7,55,110,0
7,57,110,5
7,54,110,0
7,61,110,0
7,54,110,80
7,61,110,0
7,64,110,0
7,57,110,0
7,54,110,66
7,61,110,0
7,64,110,0
7,57,110,0
7,54,110,66
7,64,110,0
7,61,110,0
7,57,110,0
7,54,110,66
7,61,110,0
7,64,110,0
7,57,110,0
7,57,110,66
7,64,110,0
7,54,110,0
7,61,110,0
7,54,110,66
7,61,110,0
7,57,110,0
7,64,110,0
7,64,110,66
7,61,110,0
7,54,110,0
7,57,110,0
7,54,110,5
7,57,110,0
7,52,110,0
7,61,110,0
7,59,110,0
7,62,110,0
7,55,110,0
7,57,110,5
7,54,110,0
7,61,110,0
7,62,110,80
7,55,110,0
7,59,110,0
7,57,110,5
7,54,110,0
7,61,110,0
7,59,110,63
7,62,110,0
7,55,110,0
7,54,110,5
7,57,110,0
7,61,110,0
8,67,110,76495
8,71,110,0
8,74,110,0
8,74,110,13
8,69,110,0
8,66,110,0
8,67,110,13
8,64,110,0
8,71,110,0
8,64,110,13
8,69,110,0
8,73,110,0
8,71,110,13
8,67,110,0
8,74,110,0
8,69,110,13
8,66,110,0
8,74,110,0
8,64,110,13
8,67,110,0
8,71,110,0
8,64,110,13
8,69,110,0
8,73,110,0
8,67,110,13
8,71,110,0
8,74,110,0
8,74,110,13
8,69,110,0
8,66,110,0
8,71,110,13
8,67,110,0
8,64,110,0
8,64,110,13
8,69,110,0
8,73,110,0
8,74,110,13
8,71,110,0
8,67,110,0
8,74,110,13
8,69,110,0
8,66,110,0
8,64,110,13
8,67,110,0
8,71,110,0
8,73,110,13
8,69,110,0
8,64,110,0
8,74,110,13
8,71,110,0
8,67,110,0
8,66,110,13
8,69,110,0
8,74,110,0
8,64,110,13
8,67,110,0
8,71,110,0
8,73,110,13
8,69,110,0
8,64,110,0
8,67,110,13
8,74,110,0
8,71,110,0
8,69,110,13
8,74,110,0
8,66,110,0
8,64,110,13
8,67,110,0
8,71,110,0
8,73,110,13
8,64,110,0
8,69,110,0
8,67,110,13
8,71,110,0
8,74,110,0
8,66,110,13
8,69,110,0
8,74,110,0
8,67,110,13
8,71,110,0
8,64,110,0
8,69,110,13
8,64,110,0
8,73,110,0
8,71,110,13
8,67,110,0
8,74,110,0
8,66,110,13
8,74,110,0
8,69,110,0
8,64,110,13
8,67,110,0
8,71,110,0
8,64,110,13
8,69,110,0
8,73,110,0
8,67,110,13
8,71,110,0
8,74,110,0
8,66,110,13
8,69,110,0
8,74,110,0
8,67,110,13
8,64,110,0
8,71,110,0
8,73,110,13
8,69,110,0
8,64,110,0
8,71,110,13
8,74,110,0
8,67,110,0
8,74,110,13
8,69,110,0
8,66,110,0
8,67,110,13
8,64,110,0
8,71,110,0
8,64,110,13
8,69,110,0
8,73,110,0
8,71,110,13
8,74,110,0
8,67,110,0
8,74,110,13
8,69,110,0
8,66,110,0
8,67,110,13
8,64,110,0
8,71,110,0
8,64,110,13
8,69,110,0
8,73,110,0
8,67,110,13
8,74,110,0
8,71,110,0
8,69,110,13
8,66,110,0
8,74,110,0
8,64,110,13
8,71,110,0
8,67,110,0
8,69,110,13
8,73,110,0
8,64,110,0
8,67,110,13
8,74,110,0
8,71,110,0
8,69,110,13
8,66,110,0
8,74,110,0
8,64,110,13
8,71,110,0
8,67,110,0
8,69,110,13
8,73,110,0
8,64,110,0
8,67,110,13
8,74,110,0
8,71,110,0
8,69,110,13
8,66,110,0
8,74,110,0
8,64,110,13
8,71,110,0
8,67,110,0
8,69,110,13
8,73,110,0
8,64,110,0
8,67,110,13
8,74,110,0
8,71,110,0
8,69,110,13
8,66,110,0
8,74,110,0
8,67,110,13
8,64,110,0
8,71,110,0
9,62,110,61120
9,59,110,0
9,55,110,0
9,59,110,5
9,55,110,0
9,62,110,0
