track,note,velocity,time
0,67,60,0
0,71,60,0
0,74,60,0
0,43,75,0
0,35,30,0
0,35,0,94
0,42,30,2
0,42,0,46
0,42,30,2
0,42,0,46
0,35,30,2
0,36,30,0
0,39,30,0
0,40,30,0
0,43,0,64
0,40,0,30
0,36,0,0
0,35,0,0
0,39,0,0
0,38,75,2
0,42,30,0
0,42,0,46
0,71,0,2
0,67,0,0
0,74,0,0
0,42,30,0
0,42,0,46
0,38,0,0
0,67,60,2
0,71,60,0
0,74,60,0
0,43,75,0
0,35,30,0
0,35,0,94
0,42,30,2
0,42,0,46
0,42,30,2
0,42,0,46
0,35,30,2
0,36,30,0
0,39,30,0
0,40,30,0
0,43,0,64
0,40,0,30
0,36,0,0
0,35,0,0
0,39,0,0
0,38,75,2
0,42,30,0
0,42,0,46
0,71,0,2
0,67,0,0
0,74,0,0
0,42,30,0
0,42,0,46
0,38,0,0
0,67,60,2
0,71,60,0
0,74,60,0
0,43,75,0
0,35,30,0
0,35,0,94
0,42,30,2
0,42,0,46
0,42,30,2
0,42,0,46
0,35,30,2
0,36,30,0
0,39,30,0
0,40,30,0
0,43,0,64
0,40,0,30
0,36,0,0
0,35,0,0
0,39,0,0
0,38,75,2
0,42,30,0
0,42,0,46
0,42,30,2
0,42,0,46
0,38,0,0
0,40,75,2
0,35,30,0
0,71,0,32
0,67,0,0
0,74,0,0
0,40,0,62
0,35,0,0
0,66,60,2
0,69,60,0
0,73,60,0
0,76,60,0
0,33,75,0
0,42,30,0
0,42,0,46
0,42,30,2
0,42,0,46
0,35,30,2
0,36,30,0
0,39,30,0
0,40,30,0
0,40,0,94
0,39,0,0
0,36,0,0
0,35,0,0
0,42,30,2
0,42,0,46
0,42,30,2
0,33,0,16
0,42,0,30
0,73,0,2
0,76,0,0
0,69,0,0
0,66,0,0
0,67,60,0
0,71,60,0
0,74,60,0
0,43,75,0
0,35,30,0
0,35,0,94
0,42,30,2
0,42,0,46
0,42,30,2
0,42,0,46
0,35,30,2
0,36,30,0
0,39,30,0
0,40,30,0
0,43,0,64
0,40,0,30
0,36,0,0
0,35,0,0
0,39,0,0
0,38,75,2
0,42,30,0
0,42,0,46
0,71,0,2
0,67,0,0
0,74,0,0
0,42,30,0
0,42,0,46
0,38,0,0
0,67,60,2
0,71,60,0
0,74,60,0
0,43,75,0
0,35,30,0
0,35,0,94
0,42,30,2
0,42,0,46
0,42,30,2
0,42,0,46
0,35,30,2
0,36,30,0
0,39,30,0
0,40,30,0
0,43,0,64
0,40,0,30
0,36,0,0
0,35,0,0
0,39,0,0
0,38,75,2
0,42,30,0
0,42,0,46
0,71,0,2
0,67,0,0
0,74,0,0
0,42,30,0
0,42,0,46
0,38,0,0
0,67,60,2
0,71,60,0
0,74,60,0
0,43,75,0
0,35,30,0
0,35,0,94
0,42,30,2
0,42,0,46
0,42,30,2
0,42,0,46
0,35,30,2
0,36,30,0
0,39,30,0
0,40,30,0
0,43,0,64
0,40,0,30
0,36,0,0
0,35,0,0
0,39,0,0
0,38,75,2
0,42,30,0
0,42,0,46
0,42,30,2
0,42,0,46
0,38,0,0
0,40,75,2
0,35,30,0
0,71,0,32
0,67,0,0
0,74,0,0
0,40,0,62
0,35,0,0
0,66,60,2
0,69,60,0
0,73,60,0
0,76,60,0
0,33,75,0
0,42,30,0
0,42,0,46
0,42,30,2
0,42,0,46
0,35,30,2
0,36,30,0
0,39,30,0
0,40,30,0
0,40,0,94
0,39,0,0
0,36,0,0
0,35,0,0
0,42,30,2
0,42,0,46
0,42,30,2
0,33,0,16
0,42,0,30
0,73,0,2
0,76,0,0
0,69,0,0
0,66,0,0
0,67,60,0
0,71,60,0
0,74,60,0
0,43,75,0
0,35,30,0
0,35,0,94
0,42,30,2
0,42,0,46
0,42,30,2
0,42,0,46
0,35,30,2
0,36,30,0
0,39,30,0
0,40,30,0
0,43,0,64
0,40,0,30
0,36,0,0
0,35,0,0
0,39,0,0
0,38,75,2
0,42,30,0
0,42,0,46
0,71,0,2
0,67,0,0
0,74,0,0
0,42,30,0
0,42,0,46
0,38,0,0
0,67,60,2
0,71,60,0
0,74,60,0
0,43,75,0
0,35,30,0
0,35,0,94
0,42,30,2
0,42,0,46
0,42,30,2
0,42,0,46
0,35,30,2
0,36,30,0
0,39,30,0
0,40,30,0
0,43,0,64
0,40,0,30
0,36,0,0
0,35,0,0
0,39,0,0
0,38,75,2
0,42,30,0
0,42,0,46
0,71,0,2
0,67,0,0
0,74,0,0
0,42,30,0
0,42,0,46
0,38,0,0
0,67,60,2
0,71,60,0
0,74,60,0
0,43,75,0
0,35,30,0
0,35,0,94
0,42,30,2
0,42,0,46
0,42,30,2
0,42,0,46
0,35,30,2
0,36,30,0
0,39,30,0
0,40,30,0
0,43,0,64
0,40,0,30
0,36,0,0
0,35,0,0
0,39,0,0
0,38,75,2
0,42,30,0
0,42,0,46
0,42,30,2
0,42,0,46
0,38,0,0
0,40,75,2
0,35,30,0
0,71,0,32
0,67,0,0
0,74,0,0
0,40,0,62
0,35,0,0
0,66,60,2
0,69,60,0
0,73,60,0
0,76,60,0
0,33,75,0
0,42,30,0
0,42,0,46
0,42,30,2
0,42,0,46
0,35,30,2
0,36,30,0
0,39,30,0
0,40,30,0
0,40,0,94
0,39,0,0
0,36,0,0
0,35,0,0
0,42,30,2
0,42,0,46
0,42,30,2
0,33,0,16
0,42,0,30
0,73,0,2
0,76,0,0
0,69,0,0
0,66,0,0
0,67,60,0
0,71,60,0
0,74,60,0
0,43,75,0
0,35,30,0
0,35,0,94
0,42,30,2
0,42,0,46
0,42,30,2
0,42,0,46
0,35,30,2
0,36,30,0
0,39,30,0
0,40,30,0
0,43,0,64
0,40,0,30
0,36,0,0
0,35,0,0
0,39,0,0
0,38,75,2
0,42,30,0
0,42,0,46
0,71,0,2
0,67,0,0
0,74,0,0
0,42,30,0
0,42,0,46
0,38,0,0
0,67,60,2
0,71,60,0
0,74,60,0
0,43,75,0
0,67,110,0
0,71,110,0
0,74,110,0
0,35,30,0
0,35,0,94
0,42,30,2
0,42,0,46
0,42,30,2
0,42,0,46
0,35,30,0
0,36,30,0
0,39,30,0
0,40,30,0
0,43,0,7
0,36,0,5
0,40,0,0
0,35,0,0
0,39,0,0
0,38,75,2
0,42,30,0
0,42,0,2
0,74,0,2
0,67,0,0
0,71,0,0
0,42,30,0
0,42,0,5
0,38,0,0
0,67,92,0
0,71,92,0
0,74,92,0
0,43,75,0
0,35,30,0
0,35,0,4
0,42,30,2
0,42,0,3
0,42,30,1
0,42,0,1
0,35,30,0
0,36,30,0
0,39,30,0
0,40,30,0
0,43,0,4
0,36,0,2
0,40,0,0
0,35,0,0
0,39,0,0
0,38,75,2
0,42,30,0
0,42,0,3
0,42,30,0
0,42,0,2
0,38,0,0
0,40,75,0
0,69,110,0
0,35,30,0
0,74,0,32
0,67,0,0
0,71,0,0
0,35,0,62
0,40,0,0
0,66,92,2
0,69,92,0
0,73,92,0
0,76,92,0
0,33,75,0
0,42,30,0
0,42,0,46
0,42,30,2
0,69,0,16
0,42,0,30
0,66,110,0
0,35,30,0
0,36,30,0
0,39,30,0
0,40,30,0
0,40,0,94
0,35,0,0
0,39,0,0
0,36,0,0
0,42,30,2
0,42,0,46
0,71,0,2
0,67,0,0
0,74,0,0
0,42,30,0
0,33,0,16
0,66,0,0
0,42,0,30
0,66,0,2
0,73,0,0
0,69,0,0
0,76,0,0
0,67,92,0
0,71,92,0
0,74,92,0
0,31,92,0
0,55,110,0
0,55,110,0
0,59,110,0
0,62,110,0
0,62,110,0
0,35,92,0
0,35,0,94
0,62,0,0
0,59,110,2
0,42,92,0
0,42,0,46
0,42,92,2
0,42,0,46
0,35,92,2
0,36,92,0
0,39,92,0
0,40,92,0
0,59,0,64
0,31,0,0
0,36,0,30
0,35,0,0
0,40,0,0
0,39,0,0
0,31,92,2
0,42,92,0
0,42,0,46
0,67,0,2
0,74,0,0
0,71,0,0
0,42,92,0
0,42,0,46
0,31,0,0
0,67,92,2
0,71,92,0
0,74,92,0
0,31,92,0
0,35,92,0
0,35,0,94
0,42,92,2
0,42,0,46
0,42,92,2
0,42,0,46
0,35,92,2
0,36,92,0
0,39,92,0
0,40,92,0
0,31,0,64
0,39,0,30
0,36,0,0
0,35,0,0
0,40,0,0
0,31,92,2
0,42,92,0
0,42,0,46
0,74,0,2
0,71,0,0
0,67,0,0
0,42,92,0
0,42,0,46
0,31,0,0
0,67,92,2
0,71,92,0
0,74,92,0
0,31,92,0
0,35,92,0
0,35,0,94
0,42,92,2
0,42,0,46
0,42,92,2
0,42,0,46
0,35,92,2
0,36,92,0
0,39,92,0
0,40,92,0
0,31,0,64
0,39,0,30
0,36,0,0
0,35,0,0
0,40,0,0
0,31,92,2
0,42,92,0
0,42,0,46
0,42,92,2
0,42,0,46
0,31,0,0
0,38,92,2
0,35,92,0
0,74,0,32
0,71,0,0
0,67,0,0
0,62,0,62
0,55,0,0
0,55,0,0
0,38,0,0
0,59,0,0
0,35,0,0
0,66,92,2
0,69,92,0
0,73,92,0
0,76,92,0
0,33,92,0
0,54,110,0
0,54,110,0
0,57,110,0
0,61,110,0
0,42,92,0
0,42,0,46
0,42,92,2
0,42,0,46
0,35,92,2
0,36,92,0
0,39,92,0
0,40,92,0
0,40,0,94
0,35,0,0
0,39,0,0
0,36,0,0
0,42,92,2
0,42,0,46
0,42,92,2
0,57,0,16
0,54,0,0
0,54,0,0
0,61,0,0
0,33,0,0
0,42,0,30
0,76,0,2
0,73,0,0
0,66,0,0
0,69,0,0
0,67,92,0
0,71,92,0
0,74,92,0
0,31,92,0
0,55,110,0
0,55,110,0
0,59,110,0
0,62,110,0
0,35,92,0
0,35,0,94
0,42,92,2
0,42,0,46
0,42,92,2
0,42,0,46
0,35,92,2
0,36,92,0
0,39,92,0
0,40,92,0
0,31,0,64
0,39,0,30
0,36,0,0
0,35,0,0
0,40,0,0
0,31,92,2
0,42,92,0
0,42,0,46
0,67,0,2
0,74,0,0
0,71,0,0
0,42,92,0
0,42,0,46
0,31,0,0
0,67,92,2
0,71,92,0
0,74,92,0
0,31,92,0
0,35,92,0
0,35,0,94
0,42,92,2
0,42,0,46
0,42,92,2
0,42,0,46
0,35,92,2
0,36,92,0
0,39,92,0
0,40,92,0
0,31,0,64
0,39,0,30
0,36,0,0
0,35,0,0
0,40,0,0
0,31,92,2
0,42,92,0
0,42,0,46
0,74,0,2
0,71,0,0
0,67,0,0
0,42,92,0
0,42,0,46
0,31,0,0
0,67,92,2
0,71,92,0
0,74,92,0
0,31,92,0
0,35,92,0
0,35,0,94
0,42,92,2
0,42,0,46
0,42,92,2
0,42,0,46
0,35,92,2
0,36,92,0
0,39,92,0
0,40,92,0
0,31,0,64
0,39,0,30
0,36,0,0
0,35,0,0
0,40,0,0
0,31,92,2
0,42,92,0
0,42,0,46
0,42,92,2
0,42,0,46
0,31,0,0
0,38,92,2
0,35,92,0
0,74,0,32
0,71,0,0
0,67,0,0
0,55,0,62
0,59,0,0
0,55,0,0
0,38,0,0
0,62,0,0
0,35,0,0
0,66,92,2
0,69,92,0
0,73,92,0
0,76,92,0
0,33,92,0
0,54,110,0
0,54,110,0
0,57,110,0
0,61,110,0
0,42,92,0
0,42,0,46
0,42,92,2
0,42,0,46
0,35,92,2
0,36,92,0
0,39,92,0
0,40,92,0
0,40,0,94
0,35,0,0
0,39,0,0
0,36,0,0
0,42,92,2
0,42,0,46
0,42,92,2
0,57,0,16
0,54,0,0
0,54,0,0
0,61,0,0
0,33,0,0
0,42,0,30
0,76,0,2
0,73,0,0
0,66,0,0
0,69,0,0
0,67,92,0
0,71,92,0
0,74,92,0
0,31,92,0
0,55,110,0
0,55,110,0
0,59,110,0
0,62,110,0
0,35,92,0
0,35,0,94
0,42,92,2
0,42,0,46
0,42,92,2
0,42,0,46
0,40,92,2
0,39,92,0
0,36,92,0
0,35,92,0
0,31,0,64
0,36,0,30
0,39,0,0
0,40,0,0
0,35,0,0
0,31,92,2
0,42,92,0
0,42,0,46
0,67,0,2
0,74,0,0
0,71,0,0
0,42,92,0
0,42,0,46
0,31,0,0
0,67,92,2
0,71,92,0
0,74,92,0
0,31,92,0
0,35,92,0
0,35,0,94
0,42,92,2
0,42,0,46
0,42,92,2
0,42,0,46
0,35,92,2
0,36,92,0
0,39,92,0
0,40,92,0
0,31,0,64
0,39,0,30
0,36,0,0
0,35,0,0
0,40,0,0
0,31,92,2
0,42,92,0
0,42,0,46
0,74,0,2
0,71,0,0
0,67,0,0
0,42,92,0
0,42,0,46
0,31,0,0
0,67,92,2
0,71,92,0
0,74,92,0
0,31,92,0
0,35,92,0
0,35,0,94
0,42,92,2
0,42,0,46
0,42,92,2
0,42,0,46
0,35,92,2
0,36,92,0
0,39,92,0
0,40,92,0
0,31,0,64
0,39,0,30
0,36,0,0
0,35,0,0
0,40,0,0
0,31,92,2
0,42,92,0
0,42,0,46
0,42,92,2
0,42,0,46
0,31,0,0
0,38,92,2
0,35,92,0
0,74,0,32
0,71,0,0
0,67,0,0
0,55,0,62
0,59,0,0
0,55,0,0
0,38,0,0
0,62,0,0
0,35,0,0
0,66,92,2
0,69,92,0
0,73,92,0
0,76,92,0
0,33,92,0
0,54,110,0
0,54,110,0
0,57,110,0
0,61,110,0
0,42,92,0
0,42,0,46
0,42,92,2
0,42,0,46
0,35,92,2
0,36,92,0
0,39,92,0
0,40,92,0
0,40,0,94
0,35,0,0
0,39,0,0
0,36,0,0
0,42,92,2
0,42,0,46
0,42,92,2
0,57,0,16
0,61,0,0
0,76,0,0
0,54,0,0
0,33,0,0
0,69,0,0
0,54,0,0
0,66,0,0
0,73,0,0
0,42,0,30
0,66,92,2
0,69,92,0
0,73,92,0
0,76,92,0
0,54,110,0
0,57,110,0
0,61,110,0
0,64,110,0
0,35,92,0
0,30,92,12
0,66,110,0
0,35,0,82
0,42,92,2
0,42,0,46
0,42,92,2
0,73,0,22
0,64,0,0
0,66,0,0
0,76,0,0
0,61,0,0
0,54,0,0
0,69,0,0
0,57,0,0
0,30,0,6
0,66,0,0
0,42,0,18
0,66,92,2
0,69,92,0
0,73,92,0
0,76,92,0
0,54,110,0
0,57,110,0
0,61,110,0
0,64,110,0
0,42,92,0
0,30,92,12
0,66,110,0
0,42,0,82
0,42,92,2
0,42,0,46
0,42,92,2
0,73,0,22
0,64,0,0
0,66,0,0
0,76,0,0
0,61,0,0
0,54,0,0
0,69,0,0
0,57,0,0
0,30,0,6
0,66,0,0
0,42,0,18
0,66,92,2
0,69,92,0
0,73,92,0
0,76,92,0
0,54,110,0
0,57,110,0
0,61,110,0
0,64,110,0
0,42,92,0
0,30,92,12
0,66,110,0
0,42,0,82
0,42,92,2
0,42,0,46
0,42,92,2
0,73,0,22
0,64,0,0
0,66,0,0
0,76,0,0
0,61,0,0
0,54,0,0
0,69,0,0
0,57,0,0
0,30,0,6
0,66,0,0
0,42,0,18
0,66,92,2
0,69,92,0
0,73,92,0
0,76,92,0
0,54,110,0
0,57,110,0
0,61,110,0
0,64,110,0
0,42,92,0
0,30,92,12
0,66,110,0
0,42,0,82
0,42,92,2
0,42,0,46
0,42,92,2
0,73,0,22
0,64,0,0
0,66,0,0
0,76,0,0
0,61,0,0
0,54,0,0
0,69,0,0
0,57,0,0
0,30,0,24
0,42,0,0
0,66,0,0
0,66,92,2
0,69,92,0
0,73,92,0
0,76,92,0
0,30,92,0
0,66,110,0
0,54,110,0
0,57,110,0
0,61,110,0
0,64,110,0
0,42,92,0
0,42,0,94
0,42,92,2
0,42,0,46
0,42,92,2
0,66,0,16
0,30,0,0
0,73,0,6
0,76,0,0
0,66,0,0
0,54,0,0
0,64,0,0
0,61,0,0
0,57,0,0
0,69,0,0
0,42,0,24
0,66,92,2
0,69,92,0
0,73,92,0
0,76,92,0
0,30,92,0
0,66,110,0
0,54,110,0
0,57,110,0
0,61,110,0
0,64,110,0
