track,note,velocity,time
1,61,118,8040
1,63,119,0
1,66,114,0
1,63,115,328
1,66,113,0
1,66,112,92
1,63,116,28
1,61,111,0
1,58,104,0
1,61,107,0
1,61,117,528
1,61,116,8
1,61,113,48
1,56,116,588
1,56,111,4
1,58,113,0
1,58,107,20
1,59,112,0
1,58,114,0
1,56,105,0
1,58,113,0
1,54,119,676
1,56,113,0
1,58,118,0
1,66,116,0
1,66,116,0
1,63,113,272
1,66,113,20
1,66,115,72
1,63,113,0
1,61,114,0
1,58,113,112
1,58,113,4
1,58,109,120
1,59,111,44
1,58,109,0
1,56,107,0
1,61,118,1180
1,63,115,0
1,66,115,124
1,66,119,260
1,66,116,104
1,63,113,36
1,61,112,200
1,58,115,0
1,61,114,0
1,61,114,488
1,61,114,32
1,63,114,4
1,56,116,512
1,58,119,44
1,58,117,48
1,59,110,0
1,58,109,0
1,56,110,0
1,58,115,0
1,54,113,804
1,56,110,0
1,58,110,0
1,66,113,0
1,66,112,0
1,70,113,0
1,63,110,128
1,66,117,4
1,66,118,56
1,63,115,0
1,61,112,0
1,66,115,0
1,66,116,44
1,66,107,0
1,66,113,660
1,66,113,40
1,66,115,36
1,65,112,36
1,63,110,4
1,61,104,0
1,63,119,316
1,61,107,0
1,61,110,48
1,61,110,44
1,59,111,0
1,58,110,0
1,66,115,592
1,66,114,32
1,68,110,0
1,65,110,48
1,63,104,0
1,61,112,0
1,58,106,4
1,61,113,0
1,63,118,224
1,61,105,152
1,61,110,40
1,61,112,32
1,66,118,428
1,66,116,28
1,68,117,0
1,65,110,0
1,61,101,20
1,61,108,24
1,66,111,4
1,63,111,12
1,61,111,24
1,58,110,56
1,56,113,0
1,54,115,0
1,56,116,416
1,56,113,60
1,56,112,48
1,58,116,0
1,58,114,64
1,59,116,20
1,59,116,40
1,61,117,4
1,61,116,120
1,63,113,20
1,61,113,272
1,61,111,80
1,63,115,0
1,66,113,0
1,63,108,384
1,66,114,0
1,66,114,136
1,63,116,144
1,61,107,0
1,58,109,0
1,61,113,0
1,61,119,524
1,61,119,24
1,63,113,112
1,58,114,484
1,56,110,36
1,58,114,104
1,59,115,20
1,58,113,68
1,56,107,0
1,58,114,0
1,54,115,336
1,54,113,144
1,56,113,0
1,58,114,0
1,66,117,48
1,66,113,0
1,70,113,0
1,63,110,152
1,66,115,0
1,66,113,52
1,63,115,0
1,61,107,0
1,61,113,56
1,63,115,0
1,66,113,84
1,66,113,60
1,63,113,0
1,61,107,0
1,61,114,80
1,63,113,0
1,66,115,44
1,66,113,72
1,63,115,8
1,61,114,76
1,66,115,0
1,66,118,84
1,68,113,8
1,66,110,0
1,70,116,344
1,63,104,0
1,66,114,3132
1,66,116,40
1,63,116,0
1,61,111,0
1,61,114,48
1,63,117,0
1,66,115,124
1,66,114,64
1,63,115,0
1,61,110,0
1,61,115,60
1,63,114,0
1,66,116,132
1,66,113,52
1,63,113,0
1,61,107,68
1,66,116,0
1,66,118,60
1,68,113,96
1,66,113,0
1,70,119,0
1,63,113,0
1,66,114,3484
1,66,115,60
1,63,115,0
1,61,111,0
1,61,114,36
1,63,113,0
1,66,113,36
1,66,115,36
1,63,113,0
1,61,111,0
1,61,114,64
1,63,112,0
1,66,116,60
1,66,114,36
1,61,112,0
1,61,113,64
1,66,115,0
1,66,118,64
1,68,113,36
1,66,111,0
2,35,80,1400
2,44,69,0
2,44,55,252
2,44,73,124
2,37,95,0
2,44,40,256
2,35,86,128
2,44,59,0
2,44,49,252
2,37,101,128
2,44,67,0
2,44,61,252
2,44,55,124
2,35,63,0
2,44,47,252
2,37,101,128
2,44,69,0
2,44,45,252
2,44,53,124
2,35,78,0
2,44,51,252
2,37,101,128
2,44,69,0
2,44,55,256
2,35,59,128
2,44,57,0
2,44,53,252
2,37,103,128
2,44,65,0
2,44,45,248
2,35,80,128
2,44,57,0
2,44,43,252
2,37,101,128
2,44,71,0
2,44,47,252
2,44,61,124
2,35,78,0
2,44,49,252
2,37,103,128
2,44,69,0
2,44,47,252
2,35,80,124
2,44,65,0
2,44,40,252
2,37,99,128
2,44,57,0
2,35,69,252
2,44,43,0
2,44,51,124
2,35,74,0
2,44,30,252
2,37,105,124
2,44,63,0
2,44,34,252
2,35,73,124
2,44,51,0
2,44,30,252
2,37,99,124
2,44,65,0
2,44,63,252
2,35,74,128
2,44,30,0
2,44,45,252
2,37,101,128
2,44,45,0
2,44,51,252
2,44,51,124
2,35,82,0
2,44,21,252
2,37,103,128
2,44,59,0
2,35,67,252
2,44,45,0
2,44,49,124
2,35,73,0
2,44,34,252
2,37,101,124
2,44,63,0
2,35,47,252
2,44,55,0
2,35,71,124
2,44,45,0
2,44,21,252
2,37,99,124
2,44,43,0
2,44,45,252
2,44,37,124
2,35,78,0
2,44,16,252
2,37,99,124
2,44,40,0
2,35,65,252
2,44,43,0
2,35,67,128
2,44,47,0
2,44,37,252
2,37,99,128
2,44,37,0
2,44,44,240
2,44,21,12
2,35,51,4
2,44,54,32
2,44,64,32
2,44,59,60
2,35,73,0
2,44,51,252
2,37,99,124
2,44,51,0
2,35,40,252
2,44,49,0
2,35,69,128
2,44,55,0
2,44,47,252
2,37,101,128
2,44,61,0
2,44,51,252
2,35,65,0
2,44,63,124
2,35,67,0
2,44,55,252
2,37,103,128
2,44,61,0
2,44,47,252
2,35,53,0
2,44,55,124
2,35,82,0
2,44,26,252
2,37,103,128
2,44,63,0
2,44,44,240
2,35,47,12
2,44,47,0
2,44,54,32
2,44,64,32
2,44,59,60
2,35,82,0
2,44,45,252
2,44,55,124
2,37,101,0
2,44,40,252
2,35,26,0
2,44,53,124
2,35,84,0
2,44,40,252
2,44,59,124
2,37,99,0
2,44,51,252
2,35,51,0
2,44,65,124
2,35,76,0
2,44,51,248
2,44,57,128
2,37,103,0
2,44,47,252
2,35,55,0
2,35,82,124
2,44,53,0
2,44,59,124
2,44,76,124
2,44,84,124
2,35,59,124
2,37,82,0
2,37,78,124
2,46,64,4
2,35,63,124
2,44,57,0
2,44,51,252
2,37,97,124
2,44,34,0
2,35,55,252
2,44,53,0
2,35,78,124
2,44,47,0
2,44,43,252
2,37,99,124
2,44,73,0
2,35,45,252
2,44,43,0
2,35,74,124
2,44,47,0
2,44,16,256
2,37,103,124
2,44,67,0
2,35,55,252
2,44,55,0
2,44,37,124
2,35,74,0
2,44,40,252
2,37,103,124
2,44,76,0
2,44,59,252
2,35,80,0
2,44,57,124
2,35,82,0
2,44,55,252
2,37,93,120
2,44,59,0
2,35,80,252
2,44,47,0
2,35,73,128
2,44,61,0
2,44,45,252
2,37,101,124
2,44,67,0
2,35,74,252
2,44,40,0
2,35,80,128
2,44,71,0
2,44,47,252
2,37,97,128
2,44,71,0
2,35,59,252
2,44,51,0
2,35,82,124
2,44,55,0
2,44,43,252
2,37,99,128
2,46,67,0
2,35,49,252
2,35,78,128
2,44,47,0
2,44,51,252
2,37,97,128
2,44,71,0
2,35,65,252
2,44,34,0
2,44,45,124
2,35,86,0
2,44,34,252
2,37,95,124
2,44,63,0
2,35,65,252
2,44,34,0
2,35,90,124
2,44,63,0
2,44,21,256
2,37,101,124
2,44,63,0
2,35,34,252
2,44,43,0
2,35,71,128
2,44,63,0
2,44,63,124
2,44,73,124
2,46,86,124
2,37,105,0
2,35,53,252
2,35,88,124
2,44,63,0
2,44,40,252
2,37,101,128
2,44,59,0
2,35,59,252
2,44,37,0
2,35,78,128
2,44,67,0
2,44,26,256
2,37,99,128
2,44,63,0
2,35,45,256
2,44,47,0
2,35,73,128
2,44,51,128
2,44,45,128
2,37,97,124
2,44,51,0
2,44,53,124
2,35,61,124
2,44,69,0
2,35,96,124
2,44,76,0
2,44,67,124
2,37,68,0
2,37,78,124
2,44,76,0
2,37,101,128
2,44,78,0
2,35,88,124
2,35,104,128
2,37,66,0
2,35,102,128
2,44,74,4
2,46,80,252
2,37,95,128
2,44,80,0
2,35,51,252
2,44,57,0
2,44,63,124
2,35,82,0
2,44,40,252
2,37,97,124
2,44,67,0
2,35,61,252
2,44,49,0
2,35,78,128
2,44,65,0
2,44,43,256
2,37,99,128
2,44,73,0
2,35,67,252
2,44,43,0
2,35,67,128
2,44,61,0
2,44,40,252
2,37,101,124
2,44,63,0
2,44,44,240
2,35,63,12
2,44,61,0
2,44,54,32
2,44,64,32
2,35,74,64
2,44,67,0
2,44,49,256
2,37,99,124
2,44,63,0
2,35,61,252
2,44,37,0
2,35,88,128
2,44,69,0
2,44,30,252
2,37,103,124
2,44,61,0
2,35,55,252
2,44,34,0
2,35,82,124
2,44,67,0
2,44,26,252
2,44,71,124
2,37,99,0
2,35,61,252
2,44,55,0
2,35,92,128
2,44,74,0
2,44,30,256
2,37,101,124
2,44,80,0
2,35,82,124
2,35,110,124
2,35,98,124
2,44,55,0
2,44,30,252
2,37,103,124
2,44,69,0
2,35,74,252
2,44,47,0
2,44,63,124
2,35,74,0
2,44,30,252
2,37,103,128
2,44,63,0
2,35,57,252
2,44,30,0
2,35,82,124
2,44,55,0
2,44,47,256
2,37,101,128
2,44,65,0
2,35,65,252
2,44,34,0
2,35,86,124
2,44,47,0
2,44,47,252
2,37,99,124
2,44,76,0
2,44,44,240
2,35,67,12
2,44,54,32
2,44,64,32
2,35,88,60
2,59,71,0
2,44,26,252
2,37,101,124
2,44,71,0
2,51,74,236
2,35,55,16
2,59,65,124
2,35,82,0
2,44,30,256
2,37,105,128
2,44,80,0
2,51,63,248
2,35,47,0
2,35,92,128
2,59,73,4
2,44,55,116
2,44,57,124
2,44,63,124
2,37,103,0
2,44,63,124
2,35,61,128
2,44,69,0
2,35,96,124
2,44,71,0
2,37,103,124
2,44,74,0
2,44,78,124
2,44,82,124
2,35,74,124
2,37,101,0
2,44,86,0
2,35,94,124
2,44,90,0
2,35,90,124
2,44,71,0
2,46,78,252
2,37,97,128
2,44,71,0
2,35,51,252
2,44,37,0
2,35,78,128
2,44,53,0
2,44,40,252
2,44,63,128
2,37,101,0
2,44,43,252
2,35,53,4
2,44,63,124
2,35,74,0
2,44,34,252
2,37,103,124
2,44,59,0
2,35,51,252
2,44,37,0
2,35,78,124
2,44,76,0
2,46,74,252
2,37,99,124
2,44,74,0
2,35,74,0
2,35,76,124
2,35,78,124
2,44,47,0
2,35,82,124
2,44,55,0
2,44,49,252
2,37,101,128
2,44,63,0
2,44,47,252
2,35,63,4
2,44,69,124
2,35,74,4
2,44,26,252
2,44,71,128
2,37,101,0
2,44,43,252
2,35,43,0
2,44,59,124
2,35,74,0
2,44,34,252
2,44,67,124
2,37,101,0
2,35,63,252
2,44,37,0
2,44,76,124
2,35,86,0
2,46,61,252
2,37,101,124
2,44,67,0
2,35,40,252
2,44,21,0
2,35,67,128
2,44,47,0
2,44,43,252
2,37,99,124
2,44,67,0
2,44,40,252
2,35,47,4
2,44,55,124
2,35,71,0
2,44,30,252
2,44,71,124
2,37,99,0
2,44,34,252
2,35,51,4
2,35,76,128
2,44,80,0
2,44,30,252
2,44,73,124
2,37,97,0
2,44,55,252
2,35,43,0
2,44,51,124
2,35,71,0
2,44,84,124
2,37,95,256
2,44,86,0
2,35,67,124
2,35,65,124
2,35,88,128
2,51,49,0
2,59,45,0
2,44,43,252
2,44,67,128
2,37,101,0
2,35,43,252
2,44,43,0
2,35,67,124
2,44,55,0
2,44,34,252
2,44,55,128
2,37,99,0
2,46,82,252
2,35,49,4
2,35,74,128
2,59,63,4
2,51,51,0
2,44,37,244
2,44,69,128
2,37,95,0
2,44,47,252
2,35,43,4
2,44,51,124
2,35,67,4
2,44,21,252
2,44,74,124
2,37,99,0
2,46,78,252
2,35,71,0
2,51,65,108
2,35,61,20
2,44,43,252
2,44,59,128
2,37,101,0
2,44,30,252
2,35,49,0
2,44,55,124
2,35,73,0
2,44,34,252
2,37,101,128
2,35,49,124
2,51,64,112
2,35,57,12
2,59,34,124
2,35,92,0
2,51,40,0
2,46,76,248
2,37,103,128
2,44,57,0
2,44,34,252
2,35,37,0
2,44,45,124
2,35,55,0
2,44,4,252
2,37,103,128
2,44,63,0
2,37,66,256
2,44,16,0
2,35,51,0
2,44,59,124
2,35,59,0
2,44,21,252
2,37,101,128
2,44,65,0
2,44,37,252
2,44,63,124
2,35,69,0
2,44,44,240
2,44,54,48
2,44,64,48
2,37,101,44
2,46,64,0
2,35,63,124
2,35,63,124
2,35,74,124
2,44,64,0
2,37,64,252
2,44,47,124
2,37,101,4
2,35,47,252
2,35,67,128
2,44,43,252
2,37,99,128
2,44,51,0
2,35,63,252
2,44,30,0
2,35,67,128
2,44,43,0
2,44,4,256
2,37,95,124
2,44,51,0
2,35,43,252
2,44,30,0
2,44,55,124
2,35,74,0
2,44,43,252
2,37,97,124
2,46,61,0
2,35,37,124
2,35,65,124
2,35,80,124
2,51,49,0
2,59,45,0
2,44,40,252
2,37,99,128
2,44,51,0
2,35,26,252
2,44,30,0
2,35,69,124
2,44,34,0
2,44,40,252
2,44,55,124
2,37,99,0
2,46,37,252
2,35,43,4
2,35,69,128
2,59,63,4
2,51,51,0
2,44,51,244
2,44,55,124
2,37,101,0
2,44,34,252
2,35,21,0
2,35,69,124
2,44,63,0
2,44,16,252
2,44,73,124
2,37,99,0
2,35,43,252
2,46,67,0
2,51,65,108
2,35,65,16
2,44,47,252
2,37,101,124
2,44,51,0
2,35,51,252
2,44,34,0
2,35,69,128
2,44,63,0
2,44,63,380
2,37,101,0
2,35,59,124
2,51,64,112
2,35,67,12
2,59,34,124
2,35,74,0
2,44,37,0
2,51,40,0
2,44,10,252
2,37,103,124
2,44,67,0
2,35,45,252
2,44,40,0
2,35,67,128
2,44,57,0
2,44,43,252
2,37,99,124
2,44,61,0
2,44,45,252
2,35,10,4
2,44,55,124
2,35,78,0
2,44,21,252
2,37,45,0
2,44,51,124
2,37,99,0
2,44,30,252
2,35,53,0
2,44,65,124
2,35,74,0
2,46,71,248
2,44,63,128
2,37,97,0
2,46,76,124
2,35,43,0
2,35,53,124
2,44,55,0
2,35,71,128
2,44,47,0
2,46,71,252
2,37,97,132
2,44,37,0
2,35,49,252
2,44,37,0
2,44,43,124
2,35,67,0
2,44,43,252
2,44,59,128
2,37,95,0
2,44,34,252
2,35,53,0
2,35,74,124
2,44,51,0
2,44,21,252
2,37,97,128
2,44,67,0
2,44,51,252
2,35,37,0
2,44,63,124
2,35,63,0
2,44,55,124
2,44,67,128
2,46,67,128
2,37,95,0
2,44,67,252
2,35,49,0
2,44,71,124
2,51,49,0
2,59,45,0
2,35,74,0
2,44,63,252
2,37,97,128
2,44,43,0
2,35,53,252
2,44,45,0
2,35,71,128
2,44,63,0
2,44,30,252
2,37,97,124
2,44,59,0
2,35,55,252
2,46,63,0
2,35,67,124
2,59,63,4
2,51,51,0
2,44,59,244
2,37,101,124
2,44,43,0
2,44,40,252
2,35,59,0
2,35,82,124
2,44,57,0
2,44,21,252
2,37,99,128
2,44,55,0
2,35,59,252
2,46,65,0
2,51,65,112
2,35,74,20
2,44,49,252
2,37,99,128
2,44,55,0
2,44,40,252
2,35,53,0
2,44,67,128
2,35,71,0
2,44,10,252
2,44,47,124
2,37,95,0
2,35,67,124
2,51,64,112
2,35,67,12
2,46,51,0
2,59,34,124
2,35,74,0
2,51,40,0
2,44,37,248
2,44,51,128
2,37,97,0
2,44,47,252
2,35,57,0
2,44,37,124
2,35,69,4
2,44,30,252
2,37,97,128
2,44,57,0
2,46,78,124
2,44,51,128
2,35,40,0
2,44,45,124
2,35,76,0
2,44,51,380
2,37,99,0
2,44,43,252
2,35,30,0
2,44,51,124
2,35,76,0
2,46,67,124
2,44,63,128
2,37,40,0
2,37,86,124
2,44,55,0
2,46,73,124
2,44,61,128
2,35,69,128
2,44,59,0
2,37,97,380
2,44,55,0
2,44,43,252
2,44,57,128
2,35,61,0
2,44,40,252
2,37,92,128
2,44,76,0
2,46,55,252
2,35,63,128
2,44,67,0
2,44,30,252
2,37,95,124
2,44,71,0
