track,note,velocity,time
0,54,52,0
0,59,60,0
0,64,60,0
0,67,60,0
0,40,45,3
0,47,122,1
0,52,122,0
0,55,122,2
0,59,122,1
0,64,91,0
0,54,37,0
0,59,99,0
0,71,105,0
0,79,121,0
0,59,88,1
0,64,45,2
0,59,100,1
0,55,82,0
0,52,82,0
0,57,70,0
0,57,77,0
0,69,122,0
0,78,103,0
0,54,73,0
0,40,100,0
0,47,122,1
0,52,85,4
0,55,120,2
0,59,67,1
0,64,122,0
0,54,31,2
0,55,95,0
0,67,109,0
0,76,105,0
0,55,88,1
0,64,103,6
0,59,122,3
0,55,118,0
0,52,94,3
0,54,52,0
0,60,60,0
0,43,76,0
0,48,122,0
0,52,97,0
0,55,122,0
0,64,118,0
0,60,122,0
0,54,37,105
0,55,122,0
0,64,122,0
0,60,122,0
0,52,59,0
0,55,70,0
0,48,82,5
0,43,82,0
0,60,122,0
0,54,73,0
0,43,118,1
0,48,122,3
0,52,122,0
0,55,122,0
0,60,122,0
0,64,122,4
0,54,31,4
0,62,113,0
0,64,120,0
0,62,122,0
0,57,122,0
0,50,76,4
0,45,59,1
0,54,52,0
0,54,60,0
0,57,60,0
0,62,60,0
0,45,122,0
0,50,122,0
0,57,122,0
0,62,122,2
0,66,122,0
0,54,90,3
0,54,37,0
0,54,85,0
0,66,109,0
0,74,113,0
0,66,122,0
0,62,122,0
0,57,109,0
0,50,82,0
0,45,97,0
0,52,80,11
0,52,73,0
0,64,99,0
0,72,113,0
0,54,73,0
0,45,122,0
0,50,122,0
0,57,122,0
0,62,115,0
0,66,122,0
0,50,96,22
0,54,31,0
0,50,59,0
0,62,121,0
0,71,122,0
0,66,70,5
0,62,122,6
0,55,73,2
0,54,52,0
0,55,60,0
0,59,60,0
0,43,122,0
0,47,122,0
0,50,122,0
0,55,122,0
0,59,122,2
0,67,122,0
0,54,37,2
0,50,122,0
0,67,122,4
0,59,122,3
0,55,97,0
0,50,79,3
0,47,70,2
0,43,59,4
0,55,121,0
0,54,73,0
0,43,122,3
0,47,122,0
0,50,122,2
0,55,122,0
0,59,122,2
0,67,122,0
0,54,31,0
0,54,103,0
0,67,122,4
0,59,122,4
0,55,55,4
0,52,55,2
0,47,82,3
0,40,85,4
0,52,91,0
0,54,52,0
0,64,60,0
0,40,122,1
0,47,122,1
0,52,122,0
0,55,122,0
0,59,122,0
0,64,122,0
0,59,92,3
0,54,37,0
0,59,109,0
0,71,93,0
0,79,117,0
0,64,122,3
0,59,122,0
0,55,65,3
0,52,82,1
0,57,88,3
0,57,87,0
0,69,93,0
0,78,77,0
0,54,73,0
0,40,122,0
0,47,122,0
0,52,103,0
0,55,122,0
0,59,122,0
0,64,122,4
0,64,122,0
0,55,92,0
0,59,122,0
0,54,31,2
0,55,95,0
0,67,109,0
0,76,83,0
0,55,122,0
0,52,55,0
0,48,65,2
0,43,52,5
0,43,118,0
0,48,122,0
0,54,52,0
0,60,60,0
0,52,122,0
0,55,122,0
0,60,122,0
0,64,91,4
0,54,37,7
0,55,122,0
0,64,122,0
0,60,122,0
0,55,112,0
0,52,85,0
0,48,63,4
0,43,49,0
0,60,122,2
0,54,73,0
0,43,122,0
0,48,122,0
0,52,76,0
0,55,122,0
0,60,122,0
0,64,100,2
0,54,31,12
0,62,122,0
0,66,122,0
0,62,122,0
0,57,109,0
0,50,61,1
0,45,82,4
0,54,52,0
0,57,60,0
0,62,60,0
0,66,60,0
0,45,122,4
0,50,122,0
0,57,122,0
0,62,122,0
0,66,122,3
0,66,122,0
0,54,84,1
0,54,37,3
0,54,97,0
0,66,109,0
0,74,121,0
0,62,122,0
0,57,76,0
0,50,67,4
0,45,91,0
0,57,88,8
0,45,122,0
0,50,122,0
0,57,113,0
0,69,91,0
0,78,109,0
0,54,73,0
0,57,122,0
0,62,122,0
0,66,122,3
0,66,64,0
0,62,109,3
0,57,78,1
0,54,31,3
0,50,76,0
0,43,122,0
0,47,122,0
0,50,122,0
0,55,122,0
0,54,52,0
0,59,103,0
0,71,93,0
0,79,113,0
0,59,60,0
0,67,60,0
0,59,96,1
0,59,122,0
0,67,122,4
0,67,122,0
0,59,122,0
0,54,37,4
0,55,73,1
0,50,76,4
0,47,91,3
0,43,76,0
0,43,112,0
0,47,122,0
0,50,122,0
0,54,73,0
0,55,122,0
0,59,122,0
0,67,122,0
0,64,122,9
0,54,31,2
0,55,67,4
0,52,70,2
0,47,91,1
0,40,85,2
0,54,52,0
0,64,60,0
0,40,109,0
0,47,122,0
0,52,122,0
0,55,122,3
0,59,122,0
0,64,122,3
0,59,96,136
0,54,37,7
0,59,99,0
0,71,105,0
0,79,121,0
0,59,106,4
0,55,97,2
0,52,91,1
0,57,80,1
0,57,77,3
0,69,122,0
0,78,103,0
0,54,73,0
0,40,122,0
0,47,122,0
0,52,122,0
0,55,122,0
0,59,122,0
0,64,122,4
0,55,92,2
0,54,31,0
0,55,95,0
0,67,109,0
0,76,105,0
0,64,122,0
0,59,122,0
0,55,120,0
0,52,122,4
0,48,100,2
0,43,106,1
0,54,52,0
0,60,60,0
0,43,91,0
0,48,122,0
0,52,122,0
0,55,122,0
0,60,122,0
0,64,122,4
0,54,37,0
0,55,122,0
0,64,122,0
0,60,122,0
0,55,79,6
0,52,61,1
0,48,73,5
0,43,65,6
0,60,122,0
0,54,73,0
0,43,122,1
0,48,122,3
0,52,97,0
0,55,122,0
0,60,122,0
0,64,122,5
0,54,31,4
0,62,113,0
0,64,115,0
0,60,122,0
0,55,103,7
0,52,63,2
0,48,57,0
0,43,73,5
0,54,52,0
0,54,60,0
0,57,60,0
0,62,60,0
0,45,122,0
0,50,57,0
0,57,122,0
0,62,122,0
0,66,115,2
0,66,122,9
0,62,94,4
0,57,79,3
0,54,37,2
0,54,85,0
0,66,109,0
0,74,113,0
0,50,100,1
0,45,55,0
0,54,90,9
0,52,92,1
0,45,122,0
0,50,122,0
0,52,73,3
0,64,99,0
0,72,113,0
0,54,73,0
0,57,122,0
0,62,122,0
0,66,122,2
0,50,100,1
0,66,122,0
0,54,31,2
0,50,59,0
0,62,121,0
0,71,122,0
0,62,122,0
0,57,91,5
0,50,65,3
0,45,85,0
0,54,52,0
0,55,60,0
0,59,60,0
0,43,122,0
0,47,122,0
0,50,122,0
0,55,122,0
0,59,122,0
0,67,122,4
0,67,122,0
0,54,37,2
0,50,122,0
0,59,122,0
0,55,122,0
0,50,73,5
0,47,55,3
0,43,35,3
0,43,122,0
0,55,121,0
0,54,73,0
0,47,122,0
0,50,122,0
0,55,122,0
0,59,122,0
0,67,122,3
0,67,100,0
0,62,97,5
0,54,31,2
0,54,103,0
0,55,70,1
0,52,79,2
0,47,85,0
0,40,76,0
0,40,122,0
0,47,122,0
0,55,122,0
0,52,65,0
0,52,91,0
0,54,52,0
0,64,60,0
0,64,122,0
0,59,122,0
0,59,100,3
0,64,115,0
0,54,37,0
0,59,109,0
0,71,93,0
0,79,117,0
0,59,122,0
0,55,76,0
0,52,79,6
0,47,91,2
0,40,91,2
0,57,92,4
0,40,122,0
0,47,122,0
0,52,103,0
0,55,122,0
0,57,87,0
0,69,93,0
0,78,77,0
0,54,73,0
0,59,122,0
0,64,122,4
0,64,122,0
0,55,92,1
0,59,122,0
0,54,31,4
0,55,95,0
0,67,109,0
0,76,83,0
0,55,122,0
0,52,73,7
0,48,59,2
0,43,35,4
0,43,122,0
0,48,122,0
0,54,52,0
0,60,60,0
0,52,65,0
0,55,122,0
0,60,122,0
0,64,122,4
0,64,122,0
0,54,37,7
0,55,122,0
0,60,122,0
0,55,122,5
0,52,65,4
0,48,94,4
0,43,57,2
0,43,122,0
0,48,122,0
0,52,120,0
0,60,122,2
0,54,73,0
0,55,122,0
0,60,122,0
0,64,122,2
0,66,122,0
0,54,31,2
0,62,122,0
0,62,122,5
0,57,118,6
0,50,88,5
0,45,79,5
0,45,122,0
0,54,52,0
0,57,60,0
0,62,60,0
0,66,60,0
0,50,122,0
0,57,122,0
0,62,122,0
0,66,122,4
0,54,90,3
0,66,122,0
0,62,122,0
0,57,106,0
0,54,37,0
0,54,97,0
0,66,109,0
0,74,121,0
0,50,63,3
0,45,73,2
0,57,96,0
0,45,122,0
0,50,122,0
0,34,127,0
0,57,113,0
0,69,91,0
0,78,109,0
0,54,73,0
0,57,122,0
0,62,122,0
0,66,122,0
0,66,122,0
0,62,122,0
0,57,122,0
0,50,122,0
0,54,31,3
0,49,48,0
0,45,79,1
0,31,126,0
0,54,52,0
0,35,120,0
0,42,82,0
0,57,78,0
0,59,93,0
0,71,83,0
0,79,103,0
0,59,60,0
0,62,60,0
0,67,60,0
0,59,92,10
0,43,92,3
0,47,117,5
0,50,117,4
0,55,117,1
0,59,117,1
0,67,117,5
0,71,96,3
0,54,37,0
0,67,54,2
0,59,117,3
0,55,104,6
0,50,74,5
0,47,50,0
0,43,47,0
0,71,96,2
0,54,73,0
0,40,100,0
0,42,76,0
0,43,117,0
0,47,117,4
0,50,117,4
0,55,117,1
0,59,117,1
0,67,117,1
0,64,107,4
0,31,110,5
0,72,88,0
0,54,31,0
0,59,117,2
0,55,117,8
0,52,22,3
0,47,60,2
0,40,50,2
0,40,117,0
0,71,96,0
0,28,122,0
0,40,100,0
0,55,78,0
0,59,88,0
0,64,92,0
0,54,52,0
0,35,120,0
0,42,82,0
0,64,60,0
0,47,113,0
0,55,107,0
0,52,117,0
0,59,110,0
0,64,101,6
0,64,65,10
0,59,117,6
0,69,88,0
0,54,37,0
0,55,95,5
0,52,44,3
0,47,50,1
0,40,92,4
0,67,92,0
0,54,73,0
0,40,100,0
0,42,76,0
0,40,117,0
0,47,117,0
0,52,117,0
0,55,117,0
0,59,117,0
0,64,117,2
0,64,83,15
0,60,98,7
0,28,96,5
0,66,84,0
0,54,31,0
0,55,86,1
0,52,65,6
0,48,30,2
0,43,92,5
0,43,117,0
0,36,122,0
0,64,96,0
0,54,52,0
0,35,120,0
0,42,82,0
0,36,100,0
0,55,80,0
0,60,74,0
0,64,88,0
0,60,60,0
0,48,117,0
0,52,117,0
0,55,117,0
0,60,117,0
0,64,117,6
0,64,117,0
0,60,117,0
0,55,117,0
0,66,78,4
0,54,37,0
0,52,117,5
0,48,104,6
0,43,117,7
0,67,96,0
0,54,73,0
0,40,100,0
0,42,76,0
0,43,117,0
0,48,117,0
0,52,117,0
0,55,117,0
0,60,117,0
0,64,117,5
0,64,117,0
0,60,117,0
0,55,117,8
0,36,92,3
0,62,84,0
0,54,31,0
0,50,117,5
0,47,107,6
0,43,117,8
0,43,117,0
0,47,117,0
0,31,110,0
0,54,52,0
0,42,82,0
0,43,84,0
0,55,74,0
0,59,80,0
0,62,80,0
0,59,60,0
0,62,60,0
0,50,117,0
0,55,117,0
0,59,117,0
0,67,117,7
0,67,86,11
0,59,115,0
0,62,92,7
0,54,37,0
0,35,120,0
0,55,86,2
0,50,68,8
0,47,56,7
0,43,117,5
0,60,106,10
0,54,73,0
0,40,100,0
0,42,76,0
0,43,95,0
0,50,117,0
0,47,117,0
0,55,117,0
0,59,117,0
0,67,117,5
0,59,101,2
0,67,89,0
0,59,117,0
0,26,100,2
0,57,94,0
0,54,31,0
0,55,101,0
0,50,71,0
0,47,80,0
0,43,117,5
0,55,94,14
0,43,117,0
0,47,117,0
0,31,126,4
0,55,103,0
0,54,52,0
0,35,120,0
0,42,82,0
0,43,92,0
0,55,80,0
0,59,84,0
0,62,88,0
0,50,117,0
0,55,117,0
0,59,117,0
0,67,117,5
0,59,92,7
0,55,68,7
0,54,37,3
0,50,80,0
0,47,50,2
0,43,86,8
0,43,117,0
0,62,92,3
0,54,73,0
0,40,100,0
0,42,76,0
0,47,117,0
0,50,113,0
0,55,117,0
0,59,117,0
0,67,117,3
0,67,113,0
0,59,117,0
0,55,117,0
0,31,108,7
0,67,96,0
0,54,31,0
0,52,117,0
0,47,117,0
0,40,117,7
0,40,95,0
0,47,117,0
0,52,117,0
0,28,122,0
0,67,96,0
0,54,52,0
0,35,120,0
0,42,82,0
0,40,100,0
0,55,84,0
0,59,84,0
0,64,84,0
0,64,60,0
0,55,117,0
0,59,117,0
0,64,117,4
0,64,95,4
0,59,117,0
0,55,117,0
0,52,117,0
0,54,37,0
0,47,113,0
0,40,117,9
0,40,117,0
0,47,117,0
0,52,117,0
0,55,117,0
0,66,84,0
0,54,73,0
0,40,100,0
0,42,76,0
0,59,117,3
0,64,117,3
0,64,117,3
0,59,117,0
0,55,117,0
0,52,117,9
0,28,98,0
0,64,92,0
0,54,31,0
0,48,117,0
0,43,117,10
0,43,117,0
0,48,117,0
0,52,117,0
0,55,117,0
0,36,126,0
0,64,100,0
0,54,52,0
0,35,120,0
0,42,82,0
0,36,100,0
0,55,78,0
0,60,78,0
0,64,84,0
0,60,60,0
0,60,117,1
0,64,117,4
0,64,117,1
0,60,117,0
0,55,98,0
0,66,78,0
0,54,37,0
0,52,92,0
0,48,74,7
0,43,113,9
0,43,113,0
0,48,117,0
0,52,117,0
0,55,117,0
0,60,117,4
0,67,100,0
0,54,73,0
0,40,100,0
0,42,76,0
0,64,117,3
0,64,117,4
0,62,117,0
0,57,117,0
0,50,117,0
0,36,118,4
0,69,96,0
0,54,31,0
0,45,115,5
0,45,117,0
0,50,117,0
0,57,117,0
0,38,114,0
0,54,52,0
0,35,120,0
0,42,82,0
0,38,84,0
0,54,78,0
0,57,92,0
0,62,80,0
0,57,60,0
0,62,60,0
0,66,60,0
0,62,106,0
0,62,117,2
0,67,117,1
0,67,101,3
0,62,117,0
0,57,117,0
0,50,117,0
0,67,106,2
0,69,96,0
0,54,37,0
0,35,120,0
0,45,117,6
0,45,117,0
0,50,117,0
0,57,117,0
0,66,106,3
0,54,73,0
0,40,100,0
0,42,76,0
0,62,113,1
0,67,117,0
0,67,115,3
0,62,117,1
0,57,117,0
0,50,117,7
0,33,104,7
0,54,31,0
0,69,110,0
0,45,117,1
0,45,117,0
0,50,117,0
0,57,117,4
0,38,122,3
0,54,52,0
0,35,120,0
0,42,82,0
0,38,100,0
0,54,78,0
0,57,88,0
0,62,84,0
0,62,117,1
0,67,117,1
0,67,80,3
0,62,117,5
0,57,95,2
0,50,60,2
0,69,88,2
0,54,37,0
0,45,56,1
0,45,117,0
0,50,117,0
0,71,96,0
0,54,73,0
0,40,100,0
0,42,76,0
0,57,117,0
0,62,117,3
0,67,117,1
0,67,117,3
0,59,117,0
0,55,117,0
0,50,117,0
0,36,114,2
0,72,92,0
0,54,31,0
0,47,117,7
0,43,117,9
0,43,117,0
0,47,117,0
0,50,117,0
0,55,117,0
0,59,117,5
0,35,126,0
0,74,96,0
0,54,52,0
0,35,120,0
0,42,82,0
0,35,100,0
0,55,100,0
0,62,88,0
0,59,60,0
0,67,60,0
0,67,117,1
0,67,117,0
0,59,117,0
0,55,113,8
0,54,37,3
0,62,106,0
0,50,95,5
0,47,60,6
0,43,117,7
0,43,117,0
0,47,117,0
0,72,88,0
0,54,73,0
0,40,100,0
0,42,76,0
0,50,117,0
0,55,117,0
0,59,117,0
0,67,117,5
0,64,117,0
0,67,110,8
0,35,108,0
0,71,92,0
0,54,31,0
0,62,117,0
0,55,113,0
0,52,117,8
0,48,117,5
0,43,117,5
0,43,117,3
0,48,117,0
0,36,127,0
0,69,92,0
0,54,52,0
0,35,120,0
0,42,82,0
0,36,96,0
0,55,84,0
0,60,84,0
0,64,88,0
0,60,60,0
0,64,60,0
0,55,117,0
0,52,117,0
0,62,117,0
0,64,117,6
0,64,117,0
0,62,117,0
0,62,110,7
0,67,74,0
0,54,37,0
0,55,117,2
0,52,107,0
0,48,95,0
0,43,117,1
0,66,84,0
0,54,73,0
0,40,100,0
0,42,76,0
0,43,117,0
0,48,117,0
0,52,117,0
0,55,117,0
0,62,117,0
0,64,117,5
0,64,117,0
0,62,117,0
0,67,110,4
0,36,100,0
0,62,88,0
0,54,31,0
0,57,117,0
0,50,110,8
0,45,89,6
