track,note,velocity,time
0,69,92,360
0,74,104,4
0,76,115,4
0,50,85,4
0,77,115,0
0,38,106,0
0,49,127,0
0,36,121,0
0,57,91,4
0,42,75,0
0,60,95,4
0,42,75,0
0,65,99,4
0,42,74,0
0,38,125,0
0,60,101,4
0,42,73,0
0,77,117,4
0,57,107,4
0,42,72,0
0,36,124,0
0,76,114,4
0,60,112,4
0,74,108,0
0,31,102,0
0,42,72,0
0,36,124,0
0,57,116,4
0,42,72,0
0,60,115,4
0,42,72,0
0,65,114,4
0,42,72,0
0,38,112,0
0,60,115,8
0,47,115,8
0,60,112,4
0,42,75,0
0,57,110,4
0,72,92,0
0,42,75,0
0,36,121,0
0,74,110,4
0,48,117,4
0,76,119,0
0,36,100,0
0,42,74,0
0,36,121,0
0,55,118,4
0,42,74,0
0,59,118,4
0,42,78,0
0,64,116,4
0,42,78,0
0,38,117,0
0,59,104,4
0,76,110,0
0,42,78,0
0,55,90,4
0,42,78,0
0,36,124,0
0,53,89,4
0,72,111,0
0,29,100,0
0,42,78,0
0,36,124,0
0,57,98,4
0,42,78,0
0,59,111,4
0,42,78,0
0,60,105,8
0,47,104,0
0,60,117,4
0,42,78,0
0,38,109,0
0,64,113,4
0,41,104,0
0,42,78,0
0,69,84,120
0,60,112,4
0,71,92,0
0,40,108,0
0,42,77,0
0,36,121,0
0,72,101,4
0,47,112,4
0,74,109,0
0,35,110,0
0,42,76,0
0,36,121,0
0,57,100,4
0,42,76,0
0,62,85,4
0,42,78,0
0,65,94,4
0,42,78,0
0,38,116,0
0,62,97,4
0,74,115,0
0,42,77,0
0,57,103,4
0,42,75,0
0,36,124,0
0,52,113,4
0,71,115,0
0,40,105,0
0,42,76,0
0,36,124,0
0,56,121,4
0,42,76,0
0,59,121,4
0,42,75,0
0,60,115,4
0,47,115,0
0,64,120,4
0,42,76,0
0,38,123,0
0,59,120,4
0,35,108,0
0,42,79,0
0,59,124,64
0,62,126,12
0,69,127,12
0,55,119,4
0,31,109,0
0,42,80,0
0,36,121,0
0,67,115,4
0,45,104,4
0,67,115,0
0,33,109,0
0,42,84,0
0,36,121,0
0,36,121,0
0,36,121,0
0,36,121,0
0,52,101,4
0,42,87,0
0,57,95,4
0,42,91,0
0,60,92,4
0,42,93,0
0,38,121,0
0,57,97,4
0,40,112,0
0,42,93,0
0,52,100,4
0,36,112,0
0,42,92,0
0,36,124,0
0,36,124,0
0,36,124,0
0,36,124,0
0,45,100,4
0,33,112,0
0,36,124,0
0,36,124,0
0,36,124,0
0,36,124,0
0,38,117,24
0,47,115,4
0,45,102,4
0,33,115,0
0,48,107,4
0,36,116,0
0,52,110,4
0,40,117,0
0,77,85,4
0,38,119,0
0,49,117,0
0,36,121,0
0,69,85,4
0,72,85,0
0,42,75,4
0,42,75,4
0,42,74,4
0,38,117,0
0,72,110,0
0,42,73,4
0,72,110,0
0,42,72,4
0,36,124,0
0,72,110,0
0,69,110,0
0,43,111,0
0,42,72,0
0,36,124,0
0,72,110,0
0,42,72,4
0,72,110,0
0,42,72,4
0,42,72,4
0,38,120,0
0,42,75,4
0,42,75,4
0,36,121,0
0,76,83,0
0,71,83,0
0,67,83,0
0,36,110,0
0,42,74,0
0,36,121,0
0,42,74,4
0,76,110,0
0,42,78,4
0,42,78,4
0,38,117,0
0,42,78,4
0,74,110,0
0,42,78,4
0,36,124,0
0,72,110,0
0,74,110,0
0,77,80,4
0,72,80,0
0,69,80,0
0,41,102,0
0,42,78,0
0,36,124,0
0,76,110,0
0,42,78,4
0,72,110,0
0,42,78,4
0,42,78,4
0,38,120,0
0,41,113,4
0,42,78,0
0,40,105,4
0,42,77,0
0,36,121,0
0,77,71,4
0,74,71,0
0,71,71,0
0,69,71,0
0,35,100,0
0,42,74,0
0,36,121,0
0,42,74,4
0,42,78,4
0,74,110,0
0,42,78,4
0,38,117,0
0,42,78,4
0,74,110,0
0,42,78,4
0,36,124,0
0,74,110,0
0,72,110,0
0,76,78,4
0,71,78,0
0,68,78,0
0,40,105,0
0,42,78,0
0,36,124,0
0,74,110,0
0,42,78,4
0,42,78,4
0,74,110,0
0,42,78,4
0,38,120,0
0,72,110,0
0,35,105,4
0,42,78,0
0,74,110,0
0,31,105,4
0,42,77,0
0,36,121,0
0,76,110,0
0,72,75,4
0,69,75,0
0,64,75,0
0,33,105,0
0,42,74,0
0,42,74,4
0,42,78,4
0,74,110,0
0,74,74,4
0,71,74,0
0,68,74,0
0,35,105,0
0,42,78,0
0,38,117,0
0,42,78,0
0,42,78,4
0,76,110,0
0,74,110,0
0,72,110,0
0,76,82,4
0,72,82,0
0,69,82,0
0,36,110,0
0,42,78,0
0,42,78,4
0,42,78,4
0,33,108,4
0,42,78,0
0,38,120,0
0,36,108,4
0,42,78,0
0,40,110,4
0,42,77,0
0,77,78,4
0,72,78,0
0,69,78,0
0,38,113,0
0,42,74,0
0,36,121,0
0,42,74,4
0,42,78,4
0,77,110,0
0,42,78,4
0,38,117,0
0,77,110,0
0,42,78,4
0,77,110,0
0,42,78,4
0,36,124,0
0,74,110,0
0,77,110,0
0,43,113,4
0,42,78,0
0,36,124,0
0,42,78,4
0,77,110,56
0,42,78,4
0,42,78,4
0,38,120,0
0,42,78,4
0,42,77,4
0,36,121,0
0,76,91,0
0,71,91,0
0,67,91,0
0,36,101,0
0,42,74,0
0,36,121,0
0,42,74,4
0,81,110,0
0,42,78,0
0,42,78,4
0,38,117,0
0,79,110,0
0,42,78,4
0,76,110,0
0,42,78,4
0,36,124,0
0,74,110,0
0,72,84,4
0,69,84,0
0,41,111,0
0,42,78,0
0,36,124,0
0,76,110,0
0,42,78,4
0,72,110,0
0,42,78,4
0,42,78,4
0,38,120,0
0,41,111,4
0,42,78,0
0,40,111,4
0,42,77,0
0,36,121,0
0,77,88,4
0,74,88,0
0,71,88,0
0,69,88,0
0,35,112,0
0,42,74,0
0,36,121,0
0,42,74,4
0,74,110,0
0,42,78,4
0,74,110,0
0,42,78,4
0,38,117,0
0,42,78,4
0,74,110,0
0,42,78,0
0,36,124,0
0,72,110,108
0,74,110,0
0,35,101,4
0,42,78,0
0,36,124,0
0,42,78,4
0,42,78,4
0,42,78,4
0,38,127,0
0,72,110,80
0,42,78,4
0,74,110,0
0,42,77,4
0,36,121,0
0,76,110,0
0,76,87,0
0,71,87,0
0,69,87,0
0,28,101,0
0,47,81,0
0,40,99,0
0,42,74,0
0,36,96,0
0,28,103,0
0,47,83,0
0,40,84,0
0,42,74,0
0,36,81,0
0,79,110,0
0,28,103,4
0,47,85,0
0,40,82,0
0,42,78,0
0,36,88,0
0,76,110,0
0,28,107,4
0,47,89,0
0,40,81,0
0,42,78,0
0,36,108,0
0,74,110,0
0,28,111,4
0,47,88,0
0,40,87,0
0,46,78,0
0,36,99,0
0,72,110,0
0,28,112,4
0,47,83,0
0,40,85,0
0,46,78,0
0,36,96,0
0,74,110,232
0,76,95,4
0,71,95,0
0,68,95,0
0,28,112,0
0,47,81,0
0,40,89,0
0,46,78,0
0,36,98,0
0,28,114,4
0,47,76,0
0,40,84,0
0,46,78,0
0,36,96,0
0,28,114,4
0,47,82,0
0,40,84,0
0,46,78,0
0,36,98,0
0,28,112,4
0,47,85,0
0,40,84,0
0,46,78,0
0,36,108,0
0,64,104,4
0,76,104,0
0,28,109,0
0,47,88,0
0,40,93,0
0,46,78,0
0,36,96,0
0,67,108,4
0,79,108,0
0,69,112,4
0,81,112,0
0,33,109,0
0,43,96,0
0,50,80,0
0,46,77,0
0,36,106,0
0,72,115,4
0,84,115,0
0,60,87,4
0,64,87,0
0,69,87,0
0,69,102,0
0,81,102,0
0,33,108,0
0,72,105,0
0,76,105,0
0,81,105,0
0,49,116,0
0,36,121,0
0,69,91,4
0,64,91,0
0,60,91,0
0,81,107,0
0,72,107,0
0,76,107,0
0,42,75,0
0,64,92,4
0,69,92,0
0,60,92,0
0,72,108,0
0,81,108,0
0,76,108,0
0,42,75,0
0,69,95,4
0,64,95,0
0,60,95,0
0,72,109,0
0,81,109,0
0,76,109,0
0,42,74,0
0,38,127,0
0,81,110,0
0,64,97,4
0,69,97,0
0,60,97,0
0,81,110,0
0,72,110,0
0,76,110,0
0,42,73,0
0,76,110,0
0,69,99,0
0,64,99,0
0,60,99,0
0,76,110,0
0,72,110,0
0,81,110,0
0,42,72,0
0,36,124,0
0,79,110,0
0,71,101,4
0,67,101,0
0,64,101,0
0,67,74,0
0,79,74,0
0,28,97,0
0,76,112,0
0,79,112,0
0,71,112,0
0,42,72,0
0,36,124,0
0,76,110,0
0,64,102,4
0,67,102,0
0,71,102,0
0,76,114,0
0,71,114,0
0,79,114,0
0,42,72,0
0,64,106,4
0,67,106,0
0,71,106,0
0,76,116,0
0,71,116,0
0,79,116,0
0,42,72,0
0,64,109,4
0,67,109,0
0,71,109,0
0,76,116,0
0,71,116,0
0,79,116,0
0,42,72,0
0,38,127,0
0,76,110,0
0,64,110,0
0,67,110,0
0,71,110,0
0,64,101,0
0,76,101,0
0,76,117,0
0,79,117,0
0,71,117,0
0,42,75,0
0,67,106,4
0,79,106,0
0,79,110,0
0,64,111,4
0,67,111,0
0,71,111,0
0,69,109,0
0,81,109,0
0,31,99,0
0,76,117,0
0,79,117,0
0,71,117,0
0,42,75,0
0,36,121,0
0,72,112,4
0,84,112,0
0,60,86,4
0,64,86,0
0,69,86,0
0,69,117,0
0,81,117,0
0,33,99,0
0,76,117,0
0,81,117,0
0,72,117,0
0,42,74,0
0,36,121,0
0,79,110,0
0,60,89,4
0,64,89,0
0,69,89,0
0,76,117,0
0,81,117,0
0,72,117,0
0,42,74,0
0,60,92,4
0,64,92,0
0,69,92,0
0,76,117,0
0,81,117,0
0,72,117,0
0,42,78,0
0,60,96,4
0,64,96,0
0,69,96,0
0,76,117,0
0,81,117,0
0,72,117,0
0,42,78,0
0,38,117,0
0,60,98,4
0,64,98,0
0,69,98,0
0,71,82,0
0,83,82,0
0,76,117,0
0,81,117,0
0,72,117,0
0,42,78,0
0,76,110,0
0,60,102,4
0,64,102,0
0,69,102,0
0,84,88,0
0,72,88,0
0,76,117,0
0,81,117,0
0,72,117,0
0,42,78,0
0,36,124,0
0,60,103,0
0,64,103,0
0,69,103,0
0,88,96,0
0,76,96,0
0,38,97,0
0,81,117,0
0,84,117,0
0,72,117,0
0,42,78,0
0,36,124,0
0,74,110,0
0,72,110,0
0,60,105,4
0,64,105,0
0,69,105,0
0,81,116,0
0,84,116,0
0,72,116,0
0,42,78,0
0,60,107,4
0,64,107,0
0,69,107,0
0,81,116,0
0,84,116,0
0,72,116,0
0,42,78,0
0,60,109,4
0,64,109,0
0,69,109,0
0,81,116,0
0,84,116,0
0,72,116,0
0,42,78,0
0,38,120,0
0,69,110,0
0,60,110,0
0,64,110,0
0,69,110,0
0,81,115,0
0,84,115,0
0,72,115,0
0,42,78,0
0,72,110,0
0,60,111,4
0,64,111,0
0,69,111,0
0,81,115,0
0,84,115,0
0,72,115,0
0,42,77,0
0,36,121,0
0,74,110,0
0,53,99,4
0,79,99,0
0,75,99,0
0,69,99,0
0,29,98,0
0,53,91,0
0,57,89,0
0,63,108,0
0,67,92,0
0,72,116,0
0,42,76,0
0,36,121,0
0,57,103,0
0,42,76,0
0,63,107,4
0,42,78,0
0,67,107,4
0,42,78,0
0,38,117,0
0,57,108,4
0,42,77,0
0,72,110,0
0,63,108,4
0,42,75,0
0,36,124,0
0,74,110,0
0,52,108,0
0,75,88,0
0,79,88,0
0,68,88,0
0,28,102,0
0,52,100,0
0,56,100,0
0,62,100,0
0,65,100,0
0,42,76,0
0,36,124,0
0,56,108,4
0,42,76,0
0,62,107,4
0,42,75,0
0,67,100,4
0,42,76,0
0,38,120,0
0,56,97,4
0,42,79,0
0,72,110,0
0,62,95,4
0,42,80,0
0,36,121,0
0,69,110,0
0,72,110,100
0,45,93,4
0,76,98,0
0,72,98,0
0,69,98,0
0,33,99,0
0,42,84,0
0,36,121,0
0,36,121,0
0,36,121,0
0,69,110,0
0,52,93,4
0,42,87,0
0,57,93,4
0,42,91,0
0,60,97,4
0,42,93,0
0,38,121,0
0,57,102,4
0,40,101,0
0,42,93,0
0,52,105,4
0,36,101,0
0,42,92,0
0,36,124,0
0,36,124,0
0,36,124,0
0,60,100,4
0,57,100,0
0,52,100,0
0,45,100,0
0,57,80,0
0,60,80,0
0,64,80,0
0,69,80,0
0,33,104,0
0,38,127,0
0,36,124,0
0,36,124,0
0,36,124,0
0,38,127,4
0,45,105,0
0,33,109,0
0,48,103,4
0,36,109,0
0,52,102,4
0,40,111,0
0,50,101,4
0,77,101,0
0,38,112,0
0,49,120,0
0,36,121,0
0,69,101,4
0,72,101,0
0,57,78,4
0,42,75,0
0,60,78,4
0,42,75,0
0,65,78,4
0,42,74,0
0,38,117,0
0,72,110,0
0,60,77,4
0,42,73,0
0,72,110,0
0,57,77,4
0,42,72,0
0,36,124,0
0,72,110,0
0,69,110,0
0,43,77,4
0,43,100,0
0,42,72,0
0,36,124,0
0,72,110,0
0,57,78,4
0,42,72,0
0,72,110,0
0,60,82,0
0,42,72,0
0,65,86,4
0,42,72,0
0,38,120,0
0,60,90,4
0,64,74,0
0,42,75,0
0,57,92,4
0,67,102,0
0,42,75,0
0,36,121,0
0,48,92,0
0,67,116,0
0,72,92,0
0,76,92,0
0,79,92,0
0,36,110,0
0,42,74,0
0,36,121,0
0,55,92,4
0,42,74,0
0,76,110,0
0,59,93,4
0,42,78,0
0,64,94,4
0,42,78,0
0,38,117,0
0,59,94,4
0,42,78,0
0,74,110,0
0,55,94,4
0,42,78,0
0,36,124,0
0,72,110,0
0,74,110,0
0,53,94,4
0,72,107,0
0,76,107,0
0,81,107,0
0,41,110,0
0,42,78,0
0,36,124,0
0,76,110,0
0,57,94,4
0,42,78,0
0,72,110,0
0,59,93,4
0,42,78,0
0,60,90,4
0,42,78,0
0,38,120,0
0,64,90,4
0,41,112,0
0,42,78,0
0,69,115,60
0,60,90,4
0,67,115,0
0,40,114,0
0,42,77,0
0,36,121,0
0,62,100,4
0,47,89,4
0,74,101,0
0,77,101,0
0,81,101,0
0,35,115,0
0,42,74,0
0,36,121,0
0,60,115,4
0,57,89,4
0,42,74,0
0,62,95,4
0,42,78,0
0,74,110,0
0,65,95,4
0,42,78,0
0,38,117,0
0,62,99,4
0,42,78,0
0,74,110,0
0,57,103,4
0,42,78,0
0,36,124,0
0,74,110,0
0,72,110,0
0,40,103,4
0,74,96,0
0,71,96,0
0,76,96,0
0,80,96,0
0,40,98,0
0,42,78,0
0,36,124,0
0,74,110,0
0,47,103,4
0,42,78,0
0,52,103,4
0,42,78,0
0,74,110,0
0,56,102,4
0,42,78,0
0,38,120,0
0,72,110,0
0,62,98,4
0,63,115,0
0,35,99,0
0,42,78,0
0,62,115,4
0,74,110,0
0,56,94,4
0,60,115,0
0,31,99,0
0,42,77,0
0,36,121,0
0,76,110,0
0,45,94,4
0,81,84,0
0,72,84,0
0,69,84,0
0,33,100,0
0,42,74,0
0,52,89,4
0,42,74,0
0,57,88,4
0,42,78,0
0,74,110,0
0,47,88,4
0,74,100,0
0,71,100,0
0,35,102,0
0,42,78,0
0,38,117,0
0,52,88,4
0,42,78,0
0,57,91,4
0,42,78,0
0,76,110,0
0,74,110,0
0,48,91,4
0,76,107,0
0,72,107,0
0,36,102,0
0,42,78,0
0,72,110,0
0,52,96,4
0,42,78,0
0,57,97,4
0,42,78,0
0,45,97,4
0,69,115,0
0,69,98,0
0,81,98,0
0,33,105,0
0,42,78,0
0,38,120,0
0,48,97,4
0,72,103,0
0,84,103,0
0,36,108,0
0,42,78,0
0,52,97,4
0,64,115,0
0,76,110,0
0,88,110,0
0,40,109,0
0,42,77,0
0,50,97,4
0,77,119,0
0,89,119,0
0,38,110,0
0,42,74,0
0,36,121,0
0,60,95,4
0,57,95,4
0,57,99,0
0,42,74,0
0,60,95,4
0,42,78,0
