track,note,velocity,time
1,69,84,6480
1,72,86,0
1,76,83,0
1,84,86,0
1,88,83,0
1,88,0,16
1,76,0,0
1,69,0,2
1,72,0,0
1,84,0,0
1,69,64,22
1,72,79,0
1,76,69,0
1,81,64,0
1,84,79,0
1,88,69,0
1,88,0,17
1,72,0,0
1,76,0,0
1,84,0,0
1,69,0,1
1,81,0,0
1,69,66,22
1,72,79,0
1,76,67,0
1,81,66,0
1,84,79,0
1,88,67,0
1,88,0,17
1,72,0,1
1,76,0,0
1,69,0,0
1,84,0,0
1,81,0,0
1,69,72,22
1,72,83,0
1,76,69,0
1,81,72,0
1,84,83,0
1,88,69,0
1,88,0,16
1,72,0,0
1,69,0,0
1,76,0,0
1,84,0,0
1,81,0,1
1,69,61,23
1,72,82,0
1,76,69,0
1,81,61,0
1,84,82,0
1,88,69,0
1,76,0,17
1,69,0,0
1,72,0,0
1,81,0,1
1,84,0,0
1,88,0,0
1,69,80,22
1,72,87,0
1,76,77,0
1,81,80,0
1,84,87,0
1,88,77,0
1,88,0,16
1,72,0,1
1,76,0,0
1,84,0,0
1,69,0,1
1,81,0,0
1,67,82,22
1,71,87,0
1,76,85,0
1,79,82,0
1,83,87,0
1,88,85,0
1,79,0,17
1,67,0,0
1,83,0,1
1,71,0,0
1,88,0,0
1,76,0,0
1,67,72,22
1,71,82,0
1,76,69,0
1,79,72,0
1,83,82,0
1,88,69,0
1,88,0,16
1,67,0,1
1,76,0,0
1,79,0,0
1,71,0,1
1,83,0,0
1,67,77,22
1,71,84,0
1,76,82,0
1,79,77,0
1,83,84,0
1,88,82,0
1,88,0,18
1,71,0,0
1,76,0,0
1,79,0,0
1,83,0,0
1,67,0,1
1,67,79,21
1,71,87,0
1,76,83,0
1,79,79,0
1,83,87,0
1,88,83,0
1,88,0,18
1,79,0,0
1,71,0,0
1,67,0,0
1,83,0,0
1,76,0,1
1,67,75,21
1,71,83,0
1,76,75,0
1,79,75,0
1,83,83,0
1,88,75,0
1,88,0,18
1,67,0,0
1,76,0,0
1,79,0,0
1,83,0,0
1,71,0,1
1,67,75,21
1,71,82,0
1,76,72,0
1,79,75,0
1,83,82,0
1,88,72,0
1,88,0,18
1,71,0,0
1,76,0,0
1,67,0,0
1,83,0,0
1,79,0,0
1,69,84,22
1,72,89,0
1,76,87,0
1,81,84,0
1,84,89,0
1,88,87,0
1,88,0,17
1,72,0,0
1,84,0,0
1,69,0,1
1,81,0,0
1,76,0,0
1,69,72,22
1,72,82,0
1,76,73,0
1,81,72,0
1,84,82,0
1,88,73,0
1,88,0,17
1,76,0,0
1,81,0,1
1,69,0,0
1,72,0,0
1,84,0,0
1,69,77,22
1,72,84,0
1,76,78,0
1,81,77,0
1,84,84,0
1,88,78,0
1,88,0,18
1,72,0,0
1,76,0,0
1,81,0,0
1,84,0,0
1,69,0,1
1,69,73,21
1,72,83,0
1,76,76,0
1,81,73,0
1,84,83,0
1,88,76,0
1,88,0,18
1,72,0,0
1,76,0,0
1,69,0,0
1,84,0,0
1,81,0,0
1,69,74,22
1,72,86,0
1,76,75,0
1,81,74,0
1,84,86,0
1,88,75,0
1,84,0,17
1,72,0,1
1,76,0,0
1,69,0,0
1,88,0,0
1,81,0,0
1,69,81,22
1,72,89,0
1,76,82,0
1,81,81,0
1,84,89,0
1,88,82,0
1,88,0,17
1,76,0,0
1,81,0,1
1,69,0,0
1,72,0,0
1,84,0,0
1,72,79,22
1,76,77,0
1,81,89,0
1,84,79,0
1,88,77,0
1,93,89,0
1,88,0,16
1,84,0,1
1,76,0,0
1,72,0,0
1,93,0,1
1,81,0,0
1,72,79,22
1,76,83,0
1,81,86,0
1,84,79,0
1,88,83,0
1,93,86,0
1,93,0,18
1,84,0,0
1,81,0,0
1,88,0,0
1,72,0,1
1,76,0,0
1,72,76,21
1,76,82,0
1,81,79,0
1,84,76,0
1,88,82,0
1,93,79,0
1,84,0,17
1,76,0,1
1,81,0,0
1,72,0,0
1,93,0,0
1,88,0,0
1,72,78,22
1,76,84,0
1,81,83,0
1,84,78,0
1,88,84,0
1,93,83,0
1,84,0,17
1,72,0,0
1,88,0,1
1,76,0,0
1,93,0,0
1,81,0,0
1,72,74,22
1,76,83,0
1,81,73,0
1,84,74,0
1,88,83,0
1,93,73,0
1,93,0,16
1,72,0,0
1,84,0,0
1,81,0,1
1,88,0,1
1,76,0,0
1,72,87,22
1,76,87,0
1,81,89,0
1,84,87,0
1,88,87,0
1,93,89,0
1,93,0,18
1,76,0,0
1,81,0,0
1,72,0,0
1,88,0,0
1,84,0,0
1,69,84,4822
1,72,86,0
1,76,83,0
1,81,84,0
1,84,86,0
1,88,83,0
1,88,0,16
1,76,0,0
1,81,0,1
1,72,0,0
1,69,0,1
1,84,0,0
1,69,64,22
1,72,79,0
1,76,69,0
1,81,64,0
1,84,79,0
1,88,69,0
1,88,0,17
1,72,0,0
1,76,0,0
1,84,0,0
1,69,0,1
1,81,0,0
1,69,66,22
1,72,79,0
1,76,67,0
1,81,66,0
1,84,79,0
1,88,67,0
1,88,0,18
1,72,0,0
1,76,0,0
1,69,0,0
1,84,0,0
1,81,0,0
1,69,72,22
1,72,83,0
1,76,69,0
1,81,72,0
1,84,83,0
1,88,69,0
1,88,0,16
1,72,0,0
1,76,0,0
1,69,0,0
1,84,0,0
1,81,0,0
1,69,61,24
1,72,82,0
1,76,69,0
1,81,61,0
1,84,82,0
1,88,69,0
1,76,0,17
1,72,0,1
1,81,0,0
1,69,0,0
1,88,0,0
1,84,0,0
1,69,80,22
1,72,87,0
1,76,77,0
1,81,80,0
1,84,87,0
1,88,77,0
1,84,0,16
1,72,0,1
1,76,0,0
1,69,0,0
1,88,0,0
1,81,0,0
1,67,82,23
1,71,87,0
1,76,85,0
1,79,82,0
1,83,87,0
1,88,85,0
1,83,0,17
1,79,0,0
1,71,0,0
1,67,0,0
1,88,0,1
1,76,0,0
1,67,72,22
1,71,82,0
1,76,69,0
1,79,72,0
1,83,82,0
1,88,69,0
1,88,0,16
1,83,0,1
1,76,0,1
1,67,0,0
1,71,0,0
1,79,0,0
1,67,77,22
1,71,84,0
1,76,82,0
1,79,77,0
1,83,84,0
1,88,82,0
1,88,0,18
1,71,0,0
1,76,0,0
1,67,0,1
1,79,0,0
1,83,0,0
1,67,79,21
1,71,87,0
1,76,83,0
1,79,79,0
1,83,87,0
1,88,83,0
1,79,0,17
1,67,0,1
1,76,0,0
1,83,0,0
1,88,0,0
1,71,0,1
1,67,75,21
1,71,83,0
1,76,75,0
1,79,75,0
1,83,83,0
1,88,75,0
1,88,0,18
1,71,0,0
1,76,0,0
1,67,0,0
1,83,0,0
1,79,0,0
1,67,75,22
1,71,82,0
1,76,72,0
1,79,75,0
1,83,82,0
1,88,72,0
1,88,0,18
1,79,0,0
1,71,0,0
1,67,0,0
1,83,0,0
1,76,0,1
1,69,84,21
1,72,89,0
1,76,87,0
1,81,84,0
1,84,89,0
1,88,87,0
1,84,0,16
1,72,0,1
1,76,0,0
1,88,0,0
1,69,0,1
1,81,0,0
1,69,72,22
1,72,82,0
1,76,73,0
1,81,72,0
1,84,82,0
1,88,73,0
1,88,0,17
1,69,0,0
1,76,0,0
1,72,0,1
1,81,0,0
1,84,0,0
1,69,77,22
1,72,84,0
1,76,78,0
1,81,77,0
1,84,84,0
1,88,78,0
1,76,0,17
1,72,0,1
1,81,0,0
1,84,0,0
1,88,0,0
1,69,0,1
1,69,73,21
1,72,83,0
1,76,76,0
1,81,73,0
1,84,83,0
1,88,76,0
1,84,0,18
1,81,0,0
1,72,0,0
1,69,0,0
1,88,0,1
1,76,0,0
1,69,74,21
1,72,86,0
1,76,75,0
1,81,74,0
1,84,86,0
1,88,75,0
1,88,0,17
1,72,0,0
1,84,0,0
1,69,0,1
1,81,0,0
1,76,0,0
1,69,81,22
1,72,89,0
1,76,82,0
1,81,81,0
1,84,89,0
1,88,82,0
1,88,0,17
1,72,0,0
1,84,0,0
1,69,0,1
1,81,0,0
1,76,0,0
1,72,79,22
1,76,77,0
1,81,89,0
1,84,79,0
1,88,77,0
1,93,89,0
1,84,0,16
1,88,0,1
1,81,0,0
1,72,0,0
1,76,0,0
1,93,0,1
1,72,79,22
1,76,83,0
1,81,86,0
1,84,79,0
1,88,83,0
1,93,86,0
1,88,0,18
1,81,0,0
1,76,0,0
1,72,0,1
1,84,0,0
1,93,0,0
1,72,76,21
1,76,82,0
1,81,79,0
1,84,76,0
1,88,82,0
1,93,79,0
1,84,0,17
1,72,0,0
1,88,0,1
1,81,0,0
1,93,0,0
1,76,0,1
1,72,78,21
1,76,84,0
1,81,83,0
1,84,78,0
1,88,84,0
1,93,83,0
1,72,0,16
1,81,0,2
1,84,0,0
1,76,0,0
1,93,0,0
1,88,0,0
1,72,74,22
1,76,83,0
1,81,73,0
1,84,74,0
1,88,83,0
1,93,73,0
1,84,0,16
1,72,0,0
1,81,0,1
1,93,0,0
1,76,0,1
1,88,0,0
1,72,87,22
1,76,87,0
1,81,89,0
1,84,87,0
1,88,87,0
1,93,89,0
1,93,0,18
1,76,0,0
1,81,0,0
1,72,0,0
1,88,0,0
1,84,0,0
1,69,96,982
1,74,93,0
1,78,83,0
1,81,96,0
1,86,93,0
1,90,83,0
1,86,0,17
1,81,0,1
1,74,0,0
1,69,0,0
1,78,0,1
1,90,0,1
1,69,80,20
1,74,87,0
1,78,77,0
1,81,80,0
1,86,87,0
1,90,77,0
1,81,0,13
1,69,0,0
1,86,0,3
1,78,0,0
1,90,0,0
1,74,0,2
1,69,86,22
1,74,86,0
1,78,76,0
1,81,86,0
1,86,86,0
1,90,76,0
1,90,0,15
1,74,0,0
1,78,0,0
1,69,0,0
1,86,0,0
1,81,0,0
1,69,96,25
1,74,91,0
1,78,80,0
1,81,96,0
1,86,91,0
1,90,80,0
1,90,0,16
1,74,0,0
1,78,0,0
1,69,0,0
1,86,0,0
1,81,0,0
1,69,88,24
1,74,86,0
1,78,73,0
1,81,88,0
1,86,86,0
1,90,73,0
1,69,0,14
1,78,0,2
1,81,0,0
1,74,0,0
1,90,0,0
1,86,0,0
1,69,84,24
1,74,87,0
1,78,75,0
1,81,84,0
1,86,87,0
1,90,75,0
1,78,0,17
1,69,0,1
1,81,0,0
1,90,0,0
1,74,0,1
1,86,0,1
1,71,82,20
1,74,84,0
1,78,78,0
1,83,82,0
1,86,84,0
1,90,78,0
1,83,0,18
1,86,0,2
1,74,0,0
1,71,0,0
1,90,0,1
1,78,0,0
1,71,80,19
1,74,83,0
1,78,76,0
1,83,80,0
1,86,83,0
1,90,76,0
1,86,0,15
1,74,0,1
1,83,0,3
1,71,0,0
1,90,0,0
1,78,0,0
1,71,78,21
1,74,84,0
1,78,73,0
1,83,78,0
1,86,84,0
1,90,73,0
1,78,0,17
1,90,0,1
1,83,0,2
1,71,0,0
1,74,0,0
1,86,0,0
1,71,86,20
1,74,90,0
1,78,84,0
1,83,86,0
1,86,90,0
1,90,84,0
1,90,0,20
1,78,0,0
1,86,0,1
1,74,0,0
1,71,0,2
1,83,0,0
1,71,87,17
1,74,89,0
1,78,80,0
1,83,87,0
1,86,89,0
1,90,80,0
1,86,0,12
1,74,0,0
1,78,0,3
1,90,0,0
1,71,0,3
1,83,0,1
1,71,84,21
1,74,89,0
1,78,78,0
1,83,84,0
1,86,89,0
1,90,78,0
1,83,0,24
1,71,0,0
1,86,0,1
1,74,0,0
1,90,0,1
1,78,0,0
1,67,83,14
1,72,97,0
1,76,92,0
1,79,83,0
1,84,97,0
1,88,92,0
1,88,0,21
1,76,0,0
1,79,0,1
1,67,0,0
1,72,0,1
1,84,0,1
1,67,75,16
1,72,87,0
1,76,75,0
1,79,75,0
1,84,87,0
1,88,75,0
1,88,0,12
1,76,0,1
1,79,0,1
1,67,0,0
1,72,0,1
1,84,0,0
1,67,83,25
1,72,89,0
1,76,74,0
1,79,83,0
1,84,89,0
1,88,74,0
1,88,0,21
1,79,0,0
1,72,0,0
1,67,0,0
1,84,0,0
1,76,0,1
1,67,87,18
1,71,87,0
1,74,87,0
1,79,87,0
1,83,87,0
1,86,87,0
1,86,0,18
1,74,0,0
1,79,0,3
1,67,0,0
1,71,0,2
1,83,0,0
1,67,83,17
1,71,84,0
1,74,86,0
1,79,83,0
1,83,84,0
1,86,86,0
1,83,0,19
1,71,0,0
1,74,0,2
1,86,0,0
1,67,0,2
1,79,0,0
1,67,86,17
1,71,87,0
1,74,90,0
1,79,86,0
1,83,87,0
1,86,90,0
1,83,0,19
1,71,0,0
1,74,0,3
1,86,0,0
1,67,0,1
1,79,0,0
1,67,90,17
1,72,90,0
1,76,92,0
1,79,90,0
1,84,90,0
1,88,92,0
1,88,0,18
1,76,0,1
1,79,0,1
1,67,0,0
1,72,0,1
1,84,0,0
1,67,86,19
1,72,90,0
1,76,84,0
1,79,86,0
1,84,90,0
1,88,84,0
1,88,0,15
1,76,0,0
1,84,0,1
1,72,0,0
1,67,0,4
1,79,0,0
1,67,82,20
1,72,86,0
1,76,78,0
1,79,82,0
1,84,86,0
1,88,78,0
1,88,0,14
1,76,0,1
1,79,0,3
1,84,0,0
1,72,0,0
1,67,0,1
1,67,91,21
1,72,96,0
1,76,89,0
1,79,91,0
1,84,96,0
1,88,89,0
1,67,0,14
1,79,0,1
1,88,0,0
1,76,0,1
1,84,0,2
1,72,0,1
1,67,82,21
1,72,87,0
1,76,79,0
1,79,82,0
1,84,87,0
1,88,79,0
1,79,0,13
1,72,0,0
1,67,0,0
1,76,0,1
1,88,0,1
1,84,0,0
1,67,86,25
1,72,90,0
1,76,84,0
1,79,86,0
1,84,90,0
1,88,84,0
1,72,0,13
1,84,0,2
1,79,0,0
1,67,0,0
1,88,0,2
1,76,0,1
1,69,96,22
1,74,95,0
1,78,97,0
1,81,96,0
1,86,95,0
1,90,97,0
1,74,0,16
1,86,0,1
1,78,0,3
1,90,0,0
1,69,0,1
1,81,0,0
1,69,84,19
1,74,84,0
1,78,73,0
1,81,84,0
1,86,84,0
1,90,73,0
1,90,0,16
1,74,0,0
1,78,0,0
1,86,0,1
1,81,0,1
1,69,0,0
1,69,78,22
1,74,83,0
1,78,72,0
1,81,78,0
1,86,83,0
1,90,72,0
1,86,0,15
1,74,0,0
1,78,0,1
1,90,0,0
1,69,0,1
1,81,0,0
1,69,93,23
1,74,90,0
1,78,78,0
1,81,93,0
1,86,90,0
1,90,78,0
1,86,0,15
1,74,0,0
1,81,0,3
1,69,0,0
1,90,0,0
1,78,0,0
1,69,83,22
1,74,86,0
1,78,74,0
1,81,83,0
1,86,86,0
1,90,74,0
1,90,0,15
1,78,0,0
1,81,0,1
1,69,0,0
1,74,0,0
1,86,0,0
1,69,82,24
1,74,83,0
1,78,73,0
1,81,82,0
1,86,83,0
1,90,73,0
1,86,0,20
1,74,0,0
1,69,0,2
1,81,0,1
1,90,0,0
1,78,0,0
1,71,83,17
1,74,86,0
1,78,84,0
1,83,83,0
1,86,86,0
1,90,84,0
1,86,0,15
1,74,0,0
1,78,0,1
1,90,0,0
1,71,0,3
1,83,0,0
1,71,79,21
1,74,83,0
1,78,72,0
1,83,79,0
1,86,83,0
1,90,72,0
1,86,0,13
1,74,0,0
1,83,0,3
1,71,0,0
1,90,0,0
1,78,0,0
1,71,75,24
1,74,82,0
1,78,77,0
1,83,75,0
1,86,82,0
1,90,77,0
1,86,0,18
1,74,0,1
1,83,0,1
1,71,0,0
1,90,0,0
1,78,0,0
1,71,89,20
1,74,90,0
1,78,87,0
1,83,89,0
1,86,90,0
1,90,87,0
1,86,0,16
1,74,0,0
1,71,0,4
1,83,0,1
1,78,0,0
1,90,0,1
1,71,84,18
1,74,89,0
1,78,78,0
1,83,84,0
1,86,89,0
1,90,78,0
1,86,0,15
1,74,0,0
1,83,0,3
1,71,0,0
1,90,0,0
1,78,0,0
1,71,83,22
1,74,89,0
1,78,77,0
1,83,83,0
1,86,89,0
1,90,77,0
