track,note,velocity,time
1,57,91,260
1,65,91,0
1,62,91,0
1,50,91,0
1,60,91,8
1,64,91,0
1,55,91,0
1,48,91,0
1,53,91,276
1,58,91,0
1,62,91,0
1,46,91,0
1,55,91,28
1,43,91,0
1,46,90,180
1,58,90,84
1,53,90,96
1,60,90,56
1,64,90,0
1,55,90,0
1,48,90,0
1,62,90,76
1,57,90,0
1,65,90,0
1,50,90,0
1,53,95,96
1,45,95,0
1,46,91,48
1,45,87,28
1,46,82,8
1,60,95,96
1,41,107,0
1,57,99,0
1,53,102,0
1,55,101,8
1,48,110,0
1,64,108,0
1,60,101,0
1,62,105,28
1,46,104,0
1,57,108,0
1,58,107,0
1,65,110,0
1,46,104,8
1,65,99,0
1,62,102,0
1,58,107,0
1,62,105,336
1,65,105,0
1,46,101,0
1,58,101,0
1,48,101,64
1,64,107,0
1,60,102,0
1,67,107,0
1,50,105,128
1,62,111,0
1,65,105,0
1,69,105,0
1,60,104,32
1,64,104,0
1,67,104,0
1,48,104,0
1,65,102,72
1,57,111,0
1,62,105,0
1,58,107,0
1,46,104,0
1,46,98,180
1,58,104,0
1,64,105,0
1,60,108,0
1,46,99,100
1,58,110,0
1,62,107,0
1,65,105,0
1,58,101,28
1,65,102,184
1,53,80,0
1,57,105,0
1,62,107,0
1,50,93,168
1,45,107,32
1,64,102,0
1,60,104,0
1,57,77,40
1,62,102,0
1,65,98,0
1,50,107,0
1,45,99,300
1,57,102,0
1,60,104,0
1,64,101,0
1,62,78,188
1,65,89,0
1,57,80,0
1,50,87,0
1,64,92,36
1,57,77,0
1,45,98,0
1,60,83,0
1,50,89,128
1,65,99,0
1,57,86,0
1,62,90,0
1,45,96,44
1,60,68,0
1,64,84,0
1,57,78,0
1,50,90,136
1,65,101,0
1,62,99,0
1,57,87,0
1,45,102,104
1,64,99,0
1,60,95,0
1,57,93,0
1,62,96,116
1,65,89,0
1,57,98,0
1,50,99,0
1,45,98,84
1,57,92,0
1,60,89,0
1,64,96,0
1,46,104,124
1,62,104,0
1,58,107,0
1,53,104,0
1,46,98,112
1,58,102,0
1,53,102,0
1,62,104,0
1,48,98,0
1,64,96,0
1,60,101,0
1,65,98,60
1,67,96,0
1,50,104,0
1,62,101,0
1,57,102,0
1,60,104,16
1,45,110,0
1,57,101,0
1,64,99,0
1,57,99,4
1,62,108,0
1,50,107,0
1,65,99,0
1,45,102,8
1,60,105,0
1,64,104,0
1,57,99,0
1,50,104,8
1,62,104,0
1,65,101,0
1,57,89,0
1,45,104,24
1,64,107,0
1,57,99,0
1,60,104,0
1,50,98,12
1,65,105,0
1,62,108,0
1,57,108,0
1,45,101,124
1,64,104,0
1,57,101,0
1,60,104,0
1,46,93,48
1,53,89,0
1,60,95,340
1,41,107,0
1,57,99,0
1,53,102,0
1,55,101,8
1,48,110,0
1,64,108,0
1,60,101,0
1,62,105,28
1,46,104,0
1,57,108,0
1,58,107,0
1,65,110,0
1,46,104,8
1,65,99,0
1,62,102,0
1,58,107,0
1,62,105,336
1,65,105,0
1,46,101,0
1,58,101,0
1,48,101,64
1,64,107,0
1,60,102,0
1,67,107,0
1,50,105,128
1,62,111,0
1,65,105,0
1,69,105,0
1,60,104,32
1,64,104,0
1,67,104,0
1,48,104,0
1,58,107,72
1,46,102,0
1,57,107,0
1,65,104,0
1,62,107,0
1,58,95,252
1,46,102,0
1,65,105,0
1,62,108,0
1,58,108,48
1,46,99,0
1,62,113,0
1,34,104,0
1,65,111,0
1,36,98,40
1,48,101,0
1,67,107,0
1,60,105,0
1,64,105,0
1,62,105,48
1,57,105,0
1,50,105,0
1,69,105,0
1,64,108,384
1,60,107,0
1,55,107,0
1,48,107,0
1,43,95,24
1,65,105,0
1,55,105,0
1,62,105,0
1,58,105,0
1,65,99,336
1,62,107,0
1,58,104,0
1,46,110,0
1,46,99,16
1,62,110,0
1,58,101,0
1,65,102,0
1,60,99,4
1,64,101,0
1,67,99,0
1,48,99,0
1,50,98,172
1,69,108,0
1,65,107,0
1,62,107,0
1,48,102,148
1,64,102,0
1,60,104,0
1,67,111,0
1,43,95,16
1,65,105,0
1,55,105,0
1,62,105,0
1,58,105,0
1,65,99,336
1,62,107,0
1,58,104,0
1,46,110,0
1,46,99,16
1,62,110,0
1,58,101,0
1,65,102,0
1,60,99,4
1,64,101,0
1,67,99,0
1,48,99,0
1,50,98,172
1,69,108,0
1,65,107,0
1,62,107,0
1,48,102,148
1,64,102,0
1,60,104,0
1,67,111,0
1,55,102,16
1,58,99,0
1,43,107,0
1,62,105,0
1,65,101,0
1,45,99,84
1,57,107,0
1,62,102,32
1,46,102,0
1,58,104,0
1,65,110,0
1,69,92,960
1,69,79,48
1,76,79,0
1,72,79,0
1,65,86,56
1,69,83,0
1,71,90,8
1,67,90,0
1,74,90,0
1,76,81,44
1,64,78,0
1,69,75,32
1,76,71,0
1,72,89,0
1,65,95,1536
1,67,86,32
1,74,90,0
1,71,89,0
1,64,84,2016
1,76,78,80
1,72,87,0
1,67,89,0
1,74,86,96
1,67,96,0
1,71,80,0
1,65,87,184
1,69,90,0
1,72,89,0
1,62,87,1536
1,71,75,36
1,64,78,0
1,68,93,0
1,74,95,0
1,76,75,164
1,76,92,36
1,69,98,0
1,72,90,0
1,65,96,2016
1,67,93,48
1,74,98,0
1,71,98,0
1,64,96,1536
1,76,102,12
1,72,95,0
1,69,101,0
1,65,93,56
1,76,93,0
1,69,98,0
1,72,92,0
1,67,95,40
1,74,98,0
1,71,101,0
1,64,81,24
1,74,86,0
1,67,92,0
1,71,93,0
1,76,92,40
1,67,92,0
1,72,89,0
1,67,81,24
1,71,96,0
1,74,95,0
1,72,89,48
1,77,75,0
1,69,90,0
1,74,90,40
1,71,95,0
1,67,95,0
1,57,101,16
1,69,90,0
1,76,92,0
1,72,93,0
1,57,87,44
1,72,99,0
1,81,99,0
1,76,105,0
1,69,98,0
1,38,102,96
1,65,101,0
1,57,101,0
1,50,98,0
1,62,105,96
1,64,86,0
1,46,101,572
1,65,104,0
1,57,101,0
1,62,105,0
1,58,93,168
1,55,96,0
1,43,92,0
1,67,93,760
1,50,101,36
1,57,98,0
1,65,95,0
1,48,71,2400
1,46,99,120
1,57,96,0
1,50,99,48
1,57,99,0
1,60,102,16
1,41,93,0
1,57,107,0
1,53,105,0
1,65,105,0
1,48,95,216
1,55,102,0
1,60,102,0
1,64,99,0
1,58,90,24
1,65,95,0
1,62,93,0
1,43,93,0
1,55,102,0
1,53,93,0
1,63,89,0
1,46,99,684
1,43,101,744
1,50,96,60
1,57,98,0
1,38,95,476
1,55,75,0
1,64,93,0
1,60,60,0
1,48,77,0
1,62,99,128
1,46,95,0
1,58,99,0
1,65,108,0
1,69,93,0
1,60,104,8
1,64,98,0
1,67,96,0
1,65,81,20
1,62,105,0
1,69,107,0
1,38,96,96
1,65,108,0
1,50,104,0
1,62,107,0
1,57,104,0
1,55,96,28
1,60,108,0
1,64,102,0
1,48,93,0
1,36,98,0
1,55,107,496
1,43,107,0
1,65,98,0
1,58,95,0
1,62,104,0
1,46,92,48
1,58,102,0
1,65,107,0
1,62,107,0
1,53,104,0
1,46,89,32
1,53,101,0
1,62,104,0
1,65,102,0
1,58,93,0
1,60,90,12
1,67,101,0
1,64,102,0
1,55,102,0
1,48,102,0
1,69,102,216
1,50,107,0
1,38,108,0
1,65,104,0
1,62,98,0
1,48,90,24
1,64,102,0
1,67,101,0
1,60,102,0
1,58,98,20
1,55,107,0
1,43,95,0
1,65,108,0
1,62,108,0
1,46,92,32
1,65,108,0
1,53,93,0
1,62,105,0
1,58,98,0
1,46,90,32
1,53,102,0
1,62,107,0
1,65,102,0
1,58,98,0
1,60,96,24
1,53,90,0
1,55,93,0
1,64,102,0
1,67,104,0
1,48,102,0
1,53,95,24
1,65,110,0
1,41,95,0
1,60,107,0
1,69,107,0
1,60,98,40
1,67,98,0
1,48,89,0
1,36,104,0
1,64,108,0
1,55,107,40
1,43,107,0
1,65,98,0
1,58,95,0
1,62,104,0
1,46,92,48
1,58,102,0
1,65,107,0
1,62,107,0
1,53,104,0
1,46,89,32
1,53,101,0
1,62,104,0
1,65,102,0
1,58,93,0
1,60,90,12
1,67,101,0
1,64,102,0
1,55,102,0
1,48,102,0
1,69,102,216
1,50,107,0
1,38,108,0
1,65,104,0
1,62,98,0
1,48,90,24
1,64,102,0
1,67,101,0
1,60,102,0
1,58,98,20
1,55,107,0
1,43,95,0
1,65,108,0
1,62,108,0
1,46,92,32
1,65,108,0
1,53,93,0
1,62,105,0
1,58,98,0
1,46,90,32
1,53,102,0
1,62,107,0
1,65,102,0
1,58,98,0
1,60,96,24
1,53,90,0
1,55,93,0
1,64,102,0
1,67,104,0
1,48,102,0
1,53,95,24
1,65,110,0
1,41,95,0
1,60,107,0
1,69,107,0
1,60,98,44
1,67,98,0
1,48,89,0
1,36,104,0
1,64,108,0
1,55,107,40
1,43,107,0
1,65,98,0
1,58,95,0
1,62,104,0
1,46,92,48
1,58,102,0
1,65,107,0
1,62,107,0
1,53,104,0
1,46,89,32
1,53,101,0
1,62,104,0
1,65,102,0
1,58,93,0
1,60,90,12
1,67,101,0
1,64,102,0
1,55,102,0
1,48,102,0
1,69,102,216
1,50,107,0
1,38,108,0
1,65,104,0
1,62,98,0
1,48,90,24
1,64,102,0
1,67,101,0
1,60,102,0
1,58,98,20
1,55,107,0
1,43,95,0
1,65,108,0
1,62,108,0
1,46,92,28
1,65,108,0
1,53,93,0
1,62,105,0
1,58,98,0
1,46,90,32
1,53,102,0
1,62,107,0
1,65,102,0
1,58,98,0
1,60,96,24
1,55,93,0
1,64,102,0
1,67,104,0
1,48,102,0
1,50,95,24
1,65,110,0
1,62,107,0
1,69,107,0
1,60,98,40
1,67,98,0
1,48,89,0
1,36,104,0
1,64,108,0
1,62,102,40
1,58,98,0
1,65,107,0
1,64,104,272
1,48,107,0
1,67,98,0
1,62,93,0
1,69,105,120
1,49,104,0
1,58,102,0
1,65,110,0
1,62,108,0
1,74,104,1680
1,38,98,1536
1,62,107,0
1,57,102,0
1,65,107,0
1,50,99,0
1,74,52,1672
2,74,100,864
2,77,106,0
2,69,109,0
2,72,100,4
2,76,103,0
2,67,82,0
2,70,85,4
2,77,103,0
2,74,100,0
2,67,58,4
2,74,70,4
2,70,94,0
2,77,100,0
2,72,100,36
2,76,100,0
2,79,97,0
2,77,91,28
2,74,97,0
2,69,106,0
2,72,103,4
2,76,100,0
2,67,100,0
2,70,100,4
2,77,88,0
2,74,85,0
2,67,82,4
2,77,79,4
2,70,106,0
2,74,106,0
2,72,85,4
2,67,88,0
2,76,97,0
2,74,70,4
2,69,94,4
2,74,85,0
2,77,100,0
2,72,94,4
2,76,109,0
2,67,100,0
2,74,22,1248
2,74,97,4
2,77,82,0
2,70,97,0
2,67,79,4
2,74,43,4
2,67,97,0
2,77,100,0
2,70,103,0
2,77,91,4
2,70,94,0
2,74,106,0
2,69,101,960
2,45,119,960
2,47,119,100
2,48,119,0
2,47,119,112
2,45,119,0
2,50,119,320
2,48,119,20
2,47,119,320
2,45,119,100
2,43,119,112
2,40,119,436
2,43,119,12
2,45,119,120
2,45,119,384
2,47,119,8
2,48,119,16
2,50,119,280
2,43,119,432
2,52,119,212
2,52,119,676
2,53,119,88
2,52,119,4
2,52,119,56
2,50,119,12
2,48,119,1216
2,50,119,168
2,48,119,620
2,47,119,88
2,45,119,20
2,74,100,960
2,77,106,0
2,69,109,0
2,72,100,4
2,76,103,0
2,67,82,0
2,70,85,4
2,77,103,0
2,74,100,0
2,67,58,0
2,74,70,4
2,70,94,0
2,77,100,4
2,72,100,32
2,76,100,0
2,79,97,0
2,77,91,28
2,74,97,0
2,69,106,0
2,72,103,4
2,76,100,0
2,67,100,0
2,70,100,4
2,77,88,0
2,74,85,0
2,67,82,0
2,77,79,4
2,70,106,0
2,74,106,0
2,72,85,4
2,67,88,0
2,76,97,0
2,74,70,0
2,81,85,4
2,77,93,0
2,72,93,0
2,79,85,4
2,76,89,0
2,72,85,0
2,77,80,4
2,74,89,0
2,70,72,0
2,70,72,4
2,74,76,0
2,77,89,0
2,79,89,4
2,76,89,0
2,72,93,0
2,74,93,4
2,81,89,0
2,77,102,0
2,72,89,4
2,79,89,0
2,76,93,0
2,77,85,4
2,74,89,0
2,70,89,0
2,70,89,4
2,74,85,0
2,77,89,0
2,76,89,4
2,72,93,0
2,79,89,0
2,72,85,4
2,81,93,0
2,77,85,0
2,72,89,4
2,76,98,0
2,79,85,0
2,77,89,188
2,74,93,0
2,70,80,0
2,77,85,4
2,74,89,0
2,70,76,0
2,74,76,4
2,70,72,0
2,77,85,0
2,76,72,0
2,72,85,0
2,79,80,0
2,74,85,4
2,81,93,0
2,77,98,0
2,76,93,4
2,72,93,0
2,79,85,4
2,74,89,4
2,70,72,0
2,77,80,0
2,74,89,4
2,77,85,0
2,70,72,0
2,79,72,44
2,72,80,0
2,76,72,0
2,74,89,4
2,81,60,0
2,77,76,0
2,72,89,4
2,76,89,0
2,79,85,0
2,70,85,4
2,77,85,0
2,74,89,0
2,70,80,4
2,74,102,0
2,77,93,0
2,81,102,960
2,65,89,12
2,57,80,0
3,79,99,1176
3,79,99,16
3,77,100,92
3,74,100,8
3,74,99,768
3,72,93,8
3,74,69,316
3,69,78,4
3,67,93,4
3,65,73,0
3,62,93,12
3,60,78,8
3,60,87,56
3,62,73,200
3,55,87,16
3,53,87,288
3,50,99,24
3,45,93,24
3,50,93,4
3,52,78,204
3,53,69,12
3,55,87,184
3,57,87,12
3,55,93,64
3,53,87,12
3,52,78,12
3,53,87,0
3,52,78,8
3,53,69,88
3,55,82,104
3,53,73,16
3,55,73,88
3,57,82,96
3,62,56,152
3,64,87,176
3,65,87,188
3,64,65,20
3,65,82,16
3,64,52,8
3,62,69,8
3,64,82,216
3,65,82,172
3,69,93,12
3,65,99,52
3,72,87,56
3,69,69,112
3,70,82,20
3,69,82,40
3,67,93,8
3,65,87,16
3,64,73,4
3,62,82,4
3,60,69,168
3,62,87,12
3,76,87,200
3,74,56,36
3,76,73,24
3,74,69,4
3,72,65,4
3,74,87,220
3,76,73,184
3,77,78,172
3,74,73,20
3,76,82,100
3,77,73,64
3,77,87,20
3,74,69,4
3,76,73,92
3,77,52,80
3,81,82,64
3,79,78,48
3,77,93,96
3,76,78,28
3,77,87,52
3,76,32,76
3,77,65,24
3,76,73,16
3,74,73,12
3,76,82,204
3,77,69,8
3,79,99,168
3,81,82,196
3,84,82,164
3,86,99,180
3,74,93,12
3,86,78,168
3,84,107,4
3,82,87,8
3,81,65,4
3,82,56,20
3,81,69,36
3,79,82,8
3,74,99,212
3,79,87,4
3,81,93,92
3,82,93,24
3,81,60,52
3,82,69,4
3,81,82,56
3,79,82,0
3,77,82,188
3,81,78,56
3,79,40,20
3,81,73,20
3,79,73,0
3,77,69,8
3,76,69,0
3,79,69,48
3,77,60,28
3,79,78,16
3,77,73,4
3,76,82,76
3,74,93,8
3,77,78,60
3,74,82,28
3,76,99,28
3,77,99,40
3,77,93,60
3,74,93,44
3,76,78,16
3,77,99,12
3,81,78,40
3,79,82,4
3,77,107,104
3,76,82,32
3,74,99,48
3,72,107,8
3,74,93,36
3,72,82,28
3,72,93,72
3,74,73,192
3,67,87,16
3,65,87,296
3,62,87,24
4,57,89,84
4,62,95,192
4,57,71,92
4,64,86,4
4,57,65,4
4,62,95,8
4,57,69,8
4,57,92,4
4,62,104,8
4,57,86,4
4,64,101,4
4,57,86,8
4,62,104,8
4,57,89,4
4,57,92,8
4,62,101,8
4,57,71,4
4,64,83,4
4,57,71,8
4,65,81,4
4,57,77,8
4,69,104,8
4,57,80,8
4,67,92,4
4,57,83,4
4,65,86,8
4,57,74,4
4,64,92,4
4,57,62,8
4,65,101,8
4,62,89,188
4,57,89,4
4,64,95,8
4,60,98,4
4,55,92,4
4,65,104,4
4,62,95,4
4,57,71,8
4,64,104,8
4,60,89,4
