track,note,velocity,time
1,68,127,15568
1,66,127,16
1,64,127,0
1,68,127,8
1,64,127,464
1,66,127,84
1,64,127,20
1,66,127,104
1,68,127,8
1,64,127,76
1,61,127,16
1,61,127,60
1,68,127,2108
1,66,127,8
1,64,127,8
1,68,127,100
1,64,127,716
1,66,127,44
1,64,127,8
1,66,127,80
1,68,127,4
1,64,127,28
1,61,127,24
1,61,127,176
1,64,127,1448
1,66,127,8
1,68,127,116
1,66,127,16
1,64,127,16
1,66,127,48
1,64,127,16
1,64,127,92
1,66,127,88
1,66,127,64
1,68,127,20
1,66,127,36
1,64,127,4
1,64,127,248
1,66,127,24
1,68,127,24
1,66,127,80
1,64,127,24
1,66,127,96
1,68,127,12
1,66,127,200
1,64,127,24
1,61,127,44
1,64,127,180
1,61,127,256
1,64,127,84
1,66,127,8
1,68,127,180
1,66,127,92
1,64,127,60
1,66,127,84
1,68,127,80
1,64,127,60
1,66,127,116
1,66,127,136
1,64,127,20
1,64,127,144
1,61,127,16
1,68,127,3352
1,66,127,16
1,64,127,0
1,68,127,8
1,64,127,464
1,66,127,84
1,64,127,20
1,66,127,104
1,68,127,8
1,64,127,76
1,61,127,16
1,61,127,60
1,68,127,2108
1,66,127,8
1,64,127,8
1,68,127,100
1,64,127,716
1,66,127,44
1,64,127,8
1,66,127,80
1,68,127,4
1,64,127,28
1,61,127,24
1,61,127,176
1,64,127,1448
1,66,127,8
1,68,127,116
1,66,127,16
1,64,127,16
1,66,127,48
1,64,127,16
1,64,127,92
1,66,127,88
1,66,127,64
1,68,127,20
1,66,127,36
1,64,127,4
1,64,127,248
1,66,127,24
1,68,127,24
1,66,127,80
1,64,127,24
1,66,127,96
1,68,127,12
1,66,127,200
1,64,127,24
1,61,127,44
1,64,127,180
1,61,127,256
1,64,127,84
1,66,127,8
1,68,127,180
1,66,127,92
1,64,127,60
1,66,127,84
1,68,127,80
1,64,127,60
1,66,127,116
1,66,127,136
1,64,127,20
1,64,127,144
1,61,127,16
1,67,127,3348
1,66,127,88
1,64,127,16
1,66,127,28
1,64,127,28
1,61,127,28
1,64,127,16
1,66,127,16
1,67,127,12
1,61,127,1084
1,61,127,104
1,64,127,16
1,61,127,208
1,59,127,68
1,59,127,124
1,61,127,68
1,67,127,736
1,66,127,20
1,64,127,4
1,66,127,0
1,64,127,4
1,61,127,136
1,64,127,76
1,66,127,24
1,64,127,148
1,66,127,104
1,66,127,104
1,66,127,136
1,66,127,140
1,66,127,124
1,66,127,64
1,64,127,28
1,64,127,92
1,64,127,116
1,64,127,48
1,64,127,80
1,68,127,24744
1,66,127,16
1,64,127,0
1,68,127,8
1,64,127,464
1,66,127,84
1,64,127,20
1,66,127,104
1,68,127,8
1,64,127,76
1,61,127,16
1,61,127,60
1,68,127,2108
1,66,127,8
1,64,127,8
1,68,127,100
1,64,127,716
1,66,127,44
1,64,127,8
1,66,127,80
1,68,127,4
1,64,127,28
1,61,127,24
1,61,127,176
1,64,127,1448
1,66,127,8
1,68,127,116
1,66,127,16
1,64,127,16
1,66,127,48
1,64,127,16
1,64,127,92
1,66,127,88
1,66,127,64
1,68,127,20
1,66,127,36
1,64,127,4
1,64,127,248
1,66,127,24
1,68,127,20
1,66,127,80
1,64,127,24
1,66,127,96
1,68,127,12
1,66,127,200
1,64,127,24
1,61,127,44
1,64,127,180
1,61,127,256
1,64,127,84
1,66,127,8
1,68,127,180
1,66,127,92
1,64,127,60
1,66,127,84
1,68,127,80
1,64,127,60
1,66,127,116
1,66,127,136
1,64,127,20
1,64,127,144
1,61,127,16
1,68,127,3152
1,66,127,92
1,64,127,60
1,66,127,84
1,68,127,80
1,64,127,60
1,66,127,116
1,66,127,136
1,64,127,20
1,64,127,144
1,61,127,16
1,68,127,3152
1,66,127,16
1,64,127,8
1,66,127,176
1,68,127,8
1,64,127,16
1,66,127,40
1,66,127,116
1,64,127,8
1,68,127,112
1,71,127,8
1,73,127,124
2,37,127,1540
2,35,127,784
2,32,127,192
2,33,127,24
2,33,127,48
2,33,127,116
2,33,127,68
2,33,127,64
2,33,127,64
2,33,127,44
2,33,127,44
2,33,127,88
2,33,127,64
2,33,127,28
2,33,127,108
2,33,127,32
2,33,127,76
2,33,127,36
2,33,127,92
2,37,127,44
2,37,127,116
2,37,127,28
2,37,127,88
2,37,127,52
2,37,127,88
2,37,127,44
2,37,127,88
2,37,127,48
2,37,127,84
2,37,127,44
2,37,127,88
2,37,127,44
2,37,127,88
2,37,127,40
2,37,127,92
2,33,127,32
2,33,127,100
2,33,127,68
2,33,127,100
2,33,127,48
2,33,127,92
2,33,127,48
2,33,127,108
2,32,127,24
2,32,127,96
2,32,127,56
2,32,127,100
2,32,127,68
2,32,127,112
2,32,127,64
2,32,127,112
2,37,127,8
2,37,127,128
2,44,127,164
2,47,127,12
2,44,127,196
2,47,127,0
2,44,127,192
2,37,127,120
2,32,127,128
2,37,127,328
2,44,127,112
2,44,127,56
2,47,127,24
2,44,127,192
2,47,127,4
2,49,127,4
2,30,127,16
2,37,127,16
2,40,127,8
2,37,127,192
2,40,127,188
2,42,127,192
2,37,127,16
2,44,127,20
2,47,127,24
2,44,127,4
2,47,127,36
2,49,127,0
2,37,127,0
2,44,127,0
2,44,127,44
2,47,127,28
2,44,127,8
2,47,127,28
2,49,127,192
2,37,127,36
2,44,127,576
2,47,127,12
2,44,127,192
2,47,127,28
2,49,127,4
2,30,127,40
2,37,127,4
2,37,127,52
2,40,127,4
2,37,127,0
2,40,127,40
2,42,127,192
2,37,127,24
2,44,127,572
2,47,127,12
2,44,127,192
2,47,127,20
2,49,127,192
2,37,127,12
2,44,127,572
2,44,127,44
2,47,127,20
2,44,127,192
2,47,127,24
2,49,127,196
2,40,127,60
2,40,127,32
2,40,127,60
2,40,127,36
2,40,127,44
2,40,127,48
2,40,127,60
2,40,127,44
2,42,127,44
2,42,127,40
2,42,127,48
2,42,127,36
2,42,127,68
2,42,127,48
2,42,127,64
2,42,127,48
2,44,127,44
2,44,127,48
2,44,127,68
2,44,127,52
2,44,127,60
2,44,127,56
2,44,127,60
2,44,127,44
2,42,127,72
2,42,127,48
2,42,127,68
2,42,127,44
2,42,127,80
2,42,127,56
2,42,127,108
2,40,127,24
2,40,127,60
2,40,127,184
2,37,127,80
2,35,127,12
2,28,127,92
2,30,127,196
2,30,127,156
2,33,127,32
2,37,127,300
2,44,127,168
2,44,127,44
2,47,127,96
2,44,127,172
2,47,127,20
2,49,127,12
2,37,127,192
2,32,127,268
2,37,127,256
2,44,127,112
2,44,127,56
2,47,127,28
2,44,127,188
2,47,127,4
2,49,127,4
2,30,127,12
2,37,127,16
2,40,127,8
2,37,127,192
2,40,127,188
2,42,127,188
2,37,127,16
2,44,127,20
2,47,127,24
2,44,127,4
2,47,127,36
2,49,127,0
2,37,127,0
2,44,127,0
2,44,127,44
2,47,127,28
2,44,127,8
2,47,127,28
2,49,127,192
2,37,127,40
2,44,127,572
2,47,127,12
2,44,127,192
2,47,127,28
2,49,127,4
2,30,127,40
2,37,127,4
2,37,127,52
2,40,127,4
2,37,127,4
2,40,127,40
2,42,127,192
2,37,127,20
2,44,127,576
2,47,127,12
2,44,127,192
2,47,127,16
2,49,127,192
2,37,127,12
2,44,127,572
2,44,127,44
2,47,127,20
2,44,127,192
2,47,127,24
2,49,127,196
2,40,127,60
2,40,127,32
2,40,127,60
2,40,127,36
2,40,127,40
2,40,127,44
2,40,127,56
2,40,127,44
2,42,127,44
2,42,127,40
2,42,127,48
2,42,127,36
2,42,127,68
2,42,127,48
2,42,127,64
2,42,127,48
2,44,127,44
2,44,127,48
2,44,127,64
2,44,127,52
2,44,127,64
2,44,127,56
2,44,127,60
2,44,127,44
2,42,127,72
2,42,127,48
2,42,127,68
2,42,127,44
2,42,127,80
2,42,127,52
2,42,127,108
2,40,127,24
2,40,127,60
2,40,127,184
2,37,127,80
2,35,127,12
2,28,127,92
2,30,127,196
2,30,127,156
2,33,127,28
2,37,127,300
2,44,127,32
2,44,127,52
2,47,127,4
2,44,127,12
2,47,127,192
2,49,127,12
2,37,127,196
2,37,127,88
2,44,127,0
2,47,127,0
2,44,127,4
2,47,127,0
2,33,127,128
2,42,127,120
2,40,127,12
2,40,127,124
2,33,127,4
2,33,127,100
2,33,127,100
2,42,127,12
2,40,127,20
2,40,127,108
2,33,127,76
2,37,127,12
2,37,127,108
2,44,127,28
2,47,127,20
2,44,127,12
2,47,127,12
2,49,127,192
2,37,127,180
2,37,127,156
2,37,127,148
2,35,127,136
2,33,127,24
2,42,127,152
2,40,127,8
2,40,127,120
2,35,127,20
2,33,127,16
2,42,127,200
2,40,127,16
2,40,127,116
2,40,127,160
2,39,127,76
2,39,127,72
2,39,127,144
2,39,127,112
2,39,127,128
2,39,127,140
2,38,127,204
2,38,127,168
2,38,127,160
2,38,127,132
2,37,127,64
2,44,127,112
2,44,127,56
2,47,127,24
2,44,127,192
2,47,127,8
2,49,127,8
2,30,127,16
2,37,127,16
2,40,127,8
2,37,127,192
2,40,127,188
2,42,127,188
2,37,127,16
2,44,127,24
2,47,127,24
2,44,127,4
2,47,127,36
2,49,127,0
2,37,127,0
2,44,127,0
2,44,127,44
2,47,127,28
2,44,127,8
2,47,127,28
2,49,127,192
2,37,127,40
2,44,127,572
2,47,127,12
2,44,127,192
2,47,127,28
2,49,127,4
2,30,127,40
2,37,127,4
2,37,127,52
2,40,127,4
2,37,127,4
2,40,127,44
2,42,127,188
2,37,127,20
2,44,127,0
2,47,127,12
2,44,127,192
2,47,127,16
2,49,127,192
2,37,127,12
2,44,127,576
2,44,127,44
2,47,127,20
2,44,127,192
2,47,127,24
2,49,127,196
2,40,127,60
2,40,127,32
2,40,127,60
2,40,127,36
2,40,127,44
2,40,127,44
2,40,127,56
2,40,127,48
2,42,127,44
2,42,127,40
2,42,127,48
2,42,127,36
2,42,127,68
2,42,127,48
2,42,127,64
2,42,127,48
2,44,127,44
2,44,127,48
2,44,127,64
2,44,127,52
2,44,127,64
2,44,127,56
2,44,127,64
2,44,127,44
2,42,127,72
2,42,127,48
2,42,127,68
2,42,127,44
2,42,127,80
2,42,127,52
2,42,127,108
2,40,127,24
2,40,127,64
2,40,127,188
2,37,127,80
2,35,127,12
2,28,127,96
2,30,127,192
2,30,127,156
2,33,127,28
2,37,127,300
2,44,127,168
2,44,127,44
2,47,127,96
2,44,127,172
2,47,127,20
2,49,127,8
2,37,127,196
2,32,127,268
2,37,127,256
2,44,127,112
2,44,127,56
2,47,127,24
2,44,127,192
2,47,127,4
2,49,127,4
2,30,127,16
2,37,127,16
2,40,127,8
2,37,127,192
2,40,127,188
2,42,127,188
2,37,127,16
2,44,127,20
2,47,127,24
2,44,127,8
2,47,127,40
2,49,127,4
2,37,127,188
2,44,127,4
2,44,127,44
2,47,127,28
2,44,127,8
2,47,127,28
2,49,127,192
2,37,127,40
2,44,127,576
2,47,127,12
2,44,127,192
2,47,127,28
2,49,127,4
2,30,127,40
2,37,127,4
2,37,127,52
2,40,127,4
2,37,127,0
2,40,127,40
2,42,127,196
2,37,127,24
2,44,127,572
2,47,127,12
2,44,127,192
2,47,127,16
2,49,127,192
2,37,127,12
2,44,127,572
2,44,127,44
2,47,127,20
2,44,127,192
2,47,127,24
2,49,127,192
2,40,127,56
2,40,127,32
2,40,127,60
2,40,127,36
2,40,127,44
2,40,127,44
2,40,127,56
2,40,127,44
2,42,127,44
2,42,127,40
2,42,127,52
2,42,127,36
2,42,127,68
2,42,127,48
2,42,127,64
2,42,127,48
2,44,127,44
2,44,127,48
2,44,127,64
2,44,127,52
2,44,127,64
2,44,127,52
2,44,127,60
2,44,127,48
2,42,127,72
2,42,127,48
2,42,127,68
2,42,127,44
2,42,127,80
2,42,127,52
2,42,127,108
2,40,127,24
2,40,127,64
2,40,127,184
2,37,127,80
2,35,127,12
2,28,127,96
2,30,127,188
2,30,127,156
2,33,127,32
2,37,127,300
2,44,127,52
2,44,127,48
2,47,127,12
2,44,127,192
2,47,127,20
2,49,127,4
2,37,127,196
2,44,127,568
2,47,127,12
2,44,127,12
2,47,127,16
2,44,127,188
2,40,127,28
2,40,127,64
2,40,127,100
2,37,127,384
2,35,127,36
2,28,127,16
2,30,127,196
2,30,127,104
2,30,127,112
2,33,127,188
2,37,127,88
2,44,127,152
2,47,127,4
2,44,127,0
2,47,127,16
2,49,127,12
2,37,127,8
2,44,127,0
2,44,127,56
2,47,127,12
2,44,127,196
2,42,127,148
2,40,127,24
2,40,127,40
2,35,127,192
2,40,127,56
2,37,127,4
2,35,127,20
2,28,127,32
2,42,127,196
2,42,127,80
2,37,127,40
2,42,127,24
2,32,127,52
2,35,127,32
2,37,127,116
2,44,127,8
2,44,127,36
2,47,127,32
2,44,127,192
2,47,127,28
2,49,127,192
2,37,127,124
2,40,127,96
2,37,127,76
2,35,127,112
2,35,127,100
2,37,127,16
2,44,127,156
2,47,127,24
2,44,127,12
2,47,127,16
2,49,127,4
2,30,127,32
2,37,127,8
2,37,127,52
2,40,127,16
2,37,127,192
2,40,127,24
2,42,127,4
2,37,127,12
2,44,127,28
2,47,127,24
2,44,127,4
2,47,127,20
2,49,127,8
2,37,127,0
2,49,127,572
2,47,127,80
2,44,127,80
2,47,127,0
2,44,127,16
2,42,127,4
2,40,127,44
2,37,127,32
2,44,127,28
2,44,127,36
2,47,127,96
2,44,127,184
2,47,127,184
2,49,127,4
2,30,127,16
2,37,127,108
2,40,127,0
2,37,127,4
2,40,127,28
2,42,127,192
2,37,127,8
2,37,127,112
2,47,127,60
2,44,127,192
2,47,127,172
2,49,127,12
2,37,127,8
2,37,127,144
2,44,127,24
2,47,127,16
2,44,127,188
2,47,127,28
2,49,127,0
2,37,127,16
2,32,127,296
2,32,127,152
2,32,127,68
2,35,127,36
2,32,127,8
2,37,127,36
3,68,96,1544
3,61,92,0
3,73,103,0
3,80,92,0
3,85,103,0
3,57,111,1036
3,64,98,0
3,64,75,60
3,57,85,0
3,57,127,116
3,64,121,0
3,57,86,100
3,64,83,0
3,64,111,124
3,57,116,0
3,64,91,104
3,57,88,0
3,64,100,124
3,57,111,0
3,57,83,104
3,64,82,4
3,57,103,124
3,64,107,0
3,57,86,100
3,64,83,0
3,57,111,124
3,64,116,0
3,57,86,104
3,64,90,0
3,57,107,120
3,64,111,0
3,57,85,96
3,64,85,0
3,57,100,108
3,64,103,0
3,57,100,68
3,64,86,4
3,68,96,28
3,61,111,0
3,61,94,76
3,68,88,0
3,61,117,124
3,68,99,0
3,61,99,104
3,68,94,0
3,61,107,108
3,68,96,0
3,61,99,108
3,68,90,0
3,61,111,116
3,68,99,0
3,61,94,92
3,68,90,0
3,68,92,116
3,61,111,0
3,61,103,92
3,68,94,0
3,61,111,112
3,68,99,0
3,61,99,104
3,68,96,0
3,61,107,120
3,68,96,0
3,61,99,104
3,68,94,0
3,68,99,116
3,61,111,0
3,61,103,96
3,68,89,0
3,57,116,104
3,64,111,0
3,57,86,88
3,64,93,0
3,57,111,104
3,64,121,0
3,57,82,88
3,64,90,0
3,64,116,112
3,57,98,0
3,57,91,112
3,64,93,0
3,64,111,116
3,57,107,0
3,57,103,100
3,64,93,0
3,63,124,116
3,56,117,0
3,56,107,100
3,63,99,0
3,56,117,120
3,63,111,0
3,56,90,108
3,63,90,0
3,63,103,128
3,56,99,0
3,56,94,96
3,63,92,0
3,56,111,120
3,63,107,0
3,63,94,108
3,56,94,0
3,61,111,132
3,68,111,0
3,61,87,92
3,68,92,0
3,68,124,136
3,61,117,0
3,61,94,112
3,68,96,0
3,61,107,116
3,68,117,0
3,61,89,112
3,68,99,0
3,61,107,124
3,68,111,0
3,68,111,116
3,61,99,0
3,61,107,112
3,63,103,336
3,56,103,4
3,78,107,0
3,71,103,0
3,83,100,0
3,68,89,396
3,80,96,384
3,73,111,0
3,85,103,0
3,73,89,84
3,80,89,0
3,85,99,4
3,85,66,780
3,73,50,0
3,78,89,332
3,73,103,0
