track,note,velocity,time
0,42,55,160
0,42,0,10
0,42,37,86
0,42,0,10
0,42,38,86
0,42,0,10
0,42,55,86
0,42,0,10
0,42,40,86
0,42,0,10
0,42,42,86
0,42,0,10
0,58,88,69
0,62,88,0
0,35,107,16
0,42,77,0
0,49,74,0
0,70,78,0
0,74,79,0
0,82,21,1
0,31,100,1
0,58,110,2
0,62,108,0
0,35,0,6
0,42,0,0
0,49,0,0
0,82,0,1
0,42,65,85
0,69,26,0
0,42,0,10
0,69,0,0
0,42,50,86
0,82,35,1
0,42,0,9
0,82,0,1
0,57,88,2
0,69,82,2
0,72,84,0
0,38,101,6
0,42,73,0
0,57,111,2
0,38,0,6
0,42,0,0
0,42,73,78
0,82,33,1
0,42,0,9
0,82,0,1
0,35,92,85
0,42,77,0
0,31,96,1
0,35,0,9
0,42,0,0
0,58,88,2
0,62,88,0
0,70,82,2
0,74,84,0
0,35,109,6
0,42,78,0
0,69,33,0
0,82,33,1
0,31,100,1
0,58,110,2
0,62,110,0
0,35,0,6
0,42,0,0
0,69,0,0
0,82,0,1
0,42,69,85
0,42,0,10
0,42,63,86
0,69,14,0
0,82,34,1
0,42,0,9
0,69,0,0
0,82,0,1
0,57,88,4
0,72,81,2
0,77,84,0
0,38,101,6
0,42,78,0
0,57,111,4
0,38,0,6
0,42,0,0
0,42,75,78
0,82,29,1
0,42,0,9
0,82,0,1
0,46,62,85
0,31,96,3
0,46,0,7
0,58,88,2
0,62,88,0
0,77,0,0
0,70,83,2
0,74,84,0
0,35,107,6
0,42,72,0
0,31,100,1
0,82,34,0
0,58,110,2
0,62,114,0
0,35,0,6
0,42,0,0
0,82,0,1
0,42,60,85
0,69,25,0
0,42,0,10
0,69,0,0
0,42,73,86
0,82,24,1
0,42,0,9
0,82,0,1
0,57,88,4
0,70,0,8
0,74,0,0
0,69,83,2
0,72,85,0
0,38,101,6
0,42,72,0
0,69,31,0
0,57,110,4
0,38,0,6
0,42,0,0
0,69,0,0
0,42,78,84
0,82,28,1
0,42,0,9
0,82,0,1
0,35,91,85
0,46,64,0
0,69,27,0
0,31,96,2
0,35,0,8
0,46,0,0
0,69,0,0
0,58,88,2
0,62,88,0
0,70,84,2
0,74,84,0
0,35,108,6
0,42,74,0
0,57,70,0
0,82,40,1
0,31,100,1
0,58,109,1
0,62,112,0
0,35,0,6
0,42,0,0
0,57,0,0
0,82,0,1
0,50,89,195
0,50,85,0
0,55,88,47
0,58,88,0
0,62,88,0
0,35,108,16
0,42,77,0
0,49,73,0
0,82,30,1
0,31,100,1
0,55,102,1
0,55,108,0
0,55,110,1
0,58,107,0
0,62,111,0
0,35,0,6
0,42,0,0
0,49,0,0
0,82,0,1
0,57,99,2
0,57,102,0
0,50,90,1
0,42,51,14
0,69,30,0
0,57,102,2
0,57,108,0
0,42,0,7
0,69,0,0
0,55,116,3
0,42,47,1
0,82,33,1
0,57,109,1
0,42,0,6
0,82,0,1
0,57,116,2
0,38,101,7
0,42,78,0
0,69,24,0
0,38,0,8
0,42,0,0
0,69,0,0
0,42,48,15
0,82,23,1
0,42,0,9
0,82,0,1
0,50,99,2
0,50,102,0
0,35,92,2
0,42,78,0
0,69,21,0
0,31,96,3
0,35,0,7
0,42,0,0
0,69,0,0
0,55,88,4
0,60,88,0
0,63,88,0
0,35,106,1
0,42,79,0
0,51,102,1
0,51,108,0
0,82,32,0
0,36,100,1
0,55,112,2
0,60,112,0
0,63,105,0
0,35,0,6
0,42,0,0
0,82,0,1
0,50,109,2
0,42,49,49
0,42,0,10
0,51,116,2
0,42,52,46
0,82,31,1
0,58,99,1
0,58,102,0
0,42,0,6
0,82,0,1
0,38,101,85
0,42,76,0
0,69,30,0
0,38,0,10
0,42,0,0
0,69,0,0
0,58,109,1
0,42,58,43
0,82,22,1
0,42,0,9
0,82,0,1
0,46,56,20
0,46,0,10
0,48,93,36
0,48,92,0
0,53,88,4
0,57,88,0
0,60,88,0
0,53,96,2
0,53,98,0
0,35,108,2
0,42,78,0
0,82,34,1
0,29,100,2
0,53,110,1
0,57,111,0
0,60,109,0
0,35,0,6
0,42,0,0
0,82,0,1
0,55,99,2
0,55,102,0
0,55,99,6
0,55,102,0
0,48,98,15
0,42,47,1
0,42,0,10
0,53,104,2
0,55,109,2
0,42,47,1
0,69,36,0
0,82,34,1
0,42,0,9
0,69,0,0
0,82,0,1
0,55,109,6
0,38,101,24
0,42,77,0
0,38,0,10
0,42,0,0
0,42,50,3
0,82,30,1
0,42,0,9
0,82,0,0
0,35,91,31
0,42,79,0
0,48,93,1
0,48,92,0
0,29,96,1
0,35,0,8
0,42,0,0
0,53,88,2
0,58,88,0
0,62,88,0
0,35,109,1
0,42,77,0
0,48,102,1
0,48,108,0
0,82,29,0
0,34,100,1
0,48,95,1
0,53,112,1
0,58,106,0
0,62,111,0
0,35,0,1
0,42,0,0
0,82,0,1
0,48,98,5
0,42,56,4
0,69,25,0
0,42,0,2
0,69,0,0
0,48,116,1
0,42,49,4
0,82,19,1
0,42,0,1
0,82,0,1
0,38,101,5
0,42,77,0
0,69,30,0
0,38,0,6
0,42,0,0
0,69,0,0
0,42,56,14
0,69,26,0
0,82,28,1
0,42,0,9
0,69,0,0
0,82,0,1
0,46,80,1
0,46,56,0
0,46,70,0
0,46,0,9
0,58,88,4
0,63,88,0
0,67,88,0
0,35,106,15
0,42,76,0
0,82,21,1
0,27,99,1
0,51,93,0
0,51,92,0
0,58,104,2
0,63,108,0
0,67,110,0
0,35,0,6
0,42,0,0
0,82,0,1
0,46,72,1
0,53,93,1
0,53,92,0
0,42,48,12
0,55,96,6
0,55,98,0
0,42,0,4
0,51,98,17
0,42,58,45
0,82,30,1
0,53,98,1
0,42,0,4
0,82,0,1
0,55,104,18
0,38,101,41
0,42,73,0
0,69,32,0
0,38,0,10
0,42,0,0
0,69,0,0
0,42,48,30
0,69,25,0
0,82,32,1
0,42,0,9
0,69,0,0
0,82,0,1
0,35,94,85
0,42,78,0
0,46,96,2
0,46,98,0
0,27,95,1
0,35,0,7
0,42,0,0
0,60,88,4
0,63,88,0
0,67,88,0
0,35,108,1
0,42,77,0
0,82,25,0
0,36,99,1
0,43,93,1
0,43,92,0
0,60,110,1
0,63,107,0
0,67,113,0
0,35,0,6
0,42,0,0
0,82,0,1
0,46,104,2
0,42,49,7
0,69,30,0
0,42,0,9
0,69,0,0
0,43,98,2
0,42,58,4
0,69,28,0
0,82,25,0
0,55,99,2
0,55,102,0
0,42,0,3
0,69,0,0
0,82,0,1
0,38,101,46
0,42,76,0
0,38,0,10
0,42,0,0
0,55,109,2
0,42,70,40
0,82,27,1
0,36,95,2
0,42,0,7
0,82,0,1
0,46,56,7
0,34,95,2
0,55,96,1
0,55,98,0
0,46,0,7
0,57,96,1
0,57,98,0
0,60,88,4
0,63,88,0
0,67,88,0
0,35,108,1
0,42,77,0
0,82,23,1
0,33,100,1
0,57,96,1
0,57,98,0
0,60,112,1
0,63,108,0
0,67,111,0
0,35,0,6
0,42,0,0
0,82,0,1
0,55,104,6
0,42,47,11
0,69,20,0
0,57,104,1
0,42,0,6
0,69,0,0
0,57,104,16
0,42,56,1
0,82,28,1
0,42,0,2
0,82,0,1
0,38,101,1
0,42,78,0
0,69,26,0
0,57,99,1
0,57,102,0
0,57,98,2
0,38,0,2
0,42,0,0
0,69,0,0
0,42,47,21
0,69,26,0
0,82,19,1
0,42,0,4
0,69,0,0
0,82,0,1
0,57,109,2
0,35,93,6
0,42,73,0
0,55,96,1
0,55,98,0
0,33,96,1
0,35,0,7
0,42,0,0
0,57,88,4
0,62,88,0
0,67,88,0
0,35,109,1
0,42,77,0
0,69,29,0
0,26,99,1
0,55,96,0
0,55,98,0
0,82,23,0
0,57,114,3
0,62,113,0
0,67,112,0
0,35,0,6
0,42,0,0
0,69,0,0
0,82,0,1
0,55,104,1
0,42,53,1
0,42,0,2
0,55,104,2
0,42,60,4
0,69,26,0
0,82,22,1
0,42,0,5
0,69,0,0
0,82,0,1
0,57,88,4
0,62,88,0
0,66,88,0
0,38,101,16
0,42,78,0
0,57,112,3
0,62,110,0
0,66,107,0
0,38,0,6
0,42,0,0
0,42,70,86
0,82,29,1
0,42,0,9
0,82,0,1
0,46,59,35
0,46,0,10
0,58,88,2
0,63,88,0
0,67,88,0
0,35,105,0
0,42,77,0
0,57,76,0
0,82,34,1
0,60,102,0
0,60,108,0
0,27,99,1
0,58,108,1
0,63,109,0
0,67,111,0
0,35,0,6
0,42,0,0
0,57,0,0
0,82,0,1
0,42,49,50
0,42,0,8
0,60,116,2
0,42,60,1
0,82,34,1
0,42,0,8
0,82,0,1
0,38,101,85
0,42,76,0
0,38,0,10
0,42,0,0
0,42,58,5
0,82,33,1
0,42,0,9
0,82,0,1
0,35,92,7
0,42,75,0
0,69,38,0
0,27,94,1
0,58,91,1
0,58,88,0
0,35,0,6
0,42,0,0
0,69,0,0
0,57,88,4
0,60,88,0
0,65,88,0
0,35,108,1
0,42,73,0
0,82,31,0
0,29,99,1
0,55,99,1
0,55,102,0
0,57,110,1
0,60,112,0
0,65,109,0
0,35,0,6
0,42,0,0
0,82,0,1
0,58,93,1
0,42,47,43
0,42,0,7
0,55,109,2
0,42,58,4
0,82,29,1
0,42,0,5
0,82,0,1
0,38,101,85
0,42,75,0
0,69,32,0
0,38,0,10
0,42,0,0
0,69,0,0
0,69,22,38
0,69,0,10
0,42,56,9
0,82,29,1
0,55,102,1
0,55,108,0
0,42,0,8
0,82,0,0
0,46,55,75
0,69,29,0
0,53,91,2
0,53,88,0
0,46,0,7
0,69,0,0
0,55,116,2
0,58,88,4
0,62,88,0
0,67,88,0
0,35,103,16
0,42,79,0
0,82,33,0
0,31,100,2
0,48,99,0
0,48,102,0
0,58,111,1
0,62,106,0
0,67,111,0
0,35,0,6
0,42,0,0
0,82,0,1
0,53,93,2
0,42,52,41
0,69,28,0
0,42,0,7
0,69,0,0
0,69,29,38
0,48,109,2
0,69,0,6
0,42,61,1
0,82,21,1
0,42,0,2
0,82,0,1
0,38,101,0
0,42,78,0
0,69,28,0
0,55,99,1
0,55,102,0
0,38,0,6
0,42,0,0
0,69,0,0
0,42,51,56
0,31,95,1
0,82,13,0
0,42,0,6
0,82,0,1
0,55,109,1
0,35,97,2
0,42,78,0
0,29,94,3
0,35,0,6
0,42,0,0
0,58,0,66
0,55,88,4
0,60,88,0
0,67,88,0
0,35,106,1
0,42,73,0
0,58,0,0
0,28,100,1
0,82,34,0
0,55,111,3
0,60,112,0
0,67,113,0
0,35,0,6
0,42,0,0
0,82,0,1
0,42,60,85
0,69,28,0
0,42,0,6
0,69,0,0
0,42,69,86
0,82,28,1
0,42,0,9
0,82,0,1
0,38,101,85
0,42,79,0
0,69,25,0
0,38,0,10
0,42,0,0
0,69,0,0
0,42,77,86
0,69,25,0
0,82,33,1
0,42,0,9
0,69,0,0
0,82,0,1
0,46,58,85
0,46,0,9
0,58,88,4
0,63,88,0
0,67,88,0
0,35,104,8
0,42,61,0
0,69,24,0
0,60,102,0
0,82,33,0
0,60,108,0
0,27,99,2
0,60,103,0
0,58,107,1
0,63,106,0
0,67,109,0
0,35,0,6
0,42,0,0
0,69,0,0
0,82,0,1
0,42,48,45
0,42,0,9
0,60,116,0
0,42,69,7
0,69,28,0
0,82,28,1
0,42,0,8
0,69,0,0
0,82,0,1
0,38,101,85
0,42,77,0
0,69,24,0
0,38,0,10
0,42,0,0
0,69,0,0
0,42,52,86
0,69,14,0
0,82,33,1
0,42,0,1
0,69,0,0
0,82,0,1
0,69,33,28
0,69,0,10
0,35,91,27
0,42,73,0
0,69,28,0
0,27,94,3
0,58,89,0
0,58,85,0
0,35,0,7
0,42,0,0
0,69,0,0
0,57,88,1
0,60,88,0
0,65,88,0
0,35,107,1
0,42,79,0
0,29,99,1
0,82,26,0
0,55,102,3
0,55,107,0
0,57,112,0
0,60,108,0
0,65,108,0
0,35,0,6
0,42,0,0
0,82,0,1
0,58,89,8
0,42,50,43
0,69,24,0
0,42,0,6
0,69,0,0
0,55,115,21
0,42,56,3
0,82,23,1
0,42,0,4
0,82,0,1
0,38,101,85
0,42,77,0
0,69,29,0
0,38,0,10
0,42,0,0
0,69,0,0
0,43,84,2
0,43,76,0
0,42,65,1
0,50,86,0
0,50,80,0
0,82,28,1
0,55,96,2
0,55,98,0
0,55,94,2
0,42,0,5
0,82,0,1
0,46,57,66
0,53,99,1
0,53,102,0
0,46,0,8
0,43,79,2
0,50,84,1
0,55,104,3
0,58,88,1
0,62,88,0
0,67,88,0
0,35,105,16
0,42,76,0
0,53,96,1
0,53,98,0
0,82,32,0
0,31,100,1
0,58,105,2
0,62,110,0
0,67,112,0
0,35,0,6
0,42,0,0
0,82,0,1
0,53,109,1
0,42,48,7
0,69,22,0
0,42,0,9
0,69,0,0
0,53,104,29
0,42,61,4
0,82,25,1
0,42,0,5
0,82,0,1
0,57,88,4
0,60,88,0
0,65,88,0
0,38,101,16
0,42,78,0
0,57,114,3
0,60,108,0
0,65,109,0
0,38,0,6
0,42,0,0
0,42,47,11
0,82,18,1
0,42,0,9
0,82,0,1
0,35,95,85
0,42,78,0
0,69,19,0
0,31,95,1
0,35,0,9
0,42,0,0
0,69,0,0
0,55,88,2
0,58,88,0
0,62,88,0
0,35,104,1
0,46,59,0
0,82,30,0
0,31,100,1
0,55,82,1
0,55,72,0
0,55,112,1
0,58,108,0
0,62,111,0
0,43,82,4
0,43,72,0
0,35,0,2
0,46,0,0
0,82,0,1
0,55,0,8
0,55,0,0
0,43,0,6
0,43,0,0
0,42,47,7
0,42,0,10
0,55,75,2
0,43,75,5
0,55,0,11
0,43,0,6
0,53,88,4
0,57,88,0
0,60,88,0
0,62,107,3
0,62,116,0
0,53,110,1
0,57,113,0
0,60,107,0
0,62,125,33
0,47,97,35
0,44,59,9
0,47,0,1
0,43,97,2
0,44,0,7
0,43,0,3
0,55,88,2
0,58,88,0
0,62,88,0
0,35,108,16
0,42,78,0
0,49,73,0
0,69,43,0
0,31,100,1
0,67,107,0
0,67,116,0
0,55,112,1
0,58,108,0
0,62,110,0
0,35,0,6
0,42,0,0
0,49,0,0
0,69,0,0
0,69,93,1
0,69,92,0
0,42,65,28
0,42,0,10
0,69,109,2
0,69,120,0
0,67,125,5
0,42,58,10
0,69,35,0
0,82,34,0
0,42,0,9
0,69,0,0
0,82,0,1
0,69,98,1
0,69,127,2
0,38,101,4
0,42,78,0
0,54,83,1
0,38,0,1
0,42,0,0
0,54,0,1
0,42,56,7
0,69,34,0
0,42,0,7
0,69,0,0
0,35,95,1
0,42,79,0
0,62,107,1
0,62,116,0
0,31,96,2
0,35,0,7
0,42,0,0
0,55,88,1
0,60,88,0
0,63,88,0
0,35,109,1
0,42,79,0
0,69,36,0
0,62,102,1
0,62,108,0
0,36,100,1
0,55,112,2
0,60,111,0
0,63,104,0
0,35,0,6
0,42,0,0
0,69,0,0
0,62,125,1
0,42,60,9
0,82,26,1
0,42,0,3
0,82,0,1
0,82,18,7
0,62,116,1
0,82,0,6
0,42,53,37
0,69,30,0
0,70,102,1
0,70,108,0
0,42,0,6
0,69,0,0
0,38,101,5
0,42,77,0
0,54,83,1
0,82,34,0
0,38,0,4
0,42,0,0
0,54,0,1
0,82,0,0
0,70,116,1
0,42,73,43
0,69,34,0
0,42,0,10
0,69,0,0
0,46,60,22
0,82,34,1
0,46,0,9
0,82,0,1
0,60,99,38
0,60,102,0
0,53,88,4
0,58,88,0
0,60,88,0
0,35,108,16
0,42,73,0
0,69,39,0
0,29,100,1
0,65,96,1
0,65,98,0
0,53,114,1
0,58,111,0
0,60,111,0
0,35,0,6
0,42,0,0
0,69,0,0
0,67,99,2
0,67,102,0
0,42,52,30
0,60,109,2
0,42,0,8
0,67,93,19
0,67,92,0
0,65,104,2
0,42,60,5
0,69,34,0
0,42,0,6
0,69,0,0
0,67,109,2
0,57,88,4
0,67,98,1
