track,note,velocity,time
0,69,54,5
0,45,81,95
0,57,81,0
0,69,54,0
0,40,81,10
0,52,81,0
0,69,54,0
0,36,81,10
0,48,81,0
0,69,54,3
0,74,127,3
0,35,127,7
0,51,113,0
0,69,89,0
0,33,105,3
0,45,74,0
0,74,109,5
0,57,74,2
0,69,73,0
0,69,57,175
0,60,74,3
0,37,113,2
0,51,77,0
0,54,113,0
0,69,112,0
0,76,113,0
0,64,74,3
0,69,73,170
0,60,74,0
0,74,127,15
0,57,74,0
0,69,57,0
0,74,109,17
0,45,74,0
0,35,127,0
0,51,77,0
0,69,89,0
0,72,127,15
0,72,109,70
0,69,73,150
0,57,74,0
0,74,100,103
0,72,123,45
0,74,82,0
0,71,126,12
0,69,57,2
0,60,74,3
0,72,105,12
0,71,108,12
0,37,113,85
0,51,77,0
0,54,113,0
0,69,112,0
0,76,113,0
0,64,74,0
0,67,127,5
0,69,73,15
0,35,105,3
0,60,74,0
0,67,109,2
0,67,127,12
0,69,57,10
0,36,105,0
0,57,74,0
0,67,109,12
0,38,105,7
0,50,74,0
0,35,127,0
0,51,77,0
0,69,89,0
0,65,120,7
0,65,102,17
0,69,73,145
0,57,74,0
0,60,74,10
0,69,57,0
0,37,113,220
0,51,77,0
0,54,113,0
0,69,112,0
0,76,113,0
0,65,74,3
0,69,73,220
0,60,74,0
0,74,127,0
0,69,57,0
0,57,74,0
0,74,109,0
0,50,74,0
0,35,127,0
0,51,77,0
0,69,89,0
0,74,127,5
0,74,109,10
0,57,74,0
0,69,73,0
0,69,57,2
0,60,74,3
0,37,113,25
0,51,77,0
0,54,113,0
0,69,112,0
0,76,113,0
0,65,74,0
0,40,105,5
0,60,74,0
0,69,73,0
0,41,105,10
0,57,74,0
0,69,57,0
0,71,127,8
0,71,109,23
0,72,127,32
0,72,109,52
0,43,105,17
0,55,74,0
0,35,127,0
0,51,77,0
0,69,89,0
0,72,127,18
0,72,109,55
0,57,74,2
0,69,73,0
0,60,74,2
0,69,57,0
0,37,113,0
0,51,77,0
0,54,113,0
0,69,112,0
0,76,113,0
0,65,74,0
0,69,73,15
0,60,74,0
0,72,127,20
0,69,57,2
0,57,74,0
0,72,109,40
0,71,127,5
0,35,127,12
0,51,77,0
0,69,89,0
0,55,74,0
0,71,109,43
0,57,74,0
0,69,73,0
0,72,114,98
0,71,113,47
0,72,96,3
0,69,117,2
0,60,74,10
0,69,57,0
0,71,95,5
0,69,99,7
0,37,113,52
0,51,77,0
0,54,113,0
0,69,112,0
0,76,113,0
0,65,74,0
0,65,127,0
0,69,73,2
0,43,105,3
0,60,74,0
0,65,109,2
0,62,127,2
0,41,105,2
0,57,74,0
0,69,57,0
0,62,109,2
0,36,105,67
0,48,74,0
0,35,127,0
0,51,77,0
0,69,89,0
0,62,127,2
0,62,109,65
0,55,74,0
0,69,73,0
0,69,57,10
0,59,74,0
0,64,74,2
0,37,113,0
0,51,77,0
0,54,113,0
0,69,112,0
0,76,113,0
0,69,73,67
0,59,74,0
0,72,127,27
0,55,74,0
0,69,57,0
0,72,109,0
0,35,127,0
0,51,77,0
0,69,89,0
0,36,105,3
0,48,74,0
0,72,127,5
0,72,109,10
0,55,74,0
0,69,73,0
0,69,57,0
0,59,74,3
0,64,74,0
0,37,113,0
0,51,77,0
0,54,113,0
0,69,112,0
0,76,113,0
0,38,105,7
0,59,74,0
0,69,73,0
0,69,57,20
0,40,105,3
0,55,74,0
0,69,127,8
0,69,109,68
0,71,127,55
0,71,109,58
0,35,127,5
0,51,77,0
0,69,89,0
0,41,105,3
0,53,74,0
0,71,127,65
0,71,109,72
0,69,73,5
0,57,74,0
0,69,57,2
0,60,74,3
0,37,113,0
0,51,77,0
0,54,113,0
0,69,112,0
0,76,113,0
0,65,74,3
0,60,74,0
0,69,73,0
0,71,127,10
0,69,57,5
0,57,74,0
0,71,109,20
0,69,127,50
0,35,127,0
0,51,77,0
0,69,89,0
0,53,74,0
0,69,109,55
0,69,73,165
0,57,74,0
0,71,107,113
0,69,120,52
0,71,89,13
0,67,113,10
0,69,57,10
0,60,74,3
0,69,102,10
0,67,95,10
0,65,74,0
0,37,113,0
0,51,77,0
0,54,113,0
0,69,112,0
0,76,113,0
0,64,127,8
0,41,105,12
0,69,73,0
0,60,74,0
0,64,109,3
0,64,127,30
0,69,57,7
0,40,105,0
0,57,74,0
0,64,109,30
0,62,127,8
0,35,127,7
0,51,77,0
0,69,89,0
0,35,105,3
0,47,74,0
0,62,109,8
0,69,73,172
0,57,74,0
0,62,74,7
0,69,57,0
0,37,113,220
0,51,77,0
0,54,113,0
0,69,112,0
0,76,113,0
0,65,74,0
0,69,73,220
0,62,74,0
0,71,127,28
0,69,57,17
0,57,74,0
0,71,109,5
0,71,127,5
0,35,127,0
0,51,77,0
0,69,89,0
0,47,74,0
0,71,109,25
0,69,73,165
0,57,74,0
0,69,57,7
0,62,74,3
0,37,113,5
0,51,77,0
0,54,113,0
0,69,112,0
0,76,113,0
0,65,74,0
0,62,74,0
0,69,73,0
0,69,57,0
0,38,105,3
0,57,74,0
0,35,127,57
0,51,77,0
0,69,89,0
0,40,105,3
0,52,74,0
0,69,127,3
0,69,109,0
0,69,73,0
0,56,74,0
0,59,74,7
0,69,57,0
0,62,74,15
0,37,113,0
0,51,77,0
0,54,113,0
0,69,112,0
0,76,113,0
0,59,74,0
0,69,73,0
0,69,127,5
0,69,57,7
0,56,74,0
0,69,109,40
0,68,127,15
0,35,127,0
0,51,77,0
0,69,89,0
0,28,105,3
0,52,74,0
0,68,109,15
0,56,74,0
0,69,73,0
0,65,127,2
0,69,57,5
0,59,74,3
0,65,109,15
0,37,113,70
0,51,77,0
0,54,113,0
0,69,112,0
0,76,113,0
0,62,74,0
0,62,103,213
0,59,74,0
0,69,73,0
0,64,120,8
0,62,85,35
0,64,102,15
0,62,127,127
0,37,101,5
0,69,57,0
0,76,98,0
0,56,74,0
0,62,109,50
0,37,85,10
0,76,82,0
0,37,101,60
0,76,98,0
0,60,122,0
0,33,105,5
0,35,127,0
0,51,109,0
0,57,74,0
0,60,104,0
0,45,81,367
0,57,81,0
0,40,81,13
0,52,81,0
0,36,81,10
0,48,81,0
0,88,74,0
0,35,127,7
0,51,113,0
0,69,89,0
0,33,105,3
0,74,107,0
0,45,74,0
0,74,91,3
0,57,74,2
0,69,73,0
0,69,57,175
0,60,74,3
0,67,125,0
0,64,74,2
0,37,113,0
0,51,77,0
0,54,113,0
0,69,112,0
0,76,113,0
0,67,120,0
0,60,74,0
0,69,73,0
0,67,127,0
0,74,107,15
0,69,57,15
0,57,74,0
0,74,91,17
0,67,127,0
0,35,127,20
0,51,77,0
0,69,89,0
0,45,74,0
0,72,107,12
0,72,91,70
0,67,127,0
0,69,73,130
0,57,74,0
0,74,80,35
0,72,103,45
0,74,64,0
0,71,106,0
0,60,74,2
0,69,57,0
0,72,87,15
0,71,90,12
0,64,74,0
0,37,113,0
0,51,77,0
0,54,113,0
0,69,112,0
0,76,113,0
0,67,107,5
0,69,73,15
0,35,105,3
0,60,74,0
0,67,91,2
0,67,107,12
0,36,105,10
0,57,74,0
0,35,98,0
0,69,57,0
0,67,91,12
0,88,74,3
0,38,105,7
0,50,74,0
0,35,127,0
0,51,77,0
0,69,89,0
0,65,100,5
0,65,84,17
0,65,127,0
0,69,73,0
0,57,74,0
0,60,74,5
0,69,57,0
0,65,127,0
0,65,74,5
0,37,113,0
0,51,77,0
0,54,113,0
0,69,112,0
0,76,113,0
0,65,127,0
0,65,122,0
0,69,73,50
0,60,74,0
0,74,107,0
0,69,57,0
0,57,74,0
0,74,91,0
0,86,74,0
0,35,127,5
0,51,77,0
0,69,89,0
0,50,74,0
0,74,107,5
0,74,91,10
0,69,73,97
0,57,74,0
0,60,74,2
0,69,57,0
0,84,74,0
0,65,74,0
0,37,113,0
0,51,77,0
0,54,113,0
0,69,112,0
0,76,113,0
0,69,73,5
0,40,105,3
0,60,74,0
0,41,105,10
0,57,74,0
0,69,57,0
0,71,107,10
0,71,91,23
0,72,107,32
0,72,91,52
0,86,74,0
0,43,105,7
0,55,74,0
0,35,127,0
0,51,77,0
0,69,89,0
0,72,107,18
0,72,91,55
0,69,73,2
0,57,74,0
0,69,57,0
0,60,74,3
0,67,127,0
0,37,113,0
0,51,77,0
0,54,113,0
0,69,112,0
0,76,113,0
0,65,74,0
0,67,127,0
0,69,73,15
0,60,74,0
0,67,127,0
0,67,127,0
0,72,107,5
0,69,57,2
0,57,74,0
0,72,91,2
0,71,107,5
0,55,74,0
0,35,127,0
0,51,77,0
0,69,89,0
0,71,91,20
0,67,127,0
0,69,73,125
0,57,74,0
0,72,94,98
0,71,93,47
0,72,78,3
0,69,97,2
0,60,74,10
0,69,57,0
0,71,77,5
0,69,81,7
0,65,74,0
0,37,113,0
0,51,77,0
0,54,113,0
0,69,112,0
0,76,113,0
0,65,107,2
0,43,105,2
0,60,74,0
0,69,73,0
0,65,91,2
0,62,107,2
0,41,105,2
0,57,74,0
0,35,98,0
0,69,57,0
0,62,91,2
0,86,74,3
0,35,127,7
0,51,77,0
0,69,89,0
0,36,105,0
0,48,74,0
0,62,107,2
0,62,91,65
0,69,73,2
0,55,74,0
0,65,127,0
0,59,74,10
0,69,57,0
0,65,127,0
0,65,127,0
0,37,113,2
0,51,77,0
0,54,113,0
0,69,112,0
0,76,113,0
0,64,74,3
0,65,125,0
0,59,74,0
0,69,73,0
0,65,120,0
0,72,107,27
0,69,57,2
0,55,74,0
0,72,91,0
0,65,127,0
0,84,74,0
0,35,127,0
0,51,77,0
0,69,89,0
0,36,105,3
0,48,74,0
0,72,107,3
0,65,127,0
0,72,91,10
0,55,74,0
0,69,73,0
0,65,127,0
0,65,127,3
0,69,57,0
0,59,74,3
0,62,121,0
0,83,74,0
0,37,113,2
0,51,77,0
0,54,113,0
0,69,112,0
0,76,113,0
0,64,74,0
0,69,73,10
0,38,105,3
0,59,74,0
0,69,57,5
0,40,105,0
0,55,74,0
0,69,107,8
0,69,91,3
0,71,107,5
0,71,91,28
0,84,74,0
0,41,105,5
0,53,74,0
0,35,127,0
0,51,77,0
0,69,89,0
0,71,107,65
0,71,91,42
0,57,74,5
0,69,73,0
0,60,74,2
0,69,57,0
0,37,113,0
0,51,77,0
0,54,113,0
0,69,112,0
0,76,113,0
0,65,74,3
0,60,74,0
0,69,73,0
0,71,107,10
0,57,74,0
0,69,57,0
0,71,91,20
0,69,107,50
0,53,74,0
0,35,127,0
0,51,77,0
0,69,89,0
0,65,125,0
0,69,91,55
0,57,74,0
0,69,73,0
0,65,120,0
0,71,87,113
0,69,100,35
0,71,71,13
0,65,125,0
0,67,93,5
0,60,74,7
0,69,57,0
0,69,84,10
0,67,77,10
0,65,119,0
0,65,74,0
0,37,113,0
0,51,77,0
0,54,113,0
0,69,112,0
0,76,113,0
0,64,107,8
0,41,105,12
0,60,74,0
0,69,73,0
0,64,91,3
0,64,107,30
0,69,57,7
0,40,105,3
0,57,74,0
0,64,91,30
0,84,74,8
0,62,107,0
0,35,127,7
0,51,77,0
0,69,89,0
0,35,105,3
0,47,74,0
0,62,91,8
0,57,74,0
0,69,73,0
0,65,127,0
0,62,74,7
0,69,57,0
0,64,127,0
0,37,113,42
0,51,77,0
0,54,113,0
0,69,112,0
0,76,113,0
0,65,74,0
0,62,120,0
0,69,73,90
0,62,74,0
0,62,127,0
0,71,107,28
0,57,74,0
0,69,57,0
0,71,91,5
0,83,74,0
0,71,107,5
0,35,127,0
0,51,77,0
0,69,89,0
0,40,105,3
0,52,74,0
0,71,91,25
0,69,73,165
0,56,74,0
0,62,74,7
0,69,57,0
0,80,74,0
0,64,74,5
0,37,113,0
0,51,77,0
0,54,113,0
0,69,112,0
0,76,113,0
0,62,127,0
0,69,73,42
0,69,107,3
0,62,74,0
0,62,127,0
0,69,91,45
0,69,57,80
0,68,100,0
0,56,74,0
0,62,127,0
0,68,84,0
0,81,67,0
0,33,105,7
0,45,74,0
0,35,127,0
0,51,77,0
0,69,89,0
0,62,127,0
0,69,99,5
0,69,83,63
0,61,127,0
0,69,73,57
0,52,74,0
0,61,127,0
0,69,57,7
0,57,74,3
0,62,124,0
0,37,113,2
0,51,77,0
0,54,113,0
0,69,112,0
0,76,113,0
0,61,74,3
0,69,73,5
0,57,74,0
0,69,57,160
0,52,74,0
0,33,105,20
0,45,74,0
0,35,127,0
0,51,77,0
0,69,89,0
0,69,73,2
0,54,74,3
0,57,74,10
0,69,57,0
0,37,113,170
0,51,77,0
0,54,113,0
0,69,112,0
0,76,113,0
0,62,74,3
0,57,74,0
0,69,73,0
0,69,57,220
0,54,74,0
0,81,74,15
0,35,127,7
0,51,109,0
0,33,105,3
0,52,74,0
0,57,74,0
0,61,74,0
0,73,127,468
0,73,109,75
0,74,126,397
0,74,108,72
0,51,113,72
0,74,127,2
0,74,109,5
0,77,127,3
0,77,109,18
0,88,74,3
0,38,105,5
0,50,74,0
0,35,127,0
0,51,113,0
0,69,89,0
0,77,127,3
0,77,109,0
0,69,73,60
0,57,74,3
0,60,74,2
0,69,57,0
0,37,113,2
0,51,77,0
0,54,113,0
0,69,112,0
0,76,113,0
0,64,49,3
0,65,74,0
0,64,49,3
0,64,49,7
0,64,49,2
0,64,49,10
0,64,49,2
0,64,49,3
0,64,49,13
0,69,73,2
0,64,49,3
0,60,74,0
0,64,49,7
0,64,49,2
0,64,49,3
0,64,49,3
0,64,49,5
0,64,49,7
0,64,49,2
0,77,127,0
0,69,57,10
0,64,49,3
0,57,74,0
0,64,49,2
0,64,49,5
0,77,109,5
0,64,49,10
0,64,49,10
0,64,49,10
0,64,49,13
0,64,49,10
0,86,74,0
0,62,49,7
0,50,74,0
0,35,127,0
0,51,77,0
0,69,89,0
0,77,123,8
0,62,49,2
0,62,49,10
0,77,105,5
0,62,49,7
0,62,49,10
0,62,49,10
0,62,49,13
0,62,49,10
0,62,49,10
0,57,74,0
0,69,73,0
0,62,49,10
0,62,49,10
0,62,49,12
0,62,49,10
0,62,49,10
0,62,49,10
0,62,49,10
0,62,49,5
0,60,74,0
0,69,57,0
0,62,49,2
0,62,49,5
0,62,49,2
0,62,49,2
0,62,49,5
0,62,49,5
0,62,49,2
0,84,74,0
0,37,113,0
0,51,77,0
0,54,113,0
0,69,112,0
0,76,113,0
0,60,49,3
0,65,74,0
0,60,49,2
0,60,49,10
0,60,49,13
0,60,49,10
0,60,49,10
0,60,49,13
0,60,49,10
0,69,73,0
0,40,105,3
0,60,49,0
0,60,74,0
0,60,49,7
0,60,49,2
0,60,49,5
0,60,49,3
0,60,49,2
0,60,49,7
0,60,49,2
0,69,57,0
0,41,105,0
0,60,49,0
0,57,74,0
0,60,49,2
0,60,49,10
0,60,49,8
0,60,49,10
0,60,49,10
0,60,49,10
0,60,49,10
0,83,74,0
0,35,127,7
0,51,77,0
0,69,89,0
0,43,105,0
0,59,49,0
0,55,74,0
0,59,49,10
0,59,49,10
0,59,49,12
0,59,49,10
0,59,49,10
0,59,49,13
0,59,49,28
0,59,49,22
0,57,74,0
0,69,73,0
0,59,49,10
0,59,49,25
0,59,49,25
0,59,49,25
0,59,49,25
0,59,49,25
0,59,49,28
0,59,49,10
0,60,74,0
0,69,57,0
0,59,49,10
0,59,49,28
0,59,49,25
0,59,49,25
0,59,49,25
0,59,49,25
0,59,49,25
0,37,113,25
0,51,77,0
0,54,113,0
0,69,112,0
0,76,113,0
0,59,49,3
0,65,74,0
0,59,49,0
0,59,49,25
0,59,49,0
0,59,49,25
0,59,49,25
0,59,49,28
0,59,49,28
0,71,127,15
0,69,73,7
0,59,49,3
0,60,74,0
0,59,49,0
0,59,49,25
0,71,109,3
0,59,49,22
0,59,49,25
0,59,49,25
0,59,49,25
0,59,49,25
0,72,127,8
0,69,57,0
0,59,49,3
0,57,74,0
0,59,49,0
0,72,109,23
0,59,49,5
0,59,49,15
0,59,49,25
0,59,49,25
