track,note,velocity,time
1,45,80,14440
1,57,80,88
1,60,80,38
1,64,80,70
1,60,80,80
1,57,80,76
1,57,80,188
1,60,80,44
1,64,80,60
1,60,80,70
1,57,80,66
1,50,80,60
1,57,80,4
1,60,80,40
1,65,80,70
1,60,80,72
1,57,80,68
1,57,80,190
1,60,80,56
1,65,80,72
1,60,80,64
1,57,80,60
1,43,80,60
1,57,80,90
1,60,80,40
1,65,80,64
1,60,80,60
1,57,80,66
1,57,80,206
1,60,80,62
1,65,80,76
1,60,80,70
1,57,80,70
1,48,80,62
1,55,80,28
1,59,80,68
1,64,80,78
1,59,80,80
1,55,80,82
1,55,80,214
1,59,80,72
1,64,80,82
1,59,80,78
1,55,80,78
1,41,80,8
1,57,80,20
1,60,80,68
1,64,80,78
1,60,80,76
1,57,80,80
1,57,80,208
1,60,80,70
1,64,80,82
1,60,80,78
1,57,80,80
1,47,80,20
1,57,80,8
1,62,80,68
1,65,80,78
1,62,80,70
1,57,80,60
1,40,80,74
1,52,80,96
1,56,80,68
1,59,80,80
1,56,80,84
1,52,80,78
1,45,80,38
1,52,80,18
1,57,80,56
1,61,80,74
1,57,80,74
1,52,80,62
1,45,80,80
1,54,80,50
1,59,80,72
1,62,80,80
1,59,80,80
1,54,80,58
1,52,80,98
1,61,80,0
1,45,80,0
1,57,80,0
1,50,80,13720
1,57,80,4
1,60,80,40
1,65,80,70
1,60,80,72
1,57,80,68
1,57,80,190
1,60,80,56
1,65,80,72
1,60,80,64
1,57,80,60
1,43,80,60
1,57,80,90
1,60,80,40
1,65,80,64
1,60,80,60
1,57,80,66
1,57,80,206
1,60,80,62
1,65,80,76
1,60,80,70
1,57,80,70
1,48,80,62
1,55,80,28
1,59,80,68
1,64,80,78
1,59,80,80
1,55,80,82
1,55,80,214
1,59,80,72
1,64,80,82
1,59,80,78
1,55,80,78
1,41,80,8
1,57,80,20
1,60,80,68
1,64,80,78
1,60,80,76
1,57,80,80
1,57,80,208
1,60,80,70
1,64,80,82
1,60,80,78
1,57,80,80
1,47,80,20
1,57,80,8
1,62,80,68
1,65,80,78
1,62,80,70
1,57,80,60
1,47,80,0
1,57,80,96
1,62,80,68
1,65,80,78
1,62,80,70
1,57,80,60
1,47,80,74
1,59,80,18
1,63,80,68
1,66,80,78
1,63,80,70
1,59,80,60
1,47,80,74
1,59,80,50
1,63,80,68
1,66,80,78
1,63,80,70
1,59,80,60
1,52,92,74
1,59,76,90
1,64,90,128
1,68,86,128
1,64,87,92
1,59,81,112
1,53,85,4
1,60,74,126
1,63,75,128
1,69,90,128
1,63,80,80
1,60,92,116
1,52,97,38
1,68,96,0
1,64,94,0
1,59,90,0
2,57,127,988
2,52,127,92
2,48,127,64
2,33,127,54
2,35,127,1280
2,36,127,120
2,38,127,20
2,40,127,1280
2,41,127,118
2,43,127,120
2,43,127,50
2,41,127,0
2,36,127,10
2,38,127,4
2,40,127,128
2,41,127,22
2,41,127,46
2,40,127,0
2,35,127,8
2,40,127,1536
2,33,127,1528
2,57,127,284
2,52,127,92
2,48,127,64
2,33,127,54
2,35,127,1280
2,36,127,6
2,38,127,6
2,40,127,1280
2,41,127,0
2,43,127,4
2,43,127,62
2,41,127,128
2,36,127,120
2,38,127,1274
2,40,127,126
2,41,127,114
2,41,127,86
2,40,120,128
2,35,112,124
2,40,127,10
2,33,127,2
2,33,127,28
2,33,127,48
2,38,127,1468
2,40,127,2
2,41,127,128
2,43,127,120
2,43,127,50
2,41,127,128
2,36,127,10
2,38,127,4
2,40,127,128
2,41,127,22
2,41,127,46
2,40,127,0
2,35,127,8
2,40,127,1536
2,33,127,1528
2,33,127,24
2,33,127,0
2,38,127,1470
2,40,127,1280
2,41,127,6
2,43,127,128
2,43,127,76
2,41,127,128
2,36,127,126
2,38,127,1276
2,40,127,2
2,41,127,128
2,41,127,50
2,40,120,4
2,35,112,128
2,35,120,78
2,35,92,26
2,28,100,768
2,40,120,0
2,29,92,16
2,41,127,0
2,28,127,4
2,40,127,0
2,38,127,10496
2,40,127,2
2,41,127,128
2,43,127,120
2,43,127,50
2,41,127,0
2,36,127,10
2,38,127,4
2,40,127,128
2,41,127,22
2,41,127,46
2,40,127,0
2,35,127,8
2,40,127,8
2,33,127,772
2,38,127,12
2,33,127,0
2,29,127,0
2,28,127,402
2,33,127,6
2,38,127,12
2,33,127,0
2,29,127,0
2,28,127,402
2,33,127,6
2,38,127,12
2,33,127,0
2,29,127,0
2,28,127,402
2,33,127,4
2,38,127,14
2,33,127,4
2,29,127,4
2,31,127,384
2,33,127,16
2,38,127,12
2,33,127,0
2,29,127,0
2,28,127,402
2,33,127,6
2,38,127,12
2,33,127,0
2,29,127,0
2,28,127,402
2,33,127,6
2,38,127,12
2,33,127,0
2,29,127,0
2,28,127,402
2,33,127,6
2,38,127,12
2,33,127,0
2,29,127,0
2,28,127,402
2,33,127,6
2,38,127,12
2,33,127,0
2,29,127,0
2,28,127,402
2,33,127,6
2,38,127,12
2,33,127,0
2,29,127,0
2,28,127,402
2,33,127,6
2,38,127,12
2,33,127,0
2,29,127,0
2,28,127,402
2,33,127,6
2,38,127,12
2,33,127,0
2,29,127,0
2,28,127,402
2,33,127,6
2,38,127,12
2,33,127,0
2,29,127,0
2,28,127,402
2,33,127,6
2,38,127,12
2,33,127,0
2,29,127,0
2,28,127,402
2,33,127,6
2,38,127,12
2,33,127,0
2,29,127,0
2,28,127,402
2,33,127,6
2,38,127,12
2,33,127,0
2,29,127,0
2,28,127,402
2,33,127,4
2,38,127,14
2,33,127,4
2,33,127,88
2,38,127,46
2,40,127,120
2,41,127,100
2,31,127,130
2,33,112,6464
2,45,50,854
2,45,53,34
2,45,72,30
2,45,85,26
2,45,66,20
2,45,15,18
2,45,21,16
2,33,42,16
2,45,56,26
2,33,22,10
2,33,104,6844
3,57,127,2
3,55,88,98
3,53,91,6
3,52,94,6
3,50,96,2
3,48,98,6
3,47,101,4
3,45,106,4
3,44,101,8
3,42,95,14
3,41,90,6
3,39,86,2
3,37,82,6
3,36,77,6
3,34,72,10
3,52,127,40
3,50,6,88
3,48,87,32
3,47,87,8
3,45,90,8
3,43,85,8
3,41,87,8
3,40,85,8
3,38,85,6
3,36,81,6
3,35,64,8
3,48,127,128
3,47,46,102
3,45,97,16
3,43,94,0
3,41,97,4
3,40,94,2
3,38,94,4
3,36,92,2
3,35,74,4
3,33,72,4
3,31,85,0
3,76,127,62
3,74,127,2
3,72,127,0
3,71,127,252
3,69,127,172
3,67,127,128
3,65,127,6
3,76,127,14
3,72,127,32
3,74,127,6
3,72,127,6
3,71,127,44
3,69,127,4
3,67,127,154
3,65,127,22
3,64,127,6
3,72,127,48
3,72,127,2
3,71,127,10
3,69,127,6
3,69,127,40
3,67,127,14
3,67,127,82
3,65,127,10
3,64,127,20
3,62,127,2
3,71,127,70
3,71,127,0
3,69,127,2
3,68,127,120
3,65,127,20
3,64,120,170
3,62,94,2
3,60,112,6
3,59,82,114
3,58,79,2
3,57,77,4
3,56,75,4
3,55,72,4
3,54,70,4
3,53,68,4
3,52,65,4
3,51,63,4
3,50,60,4
3,49,58,4
3,48,56,4
3,47,53,4
3,46,51,4
3,52,127,12028
3,64,127,0
3,57,127,0
3,61,127,0
3,62,66,32
3,60,94,0
3,59,112,4
3,55,97,2
3,50,50,2
3,53,127,4
3,52,127,2
3,48,56,2
3,50,94,2
3,48,120,2
3,47,112,4
3,45,112,6
3,43,92,6
3,41,90,8
3,40,48,2
3,47,63,88
3,48,74,8
3,50,68,4
3,52,87,4
3,53,94,2
3,55,112,2
3,57,112,0
3,59,127,0
3,60,120,0
3,62,112,2
3,64,127,0
3,65,127,2
3,67,92,4
3,73,127,2
3,74,127,6
3,76,127,8
3,79,127,10
3,77,127,10
3,77,127,2
3,76,119,120
3,74,112,4
3,72,108,2
3,71,103,2
3,69,100,2
3,67,96,2
3,65,93,0
3,64,89,2
3,62,85,2
3,60,82,4
3,59,79,4
3,57,76,2
3,55,72,4
3,53,69,2
3,52,66,0
3,55,65,4
3,45,75,140
3,47,83,16
3,48,89,4
3,50,93,2
3,52,97,0
3,53,102,2
3,55,105,0
3,71,127,2
3,72,127,4
3,74,127,118
3,77,127,368
3,76,88,2
3,74,92,2
3,72,94,2
3,71,95,0
3,69,97,2
3,67,99,0
3,65,100,0
3,64,101,0
3,62,103,4
3,60,104,0
3,59,106,4
3,57,107,0
3,55,108,0
3,53,110,0
3,57,111,2
3,77,127,4
3,74,127,0
3,74,127,36
3,72,100,2
3,71,95,0
3,69,91,2
3,67,88,2
3,65,85,0
3,64,83,0
3,63,79,4
3,45,75,8
3,50,75,0
3,62,74,4
3,60,70,6
3,58,67,0
3,56,64,6
3,55,62,0
3,69,127,122
3,71,127,16
3,72,127,16
3,45,101,302
3,50,101,0
3,76,127,2
3,76,127,44
3,74,127,2
3,74,125,0
3,71,48,6
3,69,66,4
3,67,70,6
3,65,85,4
3,64,85,4
3,62,85,6
3,60,85,2
3,59,85,2
3,57,81,0
3,55,87,6
3,53,85,6
3,52,90,6
3,50,85,8
3,48,92,8
3,47,97,6
3,45,87,6
3,68,127,2
3,43,85,6
3,69,127,0
3,71,127,96
3,71,127,0
3,72,127,121
3,74,127,2
3,72,110,28
3,69,110,24
3,72,110,28
3,69,110,0
3,67,110,38
3,69,110,28
3,67,110,20
3,64,110,18
3,67,110,20
3,69,110,26
3,67,110,26
3,64,110,22
3,63,110,22
3,62,110,22
3,60,110,20
3,62,110,26
3,60,110,34
3,62,110,36
3,64,110,30
3,67,110,0
3,63,110,34
3,62,110,32
3,60,110,34
3,57,110,30
3,60,110,28
3,57,110,24
3,55,110,26
3,57,110,30
3,55,110,20
3,52,110,20
3,55,107,26
3,52,109,30
3,51,111,36
3,50,113,28
3,48,118,18
3,74,50,5782
3,76,90,4
3,69,87,26
3,69,92,168
3,72,81,28
3,74,85,0
3,72,90,2136
3,69,76,68
3,65,62,12
3,64,58,8
3,62,55,16
3,60,51,14
3,59,48,6
3,57,45,4
3,55,41,2
3,53,38,12
3,52,34,12
3,50,31,12
3,48,28,10
3,47,24,16
3,63,81,2
3,64,78,6
3,40,127,4
3,47,127,0
3,64,46,0
3,62,31,2
3,60,68,20
3,59,76,8
3,57,87,4
3,55,90,6
3,53,85,4
3,52,90,6
3,50,83,4
3,48,90,4
3,47,92,4
3,45,92,4
3,76,127,14
3,47,9,16
3,48,10,2
3,47,14,66
3,48,14,2
3,47,18,42
3,48,23,32
3,47,23,0
3,48,27,26
3,47,27,0
3,50,27,2
3,48,31,66
3,47,31,0
3,47,35,20
3,48,35,0
3,48,39,64
3,50,39,2
3,52,39,2
3,48,43,60
3,50,43,0
3,52,43,0
3,48,48,8
3,52,48,0
3,47,52,20
3,48,52,2
3,47,56,40
3,48,56,0
3,52,56,2
3,50,56,2
3,47,60,38
3,52,60,0
3,48,60,4
3,52,64,28
3,50,64,0
3,47,64,2
3,48,64,0
3,53,65,2
3,52,69,28
3,50,69,0
3,53,69,2
3,48,69,0
3,47,69,2
3,50,73,34
3,48,73,2
3,52,73,0
3,47,73,2
3,48,77,38
3,52,77,0
3,50,77,0
3,53,77,2
3,50,81,14
3,52,81,0
3,48,81,0
3,53,81,2
3,47,81,0
3,50,85,18
3,48,85,0
3,52,85,0
3,53,85,4
3,50,89,44
3,48,89,0
3,52,89,4
3,53,89,0
3,48,94,40
3,50,94,2
3,52,94,2
3,53,94,0
3,50,98,12
3,48,98,0
3,53,98,0
3,52,98,0
3,55,98,2
3,48,102,30
3,50,102,0
3,52,102,2
3,53,102,2
3,50,106,60
3,52,106,0
3,53,107,2
3,55,107,2
3,50,110,58
3,52,111,2
3,53,111,0
3,55,111,0
3,50,115,38
3,52,115,2
3,53,115,2
3,55,115,2
3,55,119,62
3,50,119,2
3,53,119,0
3,52,119,0
3,50,123,64
3,53,123,0
3,52,123,0
3,55,123,4
3,50,124,2
3,59,127,18
3,60,100,2
3,57,127,2
3,55,127,0
3,53,127,2
3,52,97,2
3,54,67,0
3,50,64,0
3,51,112,2
3,48,127,2
3,49,96,2
3,47,127,0
3,45,127,2
3,46,100,0
3,43,127,0
3,41,127,0
3,40,127,4
3,38,127,0
3,36,127,4
3,35,127,2
3,33,120,2
3,31,127,0
3,29,112,4
3,28,120,2
3,26,100,2
3,24,94,2
3,47,70,28
3,45,83,2
3,43,72,0
3,41,30,8
3,40,61,6
3,38,63,16
3,36,87,10
3,35,48,6
3,33,66,26
3,28,26,0
3,31,28,18
3,29,1,12
3,28,19,8
3,24,48,0
3,26,7,4
3,28,70,2
3,51,127,334
3,49,127,0
3,52,127,2
3,50,115,2
3,46,115,0
3,41,115,0
3,40,113,0
3,48,110,6
3,44,106,0
3,47,103,2
3,43,101,2
3,38,98,0
3,41,97,2
3,45,97,0
3,36,93,0
3,40,91,0
3,38,85,0
3,35,82,0
3,36,79,4
3,35,73,6
3,33,68,2
3,31,61,4
3,29,53,6
3,28,48,4
3,26,40,4
3,24,17,10
3,59,23,8
3,61,40,12
3,63,56,0
3,64,68,2
3,66,78,0
3,68,88,2
3,69,98,0
3,71,109,2
3,73,124,4
3,74,127,4
3,72,127,128
3,71,127,36
3,71,127,0
3,69,127,73
3,67,127,128
3,65,127,116
3,76,127,14
3,77,127,62
3,72,127,0
3,74,127,0
3,72,127,24
3,70,127,4
3,72,127,8
3,74,127,0
3,72,127,2
3,72,127,0
3,71,127,372
3,69,127,4
3,67,127,58
3,65,127,54
3,64,127,52
3,72,127,48
3,74,125,24
3,72,127,4
3,71,111,6
3,70,108,2
3,69,105,4
3,68,101,2
3,67,98,4
3,66,95,2
3,65,92,4
3,64,89,4
3,63,86,0
3,62,83,4
3,67,127,14
3,69,127,30
3,71,127,14
3,72,127,0
3,71,127,16
3,69,127,6
3,69,127,40
3,67,127,14
3,67,127,202
3,65,127,10
3,64,127,120
3,62,127,2
3,71,127,70
3,71,127,6
3,68,125,102
3,68,127,94
3,69,101,14
3,67,83,6
3,65,76,6
3,64,71,2
3,62,66,8
3,60,59,10
3,59,54,0
3,67,127,510
3,69,127,60
3,71,120,50
3,67,120,2
3,64,127,88
3,60,127,412
3,62,127,16
3,64,127,4
3,60,127,2
3,57,112,8
3,52,112,8
3,55,127,12
3,57,127,84
3,67,127,726
3,69,127,26
3,71,127,22
3,67,127,30
3,64,127,106
3,67,127,72
3,64,127,4
3,64,66,0
3,64,61,114
3,64,61,17
3,60,127,260
3,62,127,56
3,64,127,48
3,60,127,4
3,57,127,72
3,52,127,56
3,55,127,58
3,57,120,4
3,59,127,32
3,60,127,4
3,57,105,68
3,55,103,4
3,53,95,2
3,52,88,8
3,50,81,6
3,48,74,6
3,47,68,6
3,45,63,6
3,43,58,6
3,59,127,140
3,60,127,58
3,62,127,54
3,60,127,116
3,52,127,12
3,45,127,0
3,52,127,6
3,67,90,28
3,91,74,12
3,64,127,4
3,62,127,222
3,64,127,4
3,69,127,44
3,64,127,12
3,69,127,14
3,72,127,36
3,69,127,4
3,72,125,30
3,69,125,18
3,67,125,12
3,69,127,2
3,57,76,52
3,60,97,18
3,64,120,4
3,69,127,2
3,71,127,118
3,71,127,32
3,71,127,2
3,67,69,6
3,69,69,4
3,65,72,4
3,64,75,0
3,62,77,4
3,60,80,4
3,59,82,4
3,57,84,4
3,55,86,4
3,53,88,4
3,52,90,2
3,50,91,2
3,48,93,2
3,47,95,2
3,45,96,4
3,43,97,2
3,41,99,2
3,40,101,4
3,38,96,0
3,71,127,2
3,72,127,12
3,74,127,26
3,76,127,8
3,76,127,2
3,76,127,4
3,74,127,28
3,74,127,6
3,74,127,4
3,74,127,6
3,74,127,6
3,74,127,2
3,74,127,4
3,74,127,4
3,79,127,24
3,76,127,30
3,74,127,16
3,76,127,14
3,74,127,8
3,72,127,0
3,74,127,4
3,72,127,38
3,69,127,34
3,71,127,0
3,69,127,34
3,67,127,32
3,64,127,34
3,67,127,30
3,69,127,32
3,72,127,32
3,74,127,30
