track,note,velocity,time
0,42,100,239
0,42,0,3
0,42,85,93
0,42,0,3
0,42,85,93
0,42,0,3
0,59,71,61
0,71,62,0
0,38,40,3
0,35,127,1
0,38,0,2
0,40,68,2
0,40,0,3
0,35,0,12
0,71,0,6
0,59,0,0
0,38,127,3
0,38,91,0
0,62,114,1
0,74,105,0
0,38,0,2
0,38,0,19
0,62,0,6
0,74,0,0
0,38,100,0
0,35,127,1
0,38,0,2
0,59,96,0
0,71,87,0
0,35,0,19
0,71,0,3
0,59,0,0
0,38,127,4
0,62,123,2
0,38,100,0
0,74,114,1
0,38,0,2
0,38,0,18
0,62,0,0
0,74,0,0
0,64,114,4
0,76,105,1
0,71,114,2
0,40,127,1
0,38,118,4
0,38,0,3
0,46,82,1
0,46,0,3
0,71,0,28
0,64,0,8
0,76,0,1
0,40,0,2
0,42,84,54
0,42,0,3
0,42,70,61
0,42,0,3
0,46,82,29
0,46,0,3
0,42,84,93
0,42,0,3
0,42,70,61
0,42,0,3
0,46,82,29
0,46,0,3
0,42,84,93
0,42,0,3
0,42,70,61
0,42,0,3
0,46,82,29
0,46,0,3
0,71,62,61
0,59,71,0
0,38,40,3
0,35,127,1
0,38,0,2
0,40,68,2
0,40,0,3
0,35,0,12
0,59,0,6
0,71,0,0
0,38,127,3
0,38,91,0
0,74,105,1
0,62,114,0
0,38,0,2
0,38,0,19
0,74,0,6
0,62,0,0
0,38,100,0
0,35,127,1
0,38,0,2
0,59,96,0
0,71,87,0
0,35,0,19
0,71,0,3
0,59,0,0
0,38,127,4
0,62,123,2
0,38,100,0
0,74,114,1
0,38,0,2
0,38,0,18
0,62,0,0
0,74,0,0
0,64,114,4
0,76,105,1
0,71,114,2
0,40,127,1
0,38,118,4
0,38,0,3
0,46,82,1
0,46,0,3
0,71,0,28
0,64,0,8
0,76,0,1
0,40,0,2
0,42,84,54
0,42,0,3
0,42,70,61
0,42,0,3
0,46,82,29
0,46,0,3
0,42,84,93
0,42,0,3
0,42,70,61
0,42,0,3
0,46,82,29
0,46,0,3
0,42,84,93
0,42,0,3
0,42,70,61
0,42,0,3
0,46,82,29
0,46,0,3
0,71,62,61
0,59,71,0
0,38,40,3
0,35,127,1
0,38,0,2
0,40,68,2
0,40,0,3
0,35,0,12
0,59,0,6
0,71,0,0
0,38,127,3
0,38,91,0
0,62,114,1
0,74,105,0
0,38,0,2
0,38,0,19
0,62,0,6
0,74,0,0
0,38,100,0
0,35,127,1
0,38,0,2
0,59,96,0
0,71,87,0
0,35,0,19
0,71,0,3
0,59,0,0
0,38,127,4
0,62,123,2
0,38,100,0
0,74,114,1
0,38,0,2
0,38,0,18
0,62,0,0
0,74,0,0
0,64,114,4
0,76,105,1
0,71,114,2
0,40,127,1
0,38,118,4
0,38,0,3
0,46,82,1
0,46,0,3
0,71,0,28
0,64,0,8
0,76,0,1
0,40,0,2
0,42,84,54
0,42,0,3
0,42,70,61
0,42,0,3
0,46,82,29
0,46,0,3
0,42,84,93
0,42,0,3
0,42,70,61
0,42,0,3
0,46,82,29
0,46,0,3
0,42,84,93
0,42,0,3
0,42,70,61
0,42,0,3
0,46,82,29
0,46,0,3
0,71,62,61
0,59,71,0
0,38,40,3
0,35,127,1
0,38,0,2
0,40,68,2
0,40,0,3
0,35,0,12
0,59,0,6
0,71,0,0
0,38,127,3
0,38,91,0
0,62,114,1
0,74,105,0
0,38,0,2
0,38,0,19
0,62,0,6
0,74,0,0
0,38,100,0
0,35,127,1
0,38,0,2
0,59,96,0
0,71,87,0
0,35,0,19
0,71,0,3
0,59,0,0
0,38,127,4
0,62,123,2
0,38,100,0
0,74,114,1
0,38,0,2
0,38,0,18
0,62,0,0
0,74,0,0
0,64,114,4
0,76,105,1
0,71,114,2
0,40,127,1
0,38,118,4
0,38,0,3
0,46,82,1
0,46,0,3
0,71,0,28
0,64,0,8
0,76,0,1
0,40,0,2
0,42,84,54
0,42,0,3
0,42,70,61
0,42,0,3
0,46,82,29
0,46,0,3
0,42,84,93
0,42,0,3
0,42,70,61
0,42,0,3
0,46,82,29
0,46,0,3
0,42,84,93
0,42,0,3
0,42,70,61
0,42,0,3
0,46,82,29
0,46,0,3
0,71,62,61
0,59,71,0
0,38,40,3
0,35,127,1
0,38,0,2
0,40,68,2
0,40,0,3
0,35,0,12
0,59,0,6
0,71,0,0
0,38,127,3
0,38,91,0
0,74,105,1
0,62,114,0
0,38,0,2
0,38,0,19
0,74,0,6
0,62,0,0
0,38,100,0
0,35,127,1
0,38,0,2
0,59,96,0
0,71,87,0
0,35,0,19
0,71,0,3
0,59,0,0
0,38,127,4
0,62,123,2
0,38,100,0
0,74,114,1
0,38,0,2
0,38,0,18
0,62,0,0
0,74,0,0
0,64,114,4
0,76,105,1
0,71,114,2
0,40,127,1
0,38,118,4
0,38,0,3
0,46,82,1
0,46,0,3
0,71,0,28
0,64,0,8
0,76,0,1
0,40,0,2
0,42,84,54
0,42,0,3
0,42,70,61
0,42,0,3
0,46,82,29
0,46,0,3
0,42,84,93
0,42,0,3
0,42,70,61
0,42,0,3
0,46,82,29
0,46,0,3
0,42,84,93
0,42,0,3
0,42,70,61
0,42,0,3
0,46,82,29
0,46,0,3
0,35,127,63
0,59,105,1
0,47,100,0
0,38,70,0
0,38,0,3
0,35,0,15
0,57,96,9
0,45,91,0
0,33,127,2
0,38,91,0
0,38,0,3
0,59,0,3
0,47,0,0
0,33,0,46
0,31,127,8
0,57,0,1
0,45,0,0
0,43,90,3
0,55,95,0
0,36,91,0
0,36,0,3
0,31,0,16
0,38,100,8
0,28,127,1
0,55,0,1
0,43,0,0
0,38,0,1
0,40,108,0
0,52,113,0
0,28,0,38
0,52,0,3
0,40,0,0
0,40,105,247
0,80,114,0
0,86,114,0
0,52,96,0
0,28,127,2
0,28,0,36
0,40,0,1
0,80,0,1
0,86,0,0
0,52,0,1
0,52,105,22
0,80,105,0
0,86,114,0
0,28,127,1
0,40,108,0
0,28,0,44
0,52,0,4
0,40,0,0
0,86,0,4
0,80,0,0
0,44,69,78
0,44,0,3
0,35,127,93
0,38,109,3
0,38,0,3
0,35,0,21
0,38,127,3
0,38,100,4
0,38,0,3
0,38,0,21
0,35,127,4
0,38,100,3
0,38,0,3
0,35,0,16
0,38,127,11
0,38,100,2
0,38,0,3
0,38,0,22
0,38,109,3
0,35,127,2
0,38,0,1
0,35,0,19
0,38,109,9
0,38,0,3
0,38,127,0
0,38,0,25
0,28,127,8
0,52,114,0
0,59,105,0
0,49,80,0
0,36,100,0
0,36,0,3
0,49,0,0
0,59,0,34
0,28,0,4
0,52,0,3
0,59,87,19
0,28,127,1
0,42,66,0
0,52,83,1
0,42,0,2
0,52,0,13
0,28,0,3
0,59,0,6
0,52,96,4
0,61,87,1
0,28,127,2
0,42,100,0
0,38,109,0
0,38,0,3
0,42,0,0
0,61,0,31
0,52,0,7
0,28,0,5
0,61,87,16
0,52,87,0
0,28,127,2
0,36,56,0
0,42,64,0
0,42,0,3
0,36,0,0
0,52,0,10
0,28,0,11
0,61,0,1
0,52,96,2
0,59,96,1
0,28,127,4
0,42,91,0
0,36,100,0
0,36,0,3
0,42,0,0
0,59,0,32
0,28,0,7
0,52,0,1
0,59,96,18
0,52,79,1
0,28,127,2
0,42,64,0
0,42,0,3
0,52,0,9
0,59,0,4
0,28,0,6
0,52,105,5
0,61,96,0
0,28,127,5
0,42,100,0
0,38,109,0
0,38,0,3
0,42,0,0
0,61,0,32
0,52,0,7
0,28,0,3
0,61,96,18
0,52,87,0
0,28,127,1
0,42,64,0
0,42,0,3
0,52,0,12
0,61,0,7
0,28,0,3
0,52,105,4
0,59,87,1
0,28,127,2
0,42,91,0
0,36,100,0
0,36,0,3
0,42,0,0
0,59,0,32
0,52,0,5
0,28,0,1
0,68,105,21
0,74,105,0
0,28,127,2
0,59,96,0
0,42,69,0
0,52,96,1
0,42,0,2
0,52,0,14
0,59,0,4
0,28,0,4
0,61,87,4
0,52,96,0
0,68,0,2
0,28,127,1
0,38,109,0
0,42,100,0
0,74,0,1
0,38,0,2
0,42,0,0
0,61,0,35
0,52,0,3
0,28,0,5
0,61,87,15
0,52,79,1
0,28,127,2
0,36,56,0
0,42,56,0
0,42,0,3
0,36,0,0
0,28,0,18
0,52,0,0
0,61,0,5
0,68,114,2
0,59,96,1
0,52,87,1
0,74,105,1
0,28,127,1
0,36,100,0
0,42,91,0
0,42,0,3
0,36,0,0
0,59,0,31
0,52,0,3
0,28,0,5
0,52,96,21
0,59,96,0
0,28,127,1
0,42,64,0
0,42,0,3
0,52,0,14
0,59,0,4
0,28,0,3
0,61,92,5
0,52,88,1
0,28,127,2
0,38,109,0
0,42,100,0
0,42,0,3
0,38,0,0
0,61,0,32
0,52,0,5
0,28,0,5
0,61,87,18
0,28,127,1
0,52,96,0
0,42,64,0
0,42,0,3
0,52,0,14
0,68,0,8
0,28,0,1
0,61,0,0
0,74,0,2
0,52,96,2
0,59,87,1
0,28,127,1
0,36,100,0
0,42,91,0
0,42,0,3
0,36,0,0
0,59,0,31
0,52,0,5
0,28,0,2
0,59,96,21
0,74,90,1
0,52,96,0
0,68,90,0
0,28,127,1
0,42,66,0
0,42,0,3
0,52,0,13
0,28,0,3
0,59,0,0
0,74,0,2
0,68,0,1
0,52,96,7
0,61,83,0
0,28,127,3
0,38,109,0
0,42,100,0
0,42,0,3
0,38,0,0
0,52,0,37
0,61,0,0
0,28,0,6
0,61,83,17
0,28,127,1
0,52,83,0
0,36,56,0
0,42,64,0
0,42,0,3
0,36,0,0
0,52,0,15
0,28,0,6
0,61,0,5
0,52,96,0
0,68,96,1
0,59,96,1
0,74,92,0
0,28,127,1
0,42,91,0
0,36,100,0
0,36,0,3
0,42,0,0
0,68,0,27
0,74,0,0
0,59,0,4
0,52,0,1
0,28,0,7
0,59,96,20
0,52,87,1
0,28,127,1
0,42,64,0
0,42,0,3
0,52,0,13
0,59,0,5
0,28,0,1
0,52,96,6
0,61,87,1
0,28,127,3
0,42,100,0
0,38,109,0
0,38,0,3
0,42,0,0
0,52,0,35
0,61,0,4
0,28,0,3
0,61,83,18
0,52,83,0
0,28,127,1
0,42,64,0
0,42,0,3
0,52,0,19
0,28,0,3
0,61,0,3
0,52,92,1
0,59,98,2
0,28,127,1
0,42,91,0
0,36,100,0
0,36,0,3
0,42,0,0
0,52,0,33
0,59,0,2
0,28,0,3
0,83,97,19
0,80,103,0
0,52,72,1
0,74,100,0
0,28,127,3
0,42,69,0
0,42,0,3
0,74,0,15
0,83,0,1
0,80,0,5
0,28,0,1
0,54,113,5
0,52,0,2
0,30,127,0
0,38,109,0
0,42,100,0
0,42,0,3
0,38,0,0
0,30,0,44
0,54,0,11
0,52,79,5
0,28,127,1
0,36,56,0
0,42,56,0
0,42,0,3
0,36,0,0
0,28,0,22
0,52,0,3
0,55,107,3
0,80,93,0
0,83,105,0
0,74,105,0
0,31,127,1
0,42,91,0
0,36,100,0
0,36,0,3
0,42,0,0
0,74,0,33
0,83,0,1
0,80,0,0
0,31,0,11
0,55,0,10
0,52,79,4
0,28,127,2
0,42,64,0
0,42,0,3
0,28,0,23
0,56,107,3
0,80,75,1
0,74,87,0
0,83,77,0
0,32,127,2
0,38,109,0
0,42,100,0
0,42,0,3
0,38,0,0
0,52,0,0
0,80,0,37
0,74,0,2
0,83,0,0
0,32,0,3
0,56,0,10
0,81,105,8
0,52,89,0
0,85,107,0
0,28,127,1
0,42,64,0
0,42,0,3
0,28,0,23
0,85,0,3
0,64,105,1
0,52,0,1
0,81,0,0
0,57,114,0
0,33,127,1
0,36,100,0
0,42,91,0
0,42,0,3
0,36,0,0
0,64,0,33
0,33,0,4
0,57,0,3
0,64,87,20
0,33,127,1
0,42,66,0
0,57,83,1
0,42,0,2
0,57,0,13
0,33,0,8
0,64,0,1
0,57,96,4
0,73,96,1
0,69,105,0
0,66,87,0
0,33,127,2
0,38,109,0
0,42,100,0
0,42,0,3
0,38,0,0
0,66,0,31
0,57,0,7
0,33,0,5
0,73,0,2
0,69,0,1
0,66,87,13
0,57,87,0
0,33,127,2
0,36,56,0
0,42,64,0
0,42,0,3
0,36,0,0
0,57,0,10
0,33,0,11
0,66,0,1
0,57,96,2
0,64,96,1
0,33,127,4
0,36,100,0
0,42,91,0
0,42,0,3
0,36,0,0
0,64,0,32
0,33,0,7
0,57,0,1
0,64,96,18
0,57,79,1
0,33,127,2
0,42,64,0
0,42,0,3
0,57,0,9
0,64,0,4
0,33,0,7
0,57,105,4
0,66,96,0
0,69,101,1
0,73,105,0
0,33,127,4
0,38,109,0
0,42,100,0
0,42,0,3
0,38,0,0
0,66,0,32
0,73,0,6
0,57,0,1
0,69,0,1
0,33,0,2
0,57,87,18
0,64,96,0
0,33,127,1
0,42,64,0
0,42,0,3
0,57,0,17
0,64,0,2
0,33,0,3
0,59,105,4
0,66,87,1
0,35,127,2
0,36,100,0
0,42,91,0
0,42,0,3
0,36,0,0
0,66,0,32
0,59,0,5
0,35,0,1
0,69,105,19
0,75,105,1
0,66,96,1
0,59,96,1
0,35,127,1
0,42,69,0
0,42,0,3
0,59,0,12
0,69,0,2
0,66,0,2
0,75,0,6
0,35,0,0
0,59,96,4
0,68,87,0
0,35,127,3
0,38,109,0
0,42,100,0
0,42,0,3
0,38,0,0
0,68,0,35
0,59,0,3
0,35,0,5
0,68,87,15
0,59,79,1
0,35,127,2
0,36,56,0
0,42,56,0
0,42,0,3
0,36,0,0
0,59,0,18
0,35,0,3
0,68,0,2
0,66,96,3
0,69,105,0
0,75,114,0
0,59,87,1
0,35,127,2
0,36,100,0
0,42,91,0
0,42,0,3
0,36,0,0
0,66,0,31
0,59,0,3
0,69,0,0
0,75,0,4
0,35,0,1
0,66,96,21
0,35,127,1
0,59,96,0
0,71,87,0
0,42,64,0
0,42,0,3
0,71,0,7
0,59,0,8
0,66,0,3
0,35,0,3
0,68,92,5
0,83,116,0
0,71,105,1
0,59,88,0
0,35,127,2
0,38,109,0
0,42,100,0
0,42,0,3
0,38,0,0
0,68,0,32
0,59,0,5
0,71,0,3
0,35,0,2
0,83,0,1
0,68,87,17
0,33,127,1
0,59,96,0
0,42,64,0
0,42,0,3
0,59,0,14
0,33,0,9
0,68,0,0
0,52,96,4
0,59,87,1
0,28,127,1
0,36,100,0
0,42,91,0
0,42,0,3
0,36,0,0
0,59,0,31
0,52,0,5
0,28,0,2
0,52,77,21
0,64,87,1
0,28,127,1
0,42,66,0
0,42,0,3
0,64,0,21
0,28,0,1
0,68,105,1
0,76,87,0
0,52,0,3
0,56,105,0
0,32,127,3
0,38,109,0
0,42,100,0
0,42,0,3
0,38,0,0
0,56,0,47
0,76,0,0
0,68,0,4
0,64,79,1
0,32,0,1
0,52,87,2
0,28,127,6
0,36,56,0
0,42,64,0
0,42,0,3
0,36,0,0
0,64,0,6
0,28,0,14
0,52,0,2
0,76,87,1
0,69,105,0
0,57,114,2
0,33,127,4
0,42,91,0
0,36,100,0
0,36,0,3
0,42,0,0
0,33,0,49
0,57,0,1
0,76,0,0
0,69,0,3
0,64,79,1
0,52,83,2
0,28,127,5
0,42,64,0
0,42,0,3
0,64,0,8
0,28,0,13
0,76,96,0
0,70,96,1
0,52,0,1
0,58,105,2
0,34,127,4
0,42,100,0
0,38,109,0
0,38,0,3
0,42,0,0
0,34,0,50
0,64,75,3
0,58,0,3
0,70,0,0
0,52,75,1
0,76,0,3
0,28,127,1
0,42,64,0
0,42,0,3
0,64,0,11
0,52,0,6
0,28,0,6
0,71,105,1
0,59,114,0
0,35,127,5
0,42,91,0
0,36,100,0
0,36,0,3
0,42,0,0
0,71,0,31
0,35,0,7
0,59,0,5
0,71,87,17
0,59,96,0
0,35,127,1
0,42,69,0
0,42,0,3
0,71,0,20
0,35,0,3
0,59,0,1
0,74,114,3
0,62,114,1
0,38,127,1
0,38,109,0
0,42,100,0
0,42,0,3
0,38,0,0
0,38,0,49
