track,note,velocity,time
0,66,81,239
0,66,0,4
0,66,91,28
0,66,0,4
0,66,108,28
0,66,0,4
0,65,105,28
0,65,0,4
0,65,120,140
0,65,0,4
0,65,120,140
0,65,0,4
0,65,127,92
0,65,0,4
0,57,117,188
0,57,110,0
0,65,123,0
0,65,127,0
0,57,0,4
0,65,0,0
0,65,0,154
0,57,0,6
0,57,89,24
0,60,93,0
0,65,82,0
0,38,98,4
0,50,98,0
0,53,104,0
0,57,104,0
0,60,107,0
0,72,119,0
0,69,116,96
0,72,0,15
0,72,115,81
0,69,0,7
0,69,116,89
0,72,0,13
0,72,120,87
0,69,0,9
0,81,118,83
0,72,0,20
0,79,119,76
0,81,0,22
0,53,0,142
0,38,0,2
0,50,0,0
0,79,0,0
0,57,0,4
0,60,0,9
0,57,0,5
0,60,0,0
0,65,0,0
0,59,81,4
0,62,82,0
0,67,88,0
0,43,95,4
0,50,95,0
0,55,103,0
0,59,104,0
0,62,100,0
0,67,119,672
0,43,0,76
0,50,0,0
0,62,0,7
0,55,0,5
0,59,0,0
0,59,0,0
0,62,0,0
0,67,0,0
0,60,84,4
0,65,85,0
0,69,82,0
0,38,100,4
0,50,100,0
0,53,99,0
0,57,100,0
0,60,96,0
0,67,0,0
0,79,112,0
0,79,0,45
0,79,114,55
0,77,119,92
0,79,0,0
0,77,0,66
0,77,115,30
0,76,119,96
0,77,0,0
0,79,114,192
0,76,0,8
0,76,116,92
0,79,0,12
0,57,0,55
0,53,0,4
0,60,0,3
0,38,0,10
0,50,0,0
0,60,0,0
0,65,0,0
0,69,0,0
0,60,81,4
0,62,86,0
0,67,86,0
0,43,93,4
0,50,93,0
0,55,99,0
0,60,105,0
0,62,103,0
0,74,121,4
0,76,0,19
0,74,0,82
0,55,0,268
0,62,0,0
0,60,0,3
0,62,0,0
0,67,0,0
0,60,0,2
0,43,0,1
0,50,0,0
0,59,88,1
0,62,81,0
0,67,81,0
0,43,103,4
0,50,103,0
0,55,104,0
0,59,98,0
0,62,100,0
0,65,123,192
0,65,0,158
0,59,0,14
0,43,0,2
0,50,0,0
0,55,0,2
0,62,0,1
0,59,0,7
0,62,0,0
0,67,0,0
0,57,89,4
0,60,101,0
0,60,93,0
0,65,82,0
0,26,111,4
0,38,98,0
0,50,98,0
0,53,104,0
0,57,104,0
0,60,107,0
0,61,108,0
0,72,119,0
0,61,0,4
0,61,106,92
0,69,116,0
0,61,0,4
0,72,0,11
0,63,114,81
0,72,115,0
0,63,0,4
0,69,0,3
0,69,116,89
0,72,0,13
0,61,114,35
0,61,0,4
0,72,120,48
0,69,0,9
0,61,114,83
0,81,118,0
0,61,0,4
0,72,0,16
0,63,114,76
0,79,119,0
0,63,0,4
0,81,0,18
0,63,110,122
0,63,0,4
0,53,0,16
0,38,0,2
0,50,0,0
0,79,0,0
0,57,0,4
0,60,0,3
0,26,0,4
0,60,0,2
0,57,0,5
0,60,0,0
0,65,0,0
0,59,81,4
0,62,100,0
0,62,82,0
0,67,88,0
0,31,105,4
0,43,95,0
0,50,95,0
0,55,103,0
0,59,104,0
0,61,110,0
0,62,100,0
0,61,0,4
0,61,110,92
0,61,0,4
0,63,114,92
0,63,0,4
0,61,114,140
0,61,0,4
0,61,110,140
0,61,0,4
0,63,114,92
0,63,0,4
0,67,119,92
0,63,114,48
0,63,0,4
0,62,0,20
0,43,0,4
0,50,0,0
0,62,0,7
0,55,0,5
0,59,0,0
0,59,0,0
0,62,0,0
0,67,0,0
0,60,84,4
0,64,108,0
0,65,85,0
0,69,82,0
0,31,0,2
0,26,111,2
0,38,100,0
0,50,100,0
0,53,99,0
0,57,100,0
0,60,96,0
0,61,114,0
0,67,0,0
0,79,112,0
0,61,0,4
0,79,0,41
0,61,114,51
0,61,0,4
0,79,114,0
0,63,114,92
0,77,119,0
0,79,0,0
0,63,0,4
0,77,0,62
0,77,115,30
0,61,110,48
0,61,0,4
0,76,119,44
0,77,0,0
0,61,114,96
0,61,0,4
0,63,114,92
0,79,114,0
0,63,0,4
0,76,0,4
0,61,110,88
0,61,0,4
0,76,116,0
0,79,0,12
0,63,110,32
0,63,0,4
0,57,0,19
0,53,0,4
0,60,0,3
0,26,0,10
0,38,0,0
0,50,0,0
0,60,0,0
0,65,0,0
0,69,0,0
0,60,93,4
0,60,81,0
0,62,106,0
0,62,86,0
0,64,0,0
0,67,90,0
0,67,86,0
0,31,115,4
0,43,93,0
0,50,93,0
0,55,99,0
0,60,105,0
0,61,110,0
0,62,103,0
0,65,105,0
0,61,0,4
0,65,0,0
0,74,121,0
0,76,0,19
0,74,0,82
0,65,120,39
0,65,0,4
0,65,120,140
0,65,0,4
0,55,0,81
0,62,0,0
0,62,0,1
0,60,0,2
0,60,0,0
0,62,0,0
0,67,0,0
0,67,0,0
0,60,0,2
0,43,0,1
0,50,0,0
0,59,85,1
0,59,88,0
0,62,85,0
0,62,81,0
0,67,91,0
0,67,81,0
0,43,103,4
0,50,103,0
0,55,104,0
0,59,98,0
0,62,100,0
0,65,127,0
0,65,0,4
0,31,0,153
0,31,111,35
0,57,110,0
0,61,117,0
0,65,123,0
0,65,127,0
0,57,0,4
0,65,0,0
0,59,0,36
0,62,0,0
0,67,0,0
0,59,0,35
0,62,0,0
0,67,0,6
0,31,0,28
0,65,0,49
0,61,0,6
0,59,0,8
0,43,0,2
0,50,0,0
0,55,0,2
0,62,0,1
0,36,114,15
0,36,127,0
0,42,90,0
0,49,110,0
0,76,115,0
0,76,102,0
0,36,0,4
0,42,0,0
0,49,0,0
0,76,0,0
0,76,0,4
0,76,111,40
0,36,0,21
0,76,0,13
0,46,100,14
0,54,86,0
0,55,92,0
0,60,96,0
0,64,96,0
0,72,115,0
0,46,0,4
0,54,0,0
0,72,0,20
0,55,0,10
0,60,0,0
0,64,0,0
0,42,93,14
0,54,78,0
0,76,104,0
0,42,0,4
0,54,0,0
0,76,0,0
0,36,127,44
0,40,99,0
0,42,83,0
0,72,111,0
0,36,0,4
0,40,0,0
0,42,0,0
0,72,0,14
0,72,114,30
0,72,0,24
0,36,117,24
0,46,100,0
0,54,90,0
0,55,95,0
0,60,102,0
0,64,100,0
0,69,115,0
0,76,107,0
0,46,0,4
0,54,0,0
0,76,0,0
0,69,0,20
0,60,0,5
0,55,0,5
0,64,0,1
0,42,90,13
0,54,86,0
0,67,125,0
0,42,0,4
0,54,0,0
0,36,0,12
0,67,0,7
0,36,127,25
0,42,88,0
0,36,0,4
0,42,0,0
0,72,120,0
0,72,0,29
0,36,112,63
0,46,100,0
0,54,86,0
0,55,95,0
0,60,102,0
0,64,96,0
0,72,117,0
0,76,107,0
0,46,0,4
0,54,0,0
0,76,0,0
0,36,0,17
0,60,0,12
0,72,0,1
0,55,0,5
0,64,0,1
0,36,113,8
0,42,96,0
0,54,80,0
0,76,127,0
0,42,0,4
0,54,0,0
0,36,0,15
0,28,107,29
0,36,127,0
0,40,97,0
0,42,85,0
0,36,0,4
0,40,0,0
0,42,0,0
0,76,0,29
0,28,0,31
0,31,112,32
0,46,100,0
0,54,80,0
0,55,93,0
0,60,93,0
0,64,92,0
0,76,104,0
0,46,0,4
0,54,0,0
0,76,0,0
0,55,0,20
0,60,0,0
0,64,0,0
0,42,96,24
0,54,85,0
0,55,89,0
0,60,93,0
0,64,93,0
0,42,0,4
0,54,0,0
0,31,0,14
0,60,0,16
0,55,0,6
0,64,0,5
0,33,117,3
0,36,127,0
0,42,93,0
0,43,107,0
0,76,102,0
0,36,0,4
0,42,0,0
0,76,0,0
0,43,0,14
0,43,86,30
0,43,0,18
0,33,0,5
0,43,88,25
0,46,100,0
0,54,80,0
0,57,95,0
0,60,96,0
0,64,96,0
0,46,0,4
0,54,0,0
0,43,0,20
0,60,0,10
0,57,0,5
0,64,0,6
0,42,100,3
0,43,98,0
0,54,90,0
0,76,98,0
0,42,0,4
0,54,0,0
0,76,0,0
0,43,0,25
0,36,127,19
0,40,96,0
0,42,90,0
0,45,107,0
0,36,0,4
0,40,0,0
0,42,0,0
0,45,0,25
0,45,102,19
0,45,0,24
0,33,120,24
0,43,117,0
0,46,96,0
0,54,80,0
0,57,95,0
0,60,100,0
0,64,98,0
0,76,102,0
0,46,0,4
0,54,0,0
0,76,0,0
0,43,0,29
0,60,0,1
0,57,0,10
0,64,0,0
0,42,96,4
0,54,83,0
0,42,0,4
0,54,0,0
0,33,0,18
0,36,127,26
0,42,90,0
0,36,0,4
0,42,0,0
0,33,107,92
0,46,93,0
0,54,83,0
0,57,96,0
0,60,98,0
0,64,98,0
0,76,98,0
0,79,120,0
0,46,0,4
0,54,0,0
0,76,0,0
0,33,0,22
0,60,0,8
0,64,0,11
0,33,109,3
0,42,96,0
0,54,86,0
0,57,0,2
0,42,0,2
0,54,0,0
0,33,0,28
0,26,107,16
0,36,127,0
0,40,95,0
0,42,87,0
0,76,100,0
0,36,0,4
0,40,0,0
0,42,0,0
0,76,0,0
0,26,0,58
0,28,112,34
0,40,86,0
0,46,88,0
0,54,83,0
0,57,96,0
0,60,90,0
0,64,89,0
0,76,92,0
0,40,0,4
0,46,0,0
0,54,0,0
0,76,0,0
0,60,0,9
0,57,0,11
0,64,0,5
0,42,93,19
0,54,80,0
0,57,90,0
0,60,96,0
0,64,93,0
0,42,0,4
0,54,0,0
0,28,0,12
0,57,0,23
0,60,0,0
0,64,0,7
0,29,114,2
0,36,127,0
0,42,83,0
0,76,115,0
0,76,102,0
0,36,0,4
0,42,0,0
0,76,0,0
0,79,0,2
0,29,0,67
0,76,0,10
0,46,90,13
0,54,80,0
0,57,95,0
0,60,102,0
0,65,98,0
0,72,115,0
0,46,0,4
0,54,0,0
0,72,0,20
0,60,0,10
0,57,0,6
0,42,93,8
0,54,83,0
0,72,111,0
0,76,102,0
0,65,0,2
0,42,0,2
0,54,0,0
0,76,0,0
0,72,0,30
0,36,127,14
0,40,96,0
0,42,82,0
0,72,111,0
0,36,0,4
0,40,0,0
0,42,0,0
0,72,0,14
0,72,114,30
0,72,0,24
0,29,114,24
0,46,90,0
0,54,86,0
0,57,96,0
0,60,104,0
0,65,98,0
0,69,115,0
0,76,100,0
0,46,0,4
0,54,0,0
0,76,0,0
0,69,0,20
0,60,0,14
0,57,0,2
0,65,0,5
0,42,93,3
0,54,90,0
0,42,0,4
0,54,0,0
0,29,0,12
0,36,127,32
0,42,83,0
0,36,0,4
0,42,0,0
0,72,120,0
0,72,0,29
0,72,125,15
0,72,0,23
0,29,104,25
0,46,93,0
0,54,83,0
0,57,95,0
0,60,102,0
0,65,102,0
0,74,117,0
0,76,104,0
0,46,0,4
0,54,0,0
0,76,0,0
0,29,0,15
0,60,0,19
0,57,0,6
0,29,107,4
0,42,93,0
0,54,86,0
0,65,0,3
0,42,0,1
0,54,0,0
0,29,0,15
0,74,0,15
0,24,107,14
0,36,127,0
0,40,93,0
0,42,78,0
0,72,127,0
0,36,0,4
0,40,0,0
0,42,0,0
0,69,95,44
0,72,0,4
0,24,0,14
0,29,119,30
0,46,90,0
0,54,83,0
0,57,89,0
0,60,96,0
0,65,92,0
0,76,102,0
0,46,0,4
0,54,0,0
0,76,0,0
0,69,0,8
0,57,0,12
0,60,0,0
0,65,0,0
0,42,96,24
0,54,73,0
0,57,93,0
0,60,96,0
0,65,88,0
0,42,0,4
0,54,0,0
0,29,0,9
0,60,0,21
0,57,0,6
0,65,0,0
0,31,114,8
0,36,127,0
0,42,83,0
0,43,104,0
0,76,104,0
0,36,0,4
0,42,0,0
0,76,0,0
0,43,0,19
0,43,98,25
0,31,0,22
0,43,0,2
0,43,102,24
0,46,90,0
0,54,80,0
0,55,100,0
0,60,104,0
0,62,104,0
0,46,0,4
0,54,0,0
0,43,0,14
0,60,0,26
0,42,96,4
0,43,114,0
0,54,83,0
0,76,102,0
0,55,0,2
0,42,0,2
0,54,0,0
0,76,0,0
0,62,0,3
0,43,0,21
0,36,127,20
0,40,96,0
0,42,86,0
0,45,111,0
0,36,0,4
0,40,0,0
0,42,0,0
0,45,0,20
0,45,98,24
0,45,0,24
0,31,114,24
0,43,114,0
0,46,93,0
0,54,80,0
0,55,100,0
0,60,100,0
0,62,100,0
0,76,102,0
0,46,0,4
0,54,0,0
0,76,0,0
0,43,0,30
0,62,0,5
0,55,0,1
0,60,0,5
0,42,90,3
0,54,80,0
0,42,0,4
0,54,0,0
0,31,0,16
0,36,127,28
0,42,75,0
0,36,0,4
0,42,0,0
0,31,111,92
0,46,93,0
0,54,80,0
0,55,95,0
0,59,100,0
0,62,96,0
0,76,96,0
0,79,120,0
0,46,0,4
0,54,0,0
0,76,0,0
0,31,0,15
0,55,0,15
0,59,0,0
0,62,0,6
0,31,111,8
0,40,81,0
0,42,85,0
0,54,79,0
0,40,0,4
0,42,0,0
0,54,0,0
0,31,0,24
0,33,108,20
0,36,127,0
0,40,93,0
0,42,88,0
0,76,92,0
0,36,0,4
0,40,0,0
0,42,0,0
0,76,0,0
0,33,0,59
0,31,113,33
0,40,76,0
0,46,93,0
0,54,81,0
0,55,90,0
0,59,98,0
0,62,95,0
0,76,95,0
0,40,0,4
0,46,0,0
0,54,0,0
0,76,0,0
0,55,0,20
0,59,0,0
0,62,0,0
0,79,0,21
0,42,90,3
0,54,83,0
0,55,92,0
0,59,93,0
0,62,93,0
0,42,0,4
0,54,0,0
0,31,0,16
0,55,0,13
0,62,0,0
0,59,0,1
0,36,114,14
0,36,127,0
0,42,86,0
0,76,115,0
0,76,102,0
0,36,0,4
0,42,0,0
0,76,0,0
0,76,0,4
0,76,111,40
0,36,0,21
0,76,0,13
0,46,93,14
0,54,83,0
0,55,96,0
0,60,100,0
0,64,92,0
0,72,115,0
0,46,0,4
0,54,0,0
0,72,0,20
0,60,0,9
0,55,0,4
0,64,0,3
0,42,93,8
0,54,80,0
0,72,114,0
0,76,102,0
0,42,0,4
0,54,0,0
0,76,0,0
0,72,0,20
0,36,127,24
0,40,96,0
0,42,86,0
0,72,111,0
0,36,0,4
0,40,0,0
0,42,0,0
0,72,0,14
0,72,115,30
0,72,0,24
0,36,117,24
0,46,93,0
0,54,80,0
0,55,92,0
0,60,96,0
0,64,92,0
0,69,125,0
0,76,100,0
0,46,0,4
0,54,0,0
0,76,0,0
0,69,0,19
0,60,0,6
0,55,0,11
0,64,0,0
0,42,93,8
0,54,83,0
0,42,0,4
0,54,0,0
0,36,0,12
0,36,127,32
0,42,84,0
0,36,0,4
0,42,0,0
0,72,120,0
0,72,0,29
0,36,112,63
0,46,93,0
0,54,78,0
0,55,96,0
0,60,100,0
0,64,96,0
0,72,117,0
0,76,104,0
0,46,0,4
0,54,0,0
0,76,0,0
0,36,0,17
0,60,0,13
0,72,0,0
0,64,0,11
0,55,0,1
0,36,113,2
0,42,93,0
0,54,78,0
0,72,111,0
0,42,0,4
0,54,0,0
0,72,0,14
0,36,0,1
0,28,107,29
0,36,127,0
0,40,96,0
0,42,79,0
0,74,111,0
0,36,0,4
0,40,0,0
0,42,0,0
0,74,0,41
0,76,108,3
0,28,0,16
0,31,112,32
0,46,96,0
0,54,75,0
0,55,93,0
0,60,100,0
0,64,93,0
0,76,96,0
0,46,0,4
0,54,0,0
0,76,0,0
0,55,0,20
0,60,0,0
0,64,0,0
0,76,0,9
0,42,88,15
0,54,80,0
0,55,86,0
0,60,96,0
0,64,92,0
0,42,0,4
0,54,0,0
0,31,0,14
0,60,0,16
0,55,0,6
0,64,0,0
0,33,117,8
0,36,127,0
0,42,79,0
0,43,111,0
0,76,100,0
0,36,0,4
0,42,0,0
0,76,0,0
0,43,0,14
0,43,98,30
0,33,0,23
0,43,0,0
0,43,104,25
0,46,90,0
0,54,83,0
0,57,100,0
0,60,104,0
0,64,98,0
0,46,0,4
0,54,0,0
0,43,0,14
0,57,0,16
0,60,0,0
0,64,0,6
0,42,93,8
0,43,100,0
0,54,83,0
0,76,102,0
0,42,0,4
0,54,0,0
0,76,0,0
0,43,0,24
