track,note,velocity,time
1,38,122,6171
1,38,0,90
1,36,82,1
1,36,0,31
1,35,73,1
1,35,0,23
1,33,73,1
1,33,0,33
1,31,108,12
1,31,0,238
1,31,109,50
1,31,0,78
1,40,103,18
1,40,0,355
1,36,94,29
1,36,0,234
1,36,88,54
1,36,0,91
1,43,93,5
1,43,0,95
1,43,91,1
1,43,0,240
1,31,97,48
1,31,0,264
1,31,90,24
1,31,0,95
1,40,92,1
1,40,0,367
1,36,98,17
1,36,0,376
1,38,107,8
1,38,0,250
1,38,100,38
1,38,0,79
1,38,100,17
1,38,0,276
1,38,105,12
1,38,0,95
1,35,111,1
1,35,0,375
1,36,96,9
1,36,0,242
1,36,90,46
1,36,0,95
1,38,93,1
1,38,0,248
1,38,100,40
1,38,0,95
1,40,100,1
1,40,0,250
1,40,93,38
1,40,0,95
1,36,96,1
1,36,0,228
1,36,93,60
1,36,0,95
1,38,108,1
1,38,0,227
1,38,103,61
1,38,0,90
1,31,100,6
1,31,0,191
1,43,94,1
1,43,0,191
1,31,96,1
1,31,0,233
1,31,95,55
1,31,0,95
1,40,98,1
1,40,0,381
1,36,96,3
1,36,0,216
1,36,93,72
1,36,0,95
1,43,97,1
1,43,0,341
1,31,88,43
1,31,0,256
1,31,93,32
1,31,0,95
1,40,105,1
1,40,0,249
1,40,89,39
1,40,0,95
1,36,96,1
1,36,0,369
1,38,89,15
1,38,0,274
1,38,106,14
1,38,0,82
1,38,101,14
1,38,0,190
1,38,111,2
1,38,0,185
1,35,96,7
1,35,0,254
1,35,98,34
1,35,0,95
1,36,104,1
1,36,0,238
1,36,94,50
1,36,0,94
1,38,100,2
1,38,0,364
1,40,97,20
1,40,0,248
1,40,98,40
1,40,0,95
1,36,96,1
1,36,0,235
1,36,102,53
1,36,0,87
1,38,107,9
1,38,0,220
1,38,98,68
1,38,0,95
1,31,83,1
1,31,0,187
1,31,94,5
1,31,0,91
1,31,105,5
1,31,0,91
1,38,100,5
1,38,0,732
1,38,103,36
1,38,0,732
1,38,102,36
1,38,0,767
1,36,100,1
1,36,0,765
1,35,97,3
1,35,0,240
1,35,94,48
1,35,0,48
1,36,101,48
1,36,0,366
1,38,105,18
1,38,0,242
1,38,97,46
1,38,0,186
1,33,90,6
1,33,0,95
1,38,103,1
1,38,0,165
1,40,96,27
1,40,0,231
1,40,90,57
1,40,0,92
1,36,92,4
1,36,0,351
1,38,100,33
1,38,0,240
1,38,105,48
1,38,0,156
1,33,90,36
1,33,0,81
1,38,100,15
1,38,0,95
1,36,93,1
1,36,0,82
1,35,97,14
1,35,0,240
1,35,94,48
1,35,0,48
1,36,101,48
1,36,0,366
1,38,105,18
1,38,0,242
1,38,97,46
1,38,0,186
1,33,90,6
1,33,0,95
1,38,103,1
1,38,0,165
1,40,96,27
1,40,0,231
1,40,90,57
1,40,0,92
1,36,92,4
1,36,0,351
1,38,100,33
1,38,0,288
1,38,105,96
1,38,0,192
1,35,82,96
1,35,0,95
1,40,100,1
1,40,0,250
1,40,93,38
1,40,0,95
1,36,96,1
1,36,0,228
1,36,93,60
1,36,0,95
1,38,108,1
1,38,0,227
1,38,103,61
1,38,0,90
1,31,100,6
1,31,0,191
1,43,94,1
1,43,0,191
1,31,108,1
1,31,0,238
1,31,109,50
1,31,0,78
1,40,103,18
1,40,0,355
1,36,94,29
1,36,0,234
1,36,88,54
1,36,0,91
1,43,93,5
1,43,0,95
1,43,91,1
1,43,0,240
1,31,97,48
1,31,0,264
1,31,90,24
1,31,0,95
1,40,92,1
1,40,0,367
1,36,98,17
1,36,0,376
1,38,107,8
1,38,0,250
1,38,100,38
1,38,0,79
1,38,100,17
1,38,0,276
1,38,105,12
1,38,0,95
1,35,111,1
1,35,0,375
1,36,96,9
1,36,0,242
1,36,90,46
1,36,0,95
1,38,93,1
1,38,0,248
1,38,100,40
1,38,0,95
1,40,100,1
1,40,0,250
1,40,93,38
1,40,0,95
1,36,96,1
1,36,0,228
1,36,93,60
1,36,0,95
1,38,108,1
1,38,0,227
1,38,103,61
1,38,0,90
1,31,100,6
1,31,0,191
1,43,94,1
1,43,0,191
1,31,96,1
1,31,0,233
1,31,95,55
1,31,0,95
1,40,98,1
1,40,0,381
1,36,96,3
1,36,0,216
1,36,93,72
1,36,0,95
1,43,97,1
1,43,0,341
1,31,88,43
1,31,0,256
1,31,93,32
1,31,0,95
1,40,105,1
1,40,0,249
1,40,89,39
1,40,0,95
1,36,96,1
1,36,0,369
1,38,89,15
1,38,0,274
1,38,106,14
1,38,0,82
1,38,101,14
1,38,0,190
1,38,111,2
1,38,0,185
1,35,96,7
1,35,0,254
1,35,98,34
1,35,0,95
1,36,104,1
1,36,0,238
1,36,94,50
1,36,0,94
1,38,100,2
1,38,0,364
1,40,97,20
1,40,0,248
1,40,98,40
1,40,0,95
1,36,96,1
1,36,0,235
1,36,102,53
1,36,0,87
1,38,107,9
1,38,0,220
1,38,98,68
1,38,0,95
1,31,83,1
1,31,0,187
1,31,94,5
1,31,0,91
1,31,105,5
1,31,0,91
1,38,100,5
1,38,0,732
1,38,103,36
1,38,0,732
1,38,102,36
1,38,0,767
1,36,100,1
1,36,0,765
1,35,97,3
1,35,0,240
1,35,94,48
1,35,0,48
1,36,101,48
1,36,0,366
1,38,105,18
1,38,0,242
1,38,97,46
1,38,0,186
1,33,90,6
1,33,0,95
1,38,103,1
1,38,0,165
1,40,96,27
1,40,0,231
1,40,90,57
1,40,0,92
1,36,92,4
1,36,0,351
1,38,100,33
1,38,0,240
1,38,105,48
1,38,0,156
1,33,90,36
1,33,0,81
1,38,100,15
1,38,0,95
1,36,93,1
1,36,0,82
1,35,97,14
1,35,0,240
1,35,94,48
1,35,0,48
1,36,101,48
1,36,0,366
1,38,105,18
1,38,0,242
1,38,97,46
1,38,0,186
1,33,90,6
1,33,0,95
1,38,103,1
1,38,0,165
1,40,96,27
1,40,0,231
1,40,90,57
1,40,0,92
1,36,92,4
1,36,0,351
1,38,100,33
1,38,0,288
1,38,105,96
1,38,0,192
1,33,82,96
1,33,0,95
1,35,97,1
1,35,0,240
1,35,94,48
1,35,0,48
1,36,101,48
1,36,0,366
1,38,105,18
1,38,0,242
1,38,97,46
1,38,0,186
1,33,90,6
1,33,0,95
1,38,103,1
1,38,0,165
1,40,96,27
1,40,0,231
1,40,90,57
1,40,0,92
1,36,92,4
1,36,0,351
1,38,100,33
1,38,0,240
1,38,105,48
1,38,0,156
1,33,90,36
1,33,0,81
1,38,100,15
1,38,0,95
1,36,93,1
1,36,0,82
1,35,97,14
1,35,0,240
1,35,94,48
1,35,0,48
1,36,101,48
1,36,0,366
1,38,105,18
1,38,0,242
1,38,97,46
1,38,0,186
1,33,90,6
1,33,0,95
1,38,103,1
1,38,0,165
1,40,96,27
1,40,0,231
1,40,90,57
1,40,0,92
1,36,92,4
1,36,0,351
1,38,100,33
1,38,0,288
1,38,105,96
1,38,0,192
1,35,82,96
1,35,0,95
1,38,100,1
1,38,0,732
1,38,103,36
1,38,0,732
1,40,100,36
1,40,0,250
1,40,93,38
1,40,0,95
1,36,96,1
1,36,0,228
1,36,93,60
1,36,0,95
1,38,108,1
1,38,0,227
1,38,103,61
1,38,0,90
1,31,100,6
1,31,0,191
1,43,94,1
1,43,0,191
1,28,103,1
1,28,0,245
1,28,100,43
1,28,0,95
1,36,100,1
1,36,0,326
1,30,105,58
1,30,0,267
1,30,97,21
1,30,0,95
1,31,97,1
1,31,0,260
1,30,100,28
1,30,0,86
1,28,95,10
1,28,0,377
1,36,100,7
1,36,0,342
1,38,98,42
1,38,0,357
1,31,107,27
1,31,0,338
1,28,107,46
1,28,0,227
1,28,100,61
1,28,0,95
1,36,103,1
1,36,0,249
1,36,90,39
1,36,0,95
1,30,92,1
1,30,0,263
1,30,100,25
1,30,0,95
1,31,97,1
1,31,0,287
1,30,88,1
1,30,0,84
1,28,97,12
1,28,0,246
1,28,81,42
1,28,0,95
1,36,101,1
1,36,0,255
1,36,85,33
1,36,0,95
1,38,97,1
1,38,0,248
1,38,91,40
1,38,0,95
1,31,105,1
1,31,0,319
1,38,95,65
1,38,0,730
1,38,97,38
1,38,0,727
1,38,95,41
1,38,0,662
1,38,93,10
1,38,0,91
1,38,96,5
1,38,0,1
1,45,82,6
1,45,0,84
1,38,96,1
1,38,0,729
1,38,94,39
1,38,0,612
1,38,106,60
1,38,0,90
1,38,95,6
1,38,0,626
1,38,90,46
1,38,0,624
1,33,76,32
1,33,0,15
1,35,85,1
1,35,0,95
1,33,87,1
1,33,0,95
1,28,100,1
1,28,0,250
1,35,93,38
1,35,0,95
1,36,96,1
1,36,0,228
1,36,93,60
1,36,0,95
1,38,108,1
1,38,0,227
1,38,103,61
1,38,0,90
1,31,100,6
1,31,0,191
1,43,94,1
1,43,0,191
1,31,108,1
1,31,0,238
1,31,109,50
1,31,0,78
1,40,103,18
1,40,0,355
1,36,94,29
1,36,0,234
1,36,88,54
1,36,0,91
1,43,93,5
1,43,0,95
1,43,91,1
1,43,0,240
1,31,97,48
1,31,0,264
1,31,90,24
1,31,0,95
1,40,92,1
1,40,0,367
1,36,98,17
1,36,0,376
1,38,107,8
1,38,0,250
1,38,100,38
1,38,0,79
1,38,100,17
1,38,0,276
1,38,105,12
1,38,0,95
1,35,111,1
1,35,0,375
1,36,96,9
1,36,0,242
1,36,90,46
1,36,0,95
1,38,93,1
1,38,0,248
1,38,100,40
1,38,0,95
1,40,100,1
1,40,0,250
1,40,93,38
1,40,0,95
1,36,96,1
1,36,0,228
1,36,93,60
1,36,0,95
1,38,108,1
1,38,0,227
1,38,103,61
1,38,0,90
1,31,100,6
1,31,0,191
1,43,94,1
1,43,0,191
1,31,96,1
1,31,0,233
1,31,95,55
1,31,0,95
1,40,98,1
1,40,0,381
1,36,96,3
1,36,0,216
1,36,93,72
1,36,0,95
1,43,97,1
1,43,0,341
1,31,88,43
1,31,0,256
1,31,93,32
1,31,0,95
1,40,105,1
1,40,0,249
1,40,89,39
1,40,0,95
1,36,96,1
1,36,0,369
1,38,89,15
1,38,0,274
1,38,106,14
1,38,0,82
1,38,101,14
1,38,0,190
1,38,111,2
1,38,0,185
1,35,96,7
1,35,0,254
1,35,98,34
1,35,0,95
1,36,104,1
1,36,0,238
1,36,94,50
1,36,0,94
1,38,100,2
1,38,0,364
1,40,97,20
1,40,0,248
1,40,98,40
1,40,0,95
1,36,96,1
1,36,0,235
1,36,102,53
1,36,0,87
1,38,107,9
1,38,0,220
1,38,98,68
1,38,0,95
1,31,83,1
1,31,0,187
1,31,94,5
1,31,0,91
1,31,105,5
1,31,0,91
1,40,100,5
1,40,0,250
1,40,93,38
1,40,0,95
1,36,96,1
1,36,0,228
1,36,93,60
1,36,0,95
1,38,114,1
1,38,0,91
1,38,111,5
1,38,0,91
1,38,116,5
1,38,0,90
1,31,111,6
1,31,0,1248
2,67,106,687
2,66,104,92
2,67,0,8
2,64,94,88
2,66,0,9
2,64,0,445
2,62,106,126
2,60,94,97
2,62,0,14
2,60,0,72
2,59,89,7
2,59,0,429
2,67,98,147
2,66,82,95
2,67,0,14
2,64,98,83
2,66,0,17
2,64,0,346
2,62,98,212
2,62,0,78
2,66,101,19
2,67,98,193
2,66,0,9
2,67,0,349
2,67,90,121
2,66,93,97
2,67,0,16
2,66,0,76
2,64,94,5
2,64,0,375
2,62,106,196
2,60,96,99
2,62,0,16
2,60,0,73
2,59,92,7
2,59,0,391
2,67,98,183
2,66,98,98
2,67,0,9
2,64,96,88
2,66,0,17
2,64,0,328
2,62,98,228
2,66,98,98
2,62,0,1
2,66,0,127
2,67,105,63
2,67,0,576
2,48,96,192
2,50,82,94
2,48,0,12
2,52,96,84
2,50,0,4
2,50,83,93
2,52,0,11
2,50,0,247
2,60,99,30
2,59,68,46
2,60,0,9
2,57,82,42
2,59,0,8
2,55,74,40
2,57,0,0
2,59,76,45
2,55,0,3
2,59,0,636
2,62,73,81
2,62,0,55
2,62,84,39
2,62,0,99
2,67,91,3
2,67,0,136
2,62,65,53
2,62,0,38
2,62,88,54
2,62,0,84
2,67,88,12
2,67,0,145
2,62,87,48
2,62,0,53
2,62,88,40
2,67,98,99
2,62,0,10
2,67,0,118
2,62,71,10
2,62,0,52
2,62,72,47
2,62,0,50
2,67,56,48
2,67,0,141
2,62,81,427
2,62,0,74
2,62,85,27
2,67,102,96
2,62,0,5
2,67,0,128
2,67,91,206
2,62,85,27
2,59,85,26
2,55,85,35
2,59,0,121
2,62,0,1
2,55,0,2
2,67,0,6
2,48,96,12
2,50,82,94
2,48,0,12
2,52,96,84
2,50,0,4
2,50,83,93
2,52,0,11
2,50,0,247
2,60,99,30
2,59,68,46
2,60,0,9
2,57,82,42
2,59,0,8
2,55,74,40
2,57,0,0
2,59,76,45
2,55,0,3
2,59,0,22
2,62,63,107
2,62,0,90
2,67,88,9
2,67,0,173
2,62,84,118
2,62,0,78
2,67,85,20
2,67,0,125
2,62,79,65
2,62,0,96
2,67,87,91
2,67,0,114
2,62,77,77
2,62,0,92
2,62,100,7
2,62,0,26
2,67,89,69
2,67,0,303
2,57,71,508
2,62,93,15
2,66,95,7
2,66,0,38
2,66,89,3
2,45,77,29
2,57,0,4
2,50,83,4
2,57,78,8
2,62,0,4
2,62,85,9
2,66,0,0
2,66,86,14
2,57,0,590
2,62,0,12
2,66,0,12
2,57,71,19
2,62,93,15
2,66,95,7
2,45,0,22
2,50,0,8
2,66,0,8
2,66,89,5
2,45,77,27
2,50,83,6
2,57,0,3
2,57,78,7
2,62,0,4
2,62,85,9
2,66,0,2
2,66,86,11
2,57,0,591
2,62,0,12
2,66,0,10
2,57,71,21
2,62,93,15
2,66,95,7
2,45,0,22
2,50,0,6
2,66,0,10
2,66,89,3
2,45,77,29
2,57,0,4
2,50,83,4
2,57,78,8
2,62,0,4
2,62,85,9
2,66,0,0
2,66,86,14
2,57,0,590
2,62,0,12
2,66,0,12
2,57,71,19
2,62,93,15
2,66,95,7
2,45,0,22
2,50,0,8
2,66,0,8
2,66,89,5
2,45,77,27
2,50,83,6
2,57,0,3
2,57,78,7
2,62,0,4
2,62,85,9
2,66,0,2
2,66,86,11
2,57,0,591
2,62,0,12
2,66,0,10
2,45,0,65
2,50,0,6
2,62,91,154
2,60,70,97
2,62,0,11
2,59,87,89
2,60,0,18
2,59,0,148
2,59,81,23
2,57,78,200
2,59,0,17
2,57,0,146
2,57,83,24
2,55,89,98
2,57,0,14
2,54,79,79
2,55,0,23
2,52,78,161
2,54,0,18
2,50,69,88
2,52,0,20
2,50,0,94
2,52,85,72
2,55,80,100
2,59,80,99
2,52,0,85
2,55,0,10
2,59,0,0
2,52,75,92
2,55,84,39
2,60,89,78
2,55,0,78
2,52,0,1
2,60,0,30
2,50,68,75
2,54,72,56
2,57,83,92
2,62,91,92
2,57,0,67
2,57,73,104
2,54,0,17
2,50,0,79
2,54,55,9
2,57,0,24
2,62,0,50
2,50,62,23
2,54,0,9
2,50,0,34
2,62,87,110
2,60,83,90
2,62,0,20
2,59,83,72
2,60,0,23
2,59,0,156
2,59,76,21
2,57,77,192
2,59,0,15
2,57,0,163
2,57,80,17
2,55,85,100
2,57,0,15
2,54,75,78
2,55,0,22
2,52,71,164
2,54,0,30
2,50,68,71
2,52,0,27
2,50,0,93
2,52,74,75
2,55,82,96
2,59,76,104
2,52,0,79
2,55,0,16
2,59,0,7
2,52,40,90
2,55,88,87
2,60,87,11
2,52,0,70
2,55,0,12
2,60,0,10
2,50,72,73
2,54,71,52
2,57,77,90
2,62,85,94
2,57,0,52
2,57,65,98
2,54,0,14
2,50,0,60
2,54,55,20
2,57,0,14
2,54,0,16
2,62,0,3
2,64,85,120
2,59,76,25
2,55,71,16
2,52,71,17
2,64,0,119
2,59,0,38
2,55,0,46
2,52,0,39
2,67,105,929
2,67,0,576
2,48,96,192
2,50,82,94
2,48,0,12
2,52,96,84
2,50,0,4
2,50,83,93
