track,note,velocity,time
0,48,28,336
0,63,101,0
0,48,0,44
0,49,28,4
0,49,0,44
0,50,32,4
0,50,0,44
0,51,35,4
0,51,0,44
0,52,35,4
0,52,0,44
0,53,35,4
0,53,0,44
0,54,35,4
0,54,0,44
0,55,35,4
0,55,0,11
0,56,39,4
0,56,0,8
0,57,39,4
0,57,0,3
0,58,39,4
0,58,0,11
0,59,42,4
0,59,0,9
0,60,42,3
0,60,0,3
0,61,46,4
0,63,0,20
0,61,0,2
0,62,46,4
0,62,0,44
0,63,46,4
0,63,0,44
0,64,46,4
0,64,0,28
0,65,46,4
0,65,0,44
0,66,46,4
0,66,0,44
0,63,102,4
0,67,46,0
0,67,0,44
0,68,46,4
0,68,0,44
0,69,46,4
0,63,0,16
0,63,101,18
0,69,0,10
0,70,49,4
0,70,0,44
0,71,49,4
0,71,0,44
0,72,53,4
0,72,0,44
0,73,53,4
0,73,0,44
0,74,53,4
0,74,0,44
0,75,53,4
0,75,0,44
0,76,53,4
0,76,0,44
0,63,0,1
0,77,57,3
0,77,0,44
0,78,57,4
0,78,0,44
0,79,57,4
0,79,0,44
0,80,57,4
0,80,0,44
0,81,57,4
0,81,0,44
0,82,57,4
0,63,102,6
0,82,0,38
0,83,57,4
0,83,0,44
0,84,57,4
0,84,0,44
0,85,57,4
0,63,0,26
0,85,0,18
0,86,57,4
0,86,0,44
0,87,57,4
0,61,102,17
0,87,0,27
0,88,57,4
0,88,0,44
0,89,53,4
0,89,0,44
0,90,60,4
0,90,0,44
0,91,64,4
0,91,0,12
0,92,67,4
0,92,0,6
0,93,67,4
0,93,0,4
0,94,67,4
0,94,0,11
0,95,71,4
0,95,0,14
0,57,95,3
0,58,47,0
0,96,71,0
0,58,0,3
0,96,0,7
0,97,74,4
0,97,0,8
0,98,74,4
0,98,0,10
0,76,115,3
0,99,74,0
0,99,0,4
0,100,88,4
0,57,0,4
0,100,0,13
0,101,88,1
0,101,0,9
0,69,69,4
0,102,92,0
0,102,0,4
0,103,92,4
0,103,0,17
0,104,95,3
0,76,0,12
0,104,0,5
0,105,95,4
0,105,0,4
0,79,99,4
0,81,99,0
0,106,95,0
0,69,0,26
0,106,0,15
0,107,95,4
0,107,0,44
0,108,99,4
0,108,0,44
0,109,99,4
0,109,0,44
0,110,100,4
0,110,0,44
0,111,100,4
0,111,0,5
0,15,110,4
0,27,110,0
0,38,110,0
0,57,83,0
0,63,102,0
0,27,0,4
0,57,0,0
0,61,0,23
0,79,0,46
0,81,0,1
0,63,0,201
0,63,109,111
0,15,0,129
0,63,0,44
0,65,109,19
0,38,0,40
0,58,110,135
0,63,110,0
0,67,110,0
0,65,0,12
0,51,80,3
0,55,83,0
0,79,100,0
0,72,107,2
0,55,0,2
0,79,0,10
0,70,100,34
0,51,0,5
0,70,0,9
0,72,0,18
0,51,80,16
0,70,106,0
0,77,100,0
0,77,0,14
0,70,100,34
0,51,0,7
0,70,0,7
0,39,110,34
0,67,107,0
0,79,100,0
0,39,0,4
0,70,0,10
0,79,0,0
0,70,100,34
0,70,0,14
0,51,80,34
0,67,0,0
0,75,100,0
0,65,108,1
0,75,0,13
0,70,100,34
0,51,0,10
0,70,0,4
0,65,0,29
0,79,100,5
0,67,107,1
0,79,0,13
0,70,100,34
0,70,0,14
0,67,0,32
0,51,80,2
0,65,108,0
0,77,100,0
0,77,0,14
0,70,100,34
0,51,0,10
0,70,0,4
0,39,110,34
0,65,0,0
0,79,100,0
0,63,108,2
0,39,0,2
0,79,0,10
0,70,100,34
0,70,0,14
0,63,0,26
0,51,74,8
0,75,100,0
0,67,108,1
0,75,0,13
0,51,0,24
0,58,74,10
0,70,100,0
0,70,0,14
0,63,0,16
0,67,0,0
0,62,110,3
0,65,110,0
0,58,0,2
0,67,0,0
0,46,80,13
0,60,109,0
0,77,100,0
0,77,0,14
0,46,0,12
0,70,100,0
0,70,0,14
0,46,80,34
0,75,100,0
0,75,0,14
0,46,0,32
0,70,100,2
0,70,0,14
0,60,0,2
0,39,110,28
0,77,100,0
0,39,0,4
0,77,0,10
0,70,100,34
0,70,0,14
0,46,80,34
0,74,100,0
0,74,0,14
0,70,100,34
0,46,0,7
0,70,0,7
0,77,100,34
0,77,0,14
0,70,100,34
0,70,0,14
0,46,80,34
0,75,100,0
0,75,0,14
0,70,100,34
0,46,0,12
0,70,0,2
0,67,108,32
0,39,110,2
0,77,100,0
0,39,0,4
0,77,0,10
0,70,100,34
0,70,0,14
0,39,100,34
0,46,74,0
0,68,107,0
0,74,100,0
0,39,0,4
0,67,0,7
0,74,0,3
0,46,0,24
0,53,74,10
0,70,100,0
0,70,0,14
0,68,0,12
0,58,0,4
0,62,0,0
0,65,0,0
0,56,110,3
0,60,110,0
0,63,110,0
0,67,107,13
0,44,80,2
0,75,100,0
0,53,0,3
0,75,0,11
0,68,100,34
0,44,0,6
0,68,0,8
0,44,80,34
0,74,100,0
0,74,0,14
0,68,100,34
0,44,0,9
0,68,0,5
0,67,0,24
0,39,110,10
0,63,108,0
0,75,100,0
0,39,0,4
0,75,0,10
0,68,100,34
0,68,0,14
0,63,0,31
0,44,80,3
0,72,100,0
0,60,109,2
0,72,0,12
0,68,100,34
0,44,0,9
0,68,0,5
0,75,100,34
0,75,0,14
0,68,100,34
0,68,0,14
0,44,80,34
0,74,100,0
0,74,0,14
0,68,100,34
0,44,0,10
0,68,0,4
0,60,0,13
0,39,110,21
0,67,108,0
0,75,100,0
0,39,0,4
0,75,0,10
0,68,100,34
0,68,0,14
0,44,74,34
0,68,107,0
0,72,100,0
0,67,0,12
0,72,0,2
0,44,0,20
0,51,74,14
0,68,100,0
0,68,0,14
0,68,0,8
0,51,0,25
0,44,80,1
0,67,108,0
0,75,100,0
0,75,0,14
0,68,100,34
0,44,0,4
0,68,0,10
0,44,80,34
0,74,100,0
0,74,0,14
0,68,100,34
0,44,0,10
0,68,0,4
0,67,0,24
0,63,107,8
0,39,110,2
0,75,100,0
0,39,0,4
0,75,0,10
0,68,100,34
0,68,0,14
0,63,0,30
0,44,80,4
0,72,100,0
0,60,108,1
0,72,0,13
0,68,100,34
0,68,0,14
0,44,0,8
0,56,0,8
0,60,0,0
0,63,0,0
0,58,110,3
0,62,110,0
0,65,110,0
0,77,100,15
0,77,0,14
0,70,100,34
0,70,0,14
0,46,80,34
0,75,100,0
0,75,0,14
0,46,0,33
0,39,95,1
0,70,100,0
0,39,0,4
0,70,0,10
0,60,0,8
0,39,110,26
0,46,80,0
0,62,108,0
0,77,100,0
0,39,0,4
0,77,0,10
0,70,100,34
0,46,0,4
0,70,0,10
0,39,100,34
0,46,80,0
0,74,100,0
0,39,0,4
0,74,0,10
0,70,100,34
0,46,0,10
0,70,0,4
0,62,0,16
0,65,0,0
0,63,110,3
0,67,110,0
0,62,0,1
0,42,80,14
0,51,80,0
0,63,108,0
0,70,90,0
0,79,100,0
0,42,0,4
0,70,0,0
0,79,0,10
0,70,100,34
0,51,0,5
0,70,0,9
0,46,80,34
0,51,80,0
0,77,100,0
0,46,0,4
0,77,0,10
0,70,100,34
0,70,85,0
0,70,0,4
0,51,0,3
0,70,0,7
0,63,0,27
0,39,110,7
0,42,80,0
0,70,90,0
0,79,100,0
0,39,0,4
0,42,0,0
0,70,0,0
0,79,0,10
0,70,100,34
0,70,0,14
0,46,80,34
0,51,80,0
0,75,100,0
0,46,0,4
0,75,0,10
0,70,100,34
0,70,85,0
0,70,0,4
0,51,0,6
0,70,0,4
0,42,80,34
0,70,90,0
0,79,100,0
0,63,110,2
0,42,0,2
0,70,0,0
0,79,0,10
0,70,100,34
0,70,0,14
0,46,80,34
0,51,80,0
0,77,100,0
0,46,0,4
0,77,0,10
0,70,100,34
0,70,85,0
0,70,0,4
0,51,0,6
0,70,0,4
0,63,0,13
0,39,110,21
0,42,80,0
0,65,109,0
0,70,90,0
0,79,100,0
0,39,0,4
0,42,0,0
0,70,0,0
0,79,0,10
0,70,100,34
0,70,0,14
0,46,80,34
0,51,74,0
0,82,100,0
0,46,0,4
0,82,0,10
0,51,0,24
0,58,74,10
0,70,100,0
0,70,85,0
0,70,0,4
0,70,0,10
0,63,0,16
0,67,0,0
0,62,110,3
0,65,110,0
0,58,0,2
0,65,0,2
0,72,107,9
0,42,80,2
0,46,80,0
0,70,90,0
0,77,100,0
0,42,0,4
0,70,0,0
0,77,0,10
0,46,0,34
0,70,100,0
0,70,0,14
0,72,0,7
0,70,108,25
0,46,80,2
0,46,80,0
0,75,100,0
0,46,0,4
0,75,0,10
0,46,0,32
0,70,100,2
0,70,85,0
0,70,0,4
0,70,0,10
0,67,107,32
0,39,110,2
0,42,80,0
0,70,90,0
0,77,100,0
0,39,0,4
0,42,0,0
0,70,0,0
0,77,0,10
0,70,0,4
0,70,100,30
0,70,0,14
0,65,108,32
0,46,80,2
0,46,80,0
0,67,0,0
0,74,100,0
0,46,0,4
0,74,0,10
0,70,100,34
0,70,85,0
0,70,0,4
0,46,0,3
0,70,0,7
0,65,0,32
0,67,108,1
0,42,80,1
0,70,90,0
0,77,100,0
0,42,0,4
0,70,0,0
0,77,0,10
0,70,100,34
0,70,0,14
0,65,108,32
0,46,80,2
0,46,80,0
0,67,0,0
0,75,100,0
0,46,0,4
0,75,0,10
0,70,100,34
0,70,85,0
0,70,0,4
0,46,0,8
0,70,0,2
0,65,0,28
0,39,110,6
0,42,80,0
0,70,90,0
0,77,100,0
0,63,108,2
0,39,0,2
0,42,0,0
0,70,0,0
0,77,0,10
0,70,100,34
0,70,0,14
0,63,0,30
0,39,100,4
0,46,74,0
0,46,80,0
0,67,108,0
0,74,100,0
0,39,0,4
0,46,0,0
0,74,0,10
0,46,0,24
0,53,74,10
0,70,100,0
0,70,85,0
0,70,0,4
0,70,0,10
0,58,0,16
0,62,0,0
0,65,0,0
0,56,110,3
0,60,110,0
0,63,110,0
0,67,0,5
0,42,80,10
0,44,80,0
0,70,90,0
0,75,100,0
0,60,108,2
0,53,0,1
0,42,0,1
0,70,0,0
0,75,0,10
0,68,100,5
0,44,0,6
0,68,0,8
0,44,80,34
0,46,80,0
0,74,100,0
0,46,0,4
0,74,0,10
0,68,100,34
0,70,85,0
0,70,0,4
0,44,0,5
0,68,0,5
0,60,0,12
0,39,110,9
0,42,80,0
0,70,90,0
0,75,100,0
0,39,0,4
0,42,0,0
0,70,0,0
0,75,0,10
0,68,100,34
0,68,0,14
0,44,80,34
0,46,80,0
0,72,100,0
0,46,0,4
0,72,0,10
0,68,100,34
0,70,85,0
0,70,0,4
0,44,0,5
0,68,0,5
0,42,80,34
0,70,90,0
0,75,100,0
0,42,0,4
0,70,0,0
0,75,0,10
0,68,100,34
0,68,0,14
0,44,80,34
0,46,80,0
0,74,100,0
0,46,0,4
0,74,0,10
0,68,100,34
0,70,85,0
0,70,0,4
0,44,0,6
0,68,0,4
0,39,110,34
0,42,80,0
0,70,90,0
0,75,100,0
0,67,108,1
0,39,0,3
0,42,0,0
0,70,0,0
0,75,0,10
0,68,100,34
0,68,0,14
0,67,0,30
0,44,74,4
0,46,80,0
0,68,108,0
0,72,100,0
0,46,0,4
0,72,0,10
0,44,0,20
0,51,74,14
0,68,100,0
0,70,85,0
0,70,0,4
0,68,0,10
0,68,0,6
0,67,108,26
0,51,0,1
0,42,80,1
0,44,80,0
0,70,90,0
0,75,100,0
0,42,0,4
0,70,0,0
0,75,0,10
0,68,100,34
0,44,0,4
0,68,0,10
0,44,80,34
0,46,80,0
0,74,100,0
0,46,0,4
0,74,0,10
0,68,100,34
0,70,85,0
0,70,0,4
0,44,0,6
0,68,0,4
0,67,0,13
0,63,107,20
0,39,110,1
0,42,80,0
0,70,90,0
0,75,100,0
0,39,0,4
0,42,0,0
0,70,0,0
0,75,0,10
0,68,100,34
0,68,0,14
0,44,80,34
0,46,80,0
0,72,100,0
0,46,0,4
0,72,0,10
0,68,100,34
0,70,85,0
0,70,0,4
0,68,0,10
0,44,0,8
0,56,0,8
0,60,0,0
0,63,0,0
0,58,110,3
0,62,110,0
0,65,110,0
0,42,80,15
0,70,90,0
0,77,100,0
0,60,108,2
0,42,0,2
0,70,0,0
0,63,0,2
0,77,0,8
0,70,100,34
0,70,0,14
0,46,80,34
0,46,80,0
0,75,100,0
0,46,0,4
0,75,0,10
0,46,0,33
0,39,95,1
0,70,100,0
0,70,85,0
0,39,0,4
0,70,0,0
0,70,0,10
0,60,0,22
0,39,110,12
0,42,80,0
0,46,80,0
0,70,90,0
0,77,100,0
0,62,108,2
0,39,0,2
0,42,0,0
0,70,0,0
0,77,0,10
0,70,100,34
0,46,0,4
0,70,0,10
0,39,100,34
0,46,80,0
0,46,80,0
0,74,100,0
0,39,0,4
0,46,0,0
0,74,0,10
0,70,100,34
0,70,85,0
0,70,0,4
0,46,0,6
0,70,0,4
0,62,0,10
0,58,0,6
0,62,0,0
0,65,0,0
0,58,110,3
0,63,110,0
0,67,110,0
0,63,108,13
0,39,90,2
0,42,80,0
0,57,83,0
0,70,90,0
0,79,100,0
0,42,0,4
0,57,0,0
0,70,0,0
0,79,0,10
0,39,0,31
0,70,100,3
0,70,0,14
0,46,80,15
0,51,80,0
0,77,100,0
0,46,0,4
0,77,0,10
0,51,0,31
0,70,100,3
0,70,85,0
0,70,0,4
0,70,0,10
0,39,90,34
0,39,110,0
0,42,80,0
0,70,90,0
0,79,100,0
0,39,0,4
0,42,0,0
0,70,0,0
0,63,0,4
0,79,0,6
0,39,0,26
0,70,100,3
0,70,0,14
0,46,80,34
0,51,80,0
0,75,100,0
0,46,0,4
0,75,0,10
0,51,0,31
0,70,100,3
0,70,85,0
0,70,0,4
0,70,0,10
0,39,90,34
0,42,80,0
0,70,90,0
0,79,100,0
0,70,109,3
0,42,0,1
0,70,0,0
0,79,0,10
0,39,0,31
0,70,100,3
0,70,0,14
0,46,80,34
0,51,80,0
0,77,100,0
0,46,0,4
0,77,0,10
0,51,0,31
0,70,100,3
0,70,85,0
0,70,0,4
0,70,0,10
0,70,0,16
0,39,90,18
0,39,110,0
0,42,80,0
0,70,90,0
0,79,100,0
0,68,108,2
0,39,0,2
0,42,0,0
0,70,0,0
0,79,0,10
0,39,0,31
0,70,100,3
0,70,0,14
0,68,0,25
0,46,80,9
0,51,80,0
0,75,100,0
0,46,0,4
0,67,110,0
0,75,0,10
0,51,0,2
0,51,80,3
0,70,100,0
0,70,85,0
0,70,0,4
0,70,0,10
0,63,0,16
0,67,0,0
0,62,110,3
0,65,110,0
0,51,0,12
0,34,90,3
0,42,80,0
0,70,90,0
0,77,100,0
0,42,0,4
0,70,0,0
0,77,0,10
0,67,0,15
0,34,0,16
0,70,100,3
0,70,0,14
0,46,80,34
0,46,80,0
0,75,100,0
0,46,0,4
0,75,0,10
0,46,0,31
0,70,100,3
0,70,85,0
0,70,0,4
0,70,0,10
0,34,90,34
0,39,110,0
0,42,80,0
0,70,90,0
0,77,100,0
0,39,0,4
0,42,0,0
0,70,0,0
0,77,0,10
0,34,0,31
0,70,100,3
0,70,0,14
0,46,80,34
0,46,80,0
0,74,100,0
0,46,0,4
0,74,0,10
0,46,0,31
0,70,100,3
0,70,85,0
0,70,0,4
0,70,0,10
0,34,90,34
0,42,80,0
0,70,90,0
0,77,100,0
0,42,0,4
0,70,0,0
0,77,0,10
0,34,0,31
0,70,100,3
0,70,0,14
0,46,80,34
0,46,80,0
0,75,100,0
0,63,110,2
0,46,0,2
0,75,0,10
0,46,0,31
0,70,100,3
0,70,85,0
0,70,0,4
0,70,0,10
0,63,0,33
0,34,90,1
0,39,110,0
0,42,80,0
0,70,90,0
0,77,100,0
0,39,0,4
0,42,0,0
0,70,0,0
0,77,0,10
0,34,0,31
0,70,100,3
0,70,0,14
0,39,100,34
0,46,80,0
0,46,80,0
0,74,100,0
0,65,109,1
0,39,0,3
0,46,0,0
0,74,0,10
0,46,0,31
0,46,80,3
0,70,100,0
0,70,85,0
0,70,0,4
