track,note,velocity,time
0,25,105,246
0,36,110,288
0,62,114,193
0,25,0,81
0,62,0,5
0,64,119,10
0,64,0,80
0,62,116,15
0,62,0,80
0,57,100,4
0,60,100,0
0,64,100,0
0,76,127,9
0,45,110,3
0,57,120,0
0,64,120,0
0,69,118,0
0,76,0,13
0,57,0,15
0,64,0,0
0,69,127,17
0,45,0,5
0,69,0,11
0,72,127,32
0,45,110,3
0,57,120,0
0,64,120,0
0,72,0,13
0,57,0,21
0,64,0,0
0,36,0,4
0,69,127,7
0,69,0,16
0,45,0,23
0,81,127,9
0,69,0,1
0,39,120,2
0,64,114,0
0,39,0,4
0,81,0,9
0,69,127,32
0,69,0,16
0,64,0,21
0,72,127,11
0,45,110,3
0,57,120,0
0,64,120,0
0,64,120,0
0,72,0,13
0,57,0,21
0,64,0,0
0,69,127,11
0,69,0,16
0,45,0,31
0,76,127,1
0,76,0,16
0,69,127,32
0,69,0,16
0,64,0,13
0,62,114,19
0,72,127,0
0,45,110,3
0,57,120,0
0,64,120,0
0,72,0,13
0,57,0,21
0,64,0,0
0,69,127,11
0,69,0,16
0,62,0,25
0,45,0,6
0,64,120,1
0,81,127,0
0,39,120,3
0,39,0,4
0,81,0,9
0,69,127,32
0,69,0,16
0,76,127,32
0,62,113,1
0,45,110,2
0,57,120,0
0,64,120,0
0,64,0,6
0,76,0,7
0,57,0,15
0,64,0,0
0,45,0,16
0,69,127,1
0,57,110,3
0,69,0,13
0,57,0,19
0,60,0,0
0,62,0,2
0,55,100,2
0,59,100,0
0,57,0,9
0,76,127,0
0,67,120,1
0,40,110,2
0,55,120,0
0,64,120,0
0,76,0,13
0,55,0,15
0,64,0,0
0,67,127,17
0,40,0,5
0,67,0,11
0,71,127,32
0,40,110,3
0,55,120,0
0,64,120,0
0,71,0,13
0,55,0,21
0,64,0,0
0,67,127,11
0,67,0,16
0,40,0,23
0,79,127,9
0,62,116,1
0,39,120,2
0,67,0,0
0,39,0,4
0,79,0,9
0,67,127,32
0,67,0,16
0,62,0,27
0,71,127,5
0,40,110,3
0,55,120,0
0,64,118,0
0,64,120,0
0,71,0,13
0,55,0,21
0,64,0,0
0,67,127,11
0,67,0,16
0,40,0,31
0,76,127,1
0,76,0,16
0,67,127,32
0,67,0,16
0,64,0,13
0,71,127,19
0,62,116,1
0,40,110,2
0,55,120,0
0,64,120,0
0,71,0,13
0,55,0,21
0,64,0,0
0,67,127,11
0,67,0,16
0,62,0,25
0,40,0,6
0,79,127,1
0,64,119,2
0,39,120,1
0,39,0,4
0,79,0,9
0,67,127,32
0,67,0,16
0,76,127,32
0,62,114,2
0,39,110,1
0,40,110,0
0,55,120,0
0,64,0,0
0,64,120,0
0,39,0,4
0,76,0,9
0,55,0,15
0,64,0,0
0,40,0,16
0,67,127,1
0,52,110,3
0,67,0,13
0,62,0,8
0,64,0,11
0,62,100,4
0,52,0,9
0,74,127,0
0,67,116,1
0,43,110,2
0,55,120,0
0,62,120,0
0,74,0,13
0,55,0,15
0,62,0,0
0,67,127,17
0,43,0,5
0,67,0,11
0,71,127,32
0,43,110,3
0,55,120,0
0,62,120,0
0,71,0,13
0,55,0,21
0,62,0,0
0,67,127,11
0,67,0,16
0,43,0,23
0,79,127,9
0,62,114,2
0,39,120,1
0,39,0,4
0,67,0,5
0,79,0,4
0,67,127,32
0,67,0,16
0,62,0,20
0,71,127,12
0,43,110,3
0,55,120,0
0,62,120,0
0,64,120,0
0,71,0,13
0,55,0,21
0,62,0,0
0,67,127,11
0,67,0,16
0,43,0,31
0,74,127,1
0,74,0,16
0,67,127,32
0,67,0,16
0,64,0,5
0,62,116,26
0,71,127,1
0,43,110,3
0,55,120,0
0,62,120,0
0,71,0,13
0,55,0,21
0,62,0,0
0,67,127,11
0,67,0,16
0,62,0,27
0,43,0,4
0,64,117,0
0,79,127,1
0,39,120,3
0,39,0,4
0,79,0,9
0,67,127,32
0,67,0,16
0,64,0,18
0,69,114,13
0,74,127,1
0,43,110,3
0,55,120,0
0,62,120,0
0,74,0,13
0,55,0,15
0,62,0,0
0,43,0,16
0,67,127,1
0,55,110,3
0,67,0,13
0,55,0,19
0,59,0,0
0,53,100,4
0,57,100,0
0,55,0,9
0,69,0,0
0,72,127,0
0,69,119,1
0,38,110,2
0,53,120,0
0,62,120,0
0,69,11,0
0,69,119,0
0,69,0,0
0,72,11,0
0,72,119,0
0,72,0,13
0,53,0,15
0,62,0,0
0,65,127,17
0,38,0,5
0,65,0,11
0,69,127,32
0,38,110,3
0,53,120,0
0,62,120,0
0,69,0,13
0,53,0,21
0,62,0,0
0,65,127,11
0,65,0,16
0,69,0,3
0,72,0,4
0,38,0,16
0,69,0,8
0,72,0,0
0,64,122,1
0,77,127,0
0,39,120,3
0,69,11,0
0,69,115,0
0,72,11,0
0,72,115,0
0,39,0,4
0,77,0,9
0,65,127,32
0,65,0,16
0,69,127,32
0,38,110,3
0,53,120,0
0,62,120,0
0,69,0,13
0,53,0,21
0,62,0,0
0,65,127,11
0,65,0,16
0,69,0,11
0,72,0,2
0,64,0,17
0,38,0,1
0,69,0,0
0,72,0,0
0,72,127,1
0,62,116,1
0,69,11,2
0,69,120,0
0,72,11,0
0,72,120,0
0,72,0,13
0,65,127,32
0,65,0,16
0,69,127,32
0,38,110,3
0,53,120,0
0,62,120,0
0,69,0,13
0,53,0,21
0,62,0,0
0,65,127,11
0,39,90,3
0,39,0,4
0,65,0,9
0,72,0,13
0,69,0,6
0,38,0,12
0,69,0,0
0,72,0,0
0,77,127,1
0,60,114,2
0,39,120,1
0,67,11,0
0,67,118,0
0,71,11,0
0,71,118,0
0,39,0,4
0,77,0,9
0,62,0,13
0,65,127,19
0,65,0,16
0,72,127,32
0,38,110,3
0,39,120,0
0,53,120,0
0,62,120,0
0,39,0,4
0,67,0,0
0,71,0,0
0,60,0,8
0,72,0,1
0,53,0,21
0,62,0,0
0,38,0,10
0,65,127,1
0,50,110,3
0,65,0,13
0,53,0,19
0,57,0,0
0,62,0,0
0,57,100,4
0,60,100,0
0,64,100,0
0,67,0,8
0,71,0,0
0,50,0,1
0,76,127,0
0,69,112,2
0,45,110,1
0,57,120,0
0,64,120,0
0,76,0,13
0,57,0,15
0,64,0,0
0,69,127,17
0,45,0,5
0,69,0,11
0,72,127,32
0,45,110,3
0,57,120,0
0,64,120,0
0,72,0,13
0,57,0,21
0,64,0,0
0,69,127,11
0,69,0,16
0,69,0,22
0,45,0,1
0,81,127,9
0,64,112,1
0,39,120,2
0,39,0,4
0,81,0,9
0,69,127,32
0,69,0,16
0,64,0,21
0,72,127,11
0,64,120,2
0,45,110,1
0,57,120,0
0,64,120,0
0,72,0,13
0,57,0,21
0,64,0,0
0,69,127,11
0,69,0,16
0,45,0,31
0,76,127,1
0,76,0,16
0,69,127,32
0,69,0,16
0,64,0,15
0,62,114,17
0,72,127,0
0,45,110,3
0,57,120,0
0,64,120,0
0,72,0,13
0,57,0,21
0,64,0,0
0,69,127,11
0,69,0,16
0,62,0,25
0,45,0,6
0,64,120,1
0,81,127,0
0,39,120,3
0,39,0,4
0,81,0,9
0,69,127,32
0,69,0,16
0,76,127,32
0,62,113,1
0,45,110,2
0,57,120,0
0,64,120,0
0,64,0,3
0,76,0,10
0,57,0,15
0,64,0,0
0,45,0,16
0,69,127,1
0,57,110,3
0,69,0,13
0,62,0,14
0,57,0,5
0,60,0,0
0,55,100,4
0,59,100,0
0,57,0,9
0,67,114,0
0,76,127,0
0,40,110,3
0,55,120,0
0,64,120,0
0,76,0,13
0,55,0,15
0,64,0,0
0,67,127,17
0,40,0,5
0,67,0,11
0,71,127,32
0,40,110,3
0,55,120,0
0,64,120,0
0,71,0,13
0,55,0,21
0,64,0,0
0,67,127,11
0,67,0,16
0,40,0,23
0,79,127,9
0,62,116,1
0,39,120,2
0,39,0,4
0,67,0,0
0,79,0,9
0,67,127,32
0,67,0,16
0,62,0,25
0,71,127,7
0,64,122,2
0,40,110,1
0,55,120,0
0,64,120,0
0,71,0,13
0,55,0,21
0,64,0,0
0,67,127,11
0,67,0,16
0,40,0,31
0,76,127,1
0,76,0,16
0,67,127,32
0,67,0,16
0,64,0,14
0,62,113,17
0,71,127,1
0,40,110,3
0,55,120,0
0,64,120,0
0,71,0,13
0,55,0,21
0,64,0,0
0,67,127,11
0,67,0,16
0,62,0,26
0,40,0,5
0,79,127,1
0,64,119,1
0,39,120,2
0,39,0,4
0,79,0,9
0,67,127,32
0,67,0,16
0,76,127,32
0,62,114,1
0,39,110,2
0,40,110,0
0,55,120,0
0,64,120,0
0,39,0,4
0,64,0,2
0,76,0,7
0,55,0,15
0,64,0,0
0,40,0,16
0,67,127,1
0,52,110,3
0,67,0,13
0,62,0,19
0,64,0,0
0,62,100,4
0,52,0,9
0,74,127,0
0,67,116,1
0,43,110,2
0,55,120,0
0,62,120,0
0,74,0,13
0,55,0,15
0,62,0,0
0,67,127,17
0,43,0,5
0,67,0,11
0,71,127,32
0,43,110,3
0,55,120,0
0,62,120,0
0,71,0,13
0,55,0,21
0,62,0,0
0,67,127,11
0,67,0,16
0,43,0,23
0,79,127,9
0,62,112,1
0,39,120,2
0,39,0,4
0,67,0,8
0,79,0,1
0,67,127,32
0,67,0,16
0,62,0,17
0,71,127,15
0,64,120,1
0,43,110,2
0,55,120,0
0,62,120,0
0,71,0,13
0,55,0,21
0,62,0,0
0,67,127,11
0,67,0,16
0,43,0,31
0,74,127,1
0,74,0,16
0,67,127,32
0,67,0,16
0,64,0,22
0,62,114,10
0,71,127,0
0,43,110,3
0,55,120,0
0,62,120,0
0,71,0,13
0,55,0,21
0,62,0,0
0,67,127,11
0,67,0,16
0,62,0,22
0,43,0,9
0,79,127,1
0,64,118,1
0,39,120,2
0,39,0,4
0,79,0,9
0,67,127,32
0,67,0,16
0,64,0,32
0,74,127,0
0,69,111,1
0,43,110,2
0,55,120,0
0,62,120,0
0,74,0,13
0,55,0,15
0,62,0,0
0,43,0,16
0,67,127,1
0,55,110,3
0,67,0,13
0,55,0,19
0,59,0,0
0,53,100,4
0,57,100,0
0,55,0,9
0,72,127,0
0,69,0,1
0,69,123,1
0,38,110,1
0,53,120,0
0,62,120,0
0,69,11,0
0,69,119,0
0,72,11,0
0,72,119,0
0,69,0,1
0,72,0,12
0,53,0,15
0,62,0,0
0,65,127,17
0,38,0,5
0,65,0,11
0,69,127,32
0,38,110,3
0,53,120,0
0,62,120,0
0,69,0,13
0,53,0,21
0,62,0,0
0,65,127,11
0,65,0,16
0,69,0,3
0,72,0,4
0,38,0,16
0,69,0,8
0,72,0,0
0,77,127,1
0,64,112,2
0,39,120,1
0,69,11,0
0,69,115,0
0,72,11,0
0,72,115,0
0,39,0,4
0,77,0,9
0,65,127,32
0,65,0,16
0,69,127,32
0,38,110,3
0,53,120,0
0,62,120,0
0,69,0,13
0,53,0,21
0,62,0,0
0,65,127,11
0,65,0,16
0,69,0,11
0,72,0,2
0,38,0,18
0,69,0,0
0,72,0,0
0,72,127,1
0,64,0,1
0,62,114,1
0,69,11,1
0,69,120,0
0,72,11,0
0,72,120,0
0,72,0,13
0,65,127,32
0,65,0,16
0,69,127,32
0,38,110,3
0,53,120,0
0,62,120,0
0,69,0,13
0,53,0,21
0,62,0,0
0,65,127,11
0,39,90,3
0,39,0,4
0,65,0,9
0,72,0,13
0,69,0,6
0,38,0,12
0,69,0,0
0,72,0,0
0,60,116,1
0,77,127,0
0,39,120,3
0,67,11,0
0,67,118,0
0,71,11,0
0,71,118,0
0,39,0,4
0,77,0,9
0,62,0,1
0,65,127,31
0,65,0,16
0,72,127,32
0,38,110,3
0,39,120,0
0,53,120,0
0,62,120,0
0,60,0,1
0,39,0,3
0,67,0,0
0,71,0,0
0,72,0,9
0,53,0,21
0,62,0,0
0,38,0,10
0,65,127,1
0,50,110,3
0,65,0,13
0,62,0,19
0,60,100,4
0,67,100,0
0,53,0,8
0,57,0,0
0,67,0,0
0,71,0,0
0,50,0,1
0,36,110,3
0,42,90,0
0,48,110,0
0,75,110,0
0,84,110,0
0,60,119,3
0,42,0,1
0,75,0,24
0,84,0,0
0,42,70,20
0,48,0,2
0,42,0,2
0,36,0,2
0,42,85,42
0,44,120,0
0,48,110,0
0,75,105,0
0,84,105,0
0,42,0,4
0,44,0,0
0,75,0,24
0,84,0,0
0,42,70,20
0,75,110,0
0,84,110,0
0,91,110,0
0,42,0,4
0,75,0,24
0,84,0,0
0,91,0,0
0,48,0,8
0,36,110,12
0,39,120,0
0,42,90,0
0,39,0,4
0,42,0,0
0,42,70,44
0,84,105,0
0,91,105,0
0,42,0,4
0,36,0,2
0,84,0,22
0,91,0,0
0,42,85,20
0,44,120,0
0,48,110,0
0,84,110,0
0,91,110,0
0,42,0,4
0,44,0,0
0,84,0,24
0,91,0,0
0,42,70,20
0,87,98,0
0,96,98,0
0,42,0,4
0,87,0,24
0,96,0,0
0,48,0,16
0,36,110,4
0,42,90,0
0,87,110,0
0,96,110,0
0,42,0,4
0,87,0,24
0,96,0,0
0,42,70,20
0,42,0,4
0,36,0,2
0,60,0,40
0,42,85,2
0,44,120,0
0,48,110,0
0,87,105,0
0,96,105,0
0,62,120,2
0,42,0,2
0,44,0,0
0,87,0,24
0,96,0,0
0,42,70,20
0,87,110,0
0,96,110,0
0,42,0,4
0,87,0,24
0,96,0,0
0,48,0,16
0,62,0,2
0,36,110,2
0,39,120,0
0,42,90,0
0,63,113,2
0,39,0,2
0,42,0,0
0,42,70,44
0,87,86,0
0,96,86,0
0,42,0,4
0,36,0,2
0,87,0,22
0,96,0,0
0,63,0,18
0,42,85,2
0,44,120,0
0,48,110,0
0,87,91,0
0,96,91,0
0,65,115,2
0,42,0,2
0,44,0,0
0,87,0,24
0,96,0,0
0,48,0,16
0,42,70,4
0,60,110,0
0,42,0,4
0,60,0,28
0,58,100,4
0,60,0,9
0,31,110,3
0,42,90,0
0,43,110,0
0,70,110,0
0,79,110,0
0,42,0,4
0,70,0,24
0,79,0,0
0,42,70,20
0,43,0,2
0,42,0,2
0,31,0,2
0,65,0,38
0,42,85,4
0,43,110,0
0,44,120,0
0,62,119,0
0,70,105,0
0,79,105,0
0,42,0,4
0,44,0,0
0,70,0,24
0,79,0,0
0,42,70,20
0,70,110,0
0,79,110,0
0,86,110,0
0,42,0,4
0,70,0,24
0,79,0,0
0,86,0,0
0,43,0,8
0,31,110,12
0,39,120,0
0,42,90,0
0,39,0,4
0,42,0,0
0,42,70,44
0,79,105,0
0,86,105,0
0,42,0,4
0,31,0,2
0,79,0,22
0,86,0,0
0,62,0,19
0,42,85,1
0,43,110,0
0,44,120,0
0,79,110,0
0,86,110,0
0,58,117,2
0,42,0,2
0,44,0,0
0,79,0,24
0,86,0,0
0,42,70,20
0,82,98,0
0,91,98,0
0,42,0,4
0,82,0,24
0,91,0,0
0,43,0,16
0,31,110,4
0,42,90,0
0,82,110,0
0,91,110,0
0,42,0,4
0,82,0,24
0,91,0,0
0,42,70,20
0,42,0,4
0,31,0,2
0,58,0,38
0,42,85,4
0,43,110,0
0,44,120,0
0,53,121,0
0,82,105,0
0,91,105,0
0,42,0,4
0,44,0,0
0,82,0,24
0,91,0,0
0,42,70,20
0,82,110,0
0,91,110,0
0,42,0,4
0,82,0,24
0,91,0,0
0,43,0,16
0,31,110,4
0,39,120,0
0,42,90,0
0,39,0,4
0,42,0,0
0,42,70,44
0,82,86,0
0,91,86,0
0,42,0,4
0,31,0,2
0,82,0,22
0,91,0,0
0,53,0,17
0,39,110,3
0,42,85,0
0,43,110,0
0,44,120,0
0,82,91,0
0,91,91,0
0,58,120,1
0,39,0,3
0,42,0,0
0,44,0,0
0,82,0,24
0,91,0,0
0,43,0,16
0,42,70,4
0,55,110,0
0,42,0,4
0,67,0,28
0,65,100,4
0,55,0,9
0,34,110,3
0,42,90,0
0,46,110,0
0,74,110,0
0,82,110,0
0,42,0,4
0,74,0,24
