track,note,velocity,time
2,36,68,9216
2,36,68,336
2,36,68,336
2,36,68,336
2,36,68,336
2,36,68,336
2,36,68,336
2,36,68,336
2,36,68,336
2,36,68,336
2,36,68,336
2,36,68,336
2,36,68,336
2,36,68,336
2,36,68,336
2,36,68,336
2,36,68,336
2,36,68,336
2,36,68,336
2,36,68,336
2,36,68,336
2,36,68,336
2,36,68,336
2,36,68,336
2,36,68,336
2,36,68,336
2,36,68,336
2,36,68,336
2,36,68,336
2,36,68,336
2,36,68,336
2,36,68,336
2,36,68,336
2,36,68,336
2,36,68,336
2,36,68,336
2,36,68,336
2,36,68,336
2,36,68,336
2,36,68,336
2,36,68,336
2,36,68,336
2,36,68,336
2,36,68,336
2,36,68,336
2,36,68,336
2,36,68,336
2,36,68,336
2,36,68,336
2,36,68,336
2,36,68,336
2,36,68,336
2,36,68,336
2,36,68,336
2,36,68,336
2,36,68,336
2,36,68,336
2,36,68,336
2,36,68,336
2,36,68,336
2,36,68,336
2,36,68,336
2,36,68,336
2,36,68,336
2,36,68,336
2,36,68,336
2,36,68,336
2,36,68,336
2,36,68,336
2,36,68,336
2,36,68,336
2,36,68,336
2,36,68,336
2,36,68,336
2,36,68,336
2,36,68,336
2,36,68,336
2,36,68,336
2,36,68,336
2,36,68,336
2,36,68,336
2,36,68,336
2,36,68,336
2,36,68,336
2,36,68,336
2,36,68,336
2,36,68,336
2,36,68,336
2,36,68,336
2,36,68,336
2,36,68,336
2,36,68,336
2,36,68,336
2,36,68,336
2,36,68,336
2,36,68,336
2,36,68,336
2,36,68,336
2,36,68,336
2,36,68,336
2,36,68,336
2,36,68,336
2,36,68,336
2,36,68,336
2,36,68,336
2,36,68,336
2,36,68,336
2,36,68,336
2,36,68,336
2,36,68,336
2,36,68,336
2,36,68,336
2,36,68,336
2,36,68,336
2,36,68,336
2,36,68,336
2,36,68,336
2,36,68,336
2,36,68,336
2,36,68,336
2,36,68,336
2,36,68,336
2,36,68,336
2,36,68,336
2,36,68,336
2,36,68,336
2,36,68,336
2,36,68,336
2,36,68,336
2,36,68,336
2,36,68,336
2,36,68,336
2,36,68,336
2,36,68,336
2,36,68,336
2,36,68,336
2,36,68,336
2,36,68,336
2,36,68,336
2,36,68,336
2,36,68,336
2,36,68,336
2,36,68,336
2,36,68,336
2,36,68,336
2,36,68,336
2,36,68,336
2,36,68,336
2,36,68,336
2,36,68,336
2,36,68,336
2,36,68,336
2,36,68,336
2,36,68,336
2,36,68,336
2,36,68,336
2,36,68,336
2,36,68,336
2,36,68,336
2,36,68,336
2,36,68,336
2,36,68,336
2,36,68,336
2,36,68,336
2,36,68,336
2,36,68,336
2,36,68,336
2,36,68,336
2,36,68,336
2,36,68,1296
2,36,68,400
2,36,68,336
2,36,68,336
3,38,13,3012
3,38,13,1488
3,38,13,1488
3,38,27,1722
3,38,27,336
3,38,27,336
3,38,27,336
3,38,21,162
3,38,13,84
3,38,51,12
3,38,13,84
3,38,21,12
3,38,13,84
3,38,51,12
3,38,13,84
3,38,21,12
3,38,13,84
3,38,51,12
3,38,13,84
3,38,21,12
3,38,13,276
3,38,21,12
3,38,13,84
3,38,51,12
3,38,13,84
3,38,21,12
3,38,13,84
3,38,51,12
3,38,13,84
3,38,21,12
3,38,13,84
3,38,51,12
3,38,13,84
3,38,21,12
3,38,13,276
3,38,21,12
3,38,13,84
3,38,51,12
3,38,13,84
3,38,21,12
3,38,13,84
3,38,51,12
3,38,13,84
3,38,21,12
3,38,13,84
3,38,51,12
3,38,13,84
3,38,21,12
3,38,13,276
3,38,21,12
3,38,13,84
3,38,51,12
3,38,13,84
3,38,21,12
3,38,13,84
3,38,51,12
3,38,13,84
3,38,21,12
3,38,13,84
3,38,51,12
3,38,13,84
3,38,21,12
3,38,13,276
3,38,21,12
3,38,13,84
3,38,51,12
3,38,13,84
3,38,21,12
3,38,13,84
3,38,51,12
3,38,13,84
3,38,21,12
3,38,13,84
3,38,51,12
3,38,13,84
3,38,21,12
3,38,13,276
3,38,21,12
3,38,13,84
3,38,51,12
3,38,13,84
3,38,21,12
3,38,13,84
3,38,51,12
3,38,13,84
3,38,21,12
3,38,13,84
3,38,51,12
3,38,13,84
3,38,21,12
3,38,13,276
3,38,21,12
3,38,13,84
3,38,51,12
3,38,13,84
3,38,21,12
3,38,13,84
3,38,51,12
3,38,13,84
3,38,21,12
3,38,13,84
3,38,51,12
3,38,13,84
3,38,21,12
3,38,13,276
3,38,21,12
3,38,13,84
3,38,51,12
3,38,13,84
3,38,21,12
3,38,13,84
3,38,51,12
3,38,13,84
3,38,21,12
3,38,13,84
3,38,51,12
3,38,13,84
3,38,21,12
3,38,13,276
3,38,21,12
3,38,13,84
3,38,51,12
3,38,13,84
3,38,21,12
3,38,13,84
3,38,51,12
3,38,13,84
3,38,21,12
3,38,13,84
3,38,51,12
3,38,13,84
3,38,21,12
3,38,13,276
3,38,21,12
3,38,13,84
3,38,51,12
3,38,13,84
3,38,21,12
3,38,13,84
3,38,51,12
3,38,13,84
3,38,21,12
3,38,13,84
3,38,51,12
3,38,13,84
3,38,21,12
3,38,13,276
3,38,21,12
3,38,13,84
3,38,51,12
3,38,13,84
3,38,21,12
3,38,13,84
3,38,51,12
3,38,13,84
3,38,21,12
3,38,13,84
3,38,51,12
3,38,13,84
3,38,21,12
3,38,40,86
3,38,13,334
3,38,26,144
3,38,51,204
3,38,34,84
3,38,29,204
3,38,40,84
3,38,43,336
3,38,21,12
3,38,13,84
3,38,51,12
3,38,13,84
3,38,21,12
3,38,13,84
3,38,51,12
3,38,13,84
3,38,21,12
3,38,13,84
3,38,51,12
3,38,13,84
3,38,21,12
3,38,13,276
3,38,21,12
3,38,13,84
3,38,51,12
3,38,13,84
3,38,21,12
3,38,13,84
3,38,51,12
3,38,13,84
3,38,21,12
3,38,13,84
3,38,51,12
3,38,13,84
3,38,21,12
3,38,13,276
3,38,21,12
3,38,13,84
3,38,51,12
3,38,13,84
3,38,21,12
3,38,13,84
3,38,51,12
3,38,13,84
3,38,21,12
3,38,13,84
3,38,51,12
3,38,13,84
3,38,21,12
3,38,13,276
3,38,21,12
3,38,13,84
3,38,51,12
3,38,13,84
3,38,21,12
3,38,13,84
3,38,51,12
3,38,13,84
3,38,21,12
3,38,13,84
3,38,51,12
3,38,13,84
3,38,21,12
3,38,13,276
3,38,21,12
3,38,13,84
3,38,51,12
3,38,13,84
3,38,21,12
3,38,13,84
3,38,51,12
3,38,13,84
3,38,21,12
3,38,13,84
3,38,51,12
3,38,13,84
3,38,21,12
3,38,13,276
3,38,21,12
3,38,13,84
3,38,13,144
3,38,21,12
3,38,13,84
3,38,13,144
3,38,51,12
3,38,14,84
3,38,13,144
3,38,51,12
3,38,13,276
3,38,21,12
3,38,13,84
3,38,51,12
3,38,13,84
3,38,21,12
3,38,13,84
3,38,51,12
3,38,13,84
3,38,21,12
3,38,13,84
3,38,51,12
3,38,13,84
3,38,21,12
3,38,23,86
3,38,21,202
3,38,13,84
3,38,51,12
3,38,13,84
3,38,21,12
3,38,13,84
3,38,51,12
3,38,13,84
3,38,21,12
3,38,13,84
3,38,51,12
3,38,13,84
3,38,21,12
3,38,23,86
3,38,21,202
3,38,13,84
3,38,51,12
3,38,13,84
3,38,21,12
3,38,13,84
3,38,51,12
3,38,13,84
3,38,21,12
3,38,13,84
3,38,51,12
3,38,13,84
3,38,21,12
3,38,23,86
3,38,21,202
3,38,13,84
3,38,51,12
3,38,13,84
3,38,21,12
3,38,13,84
3,38,51,12
3,38,13,84
3,38,21,12
3,38,13,84
3,38,51,12
3,38,13,84
3,38,21,12
3,38,23,86
3,38,21,202
3,38,13,84
3,38,51,12
3,38,13,84
3,38,21,12
3,38,13,84
3,38,51,12
3,38,13,84
3,38,21,12
3,38,13,84
3,38,51,12
3,38,13,84
3,38,21,12
3,38,23,86
3,38,21,202
3,38,51,144
3,38,13,84
3,38,51,204
3,38,13,84
3,38,13,144
3,38,51,12
3,38,21,144
3,38,23,86
3,38,21,202
3,38,13,84
3,38,51,12
3,38,13,84
3,38,21,12
3,38,13,84
3,38,51,12
3,38,13,84
3,38,21,12
3,38,13,84
3,38,51,12
3,38,13,84
3,38,21,12
3,38,23,86
3,38,13,142
3,38,21,12
3,38,13,84
3,38,51,12
3,38,13,84
3,38,21,12
3,38,13,84
3,38,51,12
3,38,13,84
3,38,21,12
3,38,13,84
3,38,51,12
3,38,13,84
3,38,21,12
3,38,23,86
3,38,23,142
3,38,21,12
3,38,13,84
3,38,51,12
3,38,13,84
3,38,21,12
3,38,13,84
3,38,51,12
3,38,13,84
3,38,21,12
3,38,13,84
3,38,51,12
3,38,13,84
3,38,21,12
3,38,23,86
3,38,13,142
3,38,21,12
3,38,13,84
3,38,51,12
3,38,13,84
3,38,21,12
3,38,13,84
3,38,51,12
3,38,13,84
3,38,21,12
3,38,13,84
3,38,51,12
3,38,13,84
3,38,21,12
3,38,23,86
3,38,23,142
3,38,21,12
3,38,13,84
3,38,51,12
3,38,13,84
3,38,21,12
3,38,13,84
3,38,51,12
3,38,13,84
3,38,21,12
3,38,13,84
3,38,51,12
3,38,13,84
3,38,21,12
3,38,23,86
3,38,13,142
3,38,21,12
3,38,13,84
3,38,51,12
3,38,13,84
3,38,21,12
3,38,13,84
3,38,51,12
3,38,13,84
3,38,21,12
3,38,13,84
3,38,51,12
3,38,13,84
3,38,21,12
3,38,23,86
3,38,23,142
3,38,13,144
3,38,13,144
3,38,13,144
3,38,43,12
3,38,29,144
3,38,31,144
3,38,13,468
3,38,13,144
3,38,13,144
3,38,13,144
3,38,43,12
3,38,29,144
3,38,31,144
3,38,13,468
3,38,13,144
3,38,13,144
3,38,13,144
3,38,43,12
3,38,29,144
3,38,31,144
3,38,13,468
3,38,13,144
3,38,13,144
3,38,13,144
3,38,43,12
3,38,29,144
3,38,31,144
3,38,13,468
3,38,13,144
3,38,13,144
3,38,13,144
3,38,43,12
3,38,29,144
3,38,31,144
3,38,13,468
3,38,37,60
3,38,37,0
3,38,52,0
3,38,61,0
3,38,46,0
3,38,43,0
3,38,43,0
3,38,37,48
3,38,37,0
3,38,52,0
3,38,31,48
3,38,43,0
3,38,43,0
3,38,37,48
3,38,37,0
3,38,52,0
3,38,37,48
3,38,43,0
3,38,43,0
3,38,37,48
3,38,37,0
3,38,52,0
3,38,34,48
3,38,43,0
3,38,43,0
3,38,13,132
3,38,51,12
3,38,13,84
3,38,21,12
3,38,13,84
3,38,51,12
3,38,13,84
3,38,21,12
3,38,13,84
3,38,51,12
3,38,13,84
3,38,21,12
3,38,23,86
3,38,13,142
3,38,21,12
3,38,13,84
3,38,51,12
3,38,13,84
3,38,21,12
3,38,13,84
3,38,51,12
3,38,13,84
3,38,21,12
3,38,13,84
3,38,51,12
3,38,13,84
3,38,21,12
3,38,23,86
3,38,23,142
3,38,21,12
3,38,13,84
3,38,51,12
3,38,13,84
3,38,21,12
3,38,13,84
3,38,51,12
3,38,13,84
3,38,21,12
3,38,13,84
3,38,51,12
3,38,13,84
3,38,21,12
3,38,23,86
3,38,13,142
3,38,21,12
3,38,13,84
3,38,51,12
3,38,13,84
3,38,21,12
3,38,13,84
3,38,51,12
3,38,13,84
3,38,21,12
3,38,13,84
3,38,51,12
3,38,13,84
3,38,21,12
3,38,23,86
3,38,23,142
3,38,21,12
3,38,13,84
3,38,51,12
3,38,13,84
3,38,21,12
3,38,13,84
3,38,51,12
3,38,13,84
3,38,21,12
3,38,13,84
3,38,51,12
3,38,13,84
3,38,21,12
3,38,23,86
3,38,13,142
3,38,21,12
3,38,13,84
3,38,13,144
3,38,21,12
3,38,13,84
3,38,13,144
3,38,21,12
3,38,13,84
3,38,13,144
3,38,21,12
3,38,13,276
3,38,24,1528
3,38,32,20
3,38,23,0
3,38,20,0
3,38,26,0
3,38,26,0
3,38,19,0
3,38,18,0
3,38,24,0
3,38,32,20
3,38,23,0
3,38,20,0
3,38,26,0
3,38,26,0
3,38,23,0
3,38,22,0
3,38,24,0
3,38,32,20
3,38,23,0
3,38,20,0
3,38,26,0
3,38,26,0
3,38,32,0
3,38,22,0
4,40,101,2822
4,40,81,8
4,40,93,146
4,40,101,1238
4,40,81,8
4,40,93,146
4,40,101,1238
4,40,81,8
4,40,93,146
4,40,93,1680
4,40,93,336
4,40,93,336
4,40,93,336
4,40,101,1430
4,40,81,8
4,40,101,1432
4,40,81,8
4,40,101,1432
4,40,81,8
4,40,101,1432
4,40,81,8
4,40,101,1432
4,40,81,8
4,40,101,1432
4,40,81,8
4,40,101,1432
4,40,81,8
4,40,101,1432
4,40,81,8
4,40,101,1432
4,40,81,8
4,40,101,1432
4,40,81,8
4,40,90,1488
4,40,58,86
4,40,78,12
4,40,51,144
4,40,95,144
4,40,69,84
4,40,95,204
4,40,78,84
4,40,95,204
4,40,81,86
4,40,43,8
4,40,101,1432
4,40,81,8
4,40,101,1432
4,40,81,8
4,40,101,1432
4,40,81,8
4,40,101,1432
4,40,81,8
4,40,101,1432
4,40,81,8
4,40,72,338
4,40,76,336
4,40,90,336
4,40,101,278
4,40,81,8
4,40,101,1488
4,40,73,86
4,40,101,1354
4,40,73,86
4,40,101,1354
4,40,73,86
4,40,101,1354
4,40,73,86
4,40,101,1354
4,40,73,86
4,40,78,144
4,40,87,204
4,40,75,84
4,40,84,204
4,40,84,276
4,40,101,202
4,40,29,86
4,40,101,1354
4,40,101,1488
4,40,101,1488
4,40,101,1488
4,40,101,1488
4,40,101,1488
4,40,66,146
4,40,58,144
4,40,75,144
4,40,81,276
4,40,72,144
4,40,61,144
4,40,84,12
4,40,58,82
4,40,84,14
4,40,66,144
4,40,58,144
4,40,75,144
4,40,81,276
4,40,72,144
4,40,61,140
4,40,84,16
4,40,58,82
4,40,84,12
4,40,66,146
4,40,58,144
4,40,75,144
4,40,81,276
4,40,72,144
4,40,61,144
4,40,84,12
4,40,58,82
4,40,84,14
4,40,66,144
4,40,58,144
4,40,75,144
4,40,81,276
4,40,72,144
4,40,61,140
4,40,84,16
4,40,58,82
4,40,84,12
4,40,66,146
4,40,58,144
4,40,75,144
4,40,81,276
4,40,72,144
4,40,61,144
4,40,84,12
4,40,58,86
4,40,84,8
4,40,93,146
4,40,87,336
4,40,71,144
4,40,87,144
4,40,71,144
4,40,87,144
4,40,78,144
4,40,71,144
4,40,101,1294
4,40,101,1488
4,40,101,1488
4,40,101,1488
4,40,101,1488
4,40,61,338
4,40,68,336
4,40,71,336
4,40,101,278
4,40,81,8
4,40,95,1682
4,40,95,336
4,40,95,336
4,40,95,336
5,44,100,9408
5,44,100,728
5,44,100,728
5,44,100,728
5,44,100,728
5,44,100,728
5,44,100,728
5,44,100,728
5,44,100,728
5,44,100,728
5,44,100,728
5,44,100,728
5,44,100,728
5,44,100,728
5,44,100,728
5,44,100,728
5,44,100,728
5,44,100,728
5,44,100,728
5,44,100,728
5,44,100,728
5,44,100,728
5,44,100,1496
5,44,100,728
5,44,100,728
5,44,100,728
5,44,100,728
5,44,100,728
5,44,100,728
5,44,100,728
5,44,100,728
5,44,100,728
5,44,100,728
5,44,100,728
5,44,100,728
5,44,100,728
5,44,100,728
5,44,100,728
5,44,100,728
5,44,100,728
5,44,100,728
5,44,100,728
5,44,100,728
5,44,100,728
5,44,100,728
5,44,100,728
5,44,100,728
5,44,100,728
5,44,100,728
5,44,100,728
5,44,100,728
5,44,100,728
5,44,100,728
5,44,100,728
5,44,100,728
5,44,100,728
5,44,100,728
5,44,100,728
5,44,100,728
5,44,100,728
5,44,100,728
5,44,100,728
5,44,100,728
5,44,100,728
5,44,100,728
5,44,100,728
5,44,100,728
5,44,100,728
5,44,100,728
5,44,100,728
5,44,100,728
5,44,100,728
5,44,100,728
5,44,100,728
5,44,100,728
5,44,100,728
5,44,100,728
5,44,100,728
5,44,100,728
5,44,100,728
5,44,100,728
5,44,100,728
5,44,100,728
6,46,73,9792
6,46,73,728
6,46,73,728
6,46,73,728
6,46,73,728
6,46,73,728
6,46,73,728
6,46,73,728
