track,note,velocity,time
1,63,100,1512
1,63,96,90
1,63,98,64
1,63,104,82
1,60,117,120
1,55,108,238
1,58,117,140
1,58,125,84
1,63,102,1392
1,63,106,48
1,63,108,68
1,63,125,62
1,63,108,98
1,60,120,8
1,55,102,10
1,58,123,14
1,66,112,1608
1,66,106,50
1,66,108,90
1,66,117,64
1,65,110,16
1,63,110,134
1,60,100,260
1,63,114,4
1,63,125,82
1,63,98,1494
1,63,92,78
1,63,106,56
1,63,106,104
1,60,112,110
1,55,114,20
1,58,123,116
1,63,86,1654
1,63,106,42
1,63,106,72
1,63,110,36
1,63,120,50
1,63,125,24
1,63,125,66
1,65,125,10
1,65,125,72
1,58,92,1474
1,58,110,78
1,58,108,50
1,58,108,96
1,60,117,132
1,63,104,200
1,63,120,50
1,55,114,4
1,58,117,2
1,63,100,1726
1,63,96,90
1,63,98,64
1,63,104,82
1,60,117,120
1,55,108,238
1,58,117,140
1,58,125,84
1,63,102,1392
1,63,106,48
1,63,108,68
1,63,125,62
1,63,108,98
1,60,120,8
1,55,102,10
1,58,123,14
1,66,112,1608
1,66,106,50
1,66,108,90
1,66,117,64
1,65,110,16
1,63,110,134
1,60,100,260
1,63,114,4
1,63,125,82
1,63,98,1494
1,63,92,78
1,63,106,56
1,63,106,104
1,60,112,110
1,55,114,20
1,58,123,116
1,63,86,1654
1,63,106,42
1,63,106,72
1,63,110,36
1,63,120,50
1,63,125,24
1,63,125,66
1,65,125,10
1,65,125,72
1,58,92,1474
1,58,110,78
1,58,108,50
1,58,108,96
1,60,117,132
1,63,104,200
1,63,120,50
1,55,114,4
1,58,117,2
1,63,100,1726
1,63,96,90
1,63,98,64
1,63,104,82
1,60,117,120
1,55,108,238
1,58,117,140
1,58,125,84
1,63,102,1392
1,63,106,48
1,63,108,68
1,63,125,62
1,63,108,98
1,60,120,8
1,55,102,10
1,58,123,14
1,66,112,1608
1,66,106,50
1,66,108,90
1,66,117,64
1,65,110,16
1,63,110,134
1,60,100,260
1,63,114,4
1,63,125,82
1,63,98,1494
1,63,92,78
1,63,106,56
1,63,106,104
1,60,112,110
1,55,114,20
1,58,123,116
1,63,86,1654
1,63,106,42
1,63,106,72
1,63,110,36
1,63,120,50
1,63,125,24
1,63,125,66
1,65,125,10
1,65,125,72
1,58,92,1474
1,58,110,78
1,58,108,50
1,58,108,96
1,60,117,132
1,63,104,200
1,63,120,50
1,55,114,4
1,58,117,2
1,63,100,1726
1,63,96,90
1,63,98,64
1,63,104,82
1,60,117,120
1,55,108,238
1,58,117,140
1,58,125,84
1,63,102,1392
1,63,106,48
1,63,108,68
1,63,125,62
1,63,108,98
1,60,120,8
1,55,102,10
1,58,123,14
1,66,112,1608
1,66,106,50
1,66,108,90
1,66,117,64
1,65,110,16
1,63,110,134
1,60,100,260
1,63,114,4
1,63,125,82
1,63,98,1494
1,63,92,78
1,63,106,56
1,63,106,104
1,60,112,110
1,55,114,20
1,58,123,116
1,63,86,1654
1,63,106,42
1,63,106,72
1,63,110,36
1,63,120,50
1,63,125,24
1,63,125,66
1,65,125,10
1,65,125,72
1,58,92,1474
1,58,110,78
1,58,108,50
1,58,108,96
1,60,117,132
1,63,104,200
1,63,120,50
1,55,114,4
1,58,117,2
1,63,100,20158
1,63,96,90
1,63,98,64
1,63,104,82
1,60,117,120
1,55,108,238
1,58,117,140
1,58,125,84
1,63,102,1392
1,63,106,48
1,63,108,68
1,63,125,62
1,63,108,98
1,60,120,8
1,55,102,10
1,58,123,14
1,66,112,1608
1,66,106,50
1,66,108,90
1,66,117,64
1,65,110,16
1,63,110,134
1,60,100,260
1,63,114,4
1,63,125,82
1,63,98,1494
1,63,92,78
1,63,106,56
1,63,106,104
1,60,112,110
1,55,114,20
1,58,123,116
1,63,86,1654
1,63,106,42
1,63,106,72
1,63,110,36
1,63,120,50
1,63,125,24
1,63,125,66
1,65,125,10
1,65,125,72
1,58,92,1474
1,58,110,78
1,58,108,50
1,58,108,96
1,60,117,132
1,63,104,200
1,63,120,50
1,55,114,4
1,58,117,2
1,63,100,1726
1,63,96,90
1,63,98,64
1,63,104,82
1,60,117,120
1,55,108,238
1,58,117,140
1,58,125,84
1,63,102,1392
1,63,106,48
1,63,108,68
1,63,125,62
1,63,108,98
1,60,120,8
1,55,102,10
1,58,123,14
1,66,112,1608
1,66,106,50
1,66,108,90
1,66,117,64
1,65,110,16
1,63,110,134
1,60,100,260
1,63,114,4
1,63,125,82
1,63,98,1494
1,63,92,78
1,63,106,56
1,63,106,104
1,60,112,110
1,55,114,20
1,58,123,116
1,63,86,1654
1,63,106,42
1,63,106,72
1,63,110,36
1,63,120,50
1,63,125,24
1,63,125,66
1,65,125,10
1,65,125,72
1,75,125,1522
1,72,125,218
1,75,125,1010
1,70,125,224
1,79,125,970
1,75,125,216
2,67,83,3078
2,70,89,0
2,75,86,0
2,67,74,576
2,70,86,2
2,75,86,2
2,67,86,680
2,75,86,2
2,70,83,2
2,67,86,672
2,70,86,0
2,75,86,2
2,67,74,660
2,70,86,0
2,75,83,0
2,75,86,662
2,70,89,2
2,67,80,2
2,67,83,658
2,70,89,0
2,75,86,0
2,67,89,674
2,70,89,0
2,75,89,0
2,68,86,638
2,72,86,4
2,75,83,2
2,68,86,644
2,72,89,4
2,75,80,2
2,68,86,610
2,72,89,2
2,75,83,4
2,68,83,680
2,72,89,0
2,75,86,2
2,67,83,582
2,70,89,0
2,75,83,4
2,67,83,622
2,70,89,0
2,75,86,0
2,67,77,620
2,70,89,2
2,75,86,0
2,70,32,652
2,67,98,2
2,75,98,0
2,70,86,546
2,74,89,2
2,77,77,2
2,70,89,622
2,77,83,4
2,74,86,2
2,70,89,616
2,74,86,2
2,77,77,2
2,70,83,640
2,74,86,2
2,77,77,2
2,67,74,596
2,70,89,2
2,75,86,0
2,67,86,632
2,70,89,0
2,75,86,0
2,67,89,242
2,75,95,0
2,70,92,2
2,67,83,1804
2,70,89,0
2,75,86,0
2,67,74,576
2,70,86,2
2,75,86,2
2,67,86,680
2,75,86,2
2,70,83,2
2,67,86,672
2,70,86,0
2,75,86,2
2,67,74,660
2,70,86,0
2,75,83,0
2,75,86,662
2,70,89,2
2,67,80,2
2,67,83,658
2,70,89,0
2,75,86,0
2,67,89,674
2,70,89,0
2,75,89,0
2,68,86,638
2,72,86,4
2,75,83,2
2,68,86,644
2,72,89,4
2,75,80,2
2,68,86,610
2,72,89,2
2,75,83,4
2,68,83,680
2,72,89,0
2,75,86,2
2,67,83,582
2,70,89,0
2,75,83,4
2,67,83,622
2,70,89,0
2,75,86,0
2,67,77,620
2,70,89,2
2,75,86,0
2,70,32,652
2,67,98,2
2,75,98,0
2,70,86,546
2,74,89,2
2,77,77,2
2,70,89,622
2,77,83,4
2,74,86,2
2,70,89,616
2,74,86,2
2,77,77,2
2,70,83,640
2,74,86,2
2,77,77,2
2,67,74,596
2,70,89,2
2,75,86,0
2,67,86,632
2,70,89,0
2,75,86,0
2,67,89,242
2,75,95,0
2,70,92,2
2,67,83,1804
2,70,89,0
2,75,86,0
2,67,74,576
2,70,86,2
2,75,86,2
2,67,86,680
2,75,86,2
2,70,83,2
2,67,86,672
2,70,86,0
2,75,86,2
2,67,74,660
2,70,86,0
2,75,83,0
2,75,86,662
2,70,89,2
2,67,80,2
2,67,83,658
2,70,89,0
2,75,86,0
2,67,89,674
2,70,89,0
2,75,89,0
2,68,86,638
2,72,86,4
2,75,83,2
2,68,86,644
2,72,89,4
2,75,80,2
2,68,86,610
2,72,89,2
2,75,83,4
2,68,83,680
2,72,89,0
2,75,86,2
2,67,83,582
2,70,89,0
2,75,83,4
2,67,83,622
2,70,89,0
2,75,86,0
2,67,77,620
2,70,89,2
2,75,86,0
2,70,32,652
2,67,98,2
2,75,98,0
2,70,86,546
2,74,89,2
2,77,77,2
2,70,89,622
2,77,83,4
2,74,86,2
2,70,89,616
2,74,86,2
2,77,77,2
2,70,83,640
2,74,86,2
2,77,77,2
2,67,74,596
2,70,89,2
2,75,86,0
2,67,86,632
2,70,89,0
2,75,86,0
2,67,89,242
2,75,95,0
2,70,92,2
2,67,83,1804
2,70,89,0
2,75,86,0
2,67,74,576
2,70,86,2
2,75,86,2
2,67,86,680
2,75,86,2
2,70,83,2
2,67,86,672
2,70,86,0
2,75,86,2
2,67,74,660
2,70,86,0
2,75,83,0
2,75,86,662
2,70,89,2
2,67,80,2
2,67,83,658
2,70,89,0
2,75,86,0
2,67,89,674
2,70,89,0
2,75,89,0
2,68,86,638
2,72,86,4
2,75,83,2
2,68,86,644
2,72,89,4
2,75,80,2
2,68,86,610
2,72,89,2
2,75,83,4
2,68,83,680
2,72,89,0
2,75,86,2
2,67,83,582
2,70,89,0
2,75,83,4
2,67,83,622
2,70,89,0
2,75,86,0
2,67,77,620
2,70,89,2
2,75,86,0
2,70,32,652
2,67,98,2
2,75,98,0
2,70,86,546
2,74,89,2
2,77,77,2
2,70,89,622
2,77,83,4
2,74,86,2
2,70,89,616
2,74,86,2
2,77,77,2
2,70,83,640
2,74,86,2
2,77,77,2
2,67,74,596
2,70,89,2
2,75,86,0
2,67,86,632
2,70,89,0
2,75,86,0
2,67,89,242
2,75,95,0
2,70,92,2
2,75,72,7366
2,78,89,96
2,75,83,104
2,78,77,112
2,75,74,78
2,78,83,66
2,75,83,66
2,78,86,80
2,75,98,48
2,78,89,96
2,75,83,104
2,78,77,112
2,75,74,78
2,78,83,66
2,75,83,66
2,78,86,80
2,75,98,48
2,78,89,96
2,75,83,104
2,78,77,112
2,75,74,78
2,78,83,66
2,75,83,66
2,78,86,80
2,75,98,48
2,70,89,96
2,75,83,0
2,79,74,0
2,70,77,40
2,75,74,0
2,79,71,0
2,70,71,28
2,79,74,4
2,75,83,2
2,79,80,132
2,70,89,2
2,75,77,4
2,79,89,210
2,70,92,4
2,75,86,6
2,70,98,186
2,75,86,0
2,79,92,6
2,67,83,1670
2,70,89,0
2,75,86,0
2,67,74,576
2,70,86,2
2,75,86,2
2,67,86,680
2,75,86,2
2,70,83,2
2,67,86,672
2,70,86,0
2,75,86,2
2,67,74,660
2,70,86,0
2,75,83,0
2,75,86,662
2,70,89,2
2,67,80,2
2,67,83,658
2,70,89,0
2,75,86,0
2,67,89,674
2,70,89,0
2,75,89,0
2,68,86,638
2,72,86,4
2,75,83,2
2,68,86,644
2,72,89,4
2,75,80,2
2,68,86,610
2,72,89,2
2,75,83,4
2,68,83,680
2,72,89,0
2,75,86,2
2,67,83,582
2,70,89,0
2,75,83,4
2,67,83,622
2,70,89,0
2,75,86,0
2,67,77,620
2,70,89,2
2,75,86,0
2,70,32,652
2,67,98,2
2,75,98,0
2,70,86,546
2,74,89,2
2,77,77,2
2,70,89,622
2,77,83,4
2,74,86,2
2,70,89,616
2,74,86,2
2,77,77,2
2,70,83,640
2,74,86,2
2,77,77,2
2,67,74,596
2,70,89,2
2,75,86,0
2,67,86,632
2,70,89,0
2,75,86,0
2,67,89,242
2,75,95,0
2,70,92,2
2,67,83,1804
2,70,89,0
2,75,86,0
2,67,74,576
2,70,86,2
2,75,86,2
2,67,86,680
2,75,86,2
2,70,83,2
2,67,86,672
2,70,86,0
2,75,86,2
2,67,74,660
2,70,86,0
2,75,83,0
2,75,86,662
2,70,89,2
2,67,80,2
2,67,83,658
2,70,89,0
2,75,86,0
2,67,89,674
2,70,89,0
2,75,89,0
2,68,86,638
2,72,86,4
2,75,83,2
2,68,86,644
2,72,89,4
2,75,80,2
2,68,86,610
2,72,89,2
2,75,83,4
2,68,83,680
2,72,89,0
2,75,86,2
2,67,83,582
2,70,89,0
2,75,83,4
2,67,83,622
2,70,89,0
2,75,86,0
2,67,77,620
2,70,89,2
2,75,86,0
2,70,32,652
2,67,98,2
2,75,98,0
2,70,86,546
2,74,89,2
2,77,77,2
2,70,89,622
2,77,83,4
2,74,86,2
2,63,77,1400
2,68,80,0
2,72,83,0
2,63,80,42
2,72,83,2
2,68,62,6
2,74,92,1082
2,65,89,4
2,70,89,0
2,74,89,56
2,65,86,4
2,70,86,2
2,75,89,684
2,75,89,140
2,73,89,72
2,73,92,148
2,72,92,104
2,72,95,158
2,71,92,116
2,71,98,166
2,70,92,130
2,70,86,1358
2,72,71,252
2,74,77,92
2,75,92,58
3,39,64,2688
3,43,74,384
3,44,77,380
3,45,77,362
3,46,86,374
3,44,83,356
3,43,68,16
3,41,71,6
3,39,62,384
3,43,77,366
3,44,74,346
3,45,74,378
3,46,71,370
3,44,77,376
3,43,74,16
3,41,71,384
3,44,66,44
3,48,77,384
3,49,80,348
3,50,86,364
3,51,80,366
3,49,77,374
3,48,74,4
3,46,77,6
3,39,68,16
3,43,71,384
3,44,68,374
3,45,68,352
3,46,66,372
3,44,68,358
3,43,68,354
3,41,66,0
3,34,77,22
3,38,83,384
3,41,64,370
3,43,71,356
3,44,77,352
3,43,80,376
3,41,80,0
3,38,71,384
3,39,74,28
3,43,68,384
3,44,68,374
3,46,80,370
3,39,71,370
3,39,64,1328
3,43,74,384
3,44,77,380
3,45,77,362
3,46,86,374
3,44,83,356
3,43,68,16
3,41,71,6
3,39,62,384
3,43,77,366
3,44,74,346
3,45,74,378
3,46,71,370
3,44,77,376
3,43,74,16
3,41,71,384
3,44,66,44
3,48,77,384
3,49,80,348
3,50,86,364
3,51,80,366
3,49,77,374
3,48,74,4
3,46,77,6
3,39,68,16
3,43,71,384
3,44,68,374
3,45,68,352
3,46,66,372
3,44,68,358
3,43,68,354
3,41,66,0
3,34,77,22
3,38,83,384
3,41,64,370
3,43,71,356
3,44,77,352
3,43,80,376
3,41,80,0
3,38,71,384
3,39,74,28
3,43,68,384
3,44,68,374
3,46,80,370
3,39,71,370
3,39,64,1328
3,43,74,384
3,44,77,380
3,45,77,362
3,46,86,374
3,44,83,356
3,43,68,16
3,41,71,6
3,39,62,384
3,43,77,366
3,44,74,346
3,45,74,378
3,46,71,370
3,44,77,376
3,43,74,16
3,41,71,384
3,44,66,44
3,48,77,384
3,49,80,348
3,50,86,364
3,51,80,366
3,49,77,374
3,48,74,4
3,46,77,6
3,39,68,16
3,43,71,384
3,44,68,374
3,45,68,352
3,46,66,372
3,44,68,358
3,43,68,354
3,41,66,0
3,34,77,22
3,38,83,384
3,41,64,370
3,43,71,356
3,44,77,352
3,43,80,376
3,41,80,0
3,38,71,384
3,39,74,28
3,43,68,384
3,44,68,374
3,46,80,370
3,39,71,370
3,39,64,1328
3,43,74,384
3,44,77,380
3,45,77,362
3,46,86,374
3,44,83,356
3,43,68,16
3,41,71,6
3,39,62,384
3,43,77,366
3,44,74,346
3,45,74,378
3,46,71,370
3,44,77,376
3,43,74,16
3,41,71,384
3,44,66,44
3,48,77,384
3,49,80,348
3,50,86,364
3,51,80,366
3,49,77,374
3,48,74,4
3,46,77,6
3,39,68,16
3,43,71,384
3,44,68,374
3,45,68,352
3,46,66,372
3,44,68,358
3,43,68,354
3,41,66,0
3,34,77,22
3,38,83,384
3,41,64,370
3,43,71,356
3,44,77,352
3,43,80,376
3,41,80,0
3,38,71,384
3,39,74,28
3,43,68,384
3,44,68,374
3,46,80,370
3,39,71,370
3,39,66,1342
3,43,68,2
3,44,74,384
3,45,74,0
3,46,71,384
3,44,74,340
3,43,71,320
3,41,74,320
3,39,64,12
3,43,74,30
3,44,74,384
3,45,62,6
3,46,64,384
3,44,74,340
3,43,71,420
3,41,71,282
3,32,64,52
3,36,62,384
3,37,71,372
3,39,62,376
3,32,64,336
3,36,56,366
3,37,74,316
3,39,62,334
3,32,62,348
3,36,60,340
3,37,71,354
3,39,64,352
3,32,68,326
3,36,58,320
3,37,74,356
3,39,68,332
3,32,62,324
3,36,60,356
3,37,68,354
3,39,68,360
3,32,68,348
3,36,62,330
3,37,74,338
3,39,80,348
3,39,89,32
3,39,86,72
3,39,89,56
3,39,101,152
3,39,101,234
3,39,104,128
3,39,64,1152
3,43,74,384
3,44,77,380
3,45,77,362
3,46,86,374
3,44,83,356
3,43,68,16
3,41,71,6
3,39,62,384
3,43,77,366
