track,note,velocity,time
0,40,110,852
0,40,0,4
0,40,123,62
0,40,0,4
0,57,94,182
0,61,82,3
0,35,127,3
0,40,103,0
0,44,97,0
0,69,114,0
0,64,86,2
0,35,0,2
0,40,0,0
0,69,94,1
0,33,109,4
0,69,113,16
0,69,113,85
0,69,87,2
0,69,110,2
0,69,113,47
0,69,86,1
0,69,112,1
0,69,86,1
0,69,113,2
0,40,110,11
0,40,0,4
0,40,123,62
0,40,0,4
0,57,94,182
0,61,82,3
0,35,127,3
0,40,103,0
0,44,97,0
0,73,114,0
0,64,86,2
0,35,0,2
0,40,0,0
0,69,94,1
0,33,109,4
0,73,113,16
0,73,113,85
0,73,87,2
0,73,110,2
0,73,113,47
0,73,86,1
0,73,112,1
0,73,100,1
0,73,113,2
0,40,110,11
0,40,0,4
0,40,123,62
0,40,0,4
0,57,94,182
0,61,82,3
0,35,127,3
0,40,103,0
0,44,96,0
0,76,114,0
0,64,86,2
0,35,0,2
0,40,0,0
0,69,94,1
0,33,109,4
0,76,113,16
0,76,90,1
0,76,0,63
0,76,113,1
0,76,87,2
0,76,110,2
0,76,113,47
0,76,86,1
0,76,112,1
0,76,86,1
0,76,113,2
0,73,118,5
0,74,119,1
0,75,118,1
0,76,117,1
0,52,94,58
0,56,94,4
0,28,96,3
0,35,124,0
0,40,100,0
0,44,94,0
0,59,94,1
0,35,0,3
0,40,0,0
0,64,94,0
0,52,0,82
0,56,0,4
0,59,0,4
0,64,0,3
0,76,114,23
0,76,116,20
0,52,94,50
0,56,94,4
0,28,95,3
0,35,124,0
0,40,100,0
0,44,94,0
0,59,94,1
0,35,0,3
0,40,0,0
0,64,94,2
0,52,0,80
0,56,0,4
0,59,0,4
0,64,0,5
0,76,115,21
0,76,114,16
0,52,94,80
0,56,94,4
0,28,97,3
0,35,124,0
0,40,100,0
0,44,94,0
0,76,116,0
0,59,94,1
0,35,0,3
0,40,0,0
0,64,94,0
0,52,0,82
0,56,0,4
0,59,0,3
0,64,0,3
0,76,108,23
0,76,99,86
0,59,75,1
0,56,77,5
0,40,95,2
0,52,75,3
0,40,0,1
0,52,0,8
0,52,94,1
0,56,0,2
0,56,94,0
0,59,0,0
0,28,97,1
0,35,124,0
0,40,103,0
0,44,94,0
0,76,98,0
0,59,94,3
0,35,0,1
0,40,0,0
0,64,94,4
0,52,0,80
0,56,0,3
0,59,0,4
0,64,0,5
0,76,108,19
0,28,0,16
0,33,93,8
0,35,108,0
0,69,110,0
0,35,0,4
0,52,96,8
0,57,95,4
0,57,96,3
0,61,94,0
0,64,95,5
0,51,84,3
0,51,0,4
0,37,94,1
0,40,99,0
0,44,92,0
0,51,79,0
0,73,110,0
0,40,0,4
0,51,0,0
0,51,87,1
0,51,0,4
0,52,94,5
0,57,95,4
0,35,106,4
0,38,94,0
0,51,79,0
0,57,94,0
0,76,110,0
0,61,94,1
0,35,0,3
0,51,0,0
0,64,95,1
0,51,87,2
0,51,0,4
0,39,92,6
0,40,101,0
0,44,92,0
0,51,84,0
0,40,0,4
0,51,0,0
0,51,90,124
0,51,0,4
0,52,97,54
0,57,94,1
0,35,106,2
0,40,94,0
0,51,77,0
0,57,93,0
0,69,108,0
0,61,96,1
0,35,0,3
0,51,0,0
0,64,94,1
0,51,82,2
0,51,0,4
0,38,94,1
0,40,100,0
0,44,92,0
0,51,82,0
0,73,110,0
0,40,0,4
0,51,0,0
0,52,94,108
0,57,95,5
0,57,93,2
0,76,112,0
0,61,94,4
0,64,90,2
0,51,74,2
0,51,0,4
0,35,106,1
0,37,93,0
0,51,94,0
0,35,0,4
0,51,0,0
0,76,109,54
0,51,94,8
0,51,0,4
0,32,97,5
0,40,100,0
0,44,91,0
0,51,85,0
0,40,0,4
0,51,0,0
0,69,109,64
0,51,90,8
0,51,0,4
0,35,106,6
0,45,89,0
0,51,77,0
0,69,107,0
0,35,0,4
0,51,0,0
0,52,96,109
0,57,95,4
0,57,92,3
0,61,94,0
0,64,95,5
0,51,82,3
0,51,0,4
0,40,100,1
0,44,91,0
0,44,92,0
0,51,82,0
0,73,109,0
0,40,0,4
0,51,0,0
0,51,74,92
0,51,0,4
0,52,94,0
0,57,95,4
0,35,106,4
0,43,86,0
0,51,94,0
0,57,91,0
0,76,113,0
0,61,94,1
0,35,0,3
0,51,0,0
0,64,95,1
0,76,101,17
0,51,94,2
0,51,0,4
0,40,98,1
0,42,91,0
0,44,91,0
0,51,85,0
0,78,114,0
0,40,0,4
0,51,0,0
0,76,104,8
0,51,90,8
0,51,0,4
0,52,97,32
0,57,94,4
0,35,106,1
0,40,87,0
0,51,77,0
0,57,92,0
0,79,111,0
0,61,96,1
0,35,0,3
0,51,0,0
0,64,94,1
0,51,82,2
0,51,0,4
0,39,91,1
0,40,100,0
0,44,94,0
0,51,82,0
0,76,109,0
0,40,0,4
0,51,0,0
0,52,94,9
0,57,95,5
0,57,92,3
0,73,109,0
0,61,94,4
0,64,90,2
0,51,74,2
0,51,0,4
0,35,106,1
0,40,89,0
0,51,94,0
0,35,0,4
0,51,0,0
0,69,114,54
0,51,94,8
0,51,0,4
0,33,92,1
0,40,100,0
0,44,93,0
0,51,85,0
0,69,93,0
0,40,0,4
0,51,0,0
0,69,0,110
0,69,115,6
0,51,90,8
0,51,0,4
0,35,108,1
0,38,87,0
0,51,82,0
0,76,117,0
0,35,0,4
0,51,0,0
0,50,96,109
0,57,95,4
0,57,92,3
0,60,94,0
0,66,95,5
0,51,84,3
0,51,0,4
0,40,99,1
0,42,88,0
0,44,92,0
0,51,79,0
0,40,0,4
0,51,0,0
0,74,116,89
0,51,87,8
0,51,0,4
0,50,94,52
0,57,95,4
0,35,106,1
0,43,86,0
0,51,79,0
0,57,92,0
0,72,111,0
0,60,94,1
0,35,0,3
0,51,0,0
0,66,95,1
0,51,87,2
0,51,0,4
0,40,101,1
0,44,88,0
0,44,92,0
0,51,84,0
0,69,112,0
0,40,0,4
0,51,0,0
0,51,90,124
0,51,0,4
0,50,97,35
0,57,94,4
0,35,106,1
0,45,89,0
0,51,77,0
0,57,91,0
0,76,115,0
0,60,96,1
0,35,0,3
0,51,0,0
0,66,94,1
0,51,82,2
0,51,0,2
0,40,100,1
0,44,88,0
0,44,92,0
0,51,82,0
0,74,116,0
0,40,0,4
0,51,0,0
0,50,94,108
0,57,95,5
0,57,89,3
0,72,114,0
0,60,94,4
0,66,90,2
0,51,74,2
0,51,0,4
0,35,106,13
0,43,84,0
0,51,94,0
0,35,0,4
0,51,0,0
0,76,119,54
0,51,94,8
0,51,0,4
0,40,100,1
0,42,89,0
0,44,91,0
0,51,85,0
0,76,114,0
0,40,0,4
0,51,0,0
0,76,116,52
0,51,90,8
0,51,0,4
0,35,106,1
0,45,86,0
0,51,77,0
0,76,113,0
0,35,0,4
0,51,0,0
0,52,96,15
0,57,95,4
0,57,92,3
0,61,94,0
0,64,95,5
0,51,82,3
0,51,0,4
0,40,100,1
0,44,84,0
0,44,92,0
0,51,82,0
0,74,119,0
0,40,0,4
0,51,0,0
0,51,74,20
0,51,0,4
0,52,94,52
0,57,95,4
0,35,106,1
0,43,84,0
0,51,94,0
0,57,91,0
0,73,117,0
0,61,94,1
0,35,0,3
0,51,0,0
0,64,95,1
0,51,94,2
0,51,0,4
0,40,82,1
0,40,98,0
0,44,91,0
0,51,85,0
0,69,115,0
0,40,0,4
0,51,0,0
0,51,90,10
0,51,0,4
0,52,97,7
0,57,94,4
0,35,106,2
0,45,86,0
0,51,77,0
0,57,91,0
0,76,118,0
0,61,96,1
0,35,0,3
0,51,0,0
0,64,94,1
0,51,82,2
0,51,0,4
0,40,100,1
0,44,85,0
0,44,94,0
0,51,82,0
0,74,116,0
0,40,0,4
0,51,0,0
0,52,94,9
0,57,95,5
0,57,91,3
0,73,117,0
0,61,94,4
0,64,90,2
0,51,74,2
0,51,0,4
0,35,106,1
0,43,86,0
0,51,94,0
0,35,0,4
0,51,0,0
0,73,111,54
0,51,94,8
0,51,0,4
0,40,86,1
0,40,100,0
0,44,93,0
0,51,85,0
0,73,109,0
0,40,0,4
0,51,0,0
0,73,112,50
0,51,90,8
0,51,0,4
0,35,108,14
0,40,84,0
0,51,82,0
0,74,114,0
0,35,0,4
0,51,0,0
0,52,96,109
0,56,95,4
0,59,92,3
0,59,94,0
0,64,95,1
0,51,84,3
0,51,0,4
0,39,85,1
0,40,99,0
0,44,92,0
0,51,79,0
0,74,115,0
0,40,0,4
0,51,0,0
0,73,110,1
0,51,87,8
0,51,0,4
0,52,94,19
0,56,95,4
0,35,106,1
0,38,85,0
0,51,79,0
0,59,91,0
0,74,118,0
0,59,94,1
0,35,0,3
0,51,0,0
0,64,95,1
0,76,117,8
0,51,87,2
0,51,0,4
0,35,82,1
0,40,101,0
0,44,92,0
0,51,84,0
0,40,0,4
0,51,0,0
0,74,108,81
0,51,90,8
0,51,0,4
0,52,97,5
0,56,94,4
0,35,106,1
0,40,83,0
0,51,77,0
0,59,91,0
0,76,116,0
0,59,96,1
0,35,0,3
0,51,0,0
0,64,94,1
0,51,82,2
0,51,0,4
0,39,85,1
0,40,100,0
0,44,92,0
0,51,82,0
0,74,113,0
0,40,0,4
0,51,0,0
0,52,94,108
0,56,95,5
0,59,92,1
0,69,97,0
0,59,94,4
0,64,90,2
0,51,74,2
0,51,0,4
0,35,106,1
0,38,85,0
0,51,94,0
0,35,0,4
0,51,0,0
0,51,94,62
0,51,0,4
0,35,81,1
0,40,100,0
0,44,91,0
0,51,85,0
0,69,115,0
0,40,0,4
0,51,0,0
0,69,110,20
0,51,90,8
0,51,0,4
0,33,86,1
0,35,106,0
0,51,77,0
0,35,0,4
0,51,0,0
0,52,96,109
0,57,95,4
0,57,92,3
0,61,94,0
0,64,95,5
0,51,82,3
0,51,0,4
0,37,84,2
0,40,100,0
0,44,92,0
0,51,82,0
0,40,0,4
0,51,0,0
0,51,74,83
0,51,0,4
0,52,94,52
0,57,95,4
0,35,106,1
0,40,83,0
0,51,94,0
0,57,92,0
0,61,94,1
0,35,0,3
0,51,0,0
0,64,95,1
0,51,94,2
0,51,0,4
0,40,98,10
0,42,89,0
0,44,91,0
0,51,85,0
0,40,0,4
0,51,0,0
0,51,90,124
0,51,0,4
0,52,97,54
0,57,94,4
0,35,106,1
0,45,86,0
0,51,77,0
0,57,92,0
0,61,96,1
0,35,0,3
0,51,0,0
0,64,94,1
0,51,82,2
0,51,0,4
0,40,100,1
0,42,86,0
0,44,94,0
0,51,82,0
0,40,0,4
0,51,0,0
0,52,94,108
0,57,95,5
0,57,92,3
0,61,94,4
0,64,90,2
0,51,74,2
0,51,0,4
0,35,106,3
0,40,86,0
0,51,94,0
0,35,0,4
0,51,0,0
0,69,99,54
0,51,94,8
0,51,0,4
0,37,87,1
0,40,100,0
0,44,93,0
0,51,85,0
0,69,98,0
0,40,0,4
0,51,0,0
0,69,108,31
0,51,90,8
0,51,0,4
0,33,93,1
0,35,108,0
0,51,79,0
0,69,110,0
0,35,0,4
0,51,0,0
0,52,96,8
0,57,95,4
0,57,96,3
0,61,94,0
0,64,95,5
0,51,84,3
0,51,0,4
0,37,94,1
0,40,99,0
0,44,92,0
0,51,79,0
0,73,110,0
0,40,0,4
0,51,0,0
0,51,87,1
0,51,0,4
0,52,94,5
0,57,95,4
0,35,106,4
0,38,94,0
0,51,79,0
0,57,94,0
0,76,110,0
0,61,94,1
0,35,0,3
0,51,0,0
0,64,95,1
0,51,87,2
0,51,0,4
0,39,92,6
0,40,101,0
0,44,92,0
0,51,84,0
0,40,0,4
0,51,0,0
0,51,90,124
0,51,0,4
0,52,97,54
0,57,94,1
0,35,106,2
0,40,94,0
0,51,77,0
0,57,93,0
0,69,108,0
0,61,96,1
0,35,0,3
0,51,0,0
0,64,94,1
0,51,82,2
0,51,0,4
0,40,100,1
0,42,94,0
0,44,92,0
0,51,82,0
0,73,110,0
0,40,0,4
0,51,0,0
0,52,94,108
0,57,95,5
0,57,93,2
0,76,112,0
0,61,94,4
0,64,90,2
0,51,74,2
0,51,0,4
0,35,106,1
0,43,93,0
0,51,94,0
0,35,0,4
0,51,0,0
0,76,109,54
0,51,94,8
0,51,0,4
0,40,100,5
0,44,97,0
0,44,91,0
0,51,85,0
0,40,0,4
0,51,0,0
0,69,109,64
0,51,90,8
0,51,0,4
0,35,106,6
0,45,89,0
0,51,77,0
0,69,107,0
0,35,0,4
0,51,0,0
0,52,96,109
0,57,95,4
0,57,92,3
0,61,94,0
0,64,95,5
0,51,82,3
0,51,0,4
0,40,100,1
0,44,91,0
0,44,92,0
0,51,82,0
0,73,109,0
0,40,0,4
0,51,0,0
0,51,74,92
0,51,0,4
0,52,94,0
0,57,95,4
0,35,106,4
0,43,86,0
0,51,94,0
0,57,91,0
0,76,113,0
0,61,94,1
0,35,0,3
0,51,0,0
0,64,95,1
0,51,94,2
0,51,0,4
0,40,98,1
0,42,91,0
0,44,91,0
0,51,85,0
0,78,114,0
0,40,0,4
0,51,0,0
0,51,90,124
0,51,0,4
0,52,97,54
0,57,94,4
0,35,106,1
0,40,87,0
0,51,77,0
0,57,92,0
0,79,111,0
0,61,96,1
0,35,0,3
0,51,0,0
0,64,94,1
0,51,82,2
0,51,0,4
0,39,91,1
0,40,100,0
0,44,94,0
0,51,82,0
0,76,109,0
0,40,0,4
0,51,0,0
0,52,94,9
0,57,95,5
0,57,92,3
0,73,109,0
0,61,94,4
0,64,90,2
0,51,74,2
0,51,0,4
0,35,106,1
0,37,89,0
0,51,94,0
0,35,0,4
0,51,0,0
0,69,114,54
0,51,94,8
0,51,0,4
0,33,92,1
0,40,100,0
0,44,93,0
0,51,85,0
0,69,93,0
0,40,0,4
0,51,0,0
0,69,0,110
0,69,115,6
0,51,90,8
0,51,0,4
0,35,108,1
0,38,87,0
0,51,82,0
0,76,117,0
0,35,0,4
0,51,0,0
0,50,96,109
0,57,95,4
0,57,92,3
0,60,94,0
0,66,95,5
0,51,84,3
0,51,0,4
0,40,99,1
0,42,88,0
0,44,92,0
0,51,79,0
0,40,0,4
0,51,0,0
0,74,116,89
0,51,87,8
0,51,0,4
0,50,94,52
0,57,95,4
0,35,106,1
0,43,86,0
0,51,79,0
0,57,92,0
0,72,111,0
0,60,94,1
0,35,0,3
0,51,0,0
0,66,95,1
0,51,87,2
0,51,0,4
0,40,101,1
0,44,88,0
0,44,92,0
0,51,84,0
0,69,112,0
0,40,0,4
0,51,0,0
0,51,90,124
0,51,0,4
0,50,97,35
0,57,94,4
0,35,106,1
0,45,89,0
0,51,77,0
0,57,91,0
0,76,115,0
0,60,96,1
0,35,0,3
0,51,0,0
0,66,94,1
0,51,82,2
0,51,0,2
0,40,100,1
0,44,88,0
0,44,92,0
0,51,82,0
0,74,116,0
0,40,0,4
0,51,0,0
0,50,94,108
0,57,95,5
0,57,89,3
0,72,114,0
0,60,94,4
0,66,90,2
0,51,74,2
0,51,0,4
0,35,106,13
0,43,84,0
0,51,94,0
0,35,0,4
0,51,0,0
0,76,119,54
0,51,94,8
0,51,0,4
0,40,100,1
0,42,89,0
0,44,91,0
0,51,85,0
0,76,114,0
0,40,0,4
0,51,0,0
0,76,116,52
0,51,90,8
0,51,0,4
0,35,106,1
0,45,86,0
0,51,77,0
0,76,113,0
0,35,0,4
0,51,0,0
0,52,96,15
0,57,95,4
0,57,92,3
0,61,94,0
0,64,95,5
0,51,82,3
0,51,0,4
0,40,100,1
0,44,84,0
0,44,92,0
0,51,82,0
0,74,119,0
0,40,0,4
0,51,0,0
0,51,74,20
0,51,0,4
0,52,94,52
0,57,95,4
0,35,106,1
0,43,84,0
0,51,94,0
0,57,91,0
0,73,117,0
0,61,94,1
0,35,0,3
0,51,0,0
0,64,95,1
0,51,94,2
0,51,0,4
0,40,98,1
0,42,82,0
0,44,91,0
0,51,85,0
0,69,115,0
0,40,0,4
0,51,0,0
0,51,90,10
0,51,0,4
0,52,97,7
0,57,94,4
