track,note,velocity,time
1,29,113,2736
1,29,93,56
1,29,108,50
1,29,113,2518
1,29,93,56
1,29,108,50
1,29,96,598
1,29,96,106
1,33,97,6
1,36,91,40
1,28,94,6
1,29,92,28
1,29,94,116
1,33,97,6
1,36,90,6
1,28,93,6
1,29,96,24
1,29,96,106
1,33,97,6
1,36,91,40
1,28,94,6
1,29,92,28
1,29,94,116
1,33,97,6
1,36,90,6
1,28,93,6
1,41,101,24
1,41,99,60
1,41,100,74
1,41,96,70
1,39,103,54
1,39,103,56
1,39,104,72
1,40,101,52
1,41,103,18
1,29,113,240
1,29,93,56
1,29,108,50
1,29,96,598
1,29,96,106
1,33,97,6
1,36,91,40
1,28,94,6
1,29,92,28
1,29,94,116
1,33,97,6
1,36,90,6
1,28,93,6
1,41,101,24
1,41,99,60
1,41,100,74
1,41,96,70
1,39,103,54
1,39,103,56
1,39,104,72
1,40,101,52
1,41,103,18
1,29,113,240
1,29,93,56
1,29,108,50
1,29,96,598
1,29,96,106
1,33,97,6
1,36,91,40
1,28,94,6
1,29,92,28
1,29,94,116
1,33,97,6
1,36,90,6
1,28,93,6
1,41,101,24
1,41,99,60
1,41,100,74
1,41,96,70
1,39,103,54
1,39,103,56
1,39,104,72
1,40,101,52
1,41,103,18
1,41,113,144
1,41,93,56
1,41,108,50
1,41,108,22
1,43,108,22
1,45,108,22
1,46,93,22
1,46,94,54
1,46,95,6
1,41,91,60
1,41,93,46
1,44,93,40
1,45,98,32
1,46,93,34
1,46,93,70
1,46,91,6
1,41,89,50
1,41,92,38
1,41,95,40
1,41,95,46
1,46,98,28
1,46,98,82
1,46,98,36
1,44,97,36
1,44,97,36
1,44,99,36
1,45,100,36
1,46,98,30
1,46,95,132
1,46,96,36
1,46,99,36
1,46,99,36
1,45,99,36
1,43,99,36
1,29,96,36
1,29,96,106
1,33,97,6
1,36,91,40
1,28,94,6
1,29,92,28
1,29,94,116
1,33,97,6
1,36,90,6
1,28,93,6
1,41,101,24
1,41,99,60
1,41,100,74
1,41,96,70
1,39,103,54
1,39,103,56
1,39,104,72
1,40,101,52
1,41,103,18
1,41,113,144
1,41,93,56
1,41,108,50
1,41,108,22
1,40,108,22
1,38,108,22
1,36,103,22
1,36,103,96
1,36,105,86
1,36,96,12
1,36,103,48
1,35,103,6
1,34,103,6
1,34,105,48
1,34,96,6
1,34,104,36
1,34,96,6
1,36,104,28
1,38,96,10
1,41,103,28
1,41,105,46
1,41,96,6
1,45,104,36
1,45,96,6
1,46,104,28
1,48,89,6
1,41,103,6
1,41,105,46
1,41,96,6
1,45,104,36
1,45,96,6
1,46,104,28
1,48,89,6
1,29,96,6
1,29,96,106
1,33,97,6
1,36,91,40
1,28,94,6
1,29,92,28
1,29,94,116
1,33,97,6
1,36,90,6
1,28,93,6
1,29,96,24
1,29,96,106
1,33,97,6
1,36,91,40
1,28,94,6
1,29,92,28
1,29,94,116
1,33,97,6
1,36,90,6
1,28,93,6
1,41,101,24
1,41,99,60
1,41,100,74
1,41,96,70
1,39,103,54
1,39,103,56
1,39,104,72
1,40,101,52
1,41,103,18
1,29,113,240
1,29,93,56
1,29,108,50
1,29,96,598
1,29,96,106
1,33,97,6
1,36,91,40
1,28,94,6
1,29,92,28
1,29,94,116
1,33,97,6
1,36,90,6
1,28,93,6
1,41,101,24
1,41,99,60
1,41,100,74
1,41,96,70
1,39,103,54
1,39,103,56
1,39,104,72
1,40,101,52
1,41,103,18
1,29,113,240
1,29,93,56
1,29,108,50
1,29,96,598
1,29,96,106
1,33,97,6
1,36,91,40
1,28,94,6
1,29,92,28
1,29,94,116
1,33,97,6
1,36,90,6
1,28,93,6
1,41,101,24
1,41,99,60
1,41,100,74
1,41,96,70
1,39,103,54
1,39,103,56
1,39,104,72
1,40,101,52
1,41,103,18
1,41,113,144
1,41,93,56
1,41,108,50
1,41,108,22
1,43,108,22
1,45,108,22
1,46,93,22
1,46,94,54
1,46,95,6
1,41,91,60
1,41,93,46
1,44,93,40
1,45,98,32
1,46,93,34
1,46,93,70
1,46,91,6
1,41,89,50
1,41,92,38
1,41,95,40
1,41,95,46
1,46,98,28
1,46,98,82
1,46,98,36
1,44,97,36
1,44,97,36
1,44,99,36
1,45,100,36
1,46,98,30
1,46,95,132
1,46,96,36
1,46,99,36
1,46,99,36
1,45,99,36
1,43,99,36
1,29,96,36
1,29,96,106
1,33,97,6
1,36,91,40
1,28,94,6
1,29,92,28
1,29,94,116
1,33,97,6
1,36,90,6
1,28,93,6
1,41,101,24
1,41,99,60
1,41,100,74
1,41,96,70
1,39,103,54
1,39,103,56
1,39,104,72
1,40,101,52
1,41,103,18
1,41,113,144
1,41,93,56
1,41,108,50
1,41,108,22
1,40,108,22
1,38,108,22
1,36,103,22
1,36,103,96
1,36,105,86
1,36,96,12
1,36,103,48
1,35,103,6
1,34,103,6
1,34,105,48
1,34,96,6
1,34,104,36
1,34,96,6
1,36,104,28
1,38,96,10
1,41,103,28
1,41,105,46
1,41,96,6
1,45,104,36
1,45,96,6
1,46,104,28
1,48,89,6
1,41,103,6
1,41,105,46
1,41,96,6
1,45,104,36
1,45,96,6
1,46,104,28
1,48,89,6
1,29,96,6
1,29,96,106
1,33,97,6
1,36,91,40
1,28,94,6
1,29,92,28
1,29,94,116
1,33,97,6
1,36,90,6
1,28,93,6
1,29,96,24
1,29,96,106
1,33,97,6
1,36,91,40
1,28,94,6
1,29,92,28
1,29,94,116
1,33,97,6
1,36,90,6
1,28,93,6
1,41,101,24
1,41,99,60
1,41,100,74
1,41,96,70
1,39,103,54
1,39,103,56
1,39,104,72
1,40,101,52
1,41,103,18
1,29,113,240
1,29,93,56
1,29,108,50
1,29,96,598
1,29,96,106
1,33,97,6
1,36,91,40
1,28,94,6
1,29,92,28
1,29,94,116
1,33,97,6
1,36,90,6
1,28,93,6
1,41,101,24
1,41,99,60
1,41,100,74
1,41,96,70
1,39,103,54
1,39,103,56
1,39,104,72
1,40,101,52
1,41,103,18
1,29,113,240
1,29,93,56
1,29,108,50
1,29,96,598
1,29,96,106
1,33,97,6
1,36,91,40
1,28,94,6
1,29,92,28
1,29,94,116
1,33,97,6
1,36,90,6
1,28,93,6
1,41,101,24
1,41,99,60
1,41,100,74
1,41,96,70
1,39,103,54
1,39,103,56
1,39,104,72
1,40,101,52
1,41,103,18
1,41,113,144
1,41,93,56
1,41,108,50
1,41,108,22
1,43,108,22
1,45,108,22
1,46,93,22
1,46,94,54
1,46,95,6
1,41,91,60
1,41,93,46
1,44,93,40
1,45,98,32
1,46,93,34
1,46,93,70
1,46,91,6
1,41,89,50
1,41,92,38
1,41,95,40
1,41,95,46
1,46,98,28
1,46,98,82
1,46,98,36
1,44,97,36
1,44,97,36
1,44,99,36
1,45,100,36
1,46,98,30
1,46,95,132
1,46,96,36
1,46,99,36
1,46,99,36
1,45,99,36
1,43,99,36
1,29,96,36
1,29,96,106
1,33,97,6
1,36,91,40
1,28,94,6
1,29,92,28
1,29,94,116
1,33,97,6
1,36,90,6
1,28,93,6
1,41,101,24
1,41,99,60
1,41,100,74
1,41,96,70
1,39,103,54
1,39,103,56
1,39,104,72
1,40,101,52
1,41,103,18
1,41,113,144
1,41,93,56
1,41,108,50
1,41,108,22
1,40,108,22
1,38,108,22
1,36,103,22
1,36,103,96
1,36,105,86
1,36,96,12
1,36,103,48
1,35,103,6
1,34,103,6
1,34,105,48
1,34,96,6
1,34,104,36
1,34,96,6
1,36,104,28
1,38,96,10
1,41,103,28
1,41,105,46
1,41,96,6
1,45,104,36
1,45,96,6
1,46,104,28
1,48,89,6
1,41,103,6
1,41,105,46
1,41,96,6
1,45,104,36
1,45,96,6
1,46,104,28
1,48,89,6
1,29,96,6
1,29,96,106
1,33,97,6
1,36,91,40
1,28,94,6
1,29,92,28
1,29,94,116
1,33,97,6
1,36,90,6
1,28,93,6
1,29,96,24
1,29,96,106
1,33,97,6
1,36,91,40
1,28,94,6
1,29,92,28
1,29,94,116
1,33,97,6
1,36,90,6
1,28,93,6
1,41,101,24
1,41,99,60
1,41,100,74
1,41,96,70
1,39,103,54
1,39,103,56
1,39,104,72
1,40,101,52
1,41,103,18
1,29,113,240
1,29,93,56
1,29,108,50
1,29,108,598
2,53,100,2624
2,53,88,92
2,53,88,60
2,53,100,2554
2,53,98,28
2,53,92,18
2,53,97,634
2,62,95,294
2,60,96,12
2,52,93,6
2,53,94,6
2,62,99,358
2,60,95,6
2,52,95,6
2,53,94,6
2,62,97,346
2,60,94,576
2,52,96,6
2,53,94,6
2,62,96,350
2,60,95,32
2,52,95,6
2,65,92,6
2,63,91,6
2,65,98,6
2,53,100,188
2,53,88,92
2,53,88,60
2,53,94,634
2,62,97,346
2,60,94,576
2,52,96,6
2,53,94,6
2,62,96,350
2,60,95,32
2,52,95,6
2,65,92,6
2,63,91,6
2,65,98,6
2,53,100,188
2,53,88,92
2,53,88,60
2,51,100,442
2,53,94,6
2,62,97,346
2,60,94,576
2,52,96,6
2,53,94,6
2,62,96,350
2,60,95,32
2,52,95,6
2,65,92,6
2,63,91,6
2,65,98,6
2,53,100,188
2,53,88,92
2,53,88,60
2,53,86,58
2,55,97,10
2,57,88,10
2,58,94,10
2,67,97,346
2,65,94,576
2,57,96,6
2,58,94,6
2,67,96,350
2,65,95,32
2,57,95,6
2,58,92,6
2,56,91,6
2,58,98,6
2,58,100,188
2,58,88,92
2,58,88,60
2,58,84,58
2,57,94,8
2,55,84,8
2,53,94,8
2,62,97,346
2,60,94,576
2,52,96,6
2,53,94,6
2,62,96,350
2,60,95,32
2,52,95,6
2,65,92,6
2,63,91,6
2,65,98,6
2,53,100,188
2,53,88,92
2,53,88,60
2,65,86,58
2,64,97,10
2,62,88,10
2,60,88,10
2,60,93,970
2,59,94,6
2,58,95,6
2,53,93,774
2,53,93,20
2,56,97,20
2,53,93,90
2,53,89,742
2,53,98,28
2,56,92,20
2,53,89,2
2,53,97,1372
2,62,95,294
2,60,96,12
2,52,93,6
2,53,94,6
2,62,99,358
2,60,95,6
2,52,95,6
2,53,94,6
2,62,97,346
2,60,94,576
2,52,96,6
2,53,94,6
2,62,96,350
2,60,95,32
2,52,95,6
2,65,92,6
2,63,91,6
2,65,98,6
2,53,100,188
2,53,88,92
2,53,88,60
2,53,94,634
2,62,97,346
2,60,94,576
2,52,96,6
2,53,94,6
2,62,96,350
2,60,95,32
2,52,95,6
2,65,92,6
2,63,91,6
2,65,98,6
2,53,100,188
2,53,88,92
2,53,88,60
2,51,100,442
2,53,94,6
2,62,97,346
2,60,94,576
2,52,96,6
2,53,94,6
2,62,96,350
2,60,95,32
2,52,95,6
2,65,92,6
2,63,91,6
2,65,98,6
2,53,100,188
2,53,88,92
2,53,88,60
2,53,86,58
2,55,97,10
2,57,88,10
2,58,94,10
2,67,97,346
2,65,94,576
2,57,96,6
2,58,94,6
2,67,96,350
2,65,95,32
2,57,95,6
2,58,92,6
2,56,91,6
2,58,98,6
2,58,100,188
2,58,88,92
2,58,88,60
2,58,84,58
2,57,94,8
2,55,84,8
2,53,94,8
2,62,97,346
2,60,94,576
2,52,96,6
2,53,94,6
2,62,96,350
2,60,95,32
2,52,95,6
2,65,92,6
2,63,91,6
2,65,98,6
2,53,100,188
2,53,88,92
2,53,88,60
2,65,86,58
2,64,97,10
2,62,88,10
2,60,88,10
2,60,93,970
2,59,94,6
2,58,95,6
2,53,93,774
2,53,93,20
2,56,97,20
2,53,93,90
2,53,89,742
2,53,98,28
2,56,92,20
2,53,89,2
2,53,97,1372
2,62,95,294
2,60,96,12
2,52,93,6
2,53,94,6
2,62,99,358
2,60,95,6
2,52,95,6
2,53,94,6
2,62,97,346
2,60,94,576
2,52,96,6
2,53,94,6
2,62,96,350
2,60,95,32
2,52,95,6
2,65,92,6
2,63,91,6
2,65,98,6
2,53,100,188
2,53,88,92
2,53,88,60
2,53,94,634
2,62,97,346
2,60,94,576
2,52,96,6
2,53,94,6
2,62,96,350
2,60,95,32
2,52,95,6
2,65,92,6
2,63,91,6
2,65,98,6
2,53,100,188
2,53,88,92
2,53,88,60
2,51,100,442
2,53,94,6
2,62,97,346
2,60,94,576
2,52,96,6
2,53,94,6
2,62,96,350
2,60,95,32
2,52,95,6
2,65,92,6
2,63,91,6
2,65,98,6
2,53,100,188
2,53,88,92
2,53,88,60
2,53,86,58
2,55,97,10
2,57,88,10
2,58,94,10
2,67,97,346
2,65,94,576
2,57,96,6
2,58,94,6
2,67,96,350
2,65,95,32
2,57,95,6
2,58,92,6
2,56,91,6
2,58,98,6
2,58,100,188
2,58,88,92
2,58,88,60
2,58,84,58
2,57,94,8
2,55,84,8
2,53,94,8
2,62,97,346
2,60,94,576
2,52,96,6
2,53,94,6
2,62,96,350
2,60,95,32
2,52,95,6
2,65,92,6
2,63,91,6
2,65,98,6
2,53,100,188
2,53,88,92
2,53,88,60
2,65,86,58
2,64,97,10
2,62,88,10
2,60,88,10
2,60,93,970
2,59,94,6
2,58,95,6
2,53,93,774
2,53,93,20
2,56,97,20
2,53,93,90
2,53,89,742
2,53,98,28
2,56,92,20
2,53,89,2
2,53,97,1372
2,62,95,294
2,60,96,12
2,52,93,6
2,53,94,6
2,62,99,358
2,60,95,6
2,52,95,6
2,53,94,6
2,62,97,346
2,60,94,576
2,52,96,6
2,53,94,6
2,62,96,350
2,60,95,32
2,52,95,6
2,65,92,6
2,63,91,6
2,65,98,6
2,53,100,188
2,53,88,92
2,53,88,60
3,77,115,15564
3,77,117,16
3,77,116,56
3,77,116,116
3,77,114,64
3,75,111,20
3,74,112,32
3,72,112,6
3,69,110,20
3,72,113,32
3,72,97,66
3,74,111,44
3,72,112,34
3,77,118,10
3,77,115,8
3,77,116,74
3,77,116,58
3,77,116,144
3,74,116,154
3,72,114,16
3,72,112,60
3,74,116,46
3,69,114,136
3,65,111,6
3,74,114,3010
3,74,114,94
3,74,114,88
3,74,116,86
3,72,105,6
3,74,115,88
3,72,101,6
3,74,113,60
3,72,103,6
3,74,112,48
3,72,107,12
3,74,113,36
3,72,102,6
3,74,116,88
3,77,117,90
3,77,108,2962
3,77,111,78
3,77,110,88
3,77,108,68
3,77,110,154
3,74,109,154
3,72,107,66
3,72,100,78
3,74,107,8
3,68,103,40
3,69,102,6
3,65,102,50
3,72,114,3074
3,72,108,36
3,72,98,46
3,72,105,32
3,75,117,810
3,74,112,60
3,74,110,30
3,77,117,798
3,77,116,6
3,77,115,11546
3,77,117,16
3,77,116,56
3,77,116,116
3,75,111,44
3,74,112,32
3,72,112,6
3,69,110,20
3,72,113,32
3,74,111,18
3,72,112,12
3,77,118,10
3,77,115,8
3,77,116,74
3,77,116,58
3,77,116,144
3,74,116,154
3,72,114,16
3,74,116,60
3,72,112,62
3,74,116,46
3,69,114,136
3,65,111,102
3,74,114,3010
3,74,114,60
3,74,114,50
3,74,116,38
3,72,105,6
3,74,115,28
3,72,101,6
3,74,113,26
3,72,103,6
3,74,112,24
3,72,107,12
3,74,113,36
3,72,102,6
3,74,116,10
3,77,117,6
3,77,108,3154
3,77,111,78
3,77,110,88
3,77,108,68
3,77,110,154
3,74,109,154
3,72,107,6
3,74,100,14
3,72,100,8
3,74,107,8
3,69,102,40
3,65,102,6
3,72,114,3266
3,72,108,36
3,72,98,46
3,72,105,32
3,75,117,810
3,74,112,60
3,74,110,30
3,74,117,798
3,72,116,6
3,77,115,11546
3,77,117,16
3,77,116,56
3,77,116,116
3,75,111,44
3,74,112,32
3,72,112,6
3,69,110,20
3,72,113,32
3,74,111,18
3,72,112,12
3,77,118,10
3,77,115,8
3,77,116,74
3,77,116,58
3,77,116,144
3,74,116,154
3,74,116,112
3,72,112,62
3,74,116,46
3,68,116,192
3,69,114,40
3,65,111,102
3,74,114,3010
3,74,114,60
3,74,114,50
3,74,116,38
3,72,105,6
3,74,115,28
3,72,101,6
3,74,113,26
3,72,103,6
3,74,112,24
3,72,107,12
3,74,113,36
3,72,102,6
3,74,116,10
