track,note,velocity,time
1,74,63,16128
1,79,63,0
1,83,63,0
1,81,63,8
1,78,63,0
1,78,63,32
1,74,63,0
1,76,63,8
1,74,63,8
1,74,63,8
1,76,63,0
1,74,63,16
1,62,63,0
1,76,63,8
1,74,63,0
1,74,63,16
1,78,63,0
1,74,63,416
1,79,63,0
1,83,63,0
1,81,63,8
1,78,63,0
1,78,63,32
1,74,63,0
1,76,63,8
1,74,63,8
1,76,63,8
1,74,63,0
1,74,63,16
1,62,63,0
1,62,63,8
1,74,63,0
1,83,63,616
1,79,63,0
1,74,63,0
1,78,63,8
1,81,63,0
1,74,63,32
1,78,63,0
1,76,63,8
1,74,63,8
1,76,63,8
1,74,63,0
1,74,63,16
1,62,63,0
1,74,63,8
1,76,63,0
1,78,63,16
1,74,63,0
1,83,63,416
1,79,63,0
1,74,63,0
1,78,63,8
1,81,63,0
1,74,63,32
1,78,63,0
1,76,63,8
1,74,63,8
1,74,63,8
1,76,63,0
1,74,63,16
1,62,63,0
1,74,63,8
1,62,63,0
1,84,63,616
1,81,63,0
1,84,63,8
1,81,63,0
1,83,63,8
1,79,63,0
1,81,63,16
1,78,63,0
1,76,63,16
1,79,63,0
1,78,63,8
1,81,63,0
1,78,63,16
1,81,63,0
1,79,63,8
1,76,63,0
1,74,63,16
1,81,63,0
1,81,63,272
1,84,63,0
1,81,63,16
1,84,63,0
1,83,63,16
1,79,63,0
1,79,63,32
1,74,63,0
1,81,63,16
1,79,63,0
1,81,63,8
1,78,63,0
1,76,63,8
1,79,63,0
1,81,63,8
1,74,63,0
1,81,63,8
1,74,63,0
1,86,63,192
1,81,63,0
1,86,63,32
1,81,63,0
1,86,63,8
1,81,63,0
1,85,63,24
1,81,63,0
1,81,63,32
1,74,63,0
1,83,63,8
1,74,63,0
1,83,63,24
1,79,63,0
1,81,63,16
1,78,63,0
1,79,63,16
1,76,63,0
1,81,63,8
1,74,63,24
1,81,63,0
1,76,63,224
1,74,63,0
1,74,63,16
1,78,63,0
1,74,63,16
1,78,63,0
1,78,63,8
1,69,63,24
1,76,63,0
1,74,63,24
1,71,63,8
1,59,63,0
1,74,63,16
1,62,63,0
1,83,63,15808
1,79,63,0
1,74,63,0
1,78,63,8
1,81,63,0
1,74,63,32
1,78,63,0
1,76,63,8
1,74,63,8
1,76,63,8
1,74,63,0
1,62,63,16
1,74,63,0
1,74,63,8
1,76,63,0
1,78,63,16
1,74,63,0
1,83,63,416
1,79,63,0
1,74,63,0
1,78,63,8
1,81,63,0
1,74,63,32
1,78,63,0
1,76,63,8
1,74,63,8
1,74,63,8
1,76,63,0
1,62,63,16
1,74,63,0
1,74,63,8
1,62,63,0
1,74,63,616
1,79,63,0
1,83,63,0
1,81,63,8
1,78,63,0
1,78,63,32
1,74,63,0
1,76,63,8
1,74,63,8
1,74,63,8
1,76,63,0
1,62,63,16
1,74,63,0
1,76,63,8
1,74,63,0
1,74,63,16
1,78,63,0
1,74,63,416
1,79,63,0
1,83,63,0
1,81,63,8
1,78,63,0
1,78,63,32
1,74,63,0
1,76,63,8
1,74,63,8
1,76,63,8
1,74,63,0
1,62,63,16
1,74,63,0
1,62,63,8
1,74,63,0
1,74,63,520
1,84,63,0
1,81,63,0
1,84,63,0
1,81,63,0
1,79,63,0
1,83,63,0
1,78,63,16
1,81,63,0
1,79,63,16
1,76,63,0
1,81,63,8
1,78,63,0
1,81,63,16
1,78,63,0
1,76,63,8
1,79,63,0
1,81,63,16
1,74,63,0
1,74,63,16
1,81,63,0
1,74,63,0
1,81,63,0
1,81,63,0
1,84,63,0
1,84,63,24
1,81,63,0
1,84,63,24
1,81,63,0
1,79,63,24
1,83,63,0
1,79,63,32
1,74,63,0
1,79,63,8
1,81,63,0
1,81,63,8
1,78,63,0
1,76,63,8
1,79,63,0
1,81,63,8
1,74,63,0
1,81,63,8
1,74,63,0
1,81,63,400
1,74,63,0
1,81,63,0
1,74,63,0
1,81,63,0
1,86,63,0
1,81,63,32
1,86,63,0
1,81,63,8
1,86,63,0
1,85,63,24
1,81,63,0
1,81,63,32
1,74,63,0
1,81,63,24
1,79,63,8
1,83,63,0
1,78,63,16
1,81,63,0
1,76,63,16
1,79,63,0
1,81,63,8
1,81,63,24
1,74,63,0
1,74,63,224
1,76,63,0
1,78,63,16
1,74,63,0
1,78,63,16
1,74,63,0
1,78,63,8
1,76,63,24
1,69,63,0
1,74,63,16
1,60,63,16
1,72,63,0
1,62,63,16
1,74,63,0
1,74,79,15808
1,79,79,0
1,83,79,0
1,81,79,8
1,78,79,0
1,74,79,24
1,78,79,0
1,76,79,8
1,74,79,16
1,74,79,8
1,76,79,0
1,62,79,8
1,74,79,0
1,74,79,8
1,76,79,0
1,69,79,8
1,78,79,0
1,83,79,384
1,79,79,0
1,74,79,0
1,78,79,8
1,81,79,0
1,78,79,24
1,74,79,0
1,76,79,8
1,74,79,16
1,76,79,8
1,74,79,0
1,74,79,16
1,62,79,0
1,62,79,8
1,74,79,0
1,83,79,616
1,79,79,0
1,74,79,0
1,78,79,8
1,81,79,0
1,74,79,32
1,78,79,0
1,76,79,8
1,74,79,8
1,74,79,8
1,76,79,0
1,62,79,16
1,74,79,0
1,76,79,8
1,74,79,0
1,74,79,16
1,78,79,0
1,83,79,224
1,79,79,0
1,74,79,0
1,81,79,16
1,78,79,0
1,81,79,8
1,81,79,8
1,78,79,8
1,74,79,0
1,76,79,8
1,74,79,8
1,76,79,8
1,74,79,0
1,62,79,16
1,74,79,0
1,62,79,8
1,74,79,0
1,79,79,616
1,84,79,0
1,79,79,80
1,83,79,0
1,78,79,16
1,81,79,0
1,79,79,16
1,76,79,0
1,81,79,0
1,81,79,0
1,78,79,0
1,81,79,16
1,78,79,0
1,76,79,8
1,79,79,0
1,81,79,16
1,74,79,0
1,84,79,592
1,79,79,0
1,83,79,80
1,79,79,0
1,81,79,16
1,78,79,0
1,76,79,16
1,79,79,0
1,81,79,0
1,81,79,0
1,78,79,0
1,79,79,16
1,76,79,0
1,74,79,8
1,81,79,0
1,81,79,216
1,86,79,0
1,86,79,0
1,81,79,0
1,86,79,0
1,86,79,48
1,86,79,0
1,85,79,48
1,81,79,0
1,81,79,32
1,74,79,0
1,79,79,32
1,83,79,0
1,78,79,16
1,81,79,0
1,76,79,16
1,79,79,0
1,81,79,8
1,81,79,24
1,74,79,0
1,74,79,224
1,76,79,0
1,78,79,16
1,74,79,0
1,78,79,48
1,78,79,48
1,76,79,48
1,69,79,0
1,74,79,16
1,72,79,16
1,60,79,0
1,74,79,8
1,62,79,0
1,62,79,0
1,74,79,0
2,90,79,1152
2,90,79,80
2,88,79,80
2,88,79,80
2,86,79,80
2,86,79,80
2,85,79,80
2,85,79,80
2,83,79,80
2,83,79,80
2,81,79,80
2,81,79,80
2,79,79,80
2,81,79,80
2,81,79,80
2,83,79,152
2,83,79,80
2,81,79,80
2,81,79,80
2,79,79,80
2,81,79,80
2,81,79,80
2,83,79,160
2,83,79,80
2,81,79,80
2,81,79,80
2,79,79,80
2,81,79,80
2,81,79,80
2,81,79,160
2,81,79,160
2,81,79,160
2,83,79,160
2,83,79,80
2,81,79,80
2,81,79,80
2,79,79,80
2,79,79,80
2,81,79,80
2,81,79,80
2,83,79,80
2,83,79,80
2,81,79,80
2,81,79,80
2,79,79,80
2,81,79,80
2,81,79,80
2,81,79,80
2,83,79,80
2,83,79,80
2,81,79,80
2,81,79,80
2,79,79,80
2,79,79,80
2,81,79,80
2,81,79,80
2,83,79,80
2,83,79,80
2,81,79,80
2,81,79,80
2,79,79,80
2,81,79,80
2,81,79,80
2,81,79,80
2,84,79,80
2,84,79,24
2,83,79,24
2,83,79,24
2,81,79,24
2,81,79,24
2,79,79,24
2,81,79,24
2,84,79,24
2,84,79,24
2,83,79,24
2,83,79,24
2,81,79,24
2,79,79,24
2,81,79,24
2,81,79,24
2,86,79,24
2,86,79,24
2,85,79,24
2,85,79,24
2,83,79,24
2,83,79,24
2,81,79,24
2,81,79,24
2,81,79,24
2,81,79,80
2,79,79,80
2,81,79,80
2,81,79,80
2,81,79,80
2,90,79,848
2,90,79,80
2,88,79,80
2,88,79,80
2,86,79,80
2,86,79,80
2,85,79,80
2,85,79,80
2,83,79,80
2,83,79,80
2,81,79,80
2,81,79,80
2,79,79,80
2,81,79,80
2,81,79,80
2,83,79,152
2,83,79,80
2,81,79,80
2,81,79,80
2,79,79,80
2,81,79,80
2,81,79,80
2,83,79,160
2,83,79,80
2,81,79,80
2,81,79,80
2,79,79,80
2,81,79,80
2,81,79,80
2,81,79,160
2,81,79,160
2,81,79,160
2,83,79,160
2,83,79,80
2,81,79,80
2,81,79,80
2,79,79,80
2,79,79,80
2,81,79,80
2,81,79,80
2,83,79,80
2,83,79,80
2,81,79,80
2,81,79,80
2,79,79,80
2,81,79,80
2,81,79,80
2,81,79,80
2,83,79,80
2,83,79,80
2,81,79,80
2,81,79,80
2,79,79,80
2,79,79,80
2,81,79,80
2,81,79,80
2,83,79,80
2,83,79,80
2,81,79,80
2,81,79,80
2,79,79,80
2,81,79,80
2,81,79,80
2,81,79,80
2,84,79,80
2,84,79,24
2,83,79,24
2,83,79,24
2,81,79,24
2,81,79,24
2,79,79,24
2,81,79,24
2,84,79,24
2,84,79,24
2,83,79,24
2,83,79,24
2,81,79,24
2,79,79,24
2,81,79,24
2,81,79,24
2,86,79,24
2,86,79,24
2,85,79,24
2,85,79,24
2,83,79,24
2,83,79,24
2,81,79,24
2,81,79,24
2,81,79,24
2,81,79,80
2,79,79,80
2,81,79,80
2,81,79,80
2,81,79,80
2,90,79,848
2,90,79,80
2,88,79,80
2,88,79,80
2,86,79,80
2,86,79,80
2,85,79,80
2,85,79,80
2,83,79,80
2,83,79,80
2,81,79,80
2,81,79,80
2,79,79,80
2,81,79,80
2,81,79,80
2,83,79,152
2,83,79,80
2,81,79,80
2,81,79,80
2,79,79,80
2,81,79,80
2,81,79,80
2,83,79,160
2,83,79,80
2,81,79,80
2,81,79,80
2,79,79,80
2,81,79,80
2,81,79,80
2,81,79,160
2,81,79,160
2,81,79,160
2,83,79,160
2,83,79,80
2,81,79,80
2,81,79,80
2,79,79,80
2,79,79,80
2,81,79,80
2,81,79,80
2,83,79,80
2,83,79,80
2,81,79,80
2,81,79,80
2,79,79,80
2,81,79,80
2,81,79,80
2,81,79,80
2,83,79,80
2,83,79,80
2,81,79,80
2,81,79,80
2,79,79,80
2,79,79,80
2,81,79,80
2,81,79,80
2,83,79,80
2,83,79,80
2,81,79,80
2,81,79,80
2,79,79,80
2,81,79,80
2,81,79,80
2,81,79,80
2,84,79,80
2,84,79,24
2,83,79,24
2,83,79,24
2,81,79,24
2,81,79,24
2,79,79,24
2,81,79,24
2,84,79,24
2,84,79,24
2,83,79,24
2,83,79,24
2,81,79,24
2,79,79,24
2,81,79,24
2,81,79,24
2,86,79,24
2,86,79,24
2,85,79,24
2,85,79,24
2,83,79,24
2,83,79,24
2,81,79,24
2,81,79,24
2,81,79,24
2,81,79,80
2,79,79,80
2,81,79,80
2,81,79,80
2,81,79,80
2,90,79,848
2,90,79,80
2,88,79,80
2,88,79,80
2,86,79,80
2,86,79,80
2,85,79,80
2,85,79,80
2,83,79,80
2,83,79,80
2,81,79,80
2,81,79,80
2,79,79,80
2,81,79,80
2,81,79,80
2,83,79,152
2,83,79,80
2,81,79,80
2,81,79,80
2,79,79,80
2,81,79,80
2,81,79,80
2,83,79,160
2,83,79,80
2,81,79,80
2,81,79,80
2,79,79,80
2,81,79,80
2,81,79,80
2,81,79,160
2,81,79,160
2,81,79,160
3,74,79,1152
3,76,79,80
3,74,79,24
3,73,79,64
3,74,79,80
3,73,79,24
3,71,79,64
3,73,79,80
3,71,79,24
3,69,79,64
3,71,79,80
3,69,79,24
3,67,79,64
3,69,79,80
3,67,79,24
3,66,79,64
3,67,79,80
3,66,79,24
3,64,79,64
3,64,79,80
3,64,79,96
3,64,79,80
3,67,79,96
3,69,79,80
3,67,79,24
3,66,79,64
3,67,79,80
3,66,79,24
3,64,79,64
3,64,79,80
3,66,79,80
3,64,79,24
3,67,79,232
3,69,79,80
3,67,79,24
3,66,79,64
3,67,79,80
3,66,79,24
3,64,79,64
3,64,79,80
3,66,79,80
3,64,79,24
3,66,79,232
3,64,79,24
3,66,79,232
3,64,79,24
3,66,79,232
3,64,79,24
3,67,79,232
3,67,79,96
3,66,79,96
3,66,79,96
3,64,79,96
3,64,79,96
3,66,79,96
3,66,79,96
3,67,79,96
3,67,79,96
3,66,79,96
3,66,79,96
3,64,79,96
3,66,79,96
3,66,79,96
3,66,79,96
3,67,79,96
3,67,79,96
3,66,79,96
3,66,79,96
3,64,79,96
3,64,79,96
3,66,79,96
3,66,79,96
3,67,79,96
3,67,79,96
3,66,79,96
3,66,79,96
3,64,79,96
3,66,79,96
3,66,79,96
3,66,79,96
3,67,79,96
3,67,79,0
3,67,79,0
3,67,79,0
3,66,79,0
3,66,79,0
3,64,79,0
3,66,79,0
3,67,79,0
3,67,79,0
3,67,79,0
3,67,79,0
3,66,79,0
3,64,79,0
3,66,79,0
3,66,79,0
3,69,79,0
3,69,79,80
3,69,79,80
3,69,79,80
3,67,79,80
3,67,79,80
3,66,79,80
3,66,79,80
3,66,79,80
3,66,79,80
3,64,79,80
3,64,79,80
3,66,79,80
3,66,79,80
3,74,79,848
3,74,79,80
3,73,79,80
3,73,79,80
3,71,79,80
3,71,79,80
3,69,79,80
3,69,79,80
3,67,79,80
3,67,79,80
3,66,79,80
3,66,79,80
3,64,79,80
3,64,79,80
3,64,79,96
3,64,79,80
3,67,79,96
3,67,79,80
3,66,79,80
3,66,79,80
3,64,79,80
3,64,79,80
3,64,79,80
3,64,79,80
3,67,79,80
3,67,79,80
3,66,79,80
3,66,79,80
3,64,79,80
3,64,79,80
3,66,79,80
3,64,79,24
3,66,79,232
3,64,79,24
3,66,79,232
3,64,79,24
3,66,79,232
3,64,79,24
3,67,79,232
3,67,79,96
3,66,79,96
3,66,79,96
3,64,79,96
3,64,79,96
3,66,79,96
3,66,79,96
3,67,79,96
3,67,79,96
3,66,79,96
3,66,79,96
3,64,79,96
3,66,79,96
3,66,79,96
3,66,79,96
3,67,79,96
3,67,79,96
3,66,79,96
3,66,79,96
3,64,79,96
3,64,79,96
3,66,79,96
3,66,79,96
3,67,79,96
3,67,79,96
3,66,79,96
3,66,79,96
3,64,79,96
3,66,79,96
3,66,79,96
3,66,79,96
3,67,79,96
3,67,79,0
3,67,79,0
3,67,79,0
3,66,79,0
3,66,79,0
3,64,79,0
3,66,79,0
3,67,79,0
3,67,79,0
3,67,79,0
3,67,79,0
3,66,79,0
3,64,79,0
3,66,79,0
3,66,79,0
3,69,79,0
3,69,79,80
3,69,79,80
3,69,79,80
3,67,79,80
3,67,79,80
3,66,79,80
3,66,79,80
3,66,79,80
3,66,79,80
3,64,79,80
3,64,79,80
3,66,79,80
3,66,79,80
3,74,79,848
3,74,79,80
3,73,79,80
3,73,79,80
3,71,79,80
3,71,79,80
3,69,79,80
3,69,79,80
3,67,79,80
3,67,79,80
3,66,79,80
3,66,79,80
3,64,79,80
3,64,79,80
3,64,79,96
3,64,79,80
3,67,79,96
3,67,79,80
3,66,79,80
3,66,79,80
3,64,79,80
3,64,79,80
3,64,79,80
3,64,79,80
3,67,79,80
3,67,79,80
3,66,79,80
3,66,79,80
3,64,79,80
3,64,79,80
3,66,79,80
3,64,79,24
3,66,79,232
3,64,79,24
3,66,79,232
3,64,79,24
3,66,79,232
3,64,79,24
3,67,79,232
3,67,79,96
3,66,79,96
3,66,79,96
3,64,79,96
3,64,79,96
3,66,79,96
3,66,79,96
3,67,79,96
3,67,79,96
3,66,79,96
3,66,79,96
3,64,79,96
3,66,79,96
3,66,79,96
3,66,79,96
3,67,79,96
3,67,79,96
3,66,79,96
3,66,79,96
3,64,79,96
3,64,79,96
3,66,79,96
3,66,79,96
3,67,79,96
