track,note,velocity,time
1,67,84,95328
1,58,84,0
1,60,84,0
1,54,84,0
1,60,84,12
1,65,84,12
1,68,84,12
1,59,84,12
1,70,84,12
1,58,84,12
1,56,84,12
1,67,79,192
1,67,79,0
1,67,79,0
1,63,79,48
1,63,79,0
1,67,79,0
1,63,79,0
1,67,79,0
1,67,79,0
1,61,79,0
1,68,79,0
1,56,79,0
1,61,79,0
1,65,79,0
1,58,79,0
1,63,79,0
1,56,79,0
1,56,79,0
1,61,79,0
1,54,79,0
1,64,79,0
1,69,79,0
1,73,79,0
1,73,79,0
1,73,79,0
1,73,79,0
1,73,79,48
1,73,79,48
1,66,79,48
1,75,79,48
1,66,79,32
1,72,79,0
1,65,79,0
1,74,79,48
1,65,79,32
1,71,79,0
1,63,79,64
1,67,79,0
1,72,79,0
1,72,79,32
1,70,79,0
1,75,79,0
1,67,79,0
1,72,79,0
1,67,79,0
1,72,79,0
1,70,79,0
1,75,79,0
1,67,79,0
1,72,79,0
1,67,79,0
1,72,79,0
1,75,79,0
1,70,79,0
1,70,79,0
1,75,79,0
1,67,79,0
1,67,79,0
1,72,79,0
1,70,79,0
1,75,79,0
1,78,79,0
1,72,79,8
1,77,79,0
1,67,79,16
1,72,79,0
1,77,79,0
1,67,79,16
1,70,79,0
1,75,79,0
1,72,79,32
1,77,79,0
1,70,79,0
1,75,79,0
1,72,79,0
1,77,79,0
1,78,79,32
1,72,79,0
1,77,79,0
1,67,79,16
1,77,79,0
1,70,79,32
1,75,79,0
1,62,79,0
1,72,79,0
1,67,79,0
1,75,79,0
1,67,79,16
1,75,79,0
1,72,79,16
1,63,79,0
1,65,79,0
1,62,79,0
1,70,79,0
1,66,79,0
1,65,79,8
1,60,79,8
1,65,79,16
1,72,79,0
1,60,79,0
1,63,79,16
1,65,79,32
1,63,79,32
1,65,79,32
1,66,79,0
1,77,79,0
1,74,79,32
1,72,79,8
1,66,79,24
1,65,79,16
1,71,79,0
1,66,79,8
1,65,79,8
1,72,79,0
1,63,79,0
1,60,79,16
1,67,79,144
1,67,79,0
1,67,79,0
1,63,79,24
1,63,79,0
1,67,79,0
1,63,79,0
1,67,79,0
1,67,79,0
1,61,79,0
1,68,79,0
1,56,79,0
1,61,79,0
1,65,79,0
1,58,79,0
1,63,79,0
1,56,79,0
1,56,79,0
1,61,79,0
1,54,79,0
1,64,79,0
1,69,79,0
1,73,79,0
1,73,79,48
1,73,79,0
1,73,79,0
1,73,79,48
1,73,79,48
1,66,79,48
1,75,79,48
1,66,79,32
1,72,79,0
1,72,79,48
1,65,79,0
1,74,79,48
1,65,79,32
1,71,79,0
1,63,79,112
1,67,79,0
1,72,79,0
1,60,79,0
1,63,79,0
1,72,79,0
1,68,79,0
1,70,79,0
1,60,79,48
1,65,79,0
1,68,79,0
1,72,79,0
1,72,79,0
1,63,79,0
1,70,79,0
1,77,79,0
1,74,79,32
1,65,79,32
1,70,79,0
1,60,79,196
1,65,79,0
1,71,79,0
1,63,79,68
1,67,79,0
1,62,79,0
1,63,79,0
1,67,79,0
1,63,79,0
1,72,79,0
1,67,79,96
1,70,79,0
1,77,79,0
1,75,79,0
1,63,79,0
1,72,79,0
1,72,79,0
1,63,79,96
1,69,79,0
1,75,79,0
1,72,79,48
1,62,79,0
1,65,79,0
1,68,79,0
1,61,79,32
1,67,79,0
1,70,79,0
1,60,79,64
1,63,79,0
1,66,79,0
1,67,79,32
1,65,79,0
1,53,79,0
1,60,79,0
1,55,79,64
1,59,79,0
1,62,79,0
1,67,79,0
1,57,79,0
1,64,79,0
1,67,79,0
1,67,79,0
1,65,79,0
1,58,79,0
1,56,79,0
1,63,79,0
1,70,79,0
1,58,79,0
1,65,79,0
1,70,79,0
1,72,79,0
1,60,79,0
1,67,79,0
1,70,79,0
1,70,79,0
1,68,79,0
1,62,79,0
1,74,79,0
1,67,84,0
1,72,84,0
1,72,84,0
1,72,84,0
1,67,84,0
1,72,84,0
1,77,84,0
1,65,84,0
1,63,84,0
1,65,84,0
1,67,84,0
1,72,84,0
1,77,84,0
1,65,84,0
1,72,84,0
1,65,84,0
1,77,84,0
1,67,84,0
1,70,84,0
1,74,84,0
1,75,84,0
1,77,84,24
1,70,84,0
1,72,84,48
1,77,84,0
1,79,84,48
1,82,84,0
1,68,84,24
1,75,84,0
1,63,84,0
1,70,84,0
1,64,84,12
1,63,84,12
1,62,84,24
1,58,84,24
1,63,79,0
1,67,79,0
1,72,79,0
1,70,79,0
1,75,79,0
1,67,79,0
1,72,79,0
1,67,79,0
1,72,79,0
1,70,79,0
1,75,79,0
1,67,79,0
1,72,79,0
1,67,79,24
1,72,79,0
1,75,79,0
1,70,79,0
1,70,79,0
1,75,79,0
1,67,79,0
1,67,79,48
1,72,79,0
1,70,79,0
1,75,79,0
1,78,79,0
1,72,79,8
1,77,79,0
1,67,79,16
1,72,79,0
1,77,79,0
1,67,79,16
1,70,79,0
1,75,79,0
1,72,79,32
1,77,79,0
1,70,79,0
1,75,79,0
1,72,79,32
1,77,79,0
1,78,79,0
1,72,79,8
1,77,79,0
1,67,79,0
1,72,79,0
1,77,79,0
1,70,79,0
1,75,79,0
1,62,79,0
1,72,79,0
1,67,79,0
1,75,79,0
1,67,79,0
1,75,79,0
1,72,79,0
1,63,79,0
1,65,79,0
1,62,79,0
1,70,79,0
1,66,79,0
1,65,79,8
1,60,79,0
1,65,79,16
1,72,79,0
1,60,79,0
1,63,79,16
1,65,79,32
1,63,79,32
1,65,79,32
1,66,79,0
1,77,79,0
1,74,79,0
1,72,79,8
1,66,79,24
1,65,79,0
1,71,79,0
1,66,79,8
1,72,79,8
1,65,79,0
1,63,79,0
1,60,79,16
1,72,84,0
1,77,84,0
1,70,84,0
1,75,84,0
1,67,84,24
1,72,84,0
1,77,84,0
1,70,84,0
1,75,84,0
1,67,84,24
1,72,84,0
1,77,84,0
1,77,84,0
1,67,84,0
1,72,84,0
1,72,84,48
1,77,84,0
1,72,84,0
1,77,84,0
1,79,84,0
1,80,84,12
1,82,84,0
1,84,84,12
1,87,84,0
1,89,84,12
1,91,84,0
1,92,84,12
1,94,84,0
1,96,84,12
1,98,84,0
1,67,84,0
1,72,84,0
1,72,84,0
1,72,84,0
1,67,84,0
1,72,84,0
1,77,84,0
1,65,84,0
1,63,84,0
1,65,84,0
1,67,84,0
1,72,84,0
1,77,84,0
1,65,84,0
1,72,84,0
1,65,84,0
1,77,84,0
1,67,84,0
1,70,84,0
1,74,84,0
1,75,84,0
1,77,84,0
1,70,84,0
1,72,84,48
1,77,84,0
1,79,84,0
1,82,84,24
1,68,84,0
1,75,84,0
1,63,84,0
1,70,84,0
1,64,84,12
1,63,84,0
1,62,84,0
1,58,84,0
1,67,79,192
1,67,79,0
1,67,79,0
1,63,79,48
1,63,79,0
1,67,79,0
1,63,79,0
1,67,79,0
1,67,79,0
1,61,79,0
1,68,79,0
1,56,79,0
1,61,79,0
1,65,79,0
1,58,79,0
1,63,79,0
1,56,79,0
1,56,79,0
1,61,79,0
1,54,79,0
1,64,79,0
1,69,79,0
1,73,79,0
1,73,79,48
1,73,79,0
1,73,79,0
1,73,79,48
1,73,79,48
1,66,79,48
1,74,79,336
1,65,79,32
1,71,79,0
1,72,79,48
1,67,79,0
1,63,79,0
1,70,79,0
1,77,79,0
1,70,79,64
1,75,79,0
1,67,79,32
1,70,79,32
1,77,79,0
1,70,79,64
1,75,79,0
1,67,79,32
1,77,79,32
1,72,79,0
1,77,79,144
1,67,79,64
1,72,79,0
1,77,79,48
1,72,79,0
1,72,84,144
1,77,84,0
1,79,84,48
1,80,84,12
1,82,84,12
1,84,84,12
1,87,84,12
1,89,84,12
1,91,84,12
1,92,84,12
1,94,84,12
1,96,84,12
1,98,84,12
1,67,84,24
1,72,84,0
1,72,84,0
1,72,84,0
1,67,84,0
1,72,84,0
1,77,84,0
1,65,84,0
1,63,84,0
1,65,84,0
1,67,84,0
1,72,84,0
1,77,84,0
1,65,84,0
1,72,84,96
1,65,84,0
1,77,84,0
1,67,84,0
1,70,84,0
1,74,84,0
1,75,84,0
1,77,84,24
1,70,84,24
1,72,84,48
1,77,84,0
1,79,84,48
1,82,84,24
1,68,84,24
1,75,84,0
1,72,79,144
1,65,79,0
1,66,79,0
1,65,79,0
1,63,79,0
1,60,79,0
1,67,79,192
1,67,79,0
1,67,79,0
1,63,79,48
1,63,79,0
1,67,79,0
1,63,79,0
1,67,79,0
1,67,79,0
1,61,79,0
1,68,79,0
1,56,79,0
1,61,79,0
1,65,79,0
1,58,79,0
1,63,79,0
1,56,79,0
1,56,79,0
1,61,79,0
1,54,79,0
1,64,79,0
1,69,79,0
1,73,79,0
1,73,79,48
1,73,79,0
1,73,79,0
1,73,79,48
1,73,79,48
1,66,79,48
1,75,79,48
1,66,79,32
1,72,79,0
1,65,79,48
1,72,79,0
1,74,79,0
1,65,79,32
1,71,79,0
1,72,79,48
1,67,79,0
1,63,79,0
1,63,79,192
1,67,79,0
1,72,79,0
1,67,79,0
1,72,79,0
1,70,79,0
1,75,79,0
1,77,79,0
1,72,79,0
1,78,79,0
1,79,79,16
1,77,79,16
1,75,79,16
1,72,79,16
1,75,79,0
1,77,79,0
1,79,79,0
1,84,79,0
1,75,79,64
1,77,79,0
1,79,79,0
1,84,79,0
1,75,79,64
1,77,79,0
1,79,79,0
1,84,79,0
2,41,84,3840
2,46,74,24
2,51,74,24
2,46,74,24
2,56,84,24
2,51,74,24
2,46,74,24
2,52,84,24
2,47,74,24
2,42,74,24
2,41,84,24
2,46,74,24
2,51,74,24
2,46,74,24
2,56,84,24
2,51,74,24
2,46,74,24
2,52,84,24
2,47,74,24
2,42,74,24
2,41,84,24
2,46,74,24
2,51,74,24
2,46,74,24
2,56,84,24
2,51,74,24
2,46,74,24
2,52,84,24
2,47,74,24
2,42,74,24
2,41,84,24
2,46,74,24
2,51,74,24
2,46,74,24
2,56,84,24
2,51,74,24
2,46,74,24
2,52,84,24
2,47,74,24
2,42,74,24
2,41,84,24
2,46,74,24
2,51,74,24
2,46,74,24
2,56,84,24
2,51,74,24
2,46,74,24
2,52,84,24
2,47,74,24
2,42,74,24
2,41,84,24
2,46,74,24
2,51,74,24
2,46,74,24
2,56,84,24
2,51,74,24
2,46,74,24
2,52,84,24
2,47,74,24
2,42,74,24
2,41,84,24
2,46,74,24
2,51,74,24
2,46,74,24
2,56,84,24
2,51,74,24
2,46,74,24
2,52,84,24
2,47,74,24
2,42,74,24
2,41,84,24
2,46,74,24
2,51,74,24
2,46,74,24
2,56,84,24
2,51,74,24
2,46,74,24
2,52,84,24
2,47,74,24
2,42,74,24
2,41,84,24
2,46,74,24
2,51,74,24
2,46,74,24
2,56,84,24
2,51,74,24
2,46,74,24
2,52,84,24
2,47,74,24
2,42,74,24
2,41,84,24
2,46,74,24
2,51,74,24
2,46,74,24
2,56,84,24
2,51,74,24
2,46,74,24
2,52,84,24
2,47,74,24
2,42,74,24
2,41,84,24
2,46,74,24
2,51,74,24
2,46,74,24
2,56,84,24
2,51,74,24
2,46,74,24
2,52,84,24
2,47,74,24
2,42,74,24
2,41,84,24
2,46,74,24
2,51,74,24
2,46,74,24
2,56,84,24
2,51,74,24
2,46,74,24
2,52,84,24
2,47,74,24
2,42,74,24
2,45,94,24
2,57,94,0
2,45,74,24
2,57,74,0
2,45,74,96
2,57,74,0
2,45,94,96
2,57,94,0
2,50,94,24
2,62,94,0
2,50,74,24
2,62,74,0
2,50,74,96
2,62,74,0
2,50,94,96
2,62,94,0
2,43,94,24
2,55,94,0
2,43,74,24
2,55,74,0
2,43,74,96
2,55,74,0
2,43,94,96
2,55,94,0
2,48,94,24
2,60,94,0
2,48,94,48
2,41,74,0
2,46,74,24
2,51,74,24
2,46,74,24
2,56,74,24
2,51,74,24
2,46,74,24
2,52,74,24
2,47,74,24
2,42,74,24
2,41,74,24
2,46,74,24
2,51,74,24
2,46,74,24
2,56,74,24
2,51,74,24
2,46,74,24
2,52,74,24
2,47,74,24
2,42,74,24
2,41,74,24
2,46,74,24
2,51,74,24
2,46,74,24
2,56,74,24
2,51,74,24
2,46,74,24
2,52,74,24
2,47,74,24
2,42,74,24
2,41,74,24
2,46,74,24
2,51,74,24
2,46,74,24
2,56,74,24
2,51,74,24
2,46,74,24
2,52,74,24
2,47,74,24
2,42,74,24
2,72,74,24
2,77,74,0
2,79,74,0
2,65,74,24
2,70,74,24
2,75,74,0
2,77,74,0
2,77,74,24
2,72,74,0
2,79,74,0
2,65,74,24
2,70,74,24
2,75,74,0
2,77,74,0
2,72,74,24
2,77,74,0
2,79,74,0
2,65,74,24
2,70,74,24
2,75,74,0
2,77,74,0
2,72,74,24
2,77,74,0
2,79,74,0
2,65,74,24
2,70,74,24
2,75,74,0
2,77,74,0
2,77,74,24
2,72,74,0
2,79,74,0
2,65,74,24
2,75,74,24
2,70,74,0
2,77,74,0
2,65,74,24
2,72,74,24
2,77,74,0
2,79,74,0
2,65,74,24
2,70,74,24
2,75,74,0
2,77,74,0
2,77,74,24
2,72,74,0
2,79,74,0
2,65,74,24
2,70,74,24
2,75,74,0
2,77,74,0
2,72,74,24
2,77,74,0
2,79,74,0
2,65,74,24
2,70,74,24
2,75,74,0
2,77,74,0
2,72,74,24
2,77,74,0
2,79,74,0
2,65,74,24
2,70,74,24
2,75,74,0
2,77,74,0
2,77,74,24
2,72,74,0
2,79,74,0
2,65,74,24
2,75,74,24
2,70,74,0
2,77,74,0
2,65,74,24
2,72,74,24
2,77,74,0
2,79,74,0
2,65,74,24
2,70,74,24
2,75,74,0
2,77,74,0
2,77,74,24
2,72,74,0
2,79,74,0
2,65,74,24
2,70,74,24
2,75,74,0
2,77,74,0
2,72,74,24
2,77,74,0
2,79,74,0
2,65,74,24
2,70,74,24
2,75,74,0
2,77,74,0
2,72,74,24
2,77,74,0
2,79,74,0
2,65,74,24
2,70,74,24
2,75,74,0
2,77,74,0
2,77,74,24
2,72,74,0
2,79,74,0
2,65,74,24
2,75,74,24
2,70,74,0
2,77,74,0
2,65,74,24
2,72,74,24
2,77,74,0
2,79,74,0
2,65,74,24
2,70,74,24
2,75,74,0
2,77,74,0
2,77,74,24
2,72,74,0
2,79,74,0
2,65,74,24
2,70,74,24
2,75,74,0
2,77,74,0
2,72,74,24
2,77,74,0
2,79,74,0
2,65,74,24
2,70,74,24
2,75,74,0
2,77,74,0
2,72,74,24
2,77,74,0
2,79,74,0
2,65,74,24
2,70,74,24
2,75,74,0
2,77,74,0
2,77,74,24
2,72,74,0
2,79,74,0
2,65,74,24
2,75,74,24
2,70,74,0
2,77,74,0
2,65,74,24
2,72,74,24
2,77,74,0
2,79,74,0
2,65,74,24
2,70,74,24
2,75,74,0
2,77,74,0
2,77,74,24
2,72,74,0
2,79,74,0
2,65,74,24
2,70,74,24
2,75,74,0
2,77,74,0
2,72,74,24
2,77,74,0
2,79,74,0
2,65,74,24
2,70,74,24
2,75,74,0
2,77,74,0
2,72,74,24
2,77,74,0
2,79,74,0
2,65,74,24
2,70,74,24
2,75,74,0
2,77,74,0
2,77,74,24
2,72,74,0
2,79,74,0
2,65,74,24
2,75,74,24
2,70,74,0
2,77,74,0
2,65,74,24
2,72,74,24
2,77,74,0
2,79,74,0
2,65,74,24
2,70,74,24
2,75,74,0
2,77,74,0
2,77,74,24
2,72,74,0
2,79,74,0
2,65,74,24
2,70,74,24
2,75,74,0
2,77,74,0
2,72,74,24
2,77,74,0
2,79,74,0
2,65,74,24
2,70,74,24
2,75,74,0
2,77,74,0
2,72,74,24
2,77,74,0
2,79,74,0
2,65,74,24
2,70,74,24
2,75,74,0
2,77,74,0
2,77,74,24
2,72,74,0
2,79,74,0
2,65,74,24
2,75,74,24
2,70,74,0
2,77,74,0
2,65,74,24
2,31,74,7704
2,43,74,0
2,33,74,0
2,45,74,0
2,34,74,0
2,46,74,0
2,36,74,0
2,48,74,0
2,38,74,0
2,50,74,0
