track,note,velocity,time
1,73,100,18720
1,73,0,240
1,70,100,8
1,66,100,109
1,70,0,11
1,68,100,45
1,66,0,4
1,68,0,56
1,68,100,17
1,65,100,235
1,68,0,5
1,61,100,107
1,65,0,8
1,61,0,112
1,66,100,3
1,66,0,240
1,63,100,0
1,59,100,110
1,63,0,10
1,59,0,50
1,61,100,3
1,61,0,60
1,61,100,7
1,61,0,480
1,73,100,0
1,73,0,240
1,70,100,0
1,66,100,113
1,70,0,7
1,66,0,53
1,68,100,7
1,68,0,60
1,68,100,0
1,68,0,240
1,65,100,0
1,65,0,120
1,61,100,0
1,61,0,120
1,66,100,0
1,66,0,240
1,63,100,0
1,63,0,120
1,59,100,0
1,61,100,57
1,59,0,3
1,61,0,57
1,61,100,3
1,61,0,240
1,65,100,120
1,65,0,120
1,66,100,0
1,66,100,210
1,66,100,27
1,66,0,3
1,66,0,0
1,66,0,77
1,73,100,3
1,73,0,80
1,70,100,0
1,70,0,80
1,68,100,0
1,66,100,197
1,66,0,30
1,68,0,13
1,66,100,3
1,66,0,80
1,73,100,0
1,70,100,77
1,73,0,3
1,70,0,77
1,68,100,0
1,68,0,240
1,68,100,2
1,70,100,78
1,68,0,2
1,70,0,78
1,66,100,2
1,63,100,78
1,66,0,2
1,68,100,75
1,63,0,3
1,68,0,77
1,66,100,6
1,65,100,74
1,66,0,6
1,65,0,114
1,73,100,123
1,73,0,240
1,70,100,8
1,66,100,109
1,70,0,11
1,68,100,45
1,66,0,4
1,68,0,56
1,68,100,17
1,65,100,235
1,68,0,5
1,61,100,107
1,65,0,8
1,61,0,112
1,66,100,3
1,66,0,240
1,63,100,0
1,59,100,110
1,63,0,10
1,59,0,50
1,61,100,3
1,61,0,60
1,61,100,7
1,61,0,480
1,73,100,0
1,73,0,240
1,70,100,0
1,66,100,113
1,70,0,7
1,66,0,53
1,68,100,7
1,68,0,60
1,68,100,0
1,68,0,240
1,65,100,0
1,65,0,120
1,61,100,0
1,61,0,120
1,66,100,0
1,66,0,240
1,63,100,0
1,63,0,120
1,59,100,0
1,61,100,57
1,59,0,3
1,61,0,57
1,61,100,3
1,61,0,240
1,65,100,120
1,65,0,120
1,66,100,0
1,66,100,210
1,66,100,27
1,66,0,3
1,66,0,0
1,66,0,77
1,73,100,3
1,73,0,80
1,70,100,0
1,70,0,80
1,68,100,0
1,66,100,197
1,66,0,30
1,68,0,13
1,66,100,3
1,66,0,80
1,73,100,0
1,70,100,77
1,73,0,3
1,70,0,77
1,68,100,0
1,68,0,240
1,68,100,2
1,70,100,78
1,68,0,2
1,70,0,78
1,66,100,2
1,63,100,78
1,66,0,2
1,68,100,75
1,63,0,3
1,68,0,77
1,66,100,6
1,65,100,74
1,66,0,6
1,65,0,114
1,78,100,670
1,78,100,48
1,78,0,12
1,78,0,48
1,78,100,8
1,78,100,57
1,78,0,3
1,78,0,57
1,76,100,0
1,77,100,57
1,76,0,3
1,77,0,57
1,76,100,3
1,76,0,60
1,78,100,0
1,78,0,480
2,52,100,2400
2,52,0,40
2,57,100,0
2,57,0,40
2,63,100,0
2,61,100,38
2,63,0,2
2,61,0,38
2,57,100,0
2,57,0,40
2,64,100,2
2,64,0,40
2,59,100,0
2,59,0,40
2,64,100,0
2,64,0,40
2,70,100,0
2,70,0,40
2,68,100,0
2,68,0,40
2,64,100,0
2,64,0,40
2,71,100,2
2,64,100,38
2,71,0,2
2,64,0,38
2,69,100,0
2,69,0,40
2,75,100,3
2,73,100,35
2,75,0,5
2,73,0,35
2,69,100,2
2,69,0,40
2,76,100,0
2,76,0,40
2,71,100,2
2,76,100,38
2,71,0,2
2,76,0,38
2,82,100,3
2,80,100,34
2,82,0,6
2,80,0,34
2,76,100,3
2,76,0,40
2,82,100,0
2,82,0,40
2,85,100,0
2,76,100,0
2,76,0,40
2,85,0,0
2,78,100,2
2,82,100,38
2,78,0,2
2,80,100,34
2,82,0,4
2,71,100,0
2,80,0,36
2,71,0,4
2,73,100,0
2,73,0,40
2,76,100,0
2,68,100,38
2,76,0,2
2,76,100,2
2,68,0,36
2,69,100,2
2,76,0,2
2,69,0,38
2,73,100,1
2,63,100,36
2,71,100,3
2,73,0,1
2,63,0,36
2,71,0,3
2,64,100,0
2,64,0,40
2,68,100,2
2,65,100,38
2,68,0,2
2,65,0,38
2,66,100,0
2,73,100,38
2,66,0,2
2,71,100,0
2,73,0,38
2,70,100,0
2,71,0,2
2,70,0,38
2,68,100,2
2,68,0,40
2,66,100,0
2,64,100,36
2,66,0,4
2,64,0,36
2,61,100,4
2,61,0,40
2,59,100,0
2,61,100,35
2,59,0,5
2,61,0,115
2,61,100,7
2,61,0,40
2,66,100,1
2,66,0,40
2,68,100,0
2,73,100,32
2,68,0,8
2,73,0,32
2,75,100,5
2,68,100,38
2,75,0,2
2,68,100,35
2,68,0,3
2,80,100,2
2,68,0,35
2,78,100,3
2,80,0,2
2,68,100,35
2,78,0,3
2,80,100,2
2,68,0,35
2,78,100,2
2,80,0,3
2,78,0,37
2,74,100,1
2,69,100,39
2,74,0,1
2,69,0,39
2,68,100,3
2,68,0,40
2,75,100,2
2,73,100,38
2,75,0,2
2,78,100,35
2,73,0,3
2,78,0,37
2,75,100,1
2,75,0,40
2,73,100,0
2,73,0,40
2,71,100,0
2,71,0,40
2,68,100,2
2,71,100,38
2,68,0,2
2,70,100,37
2,71,0,1
2,70,0,39
2,66,100,3
2,66,0,40
2,63,100,0
2,63,0,40
2,61,100,0
2,61,0,40
2,68,100,3
2,66,100,37
2,68,0,3
2,68,100,34
2,66,0,3
2,68,0,37
2,75,100,6
2,73,100,39
2,75,0,1
2,75,100,35
2,73,0,4
2,75,0,36
2,68,100,2
2,68,0,40
2,68,100,37
2,68,0,120
2,68,100,3
2,68,0,40
2,75,100,0
2,75,0,40
2,73,100,3
2,78,100,34
2,73,0,6
2,78,0,34
2,75,100,1
2,75,0,40
2,73,100,0
2,71,100,39
2,73,0,1
2,71,0,39
2,68,100,1
2,71,100,39
2,68,0,1
2,71,0,39
2,70,100,1
2,70,0,40
2,66,100,2
2,66,0,40
2,63,100,0
2,63,0,40
2,64,100,0
2,64,0,40
2,65,100,0
2,65,0,40
2,66,100,0
2,70,100,37
2,66,0,3
2,70,0,37
2,72,100,5
2,72,0,40
2,73,100,1
2,77,100,35
2,73,0,5
2,77,0,35
2,78,100,2
2,78,0,40
2,82,100,2
2,82,0,40
2,84,100,1
2,82,100,37
2,84,0,3
2,82,0,37
2,78,100,0
2,78,0,40
2,77,100,3
2,87,100,37
2,77,0,3
2,76,100,0
2,87,0,37
2,85,100,0
2,76,0,3
2,77,100,34
2,85,0,3
2,87,100,0
2,77,0,37
2,87,0,3
2,85,100,0
2,75,100,38
2,85,0,2
2,87,100,0
2,75,0,38
2,87,0,2
2,85,100,0
2,85,0,40
2,79,100,2
2,87,100,0
2,85,100,38
2,87,0,2
2,79,0,0
2,77,100,33
2,85,0,5
2,87,100,7
2,77,0,28
2,85,100,7
2,87,0,5
2,81,100,33
2,85,0,2
2,87,100,3
2,81,0,35
2,89,100,0
2,87,0,5
2,89,0,35
2,85,100,0
2,85,0,40
2,82,100,0
2,87,100,37
2,82,0,3
2,87,0,37
2,84,100,3
2,84,0,40
2,85,100,0
2,85,0,40
2,82,100,0
2,82,0,40
2,77,100,0
2,77,0,40
2,75,100,0
2,75,0,40
2,80,100,0
2,80,0,40
2,75,100,0
2,75,0,40
2,77,100,0
2,77,0,160
2,70,100,277
2,70,0,40
2,65,100,13
2,67,100,30
2,65,0,10
2,67,0,30
2,75,100,0
2,75,0,40
2,72,100,3
2,74,100,35
2,72,0,5
2,74,0,35
2,70,100,2
2,70,0,40
2,65,100,0
2,65,0,40
2,62,100,3
2,65,100,39
2,62,0,1
2,65,0,39
2,62,100,1
2,67,100,37
2,60,100,2
2,62,0,1
2,77,100,87
2,77,0,30
2,67,0,0
2,79,100,0
2,60,0,2
2,77,100,105
2,79,0,13
2,77,0,77
2,79,100,11
2,79,0,30
2,70,100,9
2,72,100,110
2,70,0,10
2,72,0,30
2,70,100,1
2,70,0,40
2,65,100,0
2,65,0,40
2,67,100,5
2,75,100,39
2,67,0,1
2,75,0,39
2,72,100,1
2,74,100,32
2,72,0,8
2,74,0,32
2,70,100,2
2,70,0,40
2,65,100,0
2,65,0,40
2,62,100,3
2,62,0,40
2,65,100,2
2,62,100,38
2,65,0,2
2,62,0,38
2,67,100,0
2,60,100,5
2,77,100,97
2,67,0,18
2,79,100,0
2,60,0,5
2,77,0,7
2,77,100,105
2,79,0,3
2,77,0,87
2,79,100,3
2,79,0,30
2,70,100,2
2,70,0,30
2,72,100,15
2,72,0,30
2,72,100,38
2,72,0,40
2,70,100,5
2,70,0,40
2,65,100,0
2,65,0,40
2,70,100,0
2,70,0,40
2,75,100,0
2,75,0,40
2,72,100,0
2,74,100,37
2,72,0,3
2,74,0,37
2,70,100,1
2,70,0,40
2,67,100,2
2,67,0,40
2,80,100,3
2,77,100,34
2,80,0,6
2,77,0,34
2,79,100,3
2,75,100,37
2,79,0,3
2,75,0,37
2,72,100,3
2,72,0,40
2,70,100,0
2,70,0,40
2,67,100,7
2,70,100,33
2,67,0,7
2,70,0,33
2,67,100,7
2,65,100,30
2,72,100,3
2,67,0,7
2,70,100,228
2,65,0,2
2,72,0,3
2,70,0,25
2,72,100,5
2,70,100,25
2,72,0,5
2,70,0,25
2,65,100,3
2,65,0,30
2,67,100,2
2,67,0,40
2,75,100,3
2,72,100,35
2,75,0,5
2,72,0,35
2,74,100,0
2,74,0,40
2,70,100,2
2,70,0,40
2,65,100,0
2,65,0,40
2,62,100,2
2,62,0,40
2,65,100,1
2,62,100,39
2,65,0,1
2,62,0,39
2,67,100,0
2,60,100,0
2,62,100,118
2,60,0,2
2,67,0,0
2,63,100,36
2,62,0,2
2,63,0,38
2,67,100,5
2,70,100,32
2,67,0,8
2,70,0,32
2,74,100,5
2,74,0,40
2,77,100,2
2,74,100,38
2,77,0,2
2,74,0,38
2,75,100,2
2,75,0,40
2,82,100,3
2,79,100,32
2,82,0,8
2,70,100,28
2,79,0,4
2,70,0,36
2,65,100,7
2,65,0,40
2,67,100,0
2,67,0,40
2,75,100,3
2,72,100,37
2,75,0,3
2,74,100,35
2,72,0,2
2,74,0,38
2,70,100,2
2,65,100,37
2,70,0,3
2,65,0,37
2,62,100,1
2,62,0,40
2,65,100,4
2,62,100,36
2,65,0,4
2,62,0,36
2,60,100,2
2,67,100,2
2,60,0,118
2,62,100,0
2,67,0,2
2,62,0,38
2,63,100,0
2,63,0,40
2,67,100,0
2,70,100,35
2,67,0,5
2,70,0,35
2,74,100,3
2,74,0,40
2,77,100,4
2,75,100,38
2,77,0,2
2,75,0,38
2,77,100,0
2,77,0,40
2,82,100,0
2,79,100,38
2,82,0,2
2,74,100,37
2,79,0,1
2,65,100,37
2,74,0,2
2,65,0,38
2,70,100,5
2,70,0,40
2,75,100,0
2,75,0,40
2,72,100,0
2,74,100,37
2,72,0,3
2,74,0,37
2,70,100,1
2,70,0,40
2,67,100,2
2,67,0,40
2,80,100,3
2,77,100,34
2,80,0,6
2,77,0,34
2,79,100,3
2,75,100,37
2,79,0,3
2,75,0,37
2,72,100,3
2,72,0,40
2,70,100,0
2,70,0,40
2,67,100,7
2,70,100,33
2,67,0,7
2,70,0,33
2,67,100,7
2,65,100,30
2,72,100,3
2,67,0,7
2,65,0,230
2,72,0,3
2,72,100,2
2,72,0,40
2,75,100,0
2,72,100,38
2,75,0,2
2,72,0,38
2,71,100,0
2,79,100,0
2,79,0,40
2,71,0,0
2,72,100,0
2,75,100,37
2,72,0,3
2,75,100,35
2,75,0,2
2,67,100,1
2,75,0,37
2,67,0,3
2,68,100,0
2,68,0,40
2,72,100,4
2,72,0,40
2,72,100,0
2,80,100,1
2,72,0,39
2,73,100,0
2,80,0,1
2,77,100,37
2,73,0,2
2,68,100,35
2,77,0,3
2,76,100,0
2,68,0,37
2,76,0,3
2,69,100,0
2,69,0,40
2,73,100,0
2,73,0,40
2,73,100,0
2,81,100,0
2,81,0,40
2,73,0,0
2,74,100,2
2,77,100,38
2,74,0,2
2,77,0,38
2,69,100,0
2,77,100,0
2,77,0,40
2,69,0,0
2,70,100,0
2,70,0,40
2,74,100,0
2,74,100,38
2,74,0,2
2,82,100,0
2,74,0,38
2,82,0,2
2,75,100,2
2,79,100,38
2,75,0,2
2,79,0,38
2,71,100,0
2,79,100,0
2,79,0,40
2,71,0,0
2,72,100,0
2,72,0,40
2,76,100,0
2,76,0,40
2,61,100,0
2,73,100,2
2,70,100,1
2,66,100,0
2,67,100,112
2,64,100,3
2,61,0,2
2,55,100,0
2,73,0,2
2,66,0,1
2,70,0,0
2,60,100,2
2,67,0,230
2,64,0,3
2,55,0,2
2,60,0,5
2,61,100,115
2,73,100,2
2,70,100,1
2,66,100,0
2,67,100,112
2,64,100,3
2,61,0,2
2,55,100,0
2,73,0,2
2,66,0,1
2,70,0,0
2,60,100,2
2,67,0,230
2,64,0,3
2,55,0,2
2,60,0,5
2,64,100,115
2,54,100,2
2,59,100,1
2,64,0,87
2,63,100,0
2,54,0,2
2,59,0,1
2,68,100,25
2,63,0,2
2,62,100,0
2,57,100,3
2,68,0,85
2,62,0,2
2,57,0,3
2,66,100,0
2,65,100,25
2,60,100,2
2,66,0,3
2,71,100,7
2,65,0,78
2,60,0,2
2,69,100,0
2,71,0,10
2,69,0,20
2,63,100,0
2,68,100,3
2,74,100,2
2,63,0,85
2,72,100,0
2,68,0,3
2,74,0,2
2,72,0,25
2,79,100,0
2,68,100,0
2,73,100,3
2,71,100,110
2,68,0,7
2,79,0,0
2,82,100,0
2,73,0,3
2,76,100,4
2,77,100,103
2,71,0,3
2,82,0,7
2,72,100,0
2,83,100,3
2,76,0,4
2,77,0,703
2,72,0,10
2,56,100,0
2,83,0,3
2,56,0,57
2,61,100,0
2,61,0,60
2,66,100,3
2,66,0,60
2,65,100,0
2,61,100,44
2,65,0,16
2,61,0,44
2,68,100,3
2,68,0,60
2,59,100,10
2,59,0,60
2,64,100,0
2,64,0,60
2,70,100,0
2,70,0,60
2,68,100,0
2,68,0,60
2,64,100,0
2,64,0,60
2,71,100,7
2,64,100,53
2,71,0,7
2,64,0,53
2,69,100,0
2,69,0,60
2,75,100,7
2,73,100,46
2,75,0,14
2,73,0,46
2,69,100,7
2,69,0,60
2,76,100,0
2,76,0,60
2,71,100,0
2,71,0,60
2,76,100,0
2,76,0,60
2,82,100,0
2,80,100,53
2,82,0,7
2,80,0,53
2,75,100,4
2,75,0,60
2,83,100,13
2,73,100,50
2,66,100,0
2,70,100,3
2,83,0,7
2,73,0,230
2,66,0,0
2,70,100,0
2,63,100,0
2,70,0,3
2,66,100,115
2,63,0,2
2,70,0,0
2,66,0,58
2,68,100,2
2,68,0,60
2,65,100,0
2,61,100,0
2,68,100,3
2,61,0,237
2,65,0,0
2,65,100,0
2,68,0,3
2,61,100,114
2,65,0,3
2,61,0,117
2,61,100,3
2,66,100,0
2,59,100,237
2,66,0,3
2,61,0,0
2,63,100,0
2,59,100,110
2,59,0,7
2,63,0,3
2,59,0,50
2,61,100,17
2,61,100,53
2,58,100,3
2,61,0,4
2,61,0,473
2,70,100,0
2,66,100,0
2,58,0,3
2,73,100,0
2,63,100,224
2,66,0,13
2,70,0,0
2,73,0,3
2,70,100,4
2,63,0,100
2,66,100,10
2,70,0,10
2,66,0,50
2,68,100,5
2,61,100,58
2,68,0,2
2,68,100,1
2,65,100,0
2,61,0,237
2,65,100,0
2,65,0,3
2,68,0,0
2,65,0,117
2,61,100,0
2,61,0,120
2,63,100,0
2,66,100,3
2,59,100,230
2,63,0,7
2,63,100,0
2,66,0,3
2,59,0,110
2,59,100,0
2,63,0,7
2,59,0,53
2,61,100,7
2,61,0,60
2,54,100,0
2,58,100,0
2,61,100,0
2,61,0,240
2,58,0,0
2,54,0,0
