track,note,velocity,time
0,40,127,48
0,40,127,4
0,41,125,0
0,41,125,4
0,41,104,6
0,41,104,4
0,40,124,2
0,40,124,4
0,41,123,12
0,41,123,4
0,41,101,18
0,41,101,4
0,40,127,0
0,40,127,4
0,41,127,0
0,41,127,4
0,41,108,2
0,41,108,4
0,29,114,2
0,40,118,0
0,40,118,4
0,38,82,2
0,38,45,53
0,38,51,22
0,38,55,6
0,38,62,16
0,38,66,12
0,38,81,0
0,34,53,22
0,40,74,0
0,41,123,24
0,41,123,4
0,34,113,0
0,41,101,12
0,41,101,4
0,36,127,4
0,41,127,0
0,41,127,4
0,29,122,0
0,36,114,0
0,42,114,4
0,41,107,6
0,41,107,4
0,29,109,0
0,36,114,0
0,44,89,0
0,31,126,6
0,43,112,0
0,43,112,4
0,34,94,2
0,40,105,0
0,42,92,0
0,41,99,6
0,41,99,4
0,36,114,0
0,44,85,0
0,29,103,2
0,44,114,0
0,36,120,2
0,44,114,2
0,42,93,0
0,32,117,2
0,41,93,6
0,41,93,4
0,29,102,4
0,44,83,0
0,46,124,8
0,46,124,4
0,34,114,4
0,42,84,0
0,34,97,2
0,40,108,0
0,44,115,6
0,32,121,2
0,44,115,2
0,44,109,4
0,41,104,6
0,42,114,2
0,41,104,2
0,36,120,2
0,29,114,2
0,41,110,6
0,44,96,2
0,41,110,2
0,36,126,4
0,29,106,4
0,43,115,5
0,43,115,4
0,42,102,4
0,34,97,2
0,40,108,0
0,31,127,2
0,41,99,6
0,41,99,4
0,36,111,8
0,44,89,0
0,29,105,4
0,43,123,6
0,43,123,4
0,32,118,2
0,42,100,0
0,36,127,2
0,41,105,6
0,41,105,4
0,44,93,0
0,29,104,2
0,36,107,4
0,42,96,6
0,46,122,0
0,34,116,2
0,46,122,2
0,34,99,0
0,40,110,0
0,44,111,6
0,32,105,2
0,34,101,0
0,40,113,0
0,44,111,2
0,44,109,0
0,41,104,0
0,41,104,4
0,29,123,0
0,36,123,0
0,42,105,0
0,41,98,6
0,41,98,4
0,29,106,0
0,36,123,2
0,44,87,4
0,43,121,6
0,43,121,4
0,31,115,4
0,34,101,0
0,40,113,0
0,42,100,0
0,41,93,6
0,36,120,2
0,41,93,2
0,44,105,0
0,29,119,2
0,43,120,6
0,42,83,2
0,43,120,2
0,36,126,0
0,32,114,2
0,41,99,6
0,41,99,4
0,44,89,0
0,29,102,2
0,46,127,6
0,42,105,2
0,46,127,2
0,34,102,0
0,40,114,0
0,34,118,4
0,44,123,6
0,44,123,4
0,32,126,2
0,44,114,2
0,41,103,10
0,41,103,4
0,29,114,0
0,36,107,0
0,42,90,0
0,29,127,0
0,44,114,2
0,41,127,0
0,34,95,2
0,40,106,0
0,41,127,2
0,42,89,6
0,43,108,0
0,31,125,2
0,43,108,2
0,36,102,0
0,41,126,6
0,44,112,2
0,41,126,2
0,29,127,0
0,36,127,2
0,34,48,151
0,40,54,0
0,43,110,6
0,43,110,4
0,42,90,2
0,32,123,2
0,34,102,0
0,40,114,0
0,41,127,6
0,41,127,4
0,36,127,6
0,38,112,0
0,44,113,0
0,29,126,2
0,46,116,6
0,46,116,4
0,34,125,0
0,34,99,0
0,36,127,0
0,40,110,0
0,44,127,6
0,44,127,4
0,32,126,2
0,34,88,2
0,40,98,0
0,44,111,0
0,34,74,0
0,40,83,0
0,49,100,10
0,41,121,1
0,29,125,0
0,85,118,0
0,36,122,0
0,57,114,0
0,29,117,0
0,41,121,0
0,74,122,2
0,41,119,4
0,41,96,2
0,29,111,0
0,36,103,2
0,44,109,0
0,29,99,0
0,43,115,2
0,43,115,4
0,31,127,0
0,42,109,0
0,34,102,2
0,40,114,0
0,31,122,0
0,41,98,4
0,41,98,4
0,29,98,6
0,36,107,0
0,44,105,0
0,29,112,0
0,65,107,4
0,72,99,0
0,44,124,0
0,60,112,2
0,75,96,0
0,44,124,2
0,36,120,0
0,42,114,0
0,32,112,0
0,32,127,2
0,72,112,2
0,75,96,0
0,41,90,0
0,41,90,4
0,29,102,2
0,44,105,0
0,29,114,0
0,42,114,2
0,46,127,2
0,34,100,2
0,40,112,0
0,34,119,0
0,46,127,2
0,34,127,2
0,45,106,4
0,45,106,1
0,32,108,4
0,44,109,0
0,32,114,0
0,87,126,2
0,42,109,2
0,41,110,2
0,29,115,2
0,36,118,0
0,29,117,0
0,41,110,2
0,60,112,2
0,75,97,2
0,65,107,1
0,72,104,0
0,72,112,2
0,75,97,1
0,29,97,4
0,41,90,0
0,44,105,1
0,41,90,2
0,36,107,0
0,29,108,0
0,42,109,4
0,43,114,0
0,43,114,2
0,31,127,0
0,34,98,1
0,40,109,0
0,31,119,0
0,60,112,4
0,75,101,0
0,72,120,0
0,75,116,0
0,44,114,0
0,65,112,2
0,72,107,0
0,41,95,0
0,36,92,2
0,29,108,0
0,41,95,2
0,29,98,0
0,44,112,4
0,42,114,2
0,44,112,2
0,36,117,0
0,32,112,0
0,32,127,4
0,41,86,1
0,41,86,4
0,29,89,0
0,36,100,0
0,44,109,0
0,29,112,0
0,42,114,4
0,46,110,0
0,34,101,2
0,40,113,0
0,34,114,0
0,46,110,2
0,34,120,0
0,44,102,4
0,44,102,4
0,32,127,0
0,34,89,0
0,40,99,0
0,44,109,0
0,32,114,0
0,74,127,2
0,42,109,0
0,29,97,2
0,41,102,0
0,84,127,2
0,36,123,0
0,29,112,0
0,41,102,2
0,44,109,4
0,41,90,0
0,41,90,4
0,36,100,0
0,29,108,0
0,29,98,2
0,43,117,4
0,42,114,2
0,43,117,2
0,34,100,0
0,40,112,0
0,31,117,0
0,31,127,4
0,44,105,0
0,29,82,4
0,36,96,0
0,29,112,0
0,32,127,6
0,44,113,0
0,36,120,0
0,42,109,0
0,32,114,0
0,44,113,2
0,65,122,0
0,72,107,2
0,75,97,2
0,60,104,2
0,75,97,0
0,72,104,0
0,44,105,1
0,29,108,0
0,29,90,2
0,41,94,2
0,41,94,4
0,34,127,0
0,34,98,0
0,40,109,0
0,42,100,0
0,34,112,0
0,46,117,0
0,46,117,4
0,44,119,4
0,44,119,4
0,44,96,2
0,32,114,2
0,32,114,2
0,72,127,0
0,84,122,2
0,72,126,0
0,60,121,0
0,41,93,0
0,41,93,4
0,36,123,0
0,42,109,0
0,29,108,0
0,29,88,2
0,94,127,0
0,72,120,0
0,54,126,0
0,66,127,0
0,66,122,2
0,90,114,2
0,44,100,0
0,41,127,0
0,66,125,2
0,36,99,0
0,29,106,0
0,41,127,2
0,29,123,2
0,78,117,2
0,31,94,1
0,34,101,4
0,40,113,0
0,42,105,0
0,31,112,0
0,43,92,0
0,43,92,4
0,41,124,3
0,44,105,0
0,41,124,2
0,36,82,0
0,29,108,0
0,29,126,2
0,43,98,4
0,43,98,4
0,42,100,0
0,32,97,4
0,36,124,0
0,32,119,0
0,44,109,0
0,41,121,2
0,36,83,1
0,29,97,0
0,41,121,2
0,29,126,0
0,42,100,1
0,34,98,4
0,34,99,0
0,40,110,0
0,34,114,0
0,46,105,0
0,46,105,4
0,44,127,4
0,44,109,2
0,44,127,2
0,32,127,0
0,32,112,2
0,41,93,4
0,42,114,2
0,41,93,2
0,36,117,0
0,29,108,0
0,29,101,2
0,81,127,10
0,70,122,1
0,41,127,0
0,41,127,4
0,29,97,0
0,36,103,4
0,44,105,0
0,29,99,0
0,43,127,0
0,43,127,4
0,34,99,6
0,40,111,0
0,42,114,0
0,31,114,0
0,31,127,4
0,87,115,2
0,75,117,8
0,41,91,4
0,41,91,4
0,36,104,2
0,44,93,0
0,29,102,0
0,89,105,0
0,77,103,17
0,44,105,2
0,42,109,2
0,44,105,2
0,32,127,0
0,36,121,0
0,32,112,0
0,89,111,16
0,77,104,10
0,41,127,4
0,41,127,2
0,29,93,2
0,44,96,0
0,29,102,2
0,77,119,1
0,46,119,4
0,46,119,4
0,34,124,2
0,34,102,2
0,40,114,0
0,42,114,0
0,34,114,0
0,32,112,1
0,44,106,0
0,44,106,4
0,44,105,0
0,32,112,0
0,77,106,6
0,29,107,4
0,41,120,0
0,41,120,4
0,36,124,0
0,42,114,0
0,29,112,0
0,77,106,8
0,44,105,4
0,41,93,0
0,29,100,2
0,36,100,0
0,29,93,0
0,41,93,2
0,89,106,4
0,77,104,5
0,42,109,4
0,43,124,0
0,43,124,4
0,31,118,0
0,34,102,2
0,40,114,0
0,31,112,0
0,75,110,0
0,44,109,10
0,87,98,0
0,36,94,0
0,29,108,0
0,29,94,2
0,42,109,0
0,44,127,2
0,44,127,4
0,32,109,0
0,36,127,0
0,32,117,0
0,83,126,4
0,72,127,3
0,44,105,0
0,29,88,2
0,29,99,2
0,84,127,2
0,70,127,10
0,34,118,2
0,46,117,2
0,34,98,1
0,40,109,0
0,42,114,0
0,34,114,0
0,46,117,2
0,72,118,23
0,32,106,2
0,44,122,0
0,44,122,4
0,34,89,4
0,40,99,0
0,32,108,0
0,44,105,2
0,68,127,4
0,80,106,2
0,41,105,2
0,29,105,2
0,41,105,2
0,36,120,2
0,42,109,0
0,29,117,0
0,29,91,4
0,41,97,0
0,36,101,2
0,44,96,0
0,29,97,0
0,41,97,2
0,65,98,2
0,72,102,2
0,43,112,0
0,72,93,2
0,42,114,0
0,60,92,0
0,43,112,2
0,34,102,0
0,40,114,0
0,31,108,0
0,31,127,2
0,75,101,2
0,75,104,0
0,41,92,2
0,44,109,1
0,41,92,1
0,36,90,2
0,29,112,0
0,29,70,2
0,43,114,4
0,42,114,2
0,43,114,2
0,32,113,2
0,36,127,0
0,32,114,0
0,41,90,0
0,41,90,4
0,44,105,0
0,29,106,0
0,29,98,2
0,65,119,6
0,72,117,2
0,42,109,2
0,46,110,0
0,34,110,1
0,34,99,0
0,40,111,0
0,34,114,0
0,46,110,2
0,72,112,0
0,60,116,0
0,75,114,2
0,75,112,0
0,44,105,2
0,32,119,1
0,44,114,0
0,44,114,4
0,32,112,0
0,41,98,4
0,42,109,0
0,41,98,2
0,36,123,2
0,29,106,0
0,29,102,2
0,41,94,4
0,29,102,2
0,36,107,0
0,29,97,0
0,41,94,2
0,44,105,0
0,65,126,0
0,60,127,0
0,65,127,0
0,43,125,0
0,42,109,2
0,43,125,2
0,31,110,0
0,72,119,0
0,72,118,0
0,34,102,2
0,40,114,0
0,31,108,0
0,75,125,4
0,75,127,0
0,29,90,0
0,44,96,0
0,41,99,4
0,36,99,2
0,29,106,0
0,41,99,2
0,31,114,0
0,36,127,4
0,42,114,0
0,32,114,0
0,44,127,0
0,44,127,4
0,38,65,10
0,38,75,3
0,29,114,4
0,38,94,11
0,41,94,1
0,41,94,4
0,44,100,2
0,34,95,2
0,40,106,0
0,29,90,0
0,29,93,2
0,42,114,4
0,46,127,0
0,46,127,4
0,34,102,0
0,40,114,0
0,34,112,0
0,32,120,4
0,44,113,4
0,34,96,2
0,40,107,0
0,32,112,0
0,44,113,2
0,32,115,0
0,44,114,0
0,29,107,24
0,41,35,0
0,41,127,10
0,41,127,4
0,36,126,2
0,42,114,0
0,29,125,2
0,29,117,0
0,48,111,0
0,34,102,2
0,40,114,0
0,48,111,2
0,41,107,2
0,53,35,0
0,41,107,0
0,39,107,9
0,51,35,0
0,39,107,8
0,36,107,9
0,48,35,0
0,36,107,24
0,32,107,9
0,44,35,0
0,32,107,20
0,41,106,29
0,41,106,4
0,36,103,2
0,48,100,0
0,48,100,4
0,29,108,0
0,34,85,0
0,40,95,0
0,41,127,2
0,41,127,4
0,36,119,2
0,29,127,4
0,48,124,0
0,48,124,4
0,34,102,0
0,40,114,0
0,41,35,24
0,29,107,0
0,29,107,28
0,41,107,24
0,53,35,0
0,41,107,25
0,39,107,9
0,51,35,0
0,39,107,28
0,36,107,13
0,48,35,0
0,36,107,11
0,39,107,9
0,51,35,0
0,39,107,28
0,48,111,31
0,36,116,2
0,48,111,2
0,36,91,0
0,34,81,6
0,40,90,0
0,55,110,0
0,55,110,4
0,48,126,21
0,48,126,0
0,36,122,4
0,36,127,2
0,34,102,2
0,40,114,0
0,55,125,2
0,55,125,4
0,41,35,24
0,29,107,0
0,29,107,28
0,41,107,7
0,53,35,0
0,41,107,7
0,39,107,5
0,51,35,0
0,39,107,9
0,36,107,19
0,48,35,0
0,36,107,19
0,32,107,9
0,44,35,0
0,32,107,4
0,32,107,24
0,44,35,0
0,32,107,28
0,29,107,17
0,41,35,0
0,40,127,0
0,29,107,2
0,72,87,0
0,72,96,0
0,84,100,0
0,40,127,2
0,29,92,2
0,36,126,0
0,78,65,14
0,66,67,0
0,81,76,0
0,69,74,0
0,84,87,0
0,72,85,0
0,29,107,5
0,41,35,0
0,73,103,2
0,29,107,2
0,73,101,0
0,85,107,0
0,41,125,2
0,36,127,2
0,41,125,2
0,79,67,1
0,67,63,0
0,41,119,0
0,41,119,4
0,82,75,0
0,70,76,0
0,84,84,5
0,72,86,0
0,85,99,8
0,73,92,0
0,29,107,16
0,41,35,0
0,74,111,0
0,86,114,0
0,29,107,2
0,40,126,0
0,74,116,1
0,40,126,2
0,36,127,0
0,38,65,1
0,38,75,3
0,29,114,0
0,38,94,15
0,34,95,4
0,40,106,0
0,80,72,0
0,68,73,0
0,83,85,3
0,71,84,0
0,73,93,8
0,85,94,2
0,74,102,6
0,86,104,2
0,29,107,9
0,41,35,0
0,75,125,0
0,87,127,0
0,41,124,0
0,29,107,2
0,41,124,2
0,60,126,0
0,75,127,2
0,34,102,0
0,40,114,0
0,41,115,2
0,65,112,1
0,41,115,1
0,34,96,1
0,40,107,0
0,75,124,2
0,41,127,9
0,41,127,2
0,29,120,4
0,36,122,0
0,29,117,0
0,67,127,0
0,57,114,4
0,41,102,15
0,29,109,2
0,36,103,0
0,29,99,0
0,41,102,2
0,44,77,2
0,43,114,4
0,43,114,4
0,31,122,0
0,34,102,6
0,40,114,0
0,31,122,0
0,42,114,2
0,41,99,20
0,44,85,2
0,41,99,2
0,36,107,0
0,29,112,0
0,29,77,2
0,44,116,7
0,42,105,2
0,44,116,2
0,36,120,2
0,32,112,0
0,32,115,4
0,41,93,1
0,41,93,4
0,29,85,4
0,44,96,0
0,29,114,0
0,46,125,12
0,46,125,4
0,42,109,0
0,34,109,4
0,34,100,2
0,40,112,0
0,34,119,0
0,65,127,8
0,32,120,2
0,44,117,0
0,46,114,2
0,44,117,2
0,32,114,2
0,41,107,0
0,60,104,2
0,41,107,2
0,42,114,0
0,36,118,2
0,65,107,0
0,29,117,0
0,29,118,2
0,72,112,0
0,75,114,0
0,72,112,4
0,75,114,0
0,41,110,4
0,41,110,4
0,36,107,4
0,44,93,0
0,29,108,0
0,29,98,4
0,43,113,0
0,43,113,4
0,34,98,6
0,40,109,0
0,31,119,0
0,31,127,2
0,42,105,0
0,41,99,2
0,41,99,2
0,36,92,8
0,60,107,0
0,29,108,0
0,65,127,0
0,65,122,2
0,29,94,2
0,44,96,0
0,72,104,4
0,75,98,0
0,72,104,1
0,75,98,0
0,43,126,6
0,43,126,2
0,32,118,2
0,42,109,0
0,36,117,2
0,32,112,0
0,41,104,2
0,68,123,0
0,41,104,4
0,29,92,1
0,44,105,0
0,36,100,4
0,29,112,0
0,46,120,4
0,34,110,2
0,72,127,0
0,46,120,2
0,34,101,0
0,40,113,0
0,42,109,0
0,34,114,0
0,44,114,0
0,44,111,2
0,32,100,2
0,34,89,0
0,40,99,0
0,32,114,0
0,44,111,2
0,70,123,2
0,74,117,0
0,41,104,0
0,42,114,2
0,41,104,2
0,29,125,0
0,36,123,0
0,29,112,0
0,63,126,13
0,41,98,0
0,41,98,4
0,29,86,0
0,36,100,2
0,44,96,0
0,29,108,0
0,43,125,8
0,43,125,3
0,42,105,2
0,31,91,2
0,34,100,0
0,40,112,0
0,31,117,0
0,41,93,15
0,36,96,2
0,29,112,0
0,41,93,2
0,44,100,0
0,29,127,2
0,42,93,4
0,43,121,0
0,43,121,4
0,36,120,0
0,32,114,0
0,32,102,2
0,41,99,2
0,41,99,3
0,29,86,2
0,44,105,0
