track,note,velocity,time
1,36,127,13200
1,36,0,120
1,38,127,0
1,38,0,120
1,31,127,0
1,31,0,60
1,31,127,0
1,31,0,60
1,36,127,120
1,36,0,60
1,36,127,0
1,36,0,60
1,38,127,120
1,38,0,60
1,38,127,0
1,38,0,60
1,36,127,120
1,36,0,120
1,38,127,0
1,38,0,120
1,31,127,0
1,31,0,60
1,31,127,0
1,31,0,60
1,36,127,120
1,36,0,60
1,36,127,0
1,36,0,60
1,38,127,120
1,38,0,60
1,38,127,0
1,38,0,60
1,36,127,120
1,36,0,120
1,38,127,0
1,38,0,120
1,31,127,0
1,31,0,60
1,31,127,0
1,31,0,60
1,36,127,120
1,36,0,60
1,36,127,0
1,36,0,60
1,38,127,120
1,38,0,60
1,38,127,0
1,38,0,60
1,36,127,120
1,36,0,120
1,35,127,0
1,35,0,120
1,33,127,0
1,33,0,240
1,33,127,0
1,33,0,60
1,33,127,0
1,33,0,120
1,35,127,0
1,35,0,30
1,36,127,0
1,36,0,30
1,38,127,0
1,38,0,120
1,38,127,0
1,38,0,60
1,38,127,0
1,38,0,60
1,38,127,0
1,38,0,60
1,38,127,0
1,38,0,60
1,38,127,0
1,38,0,60
1,38,127,0
1,38,0,60
1,33,127,0
1,33,0,180
1,33,127,0
1,33,0,30
1,33,127,0
1,33,0,30
1,33,127,0
1,33,0,60
1,33,127,0
1,33,0,120
1,35,127,0
1,35,0,30
1,36,127,0
1,36,0,30
1,38,127,0
1,38,0,240
1,36,127,0
1,36,0,120
1,38,127,0
1,38,0,120
1,31,127,0
1,31,0,60
1,31,127,0
1,31,0,60
1,31,127,0
1,31,0,60
1,31,127,0
1,31,0,60
1,31,127,0
1,31,0,60
1,31,127,0
1,31,0,60
1,31,127,0
1,31,0,60
1,31,127,0
1,31,0,60
1,31,127,0
1,31,0,60
1,31,127,0
1,31,0,60
1,31,127,0
1,31,0,60
1,31,127,0
1,31,0,60
1,31,127,0
1,31,0,60
1,31,127,0
1,31,0,60
1,31,127,0
1,31,0,60
1,31,127,0
1,31,0,60
1,31,127,0
1,31,0,60
1,31,127,0
1,31,0,60
1,31,127,0
1,31,0,60
1,31,127,0
1,31,0,60
1,31,127,0
1,31,0,60
1,31,127,0
1,31,0,60
1,31,127,0
1,31,0,60
1,31,127,0
1,31,0,60
1,31,127,0
1,31,0,60
1,31,127,0
1,31,0,60
1,31,127,0
1,31,0,60
1,31,127,0
1,31,0,60
1,31,127,0
1,31,0,60
1,31,127,0
1,31,0,60
1,31,127,0
1,31,0,60
1,31,127,0
1,31,0,60
1,31,127,0
1,31,0,60
1,31,127,0
1,31,0,60
1,31,127,0
1,31,0,60
1,31,127,0
1,31,0,60
1,30,127,0
1,30,0,60
1,30,127,0
1,30,0,60
1,30,127,0
1,30,0,60
1,30,127,0
1,30,0,60
1,28,127,0
1,28,0,60
1,28,127,0
1,28,0,60
1,28,127,0
1,28,0,60
1,28,127,0
1,28,0,60
1,36,127,0
1,36,0,120
1,35,127,0
1,35,0,120
1,33,127,0
1,33,0,180
1,33,127,0
1,33,0,30
1,33,127,0
1,33,0,30
1,33,127,0
1,33,0,60
1,33,127,0
1,33,0,180
1,38,127,0
1,38,0,60
1,33,127,0
1,33,0,60
1,38,127,0
1,38,0,60
1,38,127,0
1,38,0,60
1,38,127,0
1,38,0,60
1,38,127,0
1,38,0,60
1,38,127,0
1,38,0,60
1,36,127,0
1,36,0,30
1,35,127,0
1,35,0,30
1,33,127,0
1,33,0,180
1,33,127,0
1,33,0,30
1,33,127,0
1,33,0,30
1,33,127,0
1,33,0,60
1,33,127,0
1,33,0,120
1,35,127,0
1,35,0,30
1,36,127,0
1,36,0,30
1,38,127,0
1,38,0,240
1,36,127,0
1,36,0,120
1,38,127,0
1,38,0,120
1,31,127,0
1,31,0,60
1,31,127,0
1,31,0,60
1,36,127,120
1,36,0,60
1,36,127,0
1,36,0,60
1,38,127,120
1,38,0,60
1,38,127,0
1,38,0,60
1,36,127,120
1,36,0,120
1,38,127,0
1,38,0,120
1,31,127,0
1,31,0,60
1,31,127,0
1,31,0,60
1,36,127,120
1,36,0,60
1,36,127,0
1,36,0,60
1,38,127,120
1,38,0,60
1,38,127,0
1,38,0,60
1,36,127,120
1,36,0,120
1,38,127,0
1,38,0,120
1,31,127,0
1,31,0,60
1,31,127,0
1,31,0,60
1,36,127,120
1,36,0,60
1,36,127,0
1,36,0,60
1,38,127,120
1,38,0,60
1,38,127,0
1,38,0,60
1,36,127,120
1,36,0,120
1,35,127,0
1,35,0,120
1,33,127,0
1,33,0,240
1,33,127,0
1,33,0,60
1,33,127,0
1,33,0,120
1,35,127,0
1,35,0,30
1,36,127,0
1,36,0,30
1,38,127,0
1,38,0,120
1,38,127,0
1,38,0,60
1,38,127,0
1,38,0,60
1,38,127,0
1,38,0,60
1,38,127,0
1,38,0,60
1,38,127,0
1,38,0,60
1,38,127,0
1,38,0,60
1,33,127,0
1,33,0,180
1,33,127,0
1,33,0,30
1,33,127,0
1,33,0,30
1,33,127,0
1,33,0,60
1,33,127,0
1,33,0,120
1,35,127,0
1,35,0,30
1,36,127,0
1,36,0,30
1,38,127,0
1,38,0,240
1,36,127,0
1,36,0,120
1,38,127,0
1,38,0,120
1,28,127,0
1,28,0,120
1,40,127,60
1,40,0,300
1,33,127,0
1,33,0,120
1,33,127,60
1,33,0,300
1,28,127,0
1,28,0,120
1,40,127,60
1,40,0,300
1,33,127,0
1,33,0,120
1,33,127,60
1,33,0,300
1,28,127,0
1,28,0,120
1,40,127,60
1,40,0,300
1,33,127,0
1,33,0,120
1,33,127,60
1,33,0,300
1,28,127,0
1,28,0,120
1,40,127,60
1,40,0,300
1,33,127,0
1,33,0,240
1,36,127,0
1,36,0,120
1,38,127,0
1,38,0,120
1,31,127,0
1,31,0,60
1,31,127,0
1,31,0,60
1,31,127,0
1,31,0,60
1,31,127,0
1,31,0,60
1,31,127,0
1,31,0,60
1,31,127,0
1,31,0,60
1,31,127,0
1,31,0,60
1,31,127,0
1,31,0,60
1,31,127,0
1,31,0,60
1,31,127,0
1,31,0,60
1,31,127,0
1,31,0,60
1,31,127,0
1,31,0,60
1,31,127,0
1,31,0,60
1,31,127,0
1,31,0,60
1,31,127,0
1,31,0,60
1,31,127,0
1,31,0,60
1,31,127,0
1,31,0,60
1,31,127,0
1,31,0,60
1,31,127,0
1,31,0,60
1,31,127,0
1,31,0,60
1,31,127,0
1,31,0,60
1,31,127,0
1,31,0,60
1,31,127,0
1,31,0,60
1,31,127,0
1,31,0,60
1,31,127,0
1,31,0,60
1,31,127,0
1,31,0,60
1,31,127,0
1,31,0,60
1,31,127,0
1,31,0,60
1,31,127,0
1,31,0,60
1,31,127,0
1,31,0,60
1,31,127,0
1,31,0,60
1,31,127,0
1,31,0,60
1,31,127,0
1,31,0,60
1,31,127,0
1,31,0,60
1,31,127,0
1,31,0,60
1,31,127,0
1,31,0,60
1,30,127,0
1,30,0,60
1,30,127,0
1,30,0,60
1,30,127,0
1,30,0,60
1,30,127,0
1,30,0,60
1,28,127,0
1,28,0,60
1,28,127,0
1,28,0,60
1,28,127,0
1,28,0,60
1,28,127,0
1,28,0,60
1,36,127,0
1,36,0,120
1,35,127,0
1,35,0,120
1,33,127,0
1,33,0,180
1,33,127,0
1,33,0,30
1,33,127,0
1,33,0,30
1,33,127,0
1,33,0,60
1,33,127,0
1,33,0,180
1,38,127,0
1,38,0,60
1,33,127,0
1,33,0,60
1,38,127,0
1,38,0,60
1,38,127,0
1,38,0,60
1,38,127,0
1,38,0,60
1,38,127,0
1,38,0,60
1,38,127,0
1,38,0,60
1,36,127,0
1,36,0,30
1,35,127,0
1,35,0,30
1,33,127,0
1,33,0,180
1,33,127,0
1,33,0,30
1,33,127,0
1,33,0,30
1,33,127,0
1,33,0,60
1,33,127,0
1,33,0,120
1,35,127,0
1,35,0,30
1,36,127,0
1,36,0,30
1,38,127,0
1,38,0,240
1,36,127,0
1,36,0,120
1,38,127,0
1,38,0,120
1,31,127,0
1,31,0,60
1,31,127,0
1,31,0,60
1,36,127,120
1,36,0,60
1,36,127,0
1,36,0,60
1,38,127,120
1,38,0,60
1,38,127,0
1,38,0,60
1,36,127,120
1,36,0,120
1,38,127,0
1,38,0,120
1,31,127,0
1,31,0,60
1,31,127,0
1,31,0,60
1,36,127,120
1,36,0,60
1,36,127,0
1,36,0,60
1,38,127,120
1,38,0,60
1,38,127,0
1,38,0,60
1,36,127,120
1,36,0,120
1,38,127,0
1,38,0,120
1,31,127,0
1,31,0,60
1,31,127,0
1,31,0,60
1,36,127,120
1,36,0,60
1,36,127,0
1,36,0,60
1,38,127,120
1,38,0,60
1,38,127,0
1,38,0,60
1,36,127,120
1,36,0,120
1,35,127,0
1,35,0,120
1,33,127,0
1,33,0,240
1,33,127,0
1,33,0,60
1,33,127,0
1,33,0,120
1,35,127,0
1,35,0,30
1,36,127,0
1,36,0,30
1,38,127,0
1,38,0,120
1,38,127,0
1,38,0,60
1,38,127,0
1,38,0,60
1,38,127,0
1,38,0,60
1,38,127,0
1,38,0,60
1,38,127,0
1,38,0,60
1,38,127,0
1,38,0,60
1,33,127,0
1,33,0,180
1,33,127,0
1,33,0,30
1,33,127,0
1,33,0,30
1,33,127,0
1,33,0,60
1,33,127,0
1,33,0,120
1,35,127,0
1,35,0,30
1,36,127,0
1,36,0,30
1,38,127,0
1,38,0,240
1,36,127,0
1,36,0,120
1,38,127,0
1,38,0,120
1,31,127,0
1,31,0,60
1,31,127,0
1,31,0,60
1,36,127,120
1,36,0,60
1,36,127,0
1,36,0,60
1,38,127,120
1,38,0,60
1,38,127,0
1,38,0,60
1,36,127,120
1,36,0,120
1,38,127,0
1,38,0,120
1,31,127,0
1,31,0,60
1,31,127,0
1,31,0,60
1,36,127,120
1,36,0,60
1,36,127,0
1,36,0,60
1,38,127,120
1,38,0,60
1,38,127,0
1,38,0,60
1,36,127,120
1,36,0,120
1,38,127,0
1,38,0,120
1,31,127,0
1,31,0,60
1,31,127,0
1,31,0,60
1,36,127,120
1,36,0,60
1,36,127,0
1,36,0,60
1,38,127,120
1,38,0,60
1,38,127,0
1,38,0,60
1,36,127,120
1,36,0,120
1,35,127,0
1,35,0,120
1,33,127,0
1,33,0,240
1,33,127,0
1,33,0,60
1,33,127,0
1,33,0,120
1,35,127,0
1,35,0,30
1,36,127,0
1,36,0,30
1,38,127,0
1,38,0,120
1,38,127,0
1,38,0,60
1,38,127,0
1,38,0,60
1,38,127,0
1,38,0,60
1,38,127,0
1,38,0,60
1,38,127,0
1,38,0,60
1,38,127,0
1,38,0,60
1,33,127,0
1,33,0,180
1,33,127,0
1,33,0,30
1,33,127,0
1,33,0,30
1,33,127,0
1,33,0,60
1,33,127,0
1,33,0,120
1,35,127,0
1,35,0,30
1,36,127,0
1,36,0,30
1,38,127,0
1,38,0,240
1,36,127,0
1,36,0,120
1,38,127,0
1,38,0,120
1,31,127,0
1,31,0,60
1,31,127,0
1,31,0,60
1,36,127,120
1,36,0,60
1,36,127,0
1,36,0,60
1,38,127,120
1,38,0,60
1,38,127,0
1,38,0,60
1,36,127,120
1,36,0,120
1,38,127,0
1,38,0,120
1,31,127,0
1,31,0,60
1,31,127,0
1,31,0,60
1,36,127,120
1,36,0,60
1,36,127,0
1,36,0,60
1,38,127,120
1,38,0,60
1,38,127,0
1,38,0,60
1,36,127,120
1,36,0,120
1,38,127,0
1,38,0,120
1,31,127,0
1,31,0,60
1,31,127,0
1,31,0,60
1,36,127,120
1,36,0,60
1,36,127,0
1,36,0,60
1,38,127,120
1,38,0,60
1,38,127,0
1,38,0,60
1,36,127,120
1,36,0,120
1,35,127,0
1,35,0,120
1,33,127,0
1,33,0,240
1,33,127,0
1,33,0,60
1,33,127,0
1,33,0,120
1,35,127,0
1,35,0,30
1,36,127,0
1,36,0,30
1,38,127,0
1,38,0,120
1,38,127,0
1,38,0,60
1,38,127,0
1,38,0,60
1,38,127,0
1,38,0,60
1,38,127,0
1,38,0,60
1,38,127,0
1,38,0,60
1,38,127,0
1,38,0,60
1,33,127,0
1,33,0,180
1,33,127,0
1,33,0,30
1,33,127,0
1,33,0,30
1,33,127,0
1,33,0,60
1,33,127,0
1,33,0,120
1,35,127,0
1,35,0,30
1,36,127,0
1,36,0,30
1,38,127,0
1,38,0,240
1,36,127,0
1,36,0,120
1,38,127,0
1,38,0,120
1,43,100,0
1,43,0,60
1,43,100,0
1,43,0,60
1,43,100,120
1,43,0,60
2,67,100,0
2,43,100,0
2,71,100,0
2,62,100,0
2,50,100,60
2,50,0,60
2,55,100,0
2,55,0,60
2,62,0,0
2,67,0,0
2,43,0,0
2,71,0,0
2,38,100,0
2,69,100,0
2,66,100,0
2,62,100,0
2,45,100,120
2,45,0,60
2,54,100,0
2,54,0,120
2,62,0,0
2,38,0,0
2,69,0,0
2,66,0,0
2,36,100,0
2,67,100,0
2,64,100,0
2,60,100,0
2,43,100,60
2,43,0,60
2,48,100,0
2,67,0,60
2,66,100,0
2,66,0,120
2,67,100,0
2,67,0,120
2,69,100,0
2,69,0,60
2,48,0,0
2,36,0,0
2,64,0,0
2,60,0,0
2,43,100,0
2,71,100,0
2,67,100,0
2,62,100,0
2,50,100,60
2,50,0,60
2,55,100,0
2,55,0,60
2,62,0,0
2,43,0,0
2,71,0,0
2,67,0,0
2,38,100,0
2,69,100,0
2,66,100,0
2,62,100,0
2,45,100,120
2,45,0,60
2,50,100,0
2,69,0,60
2,67,100,0
2,67,0,30
2,66,100,0
2,66,0,30
2,62,0,0
2,38,0,0
2,66,0,0
2,50,0,0
2,48,100,0
2,36,100,0
2,67,100,0
2,64,100,0
2,60,100,0
2,60,0,480
2,67,0,0
2,48,0,0
2,36,0,0
2,64,0,0
2,43,100,0
2,71,100,0
2,67,100,0
2,62,100,0
2,62,0,180
2,43,0,0
2,71,0,0
2,67,0,0
2,38,100,0
2,69,100,0
2,66,100,0
2,62,100,0
2,62,0,300
2,38,0,0
2,69,0,0
2,66,0,0
2,67,100,0
2,64,100,0
2,60,100,0
2,36,100,0
2,67,0,180
2,66,100,0
2,66,0,120
2,67,100,0
2,67,0,120
2,69,100,0
2,69,0,60
2,36,0,0
2,60,0,0
2,64,0,0
2,43,100,0
2,71,100,0
2,67,100,0
2,62,100,0
2,62,0,180
2,43,0,0
2,71,0,0
2,67,0,0
2,38,100,0
2,69,100,0
2,66,100,0
2,62,100,0
2,62,0,300
2,38,0,0
2,69,0,0
2,66,0,0
2,67,100,0
2,64,100,0
2,60,100,0
2,36,100,0
2,43,100,60
2,43,0,60
2,48,100,0
2,48,0,60
2,67,0,0
2,54,100,0
2,66,100,0
2,66,0,120
2,54,0,0
2,52,100,0
2,67,100,0
2,67,0,120
2,69,100,0
2,69,0,60
2,52,0,0
2,64,0,0
2,60,0,0
2,36,0,0
2,55,100,0
2,43,100,0
2,71,100,0
2,67,100,0
2,62,100,0
2,62,0,180
2,71,0,0
2,55,0,0
2,43,0,0
2,67,0,0
2,50,100,0
2,38,100,0
2,69,100,0
2,66,100,0
2,62,100,0
2,62,0,300
2,69,0,0
2,50,0,0
2,38,0,0
2,66,0,0
2,40,100,0
2,52,100,0
2,64,100,0
2,60,100,0
2,67,100,0
2,60,0,180
2,64,0,0
2,40,0,0
2,52,0,0
2,62,100,0
2,59,100,0
2,50,100,0
2,38,100,0
2,38,0,60
2,59,0,0
2,50,0,0
2,62,0,0
2,36,100,0
2,48,100,0
2,60,100,0
2,64,100,0
2,64,0,120
2,48,0,0
2,60,0,0
2,36,0,0
2,62,100,0
2,59,100,0
2,47,100,0
2,35,100,0
2,35,0,120
2,59,0,0
2,67,0,0
2,62,0,0
2,47,0,0
2,69,100,0
2,64,100,0
2,60,100,0
2,45,100,0
2,33,100,0
2,33,0,480
2,60,0,0
2,69,0,0
2,64,0,0
2,45,0,0
2,50,100,0
2,38,100,0
2,69,100,0
2,66,100,0
