track,note,velocity,time
2,44,104,1453
2,44,0,2
2,49,120,46
2,36,127,0
2,49,0,35
2,36,0,3
2,44,104,93
2,44,0,20
2,36,119,1
2,49,110,0
2,49,0,16
2,36,0,1
2,49,126,7
2,36,127,0
2,49,0,26
2,36,0,1
2,44,102,93
2,44,0,24
2,36,127,1
2,49,127,0
2,49,0,30
2,36,0,6
2,44,109,97
2,44,0,15
2,49,109,1
2,36,127,0
2,49,0,15
2,36,0,1
2,49,127,6
2,36,127,0
2,36,0,43
2,49,0,3
2,40,71,50
2,40,0,1
2,40,73,4
2,40,0,1
2,40,110,4
2,40,0,1
2,40,109,10
2,40,0,6
2,40,112,4
2,40,0,9
2,40,115,2
2,40,0,9
2,47,110,1
2,47,0,4
2,47,109,7
2,47,0,5
2,47,107,6
2,47,0,5
2,47,103,6
2,47,0,5
2,49,119,6
2,36,119,0
2,49,0,1
2,36,0,0
2,42,120,20
2,42,0,1
2,42,127,23
2,40,121,0
2,42,0,1
2,40,0,0
2,42,118,22
2,42,0,1
2,36,119,24
2,42,127,0
2,36,0,1
2,42,0,0
2,42,120,22
2,42,0,1
2,40,127,22
2,40,0,1
2,42,127,0
2,42,0,1
2,40,106,23
2,40,0,1
2,40,108,10
2,40,0,1
2,49,127,9
2,36,121,0
2,49,0,8
2,36,0,0
2,42,120,20
2,42,0,1
2,42,127,23
2,40,121,0
2,42,0,1
2,40,0,0
2,42,118,22
2,42,0,1
2,36,119,24
2,42,127,0
2,36,0,1
2,42,0,0
2,36,107,21
2,36,0,1
2,42,120,0
2,42,0,1
2,40,127,22
2,40,0,1
2,42,127,0
2,42,0,1
2,42,106,23
2,42,0,1
2,49,127,20
2,36,121,0
2,36,0,8
2,49,0,0
2,42,127,20
2,42,0,1
2,42,127,25
2,40,110,0
2,42,0,1
2,40,0,0
2,42,115,23
2,42,0,1
2,36,116,23
2,36,0,1
2,42,121,0
2,42,0,1
2,42,127,21
2,42,0,1
2,42,124,24
2,42,0,1
2,40,110,0
2,40,0,1
2,40,114,22
2,40,0,1
2,40,102,8
2,40,0,1
2,36,120,12
2,49,121,0
2,36,0,4
2,49,0,0
2,42,127,22
2,42,0,1
2,42,127,23
2,42,0,1
2,40,116,0
2,40,0,1
2,42,127,23
2,42,0,1
2,40,71,21
2,40,0,1
2,40,73,4
2,40,0,1
2,40,110,4
2,40,0,1
2,40,109,10
2,40,0,6
2,40,112,4
2,40,0,9
2,40,115,2
2,40,0,9
2,47,115,1
2,47,0,4
2,47,114,7
2,47,0,5
2,47,112,6
2,47,0,5
2,47,108,6
2,47,0,5
2,36,115,8
2,49,127,0
2,36,0,1
2,49,0,0
2,36,104,44
2,40,110,0
2,36,0,1
2,40,0,0
2,42,127,0
2,42,0,1
2,42,127,25
2,36,106,0
2,42,0,1
2,36,0,0
2,40,104,0
2,40,0,1
2,36,108,43
2,36,0,1
2,40,115,0
2,42,127,0
2,40,0,1
2,42,0,0
2,36,109,46
2,40,116,0
2,36,0,1
2,40,0,0
2,42,127,0
2,42,0,1
2,36,120,22
2,49,127,0
2,40,126,1
2,36,0,3
2,49,0,0
2,40,0,0
2,40,115,44
2,42,124,0
2,40,0,1
2,42,0,0
2,36,107,0
2,36,0,1
2,42,127,24
2,36,106,0
2,42,0,1
2,36,0,0
2,40,113,0
2,40,0,1
2,36,102,45
2,36,0,1
2,40,115,0
2,42,127,0
2,40,0,1
2,42,0,0
2,42,127,45
2,42,0,1
2,36,120,0
2,40,120,0
2,36,0,1
2,40,0,0
2,36,124,24
2,49,127,0
2,40,121,1
2,36,0,1
2,49,0,0
2,40,0,0
2,42,127,47
2,40,119,0
2,36,109,0
2,42,0,1
2,40,0,0
2,36,0,0
2,42,127,24
2,42,0,1
2,36,110,0
2,36,0,1
2,40,116,0
2,40,0,1
2,42,127,46
2,42,0,1
2,40,124,0
2,40,0,1
2,36,110,0
2,36,0,1
2,36,127,45
2,42,127,0
2,36,0,1
2,42,0,0
2,40,121,0
2,40,0,1
2,49,127,23
2,36,119,0
2,49,0,1
2,36,0,0
2,40,101,44
2,40,0,1
2,40,118,2
2,40,0,1
2,40,48,32
2,40,0,1
2,48,71,9
2,48,0,1
2,48,73,4
2,48,0,1
2,48,110,4
2,48,0,1
2,48,109,10
2,48,0,1
2,48,112,9
2,48,0,1
2,48,115,10
2,48,0,1
2,45,115,9
2,45,0,1
2,45,114,10
2,45,0,1
2,45,112,10
2,45,0,1
2,45,108,10
2,45,0,1
2,49,119,12
2,36,119,0
2,49,0,1
2,36,0,0
2,42,120,20
2,42,0,1
2,42,127,23
2,40,121,0
2,42,0,1
2,40,0,0
2,42,118,22
2,42,0,1
2,36,119,24
2,42,127,0
2,36,0,1
2,42,0,0
2,42,120,22
2,42,0,1
2,40,127,22
2,40,0,1
2,42,127,0
2,42,0,1
2,42,127,23
2,42,0,1
2,40,71,10
2,40,0,1
2,49,127,9
2,36,121,0
2,49,0,8
2,36,0,0
2,42,127,20
2,42,0,1
2,42,127,23
2,42,0,1
2,40,115,0
2,40,0,1
2,42,124,22
2,42,0,1
2,42,127,23
2,42,0,1
2,36,113,0
2,36,0,1
2,42,114,22
2,42,0,1
2,40,127,23
2,42,127,0
2,40,0,1
2,42,0,0
2,40,98,23
2,40,0,1
2,40,100,10
2,40,0,1
2,36,119,9
2,49,121,0
2,36,0,7
2,49,0,0
2,42,127,20
2,42,0,1
2,42,127,25
2,40,110,0
2,42,0,1
2,40,0,0
2,42,115,23
2,42,0,1
2,36,116,23
2,36,0,1
2,42,121,0
2,42,0,1
2,42,127,21
2,42,0,1
2,42,124,24
2,42,0,1
2,40,110,0
2,40,0,1
2,42,122,22
2,42,0,1
2,40,71,8
2,40,0,1
2,36,120,12
2,49,121,0
2,36,0,4
2,49,0,0
2,42,127,20
2,42,0,1
2,42,127,25
2,40,110,0
2,42,0,1
2,40,0,0
2,42,115,23
2,42,0,1
2,36,116,23
2,36,0,1
2,42,121,0
2,42,0,1
2,42,127,21
2,42,0,1
2,42,124,24
2,42,0,1
2,40,110,0
2,40,0,1
2,46,122,22
2,46,0,1
2,36,104,24
2,36,0,1
2,41,61,0
2,41,0,1
2,42,83,44
2,48,71,0
2,42,0,12
2,48,0,2
2,42,92,14
2,48,71,1
2,42,0,16
2,48,0,3
2,42,92,28
2,48,70,1
2,42,0,17
2,48,0,3
2,42,94,25
2,48,68,1
2,42,0,10
2,48,0,1
2,48,73,14
2,42,92,0
2,42,0,12
2,48,0,6
2,42,92,26
2,48,73,1
2,42,0,9
2,48,0,2
2,42,90,15
2,48,71,1
2,42,0,13
2,48,0,3
2,42,95,30
2,48,70,0
2,42,0,16
2,48,0,2
2,41,83,28
2,41,0,12
2,42,100,15
2,48,73,1
2,42,0,18
2,48,0,2
2,42,92,26
2,48,72,0
2,42,0,10
2,48,0,3
2,42,92,14
2,48,70,0
2,42,0,14
2,48,0,5
2,42,108,28
2,48,71,0
2,42,0,18
2,48,0,3
2,42,100,22
2,48,73,1
2,42,0,9
2,48,0,2
2,48,72,17
2,48,0,1
2,42,102,0
2,42,0,1
2,42,102,43
2,48,71,0
2,42,0,1
2,48,0,0
2,48,73,24
2,48,0,1
2,42,100,0
2,42,0,1
2,48,72,46
2,42,116,0
2,48,0,1
2,42,0,0
2,49,127,42
2,49,0,1
2,36,120,0
2,36,0,1
2,49,127,27
2,40,118,0
2,36,112,0
2,49,0,1
2,40,0,0
2,36,0,0
2,40,118,48
2,48,127,0
2,36,108,0
2,40,0,1
2,48,0,0
2,36,0,0
2,40,118,25
2,36,112,0
2,40,0,1
2,36,0,0
2,48,127,0
2,48,0,1
2,43,122,44
2,36,107,0
2,43,0,1
2,36,0,0
2,40,118,0
2,40,0,1
2,36,109,44
2,36,0,1
2,40,122,0
2,40,0,1
2,43,94,0
2,43,0,1
2,40,125,25
2,36,115,0
2,49,127,0
2,40,0,1
2,36,0,0
2,49,0,0
2,36,114,45
2,40,122,0
2,48,127,0
2,36,0,1
2,40,0,0
2,48,0,0
2,40,120,24
2,36,112,0
2,40,0,1
2,36,0,0
2,48,127,0
2,48,0,1
2,36,112,44
2,40,118,0
2,36,0,1
2,40,0,0
2,43,115,0
2,43,0,1
2,36,114,44
2,36,0,1
2,43,114,0
2,40,118,0
2,43,0,1
2,40,0,0
2,49,127,24
2,40,118,0
2,36,112,0
2,49,0,1
2,40,0,0
2,36,0,0
2,40,118,48
2,48,127,0
2,36,108,0
2,40,0,1
2,48,0,0
2,36,0,0
2,40,118,25
2,36,112,0
2,40,0,1
2,36,0,0
2,48,127,0
2,48,0,1
2,43,122,44
2,36,107,0
2,43,0,1
2,36,0,0
2,40,118,0
2,40,0,1
2,36,109,44
2,36,0,1
2,40,122,0
2,40,0,1
2,43,94,0
2,43,0,1
2,49,127,22
2,40,122,0
2,36,115,0
2,49,0,1
2,40,0,0
2,36,0,0
2,36,112,45
2,48,127,0
2,36,0,1
2,48,0,0
2,40,127,38
2,40,0,1
2,40,126,13
2,40,0,1
2,40,95,10
2,40,0,1
2,40,101,9
2,40,0,1
2,40,101,10
2,40,0,1
2,47,121,11
2,47,0,1
2,47,88,4
2,47,0,1
2,47,102,8
2,47,0,1
2,47,104,11
2,47,0,1
2,47,115,10
2,47,0,1
2,49,119,11
2,36,119,0
2,49,0,1
2,36,0,0
2,42,120,20
2,42,0,1
2,42,127,23
2,40,121,0
2,42,0,1
2,40,0,0
2,42,118,22
2,42,0,1
2,36,119,24
2,42,127,0
2,36,0,1
2,42,0,0
2,42,120,22
2,42,0,1
2,36,88,0
2,36,0,1
2,40,127,21
2,40,0,1
2,42,127,0
2,42,0,1
2,42,127,22
2,42,0,1
2,36,121,23
2,42,121,0
2,36,0,6
2,42,0,2
2,42,127,18
2,42,0,1
2,42,127,23
2,42,0,1
2,40,115,0
2,40,0,1
2,42,124,22
2,42,0,1
2,42,127,23
2,42,0,1
2,36,113,0
2,36,0,1
2,42,114,22
2,42,0,1
2,40,127,23
2,42,127,0
2,40,0,1
2,42,0,0
2,40,121,23
2,40,0,1
2,40,121,10
2,40,0,1
2,36,119,9
2,49,121,0
2,36,0,7
2,49,0,0
2,42,127,20
2,42,0,1
2,42,127,25
2,40,110,0
2,42,0,1
2,40,0,0
2,42,115,23
2,42,0,1
2,36,116,23
2,36,0,1
2,42,121,0
2,42,0,1
2,42,127,21
2,42,0,1
2,36,98,0
2,36,0,1
2,42,124,23
2,42,0,1
2,40,110,0
2,40,0,1
2,42,110,22
2,42,0,1
2,36,120,22
2,42,121,0
2,42,0,3
2,36,0,0
2,42,127,20
2,42,0,1
2,42,127,25
2,40,110,0
2,42,0,1
2,40,0,0
2,42,115,23
2,42,0,1
2,36,116,23
2,36,0,1
2,42,121,0
2,42,0,1
2,42,127,21
2,42,0,1
2,42,124,24
2,42,0,1
2,40,110,0
2,40,0,1
2,46,122,22
2,46,0,1
2,49,119,24
2,36,119,0
2,49,0,1
2,36,0,0
2,42,120,20
2,42,0,1
2,42,127,23
2,40,121,0
2,42,0,1
2,40,0,0
2,42,118,22
2,42,0,1
2,36,119,24
2,42,127,0
2,36,0,1
2,42,0,0
2,42,120,22
2,42,0,1
2,36,98,0
2,36,0,1
2,40,127,21
2,40,0,1
2,42,127,0
2,42,0,1
2,42,127,23
2,42,0,1
2,42,127,23
2,36,121,0
2,42,0,5
2,36,0,0
2,42,127,20
2,42,0,1
2,42,127,23
2,42,0,1
2,40,115,0
2,40,0,1
2,42,124,22
2,42,0,1
2,42,127,23
2,42,0,1
2,36,113,0
2,36,0,1
2,42,114,22
2,42,0,1
2,40,127,23
2,42,127,0
2,40,0,1
2,42,0,0
2,40,121,23
2,40,0,1
2,40,121,10
2,40,0,1
2,36,119,9
2,49,121,0
2,36,0,7
2,49,0,0
2,42,127,20
2,42,0,1
2,42,127,25
2,40,110,0
2,42,0,1
2,40,0,0
2,42,115,23
2,42,0,1
2,36,116,23
2,36,0,1
2,42,121,0
2,42,0,1
2,42,127,21
2,42,0,1
2,36,101,0
2,36,0,1
2,42,124,23
2,42,0,1
2,40,110,0
2,40,0,1
2,42,110,22
2,42,0,1
2,36,120,22
2,42,121,0
2,36,0,3
2,42,0,0
2,42,127,20
2,42,0,1
2,42,127,25
2,40,110,0
2,42,0,1
2,40,0,0
2,42,115,23
2,42,0,1
2,36,116,23
2,36,0,1
2,42,121,0
2,42,0,1
2,42,127,21
2,42,0,1
2,42,124,24
2,42,0,1
2,40,110,0
2,40,0,1
2,46,122,23
2,46,0,1
2,40,122,23
2,42,122,0
2,40,0,1
2,42,0,0
2,36,119,23
2,49,127,0
2,36,0,1
2,49,0,0
2,49,127,1
2,36,109,0
2,49,0,1
2,36,0,0
2,49,127,47
2,36,127,0
2,49,0,1
2,36,0,0
2,40,127,49
2,40,0,2
2,36,127,26
2,36,0,1
2,49,127,0
2,49,0,1
2,36,127,1
2,49,127,0
2,36,0,1
2,49,0,0
2,49,127,49
2,49,0,1
2,36,127,0
2,36,0,1
2,40,127,49
2,40,0,1
2,36,127,24
2,36,0,1
2,49,127,0
2,49,0,1
2,49,127,1
2,36,127,0
2,49,0,1
2,36,0,0
2,46,127,47
2,46,0,1
2,36,127,1
2,36,0,1
2,42,127,46
2,36,127,1
2,42,0,1
2,36,0,0
2,42,115,24
2,42,0,1
2,40,127,20
2,40,0,1
2,42,127,2
2,42,0,1
2,42,118,24
2,42,0,1
2,36,127,20
2,36,0,1
2,42,127,0
2,42,0,1
2,36,127,20
2,36,0,1
2,42,127,1
2,42,0,1
2,42,127,22
2,40,127,0
2,42,0,1
2,40,0,0
2,36,92,49
2,40,104,0
2,45,107,0
2,36,0,1
2,40,0,0
2,45,0,0
2,41,108,68
2,36,89,0
2,40,95,0
2,41,0,1
2,36,0,0
2,40,0,0
2,43,107,48
2,40,107,0
2,43,0,1
2,40,0,0
2,36,78,0
2,36,0,1
2,43,114,45
2,43,0,1
2,36,92,0
2,40,104,0
2,36,0,1
2,40,0,0
2,36,95,23
2,40,115,0
2,45,114,1
2,36,0,2
2,40,0,0
2,45,0,0
2,40,112,71
2,41,114,0
2,36,95,0
2,40,0,1
2,41,0,0
2,36,0,0
2,36,84,47
2,40,101,0
2,41,104,0
2,36,0,1
2,40,0,0
2,41,0,0
2,40,114,22
2,36,94,0
2,45,109,0
2,40,0,1
2,36,0,0
2,45,0,0
2,45,127,48
2,36,108,0
2,40,125,0
2,45,0,1
2,36,0,0
2,40,0,0
2,40,115,71
2,36,98,0
2,41,120,0
2,40,0,1
2,36,0,0
2,41,0,0
2,40,127,48
2,43,125,0
2,40,0,1
2,43,0,0
2,36,104,0
2,36,0,1
2,43,114,45
2,40,114,0
2,43,0,1
2,40,0,0
2,36,85,0
2,36,0,1
2,45,127,22
2,40,127,0
2,36,109,0
2,45,0,1
2,40,0,0
2,36,0,0
2,40,125,70
2,41,127,0
2,40,0,1
2,41,0,0
2,36,102,0
2,36,0,1
2,41,104,43
2,40,107,0
2,36,94,0
2,41,0,1
2,40,0,0
2,36,0,0
2,40,104,22
2,40,0,1
2,36,115,0
2,45,127,0
2,36,0,1
2,45,0,0
2,36,127,45
2,49,127,0
2,36,0,1
2,49,0,0
2,49,85,11
2,49,0,1
2,36,127,0
2,36,0,1
2,36,127,27
2,36,0,1
2,49,127,0
2,49,0,1
2,49,127,1
2,36,127,0
2,49,0,5
2,36,0,0
2,36,118,10
2,36,0,1
2,49,114,0
2,49,0,1
2,36,127,25
2,36,0,1
2,49,127,0
2,49,0,1
2,49,127,1
2,36,127,0
2,49,0,3
2,36,0,0
2,49,74,9
2,49,0,1
2,36,114,0
2,36,0,1
2,36,127,29
2,49,127,0
2,36,0,1
2,49,0,0
2,36,127,1
2,49,127,0
2,36,0,3
2,49,0,0
2,36,127,11
2,49,125,0
2,36,0,1
2,49,0,0
2,49,127,25
2,36,110,0
2,49,0,1
2,36,0,0
2,40,112,111
2,40,0,1
2,40,94,10
2,40,0,1
