track,note,velocity,time
1,63,110,6
1,70,110,234
1,63,0,6
1,70,0,103
1,70,110,3
1,68,110,68
1,70,0,1
1,70,110,116
1,68,0,3
1,70,0,177
1,70,110,178
1,70,0,60
1,68,110,8
1,67,110,117
1,68,0,3
1,67,0,117
1,65,110,0
1,65,0,120
1,63,110,2
1,63,0,60
1,60,110,1
1,60,0,360
1,63,110,177
1,70,110,236
1,63,0,4
1,70,0,116
1,70,110,4
1,70,0,60
1,68,110,0
1,68,0,120
1,70,110,0
1,70,0,180
1,70,110,180
1,70,0,60
1,68,110,0
1,68,0,120
1,67,110,0
1,67,0,120
1,65,110,0
1,65,0,120
1,63,110,0
1,63,0,60
1,60,110,0
1,60,0,60
1,63,110,420
1,63,0,60
1,68,110,0
1,68,0,240
1,75,110,0
1,75,0,120
1,75,110,0
1,75,0,60
1,75,110,3
1,75,0,120
1,75,110,3
1,75,0,180
1,73,110,234
1,73,0,180
1,72,110,0
1,72,0,120
1,73,110,6
1,70,110,46
1,73,0,14
1,70,0,466
1,63,110,52
1,63,0,60
1,68,110,14
1,75,110,229
1,68,0,11
1,75,0,109
1,75,110,5
1,75,0,60
1,75,110,3
1,75,0,120
1,75,110,3
1,75,0,180
1,73,110,109
1,73,0,30
1,75,110,10
1,75,0,60
1,75,110,25
1,73,110,235
1,75,0,5
1,73,0,235
1,75,110,5
1,75,0,480
1,63,110,6
1,70,110,234
1,63,0,6
1,70,0,84
1,70,110,22
1,70,0,60
1,68,110,8
1,70,110,117
1,68,0,3
1,70,0,177
1,70,110,178
1,70,0,60
1,68,110,8
1,67,110,117
1,68,0,3
1,67,0,117
1,65,110,0
1,65,0,120
1,63,110,2
1,63,0,60
1,60,110,1
1,60,0,360
1,63,110,177
1,70,110,236
1,63,0,4
1,70,0,116
1,70,110,4
1,70,0,60
1,68,110,0
1,68,0,120
1,70,110,0
1,70,0,180
1,70,110,180
1,70,0,60
1,68,110,0
1,68,0,120
1,67,110,0
1,67,0,120
1,65,110,0
1,65,0,120
1,63,110,0
1,63,0,60
1,60,110,0
1,60,0,60
1,63,110,420
1,63,0,60
1,68,110,0
1,68,0,240
1,75,110,0
1,75,0,119
1,75,110,1
1,75,0,59
1,75,110,4
1,75,0,120
1,75,110,3
1,75,0,180
1,73,110,234
1,73,0,180
1,72,110,0
1,72,0,120
1,73,110,6
1,70,110,46
1,73,0,14
1,70,0,466
1,68,110,126
1,75,110,54
1,68,0,5
1,75,0,174
1,75,110,11
1,75,0,59
1,75,110,1
1,75,0,109
1,77,110,1
1,77,0,119
1,75,110,1
1,75,0,299
1,75,110,121
1,75,0,240
1,73,110,0
1,73,0,240
1,75,110,0
1,75,0,429
1,70,110,1
1,72,110,10
1,70,0,9
1,72,0,30
1,70,110,1
1,70,0,480
1,63,110,6
1,70,110,234
1,63,0,6
1,70,110,106
1,70,0,60
1,70,0,0
1,68,110,8
1,70,110,117
1,68,0,3
1,70,0,177
1,70,110,178
1,70,0,60
1,68,110,8
1,67,110,117
1,68,0,3
1,67,0,117
1,65,110,0
1,65,0,120
1,63,110,2
1,63,0,60
1,60,110,1
1,60,0,360
1,63,110,177
1,70,110,236
1,63,0,4
1,70,0,116
1,70,110,4
1,70,0,60
1,68,110,0
1,68,0,120
1,70,110,0
1,70,0,180
1,70,110,180
1,70,0,60
1,68,110,0
1,68,0,120
1,67,110,0
1,67,0,120
1,65,110,0
1,65,0,120
1,63,110,0
1,63,0,60
1,60,110,0
1,60,0,60
1,63,110,420
1,63,0,60
1,68,110,0
1,68,0,240
1,75,110,0
1,75,0,120
1,75,110,0
1,75,0,60
1,75,110,3
1,75,0,120
1,75,110,3
1,75,0,180
1,73,110,234
1,73,0,180
1,72,110,0
1,72,0,120
1,73,110,6
1,70,110,46
1,73,0,14
1,70,0,466
1,63,110,52
1,63,0,60
1,68,110,14
1,75,110,229
1,68,0,11
1,75,0,109
1,75,110,5
1,75,0,60
1,75,110,3
1,75,0,120
1,75,110,3
1,75,0,180
1,73,110,109
1,73,0,30
1,75,110,10
1,75,0,60
1,75,110,25
1,73,110,235
1,75,0,5
1,73,0,235
1,75,110,5
1,75,0,240
1,73,110,120
1,73,0,30
1,75,110,3
1,75,0,60
1,75,110,27
1,75,0,209
1,76,110,1
1,76,0,19
1,75,110,1
1,73,110,5
1,75,0,14
1,73,0,226
1,75,110,5
1,75,0,240
1,73,110,0
1,73,0,240
1,75,110,0
1,73,110,112
1,75,0,8
1,73,0,112
1,71,110,9
1,71,0,480
1,63,110,111
1,63,0,30
1,63,110,9
1,70,110,89
1,63,0,1
1,70,0,1088
2,63,100,50
2,63,0,60
2,68,100,0
2,68,0,240
2,75,100,5
2,75,0,99
2,75,100,16
2,75,0,60
2,75,100,13
2,75,0,89
2,75,100,18
2,75,0,180
2,73,100,125
2,73,0,30
2,75,100,10
2,75,0,60
2,75,100,15
2,75,0,240
2,73,100,0
2,75,100,230
2,73,0,10
2,75,0,470
2,68,100,120
2,75,100,70
2,68,0,9
2,75,0,140
2,75,100,11
2,75,0,60
2,75,100,10
2,77,100,100
2,75,0,9
2,75,100,121
2,77,0,19
2,75,0,250
2,75,100,151
2,75,0,240
2,73,100,0
2,75,100,230
2,73,0,10
2,70,100,440
2,72,100,10
2,70,0,9
2,75,0,11
2,72,0,19
2,70,100,1
2,70,0,480
2,63,100,50
2,63,0,60
2,68,100,0
2,68,0,240
2,75,100,5
2,75,0,99
2,75,100,16
2,75,0,60
2,75,100,13
2,75,0,89
2,75,100,18
2,75,0,180
2,73,100,125
2,73,0,30
2,75,100,10
2,75,0,60
2,75,100,15
2,75,0,240
2,73,100,0
2,75,100,230
2,73,0,10
2,75,0,329
2,73,100,41
2,73,0,30
2,75,100,3
2,75,0,60
2,75,100,27
2,75,0,209
2,76,100,1
2,76,0,19
2,75,100,1
2,73,100,10
2,75,0,9
2,75,100,221
2,73,0,10
2,75,0,230
2,73,100,0
2,73,0,240
2,75,100,10
2,75,0,120
2,73,100,0
2,71,100,110
2,73,0,10
2,71,0,470
2,63,100,122
2,63,0,30
2,63,100,9
2,70,100,79
2,63,0,11
2,70,0,1088
3,58,100,0
3,53,100,0
3,63,100,0
3,54,100,0
3,54,0,480
3,58,0,0
3,53,0,0
3,63,0,0
3,63,100,62
3,65,100,13
3,63,0,2
3,65,0,13
3,66,100,1
3,70,100,14
3,66,0,1
3,70,0,14
3,75,100,0
3,75,0,15
3,77,100,2
3,77,0,15
3,78,100,0
3,82,100,14
3,78,0,1
3,82,0,14
3,87,100,1
3,89,100,11
3,87,0,4
3,89,0,11
3,90,100,2
3,94,100,12
3,90,0,3
3,94,0,12
3,99,100,3
3,99,0,15
3,101,100,1
3,102,100,12
3,101,0,3
3,106,100,11
3,102,0,1
3,106,0,14
3,99,100,4
3,99,0,15
3,101,100,4
3,102,100,13
3,101,0,2
3,102,0,13
3,106,100,0
3,99,100,9
3,106,0,6
3,99,0,9
3,101,100,4
3,101,0,15
3,102,100,0
3,102,0,15
3,106,100,2
3,99,100,13
3,106,0,2
3,101,100,12
3,99,0,1
3,101,0,14
3,102,100,3
3,102,0,15
3,106,100,2
3,103,100,10
3,96,100,0
3,106,0,5
3,96,0,115
3,103,0,0
3,96,100,360
3,103,100,0
3,99,100,13
3,103,0,2
3,96,0,0
3,98,100,12
3,99,0,1
3,98,0,14
3,96,100,1
3,89,100,14
3,96,0,1
3,96,100,2
3,89,0,12
3,96,0,3
3,92,100,0
3,92,0,15
3,91,100,2
3,91,0,15
3,89,100,0
3,84,100,11
3,91,100,0
3,89,0,4
3,91,0,11
3,84,0,0
3,87,100,2
3,87,0,15
3,86,100,0
3,86,0,15
3,84,100,0
3,77,100,13
3,84,0,2
3,84,100,0
3,77,0,13
3,84,0,2
3,80,100,0
3,80,0,15
3,79,100,0
3,77,100,13
3,79,0,2
3,77,0,13
3,72,100,0
3,79,100,0
3,79,0,15
3,72,0,0
3,75,100,3
3,74,100,14
3,75,0,1
3,74,0,14
3,72,100,0
3,65,100,13
3,72,0,2
3,72,100,0
3,65,0,13
3,68,100,0
3,72,0,2
3,68,0,13
3,67,100,2
3,65,100,13
3,67,0,2
3,65,0,13
3,67,100,0
3,60,100,2
3,67,0,13
3,63,100,0
3,60,0,2
3,63,0,13
3,62,100,2
3,62,0,15
3,60,100,0
3,60,0,15
3,54,100,60
3,53,100,0
3,58,100,0
3,63,100,0
3,63,0,480
3,54,0,0
3,53,0,0
3,58,0,0
3,63,100,62
3,65,100,13
3,63,0,2
3,65,0,13
3,66,100,1
3,70,100,14
3,66,0,1
3,70,0,14
3,75,100,0
3,75,0,15
3,77,100,2
3,77,0,15
3,78,100,0
3,82,100,14
3,78,0,1
3,82,0,14
3,87,100,1
3,89,100,11
3,87,0,4
3,89,0,11
3,90,100,2
3,94,100,12
3,90,0,3
3,94,0,12
3,99,100,3
3,99,0,15
3,101,100,1
3,102,100,12
3,101,0,3
3,106,100,11
3,102,0,1
3,106,0,14
3,99,100,4
3,99,0,15
3,101,100,4
3,102,100,13
3,101,0,2
3,102,0,13
3,106,100,0
3,99,100,9
3,106,0,6
3,99,0,9
3,101,100,4
3,101,0,15
3,102,100,0
3,102,0,15
3,106,100,2
3,99,100,13
3,106,0,2
3,101,100,12
3,99,0,1
3,101,0,14
3,102,100,3
3,102,0,15
3,106,100,2
3,103,100,10
3,96,100,0
3,106,0,5
3,96,0,115
3,103,0,0
3,96,100,360
3,103,100,0
3,99,100,13
3,103,0,2
3,96,0,0
3,98,100,12
3,99,0,1
3,98,0,14
3,96,100,1
3,89,100,14
3,96,0,1
3,96,100,2
3,89,0,12
3,96,0,3
3,92,100,0
3,92,0,15
3,91,100,2
3,91,0,15
3,89,100,0
3,84,100,11
3,91,100,0
3,89,0,4
3,91,0,11
3,84,0,0
3,87,100,2
3,87,0,15
3,86,100,0
3,86,0,15
3,84,100,0
3,77,100,13
3,84,0,2
3,84,100,0
3,77,0,13
3,84,0,2
3,80,100,0
3,80,0,15
3,79,100,0
3,77,100,13
3,79,0,2
3,77,0,13
3,72,100,0
3,79,100,0
3,79,0,15
3,72,0,0
3,75,100,3
3,74,100,14
3,75,0,1
3,74,0,14
3,72,100,0
3,65,100,13
3,72,0,2
3,72,100,0
3,65,0,13
3,68,100,0
3,72,0,2
3,68,0,13
3,67,100,2
3,65,100,13
3,67,0,2
3,65,0,13
3,67,100,0
3,60,100,2
3,67,0,13
3,63,100,0
3,60,0,2
3,63,0,13
3,62,100,2
3,62,0,15
3,60,100,0
3,60,0,15
3,63,100,240
3,68,100,60
3,70,100,60
3,75,100,60
3,75,0,120
3,63,0,0
3,68,0,0
3,70,0,0
3,87,100,60
3,80,100,0
3,73,100,0
3,73,0,60
3,80,0,0
3,87,0,0
3,68,100,27
3,82,100,3
3,75,100,0
3,63,100,85
3,68,0,2
3,82,0,3
3,75,0,0
3,78,100,0
3,70,100,0
3,63,0,85
3,70,0,5
3,78,0,0
3,75,100,0
3,68,100,0
3,61,100,0
3,61,0,150
3,68,0,0
3,75,0,0
3,58,100,0
3,61,100,0
3,65,100,0
3,66,100,0
3,66,0,960
3,58,0,0
3,61,0,0
3,65,0,0
3,63,100,180
3,68,100,60
3,70,100,60
3,75,100,60
3,75,0,120
3,63,0,0
3,68,0,0
3,70,0,0
3,63,100,30
3,63,0,30
3,68,100,0
3,70,100,0
3,75,100,0
3,75,0,60
3,70,0,0
3,68,0,0
3,63,100,0
3,63,0,30
3,68,100,0
3,75,100,0
3,70,100,1
3,63,100,57
3,75,0,2
3,68,0,0
3,70,0,1
3,63,0,27
3,70,100,2
3,68,100,1
3,75,100,4
3,70,0,55
3,68,0,1
3,63,100,2
3,75,0,2
3,75,100,26
3,70,100,0
3,63,0,2
3,68,100,0
3,71,100,147
3,66,100,0
3,61,100,0
3,70,0,1
3,75,0,0
3,75,100,0
3,68,0,2
3,68,100,232
3,77,100,3
3,61,0,2
3,71,0,0
3,66,0,0
3,63,100,0
3,75,0,1
3,73,100,0
3,68,0,234
3,77,0,3
3,63,0,2
3,68,100,0
3,79,100,0
3,82,100,0
3,75,100,0
3,73,0,1
3,82,0,479
3,68,0,0
3,79,0,0
3,75,0,0
3,58,100,0
3,53,100,0
3,63,100,0
3,54,100,0
3,54,0,480
3,58,0,0
3,53,0,0
3,63,0,0
3,63,100,62
3,65,100,13
3,63,0,2
3,65,0,13
3,66,100,1
3,70,100,14
3,66,0,1
3,70,0,14
3,75,100,0
3,75,0,15
3,77,100,2
3,77,0,15
3,78,100,0
3,82,100,14
3,78,0,1
3,82,0,14
3,87,100,1
3,89,100,11
3,87,0,4
3,89,0,11
3,90,100,2
3,94,100,12
3,90,0,3
3,94,0,12
3,99,100,3
3,99,0,15
3,101,100,1
3,102,100,12
3,101,0,3
3,106,100,11
3,102,0,1
3,106,0,14
3,99,100,4
3,99,0,15
3,101,100,4
3,102,100,13
3,101,0,2
3,102,0,13
3,106,100,0
3,99,100,9
3,106,0,6
3,99,0,9
3,101,100,4
3,101,0,15
3,102,100,0
3,102,0,15
3,106,100,2
3,99,100,13
3,106,0,2
3,101,100,12
3,99,0,1
3,101,0,14
3,102,100,3
3,102,0,15
3,106,100,2
3,103,100,10
3,96,100,0
3,106,0,5
3,96,0,115
3,103,0,0
3,96,100,360
3,103,100,0
3,99,100,13
3,103,0,2
3,96,0,0
3,98,100,12
3,99,0,1
3,98,0,14
3,96,100,1
3,89,100,14
3,96,0,1
3,96,100,2
3,89,0,12
3,96,0,3
3,92,100,0
3,92,0,15
3,91,100,2
3,91,0,15
3,89,100,0
3,84,100,11
3,91,100,0
3,89,0,4
3,91,0,11
3,84,0,0
3,87,100,2
3,87,0,15
3,86,100,0
3,86,0,15
3,84,100,0
3,77,100,13
3,84,0,2
3,84,100,0
3,77,0,13
3,84,0,2
3,80,100,0
3,80,0,15
3,79,100,0
3,77,100,13
3,79,0,2
3,77,0,13
3,72,100,0
3,79,100,0
3,79,0,15
3,72,0,0
3,75,100,3
3,74,100,14
3,75,0,1
3,74,0,14
3,72,100,0
3,65,100,13
3,72,0,2
3,72,100,0
3,65,0,13
3,68,100,0
3,72,0,2
3,68,0,13
3,67,100,2
3,65,100,13
3,67,0,2
3,65,0,13
3,67,100,0
3,60,100,2
3,67,0,13
3,63,100,0
3,60,0,2
3,63,0,13
3,62,100,2
3,62,0,15
3,60,100,0
3,60,0,15
3,54,100,60
3,53,100,0
3,58,100,0
3,63,100,0
3,63,0,480
3,54,0,0
3,53,0,0
3,58,0,0
3,63,100,62
3,65,100,13
3,63,0,2
3,65,0,13
3,66,100,1
3,70,100,14
3,66,0,1
3,70,0,14
3,75,100,0
3,75,0,15
3,77,100,2
3,77,0,15
3,78,100,0
3,82,100,14
3,78,0,1
3,82,0,14
3,87,100,1
3,89,100,11
3,87,0,4
3,89,0,11
3,90,100,2
3,94,100,12
3,90,0,3
3,94,0,12
3,99,100,3
3,99,0,15
3,101,100,1
3,102,100,12
3,101,0,3
3,106,100,11
3,102,0,1
3,106,0,14
3,99,100,4
3,99,0,15
3,101,100,4
3,102,100,13
3,101,0,2
3,102,0,13
3,106,100,0
3,99,100,9
3,106,0,6
3,99,0,9
3,101,100,4
3,101,0,15
3,102,100,0
3,102,0,15
3,106,100,2
3,99,100,13
3,106,0,2
3,101,100,12
3,99,0,1
3,101,0,14
3,102,100,3
3,102,0,15
3,106,100,2
3,103,100,10
3,96,100,0
3,106,0,5
3,96,0,115
3,103,0,0
3,96,100,360
3,103,100,0
3,99,100,13
3,103,0,2
3,96,0,0
3,98,100,12
3,99,0,1
3,98,0,14
3,96,100,1
3,89,100,14
3,96,0,1
3,96,100,2
3,89,0,12
3,96,0,3
3,92,100,0
3,92,0,15
3,91,100,2
3,91,0,15
3,89,100,0
3,84,100,11
3,91,100,0
3,89,0,4
3,91,0,11
3,84,0,0
3,87,100,2
3,87,0,15
3,86,100,0
3,86,0,15
3,84,100,0
3,77,100,13
