track,note,velocity,time
1,32,127,436
1,44,127,0
1,34,127,20
1,46,127,0
1,35,127,20
1,47,127,0
1,37,127,20
1,49,127,0
1,39,127,20
1,51,127,0
1,40,127,20
1,52,127,0
1,35,127,20
1,47,127,0
1,40,127,20
1,52,127,0
1,41,127,20
1,53,127,0
1,42,127,20
1,54,127,0
1,38,127,20
1,50,127,0
1,33,127,20
1,45,127,0
1,37,127,20
1,49,127,0
1,32,127,20
1,32,127,20
1,32,127,20
1,44,127,20
1,32,127,0
1,49,127,20
1,37,127,0
1,56,127,50
1,44,127,0
1,46,127,576
1,34,127,0
1,51,127,138
1,39,127,0
1,51,127,70
1,39,127,0
1,56,127,52
1,44,127,0
1,44,127,52
1,32,127,0
1,50,127,0
1,38,127,0
1,44,127,192
1,32,127,0
1,49,127,0
1,37,127,0
1,47,127,24
1,35,127,0
1,41,127,36
1,29,127,0
1,47,127,46
1,35,127,0
1,46,127,46
1,34,127,0
1,41,127,46
1,29,127,0
1,40,127,46
1,28,127,0
1,45,127,46
1,33,127,0
1,46,127,46
1,34,127,0
1,39,127,46
1,27,127,0
1,44,127,46
1,32,127,0
1,49,127,46
1,37,127,0
1,56,127,50
1,44,127,0
1,46,127,576
1,34,127,0
1,51,127,138
1,39,127,0
1,51,127,70
1,39,127,0
1,56,127,52
1,44,127,0
1,32,127,52
1,44,127,0
1,34,127,32
1,46,127,0
1,35,127,32
1,47,127,0
1,37,127,32
1,49,127,0
1,39,127,32
1,51,127,0
1,40,127,32
1,52,127,0
1,35,127,32
1,47,127,0
1,40,127,32
1,52,127,0
1,41,127,32
1,53,127,0
1,42,127,32
1,54,127,0
1,38,127,32
1,50,127,0
1,33,127,32
1,45,127,0
1,37,127,32
1,49,127,0
1,32,127,32
1,32,127,32
1,32,127,32
1,32,127,32
1,32,127,0
1,49,127,32
1,37,127,0
1,56,127,50
1,44,127,0
1,46,127,576
1,34,127,0
1,51,127,138
1,39,127,0
1,51,127,70
1,39,127,0
1,56,127,52
1,44,127,0
1,44,127,52
1,32,127,0
1,50,127,0
1,38,127,0
1,44,127,192
1,32,127,0
1,49,127,0
1,37,127,0
1,47,127,24
1,35,127,0
1,41,127,36
1,29,127,0
1,47,127,32
1,35,127,0
1,46,127,32
1,34,127,0
1,41,127,32
1,29,127,0
1,40,127,32
1,28,127,0
1,45,127,32
1,33,127,0
1,46,127,32
1,34,127,0
1,39,127,32
1,27,127,0
1,44,127,32
1,32,127,0
1,49,127,32
1,37,127,0
1,56,127,50
1,44,127,0
1,46,127,576
1,34,127,0
1,51,127,138
1,39,127,0
1,51,127,70
1,39,127,0
1,56,127,52
1,44,127,0
1,54,127,192
1,42,127,0
1,53,127,0
1,41,127,0
1,53,127,96
1,41,127,0
1,51,127,0
1,39,127,0
1,50,127,0
1,38,127,0
1,92,108,3360
1,90,108,0
1,92,108,40
1,90,108,0
1,92,108,40
1,90,108,0
1,92,108,122
1,90,108,0
1,92,108,40
1,90,108,0
1,92,108,40
1,90,108,0
1,92,108,128
1,90,108,0
1,92,108,40
1,90,108,0
1,92,108,40
1,90,108,0
1,92,108,128
1,90,108,0
1,92,108,40
1,90,108,0
1,92,108,40
1,90,108,0
1,92,108,136
1,90,108,0
1,92,108,40
1,90,108,0
1,92,108,40
1,90,108,0
1,92,108,328
1,90,108,0
1,92,108,40
1,90,108,0
1,92,108,40
1,90,108,0
1,92,108,122
1,90,108,0
1,92,108,40
1,90,108,0
1,92,108,40
1,90,108,0
1,92,108,128
1,90,108,0
1,92,108,40
1,90,108,0
1,92,108,40
1,90,108,0
1,92,108,128
1,90,108,0
1,92,108,40
1,90,108,0
1,92,108,40
1,90,108,0
1,92,108,136
1,90,108,0
1,92,108,40
1,90,108,0
1,92,108,40
1,90,108,0
1,92,108,328
1,90,108,0
1,92,108,40
1,90,108,0
1,92,108,40
1,90,108,0
1,92,108,122
1,90,108,0
1,92,108,40
1,90,108,0
1,92,108,40
1,90,108,0
1,92,108,122
1,90,108,0
1,92,108,40
1,90,108,0
1,92,108,40
1,90,108,0
1,92,108,122
1,90,108,0
1,92,108,40
1,90,108,0
1,92,108,40
1,90,108,0
1,92,108,128
1,90,108,0
1,92,108,40
1,90,108,0
1,92,108,40
1,90,108,0
1,56,124,53320
1,44,124,0
1,54,122,192
1,42,122,0
1,53,122,0
1,41,122,0
1,53,122,96
1,41,122,0
1,51,122,0
1,39,122,0
1,50,122,0
1,38,122,0
1,92,103,3360
1,90,103,0
1,92,103,40
1,90,103,0
1,92,103,40
1,90,103,0
1,92,103,122
1,90,103,0
1,92,103,40
1,90,103,0
1,92,103,40
1,90,103,0
1,92,103,128
1,90,103,0
1,92,103,40
1,90,103,0
1,92,103,40
1,90,103,0
1,92,102,128
1,90,102,0
1,92,102,40
1,90,102,0
1,92,102,40
1,90,102,0
1,92,102,136
1,90,102,0
1,92,102,40
1,90,102,0
1,92,102,40
1,90,102,0
1,92,103,328
1,90,103,0
1,92,103,40
1,90,103,0
1,92,103,40
1,90,103,0
1,92,103,122
1,90,103,0
1,92,103,40
1,90,103,0
1,92,103,40
1,90,103,0
1,92,103,128
1,90,103,0
1,92,103,40
1,90,103,0
1,92,103,40
1,90,103,0
1,92,102,128
1,90,102,0
1,92,102,40
1,90,102,0
1,92,102,40
1,90,102,0
1,92,102,136
1,90,102,0
1,92,102,40
1,90,102,0
1,92,102,40
1,90,102,0
1,56,124,65800
1,44,124,0
1,54,122,192
1,42,122,0
1,53,122,0
1,41,122,0
1,53,122,96
1,41,122,0
1,51,122,0
1,39,122,0
1,50,122,0
1,38,122,0
1,80,32,238544
2,52,6,1356
2,71,122,180
2,76,122,114
2,81,122,0
2,76,122,130
2,78,122,126
2,71,122,110
2,73,122,126
2,76,122,102
2,69,122,114
2,71,122,112
2,73,122,110
2,64,122,102
2,66,122,16
2,68,122,132
2,73,122,124
2,72,122,106
2,70,122,106
2,68,122,122
2,70,122,8
2,66,122,28
2,68,122,104
2,84,122,1476
2,85,122,48
2,84,122,88
2,82,122,12
2,80,122,122
2,78,122,138
2,73,122,272
2,84,122,166
2,85,122,36
2,84,122,114
2,82,122,112
2,80,122,102
2,78,122,2
2,73,122,240
2,77,122,256
2,78,122,0
2,77,122,128
2,73,122,124
2,70,122,118
2,75,122,8
2,75,122,280
2,82,122,128
2,82,122,276
2,87,122,14
2,87,122,254
2,84,122,146
2,82,122,46
2,80,122,92
2,79,122,114
2,82,122,2
2,77,122,12
2,79,122,0
2,77,122,96
2,74,122,92
2,75,122,16
2,70,122,6
2,75,122,208
2,70,122,16
2,75,122,132
2,70,122,132
2,75,122,20
2,73,122,120
2,70,122,124
2,68,122,128
2,69,122,60
2,68,122,90
2,66,122,10
2,68,122,102
2,66,122,18
2,65,122,128
2,70,122,62
2,70,122,44
2,72,122,16
2,73,122,8
2,72,122,256
2,73,122,126
2,72,122,248
2,70,120,32
2,68,118,218
2,65,118,26
2,63,118,128
2,61,118,90
2,58,118,90
2,75,122,192
2,77,122,16
2,78,122,128
2,77,122,232
2,78,122,126
2,77,122,248
2,75,124,32
2,73,124,218
2,70,124,26
2,68,124,128
2,66,124,90
2,63,124,90
2,80,122,192
2,82,122,16
2,83,122,128
2,82,122,232
2,83,122,126
2,82,122,248
2,80,122,32
2,78,122,218
2,75,122,26
2,73,122,128
2,71,122,90
2,68,122,90
2,73,122,64
2,70,122,128
2,72,122,192
2,72,112,130752
2,75,112,298
2,80,112,232
2,78,112,338
2,73,112,198
2,72,112,12
2,70,112,96
2,72,112,132
2,75,112,270
2,80,112,24
2,78,112,348
2,73,112,104
2,72,112,56
2,70,112,108
2,68,112,150
2,68,112,122
2,65,112,260
2,68,112,156
2,70,112,176
2,75,112,186
2,72,112,100
2,70,112,66
2,68,112,88
2,68,112,134
2,65,112,240
2,68,112,134
2,68,112,726
2,68,112,108
2,65,112,252
2,68,112,110
2,70,112,178
2,75,112,34
2,72,112,20
2,70,112,14
2,68,112,0
2,68,112,132
2,63,112,76
2,65,112,4
2,56,112,14
3,80,124,4416
3,90,124,72
3,78,124,0
3,85,124,0
3,80,124,0
3,87,124,72
3,83,124,0
3,80,124,0
3,80,124,148
3,87,124,72
3,82,124,0
3,78,124,0
3,80,124,88
3,87,124,0
3,87,124,48
3,75,124,0
3,82,124,288
3,80,124,8
3,75,124,8
3,80,124,0
3,78,124,0
3,73,124,8
3,75,124,8
3,76,124,0
3,78,124,0
3,80,124,8
3,81,124,8
3,83,124,0
3,88,124,0
3,87,124,8
3,83,124,8
3,85,124,0
3,85,124,90
3,92,124,74
3,85,124,56
3,85,124,84
3,92,124,76
3,85,124,0
3,85,124,76
3,85,124,76
3,92,124,84
3,92,124,8
3,90,124,8
3,87,124,8
3,88,124,0
3,85,124,0
3,83,124,8
3,81,124,8
3,73,124,8
3,85,124,0
3,76,124,0
3,78,124,0
3,71,124,102
3,87,124,0
3,78,124,0
3,80,124,0
3,69,124,0
3,88,124,0
3,80,124,0
3,81,124,0
3,68,124,24
3,89,124,0
3,81,124,0
3,83,124,0
3,90,91,102
3,85,91,0
3,81,87,0
3,88,107,168
3,83,95,0
3,92,91,0
3,85,87,210
3,90,99,0
3,93,87,0
3,92,76,218
3,87,87,0
3,95,73,0
3,73,114,244
3,80,114,0
3,85,114,192
3,80,114,178
3,71,114,154
3,83,114,0
3,75,114,190
3,80,114,182
3,83,114,4
3,71,114,4
3,70,114,188
3,82,114,0
3,74,114,174
3,75,114,182
3,79,114,0
3,75,114,230
3,79,114,0
3,71,114,210
3,80,114,0
3,77,114,366
3,80,114,0
3,85,114,20
3,80,114,192
3,75,114,16
3,83,114,0
3,75,114,18
3,80,114,192
3,71,114,16
3,83,114,0
3,70,114,192
3,82,114,0
3,74,114,166
3,75,114,24
3,79,114,0
3,75,114,220
3,79,114,0
3,71,114,200
3,80,114,0
3,92,103,356
3,90,103,0
3,92,103,40
3,90,103,0
3,92,103,40
3,90,103,0
3,92,103,122
3,90,103,0
3,92,103,40
3,90,103,0
3,92,103,40
3,90,103,0
3,92,103,150
3,90,103,0
3,92,103,40
3,90,103,0
3,92,103,40
3,90,103,0
3,92,102,136
3,90,102,0
3,92,102,40
3,90,102,0
3,92,102,40
3,90,102,0
3,92,102,144
3,90,102,0
3,92,102,40
3,90,102,0
3,92,102,40
3,90,102,0
3,80,114,336
3,85,114,20
3,80,114,192
3,83,114,16
3,75,114,18
3,80,114,192
3,83,114,16
3,82,114,192
3,74,114,166
3,79,114,24
3,79,114,262
3,80,114,242
3,92,103,356
3,90,103,0
3,92,103,40
3,90,103,0
3,92,103,40
3,90,103,0
3,92,103,128
3,90,103,0
3,92,103,40
3,90,103,0
3,92,103,40
3,90,103,0
3,92,103,128
3,90,103,0
3,92,103,40
3,90,103,0
3,92,103,40
3,90,103,0
3,92,102,136
3,90,102,0
3,92,102,40
3,90,102,0
3,92,102,40
3,90,102,0
3,92,102,136
3,90,102,0
3,92,102,40
3,90,102,0
3,92,102,40
3,90,102,0
3,80,114,328
3,85,114,20
3,80,114,192
3,83,114,16
3,75,114,18
3,80,114,192
3,83,114,16
3,82,114,192
3,74,114,166
3,79,114,24
3,79,114,262
3,80,114,242
3,92,103,356
3,90,103,0
3,92,103,40
3,90,103,0
3,92,103,40
3,90,103,0
3,92,103,122
3,90,103,0
3,92,103,40
3,90,103,0
3,92,103,40
3,90,103,0
3,92,103,128
3,90,103,0
3,92,103,40
3,90,103,0
3,92,103,40
3,90,103,0
3,92,102,128
3,90,102,0
3,92,102,40
3,90,102,0
3,92,102,40
3,90,102,0
3,92,102,136
3,90,102,0
3,92,102,40
3,90,102,0
3,92,102,40
3,90,102,0
3,80,114,328
3,85,114,20
3,80,114,192
3,83,114,16
3,75,114,18
3,80,114,192
3,83,114,16
3,82,114,192
3,74,114,166
3,79,114,24
3,79,114,262
3,80,114,242
3,92,103,356
3,90,103,0
3,92,103,40
3,90,103,0
3,92,103,40
3,90,103,0
3,92,103,122
3,90,103,0
3,92,103,40
3,90,103,0
3,92,103,40
3,90,103,0
3,92,103,122
3,90,103,0
3,92,103,40
3,90,103,0
3,92,103,40
3,90,103,0
3,92,102,122
3,90,102,0
3,92,102,40
3,90,102,0
3,92,102,40
3,90,102,0
3,92,102,128
3,90,102,0
3,92,102,40
3,90,102,0
3,92,102,40
3,90,102,0
3,80,114,328
3,85,114,20
3,80,114,192
3,83,114,16
3,75,114,18
3,80,114,192
3,83,114,16
3,82,114,192
3,74,114,166
3,79,114,24
3,79,114,262
3,80,118,242
3,78,118,192
3,80,118,0
3,77,118,0
3,80,118,0
3,77,118,96
3,80,118,0
3,75,118,0
3,80,118,0
3,74,118,0
3,80,118,0
3,80,82,96
3,71,82,0
3,75,79,372
3,71,111,130
3,70,87,340
3,80,84,8
3,75,68,410
3,70,107,166
3,69,82,180
3,75,82,194
3,80,73,6
3,69,87,124
3,80,57,4
3,75,99,8
3,73,114,204
3,80,114,0
3,85,114,192
3,80,114,94
3,75,114,8
3,83,114,0
3,75,114,54
3,80,114,156
3,83,114,164
3,82,114,144
3,74,114,140
3,79,114,70
3,75,114,0
3,70,114,202
3,79,114,0
3,71,114,198
3,80,114,0
3,80,114,266
3,75,114,0
3,73,114,12
3,85,114,0
3,80,115,172
3,75,115,42
3,83,115,0
3,75,115,36
3,80,115,136
3,83,115,184
3,82,115,166
3,74,115,134
3,82,115,94
3,70,115,0
3,79,115,0
3,70,115,206
3,87,115,0
3,79,115,0
3,71,115,200
3,83,115,0
3,80,115,0
3,73,114,276
3,80,114,0
3,85,114,192
3,80,114,94
3,75,114,8
3,83,114,0
3,75,114,54
3,80,114,156
3,83,114,164
3,82,114,144
3,74,114,140
3,79,114,70
3,70,114,0
3,70,114,202
3,79,114,0
3,71,114,198
3,80,114,0
3,76,127,74
3,74,127,0
3,81,127,0
3,81,127,172
3,78,127,0
3,74,127,0
3,80,99,1092
3,83,99,0
3,87,107,0
3,92,95,192
3,87,79,164
3,82,95,50
3,91,87,0
3,89,81,396
3,88,76,8
3,86,75,12
3,84,73,16
3,83,71,16
3,81,70,4
3,79,68,6
3,77,67,12
3,76,65,12
3,74,63,4
3,72,61,2
3,71,60,16
3,69,57,18
3,67,54,20
3,65,51,22
3,64,47,24
3,62,45,16
3,60,42,18
3,59,40,8
3,57,37,14
3,80,120,2
3,68,102,2
3,68,102,84
3,80,102,4
3,68,102,58
3,80,102,4
3,71,102,12
3,68,102,74
3,80,102,6
3,80,102,50
3,73,102,10
3,80,102,114
3,68,102,4
3,80,102,168
3,73,102,4
3,74,102,228
3,73,102,34
3,68,102,12
3,80,102,8
3,80,102,78
3,73,102,4
3,68,102,82
3,70,102,76
3,71,102,30
3,80,102,4
3,80,102,88
3,68,102,8
3,56,64,274
3,92,104,20
3,58,64,0
3,86,104,8
3,83,104,50
3,59,64,8
3,85,112,0
3,61,64,0
3,79,112,16
3,61,64,4
3,79,87,8
3,80,112,20
3,58,64,16
3,60,87,176
3,61,64,0
3,74,112,12
3,80,76,154
3,75,112,6
3,59,64,0
3,71,112,12
3,59,64,0
3,80,84,18
3,56,64,20
3,74,112,2
3,59,9,28
3,71,112,14
3,58,64,28
3,73,112,2
3,80,87,10
3,55,64,20
3,70,112,0
3,71,112,22
3,51,64,12
3,80,79,8
3,80,95,36
3,71,112,8
3,47,64,2
3,78,113,40
3,80,105,96
3,78,106,62
3,80,97,94
3,83,113,306
3,85,101,88
3,83,105,74
3,85,105,84
3,76,101,160
3,78,93,166
3,86,98,144
3,83,109,190
3,84,108,20
3,85,108,94
3,86,97,74
3,92,91,112
3,85,106,152
3,78,103,10
3,80,103,0
3,85,103,6
3,86,88,30
3,85,88,74
3,83,91,10
3,80,89,38
3,85,103,8
3,80,100,2
3,78,95,170
3,73,111,36
3,70,100,30
3,79,103,2
3,75,103,0
3,73,98,588
3,75,85,162
3,80,77,146
3,78,80,138
3,75,78,74
3,73,93,44
3,71,98,38
3,68,105,196
3,66,85,62
