track,note,velocity,time
1,52,79,1152
1,57,79,0
1,59,79,48
1,60,79,0
1,62,79,0
1,64,79,448
1,65,79,0
1,64,79,0
1,57,79,0
1,52,79,960
1,57,79,0
1,59,79,0
1,60,79,704
1,62,79,0
1,60,79,576
1,59,79,0
1,64,79,3064
1,65,79,0
1,64,79,0
1,64,79,648
1,65,79,0
1,64,79,0
1,62,79,0
1,60,79,0
1,62,70,0
1,62,79,0
1,57,79,960
1,59,79,0
1,60,79,0
1,62,63,0
1,59,63,0
1,56,79,0
1,57,79,0
1,52,79,960
1,52,79,0
1,57,79,0
1,59,79,512
1,60,79,0
1,62,79,0
1,64,79,0
1,65,79,32
1,64,79,32
1,57,79,0
1,52,79,1776
1,57,79,0
1,59,79,160
1,60,79,0
1,62,79,0
1,60,79,320
1,59,79,8
1,59,79,0
1,64,79,3400
1,65,79,0
1,64,79,0
1,64,79,400
1,65,79,0
1,64,79,0
1,62,79,16
1,60,79,0
1,62,79,0
1,57,79,960
1,59,79,0
1,60,79,0
1,62,79,96
1,59,75,0
1,56,79,112
1,57,79,0
1,52,79,384
1,57,79,0
1,59,79,48
1,60,79,0
1,62,79,0
1,64,79,384
1,65,63,0
1,64,63,0
1,57,79,0
1,52,79,1392
1,57,79,0
1,59,79,232
1,60,79,0
1,62,79,0
1,60,79,624
1,59,79,0
1,59,79,0
1,64,79,3376
1,65,79,0
1,64,79,0
1,64,79,192
1,64,79,0
1,65,79,0
1,64,79,0
1,62,79,0
1,60,79,0
1,62,79,0
1,57,79,1200
1,59,79,0
1,60,79,0
1,62,79,192
1,59,79,0
1,56,79,112
1,57,79,0
1,57,79,0
2,83,70,90816
2,83,70,32
2,88,70,0
2,83,70,64
2,79,79,51968
2,79,79,26112
2,83,70,41664
2,88,70,192
3,45,111,79488
3,52,95,192
3,60,83,192
3,59,63,0
3,64,85,0
3,59,75,0
3,60,85,0
3,52,79,0
3,45,111,0
3,53,95,192
3,60,79,192
3,59,63,0
3,64,83,0
3,59,75,0
3,60,85,0
3,52,79,0
3,45,111,0
3,52,95,192
3,60,79,192
3,59,63,0
3,64,83,0
3,59,75,0
3,60,85,0
3,52,79,0
3,45,95,0
3,53,63,32
3,59,63,32
3,60,63,32
3,64,63,32
3,45,95,0
3,52,85,192
3,60,79,192
3,59,63,0
3,64,63,0
3,59,63,0
3,60,79,0
3,52,63,0
3,45,95,0
3,53,85,192
3,60,79,192
3,59,63,0
3,64,63,0
3,59,63,0
3,60,79,0
3,52,63,0
3,45,95,0
3,53,85,192
3,60,79,192
3,59,63,0
3,64,63,0
3,59,63,0
3,60,79,0
3,52,63,0
3,45,95,0
3,53,90,192
3,53,90,64
3,60,85,0
3,53,90,128
3,45,95,264
3,52,79,192
3,60,79,192
3,59,63,0
3,64,63,0
3,59,63,0
3,60,79,0
3,52,63,0
3,45,95,0
3,53,79,192
3,60,79,192
3,59,63,0
3,64,63,0
3,59,63,0
3,60,79,0
3,45,95,0
3,59,85,192
3,63,79,0
3,66,79,0
3,72,79,0
3,71,74,0
3,69,70,0
3,76,60,0
3,50,95,96
3,57,79,192
3,62,79,192
3,64,63,0
3,65,63,0
3,64,63,0
3,50,79,0
3,45,79,0
3,40,95,0
3,52,79,192
3,56,79,192
3,64,63,0
3,59,79,0
3,56,79,0
3,59,79,0
3,64,79,0
3,45,95,0
3,52,79,192
3,60,65,192
3,59,63,0
3,45,95,0
3,53,79,192
3,60,65,192
3,59,63,0
3,45,95,0
3,52,79,192
3,60,65,192
3,59,60,0
3,64,45,0
3,65,63,0
3,40,95,0
3,47,85,0
3,52,79,192
3,56,47,192
3,59,47,192
3,64,31,48
3,53,95,0
3,59,85,192
3,60,63,192
3,65,63,0
3,60,79,0
3,59,79,0
3,53,90,0
3,59,85,192
3,45,95,0
3,52,85,192
3,60,63,192
3,59,63,192
3,64,47,192
3,45,95,0
3,52,79,192
3,60,79,192
3,59,79,0
3,64,79,0
3,59,79,0
3,60,79,0
3,52,79,0
3,45,95,0
3,53,79,192
3,60,79,192
3,59,79,0
3,64,79,0
3,59,79,0
3,60,79,0
3,52,79,0
3,45,95,0
3,52,79,192
3,60,79,192
3,59,79,0
3,64,79,0
3,59,79,0
3,60,79,0
3,52,79,0
3,45,95,0
3,53,63,32
3,59,63,32
3,60,63,32
3,64,63,32
3,64,63,352
3,45,95,0
3,52,79,192
3,60,79,192
3,59,79,0
3,64,79,0
3,59,79,0
3,60,79,0
3,52,79,0
3,45,95,0
3,53,79,192
3,60,79,192
3,59,79,0
3,64,79,0
3,45,95,0
3,59,79,192
3,63,79,0
3,66,79,0
3,72,79,0
3,71,74,0
3,69,70,0
3,76,60,0
3,50,111,96
3,57,79,192
3,62,79,192
3,64,79,0
3,65,70,0
3,64,79,0
3,50,79,0
3,45,79,0
3,40,95,0
3,52,79,192
3,56,79,192
3,64,79,0
3,59,79,0
3,56,79,0
3,59,79,0
3,64,79,0
3,45,95,0
3,52,79,192
3,60,65,192
3,59,63,0
3,45,95,0
3,53,79,192
3,60,65,192
3,59,63,0
3,45,95,0
3,52,79,192
3,60,65,192
3,59,60,0
3,64,45,0
3,64,63,768
3,40,95,0
3,47,85,0
3,52,79,192
3,56,63,192
3,59,47,192
3,64,40,48
3,53,95,0
3,59,85,144
3,60,63,192
3,65,63,0
3,60,79,0
3,59,79,0
3,53,95,0
3,59,85,192
3,45,95,0
3,52,85,192
3,60,47,192
3,59,47,192
3,64,47,192
3,71,79,0
3,66,79,0
3,68,79,0
3,69,79,0
3,64,79,0
3,63,90,0
3,51,92,0
3,66,90,0
3,64,90,120
3,52,92,0
3,67,90,0
3,61,90,120
3,49,92,0
3,64,90,0
3,63,79,120
3,51,79,0
3,66,79,0
3,47,111,0
3,59,79,128
3,64,79,0
3,47,111,0
3,59,79,128
3,64,79,0
3,47,111,0
3,59,79,128
3,64,79,0
3,48,111,0
3,60,79,128
3,59,79,0
3,48,111,0
3,60,79,128
3,59,79,0
3,48,111,0
3,60,79,128
3,59,79,0
3,45,111,0
3,57,79,128
3,62,79,0
3,45,111,0
3,57,79,128
3,62,79,0
3,45,111,0
3,57,79,128
3,62,79,0
3,47,111,0
3,47,111,384
3,59,79,128
3,64,79,0
3,47,111,0
3,59,79,128
3,64,79,0
3,47,111,0
3,59,79,128
3,64,79,0
3,48,111,0
3,60,79,128
3,59,79,0
3,48,111,0
3,60,79,128
3,59,79,0
3,48,111,0
3,60,79,128
3,59,79,0
3,45,111,0
3,57,79,128
3,62,79,0
3,45,111,0
3,57,79,128
3,62,79,0
3,45,111,0
3,57,79,128
3,62,79,0
3,47,95,0
3,59,79,0
3,64,95,0
3,52,95,64
3,64,79,0
3,68,95,0
3,54,95,112
3,66,79,0
3,71,95,0
3,52,95,112
3,64,79,0
3,68,95,0
3,47,79,0
3,59,63,0
3,64,79,0
3,61,47,0
3,49,79,0
3,66,63,0
3,64,79,0
3,57,63,96
3,64,47,0
3,56,63,96
3,64,47,0
3,76,79,0
3,68,79,0
3,61,63,0
3,75,79,128
3,68,79,0
3,59,63,0
3,73,79,0
3,68,79,0
3,66,79,0
3,64,79,0
3,64,79,0
3,63,79,0
3,76,79,0
3,68,79,0
3,61,63,0
3,75,79,0
3,68,79,0
3,59,79,0
3,73,79,0
3,68,79,0
3,66,79,0
3,64,79,0
3,64,79,0
3,63,79,0
3,71,79,0
3,66,79,0
3,68,79,0
3,69,79,0
3,64,79,0
3,63,88,0
3,51,92,0
3,66,90,0
3,64,88,128
3,52,92,0
3,67,90,0
3,61,88,128
3,49,92,0
3,64,90,0
3,63,88,128
3,51,95,0
3,66,90,0
3,47,111,0
3,59,79,128
3,64,79,0
3,47,111,0
3,59,79,128
3,64,79,0
3,47,111,0
3,59,79,128
3,64,79,0
3,48,111,0
3,60,79,128
3,59,79,0
3,48,111,0
3,60,79,128
3,59,79,0
3,48,111,0
3,60,79,128
3,59,79,0
3,45,111,0
3,57,79,128
3,62,79,0
3,45,111,0
3,57,79,128
3,62,79,0
3,45,111,0
3,57,79,128
3,62,79,0
3,47,111,0
3,47,111,384
3,59,79,128
3,64,79,0
3,47,111,0
3,59,79,128
3,64,79,0
3,47,111,0
3,59,79,128
3,64,79,0
3,48,111,0
3,60,79,128
3,59,79,0
3,48,111,0
3,60,79,128
3,59,79,0
3,48,111,0
3,60,79,128
3,59,79,0
3,45,111,0
3,57,79,128
3,62,79,0
3,45,111,0
3,57,79,128
3,62,79,0
3,45,111,0
3,57,79,128
3,62,79,0
3,47,95,0
3,59,79,0
3,64,95,0
3,52,95,120
3,64,79,0
3,68,95,0
3,54,95,120
3,66,79,0
3,71,95,0
3,52,95,120
3,64,79,0
3,68,95,0
3,47,79,0
3,59,63,0
3,64,79,0
3,49,79,0
3,61,47,0
3,66,63,0
3,60,63,0
3,63,63,32
3,52,79,0
3,60,63,32
3,63,63,32
3,51,79,0
3,60,63,32
3,63,63,32
3,64,95,0
3,67,95,0
3,66,85,0
3,72,95,0
3,71,85,0
3,76,95,0
3,55,79,0
3,52,79,0
3,59,79,0
3,64,79,0
3,52,95,0
3,54,85,0
3,55,95,0
3,59,79,0
3,64,95,0
3,67,95,0
3,55,79,0
3,59,79,0
3,52,79,0
3,64,79,0
3,63,79,0
3,59,79,0
3,54,79,0
3,47,79,0
3,66,79,0
3,66,95,0
3,67,95,0
3,69,95,0
3,72,98,0
3,71,85,0
3,66,95,168
3,72,70,32
3,65,92,0
3,71,79,48
3,76,63,0
3,63,79,0
3,66,79,48
3,71,79,48
3,62,79,0
3,65,79,48
3,71,79,48
3,61,63,0
3,64,63,48
3,69,63,48
3,61,79,0
3,64,79,48
3,69,79,48
3,59,79,0
3,64,79,48
3,67,79,48
3,59,63,192
3,64,63,48
3,67,63,48
3,59,63,0
3,63,63,0
3,66,63,0
3,71,47,288
3,67,97,0
3,59,97,0
3,60,97,0
3,57,97,0
3,59,97,0
3,55,97,0
3,57,97,0
3,54,97,0
3,55,97,0
3,52,97,0
3,54,97,0
3,47,97,0
3,40,111,0
3,47,95,192
3,54,79,0
3,55,79,0
3,59,79,0
3,55,79,0
3,54,79,0
3,47,79,0
3,40,111,0
3,48,95,192
3,54,79,0
3,55,79,0
3,59,79,0
3,55,79,0
3,54,79,0
3,48,79,0
3,40,111,0
3,49,95,192
3,54,79,0
3,55,79,0
3,59,79,0
3,55,79,0
3,54,79,0
3,40,111,0
3,48,95,192
3,54,79,0
3,55,79,0
3,59,79,0
3,66,79,0
3,59,79,96
3,55,79,96
3,54,79,0
3,48,79,0
3,45,111,0
3,52,95,192
3,60,79,192
3,59,79,0
3,64,79,0
3,59,70,0
3,60,82,0
3,52,79,0
3,45,111,0
3,53,95,192
3,60,85,96
3,59,79,0
3,64,79,0
3,59,79,0
3,60,79,0
3,53,79,0
3,45,111,0
3,52,95,192
3,60,85,192
3,59,79,0
3,64,79,0
3,59,75,0
3,60,82,0
3,52,79,0
3,45,95,0
3,53,79,32
3,59,79,32
3,60,79,32
3,64,79,32
3,45,95,0
3,52,79,0
3,60,83,192
3,59,79,0
3,64,82,0
3,59,75,0
3,60,85,0
3,52,79,0
3,45,95,0
3,53,79,192
3,60,83,192
3,59,79,0
3,64,82,0
3,59,75,0
3,60,85,0
3,52,79,0
3,45,95,0
3,52,79,192
3,60,83,192
3,59,79,0
3,64,83,0
3,59,75,0
3,60,85,0
3,52,79,0
3,45,111,0
3,53,95,192
3,60,79,192
3,45,95,0
3,52,79,192
3,60,83,192
3,59,79,0
3,64,83,0
3,59,75,0
3,60,85,0
3,52,79,0
3,45,95,0
3,53,79,192
3,60,82,192
3,59,79,0
3,64,83,0
3,59,75,0
3,60,85,0
3,45,95,0
3,59,79,0
3,63,79,0
3,66,79,0
3,72,79,0
3,71,74,0
3,69,70,0
3,76,65,0
3,50,111,96
3,57,85,192
3,62,79,192
3,64,79,0
3,65,79,0
3,64,79,0
3,50,95,0
3,45,95,0
3,40,111,0
3,52,85,192
3,56,79,192
3,64,79,0
3,59,79,0
3,56,79,0
3,59,79,0
3,64,79,0
3,45,95,0
3,52,85,192
3,52,85,32
3,60,79,0
3,59,79,32
3,45,95,0
3,53,85,192
3,53,85,32
3,60,79,0
3,59,79,32
3,45,95,0
3,52,79,192
3,60,65,192
3,59,60,0
3,64,45,0
3,64,79,0
3,40,95,0
3,47,79,192
3,52,63,0
3,56,47,0
3,59,47,0
3,64,31,48
3,53,95,0
3,59,85,192
3,60,63,0
3,65,63,0
3,60,63,0
3,59,63,0
3,53,95,0
3,59,79,0
3,45,95,0
3,52,79,192
3,60,79,0
3,64,63,0
3,52,79,48
3,60,79,48
3,64,79,48
3,69,79,48
4,45,111,79488
4,52,95,192
4,60,83,192
4,59,63,0
4,64,85,0
4,59,75,0
4,60,85,0
4,52,79,0
4,45,111,0
4,53,95,192
4,60,79,192
4,59,63,0
4,64,83,0
4,59,75,0
4,60,85,0
4,52,79,0
4,45,111,0
4,52,95,192
4,60,79,192
4,59,63,0
4,64,83,0
4,59,75,0
4,60,85,0
4,52,79,0
4,45,95,0
4,53,63,32
4,59,63,32
4,60,63,32
4,64,63,32
4,45,95,0
4,52,85,192
4,60,79,192
4,59,63,0
4,64,63,0
4,59,63,0
4,60,79,0
4,52,63,0
4,45,95,0
4,53,85,192
4,60,79,192
4,59,63,0
4,64,63,0
4,59,63,0
4,60,79,0
4,52,63,0
4,45,95,0
4,53,85,192
4,60,79,192
4,59,63,0
4,64,63,0
4,59,63,0
4,60,79,0
4,52,63,0
4,45,95,0
4,53,90,192
4,53,90,64
4,60,85,0
4,53,90,128
4,45,95,264
4,52,79,192
4,60,79,192
4,59,63,0
4,64,63,0
4,59,63,0
4,60,79,0
4,52,63,0
4,45,95,0
4,53,79,192
4,60,79,192
4,59,63,0
4,64,63,0
4,59,63,0
4,60,79,0
4,45,95,0
4,59,85,192
4,63,79,0
4,66,79,0
4,72,79,0
4,71,74,0
4,69,70,0
4,76,60,0
4,50,95,96
4,57,79,192
4,62,79,192
4,64,63,0
4,65,63,0
4,64,63,0
4,50,79,0
4,45,79,0
4,40,95,0
4,52,79,192
4,56,79,192
4,64,63,0
4,59,79,0
4,56,79,0
4,59,79,0
4,64,79,0
4,45,95,0
4,52,79,192
4,60,65,192
4,59,63,0
4,45,95,0
4,53,79,192
4,60,65,192
4,59,63,0
4,45,95,0
4,52,79,192
4,60,65,192
4,59,60,0
4,64,45,0
4,65,63,0
4,40,95,0
4,47,85,0
4,52,79,192
4,56,47,192
4,59,47,192
4,64,31,48
4,53,95,0
4,59,85,192
4,60,63,192
4,65,63,0
4,60,79,0
4,59,79,0
4,53,90,0
4,59,85,192
4,45,95,0
4,52,85,192
4,60,63,192
4,59,63,192
4,64,47,192
4,45,95,0
4,52,79,192
4,60,79,192
4,59,79,0
4,64,79,0
4,59,79,0
4,60,79,0
4,52,79,0
4,45,95,0
4,53,79,192
4,60,79,192
4,59,79,0
4,64,79,0
4,59,79,0
4,60,79,0
4,52,79,0
4,45,95,0
4,52,79,192
4,60,79,192
4,59,79,0
4,64,79,0
4,59,79,0
4,60,79,0
4,52,79,0
4,45,95,0
4,53,63,32
4,59,63,32
4,60,63,32
4,64,63,32
4,64,63,352
4,45,95,0
4,52,79,192
4,60,79,192
4,59,79,0
4,64,79,0
4,59,79,0
4,60,79,0
4,52,79,0
4,45,95,0
4,53,79,192
4,60,79,192
4,59,79,0
4,64,79,0
4,45,95,0
4,59,79,192
4,63,79,0
4,66,79,0
4,72,79,0
4,71,74,0
4,69,70,0
4,76,60,0
4,50,111,96
4,57,79,192
4,62,79,192
4,64,79,0
4,65,70,0
4,64,79,0
4,50,79,0
4,45,79,0
4,40,95,0
4,52,79,192
4,56,79,192
4,64,79,0
4,59,79,0
4,56,79,0
4,59,79,0
4,64,79,0
4,45,95,0
4,52,79,192
4,60,65,192
4,59,63,0
4,45,95,0
4,53,79,192
4,60,65,192
4,59,63,0
4,45,95,0
4,52,79,192
4,60,65,192
