track,note,velocity,time
1,32,127,545
1,44,127,0
1,34,127,25
1,46,127,0
1,35,127,25
1,47,127,0
1,37,127,25
1,49,127,0
1,39,127,25
1,51,127,0
1,40,127,25
1,52,127,0
1,35,127,25
1,47,127,0
1,40,127,25
1,52,127,0
1,41,127,25
1,53,127,0
1,42,127,25
1,54,127,0
1,38,127,25
1,50,127,0
1,33,127,25
1,45,127,0
1,37,127,25
1,49,127,0
1,32,127,25
1,32,127,25
1,32,127,25
1,44,127,25
1,32,127,0
1,49,127,25
1,37,127,0
1,56,127,62
1,44,127,0
1,46,127,720
1,34,127,0
1,51,127,172
1,39,127,0
1,51,127,86
1,39,127,0
1,56,127,64
1,44,127,0
1,44,127,64
1,32,127,0
1,50,127,0
1,38,127,0
1,44,127,240
1,32,127,0
1,49,127,0
1,37,127,0
1,47,127,32
1,35,127,0
1,41,127,44
1,29,127,0
1,47,127,57
1,35,127,0
1,46,127,57
1,34,127,0
1,41,127,57
1,29,127,0
1,40,127,57
1,28,127,0
1,45,127,57
1,33,127,0
1,46,127,57
1,34,127,0
1,39,127,57
1,27,127,0
1,44,127,57
1,32,127,0
1,49,127,57
1,37,127,0
1,56,127,62
1,44,127,0
1,46,127,720
1,34,127,0
1,51,127,172
1,39,127,0
1,51,127,86
1,39,127,0
1,56,127,64
1,44,127,0
1,32,127,64
1,44,127,0
1,34,127,38
1,46,127,0
1,35,127,38
1,47,127,0
1,37,127,38
1,49,127,0
1,39,127,38
1,51,127,0
1,40,127,38
1,52,127,0
1,35,127,38
1,47,127,0
1,40,127,38
1,52,127,0
1,41,127,38
1,53,127,0
1,42,127,38
1,54,127,0
1,38,127,38
1,50,127,0
1,33,127,38
1,45,127,0
1,37,127,38
1,49,127,0
1,32,127,38
1,32,127,38
1,32,127,38
1,32,127,38
1,32,127,0
1,49,127,38
1,37,127,0
1,56,127,62
1,44,127,0
1,46,127,720
1,34,127,0
1,51,127,172
1,39,127,0
1,51,127,86
1,39,127,0
1,56,127,64
1,44,127,0
1,44,127,64
1,32,127,0
1,50,127,0
1,38,127,0
1,44,127,240
1,32,127,0
1,49,127,0
1,37,127,0
1,47,127,32
1,35,127,0
1,41,127,44
1,29,127,0
1,47,127,38
1,35,127,0
1,46,127,38
1,34,127,0
1,41,127,38
1,29,127,0
1,40,127,38
1,28,127,0
1,45,127,38
1,33,127,0
1,46,127,38
1,34,127,0
1,39,127,38
1,27,127,0
1,44,127,38
1,32,127,0
1,49,127,38
1,37,127,0
1,56,127,62
1,44,127,0
1,46,127,720
1,34,127,0
1,51,127,172
1,39,127,0
1,51,127,86
1,39,127,0
1,56,127,64
1,44,127,0
1,54,127,240
1,42,127,0
1,53,127,0
1,41,127,0
1,53,127,120
1,41,127,0
1,51,127,0
1,39,127,0
1,50,127,0
1,38,127,0
1,92,108,4200
1,90,108,0
1,92,108,49
1,90,108,0
1,92,108,49
1,90,108,0
1,92,108,151
1,90,108,0
1,92,108,49
1,90,108,0
1,92,108,49
1,90,108,0
1,92,108,160
1,90,108,0
1,92,108,49
1,90,108,0
1,92,108,49
1,90,108,0
1,92,108,160
1,90,108,0
1,92,108,49
1,90,108,0
1,92,108,49
1,90,108,0
1,92,108,169
1,90,108,0
1,92,108,49
1,90,108,0
1,92,108,49
1,90,108,0
1,92,108,409
1,90,108,0
1,92,108,49
1,90,108,0
1,92,108,49
1,90,108,0
1,92,108,151
1,90,108,0
1,92,108,49
1,90,108,0
1,92,108,49
1,90,108,0
1,92,108,160
1,90,108,0
1,92,108,49
1,90,108,0
1,92,108,49
1,90,108,0
1,92,108,160
1,90,108,0
1,92,108,49
1,90,108,0
1,92,108,49
1,90,108,0
1,92,108,169
1,90,108,0
1,92,108,49
1,90,108,0
1,92,108,49
1,90,108,0
1,92,108,409
1,90,108,0
1,92,108,49
1,90,108,0
1,92,108,49
1,90,108,0
1,92,108,151
1,90,108,0
1,92,108,49
1,90,108,0
1,92,108,49
1,90,108,0
1,92,108,151
1,90,108,0
1,92,108,49
1,90,108,0
1,92,108,49
1,90,108,0
1,92,108,151
1,90,108,0
1,92,108,49
1,90,108,0
1,92,108,49
1,90,108,0
1,92,108,160
1,90,108,0
1,92,108,49
1,90,108,0
1,92,108,49
1,90,108,0
1,56,124,66649
1,44,124,0
1,54,122,240
1,42,122,0
1,53,122,0
1,41,122,0
1,53,122,120
1,41,122,0
1,51,122,0
1,39,122,0
1,50,122,0
1,38,122,0
1,92,103,4200
1,90,103,0
1,92,103,49
1,90,103,0
1,92,103,49
1,90,103,0
1,92,103,151
1,90,103,0
1,92,103,49
1,90,103,0
1,92,103,49
1,90,103,0
1,92,103,160
1,90,103,0
1,92,103,49
1,90,103,0
1,92,103,49
1,90,103,0
1,92,102,160
1,90,102,0
1,92,102,49
1,90,102,0
1,92,102,49
1,90,102,0
1,92,102,169
1,90,102,0
1,92,102,49
1,90,102,0
1,92,102,49
1,90,102,0
1,92,103,409
1,90,103,0
1,92,103,49
1,90,103,0
1,92,103,49
1,90,103,0
1,92,103,151
1,90,103,0
1,92,103,49
1,90,103,0
1,92,103,49
1,90,103,0
1,92,103,160
1,90,103,0
1,92,103,49
1,90,103,0
1,92,103,49
1,90,103,0
1,92,102,160
1,90,102,0
1,92,102,49
1,90,102,0
1,92,102,49
1,90,102,0
1,92,102,169
1,90,102,0
1,92,102,49
1,90,102,0
1,92,102,49
1,90,102,0
1,56,124,82249
1,44,124,0
1,54,122,240
1,42,122,0
1,53,122,0
1,41,122,0
1,53,122,120
1,41,122,0
1,51,122,0
1,39,122,0
1,50,122,0
1,38,122,0
2,52,6,1695
2,71,122,224
2,76,122,142
2,81,122,146
2,76,122,162
2,78,122,158
2,71,122,137
2,73,122,158
2,76,122,126
2,69,122,142
2,71,122,140
2,73,122,138
2,64,122,126
2,66,122,20
2,68,122,164
2,73,122,154
2,72,122,134
2,70,122,134
2,68,122,152
2,70,122,10
2,66,122,36
2,68,122,128
2,84,122,1847
2,85,122,59
2,84,122,110
2,82,122,16
2,80,122,152
2,78,122,172
2,73,122,338
2,84,122,206
2,85,122,46
2,84,122,142
2,82,122,142
2,80,122,128
2,78,122,2
2,73,122,300
2,77,122,319
2,78,122,0
2,77,122,160
2,73,122,154
2,70,122,147
2,75,122,8
2,75,122,348
2,82,122,160
2,82,122,344
2,87,122,18
2,87,122,318
2,84,122,184
2,82,122,56
2,80,122,116
2,79,122,141
2,82,122,2
2,77,122,15
2,79,122,120
2,77,122,118
2,74,122,114
2,75,122,20
2,70,122,7
2,75,122,259
2,70,122,19
2,75,122,166
2,70,122,166
2,75,122,26
2,73,122,150
2,70,122,154
2,68,122,160
2,69,122,76
2,68,122,114
2,66,122,12
2,68,122,127
2,66,122,21
2,65,122,160
2,70,122,76
2,70,122,54
2,72,122,20
2,73,122,10
2,72,122,320
2,73,122,156
2,72,122,310
2,70,120,38
2,68,118,272
2,65,118,32
2,63,118,160
2,61,118,112
2,58,118,112
2,75,122,240
2,77,122,20
2,78,122,160
2,77,122,290
2,78,122,156
2,77,122,310
2,75,124,38
2,73,124,272
2,70,124,32
2,68,124,160
2,66,124,112
2,63,124,112
2,80,122,240
2,82,122,20
2,83,122,160
2,82,122,290
2,83,122,156
2,82,122,310
2,80,122,38
2,78,122,272
2,75,122,32
2,73,122,160
2,71,122,112
2,68,122,112
2,73,122,80
2,70,122,160
2,72,122,240
2,72,112,163440
2,75,112,373
2,80,112,290
2,78,112,421
2,73,112,249
2,72,112,14
2,70,112,122
2,72,112,165
2,75,112,338
2,80,112,29
2,78,112,436
2,73,112,132
2,72,112,70
2,70,112,135
2,68,112,187
2,68,112,153
2,65,112,323
2,68,112,194
2,70,112,220
2,75,112,232
2,72,112,125
2,70,112,84
2,68,112,110
2,68,112,166
2,65,112,300
2,68,112,169
2,68,112,907
2,68,112,133
2,65,112,316
2,68,112,138
2,70,112,224
2,75,112,41
2,72,112,26
2,70,112,16
2,68,112,0
2,68,112,166
2,63,112,94
2,65,112,6
2,56,112,18
3,80,124,5520
3,90,124,88
3,78,124,0
3,85,124,0
3,80,124,0
3,87,124,88
3,83,124,0
3,80,124,0
3,80,124,185
3,87,124,88
3,82,124,0
3,78,124,0
3,80,124,108
3,87,124,0
3,87,124,60
3,75,124,0
3,82,124,360
3,80,124,10
3,75,124,10
3,80,124,0
3,78,124,0
3,73,124,10
3,75,124,10
3,76,124,0
3,78,124,0
3,80,124,10
3,81,124,10
3,83,124,0
3,88,124,0
3,87,124,10
3,83,124,10
3,85,124,0
3,85,124,112
3,92,124,92
3,85,124,70
3,85,124,105
3,92,124,95
3,85,124,0
3,85,124,95
3,85,124,95
3,92,124,105
3,92,124,10
3,90,124,10
3,87,124,10
3,88,124,0
3,85,124,0
3,83,124,10
3,81,124,10
3,73,124,10
3,85,124,0
3,76,124,0
3,78,124,0
3,71,124,127
3,87,124,0
3,78,124,0
3,80,124,0
3,69,124,0
3,88,124,0
3,80,124,0
3,81,124,0
3,68,124,30
3,89,124,0
3,81,124,0
3,83,124,0
3,90,91,127
3,85,91,0
3,81,87,0
3,88,107,210
3,83,95,0
3,92,91,0
3,85,87,262
3,90,99,0
3,93,87,0
3,92,76,271
3,87,87,0
3,95,73,0
3,73,114,303
3,80,114,0
3,85,114,240
3,80,114,222
3,71,114,191
3,83,114,0
3,75,114,237
3,80,114,227
3,83,114,3
3,71,114,6
3,70,114,234
3,82,114,0
3,74,114,217
3,75,114,227
3,79,114,0
3,75,114,287
3,79,114,0
3,71,114,261
3,80,114,0
3,77,114,457
3,80,114,0
3,85,114,25
3,80,114,240
3,75,114,20
3,83,114,0
3,75,114,22
3,80,114,240
3,71,114,20
3,83,114,0
3,70,114,240
3,82,114,0
3,74,114,207
3,75,114,29
3,79,114,0
3,75,114,275
3,79,114,0
3,71,114,249
3,80,114,0
3,92,103,445
3,90,103,0
3,92,103,49
3,90,103,0
3,92,103,49
3,90,103,0
3,92,103,151
3,90,103,0
3,92,103,49
3,90,103,0
3,92,103,49
3,90,103,0
3,92,103,187
3,90,103,0
3,92,103,49
3,90,103,0
3,92,103,49
3,90,103,0
3,92,102,169
3,90,102,0
3,92,102,49
3,90,102,0
3,92,102,49
3,90,102,0
3,92,102,178
3,90,102,0
3,92,102,49
3,90,102,0
3,92,102,49
3,90,102,0
3,80,114,418
3,85,114,25
3,80,114,240
3,83,114,20
3,75,114,22
3,80,114,240
3,83,114,20
3,82,114,240
3,74,114,207
3,79,114,29
3,79,114,327
3,80,114,301
3,92,103,445
3,90,103,0
3,92,103,49
3,90,103,0
3,92,103,49
3,90,103,0
3,92,103,160
3,90,103,0
3,92,103,49
3,90,103,0
3,92,103,49
3,90,103,0
3,92,103,160
3,90,103,0
3,92,103,49
3,90,103,0
3,92,103,49
3,90,103,0
3,92,102,169
3,90,102,0
3,92,102,49
3,90,102,0
3,92,102,49
3,90,102,0
3,92,102,169
3,90,102,0
3,92,102,49
3,90,102,0
3,92,102,49
3,90,102,0
3,80,114,409
3,85,114,25
3,80,114,240
3,83,114,20
3,75,114,22
3,80,114,240
3,83,114,20
3,82,114,240
3,74,114,207
3,79,114,29
3,79,114,327
3,80,114,301
3,92,103,445
3,90,103,0
3,92,103,49
3,90,103,0
3,92,103,49
3,90,103,0
3,92,103,151
3,90,103,0
3,92,103,49
3,90,103,0
3,92,103,49
3,90,103,0
3,92,103,160
3,90,103,0
3,92,103,49
3,90,103,0
3,92,103,49
3,90,103,0
3,92,102,160
3,90,102,0
3,92,102,49
3,90,102,0
3,92,102,49
3,90,102,0
3,92,102,169
3,90,102,0
3,92,102,49
3,90,102,0
3,92,102,49
3,90,102,0
3,80,114,409
3,85,114,25
3,80,114,240
3,83,114,20
3,75,114,22
3,80,114,240
3,83,114,20
3,82,114,240
3,74,114,207
3,79,114,29
3,79,114,327
3,80,114,301
3,92,103,445
3,90,103,0
3,92,103,49
3,90,103,0
3,92,103,49
3,90,103,0
3,92,103,151
3,90,103,0
3,92,103,49
3,90,103,0
3,92,103,49
3,90,103,0
3,92,103,151
3,90,103,0
3,92,103,49
3,90,103,0
3,92,103,49
3,90,103,0
3,92,102,151
3,90,102,0
3,92,102,49
3,90,102,0
3,92,102,49
3,90,102,0
3,92,102,160
3,90,102,0
3,92,102,49
3,90,102,0
3,92,102,49
3,90,102,0
3,80,114,409
3,85,114,25
3,80,114,240
3,83,114,20
3,75,114,22
3,80,114,240
3,83,114,20
3,82,114,240
3,74,114,207
3,79,114,29
3,79,114,327
3,80,118,301
3,78,118,240
3,80,118,0
3,77,118,0
3,80,118,0
3,77,118,120
3,80,118,0
3,75,118,0
3,80,118,0
3,74,118,0
3,80,118,0
3,80,82,120
3,71,82,0
3,75,79,466
3,71,111,162
3,70,87,425
3,80,84,11
3,75,68,511
3,70,107,208
3,69,82,224
3,75,82,242
3,80,73,7
3,69,87,154
3,80,57,4
3,75,99,9
3,73,114,253
3,80,114,0
3,85,114,240
3,80,114,116
3,75,114,8
3,83,114,0
3,75,114,67
3,80,114,195
3,83,114,204
3,82,114,179
3,74,114,174
3,79,114,86
3,75,114,0
3,70,114,251
3,79,114,0
3,71,114,246
3,80,114,0
3,80,114,332
3,75,114,0
3,73,114,15
3,85,114,0
3,80,115,213
3,75,115,52
3,83,115,0
3,75,115,44
3,80,115,169
3,83,115,230
3,82,115,207
3,74,115,166
3,82,115,116
3,70,115,0
3,79,115,0
3,70,115,257
3,87,115,0
3,79,115,0
3,71,115,249
3,83,115,0
3,80,115,0
3,73,114,343
3,80,114,0
3,85,114,240
3,80,114,116
3,75,114,8
3,83,114,0
3,75,114,67
3,80,114,195
3,83,114,204
3,82,114,179
3,74,114,174
3,79,114,86
3,70,114,0
3,70,114,251
3,79,114,0
3,71,114,246
3,80,114,0
3,76,127,92
3,74,127,0
3,81,127,0
3,81,127,213
3,78,127,0
3,74,127,0
3,80,99,1364
3,83,99,0
3,87,107,0
3,92,95,240
3,87,79,204
3,82,95,62
3,91,87,0
3,89,81,497
3,88,76,10
3,86,75,16
3,84,73,20
3,83,71,20
3,81,70,5
3,79,68,8
3,77,67,15
3,76,65,16
3,74,63,6
3,72,61,4
3,71,60,19
3,69,57,22
3,67,54,25
3,65,51,28
3,64,47,29
3,62,45,19
3,60,42,22
3,59,40,12
3,57,37,16
3,80,120,2
3,68,102,1
3,68,102,106
3,80,102,6
3,68,102,71
3,80,102,5
3,71,102,15
3,68,102,93
3,80,102,7
3,80,102,62
3,73,102,13
3,80,102,144
3,68,102,3
3,80,102,210
3,73,102,3
3,74,102,285
3,73,102,43
3,68,102,15
3,80,102,9
3,80,102,98
3,73,102,4
3,68,102,102
3,70,102,96
3,71,102,37
3,80,102,3
3,80,102,111
3,68,102,9
3,56,64,342
3,92,104,25
3,58,64,0
3,86,104,10
3,83,104,62
3,59,64,10
3,85,112,0
3,61,64,0
3,79,112,21
3,61,64,4
3,79,87,10
3,80,112,23
3,58,64,20
3,60,87,220
3,61,64,0
3,74,112,17
3,80,76,192
3,75,112,8
3,59,64,0
3,71,112,14
3,59,64,0
3,80,84,22
3,56,64,25
3,74,112,3
3,59,9,35
3,71,112,16
3,58,64,34
3,73,112,3
3,80,87,12
3,55,64,24
3,70,112,1
3,71,112,28
3,51,64,13
3,80,79,11
3,80,95,44
3,71,112,10
3,47,64,2
3,78,113,48
3,80,105,120
3,78,106,77
3,80,97,117
3,83,113,383
3,85,101,109
3,83,105,93
3,85,105,106
3,76,101,199
3,78,93,207
3,86,98,179
3,83,109,239
3,84,108,27
3,85,108,117
3,86,97,92
3,92,91,140
3,85,106,189
3,78,103,13
3,80,103,0
3,85,103,7
3,86,88,37
3,85,88,92
3,83,91,12
3,80,89,46
3,85,103,8
3,80,100,3
3,78,95,212
3,73,111,45
3,70,100,38
3,79,103,3
3,75,103,0
3,73,98,735
3,75,85,204
3,80,77,183
3,78,80,173
3,75,78,93
3,73,93,56
3,71,98,46
3,68,105,246
3,66,85,77
3,95,109,122
