track,note,velocity,time
0,69,110,0
0,74,115,0
0,76,105,0
0,86,112,0
0,69,110,0
0,74,115,0
0,76,105,0
0,86,112,0
0,86,76,6
0,90,109,0
0,86,76,0
0,90,109,0
0,81,100,1
0,86,100,0
0,81,100,0
0,86,100,0
0,86,91,2
0,90,103,0
0,86,91,0
0,90,103,0
0,81,106,4
0,86,103,0
0,81,106,0
0,86,103,0
0,81,70,32
0,86,103,0
0,81,70,0
0,86,103,0
0,86,100,15
0,86,100,0
0,79,112,11
0,84,109,0
0,79,112,0
0,84,109,0
0,84,91,5
0,88,100,0
0,84,91,0
0,88,100,0
0,69,110,0
0,74,115,0
0,76,105,0
0,81,100,0
0,86,112,0
0,69,110,0
0,74,115,0
0,76,105,0
0,81,100,0
0,86,112,0
0,86,97,6
0,90,106,0
0,86,97,0
0,90,106,0
0,81,94,1
0,86,103,0
0,81,94,0
0,86,103,0
0,86,103,2
0,90,103,0
0,86,103,0
0,90,103,0
0,81,67,10
0,86,91,0
0,81,67,0
0,86,91,0
0,81,109,4
0,86,103,0
0,81,109,0
0,86,103,0
0,81,106,29
0,86,106,0
0,81,106,0
0,86,106,0
0,79,103,34
0,84,112,0
0,79,103,0
0,84,112,0
0,84,88,5
0,88,100,0
0,84,88,0
0,88,100,0
0,69,110,0
0,74,115,0
0,76,105,0
0,81,112,0
0,86,112,0
0,69,110,0
0,74,115,0
0,76,105,0
0,81,112,0
0,86,112,0
0,86,100,6
0,90,106,0
0,86,100,0
0,90,106,0
0,81,97,1
0,86,100,0
0,81,97,0
0,86,100,0
0,86,55,2
0,90,94,0
0,86,55,0
0,90,94,0
0,81,97,13
0,86,97,0
0,81,97,0
0,86,97,0
0,86,109,4
0,86,109,0
0,81,97,25
0,86,103,0
0,81,97,0
0,86,103,0
0,79,109,31
0,84,103,0
0,79,109,0
0,84,103,0
0,84,94,5
0,88,106,0
0,84,94,0
0,88,106,0
0,69,110,0
0,74,115,0
0,76,105,0
0,81,103,0
0,86,112,0
0,69,110,0
0,74,115,0
0,76,105,0
0,81,103,0
0,86,112,0
0,86,94,6
0,90,103,0
0,86,94,0
0,90,103,0
0,81,94,1
0,86,97,0
0,81,94,0
0,86,97,0
0,86,82,2
0,90,94,0
0,86,82,0
0,90,94,0
0,81,94,11
0,86,103,0
0,81,94,0
0,86,103,0
0,86,100,4
0,86,100,0
0,81,106,27
0,86,112,0
0,81,106,0
0,86,112,0
0,79,109,29
0,84,112,0
0,79,109,0
0,84,112,0
0,88,103,5
0,88,103,0
0,38,112,34
0,38,112,0
0,50,106,0
0,62,112,0
0,86,103,0
0,50,106,0
0,62,112,0
0,86,103,0
0,36,121,0
0,46,112,0
0,50,100,9
0,86,103,0
0,50,100,0
0,86,103,0
0,44,85,0
0,86,109,7
0,86,109,0
0,86,103,13
0,86,103,0
0,81,106,24
0,81,106,0
0,83,73,7
0,83,73,0
0,86,70,6
0,86,70,0
0,83,88,24
0,83,88,0
0,81,91,6
0,81,91,0
0,78,106,8
0,78,106,0
0,76,79,24
0,76,79,0
0,74,100,6
0,74,100,0
0,38,112,8
0,38,112,0
0,50,112,0
0,62,112,0
0,78,85,0
0,50,112,0
0,62,112,0
0,78,85,0
0,35,118,0
0,46,103,0
0,81,109,1
0,81,109,0
0,44,91,0
0,38,112,10
0,38,112,0
0,50,109,0
0,62,112,0
0,86,112,0
0,50,109,0
0,62,112,0
0,86,112,0
0,35,118,0
0,46,109,0
0,44,100,4
0,90,106,3
0,90,106,0
0,86,103,26
0,86,103,0
0,81,100,33
0,81,100,0
0,79,100,24
0,79,100,0
0,78,97,17
0,78,97,0
0,74,100,12
0,74,100,0
0,76,94,22
0,76,94,0
0,79,97,22
0,79,97,0
0,78,103,20
0,78,103,0
0,76,82,1
0,76,82,0
0,74,100,5
0,74,100,0
0,38,115,18
0,38,115,0
0,50,109,0
0,62,112,0
0,86,109,0
0,50,109,0
0,62,112,0
0,86,109,0
0,35,118,0
0,46,112,0
0,86,109,10
0,86,109,0
0,44,85,0
0,86,112,25
0,86,112,0
0,86,100,12
0,86,100,0
0,81,97,48
0,81,97,0
0,83,91,6
0,83,91,0
0,86,91,4
0,86,91,0
0,83,79,24
0,83,79,0
0,81,85,3
0,81,85,0
0,78,103,7
0,78,103,0
0,76,94,1
0,76,94,0
0,74,91,3
0,74,91,0
0,38,115,6
0,38,115,0
0,50,106,0
0,62,112,0
0,78,103,0
0,50,106,0
0,62,112,0
0,78,103,0
0,35,118,0
0,46,109,0
0,81,112,6
0,81,112,0
0,44,88,0
0,38,106,10
0,38,106,0
0,50,109,0
0,62,112,0
0,86,112,0
0,50,109,0
0,62,112,0
0,86,112,0
0,35,121,0
0,46,112,0
0,90,106,6
0,90,106,0
0,44,91,0
0,86,106,20
0,86,106,0
0,81,103,33
0,81,103,0
0,79,103,24
0,79,103,0
0,78,91,13
0,78,91,0
0,38,111,0
0,74,100,14
0,74,100,0
0,47,111,0
0,76,85,21
0,76,85,0
0,43,111,0
0,79,103,1
0,79,103,0
0,35,111,0
0,78,97,24
0,78,97,0
0,38,111,0
0,76,82,19
0,76,82,0
0,38,117,0
0,74,94,3
0,74,94,0
0,43,119,0
0,35,119,24
0,38,115,20
0,38,115,0
0,50,103,0
0,86,109,0
0,50,103,0
0,86,109,0
0,35,115,0
0,49,100,0
0,86,100,12
0,86,100,0
0,42,94,6
0,38,64,10
0,38,64,0
0,86,109,0
0,86,109,0
0,50,115,10
0,50,115,0
0,62,112,0
0,86,103,0
0,62,112,0
0,86,103,0
0,38,118,0
0,42,106,0
0,50,103,46
0,81,85,0
0,50,103,0
0,81,85,0
0,35,70,0
0,42,73,0
0,83,97,4
0,83,97,0
0,48,106,1
0,48,106,0
0,48,100,0
0,86,97,0
0,48,100,0
0,86,97,0
0,35,76,0
0,42,112,0
0,83,107,21
0,83,107,0
0,38,70,0
0,81,94,4
0,81,94,0
0,35,34,0
0,42,64,0
0,78,106,24
0,78,106,0
0,35,88,0
0,47,97,16
0,47,97,0
0,60,106,0
0,76,103,0
0,60,106,0
0,76,103,0
0,38,124,0
0,42,109,0
0,74,79,3
0,74,79,0
0,48,85,6
0,48,85,0
0,48,100,0
0,78,106,0
0,48,100,0
0,78,106,0
0,35,85,0
0,42,73,0
0,47,94,2
0,47,94,0
0,81,106,0
0,81,106,0
0,38,112,2
0,38,112,0
0,50,106,0
0,86,112,0
0,50,106,0
0,86,112,0
0,35,115,0
0,42,106,0
0,90,109,31
0,90,109,0
0,42,88,0
0,38,82,5
0,38,82,0
0,50,106,4
0,50,106,0
0,62,112,0
0,86,112,0
0,62,112,0
0,86,112,0
0,38,115,0
0,42,112,0
0,50,91,32
0,81,109,0
0,50,91,0
0,81,109,0
0,35,70,0
0,42,61,0
0,79,91,24
0,79,91,0
0,48,103,3
0,48,103,0
0,48,97,0
0,78,97,0
0,48,97,0
0,78,97,0
0,35,97,0
0,42,112,0
0,74,88,19
0,74,88,0
0,38,100,0
0,76,73,0
0,76,73,0
0,35,7,0
0,42,49,0
0,79,106,2
0,79,106,0
0,35,91,0
0,47,94,10
0,47,94,0
0,60,112,0
0,78,91,0
0,60,112,0
0,78,91,0
0,38,118,0
0,42,106,0
0,76,88,19
0,76,88,0
0,48,97,4
0,48,97,0
0,48,94,0
0,74,106,0
0,48,94,0
0,74,106,0
0,35,97,0
0,46,76,0
0,47,97,17
0,47,97,0
0,38,109,3
0,38,109,0
0,50,103,0
0,86,106,0
0,50,103,0
0,86,106,0
0,35,106,0
0,42,109,0
0,86,94,12
0,86,94,0
0,42,79,5
0,38,85,11
0,38,85,0
0,86,106,0
0,86,106,0
0,35,103,0
0,50,109,14
0,50,109,0
0,62,112,0
0,86,103,0
0,62,112,0
0,86,103,0
0,38,118,0
0,42,109,0
0,50,97,40
0,81,88,0
0,50,97,0
0,81,88,0
0,35,91,0
0,42,55,0
0,83,97,4
0,83,97,0
0,48,106,1
0,48,106,0
0,48,94,0
0,86,97,0
0,48,94,0
0,86,97,0
0,35,97,0
0,42,112,0
0,83,67,19
0,83,67,0
0,38,82,0
0,81,82,3
0,81,82,0
0,35,25,0
0,42,73,0
0,78,106,7
0,78,106,0
0,35,100,0
0,47,100,2
0,47,100,0
0,60,103,0
0,76,76,0
0,60,103,0
0,76,76,0
0,38,118,0
0,42,109,0
0,74,91,4
0,74,91,0
0,48,91,6
0,48,91,0
0,48,97,0
0,78,94,0
0,48,97,0
0,78,94,0
0,35,100,0
0,42,85,0
0,47,94,3
0,47,94,0
0,81,91,0
0,81,91,0
0,38,106,3
0,38,106,0
0,50,106,0
0,86,112,0
0,50,106,0
0,86,112,0
0,35,109,0
0,42,112,0
0,90,109,32
0,90,109,0
0,42,91,0
0,38,79,5
0,38,79,0
0,35,94,0
0,50,112,24
0,50,112,0
0,62,112,0
0,86,112,0
0,62,112,0
0,86,112,0
0,38,118,0
0,42,112,0
0,50,94,36
0,81,106,0
0,50,94,0
0,81,106,0
0,35,58,0
0,42,79,0
0,79,94,24
0,79,94,0
0,48,106,4
0,48,106,0
0,48,112,0
0,78,106,0
0,48,112,0
0,78,106,0
0,35,91,0
0,42,106,0
0,74,82,15
0,74,82,0
0,38,88,0
0,76,88,21
0,76,88,0
0,46,94,0
0,79,91,22
0,79,91,0
0,35,100,0
0,47,103,6
0,47,103,0
0,60,109,0
0,78,97,0
0,60,109,0
0,78,97,0
0,38,118,0
0,42,91,0
0,76,76,17
0,76,76,0
0,48,100,2
0,74,94,0
0,48,100,0
0,74,94,0
0,35,97,0
0,46,94,0
0,38,112,2
0,38,112,0
0,50,97,0
0,62,112,0
0,78,109,0
0,50,97,0
0,62,112,0
0,78,109,0
0,35,112,0
0,42,112,0
0,45,112,0
0,74,82,5
0,74,82,0
0,78,88,2
0,78,88,0
0,74,82,18
0,74,82,0
0,38,97,1
0,38,97,0
0,50,112,0
0,62,112,0
0,81,103,0
0,50,112,0
0,62,112,0
0,81,103,0
0,35,103,0
0,43,52,0
0,74,88,3
0,74,88,0
0,38,94,12
0,38,94,0
0,50,103,0
0,62,109,0
0,78,112,0
0,50,103,0
0,62,109,0
0,78,112,0
0,35,121,0
0,45,109,0
0,74,94,5
0,74,94,0
0,76,85,1
0,76,85,0
0,74,97,1
0,74,97,0
0,31,100,3
0,31,100,0
0,48,103,0
0,60,112,0
0,76,97,0
0,48,103,0
0,60,112,0
0,76,97,0
0,35,118,0
0,43,79,0
0,78,97,24
0,78,97,0
0,79,100,14
0,79,100,0
0,78,100,14
0,78,100,0
0,31,91,15
0,31,91,0
0,48,94,0
0,60,103,0
0,76,88,0
0,48,94,0
0,60,103,0
0,76,88,0
0,35,97,0
0,42,64,0
0,45,73,0
0,74,91,3
0,74,91,0
0,38,106,4
0,38,106,0
0,50,94,0
0,62,112,0
0,78,109,0
0,50,94,0
0,62,112,0
0,78,109,0
0,35,115,0
0,45,115,0
0,74,100,21
0,74,100,0
0,78,94,17
0,78,94,0
0,42,97,0
0,74,103,23
0,74,103,0
0,38,94,22
0,38,94,0
0,50,94,0
0,62,109,0
0,81,106,0
0,50,94,0
0,62,109,0
0,81,106,0
0,35,100,0
0,43,88,0
0,74,94,4
0,74,94,0
0,38,79,8
0,38,79,0
0,50,103,0
0,62,112,0
0,78,106,0
0,50,103,0
0,62,112,0
0,78,106,0
0,35,121,0
0,42,88,0
0,45,109,0
0,74,97,2
0,74,97,0
0,76,100,9
0,76,100,0
0,74,100,1
0,74,100,0
0,43,97,24
0,43,97,0
0,48,100,0
0,60,109,0
0,76,94,0
0,48,100,0
0,60,109,0
0,76,94,0
0,35,121,0
0,42,88,0
0,43,112,0
0,79,91,4
0,79,91,0
0,78,103,22
0,78,103,0
0,76,79,10
0,76,79,0
0,43,97,4
0,43,97,0
0,48,100,0
0,60,106,0
0,74,112,0
0,48,100,0
0,60,106,0
0,74,112,0
0,35,109,0
0,42,94,0
0,43,112,0
0,38,100,5
0,38,100,0
0,50,94,0
0,62,112,0
0,78,109,0
0,50,94,0
0,62,112,0
0,78,109,0
0,35,124,0
0,45,115,0
0,74,97,1
0,74,97,0
0,78,97,2
0,78,97,0
0,42,88,0
0,74,88,24
0,74,88,0
0,38,103,1
0,38,103,0
0,50,100,0
0,62,112,0
0,81,100,0
0,50,100,0
0,62,112,0
0,81,100,0
0,35,115,0
0,45,103,0
0,74,94,2
0,74,94,0
0,38,106,14
0,38,106,0
0,50,109,0
0,62,112,0
0,78,106,0
0,50,109,0
0,62,112,0
0,78,106,0
0,35,118,0
0,42,91,0
0,45,118,0
0,74,97,0
0,74,97,0
0,76,88,8
0,76,88,0
0,74,103,2
0,74,103,0
0,31,103,1
0,31,103,0
0,48,106,0
0,60,112,0
0,76,88,0
0,48,106,0
0,60,112,0
0,76,88,0
0,35,118,0
0,42,88,0
0,43,109,0
0,78,100,1
0,78,100,0
0,79,103,22
0,79,103,0
0,78,103,17
0,78,103,0
0,31,97,15
0,31,97,0
0,48,109,0
0,60,112,0
0,76,82,0
0,48,109,0
0,60,112,0
0,76,82,0
0,35,112,0
0,42,91,0
0,43,94,0
0,74,94,2
0,74,94,0
0,38,103,1
0,38,103,0
0,50,106,0
0,62,112,0
0,78,112,0
0,50,106,0
0,62,112,0
0,78,112,0
0,35,121,0
0,45,112,0
0,74,97,1
0,74,97,0
0,78,103,2
0,78,103,0
0,42,91,0
0,74,106,24
0,74,106,0
0,38,103,2
0,38,103,0
0,50,106,0
0,62,112,0
0,81,106,0
0,50,106,0
0,62,112,0
0,81,106,0
0,35,112,0
0,43,100,0
0,74,88,3
0,74,88,0
0,38,94,8
0,38,94,0
0,50,109,0
0,62,112,0
0,78,112,0
0,50,109,0
0,62,112,0
0,78,112,0
0,35,118,0
0,42,97,0
0,45,112,0
0,74,94,0
0,74,94,0
0,76,94,7
0,76,94,0
0,74,100,2
0,74,100,0
0,43,106,24
0,43,106,0
0,48,112,0
0,60,106,0
0,76,100,0
0,48,112,0
0,60,106,0
0,76,100,0
0,35,100,0
0,42,94,0
0,43,109,0
0,79,91,20
0,79,91,0
0,78,97,22
0,78,97,0
0,38,87,0
0,74,85,13
0,74,85,0
0,38,87,0
0,43,100,3
0,43,100,0
0,48,97,0
0,60,109,0
0,74,109,0
0,48,97,0
0,60,109,0
0,74,109,0
0,38,98,0
0,46,82,0
0,38,111,7
0,38,103,8
0,38,103,0
0,50,103,0
0,86,109,0
0,50,103,0
0,86,109,0
0,35,117,0
0,49,100,0
0,86,100,12
0,86,100,0
0,42,82,6
0,38,79,4
0,38,79,0
0,86,109,0
0,86,109,0
0,50,115,10
0,50,115,0
0,62,112,0
0,86,103,0
0,62,112,0
0,86,103,0
0,38,112,0
0,42,112,0
0,50,103,46
0,81,85,0
0,50,103,0
0,81,85,0
0,35,88,0
0,42,2,0
0,83,97,4
0,83,97,0
0,48,103,1
0,48,103,0
0,48,100,0
0,86,97,0
0,48,100,0
0,86,97,0
0,35,97,0
0,42,112,0
0,83,107,12
0,83,107,0
0,38,76,0
0,81,94,4
0,81,94,0
0,42,34,0
0,78,106,24
0,78,106,0
0,35,97,0
0,47,103,6
0,47,103,0
0,60,106,0
0,76,103,0
0,60,106,0
0,76,103,0
0,38,118,0
0,42,112,0
0,74,79,3
0,74,79,0
0,48,88,6
0,48,88,0
0,48,100,0
0,78,106,0
0,48,100,0
0,78,106,0
0,35,91,0
0,42,79,0
0,47,1,2
0,47,1,0
0,81,106,0
0,81,106,0
0,38,100,3
0,38,100,0
0,50,106,0
0,86,112,0
0,50,106,0
0,86,112,0
0,35,112,0
0,42,112,0
0,90,109,31
0,90,109,0
0,42,70,0
0,38,85,5
0,38,85,0
0,50,112,24
0,50,112,0
0,62,112,0
0,86,112,0
0,62,112,0
0,86,112,0
0,38,115,0
0,42,112,0
0,50,91,32
0,81,109,0
0,50,91,0
0,81,109,0
0,35,49,0
0,42,76,0
0,79,91,24
0,79,91,0
0,48,97,3
0,48,97,0
