track,note,velocity,time
1,67,113,2
1,67,0,449
1,67,102,29
1,67,0,89
1,67,88,29
1,67,0,89
1,66,97,36
1,66,0,119
1,62,92,6
1,62,0,299
1,59,94,245
1,59,0,54
1,62,99,6
1,62,0,59
1,62,97,7
1,62,0,509
1,59,98,14
1,59,0,59
1,62,99,2
1,62,0,44
1,64,96,12
1,62,93,71
1,64,0,3
1,62,0,346
1,59,96,254
1,59,0,41
1,62,103,13
1,62,0,59
1,62,94,2
1,62,0,485
1,59,102,49
1,62,93,52
1,59,0,7
1,64,93,62
1,62,0,5
1,64,0,46
1,62,93,17
1,62,0,299
1,59,95,291
1,59,0,47
1,62,103,10
1,62,0,37
1,62,94,21
1,62,0,455
1,64,98,76
1,66,96,58
1,64,0,7
1,66,0,43
1,64,96,20
1,62,91,71
1,64,0,1
1,62,0,308
1,57,109,339
1,57,0,558
1,57,96,52
1,57,0,31
1,57,98,16
1,57,0,59
1,59,106,12
1,59,0,40
1,62,101,19
1,62,0,44
1,62,90,14
1,62,0,479
1,59,98,18
1,59,0,44
1,62,95,1
1,62,0,59
1,64,106,9
1,64,0,53
1,62,103,18
1,62,0,409
1,52,118,0
1,52,0,545
1,52,102,55
1,52,0,31
1,52,98,22
1,52,0,42
1,55,106,27
1,55,0,37
1,62,105,20
1,62,0,44
1,62,90,14
1,62,0,452
1,59,100,23
1,62,91,64
1,59,0,9
1,62,0,31
1,64,102,21
1,64,0,61
1,62,107,9
1,62,0,429
1,62,99,74
1,62,0,34
1,67,127,26
1,67,0,117
1,67,90,14
1,67,0,449
1,67,102,62
1,67,0,34
1,66,113,24
1,66,0,74
1,62,91,14
1,62,0,539
1,59,96,47
1,59,0,39
1,62,103,8
1,62,0,43
1,62,99,31
1,62,0,511
1,59,102,14
1,59,0,57
1,62,93,3
1,62,0,47
1,64,87,7
1,62,98,74
1,64,0,2
1,62,0,297
1,62,101,364
1,62,0,441
1,62,95,34
1,62,0,89
1,62,89,17
1,62,0,112
1,64,89,4
1,64,0,66
1,62,97,10
1,62,0,299
1,59,98,317
1,59,0,59
1,62,100,2
1,62,0,53
1,62,94,21
1,62,0,378
1,64,96,10
1,66,89,139
1,64,0,1
1,66,0,59
1,64,97,17
1,62,94,104
1,64,0,3
1,62,0,326
1,52,118,0
1,52,0,545
1,52,102,55
1,52,0,31
1,52,98,22
1,52,0,42
1,55,106,27
1,55,0,37
1,62,105,20
1,62,0,44
1,62,90,14
1,62,0,452
1,59,100,23
1,62,91,64
1,59,0,9
1,62,0,31
1,64,102,21
1,64,0,61
1,62,107,9
1,62,0,429
1,52,118,944
1,52,0,545
1,52,102,55
1,52,0,31
1,52,98,22
1,52,0,42
1,55,106,27
1,55,0,37
1,62,105,20
1,62,0,44
1,62,90,14
1,62,0,452
1,59,100,23
1,62,91,64
1,59,0,9
1,62,0,31
1,64,102,21
1,64,0,61
1,62,107,9
1,62,0,429
1,67,96,0
1,67,0,719
1,66,96,1
1,66,0,719
1,67,96,1
1,67,0,719
1,66,96,1
1,66,0,719
1,67,96,1
1,67,0,719
1,66,96,1
1,66,0,719
1,67,96,1
1,67,0,719
1,66,96,1
1,66,0,719
1,55,96,1
1,55,0,719
1,59,96,1
1,59,0,359
1,67,96,1
1,67,0,359
1,66,96,1
1,66,0,359
1,67,96,1081
1,67,0,719
1,59,96,1
1,59,0,359
1,67,96,1
1,67,0,359
1,66,96,1
1,66,0,359
1,67,127,14
1,67,0,117
1,67,90,14
1,67,0,449
1,67,102,62
1,67,0,34
1,66,113,24
1,66,0,74
1,62,91,14
1,62,0,539
1,59,96,47
1,59,0,39
1,62,103,8
1,62,0,43
1,62,99,31
1,62,0,511
1,59,102,14
1,59,0,57
1,62,93,3
1,62,0,47
1,64,87,7
1,62,98,74
1,64,0,2
1,62,0,297
1,62,101,364
1,62,0,441
1,62,95,34
1,62,0,89
1,62,89,17
1,62,0,112
1,64,89,4
1,64,0,66
1,62,97,10
1,62,0,299
1,59,98,317
1,59,0,59
1,62,100,2
1,62,0,53
1,62,94,21
1,62,0,378
1,64,96,10
1,66,89,139
1,64,0,1
1,66,0,59
1,64,97,17
1,62,94,104
1,64,0,3
1,62,0,326
1,52,118,0
1,52,0,545
1,52,102,55
1,52,0,31
1,52,98,22
1,52,0,42
1,55,106,27
1,55,0,37
1,62,105,20
1,62,0,44
1,62,90,14
1,62,0,452
1,59,100,23
1,62,91,64
1,59,0,9
1,62,0,31
1,64,102,21
1,64,0,61
1,62,107,9
1,62,0,429
1,52,118,944
1,52,0,545
1,52,102,55
1,52,0,31
1,52,98,22
1,52,0,42
1,55,106,27
1,55,0,37
1,62,105,20
1,62,0,44
1,62,90,14
1,62,0,452
1,59,100,23
1,62,91,64
1,59,0,9
1,62,0,31
1,64,102,21
1,64,0,61
1,62,107,9
1,62,0,429
1,67,127,14
1,67,0,117
1,67,90,14
1,67,0,449
1,67,102,62
1,67,0,34
1,66,113,24
1,66,0,74
1,62,91,14
1,62,0,539
1,59,96,47
1,59,0,39
1,62,103,8
1,62,0,43
1,62,99,31
1,62,0,511
1,59,102,14
1,59,0,57
1,62,93,3
1,62,0,47
1,64,87,7
1,62,98,74
1,64,0,2
1,62,0,297
1,62,101,364
1,62,0,441
1,62,95,34
1,62,0,89
1,62,89,17
1,62,0,112
1,64,89,4
1,64,0,66
1,62,97,10
1,62,0,299
1,52,118,0
1,52,0,545
1,52,102,55
1,52,0,31
1,52,98,22
1,52,0,42
1,55,106,27
1,55,0,37
1,62,105,20
1,62,0,44
1,62,90,14
1,62,0,452
1,59,100,23
1,62,91,64
1,59,0,9
1,62,0,31
1,64,102,21
1,64,0,61
1,62,107,9
1,62,0,429
1,52,118,944
1,52,0,545
1,52,102,55
1,52,0,31
1,52,98,22
1,52,0,42
1,55,106,27
1,55,0,37
1,62,105,20
1,62,0,44
1,62,90,14
1,62,0,452
1,59,100,23
1,62,91,64
1,59,0,9
1,62,0,31
1,64,102,21
1,64,0,61
1,62,107,9
1,62,0,429
1,55,90,0
1,55,0,719
1,59,90,1
1,59,0,359
1,67,90,1
1,67,0,359
1,66,90,1
1,66,0,359
1,67,90,1081
1,67,0,719
1,59,90,1
1,59,0,359
1,67,90,1
1,67,0,359
1,66,90,1
1,66,0,359
1,55,90,1081
1,55,0,719
1,59,90,1
1,59,0,359
1,67,90,1
1,67,0,359
1,66,90,1
1,66,0,359
1,67,90,1081
1,67,0,719
1,59,90,1
1,59,0,359
1,67,90,1
1,67,0,359
1,66,90,1
1,66,0,359
1,55,90,1081
1,55,0,719
1,59,90,1
1,59,0,359
1,67,90,1
1,67,0,359
1,66,90,1
1,66,0,359
1,67,90,1081
1,67,0,719
1,59,90,1
1,59,0,359
1,67,90,1
1,67,0,359
1,66,90,1
1,66,0,359
1,55,90,1081
1,55,0,719
1,59,90,1
1,59,0,359
1,67,90,1
1,67,0,359
1,66,90,1
1,66,0,359
2,57,100,1
2,57,0,559
2,57,102,40
2,57,0,31
2,57,98,29
2,57,0,42
2,57,106,20
2,57,0,37
2,55,105,20
2,55,0,44
2,55,90,14
2,55,0,452
2,50,100,23
2,54,91,64
2,50,0,9
2,54,0,31
2,55,102,21
2,55,0,61
2,54,107,9
2,54,0,429
2,57,100,6704
2,57,0,559
2,57,102,41
2,57,0,31
2,57,98,29
2,57,0,42
2,57,106,20
2,57,0,37
2,55,105,20
2,55,0,44
2,55,90,14
2,55,0,452
2,50,100,23
2,54,91,64
2,50,0,9
2,54,0,31
2,55,102,21
2,55,0,61
2,54,107,9
2,54,0,429
2,57,100,944
2,57,0,559
2,57,102,41
2,57,0,31
2,57,98,29
2,57,0,42
2,57,106,20
2,57,0,37
2,55,105,20
2,55,0,44
2,55,90,14
2,55,0,452
2,50,100,23
2,54,91,64
2,50,0,9
2,54,0,31
2,55,102,21
2,55,0,61
2,54,107,9
2,54,0,429
2,59,90,0
2,59,0,709
2,57,90,11
2,57,0,709
2,59,90,11
2,59,0,709
2,57,90,11
2,57,0,709
2,59,90,11
2,59,0,709
2,57,90,11
2,57,0,709
2,59,90,11
2,59,0,709
2,57,90,11
2,57,0,709
2,57,90,11
2,57,0,719
2,55,90,1
2,55,0,719
2,54,90,1
2,54,0,719
2,57,90,721
2,57,0,719
2,55,90,1
2,55,0,719
2,54,90,1
2,54,0,719
2,57,100,1
2,57,0,559
2,57,102,40
2,57,0,31
2,57,98,29
2,57,0,42
2,57,106,20
2,57,0,37
2,55,105,20
2,55,0,44
2,55,90,14
2,55,0,452
2,50,100,23
2,54,91,64
2,50,0,9
2,54,0,31
2,55,102,21
2,55,0,61
2,54,107,9
2,54,0,429
2,57,100,944
2,57,0,559
2,57,102,41
2,57,0,31
2,57,98,29
2,57,0,42
2,57,106,20
2,57,0,37
2,55,105,20
2,55,0,44
2,55,90,14
2,55,0,452
2,50,100,23
2,54,91,64
2,50,0,9
2,54,0,31
2,55,102,21
2,55,0,61
2,54,107,9
2,54,0,429
2,67,127,14
2,67,0,117
2,67,90,14
2,67,0,449
2,67,102,62
2,67,0,34
2,66,113,24
2,66,0,74
2,62,91,14
2,62,0,539
2,59,96,47
2,59,0,39
2,62,103,8
2,62,0,43
2,62,99,31
2,62,0,511
2,59,102,14
2,59,0,57
2,62,93,3
2,62,0,47
2,64,87,7
2,62,98,74
2,64,0,2
2,62,0,297
2,62,101,364
2,62,0,441
2,62,95,34
2,62,0,89
2,62,89,17
2,62,0,112
2,64,89,4
2,64,0,66
2,62,97,10
2,62,0,299
2,59,108,317
2,59,0,59
2,62,110,2
2,62,0,53
2,62,114,21
2,62,0,378
2,64,116,10
2,66,109,139
2,64,0,1
2,66,0,59
2,64,117,17
2,62,114,104
2,64,0,3
2,62,0,326
2,57,100,1
2,57,0,559
2,57,102,40
2,57,0,31
2,57,98,29
2,57,0,42
2,57,106,20
2,57,0,37
2,55,105,20
2,55,0,44
2,55,90,14
2,55,0,452
2,50,100,23
2,54,91,64
2,50,0,9
2,54,0,31
2,55,102,21
2,55,0,61
2,54,107,9
2,54,0,429
2,57,100,944
2,57,0,559
2,57,102,41
2,57,0,31
2,57,98,29
2,57,0,42
2,57,106,20
2,57,0,37
2,55,105,20
2,55,0,44
2,55,90,14
2,55,0,452
2,50,100,23
2,54,91,64
2,50,0,9
2,54,0,31
2,55,102,21
2,55,0,61
2,54,107,9
2,54,0,429
2,57,90,0
2,57,0,719
2,55,90,1
2,55,0,719
2,54,90,1
2,54,0,719
2,57,90,721
2,57,0,719
2,55,90,1
2,55,0,719
2,54,90,1
2,54,0,719
2,57,90,721
2,57,0,719
2,55,90,1
2,55,0,719
2,54,90,1
2,54,0,719
2,57,90,721
2,57,0,719
2,55,90,1
2,55,0,719
2,54,90,1
2,54,0,719
2,57,90,721
2,57,0,719
2,55,90,1
2,55,0,719
2,54,90,1
2,54,0,719
2,57,90,721
2,57,0,719
2,55,90,1
2,55,0,719
2,54,90,1
2,54,0,719
2,57,90,721
2,57,0,719
2,55,90,1
2,55,0,719
2,54,90,1
2,54,0,719
3,43,70,0
3,55,70,60
3,62,70,60
3,55,0,39
3,67,70,21
3,62,0,39
3,62,70,21
3,67,0,39
3,55,70,21
3,62,0,39
3,47,70,21
3,55,0,29
3,43,0,0
3,55,70,31
3,62,70,60
3,55,0,39
3,67,70,21
3,62,0,39
3,62,70,21
3,67,0,29
3,55,70,31
3,62,0,39
3,50,70,21
3,55,0,39
3,47,0,0
3,57,70,21
3,62,70,60
3,57,0,39
3,66,70,21
3,62,0,39
3,62,70,21
3,66,0,39
3,57,70,21
3,62,0,39
3,45,70,21
3,50,0,29
3,57,0,10
3,57,70,21
3,62,70,60
3,57,0,39
3,66,70,21
3,62,0,29
3,62,70,31
3,66,0,39
3,57,70,21
3,62,0,39
3,43,70,21
3,45,0,19
3,57,0,10
3,55,70,31
3,62,70,60
3,55,0,39
3,67,70,21
3,62,0,39
3,62,70,21
3,67,0,39
3,55,70,21
3,62,0,39
3,47,70,21
3,55,0,29
3,43,0,0
3,55,70,31
3,62,70,60
3,55,0,39
3,67,70,21
3,62,0,39
3,62,70,21
3,67,0,29
3,55,70,31
3,62,0,39
3,50,70,21
3,55,0,39
3,47,0,0
3,57,70,21
3,62,70,60
3,57,0,39
3,66,70,21
3,62,0,39
3,62,70,21
3,66,0,39
3,57,70,21
3,62,0,39
3,45,70,21
3,50,0,29
3,57,0,10
3,57,70,21
3,62,70,60
3,57,0,39
3,66,70,21
3,62,0,29
3,62,70,31
3,66,0,39
3,57,70,21
3,62,0,39
3,43,70,21
3,45,0,19
3,57,0,10
3,55,70,31
3,62,70,60
3,55,0,39
3,67,70,21
3,62,0,39
3,62,70,21
3,67,0,39
3,55,70,21
3,62,0,39
3,47,70,21
3,55,0,29
3,43,0,0
3,55,70,31
3,62,70,60
3,55,0,39
3,67,70,21
3,62,0,39
3,62,70,21
3,67,0,29
3,55,70,31
3,62,0,39
3,50,70,21
3,55,0,39
3,47,0,0
3,57,70,21
3,62,70,60
3,57,0,39
3,66,70,21
3,62,0,39
3,62,70,21
3,66,0,39
3,57,70,21
3,62,0,39
3,45,70,21
3,50,0,29
3,57,0,10
3,57,70,21
3,62,70,60
3,57,0,39
3,66,70,21
3,62,0,29
3,62,70,31
3,66,0,39
3,57,70,21
3,62,0,39
3,43,70,21
3,45,0,19
3,57,0,10
3,55,70,31
3,62,70,60
3,55,0,39
3,67,70,21
3,62,0,39
3,62,70,21
3,67,0,39
3,55,70,21
3,62,0,39
3,47,70,21
3,55,0,29
3,43,0,0
3,55,70,31
3,62,70,60
3,55,0,39
3,67,70,21
3,62,0,39
3,62,70,21
3,67,0,29
3,55,70,31
3,62,0,39
3,50,70,21
3,55,0,39
3,47,0,0
3,57,70,21
3,62,70,60
3,57,0,39
3,66,70,21
3,62,0,39
3,62,70,21
3,66,0,39
3,57,70,21
3,62,0,39
3,45,70,21
3,50,0,29
3,57,0,10
3,57,70,21
3,62,70,60
3,57,0,39
3,66,70,21
3,62,0,29
3,62,70,31
3,66,0,39
3,57,70,21
3,62,0,39
3,43,70,21
3,45,0,19
3,57,0,10
3,55,70,31
3,62,70,60
3,55,0,39
3,67,70,21
3,62,0,39
3,62,70,21
3,67,0,39
3,55,70,21
3,62,0,39
3,47,70,21
3,55,0,29
3,43,0,0
3,55,70,31
3,62,70,60
3,55,0,39
3,67,70,21
3,62,0,39
3,62,70,21
3,67,0,29
3,55,70,31
3,62,0,39
3,50,70,21
3,55,0,39
3,47,0,0
3,57,70,21
3,62,70,60
3,57,0,39
3,66,70,21
3,62,0,39
3,62,70,21
3,66,0,39
3,57,70,21
3,62,0,39
3,45,70,21
3,50,0,29
3,57,0,10
3,57,70,21
3,62,70,60
3,57,0,39
3,66,70,21
3,62,0,29
3,62,70,31
3,66,0,39
3,57,70,21
3,62,0,39
3,43,70,21
3,45,0,19
3,57,0,10
3,55,70,31
3,62,70,60
3,55,0,39
3,67,70,21
3,62,0,39
3,62,70,21
3,67,0,39
3,55,70,21
3,62,0,39
3,47,70,21
3,55,0,29
3,43,0,0
3,55,70,31
3,62,70,60
3,55,0,39
3,67,70,21
3,62,0,39
3,62,70,21
3,67,0,29
3,55,70,31
3,62,0,39
3,50,70,21
3,55,0,39
3,47,0,0
3,57,70,21
3,62,70,60
3,57,0,39
3,66,70,21
3,62,0,39
3,62,70,21
3,66,0,39
3,57,70,21
3,62,0,39
3,45,70,21
3,50,0,29
3,57,0,10
3,57,70,21
3,62,70,60
3,57,0,39
3,66,70,21
3,62,0,29
3,62,70,31
3,66,0,39
3,57,70,21
3,62,0,39
3,45,0,10
3,57,0,10
3,40,90,1
3,52,90,10
3,45,90,0
3,64,90,10
3,60,90,0
3,57,90,0
3,40,0,669
3,52,0,10
3,45,0,0
3,64,0,10
3,60,0,0
3,57,0,0
3,40,90,11
3,52,90,10
3,47,90,0
3,64,90,10
3,59,90,0
3,55,90,0
3,59,0,639
3,64,0,10
3,52,0,10
3,40,0,0
