track,note,velocity,time
3,67,113,2
3,67,0,449
3,67,102,29
3,67,0,89
3,67,88,29
3,67,0,89
3,66,97,36
3,66,0,119
3,62,92,6
3,62,0,299
3,59,94,245
3,59,0,54
3,62,99,6
3,62,0,59
3,62,97,7
3,62,0,509
3,59,98,14
3,59,0,59
3,62,99,2
3,62,0,44
3,64,96,12
3,62,93,71
3,64,0,3
3,62,0,346
3,59,96,254
3,59,0,41
3,62,103,13
3,62,0,59
3,62,94,2
3,62,0,485
3,59,102,49
3,62,93,52
3,59,0,7
3,64,93,62
3,62,0,5
3,64,0,46
3,62,93,17
3,62,0,299
3,59,95,291
3,59,0,47
3,62,103,10
3,62,0,37
3,62,94,21
3,62,0,455
3,64,98,76
3,66,96,58
3,64,0,7
3,66,0,43
3,64,96,20
3,62,91,71
3,64,0,1
3,62,0,308
3,57,109,339
3,57,0,558
3,57,96,52
3,57,0,31
3,57,98,16
3,57,0,59
3,59,106,12
3,59,0,40
3,62,101,19
3,62,0,44
3,62,90,14
3,62,0,479
3,59,98,18
3,59,0,44
3,62,95,1
3,62,0,59
3,64,106,9
3,64,0,53
3,62,103,18
3,62,0,409
3,52,118,0
3,52,0,545
3,52,102,55
3,52,0,31
3,52,98,22
3,52,0,42
3,55,106,27
3,55,0,37
3,62,105,20
3,62,0,44
3,62,90,14
3,62,0,452
3,59,100,23
3,62,91,64
3,59,0,9
3,62,0,31
3,64,102,21
3,64,0,61
3,62,107,9
3,62,0,429
3,62,99,74
3,62,0,34
3,67,127,26
3,67,0,117
3,67,90,14
3,67,0,449
3,67,102,62
3,67,0,34
3,66,113,24
3,66,0,74
3,62,91,14
3,62,0,539
3,59,96,47
3,59,0,39
3,62,103,8
3,62,0,43
3,62,99,31
3,62,0,511
3,59,102,14
3,59,0,57
3,62,93,3
3,62,0,47
3,64,87,7
3,62,98,74
3,64,0,2
3,62,0,297
3,62,101,364
3,62,0,441
3,62,95,34
3,62,0,89
3,62,89,17
3,62,0,112
3,64,89,4
3,64,0,66
3,62,97,10
3,62,0,299
3,59,98,317
3,59,0,59
3,62,100,2
3,62,0,53
3,62,94,21
3,62,0,378
3,64,96,10
3,66,89,139
3,64,0,1
3,66,0,59
3,64,97,17
3,62,94,104
3,64,0,3
3,62,0,326
3,52,118,0
3,52,0,545
3,52,102,55
3,52,0,31
3,52,98,22
3,52,0,42
3,55,106,27
3,55,0,37
3,62,105,20
3,62,0,44
3,62,90,14
3,62,0,452
3,59,100,23
3,62,91,64
3,59,0,9
3,62,0,31
3,64,102,21
3,64,0,61
3,62,107,9
3,62,0,429
3,52,118,944
3,52,0,545
3,52,102,55
3,52,0,31
3,52,98,22
3,52,0,42
3,55,106,27
3,55,0,37
3,62,105,20
3,62,0,44
3,62,90,14
3,62,0,452
3,59,100,23
3,62,91,64
3,59,0,9
3,62,0,31
3,64,102,21
3,64,0,61
3,62,107,9
3,62,0,429
3,67,96,0
3,67,0,719
3,66,96,1
3,66,0,719
3,67,96,1
3,67,0,719
3,66,96,1
3,66,0,719
3,67,96,1
3,67,0,719
3,66,96,1
3,66,0,719
3,67,96,1
3,67,0,719
3,66,96,1
3,66,0,719
3,55,96,1
3,55,0,719
3,59,96,1
3,59,0,359
3,67,96,1
3,67,0,359
3,66,96,1
3,66,0,359
3,67,96,1081
3,67,0,719
3,59,96,1
3,59,0,359
3,67,96,1
3,67,0,359
3,66,96,1
3,66,0,359
3,67,127,14
3,67,0,117
3,67,90,14
3,67,0,449
3,67,102,62
3,67,0,34
3,66,113,24
3,66,0,74
3,62,91,14
3,62,0,539
3,59,96,47
3,59,0,39
3,62,103,8
3,62,0,43
3,62,99,31
3,62,0,511
3,59,102,14
3,59,0,57
3,62,93,3
3,62,0,47
3,64,87,7
3,62,98,74
3,64,0,2
3,62,0,297
3,62,101,364
3,62,0,441
3,62,95,34
3,62,0,89
3,62,89,17
3,62,0,112
3,64,89,4
3,64,0,66
3,62,97,10
3,62,0,299
3,59,98,317
3,59,0,59
3,62,100,2
3,62,0,53
3,62,94,21
3,62,0,378
3,64,96,10
3,66,89,139
3,64,0,1
3,66,0,59
3,64,97,17
3,62,94,104
3,64,0,3
3,62,0,326
3,52,118,0
3,52,0,545
3,52,102,55
3,52,0,31
3,52,98,22
3,52,0,42
3,55,106,27
3,55,0,37
3,62,105,20
3,62,0,44
3,62,90,14
3,62,0,452
3,59,100,23
3,62,91,64
3,59,0,9
3,62,0,31
3,64,102,21
3,64,0,61
3,62,107,9
3,62,0,429
3,52,118,944
3,52,0,545
3,52,102,55
3,52,0,31
3,52,98,22
3,52,0,42
3,55,106,27
3,55,0,37
3,62,105,20
3,62,0,44
3,62,90,14
3,62,0,452
3,59,100,23
3,62,91,64
3,59,0,9
3,62,0,31
3,64,102,21
3,64,0,61
3,62,107,9
3,62,0,429
3,67,127,14
3,67,0,117
3,67,90,14
3,67,0,449
3,67,102,62
3,67,0,34
3,66,113,24
3,66,0,74
3,62,91,14
3,62,0,539
3,59,96,47
3,59,0,39
3,62,103,8
3,62,0,43
3,62,99,31
3,62,0,511
3,59,102,14
3,59,0,57
3,62,93,3
3,62,0,47
3,64,87,7
3,62,98,74
3,64,0,2
3,62,0,297
3,62,101,364
3,62,0,441
3,62,95,34
3,62,0,89
3,62,89,17
3,62,0,112
3,64,89,4
3,64,0,66
3,62,97,10
3,62,0,299
3,52,118,0
3,52,0,545
3,52,102,55
3,52,0,31
3,52,98,22
3,52,0,42
3,55,106,27
3,55,0,37
3,62,105,20
3,62,0,44
3,62,90,14
3,62,0,452
3,59,100,23
3,62,91,64
3,59,0,9
3,62,0,31
3,64,102,21
3,64,0,61
3,62,107,9
3,62,0,429
3,52,118,944
3,52,0,545
3,52,102,55
3,52,0,31
3,52,98,22
3,52,0,42
3,55,106,27
3,55,0,37
3,62,105,20
3,62,0,44
3,62,90,14
3,62,0,452
3,59,100,23
3,62,91,64
3,59,0,9
3,62,0,31
3,64,102,21
3,64,0,61
3,62,107,9
3,62,0,429
3,55,90,0
3,55,0,719
3,59,90,1
3,59,0,359
3,67,90,1
3,67,0,359
3,66,90,1
3,66,0,359
3,67,90,1081
3,67,0,719
3,59,90,1
3,59,0,359
3,67,90,1
3,67,0,359
3,66,90,1
3,66,0,359
3,55,90,1081
3,55,0,719
3,59,90,1
3,59,0,359
3,67,90,1
3,67,0,359
3,66,90,1
3,66,0,359
3,67,90,1081
3,67,0,719
3,59,90,1
3,59,0,359
3,67,90,1
3,67,0,359
3,66,90,1
3,66,0,359
3,55,90,1081
3,55,0,719
3,59,90,1
3,59,0,359
3,67,90,1
3,67,0,359
3,66,90,1
3,66,0,359
3,67,90,1081
3,67,0,719
3,59,90,1
3,59,0,359
3,67,90,1
3,67,0,359
3,66,90,1
3,66,0,359
3,55,90,1081
3,55,0,719
3,59,90,1
3,59,0,359
3,67,90,1
3,67,0,359
3,66,90,1
3,66,0,359
4,57,100,1
4,57,0,559
4,57,102,40
4,57,0,31
4,57,98,29
4,57,0,42
4,57,106,20
4,57,0,37
4,55,105,20
4,55,0,44
4,55,90,14
4,55,0,452
4,50,100,23
4,54,91,64
4,50,0,9
4,54,0,31
4,55,102,21
4,55,0,61
4,54,107,9
4,54,0,429
4,57,100,6704
4,57,0,559
4,57,102,41
4,57,0,31
4,57,98,29
4,57,0,42
4,57,106,20
4,57,0,37
4,55,105,20
4,55,0,44
4,55,90,14
4,55,0,452
4,50,100,23
4,54,91,64
4,50,0,9
4,54,0,31
4,55,102,21
4,55,0,61
4,54,107,9
4,54,0,429
4,57,100,944
4,57,0,559
4,57,102,41
4,57,0,31
4,57,98,29
4,57,0,42
4,57,106,20
4,57,0,37
4,55,105,20
4,55,0,44
4,55,90,14
4,55,0,452
4,50,100,23
4,54,91,64
4,50,0,9
4,54,0,31
4,55,102,21
4,55,0,61
4,54,107,9
4,54,0,429
4,59,90,0
4,59,0,709
4,57,90,11
4,57,0,709
4,59,90,11
4,59,0,709
4,57,90,11
4,57,0,709
4,59,90,11
4,59,0,709
4,57,90,11
4,57,0,709
4,59,90,11
4,59,0,709
4,57,90,11
4,57,0,709
4,57,90,11
4,57,0,719
4,55,90,1
4,55,0,719
4,54,90,1
4,54,0,719
4,57,90,721
4,57,0,719
4,55,90,1
4,55,0,719
4,54,90,1
4,54,0,719
4,57,100,1
4,57,0,559
4,57,102,40
4,57,0,31
4,57,98,29
4,57,0,42
4,57,106,20
4,57,0,37
4,55,105,20
4,55,0,44
4,55,90,14
4,55,0,452
4,50,100,23
4,54,91,64
4,50,0,9
4,54,0,31
4,55,102,21
4,55,0,61
4,54,107,9
4,54,0,429
4,57,100,944
4,57,0,559
4,57,102,41
4,57,0,31
4,57,98,29
4,57,0,42
4,57,106,20
4,57,0,37
4,55,105,20
4,55,0,44
4,55,90,14
4,55,0,452
4,50,100,23
4,54,91,64
4,50,0,9
4,54,0,31
4,55,102,21
4,55,0,61
4,54,107,9
4,54,0,429
4,67,127,14
4,67,0,117
4,67,90,14
4,67,0,449
4,67,102,62
4,67,0,34
4,66,113,24
4,66,0,74
4,62,91,14
4,62,0,539
4,59,96,47
4,59,0,39
4,62,103,8
4,62,0,43
4,62,99,31
4,62,0,511
4,59,102,14
4,59,0,57
4,62,93,3
4,62,0,47
4,64,87,7
4,62,98,74
4,64,0,2
4,62,0,297
4,62,101,364
4,62,0,441
4,62,95,34
4,62,0,89
4,62,89,17
4,62,0,112
4,64,89,4
4,64,0,66
4,62,97,10
4,62,0,299
4,59,108,317
4,59,0,59
4,62,110,2
4,62,0,53
4,62,114,21
4,62,0,378
4,64,116,10
4,66,109,139
4,64,0,1
4,66,0,59
4,64,117,17
4,62,114,104
4,64,0,3
4,62,0,326
4,57,100,1
4,57,0,559
4,57,102,40
4,57,0,31
4,57,98,29
4,57,0,42
4,57,106,20
4,57,0,37
4,55,105,20
4,55,0,44
4,55,90,14
4,55,0,452
4,50,100,23
4,54,91,64
4,50,0,9
4,54,0,31
4,55,102,21
4,55,0,61
4,54,107,9
4,54,0,429
4,57,100,944
4,57,0,559
4,57,102,41
4,57,0,31
4,57,98,29
4,57,0,42
4,57,106,20
4,57,0,37
4,55,105,20
4,55,0,44
4,55,90,14
4,55,0,452
4,50,100,23
4,54,91,64
4,50,0,9
4,54,0,31
4,55,102,21
4,55,0,61
4,54,107,9
4,54,0,429
4,57,90,0
4,57,0,719
4,55,90,1
4,55,0,719
4,54,90,1
4,54,0,719
4,57,90,721
4,57,0,719
4,55,90,1
4,55,0,719
4,54,90,1
4,54,0,719
4,57,90,721
4,57,0,719
4,55,90,1
4,55,0,719
4,54,90,1
4,54,0,719
4,57,90,721
4,57,0,719
4,55,90,1
4,55,0,719
4,54,90,1
4,54,0,719
4,57,90,721
4,57,0,719
4,55,90,1
4,55,0,719
4,54,90,1
4,54,0,719
4,57,90,721
4,57,0,719
4,55,90,1
4,55,0,719
4,54,90,1
4,54,0,719
4,57,90,721
4,57,0,719
4,55,90,1
4,55,0,719
4,54,90,1
4,54,0,719
5,43,70,0
5,55,70,60
5,62,70,60
5,55,0,39
5,67,70,21
5,62,0,39
5,62,70,21
5,67,0,39
5,55,70,21
5,62,0,39
5,47,70,21
5,55,0,29
5,43,0,0
5,55,70,31
5,62,70,60
5,55,0,39
5,67,70,21
5,62,0,39
5,62,70,21
5,67,0,29
5,55,70,31
5,62,0,39
5,50,70,21
5,55,0,39
5,47,0,0
5,57,70,21
5,62,70,60
5,57,0,39
5,66,70,21
5,62,0,39
5,62,70,21
5,66,0,39
5,57,70,21
5,62,0,39
5,45,70,21
5,50,0,29
5,57,0,10
5,57,70,21
5,62,70,60
5,57,0,39
5,66,70,21
5,62,0,29
5,62,70,31
5,66,0,39
5,57,70,21
5,62,0,39
5,43,70,21
5,45,0,19
5,57,0,10
5,55,70,31
5,62,70,60
5,55,0,39
5,67,70,21
5,62,0,39
5,62,70,21
5,67,0,39
5,55,70,21
5,62,0,39
5,47,70,21
5,55,0,29
5,43,0,0
5,55,70,31
5,62,70,60
5,55,0,39
5,67,70,21
5,62,0,39
5,62,70,21
5,67,0,29
5,55,70,31
5,62,0,39
5,50,70,21
5,55,0,39
5,47,0,0
5,57,70,21
5,62,70,60
5,57,0,39
5,66,70,21
5,62,0,39
5,62,70,21
5,66,0,39
5,57,70,21
5,62,0,39
5,45,70,21
5,50,0,29
5,57,0,10
5,57,70,21
5,62,70,60
5,57,0,39
5,66,70,21
5,62,0,29
5,62,70,31
5,66,0,39
5,57,70,21
5,62,0,39
5,43,70,21
5,45,0,19
5,57,0,10
5,55,70,31
5,62,70,60
5,55,0,39
5,67,70,21
5,62,0,39
5,62,70,21
5,67,0,39
5,55,70,21
5,62,0,39
5,47,70,21
5,55,0,29
5,43,0,0
5,55,70,31
5,62,70,60
5,55,0,39
5,67,70,21
5,62,0,39
5,62,70,21
5,67,0,29
5,55,70,31
5,62,0,39
5,50,70,21
5,55,0,39
5,47,0,0
5,57,70,21
5,62,70,60
5,57,0,39
5,66,70,21
5,62,0,39
5,62,70,21
5,66,0,39
5,57,70,21
5,62,0,39
5,45,70,21
5,50,0,29
5,57,0,10
5,57,70,21
5,62,70,60
5,57,0,39
5,66,70,21
5,62,0,29
5,62,70,31
5,66,0,39
5,57,70,21
5,62,0,39
5,43,70,21
5,45,0,19
5,57,0,10
5,55,70,31
5,62,70,60
5,55,0,39
5,67,70,21
5,62,0,39
5,62,70,21
5,67,0,39
5,55,70,21
5,62,0,39
5,47,70,21
5,55,0,29
5,43,0,0
5,55,70,31
5,62,70,60
5,55,0,39
5,67,70,21
5,62,0,39
5,62,70,21
5,67,0,29
5,55,70,31
5,62,0,39
5,50,70,21
5,55,0,39
5,47,0,0
5,57,70,21
5,62,70,60
5,57,0,39
5,66,70,21
5,62,0,39
5,62,70,21
5,66,0,39
5,57,70,21
5,62,0,39
5,45,70,21
5,50,0,29
5,57,0,10
5,57,70,21
5,62,70,60
5,57,0,39
5,66,70,21
5,62,0,29
5,62,70,31
5,66,0,39
5,57,70,21
5,62,0,39
5,43,70,21
5,45,0,19
5,57,0,10
5,55,70,31
5,62,70,60
5,55,0,39
5,67,70,21
5,62,0,39
5,62,70,21
5,67,0,39
5,55,70,21
5,62,0,39
5,47,70,21
5,55,0,29
5,43,0,0
5,55,70,31
5,62,70,60
5,55,0,39
5,67,70,21
5,62,0,39
5,62,70,21
5,67,0,29
5,55,70,31
5,62,0,39
5,50,70,21
5,55,0,39
5,47,0,0
5,57,70,21
5,62,70,60
5,57,0,39
5,66,70,21
5,62,0,39
5,62,70,21
5,66,0,39
5,57,70,21
5,62,0,39
5,45,70,21
5,50,0,29
5,57,0,10
5,57,70,21
5,62,70,60
5,57,0,39
5,66,70,21
5,62,0,29
5,62,70,31
5,66,0,39
5,57,70,21
5,62,0,39
5,43,70,21
5,45,0,19
5,57,0,10
5,55,70,31
5,62,70,60
5,55,0,39
5,67,70,21
5,62,0,39
5,62,70,21
5,67,0,39
5,55,70,21
5,62,0,39
5,47,70,21
5,55,0,29
5,43,0,0
5,55,70,31
5,62,70,60
5,55,0,39
5,67,70,21
5,62,0,39
5,62,70,21
5,67,0,29
5,55,70,31
5,62,0,39
5,50,70,21
5,55,0,39
5,47,0,0
5,57,70,21
5,62,70,60
5,57,0,39
5,66,70,21
5,62,0,39
5,62,70,21
5,66,0,39
5,57,70,21
5,62,0,39
5,45,70,21
5,50,0,29
5,57,0,10
5,57,70,21
5,62,70,60
5,57,0,39
5,66,70,21
5,62,0,29
5,62,70,31
5,66,0,39
5,57,70,21
5,62,0,39
5,45,0,10
5,57,0,10
5,40,90,1
5,52,90,10
5,45,90,0
5,64,90,10
5,60,90,0
5,57,90,0
5,40,0,669
5,52,0,10
5,45,0,0
5,64,0,10
5,60,0,0
5,57,0,0
5,40,90,11
5,52,90,10
5,47,90,0
5,64,90,10
5,59,90,0
5,55,90,0
5,59,0,639
5,64,0,10
5,52,0,10
5,40,0,0
