track,note,velocity,time
1,71,75,1752
1,72,78,390
1,76,78,104
1,79,78,218
1,83,78,94
1,83,75,20
1,81,78,378
1,83,78,380
1,84,78,374
1,81,75,730
1,79,78,348
1,69,75,752
1,83,73,14
1,91,73,130
1,83,66,82
1,81,73,72
1,89,73,112
1,81,64,88
1,79,73,80
1,88,72,102
1,79,64,70
1,77,73,116
1,86,75,108
1,77,64,74
1,84,82,98
1,76,82,4
1,84,73,288
1,76,82,4
1,83,81,1002
1,84,78,1912
1,79,78,1106
1,77,75,720
1,76,75,754
1,74,75,380
1,79,73,356
1,77,72,362
1,76,78,2
1,77,78,98
1,79,78,98
1,76,72,1510
1,74,75,1516
1,76,72,258
1,77,75,210
1,79,75,0
1,81,75,254
1,83,78,250
1,84,76,1020
1,81,75,734
1,79,75,1482
1,77,72,746
1,76,78,722
1,74,78,342
1,79,72,342
1,77,75,374
1,76,75,4
1,77,78,108
1,79,73,112
1,72,72,1530
1,88,72,744
1,83,75,21492
1,84,75,768
1,86,73,726
1,79,78,100
1,74,75,108
1,86,82,92
1,79,73,8
1,83,81,1010
1,84,78,1912
1,79,78,1106
1,77,75,720
1,76,75,754
1,74,75,380
1,79,73,356
1,77,72,362
1,76,78,2
1,77,78,98
1,79,78,98
1,76,72,1510
1,74,78,1536
1,76,72,236
1,77,78,210
1,79,81,204
1,81,73,234
1,83,73,270
1,84,76,1008
1,81,75,754
1,79,75,1482
1,77,72,746
1,76,78,722
1,74,78,342
1,79,72,342
1,77,75,374
1,76,75,4
1,77,78,108
1,79,73,112
1,72,72,1540
1,73,75,4
1,85,75,12250
1,87,75,2326
1,89,75,322
1,85,75,352
1,82,75,1524
1,84,72,766
1,86,73,360
1,87,78,352
1,89,75,1134
1,90,75,366
1,85,75,772
1,84,75,734
1,85,75,746
1,87,73,726
1,80,78,100
1,75,75,108
1,87,82,92
1,80,73,8
1,84,81,1010
1,85,78,1912
1,80,78,1106
1,78,75,720
1,77,75,754
1,75,75,380
1,80,73,356
1,78,72,362
1,77,78,2
1,78,78,98
1,80,78,98
1,77,72,1510
1,75,78,1536
1,77,72,236
1,78,78,210
1,80,81,204
1,82,73,234
1,84,73,270
1,85,64,2168
1,80,75,1102
1,78,72,738
1,77,78,722
1,75,78,342
1,80,72,342
1,78,75,374
1,77,75,4
1,78,78,108
1,80,73,112
1,77,73,1534
1,75,73,1512
1,77,73,260
1,78,73,210
1,80,73,252
1,82,78,242
1,84,73,244
1,85,78,2148
1,80,78,1122
1,78,75,720
1,77,75,754
1,75,75,380
1,80,73,356
1,78,72,362
1,77,78,2
1,78,78,98
1,80,78,98
1,77,72,1510
1,75,78,42
1,77,72,84
1,78,78,70
1,80,81,146
1,82,73,4
1,84,73,158
1,85,64,118
1,80,75,38
1,78,72,62
1,77,78,64
1,75,78,86
1,80,72,30
1,78,75,30
1,77,75,4
1,78,78,70
1,80,73,96
1,77,73,38
1,75,73,52
1,77,73,58
1,78,73,82
1,80,73,84
1,82,78,242
1,84,73,244
2,36,91,2652
2,36,82,274
2,36,91,40
2,36,83,96
2,35,82,44
2,34,82,44
2,33,91,36
2,33,82,238
2,33,91,40
2,33,83,96
2,32,82,44
2,31,82,44
2,29,91,36
2,29,82,238
2,29,91,40
2,29,83,96
2,29,82,44
2,30,82,44
2,31,91,36
2,31,82,238
2,33,91,40
2,35,91,96
2,36,91,96
2,36,91,264
2,36,91,1032
2,36,82,274
2,31,91,40
2,36,83,96
2,35,82,44
2,34,82,44
2,33,91,36
2,33,82,238
2,28,91,40
2,29,91,380
2,29,82,238
2,36,91,40
2,41,91,370
2,36,82,238
2,41,91,40
2,40,91,96
2,38,91,76
2,38,82,274
2,33,91,40
2,43,91,386
2,43,82,238
2,31,91,40
2,36,91,380
2,36,82,238
2,36,91,40
2,36,83,96
2,36,82,44
2,37,82,44
2,38,91,36
2,38,82,238
2,43,91,40
2,31,91,96
2,36,91,96
2,36,82,274
2,31,91,40
2,33,91,380
2,33,82,238
2,28,91,40
2,33,87,72
2,29,91,42
2,29,82,238
2,36,91,40
2,41,91,370
2,36,82,238
2,41,91,40
2,40,91,96
2,38,91,76
2,38,82,274
2,38,91,40
2,31,91,386
2,31,82,238
2,31,91,40
2,36,91,380
2,36,82,238
2,43,91,16
2,36,91,384
2,36,82,234
2,31,91,40
2,40,91,380
2,40,82,238
2,35,91,40
2,40,91,84
2,41,91,56
2,41,82,238
2,36,91,40
2,41,91,84
2,43,91,56
2,31,82,238
2,33,91,40
2,35,91,96
2,36,91,76
2,36,82,254
2,31,91,40
2,36,91,76
2,40,91,50
2,40,82,238
2,35,91,40
2,40,91,76
2,41,91,50
2,41,82,238
2,36,91,40
2,41,91,76
2,31,91,50
2,43,84,62
2,38,64,60
2,35,73,66
2,31,91,60
2,32,91,96
2,33,91,96
2,33,82,234
2,33,91,40
2,32,91,380
2,32,82,234
2,32,91,40
2,31,91,380
2,31,82,234
2,31,91,40
2,33,91,380
2,35,91,366
2,37,91,96
2,38,91,76
2,38,82,254
2,33,91,40
2,38,91,76
2,40,82,62
2,41,91,40
2,32,82,238
2,32,91,40
2,32,91,76
2,31,91,50
2,33,91,166
2,31,91,166
2,31,91,264
2,36,91,1032
2,36,82,274
2,31,91,40
2,36,83,96
2,35,82,44
2,34,82,44
2,33,91,36
2,33,82,238
2,28,91,40
2,31,91,64
2,29,91,38
2,29,82,238
2,36,91,40
2,41,91,370
2,36,82,238
2,41,91,40
2,40,91,96
2,38,91,76
2,38,82,274
2,33,91,40
2,43,91,386
2,43,82,238
2,31,91,40
2,31,91,56
2,36,91,56
2,36,82,238
2,36,91,40
2,36,83,96
2,36,82,44
2,37,82,44
2,38,91,36
2,38,82,238
2,31,91,40
2,31,91,96
2,36,91,96
2,36,82,274
2,43,91,40
2,36,91,68
2,33,91,62
2,33,82,238
2,28,91,40
2,33,87,72
2,29,91,42
2,29,82,238
2,36,91,40
2,41,91,370
2,36,82,238
2,41,91,40
2,40,91,96
2,38,91,76
2,38,82,274
2,38,91,40
2,31,91,386
2,31,82,238
2,31,91,40
2,43,91,380
2,44,91,76
2,37,91,76
2,37,82,234
2,32,91,40
2,41,91,380
2,41,82,238
2,36,91,40
2,41,91,84
2,42,91,56
2,42,82,238
2,37,91,40
2,42,91,84
2,44,91,56
2,32,82,238
2,34,91,40
2,36,91,96
2,37,91,76
2,37,82,254
2,32,91,40
2,37,91,76
2,41,91,50
2,41,82,238
2,36,91,40
2,41,91,76
2,42,91,50
2,42,82,238
2,37,91,40
2,42,91,76
2,32,91,50
2,44,84,62
2,39,64,60
2,36,73,66
2,32,91,60
2,33,91,96
2,34,91,96
2,34,82,234
2,34,91,40
2,33,91,380
2,33,82,234
2,33,91,40
2,32,91,380
2,32,82,234
2,32,91,40
2,34,91,380
2,36,91,366
2,38,91,96
2,39,91,76
2,39,82,254
2,34,91,40
2,39,91,76
2,41,82,62
2,42,91,40
2,33,82,238
2,33,91,40
2,33,91,76
2,32,91,50
2,34,91,166
2,32,91,166
2,32,91,264
2,37,91,1032
2,37,82,274
2,32,91,40
2,37,83,96
2,36,82,44
2,35,82,44
2,34,91,36
2,34,82,238
2,29,91,40
2,34,91,56
2,30,91,56
2,30,82,238
2,30,91,40
2,30,91,370
2,37,82,238
2,42,91,40
2,41,91,96
2,39,91,76
2,39,82,274
2,34,91,40
2,39,91,82
2,44,91,62
2,44,82,238
2,32,91,40
2,39,91,76
2,37,91,54
2,37,82,238
2,37,91,40
2,37,83,96
2,37,82,44
2,38,82,44
2,39,91,36
2,39,82,238
2,44,91,40
2,32,91,96
2,37,91,96
2,37,82,274
2,32,91,40
2,34,91,380
2,34,82,238
2,29,91,40
2,34,87,72
2,30,91,42
2,30,82,238
2,42,91,40
2,42,82,242
2,30,91,40
2,30,82,238
2,42,91,40
2,41,91,96
2,39,91,76
2,39,82,274
2,39,91,40
2,32,91,386
2,32,82,238
2,32,91,40
2,32,82,252
2,37,91,40
2,37,82,238
2,37,91,34
2,37,82,238
2,39,91,34
2,39,82,238
2,44,91,34
2,32,91,62
2,37,91,62
2,37,82,274
2,32,91,40
2,37,83,96
2,36,82,44
2,35,82,44
2,34,91,36
2,34,82,238
2,29,91,40
2,34,91,56
2,30,91,56
2,30,82,238
2,30,91,40
2,30,91,370
2,37,82,238
2,42,91,40
2,41,91,96
2,39,91,76
2,39,82,274
2,34,91,40
2,39,91,82
2,44,91,62
2,44,82,238
2,32,91,40
2,39,91,76
2,37,91,54
2,37,82,38
2,37,91,20
2,37,83,46
2,37,82,20
2,38,82,32
2,39,91,36
2,39,82,50
2,44,91,24
2,32,91,50
2,37,91,72
2,37,82,70
2,32,91,40
2,34,91,174
2,34,82,112
2,29,91,40
2,34,87,72
2,30,91,42
2,30,82,20
2,42,91,40
2,42,82,56
2,30,91,14
2,30,82,78
2,42,91,40
2,41,91,52
2,39,91,76
2,39,82,88
2,39,91,38
2,32,91,16
2,32,82,42
2,32,91,40
2,32,82,86
2,37,91,40
2,37,82,14
2,37,91,34
2,37,82,44
2,39,91,34
2,39,82,16
2,44,91,34
2,32,91,62
3,59,64,1734
3,60,64,392
3,64,75,116
3,67,72,216
3,71,87,102
3,71,82,14
3,69,81,6
3,71,84,376
3,72,81,368
3,71,53,0
3,70,52,4
3,69,84,12
3,67,81,380
3,57,81,74
3,55,69,0
3,43,53,8
3,45,72,2
3,47,73,22
3,48,81,8
3,48,82,250
4,60,73,9514
4,62,73,50
4,64,75,30
4,67,73,42
4,71,90,34
4,71,91,122
4,69,82,42
4,71,91,66
4,72,91,92
4,69,82,62
4,67,90,68
4,57,95,60
4,57,73,706
4,59,73,18
4,60,84,40
4,64,73,50
4,67,93,40
4,65,87,82
4,64,93,94
4,62,95,60
4,60,73,12
4,62,82,60
4,64,91,46
4,60,73,1144
4,62,73,50
4,64,75,30
4,67,73,42
4,71,90,34
4,71,91,36
4,71,91,44
4,69,82,42
4,71,91,66
4,72,91,92
4,69,82,62
4,67,90,68
4,57,95,60
4,57,73,704
4,59,73,46
4,60,81,40
4,64,73,62
4,67,93,50
4,65,84,28
4,65,91,200
4,64,91,34
4,62,90,182
4,60,82,60
4,59,64,24
4,62,91,30
4,60,82,86
4,64,73,2678
4,64,73,40
4,62,82,8
4,62,73,44
4,60,82,14
4,60,73,64
4,59,81,6
4,67,82,4
4,64,73,128
4,64,78,240
4,64,91,42
4,65,91,66
4,57,82,60
4,60,91,70
4,64,100,78
4,62,73,12
4,64,73,726
4,64,73,40
4,62,82,8
4,62,73,44
4,60,82,14
4,60,73,64
4,59,81,6
4,67,82,4
4,64,73,128
4,64,78,240
4,64,91,42
4,65,91,66
4,57,82,60
4,60,91,70
4,64,100,78
4,62,73,12
4,64,91,0
4,62,73,148
4,62,91,54
4,60,73,8
4,64,93,10
4,62,73,242
4,62,90,34
4,60,66,2
4,60,64,810
4,60,95,32
4,64,93,120
4,71,91,114
4,67,91,112
4,69,90,94
4,67,87,50
4,65,82,6
4,64,82,74
4,67,87,14
4,65,90,64
4,64,64,68
4,62,82,20
4,60,82,42
4,56,73,298
4,60,82,44
4,62,90,66
4,59,100,4
4,60,73,1896
4,62,73,50
4,64,75,30
4,67,73,42
4,71,90,34
4,71,91,122
4,69,82,42
4,71,91,66
4,72,91,92
4,69,82,62
4,67,90,68
4,57,95,60
4,57,73,706
4,59,73,18
4,60,84,40
4,64,73,50
4,67,93,40
4,65,87,82
4,64,93,94
4,62,95,60
4,60,73,12
4,62,82,60
4,64,91,46
4,60,73,1144
4,62,73,50
4,64,75,30
4,67,73,42
4,71,90,34
4,71,91,36
4,71,91,44
4,69,82,42
4,71,91,66
4,72,91,92
4,69,82,62
4,67,90,68
4,57,95,60
4,57,73,704
4,59,73,46
4,60,81,40
4,64,73,62
4,67,93,50
4,65,84,28
4,65,91,200
4,64,91,34
4,62,90,182
4,60,82,60
4,59,64,24
4,62,91,30
4,60,82,86
4,53,80,2678
4,53,80,40
4,51,89,8
4,51,80,44
4,49,89,14
4,49,80,64
4,48,88,6
4,56,89,4
4,53,80,128
4,53,85,240
4,53,98,42
4,54,98,66
4,46,89,60
4,49,98,70
4,53,107,78
4,51,80,12
4,53,80,726
4,53,80,40
4,51,89,8
4,51,80,44
4,49,89,14
4,49,80,64
4,48,88,6
4,56,89,4
4,53,80,128
4,53,85,240
4,53,98,42
4,54,98,66
4,46,89,60
4,49,98,70
4,53,107,78
4,51,80,12
4,53,98,0
4,51,80,148
4,51,98,54
4,49,80,8
4,53,100,10
4,51,80,242
4,51,97,34
4,49,73,2
4,49,71,810
4,49,102,32
4,53,100,120
4,60,98,114
4,56,98,112
4,58,97,94
4,56,94,50
4,54,89,6
4,53,89,74
4,56,94,14
4,54,97,64
4,53,71,68
4,51,89,20
4,49,89,42
4,45,80,298
4,49,89,44
4,51,97,66
4,48,107,4
4,61,73,1896
4,63,73,50
4,65,75,30
4,68,73,42
4,72,90,34
4,72,91,122
4,70,82,42
4,72,91,66
4,73,91,92
4,70,82,62
4,68,90,68
4,58,95,60
4,58,73,706
4,60,73,18
4,61,84,40
4,65,73,50
4,68,93,40
4,66,87,82
4,65,93,94
4,63,95,60
4,61,73,12
4,63,82,60
4,65,91,46
4,61,73,1144
4,63,73,50
4,65,75,30
4,68,73,42
4,72,90,34
4,72,91,36
4,72,91,44
4,70,82,42
4,72,91,66
4,73,91,92
4,70,82,62
4,68,90,68
4,58,95,60
4,58,73,704
4,60,73,46
4,61,81,40
4,65,73,62
4,68,93,50
4,66,84,28
4,66,91,200
4,65,91,34
4,63,90,182
4,61,82,60
4,60,64,24
4,63,91,30
4,61,82,86
4,61,73,1522
4,63,73,50
4,65,75,30
4,68,73,42
4,72,90,34
4,72,91,122
4,70,82,42
4,72,91,66
4,73,91,92
4,70,82,62
4,68,90,68
4,58,95,60
4,58,73,706
4,60,73,18
4,61,84,40
4,65,73,50
4,68,93,40
4,66,87,82
4,65,93,94
4,63,95,60
4,61,73,12
4,63,82,60
4,65,91,46
4,61,73,10
4,63,73,26
4,65,75,30
4,68,73,42
4,72,90,34
4,72,91,36
4,72,91,28
4,70,82,42
4,72,91,66
4,73,91,92
4,70,82,62
4,68,90,52
4,58,95,56
4,58,73,40
4,60,73,8
4,61,81,18
4,65,73,32
4,68,93,50
4,66,84,28
4,66,91,80
4,65,91,8
4,63,90,8
4,61,82,60
4,60,64,24
4,63,91,30
5,47,64,1650
5,48,73,420
5,52,75,122
5,55,73,218
5,59,52,92
5,64,52,2
5,67,56,36
5,69,48,2
5,60,51,10
5,57,73,0
5,65,44,1538
5,55,72,6
5,45,66,768
5,43,73,6
5,59,60,2
5,62,60,2
5,67,62,2
5,64,64,720
5,60,64,4
5,69,56,0
5,45,73,0
5,71,56,364
5,62,64,2
5,47,78,0
5,59,52,10
5,60,64,2
5,48,73,2
5,72,64,0
5,64,64,12
5,60,56,226
5,72,64,12
5,48,82,6
5,64,73,14
5,67,64,1008
5,64,48,4
5,59,60,16
5,55,56,6
5,69,66,1494
5,57,60,0
5,60,60,0
5,65,52,1510
5,67,61,4596
5,59,60,10
5,55,64,0
5,62,56,2
5,60,56,1440
5,64,52,6
5,65,56,1512
5,69,64,20
5,53,64,6
5,55,73,722
5,71,64,12
5,62,60,0
5,67,64,2
5,64,48,4
5,59,60,16
5,55,56,6
5,69,66,1470
5,57,60,0
5,60,60,0
5,65,52,1510
5,67,61,4596
5,59,60,10
5,55,64,0
5,62,56,2
5,60,56,1440
5,64,60,6
5,57,61,14
5,43,32,16
5,53,60,12
5,60,56,12258
5,64,60,0
5,57,60,12
5,56,56,1540
5,55,64,1512
5,69,56,1488
5,61,64,0
5,57,56,2
5,62,64,754
5,55,60,14
5,59,64,0
5,64,60,324
5,57,60,14
5,61,60,4
5,65,61,338
5,62,60,8
5,62,64,34
5,53,73,2
5,56,64,6
5,68,56,8
5,50,56,6
5,55,64,0
5,67,60,12
5,69,60,720
5,57,64,10
5,60,73,0
5,53,64,2
5,55,60,744
5,59,64,2
5,62,73,10
5,71,73,4
5,59,64,230
5,62,73,14
