track,note,velocity,time
0,33,119,16
0,45,119,0
0,36,98,8
0,46,88,0
0,38,78,0
0,45,115,0
0,66,85,0
0,62,84,0
0,69,88,0
0,36,97,208
0,45,114,0
0,66,87,0
0,69,84,0
0,62,85,0
0,36,97,208
0,45,115,0
0,66,83,0
0,69,85,0
0,62,84,0
0,36,101,208
0,45,114,0
0,66,86,0
0,62,86,0
0,69,85,0
0,38,79,208
0,46,88,0
0,36,99,0
0,45,114,0
0,66,86,0
0,62,87,0
0,69,85,0
0,36,97,208
0,45,115,0
0,66,88,0
0,69,85,0
0,62,88,0
0,36,98,208
0,45,114,0
0,66,84,0
0,62,86,0
0,69,87,0
0,36,97,208
0,45,113,0
0,66,88,0
0,62,85,0
0,69,85,0
0,33,113,80
0,54,116,0
0,38,76,16
0,46,88,0
0,36,100,0
0,45,115,0
0,66,83,0
0,62,86,0
0,69,83,0
0,57,116,0
0,57,116,16
0,36,97,16
0,45,114,0
0,66,83,0
0,62,87,0
0,69,85,0
0,57,114,0
0,57,114,16
0,36,101,16
0,45,115,0
0,66,85,0
0,62,86,0
0,69,88,0
0,57,116,0
0,57,119,16
0,36,101,128
0,45,113,0
0,66,85,0
0,62,84,0
0,69,86,0
0,57,118,16
0,38,76,128
0,46,89,0
0,36,97,0
0,45,114,0
0,66,85,0
0,62,88,0
0,69,86,0
0,54,116,16
0,36,98,128
0,45,114,0
0,66,83,0
0,69,86,0
0,62,86,0
0,36,97,16
0,45,114,0
0,66,85,0
0,62,88,0
0,69,84,0
0,36,97,208
0,45,115,0
0,66,83,0
0,69,85,0
0,62,84,0
0,31,114,80
0,38,76,16
0,36,98,0
0,46,86,0
0,43,113,0
0,62,88,0
0,67,87,0
0,71,86,0
0,59,114,80
0,36,99,128
0,43,113,0
0,62,85,0
0,67,83,0
0,71,85,0
0,36,100,16
0,43,113,0
0,67,87,0
0,62,85,0
0,71,86,0
0,59,116,0
0,59,114,16
0,36,97,128
0,43,113,0
0,71,83,0
0,67,83,0
0,62,83,0
0,59,115,16
0,46,87,128
0,38,78,0
0,36,98,0
0,43,115,0
0,71,87,0
0,67,87,0
0,62,84,0
0,36,100,16
0,43,114,0
0,71,88,0
0,67,87,0
0,62,84,0
0,36,101,208
0,43,114,0
0,67,84,0
0,71,85,0
0,62,86,0
0,36,100,208
0,43,114,0
0,67,85,0
0,71,88,0
0,62,84,0
0,31,113,80
0,46,87,16
0,38,80,0
0,36,101,0
0,36,113,0
0,67,84,0
0,64,85,0
0,72,83,0
0,60,116,0
0,60,117,16
0,36,100,16
0,36,115,0
0,67,84,0
0,64,88,0
0,72,86,0
0,60,118,0
0,60,118,16
0,36,99,16
0,36,113,0
0,67,86,0
0,72,84,0
0,64,83,0
0,60,116,0
0,60,114,16
0,36,99,128
0,36,113,0
0,67,84,0
0,72,87,0
0,64,86,0
0,31,113,16
0,59,118,0
0,46,87,16
0,36,98,0
0,38,80,0
0,43,113,0
0,67,83,0
0,62,87,0
0,71,85,0
0,59,114,16
0,36,99,128
0,43,114,0
0,67,83,0
0,71,87,0
0,62,88,0
0,36,97,16
0,43,113,0
0,62,85,0
0,67,88,0
0,71,88,0
0,36,98,208
0,43,113,0
0,62,88,0
0,67,84,0
0,71,85,0
0,31,114,80
0,46,86,16
0,38,76,0
0,36,100,0
0,38,114,0
0,69,84,0
0,66,87,0
0,74,83,0
0,36,97,208
0,38,115,0
0,66,83,0
0,69,84,0
0,74,87,0
0,57,119,0
0,55,118,16
0,36,97,16
0,38,115,0
0,74,84,0
0,66,85,0
0,69,88,0
0,57,119,0
0,57,116,16
0,36,101,192
0,38,113,0
0,69,84,0
0,66,86,0
0,74,85,0
0,57,118,16
0,36,101,128
0,33,113,0
0,64,83,0
0,61,83,0
0,69,85,0
0,36,100,16
0,33,115,0
0,64,87,0
0,61,87,0
0,69,86,0
0,36,100,208
0,54,97,0
0,33,114,0
0,64,84,0
0,61,83,0
0,69,86,0
0,36,97,208
0,54,97,0
0,33,114,0
0,61,87,0
0,64,88,0
0,69,84,0
0,57,93,80
0,66,93,0
0,62,93,0
0,66,93,8
0,62,93,0
0,57,93,0
0,36,100,8
0,42,109,0
0,54,96,0
0,45,115,0
0,69,98,0
0,66,104,0
0,62,105,0
0,69,86,0
0,66,83,0
0,74,88,0
0,66,106,0
0,62,107,0
0,57,106,0
0,66,90,0
0,57,119,0
0,57,118,16
0,42,109,16
0,36,98,0
0,38,102,0
0,54,98,0
0,45,115,0
0,66,105,0
0,62,99,0
0,69,100,0
0,69,86,0
0,66,83,0
0,74,83,0
0,62,106,0
0,66,101,0
0,57,101,0
0,57,115,16
0,42,110,16
0,36,100,0
0,45,114,0
0,69,103,0
0,66,98,0
0,62,95,0
0,66,83,0
0,69,85,0
0,74,85,0
0,66,104,0
0,62,105,0
0,57,100,0
0,57,118,0
0,42,110,16
0,36,98,0
0,38,102,0
0,54,96,0
0,45,114,0
0,66,98,0
0,62,104,0
0,69,105,0
0,69,84,0
0,74,84,0
0,66,86,0
0,66,103,0
0,57,102,0
0,62,105,0
0,57,117,0
0,33,113,16
0,57,119,0
0,42,110,16
0,36,99,0
0,45,114,0
0,66,104,0
0,62,96,0
0,69,101,0
0,74,83,0
0,69,87,0
0,66,83,0
0,66,102,0
0,57,100,0
0,62,103,0
0,57,115,16
0,42,110,128
0,36,100,0
0,38,102,0
0,54,95,0
0,45,114,0
0,66,99,0
0,62,105,0
0,69,100,0
0,69,84,0
0,66,83,0
0,74,83,0
0,66,104,0
0,57,104,0
0,62,101,0
0,42,109,16
0,36,100,0
0,45,114,0
0,66,98,0
0,69,96,0
0,62,100,0
0,69,86,0
0,66,83,0
0,74,85,0
0,66,102,0
0,62,105,0
0,57,105,0
0,42,108,144
0,36,98,0
0,38,102,0
0,54,94,0
0,45,115,0
0,69,98,0
0,66,99,0
0,62,101,0
0,69,83,0
0,66,83,0
0,74,87,0
0,66,100,0
0,57,100,0
0,62,103,0
0,66,88,0
0,36,98,144
0,42,109,0
0,43,115,0
0,62,98,0
0,67,99,0
0,71,95,0
0,67,83,0
0,71,88,0
0,62,85,0
0,62,102,0
0,59,105,0
0,67,103,0
0,62,86,0
0,42,108,208
0,36,97,0
0,38,102,0
0,54,96,0
0,43,114,0
0,67,95,0
0,62,95,0
0,71,104,0
0,67,88,0
0,62,88,0
0,71,85,0
0,62,101,0
0,67,100,0
0,59,100,0
0,59,114,0
0,36,97,16
0,42,108,0
0,43,114,0
0,71,97,0
0,62,99,0
0,67,99,0
0,67,87,0
0,62,83,0
0,71,85,0
0,62,103,0
0,67,104,0
0,59,103,0
0,59,115,0
0,59,118,8
0,42,110,128
0,36,97,0
0,38,102,0
0,54,98,0
0,43,114,0
0,71,97,0
0,67,103,0
0,62,103,0
0,67,83,0
0,62,85,0
0,71,87,0
0,62,103,0
0,59,101,0
0,67,100,0
0,31,113,16
0,59,115,0
0,36,99,16
0,42,108,0
0,43,114,0
0,71,95,0
0,67,98,0
0,62,105,0
0,67,86,0
0,62,85,0
0,71,83,0
0,62,101,0
0,59,101,0
0,67,102,0
0,42,111,16
0,36,97,0
0,38,102,0
0,54,96,0
0,43,114,0
0,67,100,0
0,71,102,0
0,62,95,0
0,67,85,0
0,71,85,0
0,62,88,0
0,62,102,0
0,67,102,0
0,59,104,0
0,36,100,208
0,42,110,0
0,43,114,0
0,67,95,0
0,71,101,0
0,62,104,0
0,67,88,0
0,62,87,0
0,71,87,0
0,67,105,0
0,62,104,0
0,59,105,0
0,38,102,144
0,36,97,0
0,42,109,0
0,54,95,0
0,43,115,0
0,62,97,0
0,71,95,0
0,67,103,0
0,67,83,0
0,62,87,0
0,71,83,0
0,62,100,0
0,67,101,0
0,59,102,0
0,62,88,0
0,31,115,16
0,36,101,16
0,42,109,0
0,36,115,0
0,72,101,0
0,64,98,0
0,67,98,0
0,67,86,0
0,72,84,0
0,64,83,0
0,60,103,0
0,67,102,0
0,64,104,0
0,60,88,0
0,60,115,0
0,59,117,16
0,36,97,16
0,42,109,0
0,38,102,0
0,54,96,0
0,36,113,0
0,72,102,0
0,67,101,0
0,64,104,0
0,67,86,0
0,72,86,0
0,64,85,0
0,60,101,0
0,67,105,0
0,64,100,0
0,60,119,0
0,59,118,16
0,36,98,16
0,42,109,0
0,36,114,0
0,72,102,0
0,67,99,0
0,64,100,0
0,67,83,0
0,64,86,0
0,72,85,0
0,60,104,0
0,67,102,0
0,64,105,0
0,60,118,0
0,60,119,16
0,36,98,128
0,38,102,0
0,42,108,0
0,54,98,0
0,36,114,0
0,72,98,0
0,64,95,0
0,67,97,0
0,67,86,0
0,64,87,0
0,72,83,0
0,60,105,0
0,67,100,0
0,64,102,0
0,31,113,16
0,59,116,0
0,36,99,16
0,42,110,0
0,43,115,0
0,71,97,0
0,67,98,0
0,62,100,0
0,62,88,0
0,71,83,0
0,67,87,0
0,62,100,0
0,67,101,0
0,59,102,0
0,59,88,0
0,59,119,16
0,42,108,128
0,36,98,0
0,38,102,0
0,54,98,0
0,43,113,0
0,71,102,0
0,62,95,0
0,67,103,0
0,62,84,0
0,67,84,0
0,71,83,0
0,67,100,0
0,62,100,0
0,59,100,0
0,42,111,16
0,36,101,0
0,43,115,0
0,71,101,0
0,62,100,0
0,67,100,0
0,71,87,0
0,67,86,0
0,62,84,0
0,67,101,0
0,62,100,0
0,59,102,0
0,42,108,208
0,36,97,0
0,38,102,0
0,54,94,0
0,43,115,0
0,71,103,0
0,62,97,0
0,67,99,0
0,62,85,0
0,67,85,0
0,71,88,0
0,67,102,0
0,62,104,0
0,59,101,0
0,36,101,16
0,42,109,0
0,38,114,0
0,66,103,0
0,69,97,0
0,62,96,0
0,69,83,0
0,74,88,0
0,66,86,0
0,66,104,0
0,57,102,0
0,62,103,0
0,66,92,0
0,36,98,208
0,38,102,0
0,42,110,0
0,54,98,0
0,38,115,0
0,66,101,0
0,62,105,0
0,69,95,0
0,69,88,0
0,66,86,0
0,74,84,0
0,66,104,0
0,57,103,0
0,62,100,0
0,62,119,0
0,61,114,16
0,42,108,16
0,36,101,0
0,38,115,0
0,66,104,0
0,62,96,0
0,69,98,0
0,66,85,0
0,69,85,0
0,74,86,0
0,66,104,0
0,57,105,0
0,62,101,0
0,62,115,0
0,61,117,16
0,42,109,16
0,36,98,0
0,38,102,0
0,54,97,0
0,38,114,0
0,66,101,0
0,62,104,0
0,69,102,0
0,74,83,0
0,69,87,0
0,66,86,0
0,66,105,0
0,62,104,0
0,57,100,0
0,62,116,0
0,64,118,16
0,36,99,8
0,42,108,0
0,33,114,0
0,64,105,0
0,69,105,0
0,61,98,0
0,73,83,0
0,69,88,0
0,64,86,0
0,61,102,0
0,64,104,0
0,57,100,0
0,64,86,0
0,36,99,208
0,42,109,0
0,38,102,0
0,54,96,0
0,33,113,0
0,64,98,0
0,61,97,0
0,69,100,0
0,69,85,0
0,73,85,0
0,64,88,0
0,61,101,0
0,57,102,0
0,64,103,0
0,36,99,16
0,42,109,0
0,31,115,0
0,62,105,0
0,67,105,0
0,59,100,0
0,71,83,0
0,67,86,0
0,62,88,0
0,59,103,0
0,62,102,0
0,55,105,0
0,62,90,0
0,62,117,0
0,42,108,16
0,38,102,0
0,36,99,0
0,54,98,0
0,33,115,0
0,61,95,0
0,64,105,0
0,69,104,0
0,69,86,0
0,73,87,0
0,64,83,0
0,61,100,0
0,57,103,0
0,64,102,0
0,69,87,0
0,64,114,0
0,66,93,16
0,62,93,0
0,57,93,0
0,38,55,8
0,38,65,36
0,66,93,8
0,62,93,0
0,57,93,0
0,38,75,24
0,38,100,8
0,42,110,0
0,36,97,0
0,38,113,0
0,62,100,0
0,69,96,0
0,66,99,0
0,69,88,0
0,74,84,0
0,66,88,0
0,66,106,0
0,62,109,0
0,57,104,0
0,74,88,0
0,69,92,0
0,62,115,0
0,69,113,0
0,66,119,0
0,38,102,16
0,42,109,0
0,36,99,0
0,54,97,0
0,38,115,0
0,69,99,0
0,66,102,0
0,62,104,0
0,66,83,0
0,69,85,0
0,74,87,0
0,66,100,0
0,57,102,0
0,62,103,0
0,42,108,16
0,36,98,0
0,38,115,0
0,62,97,0
0,66,102,0
0,69,101,0
0,69,85,0
0,66,85,0
0,74,88,0
0,66,104,0
0,62,104,0
0,57,101,0
0,62,119,0
0,69,116,0
0,66,114,0
0,42,109,208
0,38,102,0
0,36,100,0
0,54,98,0
0,38,113,0
0,69,99,0
0,66,96,0
0,62,98,0
0,69,86,0
0,66,85,0
0,74,86,0
0,66,100,0
0,62,103,0
0,57,100,0
0,33,113,80
0,66,93,0
0,62,93,0
0,57,93,0
0,62,93,8
0,66,93,0
0,57,93,0
0,42,108,8
0,36,98,0
0,38,114,0
0,62,96,0
0,66,102,0
0,69,101,0
0,74,85,0
0,69,84,0
0,66,87,0
0,66,110,0
0,62,109,0
0,57,107,0
0,72,92,0
0,62,113,0
0,69,117,0
0,66,118,0
0,60,114,16
0,67,117,0
0,64,114,0
0,38,102,16
0,42,108,0
0,36,98,0
0,54,96,0
0,38,113,0
0,62,98,0
0,66,100,0
0,69,103,0
0,74,87,0
0,69,84,0
0,66,86,0
0,66,105,0
0,57,100,0
0,62,100,0
0,60,115,16
0,66,119,0
0,62,118,0
0,42,111,128
0,36,99,0
0,38,115,0
0,66,95,0
0,62,100,0
0,69,99,0
0,66,86,0
0,74,85,0
0,69,85,0
0,66,105,0
0,62,103,0
0,57,102,0
0,60,117,16
0,67,115,0
0,64,115,0
0,38,102,128
0,42,111,0
0,36,97,0
0,54,96,0
0,38,113,0
0,66,102,0
0,62,105,0
0,69,105,0
0,69,84,0
0,74,83,0
0,66,83,0
0,66,103,0
0,62,100,0
0,57,103,0
0,31,115,80
0,42,111,16
0,36,98,0
0,43,115,0
0,71,95,0
0,67,98,0
0,62,104,0
0,67,86,0
0,71,87,0
0,62,86,0
0,62,101,0
0,59,104,0
0,67,101,0
0,67,91,0
0,71,90,0
0,38,102,208
0,42,111,0
0,36,100,0
0,54,97,0
0,43,115,0
0,67,98,0
0,71,103,0
0,62,95,0
0,67,84,0
0,62,86,0
0,71,87,0
0,67,102,0
0,62,103,0
0,59,102,0
0,62,114,0
0,38,114,16
0,61,118,0
0,36,97,16
0,42,110,0
0,43,114,0
0,71,96,0
0,67,102,0
0,62,95,0
0,67,88,0
0,71,84,0
0,62,88,0
0,67,105,0
0,62,105,0
0,59,105,0
0,62,117,0
0,66,114,16
0,38,102,128
0,42,108,0
0,36,100,0
0,54,97,0
0,43,114,0
0,71,101,0
0,67,99,0
0,62,102,0
0,67,87,0
0,71,85,0
0,62,84,0
0,62,100,0
0,67,102,0
0,59,102,0
0,33,114,16
0,64,115,0
0,42,110,16
0,36,99,0
0,45,114,0
0,64,99,0
0,61,100,0
0,69,98,0
0,69,88,0
0,64,85,0
0,61,87,0
0,64,104,0
0,61,100,0
0,69,104,0
0,73,87,0
0,69,87,0
0,38,102,16
0,42,109,0
0,36,97,0
0,54,96,0
0,45,113,0
0,61,96,0
0,64,101,0
0,69,95,0
0,61,85,0
0,64,86,0
0,69,88,0
0,61,104,0
0,69,104,0
0,64,105,0
0,61,117,0
0,42,109,16
0,36,97,0
0,43,114,0
0,62,96,0
0,59,103,0
0,67,96,0
0,62,83,0
0,67,83,0
0,59,87,0
0,59,103,0
0,67,104,0
0,62,103,0
0,71,87,0
0,67,90,0
0,62,117,0
0,42,110,16
0,38,102,0
0,36,97,0
0,54,98,0
0,45,113,0
0,61,105,0
0,69,104,0
0,64,104,0
0,64,87,0
0,61,87,0
0,69,85,0
0,64,101,0
0,69,102,0
0,61,101,0
0,73,87,0
0,69,87,0
0,64,117,0
0,62,93,80
0,66,93,0
0,69,93,0
0,38,55,8
0,38,65,36
0,62,93,8
0,66,93,0
0,69,93,0
0,38,75,24
0,38,100,8
0,42,110,0
0,36,97,0
0,38,115,0
0,62,101,0
0,66,99,0
0,69,104,0
0,69,85,0
0,66,84,0
