track,note,velocity,time
1,69,105,10752
1,62,90,0
1,53,127,106672
1,55,127,0
1,57,127,0
1,59,127,0
1,60,127,0
1,62,127,0
1,64,127,0
1,65,127,0
1,67,127,0
1,69,127,0
1,71,127,0
1,72,127,0
1,74,127,0
1,76,127,0
1,77,127,0
1,79,127,0
1,81,127,0
1,69,127,0
1,76,127,5520
2,69,127,10752
2,62,100,0
2,76,110,6304
2,74,122,64
2,77,110,1168
2,76,122,64
2,76,110,1168
2,74,122,64
2,77,110,1168
2,76,122,64
2,76,110,1168
2,74,122,64
2,77,110,1168
2,76,122,64
2,76,110,1168
2,74,122,64
2,77,110,1168
2,76,122,64
2,76,110,19600
2,74,122,64
2,77,110,1168
2,76,122,64
2,76,110,1168
2,74,122,64
2,77,110,1168
2,76,122,64
2,76,110,1168
2,74,122,64
2,77,110,1168
2,76,122,64
2,76,110,1168
2,74,122,64
2,77,110,1168
2,76,122,64
2,76,110,19600
2,74,122,64
2,77,110,1168
2,76,122,64
2,76,110,1168
2,74,122,64
2,77,110,1168
2,76,122,64
2,76,110,1168
2,74,122,64
2,77,110,1168
2,76,122,64
2,76,110,1168
2,74,122,64
2,77,110,1168
2,76,122,64
2,76,110,13456
2,74,122,64
2,77,110,1168
2,76,122,64
2,76,110,1168
2,74,122,64
2,77,110,1168
2,76,122,64
2,76,110,1168
2,74,122,64
2,77,110,1168
2,76,122,64
2,76,110,1168
2,74,122,64
2,77,110,1168
2,76,122,64
2,53,127,5904
2,55,127,0
2,57,127,0
2,59,127,0
2,60,127,0
2,62,127,0
2,64,127,0
2,65,127,0
2,67,127,0
2,69,127,0
2,71,127,0
2,72,127,0
2,74,127,0
2,76,127,0
2,77,127,0
2,79,127,0
2,81,127,0
2,69,127,0
2,76,102,48
2,72,102,16
2,76,102,224
2,72,102,0
2,74,102,32
2,71,102,0
2,71,102,208
2,74,102,16
2,77,102,240
2,74,102,16
2,77,102,352
2,74,102,0
2,77,102,240
2,74,102,0
2,76,102,16
2,72,102,0
2,72,102,224
2,76,102,0
2,74,102,256
2,71,102,0
2,76,102,352
2,72,102,0
2,76,102,240
2,72,102,16
2,74,102,16
2,71,102,0
2,74,102,208
2,71,102,0
2,74,102,224
2,77,102,0
2,74,102,352
2,77,102,0
2,77,102,240
2,74,102,0
2,76,102,32
2,72,102,0
2,72,102,224
2,76,102,0
2,64,127,48
2,72,102,176
2,76,102,0
2,76,110,400
2,74,122,64
2,77,110,1168
2,76,122,64
2,76,110,1168
2,74,122,64
2,77,110,1168
2,76,122,64
2,76,110,19600
2,74,122,64
2,77,110,1168
2,76,122,64
2,76,110,1168
2,74,122,64
2,77,110,1168
2,76,122,64
2,76,110,1168
2,74,122,64
2,77,110,1168
2,76,122,64
2,76,110,1168
2,74,122,64
2,77,110,1168
2,76,122,64
2,76,110,1168
2,74,122,64
2,77,110,1168
2,76,122,64
2,76,110,1168
2,74,122,64
2,77,110,1168
2,76,122,64
2,76,110,1168
2,74,122,64
2,77,110,1168
2,76,122,64
2,76,110,1168
2,74,122,64
2,77,110,1168
2,76,122,64
2,57,127,2320
2,76,127,0
2,69,127,0
2,81,127,0
3,57,100,17280
3,60,127,0
3,64,127,0
3,76,112,0
3,62,127,64
3,59,127,0
3,74,112,0
3,69,127,1168
3,65,127,0
3,62,110,0
3,77,112,0
3,64,127,64
3,60,127,0
3,76,112,0
3,57,100,1168
3,60,127,0
3,64,127,0
3,76,112,0
3,62,127,64
3,59,127,0
3,74,112,0
3,69,127,1168
3,65,127,0
3,62,110,0
3,77,112,0
3,64,127,64
3,60,127,0
3,76,112,0
3,57,100,1168
3,60,127,0
3,64,127,0
3,76,112,0
3,62,127,64
3,59,127,0
3,74,112,0
3,69,127,1168
3,65,127,0
3,62,110,0
3,77,112,0
3,64,127,64
3,60,127,0
3,76,112,0
3,57,100,1168
3,60,127,0
3,64,127,0
3,76,112,0
3,62,127,64
3,59,127,0
3,74,112,0
3,69,127,1168
3,65,127,0
3,62,110,0
3,77,112,0
3,64,127,64
3,60,127,0
3,76,112,0
3,72,117,13072
3,69,117,208
3,72,117,208
3,69,117,208
3,72,117,208
3,69,117,112
3,74,117,112
3,69,117,208
3,74,117,208
3,69,117,208
3,74,117,208
3,69,117,112
3,77,117,112
3,74,117,208
3,77,117,208
3,74,117,208
3,74,117,208
3,75,117,112
3,76,117,16
3,57,100,1840
3,60,127,0
3,64,127,0
3,76,112,0
3,62,127,64
3,59,127,0
3,74,112,0
3,69,127,1168
3,65,127,0
3,62,110,0
3,77,112,0
3,64,127,64
3,60,127,0
3,76,112,0
3,57,100,1168
3,60,127,0
3,64,127,0
3,76,112,0
3,62,127,64
3,59,127,0
3,74,112,0
3,69,127,1168
3,65,127,0
3,62,110,0
3,77,112,0
3,64,127,64
3,60,127,0
3,76,112,0
3,57,100,1168
3,60,127,0
3,64,127,0
3,76,112,0
3,62,127,64
3,59,127,0
3,74,112,0
3,69,127,1168
3,65,127,0
3,62,110,0
3,77,112,0
3,64,127,64
3,60,127,0
3,76,112,0
3,57,100,1168
3,60,127,0
3,64,127,0
3,76,112,0
3,62,127,64
3,59,127,0
3,74,112,0
3,69,127,1168
3,65,127,0
3,62,110,0
3,77,112,0
3,64,127,64
3,60,127,0
3,76,112,0
3,72,117,13072
3,69,117,208
3,72,117,208
3,69,117,208
3,72,117,208
3,69,117,112
3,74,117,112
3,69,117,208
3,74,117,208
3,69,117,208
3,74,117,208
3,69,117,112
3,77,117,112
3,74,117,208
3,77,117,208
3,74,117,208
3,74,117,208
3,75,117,112
3,76,117,16
3,57,100,1840
3,60,127,0
3,64,127,0
3,76,112,0
3,62,127,64
3,59,127,0
3,74,112,0
3,69,127,1168
3,65,127,0
3,62,110,0
3,77,112,0
3,64,127,64
3,60,127,0
3,76,112,0
3,57,100,1168
3,60,127,0
3,64,127,0
3,76,112,0
3,62,127,64
3,59,127,0
3,74,112,0
3,69,127,1168
3,65,127,0
3,62,110,0
3,77,112,0
3,64,127,64
3,60,127,0
3,76,112,0
3,57,100,1168
3,60,127,0
3,64,127,0
3,76,112,0
3,62,127,64
3,59,127,0
3,74,112,0
3,69,127,1168
3,65,127,0
3,62,110,0
3,77,112,0
3,64,127,64
3,60,127,0
3,76,112,0
3,57,100,1168
3,60,127,0
3,64,127,0
3,76,112,0
3,62,127,64
3,59,127,0
3,74,112,0
3,69,127,1168
3,65,127,0
3,62,110,0
3,77,112,0
3,64,127,64
3,60,127,0
3,76,112,0
3,64,127,6064
3,67,127,16
3,64,127,16
3,67,127,16
3,72,127,16
3,64,127,0
3,72,127,0
3,69,127,64
3,60,127,0
3,71,127,4288
3,62,127,0
3,56,127,16
3,64,127,0
3,57,100,1840
3,60,127,0
3,64,127,0
3,76,112,0
3,62,127,64
3,59,127,0
3,74,112,0
3,69,127,1168
3,65,127,0
3,62,110,0
3,77,112,0
3,64,127,64
3,60,127,0
3,76,112,0
3,57,100,1168
3,60,127,0
3,64,127,0
3,76,112,0
3,62,127,64
3,59,127,0
3,74,112,0
3,69,127,1168
3,65,127,0
3,62,110,0
3,77,112,0
3,64,127,64
3,60,127,0
3,76,112,0
3,57,100,1168
3,60,127,0
3,64,127,0
3,76,112,0
3,62,127,64
3,59,127,0
3,74,112,0
3,69,127,1168
3,65,127,0
3,62,110,0
3,77,112,0
3,64,127,64
3,60,127,0
3,76,112,0
3,57,100,1168
3,60,127,0
3,64,127,0
3,76,112,0
3,62,127,64
3,59,127,0
3,74,112,0
3,69,127,1168
3,65,127,0
3,62,110,0
3,77,112,0
3,64,127,64
3,60,127,0
3,76,112,0
3,57,100,13456
3,60,127,0
3,64,127,0
3,76,112,0
3,62,127,64
3,59,127,0
3,74,112,0
3,69,127,1168
3,65,127,0
3,62,110,0
3,77,112,0
3,64,127,64
3,60,127,0
3,76,112,0
3,57,100,1168
3,60,127,0
3,64,127,0
3,76,112,0
3,62,127,64
3,59,127,0
3,74,112,0
3,69,127,1168
3,65,127,0
3,62,110,0
3,77,112,0
3,64,127,64
3,60,127,0
3,76,112,0
3,64,96,13072
3,76,96,0
3,60,96,0
3,72,96,0
3,71,96,16
3,74,96,0
3,59,96,0
3,62,96,0
3,77,96,16
3,62,96,0
3,65,96,0
3,74,96,0
3,76,96,16
3,72,96,0
3,60,96,0
3,64,96,0
3,64,96,16
3,72,96,0
3,76,96,0
3,60,96,0
3,74,96,16
3,59,96,0
3,62,96,0
3,71,96,0
3,62,96,16
3,65,96,0
3,74,96,0
3,77,96,0
3,76,96,16
3,64,96,0
3,72,96,0
3,60,96,0
3,57,100,400
3,60,127,0
3,64,127,0
3,76,112,0
3,62,127,64
3,59,127,0
3,74,112,0
3,69,127,1168
3,65,127,0
3,62,110,0
3,77,112,0
3,64,127,64
3,60,127,0
3,76,112,0
3,57,100,1168
3,60,127,0
3,64,127,0
3,76,112,0
3,62,127,64
3,59,127,0
3,74,112,0
3,69,127,1168
3,65,127,0
3,62,110,0
3,77,112,0
3,64,127,64
3,60,127,0
3,76,112,0
3,57,100,1168
3,60,127,0
3,64,127,0
3,76,112,0
3,62,127,64
3,59,127,0
3,74,112,0
3,69,127,1168
3,65,127,0
3,62,110,0
3,77,112,0
3,64,127,64
3,60,127,0
3,76,112,0
3,57,100,1168
3,60,127,0
3,64,127,0
3,76,112,0
3,62,127,64
3,59,127,0
3,74,112,0
3,69,127,1168
3,65,127,0
3,62,110,0
3,77,112,0
3,64,127,64
3,60,127,0
3,76,112,0
3,57,100,1168
3,60,127,0
3,64,127,0
3,76,112,0
3,62,127,64
3,59,127,0
3,74,112,0
3,69,127,1168
3,65,127,0
3,62,110,0
3,77,112,0
3,64,127,64
3,60,127,0
3,76,112,0
3,57,100,1168
3,60,127,0
3,64,127,0
3,76,112,0
3,62,127,64
3,59,127,0
3,74,112,0
3,69,127,1168
3,65,127,0
3,62,110,0
3,77,112,0
3,64,127,64
3,60,127,0
3,76,112,0
3,57,100,1168
3,60,127,0
3,64,127,0
3,76,112,0
3,62,127,64
3,59,127,0
3,74,112,0
3,69,127,1168
3,65,127,0
3,62,110,0
3,77,112,0
3,64,127,64
3,60,127,0
3,76,112,0
3,57,100,1168
3,60,127,0
3,64,127,0
3,76,112,0
3,62,127,64
3,59,127,0
3,74,112,0
3,69,127,1168
3,65,127,0
3,62,110,0
3,77,112,0
3,64,127,64
3,60,127,0
3,76,112,0
3,33,127,784
3,45,127,0
4,64,127,13344
4,66,127,16
4,68,127,16
4,69,127,16
4,71,127,16
4,72,127,16
4,74,127,16
4,76,127,16
4,78,127,16
4,80,127,16
4,81,127,16
4,93,120,0
4,72,85,76592
4,64,85,0
4,65,85,0
4,69,85,0
4,72,85,272
4,64,85,0
4,65,85,0
4,69,85,0
4,65,85,176
4,69,85,0
4,72,85,0
4,64,85,0
4,64,85,176
4,69,85,0
4,72,85,0
4,65,85,0
4,62,85,464
4,69,85,0
4,72,85,0
4,65,85,0
4,65,85,272
4,69,85,0
4,72,85,0
4,62,85,0
4,65,85,176
4,72,85,0
4,62,85,0
4,69,85,0
4,65,85,176
4,69,85,0
4,72,85,0
4,62,85,0
4,67,85,464
4,71,85,0
4,64,85,0
4,74,85,0
4,67,85,272
4,71,85,0
4,64,85,0
4,74,85,0
4,67,85,176
4,64,85,0
4,71,85,0
4,74,85,0
4,67,85,176
4,64,85,0
4,71,85,0
4,74,85,0
4,72,85,464
4,64,85,0
4,67,85,0
4,69,85,0
4,72,85,272
4,69,85,0
4,64,85,0
4,67,85,0
4,69,85,1040
4,60,85,0
4,64,85,0
4,65,85,0
4,69,85,272
4,64,85,0
4,65,85,0
4,60,85,0
4,69,85,176
4,60,85,0
4,64,85,0
4,65,85,0
4,69,85,176
4,60,85,0
4,64,85,0
4,65,85,0
4,69,85,272
4,60,85,0
4,64,85,0
4,65,85,0
4,62,85,80
4,69,85,0
4,60,85,0
4,65,85,0
4,62,85,272
4,69,85,0
4,60,85,0
4,65,85,0
4,60,85,176
4,62,85,0
4,69,85,0
4,65,85,0
4,62,85,176
4,69,85,0
4,60,85,0
4,65,85,0
4,71,85,464
4,62,85,0
4,69,85,0
4,65,85,0
4,71,85,272
4,62,85,0
4,65,85,0
4,69,85,0
4,71,85,176
4,62,85,0
4,65,85,0
4,69,85,0
4,71,85,176
4,69,85,0
4,62,85,0
4,65,85,0
4,71,85,272
4,62,85,0
4,65,85,0
4,69,85,0
4,59,85,80
4,62,85,0
4,64,85,0
4,64,85,272
4,59,85,0
4,62,85,0
4,68,85,368
4,62,85,0
4,64,85,0
4,64,85,96
4,67,85,96
4,68,85,80
4,57,127,12368
4,69,127,0
5,53,115,41472
5,57,115,64
5,60,115,64
5,64,115,64
5,50,115,448
5,53,115,64
5,57,115,64
5,60,115,64
5,57,115,448
5,59,115,64
5,62,115,64
5,65,115,64
5,52,115,448
5,56,115,64
5,59,115,64
5,64,115,64
5,53,115,25024
5,57,115,64
5,60,115,64
5,64,115,64
5,50,115,448
5,53,115,64
5,57,115,64
5,60,115,64
5,57,115,448
5,59,115,64
5,62,115,64
5,65,115,64
5,52,115,448
5,56,115,64
5,59,115,64
5,64,115,64
5,64,125,12736
5,65,125,0
5,69,125,0
5,60,125,0
5,69,125,32
5,60,125,0
5,62,125,0
5,65,125,0
5,64,125,32
5,59,125,0
5,62,125,0
5,67,125,0
5,69,125,32
5,60,125,0
5,64,125,0
5,65,125,32
5,64,125,0
5,57,125,0
5,60,125,0
5,65,125,32
5,57,125,0
5,60,125,0
5,62,125,0
5,62,125,32
5,57,125,0
5,59,125,0
5,65,125,0
5,64,125,32
5,57,125,0
5,59,125,0
5,64,125,48
5,56,125,0
5,59,125,0
6,57,110,41472
6,60,110,448
6,62,110,448
6,64,110,448
6,57,110,25024
6,60,110,448
6,62,110,448
6,64,110,448
6,72,71,12736
6,69,71,16
6,67,71,16
6,64,71,16
6,69,71,16
6,72,71,16
6,74,71,16
6,76,71,16
6,60,96,12304
6,55,96,0
6,57,96,0
6,64,96,0
6,57,96,320
6,60,96,0
6,62,96,0
6,55,96,0
6,60,96,320
6,57,96,0
6,62,96,0
6,65,96,0
6,60,96,320
6,55,96,0
6,57,96,0
6,64,96,0
6,64,96,320
6,55,96,0
6,57,96,0
6,60,96,0
6,57,96,320
6,60,96,0
6,62,96,0
6,55,96,0
6,65,96,320
6,57,96,0
6,60,96,0
6,62,96,0
6,64,96,320
6,59,96,0
6,62,96,0
7,57,127,4608
7,50,83,32
7,57,127,96
7,50,83,32
7,57,110,96
7,57,79,32
7,50,117,128
7,57,127,32
7,55,127,176
7,55,94,64
7,57,127,32
7,50,85,32
7,57,127,96
7,50,85,32
7,57,112,96
7,50,80,32
7,50,110,128
7,50,60,32
7,50,100,32
7,57,120,32
7,55,127,96
7,57,127,16
7,50,83,32
7,57,127,96
7,50,83,32
7,57,110,96
7,57,79,32
7,50,117,128
7,57,127,32
7,55,127,176
7,55,94,64
7,57,127,32
7,50,85,32
7,57,127,96
7,50,85,32
7,57,112,96
7,50,80,32
7,50,110,128
7,50,60,32
7,50,100,32
7,57,120,32
7,55,127,96
7,57,127,16
7,50,83,32
7,57,127,96
7,50,83,32
7,57,110,96
7,57,79,32
7,50,117,128
7,57,127,32
7,55,127,176
7,55,94,64
7,57,127,32
7,50,85,32
7,57,127,96
7,50,85,32
7,57,112,96
7,50,80,32
7,50,110,128
7,50,60,32
7,50,100,32
7,57,120,32
7,55,127,96
7,57,127,16
7,50,83,32
7,57,127,96
7,50,83,32
7,57,110,96
7,57,79,32
7,50,117,128
7,57,127,32
7,55,127,176
7,55,94,64
7,57,127,32
7,50,85,32
7,57,127,96
7,50,85,32
7,57,112,96
7,50,80,32
7,50,110,128
7,50,60,32
7,50,100,32
7,57,120,32
7,55,127,96
7,57,127,16
7,50,83,32
7,57,127,96
7,50,83,32
7,57,110,96
7,57,79,32
7,50,117,128
7,57,127,32
7,55,127,176
7,55,94,64
7,57,127,32
7,50,85,32
7,57,127,96
7,50,85,32
7,57,112,96
7,50,80,32
7,50,110,128
7,50,60,32
7,50,100,32
7,57,120,32
7,55,127,96
7,57,127,16
7,50,83,32
7,57,127,96
7,50,83,32
7,57,110,96
7,57,79,32
