track,note,velocity,time
0,54,85,2240
0,57,87,0
0,62,88,0
0,62,88,2
0,49,85,64
0,52,85,0
0,57,89,0
0,69,87,2
0,54,85,50
0,57,87,0
0,62,88,0
0,66,88,2
0,64,85,2
0,62,85,2
0,49,85,10
0,52,85,0
0,57,89,0
0,64,87,386
0,66,79,2
0,50,85,0
0,55,87,0
0,59,88,0
0,67,85,2
0,54,85,36
0,57,85,0
0,62,89,0
0,66,87,2
0,57,85,64
0,61,87,0
0,64,88,0
0,64,86,2
0,49,85,64
0,52,85,0
0,57,89,0
0,57,72,546
0,50,83,0
0,55,84,0
0,59,83,0
0,59,85,2
0,52,81,38
0,57,87,0
0,61,87,0
0,61,87,2
0,54,82,38
0,57,84,0
0,62,86,0
0,62,82,2
0,55,84,48
0,59,84,0
0,62,90,0
0,64,85,2
0,66,86,2
0,69,85,2
0,50,84,0
0,54,82,0
0,57,85,0
0,62,86,0
0,66,87,2
0,49,81,70
0,52,76,0
0,57,77,0
0,61,83,0
0,64,85,2
0,54,85,72
0,57,85,0
0,62,91,0
0,62,83,2
0,54,65,2
0,57,65,0
0,61,65,0
0,35,111,32
0,37,77,0
0,42,72,0
0,49,74,0
0,69,53,2
0,66,99,8
0,69,103,0
0,73,104,0
0,42,52,74
0,69,43,2
0,42,66,74
0,69,35,2
0,42,52,74
0,69,56,2
0,38,98,74
0,42,70,0
0,42,52,76
0,69,44,2
0,42,66,68
0,69,45,2
0,37,82,74
0,38,82,0
0,42,52,0
0,69,46,0
0,54,65,8
0,59,65,0
0,63,65,0
0,35,111,32
0,42,72,0
0,69,54,2
0,66,103,8
0,71,103,0
0,75,108,0
0,37,72,74
0,38,62,0
0,42,52,0
0,69,51,2
0,35,90,74
0,42,66,0
0,69,38,2
0,38,77,74
0,42,52,0
0,69,48,2
0,38,98,74
0,42,70,0
0,42,52,76
0,69,41,2
0,37,67,74
0,38,84,0
0,42,66,0
0,69,50,2
0,70,67,0
0,38,80,8
0,42,52,0
0,69,42,2
0,54,65,14
0,57,65,0
0,61,65,0
0,35,111,34
0,37,77,0
0,42,72,0
0,69,53,2
0,66,104,8
0,69,103,0
0,73,108,0
0,42,52,74
0,69,43,2
0,42,66,74
0,69,35,2
0,42,52,0
0,69,56,0
0,54,65,6
0,56,65,0
0,61,65,0
0,38,98,38
0,42,70,0
0,66,103,10
0,68,93,0
0,73,98,0
0,42,52,76
0,69,44,2
0,42,66,74
0,69,45,2
0,37,82,0
0,38,82,0
0,42,52,0
0,69,46,0
0,54,65,0
0,59,65,0
0,63,65,0
0,35,111,38
0,42,72,0
0,69,54,2
0,66,100,8
0,71,99,0
0,75,107,0
0,37,72,74
0,38,62,0
0,42,52,0
0,69,51,2
0,35,90,6
0,42,66,0
0,69,38,2
0,38,77,0
0,42,52,0
0,69,48,2
0,54,65,10
0,59,65,0
0,64,65,0
0,38,98,22
0,42,70,0
0,66,99,10
0,71,99,0
0,76,99,0
0,42,52,76
0,69,41,2
0,37,67,74
0,38,84,0
0,42,66,0
0,69,50,2
0,70,67,0
0,38,80,14
0,42,52,0
0,69,42,2
0,54,65,2
0,57,65,0
0,61,65,0
0,35,111,38
0,37,77,0
0,42,72,0
0,69,53,2
0,66,99,8
0,69,103,0
0,73,104,0
0,42,52,74
0,69,43,2
0,42,66,74
0,69,35,2
0,42,52,74
0,69,56,2
0,38,98,74
0,42,70,0
0,42,52,76
0,69,44,2
0,42,66,74
0,69,45,2
0,37,82,74
0,38,82,0
0,42,52,0
0,69,46,0
0,54,65,8
0,59,65,0
0,63,65,0
0,35,111,32
0,42,72,0
0,69,54,2
0,66,103,8
0,71,103,0
0,75,108,0
0,37,72,74
0,38,62,0
0,42,52,0
0,69,51,2
0,35,90,74
0,42,66,0
0,69,38,2
0,38,77,74
0,42,52,0
0,69,48,2
0,38,98,74
0,42,70,0
0,42,52,76
0,69,41,2
0,37,67,74
0,38,84,0
0,42,66,0
0,69,50,2
0,70,67,0
0,38,80,20
0,42,52,0
0,69,42,2
0,55,65,8
0,59,65,0
0,62,65,0
0,35,111,38
0,37,77,0
0,42,72,0
0,69,53,2
0,57,107,6
0,71,115,0
0,62,112,2
0,67,99,0
0,71,99,0
0,74,108,0
0,42,52,30
0,69,43,2
0,42,66,74
0,69,35,2
0,57,96,6
0,71,121,0
0,62,101,2
0,42,52,74
0,69,56,2
0,38,98,74
0,42,70,0
0,64,119,2
0,42,52,30
0,69,44,2
0,42,66,74
0,69,45,2
0,64,107,8
0,37,82,74
0,38,82,0
0,42,52,0
0,69,46,2
0,55,65,24
0,59,65,0
0,64,65,0
0,35,111,14
0,42,72,0
0,69,54,2
0,59,109,6
0,74,101,0
0,67,91,2
0,71,90,0
0,76,94,0
0,37,72,32
0,38,62,0
0,42,52,0
0,69,51,2
0,35,90,74
0,42,66,0
0,69,38,2
0,59,95,6
0,74,101,0
0,38,77,74
0,42,52,0
0,69,48,2
0,38,98,74
0,42,70,0
0,42,52,76
0,69,41,2
0,37,67,74
0,38,84,0
0,42,66,0
0,69,50,2
0,70,67,0
0,38,80,4
0,42,52,0
0,69,42,2
0,55,65,2
0,59,65,0
0,64,65,0
0,35,111,28
0,37,77,0
0,42,72,0
0,69,53,2
0,59,105,6
0,74,113,0
0,76,99,0
0,62,107,2
0,67,90,0
0,71,98,0
0,76,99,0
0,42,52,74
0,69,43,2
0,42,66,74
0,69,35,2
0,42,52,74
0,69,56,2
0,38,98,74
0,42,70,0
0,42,52,76
0,69,44,2
0,42,66,74
0,69,45,2
0,37,82,74
0,38,82,0
0,42,52,0
0,69,46,2
0,57,65,30
0,61,65,0
0,66,65,0
0,35,111,4
0,42,72,0
0,69,54,2
0,57,87,0
0,73,92,0
0,81,107,0
0,64,100,2
0,69,90,0
0,73,89,0
0,78,94,0
0,37,72,74
0,38,62,0
0,42,52,0
0,69,51,2
0,35,90,74
0,42,66,0
0,69,38,2
0,38,77,74
0,42,52,0
0,69,48,2
0,38,98,74
0,42,70,0
0,42,52,76
0,69,41,2
0,37,67,32
0,38,84,0
0,42,66,0
0,69,50,2
0,70,67,0
0,38,80,22
0,42,52,0
0,69,42,2
0,35,111,46
0,42,72,0
0,57,74,0
0,54,48,2
0,69,53,0
0,62,88,4
0,40,63,74
0,42,52,0
0,54,39,2
0,69,43,0
0,33,84,4
0,33,108,2
0,42,66,12
0,54,56,2
0,69,35,0
0,70,62,0
0,38,84,4
0,38,108,2
0,54,101,2
0,57,97,0
0,62,97,0
0,40,57,14
0,42,52,0
0,54,38,2
0,69,56,0
0,70,52,0
0,38,84,4
0,38,108,2
0,35,107,16
0,38,98,0
0,42,70,0
0,54,47,2
0,39,86,2
0,38,84,2
0,38,108,2
0,42,52,72
0,54,39,2
0,69,44,0
0,42,66,72
0,54,56,2
0,69,45,0
0,70,59,0
0,38,84,4
0,38,108,2
0,54,99,2
0,57,101,0
0,62,103,0
0,37,77,0
0,42,52,0
0,54,41,0
0,69,46,0
0,35,111,74
0,42,72,0
0,54,48,2
0,69,54,0
0,38,84,4
0,69,87,0
0,38,108,2
0,37,72,74
0,40,62,0
0,42,52,0
0,54,38,0
0,69,51,0
0,33,84,2
0,33,108,2
0,42,66,16
0,54,56,2
0,69,38,0
0,70,62,0
0,33,84,4
0,33,108,2
0,52,93,2
0,57,94,0
0,61,102,0
0,40,57,8
0,42,52,0
0,54,41,2
0,69,48,0
0,70,52,0
0,35,107,74
0,38,98,0
0,42,70,0
0,54,47,2
0,39,86,2
0,40,73,72
0,42,52,0
0,54,40,2
0,69,41,0
0,40,70,24
0,40,77,30
0,42,66,0
0,54,56,2
0,69,50,0
0,70,57,0
0,52,94,8
0,57,98,0
0,61,101,0
0,37,79,12
0,40,73,0
0,42,52,0
0,54,43,2
0,69,42,2
0,35,111,0
0,42,72,0
0,54,48,2
0,69,53,0
0,66,88,4
0,40,63,74
0,42,52,0
0,54,39,2
0,69,43,0
0,33,84,2
0,64,85,0
0,33,108,2
0,42,66,12
0,54,56,2
0,69,35,0
0,70,62,0
0,38,84,2
0,62,85,0
0,38,108,2
0,54,101,2
0,57,97,0
0,62,97,0
0,40,57,14
0,42,52,0
0,54,38,2
0,69,56,0
0,70,52,0
0,38,84,4
0,38,108,2
0,35,107,16
0,38,98,0
0,42,70,0
0,54,47,2
0,39,86,2
0,38,84,2
0,38,108,2
0,42,52,72
0,54,39,2
0,69,44,0
0,42,66,72
0,54,56,2
0,69,45,0
0,70,59,0
0,38,84,4
0,38,108,2
0,54,99,2
0,57,101,0
0,62,103,0
0,37,77,0
0,42,52,0
0,54,41,0
0,69,46,0
0,35,111,6
0,42,72,0
0,54,48,2
0,69,54,0
0,38,84,4
0,38,108,2
0,37,72,74
0,40,62,0
0,42,52,0
0,54,38,0
0,69,51,0
0,33,84,2
0,33,108,2
0,42,66,16
0,54,56,2
0,69,38,0
0,70,62,0
0,33,84,4
0,33,108,2
0,52,93,2
0,57,94,0
0,61,102,0
0,40,57,8
0,42,52,0
0,54,41,2
0,69,48,0
0,70,52,0
0,35,107,74
0,38,98,0
0,42,70,0
0,54,47,2
0,39,86,2
0,64,87,2
0,40,73,72
0,42,52,0
0,54,40,2
0,69,41,0
0,40,70,24
0,40,77,30
0,42,66,0
0,54,56,2
0,69,50,0
0,70,57,0
0,66,79,2
0,52,94,4
0,57,98,0
0,61,101,0
0,37,79,12
0,40,73,0
0,42,52,0
0,54,43,2
0,69,42,2
0,35,111,0
0,42,72,0
0,54,48,2
0,69,53,0
0,67,85,2
0,40,63,74
0,42,52,0
0,54,39,2
0,69,43,0
0,33,84,4
0,33,108,2
0,42,66,12
0,54,56,2
0,69,35,0
0,70,62,0
0,43,84,4
0,43,108,2
0,50,101,2
0,55,97,0
0,59,97,0
0,40,57,14
0,42,52,0
0,54,38,2
0,69,56,0
0,70,52,0
0,43,84,4
0,43,108,2
0,35,107,16
0,38,98,0
0,42,70,0
0,54,47,2
0,39,86,2
0,43,84,2
0,43,108,2
0,42,52,72
0,54,39,2
0,69,44,0
0,42,66,72
0,54,56,2
0,69,45,0
0,70,59,0
0,43,84,4
0,43,108,2
0,50,99,2
0,55,101,0
0,59,103,0
0,37,77,0
0,42,52,0
0,54,41,0
0,69,46,0
0,35,111,32
0,42,72,0
0,54,48,2
0,69,54,0
0,42,84,4
0,66,87,0
0,42,108,2
0,37,72,74
0,40,62,0
0,42,52,0
0,54,38,0
0,69,51,0
0,33,84,2
0,33,108,2
0,42,66,8
0,54,56,2
0,69,38,0
0,70,62,0
0,42,84,4
0,42,108,2
0,54,93,2
0,57,94,0
0,62,102,0
0,40,57,8
0,42,52,0
0,54,41,2
0,69,48,0
0,70,52,0
0,35,107,74
0,38,98,0
0,42,70,0
0,54,47,2
0,39,86,2
0,40,73,72
0,42,52,0
0,54,40,2
0,69,41,0
0,40,70,24
0,40,77,30
0,42,66,0
0,54,56,2
0,69,50,0
0,70,57,0
0,54,94,8
0,57,98,0
0,62,101,0
0,37,79,12
0,40,73,0
0,42,52,0
0,54,43,2
0,69,42,2
0,35,111,0
0,42,72,0
0,54,48,2
0,69,53,0
0,64,86,4
0,40,63,74
0,42,52,0
0,54,39,2
0,69,43,0
0,33,84,4
0,33,108,2
0,42,66,12
0,54,56,2
0,69,35,0
0,70,62,0
0,40,84,4
0,40,108,2
0,52,101,2
0,57,97,0
0,61,97,0
0,40,57,14
0,42,52,0
0,54,38,2
0,69,56,0
0,70,52,0
0,40,84,4
0,40,108,2
0,35,107,16
0,38,98,0
0,42,70,0
0,54,47,2
0,39,86,2
0,40,84,2
0,40,108,2
0,42,52,72
0,54,39,2
0,69,44,0
0,42,66,72
0,54,56,2
0,69,45,0
0,70,59,0
0,40,84,4
0,40,108,2
0,52,99,2
0,57,101,0
0,61,103,0
0,37,77,0
0,42,52,0
0,54,41,0
0,69,46,0
0,35,111,74
0,42,72,0
0,54,48,2
0,69,54,0
0,40,84,4
0,40,108,2
0,37,72,60
0,40,62,0
0,42,52,0
0,54,38,0
0,69,51,0
0,33,84,2
0,33,108,2
0,42,66,16
0,54,56,2
0,69,38,0
0,70,62,0
0,33,84,4
0,33,108,2
0,52,93,2
0,57,94,0
0,61,102,0
0,40,57,8
0,42,52,0
0,54,41,2
0,69,48,0
0,70,52,0
0,35,107,74
0,38,98,0
0,42,70,0
0,54,47,2
0,39,86,2
0,40,73,72
0,42,52,0
0,54,40,2
0,69,41,0
0,40,70,24
0,40,77,30
0,42,66,0
0,54,56,2
0,69,50,0
0,70,57,0
0,57,72,4
0,52,94,4
0,57,98,0
0,61,101,0
0,37,79,12
0,40,73,0
0,42,52,0
0,54,43,2
0,69,42,2
0,35,111,0
0,42,72,0
0,54,48,2
0,69,53,0
0,59,85,2
0,40,63,74
0,42,52,0
0,54,39,2
0,69,43,0
0,33,84,4
0,33,108,2
0,42,66,12
0,54,56,2
0,69,35,0
0,70,62,0
0,35,84,4
0,35,108,2
0,50,101,2
0,55,97,0
0,59,97,0
0,40,57,14
0,42,52,0
0,54,38,2
0,69,56,0
0,70,52,0
0,35,84,4
0,35,108,2
0,35,107,16
0,38,98,0
0,42,70,0
0,54,47,2
0,39,86,2
0,35,84,2
0,35,108,2
0,42,52,72
0,54,39,2
0,69,44,0
0,42,66,72
0,54,56,2
0,69,45,0
0,70,59,0
0,35,84,4
0,35,108,2
0,50,99,2
0,55,101,0
0,59,103,0
0,37,77,0
0,42,52,0
0,54,41,0
0,69,46,0
0,35,111,62
0,42,72,0
0,54,48,2
0,69,54,0
0,35,84,4
0,61,87,0
0,35,108,2
0,37,72,74
0,40,62,0
0,42,52,0
0,54,38,0
0,69,51,0
0,37,84,2
0,37,108,2
0,42,66,16
0,54,56,2
0,69,38,0
0,70,62,0
0,37,84,4
0,37,108,2
0,52,93,2
0,57,94,0
0,61,102,0
0,40,57,8
0,42,52,0
0,54,41,2
0,69,48,0
0,70,52,0
0,35,107,74
0,38,98,0
0,42,70,0
0,54,47,2
0,39,86,2
0,40,73,72
0,42,52,0
0,54,40,2
0,69,41,0
0,40,70,24
0,40,77,30
0,42,66,0
0,54,56,2
0,69,50,0
0,70,57,0
0,52,94,8
0,57,98,0
0,61,101,0
0,37,79,12
0,40,73,0
0,42,52,0
0,54,43,2
0,69,42,2
0,35,111,0
0,42,72,0
0,54,48,2
0,69,53,0
0,62,82,4
0,40,63,74
0,42,52,0
0,54,39,2
0,69,43,0
0,33,84,4
0,33,108,2
0,42,66,12
0,54,56,2
0,69,35,0
0,70,62,0
0,38,84,4
0,38,108,2
0,54,101,2
0,57,97,0
0,62,97,0
0,40,57,14
0,42,52,0
0,54,38,2
0,69,56,0
0,70,52,0
0,38,84,4
0,38,108,2
0,35,107,16
0,38,98,0
0,42,70,0
0,54,47,2
0,39,86,2
0,38,84,2
0,38,108,2
0,42,52,72
0,54,39,2
0,69,44,0
0,42,66,72
0,54,56,2
0,69,45,0
0,70,59,0
0,38,84,4
0,38,108,2
0,54,99,2
0,57,101,0
0,62,103,0
0,37,77,0
0,42,52,0
0,54,41,0
0,69,46,0
0,35,111,66
0,42,72,0
0,54,48,2
0,69,54,0
0,38,84,4
0,64,85,0
0,38,108,2
0,37,72,74
0,40,62,0
0,42,52,0
0,54,38,0
0,69,51,0
0,33,84,2
0,33,108,2
0,42,66,16
0,54,56,2
0,69,38,0
0,70,62,0
0,40,84,4
0,40,108,2
0,57,93,2
0,61,94,0
0,64,102,0
0,40,57,8
0,42,52,0
0,54,41,2
0,69,48,0
0,70,52,0
0,66,86,2
0,35,107,74
0,38,98,0
0,42,70,0
0,54,47,2
0,39,86,2
0,40,73,72
0,42,52,0
0,54,40,2
0,69,41,0
0,69,85,2
0,40,70,24
0,40,77,30
0,42,66,0
0,54,56,2
0,69,50,0
0,70,57,0
0,57,94,8
0,61,98,0
0,64,101,0
0,37,79,12
0,40,73,0
0,42,52,0
0,54,43,2
0,69,42,2
0,35,111,0
0,42,72,0
0,54,48,2
