track,note,velocity,time
1,41,124,3481
1,41,0,260
1,36,118,27
1,36,0,34
1,41,120,62
1,41,0,266
1,36,118,23
1,36,0,50
1,34,121,44
1,34,0,246
1,34,120,43
1,34,0,54
1,36,119,43
1,36,0,190
1,36,119,1
1,36,0,178
1,34,118,13
1,34,0,157
1,34,118,37
1,34,0,148
1,33,118,44
1,33,0,77
1,41,110,19
1,41,0,58
1,38,116,37
1,38,0,160
1,31,116,33
1,31,0,179
1,34,116,11
1,34,0,185
1,36,116,8
1,36,0,381
1,41,124,3
1,41,0,260
1,36,118,28
1,36,0,34
1,41,120,62
1,41,0,266
1,36,118,23
1,36,0,50
1,34,121,45
1,34,0,246
1,34,120,43
1,34,0,45
1,35,120,1
1,35,0,47
1,36,119,3
1,36,0,190
1,36,119,1
1,36,0,178
1,34,118,15
1,34,0,157
1,34,118,33
1,34,0,148
1,33,118,45
1,33,0,77
1,41,110,19
1,41,0,58
1,38,116,37
1,38,0,160
1,34,116,34
1,34,0,179
1,36,116,11
1,36,0,185
1,29,116,7
1,29,0,669
1,36,110,4
1,36,0,40
1,41,100,1
1,41,0,281
1,43,110,9
1,43,0,2
1,48,100,1
1,48,0,67
1,48,96,28
1,48,0,40
1,53,88,1
1,53,0,185
1,41,124,9
1,41,0,260
1,36,118,27
1,36,0,34
1,41,120,63
1,41,0,266
1,36,118,22
1,36,0,50
1,34,121,45
1,34,0,246
1,34,120,42
1,34,0,54
1,36,119,43
1,36,0,191
1,36,119,1
1,36,0,178
1,34,118,13
1,34,0,157
1,34,118,35
1,34,0,148
1,33,118,45
1,33,0,77
1,41,110,18
1,41,0,58
1,38,116,39
1,38,0,160
1,31,116,32
1,31,0,179
1,34,116,13
1,34,0,185
1,36,116,6
1,36,0,381
1,41,124,2
1,41,0,260
1,36,118,30
1,36,0,34
1,41,120,61
1,41,0,266
1,36,118,22
1,36,0,50
1,34,121,45
1,34,0,246
1,34,120,44
1,34,0,46
1,35,120,1
1,35,0,47
1,36,119,1
1,36,0,191
1,36,119,1
1,36,0,178
1,34,118,15
1,34,0,157
1,34,118,33
1,34,0,148
1,33,118,45
1,33,0,77
1,41,110,19
1,41,0,58
1,38,116,37
1,38,0,160
1,34,116,32
1,34,0,179
1,36,116,13
1,36,0,185
1,29,116,9
1,29,0,669
1,36,110,1
1,36,0,40
1,41,116,3
1,41,0,189
1,36,116,2
1,36,0,189
1,41,116,2
1,41,0,189
1,36,116,4
1,36,0,189
1,41,116,2
1,41,0,189
1,36,116,5
1,36,0,189
1,41,116,1
1,41,0,189
1,36,116,3
1,36,0,189
1,41,116,4
1,41,0,189
1,36,116,3
1,36,0,189
1,41,116,4
1,41,0,189
1,36,116,1
1,36,0,189
1,36,116,3
1,36,0,189
1,40,116,4
1,40,0,189
1,41,116,3
1,41,0,381
1,36,122,3
1,36,0,214
1,36,122,74
1,36,0,28
1,36,121,69
1,36,0,228
1,36,122,58
1,36,0,31
1,36,124,65
1,36,0,212
1,36,124,76
1,36,0,31
1,36,125,65
1,36,0,240
1,36,124,50
1,36,0,31
1,34,118,64
1,34,0,141
1,33,117,52
1,33,0,147
1,31,120,43
1,31,0,158
1,29,118,34
1,29,0,146
1,36,119,47
1,36,0,158
1,36,119,35
1,36,0,127
1,41,115,63
1,41,0,167
1,29,115,26
1,29,0,147
1,41,116,45
1,41,0,189
1,36,116,4
1,36,0,189
1,41,116,1
1,41,0,189
1,36,116,3
1,36,0,189
1,41,116,3
1,41,0,189
1,36,116,4
1,36,0,189
1,41,116,2
1,41,0,189
1,36,116,3
1,36,0,189
1,41,116,5
1,41,0,189
1,36,116,3
1,36,0,189
1,41,116,3
1,41,0,189
1,36,116,2
1,36,0,189
1,36,116,2
1,36,0,189
1,40,116,5
1,40,0,189
1,41,116,2
1,41,0,381
1,36,122,3
1,36,0,214
1,36,122,73
1,36,0,28
1,36,121,69
1,36,0,228
1,36,122,61
1,36,0,31
1,36,124,64
1,36,0,212
1,36,124,76
1,36,0,31
1,36,125,66
1,36,0,240
1,36,124,46
1,36,0,31
1,34,118,66
1,34,0,141
1,33,117,51
1,33,0,147
1,31,120,44
1,31,0,158
1,29,118,36
1,29,0,146
1,36,119,45
1,36,0,158
1,36,119,35
1,36,0,127
1,41,115,63
1,41,0,167
1,41,115,26
1,41,0,95
1,43,99,1
1,43,0,94
1,48,115,1
1,48,0,263
1,48,110,25
1,48,0,40
1,53,116,3
1,53,0,479
1,55,90,1
1,55,0,46
1,53,94,1
1,53,0,46
1,50,116,1
1,50,0,95
1,48,116,3
1,48,0,12
1,41,124,1
1,41,0,260
1,36,118,28
1,36,0,34
1,41,120,61
1,41,0,266
1,36,118,24
1,36,0,50
1,34,121,45
1,34,0,246
1,34,120,41
1,34,0,54
1,36,119,42
1,36,0,191
1,36,119,3
1,36,0,178
1,34,118,14
1,34,0,157
1,34,118,34
1,34,0,148
1,33,118,45
1,33,0,77
1,41,110,18
1,41,0,58
1,38,116,38
1,38,0,160
1,31,116,32
1,31,0,179
1,34,116,12
1,34,0,185
1,36,116,7
1,36,0,381
1,41,124,4
1,41,0,260
1,36,118,28
1,36,0,34
1,41,120,61
1,41,0,266
1,36,118,23
1,36,0,50
1,34,121,47
1,34,0,246
1,34,120,41
1,34,0,46
1,35,120,1
1,35,0,47
1,36,119,3
1,36,0,190
1,36,119,1
1,36,0,178
1,34,118,14
1,34,0,157
1,34,118,36
1,34,0,148
1,33,118,44
1,33,0,77
1,41,110,19
1,41,0,58
1,38,116,37
1,38,0,160
1,34,116,31
1,34,0,179
1,36,116,13
1,36,0,185
1,29,116,8
1,29,0,669
1,36,110,4
1,36,0,2
1,41,100,1
1,41,0,281
1,43,110,5
1,43,0,40
1,48,100,1
1,48,0,67
1,48,96,31
1,48,0,2
1,53,88,1
1,53,0,185
1,41,124,5
1,41,0,260
1,36,118,28
1,36,0,34
1,41,120,63
1,41,0,266
1,36,118,21
1,36,0,50
1,34,121,46
1,34,0,246
1,34,120,42
1,34,0,54
1,36,119,44
1,36,0,189
1,36,119,1
1,36,0,178
1,34,118,15
1,34,0,157
1,34,118,34
1,34,0,148
1,33,118,45
1,33,0,77
1,41,110,18
1,41,0,58
1,38,116,40
1,38,0,160
1,31,116,32
1,31,0,179
1,34,116,11
1,34,0,185
1,36,116,7
1,36,0,381
1,41,124,4
1,41,0,260
1,36,118,27
1,36,0,34
1,41,120,62
1,41,0,266
1,36,118,22
1,36,0,50
1,34,121,47
1,34,0,246
1,34,120,41
1,34,0,47
1,35,120,2
1,35,0,47
1,36,119,1
1,36,0,191
1,36,119,2
1,36,0,178
1,34,118,14
1,34,0,157
1,34,118,35
1,34,0,148
1,33,118,42
1,33,0,77
1,41,110,21
1,41,0,58
1,38,116,38
1,38,0,160
1,34,116,31
1,34,0,179
1,36,116,14
1,36,0,185
1,29,116,7
1,29,0,669
1,36,110,2
1,36,0,1
1,41,116,2
1,41,0,189
1,36,116,1
1,36,0,189
1,41,116,3
1,41,0,189
1,36,116,3
1,36,0,189
1,41,116,5
1,41,0,189
1,36,116,3
1,36,0,189
1,41,116,3
1,41,0,189
1,36,116,2
1,36,0,189
1,41,116,3
1,41,0,189
1,36,116,2
1,36,0,189
1,41,116,4
1,41,0,189
1,36,116,2
1,36,0,189
1,36,116,4
1,36,0,189
1,40,116,4
1,40,0,189
1,41,116,3
1,41,0,381
1,36,122,1
1,36,0,214
1,36,122,74
1,36,0,28
1,36,121,68
1,36,0,228
1,36,122,62
1,36,0,31
1,36,124,63
1,36,0,212
1,36,124,78
1,36,0,31
1,36,125,64
1,36,0,240
1,36,124,48
1,36,0,31
1,34,118,65
1,34,0,141
1,33,117,52
1,33,0,147
1,31,120,44
1,31,0,158
1,29,118,35
1,29,0,146
1,36,119,46
1,36,0,158
1,36,119,33
1,36,0,127
1,41,115,66
1,41,0,167
1,29,115,23
1,29,0,147
1,41,116,45
1,41,0,189
1,36,116,3
1,36,0,189
1,41,116,4
1,41,0,189
1,36,116,4
1,36,0,189
1,41,116,3
1,41,0,189
1,36,116,2
1,36,0,189
1,41,116,4
1,41,0,189
1,36,116,1
1,36,0,189
1,41,116,3
1,41,0,189
1,36,116,4
1,36,0,189
1,41,116,3
1,41,0,189
1,36,116,3
1,36,0,189
1,36,116,2
1,36,0,189
1,40,116,3
1,40,0,189
1,41,116,5
1,41,0,381
1,36,122,3
1,36,0,214
1,36,122,72
1,36,0,28
1,36,121,68
1,36,0,228
1,36,122,60
1,36,0,31
1,36,124,67
1,36,0,212
1,36,124,75
1,36,0,31
1,36,125,65
1,36,0,240
1,36,124,48
1,36,0,31
1,34,118,64
1,34,0,141
1,33,117,53
1,33,0,147
1,31,120,43
1,31,0,158
1,29,118,34
1,29,0,146
1,36,119,46
1,36,0,158
1,36,119,36
1,36,0,127
1,41,115,64
1,41,0,167
1,41,115,24
1,41,0,95
1,43,99,2
1,43,0,95
1,48,115,2
1,48,0,263
1,48,110,25
1,48,0,2
1,53,116,1
1,53,0,479
1,55,90,1
1,55,0,45
1,53,94,1
1,53,0,47
1,50,116,3
1,50,0,94
1,48,116,1
1,48,0,11
1,41,124,0
1,41,0,260
1,36,118,30
1,36,0,34
1,41,120,60
1,41,0,266
1,36,118,23
1,36,0,50
1,34,121,46
1,34,0,246
1,34,120,41
1,34,0,54
1,36,119,42
1,36,0,191
1,36,119,2
1,36,0,178
1,34,118,15
1,34,0,157
1,34,118,33
1,34,0,148
1,33,118,45
1,33,0,77
1,41,110,18
1,41,0,58
1,38,116,38
1,38,0,160
1,31,116,33
1,31,0,179
1,34,116,14
1,34,0,185
1,36,116,6
1,36,0,381
1,41,124,3
1,41,0,260
1,36,118,29
1,36,0,34
1,41,120,60
1,41,0,266
1,36,118,24
1,36,0,50
1,34,121,45
1,34,0,246
1,34,120,42
1,34,0,47
1,35,120,1
1,35,0,47
1,36,119,2
1,36,0,191
1,36,119,1
1,36,0,178
1,34,118,13
1,34,0,157
1,34,118,36
1,34,0,148
1,33,118,42
1,33,0,77
1,41,110,19
1,41,0,58
1,38,116,40
1,38,0,160
1,34,116,30
1,34,0,179
1,36,116,13
1,36,0,185
1,29,116,7
1,29,0,669
1,36,110,5
1,36,0,2
1,41,100,1
1,41,0,281
1,43,110,5
1,43,0,40
1,48,100,3
1,48,0,67
1,48,96,27
1,48,0,40
1,53,88,2
1,53,0,185
1,41,116,8
1,41,0,189
1,36,116,2
1,36,0,189
1,41,116,2
1,41,0,189
1,36,116,5
1,36,0,189
1,41,116,3
1,41,0,189
1,36,116,3
1,36,0,189
1,41,116,3
1,41,0,189
1,36,116,2
1,36,0,189
1,41,116,4
1,41,0,189
1,36,116,3
1,36,0,189
1,41,116,1
1,41,0,189
1,36,116,4
1,36,0,189
1,36,116,3
1,36,0,189
1,40,116,2
1,40,0,189
1,41,116,5
1,41,0,381
1,36,122,2
1,36,0,214
1,36,122,73
1,36,0,28
1,36,121,70
1,36,0,228
1,36,122,59
1,36,0,31
1,36,124,64
1,36,0,212
1,36,124,77
1,36,0,31
1,36,125,64
1,36,0,240
1,36,124,49
1,36,0,31
1,34,118,66
1,34,0,141
1,33,117,49
1,33,0,147
1,31,120,45
1,31,0,158
1,29,118,35
1,29,0,146
1,36,119,47
1,36,0,158
1,36,119,33
1,36,0,127
1,41,115,64
1,41,0,167
1,29,115,26
1,29,0,147
1,41,116,46
1,41,0,189
1,36,116,1
1,36,0,189
1,41,116,3
1,41,0,189
1,36,116,5
1,36,0,189
1,41,116,2
1,41,0,189
1,36,116,4
1,36,0,189
1,41,116,3
1,41,0,189
1,36,116,1
1,36,0,189
1,41,116,3
1,41,0,189
1,36,116,4
1,36,0,189
1,41,116,4
1,41,0,189
1,36,116,1
1,36,0,189
1,36,116,3
1,36,0,189
1,40,116,4
1,40,0,189
1,41,116,4
1,41,0,381
1,36,122,3
1,36,0,214
1,36,122,73
1,36,0,28
1,36,121,68
1,36,0,228
1,36,122,60
1,36,0,31
1,36,124,66
1,36,0,212
1,36,124,76
1,36,0,31
1,36,125,64
1,36,0,240
1,36,124,47
1,36,0,31
1,34,118,67
1,34,0,141
1,33,117,49
1,33,0,147
1,31,120,45
1,31,0,158
1,29,118,35
1,29,0,146
1,36,119,47
1,36,0,158
1,36,119,34
1,36,0,127
1,41,115,63
1,41,0,167
1,41,115,26
1,41,0,94
1,43,99,1
1,43,0,95
1,41,116,2
1,41,0,189
1,36,116,4
1,36,0,189
1,41,116,1
1,41,0,189
1,36,116,5
1,36,0,189
1,41,116,1
1,41,0,189
1,36,116,5
1,36,0,189
1,41,116,3
1,41,0,189
1,36,116,2
1,36,0,189
1,41,116,3
1,41,0,189
1,36,116,4
1,36,0,189
1,41,116,3
1,41,0,189
1,36,116,3
1,36,0,189
1,36,116,2
1,36,0,189
1,40,116,4
1,40,0,189
1,41,116,2
1,41,0,381
1,36,122,2
1,36,0,214
1,36,122,74
1,36,0,28
1,36,121,70
1,36,0,228
1,36,122,60
1,36,0,31
1,36,124,63
1,36,0,212
1,36,124,77
1,36,0,31
1,36,125,64
1,36,0,240
1,36,124,2
1,36,0,31
1,34,118,65
1,34,0,35
1,33,117,51
1,33,0,7
1,31,120,45
1,31,0,158
1,29,118,27
1,29,0,146
1,36,119,5
1,36,0,158
1,36,119,34
1,36,0,127
1,41,115,11
1,41,0,167
1,41,115,25
1,41,0,94
1,43,99,1
1,43,0,48
1,41,116,1
1,41,0,15
1,36,116,5
1,36,0,189
1,41,116,1
1,41,0,169
1,36,116,4
1,36,0,6
1,41,116,4
1,41,0,3
1,36,116,2
1,36,0,189
1,41,116,3
1,41,0,38
1,36,116,2
1,36,0,189
1,41,116,5
1,41,0,189
1,36,116,1
1,36,0,183
1,41,116,5
1,41,0,189
1,36,116,2
1,36,0,33
1,36,116,4
1,36,0,189
1,40,116,3
1,40,0,14
1,41,116,3
1,41,0,21
1,36,122,2
1,36,0,214
1,36,122,75
1,36,0,28
1,36,121,25
1,36,0,46
1,36,122,61
1,36,0,31
1,36,124,65
1,36,0,33
1,36,124,75
1,36,0,31
1,36,125,64
1,36,0,62
2,65,115,23441
2,65,0,34
2,60,113,61
2,60,0,34
2,65,115,61
2,65,0,98
2,67,115,47
2,67,0,28
2,69,115,19
2,69,0,127
2,70,115,16
2,70,0,31
2,69,115,20
2,69,0,34
2,65,115,61
2,65,0,32
2,65,115,65
2,65,0,36
2,60,113,58
2,60,0,33
2,65,115,65
2,65,0,46
2,65,115,48
2,65,0,30
2,67,115,18
2,67,0,27
2,69,115,20
2,69,0,87
2,70,115,12
2,70,0,26
2,69,115,20
2,69,0,33
2,67,115,16
2,67,0,120
2,65,115,70
2,65,0,33
2,60,112,63
2,60,0,29
2,65,115,69
2,65,0,112
2,67,114,31
2,67,0,29
2,69,115,20
2,69,0,114
2,70,115,30
2,70,0,27
2,69,115,22
2,69,0,38
2,65,112,56
2,65,0,40
2,67,115,58
2,67,0,29
2,64,115,67
2,64,0,31
2,60,111,14
2,60,0,21
2,67,115,28
2,67,0,27
2,69,113,22
2,69,0,24
2,70,115,23
2,70,0,24
2,67,114,26
2,67,0,28
2,65,115,20
2,65,0,243
2,72,118,140
2,72,0,205
2,72,118,83
2,72,0,29
2,72,117,65
2,72,0,233
2,72,116,57
2,72,0,20
2,72,118,76
2,72,0,192
2,72,118,94
2,72,0,21
2,72,118,75
2,72,0,203
2,72,113,87
2,72,0,22
2,74,119,75
2,74,0,147
2,72,115,45
2,72,0,134
2,70,114,57
2,70,0,117
2,69,115,75
2,69,0,122
2,72,114,69
2,72,0,137
2,72,116,55
2,72,0,121
2,65,117,73
2,65,0,240
2,65,115,21261
2,65,0,34
2,60,113,62
2,60,0,34
2,65,115,62
2,65,0,98
2,67,115,47
2,67,0,28
2,69,115,20
2,69,0,127
2,70,115,18
2,70,0,31
2,69,115,18
2,69,0,34
2,65,115,61
2,65,0,32
2,65,115,63
2,65,0,36
2,60,113,60
2,60,0,33
