track,note,velocity,time
0,50,50,0
0,59,20,0
0,57,48,0
0,66,58,0
0,50,50,246
0,59,66,2
0,67,72,0
0,50,50,146
0,61,65,0
0,69,54,0
0,62,73,36
0,71,66,2
0,61,66,244
0,50,50,2
0,69,62,0
0,59,53,144
0,67,64,0
0,50,50,2
0,74,62,60
0,73,69,4
0,74,71,12
0,50,50,24
0,67,70,0
0,58,70,2
0,66,67,88
0,50,50,2
0,57,57,0
0,50,50,56
0,55,62,0
0,64,62,4
0,66,67,66
0,67,60,48
0,50,50,4
0,57,54,0
0,59,20,2
0,66,61,0
0,67,70,168
0,50,50,2
0,59,69,0
0,61,70,152
0,69,57,2
0,50,50,2
0,67,69,120
0,59,66,4
0,50,50,236
0,57,62,0
0,66,66,0
0,50,50,114
0,67,64,0
0,59,66,2
0,74,66,214
0,73,63,46
0,74,65,42
0,67,67,60
0,70,66,0
0,50,50,2
0,62,66,2
0,50,50,134
0,69,61,0
0,58,67,60
0,62,67,2
0,50,50,2
0,67,67,0
0,57,59,2
0,66,57,0
0,50,50,2
0,81,92,0
0,59,20,0
0,59,62,192
0,67,65,0
0,50,50,2
0,81,107,148
0,61,56,6
0,69,53,0
0,50,50,4
0,79,92,66
0,78,95,86
0,76,72,44
0,50,50,20
0,59,63,2
0,67,64,0
0,78,89,16
0,74,70,82
0,66,77,14
0,67,63,24
0,55,55,34
0,58,59,0
0,50,50,2
0,64,57,2
0,69,89,132
0,66,64,10
0,69,84,4
0,64,72,16
0,78,70,14
0,50,50,8
0,57,70,0
0,59,20,0
0,66,77,0
0,50,50,2
0,59,52,0
0,67,66,4
0,81,80,6
0,50,50,2
0,69,62,0
0,61,64,2
0,79,94,14
0,78,92,2
0,73,77,6
0,74,72,36
0,74,74,8
0,50,50,4
0,67,53,0
0,71,45,0
0,74,63,2
0,86,71,72
0,85,69,40
0,86,77,40
0,79,60,58
0,50,50,2
0,82,68,0
0,74,57,0
0,81,66,138
0,50,50,62
0,70,67,0
0,74,62,0
0,79,64,4
0,81,92,158
0,50,50,2
0,57,60,0
0,66,66,2
0,59,20,0
0,57,74,0
0,66,76,0
0,81,82,4
0,81,72,6
0,67,83,12
0,50,50,2
0,59,69,2
0,59,64,0
0,67,63,0
0,69,69,146
0,69,77,2
0,50,50,0
0,61,63,0
0,61,72,2
0,78,102,12
0,78,82,8
0,79,84,12
0,59,68,18
0,50,50,2
0,59,72,2
0,67,89,0
0,67,65,0
0,78,62,6
0,74,59,10
0,66,68,10
0,67,65,34
0,58,69,52
0,58,77,2
0,50,50,0
0,55,71,0
0,62,76,2
0,67,74,0
0,64,64,0
0,69,82,22
0,66,74,6
0,69,89,6
0,64,68,8
0,78,65,8
0,66,81,4
0,57,68,0
0,57,76,2
0,59,20,0
0,50,50,0
0,66,75,0
0,74,63,20
0,81,76,32
0,74,98,42
0,74,76,0
0,71,107,2
0,71,74,2
0,73,94,6
0,70,73,0
0,73,71,0
0,70,92,2
0,66,88,6
0,72,75,0
0,42,89,0
0,66,73,0
0,79,110,0
0,69,98,2
0,72,101,0
0,42,74,0
0,69,77,0
0,78,70,4
0,74,65,6
0,71,81,94
0,43,73,0
0,62,75,0
0,43,89,2
0,62,80,0
0,67,76,0
0,67,85,0
0,71,69,0
0,62,75,160
0,50,50,18
0,59,77,54
0,55,73,2
0,43,71,2
0,61,76,22
0,62,72,46
0,42,94,10
0,42,74,0
0,64,74,64
0,66,68,34
0,40,71,2
0,59,72,0
0,40,101,2
0,59,94,0
0,67,89,0
0,62,72,0
0,67,71,0
0,76,107,0
0,59,20,0
0,62,98,0
0,52,88,40
0,52,78,0
0,54,88,32
0,59,20,2
0,54,77,0
0,55,82,42
0,55,76,0
0,59,20,0
0,62,78,70
0,62,101,2
0,59,20,0
0,59,20,56
0,59,20,94
0,78,83,92
0,66,78,2
0,94,20,0
0,67,68,28
0,79,71,2
0,94,20,0
0,86,103,40
0,74,77,0
0,94,20,2
0,94,20,160
0,78,95,20
0,74,81,2
0,64,72,8
0,45,90,2
0,64,88,0
0,57,75,0
0,61,76,0
0,59,20,0
0,57,94,0
0,61,96,0
0,45,67,0
0,76,82,0
0,57,76,6
0,57,73,2
0,59,64,16
0,59,77,2
0,59,20,0
0,61,77,10
0,59,20,0
0,61,90,0
0,59,20,78
0,69,89,0
0,69,69,0
0,59,20,54
0,59,20,94
0,83,83,94
0,94,20,0
0,71,71,0
0,73,77,16
0,94,20,2
0,85,75,0
0,93,101,56
0,81,79,0
0,94,20,2
0,94,20,154
0,74,102,178
0,76,89,0
0,78,74,4
0,66,85,2
0,38,96,2
0,57,90,0
0,38,74,0
0,57,77,0
0,62,76,0
0,66,77,0
0,59,20,0
0,62,89,0
0,57,69,2
0,69,86,56
0,81,92,0
0,59,20,0
0,59,20,36
0,66,98,0
0,59,20,108
0,67,76,92
0,59,20,2
0,69,77,26
0,59,20,2
0,62,84,8
0,62,68,0
0,69,71,0
0,42,94,2
0,64,98,0
0,69,89,0
0,42,74,0
0,59,20,0
0,64,78,0
0,59,20,16
0,62,72,0
0,59,20,32
0,69,74,0
0,74,94,46
0,59,20,2
0,76,95,54
0,59,20,0
0,78,70,2
0,59,20,4
0,80,24,0
0,59,20,8
0,80,24,0
0,74,55,0
0,67,84,92
0,43,88,2
0,43,78,0
0,62,66,0
0,59,20,0
0,80,24,0
0,62,84,0
0,67,89,0
0,71,84,0
0,71,73,0
0,71,85,46
0,59,20,2
0,59,20,26
0,67,89,0
0,59,20,28
0,73,80,92
0,64,85,2
0,59,20,0
0,74,82,24
0,59,20,0
0,62,90,44
0,67,67,0
0,71,81,0
0,47,107,2
0,59,20,0
0,47,67,0
0,74,80,0
0,62,82,44
0,59,20,0
0,59,20,32
0,64,82,0
0,59,20,4
0,67,81,0
0,71,83,48
0,74,76,0
0,79,83,0
0,59,20,0
0,76,98,76
0,59,20,2
0,78,89,0
0,78,91,0
0,59,20,6
0,80,24,0
0,60,92,2
0,64,92,0
0,67,88,0
0,79,86,0
0,48,101,2
0,48,84,0
0,67,75,0
0,72,90,0
0,59,20,0
0,80,24,0
0,76,77,0
0,67,82,36
0,72,83,46
0,59,20,0
0,72,98,46
0,79,86,0
0,59,20,2
0,76,84,0
0,59,20,10
0,59,20,94
0,78,76,0
0,59,20,94
0,76,109,6
0,59,20,0
0,72,101,0
0,60,75,0
0,64,84,0
0,76,78,6
0,59,20,6
0,74,101,12
0,66,85,0
0,59,20,0
0,78,111,0
0,62,78,0
0,48,88,6
0,59,20,0
0,67,81,8
0,47,90,2
0,79,107,0
0,64,88,0
0,78,115,0
0,59,20,0
0,76,105,0
0,74,76,2
0,76,86,4
0,61,75,2
0,45,86,0
0,73,101,0
0,76,90,0
0,45,75,0
0,64,81,0
0,59,20,0
0,80,24,0
0,69,98,0
0,57,69,0
0,59,20,34
0,69,62,40
0,59,20,0
0,73,71,46
0,59,20,0
0,76,86,0
0,59,20,24
0,74,85,0
0,73,83,2
0,59,20,2
0,76,94,18
0,67,94,8
0,71,98,0
0,74,88,0
0,55,73,0
0,59,76,0
0,45,101,2
0,45,62,0
0,76,101,0
0,62,78,0
0,48,100,4
0,76,105,2
0,45,113,2
0,73,105,0
0,45,67,0
0,57,61,0
0,64,80,0
0,48,100,0
0,69,98,0
0,61,82,0
0,45,94,164
0,62,90,4
0,62,81,0
0,38,94,2
0,57,64,0
0,62,64,0
0,66,64,0
0,57,88,0
0,66,96,0
0,66,78,0
0,35,113,0
0,42,34,0
0,57,72,0
0,42,34,94
0,50,77,0
0,81,95,0
0,42,34,4
0,42,34,92
0,81,112,8
0,40,109,6
0,42,34,0
0,50,87,4
0,42,34,48
0,54,69,6
0,40,94,4
0,86,112,0
0,42,34,0
0,41,94,8
0,35,105,0
0,42,34,0
0,86,95,10
0,54,87,2
0,66,88,4
0,66,82,0
0,42,94,2
0,62,64,0
0,66,64,0
0,69,64,0
0,62,84,0
0,69,94,0
0,69,80,0
0,35,113,0
0,42,34,0
0,62,75,0
0,42,34,48
0,57,97,38
0,90,92,4
0,42,34,6
0,42,34,94
0,57,95,28
0,90,92,0
0,40,101,2
0,42,34,0
0,42,34,32
0,81,86,2
0,50,87,2
0,42,34,2
0,42,94,0
0,50,92,0
0,83,92,0
0,42,34,0
0,71,98,6
0,67,78,0
0,43,89,2
0,62,64,0
0,67,64,0
0,71,64,0
0,62,83,0
0,67,90,0
0,62,78,0
0,35,101,0
0,42,34,0
0,71,76,0
0,81,92,52
0,48,69,0
0,42,34,2
0,79,70,0
0,47,84,0
0,42,34,2
0,42,34,30
0,40,105,10
0,42,34,0
0,71,90,0
0,42,34,2
0,67,94,0
0,42,34,32
0,62,66,0
0,43,94,44
0,35,101,0
0,42,34,0
0,62,81,26
0,71,90,0
0,62,78,0
0,67,90,0
0,43,94,2
0,67,98,0
0,35,107,0
0,42,34,0
0,71,78,0
0,42,34,62
0,42,34,52
0,42,34,32
0,83,95,82
0,50,97,2
0,62,86,2
0,66,85,0
0,42,100,2
0,66,64,0
0,69,64,0
0,66,101,0
0,69,90,0
0,62,74,0
0,69,70,0
0,40,103,0
0,42,34,0
0,42,34,46
0,54,84,2
0,86,110,0
0,46,34,6
0,42,34,26
0,55,102,12
0,59,92,6
0,67,94,0
0,59,73,0
0,88,112,0
0,40,100,2
0,59,64,0
0,62,64,0
0,67,64,0
0,62,80,0
0,35,98,0
0,42,34,0
0,62,103,0
0,67,80,0
0,42,34,48
0,57,110,14
0,90,102,4
0,42,34,0
0,42,34,94
0,40,107,4
0,42,34,0
0,42,34,44
0,86,84,14
0,54,56,8
0,42,34,8
0,41,103,6
0,35,98,0
0,42,34,0
0,66,75,54
0,42,94,2
0,62,64,0
0,66,64,0
0,69,64,0
0,62,84,0
0,66,101,0
0,62,80,0
0,69,78,0
0,35,105,0
0,42,34,0
0,69,94,0
0,42,34,8
0,42,34,44
0,42,34,60
0,40,100,94
0,42,34,0
0,42,34,74
0,83,110,22
0,54,87,6
0,42,34,8
0,86,76,4
0,54,71,10
0,42,34,8
0,88,92,0
0,55,87,4
0,64,86,6
0,64,69,0
0,72,88,0
0,48,85,2
0,64,64,0
0,67,64,0
0,72,64,0
0,67,90,0
0,72,96,0
0,67,77,0
0,35,111,0
0,42,34,0
0,42,34,64
0,42,34,28
0,42,34,0
0,40,100,20
0,42,34,0
0,42,34,44
0,90,82,0
0,55,90,18
0,67,77,4
0,74,88,0
0,42,34,0
0,64,84,0
0,50,89,0
0,35,100,0
0,42,34,0
0,72,71,0
0,55,87,2
0,86,92,0
0,67,89,8
0,71,89,0
0,67,81,0
0,43,85,2
0,62,64,0
0,67,64,0
0,71,64,0
0,35,109,0
0,42,34,0
0,62,89,0
0,62,75,0
0,71,88,0
0,42,34,6
0,42,34,4
0,71,82,0
0,62,83,4
0,42,34,2
0,61,94,50
0,64,90,0
0,69,78,0
0,45,98,2
0,64,64,0
0,69,64,0
0,73,64,0
0,73,85,0
0,40,105,0
0,46,34,0
0,69,86,0
0,64,77,0
0,42,34,66
0,69,81,6
0,42,34,0
0,61,80,4
0,42,34,2
0,62,77,0
0,66,82,0
0,38,98,2
0,62,64,0
0,66,64,0
0,69,64,0
0,78,64,0
0,57,83,0
0,62,90,0
0,66,90,0
0,35,113,0
0,42,34,0
0,69,67,0
0,42,34,22
0,81,86,6
0,50,84,8
0,42,34,4
0,42,34,8
0,50,105,16
0,81,125,0
0,40,100,6
0,42,34,0
0,42,34,34
0,86,95,34
0,54,65,2
0,40,96,8
0,42,34,0
0,41,88,10
0,35,94,0
0,42,34,0
0,86,92,10
0,54,95,4
0,66,92,8
0,66,84,0
0,42,85,0
0,81,64,0
0,62,85,0
0,62,85,0
0,69,80,0
0,35,100,0
0,42,34,0
0,69,100,0
0,42,34,42
0,90,86,10
0,57,102,6
0,42,34,8
0,42,34,94
0,90,107,20
0,57,99,12
0,40,101,6
0,42,34,0
0,42,34,54
0,50,89,12
0,81,95,0
0,42,34,6
0,83,92,8
0,50,92,2
0,42,98,4
0,42,34,0
0,62,92,4
0,67,98,0
0,71,94,0
0,71,80,0
0,43,85,2
0,62,64,0
0,67,64,0
0,71,64,0
0,83,64,0
0,35,105,0
0,42,34,0
0,62,80,0
0,67,84,0
0,81,92,0
0,48,97,10
0,42,34,0
0,79,72,8
0,47,67,0
0,42,34,0
0,42,34,6
0,40,105,2
0,42,34,0
0,74,85,68
0,79,85,0
0,74,92,2
0,42,34,0
0,79,101,0
0,83,92,0
0,83,88,0
0,74,85,34
0,81,85,2
0,78,80,0
0,42,34,0
0,78,92,0
0,81,61,0
0,79,88,4
0,83,96,0
0,50,94,2
0,74,100,0
0,79,101,0
0,83,105,0
0,74,85,0
0,35,100,0
0,42,34,0
0,55,94,4
0,35,96,0
0,42,34,0
0,42,34,46
0,42,34,94
0,42,34,46
0,78,90,10
0,83,95,0
0,54,98,2
0,66,64,0
0,69,64,0
0,81,64,0
0,81,96,0
0,74,89,0
0,40,103,0
0,42,34,0
0,50,105,0
0,74,100,0
0,78,100,0
0,81,81,0
0,42,34,60
0,35,98,0
0,42,34,0
0,54,110,0
0,86,110,0
0,42,34,74
0,55,90,6
0,71,103,8
0,74,98,0
0,71,82,0
0,52,90,2
0,59,64,0
0,62,64,0
0,67,64,0
0,86,64,0
0,79,83,0
0,88,92,0
0,35,103,0
0,42,34,0
0,79,94,0
0,74,82,0
0,42,34,54
0,42,34,22
0,42,34,22
0,57,107,4
0,90,92,0
0,40,105,0
0,42,34,0
0,42,34,0
0,54,63,12
0,86,92,2
0,42,34,0
0,53,89,36
0,35,103,0
0,42,34,0
0,69,92,4
0,74,100,0
0,78,90,0
0,74,78,0
0,78,80,0
0,81,77,0
0,54,86,0
0,62,64,0
0,66,64,0
0,69,64,0
0,35,105,0
0,42,34,0
0,42,34,48
0,42,34,56
0,42,34,42
0,40,96,94
0,42,34,0
0,42,34,94
0,83,95,0
0,86,81,8
0,42,34,2
0,86,86,4
0,88,82,12
0,42,34,0
0,46,90,2
0,54,64,0
0,58,64,0
0,61,64,0
0,90,64,0
0,66,92,0
0,82,84,0
0,35,103,0
0,42,34,0
0,70,96,0
0,73,90,0
0,78,72,0
0,85,81,0
0,89,89,0
0,88,84,8
0,42,34,0
0,86,84,14
0,42,34,2
0,90,82,6
0,66,105,2
0,71,105,0
0,74,94,0
0,78,77,0
0,47,88,2
0,54,64,0
0,59,64,0
0,62,64,0
0,83,76,0
0,86,81,0
0,35,109,0
0,42,34,0
0,42,34,0
0,42,34,24
0,74,82,28
0,42,34,2
0,59,34,8
0,67,80,20
0,58,77,0
0,62,76,0
0,46,85,2
0,62,64,0
0,64,64,0
0,69,64,0
0,91,64,0
0,58,77,0
0,62,86,0
0,74,78,0
0,59,34,0
0,67,80,0
0,59,34,0
0,69,78,78
0,59,34,20
0,59,34,16
0,66,70,4
0,38,90,2
0,66,64,0
0,93,64,0
0,57,64,0
0,62,72,0
0,69,69,0
0,50,65,0
0,64,82,0
0,66,73,0
0,59,54,0
0,62,70,0
0,69,55,0
0,59,59,264
0,59,62,94
0,67,74,20
0,50,76,2
0,59,80,2
0,69,72,2
0,50,74,2
0,59,71,0
0,61,76,0
0,62,77,60
0,71,76,0
0,59,65,2
0,61,76,10
0,50,64,2
0,69,70,0
0,59,65,0
0,71,64,110
0,62,70,0
0,67,74,0
0,50,70,2
0,59,64,0
0,67,57,0
0,74,59,0
0,59,64,0
0,59,64,26
0,59,65,94
0,86,83,84
0,85,71,32
0,86,75,36
0,74,62,70
0,76,72,12
0,62,55,10
0,69,55,0
0,64,57,2
0,81,56,0
0,59,73,0
0,67,60,0
0,79,71,28
0,78,70,4
0,59,65,2
0,59,79,32
0,59,79,32
0,76,81,10
0,59,71,0
0,74,80,14
0,72,82,22
0,70,77,28
0,38,90,0
0,81,92,0
0,35,90,0
0,42,34,0
0,57,75,0
0,62,81,0
0,66,81,0
0,57,77,0
0,62,58,0
0,66,75,0
