track,note,velocity,time
1,30,109,1344
1,31,117,192
1,43,107,200
1,35,113,6
1,36,107,20
1,43,110,190
1,30,92,30
1,31,117,30
1,43,110,182
1,35,113,34
1,36,113,12
1,43,99,180
1,30,104,48
1,31,110,24
1,43,107,152
1,35,110,18
1,36,107,14
1,43,110,170
1,30,92,28
1,31,113,20
1,43,107,118
1,35,110,26
1,36,110,24
1,43,110,172
1,30,109,44
1,31,117,54
1,30,109,0
1,43,107,200
1,35,113,6
1,36,107,20
1,43,110,190
1,30,92,30
1,31,117,30
1,43,110,182
1,35,113,34
1,36,113,12
1,43,99,180
1,30,104,48
1,31,110,24
1,43,107,152
1,35,110,18
1,36,107,14
1,43,110,170
1,30,92,28
1,31,113,20
1,43,107,118
1,35,110,26
1,36,110,24
1,43,110,172
1,30,109,44
1,31,117,54
1,30,109,0
1,43,107,200
1,35,113,6
1,36,107,20
1,43,110,190
1,30,92,30
1,31,117,30
1,43,110,182
1,35,113,34
1,36,113,12
1,43,99,180
1,30,104,48
1,31,110,24
1,43,107,152
1,35,110,18
1,36,107,14
1,43,110,170
1,30,92,28
1,31,113,20
1,43,107,118
1,35,110,26
1,36,110,24
1,43,110,172
1,30,109,44
1,45,101,54
1,43,107,18
1,42,109,26
1,40,107,8
1,38,83,42
1,36,104,8
1,35,97,384
1,33,68,368
1,45,101,34
1,43,107,384
1,42,92,24
1,40,97,38
1,38,69,56
1,36,101,384
1,35,92,56
1,33,99,24
1,45,90,38
1,43,107,384
1,42,84,374
1,40,99,22
1,38,107,26
1,36,92,56
1,35,90,100
1,33,110,14
1,31,117,122
1,30,109,0
1,43,107,200
1,35,113,6
1,36,107,20
1,43,110,190
1,30,92,30
1,31,117,30
1,43,110,182
1,35,113,34
1,36,113,12
1,43,99,180
1,30,104,48
1,31,110,24
1,43,107,152
1,35,110,18
1,36,107,14
1,43,110,170
1,30,92,28
1,31,113,20
1,43,107,118
1,35,110,26
1,36,110,24
1,43,110,172
1,30,109,44
1,31,117,54
1,30,109,0
1,43,107,200
1,35,113,6
1,36,107,20
1,43,110,190
1,30,92,30
1,31,117,30
1,43,110,182
1,35,113,34
1,36,113,12
1,43,99,180
1,30,104,48
1,31,110,24
1,43,107,152
1,35,110,18
1,36,107,14
1,43,110,170
1,30,92,28
1,31,113,20
1,43,107,118
1,35,110,26
1,36,110,24
1,43,110,172
1,30,109,44
1,31,117,54
1,30,109,0
1,43,107,200
1,35,113,6
1,36,107,20
1,43,110,190
1,30,92,30
1,31,117,30
1,43,110,182
1,35,113,34
1,36,113,12
1,43,99,180
1,30,104,48
1,31,110,24
1,43,107,152
1,35,110,18
1,36,107,14
1,43,110,170
1,30,92,28
1,31,113,20
1,43,107,118
1,35,110,26
1,36,110,24
1,43,110,172
1,30,109,44
1,45,101,54
1,43,107,18
1,42,109,26
1,40,107,8
1,38,83,42
1,36,104,8
1,35,97,384
1,33,68,368
1,45,101,34
1,43,107,384
1,42,92,24
1,40,97,38
1,38,69,56
1,36,101,384
1,35,92,56
1,33,99,24
1,45,90,38
1,43,107,384
1,42,84,374
1,40,99,22
1,38,107,26
1,36,92,56
1,35,90,100
1,33,110,14
1,31,117,122
1,30,109,0
1,43,107,200
1,35,113,6
1,36,107,20
1,43,110,190
1,30,92,30
1,31,117,30
1,43,110,182
1,35,113,34
1,36,113,12
1,43,99,180
1,30,104,48
1,31,110,24
1,43,107,152
1,35,110,18
1,36,107,14
1,43,110,170
1,30,92,28
1,31,113,20
1,43,107,118
1,35,110,26
1,36,110,24
1,43,110,172
1,30,109,44
1,31,117,54
1,30,109,0
1,43,107,200
1,35,113,6
1,36,107,20
1,43,110,190
1,30,92,30
1,31,117,30
1,43,110,182
1,35,113,34
1,36,113,12
1,43,99,180
1,30,104,48
1,31,110,24
1,43,107,152
1,35,110,18
1,36,107,14
1,43,110,170
1,30,92,28
1,31,113,20
1,43,107,118
1,35,110,26
1,36,110,24
1,43,110,172
1,30,109,44
1,31,117,54
1,30,109,0
1,43,107,200
1,35,113,6
1,36,107,20
1,43,110,190
1,30,92,30
1,31,117,30
1,43,110,182
1,35,113,34
1,36,113,12
1,43,99,180
1,30,104,48
1,31,110,24
1,43,107,152
1,35,110,18
1,36,107,14
1,43,110,170
1,30,92,28
1,31,113,20
1,43,107,118
1,35,110,26
1,36,110,24
1,43,110,172
1,30,109,44
1,31,117,54
1,30,109,0
1,43,107,200
1,35,113,6
1,36,107,20
1,43,110,190
1,30,92,30
1,31,117,30
1,43,110,182
1,35,113,34
1,36,113,12
1,43,99,180
1,30,104,48
1,31,110,24
1,43,107,152
1,35,110,18
1,36,107,14
1,43,110,170
1,30,92,28
1,31,113,20
1,43,107,118
1,35,110,26
1,36,110,24
1,43,110,172
1,30,109,44
1,45,101,54
1,43,107,18
1,42,109,26
1,40,107,8
1,38,83,42
1,36,104,8
1,35,97,384
1,33,68,368
1,45,101,34
1,43,107,384
1,42,92,24
1,40,97,38
1,38,69,56
1,36,101,384
1,35,92,56
1,33,99,24
1,45,90,38
1,43,107,384
1,42,84,374
1,40,99,22
1,38,107,26
1,36,92,56
1,35,90,100
1,33,110,14
1,31,117,122
1,30,109,0
1,43,107,200
1,35,113,6
1,36,107,20
1,43,110,190
1,30,92,30
1,31,117,30
1,43,110,182
1,35,113,34
1,36,113,12
1,43,99,180
1,30,104,48
1,31,110,24
1,43,107,152
1,35,110,18
1,36,107,14
1,43,110,170
1,30,92,28
1,31,113,20
1,43,107,118
1,35,110,26
1,36,110,24
1,43,110,172
1,30,109,44
1,31,117,54
1,30,109,0
1,43,107,200
1,35,113,6
1,36,107,20
1,43,110,190
1,30,92,30
1,31,117,30
1,43,110,182
1,35,113,34
1,36,113,12
1,43,99,180
1,30,104,48
1,31,110,24
1,43,107,152
1,35,110,18
1,36,107,14
1,43,110,170
1,30,92,28
1,31,113,20
1,43,107,118
1,35,110,26
1,36,110,24
1,43,110,172
1,30,109,44
1,31,113,54
2,42,113,1344
2,43,121,192
2,55,111,200
2,47,117,6
2,48,111,20
2,55,114,190
2,42,96,30
2,43,121,30
2,55,114,182
2,47,117,34
2,48,117,12
2,55,103,180
2,42,108,48
2,43,114,24
2,55,111,152
2,47,114,18
2,48,111,14
2,55,114,170
2,42,96,28
2,43,117,20
2,55,111,118
2,47,114,26
2,48,114,24
2,55,114,172
2,42,113,44
2,43,84,54
2,59,98,0
2,55,86,0
2,62,87,0
2,55,80,12
2,60,92,0
2,64,83,0
2,55,82,44
2,59,84,0
2,62,79,0
2,60,96,48
2,55,89,0
2,64,87,0
2,62,89,124
2,55,90,0
2,59,96,0
2,60,90,58
2,55,86,0
2,64,83,0
2,55,84,120
2,62,80,0
2,59,87,0
2,55,87,82
2,60,89,0
2,64,84,0
2,55,84,198
2,62,87,0
2,59,90,0
2,60,87,88
2,64,80,0
2,55,80,0
2,62,84,128
2,55,83,0
2,59,90,0
2,55,84,88
2,60,87,0
2,64,84,0
2,55,84,136
2,59,86,0
2,62,78,0
2,55,78,60
2,60,87,0
2,64,80,0
2,62,84,88
2,55,84,0
2,59,90,0
2,60,94,42
2,64,84,0
2,55,83,0
2,60,108,380
2,52,101,0
2,55,96,0
2,64,92,0
2,45,101,0
2,57,72,520
2,50,70,0
2,54,57,0
2,60,111,26
2,64,94,0
2,55,98,84
2,60,98,0
2,64,87,0
2,52,94,0
2,45,96,0
2,57,72,192
2,51,53,0
2,54,81,0
2,50,66,0
2,60,111,72
2,64,98,0
2,52,101,284
2,45,98,0
2,55,98,0
2,60,101,0
2,64,92,0
2,60,105,78
2,64,96,0
2,54,88,0
2,50,90,0
2,57,86,0
2,43,121,378
2,42,113,0
2,55,111,200
2,47,117,6
2,48,111,20
2,55,114,190
2,42,96,30
2,43,121,30
2,55,114,182
2,47,117,34
2,48,117,12
2,55,103,180
2,42,108,48
2,43,114,24
2,55,111,152
2,47,114,18
2,48,111,14
2,55,114,170
2,42,96,28
2,43,117,20
2,55,111,118
2,47,114,26
2,48,114,24
2,55,114,172
2,42,113,44
2,43,84,54
2,59,98,0
2,55,86,0
2,62,87,0
2,55,80,12
2,60,92,0
2,64,83,0
2,55,82,44
2,59,84,0
2,62,79,0
2,60,96,48
2,55,89,0
2,64,87,0
2,62,89,124
2,55,90,0
2,59,96,0
2,60,90,58
2,55,86,0
2,64,83,0
2,55,84,120
2,62,80,0
2,59,87,0
2,55,87,82
2,60,89,0
2,64,84,0
2,55,84,198
2,62,87,0
2,59,90,0
2,60,87,88
2,64,80,0
2,55,80,0
2,62,84,128
2,55,83,0
2,59,90,0
2,55,84,88
2,60,87,0
2,64,84,0
2,55,84,136
2,59,86,0
2,62,78,0
2,55,78,60
2,60,87,0
2,64,80,0
2,62,84,88
2,55,84,0
2,59,90,0
2,60,94,42
2,64,84,0
2,55,83,0
2,60,108,380
2,52,101,0
2,55,96,0
2,64,92,0
2,45,101,0
2,57,72,520
2,50,70,0
2,54,57,0
2,60,111,26
2,64,94,0
2,55,98,84
2,60,98,0
2,64,87,0
2,52,94,0
2,45,96,0
2,57,72,192
2,51,53,0
2,54,81,0
2,50,66,0
2,60,111,72
2,64,98,0
2,52,101,284
2,45,98,0
2,55,98,0
2,60,101,0
2,64,92,0
2,60,105,78
2,64,96,0
2,54,88,0
2,50,90,0
2,57,86,0
2,43,121,378
2,42,113,0
2,55,111,200
2,47,117,6
2,48,111,20
2,55,114,190
2,42,96,30
2,43,121,30
2,55,114,182
2,47,117,34
2,48,117,12
2,55,103,180
2,42,108,48
2,43,114,24
2,55,111,152
2,47,114,18
2,48,111,14
2,55,114,170
2,42,96,28
2,43,117,20
2,55,111,118
2,47,114,26
2,48,114,24
2,55,114,172
2,42,113,44
2,43,121,54
2,42,113,0
2,55,111,200
2,47,117,6
2,48,111,20
2,55,114,190
2,42,96,30
2,43,121,30
2,55,114,182
2,47,117,34
2,48,117,12
2,55,103,180
2,42,108,48
2,43,114,24
2,55,111,152
2,47,114,18
2,48,111,14
2,55,114,170
2,42,96,28
2,43,117,20
2,55,111,118
2,47,114,26
2,48,114,24
2,55,114,172
2,42,113,44
2,43,84,54
2,59,98,0
2,55,86,0
2,62,87,0
2,55,80,12
2,60,92,0
2,64,83,0
2,55,82,44
2,59,84,0
2,62,79,0
2,60,96,48
2,55,89,0
2,64,87,0
2,62,89,124
2,55,90,0
2,59,96,0
2,60,90,58
2,55,86,0
2,64,83,0
2,55,84,120
2,62,80,0
2,59,87,0
2,55,87,82
2,60,89,0
2,64,84,0
2,55,84,198
2,62,87,0
2,59,90,0
2,60,87,88
2,64,80,0
2,55,80,0
2,62,84,128
2,55,83,0
2,59,90,0
2,55,84,88
2,60,87,0
2,64,84,0
2,55,84,136
2,59,86,0
2,62,78,0
2,55,78,60
2,60,87,0
2,64,80,0
2,62,84,88
2,55,84,0
2,59,90,0
2,60,94,42
2,64,84,0
2,55,83,0
2,60,108,380
2,52,101,0
2,55,96,0
2,64,92,0
2,45,101,0
2,57,72,520
2,50,70,0
2,54,57,0
2,60,111,26
2,64,94,0
2,55,98,84
2,60,98,0
2,64,87,0
2,52,94,0
2,45,96,0
2,57,72,192
2,51,53,0
2,54,81,0
2,50,66,0
2,60,111,72
2,64,98,0
2,52,101,284
2,45,98,0
2,55,98,0
2,60,101,0
2,64,92,0
2,60,105,78
2,64,96,0
2,54,88,0
2,50,90,0
2,57,86,0
2,43,121,378
2,42,113,0
2,55,111,200
2,47,117,6
2,48,111,20
2,55,114,190
2,42,96,30
2,43,121,30
2,55,114,182
2,47,117,34
2,48,117,12
2,55,103,180
2,42,108,48
2,43,114,24
2,55,111,152
2,47,114,18
2,48,111,14
2,55,114,170
2,42,96,28
2,43,117,20
2,55,111,118
2,47,114,26
2,48,114,24
2,55,114,172
2,42,113,44
2,43,121,54
2,42,113,0
2,55,111,200
2,47,117,6
2,48,111,20
2,55,114,190
2,42,96,30
2,43,121,30
2,55,114,182
2,47,117,34
2,48,117,12
2,55,103,180
2,42,108,48
2,43,114,24
2,55,111,152
2,47,114,18
2,48,111,14
2,55,114,170
2,42,96,28
2,43,117,20
2,55,111,118
2,47,114,26
2,48,114,24
2,55,114,172
2,42,113,44
2,43,108,54
2,55,90,0
2,62,92,0
2,59,101,0
3,42,109,1344
3,30,109,0
3,43,117,192
3,31,117,0
3,55,107,200
3,43,107,0
3,47,113,6
3,35,113,0
3,48,107,20
3,36,107,0
3,55,110,190
3,43,110,0
3,42,92,30
3,30,92,0
3,43,117,30
3,31,117,0
3,55,110,182
3,43,110,0
3,47,113,34
3,35,113,0
3,48,113,12
3,36,113,0
3,55,99,180
3,43,99,0
3,42,104,48
3,30,104,0
3,43,110,24
3,31,110,0
3,55,107,152
3,43,107,0
3,47,110,18
3,35,110,0
3,48,107,14
3,36,107,0
3,55,110,170
3,43,110,0
3,42,92,28
3,30,92,0
3,43,113,20
3,31,113,0
3,55,107,118
3,43,107,0
3,47,110,26
3,35,110,0
3,48,110,24
3,36,110,0
3,55,110,172
3,43,110,0
3,42,109,44
3,30,109,0
3,43,117,54
3,31,117,0
3,42,109,0
3,30,109,0
3,55,107,200
3,43,107,0
3,47,113,6
3,35,113,0
3,48,107,20
3,36,107,0
3,55,110,190
3,43,110,0
3,42,92,30
3,30,92,0
3,43,117,30
3,31,117,0
3,55,110,182
3,43,110,0
3,47,113,34
3,35,113,0
3,48,113,12
3,36,113,0
3,55,99,180
3,43,99,0
3,42,104,48
3,30,104,0
3,43,110,24
3,31,110,0
3,55,107,152
3,43,107,0
3,47,110,18
3,35,110,0
3,48,107,14
3,36,107,0
3,55,110,170
3,43,110,0
3,42,92,28
3,30,92,0
3,43,113,20
3,31,113,0
3,55,107,118
3,43,107,0
3,47,110,26
3,35,110,0
3,48,110,24
3,36,110,0
3,55,110,172
3,43,110,0
3,42,109,44
3,30,109,0
3,43,117,54
3,31,117,0
3,42,109,0
3,30,109,0
3,55,107,200
3,43,107,0
3,47,113,6
3,35,113,0
3,48,107,20
3,36,107,0
3,55,110,190
3,43,110,0
3,42,92,30
3,30,92,0
3,43,117,30
3,31,117,0
3,55,110,182
3,43,110,0
3,47,113,34
3,35,113,0
3,48,113,12
3,36,113,0
3,55,99,180
3,43,99,0
3,42,104,48
3,30,104,0
3,43,110,24
3,31,110,0
3,55,107,152
3,43,107,0
3,47,110,18
3,35,110,0
3,48,107,14
3,36,107,0
3,55,110,170
3,43,110,0
3,42,92,28
3,30,92,0
3,43,113,20
3,31,113,0
3,55,107,118
3,43,107,0
3,47,110,26
3,35,110,0
3,48,110,24
3,36,110,0
3,55,110,172
3,43,110,0
3,42,109,44
3,30,109,0
3,45,107,246
3,48,110,192
3,50,88,192
3,52,107,16
3,55,101,18
3,45,94,146
3,50,101,192
3,52,94,2
3,54,104,192
3,57,86,16
3,45,97,182
3,48,107,192
3,50,86,32
3,52,101,192
3,55,92,32
3,45,88,196
3,48,113,192
3,50,79,32
3,54,109,192
3,57,88,384
3,45,83,182
3,48,104,192
3,50,85,192
3,52,113,24
3,55,99,16
3,45,90,202
3,48,97,192
3,50,92,8
3,54,100,192
3,57,86,384
3,43,117,168
3,31,117,0
3,42,109,0
3,30,109,0
3,55,107,200
3,43,107,0
3,47,113,6
3,35,113,0
3,48,107,20
3,36,107,0
3,55,110,190
3,43,110,0
3,42,92,30
3,30,92,0
3,43,117,30
3,31,117,0
3,55,110,182
3,43,110,0
3,47,113,34
3,35,113,0
3,48,113,12
3,36,113,0
3,55,99,180
3,43,99,0
3,42,104,48
3,30,104,0
3,43,110,24
3,31,110,0
3,55,107,152
3,43,107,0
3,47,110,18
3,35,110,0
3,48,107,14
3,36,107,0
3,55,110,170
3,43,110,0
3,42,92,28
3,30,92,0
3,43,113,20
3,31,113,0
3,55,107,118
3,43,107,0
3,47,110,26
3,35,110,0
3,48,110,24
3,36,110,0
3,55,110,172
3,43,110,0
3,42,109,44
3,30,109,0
3,43,117,54
3,31,117,0
3,42,109,0
