track,note,velocity,time
1,40,115,6030
1,40,0,15
1,42,115,15
1,42,0,15
1,40,115,15
1,40,0,15
1,37,115,15
1,37,0,30
1,40,115,0
1,40,0,60
1,33,115,0
1,33,0,35
1,33,115,25
1,33,0,120
1,40,115,30
1,40,0,15
1,45,115,15
1,45,0,20
1,33,115,10
1,33,0,25
1,40,115,5
1,40,0,90
1,33,115,0
1,33,0,15
1,34,115,15
1,34,0,60
1,35,115,0
1,35,0,35
1,35,115,25
1,35,0,180
1,30,115,0
1,30,0,50
1,35,115,10
1,35,0,90
1,36,115,0
1,36,0,60
1,37,115,0
1,37,0,25
1,38,115,5
1,38,0,35
1,38,115,25
1,38,0,120
1,38,115,0
1,38,0,25
1,39,115,5
1,39,0,25
1,40,115,5
1,40,0,35
1,40,115,25
1,40,0,90
1,35,115,0
1,35,0,25
1,40,115,5
1,40,0,60
1,38,115,0
1,38,0,90
1,37,115,0
1,37,0,90
1,35,115,0
1,35,0,90
1,40,115,0
1,40,0,25
1,42,115,5
1,42,0,25
1,40,115,5
1,40,0,25
1,37,115,5
1,37,0,30
1,40,115,0
1,40,0,60
1,33,115,0
1,33,0,35
1,33,115,25
1,33,0,120
1,40,115,60
1,40,0,15
1,42,115,15
1,42,0,15
1,45,115,15
1,45,0,90
1,40,115,0
1,40,0,15
1,37,115,15
1,37,0,15
1,33,115,15
1,33,0,25
1,35,115,5
1,35,0,35
1,35,115,25
1,35,0,180
1,30,115,0
1,30,0,15
1,35,115,15
1,35,0,25
1,35,115,35
1,35,0,20
1,35,115,10
1,35,0,60
1,36,115,0
1,36,0,25
1,37,115,5
1,37,0,25
1,38,115,5
1,38,0,35
1,38,115,25
1,38,0,120
1,38,115,0
1,38,0,25
1,39,115,5
1,39,0,25
1,40,115,5
1,40,0,35
1,40,115,25
1,40,0,90
1,35,115,0
1,35,0,25
1,40,115,5
1,40,0,60
1,38,115,0
1,38,0,90
1,37,115,0
1,37,0,90
1,35,115,0
1,35,0,90
1,40,115,0
1,40,0,15
1,42,115,15
1,42,0,15
1,40,115,15
1,40,0,15
1,37,115,15
1,37,0,30
1,40,115,0
1,40,0,60
1,33,115,0
1,33,0,15
1,33,115,45
1,33,0,240
1,33,115,60
1,33,0,15
1,40,115,45
1,40,0,60
1,35,115,0
1,35,0,15
1,35,115,45
1,35,0,240
1,35,115,90
1,35,0,15
1,35,115,15
1,35,0,60
1,40,115,0
1,40,0,50
1,40,115,10
1,40,0,180
1,40,115,0
1,40,0,15
1,32,115,15
1,32,0,60
1,28,115,0
1,28,0,30
1,33,115,30
1,33,0,15
1,35,115,15
1,35,0,15
1,37,115,15
1,37,0,15
1,38,115,15
1,38,0,60
1,37,115,0
1,37,0,60
1,35,115,0
1,35,0,60
1,33,115,0
1,33,0,60
1,40,115,30
1,40,0,15
1,42,115,15
1,42,0,15
1,40,115,15
1,40,0,15
1,37,115,15
1,37,0,30
1,40,115,0
1,40,0,60
1,45,115,0
1,45,0,15
1,45,115,45
1,45,0,240
1,40,115,0
1,40,0,90
1,33,115,0
1,33,0,60
1,34,115,0
1,34,0,25
1,35,115,5
1,35,0,15
1,35,115,45
1,35,0,240
1,42,115,0
1,42,0,60
1,47,115,0
1,47,0,25
1,42,115,5
1,42,0,25
1,35,115,5
1,35,0,60
1,40,115,0
1,40,0,50
1,40,115,10
1,40,0,180
1,40,115,0
1,40,0,15
1,35,115,15
1,35,0,15
1,32,115,15
1,32,0,60
1,28,115,0
1,28,0,60
1,35,115,0
1,35,0,20
1,37,115,10
1,37,0,15
1,38,115,15
1,38,0,60
1,37,115,0
1,37,0,60
1,35,115,0
1,35,0,60
1,33,115,0
1,33,0,60
1,40,115,30
1,40,0,15
1,42,115,15
1,42,0,15
1,40,115,15
1,40,0,15
1,37,115,15
1,37,0,30
1,40,115,0
1,40,0,60
1,33,115,0
1,33,0,35
1,33,115,25
1,33,0,120
1,40,115,30
1,40,0,15
1,45,115,15
1,45,0,20
1,33,115,10
1,33,0,25
1,40,115,5
1,40,0,90
1,33,115,0
1,33,0,15
1,34,115,15
1,34,0,60
1,35,115,0
1,35,0,35
1,35,115,25
1,35,0,180
1,30,115,0
1,30,0,50
1,35,115,10
1,35,0,90
1,36,115,0
1,36,0,60
1,37,115,0
1,37,0,25
1,38,115,5
1,38,0,35
1,38,115,25
1,38,0,120
1,38,115,0
1,38,0,25
1,39,115,5
1,39,0,25
1,40,115,5
1,40,0,35
1,40,115,25
1,40,0,90
1,35,115,0
1,35,0,25
1,40,115,5
1,40,0,60
1,38,115,0
1,38,0,90
1,37,115,0
1,37,0,90
1,35,115,0
1,35,0,90
1,40,115,0
1,40,0,25
1,42,115,5
1,42,0,25
1,40,115,5
1,40,0,25
1,37,115,5
1,37,0,30
1,40,115,0
1,40,0,60
1,33,115,0
1,33,0,35
1,33,115,25
1,33,0,120
1,40,115,60
1,40,0,15
1,42,115,15
1,42,0,15
1,45,115,15
1,45,0,90
1,40,115,0
1,40,0,15
1,37,115,15
1,37,0,15
1,33,115,15
1,33,0,25
1,35,115,5
1,35,0,35
1,35,115,25
1,35,0,180
1,30,115,0
1,30,0,15
1,35,115,15
1,35,0,25
1,35,115,35
1,35,0,20
1,35,115,10
1,35,0,60
1,36,115,0
1,36,0,25
1,37,115,5
1,37,0,25
1,38,115,5
1,38,0,35
1,38,115,25
1,38,0,120
1,38,115,0
1,38,0,25
1,39,115,5
1,39,0,25
1,40,115,5
1,40,0,35
1,40,115,25
1,40,0,90
1,35,115,0
1,35,0,25
1,40,115,5
1,40,0,60
1,38,115,0
1,38,0,90
1,37,115,0
1,37,0,90
1,35,115,0
1,35,0,90
1,40,115,0
1,40,0,15
1,42,115,15
1,42,0,15
1,40,115,15
1,40,0,15
1,37,115,15
1,37,0,30
1,40,115,0
1,40,0,60
1,33,115,0
1,33,0,35
1,33,115,25
1,33,0,120
1,40,115,30
1,40,0,15
1,45,115,15
1,45,0,20
1,33,115,10
1,33,0,25
1,40,115,5
1,40,0,90
1,33,115,0
1,33,0,15
1,34,115,15
1,34,0,60
1,35,115,0
1,35,0,35
1,35,115,25
1,35,0,180
1,30,115,0
1,30,0,50
1,35,115,10
1,35,0,90
1,36,115,0
1,36,0,60
1,37,115,0
1,37,0,25
1,38,115,5
1,38,0,35
1,38,115,25
1,38,0,120
1,38,115,0
1,38,0,25
1,39,115,5
1,39,0,25
1,40,115,5
1,40,0,35
1,40,115,25
1,40,0,90
1,35,115,0
1,35,0,25
1,40,115,5
1,40,0,60
1,38,115,0
1,38,0,90
1,37,115,0
1,37,0,90
1,35,115,0
1,35,0,90
1,40,115,0
1,40,0,25
1,42,115,5
1,42,0,25
1,40,115,5
1,40,0,25
1,37,115,5
1,37,0,30
1,40,115,0
1,40,0,60
1,33,115,0
1,33,0,35
1,33,115,25
1,33,0,120
1,40,115,60
1,40,0,15
1,42,115,15
1,42,0,15
1,45,115,15
1,45,0,90
1,40,115,0
1,40,0,15
1,37,115,15
1,37,0,15
1,33,115,15
1,33,0,25
1,35,115,5
1,35,0,35
1,35,115,25
1,35,0,180
1,30,115,0
1,30,0,15
1,35,115,15
1,35,0,25
1,35,115,35
1,35,0,20
1,35,115,10
1,35,0,60
1,36,115,0
1,36,0,25
1,37,115,5
1,37,0,25
1,38,115,5
1,38,0,35
1,38,115,25
1,38,0,120
1,38,115,0
1,38,0,25
1,39,115,5
1,39,0,25
1,40,115,5
1,40,0,35
1,40,115,25
1,40,0,90
1,35,115,0
1,35,0,25
1,40,115,5
1,40,0,60
1,38,115,0
1,38,0,90
1,37,115,0
1,37,0,90
1,35,115,0
1,35,0,90
1,40,115,0
1,40,0,15
1,42,115,15
1,42,0,15
1,40,115,15
1,40,0,15
1,37,115,15
1,37,0,30
1,40,115,0
1,40,0,60
1,38,115,3360
1,38,0,60
1,37,115,0
1,37,0,60
1,35,115,0
1,35,0,60
1,33,115,0
1,33,0,60
1,40,115,30
1,40,0,15
1,42,115,15
1,42,0,15
1,40,115,15
1,40,0,15
1,37,115,15
1,37,0,30
1,40,115,0
1,40,0,60
1,33,115,0
1,33,0,35
1,33,115,25
1,33,0,120
1,40,115,30
1,40,0,15
1,45,115,15
1,45,0,20
1,33,115,10
1,33,0,25
1,40,115,5
1,40,0,90
1,33,115,0
1,33,0,15
1,34,115,15
1,34,0,60
1,35,115,0
1,35,0,35
1,35,115,25
1,35,0,180
1,30,115,0
1,30,0,50
1,35,115,10
1,35,0,90
1,36,115,0
1,36,0,60
1,37,115,0
1,37,0,25
1,38,115,5
1,38,0,35
1,38,115,25
1,38,0,120
1,38,115,0
1,38,0,25
1,39,115,5
1,39,0,25
1,40,115,5
1,40,0,35
1,40,115,25
1,40,0,90
1,35,115,0
1,35,0,25
1,40,115,5
1,40,0,60
1,38,115,0
1,38,0,90
1,37,111,0
1,37,0,90
1,35,106,0
1,35,0,90
1,40,102,0
1,40,0,25
1,42,101,5
1,42,0,25
1,40,100,5
1,40,0,25
1,37,97,5
1,37,0,30
1,40,95,0
1,40,0,60
1,33,92,0
1,33,0,35
1,33,89,25
1,33,0,120
1,40,80,60
1,40,0,15
1,42,79,15
1,42,0,15
1,45,78,15
1,45,0,90
1,40,73,0
1,40,0,15
1,37,72,15
1,37,0,15
1,33,71,15
1,33,0,25
1,35,69,5
1,35,0,35
1,35,66,25
1,35,0,180
1,30,57,0
1,30,0,15
1,35,56,15
1,35,0,25
1,35,54,35
1,35,0,20
1,35,51,10
1,35,0,60
1,36,49,0
1,36,0,25
1,37,48,5
1,37,0,25
1,38,46,5
1,38,0,35
1,38,43,25
1,38,0,120
1,38,37,0
1,38,0,25
1,39,36,5
1,39,0,25
1,40,34,5
1,40,0,35
1,40,32,25
1,40,0,90
1,35,27,0
1,35,0,25
1,40,26,5
1,40,0,60
1,38,23,0
1,38,0,90
1,37,19,0
1,37,0,90
1,35,14,0
1,35,0,90
1,40,10,0
1,40,0,15
1,42,9,15
1,42,0,15
1,40,8,15
1,40,0,15
1,37,5,15
1,37,0,30
1,40,3,0
1,40,0,60
2,45,100,480
2,52,100,2
2,61,100,118
2,52,0,2
2,69,100,1
2,61,0,117
2,45,0,0
2,69,0,3
2,69,100,57
2,61,100,90
2,69,0,30
2,45,100,30
2,45,0,25
2,61,0,5
2,45,100,0
2,57,100,60
2,62,100,60
2,62,0,120
2,45,0,0
2,69,100,0
2,57,0,60
2,45,100,0
2,69,0,30
2,62,100,0
2,45,0,90
2,69,100,0
2,62,0,60
2,52,100,0
2,52,0,20
2,69,0,10
2,52,100,30
2,62,100,60
2,52,0,60
2,62,0,60
2,68,100,0
2,52,100,60
2,68,0,30
2,69,100,0
2,69,0,60
2,52,100,0
2,68,100,30
2,52,0,30
2,68,0,30
2,52,0,0
2,50,100,0
2,66,100,60
2,50,0,60
2,69,100,30
2,66,0,30
2,45,100,60
2,69,0,30
2,52,100,30
2,61,100,0
2,61,0,90
2,52,0,0
2,54,100,0
2,62,100,0
2,62,0,60
2,54,0,0
2,45,0,30
2,52,100,0
2,45,100,0
2,45,0,20
2,45,100,40
2,52,0,60
2,61,100,0
2,61,0,120
2,69,100,60
2,61,100,90
2,69,0,30
2,45,0,0
2,45,100,30
2,45,0,25
2,61,0,5
2,45,100,0
2,62,100,120
2,62,0,120
2,45,0,0
2,69,100,0
2,45,100,60
2,69,0,30
2,62,100,0
2,45,0,90
2,69,100,0
2,62,0,60
2,52,100,0
2,52,0,20
2,69,0,10
2,52,100,30
2,62,100,60
2,52,0,60
2,62,0,60
2,68,100,0
2,52,100,60
2,68,0,30
2,69,100,0
2,69,0,60
2,52,100,0
2,68,100,30
2,52,0,30
2,68,0,30
2,52,0,0
2,50,100,0
2,66,100,60
2,50,0,60
2,69,100,30
2,66,0,30
2,45,100,60
2,69,0,30
2,52,100,30
2,61,100,0
2,61,0,90
2,52,0,0
2,54,100,0
2,62,100,0
2,62,0,60
2,54,0,0
2,45,0,30
2,45,100,0
2,45,0,20
2,45,100,40
2,61,100,60
2,61,0,120
2,69,100,60
2,61,100,90
2,69,0,30
2,45,0,0
2,45,100,30
2,45,0,25
2,61,0,5
2,45,100,0
2,62,100,120
2,62,0,120
2,45,0,0
2,69,100,0
2,45,100,60
2,69,0,30
2,62,100,0
2,45,0,90
2,69,100,0
2,62,0,60
2,52,100,0
2,52,0,20
2,69,0,10
2,52,100,30
2,62,100,60
2,52,0,60
2,62,0,60
2,68,100,0
2,52,100,60
2,68,0,30
2,69,100,0
2,69,0,60
2,52,100,0
2,68,100,30
2,52,0,30
2,68,0,30
2,52,0,0
2,50,100,0
2,66,100,60
2,69,100,90
2,66,0,30
2,50,0,60
2,69,0,30
2,61,100,0
2,64,100,2
2,69,100,2
2,69,0,24
2,64,0,0
2,61,0,0
2,69,100,2
2,64,100,2
2,61,100,2
2,61,0,24
2,64,0,0
2,69,0,0
2,61,100,2
2,64,100,2
2,69,100,2
2,61,0,21
2,69,0,3
2,64,0,0
2,69,100,2
2,64,100,2
2,64,0,13
2,69,0,0
2,62,100,15
2,66,100,2
2,69,100,2
2,69,0,26
2,66,0,0
2,62,0,0
2,69,100,60
2,64,100,2
2,61,100,2
2,61,0,26
2,64,0,0
2,69,0,0
2,61,100,90
2,64,100,2
2,69,100,2
2,69,0,56
2,64,0,0
2,61,0,0
2,69,100,0
2,64,100,2
2,61,100,2
2,61,0,11
2,64,0,0
2,69,0,0
2,61,100,15
2,64,100,2
2,69,100,2
2,69,0,11
2,64,0,0
2,61,0,0
2,69,100,15
2,64,100,2
2,61,100,2
2,61,0,21
2,64,0,0
2,69,0,0
2,61,100,5
2,64,100,2
2,69,100,2
2,69,0,21
2,64,0,0
2,61,0,0
2,69,100,65
2,64,100,2
2,61,100,2
2,61,0,116
2,64,0,0
2,69,0,0
2,62,100,0
2,66,100,2
2,71,100,2
2,71,0,26
2,66,0,0
2,62,0,0
2,71,100,90
2,66,100,2
2,62,100,2
2,62,0,56
2,66,0,0
2,71,0,0
2,62,100,0
2,66,100,2
2,71,100,2
2,71,0,11
2,66,0,0
2,62,0,0
2,71,100,15
2,66,100,2
2,62,100,2
2,62,0,11
2,66,0,0
2,71,0,0
2,62,100,15
2,66,100,2
2,71,100,2
2,71,0,21
2,66,0,0
2,62,0,0
2,71,100,5
2,66,100,2
2,62,100,2
2,62,0,21
2,66,0,0
2,71,0,0
2,62,100,65
2,66,100,2
2,71,100,2
2,71,0,116
2,66,0,0
2,62,0,0
2,69,100,0
2,66,100,2
2,62,100,2
2,62,0,26
2,66,0,0
2,69,0,0
2,62,100,90
2,66,100,2
2,69,100,2
2,69,0,56
2,66,0,0
2,62,0,0
2,69,100,0
2,66,100,2
2,62,100,2
2,62,0,11
2,66,0,0
2,69,0,0
2,62,100,15
2,66,100,2
2,69,100,2
2,69,0,11
2,66,0,0
2,62,0,0
2,71,100,15
2,68,100,2
2,64,100,2
2,64,0,21
2,68,0,0
2,71,0,0
2,64,100,5
2,68,100,2
2,71,100,2
2,71,0,21
2,68,0,0
2,64,0,0
2,71,100,65
2,68,100,2
2,64,100,2
2,64,0,116
2,68,0,0
2,71,0,0
2,62,100,0
2,66,100,2
2,69,100,2
2,69,0,86
2,66,0,0
2,62,0,0
2,69,100,0
2,69,100,2
2,66,100,2
2,66,0,56
2,69,0,0
2,69,0,0
2,62,100,0
2,66,100,2
2,69,100,2
2,69,0,26
2,66,0,0
2,62,0,0
2,69,100,0
2,66,100,2
2,62,100,2
2,62,0,26
2,66,0,0
2,69,0,0
2,61,100,30
2,69,100,2
2,69,0,28
2,61,0,0
2,69,100,0
2,61,100,2
2,61,0,28
2,69,0,0
2,61,100,0
2,69,100,2
2,69,0,28
2,61,0,0
2,69,100,0
2,61,100,2
2,61,0,28
2,69,0,0
2,61,100,0
2,69,100,2
2,69,0,28
2,61,0,0
2,69,100,0
2,61,100,2
2,61,0,28
2,69,0,0
2,61,100,0
2,69,100,2
2,69,0,28
2,61,0,0
