track,note,velocity,time
0,37,104,72
0,73,66,0
0,76,63,0
0,80,66,0
0,76,100,0
0,35,119,0
0,54,66,0
0,55,120,0
0,49,98,0
0,37,90,56
0,54,28,0
0,49,99,0
0,56,82,0
0,68,93,0
0,37,110,55
0,61,90,0
0,73,94,0
0,40,111,1
0,42,106,0
0,54,65,0
0,49,102,0
0,37,88,56
0,42,75,0
0,54,21,1
0,49,98,0
0,37,95,57
0,35,118,1
0,42,111,0
0,54,62,0
0,49,94,0
0,37,94,57
0,42,70,0
0,54,25,1
0,49,96,0
0,37,94,1
0,42,107,0
0,40,110,1
0,54,65,0
0,49,98,0
0,37,96,1
0,42,52,0
0,54,25,1
0,49,99,0
0,81,78,51
0,33,115,1
0,35,111,1
0,42,110,0
0,54,65,0
0,45,94,0
0,69,69,1
0,42,51,53
0,52,85,0
0,64,84,0
0,33,105,1
0,54,28,0
0,45,101,0
0,59,91,53
0,71,95,0
0,33,98,1
0,40,110,0
0,42,110,0
0,54,66,0
0,45,100,0
0,75,96,2
0,73,84,36
0,42,75,7
0,33,106,1
0,54,23,0
0,45,101,0
0,71,93,3
0,33,106,1
0,73,84,0
0,35,113,0
0,42,110,0
0,54,63,0
0,45,108,0
0,42,54,45
0,33,97,1
0,54,24,0
0,45,113,0
0,73,75,25
0,71,74,18
0,33,115,2
0,40,111,0
0,42,109,0
0,54,63,0
0,45,112,0
0,69,89,3
0,33,104,1
0,42,66,0
0,54,23,1
0,45,108,0
0,76,79,1
0,42,99,0
0,28,104,1
0,71,61,0
0,35,119,0
0,54,68,0
0,40,107,0
0,80,81,1
0,71,83,2
0,42,59,53
0,28,98,1
0,54,22,0
0,40,100,0
0,47,87,1
0,59,92,0
0,42,107,52
0,28,105,1
0,40,102,0
0,54,63,0
0,40,105,0
0,52,91,0
0,64,93,0
0,28,108,47
0,42,48,0
0,54,28,1
0,40,104,0
0,28,107,53
0,35,118,1
0,42,101,0
0,54,60,0
0,40,104,0
0,28,98,52
0,42,61,0
0,54,28,1
0,40,108,0
0,28,108,1
0,78,70,0
0,40,111,1
0,42,107,0
0,54,68,0
0,40,110,0
0,28,99,1
0,76,94,0
0,42,57,0
0,54,29,1
0,40,106,0
0,35,103,2
0,71,73,0
0,35,113,0
0,42,101,0
0,54,63,0
0,47,99,0
0,66,71,1
0,75,73,0
0,54,84,52
0,66,83,0
0,35,100,1
0,42,57,0
0,54,27,1
0,47,96,0
0,35,100,51
0,59,95,0
0,71,100,0
0,40,105,1
0,42,108,0
0,54,67,0
0,47,103,0
0,69,77,1
0,35,94,55
0,42,49,0
0,54,25,1
0,47,94,0
0,35,96,55
0,35,111,1
0,42,111,0
0,54,61,0
0,47,94,0
0,68,80,3
0,35,92,52
0,42,58,0
0,54,23,1
0,47,100,0
0,69,83,2
0,35,91,1
0,40,107,1
0,42,93,0
0,54,69,0
0,47,99,0
0,35,96,1
0,46,92,1
0,54,29,0
0,47,103,0
0,42,103,0
0,37,100,1
0,73,69,0
0,76,67,0
0,80,70,0
0,76,101,0
0,35,111,0
0,54,65,0
0,49,107,0
0,68,82,1
0,42,48,55
0,37,91,1
0,54,25,0
0,49,103,0
0,56,82,0
0,68,86,0
0,37,104,55
0,42,100,0
0,61,95,0
0,73,91,0
0,40,107,1
0,54,64,0
0,49,103,0
0,37,83,56
0,42,51,0
0,54,27,1
0,49,97,0
0,37,103,57
0,42,102,0
0,35,113,1
0,54,66,0
0,49,97,0
0,37,100,57
0,42,55,0
0,54,28,1
0,49,93,0
0,37,95,1
0,42,106,0
0,40,106,1
0,54,60,0
0,49,106,0
0,37,95,1
0,42,61,0
0,54,23,1
0,49,99,0
0,81,69,51
0,33,112,1
0,35,118,1
0,42,108,0
0,54,64,0
0,45,98,0
0,69,68,1
0,42,55,53
0,52,76,0
0,64,86,0
0,33,104,1
0,54,24,0
0,45,107,0
0,75,94,51
0,59,85,2
0,71,93,0
0,33,102,1
0,40,107,0
0,42,104,0
0,54,66,0
0,45,103,0
0,73,70,36
0,42,51,7
0,33,107,1
0,54,22,0
0,45,99,0
0,71,89,3
0,33,101,6
0,73,86,0
0,35,113,0
0,42,101,0
0,54,64,0
0,45,110,0
0,33,96,46
0,42,50,0
0,54,27,0
0,45,106,0
0,73,71,19
0,71,75,18
0,33,120,2
0,40,108,0
0,42,101,0
0,54,68,0
0,45,117,0
0,69,79,4
0,33,104,1
0,42,54,1
0,54,29,0
0,45,102,0
0,76,74,1
0,28,104,1
0,71,61,0
0,35,114,0
0,42,98,0
0,54,65,0
0,40,105,0
0,80,79,1
0,71,80,5
0,28,95,54
0,42,52,0
0,54,25,0
0,40,97,0
0,47,82,1
0,59,92,0
0,28,109,53
0,40,102,0
0,42,105,0
0,54,68,0
0,40,100,0
0,52,90,0
0,64,89,0
0,28,105,47
0,42,53,1
0,54,25,0
0,40,110,0
0,28,109,53
0,42,99,0
0,35,121,1
0,54,66,0
0,40,106,0
0,28,101,52
0,42,51,0
0,54,21,1
0,40,107,0
0,28,108,1
0,78,71,0
0,42,101,0
0,40,103,1
0,54,67,0
0,40,102,0
0,28,100,1
0,76,89,0
0,42,53,0
0,54,26,1
0,40,103,0
0,42,102,1
0,35,105,1
0,35,116,0
0,54,67,0
0,47,92,0
0,66,75,1
0,75,78,0
0,71,78,1
0,54,87,52
0,66,89,0
0,35,96,1
0,42,50,0
0,54,27,1
0,47,94,0
0,35,94,51
0,59,92,0
0,71,95,0
0,40,102,1
0,42,97,0
0,54,61,0
0,47,100,0
0,69,86,1
0,35,97,55
0,46,57,1
0,54,22,0
0,47,89,0
0,68,79,5
0,35,95,4
0,46,80,1
0,54,62,0
0,47,95,0
0,69,96,0
0,35,88,1
0,35,111,1
0,54,21,0
0,47,94,0
0,40,62,42
0,35,96,1
0,54,60,1
0,47,99,0
0,40,110,1
0,35,98,1
0,54,26,1
0,47,103,0
0,37,104,2
0,68,74,0
0,73,69,0
0,76,75,0
0,35,111,0
0,54,61,0
0,57,89,0
0,49,104,0
0,68,78,4
0,37,95,56
0,54,28,0
0,49,102,0
0,56,88,0
0,68,87,0
0,37,107,55
0,61,93,0
0,73,93,0
0,40,107,1
0,42,105,0
0,54,60,0
0,49,102,0
0,37,92,56
0,42,74,0
0,54,23,1
0,49,91,0
0,37,100,57
0,35,113,1
0,42,103,0
0,54,68,0
0,49,98,0
0,64,109,7
0,37,100,45
0,42,63,0
0,54,25,1
0,49,93,0
0,64,86,5
0,37,94,1
0,42,110,0
0,40,107,1
0,54,66,0
0,49,103,0
0,64,109,1
0,37,98,1
0,42,60,0
0,54,23,1
0,49,93,0
0,64,111,1
0,69,77,50
0,33,109,1
0,35,120,1
0,42,106,0
0,54,64,0
0,45,90,0
0,63,94,51
0,42,50,2
0,52,77,0
0,64,81,0
0,33,97,1
0,54,25,0
0,45,106,0
0,61,83,19
0,59,89,5
0,71,90,0
0,33,105,1
0,40,110,0
0,42,106,0
0,54,63,0
0,45,105,0
0,59,84,9
0,42,73,3
0,33,101,1
0,54,28,0
0,45,101,0
0,33,105,1
0,35,121,0
0,42,113,0
0,54,61,0
0,45,111,0
0,71,79,7
0,57,99,42
0,42,54,3
0,33,89,1
0,54,22,0
0,45,112,0
0,69,79,17
0,59,80,3
0,33,114,2
0,40,110,0
0,42,103,0
0,54,62,0
0,45,111,0
0,33,108,1
0,42,71,0
0,54,28,1
0,45,109,0
0,42,100,1
0,28,103,1
0,68,74,0
0,35,120,0
0,54,62,0
0,40,102,0
0,59,98,1
0,42,62,53
0,28,97,1
0,54,28,0
0,40,97,0
0,47,83,1
0,59,89,0
0,42,105,52
0,28,102,1
0,40,104,0
0,54,67,0
0,40,104,0
0,52,92,0
0,64,91,0
0,28,106,1
0,42,53,0
0,54,20,1
0,40,111,0
0,52,104,1
0,66,69,4
0,28,110,1
0,35,111,1
0,42,101,0
0,54,65,0
0,40,106,0
0,28,98,52
0,42,63,0
0,54,26,1
0,40,109,0
0,28,107,1
0,64,67,1
0,40,102,0
0,42,109,0
0,54,60,0
0,40,103,0
0,28,105,1
0,42,56,0
0,54,29,1
0,40,103,0
0,59,93,5
0,63,71,4
0,35,106,2
0,35,113,0
0,42,103,0
0,54,65,0
0,47,93,0
0,59,111,12
0,54,81,52
0,66,87,0
0,35,96,1
0,42,54,0
0,54,25,1
0,47,95,0
0,35,96,39
0,59,96,0
0,71,99,0
0,40,109,1
0,42,105,0
0,54,60,0
0,47,107,0
0,57,109,4
0,35,103,55
0,42,51,0
0,54,23,1
0,47,97,0
0,35,103,34
0,35,119,1
0,42,111,0
0,54,68,0
0,47,95,0
0,56,98,4
0,35,89,5
0,42,64,0
0,54,22,1
0,47,92,0
0,57,91,6
0,35,99,1
0,40,106,1
0,42,94,0
0,54,67,0
0,47,98,0
0,35,94,1
0,46,91,1
0,54,29,0
0,47,108,0
0,56,99,2
0,42,101,1
0,37,107,1
0,35,119,0
0,54,60,0
0,49,101,0
0,42,55,55
0,37,93,1
0,54,21,0
0,49,104,0
0,56,79,0
0,68,86,0
0,37,109,55
0,42,104,0
0,61,94,0
0,73,99,0
0,40,109,1
0,54,64,0
0,49,100,0
0,42,51,9
0,54,54,0
0,37,84,43
0,42,48,0
0,54,55,1
0,49,98,0
0,37,95,1
0,61,58,0
0,42,97,0
0,35,119,1
0,54,61,0
0,49,97,0
0,64,70,1
0,37,93,57
0,42,62,0
0,54,28,1
0,49,97,0
0,37,92,1
0,42,103,0
0,52,117,1
0,40,104,0
0,54,66,0
0,49,98,0
0,37,95,1
0,42,61,0
0,54,27,1
0,49,101,0
0,54,83,2
0,33,114,1
0,56,88,1
0,35,119,0
0,42,106,0
0,54,63,0
0,45,90,0
0,57,76,1
0,57,82,23
0,42,60,1
0,52,79,0
0,64,88,0
0,33,104,1
0,54,21,0
0,45,99,0
0,56,95,15
0,59,90,0
0,71,97,0
0,33,97,1
0,40,107,0
0,42,105,0
0,54,65,0
0,45,105,0
0,42,51,6
0,33,110,1
0,54,25,0
0,45,107,0
0,54,98,1
0,33,107,52
0,35,111,0
0,42,106,0
0,54,69,0
0,45,110,0
0,56,78,39
0,33,96,7
0,42,54,0
0,54,25,0
0,45,112,0
0,33,117,2
0,40,109,0
0,42,105,0
0,54,61,0
0,45,114,0
0,33,106,1
0,42,54,1
0,54,25,0
0,45,111,0
0,52,96,15
0,28,110,2
0,35,114,0
0,42,96,0
0,54,65,0
0,40,107,0
0,59,75,1
0,64,80,0
0,28,92,54
0,42,52,0
0,54,25,0
0,40,101,0
0,47,90,1
0,59,93,0
0,28,103,53
0,40,109,0
0,42,107,0
0,54,69,0
0,40,106,0
0,52,88,0
0,64,97,0
0,28,110,47
0,42,48,1
0,54,25,0
0,40,105,0
0,28,110,53
0,42,99,0
0,35,117,1
0,54,66,0
0,40,105,0
0,28,99,52
0,42,48,0
0,54,27,1
0,40,105,0
0,28,104,1
0,42,98,0
0,40,110,1
0,54,61,0
0,40,103,0
0,28,104,1
0,42,57,0
0,54,27,1
0,40,108,0
0,71,87,24
0,63,54,1
0,66,65,1
0,42,105,1
0,35,105,1
0,35,117,0
0,54,66,0
0,47,93,0
0,71,84,5
0,54,87,52
0,66,88,0
0,35,99,1
0,42,46,0
0,54,26,1
0,47,90,0
0,35,97,51
0,59,90,0
0,71,94,0
0,40,109,1
0,42,101,0
0,54,62,0
0,47,101,0
0,69,87,4
0,35,103,55
0,42,57,1
0,54,21,0
0,47,90,0
0,35,100,55
0,35,116,1
0,42,89,0
0,54,69,0
0,47,94,0
0,68,79,4
0,35,83,52
0,42,52,1
0,54,26,0
0,47,94,0
0,69,75,8
0,35,91,1
0,40,102,1
0,54,68,0
0,57,89,0
0,47,95,0
0,35,94,1
0,35,78,1
0,54,20,0
0,47,106,0
0,37,109,2
0,68,68,0
0,73,84,0
0,35,118,0
0,54,69,0
0,55,127,0
0,49,106,0
0,64,73,1
0,68,80,5
0,37,95,56
0,54,28,0
0,49,100,0
0,56,86,0
0,68,91,0
0,37,100,55
0,61,89,0
0,73,101,0
0,40,106,1
0,42,108,0
0,54,69,0
0,49,107,0
0,37,91,56
0,42,74,0
0,54,25,1
0,49,89,0
0,64,112,54
0,37,99,3
0,35,111,1
0,42,106,0
0,54,62,0
0,49,96,0
0,64,99,22
0,37,91,1
0,42,70,0
0,54,29,1
0,49,95,0
0,64,106,53
0,37,89,1
0,42,102,0
0,40,103,1
0,54,62,0
0,49,103,0
0,64,109,13
0,37,95,1
0,42,53,0
0,54,20,1
0,49,102,0
0,69,79,50
0,33,108,1
0,35,113,1
0,42,104,0
0,54,66,0
0,45,90,0
0,63,86,43
0,42,50,3
0,52,83,0
0,64,87,0
0,33,104,1
0,54,25,0
0,45,106,0
0,61,85,32
0,59,90,4
0,71,94,0
0,33,97,1
0,40,107,0
0,42,103,0
0,54,65,0
0,45,105,0
0,42,68,15
0,33,102,1
0,54,20,0
0,45,106,0
0,61,75,3
0,61,1,0
0,59,105,1
0,33,109,1
0,35,116,0
0,42,116,0
0,54,66,0
0,45,109,0
0,71,72,7
0,42,50,45
0,33,97,1
0,54,26,0
0,45,106,0
0,52,49,45
0,52,1,0
0,69,75,2
0,33,119,2
0,40,106,0
0,42,105,0
0,54,60,0
0,45,116,0
0,57,101,3
0,64,99,1
0,64,1,0
0,33,107,1
0,59,83,0
0,46,68,0
0,54,20,1
0,45,105,0
0,52,55,1
0,42,107,0
0,52,1,0
0,28,106,1
0,68,78,0
0,35,111,0
0,54,63,0
0,40,112,0
0,64,77,3
0,64,1,0
0,59,101,3
0,42,64,53
0,28,100,1
0,54,21,0
0,40,99,0
0,47,83,1
0,59,95,0
0,42,102,52
0,28,103,1
0,40,108,0
0,54,64,0
0,40,108,0
0,52,87,0
0,64,98,0
0,54,46,0
0,47,64,8
0,47,1,0
0,59,70,5
0,59,1,0
0,28,108,1
0,42,55,0
0,54,37,1
0,40,103,0
0,52,113,6
0,66,69,4
0,28,108,1
0,35,113,1
0,42,102,0
0,54,68,0
0,40,103,0
0,28,103,52
0,42,59,0
0,54,26,1
0,40,104,0
0,28,101,1
0,64,70,1
0,40,108,0
0,42,111,0
0,54,66,0
0,40,102,0
0,28,106,1
0,42,53,0
0,54,29,1
0,40,106,0
0,59,96,2
0,63,71,4
0,35,103,2
0,35,111,0
0,42,102,0
0,54,66,0
0,47,92,0
0,59,94,1
0,54,83,52
0,66,91,0
0,35,96,1
0,42,54,0
0,54,26,1
0,47,89,0
0,35,97,40
0,59,92,0
0,71,98,0
0,57,103,1
0,40,109,0
0,42,112,0
0,54,63,0
0,47,105,0
0,35,97,55
0,42,54,0
0,54,22,1
0,47,96,0
0,56,81,30
0,35,96,3
0,35,111,1
0,42,109,0
0,54,64,0
0,47,92,0
0,35,90,37
0,57,88,0
0,42,57,0
0,54,20,1
0,47,100,0
0,35,92,1
0,40,106,1
0,42,88,0
0,54,67,0
0,47,101,0
0,56,87,32
0,35,97,1
0,42,65,1
0,54,29,0
0,47,107,0
0,42,98,1
0,37,109,1
0,35,116,0
0,54,60,0
0,49,99,0
0,42,48,13
0,37,91,1
0,56,69,0
0,54,23,0
0,49,100,0
0,56,80,0
0,68,84,0
0,37,109,13
0,42,104,0
0,61,87,0
0,73,96,0
0,40,103,1
0,54,61,0
0,49,103,0
0,37,90,56
0,42,47,0
0,54,25,1
0,49,94,0
0,37,102,1
0,61,53,0
0,42,102,0
0,35,121,1
0,54,60,0
0,49,93,0
0,64,71,1
0,37,92,57
0,42,60,0
0,54,22,1
0,49,97,0
0,52,107,56
0,37,94,1
0,42,110,0
0,40,111,1
0,54,61,0
0,49,106,0
0,37,99,1
0,54,99,1
0,46,86,0
0,54,26,0
0,49,97,0
0,56,83,7
0,33,110,1
0,35,121,1
0,42,108,0
0,54,68,0
0,45,98,0
0,57,76,1
0,57,92,26
0,42,59,7
0,52,77,0
0,64,88,0
0,33,98,1
0,54,26,0
0,45,107,0
0,56,89,18
0,59,89,10
