track,note,velocity,time
1,65,64,5880
1,67,64,5
1,70,64,0
1,65,64,5
1,69,64,0
1,74,64,0
1,65,64,5
1,69,64,0
1,72,64,0
1,62,64,5
1,65,64,0
1,70,64,0
1,62,64,125
1,65,64,0
1,70,64,0
1,70,64,5
1,72,64,0
1,65,64,0
1,74,64,5
1,70,64,0
1,65,64,0
1,70,64,125
1,65,64,0
1,62,64,0
1,70,64,245
1,67,64,0
1,69,64,5
1,65,64,0
1,70,64,5
1,67,64,0
1,65,64,0
1,72,64,5
1,69,64,0
1,65,64,0
1,70,64,5
1,67,64,0
1,62,64,0
1,70,64,125
1,67,64,0
1,62,64,0
1,72,64,5
1,69,64,0
1,65,64,0
1,74,64,5
1,70,64,0
1,67,64,0
1,70,64,125
1,67,64,0
1,62,64,0
1,75,64,365
1,72,64,0
1,67,64,0
1,74,64,40
1,70,64,0
1,67,64,0
1,72,64,40
1,69,64,0
1,65,64,0
1,72,64,40
1,69,64,0
1,63,64,0
1,70,64,40
1,67,64,0
1,63,64,0
1,75,64,160
1,70,64,0
1,67,64,0
1,75,64,40
1,72,64,0
1,67,64,0
1,77,64,40
1,72,64,0
1,69,64,0
1,75,64,160
1,72,64,0
1,67,64,0
1,75,64,480
1,72,64,0
1,69,64,0
1,74,64,40
1,70,64,0
1,67,64,0
1,72,64,40
1,69,64,0
1,65,64,0
1,70,64,40
1,67,64,0
1,63,64,0
1,69,64,40
1,65,64,0
1,63,64,0
1,69,64,160
1,65,64,0
1,63,64,0
1,70,64,40
1,67,64,0
1,63,64,0
1,72,64,40
1,69,64,0
1,63,64,0
1,72,64,160
1,69,64,0
1,63,64,0
1,75,64,80
1,70,64,0
1,65,64,0
1,74,64,40
1,69,64,0
1,65,64,0
1,72,64,40
1,65,64,0
1,63,64,0
1,70,64,40
1,65,64,0
1,62,64,0
1,70,100,600
1,65,100,0
1,62,100,0
1,70,100,40
1,65,100,0
1,62,100,0
1,70,100,40
1,65,100,0
1,62,100,0
1,70,100,40
1,65,100,0
1,62,100,0
1,70,100,1480
1,67,100,0
1,62,100,0
1,70,100,40
1,67,100,0
1,62,100,0
1,70,100,40
1,67,100,0
1,62,100,0
1,70,100,40
1,67,100,0
1,63,100,0
1,70,100,1480
1,67,100,0
1,63,100,0
1,70,100,40
1,67,100,0
1,63,100,0
1,71,100,40
1,68,100,0
1,64,100,0
1,72,100,40
1,69,100,0
1,65,100,0
1,77,64,0
1,77,64,40
1,77,64,40
1,75,64,0
1,77,64,40
1,75,64,0
1,77,64,80
1,75,64,0
1,72,64,0
1,84,64,40
1,81,64,0
1,77,64,0
1,75,64,0
1,69,64,0
1,84,64,40
1,81,64,0
1,77,64,0
1,75,64,0
1,69,64,0
1,84,64,80
1,81,64,0
1,77,64,0
1,75,64,0
1,69,64,0
1,65,64,560
1,67,64,5
1,70,64,0
1,65,64,5
1,69,64,0
1,74,64,0
1,65,64,5
1,69,64,0
1,72,64,0
1,62,64,5
1,65,64,0
1,70,64,0
1,62,64,125
1,65,64,0
1,70,64,0
1,70,64,5
1,72,64,0
1,65,64,0
1,74,64,5
1,70,64,0
1,65,64,0
1,70,64,125
1,65,64,0
1,62,64,0
1,70,64,245
1,67,64,0
1,69,64,5
1,65,64,0
1,70,64,5
1,67,64,0
1,65,64,0
1,72,64,5
1,69,64,0
1,65,64,0
1,70,64,5
1,67,64,0
1,62,64,0
1,70,64,125
1,67,64,0
1,62,64,0
1,72,64,5
1,69,64,0
1,65,64,0
1,74,64,5
1,70,64,0
1,67,64,0
1,70,64,125
1,67,64,0
1,62,64,0
1,75,64,365
1,72,64,0
1,67,64,0
1,74,64,40
1,70,64,0
1,67,64,0
1,72,64,40
1,69,64,0
1,65,64,0
1,72,64,40
1,69,64,0
1,63,64,0
1,70,64,40
1,67,64,0
1,63,64,0
1,75,64,160
1,70,64,0
1,67,64,0
1,75,64,40
1,72,64,0
1,67,64,0
1,77,64,40
1,72,64,0
1,69,64,0
1,75,64,160
1,72,64,0
1,67,64,0
1,75,64,480
1,72,64,0
1,69,64,0
1,74,64,40
1,70,64,0
1,67,64,0
1,72,64,40
1,69,64,0
1,65,64,0
1,70,64,40
1,67,64,0
1,63,64,0
1,69,64,40
1,65,64,0
1,63,64,0
1,69,64,160
1,65,64,0
1,63,64,0
1,70,64,40
1,67,64,0
1,63,64,0
1,72,64,40
1,69,64,0
1,63,64,0
1,72,64,160
1,69,64,0
1,63,64,0
1,75,64,80
1,70,64,0
1,65,64,0
1,74,64,40
1,69,64,0
1,65,64,0
1,72,64,40
1,65,64,0
1,63,64,0
1,70,64,40
1,65,64,0
1,62,64,0
1,70,100,600
1,65,100,0
1,62,100,0
1,70,100,40
1,65,100,0
1,62,100,0
1,70,100,40
1,65,100,0
1,62,100,0
1,70,100,40
1,65,100,0
1,62,100,0
1,70,100,1480
1,67,100,0
1,62,100,0
1,70,100,40
1,67,100,0
1,62,100,0
1,70,100,40
1,67,100,0
1,62,100,0
1,70,100,40
1,67,100,0
1,63,100,0
1,70,100,1480
1,67,100,0
1,63,100,0
1,70,100,40
1,67,100,0
1,63,100,0
1,71,100,40
1,68,100,0
1,64,100,0
1,72,100,40
1,69,100,0
1,65,100,0
1,77,64,0
1,77,64,40
1,77,64,40
1,75,64,0
1,77,64,40
1,75,64,0
1,77,64,80
1,75,64,0
1,72,64,0
1,84,64,40
1,81,64,0
1,77,64,0
1,75,64,0
1,69,64,0
1,84,64,40
1,81,64,0
1,77,64,0
1,75,64,0
1,69,64,0
1,84,64,80
1,81,64,0
1,77,64,0
1,75,64,0
1,69,64,0
1,70,100,240
1,67,100,0
1,67,100,80
1,63,100,0
1,70,100,120
1,67,100,0
1,72,100,40
1,69,100,0
1,70,100,40
1,67,100,0
1,67,100,160
1,63,100,0
1,69,100,680
1,72,100,0
1,69,100,80
1,65,100,0
1,72,100,120
1,69,100,0
1,74,100,40
1,70,100,0
1,72,100,40
1,69,100,0
1,69,100,160
1,65,100,0
1,70,100,680
1,67,100,0
1,67,100,80
1,63,100,0
1,70,100,120
1,67,100,0
1,72,100,40
1,69,100,0
1,70,100,40
1,67,100,0
1,67,100,160
1,63,100,0
1,69,100,80
1,66,100,0
1,62,100,0
1,70,100,40
1,67,100,0
1,63,100,0
1,71,100,40
1,68,100,0
1,64,100,0
1,72,100,40
1,69,100,0
1,65,100,0
1,65,100,160
1,67,100,40
1,69,100,40
1,65,100,0
1,70,100,40
1,72,100,40
1,69,100,0
1,65,100,0
1,74,100,40
1,75,100,40
1,72,100,0
1,69,100,0
1,65,64,120
1,67,64,5
1,70,64,0
1,65,64,5
1,69,64,0
1,74,64,0
1,65,64,5
1,69,64,0
1,72,64,0
1,62,64,5
1,65,64,0
1,70,64,0
1,62,64,125
1,65,64,0
1,70,64,0
1,70,64,5
1,72,64,0
1,65,64,0
1,74,64,5
1,70,64,0
1,65,64,0
1,70,64,125
1,65,64,0
1,62,64,0
1,70,64,245
1,67,64,0
1,69,64,5
1,65,64,0
1,70,64,5
1,67,64,0
1,65,64,0
1,72,64,5
1,69,64,0
1,65,64,0
1,70,64,5
1,67,64,0
1,62,64,0
1,70,64,125
1,67,64,0
1,62,64,0
1,72,64,5
1,69,64,0
1,65,64,0
1,74,64,5
1,70,64,0
1,67,64,0
1,70,64,125
1,67,64,0
1,62,64,0
1,75,64,365
1,72,64,0
1,67,64,0
1,74,64,40
1,70,64,0
1,67,64,0
1,72,64,40
1,69,64,0
1,65,64,0
1,72,64,40
1,69,64,0
1,63,64,0
1,70,64,40
1,67,64,0
1,63,64,0
1,75,64,160
1,70,64,0
1,67,64,0
1,75,64,40
1,72,64,0
1,67,64,0
1,77,64,40
1,72,64,0
1,69,64,0
1,75,64,160
1,72,64,0
1,67,64,0
1,75,64,480
1,72,64,0
1,69,64,0
1,74,64,40
1,70,64,0
1,67,64,0
1,72,64,40
1,69,64,0
1,65,64,0
1,70,64,40
1,67,64,0
1,63,64,0
1,69,64,40
1,65,64,0
1,63,64,0
1,69,64,160
1,65,64,0
1,63,64,0
1,70,64,40
1,67,64,0
1,63,64,0
1,72,64,40
1,69,64,0
1,63,64,0
1,72,64,160
1,69,64,0
1,63,64,0
1,75,64,80
1,70,64,0
1,65,64,0
1,74,64,40
1,69,64,0
1,65,64,0
1,72,64,40
1,65,64,0
1,63,64,0
1,70,64,40
1,65,64,0
1,62,64,0
1,70,64,600
1,65,64,0
1,62,64,0
1,70,64,40
1,65,64,0
1,62,64,0
1,70,64,40
1,65,64,0
1,62,64,0
1,70,64,40
1,65,64,0
1,62,64,0
1,70,100,1480
1,67,100,0
1,62,100,0
1,70,100,40
1,67,100,0
1,62,100,0
1,70,100,40
1,67,100,0
1,62,100,0
1,70,100,40
1,67,100,0
1,63,100,0
1,70,100,1480
1,67,100,0
1,63,100,0
1,70,100,40
1,67,100,0
1,63,100,0
1,71,100,40
1,68,100,0
1,64,100,0
1,72,100,40
1,69,100,0
1,65,100,0
1,77,64,0
1,77,64,40
1,77,64,40
1,75,64,0
1,77,64,40
1,75,64,0
1,77,64,80
1,75,64,0
1,72,64,0
1,77,64,40
1,75,64,0
1,69,64,0
1,77,64,40
1,75,64,0
1,69,64,0
1,77,64,80
1,75,64,0
1,69,64,0
1,69,64,200
1,65,64,0
1,63,64,0
1,70,64,80
1,65,64,0
1,61,64,0
1,61,64,80
1,65,64,80
1,70,64,40
1,66,64,80
1,66,64,240
1,65,64,40
1,66,64,40
1,63,64,0
1,68,64,40
1,65,64,0
1,61,64,0
1,69,64,40
1,65,64,0
1,60,64,0
1,70,64,40
1,65,64,0
1,62,64,0
1,58,64,0
1,65,64,200
1,70,64,40
1,65,64,0
1,62,64,0
1,58,64,0
1,70,64,80
1,65,64,0
1,62,64,0
1,58,64,0
2,46,127,5760
2,46,127,125
2,46,127,5
2,41,127,125
2,46,127,5
2,46,127,125
2,41,127,5
2,46,127,5
2,45,127,5
2,43,127,5
2,43,127,125
2,38,127,5
2,38,127,125
2,43,127,5
2,43,127,125
2,43,127,5
2,45,127,5
2,46,127,5
2,48,127,5
2,48,127,200
2,48,127,40
2,43,127,200
2,48,127,40
2,48,127,200
2,46,127,80
2,45,127,40
2,43,127,40
2,41,127,40
2,41,127,200
2,41,127,40
2,36,127,200
2,41,127,40
2,41,127,200
2,41,127,80
2,43,127,40
2,45,127,40
2,46,127,40
2,46,127,160
2,46,127,80
2,41,127,200
2,46,127,40
2,46,127,40
2,46,127,160
2,41,127,80
2,46,127,40
2,45,127,40
2,43,127,40
2,43,127,0
2,43,127,80
2,38,127,200
2,43,127,40
2,43,127,40
2,43,127,160
2,43,127,80
2,43,127,40
2,41,127,40
2,39,127,40
2,39,127,0
2,39,127,80
2,46,127,200
2,39,127,40
2,39,127,40
2,39,127,160
2,39,127,80
2,39,127,40
2,40,127,40
2,41,127,40
2,41,127,0
2,41,127,40
2,41,127,80
2,41,127,80
2,43,127,40
2,45,127,40
2,46,127,40
2,46,127,125
2,46,127,5
2,41,127,125
2,46,127,5
2,46,127,125
2,41,127,5
2,46,127,5
2,45,127,5
2,43,127,5
2,43,127,125
2,38,127,5
2,38,127,125
2,43,127,5
2,43,127,125
2,43,127,5
2,45,127,5
2,46,127,5
2,48,127,5
2,48,127,200
2,48,127,40
2,43,127,200
2,48,127,40
2,48,127,200
2,46,127,80
2,45,127,40
2,43,127,40
2,41,127,40
2,41,127,200
2,41,127,40
2,36,127,200
2,41,127,40
2,41,127,200
2,41,127,80
2,43,127,40
2,45,127,40
2,46,127,40
2,46,127,160
2,46,127,80
2,41,127,200
2,46,127,40
2,46,127,40
2,46,127,160
2,41,127,80
2,46,127,40
2,45,127,40
2,43,127,40
2,43,127,0
2,43,127,80
2,38,127,200
2,43,127,40
2,43,127,40
2,43,127,160
2,43,127,80
2,43,127,40
2,41,127,40
2,39,127,40
2,39,127,0
2,39,127,80
2,46,127,200
2,39,127,40
2,39,127,40
2,39,127,160
2,39,127,80
2,39,127,40
2,40,127,40
2,41,127,40
2,41,127,0
2,41,127,40
2,41,127,80
2,41,127,80
2,41,127,40
2,39,127,0
2,39,127,200
2,46,127,40
2,39,127,200
2,39,127,40
2,39,127,40
2,39,127,160
2,38,127,80
2,39,127,40
2,40,127,40
2,41,127,40
2,41,127,200
2,48,127,40
2,41,127,200
2,41,127,40
2,41,127,40
2,41,127,160
2,42,127,80
2,41,127,40
2,40,127,40
2,39,127,40
2,39,127,200
2,46,127,40
2,39,127,200
2,39,127,40
2,39,127,40
2,39,127,160
2,38,127,80
2,39,127,40
2,40,127,40
2,41,127,40
2,41,127,160
2,41,127,160
2,41,127,40
2,41,127,160
2,41,127,80
2,43,127,40
2,45,127,40
2,46,127,40
2,46,127,125
2,46,127,5
2,41,127,125
2,46,127,5
2,46,127,125
2,41,127,5
2,46,127,5
2,45,127,5
2,43,127,5
2,43,127,125
2,38,127,5
2,38,127,125
2,43,127,5
2,43,127,125
2,43,127,5
2,45,127,5
2,46,127,5
2,48,127,5
2,48,127,200
2,48,127,40
2,43,127,200
2,48,127,40
2,48,127,200
2,46,127,80
2,45,127,40
2,43,127,40
2,41,127,40
2,41,127,200
2,41,127,40
2,36,127,200
2,41,127,40
2,41,127,200
2,41,127,80
2,43,127,40
2,45,127,40
2,46,127,40
2,46,127,160
2,46,127,80
2,41,127,200
2,46,127,40
2,46,127,40
2,46,127,160
2,41,127,80
2,46,127,40
2,45,127,40
2,43,127,40
2,43,127,0
2,43,127,80
2,38,127,200
2,43,127,40
2,43,127,40
2,43,127,160
2,43,127,80
2,43,127,40
2,41,127,40
2,39,127,40
2,39,127,0
2,39,127,80
2,46,127,200
2,39,127,40
2,39,127,40
2,39,127,160
2,39,127,80
2,39,127,40
2,40,127,40
2,41,127,40
2,41,127,0
2,41,127,40
2,41,127,80
2,39,127,80
2,38,127,40
2,36,127,40
2,34,127,40
2,37,127,80
2,41,127,80
2,46,127,40
2,42,127,80
2,42,127,240
2,41,127,40
2,39,127,40
2,37,127,40
2,36,127,40
2,34,127,40
2,41,127,200
2,46,127,40
2,46,127,80
3,42,64,0
3,36,64,0
3,42,64,5
3,42,64,5
3,38,63,0
3,42,64,5
3,36,64,0
3,38,64,0
3,42,64,5
3,36,64,0
3,42,64,5
3,42,64,5
3,38,64,0
3,42,64,5
3,36,64,0
3,42,64,5
3,36,64,0
3,42,64,5
3,42,64,5
3,38,64,0
3,42,64,5
3,36,64,0
3,38,64,0
3,42,64,5
3,36,64,0
3,42,64,5
3,36,64,0
3,38,64,0
3,42,64,5
3,38,64,0
3,42,64,5
3,38,64,0
3,42,64,5
3,36,64,0
3,42,64,5
3,42,64,5
3,38,64,0
3,42,64,5
3,36,64,0
3,38,64,0
3,42,64,5
3,36,64,0
3,42,64,5
3,42,64,5
3,38,64,0
3,42,64,5
3,36,64,0
3,42,64,5
3,36,64,0
3,42,64,5
3,42,64,5
3,38,64,0
3,42,64,5
3,36,64,0
3,38,64,0
3,42,64,5
3,36,64,0
3,38,64,0
3,38,64,5
3,42,64,5
3,38,64,0
3,38,64,5
3,42,64,5
3,36,64,0
3,38,64,0
3,42,64,5
3,36,64,0
3,38,64,0
3,42,64,5
3,36,64,0
3,38,64,0
3,42,64,5
3,42,64,5
3,38,64,0
3,42,64,5
3,36,64,0
3,38,64,0
3,42,64,5
3,36,64,0
3,38,64,0
3,42,64,5
3,38,64,0
3,42,64,5
3,42,64,5
3,36,64,0
3,38,64,0
3,38,64,5
3,42,64,5
3,36,64,0
3,38,64,0
3,38,64,5
3,42,64,5
3,36,64,0
3,38,64,0
3,42,64,5
3,42,64,5
3,36,64,0
3,38,64,0
3,42,64,5
3,42,64,5
3,36,64,0
3,38,64,0
3,38,64,5
3,42,64,5
3,36,64,0
3,38,64,0
3,38,64,5
3,42,64,5
3,38,64,0
3,38,64,5
3,42,64,5
3,36,64,0
3,38,64,0
3,42,64,5
3,42,64,5
3,38,64,0
3,42,64,5
3,36,64,0
