track,note,velocity,time
0,42,110,0
0,42,0,85
0,42,90,0
0,42,0,5
0,42,90,5
0,42,0,5
0,42,90,165
0,42,0,25
0,67,83,20
0,72,83,0
0,51,74,8
0,55,79,0
0,60,80,0
0,63,77,0
0,67,81,0
0,70,4,0
0,70,0,54
0,70,4,27
0,70,4,73
0,70,0,8
0,70,0,8
0,70,5,29
0,70,0,74
0,70,6,97
0,70,0,91
0,70,7,21
0,70,0,118
0,70,8,2
0,70,0,14
0,70,9,149
0,70,0,84
0,70,9,27
0,70,0,73
0,70,10,47
0,70,0,69
0,70,10,16
0,70,0,90
0,70,11,30
0,70,0,52
0,70,11,21
0,70,0,92
0,70,12,148
0,70,0,114
0,70,13,126
0,70,0,72
0,70,13,48
0,70,0,86
0,70,14,154
0,70,0,71
0,70,14,49
0,70,0,143
0,70,15,97
0,70,0,79
0,70,16,161
0,70,0,87
0,70,17,33
0,70,0,95
0,51,0,21
0,63,0,0
0,60,0,0
0,50,80,4
0,58,78,0
0,62,77,0
0,70,17,0
0,70,0,93
0,70,17,27
0,70,18,120
0,70,0,8
0,70,0,8
0,70,19,224
0,70,0,143
0,70,20,97
0,70,0,129
0,70,21,231
0,70,0,118
0,70,21,2
0,70,0,91
0,70,22,149
0,70,0,93
0,70,23,147
0,70,0,73
0,70,23,47
0,70,0,104
0,70,24,16
0,70,0,90
0,70,24,30
0,70,0,99
0,70,25,21
0,70,0,92
0,70,25,148
0,70,0,114
0,70,26,126
0,70,0,72
0,70,27,48
0,70,0,23
0,70,28,2
0,70,0,8
0,70,28,21
0,70,0,32
0,70,29,32
0,70,0,71
0,72,104,16
0,79,103,6
0,79,0,25
0,72,0,2
0,70,30,32
0,72,109,20
0,79,104,4
0,70,0,6
0,70,30,33
0,79,0,34
0,72,0,3
0,70,0,17
0,55,0,8
0,50,0,0
0,62,0,0
0,58,0,0
0,48,75,4
0,51,72,0
0,56,78,0
0,60,81,0
0,63,74,0
0,70,31,0
0,72,109,1
0,79,110,6
0,72,0,20
0,70,0,4
0,79,0,1
0,70,31,13
0,72,114,25
0,79,112,4
0,70,31,3
0,70,0,8
0,70,0,8
0,72,0,4
0,79,0,7
0,72,112,28
0,79,109,3
0,72,0,27
0,79,0,8
0,70,32,28
0,72,110,33
0,79,104,6
0,72,0,34
0,79,0,6
0,70,0,3
0,70,33,52
0,72,105,2
0,79,105,6
0,72,0,100
0,79,0,7
0,70,0,14
0,72,101,111
0,79,97,4
0,72,0,100
0,79,0,2
0,70,34,14
0,70,0,118
0,70,35,2
0,72,96,10
0,79,93,10
0,70,0,33
0,79,0,13
0,72,0,10
0,70,36,23
0,72,94,20
0,79,92,1
0,70,0,10
0,79,0,23
0,72,0,3
0,70,36,13
0,70,0,2
0,72,94,6
0,79,90,18
0,70,37,23
0,79,0,3
0,72,0,19
0,70,0,1
0,70,37,8
0,70,0,7
0,70,38,30
0,72,93,2
0,79,89,13
0,70,0,36
0,70,38,13
0,79,0,22
0,72,0,7
0,70,0,1
0,72,90,37
0,70,39,28
0,79,84,1
0,79,0,4
0,70,0,19
0,72,0,15
0,70,40,25
0,70,0,11
0,72,85,6
0,70,40,15
0,70,0,1
0,72,0,47
0,70,41,32
0,70,0,32
0,70,41,40
0,70,0,52
0,70,42,93
0,70,0,79
0,70,43,161
0,70,0,87
0,70,44,33
0,70,0,95
0,63,0,21
0,48,0,0
0,51,0,0
0,60,0,0
0,56,0,0
0,46,80,4
0,53,80,0
0,58,82,0
0,62,91,0
0,70,44,0
0,70,0,93
0,70,44,27
0,70,45,120
0,70,0,8
0,70,0,8
0,70,46,224
0,70,0,143
0,70,47,10
0,70,0,4
0,70,48,201
0,70,0,118
0,70,48,2
0,70,0,91
0,70,49,149
0,70,0,93
0,70,50,147
0,70,0,73
0,70,50,47
0,70,0,104
0,70,51,16
0,70,0,90
0,70,51,30
0,70,0,99
0,70,52,21
0,70,0,92
0,70,52,10
0,70,0,105
0,70,53,126
0,70,0,72
0,70,54,48
0,70,0,86
0,48,121,34
0,55,116,0
0,70,55,120
0,70,0,71
0,70,55,49
0,70,0,143
0,70,56,97
0,70,0,6
0,70,57,7
0,70,0,8
0,70,57,4
0,70,0,15
0,46,0,17
0,67,0,0
0,62,0,0
0,53,0,0
0,72,0,0
0,67,0,0
0,58,0,0
0,60,109,3
0,67,110,0
0,55,84,0
0,60,81,0
0,63,80,0
0,67,85,0
0,48,100,0
0,36,64,0
0,70,53,0
0,36,0,42
0,70,0,3
0,48,0,23
0,55,98,4
0,70,47,0
0,55,0,116
0,36,119,4
0,58,93,0
0,70,51,0
0,70,0,8
0,70,0,8
0,58,0,100
0,60,102,4
0,36,0,72
0,60,0,44
0,48,97,4
0,36,75,0
0,70,55,0
0,36,0,91
0,48,0,25
0,55,100,4
0,70,0,23
0,55,0,2
0,36,119,4
0,58,94,0
0,70,52,0
0,58,0,2
0,60,102,4
0,70,0,9
0,36,0,3
0,60,0,2
0,48,99,4
0,36,78,0
0,36,0,15
0,48,0,2
0,55,100,4
0,70,51,0
0,55,0,2
0,70,0,2
0,36,117,2
0,58,94,0
0,70,59,0
0,70,0,7
0,58,0,2
0,60,100,4
0,36,0,1
0,60,0,2
0,48,99,4
0,36,78,0
0,70,53,0
0,70,0,9
0,36,0,9
0,48,0,2
0,55,99,4
0,55,0,2
0,36,119,4
0,58,94,0
0,70,49,0
0,70,0,9
0,58,0,2
0,60,100,4
0,70,51,0
0,55,0,6
0,48,0,1
0,36,0,7
0,70,0,10
0,60,0,12
0,48,100,4
0,36,64,0
0,70,50,0
0,70,0,54
0,36,0,0
0,48,0,26
0,55,98,4
0,70,50,0
0,70,0,99
0,55,0,17
0,36,117,4
0,58,93,0
0,70,53,0
0,70,0,92
0,58,0,24
0,60,102,4
0,36,0,75
0,60,0,41
0,48,97,4
0,36,75,0
0,70,53,0
0,36,0,91
0,70,0,23
0,48,0,2
0,55,100,4
0,55,0,116
0,36,117,4
0,58,94,0
0,70,53,0
0,70,0,72
0,58,0,44
0,60,102,4
0,70,49,0
0,36,0,79
0,70,0,7
0,60,0,30
0,48,99,4
0,36,78,0
0,36,0,99
0,48,0,17
0,55,100,4
0,70,55,0
0,70,0,71
0,55,0,45
0,36,117,4
0,58,94,0
0,70,54,0
0,58,0,116
0,60,100,4
0,70,0,23
0,36,0,57
0,60,0,36
0,48,99,4
0,36,78,0
0,70,58,0
0,70,0,79
0,36,0,34
0,48,0,3
0,55,99,4
0,55,0,1
0,36,117,4
0,58,94,0
0,70,51,0
0,70,0,2
0,58,0,1
0,60,100,4
0,70,51,0
0,36,0,49
0,70,0,22
0,60,0,21
0,60,0,0
0,63,0,0
0,58,77,4
0,62,84,0
0,48,100,0
0,36,64,0
0,70,53,0
0,36,0,90
0,70,0,3
0,48,0,23
0,55,98,4
0,70,47,0
0,55,0,116
0,34,119,4
0,58,93,0
0,70,51,0
0,70,0,8
0,70,0,8
0,58,0,100
0,60,102,4
0,34,0,72
0,60,0,44
0,48,97,4
0,36,75,0
0,70,55,0
0,36,0,91
0,48,0,25
0,55,100,4
0,70,0,23
0,55,0,93
0,34,119,4
0,58,94,0
0,70,52,0
0,58,0,116
0,60,102,4
0,70,0,9
0,34,0,68
0,60,0,39
0,48,99,4
0,36,78,0
0,36,0,99
0,48,0,17
0,55,100,4
0,70,51,0
0,55,0,116
0,70,0,2
0,34,117,2
0,58,94,0
0,70,59,0
0,70,0,91
0,58,0,25
0,60,100,4
0,34,0,85
0,60,0,31
0,48,99,4
0,36,78,0
0,70,53,0
0,70,0,93
0,36,0,20
0,48,0,3
0,55,99,4
0,55,0,116
0,34,119,4
0,58,94,0
0,70,49,0
0,70,0,73
0,58,0,43
0,60,100,4
0,70,51,0
0,34,0,71
0,70,0,33
0,60,0,12
0,48,100,4
0,36,64,0
0,70,50,0
0,70,0,90
0,36,0,0
0,48,0,26
0,55,98,4
0,70,50,0
0,70,0,99
0,55,0,17
0,34,117,4
0,58,93,0
0,70,53,0
0,70,0,92
0,58,0,24
0,60,102,4
0,34,0,75
0,60,0,41
0,48,97,4
0,36,75,0
0,70,53,0
0,36,0,91
0,70,0,23
0,48,0,2
0,55,100,4
0,55,0,116
0,34,117,4
0,58,94,0
0,70,53,0
0,70,0,72
0,58,0,44
0,60,102,4
0,70,49,0
0,34,0,79
0,70,0,7
0,60,0,30
0,48,99,4
0,36,78,0
0,36,0,99
0,48,0,9
0,55,100,4
0,70,55,0
0,70,0,1
0,55,0,13
0,34,117,4
0,58,94,0
0,70,54,0
0,58,0,33
0,60,100,4
0,70,0,23
0,34,0,16
0,60,0,21
0,48,99,4
0,36,78,0
0,70,58,0
0,70,0,34
0,36,0,24
0,48,0,3
0,55,99,4
0,55,0,78
0,34,117,4
0,58,94,0
0,70,51,0
0,70,0,1
0,58,0,29
0,60,100,0
0,70,51,0
0,34,0,31
0,70,0,22
0,55,0,21
0,62,0,0
0,60,0,0
0,67,0,0
0,60,0,0
0,58,0,0
0,60,109,4
0,67,110,0
0,56,78,0
0,60,82,0
0,63,72,0
0,48,121,0
0,48,100,0
0,36,64,0
0,70,53,0
0,36,0,15
0,70,0,3
0,48,0,2
0,48,0,0
0,55,118,4
0,55,98,0
0,70,47,0
0,55,0,1
0,55,0,0
0,32,119,4
0,58,111,0
0,58,93,0
0,70,51,0
0,70,0,8
0,70,0,8
0,58,0,44
0,58,0,0
0,60,123,4
0,60,102,0
0,32,0,9
0,60,0,44
0,60,0,0
0,48,116,4
0,48,97,0
0,36,75,0
0,70,55,0
0,36,0,34
0,48,0,25
0,48,0,0
0,55,121,1
0,55,100,0
0,70,0,23
0,55,0,30
0,55,0,0
0,32,119,4
0,58,113,0
0,58,94,0
0,70,52,0
0,58,0,17
0,58,0,0
0,60,123,4
0,60,102,0
0,70,0,9
0,32,0,44
0,60,0,37
0,60,0,0
0,48,119,4
0,48,99,0
0,36,78,0
0,36,0,38
0,48,0,7
0,48,0,0
0,55,121,4
0,55,100,0
0,70,51,0
0,55,0,13
0,55,0,0
0,70,0,2
0,32,117,2
0,58,113,0
0,58,94,0
0,70,59,0
0,70,0,5
0,58,0,25
0,58,0,0
0,60,121,4
0,60,100,0
0,32,0,40
0,60,0,21
0,60,0,0
0,48,119,4
0,48,99,0
0,36,78,0
0,70,53,0
0,70,0,23
0,36,0,8
0,48,0,3
0,48,0,0
0,55,119,4
0,55,99,0
0,55,0,30
0,55,0,0
0,32,119,4
0,58,113,0
0,58,94,0
0,70,49,0
0,70,0,21
0,58,0,30
0,58,0,0
0,60,121,4
0,60,100,0
0,70,51,0
0,32,0,21
0,70,0,6
0,60,0,12
0,60,0,0
0,48,121,4
0,48,100,0
0,36,64,0
0,70,50,0
0,70,0,20
0,36,0,0
0,48,0,26
0,48,0,0
0,55,118,4
0,55,98,0
0,70,50,0
0,70,0,24
0,55,0,17
0,55,0,0
0,32,117,4
0,58,111,0
0,58,93,0
0,70,53,0
0,70,0,29
0,58,0,7
0,58,0,0
0,60,123,4
0,60,102,0
0,32,0,24
0,60,0,41
0,60,0,0
0,48,116,4
0,48,97,0
0,36,75,0
0,70,53,0
0,36,0,67
0,70,0,2
0,48,0,2
0,48,0,0
0,55,121,4
0,55,100,0
0,55,0,66
0,55,0,0
0,32,117,4
0,58,113,0
0,58,94,0
0,70,53,0
0,70,0,44
0,58,0,44
0,58,0,0
0,60,123,2
0,60,102,0
0,70,49,0
0,32,0,79
0,70,0,7
0,60,0,30
0,60,0,0
0,48,119,4
0,48,99,0
0,36,78,0
0,36,0,95
0,48,0,17
0,48,0,0
0,55,121,4
0,55,100,0
0,70,55,0
0,70,0,71
0,55,0,45
0,55,0,0
0,32,117,4
0,58,113,0
0,58,94,0
0,70,54,0
0,58,0,31
0,58,0,0
0,60,121,4
0,60,100,0
0,70,0,19
0,32,0,43
0,60,0,16
0,60,0,0
0,48,119,4
0,48,99,0
0,36,78,0
0,70,58,0
0,70,0,21
0,36,0,34
0,48,0,3
0,48,0,0
0,55,119,4
0,55,99,0
0,55,0,53
0,55,0,0
0,32,117,4
0,58,113,0
0,58,94,0
0,70,51,0
0,70,0,27
0,58,0,5
0,58,0,0
0,60,121,4
0,60,100,0
0,70,51,0
0,32,0,23
0,70,0,4
0,60,0,21
0,56,0,0
0,63,0,0
0,60,0,0
0,60,0,0
0,55,78,4
0,58,77,0
0,62,85,0
0,48,121,0
0,48,100,0
0,36,64,0
0,70,53,0
0,36,0,26
0,70,0,3
0,48,0,15
0,48,0,0
0,55,118,4
0,55,98,0
0,70,47,0
0,55,0,26
0,55,0,0
0,31,119,4
0,58,111,0
0,58,93,0
0,70,51,0
0,70,0,2
0,70,0,8
0,58,0,9
0,58,0,0
0,60,123,4
0,60,102,0
0,31,0,11
0,60,0,20
0,60,0,0
0,48,116,4
0,48,97,0
0,36,75,0
0,70,55,0
0,36,0,36
0,48,0,22
0,48,0,0
0,55,121,4
0,55,100,0
0,70,0,10
0,55,0,12
0,55,0,0
0,31,119,4
0,58,113,0
0,58,94,0
0,70,52,0
0,58,0,17
0,58,0,0
0,60,123,4
0,60,102,0
0,70,0,9
0,31,0,17
0,60,0,19
0,60,0,0
0,48,119,4
0,48,99,0
0,36,78,0
0,36,0,44
0,48,0,11
0,48,0,0
0,55,121,4
0,55,100,0
0,70,51,0
0,55,0,42
0,55,0,0
0,70,0,2
0,31,117,2
0,58,113,0
0,58,94,0
0,70,59,0
0,70,0,7
0,58,0,1
0,58,0,0
0,60,121,4
0,60,100,0
0,31,0,4
0,60,0,4
0,60,0,0
0,48,119,4
0,48,99,0
0,36,78,0
0,70,53,0
0,70,0,16
0,36,0,6
0,48,0,3
0,48,0,0
0,55,119,4
0,55,99,0
0,55,0,13
0,55,0,0
0,31,119,4
0,58,113,0
0,58,94,0
0,70,49,0
0,70,0,4
0,58,0,43
0,58,0,0
0,60,121,4
0,60,100,0
0,70,51,0
0,31,0,31
0,70,0,19
0,60,0,12
0,60,0,0
0,55,0,0
0,48,100,4
0,36,64,0
0,70,50,0
0,70,0,47
0,36,0,0
0,48,0,23
0,55,98,4
0,70,50,0
0,70,0,24
0,55,0,17
0,34,117,4
0,58,93,0
0,70,53,0
0,70,0,4
0,58,0,24
0,60,102,4
0,34,0,17
0,60,0,41
0,48,97,4
0,36,75,0
0,70,53,0
0,36,0,47
0,70,0,23
0,48,0,2
0,55,100,4
0,81,109,0
0,55,0,116
0,34,117,4
0,58,94,0
0,70,53,0
0,70,0,59
0,58,0,44
0,60,102,4
0,70,49,0
0,34,0,79
0,70,0,7
0,60,0,30
0,48,99,4
0,36,78,0
0,36,0,78
0,48,0,17
0,55,100,4
0,70,55,0
0,70,0,71
0,55,0,45
0,34,117,4
0,58,94,0
0,70,54,0
0,58,0,116
0,60,100,4
0,70,0,23
0,34,0,57
0,60,0,36
0,48,99,4
0,36,78,0
0,70,58,0
0,70,0,2
0,36,0,3
0,48,0,3
0,55,99,4
0,55,0,27
0,34,117,4
0,58,94,0
0,70,51,0
0,70,0,87
0,58,0,29
0,60,100,4
0,70,51,0
0,34,0,73
0,70,0,22
0,60,0,21
0,81,0,0
0,62,0,0
0,67,0,0
0,60,0,0
0,67,0,0
0,58,0,0
0,60,109,4
0,67,110,0
0,55,84,0
0,60,81,0
0,63,80,0
0,67,85,0
0,48,100,0
0,36,121,0
0,42,116,0
0,49,98,0
0,70,53,0
0,49,0,54
0,42,0,31
0,70,0,8
0,48,0,23
0,55,98,4
0,70,47,0
0,36,0,34
0,55,0,82
0,36,119,4
0,58,93,0
0,42,100,0
0,69,71,0
0,70,51,0
0,82,65,0
0,70,0,8
0,70,0,8
0,42,0,54
0,82,0,20
0,69,0,18
0,58,0,8
0,60,102,4
0,36,0,72
0,60,0,44
0,48,97,4
0,36,111,0
0,39,107,0
0,42,104,0
0,69,64,0
0,70,55,0
0,42,0,84
0,69,0,5
0,48,0,27
0,36,0,3
0,55,100,1
0,39,0,9
