track,note,velocity,time
0,47,70,96
0,59,64,0
0,63,64,0
0,66,66,0
0,47,70,0
0,54,66,0
0,47,62,0
0,54,65,0
0,51,71,0
0,63,90,2
0,59,93,0
0,54,96,0
0,47,69,104
0,54,67,0
0,47,60,0
0,54,66,0
0,47,70,8
0,54,73,0
0,47,64,0
0,54,66,0
0,47,66,8
0,54,65,0
0,47,64,0
0,54,60,0
0,47,71,104
0,54,69,0
0,47,61,0
0,54,64,0
0,47,71,104
0,54,67,0
0,47,60,0
0,54,63,0
0,47,72,104
0,54,70,0
0,47,62,0
0,54,65,0
0,51,75,0
0,47,73,104
0,54,72,0
0,47,67,0
0,54,64,0
0,47,72,104
0,54,66,0
0,47,65,0
0,54,66,0
0,51,76,0
0,47,66,104
0,54,65,0
0,47,64,0
0,54,67,0
0,51,77,0
0,64,95,2
0,59,97,0
0,56,96,0
0,47,65,104
0,54,64,0
0,47,68,0
0,54,60,0
0,51,75,0
0,63,98,0
0,59,96,0
0,54,89,0
0,47,65,8
0,54,72,0
0,47,63,0
0,54,63,0
0,47,73,8
0,54,70,0
0,47,65,0
0,54,65,0
0,47,66,104
0,54,64,0
0,47,60,0
0,54,60,0
0,47,70,104
0,54,65,0
0,47,67,0
0,54,67,0
0,47,73,104
0,54,72,0
0,47,63,0
0,54,64,0
0,47,69,104
0,54,69,0
0,47,65,0
0,54,67,0
0,47,68,104
0,54,69,0
0,47,64,0
0,54,63,0
0,78,85,104
0,47,68,0
0,54,70,0
0,47,61,0
0,54,61,0
0,51,74,0
0,63,89,2
0,59,92,0
0,54,97,0
0,47,69,104
0,54,68,0
0,47,64,0
0,54,67,0
0,47,66,8
0,54,67,0
0,47,61,0
0,54,66,0
0,47,67,8
0,54,72,0
0,47,67,0
0,54,65,0
0,47,64,104
0,54,73,0
0,47,68,0
0,54,60,0
0,47,70,104
0,54,70,0
0,47,66,0
0,54,60,0
0,47,72,100
0,54,70,0
0,47,61,0
0,54,64,0
0,47,72,104
0,54,65,0
0,47,60,0
0,54,60,0
0,47,66,104
0,54,70,0
0,47,60,0
0,54,62,0
0,51,76,0
0,47,65,104
0,54,68,0
0,47,63,0
0,54,62,0
0,51,77,0
0,64,89,2
0,59,91,0
0,56,98,0
0,47,68,104
0,54,65,0
0,47,68,0
0,54,61,0
0,51,71,0
0,63,93,0
0,59,95,0
0,54,97,0
0,47,71,8
0,54,68,0
0,47,59,0
0,54,63,0
0,47,67,8
0,54,70,0
0,47,65,0
0,54,68,0
0,47,69,8
0,54,66,0
0,47,64,0
0,54,60,0
0,47,67,0
0,54,71,0
0,47,68,0
0,54,59,0
0,47,64,104
0,54,72,0
0,47,66,0
0,54,62,0
0,51,72,0
0,49,36,0
0,66,119,3
0,49,38,25
0,49,40,28
0,49,42,8
0,49,44,28
0,49,46,28
0,47,68,28
0,54,73,0
0,47,67,0
0,54,66,0
0,51,79,0
0,49,48,0
0,66,120,1
0,49,51,27
0,49,53,28
0,49,55,8
0,49,57,28
0,49,59,28
0,47,68,1
0,54,66,0
0,47,63,0
0,54,65,0
0,51,72,0
0,49,61,0
0,63,117,3
0,49,63,28
0,49,65,28
0,49,67,3
0,49,69,28
0,49,71,28
0,47,65,0
0,54,72,0
0,47,59,0
0,54,63,0
0,51,71,0
0,49,73,0
0,66,120,1
0,49,75,2
0,49,77,4
0,49,80,6
0,49,82,8
0,49,84,20
0,47,72,28
0,54,67,0
0,47,59,0
0,54,66,0
0,49,115,0
0,63,93,2
0,59,89,0
0,54,97,0
0,47,71,20
0,54,67,0
0,47,64,0
0,54,61,0
0,47,65,8
0,54,67,0
0,47,65,0
0,54,63,0
0,66,124,4
0,47,69,1
0,54,70,0
0,47,61,0
0,54,62,0
0,47,68,104
0,54,71,0
0,47,68,0
0,54,59,0
0,66,118,3
0,47,65,4
0,54,67,0
0,47,62,0
0,54,62,0
0,59,117,3
0,47,71,7
0,54,64,0
0,47,63,0
0,54,62,0
0,47,70,104
0,54,70,0
0,47,59,0
0,54,59,0
0,54,92,0
0,47,73,104
0,54,71,0
0,47,61,0
0,54,64,0
0,47,72,104
0,54,64,0
0,47,60,0
0,54,67,0
0,51,74,0
0,64,97,2
0,59,89,0
0,56,98,0
0,47,67,104
0,54,67,0
0,47,61,0
0,54,61,0
0,51,77,0
0,63,98,0
0,59,97,0
0,54,90,0
0,47,70,8
0,54,64,0
0,47,59,0
0,54,60,0
0,47,73,8
0,54,67,0
0,47,62,0
0,54,59,0
0,47,72,8
0,54,73,0
0,47,64,0
0,54,67,0
0,47,73,8
0,54,68,0
0,47,61,0
0,54,66,0
0,66,117,98
0,47,65,6
0,54,69,0
0,47,64,0
0,54,66,0
0,66,122,7
0,47,72,5
0,54,72,0
0,47,64,0
0,54,63,0
0,63,120,6
0,47,67,5
0,54,70,0
0,47,64,0
0,54,61,0
0,42,71,0
0,66,123,0
0,42,70,0
0,47,66,0
0,54,69,0
0,47,65,0
0,54,66,0
0,42,72,0
0,40,66,24
0,47,71,0
0,52,67,0
0,47,63,0
0,52,59,0
0,63,95,6
0,59,97,0
0,54,91,0
0,47,68,104
0,52,64,0
0,47,62,0
0,52,59,0
0,47,64,6
0,52,73,0
0,47,68,0
0,52,65,0
0,66,125,6
0,63,121,98
0,47,73,0
0,52,65,0
0,47,63,0
0,52,67,0
0,66,125,6
0,47,68,6
0,52,67,0
0,47,65,0
0,52,67,0
0,68,119,6
0,47,66,6
0,52,66,0
0,47,64,0
0,52,60,0
0,80,84,104
0,47,67,0
0,52,67,0
0,47,66,0
0,52,68,0
0,51,72,0
0,47,67,104
0,52,72,0
0,47,65,0
0,52,67,0
0,51,76,0
0,47,67,104
0,52,72,0
0,47,68,0
0,52,61,0
0,51,74,0
0,64,98,2
0,59,93,0
0,56,90,0
0,47,68,104
0,52,73,0
0,47,68,0
0,52,63,0
0,51,75,0
0,63,92,0
0,59,89,0
0,54,98,0
0,47,73,8
0,52,66,0
0,47,67,0
0,52,68,0
0,47,64,0
0,52,67,0
0,47,60,0
0,52,63,0
0,47,64,8
0,52,71,0
0,47,64,0
0,52,64,0
0,47,70,8
0,52,68,0
0,47,66,0
0,52,65,0
0,47,73,104
0,51,70,0
0,47,62,0
0,51,67,0
0,66,120,99
0,47,64,5
0,51,72,0
0,47,67,0
0,51,61,0
0,63,117,5
0,44,64,6
0,49,67,0
0,44,67,0
0,49,65,0
0,63,97,6
0,59,96,0
0,54,94,0
0,49,73,12
0,44,66,0
0,49,64,0
0,44,59,0
0,49,60,0
0,51,79,0
0,66,123,0
0,73,88,24
0,49,71,0
0,61,69,0
0,66,67,0
0,68,65,0
0,44,66,0
0,49,68,0
0,44,60,0
0,49,66,0
0,51,77,0
0,61,95,2
0,56,93,0
0,52,89,0
0,44,70,2
0,49,67,0
0,44,63,0
0,49,68,0
0,66,120,0
0,44,68,0
0,49,71,0
0,44,66,0
0,49,66,0
0,63,125,7
0,44,66,104
0,49,72,0
0,44,63,0
0,49,59,0
0,66,120,5
0,44,73,104
0,49,66,0
0,44,66,0
0,49,67,0
0,61,93,6
0,56,96,0
0,52,91,0
0,66,117,92
0,44,69,4
0,49,66,0
0,44,66,0
0,49,61,0
0,63,121,6
0,44,64,4
0,49,68,0
0,44,61,0
0,49,60,0
0,54,59,0
0,51,78,0
0,44,64,0
0,49,73,0
0,44,61,0
0,49,60,0
0,51,75,0
0,68,119,4
0,44,71,52
0,49,72,0
0,44,68,0
0,49,64,0
0,51,76,0
0,61,89,2
0,56,97,0
0,52,96,0
0,66,125,90
0,44,70,4
0,49,72,0
0,44,60,0
0,49,67,0
0,44,69,104
0,49,70,0
0,44,67,0
0,49,68,0
0,44,73,104
0,49,67,0
0,44,62,0
0,49,68,0
0,44,72,104
0,49,65,0
0,44,60,0
0,49,63,0
0,63,124,99
0,44,69,5
0,49,73,0
0,44,63,0
0,49,60,0
0,66,117,0
0,44,67,0
0,49,71,0
0,44,60,0
0,49,60,0
0,51,75,0
0,44,69,52
0,49,64,0
0,44,66,0
0,49,67,0
0,42,72,6
0,61,69,0
0,66,71,0
0,70,64,0
0,42,124,0
0,58,92,0
0,42,112,0
0,49,111,0
0,66,121,3
0,58,97,2
0,71,64,12
0,59,87,0
0,59,98,0
0,46,44,90
0,46,57,28
0,46,59,28
0,46,61,28
0,46,63,8
0,46,65,28
0,46,67,12
0,46,69,28
0,46,71,28
0,46,73,12
0,46,75,28
0,46,77,16
0,46,80,3
0,46,82,28
0,46,84,28
0,49,69,8
0,54,72,0
0,49,68,0
0,54,66,0
0,42,120,0
0,42,67,0
0,51,79,0
0,49,67,20
0,54,67,0
0,49,68,0
0,54,60,0
0,61,122,2
0,61,116,2
0,49,65,2
0,54,67,0
0,49,64,0
0,54,63,0
0,42,75,0
0,51,71,0
0,61,121,4
0,49,71,0
0,54,72,0
0,49,68,0
0,54,63,0
0,47,117,0
0,47,70,0
0,54,72,0
0,47,68,0
0,54,66,0
0,42,74,0
0,51,71,0
0,61,120,1
0,59,124,46
0,47,64,0
0,54,69,0
0,47,66,0
0,54,59,0
0,59,117,7
0,47,67,0
0,54,66,0
0,47,68,0
0,54,65,0
0,42,71,0
0,51,80,0
0,59,124,4
0,47,67,0
0,54,70,0
0,47,67,0
0,54,60,0
0,59,120,9
0,47,68,0
0,52,71,0
0,47,59,0
0,52,63,0
0,40,112,0
0,42,66,0
0,51,73,0
0,47,66,10
0,52,67,0
0,47,61,0
0,52,63,0
0,59,119,4
0,47,71,100
0,52,73,0
0,47,66,0
0,52,68,0
0,42,70,0
0,51,73,0
0,47,69,10
0,52,65,0
0,47,60,0
0,52,62,0
0,42,116,0
0,61,121,4
0,49,65,104
0,54,70,0
0,49,63,0
0,54,62,0
0,42,66,0
0,51,71,0
0,49,66,104
0,54,65,0
0,49,66,0
0,54,61,0
0,49,64,0
0,54,69,0
0,49,63,0
0,54,67,0
0,42,75,0
0,51,80,0
0,48,112,0
0,47,73,104
0,54,65,0
0,47,68,0
0,54,60,0
0,46,114,0
0,49,65,98
0,54,69,0
0,49,67,0
0,54,61,0
0,42,118,0
0,42,70,0
0,51,72,0
0,61,124,104
0,49,70,0
0,54,72,0
0,49,59,0
0,54,65,0
0,61,122,2
0,49,72,4
0,54,73,0
0,49,62,0
0,54,61,0
0,42,73,0
0,51,79,0
0,61,124,8
0,49,64,2
0,54,68,0
0,49,64,0
0,54,61,0
0,47,118,0
0,61,119,0
0,47,68,0
0,54,66,0
0,47,66,0
0,54,64,0
0,42,75,0
0,51,72,0
0,59,119,1
0,47,64,5
0,54,68,0
0,47,64,0
0,54,68,0
0,59,122,7
0,47,71,4
0,54,69,0
0,47,64,0
0,54,67,0
0,42,68,0
0,51,77,0
0,59,118,99
0,47,67,5
0,54,72,0
0,47,61,0
0,54,59,0
0,59,123,100
0,47,73,4
0,52,67,0
0,47,59,0
0,52,59,0
0,40,116,0
0,42,75,0
0,51,71,0
0,47,66,10
0,52,65,0
0,47,66,0
0,52,60,0
0,59,124,4
0,47,67,12
0,52,67,0
0,47,68,0
0,52,60,0
0,42,66,0
0,51,79,0
0,47,65,4
0,52,66,0
0,47,67,0
0,52,61,0
0,42,120,0
0,54,124,4
0,49,67,104
0,54,67,0
0,49,62,0
0,54,65,0
0,42,74,0
0,51,74,0
0,49,69,104
0,54,67,0
0,49,60,0
0,54,59,0
0,49,70,4
0,54,73,0
0,49,65,0
0,54,59,0
0,52,116,0
0,42,67,0
0,51,75,0
0,48,115,0
0,47,73,10
0,54,66,0
0,47,61,0
0,54,63,0
0,44,114,0
0,46,115,0
0,49,64,10
0,54,71,0
0,49,68,0
0,54,61,0
0,42,70,0
0,51,78,0
0,42,120,12
0,49,72,98
0,54,72,0
0,49,63,0
0,54,60,0
0,61,122,6
0,49,65,0
0,54,70,0
0,49,59,0
0,54,62,0
0,42,72,0
0,51,73,0
0,61,117,0
0,61,120,0
0,49,71,4
0,54,72,0
0,49,64,0
0,54,63,0
0,47,113,0
0,61,125,0
0,47,67,0
0,54,70,0
0,47,65,0
0,54,64,0
0,42,73,0
0,51,79,0
0,59,118,0
0,47,70,6
0,54,69,0
0,47,66,0
0,54,68,0
0,59,116,9
0,47,73,3
0,54,67,0
0,47,68,0
0,54,64,0
0,42,66,0
0,51,73,0
0,59,120,8
0,47,72,4
0,54,69,0
0,47,61,0
0,54,66,0
0,47,67,4
0,52,67,0
0,47,67,0
0,52,59,0
0,40,116,0
0,42,73,0
0,51,77,0
0,59,120,5
0,47,69,5
0,52,70,0
0,47,66,0
0,52,65,0
0,59,122,102
0,47,71,2
0,52,68,0
0,47,65,0
0,52,63,0
0,42,71,0
0,51,78,0
0,47,66,0
0,52,66,0
0,47,67,0
0,52,62,0
0,42,112,0
0,63,120,4
0,49,70,52
0,54,69,0
0,49,65,0
0,54,65,0
0,42,71,0
0,51,76,0
0,61,123,100
0,49,66,2
0,54,69,0
0,49,66,0
0,54,61,0
0,49,70,104
0,54,64,0
0,49,64,0
0,54,68,0
0,42,69,0
0,51,72,0
0,48,120,0
0,47,64,104
0,54,69,0
0,47,61,0
0,54,67,0
0,46,111,0
0,49,66,0
0,54,67,0
0,49,65,0
0,54,65,0
0,42,115,0
0,42,69,0
0,51,78,0
0,66,119,0
0,49,69,52
0,54,72,0
0,49,61,0
0,54,63,0
0,66,122,4
0,49,69,98
0,54,72,0
0,49,65,0
0,54,63,0
0,42,75,0
0,51,77,0
0,66,120,4
0,49,73,6
0,54,66,0
0,49,65,0
0,54,62,0
0,47,118,0
0,47,66,12
0,54,65,0
0,47,60,0
0,54,64,0
0,42,74,0
0,51,75,0
0,66,118,1
0,47,70,5
0,54,69,0
0,47,65,0
0,54,67,0
0,61,125,3
0,47,68,104
0,54,65,0
0,47,60,0
0,54,60,0
0,42,72,0
0,51,71,0
0,48,111,0
0,63,121,97
0,47,64,3
0,54,73,0
0,47,62,0
0,54,65,0
0,47,66,0
0,52,71,0
0,47,59,0
0,52,65,0
0,40,117,0
0,42,66,0
0,64,117,1
0,47,70,52
0,52,70,0
0,47,62,0
0,52,68,0
0,42,68,0
0,56,117,0
0,47,67,101
0,52,72,0
0,47,66,0
0,52,63,0
0,42,70,0
0,47,73,11
0,52,67,0
0,47,66,0
0,52,66,0
0,42,75,0
0,54,121,1
0,66,94,4
0,70,96,0
0,73,98,0
0,46,125,0
0,49,119,0
0,54,115,0
0,49,110,0
0,42,112,0
0,49,113,0
0,58,97,2
0,54,90,0
0,49,96,0
0,38,117,378
0,46,118,0
0,56,96,0
0,59,98,0
0,64,96,0
0,28,112,0
0,36,119,0
0,49,112,0
0,64,92,2
0,59,97,0
0,52,97,0
0,38,113,0
0,56,103,10
0,59,96,0
0,63,101,0
0,32,117,0
0,57,115,0
0,68,94,2
0,63,90,0
0,56,98,0
0,36,111,46
0,90,111,10
0,54,103,0
0,58,103,0
0,61,99,0
0,30,115,0
0,36,114,0
0,38,119,0
0,49,112,0
0,66,97,2
0,61,98,0
0,54,91,0
0,42,75,378
0,66,124,4
0,71,93,6
0,30,114,0
0,42,71,0
0,66,124,7
0,70,93,5
0,30,116,0
0,36,116,0
0,38,112,0
0,42,68,0
0,63,120,5
0,66,85,6
0,30,112,0
0,42,73,0
0,66,118,0
0,71,85,0
0,75,86,0
0,30,120,0
0,36,114,0
0,42,72,0
0,50,113,0
0,63,124,2
0,70,93,4
0,73,93,0
0,30,116,0
0,42,74,0
0,48,115,0
0,61,118,4
0,66,88,6
0,70,90,0
0,30,114,0
0,36,118,0
0,38,118,0
0,42,67,0
0,61,88,12
0,66,92,0
0,30,113,0
0,46,118,0
0,48,119,0
0,63,123,3
0,59,102,1
0,64,102,0
0,68,97,0
0,28,115,0
0,36,118,0
0,42,71,0
0,49,111,0
0,64,90,2
0,59,95,0
0,52,96,0
0,42,73,3
0,59,120,3
0,38,112,3
0,42,67,0
0,59,123,2
0,63,98,10
0,68,99,0
0,71,94,0
0,32,117,0
0,42,68,0
