track,note,velocity,time
3,42,117,62576
3,54,117,0
3,61,117,0
3,59,117,0
3,61,0,1416
3,42,0,24
3,54,0,0
3,59,0,0
3,40,98,96
3,52,98,0
3,52,0,576
3,40,0,0
3,42,109,0
3,54,109,0
3,54,0,864
3,42,0,0
3,42,117,96
3,54,117,0
3,61,117,0
3,59,117,0
3,61,0,1416
3,42,0,24
3,54,0,0
3,59,0,0
3,40,98,96
3,52,98,0
3,52,0,576
3,40,0,0
3,42,109,0
3,54,109,0
3,54,0,864
3,42,0,0
3,59,117,96
3,54,117,0
3,42,117,0
3,61,117,0
3,61,0,1416
3,59,0,24
3,54,0,0
3,42,0,0
3,40,98,96
3,52,98,0
3,52,0,576
3,40,0,0
3,54,109,0
3,42,109,0
3,42,0,864
3,54,0,0
3,42,117,96
3,42,0,3072
4,42,88,18032
4,42,0,576
4,47,82,0
4,47,0,960
4,40,94,0
4,40,0,576
4,42,94,0
4,42,0,960
4,42,94,0
4,42,0,576
4,47,94,0
4,47,0,960
4,40,88,0
4,40,0,576
4,42,84,0
4,42,0,384
4,47,79,0
4,47,0,192
4,51,79,0
4,51,0,192
4,44,79,0
4,44,0,192
4,42,99,0
4,42,0,576
4,47,99,0
4,47,0,960
4,40,94,0
4,40,0,576
4,42,94,0
4,42,0,960
4,42,106,0
4,42,0,576
4,47,94,0
4,47,0,960
4,40,88,0
4,40,0,768
4,42,106,0
4,42,0,672
4,28,114,96
4,28,0,576
4,32,106,0
4,32,0,576
4,30,94,0
4,30,0,576
4,30,82,0
4,30,0,144
4,30,88,48
4,30,0,144
4,30,77,48
4,30,0,144
4,30,82,48
4,30,0,144
4,30,79,48
4,30,0,144
4,30,99,48
4,30,0,144
4,30,82,48
4,30,0,144
4,28,114,48
4,28,0,576
4,32,106,0
4,32,0,576
4,30,94,0
4,30,0,576
4,30,82,0
4,30,0,144
4,30,88,48
4,30,0,144
4,30,77,48
4,30,0,144
4,30,82,48
4,30,0,144
4,30,79,48
4,30,0,144
4,30,99,48
4,30,0,144
4,30,82,48
4,30,0,144
4,32,91,48
4,32,0,1344
4,34,97,0
4,34,0,768
4,46,80,0
4,46,0,552
4,34,94,0
4,34,0,24
4,35,114,0
4,35,0,128
4,35,88,64
4,35,0,128
4,35,94,64
4,35,0,128
4,35,94,64
4,35,0,128
4,35,99,64
4,35,0,128
4,35,99,64
4,35,0,128
4,35,114,64
4,35,0,128
4,35,88,64
4,35,0,128
4,35,88,64
4,35,0,128
4,35,99,64
4,35,0,128
4,35,88,64
4,35,0,128
4,35,84,64
4,35,0,128
4,35,106,64
4,35,0,128
4,35,88,64
4,35,0,128
4,35,94,64
4,35,0,128
4,35,94,64
4,35,0,128
4,28,114,64
4,28,0,128
4,28,99,64
4,28,0,128
4,28,117,64
4,28,0,128
4,28,94,64
4,28,0,128
4,28,114,64
4,28,0,128
4,28,82,64
4,28,0,128
4,28,114,64
4,28,0,128
4,28,99,64
4,28,0,128
4,28,117,64
4,28,0,128
4,28,84,64
4,28,0,128
4,28,117,64
4,28,0,128
4,28,94,64
4,28,0,128
4,28,106,64
4,28,0,128
4,28,106,64
4,28,0,128
4,35,94,64
4,35,0,192
4,36,88,0
4,36,0,192
4,37,94,0
4,37,0,128
4,37,82,64
4,37,0,128
4,37,106,64
4,37,0,128
4,37,88,64
4,37,0,128
4,37,114,64
4,37,0,128
4,37,84,64
4,37,0,128
4,37,114,64
4,37,0,128
4,37,84,64
4,37,0,128
4,37,117,64
4,37,0,128
4,37,82,64
4,37,0,128
4,37,114,64
4,37,0,128
4,37,88,64
4,37,0,128
4,37,114,64
4,37,0,128
4,37,82,64
4,37,0,128
4,37,114,64
4,37,0,128
4,37,99,64
4,37,0,128
4,30,114,64
4,30,0,128
4,30,84,64
4,30,0,128
4,30,117,64
4,30,0,128
4,30,82,64
4,30,0,128
4,30,114,64
4,30,0,128
4,30,79,64
4,30,0,128
4,30,117,64
4,30,0,128
4,30,79,64
4,30,0,128
4,35,114,64
4,35,0,128
4,35,88,64
4,35,0,128
4,35,94,64
4,35,0,128
4,35,94,64
4,35,0,128
4,35,99,64
4,35,0,128
4,35,99,64
4,35,0,128
4,35,114,64
4,35,0,128
4,35,88,64
4,35,0,128
4,35,88,64
4,35,0,128
4,35,99,64
4,35,0,128
4,35,88,64
4,35,0,128
4,35,84,64
4,35,0,128
4,35,106,64
4,35,0,128
4,35,88,64
4,35,0,128
4,35,94,64
4,35,0,128
4,35,94,64
4,35,0,128
4,28,114,64
4,28,0,128
4,28,99,64
4,28,0,128
4,28,117,64
4,28,0,128
4,28,94,64
4,28,0,128
4,28,114,64
4,28,0,128
4,28,82,64
4,28,0,128
4,28,114,64
4,28,0,128
4,28,99,64
4,28,0,128
4,28,117,64
4,28,0,128
4,28,84,64
4,28,0,128
4,28,117,64
4,28,0,128
4,28,94,64
4,28,0,128
4,28,106,64
4,28,0,128
4,28,106,64
4,28,0,128
4,35,94,64
4,35,0,192
4,36,88,0
4,36,0,192
4,37,94,0
4,37,0,128
4,37,82,64
4,37,0,128
4,37,106,64
4,37,0,128
4,37,88,64
4,37,0,128
4,37,114,64
4,37,0,128
4,37,84,64
4,37,0,128
4,37,114,64
4,37,0,128
4,37,84,64
4,37,0,128
4,37,117,64
4,37,0,128
4,37,82,64
4,37,0,128
4,37,114,64
4,37,0,128
4,37,88,64
4,37,0,128
4,37,114,64
4,37,0,128
4,37,82,64
4,37,0,128
4,37,114,64
4,37,0,128
4,37,99,64
4,37,0,128
4,42,88,64
4,42,0,576
4,47,82,0
4,47,0,960
4,40,88,0
4,40,0,576
4,42,82,0
4,42,0,960
4,42,88,0
4,42,0,576
4,47,82,0
4,47,0,960
4,40,94,0
4,40,0,576
4,42,94,0
4,42,0,960
4,42,94,0
4,42,0,576
4,47,94,0
4,47,0,960
4,40,88,0
4,40,0,576
4,42,84,0
4,42,0,384
4,47,79,0
4,47,0,192
4,51,79,0
4,51,0,192
4,44,79,0
4,44,0,192
4,42,99,0
4,42,0,576
4,47,99,0
4,47,0,960
4,40,94,0
4,40,0,576
4,42,94,0
4,42,0,960
4,30,117,0
4,30,0,128
4,30,89,64
4,30,0,128
4,30,109,64
4,30,0,128
4,30,101,64
4,30,0,128
4,30,94,64
4,30,0,128
4,30,101,64
4,30,0,128
4,30,117,64
4,30,0,128
4,30,101,64
4,30,0,128
4,30,117,64
4,30,0,128
4,30,77,64
4,30,0,128
4,30,109,64
4,30,0,128
4,30,101,64
4,30,0,128
4,30,89,64
4,30,0,128
4,30,83,64
4,30,0,128
4,30,109,64
4,30,0,128
4,30,109,64
4,30,0,128
4,28,114,64
4,28,0,576
4,32,106,0
4,32,0,576
4,30,94,0
4,30,0,576
4,30,82,0
4,30,0,144
4,30,88,48
4,30,0,144
4,30,77,48
4,30,0,144
4,30,82,48
4,30,0,144
4,30,79,48
4,30,0,144
4,30,99,48
4,30,0,144
4,30,82,48
4,30,0,144
4,28,114,48
4,28,0,576
4,32,106,0
4,32,0,576
4,30,94,0
4,30,0,576
4,30,82,0
4,30,0,144
4,30,88,48
4,30,0,144
4,30,77,48
4,30,0,144
4,30,82,48
4,30,0,144
4,30,79,48
4,30,0,144
4,30,99,48
4,30,0,144
4,30,82,48
4,30,0,144
4,32,91,48
4,32,0,1344
4,34,97,0
4,34,0,768
4,46,80,0
4,46,0,552
4,34,94,0
4,34,0,24
4,35,114,0
4,35,0,128
4,35,88,64
4,35,0,128
4,35,94,64
4,35,0,128
4,35,94,64
4,35,0,128
4,35,99,64
4,35,0,128
4,35,99,64
4,35,0,128
4,35,114,64
4,35,0,128
4,35,88,64
4,35,0,128
4,35,88,64
4,35,0,128
4,35,99,64
4,35,0,128
4,35,88,64
4,35,0,128
4,35,84,64
4,35,0,128
4,35,106,64
4,35,0,128
4,35,88,64
4,35,0,128
4,35,94,64
4,35,0,128
4,35,94,64
4,35,0,128
4,28,114,64
4,28,0,128
4,28,99,64
4,28,0,128
4,28,117,64
4,28,0,128
4,28,94,64
4,28,0,128
4,28,114,64
4,28,0,128
4,28,82,64
4,28,0,128
4,28,114,64
4,28,0,128
4,28,99,64
4,28,0,128
4,28,117,64
4,28,0,128
4,28,84,64
4,28,0,128
4,28,117,64
4,28,0,128
4,28,94,64
4,28,0,128
4,28,106,64
4,28,0,128
4,28,106,64
4,28,0,128
4,35,94,64
4,35,0,192
4,36,88,0
4,36,0,192
4,37,94,0
4,37,0,128
4,37,82,64
4,37,0,128
4,37,106,64
4,37,0,128
4,37,88,64
4,37,0,128
4,37,114,64
4,37,0,128
4,37,84,64
4,37,0,128
4,37,114,64
4,37,0,128
4,37,84,64
4,37,0,128
4,37,117,64
4,37,0,128
4,37,82,64
4,37,0,128
4,37,114,64
4,37,0,128
4,37,88,64
4,37,0,128
4,37,114,64
4,37,0,128
4,37,82,64
4,37,0,128
4,37,114,64
4,37,0,128
4,37,99,64
4,37,0,128
4,30,114,64
4,30,0,128
4,30,84,64
4,30,0,128
4,30,117,64
4,30,0,128
4,30,82,64
4,30,0,128
4,30,114,64
4,30,0,128
4,30,79,64
4,30,0,128
4,30,117,64
4,30,0,128
4,30,79,64
4,30,0,128
4,35,114,64
4,35,0,128
4,35,88,64
4,35,0,128
4,35,94,64
4,35,0,128
4,35,94,64
4,35,0,128
4,35,99,64
4,35,0,128
4,35,99,64
4,35,0,128
4,35,114,64
4,35,0,128
4,35,88,64
4,35,0,128
4,35,88,64
4,35,0,128
4,35,99,64
4,35,0,128
4,35,88,64
4,35,0,128
4,35,84,64
4,35,0,128
4,35,106,64
4,35,0,128
4,35,88,64
4,35,0,128
4,35,94,64
4,35,0,128
4,35,94,64
4,35,0,128
4,28,114,64
4,28,0,128
4,28,99,64
4,28,0,128
4,28,117,64
4,28,0,128
4,28,94,64
4,28,0,128
4,28,114,64
4,28,0,128
4,28,82,64
4,28,0,128
4,28,114,64
4,28,0,128
4,28,99,64
4,28,0,128
4,28,117,64
4,28,0,128
4,28,84,64
4,28,0,128
4,28,117,64
4,28,0,128
4,28,94,64
4,28,0,128
4,28,106,64
4,28,0,128
4,28,106,64
4,28,0,128
4,35,94,64
4,35,0,192
4,36,88,0
4,36,0,192
4,37,94,0
4,37,0,128
4,37,82,64
4,37,0,128
4,37,106,64
4,37,0,128
4,37,88,64
4,37,0,128
4,37,114,64
4,37,0,128
4,37,84,64
4,37,0,128
4,37,114,64
4,37,0,128
4,37,84,64
4,37,0,128
4,37,117,64
4,37,0,128
4,37,82,64
4,37,0,128
4,37,114,64
4,37,0,128
4,37,88,64
4,37,0,128
4,37,114,64
4,37,0,128
4,37,82,64
4,37,0,128
4,37,114,64
4,37,0,128
4,37,99,64
4,37,0,128
4,30,104,64
4,30,0,1536
4,54,83,6144
4,54,0,576
4,47,89,0
4,47,0,960
4,52,101,0
4,52,0,576
4,54,89,0
4,54,0,960
4,30,101,0
4,30,0,576
4,35,109,0
4,35,0,960
4,40,117,0
4,40,0,576
4,42,109,0
4,42,0,960
4,30,105,0
4,30,0,576
4,35,97,0
4,35,0,768
4,28,97,0
4,28,0,144
4,28,97,48
4,28,0,384
4,30,97,0
4,30,0,144
4,30,89,48
4,30,0,864
4,28,114,96
4,28,0,576
4,32,106,0
4,32,0,576
4,30,94,0
4,30,0,576
4,30,82,0
4,30,0,144
4,30,88,48
4,30,0,144
4,30,77,48
4,30,0,144
4,30,82,48
4,30,0,144
4,30,79,48
4,30,0,144
4,30,99,48
4,30,0,144
4,30,82,48
4,30,0,144
4,28,114,48
4,28,0,576
4,32,106,0
4,32,0,576
4,30,94,0
4,30,0,576
4,30,82,0
4,30,0,144
4,30,88,48
4,30,0,144
4,30,77,48
4,30,0,144
4,30,82,48
4,30,0,144
4,30,79,48
4,30,0,144
4,30,99,48
4,30,0,144
4,30,82,48
4,30,0,144
4,32,91,48
4,32,0,1344
4,34,97,0
4,34,0,768
4,46,80,0
4,46,0,552
4,34,94,0
4,34,0,24
4,35,114,0
4,35,0,128
4,35,88,64
4,35,0,128
4,35,94,64
4,35,0,128
4,35,94,64
4,35,0,128
4,35,99,64
4,35,0,128
4,35,99,64
4,35,0,128
4,35,114,64
4,35,0,128
4,35,88,64
4,35,0,128
4,35,88,64
4,35,0,128
4,35,99,64
4,35,0,128
4,35,88,64
4,35,0,128
4,35,84,64
4,35,0,128
4,35,106,64
4,35,0,128
4,35,88,64
4,35,0,128
4,35,94,64
4,35,0,128
4,35,94,64
4,35,0,128
4,28,114,64
4,28,0,128
4,28,99,64
4,28,0,128
4,28,117,64
4,28,0,128
4,28,94,64
4,28,0,128
4,28,114,64
4,28,0,128
4,28,82,64
4,28,0,128
4,28,114,64
4,28,0,128
4,28,99,64
4,28,0,128
4,28,117,64
4,28,0,128
4,28,84,64
4,28,0,128
4,28,117,64
4,28,0,128
4,28,94,64
4,28,0,128
4,28,106,64
4,28,0,128
4,28,106,64
4,28,0,128
4,35,94,64
4,35,0,192
4,36,88,0
4,36,0,192
4,37,94,0
4,37,0,128
4,37,82,64
4,37,0,128
4,37,106,64
4,37,0,128
4,37,88,64
4,37,0,128
4,37,114,64
4,37,0,128
4,37,84,64
4,37,0,128
4,37,114,64
4,37,0,128
4,37,84,64
4,37,0,128
4,37,117,64
4,37,0,128
4,37,82,64
4,37,0,128
4,37,114,64
4,37,0,128
4,37,88,64
4,37,0,128
4,37,114,64
4,37,0,128
4,37,82,64
4,37,0,128
4,37,114,64
4,37,0,128
4,37,99,64
4,37,0,128
4,38,114,64
4,38,0,128
4,38,88,64
4,38,0,128
4,38,94,64
4,38,0,128
4,38,94,64
4,38,0,128
4,38,99,64
4,38,0,128
4,38,99,64
4,38,0,128
4,38,114,64
4,38,0,128
4,38,88,64
4,38,0,128
4,38,88,64
4,38,0,128
4,38,99,64
4,38,0,128
4,38,88,64
4,38,0,128
4,38,84,64
4,38,0,128
4,38,106,64
4,38,0,128
4,38,88,64
4,38,0,128
4,38,94,64
4,38,0,128
4,38,94,64
4,38,0,128
4,31,114,64
4,31,0,128
4,31,99,64
4,31,0,128
4,31,117,64
4,31,0,128
4,31,94,64
4,31,0,128
4,31,114,64
4,31,0,128
4,31,82,64
4,31,0,128
4,31,114,64
4,31,0,128
4,31,99,64
4,31,0,128
4,31,117,64
4,31,0,128
4,31,84,64
4,31,0,128
4,31,117,64
4,31,0,128
4,31,94,64
4,31,0,128
4,31,106,64
4,31,0,128
4,31,106,64
4,31,0,128
4,38,94,64
4,38,0,192
4,39,88,0
4,39,0,192
4,40,94,0
4,40,0,128
4,40,82,64
4,40,0,128
4,40,106,64
4,40,0,128
4,40,88,64
4,40,0,128
4,40,114,64
4,40,0,128
4,40,84,64
4,40,0,128
4,40,114,64
4,40,0,128
4,40,84,64
4,40,0,128
4,40,117,64
4,40,0,128
4,40,82,64
4,40,0,128
4,40,114,64
4,40,0,128
4,40,88,64
4,40,0,128
4,40,114,64
4,40,0,128
4,40,82,64
4,40,0,128
4,40,114,64
4,40,0,128
4,40,99,64
4,40,0,128
4,33,94,64
4,33,0,128
4,33,82,64
4,33,0,128
4,33,106,64
4,33,0,128
4,33,88,64
4,33,0,128
4,33,114,64
4,33,0,128
4,33,84,64
4,33,0,128
4,33,114,64
4,33,0,128
4,33,84,64
4,33,0,128
4,45,117,64
4,45,0,128
4,45,82,64
4,45,0,128
4,45,114,64
4,45,0,128
4,45,88,64
4,45,0,128
4,45,114,64
4,45,0,128
4,45,82,64
4,45,0,128
4,45,114,64
4,45,0,128
4,45,99,64
4,45,0,128
4,38,114,64
4,38,0,128
4,38,88,64
4,38,0,128
4,38,94,64
4,38,0,128
4,38,94,64
4,38,0,128
4,38,99,64
4,38,0,128
4,38,99,64
4,38,0,128
4,38,114,64
4,38,0,128
4,38,88,64
4,38,0,128
4,38,88,64
4,38,0,128
4,38,99,64
4,38,0,128
4,38,88,64
4,38,0,128
4,38,84,64
4,38,0,128
4,38,106,64
4,38,0,128
4,38,88,64
4,38,0,128
