track,note,velocity,time
3,59,127,0
3,58,127,15
3,54,127,0
3,51,127,0
3,59,127,0
3,58,127,35
3,54,127,35
3,51,127,0
3,59,127,0
3,58,127,15
3,54,127,0
3,51,127,0
3,59,127,0
3,58,127,35
3,54,127,35
3,51,127,0
3,59,127,0
3,58,127,35
3,54,127,35
3,51,127,0
3,59,127,0
3,58,127,15
3,54,127,0
3,51,127,0
3,59,127,0
3,58,127,33
3,54,127,35
3,51,127,0
4,30,111,0
4,30,113,0
4,34,109,6
4,34,111,0
4,32,111,9
4,32,107,0
4,27,105,0
4,37,111,0
4,30,111,45
4,30,113,0
4,34,109,6
4,34,111,0
4,32,111,8
4,32,107,0
4,27,105,0
4,37,111,0
4,30,105,48
4,30,107,42
4,30,109,35
4,30,109,46
4,30,104,60
4,30,102,23
4,30,107,27
4,30,99,35
4,30,109,49
4,30,111,50
4,30,109,34
4,30,100,16
4,30,105,63
4,30,107,39
4,30,86,77
4,30,102,30
4,30,102,35
4,30,109,34
4,30,105,52
4,30,111,67
4,35,116,20
4,35,109,35
4,35,111,65
4,35,107,35
4,35,109,86
4,35,102,37
4,35,107,38
4,35,109,57
4,35,113,58
4,35,105,93
4,37,109,12
4,37,116,48
4,37,117,47
4,37,118,19
4,37,111,81
4,37,116,0
4,37,95,21
4,37,113,48
4,37,111,19
4,37,116,66
4,30,104,10
4,30,107,57
4,30,107,54
4,30,107,94
4,30,100,68
4,30,99,65
4,30,94,47
4,30,99,54
4,30,102,50
4,30,100,54
4,34,100,38
4,34,97,31
4,34,98,44
4,34,102,72
4,34,104,77
4,34,88,25
4,34,104,42
4,34,100,41
4,34,94,56
4,34,102,66
4,34,109,84
4,35,94,25
4,35,96,37
4,35,94,56
4,35,99,58
4,35,90,67
4,35,89,41
4,35,95,42
4,35,100,57
4,35,98,69
4,35,106,46
4,35,88,43
4,35,89,23
4,37,118,14
4,37,102,44
4,37,113,66
4,37,97,58
4,37,102,42
4,37,92,41
4,37,109,48
4,37,107,56
4,37,113,41
4,37,109,59
4,37,117,66
4,30,117,25
4,30,109,48
4,30,116,75
4,30,116,82
4,30,107,58
4,30,111,64
4,37,117,40
4,37,111,33
4,37,113,50
4,37,94,58
4,37,116,66
4,37,107,64
4,37,100,31
4,32,113,27
4,32,102,45
4,32,104,73
4,32,83,47
4,32,111,69
4,32,111,63
4,35,105,59
4,35,97,43
4,35,107,83
4,34,86,16
4,35,94,31
4,30,111,104
4,30,107,46
4,30,109,77
4,30,88,44
4,30,107,65
4,30,104,63
4,37,116,41
4,37,109,33
4,37,107,55
4,37,99,50
4,37,109,63
4,37,107,61
4,32,109,60
4,32,98,36
4,32,107,85
4,32,92,58
4,32,90,98
4,32,77,18
4,27,111,33
4,27,91,40
4,27,102,37
4,27,107,52
4,30,117,102
4,30,109,48
4,30,116,75
4,30,116,81
4,30,107,60
4,30,111,66
4,37,117,38
4,37,111,33
4,37,113,50
4,37,94,61
4,37,116,66
4,37,107,65
4,37,100,31
4,32,113,27
4,32,102,45
4,32,104,73
4,32,83,47
4,32,111,69
4,32,111,60
4,35,105,57
4,35,97,41
4,35,107,85
4,34,86,16
4,35,94,31
4,30,111,104
4,30,107,46
4,30,109,79
4,30,88,44
4,30,107,65
4,30,104,61
4,37,116,41
4,37,109,33
4,37,107,57
4,37,99,48
4,37,109,63
4,37,107,58
4,32,109,58
4,32,98,38
4,32,107,87
4,32,92,58
4,32,90,95
4,32,77,18
4,27,111,33
4,27,91,40
4,27,102,37
4,27,107,52
4,30,105,102
4,30,107,42
4,30,109,35
4,30,109,46
4,30,104,60
4,30,102,23
4,30,107,27
4,30,99,35
4,30,109,50
4,30,111,50
4,30,109,34
4,30,100,16
4,30,105,62
4,30,107,39
4,30,86,77
4,30,102,29
4,30,102,35
4,30,109,33
4,30,105,52
4,30,111,67
4,35,116,21
4,35,109,35
4,35,111,65
4,35,107,35
4,35,109,86
4,35,102,37
4,35,107,37
4,35,109,57
4,35,113,56
4,35,105,94
4,37,109,12
4,37,116,48
4,37,117,47
4,37,118,19
4,37,111,81
4,37,116,0
4,37,95,21
4,37,113,48
4,37,111,19
4,37,116,66
4,30,104,12
4,30,107,57
4,30,107,54
4,30,107,94
4,30,100,68
4,30,99,65
4,30,94,47
4,30,99,52
4,30,102,50
4,30,100,54
4,34,100,38
4,34,97,31
4,34,98,44
4,34,102,72
4,34,104,77
4,34,88,25
4,34,104,42
4,34,100,41
4,34,94,56
4,34,102,66
4,34,109,83
4,35,94,24
4,35,96,37
4,35,94,56
4,35,99,58
4,35,90,67
4,35,89,41
4,35,95,42
4,35,100,57
4,35,98,69
4,35,106,46
4,35,88,44
4,35,89,23
4,37,118,14
4,37,102,44
4,37,113,66
4,37,97,58
4,37,102,42
4,37,92,41
4,37,109,48
4,37,107,56
4,37,113,41
4,37,109,58
4,37,117,66
4,30,117,25
4,30,109,48
4,30,116,75
4,30,116,81
4,30,107,58
4,30,111,64
4,37,117,40
4,37,111,34
4,37,113,50
4,37,94,59
4,37,116,66
4,37,107,64
4,37,100,31
4,32,113,29
4,32,102,45
4,32,104,73
4,32,83,47
4,32,111,69
4,32,111,62
4,35,105,59
4,35,97,43
4,35,107,83
4,34,86,16
4,35,94,29
4,30,111,105
4,30,107,46
4,30,109,77
4,30,88,44
4,30,107,65
4,30,104,63
4,37,116,41
4,37,109,33
4,37,107,55
4,37,99,48
4,37,109,63
4,37,107,61
4,32,109,60
4,32,98,36
4,32,107,85
4,32,92,58
4,32,90,98
4,32,77,18
4,27,111,33
4,27,91,40
4,27,102,37
4,27,107,52
4,30,117,102
4,30,109,48
4,30,116,75
4,30,116,81
4,30,107,60
4,30,111,66
4,37,117,38
4,37,111,33
4,37,113,50
4,37,94,61
4,37,116,66
4,37,107,64
4,37,100,31
4,32,113,27
4,32,102,45
4,32,104,73
4,32,83,47
4,32,111,68
4,32,111,60
4,35,105,57
4,35,97,41
4,35,107,85
4,34,86,16
4,35,94,31
4,30,111,105
4,30,107,46
4,30,109,79
4,30,88,43
4,30,107,65
4,30,104,61
4,37,116,41
4,37,109,33
4,37,107,57
4,37,99,48
4,37,109,63
4,37,107,59
4,32,109,58
4,32,98,38
4,32,107,88
4,32,92,58
4,32,90,96
4,32,77,18
4,27,111,33
4,27,91,40
4,27,102,37
4,27,107,52
4,27,83,198
4,27,91,106
4,27,100,86
4,27,97,81
4,27,100,90
4,27,100,91
4,27,99,82
4,27,105,94
4,25,109,102
4,25,102,85
4,25,104,87
4,25,100,96
4,25,98,83
4,25,107,98
4,25,102,93
4,25,107,92
4,27,104,95
4,27,104,94
4,27,100,91
4,27,98,88
4,27,95,87
4,27,100,94
4,27,100,100
4,27,104,84
4,25,109,100
4,25,109,91
4,25,105,89
4,25,100,87
4,25,105,85
4,25,107,89
4,25,105,94
4,25,109,89
4,35,88,106
4,35,88,98
4,35,83,81
4,35,94,77
4,35,92,92
4,35,89,85
4,35,91,77
4,35,92,87
4,37,105,96
4,37,100,89
4,37,105,93
4,37,104,90
4,37,98,95
4,37,100,92
4,37,102,91
4,37,104,96
4,35,94,95
4,35,98,94
4,35,101,93
4,35,102,88
4,32,104,89
4,32,104,94
4,32,105,91
4,32,102,92
4,37,105,102
4,37,104,94
4,37,105,92
4,37,105,91
4,37,104,83
4,37,104,93
4,37,107,77
4,37,109,87
4,30,105,12
4,25,109,0
4,32,99,0
4,35,85,0
4,35,98,0
4,37,100,96
4,30,107,0
4,25,102,0
4,32,90,0
4,27,100,0
4,30,113,0
4,25,107,0
4,32,97,0
4,35,92,0
4,35,105,0
4,37,104,4
4,30,107,192
4,25,105,0
4,32,98,0
4,27,109,0
4,30,117,0
4,30,109,48
4,30,116,75
4,30,116,81
4,30,107,58
4,30,111,64
4,37,117,40
4,37,111,34
4,37,113,50
4,37,94,59
4,37,116,66
4,37,107,62
4,37,100,31
4,32,113,29
4,32,102,45
4,32,104,73
4,32,83,47
4,32,111,68
4,32,111,62
4,35,105,59
4,35,97,43
4,35,107,83
4,34,86,16
4,35,94,29
4,30,111,104
4,30,107,46
4,30,109,77
4,30,88,43
4,30,107,64
4,30,104,63
4,37,116,43
4,37,109,33
4,37,107,54
4,37,99,48
4,37,109,63
4,37,107,61
4,32,109,60
4,32,98,35
4,32,107,86
4,32,92,58
4,32,90,98
4,32,77,18
4,27,111,33
4,27,91,40
4,27,102,37
4,27,107,52
4,30,117,102
4,30,109,48
4,30,116,75
4,30,116,81
4,30,107,61
4,30,111,66
4,37,117,37
4,37,111,34
4,37,113,50
4,37,94,61
4,37,116,66
4,37,107,64
4,37,100,31
4,32,113,27
4,32,102,45
4,32,104,71
4,32,83,48
4,32,111,68
4,32,111,60
4,35,105,59
4,35,97,41
4,35,107,85
4,34,86,16
4,35,94,31
4,30,111,104
4,30,107,46
4,30,109,79
4,30,88,43
4,30,107,65
4,30,104,61
4,37,116,41
4,37,109,31
4,37,107,56
4,37,99,48
4,37,109,63
4,37,107,59
4,32,109,58
4,32,98,37
4,32,107,88
4,32,92,58
4,32,90,96
4,32,77,18
4,27,111,33
4,27,91,40
4,27,102,37
4,27,107,52
4,30,111,100
4,30,91,40
4,30,102,37
4,30,107,52
4,28,111,102
4,28,91,40
4,28,102,37
4,28,107,52
4,26,111,102
4,26,91,39
4,26,102,37
4,26,107,52
4,28,111,102
4,28,91,39
4,28,102,38
4,28,107,50
4,30,116,102
4,30,111,0
4,30,111,17
4,30,111,25
5,73,127,0
5,70,127,0
5,66,127,0
5,73,127,96
5,66,127,0
5,70,127,0
5,73,127,96
5,70,127,0
5,66,127,0
5,73,127,144
5,66,127,0
5,70,127,0
5,66,127,143
5,70,127,0
5,73,127,0
5,73,127,48
5,66,127,0
5,70,127,0
5,73,127,95
5,70,127,0
5,66,127,0
5,70,127,98
5,73,127,0
5,66,127,0
5,70,127,144
5,73,127,0
5,66,127,0
5,73,127,144
5,70,127,0
5,66,127,0
5,70,127,48
5,73,127,0
5,65,127,0
5,73,127,95
5,70,127,0
5,65,127,0
5,70,127,98
5,73,127,0
5,65,127,0
5,73,127,143
5,70,127,0
5,65,127,0
5,73,127,144
5,70,127,0
5,65,127,0
5,70,127,48
5,73,127,0
5,65,127,0
5,70,127,96
5,73,127,0
5,65,127,0
5,70,127,98
5,65,127,0
5,73,127,0
5,65,127,143
5,73,127,0
5,70,127,0
5,65,127,144
5,73,127,0
5,70,127,0
5,66,127,47
5,75,127,0
5,71,127,0
5,75,127,96
5,71,127,0
5,66,127,0
5,66,127,98
5,71,127,0
5,75,127,0
5,71,127,143
5,75,127,0
5,66,127,0
5,75,127,144
5,71,127,0
5,66,127,0
5,71,127,48
5,75,127,0
5,66,127,0
5,71,127,98
5,75,127,0
5,66,127,0
5,75,127,98
5,66,127,0
5,71,127,0
5,75,127,144
5,71,127,0
5,66,127,0
5,71,127,143
5,75,127,0
5,66,127,0
5,68,127,48
5,73,127,0
5,65,127,0
5,68,127,98
5,73,127,0
5,65,127,0
5,68,127,97
5,73,127,0
5,65,127,0
5,73,127,144
5,65,127,0
5,68,127,0
5,73,127,143
5,65,127,0
5,68,127,0
5,65,127,48
5,73,127,0
5,68,127,0
5,73,127,98
5,68,127,0
5,65,127,0
5,68,127,95
5,73,127,0
5,65,127,0
5,73,127,144
5,68,127,0
5,65,127,0
5,65,127,143
5,68,127,0
5,73,127,0
5,78,127,50
5,73,127,0
5,82,127,0
5,78,127,98
5,73,127,0
5,82,127,0
5,82,127,96
5,78,127,0
5,73,127,0
5,82,127,144
5,78,127,0
5,73,127,0
5,82,127,144
5,73,127,0
5,78,127,0
5,73,127,48
5,77,127,0
5,80,127,0
5,73,127,97
5,77,127,0
5,80,127,0
5,73,127,96
5,77,127,0
5,80,127,0
5,77,127,143
5,73,127,0
5,80,127,0
5,77,127,146
5,80,127,0
5,73,127,0
5,75,127,48
5,80,127,0
5,83,127,0
5,80,127,97
5,75,127,0
5,83,127,0
5,83,127,96
5,80,127,0
5,75,127,0
5,75,127,143
5,80,127,0
5,83,127,0
5,80,127,146
5,75,127,0
5,83,127,0
5,83,127,48
5,75,127,0
5,78,127,0
5,75,127,96
5,78,127,0
5,83,127,0
5,75,127,96
5,83,127,0
5,78,127,0
5,75,127,143
5,78,127,0
5,83,127,0
5,75,127,146
5,83,127,0
5,78,127,0
5,82,127,47
5,78,127,0
5,73,127,0
5,78,127,96
5,73,127,0
5,82,127,0
5,78,127,96
5,73,127,0
5,82,127,0
5,82,127,143
5,73,127,0
5,78,127,0
5,82,127,144
5,73,127,0
5,78,127,0
5,73,127,48
5,80,127,0
5,77,127,0
5,73,127,96
5,80,127,0
5,77,127,0
5,77,127,96
5,80,127,0
5,73,127,0
5,73,127,146
5,77,127,0
5,80,127,0
5,77,127,144
5,80,127,0
5,73,127,0
5,80,127,48
5,75,127,0
5,83,127,0
5,83,127,96
5,75,127,0
5,80,127,0
5,80,127,95
5,83,127,0
5,75,127,0
5,80,127,146
5,75,127,0
5,83,127,0
5,75,127,143
5,80,127,0
5,83,127,0
5,78,127,48
5,75,127,0
5,83,127,0
5,78,127,96
5,75,127,0
5,83,127,0
5,83,127,95
5,78,127,0
5,75,127,0
5,78,127,146
5,83,127,0
5,75,127,0
5,75,127,143
5,78,127,0
5,83,127,0
5,82,127,48
5,78,127,0
5,73,127,0
5,82,127,96
5,73,127,0
5,78,127,0
5,82,127,96
5,78,127,0
5,73,127,0
5,82,127,146
5,73,127,0
5,78,127,0
5,82,127,143
5,73,127,0
5,78,127,0
5,80,127,48
5,73,127,0
5,77,127,0
5,77,127,95
5,73,127,0
5,80,127,0
5,73,127,96
5,77,127,0
5,80,127,0
5,80,127,144
5,73,127,0
5,77,127,0
5,80,127,144
5,77,127,0
5,73,127,0
5,80,127,48
5,75,127,0
5,83,127,0
5,75,127,95
5,80,127,0
5,83,127,0
5,75,127,98
5,83,127,0
5,80,127,0
5,83,127,143
5,80,127,0
5,75,127,0
5,75,127,144
5,80,127,0
5,83,127,0
5,83,127,48
5,75,127,0
5,78,127,0
5,75,127,96
5,83,127,0
5,78,127,0
5,75,127,98
5,83,127,0
5,78,127,0
5,83,127,143
5,78,127,0
5,75,127,0
5,78,127,144
5,75,127,0
5,83,127,0
5,73,127,47
5,82,127,0
5,78,127,0
5,78,127,96
5,82,127,0
5,73,127,0
5,78,127,98
5,82,127,0
5,73,127,0
5,82,127,143
5,78,127,0
5,73,127,0
5,73,127,144
5,78,127,0
5,82,127,0
5,73,127,48
5,77,127,0
5,80,127,0
5,80,127,98
5,77,127,0
5,73,127,0
5,77,127,98
5,73,127,0
5,80,127,0
5,77,127,144
5,80,127,0
5,73,127,0
5,77,127,143
5,73,127,0
5,80,127,0
5,80,127,48
5,83,127,0
5,75,127,0
5,75,127,98
5,83,127,0
5,80,127,0
5,80,127,97
5,83,127,0
5,75,127,0
5,80,127,144
5,75,127,0
5,83,127,0
5,83,127,143
5,75,127,0
5,80,127,0
5,83,127,48
5,75,127,0
5,78,127,0
5,75,127,98
5,78,127,0
5,83,127,0
5,78,127,97
5,75,127,0
5,83,127,0
5,83,127,144
5,78,127,0
5,75,127,0
5,73,127,143
5,70,127,0
5,66,127,0
5,75,127,0
5,78,127,0
5,83,127,0
5,73,127,50
5,66,127,0
5,70,127,0
5,66,127,98
5,70,127,0
5,73,127,0
5,73,127,96
5,66,127,0
5,70,127,0
5,66,127,144
5,73,127,0
5,70,127,0
5,70,127,143
5,66,127,0
5,73,127,0
5,73,127,48
5,66,127,0
5,70,127,0
5,66,127,97
5,70,127,0
5,73,127,0
5,70,127,96
5,73,127,0
5,66,127,0
5,70,127,144
5,66,127,0
5,73,127,0
5,70,127,146
5,73,127,0
5,66,127,0
5,70,127,48
5,73,127,0
5,65,127,0
5,70,127,97
5,65,127,0
5,73,127,0
5,70,127,96
5,65,127,0
5,73,127,0
5,70,127,143
5,65,127,0
5,73,127,0
5,70,127,146
5,65,127,0
5,73,127,0
