track,note,velocity,time
1,67,102,1536
1,67,0,167
1,67,102,25
1,67,0,141
1,67,102,51
1,67,0,144
1,67,102,48
1,62,102,96
1,67,0,13
1,65,102,83
1,62,0,2
1,65,0,94
1,65,102,0
1,65,0,160
1,62,102,32
1,62,0,167
1,60,102,25
1,60,0,274
1,67,102,14
1,67,0,162
1,67,102,30
1,67,0,155
1,67,102,37
1,67,0,158
1,67,102,34
1,67,0,170
1,70,102,22
1,70,0,82
1,67,102,14
1,67,0,158
1,65,102,34
1,65,0,224
1,67,102,64
1,67,0,37
1,67,102,59
1,67,0,95
1,65,102,1
1,64,102,96
1,65,0,1
1,64,0,166
1,62,102,25
1,62,0,682
1,67,102,374
1,67,0,79
1,67,102,17
1,67,0,78
1,65,102,18
1,65,0,85
1,64,102,11
1,64,0,156
1,62,102,36
1,62,0,1021
1,67,102,35
1,67,0,83
1,64,102,13
1,64,0,85
1,67,102,11
1,67,0,95
1,67,102,1
1,67,0,95
1,67,102,1
1,67,0,95
1,67,102,1
1,67,0,95
1,69,102,1
1,69,0,157
1,69,102,35
1,69,0,80
1,69,102,16
1,69,0,85
1,65,102,11
1,65,0,87
1,65,102,9
1,65,0,168
1,67,102,24
1,67,0,161
1,64,102,31
1,64,0,79
1,62,102,17
1,62,0,90
1,60,102,6
1,60,0,268
1,67,102,1172
1,67,0,78
1,67,102,18
1,67,0,71
1,65,102,25
1,64,102,96
1,65,0,1
1,64,0,150
1,62,102,41
1,62,0,855
1,67,102,201
1,67,0,80
1,67,102,16
1,67,0,81
1,65,102,15
1,64,102,96
1,65,0,1
1,64,0,165
1,62,102,26
1,62,0,1019
1,67,102,37
1,64,102,96
1,67,0,1
1,64,0,71
1,67,102,24
1,67,0,150
1,67,102,42
1,67,102,96
1,67,0,47
1,67,0,49
1,69,102,0
1,69,0,140
1,69,102,52
1,69,0,64
1,69,102,32
1,69,0,85
1,65,102,11
1,65,0,64
1,65,102,32
1,65,0,182
1,67,102,10
1,67,0,166
1,64,102,26
1,64,0,86
1,62,102,10
1,60,102,96
1,62,0,18
1,60,0,354
1,64,96,972
1,64,0,64
1,64,96,32
1,64,0,79
1,60,96,17
1,60,0,70
1,67,96,26
1,67,0,88
1,64,96,8
1,64,0,88
1,62,96,8
1,62,0,82
1,60,96,14
1,60,0,278
1,60,96,394
1,60,0,183
1,62,96,9
1,62,0,167
1,63,96,25
1,63,0,148
1,64,96,44
1,64,0,272
1,64,96,16
1,64,0,322
1,64,96,62
1,64,0,69
1,68,96,27
1,64,96,96
1,68,0,1
1,64,0,160
1,62,96,31
1,62,0,176
1,64,96,16
1,64,0,185
1,64,96,7
1,64,0,86
1,67,96,10
1,69,96,0
1,67,0,29
1,69,0,145
1,64,96,18
1,64,0,167
1,62,96,25
1,60,96,96
1,62,0,10
1,60,0,182
1,57,96,0
1,57,0,828
1,62,96,36
1,62,0,265
1,62,96,23
1,62,0,271
1,64,96,17
1,64,0,80
1,62,96,16
1,62,0,77
1,69,96,19
1,66,96,96
1,69,0,11
1,66,0,157
1,64,96,24
1,64,0,159
1,62,96,33
1,62,0,150
1,62,96,42
1,62,0,69
1,67,96,27
1,67,0,121
1,67,96,71
1,67,0,116
1,69,96,76
1,71,96,96
1,69,0,11
1,71,0,138
1,67,96,43
1,67,96,576
1,67,0,47
1,67,96,49
1,67,0,95
1,67,96,1
1,67,0,95
1,65,102,1
1,64,102,96
1,65,0,1
1,64,0,166
1,67,0,25
1,62,102,0
1,62,0,682
1,67,102,374
1,67,0,79
1,67,102,17
1,67,0,78
1,65,102,18
1,65,0,85
1,64,102,11
1,64,0,156
1,62,102,36
1,62,0,1021
1,67,102,35
1,67,0,83
1,64,102,13
1,64,0,85
1,67,102,11
1,67,0,95
1,67,102,1
1,67,0,95
1,67,102,1
1,67,0,95
1,67,102,1
1,67,0,95
1,69,102,1
1,69,0,157
1,69,102,35
1,69,0,80
1,69,102,16
1,69,0,85
1,65,102,11
1,65,0,87
1,65,102,9
1,65,0,168
1,67,102,24
1,67,0,161
1,64,102,31
1,64,0,79
1,62,102,17
1,62,0,90
1,60,102,6
1,60,0,268
1,67,102,1172
1,67,0,78
1,67,102,18
1,67,0,71
1,65,102,25
1,64,102,96
1,65,0,1
1,64,0,150
1,62,102,41
1,62,0,855
1,67,102,201
1,67,0,80
1,67,102,16
1,67,0,81
1,65,102,15
1,64,102,96
1,65,0,1
1,64,0,165
1,62,102,26
1,62,0,1019
1,67,102,37
1,64,102,96
1,67,0,1
1,64,0,71
1,67,102,24
1,67,0,150
1,67,102,42
1,67,102,96
1,67,0,47
1,67,0,49
1,69,102,0
1,69,0,140
1,69,102,52
1,69,0,64
1,69,102,32
1,69,0,85
1,65,102,11
1,65,0,64
1,65,102,32
1,65,0,182
1,67,102,10
1,67,0,166
1,64,102,26
1,64,0,86
1,62,102,10
1,60,102,96
1,62,0,18
1,60,0,354
1,64,96,972
1,64,0,64
1,64,96,32
1,64,0,79
1,60,96,17
1,60,0,70
1,67,96,26
1,67,0,88
1,64,96,8
1,64,0,88
1,62,96,8
1,62,0,82
1,60,96,14
1,60,0,278
1,67,102,682
1,67,0,36
1,67,102,60
1,67,0,35
1,67,102,61
1,67,0,44
1,65,102,52
1,65,0,30
1,64,102,66
1,64,0,130
1,62,102,62
1,62,0,910
1,67,102,50
1,67,0,43
1,67,102,53
1,67,0,44
1,67,102,52
1,67,0,50
1,64,102,46
1,64,0,45
1,62,102,51
1,62,0,130
1,60,102,62
1,60,0,1228
1,65,102,20
1,64,102,96
1,65,0,10
1,62,102,86
1,64,0,29
1,62,0,57
1,67,102,10
1,67,0,183
1,55,102,9
1,55,0,84
1,57,102,12
1,55,102,96
1,57,0,25
1,55,0,62
1,65,102,9
1,64,102,96
1,65,0,24
1,62,102,72
1,64,0,8
1,67,102,88
1,62,0,10
1,67,0,461
1,60,102,9
1,60,0,746
1,60,96,214
1,60,0,183
1,62,96,9
1,62,0,167
1,63,96,25
1,63,0,148
1,64,96,44
1,64,0,272
1,64,96,16
1,64,0,322
1,64,96,62
1,64,0,69
1,68,96,27
1,64,96,96
1,68,0,1
1,64,0,160
1,62,96,31
1,62,0,176
1,64,96,16
1,64,0,185
1,64,96,7
1,64,0,86
1,67,96,10
1,69,96,0
1,67,0,29
1,69,0,145
1,64,96,18
1,64,0,167
1,62,96,25
1,60,96,96
1,62,0,10
1,60,0,182
1,57,96,0
1,57,0,828
1,62,96,36
1,62,0,265
1,62,96,23
1,62,0,271
1,64,96,17
1,64,0,80
1,62,96,16
1,62,0,77
1,69,96,19
1,66,96,96
1,69,0,11
1,66,0,157
1,64,96,24
1,64,0,159
1,62,96,33
1,62,0,150
1,62,96,42
1,62,0,69
1,67,96,27
1,67,0,121
1,67,96,71
1,67,0,116
1,69,96,76
1,71,96,96
1,69,0,11
1,71,0,138
1,67,96,43
1,67,96,576
1,67,0,47
1,67,96,49
1,67,0,95
1,67,96,1
1,67,0,95
1,65,102,1
1,64,102,96
1,65,0,1
1,64,0,166
1,67,0,25
1,62,102,0
1,62,0,682
1,67,102,374
1,67,0,79
1,67,102,17
1,67,0,78
1,65,102,18
1,65,0,85
1,64,102,11
1,64,0,156
1,62,102,36
1,62,0,1021
1,67,102,35
1,67,0,83
1,64,102,13
1,64,0,85
1,67,102,11
1,67,0,95
1,67,102,1
1,67,0,95
1,67,102,1
1,67,0,95
1,67,102,1
1,67,0,95
1,69,102,1
1,69,0,157
1,69,102,35
1,69,0,80
1,69,102,16
1,69,0,85
1,65,102,11
1,65,0,87
1,65,102,9
1,65,0,168
1,67,102,24
1,67,0,161
1,64,102,31
1,64,0,79
1,62,102,17
1,62,0,90
1,60,102,6
1,60,0,268
1,67,102,1172
1,67,0,83
1,64,102,13
1,64,0,85
1,67,102,11
1,67,0,95
1,67,102,1
1,67,0,95
1,67,102,1
1,67,0,95
1,67,102,1
1,67,0,95
1,69,102,1
1,69,0,157
1,69,102,35
1,69,0,80
1,69,102,16
1,69,0,85
1,65,102,11
1,65,0,87
1,65,102,9
1,65,0,168
1,67,102,24
1,67,0,161
1,64,102,31
1,64,0,79
1,62,102,17
1,62,0,90
1,60,102,6
1,60,0,268
1,67,102,1172
1,67,0,83
1,64,102,13
1,64,0,85
1,67,102,11
1,67,0,95
1,67,102,1
1,67,0,95
1,67,102,1
1,67,0,95
1,67,102,1
1,67,0,95
1,69,102,1
1,69,0,157
1,69,102,35
1,69,0,80
1,69,102,16
1,69,0,85
1,65,102,11
1,65,0,87
1,65,102,9
1,65,0,168
1,67,102,24
1,67,0,161
1,64,102,31
1,64,0,79
1,62,102,17
1,62,0,90
1,60,102,6
1,60,0,268
1,67,102,1172
1,67,0,83
1,64,102,13
1,64,0,85
1,67,102,11
1,67,0,95
1,67,102,1
1,67,0,95
1,67,102,1
1,67,0,95
1,67,102,1
1,67,0,95
1,69,102,1
1,69,0,157
1,69,102,35
1,69,0,80
1,69,102,16
1,69,0,85
1,65,102,11
1,65,0,87
1,65,102,9
1,65,0,168
1,67,102,24
1,67,0,161
1,64,102,31
1,64,0,79
1,62,102,17
1,62,0,90
1,60,102,6
1,60,0,268
2,55,127,1536
2,67,127,0
2,71,127,0
2,74,127,0
2,67,0,90
2,71,0,6
2,74,0,9
2,55,0,14
2,55,127,457
2,67,127,0
2,71,127,0
2,74,127,0
2,67,0,129
2,71,0,7
2,74,0,1
2,55,0,5
2,53,127,50
2,65,127,0
2,69,127,0
2,72,127,0
2,65,0,133
2,69,0,1
2,72,0,10
2,53,0,3
2,53,127,429
2,65,127,0
2,69,127,0
2,72,127,0
2,65,0,100
2,69,0,9
2,53,0,4
2,72,0,4
2,55,127,75
2,67,127,0
2,71,127,0
2,74,127,0
2,67,0,91
2,71,0,6
2,74,0,5
2,55,0,1
2,55,127,473
2,67,127,0
2,71,127,0
2,74,127,0
2,67,0,121
2,55,0,6
2,71,0,1
2,74,0,1
2,55,127,63
2,67,127,0
2,71,127,0
2,74,127,0
2,71,0,136
2,74,0,1
2,67,0,0
2,55,0,5
2,50,79,626
2,50,0,3058
2,48,79,14
2,57,79,384
2,48,0,21
2,57,0,352
2,53,79,11
2,53,0,371
2,55,79,13
2,55,0,382
2,48,79,2
2,48,0,302
2,50,79,1234
2,50,0,1481
2,50,79,55
2,48,79,1536
2,50,0,92
2,48,0,271
2,57,79,21
2,57,0,383
2,53,79,1
2,55,79,384
2,53,0,8
2,55,0,373
2,48,79,3
2,48,0,415
2,60,79,1505
2,65,79,0
2,69,79,0
2,60,0,82
2,65,0,7
2,69,0,1
2,60,79,6
2,65,79,0
2,69,79,0
2,65,0,151
2,60,0,1
2,69,0,3
2,60,79,37
2,64,79,0
2,67,79,0
2,67,0,842
2,64,0,4
2,60,0,4
2,40,79,14
2,40,0,1518
2,45,79,18
2,45,0,1529
2,38,79,7
2,38,0,1519
2,74,79,17
2,79,79,0
2,83,79,0
2,74,0,115
2,79,0,2
2,83,0,2
2,50,79,1417
2,50,0,3058
2,48,79,14
2,57,79,384
2,48,0,21
2,57,0,352
2,53,79,11
2,53,0,371
2,55,79,13
2,55,0,382
2,48,79,2
2,48,0,302
2,50,79,1234
2,50,0,1481
2,50,79,55
2,48,79,1536
2,50,0,92
2,48,0,271
2,57,79,21
2,57,0,383
2,53,79,1
2,55,79,384
2,53,0,8
2,55,0,373
2,48,79,3
2,48,0,415
2,60,127,1505
2,65,127,0
2,69,127,0
2,60,0,37
2,65,0,7
2,69,0,1
2,60,127,51
2,65,127,0
2,69,127,0
2,65,0,122
2,60,0,1
2,69,0,3
2,62,127,66
2,67,127,0
2,71,127,0
2,62,0,324
2,67,0,1
2,71,0,8
2,38,79,531
2,50,79,0
2,38,0,1519
2,50,0,17
2,36,79,0
2,48,79,0
2,36,0,1534
2,38,79,2
2,50,79,0
2,48,0,7
2,38,0,360
2,43,79,17
2,55,79,0
2,50,0,3
2,38,79,381
2,50,79,0
2,43,0,3
2,55,0,9
2,50,0,363
2,43,79,9
2,55,79,0
2,38,0,11
2,43,0,360
2,55,0,12
2,36,79,1
2,48,79,0
2,48,0,1432
2,36,0,7
2,40,79,97
2,40,0,1518
2,45,79,18
2,45,0,1529
2,38,79,7
2,38,0,1519
2,74,79,17
2,79,79,0
2,83,79,0
2,74,0,115
2,79,0,2
2,83,0,2
2,50,79,1417
2,50,0,3058
2,48,79,14
2,57,79,384
2,48,0,21
2,57,0,352
2,53,79,11
2,53,0,371
2,55,79,13
2,55,0,382
2,48,79,2
2,60,79,192
2,64,79,0
2,67,79,0
2,60,0,56
2,67,0,12
2,64,0,4
2,48,0,38
2,60,79,82
2,65,79,0
2,69,79,0
2,65,0,73
2,60,0,1
2,69,0,12
2,60,79,10
2,65,79,0
2,69,79,0
2,65,0,115
2,60,0,1
2,69,0,4
2,62,79,72
2,67,79,0
2,71,79,0
2,67,0,106
2,62,0,0
2,71,0,10
2,48,79,748
2,57,79,384
2,48,0,21
2,57,0,352
2,53,79,11
2,53,0,371
2,55,79,13
2,55,0,382
2,48,79,2
2,60,79,192
2,64,79,0
2,67,79,0
2,60,0,83
2,64,0,7
2,67,0,2
2,48,0,18
2,60,79,82
2,65,79,0
2,69,79,0
2,60,0,81
2,65,0,8
2,69,0,5
2,60,79,2
2,65,79,0
2,69,79,0
2,60,0,101
2,65,0,8
2,69,0,1
2,62,79,82
2,67,79,0
2,71,79,0
2,67,0,170
2,62,0,8
2,71,0,1
2,48,79,685
2,57,79,384
2,48,0,21
2,57,0,352
2,53,79,11
2,53,0,371
2,55,79,13
2,55,0,382
2,48,79,2
2,60,79,192
2,64,79,0
2,67,79,0
2,60,0,72
2,64,0,8
2,67,0,2
2,48,0,28
2,60,79,82
2,65,79,0
2,69,79,0
2,60,0,83
2,65,0,8
2,69,0,1
2,60,79,4
2,65,79,0
2,69,79,0
2,60,0,106
2,65,0,8
2,69,0,1
2,62,79,77
2,67,79,0
2,71,79,0
2,67,0,167
2,62,0,9
2,71,0,9
2,48,79,679
2,57,79,384
2,48,0,21
2,57,0,352
2,53,79,11
2,53,0,371
2,55,79,13
2,55,0,382
2,48,79,2
2,60,79,192
2,64,79,0
2,67,79,0
2,60,0,71
2,64,0,2
2,67,0,2
2,48,0,35
2,60,79,82
2,65,79,0
2,69,79,0
2,65,0,83
2,69,0,2
2,60,0,0
2,60,79,11
2,65,79,0
2,69,79,0
2,60,0,87
2,65,0,10
2,69,0,1
2,62,79,94
2,67,79,0
2,71,79,0
2,62,0,96
2,48,79,0
2,67,0,1
2,71,0,2
2,48,0,380
2,67,79,385
2,72,79,0
2,76,79,0
2,67,0,194
2,76,0,3
2,72,0,1
3,60,88,17280
3,65,88,0
3,69,88,0
3,60,0,75
3,65,0,15
3,69,0,2
3,60,88,4
3,65,88,0
3,69,88,0
3,65,0,133
3,69,0,1
3,60,0,0
3,60,88,58
3,64,88,0
3,67,88,0
3,60,0,237
3,64,0,17
3,67,0,1
3,60,88,33
3,60,0,172
3,62,88,20
3,62,0,176
3,63,88,16
3,63,0,168
3,64,88,24
3,68,88,384
3,64,0,361
3,68,0,7
3,64,88,16
3,68,88,0
3,71,88,0
3,71,0,708
3,68,0,1
3,64,0,15
3,57,88,44
3,60,88,384
3,60,0,367
3,57,0,8
3,57,88,9
3,60,88,0
3,64,88,0
3,57,0,710
3,60,0,24
3,64,0,18
3,62,88,16
3,66,88,384
3,66,0,358
3,62,0,2
3,62,88,24
3,66,88,0
3,69,88,0
3,69,0,735
3,62,0,0
3,66,0,9
3,62,88,24
3,67,88,0
3,71,88,0
3,62,0,132
3,71,0,1
3,67,0,1
3,79,88,15802
3,79,0,45
3,79,88,51
3,79,0,50
3,77,88,46
3,77,0,45
3,76,88,51
3,76,0,155
3,74,88,37
3,74,0,380
3,72,88,676
3,72,0,80
3,74,88,16
3,76,88,96
3,74,0,6
3,74,88,90
3,76,0,9
3,74,0,77
3,72,88,10
3,72,0,90
3,79,88,6
3,79,0,430
3,74,25,50
3,77,25,0
3,81,25,0
3,77,0,22
