track,note,velocity,time
3,60,56,0
3,60,0,54
3,60,55,0
3,60,0,56
3,60,51,0
3,60,0,53
3,60,51,139
3,60,0,51
3,65,54,238
3,65,0,18
3,58,49,0
3,58,0,68
3,64,55,0
3,64,0,58
3,60,52,0
3,60,0,49
3,65,53,47
3,65,0,160
3,65,48,0
3,65,0,164
3,65,53,27
3,65,0,145
3,57,51,47
3,57,0,4
3,58,53,0
3,58,0,54
3,64,50,0
3,64,0,109
3,65,47,0
3,65,0,191
3,58,51,0
3,58,0,250
3,64,49,0
3,64,0,49
3,60,51,0
3,60,0,49
3,65,48,0
3,65,0,195
3,65,56,0
3,65,0,166
3,65,50,26
3,65,0,144
3,57,48,47
3,57,0,4
3,58,56,0
3,58,0,125
3,64,48,0
3,64,0,245
3,62,54,0
3,62,0,248
3,55,56,0
3,55,0,385
3,62,55,0
3,62,0,157
3,62,55,34
3,62,0,129
3,60,47,62
3,60,0,218
3,62,51,0
3,60,47,94
3,62,0,18
3,55,50,79
3,60,0,18
3,57,47,79
3,55,0,28
3,57,0,215
3,65,50,0
3,62,55,0
3,65,0,26
3,62,0,123
3,65,49,0
3,65,0,384
3,62,48,0
3,62,0,97
3,60,55,0
3,60,0,249
3,61,54,0
3,61,0,212
3,62,53,0
3,62,0,4
3,58,49,0
3,58,0,4
3,64,52,0
3,64,0,49
3,60,49,0
3,60,0,48
3,65,50,46
3,65,0,190
3,65,52,0
3,65,0,165
3,65,47,26
3,65,0,145
3,57,53,0
3,57,0,4
3,58,53,0
3,58,0,122
3,64,48,0
3,64,0,4
3,64,53,0
3,64,0,4
3,62,54,0
3,62,0,247
3,58,56,0
3,58,0,248
3,64,54,0
3,64,0,48
3,60,49,0
3,60,0,50
3,65,54,47
3,65,0,190
3,65,49,0
3,65,0,165
3,65,50,26
3,65,0,145
3,57,54,49
3,57,0,248
3,58,53,0
3,58,0,179
3,64,56,0
3,64,0,4
3,64,54,0
3,64,0,2
3,62,48,0
3,62,0,4
3,65,55,0
3,65,0,383
3,62,56,0
3,62,0,194
3,65,54,0
3,65,0,158
3,64,49,34
3,64,0,125
3,65,55,0
3,65,0,202
3,62,56,0
3,62,0,192
3,58,51,0
3,58,0,248
3,60,48,0
3,60,0,193
3,62,53,0
3,62,0,85
3,62,56,10
3,62,0,81
3,62,47,113
3,62,0,116
3,62,52,75
3,62,0,40
3,62,47,57
3,62,0,108
3,64,50,83
3,64,0,191
3,60,48,0
3,60,0,250
3,66,51,0
3,66,0,48
3,62,51,0
3,62,0,48
3,67,54,47
3,67,0,99
3,67,56,0
3,67,0,166
3,67,52,25
3,67,0,145
3,59,48,47
3,59,0,4
3,60,56,0
3,60,0,189
3,66,48,0
3,66,0,65
3,66,53,0
3,66,0,4
3,64,55,0
3,64,0,67
3,60,50,0
3,60,0,1
3,66,49,0
3,66,0,123
3,62,48,0
3,62,0,49
3,67,54,45
3,67,0,196
3,67,49,0
3,67,0,166
3,67,54,25
3,67,0,145
3,59,49,49
3,59,0,57
3,60,49,0
3,60,0,180
3,66,49,0
3,66,0,4
3,66,48,0
3,66,0,2
3,64,56,0
3,64,0,56
3,60,50,0
3,60,0,250
3,66,56,0
3,66,0,48
3,62,52,0
3,62,0,48
3,67,47,47
3,67,0,93
3,67,49,0
3,67,0,165
3,67,51,28
3,67,0,143
3,59,54,49
3,59,0,248
3,60,48,0
3,60,0,179
3,66,52,0
3,66,0,248
3,66,52,0
3,66,0,248
3,64,50,0
3,64,0,248
3,60,55,0
3,60,0,249
3,66,49,0
3,66,0,49
3,62,47,0
3,62,0,48
3,67,53,46
3,67,0,162
3,67,47,0
3,67,0,164
3,67,52,28
3,67,0,144
3,59,53,47
3,59,0,2
3,60,53,0
3,60,0,251
3,66,51,0
3,66,0,4
3,66,51,0
3,66,0,65
3,64,56,0
3,64,0,4
3,60,51,0
3,60,0,4
3,66,50,0
3,66,0,57
3,62,50,0
3,62,0,49
3,67,56,48
3,67,0,98
3,67,48,0
3,67,0,164
3,67,52,28
3,67,0,144
3,59,51,47
3,59,0,2
3,60,47,0
3,60,0,190
3,66,51,0
3,66,0,4
3,66,50,0
3,66,0,48
4,31,113,0
4,34,108,48
4,31,0,16
4,36,106,33
4,34,0,17
4,36,0,58
4,36,111,20
4,36,0,81
4,36,114,110
4,36,0,76
4,31,109,21
4,34,108,49
4,31,0,8
4,36,109,38
4,34,0,6
4,36,0,76
4,43,111,15
4,46,109,49
4,43,0,11
4,48,112,35
4,46,0,10
4,51,114,39
4,48,0,4
4,38,112,44
4,51,0,2
4,38,0,169
4,26,107,21
4,26,0,109
4,26,113,34
4,26,0,12
4,33,114,37
4,33,0,89
4,36,107,8
4,36,0,44
4,37,110,2
4,38,105,49
4,37,0,2
4,38,0,85
4,33,105,10
4,26,113,46
4,33,0,4
4,26,0,45
4,31,114,0
4,31,0,104
4,31,105,87
4,31,0,91
4,31,111,54
4,31,0,39
4,38,110,8
4,38,0,97
4,43,109,0
4,38,112,97
4,43,0,8
4,37,107,87
4,38,0,6
4,37,0,81
4,36,111,10
4,36,0,160
4,36,114,31
4,36,0,111
4,36,106,33
4,36,0,44
4,31,105,4
4,31,0,97
4,36,112,0
4,36,0,95
4,31,113,0
4,31,0,96
4,36,112,0
4,36,0,76
4,29,108,19
4,29,0,149
4,29,109,45
4,29,0,124
4,29,105,18
4,29,0,10
4,29,110,40
4,29,0,65
4,29,114,30
4,29,0,96
4,28,109,0
4,28,0,71
4,28,109,24
4,28,0,79
4,38,107,18
4,38,0,170
4,26,107,22
4,26,0,108
4,26,110,36
4,26,0,12
4,33,107,35
4,33,0,89
4,36,106,8
4,36,0,46
4,37,114,2
4,38,110,47
4,37,0,4
4,38,0,85
4,33,113,8
4,26,108,47
4,33,0,4
4,26,0,46
4,31,110,0
4,31,0,103
4,31,106,88
4,31,0,91
4,31,107,54
4,31,0,37
4,38,114,10
4,38,0,97
4,43,111,0
4,38,109,95
4,43,0,10
4,37,112,86
4,38,0,4
4,37,0,83
4,36,111,10
4,36,0,161
4,36,113,30
4,36,0,111
4,36,110,32
4,36,0,45
4,31,114,4
4,31,0,96
4,36,112,0
4,36,0,97
4,31,108,0
4,31,0,95
4,36,105,0
4,36,0,74
4,33,110,22
4,45,105,97
4,33,0,8
4,45,0,56
4,40,108,31
4,40,0,16
4,43,105,32
4,43,0,18
4,44,110,30
4,44,0,12
4,45,113,37
4,45,0,12
4,33,111,34
4,33,0,91
4,45,105,6
4,45,0,36
4,45,107,12
4,45,0,38
4,45,105,10
4,45,0,19
4,45,111,30
4,45,0,2
4,45,111,44
4,45,0,81
4,26,110,16
4,26,0,167
4,26,112,24
4,26,0,129
4,26,107,16
4,26,0,12
4,33,111,36
4,38,106,95
4,33,0,10
4,33,110,87
4,38,0,8
4,38,111,89
4,33,0,12
4,38,0,82
4,31,113,0
4,31,0,163
4,31,106,31
4,31,0,96
4,31,109,47
4,31,0,12
4,38,106,36
4,38,0,91
4,43,110,6
4,43,0,94
4,38,105,0
4,37,108,97
4,38,0,8
4,36,108,89
4,37,0,6
4,36,0,139
4,36,106,46
4,36,0,103
4,36,112,40
4,36,0,12
4,31,108,36
4,31,0,97
4,36,112,0
4,36,0,83
4,31,110,14
4,31,0,83
4,36,112,12
4,36,0,83
4,29,114,13
4,29,0,151
4,29,111,41
4,29,0,103
4,29,113,41
4,29,0,119
4,41,105,26
4,41,0,43
4,41,109,4
4,41,0,14
4,28,105,34
4,28,0,96
4,40,108,0
4,40,0,83
4,26,105,12
4,26,0,152
4,26,109,42
4,26,0,107
4,26,109,35
4,26,0,12
4,33,109,38
4,33,0,88
4,36,114,6
4,36,0,46
4,37,111,4
4,38,107,47
4,37,0,2
4,38,0,85
4,33,105,8
4,26,107,50
4,33,0,1
4,26,0,46
4,31,114,0
4,31,0,103
4,31,107,89
4,31,0,91
4,31,109,53
4,31,0,37
4,38,114,10
4,38,0,97
4,43,105,0
4,38,114,95
4,43,0,10
4,37,108,87
4,38,0,4
4,37,0,83
4,36,113,10
4,36,0,160
4,36,109,31
4,36,0,111
4,36,114,34
4,36,0,43
4,31,106,4
4,31,0,97
4,36,106,0
4,36,0,95
4,31,110,0
4,31,0,97
4,36,111,0
4,36,0,75
4,33,114,19
4,45,113,97
4,33,0,8
4,45,0,57
4,40,109,30
4,40,0,16
4,43,111,34
4,43,0,17
4,44,111,30
4,44,0,12
4,45,111,35
4,45,0,12
4,33,105,38
4,33,0,89
4,45,110,6
4,45,0,35
4,45,106,12
4,45,0,40
4,45,111,9
4,45,0,18
4,45,113,30
4,45,0,2
4,45,112,45
4,45,0,81
4,26,106,16
4,26,0,170
4,26,112,22
4,26,0,109
4,26,106,35
4,26,0,12
4,33,113,36
4,33,0,5
4,33,111,44
4,33,0,2
4,38,109,45
4,38,0,87
4,33,109,8
4,33,0,81
4,38,109,16
4,38,0,77
4,31,109,20
4,31,0,103
4,31,112,89
4,31,0,91
4,31,110,53
4,31,0,37
4,38,107,10
4,38,0,95
4,43,107,0
4,38,112,97
4,43,0,10
4,37,109,87
4,38,0,4
4,37,0,83
4,36,114,8
4,36,0,161
4,36,109,30
4,36,0,113
4,36,108,32
4,36,0,44
4,31,107,4
4,31,0,95
4,36,110,0
4,36,0,97
4,31,109,0
4,31,0,96
4,36,112,0
4,36,0,75
4,29,108,20
4,29,0,149
4,29,108,44
4,29,0,125
4,29,105,19
4,29,0,8
4,29,111,40
4,29,0,64
4,29,107,33
4,29,0,94
4,28,107,0
4,28,0,73
4,28,114,24
4,28,0,78
4,38,109,19
4,38,0,171
4,26,114,20
4,26,0,109
4,26,105,36
4,26,0,10
4,33,112,36
4,33,0,91
4,36,106,6
4,36,0,46
4,37,107,2
4,38,109,49
4,37,0,2
4,38,0,84
4,33,111,8
4,26,111,49
4,33,0,4
4,26,0,44
4,31,110,0
4,31,0,103
4,31,110,88
4,31,0,91
4,31,106,54
4,31,0,39
4,38,114,10
4,38,0,94
4,43,111,0
4,38,106,97
4,43,0,10
4,37,108,87
4,38,0,4
4,37,0,82
4,36,111,8
4,36,0,162
4,36,105,32
4,36,0,111
4,36,110,32
4,36,0,44
4,31,112,4
4,31,0,97
4,36,110,0
4,36,0,95
4,31,108,0
4,31,0,96
4,36,107,0
4,36,0,75
4,29,110,22
4,29,0,97
4,29,113,94
4,29,0,95
4,29,114,48
4,29,0,10
4,29,113,39
4,41,114,96
4,29,0,6
4,28,113,91
4,41,0,12
4,40,106,83
4,28,0,10
4,40,0,86
4,26,108,0
4,26,0,151
4,26,108,41
4,26,0,153
4,33,108,38
4,33,0,97
4,38,108,0
4,38,0,191
4,33,112,0
4,33,0,85
4,31,113,12
4,31,0,141
4,31,112,50
4,31,0,111
4,31,107,34
4,31,0,45
4,38,105,4
4,38,0,94
4,43,126,0
4,43,0,194
4,38,108,0
4,38,0,94
4,36,114,0
4,36,0,133
4,36,113,61
4,36,0,100
4,36,112,43
4,36,0,16
4,31,107,32
4,31,0,91
4,38,110,6
4,36,106,94
4,38,0,12
4,36,0,81
4,28,105,4
4,28,0,87
4,29,114,10
4,29,0,161
4,29,106,30
4,29,0,119
4,29,113,24
4,29,0,16
4,29,109,32
4,29,0,168
4,28,111,26
4,28,0,169
4,26,106,22
4,26,0,171
4,26,108,21
4,26,0,114
4,26,114,31
4,26,0,14
4,33,114,34
4,38,106,95
4,33,0,10
4,38,0,183
4,33,108,0
4,33,0,83
4,31,109,12
4,31,0,135
4,31,113,10
4,31,0,14
4,38,109,34
4,38,0,133
4,38,106,10
4,38,0,12
4,43,121,36
4,43,0,113
4,43,127,30
4,43,0,10
4,38,112,39
4,38,0,84
4,37,111,12
4,37,0,79
4,36,106,16
4,36,0,149
4,36,114,44
4,36,0,115
4,36,108,28
4,36,0,13
4,31,107,36
4,31,0,88
4,38,106,8
4,38,0,25
4,38,111,24
4,38,0,28
4,36,106,18
4,36,0,87
4,31,111,10
4,31,0,80
4,33,106,16
4,45,120,95
4,33,0,6
4,45,0,77
4,45,123,14
4,45,0,14
4,45,122,34
4,45,0,17
4,43,122,30
4,43,0,6
4,45,125,43
4,45,0,109
4,57,127,36
4,57,0,95
4,57,127,0
4,57,0,15
4,57,125,34
4,57,0,4
4,57,127,43
4,57,0,81
4,26,113,14
4,26,0,172
4,26,108,22
4,26,0,107
4,26,114,35
4,26,0,12
4,33,105,38
4,33,0,89
4,36,110,5
4,36,0,46
4,37,114,4
4,38,105,47
4,37,0,2
4,38,0,85
4,33,106,8
4,26,110,50
4,33,0,2
4,26,0,45
4,31,107,0
4,31,0,103
4,31,105,89
4,31,0,91
4,31,105,53
4,31,0,37
4,38,107,10
4,38,0,97
4,43,121,0
4,38,106,95
4,43,0,10
4,37,114,87
4,38,0,4
4,37,0,83
4,36,105,10
4,36,0,161
4,36,109,30
4,36,0,111
4,36,105,32
4,36,0,44
4,31,111,4
4,31,0,97
4,36,108,0
4,36,0,97
4,31,108,0
4,31,0,94
4,36,111,0
4,36,0,75
4,29,113,22
4,29,0,147
4,29,105,45
4,29,0,124
4,29,107,21
4,29,0,8
4,29,114,40
4,29,0,64
4,29,109,31
4,29,0,96
4,28,114,0
4,28,0,71
4,28,105,24
4,28,0,79
4,38,106,18
4,38,0,170
4,26,110,22
4,26,0,108
4,26,110,36
4,26,0,12
4,33,110,35
4,33,0,91
4,36,106,6
4,36,0,46
4,37,113,2
4,38,108,47
4,37,0,4
4,38,0,85
4,33,109,8
4,26,105,47
4,33,0,4
4,26,0,46
4,31,109,0
4,31,0,102
4,31,105,89
4,31,0,91
4,31,106,54
4,31,0,37
4,38,114,10
4,38,0,97
4,43,126,0
4,38,105,95
4,43,0,10
4,37,111,87
4,38,0,4
4,37,0,83
4,36,108,7
4,36,0,163
4,36,109,29
4,36,0,113
4,36,109,31
4,36,0,46
4,31,105,4
4,31,0,95
4,36,110,0
4,36,0,97
4,31,106,0
4,31,0,94
4,36,114,0
4,36,0,75
4,33,112,22
4,45,126,95
4,33,0,10
4,45,0,57
4,40,110,30
4,40,0,16
4,43,124,31
4,43,0,18
4,44,126,32
4,44,0,12
4,45,121,35
4,45,0,12
4,33,106,36
4,33,0,89
4,45,127,7
4,45,0,36
4,45,125,12
4,45,0,39
4,45,127,8
4,45,0,18
4,45,127,32
4,45,0,2
4,45,124,45
4,45,0,81
4,26,106,16
4,26,0,135
4,26,113,56
4,26,0,99
4,26,109,44
4,26,0,29
4,33,106,20
4,33,0,90
4,36,108,6
4,36,0,22
4,37,110,27
4,37,0,20
4,38,108,26
4,38,0,91
4,33,105,6
4,33,0,6
4,26,108,42
4,26,0,2
4,31,108,46
4,31,0,192
4,31,105,0
4,31,0,102
4,31,112,43
4,31,0,14
4,38,113,32
4,38,0,97
4,43,124,0
4,43,0,167
4,38,110,24
4,38,0,83
4,36,113,14
4,36,0,147
4,36,109,44
4,36,0,97
4,36,112,48
4,36,0,18
4,31,113,31
4,36,112,94
4,31,0,6
4,36,0,91
4,31,113,0
4,36,109,97
4,31,0,6
4,36,0,80
4,29,114,8
4,29,0,157
4,29,111,37
4,29,0,118
4,29,106,25
4,29,0,12
4,29,105,36
4,29,0,97
4,41,110,0
4,28,113,94
4,41,0,10
4,40,107,87
4,28,0,10
4,40,0,75
4,26,105,12
4,38,111,94
4,26,0,14
4,38,0,43
4,28,111,40
4,40,114,97
4,28,0,14
4,40,0,38
4,29,111,42
4,41,112,97
4,29,0,8
4,41,0,57
4,31,113,32
4,43,109,94
4,31,0,29
4,43,0,38
4,31,109,30
4,31,0,99
4,31,114,93
4,31,0,100
4,31,109,45
4,31,0,14
4,38,106,34
4,43,124,95
4,38,0,8
4,43,0,159
4,38,112,26
4,38,0,16
4,36,106,30
4,36,0,4
4,36,111,45
4,36,0,148
4,36,105,43
4,36,0,93
4,36,114,52
4,36,0,37
4,31,106,12
4,31,0,95
4,36,106,0
4,36,0,69
4,31,111,28
4,31,0,8
4,36,112,39
4,36,0,6
