track,note,velocity,time
1,66,100,780
1,66,0,120
1,66,100,0
1,66,0,120
1,66,100,0
1,66,0,120
1,66,100,0
1,66,0,120
1,66,100,0
1,66,100,120
1,66,0,60
1,66,0,60
1,66,100,0
1,66,0,120
1,68,100,4620
1,68,0,60
1,68,100,60
1,68,0,60
1,66,100,60
1,66,0,60
1,61,100,0
1,61,0,60
1,66,100,0
1,66,0,60
1,61,100,0
1,61,0,60
1,68,100,0
1,68,0,60
1,68,100,60
1,68,0,60
1,66,100,60
1,66,0,60
1,61,100,0
1,61,0,60
1,66,100,0
1,66,0,60
1,61,100,0
1,61,0,60
1,73,100,1680
1,73,0,60
1,71,100,0
1,71,0,60
1,69,100,0
1,69,0,60
1,68,100,0
1,68,0,60
1,69,100,0
1,69,0,60
1,71,100,0
1,71,0,60
1,73,100,0
1,73,0,60
1,74,100,0
1,74,0,60
1,76,100,0
1,76,0,60
1,77,100,0
1,77,0,60
1,78,100,0
1,78,0,60
1,79,100,0
1,79,0,60
1,80,100,0
1,80,0,60
1,81,100,0
1,81,0,60
1,82,100,0
1,82,0,60
1,83,100,0
1,83,0,60
1,66,100,3660
1,66,0,60
1,66,100,60
1,66,0,60
1,66,100,60
1,66,0,60
1,66,100,60
1,66,0,60
1,66,100,60
1,66,0,60
1,66,100,60
1,66,0,60
1,66,100,60
1,66,0,60
1,66,100,60
1,66,0,60
1,68,100,4560
1,68,0,60
1,68,100,60
1,68,0,60
1,66,100,60
1,66,0,60
1,61,100,0
1,61,0,60
1,66,100,0
1,66,0,60
1,61,100,0
1,61,0,60
1,68,100,0
1,68,0,60
1,68,100,60
1,68,0,60
1,66,100,60
1,66,0,60
1,61,100,0
1,61,0,60
1,66,100,0
1,66,0,60
1,61,100,0
1,61,0,60
1,73,100,1680
1,73,0,60
1,71,100,0
1,71,0,60
1,69,100,0
1,69,0,60
1,68,100,0
1,68,0,60
1,69,100,0
1,69,0,60
1,71,100,0
1,71,0,60
1,73,100,0
1,73,0,60
1,74,100,0
1,74,0,60
1,76,100,0
1,76,0,60
1,77,100,0
1,77,0,60
1,78,100,0
1,78,0,60
1,79,100,0
1,79,0,60
1,80,100,0
1,80,0,60
1,81,100,0
1,81,0,60
1,82,100,0
1,82,0,60
1,83,100,0
1,83,0,60
1,66,100,3660
1,66,0,60
1,66,100,60
1,66,0,60
1,66,100,60
1,66,0,60
1,66,100,60
1,66,0,60
1,66,100,60
1,66,0,60
1,66,100,60
1,66,0,60
1,66,100,74
1,66,0,60
1,66,100,56
1,66,0,60
1,68,100,11030
1,68,0,60
1,68,100,60
1,68,0,60
1,66,100,60
1,66,0,60
1,61,100,0
1,61,0,60
1,66,100,0
1,66,0,60
1,61,100,0
1,61,0,60
1,68,100,0
1,68,0,60
1,68,100,60
1,68,0,60
1,66,100,60
1,66,0,60
1,61,100,0
1,61,0,60
1,66,100,0
1,66,0,60
1,61,100,0
1,61,0,60
1,73,100,1680
1,73,0,60
1,71,100,0
1,71,0,60
1,69,100,0
1,69,0,60
1,68,100,0
1,68,0,60
1,69,100,0
1,69,0,60
1,71,100,0
1,71,0,60
1,73,100,0
1,73,0,60
1,74,100,0
1,74,0,60
1,76,100,0
1,76,0,60
1,77,100,0
1,77,0,60
1,78,100,0
1,78,0,60
1,79,100,0
1,79,0,60
1,80,100,0
1,80,0,60
1,81,100,0
1,81,0,60
1,82,100,0
1,82,0,60
1,83,100,0
1,83,0,60
1,66,100,3660
1,66,0,60
1,66,100,60
1,66,0,60
1,66,100,60
1,66,0,60
1,66,100,60
1,66,0,60
1,66,100,60
1,66,0,60
1,66,100,60
1,66,0,60
1,66,100,60
1,66,0,60
1,66,100,60
1,66,0,60
1,66,100,4620
1,66,0,60
1,66,100,60
1,66,0,60
1,66,100,60
1,66,0,60
1,66,100,60
1,66,0,60
1,66,100,60
1,66,0,60
1,66,100,60
1,66,0,60
1,66,100,60
1,66,0,60
1,66,100,60
1,66,0,60
2,78,100,720
2,78,0,60
2,78,100,0
2,78,0,60
2,76,100,0
2,76,0,60
2,78,100,0
2,78,0,60
2,74,100,0
2,74,0,60
2,78,100,0
2,78,0,60
2,73,100,0
2,73,0,60
2,78,100,0
2,78,0,60
2,71,100,0
2,71,0,60
2,78,100,0
2,78,0,60
2,69,100,0
2,69,0,60
2,78,100,0
2,78,0,60
2,68,100,0
2,68,0,60
2,78,100,0
2,78,0,60
2,73,100,0
2,73,0,60
2,78,100,0
2,78,0,60
2,68,100,0
2,68,0,60
2,68,100,60
2,68,0,60
2,66,100,60
2,66,0,60
2,61,100,0
2,61,0,60
2,66,100,0
2,66,0,60
2,61,100,0
2,61,0,60
2,68,100,0
2,68,0,60
2,68,100,60
2,68,0,60
2,66,100,60
2,66,0,60
2,61,100,0
2,61,0,60
2,66,100,0
2,66,0,60
2,61,100,0
2,61,0,60
2,68,100,0
2,68,0,60
2,68,100,60
2,68,0,60
2,66,100,60
2,66,0,60
2,61,100,0
2,61,0,60
2,66,100,0
2,66,0,60
2,61,100,0
2,61,0,60
2,68,100,0
2,68,0,60
2,68,100,60
2,68,0,60
2,66,100,60
2,66,0,60
2,61,100,0
2,61,0,60
2,66,100,0
2,66,0,60
2,61,100,0
2,61,0,60
2,68,100,2640
2,68,0,60
2,68,100,60
2,68,0,60
2,66,100,60
2,66,0,60
2,61,100,0
2,61,0,60
2,66,100,0
2,66,0,60
2,61,100,0
2,61,0,60
2,68,100,0
2,68,0,60
2,68,100,60
2,68,0,60
2,66,100,60
2,66,0,60
2,61,100,0
2,61,0,60
2,66,100,0
2,66,0,60
2,61,100,0
2,61,0,60
2,85,100,1680
2,85,0,60
2,83,100,0
2,83,0,60
2,81,100,0
2,81,0,60
2,80,100,0
2,80,0,60
2,81,100,0
2,81,0,60
2,83,100,0
2,83,0,60
2,85,100,0
2,85,0,60
2,86,100,0
2,86,0,60
2,88,100,0
2,88,0,60
2,89,100,0
2,89,0,60
2,90,100,0
2,90,0,60
2,91,100,0
2,91,0,60
2,92,100,0
2,92,0,60
2,93,100,0
2,93,0,60
2,94,100,0
2,94,0,60
2,95,100,0
2,95,0,60
2,66,127,0
2,66,0,180
2,68,127,60
2,68,0,180
2,69,127,60
2,69,0,60
2,68,127,60
2,68,0,60
2,66,127,60
2,66,0,120
2,64,127,60
2,64,0,60
2,66,127,0
2,66,0,60
2,66,127,60
2,66,0,60
2,68,127,0
2,68,0,60
2,66,127,0
2,66,0,60
2,64,127,0
2,64,0,60
2,61,127,0
2,61,0,60
2,59,127,0
2,59,0,60
2,61,127,0
2,61,0,60
2,61,127,60
2,61,0,60
2,64,127,60
2,64,0,60
2,66,127,60
2,66,0,60
2,66,127,60
2,66,0,120
2,68,127,120
2,68,0,120
2,69,127,120
2,69,0,60
2,68,127,60
2,68,0,60
2,66,127,60
2,66,0,120
2,66,126,840
2,66,0,60
2,66,100,0
2,66,0,60
2,64,126,0
2,64,0,60
2,66,100,0
2,66,0,60
2,62,126,0
2,62,0,60
2,66,100,0
2,66,0,60
2,61,126,0
2,61,0,60
2,66,100,0
2,66,0,60
2,59,126,0
2,59,0,60
2,66,100,0
2,66,0,60
2,57,126,0
2,57,0,60
2,66,100,0
2,66,0,60
2,56,126,0
2,56,0,60
2,66,100,0
2,66,0,60
2,59,126,0
2,59,0,60
2,66,100,0
2,66,0,60
2,68,100,0
2,68,0,60
2,68,100,60
2,68,0,60
2,66,100,60
2,66,0,60
2,61,100,0
2,61,0,60
2,66,100,0
2,66,0,60
2,61,100,0
2,61,0,60
2,68,100,0
2,68,0,60
2,68,100,60
2,68,0,60
2,66,100,60
2,66,0,60
2,61,100,0
2,61,0,60
2,66,100,0
2,66,0,60
2,61,100,0
2,61,0,60
2,68,100,0
2,68,0,60
2,68,100,60
2,68,0,60
2,66,100,60
2,66,0,60
2,61,100,0
2,61,0,60
2,66,100,0
2,66,0,60
2,61,100,0
2,61,0,60
2,68,100,0
2,68,0,60
2,68,100,60
2,68,0,60
2,66,100,60
2,66,0,60
2,61,100,0
2,61,0,60
2,66,100,0
2,66,0,60
2,61,100,0
2,61,0,60
2,68,100,2640
2,68,0,60
2,68,100,60
2,68,0,60
2,66,100,60
2,66,0,60
2,61,100,0
2,61,0,60
2,66,100,0
2,66,0,60
2,61,100,0
2,61,0,60
2,68,100,0
2,68,0,60
2,68,100,60
2,68,0,60
2,66,100,60
2,66,0,60
2,61,100,0
2,61,0,60
2,66,100,0
2,66,0,60
2,61,100,0
2,61,0,60
2,85,100,1680
2,85,0,60
2,83,100,0
2,83,0,60
2,81,100,0
2,81,0,60
2,80,100,0
2,80,0,60
2,81,100,0
2,81,0,60
2,83,100,0
2,83,0,60
2,85,100,0
2,85,0,60
2,86,100,0
2,86,0,60
2,88,100,0
2,88,0,60
2,89,100,0
2,89,0,60
2,90,100,0
2,90,0,60
2,91,100,0
2,91,0,60
2,92,100,0
2,92,0,60
2,93,100,0
2,93,0,60
2,94,100,0
2,94,0,60
2,95,100,0
2,95,0,60
2,66,127,0
2,66,0,180
2,68,127,60
2,68,0,180
2,69,127,60
2,69,0,60
2,68,127,60
2,68,0,60
2,66,127,60
2,66,0,120
2,64,127,60
2,64,0,60
2,66,127,0
2,66,0,60
2,66,127,60
2,66,0,60
2,68,127,0
2,68,0,60
2,66,127,0
2,66,0,60
2,64,127,0
2,64,0,60
2,61,127,0
2,61,0,60
2,59,127,0
2,59,0,60
2,61,127,0
2,61,0,60
2,61,127,60
2,61,0,60
2,64,127,60
2,64,0,60
2,66,127,60
2,66,0,60
2,66,127,60
2,66,0,120
2,68,127,120
2,68,0,120
2,69,127,120
2,69,0,60
2,68,127,60
2,68,0,60
2,66,127,60
2,66,0,120
2,66,126,840
2,66,0,60
2,66,100,0
2,66,0,60
2,64,126,0
2,64,0,60
2,66,100,0
2,66,0,60
2,62,126,0
2,62,0,60
2,66,100,0
2,66,0,60
2,61,126,0
2,61,0,60
2,66,100,0
2,66,0,60
2,59,126,0
2,59,0,60
2,66,100,0
2,66,0,60
2,57,126,0
2,57,0,60
2,66,100,0
2,66,0,60
2,56,126,0
2,56,0,60
2,66,100,0
2,66,0,60
2,59,126,0
2,59,0,60
2,66,100,0
2,66,0,60
2,71,123,0
2,71,0,60
2,71,123,60
2,71,0,60
2,69,123,60
2,69,0,60
2,66,123,0
2,66,0,60
2,69,123,0
2,69,0,60
2,66,123,0
2,66,0,60
2,71,123,0
2,71,0,60
2,71,123,60
2,71,0,60
2,69,123,60
2,69,0,60
2,66,123,0
2,66,0,60
2,69,123,0
2,69,0,60
2,66,123,0
2,66,0,60
2,71,123,0
2,71,0,60
2,71,123,60
2,71,0,60
2,69,123,60
2,69,0,60
2,66,123,0
2,66,0,60
2,69,123,0
2,69,0,60
2,66,123,0
2,66,0,60
2,71,123,0
2,71,0,60
2,71,123,60
2,71,0,60
2,69,123,60
2,69,0,60
2,66,123,0
2,66,0,60
2,69,123,0
2,69,0,60
2,66,123,0
2,66,0,60
2,71,123,0
2,71,0,60
2,71,123,60
2,71,0,60
2,69,123,60
2,69,0,60
2,66,123,0
2,66,0,60
2,69,123,0
2,69,0,60
2,66,123,0
2,66,0,60
2,71,123,0
2,71,0,60
2,71,123,60
2,71,0,60
2,69,114,60
2,69,114,0
2,69,0,60
2,69,0,0
2,66,114,0
2,66,114,0
2,66,0,60
2,66,0,0
2,69,114,0
2,69,114,0
2,69,0,60
2,69,0,0
2,66,114,0
2,66,114,0
2,66,0,60
2,66,0,0
2,71,114,0
2,71,114,0
2,71,0,60
2,71,0,0
2,71,123,60
2,71,0,60
2,69,123,60
2,69,0,60
2,66,123,0
2,66,0,60
2,69,123,0
2,69,0,60
2,66,123,0
2,66,0,60
2,71,123,0
2,71,0,60
2,71,123,60
2,71,0,60
2,69,123,60
2,69,0,60
2,66,123,0
2,66,0,60
2,69,123,0
2,69,0,60
2,66,123,0
2,66,0,60
2,71,123,0
2,71,0,60
2,71,123,60
2,71,0,60
2,69,127,60
2,69,0,60
2,66,127,0
2,66,0,60
2,69,127,0
2,69,0,60
2,66,127,0
2,66,0,60
2,71,127,0
2,71,0,60
2,71,127,60
2,71,0,60
2,73,127,60
2,73,0,60
2,74,127,60
2,74,0,60
2,73,127,60
2,73,0,60
2,71,127,60
2,71,0,60
2,69,127,60
2,69,0,60
2,67,127,60
2,67,0,60
2,66,127,60
2,66,0,60
2,52,121,60
2,64,127,0
2,52,0,60
2,64,0,0
2,78,127,60
2,78,0,60
2,76,127,60
2,76,0,60
2,74,127,60
2,74,0,60
2,73,127,60
2,73,0,60
2,71,127,60
2,71,0,60
2,69,127,60
2,69,0,60
2,68,127,60
2,68,0,60
2,69,127,60
2,69,0,60
2,73,127,60
2,73,0,60
2,74,127,60
2,74,0,60
2,73,127,60
2,73,0,60
2,71,127,60
2,71,0,60
2,69,127,60
2,69,0,60
2,67,127,60
2,67,0,60
2,66,127,60
2,66,0,60
2,64,127,60
2,64,0,60
2,78,127,60
2,78,0,60
2,76,127,60
2,76,0,60
2,74,127,60
2,74,0,60
2,73,127,60
2,73,0,60
2,71,127,60
2,71,0,60
2,69,127,60
2,69,0,60
2,68,127,60
2,68,0,60
2,69,127,60
2,69,0,60
2,68,100,2700
2,68,0,60
2,68,100,60
2,68,0,60
2,66,100,60
2,66,0,60
2,61,100,0
2,61,0,60
2,66,100,0
2,66,0,60
2,61,100,0
2,61,0,60
2,68,100,0
2,68,0,60
2,68,100,60
2,68,0,60
2,66,100,60
2,66,0,60
2,61,100,0
2,61,0,60
2,66,100,0
2,66,0,60
2,61,100,0
2,61,0,60
2,85,100,1680
2,85,0,60
2,83,100,0
2,83,0,60
2,81,100,0
2,81,0,60
2,80,100,0
2,80,0,60
2,81,100,0
2,81,0,60
2,83,100,0
2,83,0,60
2,85,100,0
2,85,0,60
2,86,100,0
2,86,0,60
2,88,100,0
2,88,0,60
2,89,100,0
2,89,0,60
2,90,100,0
2,90,0,60
2,91,100,0
2,91,0,60
2,92,100,0
2,92,0,60
2,93,100,0
2,93,0,60
2,94,100,0
2,94,0,60
2,95,100,0
2,95,0,60
2,66,127,0
2,66,0,180
2,68,127,60
2,68,0,180
2,69,127,60
2,69,0,60
2,68,127,60
2,68,0,60
2,66,127,60
2,66,0,120
2,64,127,60
2,64,0,60
2,66,127,0
2,66,0,60
2,66,127,60
2,66,0,60
2,68,127,0
2,68,0,60
2,66,127,0
2,66,0,60
2,64,127,0
2,64,0,60
2,61,127,0
2,61,0,60
2,59,127,0
2,59,0,60
2,61,127,0
2,61,0,60
2,61,127,60
2,61,0,60
2,64,127,60
2,64,0,60
2,66,127,60
2,66,0,60
2,66,127,60
2,66,0,120
2,68,127,120
2,68,0,120
2,69,127,120
2,69,0,60
2,68,127,60
2,68,0,60
2,66,127,60
2,66,0,120
2,66,126,840
2,66,0,60
2,66,100,0
2,66,0,60
2,64,126,0
2,64,0,60
2,66,100,0
2,66,0,60
2,62,126,0
2,62,0,60
2,66,100,0
2,66,0,60
2,61,126,0
2,61,0,60
2,66,100,0
2,66,0,60
2,59,126,0
2,59,0,60
2,66,100,0
2,66,0,60
2,57,126,0
2,57,0,60
2,66,100,0
2,66,0,60
2,56,126,0
2,56,0,60
2,66,100,0
2,66,0,60
2,59,126,0
2,59,0,60
2,66,100,0
2,66,0,60
2,68,100,0
2,68,0,60
2,68,100,60
2,68,0,60
2,66,100,60
2,66,0,60
2,61,100,0
2,61,0,60
2,66,100,0
2,66,0,60
2,61,100,0
2,61,0,60
2,68,100,0
2,68,0,60
2,68,100,60
2,68,0,60
2,66,100,60
2,66,0,60
2,61,100,0
2,61,0,60
2,66,100,0
2,66,0,60
2,61,100,0
2,61,0,60
2,66,127,0
2,66,0,180
2,68,127,60
2,68,0,180
2,69,127,60
2,69,0,60
2,68,127,60
2,68,0,60
2,66,127,60
2,66,0,120
2,64,127,60
2,64,0,60
2,66,127,0
2,66,0,60
2,66,127,60
2,66,0,60
2,68,127,0
2,68,0,60
