track,note,velocity,time
1,26,122,8064
1,26,116,128
1,26,116,121
1,26,117,123
1,26,117,118
1,26,117,133
1,26,117,123
1,26,117,123
1,26,117,122
1,26,117,132
1,26,117,130
1,26,117,118
1,26,117,116
1,26,117,125
1,26,117,124
1,26,117,115
1,26,117,111
1,26,117,127
1,26,117,126
1,26,117,123
1,26,117,123
1,26,117,120
1,26,117,120
1,26,117,118
1,26,117,117
1,26,117,124
1,26,118,116
1,26,118,118
1,26,118,118
1,26,118,119
1,26,118,116
1,26,118,124
1,26,105,118
1,26,118,96
1,26,118,121
1,26,118,119
1,26,118,111
1,26,118,120
1,26,118,9
1,26,118,115
1,26,118,13
1,26,118,117
1,26,118,19
1,26,118,112
1,26,118,116
1,26,118,119
1,26,118,123
1,26,118,115
1,26,118,111
1,26,119,118
1,26,119,3
1,26,119,117
1,26,119,8
1,26,119,122
1,26,119,110
1,26,119,109
1,26,119,104
1,26,119,116
1,26,119,118
1,26,119,111
1,26,119,99
1,26,119,114
1,26,119,123
1,26,119,111
1,26,115,106
1,26,94,96
1,26,122,125
1,26,97,118
1,26,122,124
1,26,121,123
1,26,122,112
1,26,119,116
1,26,122,18
1,26,122,121
1,26,122,117
1,26,97,122
1,26,122,19
1,26,88,121
1,26,115,115
1,26,121,114
1,26,122,116
1,26,122,115
1,26,122,18
1,26,122,118
1,26,122,113
1,26,122,126
1,26,122,116
1,26,122,125
1,26,122,17
1,26,122,123
1,26,122,14
1,26,122,121
1,26,122,13
1,26,122,120
1,26,122,118
1,26,122,123
1,26,122,13
1,26,122,111
1,26,122,119
1,26,119,108
1,26,122,110
1,26,122,50
1,28,122,69
1,29,122,18
1,30,122,14
1,30,122,118
1,30,122,110
1,30,122,120
1,30,122,100
1,30,122,118
1,30,122,107
1,30,100,102
1,31,122,108
1,31,88,122
1,31,122,109
1,31,122,113
1,31,122,110
1,31,122,116
1,31,122,110
1,31,88,115
1,31,122,111
1,31,122,118
1,31,122,105
1,31,122,114
1,31,109,110
1,31,122,102
1,30,122,55
1,30,122,37
1,28,94,28
1,28,100,105
1,28,122,93
1,28,122,100
1,28,122,106
1,28,97,90
1,28,122,50
1,28,122,73
1,33,122,92
1,33,122,93
1,33,122,120
1,33,122,88
1,31,122,100
1,31,115,108
1,31,122,28
1,31,122,97
1,30,122,100
1,30,122,115
1,30,112,90
1,30,100,108
1,30,122,119
1,30,122,117
1,30,122,92
1,30,81,107
1,35,122,136
1,35,122,97
1,35,122,131
1,35,88,112
1,35,121,110
1,35,120,127
1,35,97,19
1,35,112,100
1,28,122,105
1,28,91,91
1,28,122,117
1,28,109,111
1,28,106,110
1,28,94,117
1,28,122,108
1,28,88,112
1,28,118,102
1,28,91,129
1,28,115,8
1,28,100,112
1,28,94,116
1,28,91,136
1,28,122,120
1,28,122,111
1,33,122,131
1,33,121,109
1,33,122,29
1,33,97,116
1,33,109,29
1,33,121,124
1,33,122,29
1,33,122,115
1,33,119,32
1,33,112,114
1,33,122,31
1,33,121,111
1,33,119,31
1,33,122,108
1,33,122,112
1,33,122,116
1,26,122,117
1,26,116,128
1,26,116,121
1,26,117,123
1,26,117,118
1,26,117,133
1,26,117,123
1,26,117,123
1,26,117,122
1,26,117,132
1,26,117,130
1,26,117,118
1,26,117,116
1,26,117,125
1,26,117,124
1,26,117,115
1,26,117,111
1,26,117,127
1,26,117,126
1,26,117,123
1,26,117,123
1,26,117,120
1,26,117,120
1,26,117,118
1,26,117,117
1,26,117,124
1,26,118,116
1,26,118,118
1,26,118,118
1,26,118,119
1,26,118,116
1,26,118,124
1,26,122,118
1,26,122,120
1,26,115,133
1,26,122,121
1,26,122,124
1,26,122,129
1,26,122,2
1,26,122,131
1,26,122,123
1,26,122,127
1,26,122,117
1,26,122,129
1,26,122,118
1,26,109,121
1,26,122,126
1,26,122,124
1,26,122,123
1,26,122,125
1,26,122,120
1,26,122,117
1,26,122,119
1,26,122,128
1,26,122,122
1,26,94,121
1,26,122,121
1,26,122,122
1,26,122,124
1,26,97,122
1,26,122,115
1,26,122,119
1,26,122,122
1,26,122,118
1,26,122,109
1,26,122,126
1,26,122,130
1,26,122,115
1,26,122,115
1,26,122,131
1,28,109,131
1,29,122,25
1,30,122,192
1,30,122,120
1,30,122,6
1,30,122,127
1,30,122,119
1,30,100,120
1,30,122,124
1,30,122,20
1,31,122,135
1,31,94,124
1,31,122,130
1,31,122,124
1,31,122,113
1,31,88,119
1,31,122,113
1,31,122,118
1,31,122,101
1,31,119,123
1,31,122,114
1,31,122,119
1,31,118,133
1,31,94,117
1,31,122,128
1,31,122,116
1,28,109,192
1,28,122,124
1,28,122,117
1,28,97,121
1,28,122,91
1,28,122,115
1,28,122,89
1,28,121,125
1,33,122,125
1,33,109,88
1,33,122,128
1,33,122,116
1,31,122,82
1,31,122,129
1,31,103,130
1,31,122,118
1,30,122,128
1,30,122,119
1,30,122,116
1,30,122,123
1,30,122,125
1,30,122,132
1,30,120,115
1,30,122,123
1,35,122,9
1,35,122,113
1,35,109,131
1,35,122,120
1,33,122,127
1,33,97,131
1,33,122,127
1,33,119,137
1,28,122,6
1,28,119,123
1,28,122,120
1,28,112,124
1,28,122,122
1,28,121,129
1,28,122,126
1,28,109,127
1,33,122,118
1,33,122,121
1,33,122,126
1,33,122,122
1,31,122,124
1,31,122,129
1,31,119,107
1,31,122,129
1,30,122,99
1,30,122,151
1,30,122,5
1,30,122,127
1,30,122,123
1,30,122,150
1,28,122,93
1,30,122,30
1,26,122,2
1,26,103,124
1,26,115,128
1,26,122,119
1,26,122,122
1,26,94,114
1,26,103,54
1,26,122,107
1,31,122,0
1,31,122,115
1,31,122,152
1,31,115,118
1,31,122,102
1,31,122,119
1,31,97,113
1,31,115,122
1,31,122,103
1,31,122,122
1,31,122,115
1,31,122,115
1,31,122,108
1,31,79,123
1,31,122,19
1,31,121,111
1,30,122,2
1,30,112,113
1,30,122,119
1,30,118,123
1,30,122,110
1,30,100,129
1,33,121,133
1,34,122,34
1,35,122,25
1,35,106,111
1,35,112,138
1,35,122,118
1,35,120,125
1,35,106,137
1,35,97,126
1,35,122,138
1,28,97,19
1,28,122,120
1,28,122,126
1,28,118,118
1,28,97,117
1,28,100,128
1,28,103,123
1,28,94,119
1,28,122,103
1,28,88,116
1,28,94,122
1,28,122,122
1,28,122,110
1,28,106,122
1,28,122,123
1,29,122,29
1,30,122,192
1,30,100,126
1,30,112,100
1,30,122,127
1,30,122,107
1,30,122,127
1,30,122,7
1,30,122,119
1,30,122,89
1,30,122,123
1,30,122,113
1,30,122,123
1,30,122,128
1,30,122,127
1,28,122,4
1,26,122,41
1,26,116,105
1,26,116,103
1,26,116,106
1,26,116,110
1,26,116,99
1,28,117,91
1,29,117,81
1,30,117,20
1,30,117,100
1,30,117,45
1,30,117,110
1,30,117,50
1,30,117,89
1,30,117,40
1,30,117,90
1,35,117,129
1,35,117,98
1,35,117,111
1,35,117,111
1,35,117,110
1,35,117,107
1,35,117,103
1,35,117,105
1,33,117,96
1,33,117,114
1,33,117,111
1,33,117,110
1,33,117,96
1,33,117,110
1,33,117,102
1,33,117,108
1,31,117,84
1,31,117,118
1,31,117,55
1,31,117,105
1,31,117,98
1,31,117,88
1,30,117,47
1,30,117,126
1,28,117,73
1,28,117,118
1,28,117,103
1,28,117,120
1,28,117,107
1,28,117,110
1,28,117,100
1,28,117,117
1,33,117,103
1,33,117,108
1,33,117,107
1,33,117,103
1,33,117,100
1,33,117,117
1,33,117,108
1,33,117,118
1,33,117,108
1,33,117,127
1,33,118,110
1,33,118,116
1,33,118,103
1,33,118,111
1,33,118,107
1,33,118,107
1,31,118,192
1,31,118,114
1,31,118,66
1,31,118,113
1,31,118,74
1,31,118,117
1,31,118,92
1,31,118,105
1,31,118,102
1,31,118,119
1,31,118,102
1,31,118,117
1,31,118,95
1,31,118,117
1,31,118,110
1,31,118,121
1,31,118,111
1,31,118,122
1,31,118,91
1,31,118,112
1,31,118,100
1,31,118,115
1,31,118,95
1,31,118,112
1,31,118,91
1,31,118,110
1,31,118,74
1,31,118,105
1,31,118,92
1,31,118,97
1,31,118,89
1,33,118,46
1,34,118,4
1,34,118,81
1,34,118,2
1,34,118,94
1,34,118,49
1,34,118,103
1,34,118,43
1,34,118,101
1,34,118,57
1,34,118,108
1,34,118,41
1,34,118,111
1,34,118,59
1,34,118,105
1,34,118,16
1,34,119,113
1,26,119,87
1,26,119,113
1,26,119,97
1,26,119,105
1,26,119,71
1,26,119,102
1,26,119,60
1,26,119,113
1,33,119,101
1,33,119,80
1,33,119,107
1,33,119,115
1,33,119,101
1,33,119,121
1,33,119,103
1,35,119,83
1,26,119,8
1,26,119,83
1,26,119,117
1,26,119,108
1,26,119,101
1,26,119,103
1,28,119,71
1,29,119,80
1,30,119,21
1,30,119,1
1,30,119,62
1,30,119,118
1,30,119,37
1,30,119,112
1,30,119,40
1,30,119,110
1,35,119,123
1,35,119,103
1,35,119,117
1,35,119,110
1,35,119,102
1,35,119,122
1,35,119,111
1,35,119,108
1,33,119,105
1,33,119,120
1,33,119,96
1,33,119,116
1,33,119,107
1,33,119,126
1,33,119,112
1,33,119,124
1,31,119,12
1,31,119,110
1,31,119,86
1,31,120,113
1,31,120,94
1,31,120,105
1,30,120,56
1,30,120,115
1,28,120,47
1,28,120,112
1,28,120,90
1,28,120,117
1,28,120,100
1,28,120,103
1,31,120,89
1,32,120,192
1,33,120,39
1,33,120,84
1,33,120,95
1,33,120,114
1,33,120,105
1,33,120,112
1,33,120,109
1,33,120,110
1,33,120,115
1,33,120,112
1,33,120,112
1,33,120,115
1,33,120,103
1,33,120,124
1,35,120,192
1,33,120,9
1,31,120,123
1,31,120,100
1,31,120,119
1,31,120,110
1,31,120,83
1,31,120,114
1,31,120,101
1,31,120,116
1,31,120,106
1,31,120,118
1,31,120,108
1,31,120,114
1,31,120,100
1,31,120,120
1,31,120,93
1,31,120,113
1,31,120,94
1,31,120,110
1,31,120,92
1,31,120,114
1,31,120,90
1,31,120,121
1,31,120,100
1,31,120,109
1,31,121,97
1,31,121,113
1,31,121,86
1,31,121,110
1,31,121,82
1,31,121,112
1,33,121,66
1,30,122,104
1,30,122,26
1,30,122,83
1,35,122,52
1,35,122,93
1,35,121,101
1,35,122,112
1,35,122,104
1,35,122,110
1,35,122,119
1,35,122,115
1,35,88,119
1,35,122,112
1,35,121,112
1,35,122,110
1,35,118,114
1,34,122,112
1,34,122,127
1,34,122,3
1,34,122,122
1,34,122,96
1,34,122,127
1,34,122,109
1,34,106,124
1,34,122,113
1,34,122,122
1,34,122,118
1,34,122,124
1,34,122,111
1,34,122,125
1,34,122,120
1,33,122,30
1,31,122,45
1,31,119,117
1,31,122,110
1,31,122,118
1,31,122,110
1,31,115,118
1,31,122,105
1,31,109,110
1,32,122,81
1,32,120,127
1,32,120,98
1,32,122,122
1,32,122,96
1,32,88,123
1,32,122,105
1,32,122,115
1,33,103,124
1,33,122,118
1,33,122,111
1,33,122,115
1,33,115,107
1,33,122,120
1,33,122,116
1,33,97,117
1,33,122,109
1,33,122,122
1,33,122,103
1,33,122,119
1,33,122,115
1,33,122,129
1,33,122,115
1,33,122,114
1,34,122,48
1,34,100,127
1,34,122,98
1,34,122,124
1,34,122,81
1,34,120,129
1,34,122,90
1,34,112,128
1,33,122,112
1,33,122,124
1,33,121,110
1,33,122,125
1,33,122,11
1,33,122,123
1,33,122,107
1,33,122,112
1,26,122,74
1,26,116,128
1,26,116,121
1,26,117,123
1,26,117,118
1,26,117,133
1,26,117,123
1,26,117,123
1,26,117,122
1,26,117,132
1,26,117,130
1,26,117,118
1,26,117,116
1,26,117,125
1,26,117,124
1,26,117,115
1,26,117,111
1,26,117,127
1,26,117,126
1,26,117,123
1,26,117,123
1,26,117,120
1,26,117,120
1,26,117,118
1,26,117,117
1,26,117,124
1,26,118,116
1,26,118,118
1,26,118,118
1,26,118,119
1,26,118,116
1,26,118,124
1,26,122,118
1,26,122,120
1,26,115,133
1,26,122,121
1,26,122,124
1,26,122,129
1,26,122,2
1,26,122,131
1,26,122,123
1,26,122,127
1,26,122,117
1,26,122,129
1,26,122,118
1,26,109,121
1,26,122,126
1,26,122,124
1,26,122,123
1,26,122,125
1,26,122,120
1,26,122,117
1,26,122,119
1,26,122,128
1,26,122,122
1,26,94,121
1,26,122,121
1,26,122,122
1,26,122,124
1,26,97,122
1,26,122,115
1,26,122,119
1,26,122,122
1,26,122,118
1,26,122,109
1,26,122,126
1,26,122,130
1,26,122,115
1,26,122,115
1,26,122,131
1,28,109,131
1,29,122,25
1,30,122,192
1,30,122,120
1,30,122,6
1,30,122,127
1,30,122,119
1,30,100,120
1,30,122,124
1,30,122,20
1,31,122,135
1,31,94,124
1,31,122,130
1,31,122,124
1,31,122,113
1,31,88,119
1,31,122,113
1,31,122,118
1,31,122,101
1,31,119,123
1,31,122,114
1,31,122,119
1,31,118,133
1,31,94,117
1,31,122,128
1,31,122,116
1,28,109,192
1,28,122,124
1,28,122,117
1,28,97,121
1,28,122,91
1,28,122,115
1,28,122,89
1,28,121,125
1,33,122,125
1,33,109,88
1,33,122,128
1,33,122,116
1,31,122,82
1,31,122,129
1,31,103,130
1,31,122,118
1,30,122,128
1,30,122,119
1,30,122,116
1,30,122,123
1,30,122,125
1,30,122,132
1,30,120,115
1,30,122,123
1,35,122,9
1,35,122,113
1,35,109,131
1,35,122,120
1,33,122,127
1,33,97,131
1,33,122,127
1,33,119,137
1,28,122,6
1,28,119,123
1,28,122,120
1,28,112,124
1,28,122,122
1,28,121,129
1,28,122,126
1,28,109,127
1,33,122,118
1,33,122,121
1,33,122,126
1,33,122,122
1,31,122,124
1,31,122,129
1,31,119,107
1,31,122,129
1,30,122,99
1,30,122,151
1,30,122,5
1,30,122,127
1,30,122,123
1,30,122,150
1,28,122,93
1,30,122,30
1,26,122,2
1,26,103,124
1,26,115,128
1,26,122,119
1,26,122,122
1,26,94,114
1,26,103,54
1,26,122,107
1,31,122,0
1,31,122,115
1,31,122,152
1,31,115,118
1,31,122,102
1,31,122,119
1,31,97,113
1,31,115,122
1,31,122,103
1,31,122,122
1,31,122,115
1,31,122,115
1,31,122,108
1,31,79,123
1,31,122,19
1,31,121,111
1,30,122,2
1,30,112,113
1,30,122,119
1,30,118,123
1,30,122,110
1,30,100,129
1,33,121,133
1,34,122,34
1,35,122,25
1,35,106,111
1,35,112,138
1,35,122,118
1,35,120,125
1,35,106,137
1,35,97,126
1,35,122,138
1,28,97,19
1,28,122,120
1,28,122,126
1,28,118,118
1,28,97,117
1,28,100,128
1,28,103,123
1,28,94,119
1,28,122,103
1,28,88,116
1,28,94,122
1,28,122,122
1,28,122,110
1,28,106,122
1,28,122,123
1,29,122,29
1,30,122,192
1,30,100,126
1,30,112,100
1,30,122,127
1,30,122,107
1,30,122,127
1,30,122,7
1,30,122,119
1,30,122,89
1,30,122,123
1,30,122,113
1,30,122,123
1,30,122,128
1,30,122,127
1,28,122,4
1,26,122,41
1,26,116,105
1,26,116,103
1,26,116,106
1,26,116,110
1,26,116,99
1,28,117,91
1,29,117,81
1,30,117,20
1,30,117,100
1,30,117,45
1,30,117,110
1,30,117,50
1,30,117,89
1,30,117,40
1,30,117,90
1,35,117,129
1,35,117,98
1,35,117,111
1,35,117,111
1,35,117,110
1,35,117,107
1,35,117,103
1,35,117,105
1,33,117,96
1,33,117,114
1,33,117,111
1,33,117,110
1,33,117,96
1,33,117,110
1,33,117,102
1,33,117,108
1,31,117,84
1,31,117,118
1,31,117,55
1,31,117,105
1,31,117,98
1,31,117,88
1,30,117,47
1,30,117,126
1,28,117,73
1,28,117,118
1,28,117,103
1,28,117,120
1,28,117,107
1,28,117,110
1,28,117,100
1,28,117,117
1,33,117,103
1,33,117,108
1,33,117,107
1,33,117,103
1,33,117,100
1,33,117,117
1,33,117,108
1,33,117,118
1,33,117,108
1,33,117,127
1,33,118,110
