track,note,velocity,time
0,81,57,48
0,89,70,108
0,81,0,639
0,79,56,18
0,89,0,38
0,88,72,72
0,42,71,466
0,42,0,4
0,40,96,183
0,42,72,0
0,65,78,0
0,40,0,4
0,42,0,0
0,65,0,0
0,35,108,140
0,40,81,1
0,66,63,0
0,35,0,3
0,40,0,1
0,66,0,0
0,40,76,43
0,65,55,0
0,40,0,4
0,65,0,0
0,42,74,2
0,42,0,4
0,79,0,36
0,88,0,0
0,35,108,50
0,35,0,4
0,40,63,43
0,66,45,0
0,40,0,4
0,66,0,0
0,40,60,44
0,65,36,0
0,40,0,4
0,65,0,0
0,42,82,10
0,42,0,4
0,35,110,79
0,35,0,4
0,40,43,43
0,66,26,0
0,40,0,4
0,66,0,0
0,40,43,44
0,65,27,0
0,35,126,1
0,38,101,0
0,44,79,0
0,50,67,0
0,50,80,0
0,51,88,0
0,57,68,0
0,57,104,0
0,57,87,0
0,57,95,0
0,60,74,0
0,62,53,0
0,62,85,0
0,65,97,0
0,57,83,1
0,40,0,2
0,65,0,0
0,35,0,1
0,44,0,0
0,50,96,0
0,51,0,0
0,57,0,0
0,62,93,0
0,50,0,80
0,50,0,10
0,57,0,0
0,62,0,0
0,51,58,2
0,60,77,0
0,60,74,0
0,62,86,0
0,51,0,4
0,38,0,42
0,50,0,27
0,62,0,1
0,57,0,1
0,62,0,3
0,38,98,18
0,38,103,0
0,44,79,0
0,50,86,0
0,51,83,0
0,65,94,1
0,65,94,0
0,38,0,3
0,44,0,0
0,51,0,0
0,50,0,79
0,51,66,13
0,62,86,0
0,51,0,4
0,60,0,42
0,60,0,0
0,38,0,4
0,62,0,33
0,38,98,13
0,44,79,0
0,50,85,0
0,51,65,0
0,60,76,0
0,60,76,0
0,35,126,1
0,44,0,3
0,51,0,0
0,35,0,1
0,57,0,31
0,65,0,1
0,60,0,3
0,65,0,6
0,65,0,0
0,50,0,43
0,59,80,7
0,62,82,0
0,65,88,0
0,65,88,0
0,57,103,4
0,59,0,0
0,60,91,0
0,65,100,1
0,60,0,41
0,60,0,0
0,38,0,2
0,62,0,22
0,60,92,25
0,60,90,0
0,38,99,1
0,38,102,0
0,44,79,0
0,50,82,0
0,38,0,4
0,44,0,0
0,57,0,4
0,65,0,3
0,60,0,8
0,65,0,27
0,65,0,0
0,50,0,50
0,59,87,0
0,62,86,0
0,64,89,1
0,64,84,0
0,55,98,3
0,59,0,0
0,60,99,0
0,64,96,0
0,38,0,44
0,62,0,39
0,57,0,7
0,62,0,0
0,35,120,2
0,36,102,0
0,44,83,0
0,48,86,0
0,55,88,0
0,60,83,0
0,35,0,4
0,44,0,0
0,60,0,42
0,60,0,0
0,48,0,36
0,51,51,14
0,60,84,0
0,60,72,1
0,60,77,0
0,51,0,3
0,64,0,42
0,64,0,0
0,36,0,4
0,60,0,22
0,36,88,24
0,38,109,0
0,44,81,0
0,48,82,0
0,51,81,0
0,64,91,1
0,64,94,0
0,38,0,3
0,44,0,0
0,51,0,0
0,48,0,81
0,51,44,11
0,60,82,0
0,51,0,4
0,60,0,42
0,60,0,0
0,36,0,17
0,60,0,9
0,51,73,23
0,48,84,1
0,35,125,1
0,36,95,0
0,44,80,0
0,60,81,0
0,60,81,0
0,51,0,2
0,35,0,2
0,44,0,0
0,55,0,26
0,64,0,0
0,60,0,5
0,64,0,10
0,64,0,0
0,48,0,39
0,59,78,10
0,60,86,1
0,60,94,0
0,57,88,1
0,64,84,0
0,64,83,0
0,65,97,0
0,59,0,2
0,36,0,37
0,60,0,6
0,60,0,0
0,60,0,20
0,57,0,13
0,65,0,7
0,60,0,8
0,36,94,2
0,38,103,0
0,48,84,0
0,51,37,0
0,60,78,0
0,60,78,0
0,44,75,1
0,38,0,3
0,51,0,0
0,44,0,1
0,64,0,41
0,64,0,0
0,59,89,50
0,60,80,0
0,60,90,1
0,65,91,0
0,65,93,0
0,57,81,1
0,65,96,0
0,59,0,2
0,48,0,11
0,36,0,36
0,60,0,25
0,55,0,18
0,60,0,0
0,51,47,1
0,35,123,1
0,41,83,0
0,29,101,1
0,44,78,0
0,48,83,0
0,53,84,0
0,51,0,2
0,35,0,1
0,44,0,1
0,60,0,41
0,60,0,0
0,41,0,43
0,51,58,6
0,53,85,1
0,60,86,0
0,60,87,0
0,51,0,3
0,29,0,33
0,65,0,10
0,65,0,0
0,53,0,18
0,29,95,32
0,38,106,0
0,41,82,0
0,44,79,0
0,51,83,0
0,65,94,0
0,65,91,0
0,38,0,4
0,44,0,0
0,51,0,0
0,41,0,85
0,51,36,7
0,53,86,0
0,51,0,4
0,60,0,42
0,60,0,0
0,29,0,2
0,53,0,26
0,41,84,22
0,44,80,0
0,51,75,0
0,60,81,0
0,60,80,0
0,29,99,1
0,35,121,0
0,44,0,3
0,51,0,0
0,35,0,1
0,57,0,35
0,65,0,0
0,60,0,6
0,65,0,0
0,65,0,0
0,41,0,35
0,65,80,14
0,65,79,0
0,53,84,1
0,59,91,0
0,60,84,1
0,57,87,1
0,65,85,0
0,59,0,2
0,29,0,31
0,60,0,11
0,60,0,0
0,53,0,31
0,57,0,4
0,65,0,4
0,60,0,5
0,51,59,5
0,38,104,1
0,41,83,0
0,44,79,0
0,60,72,0
0,60,71,0
0,29,96,1
0,51,0,2
0,38,0,1
0,44,0,0
0,65,0,42
0,65,0,0
0,41,0,37
0,53,82,13
0,59,88,0
0,67,89,0
0,67,89,0
0,58,74,2
0,62,105,1
0,65,95,0
0,59,0,1
0,29,0,47
0,53,0,37
0,48,0,6
0,53,0,0
0,31,98,2
0,35,121,0
0,43,85,0
0,44,79,0
0,50,87,0
0,51,47,0
0,55,84,0
0,35,0,4
0,44,0,0
0,51,0,0
0,60,0,42
0,60,0,0
0,43,0,28
0,60,75,21
0,60,73,0
0,51,52,1
0,55,80,0
0,51,0,4
0,67,0,42
0,67,0,0
0,31,0,4
0,55,0,19
0,38,103,27
0,43,82,0
0,44,73,0
0,51,82,0
0,67,87,0
0,67,88,0
0,31,98,1
0,38,0,3
0,44,0,0
0,51,0,0
0,43,0,84
0,51,43,8
0,55,81,0
0,51,0,4
0,31,0,40
0,60,0,2
0,60,0,0
0,55,0,33
0,43,85,17
0,44,81,0
0,51,73,0
0,60,80,0
0,60,85,0
0,31,101,1
0,35,125,0
0,44,0,3
0,51,0,0
0,35,0,1
0,65,0,13
0,62,0,4
0,58,0,4
0,67,0,20
0,67,0,0
0,43,0,26
0,55,83,24
0,59,94,0
0,67,83,0
0,67,89,0
0,57,88,2
0,60,101,0
0,65,95,0
0,59,0,2
0,31,0,39
0,60,0,3
0,60,0,0
0,65,0,32
0,57,0,11
0,60,0,4
0,51,58,2
0,38,104,1
0,43,86,0
0,44,79,0
0,55,0,0
0,60,84,0
0,60,79,0
0,31,103,1
0,51,0,2
0,38,0,1
0,44,0,0
0,67,0,42
0,67,0,0
0,43,0,43
0,55,82,7
0,59,86,0
0,64,89,0
0,64,91,0
0,55,90,2
0,60,97,0
0,64,88,0
0,59,0,2
0,31,0,24
0,55,0,60
0,50,0,6
0,35,121,2
0,36,97,0
0,48,82,0
0,51,47,0
0,44,86,1
0,60,87,1
0,35,0,2
0,51,0,0
0,44,0,1
0,60,0,41
0,60,0,0
0,48,0,49
0,60,77,0
0,60,79,0
0,35,124,1
0,51,49,0
0,60,82,0
0,35,0,4
0,51,0,0
0,36,0,38
0,64,0,4
0,64,0,0
0,60,0,28
0,64,94,21
0,64,88,0
0,38,108,1
0,44,74,0
0,48,81,0
0,51,82,0
0,36,98,1
0,38,0,3
0,44,0,0
0,51,0,0
0,48,0,90
0,51,48,1
0,60,81,1
0,51,0,3
0,36,0,29
0,60,0,14
0,60,0,0
0,60,0,37
0,44,82,12
0,60,77,0
0,60,71,0
0,48,84,1
0,51,75,0
0,35,126,1
0,36,95,0
0,44,0,2
0,51,0,1
0,35,0,1
0,55,0,39
0,64,0,2
0,64,0,0
0,60,0,1
0,64,0,1
0,48,0,41
0,64,77,5
0,64,81,0
0,51,53,1
0,60,88,1
0,51,0,3
0,55,94,0
0,60,97,0
0,65,88,1
0,36,0,26
0,60,0,16
0,60,0,0
0,60,0,24
0,55,0,21
0,60,83,4
0,60,84,0
0,38,108,1
0,44,75,0
0,48,82,0
0,51,79,0
0,36,81,1
0,65,0,1
0,38,0,2
0,44,0,0
0,51,0,0
0,60,0,0
0,64,0,42
0,64,0,0
0,48,0,44
0,51,42,6
0,60,86,0
0,65,92,0
0,65,90,0
0,58,89,2
0,62,101,0
0,65,105,1
0,51,0,1
0,36,0,43
0,60,0,33
0,55,0,14
0,60,0,0
0,35,127,2
0,46,80,0
0,51,66,0
0,34,94,1
0,44,77,0
0,53,88,1
0,58,84,0
0,35,0,2
0,51,0,0
0,44,0,1
0,60,0,41
0,60,0,0
0,46,0,42
0,51,49,8
0,58,81,0
0,60,74,0
0,60,74,0
0,51,0,4
0,34,0,31
0,65,0,11
0,65,0,0
0,58,0,24
0,65,89,25
0,65,88,0
0,38,109,1
0,44,72,0
0,46,85,0
0,51,70,0
0,34,84,1
0,38,0,3
0,44,0,0
0,51,0,0
0,46,0,84
0,51,52,8
0,58,84,0
0,51,0,4
0,34,0,29
0,60,0,13
0,60,0,0
0,58,0,22
0,60,77,27
0,60,76,0
0,44,76,1
0,46,87,0
0,51,72,0
0,34,87,1
0,35,123,0
0,44,0,3
0,51,0,0
0,35,0,1
0,65,0,41
0,65,0,0
0,65,0,4
0,62,0,1
0,58,0,3
0,46,0,23
0,65,97,18
0,65,96,0
0,51,39,1
0,58,81,0
0,58,81,2
0,62,105,0
0,65,77,0
0,51,0,2
0,34,0,26
0,60,0,16
0,60,0,0
0,58,0,15
0,62,0,15
0,65,0,0
0,58,0,4
0,44,87,15
0,51,77,0
0,60,80,0
0,60,82,0
0,38,107,1
0,46,87,0
0,34,90,1
0,44,0,2
0,51,0,0
0,38,0,1
0,65,0,42
0,65,0,0
0,46,0,37
0,51,48,12
0,65,90,0
0,57,94,1
0,58,83,0
0,60,97,0
0,64,92,1
0,64,95,0
0,51,0,2
0,34,0,36
0,58,0,41
0,58,0,14
0,51,78,1
0,29,98,1
0,35,126,0
0,41,86,0
0,44,77,0
0,48,88,2
0,51,0,1
0,35,0,1
0,44,0,0
0,60,0,42
0,60,0,0
0,41,0,35
0,51,52,14
0,60,80,0
0,60,75,0
0,53,84,1
0,51,0,3
0,29,0,34
0,64,0,9
0,64,0,0
0,53,0,15
0,51,70,34
0,38,106,1
0,41,83,0
0,29,97,1
0,44,75,0
0,65,97,0
0,65,99,0
0,51,0,2
0,38,0,1
0,44,0,1
0,41,0,75
0,51,46,16
0,53,80,0
0,51,0,4
0,29,0,24
0,60,0,18
0,60,0,0
0,53,0,26
0,60,72,23
0,60,70,0
0,29,96,1
0,41,85,0
0,44,78,0
0,51,66,0
0,35,120,1
0,44,0,3
0,51,0,0
0,35,0,1
0,65,0,36
0,57,0,1
0,60,0,3
0,65,0,1
0,65,0,0
0,41,0,33
0,51,48,17
0,53,85,0
0,65,87,0
0,65,89,0
0,60,95,1
0,65,93,0
0,57,88,1
0,51,0,2
0,29,0,27
0,60,0,15
0,60,0,0
0,53,0,25
0,38,106,25
0,41,80,0
0,44,68,0
0,51,70,0
0,29,97,1
0,60,69,0
0,60,69,0
0,38,0,3
0,44,0,0
0,51,0,0
0,57,0,13
0,65,0,4
0,60,0,4
0,65,0,21
0,65,0,0
0,41,0,29
0,51,48,20
0,53,81,1
0,60,99,0
0,55,104,1
0,64,83,0
0,64,82,0
0,64,87,0
0,51,0,2
0,29,0,29
0,53,0,41
0,48,0,21
0,53,0,0
0,35,123,2
0,36,94,0
0,48,81,0
0,60,92,0
0,67,104,0
0,72,88,0
0,55,85,3
0,60,85,0
0,35,0,1
0,42,96,7
0,42,0,4
0,60,0,31
0,60,0,0
0,48,0,40
0,60,76,9
0,60,76,0
0,60,80,1
0,42,49,12
0,42,0,4
0,36,0,26
0,64,0,4
0,64,0,0
0,60,0,28
0,38,105,22
0,48,82,0
0,64,93,0
0,64,91,0
0,36,90,1
0,38,0,3
0,42,93,4
0,42,0,4
0,48,0,81
0,40,94,3
0,60,83,0
0,65,79,0
0,40,0,4
0,65,0,0
0,42,47,4
0,42,0,4
0,36,0,23
0,60,0,11
0,60,0,0
0,60,0,23
0,36,86,27
0,48,82,0
0,35,126,1
0,60,80,0
0,60,76,0
0,35,0,4
0,42,75,0
0,42,0,4
0,64,0,37
0,64,0,0
0,35,123,2
0,40,77,1
0,66,63,0
0,35,0,3
0,40,0,1
0,66,0,0
0,64,0,1
0,55,0,2
0,60,0,2
0,48,0,31
0,40,79,7
0,60,81,0
0,65,55,0
0,60,92,1
0,64,80,0
0,64,86,0
0,46,100,1
0,57,80,0
0,65,85,0
0,40,0,2
0,65,0,0
0,46,0,2
0,36,0,21
0,60,0,19
0,60,0,0
0,60,0,22
0,65,0,18
0,57,0,1
0,60,0,0
0,36,98,8
0,38,104,1
0,48,86,0
0,60,78,1
0,60,75,0
0,42,74,2
0,38,0,1
0,42,0,3
0,40,65,40
0,66,47,0
0,40,0,4
0,66,0,0
0,48,0,34
0,64,0,9
0,40,60,1
0,65,41,0
0,38,93,1
0,57,88,0
0,60,85,0
0,60,75,0
0,65,70,0
0,65,98,0
0,40,0,3
0,65,0,0
0,38,0,1
0,36,0,21
0,38,94,23
0,38,0,4
0,60,0,8
0,60,0,17
0,72,0,0
0,67,0,4
0,55,0,13
0,60,0,0
0,60,0,0
0,64,0,0
0,35,127,2
0,49,82,0
0,38,109,2
0,35,0,2
0,49,0,0
0,60,0,70
0,42,73,21
0,60,59,1
0,42,0,3
0,65,0,65
0,38,105,28
0,42,106,0
0,65,81,1
0,38,0,3
0,42,0,0
0,38,0,15
0,35,123,77
0,38,102,0
0,42,53,0
0,35,0,4
0,42,0,0
0,38,0,37
0,60,0,5
0,57,0,48
0,60,83,0
0,60,0,0
0,65,0,0
0,38,104,2
0,42,99,0
0,60,59,0
0,35,122,1
0,42,0,3
0,35,0,1
0,57,98,2
0,65,0,39
0,60,0,13
0,57,0,6
0,65,66,31
0,42,42,1
0,60,85,1
0,57,96,2
0,60,93,0
0,42,0,1
0,65,97,0
0,57,104,1
0,60,0,40
0,60,67,49
0,38,108,1
0,42,97,0
0,38,0,4
0,42,0,0
0,57,0,4
0,65,0,3
0,60,0,5
0,60,0,3
0,57,0,9
0,65,0,18
0,38,0,17
0,60,85,32
0,35,120,1
0,42,60,0
0,31,97,1
0,65,68,0
0,35,0,3
0,42,0,0
0,55,100,0
0,55,94,0
0,60,98,0
0,64,98,0
0,31,0,66
0,35,122,26
0,42,98,0
0,36,93,1
0,35,0,3
0,42,0,0
0,60,0,4
0,55,0,12
0,60,0,26
0,60,85,38
0,42,48,12
0,60,54,1
0,42,0,3
0,55,107,6
0,65,0,36
0,60,0,45
0,38,103,5
0,42,106,0
0,65,74,1
0,38,0,3
0,42,0,0
0,55,0,20
0,36,0,6
0,62,89,57
0,36,89,7
0,58,99,0
0,35,124,2
0,42,52,0
0,35,0,4
0,42,0,0
0,60,0,42
0,36,0,6
0,36,110,43
0,42,106,1
0,35,124,1
0,60,58,0
0,42,0,3
0,35,0,1
0,62,0,4
0,58,0,13
0,55,0,9
0,64,0,0
0,60,0,5
0,65,0,10
0,57,118,42
0,60,84,6
0,42,51,2
0,60,93,0
0,57,87,1
0,65,67,0
0,65,97,0
0,42,0,3
0,60,0,42
0,36,0,12
0,57,0,21
0,65,0,7
0,60,0,8
0,38,105,2
0,42,104,0
0,60,53,0
0,36,108,1
0,38,0,3
0,42,0,0
0,65,0,42
0,60,0,8
0,57,0,10
0,60,90,23
0,57,97,8
0,42,57,2
0,60,86,0
0,65,67,0
0,57,86,1
0,65,91,0
0,42,0,3
0,36,0,44
0,35,126,47
0,42,105,1
0,60,0,0
0,29,106,1
0,35,0,2
0,42,0,1
0,53,94,1
0,57,0,13
0,60,0,27
