track,note,velocity,time
0,36,79,24
0,40,55,0
0,40,117,0
0,42,50,0
0,76,62,0
0,36,0,4
0,42,0,0
0,76,0,41
0,36,84,51
0,42,48,0
0,36,0,4
0,42,0,0
0,38,80,92
0,42,50,0
0,38,0,4
0,42,0,0
0,40,0,89
0,42,49,3
0,42,0,4
0,40,0,41
0,36,82,51
0,42,49,0
0,36,0,4
0,42,0,0
0,36,81,92
0,42,49,0
0,76,79,0
0,36,0,4
0,42,0,0
0,76,0,41
0,38,80,51
0,42,50,0
0,76,79,0
0,38,0,4
0,42,0,0
0,76,0,41
0,36,72,51
0,42,48,0
0,76,79,0
0,36,0,4
0,42,0,0
0,76,0,41
0,36,79,51
0,40,54,0
0,42,115,0
0,42,51,0
0,76,62,0
0,36,0,4
0,42,0,0
0,76,0,41
0,36,81,51
0,42,47,0
0,36,0,4
0,42,0,0
0,38,79,92
0,42,50,0
0,38,0,4
0,42,0,0
0,40,0,50
0,42,47,3
0,42,0,4
0,42,0,41
0,36,76,51
0,42,50,0
0,36,0,4
0,42,0,0
0,36,79,92
0,42,48,0
0,76,79,0
0,36,0,4
0,42,0,0
0,76,0,41
0,38,78,51
0,42,49,0
0,76,79,0
0,38,0,4
0,42,0,0
0,76,0,41
0,42,48,51
0,76,79,0
0,42,0,4
0,76,0,41
0,36,77,3
0,36,0,4
0,36,79,44
0,40,54,0
0,42,50,0
0,45,114,0
0,76,62,0
0,36,0,4
0,42,0,0
0,76,0,41
0,36,84,51
0,42,48,0
0,36,0,4
0,42,0,0
0,38,80,92
0,42,50,0
0,38,0,4
0,42,0,0
0,40,0,89
0,42,49,3
0,42,0,4
0,45,0,41
0,36,82,51
0,42,49,0
0,36,0,4
0,42,0,0
0,36,81,92
0,42,49,0
0,76,79,0
0,36,0,4
0,42,0,0
0,76,0,41
0,38,80,51
0,42,50,0
0,76,79,0
0,38,0,4
0,42,0,0
0,76,0,41
0,36,72,51
0,42,48,0
0,76,79,0
0,36,0,4
0,42,0,0
0,76,0,41
0,36,79,51
0,40,54,0
0,42,51,0
0,45,114,0
0,76,62,0
0,36,0,4
0,42,0,0
0,76,0,41
0,36,81,51
0,42,47,0
0,36,0,4
0,42,0,0
0,38,79,92
0,42,50,0
0,38,0,4
0,42,0,0
0,40,0,89
0,42,47,3
0,42,0,4
0,45,0,41
0,36,76,51
0,42,50,0
0,36,0,4
0,42,0,0
0,36,79,92
0,42,48,0
0,76,79,0
0,36,0,4
0,42,0,0
0,76,0,41
0,38,78,51
0,42,49,0
0,76,79,0
0,38,0,4
0,42,0,0
0,76,0,41
0,42,48,51
0,76,79,0
0,42,0,4
0,76,0,41
0,36,77,3
0,36,0,4
0,36,79,44
0,40,55,0
0,40,117,0
0,42,50,0
0,76,62,0
0,36,0,4
0,42,0,0
0,76,0,41
0,36,84,51
0,42,48,0
0,36,0,4
0,42,0,0
0,38,80,92
0,42,50,0
0,38,0,4
0,42,0,0
0,40,0,89
0,42,49,3
0,42,0,4
0,40,0,41
0,36,82,51
0,42,49,0
0,36,0,4
0,42,0,0
0,36,81,92
0,42,49,0
0,76,79,0
0,36,0,4
0,42,0,0
0,76,0,41
0,38,80,51
0,42,50,0
0,76,79,0
0,38,0,4
0,42,0,0
0,76,0,41
0,36,72,51
0,42,48,0
0,76,79,0
0,36,0,4
0,42,0,0
0,76,0,41
0,36,79,51
0,40,54,0
0,42,115,0
0,42,51,0
0,76,62,0
0,36,0,4
0,42,0,0
0,76,0,41
0,36,81,51
0,42,47,0
0,36,0,4
0,42,0,0
0,38,79,92
0,42,50,0
0,38,0,4
0,42,0,0
0,40,0,89
0,42,47,3
0,42,0,4
0,42,0,41
0,36,76,51
0,42,50,0
0,36,0,4
0,42,0,0
0,36,79,92
0,42,48,0
0,76,79,0
0,36,0,4
0,42,0,0
0,76,0,41
0,38,78,51
0,42,49,0
0,76,79,0
0,38,0,4
0,42,0,0
0,76,0,41
0,42,48,51
0,76,79,0
0,42,0,4
0,76,0,41
0,36,77,3
0,36,0,4
0,36,79,44
0,40,54,0
0,42,50,0
0,45,114,0
0,76,62,0
0,36,0,4
0,42,0,0
0,76,0,41
0,36,84,51
0,42,48,0
0,36,0,4
0,42,0,0
0,38,80,92
0,42,50,0
0,38,0,4
0,42,0,0
0,40,0,89
0,42,49,3
0,42,0,4
0,45,0,41
0,36,82,51
0,42,49,0
0,36,0,4
0,42,0,0
0,36,81,92
0,42,49,0
0,76,79,0
0,36,0,4
0,42,0,0
0,76,0,41
0,38,80,51
0,42,50,0
0,76,79,0
0,38,0,4
0,42,0,0
0,76,0,41
0,36,72,51
0,42,48,0
0,76,79,0
0,36,0,4
0,42,0,0
0,76,0,41
0,36,79,51
0,40,54,0
0,42,51,0
0,45,114,0
0,76,62,0
0,36,0,4
0,42,0,0
0,76,0,41
0,36,81,51
0,42,47,0
0,36,0,4
0,42,0,0
0,38,79,92
0,42,50,0
0,38,0,4
0,42,0,0
0,40,0,89
0,42,47,3
0,42,0,4
0,45,0,41
0,36,76,51
0,42,50,0
0,36,0,4
0,42,0,0
0,36,79,92
0,42,48,0
0,76,79,0
0,36,0,4
0,42,0,0
0,76,0,41
0,38,78,51
0,42,49,0
0,76,79,0
0,38,0,4
0,42,0,0
0,76,0,41
0,42,48,50
0,76,79,0
0,42,0,4
0,76,0,41
0,36,77,3
0,36,0,4
0,28,107,44
0,36,79,0
0,40,55,0
0,40,89,0
0,40,48,0
0,42,50,0
0,47,95,0
0,47,54,0
0,52,90,0
0,52,49,0
0,76,62,0
0,36,0,4
0,42,0,0
0,76,0,41
0,40,0,48
0,40,0,0
0,47,0,0
0,47,0,0
0,52,0,0
0,52,0,0
0,36,84,3
0,40,88,0
0,40,47,0
0,42,48,0
0,47,92,0
0,47,51,0
0,52,88,0
0,52,47,0
0,52,93,0
0,59,92,0
0,36,0,4
0,42,0,0
0,28,0,89
0,40,0,0
0,40,0,0
0,47,0,0
0,47,0,0
0,52,0,0
0,52,0,0
0,52,0,0
0,59,0,0
0,28,108,3
0,38,80,0
0,40,88,0
0,40,47,0
0,42,50,0
0,47,91,0
0,47,50,0
0,52,89,0
0,52,48,0
0,52,92,0
0,59,103,0
0,68,109,0
0,38,0,4
0,42,0,0
0,68,0,65
0,40,0,24
0,40,0,0
0,40,0,0
0,47,0,0
0,47,0,0
0,52,0,0
0,52,0,0
0,52,0,0
0,59,0,0
0,40,89,3
0,40,48,0
0,42,49,0
0,47,90,0
0,47,49,0
0,52,87,0
0,52,46,0
0,52,100,0
0,59,104,0
0,68,109,0
0,42,0,4
0,52,0,89
0,59,0,0
0,36,82,3
0,42,49,0
0,36,0,4
0,42,0,0
0,40,0,7
0,40,0,0
0,47,0,7
0,47,0,0
0,52,0,8
0,52,0,0
0,68,0,9
0,36,81,61
0,42,49,0
0,52,91,0
0,59,92,0
0,71,109,0
0,76,79,0
0,36,0,4
0,42,0,0
0,76,0,41
0,52,0,48
0,59,0,0
0,38,80,3
0,42,50,0
0,52,91,0
0,59,104,0
0,76,79,0
0,38,0,4
0,42,0,0
0,71,0,31
0,76,0,10
0,52,0,48
0,59,0,0
0,36,72,3
0,42,48,0
0,52,100,0
0,59,108,0
0,70,109,0
0,76,79,0
0,36,0,4
0,42,0,0
0,76,0,41
0,28,0,48
0,52,0,0
0,59,0,0
0,30,107,3
0,36,79,0
0,40,54,0
0,42,90,0
0,42,49,0
0,42,51,0
0,49,91,0
0,49,50,0
0,54,89,0
0,54,48,0
0,76,62,0
0,36,0,4
0,42,0,0
0,76,0,41
0,70,0,3
0,42,0,45
0,42,0,0
0,49,0,0
0,49,0,0
0,54,0,0
0,54,0,0
0,36,81,3
0,42,90,0
0,42,49,0
0,42,47,0
0,49,92,0
0,49,51,0
0,52,92,0
0,54,90,0
0,54,49,0
0,58,92,0
0,70,109,0
0,36,0,4
0,42,0,0
0,30,0,1
0,42,0,0
0,42,0,0
0,49,0,0
0,49,0,0
0,52,0,0
0,54,0,0
0,54,0,0
0,58,0,0
0,30,108,3
0,38,79,0
0,42,89,0
0,42,48,0
0,42,50,0
0,49,91,0
0,49,50,0
0,52,92,0
0,54,89,0
0,54,48,0
0,58,101,0
0,38,0,4
0,42,0,0
0,70,0,50
0,40,0,39
0,42,0,0
0,42,0,0
0,49,0,0
0,49,0,0
0,52,0,0
0,54,0,0
0,54,0,0
0,58,0,0
0,42,90,3
0,42,49,0
0,42,47,0
0,49,91,0
0,49,50,0
0,52,100,0
0,54,90,0
0,54,49,0
0,58,101,0
0,68,109,0
0,42,0,4
0,52,0,89
0,54,0,0
0,54,0,0
0,58,0,0
0,49,0,2
0,49,0,0
0,36,76,1
0,42,50,0
0,36,0,4
0,42,0,0
0,42,0,3
0,42,0,0
0,68,0,53
0,36,79,36
0,42,48,0
0,52,93,0
0,58,93,0
0,66,106,0
0,76,79,0
0,36,0,4
0,42,0,0
0,76,0,41
0,52,0,48
0,58,0,0
0,38,78,3
0,42,49,0
0,52,93,0
0,58,100,0
0,76,79,0
0,38,0,4
0,42,0,0
0,76,0,41
0,52,0,48
0,58,0,0
0,42,48,3
0,52,100,0
0,58,100,0
0,71,106,0
0,76,79,0
0,42,0,4
0,66,0,4
0,76,0,37
0,36,77,3
0,36,0,4
0,30,0,41
0,52,0,0
0,58,0,0
0,33,106,3
0,36,79,0
0,40,54,0
0,42,50,0
0,45,88,0
0,45,47,0
0,52,89,0
0,52,48,0
0,57,88,0
0,57,47,0
0,71,88,0
0,76,62,0
0,36,0,4
0,42,0,0
0,76,0,32
0,45,0,0
0,45,0,0
0,52,0,0
0,52,0,0
0,57,0,0
0,57,0,0
0,36,84,3
0,42,48,0
0,45,88,0
0,45,47,0
0,52,92,0
0,52,51,0
0,52,92,0
0,57,91,0
0,57,50,0
0,59,92,0
0,36,0,4
0,42,0,0
0,45,0,9
0,45,0,0
0,52,0,0
0,52,0,0
0,52,0,0
0,57,0,0
0,57,0,0
0,59,0,0
0,38,80,3
0,42,50,0
0,45,89,0
0,45,48,0
0,52,91,0
0,52,50,0
0,52,92,0
0,57,89,0
0,57,48,0
0,59,106,0
0,38,0,4
0,42,0,0
0,40,0,54
0,45,0,0
0,45,0,0
0,52,0,0
0,52,0,0
0,52,0,0
0,57,0,0
0,57,0,0
0,59,0,0
0,42,49,3
0,45,89,0
0,45,48,0
0,52,90,0
0,52,49,0
0,52,99,0
0,57,89,0
0,57,48,0
0,59,105,0
0,42,0,4
0,45,0,11
0,45,0,0
0,52,0,0
0,52,0,0
0,52,0,0
0,57,0,0
0,57,0,0
0,59,0,0
0,36,82,3
0,42,49,0
0,36,0,4
0,42,0,0
0,36,81,57
0,42,49,0
0,52,91,0
0,59,91,0
0,76,79,0
0,36,0,4
0,42,0,0
0,71,0,2
0,76,0,17
0,52,0,7
0,59,0,0
0,38,80,3
0,42,50,0
0,52,100,0
0,59,106,0
0,76,79,0
0,38,0,4
0,42,0,0
0,76,0,41
0,52,0,37
0,59,0,0
0,36,72,3
0,42,48,0
0,52,100,0
0,59,106,0
0,76,79,0
0,36,0,4
0,42,0,0
0,76,0,10
0,52,0,48
0,59,0,0
0,36,79,3
0,40,54,0
0,42,51,0
0,45,88,0
0,52,89,0
0,57,88,0
0,76,62,0
0,36,0,2
0,42,0,0
0,76,0,41
0,45,0,12
0,52,0,0
0,57,0,0
0,36,81,3
0,42,47,0
0,45,88,0
0,52,92,0
0,52,92,0
0,57,91,0
0,61,92,0
0,36,0,4
0,42,0,0
0,45,0,36
0,52,0,0
0,52,0,0
0,57,0,0
0,61,0,0
0,38,79,3
0,42,50,0
0,45,89,0
0,52,91,0
0,52,99,0
0,57,89,0
0,61,101,0
0,38,0,4
0,42,0,0
0,40,0,89
0,45,0,0
0,52,0,0
0,52,0,0
0,57,0,0
0,61,0,0
0,42,47,3
0,45,89,0
0,52,90,0
0,52,101,0
0,57,89,0
0,61,101,0
0,42,0,4
0,45,0,5
0,52,0,0
0,52,0,0
0,57,0,0
0,61,0,0
0,36,76,3
0,42,50,0
0,36,0,4
0,42,0,0
0,36,79,11
0,42,48,0
0,52,92,0
0,59,92,0
0,76,79,0
0,36,0,4
0,42,0,0
0,76,0,19
0,52,0,35
0,59,0,0
0,38,78,3
0,42,49,0
0,52,99,0
0,59,105,0
0,76,79,0
0,38,0,4
0,42,0,0
0,76,0,31
0,52,0,17
0,59,0,0
0,42,48,3
0,52,99,0
0,59,104,0
0,76,79,0
0,42,0,4
0,33,0,11
0,76,0,0
0,36,77,3
0,36,0,4
0,71,0,8
0,52,0,29
0,59,0,0
0,28,107,3
0,36,79,0
0,40,55,0
0,40,89,0
0,40,48,0
0,42,50,0
0,47,95,0
0,47,54,0
0,52,90,0
0,52,49,0
0,76,62,0
0,36,0,4
0,42,0,0
0,76,0,31
0,40,0,32
0,40,0,0
0,47,0,0
0,47,0,0
0,52,0,0
0,52,0,0
0,36,84,3
0,40,88,0
0,40,47,0
0,42,48,0
0,47,92,0
0,47,51,0
0,52,88,0
0,52,47,0
0,52,93,0
0,59,92,0
0,68,110,0
0,36,0,4
0,42,0,0
0,28,0,89
0,40,0,0
0,40,0,0
0,47,0,0
0,47,0,0
0,52,0,0
0,52,0,0
0,52,0,0
0,59,0,0
0,28,108,3
0,38,80,0
0,40,88,0
0,40,47,0
0,42,50,0
0,47,91,0
0,47,50,0
0,52,89,0
0,52,48,0
0,52,92,0
0,59,103,0
0,38,0,4
0,42,0,0
0,68,0,18
0,40,0,71
0,40,0,0
0,40,0,0
0,47,0,0
0,47,0,0
0,52,0,0
0,52,0,0
0,52,0,0
0,59,0,0
0,40,89,3
0,40,48,0
0,42,49,0
0,47,90,0
0,47,49,0
0,52,87,0
0,52,46,0
0,52,100,0
0,59,104,0
0,68,111,0
0,42,0,4
0,52,0,89
0,59,0,0
0,36,82,3
0,42,49,0
0,36,0,4
0,42,0,0
0,40,0,7
0,40,0,0
0,47,0,7
0,47,0,0
0,52,0,8
0,52,0,0
0,68,0,10
0,36,81,60
0,42,49,0
0,52,91,0
0,59,92,0
0,71,110,0
0,76,79,0
0,36,0,4
0,42,0,0
0,76,0,41
0,52,0,48
0,59,0,0
0,38,80,3
0,42,50,0
0,52,91,0
0,59,104,0
0,76,79,0
0,38,0,4
0,42,0,0
0,71,0,26
0,76,0,15
0,52,0,48
0,59,0,0
0,36,72,3
0,42,48,0
0,52,100,0
0,59,108,0
0,70,111,0
0,76,79,0
0,36,0,4
0,42,0,0
0,76,0,41
0,28,0,48
0,52,0,0
0,59,0,0
0,30,107,3
0,36,79,0
0,40,54,0
0,42,90,0
0,42,49,0
0,42,51,0
0,49,91,0
0,49,50,0
0,54,89,0
0,54,48,0
0,76,62,0
0,36,0,4
0,42,0,0
0,70,0,19
0,76,0,22
0,42,0,48
0,42,0,0
0,49,0,0
0,49,0,0
0,54,0,0
0,54,0,0
0,36,81,3
0,42,90,0
0,42,49,0
0,42,47,0
0,49,92,0
0,49,51,0
0,52,92,0
0,54,90,0
0,54,49,0
0,58,92,0
0,70,111,0
0,36,0,4
0,42,0,0
0,30,0,1
0,42,0,0
0,42,0,0
0,49,0,0
0,49,0,0
0,52,0,0
0,54,0,0
0,54,0,0
0,58,0,0
0,30,108,3
0,38,79,0
0,42,89,0
0,42,48,0
0,42,50,0
0,49,91,0
0,49,50,0
0,52,92,0
0,54,89,0
0,54,48,0
0,58,101,0
0,38,0,4
0,42,0,0
0,70,0,19
0,40,0,70
0,42,0,0
0,42,0,0
0,49,0,0
0,49,0,0
0,52,0,0
0,54,0,0
0,54,0,0
0,58,0,0
0,42,90,3
0,42,49,0
0,42,47,0
0,49,91,0
0,49,50,0
0,52,100,0
0,54,90,0
0,54,49,0
0,58,101,0
0,42,0,4
0,52,0,89
0,54,0,0
0,54,0,0
0,58,0,0
0,49,0,2
0,49,0,0
0,36,76,1
0,42,50,0
0,68,112,0
0,36,0,4
0,42,0,0
0,42,0,3
0,42,0,0
