track,note,velocity,time
0,71,79,32
0,36,127,1
0,55,54,0
0,62,91,0
0,62,54,0
0,62,79,0
0,67,54,0
0,67,80,1
0,36,0,3
0,62,0,2
0,67,0,1
0,62,67,1
0,67,61,2
0,62,0,9
0,71,0,0
0,62,73,2
0,67,0,0
0,71,79,0
0,67,79,4
0,38,87,19
0,40,88,0
0,81,44,0
0,71,0,0
0,38,0,3
0,40,0,0
0,81,0,0
0,62,0,3
0,67,0,1
0,62,0,16
0,62,75,0
0,55,92,1
0,64,75,0
0,69,76,1
0,62,0,18
0,64,0,0
0,64,46,2
0,69,0,1
0,62,49,2
0,69,45,0
0,64,0,17
0,69,0,2
0,62,0,1
0,64,59,0
0,69,59,1
0,36,114,0
0,62,58,1
0,36,0,2
0,64,0,3
0,62,0,1
0,69,0,0
0,62,58,2
0,38,86,2
0,40,87,0
0,64,59,1
0,69,62,1
0,38,0,2
0,40,0,0
0,62,0,7
0,64,0,1
0,64,71,2
0,69,0,1
0,69,72,2
0,62,72,1
0,64,0,11
0,69,0,1
0,62,0,1
0,69,61,1
0,62,62,1
0,64,62,0
0,69,0,27
0,62,0,1
0,64,0,0
0,57,79,50
0,62,80,0
0,36,124,0
0,66,79,0
0,36,0,4
0,57,0,23
0,62,0,0
0,57,67,7
0,62,61,0
0,57,0,5
0,62,0,0
0,66,0,0
0,57,73,2
0,62,79,0
0,66,79,0
0,38,88,0
0,40,89,0
0,66,0,2
0,38,0,2
0,40,0,0
0,62,0,1
0,57,0,3
0,69,76,51
0,67,75,0
0,59,75,2
0,62,75,0
0,59,0,49
0,67,0,0
0,59,49,2
0,62,0,0
0,62,49,3
0,67,49,0
0,59,0,42
0,67,0,0
0,62,0,1
0,59,52,1
0,67,53,0
0,62,53,1
0,36,114,1
0,36,0,2
0,59,0,87
0,67,0,0
0,69,0,0
0,62,0,1
0,59,58,2
0,67,59,1
0,38,89,1
0,40,90,0
0,62,58,2
0,69,62,0
0,38,0,2
0,40,0,0
0,59,0,39
0,62,0,1
0,67,0,0
0,69,0,1
0,62,67,1
0,67,68,0
0,69,68,1
0,59,67,1
0,62,0,43
0,67,0,0
0,69,0,1
0,55,0,1
0,59,0,0
0,62,62,1
0,67,62,1
0,69,61,0
0,59,62,1
0,62,0,10
0,67,0,1
0,69,0,0
0,59,0,1
0,71,79,34
0,36,127,2
0,62,91,0
0,62,79,1
0,67,80,0
0,36,0,3
0,62,0,42
0,67,0,0
0,62,67,2
0,67,61,2
0,71,0,21
0,62,0,2
0,67,0,1
0,62,73,1
0,67,79,1
0,71,79,2
0,38,87,46
0,40,88,0
0,81,44,0
0,38,0,4
0,40,0,0
0,81,0,0
0,71,0,1
0,67,0,1
0,62,0,2
0,62,0,8
0,64,75,0
0,69,76,0
0,55,92,1
0,62,75,1
0,64,0,41
0,69,0,0
0,62,0,1
0,69,45,1
0,62,49,1
0,64,46,3
0,69,0,13
0,62,0,1
0,64,0,0
0,62,58,2
0,64,59,0
0,36,114,0
0,69,59,1
0,36,0,3
0,62,0,28
0,64,0,0
0,69,0,1
0,69,62,2
0,38,86,2
0,40,87,0
0,62,58,1
0,64,59,0
0,38,0,3
0,40,0,0
0,69,0,39
0,64,0,1
0,62,0,2
0,64,71,0
0,69,72,1
0,62,72,3
0,64,0,41
0,69,0,1
0,69,61,2
0,62,0,1
0,62,62,2
0,64,62,0
0,69,0,16
0,62,0,4
0,64,0,0
0,66,79,48
0,61,83,1
0,36,124,0
0,62,80,1
0,57,79,1
0,36,0,1
0,57,0,41
0,62,0,0
0,57,67,2
0,62,61,0
0,57,0,42
0,62,0,0
0,66,0,0
0,66,79,2
0,62,79,1
0,57,73,1
0,61,0,45
0,38,88,0
0,40,89,0
0,58,80,0
0,66,0,1
0,38,0,3
0,40,0,0
0,62,0,1
0,57,0,4
0,58,0,77
0,59,81,3
0,62,75,0
0,67,75,0
0,69,76,1
0,59,75,1
0,62,0,1
0,67,0,0
0,59,0,1
0,59,49,2
0,62,49,0
0,67,49,0
0,59,0,45
0,62,0,0
0,67,0,0
0,36,114,3
0,59,52,1
0,62,53,1
0,67,53,0
0,36,0,2
0,69,0,20
0,59,0,1
0,62,0,0
0,67,0,0
0,69,62,1
0,38,89,1
0,40,90,0
0,62,58,0
0,67,59,0
0,59,58,1
0,38,0,3
0,40,0,0
0,69,0,40
0,62,0,1
0,67,0,0
0,59,0,1
0,69,68,0
0,67,68,2
0,59,67,1
0,62,67,0
0,69,0,42
0,55,0,2
0,59,0,0
0,62,0,0
0,67,0,0
0,59,0,1
0,62,62,1
0,59,62,1
0,69,61,0
0,67,62,2
0,62,0,42
0,59,0,1
0,69,0,0
0,67,0,2
0,67,80,38
0,36,127,2
0,42,73,0
0,62,91,0
0,70,87,0
0,71,79,0
0,62,79,2
0,36,0,2
0,42,0,0
0,70,0,0
0,67,0,39
0,62,0,4
0,62,67,2
0,67,61,0
0,70,30,7
0,70,0,4
0,36,103,12
0,42,73,0
0,70,87,0
0,36,0,4
0,42,0,0
0,70,0,0
0,71,0,23
0,62,0,1
0,67,0,0
0,67,79,2
0,62,73,1
0,71,79,0
0,70,33,7
0,70,0,4
0,38,95,36
0,40,88,0
0,42,73,0
0,70,91,0
0,81,44,0
0,38,0,4
0,40,0,0
0,42,0,0
0,70,0,0
0,71,0,0
0,81,0,0
0,67,0,2
0,62,0,4
0,70,32,26
0,70,0,4
0,62,0,33
0,62,75,1
0,42,72,1
0,55,92,0
0,69,76,0
0,70,91,0
0,64,75,1
0,42,0,3
0,70,0,0
0,36,91,14
0,42,70,0
0,70,33,0
0,36,0,4
0,42,0,0
0,70,0,0
0,36,125,36
0,42,72,0
0,70,88,0
0,36,0,4
0,42,0,0
0,70,0,0
0,62,0,39
0,69,0,2
0,64,0,1
0,62,49,1
0,69,45,0
0,64,46,1
0,70,28,8
0,70,0,4
0,62,0,31
0,69,0,0
0,64,0,1
0,62,58,2
0,36,114,0
0,42,72,0
0,70,89,0
0,64,59,1
0,69,59,0
0,36,0,3
0,42,0,0
0,70,0,0
0,70,32,52
0,70,0,4
0,62,0,9
0,64,0,0
0,64,59,2
0,69,0,0
0,38,96,2
0,40,87,0
0,42,72,0
0,69,62,0
0,70,91,0
0,62,58,1
0,38,0,3
0,40,0,0
0,42,0,0
0,70,0,0
0,64,0,39
0,69,0,2
0,62,0,1
0,64,71,1
0,69,72,0
0,62,72,2
0,70,32,7
0,70,0,4
0,64,0,32
0,69,0,0
0,62,0,2
0,42,72,0
0,62,62,0
0,69,61,0
0,70,86,0
0,64,62,1
0,42,0,3
0,70,0,0
0,62,0,41
0,69,0,0
0,64,0,1
0,36,92,3
0,42,70,0
0,70,42,0
0,36,0,4
0,42,0,0
0,70,0,0
0,66,79,34
0,62,80,1
0,36,127,0
0,42,73,0
0,70,87,0
0,57,79,2
0,36,0,2
0,42,0,0
0,70,0,0
0,62,0,40
0,57,0,3
0,62,61,2
0,57,67,1
0,70,30,6
0,70,0,4
0,36,103,12
0,42,73,0
0,70,87,0
0,36,0,4
0,42,0,0
0,70,0,0
0,66,0,39
0,62,0,2
0,57,0,2
0,62,79,0
0,66,79,1
0,57,73,1
0,70,33,7
0,70,0,4
0,38,96,0
0,40,89,0
0,42,73,0
0,70,91,0
0,66,0,3
0,38,0,1
0,40,0,0
0,42,0,0
0,70,0,0
0,62,0,1
0,57,0,5
0,70,32,41
0,70,0,4
0,62,75,34
0,67,75,0
0,42,72,0
0,70,91,0
0,59,75,1
0,69,76,1
0,42,0,2
0,70,0,0
0,42,70,33
0,70,33,0
0,36,87,1
0,42,0,3
0,70,0,0
0,36,0,1
0,36,127,35
0,42,72,0
0,70,88,0
0,36,0,4
0,42,0,0
0,70,0,0
0,62,0,39
0,67,0,0
0,59,0,1
0,59,49,2
0,62,49,2
0,67,49,2
0,70,28,6
0,70,0,4
0,59,0,13
0,62,0,2
0,67,0,1
0,36,114,2
0,42,72,0
0,59,52,0
0,62,53,0
0,67,53,0
0,70,89,0
0,36,0,4
0,42,0,0
0,70,0,0
0,70,32,52
0,70,0,4
0,59,0,33
0,62,0,0
0,67,0,0
0,69,0,0
0,62,58,2
0,69,62,0
0,38,96,1
0,40,90,0
0,42,72,0
0,67,59,0
0,70,91,0
0,59,58,1
0,38,0,3
0,40,0,0
0,42,0,0
0,70,0,0
0,59,0,40
0,62,0,0
0,69,0,0
0,67,0,1
0,59,67,1
0,62,67,2
0,67,68,0
0,69,68,2
0,70,32,6
0,70,0,4
0,59,0,27
0,55,0,2
0,62,0,0
0,67,0,0
0,69,0,2
0,38,75,1
0,42,72,0
0,45,65,0
0,70,86,0
0,62,62,1
0,59,62,1
0,67,62,0
0,69,61,0
0,38,0,2
0,42,0,0
0,70,0,0
0,62,0,42
0,59,0,1
0,67,0,0
0,69,0,0
0,36,77,9
0,42,70,0
0,70,42,0
0,36,0,4
0,42,0,0
0,70,0,0
0,67,80,32
0,36,127,2
0,42,73,0
0,45,0,0
0,62,91,0
0,70,87,0
0,71,79,0
0,62,79,2
0,36,0,2
0,42,0,0
0,70,0,0
0,67,0,39
0,62,0,4
0,67,61,0
0,62,67,3
0,70,30,6
0,70,0,4
0,36,103,7
0,42,73,0
0,70,87,0
0,36,0,4
0,42,0,0
0,70,0,0
0,67,0,22
0,71,0,1
0,62,0,2
0,62,73,3
0,67,79,0
0,71,79,0
0,70,33,6
0,70,0,4
0,38,95,36
0,40,88,0
0,42,73,0
0,70,91,0
0,81,44,0
0,38,0,4
0,40,0,0
0,42,0,0
0,70,0,0
0,81,0,0
0,71,0,1
0,67,0,3
0,62,0,3
0,70,32,37
0,70,0,4
0,62,0,33
0,64,75,1
0,42,72,1
0,55,92,0
0,69,76,0
0,70,91,0
0,62,75,2
0,42,0,2
0,70,0,0
0,36,91,52
0,42,70,0
0,70,33,0
0,36,0,4
0,42,0,0
0,70,0,0
0,36,125,15
0,42,72,0
0,70,88,0
0,36,0,4
0,42,0,0
0,70,0,0
0,64,0,39
0,69,0,2
0,62,0,1
0,64,46,0
0,62,49,2
0,69,45,1
0,70,28,7
0,70,0,4
0,64,0,9
0,62,0,2
0,69,0,1
0,36,114,0
0,42,72,0
0,62,58,0
0,70,89,0
0,64,59,1
0,69,59,1
0,36,0,2
0,42,0,0
0,70,0,0
0,70,32,52
0,70,0,4
0,62,0,33
0,69,0,0
0,64,0,1
0,69,62,1
0,38,96,1
0,40,87,0
0,42,72,0
0,64,59,0
0,70,91,0
0,62,58,1
0,38,0,3
0,40,0,0
0,42,0,0
0,70,0,0
0,69,0,25
0,62,0,1
0,64,0,0
0,62,72,2
0,69,72,1
0,64,71,2
0,70,32,6
0,70,0,4
0,62,0,32
0,69,0,1
0,64,0,2
0,69,61,0
0,42,72,0
0,70,86,0
0,62,62,1
0,64,62,1
0,42,0,2
0,70,0,0
0,69,0,14
0,62,0,2
0,64,0,1
0,36,92,9
0,42,70,0
0,70,42,0
0,36,0,4
0,42,0,0
0,70,0,0
0,55,0,33
0,57,79,1
0,36,127,1
0,42,73,0
0,60,81,0
0,62,80,0
0,66,79,0
0,70,87,0
0,36,0,4
0,42,0,0
0,70,0,0
0,57,0,39
0,62,0,2
0,57,67,1
0,62,61,1
0,70,30,9
0,70,0,4
0,36,103,33
0,42,73,0
0,70,87,0
0,36,0,4
0,42,0,0
0,70,0,0
0,57,0,39
0,62,0,1
0,60,0,1
0,66,0,0
0,57,73,3
0,59,87,0
0,62,79,2
0,66,79,0
0,70,33,6
0,70,0,3
0,38,96,36
0,40,89,0
0,42,73,0
0,70,91,0
0,38,0,4
0,40,0,0
0,42,0,0
0,70,0,0
0,66,0,1
0,62,0,3
0,57,0,1
0,70,32,47
0,70,0,4
0,59,0,26
0,67,75,2
0,42,72,1
0,55,84,0
0,69,76,0
0,70,91,0
0,59,75,1
0,62,75,1
0,42,0,2
0,70,0,0
0,38,98,8
0,42,70,0
0,57,46,0
0,70,33,0
0,36,87,1
0,57,0,1
0,38,0,2
0,42,0,0
0,70,0,0
0,36,0,1
0,55,0,32
0,36,127,3
0,38,86,0
0,42,72,0
0,50,84,0
0,56,69,0
0,70,88,0
0,56,0,2
0,36,0,2
0,38,0,0
0,42,0,0
0,70,0,0
0,59,0,13
0,62,0,0
0,67,0,0
0,59,49,2
0,62,49,0
0,67,49,4
0,70,28,6
0,70,0,4
0,59,0,31
0,62,0,0
0,67,0,4
0,36,114,1
0,38,66,0
0,42,72,0
0,55,62,0
0,59,52,0
0,62,53,0
0,70,89,0
0,67,53,1
0,55,0,1
0,36,0,2
0,38,0,0
0,42,0,0
0,70,0,0
0,70,32,52
0,70,0,4
0,59,0,8
0,62,0,0
0,67,0,0
0,69,0,0
0,67,59,2
0,38,79,1
0,42,72,0
0,52,74,0
0,62,58,0
0,70,91,0
0,59,58,1
0,69,62,0
0,52,0,1
0,38,0,2
0,42,0,0
0,70,0,0
0,67,0,40
0,69,0,0
0,62,0,1
0,59,0,1
0,69,68,0
0,59,67,3
0,62,67,0
0,67,68,0
0,38,79,7
0,52,71,0
0,70,32,0
0,52,0,2
0,38,0,2
0,70,0,0
0,69,0,31
0,62,0,1
0,59,0,2
0,62,62,0
0,67,0,0
0,42,72,2
0,67,62,0
0,70,86,0
0,59,62,2
0,69,61,0
0,42,0,2
0,70,0,0
0,62,0,39
0,67,0,2
0,59,0,2
0,69,0,0
0,42,70,9
0,70,42,0
0,50,0,2
0,42,0,2
0,70,0,0
0,67,80,35
0,36,127,1
0,42,73,0
0,47,83,0
0,70,87,0
0,71,116,0
0,62,79,2
0,71,79,0
0,36,0,2
0,42,0,0
0,70,0,0
0,67,0,40
0,62,0,1
0,67,61,1
0,62,67,1
0,70,30,9
0,70,0,4
0,36,103,36
0,42,73,0
0,70,87,0
0,36,0,4
0,42,0,0
0,70,0,0
0,67,0,39
0,62,0,1
0,71,0,0
0,71,79,2
0,62,73,1
0,67,79,1
0,71,0,1
0,71,114,3
0,70,33,4
0,70,0,4
0,38,95,36
0,40,88,0
0,42,73,0
0,70,91,0
0,81,44,0
0,71,0,1
0,38,0,3
0,40,0,0
0,42,0,0
0,70,0,0
0,81,0,0
0,67,0,2
0,62,0,2
0,47,0,40
0,71,0,1
0,69,115,3
0,70,32,4
0,70,0,4
0,62,75,34
0,42,72,2
0,48,85,0
0,70,91,0
0,64,75,2
0,69,76,0
0,42,0,2
0,70,0,0
0,69,0,45
0,67,110,3
0,36,91,4
0,42,70,0
0,70,33,0
0,36,0,4
0,42,0,0
0,70,0,0
0,55,0,33
0,62,0,0
0,67,0,0
0,67,0,0
0,36,125,3
0,42,72,0
0,69,113,0
0,70,88,0
0,36,0,4
0,42,0,0
0,70,0,0
0,62,0,39
0,64,0,4
0,69,0,0
0,62,49,3
0,64,46,0
0,69,45,0
0,70,28,6
0,70,0,4
0,62,0,35
0,64,0,0
0,69,0,0
0,36,114,1
0,42,72,0
0,70,89,0
0,62,58,1
0,64,59,0
0,69,59,1
0,36,0,2
0,42,0,0
0,70,0,0
0,69,0,45
0,69,114,3
0,70,32,4
0,70,0,4
0,64,0,33
0,69,0,0
0,62,0,1
0,64,59,1
0,69,62,0
0,38,96,1
0,40,87,0
0,42,72,0
0,62,58,0
0,70,91,0
0,48,0,2
0,38,0,2
0,40,0,0
0,42,0,0
0,70,0,0
0,62,0,40
0,64,0,0
0,69,0,0
0,62,72,2
0,64,71,1
0,69,0,2
0,69,72,1
0,62,107,2
0,70,32,4
0,70,0,4
0,62,0,31
0,64,0,1
0,62,0,1
0,69,0,1
0,42,72,2
0,62,109,0
0,62,62,0
0,64,62,0
0,69,61,0
0,70,86,0
0,42,0,4
0,70,0,0
0,62,0,41
0,64,0,0
0,69,0,0
0,62,0,4
0,62,105,3
0,36,92,4
0,42,70,0
0,70,42,0
0,36,0,4
0,42,0,0
0,70,0,0
0,62,0,33
0,36,127,3
0,42,73,0
0,54,84,0
0,66,79,0
0,70,87,0
0,71,115,0
