track,note,velocity,time
0,45,127,135
0,45,127,0
0,52,126,12
0,45,121,9
0,52,127,6
0,45,126,1
0,61,57,36
0,52,126,44
0,57,127,10
0,54,75,3
0,59,126,8
0,56,111,3
0,61,107,7
0,64,60,3
0,64,108,0
0,68,111,4
0,61,53,3
0,45,126,3
0,52,127,1
0,57,127,3
0,52,108,0
0,59,126,0
0,68,108,1
0,61,109,3
0,64,102,0
0,64,67,4
0,64,111,2
0,47,127,5
0,47,126,2
0,54,111,4
0,42,110,5
0,47,120,6
0,61,52,9
0,47,126,3
0,54,127,0
0,59,126,0
0,64,67,4
0,47,115,0
0,63,127,1
0,54,74,2
0,54,115,7
0,66,127,0
0,59,114,7
0,63,114,6
0,66,117,4
0,61,50,93
0,47,31,84
0,47,126,2
0,64,66,0
0,54,127,5
0,59,126,0
0,63,126,4
0,66,127,2
0,52,116,0
0,68,117,3
0,59,117,5
0,64,118,1
0,40,105,14
0,47,104,5
0,52,104,2
0,56,105,0
0,59,105,3
0,64,102,2
0,40,104,4
0,47,105,0
0,52,104,7
0,56,105,1
0,59,115,5
0,54,75,0
0,47,123,0
0,40,114,0
0,54,122,0
0,47,115,0
0,59,120,1
0,52,114,1
0,56,114,5
0,66,121,0
0,59,115,3
0,64,113,1
0,40,112,0
0,45,126,1
0,52,111,1
0,57,111,3
0,59,110,2
0,64,110,4
0,52,127,32
0,59,126,39
0,64,126,40
0,69,127,5
0,68,127,2
0,64,111,5
0,59,110,0
0,57,111,5
0,52,111,5
0,45,110,2
0,40,113,3
0,54,75,0
0,66,126,0
0,40,110,1
0,45,110,1
0,52,111,1
0,64,111,2
0,57,112,1
0,59,114,3
0,64,126,3
0,64,115,0
0,59,115,1
0,57,114,4
0,52,114,1
0,45,115,0
0,40,114,1
0,45,127,0
0,40,127,0
0,45,127,0
0,52,126,11
0,40,121,0
0,45,120,9
0,52,126,6
0,45,126,1
0,61,51,4
0,52,127,44
0,57,127,10
0,64,63,1
0,54,74,2
0,59,126,8
0,56,111,3
0,61,107,1
0,64,108,4
0,68,111,4
0,61,50,93
0,45,126,3
0,52,127,1
0,64,68,7
0,57,127,1
0,52,108,0
0,59,126,0
0,68,108,0
0,61,109,5
0,64,102,0
0,64,111,7
0,47,127,5
0,47,126,2
0,54,110,4
0,42,111,5
0,61,49,4
0,47,121,2
0,47,126,12
0,54,126,0
0,64,67,1
0,59,127,0
0,47,115,4
0,63,126,1
0,54,75,2
0,54,115,7
0,66,126,0
0,59,114,7
0,63,114,6
0,66,117,4
0,61,56,76
0,47,31,97
0,66,68,6
0,47,127,3
0,54,127,5
0,59,126,0
0,63,126,4
0,66,127,2
0,52,116,0
0,68,117,3
0,59,117,5
0,64,118,1
0,40,105,1
0,47,104,5
0,52,104,1
0,56,105,0
0,59,104,3
0,64,103,2
0,40,105,4
0,61,55,0
0,47,104,0
0,52,105,3
0,56,104,1
0,59,114,5
0,54,74,0
0,47,123,0
0,40,115,0
0,54,122,0
0,47,115,0
0,59,120,1
0,52,114,1
0,56,114,5
0,66,121,0
0,59,115,3
0,64,113,1
0,40,112,0
0,45,126,1
0,59,52,1
0,52,111,0
0,57,110,3
0,59,111,2
0,64,111,4
0,52,127,12
0,59,126,39
0,64,126,40
0,69,127,5
0,68,127,2
0,64,110,5
0,59,111,0
0,57,110,5
0,52,110,5
0,45,111,2
0,40,113,3
0,54,74,0
0,66,126,0
0,40,110,1
0,45,110,1
0,52,111,6
0,64,111,2
0,57,112,1
0,59,114,4
0,64,126,4
0,64,115,0
0,59,114,1
0,57,115,4
0,52,115,1
0,45,114,0
0,40,115,1
0,45,127,0
0,40,126,0
0,45,126,0
0,52,127,11
0,83,115,148
0,40,121,0
0,45,120,9
0,52,126,6
0,45,126,1
0,61,51,18
0,52,127,44
0,57,127,10
0,83,114,3
0,54,75,0
0,59,126,8
0,56,111,3
0,61,107,7
0,64,63,3
0,64,108,0
0,68,111,4
0,61,50,40
0,45,126,3
0,52,127,1
0,57,126,8
0,52,108,0
0,59,127,0
0,68,108,1
0,61,109,3
0,64,103,0
0,64,65,4
0,64,111,3
0,83,115,5
0,47,126,5
0,47,126,2
0,54,111,4
0,83,115,25
0,42,110,5
0,47,120,6
0,61,48,9
0,47,126,3
0,54,127,0
0,59,127,0
0,64,66,4
0,47,115,0
0,63,126,1
0,83,114,2
0,54,75,0
0,54,115,7
0,66,126,0
0,59,114,7
0,63,114,6
0,66,117,4
0,61,49,7
0,47,31,84
0,47,127,2
0,64,67,0
0,54,127,5
0,59,126,0
0,63,126,4
0,66,127,2
0,52,116,0
0,83,115,3
0,68,117,3
0,59,117,5
0,64,118,1
0,40,104,14
0,47,105,5
0,52,105,2
0,56,104,0
0,59,105,3
0,64,102,2
0,40,104,4
0,47,105,0
0,52,105,7
0,56,104,1
0,59,114,5
0,54,74,0
0,47,123,0
0,40,115,0
0,54,122,0
0,47,115,0
0,59,120,1
0,52,114,1
0,56,114,5
0,66,121,0
0,59,115,3
0,64,112,1
0,40,113,0
0,45,127,1
0,52,110,1
0,57,111,3
0,59,110,2
0,64,110,4
0,52,127,32
0,59,126,39
0,64,126,25
0,69,127,5
0,68,127,2
0,64,111,5
0,59,111,0
0,57,110,5
0,52,110,5
0,45,111,2
0,40,113,3
0,54,74,0
0,66,126,0
0,40,110,1
0,45,110,1
0,52,111,6
0,64,110,2
0,57,113,1
0,59,115,4
0,64,126,4
0,64,114,0
0,59,115,1
0,57,114,4
0,52,114,1
0,45,115,0
0,40,115,1
0,45,127,0
0,40,126,0
0,45,126,0
0,52,127,11
0,85,114,148
0,40,121,0
0,45,120,9
0,52,126,6
0,45,126,1
0,61,58,18
0,52,127,44
0,57,126,10
0,85,114,3
0,54,75,0
0,59,127,8
0,56,111,3
0,61,107,7
0,64,58,3
0,64,108,0
0,68,111,4
0,61,59,40
0,45,127,3
0,52,126,1
0,57,127,8
0,52,108,0
0,59,126,0
0,68,108,1
0,61,109,3
0,64,102,0
0,64,63,4
0,64,111,3
0,85,115,5
0,47,127,5
0,47,126,2
0,54,111,4
0,83,115,25
0,42,110,5
0,47,120,6
0,61,50,9
0,47,126,3
0,54,127,0
0,59,127,0
0,64,66,6
0,47,115,0
0,63,126,1
0,83,114,2
0,54,75,0
0,54,115,7
0,66,126,0
0,59,114,7
0,63,114,6
0,66,121,4
0,61,51,7
0,64,66,5
0,83,114,29
0,40,126,82
0,47,127,5
0,52,127,0
0,40,113,0
0,47,112,5
0,52,115,2
0,56,126,3
0,56,117,4
0,59,116,3
0,64,119,4
0,59,127,18
0,64,126,31
0,48,97,94
0,45,95,175
0,41,93,283
0,44,113,123
0,41,80,123
0,41,91,123
0,40,95,78
0,40,126,8
0,44,112,0
0,73,115,123
0,76,115,48
0,33,97,17
0,83,114,0
0,35,127,0
0,40,41,0
0,42,61,0
0,57,81,0
0,45,126,0
0,40,41,123
0,45,127,35
0,33,96,8
0,83,114,0
0,46,61,0
0,61,57,28
0,57,126,120
0,45,97,3
0,35,124,0
0,38,91,0
0,42,60,0
0,54,84,0
0,59,107,0
0,61,106,0
0,64,107,0
0,68,107,0
0,59,126,8
0,56,111,3
0,61,106,7
0,64,61,3
0,64,108,0
0,68,111,4
0,61,52,115
0,83,115,4
0,40,40,0
0,57,127,9
0,52,109,0
0,59,127,0
0,68,108,1
0,61,108,3
0,64,102,0
0,64,67,4
0,64,111,3
0,46,60,5
0,35,97,3
0,83,114,0
0,35,127,0
0,40,41,0
0,42,61,0
0,47,126,2
0,40,40,123
0,61,52,32
0,35,96,3
0,80,115,0
0,46,61,0
0,47,127,0
0,59,126,0
0,64,66,4
0,47,115,0
0,63,127,1
0,35,97,2
0,35,125,0
0,38,90,0
0,42,61,0
0,54,84,0
0,57,106,0
0,59,107,0
0,61,106,0
0,64,106,0
0,54,114,7
0,66,127,0
0,59,115,7
0,63,114,6
0,66,116,4
0,61,51,93
0,80,113,9
0,40,40,0
0,47,31,4
0,64,67,0
0,59,126,0
0,63,126,4
0,66,127,2
0,52,117,0
0,35,96,3
0,46,61,0
0,59,107,0
0,64,107,0
0,68,106,0
0,68,117,0
0,59,116,5
0,64,118,1
0,28,96,0
0,80,110,0
0,35,126,0
0,40,41,0
0,42,60,0
0,56,104,0
0,59,105,3
0,64,103,4
0,40,41,123
0,40,97,2
0,78,109,0
0,46,60,0
0,56,104,1
0,59,115,5
0,28,97,0
0,35,125,0
0,38,91,0
0,42,61,0
0,54,85,0
0,59,102,0
0,66,103,0
0,68,103,0
0,47,123,0
0,54,123,0
0,59,120,5
0,56,114,6
0,66,120,0
0,59,114,3
0,64,113,1
0,78,106,123
0,40,40,0
0,30,96,14
0,46,61,0
0,61,110,0
0,57,111,0
0,59,110,2
0,64,110,4
0,52,127,16
0,59,126,9
0,64,127,40
0,69,127,5
0,78,104,12
0,35,126,0
0,40,40,0
0,42,60,0
0,40,41,123
0,42,96,2
0,76,103,0
0,46,60,0
0,68,126,0
0,64,111,5
0,59,111,0
0,57,110,5
0,30,97,0
0,35,124,0
0,38,91,0
0,42,60,0
0,54,84,0
0,57,112,0
0,59,113,0
0,64,112,0
0,66,127,0
0,64,110,3
0,57,113,1
0,59,114,4
0,40,41,0
0,42,97,4
0,76,115,0
0,46,60,0
0,64,126,0
0,64,115,0
0,59,115,1
0,57,114,4
0,33,96,0
0,85,114,0
0,35,127,0
0,40,40,0
0,42,61,0
0,45,126,0
0,40,40,123
0,45,127,35
0,61,50,4
0,33,96,4
0,85,114,0
0,46,61,0
0,57,127,1
0,64,62,1
0,45,97,2
0,35,125,0
0,38,90,0
0,42,61,0
0,54,85,0
0,59,107,0
0,61,107,0
0,64,106,0
0,68,107,0
0,59,126,8
0,56,111,3
0,61,106,1
0,64,108,4
0,68,111,4
0,61,51,89
0,85,115,10
0,40,41,0
0,64,69,8
0,57,126,1
0,52,109,0
0,59,127,0
0,68,108,0
0,61,108,5
0,64,103,0
0,64,111,7
0,46,61,5
0,35,96,3
0,83,115,0
0,35,126,0
0,40,40,0
0,42,60,0
0,47,126,2
0,40,41,123
0,61,48,21
0,35,97,14
0,83,114,0
0,46,60,0
0,47,127,0
0,64,66,1
0,59,126,0
0,47,115,4
0,63,126,1
0,35,97,2
0,35,124,0
0,38,91,0
0,42,60,0
0,54,85,0
0,57,106,0
0,59,106,0
0,61,107,0
0,64,107,0
0,54,114,7
0,66,127,0
0,59,115,7
0,63,114,6
0,66,116,4
0,61,57,76
0,83,114,22
0,40,41,0
0,47,31,4
0,66,68,31
0,59,127,0
0,63,126,4
0,66,126,2
0,52,117,0
0,35,96,3
0,46,60,0
0,59,106,0
0,64,106,0
0,68,107,0
0,68,117,3
0,59,116,5
0,64,118,1
0,28,97,0
0,80,115,0
0,35,127,0
0,40,40,0
0,42,61,0
0,56,105,0
0,59,104,3
0,64,103,4
0,40,41,4
0,61,55,33
0,40,96,2
0,80,112,0
0,46,61,0
0,56,105,1
0,59,114,5
0,28,96,0
0,35,125,0
0,38,90,0
0,42,61,0
0,54,84,0
0,59,103,0
0,66,102,0
0,68,102,0
0,47,123,0
0,54,123,0
0,59,120,0
0,56,115,6
0,66,120,0
0,59,114,3
0,64,112,1
0,80,107,123
0,40,40,0
0,42,97,14
0,46,61,0
0,61,111,0
0,59,53,1
0,57,111,3
0,59,111,2
0,64,110,4
0,52,127,16
0,59,126,9
0,64,127,6
0,69,127,5
0,30,97,12
0,80,99,0
0,35,126,0
0,40,40,0
0,42,60,0
0,40,41,35
0,42,96,0
0,46,60,0
0,68,126,0
0,64,110,5
0,59,111,0
0,57,111,5
0,30,96,0
0,35,124,0
0,38,90,0
0,42,60,0
0,54,85,0
0,57,112,0
0,59,113,0
0,64,113,0
0,66,127,0
0,64,110,10
0,57,112,1
0,59,115,4
0,73,114,0
0,40,41,0
0,40,97,4
0,76,115,0
0,46,60,0
0,64,126,0
0,64,114,0
0,59,115,1
0,57,115,4
0,33,97,0
0,83,114,0
0,35,127,0
0,40,40,0
0,42,61,0
0,45,126,0
0,40,40,123
0,45,127,35
0,33,96,8
0,83,114,0
0,46,61,0
0,61,50,28
0,57,126,120
0,45,96,3
0,35,124,0
0,38,91,0
0,42,60,0
0,54,84,0
0,59,106,0
0,61,107,0
0,64,106,0
0,68,106,0
0,59,127,8
0,56,111,3
0,61,106,7
0,64,63,3
0,64,108,0
0,68,111,4
0,61,50,115
0,83,115,4
0,40,41,0
0,57,126,9
0,52,109,0
0,59,126,0
0,68,108,1
0,61,108,3
0,64,103,0
0,64,64,4
0,64,111,3
0,46,60,5
0,35,97,3
0,83,115,0
0,35,127,0
0,40,41,0
0,42,61,0
0,47,126,2
0,40,40,123
0,61,49,32
0,35,96,3
0,80,114,0
0,46,61,0
0,47,127,0
0,59,127,0
0,64,67,4
0,47,115,0
0,63,126,1
0,35,97,2
0,35,125,0
0,38,91,0
0,42,61,0
0,54,84,0
0,57,107,0
0,59,107,0
0,61,106,0
0,64,106,0
0,54,114,7
0,66,126,0
0,59,115,7
0,63,114,6
0,66,116,4
0,61,48,93
0,80,112,9
0,40,40,0
0,47,31,4
0,64,66,0
0,59,127,0
0,63,127,4
0,66,126,2
0,52,117,0
0,35,97,3
0,46,61,0
0,59,107,0
0,64,107,0
0,68,106,0
0,68,117,0
0,59,116,5
0,64,118,1
0,28,96,0
0,80,111,0
0,35,126,0
0,40,41,0
0,42,60,0
0,56,104,0
0,59,105,3
0,64,102,4
0,40,40,123
0,40,97,2
0,78,109,0
0,46,60,0
0,56,105,1
0,59,115,5
0,28,96,0
0,35,125,0
0,38,90,0
0,42,61,0
0,54,85,0
0,59,102,0
0,66,103,0
0,68,102,0
0,47,123,0
0,54,123,0
0,59,120,5
0,56,114,6
0,66,120,0
0,59,115,3
0,64,112,1
0,78,106,123
0,40,41,0
0,30,96,14
0,46,61,0
0,61,111,0
0,57,110,0
0,59,111,2
0,64,111,4
0,52,127,16
0,59,126,9
0,64,127,40
0,69,127,5
0,78,104,12
0,35,126,0
0,40,41,0
0,42,60,0
0,40,40,123
0,42,97,2
0,76,103,0
0,46,60,0
0,68,126,0
0,64,110,5
0,59,110,0
0,57,111,5
0,30,97,0
0,35,124,0
0,38,90,0
0,42,60,0
0,54,85,0
0,57,113,0
0,59,112,0
0,64,113,0
0,66,127,0
0,64,111,3
0,57,112,1
0,59,114,4
0,40,41,0
0,42,96,4
0,76,114,0
0,46,60,0
0,64,126,0
0,64,115,0
0,59,114,1
0,57,115,4
0,33,96,0
0,85,115,0
0,35,127,0
0,40,40,0
0,42,61,0
0,45,126,0
0,40,40,123
0,45,127,35
0,33,97,8
0,85,115,0
0,46,61,0
0,61,59,28
0,57,127,1
0,45,97,3
0,35,125,0
0,38,91,0
0,42,61,0
0,54,84,0
0,59,106,0
0,61,106,0
0,64,107,0
0,68,107,0
0,59,126,8
0,56,111,3
0,61,106,7
0,64,59,3
0,64,108,0
0,68,111,4
0,61,58,115
0,85,114,4
0,40,41,0
0,57,127,9
0,52,109,0
0,59,126,0
0,68,108,1
0,61,108,3
0,64,102,0
0,64,62,4
0,64,111,3
0,46,61,5
0,35,96,3
0,83,115,0
0,35,126,0
0,40,41,0
0,42,60,0
0,47,126,2
0,40,40,123
0,61,51,32
0,35,96,3
0,83,114,0
0,46,60,0
0,47,127,0
0,59,127,0
0,64,66,4
0,47,115,0
0,63,127,1
0,35,97,2
0,35,124,0
0,38,91,0
0,42,60,0
0,54,84,0
0,57,106,0
0,59,106,0
0,61,107,0
0,64,107,0
0,54,114,7
0,66,126,0
0,59,115,7
0,63,114,6
0,66,116,4
0,61,51,93
0,83,114,9
0,40,40,0
0,47,31,4
0,64,67,0
0,59,126,0
0,63,127,4
0,66,127,2
0,52,117,0
0,35,96,3
0,46,60,0
0,59,106,0
0,64,106,0
0,68,107,0
0,68,117,3
0,59,116,5
0,64,118,1
0,28,97,0
0,35,127,0
0,40,41,0
0,42,61,0
0,56,104,0
0,59,104,3
