track,note,velocity,time
1,41,104,1536
1,41,110,230
1,48,92,38
1,48,92,112
1,36,97,10
1,34,100,14
1,39,114,24
1,39,119,212
1,34,104,8
1,34,114,120
1,39,114,44
1,39,104,88
1,41,99,72
1,41,101,220
1,48,94,52
1,48,90,104
1,36,92,16
1,34,100,18
1,39,109,24
1,39,124,204
1,34,109,38
1,34,109,104
1,39,119,44
1,39,92,80
1,41,97,58
1,41,104,190
1,48,88,32
1,48,90,106
1,41,104,26
1,41,94,88
1,39,92,30
1,40,62,16
1,34,104,178
1,39,109,10
1,39,109,128
1,34,114,12
1,39,114,8
1,41,104,60
1,48,92,58
1,41,107,68
1,42,109,10
1,43,110,26
1,50,90,30
1,38,110,8
1,50,86,36
1,38,110,192
1,44,114,0
1,39,114,110
1,39,114,96
1,44,114,0
1,46,114,96
1,46,114,106
1,41,110,62
1,46,114,6
1,41,117,8
1,34,114,14
1,41,113,1338
1,41,101,72
1,36,107,192
1,48,97,16
1,48,99,40
1,44,119,96
1,41,107,20
1,36,117,6
1,39,114,20
1,39,114,128
1,46,104,0
1,46,109,110
1,39,119,38
1,40,117,0
1,41,113,16
1,41,101,72
1,36,107,192
1,48,97,16
1,48,99,40
1,44,119,96
1,41,107,20
1,36,117,6
1,39,114,20
1,39,114,128
1,46,104,0
1,46,109,110
1,39,119,38
1,40,117,0
1,41,113,16
1,41,101,72
1,36,107,192
1,48,97,16
1,48,99,40
1,44,119,96
1,41,107,20
1,36,117,6
1,39,114,20
1,39,114,128
1,46,104,0
1,46,109,110
1,39,119,38
1,40,117,0
1,41,113,16
1,41,101,72
1,36,107,192
1,48,97,16
1,48,99,40
1,44,119,96
1,41,107,20
1,36,117,6
1,39,114,20
1,39,114,128
1,46,104,0
1,46,109,110
1,39,119,38
1,40,117,0
1,41,104,16
1,41,110,230
1,48,92,38
1,48,92,112
1,36,97,10
1,34,100,14
1,39,114,24
1,39,119,212
1,34,104,8
1,34,114,120
1,39,114,44
1,39,104,88
1,41,99,72
1,41,101,220
1,48,94,52
1,48,90,104
1,36,92,16
1,34,100,18
1,39,109,24
1,39,124,204
1,34,109,38
1,34,109,104
1,39,119,44
1,39,92,80
1,41,97,58
1,41,104,190
1,48,88,32
1,48,90,106
1,41,104,26
1,41,94,88
1,39,92,30
1,40,62,16
1,34,104,178
1,39,109,10
1,39,109,128
1,34,114,12
1,39,114,8
1,41,104,60
1,48,92,58
1,41,107,68
1,42,109,10
1,43,110,26
1,50,90,30
1,38,110,8
1,50,86,36
1,38,110,192
1,44,114,0
1,39,114,110
1,39,114,96
1,44,114,0
1,46,114,96
1,46,114,106
1,41,110,62
1,46,114,6
1,41,117,8
1,34,114,14
1,41,113,1338
1,41,101,72
1,36,107,192
1,48,97,16
1,48,99,40
1,44,119,96
1,41,107,20
1,36,117,6
1,39,114,20
1,39,114,128
1,46,104,0
1,46,109,110
1,39,119,38
1,40,117,0
1,41,113,16
1,41,101,72
1,36,107,192
1,48,97,16
1,48,99,40
1,44,119,96
1,41,107,20
1,36,117,6
1,39,114,20
1,39,114,128
1,46,104,0
1,46,109,110
1,39,119,38
1,40,117,0
1,41,113,16
1,41,101,72
1,36,107,192
1,48,97,16
1,48,99,40
1,44,119,96
1,41,107,20
1,36,117,6
1,39,114,20
1,39,114,128
1,46,104,0
1,46,109,110
1,39,119,38
1,40,117,0
1,41,113,16
1,41,101,72
1,36,107,192
1,48,97,16
1,48,99,40
1,44,119,96
1,41,107,20
1,36,117,6
1,39,114,20
1,39,114,128
1,46,104,0
1,46,109,110
1,39,119,38
1,40,117,0
1,41,104,16
1,41,110,230
1,48,92,38
1,48,92,112
1,36,97,10
1,34,100,14
1,39,114,24
1,39,119,212
1,34,104,8
1,34,114,120
1,39,114,44
1,39,104,88
1,41,99,72
1,41,101,220
1,48,94,52
1,48,90,104
1,36,92,16
1,34,100,18
1,39,109,24
1,39,124,204
1,34,109,38
1,34,109,104
1,39,119,44
1,39,92,80
1,41,97,58
1,41,104,190
1,48,88,32
1,48,90,106
1,41,104,26
1,41,94,88
1,39,92,30
1,40,62,16
1,34,104,178
1,39,109,10
1,39,109,128
1,34,114,12
1,39,114,8
1,41,104,60
1,48,92,58
1,41,107,68
1,42,109,10
1,43,110,26
1,50,90,30
1,38,110,8
1,50,86,36
1,38,110,192
1,44,114,0
1,39,114,110
1,39,114,96
1,44,114,0
1,46,114,96
1,46,114,106
1,41,110,62
1,46,114,6
1,41,117,8
1,34,114,14
1,41,113,1338
1,41,101,72
1,36,107,192
1,48,97,16
1,48,99,40
1,44,119,96
1,41,107,20
1,36,117,6
1,39,114,20
1,39,114,128
1,46,104,0
1,46,109,110
1,39,119,38
1,40,117,0
1,41,113,16
1,41,101,72
1,36,107,192
1,48,97,16
1,48,99,40
1,44,119,96
1,41,107,20
1,36,117,6
1,39,114,20
1,39,114,128
1,46,104,0
1,46,109,110
1,39,119,38
1,40,117,0
1,41,113,16
1,41,101,72
1,36,107,192
1,48,97,16
1,48,99,40
1,44,119,96
1,41,107,20
1,36,117,6
1,39,114,20
1,39,114,128
1,46,104,0
1,46,109,110
1,39,119,38
1,40,117,0
1,41,113,16
1,41,101,72
1,36,107,192
1,48,97,16
1,48,99,40
1,44,119,96
1,41,107,20
1,36,117,6
1,39,114,20
1,39,114,128
1,46,104,0
1,46,109,110
1,39,119,38
1,40,117,0
1,41,113,16
1,41,101,72
1,36,107,192
1,48,97,16
1,48,99,40
1,44,119,96
1,41,107,20
1,36,117,6
1,39,114,20
1,39,114,128
1,46,104,0
1,46,109,110
1,39,119,38
1,40,117,0
1,41,113,16
1,41,101,72
1,36,107,192
1,48,97,16
1,48,99,40
1,44,119,96
1,41,107,20
1,36,117,6
1,39,114,20
1,39,114,128
1,46,104,0
1,46,109,110
1,39,119,38
1,40,117,0
1,41,113,16
1,41,101,72
1,36,107,192
1,48,97,16
1,48,99,40
1,44,119,96
1,41,107,20
1,36,117,6
1,39,114,20
1,39,114,128
1,46,104,0
1,46,109,110
1,39,119,38
1,40,117,0
1,41,113,16
1,41,101,72
1,36,107,192
1,48,97,16
1,48,99,40
1,44,119,96
1,41,107,20
1,36,117,6
1,39,114,20
1,39,114,128
1,46,104,0
1,46,109,110
1,39,119,38
1,40,117,0
1,41,113,16
1,41,101,72
1,36,107,192
1,48,97,16
1,48,99,40
1,44,119,96
1,41,107,20
1,36,117,6
1,39,114,20
1,39,114,128
1,46,104,0
1,46,109,110
1,39,119,38
1,40,117,0
1,41,113,16
1,41,101,72
1,36,107,192
1,48,97,16
1,48,99,40
1,44,119,96
1,41,107,20
1,39,117,6
2,46,121,576
2,48,113,260
2,51,113,48
2,53,101,210
2,60,119,0
2,41,97,0
2,65,103,0
2,56,101,0
2,65,99,202
2,56,95,0
2,60,108,0
2,41,121,64
2,53,110,192
2,56,90,0
2,60,103,0
2,65,89,0
2,41,121,124
2,60,113,0
2,56,101,0
2,65,99,0
2,53,101,6
2,51,109,104
2,60,85,0
2,56,84,0
2,65,82,0
2,39,113,22
2,55,83,0
2,63,98,0
2,58,105,0
2,58,113,286
2,63,105,0
2,55,103,0
2,39,105,54
2,58,101,100
2,63,95,0
2,55,95,0
2,51,121,134
2,58,118,0
2,55,103,0
2,63,113,0
2,39,118,22
2,51,118,94
2,63,93,0
2,58,109,0
2,55,92,0
2,41,121,28
2,65,99,0
2,56,90,0
2,60,110,0
2,56,101,260
2,65,97,0
2,60,116,0
2,53,121,96
2,60,60,0
2,56,95,100
2,65,95,0
2,60,106,0
2,41,121,122
2,65,94,0
2,60,108,0
2,56,93,0
2,53,110,192
2,55,78,148
2,63,77,0
2,58,88,0
2,39,118,12
2,55,99,0
2,58,109,0
2,63,101,0
2,63,101,124
2,55,97,0
2,58,109,0
2,51,118,20
2,63,109,0
2,58,121,0
2,55,103,0
2,39,109,2
2,51,118,138
2,63,98,0
2,58,105,0
2,55,89,0
2,51,121,138
2,63,101,0
2,58,109,0
2,55,106,0
2,39,118,192
2,51,105,98
2,63,90,0
2,58,105,0
2,55,83,0
2,41,121,0
2,56,93,0
2,60,106,0
2,65,95,0
2,56,105,222
2,60,119,0
2,65,101,0
2,53,113,70
2,41,119,0
2,56,98,192
2,65,95,0
2,60,106,0
2,53,116,22
2,56,95,0
2,60,116,0
2,65,95,0
2,41,121,192
2,51,118,86
2,60,103,0
2,56,93,0
2,65,92,0
2,39,113,70
2,55,99,0
2,58,105,0
2,63,95,0
2,63,113,124
2,58,118,0
2,55,101,0
2,39,121,28
2,51,37,16
2,55,91,0
2,58,101,0
2,63,98,0
2,39,105,134
2,58,121,0
2,63,118,0
2,55,116,0
2,51,121,8
2,39,113,12
2,55,116,0
2,63,121,0
2,58,121,0
2,53,116,82
2,56,98,0
2,48,106,0
2,65,94,0
2,60,113,0
2,48,106,100
2,65,99,0
2,53,101,0
2,60,119,0
2,56,101,0
2,65,95,50
2,56,93,0
2,60,101,0
2,60,45,112
2,65,66,0
2,56,105,144
2,60,119,0
2,65,99,0
2,55,103,106
2,67,95,0
2,50,99,0
2,62,108,0
2,58,93,0
2,55,113,110
2,62,116,0
2,50,108,0
2,67,103,0
2,58,101,0
2,58,101,60
2,62,116,0
2,67,103,0
2,62,108,122
2,58,88,0
2,67,95,0
2,51,109,112
2,68,118,0
2,56,105,0
2,63,113,0
2,60,101,0
2,56,113,160
2,63,105,0
2,51,118,0
2,60,101,0
2,68,118,0
2,68,118,88
2,60,110,0
2,63,113,0
2,46,118,264
2,70,109,0
2,53,83,0
2,62,97,0
2,58,90,0
2,65,119,0
2,46,113,110
2,70,109,0
2,58,105,0
2,62,106,0
2,53,85,0
2,65,121,0
2,46,109,88
2,70,109,0
2,53,88,0
2,65,119,0
2,58,101,0
2,62,97,0
2,46,113,92
2,65,119,0
2,58,101,0
2,70,109,0
2,53,87,0
2,62,101,0
2,46,118,96
2,70,105,0
2,53,89,0
2,62,103,0
2,58,98,0
2,65,119,0
2,46,121,96
2,70,121,0
2,58,121,0
2,65,121,0
2,62,116,0
2,68,118,1380
2,65,116,0
2,60,106,0
2,68,109,248
2,65,110,0
2,60,97,0
2,68,105,116
2,60,89,0
2,65,110,0
2,65,119,144
2,60,101,0
2,68,121,0
2,68,113,120
2,65,116,0
2,60,92,0
2,63,109,284
2,70,101,0
2,66,121,72
2,70,113,0
2,67,113,80
2,70,93,0
2,70,105,70
2,66,118,0
2,67,103,74
2,70,73,0
2,70,105,64
2,66,118,0
2,63,113,58
2,70,95,0
2,60,97,124
2,65,106,0
2,68,101,0
2,65,119,282
2,60,110,0
2,68,118,0
2,60,94,128
2,65,99,0
2,68,113,0
2,65,119,142
2,68,121,0
2,60,106,0
2,70,101,200
2,63,109,0
2,70,121,304
2,66,121,0
2,70,101,78
2,67,110,0
2,70,118,182
2,67,119,0
2,66,121,54
2,70,109,0
2,65,108,72
2,70,86,0
2,70,82,56
2,63,109,0
2,65,95,120
2,68,109,0
2,60,91,0
2,68,56,92
2,65,119,156
2,68,118,0
2,60,113,0
2,68,109,250
2,65,113,0
2,60,95,0
2,65,121,106
2,68,118,0
2,60,99,0
2,70,101,232
2,63,109,0
2,70,109,278
2,66,121,0
2,67,121,70
2,70,101,0
2,70,109,170
2,67,121,0
2,65,110,48
2,70,95,0
2,63,118,82
2,70,105,0
2,60,95,216
2,68,109,0
2,65,116,0
2,60,99,216
2,65,103,0
2,68,113,0
2,60,92,96
2,68,113,0
2,65,113,0
2,65,119,112
2,68,113,0
2,60,103,0
2,63,118,210
2,70,109,0
2,70,118,184
2,66,121,0
2,67,116,72
2,70,101,0
2,70,109,152
2,67,121,0
2,65,121,74
2,70,101,0
2,70,101,70
2,63,98,0
2,53,101,200
2,60,119,0
2,41,97,0
2,65,103,0
2,56,101,0
2,65,99,202
2,56,95,0
2,60,108,0
2,41,121,64
2,53,110,192
2,56,90,0
2,60,103,0
2,65,89,0
2,41,121,124
2,60,113,0
2,56,101,0
2,65,99,0
2,53,101,6
2,51,109,104
2,60,85,0
2,56,84,0
2,65,82,0
2,39,113,22
2,55,83,0
2,63,98,0
2,58,105,0
2,58,113,286
2,63,105,0
2,55,103,0
2,39,105,54
2,58,101,100
2,63,95,0
2,55,95,0
2,51,121,134
2,58,118,0
2,55,103,0
2,63,113,0
2,39,118,22
2,51,118,94
2,63,93,0
2,58,109,0
2,55,92,0
2,41,121,28
2,65,99,0
2,56,90,0
2,60,110,0
2,56,101,260
2,65,97,0
2,60,116,0
2,53,121,96
2,60,60,0
2,56,95,100
2,65,95,0
2,60,106,0
2,41,121,122
2,65,94,0
2,60,108,0
2,56,93,0
2,53,110,192
2,55,78,148
2,63,77,0
2,58,88,0
2,39,118,12
2,55,99,0
2,58,109,0
2,63,101,0
2,63,101,124
2,55,97,0
2,58,109,0
2,51,118,20
2,63,109,0
2,58,121,0
2,55,103,0
2,39,109,2
2,51,118,138
2,63,98,0
2,58,105,0
2,55,89,0
2,51,121,138
2,63,101,0
2,58,109,0
2,55,106,0
2,39,118,192
2,51,105,98
2,63,90,0
2,58,105,0
2,55,83,0
2,41,121,0
2,56,93,0
2,60,106,0
2,65,95,0
2,56,105,222
2,60,119,0
2,65,101,0
2,53,113,70
2,41,119,0
2,56,98,192
2,65,95,0
2,60,106,0
2,53,116,22
2,56,95,0
2,60,116,0
2,65,95,0
2,41,121,192
2,51,118,86
2,60,103,0
2,56,93,0
2,65,92,0
2,39,113,70
2,55,99,0
2,58,105,0
2,63,95,0
2,63,113,124
2,58,118,0
2,55,101,0
2,39,121,28
2,51,37,16
2,55,91,0
2,58,101,0
2,63,98,0
2,39,105,134
2,58,121,0
2,63,118,0
2,55,116,0
2,51,121,8
2,39,113,12
2,55,116,0
2,63,121,0
2,58,121,0
2,53,116,82
2,56,98,0
2,48,106,0
2,65,94,0
2,60,113,0
2,48,106,100
2,65,99,0
2,53,101,0
2,60,119,0
2,56,101,0
2,65,95,50
2,56,93,0
2,60,101,0
2,60,45,112
2,65,66,0
2,56,105,144
2,60,119,0
2,65,99,0
2,55,103,106
2,67,95,0
2,50,99,0
2,62,108,0
2,58,93,0
2,55,113,110
2,62,116,0
2,50,108,0
2,67,103,0
2,58,101,0
2,58,101,60
2,62,116,0
2,67,103,0
2,62,108,122
2,58,88,0
2,67,95,0
2,51,109,112
2,68,118,0
2,56,105,0
2,63,113,0
2,60,101,0
2,56,113,160
2,63,105,0
2,51,118,0
2,60,101,0
2,68,118,0
2,68,118,88
2,60,110,0
2,63,113,0
2,46,118,264
2,70,109,0
2,53,83,0
2,62,97,0
2,58,90,0
2,65,119,0
2,46,113,110
2,70,109,0
2,58,105,0
2,62,106,0
2,53,85,0
2,65,121,0
2,46,109,88
2,70,109,0
2,53,88,0
2,65,119,0
2,58,101,0
2,62,97,0
2,46,113,92
2,65,119,0
2,58,101,0
2,70,109,0
2,53,87,0
2,62,101,0
2,46,118,96
2,70,105,0
2,53,89,0
2,62,103,0
2,58,98,0
2,65,119,0
2,46,121,96
2,70,121,0
2,58,121,0
2,65,121,0
2,62,116,0
2,68,118,1380
2,65,116,0
2,60,106,0
2,68,109,248
2,65,110,0
2,60,97,0
2,68,105,116
2,60,89,0
2,65,110,0
2,65,119,144
2,60,101,0
2,68,121,0
2,68,113,120
2,65,116,0
2,60,92,0
2,63,109,284
2,70,101,0
2,66,121,72
2,70,113,0
2,67,113,80
2,70,93,0
2,70,105,70
2,66,118,0
2,67,103,74
2,70,73,0
2,70,105,64
2,66,118,0
2,63,113,58
2,70,95,0
2,60,97,124
2,65,106,0
2,68,101,0
2,65,119,282
2,60,110,0
2,68,118,0
2,60,94,128
2,65,99,0
2,68,113,0
2,65,119,142
2,68,121,0
2,60,106,0
2,70,101,200
2,63,109,0
2,70,121,304
2,66,121,0
2,70,101,78
2,67,110,0
2,70,118,182
2,67,119,0
2,66,121,54
2,70,109,0
2,65,108,72
2,70,86,0
2,70,82,56
2,63,109,0
2,65,95,120
2,68,109,0
