track,note,velocity,time
1,38,98,52
1,38,0,72
1,33,117,8
1,33,0,12
1,38,103,8
1,38,0,20
1,40,114,8
1,40,0,4
1,42,115,8
1,42,0,840
1,37,113,8
1,37,0,280
1,42,123,8
1,42,0,1244
1,40,127,4
1,40,0,284
1,38,117,4
1,38,0,1244
1,33,108,4
1,33,0,284
1,38,113,4
1,38,0,1244
1,38,107,4
1,38,0,284
1,33,110,4
1,33,0,1244
1,40,112,4
1,40,0,284
1,45,91,4
1,45,0,1244
1,37,125,4
1,37,0,284
1,38,98,4
1,38,0,1240
1,33,117,8
1,33,0,280
1,38,103,8
1,38,0,1240
1,40,114,8
1,40,0,280
1,42,115,8
1,42,0,1240
1,37,113,8
1,37,0,280
1,42,123,8
1,42,0,1244
1,40,127,4
1,40,0,284
1,38,117,4
1,38,0,1244
1,33,108,4
1,33,0,284
1,38,113,4
1,38,0,1244
1,38,107,4
1,38,0,284
1,33,110,4
1,33,0,1244
1,40,112,4
1,40,0,284
1,45,91,4
1,45,0,1244
1,37,125,4
1,37,0,284
1,38,98,4
1,38,0,1240
1,33,117,8
1,33,0,280
1,38,103,8
1,38,0,1240
1,40,114,8
1,40,0,280
1,42,115,8
1,42,0,1240
1,37,113,8
1,37,0,280
1,42,123,8
1,42,0,1244
1,40,127,4
1,40,0,284
1,38,117,4
1,38,0,1244
1,33,108,4
1,33,0,284
1,38,113,4
1,38,0,1532
1,33,110,4
1,33,0,1244
1,28,112,4
1,28,0,284
1,33,91,4
1,33,0,1244
1,33,125,4
1,33,0,284
1,33,110,4
1,33,0,764
1,28,103,4
1,28,0,764
1,33,98,4
1,33,0,860
1,33,108,4
1,33,0,188
1,35,105,4
1,35,0,188
1,37,110,4
1,37,0,284
1,38,110,4
1,38,0,764
1,45,106,4
1,45,0,476
1,33,99,4
1,33,0,284
1,38,104,4
1,38,0,764
1,45,106,4
1,45,0,764
1,35,112,4
1,35,0,380
1,35,109,4
1,35,0,284
1,42,114,196
1,42,0,92
1,42,109,196
1,42,0,380
1,49,105,4
1,49,0,380
1,49,106,100
1,49,0,284
1,38,110,4
1,38,0,284
1,45,102,4
1,45,0,284
1,52,85,4
1,52,0,764
1,45,93,1732
1,45,0,1240
1,40,112,8
1,40,0,280
1,45,98,8
1,45,0,1240
1,44,109,8
1,44,0,280
1,42,110,8
1,42,0,1240
1,37,108,8
1,37,0,280
1,42,118,8
1,42,0,1244
1,40,127,4
1,40,0,284
1,38,112,4
1,38,0,1244
1,33,103,4
1,33,0,284
1,38,111,4
1,38,0,1244
1,38,108,4
1,38,0,284
1,33,105,4
1,33,0,1244
1,28,107,4
1,28,0,284
1,33,86,4
1,33,0,1244
1,33,120,4
1,33,0,284
1,33,110,4
1,33,0,764
1,28,103,4
1,28,0,764
1,33,98,4
1,33,0,860
1,33,108,4
1,33,0,188
1,35,105,4
1,35,0,188
1,37,110,4
1,37,0,284
1,38,110,4
1,38,0,764
1,45,106,4
1,45,0,476
1,33,99,4
1,33,0,284
1,38,104,4
1,38,0,764
1,45,106,4
1,45,0,764
1,35,112,4
1,35,0,380
1,35,109,4
1,35,0,284
1,42,114,196
1,42,0,92
1,42,109,196
1,42,0,380
1,49,105,4
1,49,0,380
1,49,106,100
1,49,0,284
1,38,110,4
1,38,0,284
1,45,102,4
1,45,0,284
1,52,85,4
1,52,0,764
1,45,103,1732
1,45,0,764
1,40,106,4
1,40,0,764
1,41,104,4
1,41,0,764
1,43,109,4
1,43,0,476
1,38,110,4
1,38,0,284
1,39,107,4
1,39,0,764
1,41,100,4
1,41,0,764
1,43,101,4
1,43,0,92
1,38,99,4
1,38,0,188
1,43,89,4
1,43,0,1244
1,48,103,4
1,48,0,764
1,43,106,4
1,43,0,764
1,44,104,4
1,44,0,764
1,46,109,4
1,46,0,764
1,41,107,4
1,41,0,764
1,43,100,4
1,43,0,764
1,45,101,4
1,45,0,92
1,40,99,4
1,40,0,188
1,33,89,4
1,33,0,764
1,38,112,484
1,38,0,764
1,45,109,4
1,45,0,476
1,33,106,4
1,33,0,280
1,38,107,8
1,38,0,764
1,45,112,4
1,45,0,12
1,38,99,4
1,38,0,92
1,42,100,0
1,42,0,92
1,47,101,0
1,47,0,92
1,42,115,0
1,42,0,764
1,49,107,4
1,49,0,476
1,37,104,4
1,37,0,280
1,42,107,8
1,42,0,764
1,49,103,4
1,49,0,476
1,52,75,4
1,52,0,284
1,38,111,4
1,38,0,764
1,45,105,4
1,45,0,476
1,33,109,4
1,33,0,284
1,38,104,4
1,38,0,764
1,45,109,4
1,45,0,476
1,38,111,4
1,38,0,284
1,33,109,4
1,33,0,1244
1,40,108,4
1,40,0,284
1,45,111,4
1,45,0,860
1,33,102,100
1,37,87,100
1,33,0,4
1,37,0,88
1,40,97,4
1,40,0,92
1,42,98,8
1,42,0,92
1,40,87,4
1,40,0,92
1,33,115,92
1,33,0,764
1,28,108,4
1,28,0,764
1,33,103,4
1,33,0,860
1,33,113,4
1,33,0,188
1,35,110,4
1,35,0,188
1,37,115,4
1,37,0,284
1,38,115,4
1,38,0,764
1,45,111,4
1,45,0,476
1,33,104,4
1,33,0,284
1,38,109,4
1,38,0,764
1,45,111,4
1,45,0,764
1,35,117,4
1,35,0,380
1,35,114,4
1,35,0,284
1,42,119,196
1,42,0,92
1,42,114,196
1,42,0,92
1,44,88,4
1,44,0,188
1,42,88,4
1,42,0,92
1,37,110,4
1,37,0,380
1,37,111,100
1,37,0,284
1,38,115,4
1,38,0,284
1,45,107,4
1,45,0,284
1,52,90,4
1,52,0,764
1,38,100,1732
1,38,0,764
1,45,101,4
1,45,0,476
1,33,98,4
1,33,0,284
1,38,110,4
1,38,0,764
1,45,109,4
1,45,0,252
1,38,101,16
1,38,0,764
1,45,99,4
1,45,0,12
1,38,99,4
1,38,0,28
2,57,110,73728
2,61,114,0
2,64,123,96
2,64,0,92
2,69,118,4
2,69,0,92
2,76,126,4
2,61,0,92
2,57,0,0
2,76,0,96
2,76,121,4
2,76,0,188
2,76,127,4
2,76,0,188
2,73,112,4
2,73,0,188
2,69,105,4
2,69,0,188
2,64,87,4
2,64,0,284
2,69,123,100
2,69,0,92
2,76,127,4
2,76,0,92
2,76,127,4
2,76,0,188
2,74,127,4
2,74,0,92
2,72,127,4
2,72,0,92
2,74,127,4
2,74,0,188
2,71,120,4
2,71,0,188
2,67,105,4
2,67,0,188
2,62,99,4
2,62,0,188
2,67,127,196
2,67,0,92
2,74,127,4
2,74,0,92
2,74,127,4
2,74,0,188
2,72,123,4
2,72,0,92
2,70,120,4
2,70,0,92
2,72,125,4
2,72,0,188
2,69,108,4
2,69,0,188
2,65,102,4
2,65,0,188
2,69,120,4
2,69,0,92
2,67,96,4
2,67,0,92
2,65,87,4
2,65,0,92
2,67,118,4
2,67,0,92
2,62,93,4
2,62,0,92
2,60,96,4
2,60,0,92
2,59,84,4
2,59,0,572
2,60,124,676
2,60,0,92
2,67,120,4
2,67,0,92
2,72,124,4
2,72,0,92
2,79,126,4
2,79,0,188
2,79,126,4
2,79,0,188
2,79,120,4
2,79,0,188
2,76,127,4
2,76,0,188
2,72,115,4
2,72,0,380
2,56,127,100
2,56,0,92
2,68,127,4
2,68,0,92
2,72,123,4
2,72,0,92
2,79,121,4
2,79,0,188
2,77,108,4
2,77,0,92
2,75,102,4
2,75,0,92
2,77,127,4
2,77,0,188
2,58,127,4
2,58,0,92
2,70,127,4
2,70,0,92
2,77,124,4
2,77,0,188
2,75,125,4
2,75,0,92
2,74,120,4
2,74,0,92
2,72,127,4
2,72,0,188
2,69,122,4
2,69,0,92
2,72,127,4
2,72,0,92
2,81,124,4
2,81,0,188
2,71,127,4
2,79,127,0
2,79,0,92
2,71,0,0
2,69,127,4
2,77,127,0
2,77,0,92
2,69,0,0
2,71,124,4
2,79,125,0
2,79,0,188
2,71,0,0
2,67,127,4
2,74,127,0
2,74,0,188
2,67,0,0
2,62,118,4
2,71,118,0
2,71,0,188
2,62,0,0
2,67,126,4
2,67,0,92
2,62,127,4
2,62,0,92
2,59,115,4
2,59,0,92
2,57,120,4
2,64,122,0
2,64,0,92
2,62,127,4
2,62,0,188
2,61,120,4
2,61,0,668
2,57,0,0
3,69,119,192
3,69,0,92
3,68,118,4
3,68,0,92
3,69,122,4
3,69,0,92
3,69,127,100
3,69,0,92
3,69,125,100
3,69,0,284
3,68,125,4
3,68,0,92
3,69,127,4
3,69,0,92
3,68,125,4
3,68,0,92
3,64,121,4
3,64,0,92
3,64,119,484
3,64,0,92
3,69,126,4
3,69,0,188
3,69,126,4
3,69,0,92
3,71,127,4
3,71,0,92
3,68,117,100
3,68,0,92
3,64,127,100
3,64,0,188
3,64,119,196
3,64,0,92
3,64,121,4
3,64,0,92
3,64,117,100
3,64,0,92
3,71,117,4
3,71,0,92
3,71,122,100
3,71,0,92
3,71,127,100
3,71,0,92
3,71,120,100
3,71,0,92
3,69,126,4
3,69,0,92
3,71,125,4
3,71,0,92
3,69,117,4
3,69,0,92
3,73,127,0
3,73,0,32
3,64,125,484
3,64,0,92
3,71,126,4
3,71,0,92
3,71,127,100
3,71,0,92
3,71,118,4
3,71,0,92
3,69,118,4
3,69,0,92
3,73,122,0
3,73,0,128
3,76,117,0
3,76,0,128
3,74,127,100
3,74,0,92
3,74,124,4
3,74,0,188
3,74,127,100
3,74,0,92
3,74,127,4
3,74,0,188
3,73,122,4
3,73,0,92
3,73,125,100
3,73,0,92
3,71,121,4
3,71,0,92
3,69,120,4
3,69,0,92
3,71,126,580
3,71,0,92
3,71,127,100
3,71,0,92
3,71,127,4
3,71,0,188
3,69,123,4
3,69,0,92
3,73,120,100
3,73,0,188
3,64,121,484
3,64,0,92
3,71,125,4
3,71,0,668
3,73,120,4
3,73,0,92
3,73,119,4
3,73,0,284
3,76,120,1636
3,76,0,92
3,74,121,100
3,74,0,92
3,73,127,100
3,73,0,92
3,73,123,292
3,73,0,188
3,71,127,4
3,71,0,92
3,69,117,4
3,69,0,92
3,71,127,4
3,71,0,92
3,69,124,4
3,69,0,92
3,69,123,4
3,69,0,92
3,64,124,388
3,64,0,92
3,64,127,4
3,64,0,92
3,71,119,4
3,71,0,188
3,73,125,4
3,73,0,92
3,69,122,4
3,69,0,92
3,64,125,4
3,64,0,92
3,71,120,4
3,71,0,188
3,64,118,484
3,64,0,92
3,64,125,100
3,64,0,92
3,71,121,4
3,71,0,92
3,71,122,100
3,71,0,92
3,71,124,100
3,71,0,92
3,71,125,100
3,71,0,92
3,69,122,4
3,69,0,92
3,71,120,4
3,71,0,92
3,69,123,4
3,69,0,92
3,73,118,4
3,73,0,92
3,64,127,484
3,64,0,92
3,71,121,4
3,71,0,92
3,71,127,100
3,71,0,92
3,71,120,4
3,71,0,92
3,69,124,100
3,69,0,92
3,73,121,4
3,73,0,92
3,76,127,0
3,76,0,224
3,74,121,4
3,74,0,92
3,74,127,4
3,74,0,188
3,74,87,4
3,74,0,92
3,74,117,100
3,74,0,188
3,73,119,4
3,73,0,92
3,73,127,100
3,73,0,92
3,71,117,4
3,71,0,92
3,69,118,4
3,69,0,92
3,71,122,580
3,71,0,92
3,71,121,100
3,71,0,92
3,71,120,4
3,71,0,92
3,69,127,100
3,69,0,92
3,73,126,0
3,73,0,128
3,64,120,484
3,64,0,92
3,71,119,4
3,71,0,572
3,73,119,0
3,73,0,32
3,73,117,4
3,73,0,188
3,76,127,0
3,76,0,608
3,76,118,4
3,76,0,92
3,76,127,388
3,76,0,92
3,74,119,4
3,74,0,92
3,73,124,4
3,73,0,92
3,76,127,0
3,76,0,416
3,76,123,0
3,76,0,32
3,76,125,4
3,76,0,188
3,74,127,4
3,74,0,188
3,73,125,4
3,73,0,188
3,71,125,4
3,71,0,188
3,71,121,100
3,71,0,284
3,73,121,0
3,73,0,128
3,69,122,4
3,69,0,92
3,69,121,100
3,69,0,284
3,69,127,1828
3,69,0,92
3,69,117,4
3,69,0,92
3,71,122,4
3,71,0,284
3,73,120,100
3,73,0,92
3,69,127,4
3,69,0,188
3,69,126,4
3,69,0,92
3,71,124,4
3,71,0,92
3,73,121,4
3,73,0,92
3,69,120,4
3,69,0,92
3,69,123,484
3,69,0,92
3,76,118,0
3,76,0,128
3,76,122,4
3,76,0,92
3,76,126,4
3,76,0,188
3,73,117,4
3,73,0,188
3,69,127,100
3,69,0,572
3,71,121,0
3,71,0,512
3,73,121,4
3,73,0,92
3,73,127,4
3,73,0,284
3,73,127,196
3,73,0,92
3,71,120,4
3,71,0,92
3,71,127,4
3,71,0,92
3,71,121,4
3,71,0,476
3,73,127,196
3,73,0,92
3,73,122,4
3,73,0,188
3,73,119,292
3,73,0,92
3,71,119,4
3,71,0,284
3,71,124,0
3,71,0,512
3,73,123,4
3,73,0,92
3,73,127,4
3,73,0,92
3,73,127,0
3,73,0,32
3,73,127,4
3,73,0,92
3,73,118,100
3,73,0,188
3,71,119,4
3,71,0,92
3,69,117,4
3,69,0,92
3,71,118,4
3,71,0,92
3,69,124,4
3,69,0,92
3,69,122,4
3,69,0,92
3,73,120,0
3,73,0,128
3,73,127,4
3,73,0,92
3,73,119,4
3,73,0,188
3,71,118,4
3,71,0,92
3,69,127,4
3,69,0,92
3,71,127,4
3,71,0,92
3,69,119,4
3,69,0,92
3,69,118,4
3,69,0,92
3,73,126,196
3,73,0,92
3,71,127,4
3,71,0,92
3,71,124,4
3,71,0,92
3,71,127,0
3,71,0,608
3,73,125,4
3,73,0,92
3,73,117,4
3,73,0,188
3,76,87,0
3,76,0,224
3,76,127,388
3,76,0,92
3,76,122,388
3,76,0,92
3,74,127,4
3,74,0,92
3,73,125,4
3,73,0,92
3,76,127,0
3,76,0,416
3,76,120,0
3,76,0,32
3,76,119,4
3,76,0,188
3,74,123,4
3,74,0,188
3,73,121,4
3,73,0,188
3,71,127,4
3,71,0,188
3,71,127,100
3,71,0,284
3,73,124,0
3,73,0,128
3,69,122,4
3,69,0,92
3,69,127,100
3,69,0,284
3,69,127,1828
3,69,0,92
3,69,127,4
3,69,0,92
3,71,120,0
3,71,0,224
3,73,121,100
3,73,0,92
3,69,126,4
3,69,0,188
3,69,117,4
3,69,0,92
3,71,121,4
3,71,0,92
3,73,127,4
3,73,0,92
3,69,126,4
3,69,0,92
3,69,124,484
3,69,0,92
3,76,125,0
3,76,0,128
3,76,122,4
3,76,0,92
3,76,123,4
3,76,0,188
3,73,123,0
3,73,0,128
3,69,127,100
3,69,0,572
3,69,127,14500
3,69,0,92
3,68,124,4
3,68,0,92
3,69,125,4
3,69,0,92
3,69,127,100
3,69,0,92
3,69,117,100
3,69,0,284
3,68,124,4
3,68,0,92
3,69,123,4
3,69,0,92
3,68,124,4
3,68,0,92
3,64,125,4
3,64,0,92
3,64,126,484
3,64,0,92
3,69,117,0
3,69,0,128
3,69,122,4
3,69,0,92
3,71,120,4
3,71,0,92
3,68,122,100
3,68,0,92
3,64,120,100
3,64,0,188
3,64,118,196
3,64,0,92
3,64,125,4
3,64,0,92
3,64,120,100
3,64,0,92
3,71,120,0
3,71,0,32
3,71,126,100
3,71,0,92
3,71,118,100
3,71,0,92
3,71,119,100
3,71,0,92
3,69,121,4
3,69,0,92
3,71,127,4
3,71,0,92
3,69,122,4
3,69,0,92
3,73,127,0
3,73,0,32
3,64,125,484
3,64,0,92
3,71,127,4
3,71,0,92
3,71,117,100
3,71,0,92
3,71,123,4
3,71,0,92
3,69,127,100
3,69,0,92
3,73,127,0
3,73,0,128
3,76,127,0
3,76,0,128
3,76,120,100
3,76,0,92
3,76,120,4
3,76,0,188
3,76,117,100
3,76,0,92
3,76,119,4
3,76,0,188
3,74,120,4
3,74,0,188
3,76,124,100
3,76,0,92
3,74,122,4
3,74,0,92
3,78,122,4
3,78,0,92
3,78,120,0
3,78,0,128
3,76,127,4
3,76,0,92
3,76,118,4
3,76,0,92
3,74,118,100
3,74,0,92
3,73,126,100
3,73,0,92
3,73,122,388
3,73,0,92
3,71,117,4
3,71,0,92
3,71,126,4
3,71,0,92
