track,note,velocity,time
1,38,91,7728
1,33,91,0
1,38,103,16
1,40,103,34
1,42,119,2
1,37,119,1242
1,42,119,20
1,40,111,4
1,38,115,288
1,33,99,18
1,38,107,18
1,38,123,48
1,33,107,0
1,40,99,16
1,45,103,0
1,37,127,16
1,38,91,2
1,33,91,4
1,38,103,18
1,40,103,32
1,42,119,2
1,37,119,1248
1,42,119,16
1,40,111,0
1,38,115,286
1,33,99,14
1,38,107,14
1,38,123,48
1,33,107,0
1,40,99,16
1,45,103,0
1,37,127,14
1,38,91,2
1,33,91,4
1,38,103,18
1,40,103,34
1,42,119,2
1,37,119,1246
1,42,119,16
1,40,111,2
1,38,115,286
1,33,99,16
1,38,107,16
1,38,123,44
1,33,107,2
1,40,99,16
1,45,103,0
1,33,103,2
1,28,91,12
1,33,91,20
1,33,91,50
1,35,91,62
1,37,107,64
1,38,95,88
1,45,87,0
1,33,95,0
1,38,95,0
1,45,95,0
1,35,87,100
1,35,95,48
1,42,95,16
1,42,111,50
1,37,103,0
1,37,107,32
1,38,103,16
1,45,83,286
1,52,55,288
1,33,87,0
1,40,79,4
1,45,79,0
1,44,99,1244
1,42,95,0
1,37,95,1242
1,42,87,24
1,40,95,18
1,38,91,292
1,33,87,4
1,38,87,286
1,38,83,66
1,33,95,0
1,40,87,1246
1,45,83,0
1,33,103,38
1,28,91,14
1,33,91,16
1,33,91,48
1,35,91,64
1,37,107,64
1,38,95,84
1,45,87,0
1,33,95,2
1,38,95,16
1,45,95,0
1,35,87,102
1,35,95,56
1,42,95,20
1,42,111,52
1,37,103,2
1,37,107,36
1,38,103,0
1,45,83,272
1,52,55,286
1,45,95,0
1,40,95,2
1,41,91,0
1,43,75,0
1,38,83,478
1,39,91,258
1,41,91,0
1,43,71,770
1,38,87,4
1,31,99,190
1,48,99,0
1,43,99,0
1,44,99,0
1,46,83,0
1,41,95,0
1,43,95,768
1,45,83,0
1,40,79,84
1,33,95,182
1,38,91,12
1,45,83,20
1,33,95,476
1,38,91,2
1,45,87,14
1,38,51,192
1,40,83,64
1,42,95,16
1,45,83,20
1,47,87,94
1,49,91,28
1,42,95,86
1,49,99,0
1,37,103,16
1,42,99,288
1,49,95,752
1,40,83,4
1,38,95,2
1,45,83,0
1,33,95,0
1,38,95,0
1,45,91,12
1,38,95,474
1,33,99,0
1,40,95,16
1,45,95,14
1,33,99,30
1,33,103,4
1,28,91,0
1,33,91,10
1,33,91,34
1,35,91,66
1,37,107,64
1,38,95,80
1,45,87,0
1,33,95,2
1,38,95,16
1,45,95,0
1,35,87,110
1,35,95,42
1,42,95,28
1,42,111,56
1,37,103,0
1,37,107,38
1,38,103,28
1,45,83,270
1,52,55,292
1,38,91,0
1,45,87,762
1,33,83,0
1,38,91,290
1,45,91,18
1,45,71,0
1,38,79,0
1,45,83,18
1,45,91,32
1,38,75,298
2,57,123,7724
2,56,111,40
2,52,95,0
2,57,127,96
2,56,127,178
2,52,107,0
2,57,127,0
2,54,119,76
2,52,107,0
2,57,123,74
2,54,123,172
2,52,111,2
2,57,127,140
2,56,123,32
2,52,103,14
2,57,127,32
2,56,119,110
2,52,111,12
2,57,127,0
2,54,123,64
2,52,107,14
2,57,127,0
2,54,127,108
2,52,115,0
2,57,127,2
2,56,127,34
2,52,111,0
2,57,127,98
2,56,127,132
2,52,119,94
2,59,127,16
2,57,127,108
2,52,115,98
2,59,127,64
2,57,123,112
2,52,111,96
2,57,127,0
2,56,127,30
2,52,115,0
2,57,127,96
2,56,127,112
2,52,119,0
2,59,127,66
2,57,127,112
2,52,115,98
2,59,127,80
2,57,119,114
2,52,119,96
2,59,127,0
2,56,127,48
2,52,115,18
2,59,127,94
2,56,127,160
2,52,123,96
2,61,127,0
2,57,119,114
2,52,115,96
2,61,127,64
2,57,119,162
2,52,111,0
2,59,127,64
2,56,127,32
2,52,119,0
2,59,127,96
2,56,127,112
2,52,119,98
2,61,127,66
2,57,123,112
2,52,107,0
2,61,127,78
2,57,111,82
2,52,107,18
2,59,127,64
2,56,127,32
2,52,115,0
2,59,127,94
2,56,127,112
2,52,119,96
2,61,127,82
2,57,119,128
2,52,107,0
2,61,127,94
2,57,111,114
2,52,107,0
2,59,123,0
2,56,127,32
2,52,115,14
2,59,127,0
2,56,127,114
2,52,119,96
2,61,127,82
2,57,111,112
2,52,107,0
2,61,127,94
2,57,99,82
2,52,107,32
2,57,123,32
2,56,111,50
2,52,95,2
2,57,127,92
2,56,127,180
2,52,107,0
2,57,127,2
2,54,119,82
2,52,107,2
2,57,123,80
2,54,123,174
2,52,111,0
2,57,127,144
2,56,123,34
2,52,103,16
2,57,127,34
2,56,119,114
2,52,111,16
2,57,127,0
2,54,123,62
2,52,107,16
2,57,127,2
2,54,127,112
2,52,115,0
2,57,127,128
2,56,127,32
2,52,111,0
2,57,127,96
2,56,127,128
2,52,119,96
2,59,127,12
2,57,127,110
2,52,115,96
2,59,127,66
2,57,123,110
2,52,111,94
2,57,127,20
2,56,127,32
2,52,115,0
2,57,127,98
2,56,127,116
2,52,119,0
2,59,127,64
2,57,127,112
2,52,115,98
2,59,127,80
2,57,119,114
2,52,119,96
2,59,127,0
2,56,127,50
2,52,115,16
2,59,127,96
2,56,127,158
2,52,123,96
2,61,127,0
2,57,119,112
2,52,115,98
2,61,127,64
2,57,119,162
2,52,111,0
2,59,127,64
2,56,127,32
2,52,119,0
2,59,127,94
2,56,127,112
2,52,119,98
2,61,127,66
2,57,123,112
2,52,107,0
2,61,127,80
2,57,111,82
2,52,107,18
2,59,127,64
2,56,127,32
2,52,115,0
2,59,127,94
2,56,127,112
2,52,119,96
2,61,127,82
2,57,119,128
2,52,107,0
2,61,127,94
2,57,111,114
2,52,107,0
2,59,123,0
2,56,127,32
2,52,115,16
2,59,127,0
2,56,127,112
2,52,119,96
2,61,127,82
2,57,111,112
2,52,107,0
2,61,127,96
2,57,99,82
2,52,107,34
2,57,123,32
2,56,111,50
2,52,95,0
2,57,127,94
2,56,127,160
2,52,107,0
2,57,127,2
2,54,119,80
2,52,107,0
2,57,123,80
2,54,123,178
2,52,111,0
2,57,127,144
2,56,123,32
2,52,103,18
2,57,127,32
2,56,119,112
2,52,111,16
2,57,127,0
2,54,123,64
2,52,107,16
2,57,127,0
2,54,127,114
2,52,115,0
2,57,127,128
2,56,127,30
2,52,111,0
2,57,127,94
2,56,127,126
2,52,119,98
2,59,127,18
2,57,127,112
2,52,115,98
2,59,127,64
2,57,123,114
2,52,111,96
2,57,127,0
2,56,127,32
2,52,115,2
2,57,127,92
2,56,127,112
2,52,119,2
2,59,127,64
2,57,127,112
2,52,115,96
2,59,127,78
2,57,119,112
2,52,119,96
2,59,127,0
2,56,127,48
2,52,115,14
2,59,127,96
2,56,127,162
2,52,123,94
2,61,127,0
2,57,119,108
2,52,115,96
2,61,127,66
2,57,119,160
2,52,111,0
2,59,127,64
2,56,127,32
2,52,119,0
2,59,127,96
2,56,127,108
2,52,119,96
2,61,127,62
2,57,123,102
2,52,107,0
2,61,127,72
2,57,111,78
2,52,107,14
2,59,127,66
2,56,127,32
2,52,115,0
2,59,127,96
2,56,127,110
2,52,119,96
2,61,127,80
2,57,119,128
2,52,107,0
2,61,127,94
2,57,111,116
2,52,107,0
2,59,123,0
2,56,127,32
2,52,115,18
2,59,127,0
2,56,127,112
2,52,119,96
2,61,127,82
2,57,111,108
2,52,107,2
2,61,127,94
2,57,99,82
2,52,107,34
2,59,127,34
2,56,115,96
2,52,91,96
2,59,119,48
2,56,115,18
2,52,87,96
2,61,127,96
2,57,103,146
2,52,79,18
2,61,127,96
2,57,103,112
2,52,91,96
2,59,123,16
2,56,103,50
2,52,91,96
2,59,119,64
2,56,115,146
2,52,95,96
2,61,127,66
2,57,103,142
2,52,91,98
2,61,119,64
2,57,103,82
2,52,95,96
2,57,115,32
2,56,95,50
2,52,87,94
2,57,119,46
2,56,103,82
2,52,91,2
2,57,119,96
2,54,99,112
2,52,91,96
2,57,111,46
2,54,107,146
2,52,95,0
2,57,111,146
2,56,95,64
2,52,91,0
2,57,111,68
2,56,107,160
2,52,95,0
2,57,115,82
2,54,103,144
2,52,95,2
2,57,119,64
2,54,107,2
2,52,95,2
2,62,127,18
2,57,127,4
2,54,127,2
2,54,127,46
2,57,127,0
2,62,127,0
2,54,127,226
2,57,127,0
2,61,127,0
2,64,127,0
2,54,123,52
2,64,127,62
2,54,127,0
2,57,127,0
2,61,127,0
2,64,127,160
2,61,127,2
2,59,127,2
2,56,127,2
2,64,127,130
2,61,127,2
2,59,127,0
2,56,111,4
2,64,71,148
2,61,67,16
2,57,71,20
2,54,71,34
2,57,115,36
2,56,79,0
2,52,75,80
2,57,115,66
2,56,95,54
2,52,87,0
2,57,115,86
2,54,103,66
2,50,87,0
2,57,115,62
2,54,107,20
2,50,91,96
2,57,115,128
2,54,103,0
2,50,91,0
2,57,115,82
2,54,115,32
2,50,91,0
2,57,115,84
2,56,99,32
2,52,87,0
2,57,115,82
2,56,115,0
2,52,95,0
2,59,123,0
2,56,99,72
2,52,87,98
2,59,119,30
2,56,111,146
2,52,91,80
2,61,127,98
2,57,95,32
2,52,87,18
2,61,123,64
2,57,87,50
2,52,79,62
2,59,99,16
2,56,103,0
2,52,95,96
2,59,111,62
2,56,111,130
2,52,91,94
2,61,123,98
2,57,87,48
2,52,79,18
2,61,119,94
2,57,91,18
2,52,87,96
2,59,103,0
2,56,103,64
2,52,79,0
2,59,95,96
2,56,99,146
2,52,83,96
2,61,111,0
2,57,87,128
2,52,71,18
2,61,107,96
2,57,91,114
2,52,79,96
2,59,99,0
2,56,99,46
2,52,79,0
2,59,99,94
2,56,99,160
2,52,83,98
2,61,115,80
2,57,83,80
2,52,75,18
2,61,115,48
2,57,91,114
2,52,75,0
2,59,99,14
2,56,87,48
2,52,79,18
2,59,87,94
2,56,95,112
2,52,83,96
2,61,111,0
2,57,87,128
2,52,71,18
2,61,111,32
2,57,87,130
2,52,79,96
2,59,91,118
2,56,87,44
2,52,83,4
2,59,91,92
2,56,95,62
2,52,83,96
2,61,107,32
2,57,79,114
2,52,75,16
2,61,103,36
2,57,87,52
2,52,75,0
2,59,91,2
2,56,83,74
2,52,71,0
2,59,95,100
2,56,83,124
2,52,79,96
2,61,103,0
2,57,87,128
2,52,75,44
2,61,111,98
2,57,83,128
2,52,79,0
2,59,91,0
2,56,83,62
2,52,75,2
2,59,95,94
2,56,103,76
2,52,83,96
2,61,111,0
2,57,91,120
2,52,75,44
2,61,107,96
2,57,75,12
2,52,75,32
2,59,127,2
2,56,115,96
2,52,91,96
2,59,119,46
2,56,115,0
2,52,87,96
2,61,127,96
2,57,103,140
2,52,79,16
2,61,127,98
2,57,103,110
2,52,91,98
2,59,123,8
2,56,103,48
2,52,91,96
2,59,119,66
2,56,115,146
2,52,95,94
2,61,127,66
2,57,103,146
2,52,91,96
2,61,119,62
2,57,103,80
2,52,95,96
2,57,115,30
2,56,95,44
2,52,87,96
2,57,119,44
2,56,103,76
2,52,91,2
2,57,119,92
2,54,99,110
2,52,91,96
2,57,111,48
2,54,107,146
2,52,95,2
2,57,111,144
2,56,95,62
2,52,91,0
2,57,111,82
2,56,107,160
2,52,95,0
2,57,115,80
2,54,103,142
2,52,95,4
2,57,119,64
2,54,107,4
2,52,95,4
2,62,111,36
2,57,107,2
2,54,99,2
2,54,119,48
2,57,127,0
2,62,127,0
2,54,111,224
2,57,123,0
2,61,127,0
2,64,119,0
2,54,83,48
2,54,123,64
2,57,127,0
2,61,127,0
2,64,127,0
2,61,91,158
2,64,103,0
2,59,111,6
2,56,87,2
2,56,71,128
2,59,87,0
2,61,111,0
2,64,95,0
2,64,75,144
2,61,71,16
2,57,71,18
2,54,75,32
2,57,115,18
2,56,79,0
2,52,75,78
2,57,115,64
2,56,95,48
2,52,87,2
2,57,115,80
2,54,103,64
2,50,87,0
2,57,115,64
2,54,107,16
2,50,91,96
2,57,115,144
2,54,103,0
2,50,91,0
2,57,115,80
2,54,115,32
2,50,91,2
2,57,115,80
2,56,99,32
2,52,87,2
2,57,115,82
2,56,115,0
2,52,95,0
2,59,59,80
2,61,87,70
2,64,103,98
2,61,75,66
2,59,63,96
2,59,67,130
2,61,83,94
2,64,103,94
2,61,83,20
2,59,63,96
2,55,35,190
2,57,75,64
2,60,103,30
2,57,67,64
2,55,67,2
2,57,31,210
2,59,67,64
2,62,95,64
2,67,79,0
2,59,55,98
2,57,71,4
2,58,79,86
2,53,67,46
2,55,79,98
2,58,99,50
2,55,63,64
2,53,67,98
2,55,67,130
2,57,75,16
2,60,95,96
2,57,71,52
2,55,71,18
2,62,83,138
2,67,91,2
2,60,63,56
2,59,75,96
2,67,83,0
2,62,75,0
2,62,55,286
2,64,71,46
2,67,95,98
2,64,67,64
2,62,55,0
2,62,55,194
2,64,67,46
2,67,95,96
2,64,67,82
2,62,55,94
2,58,23,224
2,60,67,48
2,63,99,96
2,60,75,48
2,58,75,98
2,60,55,208
2,62,67,64
2,65,91,96
2,62,55,50
2,60,51,94
2,55,43,206
2,57,67,82
2,60,95,96
2,57,51,80
2,55,55,96
2,57,51,160
2,59,63,76
2,62,91,94
2,59,55,30
2,57,63,98
2,64,83,146
2,57,63,0
2,62,71,54
2,61,67,98
2,57,63,0
2,57,123,112
2,56,111,46
2,52,95,0
2,57,127,94
2,56,127,176
2,52,107,0
2,57,127,0
2,54,119,80
2,52,107,0
2,57,123,80
2,54,123,178
2,52,111,0
2,57,127,144
2,56,123,30
2,52,103,18
2,57,127,34
2,56,119,112
2,52,111,16
2,57,127,0
2,54,123,64
2,52,107,18
2,57,127,0
2,54,127,114
2,52,115,0
2,57,127,130
2,56,127,32
2,52,111,0
2,57,127,98
2,56,127,128
2,52,119,98
2,59,127,18
2,57,127,114
2,52,115,96
2,59,127,66
2,57,123,114
2,52,111,96
2,57,127,0
2,56,127,32
2,52,115,0
2,57,127,98
2,56,127,112
2,52,119,0
2,59,127,66
2,57,127,112
2,52,115,98
2,59,127,80
2,57,119,114
2,52,119,96
2,59,127,0
2,56,127,48
2,52,115,18
2,59,127,96
2,56,127,160
2,52,123,98
2,61,127,0
2,57,119,110
2,52,115,98
2,61,127,66
2,57,119,162
2,52,111,0
2,59,127,66
2,56,127,32
2,52,119,0
2,59,127,96
2,56,127,114
2,52,119,96
2,61,127,66
2,57,123,110
2,52,107,0
2,61,127,82
2,57,111,82
2,52,107,18
2,59,127,64
2,56,127,32
2,52,115,0
2,59,127,96
2,56,127,114
2,52,119,96
2,61,127,66
2,57,119,128
2,52,107,0
2,61,127,94
2,57,111,116
2,52,107,0
2,59,123,0
2,56,127,34
2,52,115,10
2,59,127,0
2,56,127,114
2,52,119,94
2,61,127,80
2,57,111,108
2,52,107,0
2,61,127,98
2,57,99,78
2,52,107,32
2,59,127,40
2,56,115,88
2,52,91,96
2,59,119,46
2,56,115,14
2,52,87,96
2,61,127,96
2,57,103,140
2,52,79,12
2,61,127,98
2,57,103,108
2,52,91,98
2,59,123,14
2,56,103,46
2,52,91,96
2,59,119,46
2,56,115,144
2,52,95,96
2,61,127,66
2,57,103,144
2,52,91,96
2,61,119,64
2,57,103,80
2,52,95,96
2,57,115,0
2,56,95,46
2,52,87,96
2,57,119,46
2,56,103,78
2,52,91,4
2,57,119,94
2,54,99,114
2,52,91,96
2,57,111,46
2,54,107,144
2,52,95,4
2,57,111,0
2,56,95,62
2,52,91,0
2,57,111,62
2,56,107,158
2,52,95,0
2,57,115,78
2,54,103,146
2,52,95,4
2,57,119,62
2,54,107,2
2,52,95,4
2,62,111,32
2,54,99,0
2,57,107,0
2,54,119,48
2,57,127,0
2,62,127,0
2,54,111,226
2,57,123,0
2,61,127,0
2,64,119,0
2,54,83,50
2,54,123,66
2,57,127,0
2,61,127,0
2,64,127,0
2,64,103,162
2,61,91,0
2,59,111,0
2,56,87,6
2,56,71,128
2,59,87,0
2,61,111,0
2,64,95,0
