track,note,velocity,time
2,38,98,26
2,33,117,4
2,38,103,4
2,40,114,4
2,42,115,4
2,37,113,4
2,42,123,4
2,40,127,2
2,38,117,2
2,33,108,2
2,38,113,2
2,38,107,2
2,33,110,2
2,40,112,2
2,45,91,2
2,37,125,2
2,38,98,2
2,33,117,4
2,38,103,4
2,40,114,4
2,42,115,4
2,37,113,4
2,42,123,4
2,40,127,2
2,38,117,2
2,33,108,2
2,38,113,2
2,38,107,2
2,33,110,2
2,40,112,2
2,45,91,2
2,37,125,2
2,38,98,2
2,33,117,4
2,38,103,4
2,40,114,4
2,42,115,4
2,37,113,4
2,42,123,4
2,40,127,2
2,38,117,2
2,33,108,2
2,38,113,2
2,33,110,2
2,28,112,2
2,33,91,2
2,33,125,2
2,33,110,2
2,28,103,2
2,33,98,2
2,33,108,2
2,35,105,2
2,37,110,2
2,38,110,2
2,45,106,2
2,33,99,2
2,38,104,2
2,45,106,2
2,35,112,2
2,35,109,2
2,42,114,98
2,42,109,98
2,49,105,2
2,49,106,50
2,38,110,2
2,45,102,2
2,52,85,2
2,45,93,866
2,40,112,4
2,45,98,4
2,44,109,4
2,42,110,4
2,37,108,4
2,42,118,4
2,40,127,2
2,38,112,2
2,33,103,2
2,38,111,2
2,38,108,2
2,33,105,2
2,28,107,2
2,33,86,2
2,33,120,2
2,33,110,2
2,28,103,2
2,33,98,2
2,33,108,2
2,35,105,2
2,37,110,2
2,38,110,2
2,45,106,2
2,33,99,2
2,38,104,2
2,45,106,2
2,35,112,2
2,35,109,2
2,42,114,98
2,42,109,98
2,49,105,2
2,49,106,50
2,38,110,2
2,45,102,2
2,52,85,2
2,45,103,866
2,40,106,2
2,41,104,2
2,43,109,2
2,38,110,2
2,39,107,2
2,41,100,2
2,43,101,2
2,38,99,2
2,43,89,2
2,48,103,2
2,43,106,2
2,44,104,2
2,46,109,2
2,41,107,2
2,43,100,2
2,45,101,2
2,40,99,2
2,33,89,2
2,38,112,242
2,45,109,2
2,33,106,2
2,38,107,4
2,45,112,2
2,38,99,2
2,42,100,0
2,47,101,0
2,42,115,0
2,49,107,2
2,37,104,2
2,42,107,4
2,49,103,2
2,52,75,2
2,38,111,2
2,45,105,2
2,33,109,2
2,38,104,2
2,45,109,2
2,38,111,2
2,33,109,2
2,40,108,2
2,45,111,2
2,33,102,50
2,37,87,50
2,40,97,3
2,42,98,3
2,40,87,2
2,33,115,46
2,28,108,2
2,33,103,2
2,33,113,2
2,35,110,2
2,37,115,2
2,38,115,2
2,45,111,2
2,33,104,2
2,38,109,2
2,45,111,2
2,35,117,2
2,35,114,2
2,42,119,98
2,42,114,98
2,44,88,2
2,42,88,2
2,37,110,2
2,37,111,50
2,38,115,2
2,45,107,2
2,52,90,2
2,38,100,866
2,45,101,2
2,33,98,2
2,38,110,2
2,45,109,2
2,38,101,8
2,45,99,2
2,38,99,2
3,57,110,39716
3,61,114,0
3,64,123,48
3,69,118,2
3,76,126,2
3,76,121,2
3,76,127,2
3,73,112,2
3,69,105,2
3,64,87,2
3,69,123,50
3,76,127,2
3,76,127,2
3,74,127,2
3,72,127,2
3,74,127,2
3,71,120,2
3,67,105,2
3,62,99,2
3,67,127,98
3,74,127,2
3,74,127,2
3,72,123,2
3,70,120,2
3,72,125,2
3,69,108,2
3,65,102,2
3,69,120,2
3,67,96,2
3,65,87,2
3,67,118,2
3,62,93,2
3,60,96,2
3,59,84,2
3,60,124,338
3,67,120,2
3,72,124,2
3,79,126,2
3,79,126,2
3,79,120,2
3,76,127,2
3,72,115,2
3,56,127,50
3,68,127,2
3,72,123,2
3,79,121,2
3,77,108,2
3,75,102,2
3,77,127,2
3,58,127,2
3,70,127,2
3,77,124,2
3,75,125,2
3,74,120,2
3,72,127,2
3,69,122,2
3,72,127,2
3,81,124,2
3,71,127,2
3,79,127,0
3,69,127,2
3,77,127,0
3,71,124,2
3,79,125,0
3,67,127,2
3,74,127,0
3,62,118,2
3,71,118,0
3,67,126,2
3,62,127,2
3,59,115,2
3,57,120,2
3,64,122,0
3,62,127,2
3,61,120,2
4,69,119,96
4,68,118,2
4,69,122,2
4,69,127,50
4,69,125,50
4,68,125,2
4,69,127,2
4,68,125,2
4,64,121,2
4,64,119,242
4,69,126,2
4,69,126,2
4,71,127,2
4,68,117,50
4,64,127,50
4,64,119,98
4,64,121,2
4,64,117,50
4,71,117,2
4,71,122,50
4,71,127,50
4,71,120,50
4,69,126,2
4,71,125,2
4,69,117,2
4,73,127,0
4,64,125,242
4,71,126,2
4,71,127,50
4,71,118,2
4,69,118,2
4,73,122,0
4,76,117,0
4,74,127,50
4,74,124,2
4,74,127,50
4,74,127,2
4,73,122,2
4,73,125,50
4,71,121,2
4,69,120,2
4,71,126,290
4,71,127,50
4,71,127,2
4,69,123,2
4,73,120,50
4,64,121,242
4,71,125,2
4,73,120,2
4,73,119,2
4,76,120,818
4,74,121,50
4,73,127,50
4,73,123,146
4,71,127,2
4,69,117,2
4,71,127,2
4,69,124,2
4,69,123,2
4,64,124,194
4,64,127,2
4,71,119,2
4,73,125,2
4,69,122,2
4,64,125,2
4,71,120,2
4,64,118,242
4,64,125,50
4,71,121,2
4,71,122,50
4,71,124,50
4,71,125,50
4,69,122,2
4,71,120,2
4,69,123,2
4,73,118,2
4,64,127,242
4,71,121,2
4,71,127,50
4,71,120,2
4,69,124,50
4,73,121,2
4,76,127,0
4,74,121,2
4,74,127,2
4,74,87,2
4,74,117,50
4,73,119,2
4,73,127,50
4,71,117,2
4,69,118,2
4,71,122,290
4,71,121,50
4,71,120,2
4,69,127,50
4,73,126,0
4,64,120,242
4,71,119,2
4,73,119,0
4,73,117,2
4,76,127,0
4,76,118,2
4,76,127,194
4,74,119,2
4,73,124,2
4,76,127,0
4,76,123,0
4,76,125,2
4,74,127,2
4,73,125,2
4,71,125,2
4,71,121,50
4,73,121,0
4,69,122,2
4,69,121,50
4,69,127,914
4,69,117,2
4,71,122,2
4,73,120,50
4,69,127,2
4,69,126,2
4,71,124,2
4,73,121,2
4,69,120,2
4,69,123,242
4,76,118,0
4,76,122,2
4,76,126,2
4,73,117,2
4,69,127,50
4,71,121,0
4,73,121,2
4,73,127,2
4,73,127,98
4,71,120,2
4,71,127,2
4,71,121,2
4,73,127,98
4,73,122,2
4,73,119,146
4,71,119,2
4,71,124,0
4,73,123,2
4,73,127,2
4,73,127,0
4,73,127,2
4,73,118,50
4,71,119,2
4,69,117,2
4,71,118,2
4,69,124,2
4,69,122,2
4,73,120,0
4,73,127,2
4,73,119,2
4,71,118,2
4,69,127,2
4,71,127,2
4,69,119,2
4,69,118,2
4,73,126,98
4,71,127,2
4,71,124,2
4,71,127,0
4,73,125,2
4,73,117,2
4,76,87,0
4,76,127,194
4,76,122,194
4,74,127,2
4,73,125,2
4,76,127,0
4,76,120,0
4,76,119,2
4,74,123,2
4,73,121,2
4,71,127,2
4,71,127,50
4,73,124,0
4,69,122,2
4,69,127,50
4,69,127,914
4,69,127,2
4,71,120,0
4,73,121,50
4,69,126,2
4,69,117,2
4,71,121,2
4,73,127,2
4,69,126,2
4,69,124,242
4,76,125,0
4,76,122,2
4,76,123,2
4,73,123,0
4,69,127,50
4,69,127,7250
4,68,124,2
4,69,125,2
4,69,127,50
4,69,117,50
4,68,124,2
4,69,123,2
4,68,124,2
4,64,125,2
4,64,126,242
4,69,117,0
4,69,122,2
4,71,120,2
4,68,122,50
4,64,120,50
4,64,118,98
4,64,125,2
4,64,120,50
4,71,120,0
4,71,126,50
4,71,118,50
4,71,119,50
4,69,121,2
4,71,127,2
4,69,122,2
4,73,127,0
4,64,125,242
4,71,127,2
4,71,117,50
4,71,123,2
4,69,127,50
4,73,127,0
4,76,127,0
4,76,120,50
4,76,120,2
4,76,117,50
4,76,119,2
4,74,120,2
4,76,124,50
4,74,122,2
4,78,122,2
4,78,120,0
4,76,127,2
4,76,118,2
4,74,118,50
4,73,126,50
4,73,122,194
4,71,117,2
4,71,126,2
4,71,126,2
4,73,117,0
4,73,119,2
4,76,112,0
4,76,120,50
4,76,127,194
4,74,117,2
4,73,121,2
4,76,127,0
4,76,117,0
4,76,117,2
4,74,124,2
4,73,123,2
4,71,126,2
4,71,122,50
4,73,126,0
4,69,119,2
4,69,121,50
4,69,126,722
4,69,121,2
4,71,122,2
4,73,117,0
4,69,118,2
4,69,120,2
4,71,124,2
4,73,122,2
4,69,127,2
4,69,126,242
4,76,117,0
4,76,127,2
4,76,120,2
4,73,118,2
4,69,117,50
5,57,76,26
5,56,81,2
5,52,63,2
5,57,78,2
5,56,78,2
5,52,60,2
5,57,87,2
5,54,87,2
5,52,67,2
5,57,83,2
5,54,78,2
5,52,66,2
5,57,76,2
5,56,81,2
5,52,63,2
5,57,78,2
5,56,78,2
5,52,60,2
5,57,87,2
5,54,87,2
5,52,67,2
5,57,83,2
5,54,78,2
5,52,66,2
5,57,76,2
5,56,81,2
5,52,63,2
5,57,78,2
5,56,78,2
5,52,60,2
5,59,87,2
5,56,87,2
5,52,67,2
5,59,83,2
5,56,78,2
5,52,66,2
5,57,76,2
5,56,81,1
5,52,63,1
5,57,78,1
5,56,78,1
5,52,60,1
5,59,87,1
5,56,87,1
5,52,67,1
5,59,83,1
5,56,78,1
5,52,66,1
5,59,76,1
5,56,81,1
5,52,63,1
5,59,78,1
5,56,78,1
5,52,60,1
5,61,87,1
5,57,87,1
5,52,67,1
5,61,83,1
5,57,78,1
5,52,66,1
5,59,76,1
5,56,81,1
5,52,63,1
5,59,78,1
5,56,78,1
5,52,60,1
5,61,87,1
5,57,87,1
5,52,67,1
5,61,83,1
5,57,78,1
5,52,66,1
5,59,76,1
5,56,81,1
5,52,63,1
5,59,78,1
5,56,78,1
5,52,60,1
5,61,87,1
5,57,87,1
5,52,67,1
5,61,83,1
5,57,78,1
5,52,66,1
5,59,76,1
5,56,81,1
5,52,63,1
5,59,78,1
5,56,78,1
5,52,60,1
5,61,87,1
5,57,87,1
5,52,67,1
5,61,83,1
5,57,78,1
5,52,66,1
5,57,76,1
5,56,81,2
5,52,63,2
5,57,78,2
5,56,78,2
5,52,60,2
5,57,87,2
5,54,87,2
5,52,67,2
5,57,83,2
5,54,78,2
5,52,66,2
5,57,76,2
5,56,81,2
5,52,63,2
5,57,78,2
5,56,78,2
5,52,60,2
5,57,87,2
5,54,87,2
5,52,67,2
5,57,83,2
5,54,78,2
5,52,66,2
5,57,76,2
5,56,81,2
5,52,63,2
5,57,78,2
5,56,78,2
5,52,60,2
5,59,87,2
5,56,87,2
5,52,67,2
5,59,83,2
5,56,78,2
5,52,66,2
5,57,76,2
5,56,81,1
5,52,63,1
5,57,78,1
5,56,78,1
5,52,60,1
5,59,87,1
5,56,87,1
5,52,67,1
5,59,83,1
5,56,78,1
5,52,66,1
5,59,76,1
5,56,81,1
5,52,63,1
5,59,78,1
5,56,78,1
5,52,60,1
5,61,87,1
5,57,87,1
5,52,67,1
5,61,83,1
5,57,78,1
5,52,66,1
5,59,76,1
5,56,81,1
5,52,63,1
5,59,78,1
5,56,78,1
5,52,60,1
5,61,87,1
5,57,87,1
5,52,67,1
5,61,83,1
5,57,78,1
5,52,66,1
5,59,76,1
5,56,81,1
5,52,63,1
5,59,78,1
5,56,78,1
5,52,60,1
5,61,87,1
5,57,87,1
5,52,67,1
5,61,83,1
5,57,78,1
5,52,66,1
5,59,76,1
5,56,81,1
5,52,63,1
5,59,78,1
5,56,78,1
5,52,60,1
5,61,87,1
5,57,87,1
5,52,67,1
5,61,83,1
5,57,78,1
5,52,66,1
5,57,76,1
5,56,81,2
5,52,63,2
5,57,78,2
5,56,78,2
5,52,60,2
5,57,87,2
5,54,87,2
5,52,67,2
5,57,83,2
5,54,78,2
5,52,66,2
5,57,76,2
5,56,81,2
5,52,63,2
5,57,78,2
5,56,78,2
5,52,60,2
5,57,87,2
5,54,87,2
5,52,67,2
5,57,83,2
5,54,78,2
5,52,66,2
5,57,76,2
5,56,81,2
5,52,63,2
5,57,78,2
5,56,78,2
5,52,60,2
5,59,87,2
5,56,87,2
5,52,67,2
5,59,83,2
5,56,78,2
5,52,66,2
5,57,76,2
5,56,81,1
5,52,63,1
5,57,78,1
5,56,78,1
5,52,60,1
5,59,87,1
5,56,87,1
5,52,67,1
5,59,83,1
5,56,78,1
5,52,66,1
5,59,76,1
5,56,81,1
5,52,63,1
5,59,78,1
5,56,78,1
5,52,60,1
5,61,87,1
5,57,87,1
5,52,67,1
5,61,83,1
5,57,78,1
5,52,66,1
5,59,76,1
5,56,81,1
5,52,63,1
5,59,78,1
5,56,78,1
5,52,60,1
5,61,87,1
5,57,87,1
5,52,67,1
5,61,83,1
5,57,78,1
5,52,66,1
5,59,76,1
5,56,81,1
5,52,63,1
5,59,78,1
5,56,78,1
5,52,60,1
5,61,87,1
5,57,87,1
5,52,67,1
5,61,83,1
5,57,78,1
5,52,66,1
5,59,76,1
5,56,81,1
5,52,63,1
5,59,78,1
5,56,78,1
5,52,60,1
5,61,87,1
5,57,87,1
5,52,67,1
5,61,83,1
5,57,78,1
5,52,66,1
5,59,76,1
5,56,81,1
5,52,63,1
5,59,78,1
5,56,78,1
5,52,60,1
5,61,87,1
5,57,87,1
5,52,67,1
5,61,83,1
5,57,78,1
5,52,66,1
5,59,76,1
5,56,81,1
5,52,63,1
5,59,78,1
5,56,78,1
5,52,60,1
5,61,87,1
5,57,87,1
5,52,67,1
5,61,83,1
5,57,78,1
5,52,66,1
5,57,76,1
5,56,81,2
5,52,63,2
5,57,78,2
5,56,78,2
5,52,60,2
5,57,87,2
5,54,87,2
5,52,67,2
5,57,83,2
5,54,78,2
5,52,66,2
5,57,76,2
5,56,81,2
5,52,63,2
5,57,78,2
5,56,78,2
5,52,60,2
5,57,87,2
5,54,87,2
5,52,67,2
5,57,83,2
5,54,78,2
5,52,66,2
5,59,81,2690
5,56,86,1
5,52,68,1
5,59,83,1
5,56,83,1
5,52,65,1
5,61,92,1
5,57,92,1
5,52,72,1
5,61,88,1
5,57,83,1
5,52,71,1
5,59,81,1
5,56,86,1
5,52,68,1
5,59,83,1
5,56,83,1
5,52,65,1
5,61,92,1
5,57,92,1
5,52,72,1
5,61,88,1
5,57,83,1
5,52,71,1
5,59,81,1
5,56,86,1
5,52,68,1
5,59,83,1
5,56,83,1
5,52,65,1
5,61,92,1
5,57,92,1
5,52,72,1
5,61,88,1
5,57,83,1
5,52,71,1
5,59,81,1
5,56,86,1
5,52,68,1
5,59,83,1
5,56,83,1
5,52,65,1
5,61,92,1
5,57,92,1
5,52,72,1
5,61,88,1
5,57,83,1
5,52,71,1
5,59,81,1
5,56,86,1
5,52,68,1
5,59,83,1
5,56,83,1
5,52,65,1
5,61,92,1
5,57,92,1
5,52,72,1
5,61,88,1
5,57,83,1
5,52,71,1
5,59,81,1
5,56,86,1
5,52,68,1
5,59,83,1
5,56,83,1
5,52,65,1
5,61,92,1
5,57,92,1
5,52,72,1
5,61,88,1
5,57,83,1
5,52,71,1
5,59,81,1
5,56,86,1
5,52,68,1
5,59,83,1
5,56,83,1
5,52,65,1
5,61,92,1
5,57,92,1
5,52,72,1
5,61,88,1
5,57,83,1
5,52,71,1
5,59,81,1
5,56,86,1
5,52,68,1
5,59,83,1
5,56,83,1
5,52,65,1
5,61,92,1
5,57,92,1
5,52,72,1
5,61,88,1
5,57,83,1
5,52,71,1
5,59,76,1
5,56,81,1
5,52,63,1
5,59,78,1
5,56,78,1
5,52,60,1
5,61,87,1
5,57,87,1
5,52,67,1
5,61,83,1
5,57,78,1
5,52,66,1
5,59,76,1
5,56,81,1
5,52,63,1
5,59,78,1
5,56,78,1
5,52,60,1
5,61,87,1
5,57,87,1
5,52,67,1
5,61,83,1
5,57,78,1
5,52,66,1
5,57,76,1
5,56,81,2
5,52,63,2
5,57,78,2
5,56,78,2
5,52,60,2
5,57,87,2
5,54,87,2
5,52,67,2
5,57,83,2
5,54,78,2
