track,note,velocity,time
1,53,127,13008
1,55,127,384
1,58,127,368
1,58,127,56
1,62,127,264
1,65,127,384
1,67,127,32
1,67,127,96
1,67,127,192
1,65,127,96
1,65,127,80
1,63,127,0
1,63,127,208
1,62,127,64
1,62,127,48
1,63,127,96
1,62,127,16
1,62,127,64
1,60,127,768
1,62,127,80
1,60,127,32
1,58,127,16
1,58,127,32
1,55,127,112
1,58,127,384
1,62,127,0
1,60,127,64
1,60,127,112
1,58,127,128
1,58,127,80
1,57,127,1104
1,55,127,176
1,53,127,176
1,53,127,112
1,55,127,384
1,58,127,0
1,58,127,144
1,60,127,224
1,62,127,48
1,65,127,8
1,65,127,176
1,67,127,48
1,67,127,112
1,66,127,152
1,67,127,0
1,65,127,96
1,65,127,80
1,63,127,16
1,63,127,176
1,62,127,0
1,62,127,64
1,62,127,176
1,63,127,48
1,62,127,504
1,62,127,64
1,60,127,768
1,62,127,128
1,60,127,528
1,58,127,48
1,58,127,96
1,55,127,1536
1,58,127,352
1,62,127,336
1,60,127,32
1,60,127,176
1,58,127,32
1,58,127,80
1,57,127,1152
1,55,127,160
1,53,127,0
1,64,127,192
1,53,127,48
1,65,127,0
1,55,127,96
1,67,127,0
1,58,127,16
1,70,127,0
1,58,127,96
1,70,127,0
1,72,127,208
1,62,127,48
1,74,127,0
1,65,127,0
1,77,127,0
1,67,127,48
1,79,127,0
1,67,127,64
1,79,127,0
1,78,127,80
1,67,127,48
1,79,127,0
1,77,127,8
1,65,127,56
1,65,127,48
1,77,127,48
1,63,127,16
1,75,127,0
1,63,127,176
1,75,127,48
1,74,127,16
1,62,127,16
1,62,127,16
1,74,127,0
1,74,127,112
1,63,127,0
1,75,127,0
1,62,127,0
1,74,127,0
1,62,127,48
1,74,127,0
1,72,127,720
1,60,127,0
1,62,127,144
1,74,127,0
1,60,127,0
1,72,127,0
1,58,127,48
1,70,127,0
1,58,127,56
1,70,127,0
1,55,127,0
1,67,127,48
1,58,127,384
1,70,127,0
1,62,127,0
1,74,127,0
1,60,127,32
1,72,127,0
1,60,127,192
1,72,127,0
1,58,127,96
1,70,127,0
1,70,127,16
1,58,127,48
1,57,127,32
1,69,127,0
1,55,127,0
1,67,127,0
1,53,127,176
1,65,127,0
1,53,127,144
1,65,127,0
1,55,127,0
1,67,127,0
1,69,127,96
1,58,127,4
1,70,127,0
1,70,127,36
1,58,127,48
1,60,127,320
1,62,127,0
1,72,127,0
1,74,127,0
1,77,127,0
1,65,127,0
1,77,127,208
1,67,127,48
1,79,127,0
1,70,127,32
1,82,127,0
1,67,127,32
1,79,127,0
1,66,127,128
1,78,127,0
1,67,127,0
1,79,127,0
1,77,127,0
1,65,127,48
1,65,127,48
1,77,127,0
1,75,127,720
1,63,127,16
1,62,127,144
1,74,127,0
1,75,127,0
1,63,127,0
1,62,127,8
1,74,127,0
1,62,127,64
1,74,127,0
1,63,127,32
1,75,127,0
1,74,127,112
1,62,127,32
1,62,127,20
1,74,127,48
1,60,127,16
1,72,127,0
1,62,127,80
1,74,127,0
1,60,127,16
1,72,127,0
1,58,127,0
1,70,127,0
1,58,127,104
1,70,127,0
1,55,127,1536
1,67,127,0
1,58,127,352
1,70,127,0
1,62,127,24
1,74,127,0
1,60,127,16
1,72,127,0
1,60,127,176
1,72,127,0
1,58,127,64
1,70,127,48
1,58,127,32
1,70,127,48
1,46,127,512
1,58,127,0
1,48,127,384
1,60,127,0
1,51,127,192
1,63,127,0
1,51,127,48
1,63,127,0
1,55,127,128
1,67,127,0
1,58,127,32
1,70,127,0
1,60,127,0
1,72,127,0
1,60,127,112
1,72,127,0
1,60,127,172
1,72,127,0
1,58,127,56
1,70,127,0
1,58,127,80
1,70,127,0
1,56,127,768
1,68,127,0
1,56,127,144
1,68,127,0
1,55,127,16
1,67,127,0
1,55,127,48
1,67,127,0
1,56,127,128
1,68,127,0
1,55,127,16
1,67,127,0
1,55,127,56
1,67,127,0
1,53,127,0
1,65,127,0
1,55,127,0
1,67,127,0
1,53,127,32
1,65,127,0
1,51,127,0
1,63,127,0
1,51,127,96
1,63,127,0
1,48,127,0
1,60,127,0
1,51,127,384
1,63,127,0
1,55,127,0
1,67,127,0
1,53,127,736
1,65,127,0
1,53,127,144
1,65,127,0
1,51,127,96
1,63,127,0
1,51,127,80
1,63,127,0
1,50,127,0
1,62,127,0
1,46,127,0
1,58,127,48
1,48,127,0
1,60,127,0
1,51,127,336
1,63,127,0
1,51,127,96
1,63,127,0
1,55,127,192
1,67,127,0
1,58,127,384
1,70,127,0
1,60,127,0
1,72,127,0
1,60,127,128
1,72,127,0
1,60,127,136
1,72,127,0
1,58,127,48
1,70,127,0
1,58,127,80
1,70,127,0
1,56,127,0
1,68,127,0
1,56,127,120
1,68,127,0
1,55,127,32
1,67,127,0
1,55,127,64
1,67,127,0
1,56,127,144
1,68,127,0
1,55,127,32
1,67,127,48
1,55,127,80
1,67,127,0
1,53,127,48
1,65,127,0
1,55,127,144
1,67,127,0
1,53,127,80
1,65,127,0
1,51,127,64
1,63,127,0
1,51,127,80
1,63,127,0
1,48,127,32
1,60,127,0
1,51,127,384
1,63,127,0
1,55,127,32
1,67,127,0
1,53,127,752
1,65,127,0
2,63,77,1488
2,67,77,192
2,68,77,192
2,67,77,0
2,63,77,160
2,67,77,128
2,68,77,0
2,67,77,192
2,63,77,128
2,67,77,112
2,68,77,0
2,67,77,0
2,63,77,128
2,67,77,128
2,68,77,192
2,67,77,0
2,58,77,0
2,65,77,128
2,70,77,192
2,65,77,0
2,58,77,128
2,65,77,112
2,70,77,192
2,65,77,0
2,58,77,128
2,65,77,112
2,70,77,192
2,65,77,0
2,58,77,128
2,65,77,144
2,70,77,192
2,65,77,176
2,63,77,176
2,67,77,176
2,68,77,192
2,67,77,16
2,63,77,128
2,67,77,128
2,68,77,0
2,67,77,0
2,63,77,128
2,67,77,128
2,68,77,0
2,67,77,192
2,63,77,120
2,67,77,80
2,68,77,192
2,67,77,0
2,58,77,0
2,65,77,160
2,70,77,192
2,65,77,176
2,58,77,96
2,65,77,144
2,70,77,192
2,65,77,0
2,53,77,152
2,65,77,160
2,69,77,192
2,65,77,8
2,53,77,128
2,65,77,64
2,69,77,0
2,65,77,192
2,58,77,0
2,65,77,160
2,70,77,192
2,65,77,0
2,58,77,136
2,65,77,144
2,70,77,192
2,65,77,0
2,58,77,128
2,65,77,96
2,70,77,0
2,65,77,0
2,58,77,128
2,65,77,144
2,70,77,192
2,65,77,176
2,55,77,176
2,67,77,176
2,70,77,192
2,67,77,0
2,55,77,120
2,67,77,128
2,70,77,192
2,67,77,0
2,55,77,128
2,67,77,128
2,70,77,192
2,67,77,0
2,55,77,112
2,67,77,112
2,70,77,192
2,67,77,0
2,51,77,176
2,67,77,96
2,70,77,192
2,67,77,8
2,51,77,128
2,67,77,136
2,70,77,192
2,67,77,0
2,51,77,128
2,67,77,80
2,70,77,0
2,67,77,192
2,51,77,128
2,67,77,128
2,70,77,192
2,67,77,0
2,58,77,80
2,65,77,176
2,70,77,192
2,65,77,176
2,58,77,120
2,65,77,144
2,70,77,192
2,65,77,0
2,58,77,144
2,65,77,112
2,70,77,0
2,65,77,0
2,58,77,136
2,65,77,112
2,70,77,192
2,65,77,176
2,58,77,128
2,64,77,176
2,70,77,192
2,64,77,176
2,58,77,120
2,64,77,144
2,70,77,192
2,64,77,176
2,58,77,128
2,64,77,128
2,70,77,0
2,64,77,0
2,58,77,152
2,64,77,160
2,70,77,192
2,64,77,16
2,58,77,176
2,62,77,176
2,67,77,192
2,62,77,12
2,58,77,184
2,62,77,160
2,67,77,192
2,62,77,0
2,58,77,160
2,62,77,152
2,67,77,0
2,62,77,8
2,58,77,144
2,62,77,160
2,67,77,192
2,62,77,176
2,58,77,144
2,63,77,160
2,67,77,192
2,63,77,176
2,58,77,128
2,63,77,176
2,67,77,0
2,63,77,192
2,58,77,152
2,63,77,144
2,67,77,192
2,63,77,176
2,58,77,112
2,63,77,160
2,67,77,192
2,63,77,184
2,58,77,144
2,65,77,160
2,70,77,192
2,65,77,176
2,58,77,112
2,65,77,144
2,70,77,0
2,65,77,192
2,53,77,0
2,65,77,184
2,69,77,192
2,65,77,16
2,53,77,112
2,65,77,160
2,69,77,160
2,65,77,0
2,58,77,192
2,65,77,160
2,70,77,192
2,65,77,176
2,58,77,136
2,65,77,144
2,70,77,192
2,65,77,0
2,58,77,136
2,65,77,96
2,70,77,0
2,65,77,0
2,58,77,128
2,65,77,144
2,70,77,192
2,65,77,176
2,55,77,176
2,67,77,176
2,70,77,192
2,67,77,0
2,55,77,128
2,67,77,128
2,70,77,192
2,67,77,0
2,55,77,136
2,67,77,128
2,70,77,192
2,67,77,0
2,55,77,112
2,67,77,112
2,70,77,192
2,67,77,0
2,51,77,176
2,67,77,96
2,70,77,192
2,67,77,8
2,51,77,128
2,67,77,144
2,70,77,192
2,67,77,0
2,51,77,128
2,67,77,80
2,70,77,0
2,67,77,192
2,51,77,128
2,67,77,128
2,70,77,192
2,67,77,0
2,58,77,80
2,65,77,176
2,70,77,192
2,65,77,176
2,58,77,120
2,65,77,144
2,70,77,192
2,65,77,0
2,58,77,144
2,65,77,112
2,70,77,0
2,65,77,0
2,58,77,136
2,65,77,112
2,70,77,192
2,65,77,176
2,58,77,128
2,64,77,176
2,70,77,192
2,64,77,176
2,58,77,120
2,64,77,144
2,70,77,192
2,64,77,176
2,58,77,136
2,64,77,136
2,70,77,0
2,64,77,0
2,58,77,144
2,64,77,160
2,70,77,192
2,64,77,16
2,58,77,176
2,62,77,176
2,67,77,192
2,62,77,0
2,58,77,144
2,62,77,160
2,67,77,192
2,62,77,0
2,58,77,160
2,62,77,160
2,67,77,0
2,62,77,0
2,58,77,144
2,62,77,160
2,67,77,192
2,62,77,176
2,58,77,152
2,63,77,160
2,67,77,192
2,63,77,176
2,58,77,128
2,63,77,176
2,67,77,0
2,63,77,192
2,58,77,152
2,63,77,144
2,67,77,192
2,63,77,176
2,58,77,112
2,63,77,160
2,67,77,192
2,63,77,184
2,58,77,144
2,65,77,160
2,70,77,192
2,65,77,0
2,58,77,112
2,65,77,144
2,70,77,8
2,65,77,192
2,53,77,0
2,65,77,176
2,69,77,192
2,65,77,16
2,53,77,112
2,65,77,160
2,69,77,160
2,65,77,0
2,58,77,192
2,65,77,160
2,70,77,192
2,65,77,176
2,58,77,136
2,65,77,144
2,70,77,192
2,65,77,0
2,58,77,128
2,65,77,96
2,70,77,0
2,65,77,0
2,58,77,128
2,65,77,144
2,70,77,192
2,65,77,176
2,55,77,176
2,67,77,176
2,70,77,192
2,67,77,0
2,55,77,128
2,67,77,128
2,70,77,192
2,67,77,0
2,55,77,136
2,67,77,128
2,70,77,192
2,67,77,0
2,55,77,112
2,67,77,112
2,70,77,192
2,67,77,176
2,51,77,176
2,67,77,96
2,70,77,192
2,67,77,8
2,51,77,128
2,67,77,144
2,70,77,192
2,67,77,0
2,51,77,128
2,67,77,80
2,70,77,0
2,67,77,192
2,51,77,128
2,67,77,128
2,70,77,192
2,67,77,0
2,58,77,80
2,65,77,176
2,70,77,192
2,65,77,176
2,58,77,120
2,65,77,144
2,70,77,192
2,65,77,0
2,58,77,144
2,65,77,112
2,70,77,0
2,65,77,0
2,58,77,136
2,65,77,120
2,70,77,192
2,65,77,176
2,58,77,128
2,64,77,176
2,70,77,192
2,64,77,176
2,58,77,128
2,64,77,144
2,70,77,192
2,64,77,176
2,58,77,136
2,64,77,128
2,70,77,0
2,64,77,0
2,58,77,152
2,64,77,160
2,70,77,192
2,64,77,16
2,58,77,176
2,62,77,176
2,67,77,192
2,62,77,176
2,58,77,144
2,62,77,160
2,67,77,192
2,62,77,0
2,58,77,160
2,62,77,160
2,67,77,0
2,62,77,8
2,58,77,144
2,62,77,160
2,67,77,192
2,62,77,176
2,58,77,152
2,63,77,160
2,67,77,192
2,63,77,176
2,58,77,128
2,63,77,176
2,67,77,0
2,63,77,192
2,58,77,152
2,63,77,144
2,67,77,192
2,63,77,176
2,58,77,112
2,63,77,160
2,67,77,192
2,63,77,184
2,58,77,144
2,65,77,160
2,70,77,192
2,65,77,0
2,58,77,112
2,65,77,144
2,70,77,8
2,65,77,192
2,53,77,0
2,65,77,176
2,69,77,192
2,65,77,16
2,53,77,112
2,65,77,160
2,69,77,160
2,65,77,0
2,58,77,192
2,65,77,160
2,70,77,192
2,65,77,176
2,58,77,136
2,65,77,144
2,70,77,192
2,65,77,0
2,58,77,136
2,65,77,96
2,70,77,0
2,65,77,0
2,58,77,128
2,65,77,152
2,70,77,192
2,65,77,176
2,55,77,176
2,67,77,176
2,70,77,192
2,67,77,0
2,55,77,120
2,67,77,128
2,70,77,192
2,67,77,0
2,55,77,136
2,67,77,128
2,70,77,192
2,67,77,0
2,55,77,112
2,67,77,112
2,70,77,192
2,67,77,0
2,51,77,176
2,67,77,96
2,70,77,192
2,67,77,8
2,51,77,128
2,67,77,144
2,70,77,192
2,67,77,0
2,51,77,128
2,67,77,80
2,70,77,0
2,67,77,192
2,51,77,128
2,67,77,128
2,70,77,192
2,67,77,0
2,58,77,80
2,65,77,176
2,70,77,192
2,65,77,176
2,58,77,120
2,65,77,144
2,70,77,192
2,65,77,0
2,58,77,136
2,65,77,112
2,70,77,0
2,65,77,0
2,58,77,136
2,65,77,120
2,70,77,192
2,65,77,176
2,58,77,128
2,64,77,176
2,70,77,192
2,64,77,176
2,58,77,128
2,64,77,144
2,70,77,192
2,64,77,176
2,58,77,136
2,64,77,136
2,70,77,0
2,64,77,0
2,58,77,144
2,64,77,160
2,70,77,192
2,64,77,16
2,58,77,176
2,62,77,176
2,67,77,192
2,62,77,176
2,58,77,136
2,62,77,160
2,67,77,192
2,62,77,0
2,58,77,160
2,62,77,160
2,67,77,0
2,62,77,0
2,58,77,144
2,62,77,160
2,67,77,192
2,62,77,176
2,58,77,152
2,63,77,168
2,67,77,192
2,63,77,176
2,58,77,128
2,63,77,184
2,67,77,0
2,63,77,192
2,58,77,152
2,63,77,144
2,67,77,192
2,63,77,8
2,58,77,128
2,63,77,160
2,67,77,192
2,63,77,176
2,58,77,144
2,65,77,160
2,70,77,192
2,65,77,0
2,58,77,112
2,65,77,144
2,70,77,0
2,65,77,0
2,58,77,0
2,65,77,176
2,68,77,192
2,65,77,16
2,58,77,112
2,65,77,160
2,68,77,160
2,65,77,0
2,63,77,192
2,70,77,16
2,75,77,0
2,70,77,0
2,63,77,192
2,70,77,8
2,75,77,8
2,70,77,0
2,63,77,192
2,70,77,16
2,75,77,0
2,70,77,16
2,63,77,192
2,70,77,8
2,75,77,192
2,70,77,16
2,60,77,16
2,72,77,8
2,75,77,192
2,72,77,176
2,60,77,176
2,72,77,16
2,75,77,192
2,72,77,8
2,60,77,0
2,72,77,16
2,75,77,192
2,72,77,0
2,60,77,192
2,72,77,0
2,75,77,192
2,72,77,0
2,56,77,0
2,72,77,16
2,75,77,192
2,72,77,0
2,56,77,0
2,72,77,192
2,75,77,0
2,72,77,0
2,56,77,128
2,72,77,176
2,75,77,192
2,72,77,0
2,56,77,112
2,72,77,144
2,75,77,192
2,72,77,0
2,63,77,144
2,70,77,168
2,75,77,0
2,70,77,16
2,63,77,144
2,70,77,176
2,75,77,8
2,70,77,16
2,63,77,64
2,70,77,128
2,75,77,0
2,70,77,16
2,63,77,112
2,70,77,144
2,75,77,0
2,70,77,16
2,63,77,128
2,69,77,184
2,75,77,192
2,69,77,176
2,63,77,128
2,69,77,144
2,75,77,8
2,69,77,0
2,63,77,112
2,69,77,136
2,75,77,0
2,69,77,16
2,63,77,128
2,69,77,144
2,75,77,192
2,69,77,0
2,63,77,128
2,67,77,160
2,72,77,0
2,67,77,0
2,63,77,136
2,67,77,144
2,72,77,0
2,67,77,0
2,63,77,96
2,67,77,144
2,72,77,192
2,67,77,0
2,63,77,160
2,67,77,144
2,72,77,0
2,67,77,0
2,63,77,160
2,68,77,160
