track,note,velocity,time
1,81,118,13824
1,79,118,64
1,79,118,64
1,79,118,64
1,76,118,64
1,72,118,64
1,74,118,256
1,72,118,64
1,74,118,64
1,72,118,64
1,76,118,64
1,69,118,3328
1,69,118,64
1,69,118,64
1,72,118,64
1,74,118,128
1,74,118,64
1,76,118,64
1,79,118,64
1,79,118,64
1,81,118,64
1,79,118,3136
1,81,118,64
1,79,118,64
1,79,118,64
1,79,118,64
1,76,118,64
1,72,118,192
1,72,118,128
1,74,118,128
1,72,118,64
1,74,118,64
1,72,118,64
1,76,118,64
1,81,118,3392
1,84,118,64
1,81,118,64
1,84,118,64
1,84,118,64
1,81,118,64
1,79,118,128
1,76,118,64
1,81,118,64
1,79,118,128
1,76,118,128
1,74,118,96
1,72,118,64
1,74,118,3168
1,72,118,128
1,74,118,64
1,72,118,768
1,74,118,64
1,76,118,128
1,74,118,128
1,74,118,64
1,72,118,64
1,74,118,2496
1,72,118,128
1,74,118,64
1,72,118,768
1,74,118,64
1,76,118,128
1,74,118,128
1,74,118,64
1,72,118,64
1,77,118,2496
1,72,118,2048
1,72,118,64
1,72,118,64
1,76,118,128
1,74,118,192
1,74,118,128
1,72,118,960
1,72,118,88
1,72,118,88
1,76,118,88
1,74,118,192
1,74,118,128
1,72,118,384
1,74,118,64
1,72,118,64
1,76,118,64
1,75,118,64
1,74,118,64
1,72,118,64
1,76,118,64
1,69,118,128
1,72,118,64
1,81,118,11200
1,79,118,64
1,79,118,64
1,79,118,64
1,76,118,64
1,72,118,64
1,74,118,256
1,72,118,64
1,74,118,64
1,72,118,64
1,76,118,64
1,69,118,3328
1,69,118,64
1,69,118,64
1,72,118,64
1,74,118,128
1,74,118,64
1,76,118,64
1,79,118,64
1,79,118,64
1,81,118,64
1,79,118,3136
1,81,118,64
1,79,118,64
1,79,118,64
1,79,118,64
1,76,118,64
1,72,118,192
1,72,118,128
1,74,118,128
1,72,118,64
1,74,118,64
1,72,118,64
1,76,118,64
1,81,118,3392
1,84,118,64
1,81,118,64
1,84,118,64
1,84,118,64
1,81,118,64
1,79,118,128
1,76,118,64
1,81,118,64
1,79,118,128
1,76,118,128
1,74,118,96
1,72,118,64
1,74,118,3168
1,72,118,128
1,74,118,64
1,72,118,768
1,74,118,64
1,76,118,128
1,74,118,128
1,74,118,64
1,72,118,64
1,74,118,2496
1,72,118,128
1,74,118,64
1,72,118,768
1,74,118,64
1,76,118,128
1,74,118,128
1,74,118,64
1,72,118,64
1,77,118,2496
1,72,118,2048
1,72,118,64
1,72,118,64
1,76,118,128
1,74,118,192
1,74,118,128
1,72,118,960
1,72,118,88
1,72,118,88
1,76,118,88
1,74,118,192
1,74,118,128
1,72,118,384
1,74,118,64
1,72,118,64
1,76,118,64
1,75,118,64
1,74,118,64
1,72,118,64
1,76,118,64
1,75,118,64
1,74,118,64
1,72,118,64
1,76,118,64
1,69,118,128
1,72,118,64
1,69,118,1024
1,86,118,64
1,81,118,88
1,81,118,88
1,86,118,2008
1,84,118,0
1,74,118,6400
1,76,118,256
1,74,118,128
1,74,118,64
1,72,118,64
1,74,118,1792
1,76,118,256
1,74,118,128
1,74,118,64
1,72,118,64
1,74,103,1792
1,76,81,256
1,74,77,128
1,74,76,64
1,72,71,64
1,74,44,1792
1,76,22,256
1,74,18,128
1,74,17,64
1,72,12,64
2,71,127,0
2,67,127,0
2,55,127,320
2,60,127,0
2,57,127,384
2,55,127,64
2,60,127,0
2,59,127,64
2,62,127,64
2,57,127,0
2,60,127,64
2,55,127,0
2,71,127,192
2,67,127,0
2,55,127,320
2,60,127,0
2,57,127,384
2,55,127,64
2,60,127,0
2,57,127,64
2,62,127,64
2,57,127,0
2,71,127,256
2,67,127,0
2,76,127,0
2,55,127,320
2,60,127,0
2,57,127,384
2,55,127,64
2,60,127,0
2,57,127,64
2,62,127,64
2,57,127,0
2,60,127,64
2,55,127,0
2,71,127,192
2,67,127,0
2,76,127,0
2,55,127,320
2,60,127,0
2,57,127,384
2,55,127,64
2,60,127,0
2,57,127,64
2,57,127,64
2,62,127,0
2,57,127,508
2,64,127,0
2,69,127,0
2,67,127,64
2,67,127,64
2,67,127,64
2,57,127,64
2,64,127,0
2,60,127,64
2,57,127,256
2,62,127,0
2,60,127,64
2,62,127,64
2,60,127,64
2,57,127,64
2,64,127,0
2,52,127,256
2,57,127,128
2,55,127,128
2,50,127,128
2,57,127,320
2,52,127,0
2,57,127,64
2,52,127,0
2,55,127,64
2,50,127,0
2,52,127,64
2,57,127,0
2,57,127,64
2,52,127,0
2,57,127,64
2,52,127,0
2,55,127,64
2,50,127,0
2,52,127,64
2,57,127,0
2,57,127,64
2,57,127,64
2,60,127,64
2,62,127,128
2,62,127,64
2,64,127,64
2,57,127,0
2,67,127,64
2,69,127,64
2,64,127,0
2,57,127,0
2,53,127,64
2,60,127,128
2,59,127,128
2,55,127,128
2,57,127,128
2,52,127,0
2,57,127,64
2,52,127,0
2,52,127,64
2,57,127,0
2,55,127,64
2,50,127,0
2,57,127,64
2,52,127,0
2,57,127,64
2,52,127,0
2,52,127,64
2,57,127,0
2,67,127,64
2,57,127,64
2,64,127,0
2,69,127,0
2,67,127,64
2,67,127,64
2,67,127,64
2,57,127,64
2,64,127,0
2,62,127,64
2,60,127,64
2,64,127,128
2,57,127,0
2,60,127,64
2,62,127,64
2,60,127,64
2,64,127,64
2,57,127,0
2,52,127,256
2,57,127,128
2,55,127,128
2,50,127,128
2,57,127,320
2,52,127,0
2,57,127,64
2,52,127,0
2,55,127,64
2,50,127,0
2,52,127,64
2,57,127,0
2,57,127,64
2,52,127,0
2,57,127,64
2,52,127,0
2,72,127,64
2,64,127,64
2,72,127,0
2,69,127,0
2,69,127,64
2,72,127,64
2,72,127,64
2,57,127,64
2,64,127,0
2,69,127,0
2,67,127,128
2,64,127,64
2,69,127,64
2,64,127,0
2,57,127,0
2,67,127,128
2,64,127,128
2,57,127,0
2,62,127,32
2,60,127,32
2,65,127,192
2,72,127,128
2,71,127,128
2,67,127,128
2,57,127,128
2,64,127,0
2,69,127,0
2,57,127,64
2,64,127,0
2,69,127,0
2,57,127,64
2,64,127,0
2,69,127,0
2,57,127,64
2,64,127,0
2,69,127,0
2,57,127,64
2,64,127,0
2,69,127,0
2,65,127,640
2,69,127,0
2,74,127,0
2,72,127,128
2,65,127,64
2,69,127,0
2,74,127,0
2,62,127,128
2,57,127,192
2,62,127,64
2,65,127,64
2,72,127,64
2,65,127,64
2,69,127,0
2,74,127,0
2,65,127,128
2,69,127,0
2,74,127,0
2,74,127,128
2,69,127,64
2,64,127,0
2,74,127,0
2,67,127,64
2,72,127,64
2,64,127,192
2,60,127,192
2,57,127,64
2,60,127,64
2,60,127,256
2,57,127,64
2,60,127,64
2,64,127,64
2,60,127,188
2,57,127,64
2,64,127,64
2,65,127,64
2,69,127,0
2,74,127,0
2,72,127,128
2,65,127,64
2,69,127,0
2,74,127,0
2,62,127,128
2,57,127,192
2,62,127,64
2,65,127,64
2,72,127,64
2,65,127,64
2,69,127,0
2,74,127,0
2,65,127,128
2,69,127,0
2,74,127,0
2,74,127,128
2,69,127,64
2,64,127,0
2,74,127,0
2,67,127,64
2,72,127,64
2,64,127,192
2,60,127,64
2,57,127,64
2,60,127,64
2,64,127,64
2,57,127,64
2,60,127,64
2,64,127,64
2,60,127,64
2,57,127,64
2,60,127,64
2,64,127,64
2,72,127,64
2,69,127,0
2,77,127,0
2,65,127,512
2,60,127,64
2,57,127,64
2,60,127,64
2,65,127,64
2,60,127,64
2,57,127,64
2,65,127,64
2,72,127,64
2,67,127,0
2,64,127,0
2,72,127,64
2,72,127,64
2,67,127,0
2,64,127,0
2,65,127,128
2,69,127,0
2,76,127,0
2,74,127,192
2,65,127,0
2,69,127,0
2,65,127,128
2,74,127,0
2,69,127,0
2,65,127,192
2,62,127,64
2,57,127,64
2,65,127,64
2,64,127,64
2,72,127,0
2,67,127,0
2,72,127,88
2,64,127,0
2,67,127,0
2,64,127,88
2,72,127,0
2,67,127,0
2,76,127,88
2,65,127,0
2,69,127,0
2,65,127,192
2,69,127,0
2,74,127,0
2,65,127,128
2,74,127,0
2,69,127,0
2,72,127,384
2,74,127,64
2,72,127,64
2,76,127,64
2,75,127,64
2,74,127,64
2,72,127,64
2,76,127,64
2,71,127,0
2,67,127,0
2,69,127,128
2,64,127,64
2,67,127,0
2,72,127,0
2,57,127,640
2,60,127,64
2,55,127,0
2,57,127,64
2,62,127,64
2,57,127,0
2,60,127,64
2,55,127,0
2,76,127,192
2,71,127,0
2,67,127,0
2,55,127,320
2,60,127,0
2,57,127,640
2,60,127,64
2,55,127,0
2,57,127,64
2,62,127,64
2,57,127,0
2,67,127,256
2,71,127,0
2,76,127,0
2,55,127,308
2,60,127,0
2,57,127,652
2,60,127,64
2,55,127,0
2,57,127,64
2,62,127,64
2,57,127,0
2,60,127,64
2,55,127,0
2,76,127,192
2,71,127,0
2,67,127,0
2,55,127,320
2,60,127,0
2,64,127,832
2,60,127,0
2,55,127,0
2,66,127,128
2,62,127,0
2,57,127,0
2,57,127,256
2,64,127,0
2,69,127,0
2,67,127,64
2,67,127,64
2,67,127,64
2,57,127,64
2,64,127,0
2,60,127,64
2,57,127,256
2,62,127,0
2,60,127,64
2,62,127,64
2,60,127,64
2,57,127,64
2,64,127,0
2,52,127,256
2,57,127,128
2,55,127,128
2,50,127,128
2,57,127,320
2,52,127,0
2,57,127,64
2,52,127,0
2,55,127,64
2,50,127,0
2,52,127,64
2,57,127,0
2,57,127,64
2,52,127,0
2,57,127,64
2,52,127,0
2,55,127,64
2,50,127,0
2,52,127,64
2,57,127,0
2,57,127,64
2,57,127,64
2,60,127,64
2,62,127,128
2,62,127,64
2,64,127,64
2,57,127,0
2,67,127,64
2,69,127,64
2,64,127,0
2,57,127,0
2,53,127,64
2,60,127,128
2,59,127,128
2,55,127,128
2,57,127,128
2,52,127,0
2,57,127,64
2,52,127,0
2,52,127,64
2,57,127,0
2,55,127,64
2,50,127,0
2,57,127,64
2,52,127,0
2,57,127,64
2,52,127,0
2,52,127,64
2,57,127,0
2,67,127,64
2,57,127,64
2,64,127,0
2,69,127,0
2,67,127,64
2,67,127,64
2,67,127,64
2,57,127,64
2,64,127,0
2,62,127,64
2,60,127,64
2,64,127,128
2,57,127,0
2,60,127,64
2,62,127,64
2,60,127,64
2,64,127,64
2,57,127,0
2,52,127,256
2,57,127,128
2,55,127,128
2,50,127,128
2,57,127,320
2,52,127,0
2,57,127,64
2,52,127,0
2,55,127,64
2,50,127,0
2,52,127,64
2,57,127,0
2,57,127,64
2,52,127,0
2,57,127,64
2,52,127,0
2,72,127,64
2,64,127,64
2,72,127,0
2,69,127,0
2,69,127,64
2,72,127,64
2,72,127,64
2,57,127,64
2,64,127,0
2,69,127,0
2,67,127,128
2,64,127,64
2,69,127,64
2,64,127,0
2,57,127,0
2,67,127,128
2,64,127,128
2,57,127,0
2,62,127,32
2,60,127,32
2,65,127,192
2,72,127,128
2,71,127,128
2,67,127,128
2,57,127,128
2,64,127,0
2,69,127,0
2,57,127,64
2,64,127,0
2,69,127,0
2,57,127,64
2,64,127,0
2,69,127,0
2,57,127,64
2,64,127,0
2,69,127,0
2,57,127,64
2,64,127,0
2,69,127,0
2,65,127,640
2,69,127,0
2,74,127,0
2,72,127,128
2,65,127,64
2,69,127,0
2,74,127,0
2,62,127,128
2,57,127,192
2,62,127,64
2,65,127,64
2,72,127,64
2,65,127,64
2,69,127,0
2,74,127,0
2,65,127,128
2,69,127,0
2,74,127,0
2,74,127,128
2,69,127,64
2,64,127,0
2,74,127,0
2,67,127,64
2,72,127,64
2,64,127,192
2,60,127,192
2,57,127,64
2,60,127,64
2,60,127,256
2,57,127,64
2,60,127,64
2,64,127,64
2,60,127,188
2,57,127,64
2,64,127,64
2,65,127,64
2,69,127,0
2,74,127,0
2,72,127,128
2,65,127,64
2,69,127,0
2,74,127,0
2,62,127,128
2,57,127,192
2,62,127,64
2,65,127,64
2,72,127,64
2,65,127,64
2,69,127,0
2,74,127,0
2,65,127,128
2,69,127,0
2,74,127,0
2,74,127,128
2,69,127,64
2,64,127,0
2,74,127,0
2,67,127,64
2,72,127,64
2,64,127,192
2,60,127,64
2,57,127,64
2,60,127,64
2,64,127,64
2,57,127,64
2,60,127,64
2,64,127,64
2,60,127,64
2,57,127,64
2,60,127,64
2,64,127,64
2,72,127,64
2,69,127,0
2,77,127,0
2,65,127,512
2,60,127,64
2,57,127,64
2,60,127,64
2,65,127,64
2,60,127,64
2,57,127,64
2,65,127,64
2,72,127,64
2,67,127,0
2,64,127,0
2,72,127,64
2,72,127,64
2,67,127,0
2,64,127,0
2,65,127,128
2,69,127,0
2,76,127,0
2,74,127,192
2,65,127,0
2,69,127,0
2,65,127,128
2,74,127,0
2,69,127,0
2,65,127,192
2,62,127,64
2,57,127,64
2,65,127,64
2,64,127,64
2,72,127,0
2,67,127,0
2,72,127,88
2,64,127,0
2,67,127,0
2,64,127,88
2,72,127,0
2,67,127,0
2,76,127,88
2,65,127,0
2,69,127,0
2,65,127,192
2,69,127,0
2,74,127,0
2,65,127,128
2,74,127,0
2,69,127,0
2,72,127,384
2,74,127,64
2,72,127,64
2,76,127,64
2,75,127,64
2,74,127,64
2,72,127,64
2,67,127,64
2,76,127,0
2,75,127,64
2,66,127,0
2,74,127,64
2,65,127,0
2,72,127,64
2,64,127,0
2,76,127,64
2,71,127,0
2,67,127,0
2,69,127,128
2,64,127,64
2,67,127,0
2,72,127,0
2,57,127,640
2,60,127,64
2,55,127,0
2,57,127,64
2,62,127,64
2,57,127,0
2,60,127,64
2,55,127,0
2,76,127,192
2,71,127,0
2,67,127,0
2,55,127,320
2,60,127,0
2,57,127,640
2,60,127,64
2,55,127,0
2,57,127,64
2,62,127,64
2,57,127,0
2,76,127,256
2,71,127,0
2,67,127,0
2,55,127,320
2,60,127,0
2,57,127,640
2,60,127,64
2,55,127,0
2,57,127,64
2,62,127,64
2,57,127,0
2,60,127,64
2,55,127,0
2,76,127,192
2,71,127,0
2,67,127,0
2,55,127,320
2,60,127,0
2,57,127,640
2,60,127,64
2,57,127,64
2,64,127,64
2,63,127,64
2,62,127,64
2,60,127,64
2,74,127,64
2,69,127,0
2,65,127,0
2,65,127,256
2,69,127,0
2,76,127,0
2,74,127,128
2,74,127,64
2,69,127,0
2,64,127,0
2,72,127,64
2,64,127,192
2,60,127,192
2,57,127,64
2,60,127,64
2,60,127,256
2,57,127,64
2,60,127,64
2,64,127,64
2,60,127,188
2,57,127,64
2,64,127,64
2,74,127,64
2,69,127,0
2,65,127,0
2,65,127,256
2,69,127,0
2,76,127,0
2,74,127,128
2,74,127,64
2,69,127,0
2,64,127,0
2,72,127,64
2,64,127,192
2,60,127,64
2,57,127,64
2,60,127,64
2,57,127,64
2,59,127,128
2,60,127,128
2,64,127,128
2,74,127,128
2,69,127,0
2,65,127,0
2,65,107,256
2,69,107,0
2,76,107,0
2,74,102,128
2,74,101,64
2,69,101,0
2,64,101,0
2,72,95,64
2,64,88,192
2,60,85,192
2,57,84,64
2,60,81,64
2,60,76,256
2,57,73,64
2,60,71,64
2,64,68,64
2,60,67,188
2,57,63,64
2,64,62,64
2,74,59,64
2,69,59,0
2,65,59,0
2,65,29,256
2,69,29,0
2,76,29,0
2,74,24,128
2,74,23,64
2,69,23,0
2,64,23,0
2,72,17,64
2,64,10,192
2,60,7,64
2,57,6,64
2,60,3,64
3,45,127,0
3,33,127,0
3,45,127,128
3,33,127,0
3,45,127,128
3,33,127,0
3,45,127,128
3,33,127,0
3,45,127,128
3,33,127,0
3,45,127,128
3,33,127,0
3,45,127,128
3,33,127,0
3,45,127,128
3,33,127,0
3,45,127,128
3,33,127,0
3,45,127,128
3,33,127,0
3,45,127,128
3,33,127,0
3,45,127,128
3,33,127,0
3,45,127,128
3,33,127,0
3,45,127,128
3,33,127,0
3,40,127,128
3,38,127,64
3,36,127,64
