track,note,velocity,time
0,38,44,225
0,65,73,4
0,62,73,1
0,38,49,46
0,50,52,49
0,62,0,46
0,53,60,3
0,62,96,0
0,52,64,95
0,60,64,0
0,62,0,5
0,53,0,36
0,65,0,2
0,52,0,44
0,60,0,0
0,50,0,8
0,50,51,3
0,59,60,0
0,38,0,1
0,43,39,2
0,43,50,4
0,50,0,39
0,55,40,9
0,59,0,46
0,59,47,2
0,62,52,48
0,62,0,46
0,62,78,3
0,67,98,0
0,59,0,36
0,59,43,9
0,65,70,48
0,67,0,0
0,55,0,42
0,59,0,0
0,43,31,1
0,55,43,2
0,55,0,34
0,62,0,0
0,43,0,4
0,65,0,4
0,36,45,1
0,36,47,2
0,64,72,2
0,43,31,48
0,48,43,48
0,64,0,41
0,52,65,5
0,55,76,0
0,60,89,0
0,55,0,45
0,55,38,3
0,48,0,42
0,50,53,6
0,59,66,0
0,60,0,11
0,52,0,23
0,55,0,11
0,55,35,3
0,50,0,37
0,59,0,0
0,48,34,11
0,57,42,0
0,43,0,9
0,36,0,1
0,55,0,2
0,41,38,1
0,41,56,2
0,60,68,0
0,65,92,0
0,48,0,44
0,57,0,0
0,57,33,4
0,64,67,45
0,65,0,13
0,57,0,35
0,57,44,3
0,64,0,44
0,62,73,1
0,53,45,3
0,57,0,45
0,57,36,3
0,62,0,44
0,60,0,1
0,60,51,3
0,41,0,45
0,57,0,0
0,41,46,3
0,57,36,0
0,41,0,27
0,53,0,0
0,57,0,0
0,60,0,0
0,34,39,1
0,46,39,2
0,53,69,0
0,62,85,0
0,46,0,47
0,46,49,3
0,53,0,43
0,53,59,3
0,53,0,48
0,53,71,3
0,58,99,0
0,62,0,11
0,53,0,32
0,53,50,3
0,57,81,48
0,58,0,29
0,53,0,16
0,53,37,3
0,53,0,46
0,52,49,3
0,56,71,1
0,57,0,25
0,46,0,5
0,40,40,1
0,40,53,5
0,52,0,45
0,52,53,3
0,56,0,45
0,56,55,3
0,59,71,51
0,50,78,44
0,62,95,0
0,59,0,43
0,59,43,3
0,40,0,10
0,52,0,11
0,40,32,1
0,52,52,2
0,56,0,10
0,59,0,9
0,50,0,1
0,62,0,0
0,33,41,1
0,45,60,2
0,62,92,0
0,52,0,4
0,52,47,44
0,62,0,47
0,57,62,1
0,61,74,0
0,61,0,42
0,64,101,6
0,57,0,12
0,52,0,81
0,52,47,3
0,57,54,48
0,52,0,25
0,28,40,3
0,59,72,2
0,57,0,6
0,64,0,20
0,45,0,1
0,45,44,3
0,52,43,0
0,59,0,43
0,52,0,1
0,28,38,2
0,56,98,1
0,59,105,0
0,52,77,1
0,47,53,48
0,28,43,3
0,40,56,2
0,45,0,30
0,56,0,7
0,59,0,0
0,52,0,1
0,33,43,2
0,52,53,1
0,57,58,0
0,61,65,0
0,47,0,3
0,45,66,4
0,52,0,89
0,52,33,3
0,61,0,0
0,40,0,1
0,57,0,0
0,61,46,2
0,64,53,0
0,57,48,1
0,52,0,10
0,57,0,1
0,61,0,0
0,38,65,1
0,64,0,1
0,77,97,1
0,38,65,1
0,45,0,0
0,65,77,1
0,62,78,1
0,77,83,22
0,45,63,2
0,77,81,26
0,50,65,2
0,62,0,20
0,77,97,0
0,53,67,3
0,44,44,45
0,62,65,3
0,50,0,6
0,65,0,0
0,50,78,3
0,65,78,0
0,53,0,41
0,69,86,5
0,50,0,2
0,69,86,7
0,50,65,4
0,57,72,0
0,45,0,8
0,38,0,3
0,43,58,2
0,57,0,2
0,43,64,2
0,55,54,48
0,50,0,39
0,65,0,0
0,71,88,6
0,59,61,2
0,62,0,45
0,62,69,4
0,67,86,0
0,59,0,25
0,44,44,3
0,59,57,4
0,67,0,44
0,55,0,49
0,55,57,3
0,62,0,33
0,43,0,8
0,43,57,3
0,43,0,11
0,59,0,2
0,55,0,2
0,36,65,1
0,36,68,2
0,76,93,0
0,60,84,2
0,64,84,0
0,76,77,21
0,48,52,2
0,76,83,26
0,55,57,2
0,60,0,15
0,64,0,0
0,55,0,1
0,52,66,2
0,55,77,0
0,60,90,0
0,76,86,0
0,44,44,48
0,48,0,41
0,48,67,3
0,55,0,11
0,55,49,3
0,72,78,0
0,48,0,37
0,60,0,8
0,48,48,3
0,60,56,0
0,36,0,10
0,60,0,1
0,55,0,1
0,41,58,1
0,52,0,0
0,41,70,2
0,60,75,0
0,65,87,0
0,69,79,0
0,77,88,0
0,48,0,44
0,57,47,4
0,64,81,6
0,67,68,0
0,76,86,3
0,65,0,10
0,69,0,0
0,57,0,35
0,57,58,3
0,64,0,44
0,67,0,0
0,62,87,1
0,65,74,0
0,44,44,3
0,53,59,0
0,74,88,0
0,57,0,41
0,57,50,3
0,62,0,44
0,65,0,0
0,60,0,1
0,60,65,3
0,64,52,0
0,72,84,0
0,41,0,45
0,41,60,3
0,41,0,15
0,53,0,0
0,57,0,0
0,60,0,0
0,64,0,0
0,34,59,1
0,46,58,2
0,53,83,0
0,62,88,0
0,74,93,0
0,74,88,11
0,53,0,12
0,53,73,3
0,74,84,0
0,53,0,15
0,74,90,0
0,53,63,3
0,58,94,0
0,62,0,11
0,53,0,32
0,44,44,2
0,53,57,1
0,58,0,26
0,58,64,1
0,62,79,0
0,53,0,44
0,65,86,3
0,53,47,1
0,42,54,49
0,42,0,17
0,41,47,1
0,58,0,2
0,62,0,0
0,46,0,15
0,40,60,1
0,53,0,1
0,64,92,1
0,41,0,1
0,40,67,2
0,52,67,48
0,56,69,48
0,62,82,47
0,59,74,4
0,59,0,27
0,44,44,3
0,59,57,0
0,74,90,0
0,62,0,43
0,62,70,3
0,59,0,43
0,59,57,3
0,40,0,34
0,59,0,10
0,52,0,1
0,52,66,3
0,56,0,10
0,62,0,14
0,33,61,1
0,42,28,2
0,45,74,0
0,62,122,0
0,64,54,0
0,71,72,0
0,74,93,0
0,52,0,4
0,52,61,44
0,62,0,3
0,42,13,3
0,57,76,0
0,61,81,0
0,73,90,0
0,61,0,11
0,42,41,3
0,61,79,0
0,64,105,0
0,69,69,0
0,73,79,0
0,76,90,0
0,44,46,33
0,42,14,92
0,45,60,0
0,48,48,0
0,45,0,4
0,48,0,0
0,61,0,34
0,64,0,0
0,57,0,1
0,45,0,6
0,52,0,0
0,56,104,2
0,59,111,0
0,35,88,1
0,46,35,0
0,52,83,0
0,35,0,4
0,47,67,44
0,40,70,48
0,56,0,43
0,59,0,0
0,52,0,1
0,52,67,3
0,57,72,0
0,61,79,0
0,35,72,1
0,41,30,0
0,44,32,0
0,45,30,0
0,47,0,2
0,35,0,2
0,41,0,0
0,45,0,0
0,45,80,2
0,52,0,89
0,38,44,1
0,52,52,2
0,61,0,0
0,40,0,1
0,57,0,0
0,38,0,1
0,61,65,1
0,64,72,0
0,57,67,1
0,38,35,6
0,38,0,4
0,38,26,8
0,38,0,4
0,38,17,8
0,38,0,4
0,38,16,8
0,38,0,4
0,38,17,8
0,38,0,4
0,38,20,8
0,38,0,0
0,38,20,8
0,38,0,4
0,50,61,2
0,62,61,0
0,65,61,0
0,52,0,2
0,57,0,1
0,61,0,0
0,38,80,1
0,64,0,1
0,35,96,1
0,42,50,0
0,77,97,0
0,38,65,1
0,45,0,0
0,65,77,1
0,62,78,1
0,35,0,1
0,42,19,22
0,77,83,0
0,45,63,2
0,42,38,26
0,77,81,0
0,50,65,2
0,38,59,15
0,42,17,2
0,62,0,0
0,77,97,0
0,53,67,3
0,60,61,3
0,45,41,4
0,37,78,2
0,42,58,0
0,62,65,3
0,37,0,1
0,50,0,27
0,65,0,0
0,42,20,1
0,69,86,0
0,50,78,2
0,65,78,0
0,53,0,39
0,42,42,5
0,50,0,12
0,38,68,5
0,42,17,2
0,69,86,0
0,50,65,4
0,57,72,0
0,38,0,28
0,45,0,2
0,50,61,1
0,60,61,0
0,62,60,0
0,38,0,2
0,43,75,2
0,35,96,2
0,42,50,0
0,57,0,0
0,43,64,2
0,35,0,2
0,42,19,16
0,71,88,0
0,55,54,2
0,50,0,37
0,65,0,0
0,42,38,7
0,59,61,2
0,62,0,27
0,42,17,1
0,62,69,3
0,67,86,0
0,59,61,3
0,59,0,3
0,37,78,3
0,42,58,0
0,37,0,4
0,59,57,0
0,43,60,17
0,42,20,2
0,62,0,1
0,62,54,3
0,43,0,39
0,67,0,2
0,38,73,1
0,46,36,2
0,67,83,0
0,55,0,1
0,55,57,3
0,43,0,41
0,67,0,0
0,43,57,3
0,65,73,0
0,38,0,22
0,43,0,2
0,62,0,0
0,48,62,1
0,55,62,0
0,60,62,0
0,64,62,0
0,59,0,1
0,55,0,2
0,65,0,0
0,36,80,1
0,35,96,2
0,36,68,0
0,42,50,0
0,76,93,0
0,60,84,2
0,64,84,0
0,35,0,2
0,42,19,21
0,76,77,0
0,48,52,2
0,42,38,26
0,76,83,0
0,55,57,2
0,60,0,13
0,64,0,0
0,36,59,1
0,55,0,0
0,42,17,2
0,52,66,0
0,55,77,0
0,60,90,0
0,76,77,0
0,43,72,15
0,37,78,2
0,42,58,0
0,76,86,0
0,37,0,4
0,48,0,41
0,42,20,3
0,48,67,0
0,55,0,11
0,42,42,3
0,55,49,0
0,72,78,0
0,48,0,7
0,60,0,8
0,36,68,1
0,35,42,2
0,42,17,0
0,48,48,0
0,60,56,0
0,77,88,0
0,35,0,4
0,36,0,28
0,53,62,3
0,60,62,0
0,65,61,0
0,36,0,1
0,60,0,1
0,55,0,1
0,41,74,1
0,52,0,0
0,35,96,2
0,41,70,0
0,42,50,0
0,60,75,0
0,65,87,0
0,69,79,0
0,35,0,4
0,48,0,25
0,42,19,4
0,57,47,0
0,76,86,0
0,67,61,3
0,64,81,3
0,67,68,0
0,42,38,3
0,65,0,6
0,69,0,0
0,57,0,26
0,42,17,3
0,57,58,0
0,72,79,0
0,65,61,3
0,69,60,0
0,64,0,2
0,67,0,0
0,60,82,1
0,65,74,0
0,36,74,1
0,37,78,2
0,42,58,0
0,53,59,0
0,37,0,4
0,57,0,4
0,42,20,3
0,57,50,0
0,72,61,3
0,65,0,2
0,60,0,1
0,60,0,1
0,46,36,2
0,60,65,0
0,64,52,0
0,41,0,41
0,41,60,3
0,46,62,3
0,58,62,0
0,74,60,0
0,41,0,3
0,53,0,0
0,57,0,0
0,60,0,0
0,64,0,0
0,34,80,1
0,35,96,2
0,42,50,0
0,46,58,0
0,53,83,0
0,62,88,0
0,74,93,0
0,35,0,4
0,42,19,11
0,74,88,0
0,53,0,12
0,42,38,3
0,53,73,0
0,74,84,0
0,34,59,13
0,42,17,2
0,53,0,0
0,74,90,0
0,53,63,3
0,58,94,0
0,62,0,10
0,41,72,15
0,53,0,0
0,37,78,2
0,42,58,0
0,53,57,1
0,37,0,3
0,58,0,26
0,42,20,18
0,58,64,1
0,62,79,0
0,77,61,3
0,53,0,3
0,42,42,3
0,65,86,0
0,53,47,1
0,34,68,17
0,35,42,2
0,42,17,0
0,42,54,2
0,35,0,2
0,42,0,17
0,41,47,1
0,58,0,2
0,62,0,0
0,34,0,4
0,65,0,7
0,52,62,3
0,56,62,0
0,64,60,0
0,76,60,0
0,46,0,3
0,40,76,1
0,53,0,1
0,35,96,1
0,42,50,0
0,59,69,0
0,64,92,0
0,64,69,0
0,69,69,0
0,41,0,1
0,40,67,2
0,35,0,1
0,42,19,44
0,47,56,3
0,42,38,9
0,52,56,3
0,42,17,44
0,59,0,3
0,59,63,2
0,64,0,37
0,69,0,0
0,59,0,2
0,35,68,1
0,37,78,2
0,42,58,0
0,59,57,0
0,74,90,0
0,62,66,2
0,68,58,0
0,37,0,2
0,42,20,44
0,71,61,3
0,59,0,3
0,42,42,3
0,59,57,0
0,40,0,30
0,59,0,10
0,47,0,1
0,52,0,0
0,35,42,3
0,42,17,0
0,52,66,0
0,35,0,4
0,52,61,3
0,52,0,0
0,57,61,0
0,64,61,0
0,73,61,0
0,33,77,4
0,62,0,0
0,68,0,1
0,35,96,1
0,45,74,0
0,46,33,0
0,62,122,0
0,64,54,0
0,71,72,0
0,74,93,0
0,35,0,4
0,62,0,3
0,52,61,3
0,71,85,0
0,37,42,6
0,42,38,0
0,57,76,0
0,61,81,0
0,73,83,0
0,37,0,4
0,61,0,11
0,40,77,1
0,35,96,2
0,46,32,0
0,61,79,0
0,64,105,0
0,69,69,0
0,73,79,0
0,76,90,0
0,35,0,4
0,45,60,92
0,48,42,0
0,52,66,0
0,45,0,4
0,48,0,0
0,57,0,17
0,33,77,1
0,44,37,2
0,57,66,0
0,52,0,41
0,45,66,3
0,45,36,0
0,45,0,4
0,57,0,41
0,44,45,3
0,45,60,0
0,57,66,0
0,45,0,4
0,61,0,10
0,64,0,0
0,56,53,4
0,64,53,0
0,71,53,0
0,45,0,3
0,45,0,0
0,52,0,0
0,57,0,0
0,28,77,1
0,56,104,1
0,59,111,0
0,35,88,1
0,52,83,0
0,57,51,0
0,35,0,4
0,44,33,44
0,47,67,0
0,40,70,44
0,56,0,11
0,64,0,0
0,71,0,0
0,57,53,3
0,64,53,0
0,73,53,0
0,56,0,1
0,59,0,0
0,52,0,1
0,33,71,2
0,52,84,1
0,57,83,0
0,61,90,0
0,35,72,1
0,41,48,0
0,44,53,0
0,47,0,2
0,35,0,2
0,41,0,0
0,45,91,2
0,42,41,42
0,48,36,0
0,48,0,4
0,33,0,28
0,57,0,7
0,64,0,0
0,73,0,0
0,61,53,3
0,69,53,0
0,76,53,0
0,37,68,4
0,52,0,1
0,46,31,1
0,48,73,0
0,52,63,2
0,61,0,0
0,40,0,1
0,57,0,0
0,48,0,1
0,61,76,1
0,64,83,0
0,57,78,1
0,35,79,42
0,45,42,0
0,35,0,4
0,45,0,0
0,37,0,28
0,61,0,7
0,69,0,0
0,76,0,0
0,50,74,3
0,66,74,0
0,81,74,0
0,52,0,2
0,57,0,1
0,61,0,0
0,38,80,1
0,64,0,1
0,35,108,1
0,49,54,0
0,54,47,0
0,81,101,0
0,38,76,1
0,45,0,0
0,66,88,1
0,69,88,0
0,61,89,1
0,35,0,1
0,42,23,13
0,54,18,0
0,81,96,0
0,45,74,2
0,42,42,25
0,54,39,0
0,81,97,0
0,50,76,2
0,38,73,19
0,46,35,2
0,54,18,0
0,61,0,0
0,63,42,0
0,81,96,0
0,54,78,3
0,38,0,10
0,33,80,32
0,40,82,2
0,42,62,0
0,54,65,0
0,62,84,0
0,61,76,3
0,40,0,1
0,50,0,23
0,66,0,0
0,69,0,0
0,42,24,1
0,54,18,0
0,81,97,0
0,50,89,2
0,66,89,0
0,54,0,19
0,42,46,5
0,54,39,0
0,64,65,0
0,81,96,0
0,50,0,16
0,33,73,5
0,35,79,2
0,42,21,0
0,54,18,0
0,64,59,0
0,81,97,0
0,35,0,4
0,50,76,0
0,57,83,0
0,33,0,10
0,45,0,2
0,54,74,1
0,69,72,0
0,85,75,0
0,38,0,2
0,38,80,2
0,35,108,2
0,42,54,0
0,54,47,0
0,57,0,0
0,81,99,0
0,73,105,1
0,38,75,1
0,69,95,0
0,35,0,2
0,42,23,44
0,54,18,0
0,69,0,36
0,50,0,1
0,66,0,0
0,73,0,2
0,42,42,3
0,54,39,0
0,71,87,0
0,80,101,0
0,68,89,1
0,57,72,1
0,38,73,24
0,61,0,1
0,35,60,1
0,46,35,0
0,54,18,0
0,63,44,0
0,61,80,3
0,35,0,1
0,38,0,10
0,68,0,10
0,71,0,1
0,83,74,3
0,57,0,3
0,42,66,1
0,40,82,2
0,42,62,0
0,54,65,0
0,62,80,0
0,80,104,0
0,68,100,3
0,71,102,0
0,40,0,1
0,57,68,0
0,42,24,44
0,54,18,0
0,50,65,2
0,68,0,20
0,42,0,4
0,71,0,9
0,81,73,3
0,45,66,1
0,35,66,2
0,46,40,0
0,54,39,0
0,64,65,0
0,78,106,0
0,66,81,1
0,69,88,0
0,35,0,3
0,54,68,0
0,61,0,33
0,38,0,8
0,38,68,3
0,54,18,0
0,64,59,0
0,69,0,14
0,45,0,10
0,66,0,0
0,38,0,2
0,57,74,1
