track,note,velocity,time
1,38,105,290
1,43,105,20
1,36,105,20
1,41,105,20
1,34,105,20
1,40,105,20
1,33,105,20
1,33,105,20
1,40,105,20
1,37,105,20
1,33,105,20
1,37,105,20
1,40,105,20
1,45,105,24
1,38,105,20
1,38,105,20
1,45,105,24
1,38,105,20
1,43,105,24
1,43,105,20
1,38,105,20
1,36,105,20
1,36,105,20
1,43,105,20
1,36,105,20
1,41,105,24
1,41,105,20
1,36,105,24
1,34,105,212
1,34,105,20
1,41,105,24
1,41,105,20
1,40,105,24
1,40,105,20
1,35,105,24
1,40,105,20
1,45,105,20
1,45,105,20
1,40,105,24
1,33,105,20
1,33,105,20
1,33,105,20
1,37,105,20
1,38,105,20
1,38,105,20
1,33,105,20
1,38,105,20
1,38,105,20
1,42,105,24
1,45,105,20
1,33,105,20
1,33,105,20
1,40,105,20
1,40,105,20
1,33,105,24
1,33,105,20
1,40,105,26
1,35,105,212
1,35,105,20
1,42,105,24
1,42,105,20
1,35,105,20
1,35,105,20
1,38,105,20
1,42,105,20
1,33,105,20
1,33,105,20
1,40,105,24
1,40,105,20
1,37,105,24
1,37,105,20
1,37,105,20
1,33,105,20
1,38,105,20
1,38,105,20
1,33,105,24
1,38,105,20
1,38,105,20
1,42,105,26
1,45,105,20
1,37,105,20
1,37,105,20
1,44,105,20
1,49,105,20
1,44,105,20
1,42,105,24
1,37,105,20
1,42,105,20
1,37,105,20
1,42,105,20
1,35,105,20
1,35,105,20
1,35,105,24
1,42,105,20
1,35,105,24
1,35,105,20
1,42,105,24
1,47,105,20
1,42,105,20
1,35,105,20
1,35,105,20
1,35,105,24
1,42,105,20
1,35,105,24
1,35,105,20
1,38,105,24
1,42,105,20
1,33,105,20
1,40,105,20
1,33,105,24
1,33,105,12
1,37,105,24
1,38,105,20
1,38,105,20
1,33,105,20
1,38,105,20
1,43,105,24
1,43,105,20
1,38,105,20
1,43,105,20
1,38,105,20
1,36,105,20
1,36,105,20
1,43,105,20
1,41,105,20
1,41,105,20
1,36,105,24
1,41,105,20
1,34,105,20
1,34,105,20
1,41,105,20
1,41,105,20
1,39,105,20
1,40,105,24
1,40,105,20
1,35,105,20
1,40,105,20
1,45,105,20
1,33,105,24
1,40,105,20
1,45,105,20
1,33,105,20
1,33,105,20
1,33,105,24
1,37,105,20
1,38,105,20
1,38,105,20
1,33,105,18
1,38,105,20
1,43,105,26
1,43,105,18
1,38,105,24
1,43,105,20
1,36,105,20
1,36,105,20
1,43,105,20
1,41,105,24
1,41,105,20
1,36,105,20
1,41,105,20
1,33,105,20
1,34,105,20
1,34,105,20
1,46,105,24
1,40,105,8
1,40,105,20
1,35,105,20
1,40,105,20
1,40,105,20
1,33,105,20
1,33,105,20
1,40,105,24
1,40,105,20
1,45,105,24
1,45,105,20
1,40,105,20
1,45,105,24
1,37,105,20
1,38,105,20
1,38,105,20
1,33,105,20
1,38,105,24
1,38,105,20
1,42,105,24
1,45,105,20
1,33,105,20
1,33,105,20
1,40,105,24
1,40,105,20
1,33,105,20
1,33,105,22
1,40,105,20
1,35,105,212
1,35,105,24
1,42,105,24
1,42,105,20
1,35,105,20
1,35,105,20
1,38,105,24
1,42,105,20
1,33,105,20
1,33,105,20
1,40,105,20
1,40,105,24
1,37,105,20
1,37,105,20
1,37,105,24
1,33,105,20
1,38,105,20
1,38,105,20
1,33,105,24
1,38,105,20
1,38,105,20
1,42,105,20
1,45,105,28
1,37,105,18
1,37,105,24
1,44,105,22
1,49,105,18
1,44,105,26
1,42,105,18
1,37,105,18
1,42,105,20
1,37,105,20
1,42,105,18
1,35,105,18
1,35,105,20
1,35,105,24
1,42,105,24
1,35,105,20
1,35,105,20
1,42,105,24
1,47,105,24
1,42,105,20
1,35,105,20
1,35,105,20
1,35,105,24
1,42,105,20
1,35,105,24
1,35,105,20
1,38,105,20
1,42,105,20
1,33,105,20
1,40,105,20
1,33,105,20
1,33,105,20
1,37,105,24
1,38,105,20
1,40,105,20
1,41,105,20
1,38,105,20
1,43,105,20
1,38,105,20
1,43,105,24
1,38,105,20
1,43,105,20
1,36,105,20
1,38,105,20
1,40,105,20
1,36,105,20
1,41,105,24
1,36,105,20
1,41,105,20
1,36,105,20
1,41,105,20
1,34,105,20
1,41,105,20
1,46,105,20
1,46,105,24
1,41,105,20
1,40,105,24
1,35,105,18
1,40,105,24
1,32,105,20
1,33,105,20
1,45,105,20
1,45,105,20
1,40,105,20
1,33,105,20
1,45,105,26
1,45,105,20
1,33,105,20
1,33,105,20
1,35,105,22
1,36,105,24
1,37,105,20
1,38,105,20
1,40,105,20
1,41,105,20
1,38,105,20
1,43,105,24
1,38,105,20
1,43,105,24
1,38,105,20
1,43,105,20
1,36,105,20
1,38,105,20
1,40,105,24
1,36,105,20
1,41,105,24
1,36,105,20
1,41,105,20
1,36,105,20
1,41,105,20
1,34,105,20
1,41,105,20
1,46,105,20
1,46,105,20
1,41,105,20
1,40,105,20
1,35,105,20
1,40,105,26
1,32,105,20
1,33,105,20
1,45,105,20
1,45,105,20
1,33,105,20
1,33,105,20
1,45,105,20
1,37,105,20
1,38,66,20
1,38,105,20
1,33,105,24
1,38,105,20
1,38,105,20
1,42,105,20
1,45,105,20
1,33,105,20
1,33,105,26
1,40,105,24
1,40,105,20
1,45,105,24
1,45,105,20
1,40,105,24
1,35,105,212
1,35,105,20
1,42,105,24
1,33,105,20
1,35,105,24
1,35,105,18
1,35,105,22
1,38,105,22
1,42,105,20
1,33,105,2
1,33,105,22
1,40,105,20
1,40,105,18
1,37,105,22
1,37,105,20
1,33,105,20
1,33,105,20
1,38,105,20
1,38,105,20
1,33,105,24
1,38,105,20
1,38,105,20
1,42,105,20
1,45,105,20
1,37,105,20
1,37,105,20
1,44,105,24
1,49,105,20
1,44,105,20
1,42,105,20
1,37,105,20
1,42,105,20
1,37,105,20
1,42,105,20
1,35,105,20
1,35,105,20
1,35,105,24
1,42,105,20
1,35,105,24
1,35,105,20
1,47,105,24
1,47,105,20
1,39,105,20
1,35,105,20
1,35,105,20
1,35,105,24
1,42,105,20
1,35,105,20
1,35,105,20
1,38,105,24
1,42,105,20
1,38,105,4
1,38,105,20
1,33,105,24
1,38,105,20
1,38,105,20
1,42,105,24
1,45,105,20
1,33,105,20
1,33,105,20
1,40,105,20
1,40,105,20
1,45,105,20
1,45,105,20
1,40,105,24
1,35,105,212
1,35,105,20
1,42,105,20
1,33,105,22
1,35,105,18
1,35,105,20
1,35,105,18
1,38,105,22
1,42,105,18
1,33,105,4
1,33,105,18
1,40,105,18
1,40,105,18
1,37,105,20
1,37,105,20
1,33,105,24
1,33,105,24
1,38,105,20
1,38,105,20
1,33,105,24
1,38,105,20
1,38,105,18
1,42,105,22
1,45,105,20
1,37,105,20
1,37,105,20
1,44,105,20
1,49,105,20
1,44,105,20
1,42,105,20
1,37,105,20
1,42,105,20
1,37,105,20
1,42,105,20
1,35,105,20
1,35,105,12
1,35,105,24
1,42,105,20
1,35,105,20
1,35,105,20
1,47,105,20
1,47,105,20
1,42,105,20
1,35,105,20
1,35,105,20
1,35,105,20
1,42,105,20
1,35,105,22
1,35,105,20
1,38,105,20
1,42,105,20
1,33,105,4
1,40,105,20
1,33,105,24
2,53,45,1208
2,38,33,4
2,65,55,0
2,45,33,16
2,57,55,16
2,50,33,4
2,62,55,16
2,53,45,0
2,60,55,16
2,52,45,0
2,38,33,8
2,59,55,16
2,50,45,0
2,31,33,16
2,55,55,16
2,43,33,16
2,59,55,0
2,62,55,16
2,50,33,12
2,67,55,0
2,59,45,0
2,55,33,16
2,65,55,16
2,64,55,16
2,36,33,4
2,43,33,92
2,60,55,16
2,52,45,0
2,59,55,16
2,50,45,0
2,57,55,16
2,48,45,0
2,57,45,16
2,29,33,4
2,65,55,0
2,64,55,12
2,48,33,96
2,57,45,16
2,53,33,4
2,62,55,0
2,60,55,16
2,62,55,16
2,34,33,4
2,41,33,92
2,53,55,16
2,50,33,16
2,58,55,0
2,48,33,16
2,57,55,0
2,47,33,16
2,56,55,0
2,40,33,20
2,52,55,16
2,56,55,16
2,59,55,16
2,62,55,16
2,47,33,4
2,59,55,16
2,56,55,16
2,52,55,16
2,59,45,16
2,45,33,4
2,62,55,0
2,33,33,4
2,52,55,16
2,61,55,16
2,33,33,16
2,45,33,0
2,64,55,0
2,61,45,0
2,33,33,16
2,45,33,0
2,59,55,0
2,56,45,0
2,52,45,0
2,52,45,16
2,45,33,4
2,61,55,0
2,57,45,0
2,33,33,4
2,37,33,16
2,49,45,0
2,64,55,0
2,65,55,16
2,74,55,16
2,65,45,0
2,65,55,16
2,53,40,32
2,57,43,0
2,62,55,0
2,59,45,0
2,62,55,16
2,59,45,0
2,59,55,12
2,55,45,0
2,60,45,16
2,64,55,4
2,55,55,16
2,60,55,16
2,64,55,16
2,60,45,0
2,64,55,16
2,57,45,16
2,65,55,4
2,64,55,12
2,55,45,0
2,53,45,16
2,62,55,4
2,60,55,16
2,52,45,0
2,58,45,12
2,62,55,4
2,53,55,16
2,58,55,16
2,62,55,16
2,58,45,0
2,62,55,16
2,59,55,16
2,62,55,16
2,59,55,20
2,59,45,16
2,62,55,6
2,61,55,12
2,57,45,0
2,64,55,16
2,61,45,0
2,64,55,20
2,61,45,0
2,59,55,16
2,56,45,0
2,52,45,0
2,52,45,16
2,61,55,4
2,57,45,0
2,64,55,16
2,53,55,112
2,57,55,16
2,62,55,16
2,65,55,20
2,62,55,20
2,55,55,16
2,55,55,14
2,55,55,16
2,67,55,20
2,65,55,16
2,64,55,16
2,55,55,16
2,60,55,16
2,64,55,16
2,65,55,18
2,57,45,0
2,64,55,16
2,55,45,0
2,60,55,12
2,57,45,0
2,53,45,0
2,57,55,14
2,53,45,0
2,50,45,0
2,62,55,16
2,58,45,0
2,53,55,16
2,58,55,16
2,58,55,16
2,53,45,0
2,62,55,16
2,58,45,0
2,58,55,20
2,57,45,16
2,62,55,4
2,59,45,0
2,56,45,16
2,62,55,4
2,59,45,0
2,62,55,16
2,57,45,0
2,59,55,12
2,61,55,16
2,64,55,16
2,57,45,0
2,61,45,0
2,64,55,12
2,57,45,0
2,61,45,0
2,64,55,16
2,61,45,0
2,57,45,0
2,76,55,16
2,57,45,0
2,61,45,0
2,64,55,0
2,64,45,16
2,76,55,4
2,71,55,16
2,57,45,0
2,64,45,0
2,68,45,0
2,64,45,16
2,73,55,4
2,69,45,0
2,76,55,16
2,73,45,0
2,66,45,16
2,69,45,0
2,73,55,10
2,73,55,16
2,66,45,0
2,69,45,0
2,69,45,22
2,66,45,0
2,73,55,0
2,68,45,12
2,71,55,0
2,64,45,0
2,71,55,16
2,68,45,0
2,64,45,0
2,62,45,16
2,69,55,0
2,66,45,0
2,64,45,16
2,68,55,0
2,61,45,10
2,56,45,16
2,61,45,0
2,64,55,0
2,61,45,16
2,56,45,6
2,64,55,0
2,62,45,16
2,57,45,0
2,66,55,10
2,62,45,16
2,57,45,4
2,66,55,0
2,64,55,14
2,57,45,0
2,61,45,0
2,64,55,16
2,61,45,0
2,57,45,0
2,62,45,16
2,66,55,0
2,57,45,0
2,57,55,20
2,57,45,22
2,62,45,0
2,66,55,0
2,57,55,16
2,52,55,16
2,49,45,4
2,56,55,92
2,57,55,10
2,64,55,16
2,52,55,14
2,56,55,92
2,57,55,16
2,64,55,16
2,66,45,14
2,69,45,0
2,73,55,10
2,66,45,16
2,69,45,0
2,73,55,0
2,69,45,16
2,66,45,0
2,73,55,0
2,64,45,20
2,68,45,0
2,71,55,0
2,64,45,12
2,68,45,0
2,71,55,0
2,62,45,12
2,69,55,0
2,66,45,0
2,64,45,16
2,68,55,0
2,59,45,10
2,68,55,20
2,64,45,0
2,59,45,0
2,61,55,20
2,64,45,16
2,68,55,0
2,59,45,0
2,64,45,16
2,61,45,4
2,68,55,0
2,59,45,0
2,68,55,16
2,59,45,0
2,61,45,0
2,64,45,0
2,58,45,14
2,64,45,0
2,61,45,0
2,66,55,0
2,64,45,20
2,58,45,0
2,66,55,0
2,61,45,0
2,69,55,12
2,62,45,0
2,59,45,0
2,66,45,0
2,69,55,12
2,62,45,0
2,66,45,0
2,59,45,0
2,69,55,16
2,62,45,0
2,66,45,0
2,59,45,0
2,69,55,16
2,66,45,0
2,62,45,0
2,59,45,0
2,66,55,500
2,61,45,0
2,57,45,0
2,54,45,0
2,64,55,108
2,66,45,20
2,69,55,0
2,59,45,0
2,62,45,0
2,69,55,12
2,66,45,0
2,59,45,0
2,62,45,0
2,66,45,12
2,59,45,0
2,62,45,0
2,69,55,4
2,66,45,16
2,69,55,0
2,59,45,0
2,62,45,0
2,66,45,20
2,69,55,0
2,62,45,0
2,59,45,0
2,69,55,20
2,66,45,0
2,59,45,0
2,62,45,0
2,61,45,492
2,54,45,0
2,57,45,0
2,64,55,0
2,61,55,108
2,57,45,0
2,54,45,0
2,50,45,0
2,57,55,20
2,50,45,0
2,54,45,0
2,47,45,0
2,54,55,12
2,47,45,0
2,54,55,112
2,57,55,16
2,64,55,20
2,62,55,16
2,57,45,20
2,61,55,0
2,53,55,208
2,57,55,16
2,62,55,16
2,65,55,16
2,57,55,16
2,62,55,16
2,65,55,16
2,59,45,16
2,62,55,0
2,59,55,12
2,55,45,0
2,64,55,16
2,55,55,16
2,60,55,16
2,64,55,16
2,60,55,20
2,55,45,0
2,52,45,0
2,55,55,16
2,52,45,0
2,48,45,0
2,60,55,16
2,64,55,16
2,57,45,16
2,65,55,4
2,64,55,16
2,55,45,0
2,62,55,16
2,53,45,4
2,60,55,16
2,52,45,0
2,62,55,16
2,58,45,0
2,53,55,16
2,58,55,16
2,58,55,20
2,62,45,0
2,53,55,16
2,58,55,16
2,62,55,16
2,57,45,16
2,64,55,4
2,52,55,16
2,64,55,16
2,62,55,16
2,59,55,16
2,52,55,16
2,59,45,16
2,62,55,6
2,61,55,16
2,57,45,0
2,64,55,16
2,61,45,0
2,56,55,16
2,47,45,0
2,52,45,0
2,49,45,16
2,57,55,4
2,52,45,0
2,57,55,16
2,53,45,0
2,57,55,12
2,53,45,0
2,57,55,16
2,53,45,0
2,57,55,16
2,53,45,0
2,57,55,12
2,53,45,0
2,53,45,16
2,57,55,0
2,53,45,16
2,57,55,6
2,55,45,16
2,59,55,0
2,57,45,16
2,60,55,0
2,55,45,20
2,59,55,0
2,57,55,16
2,53,45,0
2,52,45,16
2,55,55,0
2,52,55,16
2,48,45,0
2,48,55,16
2,65,55,20
2,57,45,0
2,55,45,16
2,64,55,0
2,53,45,16
2,60,55,4
2,57,45,0
2,53,45,16
2,57,55,0
2,48,45,0
2,58,45,16
2,62,55,4
2,53,45,4
2,58,45,16
2,53,45,0
2,62,55,0
2,62,55,16
2,57,45,4
2,62,55,16
2,62,55,20
2,56,45,0
2,62,55,16
2,57,45,4
2,57,45,16
2,61,55,4
2,64,55,16
2,57,45,0
2,61,45,0
2,57,55,16
2,57,55,16
2,52,55,20
2,69,55,16
2,64,45,16
2,68,45,0
2,71,55,0
2,73,55,20
2,69,45,0
2,64,45,0
2,69,45,20
2,76,55,0
2,73,45,0
2,66,45,16
2,69,45,0
2,73,55,8
2,73,55,16
2,66,45,0
2,69,45,0
2,73,55,20
2,66,45,0
2,69,45,0
2,68,45,12
2,71,55,0
2,64,45,0
2,71,55,20
2,68,45,0
2,64,45,0
2,62,45,16
2,69,55,0
2,66,45,0
2,68,55,16
2,61,45,4
2,64,45,0
2,56,45,16
2,61,45,0
2,64,55,0
2,64,55,22
2,56,45,0
2,61,45,0
2,57,45,16
2,62,45,2
2,66,55,4
2,57,45,16
2,66,55,0
2,62,45,0
2,64,55,16
2,57,45,0
2,61,45,0
2,64,55,16
2,61,45,0
2,57,45,0
2,62,45,16
2,66,55,0
2,57,45,0
2,57,55,20
2,57,45,20
2,62,45,0
2,66,55,0
2,57,55,16
2,52,55,16
2,56,55,96
2,57,55,16
2,64,55,16
2,52,55,20
2,56,55,92
