track,note,velocity,time
1,31,84,1048
1,34,99,96
1,36,103,8
1,34,107,768
1,36,99,760
1,34,99,0
1,32,100,8
1,34,107,768
1,36,103,8
1,34,99,768
1,53,122,0
1,58,122,0
1,62,125,0
1,31,96,0
1,34,98,8
1,36,101,24
1,55,114,192
1,60,109,0
1,63,105,0
1,53,122,16
1,58,102,0
1,62,111,0
1,55,109,120
1,60,102,0
1,63,101,0
1,31,109,24
1,53,125,0
1,58,105,0
1,62,107,0
1,36,104,88
1,34,96,24
1,53,109,40
1,58,117,0
1,63,117,0
1,53,107,24
1,58,105,0
1,62,109,0
1,53,105,120
1,58,111,0
1,63,107,0
1,31,104,16
1,53,114,0
1,58,111,0
1,62,114,0
1,34,104,0
1,36,104,16
1,55,120,40
1,60,109,0
1,63,100,0
1,53,120,16
1,58,102,0
1,62,109,0
1,55,111,120
1,60,106,0
1,63,102,0
1,31,101,0
1,53,122,0
1,58,106,0
1,62,111,0
1,36,101,96
1,34,109,16
1,53,114,32
1,58,114,0
1,63,104,0
1,53,104,24
1,58,104,0
1,62,109,0
1,53,106,120
1,58,109,0
1,63,104,0
1,34,116,24
1,53,120,0
1,58,100,0
1,62,117,0
1,36,91,16
1,32,98,16
1,56,115,48
1,60,114,0
1,63,100,0
1,56,111,16
1,58,99,0
1,62,107,0
1,56,127,120
1,60,114,0
1,63,101,0
1,32,96,16
1,56,120,0
1,58,102,0
1,62,109,0
1,36,104,8
1,34,107,16
1,53,109,48
1,58,104,0
1,63,106,0
1,53,111,16
1,58,107,0
1,62,109,0
1,53,107,120
1,58,111,0
1,63,104,0
1,31,101,8
1,53,114,0
1,58,111,0
1,62,114,0
1,34,107,96
1,36,98,16
1,55,114,96
1,60,111,0
1,63,102,0
1,53,107,24
1,58,102,0
1,62,106,0
1,55,111,120
1,60,107,0
1,63,102,0
1,31,98,8
1,53,125,0
1,58,102,0
1,62,107,0
1,36,98,0
1,34,109,8
1,53,106,56
1,58,106,0
1,63,104,0
1,53,107,16
1,58,95,0
1,62,111,0
1,53,107,120
1,58,111,0
1,63,101,0
1,31,104,8
1,53,117,0
1,58,111,0
1,62,111,0
1,34,109,96
1,36,104,0
1,55,106,112
1,60,104,0
1,63,95,0
1,53,117,24
1,58,102,0
1,62,109,0
1,55,109,120
1,60,102,0
1,63,101,0
1,31,104,8
1,53,114,0
1,58,101,0
1,62,107,0
1,36,104,96
1,34,109,8
1,53,106,72
1,58,117,0
1,63,114,0
1,53,104,32
1,58,98,0
1,62,104,0
1,53,107,128
1,58,109,0
1,63,106,0
1,31,101,8
1,53,107,0
1,58,105,0
1,62,107,0
1,34,109,96
1,36,104,8
1,55,120,112
1,60,117,0
1,63,101,0
1,53,122,16
1,58,105,0
1,62,109,0
1,55,114,120
1,60,102,0
1,63,100,0
1,31,104,8
1,53,120,0
1,58,104,0
1,62,105,0
1,36,101,96
1,34,104,8
1,53,106,56
1,58,120,0
1,63,107,0
1,53,105,32
1,58,102,0
1,62,111,0
1,53,114,128
1,58,114,0
1,63,104,0
1,31,104,16
1,53,106,0
1,58,107,0
1,62,114,0
1,34,112,96
1,36,104,80
1,55,114,40
1,60,106,0
1,63,102,0
1,53,122,24
1,58,105,0
1,62,105,0
1,55,111,128
1,60,114,0
1,63,102,0
1,31,104,8
1,53,117,0
1,58,109,0
1,62,111,0
1,36,104,96
1,34,104,8
1,53,106,56
1,58,117,0
1,63,105,0
1,53,102,32
1,58,101,0
1,62,106,0
1,53,111,128
1,58,117,0
1,63,104,0
1,31,104,8
1,53,107,0
1,58,106,0
1,62,107,0
1,34,109,96
1,36,101,8
1,55,120,40
1,60,109,0
1,63,101,0
1,53,117,24
1,58,102,0
1,62,106,0
1,55,114,128
1,60,111,0
1,63,104,0
1,31,92,0
1,53,114,0
1,58,102,0
1,62,106,0
1,36,104,96
1,34,116,16
1,53,105,32
1,58,107,0
1,63,104,0
1,53,105,24
1,58,101,0
1,62,107,0
1,53,107,128
1,58,117,0
1,63,104,0
1,31,93,0
1,53,109,0
1,58,109,0
1,62,120,0
1,34,112,96
1,32,117,0
1,55,109,0
1,60,109,0
1,63,109,0
1,31,90,8
1,53,98,0
1,58,98,0
1,62,93,0
1,70,96,144
1,77,98,0
1,65,82,144
1,74,96,0
1,32,121,256
1,55,105,0
1,60,105,0
1,63,105,0
1,31,98,32
1,53,98,0
1,58,105,0
1,62,109,0
1,31,100,2
1,34,102,94
1,36,91,16
1,55,104,152
1,60,104,0
1,63,101,0
1,53,120,16
1,58,102,0
1,62,106,0
1,55,105,120
1,60,100,0
1,63,102,0
1,31,98,0
1,53,117,0
1,58,104,0
1,62,109,0
1,36,107,96
1,34,109,16
1,53,101,64
1,58,109,0
1,63,107,0
1,53,106,24
1,58,104,0
1,62,109,0
1,53,120,120
1,58,114,0
1,63,106,0
1,31,93,0
1,53,105,0
1,58,105,0
1,62,111,0
1,34,101,96
1,36,109,80
1,55,104,32
1,60,106,0
1,63,101,0
1,53,104,16
1,58,109,0
1,62,111,0
1,55,117,128
1,60,107,0
1,63,104,0
1,31,89,0
1,53,117,0
1,58,102,0
1,62,105,0
1,36,104,96
1,34,112,16
1,53,106,48
1,58,117,0
1,63,109,0
1,53,102,32
1,58,102,0
1,62,111,0
1,53,105,128
1,58,114,0
1,63,102,0
1,31,93,16
1,53,104,0
1,58,106,0
1,62,111,0
1,34,107,88
1,36,104,24
1,55,114,112
1,60,109,0
1,63,105,0
1,53,122,16
1,58,102,0
1,62,111,0
1,55,109,120
1,60,102,0
1,63,101,0
1,31,96,0
1,53,125,0
1,58,105,0
1,62,107,0
1,36,104,96
1,34,104,16
1,53,109,40
1,58,117,0
1,63,117,0
1,53,107,24
1,58,105,0
1,62,109,0
1,53,105,120
1,58,111,0
1,63,107,0
1,31,96,8
1,53,114,0
1,58,111,0
1,62,114,0
1,34,109,96
1,36,104,0
1,55,120,40
1,60,109,0
1,63,100,0
1,53,120,16
1,58,102,0
1,62,109,0
1,55,111,120
1,60,106,0
1,63,102,0
1,31,93,0
1,53,122,0
1,58,106,0
1,62,111,0
1,36,104,96
1,34,101,8
1,53,114,32
1,58,114,0
1,63,104,0
1,53,104,24
1,58,104,0
1,62,109,0
1,53,106,120
1,58,109,0
1,63,104,0
1,34,109,24
1,53,120,0
1,58,100,0
1,62,117,0
1,36,93,24
1,32,93,16
1,56,125,48
1,60,114,0
1,63,100,0
1,56,111,16
1,58,99,0
1,62,107,0
1,56,127,120
1,60,114,0
1,63,101,0
1,32,92,16
1,56,120,0
1,58,102,0
1,62,109,0
1,36,91,16
1,34,112,8
1,53,109,48
1,58,104,0
1,63,106,0
1,53,111,16
1,58,107,0
1,62,109,0
1,53,107,120
1,58,111,0
1,63,104,0
1,31,104,8
1,53,114,0
1,58,111,0
1,62,114,0
1,34,101,96
1,36,98,16
1,55,114,96
1,60,111,0
1,63,102,0
1,53,107,24
1,58,102,0
1,62,106,0
1,55,111,120
1,60,107,0
1,63,102,0
1,31,104,0
1,53,125,0
1,58,102,0
1,62,107,0
1,36,104,96
1,34,109,16
1,53,106,56
1,58,106,0
1,63,104,0
1,53,107,16
1,58,95,0
1,62,111,0
1,53,107,120
1,58,111,0
1,63,101,0
1,31,89,0
1,53,117,0
1,58,111,0
1,62,111,0
1,34,98,96
1,32,121,0
1,55,109,0
1,60,109,0
1,63,117,0
1,67,109,304
1,72,98,96
1,74,90,96
1,75,87,0
1,31,117,48
1,53,93,0
1,58,105,0
1,62,105,0
1,74,93,0
1,32,121,56
1,55,101,0
1,60,109,0
1,63,121,0
1,67,117,288
1,72,98,96
1,74,87,96
1,75,85,96
1,31,105,24
1,53,109,0
1,58,109,0
1,62,109,0
1,74,93,0
1,31,100,16
1,34,102,0
1,36,91,16
1,55,104,128
1,60,104,0
1,63,101,0
1,53,120,16
1,58,102,0
1,62,106,0
1,55,105,120
1,60,100,0
1,63,102,0
1,31,98,0
1,53,117,0
1,58,104,0
1,62,109,0
1,36,107,96
1,34,109,16
1,53,101,64
1,58,109,0
1,63,107,0
1,53,106,24
1,58,104,0
1,62,109,0
1,53,120,120
1,58,114,0
1,63,106,0
1,31,93,0
1,53,105,0
1,58,105,0
1,62,111,0
1,34,101,96
1,36,109,80
1,55,104,32
1,60,106,0
1,63,101,0
1,53,104,16
1,58,109,0
1,62,111,0
1,55,117,128
1,60,107,0
1,63,104,0
1,31,89,0
1,53,117,0
1,58,102,0
1,62,105,0
1,36,104,96
1,34,112,16
1,53,106,48
1,58,117,0
1,63,109,0
1,53,102,32
1,58,102,0
1,62,111,0
1,53,105,128
1,58,114,0
1,63,102,0
1,31,93,16
1,53,104,0
1,58,106,0
1,62,111,0
1,34,107,88
1,36,104,24
1,36,98,112
1,58,93,0
1,63,81,0
1,67,90,0
1,36,82,16
1,58,77,0
1,63,76,0
1,67,81,0
1,36,78,24
1,58,78,0
1,63,77,0
1,67,75,0
1,36,98,24
1,58,96,0
1,63,85,0
1,67,98,0
1,36,93,216
1,58,90,0
1,63,83,0
1,67,85,0
1,36,96,120
1,58,90,0
1,63,85,0
1,67,80,0
1,38,90,112
1,60,101,0
1,65,109,0
1,67,55,0
1,69,101,0
1,39,101,112
1,62,98,0
1,67,109,0
1,70,105,0
1,36,80,104
1,58,81,0
1,63,80,0
1,67,81,0
1,36,83,16
1,58,96,0
1,63,87,0
1,67,87,0
1,36,87,16
1,58,98,0
1,63,78,0
1,67,76,0
1,36,90,24
1,58,101,0
1,63,83,0
1,67,90,0
1,36,101,224
1,58,113,0
1,63,90,0
1,67,87,0
1,36,93,128
1,58,98,0
1,63,90,0
1,67,87,0
1,39,101,128
1,62,109,0
1,67,109,0
1,70,101,0
1,38,109,120
1,60,105,0
1,65,113,0
1,69,109,0
1,36,90,72
1,58,87,0
1,63,76,0
1,67,81,0
1,36,83,24
1,58,96,0
1,63,85,0
1,67,80,0
1,36,80,24
1,58,90,0
1,63,98,0
1,67,80,0
1,36,93,24
1,58,96,0
1,63,101,0
1,67,105,0
1,36,98,216
1,58,101,0
1,63,90,0
1,67,96,0
1,36,98,112
1,58,101,0
1,63,96,0
1,66,60,0
1,67,96,0
1,38,90,112
1,60,98,0
1,65,96,0
1,67,69,0
1,69,90,0
1,39,98,120
1,62,96,0
1,67,105,0
1,70,105,0
1,36,113,120
1,62,109,0
1,67,105,0
1,70,109,0
1,34,113,8
1,60,101,0
1,65,117,0
1,67,82,0
1,69,109,0
1,32,105,32
1,58,121,0
1,63,98,0
1,67,98,0
1,31,93,32
1,57,105,0
1,62,113,0
1,65,105,0
1,36,82,104
1,58,96,0
1,63,81,0
1,67,87,0
1,36,90,24
1,58,80,0
1,63,77,0
1,67,78,0
1,36,96,32
1,58,96,0
1,63,82,0
1,67,82,0
1,36,117,24
1,58,98,0
1,63,90,0
1,67,98,0
1,36,109,224
1,58,105,0
1,63,93,0
1,67,90,0
1,36,98,120
1,58,105,0
1,63,90,0
1,67,90,0
1,38,96,120
1,60,98,0
1,65,96,0
1,69,90,0
1,39,105,112
1,62,105,0
1,67,105,0
1,70,101,0
1,36,78,88
1,58,85,0
1,63,75,0
1,67,83,0
1,36,78,16
1,58,90,0
1,63,78,0
1,67,85,0
1,36,87,16
1,58,81,0
1,63,78,0
1,67,96,0
1,36,101,24
1,58,98,0
1,63,87,0
1,67,93,0
1,36,98,216
1,58,98,0
1,63,93,0
1,67,87,0
1,36,96,120
1,58,105,0
1,63,90,0
1,67,93,0
1,39,96,120
1,62,96,0
1,67,90,0
1,70,90,0
1,38,101,112
1,60,105,0
1,65,109,0
1,69,101,0
1,36,82,80
1,58,78,0
1,63,77,0
1,67,78,0
1,36,87,16
1,58,93,0
1,63,82,0
1,67,81,0
1,36,93,16
1,58,78,0
1,63,75,0
1,67,81,0
1,36,105,24
1,58,105,0
1,63,82,0
1,67,85,0
1,36,101,216
1,58,105,0
1,63,90,0
1,67,93,0
1,36,98,120
1,58,98,0
1,63,93,0
1,67,93,0
1,38,82,104
1,60,93,0
1,65,87,0
1,67,65,0
1,69,85,0
1,39,98,112
1,62,101,0
1,67,98,0
1,70,98,0
1,36,109,104
1,62,105,0
1,67,113,0
1,70,105,0
1,38,109,32
1,60,101,0
1,65,109,0
1,69,109,0
1,39,90,8
1,58,125,0
1,63,96,0
1,67,90,0
1,41,109,112
1,57,98,0
1,62,117,0
1,65,109,0
1,31,107,184
1,34,91,8
1,36,107,8
1,55,114,104
1,60,109,0
1,63,105,0
1,53,122,16
1,58,102,0
1,62,111,0
1,55,109,120
1,60,102,0
1,63,101,0
1,31,96,16
1,53,125,0
1,58,105,0
1,62,107,0
1,36,104,96
1,34,104,16
1,53,109,40
1,58,117,0
1,63,117,0
1,53,107,24
1,58,105,0
1,62,109,0
1,53,105,120
1,58,111,0
1,63,107,0
1,31,96,8
1,53,114,0
1,58,111,0
1,62,114,0
1,34,109,96
1,36,104,0
1,55,120,40
1,60,109,0
1,63,100,0
1,53,120,16
1,58,102,0
1,62,109,0
1,55,111,120
1,60,106,0
1,63,102,0
1,31,93,0
1,53,122,0
1,58,106,0
1,62,111,0
1,36,104,96
1,34,101,8
1,53,114,32
1,58,114,0
1,63,104,0
1,53,104,24
1,58,104,0
1,62,109,0
1,53,106,120
1,58,109,0
1,63,104,0
1,34,109,24
1,53,120,0
1,58,100,0
1,62,117,0
1,36,93,24
1,32,93,16
1,56,125,48
1,60,114,0
1,63,100,0
1,56,111,16
1,58,99,0
1,62,107,0
1,56,127,120
1,60,114,0
1,63,101,0
1,32,92,16
1,56,120,0
1,58,102,0
1,62,109,0
1,36,91,16
1,34,112,8
1,53,109,48
1,58,104,0
1,63,106,0
1,53,111,16
1,58,107,0
1,62,109,0
1,53,107,120
1,58,111,0
1,63,104,0
1,31,104,8
1,53,114,0
1,58,111,0
1,62,114,0
1,34,101,96
1,36,98,16
1,55,114,96
1,60,111,0
1,63,102,0
1,53,107,24
1,58,102,0
1,62,106,0
1,55,111,120
1,60,107,0
1,63,102,0
1,31,104,0
1,53,125,0
1,58,102,0
1,62,107,0
1,36,104,96
1,34,109,16
1,53,106,56
1,58,106,0
1,63,104,0
1,53,107,16
1,58,95,0
1,62,111,0
1,53,107,120
1,58,111,0
1,63,101,0
1,31,89,0
1,53,117,0
1,58,111,0
1,62,111,0
1,34,98,96
1,36,94,0
1,55,114,112
1,60,109,0
1,63,105,0
1,53,122,16
1,58,102,0
1,62,111,0
1,55,109,120
1,60,102,0
1,63,101,0
1,31,96,16
1,53,125,0
1,58,105,0
1,62,107,0
1,36,104,96
1,34,104,16
1,53,109,40
1,58,117,0
1,63,117,0
1,53,107,24
1,58,105,0
1,62,109,0
1,53,105,120
1,58,111,0
1,63,107,0
1,31,96,8
1,53,114,0
1,58,111,0
1,62,114,0
1,34,109,96
1,36,104,0
1,55,120,40
1,60,109,0
1,63,100,0
1,53,120,16
1,58,102,0
1,62,109,0
1,55,111,120
1,60,106,0
1,63,102,0
1,31,93,0
1,53,122,0
1,58,106,0
1,62,111,0
1,36,104,96
1,34,101,8
1,53,114,32
1,58,114,0
1,63,104,0
1,53,104,24
1,58,104,0
1,62,109,0
1,53,106,120
1,58,109,0
1,63,104,0
1,34,109,24
1,53,120,0
1,58,100,0
1,62,117,0
1,36,93,24
1,32,93,16
1,56,125,48
1,60,114,0
1,63,100,0
1,56,111,16
1,58,99,0
1,62,107,0
1,56,127,120
1,60,114,0
1,63,101,0
1,32,92,16
1,56,120,0
1,58,102,0
1,62,109,0
1,36,91,16
1,34,112,8
1,53,109,48
1,58,104,0
1,63,106,0
1,53,111,16
1,58,107,0
1,62,109,0
1,53,107,120
1,58,111,0
1,63,104,0
1,31,104,8
1,53,114,0
1,58,111,0
1,62,114,0
1,34,101,96
1,36,98,16
1,55,114,96
1,60,111,0
1,63,102,0
1,53,107,24
1,58,102,0
1,62,106,0
1,55,111,120
1,60,107,0
1,63,102,0
1,31,104,0
1,53,125,0
1,58,102,0
