track,note,velocity,time
0,31,94,239
0,31,84,1
0,34,97,0
0,34,99,1
0,36,113,0
0,36,103,1
0,55,92,0
0,35,81,47
0,35,89,48
0,35,89,52
0,35,81,56
0,34,94,8
0,34,107,1
0,35,81,43
0,35,89,48
0,35,89,52
0,35,81,56
0,36,101,0
0,36,99,1
0,35,81,43
0,35,89,48
0,35,89,52
0,58,92,1
0,35,81,56
0,34,97,8
0,34,99,0
0,35,81,44
0,35,89,48
0,35,89,52
0,60,92,1
0,35,81,56
0,32,105,0
0,32,100,0
0,62,92,0
0,35,81,47
0,35,89,23
0,35,89,23
0,67,92,1
0,35,81,23
0,34,94,0
0,34,107,1
0,70,92,0
0,35,81,23
0,35,89,23
0,35,89,23
0,65,92,0
0,35,81,23
0,36,105,0
0,36,103,1
0,67,92,0
0,35,81,23
0,35,89,23
0,35,89,23
0,72,92,1
0,35,81,47
0,34,92,8
0,34,99,0
0,53,122,0
0,58,122,0
0,62,125,0
0,74,92,0
0,35,74,39
0,38,30,0
0,42,13,0
0,34,89,1
0,35,39,0
0,38,27,0
0,42,6,0
0,34,79,28
0,35,53,0
0,38,41,0
0,42,33,0
0,34,78,20
0,35,63,0
0,38,50,0
0,42,33,0
0,34,97,28
0,35,73,0
0,38,67,0
0,42,56,0
0,31,81,8
0,35,86,0
0,38,76,0
0,42,62,0
0,31,96,0
0,34,83,3
0,35,101,0
0,38,91,0
0,42,83,0
0,34,98,1
0,36,86,11
0,35,117,0
0,38,99,0
0,42,91,0
0,36,101,1
0,79,127,0
0,91,127,0
0,35,94,3
0,42,71,0
0,64,61,0
0,42,67,0
0,64,62,0
0,55,114,1
0,60,109,0
0,63,105,0
0,42,59,8
0,64,58,0
0,35,89,7
0,38,87,0
0,62,127,0
0,53,122,1
0,58,102,0
0,62,111,0
0,42,71,0
0,64,56,0
0,42,59,8
0,64,48,0
0,35,101,12
0,42,83,0
0,63,56,0
0,55,109,1
0,60,102,0
0,63,101,0
0,31,94,8
0,42,75,0
0,64,62,0
0,31,109,0
0,53,125,0
0,58,105,0
0,62,107,0
0,55,87,0
0,42,59,3
0,64,50,0
0,36,89,12
0,35,97,0
0,38,95,0
0,61,87,0
0,36,104,1
0,60,87,0
0,34,81,4
0,42,67,0
0,64,63,0
0,34,96,1
0,58,84,0
0,42,62,8
0,64,55,0
0,35,94,12
0,42,71,0
0,64,57,0
0,42,67,0
0,64,66,0
0,53,109,1
0,58,117,0
0,63,117,0
0,42,59,8
0,64,61,0
0,35,94,11
0,38,87,0
0,62,127,0
0,53,107,1
0,58,105,0
0,62,109,0
0,42,71,8
0,64,45,0
0,42,59,8
0,64,43,0
0,35,101,12
0,42,83,0
0,63,56,0
0,53,105,1
0,58,111,0
0,63,107,0
0,31,89,7
0,42,75,0
0,64,61,0
0,31,104,1
0,53,114,0
0,58,111,0
0,62,114,0
0,55,87,0
0,42,59,8
0,64,57,0
0,34,89,0
0,35,94,0
0,38,95,0
0,64,62,0
0,34,104,0
0,58,87,0
0,36,89,4
0,42,67,0
0,61,99,0
0,36,104,1
0,60,99,0
0,42,62,4
0,64,73,0
0,35,94,12
0,42,71,0
0,64,61,0
0,42,67,0
0,64,62,0
0,55,120,1
0,60,109,0
0,63,100,0
0,42,59,8
0,64,58,0
0,35,97,7
0,38,87,0
0,62,127,0
0,53,120,1
0,58,102,0
0,62,109,0
0,42,71,8
0,64,56,0
0,42,59,8
0,64,48,0
0,62,90,1
0,35,101,3
0,42,83,0
0,63,56,0
0,55,111,1
0,60,106,0
0,63,102,0
0,63,95,0
0,31,86,0
0,42,75,0
0,64,62,0
0,31,101,0
0,53,122,0
0,58,106,0
0,62,111,0
0,62,87,0
0,42,59,7
0,64,50,0
0,36,86,12
0,35,92,0
0,38,95,0
0,61,87,0
0,36,101,1
0,60,87,0
0,34,94,4
0,42,67,0
0,64,63,0
0,34,109,1
0,58,79,0
0,42,62,8
0,64,55,0
0,35,94,12
0,42,71,0
0,64,57,0
0,42,67,0
0,64,66,0
0,53,114,1
0,58,114,0
0,63,104,0
0,42,59,8
0,64,61,0
0,35,97,11
0,38,87,0
0,62,127,0
0,53,104,1
0,58,104,0
0,62,109,0
0,42,71,8
0,64,45,0
0,42,59,8
0,64,43,0
0,35,101,12
0,42,83,0
0,63,56,0
0,53,106,1
0,58,109,0
0,63,104,0
0,34,101,8
0,42,75,0
0,64,61,0
0,34,116,1
0,53,120,0
0,58,100,0
0,62,117,0
0,58,95,0
0,42,59,3
0,64,57,0
0,36,76,7
0,35,94,0
0,38,95,0
0,64,62,0
0,36,91,1
0,60,91,0
0,32,83,4
0,42,67,0
0,61,99,0
0,32,98,1
0,56,84,0
0,42,62,4
0,64,73,0
0,35,94,12
0,42,71,0
0,64,61,0
0,42,67,0
0,64,62,0
0,56,115,1
0,60,114,0
0,63,100,0
0,42,59,8
0,64,58,0
0,35,97,7
0,38,87,0
0,62,127,0
0,56,111,1
0,58,99,0
0,62,107,0
0,42,71,8
0,64,56,0
0,42,59,8
0,64,48,0
0,35,101,12
0,42,83,0
0,63,56,0
0,56,127,1
0,60,114,0
0,63,101,0
0,32,81,7
0,42,75,0
0,64,62,0
0,32,96,0
0,56,120,0
0,58,102,0
0,62,109,0
0,56,84,0
0,42,59,3
0,64,50,0
0,36,89,3
0,35,94,0
0,38,95,0
0,61,87,0
0,36,104,1
0,60,91,0
0,34,92,0
0,42,67,0
0,64,63,0
0,34,107,1
0,58,87,0
0,42,62,8
0,64,55,0
0,35,94,12
0,42,71,0
0,64,57,0
0,42,67,0
0,64,66,0
0,53,109,1
0,58,104,0
0,63,106,0
0,42,59,8
0,64,61,0
0,35,94,7
0,38,87,0
0,62,127,0
0,53,111,1
0,58,107,0
0,62,109,0
0,42,71,8
0,64,45,0
0,42,59,8
0,64,43,0
0,35,101,12
0,42,83,0
0,63,56,0
0,53,107,1
0,58,111,0
0,63,104,0
0,31,86,3
0,42,75,0
0,64,61,0
0,31,101,1
0,53,114,0
0,58,111,0
0,62,114,0
0,55,87,0
0,42,59,3
0,64,57,0
0,34,92,12
0,35,97,0
0,38,95,0
0,64,62,0
0,34,107,1
0,58,87,0
0,36,83,4
0,42,67,0
0,61,99,0
0,36,98,1
0,60,87,0
0,42,62,4
0,64,73,0
0,35,94,3
0,42,71,0
0,64,61,0
0,42,67,0
0,64,62,0
0,55,114,1
0,60,111,0
0,63,102,0
0,42,59,8
0,64,58,0
0,35,94,11
0,38,87,0
0,62,127,0
0,53,107,1
0,58,102,0
0,62,106,0
0,42,71,8
0,64,56,0
0,42,59,8
0,64,48,0
0,35,101,12
0,42,83,0
0,63,56,0
0,55,111,1
0,60,107,0
0,63,102,0
0,31,83,3
0,42,75,0
0,64,62,0
0,31,98,0
0,53,125,0
0,58,102,0
0,62,107,0
0,60,87,0
0,42,59,8
0,64,50,0
0,36,83,0
0,35,92,0
0,38,95,0
0,61,87,0
0,36,98,0
0,67,87,0
0,34,94,3
0,42,67,0
0,64,63,0
0,34,109,1
0,65,99,0
0,42,62,8
0,64,55,0
0,35,92,12
0,42,75,0
0,64,57,0
0,42,59,4
0,64,66,0
0,53,106,1
0,58,106,0
0,63,104,0
0,42,64,8
0,64,61,0
0,35,92,7
0,38,79,0
0,62,127,0
0,53,107,1
0,58,95,0
0,62,111,0
0,42,64,0
0,64,45,0
0,42,59,8
0,64,43,0
0,35,92,8
0,49,75,0
0,63,56,0
0,53,107,0
0,58,111,0
0,63,101,0
0,70,103,0
0,65,113,3
0,31,89,3
0,42,75,0
0,64,61,0
0,31,104,1
0,53,117,0
0,58,111,0
0,62,111,0
0,65,101,2
0,42,64,8
0,64,57,0
0,34,94,5
0,35,101,0
0,38,87,0
0,42,75,0
0,64,62,0
0,34,109,1
0,63,105,2
0,36,89,0
0,35,97,0
0,57,75,0
0,61,99,0
0,36,104,0
0,72,127,0
0,65,107,6
0,64,73,4
0,35,94,1
0,42,71,0
0,64,61,0
0,42,67,0
0,64,62,0
0,55,106,1
0,60,104,0
0,63,95,0
0,42,59,8
0,64,58,0
0,35,89,11
0,38,87,0
0,62,127,0
0,53,117,1
0,58,102,0
0,62,109,0
0,42,71,0
0,64,56,0
0,42,59,8
0,64,48,0
0,60,105,11
0,35,101,1
0,42,83,0
0,63,56,0
0,55,109,1
0,60,102,0
0,63,101,0
0,31,89,3
0,42,75,0
0,64,62,0
0,31,104,0
0,53,114,0
0,58,101,0
0,62,107,0
0,63,101,0
0,42,59,8
0,64,50,0
0,36,89,12
0,35,97,0
0,38,95,0
0,61,87,0
0,36,104,1
0,65,107,2
0,34,94,1
0,42,67,0
0,64,63,0
0,34,109,1
0,42,62,8
0,64,55,0
0,35,94,0
0,42,71,0
0,64,57,0
0,42,67,0
0,64,66,0
0,53,106,1
0,58,117,0
0,63,114,0
0,42,59,8
0,64,61,0
0,35,94,3
0,38,87,0
0,62,127,0
0,53,104,1
0,58,98,0
0,62,104,0
0,42,71,8
0,64,45,0
0,42,59,8
0,64,43,0
0,35,101,12
0,42,83,0
0,63,56,0
0,53,107,1
0,58,109,0
0,63,106,0
0,31,86,3
0,42,75,0
0,64,61,0
0,31,101,1
0,53,107,0
0,58,105,0
0,62,107,0
0,60,95,0
0,42,59,7
0,64,57,0
0,63,103,1
0,34,94,12
0,35,94,0
0,38,95,0
0,64,62,0
0,34,109,1
0,60,90,9
0,36,89,3
0,42,67,0
0,61,99,0
0,36,104,1
0,65,109,0
0,42,62,4
0,64,73,0
0,35,94,7
0,42,71,0
0,64,61,0
0,42,67,0
0,64,62,0
0,55,120,1
0,60,117,0
0,63,101,0
0,42,59,8
0,64,58,0
0,35,97,4
0,38,87,0
0,62,127,0
0,53,122,1
0,58,105,0
0,62,109,0
0,42,71,8
0,64,56,0
0,42,59,0
0,64,48,0
0,35,101,3
0,42,83,0
0,63,56,0
0,55,114,1
0,60,102,0
0,63,100,0
0,67,109,4
0,31,89,3
0,42,75,0
0,64,62,0
0,31,104,0
0,53,120,0
0,58,104,0
0,62,105,0
0,65,95,2
0,42,59,8
0,64,50,0
0,36,86,12
0,35,92,0
0,38,95,0
0,61,87,0
0,36,101,1
0,63,96,1
0,34,89,3
0,42,67,0
0,64,63,0
0,34,104,1
0,65,105,4
0,42,62,1
0,64,55,0
0,35,94,0
0,42,71,0
0,64,57,0
0,42,67,0
0,64,66,0
0,53,106,1
0,58,120,0
0,63,107,0
0,42,59,8
0,64,61,0
0,35,97,12
0,38,87,0
0,62,127,0
0,53,105,1
0,58,102,0
0,62,111,0
0,42,71,8
0,64,45,0
0,42,59,8
0,64,43,0
0,60,105,12
0,35,101,0
0,42,83,0
0,63,56,0
0,53,114,1
0,58,114,0
0,63,104,0
0,31,89,7
0,42,75,0
0,64,61,0
0,31,104,1
0,53,106,0
0,58,107,0
0,62,114,0
0,63,103,1
0,42,59,8
0,64,57,0
0,34,97,12
0,35,94,0
0,38,95,0
0,64,62,0
0,34,112,1
0,36,89,2
0,42,67,0
0,61,99,0
0,36,104,1
0,65,109,0
0,42,62,4
0,64,73,0
0,35,94,12
0,42,71,0
0,64,61,0
0,42,67,0
0,64,62,0
0,55,114,1
0,60,106,0
0,63,102,0
0,42,59,8
0,64,58,0
0,35,97,0
0,38,87,0
0,62,127,0
0,53,122,1
0,58,105,0
0,62,105,0
0,42,71,8
0,64,56,0
0,42,59,8
0,64,48,0
0,35,101,3
0,42,83,0
0,63,56,0
0,55,111,1
0,60,114,0
0,63,102,0
0,67,105,3
0,31,89,0
0,42,75,0
0,64,62,0
0,31,104,0
0,53,117,0
0,58,109,0
0,62,111,0
0,65,97,5
0,42,59,8
0,64,50,0
0,36,89,2
0,35,94,0
0,38,95,0
0,61,87,0
0,36,104,1
0,63,98,2
0,34,89,0
0,42,67,0
0,64,63,0
0,34,104,1
0,65,105,5
0,42,62,1
0,64,55,0
0,35,94,0
0,42,71,0
0,64,57,0
0,42,67,0
0,64,66,0
0,53,106,1
0,58,117,0
0,63,105,0
0,42,59,8
0,64,61,0
0,35,94,12
0,38,87,0
0,62,127,0
0,53,102,1
0,58,101,0
0,62,106,0
0,42,71,8
0,64,45,0
0,42,59,8
0,64,43,0
0,35,101,12
0,42,83,0
0,63,56,0
0,53,111,1
0,58,117,0
0,63,104,0
0,65,109,1
0,31,89,3
0,42,75,0
0,64,61,0
0,31,104,1
0,53,107,0
0,58,106,0
0,62,107,0
0,65,107,3
0,42,59,8
0,64,57,0
0,34,94,12
0,35,97,0
0,38,95,0
0,64,62,0
0,34,109,1
0,36,86,3
0,42,67,0
0,61,99,0
0,36,101,1
0,65,109,2
0,42,62,4
0,64,73,0
0,35,94,12
0,42,71,0
0,64,61,0
0,42,67,0
0,64,62,0
0,55,120,1
0,60,109,0
0,63,101,0
0,65,109,0
0,42,59,8
0,64,58,0
0,35,94,2
0,38,87,0
0,62,127,0
0,53,117,1
0,58,102,0
0,62,106,0
0,42,71,8
0,64,56,0
0,42,59,2
0,64,48,0
0,35,101,12
0,42,83,0
0,63,56,0
0,55,114,1
0,60,111,0
0,63,104,0
0,31,77,0
0,42,75,0
0,64,62,0
0,31,92,0
0,53,114,0
0,58,102,0
0,62,106,0
0,42,59,8
0,64,50,0
0,36,89,12
0,35,92,0
0,38,95,0
0,61,87,0
0,36,104,1
0,34,101,4
0,42,67,0
0,64,63,0
0,34,116,1
0,42,62,8
0,64,55,0
0,35,101,12
0,42,71,0
0,64,57,0
0,42,71,8
0,64,66,0
0,53,105,1
0,58,107,0
0,63,104,0
0,42,64,12
0,64,61,0
0,35,101,11
0,49,67,0
0,62,127,0
0,53,105,1
0,58,101,0
0,62,107,0
0,38,84,12
0,64,45,0
0,38,64,8
0,64,43,0
0,35,105,8
0,38,76,0
0,63,56,0
0,53,107,1
0,58,117,0
0,63,104,0
0,31,78,0
0,38,87,0
0,64,61,0
0,31,93,0
0,53,109,0
0,58,109,0
0,62,120,0
0,63,104,4
0,64,57,12
0,34,97,11
0,38,84,0
0,64,62,0
0,34,112,1
0,65,101,4
0,32,81,0
0,35,101,0
0,57,72,0
0,61,99,0
0,32,117,0
0,55,109,0
0,60,109,0
0,63,109,0
0,67,109,3
0,64,73,4
0,64,61,7
0,65,101,8
0,64,62,3
0,64,58,12
0,65,101,11
0,38,82,1
0,62,127,0
0,63,95,6
0,64,56,0
0,35,89,23
0,64,48,0
0,63,96,4
0,35,86,4
0,63,56,0
0,60,94,3
0,35,94,5
0,64,62,0
0,64,50,4
0,63,105,9
0,38,87,4
0,61,87,0
0,65,105,2
0,31,92,1
0,35,92,0
0,49,64,0
0,64,63,0
0,31,90,1
0,53,98,0
0,58,98,0
0,62,93,0
0,64,55,2
0,64,57,12
0,64,66,3
0,64,61,0
0,38,84,15
0,62,127,0
0,63,97,1
0,64,45,4
0,70,96,1
0,77,98,0
0,60,73,0
0,29,90,3
0,35,89,0
0,64,43,0
0,29,89,8
0,35,83,0
0,63,56,0
0,63,86,0
0,31,92,4
0,35,89,0
0,64,61,0
0,65,82,1
0,74,96,0
0,60,60,0
0,64,57,4
0,38,91,16
0,64,62,0
0,63,78,1
0,61,99,1
0,65,94,1
0,64,73,4
0,32,105,4
0,35,94,0
0,49,69,0
0,64,61,0
0,32,121,0
0,55,105,0
0,60,105,0
0,63,105,0
0,67,107,2
0,64,62,0
0,65,97,4
0,64,58,12
0,38,84,8
0,62,127,0
0,65,94,1
0,63,96,7
0,64,56,2
0,35,83,7
0,64,48,0
0,63,95,5
0,35,94,3
0,63,56,0
0,60,101,8
0,35,92,3
0,64,62,0
0,64,50,4
0,63,101,12
0,38,84,6
0,61,87,0
0,63,98,1
0,31,92,0
0,35,97,0
0,57,53,0
0,64,63,0
0,31,98,1
0,53,98,0
0,58,105,0
0,62,109,0
0,64,55,2
0,63,100,6
0,64,57,6
0,65,109,12
0,35,89,4
0,64,66,0
0,64,61,4
0,35,89,16
0,49,76,0
0,62,127,0
0,38,82,6
0,64,45,0
