track,note,velocity,time
1,31,84,2096
1,34,99,192
1,36,103,16
1,34,107,1536
1,36,99,1520
1,34,99,0
1,32,100,16
1,34,107,1536
1,36,103,16
1,34,99,1536
1,53,122,0
1,58,122,0
1,62,125,0
1,31,96,0
1,34,98,16
1,36,101,48
1,55,114,384
1,60,109,0
1,63,105,0
1,53,122,32
1,58,102,0
1,62,111,0
1,55,109,240
1,60,102,0
1,63,101,0
1,31,109,48
1,53,125,0
1,58,105,0
1,62,107,0
1,36,104,176
1,34,96,48
1,53,109,80
1,58,117,0
1,63,117,0
1,53,107,48
1,58,105,0
1,62,109,0
1,53,105,240
1,58,111,0
1,63,107,0
1,31,104,32
1,53,114,0
1,58,111,0
1,62,114,0
1,34,104,0
1,36,104,32
1,55,120,80
1,60,109,0
1,63,100,0
1,53,120,32
1,58,102,0
1,62,109,0
1,55,111,240
1,60,106,0
1,63,102,0
1,31,101,0
1,53,122,0
1,58,106,0
1,62,111,0
1,36,101,192
1,34,109,32
1,53,114,64
1,58,114,0
1,63,104,0
1,53,104,48
1,58,104,0
1,62,109,0
1,53,106,240
1,58,109,0
1,63,104,0
1,34,116,48
1,53,120,0
1,58,100,0
1,62,117,0
1,36,91,32
1,32,98,32
1,56,115,96
1,60,114,0
1,63,100,0
1,56,111,32
1,58,99,0
1,62,107,0
1,56,127,240
1,60,114,0
1,63,101,0
1,32,96,32
1,56,120,0
1,58,102,0
1,62,109,0
1,36,104,16
1,34,107,32
1,53,109,96
1,58,104,0
1,63,106,0
1,53,111,32
1,58,107,0
1,62,109,0
1,53,107,240
1,58,111,0
1,63,104,0
1,31,101,16
1,53,114,0
1,58,111,0
1,62,114,0
1,34,107,192
1,36,98,32
1,55,114,192
1,60,111,0
1,63,102,0
1,53,107,48
1,58,102,0
1,62,106,0
1,55,111,240
1,60,107,0
1,63,102,0
1,31,98,16
1,53,125,0
1,58,102,0
1,62,107,0
1,36,98,0
1,34,109,16
1,53,106,112
1,58,106,0
1,63,104,0
1,53,107,32
1,58,95,0
1,62,111,0
1,53,107,240
1,58,111,0
1,63,101,0
1,31,104,16
1,53,117,0
1,58,111,0
1,62,111,0
1,34,109,192
1,36,104,0
1,55,106,224
1,60,104,0
1,63,95,0
1,53,117,48
1,58,102,0
1,62,109,0
1,55,109,240
1,60,102,0
1,63,101,0
1,31,104,16
1,53,114,0
1,58,101,0
1,62,107,0
1,36,104,192
1,34,109,16
1,53,106,144
1,58,117,0
1,63,114,0
1,53,104,64
1,58,98,0
1,62,104,0
1,53,107,256
1,58,109,0
1,63,106,0
1,31,101,16
1,53,107,0
1,58,105,0
1,62,107,0
1,34,109,192
1,36,104,16
1,55,120,224
1,60,117,0
1,63,101,0
1,53,122,32
1,58,105,0
1,62,109,0
1,55,114,240
1,60,102,0
1,63,100,0
1,31,104,16
1,53,120,0
1,58,104,0
1,62,105,0
1,36,101,192
1,34,104,16
1,53,106,112
1,58,120,0
1,63,107,0
1,53,105,64
1,58,102,0
1,62,111,0
1,53,114,256
1,58,114,0
1,63,104,0
1,31,104,32
1,53,106,0
1,58,107,0
1,62,114,0
1,34,112,192
1,36,104,160
1,55,114,80
1,60,106,0
1,63,102,0
1,53,122,48
1,58,105,0
1,62,105,0
1,55,111,256
1,60,114,0
1,63,102,0
1,31,104,16
1,53,117,0
1,58,109,0
1,62,111,0
1,36,104,192
1,34,104,16
1,53,106,112
1,58,117,0
1,63,105,0
1,53,102,64
1,58,101,0
1,62,106,0
1,53,111,256
1,58,117,0
1,63,104,0
1,31,104,16
1,53,107,0
1,58,106,0
1,62,107,0
1,34,109,192
1,36,101,16
1,55,120,80
1,60,109,0
1,63,101,0
1,53,117,48
1,58,102,0
1,62,106,0
1,55,114,256
1,60,111,0
1,63,104,0
1,31,92,0
1,53,114,0
1,58,102,0
1,62,106,0
1,36,104,192
1,34,116,32
1,53,105,64
1,58,107,0
1,63,104,0
1,53,105,48
1,58,101,0
1,62,107,0
1,53,107,256
1,58,117,0
1,63,104,0
1,31,93,0
1,53,109,0
1,58,109,0
1,62,120,0
1,34,112,192
1,32,117,0
1,55,109,0
1,60,109,0
1,63,109,0
1,31,90,16
1,53,98,0
1,58,98,0
1,62,93,0
1,70,96,288
1,77,98,0
1,65,82,288
1,74,96,0
1,32,121,512
1,55,105,0
1,60,105,0
1,63,105,0
1,31,98,64
1,53,98,0
1,58,105,0
1,62,109,0
1,31,100,4
1,34,102,188
1,36,91,32
1,55,104,304
1,60,104,0
1,63,101,0
1,53,120,32
1,58,102,0
1,62,106,0
1,55,105,240
1,60,100,0
1,63,102,0
1,31,98,0
1,53,117,0
1,58,104,0
1,62,109,0
1,36,107,192
1,34,109,32
1,53,101,128
1,58,109,0
1,63,107,0
1,53,106,48
1,58,104,0
1,62,109,0
1,53,120,240
1,58,114,0
1,63,106,0
1,31,93,0
1,53,105,0
1,58,105,0
1,62,111,0
1,34,101,192
1,36,109,160
1,55,104,64
1,60,106,0
1,63,101,0
1,53,104,32
1,58,109,0
1,62,111,0
1,55,117,256
1,60,107,0
1,63,104,0
1,31,89,0
1,53,117,0
1,58,102,0
1,62,105,0
1,36,104,192
1,34,112,32
1,53,106,96
1,58,117,0
1,63,109,0
1,53,102,64
1,58,102,0
1,62,111,0
1,53,105,256
1,58,114,0
1,63,102,0
1,31,93,32
1,53,104,0
1,58,106,0
1,62,111,0
1,34,107,176
1,36,104,48
1,55,114,224
1,60,109,0
1,63,105,0
1,53,122,32
1,58,102,0
1,62,111,0
1,55,109,240
1,60,102,0
1,63,101,0
1,31,96,0
1,53,125,0
1,58,105,0
1,62,107,0
1,36,104,192
1,34,104,32
1,53,109,80
1,58,117,0
1,63,117,0
1,53,107,48
1,58,105,0
1,62,109,0
1,53,105,240
1,58,111,0
1,63,107,0
1,31,96,16
1,53,114,0
1,58,111,0
1,62,114,0
1,34,109,192
1,36,104,0
1,55,120,80
1,60,109,0
1,63,100,0
1,53,120,32
1,58,102,0
1,62,109,0
1,55,111,240
1,60,106,0
1,63,102,0
1,31,93,0
1,53,122,0
1,58,106,0
1,62,111,0
1,36,104,192
1,34,101,16
1,53,114,64
1,58,114,0
1,63,104,0
1,53,104,48
1,58,104,0
1,62,109,0
1,53,106,240
1,58,109,0
1,63,104,0
1,34,109,48
1,53,120,0
1,58,100,0
1,62,117,0
1,36,93,48
1,32,93,32
1,56,125,96
1,60,114,0
1,63,100,0
1,56,111,32
1,58,99,0
1,62,107,0
1,56,127,240
1,60,114,0
1,63,101,0
1,32,92,32
1,56,120,0
1,58,102,0
1,62,109,0
1,36,91,32
1,34,112,16
1,53,109,96
1,58,104,0
1,63,106,0
1,53,111,32
1,58,107,0
1,62,109,0
1,53,107,240
1,58,111,0
1,63,104,0
1,31,104,16
1,53,114,0
1,58,111,0
1,62,114,0
1,34,101,192
1,36,98,32
1,55,114,192
1,60,111,0
1,63,102,0
1,53,107,48
1,58,102,0
1,62,106,0
1,55,111,240
1,60,107,0
1,63,102,0
1,31,104,0
1,53,125,0
1,58,102,0
1,62,107,0
1,36,104,192
1,34,109,32
1,53,106,112
1,58,106,0
1,63,104,0
1,53,107,32
1,58,95,0
1,62,111,0
1,53,107,240
1,58,111,0
1,63,101,0
1,31,89,0
1,53,117,0
1,58,111,0
1,62,111,0
1,34,98,192
1,32,121,0
1,55,109,0
1,60,109,0
1,63,117,0
1,67,109,608
1,72,98,192
1,74,90,192
1,75,87,0
1,31,117,96
1,53,93,0
1,58,105,0
1,62,105,0
1,74,93,0
1,32,121,112
1,55,101,0
1,60,109,0
1,63,121,0
1,67,117,576
1,72,98,192
1,74,87,192
1,75,85,192
1,31,105,48
1,53,109,0
1,58,109,0
1,62,109,0
1,74,93,0
1,31,100,32
1,34,102,0
1,36,91,32
1,55,104,256
1,60,104,0
1,63,101,0
1,53,120,32
1,58,102,0
1,62,106,0
1,55,105,240
1,60,100,0
1,63,102,0
1,31,98,0
1,53,117,0
1,58,104,0
1,62,109,0
1,36,107,192
1,34,109,32
1,53,101,128
1,58,109,0
1,63,107,0
1,53,106,48
1,58,104,0
1,62,109,0
1,53,120,240
1,58,114,0
1,63,106,0
1,31,93,0
1,53,105,0
1,58,105,0
1,62,111,0
1,34,101,192
1,36,109,160
1,55,104,64
1,60,106,0
1,63,101,0
1,53,104,32
1,58,109,0
1,62,111,0
1,55,117,256
1,60,107,0
1,63,104,0
1,31,89,0
1,53,117,0
1,58,102,0
1,62,105,0
1,36,104,192
1,34,112,32
1,53,106,96
1,58,117,0
1,63,109,0
1,53,102,64
1,58,102,0
1,62,111,0
1,53,105,256
1,58,114,0
1,63,102,0
1,31,93,32
1,53,104,0
1,58,106,0
1,62,111,0
1,34,107,176
1,36,104,48
1,36,98,224
1,58,93,0
1,63,81,0
1,67,90,0
1,36,82,32
1,58,77,0
1,63,76,0
1,67,81,0
1,36,78,48
1,58,78,0
1,63,77,0
1,67,75,0
1,36,98,48
1,58,96,0
1,63,85,0
1,67,98,0
1,36,93,432
1,58,90,0
1,63,83,0
1,67,85,0
1,36,96,240
1,58,90,0
1,63,85,0
1,67,80,0
1,38,90,224
1,60,101,0
1,65,109,0
1,67,55,0
1,69,101,0
1,39,101,224
1,62,98,0
1,67,109,0
1,70,105,0
1,36,80,208
1,58,81,0
1,63,80,0
1,67,81,0
1,36,83,32
1,58,96,0
1,63,87,0
1,67,87,0
1,36,87,32
1,58,98,0
1,63,78,0
1,67,76,0
1,36,90,48
1,58,101,0
1,63,83,0
1,67,90,0
1,36,101,448
1,58,113,0
1,63,90,0
1,67,87,0
1,36,93,256
1,58,98,0
1,63,90,0
1,67,87,0
1,39,101,256
1,62,109,0
1,67,109,0
1,70,101,0
1,38,109,240
1,60,105,0
1,65,113,0
1,69,109,0
1,36,90,144
1,58,87,0
1,63,76,0
1,67,81,0
1,36,83,48
1,58,96,0
1,63,85,0
1,67,80,0
1,36,80,48
1,58,90,0
1,63,98,0
1,67,80,0
1,36,93,48
1,58,96,0
1,63,101,0
1,67,105,0
1,36,98,432
1,58,101,0
1,63,90,0
1,67,96,0
1,36,98,224
1,58,101,0
1,63,96,0
1,66,60,0
1,67,96,0
1,38,90,224
1,60,98,0
1,65,96,0
1,67,69,0
1,69,90,0
1,39,98,240
1,62,96,0
1,67,105,0
1,70,105,0
1,36,113,240
1,62,109,0
1,67,105,0
1,70,109,0
1,34,113,16
1,60,101,0
1,65,117,0
1,67,82,0
1,69,109,0
1,32,105,64
1,58,121,0
1,63,98,0
1,67,98,0
1,31,93,64
1,57,105,0
1,62,113,0
1,65,105,0
1,36,82,208
1,58,96,0
1,63,81,0
1,67,87,0
1,36,90,48
1,58,80,0
1,63,77,0
1,67,78,0
1,36,96,64
1,58,96,0
1,63,82,0
1,67,82,0
1,36,117,48
1,58,98,0
1,63,90,0
1,67,98,0
1,36,109,448
1,58,105,0
1,63,93,0
1,67,90,0
1,36,98,240
1,58,105,0
1,63,90,0
1,67,90,0
1,38,96,240
1,60,98,0
1,65,96,0
1,69,90,0
1,39,105,224
1,62,105,0
1,67,105,0
1,70,101,0
1,36,78,176
1,58,85,0
1,63,75,0
1,67,83,0
1,36,78,32
1,58,90,0
1,63,78,0
1,67,85,0
1,36,87,32
1,58,81,0
1,63,78,0
1,67,96,0
1,36,101,48
1,58,98,0
1,63,87,0
1,67,93,0
1,36,98,432
1,58,98,0
1,63,93,0
1,67,87,0
1,36,96,240
1,58,105,0
1,63,90,0
1,67,93,0
1,39,96,240
1,62,96,0
1,67,90,0
1,70,90,0
1,38,101,224
1,60,105,0
1,65,109,0
1,69,101,0
1,36,82,160
1,58,78,0
1,63,77,0
1,67,78,0
1,36,87,32
1,58,93,0
1,63,82,0
1,67,81,0
1,36,93,32
1,58,78,0
1,63,75,0
1,67,81,0
1,36,105,48
1,58,105,0
1,63,82,0
1,67,85,0
1,36,101,432
1,58,105,0
1,63,90,0
1,67,93,0
1,36,98,240
1,58,98,0
1,63,93,0
1,67,93,0
1,38,82,208
1,60,93,0
1,65,87,0
1,67,65,0
1,69,85,0
1,39,98,224
1,62,101,0
1,67,98,0
1,70,98,0
1,36,109,208
1,62,105,0
1,67,113,0
1,70,105,0
1,38,109,64
1,60,101,0
1,65,109,0
1,69,109,0
1,39,90,16
1,58,125,0
1,63,96,0
1,67,90,0
1,41,109,224
1,57,98,0
1,62,117,0
1,65,109,0
1,31,107,368
1,34,91,16
1,36,107,16
1,55,114,208
1,60,109,0
1,63,105,0
1,53,122,32
1,58,102,0
1,62,111,0
1,55,109,240
1,60,102,0
1,63,101,0
1,31,96,32
1,53,125,0
1,58,105,0
1,62,107,0
1,36,104,192
1,34,104,32
1,53,109,80
1,58,117,0
1,63,117,0
1,53,107,48
1,58,105,0
1,62,109,0
1,53,105,240
1,58,111,0
1,63,107,0
1,31,96,16
1,53,114,0
1,58,111,0
1,62,114,0
1,34,109,192
1,36,104,0
1,55,120,80
1,60,109,0
1,63,100,0
1,53,120,32
1,58,102,0
1,62,109,0
1,55,111,240
1,60,106,0
1,63,102,0
1,31,93,0
1,53,122,0
1,58,106,0
1,62,111,0
1,36,104,192
1,34,101,16
1,53,114,64
1,58,114,0
1,63,104,0
1,53,104,48
1,58,104,0
1,62,109,0
1,53,106,240
1,58,109,0
1,63,104,0
1,34,109,48
1,53,120,0
1,58,100,0
1,62,117,0
1,36,93,48
1,32,93,32
1,56,125,96
1,60,114,0
1,63,100,0
1,56,111,32
1,58,99,0
1,62,107,0
1,56,127,240
1,60,114,0
1,63,101,0
1,32,92,32
1,56,120,0
1,58,102,0
1,62,109,0
1,36,91,32
1,34,112,16
1,53,109,96
1,58,104,0
1,63,106,0
1,53,111,32
1,58,107,0
1,62,109,0
1,53,107,240
1,58,111,0
1,63,104,0
1,31,104,16
1,53,114,0
1,58,111,0
1,62,114,0
1,34,101,192
1,36,98,32
1,55,114,192
1,60,111,0
1,63,102,0
1,53,107,48
1,58,102,0
1,62,106,0
1,55,111,240
1,60,107,0
1,63,102,0
1,31,104,0
1,53,125,0
1,58,102,0
1,62,107,0
1,36,104,192
1,34,109,32
1,53,106,112
1,58,106,0
1,63,104,0
1,53,107,32
1,58,95,0
1,62,111,0
1,53,107,240
1,58,111,0
1,63,101,0
1,31,89,0
1,53,117,0
1,58,111,0
1,62,111,0
1,34,98,192
1,36,94,0
1,55,114,224
1,60,109,0
1,63,105,0
1,53,122,32
1,58,102,0
1,62,111,0
1,55,109,240
1,60,102,0
1,63,101,0
1,31,96,32
1,53,125,0
1,58,105,0
1,62,107,0
1,36,104,192
1,34,104,32
1,53,109,80
1,58,117,0
1,63,117,0
1,53,107,48
1,58,105,0
1,62,109,0
1,53,105,240
1,58,111,0
1,63,107,0
1,31,96,16
1,53,114,0
1,58,111,0
1,62,114,0
1,34,109,192
1,36,104,0
1,55,120,80
1,60,109,0
1,63,100,0
1,53,120,32
1,58,102,0
1,62,109,0
1,55,111,240
1,60,106,0
1,63,102,0
1,31,93,0
1,53,122,0
1,58,106,0
1,62,111,0
1,36,104,192
1,34,101,16
1,53,114,64
1,58,114,0
1,63,104,0
1,53,104,48
1,58,104,0
1,62,109,0
1,53,106,240
1,58,109,0
1,63,104,0
1,34,109,48
1,53,120,0
1,58,100,0
1,62,117,0
1,36,93,48
1,32,93,32
1,56,125,96
1,60,114,0
1,63,100,0
1,56,111,32
1,58,99,0
1,62,107,0
1,56,127,240
1,60,114,0
1,63,101,0
1,32,92,32
1,56,120,0
1,58,102,0
1,62,109,0
1,36,91,32
1,34,112,16
1,53,109,96
1,58,104,0
1,63,106,0
1,53,111,32
1,58,107,0
1,62,109,0
1,53,107,240
1,58,111,0
1,63,104,0
1,31,104,16
1,53,114,0
1,58,111,0
1,62,114,0
1,34,101,192
1,36,98,32
1,55,114,192
1,60,111,0
1,63,102,0
1,53,107,48
1,58,102,0
1,62,106,0
1,55,111,240
1,60,107,0
1,63,102,0
1,31,104,0
1,53,125,0
1,58,102,0
