track,note,velocity,time
1,34,127,305
1,34,0,30
1,34,127,90
1,34,0,30
1,34,127,90
1,34,0,30
1,34,127,90
1,34,0,30
1,34,127,90
1,34,0,30
1,34,127,90
1,34,0,30
1,34,127,210
1,34,0,30
1,34,127,90
1,34,0,30
1,34,127,90
1,34,0,30
1,34,127,90
1,34,0,30
1,34,127,90
1,34,0,30
1,34,127,90
1,34,0,30
1,34,127,90
1,34,0,30
1,34,127,90
1,34,0,30
1,34,127,90
1,34,0,30
1,34,127,90
1,34,0,30
1,34,127,90
1,34,0,30
1,34,127,90
1,34,0,30
1,34,127,90
1,34,0,30
1,34,127,90
1,34,0,30
1,34,127,90
1,34,0,30
1,34,127,90
1,34,0,30
1,34,127,90
1,34,0,30
1,34,127,90
1,34,0,30
1,34,127,90
1,34,0,30
1,34,127,90
1,34,0,30
1,34,127,90
1,34,0,30
1,34,127,90
1,34,0,30
1,34,127,90
1,34,0,30
1,34,127,90
1,34,0,30
1,34,127,90
1,34,0,30
1,34,127,90
1,34,0,30
1,34,127,90
1,34,0,30
1,34,127,90
1,34,0,30
1,34,127,90
1,34,0,30
1,34,127,90
1,34,0,30
1,34,127,90
1,34,0,30
1,34,127,90
1,34,0,30
1,34,127,90
1,34,0,30
1,34,127,90
1,34,0,30
1,34,127,90
1,34,0,30
1,34,127,90
1,34,0,30
1,34,127,90
1,34,0,30
1,34,127,90
1,34,0,30
1,34,127,90
1,34,0,30
1,34,127,90
1,34,0,30
1,34,127,90
1,34,0,30
1,34,127,90
1,34,0,30
1,34,127,90
1,34,0,30
1,34,127,90
1,34,0,30
1,34,127,90
1,34,0,30
1,34,127,90
1,34,0,30
1,34,127,90
1,34,0,30
1,34,127,90
1,34,0,30
1,34,127,90
1,34,0,30
1,34,127,90
1,34,0,30
1,34,127,90
1,34,0,30
1,34,127,90
1,34,0,30
1,34,127,90
1,34,0,30
1,34,127,90
1,34,0,30
1,34,127,90
1,34,0,30
1,34,127,90
1,34,0,30
1,34,127,90
1,34,0,30
1,34,127,90
1,34,0,60
1,34,127,60
1,34,0,60
1,34,127,60
1,34,0,60
1,34,127,60
1,34,0,60
1,34,127,60
1,34,0,60
1,34,127,60
1,34,0,60
1,34,127,60
1,34,0,60
1,34,127,60
1,34,0,60
1,34,127,60
1,34,0,60
1,34,127,60
1,34,0,60
1,34,127,60
1,34,0,60
1,34,127,60
1,34,0,60
1,34,127,60
1,34,0,60
1,34,127,60
1,34,0,60
1,34,127,60
1,34,0,60
1,34,127,60
1,34,0,60
1,29,127,60
1,29,0,60
1,29,127,60
1,29,0,60
1,29,127,60
1,29,0,60
1,29,127,60
1,29,0,60
1,29,127,60
1,29,0,60
1,29,127,60
1,29,0,60
1,29,127,60
1,29,0,60
1,29,127,60
1,29,0,60
1,29,127,60
1,29,0,60
1,29,127,60
1,29,0,60
1,29,127,60
1,29,0,60
1,29,127,60
1,29,0,60
1,29,127,60
1,29,0,60
1,29,127,60
1,29,0,60
1,29,127,60
1,29,0,60
1,29,127,60
1,29,0,60
1,32,127,60
1,32,0,60
1,32,127,60
1,32,0,60
1,32,127,60
1,32,0,60
1,32,127,60
1,32,0,60
1,32,127,60
1,32,0,60
1,32,127,60
1,32,0,60
1,32,127,60
1,32,0,60
1,32,127,60
1,32,0,60
1,32,127,60
1,32,0,60
1,32,127,60
1,32,0,60
1,32,127,60
1,32,0,60
1,32,127,60
1,32,0,60
1,32,127,60
1,32,0,60
1,32,127,60
1,32,0,60
1,32,127,60
1,32,0,60
1,32,127,60
1,32,0,60
1,27,127,60
1,27,0,60
1,27,127,60
1,27,0,90
1,27,127,30
1,27,0,60
1,27,127,60
1,27,0,60
1,27,127,60
1,27,0,60
1,27,127,60
1,27,0,60
1,27,127,60
1,27,0,60
1,27,127,60
1,27,0,60
1,27,127,60
1,27,0,60
1,27,127,60
1,27,0,60
1,27,127,60
1,27,0,60
1,27,127,60
1,27,0,60
1,27,127,60
1,27,0,60
1,27,127,60
1,27,0,60
1,27,127,60
1,27,0,60
1,27,127,60
1,27,0,60
1,34,127,60
1,34,0,60
1,34,127,60
1,34,0,60
1,34,127,60
1,34,0,60
1,34,127,60
1,34,0,60
1,34,127,60
1,34,0,60
1,34,127,60
1,34,0,60
1,34,127,60
1,34,0,60
1,34,127,60
1,34,0,60
1,34,127,60
1,34,0,60
1,34,127,60
1,34,0,60
1,34,127,60
1,34,0,60
1,34,127,60
1,34,0,60
1,34,127,60
1,34,0,60
1,34,127,60
1,34,0,60
1,34,127,60
1,34,0,60
1,34,127,60
1,34,0,60
1,29,127,60
1,29,0,60
1,29,127,60
1,29,0,60
1,29,127,60
1,29,0,60
1,29,127,60
1,29,0,60
1,29,127,60
1,29,0,60
1,29,127,60
1,29,0,60
1,29,127,60
1,29,0,60
1,29,127,60
1,29,0,60
1,29,127,60
1,29,0,60
1,29,127,60
1,29,0,60
1,29,127,60
1,29,0,60
1,29,127,60
1,29,0,60
1,29,127,60
1,29,0,60
1,29,127,60
1,29,0,60
1,29,127,60
1,29,0,60
1,29,127,60
1,29,0,60
1,32,127,60
1,32,0,60
1,32,127,60
1,32,0,60
1,32,127,60
1,32,0,60
1,32,127,60
1,32,0,60
1,32,127,60
1,32,0,60
1,32,127,60
1,32,0,60
1,32,127,60
1,32,0,60
1,32,127,60
1,32,0,60
1,32,127,60
1,32,0,60
1,32,127,60
1,32,0,60
1,32,127,60
1,32,0,60
1,32,127,60
1,32,0,60
1,32,127,60
1,32,0,60
1,32,127,60
1,32,0,60
1,32,127,60
1,32,0,60
1,32,127,60
1,32,0,60
1,27,127,60
1,27,0,60
1,27,127,60
1,27,0,90
1,27,127,30
1,27,0,60
1,27,127,60
1,27,0,60
1,27,127,60
1,27,0,60
1,27,127,60
1,27,0,60
1,27,127,60
1,27,0,60
1,27,127,60
1,27,0,60
1,27,127,60
1,27,0,60
1,27,127,60
1,27,0,60
1,27,127,60
1,27,0,60
1,27,127,60
1,27,0,60
1,27,127,60
1,27,0,60
1,27,127,60
1,27,0,60
1,27,127,60
1,27,0,60
1,27,127,60
1,27,0,60
1,34,127,60
1,34,0,60
1,34,127,60
1,34,0,60
1,34,127,60
1,34,0,60
1,34,127,60
1,34,0,60
1,34,127,60
1,34,0,60
1,34,127,60
1,34,0,60
1,34,127,60
1,34,0,60
1,34,127,60
1,34,0,60
1,34,127,60
1,34,0,60
1,34,127,60
1,34,0,60
1,34,127,60
1,34,0,60
1,34,127,60
1,34,0,60
1,34,127,60
1,34,0,60
1,34,127,60
1,34,0,60
1,34,127,60
1,34,0,60
1,34,127,60
1,34,0,60
1,29,127,60
1,29,0,60
1,29,127,60
1,29,0,60
1,29,127,60
1,29,0,60
1,29,127,60
1,29,0,60
1,29,127,60
1,29,0,60
1,29,127,60
1,29,0,60
1,29,127,60
1,29,0,60
1,29,127,60
1,29,0,60
1,29,127,60
1,29,0,60
1,29,127,60
1,29,0,60
1,29,127,60
1,29,0,60
1,29,127,60
1,29,0,60
1,29,127,60
1,29,0,60
1,29,127,60
1,29,0,60
1,29,127,60
1,29,0,60
1,29,127,60
1,29,0,60
1,32,127,60
1,32,0,60
1,32,127,60
1,32,0,60
1,32,127,60
1,32,0,60
1,32,127,60
1,32,0,60
1,32,127,60
1,32,0,60
1,32,127,60
1,32,0,60
1,32,127,60
1,32,0,60
1,32,127,60
1,32,0,60
1,32,127,60
1,32,0,60
1,32,127,60
1,32,0,60
1,32,127,60
1,32,0,60
1,32,127,60
1,32,0,60
1,32,127,60
1,32,0,60
1,32,127,60
1,32,0,60
1,32,127,60
1,32,0,60
1,32,127,60
1,32,0,60
1,34,127,60
1,34,0,60
1,34,127,60
1,34,0,60
1,34,127,60
1,34,0,60
1,34,127,60
1,34,0,60
1,34,127,60
1,34,0,60
1,34,127,60
1,34,0,60
1,34,127,60
1,34,0,60
1,34,127,60
1,34,0,60
1,34,127,60
1,34,0,60
1,34,127,60
1,34,0,60
1,34,127,60
1,34,0,60
1,34,127,60
1,34,0,60
1,34,127,60
1,34,0,60
1,34,127,60
1,34,0,60
1,34,127,60
1,34,0,60
1,34,127,60
1,34,0,60
1,34,127,60
1,34,0,60
1,34,127,60
1,34,0,60
1,34,127,60
1,34,0,60
1,34,127,60
1,34,0,60
1,34,127,60
1,34,0,60
1,34,127,60
1,34,0,60
1,34,127,60
1,34,0,60
1,34,127,60
1,34,0,60
1,34,127,60
1,34,0,60
1,34,127,60
1,34,0,60
1,34,127,60
1,34,0,60
1,34,127,60
1,34,0,60
1,34,127,60
1,34,0,60
1,34,127,60
1,34,0,60
1,34,127,60
1,34,0,60
1,34,127,60
1,34,0,60
1,29,127,60
1,29,0,60
1,29,127,60
1,29,0,60
1,29,127,60
1,29,0,60
1,29,127,60
1,29,0,60
1,29,127,60
1,29,0,60
1,29,127,60
1,29,0,60
1,29,127,60
1,29,0,60
1,29,127,60
1,29,0,60
1,29,127,60
1,29,0,60
1,29,127,60
1,29,0,60
1,29,127,60
1,29,0,60
1,29,127,60
1,29,0,60
1,29,127,60
1,29,0,60
1,29,127,60
1,29,0,60
1,29,127,60
1,29,0,60
1,29,127,60
1,29,0,60
1,32,127,60
1,32,0,60
1,32,127,60
1,32,0,60
1,32,127,60
1,32,0,60
1,32,127,60
1,32,0,60
1,32,127,60
1,32,0,60
1,32,127,60
1,32,0,60
1,32,127,60
1,32,0,60
1,32,127,60
1,32,0,60
1,32,127,60
1,32,0,60
1,32,127,60
1,32,0,60
1,32,127,60
1,32,0,60
1,32,127,60
1,32,0,60
1,32,127,60
1,32,0,60
1,32,127,60
1,32,0,60
1,32,127,60
1,32,0,60
1,32,127,60
1,32,0,60
1,34,127,60
1,34,0,60
1,34,127,60
1,34,0,60
1,34,127,60
1,34,0,60
1,34,127,60
1,34,0,60
1,34,127,60
1,34,0,60
1,34,127,60
1,34,0,60
1,34,127,60
1,34,0,60
1,34,127,60
1,34,0,60
1,34,127,60
1,34,0,60
1,34,127,60
1,34,0,60
1,34,127,60
1,34,0,60
1,34,127,60
1,34,0,60
1,34,127,60
1,34,0,60
1,34,127,60
1,34,0,60
1,34,127,60
1,34,0,60
1,34,127,60
1,34,0,60
1,34,127,7740
1,34,0,60
1,34,127,60
1,34,0,60
1,34,127,60
1,34,0,60
1,34,127,60
1,34,0,60
1,34,127,60
1,34,0,60
1,34,127,60
1,34,0,60
1,34,127,60
1,34,0,60
1,34,127,60
1,34,0,60
1,34,127,60
1,34,0,60
1,34,127,60
1,34,0,60
1,34,127,60
1,34,0,60
1,34,127,60
1,34,0,60
1,34,127,60
1,34,0,60
1,34,127,60
1,34,0,60
1,34,127,60
1,34,0,60
1,34,127,60
1,34,0,60
1,29,127,60
1,29,0,60
1,29,127,60
1,29,0,60
1,29,127,60
1,29,0,60
1,29,127,60
1,29,0,60
1,29,127,60
1,29,0,60
1,29,127,60
1,29,0,60
1,29,127,60
1,29,0,60
1,29,127,60
1,29,0,60
1,29,127,60
1,29,0,60
1,29,127,60
1,29,0,60
1,29,127,60
1,29,0,60
1,29,127,60
1,29,0,60
1,29,127,60
1,29,0,60
1,29,127,60
1,29,0,60
1,29,127,60
1,29,0,60
1,29,127,60
1,29,0,60
1,32,127,60
1,32,0,60
1,32,127,60
1,32,0,60
1,32,127,60
1,32,0,60
1,32,127,60
1,32,0,60
1,32,127,60
1,32,0,60
1,32,127,60
1,32,0,60
1,32,127,60
1,32,0,60
1,32,127,60
1,32,0,60
1,32,127,60
1,32,0,60
1,32,127,60
1,32,0,60
1,32,127,60
1,32,0,60
1,32,127,60
1,32,0,60
1,32,127,60
1,32,0,60
1,32,127,60
1,32,0,60
1,32,127,60
1,32,0,60
1,32,127,60
1,32,0,60
1,27,127,60
1,27,0,60
1,27,127,60
1,27,0,60
1,27,127,60
1,27,0,60
1,27,127,60
1,27,0,60
1,27,127,60
1,27,0,60
1,27,127,60
1,27,0,60
1,27,127,60
1,27,0,60
1,27,127,60
1,27,0,60
1,27,127,60
1,27,0,60
1,27,127,60
1,27,0,60
1,27,127,60
1,27,0,60
1,27,127,60
1,27,0,60
1,27,127,60
1,27,0,60
1,27,127,60
1,27,0,60
1,27,127,60
1,27,0,60
1,27,127,60
1,27,0,60
1,34,127,60
1,34,0,60
1,34,127,60
1,34,0,60
1,34,127,60
1,34,0,60
1,34,127,60
1,34,0,60
1,34,127,60
1,34,0,60
1,34,127,60
1,34,0,60
1,34,127,60
1,34,0,60
1,34,127,60
1,34,0,60
1,34,127,60
1,34,0,60
1,34,127,60
1,34,0,60
1,34,127,60
1,34,0,60
1,34,127,60
1,34,0,60
1,34,127,60
1,34,0,60
1,34,127,60
1,34,0,60
1,34,127,60
1,34,0,60
1,34,127,60
1,34,0,60
1,29,127,60
1,29,0,60
1,29,127,60
1,29,0,60
1,29,127,60
1,29,0,60
1,29,127,60
1,29,0,60
1,29,127,60
1,29,0,60
1,29,127,60
1,29,0,60
1,29,127,60
1,29,0,60
1,29,127,60
1,29,0,60
1,29,127,60
1,29,0,60
1,29,127,60
1,29,0,60
1,29,127,60
1,29,0,60
1,29,127,60
1,29,0,60
1,29,127,60
1,29,0,60
1,29,127,60
1,29,0,60
1,29,127,60
1,29,0,60
1,29,127,60
1,29,0,60
1,32,127,60
1,32,0,60
1,32,127,60
1,32,0,60
1,32,127,60
1,32,0,60
1,32,127,60
1,32,0,60
1,32,127,60
1,32,0,60
1,32,127,60
1,32,0,60
1,32,127,60
1,32,0,60
1,32,127,60
1,32,0,60
1,32,127,60
1,32,0,60
1,32,127,60
1,32,0,60
1,32,127,60
1,32,0,60
1,32,127,60
1,32,0,60
1,32,127,60
1,32,0,60
1,32,127,60
1,32,0,60
1,32,127,60
1,32,0,60
1,32,127,60
1,32,0,60
1,27,127,60
1,27,0,60
1,27,127,60
1,27,0,60
1,27,127,60
1,27,0,60
1,27,127,60
1,27,0,60
1,27,127,60
1,27,0,60
1,27,127,60
1,27,0,60
1,27,127,60
1,27,0,60
1,27,127,60
1,27,0,60
1,27,127,60
1,27,0,60
1,27,127,60
1,27,0,60
1,27,127,60
1,27,0,60
1,27,127,60
1,27,0,60
1,27,127,60
1,27,0,60
1,27,127,60
1,27,0,60
1,27,127,60
1,27,0,60
1,27,127,60
1,27,0,60
1,34,127,60
1,34,0,60
1,34,127,60
1,34,0,60
1,34,127,60
1,34,0,60
1,34,127,60
1,34,0,60
1,34,127,60
1,34,0,60
1,34,127,60
1,34,0,60
1,34,127,60
1,34,0,60
1,34,127,60
1,34,0,60
1,34,127,60
1,34,0,60
1,34,127,60
1,34,0,60
1,34,127,60
1,34,0,60
1,34,127,60
1,34,0,60
1,34,127,60
1,34,0,60
1,34,127,60
1,34,0,60
1,34,127,60
1,34,0,60
1,34,127,60
1,34,0,60
1,29,127,60
1,29,0,60
1,29,127,60
1,29,0,60
1,29,127,60
1,29,0,60
1,29,127,60
1,29,0,60
1,29,127,60
1,29,0,60
1,29,127,60
1,29,0,60
1,29,127,60
1,29,0,60
1,29,127,60
1,29,0,60
1,29,127,60
1,29,0,60
1,29,127,60
1,29,0,60
1,29,127,60
1,29,0,60
1,29,127,60
1,29,0,60
1,29,127,60
1,29,0,60
1,29,127,60
1,29,0,60
1,29,127,60
1,29,0,60
1,29,127,60
1,29,0,60
1,32,127,60
1,32,0,60
1,32,127,60
1,32,0,60
1,32,127,60
1,32,0,60
1,32,127,60
1,32,0,60
1,32,127,60
1,32,0,60
1,32,127,60
1,32,0,60
1,32,127,60
1,32,0,60
1,32,127,60
1,32,0,60
1,32,127,60
1,32,0,60
1,32,127,60
1,32,0,60
1,32,127,60
1,32,0,60
1,32,127,60
1,32,0,60
1,32,127,60
1,32,0,60
1,32,127,60
1,32,0,60
1,32,127,60
1,32,0,60
1,32,127,60
1,32,0,60
1,34,127,60
1,34,0,60
1,34,127,60
1,34,0,60
1,34,127,60
1,34,0,60
1,34,127,60
1,34,0,60
1,34,125,60
1,34,0,60
