track,note,velocity,time
0,71,100,1536
0,76,100,0
0,71,100,0
0,64,100,0
0,59,100,0
0,52,100,0
0,71,100,0
0,76,100,0
0,71,100,0
0,64,100,0
0,59,100,0
0,52,100,0
0,40,100,0
0,28,100,0
0,28,100,0
0,52,0,128
0,76,0,0
0,71,0,0
0,71,0,0
0,59,0,0
0,64,0,0
0,52,0,0
0,76,0,0
0,71,0,0
0,71,0,0
0,59,0,0
0,64,0,0
0,40,0,0
0,28,0,0
0,28,0,0
0,71,100,160
0,76,100,0
0,71,100,0
0,64,100,0
0,59,100,0
0,52,100,0
0,71,100,0
0,76,100,0
0,71,100,0
0,64,100,0
0,59,100,0
0,52,100,0
0,40,100,0
0,28,100,0
0,28,100,0
0,52,0,192
0,76,0,0
0,71,0,0
0,71,0,0
0,59,0,0
0,64,0,0
0,52,0,0
0,76,0,0
0,71,0,0
0,71,0,0
0,59,0,0
0,64,0,0
0,40,0,0
0,28,0,0
0,28,0,0
0,71,100,288
0,76,100,0
0,71,100,0
0,64,100,0
0,59,100,0
0,52,100,0
0,71,100,0
0,76,100,0
0,71,100,0
0,64,100,0
0,59,100,0
0,52,100,0
0,40,100,0
0,28,100,0
0,28,100,0
0,52,0,128
0,76,0,0
0,71,0,0
0,71,0,0
0,59,0,0
0,64,0,0
0,52,0,0
0,76,0,0
0,71,0,0
0,71,0,0
0,59,0,0
0,64,0,0
0,40,0,0
0,28,0,0
0,28,0,0
0,71,100,160
0,76,100,0
0,71,100,0
0,64,100,0
0,59,100,0
0,52,100,0
0,71,100,0
0,76,100,0
0,71,100,0
0,64,100,0
0,59,100,0
0,52,100,0
0,40,100,0
0,28,100,0
0,28,100,0
0,52,0,192
0,76,0,0
0,71,0,0
0,71,0,0
0,59,0,0
0,64,0,0
0,52,0,0
0,76,0,0
0,71,0,0
0,71,0,0
0,59,0,0
0,64,0,0
0,40,0,0
0,28,0,0
0,28,0,0
0,71,100,288
0,76,100,0
0,71,100,0
0,64,100,0
0,59,100,0
0,52,100,0
0,71,100,0
0,76,100,0
0,71,100,0
0,64,100,0
0,59,100,0
0,52,100,0
0,40,100,0
0,28,100,0
0,28,100,0
0,52,0,128
0,76,0,0
0,71,0,0
0,71,0,0
0,59,0,0
0,64,0,0
0,52,0,0
0,76,0,0
0,71,0,0
0,71,0,0
0,59,0,0
0,64,0,0
0,40,0,0
0,28,0,0
0,28,0,0
0,71,100,160
0,76,100,0
0,71,100,0
0,64,100,0
0,59,100,0
0,52,100,0
0,71,100,0
0,76,100,0
0,71,100,0
0,64,100,0
0,59,100,0
0,52,100,0
0,40,100,0
0,28,100,0
0,28,100,0
0,52,0,192
0,76,0,0
0,71,0,0
0,71,0,0
0,59,0,0
0,64,0,0
0,52,0,0
0,76,0,0
0,71,0,0
0,71,0,0
0,59,0,0
0,64,0,0
0,40,0,0
0,28,0,0
0,28,0,0
0,71,100,288
0,76,100,0
0,71,100,0
0,64,100,0
0,59,100,0
0,52,100,0
0,71,100,0
0,76,100,0
0,71,100,0
0,64,100,0
0,59,100,0
0,52,100,0
0,40,100,0
0,28,100,0
0,28,100,0
0,52,0,128
0,76,0,0
0,71,0,0
0,71,0,0
0,59,0,0
0,64,0,0
0,52,0,0
0,76,0,0
0,71,0,0
0,71,0,0
0,59,0,0
0,64,0,0
0,40,0,0
0,28,0,0
0,28,0,0
0,71,100,160
0,76,100,0
0,71,100,0
0,64,100,0
0,59,100,0
0,52,100,0
0,71,100,0
0,76,100,0
0,71,100,0
0,64,100,0
0,59,100,0
0,52,100,0
0,52,100,0
0,40,100,0
0,40,100,0
0,52,0,192
0,76,0,0
0,71,0,0
0,71,0,0
0,59,0,0
0,64,0,0
0,52,0,0
0,76,0,0
0,71,0,0
0,71,0,0
0,59,0,0
0,64,0,0
0,52,0,128
0,40,0,0
0,40,0,0
0,62,100,160
0,62,0,64
0,64,100,32
0,64,0,128
0,67,100,64
0,67,0,320
0,62,100,160
0,62,0,64
0,64,100,32
0,64,0,128
0,55,100,64
0,55,0,256
0,57,100,128
0,57,0,64
0,58,100,32
0,58,0,64
0,62,100,32
0,62,0,64
0,58,100,32
0,58,0,64
0,58,100,32
0,58,0,64
0,57,100,32
0,57,0,64
0,57,100,32
0,57,0,64
0,55,100,32
0,55,0,64
0,52,100,32
0,52,0,64
0,71,100,32
0,76,100,0
0,71,100,0
0,64,100,0
0,59,100,0
0,52,100,0
0,71,100,0
0,76,100,0
0,71,100,0
0,64,100,0
0,59,100,0
0,52,100,0
0,40,100,0
0,28,100,0
0,28,100,0
0,52,0,128
0,76,0,0
0,71,0,0
0,71,0,0
0,59,0,0
0,64,0,0
0,52,0,0
0,76,0,0
0,71,0,0
0,71,0,0
0,59,0,0
0,64,0,0
0,40,0,0
0,28,0,0
0,28,0,0
0,71,100,160
0,76,100,0
0,71,100,0
0,64,100,0
0,59,100,0
0,52,100,0
0,71,100,0
0,76,100,0
0,71,100,0
0,64,100,0
0,59,100,0
0,52,100,0
0,40,100,0
0,28,100,0
0,28,100,0
0,52,0,192
0,76,0,0
0,71,0,0
0,71,0,0
0,59,0,0
0,64,0,0
0,52,0,0
0,76,0,0
0,71,0,0
0,71,0,0
0,59,0,0
0,64,0,0
0,40,0,0
0,28,0,0
0,28,0,0
0,62,100,288
0,62,0,64
0,64,100,32
0,64,0,128
0,67,100,64
0,67,0,320
0,62,100,160
0,62,0,64
0,64,100,32
0,64,0,128
0,55,100,64
0,55,0,256
0,57,100,128
0,45,100,0
0,33,100,0
0,33,100,0
0,57,0,64
0,45,0,0
0,33,0,0
0,33,0,0
0,58,100,32
0,46,100,0
0,34,100,0
0,34,100,0
0,58,0,64
0,62,100,32
0,50,100,0
0,38,100,0
0,38,100,0
0,46,0,32
0,34,0,0
0,34,0,0
0,62,0,32
0,50,0,0
0,38,0,0
0,38,0,0
0,58,100,32
0,46,100,0
0,34,100,0
0,34,100,0
0,58,0,64
0,46,0,0
0,34,0,0
0,34,0,0
0,58,100,32
0,58,0,64
0,57,100,32
0,45,100,0
0,33,100,0
0,33,100,0
0,57,0,64
0,57,100,32
0,45,0,32
0,33,0,0
0,33,0,0
0,57,0,32
0,55,100,32
0,43,100,0
0,31,100,0
0,31,100,0
0,55,0,64
0,43,0,0
0,31,0,0
0,31,0,0
0,52,100,32
0,43,100,0
0,31,100,0
0,31,100,0
0,52,0,64
0,43,0,0
0,31,0,0
0,31,0,0
0,71,100,32
0,76,100,0
0,71,100,0
0,64,100,0
0,59,100,0
0,52,100,0
0,71,100,0
0,76,100,0
0,71,100,0
0,64,100,0
0,59,100,0
0,52,100,0
0,40,100,0
0,28,100,0
0,28,100,0
0,52,0,128
0,76,0,0
0,71,0,0
0,71,0,0
0,59,0,0
0,64,0,0
0,52,0,0
0,76,0,0
0,71,0,0
0,71,0,0
0,59,0,0
0,64,0,0
0,40,0,0
0,28,0,0
0,28,0,0
0,71,100,160
0,76,100,0
0,71,100,0
0,64,100,0
0,59,100,0
0,52,100,0
0,71,100,0
0,76,100,0
0,71,100,0
0,64,100,0
0,59,100,0
0,52,100,0
0,40,100,0
0,28,100,0
0,28,100,0
0,52,0,192
0,76,0,0
0,71,0,0
0,71,0,0
0,59,0,0
0,64,0,0
0,52,0,0
0,76,0,0
0,71,0,0
0,71,0,0
0,59,0,0
0,64,0,0
0,40,0,0
0,28,0,0
0,28,0,0
0,62,100,288
0,62,100,0
0,50,100,0
0,38,100,0
0,38,100,0
0,62,0,64
0,62,0,0
0,50,0,0
0,38,0,0
0,38,0,0
0,64,100,32
0,64,100,0
0,52,100,0
0,40,100,0
0,40,100,0
0,64,0,128
0,64,0,0
0,52,0,0
0,40,0,0
0,40,0,0
0,67,100,64
0,67,100,0
0,55,100,0
0,43,100,0
0,43,100,0
0,67,0,320
0,67,0,0
0,55,0,0
0,43,0,0
0,43,0,0
0,62,100,160
0,62,100,0
0,50,100,0
0,38,100,0
0,38,100,0
0,62,0,64
0,62,0,0
0,50,0,0
0,38,0,0
0,38,0,0
0,64,100,32
0,64,100,0
0,52,100,0
0,40,100,0
0,40,100,0
0,64,0,128
0,64,0,0
0,52,0,0
0,40,0,0
0,40,0,0
0,55,100,64
0,55,100,0
0,43,100,0
0,31,100,0
0,31,100,0
0,55,0,256
0,55,0,0
0,43,0,0
0,31,0,0
0,31,0,0
0,57,100,128
0,57,100,0
0,45,100,0
0,33,100,0
0,33,100,0
0,57,0,64
0,57,0,0
0,45,0,0
0,33,0,0
0,33,0,0
0,59,100,32
0,59,100,0
0,46,100,0
0,34,100,0
0,34,100,0
0,59,0,64
0,59,0,0
0,62,100,32
0,62,100,0
0,50,100,0
0,38,100,0
0,38,100,0
0,46,0,32
0,34,0,0
0,34,0,0
0,62,0,32
0,62,0,0
0,50,0,0
0,38,0,0
0,38,0,0
0,58,100,32
0,58,100,0
0,46,100,0
0,34,100,0
0,34,100,0
0,58,0,64
0,46,0,0
0,34,0,0
0,34,0,0
0,58,100,32
0,58,0,32
0,58,0,32
0,57,100,32
0,57,100,0
0,45,100,0
0,33,100,0
0,33,100,0
0,57,0,64
0,57,100,32
0,57,0,32
0,45,0,0
0,33,0,0
0,33,0,0
0,57,0,32
0,55,100,32
0,55,100,0
0,43,100,0
0,31,100,0
0,31,100,0
0,55,0,64
0,43,0,0
0,31,0,0
0,31,0,0
0,52,100,32
0,43,100,0
0,31,100,0
0,31,100,0
0,55,0,32
0,52,0,32
0,43,0,0
0,31,0,0
0,31,0,0
0,71,100,32
0,64,100,0
0,59,100,0
0,52,100,0
0,71,100,0
0,64,100,0
0,59,100,0
0,52,100,0
0,40,100,0
0,28,100,0
0,28,100,0
0,52,0,128
0,71,0,0
0,64,0,0
0,59,0,0
0,40,0,0
0,28,0,0
0,28,0,0
0,52,0,64
0,71,0,0
0,64,0,0
0,59,0,0
0,76,100,96
0,71,100,0
0,64,100,0
0,71,100,0
0,64,100,0
0,59,100,0
0,52,100,0
0,40,100,0
0,28,100,0
0,28,100,0
0,64,0,192
0,71,0,0
0,76,0,0
0,52,0,0
0,71,0,0
0,64,0,0
0,59,0,0
0,40,0,0
0,28,0,0
0,28,0,0
0,62,100,288
0,62,100,0
0,50,100,0
0,38,100,0
0,38,100,0
0,62,0,64
0,62,0,0
0,50,0,0
0,38,0,0
0,38,0,0
0,64,100,32
0,64,100,0
0,52,100,0
0,40,100,0
0,40,100,0
0,64,0,128
0,64,0,0
0,52,0,0
0,40,0,0
0,40,0,0
0,67,100,64
0,67,100,0
0,55,100,0
0,43,100,0
0,43,100,0
0,67,0,320
0,67,0,0
0,55,0,0
0,43,0,0
0,43,0,0
0,62,100,160
0,62,100,0
0,50,100,0
0,38,100,0
0,38,100,0
0,62,0,64
0,62,0,0
0,50,0,0
0,38,0,0
0,38,0,0
0,64,100,32
0,64,100,0
0,52,100,0
0,40,100,0
0,40,100,0
0,64,0,128
0,64,0,0
0,52,0,0
0,40,0,0
0,40,0,0
0,55,100,64
0,55,100,0
0,43,100,0
0,31,100,0
0,31,100,0
0,55,0,256
0,55,0,0
0,43,0,0
0,31,0,0
0,31,0,0
0,57,100,128
0,57,100,0
0,45,100,0
0,33,100,0
0,33,100,0
0,57,0,64
0,57,0,0
0,45,0,0
0,33,0,0
0,33,0,0
0,59,100,32
0,59,100,0
0,46,100,0
0,34,100,0
0,34,100,0
0,59,0,64
0,59,0,0
0,62,100,32
0,62,100,0
0,50,100,0
0,38,100,0
0,38,100,0
0,46,0,32
0,34,0,0
0,34,0,0
0,62,0,32
0,62,0,0
0,50,0,0
0,38,0,0
0,38,0,0
0,58,100,32
0,58,100,0
0,46,100,0
0,34,100,0
0,34,100,0
0,58,0,64
0,46,0,0
0,34,0,0
0,34,0,0
0,58,100,32
0,58,0,32
0,58,0,32
0,57,100,32
0,57,100,0
0,45,100,0
0,33,100,0
0,33,100,0
0,57,0,64
0,57,100,32
0,57,0,32
0,45,0,0
0,33,0,0
0,33,0,0
0,57,0,32
0,55,100,32
0,55,100,0
0,43,100,0
0,31,100,0
0,31,100,0
0,55,0,64
0,43,0,0
0,31,0,0
0,31,0,0
0,52,100,32
0,43,100,0
0,31,100,0
0,31,100,0
0,55,0,32
0,52,0,32
0,43,0,0
0,31,0,0
0,31,0,0
0,71,100,32
0,64,100,0
0,59,100,0
0,52,100,0
0,71,100,0
0,64,100,0
0,59,100,0
0,52,100,0
0,40,100,0
0,28,100,0
0,28,100,0
0,52,0,128
0,71,0,0
0,64,0,0
0,59,0,0
0,52,0,0
0,71,0,0
0,64,0,0
0,59,0,0
0,40,0,0
0,28,0,0
0,28,0,0
0,71,100,160
0,64,100,0
0,59,100,0
0,52,100,0
0,71,100,0
0,64,100,0
0,59,100,0
0,52,100,0
0,40,100,0
0,28,100,0
0,28,100,0
0,52,0,192
0,71,0,0
0,64,0,0
0,59,0,0
0,52,0,0
0,71,0,0
0,64,0,0
0,59,0,0
0,40,0,0
0,28,0,0
0,28,0,0
0,88,100,288
0,81,100,0
0,76,100,0
0,69,100,0
0,57,100,0
0,40,100,0
0,28,100,0
0,28,100,0
0,57,0,64
0,52,100,32
0,88,0,32
0,40,0,0
0,28,0,0
0,28,0,0
0,52,0,32
0,83,100,32
0,69,0,0
0,76,0,0
0,81,0,0
0,59,100,0
0,47,100,0
0,35,100,0
0,35,100,0
0,83,0,64
0,59,0,0
0,47,0,0
0,35,0,0
0,35,0,0
0,86,100,32
0,79,100,0
0,74,100,0
0,67,100,0
0,52,100,0
0,52,100,0
0,40,100,0
0,40,100,0
0,79,0,64
0,52,0,0
0,62,100,32
0,52,0,32
0,40,0,0
0,40,0,0
0,62,0,32
0,86,0,32
0,57,100,0
0,40,100,0
0,28,100,0
0,28,100,0
0,57,0,64
0,40,0,0
0,28,0,0
0,28,0,0
0,59,100,32
0,40,100,0
0,28,100,0
0,28,100,0
0,59,0,64
0,52,100,32
0,40,0,32
0,28,0,0
0,28,0,0
0,52,0,32
0,56,100,32
0,40,100,0
0,28,100,0
0,28,100,0
0,56,0,64
0,52,100,32
0,40,0,32
0,28,0,0
0,28,0,0
0,52,0,32
0,57,100,32
0,40,100,0
0,28,100,0
0,28,100,0
0,57,0,64
0,52,100,32
0,40,0,32
0,28,0,0
0,28,0,0
0,52,0,32
0,58,100,32
0,43,100,0
0,31,100,0
0,31,100,0
0,58,0,64
0,52,100,32
0,43,0,32
0,31,0,0
0,31,0,0
0,52,0,32
0,59,100,32
0,40,100,0
0,28,100,0
0,28,100,0
0,59,0,64
0,52,100,32
0,40,0,32
0,28,0,0
0,28,0,0
0,52,0,32
0,57,100,32
0,40,100,0
0,28,100,0
0,28,100,0
0,57,0,64
0,52,100,32
0,40,0,32
0,28,0,0
0,28,0,0
0,52,0,32
0,59,100,32
0,47,100,0
0,35,100,0
0,35,100,0
0,59,0,64
0,47,0,0
0,35,0,0
0,35,0,0
0,52,100,32
0,52,100,0
0,40,100,0
0,40,100,0
0,52,0,64
0,62,100,32
0,52,0,32
0,40,0,0
0,40,0,0
0,62,0,32
0,57,100,32
0,40,100,0
0,28,100,0
0,28,100,0
0,57,0,64
0,40,0,0
0,28,0,0
0,28,0,0
0,59,100,32
0,40,100,0
0,28,100,0
0,28,100,0
0,59,0,64
0,52,100,32
0,40,0,32
0,28,0,0
0,28,0,0
0,52,0,32
0,56,100,32
0,40,100,0
0,28,100,0
0,28,100,0
0,56,0,64
0,52,100,32
0,40,0,32
0,28,0,0
0,28,0,0
0,52,0,32
0,57,100,32
0,40,100,0
0,28,100,0
0,28,100,0
0,57,0,64
0,67,0,4
0,74,0,0
0,52,100,28
0,40,0,32
0,28,0,0
0,28,0,0
0,52,0,32
0,58,100,32
0,43,100,0
0,31,100,0
0,31,100,0
0,58,0,64
0,52,100,32
0,52,0,64
0,59,100,32
0,59,0,64
0,43,0,0
0,31,0,0
0,31,0,0
0,52,100,32
0,52,0,64
0,81,100,32
0,76,100,0
0,69,100,0
0,57,100,0
