track,note,velocity,time
1,45,124,381
1,64,114,0
1,69,114,0
1,72,114,0
1,72,0,192
1,69,0,0
1,64,0,0
1,72,114,0
1,64,114,0
1,69,114,0
1,69,0,192
1,64,0,0
1,72,0,0
1,72,114,0
1,69,114,0
1,64,114,0
1,64,0,192
1,69,0,0
1,72,0,0
1,64,114,0
1,69,114,0
1,71,114,0
1,71,0,48
1,69,0,0
1,64,0,0
1,72,114,0
1,72,0,144
1,45,0,0
1,45,124,0
1,62,114,0
1,67,114,0
1,71,114,0
1,71,0,192
1,67,0,0
1,62,0,0
1,62,114,0
1,67,114,0
1,71,114,0
1,71,0,192
1,67,0,0
1,62,0,0
1,62,114,0
1,67,114,0
1,71,114,0
1,71,0,192
1,67,0,0
1,62,0,0
1,62,114,0
1,67,114,0
1,69,114,0
1,69,0,48
1,67,0,0
1,62,0,0
1,71,114,0
1,71,0,144
1,45,0,0
1,45,124,0
1,64,114,0
1,69,114,0
1,72,114,0
1,72,0,192
1,69,0,0
1,64,0,0
1,72,114,0
1,64,114,0
1,69,114,0
1,69,0,192
1,64,0,0
1,72,0,0
1,72,114,0
1,69,114,0
1,64,114,0
1,64,0,192
1,69,0,0
1,72,0,0
1,64,114,0
1,69,114,0
1,71,114,0
1,71,0,48
1,69,0,0
1,64,0,0
1,72,114,0
1,72,0,144
1,45,0,0
1,45,124,0
1,62,114,0
1,67,114,0
1,71,114,0
1,71,0,192
1,67,0,0
1,62,0,0
1,62,114,0
1,67,114,0
1,71,114,0
1,71,0,192
1,67,0,0
1,62,0,0
1,62,114,0
1,67,114,0
1,71,114,0
1,71,0,192
1,67,0,0
1,62,0,0
1,62,114,0
1,67,114,0
1,69,114,0
1,69,0,48
1,67,0,0
1,62,0,0
1,71,114,0
1,71,0,144
1,45,0,0
1,45,124,0
1,64,114,0
1,69,114,0
1,72,114,0
1,72,0,192
1,69,0,0
1,64,0,0
1,72,114,0
1,64,114,0
1,69,114,0
1,69,0,192
1,64,0,0
1,72,0,0
1,72,114,0
1,69,114,0
1,64,114,0
1,64,0,192
1,69,0,0
1,72,0,0
1,64,114,0
1,69,114,0
1,72,114,0
1,45,0,96
1,52,114,0
1,52,0,96
1,72,0,0
1,69,0,0
1,64,0,0
1,62,114,0
1,67,114,0
1,71,114,0
1,57,124,0
1,71,0,192
1,62,0,0
1,67,0,0
1,62,114,0
1,67,114,0
1,71,114,0
1,71,0,192
1,67,0,0
1,62,0,0
1,62,114,0
1,67,114,0
1,71,114,0
1,71,0,192
1,67,0,0
1,62,0,0
1,62,114,0
1,67,114,0
1,71,114,0
1,71,0,192
1,57,0,0
1,62,0,0
1,67,0,0
1,48,124,0
1,64,114,0
1,67,114,0
1,70,114,0
1,70,0,192
1,67,0,0
1,64,0,0
1,64,114,0
1,67,114,0
1,70,114,0
1,70,0,192
1,67,0,0
1,64,0,0
1,64,114,0
1,67,114,0
1,70,114,0
1,48,0,96
1,50,124,0
1,64,0,96
1,70,0,0
1,67,0,0
1,64,114,0
1,67,114,0
1,70,114,0
1,50,0,96
1,52,124,0
1,52,0,96
1,70,0,0
1,67,0,0
1,64,0,0
1,69,114,0
1,65,114,0
1,60,114,0
1,53,124,0
1,60,0,192
1,69,0,0
1,65,0,0
1,69,114,0
1,65,114,0
1,60,114,0
1,60,0,192
1,65,0,0
1,69,0,0
1,60,114,0
1,65,114,0
1,69,114,0
1,53,0,96
1,53,124,0
1,60,0,48
1,69,0,0
1,65,0,0
1,67,114,0
1,65,114,0
1,60,114,0
1,60,0,144
1,65,0,0
1,67,0,0
1,60,114,0
1,65,114,0
1,69,114,0
1,69,0,96
1,53,0,0
1,60,0,0
1,65,0,0
1,62,114,0
1,65,114,0
1,68,114,0
1,56,124,0
1,68,0,192
1,62,0,0
1,65,0,0
1,62,114,0
1,65,114,0
1,68,114,0
1,68,0,192
1,65,0,0
1,62,0,0
1,62,114,0
1,65,114,0
1,68,114,0
1,68,0,192
1,65,0,0
1,62,0,0
1,62,114,0
1,65,114,0
1,68,114,0
1,68,0,192
1,56,0,0
1,62,0,0
1,65,0,0
1,55,124,0
1,60,114,0
1,64,114,0
1,67,114,0
1,67,0,192
1,64,0,0
1,60,0,0
1,60,114,0
1,64,114,0
1,67,114,0
1,67,0,192
1,64,0,0
1,60,0,0
1,60,114,0
1,64,114,0
1,67,114,0
1,67,0,192
1,64,0,0
1,60,0,0
1,60,114,0
1,64,114,0
1,67,114,0
1,55,0,96
1,55,124,0
1,55,0,96
1,67,0,0
1,64,0,0
1,60,0,0
1,69,114,0
1,64,114,0
1,60,114,0
1,54,124,0
1,60,0,192
1,69,0,0
1,64,0,0
1,69,114,0
1,64,114,0
1,60,114,0
1,60,0,192
1,64,0,0
1,69,0,0
1,69,114,0
1,64,114,0
1,60,114,0
1,60,0,192
1,54,0,0
1,69,0,0
1,64,0,0
1,54,124,0
1,60,114,0
1,64,114,0
1,69,114,0
1,69,0,96
1,54,0,0
1,60,0,0
1,64,0,0
1,69,114,0
1,65,114,0
1,60,114,0
1,53,114,0
1,53,0,864
1,69,0,0
1,65,0,0
1,60,0,0
1,64,104,768
1,67,104,0
1,67,0,96
1,64,0,0
1,60,104,0
1,60,0,96
1,64,104,0
1,67,104,0
1,67,0,96
1,64,0,0
1,60,104,0
1,60,0,96
1,64,104,0
1,67,104,0
1,67,0,96
1,64,0,0
1,60,104,0
1,60,0,96
1,64,104,0
1,67,104,0
1,67,0,96
1,64,0,0
1,60,104,0
1,60,0,96
1,64,104,0
1,67,104,0
1,67,0,96
1,64,0,0
1,60,104,0
1,60,0,96
1,64,104,0
1,67,104,0
1,67,0,96
1,64,0,0
1,60,104,0
1,60,0,96
1,64,104,0
1,67,104,0
1,67,0,96
1,64,0,0
1,60,104,0
1,60,0,96
1,64,104,0
1,67,104,0
1,67,0,96
1,64,0,0
1,60,104,0
1,60,0,96
1,64,114,768
1,67,114,0
1,67,0,192
1,64,0,0
1,64,114,0
1,67,114,0
1,67,0,192
1,64,0,0
1,64,114,0
1,60,114,0
1,60,0,96
1,64,0,0
1,66,114,0
1,62,104,0
1,62,0,96
1,66,0,0
1,67,114,96
1,64,104,0
1,64,0,288
1,67,0,0
1,67,114,0
1,64,114,0
1,64,0,192
1,67,0,0
1,64,114,0
1,67,114,0
1,67,0,192
1,64,0,0
1,64,114,0
1,67,114,0
1,67,0,192
1,64,0,0
1,64,114,0
1,69,114,0
1,69,0,192
1,64,0,0
1,64,114,0
1,69,114,0
1,69,0,192
1,64,0,0
1,69,114,0
1,64,114,0
1,64,0,192
1,69,0,0
1,64,114,0
1,69,114,0
1,69,0,192
1,64,0,0
1,62,114,0
1,67,114,0
1,67,0,192
1,62,0,0
1,62,114,0
1,67,114,0
1,67,0,192
1,62,0,0
1,62,114,0
1,67,114,0
1,67,0,192
1,62,0,0
1,62,114,0
1,67,114,0
1,67,0,192
1,62,0,0
1,64,114,0
1,67,114,0
1,67,0,192
1,64,0,0
1,64,114,0
1,67,114,0
1,67,0,192
1,64,0,0
1,64,114,0
1,67,114,0
1,67,0,192
1,64,0,0
1,64,114,0
1,67,114,0
1,67,0,192
1,64,0,0
1,65,114,0
1,60,114,0
1,60,0,192
1,65,0,0
1,65,114,0
1,60,114,0
1,60,0,192
1,65,0,0
1,60,114,0
1,65,114,0
1,65,0,144
1,60,0,0
1,65,114,0
1,60,114,0
1,60,0,144
1,65,0,0
1,60,114,0
1,65,114,0
1,65,0,96
1,60,0,0
1,62,114,0
1,65,114,0
1,65,0,192
1,62,0,0
1,62,114,0
1,65,114,0
1,65,0,192
1,62,0,0
1,62,114,0
1,65,114,0
1,65,0,192
1,62,0,0
1,62,114,0
1,65,114,0
1,65,0,192
1,62,0,0
1,60,114,0
1,64,114,0
1,64,0,192
1,60,0,0
1,60,114,0
1,64,114,0
1,64,0,192
1,60,0,0
1,60,114,0
1,64,114,0
1,64,0,192
1,60,0,0
1,60,114,0
1,64,114,0
1,64,0,192
1,60,0,0
1,64,114,0
1,60,114,0
1,60,0,192
1,64,0,0
1,64,114,0
1,60,114,0
1,60,0,192
1,64,0,0
1,64,114,0
1,60,114,0
1,60,0,192
1,64,0,0
1,60,114,0
1,64,114,0
1,64,0,96
1,60,0,0
1,65,114,0
1,60,114,0
1,60,0,864
1,65,0,0
2,55,114,240
2,55,0,264
2,52,114,0
2,52,0,96
2,57,114,0
2,57,0,96
2,59,114,0
2,59,0,192
2,60,114,0
2,60,0,96
2,59,114,0
2,59,0,384
2,55,114,0
2,55,0,384
2,45,114,0
2,45,0,288
2,52,114,0
2,52,0,96
2,57,114,0
2,57,0,96
2,59,114,0
2,59,0,192
2,60,114,0
2,60,0,96
2,59,114,0
2,62,114,0
2,62,0,96
2,59,0,0
2,59,114,0
2,55,114,0
2,55,0,96
2,59,0,0
2,55,114,0
2,50,114,0
2,50,0,96
2,55,0,0
2,50,114,0
2,47,114,0
2,47,0,12
2,50,0,0
2,45,127,0
2,48,127,0
2,48,0,144
2,45,0,0
2,55,104,624
2,55,0,24
2,57,104,0
2,57,0,24
2,59,104,0
2,59,0,24
2,60,104,0
2,60,0,24
2,57,104,0
2,57,0,24
2,59,104,0
2,59,0,24
2,60,104,0
2,60,0,24
2,62,104,0
2,62,0,24
2,59,104,0
2,59,0,24
2,60,104,0
2,60,0,24
2,62,104,0
2,62,0,24
2,64,104,0
2,64,0,24
2,60,104,0
2,60,0,24
2,62,104,0
2,62,0,24
2,64,104,0
2,64,0,24
2,65,104,0
2,65,0,24
2,62,104,0
2,62,0,24
2,64,104,0
2,64,0,24
2,65,104,0
2,65,0,24
2,67,104,0
2,67,0,24
2,64,104,0
2,64,0,24
2,65,104,0
2,65,0,24
2,67,104,0
2,67,0,24
2,69,104,0
2,69,0,24
2,65,104,0
2,65,0,24
2,67,104,0
2,67,0,24
2,69,104,0
2,69,0,24
2,71,104,0
2,71,0,24
2,67,104,0
2,67,0,24
2,69,104,0
2,69,0,24
2,71,104,0
2,71,0,24
2,72,104,0
2,72,0,24
2,69,104,0
2,69,0,24
2,71,104,0
2,71,0,24
2,72,104,0
2,72,0,24
2,74,104,0
2,74,0,24
2,71,104,0
2,71,0,24
2,72,104,0
2,72,0,24
2,74,104,0
2,74,0,24
2,76,104,0
2,76,0,24
2,72,104,0
2,72,0,24
2,74,104,0
2,74,0,24
2,76,104,0
2,76,0,24
2,77,104,0
2,77,0,24
2,74,104,0
2,74,0,24
2,76,104,0
2,76,0,24
2,77,104,0
2,77,0,24
2,79,104,0
2,79,0,24
2,76,104,0
2,76,0,24
2,77,104,0
2,77,0,24
2,79,104,0
2,79,0,24
2,81,104,0
2,81,0,24
2,77,104,0
2,77,0,24
2,79,104,0
2,79,0,24
2,81,104,0
2,81,0,24
2,83,104,0
2,83,0,24
2,81,104,0
2,81,0,96
2,84,104,0
2,84,0,672
2,64,104,48
2,64,0,384
2,62,104,0
2,62,0,96
2,64,104,0
2,64,0,96
2,62,104,0
2,62,0,96
2,60,104,0
2,60,0,96
2,69,104,0
2,69,0,384
2,67,104,0
2,67,0,192
2,65,104,0
2,65,0,96
2,64,104,0
2,64,0,96
2,62,104,0
2,62,0,1440
2,60,104,0
2,60,0,48
2,62,104,0
2,62,0,48
2,64,104,0
2,64,0,384
2,62,104,0
2,62,0,96
2,64,104,0
2,64,0,96
2,62,104,0
2,62,0,96
2,60,104,0
2,60,0,96
2,69,104,0
2,69,0,384
2,67,104,0
2,67,0,192
2,65,104,0
2,65,0,96
2,64,104,0
2,64,0,96
2,62,104,0
2,62,0,768
2,64,114,0
2,64,0,192
2,65,114,0
2,65,0,192
2,67,114,0
2,67,0,192
2,69,114,0
2,69,0,96
2,64,104,0
2,64,0,48
2,67,104,0
2,67,0,48
2,69,104,0
2,69,0,384
2,60,104,0
2,60,0,384
2,64,104,0
2,64,0,384
2,62,104,0
2,62,0,384
2,60,104,0
2,60,0,576
2,74,104,2496
2,74,0,192
2,76,104,0
2,76,0,480
2,72,104,0
2,72,0,96
2,74,104,0
2,74,0,192
2,76,104,0
2,76,0,480
2,72,104,0
2,72,0,96
2,74,104,0
2,74,0,192
2,76,104,0
2,76,0,480
2,72,104,0
2,72,0,96
2,74,104,0
2,74,0,192
2,76,104,0
2,76,0,192
2,77,104,0
2,77,0,192
2,76,104,0
2,76,0,96
2,72,104,0
2,72,0,96
2,74,104,0
2,74,0,192
2,76,104,0
2,76,0,480
2,72,104,0
2,72,0,96
2,74,104,0
2,74,0,192
2,76,104,0
2,76,0,480
2,72,104,0
2,72,0,96
2,74,104,0
2,74,0,192
2,76,104,0
2,76,0,480
2,72,104,0
2,72,0,96
2,74,104,0
2,74,0,192
2,76,104,0
2,76,0,192
2,77,104,0
2,77,0,192
2,76,104,0
2,76,0,96
2,72,104,0
2,72,0,96
2,74,104,0
2,74,0,192
2,76,104,0
2,76,0,480
2,72,104,0
2,72,0,96
2,74,104,0
2,74,0,192
2,76,104,0
2,76,0,480
2,72,104,0
2,72,0,96
2,74,104,0
2,74,0,192
2,76,104,0
2,76,0,480
2,72,104,0
2,72,0,96
2,74,104,0
2,74,0,192
2,76,104,0
2,76,0,192
2,77,104,0
2,77,0,192
2,76,104,0
2,76,0,96
2,72,104,0
2,72,0,96
2,74,104,0
2,74,0,192
2,76,104,0
2,76,0,480
2,72,104,0
2,72,0,96
2,74,104,0
2,74,0,192
2,76,104,0
2,76,0,480
2,72,104,0
2,72,0,96
2,74,104,0
2,74,0,192
2,76,104,0
2,76,0,480
2,72,104,0
2,72,0,96
2,74,104,0
2,74,0,192
2,76,104,0
2,76,0,480
2,72,104,0
2,72,0,96
2,77,104,0
2,77,0,192
2,76,104,0
2,76,0,192
2,74,104,0
2,74,0,192
2,72,104,0
2,72,0,192
2,77,104,0
2,77,0,192
2,76,104,0
2,76,0,192
2,74,104,0
2,74,0,192
2,72,104,0
2,72,0,192
2,77,104,0
2,77,0,192
2,76,104,0
2,76,0,192
2,74,104,0
2,74,0,192
2,72,104,0
2,72,0,192
2,74,104,0
2,74,0,192
2,76,104,0
2,76,0,192
2,77,104,0
2,77,0,192
2,79,104,0
2,79,0,192
2,74,104,0
2,74,0,192
2,76,104,0
2,76,0,480
2,72,104,0
2,72,0,96
2,74,104,0
2,74,0,192
2,76,104,0
2,76,0,480
2,72,104,0
2,72,0,96
2,74,104,0
2,74,0,192
2,76,104,0
2,76,0,480
2,72,104,0
2,72,0,96
2,77,104,0
2,77,0,192
2,76,104,0
2,76,0,192
2,74,104,0
2,74,0,192
2,72,104,0
2,72,0,192
2,74,104,0
2,74,0,192
2,76,104,0
2,76,0,480
2,72,104,0
2,72,0,96
2,74,104,0
2,74,0,192
2,76,104,0
2,76,0,480
2,72,104,0
2,72,0,96
2,74,104,0
2,74,0,192
2,76,104,0
2,76,0,480
2,72,104,0
2,72,0,96
2,77,104,0
2,77,0,192
2,76,104,0
2,76,0,192
2,74,104,0
2,74,0,192
2,72,104,0
2,72,0,192
2,74,104,0
2,74,0,192
2,76,104,0
2,76,0,480
2,72,104,0
2,72,0,96
2,74,104,0
2,74,0,192
2,76,104,0
2,76,0,480
2,72,104,0
2,72,0,96
2,74,104,0
2,74,0,192
2,76,104,0
2,76,0,480
2,72,104,0
2,72,0,96
2,72,104,0
2,72,0,768
3,45,114,336
3,45,0,672
3,45,104,0
3,45,0,96
3,45,114,0
3,45,0,672
3,45,104,0
3,45,0,96
3,57,104,0
3,57,0,672
3,52,114,96
3,52,0,480
3,50,114,96
3,50,0,192
3,45,104,0
3,45,0,768
3,33,114,0
3,33,0,576
3,36,114,192
3,36,0,672
3,28,104,0
3,28,0,96
3,29,114,0
3,29,0,672
3,44,114,96
3,44,0,672
3,31,114,96
3,31,0,768
3,30,114,0
3,30,0,480
3,30,114,96
3,30,0,96
3,29,114,0
3,29,0,768
3,29,114,0
3,29,0,96
3,33,114,0
3,33,0,288
3,33,104,0
3,33,0,96
3,33,104,0
3,33,0,384
