track,note,velocity,time
1,31,127,5760
1,31,127,68
1,31,127,240
1,27,127,24
1,27,127,64
1,27,127,244
1,24,127,32
1,24,127,52
1,24,127,256
1,29,127,36
1,29,127,80
1,30,127,32
1,30,127,88
1,31,127,68
1,31,127,68
1,31,127,240
1,27,127,24
1,27,127,64
1,27,127,244
1,24,127,32
1,24,127,52
1,24,127,256
1,29,127,36
1,29,127,80
1,30,127,32
1,30,127,88
1,31,127,68
1,31,127,68
1,31,127,240
1,27,127,24
1,27,127,64
1,27,127,244
1,24,127,32
1,24,127,52
1,24,127,256
1,29,127,36
1,29,127,80
1,30,127,32
1,30,127,88
1,31,127,68
1,31,127,68
1,31,127,240
1,27,127,24
1,27,127,64
1,27,127,244
1,24,127,32
1,24,127,52
1,24,127,256
1,29,127,36
1,29,127,80
1,30,127,32
1,30,127,88
1,31,127,68
1,31,127,68
1,31,127,240
1,27,127,24
1,27,127,64
1,27,127,244
1,24,127,32
1,24,127,52
1,24,127,256
1,29,127,36
1,29,127,80
1,30,127,32
1,30,127,88
1,31,127,68
1,31,127,68
1,31,127,240
1,27,127,24
1,27,127,64
1,27,127,244
1,24,127,32
1,24,127,52
1,24,127,256
1,29,127,36
1,29,127,80
1,30,127,32
1,30,127,88
1,31,127,68
1,31,127,68
1,31,127,240
1,27,127,24
1,27,127,64
1,27,127,244
1,24,127,32
1,24,127,52
1,24,127,256
1,29,127,36
1,29,127,80
1,30,127,32
1,30,127,88
1,31,127,68
1,31,127,68
1,31,127,240
1,27,127,24
1,27,127,64
1,27,127,244
1,24,127,32
1,24,127,52
1,24,127,256
1,29,127,36
1,29,127,80
1,30,127,32
1,30,127,88
1,31,127,68
1,31,127,68
1,31,127,240
1,27,127,24
1,27,127,64
1,27,127,244
1,24,127,32
1,24,127,52
1,24,127,256
1,29,127,36
1,29,127,80
1,30,127,32
1,30,127,88
1,31,127,68
1,31,127,68
1,31,127,240
1,27,127,24
1,27,127,64
1,27,127,244
1,24,127,32
1,24,127,52
1,24,127,256
1,29,127,36
1,29,127,80
1,30,127,32
1,30,127,88
1,31,127,68
1,31,127,68
1,31,127,240
1,27,127,24
1,27,127,64
1,27,127,244
1,24,127,32
1,24,127,52
1,24,127,256
1,29,127,36
1,29,127,80
1,30,127,32
1,30,127,88
1,31,127,68
1,31,127,68
1,31,127,240
1,27,127,24
1,27,127,64
1,27,127,244
1,24,127,32
1,24,127,52
1,24,127,256
1,29,127,36
1,29,127,80
1,30,127,32
1,30,127,88
1,30,127,68
1,30,127,68
1,30,127,172
1,29,127,48
1,29,127,72
1,29,127,200
1,27,127,12
1,27,127,68
1,27,127,204
1,30,127,24
1,32,127,0
1,30,127,120
1,32,127,16
1,34,127,120
1,30,127,32
1,30,127,72
1,30,127,196
1,29,127,8
1,29,127,72
1,29,127,244
1,27,127,16
1,27,127,52
1,27,127,224
1,30,127,16
1,32,127,20
1,30,127,120
1,32,127,4
1,34,127,120
1,31,127,52
1,31,127,68
1,31,127,240
1,27,127,24
1,27,127,64
1,27,127,244
1,24,127,32
1,24,127,52
1,24,127,256
1,29,127,36
1,29,127,80
1,30,127,32
1,30,127,88
1,31,127,68
1,31,127,68
1,31,127,240
1,27,127,24
1,27,127,64
1,27,127,244
1,24,127,32
1,24,127,52
1,24,127,256
1,29,127,36
1,29,127,80
1,30,127,32
1,30,127,88
1,31,127,68
1,31,127,68
1,31,127,240
1,27,127,24
1,27,127,64
1,27,127,244
1,24,127,32
1,24,127,52
1,24,127,256
1,29,127,36
1,29,127,80
1,30,127,32
1,30,127,88
1,31,127,68
1,31,127,68
1,31,127,240
1,27,127,24
1,27,127,64
1,27,127,244
1,24,127,32
1,24,127,52
1,24,127,256
1,29,127,36
1,29,127,80
1,30,127,32
1,30,127,88
1,31,127,68
1,31,127,68
1,31,127,240
1,27,127,24
1,27,127,64
1,27,127,244
1,24,127,32
1,24,127,52
1,24,127,256
1,29,127,36
1,29,127,80
1,30,127,32
1,30,127,88
1,31,127,68
1,31,127,68
1,31,127,240
1,27,127,24
1,27,127,64
1,27,127,244
1,24,127,32
1,24,127,52
1,24,127,256
1,29,127,36
1,29,127,80
1,30,127,32
1,30,127,88
1,31,127,68
1,31,127,68
1,31,127,240
1,27,127,24
1,27,127,64
1,27,127,244
1,24,127,32
1,24,127,52
1,24,127,256
1,29,127,36
1,29,127,80
1,30,127,32
1,30,127,88
1,31,127,68
1,31,127,68
1,31,127,240
1,27,127,24
1,27,127,64
1,27,127,244
1,24,127,32
1,24,127,52
1,24,127,256
1,29,127,36
1,29,127,80
1,30,127,32
1,30,127,88
1,31,127,68
1,31,127,68
1,31,127,240
1,27,127,24
1,27,127,64
1,27,127,244
1,24,127,32
1,24,127,52
1,24,127,256
1,29,127,36
1,29,127,80
1,30,127,32
1,30,127,88
1,31,127,68
1,31,127,68
1,31,127,240
1,27,127,24
1,27,127,64
1,27,127,244
1,24,127,32
1,24,127,52
1,24,127,256
1,29,127,36
1,29,127,80
1,30,127,32
1,30,127,88
1,31,127,68
1,31,127,68
1,31,127,240
1,27,127,24
1,27,127,64
1,27,127,244
1,24,127,32
1,24,127,52
1,24,127,256
1,29,127,36
1,29,127,80
1,30,127,32
1,30,127,88
1,31,127,68
1,31,127,68
1,31,127,240
1,27,127,24
1,27,127,64
1,27,127,244
1,24,127,32
1,24,127,52
1,24,127,256
1,29,127,36
1,29,127,80
1,30,127,32
1,30,127,88
1,31,127,68
1,31,127,68
1,31,127,240
1,27,127,24
1,27,127,64
1,27,127,244
1,24,127,32
1,24,127,52
1,24,127,256
1,29,127,36
1,29,127,80
1,30,127,32
1,30,127,88
1,31,127,68
1,31,127,68
1,31,127,240
1,27,127,24
1,27,127,64
1,27,127,244
1,24,127,32
1,24,127,52
1,24,127,256
1,29,127,36
1,29,127,80
1,30,127,32
1,30,127,88
1,30,127,68
1,30,127,68
1,30,127,172
1,29,127,48
1,29,127,72
1,29,127,200
1,27,127,12
1,27,127,68
1,27,127,204
1,30,127,24
1,32,127,0
1,30,127,120
1,32,127,16
1,34,127,120
1,30,127,32
1,30,127,72
1,30,127,196
1,29,127,8
1,29,127,72
1,29,127,244
1,27,127,16
1,27,127,52
1,27,127,224
1,30,127,16
1,32,127,20
1,30,127,120
1,32,127,4
1,34,127,120
1,31,127,52
1,31,127,68
1,31,127,240
1,27,127,24
1,27,127,64
1,27,127,244
1,24,127,32
1,24,127,52
1,24,127,256
1,29,127,36
1,29,127,80
1,30,127,32
1,30,127,88
1,31,127,68
1,31,127,68
1,31,127,240
1,27,127,24
1,27,127,64
1,27,127,244
1,24,127,32
1,24,127,52
1,24,127,256
1,29,127,36
1,29,127,80
1,30,127,32
1,30,127,88
1,31,127,68
1,31,127,68
1,31,127,240
1,27,127,24
1,27,127,64
1,27,127,244
1,24,127,32
1,24,127,52
1,24,127,256
1,29,127,36
1,29,127,80
1,30,127,32
1,30,127,88
1,31,127,68
1,31,127,68
1,31,127,240
1,27,127,24
1,27,127,64
1,27,127,244
1,24,127,32
1,24,127,52
1,24,127,256
1,29,127,36
1,29,127,80
1,30,127,32
1,30,127,88
1,31,127,68
1,31,127,68
1,31,127,240
1,27,127,24
1,27,127,64
1,27,127,244
1,24,127,32
1,24,127,52
1,24,127,256
1,29,127,36
1,29,127,80
1,30,127,32
1,30,127,88
1,31,127,68
1,31,127,68
1,31,127,240
1,27,127,24
1,27,127,64
1,27,127,244
1,24,127,32
1,24,127,52
1,24,127,256
1,29,127,36
1,29,127,80
1,30,127,32
1,30,127,88
1,31,127,68
1,31,127,68
1,31,127,240
1,27,127,24
1,27,127,64
1,27,127,244
1,24,127,32
1,24,127,52
1,24,127,256
1,29,127,36
1,29,127,80
1,30,127,32
1,30,127,88
1,31,127,68
1,31,127,68
1,31,127,240
1,27,127,24
1,27,127,64
1,27,127,244
1,24,127,32
1,24,127,52
1,24,127,256
1,29,127,36
1,29,127,80
1,30,127,32
1,30,127,88
1,30,127,7748
1,30,127,72
1,30,127,196
1,29,127,8
1,29,127,72
1,29,127,244
1,27,127,16
1,27,127,52
1,27,127,224
1,30,127,16
1,32,127,20
1,30,127,120
1,32,127,4
1,34,127,120
1,30,127,52
1,30,127,72
1,30,127,196
1,29,127,8
1,29,127,72
1,29,127,244
1,27,127,16
1,27,127,52
1,27,127,224
1,30,127,16
1,32,127,20
1,30,127,120
1,32,127,4
1,34,127,120
1,30,127,52
1,30,127,68
1,30,127,172
1,29,127,48
1,29,127,72
1,29,127,200
1,27,127,12
1,27,127,68
1,27,127,204
1,30,127,24
1,32,127,0
1,30,127,120
1,32,127,16
1,34,127,120
1,30,127,32
1,30,127,72
1,30,127,196
1,29,127,8
1,29,127,72
1,29,127,244
1,27,127,16
1,27,127,52
1,27,127,224
1,30,127,16
1,32,127,20
1,30,127,120
1,32,127,4
1,34,127,120
1,31,127,52
1,31,127,68
1,31,127,240
1,27,127,24
1,27,127,64
1,27,127,244
1,24,127,32
1,24,127,52
1,24,127,256
1,29,127,36
1,29,127,80
1,30,127,32
1,30,127,88
1,31,127,68
1,31,127,68
1,31,127,240
1,27,127,24
1,27,127,64
1,27,127,244
1,24,127,32
1,24,127,52
1,24,127,256
1,29,127,36
1,29,127,80
1,30,127,32
1,30,127,88
1,31,127,68
1,31,127,68
1,31,127,240
1,27,127,24
1,27,127,64
1,27,127,244
1,24,127,32
1,24,127,52
1,24,127,256
1,29,127,36
1,29,127,80
1,30,127,32
1,30,127,88
1,31,127,68
1,31,127,68
1,31,127,240
1,27,127,24
1,27,127,64
1,27,127,244
1,24,127,32
1,24,127,52
1,24,127,256
1,29,127,36
1,29,127,80
1,30,127,32
1,30,127,88
1,31,127,68
1,31,127,68
1,31,127,240
1,27,127,24
1,27,127,64
1,27,127,244
1,24,127,32
1,24,127,52
1,24,127,256
1,29,127,36
1,29,127,80
1,30,127,32
1,30,127,88
1,31,127,68
1,31,127,68
1,31,127,240
1,27,127,24
1,27,127,64
1,27,127,244
1,24,127,32
1,24,127,52
1,24,127,256
1,29,127,36
1,29,127,80
1,30,127,32
1,30,127,88
1,31,127,68
1,31,127,68
1,31,127,240
1,27,127,24
1,27,127,64
1,27,127,244
1,24,127,32
1,24,127,52
1,24,127,256
1,29,127,36
1,29,127,80
1,30,127,32
1,30,127,88
1,31,127,68
1,31,127,68
1,31,127,240
1,27,127,24
1,27,127,64
1,27,127,244
1,24,127,32
1,24,127,52
1,24,127,256
1,29,127,36
1,29,127,80
1,30,127,32
1,30,127,88
2,55,63,13440
2,55,63,60
2,70,63,0
2,74,63,0
2,67,63,132
2,70,63,0
2,55,63,0
2,74,63,0
2,51,63,4
2,70,63,56
2,67,63,0
2,51,63,0
2,63,63,240
2,51,63,0
2,48,63,8
2,66,63,0
2,67,63,40
2,63,63,0
2,48,63,0
2,67,63,216
2,63,63,0
2,48,63,0
2,53,63,32
2,72,63,0
2,69,63,0
2,53,63,0
2,65,63,0
2,73,63,44
2,54,63,0
2,70,63,0
2,54,63,4
2,66,63,0
2,55,63,60
2,55,63,60
2,70,63,0
2,74,63,0
2,67,63,132
2,70,63,0
2,55,63,0
2,74,63,0
2,51,63,4
2,70,63,56
2,67,63,0
2,51,63,0
2,63,63,240
2,51,63,0
2,48,63,8
2,66,63,0
2,67,63,40
2,63,63,0
2,48,63,0
2,67,63,216
2,63,63,0
2,48,63,0
2,53,63,32
2,72,63,0
2,69,63,0
2,53,63,0
2,65,63,0
2,73,63,44
2,54,63,0
2,70,63,0
2,54,63,4
2,66,63,0
2,55,63,60
2,55,63,60
2,70,63,0
2,74,63,0
2,67,63,132
2,70,63,0
2,55,63,0
2,74,63,0
2,51,63,4
2,70,63,56
2,67,63,0
2,51,63,0
2,63,63,240
2,51,63,0
2,48,63,8
2,66,63,0
2,67,63,40
2,63,63,0
2,48,63,0
2,67,63,216
2,63,63,0
2,48,63,0
2,53,63,32
2,72,63,0
2,69,63,0
2,53,63,0
2,65,63,0
2,73,63,44
2,54,63,0
2,70,63,0
2,54,63,4
2,66,63,0
2,55,63,60
2,55,63,60
2,70,63,0
2,74,63,0
2,67,63,132
2,70,63,0
2,55,63,0
2,74,63,0
2,51,63,4
2,70,63,56
2,67,63,0
2,51,63,0
2,63,63,240
2,51,63,0
2,48,63,8
2,66,63,0
2,67,63,40
2,63,63,0
2,48,63,0
2,67,63,216
2,63,63,0
2,48,63,0
2,53,63,32
2,72,63,0
2,69,63,0
2,53,63,0
2,65,63,0
2,73,63,44
2,54,63,0
2,70,63,0
2,54,63,4
2,66,63,0
2,55,63,60
2,55,63,60
2,70,63,0
2,74,63,0
2,67,63,132
2,70,63,0
2,55,63,0
2,74,63,0
2,51,63,4
2,70,63,56
2,67,63,0
2,51,63,0
2,63,63,240
2,51,63,0
2,48,63,8
2,66,63,0
2,67,63,40
2,63,63,0
2,48,63,0
2,67,63,216
2,63,63,0
2,48,63,0
2,53,63,32
2,72,63,0
2,69,63,0
2,53,63,0
2,65,63,0
2,73,63,44
2,54,63,0
2,70,63,0
2,54,63,4
2,66,63,0
2,55,63,60
2,55,63,60
2,70,63,0
2,74,63,0
2,67,63,132
2,70,63,0
2,55,63,0
2,74,63,0
2,51,63,4
2,70,63,56
2,67,63,0
2,51,63,0
2,63,63,240
2,51,63,0
2,48,63,8
2,66,63,0
2,67,63,40
2,63,63,0
2,48,63,0
2,67,63,216
2,63,63,0
2,48,63,0
2,53,63,32
2,72,63,0
2,69,63,0
2,53,63,0
2,65,63,0
2,73,63,44
2,54,63,0
2,70,63,0
2,54,63,4
2,66,63,0
2,55,63,60
2,55,63,60
2,70,63,0
2,74,63,0
2,67,63,132
2,70,63,0
2,55,63,0
2,74,63,0
2,51,63,4
2,70,63,56
2,67,63,0
2,51,63,0
2,63,63,240
2,51,63,0
2,48,63,8
2,66,63,0
2,67,63,40
2,63,63,0
2,48,63,0
2,67,63,216
2,63,63,0
2,48,63,0
2,53,63,32
2,72,63,0
2,69,63,0
2,53,63,0
2,65,63,0
2,73,63,44
2,54,63,0
2,70,63,0
2,54,63,4
2,66,63,0
2,55,63,60
2,55,63,60
2,70,63,0
2,74,63,0
2,67,63,132
2,70,63,0
2,55,63,0
2,74,63,0
2,51,63,4
2,70,63,56
2,67,63,0
2,51,63,0
2,63,63,240
2,51,63,0
2,48,63,8
2,66,63,0
2,67,63,40
2,63,63,0
2,48,63,0
2,67,63,216
2,63,63,0
2,48,63,0
2,53,63,32
2,72,63,0
2,69,63,0
2,53,63,0
2,65,63,0
2,73,63,44
2,54,63,0
2,70,63,0
2,54,63,4
2,66,63,0
2,55,63,60
2,55,63,60
2,70,63,0
2,74,63,0
2,67,63,132
2,70,63,0
2,55,63,0
2,74,63,0
2,51,63,4
2,70,63,56
2,67,63,0
2,51,63,0
2,63,63,240
2,51,63,0
2,48,63,8
2,66,63,0
2,67,63,40
2,63,63,0
2,48,63,0
2,67,63,216
2,63,63,0
2,48,63,0
2,53,63,32
2,72,63,0
2,69,63,0
2,53,63,0
2,65,63,0
2,73,63,44
2,54,63,0
2,70,63,0
2,54,63,4
2,66,63,0
2,55,63,60
2,55,63,60
2,70,63,0
2,74,63,0
2,67,63,132
2,70,63,0
2,55,63,0
2,74,63,0
2,51,63,4
2,70,63,56
2,67,63,0
2,51,63,0
2,63,63,240
2,51,63,0
2,48,63,8
2,66,63,0
2,67,63,40
2,63,63,0
2,48,63,0
2,67,63,216
2,63,63,0
2,48,63,0
2,53,63,32
2,72,63,0
2,69,63,0
2,53,63,0
2,65,63,0
2,73,63,44
2,54,63,0
2,70,63,0
2,54,63,4
2,66,63,0
2,73,63,60
2,66,63,0
2,70,63,0
2,54,63,0
2,66,63,164
2,54,63,180
2,53,63,24
2,65,63,156
2,69,63,0
2,72,63,0
2,53,63,240
2,70,63,280
2,63,63,0
2,67,63,0
2,51,63,0
2,70,63,24
2,67,63,0
2,63,63,0
2,51,63,116
2,70,63,384
2,66,63,0
2,73,63,0
