track,note,velocity,time
1,71,127,12672
1,72,127,0
1,77,127,0
1,72,127,0
1,68,127,0
1,72,127,0
1,71,127,0
1,72,127,0
1,71,127,0
1,68,127,0
1,72,127,576
1,72,127,0
1,77,127,0
1,72,127,0
1,68,127,0
1,72,127,0
1,70,127,0
1,72,127,0
1,70,127,0
1,68,127,0
1,70,127,0
1,72,127,1152
1,68,127,0
1,70,127,0
1,65,127,0
1,79,127,768
1,77,127,0
1,75,127,0
1,72,127,192
1,70,127,0
1,68,127,0
1,70,127,0
1,72,127,0
1,68,127,0
1,63,127,0
1,65,127,0
1,65,127,192
1,67,127,0
1,68,127,0
1,70,127,0
1,72,127,0
1,80,127,384
1,80,127,0
1,80,127,0
1,80,127,0
1,79,127,0
1,77,127,0
1,77,127,0
1,77,127,0
1,75,127,0
1,75,127,0
1,72,127,0
1,70,127,0
1,68,127,0
1,72,127,0
1,77,127,864
1,75,127,0
1,77,127,0
1,77,127,0
1,75,127,0
1,72,127,0
1,77,127,0
1,75,127,0
1,77,127,0
1,75,127,0
1,75,127,0
1,77,127,0
1,75,127,0
1,75,127,0
1,77,127,0
1,75,127,0
1,77,127,288
1,75,127,0
1,75,127,0
1,77,127,0
1,75,127,0
1,77,127,0
1,75,127,0
1,72,127,0
1,77,127,0
1,75,127,0
1,72,127,0
1,70,127,0
1,68,127,0
1,70,127,0
1,68,127,0
1,70,127,0
1,68,127,0
1,70,127,0
1,65,127,0
1,72,127,4896
1,72,127,0
1,77,127,0
1,68,127,0
1,72,127,0
1,70,127,0
1,72,127,0
1,70,127,0
1,68,127,0
1,70,127,576
1,72,127,0
1,77,127,0
1,68,127,0
1,72,127,0
1,70,127,0
1,72,127,0
1,70,127,0
1,70,127,0
1,70,127,960
1,68,127,0
1,70,127,0
1,65,127,0
1,79,127,384
1,80,127,0
1,80,127,0
1,79,127,0
1,77,127,0
1,77,127,576
1,79,127,0
1,80,127,0
1,79,127,0
1,80,127,0
1,77,127,0
1,80,127,192
1,79,127,0
1,77,127,0
1,79,127,0
1,79,127,0
1,80,127,0
1,79,127,0
1,77,127,0
1,80,127,192
1,77,127,0
1,75,127,0
1,77,127,0
1,75,127,0
1,77,127,0
1,75,127,0
1,77,127,0
1,75,127,0
1,77,127,0
1,75,127,0
1,77,127,0
1,80,127,192
1,79,127,0
1,77,127,0
1,79,127,0
1,77,127,0
1,79,127,0
1,79,127,0
1,80,127,0
1,79,127,0
1,77,127,0
1,80,127,192
1,80,127,0
1,80,127,0
1,80,127,0
1,79,127,0
1,77,127,0
1,79,127,0
1,80,127,0
1,80,127,0
1,79,127,0
1,77,127,0
1,79,127,0
1,77,127,0
1,77,127,0
1,79,127,0
1,75,127,0
1,72,127,0
1,70,127,0
1,72,127,0
1,80,127,960
1,79,127,0
1,77,127,0
1,80,127,192
1,79,127,0
1,77,127,0
1,80,127,192
1,79,127,0
1,77,127,0
1,80,127,0
1,80,127,0
1,79,127,0
1,77,127,0
1,77,127,0
1,77,127,0
1,80,127,0
1,77,127,0
1,80,127,1728
1,79,127,0
1,77,127,0
1,80,127,192
1,79,127,0
1,77,127,0
1,80,127,192
1,79,127,0
1,77,127,0
1,80,127,0
1,80,127,0
1,79,127,0
1,77,127,0
1,77,127,0
1,77,127,0
1,77,127,192
1,80,127,2880
1,79,127,0
1,77,127,0
1,80,127,192
1,79,127,0
1,77,127,0
1,80,127,192
1,79,127,0
1,77,127,0
1,80,127,192
1,79,127,0
1,77,127,0
1,80,127,192
1,79,127,0
1,77,127,0
1,80,127,192
1,79,127,0
1,77,127,0
1,80,127,192
1,79,127,0
1,77,127,0
1,80,127,192
1,79,127,0
1,80,127,0
1,79,127,0
1,80,127,0
1,79,127,0
1,80,127,0
1,79,127,0
1,80,127,0
1,79,127,0
1,80,127,0
1,79,127,0
1,80,127,0
1,79,127,0
1,80,127,0
1,79,127,0
1,80,127,0
1,80,127,192
1,79,127,0
1,77,127,0
1,79,127,0
1,79,127,0
1,80,127,0
1,79,127,0
1,77,127,0
1,80,127,192
1,77,127,0
1,75,127,0
1,77,127,0
1,75,127,0
1,77,127,0
1,75,127,0
1,77,127,0
1,75,127,0
1,77,127,0
1,75,127,0
1,77,127,0
1,80,127,192
1,79,127,0
1,77,127,0
1,79,127,0
1,77,127,0
1,79,127,0
1,79,127,0
1,80,127,0
1,79,127,0
1,77,127,0
1,80,127,192
1,80,127,0
1,77,127,0
1,80,127,0
1,79,127,0
1,80,127,0
1,79,127,0
1,80,127,0
1,80,127,0
1,77,127,0
1,77,127,0
1,77,127,0
1,75,127,0
1,77,127,0
1,80,127,192
1,79,127,0
1,77,127,0
1,79,127,0
1,79,127,0
1,80,127,0
1,79,127,0
1,77,127,0
1,80,127,192
1,77,127,0
1,75,127,0
1,77,127,0
1,75,127,0
1,77,127,0
1,75,127,0
1,77,127,0
1,75,127,0
1,77,127,0
1,75,127,0
1,77,127,0
1,80,127,192
1,79,127,0
1,77,127,0
1,79,127,0
1,77,127,0
1,79,127,0
1,79,127,0
1,80,127,0
1,79,127,0
1,77,127,0
1,80,127,192
1,80,127,0
1,80,127,0
1,80,127,0
1,77,127,0
1,77,127,0
1,80,127,0
1,80,127,0
1,79,127,0
1,77,127,0
1,79,127,0
1,79,127,0
1,77,127,0
1,79,127,0
2,71,127,12672
2,72,127,0
2,77,127,0
2,72,127,0
2,68,127,0
2,72,127,0
2,71,127,0
2,72,127,0
2,71,127,0
2,68,127,0
2,72,127,576
2,72,127,0
2,77,127,0
2,72,127,0
2,68,127,0
2,72,127,0
2,70,127,0
2,72,127,0
2,70,127,0
2,68,127,0
2,70,127,0
2,72,127,1152
2,68,127,0
2,70,127,0
2,65,127,0
2,79,127,768
2,77,127,0
2,75,127,0
2,72,127,192
2,70,127,0
2,68,127,0
2,70,127,0
2,72,127,0
2,68,127,0
2,63,127,0
2,65,127,0
2,65,127,192
2,67,127,0
2,68,127,0
2,70,127,0
2,72,127,0
2,80,127,384
2,80,127,0
2,80,127,0
2,80,127,0
2,79,127,0
2,77,127,0
2,77,127,0
2,77,127,0
2,75,127,0
2,75,127,0
2,72,127,0
2,70,127,0
2,68,127,0
2,72,127,0
2,77,127,864
2,75,127,0
2,77,127,0
2,77,127,0
2,75,127,0
2,72,127,0
2,77,127,0
2,75,127,0
2,77,127,0
2,75,127,0
2,75,127,0
2,77,127,0
2,75,127,0
2,75,127,0
2,77,127,0
2,75,127,0
2,77,127,288
2,75,127,0
2,75,127,0
2,77,127,0
2,75,127,0
2,77,127,0
2,75,127,0
2,72,127,0
2,77,127,0
2,75,127,0
2,72,127,0
2,70,127,0
2,68,127,0
2,70,127,0
2,68,127,0
2,70,127,0
2,68,127,0
2,70,127,0
2,65,127,0
2,72,127,4896
2,72,127,0
2,77,127,0
2,68,127,0
2,72,127,0
2,70,127,0
2,72,127,0
2,70,127,0
2,68,127,0
2,70,127,576
2,72,127,0
2,77,127,0
2,68,127,0
2,72,127,0
2,70,127,0
2,72,127,0
2,70,127,0
2,70,127,0
2,70,127,960
2,68,127,0
2,70,127,0
2,65,127,0
2,79,127,384
2,80,127,0
2,80,127,0
2,79,127,0
2,77,127,0
2,77,127,576
2,79,127,0
2,80,127,0
2,79,127,0
2,80,127,0
2,77,127,0
2,80,127,192
2,79,127,0
2,77,127,0
2,79,127,0
2,79,127,0
2,80,127,0
2,79,127,0
2,77,127,0
2,80,127,192
2,77,127,0
2,75,127,0
2,77,127,0
2,75,127,0
2,77,127,0
2,75,127,0
2,77,127,0
2,75,127,0
2,77,127,0
2,75,127,0
2,77,127,0
2,80,127,192
2,79,127,0
2,77,127,0
2,79,127,0
2,77,127,0
2,79,127,0
2,79,127,0
2,80,127,0
2,79,127,0
2,77,127,0
2,80,127,192
2,80,127,0
2,80,127,0
2,80,127,0
2,79,127,0
2,77,127,0
2,79,127,0
2,80,127,0
2,80,127,0
2,79,127,0
2,77,127,0
2,79,127,0
2,77,127,0
2,77,127,0
2,79,127,0
2,75,127,0
2,72,127,0
2,70,127,0
2,72,127,0
2,80,127,960
2,79,127,0
2,77,127,0
2,80,127,192
2,79,127,0
2,77,127,0
2,80,127,192
2,79,127,0
2,77,127,0
2,80,127,0
2,80,127,0
2,79,127,0
2,77,127,0
2,77,127,0
2,77,127,0
2,80,127,0
2,77,127,0
2,80,127,1728
2,79,127,0
2,77,127,0
2,80,127,192
2,79,127,0
2,77,127,0
2,80,127,192
2,79,127,0
2,77,127,0
2,80,127,0
2,80,127,0
2,79,127,0
2,77,127,0
2,77,127,0
2,77,127,0
2,77,127,192
2,80,127,2880
2,79,127,0
2,77,127,0
2,80,127,192
2,79,127,0
2,77,127,0
2,80,127,192
2,79,127,0
2,77,127,0
2,80,127,192
2,79,127,0
2,77,127,0
2,80,127,192
2,79,127,0
2,77,127,0
2,80,127,192
2,79,127,0
2,77,127,0
2,80,127,192
2,79,127,0
2,77,127,0
2,80,127,192
2,79,127,0
2,80,127,0
2,79,127,0
2,80,127,0
2,79,127,0
2,80,127,0
2,79,127,0
2,80,127,0
2,79,127,0
2,80,127,0
2,79,127,0
2,80,127,0
2,79,127,0
2,80,127,0
2,79,127,0
2,80,127,0
2,80,127,192
2,79,127,0
2,77,127,0
2,79,127,0
2,79,127,0
2,80,127,0
2,79,127,0
2,77,127,0
2,80,127,192
2,77,127,0
2,75,127,0
2,77,127,0
2,75,127,0
2,77,127,0
2,75,127,0
2,77,127,0
2,75,127,0
2,77,127,0
2,75,127,0
2,77,127,0
2,80,127,192
2,79,127,0
2,77,127,0
2,79,127,0
2,77,127,0
2,79,127,0
2,79,127,0
2,80,127,0
2,79,127,0
2,77,127,0
2,80,127,192
2,80,127,0
2,77,127,0
2,80,127,0
2,79,127,0
2,80,127,0
2,79,127,0
2,80,127,0
2,80,127,0
2,77,127,0
2,77,127,0
2,77,127,0
2,75,127,0
2,77,127,0
2,80,127,192
2,79,127,0
2,77,127,0
2,79,127,0
2,79,127,0
2,80,127,0
2,79,127,0
2,77,127,0
2,80,127,192
2,77,127,0
2,75,127,0
2,77,127,0
2,75,127,0
2,77,127,0
2,75,127,0
2,77,127,0
2,75,127,0
2,77,127,0
2,75,127,0
2,77,127,0
2,80,127,192
2,79,127,0
2,77,127,0
2,79,127,0
2,77,127,0
2,79,127,0
2,79,127,0
2,80,127,0
2,79,127,0
2,77,127,0
2,80,127,192
2,80,127,0
2,80,127,0
2,80,127,0
2,77,127,0
2,77,127,0
2,80,127,0
2,80,127,0
2,79,127,0
2,77,127,0
2,79,127,0
2,79,127,0
2,77,127,0
2,79,127,0
3,68,120,0
3,68,120,192
3,67,120,192
3,67,120,192
3,68,120,192
3,68,120,192
3,67,120,192
3,67,120,192
3,68,120,192
3,68,120,192
3,70,120,192
3,70,120,192
3,72,120,192
3,72,120,192
3,72,120,192
3,68,120,0
3,68,120,192
3,67,120,192
3,67,120,192
3,68,120,192
3,68,120,192
3,67,120,192
3,67,120,192
3,68,120,192
3,68,120,192
3,70,120,192
3,70,120,192
3,72,120,192
3,72,120,192
3,72,120,192
3,68,120,0
3,68,120,192
3,67,120,192
3,77,120,0
3,67,120,0
3,68,120,0
3,68,120,0
3,68,120,192
3,67,120,192
3,67,120,192
3,68,120,192
3,68,120,192
3,67,120,192
3,67,120,192
3,68,120,192
3,68,120,192
3,67,120,192
3,67,120,192
3,68,120,192
3,68,120,192
3,67,120,192
3,67,120,192
3,68,120,192
3,68,120,192
3,67,120,192
3,67,120,192
3,68,120,192
3,68,120,192
3,67,120,192
3,67,120,192
3,68,120,192
3,68,120,192
3,67,120,192
3,67,120,192
3,68,120,192
3,68,120,192
3,67,120,192
3,67,120,192
3,68,120,192
3,68,120,192
3,67,120,192
3,67,120,192
3,67,120,192
3,67,120,0
3,68,120,0
3,68,120,0
3,69,120,0
3,69,120,0
3,70,120,0
3,70,120,0
3,70,120,0
3,70,120,0
3,72,120,0
3,72,120,0
3,70,120,0
3,70,120,0
3,68,120,0
3,68,120,0
3,70,120,0
3,70,120,0
3,72,120,0
3,72,120,0
3,70,120,0
3,70,120,0
3,68,120,0
3,68,120,0
3,70,120,0
3,70,120,0
3,68,120,0
3,68,120,192
3,67,120,192
3,67,120,192
3,68,120,192
3,68,120,192
3,67,120,192
3,67,120,192
3,68,120,192
3,68,120,192
3,70,120,192
3,70,120,192
3,72,120,192
3,72,120,192
3,72,120,192
3,68,120,0
3,60,120,0
3,68,120,0
3,60,120,0
3,67,120,0
3,60,120,0
3,67,120,0
3,60,120,0
3,68,120,0
3,60,120,0
3,68,120,0
3,60,120,0
3,67,120,0
3,60,120,0
3,67,120,0
3,60,120,0
3,68,120,0
3,60,120,0
3,68,120,0
3,60,120,0
3,67,120,0
3,60,120,0
3,67,120,0
3,60,120,0
3,68,120,0
3,60,120,0
3,68,120,0
3,60,120,0
3,67,120,0
3,60,120,0
3,67,120,0
3,60,120,0
3,68,120,0
3,60,120,0
3,68,120,0
3,60,120,0
3,67,120,0
3,60,120,0
3,67,120,0
3,60,120,0
3,68,120,0
3,60,120,0
3,68,120,0
3,60,120,0
3,67,120,0
3,60,120,0
3,67,120,0
3,60,120,0
3,68,120,0
3,60,120,0
3,68,120,0
3,60,120,0
3,67,120,0
3,60,120,0
3,67,120,0
3,60,120,0
3,68,120,0
3,60,120,0
3,68,120,0
3,60,120,0
3,67,120,0
3,60,120,0
3,67,120,0
3,60,120,0
3,68,120,0
3,68,120,0
3,68,120,0
3,67,120,0
3,67,120,0
3,67,120,0
3,65,120,0
3,65,120,0
3,65,120,0
3,65,120,0
3,65,120,0
3,65,120,0
3,65,120,0
3,53,120,0
3,53,120,0
3,53,120,0
3,53,120,0
3,53,120,0
3,53,120,0
3,53,120,0
3,67,120,0
3,55,120,0
3,55,120,0
3,55,120,0
3,55,120,0
3,55,120,0
3,55,120,0
3,55,120,0
3,68,120,0
3,56,120,0
3,56,120,0
3,56,120,0
3,56,120,0
3,56,120,0
3,56,120,0
3,56,120,0
3,72,120,0
3,58,120,0
3,58,120,0
3,58,120,0
3,58,120,0
3,61,120,0
3,60,120,0
3,61,120,0
3,60,120,0
3,61,120,0
3,60,120,0
3,61,120,0
3,60,120,0
3,61,120,0
3,60,120,0
3,61,120,0
3,60,120,0
3,61,120,0
3,60,120,0
3,61,120,0
3,60,120,0
3,58,120,0
3,58,120,0
3,60,120,0
3,60,120,0
3,61,120,0
3,61,120,0
3,63,120,0
3,63,120,0
3,65,120,0
3,65,120,0
3,65,120,0
3,65,120,0
3,65,120,0
3,63,120,0
3,60,120,0
3,58,120,0
3,56,120,0
3,53,120,0
3,51,120,0
3,48,120,0
3,47,120,0
3,46,120,0
3,44,120,0
3,41,120,0
3,58,120,0
3,58,120,0
3,60,120,0
3,60,120,0
3,61,120,0
3,61,120,0
3,63,120,0
3,63,120,0
3,65,120,0
3,63,120,0
3,60,120,0
3,63,120,0
3,65,120,0
3,68,120,0
3,68,120,0
3,65,120,0
3,72,120,0
3,68,120,0
3,65,120,0
3,68,120,0
3,72,120,0
3,75,120,0
3,75,120,0
3,72,120,0
3,65,120,0
3,68,120,0
3,68,120,0
3,65,120,0
3,68,120,0
3,68,120,0
3,68,120,0
3,65,120,0
3,68,120,0
3,70,120,0
3,70,120,0
3,71,120,0
3,71,120,0
3,72,120,0
3,72,120,0
3,58,120,0
3,58,120,0
3,60,120,0
3,60,120,0
3,61,120,0
3,61,120,0
3,63,120,0
3,63,120,0
3,60,120,0
3,60,120,0
3,62,120,0
3,62,120,0
3,63,120,0
3,63,120,0
3,65,120,0
3,65,120,0
3,61,120,0
3,60,120,0
3,61,120,0
3,60,120,0
3,61,120,0
3,60,120,0
3,61,120,0
3,60,120,0
3,61,120,0
3,60,120,0
3,61,120,0
3,60,120,0
3,61,120,0
3,60,120,0
3,61,120,0
3,60,120,0
3,65,120,64
3,65,120,0
3,63,120,0
3,63,120,0
3,61,120,0
3,61,120,0
3,63,120,0
3,63,120,0
3,65,120,0
