track,note,velocity,time
1,68,120,0
1,68,120,192
1,67,120,192
1,67,120,192
1,68,120,192
1,68,120,192
1,67,120,192
1,67,120,192
1,68,120,192
1,68,120,192
1,70,120,192
1,70,120,192
1,72,120,192
1,72,120,192
1,72,120,192
1,68,120,0
1,68,120,192
1,67,120,192
1,67,120,192
1,68,120,192
1,68,120,192
1,67,120,192
1,67,120,192
1,68,120,192
1,68,120,192
1,70,120,192
1,70,120,192
1,72,120,192
1,72,120,192
1,72,120,192
1,68,120,0
1,68,120,192
1,67,120,192
1,77,120,0
1,67,120,0
1,68,120,0
1,68,120,0
1,68,120,192
1,67,120,192
1,67,120,192
1,68,120,192
1,68,120,192
1,67,120,192
1,67,120,192
1,68,120,192
1,68,120,192
1,67,120,192
1,67,120,192
1,68,120,192
1,68,120,192
1,67,120,192
1,67,120,192
1,68,120,192
1,68,120,192
1,67,120,192
1,67,120,192
1,68,120,192
1,68,120,192
1,67,120,192
1,67,120,192
1,68,120,192
1,68,120,192
1,67,120,192
1,67,120,192
1,68,120,192
1,68,120,192
1,67,120,192
1,67,120,192
1,68,120,192
1,68,120,192
1,67,120,192
1,67,120,192
1,67,120,192
1,67,120,0
1,68,120,0
1,68,120,0
1,69,120,0
1,69,120,0
1,70,120,0
1,70,120,0
1,70,120,0
1,70,120,0
1,72,120,0
1,72,120,0
1,70,120,0
1,70,120,0
1,68,120,0
1,68,120,0
1,70,120,0
1,70,120,0
1,72,120,0
1,72,120,0
1,70,120,0
1,70,120,0
1,68,120,0
1,68,120,0
1,70,120,0
1,70,120,0
1,68,120,0
1,68,120,192
1,67,120,192
1,67,120,192
1,68,120,192
1,68,120,192
1,67,120,192
1,67,120,192
1,68,120,192
1,68,120,192
1,70,120,192
1,70,120,192
1,72,120,192
1,72,120,192
1,72,120,192
1,68,120,0
1,60,120,0
1,68,120,0
1,60,120,0
1,67,120,0
1,60,120,0
1,67,120,0
1,60,120,0
1,68,120,0
1,60,120,0
1,68,120,0
1,60,120,0
1,67,120,0
1,60,120,0
1,67,120,0
1,60,120,0
1,68,120,0
1,60,120,0
1,68,120,0
1,60,120,0
1,67,120,0
1,60,120,0
1,67,120,0
1,60,120,0
1,68,120,0
1,60,120,0
1,68,120,0
1,60,120,0
1,67,120,0
1,60,120,0
1,67,120,0
1,60,120,0
1,68,120,0
1,60,120,0
1,68,120,0
1,60,120,0
1,67,120,0
1,60,120,0
1,67,120,0
1,60,120,0
1,68,120,0
1,60,120,0
1,68,120,0
1,60,120,0
1,67,120,0
1,60,120,0
1,67,120,0
1,60,120,0
1,68,120,0
1,60,120,0
1,68,120,0
1,60,120,0
1,67,120,0
1,60,120,0
1,67,120,0
1,60,120,0
1,68,120,0
1,60,120,0
1,68,120,0
1,60,120,0
1,67,120,0
1,60,120,0
1,67,120,0
1,60,120,0
1,68,120,0
1,68,120,0
1,68,120,0
1,67,120,0
1,67,120,0
1,67,120,0
1,65,120,0
1,65,120,0
1,65,120,0
1,65,120,0
1,65,120,0
1,65,120,0
1,65,120,0
1,53,120,0
1,53,120,0
1,53,120,0
1,53,120,0
1,53,120,0
1,53,120,0
1,53,120,0
1,67,120,0
1,55,120,0
1,55,120,0
1,55,120,0
1,55,120,0
1,55,120,0
1,55,120,0
1,55,120,0
1,68,120,0
1,56,120,0
1,56,120,0
1,56,120,0
1,56,120,0
1,56,120,0
1,56,120,0
1,56,120,0
1,72,120,0
1,58,120,0
1,58,120,0
1,58,120,0
1,58,120,0
1,61,120,0
1,60,120,0
1,61,120,0
1,60,120,0
1,61,120,0
1,60,120,0
1,61,120,0
1,60,120,0
1,61,120,0
1,60,120,0
1,61,120,0
1,60,120,0
1,61,120,0
1,60,120,0
1,61,120,0
1,60,120,0
1,58,120,0
1,58,120,0
1,60,120,0
1,60,120,0
1,61,120,0
1,61,120,0
1,63,120,0
1,63,120,0
1,65,120,0
1,65,120,0
1,65,120,0
1,65,120,0
1,65,120,0
1,63,120,0
1,60,120,0
1,58,120,0
1,56,120,0
1,53,120,0
1,51,120,0
1,48,120,0
1,47,120,0
1,46,120,0
1,44,120,0
1,41,120,0
1,58,120,0
1,58,120,0
1,60,120,0
1,60,120,0
1,61,120,0
1,61,120,0
1,63,120,0
1,63,120,0
1,65,120,0
1,63,120,0
1,60,120,0
1,63,120,0
1,65,120,0
1,68,120,0
1,68,120,0
1,65,120,0
1,72,120,0
1,68,120,0
1,65,120,0
1,68,120,0
1,72,120,0
1,75,120,0
1,75,120,0
1,72,120,0
1,65,120,0
1,68,120,0
1,68,120,0
1,65,120,0
1,68,120,0
1,68,120,0
1,68,120,0
1,65,120,0
1,68,120,0
1,70,120,0
1,70,120,0
1,71,120,0
1,71,120,0
1,72,120,0
1,72,120,0
1,58,120,0
1,58,120,0
1,60,120,0
1,60,120,0
1,61,120,0
1,61,120,0
1,63,120,0
1,63,120,0
1,60,120,0
1,60,120,0
1,62,120,0
1,62,120,0
1,63,120,0
1,63,120,0
1,65,120,0
1,65,120,0
1,61,120,0
1,60,120,0
1,61,120,0
1,60,120,0
1,61,120,0
1,60,120,0
1,61,120,0
1,60,120,0
1,61,120,0
1,60,120,0
1,61,120,0
1,60,120,0
1,61,120,0
1,60,120,0
1,61,120,0
1,60,120,0
1,65,120,0
1,65,120,0
1,63,120,0
1,63,120,0
1,61,120,0
1,61,120,0
1,63,120,0
1,63,120,0
1,65,120,0
1,65,120,0
1,63,120,0
1,63,120,0
1,61,120,0
1,61,120,0
1,63,120,0
1,63,120,0
1,65,120,0
1,65,120,0
1,63,120,0
1,63,120,0
1,61,120,0
1,61,120,0
1,63,120,0
1,63,120,0
1,65,120,0
1,65,120,0
1,63,120,0
1,63,120,0
1,65,120,0
1,65,120,0
1,65,120,0
1,65,120,0
1,61,120,0
1,60,120,0
1,61,120,0
1,60,120,0
1,61,120,0
1,60,120,0
1,61,120,0
1,60,120,0
1,61,120,0
1,60,120,0
1,61,120,0
1,60,120,0
1,61,120,0
1,60,120,0
1,61,120,0
1,60,120,0
1,67,120,0
1,60,120,0
1,67,120,0
1,60,120,0
1,67,120,0
1,60,120,0
1,67,120,0
1,60,120,0
1,67,120,0
1,60,120,0
1,67,120,0
1,60,120,0
1,67,120,0
1,60,120,0
1,67,120,0
1,60,120,0
1,67,120,0
1,60,120,0
1,67,120,0
1,60,120,0
1,67,120,0
1,60,120,0
1,67,120,0
1,60,120,0
1,67,119,0
1,60,116,0
1,67,114,0
1,60,88,0
1,67,63,0
1,60,38,0
1,67,25,0
1,60,12,0
2,65,120,0
2,60,120,0
2,65,120,0
2,60,120,0
2,63,120,0
2,60,120,0
2,63,120,0
2,60,120,0
2,65,120,0
2,60,120,0
2,65,120,0
2,60,120,0
2,65,120,0
2,60,120,0
2,65,120,0
2,60,120,0
2,65,120,0
2,60,120,0
2,65,120,0
2,60,120,0
2,67,120,0
2,60,120,0
2,67,120,0
2,60,120,0
2,68,120,0
2,60,120,0
2,68,120,0
2,60,120,0
2,68,120,0
2,65,120,0
2,60,120,0
2,65,120,0
2,60,120,0
2,63,120,0
2,60,120,0
2,63,120,0
2,60,120,0
2,65,120,0
2,60,120,0
2,65,120,0
2,60,120,0
2,65,120,0
2,60,120,0
2,65,120,0
2,60,120,0
2,65,120,0
2,60,120,0
2,65,120,0
2,60,120,0
2,67,120,0
2,60,120,0
2,67,120,0
2,60,120,0
2,68,120,0
2,60,120,0
2,68,120,0
2,60,120,0
2,68,120,0
2,65,120,0
2,60,120,0
2,65,120,0
2,60,120,0
2,63,120,0
2,60,120,0
2,63,120,0
2,60,120,0
2,65,120,0
2,60,120,0
2,65,120,0
2,60,120,0
2,65,120,0
2,60,120,0
2,65,120,0
2,60,120,0
2,65,120,0
2,60,120,0
2,65,120,0
2,60,120,0
2,63,120,0
2,60,120,0
2,63,120,0
2,60,120,0
2,65,120,0
2,60,120,0
2,65,120,0
2,60,120,0
2,65,120,0
2,60,120,0
2,65,120,0
2,60,120,0
2,65,120,0
2,60,120,0
2,65,120,0
2,60,120,0
2,63,120,0
2,60,120,0
2,63,120,0
2,60,120,0
2,65,120,0
2,60,120,0
2,65,120,0
2,60,120,0
2,65,120,0
2,60,120,0
2,65,120,0
2,60,120,0
2,65,120,0
2,60,120,0
2,65,120,0
2,60,120,0
2,63,120,0
2,60,120,0
2,63,120,0
2,60,120,0
2,65,120,0
2,60,120,0
2,65,120,0
2,60,120,0
2,65,120,0
2,60,120,0
2,65,120,0
2,60,120,0
2,65,120,0
2,60,120,0
2,65,120,0
2,60,120,0
2,65,120,0
2,60,120,0
2,64,120,0
2,60,120,0
2,65,120,0
2,60,120,0
2,65,120,0
2,60,120,0
2,65,120,0
2,60,120,0
2,65,120,0
2,60,120,0
2,64,120,0
2,64,120,0
2,65,120,0
2,65,120,0
2,66,120,0
2,66,120,0
2,67,120,0
2,67,120,0
2,67,120,0
2,67,120,0
2,68,120,0
2,68,120,0
2,67,120,0
2,67,120,0
2,65,120,0
2,65,120,0
2,67,120,0
2,67,120,0
2,68,120,0
2,68,120,0
2,67,120,0
2,67,120,0
2,65,120,0
2,65,120,0
2,67,120,0
2,67,120,0
2,65,120,0
2,60,120,0
2,65,120,0
2,60,120,0
2,63,120,0
2,60,120,0
2,63,120,0
2,60,120,0
2,65,120,0
2,60,120,0
2,65,120,0
2,60,120,0
2,65,120,0
2,60,120,0
2,65,120,0
2,60,120,0
2,65,120,0
2,60,120,0
2,65,120,0
2,60,120,0
2,67,120,0
2,60,120,0
2,67,120,0
2,60,120,0
2,68,120,0
2,60,120,0
2,68,120,0
2,60,120,0
2,68,120,0
2,65,120,0
2,65,120,192
2,63,120,192
2,63,120,192
2,65,120,192
2,65,120,192
2,65,120,192
2,65,120,192
2,65,120,192
2,65,120,192
2,63,120,192
2,63,120,192
2,65,120,192
2,65,120,192
2,63,120,192
2,63,120,192
2,65,120,192
2,65,120,192
2,63,120,192
2,63,120,192
2,65,120,192
2,65,120,192
2,63,120,192
2,63,120,192
2,65,120,192
2,65,120,192
2,63,120,192
2,63,120,192
2,65,120,192
2,65,120,192
2,63,120,192
2,63,120,192
2,65,120,192
2,65,120,0
2,65,120,0
2,63,120,0
2,63,120,0
2,63,120,0
2,61,120,0
2,61,120,0
2,61,120,0
2,63,120,0
2,63,120,0
2,63,120,0
2,60,120,0
2,63,120,672
2,65,120,672
2,68,120,672
2,58,120,672
2,55,120,0
2,58,120,0
2,55,120,0
2,58,120,0
2,55,120,0
2,58,120,0
2,55,120,0
2,58,120,0
2,55,120,0
2,58,120,0
2,55,120,0
2,58,120,0
2,55,120,0
2,58,120,0
2,55,120,0
2,53,120,0
2,53,120,0
2,55,120,0
2,55,120,0
2,56,120,0
2,56,120,0
2,58,120,0
2,58,120,0
2,60,120,0
2,60,120,0
2,60,120,0
2,60,120,0
2,53,120,1536
2,53,120,0
2,55,120,0
2,55,120,0
2,56,120,0
2,56,120,0
2,58,120,0
2,58,120,0
2,63,120,1632
2,63,120,0
2,63,120,96
2,63,120,0
2,63,120,0
2,63,120,96
2,65,120,0
2,65,120,0
2,66,120,0
2,66,120,0
2,65,120,0
2,65,120,0
2,53,120,0
2,53,120,0
2,55,120,0
2,55,120,0
2,56,120,0
2,56,120,0
2,58,120,0
2,58,120,0
2,57,120,0
2,57,120,0
2,59,120,0
2,59,120,0
2,60,120,0
2,60,120,0
2,62,120,0
2,62,120,0
2,58,120,0
2,55,120,0
2,58,120,0
2,55,120,0
2,58,120,0
2,55,120,0
2,58,120,0
2,55,120,0
2,58,120,0
2,55,120,0
2,58,120,0
2,55,120,0
2,58,120,0
2,55,120,0
2,58,120,0
2,55,120,0
2,60,120,0
2,60,120,0
2,58,120,0
2,58,120,0
2,56,120,0
2,56,120,0
2,58,120,0
2,58,120,0
2,60,120,0
2,60,120,0
2,58,120,0
2,58,120,0
2,56,120,0
2,56,120,0
2,58,120,0
2,58,120,0
2,60,120,0
2,60,120,0
2,58,120,0
2,58,120,0
2,56,120,0
2,56,120,0
2,58,120,0
2,58,120,0
2,60,120,0
2,60,120,0
2,58,120,0
2,58,120,0
2,60,120,0
2,60,120,0
2,61,120,0
2,61,120,0
2,58,120,0
2,55,120,0
2,58,120,0
2,55,120,0
2,58,120,0
2,55,120,0
2,58,120,0
2,55,120,0
2,58,120,0
2,55,120,0
2,58,120,0
2,55,120,0
2,58,120,0
2,55,120,0
2,58,120,0
2,55,120,0
2,65,120,0
2,65,120,192
2,65,120,192
2,65,120,192
2,65,120,192
2,65,120,192
2,65,120,192
2,65,120,192
2,65,120,192
2,65,120,192
2,65,120,192
2,65,120,192
2,65,119,192
2,65,114,192
2,65,63,192
2,65,12,192
3,62,120,1536
3,62,120,192
3,61,120,192
3,61,120,192
3,65,120,2496
3,62,120,1536
3,62,120,192
3,61,120,192
3,61,120,192
3,65,120,2496
3,62,120,1536
3,62,120,192
3,61,120,192
3,61,120,192
3,62,120,1728
3,62,120,192
3,61,120,192
3,61,120,192
3,62,120,1728
3,62,120,192
3,61,120,192
3,61,120,192
3,62,120,1728
3,62,120,192
3,61,120,192
3,61,120,192
3,62,120,192
3,62,120,192
3,62,120,192
3,60,120,192
3,62,120,192
3,62,120,192
3,61,120,192
3,61,120,192
3,60,120,192
3,60,120,0
3,61,120,0
3,61,120,0
3,62,120,0
3,62,120,0
3,64,120,0
3,64,120,0
3,64,120,0
3,64,120,0
3,65,120,0
3,65,120,0
3,63,120,0
3,63,120,0
3,61,120,0
3,61,120,0
3,63,120,0
3,63,120,0
3,65,120,0
3,65,120,0
3,63,120,0
3,63,120,0
3,61,120,0
3,61,120,0
3,63,120,0
3,63,120,0
3,62,120,1536
3,62,120,192
3,61,120,192
3,61,120,192
3,65,120,2496
3,62,120,1536
3,62,120,192
3,61,120,192
3,61,120,192
3,62,120,1728
3,62,120,192
3,61,120,192
3,61,120,192
3,62,120,1728
3,62,120,192
3,61,120,192
3,61,120,192
3,62,120,1728
3,62,120,192
3,61,120,192
3,61,120,192
3,60,120,192
3,60,120,0
3,60,120,0
3,58,120,0
3,58,120,0
3,58,120,0
3,56,120,0
3,56,120,0
3,56,120,0
3,58,120,0
3,58,120,0
3,58,120,0
3,56,120,0
3,58,120,672
3,60,120,672
3,65,120,672
3,53,120,672
3,52,120,0
3,53,120,0
3,52,120,0
3,53,120,0
3,52,120,0
3,53,120,0
3,52,120,0
3,53,120,0
3,52,120,0
3,53,120,0
3,52,120,0
3,53,120,0
3,52,120,0
3,53,120,0
3,52,120,0
3,50,120,0
3,50,120,0
3,52,120,0
3,52,120,0
3,53,120,0
3,53,120,0
3,55,120,0
3,55,120,0
3,56,120,0
3,56,120,0
3,56,120,0
3,56,120,0
3,50,120,1536
3,50,120,0
3,52,120,0
3,52,120,0
3,53,120,0
3,53,120,0
3,55,120,0
3,55,120,0
3,49,120,3072
3,49,120,0
3,51,120,0
3,51,120,0
3,53,120,0
3,53,120,0
3,55,120,0
3,55,120,0
3,53,120,0
3,53,120,0
3,55,120,0
3,55,120,0
3,56,120,0
3,56,120,0
3,58,120,0
3,58,120,0
3,53,120,0
3,52,120,0
3,53,120,0
3,52,120,0
3,53,120,0
3,52,120,0
3,53,120,0
3,52,120,0
3,53,120,0
3,52,120,0
3,53,120,0
3,52,120,0
3,53,120,0
3,52,120,0
3,53,120,0
3,52,120,0
3,56,120,0
3,56,120,0
3,55,120,0
3,55,120,0
3,53,120,0
3,53,120,0
3,55,120,0
3,55,120,0
3,56,120,0
3,56,120,0
3,55,120,0
3,55,120,0
3,53,120,0
3,53,120,0
3,55,120,0
3,55,120,0
3,56,120,0
3,56,120,0
3,55,120,0
3,55,120,0
3,53,120,0
3,53,120,0
3,55,120,0
3,55,120,0
3,56,120,0
3,56,120,0
3,55,120,0
3,55,120,0
3,56,120,0
3,56,120,0
3,56,120,0
3,56,120,0
3,53,120,0
3,52,120,0
3,53,120,0
3,52,120,0
3,53,120,0
3,52,120,0
3,53,120,0
3,52,120,0
3,53,120,0
