track,note,velocity,time
1,73,39,2496
1,71,39,8
1,73,61,8
1,71,61,8
1,73,61,8
1,71,61,8
1,73,61,8
1,71,61,8
1,73,61,8
1,71,61,8
1,73,61,8
1,71,61,8
1,73,39,24
1,71,61,8
1,73,61,8
1,71,61,8
1,73,61,8
1,71,61,8
1,73,61,8
1,71,61,8
1,76,61,56
1,73,61,0
1,73,61,32
1,76,61,0
1,71,61,16
1,74,61,0
1,69,61,16
1,73,61,352
1,73,61,16
1,71,61,8
1,73,61,8
1,71,61,8
1,73,61,8
1,71,61,8
1,73,61,8
1,71,61,8
1,73,61,8
1,71,61,8
1,73,61,8
1,73,39,16
1,71,39,8
1,73,39,8
1,71,39,8
1,73,61,8
1,73,61,16
1,71,61,8
1,73,61,16
1,73,61,24
1,71,61,16
1,69,61,16
1,74,61,64
1,76,61,192
1,76,61,16
1,76,61,16
1,78,61,16
1,76,61,0
1,81,61,16
1,78,61,160
1,81,61,8
1,81,61,8
1,83,61,0
1,81,61,16
1,81,61,160
1,81,61,8
1,81,61,8
1,76,61,8
1,78,61,8
1,76,61,352
1,76,61,16
1,76,61,8
1,76,61,24
1,78,61,0
1,81,61,16
1,78,61,160
1,81,61,8
1,81,61,8
1,83,61,0
1,81,61,16
1,81,61,112
1,81,61,16
1,78,61,8
1,81,61,8
1,78,61,96
1,81,61,16
1,86,61,16
1,83,61,0
1,81,61,32
1,85,61,0
1,80,61,128
1,83,61,0
1,78,61,32
1,81,61,0
1,76,61,128
1,80,61,0
1,78,61,16
1,74,61,0
1,76,61,80
1,80,61,0
1,74,61,16
1,78,61,0
1,77,61,16
1,73,61,0
1,74,61,16
1,73,61,8
1,73,61,16
1,77,61,8
1,71,61,0
1,69,61,16
1,73,61,192
1,76,61,16
1,80,61,16
1,80,61,16
1,81,61,0
1,78,61,96
1,81,61,16
1,81,61,16
1,83,61,0
1,81,61,24
1,81,61,96
1,83,61,16
1,83,61,16
1,85,61,0
1,86,61,32
1,85,61,8
1,83,61,8
1,81,61,0
1,83,61,16
1,86,61,0
1,85,61,0
1,81,61,0
1,81,61,32
1,85,61,0
1,78,61,128
1,81,61,0
1,80,61,0
1,83,61,0
1,78,61,32
1,81,61,0
1,76,61,128
1,80,61,0
1,78,61,16
1,74,61,0
1,78,61,80
1,74,61,0
1,80,61,0
1,76,61,0
1,74,61,16
1,78,61,0
1,73,61,16
1,77,61,0
1,74,61,24
1,73,61,0
1,71,61,16
1,77,61,0
1,69,61,16
1,78,61,192
1,81,61,16
1,81,61,8
1,80,61,24
1,78,61,0
1,76,61,0
1,85,61,112
1,85,61,8
1,83,61,0
1,73,61,120
1,80,61,16
1,83,61,16
1,80,61,16
1,81,61,16
1,80,61,48
1,78,61,32
1,78,61,16
1,77,61,96
1,71,64,264
1,73,64,8
1,71,64,8
1,73,64,8
1,71,64,8
1,73,64,16
1,71,64,16
1,73,64,8
1,71,64,8
1,73,64,8
1,71,64,8
1,73,64,16
1,71,64,16
1,73,64,8
1,71,64,8
1,73,64,8
1,71,64,8
1,73,64,8
1,71,64,8
1,73,64,56
1,73,64,24
1,71,64,8
1,69,64,16
1,76,64,208
1,85,64,8
1,83,64,0
1,81,64,24
1,81,64,64
1,78,64,16
1,81,64,16
1,79,64,8
1,81,64,8
1,79,64,8
1,81,64,8
1,78,64,8
1,81,64,8
1,78,64,8
1,81,64,8
1,81,64,8
1,81,64,8
1,85,64,8
1,81,64,64
1,78,64,8
1,81,64,8
1,78,64,0
1,81,64,32
1,78,64,16
1,81,64,8
1,76,64,392
1,76,64,16
1,76,64,16
1,78,64,16
1,81,64,16
1,78,64,112
1,81,64,8
1,81,64,8
1,78,64,8
1,83,64,8
1,81,64,0
1,81,64,16
1,81,64,112
1,81,64,16
1,81,64,16
1,76,64,8
1,78,64,8
1,83,64,160
1,84,64,160
1,83,64,16
1,81,64,16
1,78,64,8
1,81,64,8
1,83,64,8
1,85,64,8
1,85,64,88
1,81,64,16
1,78,64,8
1,85,64,16
1,83,64,8
1,81,64,8
1,78,64,8
1,85,64,16
1,83,64,8
1,81,64,16
1,78,64,8
1,81,64,8
1,81,64,16
1,81,64,8
1,83,64,16
1,85,64,8
1,78,64,32
1,81,64,16
1,83,61,16
1,86,61,0
1,85,61,0
1,81,61,0
1,81,61,32
1,85,61,0
1,78,61,128
1,81,61,0
1,80,61,0
1,83,61,0
1,78,61,32
1,81,61,0
1,76,61,128
1,80,61,0
1,78,61,16
1,74,61,0
1,78,61,80
1,74,61,0
1,80,61,0
1,76,61,0
1,74,61,16
1,78,61,0
1,73,61,16
1,77,61,0
1,74,61,24
1,73,61,0
1,71,61,16
1,77,61,0
1,69,61,16
1,73,61,192
1,76,61,16
1,80,61,16
1,80,61,16
1,81,61,0
1,78,61,96
1,81,61,16
1,81,61,16
1,83,61,0
1,81,61,24
1,81,61,96
1,83,61,16
1,83,61,16
1,85,61,0
1,86,61,32
1,85,61,8
1,83,61,8
1,81,61,0
1,83,61,16
1,86,61,0
1,85,61,0
1,81,61,0
1,81,61,32
1,85,61,0
1,78,61,128
1,81,61,0
1,80,61,0
1,83,61,0
1,78,61,32
1,81,61,0
1,76,61,128
1,80,61,0
1,78,61,16
1,74,61,0
1,78,61,80
1,74,61,0
1,80,61,0
1,76,61,0
1,74,61,16
1,78,61,0
1,73,61,16
1,77,61,0
1,74,61,24
1,73,61,0
1,71,61,16
1,77,61,0
1,69,61,16
1,78,61,192
1,71,64,0
1,81,61,16
1,73,64,0
1,81,61,8
1,74,64,0
1,80,61,24
1,76,64,0
1,52,64,0
1,52,64,0
1,78,61,0
1,73,64,0
1,76,61,0
1,71,64,0
1,85,61,112
1,85,61,8
1,83,61,0
1,78,64,144
1,80,61,8
1,73,64,0
1,83,61,16
1,76,64,0
1,80,61,16
1,77,64,0
1,81,61,16
1,78,64,0
1,73,64,0
1,80,61,48
1,76,64,0
1,71,64,0
1,78,61,32
1,74,64,0
1,69,64,0
1,78,61,16
1,74,64,0
1,69,64,0
1,77,61,96
1,73,64,192
1,73,64,16
1,76,64,16
1,80,64,16
1,81,64,16
1,78,64,128
1,81,64,16
1,83,64,16
1,81,64,128
1,83,64,16
1,85,64,16
1,81,64,4240
1,80,64,48
1,76,64,48
1,76,64,64
1,78,64,16
1,85,64,336
1,83,64,8
1,85,64,0
1,83,64,16
1,81,64,8
1,81,64,128
1,85,64,0
1,80,64,48
1,83,64,0
1,81,64,8
1,85,64,0
1,80,64,8
1,83,64,0
1,81,64,8
1,85,64,0
1,80,64,8
1,83,64,0
1,81,64,8
1,85,64,0
1,80,64,8
1,83,64,0
1,76,64,16
1,80,64,0
1,76,64,16
1,80,64,0
1,81,64,0
1,78,64,0
1,79,64,16
1,80,64,0
1,81,64,16
1,78,64,0
1,86,61,0
1,83,61,0
1,81,61,32
1,85,61,0
1,80,61,128
1,83,61,0
1,78,61,32
1,81,61,0
1,76,61,128
1,80,61,0
1,78,61,16
1,74,61,0
1,76,61,80
1,80,61,0
1,74,61,16
1,78,61,0
1,77,61,16
1,73,61,0
1,74,61,16
1,73,61,8
1,73,61,16
1,77,61,8
1,71,61,0
1,69,61,16
1,73,61,192
1,76,61,16
1,80,61,16
1,80,61,16
1,81,61,0
1,78,61,96
1,81,61,16
1,81,61,16
1,83,61,0
1,81,61,24
1,81,61,96
1,83,61,16
1,83,61,16
1,85,61,0
1,86,61,32
1,85,61,8
1,83,61,8
1,81,61,0
1,83,61,16
1,86,61,0
1,85,61,0
1,81,61,0
1,81,61,32
1,85,61,0
1,78,61,128
1,81,61,0
1,80,61,0
1,83,61,0
1,78,61,32
1,81,61,0
1,76,61,128
1,80,61,0
1,78,61,16
1,74,61,0
1,78,61,80
1,74,61,0
1,80,61,0
1,76,61,0
1,74,61,16
1,78,61,0
1,73,61,16
1,77,61,0
1,74,61,24
1,73,61,0
1,71,61,16
1,77,61,0
1,69,61,16
1,73,64,192
1,76,64,16
1,80,64,16
1,81,64,16
1,78,64,128
1,81,64,16
1,83,64,16
1,81,64,128
1,83,64,16
1,85,64,16
1,85,64,48
1,88,64,144
1,90,64,32
1,92,64,16
1,95,64,16
1,93,64,32
1,92,64,32
1,93,64,16
1,90,64,16
1,88,64,480
1,90,64,32
1,92,64,16
1,95,64,16
1,93,64,32
1,92,64,32
1,93,64,16
1,100,64,16
1,75,64,407
1,74,64,8
1,76,64,16
1,73,64,8
1,69,64,8
1,88,64,64
1,88,64,16
1,86,64,16
1,86,64,16
1,81,64,16
1,78,64,8
1,81,64,8
1,85,64,16
1,83,64,16
1,81,64,8
1,79,64,16
1,74,64,8
1,72,64,16
1,74,64,8
1,76,64,16
1,72,64,8
1,69,64,16
2,57,41,0
2,64,41,16
2,69,41,16
2,71,41,24
2,73,41,8
2,76,41,0
2,71,41,16
2,69,41,16
2,57,41,16
2,61,41,16
2,66,41,16
2,71,41,24
2,76,41,8
2,73,41,0
2,71,41,16
2,69,41,16
2,62,41,16
2,69,41,16
2,74,41,16
2,76,41,24
2,78,41,8
2,76,41,16
2,69,41,16
2,62,41,16
2,69,41,16
2,74,41,16
2,76,41,24
2,77,41,8
2,76,41,16
2,74,41,16
2,57,41,16
2,64,41,16
2,69,41,16
2,71,41,24
2,73,41,8
2,76,41,0
2,71,41,16
2,69,41,16
2,57,41,16
2,61,41,16
2,66,41,16
2,71,41,24
2,76,41,8
2,73,41,0
2,71,41,16
2,69,41,16
2,62,41,16
2,69,41,16
2,74,41,16
2,76,41,24
2,78,41,8
2,76,41,16
2,69,41,16
2,62,41,16
2,69,41,16
2,74,41,16
2,76,41,24
2,77,41,8
2,76,41,16
2,74,41,16
2,57,41,16
2,64,41,16
2,69,41,16
2,72,41,24
2,73,41,8
2,69,41,16
2,64,41,16
2,62,41,16
2,69,41,16
2,74,41,16
2,77,41,24
2,78,41,8
2,74,41,16
2,69,41,16
2,66,67,16
2,73,67,16
2,78,67,16
2,80,67,24
2,81,67,8
2,78,67,16
2,73,67,16
2,62,67,16
2,69,67,16
2,74,67,16
2,77,67,24
2,78,67,8
2,74,67,16
2,69,67,16
2,57,67,16
2,64,67,16
2,69,67,16
2,72,67,24
2,73,67,8
2,69,67,16
2,64,67,16
2,62,67,16
2,69,67,16
2,74,67,16
2,77,67,24
2,78,67,8
2,74,67,16
2,69,67,16
2,66,67,16
2,73,67,16
2,78,67,16
2,80,67,24
2,81,67,8
2,78,67,16
2,73,67,16
2,62,67,16
2,69,67,16
2,74,67,16
2,77,67,24
2,78,67,8
2,74,67,16
2,69,67,16
2,52,67,16
2,59,67,16
2,64,67,16
2,67,67,24
2,68,67,8
2,71,67,0
2,64,67,16
2,59,67,16
2,54,67,16
2,61,67,16
2,66,67,16
2,71,67,24
2,76,67,8
2,73,67,0
2,71,67,16
2,69,67,16
2,74,67,16
2,67,67,0
2,74,67,48
2,67,67,0
2,74,67,32
2,67,67,0
2,74,67,16
2,69,67,0
2,74,67,16
2,69,67,0
2,74,67,16
2,69,67,0
2,69,67,16
2,74,67,0
2,74,67,32
2,69,67,0
2,52,49,16
2,59,49,16
2,64,49,16
2,67,49,24
2,68,49,8
2,71,49,0
2,64,49,16
2,59,49,16
2,54,49,16
2,61,49,16
2,66,49,16
2,71,49,24
2,73,49,8
2,76,49,0
2,71,49,16
2,69,49,16
2,79,49,16
2,74,49,0
2,79,49,48
2,74,49,0
2,79,49,16
2,74,49,0
2,79,49,16
2,74,49,0
2,78,49,16
2,74,49,16
2,69,49,16
2,80,49,16
2,76,49,16
2,71,49,16
2,57,41,16
2,64,41,16
2,69,41,16
2,71,41,24
2,73,41,8
2,76,41,0
2,71,41,16
2,69,41,16
2,57,41,16
2,61,41,16
2,66,41,16
2,71,41,24
2,76,41,8
2,73,41,0
2,71,41,16
2,69,41,16
2,62,41,16
2,69,41,16
2,74,41,16
2,76,41,24
2,78,41,8
2,76,41,16
2,69,41,16
2,62,41,16
2,69,41,16
2,74,41,16
2,76,41,24
2,77,41,8
2,76,41,16
2,74,41,16
2,57,41,16
2,64,41,16
2,69,41,16
2,71,41,24
2,73,41,8
2,76,41,0
2,71,41,16
2,69,41,16
2,57,41,16
2,61,41,16
2,66,41,16
2,71,41,24
2,76,41,8
2,73,41,0
2,71,41,16
2,69,41,16
2,62,67,16
2,64,67,96
2,81,49,240
2,76,49,0
2,73,49,0
2,78,49,192
2,73,49,0
2,69,49,0
2,62,49,192
2,62,49,16
2,62,49,8
2,62,49,8
2,74,49,8
2,78,49,0
2,77,49,8
2,81,49,0
2,62,49,0
2,86,49,48
2,81,49,16
2,77,49,16
2,59,67,16
2,66,67,16
2,71,67,16
2,74,67,16
2,71,67,16
2,66,67,16
2,52,67,16
2,59,67,16
2,64,67,16
2,67,67,24
2,68,67,8
2,71,67,0
2,64,67,16
2,59,67,16
2,61,67,16
2,61,67,16
2,68,67,0
2,73,67,0
2,61,67,16
2,68,67,0
2,73,67,0
2,77,67,16
2,73,67,16
2,68,67,16
2,81,67,16
2,78,67,0
2,73,67,0
2,66,67,0
2,64,67,48
2,71,67,0
2,76,67,0
2,80,67,0
2,74,67,48
2,69,67,0
2,62,67,0
2,62,67,96
2,69,67,24
2,74,67,24
2,77,67,24
2,81,67,24
2,85,67,72
2,85,67,8
2,85,67,8
2,85,67,8
2,85,67,8
2,85,67,8
2,85,67,8
2,85,67,8
2,86,67,8
2,86,67,8
2,88,67,8
2,88,67,8
2,90,67,8
2,90,67,8
2,90,67,8
2,90,67,8
2,90,67,8
2,90,67,8
2,90,67,8
2,90,67,8
2,88,67,8
2,88,67,8
2,86,67,8
2,86,67,8
2,85,67,8
2,85,67,8
2,85,67,8
2,85,67,8
2,85,67,8
2,85,67,8
2,81,67,8
2,81,67,8
2,81,67,8
2,81,67,8
2,81,67,8
2,81,67,8
2,74,67,8
2,74,67,8
2,74,67,8
2,74,67,8
2,74,67,8
2,74,67,8
2,74,67,8
2,74,67,8
2,74,67,8
2,74,67,8
2,74,67,8
2,74,67,8
2,88,67,8
2,88,67,8
2,88,67,8
2,88,67,8
2,88,67,8
2,88,67,8
2,88,67,8
2,88,67,8
2,88,67,8
2,88,67,8
2,88,67,0
2,88,67,0
2,90,67,8
2,90,67,0
2,86,67,0
2,90,67,8
2,86,67,0
2,92,67,8
2,88,67,0
2,92,67,8
2,88,67,0
2,93,67,8
2,93,67,8
2,93,67,8
2,93,67,8
2,93,67,8
2,93,67,0
2,93,67,8
2,95,67,8
2,95,67,8
2,97,67,8
2,97,67,8
2,97,67,8
2,97,67,8
2,97,67,8
2,97,67,8
2,97,67,8
2,97,67,8
2,93,67,8
2,93,67,8
2,93,67,8
2,93,67,8
2,93,67,8
2,93,67,8
2,90,67,8
2,90,67,8
2,90,67,8
2,90,67,8
2,90,67,8
2,90,67,0
2,90,67,8
2,90,67,0
2,90,67,0
2,90,67,0
2,90,67,8
2,90,67,8
2,90,67,8
2,90,67,8
2,90,67,8
2,90,67,8
2,88,67,8
2,88,67,8
2,88,67,8
2,88,67,8
2,88,67,8
2,88,67,8
2,88,67,8
2,85,67,16
2,85,67,16
2,85,67,16
2,85,67,96
2,85,67,16
2,83,67,16
2,83,67,96
2,83,67,16
2,81,67,16
2,81,67,48
2,88,67,192
2,83,67,32
2,85,67,16
2,85,67,96
2,85,67,16
2,83,67,16
2,83,67,96
2,83,67,16
2,81,67,16
2,81,67,8
2,81,67,8
2,81,67,8
2,81,67,8
2,81,67,8
2,83,67,8
2,83,67,8
2,83,67,8
2,83,67,8
2,83,67,8
2,83,67,8
2,57,41,8
2,64,41,16
2,69,41,16
2,71,41,24
2,73,41,8
2,76,41,0
2,71,41,16
2,69,41,16
2,57,41,16
2,61,41,16
2,66,41,16
2,71,41,24
2,76,41,8
2,73,41,0
2,71,41,16
2,69,41,16
2,62,41,16
2,69,41,16
2,74,41,16
2,76,41,24
2,78,41,8
2,76,41,16
2,69,41,16
2,62,41,16
2,69,41,16
2,74,41,16
2,76,41,24
