track,note,velocity,time
0,37,64,669
0,37,0,118
0,37,64,266
0,37,0,118
0,37,64,266
0,37,0,118
0,37,64,266
0,37,0,118
0,57,54,554
0,64,67,6
0,57,0,42
0,64,0,6
0,64,85,19
0,57,67,10
0,57,0,125
0,64,0,0
0,57,47,38
0,64,67,16
0,57,0,83
0,64,0,16
0,64,67,410
0,57,63,6
0,57,0,61
0,64,0,0
0,57,67,29
0,64,79,6
0,57,0,128
0,64,0,23
0,64,69,22
0,57,55,16
0,57,0,112
0,64,0,3
0,57,55,365
0,64,63,10
0,64,0,48
0,57,0,3
0,64,63,32
0,57,79,6
0,57,0,141
0,64,0,3
0,57,55,32
0,64,67,7
0,57,0,102
0,64,0,16
0,64,55,371
0,57,63,16
0,64,0,55
0,57,0,3
0,57,69,22
0,64,79,7
0,57,0,115
0,64,0,13
0,64,67,25
0,57,67,10
0,64,0,147
0,57,0,3
0,31,106,23
0,76,81,9
0,81,102,7
0,42,70,9
0,31,0,13
0,32,93,3
0,57,55,7
0,64,63,9
0,42,0,39
0,32,0,19
0,33,81,3
0,81,0,19
0,76,0,10
0,57,0,35
0,64,0,3
0,76,81,23
0,81,102,6
0,42,37,3
0,64,79,10
0,57,69,6
0,42,0,55
0,81,0,70
0,76,0,3
0,64,0,10
0,57,0,3
0,42,60,42
0,57,54,3
0,64,69,13
0,42,0,64
0,57,0,70
0,64,0,32
0,42,37,10
0,62,47,3
0,55,63,6
0,42,0,55
0,55,0,83
0,62,0,0
0,42,77,29
0,55,51,16
0,62,67,6
0,42,0,80
0,55,0,51
0,62,0,16
0,64,69,29
0,42,48,10
0,57,67,3
0,42,0,64
0,64,0,64
0,57,0,3
0,57,46,38
0,42,70,13
0,64,67,10
0,42,0,83
0,57,0,48
0,64,0,3
0,64,37,29
0,72,118,0
0,64,67,3
0,57,69,3
0,42,39,10
0,42,0,38
0,33,0,42
0,64,0,67
0,57,0,3
0,42,70,42
0,42,0,61
0,64,0,16
0,72,0,57
0,64,26,39
0,72,102,0
0,42,37,3
0,57,55,4
0,66,79,9
0,42,0,55
0,64,0,83
0,42,60,38
0,62,52,16
0,71,96,0
0,72,0,22
0,42,0,45
0,62,0,93
0,66,0,0
0,57,0,6
0,42,37,10
0,69,87,0
0,50,67,10
0,60,30,3
0,71,0,19
0,42,0,26
0,60,0,51
0,59,63,67
0,50,0,10
0,42,77,0
0,67,79,3
0,72,99,0
0,69,0,7
0,64,15,3
0,42,0,67
0,50,79,99
0,42,48,10
0,67,0,6
0,59,0,0
0,42,0,58
0,64,0,70
0,42,70,48
0,69,96,0
0,60,26,3
0,57,67,0
0,50,0,6
0,66,79,0
0,72,0,16
0,61,30,32
0,60,0,16
0,67,96,10
0,42,0,3
0,69,0,13
0,61,0,83
0,42,39,3
0,42,0,48
0,66,0,74
0,57,0,0
0,31,100,57
0,57,43,13
0,42,70,3
0,76,85,4
0,81,97,3
0,64,79,6
0,31,0,10
0,32,88,3
0,42,0,48
0,67,0,3
0,32,0,7
0,33,78,3
0,81,0,16
0,76,0,3
0,57,0,45
0,64,0,3
0,64,66,29
0,81,102,6
0,76,85,0
0,42,37,7
0,57,67,3
0,42,0,61
0,81,0,48
0,76,0,3
0,64,0,19
0,57,0,13
0,57,63,22
0,64,79,13
0,42,60,10
0,42,0,80
0,57,0,64
0,64,0,22
0,62,79,19
0,42,37,7
0,55,69,3
0,42,0,61
0,55,0,73
0,62,0,0
0,55,46,32
0,62,79,13
0,42,77,3
0,42,0,96
0,55,0,48
0,62,0,16
0,64,67,29
0,42,48,6
0,57,63,4
0,42,0,64
0,33,0,57
0,57,0,13
0,64,0,13
0,57,45,32
0,42,70,16
0,64,79,3
0,33,115,10
0,42,0,70
0,33,0,16
0,32,92,3
0,32,0,13
0,31,89,3
0,57,0,13
0,31,0,3
0,64,0,3
0,30,86,4
0,30,0,9
0,29,84,7
0,29,0,16
0,28,81,3
0,72,112,0
0,57,79,3
0,64,20,3
0,64,85,0
0,42,39,7
0,28,0,3
0,27,78,3
0,27,0,13
0,26,76,3
0,26,0,13
0,42,0,3
0,25,75,3
0,25,0,13
0,24,75,3
0,24,0,23
0,23,74,3
0,23,0,29
0,22,71,3
0,57,0,13
0,64,0,3
0,22,0,16
0,21,70,6
0,42,70,29
0,50,69,10
0,42,0,64
0,21,0,3
0,64,0,29
0,72,0,48
0,57,63,32
0,50,0,6
0,64,33,3
0,42,37,0
0,66,79,7
0,72,102,0
0,42,0,55
0,64,0,67
0,66,0,45
0,57,0,3
0,42,60,6
0,62,52,7
0,50,79,0
0,71,88,0
0,72,0,16
0,42,0,48
0,62,0,54
0,50,0,3
0,69,98,0
0,42,37,7
0,60,20,3
0,50,67,0
0,71,0,29
0,42,0,32
0,60,0,22
0,69,0,96
0,59,55,3
0,64,30,0
0,72,112,0
0,67,79,3
0,42,77,0
0,50,0,3
0,42,0,80
0,42,48,99
0,50,79,7
0,59,0,3
0,67,0,3
0,42,0,58
0,64,0,73
0,60,30,0
0,69,96,0
0,57,79,3
0,42,70,3
0,50,0,13
0,66,79,0
0,72,0,13
0,61,33,51
0,67,100,3
0,60,0,7
0,42,0,6
0,69,0,3
0,61,0,103
0,42,39,0
0,42,0,38
0,66,0,3
0,57,0,0
0,35,125,13
0,35,0,64
0,38,125,10
0,31,107,3
0,31,0,32
0,32,89,6
0,76,81,7
0,38,0,3
0,67,0,3
0,81,102,3
0,35,125,0
0,57,63,7
0,42,70,0
0,64,79,3
0,38,125,0
0,32,0,45
0,33,79,3
0,42,0,13
0,76,0,6
0,81,0,10
0,35,0,54
0,38,0,10
0,57,0,3
0,64,0,19
0,76,88,3
0,81,97,7
0,64,63,16
0,42,37,0
0,57,69,6
0,42,0,58
0,81,0,35
0,76,0,3
0,64,0,32
0,57,0,10
0,57,55,35
0,64,69,3
0,42,60,3
0,38,127,7
0,42,0,80
0,38,0,54
0,57,0,3
0,64,0,23
0,62,69,19
0,42,37,6
0,55,55,7
0,42,0,64
0,55,0,67
0,62,0,3
0,55,55,42
0,62,67,6
0,42,77,3
0,42,0,90
0,55,0,51
0,62,0,16
0,64,79,29
0,57,63,3
0,42,48,10
0,42,0,64
0,57,0,64
0,64,0,16
0,33,0,13
0,57,54,6
0,64,69,19
0,42,70,10
0,38,127,3
0,33,97,16
0,42,0,64
0,38,0,19
0,64,0,45
0,57,0,6
0,72,112,0
0,64,67,3
0,57,65,4
0,42,39,0
0,64,42,6
0,42,0,35
0,33,0,64
0,57,0,32
0,64,0,13
0,50,95,32
0,42,70,3
0,42,0,74
0,64,0,19
0,72,0,64
0,57,63,19
0,72,112,0
0,66,85,0
0,42,37,3
0,64,42,3
0,50,0,7
0,42,0,64
0,64,0,61
0,66,0,41
0,57,0,0
0,50,79,7
0,62,52,0
0,71,88,0
0,42,60,0
0,38,127,3
0,72,0,32
0,42,0,45
0,38,0,35
0,62,0,29
0,50,0,3
0,69,96,0
0,50,85,9
0,60,42,7
0,42,37,0
0,71,0,22
0,42,0,42
0,60,0,16
0,72,102,0
0,59,63,3
0,69,0,4
0,67,79,6
0,42,77,3
0,64,37,7
0,50,0,0
0,42,0,86
0,50,85,90
0,59,0,3
0,67,0,6
0,42,48,3
0,42,0,68
0,64,0,83
0,69,88,0
0,57,63,9
0,60,26,10
0,50,0,3
0,66,70,3
0,42,70,7
0,38,127,0
0,72,0,6
0,61,26,42
0,60,0,3
0,67,84,16
0,69,0,13
0,42,0,3
0,38,0,35
0,61,0,48
0,42,39,26
0,42,0,41
0,66,0,7
0,57,0,3
0,43,97,77
0,43,0,32
0,44,89,3
0,76,88,16
0,81,102,3
0,64,79,13
0,57,63,0
0,42,70,0
0,67,0,22
0,44,0,7
0,45,78,3
0,42,0,32
0,81,0,22
0,76,0,16
0,57,0,45
0,64,0,19
0,42,37,16
0,64,63,7
0,76,85,3
0,81,102,3
0,57,69,3
0,42,0,58
0,81,0,38
0,76,0,7
0,64,0,25
0,57,0,10
0,57,55,32
0,64,69,3
0,42,60,13
0,38,127,0
0,42,0,80
0,38,0,32
0,57,0,22
0,64,0,26
0,62,69,19
0,42,37,3
0,55,55,10
0,42,0,61
0,55,0,70
0,62,0,3
0,55,55,39
0,62,67,9
0,42,77,7
0,42,0,86
0,55,0,51
0,62,0,16
0,64,79,29
0,57,63,3
0,42,48,7
0,42,0,64
0,57,0,64
0,45,0,3
0,64,0,13
0,57,54,22
0,64,69,19
0,42,70,7
0,38,127,3
0,45,112,16
0,42,0,64
0,45,0,22
0,44,97,3
0,44,0,10
0,43,96,3
0,43,0,7
0,42,94,0
0,38,0,9
0,42,0,7
0,41,92,3
0,57,0,0
0,64,0,3
0,41,0,10
0,40,89,3
0,40,0,19
0,39,82,0
0,72,118,0
0,64,67,0
0,64,26,4
0,57,65,0
0,42,39,0
0,39,0,3
0,38,81,3
0,38,0,16
0,37,77,3
0,37,0,16
0,42,0,3
0,36,77,4
0,36,0,25
0,35,75,3
0,35,0,42
0,34,72,3
0,57,0,16
0,34,0,7
0,33,72,0
0,64,0,6
0,50,95,32
0,38,127,10
0,42,56,6
0,33,0,45
0,42,0,0
0,42,46,13
0,64,0,41
0,42,0,10
0,38,0,0
0,72,0,3
0,42,52,13
0,42,0,35
0,72,112,0
0,57,63,3
0,66,85,10
0,64,37,3
0,35,125,0
0,50,0,10
0,42,44,0
0,42,0,38
0,42,42,19
0,42,0,39
0,64,0,19
0,42,46,3
0,35,0,29
0,42,0,16
0,66,0,3
0,57,0,0
0,50,79,10
0,62,58,0
0,71,88,0
0,42,44,0
0,38,127,16
0,42,0,29
0,72,0,3
0,42,40,16
0,42,0,45
0,62,0,6
0,42,36,3
0,38,0,29
0,50,0,13
0,42,0,3
0,60,30,16
0,42,40,3
0,69,87,0
0,35,125,9
0,50,85,3
0,42,0,29
0,71,0,3
0,42,40,13
0,60,0,32
0,42,0,13
0,42,44,19
0,35,0,29
0,42,0,29
0,69,0,6
0,42,35,3
0,72,112,0
0,59,63,0
0,64,42,3
0,67,79,3
0,50,0,13
0,38,127,0
0,42,0,22
0,42,32,16
0,42,0,58
0,42,34,6
0,38,0,32
0,42,0,23
0,42,46,16
0,59,0,3
0,50,85,0
0,67,0,6
0,42,0,48
0,42,28,7
0,42,0,48
0,42,52,16
0,72,0,16
0,64,0,6
0,42,0,29
0,59,63,6
0,72,96,0
0,60,33,6
0,42,44,0
0,50,0,3
0,67,70,0
0,45,112,26
0,42,0,19
0,42,48,13
0,60,0,19
0,61,30,3
0,42,0,26
0,45,0,6
0,44,97,3
0,44,0,10
0,43,96,3
0,42,40,0
0,43,0,7
0,42,94,0
0,42,0,16
0,41,92,0
0,42,0,16
0,41,0,3
0,40,89,3
0,61,0,3
0,42,40,7
0,40,0,6
0,39,82,6
0,39,0,7
0,38,81,3
0,38,0,19
0,37,77,3
0,42,0,0
0,37,0,13
0,42,32,3
0,36,77,4
0,67,0,0
0,59,0,3
0,36,0,22
0,35,75,3
0,42,0,13
0,42,46,19
0,35,0,13
0,34,72,3
0,72,0,4
0,34,0,16
0,33,72,3
0,42,0,16
0,33,0,6
0,81,102,13
0,42,40,3
0,35,125,0
0,57,63,7
0,49,84,0
0,64,79,3
0,33,125,3
0,45,110,0
0,57,110,10
0,49,0,41
0,42,0,10
0,57,0,54
0,45,0,0
0,35,0,13
0,57,0,13
0,81,0,16
0,64,0,6
0,81,102,3
0,45,104,4
0,42,25,9
0,64,63,7
0,42,56,0
0,42,0,3
0,57,104,3
0,57,69,3
0,42,0,26
0,42,26,64
0,64,0,38
0,57,0,10
0,42,0,6
0,48,110,16
0,57,55,10
0,81,0,3
0,64,69,3
0,60,110,3
0,42,83,0
0,42,38,7
0,42,0,3
0,38,127,0
0,81,85,3
0,57,0,0
0,45,0,0
0,42,0,61
0,38,0,67
0,57,0,3
0,81,0,7
0,49,104,9
0,64,0,7
0,61,104,6
0,48,0,16
0,31,104,3
0,79,92,0
0,62,69,0
0,55,55,7
0,42,22,0
0,42,0,3
0,60,0,3
0,42,47,0
0,33,0,16
0,42,0,16
0,42,32,48
0,42,0,45
0,55,0,3
0,62,0,0
0,31,0,10
0,49,0,16
0,52,110,0
0,61,0,13
0,64,110,0
0,55,55,0
0,35,125,0
0,62,67,3
0,31,110,13
0,42,40,0
0,42,44,0
0,42,0,3
0,42,0,61
0,35,0,0
0,55,0,73
0,79,0,10
0,62,0,13
0,54,104,6
0,52,0,13
0,64,79,0
0,31,0,3
0,81,97,3
0,64,0,0
0,66,104,0
0,57,63,3
0,42,64,0
0,35,125,0
0,42,20,4
0,33,120,3
0,42,0,0
0,42,0,38
0,42,25,55
0,54,0,22
0,57,0,10
0,35,0,6
0,42,0,10
0,64,0,3
0,66,0,6
0,81,0,13
0,57,54,3
0,64,69,16
0,42,38,3
0,42,83,4
0,42,0,3
0,38,127,0
0,42,0,70
0,42,25,16
0,38,0,55
0,57,0,3
0,42,0,3
0,64,0,3
0,38,127,16
0,64,67,16
0,42,51,3
0,42,22,4
0,57,65,3
0,42,0,0
0,42,0,38
0,42,30,48
0,33,0,45
0,57,0,3
0,42,0,13
0,64,0,3
0,26,122,23
0,35,125,9
0,50,95,3
0,42,51,4
0,42,40,3
0,42,0,3
0,42,0,58
0,35,0,70
0,57,63,38
0,66,85,10
0,42,25,3
0,50,0,7
0,42,51,0
0,42,0,3
0,38,125,3
0,26,0,19
0,42,0,7
0,42,26,57
0,42,0,64
0,66,0,16
0,57,0,0
0,50,79,3
0,42,83,13
0,42,38,10
0,38,127,0
0,42,0,3
0,41,127,16
0,38,0,19
0,42,0,32
0,38,0,61
0,50,0,16
0,42,127,29
0,50,85,9
0,38,0,4
0,42,22,0
0,42,51,3
0,42,0,3
0,28,110,3
0,41,0,13
0,42,0,19
0,42,32,48
0,42,0,45
0,42,0,16
0,59,63,19
0,40,127,13
0,67,79,0
0,35,125,3
0,42,40,10
0,42,45,0
0,50,0,3
0,42,0,0
0,40,125,13
0,28,0,35
0,42,0,3
0,35,0,16
0,59,0,106
0,50,85,0
0,35,125,6
0,67,0,7
0,42,56,3
0,42,20,0
0,42,0,3
0,42,0,42
0,42,25,48
0,35,0,38
0,42,0,10
0,59,63,25
0,50,0,16
0,67,70,3
0,42,38,0
0,42,88,4
0,42,0,3
0,38,127,0
0,43,127,3
0,31,104,10
0,40,0,16
0,40,0,3
0,42,0,45
0,42,25,9
0,38,0,55
0,42,0,6
0,44,127,16
0,32,104,10
0,42,44,9
0,42,22,7
0,42,0,3
0,43,0,13
0,31,0,3
0,42,0,22
0,67,0,7
0,59,0,3
0,42,30,45
0,42,0,54
0,44,0,3
0,35,125,32
0,57,110,3
0,32,0,4
0,33,125,0
0,81,97,0
0,64,79,0
0,57,63,0
0,42,47,0
0,42,40,0
0,42,0,3
0,45,110,6
0,42,0,42
0,57,0,38
0,81,0,26
0,45,0,6
0,35,0,13
0,57,0,13
0,64,0,22
0,45,104,7
0,81,107,6
0,57,104,0
0,42,47,3
0,64,63,7
0,42,25,0
0,42,0,3
0,57,69,6
0,42,0,26
0,42,26,54
0,64,0,48
0,81,0,3
0,57,0,4
0,42,0,9
0,57,0,10
0,48,110,6
0,81,102,7
0,57,55,0
0,60,110,3
0,64,69,6
0,42,38,7
0,42,88,3
0,38,127,0
0,42,0,3
0,45,0,10
0,42,0,57
0,38,0,61
0,57,0,3
0,81,0,3
0,49,104,20
0,64,0,3
0,61,104,3
0,79,102,16
0,62,69,0
0,48,0,3
0,31,104,3
0,42,49,0
0,60,0,7
0,42,0,0
0,55,55,3
0,42,22,0
0,33,0,16
0,42,0,19
0,42,32,48
0,42,0,48
0,55,0,3
0,62,0,0
0,31,0,7
0,79,0,16
0,49,0,3
0,61,0,3
0,79,102,3
0,52,110,0
0,64,110,7
0,55,55,0
0,35,125,6
0,62,67,3
0,42,48,4
0,42,40,0
0,31,110,3
0,42,0,0
0,42,0,64
0,35,0,6
0,79,0,61
0,55,0,3
