track,note,velocity,time
0,42,110,95
0,42,0,22
0,35,88,0
0,42,88,0
0,54,56,0
0,38,98,0
0,57,104,0
0,66,110,0
0,62,112,1
0,54,0,11
0,42,0,0
0,35,0,0
0,35,104,36
0,42,56,0
0,54,40,0
0,54,0,12
0,42,0,0
0,35,0,0
0,66,0,24
0,62,0,5
0,57,0,1
0,40,127,6
0,42,56,0
0,54,72,0
0,38,0,3
0,54,0,9
0,42,0,0
0,40,0,0
0,42,56,36
0,54,56,0
0,38,91,1
0,54,0,11
0,42,0,0
0,35,104,36
0,42,88,0
0,54,72,0
0,38,0,0
0,55,96,2
0,60,109,1
0,64,104,0
0,36,93,1
0,54,0,8
0,42,0,0
0,35,0,0
0,42,72,36
0,54,56,0
0,54,0,12
0,42,0,0
0,64,0,23
0,55,0,1
0,60,0,6
0,40,120,6
0,42,104,0
0,54,72,0
0,36,0,5
0,54,0,7
0,42,0,0
0,40,0,0
0,42,104,36
0,54,40,0
0,36,91,0
0,54,0,12
0,42,0,0
0,36,0,24
0,35,88,12
0,42,88,0
0,54,56,0
0,31,96,1
0,55,91,0
0,59,104,1
0,62,98,0
0,54,0,10
0,42,0,0
0,35,0,0
0,35,104,36
0,42,56,0
0,54,40,0
0,54,0,12
0,42,0,0
0,35,0,0
0,40,127,36
0,42,56,0
0,54,72,0
0,62,0,8
0,31,0,3
0,55,0,0
0,54,0,1
0,42,0,0
0,40,0,0
0,59,0,1
0,42,56,35
0,54,56,0
0,31,96,1
0,59,104,5
0,62,98,0
0,55,98,0
0,54,0,6
0,42,0,0
0,62,0,29
0,59,0,2
0,31,0,1
0,35,104,4
0,42,88,0
0,54,72,0
0,38,83,1
0,55,0,4
0,54,0,7
0,42,0,0
0,35,0,0
0,38,0,32
0,42,72,4
0,54,56,0
0,31,86,1
0,59,96,4
0,62,96,1
0,55,88,0
0,54,0,6
0,42,0,0
0,31,0,20
0,55,0,12
0,62,0,1
0,59,0,1
0,40,120,2
0,42,104,0
0,54,72,0
0,45,88,1
0,54,0,11
0,42,0,0
0,40,0,0
0,42,104,36
0,54,40,0
0,43,88,2
0,55,83,1
0,62,86,0
0,59,88,1
0,54,0,8
0,42,0,0
0,45,0,3
0,55,0,9
0,59,0,2
0,62,0,1
0,43,0,19
0,35,88,2
0,42,88,0
0,54,56,0
0,38,98,3
0,57,96,0
0,62,96,1
0,66,97,0
0,54,0,8
0,42,0,0
0,35,0,0
0,35,104,36
0,42,56,0
0,54,40,0
0,54,0,12
0,42,0,0
0,35,0,0
0,66,0,21
0,62,0,1
0,57,0,5
0,40,127,9
0,42,56,0
0,54,72,0
0,38,0,2
0,54,0,10
0,42,0,0
0,40,0,0
0,42,56,36
0,54,56,0
0,38,96,1
0,54,0,11
0,42,0,0
0,35,104,36
0,42,88,0
0,54,72,0
0,38,0,2
0,36,98,2
0,55,96,2
0,60,104,0
0,64,104,0
0,54,0,6
0,42,0,0
0,35,0,0
0,42,72,36
0,54,56,0
0,54,0,12
0,42,0,0
0,64,0,26
0,55,0,6
0,60,0,2
0,40,120,2
0,42,104,0
0,54,72,0
0,36,0,7
0,54,0,5
0,42,0,0
0,40,0,0
0,42,104,36
0,54,40,0
0,36,96,1
0,54,0,11
0,42,0,0
0,36,0,34
0,35,88,2
0,42,88,0
0,54,56,0
0,31,101,4
0,59,101,0
0,55,86,0
0,62,96,1
0,54,0,7
0,42,0,0
0,35,0,0
0,35,104,36
0,42,56,0
0,54,40,0
0,54,0,12
0,42,0,0
0,35,0,0
0,55,0,27
0,62,0,6
0,31,0,1
0,40,127,2
0,42,56,0
0,54,72,0
0,59,0,1
0,54,0,11
0,42,0,0
0,40,0,0
0,42,56,36
0,54,56,0
0,31,86,1
0,59,104,1
0,62,98,0
0,55,91,1
0,54,0,9
0,42,0,0
0,31,0,15
0,62,0,14
0,59,0,0
0,55,0,6
0,35,104,1
0,42,88,0
0,54,72,0
0,31,86,3
0,54,0,9
0,42,0,0
0,35,0,0
0,33,83,1
0,42,72,1
0,54,56,0
0,62,93,1
0,59,104,1
0,55,88,0
0,59,83,4
0,59,83,0
0,31,0,1
0,54,0,4
0,42,0,0
0,40,120,3
0,42,104,0
0,54,72,0
0,35,98,2
0,62,0,1
0,59,0,2
0,54,0,7
0,42,0,0
0,40,0,0
0,59,0,27
0,59,0,0
0,35,0,8
0,42,104,1
0,54,40,0
0,31,86,1
0,62,76,0
0,62,76,0
0,54,0,11
0,42,0,0
0,31,0,25
0,35,88,11
0,42,88,0
0,54,56,0
0,66,97,3
0,62,109,0
0,38,86,1
0,57,98,0
0,54,0,8
0,42,0,0
0,35,0,0
0,35,104,36
0,42,56,0
0,54,40,0
0,54,0,12
0,42,0,0
0,35,0,0
0,66,0,27
0,40,127,9
0,42,56,0
0,54,72,0
0,62,0,4
0,57,0,1
0,42,56,18
0,54,56,0
0,38,96,1
0,54,0,11
0,42,0,0
0,35,104,36
0,42,88,0
0,54,72,0
0,55,88,3
0,36,104,1
0,60,104,0
0,38,0,1
0,64,98,0
0,54,0,7
0,42,0,0
0,35,0,0
0,42,72,2
0,54,56,0
0,59,83,4
0,59,83,0
0,54,0,8
0,42,0,0
0,40,120,7
0,42,104,0
0,54,72,0
0,36,0,6
0,54,0,6
0,42,0,0
0,40,0,0
0,59,0,28
0,59,0,0
0,42,104,8
0,54,40,0
0,36,101,1
0,50,76,2
0,50,76,1
0,54,0,8
0,42,0,0
0,36,0,33
0,35,88,3
0,42,88,0
0,54,56,0
0,31,93,4
0,62,98,0
0,59,101,0
0,55,83,1
0,54,0,7
0,42,0,0
0,35,0,0
0,35,104,36
0,42,56,0
0,54,40,0
0,54,0,12
0,42,0,0
0,35,0,0
0,55,0,32
0,40,127,4
0,42,56,0
0,54,72,0
0,62,0,1
0,59,0,3
0,31,0,5
0,54,0,3
0,42,0,0
0,40,0,0
0,42,56,36
0,54,56,0
0,31,91,1
0,59,96,0
0,62,93,1
0,55,83,0
0,54,0,10
0,42,0,0
0,59,0,30
0,62,0,1
0,55,0,2
0,35,104,3
0,42,88,0
0,54,72,0
0,54,0,12
0,42,0,0
0,35,0,0
0,50,0,4
0,50,0,0
0,31,0,15
0,42,72,17
0,54,56,0
0,62,98,0
0,59,104,0
0,59,76,0
0,33,98,1
0,59,76,0
0,55,91,1
0,54,0,10
0,42,0,0
0,59,0,26
0,59,0,0
0,55,0,2
0,62,0,6
0,40,120,2
0,42,104,0
0,54,72,0
0,59,0,0
0,35,91,4
0,33,0,6
0,54,0,2
0,42,0,0
0,40,0,0
0,35,0,32
0,42,104,4
0,54,40,0
0,31,83,1
0,54,0,11
0,42,0,0
0,31,0,29
0,35,88,7
0,42,88,0
0,54,56,0
0,38,96,3
0,66,93,1
0,57,98,0
0,62,104,1
0,54,0,7
0,42,0,0
0,35,0,0
0,35,104,36
0,42,56,0
0,54,40,0
0,54,0,12
0,42,0,0
0,35,0,0
0,66,0,29
0,57,0,4
0,62,0,1
0,40,127,2
0,42,56,0
0,54,72,0
0,38,0,6
0,54,0,6
0,42,0,0
0,40,0,0
0,42,56,36
0,54,56,0
0,38,96,1
0,54,0,11
0,42,0,0
0,35,104,36
0,42,88,0
0,54,72,0
0,36,98,2
0,55,91,2
0,60,104,1
0,64,101,0
0,54,0,7
0,42,0,0
0,35,0,0
0,38,0,0
0,42,72,36
0,54,56,0
0,54,0,12
0,42,0,0
0,55,0,24
0,64,0,9
0,40,120,3
0,42,104,0
0,54,72,0
0,60,0,2
0,36,0,6
0,54,0,4
0,42,0,0
0,40,0,0
0,42,104,36
0,54,40,0
0,36,96,1
0,54,0,11
0,42,0,0
0,36,0,31
0,35,88,5
0,42,88,0
0,54,56,0
0,31,98,1
0,55,86,1
0,59,98,1
0,62,98,1
0,54,0,8
0,42,0,0
0,35,0,0
0,35,104,36
0,42,56,0
0,54,40,0
0,54,0,12
0,42,0,0
0,35,0,0
0,55,0,31
0,31,0,1
0,40,127,4
0,42,56,0
0,54,72,0
0,62,0,0
0,59,0,2
0,54,0,10
0,42,0,0
0,40,0,0
0,42,56,36
0,54,56,0
0,31,88,0
0,59,101,2
0,62,93,0
0,55,83,1
0,54,0,9
0,42,0,0
0,31,0,10
0,62,0,19
0,59,0,0
0,35,104,7
0,42,88,0
0,54,72,0
0,31,93,1
0,55,0,3
0,54,0,8
0,42,0,0
0,35,0,0
0,42,72,36
0,54,56,0
0,62,98,1
0,38,79,1
0,59,96,0
0,55,93,0
0,31,0,6
0,54,0,4
0,42,0,0
0,55,0,29
0,38,0,5
0,62,0,1
0,40,120,1
0,42,104,0
0,54,72,0
0,43,91,1
0,59,0,0
0,54,0,11
0,42,0,0
0,40,0,0
0,42,104,36
0,54,40,0
0,31,83,1
0,43,0,2
0,54,0,9
0,42,0,0
0,31,0,24
0,74,73,0
0,35,88,1
0,42,88,0
0,54,56,0
0,66,89,1
0,57,93,1
0,62,98,0
0,38,93,1
0,35,104,21
0,42,56,0
0,54,40,0
0,54,0,12
0,42,0,0
0,35,0,0
0,40,127,36
0,42,56,0
0,54,72,0
0,38,0,3
0,66,0,4
0,62,0,4
0,54,0,1
0,42,0,0
0,40,0,0
0,57,0,2
0,74,0,26
0,42,56,8
0,54,56,0
0,38,93,1
0,72,83,0
0,54,0,7
0,42,0,0
0,38,0,33
0,35,104,3
0,42,88,0
0,54,72,0
0,36,98,2
0,60,109,1
0,55,96,0
0,64,101,1
0,54,0,8
0,42,0,0
0,35,0,0
0,72,0,15
0,42,72,21
0,54,56,0
0,72,88,0
0,54,0,10
0,42,0,0
0,72,0,23
0,55,0,4
0,64,0,8
0,72,93,0
0,40,120,0
0,42,104,0
0,54,72,0
0,60,0,2
0,36,0,6
0,54,0,4
0,42,0,0
0,40,0,0
0,42,104,36
0,54,40,0
0,36,98,0
0,72,0,8
0,54,0,4
0,42,0,0
0,36,0,35
0,67,88,0
0,35,88,0
0,42,88,0
0,54,56,0
0,31,93,2
0,59,101,0
0,55,91,0
0,62,93,0
0,54,0,10
0,42,0,0
0,35,0,0
0,67,0,17
0,67,73,0
0,35,104,2
0,42,56,0
0,54,40,0
0,54,0,12
0,42,0,0
0,35,0,0
0,67,0,19
0,67,81,0
0,40,127,2
0,42,56,0
0,54,72,0
0,31,0,7
0,54,0,5
0,42,0,0
0,40,0,0
0,55,0,8
0,62,0,1
0,59,0,3
0,42,56,24
0,54,56,0
0,31,83,1
0,62,83,1
0,59,86,0
0,55,56,2
0,54,0,8
0,42,0,0
0,67,0,4
0,31,0,10
0,55,0,18
0,59,0,2
0,62,0,1
0,35,104,1
0,42,88,0
0,54,72,0
0,67,96,0
0,31,96,0
0,54,0,11
0,42,0,0
0,35,0,0
0,62,91,1
0,59,93,1
0,42,72,1
0,54,56,0
0,55,81,0
0,55,81,0
0,55,81,1
0,40,120,12
0,42,104,0
0,54,72,0
0,55,0,0
0,31,98,2
0,54,0,10
0,42,0,0
0,40,0,0
0,59,0,0
0,62,0,1
0,55,0,9
0,55,0,1
0,67,0,9
0,42,104,11
0,54,40,0
0,57,69,1
0,57,69,1
0,54,0,10
0,42,0,0
0,31,0,24
0,35,88,12
0,42,88,0
0,54,56,0
0,38,96,1
0,57,96,1
0,66,97,0
0,62,101,0
0,54,0,10
0,42,0,0
0,35,0,0
0,35,104,36
0,42,56,0
0,54,40,0
0,40,127,6
0,42,56,0
0,54,72,0
0,38,0,6
0,54,0,6
0,42,0,0
0,40,0,0
0,57,0,1
0,57,0,1
0,42,56,31
0,54,56,0
0,38,96,1
0,54,0,11
0,42,0,0
0,35,104,36
0,42,88,0
0,54,72,0
0,55,96,3
0,60,109,0
0,36,96,1
0,64,104,0
0,38,0,6
0,54,0,2
0,42,0,0
0,35,0,0
0,42,72,36
0,54,56,0
0,67,88,0
0,54,0,11
0,42,0,0
0,67,0,13
0,55,0,10
0,64,0,3
0,60,0,3
0,40,120,7
0,42,104,0
0,54,72,0
0,67,88,0
0,54,0,11
0,42,0,0
0,40,0,0
0,36,0,3
0,42,104,33
0,54,40,0
0,36,96,4
0,54,0,8
0,42,0,0
0,67,0,13
0,69,88,0
0,36,0,0
0,35,88,3
0,42,88,0
0,54,56,0
0,62,96,2
0,55,91,1
0,31,93,1
0,59,98,0
0,54,0,8
0,42,0,0
0,35,0,0
0,69,0,32
0,71,98,0
0,35,104,0
0,42,56,0
0,54,40,0
0,54,0,12
0,42,0,0
0,35,0,0
0,55,0,26
0,62,0,5
0,71,0,1
0,59,0,0
0,69,88,0
0,40,127,1
0,42,56,0
0,54,72,0
0,31,0,5
0,54,0,7
0,42,0,0
0,40,0,0
0,42,56,36
0,54,56,0
0,31,93,1
0,62,96,0
0,59,98,1
0,55,88,0
0,54,0,10
0,42,0,0
0,69,0,30
0,62,0,2
0,59,0,1
0,35,104,3
0,42,88,0
0,54,72,0
0,55,0,1
0,71,88,0
0,54,0,10
0,42,0,0
0,35,0,0
0,69,86,7
0,71,0,5
0,31,0,13
0,67,88,2
0,69,0,1
0,42,72,8
0,54,56,0
0,62,101,0
0,38,96,1
0,59,98,0
0,55,86,1
0,59,67,1
0,59,67,0
0,40,120,1
0,42,104,0
0,54,72,0
0,43,93,1
0,42,104,33
0,54,40,0
0,31,88,1
0,57,73,0
0,57,73,0
0,43,0,4
0,54,0,7
0,42,0,0
0,35,88,11
0,42,88,0
0,54,56,0
0,38,96,1
0,57,96,1
0,62,101,0
0,66,93,0
0,54,0,10
0,42,0,0
0,35,0,0
0,35,104,7
0,42,56,0
0,54,40,0
0,54,0,12
0,42,0,0
0,35,0,0
0,66,0,25
0,57,0,4
0,62,0,1
0,40,127,6
0,42,56,0
0,54,72,0
0,38,0,0
0,57,0,1
0,57,0,0
0,42,56,36
0,54,56,0
0,38,96,0
0,54,0,12
0,42,0,0
0,35,104,36
0,42,88,0
0,54,72,0
0,36,101,1
0,55,98,2
0,60,109,1
0,64,104,0
0,38,0,1
0,54,0,7
0,42,0,0
0,35,0,0
0,42,72,36
0,54,56,0
0,54,0,12
0,42,0,0
0,64,0,25
0,55,0,1
0,60,0,4
0,40,120,6
0,42,104,0
0,54,72,0
0,36,0,7
0,54,0,5
0,42,0,0
0,40,0,0
0,42,104,3
0,54,40,0
0,36,96,1
0,74,91,0
0,54,0,9
0,42,0,0
0,35,88,6
0,42,88,0
0,54,56,0
0,31,98,1
0,74,93,0
0,55,91,1
0,59,98,0
0,62,96,1
0,54,0,7
0,42,0,0
0,35,0,0
0,74,0,6
0,74,98,0
0,74,0,13
0,35,104,4
0,42,56,0
0,54,40,0
0,74,96,0
0,54,0,8
0,42,0,0
0,35,0,0
0,55,0,33
0,74,0,1
0,62,0,0
0,40,127,2
0,42,56,0
0,54,72,0
0,59,0,0
0,74,93,0
0,31,0,10
0,54,0,1
0,42,0,0
0,40,0,0
0,74,0,29
0,71,91,0
0,42,56,1
0,54,56,0
0,31,96,1
0,62,93,0
0,59,98,1
0,55,83,0
0,54,0,10
0,42,0,0
0,62,0,31
0,59,0,1
0,55,0,2
0,35,104,2
0,42,88,0
0,54,72,0
0,54,0,12
0,42,0,0
0,35,0,0
0,71,0,22
0,31,0,0
0,69,86,13
0,38,91,0
0,42,72,1
0,54,56,0
0,55,88,0
0,59,101,0
0,62,96,1
0,54,0,11
0,42,0,0
0,69,0,29
0,67,88,4
0,40,120,3
0,42,104,0
0,54,72,0
0,38,0,0
0,43,88,1
0,62,0,1
0,55,0,1
0,59,0,5
0,54,0,4
0,42,0,0
0,40,0,0
0,43,0,35
0,31,83,0
0,42,104,1
0,54,40,0
0,54,0,12
0,42,0,0
0,60,101,13
0,64,98,0
0,55,88,1
0,35,88,1
0,42,88,0
0,54,56,0
0,48,59,0
0,36,101,1
0,48,59,0
0,55,69,0
0,55,69,1
0,35,104,36
0,42,56,0
0,54,40,0
0,54,0,12
0,42,0,0
0,35,0,0
0,48,0,17
0,48,0,0
0,67,0,1
0,55,0,0
0,55,0,0
0,55,0,8
