track,note,velocity,time
3,72,127,0
3,79,127,12
3,74,127,0
3,79,127,12
3,74,127,0
3,72,127,12
3,79,127,12
3,74,127,0
3,79,127,12
3,74,127,0
3,72,127,12
3,74,127,12
3,79,127,12
3,79,127,12
3,74,127,0
3,67,127,12
3,79,127,12
3,74,127,0
3,72,100,12
3,79,127,28
3,74,127,0
3,79,127,8
3,74,127,0
3,72,127,8
3,79,127,8
3,74,127,0
3,79,127,8
3,74,127,0
3,72,127,8
3,74,127,8
3,79,100,12
3,74,100,0
3,79,100,0
3,74,100,0
3,79,100,0
3,74,100,0
3,79,100,0
3,74,100,0
3,79,100,0
3,74,100,0
3,79,100,0
3,72,100,0
3,79,127,28
3,74,127,0
3,79,127,8
3,74,127,0
3,72,100,20
3,79,127,28
3,74,127,0
3,79,127,8
3,74,127,0
3,72,100,20
3,74,100,0
3,79,100,0
3,72,100,8
3,74,100,8
3,79,100,0
3,79,100,8
3,74,100,0
3,76,100,8
3,72,100,8
3,79,127,28
3,74,127,0
3,79,127,8
3,74,127,0
3,72,100,20
3,74,100,0
3,79,100,0
3,79,100,8
3,74,100,0
3,74,100,8
3,79,100,0
3,72,100,8
3,74,100,8
3,79,100,0
3,79,100,8
3,74,100,0
3,74,100,8
3,79,100,0
3,72,100,8
3,79,100,0
3,74,100,8
3,79,100,0
3,79,100,8
3,74,100,0
3,74,100,8
3,79,100,0
3,72,100,8
3,79,127,28
3,74,127,0
3,79,127,8
3,74,127,0
3,72,100,20
3,79,127,28
3,74,127,0
3,79,127,8
3,74,127,0
3,72,100,20
3,79,127,28
3,74,127,0
3,74,100,20
3,79,100,0
3,74,100,8
3,79,100,0
3,79,100,8
3,74,100,0
3,74,100,8
3,79,100,0
3,72,100,8
3,79,127,28
3,74,127,0
3,79,127,8
3,74,127,0
3,72,100,20
3,79,127,28
3,74,127,0
3,79,127,8
3,74,127,0
3,72,100,20
3,72,100,0
3,74,100,0
3,79,100,0
3,74,100,0
3,79,100,0
3,74,100,0
3,79,100,0
3,74,100,0
3,79,100,0
3,74,100,0
3,67,100,0
3,74,100,8
3,67,100,0
3,79,100,8
3,67,100,8
3,74,100,0
3,79,100,8
3,67,100,104
3,74,100,0
3,79,100,8
3,74,100,0
3,67,100,0
3,79,100,8
3,74,100,0
3,67,100,0
3,79,100,8
3,74,100,0
3,67,100,0
3,79,100,8
3,74,100,0
3,67,100,0
3,73,100,8
3,67,100,0
3,73,100,8
3,67,100,0
3,79,100,8
3,67,100,8
3,74,100,0
3,76,100,8
3,74,100,8
3,79,100,8
3,73,100,0
3,67,100,0
3,67,100,8
3,73,100,0
3,79,100,0
3,79,100,8
3,73,100,0
3,67,100,0
3,67,100,8
3,73,100,0
3,79,100,0
3,72,100,8
3,67,100,0
3,67,100,8
3,72,100,0
3,79,100,8
3,67,100,8
3,72,100,0
3,79,100,8
3,72,100,8
3,67,100,0
3,79,100,8
3,72,100,0
3,67,100,0
3,67,100,8
3,72,100,0
3,79,100,0
3,79,100,8
3,72,100,0
3,67,100,0
3,67,100,8
3,72,100,0
3,79,100,0
3,62,100,8
3,67,100,8
3,72,100,0
3,79,100,8
3,67,100,8
3,72,100,0
3,79,100,8
3,72,100,8
3,67,100,0
3,79,100,8
3,72,100,0
3,67,100,0
3,67,100,8
3,72,100,0
3,79,100,0
3,79,100,8
3,72,100,0
3,67,100,0
3,67,100,8
3,72,100,0
3,79,100,0
3,72,127,24584
3,79,127,12
3,74,127,0
3,79,127,12
3,74,127,0
3,72,127,12
3,79,127,12
3,74,127,0
3,79,127,12
3,74,127,0
3,72,127,12
3,74,127,12
3,79,127,12
3,79,127,12
3,74,127,0
3,67,127,12
3,79,127,12
3,74,127,0
3,72,100,12
3,79,127,28
3,74,127,0
3,79,127,8
3,74,127,0
3,72,127,8
3,79,127,8
3,74,127,0
3,79,127,8
3,74,127,0
3,72,127,8
3,74,127,8
3,79,100,12
3,74,100,0
3,79,100,0
3,74,100,0
3,79,100,0
3,74,100,0
3,79,100,0
3,74,100,0
3,79,100,0
3,74,100,0
3,79,100,0
3,72,100,0
3,79,127,28
3,74,127,0
3,79,127,8
3,74,127,0
3,72,100,20
3,79,127,28
3,74,127,0
3,79,127,8
3,74,127,0
3,72,100,20
3,74,100,0
3,79,100,0
3,72,100,8
3,74,100,8
3,79,100,0
3,79,100,8
3,74,100,0
3,76,100,8
3,72,100,8
3,79,127,28
3,74,127,0
3,79,127,8
3,74,127,0
3,72,100,20
3,74,100,0
3,79,100,0
3,79,100,8
3,74,100,0
3,74,100,8
3,79,100,0
3,72,100,8
3,74,100,8
3,79,100,0
3,79,100,8
3,74,100,0
3,74,100,8
3,79,100,0
3,72,100,8
3,79,100,0
3,74,100,8
3,79,100,0
3,79,100,8
3,74,100,0
3,74,100,8
3,79,100,0
3,72,100,8
3,79,127,28
3,74,127,0
3,79,127,8
3,74,127,0
3,72,100,20
3,79,127,28
3,74,127,0
3,79,127,8
3,74,127,0
3,72,100,20
3,79,127,28
3,74,127,0
3,74,100,20
3,79,100,0
3,74,100,8
3,79,100,0
3,79,100,8
3,74,100,0
3,74,100,8
3,79,100,0
3,72,100,8
3,79,127,28
3,74,127,0
3,79,127,8
3,74,127,0
3,72,100,20
3,79,127,28
3,74,127,0
3,79,127,8
3,74,127,0
3,72,100,20
3,72,100,0
3,74,100,0
3,79,100,0
3,74,100,0
3,79,100,0
3,74,100,0
3,79,100,0
3,74,100,0
3,79,100,0
3,74,100,0
3,67,100,0
3,74,100,8
3,67,100,0
3,79,100,8
3,67,100,8
3,74,100,0
3,79,100,8
3,67,100,104
3,74,100,0
3,79,100,8
3,74,100,0
3,67,100,0
3,79,100,8
3,74,100,0
3,67,100,0
3,79,100,8
3,74,100,0
3,67,100,0
3,79,100,8
3,74,100,0
3,67,100,0
3,73,100,8
3,67,100,0
3,73,100,8
3,67,100,0
3,79,100,8
3,67,100,8
3,74,100,0
3,76,100,8
3,74,100,8
3,79,100,8
3,73,100,0
3,67,100,0
3,67,100,8
3,73,100,0
3,79,100,0
3,79,100,8
3,73,100,0
3,67,100,0
3,67,100,8
3,73,100,0
3,79,100,0
3,72,100,8
3,67,100,0
3,67,100,8
3,72,100,0
3,79,100,8
3,67,100,8
3,72,100,0
3,79,100,8
3,72,100,8
3,67,100,0
3,79,100,8
3,72,100,0
3,67,100,0
3,67,100,8
3,72,100,0
3,79,100,0
3,79,100,8
3,72,100,0
3,67,100,0
3,67,100,8
3,72,100,0
3,79,100,0
3,62,100,8
3,67,100,8
3,72,100,0
3,79,100,8
3,67,100,8
3,72,100,0
3,79,100,8
3,72,100,8
3,67,100,0
3,79,100,8
3,72,100,0
3,67,100,0
3,67,100,8
3,72,100,0
3,79,100,0
3,79,100,8
3,72,100,0
3,67,100,0
3,67,100,8
3,72,100,0
3,79,100,0
3,72,100,192
3,79,100,0
3,72,100,0
3,72,100,0
3,74,100,4608
3,72,100,0
3,74,100,0
3,74,100,0
3,74,100,0
3,72,100,0
3,74,100,0
3,78,100,0
3,73,100,192
3,69,100,0
3,75,100,0
3,79,100,0
3,83,100,0
3,79,100,0
3,79,100,0
3,74,100,0
3,78,100,0
3,74,100,0
3,78,100,0
3,72,127,0
3,79,127,12
3,74,127,0
3,79,127,12
3,74,127,0
3,72,127,12
3,79,127,12
3,74,127,0
3,79,127,12
3,74,127,0
3,72,127,12
3,74,127,12
3,79,127,12
3,79,127,12
3,74,127,0
3,67,127,12
3,79,127,12
3,74,127,0
3,72,100,12
3,79,127,28
3,74,127,0
3,79,127,8
3,74,127,0
3,72,127,8
3,79,127,8
3,74,127,0
3,79,127,8
3,74,127,0
3,72,127,8
3,74,127,8
3,79,100,12
3,74,100,0
3,79,100,0
3,74,100,0
3,79,100,0
3,74,100,0
3,79,100,0
3,74,100,0
3,79,100,0
3,74,100,0
3,79,100,0
3,72,100,0
3,79,127,28
3,74,127,0
3,79,127,8
3,74,127,0
3,72,100,20
3,79,127,28
3,74,127,0
3,79,127,8
3,74,127,0
3,72,100,20
3,74,100,0
3,79,100,0
3,72,100,8
3,74,100,8
3,79,100,0
3,79,100,8
3,74,100,0
3,76,100,8
3,72,100,8
3,79,127,28
3,74,127,0
3,79,127,8
3,74,127,0
3,72,100,20
3,74,100,0
3,79,100,0
3,79,100,8
3,74,100,0
3,74,100,8
3,79,100,0
3,72,100,8
3,74,100,8
3,79,100,0
3,79,100,8
3,74,100,0
3,74,100,8
3,79,100,0
3,72,100,8
3,79,100,0
3,74,100,8
3,79,100,0
3,79,100,8
3,74,100,0
3,74,100,8
3,79,100,0
3,72,100,8
3,79,127,28
3,74,127,0
3,79,127,8
3,74,127,0
3,72,100,20
3,79,127,28
3,74,127,0
3,79,127,8
3,74,127,0
3,72,100,20
3,79,127,28
3,74,127,0
3,74,100,20
3,79,100,0
3,74,100,8
3,79,100,0
3,79,100,8
3,74,100,0
3,74,100,8
3,79,100,0
3,72,100,8
3,79,127,28
3,74,127,0
3,79,127,8
3,74,127,0
3,72,100,20
3,79,127,28
3,74,127,0
3,79,127,8
3,74,127,0
3,72,100,20
3,72,100,0
3,74,100,0
3,79,100,0
3,74,100,0
3,79,100,0
3,74,100,0
3,79,100,0
3,74,100,0
3,79,100,0
3,74,100,0
3,67,100,0
3,74,100,8
3,67,100,0
3,79,100,8
3,67,100,8
3,74,100,0
3,79,100,8
3,67,100,104
3,74,100,0
3,79,100,8
3,74,100,0
3,67,100,0
3,79,100,8
3,74,100,0
3,67,100,0
3,79,100,8
3,74,100,0
3,67,100,0
3,79,100,8
3,74,100,0
3,67,100,0
3,73,100,8
3,67,100,0
3,73,100,8
3,67,100,0
3,79,100,8
3,67,100,8
3,74,100,0
3,76,100,8
3,74,100,8
3,79,100,8
3,73,100,0
3,67,100,0
3,67,100,8
3,73,100,0
3,79,100,0
3,79,100,8
3,73,100,0
3,67,100,0
3,67,100,8
3,73,100,0
3,79,100,0
3,72,100,8
3,67,100,0
3,67,100,8
3,72,100,0
3,79,100,8
3,67,100,8
3,72,100,0
3,79,100,8
3,72,100,8
3,67,100,0
3,79,100,8
3,72,100,0
3,67,100,0
3,67,100,8
3,72,100,0
3,79,100,0
3,79,100,8
3,72,100,0
3,67,100,0
3,67,100,8
3,72,100,0
3,79,100,0
3,62,100,8
3,67,100,8
3,72,100,0
3,79,100,8
3,67,100,8
3,72,100,0
3,79,100,8
3,72,100,8
3,67,100,0
3,79,100,8
3,72,100,0
3,67,100,0
3,67,100,8
3,72,100,0
3,79,100,0
3,79,100,8
3,72,100,0
3,67,100,0
3,67,100,8
3,72,100,0
3,79,100,0
3,83,127,200
3,79,127,0
3,81,127,0
3,77,127,0
3,78,127,0
3,84,127,0
3,82,127,0
3,84,127,0
3,79,127,0
3,81,127,0
3,79,127,0
3,81,127,0
3,79,127,0
3,79,127,0
3,74,127,176
3,70,127,0
3,72,127,0
3,68,127,0
3,63,127,0
3,75,127,0
3,72,127,0
3,75,127,0
3,77,127,0
3,75,127,0
3,77,127,0
3,75,127,0
3,75,127,0
3,77,127,0
3,75,127,0
3,75,127,0
3,77,127,0
3,76,127,192
3,72,127,0
3,74,127,0
3,70,127,0
3,65,127,0
3,72,127,0
3,77,127,0
3,69,127,0
3,72,127,0
3,74,127,0
3,72,127,0
3,79,127,0
3,77,127,0
3,79,127,0
3,79,127,0
3,77,127,0
3,74,127,0
3,76,127,0
3,78,127,0
3,86,127,96
3,78,127,0
3,79,127,0
3,88,127,96
3,79,127,0
3,81,127,0
3,90,127,96
3,78,127,0
3,81,127,0
3,81,127,0
3,78,127,0
3,81,127,0
3,81,127,0
3,81,127,0
3,81,127,0
3,81,127,0
3,74,127,11808
3,69,127,0
3,62,127,0
3,62,127,0
3,69,127,0
3,74,127,0
3,74,127,0
3,69,127,0
3,62,127,0
3,62,127,0
3,69,127,0
3,74,127,0
3,72,127,0
3,79,127,12
3,74,127,0
3,79,127,12
3,74,127,0
3,72,127,12
3,79,127,12
3,74,127,0
3,79,127,12
3,74,127,0
3,72,127,12
3,74,127,12
3,79,127,12
3,79,127,12
3,74,127,0
3,67,127,12
3,79,127,12
3,74,127,0
3,72,100,12
3,79,127,28
3,74,127,0
3,79,127,8
3,74,127,0
3,72,127,8
3,79,127,8
3,74,127,0
3,79,127,8
3,74,127,0
3,72,127,8
3,74,127,8
3,79,100,12
3,74,100,0
3,79,100,0
3,74,100,0
3,79,100,0
3,74,100,0
3,79,100,0
3,74,100,0
3,79,100,0
3,74,100,0
3,79,100,0
3,72,100,0
3,79,127,28
3,74,127,0
3,79,127,8
3,74,127,0
3,72,100,20
3,79,127,28
3,74,127,0
3,79,127,8
3,74,127,0
3,72,100,20
3,74,100,0
3,79,100,0
3,72,100,8
3,74,100,8
3,79,100,0
3,79,100,8
3,74,100,0
3,76,100,8
3,72,100,8
3,79,127,28
3,74,127,0
3,79,127,8
3,74,127,0
3,72,100,20
3,74,100,0
3,79,100,0
3,79,100,8
3,74,100,0
3,74,100,8
3,79,100,0
3,72,100,8
3,74,100,8
3,79,100,0
3,79,100,8
3,74,100,0
3,74,100,8
3,79,100,0
3,72,100,8
3,79,100,0
3,74,100,8
3,79,100,0
3,79,100,8
3,74,100,0
3,74,100,8
3,79,100,0
3,72,100,8
3,79,127,28
3,74,127,0
3,79,127,8
3,74,127,0
3,72,100,20
3,79,127,28
3,74,127,0
3,79,127,8
3,74,127,0
3,72,100,20
3,79,127,28
3,74,127,0
3,74,100,20
3,79,100,0
3,74,100,8
3,79,100,0
3,79,100,8
3,74,100,0
3,74,100,8
3,79,100,0
3,72,100,8
3,79,127,28
3,74,127,0
3,79,127,8
3,74,127,0
3,72,100,20
3,79,127,28
3,74,127,0
3,79,127,8
3,74,127,0
3,72,100,20
3,72,100,0
3,74,100,0
3,79,100,0
3,74,100,0
3,79,100,0
3,74,100,0
3,79,100,0
3,74,100,0
3,79,100,0
3,74,100,0
3,67,100,0
3,74,100,8
3,67,100,0
3,79,100,8
3,67,100,8
3,74,100,0
3,79,100,8
3,67,100,104
3,74,100,0
3,79,100,8
3,74,100,0
3,67,100,0
3,79,100,8
3,74,100,0
3,67,100,0
3,79,100,8
3,74,100,0
3,67,100,0
3,79,100,8
3,74,100,0
3,67,100,0
3,73,100,8
3,67,100,0
3,73,100,8
3,67,100,0
3,79,100,8
3,67,100,8
3,74,100,0
3,76,100,8
3,74,100,8
3,79,100,8
3,73,100,0
3,67,100,0
3,67,100,8
3,73,100,0
3,79,100,0
3,79,100,8
3,73,100,0
3,67,100,0
3,67,100,8
3,73,100,0
3,79,100,0
3,72,100,8
3,67,100,0
3,67,100,8
3,72,100,0
3,79,100,8
3,67,100,8
3,72,100,0
3,79,100,8
3,72,100,8
3,67,100,0
3,79,100,8
3,72,100,0
3,67,100,0
3,67,100,8
3,72,100,0
3,79,100,0
3,79,100,8
3,72,100,0
3,67,100,0
3,67,100,8
3,72,100,0
3,79,100,0
3,62,100,8
3,67,100,8
3,72,100,0
3,79,100,8
3,67,100,8
3,72,100,0
3,79,100,8
3,72,100,8
3,67,100,0
3,79,100,8
3,72,100,0
3,67,100,0
3,67,100,8
3,72,100,0
3,79,100,0
3,79,100,8
3,72,100,0
3,67,100,0
3,67,100,8
3,72,100,0
3,79,100,0
3,55,127,8
3,62,127,0
3,67,127,0
3,71,127,0
3,74,127,0
3,79,127,0
4,69,100,16128
4,69,100,192
4,69,100,8
4,67,100,8
4,69,100,8
4,71,100,8
4,67,100,8
4,67,100,776
4,69,100,0
4,69,100,0
4,71,100,0
4,71,100,0
4,69,100,0
4,67,100,0
4,69,100,0
4,71,100,0
4,67,100,0
4,69,100,1152
4,69,100,0
4,69,100,0
4,71,100,0
4,71,100,0
4,71,100,0
4,69,100,0
4,67,100,0
4,69,100,0
4,71,100,0
4,67,100,0
4,62,100,960
4,69,100,0
4,69,100,0
4,69,100,0
4,71,100,0
4,71,100,0
4,71,100,0
4,69,100,0
4,67,100,0
