track,note,velocity,time
0,69,120,0
0,51,105,0
0,65,120,0
0,53,90,0
0,65,0,60
0,69,0,0
0,51,0,0
0,42,105,0
0,60,120,0
0,77,120,0
0,65,120,0
0,65,0,60
0,60,0,0
0,77,0,0
0,42,0,0
0,51,105,0
0,81,120,0
0,65,120,0
0,69,120,0
0,69,120,0
0,69,0,60
0,51,0,0
0,81,0,0
0,53,0,0
0,69,0,0
0,65,0,0
0,42,105,0
0,84,120,0
0,72,120,0
0,53,90,0
0,60,120,0
0,60,0,60
0,72,0,0
0,42,0,0
0,84,0,0
0,53,0,0
0,71,120,0
0,51,105,0
0,83,120,0
0,67,120,0
0,53,100,0
0,71,120,0
0,71,0,60
0,51,0,0
0,67,0,0
0,60,120,0
0,38,127,0
0,42,105,0
0,42,0,2
0,60,0,0
0,71,0,0
0,83,0,0
0,38,0,0
0,83,120,0
0,71,120,0
0,41,127,0
0,71,120,0
0,67,120,0
0,51,105,0
0,51,0,60
0,71,0,0
0,83,0,0
0,53,0,0
0,71,0,0
0,67,0,0
0,84,120,0
0,72,120,0
0,53,90,0
0,60,120,0
0,42,105,0
0,72,0,30
0,84,0,0
0,71,120,0
0,83,120,0
0,83,0,30
0,42,0,0
0,60,0,0
0,53,0,0
0,71,0,0
0,51,105,0
0,69,120,0
0,53,90,0
0,69,120,0
0,81,120,0
0,72,120,0
0,72,0,60
0,69,0,0
0,51,0,0
0,69,0,0
0,81,0,0
0,60,120,0
0,42,105,0
0,42,0,60
0,60,0,0
0,69,120,0
0,81,120,0
0,69,120,0
0,72,120,0
0,51,105,0
0,51,0,60
0,69,0,0
0,53,0,0
0,69,0,0
0,81,0,0
0,72,0,0
0,53,90,0
0,71,120,0
0,60,120,0
0,42,105,0
0,83,120,0
0,83,0,30
0,71,0,0
0,69,120,0
0,81,120,0
0,81,0,30
0,53,0,0
0,42,0,0
0,60,0,0
0,69,0,0
0,53,100,0
0,71,120,0
0,51,105,0
0,67,120,0
0,79,120,0
0,67,120,0
0,67,0,60
0,71,0,0
0,51,0,0
0,42,105,0
0,60,120,0
0,60,0,60
0,41,0,0
0,42,0,0
0,71,120,0
0,51,105,0
0,67,120,0
0,67,0,60
0,67,0,0
0,53,0,0
0,79,0,0
0,51,0,0
0,71,0,0
0,53,90,0
0,42,105,0
0,60,120,0
0,41,100,0
0,41,0,60
0,53,0,0
0,42,0,0
0,60,0,0
0,65,120,0
0,41,100,0
0,51,105,0
0,69,120,0
0,69,0,60
0,51,0,0
0,65,0,0
0,60,120,0
0,42,105,0
0,65,120,0
0,77,120,0
0,77,0,60
0,42,0,0
0,65,0,0
0,60,0,0
0,69,120,0
0,69,120,0
0,65,120,0
0,51,105,0
0,81,120,0
0,81,0,60
0,69,0,0
0,69,0,0
0,65,0,0
0,51,0,0
0,60,120,0
0,42,105,0
0,72,120,0
0,84,120,0
0,84,0,60
0,42,0,0
0,41,0,0
0,60,0,0
0,72,0,0
0,51,110,0
0,67,120,0
0,72,120,0
0,84,120,0
0,71,120,0
0,71,0,2
0,51,0,0
0,67,0,0
0,48,100,0
0,42,109,0
0,60,120,0
0,60,0,4
0,48,0,0
0,42,0,0
0,51,108,0
0,71,120,0
0,67,120,0
0,52,100,0
0,52,0,60
0,71,0,0
0,51,0,0
0,67,0,0
0,42,106,0
0,60,120,0
0,53,100,0
0,53,0,60
0,42,0,0
0,60,0,0
0,51,105,0
0,72,120,0
0,69,120,0
0,55,100,0
0,55,0,60
0,72,0,0
0,51,0,0
0,69,0,0
0,53,100,0
0,60,120,0
0,42,104,0
0,53,0,30
0,52,100,0
0,52,0,30
0,42,0,0
0,84,0,0
0,72,0,0
0,60,0,0
0,53,100,0
0,72,120,0
0,51,104,0
0,69,120,0
0,69,0,60
0,53,0,0
0,72,0,0
0,51,0,0
0,52,100,0
0,60,120,0
0,42,103,0
0,42,0,1
0,60,0,0
0,67,120,0
0,71,120,0
0,51,103,0
0,51,0,60
0,52,0,0
0,67,0,0
0,71,0,0
0,42,103,0
0,60,120,0
0,48,100,0
0,60,0,60
0,42,0,0
0,51,103,0
0,67,120,0
0,71,120,0
0,71,0,60
0,67,0,0
0,51,0,0
0,42,103,0
0,41,102,0
0,60,120,0
0,60,0,60
0,48,0,0
0,42,0,0
0,41,0,0
0,65,120,0
0,51,103,0
0,41,102,0
0,69,120,0
0,69,0,60
0,65,0,0
0,51,0,0
0,42,103,0
0,60,120,0
0,60,0,60
0,42,0,0
0,51,103,0
0,65,120,0
0,69,120,0
0,69,0,60
0,65,0,0
0,51,0,0
0,60,120,0
0,42,103,0
0,42,0,60
0,60,0,0
0,67,120,0
0,71,120,0
0,51,103,0
0,51,0,60
0,71,0,0
0,67,0,0
0,42,103,0
0,60,120,0
0,60,0,60
0,42,0,0
0,41,0,0
0,51,103,0
0,67,120,0
0,71,120,0
0,71,0,60
0,67,0,0
0,51,0,0
0,41,105,0
0,60,120,0
0,42,103,0
0,42,0,60
0,60,0,0
0,41,0,0
0,72,120,0
0,41,105,0
0,69,120,0
0,51,103,0
0,51,0,60
0,69,0,0
0,72,0,0
0,60,120,0
0,42,103,0
0,42,0,60
0,60,0,0
0,72,120,0
0,51,103,0
0,69,120,0
0,69,0,60
0,51,0,0
0,72,0,0
0,60,120,0
0,42,103,0
0,42,0,60
0,60,0,0
0,67,120,0
0,71,120,0
0,51,103,0
0,51,0,60
0,71,0,0
0,67,0,0
0,42,103,0
0,60,120,0
0,60,0,60
0,42,0,0
0,41,0,0
0,51,103,0
0,65,120,0
0,69,120,0
0,69,0,60
0,65,0,0
0,51,0,0
0,60,120,0
0,42,103,0
0,35,106,0
0,35,0,4
0,42,0,0
0,60,0,0
0,64,120,0
0,51,103,0
0,40,106,0
0,69,120,0
0,69,0,60
0,64,0,0
0,51,0,0
0,42,103,0
0,59,120,0
0,59,0,60
0,42,0,0
0,64,120,0
0,69,120,0
0,51,103,0
0,51,0,60
0,69,0,0
0,64,0,0
0,59,120,0
0,42,103,0
0,42,0,60
0,59,0,0
0,51,103,0
0,64,120,0
0,69,120,0
0,69,0,60
0,64,0,0
0,51,0,0
0,42,103,0
0,59,120,0
0,59,0,60
0,42,0,0
0,40,0,0
0,69,120,0
0,51,103,0
0,64,120,0
0,64,0,60
0,51,0,0
0,69,0,0
0,42,103,0
0,59,120,0
0,40,105,0
0,40,0,60
0,59,0,0
0,42,0,0
0,64,120,0
0,67,120,0
0,51,108,0
0,40,104,0
0,51,0,60
0,64,0,0
0,67,0,0
0,42,108,0
0,59,120,0
0,59,0,60
0,42,0,0
0,67,120,0
0,51,108,0
0,64,120,0
0,64,0,60
0,51,0,0
0,67,0,0
0,42,108,0
0,59,120,0
0,59,0,30
0,42,0,0
0,40,0,0
0,67,120,0
0,51,106,0
0,64,120,0
0,40,104,0
0,64,0,60
0,67,0,0
0,51,0,0
0,59,120,0
0,42,106,0
0,40,0,20
0,47,104,0
0,42,0,40
0,59,0,0
0,67,120,0
0,64,120,0
0,51,106,0
0,47,0,40
0,40,104,0
0,67,0,20
0,51,0,0
0,64,0,0
0,59,120,0
0,42,106,0
0,42,0,60
0,59,0,0
0,40,0,0
0,41,111,0
0,65,120,5
0,69,120,0
0,51,106,0
0,48,100,55
0,51,0,5
0,69,0,0
0,65,0,0
0,60,120,0
0,42,106,0
0,48,0,55
0,53,100,0
0,42,0,5
0,60,0,0
0,51,106,0
0,69,120,0
0,65,120,0
0,65,0,60
0,51,0,0
0,69,0,0
0,60,120,0
0,42,105,0
0,41,0,55
0,53,0,0
0,57,100,0
0,41,108,0
0,60,0,5
0,42,0,0
0,71,120,0
0,51,104,0
0,67,120,0
0,67,0,60
0,71,0,0
0,51,0,0
0,60,120,0
0,42,104,0
0,57,0,55
0,60,100,0
0,42,0,5
0,60,0,0
0,51,104,0
0,67,120,0
0,71,120,0
0,71,0,60
0,51,0,0
0,67,0,0
0,42,104,0
0,60,120,0
0,41,0,55
0,60,0,0
0,59,100,0
0,41,108,0
0,42,0,5
0,60,0,0
0,51,104,0
0,72,120,0
0,69,120,0
0,41,0,55
0,46,108,0
0,72,0,1
0,69,0,0
0,51,0,0
0,60,120,0
0,42,104,0
0,42,0,5
0,60,0,0
0,72,120,0
0,51,104,0
0,69,120,0
0,46,0,55
0,36,108,0
0,51,0,5
0,69,0,0
0,72,0,0
0,42,104,0
0,60,120,0
0,59,0,55
0,36,0,0
0,57,100,0
0,41,108,0
0,42,0,5
0,60,0,0
0,67,120,0
0,71,120,0
0,51,104,0
0,51,0,45
0,67,0,0
0,71,0,0
0,60,120,0
0,42,104,0
0,42,0,5
0,60,0,0
0,65,120,0
0,69,120,0
0,51,104,0
0,64,95,29
0,59,95,0
0,69,95,0
0,35,108,0
0,51,0,1
0,69,0,0
0,65,0,0
0,60,120,0
0,42,104,0
0,64,0,2
0,69,0,0
0,59,0,0
0,59,95,0
0,69,95,0
0,64,95,0
0,64,0,2
0,69,0,0
0,41,0,0
0,57,0,0
0,35,0,0
0,59,0,0
0,28,108,0
0,64,95,0
0,59,95,0
0,69,95,0
0,42,0,5
0,60,0,0
0,69,120,0
0,51,104,0
0,64,120,0
0,64,0,60
0,69,0,0
0,51,0,0
0,42,104,0
0,59,120,0
0,59,0,5
0,42,0,0
0,69,120,0
0,64,120,0
0,51,104,0
0,51,0,60
0,69,0,0
0,64,0,0
0,42,104,0
0,59,120,0
0,64,0,55
0,59,0,0
0,69,0,0
0,59,0,5
0,42,0,0
0,64,120,0
0,51,104,0
0,69,120,0
0,69,0,60
0,51,0,0
0,64,0,0
0,42,104,0
0,59,120,0
0,28,0,55
0,59,0,5
0,42,0,0
0,51,104,0
0,64,120,0
0,69,120,0
0,64,100,55
0,59,100,0
0,67,100,0
0,35,109,0
0,69,0,1
0,51,0,0
0,64,0,0
0,59,120,0
0,42,104,0
0,59,0,2
0,64,0,0
0,67,0,0
0,59,100,0
0,67,100,0
0,64,100,0
0,64,0,2
0,59,0,0
0,35,0,0
0,67,0,0
0,40,109,0
0,67,102,0
0,64,102,0
0,59,102,0
0,42,0,3
0,59,0,0
0,67,120,0
0,64,120,0
0,51,104,0
0,51,0,60
0,67,0,0
0,64,0,0
0,42,105,0
0,59,120,0
0,59,0,60
0,42,0,0
0,51,105,0
0,67,120,0
0,64,120,0
0,42,106,55
0,64,0,5
0,67,0,0
0,51,0,0
0,59,120,0
0,59,0,55
0,42,0,0
0,40,0,0
0,64,0,0
0,67,0,0
0,40,96,0
0,51,106,0
0,40,127,0
0,38,127,0
0,59,0,5
0,67,120,0
0,64,120,0
0,40,0,55
0,38,0,0
0,51,0,0
0,40,127,0
0,38,127,0
0,64,0,5
0,67,0,0
0,59,120,0
0,40,0,55
0,38,0,0
0,40,0,0
0,52,102,0
0,38,127,0
0,40,127,0
0,51,106,0
0,59,0,5
0,67,120,0
0,64,120,0
0,52,0,25
0,47,102,0
0,47,0,30
0,38,0,0
0,40,0,0
0,51,0,0
0,64,70,0
0,67,120,0
0,40,127,0
0,38,127,0
0,67,120,0
0,64,70,0
0,40,102,0
0,64,0,5
0,67,0,0
0,59,120,0
0,64,0,25
0,67,0,0
0,38,0,0
0,64,0,0
0,40,0,0
0,67,0,0
0,40,126,0
0,67,120,0
0,64,70,0
0,64,70,0
0,67,120,0
0,38,127,0
0,38,0,3
0,67,0,0
0,64,0,0
0,40,0,0
0,40,0,0
0,67,0,0
0,64,0,0
0,69,100,0
0,62,70,0
0,38,127,0
0,67,120,0
0,67,93,0
0,51,126,0
0,67,120,0
0,67,100,0
0,36,126,0
0,57,126,0
0,62,70,0
0,59,0,5
0,57,0,24
0,36,0,0
0,51,0,0
0,67,0,1
0,42,127,0
0,62,94,0
0,42,0,29
0,67,0,1
0,62,0,0
0,69,0,0
0,51,127,0
0,57,94,0
0,62,100,0
0,51,0,29
0,57,0,1
0,42,127,0
0,67,95,0
0,42,0,29
0,67,0,1
0,62,0,0
0,62,97,0
0,51,127,0
0,69,100,0
0,67,100,0
0,40,127,0
0,40,0,29
0,51,0,0
0,62,0,1
0,57,98,0
0,42,127,0
0,42,0,29
0,67,0,1
0,57,0,0
0,69,0,0
0,36,127,0
0,57,100,0
0,69,99,0
0,51,127,0
0,51,0,29
0,69,0,1
0,42,127,0
0,57,100,0
0,42,0,29
0,57,0,1
0,57,0,0
0,36,0,0
0,67,93,0
0,51,127,0
0,69,100,0
0,67,100,0
0,36,127,0
0,51,0,29
0,67,0,1
0,62,100,0
0,42,127,0
0,42,0,29
0,67,0,1
0,62,0,0
0,69,0,0
0,36,0,0
0,62,100,0
0,51,127,0
0,57,100,0
0,51,0,29
0,57,0,1
0,42,127,0
0,67,100,0
0,42,0,29
0,67,0,1
0,62,0,0
0,38,0,0
0,51,127,0
0,62,100,0
0,40,127,0
0,69,100,0
0,67,100,0
0,40,0,29
0,51,0,0
0,62,0,1
0,42,127,0
0,69,100,0
0,42,0,29
0,69,0,1
0,69,0,0
0,67,0,0
0,51,127,0
0,57,100,0
0,38,127,0
0,62,100,0
0,51,0,29
0,62,0,1
0,42,127,0
0,57,100,0
0,42,0,29
0,67,0,1
0,38,0,0
0,62,0,0
0,62,0,0
0,67,0,0
0,57,0,0
0,57,0,0
0,36,126,0
0,51,126,0
0,69,100,0
0,62,70,0
0,66,100,0
0,62,70,0
0,66,120,0
0,66,120,0
0,38,127,0
0,66,100,0
0,51,0,29
0,36,0,0
0,66,0,1
0,62,100,0
0,42,127,0
0,42,0,29
0,62,0,1
0,66,0,0
0,69,0,0
0,57,98,0
0,62,100,0
0,51,127,0
0,51,0,29
0,57,0,1
0,69,98,0
0,42,127,0
0,42,0,29
0,69,0,1
0,62,0,0
0,66,100,0
0,51,127,0
0,66,98,0
0,40,127,0
0,69,100,0
0,40,0,29
0,51,0,0
0,66,0,1
0,42,127,0
0,62,96,0
0,42,0,29
0,62,0,1
0,69,0,0
0,66,0,0
0,57,96,0
0,57,100,0
0,51,127,0
0,36,127,0
0,51,0,29
0,57,0,1
0,42,127,0
0,62,96,0
0,42,0,29
0,62,0,1
0,36,0,0
0,57,0,0
0,66,100,0
0,36,127,0
0,66,97,0
0,69,100,0
0,51,127,0
0,51,0,29
0,66,0,1
0,42,127,0
0,62,97,0
0,42,0,29
0,62,0,1
0,69,0,0
0,36,0,0
0,66,0,0
0,51,127,0
0,62,100,0
0,69,103,0
0,51,0,29
0,69,0,1
0,42,127,0
0,57,103,0
0,42,0,29
0,62,0,1
0,62,0,0
0,66,0,0
0,38,0,0
0,66,0,0
0,62,0,0
0,57,0,0
0,66,103,0
0,51,127,0
0,66,100,0
0,69,100,0
0,40,127,0
0,40,0,29
0,51,0,0
0,66,0,1
0,62,105,0
0,42,127,0
0,42,0,29
0,69,0,1
0,66,0,0
0,62,0,0
0,62,120,0
0,38,127,0
0,51,127,0
0,57,100,0
0,57,105,0
0,62,120,0
0,51,0,29
0,62,0,1
0,57,0,0
0,62,0,0
0,64,120,0
0,42,127,0
0,64,120,0
0,62,107,0
0,42,0,29
0,38,0,1
0,64,0,0
0,57,0,0
0,62,0,0
0,64,0,0
0,36,126,0
0,66,120,0
0,66,106,0
0,60,100,0
0,36,127,0
0,66,120,0
0,51,126,0
0,66,100,0
0,51,0,29
0,36,0,0
0,66,0,1
0,60,106,0
0,42,127,0
0,42,0,29
0,66,0,1
0,60,0,0
0,60,0,0
0,55,106,0
0,51,127,0
0,55,100,0
0,51,0,29
0,55,0,1
0,66,105,0
0,42,127,0
0,42,0,29
0,55,0,1
0,66,0,0
0,60,105,0
0,40,127,0
0,60,100,0
0,66,100,0
0,51,127,0
0,51,0,29
0,40,0,0
0,60,0,1
0,55,105,0
0,42,127,0
0,42,0,29
0,60,0,1
0,66,0,0
0,55,0,0
0,51,127,0
0,36,127,0
0,55,100,0
0,66,103,0
0,51,0,29
0,66,0,1
0,60,103,0
0,42,127,0
0,42,0,29
0,66,0,1
0,55,0,0
0,66,0,0
0,36,0,0
