track,note,velocity,time
1,62,100,5952
1,69,100,64
1,69,100,64
1,69,100,64
1,69,100,64
1,69,100,32
1,69,100,32
1,67,100,64
1,66,100,32
1,62,100,192
1,66,100,32
1,66,100,64
1,66,100,64
1,64,100,64
1,66,100,32
1,74,100,672
1,71,100,0
1,74,100,64
1,71,100,0
1,74,100,64
1,71,100,0
1,74,100,64
1,71,100,0
1,73,100,32
1,69,100,0
1,74,100,32
1,71,100,0
1,73,100,64
1,69,100,0
1,71,100,32
1,66,100,0
1,62,100,1664
1,69,100,32
1,69,100,32
1,69,100,64
1,69,100,96
1,69,100,32
1,69,100,32
1,67,100,64
1,66,100,32
1,62,100,192
1,66,100,32
1,66,100,64
1,66,100,64
1,64,100,32
1,66,100,64
1,62,100,576
1,74,100,0
1,74,100,32
1,71,100,0
1,74,100,64
1,71,100,0
1,74,100,64
1,71,100,0
1,73,100,64
1,69,100,0
1,74,100,32
1,71,100,0
1,73,100,96
1,69,100,0
1,71,100,32
1,66,100,0
1,78,100,1344
1,84,100,32
1,81,100,0
1,84,100,32
1,78,100,0
1,84,100,32
1,76,100,0
1,84,100,32
1,74,100,0
1,86,100,32
1,78,100,0
1,84,100,2432
1,81,100,0
1,84,100,32
1,78,100,0
1,84,100,32
1,76,100,0
1,84,100,32
1,74,100,0
1,78,100,32
1,86,100,0
1,84,100,2432
1,81,100,0
1,84,100,32
1,78,100,0
1,84,100,32
1,76,100,0
1,84,100,32
1,74,100,0
1,77,100,32
1,86,100,0
1,84,100,2432
1,81,100,0
1,84,100,32
1,78,100,0
1,84,100,32
1,76,100,0
1,84,100,32
1,74,100,0
1,78,100,32
1,86,100,0
1,69,100,2720
1,74,100,0
1,69,100,32
1,74,100,0
1,69,100,64
1,74,100,0
1,69,100,64
1,74,100,0
1,69,100,64
1,74,100,0
1,69,100,32
1,74,100,0
1,69,100,32
1,74,100,0
1,67,100,64
1,71,100,0
1,66,100,32
1,69,100,0
1,62,100,192
1,66,100,32
1,66,100,64
1,66,100,96
1,64,100,32
1,66,100,64
1,62,100,416
1,71,100,32
1,74,100,0
1,71,100,64
1,74,100,0
1,71,100,64
1,74,100,0
1,69,100,64
1,73,100,0
1,71,100,32
1,74,100,0
1,69,100,96
1,73,100,0
1,66,100,32
1,71,100,0
1,62,100,1728
1,69,100,32
1,69,100,64
1,69,100,64
1,69,100,64
1,69,100,32
1,69,100,96
1,69,100,256
1,69,100,32
1,69,100,32
1,67,100,64
1,66,100,64
1,64,100,96
1,66,100,64
1,69,100,320
1,74,100,0
1,71,100,32
1,74,100,0
1,71,100,64
1,74,100,0
1,71,100,64
1,74,100,0
1,69,100,64
1,73,100,0
1,71,100,32
1,74,100,0
1,69,100,96
1,73,100,0
1,71,100,32
1,74,100,0
1,69,100,96
1,73,100,0
1,71,100,32
1,74,100,0
1,69,100,64
1,73,100,0
1,66,100,32
1,71,100,0
1,83,100,384
1,78,100,64
1,84,100,0
1,81,100,32
1,84,100,0
1,78,100,32
1,84,100,0
1,76,100,32
1,84,100,0
1,74,100,32
1,84,100,0
1,78,100,32
1,86,100,0
1,78,100,608
1,78,100,64
1,76,100,32
1,74,100,64
1,78,100,544
1,78,100,64
1,76,100,32
1,74,100,64
1,81,100,64
1,84,100,0
1,78,100,32
1,84,100,0
1,76,100,32
1,84,100,0
1,74,100,32
1,84,100,0
1,78,100,32
1,86,100,0
1,78,100,608
1,78,100,64
1,76,100,32
1,74,100,64
1,78,100,544
1,78,100,64
1,76,100,32
1,74,100,64
1,81,100,64
1,84,100,0
1,78,100,32
1,84,100,0
1,76,100,32
1,84,100,0
1,74,100,32
1,84,100,0
1,77,100,32
1,86,100,0
1,77,100,320
1,77,100,96
1,76,100,32
1,74,100,64
1,78,100,928
1,78,100,64
1,76,100,32
1,74,100,64
1,81,100,64
1,84,100,0
1,78,100,32
1,84,100,0
1,76,100,32
1,84,100,0
1,74,100,32
1,84,100,0
1,78,100,32
1,86,100,0
1,76,100,2816
1,76,100,32
1,76,100,32
1,76,100,32
1,76,100,32
1,76,100,32
1,76,100,32
1,76,100,32
1,76,100,32
1,76,100,64
1,76,100,64
1,78,100,64
1,76,100,160
1,73,100,64
1,76,100,32
1,73,100,64
1,76,100,64
1,74,100,64
1,76,100,32
1,78,100,64
1,76,100,32
1,70,100,0
1,76,100,64
1,71,100,0
1,74,100,64
1,71,100,0
1,71,100,64
1,66,100,0
1,71,100,64
1,66,100,0
1,74,100,256
1,69,100,0
1,83,100,1024
1,76,100,352
1,76,100,32
1,76,100,32
1,76,100,32
1,76,100,32
1,76,100,32
1,76,100,32
1,76,100,32
1,76,100,32
1,76,100,32
1,76,100,64
1,76,100,64
1,79,100,64
1,76,100,32
1,76,100,32
1,76,100,32
1,76,100,32
1,76,100,32
1,76,100,32
1,76,100,32
1,78,100,32
1,78,100,32
1,81,100,32
1,76,100,64
1,76,100,64
1,76,100,64
1,76,100,64
1,74,100,64
1,71,100,64
1,71,100,64
1,74,100,32
1,71,100,224
1,74,100,64
1,71,100,64
1,78,100,64
1,76,100,64
1,74,100,64
1,76,100,64
1,74,100,64
1,74,100,448
1,77,100,0
1,77,100,64
1,82,100,0
1,76,100,96
1,79,100,0
1,74,100,64
1,77,100,0
1,77,100,96
1,82,100,0
1,76,100,96
1,79,100,0
1,74,100,64
1,77,100,0
1,77,100,96
1,82,100,0
1,76,100,96
1,79,100,0
1,74,100,64
1,77,100,0
1,77,100,96
1,82,100,0
1,76,100,96
1,79,100,0
1,74,100,64
1,77,100,0
1,78,100,96
1,81,100,0
1,74,100,1536
1,69,100,1536
1,62,100,1536
2,62,115,3264
2,64,115,32
2,66,115,32
2,64,115,32
2,62,115,32
2,64,115,64
2,62,115,32
2,55,115,32
2,57,115,32
2,62,115,32
2,62,115,256
2,64,115,32
2,66,115,32
2,64,115,32
2,62,115,32
2,64,115,64
2,62,115,32
2,55,115,32
2,57,115,32
2,62,115,32
2,62,115,256
2,64,115,32
2,66,115,32
2,64,115,32
2,62,115,32
2,64,115,64
2,62,115,32
2,55,115,32
2,57,115,32
2,62,115,32
2,62,115,256
2,64,115,32
2,66,115,32
2,64,115,32
2,62,115,32
2,64,115,64
2,62,115,32
2,55,115,32
2,57,115,32
2,62,115,32
2,57,115,1024
2,52,115,0
2,45,115,0
2,45,115,32
2,52,115,0
2,57,115,0
2,45,115,32
2,52,115,0
2,57,115,0
2,45,115,64
2,52,115,0
2,57,115,0
2,45,115,32
2,52,115,0
2,57,115,0
2,62,115,32
2,57,115,0
2,50,115,0
2,66,115,1120
2,71,115,0
2,66,115,128
2,71,115,0
2,66,115,128
2,71,115,0
2,66,115,128
2,74,115,0
2,50,115,800
2,57,115,0
2,62,115,0
2,50,115,508
2,57,115,0
2,62,115,0
2,46,115,508
2,53,115,0
2,58,115,0
2,50,115,256
2,55,115,0
2,62,115,0
2,67,115,0
2,50,115,508
2,57,115,0
2,62,115,0
2,50,115,508
2,57,115,0
2,62,115,0
2,50,115,576
2,57,115,0
2,62,115,0
2,47,115,1024
2,54,115,0
2,59,115,0
2,64,115,0
2,45,115,1564
2,57,115,0
2,61,115,0
2,66,115,0
2,45,115,0
2,57,115,0
2,61,115,0
2,66,115,0
2,45,115,224
2,57,115,0
2,61,115,0
2,66,115,0
2,50,115,128
2,57,115,0
2,62,115,0
2,50,115,508
2,57,115,0
2,62,115,0
2,50,115,256
2,57,115,0
2,62,115,0
2,47,115,256
2,54,115,0
2,59,115,0
2,64,115,0
2,59,115,508
2,62,115,0
2,66,115,0
2,59,115,64
2,62,115,0
2,66,115,0
2,71,115,256
2,78,115,32
2,74,115,32
2,50,115,576
2,57,115,0
2,62,115,0
2,50,115,508
2,57,115,0
2,62,115,0
2,46,115,508
2,53,115,0
2,58,115,0
2,50,115,256
2,55,115,0
2,62,115,0
2,67,115,0
2,50,115,508
2,57,115,0
2,62,115,0
2,54,115,892
2,58,115,0
2,64,115,0
2,69,115,0
2,54,115,512
2,58,115,0
2,64,115,0
2,69,115,0
2,54,115,512
2,58,115,0
2,64,115,0
2,69,115,0
2,54,115,512
2,58,115,0
2,64,115,0
2,69,115,0
2,54,115,128
2,47,115,0
2,54,115,256
2,47,115,0
2,62,115,640
2,59,115,128
2,62,115,32
2,66,115,0
2,64,115,32
2,68,115,0
2,62,115,320
2,66,115,0
2,64,115,32
2,68,115,0
2,62,115,352
2,66,115,0
2,64,115,32
2,68,115,0
2,62,115,32
2,66,115,0
2,42,115,64
2,49,115,0
2,42,115,256
2,49,115,0
2,40,115,256
2,47,115,0
2,41,115,32
2,48,115,0
2,42,115,32
2,49,115,0
2,49,115,320
2,42,115,0
2,42,115,128
2,49,115,0
2,42,115,256
2,49,115,0
2,40,115,256
2,47,115,0
2,41,115,32
2,48,115,0
2,42,115,32
2,49,115,0
2,49,115,320
2,42,115,0
2,43,115,128
2,50,115,0
2,43,115,64
2,50,115,0
2,50,115,256
2,43,115,0
2,43,115,64
2,50,115,0
2,43,115,448
2,50,115,0
2,64,115,256
2,69,115,0
2,64,115,32
2,69,115,0
2,45,115,224
2,52,115,0
2,45,115,64
2,52,115,0
2,64,115,128
2,69,115,0
2,64,115,128
2,69,115,0
2,52,115,128
2,45,115,0
2,46,115,256
2,53,115,0
2,61,115,256
2,62,115,32
2,62,115,224
2,64,115,32
2,64,115,224
2,65,115,32
2,74,115,32
2,65,115,256
2,76,115,32
2,76,115,224
2,74,115,32
2,74,115,224
2,65,115,32
2,67,115,224
2,67,115,64
2,67,115,64
2,67,115,64
2,67,115,32
2,67,115,32
2,66,115,96
2,67,115,508
2,67,115,64
2,67,115,64
2,67,115,64
2,67,115,64
2,67,115,64
2,65,115,32
2,57,115,128
3,74,115,3264
3,76,115,32
3,78,115,32
3,76,115,32
3,74,115,32
3,76,115,64
3,74,115,32
3,67,115,32
3,69,115,32
3,74,115,32
3,74,115,256
3,76,115,32
3,78,115,32
3,76,115,32
3,74,115,32
3,76,115,64
3,74,115,32
3,67,115,32
3,69,115,32
3,74,115,32
3,74,115,256
3,76,115,32
3,78,115,32
3,76,115,32
3,74,115,32
3,76,115,64
3,74,115,32
3,67,115,32
3,69,115,32
3,74,115,32
3,74,115,256
3,76,115,32
3,78,115,32
3,76,115,32
3,74,115,32
3,76,115,64
3,74,115,32
3,67,115,32
3,69,115,32
3,74,115,32
3,69,115,1024
3,64,115,0
3,57,115,0
3,57,115,32
3,64,115,0
3,69,115,0
3,57,115,32
3,64,115,0
3,69,115,0
3,57,115,64
3,64,115,0
3,69,115,0
3,57,115,32
3,64,115,0
3,69,115,0
3,74,115,32
3,69,115,0
3,62,115,0
3,78,115,1120
3,83,115,0
3,78,115,128
3,83,115,0
3,78,115,128
3,83,115,0
3,78,115,128
3,86,115,0
3,62,115,800
3,69,115,0
3,74,115,0
3,62,115,508
3,69,115,0
3,74,115,0
3,58,115,508
3,65,115,0
3,70,115,0
3,62,115,256
3,67,115,0
3,74,115,0
3,79,115,0
3,62,115,508
3,69,115,0
3,74,115,0
3,62,115,508
3,69,115,0
3,74,115,0
3,62,115,576
3,69,115,0
3,74,115,0
3,59,115,1024
3,66,115,0
3,71,115,0
3,76,115,0
3,57,115,1564
3,69,115,0
3,73,115,0
3,78,115,0
3,57,115,0
3,69,115,0
3,73,115,0
3,78,115,0
3,57,115,224
3,69,115,0
3,73,115,0
3,78,115,0
3,62,115,128
3,69,115,0
3,74,115,0
3,62,115,508
3,69,115,0
3,74,115,0
3,62,115,256
3,69,115,0
3,74,115,0
3,59,115,256
3,66,115,0
3,71,115,0
3,76,115,0
3,71,115,508
3,74,115,0
3,78,115,0
3,71,115,64
3,74,115,0
3,78,115,0
3,83,115,256
3,90,115,32
3,86,115,32
3,62,115,576
3,69,115,0
3,74,115,0
3,62,115,508
3,69,115,0
3,74,115,0
3,58,115,508
3,65,115,0
3,70,115,0
3,62,115,256
3,67,115,0
3,74,115,0
3,79,115,0
3,62,115,508
3,69,115,0
3,74,115,0
3,66,115,892
3,70,115,0
3,76,115,0
3,81,115,0
3,66,115,512
3,70,115,0
3,76,115,0
3,81,115,0
3,66,115,512
3,70,115,0
3,76,115,0
3,81,115,0
3,66,115,512
3,70,115,0
3,76,115,0
3,81,115,0
3,66,115,128
3,59,115,0
3,66,115,256
3,59,115,0
3,74,115,640
3,71,115,128
3,74,115,32
3,78,115,0
3,76,115,32
3,80,115,0
3,74,115,320
3,78,115,0
3,76,115,32
3,80,115,0
3,74,115,352
3,78,115,0
3,76,115,32
3,80,115,0
3,74,115,32
3,78,115,0
3,54,115,64
3,61,115,0
3,54,115,256
3,61,115,0
3,52,115,256
3,59,115,0
3,53,115,32
3,60,115,0
3,54,115,32
3,61,115,0
3,61,115,320
3,54,115,0
3,54,115,128
3,61,115,0
3,54,115,256
3,61,115,0
3,52,115,256
3,59,115,0
3,53,115,32
3,60,115,0
3,54,115,32
3,61,115,0
3,61,115,320
3,54,115,0
3,55,115,128
3,62,115,0
3,55,115,64
3,62,115,0
3,62,115,256
3,55,115,0
3,55,115,64
3,62,115,0
3,55,115,448
3,62,115,0
3,76,115,256
3,81,115,0
3,76,115,32
3,81,115,0
3,57,115,224
3,64,115,0
3,57,115,64
3,64,115,0
3,76,115,128
3,81,115,0
3,76,115,128
3,81,115,0
3,64,115,128
3,57,115,0
3,58,115,256
3,65,115,0
3,73,115,256
3,74,115,32
3,74,115,224
3,76,115,32
3,76,115,224
3,77,115,32
3,86,115,32
3,77,115,256
3,88,115,32
3,88,115,224
3,86,115,32
3,86,115,224
3,77,115,32
3,79,115,224
3,79,115,64
3,79,115,64
3,79,115,64
3,79,115,32
3,79,115,32
3,78,115,96
3,79,115,508
3,79,115,64
3,79,115,64
3,79,115,64
3,79,115,64
3,79,115,64
3,77,115,32
3,69,115,128
4,62,100,0
4,62,100,508
4,50,100,508
4,62,100,508
4,50,100,508
4,50,100,508
4,59,100,508
4,66,100,0
4,71,100,0
4,74,100,0
4,59,100,128
4,66,100,0
4,71,100,0
4,74,100,0
4,66,100,64
4,71,100,0
4,74,100,0
4,59,100,0
4,59,100,64
4,66,100,0
4,71,100,0
4,74,100,0
4,59,100,32
4,66,100,0
4,71,100,0
4,74,100,0
4,59,100,96
4,66,100,0
4,71,100,0
4,74,100,0
4,71,100,64
4,74,100,0
4,78,100,0
4,71,100,32
4,74,100,0
4,78,100,0
4,59,100,32
4,66,100,0
4,71,100,0
4,74,100,0
4,59,100,128
4,66,100,0
4,71,100,0
4,74,100,0
4,71,100,64
4,74,100,0
4,78,100,0
4,71,100,32
4,74,100,0
4,78,100,0
4,59,100,32
4,66,100,0
4,71,100,0
4,74,100,0
4,57,100,64
4,57,100,32
4,64,100,0
4,69,100,0
4,73,100,0
4,57,100,32
4,64,100,0
4,69,100,0
4,73,100,0
4,57,100,64
4,62,100,0
4,62,100,64
4,62,100,96
4,76,100,64
4,78,100,32
4,76,100,32
4,74,100,32
4,76,100,64
4,74,100,32
4,67,100,32
4,69,100,32
4,74,100,32
4,62,100,64
4,74,100,64
4,76,100,96
4,78,100,32
4,76,100,32
4,74,100,32
4,76,100,64
4,74,100,32
4,67,100,32
4,69,100,32
4,74,100,32
4,59,100,64
4,66,100,0
4,71,100,0
4,74,100,0
4,59,100,64
4,66,100,0
4,71,100,0
4,74,100,0
4,59,100,32
4,66,100,0
4,71,100,0
4,74,100,0
4,59,100,32
4,66,100,0
4,71,100,0
4,74,100,0
4,71,100,64
4,74,100,0
4,78,100,0
4,71,100,32
4,78,100,0
4,74,100,0
4,59,100,32
4,66,100,0
4,71,100,0
4,74,100,0
4,59,100,64
4,66,100,0
4,71,100,0
4,74,100,0
4,59,100,64
4,66,100,0
4,71,100,0
4,74,100,0
4,59,100,32
4,66,100,0
4,71,100,0
4,74,100,0
4,74,100,224
4,78,100,0
4,74,100,128
4,78,100,0
4,74,100,128
4,78,100,0
4,78,100,128
4,62,100,896
4,74,100,64
4,62,100,64
4,74,100,64
4,62,100,64
4,76,100,64
