track,note,velocity,time
1,82,100,930
1,85,100,30
1,47,127,356
1,41,127,120
1,46,127,20
1,35,127,132
1,49,127,0
1,83,88,0
1,44,127,116
1,83,88,0
1,52,100,128
1,38,127,0
1,44,127,0
1,83,88,0
1,35,127,132
1,44,127,0
1,83,88,0
1,35,127,132
1,44,127,0
1,83,88,0
1,44,127,132
1,83,88,0
1,52,100,132
1,38,127,0
1,44,127,0
1,83,88,0
1,44,127,132
1,83,88,0
1,35,127,132
1,44,127,0
1,83,88,0
1,46,127,132
1,83,88,0
1,52,100,132
1,38,127,0
1,44,127,0
1,83,88,0
1,35,127,132
1,44,127,0
1,83,88,0
1,35,127,132
1,44,127,0
1,83,88,0
1,44,127,132
1,83,88,0
1,52,100,132
1,38,127,0
1,44,127,0
1,83,88,0
1,44,127,132
1,83,88,0
1,35,127,132
1,44,127,0
1,83,88,0
1,44,127,132
1,83,88,0
1,52,100,132
1,38,127,0
1,44,127,0
1,83,88,0
1,83,88,12
1,35,127,100
1,44,127,0
1,83,88,0
1,83,88,12
1,35,127,100
1,44,127,0
1,83,88,0
1,44,127,132
1,83,88,0
1,52,100,132
1,38,127,0
1,44,127,0
1,83,88,0
1,44,127,132
1,83,88,0
1,35,127,132
1,44,127,0
1,83,88,0
1,46,127,132
1,83,88,0
1,52,100,132
1,38,127,0
1,44,127,0
1,83,88,0
1,35,127,132
1,44,127,0
1,83,88,0
1,35,127,132
1,44,127,0
1,83,88,0
1,44,127,132
1,83,88,0
1,52,100,132
1,38,127,0
1,44,127,0
1,83,88,0
1,44,127,132
1,84,120,132
1,35,127,0
1,46,127,0
1,49,127,0
1,83,88,0
1,83,88,332
1,35,127,332
1,46,127,0
1,83,88,0
1,83,88,332
1,35,127,332
1,46,127,0
1,83,88,0
1,83,88,332
1,35,127,332
1,46,127,0
1,83,88,0
1,35,127,212
1,83,88,120
1,35,127,92
1,35,127,72
1,46,127,0
1,83,88,0
1,83,88,332
1,35,127,332
1,46,127,0
1,83,88,0
1,83,88,332
1,35,127,212
1,35,127,28
1,46,127,0
1,83,88,0
1,83,88,332
1,35,127,332
1,46,127,0
1,83,88,0
1,35,127,212
1,83,88,120
1,35,127,92
1,35,127,72
1,46,127,0
1,83,88,0
1,83,88,332
1,35,127,332
1,46,127,0
1,83,88,0
1,83,88,332
1,35,127,332
1,46,127,0
1,83,88,0
1,83,88,332
1,35,127,332
1,46,127,0
1,83,88,0
1,83,88,332
1,35,127,332
1,46,127,0
1,83,88,0
1,83,88,332
1,35,127,332
1,46,127,0
1,83,88,0
1,83,88,332
1,35,127,332
1,46,127,0
1,83,88,0
1,83,88,332
1,35,127,332
1,46,127,0
1,83,88,0
1,35,127,212
1,38,127,120
1,48,100,88
1,48,100,30
1,43,100,58
1,52,100,0
1,41,100,0
1,35,127,24
1,49,127,0
1,46,127,76
1,38,127,76
1,46,127,0
1,35,127,76
1,46,127,0
1,35,127,76
1,46,127,0
1,46,127,76
1,38,127,76
1,46,127,0
1,46,127,76
1,35,127,76
1,46,127,0
1,46,127,56
1,38,127,76
1,46,127,0
1,46,127,76
1,35,127,76
1,46,127,0
1,46,127,76
1,38,127,76
1,46,127,0
1,46,127,76
1,35,127,76
1,49,127,0
1,46,127,76
1,38,127,76
1,46,127,0
1,35,127,76
1,46,127,0
1,35,127,76
1,46,127,0
1,46,127,76
1,38,127,76
1,46,127,0
1,46,127,76
1,35,127,76
1,46,127,0
1,46,127,56
1,38,127,76
1,46,127,0
1,46,127,76
1,35,127,76
1,46,127,0
1,46,127,76
1,35,127,120
1,38,127,76
1,46,127,0
1,46,127,76
1,35,127,76
1,46,127,0
1,46,127,56
1,38,127,76
1,46,127,0
1,46,127,76
1,35,127,76
1,46,127,0
1,46,127,76
1,38,127,76
1,46,127,0
1,38,127,76
1,38,127,28
1,35,127,28
1,49,127,0
1,51,100,76
1,51,100,76
1,38,127,0
1,51,100,76
1,35,127,0
1,51,100,76
1,35,127,0
1,51,100,76
1,51,100,76
1,38,127,0
1,51,100,76
1,51,100,76
1,35,127,0
1,51,100,56
1,51,100,76
1,38,127,0
1,51,100,76
1,51,100,76
1,35,127,0
1,51,100,76
1,51,100,76
1,38,127,0
1,51,100,28
1,51,100,36
1,51,100,36
1,51,100,36
1,35,127,0
1,51,100,56
1,51,100,76
1,38,127,0
1,51,100,76
1,35,127,0
1,51,100,76
1,35,127,0
1,51,100,76
1,51,100,76
1,38,127,0
1,51,100,76
1,51,100,76
1,35,127,0
1,51,100,56
1,51,100,76
1,38,127,0
1,51,100,76
1,51,100,76
1,35,127,0
1,51,100,76
1,51,100,76
1,38,127,0
1,51,100,28
1,51,100,36
1,51,100,36
1,35,127,36
1,49,127,0
1,51,100,76
1,51,100,76
1,38,127,0
1,51,100,76
1,35,127,0
1,51,100,76
1,35,127,0
1,51,100,76
1,51,100,76
1,38,127,0
1,51,100,76
1,51,100,76
1,35,127,0
1,51,100,56
1,51,100,76
1,38,127,0
1,51,100,76
1,51,100,76
1,35,127,0
1,51,100,76
1,46,127,0
1,51,100,28
1,38,127,0
1,51,100,76
1,38,127,120
1,35,127,32
1,38,127,0
1,38,127,112
1,38,127,152
1,38,127,32
1,48,100,32
1,41,100,32
1,52,100,0
1,35,127,32
1,49,127,0
1,53,100,60
1,53,100,32
1,38,127,0
1,53,100,60
1,35,127,0
1,48,100,120
1,43,100,0
1,53,100,16
1,35,127,0
1,38,127,0
1,53,100,60
1,38,127,0
1,43,100,28
1,41,100,56
1,38,127,56
1,52,100,56
1,84,120,120
1,35,127,0
1,49,127,0
1,83,88,0
1,44,127,80
1,52,100,176
1,38,127,0
1,44,127,0
1,83,88,0
1,35,127,80
1,44,127,0
1,35,127,80
1,44,127,0
1,83,88,0
1,44,127,80
1,52,100,176
1,38,127,0
1,44,127,0
1,83,88,0
1,44,127,92
1,84,120,176
1,35,127,0
1,44,127,0
1,83,88,0
1,44,127,48
1,52,100,176
1,38,127,0
1,44,127,0
1,83,88,0
1,35,127,48
1,44,127,0
1,35,127,92
1,44,127,0
1,83,88,0
1,44,127,52
1,52,100,152
1,38,127,0
1,44,127,0
1,83,88,0
1,44,127,92
1,83,88,0
1,35,127,100
1,44,127,0
1,83,88,0
1,44,127,92
1,35,127,32
1,52,100,120
1,38,127,0
1,44,127,0
1,83,88,0
1,44,127,92
1,35,127,152
1,44,127,0
1,83,88,0
1,44,127,92
1,52,100,152
1,38,127,0
1,44,127,0
1,83,88,0
1,35,127,92
1,44,127,0
1,84,120,92
1,35,127,0
1,44,127,0
1,83,88,0
1,44,127,92
1,52,100,152
1,38,127,0
1,44,127,0
1,83,88,0
1,44,127,92
1,35,127,72
1,44,127,0
1,83,88,0
1,44,127,92
1,52,100,92
1,38,127,0
1,44,127,0
1,83,88,0
1,44,127,92
1,84,120,92
1,35,127,0
1,44,127,0
1,49,127,0
1,44,127,80
1,38,127,80
1,44,127,0
1,35,127,80
1,44,127,0
1,35,127,80
1,44,127,0
1,44,127,80
1,38,127,80
1,44,127,0
1,44,127,80
1,35,127,80
1,44,127,0
1,44,127,80
1,38,127,80
1,44,127,0
1,44,127,80
1,35,127,80
1,44,127,0
1,44,127,80
1,38,127,80
1,44,127,0
1,44,127,80
1,38,127,124
1,35,127,80
1,44,127,0
1,49,127,4
1,44,127,76
1,38,127,80
1,44,127,0
1,44,127,80
1,35,127,80
1,44,127,0
1,46,127,80
1,38,127,80
1,44,127,0
1,35,127,80
1,44,127,0
1,35,127,80
1,44,127,0
1,44,127,80
1,38,127,80
1,44,127,4
1,44,127,76
1,35,127,80
1,44,127,0
1,44,127,80
1,38,127,80
1,44,127,0
1,44,127,80
1,35,127,80
1,44,127,0
1,44,127,80
1,38,127,80
1,44,127,0
1,35,127,80
1,44,127,0
1,35,127,80
1,44,127,0
1,44,127,80
1,38,127,80
1,44,127,0
1,35,127,80
1,44,127,0
1,44,127,80
1,35,127,4
1,44,127,88
1,44,127,64
1,38,127,8
1,44,127,76
1,38,127,80
1,44,127,0
1,41,100,120
1,44,127,108
1,38,127,96
1,38,127,40
1,41,100,4
1,44,127,0
1,50,100,120
1,35,127,32
1,43,100,4
1,41,100,120
1,52,100,0
1,35,127,4
1,49,127,0
1,35,127,4
1,44,127,0
1,44,127,108
1,38,127,112
1,44,127,0
1,44,127,112
1,35,127,112
1,44,127,0
1,44,127,112
1,38,127,112
1,44,127,0
1,35,127,112
1,44,127,0
1,35,127,112
1,44,127,0
1,44,127,112
1,38,127,112
1,44,127,0
1,44,127,112
1,35,127,116
1,44,127,0
1,44,127,112
1,38,127,108
1,44,127,4
1,44,127,116
1,38,127,10
1,38,127,24
1,38,127,10
1,47,100,68
1,47,100,204
1,43,100,204
1,41,100,84
1,41,100,84
1,35,127,84
1,49,127,0
1,35,127,4
1,49,127,0
1,51,100,76
1,51,100,76
1,38,127,0
1,51,100,76
1,35,127,0
1,51,100,76
1,35,127,0
1,51,100,76
1,51,100,76
1,38,127,0
1,51,100,76
1,51,100,76
1,35,127,0
1,51,100,56
1,51,100,76
1,38,127,0
1,51,100,76
1,51,100,76
1,35,127,0
1,51,100,76
1,51,100,76
1,38,127,0
1,51,100,28
1,51,100,36
1,51,100,36
1,51,100,36
1,35,127,0
1,51,100,56
1,51,100,76
1,38,127,0
1,51,100,76
1,35,127,0
1,51,100,76
1,35,127,0
1,51,100,76
1,51,100,76
1,38,127,0
1,51,100,76
1,51,100,76
1,35,127,0
1,51,100,56
1,51,100,76
1,38,127,0
1,51,100,76
1,51,100,76
1,35,127,0
1,51,100,76
1,35,127,120
1,51,100,76
1,38,127,0
1,53,100,76
1,53,100,28
1,35,127,28
1,49,127,0
1,51,100,76
1,51,100,76
1,38,127,0
1,51,100,76
1,35,127,0
1,51,100,76
1,35,127,0
1,51,100,76
1,51,100,76
1,38,127,0
1,51,100,76
1,51,100,76
1,35,127,0
1,51,100,56
1,51,100,76
1,38,127,0
1,51,100,76
1,51,100,76
1,35,127,0
1,51,100,76
1,46,127,0
1,51,100,28
1,38,127,0
1,51,100,76
1,38,127,120
1,35,127,32
1,38,127,0
1,38,127,112
1,38,127,152
1,38,127,32
1,48,100,32
1,41,100,32
1,52,100,0
1,35,127,32
1,49,127,0
1,53,100,60
1,53,100,32
1,38,127,0
1,53,100,60
1,35,127,0
1,48,100,120
1,43,100,0
1,53,100,16
1,35,127,0
1,38,127,0
1,53,100,60
1,38,127,0
1,43,100,28
1,41,100,56
1,38,127,56
1,52,100,172
1,84,120,4
1,35,127,0
1,49,127,0
1,83,88,0
1,38,127,4
1,44,127,8
1,35,127,4
1,52,100,96
1,38,127,0
1,44,127,0
1,83,88,0
1,35,127,80
1,44,127,0
1,52,100,80
1,38,127,0
1,35,127,100
1,52,100,100
1,38,127,0
1,35,127,100
1,52,100,100
1,38,127,4
1,35,127,96
1,52,100,104
1,38,127,0
1,35,127,100
1,38,127,92
1,52,100,8
1,35,127,96
1,52,100,100
1,38,127,4
1,35,127,96
1,49,127,100
1,52,100,8
1,38,127,0
1,35,127,96
1,52,100,12
1,38,127,0
1,35,127,100
1,52,100,100
1,38,127,0
1,35,127,96
1,52,100,104
1,38,127,0
1,35,127,104
1,38,127,92
1,52,100,4
1,35,127,0
1,35,127,104
1,38,127,96
1,52,100,4
1,35,127,92
1,38,127,132
1,52,100,4
1,35,127,124
1,52,100,136
1,38,127,4
1,35,127,132
1,52,100,124
1,84,120,0
1,38,127,4
1,49,127,0
1,84,120,8
1,35,127,0
1,46,127,0
1,49,127,0
1,83,88,0
1,83,88,332
1,35,127,76
1,46,127,0
1,83,88,0
1,83,88,332
1,35,127,332
1,46,127,0
1,83,88,0
1,83,88,332
1,35,127,332
1,46,127,0
1,83,88,0
1,35,127,212
1,83,88,120
1,35,127,92
1,35,127,72
1,46,127,0
1,83,88,0
1,83,88,332
1,35,127,332
1,46,127,0
1,83,88,0
1,83,88,332
1,35,127,212
1,83,88,20
1,46,100,4
1,83,88,362
1,35,100,118
1,35,127,181
1,46,127,0
1,83,88,0
1,38,106,93
1,83,88,177
1,38,114,5
1,35,127,52
1,35,127,200
1,46,127,0
1,83,88,0
1,38,114,116
1,35,100,182
1,83,88,128
1,38,125,9
1,45,106,66
1,43,103,61
1,41,89,76
1,35,127,81
1,49,127,0
1,49,127,8
1,51,100,76
1,51,100,76
1,38,127,0
1,51,100,76
1,35,127,0
1,51,100,76
1,35,127,0
1,51,100,76
1,51,100,76
1,38,127,0
1,51,100,76
1,51,100,76
1,35,127,0
1,51,100,56
1,51,100,76
1,38,127,0
1,51,100,76
1,51,100,76
1,35,127,0
1,51,100,76
1,51,100,76
1,38,127,0
1,51,100,28
1,51,100,36
1,51,100,36
1,51,100,36
1,35,127,0
1,51,100,56
1,51,100,76
1,38,127,0
1,51,100,76
1,35,127,0
1,51,100,76
1,35,127,0
1,51,100,76
1,51,100,76
1,38,127,0
1,51,100,76
1,51,100,76
1,35,127,0
1,51,100,56
1,51,100,76
1,38,127,0
1,51,100,76
1,51,100,76
1,35,127,0
1,51,100,76
1,51,100,76
1,38,127,0
1,51,100,28
1,51,100,36
1,51,100,36
1,35,127,36
1,49,127,0
1,51,100,76
1,51,100,76
1,38,127,0
1,51,100,76
1,35,127,0
1,51,100,76
1,35,127,0
1,51,100,76
1,51,100,76
1,38,127,0
1,51,100,76
1,51,100,76
1,35,127,0
1,51,100,56
1,51,100,76
1,38,127,0
1,51,100,76
1,51,100,76
1,35,127,0
1,51,100,76
1,46,127,0
1,51,100,28
1,38,127,0
1,51,100,76
1,38,127,120
1,51,100,32
1,35,127,0
1,51,100,56
1,51,100,76
1,38,127,0
1,51,100,76
1,35,100,0
1,51,100,76
1,35,127,0
1,51,100,76
1,35,100,120
1,51,100,76
1,38,127,4
1,46,100,72
1,38,127,120
1,35,100,32
1,48,125,0
1,47,127,24
1,47,127,48
1,47,127,183
1,35,100,75
1,47,125,0
1,45,122,71
1,43,112,76
1,41,125,82
1,49,122,82
1,36,106,0
1,51,89,192
1,38,127,199
1,51,106,0
1,36,114,182
1,51,89,0
1,51,106,188
1,36,125,0
1,51,89,182
1,51,97,194
1,38,127,0
1,51,89,185
1,51,97,192
1,36,125,0
1,51,97,187
1,36,112,71
1,51,97,70
1,38,125,0
1,51,97,186
1,36,125,71
1,53,100,69
1,35,127,0
1,38,127,0
1,53,100,60
1,38,127,0
1,43,100,28
1,41,100,56
1,38,127,56
1,52,100,56
1,84,120,120
1,35,127,0
1,49,127,0
1,83,88,0
1,44,127,80
1,52,100,176
1,38,127,0
1,44,127,0
1,83,88,0
1,35,127,80
1,44,127,0
1,35,127,80
1,44,127,0
1,83,88,0
1,44,127,80
1,52,100,176
1,38,127,0
1,44,127,0
1,83,88,0
1,44,127,92
1,84,120,176
1,35,127,0
1,44,127,0
1,83,88,0
1,44,127,48
1,52,100,176
1,38,127,0
1,44,127,0
1,83,88,0
1,35,127,48
1,44,127,0
1,35,127,92
1,44,127,0
1,83,88,0
1,44,127,52
1,52,100,152
1,38,127,0
1,44,127,0
1,83,88,0
1,44,127,92
1,83,88,0
1,35,127,100
1,44,127,0
1,83,88,0
1,44,127,92
1,35,127,32
1,52,100,120
1,38,127,0
1,44,127,0
1,83,88,0
1,44,127,92
1,35,127,152
1,44,127,0
1,83,88,0
1,44,127,52
1,52,100,152
1,38,127,0
1,44,127,0
1,83,88,0
1,44,127,92
1,83,88,0
1,35,127,100
1,44,127,0
1,83,88,0
1,44,127,92
1,35,127,32
1,52,100,120
1,38,127,0
1,44,127,0
1,83,88,0
1,44,127,92
1,35,127,152
1,44,127,0
1,83,88,0
1,44,127,52
1,52,100,152
1,38,127,0
1,44,127,0
1,83,88,0
1,44,127,92
1,83,88,0
1,35,127,100
1,44,127,0
1,83,88,0
1,49,100,0
1,44,127,92
1,35,127,28
1,52,100,120
1,38,127,0
1,44,127,0
1,83,88,0
1,44,127,92
1,35,127,152
1,44,127,0
1,83,88,0
