track,note,velocity,time
1,38,122,9216
1,38,116,100
1,38,116,163
1,38,116,96
1,36,122,91
1,38,122,100
1,38,112,86
1,38,116,100
1,38,112,104
1,36,116,96
1,38,114,89
1,38,114,102
1,38,116,149
1,38,114,124
1,36,119,105
1,38,114,108
1,38,114,87
1,38,122,101
1,38,114,61
1,36,119,99
1,34,127,94
1,29,119,100
1,28,119,79
1,29,116,9
1,30,116,80
1,31,116,93
1,28,107,195
1,29,119,82
1,30,116,101
1,31,119,87
1,28,116,145
1,29,119,87
1,30,119,92
1,31,116,81
1,28,112,99
1,29,114,78
1,30,119,111
1,31,119,95
1,28,112,95
1,29,112,99
1,30,119,94
1,31,114,109
1,31,112,74
1,43,107,288
1,31,112,28
1,43,103,192
1,43,101,57
1,31,114,0
1,43,109,96
1,36,112,81
1,36,122,3
1,36,112,77
1,35,116,87
1,35,116,83
1,28,114,4
1,28,109,55
1,29,114,86
1,29,112,62
1,31,116,86
1,31,114,89
1,31,119,96
1,31,114,88
1,31,114,58
1,31,114,90
1,31,114,89
1,31,112,78
1,36,119,96
1,36,124,79
1,35,109,83
1,42,127,94
1,35,105,8
1,31,112,96
1,28,105,84
1,28,105,69
1,29,112,77
1,29,112,59
1,31,116,93
1,31,112,53
1,31,98,50
1,31,109,52
1,31,112,43
1,31,109,50
1,31,109,49
1,31,109,47
1,31,107,50
1,31,107,46
1,31,105,50
1,31,109,43
1,31,107,47
1,31,105,50
1,31,109,52
1,31,103,55
1,31,107,50
1,31,109,50
1,31,107,53
1,31,107,51
1,31,107,51
1,31,107,51
1,31,107,55
1,31,107,53
1,31,105,51
1,31,107,50
1,31,107,55
1,31,107,53
1,31,109,55
1,31,107,53
1,31,109,52
1,31,103,60
1,38,119,30
1,38,124,108
1,38,116,162
1,38,107,87
1,36,122,102
1,38,112,90
1,38,114,106
1,38,114,142
1,38,112,113
1,36,119,101
1,38,112,95
1,38,109,95
1,38,112,87
1,38,114,96
1,36,119,92
1,38,116,120
1,38,114,76
1,38,112,105
1,38,109,100
1,36,119,90
1,38,112,91
1,38,112,94
1,38,114,152
1,38,112,94
1,36,119,89
1,38,116,95
1,38,109,77
1,38,112,90
1,38,116,56
1,36,116,95
1,34,124,93
1,29,112,90
1,28,112,80
1,29,116,104
1,30,112,84
1,31,107,78
1,28,107,104
1,28,109,63
1,29,112,85
1,29,109,62
1,30,114,82
1,30,116,70
1,31,109,90
1,31,112,90
1,28,109,78
1,28,105,70
1,29,109,80
1,29,109,62
1,30,114,85
1,30,116,72
1,31,112,81
1,31,109,70
1,28,109,74
1,28,105,49
1,29,109,76
1,29,107,69
1,30,114,77
1,30,112,63
1,31,112,83
1,31,112,60
1,28,105,89
1,28,105,90
1,29,109,91
1,29,109,69
1,30,114,88
1,30,119,79
1,31,112,90
1,31,109,107
1,31,109,82
1,31,109,80
1,43,116,96
1,31,107,183
1,43,114,94
1,43,114,87
1,31,107,30
1,36,122,10
1,36,116,79
1,35,112,77
1,35,112,90
1,28,109,9
1,28,107,72
1,29,114,89
1,29,114,68
1,31,114,84
1,31,109,96
1,31,109,92
1,31,109,85
1,31,114,57
1,31,112,83
1,31,112,96
1,31,109,78
1,36,112,55
1,36,107,67
1,35,109,77
1,42,124,66
1,35,105,96
1,31,109,89
1,28,107,84
1,28,98,70
1,29,109,84
1,29,112,76
1,31,112,80
1,31,105,47
1,31,107,53
1,31,105,51
1,31,105,55
1,31,105,48
1,31,101,53
1,31,107,52
1,31,105,53
1,31,101,54
1,31,96,54
1,31,105,54
1,31,103,46
1,31,107,48
1,31,103,47
1,31,94,51
1,31,107,60
1,31,103,49
1,31,109,52
1,31,105,52
1,31,105,52
1,31,105,46
1,31,105,50
1,31,103,55
1,31,105,56
1,31,105,55
1,31,98,50
1,31,107,48
1,31,107,53
1,31,109,58
1,31,114,54
1,31,116,63
1,38,114,55
1,38,114,94
1,38,114,82
1,38,114,101
1,36,122,94
1,38,119,92
1,38,109,90
1,38,112,80
1,38,112,90
1,36,119,91
1,38,114,91
1,38,109,92
1,38,109,86
1,38,112,91
1,36,116,91
1,38,112,94
1,38,112,91
1,38,116,89
1,38,112,61
1,36,116,100
1,34,122,95
1,29,116,102
1,28,114,100
1,29,114,856
1,30,119,62
1,31,119,104
1,31,107,52
1,31,107,19
1,43,114,28
1,31,122,33
1,31,116,73
1,33,119,52
1,34,122,52
1,36,116,68
1,38,119,84
2,43,105,3072
2,50,79,96
2,55,105,8
2,46,107,5
2,50,89,78
2,55,107,96
2,43,93,95
2,50,89,54
2,45,98,96
2,50,84,78
2,55,101,96
2,46,94,88
2,50,94,71
2,55,93,6
2,46,116,38
2,50,72,78
2,43,96,96
2,50,94,74
2,55,94,2
2,46,96,96
2,50,93,87
2,55,98,6
2,43,84,11
2,50,93,66
2,45,98,96
2,50,85,81
2,55,96,96
2,46,93,90
2,50,93,85
2,55,96,2
2,46,119,50
2,50,94,83
2,43,98,0
2,50,89,93
2,55,105,2
2,46,114,96
2,50,93,85
2,55,98,0
2,43,87,0
2,50,93,75
2,45,103,96
2,50,85,79
2,55,101,2
2,46,109,2
2,50,89,84
2,55,98,8
2,46,116,24
2,50,91,88
2,43,96,96
2,50,89,86
2,55,91,96
2,46,116,93
2,50,91,85
2,55,107,5
2,43,93,13
2,50,91,76
2,45,105,96
2,50,84,85
2,55,101,0
2,46,109,96
2,50,87,83
2,55,101,6
2,48,105,5
2,57,103,89
2,62,94,0
2,50,112,1
2,62,91,83
2,57,103,0
2,50,114,2
2,57,98,85
2,62,94,0
2,50,114,4
2,57,96,76
2,62,91,0
2,50,112,7
2,60,96,79
2,55,105,0
2,48,114,0
2,57,98,75
2,62,91,0
2,50,109,14
2,62,96,74
2,57,101,0
2,50,112,3
2,62,89,78
2,57,91,0
2,50,109,6
2,50,114,86
2,62,89,4
2,57,94,0
2,60,98,84
2,55,105,0
2,48,114,1
2,62,96,74
2,57,101,0
2,50,109,0
2,62,93,75
2,57,101,0
2,50,112,6
2,62,91,90
2,57,98,0
2,50,112,2
2,50,112,91
2,62,91,0
2,57,98,0
2,55,101,88
2,60,96,0
2,48,116,1
2,50,112,87
2,62,93,4
2,57,101,0
2,62,93,76
2,57,101,0
2,50,109,3
2,50,109,88
2,62,91,0
2,57,101,0
2,62,94,57
2,57,98,0
2,50,112,2
2,55,112,93
2,60,112,0
2,48,119,5
2,53,112,90
2,58,127,0
2,46,127,2
2,53,114,83
2,48,112,0
2,41,124,12
2,40,109,87
2,50,93,192
2,57,89,96
2,40,105,51
2,50,94,12
2,55,103,16
2,50,89,11
2,41,112,7
2,50,87,96
2,57,98,96
2,41,103,27
2,50,93,84
2,55,101,96
2,50,85,6
2,42,109,15
2,50,82,96
2,57,96,96
2,42,114,24
2,50,93,82
2,57,94,96
2,42,114,43
2,50,89,79
2,43,112,55
2,50,85,86
2,55,94,96
2,43,105,27
2,50,91,78
2,55,96,96
2,43,107,34
2,50,96,84
2,40,109,22
2,50,91,96
2,57,101,96
2,40,101,0
2,50,96,96
2,55,107,96
2,50,96,11
2,41,105,4
2,50,94,96
2,57,101,96
2,41,101,24
2,50,96,93
2,55,107,96
2,50,91,8
2,42,98,2
2,50,96,93
2,57,94,96
2,42,105,1
2,50,94,96
2,57,94,0
2,42,101,36
2,50,98,91
2,43,112,23
2,50,91,85
2,55,101,5
2,43,94,35
2,50,96,88
2,55,107,1
2,43,103,35
2,50,96,90
2,40,98,3
2,50,94,96
2,57,101,96
2,40,101,16
2,50,94,95
2,55,98,96
2,50,85,8
2,41,101,1
2,50,94,96
2,57,93,96
2,41,107,10
2,50,89,96
2,55,94,0
2,50,89,4
2,42,101,0
2,50,93,95
2,57,93,8
2,42,114,0
2,50,94,96
2,57,91,9
2,42,109,40
2,50,96,83
2,43,105,1
2,50,93,95
2,55,101,8
2,43,98,32
2,50,93,90
2,55,105,96
2,43,94,26
2,50,91,86
2,40,98,5
2,50,91,96
2,57,91,5
2,40,103,6
2,50,91,96
2,55,96,1
2,50,94,8
2,41,105,96
2,50,93,91
2,57,98,1
2,41,94,6
2,50,93,96
2,55,105,96
2,50,94,1
2,42,96,96
2,50,91,87
2,57,93,96
2,42,112,0
2,50,79,96
2,57,98,96
2,42,107,29
2,50,98,95
2,43,107,1
2,50,87,96
2,55,98,6
2,43,93,16
2,50,94,89
2,55,109,2
2,43,101,32
2,50,98,89
2,40,98,1
2,50,89,96
2,57,98,1
2,40,103,1
2,50,91,96
2,55,101,2
2,50,89,192
2,41,105,6
2,50,94,95
2,57,98,3
2,41,93,22
2,50,93,88
2,55,105,96
2,50,94,7
2,42,98,96
2,50,93,88
2,57,93,96
2,42,103,2
2,50,91,96
2,57,96,96
2,42,105,19
2,50,93,78
2,43,103,96
2,50,93,91
2,55,103,5
2,43,84,19
2,50,89,92
2,55,101,3
2,43,105,0
2,50,94,96
2,43,112,3
2,50,93,94
2,55,105,0
2,43,109,81
2,50,101,89
2,55,103,7
2,43,109,60
2,50,105,69
2,48,107,29
2,50,85,92
2,55,103,2
2,48,98,40
2,50,96,79
2,55,101,1
2,50,89,8
2,47,101,4
2,50,94,96
2,55,93,9
2,47,96,59
2,50,96,83
2,55,105,96
2,50,93,184
2,40,96,11
2,50,85,84
2,57,93,1
2,40,101,8
2,50,94,7
2,55,105,26
2,50,94,26
2,41,93,1
2,50,87,77
2,57,103,2
2,41,98,56
2,50,94,90
2,55,107,96
2,50,91,1
2,43,112,3
2,50,85,96
2,57,98,96
2,43,103,44
2,50,91,92
2,55,103,96
2,50,87,2
2,43,107,35
2,50,87,85
2,57,98,96
2,43,103,46
2,50,94,89
2,55,103,96
2,50,93,8
2,48,105,13
2,50,87,96
2,55,94,96
2,48,103,47
2,50,94,74
2,55,101,1
2,50,96,7
2,47,98,67
2,50,93,89
2,55,93,5
2,47,98,52
2,50,96,78
2,55,103,96
2,50,96,21
2,40,94,96
2,50,89,89
2,57,98,1
2,40,98,44
2,50,94,94
2,55,103,96
2,50,96,182
2,41,91,79
2,50,91,80
2,57,98,96
2,41,105,48
2,50,94,92
2,55,101,96
2,50,96,186
2,43,114,20
2,50,87,96
2,57,101,7
2,43,101,82
2,50,93,93
2,55,109,96
2,50,89,185
2,43,112,4
2,50,96,96
2,57,94,3
2,43,105,56
2,50,96,88
2,55,107,96
2,50,89,189
2,43,103,5
2,50,91,96
2,57,93,6
2,43,101,49
2,50,89,83
2,55,107,96
2,50,89,3
2,43,105,66
2,50,89,89
2,57,98,96
2,43,105,57
2,50,96,83
2,55,105,5
2,50,96,192
2,57,103,32
2,62,94,0
2,50,112,1
2,62,91,83
2,57,103,0
2,50,114,2
2,57,98,85
2,62,94,0
2,50,114,4
2,57,96,76
2,62,91,0
2,50,112,7
2,60,96,79
2,55,105,0
2,48,114,0
2,57,98,75
2,62,91,0
2,50,109,14
2,62,96,74
2,57,101,0
2,50,112,3
2,62,89,78
2,57,91,0
2,50,109,6
2,50,114,86
2,62,89,4
2,57,94,0
2,60,98,84
2,55,105,0
2,48,114,1
2,57,103,78
2,50,103,1
2,62,93,0
2,50,103,85
2,57,103,1
2,62,101,0
2,50,103,86
2,62,98,2
2,57,103,0
2,50,103,74
2,62,98,1
2,57,103,0
2,60,98,78
2,55,103,0
2,48,105,3
2,62,105,72
2,57,105,1
2,50,103,2
2,62,98,82
2,57,103,1
2,50,103,0
2,50,98,86
2,62,98,1
2,57,101,0
2,50,101,84
2,62,98,0
2,57,103,2
2,60,101,78
2,55,105,1
2,48,105,2
2,62,96,61
2,57,101,0
2,50,109,0
2,62,93,75
2,57,101,0
2,50,112,6
2,62,91,90
2,57,98,0
2,50,112,2
2,50,112,91
2,62,91,0
2,57,98,0
2,55,101,88
2,60,96,0
2,48,116,1
2,50,112,87
2,62,93,4
2,57,101,0
2,62,93,76
2,57,101,0
2,50,109,3
2,50,109,88
2,62,91,0
2,57,101,0
2,62,94,57
2,57,98,0
2,50,112,2
2,55,112,93
2,60,112,0
2,48,119,5
2,53,112,90
2,58,127,0
2,46,127,2
2,53,114,83
2,48,112,0
2,41,124,12
2,40,109,87
2,50,93,192
2,57,89,96
2,40,105,51
2,50,94,12
2,55,103,16
2,50,89,11
2,41,112,7
2,50,87,96
2,57,98,96
2,41,103,27
2,50,93,84
2,55,101,96
2,50,85,6
2,42,109,15
2,50,82,96
2,57,96,96
2,42,114,24
2,50,93,82
2,57,94,96
2,42,114,43
2,50,89,79
2,43,112,55
2,50,85,86
2,55,94,96
2,43,105,27
2,50,91,78
2,55,96,96
2,43,107,34
2,50,96,84
2,40,109,22
2,50,91,96
2,57,101,96
2,40,101,0
2,50,96,96
2,55,107,96
2,50,96,11
2,41,105,4
2,50,94,96
2,57,101,96
2,41,101,24
2,50,96,93
2,55,107,96
2,50,91,8
2,42,98,2
2,50,96,93
2,57,94,96
2,42,105,1
2,50,94,96
2,57,94,0
2,42,101,36
2,50,98,91
2,43,112,23
2,50,91,85
2,55,101,5
2,43,94,35
2,50,96,88
2,55,107,1
2,43,103,35
2,50,96,90
2,40,98,3
2,50,94,96
2,57,101,96
2,40,101,16
2,50,94,95
2,55,98,96
2,50,85,8
2,41,101,1
2,50,94,96
2,57,93,96
2,41,107,10
2,50,89,96
2,55,94,0
2,50,89,4
2,42,101,0
2,50,93,95
2,57,93,8
2,42,114,0
2,50,94,96
2,57,91,9
2,42,109,40
2,50,96,83
2,43,105,1
2,50,93,95
2,55,101,8
2,43,98,32
2,50,93,90
2,55,105,96
2,43,94,26
2,50,91,86
2,40,98,5
2,50,91,96
2,57,91,5
2,40,103,6
2,50,91,96
2,55,96,1
2,50,94,8
2,41,105,96
2,50,93,91
2,57,98,1
2,41,94,6
2,50,93,96
2,55,105,96
2,50,94,1
2,42,96,96
2,50,91,87
2,57,93,96
2,42,112,0
2,50,79,96
2,57,98,96
2,42,107,29
2,50,98,95
2,43,107,1
2,50,87,96
2,55,98,6
2,43,93,16
2,50,94,89
2,55,109,2
2,43,101,32
2,50,98,89
2,40,98,1
2,50,89,96
2,57,98,1
2,40,103,1
2,50,91,96
2,55,101,2
2,50,89,192
2,41,105,6
2,50,94,95
2,57,98,3
2,41,93,22
2,50,93,88
2,55,105,96
2,50,94,7
2,42,98,96
2,50,93,88
2,57,93,96
2,42,103,2
2,50,91,96
2,57,96,96
2,42,105,19
2,50,93,78
2,43,103,96
2,50,93,91
2,55,103,5
2,43,84,19
2,50,89,92
2,55,101,3
2,43,105,0
2,50,94,96
2,43,112,3
2,50,93,94
2,55,105,0
2,43,109,81
2,50,101,89
2,55,103,7
2,43,109,60
2,50,105,69
2,48,107,29
2,50,85,92
2,55,103,2
2,48,98,40
2,50,96,79
2,55,101,1
2,50,89,8
2,47,101,4
2,50,94,96
2,55,93,9
2,47,96,59
2,50,96,83
2,55,105,96
2,50,93,184
2,40,96,11
2,50,85,84
2,57,93,1
2,40,101,8
2,50,94,7
2,55,105,26
2,50,94,26
2,41,93,1
2,50,87,77
2,57,103,2
2,41,98,56
2,50,94,90
2,55,107,96
2,50,91,1
2,43,112,3
2,50,85,96
2,57,98,96
2,43,103,44
2,50,91,92
2,55,103,96
2,50,87,2
2,43,107,35
2,50,87,85
2,57,98,96
2,43,103,46
2,50,94,89
2,55,103,96
2,50,93,8
2,48,105,13
2,50,87,96
2,55,94,96
2,48,103,47
2,50,94,74
2,55,101,1
2,50,96,7
2,47,98,67
2,50,93,89
2,55,93,5
2,47,98,52
2,50,96,78
2,55,103,96
2,50,96,21
2,40,94,96
2,50,89,89
2,57,98,1
2,40,98,44
2,50,94,94
2,55,103,96
2,50,96,182
2,41,91,79
2,50,91,80
2,57,98,96
2,41,105,48
2,50,94,92
2,55,101,96
2,50,96,186
2,43,114,20
2,50,87,96
2,57,101,7
2,43,101,82
2,50,93,93
2,55,109,96
2,50,89,185
2,43,112,4
2,50,96,96
2,57,94,3
2,43,105,56
2,50,96,88
2,55,107,96
2,50,89,189
2,43,103,5
