track,note,velocity,time
1,33,127,216
1,45,127,0
1,45,127,17
1,33,112,26
1,55,118,19
1,33,109,22
1,33,127,33
1,57,127,25
1,33,124,71
1,57,97,20
1,33,103,43
1,50,118,23
1,33,117,36
1,49,126,5
1,33,118,18
1,33,114,3
1,45,127,0
1,33,124,21
1,45,123,33
1,55,127,82
1,33,127,18
1,33,127,13
1,57,127,18
1,33,127,54
1,57,127,6
1,33,124,32
1,50,124,6
1,33,123,24
1,49,112,7
1,33,111,12
1,33,123,8
1,45,127,0
1,45,127,14
1,33,127,15
1,55,108,9
1,33,127,22
1,33,114,25
1,57,127,23
1,33,127,71
1,57,123,12
1,33,127,27
1,50,127,8
1,33,127,32
1,49,118,11
1,33,127,13
1,45,124,3
1,33,127,0
1,45,127,3
1,33,127,17
1,55,124,30
1,33,118,50
1,55,111,3
1,57,127,15
1,33,127,36
1,57,127,5
1,33,127,19
1,50,127,11
1,33,124,16
1,49,127,37
1,33,127,51
1,33,127,0
1,45,127,0
1,45,127,17
1,33,112,26
1,55,118,19
1,33,109,22
1,33,127,33
1,57,127,25
1,33,124,71
1,57,97,20
1,33,103,43
1,50,118,23
1,33,117,36
1,49,126,5
1,33,118,18
1,33,114,3
1,45,127,0
1,33,124,21
1,45,123,33
1,55,127,82
1,33,127,18
1,33,127,13
1,57,127,18
1,33,127,54
1,57,127,6
1,33,124,32
1,50,124,6
1,33,123,24
1,49,112,7
1,33,111,12
1,33,123,8
1,45,127,0
1,45,127,14
1,33,127,15
1,55,108,9
1,33,127,22
1,33,114,25
1,57,127,23
1,33,127,71
1,57,123,12
1,33,127,27
1,50,127,8
1,33,127,32
1,49,118,11
1,33,127,13
1,45,124,3
1,33,127,0
1,45,127,3
1,33,127,17
1,55,124,30
1,33,118,50
1,55,111,3
1,57,127,15
1,33,127,36
1,57,127,5
1,33,127,19
1,50,127,11
1,33,124,16
1,49,127,37
1,33,127,51
1,33,127,0
1,45,127,0
1,45,127,17
1,33,112,26
1,55,118,19
1,33,109,22
1,33,127,33
1,57,127,25
1,33,124,71
1,57,97,20
1,33,103,43
1,50,118,23
1,33,117,36
1,49,126,5
1,33,118,18
1,33,114,3
1,45,127,0
1,33,124,21
1,45,123,33
1,55,127,82
1,33,127,18
1,33,127,13
1,57,127,18
1,33,127,54
1,57,127,6
1,33,124,32
1,50,124,6
1,33,123,24
1,49,112,7
1,33,111,12
1,33,123,8
1,45,127,0
1,45,127,14
1,33,127,15
1,55,108,9
1,33,127,22
1,33,114,25
1,57,127,23
1,33,127,71
1,57,123,12
1,33,127,27
1,50,127,8
1,33,127,32
1,49,118,11
1,33,127,13
1,45,124,3
1,33,127,0
1,45,127,3
1,33,127,17
1,55,124,30
1,33,118,50
1,55,111,3
1,57,127,15
1,33,127,36
1,57,127,5
1,33,127,19
1,50,127,11
1,33,124,16
1,49,127,37
1,33,127,51
1,33,127,0
1,33,127,81
1,33,127,55
1,31,127,13
1,33,127,12
1,31,127,120
1,33,127,6
1,33,127,76
1,33,127,62
1,31,127,21
1,33,127,18
1,31,127,120
1,33,127,7
1,33,127,69
1,33,127,92
1,31,127,26
1,33,127,19
1,31,127,120
1,33,127,3
1,33,127,69
1,33,127,60
1,31,127,18
1,33,127,7
1,31,127,60
1,33,127,78
1,33,127,81
1,33,127,55
1,31,127,13
1,33,127,12
1,31,127,120
1,33,127,6
1,33,127,76
1,33,127,62
1,31,127,21
1,33,127,18
1,31,127,120
1,33,127,7
1,33,127,69
1,33,127,92
1,31,127,26
1,33,127,19
1,31,127,120
1,33,127,3
1,33,127,69
1,33,127,60
1,31,127,18
1,33,127,7
1,31,127,60
1,38,127,78
1,36,127,60
1,33,127,6
1,28,127,43
1,30,127,28
1,31,127,7
1,31,127,28
1,32,127,4
1,33,127,20
1,38,127,30
1,36,127,60
1,33,127,12
1,28,127,38
1,30,127,25
1,31,127,9
1,32,127,10
1,33,127,16
1,38,127,39
1,36,127,60
1,33,127,11
1,28,127,29
1,30,127,27
1,31,127,2
1,31,127,29
1,32,127,180
1,33,127,26
1,38,127,34
1,36,127,60
1,33,127,12
1,28,127,43
1,30,127,27
1,31,127,28
1,32,127,15
1,33,127,30
1,33,127,26
1,33,127,81
1,33,127,55
1,31,127,13
1,33,127,12
1,31,127,120
1,33,127,6
1,33,127,76
1,33,127,62
1,31,127,21
1,33,127,18
1,31,127,120
1,33,127,7
1,33,127,69
1,33,127,92
1,31,127,26
1,33,127,19
1,31,127,120
1,33,127,3
1,33,127,69
1,33,127,60
1,31,127,18
1,33,127,7
1,31,127,60
1,33,127,78
1,33,127,81
1,33,127,55
1,31,127,13
1,33,127,12
1,31,127,120
1,33,127,6
1,33,127,76
1,33,127,62
1,31,127,21
1,33,127,18
1,31,127,120
1,33,127,7
1,33,127,69
1,33,127,92
1,31,127,26
1,33,127,19
1,31,127,120
1,33,127,3
1,33,127,69
1,33,127,60
1,31,127,18
1,33,127,7
1,31,127,60
1,38,127,78
1,36,127,60
1,33,127,6
1,28,127,43
1,30,127,28
1,31,127,7
1,31,127,28
1,32,127,4
1,33,127,20
1,38,127,30
1,36,127,60
1,33,127,12
1,28,127,38
1,30,127,25
1,31,127,9
1,32,127,10
1,33,127,16
1,38,127,39
1,36,127,60
1,33,127,6
1,28,127,43
1,30,127,28
1,31,127,7
1,31,127,28
1,32,127,4
1,33,127,20
1,38,127,30
1,36,127,60
1,33,127,12
1,28,127,38
1,30,127,25
1,31,127,9
1,32,127,10
1,33,127,16
1,38,127,39
1,36,127,60
1,33,127,11
1,28,127,29
1,30,127,27
1,31,127,2
1,31,127,29
1,32,127,180
1,33,127,26
1,38,127,34
1,36,127,60
1,33,127,12
1,28,127,43
1,30,127,27
1,31,127,28
1,32,127,15
1,33,127,30
1,38,127,26
1,36,127,60
1,33,127,11
1,28,127,29
1,30,127,27
1,31,127,2
1,31,127,29
1,32,127,180
1,33,127,26
1,38,127,34
1,36,127,60
1,33,127,12
1,28,127,43
1,30,127,27
1,31,127,28
1,32,127,15
1,33,127,30
1,33,127,26
1,45,127,0
1,45,127,17
1,33,112,26
1,55,118,19
1,33,109,22
1,33,127,33
1,57,127,25
1,33,124,71
1,57,97,20
1,33,103,43
1,50,118,23
1,33,117,36
1,49,126,5
1,33,118,18
1,33,114,3
1,45,127,0
1,33,124,21
1,45,123,33
1,55,127,82
1,33,127,18
1,33,127,13
1,57,127,18
1,33,127,54
1,57,127,6
1,33,124,32
1,50,124,6
1,33,123,24
1,49,112,7
1,33,111,12
1,33,123,8
1,45,127,0
1,45,127,14
1,33,127,15
1,55,108,9
1,33,127,22
1,33,114,25
1,57,127,23
1,33,127,71
1,57,123,12
1,33,127,27
1,50,127,8
1,33,127,32
1,49,118,11
1,33,127,13
1,45,124,3
1,33,127,0
1,45,127,3
1,33,127,17
1,55,124,30
1,33,118,50
1,55,111,3
1,57,127,15
1,33,127,36
1,57,127,5
1,33,127,19
1,50,127,11
1,33,124,16
1,49,127,37
1,33,127,51
1,33,127,0
1,45,127,0
1,45,127,17
1,33,112,26
1,55,118,19
1,33,109,22
1,33,127,33
1,57,127,25
1,33,124,71
1,57,97,20
1,33,103,43
1,50,118,23
1,33,117,36
1,49,126,5
1,33,118,18
1,33,114,3
1,45,127,0
1,33,124,21
1,45,123,33
1,55,127,82
1,33,127,18
1,33,127,13
1,57,127,18
1,33,127,54
1,57,127,6
1,33,124,32
1,50,124,6
1,33,123,24
1,49,112,7
1,33,111,12
1,33,123,8
1,45,127,0
1,45,127,14
1,33,127,15
1,55,108,9
1,33,127,22
1,33,114,25
1,57,127,23
1,33,127,71
1,57,123,12
1,33,127,27
1,50,127,8
1,33,127,32
1,49,118,11
1,33,127,13
1,45,124,3
1,33,127,0
1,45,127,3
1,33,127,17
1,55,124,30
1,33,118,50
1,55,111,3
1,57,127,15
1,33,127,36
1,57,127,5
1,33,127,19
1,50,127,11
1,33,124,16
1,49,127,37
1,33,127,51
1,33,127,0
1,33,127,81
1,33,127,55
1,31,127,13
1,33,127,12
1,31,127,120
1,33,127,6
1,33,127,76
1,33,127,62
1,31,127,21
1,33,127,18
1,31,127,120
1,33,127,7
1,33,127,69
1,33,127,92
1,31,127,26
1,33,127,19
1,31,127,120
1,33,127,3
1,33,127,69
1,33,127,60
1,31,127,18
1,33,127,7
1,31,127,60
1,33,127,78
1,33,127,81
1,33,127,55
1,31,127,13
1,33,127,12
1,31,127,120
1,33,127,6
1,33,127,76
1,33,127,62
1,31,127,21
1,33,127,18
1,31,127,120
1,33,127,7
1,33,127,69
1,33,127,92
1,31,127,26
1,33,127,19
1,31,127,120
1,33,127,3
1,33,127,69
1,33,127,60
1,31,127,18
1,33,127,7
1,31,127,60
1,38,127,78
1,36,127,60
1,33,127,6
1,28,127,43
1,30,127,28
1,31,127,7
1,31,127,28
1,32,127,4
1,33,127,20
1,38,127,30
1,36,127,60
1,33,127,12
1,28,127,38
1,30,127,25
1,31,127,9
1,32,127,10
1,33,127,16
1,38,127,39
1,36,127,60
1,33,127,11
1,28,127,29
1,30,127,27
1,31,127,2
1,31,127,29
1,32,127,180
1,33,127,26
1,38,127,34
1,36,127,60
1,33,127,12
1,28,127,43
1,30,127,27
1,31,127,28
1,32,127,15
1,33,127,30
1,33,127,26
1,33,127,81
1,33,127,55
1,31,127,13
1,33,127,12
1,31,127,120
1,33,127,6
1,33,127,76
1,33,127,62
1,31,127,21
1,33,127,18
1,31,127,120
1,33,127,7
1,33,127,69
1,33,127,92
1,31,127,26
1,33,127,19
1,31,127,120
1,33,127,3
1,33,127,69
1,33,127,60
1,31,127,18
1,33,127,7
1,31,127,60
1,33,127,78
1,33,127,81
1,33,127,55
1,31,127,13
1,33,127,12
1,31,127,120
1,33,127,6
1,33,127,76
1,33,127,62
1,31,127,21
1,33,127,18
1,31,127,120
1,33,127,7
1,33,127,69
1,33,127,92
1,31,127,26
1,33,127,19
1,31,127,120
1,33,127,3
1,33,127,69
1,33,127,60
1,31,127,18
1,33,127,7
1,31,127,60
1,38,127,78
1,36,127,60
1,33,127,6
1,28,127,43
1,30,127,28
1,31,127,7
1,31,127,28
1,32,127,4
1,33,127,20
1,38,127,30
1,36,127,60
1,33,127,12
1,28,127,38
1,30,127,25
1,31,127,9
1,32,127,10
1,33,127,16
1,38,127,39
1,36,127,60
1,33,127,6
1,28,127,43
1,30,127,28
1,31,127,7
1,31,127,28
1,32,127,4
1,33,127,20
1,38,127,30
1,36,127,60
1,33,127,12
1,28,127,43
1,30,127,27
1,31,127,28
1,32,127,15
1,33,127,30
1,38,127,26
1,36,127,60
1,33,127,11
1,28,127,29
1,30,127,27
1,31,127,2
1,31,127,29
1,32,127,180
1,33,127,26
1,38,127,34
1,36,127,60
1,33,127,12
1,28,127,43
1,30,127,27
1,31,127,28
1,32,127,15
1,33,127,30
1,38,127,26
1,36,127,60
1,33,127,11
1,28,127,29
1,30,127,27
1,31,127,2
1,31,127,29
1,32,127,180
1,33,127,26
1,38,127,34
1,36,127,60
1,33,127,11
1,28,127,29
1,30,127,27
1,31,127,2
1,40,127,929
1,28,127,0
1,40,127,17
1,28,112,26
1,50,118,19
1,28,109,22
1,28,127,33
1,52,127,25
1,28,124,71
1,52,97,20
1,28,103,43
1,45,118,23
1,28,117,36
1,44,126,5
1,28,118,18
1,40,127,3
1,28,114,0
1,28,124,21
1,40,123,33
1,50,127,82
1,28,127,18
1,28,127,13
1,52,127,18
1,28,127,54
1,52,127,6
1,28,124,32
1,45,124,6
1,28,123,24
1,44,112,7
1,28,111,12
1,40,127,8
1,28,123,0
1,40,127,14
1,28,127,15
1,50,108,9
1,28,127,22
1,28,114,25
1,52,127,23
1,28,127,71
1,52,123,12
1,28,127,27
1,45,127,8
1,28,127,32
1,44,118,11
1,28,127,13
1,28,127,3
1,40,124,0
1,40,127,3
1,28,127,17
1,50,124,30
1,28,118,50
1,50,111,3
1,52,127,15
1,28,127,36
1,52,127,5
1,28,127,19
1,45,127,11
1,28,124,16
1,44,127,37
1,28,127,51
1,40,127,0
1,28,127,0
1,40,127,17
1,28,112,26
1,50,118,19
1,28,109,22
1,28,127,33
1,52,127,25
1,28,124,71
1,52,97,20
1,28,103,43
1,45,118,23
1,28,117,36
1,44,126,5
1,28,118,18
1,40,127,3
1,28,114,0
1,28,124,21
1,40,123,33
1,50,127,82
1,28,127,18
1,28,127,13
1,52,127,18
1,28,127,54
1,52,127,6
1,28,124,32
1,45,124,6
1,28,123,24
1,44,112,7
1,28,111,12
1,40,127,8
1,28,123,0
1,40,127,14
1,28,127,15
1,50,108,9
1,28,127,22
1,28,114,25
1,52,127,23
1,28,127,71
1,52,123,12
1,28,127,27
1,45,127,8
1,28,127,32
1,44,118,11
1,28,127,13
1,28,127,3
1,40,124,0
1,40,127,3
1,28,127,17
1,50,124,30
1,28,118,50
1,50,111,3
1,52,127,15
1,28,127,36
1,52,127,5
1,28,127,19
1,45,127,11
1,28,124,16
1,44,127,37
1,28,127,51
1,33,127,0
2,33,88,3792
2,45,88,0
2,45,88,17
2,33,78,26
2,55,82,19
2,33,76,22
2,33,88,33
2,57,88,25
2,33,86,71
2,57,67,20
2,33,72,43
2,50,82,23
2,33,81,36
2,49,88,5
2,33,82,18
2,33,79,3
2,45,88,0
2,33,86,21
2,45,86,33
2,55,88,82
2,33,88,18
2,33,88,13
2,57,88,18
2,33,88,54
2,57,88,6
2,33,86,32
2,50,86,6
2,33,86,24
2,49,78,7
2,33,77,12
2,33,86,8
2,45,88,0
2,45,88,14
2,33,88,15
2,55,75,9
2,33,88,22
2,33,79,25
2,57,88,23
2,33,88,71
2,57,86,12
2,33,88,27
2,50,88,8
2,33,88,32
2,49,82,11
2,33,88,13
2,45,86,3
2,33,88,0
2,45,88,3
2,33,88,17
2,55,86,30
2,33,82,50
2,55,77,3
2,57,88,15
2,33,88,36
2,57,88,5
2,33,88,19
2,50,88,11
2,33,86,16
2,49,88,37
2,33,88,51
2,33,88,0
2,45,88,0
2,45,88,17
2,33,78,26
2,55,82,19
2,33,76,22
2,33,88,33
2,57,88,25
2,33,86,71
2,57,67,20
2,33,72,43
2,50,82,23
2,33,81,36
2,49,88,5
2,33,82,18
2,33,79,3
2,45,88,0
2,33,86,21
2,45,86,33
2,55,88,82
2,33,88,18
2,33,88,13
2,57,88,18
2,33,88,54
2,57,88,6
2,33,86,32
2,50,86,6
2,33,86,24
2,49,78,7
2,33,77,12
2,33,86,8
2,45,88,0
2,45,88,14
2,33,88,15
2,55,75,9
2,33,88,22
2,33,79,25
2,57,88,23
2,33,88,71
2,57,86,12
2,33,88,27
2,50,88,8
2,33,88,32
2,49,82,11
2,33,88,13
2,45,86,3
2,33,88,0
2,45,88,3
2,33,88,17
2,55,86,30
2,33,82,50
2,55,77,3
2,57,88,15
2,33,88,36
2,57,88,5
2,33,88,19
2,50,88,11
2,33,86,16
2,49,88,37
2,33,88,51
2,62,88,0
2,45,88,0
2,57,88,0
2,52,88,0
2,45,88,15
2,52,88,0
2,57,75,0
2,61,88,0
2,45,88,112
2,52,88,0
2,57,88,0
2,45,88,37
2,57,88,0
2,52,88,0
2,62,88,75
2,45,86,0
2,57,86,0
2,52,88,0
2,45,88,30
2,61,88,0
2,57,82,0
2,52,88,0
2,45,88,103
2,57,88,0
2,52,88,0
2,52,88,47
2,57,88,0
2,45,86,0
2,62,88,88
2,45,86,0
2,52,88,0
2,57,86,0
2,45,88,28
2,57,86,0
2,52,88,0
2,61,88,0
2,45,88,95
2,57,88,0
2,52,88,0
2,45,88,46
2,57,88,0
2,52,88,0
2,62,88,62
2,45,86,0
2,52,88,0
2,57,88,0
2,45,88,24
2,52,88,0
2,57,82,0
2,61,88,0
2,45,88,98
2,57,88,0
2,52,88,0
2,57,86,38
2,45,86,0
2,52,88,0
2,62,88,59
2,57,88,0
2,52,88,0
2,45,86,0
2,45,86,27
2,52,88,0
2,57,79,0
2,61,88,0
2,52,48,43
