track,note,velocity,time
1,62,103,763
1,66,101,1
1,59,96,1
1,62,107,98
1,66,105,1
1,59,103,1
1,62,107,97
1,66,105,1
1,59,101,0
1,59,103,96
1,66,107,0
1,62,107,0
1,59,98,93
1,65,124,3
1,62,101,1
1,62,98,93
1,65,112,1
1,59,91,1
1,62,105,92
1,65,114,1
1,59,98,0
1,65,119,98
1,62,107,1
1,59,103,1
1,66,101,97
1,62,105,1
1,59,96,2
1,66,101,87
1,62,101,0
1,59,96,1
1,62,103,97
1,66,101,1
1,59,96,1
1,62,101,92
1,66,103,0
1,59,98,1
1,43,122,11
1,62,103,85
1,59,101,2
1,65,119,2
1,62,94,97
1,65,114,1
1,59,94,1
1,41,124,12
1,65,114,92
1,62,98,1
1,59,96,0
1,40,109,14
1,65,116,93
1,59,98,1
1,62,101,0
1,38,112,2
1,62,98,30
1,59,93,2
1,66,98,0
1,66,101,100
1,62,96,1
1,59,96,1
1,66,101,100
1,59,96,1
1,62,96,0
1,59,94,93
1,62,98,1
1,66,103,0
1,62,101,91
1,65,109,4
1,59,91,2
1,62,93,77
1,59,89,1
1,65,109,2
1,62,103,83
1,59,93,3
1,65,109,0
1,62,101,99
1,65,114,0
1,59,94,1
1,66,96,95
1,62,96,1
1,59,91,1
1,62,98,91
1,66,98,0
1,59,91,1
1,66,103,95
1,62,98,1
1,59,93,1
1,62,96,89
1,66,98,1
1,59,89,0
1,43,114,90
1,62,96,89
1,59,85,4
1,65,107,0
1,62,93,97
1,65,105,1
1,59,85,2
1,41,119,77
1,62,94,88
1,59,91,1
1,65,112,0
1,40,112,0
1,65,114,96
1,62,98,2
1,59,94,1
1,38,114,0
1,61,103,54
1,58,114,4
1,54,93,1
1,61,101,93
1,58,122,0
1,54,98,1
1,58,119,94
1,61,96,2
1,54,96,2
1,58,122,95
1,54,98,2
1,61,98,0
1,66,112,84
1,62,101,3
1,59,101,1
1,66,103,81
1,59,103,0
1,62,103,1
1,66,105,95
1,62,107,1
1,59,103,1
1,66,103,99
1,59,98,1
1,62,105,1
1,64,96,91
1,61,98,1
1,57,101,2
1,64,96,92
1,61,98,1
1,57,96,1
1,61,101,94
1,64,98,1
1,57,98,2
1,64,98,99
1,61,98,1
1,57,96,2
1,62,96,99
1,55,101,2
1,59,101,0
1,62,93,94
1,59,96,1
1,55,96,1
1,62,96,93
1,59,101,1
1,55,101,0
1,62,96,98
1,59,98,1
1,55,101,1
1,58,119,100
1,61,93,3
1,54,91,1
1,57,47,20
1,58,119,102
1,61,93,2
1,54,91,2
1,58,116,97
1,61,93,1
1,54,93,2
1,58,119,95
1,61,91,3
1,54,94,1
1,66,103,106
1,59,96,2
1,62,103,0
1,62,103,89
1,66,101,0
1,59,96,2
1,66,96,91
1,59,93,1
1,62,96,0
1,66,96,91
1,59,93,1
1,62,98,0
1,64,96,97
1,61,98,1
1,57,96,1
1,64,96,94
1,61,96,1
1,57,93,1
1,64,96,96
1,61,96,1
1,57,94,1
1,64,98,92
1,57,94,3
1,61,96,0
1,59,98,85
1,62,89,0
1,55,96,2
1,64,64,6
1,59,96,103
1,62,93,1
1,55,91,3
1,62,94,98
1,59,98,1
1,55,98,1
1,62,94,94
1,59,96,2
1,55,101,1
1,61,94,95
1,58,112,2
1,54,91,1
1,58,116,93
1,61,91,3
1,54,91,1
1,61,91,103
1,58,109,1
1,54,89,1
1,58,119,98
1,61,93,2
1,54,94,1
1,66,98,96
1,62,96,3
1,59,93,1
1,62,103,91
1,66,101,1
1,59,94,3
1,66,98,99
1,62,94,2
1,59,94,1
1,66,93,103
1,62,93,1
1,59,89,2
1,61,91,98
1,64,94,0
1,57,91,1
1,64,93,101
1,61,91,1
1,57,91,1
1,64,91,99
1,61,91,1
1,57,93,1
1,64,94,94
1,57,94,3
1,61,93,0
1,62,93,99
1,59,94,1
1,55,98,1
1,59,94,94
1,62,93,2
1,55,94,1
1,59,101,105
1,55,101,1
1,62,94,0
1,59,96,109
1,62,94,1
1,55,96,0
1,58,112,89
1,61,94,0
1,54,91,2
1,58,114,90
1,61,94,1
1,54,93,2
1,61,94,99
1,58,109,1
1,54,91,1
1,58,112,97
1,61,94,1
1,54,93,1
1,66,98,100
1,62,94,2
1,59,94,0
1,66,98,95
1,62,96,0
1,59,96,1
1,66,96,97
1,59,94,1
1,62,96,0
1,66,96,99
1,62,96,0
1,59,94,1
1,64,94,108
1,61,98,1
1,57,98,1
1,61,94,99
1,64,94,0
1,57,96,1
1,64,96,102
1,57,94,2
1,61,94,0
1,64,93,89
1,61,93,1
1,57,93,0
1,59,98,91
1,62,93,1
1,55,96,0
1,62,91,96
1,59,93,0
1,55,98,1
1,59,94,103
1,62,89,2
1,55,94,0
1,59,101,107
1,55,103,1
1,62,94,1
1,62,101,106
1,66,98,1
1,59,94,0
1,62,96,100
1,66,96,1
1,59,91,1
1,66,98,98
1,62,98,2
1,59,94,1
1,66,103,95
1,62,103,1
1,59,98,1
1,59,91,94
1,65,112,1
1,62,94,1
1,59,93,98
1,62,94,0
1,65,109,1
1,62,96,103
1,65,112,0
1,59,89,2
1,65,114,108
1,62,98,0
1,59,93,1
1,64,98,97
1,61,96,1
1,59,93,2
1,64,101,91
1,61,98,1
1,59,96,1
1,61,103,93
1,64,101,2
1,58,105,0
1,61,98,86
1,58,114,2
1,64,94,1
1,61,98,93
1,64,101,1
1,58,109,2
1,61,98,96
1,64,101,1
1,58,114,2
1,62,101,83
1,66,101,1
1,59,87,3
1,62,98,100
1,66,98,1
1,59,93,2
1,66,101,99
1,62,101,1
1,59,98,1
1,66,98,90
1,62,96,1
1,59,96,1
1,66,101,98
1,62,94,1
1,59,96,2
1,66,101,93
1,62,103,1
1,59,101,0
1,62,98,107
1,59,94,0
1,65,109,3
1,62,98,90
1,59,94,0
1,65,112,1
1,62,101,87
1,65,114,2
1,59,94,0
1,65,114,94
1,62,101,1
1,59,96,1
1,64,98,92
1,59,93,3
1,61,89,1
1,64,96,88
1,61,98,0
1,59,96,1
1,61,98,96
1,64,98,1
1,58,109,2
1,61,96,85
1,58,116,1
1,64,96,1
1,58,116,90
1,61,101,1
1,64,96,0
1,61,101,93
1,64,103,1
1,58,119,1
1,66,96,95
1,62,98,1
1,59,89,2
1,66,101,89
1,62,103,0
1,59,96,1
1,66,101,90
1,62,98,2
1,59,85,2
1,66,98,84
1,62,94,0
1,59,93,2
1,66,96,88
1,62,96,1
1,59,91,1
1,66,98,84
1,62,101,1
1,59,98,1
1,62,98,94
1,59,89,2
1,65,105,2
1,62,93,86
1,65,109,1
1,59,89,1
1,62,96,89
1,65,112,1
1,59,93,1
1,62,93,94
1,59,87,1
1,65,107,1
1,66,93,84
1,59,91,2
1,62,94,0
1,66,94,83
1,62,93,1
1,59,87,2
1,62,94,93
1,59,91,1
1,66,93,0
1,66,98,96
1,59,93,1
1,62,93,1
1,62,96,91
1,59,89,1
1,65,105,4
1,65,112,92
1,62,94,1
1,59,89,1
1,65,112,94
1,62,93,0
1,59,89,1
1,65,116,91
1,59,96,2
1,62,96,1
1,61,94,106
1,58,107,0
1,54,87,2
1,58,112,93
1,61,93,2
1,54,93,1
1,58,112,89
1,61,93,2
1,54,93,1
1,58,119,97
1,54,96,2
1,61,98,1
1,66,98,94
1,62,103,2
1,59,101,1
1,66,98,89
1,59,96,1
1,62,98,0
1,66,101,95
1,62,101,1
1,59,98,1
1,62,98,93
1,66,98,0
1,59,96,2
1,64,103,98
1,61,101,1
1,57,103,2
1,64,98,97
1,61,98,1
1,57,98,1
1,64,96,89
1,57,94,3
1,61,96,0
1,64,98,94
1,61,96,0
1,57,98,0
1,62,96,91
1,59,101,1
1,55,101,1
1,62,94,91
1,59,96,2
1,55,96,2
1,62,96,91
1,59,96,2
1,55,98,1
1,62,98,95
1,59,98,1
1,55,101,1
1,61,94,100
1,58,107,1
1,54,91,1
1,58,112,95
1,61,96,1
1,54,93,1
1,58,114,91
1,61,98,1
1,54,94,2
1,58,114,93
1,54,96,3
1,61,96,0
1,66,101,91
1,59,96,2
1,62,96,2
1,66,98,87
1,62,98,1
1,59,96,2
1,66,96,95
1,62,96,1
1,59,96,2
1,66,105,100
1,62,101,1
1,59,98,0
1,64,96,100
1,61,101,0
1,57,98,2
1,64,98,93
1,57,101,1
1,61,98,2
1,64,101,97
1,61,103,1
1,57,103,1
1,64,101,98
1,57,98,2
1,61,101,0
1,62,96,95
1,59,101,1
1,55,105,1
1,62,96,97
1,59,101,1
1,55,101,0
1,62,96,96
1,59,101,2
1,55,101,1
1,62,98,92
1,55,101,2
1,59,98,1
1,58,112,106
1,61,101,0
1,54,91,3
1,58,116,103
1,61,96,2
1,54,94,1
1,58,119,96
1,61,98,3
1,54,98,0
1,58,119,93
1,61,98,3
1,54,98,0
1,66,103,109
1,62,103,2
1,59,103,1
1,66,103,100
1,62,103,1
1,59,96,1
1,66,103,100
1,62,103,0
1,59,98,1
1,66,98,100
1,62,101,0
1,59,98,1
1,64,96,96
1,61,96,1
1,57,94,1
1,64,96,96
1,61,98,1
1,57,94,0
1,61,94,104
1,64,93,0
1,57,93,1
1,64,96,101
1,61,94,2
1,57,93,0
1,62,93,98
1,59,98,0
1,55,98,1
1,59,101,94
1,62,96,2
1,55,98,1
1,59,103,97
1,62,96,1
1,55,101,1
1,62,91,99
1,55,94,1
1,59,93,1
1,58,109,91
1,61,93,1
1,54,91,2
1,58,114,86
1,54,93,1
1,61,96,0
1,61,96,93
1,58,109,0
1,54,91,2
1,58,116,90
1,54,96,1
1,61,96,1
1,66,103,99
1,62,101,1
1,59,96,2
1,62,98,95
1,66,98,0
1,59,94,2
1,66,98,89
1,62,96,3
1,59,94,0
1,66,98,93
1,59,93,2
1,62,96,0
1,64,96,93
1,61,98,1
1,57,94,1
1,61,94,89
1,64,98,0
1,57,94,2
1,64,96,89
1,61,98,1
1,57,93,2
1,64,96,94
1,61,101,0
1,57,94,2
1,59,103,94
1,62,96,2
1,55,101,1
1,59,98,90
1,55,98,2
1,62,94,0
1,59,101,88
1,62,94,2
1,55,98,1
1,59,98,97
1,55,101,1
1,62,96,1
1,66,103,94
1,59,96,1
1,62,103,0
1,66,101,91
1,62,103,0
1,59,94,1
1,66,98,97
1,62,101,0
1,59,94,2
1,66,101,91
1,62,101,2
1,59,96,0
1,62,101,92
1,65,114,0
1,59,93,2
1,65,114,91
1,62,101,0
1,59,93,2
1,62,103,90
1,65,112,1
1,59,94,2
1,65,109,95
1,62,96,1
1,59,89,1
1,64,98,87
1,61,98,1
1,59,93,2
1,61,94,84
1,59,91,2
1,64,94,0
1,58,109,89
1,61,98,3
1,64,98,1
1,61,96,80
1,64,96,3
1,58,119,4
1,58,114,87
1,61,101,2
1,64,101,2
1,61,103,87
1,64,105,1
1,58,116,2
1,66,98,87
1,59,91,2
1,62,98,0
1,62,107,93
1,66,105,1
1,59,96,2
1,66,101,95
1,62,103,2
1,59,94,1
1,66,98,93
1,62,96,2
1,59,94,1
1,66,98,91
1,62,96,1
1,59,91,2
1,66,101,80
1,62,98,1
1,59,94,1
1,62,101,88
1,65,114,1
1,59,82,3
1,62,103,84
1,59,96,3
1,65,114,0
1,62,98,86
1,59,91,1
1,65,109,0
1,65,116,84
1,62,103,0
1,59,96,2
1,64,98,90
1,59,93,1
1,61,96,0
1,64,98,94
1,59,96,2
1,61,98,0
1,64,103,93
1,61,101,0
1,58,96,2
1,61,94,91
1,64,94,1
1,58,112,1
1,58,109,86
1,61,103,4
1,64,98,1
1,58,114,91
1,61,103,4
1,64,101,1
1,62,98,90
1,66,98,1
1,59,89,1
1,66,101,86
1,62,98,2
1,59,89,3
1,61,93,81
1,57,105,1
1,54,98,1
1,61,96,92
1,57,101,0
1,54,89,2
1,57,105,82
1,61,98,2
1,54,93,1
1,57,103,86
1,61,101,0
1,54,93,2
1,57,103,93
1,54,89,2
1,60,107,3
1,57,101,91
1,54,89,4
1,60,109,1
1,57,105,93
1,54,94,2
1,60,112,1
1,57,105,96
1,60,114,2
1,54,94,1
1,57,103,92
1,61,94,2
1,54,93,1
1,57,103,97
1,54,94,1
1,61,94,0
1,61,96,97
1,57,101,1
1,54,91,2
1,54,98,100
1,61,101,0
1,57,105,0
1,57,103,101
1,54,91,1
1,60,112,2
1,57,103,101
1,54,91,2
1,60,112,1
1,57,105,101
1,60,116,2
1,54,96,1
1,57,103,100
1,54,96,2
1,60,116,1
1,54,93,98
1,61,96,0
1,57,103,1
1,61,98,98
1,57,103,1
1,54,96,2
1,61,96,106
1,54,94,1
1,57,105,0
1,61,98,91
1,54,94,2
1,57,105,0
1,57,105,94
1,54,93,1
1,60,114,1
1,57,103,90
1,54,94,1
1,60,116,1
1,57,101,90
1,54,94,0
1,60,114,1
1,57,101,93
1,60,114,1
1,54,93,0
1,61,96,91
1,57,101,1
1,54,93,2
1,61,94,89
1,54,89,2
1,57,101,0
1,61,94,91
1,57,101,3
1,54,93,0
1,61,96,96
1,57,103,2
1,54,94,0
1,57,103,98
1,54,93,0
1,60,103,3
1,57,103,99
1,60,114,1
1,54,94,0
1,57,101,96
1,54,89,1
1,60,112,1
1,60,116,90
1,57,103,1
1,54,94,1
1,66,107,98
1,62,103,1
1,59,96,1
1,66,101,88
1,62,101,0
1,59,98,1
1,59,96,84
1,66,101,1
1,62,98,0
1,66,101,86
1,59,98,1
1,62,101,2
1,62,101,90
1,65,116,1
1,59,89,2
1,65,112,92
1,62,93,0
1,59,89,2
1,62,96,90
1,65,116,0
1,59,91,1
1,65,112,81
1,62,96,2
1,59,91,0
1,64,101,84
1,59,91,1
1,61,96,1
1,64,98,90
1,61,98,1
1,59,93,0
1,61,101,83
1,64,98,1
1,58,101,3
1,61,98,88
1,64,101,0
1,58,116,7
1,58,114,86
1,61,101,1
1,64,96,1
1,61,103,93
1,64,105,1
1,58,122,1
1,62,101,88
1,66,96,2
1,59,87,1
1,62,105,83
1,66,103,2
1,59,98,0
1,66,101,95
1,62,105,1
1,59,94,3
1,66,101,93
1,62,103,1
1,59,98,2
1,66,101,90
1,62,98,1
1,59,91,2
1,66,101,93
1,62,103,1
1,59,96,2
1,62,101,92
1,65,112,2
1,59,87,1
1,62,98,95
1,65,114,1
1,59,91,1
1,62,101,92
1,65,112,2
1,59,89,2
1,62,103,96
1,59,94,2
1,65,119,0
1,64,98,92
1,59,96,0
1,61,98,1
1,61,98,94
1,64,98,1
1,59,94,1
1,61,103,81
1,64,98,1
1,58,107,3
1,61,96,78
1,64,96,1
1,58,112,7
1,58,112,85
1,61,103,0
1,64,101,1
1,58,119,93
1,61,98,1
1,64,94,2
1,66,101,91
1,62,105,1
1,59,93,2
1,66,105,89
1,62,105,1
1,59,94,2
1,62,105,85
1,66,101,1
1,59,96,1
1,62,101,90
1,66,98,1
1,59,93,0
1,66,101,89
1,62,101,1
1,59,94,1
1,66,103,90
1,62,101,2
1,59,96,2
1,62,94,93
1,59,89,2
1,65,107,2
1,59,91,85
1,62,94,0
1,65,114,1
1,62,98,88
1,59,94,2
1,65,112,2
1,62,98,93
1,65,112,1
1,59,91,2
1,66,98,85
1,62,101,1
1,59,94,2
1,66,98,102
1,62,98,1
1,59,94,1
1,66,101,100
1,62,101,2
1,59,94,1
1,66,101,90
1,62,101,3
1,59,91,1
1,62,103,90
1,59,93,3
1,65,114,0
1,62,98,93
1,65,114,2
1,59,93,1
1,62,101,96
1,65,112,1
1,59,91,0
1,62,103,91
1,65,116,1
1,59,94,2
1,66,98,97
1,62,96,2
1,59,93,1
1,66,101,94
1,59,93,1
1,62,96,0
1,66,101,97
1,62,94,1
1,59,91,1
1,66,103,93
1,59,94,1
1,62,98,2
1,62,98,92
1,59,91,2
1,65,109,3
1,65,116,96
1,62,103,0
1,59,94,3
1,62,96,94
1,65,114,0
1,59,89,1
1,62,101,93
1,65,116,1
1,59,93,1
1,66,101,90
1,62,98,3
1,59,93,0
1,62,103,96
1,66,103,0
1,59,94,2
