track,note,velocity,time
1,72,127,108
1,79,127,12
1,74,127,0
1,79,127,12
1,74,127,0
1,72,127,12
1,79,127,12
1,74,127,0
1,79,127,12
1,74,127,0
1,72,127,12
1,74,127,12
1,79,127,12
1,79,127,12
1,74,127,0
1,67,127,12
1,79,127,12
1,74,127,0
1,72,100,12
1,79,127,28
1,74,127,0
1,79,127,8
1,74,127,0
1,72,127,8
1,79,127,8
1,74,127,0
1,79,127,8
1,74,127,0
1,72,127,8
1,74,127,8
1,79,100,12
1,74,100,0
1,79,100,0
1,74,100,0
1,79,100,0
1,74,100,0
1,79,100,0
1,74,100,0
1,79,100,0
1,74,100,0
1,79,100,0
1,72,100,0
1,79,127,28
1,74,127,0
1,79,127,8
1,74,127,0
1,72,100,20
1,79,127,28
1,74,127,0
1,79,127,8
1,74,127,0
1,72,100,20
1,74,100,0
1,79,100,0
1,72,100,8
1,74,100,8
1,79,100,0
1,79,100,8
1,74,100,0
1,76,100,8
1,72,100,8
1,79,127,28
1,74,127,0
1,79,127,8
1,74,127,0
1,72,100,20
1,74,100,0
1,79,100,0
1,79,100,8
1,74,100,0
1,74,100,8
1,79,100,0
1,72,100,8
1,74,100,8
1,79,100,0
1,79,100,8
1,74,100,0
1,74,100,8
1,79,100,0
1,72,100,8
1,79,100,0
1,74,100,8
1,79,100,0
1,79,100,8
1,74,100,0
1,74,100,8
1,79,100,0
1,72,100,8
1,79,127,28
1,74,127,0
1,79,127,8
1,74,127,0
1,72,100,20
1,79,127,28
1,74,127,0
1,79,127,8
1,74,127,0
1,72,100,20
1,79,127,28
1,74,127,0
1,74,100,20
1,79,100,0
1,74,100,8
1,79,100,0
1,79,100,8
1,74,100,0
1,74,100,8
1,79,100,0
1,72,100,8
1,79,127,28
1,74,127,0
1,79,127,8
1,74,127,0
1,72,100,20
1,79,127,28
1,74,127,0
1,79,127,8
1,74,127,0
1,72,100,20
1,72,100,0
1,74,100,0
1,79,100,0
1,74,100,0
1,79,100,0
1,74,100,0
1,79,100,0
1,74,100,0
1,79,100,0
1,74,100,0
1,67,100,0
1,74,100,8
1,67,100,0
1,79,100,8
1,67,100,8
1,74,100,0
1,79,100,8
1,67,100,104
1,74,100,0
1,79,100,8
1,74,100,0
1,67,100,0
1,79,100,8
1,74,100,0
1,67,100,0
1,79,100,8
1,74,100,0
1,67,100,0
1,79,100,8
1,74,100,0
1,67,100,0
1,73,100,8
1,67,100,0
1,73,100,8
1,67,100,0
1,79,100,8
1,67,100,8
1,74,100,0
1,76,100,8
1,74,100,8
1,79,100,8
1,73,100,0
1,67,100,0
1,67,100,8
1,73,100,0
1,79,100,0
1,79,100,8
1,73,100,0
1,67,100,0
1,67,100,8
1,73,100,0
1,79,100,0
1,72,100,8
1,67,100,0
1,67,100,8
1,72,100,0
1,79,100,8
1,67,100,8
1,72,100,0
1,79,100,8
1,72,100,8
1,67,100,0
1,79,100,8
1,72,100,0
1,67,100,0
1,67,100,8
1,72,100,0
1,79,100,0
1,79,100,8
1,72,100,0
1,67,100,0
1,67,100,8
1,72,100,0
1,79,100,0
1,62,100,8
1,67,100,8
1,72,100,0
1,79,100,8
1,67,100,8
1,72,100,0
1,79,100,8
1,72,100,8
1,67,100,0
1,79,100,8
1,72,100,0
1,67,100,0
1,67,100,8
1,72,100,0
1,79,100,0
1,79,100,8
1,72,100,0
1,67,100,0
1,67,100,8
1,72,100,0
1,79,100,0
1,72,127,24584
1,79,127,12
1,74,127,0
1,79,127,12
1,74,127,0
1,72,127,12
1,79,127,12
1,74,127,0
1,79,127,12
1,74,127,0
1,72,127,12
1,74,127,12
1,79,127,12
1,79,127,12
1,74,127,0
1,67,127,12
1,79,127,12
1,74,127,0
1,72,100,12
1,79,127,28
1,74,127,0
1,79,127,8
1,74,127,0
1,72,127,8
1,79,127,8
1,74,127,0
1,79,127,8
1,74,127,0
1,72,127,8
1,74,127,8
1,79,100,12
1,74,100,0
1,79,100,0
1,74,100,0
1,79,100,0
1,74,100,0
1,79,100,0
1,74,100,0
1,79,100,0
1,74,100,0
1,79,100,0
1,72,100,0
1,79,127,28
1,74,127,0
1,79,127,8
1,74,127,0
1,72,100,20
1,79,127,28
1,74,127,0
1,79,127,8
1,74,127,0
1,72,100,20
1,74,100,0
1,79,100,0
1,72,100,8
1,74,100,8
1,79,100,0
1,79,100,8
1,74,100,0
1,76,100,8
1,72,100,8
1,79,127,28
1,74,127,0
1,79,127,8
1,74,127,0
1,72,100,20
1,74,100,0
1,79,100,0
1,79,100,8
1,74,100,0
1,74,100,8
1,79,100,0
1,72,100,8
1,74,100,8
1,79,100,0
1,79,100,8
1,74,100,0
1,74,100,8
1,79,100,0
1,72,100,8
1,79,100,0
1,74,100,8
1,79,100,0
1,79,100,8
1,74,100,0
1,74,100,8
1,79,100,0
1,72,100,8
1,79,127,28
1,74,127,0
1,79,127,8
1,74,127,0
1,72,100,20
1,79,127,28
1,74,127,0
1,79,127,8
1,74,127,0
1,72,100,20
1,79,127,28
1,74,127,0
1,74,100,20
1,79,100,0
1,74,100,8
1,79,100,0
1,79,100,8
1,74,100,0
1,74,100,8
1,79,100,0
1,72,100,8
1,79,127,28
1,74,127,0
1,79,127,8
1,74,127,0
1,72,100,20
1,79,127,28
1,74,127,0
1,79,127,8
1,74,127,0
1,72,100,20
1,72,100,0
1,74,100,0
1,79,100,0
1,74,100,0
1,79,100,0
1,74,100,0
1,79,100,0
1,74,100,0
1,79,100,0
1,74,100,0
1,67,100,0
1,74,100,8
1,67,100,0
1,79,100,8
1,67,100,8
1,74,100,0
1,79,100,8
1,67,100,104
1,74,100,0
1,79,100,8
1,74,100,0
1,67,100,0
1,79,100,8
1,74,100,0
1,67,100,0
1,79,100,8
1,74,100,0
1,67,100,0
1,79,100,8
1,74,100,0
1,67,100,0
1,73,100,8
1,67,100,0
1,73,100,8
1,67,100,0
1,79,100,8
1,67,100,8
1,74,100,0
1,76,100,8
1,74,100,8
1,79,100,8
1,73,100,0
1,67,100,0
1,67,100,8
1,73,100,0
1,79,100,0
1,79,100,8
1,73,100,0
1,67,100,0
1,67,100,8
1,73,100,0
1,79,100,0
1,72,100,8
1,67,100,0
1,67,100,8
1,72,100,0
1,79,100,8
1,67,100,8
1,72,100,0
1,79,100,8
1,72,100,8
1,67,100,0
1,79,100,8
1,72,100,0
1,67,100,0
1,67,100,8
1,72,100,0
1,79,100,0
1,79,100,8
1,72,100,0
1,67,100,0
1,67,100,8
1,72,100,0
1,79,100,0
1,62,100,8
1,67,100,8
1,72,100,0
1,79,100,8
1,67,100,8
1,72,100,0
1,79,100,8
1,72,100,8
1,67,100,0
1,79,100,8
1,72,100,0
1,67,100,0
1,67,100,8
1,72,100,0
1,79,100,0
1,79,100,8
1,72,100,0
1,67,100,0
1,67,100,8
1,72,100,0
1,79,100,0
1,72,100,192
1,79,100,0
1,72,100,0
1,72,100,0
1,74,100,4608
1,72,100,0
1,74,100,0
1,74,100,0
1,74,100,0
1,72,100,0
1,74,100,0
1,78,100,0
1,73,100,192
1,69,100,0
1,75,100,0
1,79,100,0
1,83,100,0
1,79,100,0
1,79,100,0
1,74,100,0
1,78,100,0
1,74,100,0
1,78,100,0
1,72,127,0
1,79,127,12
1,74,127,0
1,79,127,12
1,74,127,0
1,72,127,12
1,79,127,12
1,74,127,0
1,79,127,12
1,74,127,0
1,72,127,12
1,74,127,12
1,79,127,12
1,79,127,12
1,74,127,0
1,67,127,12
1,79,127,12
1,74,127,0
1,72,100,12
1,79,127,28
1,74,127,0
1,79,127,8
1,74,127,0
1,72,127,8
1,79,127,8
1,74,127,0
1,79,127,8
1,74,127,0
1,72,127,8
1,74,127,8
1,79,100,12
1,74,100,0
1,79,100,0
1,74,100,0
1,79,100,0
1,74,100,0
1,79,100,0
1,74,100,0
1,79,100,0
1,74,100,0
1,79,100,0
1,72,100,0
1,79,127,28
1,74,127,0
1,79,127,8
1,74,127,0
1,72,100,20
1,79,127,28
1,74,127,0
1,79,127,8
1,74,127,0
1,72,100,20
1,74,100,0
1,79,100,0
1,72,100,8
1,74,100,8
1,79,100,0
1,79,100,8
1,74,100,0
1,76,100,8
1,72,100,8
1,79,127,28
1,74,127,0
1,79,127,8
1,74,127,0
1,72,100,20
1,74,100,0
1,79,100,0
1,79,100,8
1,74,100,0
1,74,100,8
1,79,100,0
1,72,100,8
1,74,100,8
1,79,100,0
1,79,100,8
1,74,100,0
1,74,100,8
1,79,100,0
1,72,100,8
1,79,100,0
1,74,100,8
1,79,100,0
1,79,100,8
1,74,100,0
1,74,100,8
1,79,100,0
1,72,100,8
1,79,127,28
1,74,127,0
1,79,127,8
1,74,127,0
1,72,100,20
1,79,127,28
1,74,127,0
1,79,127,8
1,74,127,0
1,72,100,20
1,79,127,28
1,74,127,0
1,74,100,20
1,79,100,0
1,74,100,8
1,79,100,0
1,79,100,8
1,74,100,0
1,74,100,8
1,79,100,0
1,72,100,8
1,79,127,28
1,74,127,0
1,79,127,8
1,74,127,0
1,72,100,20
1,79,127,28
1,74,127,0
1,79,127,8
1,74,127,0
1,72,100,20
1,72,100,0
1,74,100,0
1,79,100,0
1,74,100,0
1,79,100,0
1,74,100,0
1,79,100,0
1,74,100,0
1,79,100,0
1,74,100,0
1,67,100,0
1,74,100,8
1,67,100,0
1,79,100,8
1,67,100,8
1,74,100,0
1,79,100,8
1,67,100,104
1,74,100,0
1,79,100,8
1,74,100,0
1,67,100,0
1,79,100,8
1,74,100,0
1,67,100,0
1,79,100,8
1,74,100,0
1,67,100,0
1,79,100,8
1,74,100,0
1,67,100,0
1,73,100,8
1,67,100,0
1,73,100,8
1,67,100,0
1,79,100,8
1,67,100,8
1,74,100,0
1,76,100,8
1,74,100,8
1,79,100,8
1,73,100,0
1,67,100,0
1,67,100,8
1,73,100,0
1,79,100,0
1,79,100,8
1,73,100,0
1,67,100,0
1,67,100,8
1,73,100,0
1,79,100,0
1,72,100,8
1,67,100,0
1,67,100,8
1,72,100,0
1,79,100,8
1,67,100,8
1,72,100,0
1,79,100,8
1,72,100,8
1,67,100,0
1,79,100,8
1,72,100,0
1,67,100,0
1,67,100,8
1,72,100,0
1,79,100,0
1,79,100,8
1,72,100,0
1,67,100,0
1,67,100,8
1,72,100,0
1,79,100,0
1,62,100,8
1,67,100,8
1,72,100,0
1,79,100,8
1,67,100,8
1,72,100,0
1,79,100,8
1,72,100,8
1,67,100,0
1,79,100,8
1,72,100,0
1,67,100,0
1,67,100,8
1,72,100,0
1,79,100,0
1,79,100,8
1,72,100,0
1,67,100,0
1,67,100,8
1,72,100,0
1,79,100,0
1,83,127,200
1,79,127,0
1,81,127,0
1,77,127,0
1,78,127,0
1,84,127,0
1,82,127,0
1,84,127,0
1,79,127,0
1,81,127,0
1,79,127,0
1,81,127,0
1,79,127,0
1,79,127,0
1,74,127,176
1,70,127,0
1,72,127,0
1,68,127,0
1,63,127,0
1,75,127,0
1,72,127,0
1,75,127,0
1,77,127,0
1,75,127,0
1,77,127,0
1,75,127,0
1,75,127,0
1,77,127,0
1,75,127,0
1,75,127,0
1,77,127,0
1,76,127,192
1,72,127,0
1,74,127,0
1,70,127,0
1,65,127,0
1,72,127,0
1,77,127,0
1,69,127,0
1,72,127,0
1,74,127,0
1,72,127,0
1,79,127,0
1,77,127,0
1,79,127,0
1,79,127,0
1,77,127,0
1,74,127,0
1,76,127,0
1,78,127,0
1,86,127,96
1,78,127,0
1,79,127,0
1,88,127,96
1,79,127,0
1,81,127,0
1,90,127,96
1,78,127,0
1,81,127,0
1,81,127,0
1,78,127,0
1,81,127,0
1,81,127,0
1,81,127,0
1,81,127,0
1,81,127,0
1,74,127,11808
1,69,127,0
1,62,127,0
1,62,127,0
1,69,127,0
1,74,127,0
1,74,127,0
1,69,127,0
1,62,127,0
1,62,127,0
1,69,127,0
1,74,127,0
1,72,127,0
1,79,127,12
1,74,127,0
1,79,127,12
1,74,127,0
1,72,127,12
1,79,127,12
1,74,127,0
1,79,127,12
1,74,127,0
1,72,127,12
1,74,127,12
1,79,127,12
1,79,127,12
1,74,127,0
1,67,127,12
1,79,127,12
1,74,127,0
1,72,100,12
1,79,127,28
1,74,127,0
1,79,127,8
1,74,127,0
1,72,127,8
1,79,127,8
1,74,127,0
1,79,127,8
1,74,127,0
1,72,127,8
1,74,127,8
1,79,100,12
1,74,100,0
1,79,100,0
1,74,100,0
1,79,100,0
1,74,100,0
1,79,100,0
1,74,100,0
1,79,100,0
1,74,100,0
1,79,100,0
1,72,100,0
1,79,127,28
1,74,127,0
1,79,127,8
1,74,127,0
1,72,100,20
1,79,127,28
1,74,127,0
1,79,127,8
1,74,127,0
1,72,100,20
1,74,100,0
1,79,100,0
1,72,100,8
1,74,100,8
1,79,100,0
1,79,100,8
1,74,100,0
1,76,100,8
1,72,100,8
1,79,127,28
1,74,127,0
1,79,127,8
1,74,127,0
1,72,100,20
1,74,100,0
1,79,100,0
1,79,100,8
1,74,100,0
1,74,100,8
1,79,100,0
1,72,100,8
1,74,100,8
1,79,100,0
1,79,100,8
1,74,100,0
1,74,100,8
1,79,100,0
1,72,100,8
1,79,100,0
1,74,100,8
1,79,100,0
1,79,100,8
1,74,100,0
1,74,100,8
1,79,100,0
1,72,100,8
1,79,127,28
1,74,127,0
1,79,127,8
1,74,127,0
1,72,100,20
1,79,127,28
1,74,127,0
1,79,127,8
1,74,127,0
1,72,100,20
1,79,127,28
1,74,127,0
1,74,100,20
1,79,100,0
1,74,100,8
1,79,100,0
1,79,100,8
1,74,100,0
1,74,100,8
1,79,100,0
1,72,100,8
1,79,127,28
1,74,127,0
1,79,127,8
1,74,127,0
1,72,100,20
1,79,127,28
1,74,127,0
1,79,127,8
1,74,127,0
1,72,100,20
1,72,100,0
1,74,100,0
1,79,100,0
1,74,100,0
1,79,100,0
1,74,100,0
1,79,100,0
1,74,100,0
1,79,100,0
1,74,100,0
1,67,100,0
1,74,100,8
1,67,100,0
1,79,100,8
1,67,100,8
1,74,100,0
1,79,100,8
1,67,100,104
1,74,100,0
1,79,100,8
1,74,100,0
1,67,100,0
1,79,100,8
1,74,100,0
1,67,100,0
1,79,100,8
1,74,100,0
1,67,100,0
1,79,100,8
1,74,100,0
1,67,100,0
1,73,100,8
1,67,100,0
1,73,100,8
1,67,100,0
1,79,100,8
1,67,100,8
1,74,100,0
1,76,100,8
1,74,100,8
1,79,100,8
1,73,100,0
1,67,100,0
1,67,100,8
1,73,100,0
1,79,100,0
1,79,100,8
1,73,100,0
1,67,100,0
1,67,100,8
1,73,100,0
1,79,100,0
1,72,100,8
1,67,100,0
1,67,100,8
1,72,100,0
1,79,100,8
1,67,100,8
1,72,100,0
1,79,100,8
1,72,100,8
1,67,100,0
1,79,100,8
1,72,100,0
1,67,100,0
1,67,100,8
1,72,100,0
1,79,100,0
1,79,100,8
1,72,100,0
1,67,100,0
1,67,100,8
1,72,100,0
1,79,100,0
1,62,100,8
1,67,100,8
1,72,100,0
1,79,100,8
1,67,100,8
1,72,100,0
1,79,100,8
1,72,100,8
1,67,100,0
1,79,100,8
1,72,100,0
1,67,100,0
1,67,100,8
1,72,100,0
1,79,100,0
1,79,100,8
1,72,100,0
1,67,100,0
1,67,100,8
1,72,100,0
1,79,100,0
1,55,127,8
1,62,127,0
1,67,127,0
1,71,127,0
1,74,127,0
1,79,127,0
2,69,100,16128
2,69,100,192
2,69,100,8
2,67,100,8
2,69,100,8
2,71,100,8
2,67,100,8
2,67,100,776
2,69,100,0
2,69,100,0
2,71,100,0
2,71,100,0
2,69,100,0
2,67,100,0
2,69,100,0
2,71,100,0
2,67,100,0
2,69,100,1152
2,69,100,0
2,69,100,0
2,71,100,0
2,71,100,0
2,71,100,0
2,69,100,0
2,67,100,0
2,69,100,0
2,71,100,0
2,67,100,0
2,62,100,960
2,69,100,0
2,69,100,0
2,69,100,0
2,71,100,0
2,71,100,0
2,71,100,0
2,69,100,0
2,67,100,0
