track,note,velocity,time
0,46,109,288
0,36,109,0
0,42,109,192
0,46,0,192
0,36,0,0
0,42,0,0
0,42,109,0
0,38,109,0
0,42,0,192
0,42,109,0
0,36,109,96
0,38,0,96
0,42,0,0
0,36,0,0
0,42,109,0
0,36,109,0
0,36,0,96
0,42,0,96
0,42,109,0
0,36,109,0
0,42,0,192
0,36,0,0
0,42,109,0
0,38,109,0
0,42,0,192
0,38,0,0
0,42,109,0
0,42,0,192
0,46,109,0
0,36,109,0
0,42,109,192
0,46,0,192
0,36,0,0
0,42,0,0
0,42,109,0
0,38,109,0
0,42,0,192
0,42,109,0
0,36,109,96
0,38,0,96
0,42,0,0
0,36,0,0
0,42,109,0
0,36,109,0
0,36,0,96
0,42,0,96
0,42,109,0
0,36,109,0
0,42,0,192
0,36,0,0
0,42,109,0
0,38,109,0
0,42,0,192
0,38,0,0
0,42,109,0
0,57,100,192
0,42,0,0
0,46,109,0
0,36,109,0
0,58,100,32
0,59,100,32
0,42,109,0
0,64,100,32
0,42,109,0
0,38,109,0
0,57,100,96
0,58,100,32
0,42,0,0
0,42,109,0
0,59,100,32
0,36,109,0
0,64,100,32
0,38,0,0
0,42,0,0
0,36,0,0
0,42,109,0
0,36,109,0
0,36,0,96
0,52,100,64
0,42,0,0
0,42,109,0
0,36,109,0
0,42,109,0
0,38,109,0
0,52,100,192
0,42,0,0
0,38,0,0
0,42,109,0
0,57,100,64
0,42,0,0
0,46,109,0
0,36,109,0
0,58,100,32
0,59,100,32
0,42,109,0
0,64,100,32
0,42,109,0
0,38,109,0
0,57,100,96
0,58,100,32
0,42,0,0
0,42,109,0
0,59,100,32
0,36,109,0
0,64,100,32
0,38,0,0
0,42,0,0
0,36,0,0
0,42,109,0
0,36,109,0
0,36,0,96
0,55,100,64
0,42,0,0
0,42,109,0
0,36,109,0
0,52,100,32
0,64,100,32
0,42,0,0
0,36,0,0
0,42,109,0
0,38,109,0
0,42,0,192
0,38,0,0
0,42,109,0
0,57,100,128
0,42,0,0
0,46,109,0
0,36,109,0
0,58,100,32
0,59,100,32
0,42,109,0
0,64,100,32
0,42,109,0
0,38,109,0
0,57,100,96
0,58,100,32
0,42,0,0
0,42,109,0
0,59,100,32
0,36,109,0
0,64,100,32
0,38,0,0
0,42,0,0
0,36,0,0
0,42,109,0
0,36,109,0
0,36,0,96
0,52,100,64
0,42,0,0
0,42,109,0
0,36,109,0
0,42,109,0
0,38,109,0
0,42,0,192
0,38,0,0
0,42,109,0
0,57,100,192
0,42,0,0
0,46,109,0
0,36,109,0
0,58,100,32
0,59,100,32
0,42,109,0
0,64,100,32
0,42,109,0
0,38,109,0
0,57,100,96
0,58,100,32
0,42,0,0
0,42,109,0
0,59,100,32
0,36,109,0
0,64,100,32
0,38,0,0
0,42,0,0
0,36,0,0
0,42,109,0
0,36,109,0
0,36,0,96
0,57,100,64
0,64,100,0
0,69,100,0
0,57,100,0
0,64,100,0
0,69,100,0
0,45,127,0
0,42,0,0
0,46,109,0
0,38,109,0
0,33,127,0
0,46,0,192
0,38,0,0
0,38,109,0
0,42,109,0
0,76,109,192
0,60,100,0
0,48,127,0
0,38,0,0
0,42,0,0
0,57,109,0
0,42,109,0
0,36,109,0
0,36,127,0
0,60,100,32
0,76,109,32
0,60,100,0
0,57,0,0
0,42,0,0
0,36,0,0
0,42,109,0
0,67,100,32
0,48,127,0
0,36,127,0
0,76,109,32
0,42,0,0
0,42,109,0
0,38,109,0
0,76,109,32
0,67,100,0
0,46,127,0
0,34,127,0
0,72,109,32
0,69,100,0
0,48,127,0
0,42,0,0
0,38,0,0
0,42,109,0
0,36,127,0
0,72,109,32
0,67,100,0
0,72,109,32
0,60,100,0
0,42,109,0
0,72,109,32
0,72,100,0
0,40,127,0
0,28,127,0
0,72,109,32
0,67,100,0
0,42,127,0
0,42,0,0
0,42,109,0
0,36,109,0
0,30,127,0
0,70,109,32
0,67,100,0
0,76,109,32
0,70,100,0
0,43,127,0
0,42,0,0
0,36,0,0
0,42,109,0
0,38,109,0
0,31,127,0
0,72,109,32
0,67,100,0
0,43,127,0
0,36,109,0
0,31,127,0
0,69,109,32
0,69,100,0
0,45,127,0
0,42,0,0
0,38,0,0
0,36,0,0
0,42,109,0
0,33,127,0
0,67,109,32
0,67,100,0
0,43,127,0
0,31,127,0
0,72,109,32
0,60,100,0
0,48,127,0
0,42,0,0
0,42,109,0
0,36,109,0
0,36,127,0
0,60,100,32
0,72,109,32
0,60,100,0
0,42,0,0
0,36,0,0
0,42,109,0
0,72,109,32
0,67,100,0
0,48,127,0
0,36,127,0
0,70,109,32
0,42,0,0
0,42,109,0
0,38,109,0
0,72,109,32
0,67,100,0
0,46,127,0
0,34,127,0
0,72,109,32
0,69,100,0
0,48,127,0
0,42,0,0
0,38,0,0
0,42,109,0
0,36,127,0
0,67,100,32
0,40,127,0
0,28,127,0
0,72,109,32
0,60,100,0
0,42,127,0
0,42,0,0
0,42,109,0
0,30,127,0
0,72,100,32
0,67,100,32
0,43,127,0
0,42,0,0
0,42,109,0
0,36,109,0
0,31,127,0
0,67,100,32
0,70,100,32
0,46,127,0
0,42,0,0
0,36,0,0
0,42,109,0
0,38,109,0
0,34,127,0
0,67,100,32
0,43,127,0
0,36,109,0
0,31,127,0
0,75,109,32
0,69,100,0
0,46,127,0
0,42,0,0
0,38,0,0
0,36,0,0
0,42,109,0
0,34,127,0
0,77,109,32
0,67,100,0
0,77,109,32
0,60,100,0
0,48,127,0
0,42,0,0
0,42,109,0
0,36,109,0
0,36,127,0
0,60,100,32
0,77,109,32
0,60,100,0
0,42,0,0
0,36,0,0
0,42,109,0
0,67,100,32
0,48,127,0
0,36,127,0
0,79,109,32
0,42,0,0
0,42,109,0
0,38,109,0
0,75,109,32
0,67,100,0
0,46,127,0
0,34,127,0
0,72,109,32
0,69,100,0
0,48,127,0
0,42,0,0
0,38,0,0
0,42,109,0
0,36,127,0
0,72,109,32
0,67,100,0
0,72,109,32
0,60,100,0
0,42,0,0
0,42,109,0
0,72,100,32
0,40,127,0
0,28,127,0
0,72,109,32
0,67,100,0
0,42,127,0
0,42,0,0
0,42,109,0
0,36,109,0
0,30,127,0
0,71,109,32
0,67,100,0
0,76,109,32
0,70,100,0
0,43,127,0
0,42,0,0
0,36,0,0
0,42,109,0
0,38,109,0
0,31,127,0
0,72,109,32
0,67,100,0
0,43,127,0
0,36,109,0
0,31,127,0
0,69,109,32
0,69,100,0
0,45,127,0
0,42,0,0
0,38,0,0
0,36,0,0
0,42,109,0
0,33,127,0
0,69,109,32
0,67,100,0
0,43,127,0
0,31,127,0
0,72,109,32
0,60,100,0
0,48,127,0
0,42,0,0
0,42,109,0
0,36,109,0
0,36,127,0
0,72,109,32
0,60,100,0
0,72,109,32
0,60,100,0
0,42,0,0
0,36,0,0
0,42,109,0
0,72,109,32
0,67,100,0
0,48,127,0
0,36,127,0
0,76,109,32
0,42,0,0
0,42,109,0
0,38,109,0
0,70,109,32
0,67,100,0
0,46,127,0
0,34,127,0
0,70,109,32
0,69,100,0
0,48,127,0
0,42,0,0
0,38,0,0
0,42,109,0
0,36,127,0
0,67,109,32
0,67,100,0
0,40,127,0
0,28,127,0
0,60,100,32
0,42,127,0
0,42,0,0
0,42,109,0
0,30,127,0
0,72,100,32
0,67,100,32
0,43,127,0
0,42,0,0
0,42,109,0
0,36,109,0
0,31,127,0
0,67,100,32
0,70,100,32
0,46,127,0
0,42,0,0
0,36,0,0
0,42,109,0
0,38,109,0
0,34,127,0
0,77,109,32
0,67,100,0
0,43,127,0
0,36,109,0
0,31,127,0
0,78,109,32
0,69,100,0
0,46,127,0
0,42,0,0
0,38,0,0
0,36,0,0
0,42,109,0
0,34,127,0
0,78,109,32
0,67,100,0
0,82,109,32
0,60,100,0
0,48,127,0
0,42,0,0
0,42,109,0
0,36,109,0
0,36,127,0
0,60,100,32
0,79,109,32
0,60,100,0
0,42,0,0
0,36,0,0
0,42,109,0
0,82,109,32
0,67,100,0
0,48,127,0
0,36,127,0
0,42,0,96
0,42,109,0
0,38,109,0
0,76,109,64
0,67,100,0
0,46,127,0
0,34,127,0
0,76,109,32
0,69,100,0
0,48,127,0
0,42,0,0
0,38,0,0
0,42,109,0
0,36,127,0
0,74,109,32
0,67,100,0
0,76,109,32
0,60,100,0
0,42,109,0
0,72,100,32
0,40,127,0
0,28,127,0
0,76,109,32
0,67,100,0
0,42,127,0
0,42,0,0
0,42,109,0
0,36,109,0
0,30,127,0
0,67,100,32
0,76,109,32
0,70,100,0
0,43,127,0
0,42,0,0
0,36,0,0
0,42,109,0
0,38,109,0
0,31,127,0
0,75,109,32
0,67,100,0
0,43,127,0
0,36,109,0
0,31,127,0
0,74,109,32
0,69,100,0
0,45,127,0
0,42,0,0
0,38,0,0
0,36,0,0
0,42,109,0
0,33,127,0
0,74,109,32
0,67,100,0
0,43,127,0
0,31,127,0
0,75,109,32
0,60,100,0
0,48,127,0
0,42,0,0
0,42,109,0
0,36,109,0
0,36,127,0
0,60,100,32
0,75,109,32
0,60,100,0
0,42,0,0
0,36,0,0
0,42,109,0
0,70,109,32
0,67,100,0
0,48,127,0
0,36,127,0
0,75,109,32
0,42,0,0
0,42,109,0
0,38,109,0
0,74,109,32
0,67,100,0
0,46,127,0
0,34,127,0
0,69,100,32
0,48,127,0
0,42,0,0
0,38,0,0
0,42,109,0
0,36,127,0
0,75,109,32
0,67,100,0
0,40,127,0
0,28,127,0
0,60,100,32
0,42,127,0
0,42,0,0
0,42,109,0
0,30,127,0
0,72,100,32
0,67,100,32
0,43,127,0
0,42,0,0
0,42,109,0
0,36,109,0
0,31,127,0
0,67,100,32
0,70,100,32
0,46,127,0
0,42,0,0
0,36,0,0
0,42,109,0
0,38,109,0
0,34,127,0
0,67,100,32
0,43,127,0
0,36,109,0
0,31,127,0
0,75,109,32
0,69,100,0
0,46,127,0
0,42,0,0
0,38,0,0
0,36,0,0
0,42,109,0
0,34,127,0
0,74,109,32
0,67,100,0
0,75,109,32
0,60,100,0
0,48,127,0
0,42,0,0
0,42,109,0
0,36,109,0
0,36,127,0
0,60,100,32
0,75,109,32
0,60,100,0
0,42,0,0
0,36,0,0
0,42,109,0
0,72,109,32
0,67,100,0
0,48,127,0
0,36,127,0
0,75,109,32
0,42,0,0
0,42,109,0
0,38,109,0
0,74,109,32
0,67,100,0
0,46,127,0
0,34,127,0
0,72,109,32
0,69,100,0
0,48,127,0
0,42,0,0
0,38,0,0
0,42,109,0
0,36,127,0
0,69,109,32
0,67,100,0
0,72,109,32
0,60,100,0
0,42,0,0
0,42,109,0
0,72,109,32
0,72,100,0
0,40,127,0
0,28,127,0
0,72,109,32
0,67,100,0
0,42,127,0
0,42,0,0
0,42,109,0
0,36,109,0
0,30,127,0
0,72,109,32
0,67,100,0
0,75,109,32
0,70,100,0
0,43,127,0
0,42,0,0
0,36,0,0
0,42,109,0
0,38,109,0
0,31,127,0
0,70,109,32
0,67,100,0
0,43,127,0
0,36,109,0
0,31,127,0
0,69,109,32
0,69,100,0
0,45,127,0
0,42,0,0
0,38,0,0
0,36,0,0
0,42,109,0
0,33,127,0
0,67,109,32
0,67,100,0
0,43,127,0
0,31,127,0
0,72,109,32
0,60,100,0
0,48,127,0
0,42,0,0
0,42,109,0
0,36,109,0
0,36,127,0
0,72,109,32
0,60,100,0
0,72,109,32
0,60,100,0
0,42,0,0
0,36,0,0
0,42,109,0
0,70,109,32
0,67,100,0
0,48,127,0
0,36,127,0
0,72,109,32
0,42,0,0
0,42,109,0
0,38,109,0
0,72,109,32
0,67,100,0
0,46,127,0
0,34,127,0
0,69,100,32
0,48,127,0
0,42,0,0
0,38,0,0
0,42,109,0
0,36,127,0
0,75,109,32
0,67,100,0
0,72,109,32
0,60,100,0
0,42,109,0
0,71,109,32
0,72,100,0
0,40,127,0
0,28,127,0
0,72,109,32
0,67,100,0
0,43,127,0
0,42,0,0
0,42,109,0
0,36,109,0
0,31,127,0
0,43,127,32
0,31,127,0
0,69,109,32
0,69,100,0
0,64,100,0
0,57,100,0
0,45,127,0
0,42,0,0
0,36,0,0
0,52,109,0
0,42,109,0
0,38,109,0
0,33,127,0
0,57,100,128
0,45,127,0
0,52,0,0
0,42,0,0
0,57,109,0
0,46,109,0
0,36,109,0
0,33,127,0
0,58,100,32
0,46,127,0
0,34,127,0
0,59,100,32
0,47,127,0
0,57,0,0
0,42,109,0
0,35,127,0
0,64,100,32
0,52,127,0
0,40,127,0
0,42,109,0
0,38,109,0
0,57,100,96
0,45,127,0
0,33,127,0
0,58,100,32
0,46,127,0
0,42,0,0
0,42,109,0
0,34,127,0
0,59,100,32
0,47,127,0
0,36,109,0
0,35,127,0
0,64,100,32
0,52,127,0
0,38,0,0
0,42,0,0
0,36,0,0
0,42,109,0
0,36,109,0
0,40,127,0
0,36,0,96
0,52,100,64
0,40,127,0
0,42,0,0
0,42,109,0
0,36,109,0
0,28,127,0
0,52,109,0
0,42,109,0
0,38,109,0
0,52,0,192
0,42,0,0
0,38,0,0
0,42,109,0
0,57,100,192
0,45,127,0
0,42,0,0
0,46,109,0
0,36,109,0
0,33,127,0
0,58,100,32
0,46,127,0
0,34,127,0
0,59,100,32
0,47,127,0
0,42,109,0
0,35,127,0
0,64,100,32
0,52,127,0
0,40,127,0
0,42,109,0
0,38,109,0
0,57,100,96
0,45,127,0
0,33,127,0
0,58,100,32
0,46,127,0
0,42,0,0
0,42,109,0
0,34,127,0
0,59,100,32
0,47,127,0
0,36,109,0
0,35,127,0
0,64,100,32
0,52,127,0
0,38,0,0
0,42,0,0
0,36,0,0
0,42,109,0
0,36,109,0
0,40,127,0
0,36,0,96
0,52,100,64
0,40,127,0
0,42,0,0
0,42,109,0
0,36,109,0
0,28,127,0
0,55,100,64
0,42,0,0
0,36,0,0
0,42,109,0
0,38,109,0
0,52,100,32
0,64,100,32
0,42,0,0
0,38,0,0
0,42,109,0
0,57,100,64
0,45,127,0
0,42,0,0
0,46,109,0
0,36,109,0
0,33,127,0
0,58,100,32
0,46,127,0
0,34,127,0
0,59,100,32
0,47,127,0
0,42,109,0
0,35,127,0
0,64,100,32
0,52,127,0
0,40,127,0
0,42,109,0
0,38,109,0
0,57,100,96
0,45,127,0
0,33,127,0
0,58,100,32
0,46,127,0
0,42,0,0
0,42,109,0
0,34,127,0
0,59,100,32
0,47,127,0
0,36,109,0
0,35,127,0
0,64,100,32
0,52,127,0
0,38,0,0
0,42,0,0
0,36,0,0
0,42,109,0
0,36,109,0
0,40,127,0
0,36,0,96
0,52,100,64
0,40,127,0
0,42,0,0
0,42,109,0
0,36,109,0
0,28,127,0
0,52,109,0
0,42,109,0
0,38,109,0
0,52,0,192
0,42,0,0
0,38,0,0
0,42,109,0
0,57,100,192
0,57,100,0
0,45,127,0
0,42,0,0
0,46,109,0
0,36,109,0
0,33,127,0
0,58,100,32
0,58,100,0
0,46,127,0
0,34,127,0
0,59,100,32
0,59,100,0
0,47,127,0
0,42,109,0
0,35,127,0
0,64,100,32
0,64,100,0
0,52,127,0
0,40,127,0
0,42,109,0
0,38,109,0
0,57,100,96
0,57,100,0
0,45,127,0
0,33,127,0
0,58,100,32
0,58,100,0
0,46,127,0
0,42,0,0
0,42,109,0
0,34,127,0
0,59,100,32
0,59,100,0
0,47,127,0
0,36,109,0
0,35,127,0
0,64,100,32
0,64,100,0
0,52,127,0
0,38,0,0
0,42,0,0
0,36,0,0
0,42,109,0
0,36,109,0
0,40,127,0
0,36,0,96
0,57,100,64
0,64,100,0
0,69,100,0
0,57,100,0
0,64,100,0
0,69,100,0
0,45,127,0
0,42,0,0
0,57,109,0
0,46,109,0
0,38,109,0
0,33,127,0
0,57,0,192
0,46,0,0
0,38,0,0
0,38,109,0
0,42,109,0
0,75,109,192
0,84,100,0
0,60,100,0
0,48,127,0
0,38,0,0
0,42,0,0
0,57,109,0
0,42,109,0
0,36,109,0
