track,note,velocity,time
1,62,114,185
1,57,114,0
1,50,114,0
1,62,114,2
1,57,114,0
1,50,114,0
1,62,114,2
1,57,114,0
1,50,114,0
1,62,114,2
1,57,114,0
1,50,114,0
1,62,114,2
1,57,114,0
1,50,114,0
1,62,114,2
1,57,114,0
1,50,114,0
1,62,114,2
1,57,114,0
1,50,114,0
1,62,114,2
1,57,114,0
1,50,114,0
1,62,114,2
1,57,114,0
1,50,114,0
1,62,114,2
1,57,114,0
1,50,114,0
1,62,114,2
1,57,114,0
1,50,114,0
1,62,114,2
1,57,114,0
1,50,114,0
1,62,114,2
1,57,114,0
1,50,114,0
1,62,114,2
1,57,114,0
1,50,114,0
1,62,114,2
1,57,114,0
1,50,114,0
1,62,114,2
1,57,114,0
1,50,114,0
1,62,114,2
1,57,114,0
1,50,114,0
1,50,112,2
1,62,112,0
1,57,112,0
1,57,114,2
1,50,114,0
1,62,114,0
1,62,114,2
1,57,114,0
1,50,114,0
1,62,114,2
1,57,114,0
1,50,114,0
1,62,114,2
1,57,114,0
1,50,114,0
1,62,114,2
1,57,114,0
1,50,114,0
1,62,114,2
1,57,114,0
1,50,114,0
1,62,114,2
1,57,114,0
1,50,114,0
1,62,114,2
1,57,114,0
1,50,114,0
1,62,114,2
1,57,114,0
1,50,114,0
1,62,114,2
1,57,114,0
1,50,114,0
1,50,114,2
1,57,114,0
1,62,114,0
1,50,114,2
1,57,114,0
1,62,114,0
1,50,114,2
1,57,114,0
1,62,114,0
1,50,114,2
1,57,114,0
1,62,114,0
1,50,114,2
1,57,114,0
1,62,114,0
1,50,114,2
1,57,114,0
1,62,114,0
1,50,114,2
1,57,114,0
1,62,114,0
1,50,114,2
1,57,114,0
1,62,114,0
1,50,114,2
1,57,114,0
1,62,114,0
1,50,114,2
1,57,114,0
1,62,114,0
1,50,114,2
1,57,114,0
1,62,114,0
1,50,114,2
1,57,114,0
1,62,114,0
1,50,114,2
1,57,114,0
1,62,114,0
1,50,114,2
1,57,114,0
1,62,114,0
1,50,114,2
1,57,114,0
1,62,114,0
1,50,114,2
1,57,114,0
1,62,114,0
1,50,114,2
1,57,114,0
1,62,114,0
1,57,112,2
1,62,112,0
1,50,112,0
1,62,114,2
1,50,114,0
1,57,114,0
1,50,114,2
1,57,114,0
1,62,114,0
1,50,114,2
1,57,114,0
1,62,114,0
1,50,114,2
1,57,114,0
1,62,114,0
1,50,114,2
1,57,114,0
1,62,114,0
1,50,114,2
1,57,114,0
1,62,114,0
1,50,114,2
1,57,114,0
1,62,114,0
1,50,114,2
1,57,114,0
1,62,114,0
1,50,114,2
1,57,114,0
1,62,114,0
1,50,114,2
1,57,114,0
1,62,114,0
1,57,114,2
1,50,114,0
1,62,114,0
1,57,114,2
1,50,114,0
1,62,114,0
1,57,114,2
1,50,114,0
1,62,114,0
1,57,114,2
1,50,114,0
1,62,114,0
1,57,114,2
1,50,114,0
1,62,114,0
1,57,114,2
1,50,114,0
1,62,114,0
1,57,114,2
1,50,114,0
1,62,114,0
1,57,114,2
1,50,114,0
1,62,114,0
1,57,114,2
1,50,114,0
1,62,114,0
1,57,114,2
1,50,114,0
1,62,114,0
1,57,114,2
1,50,114,0
1,62,114,0
1,57,114,2
1,50,114,0
1,62,114,0
1,57,114,2
1,50,114,0
1,62,114,0
1,57,114,2
1,50,114,0
1,62,114,0
1,57,114,2
1,50,114,0
1,62,114,0
1,57,114,2
1,50,114,0
1,62,114,0
1,57,114,2
1,50,114,0
1,62,114,0
1,57,114,2
1,50,114,0
1,62,114,0
1,57,114,2
1,50,114,0
1,62,114,0
1,57,114,2
1,50,114,0
1,62,114,0
1,57,114,2
1,50,114,0
1,62,114,0
1,57,114,2
1,50,114,0
1,62,114,0
1,59,114,2
1,47,114,0
1,54,114,0
1,59,114,2
1,47,114,0
1,54,114,0
1,59,114,2
1,47,114,0
1,54,114,0
1,59,114,2
1,47,114,0
1,54,114,0
1,59,114,2
1,47,114,0
1,54,114,0
1,59,114,2
1,47,114,0
1,54,114,0
1,59,114,2
1,47,114,0
1,54,114,0
1,59,114,2
1,47,114,0
1,54,114,0
1,59,114,2
1,47,114,0
1,54,114,0
1,59,114,2
1,47,114,0
1,54,114,0
1,59,114,2
1,47,114,0
1,54,114,0
1,59,114,2
1,47,114,0
1,54,114,0
1,59,114,2
1,47,114,0
1,54,114,0
1,59,114,2
1,47,114,0
1,54,114,0
1,59,114,2
1,47,114,0
1,54,114,0
1,59,114,2
1,47,114,0
1,54,114,0
1,59,114,2
1,47,114,0
1,54,114,0
1,59,114,2
1,47,114,0
1,54,114,0
1,59,114,2
1,47,114,0
1,54,114,0
1,57,114,242
1,45,114,0
1,52,114,0
1,57,114,2
1,45,114,0
1,52,114,0
1,57,114,2
1,45,114,0
1,52,114,0
1,57,114,2
1,45,114,0
1,52,114,0
1,62,114,2
1,50,114,0
1,57,114,0
1,62,114,2
1,50,114,0
1,57,114,0
1,62,114,2
1,50,114,0
1,57,114,0
1,62,114,2
1,50,114,0
1,57,114,0
1,62,114,2
1,50,114,0
1,57,114,0
1,62,114,2
1,50,114,0
1,57,114,0
1,62,114,2
1,50,114,0
1,57,114,0
1,62,114,2
1,50,114,0
1,57,114,0
1,62,114,2
1,50,114,0
1,57,114,0
1,62,114,2
1,50,114,0
1,57,114,0
1,62,114,2
1,50,114,0
1,57,114,0
1,62,114,2
1,50,114,0
1,57,114,0
1,62,114,2
1,50,114,0
1,57,114,0
1,62,114,2
1,50,114,0
1,57,114,0
1,62,114,2
1,50,114,0
1,57,114,0
1,62,114,2
1,50,114,0
1,57,114,0
1,62,114,2
1,50,114,0
1,57,114,0
1,62,114,2
1,50,114,0
1,57,114,0
1,62,114,2
1,50,114,0
1,57,114,0
1,62,114,2
1,50,114,0
1,57,114,0
1,62,114,2
1,50,114,0
1,57,114,0
1,62,114,2
1,50,114,0
1,57,114,0
1,54,114,2
1,47,114,0
1,59,114,0
1,54,114,2
1,47,114,0
1,59,114,0
1,54,114,2
1,47,114,0
1,59,114,0
1,54,114,2
1,47,114,0
1,59,114,0
1,54,114,2
1,47,114,0
1,59,114,0
1,54,114,2
1,47,114,0
1,59,114,0
1,54,114,2
1,47,114,0
1,59,114,0
1,54,114,2
1,47,114,0
1,59,114,0
1,54,114,2
1,47,114,0
1,59,114,0
1,54,114,2
1,47,114,0
1,59,114,0
1,54,114,2
1,47,114,0
1,59,114,0
1,54,114,2
1,47,114,0
1,59,114,0
1,54,114,2
1,47,114,0
1,59,114,0
1,54,114,2
1,47,114,0
1,59,114,0
1,54,114,2
1,47,114,0
1,59,114,0
1,54,114,2
1,47,114,0
1,59,114,0
1,54,114,2
1,47,114,0
1,59,114,0
1,54,114,2
1,47,114,0
1,59,114,0
1,54,114,2
1,47,114,0
1,59,114,0
1,59,114,2
1,54,114,0
1,47,114,0
1,50,114,722
1,57,114,0
1,62,114,0
1,50,114,2
1,57,114,0
1,62,114,0
1,50,114,2
1,57,114,0
1,62,114,0
1,50,114,2
1,57,114,0
1,62,114,0
1,50,114,2
1,57,114,0
1,62,114,0
1,50,114,2
1,57,114,0
1,62,114,0
1,50,114,2
1,57,114,0
1,62,114,0
1,50,114,2
1,57,114,0
1,62,114,0
1,50,114,2
1,57,114,0
1,62,114,0
1,50,114,2
1,57,114,0
1,62,114,0
1,50,114,2
1,57,114,0
1,62,114,0
1,50,114,2
1,57,114,0
1,62,114,0
1,50,114,2
1,57,114,0
1,62,114,0
1,50,114,2
1,57,114,0
1,62,114,0
1,50,114,2
1,57,114,0
1,62,114,0
1,50,114,2
1,57,114,0
1,62,114,0
1,50,114,2
1,57,114,0
1,62,114,0
1,57,112,2
1,62,112,0
1,50,112,0
1,62,114,2
1,50,114,0
1,57,114,0
1,50,114,2
1,57,114,0
1,62,114,0
1,50,114,2
1,57,114,0
1,62,114,0
1,50,114,2
1,57,114,0
1,62,114,0
1,50,114,2
1,57,114,0
1,62,114,0
1,50,114,2
1,57,114,0
1,62,114,0
1,50,114,2
1,57,114,0
1,62,114,0
1,50,114,2
1,57,114,0
1,62,114,0
1,50,114,2
1,57,114,0
1,62,114,0
1,50,114,2
1,57,114,0
1,62,114,0
1,62,114,2
1,57,114,0
1,50,114,0
1,62,114,2
1,57,114,0
1,50,114,0
1,62,114,2
1,57,114,0
1,50,114,0
1,62,114,2
1,57,114,0
1,50,114,0
1,62,114,2
1,57,114,0
1,50,114,0
1,62,114,2
1,57,114,0
1,50,114,0
1,62,114,2
1,57,114,0
1,50,114,0
1,62,114,2
1,57,114,0
1,50,114,0
1,62,114,2
1,57,114,0
1,50,114,0
1,62,114,2
1,57,114,0
1,50,114,0
1,62,114,2
1,57,114,0
1,50,114,0
1,62,114,2
1,57,114,0
1,50,114,0
1,62,114,2
1,57,114,0
1,50,114,0
1,62,114,2
1,57,114,0
1,50,114,0
1,62,114,2
1,57,114,0
1,50,114,0
1,62,114,2
1,57,114,0
1,50,114,0
1,62,114,2
1,57,114,0
1,50,114,0
1,50,112,2
1,62,112,0
1,57,112,0
1,57,114,2
1,50,114,0
1,62,114,0
1,62,114,2
1,57,114,0
1,50,114,0
1,62,114,2
1,57,114,0
1,50,114,0
1,62,114,2
1,57,114,0
1,50,114,0
1,62,114,2
1,57,114,0
1,50,114,0
1,62,114,2
1,57,114,0
1,50,114,0
1,62,114,2
1,57,114,0
1,50,114,0
1,62,114,2
1,57,114,0
1,50,114,0
1,62,114,2
1,57,114,0
1,50,114,0
1,62,114,2
1,57,114,0
1,50,114,0
1,58,114,2
1,53,114,0
1,46,114,0
1,58,114,2
1,53,114,0
1,46,114,0
1,58,114,2
1,53,114,0
1,46,114,0
1,58,114,2
1,53,114,0
1,46,114,0
1,58,114,2
1,53,114,0
1,46,114,0
1,58,114,2
1,53,114,0
1,46,114,0
1,58,114,2
1,53,114,0
1,46,114,0
1,58,114,2
1,53,114,0
1,46,114,0
1,58,114,2
1,53,114,0
1,46,114,0
1,58,114,2
1,53,114,0
1,46,114,0
1,58,114,2
1,53,114,0
1,46,114,0
1,58,114,2
1,53,114,0
1,46,114,0
1,58,114,2
1,53,114,0
1,46,114,0
1,58,114,2
1,53,114,0
1,46,114,0
1,55,114,2
1,50,114,0
1,43,114,0
1,55,114,2
1,50,114,0
1,43,114,0
1,55,114,2
1,50,114,0
1,43,114,0
1,43,112,2
1,55,112,0
1,50,112,0
1,50,114,2
1,43,114,0
1,55,114,0
1,55,114,2
1,50,114,0
1,43,114,0
1,55,114,2
1,50,114,0
1,43,114,0
1,55,114,2
1,50,114,0
1,43,114,0
1,55,114,2
1,50,114,0
1,43,114,0
1,55,114,2
1,50,114,0
1,43,114,0
1,55,114,2
1,50,114,0
1,43,114,0
1,55,114,2
1,50,114,0
1,43,114,0
1,55,114,2
1,50,114,0
1,43,114,0
1,55,114,2
1,50,114,0
1,43,114,0
1,50,114,2
1,57,114,0
1,62,114,0
1,50,114,2
1,57,114,0
1,62,114,0
1,50,114,2
1,57,114,0
1,62,114,0
1,50,114,2
1,57,114,0
1,62,114,0
1,50,114,2
1,57,114,0
1,62,114,0
1,50,114,2
1,57,114,0
1,62,114,0
1,50,114,2
1,57,114,0
1,62,114,0
1,50,114,2
1,57,114,0
1,62,114,0
1,50,114,2
1,57,114,0
1,62,114,0
1,50,114,2
1,57,114,0
1,62,114,0
1,50,114,2
1,57,114,0
1,62,114,0
1,50,114,2
1,57,114,0
1,62,114,0
1,50,114,2
1,57,114,0
1,62,114,0
1,50,114,2
1,57,114,0
1,62,114,0
1,50,114,2
1,57,114,0
1,62,114,0
1,50,114,2
1,57,114,0
1,62,114,0
1,50,114,2
1,57,114,0
1,62,114,0
1,57,112,2
1,62,112,0
1,50,112,0
1,62,114,2
1,50,114,0
1,57,114,0
1,50,114,2
1,57,114,0
1,62,114,0
1,50,114,2
1,57,114,0
1,62,114,0
1,50,114,2
1,57,114,0
1,62,114,0
1,50,114,2
1,57,114,0
1,62,114,0
1,50,114,2
1,57,114,0
1,62,114,0
1,50,114,2
1,57,114,0
1,62,114,0
1,50,114,2
1,57,114,0
1,62,114,0
1,50,114,2
1,57,114,0
1,62,114,0
1,50,114,2
1,57,114,0
1,62,114,0
1,62,114,2
1,57,114,0
1,50,114,0
1,38,114,2
1,45,114,0
1,62,114,0
1,57,114,0
1,50,114,0
1,54,114,962
1,57,114,0
1,66,114,0
1,62,114,0
1,47,114,0
1,62,114,1682
1,57,114,0
1,50,114,0
1,62,114,2
1,57,114,0
1,50,114,0
1,62,114,2
1,57,114,0
1,50,114,0
1,62,114,2
1,57,114,0
1,50,114,0
1,62,114,2
1,66,114,0
1,57,114,0
1,54,114,0
1,47,114,0
1,66,114,2
1,62,114,0
1,57,114,0
1,54,114,0
1,47,114,0
1,66,114,2
1,62,114,0
1,57,114,0
1,54,114,0
1,47,114,0
1,66,114,2
1,62,114,0
1,57,114,0
1,54,114,0
1,47,114,0
1,66,114,2
1,62,114,0
1,57,114,0
1,54,114,0
1,47,114,0
1,66,114,2
1,62,114,0
1,57,114,0
1,54,114,0
1,47,114,0
1,62,114,722
1,57,114,0
1,50,114,0
1,62,114,2
1,57,114,0
1,50,114,0
1,62,114,2
1,57,114,0
1,50,114,0
1,62,114,2
1,57,114,0
1,50,114,0
1,62,114,2
1,57,114,0
1,50,114,0
1,62,114,2
1,57,114,0
1,50,114,0
1,62,114,2
1,57,114,0
1,50,114,0
1,62,114,2
1,57,114,0
1,50,114,0
1,62,114,2
1,57,114,0
1,50,114,0
1,62,114,2
1,57,114,0
1,50,114,0
1,62,114,2
1,57,114,0
1,50,114,0
1,62,114,2
1,57,114,0
1,50,114,0
1,62,114,2
1,57,114,0
1,50,114,0
1,62,114,2
1,57,114,0
1,50,114,0
1,62,114,2
1,57,114,0
1,50,114,0
1,62,114,2
1,57,114,0
1,50,114,0
1,62,114,2
1,57,114,0
1,50,114,0
1,50,112,2
1,62,112,0
1,57,112,0
1,57,114,2
1,50,114,0
1,62,114,0
1,62,114,2
1,57,114,0
1,50,114,0
1,62,114,2
1,57,114,0
1,50,114,0
1,62,114,2
1,57,114,0
1,50,114,0
1,62,114,2
1,57,114,0
1,50,114,0
1,62,114,2
1,57,114,0
1,50,114,0
1,62,114,2
1,57,114,0
1,50,114,0
1,62,114,2
1,57,114,0
1,50,114,0
1,62,114,2
1,57,114,0
1,50,114,0
1,62,114,2
1,57,114,0
1,50,114,0
1,50,114,2
1,57,114,0
1,62,114,0
1,50,114,2
1,57,114,0
1,62,114,0
1,50,114,2
1,57,114,0
1,62,114,0
1,50,114,2
1,57,114,0
1,62,114,0
1,50,114,2
1,57,114,0
1,62,114,0
1,50,114,2
1,57,114,0
1,62,114,0
1,50,114,2
1,57,114,0
1,62,114,0
1,50,114,2
1,57,114,0
1,62,114,0
1,50,114,2
1,57,114,0
1,62,114,0
1,50,114,2
1,57,114,0
1,62,114,0
1,50,114,2
1,57,114,0
1,62,114,0
1,50,114,2
1,57,114,0
1,62,114,0
1,50,114,2
1,57,114,0
1,62,114,0
1,50,114,2
1,57,114,0
1,62,114,0
1,50,114,2
1,57,114,0
1,62,114,0
1,50,114,2
1,57,114,0
1,62,114,0
1,50,114,2
1,57,114,0
1,62,114,0
1,57,112,2
1,62,112,0
1,50,112,0
1,62,114,2
1,50,114,0
1,57,114,0
1,50,114,2
1,57,114,0
1,62,114,0
1,50,114,2
1,57,114,0
1,62,114,0
1,50,114,2
1,57,114,0
1,62,114,0
1,50,114,2
1,57,114,0
1,62,114,0
1,50,114,2
1,57,114,0
1,62,114,0
1,50,114,2
1,57,114,0
1,62,114,0
1,50,114,2
1,57,114,0
1,62,114,0
1,50,114,2
1,57,114,0
1,62,114,0
1,50,114,2
1,57,114,0
1,62,114,0
1,46,114,2
1,53,114,0
1,58,114,0
1,46,114,2
1,53,114,0
1,58,114,0
1,46,114,2
1,53,114,0
1,58,114,0
1,46,114,2
1,53,114,0
1,58,114,0
