track,note,velocity,time
1,71,110,3072
1,71,0,94
1,74,110,2
1,74,0,94
1,74,110,2
1,74,0,94
1,71,110,2
1,71,0,46
1,74,110,2
1,74,0,142
1,76,110,2
1,76,0,48
1,74,110,0
1,74,0,142
1,74,110,2
1,74,0,46
1,71,110,2
1,71,0,46
1,74,110,98
1,74,0,46
1,71,110,2
1,71,0,46
1,74,110,2
1,74,0,142
1,74,110,2
1,74,0,46
1,74,110,2
1,74,0,48
1,71,110,0
1,71,0,48
1,69,110,0
1,69,0,190
1,76,110,2
1,76,0,46
1,78,110,2
1,78,0,46
1,79,110,2
1,79,0,94
1,79,110,2
1,79,0,94
1,79,110,2
1,79,0,94
1,79,110,2
1,79,0,94
1,79,110,2
1,79,0,94
1,78,110,2
1,78,0,46
1,78,110,2
1,78,0,48
1,76,110,0
1,76,0,48
1,74,110,0
1,74,0,46
1,74,110,2
1,74,0,94
1,74,110,2
1,74,0,62
1,74,110,2
1,74,0,62
1,74,110,2
1,74,0,62
1,76,110,2
1,76,0,94
1,67,110,2
1,67,0,94
1,71,110,2
1,71,0,160
1,67,110,176
1,67,0,46
1,71,110,2
1,71,0,94
1,74,110,2
1,74,0,94
1,74,110,2
1,74,0,94
1,71,110,2
1,71,0,46
1,74,110,2
1,74,0,142
1,76,110,2
1,76,0,48
1,74,110,0
1,74,0,142
1,74,110,2
1,74,0,46
1,71,110,2
1,71,0,46
1,74,110,98
1,74,0,46
1,71,110,2
1,71,0,46
1,74,110,2
1,74,0,94
1,74,110,2
1,74,0,46
1,74,110,2
1,74,0,48
1,71,110,0
1,71,0,48
1,69,110,0
1,69,0,142
1,76,110,98
1,76,0,46
1,78,110,2
1,78,0,46
1,79,110,2
1,79,0,46
1,79,110,2
1,79,0,46
1,76,110,2
1,76,0,46
1,79,110,2
1,79,0,142
1,76,110,2
1,76,0,46
1,74,110,2
1,74,0,46
1,79,110,2
1,79,0,46
1,79,110,2
1,79,0,46
1,79,110,2
1,79,0,46
1,74,110,2
1,74,0,142
1,76,110,2
1,76,0,46
1,74,110,2
1,74,0,46
1,79,110,2
1,79,0,94
1,79,110,2
1,79,0,94
1,79,110,2
1,79,0,46
1,76,110,2
1,76,0,46
1,79,110,2
1,79,0,46
1,76,110,2
1,76,0,46
1,79,110,2
1,79,0,46
1,79,110,2
1,79,0,46
1,79,110,2
1,79,0,46
1,76,110,2
1,76,0,46
1,79,110,2
1,79,0,94
1,79,110,2
1,79,0,46
1,79,110,2
1,79,0,48
1,76,110,0
1,76,0,48
1,74,110,0
1,74,0,480
1,76,110,192
1,76,0,46
1,79,110,2
1,79,0,94
1,76,110,2
1,76,0,46
1,79,110,2
1,79,0,142
1,79,110,2
1,79,0,46
1,76,110,2
1,76,0,96
1,79,110,0
1,79,0,94
1,74,110,2
1,74,0,46
1,76,110,2
1,76,0,94
1,79,110,2
1,79,0,94
1,81,110,2
1,81,0,256
1,79,110,32
1,79,0,94
1,79,110,2
1,79,0,48
1,74,110,0
1,74,0,48
1,76,110,0
1,76,0,190
1,74,110,2
1,74,0,46
1,76,110,2
1,76,0,46
1,79,110,2
1,79,0,46
1,79,110,2
1,79,0,46
1,76,110,2
1,76,0,46
1,79,110,2
1,79,0,142
1,76,110,2
1,76,0,46
1,74,110,2
1,74,0,46
1,79,110,2
1,79,0,46
1,76,110,2
1,76,0,46
1,79,110,2
1,79,0,46
1,76,110,2
1,76,0,46
1,79,110,2
1,79,0,94
1,79,110,2
1,79,0,94
1,77,110,194
1,77,0,46
1,77,110,2
1,77,0,46
1,77,110,2
1,77,0,46
1,74,110,2
1,74,0,46
1,77,110,2
1,77,0,94
1,74,110,2
1,74,0,46
1,77,110,2
1,77,0,94
1,79,110,2
1,79,0,46
1,81,110,2
1,81,0,94
1,81,110,2
1,81,0,160
1,77,110,800
1,77,0,46
1,77,110,2
1,77,0,46
1,77,110,2
1,77,0,46
1,77,110,2
1,77,0,46
1,84,110,2
1,84,0,142
1,82,110,2
1,82,0,46
1,82,110,2
1,82,0,142
1,77,110,2
1,77,0,46
1,77,110,2
1,77,0,48
1,79,110,0
1,79,0,48
1,81,110,0
1,81,0,94
1,77,110,770
1,77,0,46
1,77,110,2
1,77,0,46
1,77,110,2
1,77,0,46
1,74,110,2
1,74,0,46
1,77,110,2
1,77,0,94
1,74,110,2
1,74,0,46
1,77,110,2
1,77,0,94
1,81,110,2
1,81,0,142
1,81,110,2
1,81,0,160
1,77,110,96
1,77,0,62
1,79,110,2
1,79,0,62
1,81,110,2
1,81,0,48
1,86,110,0
1,86,0,142
1,77,110,66
1,77,0,62
1,79,110,2
1,79,0,62
1,81,110,2
1,81,0,62
1,79,110,2
1,79,0,62
1,77,110,2
1,77,0,62
1,79,110,2
1,79,0,62
1,74,110,2
1,74,0,62
1,77,110,2
1,77,0,62
1,80,110,2
1,80,0,62
1,79,110,2
1,79,0,62
1,77,110,2
1,77,0,62
1,79,110,2
1,79,0,62
1,74,110,2
1,74,0,62
1,77,110,2
1,77,0,62
1,80,110,2
1,80,0,62
1,79,110,2
1,79,0,62
1,77,110,2
1,77,0,62
1,79,110,2
1,79,0,62
1,74,110,2
1,74,0,62
1,77,110,2
1,77,0,62
1,86,110,2
1,86,0,384
1,89,110,0
1,89,0,160
1,82,110,32
1,82,0,46
1,82,110,2
1,82,0,46
1,82,110,2
1,82,0,46
1,82,110,2
1,82,0,46
1,80,110,2
1,80,0,48
1,79,110,0
1,79,0,48
1,77,110,0
1,77,0,46
1,77,110,2
1,77,0,46
1,77,110,2
1,77,0,46
1,73,110,2
1,73,0,46
1,79,110,2
1,79,0,96
1,77,110,0
1,77,0,160
1,77,110,128
1,77,0,94
1,74,110,386
1,74,0,142
1,71,110,2
1,71,0,46
1,74,110,2
1,74,0,94
1,71,110,2
1,71,0,46
1,74,110,2
1,74,0,142
1,76,110,2
1,76,0,46
1,74,110,2
1,74,0,46
1,74,110,98
1,74,0,46
1,71,110,2
1,71,0,46
1,74,110,50
1,74,0,94
1,74,110,2
1,74,0,46
1,74,110,2
1,74,0,46
1,74,110,2
1,74,0,94
1,69,110,2
1,69,0,208
1,76,110,128
1,76,0,46
1,78,110,2
1,78,0,46
1,79,110,2
1,79,0,94
1,79,110,2
1,79,0,94
1,79,110,2
1,79,0,94
1,79,110,2
1,79,0,94
1,82,110,2
1,82,0,94
1,81,110,2
1,81,0,46
1,81,110,2
1,81,0,142
1,81,110,2
1,81,0,46
1,76,110,2
1,76,0,46
1,79,110,2
1,79,0,94
1,79,110,2
1,79,0,46
1,79,110,2
1,79,0,94
1,79,110,2
1,79,0,46
1,76,110,2
1,76,0,96
1,79,110,0
1,79,0,160
1,67,110,176
1,67,0,46
1,71,110,2
1,71,0,94
1,74,110,2
1,74,0,46
1,74,110,2
1,74,0,96
1,71,110,0
1,71,0,46
1,74,110,2
1,74,0,48
1,71,110,0
1,71,0,46
1,74,110,2
1,74,0,94
1,76,110,2
1,76,0,48
1,74,110,0
1,74,0,142
1,74,110,2
1,74,0,46
1,71,110,2
1,71,0,46
1,74,110,98
1,74,0,46
1,71,110,2
1,71,0,46
1,74,110,2
1,74,0,94
1,74,110,2
1,74,0,46
1,74,110,2
1,74,0,94
1,71,110,2
1,71,0,46
1,69,110,2
1,69,0,94
1,76,110,98
1,76,0,46
1,78,110,2
1,78,0,46
1,79,110,2
1,79,0,46
1,79,110,2
1,79,0,46
1,76,110,2
1,76,0,46
1,79,110,2
1,79,0,142
1,76,110,2
1,76,0,46
1,74,110,2
1,74,0,46
1,79,110,2
1,79,0,46
1,79,110,2
1,79,0,46
1,79,110,2
1,79,0,46
1,79,110,2
1,79,0,142
1,76,110,2
1,76,0,46
1,74,110,2
1,74,0,46
1,79,110,2
1,79,0,46
1,76,110,2
1,76,0,46
1,79,110,2
1,79,0,94
1,79,110,2
1,79,0,94
1,79,110,2
1,79,0,46
1,76,110,2
1,76,0,46
1,79,110,2
1,79,0,46
1,79,110,2
1,79,0,46
1,79,110,2
1,79,0,46
1,76,110,2
1,76,0,46
1,79,110,2
1,79,0,46
1,81,110,2
1,81,0,142
1,77,110,194
1,77,0,46
1,77,110,2
1,77,0,46
1,77,110,2
1,77,0,46
1,74,110,2
1,74,0,46
1,77,110,2
1,77,0,94
1,74,110,2
1,74,0,46
1,77,110,2
1,77,0,94
1,79,110,2
1,79,0,46
1,81,110,2
1,81,0,94
1,81,110,2
1,81,0,160
1,77,110,800
1,77,0,46
1,77,110,2
1,77,0,46
1,77,110,2
1,77,0,46
1,77,110,2
1,77,0,46
1,84,110,2
1,84,0,142
1,82,110,2
1,82,0,46
1,82,110,2
1,82,0,142
1,77,110,2
1,77,0,46
1,77,110,2
1,77,0,48
1,79,110,0
1,79,0,48
1,81,110,0
1,81,0,94
1,77,110,770
1,77,0,46
1,77,110,2
1,77,0,46
1,77,110,2
1,77,0,46
1,74,110,2
1,74,0,46
1,77,110,2
1,77,0,94
1,74,110,2
1,74,0,46
1,77,110,2
1,77,0,94
1,81,110,2
1,81,0,142
1,81,110,2
1,81,0,48
1,86,110,0
1,86,0,206
1,77,110,2
1,77,0,62
1,79,110,2
1,79,0,62
1,81,110,2
1,81,0,46
1,86,110,2
1,86,0,206
1,77,110,2
1,77,0,62
1,79,110,2
1,79,0,62
1,80,110,2
1,80,0,62
1,79,110,2
1,79,0,62
1,77,110,2
1,77,0,62
1,79,110,2
1,79,0,62
1,74,110,2
1,74,0,62
1,77,110,2
1,77,0,62
1,80,110,2
1,80,0,62
1,79,110,2
1,79,0,62
1,77,110,2
1,77,0,62
1,79,110,2
1,79,0,62
1,74,110,2
1,74,0,62
1,77,110,2
1,77,0,62
1,80,110,2
1,80,0,62
1,79,110,2
1,79,0,62
1,77,110,2
1,77,0,62
1,79,110,2
1,79,0,62
1,74,110,2
1,74,0,62
1,77,110,2
1,77,0,62
1,86,110,2
1,86,0,384
1,89,110,0
1,89,0,160
1,82,110,32
1,82,0,46
1,82,110,2
1,82,0,46
1,82,110,2
1,82,0,46
1,82,110,2
1,82,0,46
1,83,110,2
1,83,0,46
1,82,110,2
1,82,0,46
1,80,110,2
1,80,0,46
1,80,110,2
1,80,0,46
1,82,110,2
1,82,0,46
1,77,110,2
1,77,0,46
1,77,110,2
1,77,0,624
1,77,110,48
1,77,0,46
1,77,110,2
1,77,0,142
1,79,110,5570
1,79,0,46
1,79,110,2
1,79,0,46
1,79,110,2
1,79,0,46
1,76,110,2
1,76,0,46
1,79,110,2
1,79,0,46
1,79,110,2
1,79,0,46
1,79,110,2
1,79,0,46
1,76,110,2
1,76,0,46
1,79,110,2
1,79,0,94
1,81,110,2
1,81,0,94
1,79,110,2
1,79,0,46
1,76,110,2
1,76,0,46
1,74,110,2
1,74,0,94
1,81,110,146
1,81,0,96
1,83,110,0
1,83,0,48
1,81,110,0
1,81,0,94
1,79,110,2
1,79,0,160
1,74,110,32
1,74,0,48
1,77,110,0
1,77,0,142
1,77,110,2
1,77,0,46
1,77,110,2
1,77,0,46
1,77,110,2
1,77,0,46
1,77,110,2
1,77,0,46
1,80,110,2
1,80,0,46
1,74,110,2
1,74,0,46
1,77,110,2
1,77,0,46
1,74,110,2
1,74,0,46
1,77,110,2
1,77,0,94
1,79,110,2
1,79,0,94
1,77,110,2
1,77,0,48
1,74,110,0
1,74,0,48
1,72,110,0
1,72,0,144
1,74,110,0
1,74,0,48
1,69,110,0
1,69,0,48
1,67,110,0
1,67,0,48
1,65,110,0
1,65,0,336
1,80,110,240
1,80,0,46
1,80,110,2
1,80,0,46
1,80,110,2
1,80,0,46
1,77,110,2
1,77,0,46
1,80,110,2
1,80,0,46
1,80,110,2
1,80,0,46
1,80,110,2
1,80,0,46
1,77,110,2
1,77,0,46
1,80,110,2
1,80,0,94
1,82,110,2
1,82,0,94
1,80,110,2
1,80,0,160
1,80,110,32
1,80,0,46
1,80,110,2
1,80,0,46
1,80,110,2
1,80,0,46
1,77,110,2
1,77,0,46
1,80,110,2
1,80,0,46
1,80,110,2
1,80,0,46
1,80,110,2
1,80,0,46
1,77,110,2
1,77,0,46
1,80,110,2
1,80,0,48
1,82,110,0
1,82,0,46
1,84,110,2
1,84,0,94
1,84,110,2
1,84,0,160
1,84,110,32
1,84,0,46
1,84,110,2
1,84,0,46
1,84,110,2
1,84,0,46
1,84,110,2
1,84,0,46
1,84,110,2
1,84,0,46
1,84,110,2
1,84,0,46
1,84,110,2
1,84,0,46
1,84,110,2
1,84,0,46
1,84,110,2
1,84,0,46
1,82,110,2
1,82,0,46
1,80,110,2
1,80,0,94
1,84,110,2
1,84,0,768
1,82,110,0
1,82,0,160
1,77,110,32
1,77,0,46
1,77,110,2
1,77,0,46
1,77,110,2
1,77,0,46
1,74,110,2
1,74,0,46
1,77,110,2
1,77,0,94
1,74,110,2
1,74,0,46
1,77,110,2
1,77,0,94
1,79,110,2
1,79,0,142
1,81,110,2
1,81,0,160
1,77,110,800
1,77,0,46
1,77,110,2
1,77,0,46
1,77,110,2
1,77,0,46
1,77,110,2
1,77,0,46
1,84,110,2
1,84,0,48
1,82,110,0
1,82,0,94
1,82,110,2
1,82,0,46
1,82,110,2
1,82,0,142
1,77,110,2
1,77,0,46
1,77,110,2
1,77,0,48
1,79,110,0
1,79,0,48
1,81,110,0
1,81,0,94
1,74,110,722
1,74,0,46
1,77,110,2
1,77,0,46
1,77,110,2
1,77,0,46
1,77,110,2
1,77,0,46
1,74,110,2
1,74,0,46
1,77,110,2
1,77,0,94
1,74,110,2
1,74,0,46
1,77,110,2
1,77,0,94
1,81,110,2
1,81,0,142
1,81,110,2
1,81,0,160
1,77,110,96
1,77,0,62
1,79,110,2
1,79,0,62
1,81,110,2
1,81,0,48
1,86,110,0
1,86,0,142
1,77,110,66
1,77,0,62
1,79,110,2
1,79,0,62
1,81,110,2
1,81,0,62
1,79,110,2
1,79,0,62
1,77,110,2
1,77,0,62
1,79,110,2
1,79,0,62
1,74,110,2
1,74,0,62
1,77,110,2
1,77,0,62
1,80,110,2
1,80,0,62
1,79,110,2
1,79,0,62
1,77,110,2
1,77,0,62
1,79,110,2
1,79,0,62
1,74,110,2
1,74,0,62
1,77,110,2
1,77,0,62
1,80,110,2
1,80,0,62
1,79,110,2
1,79,0,62
1,77,110,2
1,77,0,62
1,79,110,2
1,79,0,62
1,74,110,2
1,74,0,62
1,77,110,2
1,77,0,62
1,86,110,2
1,86,0,768
1,89,110,0
1,89,0,160
1,82,110,32
1,82,0,46
1,82,110,2
1,82,0,46
1,82,110,2
1,82,0,46
1,82,110,2
1,82,0,46
1,84,110,2
1,84,0,46
1,82,110,2
1,82,0,46
1,80,110,2
1,80,0,46
1,80,110,2
1,80,0,46
1,82,110,2
1,82,0,46
1,77,110,2
1,77,0,46
1,77,110,2
1,77,0,256
1,77,110,288
1,77,0,62
1,77,110,2
1,77,0,62
1,77,110,2
1,77,0,46
1,77,110,2
1,77,0,142
1,77,110,146
1,77,0,46
1,82,110,2
1,82,0,46
1,82,110,2
1,82,0,46
1,82,110,2
1,82,0,46
1,82,110,2
1,82,0,46
1,84,110,2
1,84,0,46
1,82,110,2
1,82,0,46
1,80,110,2
1,80,0,46
1,80,110,2
1,80,0,46
1,82,110,2
1,82,0,46
1,77,110,2
1,77,0,46
1,77,110,2
1,77,0,256
1,91,110,320
1,91,0,816
1,93,110,0
1,93,0,24
1,91,110,0
1,91,0,24
1,89,110,0
1,89,0,144
1,84,110,0
1,84,0,48
1,86,110,0
1,86,0,48
1,89,110,0
1,89,0,142
1,84,110,98
1,84,0,46
1,82,110,2
1,82,0,142
1,84,110,2
1,84,0,46
1,82,110,2
1,82,0,142
1,82,110,2
1,82,0,46
1,82,110,2
1,82,0,46
1,84,110,2
1,84,0,46
1,82,110,2
1,82,0,46
1,82,110,2
1,82,0,46
1,80,110,2
1,80,0,46
1,82,110,2
1,82,0,46
1,80,110,2
1,80,0,46
1,82,110,2
1,82,0,46
