track,note,velocity,time
1,38,100,480
1,38,100,904
1,38,100,904
1,38,100,904
1,38,100,904
1,38,100,904
1,38,100,904
1,38,100,904
1,35,100,424
1,38,100,404
1,35,100,168
1,35,100,164
1,38,100,404
1,35,100,400
1,38,100,404
1,35,100,168
1,35,100,164
1,38,100,404
1,35,100,400
1,38,100,404
1,35,100,168
1,35,100,164
1,38,100,404
1,35,100,400
1,38,100,404
1,35,100,168
1,38,100,164
1,38,100,164
1,38,100,164
1,38,100,164
1,35,100,160
1,49,100,0
1,38,100,404
1,35,100,168
1,35,100,164
1,38,100,404
1,35,100,400
1,38,100,404
1,35,100,168
1,35,100,164
1,38,100,404
1,35,100,400
1,38,100,404
1,35,100,168
1,35,100,164
1,38,100,404
1,35,100,400
1,38,100,404
1,35,100,168
1,35,100,164
1,38,100,404
1,35,100,400
1,52,100,0
1,38,100,404
1,35,100,168
1,35,100,164
1,38,100,404
1,35,100,400
1,38,100,404
1,35,100,168
1,35,100,164
1,38,100,404
1,35,100,400
1,38,100,404
1,35,100,168
1,35,100,164
1,38,100,404
1,35,100,400
1,38,100,404
1,35,100,164
1,35,100,164
1,38,100,268
1,38,100,180
1,38,100,60
1,49,100,60
1,35,100,0
1,42,100,180
1,38,100,180
1,42,100,0
1,35,100,180
1,42,100,0
1,42,100,180
1,35,100,0
1,42,100,180
1,38,100,180
1,42,100,0
1,42,100,180
1,35,100,180
1,42,100,0
1,42,100,180
1,38,100,180
1,42,100,0
1,35,100,180
1,42,100,0
1,42,100,180
1,35,100,0
1,42,100,180
1,38,100,180
1,42,100,0
1,42,100,180
1,35,100,180
1,42,100,0
1,42,100,180
1,38,100,180
1,42,100,0
1,35,100,180
1,42,100,0
1,42,100,180
1,35,100,0
1,42,100,180
1,38,100,180
1,42,100,0
1,42,100,180
1,35,100,180
1,42,100,0
1,42,100,180
1,38,100,180
1,42,100,0
1,35,100,180
1,42,100,0
1,42,100,180
1,35,100,0
1,42,100,180
1,38,100,180
1,42,100,0
1,46,100,180
1,35,100,180
1,42,100,0
1,42,100,180
1,38,100,180
1,42,100,0
1,35,100,180
1,42,100,0
1,42,100,180
1,35,100,0
1,42,100,180
1,38,100,180
1,42,100,0
1,42,100,180
1,35,100,180
1,42,100,0
1,42,100,180
1,38,100,180
1,42,100,0
1,35,100,180
1,42,100,0
1,42,100,180
1,35,100,0
1,42,100,180
1,38,100,180
1,42,100,0
1,42,100,180
1,35,100,180
1,42,100,0
1,42,100,180
1,38,100,180
1,42,100,0
1,35,100,180
1,42,100,0
1,42,100,180
1,35,100,0
1,42,100,180
1,38,100,180
1,42,100,0
1,42,100,180
1,35,100,180
1,42,100,0
1,42,100,180
1,38,100,180
1,42,100,0
1,35,100,180
1,42,100,0
1,42,100,180
1,35,100,0
1,42,100,180
1,38,100,180
1,42,100,0
1,46,100,180
1,49,100,176
1,35,100,4
1,42,100,0
1,42,100,180
1,38,100,180
1,42,100,0
1,35,100,180
1,42,100,0
1,42,100,180
1,35,100,0
1,42,100,180
1,38,100,180
1,42,100,0
1,42,100,180
1,35,100,180
1,42,100,0
1,42,100,180
1,38,100,180
1,42,100,0
1,35,100,180
1,42,100,0
1,42,100,180
1,35,100,0
1,42,100,180
1,38,100,180
1,42,100,0
1,42,100,180
1,35,100,180
1,42,100,0
1,42,100,180
1,38,100,180
1,42,100,0
1,35,100,180
1,42,100,0
1,42,100,180
1,35,100,0
1,42,100,180
1,38,100,180
1,42,100,0
1,42,100,180
1,35,100,180
1,42,100,0
1,42,100,180
1,38,100,180
1,42,100,0
1,35,100,180
1,42,100,0
1,42,100,180
1,35,100,0
1,42,100,180
1,38,100,180
1,42,100,0
1,42,100,180
1,35,100,180
1,42,100,0
1,42,100,180
1,38,100,180
1,42,100,0
1,35,100,180
1,42,100,0
1,42,100,180
1,35,100,0
1,42,100,180
1,38,100,180
1,42,100,0
1,42,100,180
1,35,100,180
1,42,100,0
1,42,100,180
1,38,100,180
1,42,100,0
1,35,100,180
1,42,100,0
1,42,100,180
1,35,100,0
1,42,100,180
1,38,100,180
1,42,100,0
1,42,100,180
1,35,100,180
1,42,100,0
1,42,100,180
1,38,100,180
1,42,100,0
1,35,100,180
1,42,100,0
1,42,100,180
1,35,100,0
1,42,100,180
1,38,100,180
1,42,100,0
1,42,100,180
1,35,100,180
1,46,100,0
1,38,100,188
1,38,100,172
1,38,100,184
1,38,100,176
1,57,100,416
1,35,100,4
1,55,100,0
1,52,100,4
1,49,100,0
1,35,100,176
1,49,100,0
1,38,100,404
1,35,100,168
1,35,100,164
1,38,100,404
1,35,100,400
1,38,100,404
1,35,100,168
1,35,100,164
1,38,100,404
1,35,100,400
1,38,100,404
1,35,100,168
1,35,100,164
1,38,100,404
1,35,100,400
1,38,100,404
1,35,100,168
1,35,100,164
1,38,100,404
1,35,100,400
1,49,100,0
1,38,100,288
1,35,100,168
1,35,100,164
1,38,100,404
1,35,100,400
1,38,100,404
1,35,100,168
1,35,100,164
1,38,100,404
1,35,100,400
1,38,100,404
1,35,100,168
1,35,100,164
1,38,100,404
1,35,100,400
1,38,100,404
1,35,100,164
1,35,100,164
1,38,100,152
1,38,100,60
1,38,100,64
1,38,100,60
1,38,100,60
1,49,100,60
1,35,100,0
1,42,100,180
1,38,100,180
1,42,100,0
1,35,100,180
1,42,100,0
1,42,100,180
1,35,100,0
1,42,100,180
1,38,100,180
1,42,100,0
1,42,100,180
1,35,100,180
1,42,100,0
1,42,100,180
1,38,100,180
1,42,100,0
1,35,100,180
1,42,100,0
1,42,100,180
1,35,100,0
1,42,100,180
1,38,100,180
1,42,100,0
1,42,100,180
1,35,100,180
1,42,100,0
1,42,100,180
1,38,100,180
1,42,100,0
1,35,100,180
1,42,100,0
1,42,100,180
1,35,100,0
1,42,100,180
1,38,100,180
1,42,100,0
1,42,100,180
1,35,100,180
1,42,100,0
1,42,100,180
1,38,100,180
1,42,100,0
1,35,100,180
1,42,100,0
1,42,100,180
1,35,100,0
1,42,100,180
1,38,100,180
1,42,100,0
1,42,100,180
1,35,100,180
1,42,100,0
1,42,100,180
1,38,100,180
1,42,100,0
1,35,100,180
1,42,100,0
1,42,100,180
1,35,100,0
1,42,100,180
1,38,100,180
1,42,100,0
1,42,100,180
1,35,100,180
1,42,100,0
1,42,100,180
1,38,100,180
1,42,100,0
1,35,100,180
1,42,100,0
1,42,100,180
1,35,100,0
1,42,100,180
1,38,100,180
1,42,100,0
1,42,100,180
1,35,100,180
1,42,100,0
1,42,100,180
1,38,100,180
1,42,100,0
1,35,100,180
1,42,100,0
1,42,100,180
1,35,100,0
1,42,100,180
1,38,100,180
1,42,100,0
1,42,100,180
1,35,100,180
1,42,100,0
1,42,100,176
1,38,100,4
1,38,100,180
1,42,100,0
1,35,100,180
1,42,100,0
1,42,100,180
1,38,100,0
1,42,100,180
1,38,100,0
1,42,100,180
1,35,100,0
1,42,100,180
1,38,100,0
1,35,100,180
1,49,100,4
1,42,100,176
1,38,100,180
1,42,100,0
1,35,100,180
1,42,100,0
1,42,100,180
1,35,100,0
1,46,100,180
1,38,100,180
1,42,100,0
1,42,100,180
1,35,100,180
1,42,100,0
1,42,100,180
1,38,100,180
1,42,100,0
1,35,100,180
1,42,100,0
1,42,100,180
1,35,100,0
1,42,100,180
1,38,100,180
1,42,100,0
1,42,100,180
1,35,100,180
1,42,100,0
1,42,100,180
1,38,100,180
1,42,100,0
1,35,100,180
1,42,100,0
1,42,100,180
1,35,100,0
1,42,100,180
1,38,100,180
1,42,100,0
1,42,100,180
1,35,100,180
1,42,100,0
1,42,100,180
1,38,100,180
1,42,100,0
1,35,100,180
1,42,100,0
1,42,100,180
1,35,100,0
1,42,100,180
1,38,100,180
1,42,100,0
1,46,100,180
1,35,100,180
1,42,100,0
1,42,100,180
1,38,100,180
1,42,100,0
1,35,100,180
1,42,100,0
1,42,100,180
1,35,100,0
1,42,100,180
1,38,100,180
1,42,100,0
1,42,100,180
1,35,100,180
1,42,100,0
1,42,100,180
1,38,100,180
1,42,100,0
1,35,100,180
1,42,100,0
1,42,100,180
1,35,100,0
1,42,100,180
1,38,100,180
1,42,100,0
1,42,100,180
1,35,100,180
1,42,100,0
1,42,100,180
1,38,100,180
1,42,100,0
1,35,100,180
1,42,100,0
1,42,100,180
1,35,100,0
1,42,100,180
1,38,100,180
1,42,100,0
1,42,100,180
1,35,100,180
1,46,100,0
1,49,100,176
1,35,100,4
1,38,100,8
1,38,100,172
1,49,100,0
1,35,100,0
1,38,100,184
1,35,100,0
1,49,100,4
1,38,100,172
1,35,100,0
1,49,100,4
1,57,100,412
1,35,100,4
1,55,100,0
1,52,100,4
1,49,100,0
1,46,100,456
1,35,100,0
1,44,100,180
1,35,100,660
1,46,100,0
1,44,100,180
1,35,100,660
1,46,100,0
1,44,100,180
1,35,100,660
1,46,100,0
1,44,100,180
1,35,100,660
1,46,100,0
1,44,100,180
1,35,100,660
1,46,100,0
1,44,100,180
1,35,100,660
1,46,100,0
1,44,100,180
1,38,100,660
1,46,100,0
1,42,100,180
1,49,100,180
1,38,100,90
1,38,100,180
1,38,100,180
1,38,100,180
1,38,100,90
1,38,100,180
1,38,100,180
1,38,100,180
1,38,100,180
1,48,100,30
1,48,100,180
1,35,100,180
1,45,100,132
1,45,100,180
1,35,100,180
1,45,100,196
1,43,100,180
1,43,100,86
1,35,100,4
1,43,100,60
1,47,100,60
1,52,100,0
1,38,100,0
1,47,100,60
1,47,100,60
1,45,100,60
1,38,100,60
1,52,100,0
1,38,100,180
1,38,100,16
1,38,100,56
1,43,100,72
1,49,100,176
1,35,100,0
1,59,100,168
1,38,100,16
1,59,100,0
1,35,100,132
1,59,100,0
1,59,100,168
1,35,100,0
1,59,100,168
1,38,100,168
1,59,100,0
1,59,100,168
1,35,100,168
1,59,100,0
1,59,100,132
1,38,100,116
1,59,100,0
1,35,100,132
1,59,100,0
1,59,100,168
1,35,100,0
1,59,100,168
1,38,100,168
1,59,100,0
1,59,100,168
1,35,100,168
1,59,100,0
1,59,100,132
1,38,100,116
1,59,100,0
1,35,100,132
1,59,100,0
1,59,100,168
1,35,100,0
1,59,100,168
1,38,100,168
1,59,100,0
1,59,100,168
1,35,100,168
1,59,100,0
1,59,100,132
1,38,100,116
1,59,100,0
1,35,100,132
1,59,100,0
1,59,100,168
1,35,100,0
1,59,100,168
1,38,100,168
1,59,100,0
1,59,100,168
1,35,100,168
1,49,100,0
1,53,100,132
1,38,100,116
1,53,100,0
1,35,100,132
1,53,100,0
1,53,100,168
1,35,100,0
1,53,100,168
1,38,100,168
1,53,100,0
1,53,100,168
1,35,100,168
1,53,100,0
1,53,100,132
1,53,100,40
1,38,100,40
1,53,100,0
1,53,100,12
1,35,100,40
1,53,100,0
1,53,100,48
1,53,100,40
1,35,100,0
1,53,100,168
1,38,100,168
1,53,100,0
1,53,100,168
1,35,100,168
1,53,100,0
1,53,100,132
1,38,100,116
1,53,100,0
1,35,100,132
1,53,100,0
1,53,100,168
1,35,100,0
1,53,100,168
1,38,100,168
1,53,100,0
1,53,100,168
1,35,100,168
1,53,100,0
1,53,100,132
1,38,100,116
1,53,100,0
1,35,100,132
1,53,100,0
1,53,100,168
1,35,100,0
1,53,100,168
1,38,100,168
1,53,100,0
1,52,100,168
1,35,100,168
1,49,100,0
1,59,100,132
1,38,100,116
1,59,100,0
1,35,100,132
1,59,100,0
1,59,100,168
1,35,100,0
1,59,100,168
1,38,100,168
1,59,100,0
1,59,100,168
1,35,100,168
1,59,100,0
1,59,100,132
1,38,100,116
1,59,100,0
1,35,100,132
1,59,100,0
1,59,100,168
1,35,100,0
1,59,100,168
1,38,100,168
1,59,100,0
1,59,100,168
1,35,100,168
1,59,100,0
1,59,100,12
1,59,100,12
1,38,100,116
1,59,100,0
1,35,100,132
1,59,100,0
1,59,100,168
1,35,100,0
1,59,100,168
1,38,100,168
1,59,100,0
1,59,100,168
1,35,100,168
1,59,100,0
1,59,100,132
1,38,100,116
1,59,100,0
1,35,100,132
1,59,100,0
1,59,100,168
1,35,100,0
1,59,100,168
1,38,100,168
1,59,100,0
1,59,100,168
1,35,100,168
1,52,100,0
1,53,100,132
1,38,100,116
1,53,100,0
1,35,100,132
1,53,100,0
1,53,100,168
1,35,100,0
1,53,100,168
1,38,100,168
1,53,100,0
1,53,100,168
1,35,100,168
1,53,100,0
1,53,100,132
1,38,100,116
1,53,100,0
1,35,100,132
1,53,100,0
1,53,100,168
1,35,100,0
1,53,100,168
1,38,100,168
1,53,100,0
1,53,100,168
1,35,100,168
1,53,100,0
1,53,100,132
1,53,100,40
1,38,100,40
1,53,100,0
1,53,100,12
1,35,100,40
1,53,100,0
1,53,100,48
1,53,100,40
1,35,100,0
1,53,100,168
1,38,100,168
1,53,100,0
1,53,100,168
1,35,100,168
1,53,100,0
1,53,100,132
1,38,100,116
1,53,100,0
1,35,100,132
1,53,100,0
1,53,100,168
1,35,100,0
1,53,100,168
1,38,100,168
1,53,100,0
1,52,100,168
1,49,100,168
1,35,100,0
1,42,100,180
1,38,100,180
1,42,100,0
1,35,100,180
1,42,100,0
1,42,100,180
1,35,100,0
1,42,100,180
1,38,100,180
1,42,100,0
1,42,100,180
1,35,100,180
1,42,100,0
1,42,100,180
1,38,100,180
1,42,100,0
1,35,100,180
1,42,100,0
1,42,100,180
1,35,100,0
1,42,100,180
1,38,100,180
1,42,100,0
1,46,100,180
1,35,100,180
1,42,100,0
1,42,100,180
1,38,100,180
1,42,100,0
1,35,100,180
1,42,100,0
1,42,100,180
1,35,100,0
1,42,100,180
1,38,100,180
1,42,100,0
1,42,100,180
1,35,100,180
1,42,100,0
1,42,100,180
1,38,100,180
1,42,100,0
1,35,100,180
1,42,100,0
1,42,100,180
1,35,100,0
1,42,100,180
1,38,100,180
1,42,100,0
1,42,100,180
1,35,100,180
1,42,100,0
1,42,100,180
1,38,100,180
1,42,100,0
1,35,100,180
1,42,100,0
1,42,100,180
1,35,100,0
1,42,100,180
1,38,100,180
1,42,100,0
1,42,100,180
1,35,100,180
1,42,100,0
1,42,100,180
1,38,100,180
1,42,100,0
1,35,100,180
1,42,100,0
1,42,100,180
1,35,100,0
1,42,100,180
1,38,100,180
1,42,100,0
1,42,100,180
1,35,100,180
1,42,100,0
1,42,100,180
1,38,100,180
1,42,100,0
1,35,100,180
1,42,100,0
1,42,100,180
1,35,100,0
1,42,100,180
1,38,100,180
1,42,100,0
1,42,100,180
1,35,100,180
1,42,100,0
1,42,100,176
1,38,100,4
1,38,100,180
1,42,100,0
1,35,100,180
1,42,100,0
1,42,100,180
1,38,100,0
1,42,100,180
1,38,100,0
1,42,100,180
1,35,100,0
1,42,100,180
1,38,100,0
1,35,100,180
1,49,100,4
1,42,100,176
1,38,100,180
1,42,100,0
1,35,100,180
1,42,100,0
1,42,100,180
1,35,100,0
1,46,100,180
1,38,100,180
1,42,100,0
1,42,100,180
1,35,100,180
1,42,100,0
1,42,100,180
1,38,100,180
1,42,100,0
1,35,100,180
1,42,100,0
1,42,100,180
1,35,100,0
1,42,100,180
1,38,100,180
1,42,100,0
1,42,100,180
1,35,100,180
1,42,100,0
1,42,100,180
1,38,100,180
1,42,100,0
1,35,100,180
1,42,100,0
1,42,100,180
1,35,100,0
1,42,100,180
1,38,100,180
1,42,100,0
1,42,100,180
1,35,100,180
1,42,100,0
1,42,100,180
1,38,100,180
1,42,100,0
1,35,100,180
1,42,100,0
1,42,100,180
1,35,100,0
1,42,100,180
1,38,100,180
1,42,100,0
1,42,100,180
1,35,100,180
1,42,100,0
1,49,100,8
1,42,100,172
1,38,100,180
1,42,100,0
1,35,100,180
1,42,100,0
1,42,100,180
1,35,100,0
1,42,100,180
1,38,100,180
1,42,100,0
1,42,100,180
1,35,100,180
1,42,100,0
1,42,100,180
1,38,100,180
1,42,100,0
1,35,100,180
1,42,100,0
1,42,100,180
1,35,100,0
1,42,100,180
1,38,100,180
