track,note,velocity,time
1,38,100,895
1,38,100,9
1,38,100,21
1,45,100,0
1,45,100,162
1,41,100,178
1,41,100,24
1,35,100,158
1,49,100,4
1,51,100,117
1,38,100,9
1,51,100,169
1,51,100,187
1,35,100,4
1,35,100,173
1,51,100,5
1,51,100,173
1,38,100,9
1,51,100,169
1,51,100,187
1,35,100,4
1,51,100,173
1,51,100,178
1,38,100,5
1,51,100,173
1,53,100,57
1,35,100,70
1,51,100,4
1,51,100,173
1,35,100,5
1,38,100,178
1,51,100,0
1,51,100,177
1,35,100,183
1,51,100,0
1,51,100,173
1,38,100,182
1,51,100,0
1,51,100,170
1,51,100,195
1,35,100,4
1,51,100,169
1,35,100,9
1,38,100,178
1,51,100,4
1,51,100,165
1,51,100,191
1,35,100,4
1,51,100,169
1,51,100,182
1,38,100,5
1,38,100,298
1,38,100,37
1,45,100,86
1,43,100,183
1,41,100,180
1,38,100,56
1,49,100,168
1,35,100,12
1,44,100,180
1,44,100,158
1,38,100,0
1,44,100,180
1,44,100,180
1,35,100,0
1,35,100,180
1,44,100,0
1,44,100,180
1,38,100,0
1,44,100,180
1,44,100,180
1,35,100,0
1,44,100,180
1,38,100,180
1,44,100,0
1,44,100,180
1,35,100,180
1,44,100,0
1,44,100,180
1,35,100,0
1,44,100,180
1,38,100,0
1,44,100,180
1,44,100,180
1,35,100,0
1,44,100,180
1,38,100,180
1,44,100,0
1,44,100,180
1,35,100,180
1,44,100,0
1,44,100,180
1,35,100,0
1,44,100,180
1,38,100,0
1,44,100,180
1,44,100,180
1,35,100,0
1,44,100,180
1,38,100,180
1,44,100,0
1,44,100,180
1,35,100,180
1,44,100,0
1,35,100,180
1,46,100,0
1,44,100,180
1,38,100,0
1,44,100,180
1,35,100,180
1,49,100,0
1,44,100,180
1,38,100,180
1,44,100,0
1,44,100,180
1,35,100,180
1,44,100,0
1,44,100,180
1,35,100,0
1,44,100,180
1,38,100,0
1,44,100,180
1,44,100,180
1,35,100,0
1,44,100,180
1,38,100,180
1,44,100,0
1,44,100,180
1,35,100,180
1,44,100,0
1,44,100,180
1,35,100,0
1,44,100,180
1,38,100,0
1,44,100,180
1,44,100,180
1,35,100,0
1,44,100,180
1,38,100,180
1,44,100,0
1,44,100,180
1,35,100,180
1,44,100,0
1,44,100,180
1,35,100,0
1,44,100,180
1,38,100,0
1,44,100,180
1,44,100,180
1,35,100,0
1,44,100,180
1,38,100,180
1,44,100,0
1,44,100,180
1,35,100,180
1,44,100,0
1,44,100,180
1,35,100,0
1,44,100,180
1,38,100,0
1,44,100,180
1,35,100,180
1,49,100,0
1,44,100,180
1,38,100,180
1,44,100,0
1,44,100,180
1,35,100,180
1,44,100,0
1,35,100,180
1,46,100,0
1,38,100,58
1,38,100,62
1,45,100,177
1,35,100,183
1,49,100,0
1,44,100,180
1,38,100,180
1,44,100,0
1,44,100,180
1,35,100,180
1,44,100,0
1,44,100,180
1,35,100,0
1,44,100,180
1,38,100,0
1,44,100,180
1,44,100,180
1,35,100,0
1,44,100,180
1,38,100,180
1,44,100,0
1,44,100,180
1,35,100,180
1,44,100,0
1,44,100,180
1,35,100,0
1,44,100,180
1,38,100,0
1,44,100,180
1,44,100,180
1,35,100,0
1,44,100,180
1,38,100,180
1,44,100,0
1,44,100,180
1,35,100,180
1,44,100,0
1,35,100,180
1,46,100,0
1,38,100,180
1,46,100,180
1,44,100,180
1,35,100,0
1,49,100,8
1,44,100,172
1,38,100,180
1,44,100,0
1,44,100,180
1,35,100,180
1,44,100,0
1,44,100,180
1,35,100,0
1,44,100,180
1,38,100,0
1,44,100,180
1,44,100,180
1,35,100,0
1,44,100,180
1,38,100,180
1,44,100,0
1,44,100,180
1,35,100,180
1,44,100,0
1,35,100,180
1,46,100,0
1,38,100,180
1,46,100,180
1,44,100,180
1,35,100,0
1,49,100,8
1,44,100,172
1,38,100,180
1,44,100,0
1,44,100,180
1,35,100,180
1,44,100,0
1,44,100,180
1,35,100,0
1,44,100,180
1,38,100,0
1,44,100,180
1,44,100,180
1,35,100,0
1,44,100,180
1,38,100,180
1,44,100,0
1,44,100,180
1,35,100,180
1,44,100,0
1,35,100,180
1,46,100,0
1,38,100,180
1,46,100,180
1,44,100,180
1,35,100,0
1,49,100,8
1,49,100,0
1,44,100,172
1,38,100,180
1,44,100,0
1,44,100,180
1,35,100,180
1,44,100,0
1,44,100,180
1,35,100,0
1,44,100,180
1,38,100,0
1,44,100,180
1,44,100,180
1,35,100,0
1,44,100,180
1,38,100,180
1,44,100,0
1,44,100,180
1,35,100,180
1,44,100,0
1,35,100,180
1,46,100,0
1,38,100,180
1,46,100,180
1,35,100,180
1,49,100,8
1,44,100,172
1,44,100,180
1,38,100,0
1,44,100,180
1,44,100,180
1,35,100,0
1,35,100,180
1,44,100,0
1,44,100,180
1,38,100,0
1,44,100,180
1,35,100,180
1,44,100,180
1,44,100,180
1,38,100,0
1,46,100,180
1,35,100,180
1,49,100,0
1,38,100,298
1,38,100,66
1,35,100,186
1,35,100,170
1,49,100,8
1,44,100,172
1,44,100,180
1,38,100,0
1,44,100,180
1,44,100,180
1,35,100,0
1,35,100,180
1,44,100,0
1,44,100,180
1,38,100,0
1,44,100,180
1,35,100,180
1,49,100,0
1,44,100,180
1,38,100,180
1,44,100,0
1,46,100,180
1,38,100,63
1,38,100,40
1,45,100,78
1,45,100,182
1,43,100,177
1,41,100,64
1,49,100,171
1,35,100,5
1,44,100,180
1,44,100,180
1,38,100,0
1,44,100,180
1,44,100,180
1,35,100,0
1,35,100,180
1,44,100,0
1,44,100,180
1,38,100,0
1,44,100,180
1,44,100,180
1,35,100,0
1,44,100,180
1,38,100,180
1,44,100,0
1,44,100,180
1,35,100,180
1,44,100,0
1,44,100,180
1,35,100,0
1,44,100,180
1,38,100,0
1,44,100,180
1,44,100,180
1,35,100,0
1,44,100,180
1,38,100,180
1,44,100,0
1,44,100,180
1,35,100,180
1,44,100,0
1,44,100,180
1,35,100,0
1,44,100,180
1,38,100,0
1,44,100,180
1,44,100,180
1,35,100,0
1,44,100,180
1,38,100,180
1,44,100,0
1,44,100,180
1,35,100,180
1,44,100,0
1,35,100,180
1,46,100,0
1,44,100,180
1,38,100,0
1,44,100,180
1,35,100,180
1,49,100,0
1,44,100,180
1,38,100,180
1,44,100,0
1,44,100,180
1,35,100,180
1,44,100,0
1,44,100,180
1,35,100,0
1,44,100,180
1,38,100,0
1,44,100,180
1,44,100,180
1,35,100,0
1,44,100,180
1,38,100,180
1,44,100,0
1,44,100,180
1,35,100,180
1,44,100,0
1,44,100,180
1,35,100,0
1,44,100,180
1,38,100,0
1,44,100,180
1,44,100,180
1,35,100,0
1,44,100,180
1,38,100,180
1,44,100,0
1,44,100,180
1,35,100,180
1,44,100,0
1,44,100,180
1,35,100,0
1,44,100,180
1,38,100,0
1,44,100,180
1,44,100,180
1,35,100,0
1,44,100,180
1,38,100,180
1,44,100,0
1,44,100,180
1,35,100,180
1,44,100,0
1,44,100,180
1,35,100,0
1,44,100,180
1,38,100,0
1,44,100,180
1,44,100,180
1,35,100,0
1,49,100,8
1,44,100,172
1,38,100,180
1,44,100,0
1,44,100,180
1,35,100,180
1,44,100,0
1,44,100,180
1,35,100,0
1,44,100,180
1,38,100,0
1,44,100,180
1,44,100,180
1,35,100,0
1,44,100,180
1,38,100,180
1,44,100,0
1,44,100,180
1,35,100,180
1,44,100,0
1,35,100,180
1,46,100,0
1,38,100,180
1,46,100,180
1,44,100,180
1,35,100,0
1,49,100,8
1,44,100,172
1,38,100,180
1,44,100,0
1,44,100,180
1,35,100,180
1,44,100,0
1,44,100,180
1,35,100,0
1,44,100,180
1,38,100,0
1,44,100,180
1,44,100,180
1,35,100,0
1,44,100,180
1,38,100,180
1,44,100,0
1,44,100,180
1,35,100,180
1,44,100,0
1,35,100,180
1,46,100,0
1,38,100,180
1,46,100,180
1,44,100,180
1,35,100,0
1,49,100,8
1,49,100,0
1,44,100,172
1,38,100,180
1,44,100,0
1,44,100,180
1,35,100,180
1,44,100,0
1,44,100,180
1,35,100,0
1,44,100,180
1,38,100,0
1,44,100,180
1,44,100,180
1,35,100,0
1,44,100,180
1,38,100,180
1,44,100,0
1,44,100,180
1,35,100,180
1,44,100,0
1,35,100,180
1,46,100,0
1,38,100,180
1,46,100,180
1,35,100,180
1,49,100,8
1,44,100,172
1,44,100,180
1,38,100,0
1,44,100,180
1,44,100,180
1,35,100,0
1,35,100,180
1,44,100,0
1,44,100,180
1,38,100,0
1,44,100,180
1,35,100,180
1,49,100,4
1,47,100,1586
1,47,100,16
1,43,100,92
1,35,100,49
1,49,100,8
1,44,100,172
1,44,100,180
1,38,100,0
1,44,100,180
1,44,100,180
1,35,100,0
1,35,100,180
1,44,100,0
1,44,100,180
1,38,100,0
1,44,100,180
1,35,100,180
1,49,100,0
1,44,100,180
1,38,100,180
1,44,100,0
1,44,100,180
1,35,100,180
1,44,100,0
1,35,100,180
1,46,100,0
1,38,100,58
1,38,100,62
1,45,100,177
1,44,100,183
1,35,100,0
1,49,100,8
1,44,100,172
1,38,100,180
1,44,100,0
1,44,100,180
1,35,100,180
1,44,100,0
1,44,100,180
1,35,100,0
1,44,100,180
1,38,100,0
1,44,100,180
1,44,100,180
1,35,100,0
1,44,100,180
1,38,100,180
1,44,100,0
1,44,100,180
1,35,100,180
1,44,100,0
1,44,100,180
1,35,100,0
1,44,100,180
1,38,100,0
1,44,100,180
1,44,100,180
1,35,100,0
1,44,100,180
1,38,100,180
1,44,100,0
1,44,100,180
1,35,100,180
1,44,100,0
1,46,100,180
1,35,100,68
1,38,100,60
1,47,100,176
1,45,100,60
1,44,100,56
1,35,100,0
1,49,100,8
1,44,100,172
1,38,100,180
1,44,100,0
1,44,100,180
1,35,100,180
1,44,100,0
1,44,100,180
1,35,100,0
1,44,100,180
1,38,100,0
1,44,100,180
1,44,100,60
1,44,100,60
1,35,100,0
1,44,100,180
1,38,100,180
1,44,100,0
1,44,100,180
1,35,100,180
1,44,100,0
1,44,100,180
1,35,100,0
1,44,100,180
1,38,100,0
1,44,100,180
1,44,100,180
1,35,100,0
1,44,100,180
1,38,100,180
1,44,100,0
1,44,100,180
1,35,100,180
1,44,100,0
1,44,100,180
1,35,100,0
1,44,100,180
1,38,100,0
1,44,100,180
1,44,100,180
1,35,100,0
1,44,100,180
1,38,100,180
1,44,100,0
1,46,100,180
1,35,100,64
1,38,100,60
1,48,100,56
1,45,100,176
1,35,100,68
1,41,100,60
1,41,100,64
1,35,100,172
1,49,100,8
1,44,100,172
1,38,100,180
1,44,100,0
1,44,100,180
1,35,100,180
1,44,100,0
1,44,100,180
1,35,100,0
1,44,100,180
1,38,100,0
1,44,100,180
1,44,100,180
1,35,100,0
1,44,100,180
1,38,100,180
1,44,100,0
1,44,100,180
1,35,100,180
1,44,100,0
1,44,100,180
1,35,100,0
1,44,100,180
1,38,100,0
1,46,100,180
1,44,100,180
1,35,100,0
1,44,100,180
1,38,100,180
1,44,100,0
1,44,100,180
1,35,100,180
1,44,100,0
1,44,100,180
1,35,100,0
1,44,100,180
1,38,100,0
1,44,100,180
1,44,100,180
1,35,100,0
1,44,100,180
1,38,100,180
1,44,100,0
1,44,100,180
1,35,100,180
1,44,100,0
1,49,100,4
1,44,100,176
1,35,100,64
1,44,100,56
1,38,100,0
1,52,100,4
1,47,100,180
1,44,100,176
1,35,100,0
1,49,100,12
1,44,100,168
1,38,100,180
1,44,100,0
1,44,100,180
1,35,100,180
1,44,100,0
1,44,100,180
1,35,100,0
1,44,100,180
1,38,100,0
1,46,100,180
1,44,100,180
1,35,100,0
1,44,100,180
1,38,100,180
1,44,100,0
1,44,100,180
1,35,100,180
1,44,100,0
1,44,100,180
1,35,100,0
1,44,100,180
1,38,100,0
1,44,100,180
1,44,100,180
1,35,100,0
1,52,100,4
1,44,100,176
1,38,100,180
1,44,100,0
1,44,100,180
1,35,100,180
1,44,100,0
1,44,100,180
1,35,100,0
1,44,100,180
1,38,100,0
1,44,100,180
1,46,100,180
1,35,100,8
1,44,100,176
1,52,100,176
1,38,100,4
1,44,100,172
1,38,100,64
1,38,100,8
1,38,100,12
1,48,100,48
1,48,100,176
1,45,100,180
1,43,100,60
1,44,100,176
1,35,100,0
1,49,100,8
1,44,100,172
1,38,100,180
1,44,100,0
1,44,100,180
1,35,100,180
1,44,100,0
1,44,100,180
1,35,100,0
1,44,100,180
1,38,100,0
1,44,100,180
1,44,100,180
1,35,100,0
1,44,100,180
1,38,100,180
1,44,100,0
1,44,100,180
1,35,100,180
1,44,100,0
1,35,100,180
1,46,100,0
1,38,100,180
1,46,100,180
1,44,100,180
1,35,100,0
1,49,100,8
1,44,100,172
1,38,100,180
1,44,100,0
1,44,100,180
1,35,100,180
1,44,100,0
1,44,100,180
1,35,100,0
1,44,100,180
1,38,100,0
1,44,100,180
1,44,100,180
1,35,100,0
1,44,100,180
1,38,100,180
1,44,100,0
1,44,100,180
1,35,100,180
1,44,100,0
1,35,100,180
1,46,100,0
1,38,100,180
1,46,100,180
1,44,100,180
1,35,100,0
1,49,100,8
1,49,100,0
1,44,100,172
1,38,100,180
1,44,100,0
1,44,100,180
1,35,100,180
1,44,100,0
1,44,100,180
1,35,100,0
1,44,100,180
1,38,100,0
1,44,100,180
1,44,100,180
1,35,100,0
1,44,100,180
1,38,100,180
1,44,100,0
1,44,100,180
1,35,100,180
1,44,100,0
1,35,100,180
1,46,100,0
1,38,100,180
1,46,100,180
1,35,100,180
1,49,100,8
1,44,100,172
1,44,100,180
1,38,100,0
1,44,100,180
1,44,100,180
1,35,100,0
1,35,100,180
1,44,100,0
1,44,100,180
1,38,100,0
1,44,100,180
1,35,100,180
1,44,100,180
1,44,100,180
1,38,100,0
1,46,100,180
1,35,100,180
1,49,100,0
1,38,100,298
1,38,100,66
1,35,100,186
1,35,100,170
1,49,100,8
1,44,100,172
1,44,100,180
1,38,100,0
1,44,100,180
1,44,100,180
1,35,100,0
1,35,100,180
1,44,100,0
1,44,100,180
1,38,100,0
1,44,100,180
1,35,100,180
1,49,100,0
1,44,100,180
1,38,100,180
1,44,100,0
1,46,100,180
1,38,100,63
1,38,100,40
1,45,100,78
1,45,100,182
1,43,100,185
1,41,100,48
1,49,100,179
1,35,100,5
1,49,100,8
1,44,100,172
1,44,100,180
1,38,100,0
1,44,100,180
1,44,100,180
1,35,100,0
1,35,100,180
1,44,100,0
1,44,100,180
1,38,100,0
1,44,100,180
1,35,100,180
1,49,100,0
1,44,100,180
1,38,100,180
1,44,100,0
1,46,100,180
1,38,100,63
1,38,100,40
1,45,100,78
1,45,100,182
1,43,100,177
1,41,100,56
1,49,100,179
1,35,100,5
1,49,100,8
1,44,100,172
1,44,100,180
1,38,100,0
1,44,100,180
1,44,100,180
1,35,100,0
1,35,100,180
1,44,100,0
1,38,100,64
1,44,100,56
1,38,100,0
1,44,100,180
1,35,100,180
1,49,100,0
2,31,100,1920
2,26,100,14
2,31,100,120
2,31,100,55
2,38,100,240
2,38,100,176
2,38,100,98
2,38,100,59
2,28,100,94
2,40,100,720
2,40,100,30
2,38,100,240
2,38,100,26
2,36,100,43
2,36,100,26
2,36,100,283
2,36,100,31
2,38,100,41
2,31,100,14
2,38,100,199
2,31,100,120
2,31,100,59
2,38,100,155
2,33,100,219
2,38,100,15
2,33,100,20
2,38,100,23
2,28,100,82
2,40,100,720
2,40,100,139
2,38,100,47
2,38,100,54
2,36,100,23
2,36,100,38
2,36,100,408
2,36,100,59
2,38,100,108
2,31,100,38
2,38,100,199
2,31,100,120
2,31,100,59
2,38,100,155
2,33,100,219
2,38,100,15
2,33,100,20
2,38,100,23
2,40,100,82
2,40,100,35
2,40,100,46
2,38,100,25
2,36,100,145
2,36,100,186
2,36,100,71
2,36,100,105
2,38,100,6
2,38,100,27
2,38,100,167
2,38,100,27
2,38,100,180
2,38,100,19
2,38,100,180
2,38,100,31
