track,note,velocity,time
1,64,45,1016
1,52,31,0
1,43,39,0
1,59,47,0
1,36,41,0
1,65,56,48
1,45,45,16
1,38,43,0
1,60,44,0
1,53,38,4
1,55,49,8
1,67,51,4
1,62,48,8
1,40,46,0
1,47,47,8
1,69,57,124
1,57,48,12
1,64,47,4
1,41,49,0
1,48,50,4
1,71,59,124
1,43,47,12
1,65,51,0
1,59,41,8
1,50,46,8
1,72,52,116
1,60,41,8
1,67,40,0
1,52,44,16
1,74,53,124
1,47,46,8
1,62,36,0
1,53,46,0
1,69,42,0
1,76,61,104
1,71,55,4
1,64,44,4
1,55,45,12
1,48,21,20
1,77,57,88
1,65,48,4
1,72,47,0
1,50,43,4
1,57,45,12
1,79,54,120
1,74,44,8
1,67,40,0
1,52,45,4
1,59,39,4
1,81,56,124
1,76,43,20
1,69,37,0
1,53,35,4
1,60,35,12
1,83,48,136
1,71,42,4
1,55,45,0
1,77,46,4
1,62,31,20
1,57,47,164
1,84,49,0
1,72,44,0
1,64,45,4
1,79,42,4
1,59,45,184
1,81,49,16
1,65,42,0
1,86,46,0
1,74,41,4
1,83,50,236
1,88,54,0
1,67,45,0
1,60,36,4
1,76,38,12
1,60,68,656
1,64,68,32
1,67,69,72
1,71,74,56
1,63,59,8
1,47,52,16
1,57,54,4
1,67,23,24
1,72,73,28
1,38,47,32
1,62,36,4
1,69,66,52
1,55,62,8
1,61,54,20
1,45,42,16
1,37,45,32
1,52,45,28
1,64,63,12
1,65,64,84
1,64,59,52
1,63,50,16
1,38,50,72
1,67,60,0
1,53,52,176
1,57,49,64
1,60,66,56
1,57,52,56
1,58,66,0
1,59,63,40
1,43,45,36
1,59,54,92
1,53,49,0
1,64,72,56
1,67,66,112
1,71,69,68
1,56,58,40
1,62,56,8
1,74,78,0
1,47,44,4
1,75,69,40
1,76,66,60
1,75,69,0
1,74,66,32
1,73,62,12
1,45,54,24
1,60,49,4
1,52,46,0
1,72,72,20
1,59,22,0
1,74,71,192
1,55,54,68
1,76,71,8
1,74,59,80
1,72,63,12
1,71,58,16
1,38,46,20
1,54,57,28
1,71,52,32
1,72,55,32
1,76,55,44
1,76,50,52
1,78,59,56
1,81,55,36
1,83,55,28
1,84,55,32
1,88,55,32
1,90,55,40
1,95,55,32
1,54,42,36
1,60,34,0
1,64,39,12
1,60,67,204
1,64,54,76
1,67,66,0
1,71,71,36
1,63,62,12
1,67,44,16
1,47,54,0
1,57,52,12
1,72,79,24
1,40,59,8
1,62,56,0
1,55,63,40
1,69,72,4
1,45,50,12
1,61,62,8
1,64,75,36
1,37,61,4
1,52,40,24
1,65,70,40
1,53,66,64
1,67,69,4
1,38,47,0
1,60,54,4
1,65,42,12
1,67,72,64
1,60,56,8
1,65,15,52
1,68,66,28
1,59,66,0
1,63,65,4
1,31,62,0
1,53,60,96
1,60,62,64
1,62,64,76
1,64,55,20
1,52,61,4
1,59,57,4
1,43,53,8
1,36,45,8
1,65,56,32
1,53,49,4
1,60,50,12
1,45,47,4
1,38,43,0
1,67,53,136
1,55,37,8
1,40,51,0
1,62,49,8
1,47,46,12
1,69,56,128
1,57,43,0
1,41,49,8
1,64,39,4
1,48,38,16
1,71,53,104
1,59,37,12
1,43,49,0
1,50,41,12
1,72,55,100
1,60,50,8
1,45,45,8
1,67,37,4
1,52,34,12
1,74,51,100
1,47,47,12
1,62,31,0
1,69,31,4
1,53,37,4
1,76,56,96
1,48,51,12
1,64,47,0
1,71,37,0
1,55,43,4
1,65,49,112
1,77,54,0
1,50,47,12
1,57,42,16
1,67,42,100
1,79,57,0
1,74,40,12
1,52,47,0
1,59,41,16
1,81,53,100
1,69,49,4
1,53,49,8
1,76,41,0
1,60,42,4
1,71,52,104
1,83,52,4
1,77,43,20
1,62,45,0
1,55,39,8
1,72,50,132
1,84,51,4
1,57,45,0
1,64,48,8
1,79,42,8
1,59,45,144
1,86,49,8
1,65,42,0
1,81,47,4
1,74,46,0
1,88,46,148
1,67,39,0
1,60,27,12
1,76,11,20
1,60,48,384
1,72,50,12
1,76,72,116
1,64,61,12
1,79,76,136
1,67,66,4
1,83,78,56
1,71,69,8
1,57,53,16
1,84,76,100
1,72,66,4
1,67,56,8
1,63,61,4
1,81,66,60
1,69,66,4
1,77,69,8
1,73,57,8
1,55,60,4
1,57,52,36
1,61,55,12
1,65,53,4
1,76,71,76
1,64,74,8
1,73,70,0
1,70,62,0
1,65,63,68
1,77,63,4
1,73,66,0
1,70,59,12
1,38,66,40
1,67,70,4
1,74,60,4
1,79,71,0
1,72,59,0
1,53,65,56
1,57,66,60
1,58,63,136
1,59,68,20
1,43,66,8
1,53,49,176
1,59,51,4
1,88,79,0
1,79,75,0
1,83,68,4
1,76,70,4
1,85,50,0
1,87,73,56
1,75,70,4
1,86,76,36
1,52,57,0
1,56,58,0
1,62,59,0
1,74,71,4
1,47,39,0
1,60,40,20
1,88,72,140
1,76,68,0
1,86,69,12
1,74,72,0
1,52,56,48
1,45,57,12
1,84,72,0
1,60,58,8
1,72,72,0
1,75,68,32
1,87,57,16
1,88,72,0
1,76,63,8
1,55,54,8
1,86,63,92
1,74,65,0
1,72,50,40
1,84,59,0
1,83,68,64
1,71,66,12
1,38,57,20
1,78,49,0
1,54,73,16
1,57,68,96
1,60,63,128
1,64,55,8
1,60,69,236
1,64,61,36
1,67,68,36
1,71,69,64
1,63,49,24
1,47,53,8
1,57,56,0
1,67,48,12
1,67,53,0
1,66,63,92
1,40,58,8
1,62,47,4
1,72,69,12
1,69,66,40
1,55,52,0
1,45,42,12
1,61,25,20
1,64,65,24
1,37,61,4
1,65,65,88
1,38,53,60
1,60,53,12
1,67,59,4
1,65,34,12
1,67,60,48
1,60,49,12
1,65,48,0
1,67,53,64
1,65,43,12
1,60,47,4
1,68,61,52
1,31,59,0
1,59,54,8
1,63,56,4
1,53,53,8
1,60,57,108
1,62,57,92
1,36,54,24
1,60,66,4
1,64,70,44
1,48,56,0
1,70,56,4
1,63,63,28
1,53,58,12
1,69,65,92
1,62,60,8
1,46,53,24
1,68,54,4
1,61,58,12
1,51,48,0
1,67,57,8
1,60,61,20
1,44,52,4
1,66,56,16
1,49,46,40
1,59,57,12
1,65,59,16
1,42,48,0
1,58,56,12
1,65,45,116
1,57,54,48
1,47,44,0
1,63,49,4
1,40,46,44
1,56,50,8
1,62,59,28
1,55,49,28
1,45,46,0
1,61,52,0
1,38,46,8
1,54,54,4
1,60,49,36
1,43,38,44
1,53,50,0
1,59,52,36
1,60,58,76
1,24,40,12
1,52,27,8
1,91,57,652
1,60,57,480
1,64,61,84
1,67,60,92
1,69,78,24
1,59,32,32
1,62,45,0
1,28,46,28
1,40,34,28
1,52,61,308
1,40,58,4
1,50,66,112
1,38,65,12
1,48,61,36
1,36,59,4
1,35,59,0
1,47,58,4
1,66,66,112
1,61,56,12
1,54,55,0
1,34,62,4
1,46,56,0
1,33,53,172
1,66,61,4
1,45,50,8
1,60,57,0
1,54,58,0
1,66,64,160
1,56,57,16
1,59,48,0
1,62,50,0
1,44,53,0
1,32,54,0
1,65,65,4
1,64,73,68
1,61,58,12
1,57,58,12
1,31,49,4
1,69,72,44
1,64,63,4
1,30,63,16
1,57,42,8
1,42,51,24
1,81,72,100
1,76,71,4
1,78,55,0
1,69,68,4
1,57,57,104
1,54,57,8
1,62,44,12
1,56,62,148
1,57,66,64
1,38,48,16
1,56,68,32
1,64,57,0
1,53,70,4
1,56,66,116
1,63,33,8
1,64,65,0
1,38,63,36
1,64,70,52
1,57,65,0
1,54,72,12
1,63,72,0
1,62,64,20
1,57,55,28
1,38,61,8
1,69,73,56
1,53,66,4
1,62,57,8
1,57,63,0
1,65,64,4
1,59,61,92
1,62,49,4
1,65,80,172
1,64,71,44
1,59,65,8
1,32,54,8
1,44,51,0
1,61,66,24
1,64,61,12
1,31,50,0
1,58,60,0
1,43,53,4
1,64,72,40
1,60,67,0
1,57,57,4
1,30,49,12
1,42,43,8
1,63,71,64
1,62,72,36
1,56,62,0
1,59,65,8
1,29,52,4
1,41,52,0
1,28,71,44
1,69,73,212
1,60,62,4
1,64,61,4
1,57,61,20
1,40,64,8
1,71,74,24
1,68,62,12
1,62,57,4
1,55,66,20
1,72,71,12
1,69,66,8
1,45,56,0
1,74,72,68
1,38,61,0
1,71,63,20
1,54,6,32
1,71,51,44
1,74,71,0
1,71,65,92
1,60,54,0
1,64,55,4
1,71,71,36
1,64,55,4
1,60,55,0
1,62,56,36
1,43,47,0
1,53,47,0
1,59,45,16
1,67,51,8
1,86,72,68
1,74,64,4
1,54,45,0
1,81,61,0
1,64,43,0
1,60,40,4
1,86,63,52
1,83,63,76
1,81,63,0
1,83,60,8
1,79,62,88
1,64,39,0
1,53,39,0
1,59,33,24
1,55,42,48
1,67,45,16
1,68,52,100
1,71,65,104
1,74,63,24
1,77,61,40
1,79,72,40
1,80,66,64
1,83,64,76
1,86,66,80
1,89,66,44
1,91,69,44
1,67,67,12
1,80,72,168
1,73,70,8
1,68,66,4
1,76,56,20
1,77,67,84
1,74,66,8
1,69,66,0
1,81,68,0
1,82,79,96
1,75,70,4
1,70,61,16
1,79,65,44
1,83,74,12
1,71,64,0
1,76,61,4
1,40,63,8
1,84,76,84
1,76,66,4
1,72,70,0
1,79,60,12
1,55,61,0
1,81,67,56
1,69,66,4
1,77,71,4
1,73,62,8
1,55,56,4
1,65,53,8
1,61,51,4
1,76,74,0
1,64,71,8
1,70,65,0
1,73,68,12
1,81,74,128
1,69,67,0
1,79,73,32
1,72,56,8
1,67,61,0
1,74,53,0
1,38,57,20
1,53,63,40
1,57,63,76
1,58,64,136
1,59,56,96
1,43,47,0
1,53,34,4
1,67,62,72
1,76,63,0
1,64,61,16
1,71,59,8
1,71,63,64
1,79,76,4
1,74,63,12
1,67,56,4
1,74,74,112
1,71,63,0
1,83,75,0
1,77,68,4
1,56,54,40
1,47,49,4
1,62,63,4
1,74,69,8
1,80,61,0
1,77,61,4
1,86,80,0
1,77,61,64
1,87,78,12
1,75,63,8
1,80,63,4
1,76,72,48
1,80,64,0
1,88,55,20
1,45,61,60
1,60,58,4
1,55,49,8
1,84,63,4
1,79,60,0
1,76,67,4
1,72,63,0
1,55,57,116
1,85,76,8
1,73,66,4
1,65,61,72
1,61,56,12
1,74,78,8
1,86,75,0
1,83,67,72
1,78,63,4
1,71,72,4
1,54,59,12
1,60,56,32
1,64,56,8
1,71,66,0
1,72,60,24
1,76,52,28
1,76,52,40
1,78,63,28
1,83,70,24
1,60,52,20
1,66,53,28
1,72,45,12
1,71,36,12
1,60,66,236
1,64,61,92
1,67,61,4
1,63,66,24
1,71,61,0
1,68,56,8
1,47,52,8
1,57,54,16
1,67,69,0
1,66,63,4
1,40,59,12
1,62,40,16
1,72,68,48
1,55,63,32
1,69,72,8
1,45,44,8
1,61,53,4
1,53,63,52
1,65,70,0
1,69,72,28
1,57,65,4
1,73,75,48
1,61,61,16
1,76,80,32
1,65,56,8
1,69,66,4
1,64,62,0
1,62,59,180
1,61,54,148
1,77,72,4
1,60,52,4
1,74,69,44
1,59,47,36
1,58,57,88
1,69,67,8
1,57,48,24
1,71,68,12
1,56,49,28
1,72,76,20
1,55,46,16
1,48,43,12
1,74,72,4
1,53,54,8
1,70,71,20
1,62,45,8
1,68,45,12
1,46,44,4
1,72,67,4
1,51,50,0
1,67,54,4
1,61,45,16
1,68,66,4
1,60,45,12
1,44,48,8
1,66,32,20
1,70,64,16
1,49,50,12
1,66,59,16
1,42,45,12
1,58,39,0
1,64,30,8
1,57,36,20
1,68,65,4
1,47,42,12
1,40,46,84
1,64,62,8
1,56,48,4
1,45,42,4
1,66,61,0
1,38,39,44
1,62,53,12
1,64,57,24
1,43,41,12
1,53,45,12
1,60,57,216
1,36,44,0
1,58,53,8
1,52,46,0
1,60,65,16
1,54,62,4
1,45,59,0
1,62,64,0
1,60,58,0
1,54,56,8
1,63,60,4
1,44,42,8
1,31,37,596
1,53,50,48
1,57,39,36
1,59,54,16
1,64,59,32
1,67,71,212
1,79,71,68
1,79,44,244
1,91,54,72
1,67,76,16
1,68,61,60
1,69,66,36
1,70,57,12
1,71,59,92
1,52,55,24
1,36,46,8
1,55,57,260
1,64,54,8
1,60,56,0
1,33,54,64
1,49,42,0
1,70,73,196
1,64,53,36
1,55,46,4
1,61,45,4
1,58,47,4
1,69,64,0
1,64,59,96
1,54,43,0
1,67,61,84
1,38,47,4
1,53,31,24
1,41,51,344
1,57,58,4
1,48,46,8
1,58,51,232
1,42,26,20
1,59,61,52
1,43,44,4
1,53,36,16
1,57,20,16
1,53,45,160
1,59,31,12
1,70,70,12
1,71,66,36
1,72,61,36
1,73,53,68
1,74,63,44
1,75,51,28
1,76,78,0
1,47,45,24
1,62,59,484
1,56,46,12
1,52,51,4
1,75,74,136
1,74,72,24
1,45,59,32
1,60,48,0
1,52,35,12
1,72,69,12
1,59,32,12
1,74,71,56
1,45,27,16
1,76,56,8
1,55,33,12
1,72,50,12
1,71,54,68
1,38,47,0
1,54,42,4
1,55,62,40
1,40,50,0
1,41,40,196
1,56,66,28
1,42,52,64
1,57,56,8
1,41,53,16
1,56,58,8
1,40,48,192
1,55,63,4
1,79,72,0
1,76,80,144
1,72,52,4
1,71,52,188
1,33,33,88
1,70,55,8
1,81,57,28
1,55,55,216
1,58,56,0
1,64,56,4
1,61,54,0
1,54,49,256
1,38,47,32
1,53,59,4
1,79,66,240
1,78,70,64
1,77,59,0
1,74,75,12
1,69,48,76
1,68,67,28
1,43,50,116
1,76,68,16
1,59,43,4
1,53,35,8
1,53,45,52
1,71,59,20
1,62,35,0
1,59,48,0
1,75,59,4
1,67,38,4
1,76,60,72
1,72,53,12
1,67,46,0
1,36,44,28
1,43,46,4
1,52,42,0
1,55,49,16
1,64,61,8
1,60,50,4
1,45,44,328
1,47,48,20
1,55,54,36
1,61,57,28
1,68,80,184
1,69,71,4
1,70,71,80
1,68,54,4
1,54,51,76
1,60,47,8
1,64,51,4
1,69,63,4
1,72,65,120
1,69,59,52
1,72,61,24
1,76,59,36
1,64,39,44
1,53,48,8
1,79,74,8
1,67,50,16
1,59,35,8
1,55,61,28
1,76,72,32
1,79,69,48
1,76,69,84
1,51,49,36
1,72,64,60
1,36,43,32
1,71,67,4
1,52,61,0
1,55,43,20
1,64,45,0
1,60,50,8
1,71,61,256
1,49,46,64
1,33,48,16
1,71,55,8
1,69,54,8
1,37,51,200
1,52,57,24
1,54,47,256
1,81,67,8
1,42,24,12
1,38,39,32
1,53,50,12
1,45,46,16
1,79,72,0
1,67,52,32
1,57,64,184
1,48,57,12
1,41,38,8
1,42,55,196
1,58,60,4
1,59,59,80
1,43,45,4
1,53,43,16
1,61,64,188
1,53,43,4
1,46,54,4
1,62,55,44
1,47,35,4
1,76,72,20
1,88,72,0
1,56,40,0
1,52,38,16
1,87,66,52
1,75,55,8
1,88,68,28
1,76,60,4
1,87,66,152
1,75,60,0
1,88,60,24
1,76,64,4
1,45,51,84
1,60,52,0
1,86,67,8
1,74,66,12
1,52,38,0
1,82,57,0
1,72,61,84
1,84,56,4
1,74,66,84
1,86,71,8
1,88,70,80
1,76,69,0
1,55,50,168
1,72,70,0
1,84,54,8
1,71,66,84
1,78,50,12
1,83,53,0
1,38,44,8
1,54,51,4
1,81,66,116
1,69,61,8
1,78,50,4
1,72,47,16
1,38,51,4
1,42,63,28
1,57,61,0
1,51,52,12
1,51,58,8
1,57,53,4
1,54,54,0
1,60,61,0
1,55,58,4
1,60,57,8
1,64,55,8
1,67,53,240
1,68,57,64
1,69,62,24
1,72,67,128
1,76,65,0
1,79,72,4
1,55,46,44
1,83,74,4
1,81,68,36
1,65,64,176
1,61,64,0
1,57,58,4
1,54,48,176
1,38,48,24
1,53,53,0
1,48,47,8
1,79,65,8
1,72,57,8
1,69,52,0
1,77,64,56
1,72,53,60
1,69,53,92
1,31,45,72
1,76,65,12
1,71,23,28
