track,note,velocity,time
0,42,120,0
0,42,70,92
0,42,70,92
0,42,70,92
0,69,60,0
0,71,62,0
0,47,94,0
0,35,93,0
0,71,99,0
0,59,97,0
0,64,65,0
0,36,39,0
0,36,41,0
0,36,35,91
0,49,94,0
0,37,96,0
0,36,38,93
0,36,36,0
0,52,94,0
0,40,98,0
0,36,35,92
0,36,36,11
0,36,38,12
0,38,51,0
0,38,52,5
0,64,63,0
0,47,93,0
0,69,64,1
0,71,65,0
0,38,75,0
0,36,41,0
0,35,97,0
0,36,35,47
0,37,92,0
0,36,41,0
0,49,99,0
0,36,39,0
0,52,95,0
0,36,41,0
0,40,98,0
0,36,41,0
0,66,92,0
0,36,40,0
0,54,99,0
0,52,93,0
0,64,97,0
0,50,94,0
0,62,97,0
0,36,39,0
0,61,98,0
0,49,98,0
0,62,98,1
0,50,98,0
0,38,51,0
0,64,98,0
0,52,96,0
0,38,48,0
0,47,92,0
0,35,93,0
0,64,64,0
0,69,66,0
0,71,66,0
0,38,75,0
0,36,41,0
0,36,37,91
0,36,38,0
0,49,97,0
0,37,96,0
0,36,39,92
0,36,36,0
0,52,94,0
0,40,96,1
0,36,36,0
0,71,95,0
0,47,92,0
0,59,99,0
0,47,97,0
0,78,93,0
0,36,35,0
0,54,92,0
0,54,94,0
0,66,96,0
0,76,92,0
0,52,93,0
0,52,94,0
0,64,98,0
0,50,92,0
0,74,99,0
0,62,96,0
0,50,98,0
0,73,94,0
0,61,93,0
0,36,36,0
0,49,92,0
0,49,99,0
0,62,95,0
0,50,94,0
0,74,96,0
0,50,96,0
0,52,94,0
0,52,94,0
0,76,96,0
0,64,97,0
0,38,51,4
0,71,92,0
0,59,93,0
0,64,62,0
0,71,62,0
0,38,68,0
0,47,92,0
0,35,94,0
0,69,67,0
0,36,39,0
0,36,39,0
0,69,95,71
0,37,92,0
0,57,96,0
0,36,40,0
0,37,96,0
0,36,40,92
0,59,92,0
0,36,37,0
0,40,92,0
0,71,98,0
0,40,98,0
0,36,38,93
0,74,93,0
0,40,93,0
0,62,99,0
0,36,41,0
0,74,96,0
0,40,98,0
0,61,92,0
0,73,97,0
0,73,98,0
0,59,93,0
0,71,99,0
0,71,98,0
0,57,92,0
0,36,36,0
0,69,94,0
0,69,99,0
0,57,110,0
0,57,109,11
0,50,95,0
0,54,98,1
0,57,95,4
0,54,112,2
0,38,92,0
0,38,87,0
0,62,96,0
0,54,90,0
0,57,84,23
0,57,106,4
0,62,91,2
0,57,108,8
0,54,91,0
0,57,90,2
0,59,86,23
0,52,96,12
0,57,98,1
0,61,97,2
0,37,94,0
0,54,114,0
0,64,99,0
0,64,97,0
0,37,88,0
0,54,88,0
0,57,87,1
0,57,102,2
0,59,86,1
0,66,111,0
0,54,90,0
0,57,88,24
0,59,86,3
0,62,109,23
0,50,92,12
0,54,98,1
0,59,99,2
0,64,111,0
0,62,93,0
0,54,84,0
0,35,98,0
0,62,94,0
0,35,88,0
0,57,91,3
0,59,84,0
0,62,110,4
0,54,91,0
0,57,89,24
0,59,87,1
0,54,86,0
0,57,91,0
0,59,88,0
0,57,97,0
0,54,90,0
0,61,109,2
0,57,88,0
0,59,89,14
0,62,108,16
0,50,93,12
0,55,99,4
0,59,95,3
0,59,111,0
0,59,94,0
0,31,97,1
0,62,94,0
0,55,90,0
0,31,91,0
0,59,84,1
0,57,108,6
0,57,105,0
0,55,88,0
0,57,89,1
0,59,109,1
0,59,84,1
0,57,107,0
0,57,90,0
0,50,96,12
0,54,92,4
0,57,97,3
0,30,92,0
0,57,92,0
0,30,87,0
0,54,87,0
0,62,99,0
0,57,85,2
0,57,106,2
0,59,98,0
0,59,91,0
0,54,85,0
0,57,98,0
0,61,109,2
0,57,89,0
0,54,95,0
0,59,84,0
0,62,108,1
0,54,85,0
0,52,97,12
0,55,94,4
0,59,94,2
0,59,109,2
0,28,92,0
0,52,85,0
0,52,96,0
0,62,92,0
0,28,88,0
0,57,87,2
0,59,84,1
0,57,108,2
0,57,106,6
0,52,90,0
0,57,90,24
0,59,107,1
0,59,89,2
0,57,106,0
0,52,87,0
0,57,105,7
0,57,90,1
0,59,86,0
0,52,86,0
0,64,98,0
0,57,87,1
0,57,111,2
0,59,89,0
0,57,108,11
0,57,91,0
0,50,95,0
0,54,95,0
0,57,95,0
0,38,92,0
0,54,109,0
0,54,85,0
0,62,99,0
0,62,92,0
0,38,89,0
0,57,90,0
0,57,108,1
0,59,87,0
0,57,107,8
0,54,87,0
0,57,86,23
0,59,84,21
0,52,94,12
0,57,98,2
0,61,96,2
0,37,94,0
0,54,84,0
0,54,111,0
0,64,98,0
0,64,95,0
0,37,90,0
0,57,91,0
0,57,104,1
0,59,89,0
0,66,109,1
0,54,85,0
0,57,90,19
0,59,91,24
0,62,108,11
0,50,96,12
0,54,93,4
0,59,99,2
0,35,93,0
0,35,87,0
0,62,96,0
0,62,93,0
0,54,90,0
0,64,110,1
0,57,91,0
0,59,87,14
0,54,90,0
0,62,109,1
0,57,84,15
0,59,90,1
0,35,97,3
0,54,87,0
0,35,99,0
0,57,84,21
0,59,84,1
0,61,92,0
0,54,84,0
0,57,85,1
0,61,112,1
0,62,92,0
0,59,89,0
0,62,108,2
0,50,92,12
0,55,98,2
0,59,97,3
0,59,109,0
0,59,93,0
0,31,87,0
0,31,96,0
0,62,93,0
0,55,91,0
0,57,90,7
0,57,108,5
0,59,85,1
0,57,108,15
0,55,91,0
0,57,107,4
0,57,84,0
0,59,87,1
0,57,106,1
0,50,96,16
0,54,93,3
0,30,94,0
0,30,86,0
0,62,98,0
0,57,92,0
0,54,88,0
0,62,97,0
0,57,107,1
0,57,89,0
0,62,89,0
0,57,90,0
0,54,87,0
0,57,85,14
0,54,94,0
0,59,90,1
0,57,105,23
0,40,97,8
0,52,94,4
0,55,99,0
0,59,93,2
0,28,94,0
0,52,86,0
0,57,106,0
0,52,97,0
0,62,96,0
0,28,90,0
0,57,87,23
0,55,106,2
0,59,89,0
0,57,107,1
0,52,86,0
0,57,85,5
0,59,86,5
0,57,91,0
0,52,91,0
0,57,84,5
0,59,84,5
0,59,113,4
0,52,85,0
0,61,107,5
0,57,87,0
0,62,108,3
0,59,86,1
0,64,102,2
0,30,94,0
0,64,110,0
0,30,84,0
0,54,91,0
0,57,90,24
0,64,98,2
0,64,89,0
0,57,113,7
0,46,90,0
0,57,98,0
0,54,91,0
0,57,91,20
0,66,112,2
0,62,87,0
0,59,98,1
0,31,84,0
0,31,97,0
0,55,97,0
0,54,88,0
0,57,86,0
0,62,113,23
0,59,84,1
0,59,98,0
0,59,104,4
0,62,111,1
0,54,84,1
0,46,92,0
0,55,97,0
0,64,105,5
0,57,84,1
0,66,109,4
0,59,87,0
0,59,99,0
0,69,1,0
0,66,114,1
0,33,92,1
0,35,99,0
0,40,93,0
0,57,93,0
0,57,76,0
0,33,89,0
0,69,103,0
0,64,77,4
0,64,99,1
0,33,94,5
0,35,102,1
0,69,99,0
0,69,81,0
0,64,105,1
0,64,109,5
0,57,78,0
0,33,96,1
0,69,100,0
0,35,103,0
0,40,97,0
0,57,97,0
0,64,79,5
0,64,98,0
0,33,94,2
0,69,92,0
0,69,76,0
0,35,102,1
0,57,94,5
0,57,76,0
0,33,98,1
0,35,101,0
0,40,97,0
0,64,76,0
0,64,97,1
0,40,94,1
0,35,103,1
0,40,97,0
0,69,99,0
0,69,83,0
0,45,94,5
0,35,97,0
0,57,79,0
0,40,98,0
0,57,96,0
0,64,92,5
0,64,76,0
0,40,82,1
0,69,95,5
0,69,78,0
0,45,99,1
0,40,98,0
0,35,87,0
0,64,78,0
0,37,98,1
0,40,84,0
0,64,99,0
0,50,99,0
0,38,92,0
0,49,81,0
0,35,98,0
0,50,98,0
0,62,80,1
0,78,80,0
0,74,83,0
0,69,83,0
0,57,96,42
0,53,95,1
0,57,92,0
0,69,1,41
0,62,94,2
0,53,63,0
0,62,97,0
0,69,104,1
0,66,113,0
0,40,99,0
0,66,108,5
0,69,97,1
0,57,94,0
0,53,95,0
0,57,95,0
0,38,96,1
0,69,97,0
0,66,111,0
0,35,102,0
0,66,111,10
0,69,96,1
0,49,99,0
0,37,97,0
0,76,77,0
0,49,99,0
0,64,112,1
0,61,82,0
0,73,83,0
0,53,60,0
0,35,101,0
0,57,97,8
0,53,95,1
0,57,92,0
0,69,96,1
0,64,109,0
0,64,112,7
0,69,99,1
0,62,92,0
0,40,93,1
0,62,93,0
0,53,60,1
0,53,92,1
0,62,98,0
0,62,95,0
0,57,97,0
0,57,98,0
0,49,94,0
0,49,96,1
0,28,92,0
0,49,83,0
0,52,82,0
0,67,82,0
0,71,82,0
0,74,83,0
0,35,102,0
0,47,99,42
0,47,95,1
0,53,93,1
0,62,97,42
0,62,96,1
0,64,113,1
0,53,61,0
0,40,99,0
0,64,110,10
0,59,95,7
0,59,96,1
0,64,106,1
0,53,93,0
0,35,102,0
0,64,110,0
0,62,98,0
0,62,97,0
0,69,109,1
0,35,97,6
0,53,63,0
0,35,99,12
0,47,97,0
0,28,92,0
0,47,97,0
0,67,106,1
0,53,94,0
0,66,109,6
0,59,95,0
0,69,79,0
0,59,92,0
0,62,96,0
0,57,83,0
0,53,62,0
0,40,99,0
0,62,95,0
0,64,108,20
0,40,96,0
0,40,98,0
0,62,109,1
0,53,93,0
0,42,97,0
0,42,96,0
0,30,99,0
0,43,93,0
0,31,95,0
0,67,77,0
0,62,77,0
0,35,99,0
0,43,99,0
0,64,107,0
0,71,82,0
0,57,82,0
0,59,113,20
0,47,97,19
0,47,92,1
0,53,94,0
0,62,114,20
0,62,97,22
0,62,97,1
0,67,98,0
0,53,61,0
0,40,98,0
0,67,96,0
0,62,114,0
0,57,111,40
0,53,92,0
0,35,103,0
0,57,109,10
0,66,115,0
0,66,82,0
0,69,81,0
0,53,62,0
0,35,101,0
0,64,106,39
0,53,94,0
0,62,111,2
0,69,77,0
0,40,93,0
0,33,97,0
0,62,115,0
0,73,81,0
0,64,81,0
0,53,61,0
0,57,106,3
0,57,94,0
0,35,97,0
0,57,93,0
0,64,113,0
0,53,92,0
0,55,99,0
0,55,97,0
0,54,94,0
0,35,99,0
0,49,80,0
0,54,97,0
0,26,99,1
0,62,109,0
0,74,82,0
0,69,80,0
0,66,81,0
0,57,95,8
0,57,98,1
0,53,94,1
0,66,115,22
0,62,94,10
0,40,93,1
0,62,96,0
0,53,62,1
0,66,115,1
0,66,114,13
0,57,98,0
0,38,95,0
0,66,115,0
0,57,92,0
0,35,100,1
0,53,94,0
0,66,115,13
0,66,113,0
0,49,93,0
0,35,97,0
0,49,92,0
0,37,98,1
0,73,80,0
0,64,83,0
0,69,81,0
0,53,60,0
0,64,113,3
0,57,98,0
0,57,94,1
0,53,93,1
0,64,111,9
0,62,92,0
0,64,92,0
0,69,92,0
0,61,92,0
0,40,93,0
0,62,96,0
0,53,60,1
0,69,92,2
0,61,92,0
0,64,92,0
0,69,92,2
0,61,92,0
0,64,92,0
0,37,93,0
0,53,94,1
0,61,92,2
0,69,90,0
0,64,90,0
0,57,80,0
0,47,99,0
0,64,93,0
0,67,93,0
0,71,93,0
0,28,92,0
0,67,77,0
0,64,78,0
0,35,97,0
0,47,92,0
0,71,80,0
0,50,95,16
0,50,94,1
0,53,93,1
0,64,113,19
0,64,113,13
0,62,98,0
0,62,99,1
0,53,61,1
0,40,97,0
0,64,113,11
0,64,111,12
0,59,98,0
0,59,94,1
0,53,93,1
0,35,102,0
0,64,109,0
0,62,96,0
0,62,98,0
0,69,109,3
0,53,62,1
0,35,101,0
0,67,108,0
0,47,94,0
0,47,96,0
0,53,94,0
0,66,112,9
0,59,99,3
0,40,95,0
0,59,94,0
0,62,95,0
0,53,60,0
0,62,95,0
0,64,109,11
0,40,94,0
0,40,93,0
0,40,77,0
0,52,78,0
0,30,98,0
0,53,94,0
0,62,113,2
0,42,94,0
0,42,96,0
0,42,77,0
0,54,78,0
0,43,94,0
0,31,92,0
0,35,99,0
0,43,92,0
0,64,109,0
0,62,82,0
0,49,84,0
0,59,111,3
0,47,94,0
0,53,95,1
0,47,99,0
0,62,113,20
0,62,96,23
0,53,63,1
0,62,92,0
0,67,92,0
0,62,114,1
0,40,99,0
0,67,96,0
0,57,112,11
0,35,99,0
0,31,98,1
0,53,93,0
0,57,109,9
0,69,1,2
0,66,115,0
0,69,79,0
0,31,99,0
0,69,104,0
0,66,83,0
0,35,100,0
0,53,60,0
0,67,1,0
0,43,92,0
0,64,107,0
0,53,95,0
0,43,94,0
0,67,94,2
0,62,114,3
0,67,95,4
0,62,112,0
0,45,98,0
0,33,95,0
0,53,63,0
0,45,95,0
0,52,92,0
0,64,82,0
0,69,82,0
0,73,83,0
0,40,97,0
0,52,92,0
0,67,96,1
0,57,92,0
0,57,98,0
0,57,108,4
0,67,93,2
0,64,110,2
0,35,97,0
0,67,96,1
0,53,92,0
0,50,99,0
0,54,93,4
0,66,1,0
0,57,99,0
0,50,99,0
0,38,95,0
0,50,99,0
0,53,61,0
0,35,101,0
0,62,96,0
0,66,93,0
0,54,98,20
0,66,98,0
0,57,92,22
0,53,95,1
0,57,92,0
0,62,95,10
0,62,95,1
0,40,96,0
0,53,60,0
0,57,97,0
0,52,92,0
0,57,96,0
0,38,98,1
0,64,97,0
0,53,94,0
0,35,101,0
0,50,95,0
0,62,98,0
0,49,94,1
0,52,98,4
0,57,97,4
0,49,99,0
0,53,63,0
0,49,99,0
0,37,99,0
0,49,96,0
0,61,96,0
0,35,103,0
0,61,94,0
0,57,93,42
0,50,95,0
0,53,95,0
0,57,93,0
0,62,99,1
0,62,95,43
0,40,94,1
0,53,63,0
0,62,97,0
0,57,98,0
0,64,94,0
0,57,99,0
0,37,99,0
0,52,98,0
0,53,93,0
0,62,95,0
0,62,93,0
0,40,99,2
0,52,97,0
0,55,94,4
0,59,97,2
0,40,99,0
0,28,93,0
0,59,92,0
0,47,95,0
0,49,82,0
0,57,81,0
0,40,98,0
0,35,100,0
0,64,93,0
0,43,93,42
0,43,92,1
0,62,95,47
0,62,93,1
0,64,95,47
0,64,97,1
0,57,108,1
0,57,107,5
0,50,93,0
0,54,99,0
0,57,99,3
0,38,94,0
0,54,112,0
0,35,97,0
0,57,82,1
0,62,95,0
0,54,88,0
0,38,91,0
0,57,89,20
0,57,110,12
0,42,59,0
0,59,88,1
0,57,108,8
0,40,95,0
0,54,84,0
0,42,76,1
0,57,91,20
0,59,87,18
0,42,60,1
0,35,101,0
0,52,98,12
0,57,96,4
0,61,97,2
0,37,93,0
0,35,98,0
0,54,112,0
0,42,77,0
0,64,98,0
0,54,88,0
0,37,89,0
0,57,84,19
0,57,105,15
0,42,58,1
0,59,89,1
0,69,1,2
0,54,85,0
0,69,99,0
0,66,111,0
0,42,76,0
0,40,97,0
0,57,91,7
0,42,59,23
0,59,90,0
0,62,113,15
0,66,101,0
0,66,1,0
0,50,96,12
0,54,98,4
0,59,97,2
0,42,72,0
0,35,98,0
0,35,85,0
0,35,99,0
0,62,99,0
0,54,88,0
0,67,1,0
0,64,109,2
0,67,97,1
0,57,90,0
0,42,57,17
0,59,90,1
0,66,1,0
0,62,113,0
0,66,97,1
0,40,93,0
0,42,72,0
0,54,87,0
0,57,84,20
0,35,97,1
0,59,84,0
0,42,62,1
0,30,92,2
0,42,72,3
0,35,98,0
0,23,97,0
0,54,90,0
0,30,95,0
0,57,86,0
0,23,93,24
0,42,58,0
0,59,86,0
0,42,74,43
0,54,87,0
0,40,99,0
0,57,90,20
0,61,114,4
0,42,58,0
0,59,89,0
0,62,108,3
0,50,95,12
0,55,92,4
0,59,92,2
0,42,74,2
0,59,113,0
0,31,84,0
0,31,98,0
0,35,101,0
0,62,96,0
0,55,91,0
0,57,87,4
0,57,106,4
0,42,60,1
0,59,88,0
0,42,74,13
0,57,108,0
0,40,94,0
0,55,87,0
0,57,89,21
0,57,108,17
0,59,85,1
0,35,100,1
