track,note,velocity,time
3,57,100,12096
3,57,100,4
3,54,100,4
3,57,100,4
3,59,100,4
3,54,100,8
3,57,100,4
3,66,100,4
3,62,100,4
3,64,100,4
3,62,100,4
3,62,100,324
3,62,100,4
3,59,100,4
3,57,100,4
3,57,100,4
3,55,100,4
3,57,100,4
3,57,100,4
3,62,100,8
3,62,100,4
3,59,100,4
3,57,100,4
3,57,100,4
3,55,100,8
3,57,100,4
3,59,100,4
3,57,100,196
3,57,100,4
3,54,100,4
3,57,100,4
3,59,100,4
3,54,100,8
3,57,100,4
3,66,100,4
3,62,100,4
3,64,100,4
3,62,100,36
3,62,100,484
3,62,100,4
3,59,100,4
3,57,100,4
3,57,100,4
3,57,100,4
3,57,100,4
3,59,100,4
3,57,100,292
3,57,100,4
3,55,100,4
3,59,100,4
3,59,100,772
3,61,100,4
3,62,100,4
3,64,100,4
3,64,100,4
3,57,100,4
3,66,100,4
3,62,100,8
3,59,100,4
3,62,100,4
3,64,100,4
3,66,100,4
3,66,100,4
3,64,100,4
3,64,100,4
3,66,100,388
3,66,100,4
3,66,100,4
3,66,100,4
3,64,100,8
3,64,100,4
3,64,100,392
3,64,100,4
3,64,100,4
3,69,100,4
3,67,100,8
3,66,100,4
3,64,100,8
3,62,100,4
3,64,100,4
3,59,100,4
3,62,100,4
3,59,100,4
3,57,100,4
3,59,100,4
3,66,100,4
3,64,100,4
3,62,100,4
3,62,100,4
3,57,100,4
3,64,100,4
3,62,100,4
3,57,100,4
3,66,100,4
3,66,100,4
3,66,100,4
3,66,100,4
3,66,100,4
3,64,100,4
3,64,100,4
3,64,100,200
3,64,100,4
3,64,100,4
3,64,100,4
3,64,100,4
3,69,100,4
3,67,100,4
3,66,100,4
3,64,100,4
3,66,100,4
3,64,100,4
3,62,100,4
3,59,100,4
3,62,100,4
3,59,100,4
3,57,100,160
3,59,100,36
3,66,100,4
3,64,100,4
3,62,100,4
3,62,100,4
3,57,100,4
3,64,100,4
3,62,100,4
3,57,100,2116
3,57,100,4
3,54,100,4
3,57,100,4
3,59,100,4
3,54,100,8
3,57,100,4
3,66,100,4
3,62,100,8
3,64,100,4
3,62,100,160
3,62,100,548
3,62,100,4
3,59,100,4
3,57,100,4
3,57,100,4
3,54,100,4
3,57,100,4
3,54,100,68
3,62,100,68
3,62,100,4
3,59,100,4
3,57,100,4
3,57,100,4
3,57,100,36
3,66,100,256
3,64,100,4
3,64,100,196
3,62,100,4
3,64,100,4
3,62,100,4
3,62,100,4
3,62,100,4
3,64,100,4
3,62,100,4
3,67,100,4
3,69,100,4
3,66,100,4
3,64,100,4
3,62,100,64
3,59,100,424
3,61,100,4
3,62,100,4
3,64,100,4
3,64,100,4
3,69,100,4
3,66,100,4
3,62,100,4
3,59,100,4
3,62,100,4
3,64,100,4
3,66,100,4
3,66,100,4
3,64,100,4
3,64,100,36
3,62,100,256
3,66,100,4
3,64,100,4
3,62,100,4
3,66,100,4
3,64,100,4
3,62,100,4
3,66,100,388
3,66,100,4
3,66,100,4
3,66,100,4
3,64,100,8
3,64,100,4
3,64,100,392
3,64,100,4
3,64,100,4
3,69,100,4
3,67,100,8
3,66,100,4
3,64,100,8
3,62,100,4
3,64,100,4
3,59,100,4
3,62,100,4
3,59,100,4
3,57,100,4
3,59,100,4
3,66,100,4
3,64,100,4
3,62,100,4
3,62,100,4
3,57,100,4
3,64,100,4
3,62,100,4
3,57,100,4
3,66,100,4
3,66,100,4
3,66,100,4
3,66,100,4
3,66,100,4
3,64,100,4
3,64,100,4
3,64,100,200
3,64,100,4
3,64,100,4
3,64,100,4
3,64,100,4
3,69,100,4
3,67,100,4
3,66,100,4
3,64,100,4
3,66,100,4
3,64,100,4
3,62,100,4
3,59,100,4
3,62,100,4
3,59,100,4
3,57,100,160
3,59,100,36
3,66,100,4
3,64,100,4
3,62,100,4
3,62,100,4
3,57,100,4
3,64,100,4
3,62,100,4
3,62,100,8
3,62,100,8
3,62,100,8
3,62,100,8
3,64,100,8
3,64,100,4
3,64,100,4
3,62,100,4
3,60,100,4
3,64,100,4
3,64,100,4
3,64,100,4
3,62,100,4
3,62,100,4
3,64,100,4
3,62,100,4
3,62,100,388
3,62,100,4
3,62,100,4
3,60,100,4
3,62,100,4
3,60,100,4
3,62,100,4
3,64,100,4
3,65,100,36
3,64,100,256
3,62,100,4
3,60,100,8
3,60,100,4
3,60,100,4
3,65,100,388
3,65,100,4
3,65,100,4
3,65,100,4
3,65,100,4
3,64,100,4
3,64,100,4
3,64,100,36
3,62,100,160
3,60,100,4
3,64,100,4
3,67,100,4
3,67,100,4
3,64,100,4
3,67,100,4
3,64,100,4
3,69,100,4
3,67,100,8
3,62,100,132
3,64,100,4
3,65,100,4
3,65,100,36
3,67,100,256
3,65,100,4
3,65,100,4
3,64,100,4
3,62,100,4
3,60,100,4
3,62,100,4
3,64,100,4
3,64,100,4
3,64,100,4
3,64,100,4
3,69,100,8
3,69,100,4
3,69,100,4
3,69,100,4
3,66,100,392
3,66,100,4
3,66,100,4
3,66,100,4
3,64,100,8
3,64,100,4
3,64,100,392
3,64,100,4
3,64,100,4
3,69,100,4
3,67,100,8
3,66,100,4
3,64,100,8
3,62,100,4
3,64,100,4
3,59,100,4
3,62,100,4
3,59,100,4
3,57,100,4
3,59,100,4
3,66,100,4
3,64,100,4
3,62,100,4
3,62,100,4
3,57,100,4
3,64,100,4
3,62,100,4
3,57,100,4
3,66,100,4
3,66,100,4
3,66,100,4
3,66,100,4
3,66,100,4
3,64,100,4
3,64,100,4
3,64,100,296
3,64,100,4
3,64,100,4
3,64,100,4
3,64,100,4
3,69,100,4
3,67,100,4
3,66,100,4
3,64,100,4
3,66,100,4
3,64,100,4
3,62,100,4
3,59,100,4
3,62,100,4
3,59,100,4
3,57,100,4
3,59,100,4
3,66,100,4
3,64,100,4
3,62,100,4
3,62,100,4
3,57,100,4
3,64,100,4
3,62,100,4
3,69,100,4
3,69,100,4
3,69,100,4
3,69,100,4
3,66,100,8
3,71,100,4
3,69,100,392
3,69,100,4
3,69,100,4
3,69,100,4
3,67,100,8
3,66,100,4
3,64,100,8
3,62,100,4
3,64,100,4
3,59,100,4
3,62,100,4
3,59,100,4
3,57,100,4
3,59,100,4
3,66,100,4
3,64,100,4
3,62,100,4
3,62,100,4
3,57,100,4
3,64,100,4
3,62,100,4
3,57,100,4
3,66,100,4
3,66,100,4
3,66,100,4
3,66,100,4
3,66,100,4
3,64,100,4
3,64,100,4
3,64,100,296
3,64,100,4
3,64,100,4
3,64,100,4
3,64,100,4
3,69,100,4
3,67,100,4
3,66,100,4
3,64,100,4
3,66,100,4
3,64,100,4
3,62,100,4
3,59,100,4
3,62,100,4
3,59,100,4
3,57,100,4
3,59,100,4
3,66,100,4
3,64,100,4
3,62,100,4
3,62,100,4
3,57,100,4
3,64,100,4
3,62,100,4
4,62,100,12288
4,66,100,0
4,69,100,4
4,62,100,4
4,66,100,0
4,71,100,0
4,61,100,8
4,66,100,0
4,69,100,4
4,69,100,4
4,73,100,0
4,78,100,0
4,74,100,4
4,66,100,4
4,69,100,0
4,76,100,0
4,74,100,4
4,66,100,8
4,69,100,4
4,71,100,4
4,71,100,8
4,71,100,4
4,62,100,4
4,67,100,0
4,71,100,0
4,69,100,4
4,62,100,4
4,69,100,0
4,67,100,4
4,62,100,4
4,66,100,0
4,69,100,0
4,69,100,4
4,74,100,8
4,74,100,4
4,62,100,4
4,67,100,0
4,71,100,0
4,69,100,4
4,69,100,4
4,67,100,8
4,62,100,4
4,69,100,0
4,71,100,4
4,69,100,196
4,69,100,4
4,62,100,4
4,66,100,0
4,69,100,4
4,62,100,4
4,66,100,0
4,71,100,0
4,61,100,8
4,66,100,0
4,69,100,4
4,69,100,4
4,73,100,0
4,78,100,0
4,74,100,4
4,66,100,4
4,69,100,0
4,76,100,0
4,74,100,4
4,66,100,4
4,69,100,4
4,71,100,4
4,66,100,4
4,69,100,4
4,71,100,4
4,74,100,8
4,74,100,4
4,71,100,4
4,62,100,0
4,67,100,0
4,69,100,4
4,69,100,4
4,69,100,4
4,69,100,4
4,62,100,0
4,66,100,0
4,71,100,4
4,69,100,292
4,62,100,4
4,64,100,0
4,69,100,0
4,67,100,4
4,71,100,4
4,64,100,4
4,69,100,4
4,71,100,4
4,64,100,4
4,69,100,4
4,71,100,4
4,71,100,4
4,73,100,4
4,74,100,4
4,76,100,4
4,69,100,4
4,73,100,0
4,76,100,0
4,66,100,32
4,69,100,4
4,67,100,4
4,71,100,0
4,74,100,0
4,78,100,0
4,74,100,4
4,71,100,4
4,74,100,4
4,76,100,4
4,78,100,4
4,69,100,4
4,74,100,0
4,78,100,0
4,76,100,4
4,69,100,4
4,74,100,0
4,76,100,0
4,69,100,4
4,74,100,0
4,76,100,0
4,69,100,4
4,74,100,0
4,76,100,0
4,69,100,4
4,74,100,0
4,76,100,0
4,69,100,4
4,74,100,0
4,76,100,0
4,69,100,64
4,74,100,4
4,76,100,0
4,69,100,4
4,74,100,0
4,76,100,0
4,69,100,4
4,74,100,0
4,78,100,0
4,78,100,4
4,78,100,4
4,78,100,4
4,69,100,4
4,74,100,0
4,78,100,0
4,76,100,4
4,73,100,64
4,69,100,4
4,76,100,0
4,67,100,8
4,71,100,0
4,74,100,0
4,76,100,4
4,76,100,4
4,76,100,4
4,74,100,64
4,71,100,4
4,81,100,0
4,79,100,4
4,71,100,64
4,74,100,0
4,78,100,4
4,76,100,8
4,74,100,4
4,67,100,4
4,71,100,0
4,76,100,0
4,71,100,4
4,74,100,4
4,67,100,4
4,71,100,0
4,69,100,4
4,71,100,4
4,67,100,4
4,71,100,0
4,78,100,0
4,76,100,4
4,74,100,4
4,74,100,4
4,69,100,4
4,69,100,4
4,73,100,0
4,76,100,0
4,66,100,4
4,69,100,0
4,74,100,0
4,69,100,4
4,78,100,4
4,78,100,4
4,78,100,4
4,78,100,4
4,69,100,4
4,73,100,0
4,78,100,0
4,76,100,4
4,69,100,64
4,73,100,0
4,76,100,4
4,67,100,8
4,71,100,0
4,74,100,0
4,76,100,4
4,76,100,4
4,76,100,4
4,76,100,4
4,76,100,4
4,71,100,4
4,74,100,0
4,81,100,0
4,79,100,4
4,78,100,4
4,71,100,4
4,76,100,0
4,78,100,4
4,76,100,4
4,67,100,4
4,71,100,0
4,74,100,0
4,71,100,4
4,74,100,4
4,67,100,4
4,71,100,0
4,69,100,160
4,71,100,36
4,67,100,4
4,71,100,0
4,78,100,0
4,76,100,4
4,74,100,4
4,74,100,4
4,69,100,4
4,69,100,4
4,73,100,0
4,76,100,0
4,69,100,2884
4,69,100,4
4,66,100,4
4,69,100,192
4,62,100,4
4,66,100,0
4,71,100,0
4,66,100,8
4,69,100,4
4,69,100,160
4,73,100,0
4,78,100,4
4,74,100,8
4,66,100,4
4,69,100,0
4,76,100,0
4,74,100,160
4,66,100,36
4,69,100,4
4,71,100,4
4,74,100,8
4,74,100,4
4,62,100,4
4,67,100,0
4,71,100,0
4,69,100,4
4,69,100,4
4,66,100,4
4,62,100,4
4,69,100,0
4,66,100,68
4,74,100,68
4,74,100,4
4,62,100,4
4,67,100,0
4,71,100,0
4,69,100,4
4,62,100,4
4,69,100,0
4,69,100,36
4,67,100,256
4,71,100,0
4,78,100,0
4,76,100,132
4,76,100,36
4,74,100,4
4,76,100,4
4,66,100,0
4,69,100,0
4,74,100,4
4,74,100,4
4,74,100,4
4,69,100,4
4,73,100,0
4,76,100,0
4,74,100,4
4,73,100,4
4,76,100,0
4,79,100,0
4,81,100,4
4,69,100,4
4,74,100,0
4,78,100,0
4,76,100,4
4,74,100,64
4,66,100,40
4,69,100,4
4,71,100,4
4,71,100,4
4,73,100,4
4,74,100,4
4,76,100,4
4,69,100,4
4,73,100,0
4,76,100,0
4,81,100,4
4,71,100,160
4,74,100,4
4,78,100,0
4,74,100,4
4,71,100,4
4,74,100,4
4,76,100,4
4,78,100,4
4,69,100,4
4,74,100,0
4,78,100,0
4,76,100,4
4,74,100,160
4,69,100,4
4,76,100,32
4,74,100,4
4,69,100,4
4,74,100,0
4,78,100,0
4,76,100,4
4,74,100,4
4,74,100,64
4,69,100,4
4,78,100,0
4,76,100,4
4,74,100,4
4,69,100,4
4,74,100,0
4,78,100,0
4,78,100,4
4,78,100,4
4,78,100,4
4,69,100,4
4,74,100,0
4,78,100,0
4,76,100,4
4,73,100,64
4,69,100,4
4,76,100,0
4,67,100,8
4,71,100,0
4,74,100,0
4,76,100,4
4,76,100,4
4,76,100,4
4,74,100,64
4,71,100,4
4,81,100,0
4,79,100,4
4,71,100,64
4,74,100,0
4,78,100,4
4,76,100,8
4,74,100,4
4,67,100,4
4,71,100,0
4,76,100,0
4,71,100,4
4,74,100,4
4,67,100,4
4,71,100,0
4,69,100,4
4,71,100,4
4,67,100,4
4,71,100,0
4,78,100,0
4,76,100,4
4,74,100,4
4,74,100,4
4,69,100,4
4,69,100,4
4,73,100,0
4,76,100,0
4,66,100,4
4,69,100,0
4,74,100,0
4,69,100,4
4,78,100,4
4,78,100,4
4,78,100,4
4,78,100,4
4,69,100,4
4,73,100,0
4,78,100,0
4,76,100,4
4,69,100,64
4,73,100,0
4,76,100,4
4,67,100,8
4,71,100,0
4,74,100,0
4,76,100,4
4,76,100,4
4,76,100,4
4,76,100,4
4,76,100,4
4,71,100,4
4,74,100,0
4,81,100,0
4,79,100,4
4,78,100,4
4,71,100,4
4,76,100,0
4,78,100,4
4,76,100,4
4,67,100,4
4,71,100,0
4,74,100,0
4,71,100,4
4,74,100,4
4,67,100,4
4,71,100,0
4,69,100,160
4,71,100,36
4,67,100,4
4,71,100,0
4,78,100,0
4,76,100,4
4,74,100,4
4,74,100,4
4,69,100,4
4,69,100,4
4,76,100,0
4,66,100,4
4,69,100,0
4,74,100,0
4,66,100,0
4,69,100,0
4,74,100,0
4,74,100,16
4,74,100,16
4,74,100,16
4,76,100,16
4,67,100,0
4,72,100,0
4,76,100,4
4,76,100,4
4,74,100,4
4,72,100,4
4,67,100,4
4,72,100,0
4,76,100,0
4,76,100,4
4,76,100,4
4,74,100,4
4,74,100,4
4,76,100,4
4,67,100,160
4,74,100,4
4,71,100,0
4,71,100,4
4,67,100,4
4,74,100,0
4,74,100,4
4,74,100,4
4,72,100,4
4,65,100,4
4,70,100,0
4,74,100,0
4,72,100,4
4,74,100,4
4,76,100,4
4,70,100,4
4,74,100,0
4,77,100,32
4,76,100,4
4,74,100,4
4,72,100,8
4,65,100,0
4,69,100,0
4,72,100,4
4,72,100,4
4,65,100,4
4,69,100,0
4,72,100,0
4,69,100,4
4,72,100,0
4,77,100,0
4,77,100,4
4,77,100,4
4,77,100,4
4,77,100,4
4,67,100,0
4,72,100,0
4,76,100,4
4,76,100,4
4,76,100,36
4,74,100,160
4,72,100,4
4,72,100,4
4,76,100,0
4,79,100,4
4,79,100,4
4,76,100,4
4,71,100,4
4,74,100,0
4,79,100,0
4,76,100,4
4,81,100,4
4,71,100,8
4,74,100,0
4,79,100,0
4,74,100,132
4,76,100,4
4,77,100,4
4,69,100,0
4,72,100,0
4,77,100,36
4,79,100,256
4,77,100,4
4,77,100,4
4,76,100,4
4,74,100,4
4,72,100,4
4,74,100,4
4,76,100,4
4,71,100,4
4,74,100,0
4,76,100,0
4,76,100,4
4,76,100,4
4,69,100,0
4,74,100,0
4,69,100,8
4,74,100,0
4,76,100,0
4,69,100,4
4,74,100,0
4,76,100,0
4,69,100,160
4,74,100,4
4,76,100,0
4,69,100,4
4,74,100,0
4,76,100,0
4,73,100,4
4,76,100,0
4,81,100,0
4,73,100,4
4,76,100,0
4,81,100,0
4,73,100,4
4,76,100,0
4,81,100,0
4,73,100,4
4,76,100,0
4,81,100,0
4,73,100,4
4,76,100,0
4,69,100,4
4,74,100,0
4,78,100,0
4,78,100,4
4,78,100,4
4,78,100,4
4,78,100,4
4,69,100,0
4,73,100,0
4,76,100,8
4,76,100,4
