track,note,velocity,time
1,57,41,0
1,64,41,80
1,69,41,80
1,71,41,120
1,73,41,40
1,76,41,0
1,71,41,80
1,69,41,80
1,57,41,80
1,61,41,80
1,66,41,80
1,71,41,120
1,76,41,40
1,73,41,0
1,71,41,80
1,69,41,80
1,62,41,80
1,69,41,80
1,74,41,80
1,76,41,120
1,78,41,40
1,76,41,80
1,69,41,80
1,62,41,80
1,69,41,80
1,74,41,80
1,76,41,120
1,77,41,40
1,76,41,80
1,74,41,80
1,57,41,80
1,64,41,80
1,69,41,80
1,71,41,120
1,73,41,40
1,76,41,0
1,71,41,80
1,69,41,80
1,57,41,80
1,61,41,80
1,66,41,80
1,71,41,120
1,76,41,40
1,73,41,0
1,71,41,80
1,69,41,80
1,62,41,80
1,69,41,80
1,74,41,80
1,76,41,120
1,78,41,40
1,76,41,80
1,69,41,80
1,62,41,80
1,69,41,80
1,74,41,80
1,76,41,120
1,77,41,40
1,76,41,80
1,74,41,80
1,57,41,80
1,64,41,80
1,69,41,80
1,72,41,120
1,73,41,40
1,69,41,80
1,64,41,80
1,62,41,80
1,69,41,80
1,74,41,80
1,77,41,120
1,78,41,40
1,74,41,80
1,69,41,80
1,66,67,80
1,73,67,80
1,78,67,80
1,80,67,120
1,81,67,40
1,78,67,80
1,73,67,80
1,62,67,80
1,69,67,80
1,74,67,80
1,77,67,120
1,78,67,40
1,74,67,80
1,69,67,80
1,57,67,80
1,64,67,80
1,69,67,80
1,72,67,120
1,73,67,40
1,69,67,80
1,64,67,80
1,62,67,80
1,69,67,80
1,74,67,80
1,77,67,120
1,78,67,40
1,74,67,80
1,69,67,80
1,66,67,80
1,73,67,80
1,78,67,80
1,80,67,120
1,81,67,40
1,78,67,80
1,73,67,80
1,62,67,80
1,69,67,80
1,74,67,80
1,77,67,120
1,78,67,40
1,74,67,80
1,69,67,80
1,52,67,80
1,59,67,80
1,64,67,80
1,67,67,120
1,68,67,40
1,71,67,0
1,64,67,80
1,59,67,80
1,54,67,80
1,61,67,80
1,66,67,80
1,71,67,120
1,76,67,40
1,73,67,0
1,71,67,80
1,69,67,80
1,74,67,80
1,67,67,0
1,74,67,240
1,67,67,0
1,74,67,160
1,67,67,0
1,74,67,80
1,69,67,0
1,74,67,80
1,69,67,0
1,74,67,80
1,69,67,0
1,69,67,80
1,74,67,0
1,74,67,160
1,69,67,0
1,52,49,80
1,59,49,80
1,64,49,80
1,67,49,120
1,68,49,40
1,71,49,0
1,64,49,80
1,59,49,80
1,54,49,80
1,61,49,80
1,66,49,80
1,71,49,120
1,73,49,40
1,76,49,0
1,71,49,80
1,69,49,80
1,79,49,80
1,74,49,0
1,79,49,240
1,74,49,0
1,79,49,80
1,74,49,0
1,79,49,80
1,74,49,0
1,78,49,80
1,74,49,80
1,69,49,80
1,80,49,80
1,76,49,80
1,71,49,80
1,57,41,80
1,64,41,80
1,69,41,80
1,71,41,120
1,73,41,40
1,76,41,0
1,71,41,80
1,69,41,80
1,57,41,80
1,61,41,80
1,66,41,80
1,71,41,120
1,76,41,40
1,73,41,0
1,71,41,80
1,69,41,80
1,62,41,80
1,69,41,80
1,74,41,80
1,76,41,120
1,78,41,40
1,76,41,80
1,69,41,80
1,62,41,80
1,69,41,80
1,74,41,80
1,76,41,120
1,77,41,40
1,76,41,80
1,74,41,80
1,57,41,80
1,64,41,80
1,69,41,80
1,71,41,120
1,73,41,40
1,76,41,0
1,71,41,80
1,69,41,80
1,57,41,80
1,61,41,80
1,66,41,80
1,71,41,120
1,76,41,40
1,73,41,0
1,71,41,80
1,69,41,80
1,62,67,80
1,64,67,480
1,81,49,1200
1,76,49,0
1,73,49,0
1,78,49,960
1,73,49,0
1,69,49,0
1,62,49,960
1,62,49,80
1,62,49,40
1,62,49,40
1,74,49,40
1,78,49,0
1,77,49,40
1,81,49,0
1,62,49,0
1,86,49,240
1,81,49,80
1,77,49,80
1,59,67,80
1,66,67,80
1,71,67,80
1,74,67,80
1,71,67,80
1,66,67,80
1,52,67,80
1,59,67,80
1,64,67,80
1,67,67,120
1,68,67,40
1,71,67,0
1,64,67,80
1,59,67,80
1,61,67,80
1,61,67,80
1,68,67,0
1,73,67,0
1,61,67,80
1,68,67,0
1,73,67,0
1,77,67,80
1,73,67,80
1,68,67,80
1,81,67,80
1,78,67,0
1,73,67,0
1,66,67,0
1,64,67,240
1,71,67,0
1,76,67,0
1,80,67,0
1,74,67,240
1,69,67,0
1,62,67,0
1,62,67,480
1,69,67,120
1,74,67,120
1,77,67,120
1,81,67,120
1,85,67,360
1,85,67,40
1,85,67,40
1,85,67,40
1,85,67,40
1,85,67,40
1,85,67,40
1,85,67,40
1,86,67,40
1,86,67,40
1,88,67,40
1,88,67,40
1,90,67,40
1,90,67,40
1,90,67,40
1,90,67,40
1,90,67,40
1,90,67,40
1,90,67,40
1,90,67,40
1,88,67,40
1,88,67,40
1,86,67,40
1,86,67,40
1,85,67,40
1,85,67,40
1,85,67,40
1,85,67,40
1,85,67,40
1,85,67,40
1,81,67,40
1,81,67,40
1,81,67,40
1,81,67,40
1,81,67,40
1,81,67,40
1,74,67,40
1,74,67,40
1,74,67,40
1,74,67,40
1,74,67,40
1,74,67,40
1,74,67,40
1,74,67,40
1,74,67,40
1,74,67,40
1,74,67,40
1,74,67,40
1,88,67,40
1,88,67,40
1,88,67,40
1,88,67,40
1,88,67,40
1,88,67,40
1,88,67,40
1,88,67,40
1,88,67,40
1,88,67,40
1,88,67,0
1,88,67,0
1,90,67,40
1,90,67,0
1,86,67,0
1,90,67,40
1,86,67,0
1,92,67,40
1,88,67,0
1,92,67,40
1,88,67,0
1,93,67,40
1,93,67,40
1,93,67,40
1,93,67,40
1,93,67,40
1,93,67,0
1,93,67,40
1,95,67,40
1,95,67,40
1,97,67,40
1,97,67,40
1,97,67,40
1,97,67,40
1,97,67,40
1,97,67,40
1,97,67,40
1,97,67,40
1,93,67,40
1,93,67,40
1,93,67,40
1,93,67,40
1,93,67,40
1,93,67,40
1,90,67,40
1,90,67,40
1,90,67,40
1,90,67,40
1,90,67,40
1,90,67,0
1,90,67,40
1,90,67,0
1,90,67,0
1,90,67,0
1,90,67,40
1,90,67,40
1,90,67,40
1,90,67,40
1,90,67,40
1,90,67,40
1,88,67,40
1,88,67,40
1,88,67,40
1,88,67,40
1,88,67,40
1,88,67,40
1,88,67,40
1,85,67,80
1,85,67,80
1,85,67,80
1,85,67,480
1,85,67,80
1,83,67,80
1,83,67,480
1,83,67,80
1,81,67,80
1,81,67,240
1,88,67,960
1,83,67,160
1,85,67,80
1,85,67,480
1,85,67,80
1,83,67,80
1,83,67,480
1,83,67,80
1,81,67,80
1,81,67,40
1,81,67,40
1,81,67,40
1,81,67,40
1,81,67,40
1,83,67,40
1,83,67,40
1,83,67,40
1,83,67,40
1,83,67,40
1,83,67,40
1,57,41,40
1,64,41,80
1,69,41,80
1,71,41,120
1,73,41,40
1,76,41,0
1,71,41,80
1,69,41,80
1,57,41,80
1,61,41,80
1,66,41,80
1,71,41,120
1,76,41,40
1,73,41,0
1,71,41,80
1,69,41,80
1,62,41,80
1,69,41,80
1,74,41,80
1,76,41,120
1,78,41,40
1,76,41,80
1,69,41,80
1,62,41,80
1,69,41,80
1,74,41,80
1,76,41,120
1,77,41,40
1,76,41,80
1,74,41,80
1,57,41,80
1,64,41,80
1,69,41,80
1,71,41,120
1,73,41,40
1,76,41,0
1,71,41,80
1,69,41,80
1,57,41,80
1,61,41,80
1,66,41,80
1,71,41,120
1,76,41,40
1,73,41,0
1,71,41,80
1,69,41,80
1,62,41,80
1,69,41,80
1,74,41,80
1,76,41,120
1,78,41,40
1,76,41,80
1,69,41,80
1,62,41,80
1,69,41,80
1,74,41,80
1,76,41,120
1,77,41,40
1,76,41,80
1,74,41,80
1,64,41,320
1,69,41,80
1,72,41,120
1,73,41,40
1,69,41,80
1,64,41,80
1,62,41,80
1,69,41,80
1,74,41,80
1,77,41,120
1,78,41,40
1,74,41,80
1,69,41,80
1,66,67,80
1,73,67,80
1,78,67,80
1,80,67,120
1,81,67,40
1,78,67,80
1,73,67,80
1,62,67,80
1,69,67,80
1,74,67,80
1,77,67,120
1,78,67,40
1,74,67,80
1,69,67,80
1,66,67,320
1,71,67,80
1,74,67,80
1,71,67,80
1,66,67,80
1,59,67,320
1,64,67,80
1,67,67,120
1,68,67,40
1,71,67,0
1,64,67,80
1,59,67,80
1,61,67,80
1,61,67,80
1,68,67,0
1,73,67,0
1,61,67,80
1,68,67,0
1,73,67,0
1,77,67,80
1,73,67,80
1,68,67,80
1,81,67,80
1,78,67,0
1,73,67,0
1,66,67,0
1,64,67,240
1,71,67,0
1,76,67,0
1,80,67,0
1,74,67,240
1,69,67,0
1,62,67,0
1,62,67,480
1,69,67,120
1,74,67,120
1,77,67,120
1,81,67,120
1,81,49,360
1,76,49,0
1,78,49,240
1,73,49,0
1,66,49,0
1,69,49,0
1,60,67,2880
1,60,67,80
1,60,67,80
1,60,67,80
1,60,67,80
1,60,67,80
1,60,67,80
1,60,67,80
1,60,67,80
1,57,67,80
1,66,67,40
1,67,67,80
1,66,67,40
1,64,67,80
1,64,67,160
1,66,67,40
1,69,67,40
1,71,67,40
1,73,67,40
1,73,67,80
1,71,67,40
1,69,67,40
1,71,67,40
1,69,67,40
1,69,67,80
1,78,67,80
1,72,67,40
1,73,67,120
1,76,67,40
1,78,67,120
1,85,67,400
1,81,67,240
1,76,67,40
1,86,67,40
1,84,67,0
1,85,67,160
1,83,67,80
1,81,67,80
1,76,67,120
1,78,67,40
1,81,67,40
1,81,67,40
1,81,67,40
1,76,67,40
1,78,67,40
1,81,67,40
1,81,67,40
1,76,67,40
1,78,67,40
1,81,67,40
1,81,67,40
1,76,67,40
1,78,67,40
1,81,67,40
1,81,67,40
1,86,67,40
1,81,67,0
1,77,67,40
1,81,67,40
1,86,67,0
1,77,67,40
1,86,67,40
1,77,67,40
1,86,67,40
1,77,67,40
1,86,67,40
1,77,67,40
1,86,67,40
1,81,67,40
1,93,67,40
1,88,67,0
1,93,67,80
1,88,67,40
1,93,67,40
1,88,67,40
1,93,67,40
1,97,67,40
1,98,67,40
1,97,67,80
1,90,67,80
1,88,67,40
1,90,67,40
1,90,67,160
1,88,67,40
1,85,67,40
1,85,67,40
1,76,67,360
1,78,67,40
1,81,67,40
1,83,67,40
1,83,67,40
1,81,67,80
1,78,67,40
1,88,67,80
1,90,67,40
1,88,67,80
1,85,67,40
1,83,67,40
1,85,67,40
1,85,67,40
1,93,67,240
1,88,67,40
1,93,67,40
1,88,67,40
1,93,67,40
1,88,67,40
1,93,67,40
1,88,67,40
1,93,67,40
1,93,67,40
1,88,67,40
1,93,67,40
1,88,67,40
1,93,67,40
1,97,67,40
1,100,67,40
1,100,67,240
1,97,67,0
1,100,67,120
1,97,67,40
1,93,67,40
1,88,67,160
1,88,67,80
1,88,67,40
1,88,67,40
1,88,67,40
1,88,67,40
1,88,67,40
1,88,67,40
1,88,67,40
1,88,67,40
1,88,67,40
1,88,67,40
1,88,67,40
1,88,67,40
1,88,67,40
1,88,67,40
1,90,67,800
1,88,67,240
1,85,67,160
1,86,67,80
1,90,67,2315
1,88,67,720
1,90,67,40
1,88,67,40
1,90,67,40
1,88,67,40
1,90,67,40
1,88,67,40
1,85,67,160
1,86,67,80
1,74,49,9120
1,69,49,0
1,62,49,0
1,74,49,80
1,69,49,0
1,62,49,0
1,74,49,40
1,69,49,0
1,62,49,0
1,74,49,40
1,69,49,0
1,62,49,0
1,74,49,40
1,69,49,0
1,62,49,0
1,74,49,40
1,69,49,0
1,62,49,0
1,74,49,80
1,69,49,0
1,62,49,0
1,74,49,40
1,69,49,0
1,62,49,0
1,74,49,40
1,69,49,0
1,62,49,0
1,74,49,40
1,69,49,0
1,62,49,0
1,76,49,40
1,71,49,0
1,64,49,0
1,76,49,80
1,71,49,0
1,64,49,0
1,76,49,40
1,71,49,0
1,64,49,0
1,76,49,40
1,71,49,0
1,64,49,0
1,76,49,40
1,71,49,0
1,64,49,0
1,76,49,40
1,71,49,0
1,64,49,0
1,76,49,80
1,71,49,0
1,64,49,0
1,76,49,40
1,71,49,0
1,64,49,0
1,76,49,40
1,71,49,0
1,64,49,0
1,76,49,40
1,71,49,0
1,64,49,0
1,57,41,40
1,64,41,80
1,69,41,80
1,71,41,120
1,73,41,40
1,76,41,0
1,71,41,80
1,69,41,80
1,57,41,80
1,61,41,80
1,66,41,80
1,71,41,120
1,76,41,40
1,73,41,0
1,71,41,80
1,69,41,80
1,62,41,80
1,69,41,80
1,74,41,80
1,76,41,120
1,78,41,40
1,76,41,80
1,69,41,80
1,62,41,80
1,69,41,80
1,74,41,80
1,76,41,120
1,77,41,40
1,76,41,80
1,74,41,80
1,57,41,80
1,64,41,80
1,69,41,80
1,71,41,120
1,73,41,40
1,76,41,0
1,71,41,80
1,69,41,80
1,57,41,80
1,61,41,80
1,66,41,80
1,71,41,120
1,76,41,40
1,73,41,0
1,71,41,80
1,69,41,80
1,62,49,80
1,62,49,80
1,69,49,0
1,74,49,0
1,78,49,0
1,78,49,80
1,74,49,0
1,69,49,0
1,62,49,0
1,78,49,40
1,74,49,0
1,69,49,0
1,62,49,0
1,62,49,40
1,78,49,80
1,74,49,0
1,69,49,0
1,62,49,0
1,78,49,80
1,74,49,0
1,69,49,0
1,62,49,0
1,78,49,40
1,74,49,0
1,69,49,0
1,62,49,0
1,68,49,40
1,76,49,80
1,71,49,0
1,76,49,80
1,71,49,0
1,68,49,80
1,76,49,80
1,71,49,0
1,76,49,40
1,71,49,0
1,76,49,40
1,71,49,0
1,76,49,40
1,71,49,0
1,84,49,4360
1,93,49,80
1,84,49,40
1,86,49,40
1,95,49,80
1,86,49,80
1,88,49,40
1,97,49,40
1,85,49,240
1,86,49,80
1,88,49,80
1,90,49,80
1,88,49,160
1,86,49,160
1,88,49,80
1,100,49,80
1,100,49,480
1,100,49,40
1,100,49,40
1,100,49,80
1,100,49,40
1,100,49,40
1,100,49,80
1,100,49,40
1,100,49,40
1,57,41,240
1,64,41,80
1,69,41,80
1,71,41,120
1,73,41,40
1,76,41,0
1,71,41,80
1,69,41,80
1,57,41,80
1,61,41,80
1,66,41,80
1,71,41,120
1,76,41,40
1,73,41,0
1,71,41,80
1,69,41,80
1,62,41,80
1,69,41,80
1,74,41,80
1,76,41,120
1,78,41,40
1,76,41,80
1,69,41,80
1,62,41,80
1,69,41,80
1,74,41,80
1,76,41,120
1,77,41,40
1,76,41,80
1,74,41,80
1,57,49,80
1,64,49,80
1,69,49,80
1,71,49,120
1,73,49,40
1,76,49,0
1,71,49,80
1,69,49,80
1,57,49,80
1,61,48,80
1,66,48,80
1,71,48,120
1,76,48,40
1,73,48,0
1,71,48,80
1,69,47,80
1,62,47,80
1,62,47,80
1,69,47,0
1,74,47,0
1,78,47,0
1,78,46,80
1,74,46,0
1,69,46,0
1,62,46,0
1,78,46,40
1,74,46,0
1,69,46,0
1,62,46,0
1,62,46,40
1,78,46,80
1,74,46,0
1,69,46,0
1,62,46,0
1,78,46,80
1,74,46,0
1,69,46,0
1,62,46,0
1,78,46,40
1,74,46,0
1,69,46,0
1,62,46,0
1,68,46,40
1,76,46,80
1,71,46,0
1,76,46,80
1,71,46,0
1,68,45,80
1,76,45,80
1,71,45,0
1,76,45,40
1,71,45,0
1,76,45,40
1,71,45,0
1,76,45,40
1,71,45,0
1,57,44,40
1,64,44,80
1,69,44,80
1,71,44,120
1,73,43,40
1,76,43,0
1,71,43,80
1,69,43,80
1,57,43,80
1,61,42,80
1,66,42,80
1,71,42,120
1,76,42,40
1,73,42,0
1,71,42,80
1,69,42,80
1,78,41,800
1,81,41,0
1,86,41,0
1,76,38,2400
1,85,38,240
2,81,19,720
2,76,19,0
2,73,19,0
2,78,19,1280
2,73,19,0
2,69,19,0
2,78,19,1280
2,74,19,0
2,69,19,0
2,76,19,1160
2,74,19,40
