track,note,velocity,time
1,46,115,12476
1,58,93,2
1,46,115,2
1,58,93,2
1,46,115,2
1,58,93,2
1,46,115,2
1,58,93,2
1,39,115,2
1,51,93,2
1,39,115,2
1,51,93,2
1,39,115,2
1,51,93,2
1,39,115,2
1,51,93,2
1,41,115,2
1,53,93,2
1,41,115,2
1,53,93,2
1,41,115,2
1,53,93,2
1,41,115,2
1,53,93,2
1,44,115,2
1,56,93,2
1,44,115,2
1,56,93,2
1,44,115,2
1,56,93,2
1,44,115,2
1,56,93,2
1,46,115,2
1,58,93,2
1,46,115,2
1,58,93,2
1,46,115,2
1,58,93,2
1,46,115,2
1,58,93,2
1,39,115,2
1,51,93,2
1,39,115,2
1,51,93,2
1,39,115,2
1,51,93,2
1,39,115,2
1,51,93,2
1,41,115,2
1,53,93,2
1,41,115,2
1,53,93,2
1,41,115,2
1,53,93,2
1,41,115,2
1,53,93,2
1,44,115,2
1,56,93,2
1,44,115,2
1,56,93,2
1,44,115,2
1,56,93,2
1,44,115,2
1,56,93,2
1,46,115,2
1,58,93,2
1,46,115,2
1,58,93,2
1,46,115,2
1,58,93,2
1,46,115,2
1,58,93,2
1,39,115,2
1,51,93,2
1,39,115,2
1,51,93,2
1,41,115,2
1,53,93,2
1,41,115,2
1,53,93,2
1,46,115,2
1,58,93,2
1,46,115,2
1,58,93,2
1,46,115,2
1,58,93,2
1,46,115,2
1,58,93,2
1,39,115,2
1,51,93,2
1,39,115,2
1,51,93,2
1,41,115,2
1,53,93,2
1,41,115,2
1,53,93,2
1,46,115,2
1,58,93,2
1,46,115,2
1,58,93,2
1,46,115,2
1,58,93,2
1,46,115,2
1,58,93,2
1,39,115,2
1,51,93,2
1,39,115,2
1,51,93,2
1,41,115,2
1,53,93,2
1,41,115,2
1,53,93,2
1,46,115,2
1,58,93,2
1,46,115,2
1,58,93,2
1,46,115,2
1,58,93,2
1,46,115,2
1,58,93,2
1,39,115,2
1,51,93,2
1,39,115,2
1,51,93,2
1,41,115,2
1,53,93,2
1,41,115,2
1,53,93,2
1,46,115,2
1,58,93,2
1,46,115,2
1,58,93,2
1,46,115,2
1,58,93,2
1,46,115,2
1,58,93,2
1,39,115,2
1,51,93,2
1,39,115,2
1,51,93,2
1,41,115,2
1,53,93,2
1,41,115,2
1,53,93,2
1,46,115,2
1,58,93,2
1,46,115,2
1,58,93,2
1,46,115,2
1,58,93,2
1,46,115,2
1,58,93,2
1,39,115,2
1,51,93,2
1,39,115,2
1,51,93,2
1,42,115,2
1,54,93,2
1,42,115,2
1,54,93,2
1,46,115,2
1,58,93,2
1,46,115,2
1,58,93,2
1,46,115,2
1,58,93,2
1,46,115,2
1,58,93,2
1,39,115,2
1,51,93,2
1,39,115,2
1,51,93,2
1,41,115,2
1,53,93,2
1,41,115,2
1,53,93,2
1,46,115,2
1,58,93,2
1,46,115,2
1,58,93,2
1,46,115,2
1,58,93,2
1,46,115,2
1,58,93,2
1,46,115,1536
1,58,93,2
1,46,115,2
1,58,93,2
1,46,115,2
1,58,93,2
1,46,115,2
1,58,93,2
1,39,115,2
1,51,93,2
1,39,115,2
1,51,93,2
1,39,115,2
1,51,93,2
1,39,115,2
1,51,93,2
1,41,115,2
1,53,93,2
1,41,115,2
1,53,93,2
1,41,115,2
1,53,93,2
1,41,115,2
1,53,93,2
1,44,115,2
1,56,93,2
1,44,115,2
1,56,93,2
1,44,115,2
1,56,93,2
1,44,115,2
1,56,93,2
1,46,115,2
1,58,93,2
1,46,115,2
1,58,93,2
1,46,115,2
1,58,93,2
1,46,115,2
1,58,93,2
1,39,115,2
1,51,93,2
1,39,115,2
1,51,93,2
1,39,115,2
1,51,93,2
1,39,115,2
1,51,93,2
1,41,115,2
1,53,93,2
1,41,115,2
1,53,93,2
1,41,115,2
1,53,93,2
1,41,115,2
1,53,93,2
1,44,115,2
1,56,93,2
1,44,115,2
1,56,93,2
1,44,115,2
1,56,93,2
1,44,115,2
1,56,93,2
1,46,115,2
1,58,93,2
1,46,115,2
1,58,93,2
1,46,115,2
1,58,93,2
1,46,115,2
1,58,93,2
1,39,115,2
1,51,93,2
1,39,115,2
1,51,93,2
1,39,115,2
1,51,93,2
1,39,115,2
1,51,93,2
1,41,115,2
1,53,93,2
1,41,115,2
1,53,93,2
1,41,115,2
1,53,93,2
1,41,115,2
1,53,93,2
1,44,115,2
1,56,93,2
1,44,115,2
1,56,93,2
1,44,115,2
1,56,93,2
1,44,115,2
1,56,93,2
1,46,115,2
1,58,93,2
1,46,115,2
1,58,93,2
1,46,115,2
1,58,93,2
1,46,115,2
1,58,93,2
1,39,115,2
1,51,93,2
1,39,115,2
1,51,93,2
1,39,115,2
1,51,93,2
1,39,115,2
1,51,93,2
1,41,115,2
1,53,93,2
1,41,115,2
1,53,93,2
1,41,115,2
1,53,93,2
1,41,115,2
1,53,93,2
1,44,115,2
1,56,93,2
1,44,115,2
1,56,93,2
1,44,115,2
1,56,93,2
1,44,115,2
1,56,93,2
1,46,115,2
1,58,93,2
1,46,115,2
1,58,93,2
1,46,115,2
1,58,93,2
1,46,115,2
1,58,93,2
1,39,115,2
1,51,93,2
1,39,115,2
1,51,93,2
1,39,115,2
1,51,93,2
1,39,115,2
1,51,93,2
1,41,115,2
1,53,93,2
1,41,115,2
1,53,93,2
1,41,115,2
1,53,93,2
1,41,115,2
1,53,93,2
1,44,115,2
1,56,93,2
1,44,115,2
1,56,93,2
1,44,115,2
1,56,93,2
1,44,115,2
1,56,93,2
1,46,115,2
1,58,93,2
1,46,115,2
1,58,93,2
1,46,115,2
1,58,93,2
1,46,115,2
1,58,93,2
1,39,115,2
1,51,93,2
1,39,115,2
1,51,93,2
1,39,115,2
1,51,93,2
1,39,115,2
1,51,93,2
1,41,115,2
1,53,93,2
1,41,115,2
1,53,93,2
1,41,115,2
1,53,93,2
1,41,115,2
1,53,93,2
1,44,115,2
1,56,93,2
1,44,115,2
1,56,93,2
1,44,115,2
1,56,93,2
1,44,115,2
1,56,93,2
1,46,115,2
1,58,93,2
1,46,115,2
1,58,93,2
1,46,115,2
1,58,93,2
1,46,115,2
1,58,93,2
1,39,115,2
1,51,93,2
1,39,115,2
1,51,93,2
1,41,115,2
1,53,93,2
1,41,115,2
1,53,93,2
1,46,115,2
1,58,93,2
1,46,115,2
1,58,93,2
1,46,115,2
1,58,93,2
1,46,115,2
1,58,93,2
1,39,115,2
1,51,93,2
1,39,115,2
1,51,93,2
1,41,115,2
1,53,93,2
1,41,115,2
1,53,93,2
1,46,115,2
1,58,93,2
1,46,115,2
1,58,93,2
1,46,115,2
1,58,93,2
1,46,115,2
1,58,93,2
1,39,115,2
1,51,93,2
1,39,115,2
1,51,93,2
1,41,115,2
1,53,93,2
1,41,115,2
1,53,93,2
1,46,115,2
1,58,93,2
1,46,115,2
1,58,93,2
1,46,115,2
1,58,93,2
1,46,115,2
1,58,93,2
1,39,115,2
1,51,93,2
1,39,115,2
1,51,93,2
1,41,115,2
1,53,93,2
1,41,115,2
1,53,93,2
1,46,115,2
1,58,93,2
1,46,115,2
1,58,93,2
1,46,115,2
1,58,93,2
1,46,115,2
1,58,93,2
1,39,115,2
1,51,93,2
1,39,115,2
1,51,93,2
1,41,115,2
1,53,93,2
1,41,115,2
1,53,93,2
1,46,115,2
1,58,93,2
1,46,115,2
1,58,93,2
1,46,115,2
1,58,93,2
1,46,115,2
1,58,93,2
1,39,115,2
1,51,93,2
1,39,115,2
1,51,93,2
1,42,115,2
1,54,93,2
1,42,115,2
1,54,93,2
1,46,115,2
1,58,93,2
1,46,115,2
1,58,93,2
1,46,115,2
1,58,93,2
1,46,115,2
1,58,93,2
1,39,115,2
1,51,93,2
1,39,115,2
1,51,93,2
1,41,115,2
1,53,93,2
1,41,115,2
1,53,93,2
1,46,115,2
1,58,93,2
1,46,115,2
1,58,93,2
1,46,115,2
1,58,93,2
1,46,115,2
1,58,93,2
1,41,115,2
1,53,93,2
1,41,115,2
1,53,93,2
1,41,115,2
1,53,93,2
1,41,115,2
1,46,115,12480
1,58,93,2
1,46,115,2
1,58,93,2
1,46,115,2
1,58,93,2
1,46,115,2
1,58,93,2
1,39,115,2
1,51,93,2
1,39,115,2
1,51,93,2
1,39,115,2
1,51,93,2
1,39,115,2
1,51,93,2
1,41,115,2
1,53,93,2
1,41,115,2
1,53,93,2
1,41,115,2
1,53,93,2
1,41,115,2
1,53,93,2
1,44,115,2
1,56,93,2
1,44,115,2
1,56,93,2
1,44,115,2
1,56,93,2
1,44,115,2
1,56,93,2
1,46,115,2
1,58,93,2
1,46,115,2
1,58,93,2
1,46,115,2
1,58,93,2
1,46,115,2
1,58,93,2
1,39,115,2
1,51,93,2
1,39,115,2
1,51,93,2
1,39,115,2
1,51,93,2
1,39,115,2
1,51,93,2
1,41,115,2
1,53,93,2
1,41,115,2
1,53,93,2
1,41,115,2
1,53,93,2
1,41,115,2
1,53,93,2
1,44,115,2
1,56,93,2
1,44,115,2
1,56,93,2
1,44,115,2
1,56,93,2
1,44,115,2
1,56,93,2
1,46,115,2
1,58,93,2
1,46,115,2
1,58,93,2
1,46,115,2
1,58,93,2
1,46,115,2
1,58,93,2
1,39,115,2
1,51,93,2
1,39,115,2
1,51,93,2
1,41,115,2
1,53,93,2
1,41,115,2
1,53,93,2
1,46,115,2
1,58,93,2
1,46,115,2
1,58,93,2
1,46,115,2
1,58,93,2
1,46,115,2
1,58,93,2
1,39,115,2
1,51,93,2
1,39,115,2
1,51,93,2
1,41,115,2
1,53,93,2
1,41,115,2
1,53,93,2
1,46,115,2
1,58,93,2
1,46,115,2
1,58,93,2
1,46,115,2
1,58,93,2
1,46,115,2
1,58,93,2
1,39,115,2
1,51,93,2
1,39,115,2
1,51,93,2
1,41,115,2
1,53,93,2
1,41,115,2
1,53,93,2
1,46,115,2
1,58,93,2
1,46,115,2
1,58,93,2
1,46,115,2
1,58,93,2
1,46,115,2
1,58,93,2
1,39,115,2
1,51,93,2
1,39,115,2
1,51,93,2
1,41,115,2
1,53,93,2
1,41,115,2
1,53,93,2
1,46,115,2
1,58,93,2
1,46,115,2
1,58,93,2
1,46,115,2
1,58,93,2
1,46,115,2
1,58,93,2
1,39,115,2
1,51,93,2
1,39,115,2
1,51,93,2
1,41,115,2
1,53,93,2
1,41,115,2
1,53,93,2
1,46,115,2
1,58,93,2
1,46,115,2
1,58,93,2
1,46,115,2
1,58,93,2
1,46,115,2
1,58,93,2
1,39,115,2
1,51,93,2
1,39,115,2
1,51,93,2
1,42,115,2
1,54,93,2
1,42,115,2
1,54,93,2
1,46,115,2
1,58,93,2
1,46,115,2
1,58,93,2
1,46,115,2
1,58,93,2
1,46,115,2
1,58,93,2
1,39,115,2
1,51,93,2
1,39,115,2
1,51,93,2
1,41,115,2
1,53,93,2
1,41,115,2
1,53,93,2
1,46,115,2
1,58,93,2
1,46,115,2
1,58,93,2
1,46,115,2
1,58,93,2
1,46,115,2
1,58,93,2
1,41,115,2
1,53,93,2
1,41,115,2
1,53,93,2
1,41,115,2
1,53,93,2
1,41,115,2
2,46,105,568
2,58,92,192
2,46,73,2
2,70,105,6
2,58,92,8
2,46,41,2
2,70,73,6
2,68,105,6
2,58,60,6
2,67,105,6
2,70,41,6
2,68,73,6
2,58,28,4
2,63,105,6
2,67,73,88
2,68,41,6
2,39,105,2
2,63,73,52
2,58,92,2
2,67,41,4
2,39,73,2
2,70,105,6
2,63,41,0
2,58,92,8
2,39,41,2
2,70,73,4
2,68,105,8
2,58,60,6
2,67,105,6
2,70,41,6
2,68,73,6
2,58,28,6
2,70,105,4
2,67,73,88
2,68,41,6
2,41,96,2
2,70,73,54
2,58,92,2
2,67,41,4
2,41,64,2
2,70,105,6
2,58,92,14
2,41,32,4
2,70,73,6
2,68,105,4
2,58,60,6
2,67,105,6
2,70,41,6
2,68,73,6
2,58,28,6
2,63,105,4
2,67,73,88
2,68,41,4
2,44,105,6
2,63,73,54
2,58,92,2
2,67,41,2
2,44,73,2
2,70,105,6
2,63,41,150
2,58,92,8
2,44,41,2
2,70,73,4
2,68,105,6
2,58,60,2
2,67,105,6
2,70,41,6
2,68,105,6
2,58,28,2
2,67,73,6
2,70,105,6
2,68,73,0
2,46,105,10
2,67,41,6
2,70,73,4
2,58,92,4
2,68,41,2
2,46,73,0
2,70,105,6
2,58,92,14
2,46,41,2
2,70,73,4
2,68,105,6
2,58,60,8
2,67,105,6
2,70,41,6
2,68,73,8
2,58,28,6
2,63,105,2
2,67,73,90
2,68,41,6
2,39,105,2
2,63,73,56
2,58,92,2
2,67,41,2
2,39,73,2
2,70,105,4
2,63,41,152
2,58,92,6
2,39,41,2
2,70,73,4
2,68,105,6
2,58,60,6
2,67,105,6
2,70,41,6
2,68,73,6
2,58,28,6
2,70,105,2
2,67,73,90
2,68,41,6
2,41,96,2
2,70,73,56
2,58,92,2
2,67,41,2
2,41,64,2
2,70,105,4
2,58,92,14
2,41,32,2
2,70,73,4
2,68,105,6
2,58,60,8
2,67,105,6
2,70,41,6
2,68,73,8
2,58,28,8
2,63,105,0
2,67,73,90
2,68,41,6
2,44,105,2
2,63,73,56
2,58,92,2
2,67,41,2
2,44,73,2
2,70,105,6
2,63,41,152
2,58,92,6
2,44,41,2
2,70,73,6
2,58,60,6
2,70,41,6
2,58,28,6
2,46,105,6
2,58,92,186
2,46,73,2
2,70,105,8
2,58,92,8
2,46,41,2
2,70,73,4
2,68,105,6
2,58,60,6
2,67,105,6
2,70,41,6
2,68,73,8
2,58,28,4
2,63,105,4
2,67,73,92
2,68,41,6
2,39,105,4
2,63,73,58
2,58,92,2
2,67,41,2
2,39,73,2
2,70,105,4
2,63,41,150
2,58,92,6
2,39,41,2
2,70,73,6
2,68,105,6
2,58,60,8
2,67,105,6
2,70,41,6
2,68,73,10
2,58,28,6
2,70,105,2
2,67,73,88
2,68,41,6
2,41,96,2
2,70,73,56
2,58,92,2
2,67,41,2
2,41,64,0
2,70,105,8
2,58,92,14
2,41,32,2
2,70,73,6
2,68,105,4
2,58,60,8
2,67,105,8
2,70,41,6
2,68,73,8
2,58,28,8
2,63,105,2
2,67,73,90
2,68,41,6
2,44,105,2
2,63,73,56
2,58,92,2
2,67,41,2
2,44,73,4
2,70,105,4
2,63,41,154
2,58,92,8
2,44,41,2
2,70,73,6
2,68,105,4
2,58,60,2
2,67,105,4
2,70,41,10
2,68,105,6
2,58,28,0
2,67,73,6
2,70,105,6
2,68,73,2
2,46,105,4
2,67,41,6
2,70,73,6
2,58,92,4
2,68,41,4
2,46,73,2
2,70,105,6
2,58,92,14
2,46,41,2
2,70,73,6
2,68,105,4
2,58,60,6
2,67,105,6
2,70,41,6
2,68,73,8
2,58,28,6
2,63,105,4
2,67,73,88
2,68,41,8
2,39,105,2
2,63,73,56
2,58,92,2
2,67,41,2
2,39,73,2
2,70,105,4
2,63,41,154
2,58,92,6
2,39,41,2
2,70,73,6
2,68,105,8
2,58,60,8
2,67,105,6
2,70,41,6
2,68,73,4
2,58,28,4
2,70,105,6
2,67,73,86
2,68,41,4
2,41,96,2
2,70,73,56
2,58,92,2
2,67,41,2
2,41,64,2
2,70,105,4
2,58,92,14
2,41,32,2
2,70,73,4
2,68,105,8
2,58,60,6
2,67,105,8
2,70,41,6
2,68,73,8
2,58,28,6
2,63,105,4
2,67,73,88
2,68,41,6
2,44,105,2
2,63,73,60
2,58,92,2
2,67,41,4
2,44,73,2
2,70,105,4
2,63,41,152
2,58,92,6
2,44,41,4
2,70,73,4
2,68,105,6
2,58,60,2
2,67,105,6
2,70,41,6
2,68,105,8
2,58,28,0
2,67,73,8
2,70,105,6
2,68,73,4
2,67,41,8
2,70,73,6
2,68,41,0
2,70,41,6
2,70,63,23816
2,77,85,6
2,70,63,8
2,77,85,12
2,70,63,14
2,77,85,20
2,70,31,14
2,80,85,6
2,77,53,2
2,82,85,6
2,70,31,6
2,80,53,2
2,63,63,6
2,77,21,2
