track,note,velocity,time
1,61,115,50804
1,61,115,83
1,61,104,96
1,61,127,114
1,54,104,92
1,57,104,98
1,61,104,195
1,61,73,40
1,64,127,47
1,61,115,14
1,66,104,51
1,66,115,88
1,64,115,90
1,61,104,194
1,59,104,324
1,60,94,55
1,59,127,7
1,57,115,28
1,59,94,49
1,59,115,75
1,61,94,65
1,57,104,12
1,57,79,71
1,57,115,82
1,61,115,1495
1,61,86,39
1,61,104,77
1,54,104,59
1,54,115,62
1,57,104,32
1,54,79,132
1,54,47,17
1,61,104,55
1,61,79,37
1,61,115,89
1,54,115,37
1,54,94,57
1,54,47,15
1,54,63,17
1,57,127,46
1,54,104,253
1,61,115,44
1,61,94,44
1,61,115,93
1,54,104,118
1,54,104,114
1,57,115,37
1,61,127,29
1,59,127,90
1,64,115,7
1,59,104,65
1,61,115,16
1,59,104,54
1,61,115,0
1,61,104,937
1,61,94,45
1,61,127,95
1,54,115,77
1,54,94,50
1,54,79,39
1,57,104,45
1,61,115,92
1,64,127,101
1,61,115,49
1,66,115,86
1,66,104,69
1,66,73,47
1,64,115,60
1,59,104,79
1,60,94,52
1,59,115,20
1,59,115,67
1,59,79,85
1,61,104,34
1,57,94,10
1,57,115,66
1,66,115,895
1,68,104,111
1,69,104,10
1,66,115,80
1,68,94,24
1,66,115,9
1,61,63,151
1,66,115,18
1,61,104,92
1,66,127,93
1,64,104,11
1,73,115,166
1,73,51,14
1,71,104,496
1,73,115,32
1,71,104,177
1,71,127,140
1,69,127,183
1,71,127,114
1,71,104,118
1,73,104,60
1,73,47,16
1,61,104,101
1,64,115,15
1,66,115,19
1,66,115,52
1,66,104,58
1,68,104,41
1,69,104,40
1,68,104,55
1,71,127,128
1,69,115,71
1,71,115,16
1,69,127,146
1,66,127,139
1,66,115,151
1,61,104,0
1,64,104,47
1,66,115,10
1,61,104,46
1,64,115,18
1,66,104,43
1,69,127,165
1,64,115,15
1,64,115,72
1,66,127,54
1,66,115,80
1,68,104,77
1,69,104,43
1,68,104,0
1,66,115,20
1,68,104,43
1,68,115,131
1,66,104,123
1,68,115,2
1,66,127,194
1,71,115,134
1,66,115,70
1,66,115,164
1,61,104,19
1,66,127,117
1,66,127,121
1,71,104,260
1,73,104,30
1,71,127,141
1,69,127,134
1,61,115,399
1,61,73,38
1,61,115,107
1,57,104,34
1,54,104,41
1,54,115,50
1,57,115,26
1,57,79,252
1,61,127,27
1,61,86,42
1,61,127,118
1,54,104,115
1,54,79,55
1,54,86,54
1,54,47,17
1,57,115,19
1,54,86,64
1,54,47,14
1,61,127,15
1,61,38,44
1,61,115,117
1,54,104,129
1,54,104,52
1,54,94,46
1,54,44,15
1,57,127,25
1,61,115,10
1,59,115,122
1,64,127,21
1,62,115,8
1,59,104,76
1,61,104,12
1,59,115,63
1,61,115,3
1,61,47,16
1,61,127,689
1,61,44,16
1,61,127,112
1,61,115,134
1,61,51,14
1,61,115,119
1,54,127,127
1,57,127,100
1,61,127,148
1,64,127,105
1,61,115,82
1,66,115,106
1,64,115,23
1,66,86,50
1,64,127,26
1,59,115,41
1,57,38,10
1,60,94,25
1,59,115,14
1,59,104,47
1,59,104,96
1,61,104,45
1,57,104,27
1,54,59,1155
1,54,55,13
1,61,127,43
1,61,86,33
1,61,127,114
1,54,115,85
1,54,104,97
1,57,127,38
1,61,127,67
1,64,115,113
1,61,115,106
1,66,115,107
1,64,104,79
1,66,115,29
1,64,127,87
1,59,115,154
1,59,79,150
1,61,104,41
1,57,94,25
1,57,127,165
1,66,115,1133
1,69,115,47
1,66,127,104
1,68,104,32
1,66,127,12
1,61,104,158
1,66,115,10
1,61,104,98
1,66,115,118
1,64,115,0
1,73,115,129
1,71,115,20
1,73,104,36
1,71,127,5
1,71,127,105
1,69,127,195
1,71,127,93
1,71,115,101
1,73,115,54
1,68,79,101
1,61,127,15
1,64,115,17
1,66,115,11
1,66,115,50
1,66,104,88
1,68,104,44
1,69,104,52
1,68,94,35
1,71,127,95
1,69,115,92
1,71,104,14
1,69,115,12
1,66,127,12
1,61,59,39
1,69,127,62
1,68,86,4
1,66,33,331
1,64,51,6
1,55,68,0
1,58,51,18
1,57,73,26
1,59,51,10
1,62,86,21
1,66,104,206
1,68,127,28
1,66,115,7
1,66,38,18
1,66,115,125
1,68,115,50
1,66,115,14
1,66,115,100
1,61,104,609
1,66,127,18
1,61,104,3
1,64,115,96
1,66,115,47
1,69,127,192
1,61,115,30
1,64,127,79
1,66,127,196
1,66,127,125
1,66,115,66
1,61,51,104
1,68,115,56
1,69,115,22
1,68,104,76
1,69,94,45
1,66,115,105
1,68,115,37
1,66,115,6
1,69,127,140
1,68,127,66
1,68,115,125
1,66,127,15
1,73,127,279
1,71,86,490
1,69,115,7
1,61,94,32
1,66,127,36
1,66,104,77
1,68,104,54
1,69,104,28
1,68,115,49
1,61,55,37
1,66,115,35
1,68,94,45
1,66,127,19
1,64,86,180
1,71,127,22
1,69,47,20
1,66,115,12
1,64,115,125
1,66,127,147
1,68,104,114
1,69,94,24
1,68,127,19
1,70,34,83
1,61,86,25
1,66,127,73
1,64,104,10
1,66,115,123
1,68,104,60
1,69,86,25
1,68,94,126
1,66,115,138
1,68,104,45
1,66,104,221
1,64,115,5
1,61,115,17
1,64,115,46
1,66,115,77
1,68,115,106
1,69,104,43
1,68,115,46
1,71,127,242
1,69,127,29
1,71,127,124
1,73,115,31
1,71,127,7
1,71,127,143
1,69,127,128
1,71,127,60
1,69,104,32
1,71,115,16
1,71,127,51
1,69,127,72
1,71,104,39
1,69,127,30
1,71,104,41
1,69,127,20
1,64,79,905
1,66,104,66
1,69,127,0
1,66,115,34
1,69,127,110
1,66,104,0
1,69,127,33
1,71,115,71
1,69,115,110
1,71,115,3
1,69,127,14
1,71,127,64
1,71,63,40
1,72,68,9
1,73,127,0
1,71,115,11
1,71,127,119
1,71,104,46
1,69,127,16
1,71,127,1
1,69,104,0
1,71,127,29
1,69,127,0
1,64,73,100
1,66,104,60
1,69,127,13
1,66,127,60
1,69,127,106
1,66,115,13
1,69,127,33
1,71,127,92
1,69,127,8
1,66,115,0
1,69,127,180
1,72,127,119
1,71,127,0
1,71,127,59
1,71,127,117
1,71,127,58
1,69,127,27
1,71,127,71
1,69,127,5
1,71,115,0
1,69,127,9
1,69,127,30
1,69,127,92
1,69,115,40
1,69,115,36
1,69,104,35
1,66,127,15
1,66,86,109
1,69,127,70
1,71,127,30
1,69,127,17
1,69,115,84
1,71,104,34
1,69,115,87
1,71,104,50
1,69,127,11
1,65,44,55
1,68,115,12
1,66,104,265
1,64,127,3
1,66,55,178
1,60,59,184
1,62,86,8
1,64,94,27
1,69,127,13
1,66,115,29
1,69,127,61
1,69,86,37
1,69,94,37
1,71,104,109
1,66,127,191
1,65,68,0
1,71,127,163
1,71,127,72
1,72,127,46
1,71,127,19
1,71,127,120
1,71,104,45
1,69,127,21
1,71,115,17
1,69,115,4
1,71,115,15
1,69,127,10
1,69,127,135
1,64,86,144
1,66,104,24
1,69,127,0
1,69,127,124
1,69,127,115
1,69,127,130
1,66,115,183
1,69,115,102
1,71,104,43
1,69,127,10
1,66,115,13
1,71,127,684
1,72,115,17
1,71,115,32
1,71,127,152
1,69,127,4
1,66,86,90
1,66,51,14
1,71,127,39
1,69,68,18
1,69,94,71
1,71,127,47
1,69,127,67
1,71,94,55
1,69,127,0
1,71,104,73
1,69,127,17
1,71,86,6
1,69,127,695
1,66,104,9
1,69,127,134
1,69,115,139
1,69,115,87
1,64,104,110
1,66,127,58
1,69,115,425
1,71,115,31
1,69,127,0
1,71,127,245
1,73,104,30
1,71,127,7
1,69,115,161
1,69,127,160
1,66,115,176
1,69,127,54
1,69,86,75
1,71,94,75
1,69,94,4
1,72,127,33
1,71,127,79
1,69,127,224
1,71,115,56
1,69,127,28
1,69,79,382
1,71,79,58
1,69,104,31
1,69,86,460
1,71,94,19
1,72,86,78
1,73,104,55
1,69,86,280
1,71,86,14
1,69,94,14
1,69,86,1170
1,71,79,56
1,69,94,8
1,69,79,466
1,71,86,89
1,72,94,77
1,73,94,41
1,69,104,273
1,71,86,7
1,69,86,7
1,69,86,1118
1,71,86,6
1,69,86,242
1,69,86,433
1,71,94,10
1,72,79,8
1,73,104,51
1,69,86,255
1,71,79,55
1,69,86,0
1,73,79,489
1,74,68,45
1,73,63,42
1,71,34,0
1,69,73,85
1,69,68,52
1,71,79,21
1,69,68,6
1,69,79,486
1,71,79,22
1,72,68,7
1,73,94,61
1,69,79,263
1,71,79,19
1,69,68,16
2,69,127,38784
2,71,115,48
2,69,127,12
2,69,115,448
2,71,104,17
2,72,115,9
2,73,115,45
2,69,127,211
2,71,104,48
2,69,104,17
2,69,104,1158
2,71,94,48
2,69,115,43
2,69,104,480
2,71,104,26
2,72,115,16
2,73,104,43
2,69,115,280
2,71,104,48
2,69,115,27
2,69,104,1177
2,71,104,48
2,69,115,94
2,69,115,514
2,71,94,35
2,72,104,19
2,73,115,43
2,69,115,201
2,71,94,48
2,69,115,27
2,69,115,1186
2,71,79,48
2,69,127,67
2,69,94,505
2,71,104,39
2,72,115,23
2,73,115,40
2,69,115,213
2,71,94,48
2,69,115,12
2,61,104,3072
2,73,104,0
2,61,104,47
2,73,94,0
2,61,104,70
2,73,104,0
2,73,104,100
2,61,104,0
2,61,104,49
2,73,104,0
2,71,94,10
2,59,86,0
2,73,94,45
2,61,104,6
2,59,79,0
2,71,104,39
2,61,104,20
2,73,94,0
2,71,104,25
2,59,86,0
2,69,79,288
2,57,79,0
2,54,115,26
2,66,104,0
2,73,104,326
2,61,104,0
2,61,104,48
2,73,104,0
2,71,94,47
2,59,94,0
2,73,94,48
2,61,86,4
2,73,104,128
2,61,94,0
2,73,104,50
2,61,104,0
2,76,104,6
2,64,98,0
2,61,104,47
2,73,104,0
2,59,104,29
2,71,115,0
2,61,104,18
2,73,104,0
2,73,25,130
2,71,115,82
2,59,86,0
2,61,79,48
2,73,94,0
2,73,104,59
2,61,68,0
2,71,86,0
2,59,73,0
2,73,94,107
2,61,104,0
2,58,44,123
2,59,86,0
2,71,94,0
2,61,86,24
2,73,104,0
2,73,104,22
2,61,94,0
2,59,59,56
2,57,51,0
2,71,94,0
2,61,86,48
2,73,94,0
2,73,94,56
2,61,104,0
2,71,104,24
2,59,86,0
2,69,79,288
2,57,86,0
2,56,79,23
2,54,104,0
2,66,104,0
2,73,28,102
2,73,104,182
2,61,104,0
2,73,86,56
2,61,104,0
2,59,104,41
2,71,104,0
2,73,94,48
2,61,86,11
2,73,115,108
2,61,104,0
2,61,104,58
2,73,104,0
2,76,94,21
2,64,115,0
2,73,104,8
2,61,104,0
2,59,94,3
2,71,115,0
2,73,104,5
2,61,104,0
2,59,68,336
2,57,79,7
2,69,94,0
2,69,104,2029
2,71,94,48
2,69,115,43
2,69,104,480
2,71,104,26
2,72,115,16
2,73,104,43
2,69,115,280
2,71,104,48
2,69,115,27
2,69,104,1177
2,71,104,48
2,69,115,94
2,69,115,514
2,71,94,35
2,72,104,19
2,73,115,43
2,69,115,201
2,71,94,48
2,69,115,27
2,69,115,1186
2,71,79,48
2,69,127,67
2,69,94,505
2,71,104,39
2,72,115,23
2,73,115,40
2,69,115,213
2,71,94,48
2,69,115,12
2,69,127,1184
2,71,115,48
2,69,127,12
2,69,115,448
2,71,104,17
2,72,115,9
2,73,115,45
2,69,127,211
2,71,104,48
2,69,104,17
2,61,104,0
2,73,104,0
2,61,104,47
2,73,94,0
2,61,104,70
2,73,104,0
2,73,104,100
2,61,104,0
2,61,104,49
2,73,104,0
2,71,94,10
2,59,86,0
2,73,94,45
2,61,104,6
2,59,79,0
2,71,104,39
2,61,104,20
2,73,94,0
2,71,104,25
2,59,86,0
2,69,79,288
2,57,79,0
2,54,115,26
2,66,104,0
2,73,104,326
2,61,104,0
2,61,104,48
2,73,104,0
2,71,94,47
2,59,94,0
2,73,94,48
2,61,86,4
2,73,104,128
2,61,94,0
2,73,104,50
2,61,104,0
2,76,104,6
2,64,98,0
2,61,104,47
2,73,104,0
2,59,104,29
2,71,115,0
2,61,104,18
2,73,104,0
2,73,25,130
2,61,104,82
2,73,104,0
2,61,104,47
2,73,94,0
2,61,104,70
2,73,104,0
2,73,104,100
2,61,104,0
2,61,104,49
2,73,104,0
2,71,94,10
2,59,86,0
2,73,94,45
2,61,104,6
2,59,79,0
2,71,104,39
2,61,104,20
2,73,94,0
2,71,104,25
2,59,86,0
2,69,79,288
2,57,79,0
2,54,115,26
2,66,104,0
2,73,104,326
2,61,104,0
2,61,104,48
2,73,104,0
2,71,94,47
2,59,94,0
2,73,94,48
2,61,86,4
2,73,104,128
2,61,94,0
2,73,104,50
2,61,104,0
2,76,104,6
2,64,98,0
2,61,104,47
2,73,104,0
2,59,104,29
2,71,115,0
2,61,104,18
2,73,104,0
2,73,25,130
2,61,104,82
2,73,104,0
2,61,104,47
2,73,94,0
2,61,104,70
2,73,104,0
2,73,104,100
2,61,104,0
2,61,104,49
2,73,104,0
2,71,94,10
2,59,86,0
2,73,94,45
2,61,104,6
2,59,79,0
2,71,104,39
2,61,104,20
2,73,94,0
2,71,104,25
2,59,86,0
2,69,79,288
2,57,79,0
2,54,115,26
2,66,104,0
2,73,104,326
2,61,104,0
2,61,104,48
2,73,104,0
2,71,94,47
2,59,94,0
2,73,94,48
2,61,86,4
2,73,104,128
2,61,94,0
2,73,104,50
2,61,104,0
2,76,104,6
2,64,98,0
2,61,104,47
2,73,104,0
2,59,104,29
2,71,115,0
2,61,104,18
2,73,104,0
2,73,25,130
2,71,115,82
2,59,86,0
2,61,79,48
2,73,94,0
2,73,104,59
2,61,68,0
2,71,86,0
2,59,73,0
2,73,94,107
2,61,104,0
2,58,44,123
2,59,86,0
2,71,94,0
2,61,86,24
2,73,104,0
2,73,104,22
2,61,94,0
2,59,59,56
2,57,51,0
2,71,94,0
2,61,86,48
2,73,94,0
2,73,94,56
2,61,104,0
2,71,104,24
2,59,86,0
2,69,79,288
2,57,86,0
2,56,79,23
2,54,104,0
2,66,104,0
2,73,28,102
2,73,104,182
2,61,104,0
2,73,86,56
2,61,104,0
2,59,104,41
2,71,104,0
2,73,94,48
2,61,86,11
2,73,115,108
2,61,104,0
2,61,104,58
2,73,104,0
2,76,94,21
2,64,115,0
2,73,104,8
2,61,104,0
2,59,94,3
2,71,115,0
2,73,104,5
2,61,104,0
2,59,68,336
2,71,115,28
2,59,115,0
2,69,115,46
2,57,104,0
2,69,115,398
2,71,104,52
2,69,104,6
2,69,104,1096
2,71,86,46
2,69,104,9
2,71,115,4232
2,69,115,16
2,69,94,1136
2,71,109,31
2,69,127,0
2,69,127,384
2,71,115,48
2,69,127,12
2,69,115,448
2,71,104,17
2,72,115,9
2,73,115,45
2,69,127,211
2,71,104,48
2,69,104,17
2,69,104,1158
2,71,94,48
2,69,115,43
2,69,104,480
2,71,104,26
2,72,115,16
2,73,104,43
2,69,115,280
2,71,104,48
2,69,115,27
2,69,104,1177
2,71,104,48
2,69,115,94
2,69,115,514
2,71,94,35
2,72,104,19
2,73,115,43
2,69,115,201
2,71,94,48
2,69,115,27
2,69,115,1186
2,71,79,48
2,69,127,67
2,69,94,505
2,71,104,39
2,72,115,23
2,73,115,40
2,69,115,213
2,71,94,48
2,69,115,12
2,69,127,384
2,71,115,48
2,69,127,12
2,69,115,448
2,71,104,17
2,72,115,9
2,73,115,45
2,69,127,211
2,71,104,48
2,69,104,17
2,69,104,1158
2,71,94,48
2,69,115,43
2,69,104,480
2,71,104,26
2,72,115,16
2,73,104,43
2,69,115,280
2,71,104,48
2,69,115,27
2,69,104,1177
2,71,104,48
2,69,115,94
2,69,115,514
2,71,94,35
2,72,104,19
2,73,115,43
2,69,115,201
2,71,94,48
2,69,115,27
2,69,115,1186
2,71,79,48
2,69,127,67
2,69,94,505
2,71,104,39
2,72,115,23
2,73,115,40
2,69,115,213
2,71,94,48
2,69,115,12
3,93,115,39648
3,95,115,9
