track,note,velocity,time
1,63,61,1888
1,51,58,0
1,65,60,652
1,68,57,28
1,70,61,164
1,72,60,28
1,73,59,36
1,74,60,44
1,75,55,40
1,61,47,496
1,71,54,4
1,64,51,4
1,67,44,20
1,87,59,300
1,79,52,8
1,83,50,0
1,75,54,0
1,76,45,4
1,99,61,352
1,75,47,20
1,76,72,32
1,49,56,4
1,67,55,0
1,64,56,0
1,55,45,4
1,59,49,0
1,71,59,4
1,52,51,4
1,44,51,20
1,77,72,4
1,53,51,12
1,60,43,20
1,65,18,8
1,75,62,184
1,45,50,4
1,66,59,144
1,63,50,12
1,54,48,12
1,65,61,52
1,46,48,20
1,53,40,12
1,56,49,4
1,68,48,4
1,72,65,12
1,60,50,24
1,39,51,0
1,48,48,0
1,73,72,164
1,49,52,8
1,61,45,0
1,77,71,40
1,53,26,8
1,65,47,0
1,44,39,4
1,60,26,24
1,75,64,52
1,51,51,4
1,70,27,0
1,45,54,36
1,66,65,128
1,54,48,32
1,65,63,44
1,53,45,52
1,46,56,0
1,68,65,44
1,56,57,20
1,60,49,0
1,72,66,36
1,39,52,36
1,55,45,16
1,48,42,4
1,73,72,108
1,61,53,0
1,49,50,0
1,77,72,28
1,53,33,4
1,44,42,12
1,65,45,4
1,60,45,0
1,75,69,32
1,51,49,0
1,63,15,24
1,55,50,24
1,46,39,4
1,79,74,0
1,61,56,4
1,67,49,8
1,77,72,24
1,65,63,0
1,47,48,20
1,80,78,0
1,56,45,8
1,62,51,0
1,68,52,16
1,79,73,8
1,67,54,0
1,48,42,68
1,58,48,44
1,82,72,0
1,63,43,20
1,70,46,4
1,80,59,124
1,68,46,4
1,49,53,92
1,84,72,12
1,82,46,0
1,80,59,60
1,78,56,0
1,76,54,12
1,75,56,88
1,74,64,52
1,73,63,12
1,72,71,28
1,48,48,28
1,63,50,0
1,82,74,36
1,47,56,0
1,70,64,4
1,74,38,24
1,62,51,72
1,56,56,12
1,80,67,4
1,68,62,12
1,79,72,72
1,61,50,0
1,67,53,0
1,55,49,0
1,46,50,0
1,82,72,164
1,70,53,0
1,80,68,24
1,56,49,16
1,68,56,0
1,47,48,0
1,62,53,4
1,77,65,24
1,55,43,32
1,75,64,12
1,67,57,0
1,51,53,0
1,61,45,4
1,79,75,48
1,77,68,36
1,59,56,20
1,49,45,4
1,73,72,28
1,42,51,12
1,72,72,4
1,58,55,8
1,52,44,8
1,84,69,224
1,80,56,20
1,64,56,0
1,58,47,0
1,76,26,4
1,68,39,20
1,69,75,516
1,73,82,0
1,72,71,44
1,75,74,24
1,77,72,52
1,73,76,4
1,61,57,0
1,46,60,0
1,53,57,0
1,77,62,4
1,73,70,16
1,41,53,88
1,69,62,4
1,73,71,0
1,51,47,12
1,57,44,0
1,65,44,12
1,69,60,28
1,73,71,0
1,65,44,4
1,56,39,92
1,65,50,16
1,70,61,4
1,46,44,4
1,62,51,8
1,67,42,8
1,70,66,100
1,62,45,16
1,68,64,28
1,49,45,8
1,67,54,44
1,50,48,0
1,60,50,36
1,65,48,0
1,68,58,8
1,51,44,4
1,39,53,0
1,99,61,500
1,63,50,4
1,87,46,8
1,76,75,4
1,55,55,4
1,67,46,8
1,49,56,0
1,64,59,4
1,59,56,4
1,71,62,0
1,52,45,8
1,77,73,28
1,44,48,0
1,53,43,16
1,60,38,0
1,75,71,48
1,45,58,48
1,66,61,44
1,63,55,16
1,54,53,24
1,65,71,40
1,53,40,20
1,46,46,12
1,68,68,0
1,56,61,8
1,72,72,32
1,39,61,16
1,48,46,0
1,60,56,0
1,73,75,128
1,49,63,8
1,61,52,12
1,77,74,60
1,44,51,0
1,53,56,8
1,65,45,4
1,75,69,16
1,60,57,4
1,70,34,0
1,45,61,48
1,66,50,128
1,54,55,32
1,65,72,52
1,53,43,4
1,46,48,16
1,56,61,16
1,68,62,16
1,72,70,32
1,39,56,0
1,60,47,12
1,48,49,0
1,49,59,148
1,73,72,8
1,61,50,16
1,77,71,52
1,53,57,0
1,65,48,4
1,44,32,8
1,60,44,16
1,67,29,16
1,75,66,20
1,51,54,4
1,79,70,28
1,46,51,12
1,55,56,4
1,61,56,4
1,65,63,12
1,77,62,4
1,47,53,24
1,56,54,4
1,80,72,0
1,68,60,4
1,62,56,4
1,67,67,84
1,79,66,4
1,48,54,12
1,82,74,0
1,70,57,8
1,51,33,36
1,68,63,56
1,80,66,8
1,58,56,0
1,63,52,4
1,72,66,20
1,76,65,36
1,49,56,8
1,80,66,44
1,84,69,8
1,60,58,8
1,82,45,36
1,80,48,36
1,78,68,52
1,76,68,16
1,75,46,24
1,74,65,36
1,73,64,4
1,72,71,36
1,48,51,0
1,63,61,0
1,70,73,36
1,82,75,4
1,74,54,0
1,47,55,4
1,56,59,80
1,62,45,0
1,80,68,8
1,68,61,12
1,55,59,64
1,67,62,4
1,79,74,0
1,61,53,0
1,46,41,12
1,82,70,40
1,70,63,4
1,56,60,12
1,47,53,0
1,80,66,8
1,62,56,4
1,68,56,12
1,77,71,44
1,67,60,40
1,55,51,8
1,75,60,0
1,46,56,12
1,61,51,0
1,79,72,24
1,77,69,44
1,59,57,12
1,49,45,16
1,73,68,0
1,52,56,8
1,42,49,12
1,72,66,8
1,58,45,12
1,58,53,232
1,84,69,8
1,76,40,0
1,64,55,0
1,80,56,4
1,68,61,0
1,57,53,60
1,67,56,0
1,69,70,48
1,73,78,0
1,72,59,48
1,75,76,16
1,77,72,52
1,61,59,0
1,73,72,0
1,53,54,8
1,46,60,4
1,77,60,20
1,73,71,12
1,41,59,32
1,51,51,8
1,69,60,4
1,73,70,4
1,57,50,0
1,65,54,12
1,69,66,32
1,73,68,4
1,65,45,12
1,56,59,32
1,67,70,8
1,70,72,12
1,46,51,4
1,50,36,4
1,62,47,8
1,70,72,32
1,67,54,12
1,49,57,16
1,68,65,4
1,50,54,44
1,67,65,0
1,65,53,32
1,68,65,4
1,60,49,8
1,51,40,0
1,44,45,0
1,39,49,4
1,80,47,404
1,92,53,0
1,87,48,8
1,72,57,24
1,75,45,260
1,74,54,36
1,73,63,16
1,49,52,8
1,75,69,4
1,79,72,48
1,67,60,0
1,63,47,4
1,58,46,0
1,82,73,100
1,70,55,20
1,80,66,60
1,68,61,12
1,48,51,4
1,75,54,12
1,58,53,0
1,63,51,0
1,75,52,28
1,74,51,28
1,49,56,28
1,73,63,16
1,75,65,136
1,58,53,52
1,63,50,8
1,79,67,12
1,67,59,0
1,82,75,104
1,70,52,12
1,80,67,60
1,68,63,12
1,48,56,0
1,58,53,132
1,63,51,0
1,75,54,16
1,74,62,36
1,73,64,16
1,49,56,16
1,75,74,116
1,79,76,64
1,63,54,8
1,67,59,0
1,58,51,0
1,82,74,96
1,70,61,4
1,48,59,48
1,58,56,8
1,80,72,12
1,68,62,4
1,68,24,48
1,75,59,0
1,41,58,68
1,51,54,20
1,75,60,8
1,57,50,4
1,68,42,8
1,75,44,80
1,76,57,28
1,46,56,48
1,61,61,8
1,77,63,16
1,77,59,56
1,51,50,88
1,73,64,0
1,67,56,4
1,67,55,140
1,60,57,120
1,68,59,0
1,44,51,16
1,51,51,68
1,32,60,56
1,75,55,336
1,74,59,124
1,49,53,28
1,73,63,0
1,63,59,8
1,55,45,8
1,58,45,4
1,75,69,24
1,79,75,12
1,64,61,8
1,70,55,0
1,58,45,0
1,82,73,32
1,58,58,44
1,48,53,16
1,51,40,0
1,80,66,4
1,75,75,76
1,67,60,12
1,41,56,72
1,75,74,12
1,51,53,4
1,67,66,8
1,57,53,4
1,74,75,36
1,66,65,0
1,65,63,52
1,73,67,8
1,46,56,0
1,61,60,8
1,75,75,4
1,67,62,0
1,49,53,24
1,79,68,4
1,58,54,0
1,64,61,4
1,70,63,4
1,82,80,104
1,80,72,60
1,72,72,8
1,48,59,0
1,75,73,68
1,67,63,0
1,45,57,4
1,54,39,20
1,60,35,4
1,74,75,40
1,66,65,8
1,65,60,68
1,55,52,0
1,73,70,0
1,46,38,20
1,61,55,4
1,75,72,68
1,67,56,0
1,79,72,8
1,49,57,8
1,64,56,0
1,58,54,0
1,70,60,0
1,82,79,92
1,80,72,48
1,56,59,0
1,48,52,4
1,72,54,4
1,75,69,60
1,67,68,0
1,41,53,52
1,51,60,0
1,75,69,12
1,43,36,4
1,57,51,8
1,67,58,4
1,75,59,72
1,67,37,8
1,76,67,12
1,77,76,0
1,53,35,0
1,61,57,12
1,46,49,12
1,77,67,104
1,51,53,8
1,73,70,8
1,65,60,0
1,67,70,60
1,52,49,0
1,45,49,4
1,61,61,4
1,51,54,112
1,68,66,0
1,60,66,0
1,51,71,176
1,39,66,4
1,32,72,12
1,44,62,272
1,51,57,52
1,80,80,20
1,59,72,4
1,68,69,0
1,75,65,0
1,71,60,4
1,75,67,196
1,68,70,4
1,80,61,8
1,80,71,28
1,68,66,4
1,75,67,4
1,59,43,44
1,68,22,36
1,51,45,0
1,42,70,0
1,51,63,68
1,59,63,0
1,82,74,4
1,70,63,16
1,79,71,96
1,67,65,4
1,80,79,36
1,68,65,8
1,82,74,76
1,70,63,4
1,83,78,24
1,71,74,8
1,74,58,0
1,40,69,4
1,78,51,12
1,56,72,84
1,74,68,12
1,66,63,0
1,62,61,0
1,74,79,48
1,66,65,4
1,62,58,4
1,56,64,116
1,74,72,0
1,62,49,4
1,66,48,8
1,62,48,96
1,83,71,144
1,74,60,8
1,78,63,0
1,71,59,0
1,85,80,76
1,73,70,0
1,71,67,84
1,83,57,8
1,39,70,64
1,82,61,12
1,70,64,12
1,55,61,44
1,73,72,16
1,61,62,12
1,70,39,20
1,73,61,8
1,61,60,0
1,70,49,8
1,58,52,8
1,73,64,96
1,61,57,16
1,70,49,8
1,36,62,28
1,84,80,188
1,72,68,12
1,76,60,0
1,58,49,80
1,60,39,0
1,64,27,16
1,82,69,104
1,70,64,0
1,41,48,16
1,80,71,4
1,48,45,4
1,68,63,8
1,76,48,12
1,56,59,20
1,57,57,20
1,51,50,4
1,60,66,20
1,60,58,116
1,46,40,68
1,62,61,16
1,56,57,8
1,67,52,24
1,72,72,0
1,71,61,92
1,66,63,0
1,54,36,108
1,70,67,8
1,55,50,8
1,61,51,0
1,65,45,4
1,39,69,8
1,76,67,328
1,55,53,0
1,67,51,8
1,59,53,0
1,71,57,0
1,64,57,0
1,52,44,0
1,49,32,24
1,77,61,12
1,44,45,4
1,53,43,4
1,72,43,0
1,65,40,8
1,60,33,12
1,75,61,12
1,51,44,16
1,45,50,16
1,66,59,120
1,63,33,40
1,54,50,0
1,65,56,24
1,53,51,24
1,46,40,24
1,56,59,36
1,68,62,0
1,72,65,32
1,60,45,52
1,48,44,8
1,49,57,120
1,61,50,4
1,73,67,8
1,44,51,32
1,77,66,12
1,53,42,4
1,65,24,24
1,75,54,20
1,51,50,32
1,45,42,24
1,66,59,36
1,54,50,16
1,65,57,44
1,46,39,32
1,53,17,20
1,56,51,20
1,68,57,0
1,72,66,8
1,39,52,32
1,48,46,12
1,49,57,160
1,73,68,0
1,61,32,4
1,77,68,40
1,53,45,4
1,60,47,16
1,67,31,16
1,75,69,28
1,51,45,16
1,63,46,12
1,46,47,4
1,79,72,4
1,55,51,12
1,67,52,4
1,61,53,0
1,77,72,36
1,65,53,16
1,67,41,4
1,80,79,12
1,62,58,12
1,47,51,0
1,68,61,4
1,79,72,76
1,67,61,4
1,48,47,64
1,58,44,8
1,82,72,8
1,70,59,12
1,63,42,0
1,80,61,40
1,68,55,0
1,49,53,36
1,72,64,4
1,84,72,40
1,60,55,16
1,64,51,156
1,70,62,60
1,64,57,0
1,66,53,8
1,48,50,36
1,51,40,0
1,63,63,8
1,47,54,44
1,58,56,0
1,74,56,12
1,82,67,4
1,70,49,12
1,62,37,4
1,77,50,0
1,56,58,48
1,80,66,8
1,68,63,0
1,55,54,40
1,61,53,4
1,79,72,4
1,67,56,0
1,46,46,20
1,82,71,20
1,70,66,0
1,80,70,52
1,56,56,4
1,47,50,4
1,68,65,0
1,62,52,4
1,77,72,44
1,61,50,56
1,75,69,0
1,55,40,0
1,51,48,4
1,67,50,12
1,79,79,28
1,77,65,36
1,49,49,12
1,59,52,4
1,73,63,36
1,42,44,16
1,52,48,16
1,72,63,4
1,58,46,4
1,72,40,92
1,76,40,24
1,58,45,12
1,64,51,0
1,84,65,0
1,80,50,4
1,68,51,0
1,67,50,32
1,57,43,8
1,60,53,4
1,69,72,148
1,73,78,4
1,72,66,32
1,75,73,8
1,77,72,32
1,61,54,12
1,53,49,0
1,73,75,4
1,46,45,0
1,65,31,36
1,67,36,0
1,65,59,72
1,77,66,8
1,73,70,0
1,67,24,24
1,41,50,76
1,69,72,4
1,51,45,12
1,57,49,0
1,72,59,4
1,69,57,28
1,73,63,0
1,56,48,88
1,70,66,4
1,67,61,8
1,46,45,20
1,70,60,140
1,67,51,8
1,49,48,28
1,68,66,0
1,67,65,32
1,50,45,4
1,38,43,52
1,60,58,64
1,63,64,32
1,68,72,16
1,54,74,16
1,54,31,360
1,63,41,8
1,60,24,40
1,80,56,304
1,84,72,68
1,87,73,104
1,92,73,112
1,91,74,40
1,86,69,4
1,55,61,0
1,79,69,0
1,43,56,0
1,67,57,556
1,68,60,104
1,71,59,64
1,74,61,24
1,77,67,0
1,79,65,60
1,80,41,32
1,81,53,0
1,83,74,0
1,84,69,0
1,91,72,0
1,67,78,80
1,80,73,12
1,71,65,0
1,75,66,4
1,68,69,0
1,81,66,12
1,72,59,0
1,36,49,4
1,69,45,4
1,76,54,8
1,52,30,88
1,79,61,128
1,37,52,0
1,67,54,4
1,76,53,12
1,70,45,4
1,73,39,0
1,71,40,56
1,74,45,4
1,38,51,8
1,53,52,96
1,71,56,4
1,76,59,8
1,43,48,4
1,64,49,4
1,53,39,116
1,65,56,12
1,77,61,0
1,81,66,104
1,36,49,4
1,69,61,0
1,76,57,4
1,36,45,96
1,52,42,0
1,75,40,8
1,79,70,20
1,67,46,24
1,37,49,4
1,76,49,4
1,73,29,12
1,52,33,104
1,71,47,24
1,74,50,0
1,38,50,8
1,53,55,76
1,71,52,32
1,43,48,36
1,76,58,4
1,64,45,12
1,73,28,20
1,53,61,80
1,42,7,8
1,77,63,4
1,65,52,16
1,52,53,56
1,81,78,0
1,36,42,8
1,69,56,8
1,79,71,144
1,67,62,8
1,38,35,40
1,83,74,0
1,53,61,4
1,71,59,8
1,81,66,156
1,69,50,4
1,84,76,28
1,72,67,4
1,39,56,68
1,54,56,4
1,83,59,108
1,71,51,16
1,40,47,72
1,86,66,8
1,74,58,4
1,55,54,0
1,84,59,92
1,72,46,4
1,88,72,72
1,76,68,0
1,47,57,4
1,57,61,4
1,81,60,4
1,56,64,60
1,41,42,12
1,56,53,136
1,59,51,12
1,55,71,92
1,45,54,12
1,81,61,16
1,39,55,44
1,54,62,4
1,86,73,24
1,74,65,0
1,84,67,132
1,72,66,4
1,71,65,124
1,83,57,12
1,77,56,0
1,38,57,4
1,53,54,8
1,86,67,160
1,74,63,0
1,39,45,60
1,54,42,0
1,72,68,20
1,84,61,0
1,69,52,24
1,81,50,0
1,67,65,20
1,79,63,4
1,38,40,0
1,53,37,4
1,39,53,144
1,54,44,4
1,83,64,8
1,74,58,0
1,71,54,4
1,77,48,8
1,38,38,64
1,69,66,4
1,53,49,0
1,74,46,4
1,81,40,4
1,77,20,8
1,77,53,72
1,74,49,20
1,65,43,4
1,72,66,72
1,64,72,8
1,46,53,0
1,76,64,4
1,56,50,0
1,63,63,164
1,62,66,40
1,56,52,12
1,46,28,16
1,56,61,72
1,67,53,4
1,64,65,4
1,69,57,8
1,55,59,60
1,61,50,0
1,56,69,132
1,55,61,0
1,40,51,4
1,54,65,136
1,39,54,0
1,53,61,36
1,74,63,16
1,69,62,0
1,77,63,0
1,38,47,0
1,81,57,0
1,69,61,12
1,77,45,20
1,81,50,0
1,55,58,56
1,40,42,0
1,69,56,12
1,73,57,0
1,77,40,0
1,49,45,4
1,69,57,112
