track,note,velocity,time
1,53,81,8040
1,48,101,1926
1,53,97,1818
1,48,96,1918
1,65,100,26520
1,65,96,296
1,65,101,96
1,65,98,498
1,62,105,144
1,60,101,300
1,59,102,310
1,64,107,900
1,64,81,276
1,64,105,128
1,62,93,502
1,60,101,126
1,65,100,1646
1,65,96,296
1,65,101,96
1,65,98,498
1,62,105,144
1,60,101,300
1,59,102,310
1,64,107,900
1,64,81,276
1,64,105,128
1,62,93,502
1,60,101,126
1,65,100,1646
1,65,96,296
1,65,101,96
1,65,98,498
1,62,105,144
1,60,101,300
1,59,102,310
1,64,107,900
1,64,81,276
1,64,105,128
1,62,93,502
1,60,101,126
1,67,93,10862
1,77,94,384
1,76,98,0
1,74,94,0
1,72,109,0
1,69,121,18432
1,74,102,40
1,67,109,0
1,76,98,68
1,69,90,0
1,79,104,768
1,67,97,64
1,74,101,0
1,69,102,72
1,72,98,0
1,65,90,0
1,74,94,84
1,71,92,0
1,67,92,0
1,76,102,130
1,77,93,14
1,79,86,32
1,72,98,384
1,81,97,52
1,79,81,22
1,77,82,16
1,79,90,26
1,72,94,58
1,81,84,10
1,84,93,20
1,79,102,384
1,72,97,46
1,74,98,0
1,74,58,60
1,76,102,638
1,77,93,14
1,79,86,32
1,72,98,384
1,81,97,52
1,79,81,22
1,77,82,16
1,79,90,26
1,72,94,58
1,81,84,10
1,84,93,20
1,79,102,384
1,72,97,46
1,74,98,0
1,74,58,60
1,76,102,638
1,77,93,14
1,79,86,32
1,72,98,384
1,81,97,52
1,79,81,22
1,77,82,16
1,79,90,26
1,72,94,58
1,81,84,10
1,84,93,20
1,79,102,384
1,72,97,46
1,74,98,0
1,74,58,60
1,76,102,638
1,77,93,14
1,79,86,32
1,72,98,384
1,81,97,52
1,79,81,22
1,77,82,16
1,79,90,26
1,72,94,58
1,81,84,10
1,84,93,20
1,79,102,384
1,72,97,46
1,74,98,0
1,74,58,60
1,76,102,638
1,77,93,14
1,79,86,32
1,72,98,384
1,81,97,52
1,79,81,22
1,77,82,16
1,79,90,26
1,72,94,58
1,81,84,10
1,84,93,20
1,79,102,384
1,72,97,46
1,74,98,0
1,74,58,60
1,76,102,638
1,77,93,14
1,79,86,32
1,72,98,384
1,81,97,52
1,79,81,22
1,77,82,16
1,79,90,26
1,72,94,58
1,81,84,10
1,84,93,20
1,79,102,384
1,72,97,46
1,74,98,0
1,74,58,60
1,76,102,638
1,77,93,14
1,79,86,32
1,72,98,384
1,81,97,52
1,79,81,22
1,77,82,16
1,79,90,26
1,72,94,58
1,81,84,10
1,84,93,20
1,79,102,384
1,72,97,46
1,74,98,0
1,74,58,60
1,76,102,638
1,77,93,14
1,79,86,32
1,72,98,384
1,81,97,52
1,79,81,22
1,77,82,16
1,79,90,26
1,72,94,58
1,81,84,10
1,84,93,20
1,79,102,384
1,72,97,46
1,74,98,0
1,74,58,60
1,76,102,638
1,77,93,14
1,79,86,32
1,72,98,384
1,81,97,52
1,79,81,22
1,77,82,16
1,79,90,26
1,72,94,58
1,81,84,10
1,84,93,20
1,79,102,384
1,72,97,46
1,74,98,0
1,74,58,60
1,76,102,638
1,77,93,14
1,79,86,32
1,72,98,384
1,81,97,52
1,79,81,22
1,77,82,16
1,79,90,26
1,72,94,58
1,81,84,10
1,84,93,20
1,79,102,384
1,72,97,46
1,77,104,0
1,76,105,290
1,74,105,272
1,72,102,256
1,72,107,294
2,36,114,1896
2,48,114,236
2,36,107,772
2,36,116,1144
2,48,101,196
2,36,112,814
2,29,114,1160
2,41,114,90
2,29,107,396
2,24,123,256
2,36,121,66
2,24,112,414
2,36,121,242
2,48,109,26
2,36,125,794
2,29,114,820
2,41,114,90
2,29,107,396
2,24,123,256
2,36,121,66
2,24,112,414
2,36,121,242
2,48,109,26
2,36,125,794
2,29,121,820
2,41,112,34
2,29,87,400
2,31,125,208
2,43,104,52
2,31,127,446
2,36,123,248
2,48,112,30
2,36,109,446
2,29,114,284
2,41,111,58
2,29,118,432
2,38,125,260
2,50,121,18
2,38,114,492
2,31,127,272
2,43,116,34
2,31,125,454
2,36,109,216
2,36,105,94
2,36,107,130
2,36,118,132
2,36,116,146
2,36,114,130
2,36,112,122
2,36,105,104
2,28,104,46
2,29,109,62
2,29,105,94
2,29,107,130
2,29,118,132
2,29,116,146
2,31,109,0
2,31,114,94
2,31,112,122
2,31,105,104
2,31,104,46
2,36,109,62
2,36,105,94
2,36,107,130
2,36,118,132
2,36,116,146
2,36,114,130
2,36,112,122
2,36,105,104
2,36,104,46
2,29,109,62
2,29,105,94
2,29,107,130
2,29,118,132
2,29,116,146
2,31,109,0
2,31,114,94
2,31,112,122
2,31,105,104
2,31,104,46
2,36,109,62
2,36,105,94
2,36,107,130
2,36,118,132
2,36,116,146
2,36,114,130
2,36,112,122
2,36,105,104
2,36,104,46
2,29,109,62
2,29,105,94
2,29,107,130
2,29,118,132
2,29,116,146
2,31,109,0
2,31,114,94
2,31,112,122
2,31,105,104
2,31,104,46
2,36,109,62
2,36,105,94
2,36,107,130
2,36,118,132
2,36,116,146
2,29,109,0
2,29,114,94
2,29,112,122
2,29,105,104
2,29,104,46
2,38,109,62
2,38,105,94
2,38,107,130
2,38,118,132
2,38,116,146
2,31,109,0
2,31,114,94
2,31,112,122
2,31,105,104
2,31,104,46
2,36,109,62
2,36,105,94
2,36,107,130
2,36,118,132
2,36,116,146
2,29,109,0
2,29,114,94
2,29,112,122
2,29,105,104
2,29,104,46
2,38,109,62
2,38,105,94
2,38,107,130
2,38,118,132
2,38,116,146
2,31,109,0
2,31,114,94
2,31,112,122
2,31,105,104
2,31,104,46
2,36,109,62
2,36,105,94
2,36,107,130
2,36,118,132
2,36,116,146
2,29,109,0
2,29,114,94
2,29,112,122
2,29,105,104
2,29,104,46
2,38,109,62
2,38,105,94
2,38,107,130
2,38,118,132
2,38,116,146
2,31,109,0
2,31,114,94
2,31,112,122
2,31,105,104
2,31,104,46
2,36,109,62
2,36,105,94
2,36,107,130
2,36,118,132
2,36,116,146
2,36,109,0
2,36,114,94
2,36,112,122
2,36,105,104
2,36,104,46
2,29,109,62
2,29,105,94
2,29,107,130
2,29,118,132
2,29,116,146
2,31,109,0
2,31,114,94
2,31,112,122
2,31,105,104
2,31,104,46
2,36,109,62
2,36,105,94
2,36,107,130
2,36,118,132
2,36,116,146
2,36,109,0
2,36,114,94
2,36,112,122
2,36,105,104
2,36,104,46
2,29,109,62
2,29,105,94
2,29,107,130
2,29,118,132
2,29,116,146
2,31,109,0
2,31,114,94
2,31,112,122
2,31,105,104
2,31,104,46
2,36,109,62
2,36,105,94
2,36,107,130
2,36,118,132
2,36,116,146
2,36,109,0
2,36,114,94
2,36,112,122
2,36,105,104
2,36,104,46
2,29,109,62
2,29,105,94
2,29,107,130
2,29,118,132
2,29,116,146
2,31,109,0
2,31,114,94
2,31,112,122
2,31,105,104
2,31,104,46
2,36,109,62
2,36,105,94
2,36,107,130
2,36,118,132
2,36,116,146
2,29,109,0
2,29,114,94
2,29,112,122
2,29,105,104
2,29,104,46
2,38,109,62
2,38,105,94
2,38,107,130
2,38,118,132
2,38,116,146
2,31,109,0
2,31,114,94
2,31,112,122
2,31,105,104
2,31,104,46
2,36,109,62
2,36,105,94
2,36,107,130
2,36,118,132
2,36,116,146
2,29,109,0
2,29,114,94
2,29,112,122
2,36,109,0
2,36,105,94
2,36,104,46
2,33,123,62
2,28,107,44
2,31,118,192
2,31,112,40
2,28,105,992
2,33,123,22
2,28,107,44
2,31,118,192
2,31,112,40
2,40,105,992
2,41,112,22
2,40,109,1152
2,41,101,28
2,43,121,40
2,47,105,4
2,48,100,86
2,36,107,24
2,36,114,122
2,36,111,136
2,28,98,126
2,29,114,48
2,29,112,88
2,33,107,114
2,36,102,24
2,36,105,106
2,36,114,126
2,29,111,22
2,29,114,78
2,33,101,182
2,36,101,34
2,36,104,94
2,36,102,134
2,38,109,62
2,38,105,124
2,38,112,134
2,31,107,36
2,31,111,112
2,31,123,146
2,48,100,32
2,36,107,24
2,36,114,122
2,36,111,136
2,28,98,126
2,29,114,48
2,29,112,88
2,33,107,114
2,36,102,24
2,36,105,106
2,36,114,126
2,29,111,22
2,29,114,78
2,33,101,182
2,36,101,34
2,36,104,94
2,36,102,134
2,38,109,62
2,38,105,124
2,38,112,134
2,31,107,36
2,31,111,112
2,31,123,146
2,48,100,32
2,36,107,24
2,36,114,122
2,36,111,136
2,28,98,126
2,29,114,48
2,29,112,88
2,33,107,114
2,36,102,24
2,36,105,106
2,36,114,126
2,29,111,22
2,29,114,78
2,33,101,182
2,36,101,34
2,36,104,94
2,36,102,134
2,38,109,62
2,38,105,124
2,38,112,134
2,31,107,36
2,31,111,112
2,31,123,146
2,48,100,32
2,36,107,24
2,36,114,122
2,36,111,136
2,28,98,126
2,29,114,48
2,29,112,88
2,33,107,114
2,36,102,24
2,36,105,106
2,36,114,126
2,29,111,22
2,29,114,78
2,33,101,182
2,36,101,34
2,36,104,94
2,36,102,134
2,38,109,62
2,38,105,124
2,38,112,134
2,31,107,36
2,31,111,112
2,31,123,146
2,48,100,32
2,36,107,24
2,36,114,122
2,36,111,136
2,28,98,126
2,29,114,48
2,29,112,88
2,33,107,114
2,36,102,24
2,36,105,106
2,36,114,126
2,29,111,22
2,29,114,78
2,33,101,182
2,36,101,34
2,36,104,94
2,36,102,134
2,38,109,62
2,38,105,124
2,38,112,134
2,31,107,36
2,31,111,112
2,31,123,146
2,48,100,32
2,36,107,24
2,36,114,122
2,36,111,136
2,28,98,126
2,29,114,48
2,29,112,88
2,33,107,114
2,36,102,24
2,36,105,106
2,36,114,126
2,29,111,22
2,29,114,78
2,33,101,182
2,36,101,34
2,36,104,94
2,36,102,134
2,38,109,62
2,38,105,124
2,38,112,134
2,31,107,36
2,31,111,112
2,31,123,146
2,48,100,32
2,36,107,24
2,36,114,122
2,36,111,136
2,28,98,126
2,29,114,48
2,29,112,88
2,33,107,114
2,36,102,24
2,36,105,106
2,36,114,126
2,29,111,22
2,29,114,78
2,33,101,182
2,36,101,34
2,36,104,94
2,36,102,134
2,38,109,62
2,38,105,124
2,38,112,134
2,31,107,36
2,31,111,112
2,31,123,146
2,48,100,32
2,36,107,24
2,36,114,122
2,36,111,136
2,28,98,126
2,29,114,48
2,29,112,88
2,33,107,114
2,36,102,24
2,36,105,106
2,36,114,126
2,29,111,22
2,29,114,78
2,33,101,182
2,36,101,34
2,36,104,94
2,36,102,134
2,38,109,62
2,38,105,124
2,38,112,134
2,31,107,36
2,31,111,112
2,31,123,146
2,48,100,32
2,36,107,24
2,36,114,122
2,36,111,136
2,28,98,126
2,29,114,48
2,29,112,88
2,33,107,114
2,36,102,24
2,36,105,106
2,36,114,126
2,29,111,22
2,29,114,78
2,33,101,182
2,36,101,34
2,36,104,94
2,36,102,134
2,38,109,62
2,38,105,124
2,38,112,134
2,31,107,36
2,31,111,112
2,31,123,146
2,48,100,32
2,36,107,24
2,36,114,122
2,36,111,136
2,28,98,126
2,29,114,48
2,29,112,88
2,33,107,114
2,36,102,24
2,36,105,106
2,36,114,126
2,29,111,22
2,29,114,78
2,33,101,182
2,36,101,34
2,36,104,94
2,36,102,134
2,38,109,62
2,38,105,124
2,38,112,134
2,31,107,36
2,31,111,112
2,31,123,146
2,36,125,32
3,67,112,115560
3,72,107,0
3,76,114,0
3,77,90,340
3,74,93,0
3,79,121,126
3,76,107,0
3,72,112,312
3,64,109,0
3,65,111,208
3,69,127,0
3,72,123,0
3,67,123,278
3,64,112,0
3,72,112,0
3,77,105,20
3,72,102,0
3,81,111,0
3,76,100,168
3,79,107,0
3,74,109,294
3,77,107,0
3,72,109,296
3,76,116,0
3,65,101,320
3,72,109,0
3,69,109,0
3,69,111,294
3,72,112,0
3,65,104,0
3,67,105,262
3,67,112,94
3,72,107,0
3,76,114,0
3,77,90,340
3,74,93,0
3,79,121,126
3,76,107,0
3,72,112,312
3,64,109,0
3,65,111,208
3,69,127,0
3,72,123,0
3,67,123,278
3,64,112,0
3,72,112,0
3,77,105,20
3,72,102,0
3,81,111,0
3,76,100,168
3,79,107,0
3,74,109,294
3,77,107,0
3,72,109,296
3,76,116,0
3,65,101,320
3,72,109,0
3,69,109,0
3,69,111,294
3,72,112,0
3,65,104,0
3,67,105,262
3,67,112,94
3,72,107,0
3,76,114,0
3,77,90,340
3,74,93,0
3,79,121,126
3,76,107,0
3,72,112,312
3,64,109,0
3,65,111,208
3,69,127,0
3,72,123,0
3,67,123,278
3,64,112,0
3,72,112,0
3,77,105,20
3,72,102,0
3,81,111,0
3,76,100,168
3,79,107,0
3,74,109,294
3,77,107,0
3,72,109,296
3,76,116,0
3,65,101,320
3,72,109,0
3,69,109,0
3,69,111,294
3,72,112,0
3,65,104,0
3,67,105,262
3,67,112,94
3,72,107,0
3,76,114,0
3,77,90,340
3,74,93,0
3,79,121,126
3,76,107,0
3,72,112,312
3,64,109,0
3,65,111,208
3,69,127,0
3,72,123,0
3,67,123,278
3,64,112,0
3,72,112,0
3,77,105,20
3,72,102,0
3,81,111,0
3,76,100,168
3,79,107,0
3,74,109,294
3,77,107,0
3,72,109,296
3,76,116,0
3,65,101,320
3,72,109,0
3,69,109,0
3,69,111,294
3,72,112,0
3,65,104,0
3,67,105,262
3,67,112,94
3,72,107,0
3,76,114,0
3,77,90,340
3,74,93,0
3,79,121,126
3,76,107,0
3,72,112,312
3,64,109,0
3,65,111,208
3,69,127,0
3,72,123,0
3,67,123,278
3,64,112,0
3,72,112,0
3,77,105,20
3,72,102,0
3,81,111,0
3,76,100,168
3,79,107,0
3,74,109,294
3,77,107,0
3,72,109,296
3,76,116,0
3,65,101,320
3,72,109,0
3,69,109,0
3,69,111,294
3,72,112,0
3,65,104,0
3,67,105,262
3,67,112,94
3,72,107,0
3,76,114,0
3,77,90,340
3,74,93,0
3,79,121,126
3,76,107,0
3,72,112,312
3,64,109,0
3,65,111,208
3,69,127,0
3,72,123,0
3,67,123,278
3,64,112,0
3,72,112,0
3,77,105,20
3,72,102,0
3,81,111,0
3,76,100,168
3,79,107,0
3,74,109,294
3,77,107,0
3,72,109,296
3,76,116,0
3,65,101,320
3,72,109,0
3,69,109,0
3,69,111,294
3,72,112,0
3,65,104,0
3,67,105,262
3,67,112,94
3,72,107,0
3,76,114,0
3,77,90,340
3,74,93,0
3,79,121,126
3,76,107,0
3,72,112,312
3,64,109,0
3,65,111,208
3,69,127,0
3,72,123,0
3,67,123,278
3,64,112,0
3,72,112,0
3,77,105,20
3,72,102,0
3,81,111,0
3,76,100,168
3,79,107,0
3,74,109,294
3,77,107,0
3,72,109,296
3,76,116,0
3,65,101,320
3,72,109,0
3,69,109,0
3,69,111,294
3,72,112,0
3,65,104,0
3,67,105,262
3,67,112,94
3,72,107,0
3,76,114,0
3,77,90,340
3,74,93,0
3,79,121,126
3,76,107,0
3,72,112,312
3,64,109,0
3,65,111,208
3,69,127,0
3,72,123,0
3,67,123,278
3,64,112,0
3,72,112,0
3,77,105,20
3,72,102,0
3,81,111,0
3,76,100,168
3,79,107,0
3,74,109,294
3,77,107,0
3,72,109,296
3,76,116,0
3,65,101,320
3,72,109,0
3,69,109,0
3,69,111,294
3,72,112,0
3,65,104,0
3,67,105,262
3,43,127,94
3,60,118,0
3,52,116,0
3,36,116,0
3,67,92,404
3,62,94,296
3,55,96,422
3,36,100,320
4,48,99,28
4,36,99,2408
4,36,99,22952
4,53,99,12482
4,55,99,34
4,72,99,1536
4,76,99,0
4,79,99,0
4,48,99,0
4,77,99,60
4,81,99,0
4,72,99,0
4,53,99,0
4,55,99,28
4,57,99,10
4,53,99,10
4,55,99,34
4,72,99,1536
4,76,99,0
4,79,99,0
4,48,99,0
4,77,99,60
4,81,99,0
4,72,99,0
4,53,99,0
4,55,99,28
4,57,99,10
4,53,99,10
4,55,99,34
4,72,99,1536
4,76,99,0
4,79,99,0
4,48,99,0
4,77,99,60
4,81,99,0
4,72,99,0
