track,note,velocity,time
0,48,100,126
0,60,124,0
0,36,104,306
0,48,126,23
0,72,111,0
0,48,0,4
0,48,89,92
0,48,0,4
0,48,64,44
0,48,0,4
0,48,52,44
0,48,0,4
0,76,126,92
0,76,0,4
0,72,0,7
0,76,68,85
0,76,0,4
0,36,0,1
0,76,50,1
0,76,0,4
0,76,42,30
0,76,0,4
0,65,126,92
0,65,0,4
0,48,0,16
0,60,0,4
0,65,71,72
0,65,0,4
0,65,64,44
0,65,0,4
0,48,126,44
0,48,0,4
0,48,89,92
0,48,0,4
0,48,64,44
0,48,0,4
0,48,52,44
0,48,0,4
0,76,126,92
0,76,0,4
0,76,68,92
0,76,0,4
0,76,50,44
0,76,0,4
0,76,42,44
0,76,0,4
0,65,126,92
0,65,0,4
0,65,71,92
0,65,0,4
0,65,64,44
0,65,0,4
0,36,104,21
0,48,126,23
0,72,111,0
0,48,0,4
0,48,89,92
0,48,0,4
0,48,64,44
0,48,0,4
0,48,52,44
0,48,0,4
0,76,126,92
0,76,0,4
0,72,0,7
0,36,0,82
0,76,68,3
0,76,0,4
0,76,50,44
0,76,0,4
0,76,42,44
0,76,0,4
0,65,126,92
0,65,0,4
0,65,71,92
0,65,0,4
0,65,64,44
0,65,0,4
0,48,126,44
0,48,0,4
0,48,89,92
0,48,0,4
0,48,64,44
0,48,0,4
0,48,52,44
0,48,0,4
0,76,126,92
0,76,0,4
0,76,68,92
0,76,0,4
0,60,101,2
0,76,50,42
0,76,0,4
0,76,42,44
0,76,0,4
0,60,0,4
0,60,102,42
0,53,110,46
0,65,126,0
0,65,107,0
0,65,0,4
0,60,0,43
0,69,101,37
0,65,71,12
0,65,0,4
0,65,64,44
0,65,0,4
0,29,104,21
0,69,0,8
0,48,126,15
0,48,0,4
0,69,100,28
0,48,89,64
0,48,0,4
0,48,64,44
0,48,0,4
0,48,52,44
0,48,0,4
0,48,101,92
0,53,101,0
0,76,126,0
0,76,0,4
0,29,0,14
0,76,68,78
0,76,0,4
0,48,0,43
0,53,0,0
0,76,50,1
0,76,0,4
0,69,0,2
0,48,109,42
0,53,108,0
0,76,42,0
0,76,0,4
0,65,126,92
0,65,0,4
0,48,0,43
0,53,0,0
0,48,113,49
0,53,113,0
0,65,71,0
0,65,0,4
0,65,64,44
0,65,0,4
0,31,104,21
0,48,126,23
0,48,0,4
0,48,0,43
0,53,0,0
0,48,89,49
0,48,0,4
0,48,64,44
0,48,0,4
0,48,52,44
0,48,0,4
0,48,96,92
0,53,97,0
0,76,126,0
0,76,0,4
0,69,103,23
0,31,0,49
0,76,68,20
0,69,0,2
0,76,0,2
0,48,0,43
0,53,0,0
0,53,0,1
0,65,0,0
0,65,102,0
0,76,50,0
0,76,0,4
0,48,112,44
0,53,112,0
0,76,42,0
0,76,0,4
0,65,0,42
0,69,101,41
0,65,126,9
0,65,0,4
0,48,0,43
0,53,0,0
0,69,0,42
0,48,118,7
0,53,118,0
0,65,71,0
0,65,0,4
0,64,101,13
0,65,64,31
0,65,0,4
0,36,104,21
0,64,0,19
0,48,126,4
0,48,107,0
0,60,107,0
0,48,0,4
0,67,103,26
0,48,0,17
0,53,0,0
0,48,89,49
0,48,0,4
0,67,0,1
0,67,107,37
0,48,64,6
0,48,0,4
0,48,52,44
0,48,0,4
0,67,0,54
0,36,0,28
0,69,102,4
0,48,101,6
0,53,101,0
0,76,126,0
0,76,0,4
0,76,68,92
0,76,0,4
0,48,0,43
0,53,0,0
0,76,50,1
0,76,0,4
0,48,109,44
0,53,108,0
0,76,42,0
0,76,0,4
0,69,0,44
0,65,126,48
0,65,0,4
0,48,0,43
0,53,0,0
0,48,113,49
0,53,113,0
0,65,71,0
0,65,0,4
0,65,64,44
0,65,0,4
0,36,104,21
0,48,126,23
0,48,0,4
0,48,0,43
0,53,0,0
0,48,89,49
0,48,0,4
0,48,64,44
0,48,0,4
0,48,52,44
0,48,0,4
0,48,96,92
0,53,97,0
0,76,126,0
0,76,0,4
0,36,0,72
0,76,68,20
0,76,0,4
0,60,103,4
0,48,0,39
0,53,0,0
0,76,50,1
0,76,0,4
0,48,112,44
0,53,112,0
0,76,42,0
0,76,0,4
0,60,0,1
0,60,104,43
0,65,126,48
0,65,0,4
0,48,0,43
0,53,0,0
0,48,0,1
0,60,0,0
0,60,0,7
0,69,102,32
0,48,118,9
0,53,118,0
0,65,71,0
0,65,0,4
0,65,64,44
0,65,0,4
0,29,104,21
0,69,0,16
0,48,126,7
0,48,0,4
0,69,102,35
0,48,0,8
0,53,0,0
0,48,89,49
0,48,0,4
0,48,64,44
0,48,0,4
0,48,52,44
0,48,0,4
0,29,0,82
0,48,101,10
0,53,101,0
0,55,107,0
0,67,107,0
0,76,126,0
0,76,0,4
0,69,0,80
0,76,68,12
0,76,0,4
0,48,0,43
0,53,0,0
0,76,50,1
0,76,0,4
0,48,109,44
0,53,108,0
0,76,42,0
0,76,0,4
0,65,126,92
0,65,0,4
0,48,0,43
0,53,0,0
0,69,102,42
0,48,113,7
0,53,113,0
0,65,71,0
0,65,0,4
0,65,64,44
0,65,0,4
0,69,0,20
0,31,104,1
0,48,126,23
0,69,102,0
0,48,0,4
0,48,0,43
0,53,0,0
0,69,0,33
0,67,103,11
0,48,89,5
0,48,0,4
0,48,64,44
0,48,0,4
0,67,0,22
0,67,103,19
0,48,52,3
0,48,0,4
0,48,96,92
0,53,97,0
0,76,126,0
0,76,0,4
0,31,0,72
0,67,0,13
0,76,68,7
0,76,0,4
0,48,0,43
0,53,0,0
0,76,50,1
0,76,0,4
0,48,112,44
0,53,112,0
0,76,42,0
0,76,0,4
0,67,103,56
0,65,126,36
0,65,0,4
0,48,0,43
0,53,0,0
0,67,0,45
0,64,103,1
0,48,118,3
0,53,118,0
0,65,71,0
0,65,0,4
0,65,64,44
0,65,0,4
0,36,104,21
0,64,0,10
0,67,104,5
0,48,126,8
0,48,0,4
0,48,0,43
0,53,0,0
0,67,0,17
0,67,104,23
0,48,89,9
0,48,0,4
0,48,64,44
0,55,0,0
0,67,0,0
0,48,0,4
0,67,0,42
0,48,52,2
0,48,0,4
0,69,101,0
0,36,0,82
0,48,101,10
0,53,101,0
0,76,126,0
0,76,0,4
0,76,68,92
0,76,0,4
0,48,0,43
0,53,0,0
0,76,50,1
0,76,0,4
0,69,0,43
0,48,109,1
0,53,108,0
0,76,42,0
0,76,0,4
0,65,126,92
0,65,0,4
0,48,0,43
0,53,0,0
0,48,113,49
0,53,113,0
0,65,71,0
0,65,0,4
0,65,64,44
0,65,0,4
0,36,104,21
0,48,126,23
0,48,0,4
0,48,0,43
0,53,0,0
0,48,89,49
0,48,0,4
0,48,64,44
0,48,0,4
0,48,52,44
0,48,0,4
0,67,103,73
0,48,96,19
0,53,97,0
0,76,126,0
0,76,0,4
0,67,0,70
0,36,0,2
0,76,68,20
0,76,0,4
0,69,101,2
0,48,0,41
0,53,0,0
0,76,50,1
0,76,0,4
0,48,112,44
0,53,112,0
0,76,42,0
0,76,0,4
0,69,0,21
0,72,102,24
0,65,126,47
0,65,0,4
0,48,0,43
0,53,0,0
0,72,0,17
0,48,118,32
0,53,118,0
0,65,71,0
0,65,0,4
0,74,102,1
0,65,64,43
0,65,0,4
0,29,104,21
0,48,126,23
0,48,0,4
0,48,0,43
0,53,0,0
0,48,89,49
0,48,0,4
0,48,64,44
0,48,0,4
0,48,52,44
0,48,0,4
0,29,0,82
0,48,101,10
0,53,101,0
0,76,126,0
0,76,0,4
0,76,68,92
0,76,0,4
0,74,0,4
0,48,0,39
0,53,0,0
0,76,50,1
0,76,0,4
0,48,109,44
0,53,108,0
0,76,42,0
0,76,0,4
0,72,100,60
0,55,107,32
0,65,126,0
0,67,107,0
0,65,0,4
0,48,0,43
0,53,0,0
0,72,0,33
0,48,113,16
0,53,113,0
0,65,71,0
0,65,0,4
0,76,101,4
0,65,64,40
0,65,0,4
0,31,104,21
0,48,126,23
0,48,0,4
0,48,0,43
0,53,0,0
0,76,0,26
0,74,99,15
0,48,89,8
0,48,0,4
0,48,64,44
0,48,0,4
0,48,52,44
0,48,0,4
0,48,96,92
0,53,97,0
0,76,126,0
0,76,0,4
0,74,0,60
0,31,0,12
0,76,68,20
0,76,0,4
0,48,0,43
0,53,0,0
0,76,50,1
0,76,0,4
0,48,112,44
0,53,112,0
0,76,42,0
0,76,0,4
0,65,126,92
0,72,100,0
0,65,0,4
0,48,0,43
0,53,0,0
0,72,0,48
0,48,118,1
0,53,118,0
0,65,71,0
0,67,100,0
0,65,0,4
0,65,64,44
0,65,0,4
0,36,104,21
0,67,0,22
0,48,126,1
0,72,101,0
0,48,0,4
0,48,0,43
0,53,0,0
0,72,0,29
0,48,89,20
0,72,101,0
0,48,0,4
0,48,64,44
0,48,0,4
0,48,52,44
0,48,0,4
0,36,0,82
0,72,0,9
0,48,101,1
0,53,101,0
0,74,100,0
0,76,126,0
0,76,0,4
0,76,68,92
0,76,0,4
0,48,0,43
0,53,0,0
0,55,0,1
0,67,0,0
0,76,50,0
0,76,0,4
0,48,109,44
0,53,108,0
0,76,42,0
0,76,0,4
0,74,0,91
0,53,107,1
0,65,126,0
0,65,107,0
0,72,100,0
0,65,0,4
0,48,0,43
0,53,0,0
0,72,0,48
0,48,113,1
0,53,113,0
0,65,71,0
0,69,102,0
0,65,0,4
0,65,64,44
0,65,0,4
0,29,104,21
0,48,126,23
0,48,0,4
0,48,0,43
0,53,0,0
0,48,89,49
0,48,0,4
0,48,64,44
0,48,0,4
0,48,52,44
0,48,0,4
0,69,0,35
0,48,96,57
0,53,97,0
0,76,126,0
0,76,0,4
0,29,0,72
0,76,68,20
0,76,0,4
0,48,0,43
0,53,0,0
0,76,50,1
0,76,0,4
0,48,112,44
0,53,112,0
0,76,42,0
0,76,0,4
0,69,105,69
0,65,126,23
0,65,0,4
0,48,0,43
0,53,0,0
0,69,0,31
0,72,107,1
0,48,118,17
0,53,118,0
0,65,71,0
0,65,0,4
0,65,64,44
0,65,0,4
0,38,104,21
0,48,126,23
0,72,0,3
0,48,0,1
0,74,108,0
0,48,0,43
0,53,0,0
0,48,89,49
0,48,0,4
0,48,64,44
0,48,0,4
0,48,52,44
0,48,0,4
0,74,0,74
0,38,0,8
0,48,101,10
0,53,101,0
0,76,126,0
0,76,0,4
0,72,111,1
0,72,0,82
0,76,68,9
0,76,0,4
0,72,110,9
0,48,0,34
0,53,0,0
0,53,0,1
0,65,0,0
0,76,50,0
0,76,0,4
0,48,109,44
0,53,108,0
0,76,42,0
0,76,0,4
0,72,0,17
0,74,111,1
0,65,126,74
0,65,0,4
0,48,0,43
0,53,0,0
0,74,0,31
0,76,112,1
0,48,113,17
0,53,113,0
0,65,71,0
0,65,0,4
0,65,64,44
0,65,0,4
0,31,104,21
0,48,126,23
0,48,0,4
0,48,0,43
0,53,0,0
0,48,89,49
0,48,0,4
0,48,64,44
0,48,0,4
0,76,0,16
0,48,52,28
0,48,0,4
0,67,109,60
0,48,96,32
0,53,97,0
0,76,126,0
0,76,0,4
0,67,0,48
0,76,109,14
0,31,0,10
0,76,68,20
0,76,0,4
0,48,0,43
0,53,0,0
0,76,50,1
0,76,0,2
0,76,0,2
0,48,112,44
0,53,112,0
0,76,42,0
0,76,0,4
0,76,109,1
0,65,126,91
0,76,0,3
0,65,0,1
0,48,0,43
0,53,0,0
0,48,118,49
0,53,118,0
0,65,71,0
0,74,107,2
0,65,0,2
0,65,64,44
0,65,0,4
0,35,115,44
0,36,126,0
0,42,96,0
0,48,126,0
0,57,73,0
0,72,111,0
0,35,0,4
0,42,0,0
0,48,0,0
0,57,0,0
0,48,0,43
0,53,0,0
0,36,0,11
0,36,112,9
0,42,61,0
0,48,89,0
0,42,0,3
0,48,0,0
0,36,0,8
0,36,118,5
0,42,71,0
0,48,64,0
0,42,0,4
0,48,0,0
0,36,0,14
0,36,117,12
0,40,115,0
0,42,87,0
0,48,52,0
0,69,59,0
0,40,0,4
0,42,0,0
0,48,0,0
0,69,0,0
0,36,0,53
0,36,118,39
0,42,71,0
0,69,57,0
0,72,0,0
0,76,126,0
0,42,0,4
0,69,0,0
0,76,0,0
0,36,0,25
0,36,124,19
0,42,80,0
0,42,0,4
0,36,0,24
0,35,115,20
0,36,122,0
0,42,104,0
0,76,68,0
0,35,0,4
0,42,0,0
0,76,0,0
0,76,50,44
0,76,0,4
0,36,0,12
0,36,126,32
0,42,74,0
0,76,42,0
0,42,0,4
0,76,0,0
0,36,0,35
0,36,120,9
0,42,100,0
0,42,0,4
0,74,0,11
0,36,0,19
0,36,117,14
0,40,115,0
0,42,89,0
0,65,126,0
0,40,0,4
0,42,0,0
0,65,0,0
0,36,0,61
0,36,126,7
0,42,89,0
0,65,71,0
0,42,0,4
0,65,0,0
0,36,0,30
0,36,118,14
0,42,83,0
0,65,64,0
0,42,0,4
0,65,0,0
0,36,0,28
0,35,115,16
0,36,117,0
0,42,100,0
0,48,112,0
0,35,0,4
0,42,0,0
0,48,0,0
0,36,0,59
0,36,120,33
0,42,74,0
0,48,75,0
0,42,0,4
0,48,0,0
0,36,0,29
0,36,118,15
0,42,89,0
0,48,50,0
0,42,0,4
0,48,0,0
0,36,0,30
0,36,117,14
0,40,115,0
0,42,89,0
0,48,38,0
0,69,62,0
0,40,0,4
0,42,0,0
0,48,0,0
0,69,0,0
0,36,0,49
0,36,118,43
0,42,82,0
0,69,64,0
0,76,112,0
0,42,0,4
0,69,0,0
0,76,0,0
0,36,0,27
0,36,117,17
0,42,82,0
0,42,0,4
0,36,0,26
0,76,108,16
0,35,115,2
0,36,114,0
0,42,92,0
0,76,54,0
0,35,0,4
0,42,0,0
0,76,0,0
0,76,36,44
0,76,0,4
0,36,0,1
0,36,117,43
0,42,76,0
0,76,28,0
0,42,0,4
0,76,0,0
0,76,0,5
0,36,0,21
0,74,106,8
0,36,121,10
0,42,83,0
0,42,0,4
0,36,0,32
0,36,113,12
0,40,115,0
0,42,89,0
0,65,112,0
0,40,0,4
0,42,0,0
0,65,0,0
0,74,0,46
0,36,0,8
0,72,108,20
0,36,117,18
0,42,87,0
0,65,57,0
0,42,0,4
0,65,0,0
0,36,0,30
0,36,126,14
0,42,82,0
0,65,50,0
0,42,0,4
0,65,0,0
0,36,0,27
0,72,0,6
0,35,115,11
0,41,126,0
0,42,100,0
0,48,103,0
0,35,0,4
0,42,0,0
0,48,0,0
0,72,106,9
0,41,0,45
0,41,112,38
0,42,76,0
0,48,66,0
0,42,0,4
0,48,0,0
0,41,0,26
0,41,118,18
0,42,87,0
0,48,41,0
0,42,0,4
0,48,0,0
0,41,0,26
0,40,115,18
0,41,117,0
0,42,87,0
0,48,29,0
0,69,59,0
0,40,0,4
0,42,0,0
0,48,0,0
0,69,0,0
0,72,0,19
0,41,0,34
0,41,118,39
0,42,89,0
0,69,57,0
0,76,103,0
0,42,0,4
0,69,0,0
0,76,0,0
0,41,0,25
0,41,124,19
0,42,83,0
0,42,0,4
0,41,0,24
0,35,115,20
0,41,122,0
0,42,100,0
0,76,45,0
0,35,0,4
0,42,0,0
0,76,0,0
0,76,27,44
0,76,0,4
0,41,0,12
0,41,126,32
0,42,82,0
0,76,19,0
0,42,0,4
0,76,0,0
0,41,0,35
0,41,120,9
0,42,89,0
0,42,0,4
0,41,0,30
0,40,115,14
0,41,117,0
0,42,89,0
0,65,103,0
0,40,0,4
0,42,0,0
0,65,0,0
0,41,0,61
0,41,126,31
0,42,82,0
0,65,48,0
0,42,0,4
0,65,0,0
0,41,0,30
0,41,118,14
0,42,81,0
0,65,41,0
0,42,0,4
0,65,0,0
0,41,0,28
0,35,115,16
0,42,83,0
0,43,117,0
0,48,93,0
0,35,0,4
0,42,0,0
0,48,0,0
0,43,0,59
0,42,83,33
0,43,120,0
0,48,56,0
0,42,0,4
0,48,0,0
0,43,0,29
0,42,83,15
0,43,118,0
0,48,31,0
0,42,0,4
0,48,0,0
0,43,0,30
