track,note,velocity,time
1,67,106,7690
1,67,106,140
1,64,106,20
1,67,106,30
1,67,106,588
1,67,106,100
1,72,106,102
1,72,106,110
1,72,106,132
1,69,106,106
1,67,106,2008
1,67,106,92
1,67,106,112
1,64,106,84
1,67,106,14
1,67,106,698
1,67,106,114
1,72,106,112
1,72,106,132
1,69,106,182
1,69,106,1568
1,72,106,40
1,74,106,108
1,74,106,144
1,74,106,140
1,74,106,104
1,76,106,102
1,74,106,120
1,72,106,128
1,69,106,2
1,69,106,288
1,72,106,20
1,74,106,108
1,74,106,162
1,74,106,128
1,74,106,112
1,76,106,132
1,74,106,132
1,72,106,150
1,72,106,384
1,72,106,74
1,72,106,68
1,72,106,60
1,72,106,94
1,70,106,2
1,68,106,20
1,72,106,228
1,67,106,48
1,67,106,252
1,67,106,104
1,67,106,120
1,67,106,140
1,67,106,112
1,65,106,120
1,64,106,144
1,62,106,124
1,67,106,704
1,67,106,52
1,67,106,112
1,64,106,92
1,67,106,68
1,67,106,588
1,67,106,102
1,72,106,100
1,72,106,132
1,69,106,152
1,67,106,2254
1,67,106,32
1,67,106,134
1,64,106,110
1,67,106,154
1,67,106,334
1,67,106,80
1,72,106,52
1,72,106,120
1,72,106,112
1,69,106,82
1,69,106,1572
1,72,106,8
1,74,106,66
1,74,106,140
1,74,106,128
1,74,106,126
1,76,106,152
1,74,106,122
1,72,106,132
1,69,106,6
1,69,106,772
1,72,106,22
1,74,106,76
1,74,106,116
1,74,106,128
1,74,106,112
1,76,106,130
1,74,106,128
1,72,106,130
1,72,106,242
1,72,106,174
1,72,106,156
1,72,106,160
1,72,106,172
1,72,106,124
1,70,106,128
1,68,106,164
1,72,106,158
1,67,106,80
1,67,106,332
1,67,106,34
1,67,106,44
1,67,106,82
1,67,106,112
1,67,106,100
1,65,106,80
1,64,106,114
1,62,106,136
1,76,106,6872
1,76,106,52
1,76,106,102
1,74,106,102
1,76,106,54
1,76,106,1988
1,76,106,40
1,76,106,100
1,79,106,60
1,76,106,44
1,76,106,1250
1,74,106,20
1,76,106,1184
1,72,106,12
1,67,106,7084
1,67,106,40
1,67,106,120
1,64,106,132
1,67,106,46
1,67,106,612
1,72,106,44
1,72,106,114
1,69,106,166
1,67,106,2264
1,67,106,40
1,67,106,112
1,64,106,112
1,67,106,44
1,67,106,384
1,67,106,104
1,72,106,100
1,72,106,120
1,72,106,126
1,69,106,76
1,69,106,1928
1,72,106,8
1,74,106,158
1,74,106,112
1,74,106,156
1,72,106,12
1,74,106,112
1,76,106,120
1,74,106,144
1,72,106,116
1,69,106,8
1,69,106,352
1,72,106,20
1,74,106,32
1,74,106,116
1,74,106,132
1,74,106,112
1,76,106,148
1,74,106,158
1,72,106,138
1,72,106,194
1,72,106,156
1,72,106,148
1,72,106,132
1,72,106,138
1,72,106,124
1,70,106,272
1,68,106,22
1,72,106,202
1,67,106,22
1,67,106,506
1,67,106,28
1,67,106,36
1,67,106,104
1,67,106,164
1,67,106,124
1,65,106,140
1,64,106,8
1,62,106,24
1,67,106,730
1,67,106,36
1,67,106,144
1,64,106,132
1,67,106,52
1,67,106,672
1,67,106,32
1,72,106,32
1,72,106,88
1,72,106,92
1,69,106,16
1,67,106,2186
1,67,106,44
1,67,106,114
1,64,106,100
1,67,106,20
1,67,106,368
1,67,106,92
1,72,106,20
1,72,106,102
1,72,106,136
1,69,106,200
1,69,106,1792
1,72,106,40
1,74,106,36
1,74,106,92
1,74,106,60
1,74,106,74
1,76,106,8
1,74,106,20
1,72,106,10
1,69,106,262
1,74,106,770
1,74,106,112
1,74,106,98
1,74,106,88
1,76,106,28
1,74,106,16
1,72,106,2
1,72,106,654
1,72,106,140
1,72,106,148
1,72,106,138
1,70,106,0
1,68,106,12
1,72,106,206
1,67,106,52
1,67,106,154
1,67,106,150
1,67,106,144
1,67,106,192
1,67,106,144
1,65,106,72
1,64,106,152
1,62,106,116
1,76,106,6640
1,76,106,40
1,76,106,82
1,74,106,72
1,76,106,44
1,76,106,1852
1,76,106,52
1,76,106,112
1,79,106,72
1,76,106,32
1,76,106,1188
1,76,106,136
1,74,106,32
1,76,106,1160
1,72,106,8
1,76,106,7066
1,76,106,30
1,76,106,102
1,74,106,82
1,76,106,34
1,76,106,1804
1,76,106,40
1,76,106,100
1,79,106,80
1,76,106,20
1,76,106,1520
1,74,106,12
1,76,106,12
1,72,106,8
1,76,106,7042
1,76,106,42
1,76,106,108
1,74,106,114
1,76,106,32
1,76,106,1750
1,76,106,38
1,76,106,94
1,79,106,52
1,76,106,32
1,76,106,1432
1,74,106,8
1,76,106,12
1,72,106,388
1,76,106,7052
1,76,106,40
1,76,106,132
1,74,106,132
1,76,106,40
1,76,106,1786
1,76,106,40
1,76,106,124
1,79,106,134
1,76,106,32
1,76,106,1616
1,74,106,14
1,76,106,192
1,72,106,12
1,76,106,6944
1,76,106,112
1,76,106,128
1,74,106,102
1,76,106,24
2,43,127,72196
2,43,127,40
2,43,127,134
2,43,127,38
2,43,127,130
2,43,127,44
2,43,127,48
2,43,127,44
2,43,127,128
2,43,127,38
2,43,127,138
2,43,127,44
2,43,127,48
2,43,127,46
2,43,127,130
2,43,127,26
2,43,127,134
2,43,127,46
2,43,127,34
2,43,127,48
2,43,127,134
2,43,127,28
2,43,127,128
2,43,127,46
2,43,127,34
2,43,127,44
2,43,127,116
2,43,127,28
2,43,127,134
2,43,127,36
2,43,127,34
2,43,127,44
2,43,127,120
2,43,127,26
2,43,127,142
2,43,127,32
2,43,127,46
2,43,127,46
2,43,127,118
2,43,127,38
2,43,127,128
2,43,127,48
2,43,127,34
2,43,127,48
2,43,127,128
2,43,127,34
2,43,127,142
2,43,127,48
2,60,78,40
2,55,78,2
2,64,78,0
2,55,78,242
2,60,78,0
2,64,78,0
2,55,78,240
2,60,78,2
2,64,78,0
2,55,78,426
2,55,78,58
2,57,78,24
2,60,78,40
2,60,78,110
2,64,78,0
2,55,78,2
2,60,78,204
2,55,78,2
2,64,78,0
2,55,78,236
2,60,78,0
2,64,78,0
2,55,78,422
2,55,78,46
2,57,78,14
2,60,78,36
2,57,78,124
2,60,78,0
2,64,78,2
2,57,78,226
2,60,78,0
2,64,78,0
2,57,78,220
2,60,78,0
2,64,78,0
2,55,78,420
2,55,78,48
2,57,78,28
2,60,78,38
2,60,78,124
2,57,78,2
2,64,78,0
2,57,78,232
2,60,78,0
2,64,78,0
2,60,78,224
2,57,78,2
2,64,78,0
2,55,78,424
2,55,78,58
2,57,78,36
2,60,78,40
2,55,78,110
2,64,78,0
2,60,78,2
2,60,78,224
2,55,78,2
2,64,78,0
2,55,78,242
2,60,78,0
2,64,78,0
2,55,78,426
2,55,78,58
2,57,78,4
2,60,78,24
2,55,78,114
2,60,78,0
2,64,78,2
2,55,78,222
2,60,78,0
2,64,78,0
2,55,78,240
2,60,78,0
2,64,78,0
2,55,78,420
2,55,78,60
2,57,78,32
2,60,78,38
2,57,78,124
2,64,78,0
2,60,78,2
2,57,78,216
2,60,78,0
2,64,78,0
2,57,78,228
2,60,78,2
2,64,78,0
2,55,78,422
2,55,78,58
2,57,78,36
2,60,78,48
2,57,78,134
2,60,78,2
2,64,78,0
2,57,78,216
2,60,78,2
2,64,78,0
2,57,78,230
2,60,78,0
2,64,78,0
2,55,78,412
2,55,78,50
2,57,78,24
2,60,78,30
2,55,78,122
2,59,78,2
2,62,78,0
2,55,78,230
2,59,78,0
2,62,78,0
2,55,78,230
2,59,78,0
2,62,78,0
2,55,78,420
2,55,78,58
2,57,78,30
2,60,78,38
2,57,78,118
2,60,78,0
2,57,78,218
2,60,78,0
2,60,78,220
2,57,78,2
2,55,78,414
2,55,78,56
2,57,78,36
2,60,78,26
2,55,78,122
2,62,78,0
2,59,78,2
2,62,78,216
2,55,78,2
2,59,78,0
2,55,78,230
2,59,78,0
2,62,78,0
2,55,78,418
2,55,78,58
2,57,78,24
2,60,78,36
2,57,78,134
2,60,78,2
2,64,78,0
2,57,78,218
2,60,78,0
2,64,78,0
2,57,78,220
2,60,78,0
2,64,78,0
2,55,78,410
2,55,78,58
2,57,78,26
2,60,78,18
2,56,78,130
2,60,78,0
2,56,78,230
2,60,78,0
2,56,78,230
2,60,78,0
2,55,78,422
2,55,78,48
2,55,78,44
2,55,78,48
2,55,78,118
2,60,78,0
2,55,78,242
2,60,78,0
2,64,78,0
2,55,78,224
2,60,78,0
2,64,78,0
2,55,78,422
2,55,78,46
2,57,78,14
2,60,78,36
2,57,78,122
2,62,78,0
2,55,78,2
2,58,78,0
2,61,78,0
2,55,78,214
2,58,78,0
2,61,78,0
2,55,78,226
2,58,78,0
2,61,78,0
2,55,78,432
2,55,78,48
2,55,78,56
2,55,78,48
2,57,78,124
2,62,78,2
2,57,78,216
2,62,78,0
2,55,78,230
2,59,78,0
2,62,78,0
2,55,78,416
2,55,78,60
2,57,78,32
2,60,78,48
2,64,78,134
2,55,78,2
2,60,78,0
2,55,78,228
2,60,78,0
2,64,78,0
2,55,78,230
2,60,78,0
2,64,78,0
2,55,78,432
2,55,78,46
2,57,78,32
2,60,78,46
2,60,78,134
2,64,78,0
2,55,78,2
2,55,78,222
2,60,78,0
2,64,78,0
2,55,78,226
2,60,78,0
2,64,78,0
2,55,78,430
2,55,78,58
2,57,78,36
2,60,78,34
2,57,78,126
2,60,78,0
2,64,78,0
2,57,78,230
2,60,78,0
2,64,78,0
2,57,78,228
2,60,78,0
2,64,78,0
2,55,78,426
2,55,78,50
2,57,78,36
2,60,78,26
2,60,78,122
2,64,78,0
2,57,78,210
2,60,78,0
2,64,78,0
2,57,78,230
2,60,78,0
2,64,78,0
2,55,78,426
2,55,78,46
2,57,78,36
2,60,78,34
2,60,78,122
2,64,78,0
2,55,78,2
2,55,78,218
2,60,78,0
2,64,78,0
2,55,78,216
2,60,78,0
2,64,78,0
2,55,78,418
2,55,78,46
2,57,78,36
2,60,78,38
2,55,78,134
2,64,78,0
2,60,78,2
2,55,78,230
2,60,78,0
2,64,78,0
2,55,78,240
2,60,78,0
2,64,78,0
2,55,78,416
2,55,78,60
2,57,78,32
2,60,78,38
2,57,78,134
2,60,78,0
2,64,78,0
2,57,78,214
2,60,78,0
2,64,78,0
2,57,78,224
2,60,78,0
2,64,78,0
2,55,78,410
2,55,78,58
2,57,78,24
2,60,78,38
2,60,78,130
2,64,78,0
2,57,78,2
2,57,78,220
2,60,78,2
2,64,78,0
2,57,78,220
2,60,78,0
2,64,78,0
2,55,78,412
2,55,78,46
2,57,78,24
2,60,78,34
2,55,78,122
2,59,78,0
2,62,78,2
2,55,78,230
2,59,78,0
2,62,78,0
2,55,78,228
2,59,78,0
2,62,78,0
2,55,78,418
2,55,78,34
2,57,78,24
2,60,78,6
2,53,78,132
2,60,78,0
2,57,78,2
2,53,78,226
2,57,78,0
2,60,78,0
2,53,78,228
2,57,78,2
2,60,78,0
2,55,78,422
2,55,78,56
2,57,78,24
2,60,78,28
2,55,78,132
2,59,78,0
2,62,78,0
2,59,78,236
2,55,78,2
2,62,78,0
2,55,78,230
2,59,78,0
2,62,78,0
2,55,78,422
2,55,78,58
2,55,78,24
2,57,78,0
2,60,78,2
2,57,78,124
2,60,78,0
2,64,78,0
2,57,78,218
2,60,78,0
2,64,78,0
2,57,78,220
2,60,78,0
2,64,78,0
2,55,78,408
2,55,78,50
2,57,78,32
2,60,78,18
3,67,32,32230
3,69,32,804
3,71,32,730
3,72,32,756
3,74,32,1502
3,76,32,772
3,74,32,720
3,72,32,364
3,67,32,8
3,69,32,792
3,71,32,744
3,72,32,762
3,74,32,1468
3,76,32,732
3,74,32,8
3,72,32,404
3,71,32,2
3,69,32,0
3,71,32,1512
3,57,32,1498
3,72,32,0
3,64,32,20
3,56,32,42
3,63,32,0
3,55,32,108
3,64,32,16
3,70,32,1554
3,62,32,1490
3,69,32,0
3,65,32,2
3,68,32,8
3,62,32,180
3,74,32,0
3,64,32,740
3,76,32,0
3,65,32,752
3,77,32,2
3,67,32,762
3,79,32,0
3,69,32,730
3,81,32,8
3,71,32,728
3,83,32,18
3,84,32,728
3,72,32,2
3,74,32,744
3,86,32,18
3,76,32,8
3,88,32,0
3,76,32,16
3,88,32,0
3,74,32,288
3,86,32,16
3,72,32,246
3,84,32,0
3,76,32,212
3,88,32,0
3,74,32,248
3,86,32,0
3,84,32,198
3,72,32,8
3,88,32,12
3,76,32,2
3,74,32,1786
3,86,32,12
3,72,32,220
3,84,32,0
3,76,32,8
3,88,32,0
3,74,32,256
3,86,32,18
3,72,32,254
3,84,32,0
3,71,32,188
3,83,32,0
3,84,32,1116
3,72,32,12
3,81,32,348
3,69,32,16
3,80,32,746
3,68,32,20
3,67,32,8
3,79,32,0
3,60,32,22982
3,72,32,0
3,70,32,3060
3,58,32,18
3,57,32,12
3,65,32,0
3,69,32,2
3,55,32,10
3,67,32,14
3,62,32,4
3,71,32,0
3,67,32,26
3,55,32,12
3,57,32,748
3,69,32,16
3,71,32,716
3,59,32,24
3,60,32,752
3,72,32,0
3,62,32,1480
3,74,32,0
3,76,32,760
3,64,32,16
3,62,32,720
3,74,32,0
3,60,32,346
3,72,32,0
3,55,32,2
3,67,32,0
3,69,32,752
3,57,32,16
3,59,32,736
3,71,32,0
3,60,32,736
3,72,32,0
3,62,32,1490
3,74,32,0
3,76,32,750
3,64,32,12
3,62,32,716
3,74,32,0
3,60,32,352
3,72,32,0
3,62,32,0
3,74,32,0
3,64,32,1132
3,76,32,0
3,72,32,336
3,60,32,4
3,62,32,1528
3,74,32,0
3,72,32,1518
3,60,32,2
3,57,32,726
3,64,32,14
3,56,32,204
3,63,32,0
3,55,32,176
3,64,32,12
3,70,32,1464
3,53,32,8
3,69,32,12
3,65,32,2
3,56,32,772
3,68,32,0
3,74,32,732
3,62,32,18
3,64,32,746
3,76,32,0
3,65,32,728
3,77,32,0
3,67,32,760
3,79,32,0
3,69,32,730
3,81,32,0
3,71,32,726
3,83,32,0
3,72,32,10
3,84,32,0
3,74,32,740
3,86,32,0
3,88,32,756
3,76,32,16
3,74,32,1788
3,86,32,16
3,72,32,196
3,84,32,16
3,88,32,232
3,76,32,16
3,74,32,240
3,86,32,0
3,72,32,220
3,84,32,16
3,76,32,0
3,88,32,0
3,74,32,1804
3,86,32,0
3,72,32,208
3,84,32,16
3,76,32,216
3,88,32,0
3,74,32,0
3,86,32,0
3,72,32,220
3,84,32,16
3,71,32,198
3,83,32,0
3,84,32,1112
3,72,32,16
3,69,32,360
3,81,32,0
3,68,32,732
3,80,32,12
3,62,32,22
3,74,32,0
3,64,32,784
3,76,32,12
3,65,32,704
3,77,32,0
3,67,32,0
3,79,32,0
3,69,32,744
3,81,32,0
3,71,32,732
3,83,32,0
3,72,32,724
3,84,32,16
3,74,32,684
3,86,32,20
3,76,32,14
3,88,32,0
3,74,32,1810
3,86,32,0
3,72,32,0
3,84,32,0
3,88,32,220
3,76,32,16
3,86,32,264
3,74,32,12
3,72,32,4
3,84,32,0
3,76,32,0
3,88,32,0
3,74,32,1810
3,86,32,0
3,72,32,220
3,84,32,0
3,88,32,4
3,76,32,20
3,74,32,274
3,86,32,2
3,72,32,8
3,84,32,0
3,71,32,8
3,83,32,0
3,84,32,1138
3,72,32,12
3,69,32,4
3,81,32,0
3,68,32,738
3,80,32,2
3,74,32,0
3,62,32,14
3,64,32,744
3,76,32,16
3,65,32,12
3,77,32,0
3,67,32,728
3,79,32,16
3,81,32,744
3,69,32,2
3,71,32,748
3,83,32,20
3,72,32,732
3,84,32,0
3,74,32,728
3,86,32,0
3,88,32,760
3,76,32,20
3,74,32,1792
3,86,32,0
3,72,32,208
3,84,32,0
3,76,32,214
3,88,32,0
3,74,32,284
3,86,32,0
3,84,32,214
3,72,32,12
3,76,32,0
3,88,32,0
3,74,32,1780
3,86,32,12
3,72,32,196
3,84,32,0
3,88,32,224
3,76,32,14
3,74,32,286
3,86,32,0
3,84,32,202
3,72,32,16
3,71,32,198
3,83,32,16
3,84,32,10
3,72,32,14
3,69,32,0
3,81,32,0
