track,note,velocity,time
1,31,97,1422
1,36,94,4
1,36,92,158
1,31,98,180
1,36,97,4
1,36,92,162
1,31,93,180
1,36,92,4
1,36,92,158
1,31,96,180
1,36,92,4
1,36,91,156
1,31,93,168
1,36,92,4
1,36,92,158
1,31,96,180
1,36,92,4
1,36,91,156
1,31,93,168
1,36,92,4
1,36,92,158
1,31,96,180
1,36,92,4
1,36,91,156
1,31,93,168
1,36,96,4
1,36,97,156
1,31,97,162
1,36,100,4
1,36,99,156
1,31,96,178
1,36,94,4
1,36,96,152
1,31,101,168
1,36,94,4
1,36,92,168
1,36,101,172
1,41,101,4
1,41,89,152
1,36,96,156
1,41,90,4
1,41,99,156
1,36,99,162
1,41,84,12
1,41,89,142
1,36,88,156
1,41,91,4
1,41,92,162
1,31,100,156
1,36,97,8
1,36,89,148
1,31,97,156
1,36,91,4
1,36,93,152
1,31,94,146
1,36,94,4
1,36,91,148
1,31,93,158
1,36,94,8
1,36,91,148
1,36,101,152
1,41,100,4
1,41,92,156
1,36,92,132
1,41,93,8
1,41,94,162
1,36,92,156
1,41,100,8
1,41,93,164
1,36,94,140
1,41,101,4
1,41,93,164
1,36,92,162
1,43,98,4
1,43,93,164
1,38,96,156
1,43,97,4
1,43,101,146
1,36,100,142
1,41,97,8
1,41,89,140
1,36,96,140
1,41,99,4
1,41,92,152
1,36,101,158
1,43,100,4
1,43,96,158
1,38,96,146
1,43,98,8
1,43,101,148
1,38,102,156
1,45,99,4
1,45,96,148
1,40,99,158
1,45,99,4
1,45,101,146
1,40,97,142
1,44,99,4
1,44,96,152
1,39,98,152
1,44,100,4
1,44,98,140
1,39,100,158
1,43,96,4
1,43,94,156
1,31,98,140
1,43,101,4
1,43,97,146
1,31,96,136
1,43,99,8
1,43,97,152
1,31,94,148
1,43,96,8
1,43,97,148
1,31,97,130
1,38,101,4
1,38,98,156
1,38,92,148
1,36,92,8
1,31,101,8
1,31,100,148
1,31,90,136
1,36,96,4
1,36,97,156
1,31,97,162
1,36,100,4
1,36,99,156
1,31,96,178
1,36,94,4
1,36,96,152
1,31,101,168
1,36,94,4
1,36,92,168
1,36,101,172
1,41,101,4
1,41,89,152
1,36,96,156
1,41,90,4
1,41,99,156
1,36,99,162
1,41,84,12
1,41,89,142
1,36,88,156
1,41,91,4
1,41,92,162
1,31,100,156
1,36,97,8
1,36,89,148
1,31,97,156
1,36,91,4
1,36,93,152
1,31,94,146
1,36,94,4
1,36,91,148
1,31,93,158
1,36,94,8
1,36,91,148
1,36,101,152
1,41,100,4
1,41,92,156
1,36,92,132
1,41,93,8
1,41,94,162
1,36,92,156
1,41,100,8
1,41,93,164
1,36,94,140
1,41,101,4
1,41,93,164
1,36,92,162
1,43,98,4
1,43,93,164
1,38,96,156
1,43,97,4
1,43,101,146
1,36,100,142
1,41,97,8
1,41,89,140
1,36,96,140
1,41,99,4
1,41,92,152
1,36,101,158
1,43,100,4
1,43,96,158
1,38,96,146
1,43,98,8
1,43,101,148
1,38,102,156
1,45,99,4
1,45,96,148
1,40,99,158
1,45,99,4
1,45,101,146
1,40,97,142
1,44,99,4
1,44,96,152
1,39,98,152
1,44,100,4
1,44,98,140
1,39,100,158
1,43,96,4
1,43,94,156
1,31,98,140
1,43,101,4
1,43,97,146
1,31,96,136
1,43,99,8
1,43,97,152
1,31,94,148
1,43,96,8
1,43,97,148
1,31,97,130
1,38,100,4
1,38,88,8
1,38,101,104
1,38,97,140
1,38,88,8
1,32,99,8
1,32,88,8
1,32,105,104
1,32,100,152
1,32,86,8
1,31,101,8
1,31,80,14
1,31,96,110
1,31,88,148
1,31,86,14
1,31,106,14
1,31,87,14
1,31,95,82
1,31,85,136
1,31,92,14
1,31,107,12
1,31,85,14
1,31,103,110
1,31,95,148
1,31,92,14
1,31,114,14
1,31,93,14
1,31,101,82
1,31,92,136
1,31,98,14
1,31,115,12
1,31,91,14
1,31,110,110
1,31,98,148
1,31,95,14
1,31,117,14
1,31,95,14
1,31,102,82
1,31,108,136
1,31,97,4
1,31,112,4
1,31,106,132
1,31,96,148
1,31,113,4
1,31,99,132
1,31,108,136
1,36,100,8
1,36,97,148
1,31,92,148
1,36,99,12
1,36,87,148
1,36,93,164
1,41,98,12
1,41,89,148
1,36,83,148
1,41,101,12
1,41,94,148
1,31,89,148
1,36,98,12
1,36,89,148
1,31,93,148
1,36,88,12
1,36,84,148
1,36,104,148
1,41,98,12
1,41,104,148
1,36,91,148
1,41,98,12
1,41,101,148
1,35,95,148
1,40,105,12
1,40,85,148
1,35,93,148
1,40,87,12
1,40,105,148
1,35,93,148
1,33,102,12
1,33,103,148
1,28,87,148
1,32,102,12
1,32,88,148
1,32,104,148
1,31,100,12
1,31,85,148
1,31,100,148
1,31,91,12
1,31,90,148
1,31,100,148
1,31,98,12
1,31,89,148
1,31,100,148
1,31,92,12
1,31,86,148
1,31,90,148
1,31,93,12
1,31,87,148
1,31,92,148
1,31,98,12
1,31,89,148
1,31,91,148
1,31,98,12
1,31,78,148
1,31,90,148
1,31,91,12
1,31,88,148
1,31,98,148
1,36,96,12
1,36,97,156
1,31,97,162
1,36,100,4
1,36,99,156
1,31,96,178
1,36,94,4
1,36,96,152
1,31,101,168
1,36,94,4
1,36,92,168
1,31,101,172
1,41,101,4
1,41,89,152
1,36,96,156
1,41,90,4
1,41,99,156
1,36,99,162
1,41,84,12
1,41,89,142
1,36,88,156
1,41,91,4
1,41,92,162
1,31,100,156
1,36,97,8
1,36,89,148
1,31,97,156
1,36,91,4
1,36,93,152
1,31,94,146
1,36,94,4
1,36,91,148
1,31,93,158
1,36,94,8
1,36,91,148
1,36,101,152
1,41,100,4
1,41,92,156
1,36,92,132
1,41,93,8
1,41,94,162
1,36,92,156
1,41,100,8
1,41,93,164
1,36,94,140
1,41,101,4
1,41,93,164
1,36,92,162
1,43,98,4
1,43,93,164
1,38,96,156
1,43,97,4
1,43,101,146
1,36,100,142
1,41,97,8
1,41,89,140
1,36,96,140
1,41,99,4
1,41,92,152
1,36,101,158
1,43,100,4
1,43,96,158
1,38,96,146
1,43,98,8
1,43,101,148
1,38,102,156
1,45,99,4
1,45,96,148
1,40,99,158
1,45,99,4
1,45,101,146
1,40,97,142
1,44,99,4
1,44,96,152
1,39,98,152
1,44,100,4
1,44,98,140
1,39,100,158
1,43,96,4
1,43,94,156
1,31,98,140
1,43,101,4
1,43,97,146
1,31,96,136
1,43,99,8
1,43,97,152
1,31,94,148
1,43,96,8
1,43,97,148
1,31,97,130
1,38,101,4
1,38,98,156
1,38,92,148
1,36,92,8
1,31,101,8
1,31,100,148
1,31,90,136
1,36,96,4
1,36,97,156
1,31,97,162
1,36,100,4
1,36,99,156
1,31,96,178
1,36,94,4
1,36,96,152
1,31,101,168
1,36,94,4
1,36,92,168
1,36,101,172
1,41,101,4
1,41,89,152
1,36,96,156
1,41,90,4
1,41,99,156
1,36,99,162
1,41,84,12
1,41,89,142
1,36,88,156
1,41,91,4
1,41,92,162
1,31,100,156
1,36,97,8
1,36,89,148
1,31,97,156
1,36,91,4
1,36,93,152
1,31,94,146
1,36,94,4
1,36,91,148
1,31,93,158
1,36,94,8
1,36,91,148
1,36,101,152
1,41,100,4
1,41,92,156
1,36,92,132
1,41,93,8
1,41,94,162
1,36,92,156
1,41,100,8
1,41,93,164
1,36,94,140
1,41,101,4
1,41,93,164
1,36,92,162
1,43,98,4
1,43,93,164
1,38,96,156
1,43,97,4
1,43,101,146
1,36,100,142
1,41,97,8
1,41,89,140
1,36,96,140
1,41,99,4
1,41,92,152
1,36,101,158
1,43,100,4
1,43,96,158
1,38,96,146
1,43,98,8
1,43,101,148
1,38,102,156
1,45,99,4
1,45,96,148
1,40,99,158
1,45,99,4
1,45,101,146
1,40,97,142
1,44,99,4
1,44,96,152
1,39,98,152
1,44,100,4
1,44,98,140
1,39,100,158
1,43,96,4
1,43,94,156
1,31,98,140
1,43,101,4
1,43,97,146
1,31,96,136
1,43,99,8
1,43,97,152
1,31,94,148
1,43,96,8
1,43,97,148
1,31,97,130
1,38,100,4
1,38,88,8
1,38,101,104
1,38,97,140
1,38,88,8
1,32,99,8
1,32,88,8
1,32,105,104
1,32,100,152
1,32,86,8
1,31,101,8
1,31,80,14
1,31,96,110
1,31,88,148
1,31,86,14
1,31,106,14
1,31,87,14
1,31,95,82
1,31,85,136
1,31,92,14
1,31,107,12
1,31,85,14
1,31,103,110
1,31,95,148
1,31,92,14
1,31,114,14
1,31,93,14
1,31,101,82
1,31,92,136
1,31,98,14
1,31,115,12
1,31,91,14
1,31,110,110
1,31,98,148
1,31,95,14
1,31,117,14
1,31,95,14
1,31,102,82
1,31,108,136
1,31,97,4
1,31,112,4
1,31,106,132
1,31,96,148
1,31,113,4
1,31,99,132
1,31,108,136
1,36,100,8
1,36,97,148
1,31,92,148
1,36,99,12
1,36,87,148
1,36,93,164
1,41,98,12
1,41,89,148
1,36,83,148
1,41,101,12
1,41,94,148
1,31,89,148
1,36,98,12
1,36,89,148
1,31,93,148
1,36,88,12
1,36,84,148
1,36,104,148
1,41,98,12
1,41,104,148
1,36,91,132
1,41,98,12
1,41,101,94
1,35,95,64
1,40,105,12
1,40,85,54
1,35,93,26
1,40,87,12
1,40,105,16
1,35,93,132
1,33,102,12
1,33,103,122
1,28,87,64
1,32,102,12
1,32,88,54
1,32,104,26
1,31,101,12
1,31,80,14
1,31,96,16
1,31,88,132
1,31,86,14
1,31,106,6
1,31,87,14
1,31,95,82
1,31,85,94
1,31,92,14
1,31,107,12
1,31,85,14
1,31,103,84
1,31,95,26
1,31,92,14
1,31,114,14
1,31,93,14
2,31,127,72970
2,31,123,4
2,31,127,100
2,31,127,100
2,31,112,4
2,31,127,4
2,31,115,4
2,31,124,100
2,31,111,4
2,31,127,100
2,31,115,4
2,31,127,4
2,31,108,4
2,31,127,100
2,31,102,4
2,31,127,100
2,31,112,4
2,31,127,4
2,31,114,4
2,31,127,100
2,31,100,4
2,31,127,100
2,31,109,4
2,31,127,4
2,31,114,4
2,31,127,100
2,31,127,100
2,31,105,4
2,31,127,4
2,31,105,4
2,31,126,100
2,31,127,100
2,31,101,4
2,31,127,4
2,31,111,4
2,31,120,100
2,31,127,100
2,31,108,4
2,31,127,4
2,31,117,4
2,31,127,100
2,31,127,100
2,31,122,4
2,36,108,4
2,31,80,64324
2,31,75,4
2,31,70,100
2,31,64,100
2,31,59,4
2,31,55,4
2,31,51,4
2,31,48,100
2,31,44,4
2,31,38,100
2,31,33,4
2,31,27,4
2,31,20,4
2,31,14,100
2,31,8,4
2,31,3,100
3,67,79,8400
3,67,85,52
3,67,83,42
3,64,61,22
3,67,67,88
3,67,87,484
3,67,70,100
3,72,77,128
3,72,83,50
3,72,79,52
3,72,69,62
3,69,77,80
3,67,91,2216
3,67,80,100
3,67,87,4
3,64,67,4
3,67,83,4
3,67,93,388
3,67,79,4
3,72,85,4
3,72,85,100
3,72,83,4
3,72,82,100
3,69,80,4
3,69,85,2020
3,72,82,4
3,74,89,100
3,74,85,100
3,74,94,100
3,74,91,4
3,76,81,100
3,74,72,4
3,72,65,4
3,74,108,964
3,74,94,196
3,74,85,100
3,74,80,100
3,76,79,4
3,74,90,4
3,72,71,4
3,72,86,196
3,72,80,100
3,72,86,196
3,72,67,100
3,72,86,100
3,72,89,4
3,70,78,4
3,68,84,4
3,72,83,4
3,67,76,4
3,67,83,484
3,67,91,4
3,67,92,100
3,67,79,100
3,67,79,100
3,67,87,100
3,65,67,4
3,64,79,4
3,62,75,4
3,64,71,4
3,62,66,4
3,67,100,772
3,67,78,100
3,67,68,4
3,67,70,100
3,67,74,4
3,67,82,580
3,67,81,4
3,72,89,4
3,72,87,4
3,72,86,4
3,72,79,4
3,69,83,4
3,67,94,1924
3,67,79,100
3,67,78,4
3,64,62,4
3,67,75,4
3,67,88,388
3,67,74,100
3,72,90,100
3,72,87,100
3,72,82,4
3,72,81,4
3,69,78,4
3,69,108,1636
3,72,85,68
3,74,91,36
3,74,95,100
3,74,102,196
3,74,106,4
3,76,81,4
3,74,85,4
3,72,74,4
3,74,103,580
3,74,100,100
3,74,100,100
3,74,87,4
3,76,83,4
3,74,82,4
3,72,72,4
3,72,87,4
3,72,93,4
3,72,89,100
3,72,72,100
3,72,86,100
3,72,86,4
3,70,80,4
3,68,80,4
3,72,83,4
3,67,56,100
3,67,96,4
3,67,90,4
3,67,83,100
3,67,74,100
3,67,86,100
3,67,89,100
3,65,75,4
3,64,74,4
3,62,79,4
3,64,73,100
3,62,63,4
3,76,101,6916
3,76,97,100
3,76,100,4
3,74,96,100
3,76,94,4
3,76,96,1732
3,76,91,100
3,76,101,4
3,79,100,4
3,76,88,192
3,74,75,4
3,76,77,4
3,76,96,964
3,74,86,288
3,76,93,4
3,74,77,4
3,69,34,484
3,71,63,4
3,69,69,4
3,71,51,4
3,69,41,4
3,69,67,292
3,68,63,4
3,67,58,4
3,67,85,4420
3,67,74,100
3,67,85,4
3,64,70,4
3,67,67,4
3,67,96,100
3,67,79,100
3,72,82,100
3,72,89,100
3,72,95,4
3,72,89,36
3,69,80,36
3,67,85,1732
3,67,76,100
3,67,81,4
3,64,73,4
3,67,74,4
3,67,91,100
3,67,85,100
3,72,87,100
3,72,82,4
3,72,87,100
3,72,79,100
3,69,79,4
3,69,96,1444
3,72,83,4
3,74,85,100
3,74,86,100
3,74,93,100
3,74,100,100
3,76,91,4
3,74,86,4
3,72,83,4
3,74,98,772
3,74,97,132
3,74,101,100
3,74,91,36
3,76,82,4
3,74,92,4
3,72,68,4
3,72,97,4
3,72,104,4
3,72,104,196
3,72,87,196
3,72,95,100
3,72,100,100
3,70,91,4
3,68,77,4
3,72,80,4
3,67,74,4
3,67,83,4
3,67,89,4
3,67,95,100
3,67,91,100
3,67,81,100
3,67,91,100
3,65,72,4
3,64,75,4
3,62,87,96
3,64,77,4
3,62,81,4
3,67,98,772
3,67,80,4
3,67,89,4
3,64,71,4
3,67,77,4
3,67,100,580
3,67,85,4
3,72,82,4
3,72,83,4
3,72,90,4
3,72,87,100
3,69,90,4
3,67,89,2404
3,67,89,4
3,67,81,4
3,64,70,4
3,67,83,4
3,67,97,484
3,67,91,4
3,72,91,100
3,72,89,4
3,72,91,4
3,72,86,100
3,69,86,4
3,69,92,2116
3,72,84,4
3,74,93,4
3,74,95,4
3,74,100,4
3,74,100,100
3,76,89,100
3,74,100,100
3,72,80,4
3,74,93,676
3,74,96,100
3,74,95,68
3,74,98,52
3,76,83,272
3,74,99,4
3,72,77,4
3,72,101,132
3,72,94,36
3,72,96,116
3,72,85,168
3,72,101,62
3,72,97,44
3,70,94,50
3,68,99,50
3,72,96,68
3,67,81,4
3,67,96,4
3,67,93,4
3,67,92,100
3,67,86,100
3,67,80,100
3,67,84,4
3,65,81,4
3,64,81,4
3,62,94,4
3,64,85,4
3,62,66,4
3,76,99,6820
3,76,94,100
3,76,96,4
3,74,78,4
3,76,87,4
3,76,96,1540
3,76,73,100
3,76,101,4
3,79,88,4
3,76,82,192
3,74,67,4
3,76,63,4
3,76,90,170
3,74,91,4
3,76,99,4
3,74,100,4
3,76,76,4
3,74,72,4
3,71,93,64
3,69,64,4
3,71,78,4
3,69,50,4
3,71,63,4
3,69,60,4
3,68,92,132
3,67,73,4
3,68,65,4
3,67,71,4
3,68,62,4
3,67,63,94
4,59,58,20576
4,60,63,4
4,59,65,4
4,60,68,4
4,56,65,4
4,60,65,0
4,63,70,0
4,55,70,4
4,64,78,0
4,58,63,4
4,61,67,0
4,57,73,4
4,62,57,0
4,65,87,0
4,59,80,4
4,67,92,0
4,55,98,100
4,57,106,4
4,59,111,4
4,60,105,4
4,60,105,4
4,62,105,4
4,64,103,4
4,62,111,4
4,64,103,4
4,55,116,4
4,57,109,4
4,59,112,4
4,60,111,4
4,60,110,4
4,65,84,0
4,62,111,4
4,64,111,4
4,62,117,4
4,64,109,4
4,59,88,4
4,62,85,0
4,67,89,0
