track,note,velocity,time
1,38,125,2760
1,38,0,1
1,28,125,0
1,28,0,60
1,28,125,120
1,28,0,50
1,28,125,10
1,28,0,50
1,28,125,10
1,28,0,50
1,28,125,10
1,28,0,50
1,28,125,70
1,28,0,60
1,28,125,120
1,28,0,50
1,28,125,10
1,28,0,50
1,28,125,10
1,28,0,50
1,28,125,10
1,28,0,60
1,35,125,0
1,35,0,60
1,36,125,0
1,36,0,60
1,36,125,120
1,36,0,50
1,36,125,10
1,36,0,50
1,36,125,10
1,36,0,50
1,36,125,10
1,36,0,50
1,36,125,70
1,36,0,60
1,36,125,120
1,36,0,50
1,36,125,10
1,36,0,50
1,36,125,10
1,36,0,50
1,36,125,10
1,36,0,120
1,33,125,0
1,33,0,60
1,33,125,120
1,33,0,50
1,33,125,10
1,33,0,50
1,33,125,10
1,33,0,50
1,33,125,10
1,33,0,50
1,33,125,70
1,33,0,60
1,33,125,120
1,33,0,50
1,33,125,10
1,33,0,50
1,33,125,10
1,33,0,50
1,33,125,10
1,33,0,50
1,28,125,70
1,28,0,60
1,28,125,120
1,28,0,50
1,28,125,10
1,28,0,50
1,28,125,10
1,28,0,50
1,28,125,10
1,28,0,50
1,28,125,70
1,28,0,60
1,28,125,120
1,28,0,50
1,28,125,10
1,28,0,50
1,28,125,10
1,28,0,50
1,35,125,10
1,35,0,120
1,28,125,0
1,28,0,60
1,28,125,120
1,28,0,50
1,28,125,10
1,28,0,50
1,28,125,10
1,28,0,50
1,28,125,10
1,28,0,50
1,28,125,70
1,28,0,60
1,28,125,120
1,28,0,50
1,28,125,10
1,28,0,50
1,28,125,10
1,28,0,50
1,35,125,10
1,35,0,120
1,36,125,0
1,36,0,60
1,36,125,120
1,36,0,50
1,36,125,10
1,36,0,50
1,36,125,10
1,36,0,50
1,36,125,10
1,36,0,50
1,36,125,70
1,36,0,60
1,36,125,120
1,36,0,50
1,36,125,10
1,36,0,50
1,36,125,10
1,36,0,50
1,36,125,10
1,36,0,1
1,33,125,0
1,33,0,60
1,33,125,120
1,33,0,50
1,33,125,10
1,33,0,50
1,33,125,10
1,33,0,50
1,33,125,10
1,33,0,50
1,33,125,70
1,33,0,60
1,33,125,120
1,33,0,50
1,33,125,10
1,33,0,50
1,33,125,10
1,33,0,50
1,33,125,10
1,33,0,50
1,28,125,70
1,28,0,60
1,28,125,120
1,28,0,50
1,28,125,10
1,28,0,50
1,28,125,10
1,28,0,50
1,28,125,10
1,28,0,50
1,28,125,70
1,28,0,60
1,28,125,120
1,28,0,50
1,28,125,10
1,28,0,50
1,26,125,10
1,26,0,60
1,27,125,0
1,27,0,60
1,28,125,0
1,28,0,60
1,28,125,0
1,28,0,60
1,28,125,120
1,28,0,50
1,28,125,10
1,28,0,50
1,28,125,10
1,28,0,50
1,28,125,10
1,28,0,50
1,28,125,70
1,28,0,60
1,28,125,120
1,28,0,50
1,28,125,10
1,28,0,50
1,28,125,10
1,28,0,50
1,35,125,10
1,35,0,120
1,36,125,0
1,36,0,60
1,36,125,120
1,36,0,50
1,36,125,10
1,36,0,50
1,36,125,10
1,36,0,50
1,36,125,10
1,36,0,50
1,36,125,70
1,36,0,60
1,36,125,120
1,36,0,50
1,36,125,10
1,36,0,50
1,36,125,10
1,36,0,50
1,36,125,10
1,36,0,1
1,33,125,0
1,33,0,60
1,33,125,120
1,33,0,50
1,33,125,10
1,33,0,50
1,33,125,10
1,33,0,50
1,33,125,10
1,33,0,50
1,33,125,70
1,33,0,60
1,33,125,120
1,33,0,50
1,33,125,10
1,33,0,50
1,33,125,10
1,33,0,50
1,33,125,10
1,33,0,50
1,28,125,70
1,28,0,60
1,28,125,120
1,28,0,50
1,28,125,10
1,28,0,50
1,28,125,10
1,28,0,50
1,28,125,10
1,28,0,50
1,28,125,70
1,28,0,60
1,28,125,120
1,28,0,50
1,28,125,10
1,28,0,50
1,28,125,10
1,28,0,50
1,38,125,10
1,38,0,1
1,28,125,0
1,28,0,60
1,28,125,120
1,28,0,50
1,28,125,10
1,28,0,50
1,28,125,10
1,28,0,50
1,28,125,10
1,28,0,50
1,28,125,70
1,28,0,60
1,28,125,120
1,28,0,50
1,28,125,10
1,28,0,50
1,28,125,10
1,28,0,50
1,35,125,10
1,35,0,120
1,36,125,0
1,36,0,60
1,36,125,120
1,36,0,50
1,36,125,10
1,36,0,50
1,36,125,10
1,36,0,50
1,36,125,10
1,36,0,50
1,36,125,70
1,36,0,60
1,36,125,120
1,36,0,50
1,36,125,10
1,36,0,50
1,36,125,10
1,36,0,50
1,36,125,10
1,36,0,1
1,33,125,0
1,33,0,60
1,33,125,120
1,33,0,50
1,33,125,10
1,33,0,50
1,33,125,10
1,33,0,50
1,33,125,10
1,33,0,50
1,33,125,70
1,33,0,60
1,33,125,120
1,33,0,50
1,33,125,10
1,33,0,50
1,33,125,10
1,33,0,50
1,33,125,10
1,33,0,50
1,28,125,70
1,28,0,60
1,28,125,120
1,28,0,50
1,28,125,10
1,28,0,50
1,28,125,10
1,28,0,50
1,28,125,10
1,28,0,50
1,28,125,70
1,28,0,60
1,28,125,120
1,28,0,50
1,28,125,10
1,28,0,50
1,28,125,10
1,28,0,50
1,35,125,10
1,35,0,120
1,28,125,0
1,28,0,50
1,28,125,10
1,28,0,60
1,36,125,660
1,36,0,30
1,35,125,0
1,35,0,30
1,33,125,0
1,33,0,60
1,38,125,0
1,38,0,50
1,28,125,10
1,28,0,50
1,28,125,10
1,28,0,60
1,28,125,840
1,28,0,50
1,28,125,10
1,28,0,60
1,36,125,720
1,36,0,50
1,38,125,10
1,38,0,60
1,28,125,0
1,28,0,50
1,28,125,10
1,28,0,60
1,38,125,780
1,38,0,60
1,28,125,840
1,28,0,60
1,28,125,120
1,28,0,50
1,28,125,10
1,28,0,50
1,28,125,10
1,28,0,50
1,28,125,10
1,28,0,50
1,28,125,70
1,28,0,60
1,28,125,120
1,28,0,50
1,28,125,10
1,28,0,50
1,28,125,10
1,28,0,50
1,35,125,10
1,35,0,120
1,28,125,0
1,28,0,60
1,28,125,120
1,28,0,50
1,28,125,10
1,28,0,50
1,28,125,10
1,28,0,50
1,28,125,10
1,28,0,50
1,28,125,70
1,28,0,60
1,28,125,120
1,28,0,50
1,28,125,10
1,28,0,50
1,28,125,10
1,28,0,50
1,35,125,10
1,35,0,120
1,36,125,0
1,36,0,60
1,36,125,120
1,36,0,50
1,36,125,10
1,36,0,50
1,36,125,10
1,36,0,50
1,36,125,10
1,36,0,50
1,36,125,70
1,36,0,60
1,36,125,120
1,36,0,50
1,36,125,10
1,36,0,50
1,36,125,10
1,36,0,50
1,36,125,10
1,36,0,1
1,33,125,0
1,33,0,60
1,33,125,120
1,33,0,50
1,33,125,10
1,33,0,50
1,33,125,10
1,33,0,50
1,33,125,10
1,33,0,50
1,33,125,70
1,33,0,60
1,33,125,120
1,33,0,50
1,33,125,10
1,33,0,50
1,33,125,10
1,33,0,50
1,33,125,10
1,33,0,50
1,28,125,70
1,28,0,60
1,28,125,120
1,28,0,50
1,28,125,10
1,28,0,50
1,28,125,10
1,28,0,50
1,28,125,10
1,28,0,50
1,28,125,70
1,28,0,60
1,28,125,120
1,28,0,50
1,28,125,10
1,28,0,50
1,26,125,10
1,26,0,60
1,27,125,0
1,27,0,60
1,28,125,0
1,28,0,60
1,28,125,0
1,28,0,60
1,28,125,120
1,28,0,50
1,28,125,10
1,28,0,50
1,28,125,10
1,28,0,50
1,28,125,10
1,28,0,50
1,28,125,70
1,28,0,60
1,28,125,120
1,28,0,50
1,28,125,10
1,28,0,50
1,28,125,10
1,28,0,50
1,35,125,10
1,35,0,120
1,36,125,0
1,36,0,60
1,36,125,120
1,36,0,50
1,36,125,10
1,36,0,50
1,36,125,10
1,36,0,50
1,36,125,10
1,36,0,50
1,36,125,70
1,36,0,60
1,36,125,120
1,36,0,50
1,36,125,10
1,36,0,50
1,36,125,10
1,36,0,50
1,36,125,10
1,36,0,50
1,33,125,70
1,33,0,60
1,33,125,120
1,33,0,50
1,33,125,10
1,33,0,50
1,33,125,10
1,33,0,50
1,33,125,10
1,33,0,50
1,33,125,70
1,33,0,60
1,33,125,120
1,33,0,50
1,33,125,10
1,33,0,50
1,33,125,10
1,33,0,50
1,33,125,10
1,33,0,50
1,28,125,70
1,28,0,60
1,28,125,120
1,28,0,50
1,28,125,10
1,28,0,50
1,28,125,10
1,28,0,50
1,28,125,10
1,28,0,50
1,28,125,70
1,28,0,60
1,28,125,120
1,28,0,50
1,28,125,10
1,28,0,50
1,28,125,10
1,28,0,50
1,35,125,10
1,35,0,120
1,28,125,0
1,28,0,50
1,28,125,10
1,28,0,60
1,36,125,660
1,36,0,30
1,35,125,0
1,35,0,30
1,33,125,0
1,33,0,60
1,38,125,0
1,38,0,50
1,28,125,10
1,28,0,50
1,28,125,10
1,28,0,60
1,28,125,840
1,28,0,50
1,28,125,10
1,28,0,60
1,28,125,840
1,28,0,50
1,28,125,10
1,28,0,60
1,28,125,840
1,28,0,50
1,28,125,10
1,28,0,60
1,28,125,840
1,28,0,50
1,28,125,10
1,28,0,60
1,35,125,660
1,35,0,60
1,36,125,0
1,36,0,60
1,38,125,0
1,38,0,60
1,40,125,0
1,40,0,1
1,31,125,1620
1,31,0,60
1,28,125,0
1,28,0,60
1,28,125,120
1,28,0,50
1,28,125,10
1,28,0,50
1,28,125,10
1,28,0,50
1,28,125,10
1,28,0,50
1,28,125,70
1,28,0,60
1,28,125,120
1,28,0,50
1,28,125,10
1,28,0,50
1,28,125,10
1,28,0,50
1,35,125,10
1,35,0,120
1,36,125,0
1,36,0,60
1,36,125,120
1,36,0,50
1,36,125,10
1,36,0,50
1,36,125,10
1,36,0,50
1,36,125,10
1,36,0,50
1,36,125,70
1,36,0,60
1,36,125,120
1,36,0,50
1,36,125,10
1,36,0,50
1,36,125,10
1,36,0,50
1,36,125,10
1,36,0,50
1,33,125,70
1,33,0,60
1,33,125,120
1,33,0,50
1,33,125,10
1,33,0,50
1,33,125,10
1,33,0,50
1,33,125,10
1,33,0,50
1,33,125,70
1,33,0,60
1,33,125,120
1,33,0,50
1,33,125,10
1,33,0,50
1,33,125,10
1,33,0,50
1,33,125,10
1,33,0,50
1,28,125,70
1,28,0,60
1,28,125,120
1,28,0,50
1,28,125,10
1,28,0,50
1,28,125,10
1,28,0,50
1,28,125,10
1,28,0,50
1,28,125,70
1,28,0,60
1,28,125,120
1,28,0,50
1,28,125,10
1,28,0,50
1,28,125,10
1,28,0,50
1,35,125,10
1,35,0,120
1,28,125,0
1,28,0,60
1,28,125,120
1,28,0,50
1,28,125,10
1,28,0,50
1,28,125,10
1,28,0,50
1,28,125,10
1,28,0,50
1,28,125,70
1,28,0,60
1,28,125,120
1,28,0,50
1,28,125,10
1,28,0,50
1,28,125,10
1,28,0,50
1,35,125,10
1,35,0,120
1,36,125,0
1,36,0,60
1,36,125,120
1,36,0,50
1,36,125,10
1,36,0,50
1,36,125,10
1,36,0,50
1,36,125,10
1,36,0,50
1,36,125,70
1,36,0,60
1,36,125,120
1,36,0,50
1,36,125,10
1,36,0,50
1,36,125,10
1,36,0,50
1,36,125,10
1,36,0,50
1,33,125,70
1,33,0,60
1,33,125,120
1,33,0,50
1,33,125,10
1,33,0,50
1,33,125,10
1,33,0,50
1,33,125,10
1,33,0,50
1,33,125,70
1,33,0,60
1,33,125,120
1,33,0,50
1,33,125,10
1,33,0,50
1,33,125,10
1,33,0,50
1,33,125,10
1,33,0,50
1,28,125,70
1,28,0,60
1,28,125,120
1,28,0,50
1,28,125,10
1,28,0,50
1,28,125,10
1,28,0,50
1,28,125,10
1,28,0,50
1,28,125,70
1,28,0,60
1,28,125,120
1,28,0,50
1,28,125,10
1,28,0,50
1,28,125,10
1,28,0,50
1,35,125,10
1,35,0,120
1,28,125,0
1,28,0,50
1,28,125,10
1,28,0,60
1,36,125,660
1,36,0,30
1,35,125,0
1,35,0,30
1,33,125,0
1,33,0,60
1,38,125,0
1,38,0,50
1,28,125,10
1,28,0,50
1,28,125,10
1,28,0,60
1,28,125,840
1,28,0,50
1,28,125,10
1,28,0,60
1,28,125,840
1,28,0,50
1,28,125,10
1,28,0,60
1,28,125,840
1,28,0,50
1,28,125,10
1,28,0,60
1,28,125,840
1,28,0,50
1,28,125,10
1,28,0,60
1,35,110,660
1,35,0,60
1,36,106,0
1,36,0,60
1,38,103,0
1,38,0,60
1,28,100,0
1,28,0,50
1,28,97,10
1,28,0,60
1,28,50,840
1,28,0,50
1,28,47,10
1,28,0,60
2,40,120,3000
2,40,0,80
2,40,120,100
2,40,0,80
2,40,120,220
2,40,0,80
2,40,120,100
2,40,0,80
2,36,120,100
2,36,0,40
2,48,120,20
2,48,0,50
2,48,120,10
2,48,0,50
2,36,120,70
2,36,0,40
2,48,120,20
2,48,0,90
2,36,120,90
2,36,0,40
2,48,120,20
2,48,0,50
2,48,120,10
2,48,0,50
2,36,120,70
2,36,0,40
2,48,120,20
2,48,0,90
2,33,120,90
2,33,0,40
2,45,120,20
2,45,0,50
2,45,120,10
2,45,0,50
2,33,120,70
2,33,0,40
2,45,120,20
2,45,0,90
2,33,120,90
2,33,0,40
2,45,120,20
2,45,0,50
2,45,120,10
2,45,0,50
2,33,120,70
2,33,0,40
2,45,120,20
2,45,0,90
2,40,120,210
2,40,0,80
2,40,120,100
2,40,0,80
2,40,120,220
2,40,0,80
2,40,120,100
2,40,0,80
2,40,120,220
2,40,0,80
2,40,120,100
2,40,0,80
2,40,120,220
2,40,0,80
2,40,120,100
2,40,0,80
2,36,120,100
2,36,0,40
2,48,120,20
2,48,0,50
2,48,120,10
2,48,0,50
2,36,120,70
2,36,0,40
2,48,120,20
2,48,0,90
2,36,120,90
2,36,0,40
2,48,120,20
2,48,0,50
2,48,120,10
2,48,0,50
2,36,120,70
2,36,0,40
2,48,120,20
2,48,0,90
2,33,120,90
2,33,0,40
2,45,120,20
2,45,0,50
2,45,120,10
2,45,0,50
2,33,120,70
2,33,0,40
2,45,120,20
2,45,0,90
2,33,120,90
2,33,0,40
2,45,120,20
2,45,0,50
2,45,120,10
2,45,0,50
2,33,120,70
2,33,0,40
2,45,120,20
2,45,0,90
2,40,120,210
2,40,0,80
2,40,120,100
2,40,0,80
2,40,120,220
2,40,0,80
2,38,120,100
2,38,0,25
2,39,120,35
2,39,0,25
2,40,120,35
2,40,0,60
2,40,120,120
2,40,0,80
2,40,120,100
2,40,0,80
2,40,120,220
2,40,0,80
2,40,120,100
2,40,0,80
2,36,120,100
2,36,0,40
2,48,120,20
2,48,0,50
2,48,120,10
2,48,0,50
2,36,120,70
2,36,0,40
2,48,120,20
2,48,0,90
2,36,120,90
2,36,0,40
2,48,120,20
2,48,0,50
2,48,120,10
2,48,0,50
2,36,120,70
2,36,0,40
2,48,120,20
2,48,0,90
2,33,120,90
2,33,0,40
2,45,120,20
2,45,0,50
2,45,120,10
2,45,0,50
2,33,120,70
2,33,0,40
2,45,120,20
2,45,0,90
2,33,120,90
2,33,0,40
2,45,120,20
2,45,0,50
2,45,120,10
2,45,0,50
2,33,120,70
2,33,0,40
2,45,120,20
2,45,0,90
2,40,120,210
2,40,0,80
2,40,120,100
2,40,0,80
2,40,120,220
2,40,0,80
2,40,120,100
2,40,0,80
2,40,120,220
2,40,0,80
2,40,120,100
2,40,0,80
2,40,120,220
2,40,0,80
2,40,120,100
2,40,0,80
2,36,120,100
2,36,0,40
2,48,120,20
2,48,0,50
2,48,120,10
2,48,0,50
2,36,120,70
2,36,0,40
2,48,120,20
2,48,0,90
2,36,120,90
2,36,0,40
2,48,120,20
2,48,0,50
2,48,120,10
2,48,0,50
2,36,120,70
2,36,0,40
2,48,120,20
2,48,0,90
2,33,120,90
2,33,0,40
2,45,120,20
2,45,0,50
2,45,120,10
2,45,0,50
2,33,120,70
2,33,0,40
2,45,120,20
2,45,0,90
2,33,120,90
2,33,0,40
2,45,120,20
2,45,0,50
