track,note,velocity,time
1,79,127,12276
1,79,127,100
1,77,127,12
1,75,127,8
1,79,127,32
1,79,127,100
1,79,127,940
1,77,127,264
1,75,127,276
1,79,127,196
1,79,127,100
1,75,127,728
1,75,127,128
1,77,127,16
1,79,127,392
1,80,127,92
1,80,127,136
1,80,127,48
1,79,127,68
1,77,127,872
1,75,127,400
1,74,127,360
1,77,127,404
1,77,127,88
1,77,127,824
1,79,127,16
1,79,127,116
1,77,127,12
1,75,127,0
1,72,127,232
1,75,127,380
1,72,127,8
1,75,127,228
1,74,127,556
1,74,127,40
1,72,127,544
1,72,127,84
1,76,127,1636
1,77,127,596
1,79,127,520
1,81,127,8
1,79,127,8
1,78,127,552
1,81,127,376
1,79,127,8
1,76,127,1060
1,77,127,576
1,79,127,8
1,84,127,396
1,83,127,544
1,79,127,8
1,77,127,368
1,81,127,364
1,80,127,8
1,81,127,8
1,84,127,376
1,83,127,8
1,81,127,560
1,84,127,388
1,83,127,12
1,81,127,60
1,81,127,116
1,81,127,52
1,81,127,56
1,81,127,108
1,71,127,20
1,81,127,1612
1,79,127,796
1,76,127,2368
1,77,127,556
1,79,127,540
1,81,127,368
1,79,127,556
1,78,127,568
1,81,127,360
1,79,127,0
1,76,127,1040
1,77,127,568
1,79,127,544
1,81,127,384
1,79,127,0
1,77,127,12
1,81,127,356
1,81,127,916
1,80,127,8
1,81,127,556
1,84,127,0
1,83,127,580
1,81,127,4
1,81,127,128
1,79,127,416
1,82,127,164
1,81,127,20
1,79,127,8
1,77,127,192
1,76,127,712
1,79,127,392
1,77,127,8
1,77,127,636
1,77,127,48
1,72,127,8
1,74,127,372
1,76,127,0
1,77,127,420
1,76,127,4
1,76,127,108
1,74,127,28
1,72,127,668
1,77,127,7432
1,77,127,76
1,75,127,284
1,74,127,280
1,77,127,176
1,77,127,68
1,77,127,452
1,79,127,20
1,77,127,776
1,75,127,544
1,72,127,84
1,72,127,40
1,75,127,236
1,72,127,8
1,75,127,188
1,74,127,560
1,74,127,88
1,72,127,728
1,72,127,92
1,76,127,2200
1,77,127,572
1,79,127,540
1,81,127,380
1,79,127,564
1,78,127,0
1,81,127,380
1,79,127,8
1,76,127,1092
1,77,127,568
1,79,127,532
1,84,127,372
1,83,127,580
1,79,127,12
1,77,127,368
1,81,127,1152
1,80,127,12
1,81,127,20
1,84,127,356
1,83,127,576
1,81,127,8
1,84,127,0
1,83,127,12
1,81,127,284
1,81,127,40
1,81,127,76
1,81,127,100
1,71,127,12
1,81,127,1744
1,79,127,788
1,76,127,1840
1,77,127,600
1,79,127,540
1,81,127,0
1,79,127,584
1,78,127,560
1,81,127,364
1,79,127,8
1,76,127,884
1,77,127,588
1,79,127,528
1,81,127,0
1,79,127,12
1,77,127,560
1,81,127,376
1,81,127,1136
1,80,127,580
1,81,127,556
1,84,127,376
1,83,127,568
1,81,127,8
1,81,127,156
1,79,127,8
1,82,127,12
1,81,127,28
1,79,127,8
1,77,127,8
1,76,127,20
1,79,127,392
1,77,127,8
1,77,127,436
1,72,127,8
1,74,127,380
1,76,127,336
1,77,127,8
1,76,127,12
1,76,127,116
1,74,127,40
1,72,127,652
2,36,110,964
2,36,110,128
2,36,110,80
2,31,110,384
2,34,110,188
2,36,110,168
2,36,110,168
2,36,110,92
2,36,110,84
2,31,110,12
2,29,110,60
2,29,110,144
2,29,110,68
2,24,110,140
2,27,110,192
2,29,110,184
2,29,110,152
2,29,110,72
2,26,110,192
2,29,110,184
2,30,110,4
2,31,110,0
2,31,110,180
2,31,110,72
2,26,110,384
2,29,110,184
2,31,110,4
2,31,110,188
2,31,110,80
2,26,110,8
2,31,110,192
2,26,110,16
2,36,110,188
2,36,110,168
2,36,110,64
2,31,110,20
2,34,110,192
2,36,110,4
2,36,110,180
2,36,110,64
2,31,110,384
2,34,110,176
2,36,110,184
2,36,110,200
2,36,110,76
2,31,110,192
2,34,110,188
2,31,110,12
2,36,110,24
2,36,110,180
2,36,110,80
2,31,110,192
2,34,110,4
2,31,110,4
2,36,110,192
2,36,110,192
2,36,110,92
2,31,110,192
2,34,110,8
2,31,110,4
2,36,110,4
2,36,110,192
2,36,110,84
2,31,110,4
2,34,110,4
2,31,110,24
2,36,110,0
2,36,110,176
2,36,110,92
2,31,110,192
2,34,110,0
2,29,110,12
2,29,110,180
2,29,110,112
2,24,110,8
2,29,110,4
2,24,110,8
2,31,110,0
2,31,110,208
2,31,110,60
2,26,110,4
2,29,110,24
2,31,110,4
2,31,110,176
2,31,110,52
2,26,110,192
2,26,110,92
2,31,110,0
2,31,110,132
2,31,110,52
2,26,110,0
2,29,110,4
2,31,110,12
2,31,110,152
2,26,110,84
2,31,110,192
2,36,110,356
2,36,110,196
2,36,110,72
2,31,110,0
2,34,110,192
2,31,110,0
2,36,110,4
2,36,110,140
2,36,110,80
2,31,110,0
2,36,110,188
2,34,110,4
2,32,110,4
2,32,110,144
2,32,110,64
2,39,110,192
2,36,110,168
2,32,110,32
2,31,110,4
2,31,110,144
2,31,110,64
2,38,110,192
2,35,110,140
2,31,110,168
2,36,110,184
2,36,110,192
2,36,110,148
2,31,110,316
2,43,110,0
2,31,110,140
2,43,110,0
2,36,110,64
2,36,110,160
2,31,110,8
2,33,110,192
2,35,110,148
2,36,110,168
2,36,110,156
2,31,110,8
2,33,110,192
2,35,110,144
2,36,110,184
2,36,110,156
2,31,110,4
2,33,110,192
2,35,110,176
2,36,110,184
2,36,110,196
2,31,110,384
2,33,110,188
2,35,110,4
2,36,110,4
2,36,110,196
2,31,110,16
2,33,110,192
2,35,110,152
2,36,110,8
2,36,110,176
2,31,110,384
2,36,110,192
2,36,110,60
2,31,110,192
2,31,110,140
2,26,110,28
2,29,110,192
2,30,110,152
2,31,110,176
2,31,110,216
2,26,110,8
2,29,110,192
2,30,110,8
2,31,110,36
2,31,110,236
2,26,110,384
2,29,110,188
2,30,110,184
2,31,110,16
2,31,110,216
2,26,110,8
2,29,110,196
2,30,110,156
2,31,110,60
2,31,110,128
2,26,110,8
2,29,110,192
2,30,110,168
2,31,110,184
2,31,110,232
2,26,110,384
2,29,110,160
2,30,110,16
2,31,110,12
2,31,110,196
2,26,110,16
2,29,110,192
2,30,110,4
2,31,120,52
2,31,115,168
2,26,100,156
2,28,94,192
2,31,102,176
2,36,110,36
2,36,110,164
2,36,110,148
2,43,110,220
2,43,110,156
2,36,110,24
2,36,110,144
2,31,110,100
2,33,110,192
2,35,110,164
2,36,110,172
2,36,110,168
2,31,110,4
2,33,110,192
2,35,110,8
2,36,110,196
2,36,110,168
2,31,110,384
2,33,110,188
2,35,110,0
2,36,110,12
2,36,110,172
2,36,110,136
2,31,110,192
2,33,110,12
2,36,110,0
2,36,110,184
2,31,110,0
2,36,110,196
2,31,110,160
2,33,110,28
2,40,110,72
2,45,110,12
2,33,110,384
2,38,110,184
2,38,110,120
2,33,110,0
2,36,110,192
2,33,110,12
2,38,110,8
2,38,110,144
2,33,110,576
2,36,110,4
2,41,110,192
2,41,110,132
2,36,110,384
2,38,110,188
2,41,110,160
2,31,110,108
2,31,110,180
2,31,110,108
2,33,110,192
2,35,110,164
2,36,110,168
2,36,110,184
2,36,110,84
2,31,110,192
2,36,110,188
2,33,110,164
2,33,110,164
2,28,110,384
2,31,110,188
2,33,110,16
2,38,110,192
2,38,110,156
2,38,110,128
2,33,110,192
2,36,110,164
2,41,110,180
2,43,110,568
2,44,110,184
2,43,110,164
2,41,110,12
2,29,110,192
2,31,110,136
2,31,110,188
2,31,110,84
2,31,110,84
2,31,110,116
2,31,110,80
2,31,110,168
2,43,110,192
2,31,110,172
2,31,110,116
2,36,110,4
2,36,110,140
2,36,110,92
2,31,110,192
2,33,110,8
2,36,110,196
2,36,110,128
2,36,110,72
2,31,110,384
2,33,110,16
2,36,110,192
2,36,110,120
2,36,110,132
2,36,110,92
2,35,110,112
2,33,110,188
2,31,110,128
2,31,110,188
2,31,110,100
2,31,110,100
2,26,110,192
2,29,110,0
2,31,110,4
2,31,110,152
2,31,110,24
2,31,110,76
2,26,110,188
2,29,110,12
2,31,110,0
2,31,110,156
2,26,110,104
2,29,110,192
2,30,110,0
2,31,110,52
2,31,110,148
2,26,110,384
2,31,110,192
2,36,110,348
2,36,110,224
2,31,110,24
2,34,110,192
2,31,110,188
2,36,110,16
2,36,110,140
2,36,110,80
2,31,110,16
2,36,110,192
2,34,110,168
2,32,110,180
2,32,110,216
2,27,110,384
2,32,110,176
2,31,110,12
2,31,110,140
2,26,110,384
2,31,110,176
2,36,110,4
2,36,110,148
2,36,110,160
2,43,110,188
2,31,110,176
2,36,110,192
2,36,110,136
2,31,110,384
2,33,110,4
2,35,110,12
2,36,110,0
2,36,110,152
2,36,110,128
2,31,110,192
2,33,110,8
2,36,110,196
2,36,110,140
2,31,110,0
2,33,110,4
2,35,110,12
2,36,110,192
2,36,110,148
2,36,110,92
2,33,110,192
2,31,110,20
2,36,110,44
2,36,110,136
2,31,110,384
2,33,110,0
2,35,110,24
2,36,110,0
2,36,110,164
2,36,110,132
2,33,110,192
2,36,110,20
2,31,110,192
2,31,110,184
2,26,110,12
2,29,110,192
2,30,110,4
2,31,110,192
2,31,110,192
2,31,110,128
2,26,110,192
2,28,110,32
2,31,110,12
2,31,110,148
2,26,110,4
2,29,110,192
2,30,110,12
2,31,110,192
2,31,110,188
2,31,110,128
2,26,110,192
2,28,110,20
2,31,110,4
2,31,110,140
2,31,110,128
2,26,110,192
2,28,110,168
2,31,110,0
2,31,110,156
2,31,110,128
2,26,110,192
2,28,110,28
2,31,110,4
2,31,110,176
2,31,110,132
2,28,110,192
2,26,110,184
2,31,110,184
2,31,110,128
2,31,110,128
2,33,110,192
2,31,110,8
2,36,110,192
2,36,110,168
2,36,110,132
2,43,110,284
2,31,110,64
2,36,110,196
2,36,110,136
2,36,110,128
2,31,110,196
2,33,110,8
2,36,110,8
2,36,110,160
2,36,110,120
2,31,110,192
2,33,110,4
2,36,110,192
2,36,110,144
2,31,110,384
2,33,110,156
2,35,110,164
2,36,110,168
2,36,110,136
2,31,110,384
2,33,110,184
2,35,110,0
2,36,110,0
2,36,110,132
2,36,110,128
2,31,110,192
2,36,110,176
2,33,110,188
2,33,110,136
2,40,110,4
2,45,110,192
2,40,110,188
2,33,110,164
2,38,110,168
2,38,110,152
2,33,110,128
2,45,110,4
2,33,110,192
2,38,110,188
2,38,110,148
2,33,110,24
2,36,110,192
2,38,110,4
2,41,110,192
2,41,110,176
2,36,110,384
2,38,110,184
2,41,110,12
2,31,110,192
2,31,110,180
2,31,110,108
2,33,110,192
2,35,110,8
2,36,110,0
2,36,110,204
2,31,110,384
2,36,110,184
2,33,110,372
2,33,110,164
2,28,110,16
2,31,110,192
2,33,110,0
2,38,110,196
2,38,110,160
2,33,110,40
2,36,110,188
2,38,110,180
2,41,110,184
2,43,110,560
2,44,110,188
2,43,110,172
2,41,110,0
2,29,110,192
2,31,110,8
2,31,110,88
2,31,110,136
2,31,110,72
2,31,110,120
2,31,110,60
2,31,110,88
2,31,110,100
2,31,110,88
2,31,110,168
2,36,110,0
2,36,110,128
2,36,110,120
2,43,110,576
2,31,110,0
2,36,110,192
2,36,110,144
2,36,110,196
2,43,110,576
2,31,110,368
2,36,110,180
2,36,110,128
2,31,110,28
2,33,110,188
2,31,110,8
2,36,110,188
3,63,95,956
3,67,95,0
3,72,95,0
3,70,95,2300
3,68,95,76
3,60,95,32
3,65,95,0
3,62,95,116
3,59,95,28
3,67,95,0
3,60,95,124
3,63,95,0
3,55,95,176
3,63,95,0
3,60,95,4
3,56,95,108
3,55,95,24
3,56,95,132
3,65,95,372
3,62,95,8
3,59,95,80
3,55,95,16
3,60,95,8
3,63,95,536
3,68,95,80
3,67,95,88
3,59,95,12
3,62,95,0
3,65,95,4
3,55,95,352
3,64,95,0
3,60,95,0
3,60,95,100
3,64,95,0
3,60,95,108
3,64,95,0
3,62,95,380
3,65,95,0
3,62,95,80
3,65,95,0
3,62,95,108
3,65,95,0
3,64,95,356
3,67,95,0
3,64,95,88
3,67,95,16
3,64,95,96
3,67,95,0
3,62,95,8
3,65,95,0
3,64,95,0
3,60,95,16
3,62,95,584
3,65,95,0
3,64,95,8
3,67,95,4
3,65,95,92
3,69,95,0
3,64,95,0
3,67,95,16
3,63,95,108
3,66,95,0
3,65,95,68
3,69,95,0
3,64,95,12
3,67,95,0
3,60,95,932
3,60,95,120
3,64,95,0
3,65,95,8
3,62,95,4
3,64,95,544
3,67,95,0
3,69,95,120
3,72,95,0
3,67,95,404
3,71,95,0
3,67,95,68
3,64,95,16
3,62,95,96
3,65,95,0
3,59,95,28
3,55,95,32
3,65,95,92
3,69,95,0
3,64,95,8
3,68,95,0
3,65,95,8
3,69,95,0
3,72,95,96
3,69,95,16
3,71,95,12
3,67,95,0
3,69,95,584
3,65,95,16
3,72,95,368
3,67,95,8
3,65,95,16
3,71,95,0
3,65,95,100
3,69,95,0
3,59,95,944
3,62,95,540
3,67,95,16
3,65,95,80
3,69,95,0
3,67,95,76
3,60,95,16
3,64,95,24
3,64,95,136
3,60,95,4
3,62,95,580
3,65,95,0
3,64,95,0
3,67,95,0
3,65,95,76
3,69,95,4
3,64,95,556
3,67,95,0
3,66,95,0
3,63,95,16
3,65,95,88
3,69,95,0
3,64,95,12
3,67,95,0
3,60,95,1812
3,60,95,96
3,64,95,0
3,62,95,88
3,65,95,0
3,67,95,8
3,64,95,16
3,61,95,352
3,69,95,0
3,67,95,20
3,65,95,8
3,69,95,60
3,62,95,16
3,65,95,104
3,69,95,0
3,68,95,20
3,64,95,16
3,65,95,20
3,69,95,0
3,69,95,56
3,72,95,16
3,71,95,0
3,69,95,596
3,69,95,68
3,67,95,352
3,60,95,16
3,64,95,0
3,70,95,364
3,69,95,200
3,67,95,296
3,62,95,188
3,65,95,0
3,64,95,96
3,61,95,0
3,67,95,536
3,62,95,48
3,65,95,0
3,57,95,388
3,56,95,8
3,60,95,0
3,64,95,32
3,55,95,16
3,59,95,1504
3,62,95,364
3,67,95,352
3,65,95,8
3,64,95,120
3,60,95,0
3,62,95,424
3,65,95,0
3,64,95,4
3,67,95,16
3,62,95,740
3,65,95,0
3,64,95,0
3,55,95,16
3,60,95,0
3,62,95,8
3,65,95,0
3,64,95,712
3,67,95,0
3,62,95,0
3,65,95,0
3,60,95,8
3,64,95,0
3,55,95,60
3,62,95,0
3,59,95,24
3,65,95,1292
3,67,95,8
3,60,95,16
3,63,95,0
3,68,95,2952
3,65,95,76
3,67,95,16
3,59,95,4
3,62,95,0
3,64,95,192
3,55,95,12
3,60,95,0
3,62,95,1128
3,65,95,0
3,64,95,740
3,67,95,0
3,62,95,8
3,65,95,0
3,60,95,392
3,64,95,0
3,62,95,564
3,65,95,0
3,64,95,516
3,67,95,16
3,60,95,228
3,69,95,108
3,65,95,4
3,64,95,8
3,67,95,16
3,66,95,96
3,63,95,16
3,69,95,40
3,65,95,12
3,64,95,8
3,67,95,0
3,60,95,116
3,64,95,0
3,62,95,572
3,65,95,0
3,64,95,8
3,67,95,4
3,69,95,124
3,72,95,0
3,67,95,560
3,71,95,0
3,60,95,548
3,64,95,16
3,65,95,92
3,59,95,16
3,62,95,0
3,55,95,752
3,65,95,36
3,69,95,0
3,64,95,0
3,68,95,16
3,65,95,8
3,69,95,20
3,72,95,376
3,65,95,496
3,67,95,0
3,71,95,0
3,69,95,76
3,65,95,8
3,72,95,368
3,67,95,20
3,71,95,0
3,65,95,212
3,69,95,0
3,65,95,80
3,69,95,0
3,59,95,0
3,62,95,0
3,65,95,540
3,69,95,1124
3,67,95,96
3,60,95,32
3,64,95,16
3,62,95,636
3,65,95,0
3,64,95,764
3,67,95,0
3,62,95,788
3,65,95,0
3,60,95,364
3,64,95,0
3,62,95,764
3,65,95,0
3,64,95,340
3,67,95,16
3,60,95,272
3,69,95,72
3,65,95,20
3,64,95,8
3,67,95,0
3,66,95,80
3,63,95,16
3,69,95,48
