track,note,velocity,time
0,53,88,695
0,58,102,0
0,59,94,32
0,58,0,8
0,32,53,24
0,35,120,0
0,43,78,0
0,82,68,0
0,85,92,0
0,32,0,4
0,35,0,0
0,82,0,0
0,85,0,0
0,32,63,92
0,50,94,0
0,67,106,0
0,32,0,4
0,50,0,84
0,32,72,8
0,38,100,0
0,52,91,0
0,82,64,0
0,85,92,0
0,32,0,4
0,38,0,0
0,82,0,0
0,85,0,0
0,52,0,46
0,32,53,46
0,50,93,0
0,32,0,4
0,53,0,26
0,59,0,0
0,67,0,0
0,53,90,2
0,58,81,0
0,43,0,5
0,59,97,27
0,58,0,8
0,32,67,24
0,35,120,0
0,43,75,0
0,82,66,0
0,85,92,0
0,32,0,4
0,35,0,0
0,82,0,0
0,85,0,0
0,50,0,22
0,32,48,70
0,50,93,0
0,62,97,0
0,32,0,4
0,50,0,89
0,32,72,3
0,38,100,0
0,52,90,0
0,64,97,0
0,82,73,0
0,85,92,0
0,32,0,4
0,38,0,0
0,82,0,0
0,85,0,0
0,52,0,25
0,32,48,67
0,50,89,0
0,32,0,4
0,43,0,21
0,53,0,5
0,59,0,0
0,62,0,0
0,64,0,0
0,53,83,2
0,58,95,0
0,58,0,30
0,59,92,2
0,32,53,32
0,35,120,0
0,43,75,0
0,82,61,0
0,85,92,0
0,32,0,4
0,35,0,0
0,82,0,0
0,85,0,0
0,50,0,55
0,32,63,37
0,50,93,0
0,67,106,0
0,32,0,4
0,50,0,87
0,32,72,5
0,38,100,0
0,52,93,0
0,82,62,0
0,85,92,0
0,32,0,4
0,38,0,0
0,82,0,0
0,85,0,0
0,52,0,51
0,53,0,24
0,59,0,0
0,32,53,17
0,50,93,0
0,32,0,4
0,67,0,4
0,53,88,24
0,58,94,0
0,43,0,28
0,59,91,4
0,58,0,8
0,32,67,24
0,35,120,0
0,43,75,0
0,82,63,0
0,85,92,0
0,32,0,4
0,35,0,0
0,82,0,0
0,85,0,0
0,50,0,61
0,32,48,31
0,50,93,0
0,62,97,0
0,32,0,4
0,50,0,85
0,32,72,7
0,38,100,0
0,52,91,0
0,64,102,0
0,82,64,0
0,85,92,0
0,32,0,4
0,38,0,0
0,82,0,0
0,85,0,0
0,52,0,54
0,32,48,38
0,50,92,0
0,32,0,4
0,53,0,26
0,59,0,0
0,62,0,0
0,64,0,0
0,53,88,2
0,58,99,0
0,43,0,12
0,59,88,20
0,58,0,7
0,32,53,25
0,35,120,0
0,43,76,0
0,82,68,0
0,85,92,0
0,32,0,4
0,35,0,0
0,82,0,0
0,85,0,0
0,50,0,56
0,32,63,36
0,50,93,0
0,67,106,0
0,32,0,4
0,50,0,82
0,32,72,10
0,38,100,0
0,52,93,0
0,82,64,0
0,85,92,0
0,32,0,4
0,38,0,0
0,82,0,0
0,85,0,0
0,52,0,51
0,59,0,27
0,53,0,3
0,32,53,11
0,50,93,0
0,32,0,4
0,67,0,3
0,53,83,25
0,58,92,0
0,43,0,12
0,59,92,20
0,58,0,6
0,32,67,26
0,35,120,0
0,43,75,0
0,82,66,0
0,85,92,0
0,32,0,4
0,35,0,0
0,82,0,0
0,85,0,0
0,50,0,59
0,32,48,33
0,50,84,0
0,62,97,0
0,32,0,4
0,50,0,83
0,32,72,9
0,38,100,0
0,52,93,0
0,64,102,0
0,82,73,0
0,85,92,0
0,32,0,4
0,38,0,0
0,82,0,0
0,85,0,0
0,52,0,33
0,32,48,59
0,50,93,0
0,32,0,4
0,53,0,26
0,59,0,0
0,62,0,0
0,64,0,0
0,53,88,2
0,58,95,0
0,43,0,23
0,59,90,9
0,58,0,6
0,32,53,26
0,35,120,0
0,43,77,0
0,82,61,0
0,85,92,0
0,32,0,4
0,35,0,0
0,82,0,0
0,85,0,0
0,50,0,54
0,32,63,38
0,50,98,0
0,67,106,0
0,32,0,4
0,50,0,75
0,32,72,17
0,38,100,0
0,52,93,0
0,82,62,0
0,85,92,0
0,32,0,4
0,38,0,0
0,82,0,0
0,85,0,0
0,52,0,54
0,53,0,21
0,59,0,2
0,32,53,15
0,50,97,0
0,32,0,4
0,67,0,8
0,53,84,20
0,58,95,0
0,43,0,19
0,58,0,12
0,59,90,1
0,32,67,32
0,35,120,0
0,43,78,0
0,82,63,0
0,85,92,0
0,32,0,4
0,35,0,0
0,82,0,0
0,85,0,0
0,50,0,38
0,32,48,54
0,50,93,0
0,62,97,0
0,32,0,4
0,50,0,77
0,32,72,15
0,38,100,0
0,52,98,0
0,64,102,0
0,71,122,0
0,82,64,0
0,85,92,0
0,32,0,4
0,38,0,0
0,82,0,0
0,85,0,0
0,52,0,43
0,71,0,15
0,32,48,34
0,50,93,0
0,74,120,0
0,32,0,4
0,74,0,21
0,53,0,5
0,59,0,0
0,62,0,0
0,64,0,0
0,53,88,2
0,58,108,0
0,76,105,0
0,43,0,18
0,59,88,14
0,58,0,7
0,32,53,25
0,35,120,0
0,43,76,0
0,82,68,0
0,85,92,0
0,32,0,4
0,35,0,0
0,82,0,0
0,85,0,0
0,50,0,70
0,76,0,9
0,32,63,13
0,50,93,0
0,67,106,0
0,74,127,0
0,32,0,4
0,74,0,18
0,50,0,64
0,32,72,10
0,38,100,0
0,52,93,0
0,82,64,0
0,85,92,0
0,32,0,4
0,38,0,0
0,82,0,0
0,85,0,0
0,52,0,51
0,53,0,29
0,59,0,0
0,32,53,12
0,50,93,0
0,32,0,4
0,67,0,9
0,53,83,19
0,58,100,0
0,43,0,12
0,59,92,20
0,58,0,6
0,32,67,26
0,35,120,0
0,43,75,0
0,82,66,0
0,85,92,0
0,32,0,4
0,35,0,0
0,82,0,0
0,85,0,0
0,50,0,59
0,32,48,33
0,50,84,0
0,62,97,0
0,32,0,4
0,50,0,83
0,32,72,9
0,38,100,0
0,52,93,0
0,64,104,0
0,71,127,0
0,82,73,0
0,85,92,0
0,32,0,4
0,38,0,0
0,82,0,0
0,85,0,0
0,52,0,33
0,71,0,53
0,32,48,6
0,50,93,0
0,74,109,0
0,32,0,4
0,74,0,19
0,53,0,7
0,59,0,0
0,62,0,0
0,64,0,0
0,76,113,2
0,43,0,23
0,50,0,39
0,32,53,2
0,35,120,0
0,38,79,0
0,82,61,0
0,85,92,0
0,32,0,4
0,35,0,0
0,82,0,0
0,85,0,0
0,38,0,83
0,32,63,9
0,50,91,0
0,55,68,0
0,57,78,0
0,60,93,0
0,32,0,4
0,55,0,11
0,57,0,2
0,60,0,5
0,76,0,15
0,76,124,4
0,50,0,5
0,32,72,7
0,38,100,0
0,48,90,0
0,55,93,0
0,57,97,0
0,60,97,0
0,82,62,0
0,85,92,0
0,32,0,4
0,38,0,0
0,82,0,0
0,85,0,0
0,76,0,13
0,74,122,65
0,48,0,10
0,57,0,3
0,32,53,1
0,50,84,0
0,55,0,2
0,32,0,2
0,60,0,5
0,32,67,87
0,35,120,0
0,38,84,0
0,55,83,0
0,57,83,0
0,60,88,0
0,64,97,0
0,82,63,0
0,85,92,0
0,50,0,3
0,32,0,1
0,35,0,0
0,82,0,0
0,85,0,0
0,57,0,16
0,55,0,1
0,60,0,3
0,64,0,4
0,38,0,66
0,32,48,2
0,50,88,0
0,55,95,0
0,57,92,0
0,60,93,0
0,62,97,0
0,32,0,4
0,50,0,82
0,74,0,8
0,32,72,2
0,38,100,0
0,45,89,0
0,82,64,0
0,85,92,0
0,32,0,4
0,38,0,0
0,82,0,0
0,85,0,0
0,55,0,58
0,57,0,0
0,60,0,0
0,62,0,0
0,45,0,27
0,32,48,7
0,50,93,0
0,32,0,4
0,53,88,28
0,58,97,0
0,59,90,32
0,74,113,0
0,58,0,6
0,74,0,12
0,32,53,14
0,35,120,0
0,43,76,0
0,76,124,0
0,82,68,0
0,85,92,0
0,32,0,4
0,35,0,0
0,82,0,0
0,85,0,0
0,50,0,54
0,76,0,35
0,32,63,3
0,50,98,0
0,67,106,0
0,74,113,0
0,32,0,4
0,74,0,4
0,50,0,71
0,32,72,17
0,38,100,0
0,52,93,0
0,76,124,0
0,82,64,0
0,85,92,0
0,32,0,4
0,38,0,0
0,82,0,0
0,85,0,0
0,76,0,15
0,52,0,39
0,53,0,21
0,59,0,2
0,32,53,15
0,50,97,0
0,79,124,0
0,32,0,4
0,67,0,8
0,53,84,20
0,58,102,0
0,43,0,12
0,58,0,19
0,59,90,1
0,32,67,32
0,35,120,0
0,43,75,0
0,82,66,0
0,85,92,0
0,32,0,4
0,35,0,0
0,82,0,0
0,85,0,0
0,50,0,38
0,79,0,21
0,32,48,33
0,50,93,0
0,62,97,0
0,76,120,0
0,32,0,4
0,76,0,19
0,50,0,58
0,32,72,15
0,38,100,0
0,52,98,0
0,64,102,0
0,74,120,0
0,82,73,0
0,85,92,0
0,32,0,4
0,38,0,0
0,82,0,0
0,85,0,0
0,74,0,15
0,76,124,13
0,52,0,15
0,32,48,49
0,50,93,0
0,32,0,4
0,53,0,26
0,59,0,0
0,62,0,0
0,64,0,0
0,76,0,5
0,43,0,20
0,50,0,39
0,32,53,2
0,35,120,0
0,36,93,0
0,72,124,0
0,82,61,0
0,85,92,0
0,32,0,4
0,35,0,0
0,82,0,0
0,85,0,0
0,72,0,57
0,36,0,27
0,32,63,8
0,48,89,0
0,55,73,0
0,60,83,0
0,64,83,0
0,32,0,4
0,60,0,8
0,55,0,3
0,64,0,0
0,72,127,49
0,32,72,32
0,38,100,0
0,43,89,0
0,55,97,0
0,60,107,0
0,64,97,0
0,82,62,0
0,85,92,0
0,48,0,3
0,32,0,1
0,38,0,0
0,72,0,0
0,82,0,0
0,85,0,0
0,55,0,82
0,60,0,0
0,64,0,0
0,43,0,6
0,32,53,4
0,48,89,0
0,72,127,0
0,32,0,4
0,48,0,83
0,72,0,3
0,32,67,6
0,35,120,0
0,36,86,0
0,55,93,0
0,60,102,0
0,65,97,0
0,82,63,0
0,85,92,0
0,32,0,4
0,35,0,0
0,82,0,0
0,85,0,0
0,60,0,15
0,65,0,2
0,55,0,2
0,32,48,73
0,48,74,0
0,55,93,0
0,60,102,0
0,64,97,0
0,32,0,4
0,36,0,5
0,32,72,87
0,38,100,0
0,43,84,0
0,82,64,0
0,85,92,0
0,32,0,4
0,38,0,0
0,82,0,0
0,85,0,0
0,48,0,1
0,43,0,86
0,55,0,3
0,60,0,0
0,64,0,0
0,32,48,2
0,50,93,0
0,32,0,4
0,53,88,28
0,58,90,0
0,59,90,32
0,58,0,6
0,32,53,26
0,35,120,0
0,43,76,0
0,70,127,0
0,82,68,0
0,85,92,0
0,32,0,4
0,35,0,0
0,82,0,0
0,85,0,0
0,50,0,54
0,70,0,11
0,32,63,27
0,50,98,0
0,67,104,0
0,32,0,4
0,50,0,75
0,32,72,17
0,38,100,0
0,52,93,0
0,67,127,0
0,82,64,0
0,85,92,0
0,32,0,4
0,38,0,0
0,82,0,0
0,85,0,0
0,67,0,48
0,52,0,6
0,53,0,21
0,59,0,2
0,32,53,15
0,50,97,0
0,32,0,4
0,67,0,8
0,53,84,20
0,58,100,0
0,43,0,12
0,58,0,19
0,59,90,1
0,32,67,32
0,35,120,0
0,43,75,0
0,70,124,0
0,82,66,0
0,85,92,0
0,32,0,4
0,35,0,0
0,82,0,0
0,85,0,0
0,70,0,26
0,67,120,2
0,50,0,10
0,67,0,30
0,32,48,24
0,50,93,0
0,62,97,0
0,32,0,4
0,65,122,28
0,50,0,49
0,62,0,13
0,32,72,2
0,38,100,0
0,52,98,0
0,64,102,0
0,82,73,0
0,85,92,0
0,32,0,4
0,38,0,0
0,82,0,0
0,85,0,0
0,52,0,43
0,65,0,16
0,64,0,31
0,32,48,2
0,62,100,0
0,67,124,0
0,32,0,4
0,53,0,26
0,59,0,0
0,67,0,7
0,43,0,18
0,62,0,39
0,32,53,2
0,35,120,0
0,36,100,0
0,48,99,0
0,82,61,0
0,85,92,0
0,32,0,4
0,35,0,0
0,82,0,0
0,85,0,0
0,32,63,92
0,67,124,0
0,32,0,4
0,67,0,24
0,32,72,68
0,38,100,0
0,55,97,0
0,57,100,0
0,60,99,0
0,70,127,0
0,82,62,0
0,85,92,0
0,32,0,4
0,38,0,0
0,82,0,0
0,85,0,0
0,70,0,26
0,67,120,2
0,67,0,42
0,48,0,14
0,36,0,6
0,32,53,2
0,32,0,4
0,55,0,15
0,74,122,13
0,57,0,19
0,60,0,34
0,32,67,11
0,35,120,0
0,38,101,0
0,50,99,0
0,82,63,0
0,85,92,0
0,32,0,4
0,35,0,0
0,82,0,0
0,85,0,0
0,74,0,47
0,32,48,45
0,54,104,0
0,77,122,0
0,32,0,4
0,77,0,24
0,54,0,66
0,32,72,2
0,38,100,0
0,60,100,0
0,70,124,0
0,82,64,0
0,85,92,0
0,32,0,4
0,38,0,0
0,82,0,0
0,85,0,0
0,70,0,26
0,50,0,37
0,38,0,27
0,60,0,0
0,32,48,2
0,50,93,0
0,67,124,0
0,32,0,4
0,53,84,28
0,58,96,0
0,59,107,32
0,32,53,32
0,35,120,0
0,43,76,0
0,82,68,0
0,85,92,0
0,58,0,1
0,32,0,3
0,35,0,0
0,82,0,0
0,85,0,0
0,50,0,70
0,59,0,10
0,32,63,12
0,50,98,0
0,67,105,0
0,32,0,4
0,67,0,24
0,50,0,51
0,32,72,17
0,38,100,0
0,52,93,0
0,58,87,0
0,69,89,0
0,82,122,0
0,85,92,0
0,32,0,4
0,38,0,0
0,69,0,0
0,82,0,0
0,85,0,0
0,52,0,54
0,67,0,22
0,58,0,4
0,32,53,12
0,50,97,0
0,59,96,0
0,69,90,0
0,82,123,0
0,32,0,4
0,69,0,0
0,82,0,0
0,43,0,40
0,32,67,52
0,35,120,0
0,43,75,0
0,67,105,0
0,70,127,0
0,82,66,0
0,85,92,0
0,32,0,4
0,35,0,0
0,82,0,0
0,85,0,0
0,67,0,23
0,50,0,15
0,70,0,27
0,32,48,27
0,50,93,0
0,67,100,0
0,32,0,4
0,50,0,77
0,32,72,15
0,38,100,0
0,52,98,0
0,67,127,0
0,82,73,0
0,85,92,0
0,32,0,4
0,38,0,0
0,82,0,0
0,85,0,0
0,53,0,7
0,59,0,29
0,52,0,7
0,67,0,5
0,32,48,44
0,50,93,0
0,32,0,4
0,67,0,26
0,53,94,2
0,58,94,0
0,43,0,23
0,59,96,9
0,32,53,32
0,35,120,0
0,43,76,0
0,70,124,0
0,82,61,0
0,85,92,0
0,32,0,4
0,35,0,0
0,82,0,0
0,85,0,0
0,70,0,26
0,67,120,2
0,58,0,19
0,67,0,21
0,50,0,2
0,32,63,22
0,50,93,0
0,67,105,0
0,32,0,4
0,65,122,28
0,67,0,37
0,50,0,17
0,32,72,10
0,38,100,0
0,52,93,0
0,64,105,0
0,82,62,0
0,85,92,0
0,32,0,4
0,38,0,0
0,82,0,0
0,85,0,0
0,52,0,51
0,65,0,8
0,64,0,29
0,59,0,3
0,32,53,1
0,50,93,0
0,62,102,0
0,67,124,0
0,32,0,4
0,67,0,33
0,43,0,7
0,50,0,50
0,53,0,0
0,62,0,0
0,32,67,2
0,35,120,0
0,36,100,0
0,48,99,0
0,82,63,0
0,85,92,0
0,32,0,4
0,35,0,0
0,82,0,0
0,85,0,0
0,32,48,92
0,50,84,0
0,67,124,0
0,32,0,4
0,67,0,24
0,50,0,59
0,32,72,9
0,38,100,0
0,55,97,0
0,57,100,0
0,60,99,0
0,70,127,0
0,82,64,0
0,85,92,0
0,32,0,4
0,38,0,0
0,82,0,0
0,85,0,0
0,70,0,26
0,67,120,2
0,67,0,42
0,48,0,14
0,36,0,6
0,32,48,2
0,32,0,4
0,55,0,15
0,74,122,13
0,57,0,19
0,60,0,34
0,32,53,11
0,35,120,0
0,38,101,0
0,50,99,0
0,82,68,0
0,85,92,0
0,32,0,4
0,35,0,0
0,82,0,0
0,85,0,0
0,74,0,47
0,32,63,45
0,54,104,0
0,77,122,0
0,32,0,4
0,77,0,24
0,54,0,66
0,32,72,2
0,38,100,0
0,60,100,0
0,70,124,0
0,82,64,0
0,85,92,0
