track,note,velocity,time
1,53,70,946
1,46,110,0
1,34,120,0
1,53,70,236
1,46,110,0
1,34,120,0
1,41,110,140
1,48,70,0
1,29,120,0
1,51,70,92
1,44,110,0
1,32,120,0
1,53,70,92
1,46,110,0
1,34,120,0
1,53,70,236
1,46,110,0
1,34,120,0
1,41,110,140
1,48,70,0
1,29,120,0
1,51,70,92
1,44,110,0
1,32,120,0
1,53,70,92
1,46,110,0
1,34,120,0
1,53,70,236
1,46,110,0
1,34,120,0
1,41,110,140
1,48,70,0
1,29,120,0
1,51,70,92
1,44,110,0
1,32,120,0
1,53,70,92
1,46,110,0
1,34,120,0
1,53,70,236
1,46,110,0
1,34,120,0
1,41,110,140
1,48,70,0
1,29,120,0
1,51,70,92
1,44,110,0
1,32,120,0
1,53,70,92
1,46,110,0
1,34,120,0
1,53,70,236
1,46,110,0
1,34,120,0
1,41,110,140
1,48,70,0
1,29,120,0
1,51,70,92
1,44,110,0
1,32,120,0
1,53,70,92
1,46,110,0
1,34,120,0
1,53,70,236
1,46,110,0
1,34,120,0
1,41,110,140
1,48,70,0
1,29,120,0
1,51,70,92
1,44,110,0
1,32,120,0
1,53,70,92
1,46,110,0
1,34,120,0
1,53,70,236
1,46,110,0
1,34,120,0
1,41,110,140
1,48,70,0
1,29,120,0
1,51,70,92
1,44,110,0
1,32,120,0
1,53,70,92
1,46,110,0
1,34,120,0
1,53,70,236
1,46,110,0
1,34,120,0
1,41,110,140
1,48,70,0
1,29,120,0
1,51,70,92
1,44,110,0
1,32,120,0
1,53,70,92
1,46,110,0
1,34,120,0
1,53,70,236
1,46,110,0
1,34,120,0
1,41,110,140
1,48,70,0
1,29,120,0
1,51,70,92
1,44,110,0
1,32,120,0
1,53,70,92
1,46,110,0
1,34,120,0
1,53,70,236
1,46,110,0
1,34,120,0
1,41,110,140
1,48,70,0
1,29,120,0
1,51,70,92
1,44,110,0
1,32,120,0
1,53,70,92
1,46,110,0
1,34,120,0
1,53,70,236
1,46,110,0
1,34,120,0
1,41,110,140
1,48,70,0
1,29,120,0
1,51,70,92
1,44,110,0
1,32,120,0
1,53,70,92
1,46,110,0
1,34,120,0
1,53,70,236
1,46,110,0
1,34,120,0
1,41,110,140
1,48,70,0
1,29,120,0
1,51,70,92
1,44,110,0
1,32,120,0
1,53,70,92
1,46,110,0
1,34,120,0
1,53,70,236
1,46,110,0
1,34,120,0
1,41,110,140
1,48,70,0
1,29,120,0
1,51,70,92
1,44,110,0
1,32,120,0
1,53,70,92
1,46,110,0
1,34,120,0
1,53,70,236
1,46,110,0
1,34,120,0
1,41,110,140
1,48,70,0
1,29,120,0
1,51,70,92
1,44,110,0
1,32,120,0
1,53,70,92
1,46,110,0
1,34,120,0
1,53,70,236
1,46,110,0
1,34,120,0
1,41,110,140
1,48,70,0
1,29,120,0
1,51,70,92
1,44,110,0
1,32,120,0
1,53,70,92
1,46,110,0
1,34,120,0
1,53,70,236
1,46,110,0
1,34,120,0
1,41,110,140
1,48,70,0
1,29,120,0
1,51,70,92
1,44,110,0
1,32,120,0
1,53,70,9308
1,46,110,0
1,34,120,0
1,53,70,236
1,46,110,0
1,34,120,0
1,41,110,140
1,48,70,0
1,29,120,0
1,51,70,92
1,44,110,0
1,32,120,0
1,53,70,92
1,46,110,0
1,34,120,0
1,53,70,236
1,46,110,0
1,34,120,0
1,41,110,140
1,48,70,0
1,29,120,0
1,51,70,92
1,44,110,0
1,32,120,0
1,53,70,92
1,46,110,0
1,34,120,0
1,53,70,236
1,46,110,0
1,34,120,0
1,41,110,140
1,48,70,0
1,29,120,0
1,51,70,92
1,44,110,0
1,32,120,0
1,53,70,92
1,46,110,0
1,34,120,0
1,53,70,236
1,46,110,0
1,34,120,0
1,41,110,140
1,48,70,0
1,29,120,0
1,51,70,92
1,44,110,0
1,32,120,0
1,53,70,92
1,46,110,0
1,34,120,0
1,53,70,236
1,46,110,0
1,34,120,0
1,41,110,140
1,48,70,0
1,29,120,0
1,51,70,92
1,44,110,0
1,32,120,0
1,53,70,92
1,46,110,0
1,34,120,0
1,53,70,236
1,46,110,0
1,34,120,0
1,41,110,140
1,48,70,0
1,29,120,0
1,51,70,92
1,44,110,0
1,32,120,0
1,53,70,92
1,46,110,0
1,34,120,0
1,53,70,236
1,46,110,0
1,34,120,0
1,41,110,140
1,48,70,0
1,29,120,0
1,51,70,92
1,44,110,0
1,32,120,0
1,53,70,92
1,46,110,0
1,34,120,0
1,53,70,236
1,46,110,0
1,34,120,0
1,41,110,140
1,48,70,0
1,29,120,0
1,51,70,92
1,44,110,0
1,32,120,0
1,53,70,92
1,46,110,0
1,34,120,0
1,41,110,1196
1,48,70,0
1,29,120,0
1,51,70,92
1,44,110,0
1,32,120,0
1,53,70,92
1,46,110,0
1,34,120,0
1,53,70,716
1,46,110,0
1,34,120,0
1,41,110,428
1,48,70,0
1,29,120,0
1,51,70,92
1,44,110,0
1,32,120,0
1,53,70,92
1,46,110,0
1,34,120,0
1,53,70,716
1,46,110,0
1,34,120,0
1,53,70,716
1,46,110,0
1,34,120,0
1,53,70,236
1,46,110,0
1,34,120,0
1,41,110,140
1,48,70,0
1,29,120,0
1,51,70,92
1,44,110,0
1,32,120,0
1,53,70,92
1,46,110,0
1,34,120,0
1,53,70,236
1,46,110,0
1,34,120,0
1,41,110,140
1,48,70,0
1,29,120,0
1,51,70,92
1,44,110,0
1,32,120,0
1,53,70,92
1,46,110,0
1,34,120,0
1,53,70,236
1,46,110,0
1,34,120,0
1,41,110,140
1,48,70,0
1,29,120,0
1,51,70,92
1,44,110,0
1,32,120,0
1,53,70,92
1,46,110,0
1,34,120,0
1,53,70,236
1,46,110,0
1,34,120,0
1,41,110,140
1,48,70,0
1,29,120,0
1,51,70,92
1,44,110,0
1,32,120,0
1,53,70,92
1,46,110,0
1,34,120,0
1,53,70,236
1,46,110,0
1,34,120,0
1,41,110,140
1,48,70,0
1,29,120,0
1,51,70,92
1,44,110,0
1,32,120,0
1,53,70,92
1,46,110,0
1,34,120,0
1,53,70,236
1,46,110,0
1,34,120,0
1,41,110,140
1,48,70,0
1,29,120,0
1,51,70,92
1,44,110,0
1,32,120,0
1,53,70,92
1,46,110,0
1,34,120,0
1,53,70,236
1,46,110,0
1,34,120,0
1,41,110,140
1,48,70,0
1,29,120,0
1,51,70,92
1,44,110,0
1,32,120,0
1,53,70,92
1,46,110,0
1,34,120,0
1,53,70,236
1,46,110,0
1,34,120,0
1,41,110,140
1,48,70,0
1,29,120,0
1,51,70,92
1,44,110,0
1,32,120,0
1,53,70,92
1,46,110,0
1,34,120,0
1,53,30,44
1,46,70,0
1,34,80,0
1,53,70,140
1,46,110,0
1,34,120,0
1,53,30,44
1,46,70,0
1,34,80,0
1,41,110,44
1,48,70,0
1,29,120,0
1,41,70,44
1,48,30,0
1,29,80,0
1,51,70,48
1,44,110,0
1,32,120,0
1,51,30,44
1,44,70,0
1,32,80,0
1,53,70,48
1,46,110,0
1,34,120,0
1,53,30,44
1,46,70,0
1,34,80,0
1,53,70,140
1,46,110,0
1,34,120,0
1,53,30,44
1,46,70,0
1,34,80,0
1,41,110,44
1,48,70,0
1,29,120,0
1,41,70,44
1,48,30,0
1,29,80,0
1,51,70,48
1,44,110,0
1,32,120,0
1,51,30,44
1,44,70,0
1,32,80,0
1,53,70,48
1,46,110,0
1,34,120,0
1,53,30,44
1,46,70,0
1,34,80,0
1,53,70,140
1,46,110,0
1,34,120,0
1,53,30,44
1,46,70,0
1,34,80,0
1,41,110,44
1,48,70,0
1,29,120,0
1,41,70,44
1,48,30,0
1,29,80,0
1,51,70,48
1,44,110,0
1,32,120,0
1,51,30,44
1,44,70,0
1,32,80,0
1,53,70,48
1,46,110,0
1,34,120,0
1,53,30,44
1,46,70,0
1,34,80,0
1,53,70,140
1,46,110,0
1,34,120,0
1,53,30,44
1,46,70,0
1,34,80,0
1,41,110,44
1,48,70,0
1,29,120,0
1,41,70,44
1,48,30,0
1,29,80,0
1,51,70,48
1,44,110,0
1,32,120,0
1,51,30,44
1,44,70,0
1,32,80,0
1,53,70,6140
1,46,110,0
1,34,120,0
1,53,70,236
1,46,110,0
1,34,120,0
1,41,110,140
1,48,70,0
1,29,120,0
1,51,70,92
1,44,110,0
1,32,120,0
1,53,70,92
1,46,110,0
1,34,120,0
1,53,70,236
1,46,110,0
1,34,120,0
1,41,110,140
1,48,70,0
1,29,120,0
1,51,70,92
1,44,110,0
1,32,120,0
1,53,70,92
1,46,110,0
1,34,120,0
1,53,70,236
1,46,110,0
1,34,120,0
1,41,110,140
1,48,70,0
1,29,120,0
1,51,70,92
1,44,110,0
1,32,120,0
1,53,70,92
1,46,110,0
1,34,120,0
1,53,70,236
1,46,110,0
1,34,120,0
1,41,110,140
1,48,70,0
1,29,120,0
1,51,70,92
1,44,110,0
1,32,120,0
1,53,70,92
1,46,110,0
1,34,120,0
1,53,70,236
1,46,110,0
1,34,120,0
1,41,110,140
1,48,70,0
1,29,120,0
1,51,70,92
1,44,110,0
1,32,120,0
1,53,70,92
1,46,110,0
1,34,120,0
1,53,70,236
1,46,110,0
1,34,120,0
1,41,110,140
1,48,70,0
1,29,120,0
1,51,70,92
1,44,110,0
1,32,120,0
1,53,70,92
1,46,110,0
1,34,120,0
1,53,70,236
1,46,110,0
1,34,120,0
1,41,110,140
1,48,70,0
1,29,120,0
1,51,70,92
1,44,110,0
1,32,120,0
1,53,70,92
1,46,110,0
1,34,120,0
1,53,70,236
1,46,110,0
1,34,120,0
1,41,110,140
1,48,70,0
1,29,120,0
1,51,70,92
1,44,110,0
1,32,120,0
1,53,70,92
1,46,110,0
1,34,120,0
1,53,70,236
1,46,110,0
1,34,120,0
1,41,110,140
1,48,70,0
1,29,120,0
1,51,70,92
1,44,110,0
1,32,120,0
1,53,70,92
1,46,110,0
1,34,120,0
1,53,70,236
1,46,110,0
1,34,120,0
1,41,110,140
1,48,70,0
1,29,120,0
1,51,70,92
1,44,110,0
1,32,120,0
1,53,70,92
1,46,110,0
1,34,120,0
1,53,70,236
1,46,110,0
1,34,120,0
1,41,110,140
1,48,70,0
1,29,120,0
1,51,70,92
1,44,110,0
1,32,120,0
1,53,70,92
1,46,110,0
1,34,120,0
1,53,70,236
1,46,110,0
1,34,120,0
1,41,110,140
1,48,70,0
1,29,120,0
1,51,70,92
1,44,110,0
1,32,120,0
1,53,70,92
1,46,110,0
1,34,120,0
1,53,70,236
1,46,110,0
1,34,120,0
1,41,110,140
1,48,70,0
1,29,120,0
1,51,70,92
1,44,110,0
1,32,120,0
1,53,70,92
1,46,110,0
1,34,120,0
1,53,70,236
1,46,110,0
1,34,120,0
1,41,110,140
1,48,70,0
1,29,120,0
1,51,70,92
1,44,110,0
1,32,120,0
1,53,70,92
1,46,110,0
1,34,120,0
1,53,70,236
1,46,110,0
1,34,120,0
1,41,110,140
1,48,70,0
1,29,120,0
1,51,70,92
1,44,110,0
1,32,120,0
1,53,70,92
1,46,110,0
1,34,120,0
1,53,70,236
1,46,110,0
1,34,120,0
1,41,110,140
1,48,70,0
1,29,120,0
1,51,70,92
1,44,110,0
1,32,120,0
1,53,70,92
1,46,110,0
1,34,120,0
1,53,70,236
1,46,110,0
1,34,120,0
1,41,110,140
1,48,70,0
1,29,120,0
1,51,70,92
1,44,110,0
1,32,120,0
1,53,70,92
1,46,110,0
1,34,120,0
1,53,70,236
1,46,110,0
1,34,120,0
1,41,110,140
1,48,70,0
1,29,120,0
1,51,70,92
1,44,110,0
1,32,120,0
1,53,70,3164
1,46,110,0
1,34,120,0
1,53,70,236
1,46,110,0
1,34,120,0
1,41,110,140
1,48,70,0
1,29,120,0
1,51,70,92
1,44,110,0
1,32,120,0
1,53,70,92
1,46,110,0
1,34,120,0
1,53,70,236
1,46,110,0
1,34,120,0
1,41,110,140
1,48,70,0
1,29,120,0
1,51,70,92
1,44,110,0
1,32,120,0
1,53,70,92
1,46,110,0
1,34,120,0
1,53,70,236
1,46,110,0
1,34,120,0
1,41,110,140
1,48,70,0
1,29,120,0
1,51,70,92
1,44,110,0
1,32,120,0
1,53,70,92
1,46,110,0
1,34,120,0
1,53,70,236
1,46,110,0
1,34,120,0
1,41,110,140
1,48,70,0
1,29,120,0
1,51,70,92
1,44,110,0
1,32,120,0
1,53,70,92
1,46,110,0
1,34,120,0
1,53,70,236
1,46,110,0
1,34,120,0
1,41,110,140
1,48,70,0
1,29,120,0
1,51,70,92
1,44,110,0
1,32,120,0
1,53,70,92
1,46,110,0
1,34,120,0
1,53,70,236
1,46,110,0
1,34,120,0
1,41,110,140
1,48,70,0
1,29,120,0
1,51,70,92
1,44,110,0
1,32,120,0
1,53,70,92
1,46,110,0
1,34,120,0
1,53,70,236
1,46,110,0
1,34,120,0
1,41,110,140
1,48,70,0
1,29,120,0
1,51,70,92
1,44,110,0
1,32,120,0
1,53,70,92
1,46,110,0
1,34,120,0
1,53,70,236
1,46,110,0
1,34,120,0
1,41,110,140
1,48,70,0
1,29,120,0
1,51,70,92
1,44,110,0
1,32,120,0
1,53,70,92
1,46,110,0
1,34,120,0
1,53,70,236
1,46,110,0
1,34,120,0
1,41,110,140
1,48,70,0
1,29,120,0
1,51,70,92
1,44,110,0
1,32,120,0
1,53,70,92
1,46,110,0
1,34,120,0
1,53,70,236
1,46,110,0
1,34,120,0
1,41,110,140
1,48,70,0
1,29,120,0
1,51,70,92
1,44,110,0
1,32,120,0
1,53,70,92
1,46,110,0
1,34,120,0
1,53,70,236
1,46,110,0
1,34,120,0
1,41,110,140
1,48,70,0
1,29,120,0
1,51,70,92
1,44,110,0
1,32,120,0
1,53,70,7004
1,46,110,0
1,34,120,0
1,53,70,236
1,46,110,0
1,34,120,0
1,41,110,140
1,48,70,0
1,29,120,0
1,51,70,92
1,44,110,0
1,32,120,0
1,53,70,92
1,46,110,0
1,34,120,0
1,53,70,236
1,46,110,0
1,34,120,0
1,41,110,140
1,48,70,0
1,29,120,0
1,51,70,92
1,44,110,0
1,32,120,0
1,53,70,92
1,46,110,0
1,34,120,0
1,53,70,236
1,46,110,0
1,34,120,0
1,41,110,140
1,48,70,0
1,29,120,0
1,51,70,92
1,44,110,0
1,32,120,0
1,53,70,92
1,46,110,0
1,34,120,0
1,53,70,236
1,46,110,0
1,34,120,0
1,41,110,140
1,48,70,0
1,29,120,0
1,51,70,92
1,44,110,0
1,32,120,0
1,53,70,92
1,46,110,0
1,34,120,0
1,53,70,236
1,46,110,0
1,34,120,0
1,41,110,140
1,48,70,0
1,29,120,0
1,51,70,92
1,44,110,0
1,32,120,0
1,53,70,92
1,46,110,0
1,34,120,0
1,53,70,236
1,46,110,0
1,34,120,0
1,41,110,140
1,48,70,0
1,29,120,0
1,51,70,92
1,44,110,0
1,32,120,0
1,53,70,92
1,46,110,0
1,34,120,0
1,53,70,236
1,46,110,0
1,34,120,0
1,41,110,140
1,48,70,0
1,29,120,0
1,51,70,92
1,44,110,0
1,32,120,0
1,53,70,92
1,46,110,0
1,34,120,0
1,53,70,236
1,46,110,0
1,34,120,0
1,41,110,140
1,48,70,0
1,29,120,0
1,51,70,92
1,44,110,0
1,32,120,0
1,53,70,92
1,46,110,0
1,34,120,0
2,34,110,13234
2,34,110,236
2,29,110,140
2,32,110,92
2,34,110,92
2,34,110,236
2,29,110,140
2,32,110,92
2,34,110,92
2,34,110,236
2,29,110,140
2,32,110,92
2,34,110,92
2,34,110,236
2,29,110,140
2,32,110,92
2,34,110,92
2,34,110,236
2,29,110,140
2,32,110,92
2,34,110,92
2,34,110,236
2,29,110,140
2,32,110,92
2,34,110,92
2,34,110,236
2,29,110,140
2,32,110,92
2,34,110,92
2,34,110,236
2,29,110,140
2,32,110,92
2,34,110,92
2,34,110,236
2,29,110,140
2,32,110,92
2,34,110,92
2,34,110,236
2,29,110,140
2,32,110,92
2,34,110,92
2,34,110,236
2,29,110,140
2,32,110,92
2,34,110,92
2,34,110,236
