track,note,velocity,time
0,70,75,576
0,75,76,16
0,79,77,0
0,67,56,192
0,70,59,16
0,63,57,16
0,79,79,0
0,62,59,16
0,74,78,0
0,77,76,0
0,63,56,16
0,75,79,0
0,79,79,0
0,67,57,16
0,82,76,0
0,79,79,0
0,58,60,16
0,75,76,0
0,56,56,16
0,75,78,0
0,72,79,0
0,56,59,16
0,75,75,0
0,72,76,0
0,77,78,16
0,79,75,16
0,58,59,16
0,77,76,0
0,74,78,0
0,58,60,16
0,70,76,16
0,58,113,0
0,58,59,16
0,75,77,0
0,79,79,0
0,67,113,0
0,63,56,16
0,67,58,16
0,70,57,16
0,67,111,96
0,62,55,16
0,74,75,0
0,77,78,0
0,65,112,0
0,63,59,16
0,79,78,0
0,75,77,0
0,67,113,0
0,67,57,16
0,82,76,0
0,79,75,0
0,70,111,0
0,58,60,16
0,75,75,0
0,63,114,0
0,63,112,16
0,56,55,16
0,75,78,0
0,72,75,0
0,75,79,16
0,72,76,0
0,77,79,16
0,65,111,0
0,79,77,16
0,67,111,0
0,65,112,16
0,58,55,16
0,77,79,0
0,74,75,0
0,65,59,16
0,68,55,16
0,58,112,96
0,63,58,16
0,75,78,0
0,79,79,0
0,67,113,0
0,63,55,16
0,67,55,16
0,67,114,96
0,62,56,16
0,74,77,0
0,77,76,0
0,65,112,0
0,63,56,16
0,79,79,0
0,75,79,0
0,67,114,0
0,67,58,16
0,82,77,0
0,79,79,0
0,70,112,0
0,58,59,16
0,75,76,0
0,56,59,16
0,75,77,0
0,72,77,0
0,63,113,0
0,72,79,16
0,75,77,0
0,77,79,16
0,65,114,0
0,79,78,16
0,67,112,0
0,65,114,16
0,58,60,16
0,77,79,0
0,74,78,0
0,65,114,0
0,58,59,16
0,70,79,0
0,74,76,0
0,60,56,16
0,72,75,0
0,68,78,0
0,46,112,16
0,58,56,0
0,67,75,0
0,70,78,0
0,55,111,0
0,63,55,16
0,67,59,16
0,82,79,0
0,70,79,0
0,70,55,16
0,60,60,16
0,67,78,0
0,70,77,0
0,58,113,0
0,63,60,16
0,68,76,0
0,72,78,0
0,60,111,0
0,67,60,16
0,74,79,0
0,70,78,0
0,62,113,0
0,70,55,16
0,75,79,0
0,72,76,0
0,63,111,0
0,63,113,16
0,53,55,16
0,75,76,0
0,72,76,0
0,56,113,16
0,56,59,16
0,56,114,0
0,60,58,16
0,68,77,0
0,65,77,0
0,63,56,16
0,67,78,16
0,55,111,0
0,56,55,16
0,63,79,0
0,60,78,0
0,65,75,0
0,53,114,0
0,60,57,16
0,67,78,0
0,55,111,0
0,56,112,16
0,62,59,0
0,58,76,0
0,65,77,0
0,62,76,0
0,58,56,16
0,72,78,0
0,62,112,96
0,55,57,0
0,70,78,0
0,62,75,0
0,65,78,0
0,60,111,0
0,58,111,16
0,58,59,16
0,58,112,0
0,62,60,16
0,65,79,16
0,58,59,16
0,70,77,0
0,77,75,16
0,55,55,0
0,70,79,0
0,74,78,0
0,67,75,0
0,60,59,16
0,63,57,16
0,75,76,0
0,55,112,0
0,67,112,0
0,56,112,16
0,68,113,0
0,60,58,16
0,70,114,8
0,58,114,8
0,53,57,16
0,56,79,0
0,63,76,0
0,60,77,0
0,58,111,0
0,70,113,0
0,56,59,16
0,51,112,0
0,63,112,0
0,51,114,16
0,63,113,0
0,60,55,16
0,75,79,96
0,63,58,16
0,67,75,0
0,68,79,16
0,56,55,16
0,72,76,0
0,75,75,0
0,56,78,0
0,60,77,0
0,63,77,0
0,60,59,16
0,63,60,16
0,68,78,0
0,56,78,0
0,72,78,0
0,60,77,0
0,60,57,16
0,58,113,16
0,36,104,16
0,42,89,0
0,51,99,0
0,51,56,0
0,70,76,0
0,75,77,0
0,67,76,0
0,67,89,0
0,70,69,0
0,67,78,0
0,67,113,0
0,55,58,16
0,51,100,16
0,58,58,0
0,63,59,16
0,67,112,96
0,42,90,16
0,50,103,0
0,51,55,0
0,70,77,0
0,74,79,0
0,65,78,0
0,65,91,0
0,65,114,0
0,51,100,16
0,55,57,0
0,70,76,0
0,75,77,0
0,67,76,0
0,67,90,0
0,67,114,0
0,51,101,16
0,55,102,0
0,58,56,0
0,70,75,0
0,75,78,0
0,67,78,0
0,70,91,0
0,70,113,0
0,43,100,16
0,63,58,0
0,70,76,0
0,67,76,0
0,75,76,0
0,63,89,0
0,63,112,96
0,42,89,0
0,44,100,0
0,56,59,0
0,63,76,0
0,68,78,0
0,72,78,0
0,63,87,0
0,68,75,0
0,72,85,0
0,63,112,0
0,60,60,16
0,51,101,16
0,63,59,0
0,77,79,16
0,65,91,0
0,65,113,0
0,60,58,16
0,79,79,0
0,67,91,0
0,67,113,0
0,65,113,16
0,42,90,0
0,46,99,0
0,58,60,0
0,70,75,0
0,65,76,0
0,74,78,0
0,77,77,0
0,65,87,0
0,70,69,0
0,74,68,0
0,65,111,0
0,62,56,16
0,51,101,16
0,65,57,0
0,65,78,0
0,62,56,16
0,68,76,0
0,58,113,96
0,42,92,0
0,39,103,0
0,58,59,0
0,75,77,0
0,79,77,0
0,67,91,0
0,70,75,0
0,67,82,0
0,67,112,0
0,63,55,16
0,51,100,16
0,67,60,0
0,70,55,16
0,67,114,96
0,42,89,16
0,38,100,0
0,62,55,0
0,74,75,0
0,77,79,0
0,65,87,0
0,65,114,0
0,39,100,16
0,63,55,0
0,79,75,0
0,75,76,0
0,67,88,0
0,67,113,0
0,51,102,16
0,43,99,0
0,67,60,0
0,82,77,0
0,79,77,0
0,70,89,0
0,70,112,0
0,31,101,16
0,58,56,0
0,75,76,0
0,63,89,0
0,63,113,0
0,42,89,0
0,32,102,0
0,56,60,0
0,60,77,0
0,63,92,0
0,72,77,0
0,68,71,0
0,63,112,0
0,60,56,16
0,72,75,0
0,70,78,16
0,51,102,16
0,63,60,0
0,68,79,0
0,77,79,16
0,65,88,0
0,65,111,0
0,60,56,16
0,79,75,0
0,67,87,0
0,67,113,0
0,65,112,16
0,42,89,0
0,34,103,0
0,58,57,0
0,62,78,0
0,77,75,0
0,65,92,0
0,70,57,0
0,74,65,0
0,62,57,16
0,51,100,16
0,65,60,0
0,62,77,0
0,82,79,0
0,74,79,0
0,70,90,0
0,74,88,0
0,62,57,16
0,80,79,0
0,60,76,0
0,72,78,0
0,68,91,0
0,72,91,0
0,46,111,16
0,36,104,0
0,42,90,0
0,39,102,0
0,55,55,0
0,70,77,0
0,79,75,0
0,58,82,0
0,63,78,0
0,67,78,0
0,70,78,0
0,67,88,0
0,58,112,0
0,58,56,16
0,51,104,16
0,63,58,0
0,70,76,0
0,82,78,0
0,58,82,4
0,58,56,16
0,63,72,0
0,58,113,0
0,67,82,4
0,42,90,16
0,36,99,0
0,55,58,0
0,67,75,0
0,70,78,0
0,63,78,0
0,67,99,0
0,60,86,0
0,58,111,0
0,58,57,16
0,68,75,0
0,72,77,0
0,60,112,0
0,51,102,0
0,60,57,0
0,74,79,0
0,70,79,0
0,58,82,0
0,62,114,0
0,63,56,16
0,75,78,0
0,72,76,0
0,63,112,0
0,42,93,0
0,29,99,0
0,53,60,0
0,68,78,0
0,72,77,0
0,75,75,0
0,68,79,0
0,72,95,0
0,63,111,0
0,56,75,16
0,56,113,0
0,56,60,16
0,65,78,0
0,56,111,0
0,63,78,0
0,51,100,16
0,60,59,0
0,63,77,0
0,68,75,0
0,65,75,0
0,60,82,0
0,63,57,16
0,68,78,0
0,63,78,0
0,56,111,0
0,63,75,0
0,55,113,0
0,42,90,0
0,34,103,0
0,53,58,0
0,65,77,0
0,62,82,0
0,58,82,0
0,70,69,0
0,74,80,0
0,53,113,0
0,67,77,0
0,58,58,16
0,68,77,0
0,55,113,0
0,56,114,16
0,51,102,16
0,32,100,0
0,62,56,0
0,74,79,0
0,65,78,0
0,62,114,0
0,58,59,16
0,72,79,0
0,65,82,0
0,62,112,0
0,74,78,16
0,60,112,16
0,72,79,16
0,42,93,0
0,31,100,0
0,55,57,0
0,70,77,0
0,67,86,0
0,67,87,0
0,70,78,0
0,58,114,0
0,65,78,92
0,58,60,16
0,62,86,0
0,58,112,0
0,58,86,92
0,51,101,16
0,62,55,0
0,82,75,0
0,74,79,0
0,77,77,0
0,65,58,16
0,62,82,0
0,74,76,16
0,82,75,0
0,77,78,0
0,42,92,16
0,36,103,0
0,55,57,0
0,79,79,0
0,70,79,0
0,75,78,0
0,60,75,0
0,63,86,0
0,58,78,0
0,58,55,16
0,51,102,16
0,60,60,0
0,75,79,0
0,79,79,0
0,67,112,0
0,55,114,0
0,58,82,44
0,80,77,12
0,77,75,0
0,56,112,0
0,68,111,0
0,63,56,16
0,60,92,0
0,70,114,8
0,79,77,8
0,82,76,0
0,58,112,0
0,36,103,0
0,32,100,0
0,56,60,0
0,56,82,0
0,60,78,0
0,63,86,0
0,72,91,0
0,68,77,0
0,58,113,0
0,70,112,0
0,42,94,0
0,60,57,16
0,75,78,0
0,79,78,0
0,51,113,0
0,63,111,0
0,75,78,16
0,79,78,0
0,51,114,0
0,63,113,0
0,51,100,16
0,63,60,0
0,75,75,16
0,80,78,0
0,68,92,0
0,51,103,16
0,60,60,0
0,51,103,92
0,51,103,16
0,34,99,0
0,56,59,0
0,75,79,0
0,72,75,0
0,68,78,0
0,60,57,16
0,67,86,0
0,42,94,16
0,63,58,0
0,75,76,0
0,68,77,0
0,72,76,0
0,65,86,0
0,51,103,8
0,60,56,0
0,63,82,0
0,51,103,16
0,46,112,0
0,58,113,0
0,36,104,0
0,51,101,0
0,39,101,0
0,55,59,0
0,58,76,0
0,63,78,0
0,67,76,0
0,63,82,0
0,58,86,0
0,55,62,0
0,70,79,0
0,67,85,0
0,51,112,0
0,63,112,0
0,58,59,16
0,51,103,16
0,63,59,0
0,58,78,68
0,58,60,16
0,70,78,0
0,63,72,0
0,34,100,16
0,75,77,0
0,58,78,0
0,51,104,4
0,39,103,0
0,53,59,0
0,58,78,0
0,70,77,0
0,62,75,0
0,74,77,0
0,65,75,0
0,58,59,0
0,65,86,0
0,62,82,0
0,74,95,0
0,58,56,16
0,72,76,16
0,51,104,0
0,62,59,0
0,58,75,0
0,62,77,0
0,65,75,0
0,70,78,0
0,77,94,0
0,62,82,28
0,51,101,0
0,58,56,0
0,65,88,0
0,51,103,28
0,34,102,0
0,51,100,0
0,39,102,0
0,56,60,0
0,68,79,0
0,63,79,0
0,72,77,0
0,56,82,0
0,63,82,0
0,60,78,0
0,72,90,0
0,68,74,0
0,75,91,0
0,60,59,16
0,51,100,16
0,63,58,0
0,56,86,4
0,39,102,16
0,60,56,0
0,60,79,0
0,68,77,0
0,63,79,0
0,60,86,0
0,63,77,16
0,58,75,0
0,67,75,0
0,63,72,0
0,39,100,0
0,56,60,0
0,68,76,0
0,63,79,0
0,60,79,0
0,68,86,0
0,68,94,0
0,67,77,0
0,67,93,0
0,45,103,0
0,60,60,0
0,68,76,0
0,67,92,0
0,68,96,0
0,70,78,0
0,70,79,0
0,45,105,0
0,28,101,0
0,63,60,0
0,72,75,0
0,65,89,0
0,72,99,0
0,45,101,0
0,29,101,0
0,74,75,0
0,74,94,0
0,30,102,0
0,60,58,0
0,75,78,0
0,63,86,0
0,75,93,0
0,31,101,0
0,77,75,0
0,77,94,0
0,51,112,0
0,63,113,0
0,36,103,0
0,42,92,0
0,49,98,0
0,32,101,0
0,56,58,0
0,79,56,0
0,56,78,0
0,67,79,0
0,60,79,0
0,63,79,0
0,56,99,0
0,79,95,0
0,67,93,0
0,60,93,0
0,63,84,0
0,63,114,0
0,67,114,0
0,55,89,92
0,42,80,16
0,60,58,0
0,60,86,0
0,63,59,92
0,36,105,16
0,40,103,0
0,42,91,0
0,63,57,0
0,67,92,0
0,42,82,16
0,67,60,0
0,36,106,0
0,32,102,0
0,36,105,0
0,42,92,0
0,32,102,0
0,56,60,0
0,75,59,0
0,75,98,0
0,42,80,16
0,60,57,0
0,63,114,92
0,67,114,0
0,40,105,8
0,42,94,0
0,63,55,0
0,65,82,0
0,63,111,0
0,67,111,0
0,62,113,16
0,65,114,0
0,42,80,0
0,67,57,0
0,67,82,0
0,60,114,0
0,63,113,0
0,63,113,16
0,67,113,0
0,62,86,12
0,58,82,4
0,36,104,0
0,42,92,0
0,31,102,0
0,55,57,0
0,77,58,0
0,58,78,0
0,55,78,0
0,62,77,0
0,65,75,0
0,65,91,0
0,77,96,0
0,65,101,0
0,62,84,0
0,58,100,0
0,62,114,0
0,65,113,0
0,42,83,16
0,58,57,0
0,58,111,0
0,62,114,0
0,58,111,16
0,62,113,0
0,36,103,0
0,40,106,0
0,42,91,0
0,62,55,0
0,70,56,0
0,70,78,0
0,42,81,16
0,65,55,0
0,36,103,28
0,34,103,0
0,36,103,0
0,42,94,0
0,39,99,0
0,53,57,0
0,80,55,0
0,53,78,0
0,56,76,0
0,61,78,0
0,58,77,0
0,80,75,0
0,61,99,0
0,68,90,0
0,65,99,0
0,58,86,60
0,42,80,16
0,58,55,0
0,61,103,0
0,65,99,92
0,40,106,0
0,42,90,0
0,39,102,0
0,61,58,0
0,79,58,0
0,58,75,0
0,61,79,0
0,55,77,0
0,63,77,0
0,63,99,0
0,79,91,0
0,58,95,0
0,63,90,0
0,67,102,0
0,42,83,16
0,63,55,0
0,60,112,0
0,63,113,0
0,62,111,16
0,65,111,0
0,36,105,0
0,42,93,0
0,32,102,0
0,79,60,0
0,79,58,0
0,56,79,0
0,67,75,0
0,60,76,0
0,63,77,0
0,79,94,0
0,60,94,0
0,63,93,0
0,67,93,0
0,63,114,0
0,67,114,0
0,55,87,16
0,63,114,0
0,67,112,0
0,42,84,96
0,60,86,0
0,63,57,16
0,63,112,0
0,67,112,0
0,36,105,96
0,40,103,0
0,42,91,0
0,67,91,0
0,42,81,176
0,36,103,28
0,32,102,0
0,36,105,8
0,42,93,0
0,32,103,0
0,75,59,0
0,42,84,188
0,63,113,92
0,67,113,0
0,40,106,0
0,42,89,0
0,65,82,0
0,63,111,0
0,67,113,0
0,62,112,16
0,65,112,0
0,42,83,0
0,67,82,0
0,60,113,0
0,63,111,0
0,62,86,8
0,58,82,0
0,36,105,0
0,42,93,0
0,31,101,0
0,77,56,0
0,77,55,0
0,58,79,0
0,55,75,0
0,62,75,0
0,65,76,0
0,65,82,0
0,77,91,0
0,65,100,0
0,58,90,0
0,62,93,0
0,62,112,0
0,65,113,0
0,42,80,16
0,58,112,0
0,58,112,0
0,58,111,16
0,58,111,0
0,36,104,16
0,40,104,0
0,42,94,0
0,70,59,0
0,42,82,16
0,36,104,28
0,34,103,0
0,36,103,0
0,42,89,0
0,39,102,0
0,80,59,0
0,80,57,0
0,53,75,0
0,56,79,0
0,61,76,0
0,58,77,0
0,80,94,0
0,61,99,0
0,68,95,0
0,65,90,0
0,58,86,28
0,42,83,96
0,61,111,0
0,65,99,92
0,40,104,0
0,42,89,0
0,39,102,0
0,79,60,0
0,82,55,0
0,58,78,0
0,61,79,0
0,55,77,0
0,63,76,0
0,63,99,0
0,82,100,0
0,67,92,0
0,70,95,0
0,63,92,0
0,42,82,188
0,60,113,92
0,36,104,0
0,42,92,0
0,32,99,0
0,63,57,0
0,84,58,0
0,56,78,0
0,63,79,0
0,60,76,0
0,67,79,0
0,56,68,0
0,63,69,0
0,60,82,0
0,84,95,0
0,63,112,0
0,67,95,0
0,72,100,0
0,63,113,0
0,42,83,16
0,60,55,0
0,40,106,16
0,42,92,0
0,56,58,0
0,36,105,0
0,42,81,0
0,31,102,0
0,55,57,0
0,58,75,0
0,55,76,0
0,62,79,0
0,65,77,0
0,58,82,0
0,55,78,0
0,62,73,0
0,36,105,0
0,42,90,0
0,29,103,0
0,53,55,0
0,56,78,0
0,60,79,0
0,63,75,0
0,53,75,0
0,60,78,0
0,56,86,0
0,53,86,0
0,63,111,92
0,42,80,16
0,56,56,0
0,63,111,0
0,63,113,16
0,40,103,16
0,42,93,0
0,60,56,0
0,53,76,0
0,56,78,0
0,63,76,0
0,60,78,0
