track,note,velocity,time
0,68,127,1522
0,59,66,4
0,28,100,10
0,28,107,0
0,40,64,0
0,64,117,2
0,52,109,14
0,56,110,0
0,64,108,18
0,56,81,0
0,59,79,0
0,28,100,4
0,28,102,0
0,40,70,0
0,68,110,82
0,64,117,0
0,28,100,4
0,28,102,0
0,59,95,0
0,40,74,0
0,54,100,78
0,57,109,0
0,69,127,0
0,30,100,4
0,30,90,0
0,40,90,0
0,51,83,0
0,66,90,10
0,30,100,4
0,30,84,0
0,40,95,0
0,59,86,2
0,57,94,6
0,66,104,10
0,59,95,0
0,30,100,4
0,30,80,0
0,40,100,0
0,66,94,0
0,69,127,6
0,59,105,38
0,56,99,0
0,71,117,0
0,32,100,4
0,32,107,0
0,51,100,0
0,40,100,0
0,68,94,8
0,59,100,88
0,32,100,4
0,68,110,0
0,59,94,0
0,32,84,0
0,40,100,0
0,71,113,0
0,59,82,0
0,32,100,4
0,32,80,0
0,40,100,0
0,68,90,2
0,69,91,18
0,45,117,10
0,73,95,6
0,57,98,4
0,61,90,0
0,64,107,2
0,33,100,0
0,69,103,0
0,33,107,0
0,49,77,0
0,36,100,0
0,61,66,2
0,57,127,0
0,61,127,4
0,64,127,2
0,61,107,232
0,57,115,4
0,42,100,0
0,52,108,4
0,69,91,0
0,69,83,0
0,64,97,4
0,61,61,0
0,64,85,0
0,61,72,0
0,37,100,0
0,37,107,0
0,40,100,0
0,69,88,200
0,61,76,0
0,69,82,0
0,61,78,0
0,64,104,2
0,64,88,0
0,42,91,6
0,61,103,4
0,57,111,4
0,52,108,0
0,40,100,0
0,40,107,0
0,42,87,0
0,36,100,0
0,61,107,226
0,57,115,4
0,52,111,0
0,61,83,4
0,64,113,0
0,61,80,0
0,64,91,0
0,69,101,2
0,69,87,0
0,42,95,6
0,37,100,0
0,37,107,0
0,40,100,0
0,64,117,12
0,64,93,0
0,69,97,4
0,61,83,0
0,69,85,0
0,61,80,0
0,42,95,6
0,61,107,4
0,57,115,0
0,52,109,2
0,56,127,14
0,61,127,0
0,65,127,2
0,68,77,0
0,37,100,0
0,37,103,0
0,61,70,0
0,42,87,0
0,36,100,0
0,49,117,0
0,65,76,0
0,68,95,154
0,68,85,0
0,65,104,2
0,65,88,0
0,61,83,4
0,61,80,0
0,61,107,2
0,53,105,4
0,42,100,0
0,56,107,4
0,41,100,0
0,41,107,0
0,40,100,0
0,61,103,218
0,68,95,4
0,56,105,0
0,68,85,0
0,61,76,2
0,53,105,0
0,61,78,0
0,65,108,4
0,65,89,0
0,42,91,2
0,44,100,0
0,44,107,0
0,42,87,0
0,36,100,0
0,61,83,32
0,61,105,0
0,61,80,0
0,65,122,4
0,56,105,0
0,53,107,0
0,65,95,0
0,68,95,4
0,68,85,0
0,42,95,0
0,41,100,0
0,41,107,0
0,40,100,0
0,61,102,64
0,56,105,4
0,53,108,0
0,68,100,2
0,68,87,0
0,42,95,0
0,61,80,4
0,61,79,0
0,65,108,2
0,65,89,0
0,61,90,22
0,66,61,4
0,66,125,0
0,61,127,0
0,58,70,2
0,58,121,0
0,30,100,0
0,54,108,0
0,30,103,0
0,42,87,0
0,36,100,0
0,66,100,150
0,66,94,0
0,66,87,0
0,70,73,2
0,61,103,0
0,58,102,0
0,70,77,0
0,61,80,4
0,61,79,0
0,42,100,0
0,34,100,0
0,34,102,0
0,40,100,0
0,66,91,240
0,66,83,0
0,70,63,2
0,61,76,0
0,61,108,0
0,70,73,0
0,61,78,0
0,66,98,4
0,58,103,0
0,42,91,0
0,37,100,0
0,37,103,0
0,42,87,0
0,36,100,0
0,66,91,224
0,66,83,0
0,61,71,2
0,61,76,0
0,70,59,4
0,70,71,0
0,66,100,4
0,61,108,0
0,58,103,2
0,42,95,6
0,39,100,0
0,39,107,0
0,40,100,0
0,42,95,242
0,70,76,6
0,70,78,0
0,66,100,4
0,61,87,0
0,66,87,0
0,61,82,0
0,61,107,2
0,66,96,4
0,58,102,0
0,42,100,0
0,42,103,0
0,42,87,0
0,36,100,0
0,61,100,222
0,61,87,0
0,58,73,2
0,66,100,0
0,58,77,0
0,66,59,4
0,61,110,0
0,58,102,0
0,66,71,0
0,42,100,0
0,39,100,0
0,39,107,0
0,40,100,0
0,42,91,248
0,61,100,4
0,66,59,0
0,61,87,0
0,66,71,0
0,58,76,4
0,61,108,0
0,58,78,0
0,66,91,2
0,58,102,0
0,37,100,0
0,58,100,0
0,37,107,0
0,42,87,0
0,36,100,0
0,58,83,104
0,61,100,0
0,66,98,0
0,58,80,0
0,61,87,0
0,66,57,4
0,61,108,0
0,58,103,0
0,66,71,0
0,61,100,0
0,42,95,0
0,34,100,0
0,34,103,0
0,40,100,0
0,61,100,22
0,61,104,0
0,61,88,0
0,58,83,4
0,66,71,0
0,58,80,0
0,66,76,0
0,66,100,4
0,58,105,2
0,42,95,0
0,61,108,4
0,61,94,2
0,63,127,16
0,66,127,0
0,59,127,4
0,47,109,0
0,66,85,0
0,63,90,0
0,35,100,0
0,63,117,0
0,35,107,0
0,59,78,0
0,42,87,0
0,36,100,0
0,63,95,32
0,66,83,0
0,63,85,0
0,66,80,0
0,59,77,10
0,59,78,0
0,42,100,6
0,51,107,4
0,66,94,0
0,54,102,2
0,59,111,4
0,39,100,0
0,39,107,0
0,40,100,0
0,59,104,182
0,63,91,2
0,51,103,0
0,54,107,0
0,63,83,0
0,42,91,0
0,66,71,4
0,59,79,0
0,66,76,0
0,59,79,0
0,42,100,0
0,42,107,0
0,42,87,0
0,36,100,0
0,63,95,224
0,63,85,0
0,66,73,2
0,59,83,0
0,63,98,0
0,54,102,0
0,66,77,0
0,59,80,0
0,59,108,4
0,42,95,0
0,39,100,0
0,39,103,0
0,40,100,0
0,66,91,228
0,66,83,0
0,63,95,4
0,59,83,0
0,63,85,0
0,59,80,0
0,63,102,2
0,42,95,0
0,59,105,4
0,54,102,2
0,52,117,16
0,28,100,0
0,28,107,0
0,42,87,0
0,36,100,0
0,64,127,6
0,68,77,6
0,56,127,0
0,59,127,0
0,64,98,0
0,59,76,0
0,64,104,170
0,68,76,0
0,64,88,0
0,68,78,0
0,59,94,2
0,59,84,0
0,42,100,4
0,64,113,4
0,59,107,2
0,56,95,4
0,32,100,0
0,32,103,0
0,40,100,0
0,64,101,242
0,64,87,0
0,68,73,4
0,59,94,0
0,68,77,0
0,59,84,0
0,42,91,2
0,64,113,4
0,59,105,6
0,56,97,0
0,35,100,0
0,35,107,0
0,42,87,0
0,36,100,0
0,64,113,224
0,68,80,6
0,68,79,0
0,64,104,4
0,59,97,0
0,59,104,0
0,56,97,0
0,64,88,0
0,59,85,0
0,42,95,8
0,32,100,0
0,32,107,0
0,40,100,0
0,64,111,192
0,59,97,4
0,64,97,0
0,56,97,0
0,59,85,0
0,64,85,0
0,68,68,2
0,59,107,0
0,68,75,0
0,42,95,0
0,61,127,44
0,64,127,4
0,57,118,2
0,64,53,0
0,64,69,0
0,33,100,0
0,33,104,0
0,64,87,0
0,61,85,0
0,42,87,0
0,36,100,0
0,69,43,6
0,45,100,4
0,61,107,138
0,57,115,2
0,42,100,10
0,64,113,6
0,64,91,0
0,61,87,4
0,61,82,0
0,69,75,0
0,69,77,0
0,37,100,0
0,37,103,0
0,40,100,0
0,61,105,166
0,57,109,4
0,61,100,2
0,61,87,0
0,42,91,0
0,64,108,4
0,64,89,0
0,69,70,4
0,69,75,0
0,49,100,2
0,40,100,0
0,40,107,0
0,42,87,0
0,36,100,0
0,61,105,138
0,57,115,6
0,61,91,4
0,61,83,0
0,64,101,2
0,64,87,0
0,52,107,4
0,42,95,2
0,37,100,0
0,37,102,0
0,40,100,0
0,54,81,0
0,57,81,16
0,42,95,122
0,59,98,10
0,61,91,0
0,61,105,0
0,61,83,0
0,64,104,2
0,57,115,0
0,64,88,0
0,69,68,6
0,69,75,0
0,61,100,2
0,33,100,0
0,33,105,0
0,42,87,0
0,36,100,0
0,61,103,68
0,61,87,2
0,64,101,0
0,57,113,0
0,61,82,0
0,64,87,0
0,64,112,0
0,42,100,4
0,52,105,0
0,56,110,0
0,28,100,0
0,28,107,0
0,40,100,0
0,66,85,80
0,61,87,102
0,61,82,0
0,64,97,4
0,64,85,0
0,42,91,12
0,61,94,4
0,30,100,0
0,54,98,0
0,64,107,0
0,30,107,0
0,42,87,0
0,36,100,0
0,57,108,2
0,61,87,4
0,61,82,0
0,64,86,6
0,64,81,0
0,42,95,0
0,59,112,6
0,32,100,0
0,32,103,0
0,40,100,0
0,56,102,18
0,59,108,4
0,57,94,74
0,54,73,92
0,42,95,10
0,61,95,0
0,61,85,0
0,64,101,0
0,64,87,0
0,57,67,4
0,57,127,0
0,61,127,0
0,64,127,4
0,33,100,0
0,33,107,0
0,64,94,0
0,42,87,0
0,36,100,0
0,45,117,2
0,61,90,0
0,57,94,4
0,61,95,236
0,61,85,0
0,42,100,0
0,64,104,4
0,64,88,0
0,61,97,2
0,57,102,0
0,52,101,4
0,37,100,0
0,37,103,0
0,40,100,0
0,61,99,98
0,57,109,0
0,52,104,4
0,61,91,2
0,61,83,0
0,42,91,0
0,64,101,4
0,64,87,0
0,69,73,4
0,69,77,0
0,40,100,0
0,40,107,0
0,42,87,0
0,36,100,0
0,61,87,4
0,61,105,0
0,61,82,0
0,64,108,2
0,57,113,0
0,64,89,0
0,69,86,4
0,52,109,0
0,69,81,0
0,42,95,0
0,37,100,0
0,37,107,0
0,40,100,0
0,61,105,16
0,61,91,4
0,57,113,0
0,52,113,0
0,61,83,0
0,69,83,2
0,64,97,0
0,69,80,0
0,64,85,0
0,42,95,0
0,68,85,32
0,49,117,0
0,61,70,0
0,37,100,0
0,37,107,0
0,65,103,0
0,42,87,0
0,36,100,0
0,56,127,2
0,61,127,0
0,65,127,6
0,61,80,128
0,61,79,0
0,68,91,4
0,65,113,0
0,68,83,0
0,65,91,0
0,61,103,16
0,42,100,0
0,56,103,4
0,53,104,0
0,41,100,0
0,41,107,0
0,40,100,0
0,68,95,220
0,61,102,0
0,68,85,0
0,65,101,4
0,56,107,0
0,53,105,0
0,65,87,0
0,61,73,2
0,61,77,0
0,42,91,0
0,44,100,0
0,44,107,0
0,42,87,0
0,36,100,0
0,61,80,214
0,68,91,0
0,61,79,0
0,68,83,0
0,56,110,6
0,53,113,0
0,42,95,22
0,41,100,0
0,41,107,0
0,40,100,0
0,53,113,0
0,68,83,4
0,61,76,0
0,56,108,0
0,68,80,0
0,61,78,0
0,65,104,4
0,65,88,0
0,42,95,2
0,61,94,54
0,66,77,4
0,58,73,0
0,54,108,2
0,66,121,0
0,61,127,0
0,58,117,0
0,30,100,0
0,30,103,0
0,42,87,0
0,36,100,0
0,58,100,144
0,66,100,4
0,66,87,0
0,42,100,0
0,61,80,4
0,70,76,0
0,66,97,0
0,61,79,0
0,70,78,0
0,34,100,0
0,34,103,0
0,40,100,0
0,61,108,246
0,66,97,2
0,42,91,0
0,58,103,0
0,61,83,0
0,61,80,0
0,66,100,2
0,70,73,0
0,61,95,0
0,66,87,0
0,70,77,0
0,37,100,0
0,37,107,0
0,42,87,0
0,36,100,0
0,61,87,230
0,61,82,0
0,66,100,4
0,66,87,0
0,70,71,2
0,70,76,0
0,61,108,4
0,66,102,0
0,58,103,2
0,42,95,0
0,39,100,0
0,39,107,0
0,40,100,0
0,42,95,242
0,66,100,6
0,61,87,0
0,66,87,0
0,61,82,0
0,70,55,4
0,70,70,0
0,61,107,2
0,58,105,0
0,66,100,4
0,42,100,0
0,42,101,0
0,42,87,0
0,36,100,0
0,61,73,220
0,61,87,6
0,66,95,0
0,61,82,0
0,66,85,0
0,70,61,4
0,61,108,0
0,70,72,0
0,66,102,2
0,58,105,0
0,42,100,0
0,61,90,86
0,70,94,0
0,39,100,0
0,39,103,0
0,40,100,0
0,61,110,158
0,66,100,2
0,66,105,0
0,66,87,0
0,42,91,0
0,61,83,4
0,70,76,0
0,58,103,0
0,61,80,0
0,70,78,0
0,68,85,86
0,37,100,0
0,59,87,0
0,37,102,0
0,42,87,0
0,36,100,0
0,61,108,58
0,66,100,0
0,58,105,2
0,66,95,8
0,66,85,0
0,70,83,2
0,70,80,0
0,61,53,4
0,61,69,0
0,42,95,2
0,34,100,0
0,34,102,0
0,40,100,0
0,58,66,6
0,66,77,2
0,42,95,70
0,61,110,4
0,61,91,2
0,66,107,0
0,61,83,0
0,66,100,4
0,58,105,0
0,66,87,0
0,70,68,6
0,70,75,0
0,63,121,4
0,59,127,6
0,54,127,0
0,63,94,2
0,66,90,0
0,59,87,2
0,63,63,0
0,35,100,0
0,47,107,0
0,54,73,0
0,35,102,0
0,42,87,0
0,36,100,0
0,66,96,190
0,63,97,2
0,59,99,4
0,66,100,4
0,63,76,0
0,66,87,0
0,63,78,0
0,71,79,2
0,71,79,0
0,42,100,10
0,39,100,0
0,39,103,0
0,40,100,0
0,63,108,208
0,66,105,2
0,59,104,6
0,66,87,14
0,66,82,0
0,63,73,2
0,63,77,0
0,42,91,0
0,71,75,4
0,71,77,0
0,42,100,0
0,42,103,0
0,42,87,0
0,36,100,0
0,63,108,210
0,66,105,4
0,59,103,4
0,63,80,2
0,63,79,0
0,66,91,4
0,71,81,0
0,66,83,0
0,71,79,0
0,42,95,18
0,39,100,0
0,39,103,0
0,40,100,0
0,66,108,122
0,66,95,2
0,63,80,0
0,63,110,0
0,66,85,0
0,63,79,0
0,42,95,0
0,59,109,4
0,71,64,6
0,71,73,0
0,52,115,6
0,28,100,0
0,28,104,0
0,42,87,0
0,36,100,0
0,68,81,2
0,64,107,0
0,59,76,4
0,64,124,0
0,56,127,0
0,59,127,0
0,64,81,188
0,68,59,0
0,64,79,0
0,68,71,0
0,59,68,4
0,59,108,0
0,59,75,0
0,42,100,0
0,56,99,6
0,64,113,0
0,32,100,0
0,32,103,0
0,40,100,0
0,68,76,240
0,68,78,0
0,64,104,2
0,59,88,0
0,64,88,0
0,59,82,0
0,42,91,6
0,59,109,8
0,56,100,0
0,64,117,2
0,35,100,0
0,35,105,0
0,42,87,0
0,36,100,0
0,68,83,224
0,59,94,0
0,68,80,0
0,59,84,0
0,64,113,2
0,64,117,0
0,64,91,0
0,59,109,4
0,56,100,0
0,42,95,12
0,32,100,0
0,32,107,0
0,40,100,0
0,64,111,200
0,59,105,8
0,56,100,0
0,59,94,2
0,68,87,0
0,59,84,0
0,68,82,0
0,42,95,0
0,64,113,4
0,64,91,0
0,64,98,50
0,61,85,0
0,57,84,0
0,33,100,0
0,33,107,0
0,42,87,0
0,36,100,0
0,61,125,0
0,64,127,0
0,45,109,2
0,57,121,0
0,61,98,182
0,52,104,0
0,57,107,2
0,42,100,4
0,61,80,0
0,64,101,0
0,61,79,0
0,64,87,0
0,69,73,4
0,69,77,0
0,37,100,0
0,37,103,0
0,40,100,0
0,61,102,48
0,57,109,6
0,52,107,0
0,42,91,12
0,61,87,8
0,61,82,0
0,64,108,2
0,64,89,0
0,50,117,0
0,38,100,0
0,38,104,0
0,62,103,0
0,42,87,0
0,36,100,0
0,61,100,2
0,66,85,0
0,57,78,4
0,66,127,10
0,62,127,0
0,57,127,2
0,66,87,4
0,66,82,0
0,62,108,2
0,69,88,0
0,62,89,0
0,69,82,0
0,54,96,4
0,57,107,0
0,62,103,4
0,64,107,0
0,42,95,8
0,42,100,0
0,42,103,0
0,40,100,0
0,66,94,98
0,66,83,38
0,62,102,0
0,66,80,0
0,69,91,4
0,57,105,0
0,54,98,0
0,69,83,0
0,62,108,2
0,62,89,0
0,42,95,0
0,61,90,2
0,45,100,0
0,64,107,0
0,45,105,0
0,42,87,0
0,36,100,0
0,45,115,2
0,64,127,4
0,61,127,0
0,57,121,2
0,64,98,0
0,61,85,0
0,57,87,4
0,64,108,8
0,64,89,0
0,61,80,4
0,69,88,0
0,61,79,0
0,69,82,0
0,42,100,0
0,61,98,4
0,57,108,0
0,52,107,0
0,33,100,4
0,33,107,0
0,40,100,0
0,69,77,92
