track,note,velocity,time
1,33,120,3072
1,43,120,100
1,41,120,128
1,40,120,0
1,38,120,0
1,45,120,1024
1,38,120,0
1,33,120,0
1,43,120,128
1,41,120,256
1,40,120,0
1,38,120,0
1,38,119,172
1,40,119,0
1,40,119,1024
1,40,119,0
1,41,119,0
1,41,119,172
1,36,119,0
1,43,119,1024
1,36,119,0
1,38,119,0
1,38,119,172
1,40,119,0
1,40,119,172
1,41,119,0
1,41,119,96
1,41,119,76
1,36,119,8
1,36,119,172
1,38,119,0
1,33,119,0
1,38,119,32
1,33,118,1408
1,38,118,0
1,43,118,24
1,43,118,116
1,41,118,0
1,41,118,116
1,43,118,0
1,43,118,96
1,43,118,76
1,41,118,8
1,29,118,0
1,41,118,0
1,43,118,32
1,43,118,116
1,41,118,0
1,41,118,116
1,43,118,0
1,43,118,116
1,41,118,0
1,41,117,172
1,43,117,0
1,43,117,116
1,33,117,0
1,28,117,0
1,43,117,32
1,43,117,116
1,41,117,0
1,29,117,0
1,41,117,0
1,36,117,32
1,31,117,0
1,33,117,32
1,33,117,96
1,33,117,76
1,43,117,8
1,43,117,116
1,41,117,0
1,40,117,0
1,38,116,0
1,38,116,172
1,33,116,0
1,33,116,116
1,43,116,0
1,31,116,0
1,43,116,0
1,41,116,32
1,41,116,80
1,40,116,24
1,38,116,0
1,38,116,116
1,40,116,0
1,40,116,96
1,40,116,76
1,41,116,8
1,48,116,1024
1,41,116,0
1,36,116,0
1,36,116,172
1,38,116,0
1,38,116,96
1,38,116,76
1,40,116,8
1,40,115,96
1,40,115,76
1,41,115,8
1,29,115,0
1,41,115,0
1,36,115,32
1,36,115,172
1,38,115,0
1,33,115,0
1,38,115,32
1,33,115,96
1,38,115,0
1,38,115,80
1,43,115,80
1,43,115,1024
1,43,115,0
1,41,115,0
1,41,115,116
1,43,115,0
1,31,115,0
1,43,115,0
1,41,115,32
1,48,114,1024
1,41,114,0
1,43,114,0
1,31,114,0
1,43,114,0
1,41,114,32
1,41,114,116
1,43,114,0
1,43,114,116
1,41,114,0
1,48,114,1024
1,41,114,0
1,43,114,0
1,31,114,0
1,33,114,32
1,40,114,1024
1,33,114,0
1,43,114,0
1,50,114,1024
1,43,114,0
1,41,114,0
1,41,114,116
1,36,114,0
1,36,114,96
1,36,113,76
1,33,113,8
1,33,113,96
1,33,113,76
1,43,113,8
1,43,113,172
1,41,113,0
1,40,113,0
1,40,113,80
1,38,113,24
1,26,113,0
1,38,113,0
1,33,113,32
1,33,113,172
1,43,113,0
1,43,113,116
1,41,113,0
1,41,113,80
1,40,113,24
1,38,113,0
1,38,113,172
1,40,112,0
1,40,112,116
1,41,112,0
1,36,112,0
1,36,112,32
1,43,112,1024
1,36,112,0
1,38,112,0
1,38,112,116
1,40,112,0
1,28,112,0
1,41,112,32
1,36,112,0
1,36,112,32
1,36,112,172
1,38,112,0
1,38,112,96
1,38,112,76
1,38,112,8
1,33,112,1408
1,38,112,0
1,38,111,80
1,38,111,76
1,43,111,64
1,31,111,0
1,41,111,32
1,48,111,1024
1,41,111,0
1,43,111,0
1,43,111,1024
1,43,111,0
1,41,111,0
1,41,111,116
1,43,111,0
1,31,111,0
1,41,111,32
1,36,111,0
1,43,111,32
1,43,111,116
1,41,111,0
1,41,111,172
1,43,111,0
1,31,110,0
1,33,110,32
1,33,110,96
1,33,110,76
1,43,110,8
1,43,110,116
1,41,110,0
1,41,110,172
1,36,110,0
1,36,110,172
1,35,110,0
1,35,110,80
1,34,110,24
1,33,110,0
1,44,110,0
1,43,110,0
1,42,110,0
1,42,110,80
1,38,110,24
1,43,110,24
1,43,109,116
1,41,109,0
1,41,109,116
1,43,109,0
1,43,109,96
1,43,109,32
1,41,109,8
1,29,109,0
1,41,109,0
1,43,109,32
1,43,109,20
1,41,109,0
1,41,109,52
1,43,109,0
1,43,109,0
1,41,109,0
1,41,109,0
1,43,109,0
1,43,109,32
1,33,109,0
1,28,109,0
2,35,127,3072
2,51,127,0
2,51,127,48
2,51,127,176
2,38,127,304
2,46,127,0
2,51,127,0
2,51,127,304
2,35,127,176
2,51,127,0
2,35,127,48
2,51,127,0
2,51,127,48
2,51,127,176
2,38,127,304
2,46,127,0
2,51,127,0
2,51,127,304
2,35,127,176
2,51,127,0
2,35,127,48
2,51,127,0
2,51,127,304
2,38,127,304
2,51,127,0
2,51,127,304
2,35,127,176
2,35,127,48
2,51,127,0
2,51,127,304
2,38,127,304
2,51,127,0
2,51,127,304
2,35,127,176
2,51,127,0
2,35,127,48
2,51,127,0
2,51,127,304
2,38,127,304
2,51,127,0
2,51,127,304
2,35,127,176
2,51,127,0
2,35,127,48
2,51,127,0
2,38,127,176
2,51,127,48
2,38,127,304
2,51,127,0
2,51,127,304
2,35,127,176
2,35,127,48
2,51,127,0
2,51,127,304
2,38,127,304
2,51,127,0
2,51,127,304
2,35,127,176
2,35,127,48
2,51,127,0
2,51,127,304
2,38,127,304
2,51,127,0
2,51,127,304
2,35,127,176
2,35,127,48
2,51,127,0
2,51,127,304
2,38,127,304
2,51,127,0
2,51,127,304
2,35,127,176
2,35,127,48
2,51,127,0
2,51,127,304
2,38,127,304
2,51,127,0
2,51,127,304
2,35,127,176
2,35,127,48
2,51,127,0
2,51,127,48
2,51,127,176
2,38,127,304
2,46,127,0
2,51,127,0
2,38,127,176
2,51,127,48
2,35,127,176
2,51,127,0
2,35,127,48
2,51,127,0
2,51,127,304
2,38,127,304
2,51,127,0
2,51,127,304
2,35,127,176
2,51,127,0
2,35,127,48
2,51,127,0
2,51,127,304
2,38,127,304
2,51,127,0
2,51,127,304
2,35,127,176
2,35,127,48
2,51,127,0
2,51,127,304
2,38,127,304
2,51,127,0
2,51,127,304
2,35,127,176
2,35,127,48
2,51,127,0
2,51,127,304
2,38,127,304
2,51,127,0
2,51,127,304
2,35,127,176
2,35,127,48
2,51,127,0
2,51,127,304
2,38,127,304
2,51,127,0
2,51,127,304
2,35,127,176
2,35,127,1584
2,38,127,112
2,45,127,112
2,38,127,16
2,38,127,16
2,38,127,16
2,38,127,16
2,35,127,112
2,46,127,112
2,41,127,0
2,35,127,304
2,51,127,0
2,49,127,0
2,51,127,304
2,51,127,176
2,38,127,48
2,51,127,0
2,51,127,304
2,38,127,176
2,35,127,48
2,51,127,0
2,51,127,48
2,35,127,48
2,51,127,48
2,51,127,176
2,38,127,48
2,51,127,0
2,51,127,304
2,38,127,176
2,35,127,48
2,51,127,0
2,51,127,304
2,51,127,176
2,38,127,48
2,51,127,0
2,51,127,304
2,38,127,176
2,51,127,0
2,35,127,48
2,51,127,0
2,51,127,304
2,51,127,176
2,38,127,48
2,51,127,0
2,51,127,304
2,38,127,176
2,35,127,48
2,51,127,0
2,51,127,304
2,51,127,176
2,38,127,48
2,51,127,0
2,51,127,304
2,38,127,176
2,35,127,48
2,51,127,0
2,51,127,304
2,51,127,176
2,38,127,48
2,51,127,0
2,51,127,304
2,38,127,176
2,51,127,0
2,35,127,48
2,51,127,0
2,51,127,304
2,51,127,176
2,38,127,48
2,51,127,0
2,51,127,304
2,38,127,176
2,35,127,48
2,51,127,0
2,51,127,304
2,51,127,176
2,38,127,48
2,51,127,0
2,51,127,304
2,38,127,176
2,35,127,48
2,51,127,0
2,51,127,304
2,51,127,176
2,38,127,48
2,51,127,0
2,51,127,304
2,38,127,176
2,35,127,48
2,51,127,0
2,51,127,304
2,51,127,176
2,38,127,48
2,51,127,0
2,51,127,304
2,38,127,176
2,51,127,0
2,35,127,48
2,51,127,0
2,51,127,304
2,51,127,176
2,38,127,48
2,51,127,0
2,51,127,304
2,38,127,176
2,35,127,48
2,51,127,0
2,51,127,304
2,51,127,176
2,38,127,48
2,51,127,0
2,51,127,304
2,38,127,176
2,35,127,48
2,51,127,0
2,51,127,304
2,38,127,176
2,38,127,48
2,51,127,0
2,45,127,176
2,51,127,48
2,38,127,48
2,35,127,48
2,35,127,48
2,51,127,0
2,49,127,0
2,51,127,304
2,38,127,304
2,51,127,0
2,51,127,304
2,35,127,176
2,35,127,48
2,51,127,0
2,51,127,304
2,38,127,304
2,46,127,0
2,51,127,0
2,51,127,304
2,35,127,176
2,35,127,48
2,51,127,0
2,51,127,304
2,38,127,304
2,51,127,0
2,38,127,176
2,51,127,48
2,35,127,176
2,35,127,48
2,51,127,0
2,51,127,304
2,38,127,304
2,51,127,0
2,35,127,304
2,51,127,0
2,51,127,176
2,35,127,48
2,51,127,0
2,51,127,304
2,38,127,304
2,51,127,0
2,38,127,176
2,51,127,48
2,35,127,176
2,35,127,48
2,51,127,0
2,51,127,304
2,38,127,304
2,51,127,0
2,51,127,304
2,35,127,176
2,51,127,0
2,35,127,48
2,51,127,0
2,51,127,304
2,38,127,304
2,51,127,0
2,38,127,176
2,51,127,48
2,35,127,176
2,35,127,48
2,51,127,0
2,51,127,304
2,38,127,304
2,51,127,0
2,51,127,304
2,35,127,176
2,51,127,0
2,35,127,48
2,51,127,0
2,51,127,304
2,38,127,304
2,46,127,0
2,51,127,0
2,51,127,304
2,35,127,176
2,35,127,48
2,51,127,0
2,51,127,48
2,51,127,176
2,38,127,304
2,46,127,0
2,51,127,0
2,38,127,176
2,51,127,48
2,35,127,176
2,35,127,48
2,51,127,0
2,51,127,304
2,38,127,304
2,51,127,0
2,51,127,304
2,35,127,176
2,35,127,48
2,51,127,0
2,38,127,176
2,51,127,48
2,38,127,304
2,51,127,0
2,51,127,304
2,35,127,176
2,35,127,48
2,51,127,0
2,51,127,304
2,38,127,304
2,51,127,0
2,51,127,304
2,35,127,176
2,35,127,48
2,51,127,0
2,51,127,304
2,38,127,304
2,46,127,0
2,51,127,0
2,38,127,176
2,51,127,48
2,35,127,176
2,35,127,48
2,51,127,0
2,38,127,176
2,51,127,48
2,38,127,304
2,51,127,0
2,51,127,304
2,35,127,176
2,51,127,0
2,35,127,48
2,51,127,0
2,51,127,304
2,38,127,304
2,51,127,0
2,35,127,304
2,51,127,0
2,35,127,1840
2,51,127,0
2,51,127,304
2,38,127,176
2,38,127,48
2,51,127,0
2,45,127,176
2,51,127,48
2,38,127,48
2,35,127,48
2,35,127,48
2,51,127,0
2,49,127,0
2,51,127,304
2,51,127,176
2,38,127,48
2,51,127,0
2,51,127,304
2,38,127,176
2,35,127,48
2,51,127,0
2,51,127,304
2,51,127,176
2,38,127,48
2,51,127,0
2,51,127,304
2,38,127,176
2,35,127,48
2,51,127,0
2,51,127,304
2,51,127,176
2,38,127,48
2,51,127,0
2,51,127,304
2,38,127,176
2,35,127,48
2,51,127,0
2,46,127,176
2,42,127,48
2,51,127,0
2,51,127,176
2,38,127,48
2,51,127,0
2,51,127,304
2,35,127,176
2,51,127,0
2,35,127,48
2,51,127,0
2,51,127,304
2,51,127,176
2,38,127,48
2,51,127,0
2,51,127,304
2,38,127,176
2,51,127,0
2,35,127,48
2,51,127,0
2,46,127,176
2,42,127,48
2,51,127,0
2,51,127,176
2,38,127,48
2,51,127,0
2,51,127,304
2,35,127,176
2,51,127,0
2,35,127,48
2,51,127,0
2,51,127,304
2,51,127,176
2,38,127,48
2,51,127,0
2,51,127,304
2,38,127,176
2,35,127,48
2,51,127,0
2,51,127,304
2,38,127,208
2,38,127,16
2,51,127,0
2,38,127,112
2,38,127,112
2,51,127,0
2,38,127,16
2,51,127,112
2,35,127,16
2,51,127,0
2,51,127,304
2,51,127,176
2,38,127,48
2,51,127,0
2,51,127,304
2,38,127,176
2,35,127,48
2,51,127,0
2,46,127,176
2,42,127,48
2,51,127,0
2,51,127,176
2,38,127,48
2,51,127,0
2,51,127,304
2,35,127,176
2,51,127,0
2,35,127,48
2,51,127,0
2,51,127,304
2,51,127,176
2,38,127,48
2,51,127,0
2,51,127,304
2,38,127,176
2,35,127,48
2,51,127,0
2,51,127,304
2,51,127,176
2,38,127,48
2,51,127,0
2,51,127,176
2,51,127,48
2,38,127,176
2,35,127,48
2,51,127,0
2,51,127,304
2,38,127,176
2,38,127,48
2,51,127,0
2,45,127,176
2,51,127,48
2,38,127,48
2,35,127,48
2,35,127,48
2,51,127,0
2,49,127,0
2,51,127,304
2,38,127,304
2,51,127,0
2,51,127,304
2,35,127,176
2,35,127,48
2,51,127,0
2,51,127,304
2,38,127,304
2,51,127,0
2,51,127,304
2,35,127,176
2,35,127,48
2,51,127,0
2,51,127,304
2,38,127,304
2,51,127,0
2,51,127,304
2,35,127,176
2,35,127,48
2,51,127,0
2,51,127,304
2,38,127,304
2,51,127,0
2,35,127,304
2,51,127,0
2,35,127,304
2,51,127,0
2,51,127,48
2,51,127,176
2,38,127,304
2,51,127,0
2,51,127,304
2,35,127,176
2,51,127,0
2,35,127,48
2,51,127,0
2,51,127,304
2,38,127,176
2,38,127,48
2,51,127,0
2,51,127,304
2,35,127,176
2,35,127,48
2,51,127,0
2,51,127,304
2,38,127,304
2,51,127,0
2,51,127,304
2,35,127,176
2,35,127,48
2,51,127,0
2,51,127,304
2,38,127,176
2,38,127,48
2,51,127,0
2,51,127,304
2,35,127,176
2,51,127,0
2,35,126,48
2,51,126,0
2,51,126,304
2,38,126,304
2,51,126,0
2,51,126,304
2,35,126,176
2,51,126,0
2,35,126,48
2,51,126,0
2,51,126,48
2,51,126,176
2,38,126,304
2,51,126,0
2,51,126,304
2,35,126,176
2,51,126,0
2,35,126,48
2,51,126,0
2,51,126,304
2,38,126,304
2,51,126,0
2,51,126,304
2,35,126,176
2,35,126,48
2,51,126,0
2,51,126,304
2,38,126,304
2,46,126,0
2,51,126,0
2,38,126,176
2,51,126,48
2,35,126,176
2,35,126,48
2,51,126,0
2,51,126,304
2,38,126,304
2,51,126,0
2,51,126,304
2,35,126,176
2,35,126,48
2,51,126,0
2,51,126,304
2,38,126,304
2,51,126,0
2,51,126,304
2,35,126,176
2,51,126,0
2,35,126,48
2,51,126,0
2,38,126,176
2,51,126,48
2,38,126,304
2,51,126,0
2,51,126,304
2,35,126,176
2,35,126,48
2,51,126,0
2,51,126,304
2,38,126,304
2,51,126,0
2,35,126,304
2,51,126,0
2,35,126,304
2,51,126,0
2,51,126,304
2,38,126,304
2,51,126,0
2,51,126,304
2,35,126,176
2,35,127,48
2,51,127,0
2,51,127,304
2,38,127,176
2,38,127,48
2,51,127,0
2,45,127,176
2,51,127,48
2,38,127,48
2,35,127,48
2,35,127,48
2,51,127,0
2,49,127,0
2,51,127,304
2,51,127,176
2,38,127,48
2,51,127,0
2,51,127,304
2,38,127,176
2,35,125,48
2,51,125,0
2,46,125,176
2,42,125,48
2,51,125,0
2,51,125,176
2,38,125,48
2,51,125,0
2,51,125,304
2,35,125,176
2,51,125,0
2,35,125,48
2,51,125,0
2,51,125,304
2,51,125,176
2,38,125,48
2,51,125,0
2,51,125,304
2,38,125,176
2,35,125,48
2,51,125,0
2,51,125,304
2,51,125,176
2,38,125,48
2,51,125,0
2,51,125,304
2,38,125,176
2,35,125,48
2,51,125,0
2,51,125,304
2,51,125,176
2,38,125,48
2,51,125,0
2,51,125,304
2,38,125,176
2,51,125,0
2,35,125,48
2,51,125,0
2,51,125,48
2,35,125,48
2,51,125,48
2,51,125,176
2,38,125,48
2,51,125,0
2,51,125,304
2,38,125,176
2,35,125,48
2,51,125,0
2,51,125,304
2,51,125,176
2,38,125,48
2,51,125,0
2,51,125,304
2,38,125,176
2,51,125,0
2,35,125,48
2,51,125,0
2,35,125,176
2,51,125,48
2,51,125,176
2,38,125,48
2,51,125,0
2,51,125,304
2,38,125,176
2,51,125,0
2,35,125,48
2,51,125,0
2,51,125,304
2,51,125,176
2,38,124,48
2,51,124,0
2,51,124,304
2,38,124,176
2,35,124,48
2,51,124,0
2,51,124,304
2,51,124,176
2,38,124,48
2,51,124,0
2,51,124,304
2,38,124,176
2,35,124,48
2,51,124,0
2,51,124,304
2,51,124,176
2,38,124,48
2,51,124,0
2,51,124,304
2,45,124,176
2,35,124,48
2,51,124,0
2,51,124,304
2,51,124,176
2,38,124,48
2,51,124,0
2,51,124,304
