track,note,velocity,time
0,42,56,174
0,42,0,44
0,42,56,152
0,42,0,49
0,62,33,123
0,66,15,6
0,74,68,2
0,78,59,6
0,86,65,0
0,81,65,0
0,69,29,16
0,74,31,0
0,51,68,194
0,51,0,44
0,51,66,148
0,51,0,52
0,62,0,16
0,66,0,0
0,69,0,0
0,74,0,28
0,61,50,66
0,66,15,0
0,73,73,14
0,85,78,6
0,69,27,0
0,73,33,0
0,74,0,10
0,86,0,0
0,51,69,192
0,51,0,40
0,51,69,152
0,69,0,4
0,73,0,0
0,66,0,24
0,61,0,9
0,51,0,11
0,81,0,22
0,85,0,16
0,78,0,49
0,59,27,15
0,73,0,4
0,62,15,4
0,78,42,12
0,74,66,8
0,71,63,0
0,66,50,2
0,83,65,8
0,71,29,0
0,51,75,196
0,51,0,34
0,51,75,158
0,51,0,38
0,62,0,24
0,59,0,19
0,66,0,11
0,71,0,20
0,57,25,26
0,62,19,14
0,66,37,24
0,69,29,8
0,69,73,6
0,81,66,0
0,83,0,2
0,71,0,7
0,51,75,185
0,51,0,38
0,66,0,124
0,69,0,0
0,62,0,7
0,78,0,19
0,81,0,0
0,51,73,4
0,74,0,12
0,57,0,2
0,51,0,16
0,69,0,8
0,59,17,132
0,78,45,4
0,67,47,0
0,55,26,2
0,66,16,0
0,71,56,8
0,74,60,0
0,43,15,2
0,54,15,0
0,36,101,6
0,51,80,1
0,43,127,0
0,47,15,3
0,50,16,0
0,51,0,26
0,36,0,66
0,64,97,32
0,66,97,62
0,51,74,2
0,54,83,0
0,64,0,8
0,51,0,20
0,66,0,98
0,51,57,2
0,64,97,2
0,51,0,24
0,66,97,34
0,64,0,2
0,37,86,2
0,51,71,1
0,51,0,35
0,64,97,78
0,66,0,8
0,36,101,6
0,43,0,18
0,36,0,22
0,66,97,14
0,64,0,2
0,36,101,8
0,51,75,1
0,43,127,0
0,37,0,11
0,51,0,33
0,36,0,30
0,54,0,1
0,51,77,116
0,54,83,0
0,54,0,26
0,50,0,9
0,43,0,7
0,51,0,0
0,47,0,6
0,74,97,70
0,43,22,68
0,50,25,0
0,47,24,0
0,54,30,1
0,37,86,5
0,51,81,0
0,71,97,2
0,74,0,2
0,66,0,6
0,43,0,14
0,51,0,4
0,71,0,60
0,67,0,6
0,78,0,15
0,71,0,9
0,74,0,6
0,43,0,1
0,47,0,1
0,66,97,0
0,43,127,2
0,37,0,10
0,59,0,6
0,54,0,4
0,66,83,22
0,66,0,2
0,69,70,4
0,76,71,2
0,73,79,0
0,50,0,4
0,42,23,4
0,55,0,6
0,36,101,1
0,51,80,0
0,42,127,0
0,45,21,1
0,52,17,0
0,49,27,1
0,54,39,1
0,64,21,0
0,57,27,2
0,43,0,8
0,64,97,2
0,66,0,8
0,51,0,8
0,54,0,30
0,36,0,19
0,51,82,111
0,54,83,0
0,51,0,28
0,51,74,100
0,51,0,25
0,37,86,39
0,51,77,0
0,42,0,22
0,51,0,18
0,37,0,38
0,36,101,50
0,42,127,0
0,42,0,29
0,36,0,11
0,36,101,25
0,51,83,0
0,42,127,0
0,54,0,23
0,51,0,12
0,42,0,4
0,45,0,0
0,52,0,6
0,49,0,2
0,36,0,22
0,42,46,56
0,52,22,0
0,45,21,2
0,49,32,0
0,42,0,30
0,49,0,0
0,45,0,8
0,52,0,5
0,51,80,21
0,54,83,0
0,51,0,40
0,64,0,0
0,49,25,136
0,45,15,0
0,52,16,1
0,42,29,11
0,37,86,4
0,51,83,1
0,42,0,13
0,51,0,24
0,37,0,38
0,45,0,40
0,69,0,4
0,36,101,8
0,42,127,0
0,57,0,4
0,36,0,36
0,42,0,0
0,76,0,0
0,42,0,6
0,64,55,2
0,73,0,2
0,67,66,0
0,71,71,0
0,74,60,0
0,49,0,2
0,54,0,2
0,64,0,0
0,40,17,2
0,50,20,0
0,43,15,0
0,47,20,1
0,55,35,1
0,52,29,0
0,36,101,6
0,51,85,1
0,40,127,0
0,66,0,2
0,62,30,1
0,54,0,10
0,51,0,18
0,36,0,38
0,59,97,60
0,51,82,62
0,54,83,0
0,62,97,8
0,59,0,8
0,51,0,12
0,59,97,98
0,62,0,2
0,51,74,0
0,51,0,20
0,37,86,44
0,51,76,0
0,62,97,8
0,59,0,1
0,51,0,33
0,37,0,46
0,40,0,0
0,52,0,18
0,59,97,12
0,47,0,4
0,43,0,3
0,62,0,1
0,36,101,2
0,50,0,6
0,71,0,5
0,73,47,27
0,36,0,4
0,40,0,2
0,76,63,0
0,69,69,0
0,74,0,4
0,36,101,16
0,51,85,1
0,45,127,0
0,71,97,1
0,59,0,1
0,49,23,1
0,52,15,0
0,43,15,0
0,45,15,1
0,64,0,17
0,54,0,12
0,51,0,12
0,36,0,30
0,55,0,94
0,61,24,8
0,57,30,6
0,62,0,1
0,54,23,1
0,64,19,0
0,52,0,2
0,51,82,4
0,54,83,0
0,51,0,42
0,69,97,74
0,71,0,8
0,45,0,16
0,37,86,52
0,51,85,1
0,45,127,0
0,66,97,7
0,69,0,20
0,51,0,8
0,76,0,26
0,37,0,12
0,69,0,8
0,73,0,4
0,67,0,6
0,64,97,6
0,66,0,2
0,43,0,22
0,36,101,6
0,36,0,39
0,69,53,5
0,78,65,0
0,73,65,0
0,45,0,6
0,50,25,4
0,54,0,2
0,74,68,0
0,45,0,4
0,36,101,4
0,51,85,1
0,50,127,0
0,49,0,3
0,66,97,0
0,64,0,1
0,38,15,1
0,52,0,3
0,54,0,9
0,51,0,17
0,36,0,30
0,42,17,5
0,64,0,52
0,45,24,6
0,51,87,64
0,54,83,0
0,49,54,6
0,51,0,24
0,52,28,36
0,54,22,12
0,51,76,50
0,57,24,1
0,57,0,21
0,51,0,2
0,57,33,24
0,37,86,16
0,51,83,1
0,50,0,39
0,51,0,6
0,37,0,12
0,49,0,28
0,73,0,18
0,36,101,24
0,45,127,0
0,50,23,8
0,54,23,0
0,52,0,12
0,36,0,10
0,71,80,18
0,36,101,16
0,51,92,1
0,50,127,0
0,45,0,3
0,54,0,24
0,59,42,4
0,51,0,4
0,61,0,18
0,36,0,10
0,57,0,13
0,66,0,113
0,37,86,2
0,51,83,0
0,54,83,0
0,47,15,10
0,51,0,20
0,37,0,33
0,50,0,55
0,57,0,46
0,51,92,28
0,54,0,4
0,52,17,4
0,57,24,0
0,51,0,26
0,50,0,14
0,47,0,14
0,54,25,4
0,38,0,2
0,52,0,5
0,42,0,1
0,45,0,9
0,78,0,17
0,64,97,4
0,69,0,6
0,74,0,10
0,52,17,2
0,36,101,6
0,37,86,0
0,50,127,1
0,54,0,9
0,71,0,0
0,59,0,20
0,59,28,8
0,36,0,4
0,71,75,2
0,67,68,0
0,74,80,0
0,66,24,1
0,78,83,1
0,62,35,0
0,55,47,8
0,37,0,2
0,42,17,4
0,54,24,0
0,52,0,2
0,50,0,2
0,36,101,1
0,51,85,0
0,43,127,0
0,54,0,5
0,54,0,0
0,50,0,2
0,50,24,0
0,43,28,0
0,66,97,2
0,64,0,1
0,42,0,1
0,51,0,26
0,57,0,20
0,36,0,8
0,47,24,58
0,66,0,26
0,64,97,4
0,51,92,38
0,54,83,0
0,66,97,12
0,64,0,2
0,51,0,14
0,51,79,100
0,64,97,10
0,66,0,2
0,51,0,12
0,37,86,40
0,51,89,1
0,66,97,1
0,64,0,8
0,43,0,18
0,51,0,6
0,37,0,38
0,47,0,28
0,36,101,28
0,43,127,0
0,66,0,2
0,64,97,0
0,36,0,38
0,43,0,0
0,36,101,24
0,51,85,1
0,43,127,0
0,66,97,1
0,64,0,6
0,54,0,4
0,51,0,33
0,36,0,24
0,54,0,59
0,50,0,5
0,43,0,57
0,51,89,2
0,54,83,0
0,51,0,39
0,74,97,65
0,43,24,84
0,37,86,4
0,51,87,0
0,54,29,4
0,50,23,0
0,47,24,1
0,71,97,3
0,74,0,2
0,66,0,12
0,51,0,16
0,43,0,0
0,37,0,20
0,71,0,18
0,67,0,9
0,71,0,11
0,66,97,4
0,59,0,14
0,78,0,0
0,36,101,14
0,43,127,0
0,47,0,6
0,43,0,6
0,74,0,14
0,54,0,6
0,69,69,2
0,76,63,0
0,36,0,2
0,66,88,0
0,66,0,10
0,73,83,0
0,64,29,8
0,54,37,2
0,57,33,0
0,55,0,1
0,50,0,5
0,36,101,3
0,51,89,0
0,42,127,0
0,54,0,1
0,42,24,0
0,52,15,0
0,45,24,2
0,49,29,0
0,62,0,2
0,43,0,10
0,64,97,2
0,66,0,14
0,51,0,4
0,36,0,26
0,51,82,130
0,54,83,0
0,51,0,32
0,51,77,96
0,51,0,27
0,37,86,37
0,51,82,0
0,51,0,42
0,42,0,2
0,37,0,44
0,36,101,40
0,42,127,0
0,36,0,32
0,42,0,18
0,52,0,14
0,36,101,1
0,51,89,0
0,42,127,0
0,54,0,3
0,49,0,6
0,42,0,2
0,45,0,0
0,51,0,30
0,36,0,28
0,64,0,23
0,45,26,25
0,42,50,0
0,52,29,0
0,49,39,1
0,42,0,30
0,49,0,1
0,45,0,6
0,52,0,8
0,51,83,28
0,54,83,0
0,51,0,28
0,42,15,90
0,49,15,6
0,42,0,4
0,49,0,8
0,42,60,44
0,45,24,8
0,49,39,0
0,52,26,0
0,37,86,4
0,51,83,1
0,51,0,31
0,42,0,12
0,37,0,34
0,69,0,30
0,45,0,10
0,54,0,22
0,76,0,0
0,66,0,21
0,73,0,1
0,42,0,12
0,74,73,6
0,67,71,0
0,71,74,2
0,64,69,0
0,54,0,2
0,49,0,2
0,52,27,2
0,55,39,0
0,36,101,4
0,51,83,1
0,40,127,0
0,43,24,1
0,40,19,0
0,50,24,0
0,47,22,2
0,62,44,2
0,57,0,2
0,64,0,8
0,51,0,20
0,36,0,38
0,59,97,60
0,51,85,58
0,54,83,0
0,62,97,6
0,59,0,7
0,51,0,21
0,43,0,18
0,43,21,14
0,47,0,22
0,51,76,40
0,47,19,0
0,59,97,2
0,62,0,2
0,50,0,10
0,51,0,16
0,37,86,34
0,51,82,0
0,62,97,2
0,59,0,2
0,50,25,0
0,40,0,20
0,51,0,12
0,47,0,48
0,37,0,18
0,47,19,14
0,59,97,6
0,36,101,6
0,40,127,0
0,62,0,2
0,54,0,16
0,36,0,15
0,50,0,15
0,59,0,16
0,40,0,0
0,36,101,1
0,51,83,0
0,45,127,0
0,50,15,1
0,71,97,2
0,51,0,36
0,36,0,29
0,71,0,15
0,47,0,22
0,43,0,27
0,55,0,27
0,57,35,8
0,61,43,0
0,64,38,0
0,62,0,2
0,50,0,4
0,73,78,2
0,76,64,0
0,69,82,2
0,74,0,1
0,45,23,9
0,69,97,2
0,64,0,2
0,71,0,0
0,51,82,0
0,54,83,1
0,49,19,1
0,43,19,0
0,40,0,16
0,51,0,16
0,45,0,108
0,37,86,50
0,51,80,1
0,45,127,0
0,61,97,5
0,38,15,4
0,69,0,10
0,51,0,16
0,52,0,30
0,54,0,4
0,37,0,12
0,69,0,30
0,43,0,8
0,38,0,6
0,36,101,2
0,67,0,10
0,73,0,10
0,76,0,6
0,36,0,8
0,66,80,0
0,74,74,0
0,69,89,0
0,45,0,8
0,62,49,8
0,49,0,6
0,45,0,2
0,54,39,0
0,61,0,2
0,64,0,0
0,38,15,0
0,36,101,4
0,51,87,1
0,50,127,0
0,50,20,3
0,52,0,2
0,62,97,2
0,61,0,1
0,51,0,27
0,36,0,24
0,42,18,4
0,45,41,60
0,51,87,68
0,54,83,0
0,57,36,6
0,52,43,0
0,51,0,28
0,50,0,90
0,51,69,4
0,51,0,30
0,50,0,26
0,54,32,2
0,50,31,0
0,52,0,2
0,54,0,4
0,37,86,0
0,51,81,1
0,50,127,0
0,38,0,3
0,45,0,8
0,42,0,1
0,57,0,21
0,51,0,2
0,54,0,17
0,69,0,25
0,37,0,0
0,50,0,6
0,54,0,10
0,62,0,12
0,74,0,8
0,57,0,18
0,66,0,14
0,73,84,16
0,69,87,0
0,62,0,2
0,67,83,0
0,76,78,0
0,64,53,18
0,61,69,0
0,69,64,1
0,69,97,1
0,45,41,2
0,57,31,0
0,52,28,2
0,55,24,0
0,49,46,0
0,36,101,4
0,51,92,1
0,45,127,0
0,50,0,21
0,51,0,18
0,36,0,35
0,55,0,7
0,57,0,4
0,49,0,2
0,52,0,19
0,69,0,15
0,64,0,12
0,69,0,0
0,76,0,5
0,45,0,2
0,67,0,5
0,73,0,0
0,52,15,0
0,61,0,12
0,52,0,14
0,62,56,8
0,71,56,0
0,67,66,1
0,71,69,1
0,67,67,0
0,74,69,0
0,76,67,1
0,71,97,7
0,69,0,2
0,38,72,0
0,51,89,0
0,47,127,1
0,54,83,0
0,52,25,1
0,55,29,0
0,45,0,2
0,59,28,0
0,50,38,0
0,38,0,26
0,51,0,7
0,38,59,27
0,52,0,8
0,50,0,0
0,55,0,10
0,74,0,10
0,71,0,1
0,67,0,1
0,38,0,0
0,59,0,0
0,54,0,4
0,76,0,1
0,67,0,9
0,71,0,9
0,62,0,11
0,38,72,0
0,38,0,29
0,73,61,23
0,64,57,0
0,69,68,2
0,47,0,6
0,76,63,4
0,79,67,1
0,69,71,0
0,73,85,0
0,38,98,0
0,51,89,1
0,49,127,0
0,73,97,0
0,61,31,6
0,55,33,0
0,57,41,1
0,71,0,1
0,38,0,14
0,51,0,14
0,38,94,26
0,38,0,26
0,55,0,6
0,57,0,10
0,61,0,6
0,73,0,4
0,49,0,8
0,38,98,4
0,64,0,4
0,69,0,2
0,73,0,4
0,76,0,2
0,79,0,0
0,38,0,34
0,69,0,4
0,66,50,0
0,74,54,0
0,62,51,0
0,78,79,6
0,69,78,0
0,74,80,1
0,36,101,7
0,51,83,1
0,50,127,0
0,69,44,0
0,42,42,1
0,49,74,0
0,50,31,2
0,62,25,0
0,78,78,1
0,66,97,0
0,73,0,1
0,74,97,6
0,54,25,2
0,57,31,0
0,42,0,14
0,69,0,2
0,51,0,4
0,69,44,30
0,42,42,0
0,36,0,18
0,42,0,10
0,69,0,2
0,69,44,34
0,42,42,0
0,42,0,24
0,69,0,2
0,38,75,38
0,51,77,0
0,69,44,1
0,42,42,0
0,69,0,25
0,42,0,2
0,50,0,10
0,51,0,7
0,38,0,11
0,69,44,8
0,42,42,0
0,69,0,24
0,42,0,5
0,45,127,35
0,69,44,0
0,42,42,1
0,69,0,23
0,42,0,3
0,45,0,21
0,38,75,16
0,51,76,0
0,69,44,1
0,42,42,0
0,54,83,0
0,66,0,19
0,42,0,8
0,69,0,4
0,51,0,10
0,49,0,17
0,69,44,5
0,42,42,0
0,62,0,8
0,57,0,0
0,38,0,2
0,54,0,4
0,50,0,11
0,42,0,3
0,69,0,2
0,36,101,34
0,45,127,0
0,69,44,1
0,42,42,0
0,45,15,7
0,42,0,18
0,69,0,1
0,36,0,5
0,73,89,10
0,54,15,4
0,74,0,4
0,73,53,4
0,69,50,0
0,45,0,6
0,50,33,0
0,45,0,2
0,36,101,2
0,51,70,1
0,50,127,0
0,69,44,0
0,42,42,1
0,73,97,0
0,74,0,4
0,57,38,0
0,61,39,0
0,54,0,10
0,74,0,2
0,69,0,14
0,51,0,4
0,42,0,0
0,69,44,28
0,42,42,0
0,36,0,6
0,69,0,24
0,42,0,0
0,69,44,34
0,42,42,0
0,69,0,30
0,42,0,0
0,38,71,34
0,51,69,0
0,69,44,0
0,42,42,1
0,42,0,23
0,69,0,4
0,51,0,12
0,69,44,24
0,42,42,0
0,38,0,1
0,57,0,19
0,42,0,8
0,69,0,2
0,50,0,20
0,69,44,14
0,42,42,0
0,69,0,8
0,42,0,16
0,69,0,1
0,69,97,37
0,73,0,2
0,38,77,0
0,51,71,1
0,54,127,0
0,69,44,0
0,42,42,0
0,54,83,1
0,57,33,0
0,69,43,4
0,73,0,18
0,61,0,0
0,42,0,4
0,69,0,1
0,51,0,11
0,69,44,24
0,42,42,0
0,50,0,5
0,38,0,9
0,69,0,15
0,42,0,1
0,54,0,14
0,69,0,16
0,69,44,4
0,42,42,0
0,73,0,6
0,43,15,6
