track,note,velocity,time
1,81,118,13824
1,81,0,128
1,79,118,64
1,79,0,128
1,79,118,64
1,79,0,128
1,79,118,64
1,79,0,128
1,76,118,64
1,76,0,128
1,72,118,64
1,72,0,128
1,74,118,256
1,74,0,320
1,72,118,64
1,72,0,128
1,74,118,64
1,74,0,128
1,72,118,64
1,72,0,128
1,76,118,64
1,76,0,512
1,69,118,3328
1,69,0,128
1,69,118,64
1,69,0,128
1,69,118,64
1,69,0,128
1,72,118,64
1,72,0,256
1,74,118,128
1,74,0,128
1,74,118,64
1,74,0,128
1,76,118,64
1,76,0,320
1,79,118,64
1,79,0,128
1,79,118,64
1,79,0,128
1,81,118,64
1,81,0,704
1,79,118,3136
1,79,0,128
1,81,118,64
1,81,0,128
1,79,118,64
1,79,0,128
1,79,118,64
1,79,0,128
1,79,118,64
1,79,0,128
1,76,118,64
1,72,118,192
1,76,0,64
1,72,118,128
1,72,0,64
1,72,0,192
1,74,118,128
1,74,0,128
1,72,118,64
1,72,0,128
1,74,118,64
1,74,0,128
1,72,118,64
1,72,0,128
1,76,118,64
1,76,0,256
1,81,118,3392
1,81,0,128
1,84,118,64
1,84,0,128
1,81,118,64
1,81,0,128
1,84,118,64
1,84,0,128
1,84,118,64
1,84,0,128
1,81,118,64
1,81,0,256
1,79,118,128
1,79,0,128
1,76,118,64
1,76,0,128
1,81,118,64
1,81,0,256
1,79,118,128
1,79,0,256
1,76,118,128
1,74,118,96
1,74,0,128
1,72,118,64
1,76,0,224
1,72,0,160
1,74,118,3168
1,74,0,256
1,72,118,128
1,72,0,128
1,74,118,64
1,74,0,384
1,72,118,768
1,72,0,128
1,74,118,64
1,74,0,256
1,76,118,128
1,76,0,256
1,74,118,128
1,74,0,128
1,74,118,64
1,74,0,320
1,72,118,64
1,72,0,384
1,74,118,2496
1,74,0,256
1,72,118,128
1,72,0,128
1,74,118,64
1,74,0,384
1,72,118,768
1,72,0,128
1,74,118,64
1,74,0,256
1,76,118,128
1,76,0,256
1,74,118,128
1,74,0,128
1,74,118,64
1,74,0,320
1,72,118,64
1,72,0,384
1,77,118,2496
1,77,0,256
1,72,118,2048
1,72,0,128
1,72,118,64
1,72,0,128
1,72,118,64
1,72,0,256
1,76,118,128
1,76,0,384
1,74,118,192
1,74,0,256
1,74,118,128
1,74,0,384
1,72,118,960
1,72,0,168
1,72,118,88
1,72,0,168
1,72,118,88
1,72,0,168
1,76,118,88
1,76,0,384
1,74,118,192
1,74,0,256
1,74,118,128
1,74,0,384
1,72,118,384
1,72,0,128
1,74,118,64
1,74,0,128
1,72,118,64
1,72,0,128
1,76,118,64
1,76,0,128
1,75,118,64
1,75,0,128
1,74,118,64
1,74,0,128
1,72,118,64
1,72,0,128
1,76,118,64
1,76,0,256
1,69,118,128
1,69,0,128
1,72,118,64
1,72,0,512
1,81,118,11200
1,81,0,128
1,79,118,64
1,79,0,128
1,79,118,64
1,79,0,128
1,79,118,64
1,79,0,128
1,76,118,64
1,76,0,128
1,72,118,64
1,72,0,128
1,74,118,256
1,74,0,320
1,72,118,64
1,72,0,128
1,74,118,64
1,74,0,128
1,72,118,64
1,72,0,128
1,76,118,64
1,76,0,512
1,69,118,3328
1,69,0,128
1,69,118,64
1,69,0,128
1,69,118,64
1,69,0,128
1,72,118,64
1,72,0,256
1,74,118,128
1,74,0,128
1,74,118,64
1,74,0,128
1,76,118,64
1,76,0,320
1,79,118,64
1,79,0,128
1,79,118,64
1,79,0,128
1,81,118,64
1,81,0,704
1,79,118,3136
1,79,0,128
1,81,118,64
1,81,0,128
1,79,118,64
1,79,0,128
1,79,118,64
1,79,0,128
1,79,118,64
1,79,0,128
1,76,118,64
1,72,118,192
1,76,0,64
1,72,118,128
1,72,0,64
1,72,0,192
1,74,118,128
1,74,0,128
1,72,118,64
1,72,0,128
1,74,118,64
1,74,0,128
1,72,118,64
1,72,0,128
1,76,118,64
1,76,0,256
1,81,118,3392
1,81,0,128
1,84,118,64
1,84,0,128
1,81,118,64
1,81,0,128
1,84,118,64
1,84,0,128
1,84,118,64
1,84,0,128
1,81,118,64
1,81,0,256
1,79,118,128
1,79,0,128
1,76,118,64
1,76,0,128
1,81,118,64
1,81,0,256
1,79,118,128
1,79,0,256
1,76,118,128
1,74,118,96
1,74,0,128
1,72,118,64
1,76,0,224
1,72,0,160
1,74,118,3168
1,74,0,256
1,72,118,128
1,72,0,128
1,74,118,64
1,74,0,384
1,72,118,768
1,72,0,128
1,74,118,64
1,74,0,256
1,76,118,128
1,76,0,256
1,74,118,128
1,74,0,128
1,74,118,64
1,74,0,320
1,72,118,64
1,72,0,384
1,74,118,2496
1,74,0,256
1,72,118,128
1,72,0,128
1,74,118,64
1,74,0,384
1,72,118,768
1,72,0,128
1,74,118,64
1,74,0,256
1,76,118,128
1,76,0,256
1,74,118,128
1,74,0,128
1,74,118,64
1,74,0,320
1,72,118,64
1,72,0,384
1,77,118,2496
1,77,0,256
1,72,118,2048
1,72,0,128
1,72,118,64
1,72,0,128
1,72,118,64
1,72,0,256
1,76,118,128
1,76,0,384
1,74,118,192
1,74,0,256
1,74,118,128
1,74,0,384
1,72,118,960
1,72,0,168
1,72,118,88
1,72,0,168
1,72,118,88
1,72,0,168
1,76,118,88
1,76,0,384
1,74,118,192
1,74,0,256
1,74,118,128
1,74,0,384
1,72,118,384
1,72,0,128
1,74,118,64
1,74,0,128
1,72,118,64
1,72,0,128
1,76,118,64
1,76,0,128
1,75,118,64
1,75,0,128
1,74,118,64
1,74,0,128
1,72,118,64
1,72,0,128
1,76,118,64
1,76,0,128
1,75,118,64
1,75,0,128
1,74,118,64
1,74,0,128
1,72,118,64
1,72,0,128
1,76,118,64
1,76,0,256
1,69,118,128
1,69,0,128
1,72,118,64
1,72,0,512
1,69,118,1024
1,69,0,128
1,86,118,64
1,86,0,168
1,81,118,88
1,81,0,168
1,81,118,88
1,81,0,168
1,86,118,2008
1,86,0,384
1,84,118,0
1,84,0,512
1,74,118,6400
1,74,0,2048
1,76,118,256
1,76,0,256
1,74,118,128
1,74,0,128
1,74,118,64
1,74,0,320
1,72,118,64
1,72,0,1088
1,74,118,1792
1,74,0,2048
1,76,118,256
1,76,0,256
1,74,118,128
1,74,0,128
1,74,118,64
1,74,0,320
1,72,118,64
1,72,0,1088
1,74,103,1792
1,74,0,2048
1,76,81,256
1,76,0,256
1,74,77,128
1,74,0,128
1,74,76,64
1,74,0,320
1,72,71,64
1,72,0,1088
1,74,44,1792
1,74,0,2048
1,76,22,256
1,76,0,256
1,74,18,128
1,74,0,128
1,74,17,64
1,74,0,320
1,72,12,64
1,72,0,1088
2,71,127,0
2,67,127,0
2,67,0,256
2,71,0,0
2,55,127,320
2,60,127,0
2,55,0,704
2,60,0,64
2,57,127,384
2,57,0,128
2,55,127,64
2,60,127,0
2,60,0,128
2,55,0,0
2,59,127,64
2,59,0,128
2,62,127,64
2,57,127,0
2,57,0,128
2,62,0,0
2,60,127,64
2,55,127,0
2,55,0,384
2,60,0,0
2,71,127,192
2,67,127,0
2,67,0,256
2,71,0,0
2,55,127,320
2,60,127,0
2,55,0,704
2,60,0,64
2,57,127,384
2,57,0,128
2,55,127,64
2,60,127,0
2,60,0,128
2,55,0,0
2,57,127,64
2,57,0,128
2,62,127,64
2,57,127,0
2,57,0,512
2,62,0,0
2,71,127,256
2,67,127,0
2,76,127,0
2,76,0,256
2,67,0,0
2,71,0,0
2,55,127,320
2,60,127,0
2,55,0,704
2,60,0,64
2,57,127,384
2,57,0,128
2,55,127,64
2,60,127,0
2,60,0,128
2,55,0,0
2,57,127,64
2,57,0,128
2,62,127,64
2,57,127,0
2,57,0,128
2,62,0,0
2,60,127,64
2,55,127,0
2,55,0,384
2,60,0,0
2,71,127,192
2,67,127,0
2,76,127,0
2,76,0,256
2,67,0,0
2,71,0,0
2,55,127,320
2,60,127,0
2,55,0,704
2,60,0,64
2,57,127,384
2,57,0,128
2,55,127,64
2,60,127,0
2,60,0,128
2,55,0,0
2,57,127,64
2,57,0,128
2,57,127,64
2,62,127,0
2,62,0,1796
2,57,0,0
2,57,127,508
2,64,127,0
2,69,127,0
2,69,0,128
2,64,0,0
2,57,0,0
2,67,127,64
2,67,0,128
2,67,127,64
2,67,0,128
2,67,127,64
2,67,0,128
2,57,127,64
2,64,127,0
2,64,0,128
2,57,0,0
2,60,127,64
2,60,0,128
2,57,127,256
2,62,127,0
2,62,0,320
2,57,0,0
2,60,127,64
2,60,0,128
2,62,127,64
2,62,0,128
2,60,127,64
2,60,0,128
2,57,127,64
2,64,127,0
2,64,0,512
2,57,0,0
2,52,127,256
2,52,0,256
2,57,127,128
2,57,0,256
2,55,127,128
2,55,0,256
2,50,127,128
2,50,0,256
2,57,127,320
2,52,127,0
2,52,0,128
2,57,0,0
2,57,127,64
2,52,127,0
2,52,0,128
2,57,0,0
2,55,127,64
2,50,127,0
2,50,0,128
2,55,0,0
2,52,127,64
2,57,127,0
2,57,0,128
2,52,0,0
2,57,127,64
2,52,127,0
2,52,0,128
2,57,0,0
2,57,127,64
2,52,127,0
2,52,0,128
2,57,0,0
2,55,127,64
2,50,127,0
2,50,0,128
2,55,0,0
2,52,127,64
2,57,127,0
2,57,0,128
2,52,0,0
2,57,127,64
2,57,0,128
2,57,127,64
2,57,0,128
2,60,127,64
2,60,0,256
2,62,127,128
2,62,0,128
2,62,127,64
2,62,0,128
2,64,127,64
2,57,127,0
2,57,0,320
2,67,127,64
2,67,0,320
2,69,127,64
2,64,127,0
2,57,127,0
2,64,0,768
2,69,0,128
2,64,0,0
2,57,0,0
2,53,127,64
2,53,0,256
2,60,127,128
2,60,0,256
2,59,127,128
2,59,0,256
2,55,127,128
2,55,0,256
2,57,127,128
2,52,127,0
2,52,0,128
2,57,0,0
2,57,127,64
2,52,127,0
2,52,0,128
2,57,0,0
2,52,127,64
2,57,127,0
2,57,0,128
2,52,0,0
2,55,127,64
2,50,127,0
2,50,0,128
2,55,0,0
2,57,127,64
2,52,127,0
2,52,0,128
2,57,0,0
2,57,127,64
2,52,127,0
2,52,0,128
2,57,0,0
2,52,127,64
2,57,127,0
2,57,0,128
2,52,0,0
2,67,127,64
2,67,0,128
2,57,127,64
2,64,127,0
2,69,127,0
2,69,0,128
2,64,0,0
2,57,0,0
2,67,127,64
2,67,0,128
2,67,127,64
2,67,0,128
2,67,127,64
2,67,0,128
2,57,127,64
2,64,127,0
2,64,0,128
2,57,0,0
2,62,127,64
2,62,0,128
2,60,127,64
2,60,0,256
2,64,127,128
2,57,127,0
2,57,0,128
2,64,0,0
2,60,127,64
2,60,0,128
2,62,127,64
2,62,0,128
2,60,127,64
2,60,0,128
2,64,127,64
2,57,127,0
2,57,0,512
2,64,0,0
2,52,127,256
2,52,0,256
2,57,127,128
2,57,0,256
2,55,127,128
2,55,0,256
2,50,127,128
2,50,0,256
2,57,127,320
2,52,127,0
2,52,0,128
2,57,0,0
2,57,127,64
2,52,127,0
2,52,0,128
2,57,0,0
2,55,127,64
2,50,127,0
2,50,0,128
2,55,0,0
2,52,127,64
2,57,127,0
2,57,0,128
2,52,0,0
2,57,127,64
2,52,127,0
2,52,0,128
2,57,0,0
2,57,127,64
2,52,127,0
2,52,0,128
2,57,0,0
2,72,127,64
2,72,0,128
2,64,127,64
2,72,127,0
2,69,127,0
2,69,0,128
2,72,0,0
2,64,0,0
2,69,127,64
2,69,0,128
2,72,127,64
2,72,0,128
2,72,127,64
2,72,0,128
2,57,127,64
2,64,127,0
2,69,127,0
2,69,0,256
2,64,0,0
2,57,0,0
2,67,127,128
2,67,0,128
2,64,127,64
2,64,0,128
2,69,127,64
2,64,127,0
2,57,127,0
2,69,0,256
2,67,127,128
2,57,0,128
2,64,0,0
2,67,0,128
2,64,127,128
2,57,127,0
2,64,0,64
2,62,127,32
2,62,0,64
2,60,127,32
2,57,0,320
2,60,0,64
2,65,127,192
2,65,0,256
2,72,127,128
2,72,0,256
2,71,127,128
2,71,0,256
2,67,127,128
2,67,0,256
2,57,127,128
2,64,127,0
2,69,127,0
2,69,0,128
2,64,0,0
2,57,0,0
2,57,127,64
2,64,127,0
2,69,127,0
2,69,0,128
2,64,0,0
2,57,0,0
2,57,127,64
2,64,127,0
2,69,127,0
2,69,0,128
2,64,0,0
2,57,0,0
2,57,127,64
2,64,127,0
2,69,127,0
2,69,0,128
2,64,0,0
2,57,0,0
2,57,127,64
2,64,127,0
2,69,127,0
2,69,0,128
2,64,0,0
2,57,0,0
2,65,127,640
2,69,127,0
2,74,127,0
2,74,0,256
2,69,0,0
2,65,0,0
2,72,127,128
2,72,0,128
2,65,127,64
2,69,127,0
2,74,127,0
2,74,0,256
2,69,0,0
2,65,0,0
2,62,127,128
2,57,127,192
2,57,0,128
2,62,127,64
2,62,0,128
2,62,0,0
2,65,127,64
2,65,0,128
2,72,127,64
2,72,0,128
2,65,127,64
2,69,127,0
2,74,127,0
2,74,0,256
2,69,0,0
2,65,0,0
2,65,127,128
2,69,127,0
2,74,127,0
2,74,0,256
2,69,0,0
2,65,0,0
2,74,127,128
2,74,0,128
2,69,127,64
2,64,127,0
2,74,127,0
2,69,0,128
2,67,127,64
2,74,0,128
2,72,127,64
2,67,0,320
2,64,0,0
2,72,0,64
2,64,127,192
2,60,127,192
2,60,0,128
2,57,127,64
2,57,0,128
2,60,127,64
2,60,0,128
2,60,127,256
2,60,0,128
2,57,127,64
2,57,0,128
2,60,127,64
2,60,0,128
2,64,127,64
2,64,0,4
2,60,127,188
2,60,0,128
2,57,127,64
2,57,0,128
2,64,127,64
2,64,0,128
2,64,0,0
2,65,127,64
2,69,127,0
2,74,127,0
2,74,0,256
2,69,0,0
2,65,0,0
2,72,127,128
2,72,0,128
2,65,127,64
2,69,127,0
2,74,127,0
2,74,0,256
2,69,0,0
2,65,0,0
2,62,127,128
2,57,127,192
2,57,0,128
2,62,127,64
2,62,0,128
2,62,0,0
2,65,127,64
2,65,0,128
2,72,127,64
2,72,0,128
2,65,127,64
2,69,127,0
2,74,127,0
2,74,0,256
2,69,0,0
2,65,0,0
2,65,127,128
2,69,127,0
2,74,127,0
2,74,0,256
2,69,0,0
2,65,0,0
2,74,127,128
2,74,0,128
2,69,127,64
2,64,127,0
2,74,127,0
2,69,0,128
2,67,127,64
2,74,0,128
2,72,127,64
2,67,0,320
2,64,0,0
2,72,0,64
2,64,127,192
2,64,0,128
2,60,127,64
2,60,0,128
2,57,127,64
2,57,0,128
2,60,127,64
2,60,0,128
2,64,127,64
2,64,0,128
2,57,127,64
2,57,0,128
2,60,127,64
2,60,0,128
2,64,127,64
2,64,0,128
2,60,127,64
2,60,0,128
2,57,127,64
2,57,0,128
2,60,127,64
2,60,0,128
2,64,127,64
2,64,0,128
2,72,127,64
2,69,127,0
2,77,127,0
2,77,0,256
2,69,0,0
2,72,0,0
2,65,127,512
2,65,0,128
2,60,127,64
2,60,0,128
2,57,127,64
2,57,0,128
2,60,127,64
2,60,0,128
2,65,127,64
2,65,0,128
2,60,127,64
2,60,0,128
2,57,127,64
2,57,0,128
2,65,127,64
2,65,0,128
2,72,127,64
2,67,127,0
2,64,127,0
2,64,0,128
2,67,0,0
2,72,0,0
2,72,127,64
2,72,0,128
2,72,127,64
2,67,127,0
2,64,127,0
2,64,0,256
2,67,0,0
2,72,0,0
2,65,127,128
2,69,127,0
2,76,127,0
2,76,0,384
2,69,0,0
2,65,0,0
2,74,127,192
2,65,127,0
2,69,127,0
2,69,0,256
2,65,0,0
2,74,0,0
2,65,127,128
2,74,127,0
2,69,127,0
2,69,0,384
2,74,0,0
2,65,0,0
2,65,127,192
2,65,0,128
2,62,127,64
2,62,0,128
2,57,127,64
2,57,0,128
2,65,127,64
2,65,0,128
2,64,127,64
2,72,127,0
2,67,127,0
2,67,0,168
2,72,0,0
2,64,0,0
2,72,127,88
2,64,127,0
2,67,127,0
2,67,0,168
2,64,0,0
2,72,0,0
2,64,127,88
2,72,127,0
2,67,127,0
2,67,0,168
