track,note,velocity,time
0,39,93,63
0,73,106,0
0,39,92,1
0,61,87,2
0,73,82,0
0,61,105,2
0,73,69,0
0,67,69,90
0,73,0,0
0,61,0,2
0,55,97,1
0,73,0,0
0,67,78,2
0,73,0,0
0,67,97,2
0,67,0,88
0,55,0,3
0,70,69,1
0,58,101,1
0,67,0,0
0,67,0,0
0,70,82,1
0,70,106,0
0,70,0,92
0,58,0,1
0,70,0,0
0,73,84,0
0,73,71,0
0,61,105,1
0,70,0,0
0,73,103,1
0,61,0,92
0,73,0,0
0,65,102,1
0,73,0,0
0,77,82,0
0,77,70,1
0,73,0,1
0,77,101,1
0,65,0,92
0,77,0,0
0,77,0,0
0,63,100,1
0,75,103,0
0,77,0,0
0,75,80,4
0,75,68,0
0,63,0,91
0,75,0,0
0,75,0,3
0,65,78,1
0,65,99,0
0,75,0,0
0,53,102,2
0,65,70,1
0,65,0,89
0,67,96,1
0,65,0,1
0,67,78,1
0,53,0,2
0,67,68,0
0,65,0,1
0,55,97,1
0,67,0,88
0,39,0,1
0,60,85,0
0,67,0,0
0,68,79,0
0,68,74,0
0,39,0,1
0,61,0,0
0,55,0,1
0,44,89,1
0,56,99,0
0,44,87,1
0,67,0,0
0,68,99,1
0,68,0,137
0,77,67,242
0,41,120,2
0,68,0,36
0,56,0,3
0,68,0,2
0,77,0,52
0,75,63,12
0,41,0,1
0,40,87,3
0,65,103,0
0,39,119,1
0,40,0,3
0,65,0,0
0,75,0,159
0,60,0,2
0,44,0,3
0,44,0,1
0,39,0,18
0,35,107,5
0,42,81,0
0,56,91,0
0,56,96,0
0,64,116,0
0,32,119,2
0,68,61,0
0,60,91,1
0,35,0,1
0,42,0,0
0,56,0,0
0,64,0,0
0,63,92,5
0,56,0,43
0,63,0,10
0,60,0,5
0,68,0,92
0,35,107,33
0,42,80,0
0,56,93,0
0,56,95,0
0,62,116,0
0,72,59,2
0,75,58,0
0,80,59,1
0,35,0,1
0,42,0,0
0,56,0,0
0,60,92,0
0,62,0,0
0,63,89,4
0,80,0,48
0,75,0,2
0,60,0,7
0,72,0,0
0,63,0,1
0,56,0,2
0,75,57,26
0,80,59,2
0,72,57,3
0,75,0,49
0,80,0,2
0,72,0,9
0,32,0,22
0,41,122,8
0,35,109,3
0,42,80,0
0,56,91,0
0,56,92,0
0,62,127,0
0,60,89,3
0,35,0,1
0,42,0,0
0,56,0,0
0,62,0,0
0,63,86,4
0,56,0,11
0,60,0,3
0,63,0,0
0,72,51,10
0,63,87,2
0,62,92,1
0,60,89,2
0,62,0,2
0,56,89,3
0,72,0,11
0,63,0,20
0,60,0,9
0,56,0,5
0,41,0,40
0,80,58,0
0,72,65,2
0,75,63,0
0,39,121,1
0,35,104,1
0,42,82,0
0,56,93,0
0,56,93,0
0,63,124,0
0,60,94,3
0,35,0,1
0,42,0,0
0,56,0,0
0,63,0,0
0,63,92,3
0,56,0,41
0,80,0,1
0,75,0,3
0,63,0,9
0,60,0,2
0,72,0,0
0,75,61,30
0,80,59,0
0,63,83,3
0,72,58,1
0,63,0,3
0,80,0,37
0,75,0,6
0,72,0,9
0,39,0,33
0,35,107,7
0,42,81,0
0,56,89,0
0,56,94,0
0,64,117,0
0,32,123,2
0,60,96,1
0,35,0,1
0,42,0,0
0,56,0,0
0,64,0,0
0,63,92,5
0,56,0,43
0,63,0,10
0,60,0,5
0,35,104,125
0,42,79,0
0,56,93,0
0,56,94,0
0,62,115,0
0,72,56,0
0,75,54,2
0,80,55,0
0,35,0,2
0,42,0,0
0,56,0,0
0,60,91,0
0,62,0,0
0,63,88,4
0,80,0,47
0,75,0,3
0,72,0,5
0,60,0,2
0,63,0,1
0,56,0,2
0,72,62,29
0,75,56,0
0,80,62,0
0,75,0,54
0,80,0,0
0,72,0,6
0,32,0,24
0,41,121,2
0,35,110,1
0,42,79,0
0,56,90,0
0,56,97,0
0,62,127,0
0,60,94,3
0,35,0,1
0,42,0,0
0,56,0,0
0,62,0,0
0,63,89,4
0,56,0,11
0,60,0,3
0,63,0,0
0,72,54,11
0,63,90,1
0,62,93,1
0,60,93,2
0,62,0,2
0,56,90,3
0,72,0,12
0,63,0,19
0,60,0,9
0,56,0,5
0,41,0,42
0,80,62,1
0,35,108,1
0,39,122,0
0,42,83,0
0,56,88,0
0,56,95,0
0,63,127,0
0,75,60,1
0,60,93,2
0,72,60,0
0,35,0,1
0,42,0,0
0,56,0,0
0,63,0,0
0,63,89,3
0,56,0,41
0,80,0,4
0,75,0,3
0,63,0,6
0,60,0,2
0,72,0,5
0,72,60,24
0,63,84,4
0,75,57,0
0,80,58,2
0,63,0,2
0,80,0,42
0,75,0,4
0,72,0,1
0,39,0,39
0,32,123,3
0,60,96,1
0,60,84,1
0,35,111,1
0,42,78,0
0,56,92,0
0,56,96,0
0,64,118,0
0,48,89,2
0,60,92,1
0,35,0,1
0,42,0,0
0,56,0,0
0,64,0,0
0,63,90,5
0,56,0,43
0,63,0,10
0,60,0,5
0,32,0,121
0,72,58,0
0,80,57,0
0,77,49,1
0,36,120,1
0,35,106,2
0,42,79,0
0,56,93,0
0,56,94,0
0,62,111,0
0,75,57,3
0,35,0,1
0,42,0,0
0,56,0,0
0,60,89,0
0,62,0,0
0,63,87,4
0,80,0,41
0,77,0,1
0,72,0,9
0,75,0,0
0,60,0,6
0,63,0,1
0,56,0,2
0,60,0,24
0,48,0,1
0,56,84,0
0,72,59,0
0,75,56,0
0,44,87,1
0,80,62,0
0,77,50,3
0,75,0,50
0,80,0,1
0,77,0,2
0,72,0,3
0,56,0,35
0,36,0,1
0,44,0,0
0,60,0,0
0,39,119,1
0,63,85,1
0,35,108,1
0,42,82,0
0,56,89,0
0,56,96,0
0,62,127,0
0,63,90,2
0,51,87,1
0,60,90,0
0,35,0,1
0,42,0,0
0,56,0,0
0,62,0,0
0,63,87,4
0,56,0,41
0,60,0,3
0,63,0,0
0,63,90,43
0,62,95,1
0,60,90,2
0,72,53,1
0,62,0,1
0,56,90,3
0,72,0,17
0,63,0,14
0,60,0,9
0,56,0,5
0,39,0,41
0,75,63,0
0,77,49,1
0,72,62,1
0,35,106,1
0,42,80,0
0,56,91,0
0,56,90,0
0,63,126,0
0,80,59,0
0,36,116,3
0,60,94,0
0,35,0,1
0,42,0,0
0,56,0,0
0,63,0,0
0,63,88,3
0,56,0,41
0,75,0,3
0,77,0,0
0,80,0,2
0,63,0,8
0,60,0,2
0,72,0,1
0,77,47,28
0,63,0,2
0,75,59,0
0,72,59,1
0,63,82,1
0,51,0,1
0,60,87,0
0,48,87,1
0,80,61,0
0,63,0,2
0,80,0,42
0,75,0,2
0,77,0,1
0,72,0,5
0,63,0,38
0,68,94,1
0,35,111,3
0,36,0,0
0,42,80,0
0,56,93,0
0,56,92,0
0,60,0,0
0,64,117,0
0,32,122,1
0,48,0,0
0,56,87,2
0,60,91,0
0,68,85,0
0,35,0,1
0,42,0,0
0,56,0,0
0,64,0,0
0,63,94,5
0,56,0,43
0,63,0,10
0,60,0,5
0,75,58,122
0,80,56,0
0,68,0,1
0,77,47,0
0,67,86,1
0,32,0,1
0,35,109,0
0,42,83,0
0,56,0,0
0,56,91,0
0,56,95,0
0,62,112,0
0,72,60,0
0,55,88,1
0,36,121,2
0,35,0,1
0,42,0,0
0,56,0,0
0,60,93,0
0,62,0,0
0,63,86,4
0,80,0,42
0,77,0,1
0,75,0,2
0,72,0,10
0,60,0,2
0,63,0,1
0,56,0,2
0,77,50,24
0,72,57,1
0,75,61,4
0,80,57,2
0,77,0,46
0,75,0,6
0,72,0,2
0,80,0,0
0,67,0,34
0,36,0,1
0,65,83,0
0,68,0,0
0,39,123,1
0,55,0,0
0,65,91,0
0,53,87,1
0,35,110,2
0,42,81,0
0,56,89,0
0,56,92,0
0,62,127,0
0,60,91,3
0,35,0,1
0,42,0,0
0,56,0,0
0,62,0,0
0,63,90,4
0,56,0,41
0,60,0,3
0,63,0,0
0,65,0,39
0,53,0,2
0,63,86,1
0,72,55,0
0,51,87,1
0,63,89,0
0,62,95,1
0,60,91,2
0,62,0,2
0,56,89,3
0,72,0,12
0,63,0,19
0,60,0,9
0,56,0,5
0,39,0,40
0,51,0,1
0,63,0,0
0,72,65,0
0,48,86,1
0,60,85,0
0,80,62,0
0,77,49,1
0,35,106,1
0,42,80,0
0,56,93,0
0,56,93,0
0,63,127,0
0,75,61,0
0,36,117,2
0,60,90,1
0,35,0,1
0,42,0,0
0,56,0,0
0,63,0,0
0,63,90,3
0,56,0,41
0,80,0,3
0,77,0,1
0,75,0,2
0,63,0,7
0,72,0,1
0,60,0,1
0,60,0,28
0,56,88,1
0,72,61,0
0,48,0,1
0,77,48,0
0,44,88,1
0,63,83,2
0,80,61,2
0,75,59,1
0,63,0,1
0,80,0,42
0,77,0,4
0,72,0,1
0,75,0,2
0,56,0,38
0,36,0,1
0,65,0,0
0,39,119,1
0,44,0,0
0,61,96,0
0,35,107,3
0,42,83,0
0,49,89,0
0,55,90,0
0,56,91,0
0,64,115,0
0,61,86,1
0,58,96,2
0,35,0,1
0,42,0,0
0,56,0,0
0,64,0,0
0,63,92,5
0,55,0,43
0,63,0,10
0,58,0,5
0,39,0,121
0,73,57,0
0,75,51,1
0,70,58,1
0,43,120,1
0,35,106,1
0,42,79,0
0,55,90,0
0,56,92,0
0,62,113,0
0,79,55,1
0,35,0,3
0,42,0,0
0,56,0,0
0,58,89,0
0,62,0,0
0,63,88,4
0,75,0,42
0,73,0,2
0,79,0,2
0,70,0,7
0,58,0,4
0,63,0,1
0,55,0,2
0,70,57,25
0,49,0,2
0,61,0,1
0,79,61,0
0,43,87,1
0,55,88,0
0,75,47,0
0,73,59,1
0,75,0,52
0,79,0,0
0,73,0,2
0,70,0,1
0,61,0,35
0,43,0,1
0,55,0,0
0,63,95,0
0,43,0,1
0,46,120,0
0,63,86,0
0,51,89,1
0,35,111,1
0,42,81,0
0,55,90,0
0,56,93,0
0,62,127,0
0,58,91,3
0,35,0,1
0,42,0,0
0,56,0,0
0,62,0,0
0,63,90,4
0,55,0,41
0,58,0,3
0,63,0,0
0,63,86,43
0,62,95,1
0,58,93,2
0,62,0,2
0,55,91,3
0,63,0,31
0,58,0,9
0,55,0,5
0,75,49,40
0,46,0,1
0,73,60,1
0,43,116,1
0,79,58,0
0,35,107,1
0,42,81,0
0,55,89,0
0,56,92,0
0,63,127,0
0,58,92,3
0,70,63,0
0,35,0,1
0,42,0,0
0,56,0,0
0,63,0,0
0,63,93,3
0,55,0,41
0,75,0,1
0,73,0,3
0,79,0,0
0,63,0,9
0,58,0,2
0,70,0,5
0,51,0,25
0,63,0,0
0,79,57,0
0,43,88,1
0,73,61,0
0,55,85,2
0,63,82,0
0,75,50,0
0,70,59,3
0,63,0,1
0,79,0,37
0,73,0,7
0,75,0,5
0,70,0,5
0,43,0,34
0,63,0,0
0,39,118,1
0,43,0,0
0,55,0,1
0,67,85,1
0,35,111,1
0,42,80,0
0,55,89,0
0,55,91,0
0,56,94,0
0,64,117,0
0,67,91,2
0,58,94,1
0,35,0,1
0,42,0,0
0,56,0,0
0,64,0,0
0,63,89,5
0,55,0,43
0,63,0,10
0,58,0,5
0,39,0,121
0,55,0,1
0,73,55,0
0,75,49,0
0,53,85,1
0,67,0,0
0,35,109,2
0,42,80,0
0,55,90,0
0,56,96,0
0,62,111,0
0,43,117,1
0,65,87,1
0,79,57,0
0,70,57,1
0,35,0,1
0,42,0,0
0,56,0,0
0,58,95,0
0,62,0,0
0,63,89,4
0,75,0,42
0,73,0,3
0,79,0,2
0,58,0,10
0,63,0,1
0,70,0,0
0,55,0,2
0,73,56,25
0,79,58,1
0,75,46,1
0,70,60,4
0,73,0,48
0,75,0,1
0,79,0,0
0,70,0,11
0,67,0,28
0,63,90,1
0,53,0,1
0,35,110,3
0,42,78,0
0,43,0,0
0,55,90,0
0,56,93,0
0,62,127,0
0,46,123,1
0,65,0,0
0,51,86,1
0,58,91,1
0,63,86,0
0,35,0,1
0,42,0,0
0,56,0,0
0,62,0,0
0,63,89,4
0,55,0,41
0,58,0,3
0,63,0,0
0,63,0,39
0,61,88,1
0,63,88,3
0,62,95,1
0,51,0,1
0,49,87,1
0,58,91,0
0,62,0,2
0,55,87,3
0,63,0,31
0,58,0,9
0,55,0,5
0,61,0,39
0,49,0,1
0,53,85,0
0,41,86,1
0,75,51,1
0,35,109,2
0,42,83,0
0,46,0,0
0,55,91,0
0,56,92,0
0,63,124,0
0,70,64,0
0,79,62,0
0,43,116,2
0,58,94,1
0,73,62,0
0,35,0,1
0,42,0,0
0,56,0,0
0,63,0,0
0,63,88,3
0,55,0,41
0,75,0,3
0,79,0,2
0,73,0,4
0,63,0,4
0,58,0,2
0,70,0,2
0,53,0,26
0,63,0,0
0,41,0,1
0,43,87,1
0,75,49,0
0,55,87,1
0,73,61,0
0,79,57,0
0,55,97,2
0,63,83,0
0,70,56,1
0,63,0,3
0,79,0,38
0,73,0,6
0,75,0,2
0,70,0,6
0,43,0,36
0,43,0,1
0,48,88,0
0,55,0,0
0,55,0,0
0,32,119,1
0,60,95,0
0,35,108,2
0,42,81,0
0,56,91,0
0,56,95,0
0,64,117,0
0,60,88,3
0,60,93,0
0,35,0,1
0,42,0,0
0,56,0,0
0,64,0,0
0,63,94,5
0,56,0,43
0,63,0,10
0,60,0,5
0,32,0,122
0,72,58,0
0,80,57,2
0,35,109,1
0,36,118,0
0,42,81,0
0,56,95,0
0,56,93,0
0,62,114,0
0,75,56,0
0,77,49,0
0,35,0,4
0,42,0,0
0,56,0,0
0,60,91,0
0,62,0,0
0,63,88,4
0,80,0,44
0,77,0,1
0,75,0,3
0,72,0,4
0,60,0,5
0,63,0,1
0,56,0,2
0,60,0,23
0,48,0,1
0,56,89,0
0,75,56,0
0,80,58,1
0,44,90,2
0,72,61,0
0,77,50,3
0,75,0,48
0,80,0,1
0,77,0,4
0,72,0,4
0,56,0,32
0,60,0,1
0,63,84,0
0,44,0,1
0,63,93,0
0,51,90,1
0,36,0,1
0,35,109,1
0,42,83,0
0,56,92,0
0,56,97,0
0,62,127,0
0,39,120,1
0,60,93,2
0,35,0,1
0,42,0,0
0,56,0,0
0,62,0,0
0,63,90,4
0,56,0,41
0,60,0,3
0,63,0,0
0,63,90,43
0,62,93,1
0,60,89,2
0,72,53,0
0,62,0,2
0,56,89,3
0,72,0,16
0,63,0,15
0,60,0,9
0,56,0,5
0,72,62,41
0,75,63,0
0,77,48,1
0,39,0,1
0,80,62,0
0,35,107,1
0,36,117,0
0,42,83,0
0,56,89,0
0,56,94,0
0,63,124,0
0,60,90,3
0,35,0,1
0,42,0,0
0,56,0,0
0,63,0,0
0,63,87,3
0,56,0,41
0,75,0,3
0,77,0,0
0,80,0,1
0,63,0,9
0,72,0,1
0,60,0,1
0,51,0,28
0,63,0,0
0,48,91,1
0,72,58,3
0,63,87,1
0,80,58,0
0,75,60,1
0,77,47,0
0,60,87,2
0,63,0,1
0,80,0,40
0,75,0,7
0,72,0,3
0,77,0,0
0,48,0,37
0,63,0,0
0,68,95,1
0,36,0,2
0,60,0,0
0,32,119,1
0,68,87,0
0,35,111,1
0,42,78,0
0,56,92,0
0,56,95,0
0,64,114,0
0,56,89,2
0,60,92,1
0,35,0,1
0,42,0,0
0,56,0,0
0,64,0,0
0,63,91,5
0,56,0,43
0,63,0,10
0,60,0,5
0,32,0,121
0,36,122,1
0,68,0,1
0,56,0,1
0,75,55,0
0,35,108,1
0,42,82,0
0,55,90,0
0,56,93,0
0,56,95,0
0,62,112,0
0,77,51,0
0,80,57,0
0,72,55,1
0,67,83,1
0,35,0,2
0,42,0,0
0,56,0,0
0,60,93,0
0,62,0,0
0,63,91,4
0,77,0,45
0,80,0,0
0,75,0,2
0,72,0,9
0,60,0,1
0,63,0,1
0,56,0,2
0,80,62,24
0,77,46,3
0,75,58,1
0,72,60,2
0,80,0,48
0,77,0,2
