track,note,velocity,time
0,77,79,671
0,60,111,5
0,69,126,2
0,69,0,60
0,77,0,4
0,70,111,2
0,79,87,1
0,60,0,1
0,62,116,1
0,70,0,92
0,62,0,25
0,79,0,0
0,64,117,1
0,80,91,1
0,71,125,1
0,71,0,62
0,64,0,5
0,65,117,1
0,72,122,1
0,80,0,0
0,81,95,1
0,69,86,2
0,42,90,1
0,72,86,0
0,41,109,2
0,65,84,0
0,42,0,2
0,72,0,98
0,69,0,75
0,72,0,1
0,42,66,1
0,72,127,0
0,65,0,1
0,65,84,0
0,69,86,0
0,72,84,0
0,42,0,3
0,81,0,1
0,72,0,1
0,65,0,5
0,65,74,0
0,46,46,2
0,46,0,4
0,65,0,6
0,65,0,2
0,46,51,1
0,64,80,0
0,69,0,0
0,72,0,1
0,72,84,0
0,81,91,0
0,41,0,1
0,48,106,1
0,64,112,0
0,69,78,0
0,46,0,1
0,72,115,0
0,81,0,65
0,80,83,1
0,64,0,1
0,64,68,4
0,72,0,30
0,72,0,33
0,69,0,1
0,80,0,2
0,69,82,2
0,69,122,0
0,44,104,1
0,64,0,2
0,81,95,0
0,44,0,2
0,64,80,2
0,72,84,0
0,48,0,55
0,45,108,2
0,69,0,28
0,46,44,9
0,81,0,1
0,67,119,1
0,86,67,0
0,45,0,1
0,46,0,0
0,43,105,1
0,64,0,0
0,64,82,0
0,69,0,1
0,63,80,3
0,43,0,1
0,46,47,1
0,72,0,1
0,64,0,1
0,69,78,0
0,45,110,1
0,63,114,0
0,46,0,1
0,64,0,0
0,72,78,2
0,67,0,13
0,63,0,0
0,63,66,2
0,65,123,4
0,69,0,66
0,63,0,1
0,69,82,2
0,72,0,0
0,72,84,0
0,86,0,2
0,44,107,2
0,63,82,1
0,84,83,0
0,44,0,3
0,45,0,65
0,45,109,1
0,63,0,44
0,63,78,0
0,46,42,1
0,84,0,3
0,46,0,1
0,81,91,0
0,45,0,5
0,43,105,1
0,65,0,4
0,69,0,41
0,43,0,1
0,63,0,1
0,69,127,0
0,41,108,1
0,46,47,0
0,72,0,0
0,81,0,0
0,69,74,1
0,79,87,0
0,63,76,1
0,72,82,0
0,46,0,2
0,69,0,67
0,69,123,48
0,63,0,1
0,63,76,0
0,79,0,0
0,77,95,6
0,69,0,50
0,69,0,9
0,72,0,4
0,63,0,2
0,69,84,0
0,44,114,1
0,67,123,2
0,72,86,0
0,44,0,2
0,63,80,0
0,77,0,0
0,75,91,1
0,67,0,74
0,67,127,39
0,69,0,0
0,69,70,2
0,75,0,0
0,70,79,1
0,72,0,0
0,46,36,1
0,63,0,1
0,63,0,0
0,72,82,0
0,63,76,2
0,46,0,1
0,67,0,42
0,70,0,22
0,41,0,1
0,69,0,0
0,70,70,0
0,74,79,0
0,65,80,1
0,62,109,2
0,72,0,0
0,46,52,1
0,65,127,0
0,46,109,1
0,63,0,0
0,46,0,3
0,62,78,0
0,65,0,182
0,62,0,3
0,70,0,2
0,44,105,1
0,46,0,0
0,62,80,0
0,65,82,2
0,48,107,1
0,44,0,1
0,70,81,0
0,65,0,10
0,70,0,4
0,70,64,3
0,65,0,1
0,62,0,2
0,65,64,0
0,62,62,3
0,62,0,15
0,62,66,3
0,65,0,0
0,70,0,2
0,65,65,1
0,70,66,2
0,70,0,17
0,65,0,2
0,70,62,1
0,62,0,2
0,65,60,0
0,62,62,3
0,62,0,2
0,65,0,2
0,62,65,1
0,65,66,2
0,70,0,0
0,70,66,3
0,70,0,1
0,46,45,2
0,65,0,0
0,70,57,1
0,62,0,1
0,65,59,1
0,46,0,1
0,62,58,1
0,62,0,2
0,65,0,2
0,62,64,1
0,65,63,2
0,70,0,0
0,70,64,3
0,74,0,3
0,70,0,2
0,65,0,2
0,62,0,2
0,70,56,0
0,65,57,2
0,62,55,2
0,62,0,9
0,82,67,3
0,48,0,1
0,62,0,0
0,62,111,0
0,46,105,1
0,65,0,0
0,46,51,1
0,70,0,0
0,62,78,1
0,77,127,1
0,46,0,1
0,65,76,0
0,70,78,0
0,62,0,92
0,62,66,4
0,65,0,67
0,70,0,1
0,62,0,1
0,62,80,0
0,46,0,1
0,45,110,1
0,65,80,0
0,44,108,1
0,70,78,0
0,44,0,4
0,77,0,4
0,82,0,6
0,74,123,5
0,62,0,3
0,62,78,1
0,62,0,0
0,45,0,1
0,46,45,1
0,59,112,1
0,77,75,0
0,43,107,1
0,65,0,0
0,70,0,0
0,46,0,1
0,65,78,2
0,70,80,0
0,62,0,63
0,43,0,1
0,44,105,1
0,46,47,0
0,71,82,2
0,46,0,2
0,65,0,1
0,65,52,0
0,62,70,1
0,70,0,0
0,77,0,2
0,59,0,1
0,74,0,5
0,77,123,91
0,62,107,21
0,80,63,0
0,44,0,65
0,62,0,0
0,62,54,4
0,44,107,2
0,47,106,0
0,65,0,0
0,65,53,0
0,71,0,0
0,71,51,2
0,44,0,2
0,71,0,12
0,71,64,3
0,65,0,1
0,65,64,2
0,62,0,2
0,62,62,1
0,62,0,15
0,62,66,3
0,65,0,0
0,71,0,2
0,65,65,1
0,71,66,2
0,71,0,17
0,65,0,2
0,71,62,1
0,62,0,2
0,65,60,0
0,62,62,3
0,62,0,16
0,65,0,2
0,62,65,1
0,65,66,2
0,71,0,0
0,71,66,3
0,71,0,16
0,65,0,2
0,71,57,1
0,62,0,1
0,65,59,1
0,46,50,2
0,62,58,0
0,46,0,4
0,80,0,10
0,62,0,3
0,65,0,2
0,62,64,1
0,65,63,2
0,71,0,0
0,71,64,3
0,71,0,16
0,65,0,2
0,62,0,2
0,71,56,0
0,65,57,2
0,62,55,2
0,77,0,8
0,62,0,10
0,71,0,0
0,50,125,1
0,71,84,0
0,46,48,3
0,65,0,0
0,65,82,1
0,62,0,1
0,62,80,1
0,46,0,1
0,71,123,4
0,62,0,2
0,80,86,0
0,62,64,1
0,71,0,0
0,80,0,2
0,72,123,3
0,44,103,1
0,71,0,0
0,65,0,1
0,65,84,0
0,47,0,1
0,36,106,1
0,81,86,0
0,44,0,1
0,62,0,0
0,71,86,1
0,62,80,1
0,72,0,41
0,81,0,4
0,46,46,2
0,65,0,1
0,65,72,0
0,71,115,1
0,62,0,1
0,62,72,0
0,46,0,1
0,80,78,0
0,71,0,1
0,71,80,2
0,71,0,23
0,46,49,1
0,50,0,0
0,65,0,0
0,72,123,0
0,62,0,2
0,72,81,0
0,80,0,0
0,53,122,0
0,81,86,1
0,36,0,1
0,46,0,0
0,71,0,0
0,65,79,1
0,41,103,1
0,69,79,0
0,53,0,115
0,41,0,3
0,36,105,1
0,56,111,0
0,56,0,63
0,57,111,4
0,65,0,0
0,65,79,0
0,69,0,0
0,69,78,0
0,72,0,0
0,72,81,0
0,72,0,0
0,36,0,1
0,44,100,0
0,38,107,1
0,81,0,1
0,44,0,2
0,57,0,96
0,38,0,20
0,46,45,0
0,40,105,4
0,46,0,0
0,56,111,0
0,65,0,66
0,69,0,0
0,72,0,0
0,72,81,0
0,46,48,2
0,69,80,0
0,56,0,1
0,57,112,1
0,40,0,1
0,41,104,1
0,46,0,0
0,65,77,0
0,71,127,120
0,80,90,1
0,41,0,64
0,72,0,0
0,36,105,1
0,69,0,1
0,71,0,0
0,44,104,1
0,69,79,0
0,72,127,0
0,80,0,0
0,81,90,1
0,72,81,1
0,65,0,1
0,44,0,1
0,65,80,0
0,57,0,2
0,72,0,47
0,81,0,1
0,46,47,65
0,71,123,0
0,46,0,4
0,65,0,0
0,65,76,0
0,80,86,0
0,69,0,65
0,36,0,1
0,71,0,1
0,72,119,2
0,65,0,1
0,65,77,0
0,72,0,0
0,80,0,1
0,41,104,1
0,69,79,0
0,46,53,1
0,81,82,0
0,72,80,1
0,46,0,3
0,41,0,113
0,57,114,0
0,41,106,1
0,57,0,64
0,65,0,4
0,65,80,0
0,41,0,1
0,69,0,0
0,69,80,0
0,40,105,1
0,44,96,0
0,72,0,0
0,72,81,0
0,44,0,4
0,56,113,1
0,72,0,7
0,81,0,4
0,56,0,93
0,40,0,8
0,65,0,0
0,39,103,1
0,65,75,2
0,55,111,2
0,46,46,1
0,46,0,4
0,69,0,60
0,55,0,1
0,39,0,1
0,72,0,1
0,65,0,1
0,69,75,0
0,38,106,3
0,72,79,0
0,66,75,1
0,46,52,1
0,54,113,1
0,46,0,3
0,54,0,110
0,60,117,1
0,77,94,4
0,74,127,1
0,38,0,65
0,38,107,1
0,69,0,0
0,66,0,1
0,66,78,0
0,72,0,2
0,44,107,2
0,72,81,0
0,69,80,2
0,44,0,2
0,77,0,33
0,74,0,1
0,46,48,5
0,76,70,1
0,46,0,1
0,72,107,0
0,38,0,1
0,72,0,0
0,66,0,1
0,74,119,0
0,76,0,1
0,46,50,3
0,72,0,0
0,67,78,1
0,77,82,0
0,69,0,1
0,43,107,1
0,62,75,0
0,71,76,0
0,46,0,1
0,74,0,52
0,74,115,55
0,67,0,65
0,67,79,0
0,43,0,1
0,44,109,0
0,71,0,0
0,71,79,0
0,43,107,1
0,74,0,0
0,72,107,1
0,77,0,1
0,44,0,1
0,62,0,1
0,62,76,1
0,76,70,0
0,72,0,76
0,62,0,39
0,62,75,0
0,46,45,1
0,72,115,1
0,46,0,3
0,60,0,18
0,71,0,4
0,67,0,4
0,76,0,4
0,43,0,1
0,58,111,0
0,62,0,0
0,72,70,0
0,72,0,0
0,48,107,1
0,69,107,0
0,46,52,1
0,67,75,0
0,70,76,1
0,64,74,2
0,46,0,1
0,72,0,101
0,69,0,1
0,67,99,11
0,70,62,2
0,46,45,1
0,46,0,4
0,70,0,65
0,70,78,0
0,64,0,2
0,64,77,0
0,67,0,0
0,46,51,3
0,67,75,0
0,46,0,4
0,67,0,42
0,70,0,2
0,48,0,67
0,58,0,0
0,41,104,1
0,60,78,1
0,65,106,3
0,69,69,1
0,57,106,1
0,67,0,59
0,70,0,1
0,64,0,1
0,69,67,4
0,60,0,1
0,44,124,2
0,60,67,2
0,65,58,1
0,44,0,1
0,65,0,94
0,69,0,1
0,69,0,21
0,60,0,9
0,65,0,3
0,57,0,1
0,59,119,11
0,41,0,8
0,35,84,6
0,64,69,0
0,35,0,2
0,36,111,0
0,40,41,0
0,72,71,0
0,67,70,1
0,40,0,3
0,67,79,4
0,40,41,1
0,64,0,0
0,44,91,1
0,39,76,1
0,64,116,0
0,40,0,2
0,72,0,0
0,44,0,1
0,67,0,0
0,39,0,1
0,64,71,0
0,67,70,0
0,72,75,0
0,67,0,23
0,64,0,16
0,63,107,15
0,66,79,0
0,36,0,10
0,66,0,8
0,67,0,0
0,67,64,0
0,72,0,0
0,72,71,0
0,67,78,1
0,40,41,2
0,63,0,0
0,35,64,1
0,64,0,1
0,64,67,0
0,64,115,0
0,43,109,1
0,40,0,1
0,35,0,1
0,64,0,46
0,67,0,0
0,39,77,6
0,39,0,4
0,67,117,4
0,76,80,0
0,59,0,26
0,67,0,8
0,67,67,0
0,72,0,0
0,64,0,1
0,64,68,0
0,59,86,0
0,39,65,1
0,40,41,0
0,72,73,1
0,44,91,0
0,39,0,3
0,40,0,0
0,44,0,1
0,67,0,138
0,43,0,36
0,76,0,0
0,67,0,9
0,64,0,1
0,59,0,1
0,67,65,0
0,35,67,1
0,36,109,0
0,40,41,1
0,64,68,0
0,72,0,0
0,72,72,0
0,35,0,1
0,60,97,0
0,40,0,1
0,64,0,185
0,64,68,0
0,67,0,0
0,39,69,1
0,40,41,0
0,44,91,1
0,67,81,0
0,72,0,2
0,72,74,0
0,39,0,1
0,40,0,0
0,67,68,0
0,44,0,1
0,64,117,1
0,64,0,90
0,67,0,8
0,63,108,20
0,66,75,1
0,36,0,44
0,64,0,21
0,40,108,1
0,67,0,1
0,67,65,0
0,64,67,1
0,66,0,0
0,35,64,1
0,72,0,0
0,40,41,1
0,63,0,0
0,67,81,0
0,72,72,0
0,64,115,2
0,35,0,1
0,40,0,1
0,64,0,10
0,67,0,8
0,76,82,1
0,67,116,2
0,60,0,39
0,67,0,0
0,40,41,1
0,44,89,0
0,52,97,0
0,64,0,0
0,67,67,1
0,39,68,1
0,72,0,0
0,40,0,2
0,44,0,0
0,64,67,0
0,72,72,0
0,39,0,2
0,40,0,3
0,76,0,4
0,65,72,9
0,67,0,1
0,40,41,2
0,64,0,1
0,72,0,0
0,35,67,0
0,67,0,0
0,69,72,2
0,40,0,1
0,41,107,0
0,72,69,0
0,35,0,1
0,65,0,163
0,69,114,1
0,72,0,0
0,72,71,0
0,72,81,2
0,39,69,3
0,69,0,0
0,40,41,1
0,44,91,0
0,65,71,0
0,69,66,0
0,39,0,3
0,40,0,1
0,44,0,0
0,69,0,101
0,68,110,9
0,72,0,1
0,71,78,5
0,41,0,60
0,68,0,5
0,72,0,0
0,38,110,1
0,71,0,1
0,72,75,0
0,72,80,1
0,65,0,1
0,65,71,0
0,69,0,0
0,69,68,0
0,69,111,0
0,35,64,2
0,40,41,1
0,35,0,3
0,40,0,1
0,72,0,109
0,69,0,2
0,76,80,0
0,72,115,1
0,38,0,67
0,76,0,2
0,40,109,1
0,52,0,0
0,65,0,0
0,65,70,0
0,72,78,0
0,72,0,0
0,72,0,1
0,44,89,1
0,69,0,0
0,40,41,1
0,54,97,0
0,72,72,1
0,39,68,0
0,69,112,0
0,44,0,2
0,69,67,0
0,40,0,1
0,39,0,1
0,69,0,68
0,72,0,8
0,40,0,9
0,65,0,8
0,62,70,1
0,71,80,0
0,35,64,1
0,38,110,0
0,40,41,0
0,71,71,2
0,72,0,0
0,67,115,0
0,35,0,1
0,40,0,0
0,69,0,0
0,67,74,1
0,67,0,61
0,71,0,14
0,54,0,65
0,62,0,1
0,62,70,2
0,69,76,0
0,44,90,1
0,71,0,0
0,71,71,1
0,40,41,1
0,65,115,0
0,67,0,0
0,67,70,0
0,39,66,1
0,44,0,1
0,55,106,1
0,40,0,1
0,39,0,1
0,65,0,46
0,69,0,16
0,55,0,49
0,55,107,7
0,38,0,49
0,43,109,16
0,62,0,0
0,64,113,0
0,67,76,0
0,71,0,0
0,71,71,0
0,67,0,1
0,67,68,0
0,40,41,1
0,55,0,1
0,35,64,3
0,40,0,0
0,62,69,0
0,57,108,1
0,35,0,3
0,67,0,83
0,64,0,8
0,57,0,18
0,57,101,1
0,39,95,1
0,65,74,1
0,62,107,1
0,39,0,2
0,57,0,63
0,71,0,3
0,62,0,1
0,62,63,0
0,67,0,0
0,44,91,2
0,71,73,0
0,39,67,2
0,40,41,2
0,44,0,0
0,59,103,0
0,67,76,0
0,39,0,2
0,40,0,2
0,62,0,108
0,62,0,1
0,62,73,1
0,39,77,5
0,65,0,0
0,39,0,4
0,59,0,33
0,43,0,16
0,71,0,6
0,67,0,6
0,62,0,1
0,39,39,2
0,36,111,2
0,64,76,0
0,67,77,0
0,35,64,1
0,39,0,1
0,60,107,0
0,40,41,1
0,72,77,1
0,35,0,1
0,40,0,2
0,64,117,4
0,44,91,2
0,64,0,0
0,67,81,0
0,67,0,0
0,40,41,1
0,72,0,1
0,72,74,0
0,39,73,1
0,44,0,1
0,64,71,0
0,40,0,1
0,67,70,0
0,39,0,2
0,64,0,22
0,67,0,4
0,66,81,1
0,63,115,6
0,36,0,5
0,66,0,12
0,35,64,2
0,63,0,0
0,43,110,1
0,64,116,0
0,67,0,0
0,67,69,0
0,72,0,0
0,40,41,1
0,72,73,0
0,64,0,1
0,35,0,1
0,64,68,0
0,67,76,1
0,40,0,1
0,67,0,52
0,64,0,4
0,67,118,3
0,76,81,2
0,60,0,28
0,39,70,38
0,64,0,1
0,64,70,0
0,67,0,0
0,67,71,1
0,72,0,0
0,72,76,0
0,59,97,0
0,39,0,1
0,40,41,0
0,44,91,0
0,40,0,4
0,44,0,0
0,67,0,7
0,43,0,7
0,64,0,10
0,67,0,1
0,72,0,0
0,36,110,1
0,40,41,1
0,72,76,0
0,35,67,1
0,67,67,0
0,64,70,1
0,40,0,2
0,35,0,1
0,76,0,58
0,67,79,72
0,39,69,1
0,44,91,0
