track,note,velocity,time
1,23,80,4238
1,35,127,0
1,16,76,0
1,28,127,0
1,16,73,40
1,28,125,0
1,16,80,56
1,28,127,0
1,22,76,96
1,34,127,0
1,23,71,2
1,35,122,0
1,23,54,42
1,35,95,0
1,23,76,40
1,35,127,0
1,18,71,54
1,30,122,0
1,16,76,0
1,28,127,0
1,20,68,16
1,32,117,0
1,18,71,14
1,30,122,0
1,25,73,672
1,37,125,0
1,23,76,22
1,35,127,0
1,23,70,70
1,35,120,0
1,23,78,58
1,35,127,0
1,23,74,54
1,35,127,0
1,18,76,56
1,30,127,0
1,16,78,10
1,28,127,0
1,16,76,64
1,28,127,0
1,16,80,60
1,28,127,0
1,16,63,104
1,28,109,0
1,22,63,40
1,34,109,0
1,23,78,10
1,35,127,0
1,23,70,44
1,35,120,0
1,23,76,68
1,35,127,0
1,23,74,112
1,35,127,0
1,25,68,44
1,37,117,0
1,27,68,46
1,39,117,0
1,25,76,6
1,37,127,0
1,25,71,40
1,37,122,0
1,25,76,50
1,37,127,0
1,25,78,108
1,37,127,0
1,27,80,54
1,39,127,0
1,28,80,24
1,40,127,0
1,28,80,64
1,40,127,0
1,28,80,74
1,40,127,0
1,28,80,180
1,40,127,0
1,30,70,10
1,42,120,0
1,23,80,24
1,35,127,0
1,18,74,192
1,30,127,0
1,23,80,186
1,35,127,0
1,18,71,24
1,30,122,0
1,23,80,20
1,35,127,0
1,18,76,8
1,30,127,0
1,23,80,42
1,35,127,0
1,23,80,140
1,35,127,0
1,18,80,32
1,30,127,0
1,27,74,54
1,39,127,0
1,28,66,6
1,40,114,0
1,30,80,12
1,42,127,0
1,25,74,192
1,37,127,0
1,30,80,56
1,42,127,0
1,25,76,18
1,37,127,0
1,28,73,4
1,40,125,0
1,30,78,96
1,42,127,0
1,25,76,28
1,37,127,0
1,30,80,50
1,42,127,0
1,30,80,110
1,42,127,0
1,25,76,96
1,37,127,0
1,30,76,48
1,42,127,0
1,29,63,96
1,41,109,0
1,28,68,6
1,40,117,0
1,28,80,72
1,40,127,0
1,23,80,8
1,35,127,0
1,28,80,10
1,40,127,0
1,28,80,120
1,40,127,0
1,28,80,102
1,40,127,0
1,23,80,0
1,35,127,0
1,23,80,52
1,35,127,0
1,18,74,192
1,30,127,0
1,23,80,186
1,35,127,0
1,18,71,24
1,30,122,0
1,23,80,20
1,35,127,0
1,18,76,8
1,30,127,0
1,23,80,42
1,35,127,0
1,23,80,140
1,35,127,0
1,18,80,32
1,30,127,0
1,27,74,54
1,39,127,0
1,28,66,6
1,40,114,0
1,30,80,12
1,42,127,0
1,25,74,192
1,37,127,0
1,30,80,56
1,42,127,0
1,25,76,18
1,37,127,0
1,28,73,4
1,40,125,0
1,30,78,96
1,42,127,0
1,25,76,28
1,37,127,0
1,30,80,50
1,42,127,0
1,30,80,110
1,42,127,0
1,25,76,96
1,37,127,0
1,30,76,48
1,42,127,0
1,29,63,96
1,41,109,0
1,28,68,6
1,40,117,0
1,28,80,72
1,40,127,0
1,23,80,8
1,35,127,0
1,28,80,10
1,40,127,0
1,28,80,120
1,40,127,0
1,28,80,102
1,40,127,0
1,23,80,0
1,35,127,0
1,28,80,52
1,40,127,0
1,28,76,98
1,40,127,0
1,25,71,2
1,37,122,0
1,25,71,56
1,37,122,0
1,23,80,38
1,35,127,0
1,20,76,84
1,32,127,0
1,20,73,84
1,32,125,0
1,18,76,16
1,30,127,0
1,16,80,12
1,28,127,0
1,23,80,192
1,35,127,0
1,16,76,440
1,28,127,0
1,16,73,40
1,28,125,0
1,16,80,56
1,28,127,0
1,22,76,96
1,34,127,0
1,23,71,2
1,35,122,0
1,23,54,42
1,35,95,0
1,23,76,40
1,35,127,0
1,18,71,54
1,30,122,0
1,16,76,0
1,28,127,0
1,20,68,16
1,32,117,0
1,18,71,14
1,30,122,0
1,25,73,672
1,37,125,0
1,23,76,22
1,35,127,0
1,23,70,70
1,35,120,0
1,23,78,58
1,35,127,0
1,23,74,54
1,35,127,0
1,18,76,56
1,30,127,0
1,16,78,10
1,28,127,0
1,16,76,64
1,28,127,0
1,16,80,60
1,28,127,0
1,16,63,104
1,28,109,0
1,22,63,40
1,34,109,0
1,23,78,10
1,35,127,0
1,23,70,44
1,35,120,0
1,23,76,68
1,35,127,0
1,23,74,112
1,35,127,0
1,25,68,44
1,37,117,0
1,27,68,46
1,39,117,0
1,25,76,6
1,37,127,0
1,25,71,40
1,37,122,0
1,25,76,50
1,37,127,0
1,25,78,108
1,37,127,0
1,27,80,54
1,39,127,0
1,28,80,24
1,40,127,0
1,28,80,64
1,40,127,0
1,28,80,74
1,40,127,0
1,28,80,180
1,40,127,0
1,30,70,10
1,42,120,0
1,23,80,24
1,35,127,0
1,18,74,192
1,30,127,0
1,23,80,186
1,35,127,0
1,18,71,24
1,30,122,0
1,23,80,20
1,35,127,0
1,18,76,8
1,30,127,0
1,23,80,42
1,35,127,0
1,23,80,140
1,35,127,0
1,18,80,32
1,30,127,0
1,27,74,54
1,39,127,0
1,28,66,6
1,40,114,0
1,30,80,12
1,42,127,0
1,25,74,192
1,37,127,0
1,30,80,56
1,42,127,0
1,25,76,18
1,37,127,0
1,28,73,4
1,40,125,0
1,30,78,96
1,42,127,0
1,25,76,28
1,37,127,0
1,30,80,50
1,42,127,0
1,30,80,110
1,42,127,0
1,25,76,96
1,37,127,0
1,30,76,48
1,42,127,0
1,29,63,96
1,41,109,0
1,28,68,6
1,40,117,0
1,28,80,72
1,40,127,0
1,23,80,8
1,35,127,0
1,28,80,10
1,40,127,0
1,28,80,120
1,40,127,0
1,28,80,102
1,40,127,0
1,23,80,0
1,35,127,0
1,23,80,52
1,35,127,0
1,18,74,192
1,30,127,0
1,23,80,186
1,35,127,0
1,18,71,24
1,30,122,0
1,23,80,20
1,35,127,0
1,18,76,8
1,30,127,0
1,23,80,42
1,35,127,0
1,23,80,140
1,35,127,0
1,18,80,32
1,30,127,0
1,27,74,54
1,39,127,0
1,28,66,6
1,40,114,0
1,30,80,12
1,42,127,0
1,25,74,192
1,37,127,0
1,30,80,56
1,42,127,0
1,25,76,18
1,37,127,0
1,28,73,4
1,40,125,0
1,30,78,96
1,42,127,0
1,25,76,28
1,37,127,0
1,30,80,50
1,42,127,0
1,30,80,110
1,42,127,0
1,25,76,96
1,37,127,0
1,30,76,48
1,42,127,0
1,29,63,96
1,41,109,0
1,28,68,6
1,40,117,0
1,28,80,72
1,40,127,0
1,23,80,8
1,35,127,0
1,28,80,10
1,40,127,0
1,28,80,120
1,40,127,0
1,28,80,102
1,40,127,0
1,23,80,0
1,35,127,0
1,28,80,52
1,40,127,0
1,28,76,98
1,40,127,0
1,25,71,2
1,37,122,0
1,25,71,56
1,37,122,0
1,23,80,38
1,35,127,0
1,20,76,84
1,32,127,0
1,20,73,84
1,32,125,0
1,18,76,16
1,30,127,0
1,16,80,12
1,28,127,0
1,16,80,0
1,35,127,0
1,23,80,0
1,28,127,0
1,25,80,440
1,37,127,0
1,25,68,58
1,37,117,0
1,27,73,96
1,39,125,0
1,28,76,24
1,40,127,0
1,28,71,44
1,40,122,0
1,30,62,8
1,42,108,0
1,23,80,96
1,35,127,0
1,27,71,1326
1,39,122,0
1,28,53,88
1,40,94,0
1,25,80,8
1,37,127,0
1,25,76,48
1,37,127,0
1,27,74,96
1,39,127,0
1,28,67,16
1,40,115,0
1,28,73,88
1,40,125,0
1,30,70,8
1,42,120,0
1,16,76,144
1,28,127,0
1,16,73,40
1,28,125,0
1,16,80,56
1,28,127,0
1,22,76,96
1,34,127,0
1,23,71,2
1,35,122,0
1,23,54,42
1,35,95,0
1,23,76,40
1,35,127,0
1,18,71,54
1,30,122,0
1,16,76,0
1,28,127,0
1,20,68,16
1,32,117,0
1,18,71,14
1,30,122,0
1,25,73,672
1,37,125,0
1,23,76,22
1,35,127,0
1,23,70,70
1,35,120,0
1,23,78,58
1,35,127,0
1,23,74,54
1,35,127,0
1,18,76,56
1,30,127,0
1,16,78,10
1,28,127,0
1,16,76,64
1,28,127,0
1,16,80,60
1,28,127,0
1,16,63,104
1,28,109,0
1,22,63,40
1,34,109,0
1,23,78,10
1,35,127,0
1,23,70,44
1,35,120,0
1,23,76,68
1,35,127,0
1,23,74,112
1,35,127,0
1,25,68,44
1,37,117,0
1,27,68,46
1,39,117,0
1,25,76,6
1,37,127,0
1,25,71,40
1,37,122,0
1,25,76,50
1,37,127,0
1,25,78,108
1,37,127,0
1,27,80,54
1,39,127,0
1,28,80,24
1,40,127,0
1,28,80,64
1,40,127,0
1,28,80,74
1,40,127,0
1,28,80,180
1,40,127,0
1,30,70,10
1,42,120,0
1,35,80,6168
1,47,127,0
1,30,80,28
1,42,127,0
1,35,80,8
1,47,127,0
1,34,80,24
1,46,127,0
1,30,77,26
1,42,127,0
1,34,80,72
1,46,127,0
1,32,80,26
1,44,127,0
1,23,80,32
1,35,127,0
1,30,80,42
1,42,127,0
1,28,80,20
1,40,127,0
1,25,80,288
1,37,127,0
1,25,77,80
1,37,127,0
1,23,80,48
1,35,127,0
1,20,80,40
1,32,127,0
1,20,76,82
1,32,127,0
1,18,77,38
1,30,127,0
1,16,80,8
1,28,127,0
1,23,80,14
1,35,127,0
1,18,74,192
1,30,127,0
1,23,80,186
1,35,127,0
1,18,71,24
1,30,122,0
1,23,80,20
1,35,127,0
1,18,76,8
1,30,127,0
1,23,80,42
1,35,127,0
1,23,80,140
1,35,127,0
1,18,80,32
1,30,127,0
1,27,74,54
1,39,127,0
1,28,66,6
1,40,114,0
1,30,80,12
1,42,127,0
1,25,74,192
1,37,127,0
1,30,80,56
1,42,127,0
1,25,76,18
1,37,127,0
1,28,73,4
1,40,125,0
1,30,78,96
1,42,127,0
1,25,76,28
1,37,127,0
1,30,80,50
1,42,127,0
1,30,80,110
1,42,127,0
1,25,76,96
1,37,127,0
1,30,76,48
1,42,127,0
1,29,63,96
1,41,109,0
1,28,68,6
1,40,117,0
1,28,80,72
1,40,127,0
1,23,80,8
1,35,127,0
1,28,80,10
1,40,127,0
1,28,80,120
1,40,127,0
1,28,80,102
1,40,127,0
1,23,80,0
1,35,127,0
1,28,80,52
1,40,127,0
1,28,76,98
1,40,127,0
1,25,71,2
1,37,122,0
1,25,71,56
1,37,122,0
1,23,80,38
1,35,127,0
1,20,76,84
1,32,127,0
1,20,73,84
1,32,125,0
1,18,76,16
1,30,127,0
1,16,80,12
1,28,127,0
1,23,80,0
1,35,127,0
1,18,74,192
1,30,127,0
1,23,80,186
1,35,127,0
1,18,71,24
1,30,122,0
1,23,80,20
1,35,127,0
1,18,76,8
1,30,127,0
1,23,80,42
1,35,127,0
1,23,80,140
1,35,127,0
1,18,80,32
1,30,127,0
1,27,74,54
1,39,127,0
1,28,66,6
1,40,114,0
1,30,80,12
1,42,127,0
1,25,74,192
1,37,127,0
1,30,80,56
1,42,127,0
1,25,76,18
1,37,127,0
1,28,73,4
1,40,125,0
1,30,78,96
1,42,127,0
1,25,76,28
1,37,127,0
1,30,80,50
1,42,127,0
1,30,80,110
1,42,127,0
1,25,76,96
1,37,127,0
1,30,76,48
1,42,127,0
1,29,63,96
1,41,109,0
1,28,68,6
1,40,117,0
1,28,80,72
1,40,127,0
1,23,80,8
1,35,127,0
1,28,80,10
1,40,127,0
1,28,80,120
1,40,127,0
1,28,80,102
1,40,127,0
1,23,80,0
1,35,127,0
1,28,80,52
1,40,127,0
1,28,76,98
1,40,127,0
1,25,71,2
1,37,122,0
1,25,71,56
1,37,122,0
1,23,80,38
1,35,127,0
1,20,76,84
1,32,127,0
1,20,73,84
1,32,125,0
1,18,76,16
1,30,127,0
1,16,80,12
1,28,127,0
1,23,80,0
1,35,127,0
1,18,74,192
1,30,127,0
1,23,80,186
1,35,127,0
1,18,71,24
1,30,122,0
1,23,80,20
1,35,127,0
1,18,76,8
1,30,127,0
1,23,80,42
1,35,127,0
1,23,80,140
1,35,127,0
1,18,80,32
1,30,127,0
1,27,74,54
1,39,127,0
1,28,66,6
1,40,114,0
1,30,80,12
1,42,127,0
1,25,74,192
1,37,127,0
1,30,80,56
1,42,127,0
1,25,76,18
1,37,127,0
1,28,73,4
1,40,125,0
1,30,78,96
1,42,127,0
1,25,76,28
1,37,127,0
1,30,80,50
1,42,127,0
1,30,80,110
1,42,127,0
1,25,76,96
1,37,127,0
1,30,76,48
1,42,127,0
1,29,63,96
1,41,109,0
1,28,68,6
1,40,117,0
1,28,80,72
1,40,127,0
1,23,80,8
1,35,127,0
1,28,80,10
1,40,127,0
1,28,80,120
1,40,127,0
1,28,80,102
1,40,127,0
1,23,80,0
1,35,127,0
1,28,80,52
1,40,127,0
1,28,76,98
1,40,127,0
1,25,71,2
1,37,122,0
1,25,71,56
1,37,122,0
1,23,80,38
1,35,127,0
1,20,76,84
1,32,127,0
1,20,73,84
1,32,125,0
1,18,76,16
1,30,127,0
1,16,80,12
1,28,127,0
1,23,80,0
1,35,127,0
1,18,74,192
1,30,127,0
1,23,80,186
1,35,127,0
1,18,71,24
1,30,122,0
1,23,80,20
1,35,127,0
1,18,76,8
1,30,127,0
1,23,80,42
1,35,127,0
1,23,80,140
1,35,127,0
1,18,80,32
1,30,127,0
1,27,74,54
1,39,127,0
1,28,66,6
1,40,114,0
1,30,80,12
1,42,127,0
1,25,74,192
1,37,127,0
1,30,80,56
1,42,127,0
1,25,76,18
1,37,127,0
1,28,73,4
1,40,125,0
1,30,78,96
1,42,127,0
1,25,76,28
1,37,127,0
1,30,80,50
1,42,127,0
1,30,80,110
1,42,127,0
1,25,76,96
1,37,127,0
1,30,76,48
1,42,127,0
1,29,63,96
1,41,109,0
1,28,68,6
1,40,117,0
1,28,80,72
1,40,127,0
1,23,80,8
1,35,127,0
1,28,80,10
1,40,127,0
1,28,80,120
1,40,127,0
1,28,80,102
1,40,127,0
1,23,80,0
1,35,127,0
1,28,80,52
1,40,127,0
1,28,76,98
1,40,127,0
1,25,71,2
1,37,122,0
1,25,71,56
1,37,122,0
1,23,80,38
1,35,127,0
1,20,76,84
1,32,127,0
1,20,73,84
1,32,125,0
1,18,76,16
1,30,127,0
1,16,80,12
1,28,127,0
1,30,80,1480
1,42,127,0
1,23,80,136
1,35,127,0
2,47,110,1440
2,63,107,96
2,59,90,96
2,54,87,96
2,51,107,20
2,66,107,0
2,61,95,44
2,58,94,96
2,52,108,96
2,68,99,0
2,64,99,44
2,59,90,96
2,51,108,96
2,66,98,0
2,61,94,44
2,58,98,96
2,47,113,96
2,63,98,0
2,59,98,44
2,54,99,96
2,54,99,10
2,42,104,0
2,49,99,52
2,54,79,96
2,59,108,96
2,42,91,20
2,49,110,0
2,47,110,4
2,54,113,0
2,59,107,0
2,66,82,40
2,71,98,0
2,73,94,6
2,68,94,0
2,66,86,6
2,71,94,0
2,63,83,576
2,68,72,0
2,66,67,0
2,61,68,0
2,61,74,26
2,66,64,0
2,68,98,768
2,71,79,0
2,66,62,0
2,66,83,68
2,63,88,0
2,61,75,96
2,61,100,112
2,63,95,0
2,64,95,6
2,59,92,0
2,54,80,1168
2,63,60,0
2,59,55,0
2,56,89,4
2,61,83,0
2,64,64,0
2,64,79,214
2,56,75,0
2,61,75,0
2,63,60,24
2,54,72,0
2,59,84,0
2,63,76,78
2,59,67,0
2,54,64,0
2,59,83,54
2,63,79,0
2,54,88,70
2,63,88,60
2,59,83,0
2,56,89,6
2,64,80,0
2,71,92,1090
2,63,75,0
2,73,80,8
2,64,71,0
2,75,88,6
2,66,64,0
2,68,95,120
2,76,84,0
2,75,84,98
2,66,80,0
2,73,75,104
2,64,79,0
2,75,89,12
2,66,76,0
2,71,89,120
2,63,89,0
2,73,93,10
2,64,98,0
2,73,79,260
2,64,68,2
2,66,85,86
2,75,84,20
2,76,72,2
2,68,92,6
2,47,101,424
2,52,95,16
2,54,89,0
2,47,101,34
2,42,101,462
2,47,95,86
2,49,89,8
2,42,101,36
2,42,101,214
2,46,100,94
