track,note,velocity,time
1,67,64,1520
1,71,64,0
1,69,64,0
1,72,64,0
1,71,64,0
1,74,64,0
1,69,64,16
1,72,64,0
1,67,64,0
1,71,64,0
1,74,64,80
1,65,64,16
1,67,64,0
1,76,64,0
1,69,64,0
1,77,64,16
1,65,64,32
1,71,64,0
1,67,64,0
1,72,64,0
1,64,64,0
1,55,64,576
1,60,64,0
1,64,64,0
1,59,64,384
1,60,64,32
1,57,64,0
1,55,64,0
1,58,64,48
1,61,64,0
1,59,64,32
1,65,64,0
1,62,64,0
1,57,64,64
1,55,64,48
1,60,64,16
1,64,64,0
1,57,64,128
1,60,64,0
1,65,64,0
1,55,64,48
1,60,64,0
1,64,64,0
1,59,64,32
1,62,64,0
1,65,64,0
1,60,64,32
1,64,64,0
1,59,64,16
1,62,64,0
1,65,64,0
1,64,64,0
1,60,64,16
1,55,64,464
1,60,64,0
1,64,64,0
1,59,64,384
1,57,64,48
1,58,64,64
1,61,64,16
1,59,64,32
1,55,64,0
1,62,64,0
1,65,64,0
1,57,64,64
1,55,64,48
1,60,64,48
1,64,64,0
1,57,64,64
1,60,64,0
1,65,64,0
1,64,64,64
1,55,64,0
1,60,64,0
1,55,64,48
1,59,64,0
1,62,64,0
1,65,64,0
1,55,64,16
1,60,64,0
1,64,64,0
1,65,64,16
1,62,64,0
1,59,64,0
1,60,64,32
1,64,64,0
1,55,64,496
1,60,64,0
1,64,64,0
1,59,64,368
1,57,64,48
1,58,64,64
1,61,64,0
1,59,64,16
1,62,64,0
1,65,64,0
1,57,64,64
1,55,64,64
1,60,64,16
1,64,64,0
1,57,64,224
1,60,64,0
1,65,64,0
1,55,64,48
1,60,64,0
1,64,64,0
1,59,64,16
1,62,64,0
1,65,64,0
1,55,64,80
1,60,64,0
1,64,64,0
1,59,64,384
1,58,64,48
1,57,64,64
1,60,64,0
1,65,64,0
1,55,64,48
1,60,64,0
1,64,64,0
1,59,64,16
1,62,64,0
1,65,64,0
1,60,64,16
1,64,64,0
1,57,64,0
1,62,64,0
1,65,64,0
1,55,64,64
1,59,64,0
1,64,64,16
1,60,64,16
1,57,64,16
1,62,64,0
1,65,64,0
1,55,64,48
1,59,64,0
1,64,64,16
1,60,64,16
1,60,64,80
1,64,64,0
1,72,64,0
2,72,95,4224
2,74,86,16
2,76,90,0
2,79,91,0
2,76,88,64
2,79,95,0
2,76,84,32
2,79,85,16
2,76,74,16
2,79,86,144
2,76,88,0
2,81,85,16
2,79,84,48
2,81,98,0
2,79,93,32
2,76,90,0
2,77,100,0
2,83,95,224
2,84,98,0
2,86,93,16
2,84,93,16
2,83,68,0
2,81,107,16
2,83,86,0
2,84,88,0
2,83,85,32
2,77,107,48
2,79,95,16
2,81,95,0
2,79,111,16
2,71,95,16
2,72,90,32
2,84,100,96
2,82,117,0
2,81,107,48
2,77,121,0
2,81,98,32
2,84,103,224
2,86,93,16
2,84,93,16
2,81,91,16
2,79,100,48
2,72,93,0
2,76,88,16
2,79,103,176
2,81,88,16
2,79,100,48
2,76,85,0
2,79,98,0
2,74,95,48
2,79,84,32
2,74,98,128
2,76,91,0
2,77,103,16
2,71,84,32
2,72,81,16
2,74,111,304
2,76,93,64
2,77,107,16
2,71,90,48
2,72,73,16
2,72,88,80
2,74,77,128
2,76,75,0
2,79,80,32
2,76,69,16
2,79,77,16
2,76,69,0
2,79,68,0
2,76,62,16
2,79,79,80
2,76,69,0
2,81,69,16
2,79,72,16
2,81,74,16
2,79,84,112
2,76,77,16
2,77,78,16
2,83,76,352
2,84,81,0
2,86,81,0
2,84,78,0
2,83,67,0
2,81,85,16
2,83,70,128
2,84,64,0
2,83,59,0
2,77,85,368
2,79,82,96
2,81,82,0
2,79,86,16
2,71,81,0
2,72,70,16
2,84,100,144
2,82,99,64
2,81,85,16
2,77,83,16
2,81,74,0
2,84,91,80
2,86,85,16
2,84,90,16
2,81,80,16
2,79,83,0
2,72,86,0
2,76,81,16
2,79,98,144
2,81,82,0
2,79,86,32
2,76,81,16
2,79,86,48
2,74,84,16
2,79,78,16
2,74,91,80
2,76,86,0
2,77,93,16
2,71,85,80
2,72,79,32
2,74,88,128
2,76,83,0
2,77,95,0
2,71,84,64
2,72,76,16
2,72,81,336
2,74,73,0
2,76,76,0
2,79,83,32
2,76,70,32
2,79,81,80
2,76,69,48
2,79,69,0
2,76,69,16
2,79,82,128
2,76,66,0
2,81,68,0
2,79,69,16
2,81,76,0
2,79,84,128
2,76,63,16
2,77,65,0
2,83,81,352
2,84,74,0
2,86,69,0
2,84,70,32
2,83,62,0
2,81,70,16
2,83,70,0
2,84,65,0
2,83,68,16
2,77,100,32
2,79,86,96
2,81,84,0
2,79,93,0
2,71,82,16
2,72,75,0
2,84,107,48
2,82,103,16
2,81,91,48
2,77,88,16
2,81,81,16
2,84,93,112
2,86,82,0
2,84,85,16
2,81,80,0
2,79,88,48
2,72,86,16
2,76,82,16
2,79,88,112
2,81,74,16
2,79,82,0
2,76,81,16
2,79,86,48
2,74,85,80
2,79,81,32
2,74,100,112
2,76,86,0
2,77,95,16
2,71,91,48
2,72,88,64
2,84,107,384
2,82,99,16
2,81,91,48
2,77,90,48
2,81,85,48
2,84,100,96
2,86,90,16
2,84,91,0
2,81,91,0
2,79,93,64
2,72,85,16
2,76,83,32
2,79,93,80
2,81,77,0
2,79,86,16
2,76,83,16
2,79,90,64
2,74,88,96
2,79,82,48
2,74,95,112
2,76,84,0
2,77,95,16
2,71,78,80
2,72,86,64
2,74,107,176
2,76,90,16
2,77,103,16
2,71,85,0
2,72,73,16
2,74,103,192
2,76,85,0
2,77,91,48
2,77,81,48
2,83,76,0
2,76,75,32
2,84,79,0
3,38,96,2304
3,31,99,0
3,36,108,64
3,31,117,48
3,36,108,80
3,36,91,352
3,31,99,64
3,36,101,64
3,31,96,32
3,36,101,80
3,37,108,48
3,38,101,80
3,31,104,128
3,38,94,80
3,31,99,16
3,38,99,96
3,31,108,80
3,38,101,96
3,31,104,64
3,36,104,96
3,36,94,80
3,41,122,128
3,36,117,96
3,41,101,80
3,36,101,80
3,41,99,64
3,36,112,16
3,31,112,80
3,36,104,64
3,31,99,48
3,43,117,80
3,38,101,112
3,43,104,64
3,31,117,80
3,36,108,80
3,36,108,64
3,31,112,48
3,38,108,80
3,36,108,64
3,31,112,64
3,36,99,96
3,36,96,256
3,31,87,96
3,36,89,48
3,31,99,96
3,36,99,80
3,37,104,64
3,38,94,48
3,31,96,16
3,38,92,80
3,31,96,16
3,38,99,80
3,31,99,64
3,38,96,64
3,31,94,16
3,33,82,0
3,35,101,96
3,36,112,64
3,36,108,64
3,38,81,0
3,40,94,0
3,40,63,16
3,41,122,0
3,36,104,112
3,41,91,80
3,36,92,96
3,41,94,80
3,36,101,0
3,31,101,128
3,36,104,48
3,36,99,112
3,43,104,64
3,38,104,96
3,43,101,64
3,31,101,96
3,33,77,0
3,35,92,128
3,36,112,16
3,36,101,96
3,31,99,16
3,38,101,96
3,36,104,64
3,31,122,64
3,36,112,80
3,41,108,304
3,36,104,112
3,41,112,80
3,36,104,112
3,41,86,80
3,36,96,0
3,31,104,96
3,36,101,96
3,31,96,64
3,36,104,96
3,43,108,32
3,38,104,112
3,43,99,80
3,38,108,96
3,36,104,112
3,31,117,80
3,34,60,0
3,36,117,64
3,36,104,96
3,38,96,16
3,40,112,32
3,41,117,32
3,36,122,96
3,41,108,80
3,36,108,96
3,41,104,80
3,36,117,64
3,31,117,64
3,36,108,80
3,31,108,64
3,36,101,32
3,38,112,32
3,31,108,160
3,38,91,64
3,31,104,32
3,33,94,0
3,35,104,16
3,36,112,16
3,31,108,80
3,38,99,96
3,31,108,32
3,33,78,0
3,35,87,48
3,36,108,16
3,31,101,64
3,38,84,96
3,31,112,32
3,33,101,0
3,35,112,32
3,36,108,32
3,31,112,32
3,36,108,0
3,36,108,16
4,67,92,1536
4,71,85,0
4,69,90,0
4,72,82,0
4,71,82,16
4,74,81,0
4,69,85,0
4,72,86,0
4,67,84,0
4,71,82,0
4,77,106,112
4,86,86,0
4,79,99,0
4,88,86,0
4,81,101,0
4,89,94,0
4,77,108,16
4,83,91,0
4,76,78,0
4,84,76,0
4,74,70,3680
4,71,93,32
4,77,86,0
4,71,99,0
4,64,72,16
4,72,80,0
4,81,82,80
4,83,64,0
4,84,93,0
4,82,89,64
4,77,101,48
4,81,84,0
4,69,92,32
4,77,94,0
4,72,94,0
4,77,82,0
4,81,77,0
4,77,93,80
4,81,94,0
4,84,89,0
4,77,96,32
4,81,93,0
4,86,103,0
4,77,98,32
4,81,88,0
4,84,93,0
4,77,108,16
4,81,99,0
4,76,98,48
4,79,92,0
4,67,98,16
4,72,93,0
4,76,82,128
4,76,99,0
4,79,99,0
4,76,67,16
4,81,88,0
4,79,92,32
4,72,82,16
4,76,89,0
4,71,98,64
4,79,99,0
4,74,96,0
4,71,89,0
4,79,86,0
4,65,119,64
4,74,119,0
4,67,119,0
4,76,101,0
4,69,115,0
4,77,108,0
4,65,115,48
4,71,108,0
4,64,76,16
4,72,73,0
4,76,89,0
4,79,91,0
4,72,101,48
4,76,101,0
4,76,98,80
4,79,103,0
4,79,89,80
4,83,88,0
4,77,89,16
4,76,66,16
4,84,61,0
4,60,88,480
4,64,103,0
4,60,101,32
4,61,127,0
4,62,99,32
4,65,108,112
4,69,111,768
4,71,108,32
4,77,99,16
4,71,111,0
4,64,108,16
4,72,103,0
4,64,108,96
4,72,99,0
4,70,102,0
4,65,106,32
4,69,103,0
4,72,86,384
4,77,89,256
4,81,81,0
4,81,90,32
4,84,94,0
4,81,90,16
4,86,101,0
4,81,91,32
4,84,101,0
4,77,108,0
4,81,94,0
4,72,89,32
4,76,98,0
4,79,94,0
4,67,90,0
4,72,96,80
4,76,91,0
4,76,99,80
4,79,108,0
4,81,91,16
4,79,103,0
4,76,98,0
4,71,98,64
4,79,96,0
4,74,90,16
4,79,94,128
4,65,111,64
4,74,106,0
4,67,119,0
4,76,103,0
4,69,124,0
4,77,101,0
4,65,93,0
4,71,103,0
4,64,88,16
4,72,96,0
4,76,94,32
4,79,99,0
4,72,106,80
4,76,108,0
4,76,96,48
4,79,98,0
4,79,91,32
4,83,85,0
4,77,85,96
4,83,74,0
4,76,74,0
4,84,69,0
4,72,89,16
4,74,85,32
4,76,73,48
4,79,93,48
4,84,101,32
4,62,51,3632
4,65,63,0
4,67,69,0
4,71,72,0
4,72,89,128
4,74,111,16
4,72,106,16
4,71,99,0
4,69,127,0
4,71,108,0
4,72,103,0
4,71,99,32
4,55,89,80
4,62,91,0
4,65,96,0
4,55,98,16
4,62,92,0
4,67,94,16
4,55,103,16
4,62,96,0
4,69,99,0
4,55,106,48
4,62,101,0
4,67,108,16
4,59,106,32
4,65,111,0
4,60,99,64
4,72,106,0
4,71,99,0
4,72,101,48
4,74,99,0
4,76,90,0
4,79,108,0
4,84,124,0
4,82,107,16
4,72,80,32
4,77,80,0
4,81,78,0
4,69,74,0
4,77,82,0
4,81,67,144
4,84,89,0
4,86,84,0
4,74,86,0
4,84,90,96
4,72,94,0
4,81,89,96
4,79,85,48
4,67,72,16
4,76,82,0
4,79,99,736
4,81,87,0
4,79,101,112
4,76,92,96
4,71,88,0
4,79,86,0
4,74,90,240
4,67,74,0
4,79,78,0
4,74,103,64
4,65,106,0
4,67,98,128
4,76,98,0
4,69,106,0
4,77,94,0
4,65,79,0
4,71,87,0
4,60,85,128
4,72,106,0
4,59,89,0
4,71,96,0
4,58,94,0
4,70,88,0
4,72,89,144
4,84,96,0
4,70,83,128
4,82,95,0
4,69,89,16
4,77,88,0
4,81,79,0
4,72,64,32
4,77,88,0
4,81,78,128
4,84,78,16
4,86,80,0
4,74,98,16
4,72,86,0
4,84,89,0
4,81,79,0
4,67,84,0
4,76,86,0
4,79,84,0
4,79,90,640
4,81,86,16
4,79,93,112
4,76,85,96
4,71,88,0
4,79,84,0
4,74,87,256
4,79,86,128
4,65,98,64
4,74,99,16
4,67,99,0
4,76,98,0
4,69,115,0
4,77,98,0
4,65,92,48
4,71,89,0
4,64,76,0
4,72,89,0
4,65,111,208
4,74,99,0
4,67,98,16
4,76,87,0
4,69,101,0
4,77,86,0
4,65,80,32
4,71,83,0
4,64,74,0
4,72,83,0
4,65,94,176
4,74,98,0
4,77,103,0
4,76,93,16
4,79,88,0
4,77,90,16
4,81,86,0
4,77,91,64
4,83,88,0
4,72,79,32
4,76,76,0
4,84,90,0
4,76,88,48
4,84,91,0
4,72,94,16
5,43,87,1920
5,47,75,64
5,50,85,48
5,55,92,0
5,59,108,64
5,62,90,32
5,67,95,48
5,48,90,320
5,48,78,80
5,52,80,64
5,55,94,64
5,64,85,16
5,60,70,128
5,55,73,64
5,48,87,128
5,48,77,288
5,52,78,16
5,64,85,0
5,60,87,128
5,55,90,128
5,48,71,16
5,48,70,64
5,55,71,0
5,60,66,64
5,64,90,0
5,60,85,128
5,55,87,112
5,48,75,16
5,48,73,64
5,55,87,64
5,64,80,48
5,61,127,128
5,58,98,16
5,55,108,128
5,50,75,0
5,50,75,64
5,55,94,64
5,59,94,32
5,65,108,128
5,62,77,32
5,59,78,0
5,55,94,0
5,55,85,64
5,55,73,16
5,59,85,16
5,65,103,128
5,62,87,0
5,59,85,0
5,50,65,0
5,55,103,64
5,59,80,0
5,62,98,64
5,65,103,16
5,62,94,128
5,59,98,16
5,50,85,0
5,55,108,64
5,59,103,16
5,62,108,64
5,67,94,16
5,62,94,128
5,59,87,16
5,48,85,16
5,48,90,80
5,48,68,32
5,55,87,16
5,60,94,128
5,53,90,32
5,53,85,80
5,57,103,0
5,60,80,64
5,65,103,0
5,60,80,0
5,57,85,16
5,53,85,128
5,53,77,80
5,57,103,64
5,60,82,48
5,65,108,0
5,60,90,128
5,57,94,0
5,48,90,0
5,48,71,80
5,52,85,16
5,55,115,0
5,64,94,128
5,60,82,128
5,55,87,96
5,48,78,0
5,48,70,80
5,52,78,0
5,55,108,64
5,64,90,112
5,60,78,128
5,55,90,112
5,55,98,16
5,55,90,80
5,59,103,64
5,62,78,48
5,67,103,0
5,62,85,0
5,50,80,0
5,55,115,16
5,59,85,128
5,62,87,112
5,67,90,0
5,62,77,0
5,59,80,0
5,48,103,16
5,48,78,80
5,52,82,16
5,55,103,64
5,64,87,112
5,60,80,128
5,55,90,112
5,55,115,160
5,59,108,128
5,67,98,128
5,62,98,112
5,59,90,112
5,48,90,0
5,48,90,80
5,55,103,64
5,60,82,48
5,64,90,128
5,60,87,0
5,48,108,0
5,55,108,0
5,60,87,80
5,64,82,0
5,48,87,304
5,55,82,128
5,60,75,128
5,64,80,0
5,60,70,0
5,55,80,0
5,48,78,32
5,55,87,128
5,60,94,128
5,64,90,0
5,60,72,0
5,55,73,0
5,48,90,0
5,55,85,96
5,60,82,128
5,64,94,0
5,61,119,128
5,58,94,128
5,50,64,128
5,55,80,96
5,59,108,128
5,67,103,32
5,62,90,80
5,59,82,112
5,50,69,0
5,50,69,80
5,55,98,0
5,59,94,64
5,67,90,128
5,62,87,112
5,59,98,0
5,50,72,128
5,55,87,0
5,62,80,128
5,67,94,0
5,62,94,112
5,59,87,0
5,50,64,0
5,50,68,80
5,55,103,0
5,59,98,64
5,67,98,128
5,65,85,96
5,59,115,96
5,60,103,0
5,48,94,0
5,52,87,128
5,55,98,128
5,60,77,0
5,64,70,0
5,53,108,0
5,53,103,80
5,57,108,64
5,60,82,48
5,65,98,128
5,60,80,112
5,57,82,16
5,53,94,128
5,53,98,80
5,57,108,0
5,60,85,64
5,65,94,0
5,60,85,0
5,57,98,0
5,48,68,80
5,48,68,64
5,52,73,0
5,55,115,0
5,60,78,64
5,64,98,64
5,60,90,112
5,55,90,16
5,48,85,0
5,48,73,80
5,52,90,0
5,55,115,64
5,64,90,112
5,60,78,0
5,55,98,128
5,50,72,0
5,55,103,80
5,59,103,0
5,62,103,64
5,67,103,0
5,62,90,0
5,59,103,0
