track,note,velocity,time
1,60,127,4228
1,62,127,8
1,64,127,96
1,67,127,128
1,64,127,64
1,67,127,4
1,64,127,28
1,67,127,4
1,64,118,4
1,67,127,144
1,64,127,4
1,69,127,16
1,67,127,40
1,69,127,0
1,67,127,16
1,64,127,4
1,65,127,4
1,71,127,220
1,72,127,0
1,74,127,4
1,72,127,12
1,71,112,0
1,69,127,4
1,71,127,104
1,72,127,4
1,71,127,28
1,65,127,52
1,67,127,4
1,69,127,80
1,67,127,12
1,59,127,20
1,60,127,20
1,72,127,116
1,70,127,80
1,69,127,44
1,65,127,4
1,69,127,28
1,72,127,220
1,74,127,4
1,72,127,4
1,69,127,4
1,67,127,44
1,60,127,4
1,64,127,8
1,67,127,180
1,69,127,0
1,67,127,32
1,64,127,8
1,67,127,20
1,62,127,48
1,67,127,32
1,62,127,112
1,64,127,0
1,65,127,4
1,59,127,28
1,60,125,8
1,62,127,312
1,64,127,72
1,65,127,8
1,59,127,32
1,60,117,8
1,60,127,368
1,62,121,132
1,64,119,0
1,67,124,28
1,64,113,20
1,67,121,4
1,64,113,4
1,67,112,8
1,64,106,8
1,67,123,80
1,64,113,0
1,69,113,4
1,67,116,8
1,69,118,8
1,67,127,116
1,64,121,4
1,65,122,16
1,71,120,336
1,72,125,0
1,74,125,0
1,72,122,8
1,71,111,0
1,69,127,4
1,71,114,132
1,72,108,4
1,71,103,128
1,65,127,360
1,67,126,104
1,69,126,88
1,67,127,12
1,59,125,4
1,60,114,16
1,72,127,144
1,70,127,52
1,69,127,20
1,65,127,8
1,69,118,8
1,72,127,68
1,74,127,0
1,72,127,4
1,69,124,0
1,67,127,8
1,60,127,248
1,64,125,4
1,67,127,144
1,69,126,4
1,67,127,28
1,64,125,0
1,67,127,36
1,62,127,12
1,67,122,16
1,62,127,72
1,64,127,104
1,65,127,4
1,59,127,72
1,60,123,36
1,62,127,124
1,64,127,52
1,65,127,0
1,59,127,64
1,60,120,16
1,60,125,336
1,62,117,136
1,64,120,120
1,67,127,16
1,64,114,24
1,67,125,72
1,64,113,52
1,67,113,144
1,64,113,12
1,67,126,132
1,64,110,4
1,69,112,0
1,67,113,4
1,69,120,4
1,67,127,128
1,64,107,8
1,65,109,132
1,71,125,336
1,72,118,0
1,74,113,0
1,72,114,20
1,71,106,8
1,69,114,16
1,71,114,144
1,72,109,0
1,71,112,4
1,65,127,124
1,67,127,100
1,69,127,112
1,67,127,128
1,59,126,16
1,60,119,4
1,72,127,80
1,70,127,16
1,69,127,48
1,65,127,12
1,69,125,16
1,72,127,100
1,74,126,132
1,72,127,4
1,69,124,4
1,67,127,40
1,60,127,8
1,64,126,16
1,67,127,108
1,69,118,4
1,67,126,4
1,64,125,4
1,67,127,36
1,62,127,68
1,67,125,28
1,62,127,112
1,64,127,120
1,65,127,4
1,59,127,48
1,60,127,56
1,72,127,372
1,70,127,24
1,69,127,48
1,65,127,36
1,69,127,32
1,72,127,96
1,74,127,4
1,72,127,124
1,69,127,116
1,67,127,56
1,60,127,8
1,64,127,28
1,67,127,80
1,69,121,0
1,67,127,12
1,64,127,8
1,67,127,52
1,62,127,84
1,67,126,44
1,62,127,116
1,64,127,100
1,65,127,8
1,59,122,76
1,60,127,52
1,62,127,184
1,64,127,8
1,65,127,4
1,59,127,208
1,60,117,4
1,62,127,196
1,64,127,8
1,65,127,44
1,65,125,48
1,71,120,0
1,64,119,28
1,72,123,0
2,38,127,2300
2,31,127,384
2,36,127,56
2,31,127,44
2,36,127,68
2,36,127,348
2,31,127,52
2,36,127,56
2,31,127,24
2,36,127,72
2,37,127,44
2,38,127,76
2,31,127,116
2,38,127,68
2,31,127,4
2,38,127,84
2,31,127,68
2,38,127,80
2,31,127,52
2,36,127,84
2,36,127,76
2,41,127,124
2,36,127,84
2,41,127,68
2,36,127,72
2,41,127,52
2,36,127,8
2,31,127,72
2,36,127,60
2,31,127,40
2,43,127,76
2,38,127,108
2,43,127,52
2,31,127,68
2,36,127,72
2,36,127,60
2,31,127,40
2,38,127,64
2,36,127,60
2,31,127,60
2,36,127,88
2,36,127,252
2,31,123,88
2,36,125,44
2,31,127,88
2,36,127,76
2,37,127,48
2,38,127,32
2,31,127,0
2,38,127,68
2,31,127,12
2,38,127,72
2,31,127,56
2,38,127,60
2,31,127,8
2,33,118,128
2,35,127,80
2,36,127,52
2,36,127,52
2,38,117,128
2,40,127,112
2,41,127,8
2,40,99,0
2,36,127,100
2,41,127,68
2,36,127,80
2,41,127,72
2,36,127,128
2,31,127,124
2,36,127,44
2,36,127,96
2,43,127,52
2,38,127,88
2,43,127,48
2,31,127,88
2,33,113,128
2,35,127,112
2,36,127,8
2,36,127,84
2,31,127,12
2,38,127,84
2,36,127,60
2,31,127,48
2,36,127,68
2,41,127,6500
2,36,127,104
2,41,127,76
2,36,127,96
2,41,122,64
2,36,127,128
2,31,127,84
2,36,127,84
2,31,127,56
2,36,127,80
2,43,127,16
2,38,127,100
2,43,127,76
2,38,127,84
2,36,127,108
2,31,127,64
2,34,96,0
2,36,127,56
2,36,127,80
2,38,127,4
2,40,127,24
2,41,127,24
2,36,127,92
2,41,127,72
2,36,127,80
2,41,127,68
2,36,127,48
2,31,127,52
2,36,127,64
2,31,127,60
2,36,127,16
2,38,127,28
2,31,127,144
2,38,127,60
2,31,127,20
2,33,127,128
2,35,127,8
2,36,127,4
2,31,127,64
2,38,127,88
2,31,127,20
2,33,114,128
2,35,123,44
2,36,127,4
2,31,127,56
2,38,120,92
2,31,127,20
2,33,127,128
2,35,127,20
2,36,127,20
2,31,127,16
2,36,127,384
2,36,127,8
3,43,117,1916
3,47,105,64
3,50,115,36
3,55,122,40
3,59,127,52
3,62,120,28
3,67,125,44
3,48,120,316
3,48,108,64
3,52,110,64
3,55,124,64
3,64,115,4
3,60,100,124
3,55,103,60
3,48,117,132
3,48,107,276
3,52,108,8
3,64,115,0
3,60,117,124
3,55,120,132
3,48,101,4
3,48,100,48
3,55,101,64
3,60,96,60
3,64,120,0
3,60,115,124
3,55,117,104
3,48,105,4
3,48,103,52
3,55,117,64
3,64,110,32
3,61,127,132
3,58,127,8
3,55,127,128
3,50,105,0
3,50,105,52
3,55,124,64
3,59,124,20
3,65,127,132
3,62,107,24
3,59,108,124
3,55,124,124
3,55,115,60
3,55,103,12
3,59,115,4
3,65,127,128
3,62,117,128
3,59,115,120
3,50,95,0
3,55,127,64
3,59,110,60
3,62,127,60
3,65,127,4
3,62,124,124
3,59,127,8
3,50,115,16
3,55,127,52
3,59,127,8
3,62,127,68
3,67,124,12
3,62,124,124
3,59,117,12
3,48,115,12
3,48,120,68
3,48,98,20
3,55,117,8
3,60,124,128
3,53,120,28
3,53,115,68
3,57,127,64
3,60,110,52
3,65,127,132
3,60,110,120
3,57,115,0
3,53,115,132
3,53,107,68
3,57,127,64
3,60,112,44
3,65,127,0
3,60,120,124
3,57,124,108
3,48,120,0
3,48,101,68
3,52,115,0
3,55,127,64
3,64,124,124
3,60,112,124
3,55,117,88
3,48,108,132
3,48,100,64
3,52,108,64
3,55,127,60
3,64,120,112
3,60,108,128
3,55,120,104
3,55,127,12
3,55,120,64
3,59,127,64
3,62,108,36
3,67,127,132
3,62,115,116
3,50,110,124
3,55,127,12
3,59,115,128
3,62,117,100
3,67,120,0
3,62,107,124
3,59,110,116
3,48,127,16
3,48,108,76
3,52,112,0
3,55,127,64
3,64,117,104
3,60,110,132
3,55,120,104
3,55,127,156
3,59,127,128
3,67,127,132
3,62,127,108
3,59,120,104
3,48,120,0
3,48,120,72
3,55,127,64
3,60,112,32
3,64,120,132
3,60,117,108
3,48,127,116
3,55,127,4
3,64,112,76
3,60,117,0
3,48,117,304
3,55,112,124
3,60,105,128
3,64,110,0
3,60,100,124
3,55,110,20
3,48,108,20
3,55,117,124
3,60,124,128
3,64,120,132
3,60,102,112
3,55,103,116
3,48,120,112
3,55,115,84
3,60,112,128
3,64,124,4
3,61,127,116
3,58,124,132
3,50,94,128
3,55,110,84
3,59,127,132
3,67,127,20
3,62,120,76
3,59,112,112
3,50,99,128
3,50,99,64
3,55,127,64
3,59,124,56
3,67,120,132
3,62,117,108
3,59,127,108
3,50,102,116
3,55,117,92
3,62,110,116
3,67,124,0
3,62,124,108
3,59,117,128
3,50,94,120
3,50,98,72
3,55,127,64
3,59,127,52
3,67,127,128
3,65,115,92
3,59,127,88
3,60,127,8
3,48,124,112
3,52,117,112
3,60,107,132
3,64,100,0
3,55,127,0
3,53,127,48
3,53,127,76
3,57,127,64
3,60,112,36
3,65,127,132
3,60,110,104
3,57,112,8
3,53,124,132
3,53,127,72
3,57,127,64
3,60,115,60
3,65,124,128
3,60,115,124
3,57,127,116
3,48,98,68
3,48,98,56
3,52,103,64
3,55,127,56
3,60,108,52
3,64,127,68
3,60,120,104
3,55,120,8
3,48,115,56
3,48,103,64
3,52,120,64
3,55,127,56
3,64,120,108
3,60,108,124
3,55,127,120
3,50,102,0
3,55,127,64
3,59,127,64
3,62,127,60
3,67,127,132
3,62,120,120
3,59,127,116
3,55,127,92
3,55,127,68
3,59,127,60
3,62,124,48
3,67,127,132
3,62,117,124
3,59,115,0
3,48,115,64
3,48,102,72
3,52,117,64
3,55,124,56
3,64,110,104
3,60,102,132
3,55,115,92
3,55,120,16
3,55,120,80
3,59,127,4
3,62,124,64
3,59,103,40
3,67,127,52
3,62,120,124
3,59,117,0
3,48,120,4
3,48,102,72
3,52,110,64
3,55,127,60
3,64,120,12
3,60,120,124
3,55,127,0
3,64,105,132
3,60,117,0
3,48,105,0
3,53,120,6404
3,57,105,64
3,60,112,16
3,65,115,132
3,60,107,4
3,57,110,128
3,53,103,16
3,53,115,72
3,57,108,4
3,60,101,8
3,57,112,64
3,65,120,20
3,60,120,8
3,57,127,8
3,48,108,128
3,48,103,56
3,52,120,64
3,55,127,60
3,64,115,112
3,60,120,124
3,55,124,88
3,48,102,128
3,48,98,64
3,52,112,0
3,55,127,64
3,60,110,52
3,64,120,68
3,60,110,116
3,55,120,4
3,55,120,4
3,55,117,84
3,59,127,60
3,62,115,52
3,67,127,0
3,62,124,0
3,59,120,4
3,55,120,132
3,55,127,76
3,59,127,0
3,62,127,60
3,59,117,48
3,67,127,52
3,62,120,124
3,59,120,8
3,48,102,64
3,48,99,52
3,52,120,0
3,55,127,64
3,64,124,124
3,60,117,124
3,55,120,112
3,48,100,4
3,48,101,56
3,52,110,60
3,55,127,52
3,64,120,112
3,60,112,128
3,55,120,56
3,53,120,4
3,53,127,76
3,57,127,64
3,60,127,64
3,57,112,40
3,65,127,52
3,60,124,124
3,57,117,104
3,53,117,128
3,53,127,68
3,57,127,64
3,60,117,40
3,65,120,132
3,60,112,112
3,57,112,12
3,48,98,32
3,48,102,48
3,52,110,64
3,55,127,52
3,64,120,108
3,60,110,124
3,55,120,96
3,48,101,132
3,48,101,56
3,52,110,64
3,55,127,52
3,64,117,8
3,60,108,128
3,55,120,96
3,55,127,20
3,55,127,80
3,59,127,64
3,62,127,40
3,67,127,132
3,62,124,104
3,59,127,8
3,55,127,132
3,55,127,80
3,59,127,4
3,62,127,60
3,59,117,52
3,67,127,60
3,62,127,128
3,59,127,4
3,48,102,52
3,48,99,56
3,52,112,64
3,55,127,56
3,64,117,104
3,60,117,124
3,55,120,104
3,50,101,8
3,53,96,48
3,57,127,128
3,62,127,100
3,59,120,120
3,55,127,132
3,48,110,8
3,48,101,44
3,52,110,64
3,55,127,56
3,60,100,56
3,64,117,68
3,60,115,60
3,55,120,108
3,50,102,4
3,53,124,52
3,57,124,64
3,62,124,52
3,55,127,104
3,67,120,116
3,62,127,104
3,48,103,0
3,48,98,20
3,52,110,64
3,55,124,56
3,64,120,88
3,60,105,124
3,55,124,112
3,48,103,132
3,48,100,68
3,52,103,64
3,55,127,52
3,64,124,128
3,60,127,0
4,67,58,3196
4,72,58,0
4,76,58,0
4,76,58,36
4,67,58,0
4,72,58,0
4,67,58,32
4,72,58,0
4,76,58,0
4,67,58,92
4,72,58,0
4,76,58,4
4,67,58,88
4,76,58,0
4,72,58,0
4,67,58,88
4,72,58,0
4,76,58,0
4,67,58,92
4,76,58,0
4,72,58,4
4,67,58,716
4,72,58,4
4,76,58,0
4,72,58,92
4,67,58,0
4,76,58,0
4,72,58,32
4,76,58,0
4,67,58,0
4,72,58,28
4,67,58,0
4,76,58,0
4,67,58,88
4,72,58,0
4,76,58,0
4,71,58,4
4,76,58,76
4,67,58,0
4,71,58,0
4,72,58,0
4,67,58,80
4,72,58,0
4,71,58,0
4,76,58,0
4,67,58,88
4,72,58,0
4,76,58,4
4,69,58,0
4,69,58,84
4,67,58,0
4,72,58,0
4,76,58,0
4,69,58,24
4,67,58,0
4,76,58,0
4,72,58,0
4,69,58,24
4,76,58,0
4,67,58,0
4,72,58,0
4,67,58,80
4,72,58,0
4,76,58,4
4,67,58,88
4,76,58,0
4,72,58,0
4,72,58,92
4,67,58,0
4,76,58,0
4,67,58,96
4,72,58,4
4,76,58,0
4,67,58,96
4,76,58,0
4,72,58,0
4,72,58,28
4,76,58,0
4,67,58,0
4,76,58,32
4,72,58,0
4,67,58,0
4,67,58,84
4,73,58,0
4,70,58,4
4,76,58,0
4,67,58,84
4,76,58,0
4,73,58,0
4,70,58,0
4,70,58,80
4,73,58,0
4,67,58,0
4,76,58,0
4,67,58,80
4,74,58,4
4,71,58,0
4,77,58,0
4,67,58,80
4,71,58,0
4,74,58,0
4,77,58,0
4,67,58,28
4,77,58,0
4,71,58,0
4,74,58,0
4,74,58,24
4,77,58,0
4,67,58,0
4,71,58,0
4,77,58,76
4,67,58,0
4,74,58,0
4,71,58,4
4,67,58,72
4,77,58,0
4,71,58,0
4,74,58,0
4,74,58,84
4,71,58,0
4,67,58,0
4,77,58,0
4,67,58,92
4,77,58,0
4,74,58,0
4,71,58,0
4,67,58,92
4,71,58,0
4,74,58,0
4,77,58,0
4,77,58,24
4,67,58,0
4,71,58,0
4,74,58,0
4,67,58,24
4,71,58,0
4,74,58,0
4,77,58,0
4,77,58,76
4,74,58,0
4,71,58,4
4,67,58,0
4,67,58,88
4,77,58,0
4,71,58,0
4,74,58,0
4,67,58,88
4,74,58,0
4,77,58,0
4,71,58,0
4,69,58,88
4,71,58,4
4,74,58,0
4,77,58,0
4,69,58,88
4,71,58,0
4,74,58,0
4,77,58,0
4,69,58,24
4,71,58,0
4,77,58,0
4,74,58,0
4,77,58,24
4,69,58,0
4,71,58,0
4,74,58,0
4,71,58,88
4,67,58,0
4,77,58,4
4,74,58,0
4,67,58,88
4,77,58,0
4,71,58,0
4,74,58,0
4,67,58,80
4,77,58,0
4,71,58,0
4,74,58,0
4,67,58,88
4,77,58,0
4,71,58,4
4,74,58,0
4,77,58,88
4,71,58,0
4,67,58,0
4,74,58,0
4,77,58,24
4,67,58,0
4,71,58,0
4,74,58,0
4,77,58,24
4,67,58,0
4,71,58,0
4,74,58,4
4,67,58,84
4,77,58,4
4,71,58,0
4,74,58,0
4,71,58,80
4,67,58,0
4,77,58,0
4,74,58,0
4,71,58,76
4,77,58,0
4,67,58,0
4,74,58,0
4,76,58,88
4,67,58,0
4,72,58,4
4,76,58,88
4,72,58,0
4,67,58,0
4,67,58,28
4,72,58,0
4,76,58,0
4,67,58,24
4,72,58,0
4,76,58,0
4,76,58,76
4,67,58,0
4,72,58,0
4,69,58,332
4,77,58,4
4,72,58,0
4,69,58,88
4,72,58,0
4,77,58,0
4,69,58,32
4,77,58,0
4,72,58,0
4,77,58,24
4,69,58,0
4,72,58,0
4,69,58,32
4,77,58,0
4,72,58,0
4,69,58,32
4,72,58,4
4,77,58,0
4,72,58,96
4,69,58,0
4,77,58,0
4,69,58,96
4,77,58,0
4,72,58,0
4,69,58,96
4,72,58,4
4,77,58,0
4,69,58,88
4,77,58,0
4,72,58,0
4,69,58,32
4,77,58,0
4,72,58,0
4,69,58,20
4,72,58,0
4,77,58,0
4,69,58,92
