track,note,velocity,time
1,70,80,0
1,70,0,960
1,70,74,0
1,70,0,120
1,70,70,120
1,70,0,120
1,70,79,120
1,70,0,960
1,70,75,0
1,70,0,120
1,70,69,120
1,70,0,120
1,70,78,120
1,70,0,480
1,70,72,0
1,70,0,120
1,70,67,120
1,70,0,120
1,70,74,120
1,70,0,480
1,70,69,0
1,70,0,120
1,70,66,120
1,70,0,120
1,70,73,120
1,70,0,480
1,70,59,0
1,70,0,120
1,70,59,120
1,70,0,120
1,70,72,120
1,70,0,480
1,74,60,0
1,75,49,240
1,74,0,20
1,74,57,220
1,77,57,0
1,75,0,20
1,77,0,340
1,74,0,0
1,70,67,120
1,70,0,240
1,75,64,240
1,77,48,240
1,75,0,20
1,75,56,220
1,79,56,0
1,77,0,20
1,79,0,340
1,75,0,0
1,70,72,120
1,70,0,240
1,77,67,240
1,79,52,240
1,77,0,20
1,77,75,220
1,80,75,0
1,79,0,20
1,80,0,340
1,77,0,0
1,82,82,120
1,79,82,0
1,73,69,0
1,73,0,960
1,79,0,0
1,82,0,0
1,82,68,0
1,79,68,0
1,73,57,0
1,73,0,240
1,79,0,0
1,82,0,0
1,82,58,0
1,79,58,0
1,73,49,0
1,73,0,240
1,79,0,0
1,82,0,0
1,82,63,0
1,73,63,0
1,79,63,0
1,82,0,480
1,84,52,0
1,82,48,240
1,84,0,20
1,73,0,220
1,72,54,0
1,80,54,0
1,79,0,20
1,82,0,0
1,72,0,220
1,80,0,0
1,80,67,240
1,71,67,0
1,82,47,480
1,80,0,20
1,80,44,220
1,82,0,20
1,71,0,220
1,70,54,0
1,79,54,0
1,80,0,20
1,79,0,220
1,70,0,0
1,79,66,240
1,70,66,0
1,80,59,480
1,79,0,20
1,79,53,220
1,80,0,20
1,70,0,220
1,68,59,0
1,77,59,0
1,79,0,20
1,77,0,220
1,68,0,0
1,77,64,240
1,68,64,0
1,79,60,480
1,77,0,20
1,77,49,220
1,79,0,20
1,68,0,220
1,75,53,0
1,67,53,0
1,77,0,20
1,67,0,220
1,75,0,0
1,70,65,240
1,70,0,240
1,74,49,240
1,75,60,240
1,74,0,20
1,74,63,220
1,77,63,0
1,75,0,20
1,77,0,340
1,74,0,0
1,70,69,120
1,70,0,240
1,75,68,240
1,77,64,240
1,75,0,20
1,75,73,220
1,79,73,0
1,77,0,20
1,79,0,340
1,75,0,0
1,70,76,120
1,70,0,240
1,77,72,240
1,79,62,240
1,77,0,20
1,77,75,220
1,80,75,0
1,79,0,20
1,80,0,340
1,77,0,0
1,82,89,120
1,79,89,0
1,73,75,0
1,73,0,720
1,79,0,0
1,82,0,0
1,79,74,0
1,82,74,0
1,82,0,240
1,79,0,0
1,73,80,0
1,82,73,240
1,79,73,0
1,79,0,240
1,82,0,0
1,73,0,0
1,73,64,0
1,82,72,240
1,84,64,240
1,82,0,20
1,82,58,220
1,84,0,20
1,73,0,220
1,72,54,0
1,80,54,0
1,82,0,20
1,80,0,220
1,72,0,0
1,71,65,240
1,80,69,240
1,82,65,240
1,80,0,20
1,80,63,220
1,82,0,20
1,71,0,220
1,70,51,0
1,79,51,0
1,80,0,20
1,79,0,220
1,70,0,0
1,70,63,240
1,79,46,240
1,80,58,240
1,79,0,20
1,79,45,220
1,80,0,20
1,70,0,220
1,68,50,0
1,77,50,0
1,79,0,20
1,77,0,460
1,68,0,0
1,67,59,0
1,75,59,0
1,75,0,240
1,67,0,0
1,70,57,240
1,70,0,120
1,70,50,120
1,70,0,120
1,70,56,120
1,70,0,120
1,70,58,120
1,70,0,120
1,70,78,120
1,70,0,480
1,74,65,0
1,75,57,240
1,74,0,20
1,74,66,220
1,77,66,0
1,75,0,20
1,77,0,340
1,74,0,0
1,70,69,120
1,70,0,240
1,75,66,240
1,77,56,240
1,75,0,20
1,75,73,220
1,79,73,0
1,77,0,20
1,79,0,340
1,75,0,0
1,70,77,120
1,70,0,240
1,77,75,240
1,79,58,240
1,77,0,20
1,77,75,220
1,80,75,0
1,79,0,20
1,80,0,340
1,77,0,0
1,82,85,120
1,79,85,0
1,73,72,0
1,73,0,960
1,79,0,0
1,82,0,0
1,82,69,0
1,79,69,0
1,73,58,0
1,73,0,240
1,79,0,0
1,82,0,0
1,82,47,0
1,79,47,0
1,73,39,0
1,73,0,240
1,79,0,0
1,82,0,0
1,82,65,0
1,73,65,0
1,79,65,0
1,84,53,480
1,82,0,20
1,82,49,220
1,84,0,20
1,73,0,220
1,79,0,0
1,72,51,0
1,80,51,0
1,82,0,20
1,80,0,220
1,72,0,0
1,80,68,240
1,71,68,0
1,82,47,480
1,80,0,20
1,80,46,220
1,82,0,20
1,71,0,220
1,70,53,0
1,79,53,0
1,80,0,20
1,79,0,220
1,70,0,0
1,79,68,240
1,70,68,0
1,80,51,480
1,79,0,20
1,79,49,220
1,80,0,20
1,70,0,220
1,68,61,0
1,77,61,0
1,79,0,20
1,77,0,220
1,68,0,0
1,77,74,240
1,68,74,0
1,79,69,480
1,77,0,20
1,77,53,220
1,79,0,20
1,68,0,220
1,75,68,0
1,67,68,0
1,77,0,20
1,67,0,220
1,75,0,0
1,70,70,240
1,70,0,240
1,74,68,240
1,75,60,240
1,74,0,20
1,74,63,220
1,77,63,0
1,75,0,20
1,77,0,340
1,74,0,0
1,70,72,120
1,70,0,240
1,75,65,240
1,77,60,240
1,75,0,20
1,75,68,220
1,79,68,0
1,77,0,20
1,79,0,340
1,75,0,0
1,70,76,120
1,70,0,240
1,77,77,240
1,79,70,240
1,77,0,20
1,77,77,220
1,80,77,0
1,79,0,20
1,80,0,340
1,77,0,0
1,82,84,120
1,79,84,0
1,73,71,0
1,73,0,720
1,79,0,0
1,82,0,0
1,79,72,0
1,82,72,0
1,82,0,240
1,79,0,0
1,73,80,0
1,82,65,240
1,79,65,0
1,79,0,240
1,82,0,0
1,73,0,0
1,73,67,0
1,82,58,240
1,84,48,240
1,82,0,20
1,82,60,220
1,84,0,20
1,73,0,220
1,72,54,0
1,80,54,0
1,82,0,20
1,80,0,220
1,72,0,0
1,71,70,240
1,80,69,240
1,82,45,240
1,80,0,20
1,80,65,220
1,82,0,20
1,71,0,220
1,70,55,0
1,79,55,0
1,80,0,20
1,79,0,220
1,70,0,0
1,70,65,240
1,79,50,240
1,80,44,240
1,79,0,20
1,79,62,220
1,80,0,20
1,70,0,220
1,68,57,0
1,77,57,0
1,79,0,20
1,77,0,460
1,68,0,0
1,67,48,0
1,75,48,0
1,75,0,240
1,67,0,0
1,75,53,240
1,75,0,120
1,75,64,120
1,75,0,120
1,75,67,120
1,75,0,120
1,75,69,120
1,75,0,120
1,75,75,120
1,75,0,120
1,75,64,120
1,75,0,120
1,75,75,120
1,75,0,120
1,75,74,120
1,75,0,120
1,75,69,120
1,75,0,120
1,75,69,120
1,75,0,120
1,77,65,120
1,75,58,240
1,77,0,20
1,72,56,220
1,75,0,20
1,68,49,220
1,72,0,20
1,63,49,220
1,68,0,20
1,63,0,220
1,64,51,0
1,64,0,240
1,65,58,0
1,65,0,120
1,65,51,120
1,65,0,120
1,65,55,120
1,65,0,120
1,65,51,120
1,65,0,120
1,65,54,120
1,65,0,120
1,65,58,120
1,65,0,120
1,63,61,120
1,68,53,240
1,63,0,20
1,72,48,220
1,68,0,20
1,75,64,220
1,72,0,20
1,80,61,220
1,75,0,20
1,76,52,220
1,80,0,20
1,76,0,220
1,77,52,0
1,77,0,120
1,77,44,120
1,77,0,120
1,77,68,120
1,77,0,120
1,77,60,120
1,77,0,120
1,77,53,120
1,77,0,120
1,77,73,120
1,77,0,120
1,77,77,120
1,79,55,160
1,77,0,20
1,77,55,140
1,79,0,20
1,75,65,140
1,77,0,20
1,80,57,220
1,75,0,20
1,84,51,220
1,80,0,20
1,84,0,220
1,89,66,240
1,87,51,480
1,89,0,20
1,85,45,220
1,87,0,20
1,79,50,220
1,85,0,20
1,79,0,220
1,82,58,240
1,80,43,480
1,82,0,20
1,75,44,220
1,80,0,20
1,72,38,220
1,75,0,20
1,72,0,220
1,75,48,240
1,75,0,120
1,75,44,120
1,75,0,120
1,75,65,120
1,75,0,120
1,75,69,120
1,75,0,120
1,75,63,120
1,75,0,120
1,75,71,120
1,75,0,120
1,77,61,120
1,75,59,240
1,77,0,20
1,72,52,220
1,75,0,20
1,68,52,220
1,72,0,20
1,63,47,220
1,68,0,20
1,63,0,220
1,64,55,0
1,64,0,240
1,65,57,0
1,65,0,120
1,65,47,120
1,65,0,120
1,65,59,120
1,65,0,120
1,65,55,120
1,65,0,120
1,65,61,120
1,65,0,120
1,65,63,120
1,65,0,120
1,63,58,120
1,68,54,240
1,63,0,20
1,72,50,220
1,68,0,20
1,75,43,220
1,72,0,20
1,80,52,220
1,75,0,20
1,76,47,220
1,80,0,20
1,76,0,220
1,77,58,0
1,77,0,120
1,77,50,120
1,77,0,120
1,77,61,120
1,77,0,120
1,77,57,120
1,77,0,120
1,77,65,120
1,77,0,120
1,77,65,120
1,77,0,120
1,77,75,120
1,79,55,160
1,77,0,20
1,77,55,140
1,79,0,20
1,75,66,140
1,77,0,20
1,80,64,220
1,75,0,20
1,84,60,220
1,80,0,20
1,84,0,220
1,89,67,240
1,87,52,480
1,89,0,20
1,85,48,220
1,87,0,20
1,79,52,220
1,85,0,20
1,79,0,220
1,80,65,240
1,80,0,960
1,72,55,0
1,72,0,80
1,74,49,0
1,74,0,80
1,72,65,0
1,72,0,80
1,74,53,0
1,74,0,80
1,72,67,0
1,72,0,80
1,71,56,0
1,71,0,80
1,70,87,0
1,74,62,480
1,70,0,20
1,75,62,220
1,74,0,20
1,74,67,220
1,77,67,0
1,75,0,20
1,77,0,340
1,74,0,0
1,70,85,120
1,70,0,240
1,75,73,240
1,77,69,240
1,75,0,20
1,75,76,220
1,79,76,0
1,77,0,20
1,79,0,340
1,75,0,0
1,70,87,120
1,70,0,240
1,77,73,240
1,79,68,240
1,77,0,20
1,77,83,220
1,80,83,0
1,79,0,20
1,80,0,340
1,77,0,0
1,82,77,120
1,79,77,0
1,73,65,0
1,73,0,960
1,79,0,0
1,82,0,0
1,82,75,0
1,79,75,0
1,73,63,0
1,73,0,240
1,79,0,0
1,82,0,0
1,82,69,0
1,79,69,0
1,73,58,0
1,73,0,240
1,79,0,0
1,82,0,0
1,82,70,0
1,73,59,0
1,79,70,0
1,84,59,480
1,82,0,20
1,82,50,220
1,84,0,20
1,73,0,220
1,79,0,0
1,72,53,0
1,80,53,0
1,82,0,20
1,80,0,220
1,72,0,0
1,80,69,240
1,71,69,0
1,82,47,480
1,80,0,20
1,80,46,220
1,82,0,20
1,71,0,220
1,70,52,0
1,79,52,0
1,80,0,20
1,79,0,220
1,70,0,0
1,79,66,240
1,70,66,0
1,80,53,480
1,79,0,20
1,79,47,220
1,80,0,20
1,70,0,220
1,68,56,0
1,77,56,0
1,79,0,20
1,77,0,220
1,68,0,0
1,77,64,240
1,68,64,0
1,79,52,480
1,77,0,20
1,77,48,220
1,79,0,20
1,68,0,220
1,75,53,0
1,67,53,0
1,77,0,20
1,67,0,220
1,75,0,0
1,70,44,240
1,70,0,240
1,74,46,0
1,74,0,240
1,75,57,0
1,75,0,240
1,76,44,0
1,76,0,240
1,74,56,0
1,77,56,0
1,77,0,360
1,74,0,0
1,70,65,120
1,70,0,240
1,74,63,0
1,74,0,240
1,75,57,0
1,75,0,240
1,77,51,0
1,77,0,240
1,75,64,0
1,79,64,0
1,79,0,360
1,75,0,0
1,70,68,120
1,70,0,240
1,76,73,0
1,76,0,240
1,77,70,0
1,77,0,240
1,79,64,0
1,79,0,240
1,77,80,0
1,80,80,0
1,80,0,360
1,77,0,0
1,82,74,120
1,79,74,0
1,73,62,0
1,73,0,720
1,79,0,0
1,82,0,0
1,79,44,0
1,82,44,0
1,82,0,240
1,79,0,0
1,73,62,0
1,82,52,240
1,79,52,0
1,79,0,240
1,82,0,0
1,73,0,0
1,73,48,0
1,82,56,240
1,84,54,240
1,82,0,20
1,82,51,220
1,84,0,20
1,73,0,220
1,72,56,0
1,80,56,0
1,82,0,20
1,80,0,220
1,72,0,0
1,71,47,240
1,80,51,240
1,82,54,240
1,80,0,20
1,80,50,220
1,82,0,20
1,71,0,220
1,70,50,0
1,79,50,0
1,80,0,20
1,79,0,220
1,70,0,0
1,70,63,240
1,79,46,240
1,80,59,240
1,79,0,20
1,79,54,220
1,80,0,20
1,70,0,220
1,68,50,0
1,77,50,0
1,79,0,20
1,77,0,460
1,68,0,0
1,67,45,0
1,75,45,0
1,75,0,240
1,67,0,0
1,75,59,240
1,75,0,120
1,75,52,120
1,75,0,120
1,75,61,120
1,75,0,120
1,75,57,120
1,75,0,120
1,75,64,120
1,75,0,120
1,75,67,120
1,75,0,120
1,75,70,120
1,75,0,120
1,75,64,120
1,75,0,120
1,75,71,120
1,75,0,120
1,75,67,120
1,75,0,120
1,77,61,120
1,77,0,240
1,75,57,0
1,75,0,240
1,72,50,0
1,72,0,240
1,68,56,0
1,68,0,240
1,63,51,0
1,63,0,240
1,64,55,0
1,64,0,240
1,65,68,0
1,65,0,120
1,65,62,120
1,65,0,120
1,65,62,120
1,65,0,120
1,65,53,120
1,65,0,120
1,65,55,120
1,65,0,120
1,65,62,120
1,65,0,120
1,63,68,120
1,63,0,240
1,68,55,0
1,68,0,240
1,72,50,0
1,72,0,240
1,75,58,0
1,75,0,240
1,80,59,0
1,80,0,240
1,76,56,0
1,76,0,240
1,77,41,0
1,77,0,120
1,77,63,120
1,77,0,120
1,77,61,120
1,77,0,120
1,77,63,120
1,77,0,120
1,77,58,120
1,77,0,120
1,77,54,120
1,77,0,120
1,77,58,120
1,77,0,160
1,79,52,0
1,79,0,160
1,77,52,0
1,77,0,160
1,75,55,0
1,75,0,240
1,80,68,0
1,80,0,240
1,84,49,0
1,84,0,240
1,89,55,240
1,89,0,480
1,87,55,0
1,87,0,240
1,85,51,0
1,85,0,240
1,79,55,0
1,79,0,240
1,82,60,240
1,82,0,480
1,80,58,0
1,80,0,240
1,75,50,0
1,75,0,240
1,72,38,0
1,72,0,240
1,75,48,240
1,75,0,120
1,75,55,120
1,75,0,120
1,75,66,120
1,75,0,120
1,75,73,120
1,75,0,120
1,75,69,120
1,75,0,120
1,75,64,120
1,75,0,120
1,77,53,120
1,77,0,240
1,75,61,0
1,75,0,240
1,72,50,0
1,72,0,240
1,68,40,0
1,68,0,240
1,63,48,0
1,63,0,240
1,64,43,0
1,64,0,240
1,65,43,0
1,65,0,120
1,65,50,120
1,65,0,120
1,65,53,120
1,65,0,120
1,65,56,120
1,65,0,120
1,65,46,120
1,65,0,120
1,65,43,120
1,65,0,120
1,63,48,120
1,63,0,240
1,68,48,0
1,68,0,240
1,72,45,0
1,72,0,240
1,75,61,0
1,75,0,240
1,80,52,0
1,80,0,240
1,76,45,0
1,76,0,240
1,77,50,0
1,77,0,120
1,77,45,120
1,77,0,120
1,77,60,120
1,77,0,120
1,77,65,120
1,77,0,120
1,77,66,120
1,77,0,120
1,77,51,120
1,77,0,120
1,77,70,120
1,77,0,160
1,79,55,0
1,79,0,160
1,77,48,0
1,77,0,160
1,75,55,0
1,75,0,240
1,80,51,0
1,80,0,240
1,84,46,0
1,84,0,240
1,89,55,240
1,89,0,480
1,87,42,0
1,87,0,240
1,85,39,0
1,85,0,240
1,79,47,0
1,79,0,240
1,80,57,240
1,80,0,960
1,68,55,0
1,68,0,480
1,75,62,0
1,78,62,0
1,71,48,960
1,74,48,0
1,78,0,20
1,75,0,0
1,72,48,460
1,75,48,0
1,71,0,20
1,74,0,0
1,72,0,220
1,75,0,0
1,68,50,240
1,68,0,120
1,68,42,120
1,68,0,120
1,68,56,120
1,68,0,480
1,78,60,0
1,82,60,0
1,76,48,960
1,79,48,0
1,82,0,20
1,78,0,0
1,77,49,460
1,80,49,0
1,76,0,20
1,79,0,0
1,77,0,220
1,80,0,0
1,68,49,240
1,68,0,120
1,68,42,120
1,68,0,120
