track,note,velocity,time
1,61,110,11520
1,58,110,0
1,65,110,0
1,58,110,0
1,65,110,0
1,61,110,0
1,63,110,0
1,56,110,0
1,60,110,0
1,56,110,0
1,60,110,0
1,63,110,0
1,58,110,0
1,61,110,0
1,65,110,0
1,58,110,0
1,65,110,0
1,61,110,0
1,60,110,0
1,63,110,0
1,56,110,0
1,56,110,0
1,60,110,0
1,63,110,0
1,58,110,0
1,65,110,0
1,61,110,0
1,58,110,0
1,65,110,0
1,61,110,0
1,60,110,0
1,56,110,0
1,63,110,0
1,56,110,0
1,60,110,0
1,63,110,0
1,65,110,0
1,58,110,0
1,61,110,0
1,65,110,0
1,58,110,0
1,61,110,0
1,56,110,0
1,60,110,0
1,63,110,0
1,56,110,0
1,60,110,0
1,63,110,0
1,61,110,0
1,58,110,0
1,65,110,0
1,58,110,0
1,65,110,0
1,61,110,0
1,60,110,0
1,63,110,0
1,56,110,0
1,56,110,0
1,60,110,0
1,63,110,0
1,65,110,0
1,61,110,0
1,58,110,0
1,58,110,0
1,65,110,0
1,61,110,0
1,56,110,0
1,63,110,0
1,60,110,0
1,56,110,0
1,60,110,0
1,63,110,0
1,58,110,0
1,65,110,0
1,61,110,0
1,65,110,0
1,58,110,0
1,61,110,0
1,56,110,0
1,63,110,0
1,60,110,0
1,56,110,0
1,60,110,0
1,63,110,0
1,65,110,0
1,61,110,0
1,58,110,0
1,58,110,0
1,65,110,0
1,61,110,0
1,56,110,0
1,63,110,0
1,60,110,0
1,60,110,0
1,56,110,0
1,60,110,0
1,53,110,0
1,60,110,0
1,53,110,0
1,56,110,0
1,58,110,0
1,51,110,0
1,55,110,0
1,51,110,0
1,58,110,0
1,55,110,0
1,56,110,0
1,60,110,0
1,53,110,0
1,56,110,0
1,53,110,0
1,60,110,0
1,58,110,0
1,51,110,0
1,55,110,0
1,58,110,0
1,51,110,0
1,55,110,0
1,56,110,0
1,53,110,0
1,60,110,0
1,56,110,0
1,53,110,0
1,60,110,0
1,58,110,0
1,51,110,0
1,55,110,0
1,51,110,0
1,58,110,0
1,55,110,0
1,60,110,0
1,53,110,0
1,56,110,0
1,60,110,0
1,53,110,0
1,56,110,0
1,58,110,0
1,51,110,0
1,55,110,0
1,57,110,0
1,53,110,0
1,60,110,0
1,62,110,0
1,61,110,0
1,58,110,0
1,65,110,0
1,58,110,0
1,65,110,0
1,61,110,0
1,63,110,0
1,60,110,0
1,56,110,0
1,56,110,0
1,63,110,0
1,60,110,0
1,65,110,0
1,61,110,0
1,58,110,0
1,65,110,0
1,61,110,0
1,58,110,0
1,56,110,0
1,63,110,0
1,60,110,0
1,56,110,0
1,63,110,0
1,60,110,0
1,61,110,0
1,65,110,0
1,58,110,0
1,58,110,0
1,65,110,0
1,61,110,0
1,63,110,0
1,56,110,0
1,60,110,0
1,56,110,0
1,63,110,0
1,60,110,0
1,61,110,0
1,65,110,0
1,58,110,0
1,58,110,0
1,65,110,0
1,61,110,0
1,63,110,0
1,56,110,0
1,60,110,0
1,58,110,0
1,63,110,0
1,66,110,0
1,63,110,0
1,59,110,0
1,66,110,0
1,63,110,0
1,58,110,0
1,66,110,0
1,66,110,0
1,63,110,0
1,59,110,0
1,56,110,0
1,63,110,0
1,59,110,0
1,58,110,0
1,63,110,0
1,66,110,0
1,63,110,0
1,59,110,0
1,66,110,0
1,58,110,0
1,63,110,0
1,66,110,0
1,58,110,0
1,63,110,0
1,66,110,0
1,63,110,0
1,59,110,0
1,66,110,0
1,63,110,0
1,56,110,0
1,59,110,0
1,58,110,0
1,61,110,0
1,65,110,0
1,58,110,0
1,65,110,0
1,61,110,0
1,60,110,0
1,56,110,0
1,63,110,0
1,56,110,0
1,63,110,0
1,60,110,0
1,61,110,0
1,65,110,0
1,58,110,0
1,58,110,0
1,65,110,0
1,61,110,0
1,63,110,0
1,56,110,0
1,60,110,0
1,56,110,0
1,63,110,0
1,60,110,0
1,65,110,0
1,61,110,0
1,58,110,0
1,65,110,0
1,58,110,0
1,61,110,0
1,56,110,0
1,60,110,0
1,63,110,0
1,56,110,0
1,63,110,0
1,60,110,0
1,61,110,0
1,65,110,0
1,58,110,0
1,65,110,0
1,58,110,0
1,61,110,0
1,63,110,0
1,56,110,0
1,60,110,0
1,56,110,1680
1,60,110,0
1,63,110,0
1,61,110,0
1,65,110,0
1,58,110,0
1,65,110,0
1,58,110,0
1,61,110,0
1,63,110,0
1,56,110,0
1,60,110,0
1,56,110,0
1,63,110,0
1,60,110,0
1,61,110,0
1,58,110,0
1,65,110,0
1,58,110,0
1,65,110,0
1,61,110,0
1,63,110,0
1,56,110,0
1,60,110,0
1,56,110,0
1,60,110,0
1,63,110,0
1,56,110,0
1,53,110,0
1,60,110,0
1,53,110,0
1,56,110,0
1,51,110,0
1,58,110,0
1,55,110,0
1,51,110,0
1,58,110,0
1,55,110,0
1,56,110,0
1,53,110,0
1,60,110,0
1,60,110,0
1,53,110,0
1,56,110,0
1,51,110,0
1,58,110,0
1,55,110,0
1,53,110,0
1,57,110,0
1,60,110,0
1,58,110,0
1,65,110,0
1,61,110,0
1,65,110,0
1,61,110,0
1,58,110,0
1,63,110,0
1,56,110,0
1,60,110,0
1,63,110,0
1,56,110,0
1,60,110,0
1,61,110,0
1,65,110,0
1,58,110,0
1,58,110,0
1,65,110,0
1,61,110,0
1,56,110,0
1,63,110,0
1,60,110,0
1,56,110,0
1,63,110,0
1,60,110,0
1,61,110,0
1,65,110,0
1,58,110,0
1,58,110,0
1,61,110,0
1,65,110,0
1,56,110,0
1,63,110,0
1,60,110,0
1,56,110,0
1,63,110,0
1,60,110,0
1,61,110,0
1,58,110,0
1,65,110,0
1,58,110,0
1,61,110,0
1,65,110,0
1,56,110,0
1,63,110,0
1,60,110,0
1,70,110,0
1,66,110,0
1,58,110,0
1,63,110,0
1,66,110,0
1,63,110,0
1,59,110,0
1,58,110,0
1,63,110,0
1,66,110,0
1,58,110,0
1,63,110,0
1,66,110,0
1,63,110,0
1,59,110,0
1,66,110,0
1,56,110,0
1,59,110,0
1,63,110,0
1,58,110,0
1,63,110,0
1,66,110,0
1,59,110,0
1,66,110,0
1,63,110,0
1,58,110,0
1,63,110,0
1,66,110,0
1,58,110,0
1,66,110,0
1,63,110,0
1,63,110,0
1,66,110,0
1,59,110,0
1,59,110,0
1,56,110,0
1,63,110,0
1,65,110,0
1,58,110,0
1,61,110,0
1,58,110,0
1,61,110,0
1,65,110,0
1,56,110,0
1,63,110,0
1,60,110,0
1,56,110,0
1,63,110,0
1,60,110,0
1,61,110,0
1,58,110,0
1,65,110,0
1,58,110,0
1,61,110,0
1,65,110,0
1,63,110,0
1,60,110,0
1,56,110,0
1,56,110,0
1,60,110,0
1,63,110,0
1,58,110,0
1,61,110,0
1,65,110,0
1,61,110,0
1,58,110,0
1,65,110,0
1,56,110,0
1,63,110,0
1,60,110,0
1,56,110,0
1,63,110,0
1,60,110,0
1,61,110,0
1,58,110,0
1,65,110,0
1,65,110,0
1,61,110,0
1,58,110,0
1,63,110,0
1,56,110,0
1,60,110,0
1,56,110,0
1,60,110,0
1,63,110,0
1,61,110,0
1,58,110,0
1,65,110,0
1,58,110,0
1,65,110,0
1,61,110,0
1,63,110,0
1,56,110,0
1,60,110,0
1,56,110,0
1,60,110,0
1,63,110,0
1,61,110,0
1,58,110,0
1,65,110,0
1,58,110,0
1,61,110,0
1,65,110,0
1,56,110,0
1,63,110,0
1,60,110,0
1,56,110,0
1,63,110,0
1,60,110,0
1,61,110,0
1,58,110,0
1,65,110,0
1,61,110,0
1,58,110,0
1,65,110,0
1,63,110,0
1,56,110,0
1,60,110,0
1,56,110,0
1,63,110,0
1,60,110,0
1,61,110,0
1,58,110,0
1,65,110,0
1,58,110,0
1,65,110,0
1,61,110,0
1,63,110,0
1,56,110,0
1,60,110,0
1,56,110,0
1,63,110,0
1,60,110,0
1,61,110,0
1,65,110,0
1,58,110,0
1,58,110,0
1,65,110,0
1,61,110,0
1,56,110,0
1,63,110,0
1,60,110,0
1,56,110,0
1,63,110,0
1,60,110,0
1,58,110,0
1,61,110,0
1,65,110,0
1,58,110,0
1,65,110,0
1,61,110,0
1,63,110,0
1,56,110,0
1,60,110,0
1,56,110,0
1,63,110,0
1,60,110,0
1,61,110,0
1,58,110,0
1,65,110,0
1,58,110,0
1,61,110,0
1,65,110,0
1,63,110,0
1,56,110,0
1,60,110,0
1,56,110,0
1,60,110,0
1,63,110,0
1,61,110,0
1,58,110,0
1,65,110,0
2,85,119,19200
2,73,119,240
2,84,119,0
2,73,119,0
2,82,119,0
2,73,119,0
2,80,119,0
2,73,119,0
2,82,119,0
2,73,119,0
2,80,119,0
2,73,119,0
2,77,119,0
2,73,119,0
2,75,119,0
2,85,119,0
2,73,119,240
2,84,119,0
2,73,119,0
2,82,119,0
2,73,119,0
2,80,119,0
2,73,119,0
2,82,119,0
2,73,119,0
2,80,119,0
2,73,119,0
2,77,119,0
2,73,119,0
2,75,119,0
2,73,119,0
2,85,119,76560
2,73,119,240
2,84,119,0
2,73,119,0
2,82,119,0
2,73,119,0
2,80,119,0
2,73,119,0
2,82,119,0
2,73,119,0
2,80,119,0
2,73,119,0
2,77,119,0
2,73,119,0
2,75,119,0
2,85,119,0
2,73,119,240
2,84,119,0
2,73,119,0
2,82,119,0
2,73,119,0
2,80,119,0
2,73,119,0
2,82,119,0
2,73,119,0
2,80,119,0
2,73,119,0
2,77,119,0
2,73,119,0
2,75,119,0
2,73,119,0
2,85,119,68880
2,73,119,240
2,84,119,0
2,73,119,0
2,82,119,0
2,73,119,0
2,80,119,0
2,73,119,0
2,82,119,0
2,73,119,0
2,80,119,0
2,73,119,0
2,77,119,0
2,73,119,0
2,75,119,0
2,85,119,0
2,73,119,240
2,84,119,0
2,73,119,0
2,82,119,0
2,73,119,0
2,80,119,0
2,73,119,0
2,82,119,0
2,73,119,0
2,80,119,0
2,73,119,0
2,77,119,0
2,73,119,0
2,75,119,0
2,73,119,0
2,85,119,0
2,73,119,0
2,84,119,0
2,73,119,0
2,82,119,0
2,73,119,0
2,80,119,0
2,73,119,0
2,82,119,0
2,73,119,0
2,80,119,0
2,73,119,0
2,77,119,0
2,73,119,0
2,75,119,0
2,85,119,0
2,73,119,240
2,84,119,0
2,73,119,0
2,82,119,0
2,73,119,0
2,80,119,0
2,73,119,0
2,82,119,0
2,73,119,0
2,80,119,0
2,73,119,0
2,77,119,0
2,73,119,0
2,75,119,0
2,73,119,0
2,85,119,0
2,73,119,0
2,84,119,0
2,73,119,0
2,82,119,0
2,73,119,0
2,80,119,0
2,73,119,0
2,82,119,0
2,73,119,0
2,80,119,0
2,73,119,0
2,77,119,0
2,73,119,0
2,75,119,0
2,85,119,0
2,73,119,240
2,84,119,0
2,73,119,0
2,82,119,0
2,73,119,0
2,80,119,0
2,73,119,0
2,82,119,0
2,73,119,0
2,80,119,0
2,73,119,0
2,77,119,0
2,73,119,0
2,75,119,0
2,73,119,0
2,85,119,0
2,73,119,0
2,84,119,0
2,73,119,0
2,82,119,0
2,73,119,0
2,80,119,0
2,73,119,0
2,82,119,0
2,73,119,0
2,80,119,0
2,73,119,0
2,77,119,0
2,73,119,0
2,75,119,0
2,85,119,0
2,73,119,240
2,84,119,0
2,73,119,0
2,82,119,0
2,73,119,0
2,80,119,0
2,73,119,0
2,82,119,0
2,73,119,0
2,80,119,0
2,73,119,0
2,77,119,0
2,73,119,0
2,75,119,0
2,73,119,0
2,85,119,0
2,73,119,0
2,84,119,0
2,73,119,0
2,82,119,0
2,73,119,0
2,80,119,0
2,73,119,0
2,82,119,0
2,73,119,0
2,80,119,0
2,73,119,0
2,77,119,0
2,73,119,0
2,75,119,0
2,85,119,0
2,73,119,240
2,84,119,0
2,73,119,0
2,82,119,0
2,73,119,0
2,80,119,0
2,73,119,0
2,82,119,0
2,73,119,0
2,80,119,0
2,73,119,0
2,77,119,0
2,73,119,0
2,75,119,0
2,73,119,0
2,85,119,0
2,73,119,0
2,84,119,0
2,73,119,0
2,82,119,0
2,73,119,0
2,80,119,0
2,73,119,0
2,82,119,0
2,73,119,0
2,80,119,0
2,73,119,0
2,77,119,0
2,73,119,0
2,75,119,0
3,46,120,111840
3,34,120,0
3,34,120,480
3,46,120,0
3,46,120,480
3,34,120,0
3,34,120,480
3,46,120,0
3,34,120,480
3,46,120,0
3,34,120,480
3,46,120,0
3,34,120,480
3,46,120,0
3,34,120,480
3,46,120,0
3,34,120,480
3,46,120,0
3,46,120,480
3,34,120,0
3,34,120,480
3,46,120,0
3,34,120,480
3,46,120,0
3,34,120,480
3,46,120,0
3,34,120,480
3,46,120,0
3,34,120,480
3,46,120,0
3,46,120,480
3,34,120,0
4,77,62,1920
4,65,24,640
4,75,50,1280
4,63,5,117
4,84,62,1579
4,72,9,90
4,82,56,1830
4,70,29,137
4,65,24,326
4,70,68,240
4,77,53,0
4,68,68,0
4,70,83,0
4,68,68,0
4,85,104,0
4,70,65,4
4,77,56,4
4,84,104,0
4,82,104,0
4,80,101,0
4,65,42,65
4,68,104,9
4,82,124,0
4,80,107,0
4,77,80,0
4,79,56,0
4,75,116,0
4,70,9,37
4,85,125,0
4,77,38,30
4,84,116,0
4,82,89,0
4,80,89,0
4,65,38,96
4,68,59,13
4,82,95,0
4,80,104,0
4,77,98,0
4,75,68,0
4,70,53,0
4,77,34,0
4,68,68,240
4,70,62,0
4,77,74,0
4,68,83,0
4,70,56,0
4,68,62,0
4,70,53,0
4,68,50,0
4,65,74,240
4,63,68,0
4,65,59,0
4,63,56,0
4,65,46,240
4,63,59,0
4,65,38,0
4,63,74,0
4,65,71,0
4,73,14,240
4,82,42,0
4,80,71,0
4,82,56,0
4,80,77,0
4,77,38,720
4,82,77,0
4,77,42,0
4,80,89,0
4,77,59,0
4,82,59,0
4,77,68,0
4,80,56,0
4,78,53,240
4,70,14,0
4,75,71,0
4,82,9,0
4,78,42,0
4,75,50,0
4,83,46,0
4,71,59,0
4,82,62,0
4,75,74,0
4,70,68,0
4,80,56,0
4,78,42,480
4,83,46,0
4,78,68,0
4,75,74,0
4,71,50,0
4,75,83,240
4,66,50,0
4,68,53,0
4,71,92,0
4,80,38,480
4,70,42,0
4,75,83,0
4,78,42,240
4,70,53,63
4,82,1,240
4,82,104,0
4,78,5,240
4,78,104,0
4,75,104,480
4,71,9,0
4,71,42,0
4,78,65,0
4,75,71,0
4,83,53,0
4,75,53,0
4,78,89,0
4,70,53,0
4,82,1,720
4,82,24,0
4,75,74,240
4,71,59,0
4,78,68,0
4,68,50,240
4,71,56,0
4,75,50,0
4,70,56,230
4,77,59,2
4,85,104,8
4,84,112,0
4,82,114,0
4,80,112,0
4,82,126,0
4,65,53,14
4,68,59,2
4,80,118,0
4,77,120,0
4,75,125,0
4,70,34,34
4,77,46,13
4,85,116,0
4,84,112,0
4,82,107,0
4,80,116,0
4,68,59,25
4,72,71,0
4,82,89,0
4,80,89,0
4,77,83,0
4,75,98,0
4,70,68,0
4,77,56,0
4,68,74,0
4,70,38,0
4,68,56,0
4,70,56,0
4,68,53,0
4,70,59,0
4,68,56,0
4,65,104,224
4,77,112,3778
4,70,122,448
4,82,56,12
4,70,42,0
4,75,98,425
4,80,83,0
4,75,89,497
4,68,77,469
4,68,38,0
4,80,50,0
4,75,80,441
4,75,42,39
4,80,104,418
4,75,98,486
4,70,89,226
4,82,5,0
4,70,56,0
4,77,83,0
4,75,122,457
4,80,112,2
4,75,104,483
4,68,83,215
4,75,59,0
4,68,62,0
4,80,59,0
4,75,116,2
4,80,89,4
4,75,95,472
4,70,86,223
4,82,9,0
4,77,77,0
4,70,74,0
4,75,120,440
4,80,104,6
4,75,118,496
4,68,89,196
4,80,62,0
4,75,50,0
4,68,68,0
4,75,98,423
4,80,116,465
4,75,120,424
4,70,118,208
4,77,59,0
4,82,62,0
4,70,59,0
4,75,127,435
4,80,98,441
4,75,125,485
4,68,112,25
4,75,65,0
