track,note,velocity,time
3,59,63,1824
3,59,0,32
3,64,63,16
3,64,0,80
3,66,63,16
3,66,0,80
3,68,63,16
3,68,0,80
3,59,63,64
3,59,0,32
3,64,63,16
3,64,0,80
3,66,63,16
3,66,0,112
3,59,63,128
3,59,0,32
3,61,63,16
3,61,0,32
3,64,63,16
3,64,0,32
3,66,63,16
3,66,0,80
3,68,63,16
3,68,0,80
3,59,63,64
3,59,0,32
3,61,63,16
3,61,0,32
3,64,63,16
3,64,0,32
3,66,63,16
3,66,0,80
3,61,63,16
3,61,0,32
3,59,63,16
3,59,0,32
3,66,63,16
3,66,0,80
3,68,63,16
3,68,0,112
3,61,63,416
3,61,0,32
3,61,63,16
3,61,0,32
3,64,63,16
3,64,0,32
3,66,63,16
3,66,0,80
3,68,63,16
3,68,0,112
3,59,63,608
3,59,0,32
3,64,63,16
3,64,0,80
3,66,63,16
3,66,0,80
3,68,63,16
3,68,0,80
3,59,63,64
3,59,0,32
3,64,63,16
3,64,0,80
3,66,63,16
3,66,0,112
3,59,63,128
3,59,0,32
3,59,63,16
3,59,0,32
3,64,63,16
3,64,0,32
3,64,63,16
3,64,0,32
3,68,63,16
3,68,0,48
3,64,63,0
3,64,0,32
3,64,63,16
3,64,0,32
3,64,63,16
3,64,0,32
3,59,63,16
3,59,0,32
3,64,63,16
3,64,0,80
3,66,63,16
3,66,0,80
3,61,63,16
3,61,0,32
3,59,63,16
3,59,0,32
3,66,63,16
3,66,0,80
3,68,63,16
3,68,0,112
3,59,63,368
3,59,0,32
3,59,63,16
3,59,0,32
3,61,63,16
3,61,0,32
3,64,63,16
3,64,0,32
3,66,63,16
3,66,0,80
3,68,63,16
3,68,0,112
3,68,63,464
3,68,0,32
3,71,63,16
3,71,0,32
3,73,63,16
3,73,0,80
3,71,63,16
3,71,0,32
3,69,63,16
3,69,0,32
3,68,63,16
3,68,0,16
3,69,63,8
3,69,0,24
3,68,63,0
3,68,0,32
3,66,63,16
3,66,0,32
3,64,63,16
3,64,0,32
3,66,63,16
3,66,0,80
3,68,63,16
3,68,0,112
3,73,63,224
3,73,0,32
3,71,63,16
3,71,0,32
3,69,63,16
3,69,0,32
3,68,63,16
3,68,0,80
3,66,63,16
3,66,0,32
3,64,63,16
3,64,0,32
3,66,63,16
3,66,0,80
3,68,63,16
3,68,0,112
3,73,63,224
3,73,0,32
3,71,63,16
3,71,0,32
3,73,63,16
3,73,0,32
3,69,63,16
3,69,0,32
3,71,63,16
3,71,0,32
3,69,63,16
3,69,0,32
3,68,63,16
3,68,0,32
3,69,63,16
3,69,0,24
3,68,63,0
3,68,0,24
3,66,63,0
3,66,0,64
3,61,63,104
3,61,0,16
3,64,63,8
3,64,0,32
3,68,63,16
3,68,0,80
3,69,63,64
3,69,0,32
3,69,63,16
3,69,0,80
3,69,63,16
3,69,0,120
3,67,63,0
3,67,0,24
3,66,63,0
3,66,0,72
3,67,63,0
3,67,0,24
3,69,63,0
3,69,0,288
3,70,63,0
3,70,0,96
3,71,63,0
3,71,0,64
3,59,63,704
3,59,0,32
3,64,63,16
3,64,0,32
3,64,63,16
3,64,0,32
3,66,63,16
3,66,0,80
3,68,63,16
3,68,0,80
3,59,63,64
3,59,0,32
3,64,63,16
3,64,0,16
3,64,63,8
3,64,0,56
3,66,63,16
3,66,0,112
3,59,63,128
3,59,0,32
3,64,63,16
3,64,0,16
3,64,63,8
3,64,0,40
3,64,63,8
3,64,0,16
3,68,63,8
3,68,0,80
3,64,63,16
3,64,0,16
3,64,63,8
3,64,0,56
3,64,63,16
3,64,0,32
3,61,63,16
3,61,0,32
3,64,63,16
3,64,0,80
3,66,63,16
3,66,0,80
3,61,63,16
3,61,0,32
3,59,63,16
3,59,0,32
3,66,63,16
3,66,0,80
3,68,63,16
3,68,0,112
3,59,63,296
3,59,0,16
3,59,63,8
3,59,0,16
3,59,63,8
3,59,0,64
3,61,63,8
3,61,0,32
3,61,63,16
3,61,0,32
3,64,63,16
3,64,0,32
3,66,63,16
3,66,0,80
3,68,63,16
3,68,0,112
3,64,63,488
3,64,0,16
3,68,63,8
3,68,0,16
3,71,63,8
3,71,0,56
3,76,63,16
3,76,0,32
3,75,63,16
3,75,0,32
3,76,63,16
3,76,0,32
3,75,63,16
3,75,0,80
3,71,63,16
3,71,0,112
3,68,63,32
3,68,0,32
3,71,63,16
3,71,0,32
3,73,63,16
3,73,0,32
3,68,63,16
3,68,0,174
3,68,63,66
3,68,0,32
3,66,63,16
3,66,0,32
3,68,63,16
3,68,0,32
3,64,63,16
3,64,0,80
3,64,63,16
3,64,0,32
3,64,63,16
3,64,0,24
3,59,63,0
3,59,0,56
3,61,63,16
3,61,0,32
3,64,63,16
3,64,0,32
3,64,63,16
3,64,0,32
3,66,63,16
3,66,0,80
3,61,63,16
3,61,0,32
3,59,63,16
3,59,0,32
3,66,63,16
3,66,0,96
3,68,63,0
3,68,0,112
3,59,63,368
3,59,0,32
3,59,63,16
3,59,0,32
3,61,63,16
3,61,0,32
3,64,63,16
3,64,0,32
3,66,63,16
3,66,0,80
3,68,63,16
3,68,0,112
3,68,63,464
3,68,0,32
3,71,63,16
3,71,0,32
3,73,63,16
3,73,0,80
3,71,79,16
3,71,0,32
3,69,79,16
3,69,0,32
3,68,79,16
3,68,0,24
3,69,79,0
3,69,0,16
3,68,79,8
3,68,0,32
3,66,79,16
3,66,0,32
3,64,79,16
3,64,0,32
3,66,79,16
3,66,0,80
3,68,79,16
3,68,0,112
3,73,79,224
3,73,0,32
3,71,79,16
3,71,0,32
3,69,79,16
3,69,0,32
3,68,79,16
3,68,0,80
3,66,79,16
3,66,0,32
3,64,79,16
3,64,0,32
3,66,79,16
3,66,0,80
3,68,79,16
3,68,0,112
3,73,79,224
3,73,0,32
3,71,79,16
3,71,0,32
3,73,79,16
3,73,0,32
3,69,79,16
3,69,0,32
3,71,79,16
3,71,0,32
3,69,79,16
3,69,0,32
3,68,79,16
3,68,0,32
3,69,79,16
3,69,0,24
3,68,79,0
3,68,0,24
3,66,79,0
3,66,0,64
3,61,79,104
3,61,0,16
3,64,79,8
3,64,0,32
3,68,79,16
3,68,0,80
3,69,79,64
3,69,0,32
3,69,79,16
3,69,0,80
3,69,79,16
3,69,0,120
3,67,79,0
3,67,0,24
3,66,79,0
3,66,0,72
3,67,79,0
3,67,0,24
3,69,79,0
3,69,0,288
3,70,79,0
3,70,0,96
3,71,79,0
3,71,0,62
3,76,79,706
3,76,0,62
3,75,79,34
3,75,0,16
3,76,79,8
3,76,0,40
3,75,79,8
3,75,0,40
3,71,79,8
3,71,0,136
3,68,79,56
3,68,0,16
3,68,79,8
3,68,0,16
3,66,79,8
3,66,0,16
3,68,79,8
3,68,0,16
3,71,79,8
3,71,0,16
3,66,79,8
3,66,0,16
3,68,79,8
3,68,0,88
3,76,79,176
3,76,0,32
3,75,79,16
3,75,0,16
3,76,79,8
3,76,0,40
3,75,79,8
3,75,0,40
3,73,79,8
3,73,0,40
3,71,79,8
3,71,0,40
3,69,79,8
3,68,79,48
3,69,0,8
3,68,0,400
3,69,79,0
3,69,0,254
3,69,79,418
3,69,0,48
3,68,79,0
3,68,0,272
3,63,79,16
3,63,0,80
3,71,79,64
3,71,0,32
3,75,79,16
3,75,0,32
3,75,79,16
3,75,0,32
3,75,79,16
3,75,0,32
3,75,79,64
3,75,0,32
3,75,79,16
3,75,0,32
3,75,79,16
3,75,0,32
3,71,79,16
3,71,0,32
3,75,79,16
3,75,0,32
3,75,79,16
3,75,0,32
3,75,79,16
3,75,0,32
3,75,79,64
3,75,0,32
3,75,79,16
3,75,0,32
3,75,79,16
3,75,0,32
3,71,79,16
3,71,0,32
3,75,79,16
3,75,0,32
3,75,79,16
3,75,0,32
3,75,79,16
3,75,0,32
3,75,79,64
3,75,0,32
3,75,79,16
3,75,0,32
3,75,79,16
3,75,0,32
3,71,79,16
3,71,0,832
4,57,63,556
4,57,0,158
4,64,63,130
4,64,0,240
4,64,63,24
4,64,0,88
4,56,63,128
4,56,0,128
4,56,63,16
4,56,0,80
4,56,63,16
4,56,0,112
4,56,63,32
4,56,0,128
4,56,63,16
4,56,0,80
4,56,63,16
4,56,0,112
4,56,63,32
4,56,0,128
4,56,63,16
4,56,0,80
4,56,63,16
4,56,0,112
4,56,63,32
4,56,0,128
4,56,63,16
4,56,0,80
4,56,63,16
4,56,0,112
4,56,63,32
4,56,0,128
4,56,63,16
4,56,0,80
4,56,63,16
4,56,0,112
4,56,63,32
4,56,0,128
4,56,63,16
4,56,0,80
4,56,63,16
4,56,0,32
4,64,63,112
4,64,0,128
4,64,63,16
4,64,0,80
4,64,63,16
4,64,0,112
4,64,63,32
4,64,0,128
4,64,63,16
4,64,0,80
4,64,63,16
4,64,0,32
4,56,63,112
4,56,0,128
4,56,63,16
4,56,0,80
4,56,63,16
4,56,0,112
4,56,63,32
4,56,0,128
4,56,63,16
4,56,0,80
4,56,63,16
4,56,0,112
4,56,63,32
4,56,0,128
4,56,63,16
4,56,0,80
4,56,63,16
4,56,0,112
4,56,63,32
4,56,0,128
4,56,63,16
4,56,0,80
4,56,63,16
4,56,0,112
4,56,63,32
4,56,0,128
4,56,63,16
4,56,0,80
4,56,63,16
4,56,0,112
4,56,63,32
4,56,0,128
4,56,63,16
4,56,0,80
4,56,63,16
4,56,0,32
4,64,63,112
4,64,0,128
4,64,63,16
4,64,0,80
4,64,63,16
4,64,0,112
4,64,63,32
4,64,0,128
4,64,63,16
4,64,0,80
4,64,63,16
4,64,0,32
4,56,63,112
4,56,0,128
4,56,63,16
4,56,0,80
4,56,63,16
4,56,0,32
4,52,63,16
4,52,0,64
4,63,63,32
4,63,0,32
4,63,63,16
4,63,0,174
4,73,63,66
4,73,0,62
4,73,63,34
4,73,0,62
4,71,63,34
4,71,0,62
4,71,63,34
4,71,0,32
4,73,63,16
4,73,0,172
4,73,63,68
4,73,0,62
4,69,63,34
4,69,0,62
4,73,63,34
4,73,0,64
4,73,63,32
4,73,0,64
4,71,63,32
4,71,0,96
4,73,63,48
4,73,0,112
4,73,63,32
4,73,0,64
4,69,63,32
4,69,0,64
4,73,63,32
4,73,0,64
4,73,63,32
4,73,0,64
4,73,63,32
4,73,0,64
4,71,63,32
4,71,0,64
4,71,63,32
4,71,0,32
4,73,63,16
4,73,0,80
4,61,63,16
4,61,0,32
4,73,63,16
4,73,0,222
4,69,63,66
4,69,0,96
4,69,63,48
4,69,0,430
4,56,63,290
4,56,0,128
4,56,63,16
4,56,0,80
4,56,63,16
4,56,0,112
4,56,63,32
4,56,0,128
4,56,63,16
4,56,0,80
4,56,63,16
4,56,0,112
4,56,63,32
4,56,0,128
4,56,63,16
4,56,0,80
4,56,63,16
4,56,0,112
4,56,63,32
4,56,0,128
4,56,63,16
4,56,0,80
4,56,63,16
4,56,0,112
4,56,63,32
4,56,0,128
4,56,63,16
4,56,0,80
4,56,63,16
4,56,0,112
4,56,63,32
4,56,0,128
4,56,63,16
4,56,0,80
4,56,63,16
4,56,0,32
4,64,63,112
4,64,0,128
4,64,63,16
4,64,0,80
4,64,63,16
4,64,0,112
4,64,63,32
4,64,0,128
4,64,63,16
4,64,0,80
4,64,63,16
4,64,0,32
4,56,63,112
4,56,0,128
4,56,63,16
4,56,0,80
4,56,63,16
4,56,0,110
4,56,63,34
4,56,0,128
4,56,63,16
4,56,0,80
4,56,63,16
4,56,0,110
4,56,63,34
4,56,0,128
4,56,63,16
4,56,0,80
4,56,63,16
4,56,0,110
4,56,63,34
4,56,0,128
4,56,63,16
4,56,0,80
4,56,63,16
4,56,0,110
4,56,63,34
4,56,0,128
4,56,63,16
4,56,0,80
4,56,63,16
4,56,0,110
4,56,63,34
4,56,0,128
4,56,63,16
4,56,0,80
4,56,63,16
4,56,0,32
4,64,63,112
4,64,0,128
4,64,63,16
4,64,0,80
4,64,63,16
4,64,0,112
4,64,63,32
4,64,0,128
4,64,63,16
4,64,0,80
4,64,63,16
4,64,0,32
4,56,63,112
4,56,0,128
4,56,63,16
4,56,0,80
4,56,63,16
4,56,0,32
4,52,63,16
4,52,0,64
4,63,63,32
4,63,0,32
4,63,63,16
4,63,0,174
4,73,79,66
4,73,0,64
4,71,79,32
4,71,0,64
4,71,79,32
4,71,0,64
4,71,79,32
4,71,0,32
4,73,79,16
4,73,0,80
4,69,79,16
4,69,0,32
4,73,79,16
4,73,0,64
4,69,79,32
4,69,0,64
4,73,79,32
4,73,0,64
4,73,79,32
4,73,0,64
4,73,79,32
4,73,0,64
4,71,79,32
4,71,0,96
4,73,79,48
4,73,0,80
4,69,79,16
4,69,0,32
4,73,79,16
4,73,0,64
4,69,79,32
4,69,0,64
4,73,79,32
4,73,0,64
4,73,79,32
4,73,0,62
4,73,79,34
4,73,0,62
4,71,79,34
4,71,0,62
4,68,79,34
4,68,0,32
4,73,79,16
4,73,0,80
4,61,79,16
4,61,0,32
4,73,79,16
4,73,0,222
4,69,79,66
4,69,0,96
4,69,79,48
4,69,0,430
4,71,79,434
4,71,0,208
4,71,79,32
4,71,0,16
4,71,79,8
4,71,0,40
4,71,79,8
4,71,0,16
4,71,79,8
4,71,0,32
4,71,79,16
4,71,0,80
4,68,79,16
4,68,0,32
4,71,79,16
4,71,0,288
4,68,79,48
4,68,0,32
4,71,79,16
4,71,0,224
4,71,79,16
4,71,0,80
4,71,79,16
4,71,0,32
4,71,79,16
4,71,0,64
4,71,79,32
4,71,0,128
4,71,79,16
4,71,0,64
4,71,79,32
4,71,0,32
4,71,79,16
4,71,0,64
4,71,79,32
4,71,0,222
4,73,79,162
4,73,0,32
4,73,79,16
4,73,0,80
4,73,79,16
4,73,0,64
4,73,79,32
4,73,0,32
4,73,79,16
4,73,0,64
4,76,79,32
4,76,0,128
4,75,79,16
4,75,0,112
4,71,79,32
4,71,0,64
4,71,79,32
4,71,0,128
4,71,79,16
4,71,0,32
4,71,79,64
4,71,0,32
4,71,79,16
4,71,0,64
4,71,79,32
4,71,0,128
4,71,79,16
4,71,0,32
4,71,79,64
4,71,0,32
4,71,79,16
4,71,0,64
4,71,79,32
4,71,0,128
4,71,79,16
4,71,0,32
4,71,79,64
4,71,0,32
4,71,79,16
4,71,0,64
4,71,79,32
4,71,0,128
4,71,79,16
4,71,0,32
4,71,79,64
4,71,0,32
4,71,79,16
4,71,0,830
5,52,63,556
5,49,63,0
5,54,63,0
5,54,0,288
5,49,0,0
5,52,0,0
5,57,63,0
5,61,63,0
5,61,0,240
5,57,0,0
5,57,63,24
5,61,63,0
5,61,0,88
5,57,0,0
5,47,63,128
5,51,63,0
5,51,0,128
5,47,0,0
5,47,63,16
5,51,63,0
5,51,0,80
5,47,0,0
5,47,63,16
5,51,63,0
5,51,0,112
5,47,0,0
5,47,63,32
5,51,63,0
5,51,0,128
5,47,0,0
5,47,63,16
5,51,63,0
5,51,0,80
5,47,0,0
5,47,63,16
5,51,63,0
5,51,0,112
5,47,0,0
5,47,63,32
5,51,63,0
5,51,0,128
5,47,0,0
5,47,63,16
5,51,63,0
5,51,0,80
5,47,0,0
5,47,63,16
5,51,63,0
5,51,0,112
5,47,0,0
5,47,63,32
5,51,63,0
5,51,0,128
5,47,0,0
5,47,63,16
5,51,63,0
5,51,0,80
5,47,0,0
5,47,63,16
5,51,63,0
5,51,0,112
5,47,0,0
5,47,63,32
5,51,63,0
5,51,0,128
5,47,0,0
5,47,63,16
5,51,63,0
5,51,0,80
5,47,0,0
5,47,63,16
5,51,63,0
5,51,0,112
5,47,0,0
5,47,63,32
5,51,63,0
5,51,0,128
5,47,0,0
5,47,63,16
5,51,63,0
5,51,0,80
5,47,0,0
5,47,63,16
5,51,63,0
5,51,0,48
5,47,0,0
5,57,63,96
5,54,63,0
5,61,63,0
5,61,0,128
5,54,0,0
5,57,0,0
5,57,63,16
5,54,63,0
5,61,63,0
5,61,0,80
5,54,0,0
5,57,0,0
5,57,63,16
5,54,63,0
