track,note,velocity,time
1,71,92,12672
1,71,0,94
1,74,92,2
1,74,0,94
1,74,92,2
1,74,0,94
1,74,92,2
1,74,0,256
1,74,92,32
1,74,0,94
1,74,92,2
1,74,0,256
1,74,92,32
1,74,0,94
1,74,92,2
1,74,0,432
1,71,92,48
1,71,0,720
1,71,92,816
1,71,0,94
1,74,92,2
1,74,0,94
1,74,92,2
1,74,0,94
1,74,92,2
1,74,0,256
1,74,92,32
1,74,0,94
1,71,92,2
1,71,0,190
1,74,92,2
1,74,0,160
1,74,92,32
1,74,0,1200
1,79,92,816
1,79,0,160
1,79,92,32
1,79,0,94
1,78,92,2
1,78,0,190
1,78,92,2
1,78,0,160
1,76,92,32
1,76,0,190
1,74,92,2
1,74,0,256
1,71,92,416
1,71,0,94
1,74,92,2
1,74,0,94
1,74,92,2
1,74,0,94
1,74,92,2
1,74,0,256
1,71,92,32
1,71,0,94
1,69,92,2
1,69,0,190
1,67,92,2
1,67,0,256
1,67,92,320
1,67,0,94
1,74,92,2
1,74,0,160
1,74,92,32
1,74,0,160
1,74,92,32
1,74,0,160
1,74,92,32
1,74,0,160
1,71,92,32
1,71,0,96
1,69,92,0
1,69,0,94
1,67,92,2
1,67,0,94
1,67,92,2
1,67,0,816
1,71,92,1200
1,71,0,94
1,74,92,2
1,74,0,94
1,74,92,2
1,74,0,94
1,74,92,2
1,74,0,256
1,74,92,32
1,74,0,94
1,74,92,2
1,74,0,256
1,74,92,32
1,74,0,94
1,74,92,2
1,74,0,432
1,71,92,48
1,71,0,720
1,71,92,816
1,71,0,94
1,74,92,2
1,74,0,94
1,74,92,2
1,74,0,94
1,74,92,2
1,74,0,256
1,74,92,32
1,74,0,94
1,71,92,2
1,71,0,190
1,74,92,2
1,74,0,160
1,74,92,32
1,74,0,1200
1,79,92,816
1,79,0,160
1,79,92,32
1,79,0,94
1,78,92,2
1,78,0,190
1,78,92,2
1,78,0,160
1,76,92,32
1,76,0,190
1,74,92,2
1,74,0,256
1,71,92,416
1,71,0,94
1,74,92,2
1,74,0,94
1,74,92,2
1,74,0,94
1,74,92,2
1,74,0,256
1,71,92,32
1,71,0,94
1,69,92,2
1,69,0,190
1,67,92,2
1,67,0,256
1,67,92,320
1,67,0,94
1,74,92,2
1,74,0,160
1,74,92,32
1,74,0,160
1,74,92,32
1,74,0,160
1,74,92,32
1,74,0,160
1,71,92,32
1,71,0,96
1,69,92,0
1,69,0,94
1,67,92,2
1,67,0,94
1,67,92,2
1,67,0,816
1,69,92,432
1,69,0,94
1,71,92,2
1,71,0,256
1,72,92,32
1,72,0,336
1,71,92,48
1,71,0,336
1,69,92,48
1,69,0,720
1,69,92,432
1,69,0,94
1,71,92,2
1,71,0,256
1,72,92,32
1,72,0,336
1,71,92,48
1,71,0,336
1,69,92,48
1,69,0,720
1,69,92,432
1,69,0,94
1,71,92,2
1,71,0,256
1,72,92,32
1,72,0,336
1,71,92,48
1,71,0,336
1,69,92,48
1,69,0,336
1,67,92,48
1,67,0,96
1,66,92,0
1,66,0,256
1,67,92,32
1,67,0,720
1,71,92,1200
1,71,0,94
1,74,92,2
1,74,0,94
1,74,92,2
1,74,0,94
1,74,92,2
1,74,0,256
1,74,92,32
1,74,0,94
1,74,92,2
1,74,0,256
1,74,92,32
1,74,0,94
1,74,92,2
1,74,0,432
1,71,92,48
1,71,0,720
1,71,92,816
1,71,0,94
1,74,92,2
1,74,0,94
1,74,92,2
1,74,0,94
1,74,92,2
1,74,0,256
1,74,92,32
1,74,0,94
1,71,92,2
1,71,0,190
1,74,92,2
1,74,0,160
1,74,92,32
1,74,0,1200
1,79,92,816
1,79,0,160
1,79,92,32
1,79,0,94
1,78,92,2
1,78,0,190
1,78,92,2
1,78,0,160
1,76,92,32
1,76,0,190
1,74,92,2
1,74,0,256
1,71,92,416
1,71,0,94
1,74,92,2
1,74,0,94
1,74,92,2
1,74,0,94
1,74,92,2
1,74,0,256
1,71,92,32
1,71,0,94
1,69,92,2
1,69,0,190
1,67,92,2
1,67,0,256
1,67,92,320
1,67,0,94
1,79,92,2
1,79,0,94
1,79,92,2
1,79,0,160
1,78,92,32
1,78,0,190
1,78,92,2
1,78,0,160
1,76,92,32
1,76,0,190
1,76,92,2
1,76,0,256
1,71,92,416
1,71,0,94
1,74,92,2
1,74,0,160
1,74,92,32
1,74,0,256
1,71,92,32
1,71,0,94
1,69,92,2
1,69,0,192
1,67,92,0
1,67,0,256
1,67,92,320
1,67,0,94
1,79,92,2
1,79,0,94
1,79,92,2
1,79,0,160
1,78,92,32
1,78,0,256
1,78,92,32
1,78,0,94
1,76,92,2
1,76,0,190
1,74,92,2
1,74,0,160
1,76,92,32
1,76,0,1584
2,71,108,12672
2,71,0,94
2,74,108,2
2,74,0,94
2,74,108,2
2,74,0,94
2,74,108,2
2,74,0,256
2,74,108,32
2,74,0,94
2,74,108,2
2,74,0,256
2,74,108,32
2,74,0,94
2,74,108,2
2,74,0,432
2,71,108,48
2,71,0,720
2,71,108,816
2,71,0,94
2,74,108,2
2,74,0,94
2,74,108,2
2,74,0,94
2,74,108,2
2,74,0,256
2,74,108,32
2,74,0,94
2,71,108,2
2,71,0,190
2,74,108,2
2,74,0,160
2,74,108,32
2,74,0,1200
2,79,108,816
2,79,0,160
2,79,108,32
2,79,0,94
2,78,108,2
2,78,0,190
2,78,108,2
2,78,0,160
2,76,108,32
2,76,0,190
2,74,108,2
2,74,0,256
2,71,108,416
2,71,0,94
2,74,108,2
2,74,0,94
2,74,108,2
2,74,0,94
2,74,108,2
2,74,0,256
2,71,108,32
2,71,0,94
2,69,108,2
2,69,0,190
2,67,108,2
2,67,0,256
2,67,108,320
2,67,0,94
2,74,108,2
2,74,0,160
2,74,108,32
2,74,0,160
2,74,108,32
2,74,0,160
2,74,108,32
2,74,0,160
2,71,108,32
2,71,0,96
2,69,108,0
2,69,0,94
2,67,108,2
2,67,0,94
2,67,108,2
2,67,0,816
2,71,108,1200
2,71,0,94
2,74,108,2
2,74,0,94
2,74,108,2
2,74,0,94
2,74,108,2
2,74,0,256
2,74,108,32
2,74,0,94
2,74,108,2
2,74,0,256
2,74,108,32
2,74,0,94
2,74,108,2
2,74,0,432
2,71,108,48
2,71,0,720
2,71,108,816
2,71,0,94
2,74,108,2
2,74,0,94
2,74,108,2
2,74,0,94
2,74,108,2
2,74,0,256
2,74,108,32
2,74,0,94
2,71,108,2
2,71,0,190
2,74,108,2
2,74,0,160
2,74,108,32
2,74,0,1200
2,79,108,816
2,79,0,160
2,79,108,32
2,79,0,94
2,78,108,2
2,78,0,190
2,78,108,2
2,78,0,160
2,76,108,32
2,76,0,190
2,74,108,2
2,74,0,256
2,71,108,416
2,71,0,94
2,74,108,2
2,74,0,94
2,74,108,2
2,74,0,94
2,74,108,2
2,74,0,256
2,71,108,32
2,71,0,94
2,69,108,2
2,69,0,190
2,67,108,2
2,67,0,256
2,67,108,320
2,67,0,94
2,74,108,2
2,74,0,160
2,74,108,32
2,74,0,160
2,74,108,32
2,74,0,160
2,74,108,32
2,74,0,160
2,71,108,32
2,71,0,96
2,69,108,0
2,69,0,94
2,67,108,2
2,67,0,94
2,67,108,2
2,67,0,816
2,69,108,432
2,69,0,94
2,71,108,2
2,71,0,256
2,72,108,32
2,72,0,336
2,71,108,48
2,71,0,336
2,69,108,48
2,69,0,720
2,69,108,432
2,69,0,94
2,71,108,2
2,71,0,256
2,72,108,32
2,72,0,336
2,71,108,48
2,71,0,336
2,69,108,48
2,69,0,720
2,69,108,432
2,69,0,94
2,71,108,2
2,71,0,256
2,72,108,32
2,72,0,336
2,71,108,48
2,71,0,336
2,69,108,48
2,69,0,336
2,67,108,48
2,67,0,96
2,66,108,0
2,66,0,256
2,67,108,32
2,67,0,720
2,71,108,1200
2,71,0,94
2,74,108,2
2,74,0,94
2,74,108,2
2,74,0,94
2,74,108,2
2,74,0,256
2,74,108,32
2,74,0,94
2,74,108,2
2,74,0,256
2,74,108,32
2,74,0,94
2,74,108,2
2,74,0,432
2,71,108,48
2,71,0,720
2,71,108,816
2,71,0,94
2,74,108,2
2,74,0,94
2,74,108,2
2,74,0,94
2,74,108,2
2,74,0,256
2,74,108,32
2,74,0,94
2,71,108,2
2,71,0,190
2,74,108,2
2,74,0,160
2,74,108,32
2,74,0,1200
2,79,108,816
2,79,0,160
2,79,108,32
2,79,0,94
2,78,108,2
2,78,0,190
2,78,108,2
2,78,0,160
2,76,108,32
2,76,0,190
2,74,108,2
2,74,0,256
2,71,108,416
2,71,0,94
2,74,108,2
2,74,0,94
2,74,108,2
2,74,0,94
2,74,108,2
2,74,0,256
2,71,108,32
2,71,0,94
2,69,108,2
2,69,0,190
2,67,108,2
2,67,0,256
2,67,108,320
2,67,0,94
2,79,108,2
2,79,0,94
2,79,108,2
2,79,0,160
2,78,108,32
2,78,0,190
2,78,108,2
2,78,0,160
2,76,108,32
2,76,0,190
2,76,108,2
2,76,0,256
2,71,108,416
2,71,0,94
2,74,108,2
2,74,0,160
2,74,108,32
2,74,0,256
2,71,108,32
2,71,0,94
2,69,108,2
2,69,0,192
2,67,108,0
2,67,0,256
2,67,108,320
2,67,0,94
2,79,108,2
2,79,0,94
2,79,108,2
2,79,0,160
2,78,108,32
2,78,0,256
2,78,108,32
2,78,0,94
2,76,108,2
2,76,0,190
2,74,108,2
2,74,0,160
2,76,108,32
2,76,0,1584
3,76,92,18816
3,79,92,0
3,79,0,160
3,76,0,0
3,76,92,32
3,79,92,0
3,79,0,94
3,76,0,0
3,74,92,2
3,78,92,0
3,78,0,190
3,74,0,0
3,74,92,2
3,78,92,0
3,78,0,160
3,74,0,0
3,72,92,32
3,76,92,0
3,76,0,190
3,72,0,0
3,71,92,2
3,74,92,0
3,74,0,256
3,71,0,0
3,67,92,416
3,71,92,0
3,71,0,94
3,67,0,0
3,67,92,2
3,74,92,0
3,74,0,94
3,67,0,0
3,67,92,2
3,74,92,0
3,74,0,94
3,67,0,0
3,67,92,2
3,74,92,0
3,74,0,256
3,67,0,0
3,67,92,32
3,71,92,0
3,71,0,94
3,67,0,0
3,66,92,2
3,69,92,0
3,69,0,190
3,66,0,0
3,64,92,2
3,67,92,0
3,67,0,256
3,64,0,0
3,64,92,320
3,67,92,0
3,67,0,94
3,64,0,0
3,71,92,2
3,74,92,0
3,74,0,160
3,71,0,0
3,71,92,32
3,74,92,0
3,74,0,160
3,71,0,0
3,69,92,32
3,74,92,0
3,74,0,160
3,69,0,0
3,69,92,32
3,74,92,0
3,74,0,160
3,69,0,0
3,66,92,32
3,71,92,0
3,71,0,96
3,66,0,0
3,66,92,0
3,69,92,0
3,69,0,94
3,66,0,0
3,62,92,2
3,67,92,0
3,67,0,94
3,62,0,0
3,62,92,2
3,67,92,0
3,67,0,816
3,62,0,0
3,76,92,7344
3,79,92,0
3,79,0,160
3,76,0,0
3,76,92,32
3,79,92,0
3,79,0,94
3,76,0,0
3,74,92,2
3,78,92,0
3,78,0,190
3,74,0,0
3,74,92,2
3,78,92,0
3,78,0,160
3,74,0,0
3,72,92,32
3,76,92,0
3,76,0,190
3,72,0,0
3,71,92,2
3,74,92,0
3,74,0,256
3,71,0,0
3,67,92,416
3,71,92,0
3,71,0,94
3,67,0,0
3,67,92,2
3,74,92,0
3,74,0,94
3,67,0,0
3,67,92,2
3,74,92,0
3,74,0,94
3,67,0,0
3,67,92,2
3,74,92,0
3,74,0,256
3,67,0,0
3,67,92,32
3,71,92,0
3,71,0,94
3,67,0,0
3,66,92,2
3,69,92,0
3,69,0,190
3,66,0,0
3,64,92,2
3,67,92,0
3,67,0,256
3,64,0,0
3,64,92,320
3,67,92,0
3,67,0,94
3,64,0,0
3,71,92,2
3,74,92,0
3,74,0,160
3,71,0,0
3,71,92,32
3,74,92,0
3,74,0,160
3,71,0,0
3,69,92,32
3,74,92,0
3,74,0,160
3,69,0,0
3,69,92,32
3,74,92,0
3,74,0,160
3,69,0,0
3,66,92,32
3,71,92,0
3,71,0,96
3,66,0,0
3,66,92,0
3,69,92,0
3,69,0,94
3,66,0,0
3,62,92,2
3,67,92,0
3,67,0,94
3,62,0,0
3,62,92,2
3,67,92,0
3,67,0,816
3,62,0,0
3,76,92,15024
3,79,92,0
3,79,0,160
3,76,0,0
3,76,92,32
3,79,92,0
3,79,0,94
3,76,0,0
3,74,92,2
3,78,92,0
3,78,0,190
3,74,0,0
3,74,92,2
3,78,92,0
3,78,0,160
3,74,0,0
3,72,92,32
3,76,92,0
3,76,0,190
3,72,0,0
3,71,92,2
3,74,92,0
3,74,0,256
3,71,0,0
3,67,92,416
3,71,92,0
3,71,0,94
3,67,0,0
3,67,92,2
3,74,92,0
3,74,0,94
3,67,0,0
3,67,92,2
3,74,92,0
3,74,0,94
3,67,0,0
3,67,92,2
3,74,92,0
3,74,0,256
3,67,0,0
3,67,92,32
3,71,92,0
3,71,0,94
3,67,0,0
3,66,92,2
3,69,92,0
3,69,0,190
3,66,0,0
3,64,92,2
3,67,92,0
3,67,0,256
3,64,0,0
3,64,92,320
3,67,92,0
3,67,0,94
3,64,0,0
3,76,92,2
3,79,92,0
3,79,0,94
3,76,0,0
3,76,92,2
3,79,92,0
3,79,0,160
3,76,0,0
3,74,92,32
3,78,92,0
3,78,0,190
3,74,0,0
3,74,92,2
3,78,92,0
3,78,0,160
3,74,0,0
3,72,92,32
3,76,92,0
3,76,0,190
3,72,0,0
3,72,92,2
3,76,92,0
3,76,0,256
3,72,0,0
3,67,92,416
3,71,92,0
3,71,0,94
3,67,0,0
3,67,92,2
3,74,92,0
3,74,0,94
3,67,0,0
3,67,92,2
3,74,92,0
3,74,0,94
3,67,0,0
3,67,92,2
3,74,92,0
3,74,0,256
3,67,0,0
3,67,92,32
3,71,92,0
3,71,0,94
3,67,0,0
3,66,92,2
3,69,92,0
3,69,0,190
3,66,0,0
3,64,92,2
3,67,92,0
3,67,0,256
3,64,0,0
3,64,92,320
3,67,92,0
3,67,0,94
3,64,0,0
3,76,92,2
3,79,92,0
3,79,0,94
3,76,0,0
3,76,92,2
3,79,92,0
3,79,0,160
3,76,0,0
3,74,92,32
3,78,92,0
3,78,0,256
3,74,0,0
3,74,92,32
3,78,92,0
3,78,0,94
3,74,0,0
3,72,92,2
3,76,92,0
3,76,0,190
3,72,0,0
3,74,92,2
3,74,0,160
3,67,92,32
3,71,92,0
3,76,92,0
3,76,0,1584
3,71,0,0
3,67,0,0
4,79,127,24576
4,79,0,1536
4,78,127,0
4,78,0,1488
4,79,127,48
4,79,0,1536
4,78,127,0
4,78,0,1488
4,79,127,13872
4,79,0,1536
4,78,127,0
4,78,0,1488
4,79,127,48
4,79,0,1536
4,78,127,0
4,78,0,1488
5,72,108,36864
5,76,108,0
5,76,0,336
5,72,0,0
5,71,108,48
5,74,108,0
5,74,0,336
5,71,0,0
5,69,108,48
5,72,108,0
5,72,0,720
5,69,0,0
5,72,108,816
5,76,108,0
5,76,0,336
5,72,0,0
5,71,108,48
5,74,108,0
5,74,0,336
5,71,0,0
5,69,108,48
5,72,108,0
5,72,0,720
5,69,0,0
5,72,108,816
5,76,108,0
5,76,0,336
5,72,0,0
5,71,108,48
5,74,108,0
5,74,0,336
5,71,0,0
5,69,108,48
5,72,108,0
5,72,0,768
5,69,0,0
5,62,108,0
5,67,108,0
5,71,108,0
5,71,0,720
5,67,0,0
5,62,0,0
6,59,75,0
6,62,75,0
6,67,75,0
6,67,0,192
6,62,0,0
6,59,0,0
6,59,75,0
6,62,75,0
6,67,75,0
6,67,0,94
6,62,0,0
6,59,0,0
6,59,105,2
6,62,105,0
6,67,105,0
6,67,0,256
6,62,0,0
6,59,0,0
6,59,75,0
6,62,75,0
6,67,75,0
6,67,0,160
6,62,0,0
6,59,0,0
6,55,75,0
6,59,75,0
6,64,75,0
6,64,0,192
6,59,0,0
6,55,0,0
6,55,75,0
6,59,75,0
6,64,75,0
6,64,0,94
6,59,0,0
6,55,0,0
6,55,105,2
6,59,105,0
