track,note,velocity,time
1,43,108,0
1,43,108,0
1,38,108,0
1,43,108,0
1,43,108,0
1,38,108,0
1,43,108,0
1,42,108,0
1,38,108,0
1,36,108,0
1,36,108,0
1,31,108,0
1,36,108,0
1,36,108,0
1,31,108,0
1,36,108,0
1,37,108,160
1,38,108,0
1,43,108,0
1,43,108,0
1,38,108,0
1,43,108,0
1,43,108,0
1,38,108,0
1,43,108,0
1,42,108,0
1,38,108,0
1,36,108,0
1,36,108,0
1,31,108,0
1,36,108,0
1,36,108,0
1,31,108,0
1,36,108,0
1,37,108,0
1,38,108,0
1,43,108,0
1,43,108,0
1,38,108,0
1,43,108,0
1,43,108,0
1,38,108,0
1,43,108,0
1,42,108,0
1,38,108,0
1,36,108,0
1,36,108,0
1,31,108,0
1,36,108,0
1,36,108,0
1,31,108,0
1,36,108,0
1,37,108,0
1,38,108,0
1,43,108,0
1,43,108,0
1,38,108,0
1,43,108,0
1,43,108,0
1,38,108,0
1,43,108,0
1,42,108,0
1,38,108,0
1,36,108,0
1,36,108,0
1,31,108,0
1,36,108,0
1,36,108,0
1,31,108,0
1,36,108,0
1,37,108,0
1,38,108,0
1,43,108,0
1,43,108,0
1,38,108,0
1,43,108,0
1,43,108,0
1,38,108,0
1,43,108,0
1,42,108,0
1,38,108,0
1,36,108,0
1,36,108,0
1,31,108,0
1,36,108,0
1,36,108,0
1,31,108,0
1,36,108,0
1,37,108,0
1,38,108,0
1,43,108,0
1,43,108,0
1,38,108,0
1,43,108,0
1,43,108,0
1,38,108,0
1,43,108,0
1,42,108,0
1,38,108,0
1,36,108,0
1,36,108,0
1,31,108,0
1,36,108,0
1,36,108,0
1,31,108,0
1,36,108,0
1,37,108,0
1,38,108,0
1,43,108,0
1,43,108,0
1,38,108,0
1,43,108,0
1,43,108,0
1,38,108,0
1,43,108,0
1,42,108,0
1,38,108,0
1,36,108,0
1,36,108,0
1,31,108,0
1,36,108,0
1,36,108,0
1,31,108,0
1,36,108,0
1,31,108,0
1,32,108,0
1,33,108,0
1,33,108,0
1,33,108,0
1,33,108,0
1,40,108,0
1,40,108,0
1,40,108,0
1,40,108,0
1,43,108,0
1,45,108,0
1,47,108,0
1,47,108,0
1,45,108,0
1,43,108,0
1,42,108,0
1,40,108,0
1,38,108,0
1,33,108,0
1,33,108,0
1,33,108,0
1,33,108,0
1,40,108,0
1,40,108,0
1,40,108,0
1,40,108,0
1,43,108,0
1,45,108,0
1,47,108,0
1,47,108,0
1,45,108,0
1,43,108,0
1,42,108,0
1,40,108,0
1,38,108,0
1,33,108,0
1,33,108,0
1,33,108,0
1,33,108,0
1,40,108,0
1,40,108,0
1,40,108,0
1,40,108,0
1,43,108,0
1,45,108,0
1,47,108,0
1,47,108,0
1,45,108,0
1,43,108,0
1,42,108,0
1,40,108,0
1,38,108,0
1,33,108,0
1,33,108,0
1,33,108,0
1,33,108,0
1,40,108,0
1,40,108,0
1,40,108,0
1,40,108,0
1,43,108,0
1,45,108,0
1,47,108,0
1,47,108,0
1,45,108,0
1,43,108,0
1,42,108,0
1,40,108,0
1,38,108,0
1,38,108,0
1,38,108,0
1,38,108,0
1,38,108,0
1,38,108,0
1,45,108,0
1,50,108,0
1,50,108,0
1,50,108,0
1,50,108,0
1,50,108,0
1,50,108,0
1,43,108,0
1,43,108,0
1,43,108,0
1,43,108,0
1,43,108,0
1,38,108,0
1,36,108,0
1,38,108,0
1,40,108,0
1,43,108,0
1,45,108,0
1,38,108,0
1,43,108,0
1,43,108,0
1,43,108,0
1,43,108,0
1,43,108,0
1,38,108,0
1,36,108,0
1,38,108,0
1,40,108,0
1,43,108,0
1,45,108,0
1,38,108,0
1,43,108,0
1,43,108,0
1,43,108,0
1,43,108,0
1,43,108,0
1,38,108,0
1,36,108,0
1,38,108,0
1,40,108,0
1,43,108,0
1,45,108,0
1,38,108,0
1,43,108,0
1,43,108,0
1,43,108,0
1,43,108,0
1,43,108,0
1,38,108,0
1,36,108,0
1,38,108,0
1,40,108,0
1,43,108,0
1,45,108,0
1,38,108,0
1,33,108,0
1,33,108,0
1,33,108,0
1,33,108,0
1,40,108,0
1,40,108,0
1,40,108,0
1,40,108,0
1,43,108,0
1,45,108,0
1,47,108,0
1,47,108,0
1,45,108,0
1,43,108,0
1,42,108,0
1,40,108,0
1,38,108,0
1,33,108,0
1,33,108,0
1,33,108,0
1,33,108,0
1,40,108,0
1,40,108,0
1,40,108,0
1,40,108,0
1,43,108,0
1,45,108,0
1,47,108,0
1,47,108,0
1,45,108,0
1,43,108,0
1,42,108,0
1,40,108,0
1,38,108,0
1,33,108,0
1,33,108,0
1,33,108,0
1,33,108,0
1,40,108,0
1,40,108,0
1,40,108,0
1,40,108,0
1,43,108,0
1,45,108,0
1,47,108,0
1,47,108,0
1,45,108,0
1,43,108,0
1,42,108,0
1,40,108,0
1,38,108,0
1,33,108,0
1,33,108,0
1,33,108,0
1,33,108,0
1,40,108,0
1,40,108,0
1,40,108,0
1,40,108,0
1,43,108,0
1,45,108,0
1,47,108,0
1,47,108,0
1,45,108,0
1,43,108,0
1,42,108,0
1,40,108,0
1,38,108,0
1,38,108,0
1,38,108,0
1,38,108,0
1,38,108,0
1,38,108,0
1,45,108,0
1,50,108,0
1,50,108,0
1,50,108,0
1,50,108,0
1,50,108,0
1,50,108,0
1,43,108,0
1,43,108,0
1,43,108,0
1,43,108,0
1,43,108,0
1,38,108,0
1,36,108,0
1,38,108,0
1,40,108,0
1,43,108,0
1,45,108,0
1,38,108,0
1,43,108,0
1,43,108,0
1,43,108,0
1,43,108,0
1,43,108,0
1,38,108,0
1,36,108,0
1,38,108,0
1,40,108,0
1,43,108,0
1,45,108,0
1,38,108,0
1,43,108,0
1,43,108,0
1,43,108,0
1,43,108,0
1,43,108,0
1,38,108,0
1,36,108,0
1,38,108,0
1,40,108,0
1,43,108,0
1,45,108,0
1,38,108,0
1,43,108,0
1,43,108,0
1,43,108,0
1,43,108,0
1,43,108,0
1,38,108,0
1,36,108,0
1,38,108,0
1,40,108,0
1,43,108,0
1,45,108,0
1,38,108,0
1,43,108,0
2,71,110,23040
2,71,110,80
2,71,110,80
2,69,110,5
2,71,110,80
2,74,110,80
2,69,110,80
2,69,110,80
2,69,110,80
2,67,110,5
2,69,110,80
2,67,110,80
2,71,110,80
2,71,110,80
2,71,110,80
2,69,110,320
2,71,110,5
2,74,110,80
2,69,110,5
2,71,110,2040
2,71,110,80
2,71,110,80
2,69,110,5
2,71,110,80
2,74,110,80
2,69,110,80
2,69,110,80
2,69,110,80
2,67,110,5
2,69,110,80
2,67,110,80
2,71,110,80
2,71,110,80
2,71,110,80
2,69,110,320
2,71,110,5
2,74,110,80
2,69,110,80
2,67,110,1560
2,71,110,80
2,71,110,80
2,71,110,5
2,71,110,5
2,71,110,80
2,71,110,80
2,71,110,5
2,74,110,80
2,69,110,80
2,69,110,5
2,67,110,80
2,67,110,1560
2,69,110,5
2,71,110,5
2,71,110,5
2,71,110,965
2,71,110,5
2,71,110,5
2,74,110,120
2,67,110,80
2,69,110,5
2,71,110,2040
2,71,110,80
2,71,110,5
2,71,110,5
2,71,110,80
2,71,110,80
2,71,110,5
2,74,110,80
2,69,110,80
2,69,110,5
2,67,110,80
2,67,110,1560
2,69,110,5
2,71,110,5
2,71,110,5
2,71,110,965
2,71,110,5
2,71,110,5
2,74,110,120
2,67,110,80
2,69,110,5
2,67,110,1560
2,69,110,80
2,67,110,600
2,69,110,5
2,67,110,80
2,69,110,80
2,71,110,600
2,71,110,120
2,66,110,120
2,66,110,5
2,69,110,5
2,71,110,5
2,66,110,5
2,66,110,80
2,64,110,5
2,66,110,80
2,67,110,560
2,69,110,80
2,71,110,80
2,74,110,5
2,76,110,80
2,79,110,80
2,66,110,80
2,66,110,5
2,69,110,5
2,71,110,5
2,66,110,5
2,66,110,80
2,64,110,5
2,66,110,80
2,67,110,560
2,69,110,80
2,71,110,80
2,74,110,5
2,76,110,80
2,79,110,80
2,71,110,15440
2,71,110,80
2,71,110,5
2,71,110,5
2,71,110,80
2,71,110,80
2,71,110,5
2,74,110,80
2,69,110,80
2,69,110,5
2,67,110,80
2,67,110,1560
2,69,110,5
2,71,110,5
2,71,110,5
2,71,110,965
2,71,110,5
2,71,110,5
2,74,110,120
2,67,110,80
2,69,110,5
2,71,110,2040
2,71,110,80
2,71,110,5
2,71,110,5
2,71,110,80
2,71,110,80
2,71,110,5
2,74,110,80
2,69,110,80
2,69,110,5
2,67,110,80
2,67,110,1560
2,69,110,5
2,71,110,5
2,71,110,5
2,71,110,965
2,71,110,5
2,71,110,5
2,74,110,120
2,67,110,80
2,69,110,5
2,67,110,1560
2,69,110,80
2,67,110,600
2,69,110,5
2,67,110,80
2,69,110,80
2,71,110,600
2,71,110,120
2,66,110,120
2,66,110,5
2,69,110,5
2,71,110,5
2,66,110,5
2,66,110,80
2,64,110,5
2,66,110,80
2,67,110,560
2,69,110,80
2,71,110,80
2,74,110,5
2,76,110,80
2,79,110,80
2,66,110,80
2,66,110,5
2,69,110,5
2,71,110,5
2,66,110,5
2,66,110,80
2,64,110,5
2,66,110,80
2,67,110,560
2,69,110,80
2,71,110,80
2,74,110,5
2,76,110,80
2,79,110,80
3,59,110,0
3,62,110,0
3,66,110,0
3,59,110,0
3,62,110,0
3,66,110,0
3,59,110,0
3,64,110,0
3,67,110,0
3,60,110,0
3,64,110,80
3,71,110,80
3,59,110,0
3,62,110,0
3,66,110,0
3,59,110,0
3,62,110,0
3,66,110,0
3,59,110,0
3,62,110,0
3,66,110,0
3,59,110,0
3,62,110,0
3,66,110,0
3,59,110,0
3,62,110,0
3,66,110,0
3,59,110,0
3,62,110,0
3,66,110,0
3,59,110,0
3,64,110,0
3,67,110,0
3,59,110,0
3,64,110,0
3,67,110,0
3,59,110,0
3,64,110,0
3,67,110,0
3,59,110,0
3,64,110,0
3,67,110,0
3,59,110,0
3,64,110,0
3,67,110,0
3,59,110,0
3,64,110,80
3,67,110,80
3,59,110,0
3,62,110,0
3,66,110,0
3,59,110,0
3,62,110,0
3,66,110,0
3,59,110,0
3,62,110,0
3,66,110,0
3,59,110,0
3,62,110,0
3,66,110,0
3,59,110,0
3,62,110,0
3,66,110,0
3,59,110,0
3,62,110,0
3,66,110,0
3,59,110,0
3,64,110,0
3,67,110,0
3,59,110,0
3,64,110,0
3,67,110,0
3,59,110,0
3,64,110,0
3,67,110,0
3,59,110,0
3,64,110,0
3,67,110,0
3,59,110,0
3,64,110,0
3,67,110,0
3,59,110,0
3,64,110,0
3,67,110,0
3,59,75,0
3,62,75,0
3,66,75,0
3,59,75,0
3,62,75,0
3,66,75,0
3,59,75,0
3,62,75,0
3,66,75,0
3,59,75,0
3,62,75,0
3,66,75,0
3,59,75,0
3,62,75,0
3,66,75,0
3,59,75,0
3,62,75,0
3,66,75,0
3,59,75,0
3,64,75,0
3,67,75,0
3,59,75,0
3,64,75,0
3,67,75,0
3,59,75,0
3,64,75,0
3,67,75,0
3,59,75,0
3,64,75,0
3,67,75,0
3,59,75,0
3,64,75,0
3,67,75,0
3,59,75,0
3,64,75,0
3,67,75,0
3,59,75,0
3,62,75,0
3,66,75,0
3,59,75,0
3,62,75,0
3,66,75,0
3,59,75,0
3,62,75,0
3,66,75,0
3,59,75,0
3,62,75,0
3,66,75,0
3,59,75,0
3,62,75,0
3,66,75,0
3,59,75,0
3,62,75,0
3,66,75,0
3,59,75,0
3,64,75,0
3,67,75,0
3,59,75,0
3,64,75,0
3,67,75,0
3,59,75,0
3,64,75,0
3,67,75,0
3,59,75,0
3,64,75,0
3,67,75,0
3,59,75,0
3,64,75,0
3,67,75,0
3,59,75,0
3,64,75,0
3,67,75,0
3,59,75,0
3,62,75,0
3,66,75,0
3,59,75,0
3,62,75,0
3,66,75,0
3,59,75,0
3,62,75,0
3,66,75,0
3,59,75,0
3,62,75,0
3,66,75,0
3,59,75,0
3,62,75,0
3,66,75,0
3,59,75,0
3,62,75,0
3,66,75,0
3,59,75,0
3,64,75,0
3,67,75,0
3,59,75,0
3,64,75,0
3,67,75,0
3,59,75,0
3,64,75,0
3,67,75,0
3,59,75,0
3,64,75,0
3,67,75,0
3,59,75,0
3,64,75,0
3,67,75,0
3,59,75,0
3,64,75,0
3,67,75,0
3,59,75,0
3,62,75,0
3,66,75,0
3,59,75,0
3,62,75,0
3,66,75,0
3,59,75,0
3,62,75,0
3,66,75,0
3,59,75,0
3,62,75,0
3,66,75,0
3,59,75,0
3,62,75,0
3,66,75,0
3,59,75,0
3,62,75,0
3,66,75,0
3,59,75,0
3,64,75,0
3,67,75,0
3,59,75,0
3,64,75,0
3,67,75,0
3,59,75,0
3,64,75,0
3,67,75,0
3,59,75,0
3,64,75,0
3,67,75,0
3,59,75,0
3,64,75,0
3,67,75,0
3,59,75,0
3,64,75,0
3,67,75,0
3,60,75,0
3,64,75,0
3,67,75,0
3,71,75,0
3,60,75,0
3,64,75,0
3,67,75,0
3,71,75,0
3,60,75,0
3,64,75,0
3,67,75,0
3,71,75,0
3,60,75,0
3,64,75,0
3,67,75,0
3,71,75,0
3,60,75,0
3,64,75,0
3,67,75,0
3,71,75,0
3,60,75,0
3,64,75,0
3,67,75,0
3,71,75,0
3,60,75,0
3,64,75,0
3,67,75,0
3,71,75,0
3,60,75,0
3,64,75,0
3,67,75,0
3,71,75,0
3,60,75,0
3,64,75,0
3,67,75,0
3,71,75,0
3,59,75,0
3,62,75,0
3,66,75,0
3,59,75,0
3,62,75,0
3,66,75,0
3,59,75,0
3,62,75,0
3,66,75,0
3,59,75,0
3,62,75,0
3,66,75,0
3,59,75,0
3,62,75,0
3,66,75,0
3,59,75,0
3,62,75,0
3,66,75,0
3,60,75,0
3,64,75,0
3,67,75,0
3,71,75,0
3,60,75,0
3,64,75,0
3,67,75,0
3,71,75,0
3,60,75,0
3,64,75,0
3,67,75,0
3,71,75,0
3,60,75,0
3,64,75,0
3,67,75,0
3,71,75,0
3,60,75,0
3,64,75,0
3,67,75,0
3,71,75,0
3,60,75,0
3,64,75,0
3,67,75,0
3,71,75,0
3,60,75,0
3,64,75,0
3,67,75,0
3,71,75,0
3,60,75,0
3,64,75,0
3,67,75,0
3,71,75,0
3,60,75,0
3,64,75,0
3,67,75,0
3,71,75,0
3,59,75,0
3,62,75,0
3,66,75,0
3,59,75,0
3,62,75,0
3,66,75,0
3,59,75,0
3,62,75,0
3,66,75,0
3,59,75,0
3,62,75,0
3,66,75,0
3,59,75,0
3,62,75,0
3,66,75,0
3,59,75,0
3,62,75,0
3,66,75,0
3,60,75,0
3,64,75,0
3,67,75,0
3,71,75,0
3,60,75,0
3,64,75,0
3,67,75,0
3,71,75,0
3,60,75,0
3,64,75,0
3,67,75,0
3,71,75,0
3,60,75,0
3,64,75,0
3,67,75,0
3,71,75,0
3,60,75,0
3,64,75,0
3,67,75,0
3,71,75,0
3,60,75,0
3,64,75,0
3,67,75,0
3,71,75,0
3,60,75,0
3,64,75,0
3,67,75,0
3,71,75,0
3,60,75,0
3,64,75,0
3,67,75,0
3,71,75,0
3,60,75,0
3,64,75,0
3,67,75,0
3,71,75,0
3,59,75,0
3,62,75,0
3,66,75,0
3,59,75,0
3,62,75,0
3,66,75,0
3,59,75,0
3,62,75,0
3,66,75,0
3,59,75,0
3,62,75,0
3,66,75,0
3,59,75,0
3,62,75,0
3,66,75,0
3,59,75,0
3,62,75,0
3,66,75,0
3,60,92,7680
3,64,92,0
3,67,92,0
3,60,92,0
3,64,92,0
3,67,92,0
3,60,92,0
3,64,92,0
3,67,92,0
3,60,92,0
3,64,92,0
3,67,92,0
3,60,92,0
3,64,92,0
3,67,92,0
3,60,92,0
3,64,92,0
3,67,92,0
3,62,92,0
3,66,92,0
3,69,92,0
3,62,92,0
3,66,92,0
3,69,92,0
3,62,92,0
3,66,92,0
3,69,92,0
3,62,92,0
3,66,92,0
3,69,92,0
3,62,92,0
3,66,92,160
