track,note,velocity,time
6,61,62,531
6,64,75,28
6,61,0,4
6,69,90,63
6,64,0,12
6,69,0,10
6,69,92,12
6,69,0,343
6,61,70,4
6,61,0,33
6,64,77,1
6,68,90,76
6,64,0,13
6,68,0,4
6,68,72,13
6,68,0,301
6,67,86,173
6,67,0,12
6,67,79,19
6,67,0,63
6,67,71,17
6,67,0,14
6,67,83,20
6,67,0,52
6,67,78,33
6,67,0,26
6,69,73,5
6,67,71,68
6,69,0,1
6,67,0,142
6,67,85,37
6,62,62,87
6,67,0,11
6,64,81,11
6,62,0,1
6,64,0,179
6,64,81,58
6,69,97,60
6,64,0,10
6,69,0,3
6,69,88,14
6,69,0,240
6,69,75,40
6,64,88,30
6,69,0,2
6,61,70,39
6,64,0,12
6,61,0,68
6,61,79,35
6,68,89,27
6,61,0,5
6,68,0,14
6,68,95,11
6,68,0,281
6,67,75,179
6,67,0,5
6,67,91,23
6,67,0,73
6,67,71,17
6,67,0,6
6,67,90,18
6,67,0,70
6,67,68,20
6,67,0,27
6,69,91,2
6,69,0,58
6,67,83,0
6,67,0,102
6,67,85,82
6,62,61,92
6,67,0,13
6,64,76,7
6,62,0,1
6,64,0,177
6,69,85,68
6,69,0,63
6,72,88,1
6,72,0,17
6,72,72,13
6,72,0,309
6,69,81,71
6,72,91,76
6,69,0,1
6,72,0,15
6,72,75,14
6,72,0,286
6,67,80,56
6,69,83,34
6,67,0,1
6,71,83,69
6,69,0,7
6,71,0,208
6,67,84,79
6,67,0,79
6,69,91,12
6,71,83,23
6,69,0,6
6,71,0,75
6,71,85,13
6,71,0,27
6,71,91,6
6,71,0,86
6,74,70,5
6,71,69,27
6,74,0,8
6,71,0,63
6,71,86,17
6,71,0,27
6,69,92,1
6,67,81,99
6,69,0,3
6,69,91,26
6,67,0,2
6,71,72,59
6,69,0,3
6,71,0,221
6,67,81,76
6,69,93,27
6,67,0,8
6,71,95,84
6,69,0,2
6,71,0,70
6,71,78,18
6,71,0,14
6,71,86,16
6,71,0,90
6,74,67,0
6,71,81,31
6,74,0,1
6,71,0,72
6,71,86,17
6,71,0,29
6,69,96,1
6,69,0,88
6,67,93,1
6,69,92,28
6,67,0,3
6,69,0,53
6,71,84,4
6,71,0,166
6,67,81,129
6,67,0,35
6,69,93,0
6,71,93,92
6,69,0,2
6,71,0,67
6,71,85,16
6,71,0,27
6,71,91,6
6,71,0,86
6,74,70,5
6,71,69,27
6,74,0,8
6,71,0,63
6,71,86,17
6,71,0,27
6,69,92,1
6,67,81,99
6,69,0,3
6,69,91,26
6,67,0,2
6,71,72,59
6,69,0,3
6,71,0,168
6,67,79,8
6,69,80,116
6,67,0,4
6,69,0,116
6,71,83,0
6,71,0,261
6,64,77,464
6,69,90,50
6,64,0,11
6,69,0,13
6,69,92,10
6,69,0,243
6,69,78,38
6,64,88,29
6,69,0,4
6,64,0,50
6,64,77,4
6,61,64,32
6,64,0,6
6,61,0,43
6,68,90,12
6,68,0,17
6,68,72,13
6,68,0,301
6,67,86,147
6,67,0,97
6,67,86,9
6,67,0,17
6,67,71,14
6,67,0,14
6,67,83,20
6,67,0,76
6,67,78,9
6,67,0,26
6,69,73,5
6,67,85,68
6,69,0,1
6,67,0,54
6,67,71,9
6,64,85,56
6,67,0,12
6,64,0,129
6,64,81,266
6,69,97,60
6,64,0,10
6,69,0,3
6,69,88,14
6,69,0,240
6,69,75,40
6,64,88,30
6,69,0,2
6,61,70,39
6,64,0,12
6,61,0,68
6,61,79,35
6,68,89,27
6,61,0,5
6,68,0,14
6,68,95,11
6,68,0,281
6,67,75,179
6,67,0,5
6,67,91,23
6,67,0,73
6,67,71,17
6,67,0,6
6,67,90,18
6,67,0,70
6,67,68,20
6,67,0,27
6,69,91,2
6,69,0,58
6,67,83,0
6,67,0,46
6,67,85,14
6,62,61,58
6,64,76,7
6,67,0,3
6,62,0,11
6,64,0,164
6,67,85,215
6,69,85,24
6,67,0,6
6,72,83,54
6,69,0,3
6,72,0,306
6,67,75,74
6,69,81,31
6,67,0,3
6,72,75,64
6,69,0,10
6,72,0,276
6,67,80,95
6,69,83,34
6,67,0,1
6,71,83,69
6,69,0,7
6,71,0,208
6,67,84,79
6,67,0,79
6,69,91,12
6,71,83,23
6,69,0,6
6,71,0,75
6,71,85,13
6,71,0,27
6,71,91,6
6,71,0,86
6,74,70,5
6,71,69,27
6,74,0,8
6,71,0,63
6,71,86,17
6,71,0,27
6,69,92,1
6,67,81,99
6,69,0,3
6,69,91,26
6,67,0,2
6,71,72,59
6,69,0,3
6,71,0,221
6,67,81,76
6,69,93,27
6,67,0,8
6,71,95,84
6,69,0,2
6,71,0,70
6,71,78,18
6,71,0,14
6,71,86,16
6,71,0,90
6,74,67,0
6,71,81,31
6,74,0,1
6,71,0,72
6,71,86,17
6,71,0,29
6,69,96,1
6,69,0,88
6,67,93,1
6,69,92,28
6,67,0,5
6,69,0,54
6,71,84,1
6,71,0,166
6,67,74,112
6,69,93,27
6,67,0,6
6,71,86,45
6,69,0,9
6,71,0,133
6,62,86,136
6,64,91,27
6,62,0,12
6,67,81,52
6,64,0,4
6,67,0,142
6,67,89,148
6,67,0,90
6,69,97,2
6,71,94,31
6,69,0,1
6,71,0,59
6,71,85,25
6,71,0,27
6,71,91,6
6,71,0,86
6,74,70,5
6,71,69,27
6,74,0,8
6,71,0,63
6,71,86,17
6,71,0,27
6,69,92,1
6,67,81,99
6,69,0,3
6,69,91,26
6,67,0,2
6,71,72,59
6,69,0,3
6,71,0,221
6,67,81,76
6,69,93,27
6,67,0,8
6,71,95,84
6,69,0,2
6,71,0,70
6,71,78,18
6,71,0,14
6,71,86,16
6,71,0,90
6,74,67,0
6,71,81,31
6,74,0,1
6,71,0,72
6,71,86,17
6,71,0,29
6,69,96,1
6,69,0,88
6,67,93,1
6,69,92,28
6,67,0,5
6,69,0,54
6,71,84,1
6,71,0,166
6,67,74,112
6,69,93,27
6,67,0,6
6,71,86,45
6,69,0,9
6,71,0,133
6,62,86,136
6,64,91,27
6,62,0,12
6,67,81,52
6,64,0,4
6,67,0,142
6,67,89,148
6,67,0,90
6,69,97,2
6,71,92,30
6,69,0,2
6,71,0,58
6,71,85,25
6,71,0,27
6,71,91,6
6,71,0,86
6,74,70,5
6,71,69,27
6,74,0,8
6,71,0,63
6,71,86,17
6,71,0,27
6,69,92,1
6,67,81,99
6,69,0,3
6,69,91,26
6,67,0,2
6,71,72,59
6,69,0,3
6,71,0,221
6,67,81,76
6,69,93,27
6,67,0,8
6,71,95,84
6,69,0,2
6,71,0,70
6,71,78,18
6,71,0,14
6,71,86,16
6,71,0,90
6,74,67,0
6,71,81,31
6,74,0,1
6,71,0,72
6,71,86,17
6,71,0,29
6,69,96,1
6,69,0,88
6,67,93,1
6,69,92,28
6,67,0,5
6,69,0,54
6,71,84,1
6,71,0,166
6,67,74,112
6,69,93,27
6,67,0,6
6,71,86,45
6,69,0,9
6,71,0,133
6,62,86,136
6,64,91,27
6,62,0,12
6,67,81,52
6,64,0,4
6,67,0,142
6,67,89,148
6,67,0,90
6,69,97,2
6,69,0,32
6,71,92,3
6,71,0,65
6,71,85,15
6,71,0,27
6,71,91,6
6,71,0,86
6,74,70,5
6,71,69,27
6,74,0,8
6,71,0,63
6,71,86,17
6,71,0,27
6,69,92,1
6,67,81,99
6,69,0,3
6,69,91,26
6,67,0,2
6,71,72,59
6,69,0,3
6,71,0,221
6,67,81,76
6,69,93,27
6,67,0,8
6,71,95,84
6,69,0,2
6,71,0,70
6,71,78,18
6,71,0,14
6,71,86,16
6,71,0,90
6,74,67,0
6,71,81,31
6,74,0,1
6,71,0,72
6,71,86,17
6,71,0,29
6,69,96,1
6,69,0,88
6,67,93,1
6,69,92,28
6,67,0,5
6,69,0,54
6,71,84,1
6,71,0,166
6,67,74,112
6,69,93,27
6,67,0,6
6,71,86,45
6,69,0,9
6,71,0,133
6,62,86,136
6,64,91,27
6,62,0,12
6,67,81,52
6,64,0,4
6,67,0,142
7,38,54,8743
7,38,0,100
7,38,66,24
7,38,0,66
7,38,61,21
7,40,78,28
7,38,0,3
7,40,0,85
7,40,62,32
7,40,0,96
7,33,76,28
7,33,0,143
7,33,70,32
7,33,0,22
7,33,68,39
7,33,0,207
7,33,72,36
7,33,0,161
7,33,82,19
7,33,0,22
7,33,69,35
7,33,0,158
7,33,71,20
7,33,0,33
7,31,64,0
7,31,0,27
7,28,73,2
7,28,0,164
7,28,62,19
7,28,0,43
7,31,66,10
7,31,0,95
7,31,79,26
7,31,0,113
7,36,80,14
7,36,0,151
7,36,82,28
7,36,0,24
7,36,78,35
7,36,0,101
7,36,69,17
7,36,0,27
7,36,77,32
7,35,82,29
7,36,0,1
7,35,0,24
7,33,79,5
7,33,0,138
7,33,70,39
7,33,0,28
7,33,61,29
7,33,0,110
7,33,66,16
7,33,0,97
7,33,69,25
7,33,0,165
7,33,80,20
7,33,0,26
7,33,78,30
7,33,0,174
7,31,75,4
7,31,0,60
7,28,81,2
7,28,0,165
7,28,61,14
7,31,65,59
7,28,0,1
7,31,0,119
7,33,76,2
7,33,0,60
7,35,76,2
7,35,0,54
7,36,83,3
7,36,0,147
7,36,88,32
7,36,0,32
7,36,62,26
7,36,0,106
7,36,65,19
7,36,0,115
7,29,82,3
7,29,0,154
7,29,75,23
7,29,0,31
7,29,76,29
7,29,0,118
7,41,82,10
7,40,78,58
7,41,0,3
7,40,0,59
7,38,82,1
7,33,69,176
7,38,0,12
7,38,66,44
7,33,0,1
7,38,0,100
7,38,70,18
7,38,0,119
7,31,74,6
7,31,0,153
7,31,71,22
7,31,0,28
7,31,71,30
7,31,0,107
7,31,57,22
7,31,0,79
7,30,61,2
7,30,0,25
7,28,69,11
7,28,0,151
7,28,71,27
7,28,0,29
7,28,69,29
7,28,0,165
7,28,68,22
7,28,0,30
7,35,76,26
7,35,0,156
7,35,57,27
7,35,0,32
7,35,73,22
7,35,0,103
7,35,80,19
7,33,65,30
7,35,0,12
7,33,0,73
7,31,75,12
7,31,0,157
7,31,57,25
7,31,0,24
7,31,71,25
7,31,0,100
7,35,78,22
7,35,0,114
7,36,80,9
7,36,0,100
7,36,80,16
7,36,0,34
7,36,63,25
7,36,0,176
7,33,74,6
7,33,0,97
7,33,61,25
7,33,0,22
7,33,86,32
7,31,85,188
7,33,0,8
7,31,0,128
7,31,66,45
7,31,0,15
7,31,76,43
7,31,0,102
7,31,71,22
7,31,0,102
7,28,69,20
7,28,0,120
7,28,71,51
7,28,0,29
7,28,69,29
7,28,0,165
7,28,68,22
7,28,0,30
7,35,76,26
7,35,0,156
7,35,57,27
7,35,0,32
7,35,73,22
7,35,0,103
7,35,80,19
7,33,65,34
7,35,0,3
7,33,0,86
7,31,75,4
7,31,0,157
7,31,57,25
7,31,0,24
7,35,71,25
7,35,0,100
7,35,78,22
7,35,0,114
7,36,80,9
7,36,0,100
7,36,80,16
7,36,0,34
7,36,63,25
7,36,0,176
7,33,74,6
7,33,0,97
7,33,61,25
7,33,0,22
7,33,86,32
7,31,85,188
7,33,0,8
7,31,0,128
7,31,66,45
7,31,0,15
7,31,76,43
7,31,0,102
7,31,71,22
7,31,0,102
7,28,82,14
7,28,0,120
7,28,71,56
7,28,0,29
7,28,69,29
7,28,0,165
7,28,68,22
7,28,0,30
7,35,76,26
7,35,0,156
7,35,57,27
7,35,0,32
7,35,73,22
7,35,0,103
7,35,80,19
7,33,65,34
7,35,0,4
7,33,0,86
7,31,75,3
7,31,0,157
7,31,57,25
7,31,0,24
7,31,71,25
7,31,0,100
7,35,78,22
7,35,0,114
7,36,80,9
7,36,0,100
7,36,80,16
7,36,0,34
7,36,63,25
7,36,0,176
7,33,74,6
7,33,0,97
7,33,61,25
7,33,0,22
7,33,86,32
7,31,85,188
7,33,0,8
7,31,0,128
7,31,66,45
7,31,0,15
7,31,76,43
7,31,0,102
7,31,71,22
7,31,0,102
7,28,69,11
7,28,0,153
7,28,71,26
7,28,0,29
7,28,69,29
7,28,0,153
7,28,68,34
7,28,0,30
7,35,76,26
7,35,0,156
7,35,57,27
7,35,0,32
7,35,73,22
7,35,0,103
7,35,80,19
7,35,0,30
7,33,65,9
7,31,75,88
7,33,0,2
7,31,0,155
7,31,57,25
7,31,0,24
7,31,71,25
7,31,0,100
7,35,78,22
7,35,0,114
7,36,80,9
7,36,0,100
7,36,80,16
7,36,0,34
7,36,63,25
7,36,0,176
7,33,74,6
7,33,0,97
7,33,61,25
7,33,0,22
7,33,86,32
7,31,85,188
7,33,0,8
7,31,0,128
7,31,66,45
7,31,0,15
7,31,69,43
7,31,0,489
8,62,60,492
8,64,85,24
8,62,0,1
8,64,0,63
8,67,81,6
8,67,0,270
8,62,53,29
8,64,61,84
8,62,0,1
8,67,85,31
8,64,0,4
8,67,0,77
8,67,76,6
8,67,0,15
8,67,81,19
8,67,0,91
8,71,85,0
8,67,82,37
8,71,0,2
8,67,0,71
8,67,68,19
8,64,74,28
8,67,0,5
8,64,0,85
8,62,78,0
8,64,70,28
8,62,0,5
8,66,77,52
8,64,0,4
8,66,0,195
8,71,71,102
8,62,70,1
8,72,65,28
8,71,0,3
8,64,78,0
8,62,0,9
8,67,82,80
8,64,0,1
8,74,73,0
8,72,0,1
8,74,0,68
8,67,0,2
8,74,73,16
8,67,69,0
8,67,0,14
8,74,0,4
8,74,66,12
8,67,75,0
8,74,0,73
8,67,0,17
8,74,70,0
8,71,76,0
8,74,0,20
8,71,0,11
8,74,76,1
8,67,68,0
8,67,0,59
8,74,0,10
8,67,54,18
8,74,79,3
8,64,68,27
8,67,0,3
8,72,62,0
8,74,0,5
8,72,0,79
8,62,66,4
8,71,82,2
8,64,0,1
8,62,0,25
8,64,64,2
8,72,78,2
8,71,0,4
8,72,0,54
8,66,77,0
8,74,73,1
8,64,0,1
8,66,0,161
8,74,0,7
8,62,70,132
8,64,78,35
8,62,0,5
8,67,78,78
8,64,0,7
8,67,0,70
8,67,76,6
8,67,0,15
8,67,81,19
8,71,85,91
8,67,0,10
8,67,82,27
8,71,0,2
8,67,0,71
8,67,68,19
8,64,74,28
8,67,0,5
8,64,0,85
8,62,78,0
8,64,70,28
8,62,0,5
8,66,77,52
8,64,0,4
8,66,0,150
8,62,68,29
8,66,68,2
8,62,0,115
8,67,68,0
8,64,68,4
8,66,0,4
8,66,68,112
8,67,0,3
8,69,68,1
8,64,0,4
8,66,0,236
8,69,0,4
8,62,60,5239
8,64,85,24
8,62,0,1
8,64,0,63
8,67,81,6
8,67,0,270
8,62,53,29
8,64,61,84
8,62,0,1
8,64,0,35
8,67,85,1
8,67,0,77
8,67,76,5
8,67,0,15
8,67,81,19
8,67,0,91
8,71,85,0
8,67,82,37
8,71,0,2
8,67,0,71
8,67,68,19
8,64,74,28
8,67,0,5
8,64,0,85
8,62,78,0
8,64,70,28
8,62,0,5
8,66,77,52
8,64,0,4
8,66,0,195
8,71,71,102
8,62,70,1
8,72,65,28
8,71,0,3
8,64,78,0
8,62,0,9
8,67,82,80
8,64,0,1
8,74,73,0
8,72,0,1
8,74,0,68
8,67,0,2
8,74,73,16
8,67,69,0
8,67,0,14
8,74,0,4
8,74,66,12
8,67,75,0
8,74,0,73
8,67,0,17
8,74,70,0
8,71,76,0
8,74,0,20
8,71,0,11
8,74,76,1
8,66,68,0
8,66,0,59
8,74,0,10
8,66,54,18
8,74,79,3
8,74,0,25
8,64,68,2
8,66,0,3
8,72,62,1
8,72,0,75
8,62,66,12
8,64,0,3
8,71,82,3
8,71,0,19
8,62,0,3
8,64,64,2
8,72,78,2
8,72,0,49
8,67,77,9
8,74,73,1
8,64,0,1
8,67,0,132
8,74,0,4
8,71,82,135
8,72,82,26
8,71,0,8
8,74,82,43
8,72,0,9
8,74,0,111
8,67,72,159
8,69,82,30
8,67,0,13
8,71,74,47
8,69,0,4
8,71,0,141
8,62,75,160
8,62,0,82
8,64,86,4
8,67,85,31
