track,note,velocity,time
1,43,90,4740
1,43,0,43
1,36,94,17
1,36,0,402
1,36,90,18
1,36,0,43
1,33,87,17
1,33,0,377
1,33,97,43
1,33,0,59
1,40,94,1
1,40,0,402
1,40,90,18
1,40,0,43
1,43,87,17
1,43,0,377
1,43,97,43
1,43,0,59
1,36,94,1
1,36,0,402
1,36,90,18
1,36,0,43
1,33,87,17
1,33,0,377
1,33,97,43
1,33,0,59
1,40,87,1
1,40,0,377
1,40,97,43
1,40,0,59
1,43,94,1
1,43,0,402
1,43,90,18
1,43,0,43
1,43,94,17
1,43,0,402
1,43,90,18
1,43,0,43
1,36,87,17
1,36,0,171
1,36,74,9
1,36,0,60
1,33,87,0
1,33,0,171
1,33,74,9
1,33,0,60
1,40,87,0
1,40,0,171
1,40,74,9
1,40,0,60
1,43,87,0
1,43,0,171
1,43,74,9
1,43,0,60
1,36,87,0
1,36,0,171
1,36,74,9
1,36,0,60
1,33,90,0
1,33,0,175
1,33,90,5
1,33,0,60
1,34,87,0
1,34,0,171
1,34,74,9
1,34,0,60
1,41,90,0
1,41,0,175
1,41,90,5
1,41,0,60
1,40,87,0
1,40,0,171
1,40,74,9
1,40,0,60
1,33,90,0
1,33,0,175
1,33,90,5
1,33,0,60
1,40,90,0
1,40,0,175
1,40,90,5
1,40,0,60
1,43,90,0
1,43,0,175
1,43,90,5
1,43,0,60
1,39,87,0
1,39,0,171
1,39,74,9
1,39,0,60
1,34,87,0
1,34,0,171
1,34,74,9
1,34,0,60
1,36,90,0
1,36,0,152
1,36,84,28
1,36,0,32
1,36,90,28
1,36,0,160
1,36,90,20
1,36,0,50
1,36,90,10
1,36,0,175
1,36,90,5
1,36,0,60
1,33,87,0
1,33,0,171
1,33,74,9
1,33,0,60
1,40,87,0
1,40,0,171
1,40,74,9
1,40,0,60
1,43,90,0
1,43,0,175
1,43,90,5
1,43,0,60
1,36,87,0
1,36,0,171
1,36,74,9
1,36,0,60
1,33,90,0
1,33,0,175
1,33,90,5
1,33,0,60
1,34,90,0
1,34,0,175
1,34,90,5
1,34,0,60
1,41,90,0
1,41,0,175
1,41,90,5
1,41,0,60
1,40,90,0
1,40,0,175
1,40,90,5
1,40,0,60
1,33,90,0
1,33,0,175
1,33,90,5
1,33,0,60
1,40,90,0
1,40,0,175
1,40,90,5
1,40,0,60
1,43,87,0
1,43,0,171
1,43,74,9
1,43,0,60
1,39,87,0
1,39,0,171
1,39,74,9
1,39,0,60
1,34,87,0
1,34,0,171
1,34,74,9
1,34,0,60
1,36,90,0
1,36,0,152
1,36,84,28
1,36,0,32
1,36,90,28
1,36,0,160
1,36,90,20
1,36,0,50
1,34,87,10
1,34,0,171
1,34,74,9
1,34,0,60
1,41,87,0
1,41,0,171
1,41,74,9
1,41,0,60
1,36,94,0
1,36,0,165
1,36,87,15
1,36,0,48
1,36,90,12
1,36,0,171
1,36,71,9
1,36,0,50
1,36,94,10
1,36,0,165
1,36,87,15
1,36,0,48
1,36,90,12
1,36,0,171
1,36,71,9
1,36,0,50
1,36,87,10
1,36,0,377
1,36,97,43
1,36,0,59
1,33,87,1
1,33,0,377
1,33,97,43
1,33,0,59
1,40,94,1
1,40,0,402
1,40,90,18
1,40,0,43
1,43,94,17
1,43,0,402
1,43,90,18
1,43,0,43
1,36,87,17
1,36,0,377
1,36,97,43
1,36,0,59
1,33,87,1
1,33,0,377
1,33,97,43
1,33,0,59
1,40,87,1
1,40,0,377
1,40,97,43
1,40,0,59
1,43,87,1
1,43,0,377
1,43,97,43
1,43,0,59
1,36,90,1
1,36,0,175
1,36,90,5
1,36,0,60
1,33,90,0
1,33,0,175
1,33,90,5
1,33,0,60
1,40,87,0
1,40,0,171
1,40,74,9
1,40,0,60
1,43,90,0
1,43,0,175
1,43,90,5
1,43,0,60
1,36,87,0
1,36,0,171
1,36,74,9
1,36,0,60
1,33,90,0
1,33,0,175
1,33,90,5
1,33,0,60
1,34,87,0
1,34,0,171
1,34,74,9
1,34,0,60
1,41,87,0
1,41,0,171
1,41,74,9
1,41,0,60
1,40,90,0
1,40,0,175
1,40,90,5
1,40,0,60
1,33,90,0
1,33,0,175
1,33,90,5
1,33,0,60
1,40,90,0
1,40,0,175
1,40,90,5
1,40,0,60
1,43,87,0
1,43,0,171
1,43,74,9
1,43,0,60
1,39,87,0
1,39,0,171
1,39,74,9
1,39,0,60
1,34,87,0
1,34,0,171
1,34,74,9
1,34,0,60
1,36,90,0
1,36,0,152
1,36,84,28
1,36,0,32
1,36,90,28
1,36,0,160
1,36,90,20
1,36,0,50
1,36,90,10
1,36,0,175
1,36,90,5
1,36,0,60
1,33,87,0
1,33,0,171
1,33,74,9
1,33,0,60
1,40,90,0
1,40,0,175
1,40,90,5
1,40,0,60
1,43,87,0
1,43,0,171
1,43,74,9
1,43,0,60
1,36,87,0
1,36,0,171
1,36,74,9
1,36,0,60
1,33,90,0
1,33,0,175
1,33,90,5
1,33,0,60
1,34,90,0
1,34,0,175
1,34,90,5
1,34,0,60
1,41,90,0
1,41,0,175
1,41,90,5
1,41,0,60
1,40,87,0
1,40,0,171
1,40,74,9
1,40,0,60
1,33,90,0
1,33,0,175
1,33,90,5
1,33,0,60
1,40,90,0
1,40,0,175
1,40,90,5
1,40,0,60
1,43,90,0
1,43,0,175
1,43,90,5
1,43,0,60
1,39,90,0
1,39,0,175
1,39,90,5
1,39,0,60
1,34,87,0
1,34,0,171
1,34,74,9
1,34,0,60
1,36,94,0
1,36,0,165
1,36,87,15
1,36,0,48
1,36,90,12
1,36,0,171
1,36,71,9
1,36,0,50
1,36,94,10
1,36,0,165
1,36,87,15
1,36,0,48
1,36,90,12
1,36,0,171
1,36,71,9
1,36,0,50
1,34,90,10
1,34,0,175
1,34,90,5
1,34,0,60
1,41,90,0
1,41,0,175
1,41,90,5
1,41,0,60
1,36,84,0
1,36,0,157
1,36,81,23
1,36,0,26
1,36,71,34
1,36,0,159
1,36,94,21
1,36,0,25
1,36,94,35
1,36,0,153
1,36,77,27
1,50,81,60
1,36,0,4
1,48,77,56
1,50,0,6
1,48,0,51
1,45,74,3
1,45,0,48
1,43,87,12
1,43,0,42
1,36,94,18
1,36,0,165
1,36,87,15
1,36,0,48
1,36,90,12
1,36,0,171
1,36,71,9
1,36,0,50
1,33,94,10
1,33,0,165
1,33,87,15
1,33,0,48
1,33,90,12
1,33,0,171
1,33,71,9
1,33,0,50
1,40,94,10
1,40,0,165
1,40,87,15
1,40,0,48
1,40,90,12
1,40,0,171
1,40,71,9
1,40,0,50
1,43,94,10
1,43,0,165
1,43,87,15
1,43,0,48
1,43,90,12
1,43,0,171
1,43,71,9
1,43,0,50
1,36,94,10
1,36,0,165
1,36,87,15
1,36,0,48
1,36,90,12
1,36,0,171
1,36,71,9
1,36,0,50
1,33,94,10
1,33,0,165
1,33,87,15
1,33,0,48
1,33,90,12
1,33,0,171
1,33,71,9
1,33,0,50
1,40,94,10
1,40,0,165
1,40,87,15
1,40,0,48
1,40,90,12
1,40,0,171
1,40,71,9
1,40,0,50
1,43,90,10
1,43,0,152
1,43,84,28
1,43,0,32
1,43,90,28
1,43,0,160
1,43,90,20
1,43,0,50
1,36,90,10
1,36,0,175
1,36,90,5
1,36,0,60
1,33,87,0
1,33,0,171
1,33,74,9
1,33,0,60
1,40,87,0
1,40,0,171
1,40,74,9
1,40,0,60
1,43,87,0
1,43,0,171
1,43,74,9
1,43,0,60
1,36,87,0
1,36,0,171
1,36,74,9
1,36,0,60
1,33,90,0
1,33,0,175
1,33,90,5
1,33,0,60
1,34,90,0
1,34,0,175
1,34,90,5
1,34,0,60
1,41,90,0
1,41,0,175
1,41,90,5
1,41,0,60
1,40,90,0
1,40,0,161
1,40,94,19
1,40,0,57
1,33,84,3
1,33,0,240
1,40,84,0
1,40,0,240
1,43,90,0
1,43,0,161
1,43,94,19
1,43,0,57
1,39,90,3
1,39,0,161
1,39,94,19
1,39,0,57
1,34,84,3
1,34,0,240
1,36,97,0
1,43,63,300
1,36,0,2
1,48,97,58
1,43,0,1
1,43,68,59
1,48,0,14
1,43,0,36
1,36,94,10
1,36,0,402
1,36,90,18
1,36,0,43
1,34,84,17
1,34,0,240
1,41,90,0
1,41,0,161
1,41,94,19
1,41,0,57
1,36,94,3
1,36,0,402
1,36,90,18
1,36,0,43
1,36,64,17
1,36,0,143
2,38,80,8670
2,38,0,25
2,38,100,5
2,69,60,0
2,69,0,25
2,38,0,0
2,38,90,35
2,39,80,0
2,69,100,0
2,69,0,25
2,39,0,0
2,38,0,0
2,38,100,35
2,69,60,0
2,69,0,25
2,38,0,0
2,38,90,35
2,54,80,0
2,69,100,0
2,69,0,25
2,54,0,0
2,38,0,0
2,38,100,35
2,54,100,0
2,69,60,0
2,69,0,25
2,54,0,0
2,38,0,0
2,38,115,35
2,39,80,0
2,69,100,0
2,69,0,25
2,39,0,0
2,38,0,0
2,35,80,35
2,46,90,0
2,69,60,0
2,69,0,25
2,46,0,0
2,35,0,0
2,35,100,35
2,42,100,0
2,49,90,0
2,69,100,0
2,69,0,25
2,35,0,0
2,42,0,0
2,49,0,0
2,42,60,35
2,69,60,0
2,69,0,25
2,42,0,0
2,38,100,35
2,42,100,0
2,39,80,0
2,69,100,0
2,69,0,25
2,38,0,0
2,42,0,0
2,39,0,0
2,35,80,35
2,42,60,0
2,69,60,0
2,69,0,25
2,42,0,0
2,35,0,0
2,35,100,35
2,42,100,0
2,69,100,0
2,69,0,25
2,42,0,0
2,35,0,0
2,42,60,35
2,69,60,0
2,69,0,25
2,42,0,0
2,38,100,35
2,42,100,0
2,39,80,0
2,69,100,0
2,69,0,25
2,38,0,0
2,42,0,0
2,39,0,0
2,42,60,35
2,69,60,0
2,69,0,25
2,42,0,0
2,35,100,35
2,42,100,0
2,69,100,0
2,69,0,25
2,42,0,0
2,35,0,0
2,42,60,35
2,69,60,0
2,69,0,25
2,42,0,0
2,38,100,35
2,42,100,0
2,39,80,0
2,69,100,0
2,69,0,25
2,38,0,0
2,42,0,0
2,39,0,0
2,35,80,35
2,42,60,0
2,69,60,0
2,69,0,25
2,42,0,0
2,35,0,0
2,35,100,35
2,42,100,0
2,54,90,0
2,69,100,0
2,69,0,25
2,35,0,0
2,42,0,0
2,54,0,0
2,42,60,35
2,54,80,0
2,69,60,0
2,69,0,25
2,54,0,0
2,42,0,0
2,38,100,35
2,42,100,0
2,39,80,0
2,69,100,0
2,69,0,25
2,38,0,0
2,42,0,0
2,39,0,0
2,35,80,35
2,42,60,0
2,69,60,0
2,69,0,25
2,42,0,0
2,35,0,0
2,35,100,35
2,42,100,0
2,69,100,0
2,69,0,25
2,42,0,0
2,35,0,0
2,42,60,35
2,69,60,0
2,69,0,25
2,42,0,0
2,38,100,35
2,42,100,0
2,39,80,0
2,69,100,0
2,69,0,25
2,38,0,0
2,42,0,0
2,39,0,0
2,35,80,35
2,42,60,0
2,69,60,0
2,69,0,25
2,42,0,0
2,35,0,0
2,35,100,35
2,42,100,0
2,69,100,0
2,69,0,25
2,42,0,0
2,35,0,0
2,42,60,35
2,69,60,0
2,69,0,25
2,42,0,0
2,38,100,35
2,42,100,0
2,39,80,0
2,69,100,0
2,69,0,25
2,38,0,0
2,42,0,0
2,39,0,0
2,35,80,35
2,42,60,0
2,69,60,0
2,69,0,25
2,42,0,0
2,35,0,0
2,35,100,35
2,42,100,0
2,69,100,0
2,69,0,25
2,42,0,0
2,35,0,0
2,42,60,35
2,69,60,0
2,69,0,25
2,42,0,0
2,38,100,35
2,42,100,0
2,39,80,0
2,69,100,0
2,69,0,25
2,38,0,0
2,42,0,0
2,39,0,0
2,35,80,35
2,42,60,0
2,69,60,0
2,69,0,25
2,42,0,0
2,35,0,0
2,35,100,35
2,42,100,0
2,54,80,0
2,69,100,0
2,69,0,25
2,35,0,0
2,42,0,0
2,54,0,0
2,42,60,35
2,54,100,0
2,69,60,0
2,69,0,25
2,54,0,0
2,42,0,0
2,38,100,35
2,42,100,0
2,39,80,0
2,69,100,0
2,69,0,25
2,38,0,0
2,42,0,0
2,39,0,0
2,35,80,35
2,42,60,0
2,69,60,0
2,69,0,25
2,42,0,0
2,35,0,0
2,35,100,35
2,42,100,0
2,69,100,0
2,69,0,25
2,42,0,0
2,35,0,0
2,42,60,35
2,69,60,0
2,69,0,25
2,42,0,0
2,38,100,35
2,42,100,0
2,39,80,0
2,69,100,0
2,69,0,25
2,38,0,0
2,42,0,0
2,39,0,0
2,35,80,35
2,42,60,0
2,69,60,0
2,69,0,25
2,42,0,0
2,35,0,0
2,35,100,35
2,42,100,0
2,69,100,0
2,69,0,25
2,42,0,0
2,35,0,0
2,42,60,35
2,69,60,0
2,69,0,25
2,42,0,0
2,38,100,35
2,42,100,0
2,39,80,0
2,69,100,0
2,69,0,25
2,38,0,0
2,42,0,0
2,39,0,0
2,35,80,35
2,42,60,0
2,69,60,0
2,69,0,25
2,42,0,0
2,35,0,0
2,35,100,35
2,42,100,0
2,69,100,0
2,69,0,25
2,42,0,0
2,35,0,0
2,42,60,35
2,69,60,0
2,69,0,25
2,42,0,0
2,38,100,35
2,42,100,0
2,39,80,0
2,69,100,0
2,69,0,25
2,38,0,0
2,42,0,0
2,39,0,0
2,35,80,35
2,42,60,0
2,69,60,0
2,69,0,25
2,42,0,0
2,35,0,0
2,35,100,35
2,42,100,0
2,54,90,0
2,69,100,0
2,69,0,25
2,35,0,0
2,42,0,0
2,54,0,0
2,42,60,35
2,54,80,0
2,69,60,0
2,69,0,25
2,54,0,0
2,42,0,0
2,38,100,35
2,42,100,0
2,39,80,0
2,69,100,0
2,69,0,25
2,38,0,0
2,42,0,0
2,39,0,0
2,35,80,35
2,42,60,0
2,69,60,0
2,69,0,25
2,42,0,0
2,35,0,0
2,35,100,35
2,42,100,0
2,69,100,0
2,69,0,25
2,42,0,0
2,35,0,0
2,42,60,35
2,69,60,0
2,69,0,25
2,42,0,0
2,38,100,35
2,42,100,0
2,39,80,0
2,69,100,0
2,69,0,25
2,38,0,0
2,42,0,0
2,39,0,0
2,35,80,35
2,42,60,0
2,69,60,0
2,69,0,25
2,42,0,0
2,35,0,0
2,35,100,35
2,42,100,0
2,69,100,0
2,69,0,25
2,42,0,0
2,35,0,0
2,42,60,35
2,69,60,0
2,69,0,25
2,42,0,0
2,38,100,35
2,42,100,0
2,39,80,0
2,69,100,0
2,69,0,25
2,38,0,0
2,42,0,0
2,39,0,0
2,35,80,35
2,42,60,0
2,69,60,0
2,69,0,25
2,42,0,0
2,35,0,0
2,35,100,35
2,38,100,0
2,69,100,0
2,69,0,25
2,38,0,0
2,35,0,0
2,38,60,35
2,69,60,0
2,69,0,25
2,38,0,0
2,38,50,35
2,39,80,0
2,69,100,0
2,69,0,25
2,39,0,0
2,38,0,0
2,38,100,35
2,69,60,0
2,69,0,25
2,38,0,0
2,35,100,35
2,38,60,0
2,54,80,0
2,69,100,0
2,69,0,25
2,35,0,0
2,38,0,0
2,54,0,0
2,38,40,35
2,54,100,0
2,69,60,0
2,69,0,25
2,54,0,0
2,38,0,0
2,38,100,35
2,39,80,0
2,69,100,0
2,69,0,25
2,39,0,0
2,38,0,0
2,35,80,35
2,38,90,0
2,69,60,0
2,69,0,25
2,38,0,0
2,35,0,0
2,35,100,35
2,42,100,0
2,49,90,0
2,69,100,0
2,69,0,25
2,35,0,0
2,42,0,0
2,49,0,0
2,42,60,35
2,69,60,0
2,69,0,25
2,42,0,0
2,38,100,35
2,42,100,0
2,39,80,0
2,69,100,0
2,69,0,25
2,38,0,0
2,42,0,0
2,39,0,0
2,35,80,35
2,42,60,0
2,69,60,0
2,69,0,25
2,42,0,0
2,35,0,0
2,35,100,35
2,42,100,0
2,69,100,0
2,69,0,25
2,42,0,0
2,35,0,0
2,42,60,35
2,69,60,0
2,69,0,25
2,42,0,0
2,38,100,35
2,42,100,0
2,39,80,0
2,69,100,0
2,69,0,25
2,38,0,0
