track,note,velocity,time
1,34,94,8496
1,39,94,0
1,41,94,0
1,46,94,0
1,39,94,0
1,41,94,0
1,37,94,0
1,39,94,0
1,29,94,0
1,29,94,0
1,34,94,0
1,39,94,0
1,41,94,0
1,46,94,0
1,39,94,0
1,41,94,0
1,37,94,0
1,39,94,0
1,29,94,0
1,29,94,0
1,34,94,0
1,39,94,0
1,41,94,0
1,46,94,0
1,39,94,0
1,41,94,0
1,37,94,0
1,39,94,0
1,29,94,0
1,29,94,0
1,34,94,0
1,39,94,0
1,41,94,0
1,46,94,0
1,39,94,0
1,41,94,0
1,37,94,0
1,39,94,0
1,29,94,0
1,29,94,0
1,34,94,0
1,34,94,192
1,34,94,0
1,34,94,192
1,34,94,0
1,34,94,192
1,34,94,0
1,34,94,192
1,34,94,0
1,34,94,192
1,34,94,0
1,34,94,192
1,34,94,0
1,34,94,192
1,34,94,0
1,34,94,192
1,34,94,0
1,34,94,192
1,34,94,0
1,34,94,192
1,34,94,0
1,34,94,0
1,34,94,0
1,34,94,192
1,34,94,0
1,34,94,192
1,34,94,0
1,34,94,192
1,34,94,0
1,34,94,192
1,34,94,0
1,34,94,192
1,41,94,0
1,41,94,192
1,41,94,0
1,41,94,192
1,39,94,0
1,39,94,192
1,39,94,0
1,39,94,192
1,41,94,0
1,41,94,192
1,41,94,0
1,41,94,192
1,39,94,0
1,39,94,192
1,39,94,0
1,39,94,192
1,41,94,0
1,41,94,192
1,41,94,0
1,41,94,192
1,41,94,0
1,41,94,192
1,41,94,0
1,41,94,192
1,41,94,0
1,41,94,192
1,41,94,0
1,41,94,192
1,41,94,0
1,41,94,192
1,29,94,0
1,29,94,192
1,30,94,0
1,30,94,192
1,30,94,0
1,30,94,192
1,32,94,0
1,32,94,192
1,32,94,0
1,32,94,192
1,30,94,0
1,30,94,192
1,30,94,0
1,30,94,192
1,32,94,0
1,32,94,192
1,32,94,0
1,32,94,192
1,30,94,0
1,30,94,192
1,30,94,0
1,30,94,0
1,32,94,0
1,32,94,192
1,32,94,0
1,32,94,192
1,30,94,0
1,30,94,0
1,30,94,0
1,30,94,0
1,32,94,0
1,32,94,768
1,32,94,0
1,39,94,192
1,39,94,192
1,39,94,0
1,39,94,192
1,39,94,0
1,39,94,192
1,39,94,0
1,39,94,192
1,35,94,0
1,35,94,192
1,35,94,0
1,35,94,192
1,39,94,0
1,39,94,192
1,39,94,0
1,39,94,192
1,39,94,0
1,39,94,192
1,39,94,0
1,39,94,192
1,39,94,0
1,39,94,192
1,39,94,0
1,39,94,192
1,35,94,0
1,35,94,192
1,35,94,0
1,35,94,192
1,32,94,0
1,32,94,192
1,32,94,0
1,32,94,192
1,39,94,0
1,39,94,192
1,39,94,0
1,39,94,192
1,39,94,0
1,39,94,192
1,39,94,0
1,39,94,192
1,35,94,0
1,35,94,192
1,35,94,0
1,35,94,192
1,39,94,0
1,39,94,0
1,39,94,0
1,39,94,192
1,39,94,0
1,39,94,192
1,39,94,0
1,39,94,192
1,39,94,0
1,39,94,192
1,39,94,0
1,39,94,192
1,35,94,0
1,35,94,0
1,35,94,0
1,35,94,192
1,32,94,0
1,32,94,192
1,32,94,0
1,34,94,0
1,34,94,0
1,39,94,0
1,41,94,0
1,46,94,0
1,39,94,0
1,41,94,0
1,37,94,0
1,39,94,0
1,29,94,0
1,29,94,0
1,34,94,0
1,39,94,0
1,41,94,0
1,46,94,0
1,39,94,0
1,41,94,0
1,37,94,0
1,39,94,0
1,29,94,0
1,29,94,0
1,34,94,0
1,34,94,192
1,34,94,0
1,34,94,0
1,34,94,0
1,34,94,192
1,34,94,0
1,34,94,192
1,34,94,0
1,34,94,0
1,34,94,0
1,34,94,192
1,34,94,0
1,34,94,0
1,34,94,0
1,34,94,192
1,34,94,0
1,34,94,192
1,34,94,0
1,34,94,0
1,34,94,0
1,34,94,0
1,34,94,0
1,34,94,192
1,34,94,0
1,34,94,192
1,34,94,0
1,34,94,192
1,34,94,0
1,34,94,192
1,34,94,0
1,34,94,0
1,34,94,0
1,34,94,192
1,41,94,0
1,41,94,192
1,41,94,0
1,41,94,192
1,39,94,0
1,39,94,192
1,39,94,0
1,39,94,192
1,41,94,0
1,41,94,192
1,41,94,0
1,41,94,0
1,39,94,0
1,29,94,192
1,30,94,0
1,30,94,192
1,30,94,0
1,30,94,192
1,32,94,0
1,32,94,192
1,32,94,0
1,32,94,192
1,30,94,0
1,30,94,0
1,30,94,0
1,30,94,192
1,32,94,0
1,32,94,192
1,32,94,0
1,32,94,192
1,30,94,0
1,30,94,0
1,30,94,0
1,30,94,192
1,32,94,0
1,32,94,192
1,32,94,0
1,32,94,192
1,30,94,0
1,30,94,192
1,30,94,0
1,32,94,192
1,32,94,0
1,32,94,0
1,32,94,0
1,32,94,192
1,39,94,0
1,39,94,192
1,39,94,0
1,39,94,192
1,39,94,0
1,39,94,192
1,39,94,0
1,39,94,192
1,35,94,0
1,35,94,192
1,35,94,0
1,35,94,192
1,39,94,0
1,39,94,0
1,39,94,0
1,39,94,192
1,39,94,0
1,39,94,192
1,39,94,0
1,39,94,192
1,39,94,0
1,39,94,192
1,39,94,0
1,39,94,192
1,35,94,0
1,35,94,192
1,35,94,0
1,35,94,192
1,32,94,0
1,32,94,192
1,32,94,0
1,32,94,192
1,39,94,0
1,39,94,192
1,39,94,0
1,39,94,192
1,39,94,0
1,39,94,192
1,39,94,0
1,39,94,192
1,35,94,0
1,35,94,192
1,35,94,0
1,35,94,192
1,39,94,0
1,39,94,192
1,39,94,0
1,39,94,192
1,39,94,0
1,39,94,192
1,39,94,0
1,39,94,192
1,39,94,0
1,39,94,192
1,39,94,0
1,39,94,192
1,35,94,0
1,35,94,192
1,35,94,0
1,35,94,192
1,32,94,0
1,32,94,192
1,32,94,0
1,32,94,0
1,34,94,0
1,34,53,0
1,34,94,0
1,39,53,192
1,41,46,0
1,46,53,0
1,39,53,0
1,41,65,0
1,37,50,0
1,39,71,0
1,29,46,0
1,29,56,0
1,34,42,0
1,39,42,0
1,41,59,0
1,46,56,0
1,39,56,0
1,41,59,0
1,37,42,0
1,39,65,0
1,29,83,0
1,29,24,0
1,34,56,0
1,39,53,0
1,41,56,0
1,46,53,0
1,39,38,0
1,41,65,0
1,37,34,0
1,39,77,0
1,29,50,0
1,29,50,0
1,34,50,0
1,39,53,0
1,41,56,0
1,46,65,0
1,39,59,0
1,41,53,0
1,37,42,0
1,39,59,0
1,29,42,0
1,29,53,192
1,34,56,0
1,39,53,0
1,41,53,0
1,46,62,0
1,39,42,0
1,41,56,0
1,37,56,0
1,39,65,0
1,29,68,0
1,29,46,192
1,34,56,0
1,39,42,0
1,41,65,0
1,46,71,0
1,39,42,0
1,41,65,0
1,37,46,0
1,39,56,0
1,29,46,0
1,29,59,192
1,34,50,0
1,39,38,0
1,41,59,0
1,46,59,0
1,39,42,0
1,41,65,0
1,37,50,0
1,39,68,0
1,29,42,0
1,29,59,192
1,34,68,0
1,39,53,0
1,41,42,0
1,46,59,0
1,39,50,0
1,41,59,0
1,37,42,0
1,39,68,0
1,29,56,0
1,29,65,192
1,34,50,0
1,39,42,0
1,41,59,0
1,46,68,0
1,39,53,0
1,41,59,0
1,37,50,0
1,39,74,0
1,29,46,0
1,29,62,192
1,34,42,0
1,39,56,0
1,41,59,0
1,46,68,0
1,39,34,0
1,41,46,0
1,37,42,0
1,39,74,0
1,29,53,0
1,29,62,0
1,34,50,0
1,39,50,0
1,41,50,0
1,46,71,0
1,39,38,0
1,41,59,0
1,37,50,0
1,39,68,0
1,29,59,0
1,29,59,0
1,34,59,0
2,85,119,14640
2,73,119,192
2,84,119,0
2,73,119,0
2,82,119,0
2,73,119,0
2,80,119,0
2,73,119,0
2,82,119,0
2,73,119,0
2,80,119,0
2,73,119,0
2,77,119,0
2,73,119,0
2,75,119,0
2,85,119,0
2,73,119,192
2,84,119,0
2,73,119,0
2,82,119,0
2,73,119,0
2,80,119,0
2,73,119,0
2,82,119,0
2,73,119,0
2,80,119,0
2,73,119,0
2,77,119,0
2,73,119,0
2,75,119,0
2,73,119,0
2,85,119,61248
2,73,119,192
2,84,119,0
2,73,119,0
2,82,119,0
2,73,119,0
2,80,119,0
2,73,119,0
2,82,119,0
2,73,119,0
2,80,119,0
2,73,119,0
2,77,119,0
2,73,119,0
2,75,119,0
2,85,119,0
2,73,119,192
2,84,119,0
2,73,119,0
2,82,119,0
2,73,119,0
2,80,119,0
2,73,119,0
2,82,119,0
2,73,119,0
2,80,119,0
2,73,119,0
2,77,119,0
2,73,119,0
2,75,119,0
2,73,119,0
2,85,119,55104
2,73,119,192
2,84,119,0
2,73,119,0
2,82,119,0
2,73,119,0
2,80,119,0
2,73,119,0
2,82,119,0
2,73,119,0
2,80,119,0
2,73,119,0
2,77,119,0
2,73,119,0
2,75,119,0
2,85,119,0
2,73,119,192
2,84,119,0
2,73,119,0
2,82,119,0
2,73,119,0
2,80,119,0
2,73,119,0
2,82,119,0
2,73,119,0
2,80,119,0
2,73,119,0
2,77,119,0
2,73,119,0
2,75,119,0
2,73,119,0
2,85,119,0
2,73,119,0
2,84,119,0
2,73,119,0
2,82,119,0
2,73,119,0
2,80,119,0
2,73,119,0
2,82,119,0
2,73,119,0
2,80,119,0
2,73,119,0
2,77,119,0
2,73,119,0
2,75,119,0
2,85,119,0
2,73,119,192
2,84,119,0
2,73,119,0
2,82,119,0
2,73,119,0
2,80,119,0
2,73,119,0
2,82,119,0
2,73,119,0
2,80,119,0
2,73,119,0
2,77,119,0
2,73,119,0
2,75,119,0
2,73,119,0
2,85,119,0
2,73,119,0
2,84,119,0
2,73,119,0
2,82,119,0
2,73,119,0
2,80,119,0
2,73,119,0
2,82,119,0
2,73,119,0
2,80,119,0
2,73,119,0
2,77,119,0
2,73,119,0
2,75,119,0
2,85,119,0
2,73,119,192
2,84,119,0
2,73,119,0
2,82,119,0
2,73,119,0
2,80,119,0
2,73,119,0
2,82,119,0
2,73,119,0
2,80,119,0
2,73,119,0
2,77,119,0
2,73,119,0
2,75,119,0
2,73,119,0
2,85,119,0
2,73,119,0
2,84,119,0
2,73,119,0
2,82,119,0
2,73,119,0
2,80,119,0
2,73,119,0
2,82,119,0
2,73,119,0
2,80,119,0
2,73,119,0
2,77,119,0
2,73,119,0
2,75,119,0
2,85,119,0
2,73,119,192
2,84,119,0
2,73,119,0
2,82,119,0
2,73,119,0
2,80,119,0
2,73,119,0
2,82,119,0
2,73,119,0
2,80,119,0
2,73,119,0
2,77,119,0
2,73,119,0
2,75,119,0
2,73,119,0
2,85,119,0
2,73,119,0
2,84,119,0
2,73,119,0
2,82,119,0
2,73,119,0
2,80,119,0
2,73,119,0
2,82,119,0
2,73,119,0
2,80,119,0
2,73,119,0
2,77,119,0
2,73,119,0
2,75,119,0
2,85,119,0
2,73,119,192
2,84,119,0
2,73,119,0
2,82,119,0
2,73,119,0
2,80,119,0
2,73,119,0
2,82,119,0
2,73,119,0
2,80,119,0
2,73,119,0
2,77,119,0
2,73,119,0
2,75,119,0
2,73,119,0
2,85,119,0
2,73,119,0
2,84,119,0
2,73,119,0
2,82,119,0
2,73,119,0
2,80,119,0
2,73,119,0
2,82,119,0
2,73,119,0
2,80,119,0
2,73,119,0
2,77,119,0
2,73,119,0
2,75,119,0
3,46,120,88752
3,34,120,0
3,34,120,384
3,46,120,0
3,46,120,384
3,34,120,0
3,34,120,384
3,46,120,0
3,34,120,384
3,46,120,0
3,34,120,384
3,46,120,0
3,34,120,384
3,46,120,0
3,34,120,384
3,46,120,0
3,34,120,384
3,46,120,0
3,46,120,384
3,34,120,0
3,34,120,384
3,46,120,0
3,34,120,384
3,46,120,0
3,34,120,384
3,46,120,0
3,34,120,384
3,46,120,0
3,34,120,384
3,46,120,0
3,46,120,384
3,34,120,0
4,77,62,816
4,65,24,512
4,75,50,1024
4,63,5,92
4,84,62,1264
4,72,9,72
4,82,56,1464
4,70,29,108
4,65,24,262
4,70,68,192
4,77,53,0
4,68,68,0
4,70,83,0
4,68,68,0
4,85,104,0
4,70,65,2
4,77,56,4
4,84,104,0
4,82,104,0
4,80,101,0
4,65,42,52
4,68,104,8
4,82,124,0
4,80,107,0
4,77,80,0
4,79,56,0
4,75,116,0
4,70,9,28
4,85,125,0
4,77,38,24
4,84,116,0
4,82,89,0
4,80,89,0
4,65,38,78
4,68,59,10
4,82,95,0
4,80,104,0
4,77,98,0
4,75,68,0
4,70,53,0
4,77,34,0
4,68,68,192
4,70,62,0
4,77,74,0
4,68,83,0
4,70,56,0
4,68,62,0
4,70,53,0
4,68,50,0
4,65,74,192
4,63,68,0
4,65,59,0
4,63,56,0
4,65,46,192
4,63,59,0
4,65,38,0
4,63,74,0
4,65,71,0
4,73,14,192
4,82,42,0
4,80,71,0
4,82,56,0
4,80,77,0
4,77,38,576
4,82,77,0
4,77,42,0
4,80,89,0
4,77,59,0
4,82,59,0
4,77,68,0
4,80,56,0
4,78,53,192
4,70,14,0
4,75,71,0
4,82,9,0
4,78,42,0
4,75,50,0
4,83,46,0
4,71,59,0
4,82,62,0
4,75,74,0
4,70,68,0
4,80,56,0
4,78,42,384
4,83,46,0
4,78,68,0
4,75,74,0
4,71,50,0
4,75,83,192
4,66,50,0
4,68,53,0
4,71,92,0
4,80,38,384
4,70,42,0
4,75,83,0
4,78,42,192
4,70,53,50
4,82,1,92
4,82,104,0
4,78,5,192
4,78,104,0
4,75,104,384
4,71,9,0
4,71,42,0
4,78,65,0
4,75,71,0
4,83,53,0
4,75,53,0
4,78,89,0
4,70,53,0
4,82,1,576
4,82,24,0
4,75,74,192
4,71,59,0
4,78,68,0
4,68,50,192
4,71,56,0
4,75,50,0
4,70,56,184
4,77,59,0
4,85,104,8
4,84,112,0
4,82,114,0
4,80,112,0
4,82,126,0
4,65,53,10
4,68,59,2
4,80,118,0
4,77,120,0
4,75,125,0
4,70,34,26
4,77,46,10
4,85,116,0
4,84,112,0
4,82,107,0
4,80,116,0
4,68,59,20
4,72,71,0
4,82,89,0
4,80,89,0
4,77,83,0
4,75,98,0
4,70,68,0
4,77,56,0
4,68,74,0
4,70,38,0
4,68,56,0
4,70,56,0
4,68,53,0
4,70,59,0
4,68,56,0
4,65,104,178
4,77,112,3022
4,70,122,358
4,82,56,10
4,70,42,0
4,75,98,300
4,80,83,0
4,75,89,398
4,68,77,376
4,68,38,0
4,80,50,0
4,75,80,334
4,75,42,32
4,80,104,306
4,75,98,390
4,70,89,80
4,82,5,12
4,70,56,0
4,77,83,0
4,75,122,352
4,80,112,2
4,75,104,386
4,68,83,172
4,75,59,0
4,68,62,0
4,80,59,0
4,75,116,2
4,80,89,4
4,75,95,372
4,70,86,78
4,82,9,14
4,77,77,0
4,70,74,0
4,75,120,338
4,80,104,4
4,75,118,396
4,68,89,156
4,80,62,0
4,75,50,0
4,68,68,0
4,75,98,302
4,80,116,62
4,75,120,340
4,70,118,34
4,77,59,26
4,82,62,0
4,70,59,0
4,75,127,322
4,80,98,354
4,75,125,388
4,68,112,20
4,75,65,0
4,80,74,0
4,68,59,0
4,70,59,128
4,75,68,0
4,78,71,0
4,82,50,384
4,75,65,0
4,78,71,0
4,71,68,0
4,75,59,0
4,78,53,0
4,70,38,0
4,75,71,0
4,78,68,0
4,71,65,0
4,68,59,0
4,75,89,0
4,71,65,0
4,75,65,192
4,70,65,0
4,78,68,0
4,78,71,0
4,75,71,0
4,71,80,0
4,75,65,192
4,78,59,0
4,70,53,0
4,75,71,0
4,78,65,0
4,71,68,0
4,68,50,0
4,75,53,0
4,71,65,0
4,70,42,368
4,77,53,6
4,85,110,0
4,84,83,0
4,82,95,0
4,80,89,0
4,82,83,0
4,68,53,32
4,65,34,0
4,80,89,0
4,77,122,0
4,75,83,0
4,77,86,148
4,85,101,0
4,70,50,10
4,84,77,0
4,82,116,0
4,80,83,0
4,82,95,0
4,68,62,8
4,65,34,2
4,80,112,0
4,77,92,0
4,75,98,0
