track,note,velocity,time
1,36,94,960
1,36,0,405
1,36,84,15
1,36,0,27
1,36,87,33
1,36,0,405
1,36,65,15
1,36,0,42
1,36,84,18
1,36,0,470
1,36,97,10
1,36,0,475
1,36,94,5
1,36,0,165
1,36,87,15
1,36,0,48
1,36,90,12
1,36,0,171
1,36,71,9
1,36,0,50
1,40,94,10
1,40,0,165
1,40,87,15
1,40,0,48
1,40,90,12
1,40,0,171
1,40,71,9
1,40,0,50
1,38,94,10
1,38,0,165
1,38,87,15
1,38,0,48
1,38,90,12
1,38,0,171
1,38,71,9
1,38,0,50
1,43,94,10
1,43,0,165
1,43,87,15
1,43,0,48
1,43,90,12
1,43,0,171
1,43,71,9
1,43,0,50
1,41,94,10
1,41,0,165
1,41,87,15
1,41,0,48
1,41,90,12
1,41,0,171
1,41,71,9
1,41,0,50
1,43,94,10
1,43,0,165
1,43,87,15
1,43,0,48
1,43,90,12
1,43,0,171
1,43,71,9
1,43,0,50
1,34,94,10
1,34,0,165
1,34,87,15
1,34,0,48
1,34,90,12
1,34,0,171
1,34,71,9
1,34,0,50
1,41,94,10
1,41,0,165
1,41,87,15
1,41,0,48
1,41,90,12
1,41,0,171
1,41,71,9
1,41,0,50
1,36,94,10
1,36,0,165
1,36,87,15
1,36,0,48
1,36,90,12
1,36,0,171
1,36,71,9
1,36,0,50
1,40,94,10
1,40,0,165
1,40,87,15
1,40,0,48
1,40,90,12
1,40,0,171
1,40,71,9
1,40,0,50
1,38,94,10
1,38,0,165
1,38,87,15
1,38,0,48
1,38,90,12
1,38,0,171
1,38,71,9
1,38,0,50
1,43,94,10
1,43,0,165
1,43,87,15
1,43,0,48
1,43,90,12
1,43,0,171
1,43,71,9
1,43,0,50
1,41,94,10
1,41,0,165
1,41,87,15
1,41,0,48
1,41,90,12
1,41,0,171
1,41,71,9
1,41,0,50
1,43,94,10
1,43,0,165
1,43,87,15
1,43,0,48
1,43,90,12
1,43,0,171
1,43,71,9
1,43,0,50
1,34,94,10
1,34,0,165
1,34,87,15
1,34,0,48
1,34,90,12
1,34,0,171
1,34,71,9
1,34,0,50
1,41,94,10
1,41,0,165
1,41,87,15
1,41,0,48
1,41,90,12
1,41,0,171
1,41,71,9
1,41,0,50
1,36,94,10
1,36,0,165
1,36,87,15
1,36,0,48
1,36,90,12
1,36,0,171
1,36,71,9
1,36,0,50
1,40,94,10
1,40,0,165
1,40,87,15
1,40,0,48
1,40,90,12
1,40,0,171
1,40,71,9
1,40,0,50
1,38,94,10
1,38,0,165
1,38,87,15
1,38,0,48
1,38,90,12
1,38,0,171
1,38,71,9
1,38,0,50
1,43,94,10
1,43,0,165
1,43,87,15
1,43,0,48
1,43,90,12
1,43,0,171
1,43,71,9
1,43,0,50
1,41,94,10
1,41,0,165
1,41,87,15
1,41,0,48
1,41,90,12
1,41,0,171
1,41,71,9
1,41,0,50
1,43,94,10
1,43,0,165
1,43,87,15
1,43,0,48
1,43,90,12
1,43,0,171
1,43,71,9
1,43,0,50
1,34,94,10
1,34,0,165
1,34,87,15
1,34,0,48
1,34,90,12
1,34,0,171
1,34,71,9
1,34,0,50
1,41,90,10
1,41,0,152
1,41,84,28
1,41,0,32
1,41,90,28
1,41,0,160
1,41,90,20
1,41,0,50
1,36,90,10
1,36,0,403
1,36,71,17
1,36,0,39
1,36,71,21
1,31,68,420
1,36,0,5
1,31,0,22
1,40,94,33
1,40,0,405
1,40,84,15
1,40,0,27
1,40,87,33
1,40,0,405
1,40,65,15
1,40,0,42
1,36,87,18
1,36,0,377
1,36,97,43
1,36,0,59
1,36,87,1
1,36,0,377
1,36,97,43
1,36,0,59
1,41,94,1
1,41,0,405
1,41,84,15
1,41,0,27
1,41,87,33
1,41,0,405
1,41,65,15
1,41,0,42
1,36,84,18
1,36,0,470
1,36,97,10
1,36,0,475
1,40,87,5
1,40,0,377
1,40,97,43
1,40,0,59
1,36,97,1
1,43,63,300
1,36,0,2
1,48,97,58
1,43,0,1
1,43,68,59
1,48,0,14
1,43,0,36
1,41,84,10
1,41,0,470
1,41,97,10
1,41,0,475
1,38,84,5
1,38,0,470
1,38,97,10
1,38,0,475
1,43,90,5
1,43,0,403
1,43,71,17
1,43,0,39
1,43,71,21
1,38,68,420
1,43,0,5
1,38,0,22
1,43,90,33
1,43,0,403
1,43,71,17
1,43,0,39
1,43,71,21
1,38,68,420
1,43,0,5
1,38,0,22
1,36,94,33
1,36,0,165
1,36,87,15
1,36,0,48
1,36,90,12
1,36,0,171
1,36,71,9
1,36,0,50
1,40,94,10
1,40,0,165
1,40,87,15
1,40,0,48
1,40,90,12
1,40,0,171
1,40,71,9
1,40,0,50
1,38,94,10
1,38,0,165
1,38,87,15
1,38,0,48
1,38,90,12
1,38,0,171
1,38,71,9
1,38,0,50
1,43,94,10
1,43,0,165
1,43,87,15
1,43,0,48
1,43,90,12
1,43,0,171
1,43,71,9
1,43,0,50
1,41,94,10
1,41,0,165
1,41,87,15
1,41,0,48
1,41,90,12
1,41,0,171
1,41,71,9
1,41,0,50
1,43,94,10
1,43,0,165
1,43,87,15
1,43,0,48
1,43,90,12
1,43,0,171
1,43,71,9
1,43,0,50
1,34,94,10
1,34,0,165
1,34,87,15
1,34,0,48
1,34,90,12
1,34,0,171
1,34,71,9
1,34,0,50
1,41,94,10
1,41,0,165
1,41,87,15
1,41,0,48
1,41,90,12
1,41,0,171
1,41,71,9
1,41,0,50
1,36,94,10
1,36,0,165
1,36,87,15
1,36,0,48
1,36,90,12
1,36,0,171
1,36,71,9
1,36,0,50
1,40,94,10
1,40,0,165
1,40,87,15
1,40,0,48
1,40,90,12
1,40,0,171
1,40,71,9
1,40,0,50
1,38,94,10
1,38,0,165
1,38,87,15
1,38,0,48
1,38,90,12
1,38,0,171
1,38,71,9
1,38,0,50
1,43,94,10
1,43,0,165
1,43,87,15
1,43,0,48
1,43,90,12
1,43,0,171
1,43,71,9
1,43,0,50
1,41,94,10
1,41,0,165
1,41,87,15
1,41,0,48
1,41,90,12
1,41,0,171
1,41,71,9
1,41,0,50
1,43,94,10
1,43,0,165
1,43,87,15
1,43,0,48
1,43,90,12
1,43,0,171
1,43,71,9
1,43,0,50
1,34,94,10
1,34,0,165
1,34,87,15
1,34,0,48
1,34,90,12
1,34,0,171
1,34,71,9
1,34,0,50
1,41,90,10
1,41,0,152
1,41,84,28
1,41,0,32
1,41,90,28
1,41,0,160
1,41,90,20
1,41,0,50
1,36,90,10
1,36,0,403
1,36,71,17
1,36,0,39
1,36,71,21
1,31,68,420
1,36,0,5
1,31,0,22
1,40,84,33
1,40,0,470
1,40,97,10
1,40,0,475
1,36,90,5
1,36,0,403
1,36,71,17
1,36,0,39
1,36,71,21
1,31,68,420
1,36,0,5
1,31,0,22
1,41,84,33
1,41,0,470
1,41,97,10
1,41,0,475
1,36,97,5
1,36,0,399
1,36,90,21
1,36,0,29
1,36,87,31
1,36,0,470
1,40,94,10
1,40,0,402
1,40,90,18
1,40,0,43
1,36,87,17
1,36,0,377
1,36,97,43
1,36,0,59
1,41,84,1
1,41,0,470
1,41,97,10
1,41,0,475
1,38,90,5
1,38,0,403
1,38,71,17
1,38,0,39
1,38,71,21
1,33,68,420
1,38,0,5
1,33,0,22
1,43,97,33
1,43,0,399
1,43,90,21
1,43,0,29
1,43,87,31
1,43,0,470
1,43,97,10
1,43,0,399
1,43,90,21
1,43,0,29
1,43,87,31
1,43,0,470
1,36,94,10
1,36,0,165
1,36,87,15
1,36,0,48
1,36,90,12
1,36,0,171
1,36,71,9
1,36,0,50
1,40,94,10
1,40,0,165
1,40,87,15
1,40,0,48
1,40,90,12
1,40,0,171
1,40,71,9
1,40,0,50
1,38,94,10
1,38,0,165
1,38,87,15
1,38,0,48
1,38,90,12
1,38,0,171
1,38,71,9
1,38,0,50
1,43,94,10
1,43,0,165
1,43,87,15
1,43,0,48
1,43,90,12
1,43,0,171
1,43,71,9
1,43,0,50
1,41,94,10
1,41,0,165
1,41,87,15
1,41,0,48
1,41,90,12
1,41,0,171
1,41,71,9
1,41,0,50
1,43,94,10
1,43,0,165
1,43,87,15
1,43,0,48
1,43,90,12
1,43,0,171
1,43,71,9
1,43,0,50
1,34,94,10
1,34,0,165
1,34,87,15
1,34,0,48
1,34,90,12
1,34,0,171
1,34,71,9
1,34,0,50
1,41,90,10
1,41,0,152
1,41,84,28
1,41,0,32
1,41,90,28
1,41,0,160
1,41,90,20
1,41,0,50
1,36,94,10
1,36,0,165
1,36,87,15
1,36,0,48
1,36,90,12
1,36,0,171
1,36,71,9
1,36,0,50
1,40,94,10
1,40,0,165
1,40,87,15
1,40,0,48
1,40,90,12
1,40,0,171
1,40,71,9
1,40,0,50
1,38,94,10
1,38,0,165
1,38,87,15
1,38,0,48
1,38,90,12
1,38,0,171
1,38,71,9
1,38,0,50
1,43,94,10
1,43,0,165
1,43,87,15
1,43,0,48
1,43,90,12
1,43,0,171
1,43,71,9
1,43,0,50
1,41,101,10
1,41,0,150
1,41,97,30
1,41,0,39
1,41,81,21
1,41,0,156
1,41,90,24
1,41,0,32
1,41,105,28
1,41,0,150
1,41,90,30
1,41,0,22
1,41,101,38
1,41,0,160
1,41,71,20
1,41,0,32
1,43,84,28
1,43,0,157
1,43,81,23
1,43,0,26
1,43,71,34
1,43,0,159
1,43,94,21
1,43,0,25
1,43,94,35
1,43,0,153
1,43,77,27
1,57,81,60
1,43,0,4
1,55,77,56
1,57,0,6
1,55,0,51
1,51,74,3
1,51,0,48
1,50,87,12
1,50,0,42
1,34,64,18
1,34,0,141
1,34,64,39
1,34,0,26
1,34,64,34
1,34,0,155
1,34,64,25
1,34,0,19
1,34,64,41
1,34,0,148
1,34,64,32
1,34,0,26
1,34,64,34
1,34,0,145
1,34,64,35
1,34,0,35
1,41,64,25
1,41,0,141
1,41,64,39
1,41,0,26
1,41,64,34
1,41,0,155
1,41,64,25
1,41,0,19
1,41,64,41
1,41,0,148
1,41,64,32
1,41,0,26
1,41,64,34
1,41,0,145
1,41,64,35
1,41,0,35
1,36,90,25
1,36,0,403
1,36,71,17
1,36,0,39
1,36,71,21
1,31,68,420
1,36,0,5
1,31,0,22
1,40,97,33
1,40,0,399
1,40,90,21
1,40,0,29
1,40,87,31
1,40,0,470
1,36,84,10
1,36,0,470
1,36,97,10
1,36,0,475
1,41,84,5
1,41,0,470
1,41,97,10
1,41,0,475
1,36,101,5
1,36,0,150
1,36,97,30
1,36,0,39
1,36,81,21
1,36,0,156
1,36,90,24
1,36,0,32
1,36,105,28
1,36,0,150
1,36,90,30
1,36,0,22
1,36,101,38
1,36,0,160
1,36,71,20
1,36,0,32
1,40,94,28
1,40,0,165
1,40,87,15
1,40,0,48
1,40,90,12
1,40,0,171
1,40,71,9
1,40,0,50
1,36,94,10
1,36,0,165
1,36,87,15
1,36,0,48
1,36,90,12
1,36,0,171
1,36,71,9
1,36,0,50
1,41,94,10
1,41,0,165
1,41,87,15
1,41,0,48
1,41,90,12
1,41,0,171
1,41,71,9
1,41,0,50
1,41,94,10
1,41,0,165
1,41,87,15
1,41,0,48
1,41,90,12
1,41,0,171
1,41,71,9
1,41,0,50
1,41,64,10
1,41,0,143
1,41,64,41
1,41,0,16
1,41,64,41
1,41,0,144
1,41,64,42
1,41,0,17
1,41,64,34
1,41,0,427
2,35,80,2580
2,45,70,0
2,69,60,0
2,35,0,25
2,45,0,0
2,69,0,0
2,35,100,35
2,45,90,0
2,54,80,0
2,69,100,0
2,35,0,25
2,45,0,0
2,54,0,0
2,69,0,0
2,41,70,35
2,54,100,0
2,69,60,0
2,41,0,25
2,54,0,0
2,69,0,0
2,41,90,35
2,39,80,0
2,69,100,0
2,41,0,25
2,39,0,0
2,69,0,0
2,35,90,35
2,49,90,0
2,69,60,0
2,35,0,25
2,49,0,0
2,69,0,0
2,35,100,35
2,42,100,0
2,49,90,0
2,69,100,0
2,35,0,25
2,42,0,0
2,49,0,0
2,69,0,0
2,42,60,35
2,69,60,0
2,42,0,25
2,69,0,0
2,38,100,35
2,42,100,0
2,39,80,0
2,69,100,0
2,38,0,25
2,42,0,0
2,39,0,0
2,69,0,0
2,35,80,35
2,42,60,0
2,69,60,0
2,35,0,25
2,42,0,0
2,69,0,0
2,35,100,35
2,42,100,0
2,69,100,0
2,35,0,25
2,42,0,0
2,69,0,0
2,42,60,35
2,69,60,0
2,42,0,25
2,69,0,0
2,38,100,35
2,42,100,0
2,39,80,0
2,69,100,0
2,38,0,25
2,42,0,0
2,39,0,0
2,69,0,0
2,42,60,35
2,69,60,0
2,42,0,25
2,69,0,0
2,35,100,35
2,42,100,0
2,69,100,0
2,35,0,25
2,42,0,0
2,69,0,0
2,42,60,35
2,69,60,0
2,42,0,25
2,69,0,0
2,38,100,35
2,42,100,0
2,39,80,0
2,69,100,0
2,38,0,25
2,42,0,0
2,39,0,0
2,69,0,0
2,35,80,35
2,42,60,0
2,69,60,0
2,35,0,25
2,42,0,0
2,69,0,0
2,35,100,35
2,42,100,0
2,54,90,0
2,69,100,0
2,35,0,25
2,42,0,0
2,54,0,0
2,69,0,0
2,42,60,35
2,54,80,0
2,69,60,0
2,42,0,25
2,54,0,0
2,69,0,0
2,38,100,35
2,42,100,0
2,39,80,0
2,69,100,0
2,38,0,25
2,42,0,0
2,39,0,0
2,69,0,0
2,35,80,35
2,42,60,0
2,69,60,0
2,35,0,25
2,42,0,0
2,69,0,0
2,35,100,35
2,42,100,0
2,69,100,0
2,35,0,25
2,42,0,0
2,69,0,0
2,42,60,35
2,69,60,0
2,42,0,25
2,69,0,0
2,38,100,35
2,42,100,0
2,39,80,0
2,69,100,0
2,38,0,25
2,42,0,0
2,39,0,0
2,69,0,0
2,35,80,35
2,42,60,0
2,69,60,0
2,35,0,25
2,42,0,0
2,69,0,0
2,35,100,35
2,42,100,0
2,69,100,0
2,35,0,25
2,42,0,0
2,69,0,0
2,42,60,35
2,69,60,0
2,42,0,25
2,69,0,0
2,38,100,35
2,42,100,0
2,39,80,0
2,69,100,0
2,38,0,25
2,42,0,0
2,39,0,0
2,69,0,0
2,35,80,35
2,42,60,0
2,69,60,0
2,35,0,25
2,42,0,0
2,69,0,0
2,35,100,35
2,42,100,0
2,69,100,0
2,35,0,25
2,42,0,0
2,69,0,0
2,42,60,35
2,69,60,0
2,42,0,25
2,69,0,0
2,38,100,35
2,42,100,0
2,39,80,0
2,69,100,0
2,38,0,25
2,42,0,0
2,39,0,0
2,69,0,0
2,35,80,35
2,42,60,0
2,69,60,0
2,35,0,25
2,42,0,0
2,69,0,0
2,35,100,35
2,42,100,0
2,54,80,0
2,69,100,0
2,35,0,25
2,42,0,0
2,54,0,0
2,69,0,0
2,42,60,35
2,54,100,0
2,69,60,0
2,42,0,25
2,54,0,0
2,69,0,0
2,38,100,35
2,42,100,0
2,39,80,0
2,69,100,0
2,38,0,25
2,42,0,0
2,39,0,0
2,69,0,0
2,35,80,35
2,42,60,0
2,69,60,0
2,35,0,25
2,42,0,0
2,69,0,0
2,35,100,35
2,42,100,0
2,69,100,0
2,35,0,25
2,42,0,0
2,69,0,0
2,42,60,35
2,69,60,0
2,42,0,25
2,69,0,0
2,38,100,35
2,42,100,0
2,39,80,0
2,69,100,0
2,38,0,25
2,42,0,0
2,39,0,0
2,69,0,0
2,35,80,35
2,42,60,0
2,69,60,0
2,35,0,25
2,42,0,0
2,69,0,0
2,35,100,35
2,42,100,0
2,69,100,0
2,35,0,25
2,42,0,0
2,69,0,0
2,42,60,35
2,69,60,0
2,42,0,25
2,69,0,0
2,38,100,35
2,42,100,0
2,39,80,0
2,69,100,0
2,38,0,25
2,42,0,0
2,39,0,0
2,69,0,0
2,35,80,35
2,42,60,0
2,69,60,0
2,35,0,25
2,42,0,0
2,69,0,0
2,35,100,35
2,42,100,0
2,69,100,0
2,35,0,25
2,42,0,0
2,69,0,0
2,42,60,35
2,69,60,0
2,42,0,25
2,69,0,0
