track,note,velocity,time
1,41,84,1200
1,41,0,84
1,41,90,6
1,41,0,28
1,43,94,2
1,43,0,120
1,33,109,0
1,48,74,270
1,33,0,7
1,47,87,23
1,48,0,7
1,47,0,77
1,45,81,6
1,40,68,30
1,45,0,8
1,33,90,22
1,40,0,5
1,33,0,18
1,41,109,7
1,57,74,270
1,41,0,7
1,55,87,23
1,57,0,7
1,55,0,77
1,53,81,6
1,48,68,30
1,53,0,8
1,41,90,22
1,48,0,5
1,41,0,18
1,33,109,7
1,48,74,270
1,33,0,7
1,47,87,23
1,48,0,7
1,47,0,77
1,45,81,6
1,40,68,30
1,45,0,8
1,33,90,22
1,40,0,5
1,33,0,18
1,35,109,7
1,51,74,270
1,35,0,7
1,49,87,23
1,51,0,7
1,49,0,77
1,47,81,6
1,42,68,30
1,47,0,8
1,35,90,22
1,42,0,5
1,35,0,18
1,35,101,7
1,35,0,224
1,35,109,16
1,35,0,193
1,35,105,17
1,35,0,27
1,36,109,3
1,52,74,270
1,36,0,7
1,50,87,23
1,52,0,7
1,50,0,77
1,48,81,6
1,43,68,30
1,48,0,8
1,36,90,22
1,43,0,5
1,36,0,18
1,33,101,7
1,33,0,196
1,33,84,14
1,33,0,15
1,44,101,15
1,44,0,196
1,44,84,14
1,44,0,15
1,34,105,15
1,34,0,159
1,34,97,21
1,36,84,0
1,36,0,3
1,34,0,21
1,34,109,36
1,29,43,180
1,34,0,13
1,31,77,17
1,29,0,3
1,34,113,27
1,31,0,8
1,34,0,164
1,34,77,8
1,34,0,24
1,34,105,36
1,34,0,171
1,34,113,9
1,34,0,38
1,36,105,22
1,36,0,159
1,36,97,21
1,38,84,0
1,38,0,3
1,36,0,21
1,36,109,36
1,31,43,180
1,36,0,13
1,33,77,17
1,31,0,3
1,36,113,27
1,33,0,8
1,36,0,164
1,36,77,8
1,36,0,24
1,36,105,36
1,36,0,171
1,36,113,9
1,36,0,38
1,34,101,22
1,34,0,224
1,34,109,16
1,34,0,193
1,34,105,17
1,34,0,27
1,41,105,3
1,41,0,163
1,41,97,17
1,41,0,16
1,41,81,14
1,41,0,15
1,41,90,15
1,41,0,175
1,41,97,5
1,41,0,17
1,36,105,43
1,36,0,163
1,36,97,17
1,36,0,16
1,36,81,14
1,36,0,15
1,36,90,15
1,36,0,175
1,36,97,5
1,36,0,17
1,36,113,43
1,36,0,158
1,36,105,22
1,36,0,60
1,41,113,0
1,41,0,120
1,43,113,0
1,43,0,120
1,33,105,0
1,33,0,163
1,33,97,17
1,33,0,16
1,33,81,14
1,33,0,15
1,33,90,15
1,33,0,175
1,33,97,5
1,33,0,17
1,41,109,43
1,57,74,270
1,41,0,7
1,55,87,23
1,57,0,7
1,55,0,77
1,53,81,6
1,48,68,30
1,53,0,8
1,41,90,22
1,48,0,5
1,41,0,18
1,33,109,7
1,48,74,270
1,33,0,7
1,47,87,23
1,48,0,7
1,47,0,77
1,45,81,6
1,40,68,30
1,45,0,8
1,33,90,22
1,40,0,5
1,33,0,18
1,35,105,7
1,35,0,163
1,35,97,17
1,35,0,16
1,35,81,14
1,35,0,15
1,35,90,15
1,35,0,175
1,35,97,5
1,35,0,17
1,35,105,43
1,35,0,163
1,35,97,17
1,35,0,16
1,35,81,14
1,35,0,15
1,35,90,15
1,35,0,175
1,35,97,5
1,35,0,17
1,36,105,43
1,36,0,163
1,36,97,17
1,36,0,16
1,36,81,14
1,36,0,15
1,36,90,15
1,36,0,175
1,36,97,5
1,36,0,17
1,33,101,43
1,33,0,196
1,33,84,14
1,33,0,15
1,44,101,15
1,44,0,196
1,44,84,14
1,44,0,15
1,34,101,15
1,34,0,153
1,34,77,27
1,34,0,19
1,34,101,41
1,34,0,155
1,34,68,25
1,34,0,14
1,34,71,16
1,34,0,14
1,34,113,16
1,34,0,157
1,34,81,23
1,34,0,17
1,34,101,43
1,34,0,170
1,34,105,10
1,34,0,28
1,36,101,32
1,36,0,154
1,36,97,26
1,36,0,23
1,36,101,37
1,36,0,150
1,36,101,30
1,36,0,17
1,36,101,43
1,36,0,170
1,36,84,10
1,36,0,27
1,36,97,33
1,36,0,168
1,36,105,12
1,36,0,28
1,34,101,32
1,34,0,224
1,34,109,16
1,34,0,193
1,34,105,17
1,34,0,27
1,41,109,3
1,57,74,270
1,41,0,7
1,55,87,23
1,57,0,7
1,55,0,77
1,53,81,6
1,48,68,30
1,53,0,8
1,41,90,22
1,48,0,5
1,41,0,18
1,36,105,7
1,36,0,159
1,36,97,21
1,38,84,0
1,38,0,3
1,36,0,21
1,36,109,36
1,31,43,180
1,36,0,13
1,33,77,17
1,31,0,3
1,36,113,27
1,33,0,8
1,36,0,164
1,36,77,8
1,36,0,24
1,36,105,36
1,36,0,171
1,36,113,9
1,36,0,38
1,33,90,22
1,33,0,322
1,40,65,8
1,40,0,30
1,45,109,0
1,40,74,30
1,45,0,7
1,33,101,23
1,40,0,3
1,33,0,39
1,43,94,18
1,62,94,360
1,43,0,6
1,60,74,54
1,62,0,2
1,60,0,22
1,59,74,6
1,59,0,21
1,41,90,9
1,41,0,322
1,48,65,8
1,48,0,30
1,53,109,0
1,48,74,30
1,53,0,7
1,41,101,23
1,48,0,3
1,41,0,39
1,43,97,23
1,43,0,235
1,36,87,0
1,36,0,161
1,36,74,19
1,36,0,60
1,33,94,0
1,52,94,360
1,33,0,6
1,50,74,54
1,52,0,2
1,50,0,22
1,48,74,6
1,48,0,21
1,43,97,9
1,50,35,330
1,43,0,14
1,50,0,14
1,55,87,2
1,55,0,23
1,55,94,7
1,50,77,30
1,55,0,4
1,50,0,28
1,43,105,0
1,43,0,26
1,41,90,2
1,41,0,322
1,48,65,8
1,48,0,30
1,53,109,0
1,48,74,30
1,53,0,7
1,41,101,23
1,48,0,3
1,41,0,39
1,43,97,23
1,43,0,235
1,36,97,5
1,36,0,235
1,33,90,0
1,33,0,322
1,40,65,8
1,40,0,30
1,45,109,0
1,40,74,30
1,45,0,7
1,33,101,23
1,40,0,3
1,33,0,39
1,41,90,18
1,41,0,322
1,48,65,8
1,48,0,30
1,53,109,0
1,48,74,30
1,53,0,7
1,41,101,23
1,48,0,3
1,41,0,39
1,36,90,18
1,36,0,322
1,43,65,8
1,43,0,30
1,48,109,0
1,43,74,30
1,48,0,7
1,36,101,23
1,43,0,3
1,36,0,39
1,33,94,18
1,52,94,360
1,33,0,6
1,50,74,54
1,52,0,2
1,50,0,22
1,48,74,6
1,48,0,21
1,41,97,9
1,48,35,330
1,41,0,14
1,48,0,14
1,53,87,2
1,53,0,23
1,53,94,7
1,48,77,30
1,53,0,4
1,48,0,28
1,41,105,0
1,41,0,26
1,36,90,2
1,36,0,322
1,43,65,8
1,43,0,30
1,48,109,0
1,43,74,30
1,48,0,7
1,36,101,23
1,43,0,3
1,36,0,39
1,33,97,18
1,40,35,330
1,33,0,14
1,40,0,14
1,45,87,2
1,45,0,23
1,45,94,7
1,40,77,30
1,45,0,4
1,40,0,28
1,33,105,0
1,33,0,26
1,41,84,2
1,48,63,330
1,41,0,1
1,56,48,29
1,48,0,8
1,55,74,22
1,56,0,4
1,55,0,25
1,53,94,1
1,53,0,46
1,36,94,14
1,55,94,360
1,36,0,6
1,53,74,54
1,55,0,2
1,53,0,22
1,52,74,6
1,52,0,21
1,36,87,9
1,36,0,161
1,36,74,19
1,36,0,60
1,41,94,0
1,41,0,120
1,43,94,0
1,43,0,120
1,33,105,0
1,33,0,163
1,33,97,17
1,33,0,16
1,33,81,14
1,33,0,15
1,33,90,15
1,33,0,175
1,33,97,5
1,33,0,17
1,41,109,43
1,57,74,270
1,41,0,7
1,55,87,23
1,57,0,7
1,55,0,77
1,53,81,6
1,48,68,30
1,53,0,8
1,41,90,22
1,48,0,5
1,41,0,18
1,33,109,7
1,48,74,270
1,33,0,7
1,47,87,23
1,48,0,7
1,47,0,77
1,45,81,6
1,40,68,30
1,45,0,8
1,33,90,22
1,40,0,5
1,33,0,18
1,35,101,7
1,35,0,224
1,35,109,16
1,35,0,193
1,35,105,17
1,35,0,27
1,35,105,3
1,35,0,163
1,35,97,17
1,35,0,16
1,35,81,14
1,35,0,15
1,35,90,15
1,35,0,175
1,35,97,5
1,35,0,17
1,36,101,43
1,36,0,224
1,36,109,16
1,36,0,193
1,36,105,17
1,36,0,27
1,33,101,3
1,33,0,196
1,33,84,14
1,33,0,15
1,44,113,15
1,44,0,158
1,44,105,22
1,44,0,60
1,34,105,0
1,34,0,159
1,34,97,21
1,36,84,0
1,36,0,3
1,34,0,21
1,34,109,36
1,29,43,180
1,34,0,13
1,31,77,17
1,29,0,3
1,34,113,27
1,31,0,8
1,34,0,164
1,34,77,8
1,34,0,24
1,34,105,36
1,34,0,171
1,34,113,9
1,34,0,38
1,36,105,22
1,36,0,159
1,36,97,21
1,38,84,0
1,38,0,3
1,36,0,21
1,36,109,36
1,31,43,180
1,36,0,13
1,33,77,17
1,31,0,3
1,36,113,27
1,33,0,8
1,36,0,164
1,36,77,8
1,36,0,24
1,36,105,36
1,36,0,171
1,36,113,9
1,36,0,38
1,34,109,22
1,50,74,270
1,34,0,7
1,48,87,23
1,50,0,7
1,48,0,77
1,46,81,6
1,41,68,30
1,46,0,8
1,34,90,22
1,41,0,5
1,34,0,18
1,41,101,7
1,41,0,224
1,41,109,16
1,41,0,193
1,41,105,17
1,41,0,27
1,36,101,3
1,36,0,154
1,36,97,26
1,36,0,23
1,36,101,37
1,36,0,150
1,36,101,30
1,36,0,17
1,36,101,43
1,36,0,170
1,36,84,10
1,36,0,27
1,36,97,33
1,36,0,168
1,36,105,12
1,36,0,28
1,34,101,32
1,34,0,154
1,34,97,26
1,34,0,23
1,34,101,37
1,34,0,150
1,34,101,30
1,34,0,17
1,34,101,43
1,34,0,170
1,34,84,10
1,34,0,27
1,34,97,33
1,34,0,168
1,34,105,12
1,34,0,28
1,36,105,32
1,36,0,159
1,36,97,21
1,38,84,0
1,38,0,3
1,36,0,21
1,36,109,36
1,31,43,180
1,36,0,13
1,33,77,17
1,31,0,3
1,36,113,27
1,33,0,8
1,36,0,164
1,36,77,8
1,36,0,24
1,36,105,36
1,36,0,171
1,36,113,9
1,36,0,38
1,34,105,22
1,34,0,163
1,34,97,17
1,34,0,16
1,34,81,14
1,34,0,15
1,34,90,15
1,34,0,175
1,34,97,5
1,34,0,17
1,41,105,43
1,41,0,163
1,41,97,17
1,41,0,16
1,41,81,14
1,41,0,15
1,41,90,15
1,41,0,175
1,41,97,5
1,41,0,17
1,36,101,43
1,36,0,154
1,36,97,26
1,36,0,23
1,36,101,37
1,36,0,150
1,36,101,30
1,36,0,17
1,36,101,43
1,36,0,170
1,36,84,10
1,36,0,27
1,36,97,33
1,36,0,168
1,36,105,12
1,36,0,28
1,34,101,32
1,34,0,153
1,34,77,27
1,34,0,19
1,34,101,41
1,34,0,155
1,34,68,25
1,34,0,14
1,34,71,16
1,34,0,14
1,34,113,16
1,34,0,157
1,34,81,23
1,34,0,17
1,34,101,43
1,34,0,170
1,34,105,10
1,34,0,28
1,36,105,32
1,36,0,159
1,36,97,21
1,38,84,0
1,38,0,3
1,36,0,21
1,36,109,36
1,31,43,180
1,36,0,13
1,33,77,17
1,31,0,3
1,36,113,27
1,33,0,8
1,36,0,164
1,36,77,8
1,36,0,24
1,36,105,36
1,36,0,171
1,36,113,9
1,36,0,38
1,34,105,22
1,34,0,163
1,34,97,17
1,34,0,16
1,34,81,14
1,34,0,15
1,34,90,15
1,34,0,175
1,34,97,5
1,34,0,17
1,41,109,43
1,57,74,270
1,41,0,7
1,55,87,23
1,57,0,7
1,55,0,77
1,53,81,6
1,48,68,30
1,53,0,8
1,41,90,22
1,48,0,5
1,41,0,18
1,36,101,7
1,36,0,153
1,36,77,27
1,36,0,19
1,36,101,41
1,36,0,155
1,36,68,25
1,36,0,14
1,36,71,16
1,36,0,14
1,36,113,16
1,36,0,157
1,36,81,23
1,36,0,17
1,36,101,43
1,36,0,170
1,36,105,10
1,36,0,28
1,34,101,32
1,34,0,154
1,34,97,26
1,34,0,23
1,34,101,37
1,34,0,150
1,34,101,30
1,34,0,17
1,34,101,43
1,34,0,170
1,34,84,10
1,34,0,27
1,34,97,33
1,34,0,168
1,34,105,12
1,34,0,28
1,36,101,32
1,36,0,154
1,36,97,26
1,36,0,23
1,36,101,37
1,36,0,150
1,36,101,30
1,36,0,17
1,36,101,43
1,36,0,170
1,36,84,10
1,36,0,27
1,36,97,33
1,36,0,168
1,36,105,12
1,36,0,28
1,36,101,32
1,36,0,154
2,37,106,62
2,37,0,14
2,37,104,66
2,37,0,15
2,38,115,123
2,51,106,0
2,51,0,25
2,38,0,0
2,51,88,35
2,48,115,0
2,48,0,25
2,51,0,0
2,51,100,35
2,51,0,25
2,45,90,5
2,45,0,25
2,41,100,5
2,41,0,25
2,51,90,5
2,51,0,25
2,35,100,5
2,51,110,0
2,49,100,0
2,49,0,25
2,51,0,0
2,35,0,0
2,51,84,35
2,51,0,25
2,38,115,35
2,42,100,0
2,51,100,0
2,54,100,0
2,54,0,25
2,38,0,0
2,42,0,0
2,51,0,0
2,35,90,35
2,51,75,0
2,51,0,25
2,35,0,0
2,35,100,35
2,51,106,0
2,51,0,25
2,35,0,0
2,51,88,35
2,51,0,25
2,38,115,35
2,42,100,0
2,51,105,0
2,54,100,0
2,54,0,25
2,38,0,0
2,42,0,0
2,51,0,0
2,51,97,35
2,51,0,25
2,35,100,35
2,51,100,0
2,51,0,25
2,35,0,0
2,51,70,35
2,51,0,25
2,38,115,35
2,42,100,0
2,51,101,0
2,54,100,0
2,54,0,25
2,38,0,0
2,42,0,0
2,51,0,0
2,35,90,35
2,51,68,0
2,51,0,25
2,35,0,0
2,35,100,35
2,51,106,0
2,51,0,25
2,35,0,0
2,51,88,35
2,51,0,25
2,38,115,35
2,42,100,0
2,51,105,0
2,54,100,0
2,54,0,25
2,38,0,0
2,42,0,0
2,51,0,0
2,51,97,35
2,51,0,25
2,35,100,35
2,51,100,0
2,51,0,25
2,35,0,0
2,51,70,35
2,51,0,25
2,38,115,35
2,42,100,0
2,51,101,0
2,54,100,0
2,54,0,25
2,38,0,0
2,42,0,0
2,51,0,0
2,35,90,35
2,51,68,0
2,51,0,25
2,35,0,0
2,35,100,35
2,51,106,0
2,51,0,25
2,35,0,0
2,51,88,35
2,51,0,25
2,38,115,35
2,42,100,0
2,51,105,0
2,54,100,0
2,54,0,25
2,38,0,0
2,42,0,0
2,51,0,0
2,51,97,35
2,51,0,25
2,35,100,35
2,51,110,0
2,51,0,25
2,35,0,0
2,51,84,35
2,51,0,25
2,38,115,35
2,42,100,0
2,51,100,0
2,54,100,0
2,54,0,25
2,38,0,0
2,42,0,0
2,51,0,0
2,35,90,35
2,51,75,0
2,51,0,25
2,35,0,0
2,35,100,35
2,51,106,0
2,51,0,25
2,35,0,0
2,51,88,35
2,51,0,25
2,38,115,35
2,42,100,0
2,51,105,0
2,54,100,0
2,54,0,25
2,38,0,0
2,42,0,0
2,51,0,0
2,51,97,35
2,51,0,25
2,35,100,35
2,51,100,0
2,51,0,25
2,35,0,0
2,51,70,35
2,51,0,25
2,38,115,35
2,42,100,0
2,51,101,0
2,54,100,0
2,54,0,25
2,38,0,0
2,42,0,0
2,51,0,0
2,35,90,35
2,51,68,0
2,51,0,25
2,35,0,0
2,35,100,35
2,51,106,0
2,51,0,25
2,35,0,0
2,51,88,35
2,51,0,25
2,51,50,5
2,51,0,25
2,38,115,5
2,42,100,0
2,51,105,0
2,54,100,0
2,54,0,25
2,38,0,0
2,42,0,0
2,51,0,0
2,51,97,35
2,51,0,25
2,35,100,35
2,51,100,0
2,51,0,25
2,35,0,0
2,51,70,35
2,51,0,25
2,38,115,35
2,42,100,0
2,51,101,0
2,54,100,0
2,54,0,25
2,38,0,0
2,42,0,0
2,51,0,0
2,35,90,35
2,51,68,0
2,51,0,25
2,35,0,0
2,35,100,35
2,51,106,0
