track,note,velocity,time
1,36,94,960
1,36,0,165
1,36,87,15
1,36,0,48
1,36,90,12
1,36,0,171
1,36,71,9
1,36,0,50
1,43,87,10
1,43,0,171
1,43,74,9
1,43,0,60
1,41,87,0
1,41,0,171
1,41,74,9
1,41,0,60
1,36,94,0
1,36,0,165
1,36,87,15
1,36,0,48
1,36,90,12
1,36,0,171
1,36,71,9
1,36,0,50
1,43,90,10
1,43,0,175
1,43,90,5
1,43,0,60
1,41,90,0
1,41,0,175
1,41,90,5
1,41,0,60
1,36,94,0
1,36,0,165
1,36,87,15
1,36,0,48
1,36,90,12
1,36,0,171
1,36,71,9
1,36,0,50
1,43,87,10
1,43,0,171
1,43,74,9
1,43,0,60
1,41,90,0
1,41,0,175
1,41,90,5
1,41,0,60
1,36,94,0
1,36,0,165
1,36,87,15
1,36,0,48
1,36,90,12
1,36,0,171
1,36,71,9
1,36,0,50
1,43,87,10
1,43,0,171
1,43,74,9
1,43,0,60
1,41,90,0
1,41,0,175
1,41,90,5
1,41,0,60
1,36,94,0
1,36,0,405
1,36,84,15
1,36,0,27
1,36,87,33
1,36,0,405
1,36,65,15
1,36,0,42
1,43,94,18
1,43,0,405
1,43,84,15
1,43,0,27
1,43,87,33
1,43,0,405
1,43,65,15
1,43,0,42
1,45,94,18
1,45,0,402
1,45,90,18
1,45,0,43
1,38,94,17
1,38,0,402
1,38,90,18
1,38,0,43
1,39,84,17
1,39,0,240
1,46,90,0
1,46,0,161
1,46,94,19
1,46,0,57
1,41,94,3
1,41,0,402
1,41,90,18
1,41,0,43
1,36,90,17
1,36,0,403
1,36,71,17
1,36,0,39
1,36,71,21
1,31,68,420
1,36,0,5
1,31,0,22
1,43,94,33
1,43,0,405
1,43,84,15
1,43,0,27
1,43,87,33
1,43,0,405
1,43,65,15
1,43,0,42
1,45,94,18
1,45,0,402
1,45,90,18
1,45,0,43
1,38,87,17
1,38,0,377
1,38,97,43
1,38,0,59
1,39,90,1
1,39,0,161
1,39,94,19
1,39,0,57
1,46,90,3
1,46,0,161
1,46,94,19
1,46,0,57
1,41,94,3
1,41,0,402
1,41,90,18
1,41,0,43
1,36,90,17
1,36,0,175
1,36,90,5
1,36,0,60
1,43,90,0
1,43,0,175
1,43,90,5
1,43,0,60
1,41,94,0
1,41,0,165
1,41,87,15
1,41,0,48
1,41,90,12
1,41,0,171
1,41,71,9
1,41,0,50
1,36,87,10
1,36,0,171
1,36,74,9
1,36,0,60
1,43,87,0
1,43,0,171
1,43,74,9
1,43,0,60
1,41,94,0
1,41,0,165
1,41,87,15
1,41,0,48
1,41,90,12
1,41,0,171
1,41,71,9
1,41,0,50
1,36,87,10
1,36,0,171
1,36,74,9
1,36,0,60
1,43,87,0
1,43,0,171
1,43,74,9
1,43,0,60
1,41,94,0
1,41,0,165
1,41,87,15
1,41,0,48
1,41,90,12
1,41,0,171
1,41,71,9
1,41,0,50
1,36,90,10
1,36,0,175
1,36,90,5
1,36,0,60
1,43,90,0
1,43,0,175
1,43,90,5
1,43,0,60
1,41,94,0
1,41,0,165
1,41,87,15
1,41,0,48
1,41,90,12
1,41,0,171
1,41,71,9
1,41,0,50
1,46,101,10
1,46,0,150
1,46,97,30
1,46,0,39
1,46,81,21
1,46,0,156
1,46,90,24
1,46,0,32
1,46,105,28
1,46,0,150
1,46,90,30
1,46,0,22
1,46,101,38
1,46,0,160
1,46,71,20
1,46,0,32
1,43,94,28
1,43,0,165
1,43,87,15
1,43,0,48
1,43,90,12
1,43,0,171
1,43,71,9
1,43,0,50
1,43,87,10
1,43,0,171
1,43,74,9
1,43,0,60
1,41,87,0
1,41,0,120
1,43,87,0
1,43,0,120
1,36,94,0
1,36,0,165
1,36,87,15
1,36,0,48
1,36,90,12
1,36,0,171
1,36,71,9
1,36,0,50
1,43,87,10
1,43,0,171
1,43,74,9
1,43,0,60
1,41,90,0
1,41,0,175
1,41,90,5
1,41,0,60
1,36,94,0
1,36,0,165
1,36,87,15
1,36,0,48
1,36,90,12
1,36,0,171
1,36,71,9
1,36,0,50
1,43,90,10
1,43,0,175
1,43,90,5
1,43,0,60
1,41,87,0
1,41,0,171
1,41,74,9
1,41,0,60
1,36,94,0
1,36,0,165
1,36,87,15
1,36,0,48
1,36,90,12
1,36,0,171
1,36,71,9
1,36,0,50
1,43,87,10
1,43,0,171
1,43,74,9
1,43,0,60
1,41,90,0
1,41,0,175
1,41,90,5
1,41,0,60
1,36,94,0
1,36,0,165
1,36,87,15
1,36,0,48
1,36,90,12
1,36,0,171
1,36,71,9
1,36,0,50
1,43,87,10
1,43,0,171
1,43,74,9
1,43,0,60
1,41,87,0
1,41,0,171
1,41,74,9
1,41,0,60
1,36,94,0
1,36,0,405
1,36,84,15
1,36,0,27
1,36,87,33
1,36,0,405
1,36,65,15
1,36,0,42
1,43,94,18
1,43,0,405
1,43,84,15
1,43,0,27
1,43,87,33
1,43,0,405
1,43,65,15
1,43,0,42
1,45,94,18
1,45,0,402
1,45,90,18
1,45,0,43
1,38,94,17
1,38,0,402
1,38,90,18
1,38,0,43
1,39,90,17
1,39,0,161
1,39,94,19
1,39,0,57
1,46,90,3
1,46,0,161
1,46,94,19
1,46,0,57
1,41,94,3
1,41,0,402
1,41,90,18
1,41,0,43
1,36,84,17
1,36,0,470
1,36,97,10
1,36,0,475
1,43,94,5
1,43,0,405
1,43,84,15
1,43,0,27
1,43,87,33
1,43,0,405
1,43,65,15
1,43,0,42
1,45,94,18
1,45,0,402
1,45,90,18
1,45,0,43
1,38,94,17
1,38,0,402
1,38,90,18
1,38,0,43
1,39,90,17
1,39,0,161
1,39,94,19
1,39,0,57
1,46,84,3
1,46,0,240
1,41,97,0
1,48,63,300
1,41,0,2
1,53,97,58
1,48,0,1
1,48,68,59
1,53,0,14
1,48,0,36
1,36,90,10
1,36,0,175
1,36,90,5
1,36,0,60
1,43,87,0
1,43,0,171
1,43,74,9
1,43,0,60
1,41,94,0
1,41,0,165
1,41,87,15
1,41,0,48
1,41,90,12
1,41,0,171
1,41,71,9
1,41,0,50
1,36,90,10
1,36,0,175
1,36,90,5
1,36,0,60
1,43,87,0
1,43,0,171
1,43,74,9
1,43,0,60
1,41,94,0
1,41,0,165
1,41,87,15
1,41,0,48
1,41,90,12
1,41,0,171
1,41,71,9
1,41,0,50
1,36,87,10
1,36,0,171
1,36,74,9
1,36,0,60
1,43,90,0
1,43,0,175
1,43,90,5
1,43,0,60
1,41,94,0
1,41,0,165
1,41,87,15
1,41,0,48
1,41,90,12
1,41,0,171
1,41,71,9
1,41,0,50
1,36,87,10
1,36,0,171
1,36,74,9
1,36,0,60
1,43,87,0
1,43,0,171
1,43,74,9
1,43,0,60
1,41,90,0
1,41,0,152
1,41,84,28
1,41,0,32
1,41,90,28
1,41,0,160
1,41,90,20
1,41,0,50
1,46,101,10
1,46,0,150
1,46,97,30
1,46,0,39
1,46,81,21
1,46,0,156
1,46,90,24
1,46,0,32
1,46,105,28
1,46,0,150
1,46,90,30
1,46,0,22
1,46,101,38
1,46,0,160
1,46,71,20
1,46,0,32
1,43,84,28
1,43,0,157
1,43,81,23
1,43,0,26
1,43,71,34
1,43,0,159
1,43,94,21
1,43,0,25
1,43,94,35
1,43,0,153
1,43,77,27
1,57,81,60
1,43,0,4
1,55,77,56
1,57,0,6
1,55,0,51
1,52,74,3
1,52,0,48
1,50,87,12
1,50,0,42
1,36,87,18
1,36,0,171
1,36,74,9
1,36,0,60
1,43,90,0
1,43,0,175
1,43,90,5
1,43,0,60
1,41,94,0
1,41,0,165
1,41,87,15
1,41,0,48
1,41,90,12
1,41,0,171
1,41,71,9
1,41,0,50
1,36,90,10
1,36,0,175
1,36,90,5
1,36,0,60
1,43,90,0
1,43,0,175
1,43,90,5
1,43,0,60
1,41,94,0
1,41,0,165
1,41,87,15
1,41,0,48
1,41,90,12
1,41,0,171
1,41,71,9
1,41,0,50
1,36,90,10
1,36,0,175
1,36,90,5
1,36,0,60
1,43,87,0
1,43,0,171
1,43,74,9
1,43,0,60
1,41,94,0
1,41,0,165
1,41,87,15
1,41,0,48
1,41,90,12
1,41,0,171
1,41,71,9
1,41,0,50
1,36,90,10
1,36,0,175
1,36,90,5
1,36,0,60
1,43,87,0
1,43,0,171
1,43,74,9
1,43,0,60
1,41,90,0
1,41,0,152
1,41,84,28
1,41,0,32
1,41,90,28
1,41,0,160
1,41,90,20
1,41,0,50
1,46,64,10
1,46,0,141
1,46,64,39
1,46,0,26
1,46,64,34
1,46,0,155
1,46,64,25
1,46,0,19
1,46,64,41
1,46,0,148
1,46,64,32
1,46,0,26
1,46,64,34
1,46,0,145
1,46,64,35
1,46,0,35
1,43,64,25
1,43,0,141
1,43,64,39
1,43,0,26
1,43,64,34
1,43,0,155
1,43,64,25
1,43,0,19
1,43,64,41
1,43,0,148
1,43,64,32
1,43,0,26
1,43,64,34
1,43,0,145
1,43,64,35
1,43,0,35
1,36,94,25
1,36,0,165
1,36,87,15
1,36,0,48
1,36,90,12
1,36,0,171
1,36,71,9
1,36,0,50
1,43,90,10
1,43,0,175
1,43,90,5
1,43,0,60
1,41,90,0
1,41,0,175
1,41,90,5
1,41,0,60
1,36,94,0
1,36,0,165
1,36,87,15
1,36,0,48
1,36,90,12
1,36,0,171
1,36,71,9
1,36,0,50
1,43,90,10
1,43,0,175
1,43,90,5
1,43,0,60
1,41,87,0
1,41,0,171
1,41,74,9
1,41,0,60
1,36,94,0
1,36,0,165
1,36,87,15
1,36,0,48
1,36,90,12
1,36,0,171
1,36,71,9
1,36,0,50
1,43,90,10
1,43,0,175
1,43,90,5
1,43,0,60
1,41,90,0
1,41,0,175
1,41,90,5
1,41,0,60
1,36,94,0
1,36,0,165
1,36,87,15
1,36,0,48
1,36,90,12
1,36,0,171
1,36,71,9
1,36,0,50
1,43,87,10
1,43,0,171
1,43,74,9
1,43,0,60
1,41,87,0
1,41,0,171
1,41,74,9
1,41,0,60
1,36,64,0
1,36,0,143
1,36,64,41
1,36,0,16
1,36,64,41
1,36,0,144
1,36,64,42
1,36,0,17
1,36,64,34
1,36,0,427
2,35,100,960
2,42,100,0
2,49,90,0
2,69,100,0
2,69,0,25
2,35,0,0
2,42,0,0
2,49,0,0
2,42,60,35
2,69,60,0
2,69,0,25
2,42,0,0
2,38,100,35
2,42,100,0
2,39,80,0
2,69,100,0
2,69,0,25
2,38,0,0
2,42,0,0
2,39,0,0
2,35,80,35
2,42,60,0
2,69,60,0
2,69,0,25
2,42,0,0
2,35,0,0
2,35,100,35
2,42,100,0
2,69,100,0
2,69,0,25
2,42,0,0
2,35,0,0
2,42,60,35
2,69,60,0
2,69,0,25
2,42,0,0
2,38,100,35
2,42,100,0
2,39,80,0
2,69,100,0
2,69,0,25
2,38,0,0
2,42,0,0
2,39,0,0
2,42,60,35
2,69,60,0
2,69,0,25
2,42,0,0
2,35,100,35
2,42,100,0
2,69,100,0
2,69,0,25
2,42,0,0
2,35,0,0
2,42,60,35
2,69,60,0
2,69,0,25
2,42,0,0
2,38,100,35
2,42,100,0
2,39,80,0
2,69,100,0
2,69,0,25
2,38,0,0
2,42,0,0
2,39,0,0
2,35,80,35
2,42,60,0
2,69,60,0
2,69,0,25
2,42,0,0
2,35,0,0
2,35,100,35
2,42,100,0
2,54,80,0
2,69,100,0
2,69,0,25
2,35,0,0
2,42,0,0
2,54,0,0
2,42,60,35
2,54,100,0
2,69,60,0
2,69,0,25
2,54,0,0
2,42,0,0
2,38,100,35
2,42,100,0
2,39,80,0
2,69,100,0
2,69,0,25
2,38,0,0
2,42,0,0
2,39,0,0
2,35,80,35
2,42,60,0
2,69,60,0
2,69,0,25
2,42,0,0
2,35,0,0
2,35,100,35
2,42,100,0
2,69,100,0
2,69,0,25
2,42,0,0
2,35,0,0
2,42,60,35
2,69,60,0
2,69,0,25
2,42,0,0
2,38,100,35
2,42,100,0
2,39,80,0
2,69,100,0
2,69,0,25
2,38,0,0
2,42,0,0
2,39,0,0
2,35,80,35
2,42,60,0
2,69,60,0
2,69,0,25
2,42,0,0
2,35,0,0
2,35,100,35
2,42,100,0
2,69,100,0
2,69,0,25
2,42,0,0
2,35,0,0
2,42,60,35
2,69,60,0
2,69,0,25
2,42,0,0
2,38,100,35
2,42,100,0
2,39,80,0
2,69,100,0
2,69,0,25
2,38,0,0
2,42,0,0
2,39,0,0
2,35,80,35
2,42,60,0
2,69,60,0
2,69,0,25
2,42,0,0
2,35,0,0
2,35,100,35
2,42,100,0
2,69,100,0
2,69,0,25
2,42,0,0
2,35,0,0
2,42,90,35
2,69,60,0
2,69,0,25
2,42,0,0
2,42,100,5
2,42,0,25
2,46,115,5
2,39,80,0
2,69,100,0
2,69,0,25
2,39,0,0
2,46,0,0
2,35,80,35
2,46,100,0
2,69,60,0
2,69,0,25
2,46,0,0
2,35,0,0
2,38,100,35
2,54,80,0
2,69,100,0
2,69,0,25
2,54,0,0
2,38,0,0
2,38,80,5
2,38,0,25
2,35,90,5
2,54,100,0
2,69,60,0
2,69,0,25
2,54,0,0
2,35,0,0
2,38,100,35
2,39,80,0
2,69,100,0
2,69,0,25
2,39,0,0
2,38,0,0
2,38,100,35
2,69,60,0
2,69,0,25
2,38,0,0
2,38,90,5
2,38,0,25
2,35,100,5
2,42,100,0
2,49,90,0
2,69,100,0
2,69,0,25
2,35,0,0
2,42,0,0
2,49,0,0
2,42,60,35
2,69,60,0
2,69,0,25
2,42,0,0
2,38,100,35
2,42,100,0
2,39,80,0
2,69,100,0
2,69,0,25
2,38,0,0
2,42,0,0
2,39,0,0
2,35,80,35
2,42,60,0
2,69,60,0
2,69,0,25
2,42,0,0
2,35,0,0
2,35,100,35
2,42,100,0
2,69,100,0
2,69,0,25
2,42,0,0
2,35,0,0
2,42,60,35
2,69,60,0
2,69,0,25
2,42,0,0
2,38,100,35
2,42,100,0
2,39,80,0
2,69,100,0
2,69,0,25
2,38,0,0
2,42,0,0
2,39,0,0
2,42,60,35
2,69,60,0
2,69,0,25
2,42,0,0
2,35,100,35
2,42,100,0
2,69,100,0
2,69,0,25
2,42,0,0
2,35,0,0
2,42,60,35
2,69,60,0
2,69,0,25
2,42,0,0
2,38,100,35
2,42,100,0
2,39,80,0
2,69,100,0
2,69,0,25
2,38,0,0
2,42,0,0
2,39,0,0
2,35,80,35
2,42,60,0
2,69,60,0
2,69,0,25
2,42,0,0
2,35,0,0
2,35,100,35
2,42,100,0
2,54,80,0
2,69,100,0
2,69,0,25
2,35,0,0
2,42,0,0
2,54,0,0
2,42,60,35
2,54,100,0
2,69,60,0
2,69,0,25
2,54,0,0
2,42,0,0
2,38,100,35
2,42,100,0
2,39,80,0
2,69,100,0
2,69,0,25
2,38,0,0
2,42,0,0
2,39,0,0
2,35,80,35
2,42,60,0
2,69,60,0
2,69,0,25
2,42,0,0
2,35,0,0
2,35,100,35
2,42,100,0
2,69,100,0
2,69,0,25
2,42,0,0
2,35,0,0
2,42,60,35
2,69,60,0
2,69,0,25
2,42,0,0
2,38,100,35
2,42,100,0
2,39,80,0
2,69,100,0
2,69,0,25
2,38,0,0
2,42,0,0
2,39,0,0
2,35,80,35
2,42,60,0
2,69,60,0
2,69,0,25
2,42,0,0
2,35,0,0
2,35,100,35
2,42,100,0
2,69,100,0
2,69,0,25
2,42,0,0
2,35,0,0
2,46,72,35
2,69,60,0
2,69,0,25
2,46,0,0
2,38,100,35
2,42,100,0
2,39,80,0
2,69,100,0
2,69,0,25
2,38,0,0
2,42,0,0
2,39,0,0
2,35,80,35
2,42,60,0
2,69,60,0
2,69,0,25
2,42,0,0
2,35,0,0
2,35,100,35
2,42,100,0
2,69,100,0
2,69,0,25
2,42,0,0
2,35,0,0
2,42,90,35
2,69,60,0
2,69,0,25
2,42,0,0
2,42,100,5
2,42,0,25
2,46,115,5
2,39,80,0
2,69,100,0
2,69,0,25
2,39,0,0
2,46,0,0
2,35,80,35
2,46,100,0
