track,note,velocity,time
1,74,36,1428
1,73,41,8
1,69,29,8
1,67,36,8
1,65,29,8
1,62,26,8
1,50,60,540
1,62,77,60
1,55,67,4
1,67,56,0
1,50,68,64
1,50,52,12
1,50,40,148
1,50,43,16
1,50,48,224
1,50,49,88
1,50,51,24
1,50,42,0
1,50,43,72
1,50,39,8
1,50,45,16
1,62,77,1116
1,55,67,4
1,67,56,0
1,62,68,32
1,67,67,16
1,62,71,15812
1,50,67,4
1,64,75,8
1,57,72,4
1,50,93,4
1,64,98,0
1,62,106,4
1,57,99,0
1,50,69,0
1,64,76,0
1,62,73,4
1,57,70,4
1,62,99,8
1,50,111,4
1,64,104,0
1,57,115,8
1,62,95,8
1,50,98,4
1,64,104,0
1,57,109,4
1,62,86,0
1,50,87,8
1,64,94,0
1,57,82,4
2,74,29,4
2,70,43,168
2,69,26,192
2,67,31,92
2,65,49,12
2,64,38,0
2,61,36,0
2,62,54,0
2,69,53,688
2,70,43,36
2,73,57,104
2,74,53,140
2,76,40,8
2,77,49,36
2,74,40,8
2,73,29,168
2,69,36,0
2,69,41,28
2,67,34,228
2,67,51,8
2,65,40,4
2,64,36,24
2,62,56,24
2,61,56,108
2,61,24,8
2,58,65,88
2,57,29,16
2,64,36,560
2,69,45,248
2,76,62,352
2,70,56,56
2,69,56,0
2,76,57,16
2,74,49,32
2,67,55,524
2,69,38,4
2,70,52,4
2,73,37,12
2,73,74,32
2,74,30,32
2,70,58,4
2,69,34,16
2,67,65,12
2,69,30,16
2,67,38,20
2,65,24,20
2,64,51,24
2,65,23,12
2,67,43,24
2,65,27,40
2,64,65,24
2,62,42,4
2,64,41,60
2,65,34,8
2,67,58,4
2,70,54,92
2,70,47,20
2,69,66,16
2,67,44,40
2,69,63,180
2,65,46,8
2,64,38,128
2,65,52,308
2,65,39,32
2,67,54,16
2,67,36,20
2,65,55,12
2,65,35,12
2,64,29,20
2,62,27,12
2,61,55,8
2,62,28,20
2,67,55,20
2,69,37,0
2,70,49,16
2,73,47,20
2,73,69,28
2,73,40,8
2,70,56,8
2,69,37,4
2,67,60,16
2,69,59,0
2,67,44,20
2,65,28,8
2,64,46,16
2,65,36,12
2,67,46,8
2,65,15,20
2,64,56,36
2,62,45,12
2,64,57,80
2,65,54,12
2,67,55,12
2,65,43,144
2,65,34,16
2,69,63,20
2,69,26,12
2,67,29,12
2,67,20,24
2,69,40,0
2,67,37,4
2,65,31,8
2,64,31,8
2,65,43,24
2,67,28,8
2,69,44,76
2,69,27,92
2,67,53,32
2,67,29,12
2,67,26,84
2,65,63,60
2,64,30,16
2,65,56,56
2,67,34,4
2,67,56,0
2,64,54,20
2,64,33,28
2,64,37,40
2,62,48,4
2,58,47,0
2,58,32,16
2,57,33,16
2,58,22,28
2,57,32,40
2,58,26,36
2,62,31,60
2,62,43,0
2,62,25,16
2,61,23,12
2,62,43,32
2,61,11,28
2,64,37,56
2,64,33,40
2,62,39,12
2,64,38,20
2,62,33,36
2,65,44,116
2,65,31,28
2,64,57,16
2,65,31,12
2,64,62,56
2,69,43,136
2,69,24,32
2,67,60,4
2,67,33,28
2,67,18,28
2,67,37,16
2,70,51,68
2,70,25,36
2,69,67,24
2,69,68,28
2,69,27,12
2,69,65,20
2,73,31,132
2,73,13,20
2,70,70,20
2,70,42,20
2,70,13,20
2,70,47,12
2,76,64,104
2,76,34,16
2,73,67,20
2,76,70,40
2,73,58,104
2,76,65,108
2,79,68,40
2,76,41,12
2,73,49,28
2,76,51,40
2,76,75,120
2,73,50,12
2,70,46,0
2,73,75,16
2,69,40,4
2,70,49,12
2,69,32,16
2,67,24,40
2,69,75,20
2,67,57,12
2,65,44,20
2,64,34,12
2,65,43,16
2,67,70,32
2,65,36,12
2,64,75,16
2,62,54,12
2,64,42,236
2,64,87,36
2,61,85,4
2,61,87,28
2,64,70,44
2,64,75,100
2,61,87,8
2,64,85,12
2,61,86,12
2,64,87,12
2,73,76,4
2,70,75,16
2,69,42,16
2,70,51,8
2,69,35,28
2,67,60,24
2,69,26,16
2,67,70,28
2,65,23,20
2,64,46,20
2,65,23,12
2,67,55,20
2,65,25,16
2,64,66,24
2,62,61,4
2,64,73,60
2,65,55,20
2,67,75,28
2,65,63,172
2,69,76,100
2,67,64,108
2,65,69,100
2,64,68,104
2,65,67,116
2,64,70,4
2,65,77,8
2,67,60,12
2,69,77,16
2,67,77,112
2,64,64,8
2,62,63,36
2,62,71,24
2,62,64,16
2,57,77,1228
2,61,57,8
2,61,48,8
2,61,60,20
2,61,52,44
2,58,77,48
2,57,77,28
2,58,77,284
2,61,57,32
2,64,34,56
2,64,55,36
2,65,44,192
2,65,52,20
2,65,77,32
2,67,52,124
2,67,36,0
2,65,75,4
2,64,47,88
2,62,54,20
2,61,44,40
2,62,54,48
2,65,64,56
2,65,59,24
2,65,62,8
2,65,44,20
2,64,53,24
2,65,49,8
2,65,41,24
2,65,38,6
2,65,28,20
2,64,49,24
2,67,65,64
2,67,43,24
2,67,58,8
2,67,43,20
2,64,48,20
2,67,65,52
2,65,41,32
2,65,52,8
2,62,56,4
2,64,64,64
2,64,59,24
2,64,62,8
2,61,53,4
2,62,57,20
2,62,48,24
2,62,62,8
2,62,44,20
2,61,53,24
2,64,68,8
2,64,51,12
2,65,62,8
2,65,44,20
2,67,64,8
2,67,59,24
2,69,62,8
2,69,44,20
2,70,64,4
2,70,59,24
2,73,62,8
2,73,44,20
2,70,53,24
2,76,60,8
2,76,65,32
2,64,84,16
2,76,86,240
2,64,74,20
2,67,54,264
2,69,36,0
2,70,48,16
2,73,46,20
2,73,68,28
2,73,39,8
2,70,55,8
2,69,36,4
2,67,59,16
2,69,58,0
2,67,43,20
2,65,27,8
2,64,45,16
2,67,45,0
2,64,55,20
2,62,44,12
2,64,56,80
2,65,53,12
2,67,54,12
2,65,43,144
2,69,63,20
2,69,26,12
2,67,29,12
2,67,20,24
2,69,83,4
2,67,56,12
2,65,61,12
2,67,52,24
2,64,69,4
2,65,62,12
2,61,61,24
2,65,47,100
2,65,34,16
2,67,45,88
2,67,48,4
2,68,58,4
2,65,36,16
2,65,27,8
2,64,73,4
2,67,46,108
2,67,59,16
2,65,77,8
2,64,77,136
2,67,32,24
2,69,54,64
2,70,47,20
2,69,60,8
2,74,43,0
2,74,36,8
2,74,25,4
2,74,12,20
2,67,48,24
2,69,37,12
2,70,43,324
2,73,68,44
2,74,52,4
2,74,48,12
2,74,32,36
2,74,59,72
2,74,33,156
2,74,49,132
2,74,52,140
2,70,60,64
2,69,44,52
2,67,67,220
2,69,54,132
2,70,58,100
2,76,61,104
2,74,77,16
2,69,50,468
2,69,30,52
2,76,62,92
2,74,68,96
2,74,40,144
2,76,62,160
2,74,77,6
2,74,68,0
2,73,41,60
2,69,36,40
2,70,51,60
2,69,56,128
2,69,29,80
2,76,77,72
2,74,76,76
2,74,54,136
2,76,69,4
2,76,73,112
2,74,77,24
2,73,60,4
2,69,55,24
2,70,66,76
2,69,45,152
2,69,38,52
2,76,58,84
2,76,28,96
2,76,55,76
2,76,77,64
2,74,53,60
2,73,49,84
2,70,46,132
2,69,56,72
2,67,77,24
2,69,61,48
2,69,50,12
2,67,66,24
2,69,34,28
2,70,69,12
2,73,64,4
2,76,52,12
2,73,72,8
2,70,77,84
2,67,53,4
2,65,52,116
2,65,29,44
2,64,16,4
2,67,54,16
2,67,41,24
2,64,21,8
2,65,42,16
2,65,68,24
2,64,42,4
2,67,57,24
2,67,22,16
2,65,56,60
2,65,61,16
2,67,26,8
2,65,53,16
2,65,60,24
2,64,47,8
2,62,59,24
2,62,18,32
2,62,39,16
2,62,45,4
2,64,66,24
2,62,34,100
2,61,61,68
2,61,45,8
2,64,36,20
2,62,77,140
2,62,61,8
2,62,50,20
2,62,44,12
2,62,33,20
2,62,53,28
2,62,62,16
2,62,70,16
2,62,77,8
2,64,77,28
2,64,48,32
2,65,59,24
2,65,32,8
2,64,76,28
2,65,62,8
2,65,43,16
2,67,64,16
2,67,35,16
2,65,62,12
2,67,44,16
2,69,77,24
2,70,77,1828
2,70,72,0
2,67,40,32
2,69,77,6
2,67,62,0
2,69,73,24
2,65,58,4
2,67,61,0
2,65,51,32
2,67,70,12
2,65,77,4
2,73,76,1828
2,67,62,4
2,67,41,24
2,67,51,20
2,70,76,128
2,64,69,0
2,76,77,1412
2,70,62,4
2,70,36,24
2,70,57,20
2,73,75,128
2,67,73,0
2,70,74,1408
2,67,59,24
2,64,76,28
2,73,69,1020
2,70,64,24
2,67,77,28
2,70,72,0
2,67,44,4
2,64,59,4
2,61,87,4
2,64,63,680
2,61,72,200
2,57,93,4
2,64,71,196
2,67,75,0
2,65,93,4
2,64,93,4
2,73,84,488
2,69,88,4
2,76,74,0
2,74,65,4
2,73,82,4
2,64,44,504
2,62,31,4
2,61,48,4
2,67,57,488
2,73,78,0
2,70,54,4
2,69,67,4
2,76,86,0
2,73,78,4
2,77,45,708
2,76,20,16
2,77,40,20
2,76,42,8
2,76,51,4
2,73,29,20
2,74,40,16
2,73,43,4
2,70,19,16
2,73,54,20
2,69,64,20
2,69,17,8
2,70,49,16
2,67,13,4
2,69,40,16
2,69,41,12
2,67,39,8
2,65,26,20
2,64,42,4
2,64,58,4
2,65,44,4
2,67,53,4
2,65,15,36
2,67,56,28
2,64,38,12
2,65,44,8
2,64,55,36
2,65,56,28
2,64,48,12
2,69,58,4
2,67,52,0
2,69,69,28
2,64,54,0
2,65,44,8
2,64,58,20
2,64,28,4
2,67,40,20
2,65,15,4
2,67,23,0
2,64,12,12
2,65,39,16
2,64,16,40
2,65,34,20
2,70,35,4
2,69,20,20
2,67,15,4
2,69,44,28
2,69,40,4
2,65,16,32
2,73,44,32
2,70,44,8
2,69,12,20
2,70,40,32
2,69,23,12
2,67,58,16
2,69,39,16
2,65,60,40
2,64,23,40
2,65,12,12
2,67,59,16
2,64,23,12
2,64,39,0
2,61,24,4
2,62,53,20
2,61,58,48
2,73,64,8
2,61,68,28
2,73,77,4
2,61,82,36
2,73,71,0
2,62,75,0
3,74,74,4
3,70,82,168
3,69,72,192
3,67,77,0
3,65,95,0
3,64,84,92
3,61,82,0
3,50,92,300
3,69,127,68
3,70,119,40
3,73,121,108
3,74,111,144
3,76,93,4
3,77,83,36
3,74,104,4
3,73,95,164
3,69,118,0
3,69,111,28
3,67,107,228
3,67,111,8
3,67,116,8
3,67,101,8
3,65,90,4
3,64,86,16
3,62,106,24
3,61,106,108
3,61,74,8
3,58,115,88
3,57,79,16
3,64,89,560
3,69,100,248
3,76,118,352
3,70,98,12
3,69,98,0
3,76,99,16
3,74,91,32
3,67,119,524
3,69,102,4
3,70,115,4
3,73,98,12
3,73,127,32
3,74,98,32
3,70,115,4
3,69,114,16
3,67,102,12
3,69,113,16
3,67,90,20
3,65,103,20
3,64,92,24
3,65,95,12
3,67,106,24
3,65,79,40
3,64,124,24
3,62,108,4
3,64,110,60
3,65,100,8
3,67,122,4
3,70,115,92
3,70,108,20
3,69,127,16
3,67,105,28
3,69,124,180
3,65,107,8
3,64,99,128
3,65,110,308
3,65,97,32
3,67,112,8
3,67,94,28
3,65,113,12
3,65,93,12
3,64,103,20
3,62,102,4
3,61,113,4
3,62,86,20
3,67,111,16
3,69,93,0
3,70,105,16
3,73,103,20
3,73,125,28
3,73,96,8
3,70,112,8
3,69,93,4
3,67,116,16
3,69,115,0
3,67,100,20
3,65,84,8
3,64,102,16
3,65,92,12
3,67,102,8
3,65,71,20
3,64,112,36
3,62,101,12
3,64,113,80
3,65,110,12
3,67,111,12
3,65,100,144
3,65,91,16
3,69,120,20
3,69,83,12
3,67,86,12
3,67,77,24
3,69,111,0
3,67,94,4
3,65,98,8
3,64,85,8
3,65,101,24
3,67,98,8
3,69,106,76
3,69,89,92
3,67,104,32
3,67,80,28
3,67,106,84
3,65,115,60
3,64,91,16
3,65,117,56
3,67,82,4
3,67,118,0
3,64,107,12
3,64,79,28
3,64,84,40
3,62,104,4
3,58,116,0
3,58,108,16
3,57,102,16
3,58,95,28
3,57,87,40
3,58,68,36
3,62,79,60
3,62,89,0
3,62,64,16
3,61,92,12
3,62,92,32
3,61,62,28
3,64,77,56
3,64,68,40
3,62,73,12
3,64,81,20
3,62,76,36
3,65,101,116
3,65,70,28
3,64,99,16
3,65,88,12
3,64,113,56
3,69,85,136
3,69,81,32
3,67,117,4
3,67,90,28
3,67,75,28
3,67,94,16
3,70,108,68
3,70,82,36
3,69,124,24
3,69,125,28
3,69,84,12
3,69,122,20
3,73,88,132
3,73,70,20
3,70,127,20
3,70,99,20
3,70,70,20
3,70,104,12
3,76,121,104
3,76,91,16
3,73,124,20
3,76,127,40
3,73,115,104
3,76,122,108
3,79,125,40
3,76,98,12
3,73,106,28
3,76,108,40
3,76,127,124
3,73,102,12
3,70,98,0
3,73,127,16
3,69,92,4
3,70,101,12
3,69,84,16
3,67,76,40
3,69,127,20
3,67,109,12
3,65,96,20
3,64,86,12
3,65,95,16
3,67,122,32
3,65,88,12
3,64,127,16
3,62,106,12
3,64,82,232
3,64,127,32
3,61,125,4
3,61,127,28
3,64,110,44
3,64,115,96
3,61,127,8
3,64,125,12
3,61,126,12
3,64,127,8
3,73,127,4
3,70,126,16
3,69,93,16
3,70,102,8
3,69,86,28
3,67,111,24
3,69,77,16
3,67,121,28
3,65,74,20
3,64,97,20
3,65,74,12
3,67,106,20
3,65,76,16
3,64,117,24
3,62,112,4
3,64,124,60
3,65,106,20
3,67,126,28
3,65,114,172
3,69,127,100
3,67,115,108
3,65,120,100
3,64,118,108
3,65,117,116
3,64,120,4
3,65,127,8
3,67,110,12
3,69,127,16
3,67,127,112
3,64,114,8
3,62,113,36
3,62,83,24
3,62,114,16
3,57,127,1228
3,61,107,8
3,61,98,8
3,61,110,20
3,61,102,44
3,58,127,48
3,57,127,28
3,58,127,284
3,61,107,32
3,64,84,56
3,64,105,36
3,65,94,192
3,65,102,20
3,65,127,32
3,67,102,124
3,67,86,0
3,65,125,4
3,64,97,88
3,62,104,20
3,61,94,40
3,62,104,48
3,65,114,56
3,65,109,24
3,65,112,8
3,65,94,20
3,64,103,24
3,65,99,8
3,65,91,24
3,65,88,6
3,65,78,20
3,64,99,24
3,67,115,64
3,67,93,24
3,67,108,8
3,67,93,20
3,64,98,20
3,67,115,52
3,65,91,32
3,65,102,8
3,62,106,4
3,64,114,64
3,64,109,24
3,64,112,8
3,61,103,4
3,62,107,20
3,62,98,24
3,62,112,8
3,62,94,20
3,61,103,24
3,64,118,8
3,64,101,12
3,65,112,8
3,65,94,20
3,67,114,8
3,67,109,24
3,69,112,8
3,69,94,20
3,70,114,4
3,70,109,24
3,73,112,8
3,73,94,20
3,70,103,24
3,76,99,8
3,76,118,32
3,64,52,104
3,76,124,20
3,64,112,212
3,67,111,260
3,69,93,0
3,70,105,16
3,73,103,20
3,73,125,28
3,73,96,8
3,70,112,8
3,69,93,4
3,67,116,16
3,69,115,0
3,67,100,20
3,65,84,8
3,64,102,16
3,67,102,0
3,64,112,20
3,62,101,12
3,64,113,80
3,65,110,12
3,67,111,12
3,65,100,144
3,69,120,20
3,69,83,12
3,67,86,12
3,67,77,24
3,69,112,0
3,64,90,4
3,65,97,8
3,65,84,16
3,67,80,88
3,68,108,4
3,65,86,16
3,65,77,8
3,64,123,4
3,67,96,108
3,67,109,16
3,65,127,8
3,64,127,136
3,67,82,24
3,69,104,64
3,70,97,20
3,69,110,8
3,74,93,0
3,74,86,8
3,74,75,4
3,74,62,20
3,67,98,24
3,69,87,12
3,70,93,324
3,73,118,44
3,74,102,4
3,74,98,12
3,74,82,36
3,74,109,72
3,74,83,156
3,74,99,132
3,74,102,140
3,70,110,64
3,69,94,52
3,67,117,220
3,69,104,132
3,70,108,100
3,76,111,104
3,74,127,16
3,69,100,468
3,69,80,52
3,76,112,92
3,74,118,96
3,74,90,144
3,76,112,160
3,74,127,6
3,74,118,0
3,73,91,60
