track,note,velocity,time
1,69,110,4640
1,69,0,160
1,69,110,0
1,69,0,320
1,69,110,0
1,69,0,160
1,69,110,0
1,69,0,160
1,71,110,0
1,71,0,160
1,69,110,0
1,69,0,160
1,74,110,0
1,74,0,160
1,71,110,0
1,71,0,160
1,74,110,0
1,74,0,320
1,71,110,1920
1,71,0,156
1,71,110,4
1,71,0,156
1,71,110,4
1,71,0,156
1,71,110,4
1,71,0,156
1,71,110,4
1,71,0,316
1,73,110,4
1,73,0,156
1,71,110,4
1,71,0,156
1,76,110,4
1,76,0,636
1,78,110,4
1,78,0,156
1,76,110,4
1,76,0,156
1,74,110,4
1,74,0,476
1,76,110,4
1,76,0,476
1,74,110,4
1,74,0,476
1,73,110,164
1,73,0,156
1,74,110,4
1,74,0,156
1,73,110,4
1,73,0,476
1,71,110,164
1,71,0,156
1,69,110,4
1,69,0,156
1,71,110,4
1,71,0,316
1,74,110,4
1,74,0,316
1,71,110,4
1,71,0,316
1,70,110,4
1,70,0,476
1,69,110,484
1,69,0,476
1,74,110,4
1,74,0,476
1,69,110,4
1,69,0,476
1,66,110,4
1,66,0,320
1,64,110,0
1,64,0,480
1,69,110,1920
1,69,0,160
1,69,110,0
1,69,0,116
1,69,110,4
1,69,0,116
1,69,110,4
1,69,0,116
1,69,110,4
1,69,0,116
1,69,110,4
1,69,0,476
1,71,110,4
1,71,0,236
1,69,110,4
1,69,0,236
1,74,110,4
1,74,0,160
1,71,110,0
1,71,0,160
1,74,110,0
1,74,0,640
1,71,110,1600
1,71,0,156
1,71,110,4
1,71,0,156
1,71,110,4
1,71,0,156
1,71,110,4
1,71,0,156
1,71,110,4
1,71,0,316
1,73,110,4
1,73,0,156
1,71,110,4
1,71,0,156
1,76,110,4
1,76,0,636
1,78,110,4
1,78,0,156
1,76,110,4
1,76,0,156
1,74,110,4
1,74,0,476
1,76,110,4
1,76,0,476
1,74,110,4
1,74,0,476
1,73,110,164
1,73,0,156
1,74,110,4
1,74,0,156
1,73,110,4
1,73,0,476
1,71,110,164
1,71,0,156
1,69,110,4
1,69,0,156
1,71,110,4
1,71,0,316
1,74,110,4
1,74,0,316
1,71,110,4
1,71,0,316
1,70,110,4
1,70,0,476
1,69,110,484
1,69,0,476
1,74,110,4
1,74,0,476
1,69,110,4
1,69,0,476
1,66,110,4
1,66,0,236
1,64,110,4
1,64,0,716
1,69,110,1444
1,69,0,636
1,71,110,4
1,71,0,156
1,73,110,4
1,73,0,156
1,74,110,4
1,74,0,476
1,78,110,4
1,78,0,236
1,71,110,4
1,71,0,160
1,69,110,0
1,69,0,80
1,71,110,0
1,71,0,320
1,73,110,880
1,73,0,476
1,69,110,4
1,69,0,236
1,73,110,4
1,73,0,236
1,73,110,4
1,73,0,476
1,73,110,4
1,73,0,236
1,76,110,4
1,76,0,476
1,73,110,4
1,73,0,236
1,69,110,4
1,69,0,716
1,69,110,1444
1,69,0,636
1,71,110,4
1,71,0,156
1,73,110,4
1,73,0,156
1,74,110,4
1,74,0,476
1,78,110,4
1,78,0,236
1,71,110,4
1,71,0,160
1,70,110,0
1,70,0,80
1,71,110,0
1,71,0,400
1,71,110,800
1,71,0,476
1,69,110,4
1,69,0,236
1,73,110,244
1,73,0,476
1,73,110,4
1,73,0,236
1,73,110,4
1,73,0,156
1,73,110,4
1,73,0,156
1,74,110,4
1,74,0,156
1,76,110,4
1,76,0,476
1,73,110,244
1,73,0,236
1,73,110,4
1,73,0,156
1,73,110,4
1,73,0,156
1,74,110,4
1,74,0,156
1,78,110,4
1,78,0,320
1,76,110,0
1,76,0,160
1,74,110,0
1,74,0,236
1,74,110,4
1,74,0,716
1,69,110,244
1,69,0,236
1,69,110,4
1,69,0,156
1,69,110,4
1,69,0,156
1,69,110,4
1,69,0,316
1,71,110,4
1,71,0,156
1,69,110,4
1,69,0,156
1,74,110,4
1,74,0,476
1,71,110,1604
1,71,0,156
1,69,110,4
1,69,0,156
1,71,110,4
1,71,0,236
1,71,110,4
1,71,0,240
1,71,110,0
1,71,0,320
1,71,110,0
1,71,0,160
1,73,110,0
1,73,0,236
1,71,110,4
1,71,0,236
1,76,110,4
1,76,0,636
1,78,110,4
1,78,0,156
1,76,110,4
1,76,0,156
1,74,110,4
1,74,0,476
1,76,110,4
1,76,0,476
1,74,110,4
1,74,0,476
1,73,110,164
1,73,0,156
1,74,110,4
1,74,0,156
1,73,110,4
1,73,0,316
1,71,110,4
1,71,0,316
1,73,110,4
1,73,0,316
1,71,110,4
1,71,0,316
1,74,110,4
1,74,0,316
1,71,110,4
1,71,0,316
1,70,110,4
1,70,0,476
1,69,110,484
1,69,0,476
1,74,110,4
1,74,0,476
1,69,110,4
1,69,0,476
1,66,110,4
1,66,0,236
1,64,110,4
1,64,0,716
1,74,110,1444
1,74,0,636
1,73,110,4
1,73,0,156
1,74,110,4
1,74,0,156
1,73,110,4
1,73,0,636
1,71,110,4
1,71,0,156
1,73,110,4
1,73,0,156
1,71,110,4
1,71,0,316
1,74,110,4
1,74,0,316
1,71,110,4
1,71,0,316
1,70,110,4
1,70,0,476
1,69,110,484
1,69,0,476
1,74,110,4
1,74,0,476
1,69,110,4
1,69,0,476
1,66,110,4
1,66,0,236
1,64,110,4
1,64,0,716
1,69,110,13440
1,69,0,476
1,74,110,4
1,74,0,476
1,69,110,4
1,69,0,476
1,66,110,4
1,66,0,236
1,64,110,4
1,64,0,716
1,69,110,12964
1,69,0,476
1,74,110,4
1,74,0,476
1,69,110,4
1,69,0,476
1,66,110,4
1,66,0,236
1,64,110,4
1,64,0,716
1,69,110,1444
1,69,0,636
1,71,110,4
1,71,0,156
1,73,110,4
1,73,0,156
1,74,110,4
1,74,0,476
1,78,110,4
1,78,0,236
1,71,110,4
1,71,0,160
1,70,110,0
1,70,0,80
1,71,110,0
1,71,0,480
1,73,110,720
1,73,0,476
1,69,110,4
1,69,0,236
1,73,110,4
1,73,0,236
1,73,110,4
1,73,0,476
1,74,110,4
1,74,0,236
1,76,110,4
1,76,0,476
1,73,110,4
1,73,0,236
1,69,110,4
1,69,0,716
1,69,110,1444
1,69,0,636
1,71,110,4
1,71,0,156
1,73,110,4
1,73,0,156
1,74,110,4
1,74,0,476
1,78,110,4
1,78,0,236
1,71,110,4
1,71,0,160
1,70,110,0
1,70,0,80
1,71,110,0
1,71,0,480
1,71,110,720
1,71,0,476
1,69,110,4
1,69,0,236
1,73,110,244
1,73,0,476
1,73,110,4
1,73,0,236
1,73,110,4
1,73,0,156
1,73,110,4
1,73,0,156
1,74,110,4
1,74,0,156
1,76,110,4
1,76,0,476
1,73,110,244
1,73,0,236
1,73,110,4
1,73,0,156
1,73,110,4
1,73,0,156
1,74,110,4
1,74,0,156
1,78,110,4
1,78,0,320
1,76,110,0
1,76,0,160
1,74,110,0
1,74,0,236
1,74,110,4
1,74,0,716
1,69,110,244
1,69,0,236
1,69,110,4
1,69,0,156
1,69,110,4
1,69,0,156
1,69,110,4
1,69,0,316
1,71,110,4
1,71,0,156
1,69,110,4
1,69,0,156
1,74,110,4
1,74,0,160
1,73,110,0
1,73,0,160
1,74,110,0
1,74,0,480
1,71,110,1280
1,71,0,156
1,69,110,4
1,69,0,156
1,71,110,4
1,71,0,320
1,71,110,0
1,71,0,160
1,71,110,0
1,71,0,320
1,71,110,0
1,71,0,160
1,73,110,0
1,73,0,236
1,71,110,4
1,71,0,236
1,76,110,4
1,76,0,636
1,78,110,4
1,78,0,156
1,76,110,4
1,76,0,156
1,74,110,4
1,74,0,476
1,76,110,4
1,76,0,476
1,74,110,4
1,74,0,476
1,73,110,164
1,73,0,156
1,74,110,4
1,74,0,156
1,73,110,4
1,73,0,316
1,71,110,324
1,71,0,160
1,69,110,0
1,69,0,160
1,71,110,0
1,71,0,316
1,74,110,4
1,74,0,316
1,71,110,4
1,71,0,316
1,70,110,4
1,70,0,476
1,69,110,484
1,69,0,476
1,74,110,4
1,74,0,476
1,69,110,4
1,69,0,476
1,66,110,4
1,66,0,236
1,64,110,4
1,64,0,716
1,74,110,1444
1,74,0,636
1,73,110,4
1,73,0,156
1,74,110,4
1,74,0,156
1,73,110,4
1,73,0,636
1,71,110,4
1,71,0,156
1,73,110,4
1,73,0,156
1,71,110,4
1,71,0,316
1,74,110,4
1,74,0,316
1,71,110,4
1,71,0,316
1,70,110,4
1,70,0,160
1,69,110,0
1,69,0,80
1,70,110,0
1,70,0,400
1,69,110,320
1,69,0,476
1,74,110,4
1,74,0,476
1,69,110,4
1,69,0,476
1,66,110,4
1,66,0,236
1,64,110,4
1,64,0,716
1,74,110,1444
1,74,0,636
1,73,110,4
1,73,0,156
1,71,110,4
1,71,0,156
1,73,110,4
1,73,0,636
1,71,110,4
1,71,0,156
1,69,110,4
1,69,0,156
1,71,110,4
1,71,0,316
1,74,110,4
1,74,0,316
1,71,110,4
1,71,0,316
1,70,110,4
1,70,0,160
1,69,110,0
1,69,0,80
1,70,110,0
1,70,0,320
1,69,110,400
1,69,0,476
1,74,110,4
1,74,0,476
1,69,110,4
1,69,0,476
1,66,110,4
1,66,0,236
1,64,110,4
1,64,0,2156
1,69,110,4
1,69,0,1916
1,74,110,4
1,74,0,320
1,78,110,6640
1,78,0,396
1,76,110,4
1,76,0,156
1,78,110,4
1,78,0,796
1,76,110,4
1,76,0,156
1,78,110,4
1,78,0,156
1,76,110,4
1,76,0,716
1,76,110,4
1,76,0,556
1,74,110,4
1,74,0,316
1,70,110,4
1,70,0,316
1,74,110,4
1,74,0,236
1,76,110,4
1,76,0,716
1,69,110,4
1,69,0,476
1,74,110,4
1,74,0,476
1,69,110,4
1,69,0,476
1,66,110,4
1,66,0,236
1,64,110,4
1,64,0,716
1,74,110,8404
1,74,0,396
1,71,110,4
1,71,0,156
1,74,110,4
1,74,0,796
1,76,110,4
1,76,0,156
1,78,110,4
1,78,0,156
1,76,110,4
1,76,0,716
1,76,110,4
1,76,0,556
1,74,110,4
1,74,0,316
1,70,110,4
1,70,0,316
1,74,110,4
1,74,0,236
1,76,110,4
1,76,0,716
1,69,110,4
1,69,0,476
1,74,110,4
1,74,0,476
1,69,110,4
1,69,0,476
1,66,110,4
1,66,0,236
1,64,110,4
1,64,0,716
1,78,110,8404
1,78,0,396
1,76,110,4
1,76,0,156
1,78,110,4
1,78,0,796
1,76,110,4
1,76,0,156
1,78,110,4
1,78,0,156
1,76,110,4
1,76,0,716
1,76,110,4
1,76,0,556
1,74,110,4
1,74,0,316
1,70,110,4
1,70,0,316
1,74,110,4
1,74,0,236
1,76,110,4
1,76,0,716
1,69,110,4
1,69,0,476
1,74,110,4
1,74,0,476
1,69,110,4
1,69,0,476
1,66,110,4
1,66,0,236
1,64,110,4
1,64,0,716
1,78,110,49
1,78,0,61
1,76,110,4
1,76,0,29
1,78,110,4
1,78,0,61
1,76,110,4
1,76,0,29
1,78,110,4
1,78,0,156
1,76,110,1
1,76,0,141
1,76,110,4
1,76,0,125
1,74,110,4
1,74,0,61
1,70,110,4
1,70,0,189
1,74,110,1
1,74,0,45
1,76,110,4
1,76,0,189
1,69,110,1
1,69,0,93
1,74,110,4
1,74,0,189
1,69,110,1
1,69,0,93
1,66,110,4
1,66,0,141
1,64,110,4
1,64,0,93
2,65,112,2742
2,65,0,91
2,67,112,46
2,67,0,156
2,68,112,4
2,68,0,156
2,69,112,4
2,72,112,153
2,69,0,3
2,72,0,233
2,72,112,84
2,72,0,476
2,69,112,4
2,68,112,160
2,69,0,76
2,68,0,160
2,67,112,84
2,65,112,160
2,67,0,76
2,65,0,160
2,61,112,84
2,62,112,160
2,61,0,76
2,62,0,164
2,65,112,560
2,60,112,0
2,60,0,1120
2,65,0,0
2,65,112,0
2,65,0,236
2,67,112,84
2,67,0,476
2,65,112,4
2,62,112,160
2,65,0,76
2,62,0,884
2,74,112,0
2,74,0,236
2,72,112,84
2,69,112,160
2,72,0,76
2,69,0,160
2,68,112,84
2,68,0,156
2,67,112,4
2,67,0,156
2,65,112,4
2,65,0,156
2,62,112,4
2,60,112,80
2,62,0,76
2,60,0,80
2,56,112,84
2,56,0,156
2,55,112,4
2,54,112,160
2,55,0,76
2,54,0,160
2,69,112,84
2,69,0,160
2,69,112,0
2,66,112,0
2,62,112,0
2,62,0,236
2,66,0,0
2,69,0,0
2,69,112,84
2,69,0,160
2,69,112,0
2,66,112,0
2,62,112,0
2,62,0,236
2,66,0,0
2,69,0,0
2,69,112,84
2,69,0,160
2,71,112,0
2,66,112,0
2,62,112,0
2,62,0,236
2,66,0,0
2,71,0,0
2,69,112,84
2,69,0,160
2,74,112,0
2,69,112,0
2,66,112,0
2,66,0,476
2,69,0,0
2,74,0,0
2,54,112,484
2,54,0,636
2,55,112,4
2,55,0,156
2,57,112,4
2,57,0,156
2,55,112,4
2,55,0,716
2,71,112,4
2,71,0,236
2,71,112,4
2,67,112,0
2,64,112,0
2,64,0,236
2,67,0,0
2,71,0,0
2,71,112,84
2,67,112,0
2,64,112,0
2,73,112,320
2,64,0,76
2,71,0,0
2,67,0,0
2,73,0,80
2,71,112,4
2,71,0,156
2,76,112,4
2,73,112,0
2,70,112,0
2,67,112,0
2,67,0,636
2,76,0,0
2,73,0,0
2,70,0,0
2,78,112,4
2,78,0,156
2,76,112,4
2,76,0,156
2,74,112,4
2,70,112,0
2,64,112,0
2,64,0,476
2,70,0,0
2,74,0,0
2,76,112,4
2,73,112,0
2,70,112,0
2,64,112,0
2,64,0,476
2,76,0,0
2,73,0,0
2,70,0,0
2,74,112,4
2,69,112,0
2,66,112,0
2,66,0,636
2,69,0,0
2,74,0,0
2,73,112,4
2,73,0,156
2,74,112,4
2,74,0,156
2,73,112,4
2,69,112,0
2,64,112,0
2,64,0,636
2,69,0,0
2,73,0,0
2,71,112,4
2,71,0,156
2,69,112,4
2,69,0,156
2,71,112,4
2,67,112,0
2,62,112,0
2,62,0,316
2,67,0,0
2,71,0,0
2,74,112,4
2,74,0,316
2,71,112,164
2,70,112,160
2,67,112,0
2,62,112,0
2,71,0,156
2,70,0,800
2,67,0,0
2,62,0,0
2,69,112,4
2,66,112,0
2,62,112,0
2,62,0,476
2,66,0,0
2,69,0,0
2,74,112,4
2,74,0,476
2,71,112,4
2,69,112,0
2,63,112,0
2,63,0,476
2,69,0,0
2,71,0,0
2,66,112,4
2,66,0,236
2,64,112,84
2,62,112,0
2,59,112,0
2,55,112,0
2,64,0,160
2,64,112,0
2,64,0,956
2,64,112,4
2,55,112,0
2,55,0,76
2,62,0,0
2,59,0,0
2,64,0,400
2,55,0,0
2,67,112,4
2,59,112,0
2,59,0,236
2,67,0,0
2,66,112,84
2,57,112,0
2,57,0,476
2,66,0,0
2,69,112,4
2,69,0,160
2,69,112,0
2,66,112,0
2,62,112,0
2,62,0,236
2,66,0,0
2,69,0,0
2,69,112,84
2,69,0,160
2,69,112,0
2,66,112,0
2,62,112,0
2,62,0,476
2,66,0,0
2,69,0,0
2,71,112,4
2,66,112,0
2,62,112,0
2,62,0,236
2,66,0,0
2,71,0,0
2,69,112,84
2,69,0,160
2,74,112,0
2,69,112,0
2,66,112,0
2,66,0,476
2,69,0,0
2,74,0,0
2,54,112,484
2,54,0,636
2,55,112,4
2,55,0,156
2,57,112,4
2,57,0,156
2,55,112,4
2,55,0,716
2,71,112,84
2,71,0,160
2,71,112,0
2,67,112,0
2,64,112,0
2,64,0,236
2,67,0,0
2,71,0,0
2,71,112,84
2,67,112,0
2,64,112,0
2,73,112,320
2,64,0,76
2,71,0,0
2,67,0,0
2,73,0,80
2,71,112,4
2,71,0,156
2,76,112,4
2,73,112,0
2,70,112,0
2,67,112,0
2,67,0,636
2,76,0,0
2,73,0,0
2,70,0,0
2,78,112,4
2,78,0,156
2,76,112,4
2,76,0,156
2,74,112,4
2,70,112,0
2,64,112,0
2,64,0,476
2,70,0,0
2,74,0,0
2,76,112,4
2,73,112,0
2,70,112,0
2,64,112,0
2,64,0,476
2,76,0,0
2,73,0,0
2,70,0,0
