track,note,velocity,time
1,59,77,93868
1,61,77,0
1,64,77,0
1,68,77,0
1,66,77,404
1,64,77,168
1,71,77,0
1,71,77,0
1,71,77,0
1,59,77,0
1,59,77,0
1,61,77,112
1,64,77,0
1,66,77,0
1,68,77,0
1,70,77,4
1,66,77,172
1,64,77,0
1,71,77,0
1,71,77,0
1,71,77,0
1,59,77,0
1,61,77,0
1,64,77,0
1,68,77,0
1,66,77,404
1,64,77,168
1,71,77,0
1,71,77,0
1,71,77,0
1,59,77,0
1,59,77,0
1,61,77,112
1,64,77,0
1,66,77,0
1,68,77,0
1,70,77,4
1,66,77,172
1,64,77,0
1,71,77,0
1,71,77,0
1,71,77,0
1,71,77,0
1,71,77,0
1,71,77,0
1,71,64,0
1,64,56,0
1,76,46,16
1,61,64,0
1,64,64,0
1,61,64,0
1,64,64,164
1,68,64,0
1,64,64,12
1,68,64,12
1,64,64,0
1,63,64,0
1,68,64,16
1,64,64,0
1,68,64,12
1,64,64,0
1,64,64,0
1,64,64,0
1,66,64,188
1,68,64,0
1,64,64,4
1,63,64,0
1,66,64,8
1,68,64,540
1,64,64,16
1,61,64,0
1,64,64,0
1,61,64,0
1,64,64,164
1,68,64,0
1,64,64,12
1,68,64,12
1,64,64,0
1,63,64,736
1,68,64,12
1,64,64,0
1,68,64,12
1,68,64,0
1,66,64,208
1,64,64,0
1,66,64,196
1,64,64,0
1,68,64,16
1,63,64,0
1,66,64,16
1,68,64,528
1,64,64,8
1,59,77,0
1,61,77,0
1,64,77,0
1,68,77,0
1,66,77,404
1,64,77,168
1,71,77,0
1,71,77,0
1,71,77,0
1,59,77,0
1,59,77,0
1,61,77,112
1,64,77,0
1,66,77,0
1,68,77,0
1,70,77,4
1,66,77,172
1,64,77,0
1,71,77,0
1,71,77,0
1,71,77,0
1,59,77,0
1,61,77,0
1,64,77,0
1,68,77,0
1,66,77,404
1,64,77,168
1,71,77,0
1,71,77,0
1,71,77,0
1,59,77,0
1,59,77,0
1,61,77,112
1,64,77,0
1,66,77,0
1,68,77,0
1,70,77,8
1,66,77,172
1,64,77,0
1,71,77,0
1,71,77,0
1,71,77,0
1,71,77,0
1,71,77,0
1,71,77,0
1,71,77,0
1,64,77,4
1,76,77,12
1,68,77,0
1,64,77,0
1,63,77,0
1,68,77,12
1,64,77,0
1,68,77,8
1,64,77,0
1,68,77,12
1,63,77,100
1,66,77,8
1,68,77,548
1,64,77,16
1,68,77,0
1,64,77,0
1,63,77,0
1,68,77,16
1,64,77,0
1,68,77,12
1,64,77,0
1,64,77,0
1,64,77,0
1,66,77,188
1,68,77,0
1,64,77,0
1,63,77,0
1,66,77,8
1,68,77,536
1,64,77,20
1,61,77,0
1,64,77,0
1,61,77,0
1,64,77,164
1,68,77,0
1,64,77,12
1,68,77,12
1,64,77,0
1,63,77,736
1,68,77,12
1,64,77,0
1,68,77,12
1,68,77,0
1,66,77,208
1,64,77,0
1,66,77,196
1,64,77,0
1,68,77,16
1,63,77,0
1,66,77,12
1,68,77,532
1,64,77,8
1,61,77,0
1,64,77,0
1,61,77,0
1,64,77,164
1,68,77,0
1,64,77,12
1,68,77,12
1,64,77,0
1,63,77,0
1,68,77,12
1,64,77,0
1,68,77,12
1,68,77,0
1,66,77,208
1,64,77,0
1,66,77,196
1,64,77,0
1,68,77,12
1,71,77,8
1,64,77,0
1,63,77,84
1,66,77,8
1,68,77,0
1,71,77,8
1,64,77,16
2,28,111,24576
2,28,107,108
2,33,118,192
2,35,106,128
2,35,102,244
2,35,112,120
2,35,114,136
2,28,104,0
2,28,108,148
2,33,108,192
2,35,102,128
2,35,106,168
2,35,107,196
2,35,100,128
2,28,111,192
2,28,108,168
2,33,116,192
2,35,104,176
2,35,102,24
2,35,102,220
2,35,106,184
2,28,109,192
2,28,111,136
2,33,115,192
2,33,102,84
2,35,108,192
2,28,100,1308
2,28,99,104
2,33,103,192
2,33,96,156
2,35,102,192
2,35,84,164
2,35,100,156
2,35,107,136
2,28,103,192
2,28,96,180
2,33,110,196
2,33,97,124
2,35,86,8
2,35,90,184
2,35,78,248
2,35,103,244
2,28,103,192
2,28,92,160
2,33,112,192
2,33,96,116
2,35,88,192
2,35,73,212
2,35,90,248
2,35,87,196
2,28,110,20
2,28,79,172
2,33,110,192
2,33,109,160
2,28,106,192
2,28,100,180
2,33,114,188
2,33,107,132
2,28,101,192
2,28,104,204
2,33,109,192
2,28,109,40
2,28,118,156
2,28,119,176
2,28,116,148
2,28,115,92
2,37,118,1256
2,32,120,768
2,37,126,572
2,40,120,1528
2,35,97,60
2,40,103,72
2,37,118,1460
2,32,124,32
2,37,118,576
2,40,118,1588
2,35,115,24
2,40,125,576
2,28,116,1508
2,32,116,768
2,33,116,48
2,37,114,580
2,33,108,488
2,28,107,196
2,32,114,768
2,33,111,64
2,37,115,576
2,33,108,476
2,28,120,132
2,32,116,768
2,33,112,32
2,37,107,580
2,33,111,512
2,28,115,204
2,32,115,768
2,35,115,720
2,35,120,100
2,35,112,124
2,35,114,188
2,35,106,96
2,37,118,1304
2,32,120,772
2,37,126,568
2,40,120,1528
2,35,97,60
2,28,113,72
2,37,118,1460
2,32,124,32
2,37,118,576
2,40,118,1584
2,35,115,24
2,28,125,576
2,35,121,548
2,35,115,8
2,28,111,376
2,28,107,112
2,33,118,192
2,35,106,128
2,35,102,248
2,35,112,124
2,35,114,140
2,28,104,4
2,28,108,148
2,33,108,196
2,35,102,128
2,35,106,172
2,35,107,200
2,35,100,132
2,28,111,188
2,28,108,168
2,33,116,196
2,35,104,180
2,35,102,28
2,35,102,224
2,35,106,188
2,28,109,188
2,28,111,140
2,33,115,192
2,33,102,88
2,35,108,188
2,28,100,1312
2,28,99,108
2,33,103,192
2,33,96,160
2,35,102,188
2,35,84,168
2,35,100,160
2,35,107,136
2,28,103,192
2,28,96,180
2,33,110,196
2,33,97,120
2,35,86,8
2,35,90,184
2,35,78,248
2,35,103,248
2,28,103,188
2,28,92,160
2,33,112,192
2,33,96,120
2,35,88,188
2,35,73,212
2,35,90,248
2,35,87,200
2,28,110,20
2,28,79,172
2,33,110,192
2,33,109,164
2,28,106,188
2,28,100,180
2,33,114,192
2,33,107,132
2,28,101,192
2,28,104,200
2,33,109,196
2,28,109,44
2,28,118,156
2,28,119,176
2,28,116,148
2,28,115,92
2,37,118,1260
2,32,120,0
2,37,126,576
2,40,120,1524
2,35,97,60
2,40,103,68
2,37,118,1464
2,32,124,32
2,37,118,576
2,40,118,1584
2,35,115,24
2,28,125,572
2,37,118,360
2,40,122,192
2,37,116,0
2,40,123,8
2,37,126,188
2,32,124,768
2,37,114,548
2,44,120,404
2,42,127,192
2,40,107,36
2,42,127,192
2,40,112,204
2,35,116,768
2,28,103,572
2,37,127,412
2,40,114,192
2,37,112,296
2,40,114,160
2,37,120,220
2,32,118,44
2,37,108,576
2,44,124,404
2,42,124,192
2,40,115,8
2,42,124,192
2,40,111,236
2,35,124,768
2,28,116,552
2,28,116,1468
2,32,116,768
2,33,116,48
2,37,114,580
2,33,108,488
2,28,107,196
2,32,114,768
2,33,111,60
2,37,115,580
2,33,108,476
2,28,120,132
2,32,116,768
2,33,112,32
2,37,107,580
2,33,111,512
2,28,115,204
2,32,115,768
2,35,115,720
2,35,120,100
2,35,112,124
2,35,114,188
2,35,124,96
2,35,112,244
2,35,115,0
2,35,102,0
2,35,108,0
2,35,109,0
2,28,111,188
2,28,107,108
2,33,118,196
2,35,106,128
2,35,102,248
2,35,112,124
2,35,114,136
2,28,104,4
2,28,108,152
2,33,108,192
2,35,102,128
2,35,106,172
2,35,107,200
2,35,100,128
2,28,111,192
2,28,107,108
2,33,118,196
2,35,106,128
2,35,102,248
2,35,112,124
2,35,114,140
2,28,104,4
2,28,108,148
2,33,108,196
2,35,102,128
2,35,106,172
2,35,107,200
2,35,100,128
2,28,111,192
2,28,107,112
2,33,118,192
2,35,106,128
2,35,102,248
2,35,112,124
2,35,114,136
2,28,104,4
2,28,108,156
2,33,108,192
2,35,102,128
2,35,106,172
2,35,107,200
2,35,100,132
2,28,103,188
2,28,92,160
2,33,112,192
2,33,96,120
2,35,88,188
2,35,73,212
2,35,90,248
2,35,87,200
2,28,110,20
2,28,79,172
2,33,110,192
2,33,109,164
2,28,106,188
2,28,100,180
2,33,114,192
2,33,107,136
2,28,101,188
2,28,104,200
2,33,109,196
2,28,109,44
2,28,118,156
2,28,119,176
2,28,116,144
2,28,115,92
2,37,118,1252
2,32,120,0
2,37,126,576
2,40,120,1524
2,35,97,60
2,40,103,68
2,32,120,500
2,32,111,48
2,35,110,0
2,37,120,16
2,32,112,0
2,37,122,576
2,37,125,588
2,37,111,72
2,39,108,192
2,40,111,20
2,35,112,772
2,28,118,544
2,35,112,536
2,35,115,84
2,35,112,76
2,37,118,84
2,32,120,0
2,37,126,572
2,40,120,1524
2,35,97,60
2,28,113,72
2,37,118,1464
2,32,124,32
2,37,118,576
2,40,118,1584
2,35,115,24
2,28,125,572
2,37,118,360
2,40,122,192
2,37,116,0
2,40,123,8
2,37,126,192
2,32,124,764
2,37,114,548
2,44,120,404
2,42,127,192
2,40,107,36
2,42,127,192
2,40,122,208
2,35,118,0
2,28,125,580
3,52,63,24576
3,52,88,0
3,52,90,0
3,71,97,188
3,80,88,4
3,76,96,12
3,80,95,76
3,71,91,8
3,52,59,8
3,76,85,4
3,57,70,52
3,57,98,0
3,57,91,0
3,73,95,208
3,76,99,4
3,81,83,8
3,73,89,84
3,76,94,4
3,81,91,0
3,59,58,80
3,59,91,0
3,59,88,0
3,78,98,48
3,75,87,4
3,83,97,0
3,78,97,104
3,59,54,4
3,75,91,4
3,83,94,0
3,59,84,0
3,59,64,100
3,59,90,0
3,75,96,184
3,78,95,4
3,83,87,4
3,78,96,100
3,75,94,4
3,59,66,4
3,83,91,0
3,52,56,0
3,52,89,0
3,52,88,0
3,71,99,216
3,80,88,8
3,76,83,4
3,52,60,80
3,80,95,4
3,71,88,4
3,76,99,8
3,57,60,48
3,57,93,0
3,57,93,0
3,73,90,192
3,81,96,0
3,76,90,4
3,73,91,92
3,76,93,4
3,81,99,0
3,59,54,84
3,59,84,0
3,59,88,0
3,75,89,180
3,83,91,4
3,78,88,4
3,78,98,96
3,83,94,8
3,75,84,0
3,59,58,4
3,59,88,4
3,59,59,104
3,59,86,0
3,75,99,196
3,78,96,12
3,83,99,0
3,59,52,76
3,75,91,0
3,78,99,0
3,83,88,4
3,52,63,96
3,52,87,0
3,52,88,0
3,71,90,192
3,76,91,8
3,80,80,12
3,71,97,108
3,52,60,4
3,80,94,0
3,76,98,0
3,57,68,64
3,57,93,0
3,57,90,0
3,73,79,176
3,81,80,4
3,76,85,4
3,73,96,116
3,76,99,0
3,81,99,4
3,59,56,96
3,59,85,0
3,59,77,0
3,75,98,188
3,78,96,4
3,83,88,8
3,59,54,24
3,78,99,4
3,75,94,0
3,83,84,4
3,59,84,28
3,59,54,104
3,59,80,0
3,75,91,168
3,78,99,0
3,83,70,16
3,78,94,104
3,83,99,0
3,75,99,4
3,59,58,16
3,52,90,116
3,52,84,0
3,71,95,184
3,76,91,4
3,80,90,4
3,80,97,100
3,71,93,0
3,52,63,8
3,76,99,0
3,57,67,64
3,57,94,0
3,57,90,0
3,73,93,216
3,81,90,0
3,76,90,4
3,57,54,76
3,73,88,0
3,81,76,4
3,76,93,4
3,59,60,76
3,75,97,4
3,83,99,0
3,78,91,0
3,52,52,1312
3,52,88,0
3,52,90,184
3,71,97,188
3,80,88,4
3,76,96,16
3,80,95,76
3,71,91,8
3,52,51,8
3,76,85,4
3,57,55,52
3,57,98,0
3,57,91,0
3,73,95,208
3,76,99,4
3,81,83,8
3,73,89,84
3,57,48,4
3,76,94,0
3,81,91,4
3,59,54,80
3,59,91,0
3,59,88,0
3,78,98,188
3,75,87,4
3,83,97,0
3,78,97,124
3,59,36,4
3,75,91,4
3,83,94,0
3,59,84,0
3,59,52,100
3,59,90,0
3,75,96,184
3,78,95,4
3,83,87,4
3,78,96,100
3,75,94,4
3,59,59,4
3,83,91,0
3,52,55,100
3,52,89,0
3,52,88,0
3,71,99,8
3,80,88,8
3,76,83,4
3,52,48,80
3,80,95,8
3,71,88,0
3,76,99,12
3,57,62,48
3,57,93,0
3,57,93,0
3,73,90,192
3,81,96,0
3,76,90,4
3,73,91,88
3,57,49,4
3,76,93,4
3,81,99,0
3,59,38,4
3,59,84,0
3,59,88,0
3,75,89,176
3,83,91,4
3,78,88,4
3,78,98,96
3,83,94,8
3,75,84,0
3,59,42,4
3,59,88,52
3,59,30,108
3,59,86,0
3,75,99,192
3,78,96,12
3,83,99,0
3,59,55,76
3,75,91,4
3,78,99,0
3,83,88,0
3,52,55,96
3,52,87,0
3,52,88,0
3,71,90,196
3,76,91,4
3,80,80,8
3,71,97,108
3,52,44,4
3,80,94,4
3,76,98,0
3,57,64,64
3,57,93,0
3,57,90,152
3,73,79,176
3,81,80,4
3,76,85,4
3,73,96,104
3,76,99,0
3,81,99,4
3,57,48,8
3,59,40,96
3,59,85,0
3,59,77,0
3,75,98,8
3,78,96,8
3,83,88,8
3,59,25,108
3,78,99,4
3,75,94,0
3,83,84,4
3,59,84,52
3,59,42,108
3,59,80,0
3,75,91,164
3,78,99,0
3,83,70,16
3,78,94,100
3,83,99,0
3,75,99,4
3,59,39,16
3,52,62,20
3,71,91,380
3,80,93,0
3,76,88,4
3,52,31,28
3,57,62,192
3,73,99,320
3,76,99,4
3,81,99,0
3,57,61,48
3,52,58,192
3,71,99,380
3,80,98,0
3,76,94,0
3,52,52,48
3,57,66,188
3,73,99,348
3,81,99,4
3,76,94,4
3,57,59,96
3,52,53,192
3,71,99,340
3,80,99,4
3,76,96,8
3,52,56,68
3,57,61,196
3,73,99,320
3,81,97,8
3,76,98,4
3,52,61,36
3,76,98,400
3,80,99,4
3,71,80,4
3,76,89,72
3,80,91,4
3,71,91,4
3,52,70,8
3,71,93,80
3,76,93,4
3,80,99,0
3,52,71,28
3,76,93,132
3,71,91,4
3,52,68,4
3,80,87,4
3,76,99,68
3,80,99,0
3,71,99,4
3,52,67,16
3,61,70,1252
3,76,89,8
3,73,89,0
3,68,86,4
3,68,91,204
3,75,90,0
3,71,99,4
3,56,72,24
3,73,97,144
3,68,97,4
3,76,91,12
3,61,78,4
3,64,72,1520
3,76,99,24
3,71,99,0
3,80,93,4
3,75,89,36
3,71,79,4
3,78,93,4
3,59,49,8
3,80,96,52
3,71,94,4
3,76,77,0
3,64,55,12
3,61,70,1452
3,73,93,8
3,76,97,0
3,68,99,4
3,68,91,192
3,75,87,8
3,71,99,0
3,56,76,24
3,68,99,152
3,73,99,4
3,76,97,4
3,61,70,16
3,64,70,1532
3,76,99,8
3,71,99,0
3,80,86,4
3,75,90,196
3,78,93,0
3,71,90,4
3,59,67,20
3,80,93,172
3,71,93,4
3,76,83,0
3,64,77,20
3,52,86,1504
3,56,90,772
3,57,90,36
3,61,82,580
3,64,87,520
3,52,64,80
3,56,89,4
3,57,84,0
3,61,87,576
3,64,89,0
3,52,78,32
3,56,92,772
3,57,86,760
3,61,82,576
3,64,79,516
3,52,75,20
3,56,88,768
3,59,87,4
3,63,85,580
3,66,89,508
3,59,89,372
3,61,70,1376
3,76,89,4
3,73,89,4
3,68,86,0
3,68,91,204
3,75,90,0
3,71,99,4
3,56,72,20
3,73,97,144
3,68,97,4
3,76,91,12
3,61,78,4
3,64,72,1520
3,76,99,24
3,71,99,0
3,80,93,4
3,75,89,36
3,71,79,4
3,78,93,4
3,59,49,8
3,80,96,52
3,71,94,4
3,76,77,0
3,52,65,12
3,61,70,1460
3,73,93,4
3,76,97,0
3,68,99,0
3,68,91,192
3,75,87,8
3,71,99,4
3,56,76,24
3,68,99,152
3,73,99,0
3,76,97,8
3,61,70,16
3,64,70,1532
3,76,99,8
3,71,99,0
3,80,86,0
3,75,90,196
3,78,93,0
3,71,90,4
3,59,67,20
3,80,93,172
3,71,93,4
3,76,83,0
