track,note,velocity,time
2,25,99,4907
2,25,0,473
2,34,95,7
2,34,0,465
2,29,95,15
2,29,0,474
2,30,89,6
2,32,93,360
2,30,0,1
2,32,0,118
2,25,97,1
2,25,0,474
2,34,93,6
2,34,0,478
2,29,95,2
2,29,0,474
2,30,92,6
2,32,97,360
2,30,0,1
2,32,0,117
2,25,95,2
2,25,0,449
2,32,81,1
2,32,0,2
2,32,91,13
2,32,0,2
2,34,90,13
2,34,0,449
2,32,87,1
2,32,0,2
2,32,87,13
2,32,0,2
2,30,87,13
2,30,0,434
2,30,96,16
2,30,0,2
2,30,93,13
2,30,0,2
2,32,90,13
2,32,0,434
2,32,84,16
2,32,0,2
2,34,91,13
2,34,0,2
2,25,95,13
2,25,0,449
2,32,81,1
2,32,0,2
2,32,91,13
2,32,0,2
2,34,90,13
2,34,0,449
2,32,87,1
2,32,0,2
2,32,87,13
2,32,0,2
2,30,87,13
2,30,0,434
2,30,96,16
2,30,0,2
2,30,93,13
2,30,0,2
2,32,90,13
2,32,0,434
2,32,84,16
2,32,0,2
2,32,91,13
2,32,0,2
2,34,90,13
2,34,0,449
2,32,81,1
2,32,0,2
2,32,91,13
2,32,0,2
2,32,90,13
2,32,0,449
2,34,87,1
2,34,0,2
2,32,87,13
2,32,0,2
2,30,87,13
2,30,0,434
2,30,96,16
2,30,0,2
2,32,93,13
2,32,0,2
2,25,95,13
2,25,0,434
2,25,84,16
2,25,0,2
2,25,91,13
2,25,0,2
2,27,95,13
2,27,0,449
2,27,81,1
2,27,0,2
2,27,91,13
2,27,0,2
2,30,90,13
2,30,0,449
2,30,87,1
2,30,0,2
2,32,87,13
2,32,0,2
2,34,87,13
2,34,0,237
2,32,87,4
2,30,96,209
2,30,0,2
2,32,0,0
2,30,93,13
2,30,0,2
2,30,90,13
2,30,0,447
2,25,84,3
2,25,0,2
2,25,91,13
2,25,0,2
2,30,90,13
2,30,0,447
2,25,99,33
2,25,0,473
2,34,95,7
2,34,0,465
2,29,95,15
2,29,0,474
2,30,89,6
2,32,93,360
2,30,0,1
2,32,0,118
2,25,95,1
2,25,0,449
2,32,81,1
2,32,0,2
2,32,91,13
2,32,0,2
2,34,90,13
2,34,0,449
2,32,87,1
2,32,0,2
2,32,87,13
2,32,0,2
2,30,87,13
2,30,0,434
2,30,96,16
2,30,0,2
2,30,93,13
2,30,0,2
2,32,90,13
2,32,0,434
2,32,84,16
2,32,0,2
2,34,91,13
2,34,0,2
2,25,95,13
2,25,0,449
2,32,81,1
2,32,0,2
2,32,91,13
2,32,0,2
2,34,90,13
2,34,0,449
2,32,87,1
2,32,0,2
2,32,87,13
2,32,0,2
2,30,87,13
2,30,0,434
2,30,96,16
2,30,0,2
2,30,93,13
2,30,0,2
2,32,90,13
2,32,0,434
2,32,84,16
2,32,0,2
2,32,91,13
2,32,0,2
2,34,90,13
2,34,0,449
2,32,81,1
2,32,0,2
2,32,91,13
2,32,0,2
2,32,90,13
2,32,0,449
2,34,87,1
2,34,0,2
2,32,87,13
2,32,0,2
2,30,87,13
2,30,0,434
2,30,96,16
2,30,0,2
2,32,93,13
2,32,0,2
2,25,95,13
2,25,0,434
2,25,84,16
2,25,0,2
2,25,91,13
2,25,0,2
2,27,95,13
2,27,0,449
2,27,81,1
2,27,0,2
2,27,91,13
2,27,0,2
2,30,90,13
2,30,0,449
2,30,87,1
2,30,0,2
2,32,87,13
2,32,0,2
2,34,87,13
2,34,0,237
2,32,87,4
2,30,96,209
2,30,0,2
2,32,0,0
2,30,93,13
2,30,0,2
2,30,90,13
2,30,0,447
2,25,84,3
2,25,0,2
2,25,91,13
2,25,0,2
2,30,90,13
2,30,0,447
2,27,99,33
2,27,0,473
2,36,95,7
2,36,0,465
2,31,95,15
2,31,0,474
2,32,89,6
2,34,93,360
2,32,0,1
2,34,0,118
2,27,97,1
2,27,0,474
2,36,93,6
2,36,0,478
2,31,95,2
2,31,0,474
2,32,92,6
2,32,0,359
2,32,97,1
2,32,0,1
2,25,95,119
2,25,0,449
2,32,81,1
2,32,0,2
2,32,91,13
2,32,0,2
2,34,90,13
2,34,0,449
2,32,87,1
2,32,0,2
2,32,87,13
2,32,0,2
2,30,87,13
2,30,0,434
2,30,96,16
2,30,0,2
2,30,93,13
2,30,0,2
2,32,90,13
2,32,0,434
2,32,84,16
2,32,0,2
2,34,91,13
2,34,0,2
2,25,95,13
2,25,0,449
2,32,81,1
2,32,0,2
2,32,91,13
2,32,0,2
2,34,90,13
2,34,0,449
2,32,87,1
2,32,0,2
2,32,87,13
2,32,0,2
2,30,87,13
2,30,0,434
2,30,96,16
2,30,0,2
2,30,93,13
2,30,0,2
2,32,90,13
2,32,0,434
2,32,84,16
2,32,0,2
2,32,91,13
2,32,0,2
2,34,90,13
2,34,0,449
2,32,81,1
2,32,0,2
2,32,91,13
2,32,0,2
2,32,90,13
2,32,0,449
2,34,87,1
2,34,0,2
2,32,87,13
2,32,0,2
2,30,87,13
2,30,0,434
2,30,96,16
2,30,0,2
2,32,93,13
2,32,0,2
2,25,95,13
2,25,0,434
2,25,84,16
2,25,0,2
2,25,91,13
2,25,0,2
2,27,95,13
2,27,0,449
2,27,81,1
2,27,0,2
2,27,91,13
2,27,0,2
2,30,90,13
2,30,0,449
2,30,87,1
2,30,0,2
2,32,87,13
2,32,0,2
2,34,87,13
2,34,0,237
2,32,87,4
2,30,96,209
2,30,0,2
2,32,0,0
2,30,93,13
2,30,0,2
2,30,90,13
2,30,0,447
2,25,84,3
2,25,0,2
2,25,91,13
2,25,0,2
2,30,90,13
2,30,0,447
2,25,99,33
2,25,0,473
2,34,95,7
2,34,0,465
2,29,95,15
2,29,0,474
2,30,89,6
2,34,93,360
2,30,0,1
2,34,0,118
2,27,97,1
2,27,0,474
2,36,93,6
2,36,0,478
2,31,95,2
2,31,0,474
2,32,92,6
2,34,97,360
2,32,0,1
2,34,0,117
2,27,97,2
2,27,0,474
2,36,93,6
2,36,0,478
2,31,95,2
2,31,0,474
2,32,92,6
2,34,97,360
2,32,0,1
2,34,0,117
2,27,97,2
2,27,0,4
3,56,82,4884
3,61,83,0
3,65,81,0
3,65,0,479
3,61,0,0
3,56,0,0
3,58,83,1
3,61,68,0
3,65,68,0
3,65,0,479
3,61,0,0
3,58,0,0
3,56,81,1
3,60,81,0
3,65,80,0
3,65,0,479
3,60,0,0
3,56,0,0
3,58,81,1
3,61,81,0
3,66,78,0
3,66,0,479
3,61,0,0
3,58,0,0
3,56,82,1
3,61,83,0
3,65,81,0
3,65,0,479
3,61,0,0
3,56,0,0
3,58,83,1
3,61,68,0
3,65,68,0
3,65,0,479
3,61,0,0
3,58,0,0
3,56,81,1
3,60,81,0
3,65,80,0
3,65,0,479
3,60,0,0
3,56,0,0
3,58,81,1
3,61,81,0
3,66,78,0
3,66,0,479
3,61,0,0
3,58,0,0
3,56,82,0
3,61,83,0
3,65,81,0
3,65,0,389
3,61,0,0
3,56,0,0
3,58,81,1
3,61,75,0
3,65,80,0
3,65,0,479
3,61,0,0
3,58,0,0
3,58,81,1
3,61,81,0
3,66,80,0
3,66,0,479
3,61,0,0
3,58,0,0
3,61,81,1
3,63,81,0
3,68,78,0
3,61,0,239
3,60,81,1
3,60,0,239
3,68,0,0
3,63,0,0
3,56,82,1
3,61,83,0
3,65,81,0
3,65,0,479
3,61,0,0
3,56,0,0
3,58,81,1
3,61,75,0
3,65,80,0
3,65,0,479
3,61,0,0
3,58,0,0
3,58,81,1
3,61,81,0
3,66,80,0
3,66,0,479
3,61,0,0
3,58,0,0
3,61,81,1
3,63,81,0
3,68,78,0
3,61,0,239
3,60,81,1
3,60,0,239
3,68,0,0
3,63,0,0
3,58,89,1
3,61,88,0
3,65,89,0
3,65,0,479
3,61,0,0
3,58,0,0
3,56,89,1
3,60,88,0
3,63,88,0
3,63,0,479
3,60,0,0
3,56,0,0
3,54,89,1
3,58,89,0
3,61,89,0
3,61,0,479
3,58,0,0
3,54,0,0
3,53,89,1
3,56,89,0
3,61,89,0
3,61,0,93
3,56,0,0
3,53,0,0
3,55,89,1
3,58,90,0
3,63,89,0
3,63,0,479
3,55,0,0
3,61,90,1
3,66,89,0
3,66,0,479
3,65,89,1
3,65,0,239
3,61,0,0
3,58,0,0
3,56,89,1
3,60,89,0
3,63,89,0
3,63,0,239
3,60,0,0
3,54,89,1
3,61,89,0
3,56,0,239
3,58,88,1
3,58,0,81
3,60,88,1
3,60,0,239
3,58,88,1
3,58,0,6
3,61,0,0
3,54,0,0
3,56,82,1
3,61,83,0
3,65,81,0
3,65,0,479
3,61,0,0
3,56,0,0
3,58,83,1
3,61,68,0
3,65,68,0
3,65,0,479
3,61,0,0
3,58,0,0
3,56,81,1
3,60,81,0
3,65,80,0
3,65,0,479
3,60,0,0
3,56,0,0
3,58,81,1
3,61,81,0
3,66,78,0
3,66,0,479
3,61,0,0
3,58,0,0
3,56,82,1
3,61,83,0
3,65,81,0
3,65,0,184
3,61,0,0
3,56,0,0
3,58,81,1
3,61,75,0
3,65,80,0
3,65,0,479
3,61,0,0
3,58,0,0
3,58,81,1
3,61,81,0
3,66,80,0
3,66,0,479
3,61,0,0
3,58,0,0
3,61,81,1
3,63,81,0
3,68,78,0
3,61,0,239
3,60,81,1
3,60,0,239
3,68,0,0
3,63,0,0
3,56,82,1
3,61,83,0
3,65,81,0
3,65,0,479
3,61,0,0
3,56,0,0
3,58,81,1
3,61,75,0
3,65,80,0
3,65,0,479
3,61,0,0
3,58,0,0
3,58,81,1
3,61,81,0
3,66,80,0
3,66,0,479
3,61,0,0
3,58,0,0
3,61,81,1
3,63,81,0
3,68,78,0
3,61,0,239
3,60,81,1
3,60,0,239
3,68,0,0
3,63,0,0
3,58,89,1
3,61,88,0
3,65,89,0
3,65,0,479
3,61,0,0
3,58,0,0
3,56,89,1
3,60,88,0
3,63,88,0
3,63,0,479
3,60,0,0
3,56,0,0
3,54,89,1
3,58,89,0
3,61,89,0
3,61,0,479
3,58,0,0
3,54,0,0
3,53,89,1
3,56,89,0
3,61,89,0
3,61,0,479
3,56,0,0
3,53,0,0
3,55,89,1
3,58,90,0
3,63,89,0
3,63,0,479
3,55,0,0
3,61,90,1
3,66,89,0
3,66,0,479
3,65,89,1
3,65,0,239
3,61,0,0
3,58,0,0
3,56,89,1
3,60,89,0
3,63,89,0
3,63,0,239
3,60,0,0
3,54,89,1
3,61,89,0
3,56,0,239
3,58,88,1
3,58,0,132
3,60,88,1
3,60,0,81
3,58,88,1
3,58,0,127
3,61,0,0
3,54,0,0
3,58,82,1
3,63,83,0
3,67,81,0
3,67,0,357
3,63,0,0
3,58,0,0
3,60,83,1
3,63,68,0
3,67,68,0
3,67,0,479
3,63,0,0
3,60,0,0
3,58,81,1
3,62,81,0
3,67,80,0
3,67,0,479
3,62,0,0
3,58,0,0
3,60,81,1
3,63,81,0
3,68,78,0
3,68,0,479
3,63,0,0
3,60,0,0
3,58,82,1
3,63,83,0
3,67,81,0
3,67,0,479
3,63,0,0
3,58,0,0
3,60,83,1
3,63,68,0
3,67,68,0
3,67,0,479
3,63,0,0
3,60,0,0
3,58,81,1
3,62,81,0
3,67,80,0
3,67,0,479
3,62,0,0
3,58,0,0
3,60,81,1
3,63,81,0
3,68,78,0
3,68,0,479
3,63,0,0
3,60,0,0
3,56,82,1
3,61,83,0
3,65,81,0
3,65,0,479
3,61,0,0
3,56,0,0
3,58,81,1
3,61,75,0
3,65,80,0
3,65,0,479
3,61,0,0
3,58,0,0
3,58,81,1
3,61,81,0
3,66,80,0
3,66,0,479
3,61,0,0
3,58,0,0
3,61,81,1
3,63,81,0
3,68,78,0
3,61,0,239
3,60,81,1
3,60,0,239
3,68,0,0
3,63,0,0
3,56,82,1
3,61,83,0
3,65,81,0
3,65,0,479
3,61,0,0
3,56,0,0
3,58,81,1
3,61,75,0
3,65,80,0
3,65,0,479
3,61,0,0
3,58,0,0
3,58,81,1
3,61,81,0
3,66,80,0
3,66,0,479
3,61,0,0
3,58,0,0
3,61,81,1
3,63,81,0
3,68,78,0
3,61,0,239
3,60,81,1
3,60,0,239
3,68,0,0
3,63,0,0
3,58,89,1
3,61,88,0
3,65,89,0
3,65,0,479
3,61,0,0
3,58,0,0
3,56,89,1
3,60,88,0
3,63,88,0
3,63,0,479
3,60,0,0
3,56,0,0
3,54,89,1
3,58,89,0
3,61,89,0
3,61,0,479
3,58,0,0
3,54,0,0
3,53,89,1
3,56,89,0
3,61,89,0
3,61,0,479
3,56,0,0
3,53,0,0
3,55,89,1
3,58,90,0
3,63,89,0
3,63,0,479
3,55,0,0
3,61,90,1
3,66,89,0
3,66,0,479
3,65,89,1
3,65,0,239
3,61,0,0
3,58,0,0
3,56,89,1
3,60,89,0
3,63,89,0
3,63,0,239
3,60,0,0
3,54,89,1
3,61,89,0
3,56,0,239
3,58,88,1
3,58,0,239
3,60,88,1
3,60,0,239
3,58,88,1
3,58,0,239
3,61,0,0
3,54,0,0
3,56,82,1
3,61,83,0
3,65,81,0
3,65,0,479
3,61,0,0
3,56,0,0
3,58,83,1
3,61,68,0
3,65,68,0
3,65,0,479
3,61,0,0
3,58,0,0
3,56,81,1
3,60,81,0
3,65,80,0
3,65,0,479
3,60,0,0
3,56,0,0
3,58,81,1
3,61,81,0
3,66,78,0
3,66,0,479
3,61,0,0
3,58,0,0
3,58,82,1
3,63,83,0
3,67,81,0
3,67,0,479
3,63,0,0
3,58,0,0
3,60,83,1
3,63,68,0
3,67,68,0
3,67,0,479
3,63,0,0
3,60,0,0
3,58,81,1
3,62,81,0
3,67,80,0
3,67,0,479
3,62,0,0
3,58,0,0
3,60,81,1
3,63,81,0
3,68,78,0
3,68,0,479
3,63,0,0
3,60,0,0
3,58,82,1
3,63,83,0
3,67,81,0
3,67,0,479
3,63,0,0
3,58,0,0
3,60,83,1
3,63,68,0
3,67,68,0
3,67,0,479
3,63,0,0
3,60,0,0
3,58,81,1
3,62,81,0
3,67,80,0
3,67,0,479
3,62,0,0
3,58,0,0
3,60,81,1
3,63,81,0
3,68,78,0
3,68,0,479
3,63,0,0
3,60,0,0
3,58,82,1
3,63,83,0
3,67,81,0
3,67,0,9
3,63,0,0
3,58,0,0
4,65,101,8663
4,65,0,11
4,65,118,20
4,65,0,21
4,68,108,4
4,68,0,11
4,68,108,9
4,68,0,46
4,65,106,2
4,65,0,27
4,68,111,2
4,68,0,46
4,65,99,105
4,65,0,10
4,65,118,20
4,65,0,22
4,66,108,6
4,66,0,21
4,68,103,2
4,68,0,26
4,61,89,3
4,61,0,7
4,65,104,368
4,65,0,12
4,66,103,18
4,66,0,23
4,68,111,8
4,68,0,26
4,61,78,3
4,61,0,9
4,68,91,20
4,68,0,9
4,68,108,18
4,68,0,21
4,68,114,11
4,68,0,19
4,68,111,9
4,68,0,17
4,68,108,13
4,68,0,57
4,68,101,13
4,68,0,10
4,68,114,18
4,68,0,12
4,68,117,18
4,68,0,26
4,70,120,6
4,70,0,24
4,72,104,4
4,72,0,17
4,72,114,13
4,72,0,23
4,68,88,0
4,68,0,23
4,65,104,428
4,65,0,10
4,65,112,19
4,65,0,23
4,68,108,8
4,68,0,11
4,68,103,10
4,68,0,40
4,65,99,6
4,65,0,23
4,68,106,6
4,68,0,52
4,73,114,101
4,73,0,18
4,73,108,11
4,73,0,17
4,72,112,11
4,72,0,16
4,72,112,0
4,72,0,40
4,68,97,9
4,68,0,24
4,65,101,367
4,65,0,18
4,66,105,11
4,66,0,24
4,68,114,6
4,68,0,28
4,61,85,3
4,61,0,12
4,68,90,18
4,68,0,18
4,68,99,11
4,68,0,18
4,68,114,12
4,68,0,21
4,68,108,8
4,68,0,17
4,68,111,14
4,68,0,57
4,68,103,4
4,68,0,12
4,68,105,17
4,68,0,12
4,68,114,17
4,68,0,24
4,70,111,8
4,70,0,22
4,72,104,6
4,72,0,16
4,72,114,14
4,72,0,22
4,68,89,1
4,68,0,23
