track,note,velocity,time
1.0,36.0,48.0,1888.0
1.0,64.0,54.0,0.0
1.0,55.0,49.0,2.0
1.0,48.0,47.0,3.0
1.0,60.0,48.0,0.0
1.0,64.0,59.0,113.0
1.0,41.0,61.0,1.0
1.0,57.0,41.0,4.0
1.0,53.0,41.0,1.0
1.0,60.0,56.0,0.0
1.0,60.0,54.0,232.0
1.0,55.0,46.0,1.0
1.0,64.0,53.0,0.0
1.0,36.0,50.0,2.0
1.0,48.0,53.0,1.0
1.0,64.0,51.0,94.0
1.0,53.0,46.0,2.0
1.0,41.0,55.0,1.0
1.0,57.0,53.0,2.0
1.0,60.0,54.0,1.0
1.0,64.0,45.0,177.0
1.0,60.0,51.0,4.0
1.0,55.0,43.0,2.0
1.0,48.0,56.0,3.0
1.0,36.0,46.0,1.0
1.0,64.0,45.0,129.0
1.0,41.0,54.0,1.0
1.0,53.0,30.0,5.0
1.0,57.0,46.0,0.0
1.0,60.0,48.0,0.0
1.0,48.0,54.0,2.0
1.0,64.0,26.0,1.0
1.0,36.0,46.0,3.0
1.0,55.0,56.0,1.0
1.0,60.0,54.0,0.0
1.0,64.0,45.0,280.0
1.0,60.0,49.0,128.0
1.0,41.0,55.0,0.0
1.0,57.0,38.0,2.0
1.0,64.0,41.0,0.0
1.0,53.0,40.0,2.0
1.0,40.0,37.0,3.0
1.0,52.0,46.0,0.0
1.0,59.0,44.0,2.0
1.0,64.0,49.0,2.0
1.0,56.0,30.0,1.0
1.0,62.0,38.0,1514.0
1.0,48.0,49.0,21.0
1.0,64.0,48.0,3.0
1.0,55.0,27.0,5.0
1.0,60.0,54.0,1.0
1.0,41.0,46.0,201.0
1.0,64.0,37.0,1.0
1.0,60.0,46.0,3.0
1.0,53.0,26.0,2.0
1.0,57.0,46.0,1.0
1.0,48.0,55.0,180.0
1.0,55.0,38.0,4.0
1.0,60.0,46.0,1.0
1.0,64.0,50.0,0.0
1.0,64.0,31.0,144.0
1.0,41.0,48.0,2.0
1.0,60.0,46.0,0.0
1.0,53.0,31.0,2.0
1.0,57.0,45.0,0.0
1.0,64.0,50.0,226.0
1.0,40.0,40.0,7.0
1.0,52.0,45.0,1.0
1.0,59.0,46.0,1.0
1.0,56.0,30.0,1.0
1.0,62.0,44.0,1531.0
1.0,45.0,46.0,315.0
1.0,64.0,37.0,0.0
1.0,67.0,29.0,2.0
1.0,57.0,23.0,3.0
1.0,60.0,46.0,1.0
1.0,57.0,44.0,42.0
1.0,50.0,31.0,3.0
1.0,62.0,50.0,1.0
1.0,66.0,39.0,0.0
1.0,38.0,27.0,5.0
1.0,43.0,43.0,4.0
1.0,67.0,49.0,6.0
1.0,59.0,58.0,1.0
1.0,64.0,33.0,1492.0
1.0,52.0,48.0,9.0
1.0,64.0,37.0,35.0
1.0,60.0,49.0,2.0
1.0,45.0,45.0,3.0
1.0,57.0,48.0,3.0
1.0,50.0,50.0,98.0
1.0,66.0,44.0,1.0
1.0,57.0,35.0,1.0
1.0,62.0,50.0,0.0
1.0,59.0,27.0,171.0
1.0,67.0,45.0,0.0
1.0,43.0,50.0,1.0
1.0,62.0,48.0,2.0
1.0,71.0,39.0,263.0
1.0,64.0,45.0,2.0
1.0,52.0,59.0,2.0
1.0,68.0,34.0,2.0
1.0,45.0,48.0,129.0
1.0,57.0,36.0,2.0
1.0,60.0,48.0,4.0
1.0,64.0,46.0,1.0
1.0,67.0,11.0,15.0
1.0,57.0,31.0,471.0
1.0,66.0,33.0,0.0
1.0,50.0,49.0,1.0
1.0,62.0,51.0,2.0
1.0,62.0,46.0,31.0
1.0,67.0,44.0,0.0
1.0,59.0,34.0,1.0
1.0,43.0,35.0,2.0
1.0,64.0,32.0,33.0
1.0,52.0,38.0,0.0
1.0,68.0,49.0,7.0
1.0,45.0,45.0,204.0
1.0,64.0,30.0,3.0
1.0,67.0,37.0,2.0
1.0,60.0,36.0,1.0
1.0,57.0,26.0,1.0
1.0,57.0,31.0,177.0
1.0,66.0,36.0,0.0
1.0,50.0,49.0,1.0
1.0,62.0,40.0,4.0
1.0,43.0,54.0,144.0
1.0,59.0,31.0,1.0
1.0,62.0,46.0,2.0
1.0,67.0,48.0,0.0
1.0,59.0,21.0,247.0
1.0,52.0,49.0,3.0
1.0,64.0,45.0,1.0
1.0,62.0,40.0,1.0
1.0,68.0,29.0,1.0
1.0,48.0,41.0,5.0
1.0,55.0,43.0,1.0
1.0,36.0,37.0,2.0
1.0,60.0,58.0,1.0
1.0,62.0,51.0,0.0
1.0,64.0,39.0,2.0
1.0,41.0,44.0,160.0
1.0,53.0,27.0,6.0
1.0,57.0,33.0,0.0
1.0,64.0,28.0,1.0
1.0,60.0,46.0,5.0
1.0,64.0,46.0,335.0
1.0,36.0,40.0,2.0
1.0,48.0,40.0,1.0
1.0,55.0,33.0,4.0
1.0,60.0,49.0,1.0
1.0,41.0,46.0,112.0
1.0,64.0,40.0,0.0
1.0,53.0,31.0,4.0
1.0,57.0,34.0,0.0
1.0,60.0,49.0,2.0
1.0,59.0,45.0,9.0
1.0,68.0,44.0,3.0
1.0,64.0,51.0,4.0
1.0,52.0,48.0,7.0
1.0,40.0,41.0,1.0
1.0,56.0,29.0,281.0
1.0,40.0,26.0,1.0
1.0,52.0,29.0,2.0
1.0,59.0,48.0,3.0
1.0,64.0,26.0,1.0
1.0,62.0,46.0,4.0
1.0,60.0,43.0,72.0
1.0,64.0,48.0,0.0
1.0,48.0,50.0,3.0
1.0,55.0,46.0,0.0
1.0,41.0,53.0,151.0
1.0,64.0,43.0,2.0
1.0,57.0,38.0,2.0
1.0,60.0,46.0,1.0
1.0,53.0,34.0,1.0
1.0,55.0,31.0,219.0
1.0,36.0,44.0,1.0
1.0,62.0,49.0,0.0
1.0,48.0,37.0,1.0
1.0,64.0,39.0,2.0
1.0,53.0,29.0,249.0
1.0,64.0,39.0,1.0
1.0,41.0,50.0,2.0
1.0,57.0,46.0,0.0
1.0,60.0,50.0,0.0
1.0,56.0,35.0,261.0
1.0,64.0,46.0,0.0
1.0,52.0,48.0,3.0
1.0,40.0,39.0,2.0
1.0,59.0,49.0,0.0
1.0,62.0,44.0,1525.0
1.0,45.0,46.0,250.0
1.0,64.0,37.0,0.0
1.0,57.0,36.0,3.0
1.0,60.0,40.0,0.0
1.0,67.0,39.0,3.0
1.0,66.0,48.0,210.0
1.0,57.0,38.0,3.0
1.0,62.0,54.0,2.0
1.0,38.0,32.0,2.0
1.0,50.0,33.0,2.0
1.0,59.0,31.0,165.0
1.0,67.0,46.0,1.0
1.0,62.0,46.0,2.0
1.0,43.0,45.0,4.0
1.0,59.0,25.0,190.0
1.0,40.0,27.0,2.0
1.0,52.0,32.0,0.0
1.0,64.0,40.0,1.0
1.0,68.0,33.0,0.0
1.0,62.0,39.0,4.0
1.0,55.0,50.0,64.0
1.0,60.0,56.0,1.0
1.0,64.0,56.0,0.0
1.0,36.0,50.0,3.0
1.0,48.0,45.0,0.0
1.0,57.0,55.0,140.0
1.0,33.0,51.0,3.0
1.0,45.0,41.0,0.0
1.0,57.0,46.0,186.0
1.0,45.0,48.0,1.0
1.0,66.0,45.0,1.0
1.0,33.0,48.0,1.0
1.0,62.0,56.0,0.0
1.0,43.0,53.0,24.0
1.0,62.0,59.0,1.0
1.0,69.0,56.0,0.0
1.0,59.0,49.0,1.0
1.0,40.0,53.0,75.0
1.0,64.0,46.0,0.0
1.0,67.0,53.0,0.0
1.0,59.0,39.0,1.0
1.0,52.0,53.0,3.0
1.0,60.0,48.0,60.0
1.0,33.0,46.0,2.0
1.0,67.0,55.0,0.0
1.0,45.0,39.0,1.0
1.0,57.0,45.0,2.0
1.0,64.0,48.0,0.0
1.0,33.0,51.0,264.0
1.0,45.0,45.0,0.0
1.0,57.0,46.0,4.0
1.0,62.0,56.0,0.0
1.0,66.0,48.0,0.0
1.0,62.0,54.0,157.0
1.0,43.0,53.0,5.0
1.0,69.0,64.0,1.0
1.0,59.0,48.0,1.0
1.0,55.0,45.0,2.0
1.0,40.0,49.0,251.0
1.0,52.0,46.0,1.0
1.0,68.0,44.0,0.0
1.0,59.0,31.0,1.0
1.0,62.0,51.0,2.0
1.0,64.0,58.0,1.0
1.0,60.0,40.0,7.0
1.0,67.0,44.0,3.0
1.0,57.0,41.0,1.0
1.0,64.0,55.0,0.0
1.0,33.0,36.0,1.0
1.0,45.0,40.0,0.0
1.0,33.0,51.0,236.0
1.0,66.0,50.0,0.0
1.0,57.0,46.0,2.0
1.0,62.0,54.0,0.0
1.0,45.0,38.0,1.0
1.0,43.0,56.0,237.0
1.0,69.0,56.0,1.0
1.0,59.0,49.0,1.0
1.0,62.0,59.0,2.0
1.0,40.0,51.0,92.0
1.0,52.0,46.0,0.0
1.0,62.0,41.0,1.0
1.0,59.0,40.0,1.0
1.0,68.0,43.0,0.0
1.0,64.0,46.0,1.0
1.0,55.0,43.0,23.0
1.0,60.0,54.0,3.0
1.0,64.0,54.0,0.0
1.0,36.0,44.0,5.0
1.0,48.0,35.0,1.0
1.0,64.0,36.0,240.0
1.0,41.0,50.0,3.0
1.0,57.0,38.0,2.0
1.0,60.0,55.0,2.0
1.0,53.0,37.0,2.0
1.0,64.0,48.0,145.0
1.0,60.0,53.0,2.0
1.0,55.0,46.0,1.0
1.0,36.0,49.0,2.0
1.0,48.0,35.0,5.0
1.0,64.0,26.0,82.0
1.0,53.0,27.0,11.0
1.0,57.0,45.0,4.0
1.0,60.0,58.0,0.0
1.0,41.0,49.0,2.0
1.0,64.0,45.0,124.0
1.0,36.0,44.0,221.0
1.0,64.0,39.0,2.0
1.0,62.0,53.0,1.0
1.0,60.0,49.0,2.0
1.0,48.0,29.0,1.0
1.0,55.0,35.0,2.0
1.0,57.0,35.0,117.0
1.0,64.0,44.0,0.0
1.0,60.0,48.0,1.0
1.0,41.0,50.0,3.0
1.0,55.0,46.0,86.0
1.0,60.0,45.0,1.0
1.0,64.0,50.0,1.0
1.0,48.0,43.0,10.0
1.0,36.0,40.0,5.0
1.0,64.0,39.0,52.0
1.0,60.0,53.0,1.0
1.0,41.0,48.0,1.0
1.0,57.0,40.0,0.0
1.0,36.0,34.0,5.0
1.0,48.0,45.0,1.0
1.0,55.0,50.0,0.0
2.0,72.0,38.0,61793.0
2.0,69.0,31.0,1.0
2.0,76.0,32.0,0.0
2.0,65.0,48.0,778.0
2.0,67.0,43.0,125.0
2.0,76.0,41.0,1.0
2.0,74.0,46.0,4.0
2.0,72.0,32.0,21.0
2.0,72.0,38.0,283.0
2.0,81.0,46.0,0.0
2.0,80.0,44.0,296.0
2.0,71.0,26.0,8.0
2.0,74.0,40.0,2.0
2.0,79.0,34.0,8.0
2.0,74.0,33.0,3.0
2.0,76.0,35.0,0.0
2.0,78.0,40.0,147.0
2.0,74.0,33.0,1.0
2.0,69.0,48.0,1140.0
2.0,69.0,42.0,209.0
2.0,71.0,44.0,0.0
2.0,74.0,44.0,0.0
2.0,74.0,50.0,409.0
2.0,71.0,42.0,7.0
2.0,80.0,47.0,0.0
2.0,81.0,49.0,12.0
2.0,76.0,45.0,85.0
2.0,67.0,36.0,2.0
2.0,60.0,51.0,1.0
2.0,74.0,56.0,2.0
2.0,72.0,63.0,730.0
2.0,57.0,54.0,14.0
2.0,69.0,29.0,179.0
2.0,78.0,40.0,0.0
2.0,74.0,54.0,4.0
2.0,62.0,46.0,12.0
2.0,71.0,35.0,0.0
2.0,81.0,41.0,1.0
2.0,74.0,53.0,1.0
2.0,79.0,50.0,96.0
2.0,76.0,54.0,8.0
2.0,79.0,35.0,45.0
2.0,72.0,40.0,4.0
2.0,64.0,42.0,1.0
2.0,69.0,27.0,1.0
2.0,76.0,48.0,2.0
2.0,57.0,35.0,2.0
2.0,74.0,45.0,80.0
2.0,78.0,40.0,1.0
2.0,62.0,54.0,0.0
2.0,81.0,40.0,769.0
2.0,81.0,48.0,37.0
2.0,71.0,41.0,1.0
2.0,74.0,50.0,0.0
2.0,71.0,37.0,7.0
2.0,80.0,45.0,4.0
2.0,76.0,51.0,1.0
2.0,74.0,50.0,1.0
2.0,69.0,46.0,2.0
2.0,76.0,30.0,0.0
2.0,72.0,63.0,2.0
2.0,79.0,54.0,729.0
2.0,74.0,42.0,73.0
2.0,78.0,50.0,0.0
2.0,81.0,53.0,28.0
2.0,71.0,34.0,2.0
2.0,74.0,36.0,29.0
2.0,76.0,58.0,10.0
2.0,71.0,42.0,3.0
2.0,80.0,40.0,7.0
2.0,67.0,35.0,79.0
2.0,76.0,45.0,0.0
2.0,72.0,48.0,2.0
2.0,69.0,36.0,1517.0
2.0,67.0,35.0,1487.0
2.0,69.0,50.0,1550.0
2.0,67.0,24.0,90.0
2.0,76.0,40.0,0.0
2.0,72.0,31.0,1521.0
2.0,69.0,33.0,9.0
2.0,76.0,42.0,53.0
2.0,67.0,36.0,5.0
2.0,69.0,35.0,1518.0
2.0,72.0,24.0,11.0
2.0,60.0,40.0,181.0
2.0,67.0,39.0,0.0
2.0,74.0,42.0,0.0
3.0,79.0,69.0,5663.0
3.0,72.0,87.0,105.0
3.0,79.0,66.0,1006.0
3.0,72.0,81.0,108.0
3.0,79.0,72.0,1148.0
3.0,72.0,90.0,106.0
3.0,79.0,72.0,1874.0
3.0,72.0,90.0,95.0
3.0,48.0,63.0,3148.0
3.0,55.0,63.0,94.0
3.0,60.0,44.0,104.0
3.0,62.0,74.0,38.0
3.0,67.0,72.0,0.0
3.0,67.0,66.0,18.0
3.0,64.0,84.0,8.0
3.0,53.0,65.0,108.0
3.0,60.0,65.0,0.0
3.0,69.0,69.0,0.0
3.0,60.0,54.0,69.0
3.0,64.0,40.0,110.0
3.0,67.0,69.0,46.0
3.0,69.0,74.0,13.0
3.0,60.0,61.0,79.0
3.0,72.0,87.0,30.0
3.0,64.0,63.0,372.0
3.0,62.0,63.0,2.0
3.0,67.0,63.0,0.0
3.0,48.0,63.0,1.0
3.0,55.0,60.0,189.0
3.0,60.0,55.0,196.0
3.0,53.0,46.0,139.0
3.0,72.0,70.0,179.0
3.0,65.0,72.0,50.0
3.0,67.0,87.0,65.0
3.0,69.0,63.0,76.0
3.0,72.0,63.0,17.0
3.0,77.0,70.0,65.0
3.0,84.0,65.0,55.0
3.0,52.0,63.0,150.0
3.0,59.0,63.0,0.0
3.0,56.0,49.0,1.0
3.0,64.0,58.0,1.0
3.0,62.0,58.0,2.0
3.0,52.0,41.0,60.0
3.0,56.0,44.0,23.0
3.0,59.0,59.0,40.0
3.0,64.0,63.0,39.0
3.0,50.0,56.0,2933.0
3.0,57.0,68.0,90.0
3.0,62.0,79.0,41.0
3.0,69.0,75.0,89.0
3.0,74.0,65.0,185.0
3.0,81.0,72.0,84.0
3.0,66.0,35.0,1.0
3.0,67.0,72.0,11.0
3.0,66.0,84.0,29.0
3.0,62.0,53.0,26.0
3.0,57.0,68.0,35.0
3.0,59.0,60.0,317.0
3.0,50.0,53.0,1931.0
3.0,57.0,65.0,89.0
3.0,62.0,72.0,100.0
3.0,69.0,71.0,97.0
3.0,74.0,61.0,67.0
3.0,81.0,66.0,310.0
3.0,79.0,64.0,125.0
3.0,74.0,53.0,678.0
3.0,45.0,61.0,2046.0
3.0,52.0,71.0,83.0
3.0,57.0,72.0,75.0
3.0,60.0,71.0,101.0
3.0,64.0,70.0,72.0
3.0,60.0,11.0,286.0
3.0,67.0,61.0,54.0
3.0,50.0,60.0,20.0
3.0,57.0,42.0,101.0
3.0,62.0,53.0,9.0
3.0,64.0,61.0,22.0
3.0,66.0,48.0,0.0
3.0,69.0,66.0,57.0
3.0,74.0,59.0,15.0
3.0,76.0,45.0,13.0
3.0,78.0,41.0,1.0
3.0,40.0,55.0,1527.0
3.0,56.0,56.0,46.0
3.0,59.0,63.0,26.0
3.0,47.0,20.0,9.0
3.0,64.0,70.0,28.0
3.0,52.0,40.0,2.0
3.0,71.0,63.0,196.0
3.0,76.0,64.0,15.0
3.0,83.0,65.0,161.0
3.0,50.0,43.0,1843.0
3.0,66.0,53.0,1.0
3.0,57.0,69.0,4.0
3.0,62.0,63.0,17.0
3.0,64.0,55.0,15.0
3.0,66.0,65.0,12.0
3.0,69.0,72.0,56.0
3.0,74.0,60.0,3.0
3.0,78.0,44.0,5.0
3.0,71.0,61.0,12.0
3.0,79.0,65.0,0.0
3.0,78.0,43.0,163.0
3.0,69.0,36.0,1.0
3.0,74.0,54.0,305.0
3.0,66.0,35.0,5.0
3.0,40.0,42.0,122.0
3.0,56.0,32.0,18.0
3.0,59.0,53.0,21.0
3.0,47.0,35.0,21.0
3.0,64.0,63.0,10.0
3.0,52.0,28.0,27.0
3.0,71.0,65.0,193.0
3.0,83.0,61.0,3.0
3.0,88.0,68.0,327.0
3.0,76.0,55.0,4.0
3.0,62.0,70.0,43067.0
3.0,64.0,81.0,1.0
3.0,67.0,75.0,0.0
3.0,36.0,65.0,24.0
3.0,48.0,41.0,377.0
3.0,60.0,64.0,46.0
3.0,67.0,79.0,16.0
3.0,64.0,92.0,81.0
3.0,48.0,32.0,11.0
3.0,60.0,68.0,156.0
3.0,64.0,65.0,0.0
3.0,57.0,65.0,1.0
3.0,41.0,60.0,8.0
3.0,65.0,32.0,277.0
3.0,76.0,72.0,84.0
3.0,72.0,72.0,63.0
3.0,69.0,44.0,103.0
3.0,36.0,63.0,344.0
3.0,64.0,81.0,3.0
3.0,62.0,75.0,1.0
3.0,67.0,71.0,2.0
3.0,57.0,43.0,356.0
3.0,64.0,46.0,1.0
3.0,41.0,51.0,1.0
3.0,60.0,60.0,1.0
3.0,48.0,59.0,95.0
3.0,53.0,65.0,67.0
3.0,57.0,76.0,7.0
3.0,60.0,68.0,3.0
3.0,64.0,84.0,59.0
3.0,65.0,55.0,122.0
3.0,69.0,66.0,79.0
3.0,76.0,84.0,1.0
3.0,72.0,79.0,0.0
3.0,64.0,63.0,31.0
3.0,67.0,63.0,1.0
3.0,62.0,64.0,1.0
3.0,36.0,60.0,1.0
3.0,48.0,34.0,61.0
3.0,60.0,60.0,13.0
3.0,67.0,71.0,89.0
3.0,62.0,61.0,261.0
3.0,60.0,70.0,69.0
3.0,57.0,64.0,27.0
3.0,64.0,72.0,0.0
3.0,41.0,38.0,15.0
3.0,48.0,38.0,57.0
3.0,53.0,33.0,3.0
3.0,65.0,56.0,61.0
3.0,76.0,74.0,63.0
3.0,72.0,74.0,44.0
3.0,62.0,61.0,503.0
3.0,55.0,56.0,1.0
3.0,64.0,61.0,1.0
3.0,36.0,46.0,5.0
3.0,41.0,46.0,538.0
3.0,76.0,63.0,3.0
3.0,69.0,65.0,6.0
3.0,72.0,68.0,22.0
3.0,69.0,74.0,83.0
3.0,65.0,65.0,4.0
3.0,64.0,66.0,149.0
3.0,60.0,66.0,135.0
3.0,57.0,63.0,129.0
3.0,36.0,68.0,350.0
3.0,62.0,68.0,0.0
3.0,64.0,66.0,2.0
3.0,48.0,63.0,1.0
3.0,60.0,72.0,0.0
3.0,55.0,64.0,1.0
4.0,76.0,60.0,8647.0
4.0,76.0,72.0,48.0
4.0,76.0,84.0,50.0
4.0,76.0,64.0,31.0
4.0,76.0,61.0,32.0
4.0,76.0,63.0,43.0
4.0,76.0,71.0,55.0
4.0,76.0,59.0,1249.0
4.0,76.0,63.0,53.0
4.0,76.0,70.0,54.0
4.0,76.0,60.0,38.0
4.0,76.0,56.0,48.0
4.0,76.0,59.0,53.0
4.0,76.0,70.0,54.0
4.0,74.0,58.0,36.0
4.0,74.0,72.0,38.0
4.0,72.0,64.0,168.0
4.0,72.0,50.0,516.0
4.0,74.0,56.0,97.0
4.0,76.0,68.0,88.0
4.0,74.0,53.0,94.0
4.0,76.0,59.0,86.0
4.0,74.0,53.0,95.0
4.0,76.0,66.0,86.0
4.0,74.0,43.0,89.0
4.0,76.0,63.0,87.0
4.0,74.0,50.0,91.0
4.0,76.0,59.0,89.0
4.0,74.0,39.0,88.0
4.0,76.0,33.0,91.0
4.0,74.0,63.0,246.0
4.0,76.0,71.0,104.0
4.0,74.0,65.0,197.0
4.0,72.0,53.0,366.0
4.0,74.0,49.0,84.0
4.0,69.0,44.0,83.0
4.0,72.0,59.0,107.0
4.0,76.0,46.0,181.0
4.0,76.0,66.0,52.0
4.0,76.0,71.0,44.0
4.0,76.0,64.0,31.0
4.0,76.0,50.0,37.0
4.0,76.0,63.0,40.0
4.0,76.0,72.0,44.0
4.0,76.0,75.0,772.0
4.0,76.0,60.0,53.0
4.0,76.0,61.0,55.0
4.0,76.0,58.0,34.0
4.0,76.0,59.0,37.0
4.0,76.0,55.0,48.0
4.0,76.0,71.0,46.0
4.0,74.0,59.0,12.0
4.0,74.0,65.0,42.0
4.0,72.0,63.0,171.0
4.0,72.0,54.0,296.0
4.0,74.0,63.0,92.0
4.0,76.0,69.0,93.0
4.0,74.0,41.0,105.0
4.0,76.0,60.0,74.0
4.0,74.0,51.0,65.0
4.0,76.0,56.0,69.0
4.0,74.0,50.0,129.0
4.0,76.0,44.0,171.0
4.0,74.0,55.0,90.0
4.0,76.0,70.0,92.0
4.0,74.0,60.0,89.0
4.0,76.0,66.0,80.0
4.0,74.0,53.0,84.0
4.0,76.0,60.0,83.0
4.0,74.0,49.0,143.0
4.0,76.0,59.0,613.0
4.0,74.0,59.0,439.0
4.0,72.0,60.0,106.0
4.0,74.0,53.0,83.0
4.0,69.0,60.0,88.0
4.0,79.0,64.0,326.0
4.0,76.0,63.0,102.0
4.0,72.0,63.0,73.0
4.0,71.0,54.0,259.0
4.0,67.0,60.0,122.0
4.0,67.0,43.0,39.0
4.0,69.0,63.0,0.0
4.0,78.0,75.0,248.0
4.0,76.0,61.0,436.0
4.0,74.0,66.0,100.0
4.0,74.0,63.0,42.0
4.0,74.0,53.0,36.0
4.0,74.0,50.0,31.0
4.0,74.0,64.0,41.0
4.0,72.0,63.0,189.0
4.0,71.0,54.0,279.0
4.0,69.0,63.0,92.0
4.0,71.0,63.0,111.0
4.0,72.0,43.0,768.0
4.0,74.0,63.0,86.0
4.0,76.0,64.0,103.0
4.0,76.0,63.0,25.0
4.0,76.0,63.0,36.0
4.0,76.0,53.0,46.0
4.0,76.0,74.0,54.0
4.0,74.0,60.0,251.0
4.0,72.0,59.0,241.0
4.0,71.0,46.0,97.0
4.0,71.0,65.0,45.0
4.0,72.0,53.0,113.0
4.0,72.0,56.0,30.0
4.0,78.0,74.0,249.0
4.0,76.0,60.0,427.0
4.0,74.0,58.0,101.0
4.0,74.0,60.0,44.0
4.0,74.0,32.0,57.0
4.0,74.0,59.0,40.0
4.0,74.0,72.0,50.0
4.0,74.0,43.0,47.0
4.0,74.0,54.0,43.0
4.0,74.0,61.0,46.0
4.0,76.0,64.0,139.0
4.0,76.0,75.0,164.0
4.0,79.0,64.0,272.0
4.0,81.0,66.0,273.0
4.0,79.0,65.0,211.0
4.0,76.0,54.0,79.0
4.0,76.0,56.0,50.0
4.0,76.0,79.0,65.0
4.0,74.0,64.0,1.0
4.0,72.0,56.0,235.0
4.0,71.0,55.0,110.0
4.0,71.0,65.0,34.0
4.0,72.0,61.0,169.0
4.0,78.0,63.0,400.0
4.0,76.0,63.0,112.0
4.0,74.0,59.0,115.0
4.0,74.0,60.0,46.0
4.0,74.0,53.0,62.0
4.0,74.0,48.0,54.0
4.0,74.0,64.0,67.0
4.0,72.0,63.0,3.0
4.0,71.0,53.0,298.0
4.0,69.0,59.0,95.0
4.0,71.0,58.0,115.0
4.0,72.0,60.0,557.0
4.0,74.0,64.0,113.0
4.0,76.0,63.0,6.0
4.0,76.0,61.0,49.0
4.0,76.0,53.0,37.0
4.0,76.0,45.0,52.0
4.0,76.0,65.0,66.0
4.0,74.0,58.0,4.0
4.0,72.0,56.0,284.0
4.0,71.0,53.0,107.0
4.0,71.0,59.0,38.0
4.0,72.0,61.0,209.0
4.0,78.0,60.0,150.0
4.0,76.0,72.0,253.0
4.0,74.0,60.0,241.0
4.0,74.0,54.0,50.0
4.0,74.0,51.0,56.0
4.0,74.0,46.0,45.0
4.0,74.0,63.0,61.0
4.0,71.0,49.0,237.0
4.0,74.0,51.0,91.0
4.0,74.0,55.0,43.0
4.0,74.0,59.0,51.0
4.0,76.0,60.0,20.0
4.0,76.0,60.0,37.0
4.0,76.0,53.0,841.0
4.0,76.0,75.0,45.0
4.0,76.0,81.0,45.0
4.0,76.0,72.0,29.0
4.0,76.0,53.0,46.0
4.0,76.0,59.0,43.0
4.0,76.0,69.0,56.0
4.0,76.0,44.0,841.0
4.0,76.0,63.0,48.0
4.0,76.0,72.0,47.0
4.0,76.0,69.0,42.0
4.0,76.0,70.0,45.0
4.0,76.0,54.0,47.0
4.0,76.0,71.0,47.0
4.0,74.0,60.0,198.0
4.0,74.0,66.0,44.0
4.0,72.0,54.0,159.0
4.0,72.0,55.0,442.0
4.0,74.0,63.0,87.0
4.0,76.0,64.0,76.0
4.0,74.0,53.0,101.0
4.0,76.0,54.0,0.0
4.0,74.0,49.0,96.0
4.0,76.0,64.0,75.0
4.0,74.0,35.0,1.0
4.0,76.0,59.0,82.0
4.0,74.0,33.0,161.0
4.0,76.0,50.0,9.0
4.0,74.0,36.0,104.0
4.0,76.0,60.0,99.0
4.0,74.0,50.0,169.0
4.0,74.0,59.0,670.0
4.0,76.0,63.0,111.0
4.0,74.0,63.0,217.0
4.0,72.0,63.0,125.0
4.0,74.0,63.0,98.0
4.0,72.0,63.0,93.0
4.0,76.0,63.0,92.0
4.0,76.0,70.0,45.0
4.0,76.0,87.0,50.0
4.0,76.0,65.0,25.0
4.0,76.0,43.0,41.0
4.0,76.0,63.0,33.0
4.0,76.0,76.0,45.0
4.0,76.0,53.0,819.0
4.0,76.0,63.0,38.0
4.0,76.0,81.0,50.0
4.0,76.0,71.0,40.0
4.0,76.0,65.0,49.0
4.0,76.0,48.0,39.0
4.0,76.0,76.0,32.0
4.0,74.0,58.0,28.0
4.0,74.0,68.0,28.0
4.0,72.0,61.0,169.0
4.0,72.0,53.0,335.0
4.0,74.0,63.0,92.0
4.0,76.0,75.0,1.0
4.0,74.0,48.0,126.0
4.0,76.0,63.0,83.0
4.0,74.0,63.0,69.0
4.0,76.0,63.0,14.0
4.0,74.0,41.0,175.0
4.0,76.0,55.0,0.0
4.0,74.0,55.0,80.0
4.0,76.0,69.0,6.0
4.0,74.0,46.0,115.0
4.0,76.0,61.0,86.0
4.0,74.0,63.0,68.0
4.0,76.0,70.0,64.0
4.0,74.0,61.0,153.0
4.0,76.0,70.0,835.0
4.0,74.0,70.0,22.0
4.0,72.0,70.0,292.0
4.0,74.0,53.0,130.0
4.0,69.0,54.0,144.0
4.0,72.0,60.0,103.0
4.0,69.0,55.0,101.0
4.0,79.0,61.0,380.0
4.0,76.0,58.0,13.0
4.0,76.0,79.0,44.0
4.0,76.0,60.0,59.0
4.0,76.0,69.0,49.0
4.0,74.0,61.0,114.0
4.0,74.0,66.0,42.0
4.0,74.0,63.0,721.0
4.0,71.0,60.0,67.0
4.0,74.0,63.0,14.0
4.0,74.0,63.0,42.0
4.0,74.0,44.0,52.0
4.0,74.0,53.0,49.0
4.0,74.0,64.0,48.0
4.0,74.0,59.0,46.0
4.0,74.0,53.0,64.0
4.0,74.0,54.0,50.0
4.0,76.0,65.0,11.0
4.0,76.0,60.0,764.0
4.0,79.0,48.0,121.0
4.0,81.0,69.0,9.0
4.0,84.0,72.0,141.0
4.0,84.0,74.0,50.0
4.0,84.0,72.0,45.0
4.0,81.0,68.0,3.0
4.0,84.0,74.0,0.0
4.0,81.0,63.0,0.0
4.0,84.0,63.0,356.0
4.0,81.0,63.0,110.0
4.0,84.0,65.0,114.0
4.0,86.0,64.0,118.0
4.0,86.0,75.0,40.0
4.0,74.0,65.0,494.0
4.0,72.0,58.0,107.0
4.0,76.0,72.0,160.0
4.0,79.0,68.0,153.0
4.0,76.0,63.0,327.0
4.0,74.0,68.0,104.0
4.0,76.0,75.0,114.0
4.0,79.0,65.0,5.0
4.0,76.0,60.0,1.0
4.0,74.0,63.0,120.0
4.0,76.0,70.0,5.0
4.0,76.0,76.0,367.0
4.0,79.0,75.0,270.0
4.0,81.0,72.0,255.0
4.0,79.0,70.0,247.0
4.0,76.0,61.0,49.0
4.0,76.0,66.0,34.0
4.0,76.0,76.0,49.0
4.0,74.0,64.0,8.0
4.0,72.0,69.0,280.0
4.0,71.0,59.0,93.0
4.0,71.0,69.0,50.0
4.0,72.0,65.0,162.0
4.0,78.0,75.0,203.0
4.0,76.0,72.0,290.0
4.0,74.0,70.0,244.0
4.0,74.0,70.0,60.0
4.0,74.0,53.0,95.0
4.0,74.0,63.0,67.0
4.0,74.0,75.0,82.0
4.0,72.0,70.0,237.0
4.0,71.0,64.0,268.0
4.0,69.0,61.0,106.0
4.0,71.0,65.0,3.0
4.0,72.0,70.0,374.0
4.0,74.0,64.0,0.0
4.0,76.0,70.0,12.0
4.0,76.0,71.0,45.0
4.0,76.0,55.0,67.0
4.0,76.0,56.0,61.0
4.0,76.0,72.0,72.0
4.0,76.0,64.0,72.0
4.0,76.0,54.0,76.0
4.0,79.0,54.0,135.0
4.0,76.0,64.0,0.0
4.0,74.0,50.0,201.0
4.0,76.0,60.0,48.0
4.0,79.0,72.0,786.0
4.0,76.0,71.0,3.0
4.0,74.0,64.0,123.0
4.0,74.0,63.0,52.0
4.0,74.0,55.0,44.0
4.0,74.0,41.0,43.0
4.0,74.0,50.0,52.0
4.0,74.0,51.0,38.0
4.0,74.0,63.0,83.0
4.0,74.0,50.0,53.0
4.0,74.0,63.0,54.0
4.0,75.0,60.0,103.0
4.0,76.0,72.0,99.0
4.0,74.0,63.0,447.0
4.0,76.0,69.0,107.0
4.0,79.0,65.0,79.0
4.0,76.0,69.0,111.0
4.0,76.0,63.0,980.0
4.0,76.0,68.0,51.0
4.0,76.0,59.0,34.0
4.0,76.0,61.0,55.0
4.0,74.0,63.0,861.0
4.0,72.0,59.0,92.0
4.0,74.0,53.0,99.0
4.0,74.0,69.0,46.0
4.0,72.0,63.0,115.0
4.0,67.0,50.0,1100.0
4.0,69.0,74.0,89.0
4.0,72.0,50.0,1125.0
4.0,74.0,65.0,73.0
4.0,76.0,72.0,7.0
4.0,79.0,66.0,111.0
4.0,76.0,72.0,78.0
4.0,72.0,51.0,945.0
4.0,74.0,63.0,80.0
4.0,76.0,72.0,20.0
4.0,79.0,63.0,0.0
4.0,76.0,72.0,7.0
4.0,74.0,51.0,911.0
4.0,72.0,64.0,1.0
4.0,74.0,71.0,0.0
4.0,74.0,71.0,50.0
4.0,72.0,63.0,115.0
4.0,67.0,63.0,1103.0
4.0,69.0,70.0,8.0
0.0,0.0,0.0,0.0
0.0,0.0,0.0,0.0
0.0,0.0,0.0,0.0
0.0,0.0,0.0,0.0
0.0,0.0,0.0,0.0
0.0,0.0,0.0,0.0
0.0,0.0,0.0,0.0
0.0,0.0,0.0,0.0
0.0,0.0,0.0,0.0
0.0,0.0,0.0,0.0
0.0,0.0,0.0,0.0
0.0,0.0,0.0,0.0
0.0,0.0,0.0,0.0
0.0,0.0,0.0,0.0
0.0,0.0,0.0,0.0
0.0,0.0,0.0,0.0
0.0,0.0,0.0,0.0
0.0,0.0,0.0,0.0
0.0,0.0,0.0,0.0
0.0,0.0,0.0,0.0
0.0,0.0,0.0,0.0
0.0,0.0,0.0,0.0
0.0,0.0,0.0,0.0
0.0,0.0,0.0,0.0
0.0,0.0,0.0,0.0
0.0,0.0,0.0,0.0
0.0,0.0,0.0,0.0
0.0,0.0,0.0,0.0
0.0,0.0,0.0,0.0
0.0,0.0,0.0,0.0
0.0,0.0,0.0,0.0
0.0,0.0,0.0,0.0
0.0,0.0,0.0,0.0
0.0,0.0,0.0,0.0
0.0,0.0,0.0,0.0
0.0,0.0,0.0,0.0
0.0,0.0,0.0,0.0
0.0,0.0,0.0,0.0
0.0,0.0,0.0,0.0
