track,note,velocity,time
3,70,80,3245
3,58,60,2
3,73,66,0
3,61,66,0
3,54,42,0
3,42,60,3
3,42,0,91
3,61,0,3
3,58,0,12
3,54,0,10
3,49,66,20
3,58,87,478
3,58,0,852
3,70,0,35
3,73,0,53
3,49,0,7
3,66,66,5
3,77,78,0
3,70,60,0
3,51,84,8
3,66,0,177
3,77,0,35
3,70,0,0
3,58,60,165
3,70,78,240
3,75,78,0
3,66,78,0
3,66,0,945
3,70,0,23
3,75,0,30
3,51,0,55
3,58,0,7
3,73,80,85
3,47,75,8
3,54,75,0
3,63,75,0
3,54,0,218
3,63,0,47
3,59,66,73
3,71,87,247
3,73,0,18
3,59,0,122
3,54,56,93
3,71,0,425
3,75,76,57
3,47,0,408
3,54,0,32
3,49,70,18
3,61,70,0
3,70,86,2
3,75,0,8
3,61,0,288
3,56,70,67
3,56,0,310
3,61,40,175
3,61,0,253
3,70,0,127
3,68,86,100
3,68,0,360
3,49,0,83
3,42,70,23
3,70,80,0
3,49,72,195
3,58,84,480
3,58,0,112
3,70,0,283
3,66,50,85
3,58,50,0
3,66,0,85
3,58,0,37
3,68,70,118
3,56,66,0
3,49,0,2
3,56,0,70
3,68,0,28
3,42,0,0
3,70,100,23
3,39,80,0
3,46,52,278
3,54,61,480
3,70,0,280
3,66,32,200
3,66,0,87
3,58,18,153
3,68,76,0
3,68,0,87
3,46,0,103
3,58,0,25
3,54,0,5
3,47,84,3
3,63,84,0
3,70,84,0
3,39,0,70
3,63,0,194
3,70,0,5
3,54,50,108
3,70,60,0
3,63,38,0
3,63,0,70
3,70,0,10
3,63,80,160
3,70,94,0
3,54,0,40
3,63,0,122
3,70,0,5
3,54,60,73
3,63,52,240
3,71,86,0
3,54,0,127
3,71,0,108
3,54,60,5
3,63,0,45
3,47,0,75
3,68,81,120
3,61,81,0
3,54,0,27
3,49,60,75
3,56,76,388
3,61,0,437
3,61,60,43
3,49,0,425
3,49,56,55
3,68,0,300
3,49,0,32
3,56,0,40
3,61,0,20
3,40,75,68
3,59,75,0
3,52,75,0
3,64,75,0
3,56,75,0
3,52,0,32
3,56,0,163
3,64,0,15
3,59,0,0
3,52,38,122
3,52,0,150
3,56,52,10
3,64,78,0
3,59,72,5
3,52,72,0
3,52,0,105
3,64,0,188
3,56,0,2
3,59,0,30
3,40,0,60
3,52,74,70
3,52,0,175
3,40,42,65
3,40,0,120
3,63,75,7
3,37,75,0
3,59,75,0
3,56,75,0
3,52,75,0
3,52,0,67
3,63,0,63
3,56,0,57
3,59,0,53
3,52,54,67
3,52,0,208
3,59,75,58
3,52,75,0
3,56,75,0
3,64,75,0
3,52,0,105
3,56,0,150
3,64,0,2
3,59,0,23
3,52,64,37
3,52,0,295
3,37,0,80
3,56,56,18
3,64,78,0
3,61,50,0
3,45,78,2
3,52,55,340
3,64,0,60
3,56,0,53
3,61,0,2
3,52,0,20
3,56,52,30
3,61,66,0
3,66,81,5
3,66,0,115
3,52,28,227
3,52,0,305
3,45,0,13
3,61,0,7
3,56,0,15
3,68,90,105
3,61,60,0
3,47,74,0
3,64,74,0
3,57,68,3
3,57,0,183
3,64,0,70
3,57,52,2
3,61,0,45
3,68,0,70
3,57,0,25
3,61,50,117
3,63,60,0
3,57,62,3
3,61,0,335
3,66,97,40
3,61,40,230
3,57,0,145
3,47,0,15
3,63,0,13
3,66,0,2
3,61,0,25
3,52,66,50
3,68,86,3
3,40,90,0
3,52,0,327
3,40,0,28
3,47,58,30
3,52,60,477
3,56,78,3
3,52,0,105
3,56,0,10
3,68,0,240
3,64,93,122
3,47,0,170
3,66,78,75
3,64,0,10
3,37,70,38
3,68,87,2
3,66,0,8
3,44,80,295
3,56,80,480
3,52,72,0
3,52,0,335
3,56,0,20
3,68,0,7
3,44,0,43
3,37,0,0
3,64,78,82
3,64,0,205
3,66,93,30
3,66,0,143
3,45,60,62
3,61,56,3
3,68,86,0
3,64,82,2
3,68,0,220
3,64,0,28
3,61,0,5
3,68,70,70
3,61,42,0
3,64,50,0
3,68,0,135
3,61,0,15
3,64,0,12
3,61,60,78
3,64,82,0
3,68,86,0
3,56,76,2
3,56,0,320
3,68,0,95
3,64,0,10
3,61,0,0
3,69,70,53
3,61,69,2
3,64,69,0
3,56,69,0
3,45,0,315
3,69,0,90
3,56,0,20
3,66,66,53
3,61,0,77
3,47,79,75
3,61,78,5
3,64,0,3
3,47,0,160
3,54,60,102
3,59,74,5
3,61,0,78
3,59,0,182
3,54,0,40
3,47,35,180
3,47,0,185
3,54,75,285
3,54,0,83
3,66,0,190
3,59,82,68
3,64,86,0
3,56,60,0
3,40,90,0
3,56,0,177
3,64,0,75
3,59,0,15
3,64,60,600
3,59,54,0
3,56,22,3
3,56,0,85
3,59,0,170
3,64,0,2
3,40,0,483
3,37,42,23
3,56,40,5
3,64,66,0
3,59,60,0
3,56,0,135
3,64,0,60
3,59,0,32
3,59,16,485
3,56,2,8
3,64,2,5
3,64,0,67
3,56,0,5
3,59,0,73
3,37,0,465
3,45,68,160
3,64,82,0
3,59,66,5
3,57,72,0
3,52,66,0
3,52,0,25
3,57,0,68
3,59,0,15
3,52,48,17
3,64,0,10
3,52,0,135
3,57,78,90
3,57,0,150
3,59,90,93
3,59,0,370
3,64,90,102
3,47,58,112
3,61,50,0
3,59,66,0
3,64,74,0
3,64,0,3
3,57,52,0
3,45,0,10
3,57,0,173
3,64,0,12
3,59,0,25
3,61,0,25
3,57,44,125
3,57,0,158
3,61,38,327
3,59,50,0
3,64,58,3
3,57,10,267
3,57,0,313
3,59,0,2
3,64,0,15
3,61,0,0
3,47,0,13
3,52,82,135
3,66,66,0
3,64,60,0
3,68,56,2
3,71,66,0
3,64,0,57
3,71,0,20
3,66,0,13
3,68,0,20
3,66,30,645
3,68,50,0
3,71,14,5
3,71,0,172
3,68,0,35
3,66,0,53
3,52,0,565
3,49,50,90
3,59,58,3
3,56,40,0
3,64,72,0
3,56,0,235
3,64,0,63
3,59,0,140
3,59,26,430
3,64,26,5
3,56,8,5
3,56,0,117
3,64,0,260
3,59,0,83
3,56,30,12
3,49,0,193
3,56,0,17
3,64,82,140
3,45,72,0
3,59,54,5
3,52,46,0
3,57,58,2
3,52,0,53
3,57,0,12
3,59,0,28
3,52,54,97
3,64,0,18
3,52,0,125
3,57,66,100
3,57,0,122
3,59,86,118
3,59,0,367
3,64,78,113
3,64,0,195
3,45,0,7
3,47,54,45
3,61,63,5
3,64,72,0
3,57,58,3
3,57,0,127
3,61,0,55
3,64,0,13
3,64,30,655
3,61,6,2
3,61,0,63
3,64,0,37
3,66,46,373
3,63,50,0
3,59,44,0
3,59,0,217
3,66,0,15
3,63,0,8
3,47,0,15
3,71,82,100
3,52,74,0
3,44,70,0
3,56,70,2
3,71,0,55
3,63,38,175
3,63,0,98
3,64,68,147
3,64,0,260
3,71,86,223
3,56,0,357
3,44,0,145
3,71,0,18
3,52,0,37
3,57,72,63
3,71,82,0
3,45,78,2
3,52,62,3
3,71,0,167
3,63,52,143
3,63,0,102
3,64,66,140
3,64,0,135
3,71,44,350
3,45,0,270
3,52,0,38
3,71,0,157
3,57,0,38
3,47,34,135
3,54,60,0
3,59,74,2
3,71,86,0
3,71,0,205
3,63,38,188
3,63,0,95
3,64,38,157
3,64,0,208
3,71,72,257
3,71,0,393
3,59,0,190
3,54,0,23
3,47,0,2
3,59,66,73
3,63,94,5
3,47,68,7
3,63,0,202
3,47,0,118
3,64,74,40
3,54,52,5
3,54,0,225
3,59,0,105
3,64,0,10
3,45,82,58
3,66,86,2
3,57,62,3
3,66,0,280
3,45,0,10
3,54,26,85
3,71,86,2
3,54,0,80
3,71,0,65
3,57,0,213
3,44,52,73
3,71,82,5
3,52,54,7
3,71,0,330
3,63,50,62
3,63,0,90
3,64,72,148
3,64,0,292
3,71,78,190
3,44,0,395
3,52,0,163
3,71,0,2
3,71,90,43
3,57,72,0
3,45,66,5
3,52,72,2
3,71,0,162
3,63,34,145
3,63,0,73
3,64,66,172
3,64,0,305
3,71,90,170
3,45,0,148
3,52,0,52
3,57,0,298
3,71,0,62
3,47,52,10
3,54,66,2
3,71,82,10
3,59,78,5
3,71,0,330
3,63,20,3
3,63,0,60
3,64,44,177
3,64,0,178
3,71,60,305
3,71,0,570
3,63,36,147
3,59,0,563
3,54,0,20
3,47,0,20
3,63,0,53
3,64,78,95
3,56,56,0
3,40,86,0
3,59,62,0
3,56,0,20
3,64,0,97
3,59,0,40
3,59,32,453
3,64,46,2
3,64,0,110
3,59,0,70
3,40,0,588
3,37,42,113
3,64,60,0
3,56,28,2
3,59,48,0
3,56,0,543
3,59,0,97
3,64,0,5
3,64,48,260
3,59,42,0
3,56,16,5
3,56,0,320
3,56,22,163
3,59,0,95
3,56,0,35
3,64,0,75
3,37,0,7
3,45,58,73
3,57,58,2
3,52,44,0
3,59,54,0
3,64,82,0
3,52,0,85
3,59,0,33
3,57,0,10
3,52,42,117
3,64,0,20
3,52,0,135
3,57,58,85
3,57,0,128
3,59,72,115
3,59,0,395
3,64,78,85
3,64,0,202
3,45,0,323
3,47,52,57
3,57,66,0
3,52,66,0
3,61,56,0
3,52,0,1660
3,57,0,43
3,61,0,17
3,47,0,55
3,40,74,80
3,56,52,0
3,64,72,0
3,59,58,0
3,56,0,530
3,64,0,35
3,59,0,27
3,64,52,275
3,59,38,0
3,56,12,5
3,56,0,128
3,64,0,127
3,59,0,193
3,40,0,37
3,37,42,15
3,56,34,0
3,64,66,0
3,59,58,0
3,56,0,675
3,59,0,40
3,64,0,15
3,59,36,165
3,64,38,5
3,56,12,0
3,56,0,105
3,59,0,118
3,64,0,35
3,37,0,282
3,64,82,72
3,45,72,0
3,52,52,140
3,64,0,47
3,52,0,120
3,57,58,75
3,57,0,113
3,59,78,132
3,59,0,413
3,64,82,70
3,64,0,147
3,45,0,180
3,61,56,45
3,57,72,0
3,47,62,0
3,52,60,0
3,57,0,125
3,52,0,8
3,61,0,65
3,63,50,55
3,59,46,0
3,54,32,0
3,47,0,367
3,45,52,35
3,45,0,415
3,63,0,30
3,54,0,3
3,59,0,15
3,71,86,20
3,44,60,2
3,59,68,0
3,71,0,255
3,63,60,47
3,63,0,145
3,64,82,95
3,52,60,0
3,64,0,375
3,71,90,105
3,44,0,325
3,52,0,188
3,71,0,75
3,59,0,20
3,61,52,20
3,45,68,0
3,71,94,5
3,71,0,277
3,63,60,110
3,63,0,138
3,52,74,97
3,64,68,5
3,64,0,345
3,71,82,135
3,45,0,333
3,71,0,32
3,52,0,58
3,61,0,217
3,47,66,12
3,59,78,0
3,71,74,5
3,71,0,225
3,63,70,127
3,63,0,103
3,54,56,135
3,64,82,2
3,64,0,345
3,71,82,135
3,71,0,595
3,54,0,20
3,47,0,15
3,59,0,20
3,47,66,65
3,59,82,5
3,63,94,0
3,63,0,318
3,54,46,117
3,47,0,3
3,64,86,2
3,54,0,170
3,64,0,190
3,45,82,78
3,57,62,7
3,66,86,0
3,59,0,3
3,66,0,312
3,54,80,135
3,71,82,5
3,45,0,85
3,54,0,120
3,71,0,85
3,57,0,33
3,44,76,92
3,59,74,0
3,71,86,0
3,71,0,270
3,63,52,135
3,63,0,80
3,64,90,160
3,52,82,5
3,64,0,323
3,71,82,152
3,44,0,453
3,71,0,120
3,52,0,5
3,59,0,35
3,61,76,25
3,45,72,2
3,71,82,0
3,71,0,297
3,63,56,80
3,63,0,93
3,64,86,145
3,52,74,0
3,64,0,340
3,71,82,137
3,45,0,233
3,52,0,125
3,71,0,220
3,61,0,80
3,47,68,27
3,59,82,0
3,71,86,5
3,63,46,400
3,63,0,125
3,71,0,43
3,54,52,67
3,64,78,5
3,71,68,0
3,71,0,275
3,64,0,93
3,71,90,112
3,71,0,648
3,59,0,8
3,71,26,47
3,66,60,5
3,59,60,0
3,47,0,1265
3,47,72,117
3,59,0,5
3,54,0,48
3,49,70,127
3,47,0,23
3,66,0,2
3,71,0,18
3,49,0,187
3,66,66,15
3,62,80,0
3,57,70,3
3,50,70,0
3,38,88,0
3,57,0,390
3,66,0,13
3,62,0,25
3,62,62,337
3,66,52,0
3,57,56,0
3,57,0,238
3,62,0,152
3,66,0,13
3,57,70,70
3,50,0,45
3,38,0,45
3,57,0,65
3,48,68,45
3,36,80,0
3,62,80,0
3,57,74,0
3,64,80,0
3,57,0,260
3,62,0,12
3,64,0,48
3,57,42,517
3,64,74,0
3,62,56,0
3,57,0,230
3,62,0,230
3,57,58,25
3,57,0,320
3,64,0,3
3,36,0,102
3,48,0,25
3,35,74,0
3,66,84,0
3,47,60,0
3,59,70,5
3,64,88,0
3,64,0,257
3,59,0,10
3,66,0,30
3,59,38,90
3,59,0,145
3,64,70,333
3,66,66,2
3,59,48,0
3,59,0,108
3,64,0,202
3,66,0,3
3,59,68,165
3,59,0,107
3,35,0,198
3,47,0,27
3,47,44,97
3,66,84,0
3,35,70,0
3,63,78,0
3,59,70,3
3,59,0,280
3,63,0,28
3,66,0,35
3,59,62,552
3,59,0,158
3,66,72,80
3,66,0,452
3,35,0,80
3,47,0,3
3,59,68,180
3,64,84,0
3,68,78,0
3,52,70,0
3,59,0,287
3,64,0,15
3,68,0,20
3,59,22,285
3,59,0,195
3,68,72,160
3,64,56,3
3,64,0,67
3,52,0,138
3,68,0,142
3,59,52,123
3,52,40,240
3,59,0,60
3,52,0,25
3,51,4,45
3,51,0,10
3,64,78,57
3,71,88,0
3,59,62,0
3,49,78,0
3,59,0,117
3,59,40,205
3,64,0,15
3,71,0,8
3,59,0,130
3,59,36,80
3,68,60,0
3,64,74,0
3,49,0,145
3,49,36,102
3,59,0,228
3,68,0,62
3,64,0,33
3,49,0,150
3,59,50,7
3,64,70,0
3,47,40,240
3,47,0,78
3,59,0,15
3,64,0,17
3,71,92,25
3,45,74,0
3,64,74,0
3,61,42,0
3,61,0,127
3,64,0,98
3,71,0,22
3,61,6,100
3,61,0,93
3,61,28,137
3,64,66,5
3,69,70,0
3,61,0,165
3,69,0,60
3,64,0,238
3,61,48,17
3,61,0,143
3,61,20,92
3,73,78,0
3,64,70,5
3,61,0,340
3,64,0,13
3,73,0,0
3,45,0,30
3,64,70,12
3,61,48,0
3,68,72,0
3,47,60,0
3,57,56,5
3,64,0,227
3,57,0,98
3,68,0,42
3,61,0,28
3,57,66,115
3,66,78,0
3,61,48,3
3,61,0,253
3,63,52,175
3,66,0,330
3,47,0,17
3,57,0,3
3,63,0,15
3,52,60,98
3,59,62,2
3,68,72,0
3,64,78,0
3,59,0,148
3,64,0,37
3,68,0,18
3,59,44,172
3,59,0,168
3,64,70,67
3,59,14,8
3,52,0,15
3,59,0,210
3,51,78,7
3,64,0,215
3,59,34,25
3,59,0,170
3,64,78,70
3,59,56,240
3,51,0,85
3,49,60,20
3,59,0,97
3,64,0,80
3,59,42,65
3,59,0,143
3,64,78,95
3,64,0,402
3,49,0,33
3,47,62,45
3,66,84,0
3,59,62,2
3,68,78,478
3,66,0,27
3,47,0,343
3,59,0,35
3,68,0,37
3,45,68,35
3,52,70,3
3,57,80,0
3,61,60,0
3,52,0,358
3,57,0,45
3,61,0,5
3,52,48,245
3,52,0,112
3,57,58,130
3,57,0,90
3,61,78,148
3,45,0,172
3,61,0,38
3,52,48,27
3,52,0,148
3,45,20,87
3,45,0,115
3,61,66,60
3,52,70,0
3,57,74,0
3,47,78,0
3,52,0,237
3,57,0,38
3,61,0,80
3,47,0,452
3,45,62,12
3,61,60,3
3,64,74,0
3,57,66,0
3,45,0,660
3,57,0,12
3,61,0,15
3,64,0,30
3,52,78,83
3,44,38,0
3,59,56,2
3,71,88,3
3,71,0,82
3,63,36,215
3,63,0,145
3,64,78,95
3,64,0,358
3,64,70,120
3,64,0,227
3,44,0,20
3,59,0,30
3,61,60,77
3,71,88,0
3,45,74,3
3,71,0,333
3,63,32,107
3,52,0,110
3,63,0,25
3,64,74,103
3,52,80,7
3,64,0,383
3,71,80,97
