track,note,velocity,time
1,58,118,768
1,51,118,0
1,56,118,0
1,58,0,1216
1,56,0,4
1,51,0,8
1,58,118,20
1,51,118,0
1,56,118,0
1,51,0,248
1,58,0,8
1,56,0,8
1,51,118,24
1,58,118,0
1,56,118,0
1,58,0,1204
1,56,0,8
1,51,0,4
1,51,118,32
1,58,118,0
1,56,118,0
1,58,0,252
1,56,0,20
1,51,0,0
1,53,118,16
1,49,118,0
1,56,118,0
1,56,0,1216
1,49,0,0
1,53,0,8
1,53,118,24
1,49,118,0
1,56,118,0
1,53,0,260
1,49,0,16
1,56,0,4
1,58,118,8
1,51,118,0
1,56,118,0
1,56,0,1484
1,58,0,0
1,51,0,8
1,58,118,44
1,51,118,0
1,56,118,0
1,58,0,1216
1,56,0,4
1,51,0,8
1,58,118,20
1,51,118,0
1,56,118,0
1,51,0,248
1,58,0,8
1,56,0,8
1,51,118,24
1,58,118,0
1,56,118,0
1,58,0,1204
1,56,0,8
1,51,0,4
1,51,118,32
1,58,118,0
1,56,118,0
1,58,0,252
1,56,0,20
1,51,0,0
1,53,118,16
1,49,118,0
1,56,118,0
1,56,0,1216
1,49,0,0
1,53,0,8
1,53,118,24
1,49,118,0
1,56,118,0
1,53,0,260
1,49,0,16
1,56,0,4
1,58,118,8
1,51,118,0
1,56,118,0
1,56,0,1484
1,58,0,0
1,51,0,8
1,58,118,44
1,51,118,0
1,56,118,0
1,58,0,1216
1,56,0,4
1,51,0,8
1,58,118,20
1,51,118,0
1,56,118,0
1,51,0,248
1,58,0,8
1,56,0,8
1,51,118,24
1,58,118,0
1,56,118,0
1,58,0,1204
1,56,0,8
1,51,0,4
1,51,118,32
1,58,118,0
1,56,118,0
1,58,0,252
1,56,0,20
1,51,0,0
1,53,118,16
1,49,118,0
1,56,118,0
1,56,0,1216
1,49,0,0
1,53,0,8
1,53,118,24
1,49,118,0
1,56,118,0
1,53,0,260
1,49,0,16
1,56,0,4
1,58,118,8
1,51,118,0
1,56,118,0
1,56,0,1484
1,58,0,0
1,51,0,8
1,58,118,44
1,51,118,0
1,56,118,0
1,58,0,1212
1,51,0,8
1,56,0,4
1,58,118,24
1,51,118,0
1,56,118,0
1,51,0,236
1,58,0,4
1,56,0,4
1,51,118,44
1,58,118,0
1,56,118,0
1,58,0,1188
1,56,0,12
1,51,0,4
1,51,118,44
1,58,118,0
1,56,118,0
1,58,0,252
1,56,0,4
1,51,0,0
1,53,118,32
1,49,118,0
1,56,118,0
1,49,0,1208
1,56,0,12
1,53,0,0
1,53,118,28
1,49,118,0
1,56,118,0
1,53,0,252
1,49,0,12
1,56,0,4
1,58,118,20
1,56,118,0
1,51,118,0
1,51,0,1432
1,56,0,4
1,58,0,4
1,58,118,96
1,51,118,0
1,56,118,0
1,58,0,1216
1,56,0,4
1,51,0,8
1,58,118,20
1,51,118,0
1,56,118,0
1,51,0,248
1,58,0,8
1,56,0,8
1,53,118,24
1,58,118,0
1,56,118,0
1,58,0,1204
1,56,0,8
1,53,0,4
1,53,118,32
1,58,118,0
1,56,118,0
1,58,0,252
1,56,0,20
1,53,0,0
1,53,118,16
1,49,118,0
1,56,118,0
1,56,0,1216
1,49,0,0
1,53,0,8
1,53,118,24
1,49,118,0
1,56,118,0
1,53,0,260
1,49,0,16
1,56,0,4
1,58,118,8
1,51,118,0
1,56,118,0
1,56,0,1484
1,58,0,0
1,51,0,8
1,58,118,44
1,51,118,0
1,56,118,0
1,58,0,1212
1,51,0,8
1,56,0,4
1,58,118,24
1,51,118,0
1,56,118,0
1,51,0,236
1,58,0,4
1,56,0,4
1,53,118,44
1,58,118,0
1,56,118,0
1,58,0,1188
1,56,0,12
1,53,0,4
1,53,118,44
1,58,118,0
1,56,118,0
1,58,0,252
1,56,0,4
1,53,0,0
1,53,118,32
1,49,118,0
1,56,118,0
1,49,0,1208
1,56,0,12
1,53,0,0
1,53,118,28
1,49,118,0
1,56,118,0
1,53,0,252
1,49,0,12
1,56,0,4
1,56,118,20
1,58,118,0
1,51,118,0
1,51,0,1432
1,56,0,4
1,58,0,4
1,58,118,96
1,51,118,0
1,56,118,0
1,58,0,1216
1,56,0,4
1,51,0,8
1,58,118,20
1,51,118,0
1,56,118,0
1,51,0,248
1,58,0,8
1,56,0,8
1,51,118,24
1,58,118,0
1,56,118,0
1,58,0,1204
1,56,0,8
1,51,0,4
1,51,118,32
1,58,118,0
1,56,118,0
1,58,0,252
1,56,0,20
1,51,0,0
1,53,118,16
1,49,118,0
1,56,118,0
1,56,0,1216
1,49,0,0
1,53,0,8
1,53,118,24
1,49,118,0
1,56,118,0
1,53,0,260
1,49,0,16
1,56,0,4
1,58,118,8
1,51,118,0
1,56,118,0
1,56,0,1484
1,58,0,0
1,51,0,8
1,58,118,44
1,51,118,0
1,56,118,0
1,58,0,1212
1,51,0,8
1,56,0,4
1,58,118,24
1,51,118,0
1,56,118,0
1,51,0,236
1,58,0,4
1,56,0,4
1,51,118,44
1,58,118,0
1,56,118,0
1,58,0,1188
1,56,0,12
1,51,0,4
1,51,118,44
1,58,118,0
1,56,118,0
1,58,0,252
1,56,0,4
1,51,0,0
1,53,118,32
1,49,118,0
1,56,118,0
1,49,0,1208
1,56,0,12
1,53,0,0
1,53,118,28
1,49,118,0
1,56,118,0
1,53,0,252
1,49,0,12
1,56,0,4
1,56,118,20
1,58,118,0
1,51,118,0
1,51,0,1432
1,56,0,4
1,58,0,4
1,58,118,96
1,51,118,0
1,56,118,0
1,58,0,1216
1,56,0,4
1,51,0,8
1,58,118,20
1,51,118,0
1,56,118,0
1,51,0,248
1,58,0,8
1,56,0,8
1,53,118,24
1,58,118,0
1,56,118,0
1,58,0,1204
1,56,0,8
1,53,0,4
1,53,118,32
1,58,118,0
1,56,118,0
1,58,0,252
1,56,0,20
1,53,0,0
1,53,118,16
1,49,118,0
1,56,118,0
1,56,0,1216
1,49,0,0
1,53,0,8
1,53,118,24
1,49,118,0
1,56,118,0
1,53,0,260
1,49,0,16
1,56,0,4
1,58,118,8
1,51,118,0
1,56,118,0
1,56,0,1484
1,58,0,0
1,51,0,8
1,58,118,44
1,51,118,0
1,56,118,0
1,58,0,1212
1,51,0,8
1,56,0,4
1,58,118,24
1,51,118,0
1,56,118,0
1,51,0,236
1,58,0,4
1,56,0,4
1,53,118,44
1,58,118,0
1,56,118,0
1,58,0,1188
1,56,0,12
1,53,0,4
1,53,118,44
1,58,118,0
1,56,118,0
1,58,0,252
1,56,0,4
1,53,0,0
1,53,118,32
1,49,118,0
1,56,118,0
1,49,0,1208
1,56,0,12
1,53,0,0
1,53,118,28
1,49,118,0
1,56,118,0
1,53,0,252
1,49,0,12
1,56,0,4
1,56,118,20
1,58,118,0
1,51,118,0
1,51,0,1432
1,56,0,4
1,58,0,4
1,60,118,96
1,62,118,0
1,65,118,0
1,60,0,1216
1,62,0,4
1,65,0,8
1,60,118,20
1,62,118,0
1,65,118,0
1,65,0,248
1,60,0,8
1,62,0,8
1,58,118,24
1,65,118,0
1,60,118,0
1,62,118,0
1,60,0,1204
1,62,0,8
1,65,0,4
1,58,0,0
1,58,118,32
1,65,118,0
1,60,118,0
1,62,118,0
1,60,0,252
1,58,0,20
1,65,0,0
1,62,0,0
1,58,118,16
1,63,118,0
1,55,118,0
1,55,0,1216
1,58,0,0
1,63,0,8
1,58,118,24
1,63,118,0
1,55,118,0
1,63,0,260
1,55,0,16
1,58,0,4
1,60,118,8
1,62,118,0
1,65,118,0
1,62,0,1484
1,60,0,0
1,65,0,8
1,60,118,44
1,62,118,0
1,65,118,0
1,60,0,1212
1,65,0,8
1,62,0,4
1,60,118,24
1,62,118,0
1,65,118,0
1,65,0,236
1,60,0,4
1,62,0,4
1,58,118,44
1,65,118,0
1,60,118,0
1,62,118,0
1,60,0,1188
1,62,0,12
1,65,0,4
1,58,0,0
1,58,118,44
1,65,118,0
1,60,118,0
1,62,118,0
1,60,0,252
1,58,0,4
1,65,0,0
1,62,0,0
1,63,118,32
1,55,118,0
1,58,118,0
1,55,0,1208
1,58,0,12
1,63,0,0
1,63,118,28
1,55,118,0
1,58,118,0
1,58,0,252
1,63,0,0
1,55,0,12
1,60,118,24
1,65,118,0
1,58,118,0
1,65,0,1416
1,60,0,2
1,58,0,9
1,62,118,109
1,60,118,0
1,67,118,0
1,62,0,1196
1,60,0,6
1,67,0,5
1,62,118,41
1,67,118,0
1,60,118,0
1,62,0,226
1,67,0,1
1,60,0,4
1,62,118,57
1,60,118,0
1,67,118,0
1,62,0,1183
1,67,0,6
1,60,0,0
1,60,118,59
1,62,118,0
1,67,118,0
1,67,0,226
1,60,0,28
1,62,0,2
1,57,118,32
1,65,118,0
1,60,118,0
1,65,0,1210
1,57,0,3
1,60,0,2
1,57,118,33
1,60,118,0
1,65,118,0
1,57,0,240
1,65,0,5
1,60,0,19
1,67,118,24
1,62,118,0
1,60,118,0
1,62,0,1463
1,67,0,1
1,60,0,7
1,67,118,65
1,62,118,0
1,60,118,0
1,62,0,1197
1,67,0,4
1,60,0,1
1,62,118,46
1,60,118,0
1,67,118,0
1,62,0,255
1,60,0,3
1,67,0,7
1,57,118,23
1,62,118,0
1,60,118,0
1,67,118,0
1,62,0,1190
1,57,0,3
1,60,0,5
1,67,0,1
1,67,118,49
1,57,118,0
1,60,118,0
1,62,118,0
1,67,0,207
1,57,0,29
1,60,0,4
1,62,0,4
1,57,118,44
1,60,118,0
1,65,118,0
1,60,0,1211
1,57,0,1
1,65,0,6
1,60,118,30
1,57,118,0
1,65,118,0
1,57,0,241
1,65,0,8
1,60,0,0
1,67,118,39
1,60,118,0
1,62,118,0
1,67,0,1401
1,62,0,10
1,60,0,2
1,58,118,123
1,60,118,0
1,65,118,0
1,65,0,1170
1,60,0,3
1,58,0,4
1,65,118,71
1,58,118,0
1,60,118,0
1,58,0,258
1,65,0,9
1,60,0,6
1,65,118,15
1,60,118,0
1,58,118,0
1,55,118,0
1,60,0,1184
1,65,0,5
1,58,0,3
1,55,0,1
1,60,118,55
1,58,118,0
1,55,118,0
1,65,118,0
1,65,0,210
1,58,0,13
1,55,0,8
1,60,0,0
1,63,118,57
1,58,118,0
1,55,118,0
1,58,0,1208
1,55,0,5
1,63,0,4
1,63,118,31
1,55,118,0
1,58,118,0
1,63,0,220
1,55,0,23
1,58,0,15
1,62,118,30
1,58,118,0
1,60,118,0
1,65,118,0
1,62,0,1436
1,60,0,5
1,65,0,2
1,58,0,7
1,60,118,86
1,65,118,0
1,62,118,0
1,58,118,0
1,60,0,1149
1,65,0,8
1,62,0,5
1,58,0,6
1,58,118,80
1,65,118,0
1,60,118,0
1,62,118,0
1,65,0,189
1,60,0,42
1,58,0,6
1,62,0,12
1,60,118,39
1,55,118,0
1,58,118,0
1,62,118,0
1,60,0,1187
1,55,0,5
1,58,0,7
1,62,0,1
1,62,118,48
1,60,118,0
1,55,118,0
1,58,118,0
1,62,0,242
1,55,0,1
1,60,0,1
1,58,0,3
1,63,118,41
1,55,118,0
1,58,118,0
1,55,0,1197
1,63,0,1
1,58,0,2
1,55,118,48
1,63,118,0
1,58,118,0
1,63,0,227
1,55,0,8
1,58,0,16
1,58,118,37
1,65,118,0
1,60,118,0
1,62,118,0
1,62,0,1265
1,58,0,73
1,60,0,3
1,65,0,2
1,60,118,193
1,65,118,0
1,62,118,0
1,58,118,0
1,60,0,1187
1,65,0,14
1,58,0,3
1,62,0,1
1,60,118,43
1,62,118,0
1,65,118,0
1,58,118,0
1,60,0,273
1,60,118,15
1,55,118,0
1,65,118,0
1,58,118,0
1,62,118,0
1,62,0,0
1,58,0,0
1,65,0,4
1,60,0,1436
1,62,0,0
1,58,0,0
1,65,0,12
1,55,0,22
1,63,118,62
1,58,118,0
1,55,118,0
1,58,0,1228
1,63,0,0
1,55,0,2
1,63,118,18
1,55,118,0
1,58,118,0
1,63,0,218
1,55,0,25
1,58,0,11
1,58,118,34
1,60,118,0
1,65,118,0
1,60,0,1382
1,58,0,16
1,65,0,5
1,60,118,133
1,62,118,0
1,67,118,0
1,62,0,1177
1,60,0,2
1,67,0,7
1,60,118,62
1,62,118,0
1,67,118,0
1,67,0,248
1,62,0,5
1,60,0,2
1,57,118,33
1,67,118,0
1,62,118,0
1,60,118,0
1,57,0,1187
1,67,0,8
1,62,0,4
1,60,0,0
1,57,118,49
1,60,118,0
1,62,118,0
1,67,118,0
1,67,0,234
1,57,0,7
1,60,0,6
1,62,0,11
1,57,118,30
1,65,118,0
1,60,118,0
1,57,0,1187
1,65,0,4
1,60,0,4
1,57,118,53
1,60,118,0
1,65,118,0
1,65,0,237
1,57,0,0
1,60,0,13
1,67,118,38
1,62,118,0
1,60,118,0
1,67,0,1404
1,60,0,5
1,62,0,1
1,60,118,126
1,62,118,0
1,67,118,0
1,62,0,1608
1,60,0,1
1,67,0,8
2,44,64,768
2,44,0,40
2,44,44,56
2,44,0,60
2,56,50,36
2,56,0,68
2,44,57,28
2,44,0,48
2,44,57,48
2,44,0,52
2,56,57,44
2,56,0,64
2,44,50,32
2,44,0,40
2,44,50,56
2,44,0,56
2,56,50,40
2,56,0,76
2,44,57,20
2,44,0,48
2,44,50,48
2,44,0,56
2,56,44,40
2,56,0,64
2,44,44,32
2,44,0,44
2,44,50,52
2,44,0,52
2,56,44,44
2,56,0,72
2,44,50,24
2,44,0,48
2,41,57,48
2,41,0,48
2,41,50,48
2,41,0,68
2,53,57,28
2,53,0,84
2,41,50,12
2,41,0,60
2,41,50,36
2,41,0,68
2,53,57,28
2,53,0,60
2,41,50,36
2,41,0,52
2,41,57,44
2,41,0,64
2,53,57,32
2,53,0,64
2,41,50,32
2,41,0,48
2,41,50,48
2,41,0,60
2,53,57,36
2,53,0,64
2,41,57,32
2,41,0,52
2,41,57,44
2,41,0,44
2,53,50,52
2,41,57,96
2,53,0,4
2,41,0,44
2,37,44,48
2,37,0,40
2,37,50,56
2,37,0,56
2,49,57,40
2,37,50,96
2,49,0,0
2,37,0,48
2,37,50,48
2,37,0,64
2,49,57,32
2,49,0,60
2,37,50,36
2,37,0,52
2,37,50,44
2,37,0,68
2,49,57,28
2,49,0,76
2,37,57,20
2,37,0,52
2,37,50,44
2,37,0,56
2,49,57,40
2,49,0,60
2,37,50,36
2,37,0,52
2,37,50,44
2,37,0,64
2,49,57,32
2,49,0,80
2,37,50,16
2,37,0,52
2,44,50,44
2,44,0,48
2,44,57,48
2,44,0,60
2,56,57,36
2,56,0,64
2,44,57,32
2,44,0,48
2,44,50,48
2,44,0,60
2,56,64,36
2,56,0,60
2,44,50,36
2,44,0,48
2,44,50,48
2,44,0,72
2,56,57,24
2,56,0,68
2,44,57,28
2,44,0,48
2,44,50,48
2,44,0,60
2,56,64,36
2,56,0,68
2,44,57,28
2,44,0,48
2,44,50,48
2,44,0,60
2,56,57,36
2,56,0,84
2,44,57,12
2,44,0,56
2,44,64,40
2,44,0,40
2,44,44,56
2,44,0,60
2,56,50,36
2,56,0,68
2,44,57,28
2,44,0,48
2,44,57,48
2,44,0,52
2,56,57,44
2,56,0,64
2,44,50,32
2,44,0,40
2,44,50,56
2,44,0,56
2,56,50,40
2,56,0,76
2,44,57,20
2,44,0,48
2,44,50,48
2,44,0,56
2,56,44,40
2,56,0,64
2,44,44,32
2,44,0,44
2,44,50,52
2,44,0,52
2,56,44,44
2,56,0,72
2,44,50,24
2,44,0,48
2,41,57,48
2,41,0,48
2,41,50,48
2,41,0,68
2,53,57,28
2,53,0,84
2,41,50,12
2,41,0,60
2,41,50,36
2,41,0,68
2,53,57,28
2,53,0,60
2,41,50,36
2,41,0,52
2,41,57,44
2,41,0,64
2,53,57,32
2,53,0,64
2,41,50,32
2,41,0,48
2,41,50,48
2,41,0,60
2,53,57,36
2,53,0,64
2,41,57,32
2,41,0,52
2,41,57,44
2,41,0,44
2,53,50,52
2,41,57,96
2,53,0,4
2,41,0,44
2,37,44,48
2,37,0,40
2,37,50,56
2,37,0,56
2,49,57,40
2,37,50,96
2,49,0,0
2,37,0,48
2,37,50,48
2,37,0,64
2,49,57,32
2,49,0,60
