track,note,velocity,time
0,32,103,10
0,44,92,0
0,56,83,0
0,60,85,0
0,63,80,0
0,44,79,0
0,35,103,0
0,70,120,0
0,93,80,0
0,35,0,8
0,93,0,0
0,44,73,19
0,70,108,0
0,56,84,31
0,70,97,0
0,92,113,0
0,92,0,0
0,44,68,31
0,70,85,0
0,44,75,31
0,69,115,0
0,70,108,0
0,88,112,0
0,44,69,26
0,69,77,0
0,70,99,0
0,88,74,0
0,92,104,0
0,92,0,0
0,44,64,31
0,69,54,0
0,70,90,0
0,88,51,0
0,44,61,31
0,69,37,0
0,70,81,0
0,88,34,0
0,92,113,0
0,69,0,8
0,88,0,0
0,92,0,0
0,44,74,31
0,35,106,0
0,70,111,0
0,35,0,8
0,56,79,31
0,70,100,0
0,92,103,0
0,92,0,0
0,44,65,31
0,70,90,0
0,44,60,19
0,35,97,0
0,70,79,0
0,92,118,0
0,35,0,8
0,92,0,0
0,56,81,19
0,69,117,0
0,70,108,0
0,88,114,0
0,32,97,12
0,44,57,0
0,69,77,0
0,70,101,0
0,88,74,0
0,92,103,0
0,92,0,0
0,44,0,21
0,44,64,19
0,69,55,0
0,70,92,0
0,88,52,0
0,44,61,31
0,35,106,0
0,69,35,0
0,70,84,0
0,88,32,0
0,94,127,0
0,35,0,8
0,69,0,0
0,88,0,0
0,94,0,0
0,32,0,15
0,44,0,5
0,63,0,0
0,56,0,1
0,60,0,0
0,29,106,10
0,41,88,0
0,56,85,0
0,60,85,0
0,63,81,0
0,41,75,0
0,35,103,0
0,70,118,0
0,93,80,0
0,35,0,8
0,93,0,0
0,41,67,19
0,70,97,0
0,53,79,31
0,70,103,0
0,92,113,0
0,92,0,0
0,41,64,31
0,70,86,0
0,41,73,31
0,69,116,0
0,70,107,0
0,88,113,0
0,41,69,26
0,69,76,0
0,70,99,0
0,88,73,0
0,92,104,0
0,92,0,0
0,41,63,31
0,69,55,0
0,70,95,0
0,88,52,0
0,41,59,31
0,69,34,0
0,70,92,0
0,88,31,0
0,92,113,0
0,69,0,8
0,88,0,0
0,92,0,0
0,41,70,31
0,35,106,0
0,70,114,0
0,35,0,8
0,53,79,31
0,70,82,0
0,92,103,0
0,92,0,0
0,41,64,31
0,70,92,0
0,41,60,19
0,35,97,0
0,70,90,0
0,92,118,0
0,35,0,8
0,92,0,0
0,53,81,19
0,69,114,0
0,70,105,0
0,88,111,0
0,41,65,24
0,69,76,0
0,70,91,0
0,88,73,0
0,92,103,0
0,92,0,0
0,41,0,21
0,41,64,19
0,69,55,0
0,70,85,0
0,88,52,0
0,70,0,0
0,41,61,31
0,35,106,0
0,69,39,0
0,70,92,0
0,88,36,0
0,94,127,0
0,35,0,8
0,69,0,0
0,88,0,0
0,94,0,0
0,63,0,10
0,41,0,5
0,56,0,0
0,60,0,0
0,37,100,11
0,49,79,0
0,53,88,0
0,56,82,0
0,61,82,0
0,37,74,0
0,35,103,0
0,70,114,0
0,93,80,0
0,35,0,8
0,93,0,0
0,37,67,19
0,70,89,0
0,49,78,31
0,70,103,0
0,92,113,0
0,92,0,0
0,37,64,31
0,70,90,0
0,37,69,31
0,69,118,0
0,70,110,0
0,88,115,0
0,37,66,26
0,69,78,0
0,70,81,0
0,88,75,0
0,92,104,0
0,92,0,0
0,37,64,31
0,69,58,0
0,70,93,0
0,88,55,0
0,37,60,31
0,69,37,0
0,70,90,0
0,88,34,0
0,92,113,0
0,69,0,8
0,88,0,0
0,92,0,0
0,37,72,31
0,35,106,0
0,70,107,0
0,35,0,8
0,49,79,31
0,70,87,0
0,92,103,0
0,92,0,0
0,37,65,31
0,70,99,0
0,37,62,19
0,35,97,0
0,70,83,0
0,92,118,0
0,35,0,8
0,92,0,0
0,49,81,19
0,69,118,0
0,70,103,0
0,88,115,0
0,37,65,24
0,69,76,0
0,70,85,0
0,88,73,0
0,92,103,0
0,92,0,0
0,37,0,21
0,37,64,19
0,69,54,0
0,70,90,0
0,88,51,0
0,37,61,31
0,35,106,0
0,69,36,0
0,70,90,0
0,88,33,0
0,94,127,0
0,35,0,8
0,69,0,0
0,88,0,0
0,94,0,0
0,61,0,15
0,49,0,2
0,56,0,1
0,53,0,3
0,32,101,9
0,44,78,0
0,51,79,0
0,56,80,0
0,60,83,0
0,44,77,0
0,35,103,0
0,70,118,0
0,93,80,0
0,35,0,8
0,93,0,0
0,44,70,19
0,70,97,0
0,56,85,31
0,70,103,0
0,92,113,0
0,92,0,0
0,44,68,31
0,70,86,0
0,44,75,31
0,69,113,0
0,70,107,0
0,88,110,0
0,44,69,26
0,69,74,0
0,70,99,0
0,88,71,0
0,92,104,0
0,92,0,0
0,44,64,31
0,69,55,0
0,70,95,0
0,88,52,0
0,44,61,31
0,69,36,0
0,70,92,0
0,88,33,0
0,92,113,0
0,69,0,8
0,88,0,0
0,92,0,0
0,44,69,31
0,35,106,0
0,70,114,0
0,30,1,0
0,35,0,8
0,30,0,0
0,30,1,7
0,30,0,8
0,56,80,16
0,70,82,0
0,92,103,0
0,30,6,0
0,92,0,0
0,30,0,0
0,30,11,7
0,30,0,8
0,44,60,16
0,70,92,0
0,30,16,0
0,30,0,0
0,30,21,16
0,30,0,3
0,44,58,16
0,35,97,0
0,70,90,0
0,92,118,0
0,30,26,0
0,35,0,8
0,92,0,0
0,30,0,0
0,30,31,16
0,30,0,3
0,39,113,15
0,56,82,0
0,69,113,0
0,70,105,0
0,88,110,0
0,30,36,0
0,30,0,0
0,30,41,0
0,30,0,8
0,44,65,16
0,69,77,0
0,70,91,0
0,88,74,0
0,92,103,0
0,30,46,0
0,92,0,0
0,30,0,0
0,30,51,0
0,44,0,5
0,30,0,0
0,44,64,0
0,69,58,0
0,70,85,0
0,88,55,0
0,30,56,0
0,70,0,0
0,30,0,0
0,30,61,0
0,30,0,0
0,44,61,0
0,35,106,0
0,69,33,0
0,70,92,0
0,88,30,0
0,94,127,0
0,30,66,0
0,35,0,0
0,69,0,0
0,88,0,0
0,94,0,0
0,30,0,0
0,44,0,0
0,60,0,3
0,51,0,2
0,56,0,0
0,32,103,0
0,44,88,0
0,56,80,0
0,60,82,0
0,63,79,0
0,44,79,0
0,35,103,0
0,49,113,0
0,70,114,0
0,93,80,0
0,35,0,8
0,93,0,0
0,44,73,19
0,70,89,0
0,58,97,30
0,56,84,1
0,70,103,0
0,92,113,0
0,63,47,3
0,60,50,1
0,92,0,0
0,63,0,6
0,60,0,1
0,44,68,31
0,70,90,0
0,44,75,31
0,69,115,0
0,70,110,0
0,88,112,0
0,56,91,1
0,44,69,1
0,69,74,0
0,70,81,0
0,88,71,0
0,92,104,0
0,63,46,6
0,60,47,1
0,92,0,0
0,60,0,9
0,63,0,0
0,44,64,22
0,69,57,0
0,70,93,0
0,88,54,0
0,44,61,31
0,69,36,0
0,70,90,0
0,88,33,0
0,92,113,0
0,69,0,8
0,88,0,0
0,92,0,0
0,63,52,2
0,63,110,0
0,44,74,0
0,35,106,0
0,70,107,0
0,60,67,1
0,35,0,7
0,60,0,3
0,63,0,3
0,56,79,25
0,70,87,0
0,92,103,0
0,92,0,0
0,58,53,30
0,61,74,0
0,44,65,1
0,70,99,0
0,58,0,11
0,61,0,3
0,44,60,19
0,35,97,0
0,70,83,0
0,92,118,0
0,35,0,8
0,92,0,0
0,56,50,14
0,60,50,2
0,56,81,3
0,69,115,0
0,70,103,0
0,88,112,0
0,56,0,6
0,60,0,3
0,61,48,7
0,58,50,3
0,32,98,5
0,44,57,0
0,69,77,0
0,70,85,0
0,88,74,0
0,92,103,0
0,92,0,0
0,58,0,7
0,61,0,1
0,44,0,13
0,44,64,19
0,69,53,0
0,70,90,0
0,88,50,0
0,44,61,31
0,35,106,0
0,69,35,0
0,70,90,0
0,88,32,0
0,94,127,0
0,35,0,8
0,69,0,0
0,88,0,0
0,94,0,0
0,32,0,15
0,63,0,4
0,60,0,1
0,44,0,1
0,56,0,1
0,29,106,9
0,41,83,0
0,56,79,0
0,60,80,0
0,63,80,0
0,41,75,0
0,35,103,0
0,70,118,0
0,93,80,0
0,35,0,8
0,93,0,0
0,41,67,19
0,70,97,0
0,63,58,29
0,60,62,2
0,53,79,0
0,70,103,0
0,92,113,0
0,92,0,0
0,60,0,8
0,63,0,3
0,41,64,28
0,70,86,0
0,41,73,31
0,69,117,0
0,70,107,0
0,88,114,0
0,41,69,26
0,69,75,0
0,70,99,0
0,88,72,0
0,92,104,0
0,60,57,1
0,63,53,2
0,92,0,0
0,60,0,2
0,63,0,1
0,41,63,28
0,69,58,0
0,70,95,0
0,88,55,0
0,41,59,31
0,69,38,0
0,70,92,0
0,88,35,0
0,92,113,0
0,69,0,8
0,88,0,0
0,92,0,0
0,63,52,28
0,60,41,2
0,41,70,1
0,35,106,0
0,70,114,0
0,35,0,8
0,60,0,9
0,63,0,1
0,53,79,30
0,70,82,0
0,92,103,0
0,92,0,0
0,41,64,31
0,70,92,0
0,61,68,1
0,58,46,1
0,58,0,12
0,61,0,0
0,41,60,19
0,35,97,0
0,70,90,0
0,92,118,0
0,35,0,8
0,92,0,0
0,39,108,2
0,53,81,0
0,69,115,0
0,70,105,0
0,88,112,0
0,60,51,1
0,56,45,1
0,56,0,11
0,60,0,5
0,61,47,6
0,58,47,2
0,41,65,0
0,69,75,0
0,70,91,0
0,88,72,0
0,92,103,0
0,92,0,0
0,61,0,11
0,58,0,1
0,41,0,9
0,41,64,19
0,69,57,0
0,70,90,0
0,88,54,0
0,70,0,0
0,41,61,31
0,35,106,0
0,69,37,0
0,70,92,0
0,88,34,0
0,94,127,0
0,35,0,8
0,69,0,0
0,88,0,0
0,94,0,0
0,56,0,15
0,41,0,4
0,63,0,1
0,60,0,2
0,37,106,1
0,49,85,0
0,53,82,0
0,56,83,0
0,61,80,0
0,37,74,0
0,35,103,0
0,70,114,0
0,93,80,0
0,35,0,8
0,93,0,0
0,37,67,19
0,70,89,0
0,58,99,31
0,49,78,0
0,70,103,0
0,92,113,0
0,60,51,1
0,63,48,0
0,92,0,0
0,63,0,3
0,60,0,1
0,37,64,31
0,70,90,0
0,37,69,31
0,69,114,0
0,70,110,0
0,88,111,0
0,56,85,1
0,37,66,0
0,69,74,0
0,70,81,0
0,88,71,0
0,92,104,0
0,63,47,3
0,60,48,1
0,92,0,0
0,60,0,6
0,63,0,0
0,37,64,25
0,69,55,0
0,70,93,0
0,88,52,0
0,37,60,31
0,69,34,0
0,70,90,0
0,88,31,0
0,92,113,0
0,69,0,8
0,88,0,0
0,92,0,0
0,63,44,28
0,63,96,1
0,60,59,1
0,37,72,0
0,35,106,0
0,70,107,0
0,35,0,8
0,60,0,2
0,63,0,3
0,49,79,26
0,70,87,0
0,92,103,0
0,92,0,0
0,58,45,29
0,61,66,0
0,37,65,2
0,70,99,0
0,58,0,10
0,61,0,3
0,37,62,19
0,35,97,0
0,70,83,0
0,92,118,0
0,35,0,8
0,92,0,0
0,56,42,13
0,60,42,2
0,49,81,4
0,69,114,0
0,70,103,0
0,88,111,0
0,56,0,5
0,60,0,3
0,61,40,7
0,58,42,3
0,37,65,6
0,69,73,0
0,70,85,0
0,88,70,0
0,92,103,0
0,92,0,0
0,58,0,6
0,61,0,1
0,37,0,14
0,37,64,19
0,69,55,0
0,70,90,0
0,88,52,0
0,37,61,31
0,35,106,0
0,69,38,0
0,70,90,0
0,88,35,0
0,94,127,0
0,35,0,8
0,69,0,0
0,88,0,0
0,94,0,0
0,61,0,7
0,49,0,13
0,56,0,0
0,53,0,2
0,32,106,7
0,44,80,0
0,51,83,0
0,56,83,0
0,60,84,0
0,44,77,0
0,35,103,0
0,70,118,0
0,93,80,0
0,35,0,8
0,93,0,0
0,44,70,19
0,70,97,0
0,60,60,28
0,63,56,0
0,56,85,3
0,70,103,0
0,92,113,0
0,92,0,0
0,60,0,5
0,63,0,4
0,44,68,31
0,70,86,0
0,44,75,31
0,69,113,0
0,70,107,0
0,88,110,0
0,60,55,24
0,63,51,2
0,44,69,0
0,69,73,0
0,70,99,0
0,88,70,0
0,92,104,0
0,92,0,0
0,60,0,8
0,63,0,1
0,44,64,31
0,69,55,0
0,70,95,0
0,88,52,0
0,44,61,31
0,69,36,0
0,70,92,0
0,88,33,0
0,92,113,0
0,69,0,8
0,88,0,0
0,92,0,0
0,63,62,25
0,60,51,2
0,44,69,4
0,35,106,0
0,70,114,0
0,30,1,0
0,60,0,7
0,63,0,0
0,35,0,1
0,30,0,0
0,30,1,7
0,30,0,8
0,56,80,16
0,70,82,0
0,92,103,0
0,30,6,0
0,92,0,0
0,30,0,0
0,30,11,7
0,30,0,8
0,61,60,14
0,58,38,1
0,44,60,1
0,70,92,0
0,30,16,0
0,30,0,0
0,58,0,9
0,61,0,0
0,30,21,7
0,30,0,3
0,44,58,16
0,35,97,0
0,70,90,0
0,92,118,0
0,30,26,0
0,35,0,8
0,92,0,0
0,30,0,0
0,30,31,16
0,30,0,3
0,60,68,14
0,56,62,1
0,56,82,1
0,69,119,0
0,70,105,0
0,88,116,0
0,30,36,0
0,30,0,0
0,30,41,0
0,30,0,8
0,60,0,9
0,56,0,1
0,61,47,1
0,58,47,2
0,44,65,3
0,69,77,0
0,70,91,0
0,88,74,0
0,92,103,0
0,30,46,0
0,69,0,8
0,88,0,0
0,92,0,0
0,30,0,0
0,61,0,8
0,58,0,1
0,30,51,7
0,44,0,5
0,30,0,3
0,41,108,4
0,44,64,0
0,69,57,0
0,70,94,0
0,88,54,0
0,30,56,0
0,69,0,8
0,70,0,0
0,88,0,0
0,30,0,0
0,30,61,7
0,30,0,8
0,39,97,1
0,44,61,0
0,35,106,0
0,69,33,0
0,70,92,0
0,88,30,0
0,94,127,0
0,30,66,0
0,35,0,8
0,69,0,0
0,88,0,0
0,94,0,0
0,30,0,0
0,44,0,17
0,51,0,1
0,56,0,4
0,60,0,0
0,75,106,5
0,32,112,1
0,44,92,0
0,56,83,0
0,60,85,0
0,63,80,0
0,44,79,0
0,35,103,0
0,57,125,0
0,70,114,0
0,93,80,0
0,35,0,8
0,57,0,0
0,93,0,0
0,44,73,19
0,70,89,0
0,75,86,23
0,56,84,1
0,70,103,0
0,92,113,0
0,63,47,2
0,60,50,1
0,92,0,0
0,63,0,5
0,60,0,1
0,75,99,12
0,44,68,4
0,70,90,0
0,44,75,31
0,69,117,0
0,70,110,0
0,88,114,0
0,75,90,24
0,44,69,2
0,69,78,0
0,70,81,0
0,88,75,0
0,92,104,0
0,63,46,5
0,60,47,1
0,92,0,0
0,60,0,8
0,63,0,0
0,44,64,23
0,69,58,0
0,70,93,0
0,88,55,0
0,75,99,26
0,44,61,2
0,69,38,0
0,70,90,0
0,88,35,0
0,92,113,0
0,69,0,8
0,88,0,0
0,92,0,0
0,63,52,30
0,60,67,1
0,44,74,0
0,35,106,0
0,70,107,0
0,35,0,8
0,60,0,2
0,63,0,3
0,75,0,23
0,56,79,3
0,70,87,0
0,92,103,0
0,92,0,0
0,58,53,29
0,61,74,0
0,44,65,2
0,70,99,0
0,58,0,10
0,61,0,3
0,44,60,19
0,35,97,0
0,70,83,0
0,92,118,0
0,35,0,8
0,92,0,0
0,56,50,13
0,60,50,2
0,56,81,4
0,69,115,0
0,70,103,0
0,88,112,0
0,56,0,5
0,60,0,3
0,61,48,7
0,58,50,3
0,44,57,6
0,69,73,0
0,70,85,0
0,88,70,0
0,92,103,0
0,92,0,0
0,58,0,6
0,61,0,1
0,44,0,14
0,72,103,17
0,44,64,2
0,69,58,0
0,70,90,0
0,88,55,0
0,44,61,31
0,35,106,0
0,69,37,0
0,70,90,0
0,88,34,0
0,94,127,0
0,35,0,0
0,69,0,0
0,88,0,0
0,94,0,0
0,44,0,7
0,63,0,0
0,56,0,1
0,60,0,0
0,75,116,6
0,29,106,4
0,41,88,0
0,56,85,0
0,60,85,0
0,63,81,0
0,41,75,0
0,35,103,0
0,70,118,0
0,93,80,0
0,35,0,8
0,93,0,0
0,41,67,19
0,70,97,0
