track,note,velocity,time
0,34,62,0
0,63,56,0
0,53,62,0
0,58,66,0
0,34,35,0
0,53,35,0
0,58,39,0
0,63,29,0
0,65,64,0
0,70,56,0
0,75,56,0
0,82,64,0
0,87,66,0
0,64,60,0
0,31,113,0
0,59,69,0
0,55,103,0
0,59,103,0
0,62,103,0
0,55,66,0
0,35,120,0
0,57,65,0
0,55,47,0
0,59,47,0
0,55,57,0
0,59,63,0
0,62,50,0
0,44,49,0
0,82,26,0
0,42,65,0
0,44,50,80
0,82,26,0
0,28,100,0
0,40,102,0
0,42,82,0
0,44,55,5
0,82,26,0
0,31,105,90
0,35,102,0
0,42,67,0
0,75,62,0
0,44,57,40
0,75,66,0
0,82,26,0
0,31,115,0
0,60,62,0
0,35,120,0
0,42,77,0
0,60,57,0
0,44,48,90
0,82,26,0
0,42,55,90
0,44,45,90
0,82,26,0
0,59,68,0
0,28,100,0
0,40,102,0
0,42,76,0
0,59,57,0
0,44,53,10
0,63,73,0
0,82,26,0
0,59,109,0
0,62,96,90
0,42,65,0
0,64,68,0
0,44,67,90
0,64,73,0
0,82,26,0
0,28,113,0
0,59,64,0
0,35,120,0
0,42,70,0
0,55,47,0
0,59,47,0
0,55,97,0
0,59,103,0
0,62,101,0
0,52,49,0
0,55,57,0
0,59,57,0
0,44,49,0
0,82,26,0
0,42,65,20
0,44,50,90
0,82,26,0
0,28,100,0
0,40,102,0
0,42,82,0
0,44,55,10
0,82,26,0
0,28,105,90
0,35,102,0
0,42,67,0
0,75,62,0
0,44,57,20
0,75,66,0
0,82,26,0
0,28,117,0
0,35,120,0
0,42,77,0
0,44,48,90
0,82,26,0
0,42,55,90
0,44,45,90
0,82,26,0
0,28,100,90
0,40,102,0
0,42,76,0
0,44,53,55
0,63,73,0
0,82,26,0
0,55,73,0
0,60,94,0
0,62,109,20
0,42,65,0
0,64,68,0
0,44,67,90
0,64,73,0
0,82,26,0
0,24,121,15
0,60,69,0
0,35,120,0
0,42,70,0
0,55,47,0
0,60,47,0
0,55,96,0
0,60,106,0
0,64,103,0
0,55,57,0
0,60,60,0
0,64,50,0
0,44,49,90
0,82,26,0
0,42,65,90
0,44,50,90
0,82,26,0
0,28,100,90
0,40,102,0
0,42,82,0
0,44,55,90
0,82,26,0
0,24,113,90
0,35,102,0
0,42,67,0
0,75,62,0
0,44,57,15
0,75,66,0
0,82,26,0
0,24,123,0
0,62,71,0
0,35,120,0
0,42,77,0
0,62,57,0
0,44,48,90
0,82,26,0
0,42,55,90
0,44,45,90
0,82,26,0
0,60,73,0
0,28,100,0
0,40,102,0
0,42,76,0
0,60,57,0
0,44,53,0
0,63,73,0
0,82,26,0
0,55,85,0
0,60,94,0
0,55,101,10
0,62,101,0
0,42,65,0
0,64,68,0
0,44,67,90
0,64,73,0
0,82,26,0
0,26,115,10
0,57,64,0
0,35,120,0
0,42,70,0
0,57,65,0
0,57,47,0
0,62,47,0
0,57,103,0
0,62,114,0
0,67,103,0
0,57,57,0
0,62,57,0
0,67,57,0
0,44,49,90
0,82,26,0
0,42,65,90
0,44,50,90
0,82,26,0
0,28,100,90
0,40,102,0
0,42,82,0
0,44,55,90
0,82,26,0
0,26,107,70
0,35,102,0
0,42,67,0
0,75,62,0
0,44,57,40
0,75,66,0
0,82,26,0
0,26,117,45
0,35,120,0
0,42,77,0
0,57,90,0
0,62,91,0
0,66,90,0
0,66,57,0
0,28,100,90
0,40,102,0
0,44,48,0
0,82,26,0
0,42,55,90
0,33,107,90
0,35,105,0
0,44,45,0
0,82,26,0
0,28,92,90
0,40,93,0
0,42,76,0
0,28,100,5
0,40,102,0
0,44,53,0
0,63,73,0
0,82,26,0
0,57,86,0
0,38,101,40
0,57,94,0
0,62,94,0
0,66,94,0
0,42,65,0
0,45,84,0
0,64,68,0
0,26,121,90
0,43,84,0
0,44,67,0
0,64,73,0
0,82,26,0
0,31,113,5
0,59,69,0
0,35,120,0
0,42,70,0
0,57,65,0
0,55,47,0
0,59,47,0
0,55,103,0
0,59,103,0
0,62,103,0
0,55,57,0
0,59,63,0
0,62,50,0
0,55,71,20
0,44,49,90
0,82,26,0
0,42,65,90
0,44,50,90
0,82,26,0
0,28,100,90
0,40,102,0
0,42,82,0
0,44,55,5
0,82,26,0
0,31,105,90
0,35,102,0
0,42,67,0
0,75,62,0
0,44,57,40
0,75,66,0
0,82,26,0
0,31,115,90
0,60,62,0
0,35,120,0
0,42,77,0
0,60,57,0
0,44,48,90
0,82,26,0
0,42,55,90
0,44,45,90
0,82,26,0
0,59,68,0
0,28,100,0
0,40,102,0
0,42,76,0
0,59,57,0
0,35,101,20
0,44,53,0
0,63,73,0
0,82,26,0
0,59,109,0
0,38,109,0
0,62,96,0
0,42,65,0
0,64,68,0
0,44,67,90
0,64,73,0
0,82,26,0
0,40,113,5
0,59,64,0
0,35,120,0
0,42,70,0
0,55,47,0
0,59,47,0
0,55,97,0
0,59,103,0
0,62,101,0
0,52,49,0
0,55,57,0
0,59,57,0
0,44,49,90
0,82,26,0
0,42,65,90
0,44,50,90
0,82,26,0
0,28,100,90
0,40,102,0
0,42,82,0
0,44,55,10
0,82,26,0
0,28,105,90
0,35,102,0
0,42,67,0
0,75,62,0
0,44,57,20
0,75,66,0
0,82,26,0
0,28,117,90
0,35,120,0
0,42,77,0
0,44,48,90
0,82,26,0
0,42,55,90
0,44,45,90
0,82,26,0
0,28,100,90
0,40,102,0
0,42,76,0
0,44,53,55
0,63,73,0
0,82,26,0
0,55,73,0
0,60,94,0
0,40,105,20
0,62,109,0
0,42,65,0
0,64,68,0
0,38,99,20
0,44,67,0
0,64,73,0
0,82,26,0
0,36,121,15
0,60,69,0
0,35,120,0
0,42,70,0
0,55,47,0
0,60,47,0
0,55,96,0
0,60,106,0
0,64,103,0
0,55,57,0
0,60,60,0
0,64,50,0
0,44,49,90
0,82,26,0
0,42,65,90
0,44,50,90
0,82,26,0
0,28,100,90
0,40,102,0
0,42,82,0
0,44,55,90
0,82,26,0
0,36,113,90
0,35,102,0
0,42,67,0
0,75,62,0
0,44,57,15
0,75,66,0
0,82,26,0
0,36,123,0
0,62,71,0
0,35,120,0
0,42,77,0
0,62,57,0
0,44,48,90
0,82,26,0
0,42,55,90
0,44,45,90
0,82,26,0
0,60,73,0
0,28,100,0
0,40,102,0
0,42,76,0
0,60,57,0
0,44,53,40
0,63,73,0
0,82,26,0
0,55,85,0
0,60,94,0
0,33,103,10
0,55,101,0
0,62,101,0
0,42,65,0
0,64,68,0
0,36,107,15
0,44,67,0
0,64,73,0
0,82,26,0
0,38,115,15
0,57,64,0
0,35,120,0
0,42,70,0
0,57,65,0
0,57,47,0
0,62,47,0
0,57,103,0
0,62,114,0
0,67,103,0
0,57,57,0
0,62,57,0
0,67,57,0
0,44,49,90
0,82,26,0
0,42,65,90
0,44,50,90
0,82,26,0
0,28,100,90
0,40,102,0
0,42,82,0
0,44,55,35
0,82,26,0
0,26,107,90
0,35,102,0
0,42,67,0
0,75,62,0
0,44,57,40
0,75,66,0
0,82,26,0
0,26,117,45
0,35,120,0
0,42,77,0
0,57,90,0
0,62,91,0
0,66,90,0
0,66,57,0
0,28,100,80
0,40,102,0
0,44,48,0
0,82,26,0
0,42,55,0
0,35,105,0
0,44,45,0
0,82,26,0
0,38,117,0
0,28,101,0
0,40,101,0
0,42,76,0
0,44,53,5
0,63,73,0
0,82,26,0
0,57,86,0
0,33,105,0
0,57,94,0
0,62,94,0
0,66,94,0
0,42,65,0
0,45,84,0
0,64,68,0
0,26,97,5
0,43,84,0
0,44,67,0
0,64,73,0
0,82,26,0
0,31,113,5
0,74,110,0
0,35,120,0
0,42,70,0
0,57,65,0
0,55,27,0
0,62,27,0
0,55,101,0
0,59,101,0
0,62,101,0
0,55,47,0
0,59,47,0
0,62,47,0
0,44,49,90
0,82,26,0
0,72,110,20
0,42,65,0
0,72,110,40
0,44,50,0
0,82,26,0
0,37,102,90
0,42,82,0
0,71,110,5
0,44,55,0
0,82,26,0
0,31,105,30
0,71,110,0
0,35,102,0
0,42,67,0
0,75,62,0
0,44,57,40
0,75,66,0
0,82,26,0
0,31,115,90
0,35,120,0
0,42,77,0
0,44,48,90
0,82,26,0
0,74,110,90
0,42,55,0
0,44,45,90
0,82,26,0
0,76,110,25
0,37,102,0
0,42,76,0
0,44,53,5
0,63,60,0
0,82,26,0
0,74,110,10
0,42,65,0
0,64,55,0
0,55,99,0
0,59,99,0
0,62,99,0
0,72,110,20
0,44,67,0
0,64,60,0
0,82,26,0
0,28,113,0
0,71,110,0
0,35,120,0
0,42,70,0
0,54,27,0
0,62,27,0
0,54,101,0
0,57,98,0
0,62,103,0
0,54,47,0
0,57,47,0
0,62,47,0
0,44,49,90
0,82,26,0
0,42,65,90
0,44,50,90
0,82,26,0
0,37,102,15
0,42,82,0
0,44,55,10
0,82,26,0
0,28,105,90
0,35,102,0
0,42,67,0
0,75,62,0
0,44,57,20
0,75,66,0
0,82,26,0
0,28,117,90
0,35,120,0
0,42,77,0
0,44,48,90
0,82,26,0
0,71,110,90
0,42,55,0
0,71,110,55
0,44,45,0
0,82,26,0
0,71,110,60
0,37,102,0
0,42,76,0
0,72,110,0
0,44,53,0
0,63,60,0
0,82,26,0
0,74,110,5
0,42,65,0
0,64,55,0
0,62,95,0
0,67,95,0
0,74,110,0
0,44,67,0
0,64,60,0
0,82,26,0
0,24,121,15
0,35,120,0
0,42,70,0
0,55,27,0
0,60,27,0
0,55,109,0
0,60,109,0
0,64,97,0
0,52,40,0
0,55,47,0
0,60,47,0
0,67,110,0
0,44,49,0
0,82,26,0
0,42,65,90
0,44,50,90
0,82,26,0
0,37,102,90
0,42,82,0
0,44,55,60
0,82,26,0
0,24,113,90
0,35,102,0
0,42,67,0
0,75,62,0
0,44,57,15
0,75,66,0
0,82,26,0
0,24,123,90
0,35,120,0
0,42,77,0
0,44,48,90
0,82,26,0
0,72,110,90
0,42,55,0
0,72,110,70
0,44,45,0
0,82,26,0
0,72,110,55
0,37,102,0
0,42,76,0
0,74,110,0
0,44,53,0
0,63,60,0
0,82,26,0
0,55,88,0
0,76,110,5
0,55,101,0
0,60,101,0
0,64,101,0
0,42,65,0
0,64,55,0
0,76,110,65
0,44,67,0
0,64,60,0
0,82,26,0
0,26,115,5
0,35,120,0
0,42,70,0
0,57,27,0
0,62,27,0
0,55,101,0
0,57,109,0
0,62,112,0
0,55,47,0
0,57,47,0
0,62,47,0
0,74,110,5
0,44,49,0
0,82,26,0
0,42,65,90
0,44,50,90
0,82,26,0
0,37,102,10
0,42,82,0
0,44,55,90
0,82,26,0
0,26,107,65
0,35,102,0
0,42,67,0
0,75,62,0
0,44,57,40
0,75,66,0
0,82,26,0
0,26,117,90
0,35,120,0
0,42,77,0
0,54,85,0
0,54,47,0
0,44,48,90
0,82,26,0
0,42,55,90
0,44,45,0
0,82,26,0
0,66,109,0
0,37,93,0
0,42,76,0
0,44,53,0
0,63,60,0
0,82,26,0
0,64,92,0
0,54,99,20
0,57,99,0
0,62,99,0
0,42,65,0
0,64,55,0
0,44,67,0
0,55,54,0
0,64,60,0
0,82,26,0
0,31,113,35
0,74,110,0
0,35,120,0
0,42,70,0
0,57,65,0
0,55,27,0
0,62,27,0
0,55,101,0
0,59,101,0
0,62,101,0
0,55,47,0
0,59,47,0
0,62,47,0
0,44,49,90
0,82,26,0
0,72,110,20
0,42,65,0
0,72,110,40
0,44,50,0
0,82,26,0
0,28,100,90
0,40,95,0
0,42,82,0
0,71,110,5
0,44,55,0
0,82,26,0
0,31,105,30
0,71,110,0
0,35,102,0
0,42,67,0
0,75,62,0
0,44,57,40
0,75,66,0
0,82,26,0
0,31,115,90
0,35,120,0
0,42,77,0
0,44,48,90
0,82,26,0
0,74,110,90
0,42,55,0
0,44,45,90
0,82,26,0
0,76,110,25
0,37,102,0
0,42,76,0
0,44,53,5
0,63,60,0
0,82,26,0
0,74,110,10
0,42,65,0
0,64,55,0
0,55,99,0
0,59,99,0
0,62,99,0
0,26,105,20
0,72,110,0
0,44,67,0
0,64,60,0
0,82,26,0
0,28,113,0
0,71,110,0
0,35,120,0
0,42,70,0
0,54,27,0
0,62,27,0
0,54,101,0
0,57,98,0
0,62,103,0
0,54,47,0
0,57,47,0
0,62,47,0
0,44,49,90
0,82,26,0
0,42,65,90
0,44,50,90
0,82,26,0
0,28,100,15
0,40,95,0
0,42,82,0
0,44,55,10
0,82,26,0
0,28,105,90
0,35,102,0
0,42,67,0
0,75,62,0
0,44,57,20
0,75,66,0
0,82,26,0
0,28,117,90
0,35,120,0
0,42,77,0
0,44,48,90
0,82,26,0
0,71,110,90
0,42,55,0
0,71,110,55
0,44,45,0
0,82,26,0
0,71,110,60
0,37,102,0
0,42,76,0
0,72,110,0
0,44,53,0
0,63,60,0
0,82,26,0
0,74,110,5
0,42,65,0
0,64,55,0
0,62,99,0
0,67,99,0
0,74,110,0
0,44,67,0
0,64,60,0
0,82,26,0
0,24,121,0
0,35,120,0
0,42,70,0
0,55,27,0
0,60,27,0
0,55,109,0
0,60,109,0
0,64,97,0
0,52,35,0
0,55,47,0
0,60,47,0
0,67,110,10
0,44,49,0
0,82,26,0
0,42,65,90
0,44,50,90
0,82,26,0
0,28,100,90
0,40,95,0
0,42,82,0
0,44,55,0
0,82,26,0
0,24,113,0
0,35,102,0
0,42,67,0
0,75,62,0
0,44,57,0
0,75,66,0
0,82,26,0
0,24,123,90
0,35,120,0
0,42,77,0
0,44,48,90
0,82,26,0
0,72,110,90
0,42,55,0
0,72,110,75
0,44,45,0
0,82,26,0
0,72,110,20
0,37,102,0
0,42,76,0
0,26,103,0
0,74,110,0
0,44,53,0
0,63,60,0
0,82,26,0
0,55,96,0
0,28,109,0
0,76,110,0
0,55,92,0
0,60,106,0
0,64,103,0
0,42,65,0
0,64,55,0
0,76,110,65
0,44,67,0
0,64,60,0
0,82,26,0
0,26,113,25
0,35,120,0
0,42,70,0
0,57,27,0
0,62,27,0
0,55,101,0
0,57,109,0
0,62,112,0
0,55,47,0
0,57,47,0
0,62,47,0
0,74,110,10
0,44,49,0
0,82,26,0
0,42,65,90
0,44,50,90
0,82,26,0
0,37,102,10
0,42,82,0
0,44,55,90
0,82,26,0
0,26,105,90
0,35,102,0
0,42,67,0
0,75,62,0
0,44,57,10
0,75,66,0
0,82,26,0
0,26,113,0
0,35,120,0
0,42,77,0
0,54,85,0
0,54,47,0
0,44,48,90
0,82,26,0
0,74,110,90
0,42,55,0
0,33,85,10
0,74,110,0
0,44,45,0
0,82,26,0
0,38,107,0
0,74,110,0
0,37,93,0
0,42,76,0
0,74,110,0
0,44,53,0
0,63,60,0
0,82,26,0
0,74,110,60
0,42,65,0
0,64,55,0
0,54,105,0
0,57,105,0
0,62,105,0
0,44,67,10
0,55,54,0
0,64,60,0
0,82,26,0
0,28,111,0
0,76,110,0
0,35,120,0
0,42,70,0
0,57,65,0
0,59,32,0
0,64,32,0
0,57,101,0
0,59,114,0
0,64,112,0
0,57,60,0
0,59,60,0
0,64,60,0
0,74,110,30
0,76,110,0
0,44,49,0
0,82,26,0
0,42,65,90
0,48,97,0
0,44,50,90
0,82,26,0
0,42,82,90
0,44,55,90
0,47,100,0
0,82,26,0
0,28,99,90
0,42,67,0
0,75,62,0
0,44,57,90
0,75,66,0
0,82,26,0
0,28,109,0
0,35,120,0
0,42,77,0
0,56,109,0
0,56,55,0
0,44,48,90
0,82,26,0
0,42,55,90
0,48,96,0
0,44,45,0
0,82,26,0
0,42,76,0
0,48,90,0
0,44,53,0
0,47,81,0
0,82,26,0
0,56,94,0
0,59,101,0
0,64,98,0
0,42,65,0
0,45,82,0
0,43,86,55
0,44,67,0
0,82,26,0
0,33,113,50
0,76,110,0
0,76,50,0
0,88,50,0
0,35,120,0
0,42,70,0
0,57,65,0
0,57,40,0
0,64,40,0
0,57,97,0
0,59,99,0
0,61,99,0
0,64,106,0
