track,note,velocity,time
1,59,82,605
1,52,80,0
1,59,66,0
1,43,88,0
1,36,92,0
1,71,90,0
1,43,68,0
1,59,80,0
1,54,84,0
1,43,68,0
1,76,90,0
1,54,59,0
1,43,68,0
1,64,82,0
1,64,80,0
1,54,84,0
1,43,88,0
1,36,92,0
1,78,90,0
1,52,80,0
1,71,90,0
1,59,80,0
1,83,90,0
1,59,76,0
1,64,80,0
1,41,88,0
1,36,92,0
1,71,90,0
1,41,68,0
1,52,80,0
1,54,84,0
1,41,68,0
1,78,90,0
1,54,59,0
1,41,68,0
1,59,80,0
1,54,84,0
1,41,88,0
1,76,90,0
1,63,70,0
1,63,80,0
1,63,114,0
1,43,88,0
1,36,92,0
1,71,90,0
1,43,68,0
1,54,80,0
1,71,48,0
1,54,84,0
1,43,68,0
1,76,90,0
1,54,59,0
1,43,68,0
1,63,64,0
1,59,80,0
1,63,108,0
1,54,84,0
1,43,88,0
1,36,92,0
1,78,90,0
1,61,76,0
1,63,80,0
1,61,108,0
1,71,90,0
1,54,80,0
1,83,90,0
1,61,82,0
1,59,80,0
1,61,105,0
1,71,90,0
1,59,76,0
1,63,80,0
1,59,108,0
1,73,127,0
1,78,90,0
1,52,80,0
1,76,90,0
1,59,82,17
1,59,66,0
1,71,127,0
1,43,88,0
1,36,92,0
1,71,90,0
1,43,68,0
1,59,80,0
1,54,84,0
1,43,68,0
1,76,90,0
1,54,59,0
1,43,68,0
1,64,82,0
1,64,80,0
1,54,84,0
1,43,88,0
1,36,92,0
1,78,90,0
1,52,80,0
1,71,90,0
1,59,80,0
1,83,90,0
1,59,76,0
1,64,80,0
1,41,88,0
1,36,92,0
1,71,90,0
1,41,68,0
1,52,80,0
1,54,84,0
1,41,68,0
1,78,90,0
1,54,59,0
1,41,68,0
1,59,80,0
1,54,84,0
1,41,88,0
1,76,90,0
1,63,70,0
1,63,80,0
1,63,114,0
1,43,88,0
1,36,92,0
1,71,90,0
1,43,68,0
1,54,80,0
1,71,48,0
1,54,84,0
1,43,68,0
1,76,90,0
1,54,59,0
1,43,68,0
1,63,64,0
1,59,80,0
1,63,108,0
1,54,84,0
1,43,88,0
1,36,92,0
1,78,90,0
1,61,76,0
1,63,80,0
1,61,108,0
1,71,90,0
1,54,80,0
1,83,90,0
1,61,82,0
1,59,80,0
1,61,105,0
1,71,90,0
1,38,70,0
1,36,92,0
1,38,82,55
1,59,76,0
1,63,80,0
1,59,108,0
1,38,90,0
1,76,90,0
1,59,80,0
1,75,90,0
1,80,127,0
1,68,94,0
1,59,110,0
1,49,98,0
1,36,92,0
1,40,114,5
1,81,122,0
1,69,102,0
1,80,80,0
1,42,62,0
1,80,60,70
1,71,100,7
1,83,116,0
1,59,92,0
1,42,96,0
1,38,90,0
1,59,70,13
1,69,127,50
1,81,127,0
1,80,80,0
1,40,114,5
1,80,60,3
1,42,96,70
1,36,92,0
1,40,114,5
1,80,116,30
1,68,92,0
1,59,92,0
1,80,80,0
1,42,62,0
1,39,86,0
1,36,92,0
1,80,60,67
1,42,96,70
1,38,90,0
1,59,110,190
1,80,80,0
1,39,86,0
1,80,60,70
1,80,127,0
1,68,100,0
1,66,110,0
1,42,96,0
1,36,92,0
1,39,114,2
1,81,122,190
1,69,104,0
1,80,80,0
1,42,62,0
1,80,60,68
1,83,104,70
1,71,90,0
1,59,84,0
1,42,96,0
1,38,90,0
1,59,76,10
1,69,122,58
1,81,127,0
1,80,80,0
1,39,114,5
1,80,60,7
1,42,96,70
1,36,92,0
1,39,114,5
1,80,116,0
1,68,88,0
1,59,98,0
1,80,80,0
1,42,62,0
1,39,86,0
1,36,92,0
1,80,60,60
1,42,96,70
1,38,90,0
1,59,104,190
1,80,80,0
1,39,86,0
1,80,60,70
1,68,92,0
1,80,122,0
1,64,110,0
1,42,96,0
1,36,92,0
1,37,114,5
1,81,122,190
1,69,96,0
1,80,80,0
1,42,62,0
1,80,60,47
1,71,86,70
1,83,104,0
1,59,84,0
1,42,96,0
1,38,90,0
1,59,78,63
1,69,110,62
1,81,127,0
1,80,80,0
1,37,114,5
1,80,60,9
1,42,96,70
1,36,92,0
1,37,114,5
1,80,110,57
1,68,92,0
1,59,98,0
1,80,80,0
1,42,62,0
1,39,86,0
1,36,92,0
1,80,60,65
1,42,96,70
1,38,90,0
1,66,96,0
1,78,116,0
1,59,92,0
1,80,80,0
1,39,86,0
1,80,60,70
1,64,110,0
1,42,96,0
1,36,92,0
1,35,114,5
1,80,80,190
1,42,62,0
1,80,60,48
1,59,84,70
1,42,96,0
1,38,90,0
1,59,74,40
1,80,80,42
1,35,114,5
1,80,60,15
1,64,116,0
1,59,116,0
1,63,90,0
1,42,96,0
1,36,92,0
1,35,114,5
1,63,92,190
1,59,92,0
1,80,80,0
1,42,62,0
1,39,86,0
1,36,92,0
1,80,60,57
1,61,104,70
1,42,96,0
1,38,90,0
1,52,50,0
1,59,98,0
1,59,115,0
1,80,80,0
1,39,86,0
1,80,60,70
1,80,127,0
1,68,94,0
1,59,110,0
1,57,88,0
1,36,92,0
1,40,114,0
1,81,122,0
1,69,102,0
1,80,80,0
1,42,62,0
1,80,60,0
1,71,100,7
1,83,116,0
1,59,92,0
1,42,96,0
1,38,90,0
1,59,70,0
1,69,127,50
1,81,127,0
1,80,80,0
1,40,114,5
1,80,60,0
1,42,96,60
1,36,92,0
1,40,114,5
1,80,116,30
1,68,92,0
1,59,92,0
1,80,80,0
1,42,62,0
1,39,86,0
1,36,92,0
1,80,60,0
1,42,96,60
1,38,90,0
1,59,110,60
1,80,80,0
1,39,86,0
1,80,60,70
1,80,127,0
1,68,100,0
1,66,110,0
1,42,96,0
1,36,92,0
1,39,114,2
1,81,122,190
1,69,104,0
1,80,80,0
1,42,62,0
1,80,60,68
1,83,104,70
1,71,90,0
1,59,84,0
1,42,96,0
1,38,90,0
1,59,76,10
1,69,122,58
1,81,127,0
1,80,80,0
1,39,114,5
1,80,60,7
1,42,96,70
1,36,92,0
1,39,114,5
1,80,116,0
1,68,88,0
1,59,98,0
1,80,80,0
1,42,62,0
1,39,86,0
1,36,92,0
1,80,60,60
1,42,96,70
1,38,90,0
1,59,104,190
1,80,80,0
1,39,86,0
1,80,60,70
1,68,92,0
1,80,122,0
1,64,110,0
1,42,96,0
1,36,92,0
1,37,114,5
1,81,122,190
1,69,96,0
1,80,80,0
1,42,62,0
1,80,60,47
1,71,86,70
1,83,104,0
1,59,84,0
1,42,96,0
1,38,90,0
1,59,78,63
1,69,110,62
1,81,127,0
1,80,80,0
1,37,114,5
1,80,60,9
1,42,96,70
1,36,92,0
1,37,114,5
1,80,110,57
1,68,92,0
1,59,98,0
1,80,80,0
1,42,62,0
1,39,86,0
1,36,92,0
1,80,60,65
1,42,96,70
1,38,90,0
1,66,96,0
1,78,116,0
1,59,92,0
1,80,80,0
1,39,86,0
1,80,60,70
1,64,110,0
1,42,96,0
1,36,92,0
1,35,114,5
1,80,80,190
1,42,62,0
1,80,60,48
1,59,84,70
1,42,96,0
1,38,90,0
1,59,74,40
1,80,80,42
1,35,114,5
1,80,60,15
1,64,109,0
1,59,78,0
1,63,90,0
1,42,96,0
1,36,92,0
1,35,114,5
1,63,92,190
1,59,92,0
1,80,80,0
1,42,62,0
1,39,86,0
1,36,92,0
1,80,60,57
1,61,98,70
1,42,96,0
1,38,90,0
1,59,76,0
1,59,115,0
1,80,80,0
1,39,86,0
1,80,60,70
1,59,60,0
1,59,121,0
1,55,98,0
1,36,92,0
1,100,102,0
1,40,114,0
1,88,102,0
1,40,114,5
1,64,98,0
1,95,102,0
1,32,114,0
1,59,104,0
1,88,102,0
1,64,116,0
1,46,73,0
1,38,90,0
1,100,102,0
1,35,114,0
1,88,102,0
1,64,104,0
1,59,86,0
1,95,102,0
1,40,100,0
1,88,102,0
1,64,104,0
1,64,80,0
1,64,98,0
1,46,73,0
1,100,102,0
1,88,102,0
1,64,96,0
1,63,50,0
1,95,102,0
1,28,114,0
1,63,80,0
1,63,121,0
1,36,72,0
1,88,102,0
1,64,116,0
1,46,73,0
1,38,90,0
1,100,102,0
1,66,116,0
1,88,102,0
1,66,88,0
1,64,80,0
1,64,104,0
1,36,72,0
1,95,102,0
1,28,114,5
1,88,102,0
1,59,98,0
1,46,73,0
1,36,92,0
1,100,102,0
1,40,114,0
1,88,102,0
1,40,114,5
1,64,90,0
1,95,102,0
1,32,114,5
1,59,84,0
1,88,102,0
1,64,116,0
1,46,73,0
1,38,90,0
1,100,102,0
1,35,114,0
1,88,102,0
1,64,98,0
1,59,84,0
1,95,102,0
1,40,100,0
1,88,102,0
1,64,104,0
1,64,80,0
1,64,98,0
1,46,73,0
1,36,72,0
1,100,102,0
1,88,102,0
1,64,98,0
1,95,102,0
1,28,114,0
1,63,80,0
1,63,121,0
1,88,102,0
1,64,116,0
1,46,73,0
1,38,90,0
1,100,102,0
1,66,110,0
1,88,102,0
1,64,80,0
1,64,104,0
1,95,102,0
1,28,114,5
1,66,96,0
1,88,102,0
1,59,86,0
1,46,73,0
1,36,92,0
1,100,102,0
1,40,114,0
1,88,102,0
1,40,114,5
1,64,92,0
1,95,102,0
1,32,114,5
1,59,92,0
1,88,102,0
1,64,116,0
1,46,73,0
1,38,90,0
1,100,102,0
1,35,100,0
1,88,102,0
1,64,110,0
1,59,92,0
1,95,102,0
1,40,114,0
1,88,102,0
1,64,104,0
1,64,80,0
1,64,104,0
1,46,73,0
1,100,102,0
1,88,102,0
1,64,104,0
1,95,102,0
1,28,114,0
1,63,80,0
1,63,110,0
1,36,72,0
1,88,102,0
1,64,122,0
1,46,73,0
1,38,90,0
1,100,102,0
1,63,88,0
1,88,102,0
1,64,80,0
1,64,86,0
1,36,72,0
1,95,102,0
1,28,114,5
1,61,122,0
1,88,102,0
1,59,92,0
1,46,73,0
1,36,92,0
1,100,102,0
1,40,100,0
1,88,102,0
1,59,110,0
1,95,102,0
1,32,114,5
1,59,92,0
1,88,102,0
1,46,73,0
1,38,90,0
1,100,102,0
1,33,114,0
1,88,102,0
1,59,98,0
1,95,102,0
1,35,114,0
1,88,102,0
1,63,80,0
1,63,127,0
1,46,73,0
1,36,92,0
1,99,102,0
1,87,102,0
1,39,86,0
1,95,102,0
1,61,110,0
1,87,102,0
1,46,73,0
1,39,86,0
1,38,90,0
1,99,102,0
1,87,102,0
1,59,98,0
1,39,86,0
1,95,102,0
1,87,102,0
1,59,60,0
1,57,88,0
1,55,98,0
1,36,92,0
1,100,104,0
1,40,114,0
1,88,104,0
1,40,114,5
1,64,110,0
1,80,80,0
1,42,62,0
1,95,104,0
1,32,114,0
1,59,98,0
1,80,60,0
1,88,104,0
1,64,127,0
1,38,90,0
1,46,73,0
1,42,96,0
1,100,104,0
1,35,114,0
1,88,104,0
1,64,116,0
1,59,98,0
1,80,80,0
1,95,104,0
1,40,100,0
1,80,60,0
1,88,104,0
1,64,127,0
1,64,80,0
1,64,92,0
1,46,73,0
1,42,96,0
1,36,92,0
1,100,104,0
1,88,104,0
1,64,116,0
1,80,80,0
1,42,62,0
1,39,86,0
1,36,92,0
1,95,104,0
1,28,114,0
1,63,80,0
1,63,98,0
1,80,60,0
1,36,72,0
1,88,104,0
1,64,110,0
1,38,90,0
1,46,73,0
1,42,96,0
1,100,104,0
1,66,116,0
1,88,104,0
1,66,84,0
1,64,80,0
1,64,98,0
1,80,80,0
1,39,86,0
1,36,72,0
1,95,104,0
1,28,114,5
1,80,60,0
1,88,104,0
1,59,98,0
1,36,92,0
1,46,73,0
1,42,96,0
1,100,104,0
1,40,114,0
1,88,104,0
1,40,114,5
1,64,116,0
1,80,80,0
1,42,62,0
1,95,104,0
1,32,114,5
1,59,92,0
1,80,60,0
1,88,104,0
1,64,110,0
1,38,90,0
1,46,73,0
1,42,96,0
1,100,104,0
1,35,114,0
1,88,104,0
1,64,104,0
1,59,92,0
1,80,80,0
1,95,104,0
1,40,100,0
1,80,60,0
1,88,104,0
1,64,110,0
1,64,80,0
1,64,98,0
1,36,72,0
1,46,73,0
1,42,96,0
1,100,104,0
1,88,104,0
1,64,96,0
1,80,80,0
1,42,62,0
1,39,86,0
1,36,92,0
1,95,104,0
1,28,114,0
1,63,80,0
1,63,98,0
1,80,60,0
1,88,104,0
1,64,116,0
1,38,90,0
1,46,73,0
1,42,96,0
1,100,104,0
1,66,116,0
1,88,104,0
1,66,90,0
1,64,80,0
1,64,84,0
1,80,80,0
1,39,86,0
1,95,104,0
1,28,114,5
1,80,60,0
1,88,104,0
1,59,104,0
1,36,92,0
1,46,73,0
1,42,96,0
1,100,104,0
1,40,114,0
1,88,104,0
1,40,114,5
1,64,90,0
1,80,80,0
1,42,62,0
1,95,104,0
1,32,114,5
1,59,104,0
1,80,60,0
1,88,104,0
1,64,110,0
1,38,90,0
1,46,73,0
1,42,96,0
1,100,104,0
1,35,100,0
1,88,104,0
1,64,110,0
1,59,92,0
1,80,80,0
1,95,104,0
1,40,114,0
1,80,60,0
1,88,104,0
1,64,122,0
1,64,80,0
1,64,98,0
1,46,73,0
1,42,96,0
1,36,92,0
1,100,104,0
1,88,104,0
1,64,116,0
1,80,80,0
1,42,62,0
1,39,86,0
1,36,92,0
1,95,104,0
1,28,114,0
1,63,80,0
1,63,92,0
1,80,60,0
1,36,72,0
1,88,104,0
1,64,122,0
1,38,90,0
1,46,73,0
1,42,96,0
1,100,104,0
1,63,94,0
1,88,104,0
1,64,80,0
1,64,82,0
1,80,80,0
1,39,86,0
1,36,72,0
1,95,104,0
1,28,114,5
1,61,110,0
1,80,60,0
1,88,104,0
1,59,104,0
1,36,92,0
1,46,73,0
1,42,96,0
1,100,104,0
1,40,100,0
1,88,104,0
1,59,110,0
1,80,80,0
1,42,62,0
1,95,104,0
1,32,114,5
1,59,98,0
1,80,60,0
1,88,104,0
1,38,90,0
1,46,73,0
1,42,96,0
1,100,104,0
1,33,114,0
1,88,104,0
1,59,84,0
1,80,80,0
1,95,104,0
1,35,114,0
1,80,60,0
1,88,104,0
1,64,80,0
1,64,98,0
1,36,92,0
1,46,73,0
1,42,96,0
1,99,104,0
1,87,104,0
1,80,80,0
1,42,62,0
1,39,86,0
1,36,92,0
1,95,104,0
1,63,80,0
1,63,104,0
1,80,60,0
1,38,56,0
1,87,104,0
1,38,74,10
1,38,90,0
1,42,96,0
1,99,104,0
1,38,80,0
1,87,104,0
1,61,80,0
1,61,115,0
1,80,80,0
1,39,86,0
1,38,80,0
1,95,104,0
1,80,60,0
1,87,104,0
1,45,84,0
1,64,86,0
1,49,98,0
1,36,92,0
1,88,122,0
1,33,114,0
1,69,66,2
1,76,122,0
1,73,116,0
1,42,65,0
1,81,122,0
1,64,92,0
1,76,122,0
1,73,116,0
1,42,96,0
1,38,90,0
1,88,122,0
1,76,122,0
1,73,116,0
1,64,86,0
1,42,65,0
1,36,72,0
1,81,122,0
1,33,114,5
1,76,122,0
1,73,116,0
1,64,32,0
1,42,96,0
1,36,92,0
1,88,122,0
1,33,114,5
1,64,92,0
1,76,122,0
1,75,116,0
1,64,31,0
1,42,65,0
1,81,122,0
1,76,116,0
1,76,122,0
1,64,86,0
1,42,96,0
1,38,90,0
1,88,122,0
1,76,122,0
1,42,65,0
1,81,122,0
1,76,122,0
1,44,84,0
1,64,92,0
1,42,96,0
1,36,92,0
1,88,122,0
1,32,114,5
1,68,66,0
1,76,122,0
1,73,96,0
1,42,65,0
1,80,122,0
1,64,86,0
1,76,122,0
1,73,104,0
1,42,96,0
1,38,90,0
1,88,122,0
1,76,122,0
1,73,96,0
1,64,86,0
1,42,65,0
1,36,72,0
1,80,122,0
1,32,114,5
1,76,122,0
1,73,110,0
1,42,96,0
1,36,92,0
1,88,122,0
1,32,114,5
1,64,80,0
1,76,122,0
1,75,96,0
1,42,65,0
1,39,86,0
1,80,122,0
1,76,110,0
1,76,122,0
1,64,86,0
1,42,96,0
1,39,86,0
1,38,90,0
1,88,122,0
