track,note,velocity,time
1,32,93,15811
1,33,76,10
1,32,85,10
1,30,93,10
1,26,79,10
1,26,97,10
1,28,102,48
1,30,105,10
1,32,97,10
1,33,93,10
1,32,93,10
1,30,110,10
1,25,105,10
1,26,105,10
1,33,105,10
1,32,97,10
1,29,105,10
1,30,103,10
1,28,102,10
1,26,97,10
1,28,107,10
1,33,93,10
1,32,93,10
1,30,110,10
1,26,105,14
1,37,90,0
1,35,107,144
1,33,102,10
1,32,103,10
1,29,107,10
1,30,97,10
1,28,93,10
1,26,102,10
1,28,107,10
1,35,120,26
1,35,107,48
1,35,107,0
1,35,120,48
1,51,110,0
1,54,80,0
1,51,89,48
1,42,103,48
1,35,124,144
1,35,97,48
1,51,105,0
1,54,103,0
1,51,110,48
1,47,107,92
1,42,93,48
1,47,97,0
1,39,124,96
1,40,114,0
1,42,122,0
1,44,122,0
1,47,122,0
1,52,122,0
1,51,122,192
1,49,122,192
1,51,122,0
1,52,122,0
1,54,113,0
1,56,110,0
1,44,124,384
1,39,124,48
1,37,124,48
1,36,124,48
1,39,124,0
1,32,124,48
1,30,124,48
1,27,124,48
1,25,119,48
1,25,119,162
1,25,119,14
1,30,119,38
1,32,119,6
1,37,119,4
1,36,119,48
1,36,119,88
1,36,119,8
1,34,119,80
1,34,119,134
1,34,119,10
1,32,119,116
1,30,119,96
1,30,119,140
1,30,119,2
1,42,113,48
1,41,113,6
1,37,112,48
1,39,124,10
1,39,119,96
1,37,119,48
1,37,119,68
1,36,119,48
1,36,119,28
1,35,119,10
1,34,119,10
1,33,119,4
1,33,119,126
1,34,119,2
1,34,119,32
1,32,119,48
1,32,119,46
1,30,119,2
1,30,119,36
1,30,119,20
1,31,119,48
1,32,119,6
1,39,119,144
1,44,119,4
1,39,119,6
1,32,119,2
1,25,119,8
1,25,119,162
1,25,119,14
1,30,119,38
1,32,119,6
1,37,119,4
1,36,119,48
1,36,119,88
1,36,119,8
1,34,119,80
1,34,119,134
1,34,119,10
1,32,119,116
1,30,119,96
1,30,119,140
1,30,119,2
1,30,122,48
1,32,122,0
1,34,124,0
1,34,122,96
1,34,122,0
1,32,124,48
1,34,118,48
1,36,114,2
1,36,122,48
1,36,122,0
1,32,124,2
1,25,119,22
1,25,119,162
1,25,119,14
1,30,119,38
1,32,119,6
1,37,119,4
1,36,119,48
1,36,119,88
1,36,119,8
1,34,119,80
1,34,119,134
1,34,119,10
1,32,119,116
1,30,122,96
1,37,99,0
1,42,98,48
1,49,99,48
1,42,99,48
1,56,100,0
1,54,101,40
1,49,101,48
1,39,124,144
1,39,119,96
1,37,119,48
1,37,119,68
1,36,119,48
1,36,119,28
1,35,119,10
1,34,119,10
1,33,119,4
1,33,119,126
1,34,119,2
1,34,119,32
1,32,119,48
1,32,119,46
1,30,119,2
1,30,119,36
1,30,119,20
1,31,119,48
1,32,119,6
1,39,119,144
1,44,119,4
1,39,119,6
1,32,119,2
1,25,119,8
1,25,119,162
1,25,119,14
1,30,119,38
1,32,119,6
1,37,119,4
1,36,119,48
1,36,119,88
1,36,119,8
1,34,119,80
1,34,119,134
1,34,119,10
1,32,119,116
1,30,119,96
1,30,119,140
1,30,119,2
1,42,113,48
1,41,113,6
1,37,112,48
1,39,124,10
1,39,119,96
1,37,119,48
1,37,119,68
1,36,119,48
1,36,119,28
1,35,119,10
1,34,119,10
1,33,119,4
1,33,119,126
1,34,119,2
1,34,119,32
1,32,119,48
1,32,119,46
1,30,119,2
1,30,119,36
1,30,119,20
1,31,119,48
1,32,119,6
1,39,119,144
1,44,119,4
1,39,119,6
1,32,119,2
1,25,119,8
1,25,119,162
1,25,119,14
1,30,119,38
1,32,119,6
1,37,119,4
1,36,119,48
1,36,119,88
1,36,119,8
1,34,119,80
1,34,119,134
1,34,119,10
1,32,119,116
1,30,119,96
1,30,119,140
1,30,119,2
1,42,113,48
1,41,113,6
1,37,112,48
1,39,124,10
1,39,119,96
1,37,119,48
1,37,119,68
1,36,119,48
1,36,119,28
1,35,119,10
1,34,119,10
1,33,119,4
1,33,119,126
1,34,119,2
1,34,119,32
1,32,119,48
1,32,119,46
1,30,119,2
1,30,119,36
1,30,119,20
1,31,119,48
1,32,119,6
1,39,119,144
1,44,119,4
1,39,119,6
1,32,119,2
1,37,122,8
2,52,80,7984
2,64,80,144
2,52,62,144
2,57,62,0
2,61,72,0
2,52,59,72
2,56,59,0
2,59,55,0
2,42,55,74
2,49,61,0
2,52,55,0
2,57,62,0
2,38,52,4
2,45,48,0
2,54,65,0
2,45,61,1560
2,52,93,0
2,62,101,0
2,61,102,4
2,45,70,8
2,52,97,0
2,64,88,0
2,64,88,62
2,62,54,6
2,61,102,6
2,44,65,26
2,52,88,0
2,61,95,0
2,59,75,20
2,42,71,48
2,52,97,0
2,56,86,0
2,59,88,0
2,54,78,8
2,57,75,0
2,42,78,8
2,52,93,0
2,57,80,0
2,61,102,0
2,61,102,42
2,59,87,2
2,57,81,14
2,38,54,2
2,45,61,0
2,52,75,0
2,56,78,0
2,50,70,12
2,54,78,0
2,44,81,0
2,52,81,0
2,56,81,0
2,59,81,0
2,45,85,10
2,52,85,0
2,57,85,0
2,61,85,0
2,44,86,768
2,52,64,0
2,56,72,0
2,59,69,0
2,42,80,84
2,49,86,0
2,52,85,0
2,57,76,0
2,38,80,8
2,50,62,0
2,54,76,0
2,57,64,0
2,38,112,46
2,40,97,48
2,42,120,44
2,54,93,0
2,57,76,0
2,62,85,0
2,44,117,34
2,56,93,0
2,59,67,0
2,64,72,0
2,52,103,480
2,59,108,8
2,45,69,4
2,52,80,0
2,57,85,0
2,61,86,0
2,44,101,10
2,52,64,0
2,56,86,0
2,59,69,0
2,42,93,10
2,49,80,0
2,52,90,0
2,57,69,0
2,37,93,624
2,38,62,6
2,50,67,0
2,54,76,0
2,57,64,0
2,45,69,28
2,52,69,0
2,57,64,0
2,61,68,0
2,44,80,10
2,52,48,0
2,56,86,0
2,59,72,0
2,41,97,10
2,49,80,0
2,53,76,0
2,59,80,0
2,42,80,10
2,52,69,0
2,57,76,0
2,61,72,0
2,40,76,10
2,52,62,0
2,57,76,0
2,61,76,0
2,38,76,10
2,50,72,0
2,54,72,0
2,57,67,0
2,40,69,10
2,52,67,0
2,56,68,0
2,59,67,0
2,45,76,0
2,52,108,0
2,62,116,0
2,61,117,4
2,45,85,8
2,52,112,0
2,64,103,0
2,44,80,36
2,52,103,0
2,61,110,0
2,59,90,20
2,52,97,336
2,59,103,26
2,42,86,14
2,52,112,0
2,56,101,0
2,59,103,0
2,54,93,8
2,57,90,0
2,42,93,8
2,52,108,0
2,57,95,0
2,61,117,0
2,57,67,0
2,38,69,2
2,45,76,0
2,52,90,0
2,56,93,0
2,50,85,12
2,54,93,0
2,49,79,0
2,52,79,0
2,57,79,0
2,61,79,0
2,47,93,10
2,54,93,0
2,57,93,0
2,62,93,0
2,45,90,26
2,54,90,0
2,57,90,0
2,62,90,0
2,44,85,8
2,56,85,0
2,59,85,0
2,64,85,0
2,41,85,20
2,56,85,0
2,61,85,0
2,65,85,0
2,42,85,34
2,57,85,0
2,61,85,0
2,64,85,0
2,40,79,16
2,52,79,0
2,57,79,0
2,61,79,0
2,38,76,4
2,54,76,0
2,57,76,0
2,62,76,0
2,40,73,10
2,56,73,0
2,59,73,0
2,64,73,0
2,47,96,18
2,54,96,0
2,59,96,0
2,63,96,0
2,54,96,20
2,59,96,0
2,63,96,0
2,47,96,20
2,56,96,0
2,61,96,0
2,64,96,0
2,56,96,22
2,61,96,0
2,64,96,0
2,47,96,30
2,58,96,0
2,63,96,0
2,66,96,0
2,58,96,26
2,63,96,0
2,66,96,0
2,47,96,38
2,56,96,0
2,61,96,0
2,64,96,0
2,56,96,2
2,61,96,0
2,64,96,0
2,39,97,6
2,59,97,0
2,63,97,0
2,66,97,0
2,59,97,32
2,63,97,0
2,66,97,0
2,40,97,22
2,59,97,0
2,64,97,0
2,68,97,0
2,37,97,38
2,59,97,0
2,64,97,0
2,68,97,0
2,40,97,30
2,59,97,0
2,63,97,0
2,68,97,0
2,59,97,42
2,42,97,24
2,59,97,0
2,61,97,0
2,66,97,0
2,42,97,48
2,59,97,0
2,61,97,0
2,66,97,0
2,44,97,42
2,61,97,0
2,63,97,0
2,68,97,0
2,44,97,40
2,61,97,0
2,63,97,0
2,68,97,0
2,60,97,28
2,63,97,0
2,68,97,0
2,60,97,46
2,63,97,0
2,68,97,0
2,49,112,10
2,56,112,0
2,61,112,0
2,65,112,0
2,56,112,30
2,61,112,0
2,65,112,0
2,48,95,2
2,56,112,0
2,60,112,0
2,63,112,0
2,56,112,0
2,60,112,0
2,63,112,0
2,46,95,26
2,53,112,0
2,58,112,0
2,61,112,0
2,53,112,0
2,56,112,0
2,61,112,0
2,42,95,24
2,54,112,0
2,58,112,0
2,61,112,0
2,51,102,80
2,58,102,0
2,63,102,0
2,66,102,0
2,49,102,28
2,58,102,0
2,63,102,0
2,66,102,0
2,48,102,2
2,56,102,0
2,60,102,0
2,63,102,0
2,45,105,2
2,53,105,0
2,60,105,0
2,63,105,0
2,46,102,0
2,53,102,0
2,56,102,0
2,61,102,0
2,44,102,8
2,44,102,16
2,53,102,0
2,56,102,0
2,61,102,0
2,42,102,26
2,54,102,0
2,58,102,0
2,61,102,0
2,44,102,32
2,56,102,192
2,60,102,0
2,63,102,0
2,49,112,48
2,56,112,0
2,61,112,0
2,65,112,0
2,56,112,30
2,61,112,0
2,65,112,0
2,48,95,2
2,56,112,0
2,60,112,0
2,63,112,0
2,56,112,0
2,60,112,0
2,63,112,0
2,46,95,26
2,53,112,0
2,58,112,0
2,61,112,0
2,53,112,0
2,56,112,0
2,61,112,0
2,42,95,24
2,54,112,0
2,58,112,0
2,61,112,0
2,46,102,80
2,61,102,0
2,66,102,0
2,70,102,0
2,61,102,26
2,66,102,0
2,70,102,0
2,48,102,48
2,63,102,0
2,68,102,0
2,72,102,0
2,63,102,34
2,68,102,0
2,72,102,0
2,49,112,26
2,56,112,0
2,61,112,0
2,65,112,0
2,56,112,30
2,61,112,0
2,65,112,0
2,48,95,2
2,56,112,0
2,60,112,0
2,63,112,0
2,56,112,0
2,60,112,0
2,63,112,0
2,46,95,26
2,53,112,0
2,58,112,0
2,61,112,0
2,53,112,0
2,56,112,0
2,61,112,0
2,42,95,24
2,54,112,0
2,58,112,0
2,61,112,0
2,51,102,80
2,58,102,0
2,63,102,0
2,66,102,0
2,49,102,28
2,58,102,0
2,63,102,0
2,66,102,0
2,48,102,2
2,56,102,0
2,60,102,0
2,63,102,0
2,45,105,2
2,53,105,0
2,60,105,0
2,63,105,0
2,46,102,0
2,53,102,0
2,56,102,0
2,61,102,0
2,44,102,8
2,44,102,16
2,53,102,0
2,56,102,0
2,61,102,0
2,42,102,26
2,54,102,0
2,58,102,0
2,61,102,0
2,44,102,32
2,56,102,192
2,60,102,0
2,63,102,0
2,49,112,48
2,56,112,0
2,61,112,0
2,65,112,0
2,56,112,30
2,61,112,0
2,65,112,0
2,48,95,2
2,56,112,0
2,60,112,0
2,63,112,0
2,56,112,0
2,60,112,0
2,63,112,0
2,46,95,26
2,53,112,0
2,58,112,0
2,61,112,0
2,53,112,0
2,56,112,0
2,61,112,0
2,42,95,24
2,54,112,0
2,58,112,0
2,61,112,0
2,51,102,80
2,58,102,0
2,63,102,0
2,66,102,0
2,49,102,28
2,58,102,0
2,63,102,0
2,66,102,0
2,48,102,2
2,56,102,0
2,60,102,0
2,63,102,0
2,45,105,2
2,53,105,0
2,60,105,0
2,63,105,0
2,46,102,0
2,53,102,0
2,56,102,0
2,61,102,0
2,44,102,8
2,44,102,16
2,53,102,0
2,56,102,0
2,61,102,0
2,42,102,26
2,54,102,0
2,58,102,0
2,61,102,0
2,44,102,32
2,56,102,192
2,60,102,0
2,63,102,0
2,49,112,48
2,56,112,0
2,61,112,0
2,65,112,0
2,56,112,30
2,61,112,0
2,65,112,0
2,48,95,2
2,56,112,0
2,60,112,0
2,63,112,0
2,56,112,0
2,60,112,0
2,63,112,0
2,46,95,26
2,53,112,0
2,58,112,0
2,61,112,0
2,53,112,0
2,56,112,0
2,61,112,0
2,42,95,24
2,54,112,0
2,58,112,0
2,61,112,0
2,51,102,80
2,58,102,0
2,63,102,0
2,66,102,0
2,49,102,28
2,58,102,0
2,63,102,0
2,66,102,0
2,48,102,2
2,56,102,0
2,60,102,0
2,63,102,0
2,45,105,2
2,53,105,0
2,60,105,0
2,63,105,0
2,46,102,0
2,53,102,0
2,56,102,0
2,61,102,0
2,44,102,8
2,44,102,16
2,53,102,0
2,56,102,0
2,61,102,0
2,42,102,26
2,54,102,0
2,58,102,0
2,61,102,0
2,44,102,32
2,56,102,192
2,60,102,0
2,63,102,0
2,37,122,48
2,56,122,0
2,61,122,0
2,65,122,0
3,61,90,3648
3,62,109,19
3,61,0,9
3,62,0,117
3,61,112,2
3,61,0,144
3,64,117,10
3,64,0,188
3,64,82,41
3,64,0,28
3,64,95,26
3,64,0,44
3,62,113,24
3,62,0,37
3,61,100,29
3,61,0,44
3,61,118,29
3,61,0,115
3,59,97,15
3,59,0,445
3,57,80,166
3,59,117,16
3,57,0,8
3,57,92,125
3,59,0,1
3,61,118,146
3,57,0,1
3,61,0,201
3,61,106,37
3,61,0,17
3,61,127,30
3,61,0,46
3,59,88,2
3,59,0,27
3,57,117,25
3,57,0,55
3,54,95,46
3,56,112,16
3,54,0,7
3,56,0,113
3,54,126,8
3,54,0,464
3,54,96,250
3,56,96,60
3,57,91,60
3,56,97,60
3,57,92,60
3,59,100,60
3,61,80,375
3,62,117,6
3,61,0,8
3,62,0,122
3,61,118,6
3,61,0,142
3,64,122,9
3,64,0,193
3,64,113,41
3,64,0,24
3,64,106,28
3,64,0,50
3,62,113,18
3,62,0,33
3,61,106,30
3,61,0,35
3,61,127,38
3,61,0,113
3,59,100,15
3,59,0,307
3,59,98,318
3,57,98,60
3,61,105,60
3,61,96,60
3,61,97,44
3,59,94,44
3,57,94,44
3,56,103,60
3,54,97,60
3,59,77,717
3,61,126,13
3,59,0,9
3,61,0,121
3,54,118,3
3,54,0,139
3,57,117,5
3,57,0,257
3,56,96,221
3,56,97,44
3,56,97,60
3,57,91,44
3,59,94,44
3,59,97,60
3,59,97,44
3,59,97,44
3,57,100,60
3,56,105,44
3,57,103,60
3,55,77,2681
3,56,127,17
3,55,0,7
3,56,0,136
3,57,100,3
3,57,0,129
3,52,106,11
3,52,0,126
3,56,126,15
3,57,109,147
3,56,0,4
3,57,0,84
3,56,126,109
3,56,0,116
3,57,103,18
3,57,0,75
3,52,84,20
3,54,126,27
3,52,0,6
3,54,0,66
3,52,113,6
3,52,0,304
3,56,94,117
3,57,94,60
3,61,94,60
3,59,94,60
3,57,93,60
3,56,93,60
3,57,93,60
3,54,93,60
3,61,101,384
3,54,101,24
3,57,101,12
3,56,107,118
3,56,107,26
3,56,107,26
3,57,107,64
3,59,107,28
3,59,107,70
3,57,107,48
3,56,107,52
3,64,100,49
3,66,127,25
3,64,0,6
3,66,0,118
3,64,117,12
3,64,0,385
3,64,67,37
3,64,0,36
3,66,106,13
3,66,0,20
3,64,58,489
3,66,127,23
3,64,0,6
3,66,0,79
3,64,103,10
3,64,0,82
3,61,118,24
3,61,0,67
3,59,106,22
3,59,0,61
3,59,113,37
3,59,0,37
3,57,122,14
3,57,0,458
3,66,109,634
3,64,109,44
3,64,108,60
3,61,108,60
3,64,107,60
3,59,107,60
3,61,107,44
3,62,103,60
3,61,103,44
3,59,98,60
3,52,103,60
3,66,103,44
3,64,102,44
3,61,102,60
3,59,102,60
3,59,101,60
3,57,100,60
3,61,100,60
3,59,99,60
3,57,98,60
3,54,100,60
3,56,100,44
3,57,100,60
3,61,99,60
3,59,99,60
3,57,98,60
3,62,66,2760
3,64,117,21
3,62,0,6
3,64,0,132
3,62,109,6
3,62,0,125
3,66,127,15
3,66,0,114
3,66,126,38
