track,note,velocity,time
1,71,25,46
1,66,50,7
1,63,73,4
1,54,79,6
1,59,81,0
1,63,80,0
1,44,80,6
1,87,63,0
1,35,107,0
1,61,74,0
1,47,123,0
1,90,79,24
1,44,59,14
1,90,109,30
1,44,80,14
1,90,84,30
1,44,57,14
1,90,112,30
1,44,71,14
1,90,75,30
1,44,62,14
1,90,106,30
1,44,72,14
1,90,83,30
1,44,63,14
1,90,108,30
1,61,105,14
1,44,79,0
1,85,50,0
1,90,81,13
1,44,65,14
1,90,103,30
1,44,75,14
1,90,79,30
1,66,112,9
1,44,57,0
1,90,84,0
1,90,107,18
1,44,77,14
1,90,83,30
1,44,65,14
1,90,105,30
1,59,111,9
1,44,71,0
1,87,79,0
1,90,83,22
1,44,62,14
1,90,104,0
1,54,80,1
1,59,77,0
1,63,75,0
1,44,73,6
1,32,98,0
1,51,80,0
1,56,80,0
1,59,82,0
1,63,85,0
1,44,119,1
1,90,81,30
1,44,59,14
1,44,30,0
1,90,109,30
1,44,74,9
1,51,45,0
1,90,84,30
1,44,56,9
1,54,82,0
1,58,74,0
1,61,82,0
1,90,106,7
1,44,71,14
1,44,40,0
1,90,77,30
1,44,64,9
1,51,47,0
1,90,103,30
1,44,77,14
1,32,90,0
1,56,77,0
1,59,79,0
1,63,75,0
1,90,76,30
1,44,60,14
1,90,109,30
1,61,107,9
1,44,79,0
1,85,50,0
1,90,75,17
1,44,58,14
1,90,107,30
1,44,75,14
1,90,84,30
1,66,103,9
1,44,62,0
1,90,83,0
1,90,105,21
1,44,81,14
1,90,79,30
1,44,67,14
1,90,111,30
1,59,108,9
1,44,79,0
1,87,79,0
1,90,77,23
1,44,63,14
1,90,103,1
1,54,77,3
1,59,74,0
1,63,74,0
1,44,74,6
1,28,111,0
1,40,93,0
1,52,75,0
1,56,70,0
1,59,91,0
1,40,124,0
1,90,78,30
1,44,59,14
1,90,105,30
1,44,75,14
1,90,83,30
1,44,62,14
1,90,106,30
1,44,74,14
1,90,84,30
1,44,61,14
1,90,106,30
1,44,74,14
1,90,84,30
1,44,60,9
1,90,103,30
1,59,111,8
1,44,77,0
1,87,43,0
1,30,108,0
1,42,94,0
1,54,79,0
1,58,67,0
1,61,87,0
1,42,116,1
1,90,76,20
1,44,60,14
1,90,111,30
1,58,105,9
1,44,71,0
1,85,41,0
1,90,79,15
1,56,109,9
1,44,64,0
1,83,38,0
1,90,106,15
1,44,78,9
1,90,84,30
1,58,105,14
1,44,63,0
1,85,41,0
1,90,112,17
1,44,78,9
1,90,84,30
1,59,106,9
1,44,57,0
1,87,67,0
1,90,111,1
1,54,80,3
1,59,83,0
1,63,79,0
1,47,116,3
1,44,74,3
1,35,104,0
1,47,78,0
1,54,52,0
1,59,83,0
1,63,56,0
1,90,84,30
1,44,59,14
1,90,111,30
1,44,71,14
1,90,83,30
1,44,65,14
1,90,110,30
1,44,80,14
1,90,76,30
1,44,62,14
1,90,105,30
1,44,71,14
1,90,75,30
1,44,62,14
1,90,111,30
1,44,74,14
1,90,82,30
1,44,62,14
1,90,108,30
1,44,73,14
1,90,81,30
1,44,63,14
1,90,105,30
1,44,78,14
1,90,80,30
1,44,65,14
1,90,104,30
1,44,79,14
1,90,84,30
1,44,62,9
1,90,105,1
1,54,80,8
1,59,82,0
1,63,75,0
1,59,75,4
1,44,73,2
1,87,62,0
1,35,82,0
1,51,87,0
1,54,86,0
1,59,86,0
1,63,86,0
1,47,122,0
1,90,78,21
1,59,65,12
1,44,58,2
1,42,75,0
1,90,110,21
1,58,73,7
1,44,74,2
1,51,71,0
1,90,83,0
1,58,64,7
1,44,56,2
1,54,102,0
1,58,99,0
1,61,98,0
1,90,107,7
1,59,73,12
1,44,80,2
1,42,69,0
1,90,80,21
1,59,61,7
1,44,58,2
1,51,71,0
1,90,105,17
1,58,60,12
1,44,79,2
1,35,90,0
1,54,83,0
1,59,80,0
1,63,79,0
1,90,77,21
1,59,75,12
1,44,56,2
1,90,103,21
1,61,109,14
1,44,79,0
1,85,45,0
1,90,79,13
1,59,105,10
1,44,64,4
1,90,110,23
1,44,71,14
1,58,88,0
1,90,76,18
1,66,103,9
1,44,60,0
1,90,85,0
1,58,66,0
1,90,106,18
1,59,103,10
1,44,72,4
1,90,77,23
1,59,92,11
1,44,60,3
1,90,107,22
1,58,90,8
1,59,103,1
1,44,80,0
1,87,80,0
1,90,80,20
1,44,60,14
1,90,106,1
1,54,78,3
1,59,76,0
1,63,81,0
1,59,79,4
1,44,79,2
1,32,83,0
1,51,78,0
1,56,84,0
1,59,81,0
1,63,83,0
1,44,119,5
1,90,80,21
1,59,58,12
1,44,67,2
1,44,60,0
1,90,104,21
1,58,69,7
1,44,72,2
1,51,63,0
1,90,76,0
1,58,56,7
1,44,63,2
1,54,96,0
1,58,98,0
1,61,102,0
1,90,107,7
1,59,65,7
1,44,73,2
1,44,66,0
1,90,82,21
1,59,62,7
1,44,59,2
1,51,54,0
1,90,103,21
1,58,65,12
1,44,78,2
1,32,88,0
1,56,82,0
1,59,77,0
1,63,82,0
1,90,83,21
1,59,76,12
1,44,62,2
1,90,106,21
1,61,107,9
1,44,72,0
1,85,44,0
1,90,79,17
1,44,65,14
1,59,107,1
1,90,104,17
1,44,75,14
1,58,86,0
1,90,82,18
1,66,110,9
1,44,63,0
1,90,81,0
1,58,82,0
1,90,103,18
1,59,96,13
1,44,80,1
1,90,82,20
1,44,61,14
1,59,91,2
1,90,103,16
1,59,111,9
1,44,72,0
1,87,80,0
1,58,103,1
1,90,78,14
1,44,60,14
1,90,111,1
1,54,84,3
1,59,74,0
1,63,75,0
1,59,77,4
1,44,75,2
1,28,107,0
1,40,96,0
1,52,82,0
1,56,70,0
1,59,87,0
1,40,119,2
1,90,83,21
1,59,57,12
1,44,66,2
1,90,104,21
1,58,76,12
1,44,76,2
1,90,78,21
1,58,61,12
1,44,58,2
1,90,107,21
1,59,69,12
1,44,80,2
1,90,75,21
1,59,60,12
1,44,65,2
1,90,111,21
1,58,59,12
1,44,79,2
1,90,78,21
1,59,73,7
1,44,60,2
1,90,102,9
1,42,122,7
1,59,111,2
1,44,74,0
1,87,41,0
1,30,106,0
1,42,90,0
1,54,95,0
1,58,98,0
1,61,98,0
1,90,80,20
1,44,66,14
1,59,98,4
1,90,111,11
1,58,105,9
1,44,75,0
1,85,41,0
1,58,91,2
1,90,79,13
1,56,112,9
1,44,64,0
1,83,35,0
1,58,92,0
1,90,104,15
1,44,71,9
1,59,89,1
1,90,80,17
1,58,105,14
1,44,66,0
1,85,35,0
1,59,97,2
1,90,111,13
1,44,75,9
1,58,94,2
1,90,84,6
1,59,111,12
1,44,62,0
1,87,70,0
1,90,105,1
1,54,82,3
1,59,81,0
1,63,76,0
1,44,78,4
1,35,108,0
1,47,77,0
1,54,53,0
1,59,76,0
1,63,54,0
1,47,122,3
1,90,75,27
1,44,64,14
1,90,102,30
1,44,77,14
1,90,83,30
1,44,60,14
1,90,107,30
1,44,80,14
1,90,81,30
1,44,65,14
1,90,109,30
1,44,80,14
1,90,76,30
1,44,61,14
1,90,105,30
1,44,75,14
1,90,83,30
1,44,67,14
1,90,105,30
1,44,80,14
1,90,78,30
1,44,62,14
1,90,110,30
1,44,75,14
1,90,82,7
1,44,67,14
1,90,110,30
1,68,102,13
1,44,79,1
1,90,76,15
1,44,56,9
1,71,92,0
1,70,109,2
1,90,108,0
1,56,80,3
1,59,53,0
1,64,53,0
1,59,74,4
1,44,81,2
1,40,84,0
1,56,83,0
1,59,85,0
1,64,81,0
1,52,123,4
1,71,105,3
1,59,56,33
1,44,62,2
1,71,91,0
1,58,72,20
1,44,73,2
1,76,78,0
1,70,102,2
1,58,57,7
1,44,59,2
1,70,91,0
1,71,116,6
1,59,74,5
1,44,73,2
1,59,63,7
1,44,59,2
1,71,84,0
1,70,117,3
1,58,61,3
1,44,79,2
1,76,77,0
1,59,74,7
1,44,56,2
1,66,91,0
1,71,106,6
1,24,86,35
1,44,72,0
1,59,102,5
1,44,60,4
1,71,90,0
1,44,73,9
1,58,90,1
1,75,107,2
1,44,59,32
1,70,85,0
1,58,66,1
1,59,94,5
1,19,84,4
1,44,77,0
1,68,106,6
1,59,88,34
1,44,58,0
1,71,84,0
1,58,90,35
1,44,73,1
1,70,114,2
1,44,60,4
1,66,85,0
1,54,94,3
1,63,90,0
1,59,76,4
1,44,80,2
1,35,80,0
1,59,81,0
1,61,82,0
1,66,85,0
1,71,118,2
1,47,120,6
1,59,64,27
1,44,58,2
1,71,89,0
1,58,74,14
1,44,72,2
1,76,79,0
1,70,103,2
1,58,60,7
1,44,59,2
1,70,92,0
1,71,109,1
1,59,67,5
1,44,71,2
1,70,110,7
1,59,58,0
1,44,58,2
1,71,87,0
1,58,57,4
1,44,79,2
1,76,79,0
1,59,76,7
1,44,59,2
1,66,89,0
1,66,117,3
1,71,110,35
1,44,74,0
1,44,67,9
1,71,91,0
1,59,102,2
1,44,76,9
1,58,88,1
1,66,105,32
1,44,65,0
1,70,88,0
1,58,78,1
1,59,93,8
1,19,81,1
1,44,73,0
1,44,61,34
1,71,84,0
1,59,95,3
1,64,110,30
1,44,71,0
1,58,95,1
1,68,110,3
1,44,61,9
1,66,83,0
1,70,116,4
1,56,94,3
1,64,89,0
1,59,72,4
1,44,79,2
1,40,86,0
1,56,84,0
1,59,82,0
1,64,84,0
1,71,116,5
1,52,122,1
1,50,121,2
1,59,58,15
1,44,58,2
1,71,90,0
1,58,69,33
1,70,113,2
1,44,76,0
1,76,85,0
1,58,58,7
1,44,58,2
1,70,84,0
1,71,121,1
1,59,66,8
1,44,75,2
1,70,117,4
1,59,63,3
1,44,66,2
1,71,85,0
1,58,56,8
1,44,78,2
1,76,81,0
1,71,120,3
1,59,67,4
1,44,62,2
1,66,89,0
1,24,89,35
1,44,77,0
1,44,65,9
1,71,84,0
1,59,102,4
1,70,110,4
1,44,77,5
1,58,82,2
1,44,60,12
1,70,83,0
1,58,87,0
1,68,110,8
1,19,85,1
1,44,75,0
1,59,86,2
1,44,60,3
1,71,83,0
1,59,95,2
1,44,80,27
1,58,92,2
1,70,113,2
1,44,56,9
1,66,84,0
1,71,113,5
1,54,94,3
1,63,86,0
1,61,110,6
1,44,80,0
1,35,81,0
1,59,74,0
1,61,78,0
1,66,78,0
1,47,122,5
1,44,59,39
1,71,83,0
1,44,71,44
1,76,81,0
1,66,104,9
1,44,62,0
1,70,84,0
1,44,75,44
1,44,67,9
1,71,86,0
1,59,104,44
1,44,73,0
1,76,79,0
1,44,62,9
1,66,85,0
1,44,72,44
1,44,59,9
1,71,85,0
1,44,79,9
1,44,64,44
1,70,85,0
1,19,82,9
1,44,73,0
1,44,66,44
1,71,92,0
1,68,101,28
1,44,78,1
1,42,115,0
1,44,60,1
1,66,83,0
1,70,112,3
1,56,84,3
1,59,51,0
1,64,61,0
1,59,70,4
1,44,79,2
1,40,77,0
1,56,77,0
1,59,82,0
1,64,77,0
1,52,118,6
1,71,110,1
1,59,56,33
1,44,67,2
1,71,85,0
1,58,76,20
1,44,73,2
1,76,79,0
1,70,101,2
1,58,59,7
1,44,63,2
1,70,92,0
1,71,115,6
1,59,68,5
1,44,71,2
1,59,65,7
1,44,60,2
1,71,87,0
1,70,113,3
1,58,65,3
1,44,78,2
1,76,77,0
1,59,75,7
1,44,62,2
1,66,83,0
1,71,115,6
1,24,90,35
1,44,76,0
1,59,99,5
1,44,63,4
1,71,83,0
1,44,74,9
1,58,95,1
1,75,113,2
1,44,63,32
1,70,86,0
1,58,62,1
1,59,102,5
1,19,89,4
1,44,76,0
1,68,111,6
1,59,93,34
1,44,61,0
1,71,92,0
1,58,93,35
1,44,78,1
1,70,110,2
1,44,58,4
1,66,88,0
1,54,90,3
1,63,91,0
1,59,75,4
1,44,72,2
1,35,75,0
1,59,78,0
1,61,86,0
1,66,85,0
1,71,110,2
1,47,118,7
1,59,64,33
1,44,67,2
1,71,84,0
1,58,72,14
1,44,77,2
1,76,78,0
1,70,109,2
1,58,61,7
1,44,65,2
1,70,87,0
1,71,109,1
1,59,70,5
1,44,78,2
1,70,110,7
1,59,61,0
1,44,67,2
1,71,86,0
1,58,61,4
1,44,73,2
1,76,76,0
1,59,67,7
1,44,59,2
1,66,92,0
1,66,116,3
1,71,108,35
1,44,77,0
1,44,63,9
1,71,88,0
1,59,107,2
1,44,75,9
1,58,95,1
1,66,110,32
1,44,57,0
1,70,86,0
1,58,87,1
1,59,92,8
1,19,81,1
1,44,74,0
1,44,59,34
1,71,88,0
1,59,98,3
1,64,107,30
1,44,72,0
1,58,97,1
1,68,107,3
1,44,58,9
1,66,84,0
1,70,113,4
1,56,91,0
1,64,93,0
1,59,77,4
1,44,72,2
1,40,84,0
1,56,84,0
1,59,78,0
1,64,77,0
1,52,120,0
1,71,113,5
1,59,60,33
1,44,66,2
1,71,91,0
1,58,73,33
1,70,110,2
1,44,75,0
1,76,82,0
1,58,60,7
1,44,57,2
1,70,90,0
1,71,121,1
1,59,70,8
1,44,80,2
1,70,113,4
1,59,59,3
1,44,59,2
1,71,89,0
1,58,63,8
1,44,75,2
1,76,83,0
1,71,118,3
1,59,70,4
1,44,65,2
1,66,86,0
1,24,87,35
1,44,74,0
1,44,66,9
1,71,85,0
1,59,107,4
1,70,116,4
1,44,75,5
1,58,82,2
1,44,58,12
1,70,83,0
1,58,94,0
1,68,105,8
1,19,81,1
1,44,79,0
1,59,88,2
1,44,63,3
1,71,88,0
1,59,96,2
1,44,76,27
1,58,97,2
1,70,109,2
1,44,61,5
1,66,92,0
1,71,121,7
1,54,87,3
1,63,86,0
1,61,108,6
1,44,80,0
1,35,77,0
1,59,89,0
1,61,81,0
1,66,82,0
1,47,120,2
1,44,58,44
1,71,83,0
1,44,80,44
1,76,82,0
1,66,103,9
1,44,58,0
1,70,90,0
1,44,79,44
1,44,60,9
1,71,88,0
1,59,108,44
1,44,79,0
1,76,75,0
1,44,63,9
1,66,84,0
1,44,77,44
1,44,66,9
1,71,90,0
1,44,74,9
1,44,60,44
1,70,85,0
1,19,90,9
1,44,71,0
1,44,64,44
1,71,93,0
1,61,78,0
1,78,108,18
1,44,72,9
1,54,78,0
1,58,84,0
1,78,109,1
1,44,58,1
1,66,84,0
1,83,50,4
1,56,86,3
1,59,87,0
1,59,72,0
1,60,43,2
1,71,90,0
1,32,77,0
1,56,74,0
1,59,82,0
1,63,79,0
1,78,109,8
1,44,124,0
1,95,76,0
1,59,112,2
1,44,77,0
1,75,106,2
1,44,65,2
1,44,59,2
1,94,80,0
1,58,112,2
1,44,56,0
1,44,74,2
1,44,65,2
1,95,54,0
1,59,108,2
1,24,88,0
1,44,57,0
1,44,57,2
1,44,74,2
1,44,63,2
1,28,89,9
1,44,60,0
1,78,112,30
1,44,51,5
1,34,98,0
1,54,79,0
1,58,93,0
1,61,91,0
1,44,124,1
1,46,122,25
1,44,80,1
1,78,112,31
1,44,68,3
1,54,90,9
1,44,59,6
1,35,81,0
1,54,87,0
1,59,77,0
1,63,76,0
1,47,115,3
1,78,110,1
1,44,53,40
1,75,100,33
1,44,83,3
1,44,72,20
1,75,105,9
1,44,60,2
1,44,54,2
1,73,103,3
1,44,75,2
1,44,63,2
1,73,115,9
1,44,55,2
1,44,50,2
1,71,113,16
1,44,82,2
1,44,72,2
1,71,115,4
1,28,86,2
1,44,57,0
1,44,52,2
1,78,105,29
1,44,81,15
1,44,67,2
1,78,107,12
1,56,93,4
1,59,91,0
1,44,52,2
1,32,74,0
1,56,77,0
1,59,77,0
1,63,84,0
1,44,120,7
1,78,113,13
1,44,52,2
1,95,69,0
1,59,106,2
1,44,79,0
1,44,68,2
1,75,104,9
1,44,52,2
1,94,67,0
1,58,107,2
1,44,50,0
1,44,77,2
1,44,70,2
1,95,48,0
1,59,105,2
1,24,85,0
1,44,61,0
1,44,52,2
1,44,78,2
1,44,69,2
1,28,89,9
1,44,54,0
