track,note,velocity,time
3,40,116,6462
3,40,0,383
3,41,111,1
3,41,0,383
3,38,113,1
3,38,0,383
3,43,111,1
3,43,0,191
3,41,109,1
3,41,0,191
3,40,113,1
3,40,0,383
3,45,114,1
3,45,0,383
3,38,111,1
3,38,0,383
3,43,114,1
3,43,0,191
3,41,111,1
3,41,0,191
3,40,112,1
3,40,0,383
3,45,112,1
3,45,0,383
3,41,112,1
3,41,0,383
3,43,112,1
3,43,0,191
3,41,112,1
3,41,0,191
3,40,109,1
3,40,0,383
3,45,114,1
3,45,0,383
3,41,112,1
3,41,0,383
3,43,114,1
3,43,0,191
3,41,115,1
3,41,0,191
3,40,112,1
3,40,0,383
3,41,111,1
3,41,0,383
3,38,115,1
3,38,0,383
3,43,109,1
3,43,0,191
3,41,116,1
3,41,0,191
3,40,112,1
3,40,0,383
3,45,116,1
3,45,0,383
3,38,110,1
3,38,0,383
3,43,116,1
3,43,0,191
3,41,116,1
3,41,0,191
3,40,113,1
3,40,0,383
3,45,117,1
3,45,0,383
3,38,116,1
3,38,0,383
3,43,109,1
3,43,0,191
3,41,116,1
3,41,0,191
3,40,112,1
3,40,0,383
3,45,113,1
3,45,0,383
3,38,117,1
3,38,0,383
3,43,112,1
3,43,0,191
3,41,113,1
3,41,0,191
3,48,112,1
3,48,0,251
3,48,109,37
3,48,0,59
3,45,112,37
3,45,0,251
3,45,110,37
3,45,0,59
3,38,110,37
3,38,0,251
3,38,111,37
3,38,0,59
3,43,111,37
3,43,0,155
3,41,112,37
3,41,0,155
3,40,111,37
3,40,0,251
3,40,110,37
3,40,0,59
3,41,110,37
3,41,0,256
3,41,111,32
3,41,0,59
3,38,113,37
3,38,0,252
3,38,114,36
3,38,0,59
3,43,115,37
3,43,0,155
3,41,114,37
3,41,0,155
3,48,111,37
3,48,0,251
3,48,110,37
3,48,0,59
3,45,117,37
3,45,0,251
3,45,113,37
3,45,0,59
3,38,112,37
3,38,0,251
3,38,115,37
3,38,0,59
3,43,114,37
3,43,0,155
3,41,115,37
3,41,0,155
3,40,109,37
3,40,0,251
3,40,115,37
3,40,0,59
3,41,114,37
3,41,0,256
3,41,113,32
3,41,0,59
3,38,112,37
3,38,0,252
3,38,111,36
3,38,0,59
3,43,114,37
3,43,0,155
3,41,113,37
3,41,0,155
3,46,112,37
3,46,0,248
3,46,114,40
3,46,0,58
3,44,114,38
3,44,0,346
3,43,116,38
3,43,0,358
3,43,111,26
3,43,0,362
3,45,108,22
3,45,0,254
3,45,112,34
3,45,0,68
3,46,114,28
3,46,0,361
3,43,110,23
3,43,0,359
3,43,115,25
3,43,0,370
3,48,109,14
3,48,0,251
3,40,116,37
3,40,0,59
3,41,109,37
3,41,0,365
3,38,117,19
3,38,0,251
3,38,109,37
3,38,0,59
3,43,109,37
3,43,0,155
3,41,110,37
3,41,0,155
3,40,115,37
3,40,0,251
3,40,113,37
3,40,0,59
3,41,115,37
3,41,0,363
3,38,111,21
3,38,0,252
3,38,112,36
3,38,0,59
3,43,109,37
3,43,0,155
3,41,112,37
3,41,0,155
3,40,116,37
3,40,0,251
3,40,111,37
3,40,0,59
3,45,115,37
3,45,0,365
3,38,112,19
3,38,0,251
3,38,114,37
3,38,0,59
3,43,113,37
3,43,0,155
3,41,110,37
3,41,0,155
3,40,112,37
3,40,0,251
3,40,109,37
3,40,0,59
3,45,111,37
3,45,0,363
3,38,112,21
3,38,0,252
3,38,114,36
3,38,0,59
3,43,117,37
3,43,0,155
3,41,115,37
3,41,0,155
3,38,110,37
3,38,0,251
3,45,116,37
3,45,0,59
3,47,114,37
3,47,0,365
3,40,111,19
3,40,0,251
3,40,112,37
3,40,0,59
3,45,110,37
3,45,0,155
3,43,109,37
3,43,0,155
3,42,109,37
3,42,0,251
3,42,116,37
3,42,0,59
3,43,112,37
3,43,0,365
3,40,112,19
3,40,0,251
3,40,111,37
3,40,0,59
3,45,112,37
3,45,0,155
3,43,115,37
3,43,0,155
3,42,113,37
3,42,0,251
3,42,109,37
3,42,0,59
3,47,116,37
3,47,0,365
3,40,117,19
3,40,0,251
3,40,116,37
3,40,0,59
3,45,116,37
3,45,0,155
3,43,110,37
3,43,0,155
3,42,110,37
3,42,0,251
3,42,111,37
3,42,0,59
3,43,113,37
3,43,0,365
3,40,109,19
3,40,0,251
3,40,110,37
3,40,0,59
3,45,117,37
3,45,0,155
3,43,115,37
3,43,0,155
3,46,112,37
3,46,0,248
3,46,108,40
3,46,0,58
3,44,116,38
3,44,0,346
3,43,110,38
3,43,0,358
3,43,109,26
3,43,0,362
3,45,114,22
3,45,0,254
3,45,111,34
3,45,0,68
3,46,114,28
3,46,0,361
3,43,108,23
3,43,0,359
3,43,111,25
3,43,0,370
3,48,111,14
3,48,0,251
3,40,117,37
3,40,0,59
3,41,117,37
3,41,0,365
3,38,114,19
3,38,0,251
3,38,117,37
3,38,0,59
3,43,114,37
3,43,0,155
3,41,115,37
3,41,0,155
3,40,115,37
3,40,0,251
3,40,110,37
3,40,0,59
3,41,113,37
3,41,0,363
3,38,109,21
3,38,0,252
3,38,112,36
3,38,0,59
3,43,111,37
3,43,0,155
3,41,109,37
3,41,0,155
3,40,109,37
3,40,0,251
3,40,116,37
3,40,0,59
3,45,110,37
3,45,0,365
3,38,112,19
3,38,0,251
3,38,111,37
3,38,0,59
3,43,115,37
3,43,0,155
3,41,111,37
3,41,0,155
3,40,117,37
3,40,0,251
3,40,117,37
3,40,0,59
3,45,113,37
3,45,0,363
3,38,111,21
3,38,0,252
3,38,114,36
3,38,0,59
3,43,113,37
3,43,0,155
3,41,114,37
3,41,0,155
3,50,113,37
3,50,0,251
3,42,117,37
3,42,0,59
3,43,110,37
3,43,0,365
3,40,113,19
3,40,0,251
3,40,117,37
3,40,0,59
3,45,116,37
3,45,0,155
3,43,112,37
3,43,0,155
3,42,114,37
3,42,0,251
3,42,117,37
3,42,0,59
3,43,116,37
3,43,0,363
3,40,111,21
3,40,0,252
3,40,113,36
3,40,0,59
3,45,110,37
3,45,0,155
3,43,116,37
3,43,0,155
3,42,114,37
3,42,0,251
3,42,114,37
3,42,0,59
3,47,109,37
3,47,0,365
3,40,111,19
3,40,0,251
3,40,111,37
3,40,0,59
3,45,111,37
3,45,0,155
3,43,114,37
3,43,0,155
3,42,111,37
3,42,0,251
3,42,118,37
3,42,0,59
3,47,111,37
3,47,0,363
3,40,117,21
3,40,0,252
3,40,110,36
3,40,0,59
3,45,116,37
3,45,0,155
3,43,115,37
3,43,0,155
3,38,117,37
3,38,0,251
3,45,117,37
3,45,0,59
3,47,111,37
3,47,0,365
3,40,112,19
3,40,0,251
3,40,109,37
3,40,0,59
3,45,109,37
3,45,0,155
3,43,114,37
3,43,0,155
3,42,112,37
3,42,0,251
3,42,109,37
3,42,0,59
3,43,114,37
3,43,0,365
3,40,110,19
3,40,0,251
3,40,114,37
3,40,0,59
3,45,111,37
3,45,0,155
3,43,117,37
3,43,0,155
3,38,112,37
3,38,0,251
3,45,110,37
3,45,0,59
3,47,114,37
3,47,0,365
3,40,109,19
3,40,0,251
3,40,113,37
3,40,0,59
3,45,116,37
3,45,0,155
3,43,111,37
3,43,0,155
3,42,112,37
3,42,0,251
3,42,117,37
3,42,0,59
3,43,115,37
3,43,0,365
3,40,111,19
3,40,0,251
3,40,117,37
3,40,0,59
3,45,109,37
3,45,0,155
3,43,115,37
3,43,0,155
3,38,117,37
3,38,0,251
3,45,110,37
3,45,0,59
3,47,109,37
3,47,0,365
3,40,116,19
3,40,0,251
3,40,109,37
3,40,0,59
3,45,109,37
3,45,0,155
3,43,112,37
3,43,0,155
3,42,117,37
3,42,0,251
3,42,117,37
3,42,0,59
3,43,109,37
3,43,0,365
3,40,112,19
3,40,0,251
3,40,111,37
3,40,0,59
3,45,113,37
3,45,0,155
3,43,110,37
3,43,0,155
3,38,113,37
3,38,0,251
3,45,112,37
3,45,0,59
3,47,117,37
3,47,0,365
3,40,117,19
3,40,0,251
3,40,115,37
3,40,0,59
3,45,115,37
3,45,0,155
3,43,112,37
3,43,0,155
3,42,109,37
3,42,0,251
3,42,116,37
3,42,0,59
3,43,116,37
3,43,0,365
3,40,116,19
3,40,0,251
3,40,111,37
3,40,0,59
3,45,117,37
3,45,0,155
3,43,109,37
3,43,0,155
3,38,112,37
3,38,0,59
3,45,113,37
3,45,0,59
3,47,113,37
3,47,0,173
3,40,117,19
3,40,0,59
3,40,112,37
3,40,0,59
3,45,109,37
3,45,0,155
3,43,114,37
3,43,0,155
3,42,116,37
3,42,0,59
3,42,113,37
3,42,0,59
3,43,109,37
3,43,0,173
3,40,117,19
3,40,0,59
3,40,113,37
3,40,0,59
3,45,110,37
3,45,0,155
3,43,117,37
3,43,0,155
3,42,113,37
3,42,0,59
3,42,117,37
3,42,0,59
3,47,111,37
3,47,0,173
4,36,100,318
4,55,94,0
4,64,95,0
4,67,114,0
4,36,0,95
4,43,99,1
4,43,0,95
4,50,93,1
4,50,0,95
4,52,86,1
4,55,0,23
4,52,0,60
4,64,0,12
4,67,0,0
4,41,88,1
4,57,84,0
4,67,109,312
4,67,0,23
4,41,0,24
4,57,0,0
4,38,100,1
4,67,121,0
4,67,0,11
4,69,115,13
4,69,0,35
4,65,106,13
4,38,0,95
4,50,95,1
4,65,0,155
4,50,0,12
4,53,89,1
4,55,93,0
4,60,87,0
4,43,81,12
4,60,0,167
4,59,85,1
4,43,0,191
4,53,0,0
4,55,0,0
4,59,0,0
4,40,115,1
4,60,119,0
4,60,0,71
4,52,100,1
4,52,0,95
4,55,116,1
4,55,0,95
4,52,103,1
4,52,0,71
4,40,0,24
4,41,86,1
4,53,92,0
4,57,92,0
4,64,91,0
4,53,0,287
4,57,0,0
4,64,0,0
4,64,95,25
4,41,0,47
4,64,0,0
4,38,99,1
4,64,104,0
4,64,0,11
4,65,110,13
4,65,0,35
4,62,115,13
4,62,0,95
4,50,91,1
4,50,0,95
4,55,97,1
4,38,0,95
4,55,0,0
4,43,110,1
4,60,109,0
4,60,0,167
4,59,98,1
4,59,0,23
4,60,111,1
4,60,0,47
4,62,122,1
4,43,0,71
4,62,0,0
4,36,99,25
4,67,120,0
4,36,0,71
4,48,95,1
4,67,0,95
4,55,122,1
4,48,0,95
4,38,104,1
4,38,0,71
4,55,0,0
4,40,116,1
4,60,100,0
4,60,0,167
4,52,80,1
4,52,0,143
4,60,97,1
4,67,94,0
4,71,106,0
4,40,0,23
4,60,0,0
4,67,0,0
4,71,0,0
4,41,111,25
4,53,115,0
4,60,119,0
4,67,119,0
4,71,121,0
4,71,0,71
4,72,112,1
4,41,0,23
4,67,0,0
4,72,0,24
4,41,94,1
4,69,107,0
4,53,0,23
4,53,97,25
4,69,0,47
4,67,94,1
4,60,0,23
4,67,0,0
4,60,94,25
4,67,102,0
4,69,96,24
4,53,0,47
4,53,97,25
4,41,0,143
4,53,0,0
4,40,112,25
4,52,114,0
4,60,0,95
4,67,0,0
4,69,0,0
4,40,0,48
4,52,0,0
4,38,112,25
4,69,116,0
4,50,100,72
4,69,0,95
4,60,102,1
4,60,0,95
4,62,99,1
4,62,0,71
4,62,94,25
4,65,96,0
4,69,101,0
4,62,0,239
4,65,0,24
4,69,0,0
4,72,97,49
4,72,0,23
4,38,0,24
4,50,0,0
4,43,99,1
4,55,98,0
4,72,115,0
4,72,0,71
4,74,114,1
4,74,0,47
4,71,116,1
4,71,0,95
4,69,111,1
4,69,0,23
4,69,105,25
4,69,0,23
4,71,97,1
4,55,0,431
4,64,99,1
4,64,0,11
4,60,77,1
4,43,0,11
4,60,0,0
4,71,0,0
4,55,98,1
4,60,101,0
4,64,104,0
4,55,0,44
4,64,0,33
4,60,0,15
4,60,79,76
4,64,79,0
4,64,0,96
4,60,0,12
4,57,77,84
4,60,73,0
4,65,73,0
4,57,0,39
4,65,0,31
4,60,0,14
4,60,74,84
4,65,69,0
4,65,0,95
4,57,52,1
4,60,0,15
4,60,76,81
4,65,77,0
4,57,0,17
4,65,0,49
4,60,0,20
4,60,95,82
4,65,91,0
4,60,0,79
4,65,0,4
4,60,109,13
4,60,0,35
4,60,116,61
4,59,116,144
4,60,0,5
4,59,0,137
4,55,121,2
4,55,0,51
4,55,117,45
4,60,88,0
4,64,87,0
4,55,0,44
4,64,0,33
4,60,0,15
4,60,79,76
4,64,81,0
4,64,0,96
4,60,0,12
4,57,79,84
4,60,77,0
4,64,81,0
4,57,0,39
4,64,0,31
4,60,0,14
4,60,78,84
4,64,78,0
4,64,0,95
4,57,56,1
4,60,0,15
4,60,99,81
4,65,98,0
4,57,0,17
4,65,0,49
4,60,0,20
4,60,78,82
4,65,86,0
4,60,0,167
4,65,0,0
4,60,108,25
4,72,116,0
4,60,0,143
4,62,110,1
4,71,114,0
4,72,0,5
4,71,0,137
4,67,103,2
4,67,0,59
4,62,0,36
4,55,102,1
4,60,98,0
4,64,100,0
4,55,0,44
4,64,0,33
4,60,0,15
4,60,86,76
4,64,91,0
4,64,0,96
4,60,0,12
4,52,77,84
4,57,84,0
4,60,79,0
4,57,0,39
4,52,0,31
4,60,0,14
4,57,81,84
4,60,82,0
4,57,0,95
4,52,63,1
4,60,0,15
4,53,84,81
4,57,84,0
4,60,85,0
4,52,0,17
4,53,0,49
4,57,0,20
4,60,0,10
4,53,86,72
4,57,89,0
4,60,89,0
4,57,0,83
4,60,0,37
4,53,0,47
4,60,120,25
4,59,118,144
4,60,0,5
4,59,0,137
4,55,110,2
4,55,0,59
4,55,87,37
4,60,84,0
4,64,91,0
4,55,0,44
4,64,0,33
4,60,0,15
4,60,81,76
4,64,88,0
4,64,0,96
4,60,0,12
4,52,85,84
4,57,84,0
4,60,82,0
4,57,0,39
4,52,0,31
4,60,0,14
4,57,96,84
4,60,88,0
4,57,0,95
4,60,0,16
4,53,92,81
4,57,88,0
4,60,94,0
4,53,0,66
4,57,0,20
4,60,0,10
4,53,95,72
4,57,90,0
4,60,94,0
4,57,0,83
4,53,0,12
4,48,67,1
4,60,0,24
4,48,0,71
4,53,84,1
4,60,116,0
4,53,0,119
4,60,0,0
4,53,89,25
4,60,119,0
4,55,103,48
4,59,122,0
4,53,0,11
4,60,0,0
4,55,0,180
4,59,0,0
4,48,117,1
4,52,115,0
4,55,112,0
4,48,0,30
4,52,0,29
4,55,0,7
4,52,82,88
4,55,85,0
4,52,0,96
4,55,0,3
4,48,96,12
4,53,104,0
4,57,97,0
4,57,0,62
4,53,0,10
4,48,0,25
4,53,87,65
4,57,88,0
4,57,0,95
4,48,76,1
4,53,0,5
4,48,0,23
4,50,116,68
4,53,108,0
4,57,109,0
4,50,0,23
4,57,0,26
4,53,0,8
4,53,88,97
4,57,93,0
4,53,0,93
4,57,0,0
4,60,122,1
4,59,121,110
4,60,0,2
4,59,0,134
4,55,120,8
4,55,0,20
4,48,114,1
4,52,113,0
4,55,114,0
4,48,0,15
4,52,0,37
4,55,0,1
4,52,87,95
4,55,79,0
4,52,0,92
4,55,0,7
4,48,113,93
4,52,114,0
4,57,112,0
4,57,0,50
4,52,0,1
4,48,0,36
4,52,81,62
4,57,80,0
4,57,0,89
4,52,0,6
4,48,59,1
4,48,0,18
4,50,112,2
4,53,112,0
4,57,116,0
4,57,0,63
4,57,121,145
4,50,0,143
4,53,0,0
4,57,0,0
4,60,117,1
4,60,0,10
4,59,118,4
4,59,0,36
4,60,118,12
4,60,0,36
4,62,119,12
4,62,0,50
4,67,121,94
4,67,0,95
4,52,118,1
4,55,118,0
4,60,113,0
4,60,0,20
4,52,0,29
4,55,0,7
4,52,85,88
4,55,87,0
4,52,0,96
4,55,0,3
4,48,97,93
4,52,98,0
4,57,97,0
4,57,0,44
4,52,0,10
4,48,0,25
4,52,86,65
4,57,80,0
4,57,0,95
4,48,72,1
4,52,0,5
4,48,0,23
4,50,111,68
4,53,113,0
4,57,110,0
4,50,0,13
4,57,0,26
4,53,0,8
4,53,92,97
4,57,91,0
