track,note,velocity,time
1,36,90,18816
1,40,90,16
1,43,90,16
1,40,90,24
1,36,90,24
1,36,90,32
1,38,90,24
1,41,90,24
1,45,90,16
1,48,90,4
1,45,90,16
1,43,90,8
1,43,90,46
1,43,90,56
1,43,90,56
1,43,90,48
1,43,90,32
1,43,90,70
1,36,90,16
1,40,90,16
1,43,90,24
1,40,90,6
1,36,90,4
1,36,90,40
1,38,90,16
1,41,90,8
1,45,90,8
1,48,90,24
1,45,90,16
1,43,90,0
1,43,90,48
1,43,90,66
1,52,90,4
1,50,90,8
1,45,90,12
1,48,90,170
1,40,90,16
1,43,90,6
1,47,90,16
1,50,90,12
1,47,90,16
1,45,90,10
1,41,90,16
1,48,90,16
1,53,90,16
1,48,90,24
1,45,90,24
1,41,90,56
1,41,90,50
1,41,90,62
1,36,90,20
1,40,90,12
1,43,90,16
1,40,90,22
1,36,90,2
1,36,90,48
1,38,90,8
1,41,90,24
1,45,90,24
1,48,90,6
1,45,90,16
1,43,90,10
1,43,90,40
1,43,90,46
1,43,90,56
1,41,90,14
1,40,90,24
1,38,90,24
1,36,90,24
1,40,90,16
1,43,90,16
1,40,90,24
1,36,90,24
1,36,90,32
1,38,90,24
1,41,90,24
1,45,90,16
1,48,90,4
1,45,90,16
1,43,90,8
1,43,90,46
1,43,90,56
1,43,90,56
1,43,90,48
1,43,90,32
1,43,90,70
1,36,90,16
1,40,90,16
1,43,90,24
1,40,90,6
1,36,90,4
1,36,90,40
1,38,90,16
1,41,90,8
1,45,90,8
1,48,90,24
1,45,90,16
1,43,90,0
1,43,90,48
1,43,90,66
1,52,90,4
1,50,90,8
1,45,90,12
1,48,90,170
1,40,90,16
1,43,90,6
1,47,90,16
1,50,90,12
1,47,90,16
1,45,90,10
1,41,90,16
1,48,90,16
1,53,90,16
1,48,90,24
1,45,90,24
1,41,90,56
1,41,90,50
1,41,90,62
1,36,90,20
1,40,90,12
1,43,90,16
1,40,90,22
1,36,90,2
1,36,90,48
1,38,90,8
1,41,90,24
1,45,90,24
1,48,90,6
1,45,90,16
1,43,90,10
1,43,90,40
1,43,90,46
1,43,90,56
1,43,90,64
1,43,90,46
1,36,90,56
1,40,90,16
1,43,90,16
1,40,90,24
1,36,90,24
1,36,90,32
1,38,90,24
1,41,90,24
1,45,90,16
1,45,90,24
1,48,90,16
1,43,90,48
1,43,90,40
1,43,90,72
1,43,90,40
1,43,90,40
1,43,90,72
1,43,90,48
1,36,90,16
1,40,90,16
1,43,90,24
1,40,90,6
1,36,90,4
1,36,90,40
1,38,90,16
1,41,90,8
1,45,90,8
1,45,90,24
1,48,90,16
1,43,90,48
1,43,90,32
1,43,90,66
1,52,90,4
1,50,90,8
1,45,90,12
1,48,90,170
1,40,90,16
1,43,90,6
1,47,90,16
1,50,90,32
1,41,90,24
1,48,90,16
1,53,90,16
1,55,90,24
1,45,90,16
1,41,90,56
1,41,90,50
1,41,90,62
1,36,90,20
1,40,90,12
1,43,90,32
1,36,90,16
1,38,90,32
1,41,90,24
1,45,90,24
1,48,90,6
1,45,90,16
1,43,90,10
1,43,90,40
1,43,90,46
1,43,90,56
1,41,90,14
1,40,90,24
1,38,90,24
1,36,90,24
1,40,90,16
1,43,90,16
1,40,90,24
1,36,90,24
1,38,90,16
1,41,90,24
1,45,90,16
1,48,90,24
1,45,90,16
1,43,90,24
1,43,90,48
1,43,90,72
1,43,90,40
1,43,90,40
1,43,90,72
1,43,90,48
1,36,90,16
1,40,90,16
1,43,90,24
1,40,90,6
1,36,90,4
1,38,90,16
1,41,90,16
1,45,90,8
1,48,90,8
1,45,90,24
1,43,90,16
1,43,90,32
1,43,90,66
1,52,90,4
1,50,90,8
1,45,90,12
1,48,90,170
1,40,90,16
1,43,90,6
1,47,90,16
1,50,90,32
1,41,90,24
1,48,90,16
1,53,90,16
1,55,90,16
1,45,90,16
1,41,90,56
1,41,90,50
1,41,90,62
1,36,90,20
1,40,90,12
1,43,90,32
1,40,90,8
1,36,90,8
1,38,90,32
1,41,90,24
1,43,90,24
1,36,90,16
1,38,90,16
1,40,90,32
1,41,90,32
1,41,90,40
1,41,90,24
1,43,90,24
1,43,90,32
1,43,90,40
1,36,90,8
1,40,90,16
1,43,90,16
1,40,90,24
1,36,90,24
1,36,90,32
1,38,90,24
1,41,90,24
1,45,90,16
1,48,90,4
1,45,90,16
1,43,90,8
1,43,90,46
1,43,90,56
1,43,90,56
1,43,90,48
1,43,90,32
1,43,90,70
1,36,90,16
1,40,90,16
1,43,90,24
1,40,90,6
1,36,90,4
1,36,90,40
1,38,90,16
1,41,90,8
1,45,90,8
1,48,90,16
1,43,90,32
1,43,90,24
1,43,90,66
1,52,90,4
1,50,90,8
1,45,90,12
1,48,90,170
1,40,90,48
1,43,90,16
1,47,90,16
1,50,90,16
1,41,90,24
1,48,90,16
1,41,90,16
1,45,90,32
1,45,90,16
1,41,90,56
1,41,90,50
1,41,90,62
1,36,90,20
1,40,90,12
1,43,90,16
1,40,90,22
1,36,90,2
1,38,90,48
1,41,90,16
1,45,90,24
1,48,90,6
1,45,90,16
1,43,90,10
1,43,90,32
1,43,90,24
1,43,90,46
1,43,90,56
1,41,90,14
1,40,90,24
1,38,90,24
1,36,90,24
1,40,90,16
1,43,90,16
1,40,90,24
1,38,90,24
1,41,90,24
1,45,90,16
1,48,90,24
1,43,90,24
1,43,90,48
1,43,90,64
1,43,90,32
1,43,90,48
1,43,90,32
1,43,90,70
1,36,90,16
1,40,90,16
1,43,90,24
1,40,90,6
1,36,90,4
1,38,90,40
1,41,90,16
1,45,90,8
1,43,90,32
1,31,90,16
1,31,90,32
1,31,90,66
1,52,90,4
1,50,90,8
1,45,90,12
1,48,90,170
1,40,90,16
1,43,90,6
1,47,90,16
1,50,90,32
1,41,90,24
1,48,90,16
1,53,90,16
1,48,90,24
1,45,90,24
1,41,90,56
1,41,90,50
1,41,90,62
1,36,90,20
1,40,90,12
1,43,90,16
1,40,90,22
1,36,90,2
1,36,90,48
1,38,90,8
1,41,90,24
1,45,90,24
1,48,90,24
1,43,90,24
1,43,90,32
1,43,90,46
1,43,90,56
1,43,90,64
1,43,90,46
1,36,90,56
2,48,86,6528
2,64,94,364
2,67,86,20
2,72,96,12
2,48,84,32
2,69,96,0
2,64,98,6
2,67,88,166
2,64,86,12
2,60,90,8
2,67,98,10
2,50,80,6
2,72,100,6
2,67,84,20
2,69,82,198
2,50,80,20
2,67,90,8
2,69,84,180
2,67,100,2
2,55,84,2
2,62,82,0
2,67,94,16
2,62,86,8
2,67,92,14
2,72,90,4
2,69,80,180
2,67,80,152
2,62,84,8
2,55,80,12
2,67,92,2
2,72,100,8
2,69,80,374
2,67,86,196
2,62,88,12
2,55,88,12
2,67,92,2
2,72,94,14
2,69,80,182
2,67,82,172
2,55,92,4
2,62,86,8
2,67,90,14
2,72,100,6
2,69,80,184
2,67,88,154
2,60,90,8
2,67,100,0
2,67,94,4
2,48,88,22
2,64,96,364
2,67,90,20
2,72,98,20
2,64,94,16
2,69,92,0
2,48,82,2
2,67,90,190
2,64,90,16
2,60,84,0
2,50,86,10
2,67,100,4
2,72,86,0
2,67,90,28
2,69,86,196
2,72,94,30
2,60,90,4
2,50,80,2
2,67,84,2
2,69,82,160
2,55,80,4
2,62,100,4
2,67,100,2
2,62,96,22
2,62,80,22
2,67,88,6
2,72,90,14
2,69,80,170
2,67,80,154
2,62,90,20
2,55,80,0
2,67,92,14
2,72,100,8
2,69,84,14
2,67,88,36
2,55,84,14
2,62,86,22
2,67,98,6
2,72,88,24
2,69,80,174
2,67,86,150
2,62,82,10
2,55,88,10
2,67,94,10
2,72,98,8
2,69,82,374
2,48,86,8
2,64,94,364
2,67,86,20
2,72,96,12
2,48,84,32
2,69,96,0
2,64,98,6
2,67,88,166
2,64,86,12
2,60,90,8
2,67,98,10
2,50,80,6
2,72,100,6
2,67,84,20
2,69,82,198
2,50,80,20
2,67,90,8
2,69,84,180
2,67,100,2
2,55,84,2
2,62,82,0
2,67,94,16
2,62,86,8
2,67,92,14
2,72,90,4
2,69,80,180
2,67,80,152
2,62,84,8
2,55,80,12
2,67,92,2
2,72,100,8
2,69,80,374
2,67,86,196
2,62,88,12
2,55,88,12
2,67,92,2
2,72,94,14
2,69,80,182
2,67,82,172
2,55,92,4
2,62,86,8
2,67,90,14
2,72,100,6
2,69,80,184
2,67,88,154
2,60,90,8
2,67,100,0
2,67,94,4
2,48,88,22
2,64,96,364
2,67,90,20
2,72,98,20
2,64,94,16
2,69,92,0
2,48,82,2
2,67,90,190
2,64,90,16
2,60,84,0
2,50,86,10
2,67,100,4
2,72,86,0
2,67,90,28
2,69,86,196
2,72,94,30
2,60,90,4
2,50,80,2
2,67,84,2
2,69,82,160
2,55,80,4
2,62,100,4
2,67,100,2
2,62,96,22
2,62,80,22
2,67,88,6
2,72,90,14
2,69,80,170
2,67,80,154
2,62,90,20
2,55,80,0
2,67,92,14
2,72,100,8
2,69,84,14
2,67,88,36
2,55,84,14
2,62,86,22
2,67,98,6
2,72,88,24
2,69,80,174
2,67,86,150
2,62,82,10
2,55,88,10
2,67,94,10
2,72,98,8
2,69,82,374
2,59,82,8
2,52,92,6
2,64,92,6
2,67,82,4
2,67,88,20
2,59,90,4
2,64,88,2
2,57,90,4
2,53,92,4
2,60,96,10
2,65,92,12
2,60,92,18
2,69,100,20
2,65,90,4
2,60,92,18
2,72,92,2
2,65,92,2
2,69,94,2
2,71,96,370
2,67,94,8
2,53,80,50
2,65,96,4
2,69,94,2
2,60,96,12
2,57,88,10
2,64,88,10
2,69,88,6
2,64,94,30
2,57,90,2
2,69,100,10
2,72,94,2
2,69,96,30
2,64,100,20
2,57,90,10
2,53,96,6
2,60,92,6
2,65,80,12
2,60,92,4
2,69,100,14
2,65,92,8
2,53,90,2
2,65,80,24
2,53,80,16
2,69,94,2
2,72,100,4
2,57,80,16
2,60,82,6
2,72,98,0
2,65,80,8
2,57,80,4
2,60,88,4
2,65,86,2
2,72,96,2
2,72,100,24
2,72,94,12
2,65,80,0
2,57,80,0
2,71,96,6
2,60,80,2
2,65,88,12
2,57,88,2
2,60,90,2
2,69,98,0
2,67,98,22
2,48,90,0
2,64,84,374
2,67,88,20
2,72,98,8
2,64,90,20
2,69,96,8
2,67,98,186
2,64,90,24
2,67,92,20
2,60,90,2
2,72,90,2
2,50,82,4
2,67,88,32
2,69,84,10
2,60,98,36
2,67,86,2
2,50,80,2
2,72,90,4
2,69,82,182
2,62,84,4
2,55,88,0
2,67,90,8
2,67,88,20
2,62,98,48
2,72,98,4
2,67,86,10
2,69,80,180
2,67,82,188
2,62,80,20
2,55,88,14
2,67,100,2
2,72,96,4
2,69,90,376
2,67,98,186
2,62,86,2
2,67,94,16
2,55,88,4
2,72,98,8
2,69,80,182
2,67,84,164
2,62,82,16
2,55,88,4
2,67,94,18
2,72,100,4
2,69,80,180
2,67,82,146
2,48,86,28
2,64,94,364
2,67,86,20
2,72,96,12
2,48,84,32
2,69,96,0
2,64,98,6
2,67,88,166
2,64,86,12
2,60,90,8
2,67,98,10
2,50,80,6
2,72,100,6
2,67,84,20
2,69,82,198
2,50,80,20
2,67,90,8
2,69,84,180
2,67,100,2
2,55,84,2
2,62,82,0
2,67,94,16
2,62,86,8
2,67,92,14
2,72,90,4
2,69,80,180
2,67,80,152
2,62,84,8
2,55,80,12
2,67,92,2
2,72,100,8
2,69,80,374
2,67,86,196
2,62,88,12
2,55,88,12
2,67,92,2
2,72,94,14
2,69,80,182
2,67,82,172
2,55,92,4
2,62,86,8
2,67,90,14
2,72,100,6
2,69,80,184
2,67,88,154
2,60,90,8
2,67,100,0
2,67,94,4
2,48,88,22
2,64,96,364
2,67,90,20
2,72,98,20
2,64,94,16
2,69,92,0
2,48,82,2
2,67,90,190
2,64,90,16
2,60,84,0
2,50,86,10
2,67,100,4
2,72,86,0
2,67,90,28
2,69,86,196
2,72,94,30
2,60,90,4
2,50,80,2
2,67,84,2
2,69,82,160
2,55,80,4
2,62,100,4
2,67,100,2
2,62,96,22
2,62,80,22
2,67,88,6
2,72,90,14
2,69,80,170
2,67,80,154
2,62,90,20
2,55,80,0
2,67,92,14
2,72,100,8
2,69,84,14
2,67,88,36
2,55,84,14
2,62,86,22
2,67,98,6
2,72,88,24
2,69,80,174
2,67,86,150
2,62,82,10
2,55,88,10
2,67,94,10
2,72,98,8
2,69,82,374
2,59,82,8
2,52,92,6
2,64,92,6
2,67,82,4
2,67,88,20
2,59,90,4
2,64,88,2
2,57,90,4
2,53,92,4
2,60,96,10
2,65,92,12
2,60,92,18
2,69,100,20
2,65,90,4
2,60,92,18
2,72,92,2
2,65,92,2
2,69,94,2
2,71,96,370
2,67,94,8
2,53,80,50
2,65,96,4
2,69,94,2
2,60,96,12
2,57,88,10
2,64,88,10
2,69,88,6
2,64,94,30
2,57,90,2
2,69,100,10
2,72,94,2
2,69,96,30
2,64,100,20
2,57,90,10
2,53,96,6
2,60,92,6
2,65,80,12
2,60,92,4
2,69,100,14
2,65,92,8
2,53,90,2
2,65,80,24
2,53,80,16
2,69,94,2
2,72,100,4
2,57,80,16
2,60,82,6
2,72,98,0
2,65,80,8
2,57,80,4
2,60,88,4
2,65,86,2
2,72,96,2
2,72,100,24
2,72,94,12
2,65,80,0
2,57,80,0
2,71,96,6
2,60,80,2
2,65,88,12
2,57,88,2
2,60,90,2
2,69,98,0
2,67,98,22
2,48,90,0
2,64,84,374
2,67,88,20
2,72,98,8
2,64,90,20
2,69,96,8
2,67,98,186
2,64,90,24
2,67,92,20
2,60,90,2
2,72,90,2
2,50,82,4
2,67,88,32
2,69,84,10
2,60,98,36
2,67,86,2
2,50,80,2
2,72,90,4
2,69,82,182
2,62,84,4
2,55,88,0
2,67,90,8
2,67,88,20
2,62,98,48
2,72,98,4
2,67,86,10
2,69,80,180
2,67,82,188
2,62,80,20
2,55,88,14
2,67,100,2
2,72,96,4
2,69,90,376
2,67,98,186
2,62,86,2
2,67,94,16
2,55,88,4
2,72,98,8
2,69,80,182
2,67,84,164
2,62,82,16
2,55,88,4
2,67,94,18
2,72,100,4
2,69,80,180
2,67,82,146
2,48,86,28
2,64,94,364
2,67,86,20
2,72,96,12
2,48,84,32
2,69,96,0
2,64,98,6
2,67,88,166
2,64,86,12
2,60,90,8
2,67,98,10
2,50,80,6
2,72,100,6
2,67,84,20
2,69,82,198
2,50,80,20
2,67,90,8
2,69,84,180
2,67,100,2
2,55,84,2
2,62,82,0
2,67,94,16
2,62,86,8
2,67,92,14
2,72,90,4
2,69,80,180
2,67,80,152
2,62,84,8
2,55,80,12
2,67,92,2
2,72,100,8
2,69,80,374
2,67,86,196
2,62,88,12
2,55,88,12
2,67,92,2
2,72,94,14
2,69,80,182
2,67,82,172
2,55,92,4
2,62,86,8
2,67,90,14
2,72,100,6
2,69,80,184
2,67,88,154
2,60,90,8
2,67,100,0
2,67,94,4
2,48,88,22
2,64,96,364
2,67,90,20
2,72,98,20
2,64,94,16
2,69,92,0
2,48,82,2
2,67,90,190
2,64,90,16
2,60,84,0
2,50,86,10
2,67,100,4
2,72,86,0
2,67,90,28
2,69,86,196
2,72,94,30
2,60,90,4
2,50,80,2
2,67,84,2
2,69,82,160
2,55,80,4
2,62,100,4
2,67,100,2
2,62,96,22
2,62,80,22
2,67,88,6
2,72,90,14
2,69,80,170
2,67,80,154
2,62,90,20
2,55,80,0
2,67,92,14
2,72,100,8
2,69,84,14
2,67,88,36
2,55,84,14
2,62,86,22
2,67,98,6
2,72,88,24
2,69,80,174
2,67,86,150
2,62,82,10
2,55,88,10
2,67,94,10
2,72,98,8
2,69,82,374
2,59,82,8
2,52,92,6
2,64,92,6
2,67,82,4
2,67,88,20
2,59,90,4
2,64,88,2
2,57,90,4
2,53,92,4
2,60,96,10
2,65,92,12
2,60,92,18
2,69,100,20
2,65,90,4
2,60,92,18
2,72,92,2
2,65,92,2
