track,note,velocity,time
0,36,99,355
0,64,114,0
0,60,122,0
0,55,111,0
0,36,70,125
0,36,90,45
0,36,94,0
0,55,109,48
0,36,104,0
0,59,121,0
0,62,109,0
0,36,102,48
0,36,96,50
0,60,119,43
0,53,104,0
0,57,119,0
0,36,96,0
0,36,81,38
0,36,86,217
0,36,96,45
0,36,83,197
0,36,89,48
0,36,97,5
0,55,107,43
0,62,111,0
0,59,117,0
0,36,106,0
0,36,81,5
0,64,114,38
0,55,102,0
0,60,119,0
0,36,99,0
0,36,92,155
0,36,90,60
0,36,102,195
0,55,109,28
0,62,109,0
0,59,117,0
0,36,104,0
0,36,75,48
0,36,99,58
0,57,111,25
0,60,111,0
0,53,97,0
0,36,96,0
0,36,75,43
0,36,89,188
0,36,96,65
0,36,89,205
0,36,97,50
0,36,86,195
0,62,114,5
0,36,106,0
0,55,107,0
0,59,121,0
0,36,92,13
0,64,117,58
0,55,105,0
0,60,121,0
0,36,106,0
0,36,78,48
0,36,99,60
0,36,96,25
0,55,107,10
0,36,97,0
0,62,114,0
0,59,121,0
0,36,87,45
0,36,102,68
0,53,104,10
0,60,117,0
0,57,117,0
0,36,92,0
0,36,97,40
0,36,96,180
0,36,99,63
0,36,84,187
0,36,104,58
0,36,81,50
0,62,104,53
0,55,107,0
0,59,111,0
0,36,99,0
0,36,96,10
0,36,92,73
0,64,114,0
0,55,104,0
0,60,114,0
0,47,40,65
0,36,82,2
0,36,99,50
0,47,50,0
0,47,55,30
0,47,65,20
0,36,90,0
0,47,85,10
0,36,87,3
0,55,105,0
0,59,121,0
0,62,112,0
0,47,70,10
0,47,73,153
0,36,90,2
0,47,73,65
0,36,94,3
0,47,70,53
0,53,97,32
0,60,114,0
0,57,111,0
0,36,84,0
0,47,79,0
0,47,87,40
0,36,90,3
0,47,85,155
0,36,87,70
0,45,83,0
0,36,102,50
0,45,83,0
0,45,109,58
0,36,94,15
0,45,100,0
0,40,107,53
0,43,104,10
0,36,84,2
0,72,49,0
0,67,34,0
0,43,105,5
0,72,64,2
0,67,49,0
0,43,124,5
0,67,57,0
0,36,73,0
0,72,72,0
0,43,100,8
0,38,100,17
0,55,80,0
0,62,104,3
0,55,92,0
0,59,107,0
0,36,97,0
0,72,67,0
0,67,52,0
0,45,116,5
0,72,69,5
0,67,54,3
0,36,87,7
0,72,79,3
0,67,64,0
0,44,69,3
0,36,74,0
0,36,84,0
0,55,79,0
0,64,82,0
0,60,90,0
0,36,102,0
0,84,65,0
0,79,75,0
0,62,70,10
0,55,79,0
0,64,82,0
0,60,90,0
0,64,100,35
0,36,70,77
0,36,100,3
0,38,77,5
0,44,61,0
0,36,70,3
0,36,100,0
0,44,43,8
0,36,70,0
0,36,63,2
0,36,74,2
0,44,60,0
0,36,78,3
0,59,87,0
0,62,79,0
0,55,75,0
0,36,97,0
0,59,87,8
0,62,79,0
0,55,75,0
0,62,90,0
0,44,40,5
0,36,69,0
0,36,90,0
0,44,56,15
0,38,77,0
0,36,70,3
0,36,100,0
0,36,74,33
0,53,63,17
0,57,76,0
0,60,84,0
0,36,66,0
0,44,41,0
0,53,63,2
0,57,76,0
0,60,84,0
0,64,83,5
0,62,77,0
0,36,74,2
0,44,49,0
0,36,70,3
0,36,95,0
0,60,84,8
0,36,70,25
0,44,38,0
0,36,100,3
0,57,96,5
0,44,60,63
0,38,77,0
0,36,100,0
0,36,84,57
0,44,42,33
0,36,68,0
0,44,49,8
0,36,74,0
0,36,72,0
0,36,97,0
0,44,49,63
0,36,70,2
0,36,90,0
0,38,77,10
0,46,50,0
0,36,77,3
0,55,79,0
0,62,77,0
0,59,84,0
0,36,100,0
0,55,79,5
0,62,77,0
0,59,84,0
0,36,71,60
0,36,76,7
0,44,61,5
0,36,74,0
0,36,67,3
0,64,94,0
0,55,70,0
0,60,83,0
0,36,102,0
0,64,94,8
0,55,70,0
0,60,83,0
0,55,77,25
0,44,17,32
0,36,70,3
0,36,100,0
0,36,70,0
0,44,62,0
0,38,77,0
0,36,100,3
0,64,76,5
0,36,82,55
0,36,70,5
0,64,87,0
0,44,32,0
0,36,82,0
0,62,82,0
0,55,77,0
0,59,92,0
0,36,97,0
0,44,62,0
0,36,74,0
0,62,82,5
0,55,77,0
0,59,92,0
0,62,77,20
0,36,66,65
0,36,90,0
0,62,76,15
0,44,61,32
0,38,77,0
0,36,77,3
0,36,100,0
0,62,79,35
0,60,78,35
0,44,45,28
0,60,87,0
0,53,63,0
0,57,78,0
0,36,72,0
0,36,81,0
0,57,97,0
0,60,87,0
0,53,63,0
0,57,78,0
0,36,95,37
0,44,49,0
0,36,74,0
0,36,78,3
0,36,73,30
0,44,38,0
0,36,100,3
0,57,76,5
0,36,73,15
0,44,60,0
0,38,77,0
0,36,100,3
0,36,76,5
0,36,70,10
0,44,42,0
0,40,90,133
0,36,78,10
0,44,49,0
0,36,74,0
0,44,49,53
0,36,63,2
0,43,90,12
0,36,76,0
0,62,82,0
0,55,74,0
0,59,83,0
0,46,60,0
0,38,82,0
0,62,82,0
0,55,74,0
0,59,83,0
0,45,90,7
0,36,74,15
0,38,55,15
0,38,60,33
0,36,74,2
0,44,69,0
0,36,82,0
0,64,96,0
0,60,86,0
0,55,70,0
0,36,102,0
0,64,96,8
0,60,86,0
0,55,70,0
0,55,51,25
0,36,71,30
0,36,100,0
0,60,79,10
0,44,61,8
0,38,77,0
0,36,100,2
0,36,71,0
0,36,81,45
0,60,81,3
0,36,75,2
0,44,43,0
0,44,60,0
0,36,74,0
0,36,79,0
0,55,72,0
0,59,92,0
0,62,79,0
0,36,97,0
0,55,72,10
0,59,92,0
0,62,79,0
0,59,86,5
0,36,90,30
0,44,40,0
0,36,75,3
0,55,50,10
0,55,65,2
0,44,56,13
0,38,77,0
0,36,100,2
0,36,87,0
0,55,74,20
0,44,41,35
0,36,74,2
0,53,68,0
0,60,86,0
0,57,81,0
0,55,78,0
0,36,77,2
0,53,68,5
0,60,86,0
0,57,81,0
0,44,49,15
0,36,74,0
0,36,83,3
0,36,95,0
0,53,73,10
0,44,38,20
0,36,68,3
0,36,100,0
0,38,77,10
0,44,60,0
0,36,77,3
0,36,100,0
0,59,57,35
0,36,76,10
0,44,42,0
0,36,80,3
0,60,89,25
0,36,97,20
0,44,49,0
0,36,74,0
0,36,82,3
0,36,78,50
0,44,49,0
0,36,90,3
0,46,50,40
0,38,77,0
0,36,100,2
0,36,87,0
0,55,76,0
0,62,78,0
0,59,82,0
0,55,76,7
0,62,78,0
0,59,82,0
0,31,102,35
0,36,78,35
0,33,86,3
0,36,74,10
0,44,61,0
0,36,84,3
0,64,94,0
0,55,70,0
0,60,83,0
0,36,102,0
0,64,94,5
0,55,70,0
0,60,83,0
0,55,62,65
0,44,17,5
0,36,71,3
0,36,100,0
0,64,75,15
0,44,62,3
0,38,77,0
0,36,100,2
0,36,84,0
0,36,74,37
0,44,32,13
0,36,73,0
0,64,79,10
0,44,62,3
0,36,74,0
0,36,97,2
0,36,83,0
0,59,89,0
0,55,75,0
0,62,78,0
0,59,89,7
0,55,75,0
0,62,78,0
0,62,84,15
0,36,75,55
0,36,90,0
0,62,70,27
0,44,61,18
0,38,77,0
0,36,81,0
0,36,100,0
0,62,77,32
0,60,83,45
0,36,76,0
0,44,45,3
0,60,89,0
0,57,79,0
0,53,66,0
0,36,70,0
0,60,89,0
0,57,79,0
0,53,66,0
0,57,77,22
0,44,49,18
0,36,74,0
0,36,86,0
0,36,95,0
0,44,38,33
0,36,76,0
0,36,100,0
0,57,75,17
0,44,60,5
0,38,77,0
0,36,100,2
0,36,86,0
0,44,42,43
0,43,75,2
0,36,68,0
0,40,90,15
0,44,49,8
0,36,74,0
0,36,70,2
0,44,49,55
0,36,82,2
0,43,90,12
0,36,84,30
0,62,74,0
0,55,70,0
0,59,82,0
0,46,60,0
0,38,82,0
0,62,74,0
0,55,70,0
0,59,82,0
0,47,84,0
0,36,82,15
0,38,55,10
0,38,60,5
0,64,70,47
0,38,84,0
0,57,84,0
0,66,87,0
0,62,95,0
0,66,103,0
0,36,80,0
0,44,70,0
0,38,102,2
0,57,84,5
0,66,87,0
0,62,95,0
0,38,70,80
0,38,100,3
0,44,62,18
0,38,77,0
0,38,70,2
0,38,100,0
0,38,70,82
0,38,63,5
0,44,44,0
0,38,78,0
0,61,92,0
0,64,84,0
0,57,80,0
0,44,61,0
0,36,80,0
0,38,97,3
0,61,92,8
0,64,84,0
0,57,80,0
0,64,97,10
0,38,69,60
0,44,41,0
0,38,90,3
0,44,57,13
0,38,77,0
0,38,100,2
0,38,70,0
0,38,74,30
0,44,42,8
0,55,68,2
0,59,81,0
0,62,89,0
0,38,66,0
0,66,58,0
0,55,68,5
0,59,81,0
0,62,89,0
0,44,50,15
0,36,80,0
0,38,70,3
0,38,95,0
0,64,92,5
0,62,75,8
0,38,70,30
0,44,39,0
0,38,100,3
0,59,79,0
0,44,61,62
0,38,77,0
0,38,100,3
0,57,66,0
0,38,84,2
0,50,35,33
0,38,68,2
0,44,43,0
0,38,72,7
0,44,50,0
0,36,80,0
0,38,97,3
0,50,51,0
0,50,49,7
0,50,63,50
0,38,70,12
0,44,50,0
0,38,90,3
0,50,59,0
0,46,51,5
0,38,77,0
0,38,77,2
0,57,84,0
0,64,82,0
0,61,89,0
0,38,100,0
0,57,84,7
0,64,82,0
0,61,89,0
0,50,67,17
0,50,65,7
0,38,71,15
0,38,76,10
0,50,68,0
0,36,80,5
0,44,62,0
0,38,67,3
0,66,99,0
0,57,75,0
0,62,88,0
0,38,102,0
0,66,99,5
0,57,75,0
0,62,88,0
0,57,70,40
0,44,18,15
0,38,70,2
0,38,100,0
0,66,87,55
0,38,70,0
0,38,100,0
0,44,63,0
0,38,77,0
0,38,82,52
0,44,33,3
0,38,70,2
0,66,66,7
0,38,82,0
0,64,87,0
0,57,82,0
0,61,97,0
0,38,97,0
0,44,63,0
0,36,80,0
0,64,87,5
0,57,82,0
0,61,97,0
0,64,83,10
0,38,66,62
0,38,90,3
0,64,68,37
0,44,62,33
0,38,77,0
0,38,77,2
0,38,100,0
0,64,81,37
0,62,75,30
0,44,46,42
0,62,92,0
0,55,68,0
0,59,83,0
0,38,72,0
0,38,81,0
0,62,92,0
0,55,68,0
0,59,83,0
0,59,82,25
0,44,50,38
0,36,80,0
0,38,78,0
0,38,95,0
0,44,39,28
0,38,73,2
0,38,100,0
0,59,70,10
0,44,61,18
0,38,77,0
0,38,73,2
0,38,100,0
0,38,76,5
0,44,43,8
0,38,70,2
0,42,90,133
0,44,50,8
0,36,80,0
0,38,78,0
0,44,50,53
0,38,63,2
0,45,90,15
0,46,61,8
0,38,88,0
0,38,76,0
0,64,87,0
0,57,79,0
0,61,88,0
0,64,87,0
0,57,79,0
0,61,88,0
0,47,90,13
0,38,74,12
0,38,61,10
0,38,66,33
0,38,102,0
0,36,80,0
0,44,70,0
0,38,82,3
0,66,101,0
0,62,91,0
0,57,75,0
0,66,101,5
0,62,91,0
0,57,75,0
0,57,49,0
0,38,71,55
0,38,100,0
0,62,75,5
0,38,100,15
0,44,62,0
0,38,77,0
0,38,71,3
0,38,81,45
0,44,44,3
0,38,75,2
0,62,78,27
0,38,79,5
0,57,77,0
0,61,97,0
0,64,84,0
0,44,61,0
0,36,80,0
0,38,97,3
0,57,77,5
0,61,97,0
0,64,84,0
0,61,78,15
0,38,75,47
0,38,90,0
0,44,41,0
0,57,79,0
0,44,57,18
0,38,77,0
0,38,87,2
0,38,100,0
0,57,72,3
0,44,42,35
0,38,74,2
0,55,73,0
0,62,91,0
0,59,86,0
0,38,77,2
0,55,73,5
0,62,91,0
0,59,86,0
0,44,50,13
0,36,80,0
0,38,83,0
0,38,95,0
0,57,82,22
0,44,39,33
0,38,68,2
0,38,100,0
0,55,81,17
0,44,61,8
0,38,77,0
0,38,77,2
0,38,100,0
0,59,52,22
0,44,43,38
0,38,76,2
0,38,80,0
0,62,90,5
0,44,50,18
0,36,80,0
0,38,82,2
0,38,97,0
0,44,50,48
0,38,78,2
0,38,90,0
0,38,87,0
0,57,81,0
0,64,83,0
0,61,87,0
0,46,51,0
0,38,77,0
0,38,100,3
0,57,81,5
0,64,83,0
0,61,87,0
0,33,102,32
0,38,78,40
0,35,86,0
0,38,84,10
0,66,99,0
0,57,75,0
0,62,88,0
0,44,62,0
0,36,80,0
0,38,102,3
0,66,99,5
0,57,75,0
0,62,88,0
0,44,18,65
0,38,71,2
0,38,100,0
0,57,33,30
0,66,82,5
0,44,63,13
0,38,77,0
0,38,84,2
0,38,100,0
0,38,74,40
0,44,33,13
0,38,73,2
0,66,66,0
0,44,63,3
0,36,80,0
0,38,83,2
0,61,94,0
0,57,80,0
0,64,83,0
0,38,97,0
0,61,104,7
0,57,90,0
0,64,93,0
0,64,68,20
0,38,75,55
0,38,90,0
0,64,79,20
0,38,81,20
0,44,62,0
0,38,80,0
0,38,100,3
0,64,81,25
0,62,83,25
0,38,76,0
0,38,70,5
0,46,60,0
0,40,109,3
0,62,94,0
0,59,84,0
0,55,71,0
0,62,112,5
0,59,102,0
0,55,89,0
0,59,96,3
0,47,51,93
0,40,114,5
0,47,58,63
0,42,107,2
0,47,62,58
0,45,114,0
0,59,102,17
0,47,76,43
0,47,99,20
0,47,87,15
0,47,94,135
0,50,127,0
0,47,95,63
0,52,124,0
0,47,100,3
0,50,127,25
0,47,105,50
0,47,114,10
0,47,115,25
0,64,79,0
0,57,75,0
0,61,87,0
0,64,79,7
0,57,75,0
0,61,87,0
0,45,105,5
0,47,100,18
0,42,105,17
0,47,100,28
0,47,115,27
0,40,102,5
0,36,80,0
0,49,40,0
0,52,89,3
0,59,89,0
0,68,92,0
0,64,100,0
0,59,84,5
0,68,87,0
0,64,95,0
0,68,93,15
0,52,75,155
0,40,100,0
0,44,62,18
0,38,77,0
0,40,100,2
0,52,75,0
0,40,70,85
0,44,44,3
0,52,68,0
0,44,61,5
0,36,80,0
0,52,83,0
0,63,97,0
0,66,89,0
0,59,85,0
0,40,97,0
0,63,92,7
0,66,84,0
0,59,80,0
0,66,93,15
0,44,41,55
0,40,90,2
0,52,74,0
0,40,100,12
0,44,57,0
0,38,77,0
0,52,75,3
0,40,74,30
0,44,42,7
0,57,73,3
0,61,86,0
0,64,94,0
0,52,71,0
0,57,68,5
0,61,81,0
0,64,89,0
0,68,93,10
0,36,80,10
0,44,50,2
0,40,95,0
0,52,75,0
0,66,78,0
0,64,94,3
0,61,92,32
0,44,39,3
0,40,100,2
0,52,75,0
0,44,61,63
0,38,77,0
0,40,100,2
0,44,43,60
0,35,84,2
0,52,73,0
0,44,50,8
0,36,80,0
0,52,77,2
0,40,105,0
0,35,110,32
0,44,50,58
0,52,75,0
0,32,113,0
0,55,70,5
0,38,77,0
0,52,82,0
0,59,89,0
0,66,87,0
0,63,94,0
0,28,115,2
0,59,84,5
0,66,82,0
0,63,89,0
0,52,76,60
0,40,102,5
0,36,80,0
0,42,40,0
0,52,72,3
0,68,104,0
0,59,80,0
0,64,93,0
0,68,99,5
0,59,75,0
0,64,88,0
0,44,40,58
0,40,100,2
0,52,75,0
0,59,67,10
0,44,62,45
0,38,77,0
0,52,75,0
0,40,100,0
0,68,96,2
0,40,70,55
0,44,44,5
0,52,75,3
0,68,84,5
0,40,97,7
0,36,80,0
0,44,61,0
0,52,87,0
0,66,92,0
0,59,87,0
0,63,102,0
0,66,87,5
0,59,82,0
0,63,97,0
0,66,87,13
0,44,41,63
0,40,90,2
0,52,71,0
0,66,90,25
0,44,57,30
0,38,77,0
0,40,100,2
0,52,82,0
0,66,74,22
0,64,78,15
0,40,74,28
0,44,42,13
0,64,97,0
0,57,73,0
0,61,88,0
0,52,77,0
0,64,92,0
0,57,68,0
0,61,83,0
0,61,84,10
0,44,50,37
0,36,80,0
0,52,83,3
0,40,95,0
0,61,72,25
0,44,39,3
0,40,100,2
0,52,78,0
0,40,100,20
