track,note,velocity,time
1,59,69,12523
1,59,0,69
1,58,57,3
1,58,0,9
1,57,55,3
1,57,0,9
1,56,53,3
1,56,0,9
1,55,51,3
1,55,0,9
1,54,49,3
1,54,0,9
1,53,47,3
1,53,0,9
1,52,46,3
1,52,0,9
1,51,44,3
1,51,0,9
1,50,42,3
1,50,0,9
1,49,40,3
1,49,0,9
1,40,77,3
1,40,0,324
1,37,72,60
1,37,0,312
1,33,75,72
1,33,0,231
1,33,77,57
1,33,0,29
1,35,72,67
1,35,0,333
1,40,75,51
1,40,0,232
1,39,65,56
1,39,0,24
1,37,72,72
1,35,72,192
1,37,0,3
1,35,0,186
1,33,78,3
1,33,0,243
1,33,72,45
1,33,0,30
1,35,81,66
1,35,0,333
1,40,75,51
1,40,0,232
1,35,72,56
1,35,0,24
1,37,72,72
1,37,0,333
1,33,78,51
1,33,0,243
1,37,72,45
1,37,0,30
1,39,81,66
1,39,0,333
1,40,75,51
1,40,0,232
1,35,75,56
1,35,0,24
1,37,72,72
1,37,0,345
1,33,78,39
1,33,0,243
1,33,72,45
1,33,0,30
1,35,81,66
1,35,0,333
1,36,78,51
1,36,0,20
1,36,81,28
1,36,0,292
1,38,78,44
1,38,0,20
1,38,80,28
1,38,0,302
1,40,78,34
1,40,0,14
1,40,80,34
1,40,0,233
1,50,46,7
1,54,50,0
1,50,0,215
1,54,0,0
1,47,64,32
1,47,0,90
1,36,78,10
1,36,0,20
1,36,81,28
1,36,0,292
1,38,78,44
1,38,0,20
1,38,80,28
1,38,0,302
1,40,78,34
1,40,0,14
1,40,80,34
1,40,0,513
1,38,83,15
1,38,0,177
1,45,75,15
1,45,0,232
1,44,65,56
1,44,0,24
1,42,72,72
1,42,0,333
1,38,78,51
1,38,0,243
1,38,72,45
1,38,0,30
1,40,81,66
1,40,0,333
1,45,75,51
1,45,0,232
1,44,65,56
1,44,0,24
1,42,72,72
1,40,72,192
1,42,0,3
1,40,0,186
1,38,78,3
1,38,0,243
1,38,72,45
1,38,0,30
1,40,81,66
1,40,0,333
1,45,75,51
1,45,0,232
1,40,72,56
1,40,0,24
1,42,72,72
1,42,0,333
1,38,78,51
1,38,0,243
1,42,72,45
1,42,0,30
1,44,81,66
1,44,0,333
1,45,75,51
1,45,0,232
1,40,75,56
1,40,0,24
1,42,72,72
1,42,0,345
1,38,78,39
1,38,0,243
1,45,72,45
1,45,0,30
1,47,77,66
1,47,0,189
1,23,75,3
1,23,0,189
1,40,75,3
1,40,0,232
1,39,65,56
1,39,0,24
1,37,72,72
1,37,0,333
1,33,78,51
1,33,0,243
1,33,72,45
1,33,0,30
1,35,81,66
1,35,0,141
1,35,81,3
1,35,0,33
1,47,78,15
1,47,0,51
1,40,75,0
1,40,0,232
1,39,65,56
1,39,0,24
1,37,72,72
1,35,72,192
1,37,0,3
1,35,0,186
1,33,78,3
1,33,0,243
1,33,72,45
1,33,0,30
1,35,81,66
1,35,0,333
1,40,75,51
1,40,0,232
1,35,72,56
1,35,0,24
1,37,72,72
1,37,0,333
1,33,78,51
1,33,0,243
1,37,72,45
1,37,0,30
1,39,81,66
1,39,0,333
1,40,75,51
1,40,0,232
1,35,75,56
1,35,0,24
1,37,72,72
1,37,0,345
1,33,78,39
1,33,0,243
1,33,72,45
1,33,0,30
1,35,77,66
1,35,0,381
1,36,78,3
1,36,0,20
1,36,81,28
1,36,0,45
1,50,67,3
1,50,0,42
1,54,61,3
1,54,0,6
1,38,78,20
1,38,0,20
1,38,80,28
1,38,0,45
1,52,69,3
1,52,0,32
1,56,55,2
1,56,0,165
1,40,78,18
1,40,0,14
1,40,80,34
1,40,0,45
1,54,67,3
1,54,0,30
1,58,55,7
1,47,64,32
1,58,0,11
1,47,0,90
1,36,78,10
1,36,0,20
1,36,81,28
1,36,0,45
1,50,67,3
1,50,0,37
1,54,61,3
1,54,0,2
1,38,78,20
1,38,0,20
1,38,80,28
1,38,0,45
1,52,69,3
1,52,0,32
1,56,55,2
1,56,0,165
1,40,78,18
1,40,0,14
1,40,80,34
1,40,0,45
1,54,67,3
1,54,0,26
1,58,55,7
1,58,0,9
1,38,82,3
1,38,0,171
1,45,75,21
1,45,0,232
1,44,65,56
1,44,0,24
1,42,72,72
1,42,0,333
1,38,78,51
1,38,0,243
1,38,72,45
1,38,0,30
1,40,81,66
1,40,0,333
1,45,75,51
1,45,0,232
1,44,65,56
1,44,0,24
1,42,72,72
1,40,72,192
1,42,0,3
1,40,0,186
1,38,78,3
1,38,0,243
1,38,72,45
1,38,0,30
1,40,81,66
1,40,0,333
1,45,75,51
1,45,0,232
1,40,72,56
1,40,0,24
1,42,72,72
1,42,0,333
1,38,78,51
1,38,0,243
1,42,72,45
1,42,0,30
1,44,81,66
1,44,0,333
1,45,75,51
1,45,0,232
1,40,75,56
1,40,0,24
1,42,72,72
1,42,0,345
1,38,78,39
1,38,0,243
1,45,72,45
1,45,0,30
1,47,77,66
1,47,0,189
1,23,75,3
1,23,0,189
1,40,75,3
1,40,0,232
1,39,65,56
1,39,0,24
1,37,72,72
1,37,0,333
1,33,78,51
1,33,0,243
1,33,72,45
1,33,0,30
1,35,81,66
1,35,0,141
1,35,81,3
1,35,0,33
1,47,78,15
1,47,0,55
1,40,75,0
1,40,0,232
1,39,65,56
1,39,0,24
1,37,72,72
1,35,72,192
1,37,0,3
1,35,0,186
1,33,78,3
1,33,0,243
1,33,72,45
1,33,0,30
1,35,81,66
1,35,0,333
1,40,75,51
1,40,0,232
1,39,65,56
1,39,0,24
1,37,72,72
1,37,0,333
1,33,78,51
1,33,0,243
1,33,72,45
1,33,0,30
1,35,81,66
1,35,0,141
1,35,81,3
1,35,0,33
1,47,78,15
1,47,0,55
1,40,75,0
1,40,0,232
1,39,65,56
1,39,0,24
1,37,72,72
1,35,72,192
1,37,0,3
1,35,0,186
1,33,78,3
1,33,0,243
1,33,72,45
1,33,0,30
1,35,81,66
1,35,0,333
1,40,75,0
1,40,0,32
1,39,65,40
1,39,0,16
1,37,72,40
1,37,0,21
1,33,78,24
1,33,0,19
1,33,72,16
1,33,0,30
1,35,81,8
1,35,0,5
1,35,81,3
1,35,0,33
1,47,78,0
1,47,0,47
1,40,75,0
1,40,0,32
1,39,65,40
1,39,0,8
1,37,72,32
1,35,72,24
1,37,0,3
1,35,0,21
1,33,78,3
1,33,0,19
1,33,72,8
1,33,0,30
1,35,81,8
1,35,0,45
2,52,122,28087
2,52,0,29
2,52,118,15
2,52,0,21
2,52,118,27
2,52,0,25
2,52,118,19
2,52,0,24
2,52,127,0
2,50,101,61
2,52,0,3
2,50,0,78
2,52,118,302
2,52,0,20
2,52,118,27
2,52,0,24
2,52,118,23
2,52,0,85
2,52,118,15
2,52,0,77
2,54,122,13
2,54,0,35
2,54,122,44
2,54,0,32
2,52,122,154
2,52,0,18
2,52,118,26
2,52,0,25
2,52,118,23
2,52,0,19
2,52,118,25
2,52,0,29
2,52,127,0
2,50,101,61
2,52,0,3
2,50,0,78
2,52,118,302
2,52,0,20
2,52,118,27
2,52,0,24
2,52,118,23
2,52,0,85
2,52,118,15
2,52,0,77
2,54,119,13
2,54,0,35
2,54,122,44
2,54,0,87
2,55,104,1
2,55,0,85
2,52,122,12392
2,52,0,29
2,52,118,15
2,52,0,21
2,52,118,27
2,52,0,25
2,52,118,19
2,52,0,24
2,52,127,0
2,50,101,61
2,52,0,3
2,50,0,78
2,52,118,302
2,52,0,20
2,52,118,27
2,52,0,24
2,52,118,23
2,52,0,85
2,52,118,15
2,52,0,77
2,54,122,13
2,54,0,35
2,54,122,44
2,54,0,32
2,52,122,154
2,52,0,18
2,52,118,26
2,52,0,25
2,52,118,23
2,52,0,19
2,52,118,25
2,52,0,29
2,52,127,0
2,50,101,61
2,52,0,3
2,50,0,78
2,52,118,302
2,52,0,20
2,52,118,27
2,52,0,24
2,52,118,23
2,52,0,85
2,52,118,15
2,52,0,77
2,54,119,13
2,54,0,35
2,54,122,44
2,54,0,87
2,55,104,1
2,55,0,85
2,52,122,104
2,52,0,29
2,52,118,15
2,52,0,21
2,52,118,27
2,52,0,25
2,52,118,19
2,52,0,24
2,52,127,0
2,50,101,61
2,52,0,3
2,50,0,78
2,52,118,302
2,52,0,20
2,52,118,27
2,52,0,24
2,52,118,23
2,52,0,85
2,52,118,15
2,52,0,77
2,54,122,13
2,54,0,35
2,54,122,44
2,54,0,32
2,52,122,154
2,52,0,18
2,52,118,26
2,52,0,25
2,52,118,23
2,52,0,19
2,52,118,25
2,52,0,29
2,52,127,0
2,50,101,61
2,52,0,3
2,50,0,78
2,52,118,302
2,52,0,20
2,52,118,27
2,52,0,24
2,52,118,23
2,52,0,85
2,52,118,15
2,52,0,77
2,54,119,13
2,54,0,35
2,54,122,44
2,54,0,87
2,55,104,1
2,55,0,85
2,52,122,24
2,52,0,5
2,52,118,15
2,52,0,21
2,52,118,20
2,52,0,25
2,52,118,16
2,52,0,24
2,52,127,0
2,50,101,13
2,52,0,3
2,50,0,6
2,52,118,20
2,52,0,20
2,52,118,27
2,52,0,3
2,52,118,23
2,52,0,15
2,52,118,15
2,52,0,11
2,54,122,13
2,54,0,30
2,54,122,34
2,54,0,32
2,52,122,0
2,52,0,18
2,52,118,26
2,52,0,21
2,52,118,23
2,52,0,15
2,52,118,0
2,52,0,29
2,52,127,0
2,50,101,45
2,52,0,3
2,50,0,30
2,52,118,4
2,52,0,20
2,52,118,3
2,52,0,24
2,52,118,2
2,52,0,39
2,52,118,6
2,52,0,43
2,54,119,8
2,54,0,14
3,59,96,6670
3,59,0,81
3,66,83,12
3,64,92,50
3,66,0,4
3,64,0,415
3,64,96,111
3,64,0,32
3,64,96,64
3,64,0,88
3,68,87,8
3,68,0,62
3,68,95,34
3,68,0,36
3,66,83,15
3,66,0,17
3,66,95,29
3,66,0,231
3,68,89,63
3,68,0,56
3,68,83,31
3,68,0,89
3,69,96,5
3,68,89,96
3,69,0,10
3,68,0,502
3,68,85,61
3,68,0,51
3,68,83,40
3,71,96,100
3,68,0,5
3,71,0,47
3,71,96,48
3,71,0,35
3,69,96,13
3,69,0,23
3,69,96,25
3,69,0,297
3,71,96,93
3,71,0,32
3,71,96,56
3,71,0,96
3,73,89,2
3,73,0,53
3,73,95,42
3,68,79,99
3,73,0,6
3,68,0,39
3,68,86,45
3,71,96,94
3,68,0,10
3,71,0,22
3,71,96,21
3,64,96,146
3,71,0,5
3,64,0,29
3,64,96,59
3,64,0,43
3,66,87,2
3,66,0,26
3,66,92,27
3,66,0,393
3,71,96,185
3,71,0,31
3,71,96,68
3,73,83,90
3,71,0,3
3,73,0,36
3,73,101,59
3,68,83,105
3,73,0,7
3,68,0,37
3,68,89,44
3,71,96,50
3,68,0,5
3,71,0,19
3,71,96,28
3,64,96,183
3,71,0,5
3,64,0,26
3,64,96,62
3,66,93,48
3,64,0,5
3,66,0,39
3,59,96,6
3,59,0,391
3,59,96,335
3,59,0,45
3,66,83,3
3,64,92,92
3,66,0,1
3,64,0,418
3,64,96,65
3,64,0,32
3,64,96,64
3,64,0,88
3,68,87,8
3,68,0,62
3,68,95,34
3,68,0,36
3,66,83,15
3,66,0,17
3,66,95,29
3,66,0,231
3,68,89,63
3,68,0,56
3,68,83,31
3,68,0,89
3,69,96,4
3,68,89,93
3,69,0,13
3,68,0,499
3,68,85,65
3,68,0,51
3,68,83,40
3,71,96,100
3,68,0,5
3,71,0,47
3,71,96,48
3,71,0,35
3,69,96,13
3,69,0,23
3,69,96,25
3,69,0,297
3,71,96,93
3,71,0,32
3,71,96,56
3,71,0,96
3,73,89,2
3,73,0,53
3,73,95,42
3,68,79,99
3,73,0,6
3,68,0,39
3,68,86,45
3,71,96,94
3,68,0,10
3,71,0,22
3,71,96,21
3,64,96,146
3,71,0,5
3,64,0,29
3,64,96,59
3,64,0,43
3,66,87,2
3,66,0,26
3,66,92,27
3,66,0,393
3,71,96,189
3,71,0,32
3,71,96,56
3,71,0,96
3,73,89,2
3,73,0,53
3,73,95,42
3,68,79,99
3,73,0,6
3,68,0,39
3,68,86,45
3,71,96,94
3,68,0,10
3,71,0,22
3,71,96,21
3,64,96,146
3,71,0,5
3,64,0,29
3,64,96,59
3,64,0,43
3,66,87,2
3,66,0,26
3,66,92,27
3,66,0,393
3,67,96,183
3,67,0,48
3,67,97,52
3,67,0,46
3,67,96,50
3,67,0,72
3,69,99,24
3,69,0,53
3,69,99,48
3,69,0,47
3,69,100,46
3,69,0,37
3,67,96,3
3,67,0,51
3,71,99,0
3,71,0,596
3,76,109,67
3,76,0,16
3,76,108,27
3,76,0,97
3,76,97,19
3,76,0,222
3,74,96,7
3,72,89,101
3,74,0,3
3,72,0,43
3,76,96,3
3,76,0,138
3,74,96,1
3,74,0,53
3,74,96,47
3,74,0,22
3,74,96,24
3,74,0,35
3,76,102,12
3,76,0,669
3,74,96,4
3,74,0,177
3,64,96,300
3,69,96,40
3,64,0,5
3,69,0,33
3,71,96,2
3,71,0,108
3,69,96,3
3,69,0,97
3,69,96,296
3,69,0,32
3,69,96,64
3,69,0,88
3,73,87,8
3,73,0,62
3,73,95,34
3,73,0,36
3,71,83,15
3,71,0,17
3,71,95,29
3,71,0,231
3,73,89,63
3,73,0,56
3,73,83,31
3,73,0,89
3,74,96,4
3,73,89,93
3,74,0,13
3,73,0,499
3,73,85,65
3,73,0,51
3,73,83,40
3,76,96,100
3,73,0,5
3,76,0,47
3,76,96,48
3,76,0,35
3,74,96,13
3,74,0,23
3,74,96,25
3,74,0,297
3,76,96,93
3,76,0,32
3,76,96,56
3,76,0,96
3,78,89,2
3,78,0,53
3,78,95,42
3,73,79,99
3,78,0,6
3,73,0,39
3,73,86,45
3,76,96,94
3,73,0,10
3,76,0,22
3,76,96,21
3,69,96,146
3,76,0,5
3,69,0,29
3,69,96,59
3,69,0,43
3,71,87,2
3,71,0,26
3,71,92,27
3,71,0,393
3,76,96,185
3,76,0,31
3,76,96,68
3,78,83,90
3,76,0,3
3,78,0,36
3,78,101,59
3,73,83,105
3,78,0,7
3,73,0,37
3,73,89,44
3,76,96,50
3,73,0,5
3,76,0,19
3,76,96,28
3,69,96,183
3,76,0,5
3,69,0,26
3,69,96,62
3,71,93,48
3,69,0,5
3,71,0,39
3,71,96,4
3,71,0,325
3,75,101,14
3,71,96,97
3,75,0,5
3,71,0,236
3,71,96,2981
3,71,0,32
3,71,96,56
3,71,0,96
3,73,89,2
3,73,0,53
3,73,95,42
3,68,79,99
3,73,0,6
3,68,0,39
3,68,86,45
3,71,96,94
3,68,0,10
3,71,0,22
3,71,96,21
3,64,96,146
3,71,0,5
3,64,0,29
3,64,96,59
3,64,0,43
3,66,87,2
3,66,0,26
3,66,92,27
3,66,0,393
3,71,96,189
3,71,0,32
3,71,96,56
3,71,0,96
3,73,89,2
3,73,0,53
3,73,95,42
3,68,79,99
3,73,0,6
3,68,0,39
3,68,86,45
3,71,96,94
3,68,0,10
3,71,0,22
3,71,96,21
3,64,96,146
3,71,0,5
3,64,0,29
3,64,96,59
3,64,0,43
3,66,87,2
3,66,0,26
3,66,92,27
3,66,0,393
3,67,96,183
3,67,0,48
3,67,97,52
3,67,0,46
3,67,96,50
3,67,0,72
3,69,99,24
3,69,0,53
3,69,99,48
3,69,0,47
3,69,100,46
3,69,0,37
3,67,96,3
3,67,0,51
3,71,99,0
3,71,0,596
3,76,109,67
3,76,0,16
3,76,108,27
3,76,0,97
3,76,97,19
3,76,0,222
3,74,96,7
3,72,89,101
3,74,0,3
3,72,0,43
3,76,96,3
3,76,0,138
3,74,96,1
3,74,0,53
3,74,96,47
3,74,0,22
3,74,96,24
3,74,0,35
3,76,102,12
3,76,0,669
3,74,96,4
3,74,0,177
3,64,96,300
3,69,96,40
3,64,0,5
3,69,0,33
3,71,96,2
3,71,0,108
3,69,96,3
3,69,0,97
3,69,96,296
3,69,0,32
3,69,96,64
3,69,0,88
3,73,87,8
3,73,0,62
