track,note,velocity,time
4,37,104,21534
4,37,0,643
4,37,98,40
4,37,0,56
4,37,99,37
4,37,0,716
4,37,103,38
4,37,0,643
4,37,107,40
4,37,0,59
4,37,99,36
4,37,0,647
4,32,105,112
4,32,0,638
4,32,106,50
4,32,0,51
4,32,98,45
4,32,0,333
4,36,101,34
4,36,0,327
4,37,101,56
4,37,0,642
4,37,104,48
4,37,0,51
4,37,102,39
4,37,0,346
4,36,105,15
4,36,0,351
4,34,100,57
4,34,0,622
4,34,104,42
4,34,0,54
4,34,107,53
4,34,0,345
4,32,106,31
4,32,0,348
4,30,100,38
4,30,0,629
4,30,100,43
4,30,0,50
4,30,100,43
4,30,0,726
4,32,106,48
4,32,0,617
4,32,102,49
4,32,0,51
4,32,101,48
4,32,0,320
4,34,99,53
4,34,0,337
4,36,100,60
4,36,0,625
4,36,103,45
4,36,0,60
4,36,100,43
4,36,0,751
4,37,99,7
4,37,0,643
4,37,99,40
4,37,0,56
4,37,106,37
4,37,0,716
4,37,105,38
4,37,0,643
4,37,100,40
4,37,0,59
4,37,100,36
4,37,0,647
4,32,98,112
4,32,0,638
4,32,100,50
4,32,0,51
4,32,107,45
4,32,0,333
4,36,103,34
4,36,0,327
4,37,100,56
4,37,0,642
4,37,104,48
4,37,0,51
4,37,99,39
4,37,0,346
4,36,104,15
4,36,0,351
4,34,102,57
4,34,0,622
4,34,99,42
4,34,0,54
4,34,101,53
4,34,0,345
4,32,105,31
4,32,0,348
4,30,103,38
4,30,0,629
4,30,105,43
4,30,0,50
4,30,103,43
4,30,0,726
4,32,100,48
4,32,0,617
4,32,102,49
4,32,0,51
4,32,104,48
4,32,0,320
4,34,99,53
4,34,0,337
4,36,102,60
4,36,0,1476
4,39,102,55
4,39,0,332
4,36,106,50
4,36,0,244
4,37,99,39
4,37,0,58
4,37,105,36
4,37,0,618
4,39,98,158
4,32,102,671
4,39,0,1
4,32,0,381
4,37,98,5
4,37,0,404
4,39,101,70
4,36,103,383
4,39,0,6
4,36,0,236
4,37,103,34
4,37,0,70
4,37,105,36
4,37,0,364
4,34,106,30
4,35,105,281
4,34,0,4
4,35,0,426
4,35,101,46
4,35,0,256
4,36,106,38
4,36,0,58
4,36,101,43
4,36,0,759
4,37,105,7
4,37,0,643
4,37,105,40
4,37,0,56
4,37,99,37
4,37,0,716
4,37,101,38
4,37,0,643
4,37,101,40
4,37,0,59
4,37,99,36
4,37,0,647
4,32,99,112
4,32,0,638
4,32,98,50
4,32,0,51
4,32,105,45
4,32,0,333
4,36,100,34
4,36,0,327
4,37,107,56
4,37,0,642
4,37,98,48
4,37,0,51
4,37,104,39
4,37,0,346
4,36,102,15
4,36,0,351
4,34,107,57
4,34,0,622
4,34,101,42
4,34,0,54
4,34,100,53
4,34,0,345
4,32,104,31
4,32,0,348
4,30,98,38
4,30,0,629
4,30,104,43
4,30,0,50
4,30,101,43
4,30,0,726
4,32,99,48
4,32,0,617
4,32,106,49
4,32,0,51
4,32,107,48
4,32,0,320
4,37,99,445
4,37,0,643
4,37,105,40
4,37,0,56
4,37,99,37
4,37,0,716
4,37,106,38
4,37,0,643
4,37,100,40
4,37,0,59
4,37,106,36
4,37,0,647
4,32,103,112
4,32,0,638
4,32,102,50
4,32,0,51
4,32,98,45
4,32,0,333
4,36,101,34
4,36,0,327
4,37,107,56
4,37,0,642
4,37,102,48
4,37,0,51
4,37,99,39
4,37,0,346
4,36,102,15
4,36,0,351
4,34,106,57
4,34,0,622
4,34,106,42
4,34,0,54
4,34,105,53
4,34,0,345
4,32,98,31
4,32,0,348
4,30,100,38
4,30,0,629
4,30,100,43
4,30,0,50
4,30,104,43
4,30,0,726
4,32,104,48
4,32,0,1478
5,56,106,3450
5,56,0,241
5,56,113,72
5,56,0,952
5,56,115,85
5,56,0,107
5,56,116,85
5,56,0,160
5,54,88,29
5,54,0,88
5,58,108,29
5,58,0,1183
5,56,111,41
5,56,0,241
5,56,112,72
5,56,0,952
5,56,113,85
5,56,0,107
5,56,111,85
5,56,0,160
5,54,90,29
5,54,0,88
5,58,106,29
5,58,0,1183
5,44,96,10023
5,48,94,0
5,48,0,209
5,44,0,4
5,46,106,186
5,49,102,1
5,46,0,169
5,49,0,1
5,48,95,204
5,51,88,0
5,51,0,1466
5,48,0,5
5,65,114,30779
5,65,0,1150
5,68,117,2
5,68,0,382
5,66,108,2
5,66,0,1142
5,68,84,10
5,68,0,382
5,63,111,2
5,63,0,1150
5,66,106,2
5,66,0,382
5,65,107,2
5,65,0,1511
5,73,120,39
5,72,118,1144
5,73,0,14
5,72,0,290
5,68,111,2
5,68,0,65
5,70,122,6
5,70,0,1519
5,63,110,18
5,63,0,1534
5,65,95,387
5,65,0,911
5,65,97,44
5,65,0,120
5,65,91,68
5,63,88,186
5,65,0,3
5,66,93,104
5,63,0,6
5,66,0,1216
5,60,91,29
5,60,0,1084
5,60,96,61
5,60,0,88
5,61,88,11
5,61,0,76
5,63,94,30
5,63,0,118
5,63,93,59
5,63,0,144
5,61,87,38
5,61,0,100
5,65,88,14
5,61,89,673
5,60,90,96
5,61,0,6
5,60,0,172
5,61,89,14
5,61,0,172
5,58,90,20
5,65,0,20
5,58,0,1226
5,56,92,14
5,56,0,373
5,54,90,5
5,54,0,1517
5,60,93,13
5,60,0,1540
6,65,108,9913
6,65,0,27
6,65,108,81
6,65,0,28
6,65,96,22
6,65,0,24
6,65,114,16
6,65,0,35
6,68,110,68
6,68,0,119
6,68,115,1
6,68,0,1
6,63,102,813
6,63,0,80
6,63,101,70
6,63,0,46
6,63,94,57
6,63,0,54
6,65,107,60
6,65,0,40
6,66,103,18
6,66,0,487
6,72,104,827
6,72,0,40
6,72,106,66
6,72,0,36
6,72,109,42
6,72,0,42
6,72,99,81
6,72,0,30
6,72,102,37
6,72,0,32
6,72,91,28
6,72,0,43
6,73,113,48
6,73,0,99
6,73,111,50
6,73,0,341
6,73,111,30
6,73,0,75
6,75,102,52
6,75,0,46
6,73,113,22
6,73,0,153
6,68,106,42
6,68,0,49
6,68,102,53
6,68,0,494
6,61,95,1054
6,61,0,51
6,61,98,52
6,61,0,141
6,61,103,50
6,61,0,53
6,63,110,37
6,63,0,65
6,63,107,47
6,63,0,456
6,61,107,44
6,61,0,89
6,61,102,41
6,61,0,86
6,65,109,15
6,65,0,62
6,63,110,50
6,63,0,169
6,58,109,50
6,58,0,415
6,72,110,716
6,72,0,42
6,72,114,83
6,72,0,27
6,72,112,28
6,72,0,32
6,72,111,19
6,72,0,113
6,72,106,177
6,72,0,39
6,72,116,58
6,72,0,157
6,73,111,27
6,73,0,81
6,75,110,33
6,75,0,141
6,75,115,34
6,75,0,118
6,75,107,5
6,75,0,1139
6,65,102,770
6,65,0,40
6,65,105,63
6,65,0,32
6,65,93,29
6,65,0,29
6,65,86,25
6,65,0,43
6,68,108,49
6,68,0,108
6,68,113,41
6,68,0,414
6,68,110,72
6,68,0,90
6,68,106,51
6,68,0,69
6,70,108,26
6,70,0,41
6,68,108,33
6,68,0,146
6,66,104,27
6,66,0,63
6,68,112,22
6,68,0,590
6,72,105,832
6,72,0,39
6,72,105,58
6,72,0,113
6,72,103,68
6,72,0,65
6,75,109,34
6,75,0,165
6,75,107,35
6,75,0,376
6,73,109,43
6,73,0,110
6,75,108,41
6,75,0,86
6,73,117,45
6,73,0,102
6,68,112,67
6,68,0,44
6,68,116,40
6,68,0,589
6,61,113,948
6,61,0,44
6,61,109,50
6,61,0,146
6,61,91,34
6,61,0,56
6,63,113,26
6,63,0,86
6,63,110,55
6,63,0,123
6,61,101,8
6,61,0,97
6,63,106,40
6,63,0,93
6,63,111,50
6,63,0,196
6,58,101,9
6,58,0,506
6,72,113,853
6,72,0,40
6,72,108,61
6,72,0,121
6,72,106,71
6,72,0,33
6,72,116,54
6,72,0,261
6,73,113,42
6,73,0,73
6,75,106,32
6,75,0,138
6,75,116,39
6,75,0,75
6,75,99,21
6,75,0,742
6,80,114,218
6,80,0,36
6,80,119,56
6,80,0,36
6,80,113,65
6,80,0,33
6,78,112,4
6,78,0,146
6,77,111,44
6,77,0,610
6,77,115,521
6,77,0,159
6,78,117,38
6,78,0,153
6,77,107,40
6,77,0,168
6,75,105,25
6,75,0,83
6,78,112,19
6,78,0,763
6,75,106,1104
6,75,0,55
6,75,110,36
6,75,0,49
6,75,107,40
6,75,0,35
6,75,103,33
6,75,0,156
6,75,111,64
6,75,0,161
6,75,117,49
6,75,0,92
6,77,99,33
6,77,0,93
6,75,108,31
6,75,0,152
6,73,114,33
6,73,0,79
6,77,103,23
6,77,0,791
6,73,110,747
6,73,0,53
6,73,111,42
6,73,0,80
6,73,110,86
6,73,0,54
6,75,115,38
6,75,0,2
6,73,113,17
6,73,0,123
6,73,110,283
6,73,0,40
6,73,107,36
6,73,0,37
6,75,106,31
6,75,0,95
6,75,110,38
6,75,0,133
6,70,108,14
6,70,0,181
6,72,109,1354
6,72,0,45
6,72,107,54
6,72,0,139
6,72,108,54
6,72,0,43
6,72,115,51
6,72,0,248
6,73,116,30
6,73,0,60
6,73,111,40
6,73,0,163
6,77,112,11
6,77,0,143
6,75,107,50
6,75,0,842
6,65,118,7134
6,65,0,47
6,65,114,53
6,65,0,145
6,65,121,42
6,65,0,41
6,68,121,53
6,68,0,88
6,68,122,97
6,68,0,83
6,68,116,396
6,68,0,69
6,70,118,31
6,70,0,47
6,68,116,49
6,68,0,158
6,66,115,32
6,66,0,73
6,70,111,23
6,70,0,100
6,70,124,102
6,70,0,84
6,72,122,1344
6,72,0,106
6,72,105,47
6,72,0,56
6,72,111,62
6,72,0,55
6,75,123,52
6,75,0,137
6,75,114,68
6,75,0,254
6,73,113,42
6,73,0,124
6,75,109,36
6,75,0,98
6,73,119,32
6,73,0,105
6,68,114,32
6,68,0,55
6,68,108,45
6,68,0,56
6,68,120,79
6,68,0,556
6,61,123,973
6,61,0,110
6,61,115,57
6,61,0,84
6,61,113,38
6,61,0,59
6,63,124,28
6,63,0,91
6,63,123,32
6,61,108,78
6,63,0,17
6,63,121,86
6,61,0,2
6,63,0,117
6,63,120,56
6,63,0,276
6,58,116,4
6,58,0,625
6,72,113,653
6,72,0,55
6,72,113,39
6,72,0,143
6,72,118,53
6,72,0,48
6,72,114,37
6,72,0,267
6,73,123,13
6,73,0,107
6,75,117,83
6,75,0,158
6,77,118,143
6,73,119,104
6,77,0,2
6,73,0,369
6,61,118,6138
6,61,0,110
6,61,121,57
6,61,0,84
6,61,113,38
6,61,0,59
6,63,120,28
6,63,0,91
6,63,116,32
6,61,109,78
6,63,0,17
6,63,123,86
6,61,0,2
6,63,0,117
6,63,121,56
6,63,0,276
6,58,123,4
6,58,0,625
6,72,113,653
6,72,0,55
6,72,123,39
6,72,0,143
6,72,119,53
6,72,0,48
6,72,121,37
6,72,0,267
6,73,117,13
6,73,0,107
6,75,124,83
6,75,0,158
6,77,118,143
6,73,117,104
6,77,0,2
6,73,0,369
7,49,111,392
7,49,0,50
7,56,110,128
7,56,0,42
7,56,113,150
7,56,0,39
7,56,106,153
7,56,0,40
7,49,114,152
7,49,0,50
7,56,103,142
7,56,0,43
7,56,104,149
7,56,0,40
7,56,109,152
7,56,0,43
7,49,106,149
7,49,0,50
7,58,105,142
7,58,0,42
7,58,109,150
7,58,0,39
7,58,109,153
7,58,0,40
7,49,111,152
7,49,0,50
7,58,107,142
7,58,0,43
7,58,104,149
7,58,0,40
7,58,115,152
7,58,0,43
7,49,108,163
7,49,0,50
7,56,104,128
7,56,0,42
7,56,114,150
7,56,0,39
7,56,110,153
7,56,0,40
7,49,113,152
7,49,0,50
7,56,108,142
7,56,0,43
7,56,103,149
7,56,0,40
7,56,113,152
7,56,0,43
7,49,116,149
7,49,0,50
7,58,104,142
7,58,0,42
7,58,106,150
7,58,0,39
7,58,107,153
7,58,0,40
7,49,110,152
7,49,0,50
7,58,104,142
7,58,0,43
7,58,107,149
7,58,0,40
7,58,111,152
7,58,0,43
7,49,115,163
7,49,0,50
7,56,104,128
7,56,0,42
7,56,112,150
7,56,0,39
7,56,107,153
7,56,0,40
7,49,107,152
7,49,0,50
7,56,104,142
7,56,0,43
7,56,105,149
7,56,0,40
7,56,106,152
7,56,0,43
7,49,115,149
7,49,0,50
7,58,110,142
7,58,0,42
7,58,110,150
7,58,0,39
7,58,109,153
7,58,0,40
7,49,113,152
7,49,0,50
7,58,103,142
7,58,0,43
7,58,103,149
7,58,0,40
7,58,115,152
7,58,0,43
7,49,112,163
7,49,0,50
7,56,110,128
7,56,0,42
7,56,107,150
7,56,0,39
7,56,108,153
7,56,0,40
7,49,115,152
7,49,0,50
7,56,110,142
7,56,0,43
7,56,108,149
7,56,0,40
7,56,107,152
7,56,0,43
7,49,114,149
7,49,0,50
7,58,111,142
7,58,0,42
7,58,111,150
7,58,0,39
7,58,114,153
7,58,0,40
7,49,111,152
7,49,0,50
7,58,103,142
7,58,0,43
7,58,110,149
7,58,0,40
7,58,108,152
7,58,0,43
7,36,100,163
7,48,112,0
7,48,0,367
7,36,0,1
7,36,105,390
7,48,100,0
7,48,0,341
7,36,0,4
7,37,76,429
7,49,96,3
7,49,0,364
7,37,0,8
7,49,88,388
7,37,86,1
7,49,0,279
7,37,0,6
7,48,92,102
7,36,96,5
7,48,0,230
7,36,0,6
7,34,109,148
7,46,112,0
7,46,0,106
7,34,0,0
7,41,86,552
7,29,103,1
7,41,0,39
7,29,0,1
7,46,113,55
7,34,101,1
7,46,0,150
7,34,0,1
7,44,106,234
7,32,113,1
7,44,0,148
7,32,0,5
7,42,96,215
7,30,106,3
7,30,0,166
7,42,0,5
7,30,90,615
7,42,114,1
7,30,0,145
7,42,0,2
7,32,109,626
7,44,117,0
7,32,0,162
7,44,0,5
7,32,113,598
7,44,119,0
7,48,115,3
7,33,98,8
7,33,0,8
7,48,0,147
7,44,0,44
7,32,0,4
7,49,111,171
7,46,112,1
7,34,118,1
7,35,68,13
7,35,0,12
7,49,0,163
7,46,0,21
7,34,0,1
7,51,109,161
7,48,110,14
7,36,118,1
7,48,0,21
7,36,0,5
7,51,0,18
7,56,88,32
7,56,0,1537
7,58,57,6
7,58,0,1504
7,56,83,24
7,65,92,1536
7,73,87,1173
7,56,0,313
7,58,85,50
7,73,0,1152
7,65,0,382
7,56,76,1537
7,58,0,2
7,56,0,731
7,56,92,38
7,58,82,390
7,56,0,8
7,56,87,373
7,60,44,5
7,58,0,4
7,56,0,929
7,60,0,474
7,49,66,119
7,56,72,0
7,58,84,1527
7,56,0,13
7,51,79,1515
7,58,0,1
7,56,78,1
7,49,0,11
7,49,71,1519
7,51,0,2
7,61,80,768
7,60,91,397
7,61,0,2
7,60,0,370
7,56,0,8
7,49,0,1
7,61,86,9
7,58,84,5
7,46,83,1
7,58,0,1094
7,46,0,3
7,56,83,45
7,44,84,6
7,44,0,332
7,56,0,1
7,54,45,48
7,42,84,4
7,63,92,8
7,61,0,4
7,42,0,1415
7,54,0,5
7,44,76,90
7,56,90,2
7,60,95,3
7,63,0,3
7,44,0,1097
7,56,0,7
7,60,0,38
7,61,81,1
7,58,91,7
7,46,95,2
7,46,0,339
7,58,0,0
7,63,80,42
7,61,0,2
7,48,89,5
7,60,95,0
7,60,0,1445
7,48,0,4
7,63,0,68
7,51,81,23
7,51,0,332
7,48,86,50
7,48,0,244
7,49,84,39
7,49,0,816
7,51,87,54
7,44,83,671
7,51,0,1
7,44,0,381
7,49,85,5
7,49,0,472
7,51,82,2
7,48,86,383
7,51,0,6
7,48,0,236
7,49,81,34
7,49,0,443
7,46,87,57
7,47,86,281
7,46,0,4
7,47,0,762
7,48,81,4
7,48,0,812
7,49,115,50
7,49,0,50
7,56,110,128
7,56,0,42
7,56,114,150
7,56,0,39
7,56,111,153
7,56,0,40
7,49,110,152
7,49,0,50
7,56,106,142
7,56,0,43
7,56,104,149
7,56,0,40
7,56,109,152
7,56,0,43
7,49,106,149
7,49,0,50
7,58,104,142
7,58,0,42
7,58,114,150
7,58,0,39
