track,note,velocity,time
2,36,96,34
2,35,94,0
2,36,96,0
2,35,92,0
2,36,104,0
2,38,109,0
2,36,89,0
2,38,94,0
2,40,75,0
2,38,83,0
2,33,90,0
2,35,82,0
2,36,94,0
2,38,84,0
2,36,68,0
3,24,75,870
3,35,64,8
3,33,64,8
3,35,64,8
3,36,64,8
3,38,64,8
3,36,64,8
3,38,85,8
3,40,80,0
3,38,80,8
3,33,80,8
3,35,80,8
3,36,80,8
3,38,80,8
3,36,80,8
3,33,105,8
3,34,90,24
3,33,85,8
3,31,85,8
3,30,85,8
3,29,85,8
3,28,85,8
3,36,85,8
3,36,85,16
3,33,102,0
3,34,90,8
3,33,85,8
3,31,85,8
3,30,85,8
3,29,85,8
3,28,85,8
3,36,85,8
3,36,85,16
3,38,90,0
3,24,98,8
3,35,87,8
3,33,87,8
3,35,87,8
3,36,87,8
3,38,87,8
3,36,87,8
3,38,108,8
3,40,103,0
3,38,103,8
3,33,103,8
3,35,103,8
3,36,103,6
3,38,103,8
3,36,103,8
3,33,127,8
3,34,100,24
3,31,100,8
3,27,100,8
3,29,100,6
3,34,100,8
3,33,100,4
3,31,100,4
3,29,100,4
3,36,95,4
3,33,90,8
3,39,90,8
3,38,90,8
3,39,90,8
3,38,90,8
3,39,90,8
3,38,90,6
3,39,90,8
3,39,90,68
3,41,102,18
3,31,80,8
3,30,80,8
3,31,80,8
3,30,80,8
3,31,80,8
3,30,80,8
3,31,80,8
3,33,80,4
3,35,80,8
3,33,80,8
3,28,80,8
3,30,80,8
3,28,80,8
3,30,80,8
3,31,80,8
3,35,80,4
3,24,98,8
3,35,87,8
3,33,87,8
3,35,87,8
3,36,87,8
3,38,87,8
3,36,87,10
3,38,108,8
3,40,103,0
3,38,103,8
3,33,103,8
3,35,103,8
3,36,103,8
3,38,103,8
3,36,103,6
3,33,127,8
3,34,100,22
3,31,100,8
3,27,100,8
3,29,100,8
3,34,100,8
3,33,100,4
3,31,100,4
3,29,100,4
3,36,90,4
3,33,90,8
3,39,90,6
3,38,90,8
3,39,90,8
3,38,90,8
3,39,90,8
3,38,90,8
3,39,90,8
3,39,90,68
3,41,102,20
3,31,80,8
3,30,80,8
3,31,80,8
3,30,80,8
3,31,80,8
3,30,80,8
3,31,80,8
3,33,80,4
3,35,80,8
3,33,80,4
3,28,80,6
3,30,80,8
3,28,80,6
3,30,80,8
3,31,80,8
3,31,87,16
3,33,95,36
3,35,80,8
3,33,80,8
3,28,80,8
3,30,80,8
3,28,80,8
3,30,80,8
3,31,80,8
3,31,87,16
3,33,95,36
3,35,80,8
3,33,80,8
3,28,80,0
3,30,80,8
3,28,80,8
3,30,80,8
3,31,80,8
3,31,87,16
3,33,95,30
3,35,80,8
3,33,80,8
3,28,80,10
3,30,80,8
3,28,80,8
4,36,105,54
4,48,100,96
4,55,119,96
4,60,119,0
4,62,119,96
4,64,119,96
4,66,119,56
4,35,119,0
4,69,119,0
4,59,119,0
4,62,119,0
4,67,100,188
4,62,119,52
4,59,119,152
4,36,119,192
4,48,119,72
4,55,119,96
4,60,119,0
4,62,119,92
4,64,119,0
4,66,119,20
4,69,119,4
4,59,119,0
4,35,119,0
4,47,119,0
4,62,119,0
4,67,110,164
4,55,90,4
4,59,90,96
4,50,80,0
4,55,90,88
4,36,119,4
4,48,119,88
4,55,119,16
4,60,119,0
4,62,119,96
4,64,119,0
4,66,119,20
4,69,119,0
4,38,119,0
4,59,119,0
4,62,119,0
4,67,119,184
4,62,119,80
4,59,119,164
4,55,119,8
4,64,119,0
4,60,119,0
4,48,119,0
4,36,119,0
4,55,60,84
4,60,80,88
4,62,65,96
4,55,80,16
4,60,85,0
4,48,75,192
4,50,80,0
4,50,119,28
4,38,119,0
4,55,119,0
4,62,119,0
4,59,119,0
4,40,119,8
4,55,119,0
4,52,119,0
4,64,119,0
4,60,119,0
4,60,119,24
4,62,119,76
4,64,119,4
4,66,119,0
4,50,119,44
4,59,119,0
4,38,119,0
4,69,119,0
4,62,119,0
4,67,119,164
4,62,119,44
4,59,119,166
4,33,119,4
4,45,119,90
4,55,119,96
4,60,119,0
4,62,119,96
4,64,119,16
4,57,80,76
4,66,119,12
4,59,95,16
4,69,119,0
4,62,119,0
4,35,119,0
4,67,110,192
4,59,65,72
4,62,70,70
4,55,60,98
4,36,119,0
4,48,119,96
4,55,119,96
4,60,119,0
4,62,119,96
4,64,119,96
4,66,119,36
4,59,119,168
4,69,119,0
4,62,119,0
4,38,119,0
4,67,119,180
4,62,119,100
4,59,119,168
4,55,119,0
4,60,119,0
4,64,119,0
4,36,119,96
4,48,70,188
4,55,70,44
4,60,75,6
4,55,65,96
4,60,60,16
4,55,70,16
4,59,70,0
4,62,70,0
4,64,109,4
4,60,109,0
4,55,109,0
4,62,109,8
4,55,109,0
4,67,70,576
4,60,109,4
4,55,109,0
4,52,70,384
4,57,109,8
4,62,90,0
4,55,109,8
4,55,60,2
4,60,80,12
4,64,110,16
4,59,100,0
4,55,100,0
4,62,100,0
4,50,109,0
4,50,65,480
4,67,99,4
4,55,99,0
4,64,99,0
4,60,99,0
4,60,99,36
4,64,99,0
4,55,99,58
4,60,99,90
4,76,99,96
4,67,99,0
4,64,99,8
4,72,99,0
4,67,99,188
4,62,99,0
4,55,105,12
4,62,105,0
4,59,105,0
4,64,99,12
4,55,99,0
4,60,99,0
4,62,99,32
4,59,99,0
4,55,99,0
4,62,99,0
4,67,99,96
4,52,99,0
4,60,99,0
4,55,99,0
4,57,99,20
4,59,99,0
4,62,99,0
4,55,99,288
4,55,99,40
4,64,99,0
4,60,99,0
4,48,99,96
4,62,99,32
4,55,99,0
4,59,99,0
4,64,99,20
4,55,99,0
4,62,99,0
4,60,65,0
4,55,65,96
4,65,125,12
4,57,120,0
4,60,120,0
4,60,99,12
4,62,99,0
4,58,99,0
4,53,99,0
4,60,102,8
4,57,82,0
4,55,94,0
4,65,87,0
4,58,100,28
4,55,100,0
4,65,105,0
4,63,105,4
4,57,100,4
4,54,100,0
4,64,105,0
4,62,105,4
4,60,100,4
4,57,100,0
4,53,100,0
4,60,100,8
4,55,100,0
4,52,100,0
4,67,109,8
4,60,109,0
4,55,84,0
4,67,60,48
4,72,104,96
4,67,94,26
4,60,102,0
4,55,70,0
4,55,67,128
4,60,83,92
4,67,94,72
4,57,109,12
4,60,124,0
4,65,114,0
4,60,99,8
4,62,99,0
4,58,99,0
4,53,99,0
4,60,102,8
4,57,82,0
4,55,94,0
4,65,87,0
4,58,100,28
4,55,100,0
4,65,105,0
4,63,105,4
4,57,100,4
4,54,100,0
4,64,105,0
4,62,105,4
4,60,100,4
4,57,100,0
4,53,100,0
4,60,100,8
4,55,100,0
4,52,100,0
4,52,96,8
4,60,106,0
4,55,106,0
4,62,87,192
4,60,96,88
4,55,97,36
4,67,111,16
4,60,111,0
4,55,87,0
4,62,89,192
4,55,104,60
4,60,79,52
4,55,115,8
4,62,115,0
4,59,115,0
4,64,109,288
4,60,109,0
4,55,109,0
4,62,109,8
4,55,109,0
4,67,70,576
4,64,80,4
4,60,109,0
4,55,109,0
4,52,70,20
4,57,109,8
4,62,90,0
4,55,109,8
4,60,90,0
4,55,72,8
4,64,100,0
4,59,100,8
4,55,90,0
4,62,90,0
4,50,90,0
4,50,65,480
4,55,86,4
4,64,92,0
4,60,92,0
4,67,72,192
4,62,72,40
4,60,76,96
4,67,59,136
4,79,81,96
4,74,69,8
4,76,77,8
4,62,100,78
4,55,110,0
4,59,110,0
4,64,99,16
4,55,99,0
4,60,99,0
4,62,99,32
4,59,99,0
4,55,99,0
4,62,99,0
4,67,99,96
4,52,99,0
4,60,99,0
4,55,99,0
4,57,99,20
4,59,99,0
4,62,99,0
4,55,99,288
4,55,99,40
4,64,99,0
4,60,99,0
4,48,99,96
4,62,99,32
4,55,99,0
4,59,99,0
4,64,99,20
4,55,99,0
4,62,99,0
4,60,99,0
4,55,99,96
4,55,81,4
4,62,89,0
4,60,72,12
4,55,74,6
4,60,87,96
4,65,125,16
4,57,120,0
4,60,120,0
4,62,80,12
4,58,80,0
4,53,80,0
4,62,80,8
4,58,80,0
4,55,80,0
4,63,80,8
4,58,80,0
4,55,80,0
4,65,80,14
4,60,80,0
4,57,80,0
4,62,80,4
4,53,80,0
4,58,80,0
4,60,65,4
4,58,75,4
4,57,65,4
4,68,90,4
4,63,90,0
4,56,90,0
4,65,80,8
4,60,80,0
4,57,80,0
4,67,90,8
4,63,103,0
4,58,99,0
4,62,77,36
4,58,74,0
4,65,75,0
4,53,54,96
4,58,80,0
4,65,89,96
4,53,75,4
4,63,85,0
4,58,85,0
4,55,85,0
4,62,85,8
4,60,85,0
4,58,85,0
4,53,85,0
4,67,90,8
4,63,103,0
4,58,99,0
4,62,77,36
4,58,74,0
4,65,75,0
4,53,54,96
4,58,80,0
4,65,89,96
4,51,85,4
4,58,85,0
4,55,90,0
4,55,92,100
4,58,85,0
4,51,85,0
4,65,85,10
4,60,85,0
4,57,85,0
4,55,94,104
4,59,104,96
4,67,106,0
4,69,97,96
4,62,89,0
4,71,114,86
4,73,107,14
4,76,114,8
4,62,83,0
4,57,99,0
4,54,96,0
4,74,109,192
4,69,109,176
4,66,99,4
4,55,97,86
4,67,111,96
4,59,94,0
4,69,99,96
4,62,84,0
4,71,106,84
4,73,103,164
4,76,114,0
4,54,84,0
4,57,96,0
4,62,83,0
4,74,106,188
4,55,99,112
4,67,102,16
4,59,73,0
4,69,97,96
4,62,90,0
4,71,102,92
4,73,99,156
4,62,84,4
4,54,84,0
4,57,89,0
4,76,106,0
4,74,89,184
4,69,97,176
4,66,96,0
4,71,102,96
4,55,77,16
4,62,84,0
4,59,84,0
4,62,105,8
4,66,105,0
4,57,105,4
4,62,65,24
4,67,90,0
4,55,94,100
4,59,104,80
4,67,106,0
4,69,97,96
4,62,89,0
4,71,114,84
4,73,107,12
4,76,114,8
4,62,83,0
4,57,99,0
4,54,96,0
4,74,109,192
4,69,109,176
4,66,99,4
4,55,97,84
4,67,111,96
4,59,94,0
4,69,99,96
4,62,84,0
4,71,106,84
4,73,103,164
4,76,114,0
4,54,84,0
4,57,96,0
4,62,83,0
4,74,106,188
4,55,99,112
4,67,102,16
4,59,73,0
4,69,97,96
4,62,90,0
4,71,102,92
4,73,99,156
4,62,84,4
4,54,84,0
4,57,89,0
4,76,106,0
4,74,89,184
4,69,97,176
4,66,96,0
4,71,102,96
4,55,77,16
4,62,84,0
4,59,84,0
4,59,102,12
4,62,99,0
4,67,99,0
4,64,109,30
4,60,109,0
4,55,109,0
4,62,109,8
4,55,109,0
4,67,70,576
4,60,109,4
4,55,109,0
4,52,70,384
4,57,109,8
4,62,90,0
4,55,109,8
4,60,80,0
4,55,85,0
4,64,110,26
4,59,100,8
4,55,90,0
4,62,90,0
4,50,90,0
4,50,65,480
4,55,86,6
4,64,92,0
4,60,92,0
4,67,72,192
4,62,72,40
4,60,76,96
4,67,59,136
4,79,81,96
4,74,69,8
4,76,77,8
4,62,100,76
4,55,110,0
4,59,110,0
4,64,99,16
4,55,99,0
4,60,99,0
4,62,99,32
4,59,99,0
4,55,99,0
4,62,99,0
4,67,99,96
4,52,99,0
4,60,99,0
4,55,99,0
4,57,99,20
4,59,99,0
4,62,99,0
4,55,99,288
4,55,99,40
4,64,99,0
4,60,99,0
4,48,99,96
4,62,99,32
4,55,99,0
4,59,99,0
4,64,99,20
4,55,99,0
4,62,99,0
4,60,99,0
4,55,99,96
4,55,81,4
4,62,89,0
4,60,72,12
4,55,74,4
4,60,87,96
4,65,125,16
4,57,120,0
4,60,120,0
4,62,80,14
4,58,80,0
4,53,80,0
4,62,80,8
4,58,80,0
4,55,80,0
4,63,80,8
4,58,80,0
4,55,80,0
4,65,80,12
4,60,80,0
4,57,80,0
4,62,80,4
4,53,80,0
4,58,80,0
4,60,65,4
4,58,75,6
4,57,65,4
4,68,80,4
4,63,80,0
4,56,80,0
4,65,80,8
4,60,80,0
4,57,80,0
4,67,90,10
4,63,103,0
4,58,99,0
4,62,77,36
4,58,74,0
4,65,75,0
4,53,54,96
4,58,80,0
4,65,89,96
4,53,75,4
4,63,85,0
4,58,85,0
4,55,85,0
4,62,85,8
4,60,85,0
4,58,85,0
4,53,85,0
4,67,90,8
4,63,103,0
4,58,99,0
4,62,77,36
4,58,74,0
4,65,75,0
4,53,54,96
4,58,80,0
4,65,89,96
4,51,85,4
4,58,85,0
4,55,90,0
4,55,92,100
4,58,85,0
4,51,85,0
4,65,85,8
4,60,85,0
4,57,85,0
4,55,94,104
4,59,104,96
4,67,106,0
4,69,97,96
4,62,89,0
4,71,114,84
4,73,107,12
4,76,114,8
4,62,83,0
4,57,99,0
4,54,96,0
4,74,109,192
4,69,109,176
4,66,99,4
4,55,97,84
4,67,111,96
4,59,94,0
4,69,99,96
4,62,84,0
4,71,106,84
4,73,103,164
4,76,114,0
4,54,84,0
4,57,96,0
4,62,83,0
4,74,106,188
4,55,99,112
4,67,102,16
4,59,73,0
4,69,97,96
4,62,90,0
4,71,102,92
4,73,99,156
4,62,84,4
4,54,84,0
4,57,89,0
4,76,106,0
4,74,89,182
4,69,97,176
4,66,96,0
4,71,102,96
4,55,77,16
4,62,84,0
4,59,84,0
4,62,105,10
4,66,105,0
4,57,105,4
4,62,65,26
4,67,90,0
4,55,94,100
4,59,104,80
4,67,106,0
4,69,97,96
4,62,89,0
4,71,114,84
4,73,107,12
4,76,114,8
4,62,83,0
4,57,99,0
4,54,96,0
4,74,109,194
4,69,109,176
4,66,99,4
4,55,97,86
4,67,111,96
4,59,94,0
4,69,99,96
4,62,84,0
4,71,106,84
4,73,103,164
4,76,114,0
4,54,84,0
4,57,96,0
4,62,83,0
4,74,106,188
4,55,99,112
4,67,102,16
4,59,73,0
4,69,97,96
4,62,90,0
4,71,102,92
4,73,99,158
4,62,84,4
4,54,84,0
4,57,89,0
4,76,106,0
4,74,89,184
4,69,97,176
4,66,96,0
4,71,102,96
4,55,77,16
4,62,84,0
4,59,84,0
4,66,112,12
4,57,105,0
4,62,114,0
4,55,94,108
4,59,104,96
4,67,106,0
4,69,97,96
4,62,89,0
4,71,114,84
4,73,107,12
4,76,114,8
4,62,83,0
4,57,99,0
4,54,96,0
4,74,109,192
4,69,109,176
4,66,99,4
4,55,97,84
4,67,111,96
4,59,94,0
4,69,99,96
4,62,84,0
4,71,106,84
4,73,103,164
4,76,114,0
4,54,84,0
4,57,96,0
4,62,83,0
4,74,106,188
4,55,99,112
4,67,102,16
4,59,73,0
4,69,97,96
4,62,90,0
4,71,102,92
4,73,99,156
4,62,84,4
4,54,84,0
4,57,89,0
4,76,106,0
4,74,89,184
4,69,97,176
4,66,96,0
4,71,102,96
4,55,77,16
4,62,84,0
4,59,84,0
4,66,112,12
4,57,105,0
4,62,114,0
4,59,92,10
4,62,94,0
4,67,102,0
4,69,97,6
4,62,89,0
4,71,114,0
4,73,107,12
4,76,114,12
4,62,83,0
4,57,99,0
4,54,96,0
4,74,109,44
4,69,109,80
4,66,99,4
4,55,97,16
4,67,111,12
4,59,94,0
4,69,99,96
4,62,84,0
4,71,106,84
4,73,103,84
4,76,114,0
4,54,84,0
4,57,96,0
4,62,83,0
4,74,106,68
4,55,99,0
4,67,102,16
4,59,73,0
4,69,97,12
4,62,90,0
4,71,102,24
4,73,99,20
4,62,84,4
4,54,84,0
4,57,89,0
4,76,106,0
4,74,89,28
4,69,97,56
4,66,96,0
4,71,102,4
4,55,77,16
4,62,84,0
4,59,84,0
4,66,112,12
4,57,105,0
4,62,114,0
4,55,94,4
4,59,104,12
4,67,106,0
4,69,97,20
4,62,89,0
4,71,114,24
4,73,107,12
4,76,114,8
4,62,83,0
4,57,99,0
4,54,96,0
4,74,109,56
4,69,109,76
4,66,99,4
4,55,97,36
4,67,111,40
4,59,94,0
4,62,84,46
4,69,99,2
4,71,106,0
4,73,103,44
5,64,85,256
5,64,75,14
