track,note,velocity,time
3,28,99,1313
3,28,0,318
3,35,71,34
3,35,0,25
3,37,84,7
3,37,0,351
3,32,54,1
3,32,0,28
3,33,88,4
3,33,0,339
3,33,71,13
3,33,0,29
3,35,99,3
3,35,0,237
3,35,97,19
3,35,0,127
3,28,97,1
3,28,0,351
3,35,66,1
3,35,0,25
3,37,89,7
3,37,0,381
3,33,95,3
3,33,0,329
3,33,71,23
3,33,0,23
3,35,94,9
3,35,0,230
3,35,99,26
3,35,0,126
3,40,103,2
3,40,0,351
3,35,88,1
3,35,0,31
3,37,93,1
3,37,0,350
3,35,85,2
3,35,0,23
3,33,90,9
3,33,0,330
3,33,62,22
3,33,0,26
3,35,101,6
3,35,0,238
3,35,99,18
3,35,0,125
3,28,88,3
3,28,0,351
3,35,79,1
3,35,0,31
3,37,88,1
3,37,0,348
3,35,67,4
3,35,0,28
3,33,94,4
3,33,0,343
3,33,71,9
3,33,0,24
3,35,98,8
3,35,0,582
3,40,100,50
3,40,0,351
3,35,66,1
3,35,0,31
3,39,102,1
3,39,0,351
3,32,71,1
3,32,0,27
3,33,90,5
3,33,0,322
3,33,64,30
3,33,0,21
3,35,103,11
3,35,0,214
3,35,95,42
3,35,0,5
3,28,100,3
3,28,0,343
3,35,56,1
3,35,0,31
3,39,90,1
3,39,0,348
3,32,73,4
3,32,0,25
3,33,93,7
3,33,0,317
3,33,76,35
3,33,0,29
3,35,102,3
3,35,0,230
3,35,103,26
3,35,0,118
3,40,104,10
3,40,0,345
3,35,84,7
3,35,0,31
3,37,94,1
3,37,0,351
3,32,54,1
3,32,0,24
3,33,88,8
3,33,0,322
3,33,72,30
3,33,0,24
3,35,100,8
3,35,0,213
3,35,98,43
3,35,0,1
3,28,99,5
3,28,0,351
3,35,79,1
3,35,0,29
3,37,95,3
3,37,0,351
3,35,60,1
3,35,0,23
3,33,94,9
3,33,0,383
3,35,102,1
3,35,0,717
3,40,101,51
3,40,0,335
3,40,72,17
3,40,0,30
3,39,90,2
3,39,0,343
3,32,83,9
3,32,0,21
3,33,93,11
3,33,0,327
3,33,74,25
3,33,0,25
3,35,102,7
3,35,0,227
3,35,98,29
3,35,0,5
3,28,103,2
3,28,0,342
3,35,76,4
3,35,0,31
3,39,89,1
3,39,0,380
3,33,98,4
3,33,0,334
3,33,76,18
3,33,0,24
3,35,102,8
3,35,0,287
3,37,78,1
3,37,0,63
3,35,60,1
3,35,0,31
3,40,98,1
3,40,0,351
3,35,78,1
3,35,0,28
3,39,98,4
3,39,0,345
3,32,73,7
3,32,0,26
3,33,90,6
3,33,0,321
3,33,72,31
3,33,0,24
3,35,104,8
3,35,0,233
3,35,93,23
3,35,0,4
3,28,101,1
3,28,0,334
3,35,88,10
3,35,0,31
3,37,100,1
3,37,0,378
3,33,97,6
3,33,0,330
3,33,77,22
3,33,0,25
3,35,103,7
3,35,0,327
3,28,98,57
3,28,0,318
3,35,70,34
3,35,0,25
3,37,84,7
3,37,0,351
3,32,54,1
3,32,0,28
3,33,88,4
3,33,0,339
3,33,70,13
3,33,0,29
3,35,98,3
3,35,0,237
3,35,96,19
3,35,0,127
3,28,96,1
3,28,0,351
3,35,66,1
3,35,0,25
3,37,89,7
3,37,0,381
3,33,95,3
3,33,0,329
3,33,70,23
3,33,0,23
3,35,95,9
3,35,0,230
3,35,98,26
3,35,0,126
3,40,102,2
3,40,105,0
3,40,0,329
3,40,0,22
3,35,81,1
3,35,89,0
3,35,0,25
3,35,0,6
3,37,93,1
3,37,101,0
3,37,0,350
3,37,0,0
3,32,71,2
3,35,84,0
3,35,0,23
3,32,0,8
3,33,91,1
3,33,92,0
3,33,0,328
3,33,0,2
3,33,63,22
3,33,73,0
3,33,0,25
3,33,0,1
3,35,100,6
3,35,100,0
3,35,0,223
3,35,0,15
3,35,99,18
3,35,103,0
3,35,0,8
3,35,0,0
3,28,88,2
3,28,101,0
3,28,0,351
3,28,0,0
3,35,78,1
3,35,86,0
3,35,0,31
3,35,0,0
3,37,89,1
3,37,91,0
3,37,0,348
3,35,67,4
3,37,0,23
3,35,0,5
3,33,94,4
3,33,96,0
3,33,0,343
3,33,0,1
3,33,71,8
3,33,83,0
3,33,0,24
3,33,0,2
3,35,99,6
3,35,101,0
3,35,0,203
3,42,100,45
3,35,0,334
3,42,0,1
3,42,72,17
3,42,0,30
3,41,91,2
3,41,0,343
3,34,83,9
3,34,0,21
3,35,93,11
3,35,0,327
3,35,74,25
3,35,0,25
3,37,102,7
3,37,0,227
3,37,99,29
3,37,0,5
3,30,102,2
3,30,0,342
3,37,77,4
3,37,0,31
3,41,89,1
3,41,0,380
3,35,99,4
3,35,0,334
3,35,77,18
3,35,0,24
3,37,103,8
3,37,0,287
3,39,78,1
3,39,0,63
3,37,61,1
3,37,0,31
3,42,98,1
3,42,0,351
3,37,79,1
3,37,0,28
3,41,99,4
3,41,0,345
3,34,73,7
3,34,0,26
3,35,90,6
3,35,0,321
3,35,73,31
3,35,0,24
3,37,105,8
3,37,0,233
3,37,92,23
3,37,0,4
3,30,100,1
3,30,0,334
3,37,88,10
3,37,0,31
3,39,100,1
3,39,0,378
3,35,97,6
3,35,0,330
3,35,76,22
3,35,0,25
3,37,102,7
3,37,0,327
3,40,101,57
3,40,0,330
3,35,77,22
3,35,0,27
3,37,98,5
3,37,0,351
3,32,67,1
3,32,0,31
3,33,94,1
3,33,0,320
3,33,68,32
3,33,0,22
3,35,104,10
3,35,0,235
3,35,94,21
3,35,0,127
3,28,92,1
3,28,0,341
3,35,78,11
3,35,0,29
3,37,97,3
3,37,0,383
3,33,98,1
3,33,0,326
3,33,79,26
3,33,0,30
3,35,105,2
3,35,0,231
3,35,94,25
3,35,0,126
3,40,101,2
3,40,0,347
3,35,85,5
3,35,0,28
3,37,96,4
3,37,0,351
3,35,68,1
3,35,0,28
3,33,91,4
3,33,0,329
3,33,70,23
3,33,0,27
3,35,97,5
3,35,0,206
3,35,96,50
3,35,0,5
3,28,88,3
3,28,0,341
3,35,81,5
3,35,0,26
3,37,92,6
3,37,0,347
3,32,76,5
3,32,0,28
3,33,89,4
3,33,0,318
3,33,61,34
3,33,0,20
3,35,104,12
3,35,0,350
3,42,100,34
3,42,0,335
3,42,73,17
3,42,0,30
3,41,90,2
3,41,0,343
3,34,83,9
3,34,0,21
3,35,92,11
3,35,0,327
3,35,74,25
3,35,0,25
3,37,102,7
3,37,0,227
3,37,98,29
3,37,0,5
3,30,102,2
3,30,0,342
3,37,76,4
3,37,0,31
3,41,89,1
3,41,0,380
3,35,99,4
3,35,0,334
3,35,76,18
3,35,0,24
3,37,102,8
3,37,0,287
3,39,79,1
3,39,0,63
3,37,61,1
3,37,0,31
3,42,99,1
3,42,0,351
3,37,79,1
3,37,0,28
3,41,99,4
3,41,0,345
3,34,73,7
3,34,0,26
3,35,90,6
3,35,0,321
3,35,73,31
3,35,0,24
3,37,104,8
3,37,0,233
3,37,93,23
3,37,0,4
3,30,101,1
3,30,0,334
3,37,89,10
3,37,0,31
3,39,100,1
3,39,0,378
3,35,97,6
3,35,0,330
3,35,77,22
3,35,0,25
3,37,103,7
3,37,0,327
3,30,99,57
3,30,0,318
3,37,70,34
3,37,0,25
3,39,84,7
3,39,0,351
3,34,55,1
3,34,0,28
3,35,89,4
3,35,0,339
3,35,71,13
3,35,0,29
3,37,98,3
3,37,0,237
3,37,96,19
3,37,0,127
3,30,97,1
3,30,0,351
3,37,67,1
3,37,0,25
3,39,89,7
3,39,0,381
3,35,95,3
3,35,0,329
3,35,70,23
3,35,0,23
3,37,94,9
3,37,0,230
3,37,98,26
3,37,0,126
3,42,103,2
3,42,0,351
3,37,89,1
3,37,0,31
3,39,93,1
3,39,0,350
3,37,85,2
3,37,0,23
3,35,90,9
3,35,0,330
3,35,63,22
3,35,0,26
3,37,101,6
3,37,0,238
3,37,99,18
3,37,0,125
3,30,88,3
3,30,0,351
3,37,79,1
3,37,0,31
3,39,89,1
3,39,0,348
3,37,66,4
3,37,0,28
3,35,95,4
3,35,0,343
3,35,71,9
3,35,0,24
3,37,98,8
3,37,0,207
3,25,94,49
3,25,0,672
4,68,125,7793
4,68,0,63
4,69,89,1
4,69,0,31
4,71,96,1
4,71,0,59
4,64,112,5
4,64,0,189
4,76,104,291
4,76,0,18
4,76,117,14
4,76,0,24
4,76,113,40
4,76,0,95
4,75,101,1
4,75,0,19
4,75,109,13
4,75,0,23
4,75,100,41
4,75,0,17
4,75,105,15
4,75,0,63
4,73,93,1
4,73,0,18
4,73,103,14
4,73,0,17
4,73,94,47
4,73,0,12
4,73,101,20
4,73,0,58
4,71,89,6
4,71,0,14
4,71,112,18
4,71,0,32
4,68,101,3
4,68,0,35
4,71,109,1
4,71,0,82
4,73,90,2
4,73,0,67
4,68,120,66
4,68,0,63
4,69,97,1
4,69,0,31
4,71,109,1
4,71,0,60
4,71,112,4
4,71,0,110
4,71,91,370
4,71,0,16
4,71,102,16
4,71,0,25
4,71,121,39
4,71,0,95
4,69,98,1
4,69,0,16
4,69,107,16
4,69,0,1
4,69,90,31
4,69,0,1
4,69,104,31
4,69,0,87
4,68,104,9
4,68,0,15
4,68,108,17
4,68,0,16
4,68,101,48
4,68,0,1
4,68,112,31
4,68,0,63
4,66,100,1
4,66,0,18
4,66,101,14
4,66,0,29
4,64,93,3
4,64,0,31
4,66,104,1
4,66,0,78
4,71,112,1
4,71,0,88
4,68,120,57
4,68,0,63
4,69,101,1
4,69,0,31
4,71,113,1
4,71,0,61
4,76,112,3
4,76,0,50
4,80,112,46
4,80,0,95
4,76,109,1
4,76,0,168
4,76,100,120
4,76,0,14
4,76,112,18
4,76,0,22
4,76,104,42
4,76,0,16
4,76,112,16
4,76,0,87
4,75,104,9
4,75,0,22
4,75,112,42
4,75,0,95
4,73,88,1
4,73,0,16
4,73,116,16
4,73,0,129
4,71,105,31
4,71,0,19
4,71,113,13
4,71,0,59
4,68,101,5
4,68,0,31
4,71,108,1
4,71,0,63
4,73,116,1
4,73,0,62
4,71,96,194
4,71,0,17
4,71,97,15
4,71,0,14
4,71,112,18
4,71,0,32
4,71,96,32
4,71,0,31
4,80,113,1
4,80,0,33
4,78,121,31
4,78,0,95
4,76,116,1
4,76,0,134
4,66,116,314
4,66,0,16
4,66,100,16
4,66,0,11
4,66,125,21
4,66,0,49
4,80,120,15
4,80,0,59
4,78,109,5
4,78,0,31
4,78,116,33
4,78,0,364
4,78,116,20
4,78,0,344
4,68,124,40
4,68,0,263
4,66,116,25
4,66,0,28
4,66,120,36
4,66,0,95
4,64,112,1
4,64,0,343
4,69,104,73
4,69,0,21
4,69,116,43
4,69,0,95
4,68,101,1
4,68,0,95
4,66,108,1
4,66,0,79
4,66,116,17
4,66,0,84
4,68,112,12
4,68,0,95
4,69,101,1
4,69,0,95
4,71,113,1
4,71,0,258
4,71,116,30
4,71,0,85
4,69,104,11
4,69,0,95
4,68,113,1
4,68,0,339
4,69,109,173
4,69,0,156
4,68,109,4
4,68,0,19
4,68,112,13
4,68,0,63
4,66,104,1
4,66,0,238
4,68,116,82
4,68,0,287
4,71,116,1
4,71,0,31
4,66,120,33
4,66,0,95
4,64,112,1
4,64,0,406
4,69,106,10
4,69,0,53
4,69,100,11
4,69,0,95
4,68,108,1
4,68,0,84
4,66,104,12
4,66,0,68
4,66,105,28
4,66,0,74
4,68,117,22
4,68,0,80
4,69,120,16
4,69,0,81
4,71,121,15
4,71,0,296
4,80,116,24
4,80,0,43
4,78,120,21
4,78,0,85
4,76,121,11
4,76,0,113
4,76,117,15
4,76,0,38
4,76,77,26
4,76,0,16
4,76,113,16
4,76,0,62
4,76,125,34
4,76,0,159
4,76,121,33
4,76,0,154
4,76,120,38
4,76,0,191
4,75,121,1
4,75,0,159
4,76,120,1
4,76,0,309
4,68,125,2795
4,68,0,23
4,68,105,41
4,68,0,31
4,69,108,1
4,69,0,48
4,71,112,16
4,71,0,56
4,80,121,40
4,80,0,51
4,76,117,45
4,76,0,224
4,80,92,64
4,80,0,17
4,80,93,15
4,80,0,20
4,80,120,44
4,80,0,89
4,66,92,7
4,66,0,24
4,66,121,8
4,66,0,76
4,68,113,20
4,68,0,31
4,69,109,33
4,69,0,75
4,71,108,21
4,71,0,27
4,73,96,5
4,73,0,83
4,75,101,13
4,75,0,47
4,76,121,17
4,76,0,87
4,78,105,9
4,78,0,133
4,71,109,59
4,71,0,19
4,71,96,13
4,71,0,24
4,71,104,40
4,71,0,18
4,71,109,14
4,71,0,30
4,71,97,34
4,71,0,31
4,80,105,1
4,80,0,43
4,78,104,21
4,78,0,95
4,76,112,1
4,76,0,129
4,80,101,95
4,80,0,19
4,80,108,45
4,80,0,87
4,66,105,9
4,66,0,26
4,66,113,6
4,66,0,89
4,68,109,7
4,68,0,50
4,69,109,14
4,69,0,66
4,71,109,30
4,71,0,29
4,73,96,3
4,73,0,86
4,75,101,10
4,75,0,51
4,76,120,13
4,76,0,95
4,78,121,1
4,78,0,123
4,70,125,5
4,70,0,263
4,68,117,25
4,68,0,28
4,68,120,36
4,68,0,95
4,66,113,1
4,66,0,343
4,71,105,73
4,71,0,21
4,71,116,43
4,71,0,95
4,70,100,1
4,70,0,95
4,68,108,1
4,68,0,79
4,68,116,17
4,68,0,84
4,70,113,12
4,70,0,95
4,71,100,1
4,71,0,95
4,73,112,1
4,73,0,258
4,73,117,30
4,73,0,85
4,71,105,11
4,71,0,95
4,70,112,1
4,70,0,339
4,71,109,173
4,71,0,156
4,70,108,4
4,70,0,19
4,70,112,13
4,70,0,63
4,68,104,1
4,68,0,238
4,70,116,82
4,70,0,287
4,68,116,1
4,68,0,31
4,68,120,33
4,68,0,95
4,66,113,1
4,66,0,406
4,78,106,10
4,78,0,53
4,78,101,11
4,78,0,95
4,78,109,1
4,78,0,84
4,77,104,12
4,77,0,68
4,77,105,28
4,77,0,74
4,78,117,22
4,78,0,80
4,80,120,16
4,80,0,81
4,78,120,15
4,78,0,296
4,82,117,24
4,82,0,43
4,80,120,21
4,80,0,85
4,78,121,11
4,78,0,113
4,78,116,15
4,78,0,38
4,78,76,26
4,78,0,16
4,78,113,16
4,78,0,62
4,78,124,34
4,78,0,159
4,78,120,33
4,78,0,154
4,78,121,38
4,78,0,191
4,77,121,1
4,77,0,191
4,68,124,1
4,68,0,63
4,69,88,1
4,69,0,31
4,71,97,1
4,71,0,59
4,64,112,5
4,64,0,189
4,76,105,291
4,76,0,18
4,76,116,14
4,76,0,24
4,76,112,40
4,76,0,95
4,75,100,1
4,75,0,19
4,75,108,13
4,75,0,23
4,75,100,41
4,75,0,17
4,75,104,15
4,75,0,63
4,73,93,1
4,73,0,18
4,73,103,14
4,73,0,17
4,73,94,47
4,73,0,12
4,73,100,20
4,73,0,58
4,71,89,6
4,71,0,14
4,71,113,18
4,71,0,32
4,68,101,3
4,68,0,35
4,71,109,1
4,71,0,82
4,73,91,2
4,73,0,67
4,68,121,130
4,68,0,56
4,69,92,8
4,69,0,48
4,71,121,16
4,71,0,57
4,71,108,7
4,71,0,124
4,71,113,260
4,71,0,21
4,71,117,11
4,71,0,23
4,71,117,41
4,71,0,95
4,69,104,1
4,69,0,20
4,69,81,12
4,69,0,25
4,69,109,39
4,69,0,21
4,69,121,11
4,69,0,63
4,68,101,1
4,68,0,14
4,68,112,18
4,68,0,20
4,68,100,44
4,68,0,11
4,68,117,21
4,68,0,63
4,66,101,1
4,66,0,17
4,66,81,15
4,66,0,30
4,66,96,2
4,66,0,31
4,66,108,1
4,66,0,18
4,71,117,63
4,71,0,121
4,68,121,22
4,68,0,63
4,69,101,1
4,69,0,31
4,71,113,1
4,71,0,61
4,76,112,3
4,76,0,50
4,80,112,46
4,80,0,95
4,76,108,1
4,76,0,168
4,76,105,120
4,76,0,16
4,76,113,16
4,76,0,20
4,76,117,44
4,76,0,82
4,75,109,14
4,75,0,19
4,75,112,13
4,75,0,31
4,73,81,1
4,73,0,15
