track,note,velocity,time
3,45,87,148
3,60,88,3
3,57,88,0
3,69,90,1
3,64,92,0
3,69,0,23
3,64,0,0
3,60,0,3
3,64,68,0
3,69,70,0
3,60,63,1
3,57,0,22
3,45,0,2
3,64,0,4
3,60,0,1
3,45,86,0
3,60,83,3
3,57,83,0
3,64,90,1
3,69,0,18
3,60,0,2
3,64,0,0
3,60,57,6
3,64,57,0
3,69,56,0
3,45,0,16
3,69,0,7
3,60,0,1
3,64,0,0
3,57,0,4
3,45,96,2
3,60,94,3
3,57,94,0
3,64,84,1
3,69,90,0
3,45,0,26
3,69,0,15
3,60,0,1
3,57,0,0
3,64,0,3
3,41,84,44
3,65,88,1
3,60,84,0
3,57,92,0
3,53,92,0
3,65,0,23
3,60,0,0
3,57,0,4
3,53,0,0
3,41,0,2
3,41,95,25
3,65,68,3
3,60,62,0
3,53,60,1
3,57,60,0
3,41,0,26
3,60,0,2
3,53,0,1
3,57,0,0
3,41,80,0
3,53,84,3
3,57,84,0
3,60,86,1
3,65,0,18
3,60,0,2
3,60,60,6
3,65,58,0
3,41,0,16
3,65,0,7
3,60,0,1
3,53,0,4
3,57,0,0
3,41,88,2
3,53,87,3
3,57,87,0
3,65,96,1
3,60,86,0
3,41,0,26
3,65,0,11
3,53,0,5
3,57,0,0
3,60,0,2
3,48,89,72
3,55,88,2
3,60,88,1
3,64,90,1
3,67,91,0
3,64,0,23
3,67,0,0
3,55,0,2
3,60,0,1
3,67,73,0
3,55,66,0
3,64,71,0
3,60,66,1
3,48,0,24
3,55,0,4
3,64,0,0
3,60,0,1
3,48,88,0
3,55,89,2
3,60,89,1
3,64,91,1
3,67,0,18
3,64,0,2
3,64,59,6
3,67,68,0
3,48,0,16
3,67,0,7
3,64,0,1
3,55,0,3
3,60,0,1
3,48,95,2
3,55,96,2
3,60,96,1
3,67,101,1
3,64,101,0
3,48,0,26
3,55,0,15
3,60,0,1
3,64,0,2
3,67,0,10
3,43,106,33
3,55,112,1
3,67,113,1
3,59,112,0
3,62,107,0
3,55,0,17
3,43,0,1
3,59,0,0
3,67,0,1
3,62,0,1
3,62,89,37
3,55,81,0
3,67,80,0
3,43,79,1
3,59,81,0
3,43,0,21
3,62,0,7
3,55,0,0
3,59,0,1
3,43,96,0
3,55,112,2
3,59,112,1
3,62,100,1
3,67,0,18
3,62,0,2
3,67,68,6
3,62,66,0
3,43,0,16
3,67,0,7
3,62,0,1
3,55,0,3
3,59,0,1
3,43,116,2
3,55,116,2
3,59,116,1
3,67,114,1
3,62,124,0
3,43,0,26
3,55,0,15
3,59,0,1
3,62,0,2
3,67,0,10
3,45,109,61
3,60,111,3
3,57,111,0
3,69,113,1
3,64,116,0
3,69,0,23
3,64,0,0
3,60,0,3
3,64,85,0
3,69,88,0
3,60,79,1
3,57,0,22
3,45,0,2
3,64,0,4
3,60,0,1
3,45,108,0
3,60,104,3
3,57,104,0
3,64,113,1
3,69,0,18
3,60,0,2
3,64,0,0
3,60,72,6
3,64,72,0
3,69,70,0
3,45,0,16
3,69,0,7
3,60,0,1
3,64,0,0
3,57,0,4
3,45,120,2
3,60,118,3
3,57,118,0
3,64,106,1
3,69,113,0
3,45,0,26
3,69,0,15
3,60,0,1
3,57,0,0
3,64,0,3
3,41,106,44
3,65,110,1
3,60,106,0
3,57,116,0
3,53,116,0
3,65,0,23
3,60,0,0
3,57,0,4
3,53,0,0
3,41,0,2
3,41,119,25
3,65,85,3
3,60,78,0
3,53,76,1
3,57,76,0
3,41,0,26
3,60,0,2
3,53,0,1
3,57,0,0
3,41,101,0
3,53,106,3
3,57,106,0
3,60,108,1
3,65,0,18
3,60,0,2
3,60,75,6
3,65,73,0
3,41,0,16
3,65,0,7
3,60,0,1
3,53,0,4
3,57,0,0
3,41,111,2
3,53,109,3
3,57,109,0
3,65,120,1
3,60,108,0
3,41,0,26
3,65,0,11
3,53,0,5
3,57,0,0
3,60,0,2
3,48,112,72
3,55,111,2
3,60,111,1
3,64,113,1
3,67,114,0
3,64,0,23
3,67,0,0
3,55,0,2
3,60,0,1
3,67,91,0
3,55,82,0
3,64,88,0
3,60,82,1
3,48,0,24
3,55,0,4
3,64,0,0
3,60,0,1
3,48,107,0
3,55,107,2
3,60,107,1
3,64,109,1
3,67,0,18
3,64,0,2
3,64,70,6
3,67,81,0
3,48,0,16
3,67,0,7
3,64,0,1
3,55,0,3
3,60,0,1
3,48,110,2
3,55,111,2
3,60,111,1
3,67,116,1
3,64,116,0
3,48,0,26
3,55,0,15
3,60,0,1
3,64,0,2
3,67,0,10
3,43,98,33
3,55,98,1
3,67,98,1
3,59,98,0
3,62,98,0
3,55,0,17
3,43,0,1
3,59,0,0
3,67,0,1
3,62,0,1
3,62,88,37
3,55,88,0
3,67,88,0
3,43,88,1
3,59,88,0
3,43,0,21
3,62,0,7
3,55,0,0
3,59,0,1
3,43,98,0
3,55,114,2
3,59,114,1
3,62,101,1
3,67,0,18
3,62,0,2
3,67,68,6
3,62,66,0
3,43,0,16
3,67,0,7
3,62,0,1
3,55,0,3
3,59,0,1
3,43,113,2
3,55,113,2
3,59,113,1
3,67,110,1
3,62,121,0
3,43,0,26
3,55,0,15
3,59,0,1
3,62,0,2
3,67,0,10
3,57,111,62
3,60,108,1
3,64,114,1
3,60,0,83
3,64,0,0
3,60,70,6
3,64,67,1
3,57,0,15
3,60,0,0
3,64,0,0
3,57,91,13
3,60,97,1
3,64,87,1
3,60,0,60
3,57,0,11
3,64,0,7
3,57,106,10
3,65,90,1
3,60,110,0
3,57,0,42
3,65,0,0
3,60,0,0
3,57,84,17
3,60,91,1
3,65,85,1
3,60,0,23
3,65,0,0
3,57,0,4
3,57,59,2
3,60,59,0
3,65,59,0
3,65,0,44
3,57,0,10
3,60,0,0
3,57,113,8
3,60,105,2
3,65,100,4
3,57,0,89
3,60,0,0
3,65,0,14
3,55,94,8
3,60,95,1
3,64,96,1
3,55,0,83
3,60,0,2
3,64,0,0
3,55,58,3
3,60,56,1
3,64,49,1
3,60,0,15
3,64,0,0
3,55,0,8
3,55,93,5
3,60,94,1
3,64,91,1
3,55,0,77
3,64,0,0
3,60,0,4
3,55,88,7
3,62,88,1
3,60,89,0
3,62,0,48
3,60,0,0
3,59,101,12
3,62,103,0
3,55,0,16
3,55,80,13
3,62,0,29
3,55,0,3
3,59,0,13
3,59,103,15
3,55,105,0
3,62,107,1
3,59,0,55
3,62,0,0
3,59,65,4
3,62,79,1
3,55,0,36
3,62,0,6
3,59,0,6
3,57,111,14
3,60,108,2
3,64,114,3
3,60,0,77
3,64,0,0
3,60,70,6
3,64,67,1
3,57,0,15
3,60,0,0
3,64,0,0
3,57,91,13
3,60,97,1
3,64,87,1
3,60,0,60
3,57,0,11
3,64,0,7
3,57,106,10
3,65,90,1
3,60,110,0
3,57,0,42
3,65,0,0
3,60,0,0
3,57,84,17
3,60,91,1
3,65,85,1
3,65,0,23
3,65,68,7
3,60,0,37
3,65,0,5
3,57,0,7
3,57,113,9
3,60,105,1
3,65,100,1
3,57,0,96
3,60,0,0
3,65,0,21
3,55,94,4
3,60,95,2
3,64,96,3
3,64,0,65
3,60,0,8
3,60,56,10
3,64,49,1
3,55,0,11
3,60,0,4
3,64,0,0
3,55,93,13
3,60,94,1
3,64,91,1
3,60,0,67
3,55,0,4
3,64,0,6
3,55,88,11
3,62,88,1
3,60,89,0
3,62,0,48
3,60,0,0
3,60,101,12
3,62,103,0
3,55,0,16
3,60,0,4
3,55,80,9
3,59,81,0
3,62,0,29
3,55,0,14
3,59,0,0
3,59,103,17
3,55,105,0
3,62,107,1
3,62,0,55
3,62,79,5
3,59,0,36
3,55,0,0
3,62,0,6
3,57,111,20
3,60,108,2
3,64,114,3
3,60,0,77
3,64,0,0
3,60,70,6
3,64,67,1
3,57,0,15
3,60,0,0
3,57,91,13
3,60,97,1
3,60,0,61
3,64,0,11
3,57,0,0
3,57,106,17
3,65,90,1
3,60,110,0
3,57,0,42
3,65,0,0
3,60,0,0
3,57,84,17
3,60,91,1
3,65,85,1
3,60,0,23
3,65,0,0
3,60,68,6
3,65,68,1
3,60,0,42
3,65,0,0
3,57,0,7
3,57,113,9
3,60,105,1
3,65,100,1
3,57,0,73
3,60,0,23
3,65,0,0
3,55,94,25
3,60,95,2
3,64,96,3
3,64,0,62
3,64,49,22
3,64,0,15
3,60,0,6
3,55,0,2
3,55,93,5
3,60,94,1
3,64,91,1
3,55,0,51
3,64,0,0
3,60,0,8
3,64,71,4
3,60,71,0
3,55,71,0
3,64,0,6
3,60,0,0
3,55,0,0
3,55,88,19
3,62,88,1
3,60,89,0
3,62,0,48
3,60,0,0
3,60,101,12
3,62,103,0
3,55,0,16
3,60,0,4
3,55,80,9
3,59,81,0
3,62,0,29
3,55,0,3
3,59,0,0
3,59,103,28
3,55,105,0
3,62,107,1
3,59,0,55
3,62,0,0
3,59,65,4
3,62,79,1
3,55,0,36
3,62,0,6
3,59,0,6
3,57,111,14
3,60,108,2
3,64,114,3
3,60,0,77
3,64,0,0
3,60,70,6
3,64,67,1
3,57,0,15
3,60,0,0
3,64,0,0
3,57,91,13
3,60,97,1
3,64,87,1
3,60,0,60
3,57,0,11
3,64,0,7
3,57,106,10
3,65,90,1
3,60,110,0
3,57,0,42
3,65,0,0
3,60,0,0
3,57,84,17
3,60,91,1
3,65,85,1
3,65,0,23
3,65,68,7
3,60,0,37
3,65,0,5
3,57,0,7
3,57,113,9
3,60,105,1
3,65,100,1
3,57,0,96
3,60,0,0
3,65,0,21
3,55,94,4
3,60,95,2
3,64,96,3
3,64,0,65
3,60,0,8
3,60,56,10
3,64,49,1
3,55,0,11
3,60,0,4
3,64,0,0
3,55,93,13
3,60,94,1
3,64,91,1
3,60,0,67
3,55,0,4
3,64,0,6
3,55,88,11
3,62,88,1
3,60,89,0
3,62,0,48
3,60,0,0
3,60,101,12
3,62,103,0
3,55,0,16
3,60,0,4
3,55,80,9
3,59,81,0
3,62,0,29
3,55,0,14
3,59,0,0
3,59,103,17
3,55,105,0
3,62,107,1
3,62,0,55
3,62,79,5
3,59,0,36
3,55,0,0
3,62,0,6
3,57,111,20
3,60,108,2
3,64,114,3
3,60,0,77
3,64,0,0
3,60,70,6
3,64,67,1
3,57,0,15
3,60,0,0
3,64,0,0
3,57,91,13
3,60,97,1
3,64,87,1
3,60,0,60
3,57,0,11
3,64,0,7
3,57,106,10
3,65,90,1
3,60,110,0
3,57,0,42
3,65,0,0
3,60,0,0
3,57,84,17
3,60,91,1
3,65,85,1
3,65,0,25
3,60,0,2
3,65,85,5
3,60,85,2
3,65,0,25
3,60,0,2
3,57,0,16
3,57,113,11
3,60,105,1
3,65,100,1
3,57,0,96
3,60,0,0
3,65,0,0
3,55,94,22
3,60,95,1
3,64,96,1
3,64,0,68
3,60,0,13
3,60,56,8
3,64,49,1
3,60,0,15
3,64,0,0
3,55,0,2
3,55,93,11
3,60,94,1
3,64,91,1
3,60,0,67
3,55,0,4
3,64,0,6
3,55,88,11
3,62,88,1
3,60,89,0
3,62,0,48
3,60,0,0
3,59,101,12
3,62,103,0
3,55,0,16
3,55,80,13
3,62,0,41
3,59,0,6
3,55,0,0
3,55,105,13
3,59,103,3
3,62,107,2
3,59,0,51
3,62,0,0
3,59,65,4
3,62,79,1
3,55,0,36
3,59,0,12
3,62,0,0
3,57,111,11
3,60,108,1
3,64,114,1
3,60,0,83
3,64,0,0
3,60,70,6
3,64,67,1
3,57,0,15
3,60,0,0
3,64,0,0
3,57,91,16
3,60,97,2
3,64,87,3
3,60,0,54
3,57,0,11
3,64,0,7
3,57,106,10
3,65,90,1
3,60,110,0
3,57,0,42
3,65,0,0
3,60,0,0
3,57,84,17
3,60,91,1
3,65,85,1
3,60,0,23
3,65,0,0
3,57,0,4
3,57,59,2
3,60,59,0
3,65,59,0
3,65,0,44
3,57,0,10
3,60,0,0
3,57,113,5
3,60,105,1
3,65,100,2
3,57,0,95
3,60,0,0
3,65,0,14
3,55,94,8
3,60,95,1
3,64,96,1
3,55,0,83
3,60,0,2
3,64,0,0
3,55,58,3
3,60,56,1
3,64,49,1
3,60,0,15
3,64,0,0
3,55,0,8
3,55,93,5
3,60,94,1
3,64,91,1
3,55,0,77
3,64,0,0
3,60,0,4
3,55,88,7
3,62,88,1
3,60,89,0
3,62,0,48
3,60,0,0
3,59,101,12
3,62,103,0
3,55,0,16
3,55,80,13
3,62,0,29
3,55,0,3
3,59,0,13
3,59,103,15
3,55,105,0
3,62,107,1
3,59,0,55
3,62,0,0
3,59,65,4
3,62,79,1
3,55,0,36
3,62,0,6
3,59,0,6
3,57,111,14
3,60,108,2
3,64,114,3
3,60,0,77
3,64,0,0
3,64,67,7
3,60,70,3
3,57,0,12
3,60,0,0
3,57,91,13
3,60,97,1
3,60,0,61
3,64,0,11
3,57,0,0
3,57,106,17
3,65,90,1
3,60,110,0
3,57,0,42
3,65,0,0
3,60,0,0
3,57,84,17
3,60,91,1
3,65,85,1
3,60,0,23
3,65,0,0
3,60,68,6
3,65,68,1
3,60,0,42
3,65,0,0
3,57,0,7
3,57,113,9
3,60,105,1
3,65,100,1
3,57,0,73
3,60,0,23
3,65,0,0
3,55,94,22
3,60,95,1
3,64,96,1
3,64,0,68
3,64,49,22
3,64,0,15
3,60,0,6
3,55,0,2
3,55,93,5
3,60,94,1
3,64,91,1
3,55,0,51
3,64,0,0
3,60,0,8
3,64,71,4
3,60,71,0
3,55,71,0
3,64,0,6
3,60,0,0
3,55,0,0
3,55,88,19
3,62,88,1
3,60,89,0
3,62,0,48
3,60,0,0
3,60,101,12
3,62,103,0
3,55,0,16
3,60,0,4
3,55,80,9
3,59,81,0
3,62,0,29
3,55,0,3
3,59,0,0
3,59,103,28
3,55,105,0
3,62,107,1
3,59,0,55
3,62,0,0
3,59,65,4
3,62,79,1
3,55,0,36
3,62,0,6
3,59,0,6
3,57,111,14
3,60,108,2
3,64,114,3
3,60,0,77
3,64,0,0
3,60,70,10
3,64,67,3
3,57,0,9
3,60,0,0
3,64,0,0
3,57,91,13
3,60,97,1
3,64,87,1
3,60,0,60
3,57,0,11
3,64,0,7
3,57,106,10
3,65,90,1
3,60,110,0
3,57,0,42
3,65,0,0
3,60,0,0
3,57,84,17
3,60,91,1
3,65,85,1
3,65,0,23
3,65,68,7
3,60,0,37
3,65,0,5
3,57,0,7
3,57,113,9
3,60,105,1
3,65,100,1
3,57,0,96
3,60,0,0
3,65,0,21
3,55,94,1
3,60,95,1
3,64,96,1
3,64,0,71
3,60,0,8
3,60,56,10
3,64,49,1
3,55,0,11
3,60,0,4
3,64,0,0
3,55,93,16
3,60,94,2
3,64,91,3
3,60,0,61
3,55,0,4
3,64,0,6
3,55,88,11
3,62,88,1
3,60,89,0
3,62,0,48
3,60,0,0
3,60,101,12
3,62,103,0
3,55,0,16
3,60,0,4
3,55,80,9
3,59,81,0
3,62,0,29
3,55,0,14
3,59,0,0
3,59,103,17
3,55,105,0
3,62,107,1
3,62,0,55
3,62,79,9
3,59,0,32
3,55,0,0
3,62,0,6
3,57,111,20
3,60,108,2
3,64,114,3
3,60,0,77
3,64,0,0
3,60,70,10
3,64,67,3
3,57,0,9
3,60,0,0
3,64,0,0
3,57,91,13
3,60,97,1
3,64,87,1
3,60,0,60
3,57,0,11
3,64,0,7
3,57,106,10
3,65,90,1
3,60,110,0
3,57,0,42
3,65,0,0
3,60,0,0
3,57,84,17
3,60,91,1
3,65,85,1
3,65,0,25
3,60,0,2
3,65,85,5
3,60,85,2
3,65,0,25
3,60,0,2
3,57,0,16
3,57,113,11
3,60,105,1
3,65,100,1
3,57,0,96
3,60,0,0
3,65,0,0
3,55,94,22
3,60,95,1
3,64,96,1
3,64,0,68
3,60,0,13
3,60,56,8
3,64,49,1
3,60,0,15
3,64,0,0
3,55,0,2
3,55,93,11
3,60,94,1
3,64,91,1
3,60,0,67
3,55,0,4
3,64,0,6
