track,note,velocity,time
4,41,68,480
4,65,92,0
4,53,52,96
4,57,56,96
4,60,86,2
4,65,76,192
4,57,40,72
4,60,77,96
4,67,74,14
4,40,62,0
4,52,48,94
4,57,56,96
4,60,89,14
4,67,76,192
4,57,60,14
4,60,89,96
4,65,83,2
4,38,76,0
4,50,65,84
4,57,71,96
4,60,86,96
4,65,77,190
4,57,51,80
4,60,76,12
4,36,67,38
4,69,83,0
4,48,61,32
4,57,73,96
4,65,81,96
4,60,89,192
4,62,89,34
4,46,68,0
4,53,71,96
4,58,65,96
4,60,83,4
4,62,89,8
4,62,94,0
4,45,77,26
4,53,62,192
4,60,66,24
4,61,78,48
4,62,109,16
4,45,67,0
4,53,73,182
4,60,77,20
4,61,105,0
4,43,70,0
4,31,72,0
4,62,92,18
4,53,52,66
4,58,74,96
4,60,97,96
4,62,92,186
4,60,92,0
4,40,89,20
4,36,89,0
4,60,81,12
4,62,79,94
4,64,86,6
4,36,83,0
4,65,74,12
4,40,79,0
4,67,92,0
4,68,94,94
4,69,78,8
4,41,74,0
4,53,68,94
4,57,66,96
4,60,89,28
4,69,83,192
4,57,71,60
4,60,76,96
4,72,86,38
4,40,77,0
4,52,66,92
4,57,68,96
4,60,74,96
4,72,73,0
4,57,67,96
4,60,74,96
4,38,63,0
4,65,79,0
4,50,66,82
4,57,62,96
4,60,94,2
4,65,86,192
4,57,50,56
4,60,81,8
4,36,70,32
4,69,81,0
4,48,62,54
4,57,73,22
4,65,86,96
4,60,89,192
4,62,89,78
4,46,68,0
4,53,71,94
4,58,65,96
4,60,83,4
4,62,89,8
4,62,94,0
4,45,77,26
4,53,62,192
4,60,66,24
4,61,78,48
4,62,109,16
4,45,67,0
4,53,73,182
4,60,77,20
4,61,105,0
4,43,70,0
4,31,72,0
4,62,92,18
4,53,52,66
4,58,74,96
4,60,97,96
4,62,92,186
4,60,92,0
4,40,89,20
4,36,89,0
4,60,81,12
4,62,79,94
4,64,86,6
4,36,83,0
4,65,74,12
4,40,79,0
4,67,92,0
4,68,94,94
4,41,58,8
4,69,79,0
4,53,70,94
4,57,52,96
4,60,83,96
4,65,76,96
4,65,74,0
4,65,76,44
4,57,57,0
4,48,56,0
4,67,109,26
4,60,72,0
4,40,73,8
4,52,33,92
4,57,57,96
4,69,77,96
4,60,89,0
4,52,74,8
4,67,78,96
4,57,62,36
4,67,78,94
4,38,79,0
4,65,92,0
4,50,67,92
4,57,46,96
4,60,92,96
4,65,83,190
4,57,55,8
4,60,72,96
4,36,73,80
4,69,76,0
4,48,40,66
4,57,53,6
4,65,94,96
4,60,79,80
4,48,51,64
4,41,73,6
4,34,67,32
4,62,83,0
4,46,27,94
4,53,68,96
4,58,92,96
4,62,83,190
4,53,62,16
4,58,66,96
4,33,73,30
4,65,89,0
4,45,65,26
4,53,61,2
4,58,97,96
4,45,56,0
4,62,81,96
4,53,66,4
4,40,65,96
4,58,76,0
4,43,62,96
4,53,62,20
4,58,89,96
4,62,92,192
4,43,73,72
4,38,73,96
4,40,73,14
4,60,83,0
4,36,71,0
4,60,83,0
4,40,86,0
4,62,76,0
4,64,92,96
4,36,81,0
4,65,66,0
4,67,86,96
4,40,78,0
4,68,89,6
4,41,67,2
4,69,86,0
4,53,65,96
4,57,57,96
4,60,92,96
4,41,70,70
4,65,79,46
4,57,62,30
4,60,74,96
4,40,67,12
4,67,78,0
4,52,61,90
4,57,52,96
4,60,89,4
4,60,71,10
4,57,77,0
4,67,76,0
4,52,42,46
4,60,79,32
4,57,68,0
4,65,78,0
4,38,71,22
4,50,61,96
4,65,73,24
4,57,72,0
4,60,62,0
4,65,78,22
4,57,73,0
4,60,76,0
4,50,72,36
4,65,86,58
4,57,86,0
4,60,86,0
4,50,66,34
4,60,86,40
4,69,94,0
4,36,74,24
4,60,74,16
4,67,78,0
4,48,63,96
4,65,77,12
4,60,74,0
4,48,63,22
4,60,86,6
4,64,79,0
4,48,42,28
4,48,56,36
4,62,97,0
4,34,66,0
4,53,61,92
4,58,71,96
4,62,97,92
4,46,50,46
4,53,83,0
4,65,78,94
4,65,76,0
4,65,92,0
4,33,78,0
4,45,63,0
4,65,89,96
4,67,89,0
4,45,50,96
4,69,97,96
4,45,37,86
4,70,109,0
4,31,72,0
4,53,81,96
4,58,62,96
4,62,94,94
4,43,52,96
4,53,77,78
4,43,48,72
4,65,78,16
4,43,45,70
4,62,78,96
4,43,41,58
4,58,79,22
4,43,42,76
4,53,72,96
4,43,56,68
4,43,63,28
4,36,74,2
4,60,92,0
4,48,67,96
4,52,52,96
4,55,92,12
4,48,71,34
4,60,94,96
4,52,74,70
4,43,78,8
4,60,92,20
4,34,78,0
4,46,74,96
4,52,72,96
4,55,92,2
4,46,62,50
4,60,89,96
4,52,77,62
4,46,81,62
4,33,78,8
4,60,97,0
4,45,77,92
4,52,86,96
4,55,92,96
4,45,77,20
4,60,92,96
4,52,72,32
4,45,81,40
4,31,86,12
4,60,97,0
4,43,74,92
4,52,72,96
4,55,97,14
4,43,77,30
4,60,94,96
4,52,79,62
4,60,86,8
4,69,89,0
4,65,94,0
4,41,76,0
4,53,63,170
4,64,67,10
4,67,62,0
4,60,62,0
4,60,67,24
4,64,72,0
4,67,63,0
4,60,74,24
4,65,77,0
4,60,71,30
4,65,88,0
4,69,86,0
4,40,74,2
4,52,72,58
4,67,74,30
4,60,66,0
4,60,76,32
4,67,83,0
4,52,65,42
4,60,83,4
4,65,92,0
4,52,51,56
4,38,83,4
4,60,92,0
4,65,97,0
4,69,97,0
4,50,34,96
4,64,65,14
4,67,66,0
4,60,63,0
4,60,83,12
4,65,81,0
4,50,61,48
4,45,65,18
4,60,79,22
4,69,94,0
4,36,74,0
4,48,58,192
4,65,78,4
4,60,65,0
4,48,58,20
4,65,72,96
4,60,63,0
4,60,77,0
4,57,76,0
4,48,62,34
4,62,92,44
4,58,97,0
4,34,74,0
4,53,77,0
4,46,33,96
4,53,47,22
4,58,81,22
4,53,60,0
4,46,42,2
4,53,77,96
4,58,74,0
4,62,76,0
4,46,51,78
4,34,66,78
4,33,76,14
4,65,81,0
4,45,52,90
4,53,52,18
4,58,76,20
4,45,56,52
4,67,78,96
4,69,83,44
4,70,105,16
4,31,73,50
4,43,67,82
4,53,63,90
4,58,68,96
4,43,42,60
4,62,89,86
4,43,55,72
4,65,89,96
4,43,52,34
4,43,71,14
4,53,62,18
4,58,76,70
4,43,57,66
4,62,89,96
4,53,60,58
4,43,63,14
4,60,94,18
4,36,77,0
4,52,65,186
4,55,79,6
4,48,60,96
4,60,89,96
4,52,68,36
4,55,73,0
4,34,74,18
4,60,92,0
4,46,40,70
4,52,66,96
4,55,92,96
4,46,68,22
4,60,92,96
4,52,74,24
4,55,78,2
4,60,97,12
4,33,73,0
4,45,61,74
4,52,67,96
4,55,89,96
4,60,94,184
4,52,66,22
4,55,86,10
4,31,74,6
4,60,94,0
4,43,48,56
4,52,65,96
4,55,94,24
4,60,78,192
4,52,65,4
4,55,94,96
4,65,92,0
4,41,67,0
4,53,58,90
4,57,55,96
4,60,77,96
4,53,60,16
4,65,86,96
4,57,57,28
4,60,71,96
4,40,72,36
4,67,92,0
4,52,65,96
4,57,44,8
4,60,92,14
4,52,65,24
4,67,83,96
4,57,58,66
4,60,78,94
4,65,92,18
4,38,76,0
4,50,68,96
4,57,60,26
4,60,83,10
4,50,63,18
4,65,94,96
4,57,57,44
4,60,77,14
4,36,74,26
4,67,94,0
4,48,71,96
4,57,62,0
4,60,83,4
4,48,71,36
4,65,97,96
4,48,67,28
4,62,92,0
4,58,97,0
4,34,74,0
4,53,77,0
4,46,33,92
4,53,47,24
4,58,81,22
4,53,60,0
4,46,42,0
4,53,77,0
4,58,74,0
4,62,76,0
4,46,51,48
4,34,66,78
4,33,76,0
4,65,81,0
4,45,52,32
4,53,52,18
4,58,76,20
4,45,56,52
4,67,78,96
4,69,83,44
4,70,105,16
4,31,73,0
4,43,67,0
4,53,63,22
4,58,68,16
4,43,42,60
4,62,89,96
4,43,55,72
4,65,89,96
4,43,52,34
4,43,71,14
4,53,62,18
4,58,76,70
4,43,57,66
4,62,89,96
4,53,60,58
4,43,63,14
4,60,94,18
4,36,77,0
4,52,65,186
4,55,79,6
4,48,60,96
4,60,89,96
4,52,68,36
4,55,73,0
4,34,74,18
4,60,92,0
4,46,40,70
4,52,66,96
4,55,92,96
4,46,68,22
4,60,92,96
4,52,74,24
4,55,78,2
4,60,97,12
4,33,73,0
4,45,61,74
4,52,67,96
4,55,89,96
4,60,94,184
4,52,66,22
4,55,86,10
4,31,74,6
4,60,94,0
4,43,48,56
4,52,65,96
4,55,94,24
4,60,78,192
4,52,65,4
4,55,94,96
4,65,83,0
4,41,71,0
4,53,65,88
4,57,33,96
4,57,65,24
4,60,79,0
4,53,56,38
4,57,62,96
4,60,70,0
4,65,72,0
4,60,73,44
4,57,72,0
4,67,73,0
4,57,86,14
4,60,89,0
4,67,89,0
4,40,63,78
4,52,65,80
4,57,62,30
4,65,76,0
4,60,62,0
4,57,68,24
4,67,77,0
4,60,74,0
4,52,62,96
4,57,77,66
4,65,81,0
4,60,86,0
4,69,92,6
4,60,97,0
4,52,58,0
4,38,63,46
4,60,56,0
4,67,66,0
4,65,76,0
4,60,66,0
4,50,58,198
4,60,63,30
4,65,70,0
4,65,77,40
4,60,66,0
4,60,81,0
4,69,94,0
4,36,72,0
4,60,50,10
4,69,65,0
4,60,36,6
4,67,74,0
4,65,92,20
4,60,72,0
4,48,68,20
4,60,76,96
4,65,94,0
4,60,72,22
4,64,78,0
4,58,94,10
4,62,97,0
4,34,65,2
4,46,65,4
4,53,74,82
4,58,77,26
4,53,43,0
4,46,62,24
4,62,76,0
4,58,72,0
4,53,73,0
4,46,36,2
4,34,65,94
4,65,94,36
4,33,70,0
4,45,61,64
4,53,52,52
4,58,67,46
4,45,58,52
4,67,83,96
4,69,89,44
4,70,101,28
4,31,71,72
4,43,55,32
4,53,70,96
4,53,41,34
4,58,72,0
4,43,56,44
4,58,45,10
4,53,61,0
4,62,72,0
4,43,45,34
4,53,50,96
4,65,77,0
4,58,66,0
4,43,58,14
4,53,43,96
4,53,45,46
4,58,60,0
4,53,62,38
4,62,77,0
4,58,62,0
4,43,55,0
4,43,55,26
4,62,76,22
4,65,74,0
4,53,86,0
4,58,73,0
4,43,37,6
4,31,66,70
4,60,101,22
4,36,73,0
4,52,37,154
4,55,62,62
4,52,52,0
4,48,60,44
4,52,58,96
4,55,61,0
4,60,73,0
4,52,42,4
4,55,70,32
4,60,94,22
4,34,72,0
4,46,48,50
4,52,61,96
4,52,55,0
4,55,73,0
4,46,53,40
4,60,76,96
4,52,68,0
4,55,74,0
4,52,61,0
4,55,73,34
4,60,89,16
4,33,76,0
4,45,62,44
4,52,47,96
4,55,73,16
4,52,67,0
4,45,63,10
4,52,65,96
4,60,73,0
4,55,76,0
4,52,68,8
4,55,76,22
4,60,94,22
4,31,70,0
4,43,46,50
4,52,62,96
4,55,76,6
4,52,43,0
4,43,60,0
4,52,70,94
4,60,79,0
4,55,83,0
4,52,67,10
4,55,77,96
4,65,68,4
4,69,74,0
4,41,73,0
4,53,67,20
4,57,51,14
4,57,37,48
4,60,65,0
4,53,51,50
4,65,73,32
4,57,67,0
4,69,67,0
4,60,74,0
4,53,38,40
4,48,65,0
4,64,83,68
4,40,71,0
4,67,77,0
4,52,46,72
4,57,43,8
4,57,46,52
4,60,67,0
4,52,43,52
4,57,77,20
4,60,76,0
4,67,74,0
4,52,51,36
4,57,66,68
4,65,77,0
4,60,77,0
4,38,71,0
4,50,43,0
4,57,32,20
4,57,29,64
4,60,57,0
4,50,39,54
4,57,73,32
4,60,73,0
4,65,76,0
4,50,37,24
4,45,61,0
4,65,66,48
4,69,71,0
4,57,72,0
4,60,77,0
4,36,61,0
4,57,40,18
4,60,65,54
4,57,56,0
4,57,60,64
4,65,74,0
4,60,73,0
4,48,44,38
4,69,74,32
4,65,76,0
4,57,78,0
4,60,79,0
4,48,48,46
4,43,68,96
4,34,66,30
4,53,81,0
4,62,86,0
4,58,86,0
4,46,33,2
4,53,65,42
4,53,62,60
4,58,78,0
4,46,30,60
4,53,73,66
4,62,74,0
4,58,73,0
4,46,33,6
4,34,51,96
4,65,77,36
4,33,68,0
4,45,68,106
4,67,97,52
4,45,55,50
4,69,94,96
4,70,101,20
4,31,72,0
4,53,52,42
4,53,32,52
4,58,51,0
4,62,76,54
4,58,71,0
4,53,61,0
4,43,38,32
4,53,55,26
4,58,67,0
4,43,41,30
4,65,78,96
4,53,76,0
4,58,78,0
4,31,65,6
4,53,52,86
4,58,29,62
4,53,35,0
4,62,73,60
4,58,86,0
4,53,63,0
4,43,47,8
4,53,41,28
4,60,73,0
4,58,53,0
4,43,58,16
4,43,66,50
4,36,65,4
4,52,73,0
4,55,77,0
4,60,77,0
4,52,37,10
4,52,33,50
4,55,62,0
4,52,60,54
4,60,74,0
4,55,76,0
4,48,52,28
4,52,57,96
4,55,72,40
4,52,61,0
4,48,65,20
4,34,67,30
4,52,65,0
4,60,77,0
4,55,79,0
4,52,60,0
4,52,35,36
4,55,62,0
4,60,72,42
4,52,62,0
4,55,73,0
4,46,35,16
4,52,60,96
4,55,67,50
4,52,52,0
4,46,65,42
4,52,68,44
4,60,81,0
4,55,81,0
4,33,74,0
4,52,65,2
4,55,65,40
4,52,46,0
4,52,63,52
4,60,77,0
4,55,77,0
4,45,56,16
4,52,63,96
4,55,76,42
4,52,57,0
4,45,72,26
4,31,70,38
4,52,66,0
4,60,81,0
4,55,79,0
4,52,63,2
4,52,53,48
4,55,71,0
4,60,76,48
4,52,56,0
4,55,76,0
4,43,63,12
4,52,67,96
4,55,79,52
4,65,83,86
4,41,71,0
4,53,65,88
4,57,33,96
4,57,65,24
4,60,79,0
4,53,56,38
4,57,62,96
4,60,70,0
4,65,72,0
4,60,73,44
4,57,72,0
4,67,73,0
4,57,86,14
4,60,89,0
4,67,89,0
4,40,63,78
4,52,65,80
4,57,62,30
4,65,76,0
4,60,62,0
4,57,68,24
4,67,77,0
4,60,74,0
4,52,62,96
4,57,77,66
4,65,81,0
4,60,86,0
4,69,92,6
4,60,97,0
4,52,58,0
4,38,63,46
4,60,56,0
4,67,66,0
4,65,76,0
4,60,66,0
4,50,58,198
4,60,63,30
4,65,70,0
4,65,77,40
4,60,66,0
4,60,81,38
4,69,94,0
4,36,72,0
4,60,50,10
4,69,65,0
4,60,36,6
4,67,74,0
4,65,92,20
4,60,72,0
4,48,68,20
4,60,76,96
4,65,94,0
4,60,72,22
4,64,78,0
4,58,94,10
4,62,97,0
4,34,65,2
4,46,65,4
4,53,74,82
4,58,77,26
4,53,43,0
4,46,62,24
4,62,76,0
4,58,72,0
4,53,73,0
4,46,36,2
4,34,65,94
4,65,94,36
4,33,70,0
4,45,61,64
4,53,52,52
4,65,78,0
4,58,67,42
4,65,71,0
4,45,58,40
4,65,83,0
4,67,89,34
4,69,94,38
4,70,97,28
4,31,71,72
4,43,55,48
4,53,70,96
4,53,41,34
4,58,72,0
4,43,56,44
4,58,45,10
4,53,61,0
4,62,72,0
4,43,45,34
4,53,50,96
4,65,77,0
4,58,66,0
4,43,58,14
4,53,43,96
4,53,45,46
4,58,60,0
4,53,62,38
4,62,77,0
4,58,62,0
4,43,55,0
4,43,55,26
4,62,76,22
4,65,74,0
4,53,86,0
4,58,73,0
4,43,37,6
4,31,66,70
4,60,101,22
4,36,73,0
4,52,37,154
4,55,62,62
4,52,52,0
4,48,60,44
4,52,58,96
4,55,61,0
4,60,73,0
4,52,42,4
4,55,70,32
4,60,94,22
4,34,72,0
4,46,48,50
4,52,61,96
4,52,55,0
4,55,73,0
4,46,53,40
4,60,76,96
4,52,68,0
4,55,74,0
4,52,61,0
4,55,73,34
4,60,89,16
4,33,76,0
4,45,62,44
4,52,47,96
4,55,73,16
4,52,67,0
4,45,63,10
