track,note,velocity,time
1,55,64,2160
1,65,64,0
1,64,64,0
1,64,64,0
1,65,64,48
1,65,64,0
1,67,64,0
1,64,64,0
1,64,64,48
1,65,64,0
1,64,64,0
1,62,64,0
1,64,64,48
1,64,64,0
1,62,64,0
1,62,64,0
1,65,64,48
1,65,64,0
1,64,64,0
1,64,64,0
1,67,64,48
1,67,64,0
1,69,64,0
1,65,64,0
1,64,64,48
1,64,64,0
1,60,64,0
1,62,64,0
1,64,64,48
1,64,64,0
1,65,64,0
1,62,64,0
1,65,64,48
1,65,64,0
1,64,64,0
1,64,64,0
1,64,64,240
1,65,64,0
1,67,64,0
1,64,64,0
1,64,64,48
1,64,64,0
1,62,64,0
1,62,64,0
1,64,64,48
1,64,64,0
1,62,64,0
1,62,64,0
1,65,64,48
1,65,64,0
1,64,64,0
1,64,64,0
1,67,64,48
1,67,64,0
1,69,64,0
1,65,64,0
1,64,64,48
1,64,64,0
1,62,64,0
1,62,64,0
1,60,64,0
1,62,64,0
1,60,64,0
1,64,64,0
1,62,64,0
1,64,64,0
1,67,64,0
1,60,64,0
1,62,64,144
1,64,64,0
1,65,64,0
1,65,64,48
1,65,64,48
1,65,64,0
1,64,64,0
1,65,64,0
1,67,64,0
1,62,64,0
1,60,64,144
1,69,64,0
1,71,64,0
1,72,64,0
1,71,64,0
1,69,64,0
1,67,64,0
1,67,64,0
1,64,64,0
1,62,64,0
1,60,64,0
1,62,64,0
1,64,64,0
1,65,64,0
1,65,64,0
1,65,64,0
1,65,64,0
1,64,64,0
1,60,64,0
1,62,64,0
1,62,64,0
1,60,64,0
1,62,64,0
1,60,64,0
1,64,64,0
1,62,64,0
1,64,64,0
1,67,64,0
1,60,64,0
1,62,64,128
1,64,64,0
1,65,64,0
1,65,64,0
1,65,64,0
1,74,64,0
1,72,64,0
1,71,64,0
1,69,64,96
1,71,64,0
1,72,64,0
1,74,64,0
1,72,64,0
1,67,64,0
1,65,64,0
1,67,64,0
1,64,64,0
1,62,64,32
1,64,64,0
1,65,64,0
1,62,64,128
1,64,64,0
1,67,64,0
1,69,64,0
1,64,64,0
1,60,64,0
1,62,64,0
1,60,64,0
1,65,64,432
1,65,64,0
1,64,64,0
1,64,64,0
1,64,64,48
1,65,64,0
1,67,64,0
1,64,64,0
1,64,64,48
1,64,64,0
1,62,64,0
1,62,64,0
1,64,64,48
1,64,64,0
1,62,64,0
1,62,64,0
1,65,64,48
1,65,64,0
1,64,64,0
1,64,64,0
1,67,64,48
1,67,64,0
1,69,64,0
1,65,64,0
1,64,64,48
1,64,64,0
1,62,64,0
1,62,64,0
1,60,64,0
1,62,64,0
1,60,64,0
1,64,64,0
1,62,64,0
1,64,64,0
1,67,64,0
1,60,64,0
1,62,64,144
1,64,64,0
1,65,64,0
1,65,64,48
1,65,64,48
1,65,64,0
1,64,64,0
1,65,64,0
1,67,64,0
1,62,64,0
1,60,64,144
1,69,64,0
1,71,64,0
1,72,64,0
1,71,64,0
1,69,64,0
1,67,64,0
1,67,64,0
1,64,64,0
1,62,64,0
1,60,64,0
1,62,64,0
1,64,64,0
1,65,64,0
1,65,64,0
1,65,64,0
1,65,64,0
1,64,64,0
1,60,64,0
1,62,64,0
1,62,64,0
1,60,64,0
1,62,64,0
1,60,64,0
1,64,64,0
1,62,64,0
1,64,64,0
1,67,64,0
1,60,64,0
1,62,64,128
1,64,64,0
1,65,64,0
1,65,64,0
1,65,64,0
1,74,64,0
1,72,64,0
1,71,64,0
1,69,64,96
1,71,64,0
1,72,64,0
1,74,64,0
1,72,64,0
1,67,64,0
1,65,64,0
1,67,64,0
1,64,64,0
1,62,64,32
1,64,64,0
1,65,64,0
1,62,64,128
1,64,64,0
1,67,64,0
1,76,64,48
1,72,64,0
1,74,64,0
1,72,64,0
1,72,64,96
1,70,64,0
1,70,64,0
1,68,64,0
1,68,64,0
1,67,64,96
1,67,64,0
1,65,64,0
1,67,64,0
1,64,64,0
1,72,64,96
1,70,64,0
1,70,64,0
1,68,64,0
1,68,64,0
1,68,64,0
1,72,64,0
1,74,64,0
1,74,64,0
1,74,64,256
1,74,64,0
1,75,64,0
1,61,64,0
1,63,64,0
1,65,64,0
1,65,64,0
1,63,64,192
1,65,64,0
1,68,64,0
1,61,64,0
1,63,64,128
1,65,64,0
1,66,64,0
1,66,64,0
1,66,64,0
1,65,64,0
1,66,64,0
1,68,64,0
1,63,64,0
1,61,64,48
1,70,64,0
1,72,64,0
1,73,64,0
1,72,64,0
1,70,64,0
1,68,64,0
1,68,64,0
1,65,64,0
1,63,64,0
1,61,64,0
1,65,64,0
1,65,64,0
1,66,64,0
1,66,64,0
1,66,64,0
1,65,64,0
1,66,64,0
1,68,64,0
1,63,64,0
1,70,64,0
1,68,64,0
1,65,64,0
1,70,64,0
1,68,64,0
1,70,64,0
1,65,64,0
1,63,64,0
1,65,64,0
1,68,64,0
1,61,64,0
1,63,64,128
1,65,64,0
1,66,64,0
1,66,64,0
1,66,64,0
1,75,64,0
1,73,64,0
1,72,64,0
1,70,64,0
1,68,64,0
1,70,64,192
1,72,64,0
1,73,64,0
1,75,64,0
1,73,64,0
1,68,64,0
1,66,64,0
1,68,64,0
1,65,64,0
1,63,64,0
1,65,64,0
1,66,64,0
1,70,64,48
1,72,64,0
1,70,64,0
1,68,64,0
1,68,64,48
1,70,64,0
1,73,64,0
1,73,64,0
1,68,64,288
1,77,64,0
1,75,64,0
1,73,64,0
2,72,64,48
2,71,64,0
2,72,64,0
2,67,64,0
2,72,64,0
2,71,64,0
2,72,64,0
2,72,64,0
2,71,64,0
2,72,64,0
2,69,64,0
2,65,64,0
2,69,64,0
2,72,64,0
2,76,64,0
2,74,64,0
2,74,64,0
2,72,64,0
2,72,64,0
2,65,64,0
2,69,64,0
2,72,64,0
2,76,64,0
2,74,64,0
2,74,64,0
2,72,64,0
2,72,64,0
2,67,64,0
2,71,64,0
2,72,64,0
2,64,64,0
2,67,64,0
2,55,64,48
2,65,64,0
2,64,64,0
2,60,64,0
2,64,64,0
2,55,64,0
2,60,64,0
2,64,64,0
2,55,64,0
2,60,64,0
2,64,64,0
2,65,64,0
2,65,64,0
2,67,64,0
2,64,64,0
2,60,64,0
2,55,64,0
2,64,64,0
2,60,64,0
2,55,64,0
2,60,64,0
2,64,64,0
2,64,64,0
2,65,64,0
2,64,64,0
2,59,64,0
2,62,64,0
2,55,64,0
2,59,64,0
2,62,64,0
2,55,64,0
2,59,64,0
2,62,64,0
2,64,64,0
2,64,64,0
2,62,64,0
2,62,64,0
2,59,64,0
2,55,64,0
2,62,64,0
2,59,64,0
2,55,64,0
2,59,64,0
2,62,64,0
2,65,64,0
2,65,64,0
2,64,64,0
2,64,64,0
2,60,64,0
2,55,64,0
2,60,64,0
2,64,64,0
2,55,64,0
2,60,64,0
2,64,64,0
2,67,64,0
2,67,64,0
2,69,64,0
2,60,64,0
2,65,64,0
2,57,64,0
2,60,64,0
2,65,64,0
2,57,64,0
2,60,64,0
2,65,64,0
2,64,64,0
2,64,64,0
2,60,64,0
2,59,64,0
2,62,64,0
2,55,64,0
2,59,64,0
2,62,64,0
2,55,64,0
2,59,64,0
2,62,64,0
2,64,64,0
2,64,64,0
2,65,64,0
2,62,64,0
2,59,64,0
2,55,64,0
2,62,64,0
2,59,64,0
2,55,64,0
2,59,64,0
2,62,64,0
2,65,64,0
2,65,64,0
2,64,64,0
2,64,64,0
2,60,64,0
2,55,64,0
2,64,64,0
2,60,64,0
2,55,64,0
2,60,64,0
2,64,64,0
2,64,64,0
2,65,64,0
2,67,64,0
2,64,64,0
2,60,64,0
2,55,64,0
2,64,64,0
2,60,64,0
2,55,64,0
2,60,64,0
2,64,64,0
2,64,64,0
2,64,64,0
2,62,64,0
2,62,64,0
2,59,64,0
2,55,64,0
2,62,64,0
2,59,64,0
2,55,64,0
2,59,64,0
2,62,64,0
2,64,64,0
2,64,64,0
2,62,64,0
2,62,64,0
2,59,64,0
2,55,64,0
2,59,64,0
2,62,64,0
2,55,64,0
2,59,64,0
2,62,64,0
2,65,64,0
2,65,64,0
2,64,64,0
2,60,64,0
2,64,64,0
2,55,64,0
2,64,64,0
2,60,64,0
2,55,64,0
2,64,64,0
2,60,64,0
2,67,64,0
2,67,64,0
2,69,64,0
2,60,64,0
2,65,64,0
2,57,64,0
2,65,64,0
2,60,64,0
2,57,64,0
2,60,64,0
2,65,64,0
2,64,64,0
2,64,64,0
2,62,64,0
2,62,64,0
2,59,64,0
2,55,64,0
2,62,64,0
2,59,64,0
2,55,64,0
2,60,64,0
2,57,64,0
2,53,64,0
2,62,64,0
2,59,64,0
2,55,64,0
2,60,64,0
2,55,64,0
2,60,64,0
2,64,64,0
2,62,64,0
2,64,64,0
2,67,64,0
2,60,64,0
2,55,64,0
2,72,64,0
2,64,64,0
2,71,64,0
2,62,64,0
2,67,64,0
2,59,64,0
2,62,64,0
2,64,64,0
2,60,64,0
2,57,64,0
2,65,64,0
2,60,64,0
2,57,64,0
2,65,64,0
2,65,64,0
2,60,64,0
2,57,64,0
2,60,64,0
2,64,64,0
2,57,64,0
2,65,64,0
2,60,64,0
2,57,64,0
2,60,64,0
2,57,64,0
2,67,64,0
2,62,64,0
2,59,64,0
2,55,64,0
2,59,64,0
2,55,64,0
2,60,64,0
2,55,64,0
2,62,64,0
2,60,64,0
2,60,64,0
2,65,64,0
2,69,64,0
2,71,64,0
2,72,64,0
2,62,64,0
2,67,64,0
2,71,64,0
2,69,64,0
2,67,64,0
2,60,64,0
2,64,64,0
2,67,64,0
2,64,64,0
2,62,64,0
2,57,64,0
2,60,64,0
2,62,64,0
2,64,64,0
2,60,64,0
2,65,64,0
2,57,64,0
2,60,64,0
2,65,64,0
2,57,64,0
2,60,64,0
2,57,64,0
2,65,64,0
2,65,64,0
2,57,64,0
2,60,64,0
2,60,64,0
2,64,64,0
2,57,64,0
2,60,64,0
2,62,64,0
2,59,64,0
2,62,64,0
2,55,64,0
2,59,64,0
2,62,64,0
2,55,64,0
2,60,64,0
2,53,64,0
2,57,64,0
2,59,64,0
2,55,64,0
2,62,64,0
2,60,64,0
2,60,64,0
2,55,64,0
2,64,64,0
2,62,64,0
2,64,64,0
2,67,64,0
2,60,64,0
2,55,64,0
2,64,64,0
2,72,64,0
2,65,64,0
2,74,64,0
2,76,64,0
2,67,64,0
2,62,64,0
2,64,64,0
2,65,64,0
2,60,64,0
2,57,64,0
2,57,64,0
2,65,64,0
2,60,64,0
2,57,64,0
2,60,64,0
2,65,64,0
2,69,64,0
2,74,64,0
2,65,64,0
2,69,64,0
2,72,64,0
2,65,64,0
2,67,64,0
2,62,64,0
2,71,64,0
2,71,64,0
2,72,64,0
2,74,64,0
2,65,64,0
2,69,64,0
2,60,64,0
2,62,64,0
2,67,64,0
2,71,64,0
2,67,64,0
2,72,64,0
2,62,64,0
2,62,64,0
2,74,64,0
2,67,64,0
2,72,64,0
2,64,64,0
2,67,64,0
2,67,64,0
2,65,64,0
2,67,64,0
2,60,64,0
2,64,64,0
2,55,64,0
2,62,64,0
2,64,64,0
2,65,64,0
2,60,64,0
2,57,64,0
2,62,64,0
2,57,64,0
2,53,64,0
2,60,64,0
2,65,64,0
2,57,64,0
2,60,64,0
2,65,64,0
2,69,64,0
2,62,64,0
2,64,64,0
2,60,64,0
2,65,64,0
2,67,64,0
2,60,64,0
2,65,64,0
2,67,64,0
2,59,64,0
2,65,64,0
2,67,64,0
2,69,64,0
2,64,64,0
2,60,64,0
2,62,64,0
2,60,64,0
2,64,64,0
2,72,64,48
2,71,64,0
2,72,64,0
2,67,64,0
2,72,64,0
2,71,64,0
2,72,64,0
2,60,64,0
2,69,64,0
2,64,64,0
2,72,64,48
2,71,64,0
2,72,64,0
2,65,64,0
2,76,64,0
2,72,64,0
2,69,64,0
2,65,64,48
2,65,64,0
2,64,64,0
2,64,64,0
2,60,64,0
2,55,64,0
2,64,64,0
2,60,64,0
2,55,64,0
2,60,64,0
2,64,64,0
2,64,64,0
2,65,64,0
2,67,64,0
2,64,64,0
2,60,64,0
2,55,64,0
2,64,64,0
2,60,64,0
2,55,64,0
2,60,64,0
2,64,64,0
2,64,64,0
2,64,64,0
2,62,64,0
2,62,64,0
2,59,64,0
2,55,64,0
2,62,64,0
2,59,64,0
2,55,64,0
2,59,64,0
2,62,64,0
2,64,64,0
2,64,64,0
2,62,64,0
2,62,64,0
2,59,64,0
2,55,64,0
2,59,64,0
2,62,64,0
2,55,64,0
2,59,64,0
2,62,64,0
2,65,64,0
2,65,64,0
2,64,64,0
2,60,64,0
2,64,64,0
2,55,64,0
2,64,64,0
2,60,64,0
2,55,64,0
2,64,64,0
2,60,64,0
2,67,64,0
2,67,64,0
2,69,64,0
2,60,64,0
2,65,64,0
2,57,64,0
2,65,64,0
2,60,64,0
2,57,64,0
2,60,64,0
2,65,64,0
2,64,64,0
2,64,64,0
2,62,64,0
2,62,64,0
2,59,64,0
2,55,64,0
2,62,64,0
2,59,64,0
2,55,64,0
2,60,64,0
2,57,64,0
2,53,64,0
2,62,64,0
2,59,64,0
2,55,64,0
2,60,64,0
2,55,64,0
2,60,64,0
2,64,64,0
2,62,64,0
2,64,64,0
2,67,64,0
2,60,64,0
2,55,64,0
2,72,64,0
2,64,64,0
2,71,64,0
2,62,64,0
2,67,64,0
2,59,64,0
2,62,64,0
2,64,64,0
2,60,64,0
2,57,64,0
2,65,64,0
2,60,64,0
2,57,64,0
2,65,64,0
2,65,64,0
2,60,64,0
2,57,64,0
2,60,64,0
2,64,64,0
2,57,64,0
2,65,64,0
2,60,64,0
2,57,64,0
2,60,64,0
2,57,64,0
2,67,64,0
2,62,64,0
2,59,64,0
2,55,64,0
2,59,64,0
2,55,64,0
2,60,64,0
2,55,64,0
2,62,64,0
2,60,64,0
2,60,64,0
2,65,64,0
2,69,64,0
2,71,64,0
2,72,64,0
2,62,64,0
2,67,64,0
2,71,64,0
2,69,64,0
2,67,64,0
2,60,64,0
2,64,64,0
2,67,64,0
2,64,64,0
2,62,64,0
2,57,64,0
2,60,64,0
2,62,64,0
2,64,64,0
2,60,64,0
2,65,64,0
2,57,64,0
2,60,64,0
2,65,64,0
2,57,64,0
2,60,64,0
2,57,64,0
2,65,64,0
2,65,64,0
2,57,64,0
2,60,64,0
2,60,64,0
2,64,64,0
2,57,64,0
2,60,64,0
2,62,64,0
2,59,64,0
2,62,64,0
2,55,64,0
2,59,64,0
2,62,64,0
2,55,64,0
2,60,64,0
2,53,64,0
2,57,64,0
2,59,64,0
2,55,64,0
2,62,64,0
2,60,64,0
2,60,64,0
2,55,64,0
2,64,64,0
2,62,64,0
2,64,64,0
2,67,64,0
2,60,64,0
2,55,64,0
2,64,64,0
2,72,64,0
2,65,64,0
2,74,64,0
2,76,64,0
2,67,64,0
2,62,64,0
2,64,64,0
2,65,64,0
2,60,64,0
2,57,64,0
2,57,64,0
2,65,64,0
2,60,64,0
2,57,64,0
2,60,64,0
2,65,64,0
2,69,64,0
2,74,64,0
2,65,64,0
2,69,64,0
2,72,64,0
2,65,64,0
2,67,64,0
2,62,64,0
2,71,64,0
2,71,64,0
2,72,64,0
2,74,64,0
2,65,64,0
2,69,64,0
2,60,64,0
2,62,64,0
2,67,64,0
2,71,64,0
2,67,64,0
2,72,64,0
2,62,64,0
2,62,64,0
2,74,64,0
2,67,64,0
2,72,64,0
2,64,64,0
2,67,64,0
2,67,64,0
2,65,64,0
2,67,64,0
2,60,64,0
2,64,64,0
2,55,64,0
2,62,64,0
2,64,64,0
2,65,64,0
2,60,64,0
2,57,64,0
2,62,64,0
2,57,64,0
2,53,64,0
2,60,64,0
2,65,64,0
2,57,64,0
2,60,64,0
2,65,64,0
2,69,64,0
2,62,64,0
2,64,64,0
2,67,64,0
2,65,64,0
2,60,64,0
2,60,64,0
2,59,64,0
2,65,64,0
2,67,64,0
2,76,64,0
2,72,64,0
2,74,64,0
2,64,64,0
