track,note,velocity,time
3,40,76,6288
3,40,0,761
3,37,73,7
3,37,0,758
3,33,79,10
3,33,0,383
3,35,76,1
3,35,0,378
3,40,76,6
3,35,65,432
3,40,0,7
3,35,0,39
3,37,65,2
3,40,74,48
3,37,0,2
3,47,70,46
3,40,0,2
3,28,76,4
3,28,0,761
3,37,73,7
3,37,0,758
3,33,79,10
3,33,0,383
3,35,76,1
3,35,0,378
3,40,76,6
3,40,0,390
3,28,81,90
3,28,0,74
3,30,79,22
3,30,0,78
3,32,81,18
3,32,0,70
3,33,84,26
3,33,0,378
3,35,90,6
3,35,0,382
3,40,84,2
3,28,90,2
3,33,90,7
3,33,0,466
3,33,90,13
3,33,0,370
3,35,90,10
3,35,0,178
3,35,85,15
3,40,90,196
3,35,0,1
3,35,90,2
3,35,0,364
3,33,84,18
3,33,0,378
3,35,90,6
3,35,0,278
3,33,83,10
3,33,0,46
3,35,88,2
3,35,0,38
3,40,84,10
3,28,90,2
3,33,90,7
3,33,0,466
3,33,90,13
3,33,0,370
3,35,90,10
3,35,0,377
3,47,81,10
3,47,0,381
3,40,90,3
3,40,0,273
3,40,79,15
3,40,0,78
3,39,88,18
3,39,0,371
3,37,88,13
3,37,0,373
3,35,90,11
3,33,90,384
3,35,0,7
3,32,90,377
3,33,0,3
3,30,88,381
3,32,0,6
3,30,0,360
3,35,90,18
3,45,76,0
3,45,0,87
3,35,79,7
3,40,90,6
3,40,0,238
3,35,69,2
3,35,0,30
3,40,74,18
3,40,0,30
3,39,88,66
3,51,70,192
3,39,0,3
3,51,0,187
3,37,88,2
3,37,0,234
3,35,76,6
3,35,0,39
3,37,74,9
3,37,0,24
3,35,92,72
3,33,90,384
3,35,0,2
3,33,0,236
3,28,74,2
3,28,0,30
3,33,79,18
3,33,0,28
3,32,92,68
3,44,70,288
3,32,0,5
3,30,92,91
3,44,0,2
3,35,88,382
3,30,0,5
3,35,0,329
3,30,89,50
3,30,0,46
3,42,79,2
3,30,64,48
3,42,0,1
3,30,0,44
3,42,79,3
3,42,0,62
3,30,83,322
3,37,81,48
3,30,0,4
3,37,0,26
3,42,88,18
3,42,0,95
3,30,83,1
3,30,0,35
3,29,90,13
3,29,0,47
3,41,90,1
3,41,0,39
3,29,90,9
3,41,85,48
3,29,0,2
3,41,0,383
3,29,90,47
3,41,81,48
3,29,0,3
3,41,0,120
3,35,90,21
3,47,81,48
3,35,0,1
3,47,0,42
3,35,90,5
3,35,0,42
3,47,88,6
3,47,0,179
3,35,85,13
3,35,0,46
3,37,86,2
3,37,0,41
3,49,73,7
3,49,0,45
3,37,81,3
3,37,0,45
3,49,76,3
3,29,79,192
3,49,0,2
3,29,0,46
3,30,89,0
3,30,0,46
3,42,79,2
3,30,64,48
3,42,0,1
3,30,0,44
3,42,79,3
3,42,0,310
3,30,88,26
3,30,0,45
3,37,83,3
3,40,81,2
3,40,0,38
3,39,81,8
3,39,0,46
3,37,83,2
3,37,0,46
3,30,89,2
3,30,0,46
3,42,79,2
3,30,64,48
3,42,0,1
3,30,0,44
3,42,79,3
3,42,0,374
3,30,83,10
3,37,81,48
3,30,0,4
3,37,0,26
3,42,88,18
3,42,0,86
3,30,83,10
3,30,0,35
3,29,90,13
3,29,0,47
3,41,90,1
3,41,0,39
3,29,90,9
3,41,85,48
3,29,0,2
3,41,0,383
3,29,90,47
3,41,81,48
3,29,0,3
3,41,0,120
3,35,90,21
3,47,81,48
3,35,0,1
3,47,0,42
3,35,90,5
3,35,0,42
3,47,88,6
3,47,0,179
3,35,85,13
3,35,0,46
3,37,86,2
3,37,0,41
3,49,73,7
3,49,0,45
3,37,81,3
3,37,0,45
3,49,76,3
3,29,79,192
3,49,0,2
3,29,0,46
3,30,89,0
3,30,0,46
3,42,79,2
3,30,64,48
3,42,0,1
3,30,0,44
3,42,79,3
3,42,0,310
3,30,81,26
3,30,0,82
3,32,79,14
3,32,0,86
3,34,81,10
3,34,0,82
3,35,84,14
3,35,0,378
3,37,90,6
3,37,0,382
3,42,84,2
3,30,90,2
3,35,90,7
3,35,0,466
3,35,90,13
3,35,0,370
3,37,90,10
3,37,0,178
3,37,85,15
3,42,90,196
3,37,0,1
3,37,90,2
3,37,0,364
3,35,84,18
3,35,0,378
3,37,90,6
3,37,0,278
3,35,83,10
3,35,0,46
3,37,88,2
3,37,0,38
3,42,84,10
3,30,90,2
3,35,90,7
3,35,0,466
3,33,93,12
3,33,0,369
3,40,94,15
3,40,0,273
3,40,83,15
3,40,0,78
3,39,92,18
3,39,0,371
3,37,92,13
3,37,0,373
3,35,94,11
3,33,94,384
3,35,0,7
3,32,94,377
3,33,0,3
3,30,92,381
3,32,0,6
3,30,0,360
3,35,94,18
3,45,80,0
3,35,83,9
3,40,94,6
3,40,0,238
3,35,73,2
3,35,0,30
3,40,78,18
3,40,0,30
3,39,92,66
3,51,74,192
3,39,0,3
3,51,0,187
3,37,92,2
3,37,0,234
3,35,80,6
3,35,0,39
3,37,78,9
3,37,0,24
3,35,96,72
3,33,94,384
3,35,0,2
3,33,0,236
3,28,78,2
3,28,0,30
3,33,83,18
3,33,0,28
3,32,96,68
3,44,74,288
3,32,0,5
3,30,96,91
3,44,0,2
3,35,92,382
3,30,0,5
3,35,0,181
3,47,90,6
3,47,0,151
3,40,76,41
3,40,0,761
3,37,73,7
3,37,0,758
3,33,79,10
3,33,0,383
3,35,76,1
3,35,0,254
3,35,70,37
3,37,71,50
3,35,0,4
3,40,76,39
3,37,0,5
3,40,0,561
3,47,63,10
3,49,64,50
3,47,0,4
3,52,63,42
3,49,0,2
3,52,0,743
3,38,63,19
3,37,73,10
3,37,70,25
3,37,0,45
3,35,74,5
3,35,0,36
3,33,79,11
3,33,0,383
3,35,76,1
3,35,0,378
3,40,76,6
3,40,0,758
3,28,76,10
3,28,0,566
3,52,63,10
3,52,0,94
3,49,65,2
3,49,73,0
3,49,0,758
3,33,79,10
3,33,0,383
3,35,76,1
3,35,0,374
3,40,76,10
3,40,0,758
3,28,82,10
4,70,109,24459
4,70,0,72
4,70,100,24
4,70,0,22
4,70,109,24
4,70,0,73
4,68,94,31
4,68,0,17
4,68,100,28
4,68,0,46
4,66,101,1
4,66,0,266
4,61,90,31
4,61,0,21
4,66,96,25
4,66,0,20
4,68,93,21
4,68,0,22
4,70,110,29
4,70,0,67
4,70,112,28
4,70,0,22
4,70,109,26
4,70,0,75
4,68,90,25
4,68,0,17
4,68,108,31
4,66,100,46
4,68,0,0
4,66,0,142
4,70,100,93
4,71,110,50
4,70,0,8
4,71,0,15
4,73,97,25
4,73,0,22
4,75,108,25
4,75,0,22
4,73,108,27
4,73,0,75
4,71,103,22
4,71,0,23
4,71,100,29
4,71,0,68
4,70,99,28
4,70,0,19
4,70,100,29
4,70,0,180
4,68,99,9
4,68,0,17
4,68,103,26
4,68,0,102
4,66,92,3
4,66,0,76
4,66,87,62
4,70,108,1
4,66,0,75
4,70,0,0
4,66,81,20
4,70,99,4
4,66,0,20
4,70,0,0
4,66,84,22
4,70,104,2
4,66,0,81
4,70,0,3
4,68,101,17
4,61,77,1
4,68,0,19
4,61,0,3
4,61,81,24
4,68,108,1
4,61,0,26
4,68,0,4
4,66,97,16
4,58,73,5
4,58,0,333
4,66,0,8
4,70,109,80
4,70,0,72
4,70,100,24
4,70,0,22
4,70,109,24
4,70,0,73
4,68,94,31
4,68,0,17
4,68,100,28
4,68,0,46
4,66,101,1
4,66,0,266
4,61,90,31
4,61,0,21
4,66,96,25
4,66,0,20
4,68,93,21
4,68,0,22
4,70,110,29
4,70,0,67
4,70,112,28
4,70,0,22
4,70,109,26
4,70,0,75
4,68,90,25
4,68,0,17
4,68,108,31
4,66,100,46
4,68,0,0
4,66,0,142
4,70,100,93
4,71,110,50
4,70,0,8
4,71,0,15
4,73,97,25
4,73,0,22
4,75,108,25
4,75,0,22
4,73,108,27
4,73,0,75
4,71,103,22
4,71,0,23
4,71,100,29
4,71,0,68
4,70,99,28
4,70,0,19
4,70,100,29
4,70,0,180
4,68,99,9
4,68,0,17
4,68,103,26
4,68,0,102
4,66,92,3
4,66,0,76
4,70,108,63
4,70,0,75
4,70,99,24
4,70,0,20
4,70,104,24
4,70,0,84
4,68,101,17
4,68,0,20
4,68,108,28
4,68,0,30
4,66,97,16
4,66,0,261
4,64,93,5169
4,64,0,184
4,66,87,8
4,66,0,67
4,68,91,29
4,68,0,78
4,71,94,18
4,71,0,159
4,73,81,33
4,73,0,58
4,75,90,35
4,75,0,59
4,76,98,34
4,68,87,389
4,76,0,4
4,71,87,186
4,68,0,4
4,69,88,188
4,71,0,6
4,68,81,374
4,69,0,6
4,68,0,384
4,66,81,1
4,63,88,578
4,66,0,2
4,63,0,165
4,64,93,23
4,64,0,184
4,66,87,8
4,66,0,67
4,68,91,29
4,68,0,78
4,71,94,18
4,71,0,159
4,73,81,33
4,73,0,58
4,75,90,35
4,75,0,59
4,76,98,34
4,68,87,389
4,76,0,4
4,71,87,186
4,68,0,4
4,69,88,188
4,71,0,6
4,68,81,374
4,69,0,6
4,68,0,384
4,66,81,1
4,63,88,578
4,66,0,2
4,63,0,165
4,71,97,4387
4,71,0,21
4,71,100,27
4,69,100,47
4,71,0,6
4,68,97,39
4,69,0,4
4,64,108,43
4,68,0,3
4,64,0,780
4,68,81,21
4,69,90,54
4,68,0,12
4,71,90,42
4,69,0,1
4,64,84,50
4,71,0,4
4,64,0,548
5,68,101,6309
5,68,0,71
5,68,89,24
5,68,0,21
5,68,92,28
5,68,0,71
5,66,82,25
5,66,0,18
5,66,84,30
5,66,0,35
5,64,95,17
5,64,0,308
5,59,95,27
5,59,0,22
5,59,95,25
5,59,0,20
5,68,96,30
5,68,0,53
5,68,88,40
5,68,0,24
5,68,95,23
5,68,0,81
5,66,84,18
5,66,0,19
5,66,88,28
5,66,0,37
5,64,95,12
5,64,0,117
5,68,86,123
5,68,0,35
5,69,95,12
5,69,0,45
5,71,95,3
5,71,0,39
5,73,84,10
5,73,0,23
5,71,95,25
5,71,0,80
5,69,95,16
5,69,0,24
5,69,95,24
5,68,82,96
5,69,0,2
5,68,0,19
5,68,78,27
5,66,84,192
5,68,0,11
5,66,0,6
5,66,84,31
5,64,95,96
5,66,0,4
5,64,0,68
5,59,84,24
5,59,0,28
5,68,95,20
5,68,0,74
5,68,87,24
5,68,0,26
5,68,87,23
5,68,0,78
5,66,82,18
5,66,0,22
5,66,80,26
5,66,0,42
5,64,86,5
5,64,0,292
5,59,95,87
5,59,0,34
5,68,101,15
5,68,0,71
5,68,89,25
5,68,0,21
5,68,92,27
5,68,0,71
5,66,82,24
5,66,0,18
5,66,84,31
5,66,0,35
5,64,95,16
5,64,0,308
5,59,95,27
5,59,0,22
5,59,95,25
5,59,0,20
5,68,96,30
5,68,0,53
5,68,88,40
5,68,0,24
5,68,95,23
5,68,0,81
5,66,84,18
5,66,0,19
5,66,88,28
5,66,0,37
5,64,95,12
5,64,0,117
5,68,86,123
5,68,0,35
5,69,95,12
5,69,0,45
5,71,95,3
5,71,0,39
5,73,84,10
5,73,0,23
5,71,95,25
5,71,0,80
5,69,95,16
5,69,0,24
5,69,95,24
5,68,82,96
5,69,0,2
5,68,0,19
5,68,78,27
5,66,84,192
5,68,0,11
5,66,0,6
5,66,84,31
5,66,0,100
5,59,86,44
5,59,0,22
5,59,93,26
5,59,0,28
5,68,95,20
5,68,0,74
5,68,87,24
5,68,0,26
5,68,87,23
5,68,0,78
5,66,82,18
5,66,0,22
5,66,80,26
5,66,0,42
5,64,86,5
5,64,0,230
5,64,95,155
5,64,0,23
5,76,95,21
5,76,0,84
5,76,95,14
5,76,0,28
5,76,95,20
5,76,0,73
5,76,95,19
5,76,0,37
5,75,84,13
5,75,0,178
5,73,86,13
5,73,0,20
5,73,93,27
5,73,0,39
5,71,95,10
5,71,0,85
5,71,95,14
5,71,0,21
5,71,95,25
5,71,0,27
5,76,95,21
5,76,0,75
5,76,95,20
5,76,0,30
5,75,86,18
5,75,0,75
5,75,82,21
5,75,0,31
5,73,84,17
5,73,0,134
5,73,81,10
5,73,0,94
5,64,95,196
5,64,0,26
5,73,86,24
5,73,0,73
5,73,82,20
5,73,0,28
5,73,82,20
5,73,0,82
5,73,82,17
5,73,0,38
5,71,95,9
5,71,0,190
5,69,95,1
5,69,0,44
5,68,86,6
5,68,0,130
5,69,95,11
5,71,95,48
5,69,0,14
5,76,95,82
5,71,0,9
5,76,0,298
5,75,84,30
5,73,82,385
5,75,0,11
5,64,95,37
5,73,0,0
5,64,0,26
5,76,95,19
5,76,0,29
5,76,95,19
5,76,0,24
5,76,95,22
5,76,0,72
5,76,96,24
5,76,0,23
5,75,80,25
5,75,0,144
5,73,86,2
5,73,0,20
5,73,93,27
5,73,0,39
5,71,95,10
5,71,0,114
5,71,95,31
5,71,0,27
5,76,95,21
5,76,0,75
5,76,95,20
5,76,0,30
5,75,86,18
5,75,0,75
5,75,82,21
5,75,0,31
5,73,84,17
5,73,0,130
5,73,81,14
5,73,0,98
5,69,106,239
5,69,0,20
5,69,95,27
5,69,0,21
5,69,95,27
5,71,99,48
5,69,0,6
5,71,0,35
5,69,105,6
5,69,0,22
5,68,95,26
5,68,0,22
5,68,94,27
5,66,84,193
5,68,0,9
5,66,0,392
5,68,92,85
5,68,0,46
5,73,95,4
5,73,0,112
5,73,95,28
5,73,0,384
5,71,95,1
5,71,0,338
5,73,98,40
5,73,0,94
5,71,101,2
5,71,0,29
5,71,101,20
5,71,0,90
5,69,102,6
5,69,0,28
5,69,101,21
5,69,0,42
5,68,90,7
5,68,0,167
5,68,92,71
5,68,0,38
5,71,101,10
5,71,0,114
5,75,95,29
5,73,96,383
5,75,0,0
5,73,0,227
5,66,96,63
5,66,0,36
5,68,101,12
5,68,0,22
5,69,111,29
5,69,0,80
5,71,108,14
5,71,0,16
5,73,108,31
5,75,105,98
5,73,0,8
5,75,0,10
5,76,107,29
5,78,112,49
5,76,0,5
5,78,0,160
5,68,98,79
5,68,0,46
5,73,101,4
5,73,0,112
5,73,101,28
5,73,0,237
5,75,92,2
5,75,0,134
5,71,101,6
5,71,0,238
5,73,98,146
5,73,0,94
5,71,101,2
5,71,0,29
5,71,101,20
5,71,0,90
5,69,102,6
5,69,0,28
5,69,101,21
5,69,0,42
5,68,90,7
5,68,0,167
5,68,92,71
5,68,0,38
5,71,101,10
5,71,0,114
5,75,95,29
5,75,0,238
5,76,101,4
5,76,0,138
5,73,101,3
5,73,0,227
5,66,90,63
5,66,0,36
5,68,95,12
5,68,0,22
5,69,105,29
5,69,0,80
5,71,102,14
5,71,0,16
5,73,102,31
5,75,99,98
5,73,0,8
5,75,0,10
5,76,101,29
5,78,106,49
5,76,0,5
5,78,0,289
5,66,95,6236
5,66,0,23
5,78,95,21
5,78,0,84
5,78,95,14
5,78,0,28
5,78,95,20
5,78,0,73
5,78,95,19
5,78,0,37
5,77,84,13
5,77,0,178
5,75,86,13
5,75,0,20
5,75,93,27
5,75,0,39
5,73,95,10
5,73,0,85
5,73,95,14
5,73,0,21
5,73,95,25
5,73,0,27
5,78,95,21
5,78,0,75
5,78,95,20
5,78,0,30
5,77,86,18
5,77,0,75
5,77,82,21
5,77,0,31
5,75,84,17
5,75,0,134
5,75,81,10
5,75,0,70
5,66,95,220
5,66,0,26
5,75,86,24
5,75,0,73
5,75,82,20
5,75,0,28
5,75,82,20
5,75,0,82
5,75,82,17
5,75,0,38
5,73,95,9
5,73,0,190
5,71,95,1
5,71,0,44
5,70,86,6
5,70,0,130
5,71,95,11
5,73,95,48
5,71,0,14
5,78,95,82
5,73,0,9
5,78,0,298
5,77,84,30
5,75,82,385
5,77,0,11
5,66,95,37
5,75,0,0
5,66,0,26
5,78,95,19
5,78,0,29
5,78,95,19
5,78,0,24
5,78,95,22
5,78,0,72
5,78,96,24
5,78,0,23
5,77,80,25
5,77,0,144
5,75,86,2
5,75,0,20
5,75,93,27
