track,note,velocity,time
0,41,92,8
0,41,58,0
0,55,52,0
0,60,60,0
0,52,51,0
0,48,55,0
0,57,65,0
0,62,43,0
0,48,80,304
0,82,49,36
0,63,92,37
0,32,41,28
0,64,57,0
0,75,58,72
0,75,70,41
0,32,74,84
0,32,75,39
0,32,75,28
0,32,72,36
0,64,64,37
0,64,94,39
0,63,90,138
0,75,40,181
0,75,55,37
0,48,72,40
0,48,75,86
0,82,71,38
0,48,84,0
0,32,52,36
0,32,72,38
0,64,58,39
0,64,95,42
0,29,81,32
0,41,78,1
0,48,80,3
0,60,93,0
0,69,93,0
0,64,93,0
0,57,93,0
0,60,44,0
0,69,57,1
0,76,62,0
0,81,60,1
0,72,58,0
0,82,49,37
0,63,92,37
0,32,41,40
0,64,57,0
0,64,52,38
0,75,58,17
0,64,46,0
0,75,70,28
0,32,74,36
0,32,75,8
0,32,75,40
0,32,72,4
0,64,64,4
0,67,93,0
0,71,93,0
0,79,60,0
0,83,58,1
0,64,94,28
0,63,90,64
0,75,40,104
0,75,55,40
0,48,72,36
0,48,75,87
0,74,87,0
0,86,50,0
0,82,71,37
0,48,84,0
0,32,52,35
0,32,72,36
0,64,58,38
0,64,95,1
0,62,125,6
0,36,105,1
0,35,125,0
0,49,79,0
0,64,127,0
0,60,93,0
0,64,93,0
0,36,93,0
0,55,93,0
0,64,72,2
0,60,71,2
0,67,77,0
0,51,45,25
0,51,59,8
0,42,105,0
0,63,92,0
0,51,45,35
0,64,57,0
0,53,69,34
0,51,59,0
0,42,105,0
0,40,111,0
0,51,45,33
0,36,91,29
0,35,105,0
0,51,59,0
0,42,84,0
0,75,58,0
0,51,45,26
0,75,70,0
0,36,103,13
0,35,125,0
0,51,59,0
0,53,65,0
0,42,108,0
0,62,127,0
0,51,45,30
0,51,59,36
0,42,78,0
0,51,45,34
0,65,114,32
0,53,77,4
0,51,59,0
0,42,111,0
0,40,111,0
0,67,125,1
0,51,45,29
0,51,59,38
0,42,62,0
0,64,64,0
0,51,45,2
0,64,94,0
0,60,127,1
0,33,104,1
0,51,51,0
0,53,58,0
0,35,125,0
0,64,103,0
0,60,108,0
0,33,88,0
0,51,25,33
0,51,59,38
0,42,105,0
0,63,92,0
0,51,45,33
0,64,57,0
0,53,69,34
0,51,59,0
0,42,105,0
0,40,111,0
0,51,45,8
0,33,100,40
0,35,105,0
0,51,59,0
0,42,84,0
0,75,58,0
0,51,45,21
0,75,70,0
0,33,101,1
0,35,125,0
0,51,59,0
0,53,65,0
0,42,108,0
0,59,127,0
0,51,45,30
0,51,59,37
0,42,78,0
0,51,45,35
0,53,77,38
0,51,59,0
0,42,111,0
0,40,111,0
0,64,127,0
0,51,45,4
0,51,59,36
0,42,62,0
0,64,64,0
0,51,45,35
0,64,94,0
0,29,97,4
0,51,51,0
0,53,58,0
0,35,125,0
0,57,127,0
0,60,100,1
0,64,97,0
0,41,89,0
0,69,94,1
0,69,78,1
0,51,25,24
0,51,59,41
0,42,105,0
0,63,92,0
0,51,45,12
0,64,57,0
0,53,69,36
0,51,59,0
0,42,105,0
0,40,111,0
0,51,45,29
0,29,100,4
0,35,105,0
0,51,59,0
0,42,84,0
0,75,58,0
0,51,45,18
0,75,70,0
0,29,94,34
0,35,125,0
0,51,59,0
0,53,65,0
0,42,108,0
0,51,45,28
0,51,59,40
0,42,78,0
0,51,45,38
0,53,77,40
0,51,59,0
0,42,111,0
0,40,111,0
0,51,45,33
0,59,123,9
0,51,59,32
0,42,62,0
0,64,64,0
0,60,119,2
0,51,45,16
0,64,94,0
0,28,93,8
0,51,51,0
0,59,127,0
0,53,58,1
0,35,125,0
0,64,95,0
0,59,83,0
0,62,98,1
0,69,97,0
0,40,83,0
0,62,75,0
0,51,25,30
0,51,59,36
0,42,105,0
0,63,92,0
0,51,45,33
0,64,57,0
0,53,69,37
0,51,59,0
0,42,105,0
0,40,111,0
0,51,45,32
0,28,94,37
0,35,105,0
0,51,59,0
0,42,84,0
0,75,58,0
0,51,45,18
0,75,70,0
0,28,97,10
0,35,125,0
0,51,59,0
0,53,65,0
0,42,108,0
0,68,88,1
0,68,68,1
0,51,45,29
0,51,59,37
0,42,78,0
0,51,45,35
0,53,77,37
0,51,59,0
0,42,111,0
0,40,111,0
0,51,45,29
0,51,59,16
0,42,62,0
0,64,64,0
0,55,127,10
0,35,112,10
0,51,45,0
0,64,94,0
0,57,101,6
0,59,109,4
0,60,110,4
0,62,111,6
0,62,123,1
0,36,102,3
0,35,125,0
0,49,79,0
0,64,92,1
0,60,101,0
0,36,93,0
0,64,127,1
0,55,97,0
0,76,48,0
0,72,48,0
0,79,51,0
0,76,99,0
0,64,77,1
0,60,76,0
0,67,85,0
0,51,45,35
0,51,59,36
0,42,105,0
0,63,92,0
0,51,45,32
0,64,57,0
0,53,69,36
0,51,59,0
0,42,105,0
0,40,111,0
0,51,45,30
0,36,93,36
0,35,105,0
0,51,59,0
0,42,84,0
0,75,58,0
0,51,45,18
0,75,70,0
0,36,87,10
0,35,125,0
0,51,59,0
0,53,65,0
0,42,108,0
0,62,127,0
0,74,99,0
0,51,45,28
0,51,59,42
0,42,78,0
0,51,45,34
0,53,77,7
0,51,59,0
0,42,111,0
0,40,111,0
0,67,127,0
0,79,99,0
0,51,45,33
0,51,59,40
0,42,62,0
0,64,64,0
0,51,45,30
0,64,94,0
0,59,92,0
0,71,64,0
0,33,99,6
0,51,51,0
0,53,58,0
0,35,125,0
0,60,127,0
0,72,99,0
0,60,100,1
0,64,94,0
0,55,87,0
0,33,91,1
0,51,25,30
0,51,59,37
0,42,105,0
0,63,92,0
0,51,45,34
0,64,57,0
0,53,69,39
0,51,59,0
0,42,105,0
0,40,111,0
0,51,45,31
0,33,96,34
0,35,105,0
0,51,59,0
0,42,84,0
0,75,58,0
0,51,45,14
0,75,70,0
0,33,93,2
0,35,125,0
0,51,59,0
0,53,65,0
0,42,108,0
0,83,48,0
0,59,127,2
0,71,99,0
0,51,45,30
0,51,59,36
0,42,78,0
0,51,45,34
0,62,109,6
0,74,81,0
0,53,77,2
0,51,59,0
0,42,111,0
0,40,111,0
0,88,50,0
0,64,127,2
0,76,99,0
0,51,45,26
0,51,59,37
0,42,62,0
0,64,64,0
0,51,45,1
0,64,94,0
0,81,50,2
0,29,92,1
0,51,51,0
0,53,58,0
0,35,125,0
0,57,127,0
0,60,94,0
0,69,99,0
0,64,89,1
0,41,88,0
0,69,89,0
0,76,45,0
0,57,85,1
0,51,25,32
0,51,59,39
0,42,105,0
0,63,92,0
0,51,45,35
0,64,57,0
0,53,69,35
0,51,59,0
0,42,105,0
0,40,111,0
0,51,45,28
0,29,87,32
0,35,105,0
0,51,59,0
0,42,84,0
0,75,58,0
0,51,45,2
0,75,70,0
0,29,90,39
0,35,125,0
0,51,59,0
0,53,65,0
0,42,108,0
0,51,45,32
0,51,59,28
0,42,78,0
0,83,40,0
0,59,111,4
0,71,83,0
0,51,45,37
0,60,113,2
0,72,85,0
0,53,77,1
0,51,59,0
0,42,111,0
0,40,111,0
0,81,31,1
0,51,45,12
0,62,114,0
0,74,86,0
0,51,59,38
0,42,62,0
0,64,64,0
0,51,45,4
0,64,94,0
0,57,110,10
0,69,82,0
0,59,116,1
0,71,88,0
0,62,71,4
0,59,76,1
0,28,91,1
0,51,51,0
0,53,58,0
0,35,125,0
0,59,84,1
0,64,93,0
0,62,94,0
0,40,85,1
0,69,93,0
0,74,48,0
0,83,39,0
0,57,98,3
0,59,110,21
0,51,25,8
0,51,59,0
0,42,105,0
0,63,92,0
0,51,45,0
0,64,57,0
0,76,40,3
0,53,69,0
0,51,59,0
0,42,105,0
0,40,111,0
0,51,45,0
0,35,105,36
0,51,59,0
0,42,84,0
0,75,58,0
0,51,45,31
0,75,70,0
0,49,79,12
0,35,125,0
0,51,59,0
0,53,65,0
0,42,108,0
0,68,85,0
0,56,61,5
0,70,49,27
0,70,49,40
0,70,49,2
0,42,108,37
0,47,111,0
0,70,49,0
0,70,49,14
0,64,22,30
0,46,84,0
0,70,49,0
0,98,75,32
0,48,80,24
0,55,80,1
0,36,88,4
0,44,79,0
0,70,49,0
0,35,105,0
0,64,73,0
0,60,78,0
0,36,79,1
0,67,84,0
0,60,83,1
0,36,59,0
0,60,69,2
0,55,62,2
0,64,56,2
0,64,80,5
0,70,49,27
0,63,92,40
0,44,79,0
0,70,49,0
0,64,57,32
0,70,49,0
0,37,103,36
0,44,79,0
0,70,49,2
0,70,49,0
0,67,101,37
0,75,58,0
0,42,79,0
0,70,49,1
0,69,104,13
0,75,70,3
0,70,49,0
0,44,79,0
0,70,49,0
0,71,104,4
0,70,49,0
0,72,85,19
0,44,79,0
0,70,49,0
0,71,74,17
0,70,49,6
0,71,70,0
0,37,103,0
0,44,79,0
0,70,49,0
0,70,49,33
0,36,82,6
0,35,95,0
0,64,64,0
0,42,79,0
0,70,49,0
0,64,94,0
0,70,49,0
0,33,89,33
0,55,73,0
0,44,79,0
0,70,49,0
0,35,105,0
0,64,82,1
0,45,83,1
0,60,78,0
0,33,50,1
0,70,49,28
0,63,92,7
0,44,79,0
0,70,49,0
0,64,57,34
0,70,49,0
0,37,103,34
0,44,79,0
0,70,49,2
0,70,49,0
0,67,90,29
0,75,58,0
0,42,78,0
0,70,49,0
0,69,97,13
0,75,70,3
0,70,49,0
0,44,79,0
0,70,49,0
0,71,104,2
0,70,49,0
0,72,79,20
0,44,79,0
0,70,49,0
0,74,79,7
0,70,49,0
0,71,76,10
0,37,103,16
0,44,79,0
0,70,49,0
0,70,49,32
0,35,95,40
0,64,64,0
0,42,79,0
0,70,49,0
0,64,94,33
0,70,49,0
0,57,78,27
0,29,86,0
0,44,79,0
0,70,49,0
0,35,105,0
0,29,71,0
0,60,83,1
0,41,78,0
0,64,88,2
0,69,70,0
0,70,49,34
0,63,92,0
0,44,79,0
0,70,49,0
0,69,76,2
0,64,57,0
0,70,49,0
0,69,83,1
0,37,103,0
0,44,79,0
0,70,49,0
0,69,104,4
0,67,88,0
0,70,49,0
0,67,94,23
0,75,58,1
0,42,79,0
0,70,49,0
0,75,70,0
0,70,49,0
0,67,104,2
0,44,79,0
0,70,49,0
0,65,75,7
0,70,49,2
0,65,92,0
0,44,79,0
0,70,49,0
0,70,49,0
0,65,104,7
0,37,103,0
0,44,79,0
0,70,49,0
0,64,72,0
0,70,49,0
0,62,73,35
0,35,95,3
0,64,64,0
0,42,79,0
0,70,49,0
0,64,94,0
0,70,49,0
0,64,75,4
0,59,76,24
0,28,83,2
0,44,79,0
0,70,49,0
0,35,105,0
0,62,69,2
0,40,59,0
0,62,78,1
0,40,76,0
0,59,59,2
0,64,74,3
0,70,49,34
0,63,92,40
0,44,79,0
0,70,49,0
0,64,57,32
0,70,49,0
0,37,103,36
0,44,79,0
0,70,49,0
0,70,49,34
0,75,58,8
0,42,79,0
0,70,49,0
0,75,70,8
0,70,49,0
0,44,79,4
0,70,49,0
0,68,69,3
0,70,49,12
0,44,79,0
0,70,49,0
0,70,49,38
0,37,103,40
0,44,79,0
0,70,49,0
0,70,49,32
0,35,95,39
0,64,64,0
0,42,79,0
0,70,49,0
0,64,94,22
0,70,49,0
0,64,76,14
0,60,85,12
0,36,70,4
0,44,79,0
0,70,49,0
0,35,105,0
0,55,72,1
0,67,65,3
0,36,67,0
0,48,89,1
0,60,63,0
0,70,49,34
0,63,92,41
0,44,79,0
0,70,49,0
0,64,57,32
0,70,49,0
0,37,103,38
0,44,79,0
0,70,49,0
0,70,49,34
0,75,58,0
0,42,79,0
0,70,49,0
0,67,99,2
0,75,70,0
0,70,49,0
0,69,99,1
0,44,79,0
0,70,49,0
0,71,104,10
0,70,49,0
0,72,86,17
0,44,79,0
0,70,49,0
0,71,88,13
0,70,49,0
0,71,94,20
0,37,103,3
0,44,79,0
0,70,49,0
0,70,49,0
0,74,65,3
0,35,95,20
0,64,64,0
0,42,79,0
0,70,49,0
0,64,94,32
0,70,49,0
0,64,72,3
0,60,85,8
0,33,92,3
0,44,79,0
0,70,49,0
0,35,105,0
0,33,70,0
0,64,64,1
0,55,74,1
0,60,68,2
0,45,91,4
0,70,49,33
0,63,92,40
0,44,79,0
0,70,49,0
0,64,57,37
0,70,49,0
0,37,103,36
0,44,79,0
0,70,49,0
0,70,49,0
0,67,76,30
0,75,58,0
0,42,79,0
0,70,49,0
0,69,107,10
0,75,70,8
0,70,49,0
0,44,79,0
0,70,49,0
0,71,110,7
0,70,49,0
0,72,82,10
0,44,79,0
0,70,49,0
0,74,83,13
0,70,49,0
0,71,70,11
0,37,103,20
0,44,79,0
0,70,49,0
0,70,49,36
0,33,86,38
0,35,95,0
0,64,64,0
0,42,79,0
0,70,49,0
0,64,94,12
0,70,49,0
0,57,70,23
0,29,65,10
0,69,68,1
0,29,80,1
0,41,76,0
0,44,79,0
0,70,49,0
0,35,105,0
0,60,80,2
0,64,70,5
0,70,49,0
0,69,64,31
0,63,92,0
0,44,79,0
0,70,49,0
0,69,97,27
0,64,57,0
0,70,49,0
0,69,120,22
0,37,103,0
0,44,79,0
0,70,49,0
0,67,78,11
0,70,49,0
0,67,76,20
0,75,58,3
0,42,79,0
0,70,49,0
0,67,92,0
0,75,70,0
0,70,49,0
0,44,79,0
0,70,49,0
0,41,63,4
0,65,75,7
0,70,49,0
0,65,94,17
0,44,79,2
0,70,49,0
0,70,49,0
0,65,101,4
0,37,103,38
0,44,79,0
0,70,49,0
0,70,49,0
0,64,75,0
0,35,95,0
0,64,64,0
0,42,79,0
0,70,49,0
0,62,94,9
0,64,94,23
0,70,49,0
0,59,63,10
0,28,85,0
0,44,79,0
0,70,49,0
0,35,105,0
0,62,66,0
0,40,75,1
0,62,81,0
0,64,86,0
0,40,52,0
0,59,56,0
0,64,79,10
0,70,49,32
0,63,92,39
0,44,79,0
0,70,49,4
0,64,57,36
0,70,49,0
0,37,103,36
0,44,79,0
0,70,49,0
0,70,49,34
0,75,58,40
0,42,79,0
0,70,49,0
0,75,70,31
0,70,49,0
0,44,79,6
0,70,49,0
0,68,66,8
0,70,49,36
0,44,79,37
0,70,49,0
0,70,49,36
0,37,103,37
0,44,79,0
0,70,49,0
0,70,49,36
0,35,95,38
0,64,64,0
0,42,79,0
0,70,49,0
0,64,94,1
0,70,49,0
0,41,81,10
0,48,93,2
0,52,70,5
0,69,76,6
0,64,67,3
0,60,61,0
0,41,72,0
0,29,89,1
0,49,66,0
0,44,79,0
0,70,49,0
0,57,88,1
0,35,115,0
0,60,82,5
0,64,81,3
0,70,49,0
0,69,101,32
0,63,92,0
0,44,79,0
0,70,49,0
0,69,94,14
0,64,57,3
0,70,49,0
0,44,79,35
0,70,49,0
0,70,49,0
0,76,92,5
0,29,84,40
0,35,97,0
0,75,58,0
0,42,79,0
0,70,49,0
0,75,70,4
0,70,49,0
0,43,80,6
0,55,67,6
0,62,67,3
0,31,91,0
0,35,119,0
0,59,67,0
0,43,69,0
0,67,78,0
0,44,79,1
0,70,49,0
0,59,88,1
0,62,84,1
0,67,65,0
0,70,49,33
0,44,79,40
0,70,49,0
0,70,49,34
0,40,111,40
0,44,79,0
0,70,49,0
0,70,49,0
0,67,107,31
0,64,64,9
0,42,79,0
0,70,49,0
0,64,94,0
0,70,49,0
0,48,95,5
0,79,94,1
0,55,74,2
0,36,84,6
0,60,85,0
0,44,79,0
0,64,74,0
0,60,63,0
0,48,65,0
0,70,49,1
0,35,115,0
0,64,70,3
0,70,49,32
0,63,92,40
0,44,79,0
0,70,49,0
0,64,57,0
0,70,49,0
0,75,100,15
0,76,107,0
0,75,62,1
0,44,79,0
0,70,49,0
0,70,49,0
0,74,101,19
0,36,85,11
0,35,97,0
0,75,58,0
0,42,79,0
0,70,49,0
0,75,70,5
0,70,49,0
0,45,89,5
0,57,70,1
0,33,89,6
0,60,65,0
0,35,119,0
0,44,79,0
0,70,49,0
0,69,71,0
0,45,65,0
0,64,68,4
