track,note,velocity,time
1,36,105,27
1,36,0,502
1,31,87,74
1,31,0,138
1,29,91,54
1,29,0,515
1,31,87,61
1,31,0,160
1,36,91,32
1,36,0,483
1,31,96,93
1,31,0,120
1,38,100,72
1,38,0,721
1,36,96,47
1,36,0,494
1,31,83,82
1,31,0,141
1,29,100,51
1,29,0,484
1,31,91,92
1,31,0,173
1,36,75,19
1,36,0,525
1,31,87,51
1,31,0,148
1,38,96,44
1,38,0,737
1,31,115,31
1,31,0,719
1,31,110,49
1,31,0,741
1,36,96,27
1,36,0,494
1,31,83,82
1,31,0,141
1,29,100,51
1,29,0,484
1,31,91,92
1,31,0,173
1,36,75,19
1,36,0,525
1,31,87,51
1,31,0,148
1,38,96,44
1,38,0,737
1,36,96,31
1,36,0,494
1,31,83,82
1,31,0,141
1,29,100,51
1,29,0,484
1,31,91,92
1,31,0,173
1,36,75,19
1,36,0,525
1,31,87,51
1,31,0,148
1,38,96,44
1,38,0,737
1,31,115,31
1,31,0,719
1,31,110,49
1,31,0,741
1,36,96,27
1,36,0,494
1,31,83,82
1,31,0,141
1,29,100,51
1,29,0,484
1,31,91,92
1,31,0,173
1,36,96,19
1,36,0,494
1,31,83,82
1,31,0,141
1,29,100,51
1,29,0,484
1,31,91,92
1,31,0,173
1,36,95,19
1,36,0,525
1,31,105,51
1,31,0,177
1,29,105,15
1,29,0,725
1,38,100,43
1,38,0,731
1,31,100,37
1,31,0,703
1,31,100,65
1,36,96,768
1,31,0,3
1,36,0,491
1,31,83,82
1,31,0,141
1,29,100,51
1,29,0,484
1,31,91,92
1,31,0,173
1,36,75,19
1,36,0,525
1,31,87,51
1,31,0,148
1,38,96,44
1,38,0,737
1,36,96,31
1,36,0,494
1,31,83,82
1,31,0,141
1,29,100,51
1,29,0,484
1,31,91,92
1,31,0,173
1,36,75,19
1,36,0,525
1,31,87,51
1,31,0,148
1,38,96,44
1,38,0,737
1,31,115,31
1,31,0,719
1,31,110,49
1,31,0,741
1,36,96,27
1,36,0,494
1,31,83,82
1,31,0,141
1,29,100,51
1,29,0,484
1,31,91,92
1,31,0,173
1,36,96,19
1,36,0,494
1,31,83,82
1,31,0,141
1,29,100,51
1,29,0,484
1,31,91,92
1,31,0,173
1,36,95,19
1,36,0,525
1,31,105,51
1,31,0,177
1,29,105,15
1,29,0,725
1,38,100,43
1,38,0,731
1,31,100,37
1,31,0,703
1,31,100,65
1,36,96,768
1,31,0,3
1,36,0,491
1,31,83,82
1,31,0,141
1,29,100,51
1,29,0,484
1,31,91,92
1,31,0,173
1,36,75,19
1,36,0,525
1,31,87,51
1,31,0,148
1,38,96,44
1,38,0,737
1,36,96,31
1,36,0,494
1,31,83,82
1,31,0,141
1,29,100,51
1,29,0,484
1,31,91,92
1,31,0,173
1,36,75,19
1,36,0,525
1,31,87,51
1,31,0,148
1,38,96,44
1,38,0,737
1,31,115,31
1,31,0,719
1,31,110,49
1,31,0,741
1,36,96,27
1,36,0,494
1,31,83,82
1,31,0,141
1,29,100,51
1,29,0,484
1,31,91,92
1,31,0,173
1,36,96,19
1,36,0,494
1,31,83,82
1,31,0,141
1,29,100,51
1,29,0,484
1,31,91,92
1,31,0,173
1,36,95,19
1,36,0,525
1,31,105,51
1,31,0,177
1,29,105,15
1,29,0,725
1,38,100,43
1,38,0,731
1,31,100,37
1,31,0,703
1,31,100,65
1,36,96,768
1,31,0,3
1,36,0,491
1,31,83,82
1,31,0,141
1,29,100,51
1,29,0,484
1,31,91,92
1,31,0,173
1,36,75,19
1,36,0,525
1,31,87,51
1,31,0,148
1,38,96,44
1,38,0,737
1,36,96,31
1,36,0,494
1,31,83,82
1,31,0,141
1,29,100,51
1,29,0,484
1,31,91,92
1,31,0,173
1,36,75,19
1,36,0,525
1,31,87,51
1,31,0,148
1,38,96,44
1,38,0,737
1,31,115,31
1,31,0,719
1,31,110,49
1,31,0,741
1,36,96,27
1,36,0,494
1,31,83,82
1,31,0,141
1,29,100,51
1,29,0,484
1,31,91,92
1,31,0,173
1,36,96,19
1,36,0,494
1,31,83,82
1,31,0,141
1,29,100,51
1,29,0,484
1,31,91,92
1,31,0,173
1,36,95,19
1,36,0,525
1,31,105,51
1,31,0,177
1,29,105,15
1,29,0,725
1,38,100,43
1,38,0,731
1,31,100,37
1,31,0,703
1,31,100,65
1,36,96,768
1,31,0,3
1,36,0,491
1,31,83,82
1,31,0,141
1,29,100,51
1,29,0,484
1,31,91,92
1,31,0,173
1,36,75,19
1,36,0,525
1,31,87,51
1,31,0,148
1,38,96,44
1,38,0,737
1,36,96,31
1,36,0,494
1,31,83,82
1,31,0,141
1,29,100,51
1,29,0,484
1,31,91,92
1,31,0,173
1,36,75,19
1,36,0,525
1,31,87,51
1,31,0,148
1,38,96,44
1,38,0,737
1,31,115,31
1,31,0,719
1,31,110,49
1,31,0,741
1,36,96,27
1,36,0,494
1,31,83,82
1,31,0,141
1,29,100,51
1,29,0,484
1,31,91,92
1,31,0,173
1,36,96,19
1,36,0,494
1,31,83,82
1,31,0,141
1,29,100,51
1,29,0,484
1,31,91,92
1,31,0,173
1,36,95,19
1,36,0,525
1,31,105,51
1,31,0,177
1,29,105,15
1,29,0,725
1,38,100,43
1,38,0,731
1,31,100,37
1,31,0,703
1,31,100,65
1,36,96,768
1,31,0,3
1,36,0,491
1,31,83,82
1,31,0,141
1,29,100,51
1,29,0,484
1,31,91,92
1,31,0,173
1,36,96,19
1,36,0,494
1,31,83,82
1,31,0,141
1,29,100,51
1,29,0,484
1,31,91,92
1,31,0,173
1,36,96,19
1,36,0,494
1,31,83,82
1,31,0,141
1,29,100,51
1,29,0,484
1,31,91,92
1,31,0,173
1,36,96,19
1,36,0,494
1,31,83,82
1,31,0,141
1,29,100,51
1,29,0,484
1,31,91,92
1,31,0,173
1,36,96,19
1,36,0,494
1,31,83,82
1,31,0,141
1,29,100,51
1,29,0,484
1,31,91,92
1,31,0,173
1,36,96,19
1,36,0,494
1,31,83,82
1,31,0,141
1,29,100,51
1,29,0,484
1,31,91,92
1,31,0,173
1,36,96,19
1,36,0,494
1,31,83,82
1,31,0,141
1,29,100,51
1,29,0,484
1,31,91,92
1,31,0,173
1,36,96,19
1,36,0,494
1,31,83,82
1,31,0,141
1,29,100,51
1,29,0,484
1,31,91,92
1,31,0,173
1,36,96,19
1,36,0,494
1,31,83,82
1,31,0,141
1,29,100,51
1,29,0,484
1,31,91,92
1,31,0,173
1,36,96,19
1,36,0,494
1,31,83,82
1,31,0,141
1,29,100,51
1,29,0,484
1,31,91,92
1,31,0,173
1,36,96,19
1,36,0,494
1,31,83,82
1,31,0,141
1,29,100,51
1,29,0,484
1,31,91,92
1,31,0,173
1,36,96,19
1,36,0,494
1,31,83,82
1,31,0,141
1,29,100,51
1,29,0,484
1,31,91,92
1,31,0,173
1,36,96,19
1,36,0,494
1,31,83,82
1,31,0,141
1,29,100,51
1,29,0,484
1,31,91,92
1,31,0,173
1,36,96,19
1,36,0,768
2,48,94,3084
2,55,94,0
2,60,94,0
2,60,0,540
2,55,0,8
2,48,0,19
2,43,93,9
2,50,93,0
2,55,93,0
2,50,0,166
2,41,93,26
2,43,0,0
2,48,93,0
2,53,93,0
2,55,0,5
2,41,0,563
2,48,0,6
2,43,92,2
2,50,92,0
2,55,92,0
2,53,0,12
2,50,0,163
2,55,0,0
2,48,92,17
2,55,92,0
2,60,92,0
2,43,0,2
2,60,0,521
2,55,0,22
2,48,0,5
2,43,91,26
2,50,91,0
2,55,91,0
2,55,0,177
2,50,0,5
2,43,0,1
2,50,91,9
2,57,91,0
2,62,91,0
2,57,0,751
2,62,0,0
2,50,0,2
2,43,90,15
2,50,90,0
2,55,90,0
2,55,0,717
2,43,0,13
2,50,0,23
2,43,89,15
2,50,96,0
2,55,89,0
2,43,0,745
2,50,0,0
2,55,0,5
2,48,94,18
2,55,94,0
2,60,94,0
2,60,0,540
2,55,0,8
2,48,0,19
2,43,93,9
2,50,93,0
2,55,93,0
2,50,0,166
2,41,93,26
2,43,0,0
2,48,93,0
2,53,93,0
2,55,0,5
2,41,0,563
2,48,0,6
2,43,92,2
2,50,92,0
2,55,92,0
2,53,0,12
2,50,0,163
2,55,0,0
2,48,92,17
2,55,92,0
2,60,92,0
2,43,0,2
2,60,0,521
2,55,0,22
2,48,0,5
2,43,91,26
2,50,91,0
2,55,91,0
2,55,0,177
2,50,0,5
2,43,0,1
2,50,91,9
2,57,91,0
2,62,91,0
2,57,0,751
2,62,0,0
2,50,0,2
2,43,90,15
2,48,94,0
2,55,94,0
2,60,94,0
2,60,0,540
2,55,0,8
2,48,0,19
2,43,0,8
2,43,93,1
2,50,93,0
2,55,93,0
2,43,0,154
2,50,0,12
2,41,93,26
2,48,93,0
2,53,93,0
2,55,0,5
2,41,0,563
2,48,0,6
2,43,92,2
2,50,92,0
2,55,92,0
2,53,0,12
2,50,0,163
2,55,0,0
2,48,92,17
2,55,92,0
2,60,92,0
2,43,0,2
2,60,0,521
2,55,0,22
2,48,0,5
2,43,91,26
2,50,91,0
2,55,91,0
2,55,0,177
2,50,0,5
2,43,0,1
2,50,91,9
2,57,91,0
2,62,91,0
2,62,0,761
2,50,0,2
2,43,90,5
2,50,90,0
2,55,90,0
2,57,0,3
2,55,0,714
2,43,0,13
2,50,0,23
2,43,89,15
2,50,96,0
2,55,89,0
2,43,0,745
2,50,0,0
2,55,0,5
2,48,94,18
2,55,94,0
2,60,94,0
2,60,0,540
2,55,0,8
2,48,0,19
2,43,93,9
2,50,93,0
2,55,93,0
2,50,0,166
2,41,93,26
2,43,0,0
2,48,93,0
2,53,93,0
2,55,0,5
2,41,0,563
2,48,0,6
2,43,92,2
2,50,92,0
2,55,92,0
2,53,0,12
2,50,0,163
2,55,0,0
2,48,94,17
2,55,94,0
2,60,94,0
2,43,0,2
2,60,0,538
2,55,0,8
2,48,0,19
2,43,93,9
2,50,93,0
2,55,93,0
2,50,0,166
2,41,93,26
2,43,0,0
2,48,93,0
2,53,93,0
2,55,0,5
2,41,0,563
2,48,0,6
2,43,92,2
2,50,92,0
2,55,92,0
2,53,0,12
2,50,0,163
2,55,0,0
2,48,84,17
2,55,103,0
2,60,89,0
2,43,0,2
2,48,0,540
2,55,0,26
2,60,0,7
2,43,89,1
2,50,89,0
2,55,89,0
2,55,0,189
2,43,0,2
2,41,89,1
2,48,89,0
2,50,0,0
2,53,89,0
2,53,0,760
2,50,89,8
2,57,89,0
2,62,89,0
2,48,0,4
2,41,0,11
2,62,0,714
2,50,0,17
2,57,0,5
2,43,89,17
2,50,89,0
2,55,89,0
2,55,0,737
2,50,0,1
2,43,0,5
2,43,89,25
2,50,89,0
2,55,89,0
2,43,0,753
2,55,0,0
2,50,0,2
2,48,94,13
2,55,94,0
2,60,94,0
2,60,0,540
2,55,0,8
2,48,0,19
2,43,93,9
2,50,93,0
2,55,93,0
2,50,0,166
2,41,93,26
2,43,0,0
2,48,93,0
2,53,93,0
2,55,0,5
2,41,0,563
2,48,0,6
2,43,92,2
2,50,92,0
2,55,92,0
2,53,0,12
2,50,0,163
2,55,0,0
2,48,92,17
2,55,92,0
2,60,92,0
2,43,0,2
2,60,0,521
2,55,0,22
2,48,0,5
2,43,91,26
2,50,91,0
2,55,91,0
2,55,0,177
2,50,0,5
2,43,0,1
2,50,91,9
2,57,91,0
2,62,91,0
2,57,0,751
2,62,0,0
2,50,0,2
2,43,90,15
2,48,94,0
2,55,94,0
2,60,94,0
2,60,0,540
2,55,0,8
2,48,0,19
2,43,0,8
2,43,93,1
2,50,93,0
2,55,93,0
2,43,0,154
2,50,0,12
2,41,93,26
2,48,93,0
2,53,93,0
2,55,0,5
2,41,0,563
2,48,0,6
2,43,92,2
2,50,92,0
2,55,92,0
2,53,0,12
2,50,0,163
2,55,0,0
2,48,92,17
2,55,92,0
2,60,92,0
2,43,0,2
2,60,0,521
2,55,0,22
2,48,0,5
2,43,91,26
2,50,91,0
2,55,91,0
2,55,0,177
2,50,0,5
2,43,0,1
2,50,91,9
2,57,91,0
2,62,91,0
2,62,0,761
2,50,0,2
2,43,90,5
2,50,90,0
2,55,90,0
2,57,0,3
2,55,0,714
2,43,0,13
2,50,0,23
2,43,89,15
2,50,96,0
2,55,89,0
2,43,0,745
2,50,0,0
2,55,0,5
2,48,94,18
2,55,94,0
2,60,94,0
2,60,0,540
2,55,0,8
2,48,0,19
2,43,93,9
2,50,93,0
2,55,93,0
2,50,0,166
2,41,93,26
2,43,0,0
2,48,93,0
2,53,93,0
2,55,0,5
2,41,0,563
2,48,0,6
2,43,92,2
2,50,92,0
2,55,92,0
2,53,0,12
2,50,0,163
2,55,0,0
2,48,94,17
2,55,94,0
2,60,94,0
2,43,0,2
2,60,0,538
2,55,0,8
2,48,0,19
2,43,93,9
2,50,93,0
2,55,93,0
2,50,0,166
2,41,93,26
2,43,0,0
2,48,93,0
2,53,93,0
2,55,0,5
2,41,0,563
2,48,0,6
2,43,92,2
2,50,92,0
2,55,92,0
2,53,0,12
2,50,0,163
2,55,0,0
2,48,84,17
2,55,103,0
2,60,89,0
2,43,0,2
2,48,0,540
2,55,0,26
2,60,0,7
2,43,89,1
2,50,89,0
2,55,89,0
2,55,0,189
2,43,0,2
2,41,89,1
2,48,89,0
2,50,0,0
2,53,89,0
2,53,0,760
2,50,89,8
2,57,89,0
2,62,89,0
2,48,0,4
2,41,0,11
2,62,0,714
2,50,0,17
2,57,0,5
2,43,89,17
2,50,89,0
2,55,89,0
2,55,0,737
2,50,0,1
2,43,0,5
2,43,89,25
2,50,89,0
2,55,89,0
2,43,0,753
2,55,0,0
2,50,0,2
2,48,94,13
2,55,94,0
2,60,94,0
2,60,0,540
2,55,0,8
2,48,0,19
2,43,93,9
2,50,93,0
2,55,93,0
2,50,0,166
2,41,93,26
2,43,0,0
2,48,93,0
2,53,93,0
2,55,0,5
2,41,0,563
2,48,0,6
2,43,92,2
2,50,92,0
2,55,92,0
2,53,0,12
2,50,0,163
2,55,0,0
2,48,92,17
2,55,92,0
2,60,92,0
2,43,0,2
2,60,0,521
2,55,0,22
2,48,0,5
2,43,91,26
2,50,91,0
2,55,91,0
2,55,0,177
2,50,0,5
2,43,0,1
2,50,91,9
2,57,91,0
2,62,91,0
2,57,0,751
2,62,0,0
2,50,0,2
2,43,90,15
2,48,94,0
2,55,94,0
2,60,94,0
2,60,0,540
2,55,0,8
2,48,0,19
2,43,0,8
2,43,93,1
2,50,93,0
2,55,93,0
2,43,0,154
2,50,0,12
2,41,93,26
2,48,93,0
2,53,93,0
2,55,0,5
2,41,0,563
2,48,0,6
2,43,92,2
2,50,92,0
2,55,92,0
2,53,0,12
2,50,0,163
2,55,0,0
2,48,92,17
2,55,92,0
2,60,92,0
2,43,0,2
2,60,0,521
2,55,0,22
2,48,0,5
2,43,91,26
2,50,91,0
2,55,91,0
2,55,0,177
2,50,0,5
2,43,0,1
2,50,91,9
2,57,91,0
2,62,91,0
2,62,0,761
2,50,0,2
2,43,90,5
2,50,90,0
2,55,90,0
2,57,0,3
2,55,0,714
2,43,0,13
2,50,0,23
2,43,89,15
2,50,96,0
2,55,89,0
2,43,0,745
2,50,0,0
2,55,0,5
2,48,94,18
2,55,94,0
2,60,94,0
2,60,0,540
2,55,0,8
2,48,0,19
2,43,93,9
2,50,93,0
2,55,93,0
2,50,0,166
2,41,93,26
2,43,0,0
2,48,93,0
2,53,93,0
2,55,0,5
2,41,0,563
2,48,0,6
2,43,92,2
2,50,92,0
2,55,92,0
2,53,0,12
2,50,0,163
2,55,0,0
2,48,94,17
2,55,94,0
2,60,94,0
2,43,0,2
2,60,0,538
2,55,0,8
2,48,0,19
2,43,93,9
2,50,93,0
2,55,93,0
2,50,0,166
2,41,93,26
2,43,0,0
2,48,93,0
2,53,93,0
2,55,0,5
2,41,0,563
2,48,0,6
2,43,92,2
2,50,92,0
2,55,92,0
2,53,0,12
2,50,0,163
