track,note,velocity,time
1,40,74,36
1,64,84,5
1,68,77,0
1,59,72,128
1,64,72,153
1,68,60,3
1,59,76,148
1,64,64,142
1,69,68,3
1,59,74,139
1,64,63,153
1,69,65,2
1,40,75,139
1,59,74,9
1,35,75,31
1,64,85,6
1,68,82,0
1,59,68,128
1,64,63,153
1,68,64,3
1,59,74,148
1,64,60,142
1,69,72,3
1,59,75,139
1,64,70,153
1,69,70,2
1,40,67,142
1,59,79,6
1,71,57,32
1,71,60,0
1,35,65,8
1,71,65,4
1,64,83,1
1,68,82,0
1,71,60,2
1,71,67,2
1,71,67,2
1,71,62,2
1,71,58,2
1,71,62,2
1,71,58,2
1,71,65,2
1,71,63,2
1,71,59,2
1,59,65,15
1,71,58,2
1,71,65,2
1,71,61,2
1,71,63,2
1,71,60,2
1,71,66,2
1,71,65,2
1,71,65,2
1,71,65,2
1,71,68,2
1,71,59,2
1,71,68,2
1,71,68,2
1,64,64,2
1,68,60,3
1,71,64,2
1,71,65,2
1,71,64,2
1,71,63,2
1,71,63,2
1,71,61,2
1,71,64,2
1,71,69,2
1,71,66,2
1,71,63,2
1,71,62,2
1,71,67,2
1,59,74,7
1,71,64,2
1,71,62,2
1,71,64,2
1,71,61,2
1,71,68,2
1,71,60,2
1,71,67,2
1,71,64,2
1,71,65,2
1,71,60,2
1,71,64,2
1,71,63,2
1,64,60,3
1,69,63,3
1,71,65,2
1,71,64,2
1,71,65,2
1,71,69,2
1,71,68,2
1,71,63,2
1,71,68,2
1,71,64,2
1,71,64,2
1,71,65,2
1,71,64,2
1,59,76,1
1,71,68,1
1,71,67,2
1,71,64,2
1,71,58,2
1,71,57,2
1,71,65,2
1,71,59,2
1,71,57,2
1,71,56,2
1,71,54,2
1,71,50,2
1,71,48,2
1,73,46,2
1,73,66,0
1,64,64,6
1,69,69,2
1,73,71,2
1,73,70,2
1,73,65,2
1,73,68,2
1,73,72,2
1,73,70,2
1,73,64,2
1,73,72,2
1,73,68,2
1,73,70,2
1,73,69,2
1,73,67,2
1,40,71,3
1,59,75,0
1,73,70,2
1,73,71,2
1,73,70,2
1,73,72,2
1,73,63,2
1,73,62,2
1,73,58,2
1,73,50,2
1,73,54,2
1,73,43,2
1,73,45,0
1,71,37,2
1,71,80,0
1,71,77,2
1,64,86,1
1,68,82,0
1,35,47,6
1,71,82,2
1,71,77,2
1,71,78,2
1,71,83,2
1,71,84,2
1,71,74,2
1,71,80,2
1,71,79,2
1,71,79,2
1,71,81,2
1,59,70,15
1,71,77,2
1,71,80,2
1,71,77,2
1,71,77,2
1,71,48,2
1,71,46,2
1,69,52,2
1,69,74,0
1,69,68,2
1,69,68,2
1,69,72,2
1,69,72,2
1,69,63,2
1,68,46,2
1,68,66,0
1,64,71,2
1,68,66,3
1,68,65,2
1,68,71,2
1,68,72,2
1,68,69,2
1,68,66,2
1,68,72,2
1,68,70,2
1,68,70,2
1,68,71,2
1,68,70,2
1,68,79,2
1,68,73,2
1,59,72,7
1,68,74,2
1,68,79,2
1,68,80,2
1,68,77,2
1,68,78,2
1,68,85,2
1,68,81,2
1,68,83,2
1,68,83,2
1,68,81,2
1,68,86,2
1,68,86,2
1,64,59,3
1,69,63,3
1,68,93,2
1,68,90,2
1,68,88,2
1,68,85,2
1,68,89,2
1,68,82,2
1,68,82,2
1,68,77,2
1,68,83,2
1,68,74,2
1,68,78,2
1,59,76,1
1,68,74,1
1,68,72,2
1,68,75,2
1,68,67,2
1,68,65,2
1,68,70,2
1,68,71,2
1,68,62,2
1,68,63,2
1,68,66,2
1,68,63,2
1,68,61,2
1,68,61,2
1,64,71,6
1,69,68,2
1,68,62,2
1,68,53,2
1,68,59,2
1,68,51,2
1,68,55,2
1,68,54,2
1,68,51,2
1,68,51,2
1,68,55,2
1,68,45,2
1,68,44,2
1,68,40,2
1,59,77,0
1,68,40,2
1,68,42,2
1,68,38,2
1,68,34,2
1,68,43,2
1,68,41,2
1,68,35,2
1,68,32,2
1,68,38,2
1,68,50,4
1,68,29,2
1,68,31,2
1,68,29,2
1,37,73,0
1,68,24,2
1,64,88,1
1,68,82,0
1,68,28,2
1,68,29,2
1,68,27,2
1,68,20,2
1,68,18,2
1,68,21,2
1,68,16,2
1,68,15,2
1,68,18,2
1,68,14,2
1,68,15,2
1,61,65,0
1,68,12,2
1,68,9,2
1,68,16,2
1,68,10,2
1,68,8,2
1,68,8,2
1,68,8,2
1,68,8,2
1,68,8,2
1,68,47,4
1,68,8,2
1,68,8,2
1,64,73,4
1,68,61,1
1,73,84,141
1,61,68,0
1,73,84,12
1,75,82,2
1,75,73,2
1,75,72,2
1,75,74,2
1,76,72,2
1,64,56,3
1,69,63,3
1,76,73,2
1,76,75,2
1,76,78,2
1,76,71,2
1,76,79,2
1,76,79,2
1,76,80,2
1,76,75,2
1,76,81,2
1,76,85,2
1,76,78,2
1,76,81,2
1,61,75,0
1,76,83,2
1,76,79,2
1,76,85,0
1,76,88,2
1,76,82,2
1,76,85,2
1,76,85,2
1,76,91,2
1,76,93,2
1,76,89,2
1,76,93,2
1,49,107,2
1,76,87,0
1,64,65,6
1,69,64,2
1,76,89,2
1,76,96,2
1,76,95,2
1,76,87,2
1,76,93,2
1,76,92,2
1,76,88,2
1,76,95,2
1,76,91,2
1,76,90,2
1,76,89,2
1,78,89,2
1,61,77,0
1,78,90,2
1,78,96,2
1,78,92,2
1,78,92,2
1,78,89,2
1,78,94,2
1,78,90,2
1,78,91,2
1,78,96,2
1,78,89,2
1,78,92,2
1,49,111,2
1,76,90,0
1,37,68,0
1,76,88,2
1,64,80,1
1,68,77,0
1,76,92,2
1,76,91,2
1,76,91,2
1,76,96,2
1,76,87,2
1,76,91,2
1,76,91,2
1,76,92,2
1,76,87,2
1,76,92,2
1,76,89,2
1,61,70,0
1,76,87,2
1,76,92,2
1,76,89,2
1,76,82,2
1,76,82,2
1,76,87,2
1,76,88,2
1,76,79,2
1,76,83,2
1,76,81,2
1,76,80,2
1,76,81,2
1,64,63,2
1,68,65,3
1,76,85,2
1,76,80,2
1,76,75,2
1,76,78,2
1,76,75,2
1,76,74,2
1,76,71,2
1,76,77,2
1,76,77,2
1,76,72,2
1,76,78,2
1,76,75,2
1,61,71,0
1,76,70,2
1,76,75,2
1,76,65,2
1,76,67,2
1,76,64,2
1,76,65,2
1,76,63,2
1,76,70,2
1,76,69,2
1,76,60,2
1,76,65,2
1,76,58,2
1,64,61,3
1,69,63,3
1,76,59,2
1,76,58,2
1,76,60,2
1,76,56,2
1,76,59,2
1,76,51,2
1,76,50,2
1,76,54,2
1,76,53,2
1,76,48,2
1,76,51,2
1,76,41,2
1,61,72,0
1,76,46,2
1,76,39,2
1,76,39,2
1,76,37,2
1,76,37,2
1,76,42,2
1,76,42,2
1,76,30,2
1,76,34,2
1,76,29,2
1,76,33,2
1,71,40,2
1,76,29,0
1,68,70,0
1,64,64,6
1,76,31,2
1,76,23,2
1,76,22,2
1,76,21,2
1,76,17,2
1,76,13,2
1,76,13,2
1,76,10,2
1,76,10,2
1,76,8,2
1,76,8,2
1,73,49,2
1,61,72,0
1,73,48,2
1,73,61,2
1,73,58,2
1,73,78,2
1,73,71,2
1,73,76,2
1,73,74,2
1,73,80,2
1,73,82,2
1,73,75,2
1,73,84,2
1,71,29,2
1,73,83,0
1,63,85,0
1,66,83,0
1,35,69,8
1,73,81,2
1,73,96,2
1,73,87,2
1,73,96,2
1,73,96,2
1,73,96,2
1,73,92,2
1,73,93,2
1,73,96,2
1,73,95,2
1,73,93,2
1,71,95,2
1,59,71,0
1,71,96,2
1,71,89,2
1,71,93,2
1,71,93,2
1,71,88,2
1,66,49,2
1,71,88,0
1,71,93,2
1,71,96,2
1,71,90,2
1,71,88,0
1,71,90,2
1,71,32,2
1,71,88,0
1,63,72,0
1,66,60,0
1,71,90,2
1,71,95,2
1,71,95,2
1,71,93,2
1,71,88,2
1,71,93,2
1,71,89,2
1,71,87,2
1,71,89,2
1,71,92,2
1,71,93,2
1,66,92,2
1,59,67,0
1,66,95,2
1,66,96,2
1,66,91,2
1,66,96,2
1,66,88,2
1,66,42,2
1,66,90,0
1,66,94,2
1,66,87,2
1,66,90,2
1,66,87,2
1,66,91,2
1,71,44,2
1,66,94,0
1,61,55,0
1,66,63,0
1,66,93,2
1,66,95,2
1,66,93,2
1,66,93,2
1,66,89,2
1,66,34,2
1,66,88,0
1,66,92,2
1,66,96,2
1,66,96,2
1,66,88,2
1,66,88,2
1,71,94,2
1,59,69,0
1,71,90,2
1,71,87,2
1,71,88,0
1,71,91,2
1,71,95,2
1,71,94,2
1,71,92,2
1,71,96,2
1,71,89,2
1,71,90,2
1,71,90,2
1,47,110,2
1,71,92,0
1,61,68,0
1,66,65,0
1,71,90,2
1,71,93,2
1,71,90,2
1,71,86,2
1,71,90,2
1,71,87,2
1,71,90,2
1,71,87,2
1,71,86,2
1,71,79,2
1,71,87,2
1,71,77,2
1,59,71,0
1,71,82,2
1,71,78,2
1,71,82,2
1,71,74,2
1,71,80,2
1,71,76,2
1,71,73,2
1,71,71,2
1,71,76,2
1,71,72,2
1,71,74,2
1,47,111,2
1,59,45,0
1,71,75,0
1,63,83,0
1,66,76,0
1,35,67,8
1,71,69,2
1,71,71,2
1,71,73,2
1,71,74,2
1,71,65,2
1,71,63,2
1,71,67,2
1,71,71,2
1,71,64,2
1,71,65,2
1,71,64,2
1,71,60,2
1,59,69,0
1,71,61,2
1,71,57,2
1,71,66,2
1,71,60,2
1,71,58,2
1,71,58,2
1,71,55,2
1,71,48,2
1,71,50,2
1,71,52,2
1,71,44,2
1,71,49,2
1,63,66,0
1,66,59,0
1,71,47,2
1,71,46,2
1,71,38,2
1,71,40,2
1,71,42,2
1,71,37,2
1,71,38,2
1,71,28,2
1,71,29,2
1,71,10,2
1,71,13,2
1,66,35,2
1,66,49,0
1,59,67,0
1,66,46,2
1,66,44,2
1,66,50,2
1,66,54,2
1,66,47,2
1,66,52,2
1,66,49,2
1,66,54,2
1,66,60,2
1,66,59,2
1,66,60,2
1,71,24,2
1,71,65,0
1,61,62,0
1,66,65,0
1,71,58,2
1,71,60,2
1,71,62,2
1,71,58,2
1,71,64,2
1,71,67,2
1,71,64,2
1,71,60,2
1,71,68,2
1,71,64,2
1,71,69,2
1,71,64,2
1,59,68,0
1,71,69,2
1,71,66,2
1,71,65,2
1,71,67,2
1,71,73,2
1,71,64,2
1,71,66,2
1,71,65,2
1,71,65,2
1,71,66,2
1,71,70,2
1,71,69,2
1,61,62,0
1,66,63,0
1,71,62,2
1,71,60,2
1,71,63,2
1,71,59,2
1,71,67,2
1,71,62,2
1,71,65,2
1,71,65,2
1,71,62,2
1,71,59,2
1,71,64,2
1,69,56,2
1,69,64,0
1,59,81,0
1,69,62,2
1,69,58,2
1,69,57,2
1,69,63,2
1,69,60,2
1,69,57,2
1,69,61,2
1,69,58,2
1,69,65,2
1,69,58,2
1,69,61,2
1,47,122,2
1,69,60,0
1,40,95,8
1,69,58,2
1,64,96,1
1,68,94,0
1,69,61,2
1,69,60,2
1,69,59,2
1,69,60,2
1,69,55,2
1,69,56,2
1,69,59,2
1,69,58,2
1,69,54,2
1,69,61,2
1,59,89,15
1,68,22,2
1,68,58,0
1,68,57,2
1,68,58,2
1,68,59,2
1,68,61,2
1,68,59,2
1,68,54,2
1,68,59,2
1,68,53,2
1,68,61,2
1,68,60,2
1,68,60,2
1,68,41,2
1,68,61,0
1,64,93,2
1,68,90,3
1,68,53,2
1,68,60,2
1,68,61,2
1,68,56,2
1,68,61,2
1,68,60,2
1,68,55,2
1,68,58,2
1,68,55,2
1,68,59,2
1,68,52,2
1,68,54,2
1,59,84,7
1,68,53,2
1,68,51,2
1,68,57,2
1,68,56,2
1,68,50,2
1,68,51,2
1,68,59,2
1,68,50,2
1,68,56,2
1,68,52,2
1,68,49,2
1,52,115,2
1,66,31,0
1,68,57,0
1,64,60,3
1,69,70,3
1,68,53,2
1,68,52,2
1,68,55,2
1,68,50,2
1,68,54,2
1,68,56,2
1,68,53,2
1,68,53,2
1,68,58,2
1,68,54,2
1,68,50,2
1,59,73,1
1,68,56,1
1,68,57,2
1,68,51,2
1,68,56,2
1,68,55,2
1,68,50,2
1,68,52,2
1,68,47,2
1,68,47,2
1,68,51,2
1,68,52,2
1,68,48,2
1,64,29,2
1,68,48,0
1,64,70,6
1,69,69,2
1,68,53,2
1,68,48,2
1,68,54,2
1,68,57,2
1,68,58,2
1,68,47,2
1,68,47,2
1,68,52,2
1,68,54,2
1,68,45,2
1,68,43,2
1,52,114,2
1,68,49,0
1,40,68,1
1,59,81,0
1,68,48,2
1,68,40,2
1,68,43,2
1,68,43,2
1,68,38,2
1,68,40,2
1,68,39,2
1,68,37,2
1,68,41,2
1,68,38,2
1,68,30,2
1,47,115,2
1,68,25,0
1,35,94,7
1,68,34,2
1,64,89,1
1,68,92,0
1,68,29,2
1,68,23,2
1,68,19,2
1,68,16,2
1,68,13,2
1,68,18,2
1,68,8,2
1,68,12,2
1,68,8,2
1,68,8,2
1,59,86,15
1,61,43,2
1,64,89,2
1,68,91,3
1,59,89,148
1,59,36,37
1,64,63,3
1,69,67,3
1,59,72,139
1,64,71,153
1,69,71,2
1,68,45,138
1,40,74,1
1,59,72,6
1,64,38,2
1,68,44,0
1,69,50,2
1,66,46,2
1,69,52,0
1,69,52,2
1,66,50,2
1,69,50,0
1,47,112,2
1,71,48,0
1,71,57,0
1,35,63,8
1,68,55,2
1,71,55,0
1,64,88,1
1,68,75,0
1,71,60,2
1,68,66,2
1,71,63,0
1,71,65,2
1,68,59,2
1,71,57,0
1,71,58,2
1,68,59,2
1,71,63,0
1,71,64,2
1,68,67,2
1,71,61,0
1,71,62,2
1,68,61,2
1,71,67,0
1,59,65,15
1,71,60,2
1,68,60,2
1,71,68,0
1,71,62,2
1,68,66,2
1,71,64,0
1,71,72,2
1,68,72,2
1,71,65,0
1,71,68,2
1,68,72,2
1,71,72,0
1,71,69,2
1,68,68,2
1,71,65,0
1,71,74,2
1,68,74,2
1,71,70,0
1,71,76,2
1,64,67,2
1,68,65,3
1,68,72,2
1,71,77,0
1,71,78,2
1,68,73,2
1,71,75,0
1,71,77,2
1,68,75,2
1,71,70,0
1,71,71,2
1,68,68,2
1,71,72,0
1,71,72,2
1,68,73,2
1,71,75,0
1,71,70,2
1,68,72,2
1,71,72,0
1,71,73,2
1,59,69,7
1,68,65,2
1,71,68,0
1,71,65,2
1,68,73,2
1,71,67,0
1,71,70,2
1,68,72,2
1,71,65,0
1,71,66,2
1,68,67,2
1,71,71,0
1,71,62,2
1,68,63,2
1,71,62,0
1,71,62,2
1,68,62,2
1,71,68,0
1,71,65,2
1,64,55,3
1,69,64,3
1,68,67,2
1,71,64,0
1,71,61,2
1,68,65,2
1,71,60,0
1,71,67,2
1,68,64,2
1,71,59,0
1,71,66,2
1,68,63,2
1,71,61,0
1,71,58,2
1,68,65,2
1,71,61,0
1,71,60,2
1,68,63,2
1,71,65,0
1,59,67,1
1,71,56,1
1,68,56,2
1,71,55,0
1,71,57,2
1,68,62,2
1,71,55,0
1,71,56,2
1,68,63,2
1,71,62,0
1,71,57,2
1,68,57,2
1,71,54,0
1,71,52,2
1,68,57,2
1,71,50,0
1,71,51,2
1,68,50,2
1,71,49,0
1,73,40,2
1,73,72,0
1,64,65,6
1,69,64,2
1,69,71,2
1,73,67,0
1,73,69,2
1,69,70,2
1,73,68,0
1,73,72,2
1,69,73,2
1,73,68,0
1,73,65,2
1,69,70,2
1,73,67,0
1,73,69,2
1,69,66,2
1,73,63,0
1,73,70,2
1,69,64,2
1,73,69,0
1,52,113,2
1,73,68,0
1,40,65,3
1,59,75,0
1,69,68,2
1,73,65,0
1,73,65,2
1,69,62,2
1,73,68,0
1,73,68,2
1,69,63,2
1,73,65,0
1,73,62,2
1,69,70,2
1,73,68,0
1,73,63,2
1,69,66,2
