track,note,velocity,time
1,59,113,28792
1,54,125,0
1,51,123,0
1,51,0,384
1,54,0,0
1,59,0,0
1,42,113,0
1,49,119,0
1,30,99,0
1,54,113,0
1,58,109,0
1,58,0,1152
1,49,0,0
1,54,0,0
1,51,123,0
1,59,111,0
1,54,125,0
1,42,0,40
1,30,0,248
1,59,0,96
1,51,0,0
1,54,0,0
1,49,121,0
1,42,115,0
1,58,103,0
1,54,105,0
1,30,101,0
1,54,0,1152
1,58,0,0
1,49,0,0
1,54,121,0
1,51,123,0
1,59,109,0
1,42,0,296
1,30,0,15
1,51,0,73
1,54,0,0
1,59,0,0
1,49,115,0
1,42,109,0
1,54,105,0
1,30,97,0
1,58,99,0
1,58,0,1152
1,54,0,0
1,49,0,0
1,54,123,0
1,51,125,0
1,59,111,0
1,42,0,45
1,42,58,147
1,42,0,79
1,30,0,17
1,51,0,96
1,54,0,0
1,59,0,0
1,42,109,0
1,49,121,0
1,30,105,0
1,54,119,0
1,58,113,0
1,42,0,975
1,42,74,81
1,54,0,96
1,58,0,0
1,49,0,0
1,51,115,0
1,54,115,0
1,59,101,0
1,42,0,18
1,42,78,174
1,42,0,94
1,30,0,2
1,54,0,96
1,51,0,0
1,59,0,0
1,42,105,0
1,30,101,0
1,49,123,0
1,54,111,0
1,58,107,0
1,58,0,1152
1,49,0,0
1,54,0,0
1,51,109,0
1,54,109,0
1,59,87,0
1,42,0,44
1,42,95,148
1,42,0,81
1,30,0,15
1,54,0,96
1,51,0,0
1,59,0,0
1,44,93,0
1,37,101,0
1,53,109,0
1,56,103,0
1,49,105,0
1,49,0,1152
1,53,0,0
1,44,0,0
1,37,0,0
1,56,0,0
1,42,107,0
1,49,119,0
1,54,121,0
1,58,117,0
1,58,0,384
1,42,0,0
1,49,0,0
1,54,0,0
1,37,103,0
1,53,103,0
1,49,97,0
1,56,107,0
1,56,0,1152
1,49,0,0
1,53,0,0
1,49,107,0
1,53,109,0
1,56,107,0
1,37,0,288
1,49,0,96
1,53,0,0
1,56,0,0
1,58,110,0
1,54,110,0
1,51,110,0
1,39,110,0
1,39,0,1056
1,58,0,96
1,54,0,0
1,51,0,0
1,54,121,0
1,51,121,0
1,58,117,0
1,39,99,0
1,39,0,288
1,54,0,96
1,51,0,0
1,58,0,0
1,44,113,0
1,56,115,0
1,60,107,0
1,51,115,0
1,51,0,768
1,44,0,0
1,56,0,0
1,60,0,0
1,37,93,0
1,53,113,0
1,56,115,0
1,49,115,0
1,49,0,170
1,53,0,1
1,56,0,6
1,37,0,15
1,49,121,576
1,42,115,0
1,58,103,0
1,54,105,0
1,30,101,0
1,54,0,1152
1,58,0,0
1,49,0,0
1,54,121,0
1,51,123,0
1,59,109,0
1,42,0,296
1,30,0,15
1,51,0,73
1,54,0,0
1,59,0,0
1,49,115,0
1,42,109,0
1,54,105,0
1,30,97,0
1,58,99,0
1,58,0,1152
1,54,0,0
1,49,0,0
1,54,123,0
1,51,125,0
1,59,111,0
1,42,0,45
1,42,58,147
1,42,0,79
1,30,0,17
1,51,0,96
1,54,0,0
1,59,0,0
1,42,109,0
1,49,121,0
1,30,105,0
1,54,119,0
1,58,113,0
1,42,0,975
1,42,74,81
1,54,0,96
1,58,0,0
1,49,0,0
1,51,115,0
1,54,115,0
1,59,101,0
1,42,0,18
1,42,78,174
1,42,0,94
1,30,0,2
1,54,0,96
1,51,0,0
1,59,0,0
1,42,105,0
1,30,101,0
1,49,123,0
1,54,111,0
1,58,107,0
1,58,0,1152
1,49,0,0
1,54,0,0
1,51,109,0
1,54,109,0
1,59,87,0
1,42,0,44
1,42,95,148
1,42,0,81
1,30,0,15
1,54,0,96
1,51,0,0
1,59,0,0
1,44,93,0
1,37,101,0
1,53,109,0
1,56,103,0
1,49,105,0
1,49,0,1152
1,53,0,0
1,44,0,0
1,37,0,0
1,56,0,0
1,42,107,0
1,49,119,0
1,54,121,0
1,58,117,0
1,58,0,384
1,42,0,0
1,49,0,0
1,54,0,0
1,37,103,0
1,53,103,0
1,49,97,0
1,56,107,0
1,56,0,1152
1,49,0,0
1,53,0,0
1,49,107,0
1,53,109,0
1,56,107,0
1,37,0,288
1,49,0,96
1,53,0,0
1,56,0,0
1,58,110,0
1,54,110,0
1,51,110,0
1,39,110,0
1,39,0,1056
1,58,0,96
1,54,0,0
1,51,0,0
1,54,121,0
1,51,121,0
1,58,117,0
1,39,99,0
1,39,0,288
1,54,0,96
1,51,0,0
1,58,0,0
1,44,113,0
1,56,115,0
1,60,107,0
1,51,115,0
1,51,0,768
1,44,0,0
1,56,0,0
1,60,0,0
1,37,93,0
1,53,113,0
1,56,115,0
1,49,115,0
1,49,0,170
1,53,0,1
1,56,0,6
1,37,0,15
1,49,121,576
1,42,115,0
1,58,103,0
1,54,105,0
1,30,101,0
1,54,0,1152
1,58,0,0
1,49,0,0
1,54,121,0
1,51,123,0
1,59,109,0
1,42,0,296
1,30,0,15
1,51,0,73
1,54,0,0
1,59,0,0
1,49,115,0
1,42,109,0
1,54,105,0
1,30,97,0
1,58,99,0
1,58,0,1152
1,54,0,0
1,49,0,0
1,54,123,0
1,51,125,0
1,59,111,0
1,42,0,45
1,42,58,147
1,42,0,79
1,30,0,17
1,59,0,96
1,54,0,0
1,39,96,0
1,54,64,0
1,58,64,0
1,58,0,1536
1,51,0,0
1,39,0,0
1,54,0,0
1,42,110,13440
1,51,110,0
1,54,110,0
1,59,110,0
1,59,0,384
1,42,0,0
1,51,0,0
1,54,0,0
1,49,121,0
1,42,115,0
1,58,103,0
1,54,105,0
1,30,101,0
1,54,0,1152
1,58,0,0
1,49,0,0
1,54,121,0
1,51,123,0
1,59,109,0
1,42,0,296
1,30,0,15
1,51,0,73
1,54,0,0
1,59,0,0
1,49,115,0
1,42,109,0
1,54,105,0
1,30,97,0
1,58,99,0
1,58,0,1152
1,54,0,0
1,49,0,0
1,54,123,0
1,51,125,0
1,59,111,0
1,42,0,45
1,42,58,147
1,42,0,79
1,30,0,17
1,51,0,96
1,54,0,0
1,59,0,0
1,49,121,0
1,30,105,0
1,54,119,0
1,58,113,0
1,58,0,1152
1,54,0,0
1,49,0,0
1,51,115,0
1,54,115,0
1,59,101,0
1,30,0,288
1,51,0,96
1,54,0,0
1,59,0,0
1,30,101,0
1,49,123,0
1,54,111,0
1,58,107,0
1,58,0,1152
1,54,0,0
1,49,0,0
1,51,109,0
1,54,109,0
1,59,87,0
1,30,0,288
1,51,0,96
1,54,0,0
1,59,0,0
1,53,109,0
1,49,105,0
1,49,0,1152
1,53,0,0
1,49,119,0
1,54,121,0
1,58,117,0
1,58,0,384
1,54,0,0
1,49,0,0
1,53,103,0
1,49,97,0
1,56,107,0
1,56,0,1152
1,49,0,0
1,53,0,0
1,49,107,0
1,53,109,0
1,56,107,0
1,56,0,288
1,53,0,0
1,49,0,0
1,58,110,96
1,54,110,0
1,51,110,0
1,51,0,1152
1,54,0,0
1,58,0,0
1,54,121,0
1,51,121,0
1,58,117,0
1,58,0,384
1,51,0,0
1,54,0,0
1,56,115,0
1,60,107,0
1,51,115,0
1,51,0,768
1,60,0,0
1,56,0,0
1,53,113,0
1,56,115,0
1,49,115,0
1,49,0,170
1,53,0,1
1,56,0,6
1,49,121,591
1,58,103,0
1,54,105,0
1,30,101,0
1,54,0,1152
1,49,0,0
1,58,0,0
1,54,121,0
1,51,123,0
1,59,109,0
1,30,0,311
1,54,0,73
1,51,0,0
1,59,0,0
1,49,115,0
1,54,105,0
1,30,97,0
1,58,99,0
1,58,0,1152
1,49,0,0
1,54,0,0
1,54,123,0
1,51,125,0
1,59,111,0
1,30,0,288
1,54,0,96
1,51,0,0
1,59,0,0
1,49,121,0
1,30,105,0
1,54,119,0
1,58,113,0
1,58,0,1152
1,54,0,0
1,49,0,0
1,51,115,0
1,54,115,0
1,59,101,0
1,30,0,288
1,51,0,96
1,54,0,0
1,59,0,0
1,30,101,0
1,49,123,0
1,54,111,0
1,58,107,0
1,58,0,1152
1,54,0,0
1,49,0,0
1,51,109,0
1,54,109,0
1,59,87,0
1,30,0,288
1,51,0,96
1,54,0,0
1,59,0,0
1,53,109,0
1,56,103,0
1,49,105,0
1,49,0,1152
1,56,0,0
1,53,0,0
1,49,119,0
1,54,121,0
1,58,117,0
1,58,0,384
1,54,0,0
1,49,0,0
1,53,103,0
1,49,97,0
1,56,107,0
1,56,0,1152
1,49,0,0
1,53,0,0
1,49,107,0
1,53,109,0
1,56,107,0
1,56,0,384
1,53,0,0
1,49,0,0
1,58,110,0
1,54,110,0
1,51,110,0
1,51,0,1152
1,54,0,0
1,58,0,0
1,54,121,0
1,51,121,0
1,58,117,0
1,58,0,384
1,51,0,0
1,54,0,0
1,56,115,0
1,60,107,0
1,51,115,0
1,51,0,768
1,60,0,0
1,56,0,0
1,53,113,0
1,56,115,0
1,49,115,0
1,49,0,170
1,53,0,1
1,56,0,6
1,49,121,591
1,58,103,0
1,54,105,0
1,30,101,0
1,54,0,1152
1,49,0,0
1,58,0,0
1,54,121,0
1,51,123,0
1,59,109,0
1,30,0,311
1,54,0,73
1,51,0,0
1,59,0,0
1,49,115,0
1,54,105,0
1,30,97,0
1,58,99,0
1,58,0,1152
1,49,0,0
1,54,0,0
1,54,123,0
1,51,125,0
1,59,111,0
1,30,0,288
1,54,0,96
1,59,0,0
1,54,64,0
1,58,64,0
1,58,0,1536
1,54,0,0
1,51,0,0
1,42,110,13440
1,51,110,0
1,54,110,0
1,59,110,0
1,59,0,384
1,42,0,0
1,51,0,0
1,54,0,0
1,49,121,0
1,42,115,0
1,58,103,0
1,54,105,0
1,30,101,0
1,54,0,1152
1,58,0,0
1,49,0,0
1,54,121,0
1,51,123,0
1,59,109,0
1,42,0,296
1,30,0,15
1,51,0,73
1,54,0,0
1,59,0,0
1,49,115,0
1,42,109,0
1,54,105,0
1,30,97,0
1,58,99,0
1,58,0,1152
1,54,0,0
1,49,0,0
1,54,123,0
1,51,125,0
1,59,111,0
1,42,0,45
1,42,58,147
1,42,0,79
1,30,0,17
1,51,0,96
1,54,0,0
1,59,0,0
1,49,115,0
1,54,105,0
1,58,100,0
1,30,105,0
1,58,0,1152
1,49,0,0
1,54,0,0
1,51,115,0
1,54,115,0
1,59,101,0
1,30,0,288
1,51,0,96
1,54,0,0
1,59,0,0
1,30,101,0
1,49,123,0
1,54,111,0
1,58,107,0
1,58,0,1152
1,54,0,0
1,49,0,0
1,51,109,0
1,54,109,0
1,59,87,0
1,30,0,288
1,51,0,96
1,54,0,0
1,59,0,0
1,53,109,0
1,56,103,0
1,49,105,0
1,49,0,1152
1,56,0,0
1,53,0,0
1,49,119,0
1,54,121,0
1,58,117,0
1,58,0,384
1,54,0,0
1,49,0,0
1,53,103,0
1,49,97,0
1,56,107,0
1,56,0,1152
1,49,0,0
1,53,0,0
1,49,107,0
1,53,109,0
1,56,107,0
1,56,0,384
1,53,0,0
1,49,0,0
1,49,121,0
1,30,105,0
1,54,119,0
1,58,113,0
1,58,0,1152
1,54,0,0
1,49,0,0
1,51,115,0
1,54,115,0
1,59,101,0
1,30,0,288
1,51,0,96
1,54,0,0
1,59,0,0
1,30,101,0
1,49,123,0
1,54,111,0
1,58,107,0
1,58,0,1152
1,54,0,0
1,49,0,0
1,51,109,0
1,54,109,0
1,59,87,0
1,30,0,288
1,51,0,96
1,54,0,0
1,59,0,0
1,53,109,0
1,56,103,0
1,49,105,0
1,49,0,1152
1,56,0,0
1,53,0,0
1,49,119,0
1,54,121,0
1,58,117,0
1,58,0,384
1,54,0,0
1,49,0,0
1,53,103,0
1,49,97,0
1,56,107,0
1,56,0,1152
1,49,0,0
1,53,0,0
1,49,107,0
1,53,109,0
1,56,107,0
1,56,0,384
1,53,0,0
1,49,0,0
1,49,121,0
1,30,105,0
1,54,119,0
1,58,113,0
1,58,0,1152
1,54,0,0
1,49,0,0
1,51,115,0
1,54,115,0
1,59,101,0
1,30,0,288
1,51,0,96
1,54,0,0
1,59,0,0
1,30,101,0
1,49,123,0
1,54,111,0
1,58,107,0
1,58,0,1152
1,54,0,0
1,49,0,0
1,51,109,0
1,54,109,0
1,59,87,0
1,30,0,288
1,51,0,96
1,54,0,0
1,59,0,0
1,53,109,0
1,56,103,0
1,49,105,0
1,49,0,1152
1,56,0,0
1,53,0,0
1,49,119,0
1,54,121,0
1,58,117,0
1,58,0,384
1,54,0,0
1,49,0,0
1,53,103,0
1,49,97,0
1,56,107,0
1,56,0,1152
1,49,0,0
1,53,0,0
1,49,107,0
1,53,109,0
1,56,107,0
1,56,0,384
1,53,0,0
1,49,0,0
1,49,121,0
1,30,105,0
1,54,119,0
1,58,113,0
1,58,0,1152
1,54,0,0
1,49,0,0
1,51,115,0
1,54,115,0
1,59,101,0
1,30,0,288
1,51,0,96
1,54,0,0
1,59,0,0
1,30,101,0
1,49,123,0
1,54,111,0
1,58,107,0
1,58,0,1152
1,54,0,0
1,49,0,0
1,51,109,0
1,54,109,0
1,59,87,0
1,30,0,288
1,51,0,96
1,54,0,0
1,59,0,0
1,53,109,0
1,56,103,0
1,49,105,0
1,49,0,1152
1,56,0,0
1,53,0,0
1,49,119,0
1,54,121,0
1,58,117,0
1,58,0,384
1,54,0,0
1,49,0,0
1,53,103,0
1,49,97,0
1,56,107,0
1,56,0,1152
1,49,0,0
1,53,0,0
1,49,107,0
1,53,109,0
1,56,107,0
1,56,0,384
1,53,0,0
1,49,0,0
1,49,121,0
1,30,105,0
1,54,119,0
1,58,113,0
1,58,0,1152
1,54,0,0
1,49,0,0
1,51,115,0
1,54,115,0
1,59,101,0
1,30,0,288
1,51,0,96
1,54,0,0
1,59,0,0
1,30,101,0
1,49,123,0
1,54,111,0
1,58,107,0
1,58,0,1152
1,54,0,0
1,49,0,0
1,51,109,0
1,54,109,0
1,59,87,0
1,30,0,288
1,51,0,96
1,54,0,0
1,59,0,0
1,53,109,0
1,56,103,0
1,49,105,0
1,49,0,1152
1,56,0,0
1,53,0,0
1,49,119,0
1,54,121,0
1,58,117,0
1,58,0,384
1,54,0,0
1,49,0,0
1,53,103,0
1,49,97,0
1,56,107,0
1,56,0,1152
1,49,0,0
1,53,0,0
1,49,107,0
1,53,109,0
1,56,107,0
1,56,0,384
1,53,0,0
1,49,0,0
1,49,121,0
1,30,105,0
1,54,119,0
1,58,113,0
1,58,0,1152
1,54,0,0
1,49,0,0
1,51,115,0
1,54,115,0
1,59,101,0
1,30,0,288
1,51,0,96
1,54,0,0
1,59,0,0
1,30,101,0
1,49,123,0
1,54,111,0
1,58,107,0
1,58,0,96
1,54,0,0
1,49,0,0
1,51,109,0
1,54,109,0
1,59,87,0
1,30,0,96
1,51,0,96
1,54,0,0
1,59,0,0
1,53,109,0
1,56,103,0
1,49,105,0
1,49,0,96
1,56,0,0
1,53,0,0
1,49,119,0
1,54,121,0
1,58,117,0
1,58,0,96
1,54,0,0
1,49,0,0
1,53,103,0
1,49,97,0
1,56,107,0
1,56,0,96
1,49,0,0
1,53,0,0
1,49,107,0
1,53,109,0
1,56,107,0
1,56,0,96
1,53,0,0
1,49,0,0
2,30,110,2
2,30,0,1481
2,30,110,46
2,30,0,1434
2,30,110,102
2,30,0,1434
2,30,110,102
2,30,0,1441
2,30,110,95
2,30,0,1399
2,30,110,137
2,30,0,1438
2,37,98,98
2,37,0,1435
2,37,98,101
2,37,0,1454
2,39,98,82
2,39,0,1506
2,32,98,30
2,32,0,758
2,37,110,10
2,37,0,62
2,30,110,706
2,30,0,1452
2,30,110,84
2,30,0,1395
2,30,110,141
2,30,0,1433
2,30,110,103
2,30,0,1523
2,37,98,13
2,37,0,1433
2,37,98,103
2,37,0,1531
2,39,98,5
2,32,98,1536
2,39,0,10
2,32,0,752
2,37,98,6
2,37,0,86
2,30,110,682
2,30,0,1427
2,30,110,109
2,30,0,1416
2,30,110,120
2,30,0,1450
2,30,110,86
2,30,0,1343
2,30,100,193
2,30,0,1465
2,30,100,71
2,30,0,1522
2,37,100,14
2,37,0,1448
2,37,100,88
2,37,0,1507
2,39,100,29
2,39,0,1534
2,32,100,2
2,32,0,764
