track,note,velocity,time
1,41,68,72
1,65,92,0
1,53,52,96
1,57,56,96
1,60,86,2
1,65,76,192
1,57,40,72
1,60,77,96
1,67,74,14
1,40,62,0
1,52,48,94
1,57,56,96
1,60,89,14
1,67,76,192
1,57,60,14
1,60,89,96
1,65,83,2
1,38,76,0
1,50,65,84
1,57,71,96
1,60,86,96
1,65,77,190
1,57,51,80
1,60,76,12
1,36,67,38
1,69,83,0
1,48,61,32
1,57,73,96
1,65,81,96
1,60,89,192
1,62,89,34
1,46,68,0
1,53,71,96
1,58,65,96
1,60,83,4
1,62,89,8
1,62,94,0
1,45,77,26
1,53,62,192
1,60,66,24
1,61,78,48
1,62,109,16
1,45,67,0
1,53,73,182
1,60,77,20
1,61,105,0
1,43,70,0
1,31,72,0
1,62,92,18
1,53,52,66
1,58,74,96
1,60,97,96
1,62,92,186
1,60,92,0
1,40,89,20
1,36,89,0
1,60,81,12
1,62,79,94
1,64,86,6
1,36,83,0
1,65,74,12
1,40,79,0
1,67,92,0
1,68,94,94
1,69,78,8
1,41,74,0
1,53,68,94
1,57,66,96
1,60,89,28
1,69,83,192
1,57,71,60
1,60,76,96
1,72,86,38
1,40,77,0
1,52,66,92
1,57,68,96
1,60,74,96
1,72,73,0
1,57,67,96
1,60,74,96
1,38,63,0
1,65,79,0
1,50,66,82
1,57,62,96
1,60,94,2
1,65,86,192
1,57,50,56
1,60,81,8
1,36,70,32
1,69,81,0
1,48,62,54
1,57,73,22
1,65,86,96
1,60,89,192
1,62,89,78
1,46,68,0
1,53,71,94
1,58,65,96
1,60,83,4
1,62,89,8
1,62,94,0
1,45,77,26
1,53,62,192
1,60,66,24
1,61,78,48
1,62,109,16
1,45,67,0
1,53,73,182
1,60,77,20
1,61,105,0
1,43,70,0
1,31,72,0
1,62,92,18
1,53,52,66
1,58,74,96
1,60,97,96
1,62,92,186
1,60,92,0
1,40,89,20
1,36,89,0
1,60,81,12
1,62,79,80
1,64,86,4
1,36,83,0
1,65,74,12
1,40,79,0
1,67,92,0
1,68,94,22
1,41,58,0
1,69,79,0
1,53,70,94
1,57,52,96
1,60,83,96
1,65,76,96
1,65,92,2
1,65,74,24
1,65,74,0
1,65,92,0
1,65,76,38
1,57,57,0
1,48,56,0
1,65,92,0
1,67,109,6
1,60,72,0
1,67,92,2
1,40,73,8
1,52,33,92
1,57,57,96
1,69,77,96
1,60,89,0
1,69,92,2
1,52,74,8
1,67,78,96
1,57,62,36
1,67,78,94
1,38,79,0
1,65,92,0
1,50,67,92
1,57,46,96
1,60,92,96
1,65,92,98
1,65,83,40
1,65,92,2
1,57,55,8
1,65,92,2
1,60,72,6
1,69,92,2
1,36,73,80
1,69,76,0
1,48,40,62
1,69,92,2
1,57,53,6
1,67,92,0
1,65,94,96
1,65,92,2
1,60,79,24
1,64,92,2
1,48,51,64
1,62,92,0
1,41,73,6
1,34,67,32
1,62,83,0
1,46,27,48
1,62,92,2
1,53,68,94
1,58,92,96
1,62,83,86
1,62,92,4
1,53,62,16
1,65,92,0
1,58,66,88
1,67,92,0
1,33,73,30
1,65,89,0
1,62,92,2
1,45,65,26
1,53,61,2
1,62,92,2
1,58,97,94
1,65,92,2
1,45,56,0
1,62,81,8
1,67,92,2
1,53,66,4
1,62,92,2
1,40,65,88
1,58,76,0
1,43,62,96
1,53,62,20
1,58,89,96
1,62,92,192
1,43,73,0
1,60,92,0
1,38,73,96
1,40,73,14
1,60,83,0
1,36,71,0
1,60,83,0
1,40,86,0
1,62,76,0
1,64,92,96
1,36,81,0
1,65,66,0
1,67,86,96
1,40,78,0
1,68,89,6
1,41,67,2
1,69,86,0
1,53,65,96
1,57,57,96
1,65,92,2
1,60,92,48
1,65,92,2
1,41,70,50
1,65,92,2
1,65,79,38
1,65,92,2
1,57,62,30
1,65,92,2
1,60,74,16
1,67,92,0
1,40,67,12
1,67,78,0
1,52,61,90
1,57,52,96
1,60,89,4
1,69,92,2
1,60,71,10
1,57,77,0
1,67,76,0
1,52,42,46
1,60,79,32
1,57,68,0
1,65,78,0
1,38,71,22
1,50,61,96
1,65,73,24
1,57,72,0
1,60,62,0
1,65,92,0
1,65,78,22
1,57,73,0
1,60,76,0
1,65,92,0
1,50,72,36
1,65,86,58
1,57,86,0
1,60,86,0
1,65,92,0
1,50,66,34
1,60,86,40
1,69,94,0
1,69,92,0
1,36,74,24
1,60,74,16
1,67,78,0
1,67,92,0
1,48,63,96
1,65,77,12
1,60,74,0
1,65,92,0
1,48,63,22
1,60,86,6
1,64,79,0
1,64,92,2
1,48,42,28
1,48,56,36
1,62,97,0
1,34,66,0
1,53,61,92
1,58,71,96
1,62,97,92
1,46,50,46
1,53,83,0
1,65,78,94
1,65,92,0
1,65,76,0
1,65,92,2
1,65,92,0
1,33,78,0
1,65,92,0
1,45,63,0
1,65,89,26
1,65,92,0
1,67,89,0
1,67,92,2
1,45,50,94
1,69,97,32
1,69,92,0
1,45,37,6
1,70,92,0
1,70,109,0
1,31,72,0
1,53,81,96
1,58,62,48
1,70,92,0
1,62,94,94
1,43,52,48
1,53,77,78
1,43,48,72
1,65,78,16
1,43,45,70
1,62,78,96
1,43,41,58
1,58,79,22
1,43,42,76
1,53,72,96
1,43,56,68
1,43,63,28
1,36,74,2
1,60,92,0
1,48,67,96
1,60,92,8
1,52,52,16
1,64,92,0
1,64,92,6
1,55,92,6
1,64,92,10
1,48,71,24
1,60,94,74
1,64,92,8
1,64,92,32
1,52,74,8
1,64,92,26
1,43,78,8
1,64,92,34
1,60,92,6
1,34,78,0
1,64,92,64
1,46,74,32
1,64,92,44
1,52,72,0
1,64,92,34
1,55,92,2
1,64,92,8
1,46,62,50
1,64,92,38
1,60,89,16
1,64,92,32
1,52,77,30
1,64,92,24
1,46,81,38
1,64,92,34
1,33,78,8
1,60,97,0
1,64,92,8
1,64,92,36
1,45,77,8
1,64,92,34
1,52,86,4
1,64,92,34
1,55,92,22
1,64,92,42
1,45,77,20
1,60,92,96
1,72,92,20
1,52,72,32
1,45,81,40
1,31,86,12
1,60,97,0
1,43,74,92
1,52,72,96
1,55,97,14
1,43,77,30
1,60,94,96
1,52,79,62
1,60,92,98
1,60,86,0
1,69,89,0
1,65,94,0
1,41,76,0
1,69,92,4
1,53,63,170
1,64,67,10
1,67,62,0
1,60,62,0
1,67,92,0
1,60,67,24
1,64,72,0
1,67,63,0
1,67,92,2
1,60,74,0
1,65,77,0
1,65,92,0
1,60,71,30
1,65,88,0
1,69,86,0
1,69,92,2
1,40,74,2
1,52,72,58
1,67,74,30
1,60,66,0
1,67,92,2
1,60,76,32
1,67,83,0
1,67,92,0
1,52,65,42
1,60,83,4
1,65,92,0
1,65,92,2
1,52,51,22
1,69,92,2
1,38,83,4
1,60,92,0
1,65,97,0
1,69,97,0
1,50,34,96
1,64,65,8
1,67,66,0
1,60,63,0
1,67,92,2
1,60,83,0
1,65,81,0
1,65,92,0
1,50,61,48
1,45,65,18
1,60,79,22
1,69,94,0
1,36,74,0
1,69,92,4
1,67,92,94
1,48,58,78
1,65,78,4
1,60,65,0
1,65,92,2
1,48,58,20
1,65,72,64
1,60,63,0
1,65,92,2
1,60,77,0
1,57,76,0
1,64,92,2
1,48,62,34
1,62,92,44
1,58,97,0
1,34,74,0
1,53,77,0
1,62,92,6
1,46,33,90
1,65,92,0
1,53,47,22
1,58,81,22
1,53,60,0
1,46,42,2
1,53,77,96
1,58,74,0
1,62,76,0
1,46,51,78
1,34,66,78
1,33,76,14
1,65,81,0
1,45,52,90
1,53,52,18
1,58,76,20
1,45,56,52
1,67,78,96
1,69,83,44
1,70,105,16
1,31,73,50
1,43,67,82
1,53,63,90
1,58,68,86
1,43,42,60
1,62,89,86
1,43,55,72
1,65,89,96
1,62,92,0
1,43,52,34
1,65,92,4
1,43,71,14
1,65,92,0
1,53,62,18
1,57,92,22
1,58,76,50
1,65,92,0
1,43,57,66
1,62,89,0
1,64,92,0
1,53,60,58
1,62,92,0
1,43,63,14
1,60,94,2
1,36,77,0
1,60,92,4
1,64,92,90
1,52,65,86
1,55,79,6
1,48,60,96
1,60,89,96
1,52,68,36
1,55,73,0
1,34,74,18
1,60,92,0
1,46,40,70
1,52,66,96
1,55,92,96
1,62,92,0
1,46,68,22
1,60,92,4
1,60,92,58
1,52,74,24
1,55,78,2
1,60,97,0
1,33,73,0
1,45,61,74
1,52,67,96
1,55,89,96
1,60,94,184
1,52,66,22
1,55,86,10
1,31,74,6
1,60,94,0
1,43,48,56
1,52,65,96
1,55,94,24
1,60,78,192
1,52,65,4
1,55,94,96
1,60,92,0
1,65,92,0
1,41,67,0
1,65,92,2
1,53,58,88
1,65,92,0
1,57,55,80
1,65,92,0
1,60,77,46
1,65,92,4
1,53,60,16
1,65,86,96
1,67,92,0
1,57,57,28
1,69,92,0
1,60,71,94
1,40,72,36
1,67,92,0
1,52,65,96
1,57,44,8
1,72,92,2
1,60,92,14
1,52,65,24
1,67,83,96
1,57,58,66
1,60,78,94
1,60,92,2
1,65,92,16
1,38,76,0
1,72,92,2
1,50,68,40
1,72,92,2
1,57,60,26
1,72,92,2
1,60,83,10
1,72,92,2
1,50,63,16
1,65,94,96
1,72,92,2
1,57,57,32
1,74,92,2
1,60,77,14
1,72,92,0
1,36,74,26
1,67,94,0
1,48,71,96
1,70,92,2
1,69,92,72
1,57,62,0
1,60,83,4
1,48,71,14
1,67,92,4
1,65,97,92
1,48,67,8
1,65,92,2
1,62,92,94
1,62,92,0
1,58,97,0
1,34,74,0
1,53,77,0
1,46,33,92
1,65,92,2
1,53,47,24
1,58,81,22
1,53,60,0
1,46,42,0
1,53,77,0
1,58,74,0
1,62,76,0
1,46,51,48
1,34,66,24
1,33,76,0
1,65,81,0
1,45,52,32
1,53,52,18
1,58,76,20
1,45,56,52
1,67,78,96
1,69,83,44
1,70,105,16
1,31,73,0
1,43,67,0
1,53,63,22
1,58,68,16
1,43,42,60
1,62,89,96
1,43,55,72
1,65,89,96
1,43,52,34
1,43,71,14
1,53,62,18
1,58,76,70
1,43,57,66
1,62,89,96
1,53,60,58
1,43,63,14
1,60,92,0
1,60,94,8
1,36,77,0
1,60,92,2
1,64,92,90
1,52,65,88
1,55,79,6
1,64,92,0
1,48,60,96
1,60,89,16
1,65,92,2
1,52,68,0
1,64,92,0
1,55,73,0
1,34,74,18
1,60,92,0
1,46,40,0
1,64,92,0
1,52,66,96
1,55,92,64
1,46,68,22
1,60,92,96
1,52,74,24
1,55,78,2
1,64,92,0
1,60,97,12
1,33,73,0
1,64,92,4
1,45,61,48
1,64,92,2
1,52,67,48
1,64,92,0
1,55,89,58
1,64,92,0
1,60,94,24
1,72,92,0
1,52,66,22
1,72,92,0
1,55,86,10
1,31,74,6
1,60,94,0
1,43,48,50
1,72,92,0
1,52,65,96
1,55,94,24
1,67,92,0
1,67,92,42
1,60,78,48
1,67,92,0
1,52,65,4
1,67,92,0
1,55,94,58
1,65,92,0
1,65,83,0
1,41,71,0
1,69,92,0
1,53,65,88
1,57,33,96
1,57,65,24
1,60,79,0
1,53,56,38
1,57,62,96
1,60,70,0
1,65,72,0
1,60,73,24
1,57,72,0
1,67,73,0
1,57,86,14
1,60,89,0
1,67,89,0
1,67,92,0
1,40,63,40
1,67,92,2
1,52,65,80
1,57,62,26
1,65,76,0
1,60,62,0
1,65,92,0
1,57,68,16
1,67,77,0
1,60,74,0
1,67,92,0
1,52,62,96
1,57,77,0
1,65,81,0
1,60,86,0
1,65,92,0
1,69,92,6
1,60,97,0
1,52,58,0
1,69,92,0
1,38,63,46
1,60,56,0
1,67,66,0
1,67,92,0
1,65,76,0
1,60,66,0
1,65,92,2
1,50,58,198
1,60,63,30
1,65,70,0
1,65,77,0
1,60,66,0
1,65,92,0
1,60,81,0
1,69,94,0
1,36,72,0
1,69,92,2
1,60,50,10
1,69,65,0
1,60,36,6
1,67,74,0
1,67,92,0
1,65,92,20
1,60,72,0
1,65,92,2
1,48,68,20
1,64,92,94
1,60,76,2
1,65,94,0
1,60,72,10
1,64,78,0
1,62,92,2
1,58,94,10
1,62,97,0
1,65,92,0
1,34,65,2
1,46,65,4
1,53,74,82
1,58,77,26
1,53,43,0
1,46,62,24
1,62,76,0
1,58,72,0
1,53,73,0
1,46,36,2
1,34,65,94
1,65,94,36
1,33,70,0
1,45,61,64
1,53,52,52
1,58,67,46
1,45,58,52
1,67,83,96
1,69,89,44
1,70,101,28
1,31,71,72
1,43,55,32
1,53,70,96
1,53,41,34
1,58,72,0
1,43,56,44
1,58,45,10
1,53,61,0
1,62,72,0
1,43,45,34
1,53,50,96
1,65,77,0
1,58,66,0
1,62,92,0
1,43,58,14
1,65,92,2
1,53,43,32
1,65,92,0
1,53,45,46
1,58,60,0
1,53,62,18
1,62,77,0
1,58,62,0
1,43,55,0
1,64,92,0
1,43,55,26
1,62,76,8
1,65,74,0
1,53,86,0
1,58,73,0
1,62,92,0
1,43,37,6
1,60,92,0
1,31,66,70
1,64,92,0
1,60,101,22
1,36,73,0
1,52,37,154
1,55,62,62
1,52,52,0
1,48,60,44
1,52,58,96
1,55,61,0
1,60,73,0
1,52,42,4
1,55,70,32
1,60,94,22
1,34,72,0
1,46,48,50
1,62,92,0
1,52,61,0
1,60,92,0
1,52,55,0
1,55,73,0
1,46,53,40
1,60,76,96
1,52,68,0
1,55,74,0
1,52,61,0
1,55,73,34
1,60,89,16
1,33,76,0
1,45,62,44
1,52,47,96
1,55,73,16
1,52,67,0
1,45,63,10
1,52,65,96
1,60,73,0
1,55,76,0
1,52,68,8
1,55,76,22
1,60,94,22
1,31,70,0
1,43,46,50
1,52,62,96
1,55,76,6
1,52,43,0
1,43,60,0
1,52,70,94
1,60,79,0
1,55,83,0
1,52,67,10
1,55,77,96
1,60,92,0
1,65,68,4
1,69,74,0
1,41,73,0
1,72,92,2
1,53,67,20
1,72,92,2
1,57,51,14
1,72,92,2
1,57,37,48
1,60,65,0
1,53,51,50
1,65,73,32
1,57,67,0
1,69,67,0
1,60,74,0
1,53,38,40
1,48,65,0
1,72,92,0
1,64,83,48
1,40,71,0
1,67,77,0
1,72,92,2
1,52,46,72
1,57,43,8
1,74,92,2
1,57,46,52
1,60,67,0
1,72,92,0
1,52,43,52
1,57,77,18
1,60,76,0
1,67,74,0
1,70,92,0
1,52,51,0
1,69,92,0
1,57,66,68
1,65,77,0
1,60,77,0
1,38,71,0
1,69,92,0
1,50,43,0
1,57,32,20
1,57,29,64
1,60,57,0
1,50,39,54
1,57,73,32
1,60,73,0
1,65,76,0
1,50,37,24
1,65,92,0
1,45,61,0
1,65,92,0
1,65,66,26
1,69,71,0
1,57,72,0
1,60,77,0
1,36,61,0
1,69,92,2
1,57,40,18
1,67,92,0
1,60,65,54
1,57,56,0
1,57,60,26
1,65,74,0
1,60,73,0
1,65,92,2
1,48,44,38
1,69,74,8
1,65,76,0
1,57,78,0
1,60,79,0
1,64,92,0
1,48,48,46
1,62,92,0
1,43,68,88
1,34,66,30
1,53,81,0
1,62,86,0
1,58,86,0
1,46,33,2
1,65,92,0
1,53,65,42
1,53,62,60
1,58,78,0
1,46,30,60
1,53,73,66
1,62,74,0
1,58,73,0
1,46,33,6
1,65,92,0
1,34,51,34
1,65,92,0
1,65,77,36
1,33,68,0
1,65,92,4
1,45,68,42
1,65,92,0
1,67,97,52
1,67,92,0
1,45,55,50
1,69,94,32
1,69,92,0
1,70,101,8
1,70,92,0
1,31,72,0
1,53,52,42
1,53,32,52
1,58,51,0
1,70,92,0
1,62,76,54
1,58,71,0
1,53,61,0
1,43,38,32
1,53,55,24
1,58,67,0
1,43,41,30
1,65,78,96
1,53,76,0
1,58,78,0
1,31,65,6
1,53,52,86
1,58,29,62
1,53,35,0
1,62,73,60
1,58,86,0
1,53,63,0
1,43,47,8
1,53,41,28
1,60,73,0
1,58,53,0
1,43,58,16
1,43,66,50
1,36,65,4
1,52,73,0
1,55,77,0
