track,note,velocity,time
1,31,93,768
1,31,80,42
1,31,89,52
1,31,89,43
1,31,85,41
1,31,80,48
1,31,89,51
1,31,76,47
1,31,85,45
1,31,85,48
1,31,80,47
1,31,85,44
1,31,85,44
1,31,85,52
1,31,85,49
1,31,80,47
1,31,85,48
1,31,80,44
1,31,85,45
1,31,80,48
1,31,85,50
1,31,76,47
1,31,85,50
1,31,80,51
1,31,89,48
1,31,76,48
1,31,85,50
1,31,89,47
1,31,89,48
1,31,89,50
1,31,89,52
1,31,89,50
1,31,98,52
1,31,89,40
1,31,85,49
1,31,68,48
1,31,80,47
1,31,85,44
1,31,85,53
1,31,89,45
1,36,80,29
1,36,76,44
1,36,80,47
1,36,76,44
1,36,80,46
1,36,80,48
1,36,93,45
1,36,93,46
1,31,93,16
1,31,76,47
1,31,89,48
1,31,89,47
1,31,85,51
1,31,76,54
1,31,89,47
1,31,93,52
1,36,93,31
1,36,80,51
1,36,89,49
1,36,93,51
1,36,89,55
1,36,93,52
1,36,89,48
1,36,89,48
1,31,98,49
1,31,89,40
1,31,85,49
1,31,68,48
1,31,80,47
1,31,85,44
1,31,85,53
1,31,89,45
1,36,80,29
1,36,76,44
1,36,80,47
1,36,76,44
1,36,80,46
1,36,80,48
1,36,93,45
1,36,93,46
1,31,93,16
1,31,76,47
1,31,89,48
1,31,89,47
1,31,85,51
1,31,76,54
1,31,89,47
1,31,93,52
1,36,93,31
1,36,80,51
1,36,89,49
1,36,93,51
1,36,89,55
1,36,93,52
1,36,89,48
1,36,89,48
1,31,98,49
1,31,89,40
1,31,85,49
1,31,68,48
1,31,80,47
1,31,85,44
1,31,85,53
1,31,89,45
1,36,80,29
1,36,76,44
1,36,80,47
1,36,76,44
1,36,80,46
1,36,80,48
1,36,93,45
1,36,93,46
1,38,93,16
1,38,89,36
1,38,89,36
1,38,89,40
1,38,85,42
1,38,76,40
1,38,76,35
1,38,76,33
1,38,89,36
1,38,80,41
1,38,85,45
1,38,80,40
1,38,93,42
1,33,98,96
1,38,93,11
1,38,89,26
1,31,113,31
1,29,113,624
1,36,119,188
1,31,113,194
1,29,113,572
1,36,102,186
1,36,113,63
1,36,113,41
1,31,113,53
1,29,113,624
1,36,119,188
1,31,113,194
1,29,113,572
1,36,102,186
1,36,113,63
1,36,113,41
1,31,113,53
1,29,113,624
1,114,1,0
1,36,119,188
1,31,113,194
1,29,113,572
1,36,102,186
1,36,113,63
1,36,113,41
1,31,113,53
1,29,113,624
1,36,119,188
1,31,113,194
1,29,113,572
1,36,102,186
1,36,113,63
1,36,113,41
1,36,107,53
1,38,93,1
1,38,102,33
1,36,102,96
1,38,98,4
1,41,102,325
1,41,107,28
1,36,107,112
1,36,107,64
1,36,119,60
1,38,107,11
1,38,102,38
1,36,102,96
1,38,113,9
1,28,127,316
1,40,107,3
1,36,113,93
1,36,119,29
1,36,107,81
1,38,93,1
1,38,102,33
1,36,102,96
1,38,98,4
1,41,102,325
1,41,107,28
1,36,107,112
1,36,107,64
1,36,119,60
1,38,107,11
1,38,102,38
1,36,102,96
1,38,113,9
1,29,107,316
1,29,107,44
1,46,102,74
1,46,102,49
1,43,107,5
1,31,98,25
1,31,89,40
1,31,85,49
1,31,68,48
1,31,80,47
1,31,85,44
1,31,85,53
1,31,89,45
1,36,80,29
1,36,76,44
1,36,80,47
1,36,76,44
1,36,80,46
1,36,80,48
1,36,93,45
1,36,93,46
1,31,93,16
1,31,76,47
1,31,89,48
1,31,89,47
1,31,85,51
1,31,76,54
1,31,89,47
1,31,93,52
1,36,93,31
1,36,80,51
1,36,89,49
1,36,93,51
1,36,89,55
1,36,93,52
1,36,89,48
1,36,89,48
1,31,98,49
1,31,89,40
1,31,85,49
1,31,68,48
1,31,80,47
1,31,85,44
1,31,85,53
1,31,89,45
1,36,80,29
1,36,76,44
1,36,80,47
1,36,76,44
1,36,80,46
1,36,80,48
1,36,93,45
1,36,93,46
1,38,93,16
1,38,89,36
1,38,89,36
1,38,89,40
1,38,85,42
1,38,76,40
1,38,76,35
1,38,76,33
1,38,89,36
1,38,80,41
1,38,85,45
1,38,80,40
1,38,93,42
1,33,98,96
1,38,93,11
1,38,89,26
1,31,113,31
1,29,113,624
1,36,119,188
1,31,113,194
1,29,113,572
1,36,102,186
1,36,113,63
1,36,113,41
1,31,113,53
1,29,113,624
1,36,119,188
1,31,113,194
1,29,113,572
1,36,102,186
1,36,113,63
1,36,113,41
1,31,113,53
1,29,113,624
1,36,119,188
1,31,113,194
1,29,113,572
1,36,102,186
1,36,113,63
1,36,113,41
1,31,113,53
1,29,113,624
1,36,119,188
1,31,113,194
1,29,113,572
1,36,102,186
1,36,113,63
1,36,113,41
1,36,107,53
1,38,93,1
1,38,102,33
1,36,102,96
1,38,98,4
1,41,102,325
1,41,107,28
1,36,107,112
1,36,107,64
1,36,119,60
1,38,107,11
1,38,102,38
1,36,102,96
1,38,113,9
1,28,127,316
1,40,107,3
1,36,113,93
1,36,119,29
1,36,107,81
1,38,93,1
1,38,102,33
1,36,102,96
1,38,98,4
1,41,102,325
1,41,107,28
1,36,107,112
1,36,107,64
1,36,119,60
1,38,107,11
1,38,102,38
1,36,102,96
1,38,113,9
1,29,107,316
1,29,107,44
1,46,102,74
1,46,102,49
1,43,107,5
1,31,98,25
1,31,89,40
1,31,85,49
1,31,68,48
1,31,80,47
1,31,85,44
1,31,85,53
1,31,89,45
1,36,80,29
1,36,76,44
1,36,80,47
1,36,76,44
1,36,80,46
1,36,80,48
1,36,93,45
1,36,93,46
1,31,93,16
1,31,76,47
1,31,89,48
1,31,89,47
1,31,85,51
1,31,76,54
1,31,89,47
1,31,93,52
1,36,93,31
1,36,80,51
1,36,89,49
1,36,93,51
1,36,89,55
1,36,93,52
1,36,89,48
1,36,89,48
1,31,98,49
1,31,89,40
1,31,85,49
1,31,68,48
1,31,80,47
1,31,85,44
1,31,85,53
1,31,89,45
1,36,80,29
1,36,76,44
1,36,80,47
1,36,76,44
1,36,80,46
1,36,80,48
1,36,93,45
1,36,93,46
1,38,93,16
1,38,89,36
1,38,89,36
1,38,89,40
1,38,85,42
1,38,76,40
1,38,76,35
1,38,76,33
1,38,89,36
1,38,80,41
1,38,85,45
1,38,80,40
1,38,93,42
1,33,98,96
1,38,93,11
1,38,89,26
1,31,98,31
1,31,89,40
1,31,85,49
1,31,68,48
1,31,80,47
1,31,85,44
1,31,85,53
1,31,89,45
1,36,80,29
1,36,76,44
1,36,80,47
1,36,76,44
1,36,80,46
1,36,80,48
1,36,93,45
1,36,93,46
1,31,93,16
1,31,76,47
1,31,89,48
1,31,89,47
1,31,85,51
1,31,76,54
1,31,89,47
1,31,93,52
1,36,93,31
1,36,80,51
1,36,89,49
1,36,93,51
1,36,89,55
1,36,93,52
1,36,89,48
1,36,89,48
1,31,98,49
1,31,89,40
1,31,85,49
1,31,68,48
1,31,80,47
1,31,85,44
1,31,85,53
1,31,89,45
1,36,80,29
1,36,76,44
1,36,80,47
1,36,76,44
1,36,80,46
1,36,80,48
1,36,93,45
1,36,93,46
1,38,93,16
1,38,89,36
1,38,89,36
1,38,89,40
1,38,85,42
1,38,76,40
1,38,76,35
1,38,76,33
1,38,89,36
1,38,80,41
1,38,85,45
1,38,80,40
1,38,93,42
1,33,98,96
1,38,93,11
1,38,89,26
1,31,119,31
2,43,93,768
2,50,93,0
2,43,72,57
2,50,76,0
2,43,93,61
2,50,93,0
2,43,93,59
2,50,89,0
2,43,89,62
2,50,85,0
2,43,85,65
2,50,93,0
2,43,76,64
2,50,89,0
2,43,76,61
2,50,89,0
2,55,62,0
2,55,62,66
2,43,80,0
2,50,85,0
2,43,68,61
2,50,76,0
2,55,64,0
2,50,64,63
2,43,72,0
2,55,68,0
2,43,64,66
2,50,80,0
2,55,64,0
2,43,76,64
2,50,89,0
2,55,72,0
2,43,56,64
2,50,80,0
2,55,72,0
2,43,76,65
2,55,68,0
2,50,85,0
2,43,76,64
2,55,68,0
2,50,80,0
2,43,85,64
2,50,85,0
2,55,72,0
2,43,72,61
2,50,80,0
2,55,72,0
2,50,76,60
2,55,76,0
2,43,93,0
2,43,72,60
2,50,72,0
2,55,72,0
2,55,76,62
2,50,85,0
2,43,85,0
2,43,64,61
2,50,68,0
2,55,72,0
2,43,80,66
2,50,85,0
2,55,72,0
2,50,85,60
2,43,85,0
2,55,64,0
2,43,72,60
2,50,76,0
2,55,72,0
2,55,64,58
2,43,72,0
2,50,89,0
2,50,76,61
2,43,85,0
2,55,76,0
2,43,72,60
2,55,72,0
2,50,72,0
2,55,76,61
2,50,80,0
2,43,89,0
2,43,72,63
2,50,76,0
2,55,72,0
2,55,76,58
2,43,72,0
2,50,80,0
2,55,93,60
2,50,93,0
2,43,89,0
2,50,113,55
2,43,113,0
2,43,113,0
2,55,102,0
2,60,102,0
2,55,107,101
2,60,113,0
2,43,113,0
2,59,107,19
2,55,93,167
2,48,93,0
2,60,89,0
2,64,102,0
2,60,85,104
2,64,102,0
2,48,98,0
2,55,102,0
2,65,107,8
2,60,93,0
2,50,113,56
2,43,113,0
2,43,113,20
2,55,107,0
2,60,113,0
2,55,107,86
2,60,113,0
2,43,107,0
2,59,107,11
2,48,107,146
2,60,98,0
2,64,107,0
2,60,107,92
2,64,113,0
2,48,98,0
2,65,107,0
2,50,113,149
2,43,113,0
2,43,113,0
2,55,102,0
2,60,102,0
2,55,107,101
2,60,113,0
2,43,113,0
2,59,107,19
2,55,93,167
2,48,93,0
2,60,89,0
2,64,102,0
2,60,85,104
2,64,102,0
2,48,98,0
2,55,102,0
2,65,107,8
2,60,93,0
2,50,113,56
2,43,113,0
2,43,113,20
2,55,107,0
2,60,113,0
2,55,107,86
2,60,113,0
2,43,107,0
2,59,107,11
2,48,107,146
2,60,98,0
2,64,107,0
2,60,107,92
2,64,113,0
2,48,98,0
2,65,107,0
2,50,113,149
2,43,113,0
2,43,113,0
2,55,102,0
2,60,102,0
2,55,107,101
2,60,113,0
2,43,113,0
2,59,107,19
2,55,93,167
2,48,93,0
2,60,89,0
2,64,102,0
2,60,85,104
2,64,102,0
2,48,98,0
2,55,102,0
2,65,107,8
2,60,93,0
2,57,89,56
2,50,102,0
2,67,107,192
2,62,98,0
2,62,98,104
2,67,113,0
2,50,102,14
2,62,89,0
2,66,107,0
2,57,85,0
2,67,93,96
2,62,93,0
2,50,98,0
2,57,85,0
2,67,102,136
2,62,93,0
2,50,98,0
2,57,89,0
2,66,76,33
2,62,76,0
2,50,107,154
2,43,107,0
2,55,113,0
2,53,119,600
2,48,98,0
2,41,102,0
2,55,98,180
2,48,107,0
2,60,102,0
2,43,102,176
2,50,98,0
2,55,113,0
2,43,119,472
2,50,113,0
2,41,119,24
2,48,102,0
2,53,107,96
2,55,93,169
2,60,113,0
2,48,98,0
2,50,107,209
2,43,107,0
2,55,113,0
2,53,119,600
2,48,98,0
2,41,102,0
2,55,98,180
2,48,107,0
2,60,102,0
2,43,102,176
2,50,98,0
2,55,113,0
2,43,119,472
2,50,113,0
2,41,119,24
2,48,102,0
2,53,107,96
2,55,93,169
2,60,113,0
2,48,98,0
2,50,107,209
2,43,107,0
2,55,113,0
2,53,119,600
2,48,98,0
2,41,102,0
2,55,98,180
2,48,107,0
2,60,102,0
2,43,102,176
2,50,98,0
2,55,113,0
2,43,119,472
2,50,113,0
2,41,119,24
2,48,102,0
2,53,107,96
2,55,93,169
2,60,113,0
2,48,98,0
2,50,107,209
2,43,107,0
2,55,113,0
2,53,119,600
2,48,98,0
2,41,102,0
2,55,98,180
2,48,107,0
2,60,102,0
2,43,102,176
2,50,98,0
2,55,113,0
2,43,119,472
2,50,113,0
2,41,119,24
2,48,102,0
2,53,107,96
2,55,93,169
2,60,113,0
2,48,98,0
2,60,89,209
2,55,98,0
2,48,98,0
2,57,102,18
2,50,98,0
2,62,93,0
2,57,89,33
2,50,102,0
2,62,93,0
2,55,85,8
2,48,102,0
2,60,93,0
2,57,93,15
2,50,93,0
2,62,107,0
2,60,102,289
2,53,98,0
2,57,102,0
2,41,113,0
2,60,107,35
2,53,93,0
2,57,107,0
2,48,113,16
2,60,119,96
2,60,107,88
2,48,107,0
2,62,98,5
2,50,93,0
2,50,107,44
2,62,93,0
2,60,98,4
2,48,93,0
2,62,107,6
2,50,107,0
2,59,113,344
2,52,113,0
2,64,119,0
2,64,107,31
2,52,119,0
2,59,119,0
2,55,98,113
2,60,107,0
2,48,107,0
2,55,113,48
2,48,107,0
2,60,113,0
2,60,89,88
2,55,98,0
2,48,98,0
2,57,102,18
2,50,98,0
2,62,93,0
2,57,89,33
2,50,102,0
2,62,93,0
2,55,85,8
2,48,102,0
2,60,93,0
2,57,93,15
2,50,93,0
2,62,107,0
2,60,102,289
2,53,98,0
2,57,102,0
2,41,113,0
2,60,107,35
2,53,93,0
2,57,107,0
2,48,113,16
2,60,119,96
2,60,107,88
2,48,107,0
2,62,98,5
2,50,93,0
2,50,107,44
2,62,93,0
2,60,98,4
2,48,93,0
2,62,107,6
2,50,107,0
2,48,113,344
2,41,119,0
2,53,113,0
2,53,107,51
2,48,113,0
2,41,119,0
2,58,113,33
2,46,119,0
2,46,119,46
2,58,107,0
2,43,102,10
2,55,113,0
2,50,113,38
2,43,113,0
2,43,113,0
2,55,102,0
2,60,102,0
2,55,107,101
2,60,113,0
2,43,113,0
2,59,107,19
2,55,93,167
2,48,93,0
2,60,89,0
2,64,102,0
2,60,85,104
2,64,102,0
2,48,98,0
2,55,102,0
2,65,107,8
2,60,93,0
2,50,113,56
2,43,113,0
2,43,113,20
2,55,107,0
2,60,113,0
2,55,107,86
2,60,113,0
2,43,107,0
2,59,107,11
2,48,107,146
2,60,98,0
2,64,107,0
2,60,107,92
2,64,113,0
2,48,98,0
2,65,107,0
2,50,113,149
2,43,113,0
2,43,113,0
2,55,102,0
2,60,102,0
2,55,107,101
2,60,113,0
2,43,113,0
2,59,107,19
2,55,93,167
2,48,93,0
2,60,89,0
2,64,102,0
2,60,85,104
2,64,102,0
2,48,98,0
2,55,102,0
2,65,107,8
2,60,93,0
2,57,89,56
2,50,102,0
2,67,107,192
2,62,98,0
2,62,98,104
2,67,113,0
2,50,102,14
2,62,89,0
2,66,107,0
2,57,85,0
2,67,93,96
2,62,93,0
2,50,98,0
2,57,85,0
2,67,102,136
2,62,93,0
2,50,98,0
2,57,89,0
2,66,76,33
2,62,76,0
2,50,107,154
2,43,107,0
2,55,113,0
2,53,119,600
2,48,98,0
2,41,102,0
2,55,98,180
2,48,107,0
2,60,102,0
2,43,102,176
2,50,98,0
2,55,113,0
2,43,119,472
2,50,113,0
2,41,119,24
2,48,102,0
2,53,107,96
2,55,93,169
2,60,113,0
2,48,98,0
2,50,107,209
2,43,107,0
2,55,113,0
2,53,119,600
2,48,98,0
2,41,102,0
2,55,98,180
2,48,107,0
2,60,102,0
2,43,102,176
2,50,98,0
2,55,113,0
2,43,119,472
2,50,113,0
2,41,119,24
2,48,102,0
2,53,107,96
2,55,93,169
2,60,113,0
2,48,98,0
2,50,107,209
2,43,107,0
2,55,113,0
2,53,119,600
2,48,98,0
2,41,102,0
2,55,98,180
2,48,107,0
2,60,102,0
2,43,102,176
2,50,98,0
2,55,113,0
2,43,119,472
2,50,113,0
2,41,119,24
2,48,102,0
2,53,107,96
2,55,93,169
2,60,113,0
2,48,98,0
2,50,107,209
2,43,107,0
2,55,113,0
2,53,119,600
2,48,98,0
2,41,102,0
2,55,98,180
2,48,107,0
2,60,102,0
2,43,102,176
2,50,98,0
2,55,113,0
2,43,119,472
2,50,113,0
2,41,119,24
2,48,102,0
2,53,107,96
2,55,93,169
2,60,113,0
2,48,98,0
2,60,89,209
2,55,98,0
2,48,98,0
2,57,102,18
2,50,98,0
2,62,93,0
2,57,89,33
2,50,102,0
2,62,93,0
2,55,85,8
2,48,102,0
2,60,93,0
2,57,93,15
2,50,93,0
2,62,107,0
2,60,102,289
