track,note,velocity,time
4,33,83,8177
4,33,0,2
4,26,87,24
4,26,0,766
4,35,83,2
4,35,0,754
4,30,83,14
4,30,0,671
4,31,83,1
4,31,0,86
4,33,73,10
4,33,0,760
4,26,101,8
4,26,0,756
4,35,87,12
4,35,0,766
4,31,83,2
4,31,0,754
4,33,83,14
4,33,0,746
4,26,95,22
4,26,0,766
4,35,83,2
4,35,0,754
4,30,83,14
4,30,0,671
4,31,83,1
4,31,0,86
4,33,73,10
4,33,0,760
4,26,101,8
4,26,0,756
4,35,87,12
4,35,0,766
4,31,83,2
4,31,0,754
4,33,83,14
4,33,0,746
4,35,91,22
4,35,0,540
4,35,91,36
4,35,0,190
4,36,91,2
4,36,0,370
4,43,79,14
4,43,0,382
4,33,83,2
4,33,0,658
4,40,53,14
4,40,0,92
4,45,87,4
4,45,0,191
4,33,79,1
4,33,0,287
4,45,69,1
4,45,0,95
4,33,73,1
4,33,0,130
4,32,87,62
4,32,0,516
4,32,91,60
4,32,0,114
4,32,83,78
4,32,0,383
4,44,65,1
4,44,0,190
4,32,79,2
4,32,0,120
4,31,101,72
4,31,0,570
4,43,91,6
4,43,0,94
4,31,87,2
4,31,0,95
4,36,95,1
4,36,0,464
4,36,113,16
4,36,0,64
4,36,95,32
4,36,0,156
4,29,101,36
4,29,0,382
4,41,107,2
4,41,0,190
4,36,95,2
4,36,0,58
4,37,55,38
4,37,0,94
4,38,107,2
4,38,0,364
4,26,91,20
4,26,0,287
4,38,95,1
4,38,0,78
4,33,91,18
4,33,0,383
4,45,83,1
4,45,0,282
4,33,87,6
4,33,0,95
4,36,91,1
4,36,0,356
4,24,95,28
4,24,0,190
4,36,95,2
4,36,0,170
4,41,101,22
4,41,0,556
4,40,91,20
4,40,0,190
4,38,87,2
4,38,0,374
4,36,87,10
4,36,0,362
4,34,101,22
4,34,0,510
4,34,65,66
4,34,0,82
4,35,79,14
4,35,0,95
4,36,95,1
4,36,0,382
4,24,101,2
4,24,0,362
4,29,101,22
4,29,0,382
4,41,107,2
4,41,0,190
4,36,95,2
4,36,0,58
4,37,55,38
4,37,0,94
4,38,107,2
4,38,0,364
4,26,91,20
4,26,0,287
4,38,95,1
4,38,0,78
4,33,91,18
4,33,0,383
4,45,83,1
4,45,0,282
4,33,87,6
4,33,0,95
4,36,91,1
4,36,0,356
4,24,95,28
4,24,0,190
4,36,95,2
4,36,0,170
4,41,101,22
4,41,0,556
4,40,91,20
4,40,0,190
4,38,87,2
4,38,0,374
4,36,87,10
4,36,0,362
4,34,101,22
4,34,0,510
4,34,65,66
4,34,0,82
4,35,79,14
4,35,0,95
4,36,95,1
4,36,0,382
4,24,101,2
4,24,0,362
4,33,95,22
4,33,0,758
4,34,101,10
4,34,0,766
4,29,101,2
4,29,0,748
4,40,87,20
4,40,0,382
4,34,101,2
4,34,0,32
4,33,95,160
4,33,0,730
4,33,83,38
4,33,0,180
4,34,87,12
4,34,0,528
4,34,91,48
4,34,0,118
4,36,107,74
4,36,0,360
4,36,101,24
4,36,0,184
4,24,101,8
4,24,0,182
4,38,107,10
4,38,0,383
4,26,101,1
4,26,0,190
4,38,83,2
4,38,0,95
4,26,95,1
4,26,0,64
4,31,101,32
4,31,0,382
4,43,107,2
4,43,0,190
4,38,95,2
4,38,0,58
4,39,55,38
4,39,0,94
4,40,107,2
4,40,0,364
4,28,91,20
4,28,0,287
4,40,95,1
4,40,0,78
4,35,91,18
4,35,0,383
4,47,83,1
4,47,0,282
4,35,87,6
4,35,0,95
4,38,91,1
4,38,0,356
4,26,95,28
4,26,0,190
4,38,95,2
4,38,0,170
4,43,101,22
4,43,0,556
4,42,91,20
4,42,0,190
4,40,87,2
4,40,0,374
4,38,87,10
4,38,0,362
4,36,101,22
4,36,0,510
4,36,65,66
4,36,0,82
4,37,79,14
4,37,0,95
4,38,95,1
4,38,0,382
4,26,101,2
4,26,0,362
4,31,101,22
4,31,0,382
4,43,107,2
4,43,0,190
4,38,95,2
4,38,0,58
4,39,55,38
4,39,0,94
4,40,107,2
4,40,0,364
4,28,91,20
4,28,0,287
4,40,95,1
4,40,0,78
4,35,91,18
4,35,0,383
4,47,83,1
4,47,0,282
4,35,87,6
4,35,0,95
4,38,91,1
4,38,0,356
4,26,95,28
4,26,0,190
4,38,95,2
4,38,0,170
4,43,101,22
4,43,0,556
4,42,91,20
4,42,0,190
4,40,87,2
4,40,0,374
4,38,87,10
4,38,0,362
4,36,101,22
4,36,0,510
4,36,65,66
4,36,0,82
4,37,79,14
4,37,0,95
4,35,95,1
4,35,0,754
4,36,91,14
4,36,0,382
4,36,95,194
4,36,0,180
4,38,101,12
4,38,0,190
4,26,87,2
4,26,0,287
4,38,95,1
4,38,0,244
4,31,101,44
4,31,0,382
4,43,107,2
4,43,0,190
4,38,95,2
4,38,0,58
4,39,55,38
4,39,0,94
4,40,107,2
4,40,0,364
4,28,91,20
4,28,0,287
4,40,95,1
4,40,0,78
4,35,91,18
4,35,0,383
4,47,83,1
4,47,0,282
4,35,87,6
4,35,0,95
4,38,91,1
4,38,0,356
4,26,95,28
4,26,0,190
4,38,95,2
4,38,0,170
4,43,101,22
4,43,0,556
4,42,91,20
4,42,0,190
4,40,87,2
4,40,0,374
4,38,87,10
4,38,0,362
4,36,101,22
4,36,0,510
4,36,65,66
4,36,0,82
4,37,79,14
4,37,0,95
4,38,95,1
4,38,0,382
4,26,101,2
4,26,0,362
4,31,101,22
4,31,0,382
4,43,107,2
4,43,0,190
4,38,95,2
4,38,0,58
4,39,55,38
4,39,0,94
4,40,107,2
4,40,0,364
4,28,91,20
4,28,0,287
4,40,95,1
4,40,0,78
4,35,91,18
4,35,0,383
4,47,83,1
4,47,0,282
4,35,87,6
4,35,0,95
4,38,91,1
4,38,0,356
4,26,95,28
4,26,0,190
4,38,95,2
4,38,0,170
4,43,101,22
4,43,0,556
4,42,91,20
4,42,0,190
4,40,87,2
4,40,0,374
4,38,87,10
4,38,0,362
4,36,101,22
4,36,0,510
4,36,65,66
4,36,0,82
4,37,79,14
4,37,0,95
4,38,95,1
4,38,0,382
4,26,101,2
4,26,0,362
4,35,95,22
4,35,0,758
4,36,101,10
4,36,0,766
4,31,101,2
4,31,0,748
4,42,87,20
4,42,0,382
4,36,101,2
4,36,0,32
4,35,95,160
4,35,0,730
4,35,83,38
4,35,0,180
4,36,87,12
4,36,0,528
4,36,91,48
4,36,0,118
4,38,107,74
4,38,0,344
4,38,87,40
4,38,0,287
4,26,101,1
4,26,0,24
4,26,101,72
4,26,0,287
4,38,69,1
4,38,0,36
4,38,107,60
4,38,0,191
4,26,87,1
4,26,0,124
4,31,101,68
4,31,0,382
4,43,107,2
4,43,0,190
4,38,95,2
4,38,0,58
4,39,55,38
4,39,0,94
4,40,107,2
4,40,0,364
4,28,91,20
4,28,0,287
4,40,95,1
4,40,0,78
4,35,91,18
4,35,0,383
4,47,83,1
4,47,0,282
4,35,87,6
4,35,0,95
4,38,91,1
4,38,0,356
4,26,95,28
4,26,0,190
4,38,95,2
4,38,0,170
4,43,101,22
4,43,0,556
4,42,91,20
4,42,0,190
4,40,87,2
4,40,0,374
4,38,87,10
4,38,0,362
4,36,101,22
4,36,0,510
4,36,65,66
4,36,0,82
4,37,79,14
4,37,0,95
4,38,95,1
4,38,0,382
4,26,101,2
4,26,0,362
4,31,101,22
4,31,0,382
4,43,107,2
4,43,0,190
4,38,95,2
4,38,0,58
4,39,55,38
4,39,0,94
4,40,107,2
4,40,0,364
4,28,91,20
4,28,0,287
4,40,95,1
4,40,0,78
4,35,91,18
4,35,0,383
4,47,83,1
4,47,0,282
4,35,87,6
4,35,0,95
4,38,91,1
4,38,0,356
4,26,95,28
4,26,0,190
4,38,95,2
4,38,0,170
4,43,101,22
4,43,0,556
4,42,91,20
4,42,0,190
4,40,87,2
4,40,0,374
4,38,87,10
4,38,0,362
4,36,101,22
4,36,0,510
4,36,65,66
4,36,0,82
4,37,79,14
4,37,0,95
4,38,95,1
4,38,0,382
4,26,101,2
4,26,0,362
4,31,101,0
4,31,0,54
4,43,107,2
4,43,0,48
4,38,95,2
4,38,0,42
4,39,55,15
4,39,0,43
4,40,107,2
4,40,0,14
4,28,91,20
4,28,0,58
4,40,95,1
4,40,0,6
4,35,91,18
4,35,0,12
4,47,83,1
4,47,0,32
4,35,87,6
4,35,0,1
4,38,91,1
4,38,0,30
4,26,95,28
4,26,0,50
4,38,95,2
4,38,0,25
4,43,101,22
4,43,0,11
4,42,91,20
4,42,0,24
4,40,87,2
4,40,0,5
4,38,87,10
4,38,0,48
4,36,101,4
4,36,0,54
4,36,65,54
4,36,0,4
4,37,79,14
4,37,0,47
4,38,95,1
4,38,0,36
4,26,101,2
4,26,0,5
4,36,91,22
4,36,0,14
4,36,95,11
4,36,0,60
5,62,81,144
5,69,85,0
5,74,99,0
5,78,77,0
5,81,91,0
5,78,0,730
5,81,0,0
5,69,0,4
5,74,0,6
5,62,0,6
5,59,99,20
5,69,91,0
5,74,85,0
5,78,85,0
5,74,0,720
5,78,0,0
5,69,0,4
5,59,0,6
5,54,85,36
5,66,77,0
5,69,99,0
5,73,69,0
5,78,37,0
5,54,0,724
5,73,0,0
5,69,0,4
5,66,0,10
5,78,0,2
5,57,77,26
5,67,81,0
5,73,99,0
5,78,95,0
5,76,81,382
5,73,0,270
5,78,0,0
5,67,0,6
5,57,0,4
5,76,0,2
5,62,81,102
5,69,85,0
5,74,99,0
5,78,77,0
5,81,91,0
5,78,0,730
5,81,0,0
5,69,0,4
5,74,0,6
5,62,0,6
5,59,99,20
5,69,91,0
5,74,85,0
5,78,85,0
5,74,0,720
5,78,0,0
5,69,0,4
5,59,0,6
5,55,95,36
5,67,91,0
5,71,99,0
5,74,85,0
5,67,0,708
5,71,0,2
5,74,0,4
5,55,0,30
5,57,81,22
5,69,95,0
5,74,95,0
5,74,0,376
5,73,81,6
5,57,0,322
5,69,0,6
5,73,0,2
5,62,91,54
5,69,95,0
5,74,103,0
5,78,67,0
5,81,85,0
5,74,0,708
5,69,0,2
5,78,0,0
5,81,0,4
5,62,0,16
5,59,99,36
5,69,99,0
5,74,85,0
5,78,77,0
5,81,81,0
5,74,0,692
5,69,0,16
5,78,0,0
5,81,0,2
5,59,0,12
5,54,85,44
5,69,91,0
5,73,95,0
5,78,81,0
5,81,81,0
5,78,0,680
5,73,0,2
5,54,0,2
5,69,0,0
5,81,0,4
5,57,91,78
5,67,95,0
5,73,95,0
5,78,81,0
5,76,95,382
5,76,0,278
5,67,0,16
5,73,0,2
5,78,0,4
5,57,0,4
5,62,81,80
5,69,85,0
5,74,99,0
5,78,77,0
5,81,91,0
5,78,0,730
5,81,0,0
5,69,0,4
5,74,0,6
5,62,0,6
5,59,99,20
5,69,91,0
5,74,85,0
5,78,85,0
5,74,0,720
5,78,0,0
5,69,0,4
5,59,0,6
5,55,95,36
5,67,91,0
5,71,99,0
5,74,85,0
5,67,0,708
5,71,0,2
5,74,0,4
5,55,0,30
5,57,81,22
5,69,95,0
5,74,95,0
5,74,0,376
5,73,81,6
5,57,0,322
5,69,0,6
5,73,0,2
5,50,77,2
5,57,77,0
5,62,95,0
5,66,65,0
5,57,0,736
5,66,0,2
5,62,0,2
5,50,0,26
5,47,77,2
5,57,65,0
5,62,81,0
5,66,67,0
5,62,0,684
5,57,0,18
5,66,0,14
5,47,0,50
5,42,81,2
5,54,67,0
5,57,91,0
5,61,95,0
5,66,81,0
5,54,0,426
5,61,0,28
5,54,81,26
5,57,0,8
5,57,81,88
5,61,99,96
5,57,0,60
5,42,0,4
5,61,0,4
5,54,0,12
5,66,0,4
5,45,91,12
5,55,91,0
5,61,81,0
5,66,91,0
5,64,91,384
5,66,0,34
5,61,0,290
5,55,0,8
5,45,0,10
5,64,0,2
5,38,99,40
5,57,99,0
5,62,99,0
5,66,81,0
5,57,0,724
5,62,0,8
5,66,0,6
5,38,0,18
5,47,95,12
5,57,77,0
5,62,85,0
5,66,73,0
5,62,0,692
5,66,0,6
5,57,0,4
5,47,0,2
5,43,91,64
5,55,99,0
5,59,61,0
5,62,95,0
5,66,77,0
5,55,0,326
5,55,73,58
5,59,0,0
5,62,0,20
5,59,91,76
5,66,0,46
5,62,99,50
5,66,95,96
5,43,0,78
5,62,0,6
5,59,0,4
5,66,0,2
5,55,0,4
5,45,99,2
5,57,103,0
5,62,107,0
5,61,99,384
5,62,0,0
5,45,0,298
5,57,0,6
5,61,0,12
5,50,91,68
5,54,81,0
5,57,77,0
5,64,95,0
5,64,0,360
5,62,85,24
5,50,0,326
5,57,0,4
5,54,0,2
5,62,0,26
5,47,85,26
5,54,81,0
5,57,81,0
5,61,95,0
5,61,0,378
5,62,77,6
5,47,0,334
5,54,0,2
5,57,0,2
5,62,0,2
5,42,81,44
5,54,61,0
5,57,67,0
5,61,81,0
5,54,0,402
5,54,95,78
5,57,0,18
5,61,0,60
5,57,99,18
5,61,91,96
5,61,0,95
5,45,81,1
5,55,95,0
5,61,67,0
5,66,85,0
5,61,0,2
5,42,0,6
5,54,0,8
5,57,0,0
5,64,81,33
5,66,0,16
5,64,0,256
5,55,0,4
5,45,0,2
5,38,99,106
5,57,99,0
5,62,99,0
5,66,81,0
5,57,0,72
5,62,0,8
5,66,0,6
5,38,0,18
5,47,95,12
5,57,77,0
5,62,85,0
5,66,73,0
5,62,0,613
5,66,0,6
5,57,0,4
5,47,0,2
5,43,91,64
5,55,99,0
5,59,61,0
5,62,95,0
5,66,77,0
5,55,0,326
5,55,73,58
5,59,0,0
5,62,0,20
5,59,91,76
5,66,0,46
5,62,99,50
5,66,95,96
5,43,0,78
5,62,0,6
5,59,0,4
5,66,0,2
5,55,0,4
5,45,99,2
5,57,103,0
5,62,107,0
5,61,99,384
5,62,0,0
5,45,0,298
5,57,0,6
5,61,0,12
5,38,81,68
5,69,95,0
5,61,81,192
5,62,95,96
5,61,0,22
5,69,0,136
5,69,95,34
5,69,0,248
5,62,0,10
5,38,0,12
5,43,67,18
5,62,61,0
5,69,65,0
5,61,81,192
5,69,0,42
5,62,0,24
5,61,0,26
5,62,81,4
5,69,91,192
5,69,0,236
5,43,0,40
5,38,61,12
5,69,81,0
5,61,77,192
5,69,0,18
5,62,0,26
5,62,81,52
5,61,0,38
5,69,81,154
5,62,0,200
5,69,0,36
5,38,0,40
5,37,65,12
5,57,63,0
5,61,65,0
5,64,57,0
5,57,0,318
5,61,0,8
5,64,0,10
5,43,107,48
5,59,95,0
5,62,67,0
5,67,95,0
5,37,0,8
5,62,0,8
5,59,0,12
5,67,0,4
5,43,0,2
5,38,77,158
5,57,53,0
5,62,81,0
5,66,77,0
5,57,0,168
5,69,99,24
5,62,0,18
5,66,0,8
5,61,65,166
5,62,81,96
5,69,0,20
5,61,0,32
5,69,73,140
5,69,0,252
5,62,0,14
5,43,77,22
5,62,61,0
5,69,67,0
5,38,0,4
5,61,73,188
5,69,0,18
5,62,0,12
5,62,77,66
5,61,0,30
5,69,81,162
5,69,0,194
5,62,0,4
5,43,0,12
5,45,81,78
5,62,95,0
5,69,99,0
5,62,0,236
5,62,85,52
5,62,0,454
5,45,0,668
5,69,0,0
5,50,77,126
5,57,77,0
5,62,95,0
5,66,65,0
5,57,0,736
5,66,0,2
5,62,0,2
5,50,0,26
5,47,77,2
5,57,65,0
5,62,81,0
5,66,67,0
5,62,0,684
5,57,0,18
5,66,0,14
5,47,0,50
5,42,81,2
5,54,67,0
5,57,91,0
5,61,95,0
5,66,81,0
5,54,0,426
5,61,0,28
5,54,81,26
5,57,0,8
5,57,81,88
5,61,99,96
5,57,0,60
5,42,0,4
5,61,0,4
5,54,0,12
5,66,0,4
5,45,91,12
5,55,91,0
5,61,81,0
5,66,91,0
5,64,91,384
5,66,0,34
5,61,0,290
5,55,0,8
5,45,0,10
5,64,0,2
5,38,99,40
5,57,99,0
5,62,99,0
5,66,81,0
5,57,0,724
5,62,0,8
