track,note,velocity,time
3,25,99,156
3,25,0,756
3,34,95,12
3,34,0,744
3,29,95,24
3,29,0,758
3,30,89,10
3,32,93,576
3,30,0,2
3,32,0,189
3,25,97,1
3,25,0,759
3,34,93,9
3,34,0,764
3,29,95,4
3,29,0,759
3,30,92,9
3,32,97,576
3,30,0,1
3,32,0,187
3,25,95,4
3,25,0,718
3,32,81,2
3,32,0,3
3,32,91,21
3,32,0,3
3,34,90,21
3,34,0,718
3,32,87,2
3,32,0,3
3,32,87,21
3,32,0,3
3,30,87,21
3,30,0,694
3,30,96,26
3,30,0,3
3,30,93,21
3,30,0,3
3,32,90,21
3,32,0,694
3,32,84,26
3,32,0,3
3,34,91,21
3,34,0,3
3,25,95,21
3,25,0,718
3,32,81,2
3,32,0,3
3,32,91,21
3,32,0,3
3,34,90,21
3,34,0,718
3,32,87,2
3,32,0,3
3,32,87,21
3,32,0,3
3,30,87,21
3,30,0,694
3,30,96,26
3,30,0,3
3,30,93,21
3,30,0,3
3,32,90,21
3,32,0,694
3,32,84,26
3,32,0,3
3,32,91,21
3,32,0,3
3,34,90,21
3,34,0,718
3,32,81,2
3,32,0,3
3,32,91,21
3,32,0,3
3,32,90,21
3,32,0,718
3,34,87,2
3,34,0,3
3,32,87,21
3,32,0,3
3,30,87,21
3,30,0,694
3,30,96,26
3,30,0,3
3,32,93,21
3,32,0,3
3,25,95,21
3,25,0,694
3,25,84,26
3,25,0,3
3,25,91,21
3,25,0,3
3,27,95,21
3,27,0,718
3,27,81,2
3,27,0,3
3,27,91,21
3,27,0,3
3,30,90,21
3,30,0,718
3,30,87,2
3,30,0,3
3,32,87,21
3,32,0,3
3,34,87,21
3,34,0,379
3,32,87,8
3,30,96,333
3,30,0,3
3,32,0,1
3,30,93,20
3,30,0,3
3,30,90,21
3,30,0,715
3,25,84,5
3,25,0,3
3,25,91,21
3,25,0,3
3,30,90,21
3,30,0,715
3,25,99,53
3,25,0,756
3,34,95,12
3,34,0,744
3,29,95,24
3,29,0,758
3,30,89,10
3,32,93,576
3,30,0,2
3,32,0,189
3,25,95,1
3,25,0,718
3,32,81,2
3,32,0,3
3,32,91,21
3,32,0,3
3,34,90,21
3,34,0,718
3,32,87,2
3,32,0,3
3,32,87,21
3,32,0,3
3,30,87,21
3,30,0,694
3,30,96,26
3,30,0,3
3,30,93,21
3,30,0,3
3,32,90,21
3,32,0,694
3,32,84,26
3,32,0,3
3,34,91,21
3,34,0,3
3,25,95,21
3,25,0,718
3,32,81,2
3,32,0,3
3,32,91,21
3,32,0,3
3,34,90,21
3,34,0,718
3,32,87,2
3,32,0,3
3,32,87,21
3,32,0,3
3,30,87,21
3,30,0,694
3,30,96,26
3,30,0,3
3,30,93,21
3,30,0,3
3,32,90,21
3,32,0,694
3,32,84,26
3,32,0,3
3,32,91,21
3,32,0,3
3,34,90,21
3,34,0,718
3,32,81,2
3,32,0,3
3,32,91,21
3,32,0,3
3,32,90,21
3,32,0,718
3,34,87,2
3,34,0,3
3,32,87,21
3,32,0,3
3,30,87,21
3,30,0,694
3,30,96,26
3,30,0,3
3,32,93,21
3,32,0,3
3,25,95,21
3,25,0,694
3,25,84,26
3,25,0,3
3,25,91,21
3,25,0,3
3,27,95,21
3,27,0,718
3,27,81,2
3,27,0,3
3,27,91,21
3,27,0,3
3,30,90,21
3,30,0,718
3,30,87,2
3,30,0,3
3,32,87,21
3,32,0,3
3,34,87,21
3,34,0,379
3,32,87,8
3,30,96,333
3,30,0,3
3,32,0,1
3,30,93,20
3,30,0,3
3,30,90,21
3,30,0,715
3,25,84,5
3,25,0,3
3,25,91,21
3,25,0,3
3,30,90,21
3,30,0,715
3,27,99,53
3,27,0,756
3,36,95,12
3,36,0,744
3,31,95,24
3,31,0,758
3,32,89,10
3,34,93,576
3,32,0,2
3,34,0,189
3,27,97,1
3,27,0,759
3,36,93,9
3,36,0,764
3,31,95,4
3,31,0,759
3,32,92,9
3,32,0,575
3,32,97,1
3,32,0,1
3,25,95,191
3,25,0,718
3,32,81,2
3,32,0,3
3,32,91,21
3,32,0,3
3,34,90,21
3,34,0,718
3,32,87,2
3,32,0,3
3,32,87,21
3,32,0,3
3,30,87,21
3,30,0,694
3,30,96,26
3,30,0,3
3,30,93,21
3,30,0,3
3,32,90,21
3,32,0,694
3,32,84,26
3,32,0,3
3,34,91,21
3,34,0,3
3,25,95,21
3,25,0,718
3,32,81,2
3,32,0,3
3,32,91,21
3,32,0,3
3,34,90,21
3,34,0,718
3,32,87,2
3,32,0,3
3,32,87,21
3,32,0,3
3,30,87,21
3,30,0,694
3,30,96,26
3,30,0,3
3,30,93,21
3,30,0,3
3,32,90,21
3,32,0,694
3,32,84,26
3,32,0,3
3,32,91,21
3,32,0,3
3,34,90,21
3,34,0,718
3,32,81,2
3,32,0,3
3,32,91,21
3,32,0,3
3,32,90,21
3,32,0,718
3,34,87,2
3,34,0,3
3,32,87,21
3,32,0,3
3,30,87,21
3,30,0,694
3,30,96,26
3,30,0,3
3,32,93,21
3,32,0,3
3,25,95,21
3,25,0,694
3,25,84,26
3,25,0,3
3,25,91,21
3,25,0,3
3,27,95,21
3,27,0,718
3,27,81,2
3,27,0,3
3,27,91,21
3,27,0,3
3,30,90,21
3,30,0,718
3,30,87,2
3,30,0,3
3,32,87,21
3,32,0,3
3,34,87,21
3,34,0,379
3,32,87,8
3,30,96,333
3,30,0,3
3,32,0,1
3,30,93,20
3,30,0,3
3,30,90,21
3,30,0,715
3,25,84,5
3,25,0,3
3,25,91,21
3,25,0,3
3,30,90,21
3,30,0,715
3,25,99,53
3,25,0,756
3,34,95,12
3,34,0,744
3,29,95,24
3,29,0,758
3,30,89,10
3,34,93,576
3,30,0,2
3,34,0,189
3,27,97,1
3,27,0,759
3,36,93,9
3,36,0,764
3,31,95,4
3,31,0,759
3,32,92,9
3,34,97,576
3,32,0,1
3,34,0,187
3,27,97,4
3,27,0,759
3,36,93,9
3,36,0,764
3,31,95,4
3,31,0,759
3,32,92,9
3,34,97,576
3,32,0,1
3,34,0,187
3,27,97,4
3,27,0,7
4,56,82,120
4,61,83,0
4,65,81,0
4,56,0,766
4,61,0,0
4,65,0,0
4,58,83,2
4,61,68,0
4,65,68,0
4,58,0,766
4,61,0,0
4,65,0,0
4,56,81,2
4,60,81,0
4,65,80,0
4,56,0,766
4,60,0,0
4,65,0,0
4,58,81,2
4,61,81,0
4,66,78,0
4,58,0,766
4,61,0,0
4,66,0,0
4,56,82,2
4,61,83,0
4,65,81,0
4,56,0,766
4,61,0,0
4,65,0,0
4,58,83,2
4,61,68,0
4,65,68,0
4,58,0,766
4,61,0,0
4,65,0,0
4,56,81,2
4,60,81,0
4,65,80,0
4,56,0,766
4,60,0,0
4,65,0,0
4,58,81,2
4,61,81,0
4,66,78,0
4,58,0,766
4,61,0,0
4,66,0,0
4,56,82,0
4,61,83,0
4,65,81,0
4,56,0,622
4,61,0,0
4,65,0,0
4,58,81,2
4,61,75,0
4,65,80,0
4,58,0,766
4,61,0,0
4,65,0,0
4,58,81,2
4,61,81,0
4,66,80,0
4,58,0,766
4,61,0,0
4,66,0,0
4,61,81,2
4,63,81,0
4,68,78,0
4,61,0,382
4,60,81,2
4,63,0,382
4,68,0,0
4,60,0,0
4,56,82,2
4,61,83,0
4,65,81,0
4,56,0,766
4,61,0,0
4,65,0,0
4,58,81,2
4,61,75,0
4,65,80,0
4,58,0,766
4,61,0,0
4,65,0,0
4,58,81,2
4,61,81,0
4,66,80,0
4,58,0,766
4,61,0,0
4,66,0,0
4,61,81,2
4,63,81,0
4,68,78,0
4,61,0,382
4,60,81,2
4,63,0,382
4,68,0,0
4,60,0,0
4,58,89,2
4,61,88,0
4,65,89,0
4,58,0,766
4,61,0,0
4,65,0,0
4,56,89,2
4,60,88,0
4,63,88,0
4,56,0,766
4,60,0,0
4,63,0,0
4,54,89,2
4,58,89,0
4,61,89,0
4,54,0,766
4,58,0,0
4,61,0,0
4,53,89,2
4,56,89,0
4,61,89,0
4,53,0,149
4,56,0,0
4,61,0,0
4,55,89,2
4,58,90,0
4,63,89,0
4,55,0,766
4,63,0,0
4,61,90,2
4,66,89,0
4,66,0,766
4,65,89,2
4,58,0,382
4,61,0,0
4,65,0,0
4,56,89,2
4,60,89,0
4,63,89,0
4,60,0,382
4,63,0,0
4,54,89,2
4,61,89,0
4,56,0,382
4,58,88,2
4,58,0,130
4,60,88,2
4,60,0,382
4,58,88,2
4,54,0,10
4,61,0,0
4,58,0,0
4,56,82,2
4,61,83,0
4,65,81,0
4,56,0,766
4,61,0,0
4,65,0,0
4,58,83,2
4,61,68,0
4,65,68,0
4,58,0,766
4,61,0,0
4,65,0,0
4,56,81,2
4,60,81,0
4,65,80,0
4,56,0,766
4,60,0,0
4,65,0,0
4,58,81,2
4,61,81,0
4,66,78,0
4,58,0,766
4,61,0,0
4,66,0,0
4,56,82,2
4,61,83,0
4,65,81,0
4,56,0,294
4,61,0,0
4,65,0,0
4,58,81,2
4,61,75,0
4,65,80,0
4,58,0,766
4,61,0,0
4,65,0,0
4,58,81,2
4,61,81,0
4,66,80,0
4,58,0,766
4,61,0,0
4,66,0,0
4,61,81,2
4,63,81,0
4,68,78,0
4,61,0,382
4,60,81,2
4,63,0,382
4,68,0,0
4,60,0,0
4,56,82,2
4,61,83,0
4,65,81,0
4,56,0,766
4,61,0,0
4,65,0,0
4,58,81,2
4,61,75,0
4,65,80,0
4,58,0,766
4,61,0,0
4,65,0,0
4,58,81,2
4,61,81,0
4,66,80,0
4,58,0,766
4,61,0,0
4,66,0,0
4,61,81,2
4,63,81,0
4,68,78,0
4,61,0,382
4,60,81,2
4,63,0,382
4,68,0,0
4,60,0,0
4,58,89,2
4,61,88,0
4,65,89,0
4,58,0,766
4,61,0,0
4,65,0,0
4,56,89,2
4,60,88,0
4,63,88,0
4,56,0,766
4,60,0,0
4,63,0,0
4,54,89,2
4,58,89,0
4,61,89,0
4,54,0,766
4,58,0,0
4,61,0,0
4,53,89,2
4,56,89,0
4,61,89,0
4,53,0,766
4,56,0,0
4,61,0,0
4,55,89,2
4,58,90,0
4,63,89,0
4,55,0,766
4,63,0,0
4,61,90,2
4,66,89,0
4,66,0,766
4,65,89,2
4,58,0,382
4,61,0,0
4,65,0,0
4,56,89,2
4,60,89,0
4,63,89,0
4,60,0,382
4,63,0,0
4,54,89,2
4,61,89,0
4,56,0,382
4,58,88,2
4,58,0,212
4,60,88,2
4,60,0,130
4,58,88,2
4,54,0,204
4,61,0,0
4,58,0,0
4,58,82,2
4,63,83,0
4,67,81,0
4,58,0,571
4,63,0,0
4,67,0,0
4,60,83,2
4,63,68,0
4,67,68,0
4,60,0,766
4,63,0,0
4,67,0,0
4,58,81,2
4,62,81,0
4,67,80,0
4,58,0,766
4,62,0,0
4,67,0,0
4,60,81,2
4,63,81,0
4,68,78,0
4,60,0,766
4,63,0,0
4,68,0,0
4,58,82,2
4,63,83,0
4,67,81,0
4,58,0,766
4,63,0,0
4,67,0,0
4,60,83,2
4,63,68,0
4,67,68,0
4,60,0,766
4,63,0,0
4,67,0,0
4,58,81,2
4,62,81,0
4,67,80,0
4,58,0,766
4,62,0,0
4,67,0,0
4,60,81,2
4,63,81,0
4,68,78,0
4,60,0,766
4,63,0,0
4,68,0,0
4,56,82,2
4,61,83,0
4,65,81,0
4,56,0,766
4,61,0,0
4,65,0,0
4,58,81,2
4,61,75,0
4,65,80,0
4,58,0,766
4,61,0,0
4,65,0,0
4,58,81,2
4,61,81,0
4,66,80,0
4,58,0,766
4,61,0,0
4,66,0,0
4,61,81,2
4,63,81,0
4,68,78,0
4,61,0,382
4,60,81,2
4,63,0,382
4,68,0,0
4,60,0,0
4,56,82,2
4,61,83,0
4,65,81,0
4,56,0,766
4,61,0,0
4,65,0,0
4,58,81,2
4,61,75,0
4,65,80,0
4,58,0,766
4,61,0,0
4,65,0,0
4,58,81,2
4,61,81,0
4,66,80,0
4,58,0,766
4,61,0,0
4,66,0,0
4,61,81,2
4,63,81,0
4,68,78,0
4,61,0,382
4,60,81,2
4,63,0,382
4,68,0,0
4,60,0,0
4,58,89,2
4,61,88,0
4,65,89,0
4,58,0,766
4,61,0,0
4,65,0,0
4,56,89,2
4,60,88,0
4,63,88,0
4,56,0,766
4,60,0,0
4,63,0,0
4,54,89,2
4,58,89,0
4,61,89,0
4,54,0,766
4,58,0,0
4,61,0,0
4,53,89,2
4,56,89,0
4,61,89,0
4,53,0,766
4,56,0,0
4,61,0,0
4,55,89,2
4,58,90,0
4,63,89,0
4,55,0,766
4,63,0,0
4,61,90,2
4,66,89,0
4,66,0,766
4,65,89,2
4,58,0,382
4,61,0,0
4,65,0,0
4,56,89,2
4,60,89,0
4,63,89,0
4,60,0,382
4,63,0,0
4,54,89,2
4,61,89,0
4,56,0,382
4,58,88,2
4,58,0,382
4,60,88,2
4,60,0,382
4,58,88,2
4,54,0,382
4,61,0,0
4,58,0,0
4,56,82,2
4,61,83,0
4,65,81,0
4,56,0,766
4,61,0,0
4,65,0,0
4,58,83,2
4,61,68,0
4,65,68,0
4,58,0,766
4,61,0,0
4,65,0,0
4,56,81,2
4,60,81,0
4,65,80,0
4,56,0,766
4,60,0,0
4,65,0,0
4,58,81,2
4,61,81,0
4,66,78,0
4,58,0,766
4,61,0,0
4,66,0,0
4,58,82,2
4,63,83,0
4,67,81,0
4,58,0,766
4,63,0,0
4,67,0,0
4,60,83,2
4,63,68,0
4,67,68,0
4,60,0,766
4,63,0,0
4,67,0,0
4,58,81,2
4,62,81,0
4,67,80,0
4,58,0,766
4,62,0,0
4,67,0,0
4,60,81,2
4,63,81,0
4,68,78,0
4,60,0,766
4,63,0,0
4,68,0,0
4,58,82,2
4,63,83,0
4,67,81,0
4,58,0,766
4,63,0,0
4,67,0,0
4,60,83,2
4,63,68,0
4,67,68,0
4,60,0,766
4,63,0,0
4,67,0,0
4,58,81,2
4,62,81,0
4,67,80,0
4,58,0,766
4,62,0,0
4,67,0,0
4,60,81,2
4,63,81,0
4,68,78,0
4,60,0,766
4,63,0,0
4,68,0,0
4,58,82,2
4,63,83,0
4,67,81,0
4,58,0,14
4,63,0,0
4,67,0,0
5,65,101,6166
5,65,0,18
5,65,118,32
5,65,0,34
5,68,108,6
5,68,0,16
5,68,108,16
5,68,0,73
5,65,106,3
5,65,0,43
5,68,111,3
5,68,0,73
5,65,99,170
5,65,0,16
5,65,118,31
5,65,0,35
5,66,108,10
5,66,0,33
5,68,103,4
5,68,0,43
5,61,89,4
5,61,0,11
5,65,104,588
5,65,0,19
5,66,103,30
5,66,0,37
5,68,111,12
5,68,0,41
5,61,78,6
5,61,0,14
5,68,91,32
5,68,0,14
5,68,108,30
5,68,0,34
5,68,114,16
5,68,0,31
5,68,111,14
5,68,0,27
5,68,108,21
5,68,0,90
5,68,101,20
5,68,0,16
5,68,114,29
5,68,0,19
5,68,117,29
5,68,0,41
5,70,120,10
5,70,0,38
5,72,104,7
5,72,0,27
5,72,114,22
5,68,88,36
5,72,0,1
5,68,0,35
5,65,104,686
5,65,0,16
5,65,112,31
5,65,0,36
5,68,108,13
5,68,0,18
5,68,103,17
5,68,0,65
5,65,99,9
5,65,0,36
5,68,106,11
5,68,0,83
5,73,114,161
5,73,0,28
5,73,108,18
5,73,0,27
5,72,112,18
5,72,0,25
5,72,112,0
5,72,0,64
5,68,97,14
5,68,0,38
5,65,101,588
5,65,0,28
5,66,105,19
5,66,0,39
5,68,114,9
5,68,0,44
5,61,85,5
5,61,0,19
5,68,90,29
5,68,0,29
5,68,99,17
5,68,0,28
5,68,114,20
5,68,0,33
5,68,108,14
5,68,0,27
5,68,111,23
5,68,0,93
5,68,103,7
5,68,0,19
5,68,105,26
5,68,0,19
5,68,114,28
5,68,0,38
5,70,111,13
5,70,0,35
5,72,104,10
5,72,0,25
5,72,114,23
5,72,0,36
5,68,89,2
5,68,0,37
