track,note,velocity,time
0,36,115,209
0,48,115,0
0,52,96,0
0,55,100,0
0,60,93,0
0,36,85,0
0,55,79,0
0,60,79,0
0,64,79,0
0,43,70,96
0,55,92,1
0,60,92,0
0,64,92,0
0,55,79,1
0,60,79,0
0,64,79,0
0,43,65,1
0,48,65,0
0,52,65,0
0,55,79,0
0,60,79,0
0,64,79,0
0,55,92,1
0,59,92,0
0,62,92,0
0,55,79,1
0,59,79,0
0,62,79,0
0,31,115,1
0,43,115,0
0,50,85,0
0,55,98,0
0,59,100,0
0,43,85,0
0,55,79,0
0,59,79,0
0,62,79,0
0,53,92,1
0,57,92,0
0,60,92,0
0,53,79,1
0,57,79,0
0,60,79,0
0,29,115,1
0,41,115,0
0,48,98,0
0,53,106,0
0,57,103,0
0,41,85,0
0,53,79,0
0,57,79,0
0,60,79,0
0,53,95,1
0,57,95,0
0,60,95,0
0,55,92,1
0,59,92,0
0,62,92,0
0,55,79,1
0,59,79,0
0,62,79,0
0,31,115,1
0,43,115,0
0,50,93,0
0,55,103,0
0,59,100,0
0,43,85,0
0,55,79,0
0,59,79,0
0,62,79,0
0,55,92,1
0,60,92,0
0,64,92,0
0,55,79,1
0,60,79,0
0,64,79,0
0,36,115,1
0,48,115,0
0,52,96,0
0,55,93,0
0,60,96,0
0,36,85,0
0,55,79,0
0,60,79,0
0,64,79,0
0,52,55,1
0,55,59,0
0,60,63,0
0,55,93,1
0,60,113,0
0,64,111,0
0,55,53,1
0,60,63,0
0,64,60,0
0,55,91,1
0,60,117,0
0,64,111,0
0,55,92,1
0,59,92,0
0,62,92,0
0,59,79,1
0,62,79,0
0,43,110,1
0,50,110,0
0,55,96,0
0,59,113,0
0,62,106,0
0,43,85,0
0,55,79,0
0,59,79,0
0,62,79,0
0,38,110,1
0,50,110,0
0,57,89,0
0,62,89,0
0,65,89,0
0,38,85,1
0,50,71,1
0,57,83,0
0,38,110,1
0,50,110,0
0,57,103,0
0,62,103,0
0,65,103,0
0,57,89,0
0,62,89,0
0,65,89,0
0,50,62,23
0,57,71,0
0,50,55,13
0,57,85,0
0,45,85,1
0,57,95,0
0,62,95,0
0,65,100,0
0,38,85,0
0,50,67,0
0,57,79,0
0,62,79,0
0,65,79,0
0,47,110,0
0,47,110,12
0,45,85,1
0,57,95,0
0,60,95,0
0,64,100,0
0,50,67,0
0,43,110,0
0,45,85,1
0,53,95,0
0,57,95,0
0,62,100,0
0,50,67,0
0,48,110,0
0,48,110,19
0,43,95,1
0,53,95,0
0,57,95,0
0,60,100,0
0,48,67,0
0,43,110,0
0,36,100,1
0,48,100,0
0,52,100,0
0,55,100,0
0,60,100,0
0,36,85,0
0,48,93,0
0,55,93,0
0,60,75,0
0,35,105,0
0,49,110,0
0,52,74,43
0,55,74,0
0,60,74,0
0,42,80,0
0,35,105,19
0,55,100,1
0,60,100,0
0,64,100,0
0,40,110,0
0,42,100,0
0,42,80,1
0,35,105,19
0,35,105,19
0,42,80,0
0,55,93,1
0,59,93,0
0,62,93,0
0,42,80,0
0,55,74,4
0,59,74,0
0,62,74,0
0,35,105,0
0,31,100,1
0,43,100,0
0,55,93,0
0,59,93,0
0,62,93,0
0,43,85,0
0,43,93,0
0,50,93,0
0,55,75,0
0,40,110,0
0,42,100,0
0,55,82,1
0,59,98,0
0,62,85,0
0,42,80,0
0,55,74,1
0,59,74,0
0,62,74,0
0,35,105,0
0,29,100,1
0,41,100,0
0,55,95,0
0,59,95,0
0,62,95,0
0,41,85,0
0,41,93,0
0,48,93,0
0,53,75,0
0,35,105,0
0,42,80,0
0,53,100,4
0,57,100,0
0,60,100,0
0,42,80,24
0,35,105,19
0,53,100,3
0,57,100,0
0,60,100,0
0,40,110,0
0,42,100,0
0,42,80,43
0,35,105,19
0,35,105,19
0,42,80,0
0,55,93,4
0,59,93,0
0,62,95,0
0,42,80,0
0,55,74,4
0,59,74,0
0,62,74,0
0,35,105,0
0,31,100,2
0,43,100,0
0,55,93,0
0,59,98,0
0,62,92,0
0,43,85,0
0,43,93,0
0,50,93,0
0,55,75,0
0,40,110,0
0,42,100,0
0,55,91,2
0,59,95,0
0,62,93,0
0,42,80,0
0,52,74,1
0,55,74,0
0,60,74,0
0,35,105,0
0,36,100,2
0,48,100,0
0,52,95,0
0,55,98,0
0,60,93,0
0,36,85,0
0,48,93,0
0,55,93,0
0,60,75,0
0,35,105,0
0,42,80,0
0,52,74,3
0,55,74,0
0,60,74,0
0,42,80,0
0,35,105,19
0,55,92,1
0,60,93,0
0,64,95,0
0,40,110,0
0,42,100,0
0,42,80,1
0,52,50,19
0,55,50,0
0,60,50,0
0,35,105,0
0,55,60,1
0,60,60,0
0,64,60,0
0,35,105,0
0,42,80,0
0,55,78,2
0,59,93,0
0,62,73,0
0,42,80,0
0,43,74,1
0,47,74,0
0,50,74,0
0,35,105,0
0,55,80,2
0,59,98,0
0,62,82,0
0,43,85,0
0,43,93,0
0,50,93,0
0,55,75,0
0,40,110,0
0,42,100,0
0,38,100,2
0,50,100,0
0,57,100,0
0,62,103,0
0,65,103,0
0,42,80,0
0,35,105,19
0,38,85,16
0,50,93,0
0,57,93,0
0,62,75,0
0,35,105,0
0,42,80,0
0,42,80,43
0,35,105,19
0,57,100,4
0,62,102,0
0,65,102,0
0,40,110,0
0,42,100,0
0,42,80,43
0,50,80,19
0,57,80,0
0,62,80,0
0,35,105,0
0,45,70,0
0,57,86,0
0,62,85,0
0,65,85,0
0,42,105,0
0,40,90,19
0,42,105,0
0,45,70,2
0,57,85,0
0,60,85,0
0,64,85,0
0,40,110,0
0,42,105,19
0,45,70,2
0,53,85,0
0,57,85,0
0,62,85,0
0,47,105,0
0,42,105,19
0,43,70,2
0,53,85,0
0,57,85,0
0,60,85,0
0,45,105,0
0,42,105,19
0,31,75,1
0,43,85,0
0,50,75,0
0,55,100,0
0,43,85,0
0,43,93,0
0,50,93,0
0,55,75,0
0,35,105,0
0,49,110,0
0,31,75,2
0,43,85,0
0,50,75,0
0,55,100,0
0,42,80,0
0,35,105,19
0,31,75,2
0,43,85,0
0,50,75,0
0,55,100,0
0,43,85,0
0,40,110,0
0,42,100,0
0,31,75,2
0,43,85,0
0,50,75,0
0,57,100,0
0,42,80,0
0,35,105,19
0,31,75,2
0,43,85,0
0,42,105,0
0,40,90,19
0,42,105,0
0,31,75,2
0,43,85,0
0,50,75,0
0,55,75,0
0,59,100,0
0,40,110,0
0,42,105,19
0,31,75,2
0,43,85,0
0,47,105,0
0,42,105,19
0,31,75,2
0,43,85,0
0,40,110,0
0,45,105,2
0,31,75,2
0,43,85,0
0,50,75,0
0,55,75,0
0,59,100,0
0,43,85,0
0,43,93,0
0,50,93,0
0,55,75,0
0,35,105,0
0,49,110,0
0,31,75,2
0,43,85,0
0,50,75,0
0,55,75,0
0,59,100,0
0,40,110,0
0,46,100,19
0,42,11,9
0,31,75,1
0,43,85,0
0,50,75,0
0,55,75,0
0,59,100,0
0,43,85,0
0,40,110,0
0,40,110,19
0,31,75,2
0,43,85,0
0,50,75,0
0,55,75,0
0,60,100,0
0,43,105,0
0,31,75,2
0,43,85,0
0,40,110,0
0,46,100,19
0,42,11,13
0,31,75,1
0,43,85,0
0,50,75,0
0,55,75,0
0,59,75,0
0,62,100,0
0,47,105,0
0,31,75,2
0,43,85,0
0,45,105,0
0,45,105,19
0,31,75,2
0,43,85,0
0,55,100,0
0,60,100,0
0,65,100,0
0,43,105,0
0,43,105,0
0,36,100,2
0,48,100,0
0,36,85,0
0,48,93,0
0,55,93,0
0,60,75,0
0,35,105,0
0,49,110,0
0,52,74,43
0,55,74,0
0,60,74,0
0,42,80,0
0,35,105,19
0,36,96,2
0,48,96,0
0,55,100,0
0,60,100,0
0,64,100,0
0,40,110,0
0,42,100,0
0,60,118,1
0,42,80,0
0,60,111,2
0,35,105,0
0,60,126,13
0,35,105,0
0,42,80,0
0,55,93,1
0,59,93,0
0,62,93,0
0,59,127,0
0,42,80,0
0,55,74,4
0,59,74,0
0,62,74,0
0,59,123,0
0,35,105,0
0,31,100,1
0,43,100,0
0,55,93,0
0,59,93,0
0,62,93,0
0,43,85,0
0,43,93,0
0,50,93,0
0,55,75,0
0,40,110,0
0,42,100,0
0,59,118,16
0,55,82,1
0,59,98,0
0,62,85,0
0,59,127,0
0,42,80,0
0,55,74,1
0,59,74,0
0,62,74,0
0,35,105,0
0,29,100,1
0,41,100,0
0,55,95,0
0,59,95,0
0,62,95,0
0,41,85,0
0,41,93,0
0,48,93,0
0,53,75,0
0,35,105,0
0,42,80,0
0,53,100,3
0,57,100,0
0,60,100,0
0,57,118,0
0,42,80,24
0,35,105,19
0,53,100,3
0,57,100,0
0,60,100,0
0,40,110,0
0,42,100,0
0,42,80,43
0,35,105,1
0,29,96,2
0,41,96,0
0,35,105,0
0,42,80,0
0,55,93,4
0,59,93,0
0,62,95,0
0,42,80,0
0,55,74,4
0,59,74,0
0,62,74,0
0,35,105,0
0,31,100,2
0,43,100,0
0,55,93,0
0,59,98,0
0,62,92,0
0,43,85,0
0,43,93,0
0,50,93,0
0,55,75,0
0,40,110,0
0,42,100,0
0,55,91,2
0,59,95,0
0,62,93,0
0,42,80,0
0,52,74,1
0,55,74,0
0,60,74,0
0,35,105,0
0,36,100,2
0,48,100,0
0,52,95,0
0,55,98,0
0,60,93,0
0,36,85,0
0,48,93,0
0,55,93,0
0,60,75,0
0,35,105,0
0,42,80,0
0,52,74,3
0,55,74,0
0,60,74,0
0,42,80,0
0,35,105,19
0,55,92,1
0,60,93,0
0,64,95,0
0,40,110,0
0,42,100,0
0,64,108,1
0,42,80,0
0,52,50,13
0,55,50,0
0,60,50,0
0,64,118,0
0,35,105,0
0,36,96,1
0,48,96,0
0,55,60,0
0,60,60,0
0,64,60,0
0,64,127,0
0,35,105,0
0,42,80,0
0,55,78,2
0,59,93,0
0,62,73,0
0,62,82,0
0,42,80,0
0,43,74,1
0,47,74,0
0,50,74,0
0,62,111,0
0,35,105,0
0,55,80,2
0,59,98,0
0,62,82,0
0,43,85,0
0,43,93,0
0,50,93,0
0,55,75,0
0,40,110,0
0,42,100,0
0,62,111,16
0,38,100,2
0,50,100,0
0,57,100,0
0,62,103,0
0,65,103,0
0,65,127,0
0,42,80,0
0,35,105,4
0,38,85,16
0,50,93,0
0,57,93,0
0,62,75,0
0,35,105,0
0,42,80,0
0,42,80,43
0,35,105,19
0,57,100,4
0,62,102,0
0,65,102,0
0,40,110,0
0,42,100,0
0,42,80,2
0,50,80,9
0,57,80,0
0,62,80,0
0,35,105,0
0,45,70,0
0,57,86,0
0,62,85,0
0,65,85,0
0,42,80,0
0,40,110,19
0,42,100,0
0,45,70,2
0,57,85,0
0,60,85,0
0,64,85,0
0,42,80,0
0,35,105,19
0,45,70,2
0,53,85,0
0,57,85,0
0,62,85,0
0,40,110,0
0,42,100,0
0,43,70,2
0,53,85,0
0,57,85,0
0,60,85,0
0,42,80,0
0,35,105,19
0,36,100,2
0,48,100,0
0,36,85,0
0,48,93,0
0,55,93,0
0,60,75,0
0,35,105,0
0,42,80,0
0,52,74,43
0,55,74,0
0,60,74,0
0,42,80,0
0,35,105,19
0,55,100,19
0,60,100,0
0,64,100,0
0,40,110,0
0,42,100,0
0,60,118,1
0,64,118,0
0,42,80,0
0,60,100,4
0,64,115,0
0,35,105,0
0,36,96,2
0,48,96,0
0,60,123,0
0,64,126,0
0,35,105,0
0,42,80,0
0,55,93,1
0,59,93,0
0,62,93,0
0,59,121,0
0,62,108,0
0,42,80,0
0,55,74,4
0,59,74,0
0,62,74,0
0,59,101,0
0,62,115,0
0,35,105,0
0,31,100,1
0,43,100,0
0,55,93,0
0,59,93,0
0,62,93,0
0,43,85,0
0,43,93,0
0,50,93,0
0,55,75,0
0,40,110,0
0,42,100,0
0,59,101,15
0,62,113,0
0,55,82,1
0,59,98,0
0,62,85,0
0,59,98,0
0,62,115,0
0,42,80,0
0,55,74,1
0,59,74,0
0,62,74,0
0,35,105,0
0,29,100,1
0,41,100,0
0,55,95,0
0,59,95,0
0,62,95,0
0,41,85,0
0,41,93,0
0,48,93,0
0,53,75,0
0,35,105,0
0,42,80,0
0,53,100,4
0,57,100,0
0,60,100,0
0,57,101,0
0,60,118,0
0,42,80,24
0,35,105,19
0,53,100,3
0,57,100,0
0,60,100,0
0,40,110,0
0,42,100,0
0,42,80,43
0,35,105,3
0,29,96,1
0,41,96,0
0,35,105,0
0,42,80,0
0,55,93,4
0,59,93,0
0,62,95,0
0,42,80,0
0,55,74,4
0,59,74,0
0,62,74,0
0,35,105,0
0,31,100,2
0,43,100,0
0,55,93,0
0,59,98,0
0,62,92,0
0,43,85,0
0,43,93,0
0,50,93,0
0,55,75,0
0,40,110,0
0,42,100,0
0,55,91,2
0,59,95,0
0,62,93,0
0,42,80,0
0,52,74,1
0,55,74,0
0,60,74,0
0,35,105,0
0,36,100,2
0,48,100,0
0,52,95,0
0,55,98,0
0,60,93,0
0,36,85,0
0,48,93,0
0,55,93,0
0,60,75,0
0,35,105,0
0,42,80,0
0,52,74,3
0,55,74,0
0,60,74,0
0,42,80,0
0,35,105,19
0,55,92,1
0,60,93,0
0,64,95,0
0,40,110,0
0,42,100,0
0,64,126,1
0,42,80,0
0,52,50,8
0,55,50,0
0,60,50,0
0,64,118,0
0,35,105,0
0,36,96,1
0,48,96,0
0,55,60,0
0,60,60,0
0,64,60,0
0,64,126,0
0,35,105,0
0,42,80,0
0,55,78,0
0,59,93,0
0,62,73,0
0,62,118,0
0,42,80,0
0,43,74,1
0,47,74,0
0,50,74,0
0,62,113,0
0,35,105,0
0,55,80,2
0,59,98,0
0,62,82,0
0,43,85,0
0,43,93,0
0,50,93,0
0,55,75,0
0,40,110,0
0,42,100,0
0,62,100,13
0,38,100,2
0,50,100,0
0,57,100,0
0,62,103,0
0,65,103,0
0,65,118,0
0,42,80,0
0,35,105,4
0,38,85,16
0,50,93,0
0,57,93,0
0,62,75,0
0,35,105,0
0,42,80,0
0,40,110,19
0,42,105,0
0,42,80,19
0,35,105,4
0,57,100,2
0,62,102,0
0,65,102,0
0,40,110,0
0,42,100,0
0,42,80,24
0,50,80,2
0,57,80,0
0,62,80,0
0,35,105,0
0,45,70,0
0,57,86,0
0,62,85,0
0,65,85,0
0,65,127,0
0,35,105,0
0,42,80,0
0,45,70,2
0,57,85,0
0,60,85,0
0,64,85,0
0,64,127,0
0,42,80,0
0,35,105,19
0,45,70,2
0,53,85,0
0,57,85,0
0,62,85,0
0,62,115,0
0,42,80,0
0,40,110,19
0,42,100,0
0,43,70,2
0,53,85,0
0,57,85,0
0,60,85,0
0,60,127,0
0,40,110,0
0,42,100,0
0,42,100,19
0,31,75,2
0,43,85,0
0,47,90,0
0,50,90,0
0,55,90,0
0,43,85,0
0,55,127,0
0,43,93,0
0,50,93,0
0,55,75,0
0,35,105,0
0,49,110,0
0,31,75,1
0,43,85,0
0,43,85,0
0,55,123,0
0,42,80,0
0,35,105,19
0,31,75,1
0,43,85,0
0,43,85,0
0,55,121,0
0,40,110,0
0,42,100,0
0,31,75,1
0,43,85,0
0,43,85,0
0,57,118,0
0,42,80,0
0,35,105,19
0,31,75,1
0,43,85,0
0,43,85,0
0,42,105,0
0,40,90,19
0,42,105,0
0,31,75,1
0,43,85,0
0,43,85,0
0,59,127,0
0,40,110,0
0,42,105,12
0,31,75,1
0,43,85,0
0,43,85,0
0,47,105,0
0,42,105,19
0,31,75,1
0,43,85,0
0,43,85,0
0,40,110,0
0,45,105,5
0,31,75,1
0,43,85,0
0,59,83,0
0,62,83,0
0,67,83,0
0,43,85,0
0,59,127,0
0,43,93,0
0,50,93,0
0,55,75,0
0,35,105,0
0,49,110,0
0,31,75,1
0,43,85,0
0,43,85,0
0,59,127,0
0,40,110,0
0,46,100,19
0,42,11,13
0,31,75,1
0,43,85,0
0,43,85,0
0,59,127,0
0,40,110,0
0,40,110,19
