track,note,velocity,time
1,47,94,388
1,59,86,272
1,66,90,6
1,63,90,8
1,59,86,74
1,66,92,8
1,63,96,6
1,47,94,60
1,47,90,148
1,59,92,80
1,63,100,10
1,66,88,6
1,66,86,24
1,58,94,2
1,61,98,8
1,42,94,116
1,58,96,56
1,66,94,2
1,61,96,8
1,66,86,46
1,58,96,4
1,61,100,2
1,42,96,50
1,42,94,60
1,58,100,70
1,66,96,2
1,61,100,2
1,58,94,32
1,66,94,2
1,63,96,0
1,51,96,138
1,58,96,58
1,66,94,2
1,63,98,4
1,66,94,68
1,58,94,0
1,63,96,4
1,46,94,128
1,46,96,80
1,58,100,64
1,63,98,6
1,66,86,4
1,66,90,86
1,58,94,4
1,63,96,2
1,51,96,44
1,58,96,60
1,63,94,2
1,66,88,4
1,58,94,92
1,63,92,4
1,66,88,2
1,46,94,4
1,46,92,84
1,58,90,74
1,63,96,4
1,66,90,2
1,63,90,22
1,59,92,4
1,66,86,2
1,47,92,64
1,59,94,236
1,63,98,12
1,66,94,6
1,59,92,82
1,63,96,10
1,66,86,4
1,47,94,88
1,47,92,130
1,59,90,74
1,63,98,12
1,66,88,6
1,66,94,20
1,58,90,8
1,61,100,8
1,42,96,28
1,66,94,100
1,58,94,2
1,61,98,8
1,66,90,86
1,58,88,2
1,61,94,4
1,42,90,92
1,42,96,144
1,58,98,78
1,66,94,2
1,61,86,4
1,58,94,4
1,66,88,4
1,63,94,2
1,51,94,126
1,58,100,70
1,63,96,2
1,66,88,2
1,58,94,78
1,66,90,2
1,63,90,6
1,46,96,122
1,46,94,78
1,63,100,72
1,58,94,2
1,66,92,2
1,58,94,102
1,63,90,2
1,66,88,2
1,51,96,60
1,38,111,4
1,45,117,186
1,58,90,62
1,63,96,4
1,66,86,2
1,38,29,0
1,38,28,46
1,58,86,63
1,38,62,0
1,63,90,3
1,66,86,2
1,38,27,58
1,46,94,63
1,38,107,4
1,45,104,86
1,46,96,5
1,58,98,50
1,63,94,2
1,66,96,2
1,38,50,6
1,38,41,61
1,38,59,65
1,38,33,32
1,58,90,55
1,63,92,2
1,66,90,2
1,38,105,2
1,35,112,14
1,47,94,0
1,42,100,0
1,36,112,0
1,49,114,1
1,47,111,1
1,54,120,2
1,59,111,6
1,63,120,8
1,66,112,8
1,59,90,268
1,42,112,0
1,47,116,4
1,38,107,0
1,66,88,1
1,63,100,2
1,42,112,0
1,54,117,1
1,59,120,0
1,63,118,4
1,66,120,6
1,66,120,6
1,63,90,0
1,59,88,4
1,59,100,0
1,35,108,6
1,66,90,0
1,54,110,0
1,36,90,0
1,63,100,1
1,66,80,0
1,47,102,0
1,42,108,8
1,36,90,10
1,30,106,1
1,47,92,4
1,75,80,0
1,42,115,2
1,66,84,4
1,75,80,32
1,66,82,2
1,63,93,0
1,59,86,2
1,47,94,2
1,54,94,0
1,75,80,4
1,47,80,2
1,42,99,8
1,42,108,0
1,47,114,0
1,59,90,2
1,59,116,0
1,54,118,0
1,63,98,2
1,42,112,0
1,38,100,0
1,35,108,5
1,66,88,0
1,63,120,0
1,66,120,6
1,66,118,0
1,63,120,0
1,66,90,2
1,59,100,0
1,58,90,2
1,73,80,0
1,54,116,0
1,61,86,0
1,47,93,0
1,42,90,8
1,42,100,14
1,42,96,4
1,49,111,0
1,36,112,0
1,54,114,3
1,42,112,2
1,42,110,1
1,58,112,2
1,61,120,4
1,66,116,2
1,42,116,8
1,49,111,6
1,54,118,2
1,58,96,0
1,42,115,2
1,38,109,0
1,66,94,0
1,61,96,0
1,58,120,0
1,61,120,0
1,66,118,6
1,66,80,0
1,61,90,0
1,58,90,0
1,66,94,2
1,36,90,2
1,42,112,0
1,58,94,0
1,54,100,0
1,61,100,2
1,70,80,2
1,49,88,0
1,42,80,8
1,42,94,12
1,36,107,2
1,37,108,1
1,78,80,0
1,42,113,2
1,78,80,2
1,66,94,0
1,61,102,0
1,58,94,0
1,54,104,0
1,49,96,0
1,42,96,2
1,78,80,0
1,42,84,6
1,58,98,0
1,49,108,0
1,66,96,2
1,38,115,0
1,42,115,0
1,42,110,1
1,80,80,0
1,61,94,0
1,54,114,0
1,58,118,0
1,61,120,0
1,66,120,4
1,66,94,0
1,58,88,4
1,66,92,2
1,63,90,0
1,61,98,0
1,82,80,4
1,58,90,0
1,54,98,0
1,49,88,0
1,42,88,6
1,46,108,20
1,51,115,6
1,36,113,2
1,51,96,1
1,58,118,4
1,39,112,0
1,63,120,0
1,42,120,2
1,66,116,0
1,66,80,0
1,63,93,0
1,58,84,2
1,78,80,4
1,51,80,2
1,46,84,0
1,46,108,0
1,51,118,0
1,58,116,4
1,58,90,0
1,63,120,0
1,42,114,2
1,38,108,0
1,63,86,1
1,66,120,0
1,66,94,2
1,58,100,6
1,51,106,0
1,66,86,0
1,66,94,2
1,36,90,0
1,63,96,1
1,63,96,0
1,58,80,4
1,51,84,4
1,49,92,0
1,53,117,0
1,56,120,2
1,36,104,0
1,46,92,0
1,61,120,2
1,65,105,4
1,42,114,0
1,66,102,4
1,63,116,4
1,46,94,0
1,58,100,4
1,34,108,2
1,51,108,2
1,46,96,4
1,38,113,10
1,58,98,1
1,42,111,2
1,37,110,0
1,63,96,0
1,63,80,0
1,66,88,2
1,66,80,8
1,66,80,2
1,34,106,4
1,66,94,0
1,58,88,2
1,63,94,0
1,63,90,2
1,58,82,0
1,38,70,0
1,51,93,7
1,46,80,4
1,36,117,0
1,51,94,1
1,46,108,0
1,51,120,0
1,42,93,0
1,39,110,1
1,58,105,0
1,63,120,0
1,66,118,4
1,66,110,0
1,63,108,0
1,58,90,0
1,51,100,0
1,46,90,6
1,46,106,2
1,51,108,2
1,58,90,4
1,63,100,4
1,66,108,6
1,65,112,0
1,61,112,2
1,56,114,2
1,58,96,4
1,53,118,2
1,42,117,0
1,63,96,1
1,49,106,2
1,38,119,0
1,66,90,1
1,44,118,4
1,46,90,78
1,51,102,4
1,58,102,2
1,58,94,0
1,63,88,2
1,63,120,0
1,66,90,2
1,66,118,0
1,36,90,4
1,46,92,18
1,36,102,6
1,42,114,0
1,66,90,0
1,63,88,0
1,58,80,4
1,34,108,2
1,46,94,0
1,51,105,0
1,46,88,6
1,46,112,0
1,51,120,0
1,58,116,0
1,39,110,0
1,63,94,0
1,63,120,0
1,58,96,2
1,66,90,2
1,66,120,0
1,38,117,2
1,42,120,3
1,66,90,0
1,63,99,0
1,58,96,0
1,51,96,0
1,37,106,4
1,63,94,0
1,59,96,2
1,46,84,2
1,66,86,2
1,38,101,4
1,42,108,2
1,47,105,2
1,35,112,2
1,47,96,0
1,59,102,2
1,54,116,0
1,36,117,2
1,49,73,3
1,63,120,3
1,66,120,6
1,42,111,0
1,47,114,0
1,54,120,0
1,59,94,4
1,59,105,0
1,63,120,0
1,66,80,2
1,66,120,4
1,63,100,2
1,38,119,0
1,42,109,0
1,66,94,3
1,66,80,6
1,59,86,0
1,66,90,0
1,63,90,0
1,35,110,2
1,63,94,0
1,75,80,0
1,59,93,0
1,36,93,2
1,66,86,1
1,54,102,0
1,47,90,4
1,42,86,4
1,47,92,16
1,42,107,6
1,36,111,0
1,30,108,1
1,66,102,0
1,63,96,0
1,59,88,0
1,47,94,2
1,75,80,0
1,54,105,4
1,47,80,0
1,42,108,0
1,59,96,0
1,47,111,0
1,54,120,0
1,73,80,2
1,63,100,2
1,35,106,0
1,63,120,0
1,59,120,0
1,38,117,2
1,42,111,0
1,66,94,3
1,66,117,2
1,71,80,0
1,66,108,0
1,63,102,0
1,66,86,2
1,58,96,4
1,59,90,0
1,73,80,0
1,61,100,2
1,54,108,0
1,47,80,4
1,42,90,4
1,42,100,0
1,42,96,0
1,49,108,0
1,42,110,4
1,36,113,2
1,42,115,0
1,54,105,0
1,58,112,0
1,61,116,0
1,66,112,8
1,70,80,64
1,42,112,0
1,49,110,0
1,66,96,4
1,58,94,0
1,54,116,0
1,61,100,4
1,58,118,0
1,61,120,0
1,38,120,0
1,42,113,0
1,66,120,3
1,66,90,8
1,61,93,0
1,58,93,0
1,54,99,0
1,42,108,4
1,66,86,0
1,58,90,0
1,61,86,0
1,70,80,0
1,49,93,0
1,36,90,2
1,42,80,7
1,42,92,0
1,78,80,0
1,36,111,2
1,42,114,0
1,37,108,1
1,78,80,10
1,66,86,6
1,61,96,6
1,58,80,2
1,54,80,0
1,42,94,4
1,78,80,4
1,42,110,0
1,58,96,2
1,61,92,0
1,49,116,0
1,66,88,2
1,42,110,0
1,80,80,0
1,54,118,0
1,38,108,0
1,58,120,0
1,42,115,0
1,61,118,0
1,66,120,6
1,66,90,0
1,61,90,0
1,58,94,2
1,63,98,4
1,58,84,0
1,66,90,2
1,78,80,0
1,54,96,0
1,49,80,2
1,42,82,8
1,46,102,94
1,51,104,0
1,51,96,4
1,36,112,2
1,58,108,1
1,42,120,0
1,39,112,1
1,63,110,0
1,66,106,0
1,46,114,0
1,58,90,2
1,63,100,2
1,51,118,0
1,66,94,2
1,58,116,0
1,38,107,2
1,42,114,0
1,63,120,0
1,66,120,4
1,66,80,0
1,51,108,6
1,58,94,0
1,63,94,0
1,66,86,2
1,63,96,2
1,36,96,6
1,44,108,0
1,49,117,0
1,53,114,0
1,46,94,2
1,42,118,0
1,36,90,0
1,56,114,0
1,61,120,0
1,65,120,6
1,66,120,4
1,63,99,4
1,58,96,4
1,51,120,4
1,34,108,2
1,46,96,0
1,46,93,2
1,58,94,70
1,63,96,0
1,66,88,2
1,37,112,0
1,63,80,0
1,38,109,0
1,42,117,1
1,66,86,7
1,66,96,14
1,63,102,0
1,58,88,6
1,66,86,0
1,58,94,0
1,63,94,2
1,34,106,4
1,51,100,0
1,46,80,4
1,51,116,36
1,46,102,0
1,58,116,0
1,51,96,2
1,39,112,4
1,63,120,0
1,42,117,2
1,36,115,0
1,66,120,3
1,66,102,0
1,63,105,0
1,58,96,0
1,51,104,0
1,46,93,4
1,46,108,2
1,51,118,4
1,58,105,2
1,63,108,4
1,66,110,6
1,66,88,0
1,65,114,0
1,63,94,2
1,58,86,0
1,61,112,0
1,56,114,2
1,42,118,4
1,38,116,0
1,53,120,1
1,49,118,8
1,44,120,6
1,46,111,0
1,51,105,0
1,58,108,0
1,39,110,2
1,75,80,0
1,63,102,0
1,63,96,2
1,36,98,0
1,58,90,1
1,66,120,0
1,66,88,2
1,46,94,22
1,75,80,8
1,42,113,2
1,36,98,0
1,66,94,0
1,46,92,0
1,63,96,0
1,58,80,4
1,51,80,0
1,38,104,0
1,34,106,1
1,75,80,0
1,58,96,2
1,63,100,2
1,66,94,0
1,46,108,0
1,58,110,0
1,45,114,2
1,51,120,0
1,39,110,2
1,63,116,2
1,66,112,0
1,66,105,0
1,63,96,0
1,58,98,0
1,51,106,0
1,46,93,6
1,60,86,12
1,63,90,2
1,67,86,0
1,45,91,0
1,38,108,5
1,75,80,0
1,43,105,6
1,36,117,2
1,48,102,2
1,49,109,0
1,36,112,1
1,48,96,0
1,51,120,4
1,55,114,6
1,63,120,6
1,67,116,4
1,43,120,0
1,48,111,8
1,51,116,4
1,67,92,2
1,60,98,2
1,55,111,0
1,63,100,2
1,38,107,0
1,75,80,0
1,63,120,2
1,42,111,0
1,67,120,2
1,75,80,24
1,67,90,0
1,67,88,0
1,63,88,0
1,60,90,2
1,36,90,0
1,36,108,1
1,63,100,0
1,55,94,0
1,51,104,0
1,48,90,0
1,43,93,8
1,48,94,8
1,36,117,2
1,42,115,3
1,31,108,1
1,67,96,10
1,63,111,6
1,55,99,4
1,48,98,2
1,74,80,0
1,51,108,2
1,48,80,2
1,43,106,0
1,67,88,0
1,48,116,0
1,51,118,0
1,60,88,2
1,42,117,2
1,38,113,0
1,36,110,0
1,55,120,0
1,63,98,2
1,63,120,0
1,67,117,6
1,67,105,0
1,56,98,0
1,63,88,0
1,63,96,4
1,60,94,0
1,55,105,0
1,72,80,2
1,51,106,0
1,48,90,0
1,43,93,6
1,44,104,0
1,44,96,6
1,48,106,0
1,36,114,0
1,32,110,1
1,42,109,2
1,51,105,0
1,56,110,0
1,60,102,0
1,68,106,2
1,56,90,0
1,44,111,0
1,42,120,6
1,38,105,0
1,48,114,0
1,63,88,2
1,60,90,2
1,51,116,0
1,56,120,0
1,60,120,0
1,68,90,6
1,32,106,0
1,65,94,0
1,68,90,0
1,58,98,2
1,62,96,2
1,70,80,0
1,60,108,0
1,36,93,2
1,56,93,0
1,51,102,6
1,48,80,2
1,46,102,8
1,41,108,0
1,53,106,2
1,34,108,0
1,46,98,0
1,58,96,2
1,36,90,0
1,72,80,1
1,62,108,0
1,42,107,2
1,65,93,3
1,46,94,176
1,70,80,0
1,46,116,20
1,53,120,0
1,62,90,0
1,58,118,0
1,42,119,2
1,58,90,1
1,62,116,2
1,38,112,0
1,34,108,0
1,65,94,0
1,65,120,4
1,65,102,4
1,62,99,2
1,58,100,2
1,63,100,0
1,67,92,4
1,58,93,0
1,67,80,2
1,53,108,4
1,46,88,2
1,51,98,2
1,36,113,2
1,39,112,0
1,51,106,4
1,55,110,0
1,46,116,0
1,42,117,0
1,63,110,3
1,67,106,4
1,63,84,8
1,55,88,2
1,67,80,4
1,51,80,4
1,58,94,112
1,46,114,0
1,51,116,2
1,67,92,2
1,55,120,0
1,63,100,0
1,63,118,0
1,38,114,0
1,42,120,0
1,67,120,1
1,67,90,6
1,58,88,2
1,67,90,4
1,63,93,0
1,63,96,0
1,36,90,0
1,51,108,1
1,55,94,2
1,51,108,2
1,46,93,4
1,41,114,0
1,51,94,2
1,46,112,0
1,53,116,0
1,36,114,4
1,42,114,0
1,58,118,0
1,62,120,0
1,65,120,4
1,67,93,2
1,34,108,0
1,51,98,0
1,63,105,0
1,55,105,4
1,51,120,4
1,46,96,6
1,46,86,0
1,58,96,4
1,51,80,0
1,67,88,0
1,63,98,2
1,42,114,0
1,38,116,0
1,37,110,0
1,55,82,2
1,63,88,6
1,67,86,8
1,67,110,0
1,63,105,0
1,67,88,0
1,58,88,2
1,55,114,0
1,34,106,2
1,63,94,2
1,51,120,0
1,38,59,0
1,46,110,5
1,46,114,0
1,51,120,0
1,51,96,0
1,55,116,2
1,36,114,2
1,42,116,0
1,39,110,0
1,63,120,0
1,67,116,4
1,67,90,0
1,63,94,0
1,55,96,0
1,51,100,0
1,46,88,4
1,46,106,0
1,51,111,6
1,55,105,4
1,63,105,6
1,67,112,4
1,63,98,0
1,65,110,0
1,58,100,2
1,62,116,0
1,67,92,2
1,58,114,2
1,38,108,0
1,42,118,0
1,53,118,2
1,46,120,2
1,41,114,2
1,46,100,0
1,51,110,0
1,58,92,0
1,55,116,0
1,63,108,0
1,67,90,4
1,67,110,0
1,39,108,2
1,63,94,0
1,36,98,2
1,51,98,100
1,72,80,4
1,36,112,2
1,42,116,3
1,67,110,0
1,63,106,4
1,51,94,4
1,55,106,2
1,34,106,2
1,51,114,0
1,38,108,2
1,74,80,1
1,46,102,6
1,51,118,2
1,58,94,0
1,63,98,2
1,55,114,2
1,67,88,0
1,63,120,0
1,39,108,0
1,38,117,2
1,67,112,1
1,38,101,4
1,75,80,0
1,67,93,0
1,63,110,0
1,55,108,0
1,67,88,0
1,51,120,0
1,63,96,2
1,38,106,2
1,60,88,0
1,38,114,0
1,46,111,1
1,48,105,2
1,48,98,0
1,51,112,2
1,55,105,4
1,36,112,4
1,63,120,0
1,49,92,2
1,36,112,0
1,67,120,3
1,43,104,0
1,60,100,0
1,48,105,0
1,67,94,4
1,63,98,0
1,51,112,0
1,75,80,2
1,55,112,0
1,42,116,2
1,38,113,0
1,63,120,0
1,67,111,6
1,75,80,60
1,67,111,0
1,63,107,0
1,36,108,0
1,67,88,0
1,55,90,0
1,60,90,2
1,63,96,2
1,36,90,2
1,51,98,0
1,48,93,6
1,43,86,2
1,48,96,16
1,36,115,6
1,31,110,1
1,42,119,2
1,67,80,2
1,74,80,0
1,67,96,0
1,63,93,0
1,55,93,6
1,48,96,2
