track,note,velocity,time
1,26,108,1324
1,26,100,444
1,26,108,796
1,26,100,444
1,26,108,796
1,26,100,444
1,26,108,796
1,26,100,444
1,26,108,796
1,26,100,444
1,26,108,796
1,26,100,444
1,26,108,796
1,26,100,444
1,26,108,796
1,26,100,444
1,26,108,796
1,26,100,444
1,26,108,796
1,26,100,444
1,26,108,796
1,26,100,444
1,26,108,796
1,26,100,444
1,26,108,796
1,26,100,444
1,26,108,796
1,26,100,444
1,26,108,796
1,26,100,444
1,26,108,796
1,26,100,444
1,26,108,796
1,26,100,444
1,26,108,796
1,26,100,444
1,26,108,796
1,26,100,444
1,26,108,796
1,26,100,444
1,29,111,796
1,36,88,8
1,29,93,8
1,31,110,8
1,29,108,8
1,24,110,48
1,31,111,768
1,29,108,8
1,24,110,48
1,31,111,768
1,29,108,8
1,24,110,48
1,31,111,768
1,29,108,8
1,24,110,48
1,43,117,768
1,43,127,190
1,38,122,122
1,38,120,164
1,38,113,40
1,38,125,104
1,38,125,100
1,41,127,104
1,41,127,204
1,36,122,114
1,36,117,164
1,36,117,38
1,36,125,104
1,36,127,104
1,43,117,102
1,43,127,190
1,38,122,122
1,38,120,164
1,38,113,40
1,38,125,104
1,38,125,100
1,41,127,104
1,41,127,204
1,36,122,114
1,36,117,164
1,36,117,38
1,36,125,104
1,36,127,104
1,43,117,102
1,43,127,190
1,38,122,122
1,38,120,164
1,38,113,40
1,38,125,104
1,38,125,100
1,41,127,104
1,41,127,204
1,36,122,114
1,36,117,164
1,36,117,38
1,36,125,104
1,36,127,104
1,41,127,102
1,41,127,200
1,41,115,110
1,41,117,164
1,41,110,46
1,41,122,70
1,41,122,104
1,36,125,104
1,36,127,206
1,41,122,120
1,41,122,158
1,41,107,28
1,41,122,88
1,41,120,98
1,31,108,100
1,43,100,58
1,31,102,24
1,31,108,72
1,43,120,10
1,43,111,134
1,31,105,22
1,31,113,62
1,43,113,14
1,43,111,64
1,43,113,66
1,41,122,72
1,41,127,200
1,36,117,128
1,36,111,160
1,36,107,46
1,36,117,112
1,36,117,104
1,43,115,104
1,43,117,206
1,38,104,120
1,38,105,160
1,38,110,42
1,38,115,102
1,38,115,102
1,41,117,100
1,41,122,200
1,36,111,128
1,36,108,162
1,36,110,48
1,36,115,104
1,36,115,102
1,31,113,104
1,43,115,44
1,31,102,12
1,31,111,72
1,43,125,2
1,43,115,162
1,31,93,16
1,31,115,54
1,43,115,6
1,43,115,82
1,43,111,66
1,41,117,72
1,41,117,200
1,36,111,128
1,36,113,162
1,36,107,38
1,36,115,110
1,36,113,96
1,43,111,104
1,43,115,206
1,38,108,130
1,38,111,154
1,38,110,36
1,38,111,104
1,38,107,104
1,41,111,86
1,41,113,200
1,36,125,104
1,43,117,42
1,43,127,190
1,38,122,122
1,38,120,164
1,38,113,40
1,38,125,104
1,38,125,100
1,41,127,104
1,41,127,204
1,36,122,114
1,36,117,164
1,36,117,38
1,36,125,104
1,36,127,104
1,43,117,102
1,43,127,190
1,38,122,122
1,38,120,164
1,38,113,40
1,38,125,104
1,38,125,100
1,41,127,104
1,41,127,204
1,36,122,114
1,36,117,164
1,36,117,38
1,36,125,104
1,36,127,104
1,43,117,102
1,43,127,190
1,38,122,122
1,38,120,164
1,38,113,40
1,38,125,104
1,38,125,100
1,41,127,104
1,41,127,204
1,36,122,114
1,36,117,164
1,36,117,38
1,36,125,104
1,36,127,104
1,41,127,102
1,41,127,200
1,41,115,110
1,41,117,164
1,41,110,46
1,41,122,70
1,41,122,104
1,36,125,104
1,36,127,206
1,41,122,120
1,41,122,158
1,41,107,28
1,41,122,88
1,41,120,98
1,31,108,100
1,43,100,58
1,31,102,24
1,31,108,72
1,43,120,10
1,43,111,134
1,31,105,22
1,31,113,62
1,43,113,14
1,43,111,64
1,43,113,66
1,41,122,72
1,41,127,200
1,36,117,128
1,36,111,160
1,36,107,46
1,36,117,112
1,36,117,104
1,43,115,104
1,43,117,206
1,38,104,120
1,38,105,160
1,38,110,42
1,38,115,102
1,38,115,102
1,41,117,100
1,41,122,200
1,36,111,128
1,36,108,162
1,36,110,48
1,36,115,104
1,36,115,102
1,31,113,104
1,43,115,44
1,31,102,12
1,31,111,72
1,43,125,2
1,43,115,162
1,31,93,16
1,31,115,54
1,43,115,6
1,43,115,82
1,43,111,66
1,41,117,72
1,41,117,200
1,36,111,128
1,36,113,162
1,36,107,38
1,36,115,110
1,36,113,96
1,43,111,104
1,43,115,206
1,38,108,130
1,38,111,154
1,38,110,36
1,38,111,104
1,38,107,104
1,41,111,86
1,41,113,200
1,36,125,104
1,31,92,42
1,31,86,114
1,31,97,126
1,26,95,108
1,26,89,78
1,26,89,124
1,26,92,36
1,26,95,108
1,26,95,98
1,29,92,104
1,29,94,96
1,29,101,106
1,24,99,116
1,24,91,78
1,24,91,114
1,24,88,26
1,24,97,92
1,24,95,104
1,31,95,116
1,31,88,110
1,31,99,112
1,26,84,120
1,26,86,78
1,26,88,114
1,26,92,30
1,26,91,106
1,26,92,98
1,29,91,106
1,29,86,100
1,29,97,114
1,24,83,128
1,24,95,90
1,24,94,130
1,26,125,36
1,26,127,70
1,31,127,30
1,43,117,66
1,43,127,190
1,38,122,122
1,38,120,164
1,38,113,40
1,38,125,104
1,38,125,100
1,41,127,104
1,41,127,204
1,36,122,114
1,36,117,164
1,36,117,38
1,36,125,104
1,36,127,104
1,43,117,102
1,43,127,190
1,38,122,122
1,38,120,164
1,38,113,40
1,38,125,104
1,38,125,100
1,41,127,104
1,41,127,204
1,36,122,114
1,36,117,164
1,36,117,38
1,36,125,104
1,36,127,104
1,43,117,102
1,43,127,190
1,38,122,122
1,38,120,164
1,38,113,40
1,38,125,104
1,38,125,100
1,41,127,104
1,41,127,204
1,36,122,114
1,36,117,164
1,36,117,38
1,36,125,104
1,36,127,104
1,41,127,102
1,41,127,200
1,41,115,110
1,41,117,164
1,41,110,46
1,41,122,70
1,41,122,104
1,36,125,104
1,36,127,206
1,41,122,120
1,41,122,158
1,41,107,28
1,41,122,88
1,41,120,98
1,31,108,100
1,43,100,58
1,31,102,24
1,31,108,72
1,43,120,10
1,43,111,134
1,31,105,22
1,31,113,62
1,43,113,14
1,43,111,64
1,43,113,66
1,41,122,72
1,41,127,200
1,36,117,128
1,36,111,160
1,36,107,46
1,36,117,112
1,36,117,104
1,43,115,104
1,43,117,206
1,38,104,120
1,38,105,160
1,38,110,42
1,38,115,102
1,38,115,102
1,41,117,100
1,41,122,200
1,36,111,128
1,36,108,162
1,36,110,48
1,36,115,104
1,36,115,102
1,31,113,104
1,43,115,44
1,31,102,12
1,31,111,72
1,43,125,2
1,43,115,162
1,31,93,16
1,31,115,54
1,43,115,6
1,43,115,82
1,43,111,66
1,41,117,72
1,41,117,200
1,36,111,128
1,36,113,162
1,36,107,38
1,36,115,110
1,36,113,96
1,43,111,104
1,43,115,206
1,38,108,130
1,38,111,154
1,38,110,36
1,38,111,104
1,38,107,104
1,41,111,86
1,41,113,200
1,36,125,104
1,31,127,42
1,31,127,3098
1,25,127,1524
1,43,125,1536
1,43,122,102
1,43,100,74
1,43,108,158
1,43,107,26
1,43,127,86
1,43,117,86
1,38,122,96
1,38,127,102
1,38,120,118
1,38,122,162
1,38,110,34
1,38,125,116
1,38,125,96
1,43,117,96
1,43,125,86
1,43,113,122
1,43,110,154
1,43,120,54
1,43,122,100
1,43,120,100
1,38,122,104
1,38,125,106
1,43,115,76
1,43,107,74
1,43,113,38
1,43,115,52
1,43,113,52
1,43,125,74
1,43,122,82
1,43,113,88
1,43,113,152
1,43,125,34
1,43,122,70
1,43,125,90
1,47,127,62
1,47,122,92
1,47,110,112
1,47,107,154
1,47,111,44
1,47,117,90
1,47,122,86
1,40,125,96
1,40,122,72
1,40,113,96
1,40,111,160
1,40,105,42
1,40,122,118
1,40,122,88
1,45,122,100
1,45,122,76
1,45,115,92
1,45,111,156
1,45,105,44
1,45,122,114
1,45,115,72
1,47,125,92
1,47,120,94
1,47,113,114
1,47,115,160
1,47,107,36
1,47,120,116
1,47,122,90
1,35,111,66
1,35,115,982
1,47,117,22
1,45,127,0
1,45,127,204
1,40,122,114
1,40,117,164
1,40,117,38
1,40,125,104
1,40,127,104
1,47,117,102
1,47,127,190
1,42,122,122
1,42,120,164
1,42,113,40
1,42,125,104
1,42,125,100
1,45,127,104
1,45,127,204
1,40,122,114
1,40,117,164
1,40,117,38
1,40,125,104
1,40,127,104
1,47,117,102
1,47,127,190
1,42,122,122
1,42,120,164
1,42,113,40
1,42,125,104
1,42,125,100
1,45,127,104
1,45,127,204
1,40,122,114
1,40,117,164
1,40,117,38
1,40,125,104
1,40,127,104
1,45,127,102
1,45,127,200
1,45,115,110
1,45,117,164
1,45,110,46
1,45,122,70
1,45,122,104
1,40,125,104
1,40,127,206
1,45,122,120
1,45,122,158
1,45,107,28
1,45,122,88
1,45,120,98
1,35,108,100
1,47,100,58
1,35,102,24
1,35,108,72
1,47,120,10
1,47,111,134
1,35,105,22
1,35,113,62
1,47,113,14
1,47,111,64
1,47,113,66
1,45,122,72
1,45,127,200
1,40,117,128
1,40,111,160
1,40,107,46
1,40,117,112
1,40,117,104
1,47,115,104
1,47,117,206
1,42,104,120
1,42,105,160
1,42,110,42
1,42,115,102
1,42,115,102
1,45,117,100
1,45,122,200
1,40,111,128
1,40,108,162
1,40,110,48
1,40,115,104
1,40,115,102
1,35,113,104
1,47,115,44
1,35,102,12
1,35,111,72
1,47,125,2
1,47,115,162
1,35,93,16
1,35,115,54
1,47,115,6
1,47,115,82
1,47,111,66
1,45,122,72
1,45,127,200
1,40,117,128
1,40,111,160
1,40,107,46
1,40,117,112
1,40,117,104
1,47,115,104
1,47,117,206
1,42,104,120
1,42,105,160
1,42,110,42
1,42,115,102
1,42,115,102
1,45,117,100
1,45,122,200
1,40,111,128
1,40,108,162
1,40,110,48
1,40,115,104
1,40,115,102
1,35,113,104
1,47,115,44
1,35,102,12
1,35,111,72
1,47,125,2
1,47,115,162
1,35,93,16
1,35,115,54
1,47,115,6
1,47,115,82
1,47,111,66
1,45,122,72
1,45,127,200
1,40,117,128
1,40,111,160
1,40,107,46
1,40,117,112
1,40,117,104
1,47,115,104
1,47,117,206
1,42,104,120
1,42,105,160
1,42,110,42
1,42,115,102
1,42,115,102
1,45,117,100
1,45,122,200
1,40,111,128
1,40,108,162
1,40,110,48
1,40,115,104
1,40,115,102
1,35,113,104
1,47,115,44
1,35,102,12
1,35,111,72
1,47,125,2
1,47,115,162
1,35,93,16
1,35,115,54
1,47,115,6
1,47,115,82
1,47,111,66
1,45,122,72
1,45,127,200
1,40,117,128
1,40,111,160
1,40,107,46
1,40,117,112
1,40,117,104
1,47,115,104
1,47,117,206
1,42,104,120
1,42,105,160
1,42,110,42
1,42,115,102
1,42,115,102
1,45,117,100
1,45,122,200
1,40,111,128
1,40,108,162
1,40,110,48
1,40,115,104
1,40,115,102
1,35,113,104
1,47,115,44
1,35,102,12
1,35,111,72
1,47,125,2
1,47,115,162
1,35,93,16
1,35,115,54
1,47,115,6
1,47,115,82
1,47,111,66
1,45,122,72
1,45,127,200
1,40,117,128
1,40,111,160
1,40,107,46
1,40,117,112
1,40,117,40
1,47,115,104
1,47,117,164
1,42,104,16
1,42,105,160
1,42,110,42
1,42,115,102
1,42,115,102
1,45,117,100
1,45,122,200
1,40,111,128
1,40,108,162
1,40,110,48
1,40,115,104
1,40,115,102
1,35,113,104
1,47,115,44
1,35,102,12
1,35,111,72
1,47,125,2
1,47,115,22
1,35,93,16
1,35,115,54
1,47,115,6
1,47,115,82
1,47,111,66
1,45,122,12
1,45,127,200
1,40,117,128
1,40,111,160
1,40,107,46
1,40,117,112
1,40,117,104
1,47,115,24
1,47,117,170
1,42,104,80
1,42,105,22
1,42,110,42
1,42,115,102
1,42,115,102
1,45,117,100
1,45,122,200
1,40,111,128
1,40,108,162
1,40,110,48
1,40,115,104
1,40,115,102
1,35,113,64
1,47,115,44
1,35,102,12
1,35,111,26
1,47,125,2
1,47,115,60
1,35,93,16
1,35,115,2
1,47,115,6
1,47,115,82
1,47,111,66
1,45,122,72
1,45,127,120
1,40,117,128
1,40,111,44
1,40,107,46
1,40,117,68
1,40,117,104
1,47,115,104
1,47,117,206
1,42,104,4
1,42,105,160
1,42,110,42
1,42,115,102
1,42,115,102
1,45,117,100
1,45,122,200
1,40,111,20
1,40,108,162
1,40,110,48
1,40,115,104
1,40,115,102
2,62,116,128228
2,67,108,0
2,62,76,36
2,67,68,0
2,62,112,18
2,67,112,0
2,62,72,4
2,67,72,0
2,60,120,4
2,65,116,0
2,60,80,10
2,65,76,0
2,60,108,6
2,65,112,0
2,60,68,18
2,65,72,0
2,60,120,4
2,64,120,0
2,62,104,2
2,60,80,14
2,64,80,0
2,62,64,18
2,55,100,8
2,60,112,0
2,62,84,16
2,55,60,12
2,60,72,0
2,55,104,2
2,62,44,0
2,55,64,2
2,62,60,0
2,55,116,2
2,62,116,0
2,55,76,30
2,62,76,0
2,55,112,2
2,62,84,0
2,55,72,60
2,62,44,0
2,55,116,2
2,62,96,0
2,55,76,32
2,62,56,0
2,62,116,0
2,67,108,0
2,62,76,42
2,67,68,0
2,62,112,18
2,67,112,0
2,62,72,4
2,67,72,0
2,60,120,4
2,65,116,0
2,60,80,10
2,65,76,0
2,60,108,6
2,65,112,0
2,60,68,18
2,65,72,0
2,60,120,4
2,64,120,0
2,62,104,18
2,60,80,14
2,64,80,0
2,62,64,18
2,55,100,8
2,60,112,0
2,62,84,16
2,55,60,12
2,60,72,0
2,55,104,2
2,62,44,0
2,55,64,2
2,62,60,0
2,55,116,2
2,62,116,0
2,55,76,50
2,62,76,0
2,55,112,2
2,62,84,0
2,55,72,0
2,62,44,0
2,55,116,2
2,62,96,0
2,55,76,48
2,62,56,0
2,62,116,0
2,67,108,0
2,62,76,6
2,67,68,0
2,62,112,18
2,67,112,0
2,62,72,4
2,67,72,0
2,60,120,4
2,65,116,0
2,60,80,10
2,65,76,0
2,60,108,6
2,65,112,0
2,60,68,18
2,65,72,0
2,60,120,4
2,64,120,0
2,62,104,2
2,60,80,14
2,64,80,0
2,62,64,18
2,55,100,8
2,60,112,0
2,62,84,16
2,55,60,12
2,60,72,0
2,55,104,2
2,62,44,0
2,55,64,2
2,62,60,0
2,55,116,2
2,62,116,0
2,55,76,42
2,62,76,0
2,55,112,2
2,62,84,0
2,55,72,24
2,62,44,0
2,55,116,2
2,62,96,0
2,55,76,50
2,62,56,0
2,62,116,0
2,67,108,0
2,62,76,36
2,67,68,0
2,62,112,18
2,67,112,0
2,62,72,4
2,67,72,0
2,60,120,4
2,65,116,0
2,60,80,10
2,65,76,0
2,60,108,6
2,65,112,0
2,60,68,18
2,65,72,0
2,60,120,4
2,64,120,0
2,62,104,2
2,60,80,14
2,64,80,0
2,62,64,18
2,55,100,8
2,60,112,0
2,62,84,16
2,55,60,12
2,60,72,0
2,73,124,10
2,37,124,2
3,55,108,13748
3,59,114,60
3,62,116,78
3,65,116,44
3,62,113,80
3,55,114,58
3,64,115,68
3,60,117,42
3,55,117,48
3,55,112,3958
3,59,116,52
3,62,118,54
3,65,112,34
3,62,115,64
3,55,112,34
3,64,116,40
3,60,112,14
3,64,98,34
3,60,95,12
3,64,90,28
3,60,88,12
3,55,113,3078
3,59,116,62
3,62,113,62
3,65,116,42
3,62,112,58
3,55,113,36
3,64,115,42
3,60,112,38
3,55,113,36
3,60,100,20
3,55,94,36
3,60,90,14
3,55,85,36
3,57,106,2804
3,57,114,94
3,59,112,30
3,60,114,62
3,59,109,48
3,57,112,34
3,57,112,102
3,55,110,8
3,60,114,16
3,62,112,34
3,57,110,182
3,62,105,30
3,57,97,154
3,62,88,30
3,57,80,154
3,64,111,6
3,65,114,40
3,64,110,44
3,62,110,22
3,59,110,60
3,60,110,58
3,62,109,62
3,59,111,44
3,55,112,44
3,55,110,54
3,59,114,34
3,55,112,12
