track,note,velocity,time
4,36,105,584
4,36,91,29
4,36,103,74
4,33,104,384
4,33,100,56
4,33,101,69
4,29,97,384
4,29,100,39
4,29,94,66
4,28,93,384
4,28,94,37
4,28,97,66
4,36,102,22
4,36,93,43
4,36,87,66
4,33,99,384
4,33,96,34
4,33,93,62
4,29,92,384
4,29,87,32
4,29,90,50
4,28,91,384
4,36,88,81
4,36,82,37
4,33,89,56
4,29,86,0
4,28,83,2
4,36,70,36
4,33,92,19
4,33,86,40
4,29,80,60
4,28,85,768
4,29,89,1
4,29,84,40
4,31,91,56
4,36,84,8
4,36,85,30
4,33,89,53
4,29,90,3
4,29,85,35
4,31,87,39
4,31,82,29
4,33,78,1
4,36,78,48
4,31,89,0
4,28,93,5
4,33,90,48
4,33,91,39
4,29,87,52
4,29,86,24
4,31,90,56
4,31,83,24
4,33,85,0
4,36,79,5
4,38,80,5
4,36,83,48
4,35,87,188
4,33,89,8
4,31,82,2
4,29,99,14
4,29,95,21
4,29,93,252
4,29,89,26
4,29,89,30
4,29,105,221
4,36,96,95
4,36,89,28
4,36,90,66
4,33,92,6
4,33,93,38
4,33,101,62
4,29,89,5
4,29,89,43
4,29,90,61
4,28,89,8
4,28,89,16
4,28,93,50
4,36,97,7
4,36,76,22
4,36,88,38
4,33,85,2
4,33,83,30
4,33,83,54
4,29,88,384
4,29,91,6
4,29,85,56
4,28,83,2
4,29,87,96
4,29,85,48
4,31,83,48
4,31,86,0
4,33,93,0
4,36,89,48
4,31,85,0
4,28,82,0
4,33,87,48
4,29,82,383
4,29,82,48
4,31,82,48
4,31,83,192
4,33,78,47
4,36,81,0
4,38,87,0
4,36,85,0
4,35,89,190
4,33,89,190
4,28,89,190
4,29,87,190
4,29,80,48
4,31,85,48
4,31,80,48
4,33,86,0
4,36,83,0
4,38,81,0
4,36,79,48
4,47,80,191
4,45,76,190
4,43,83,190
4,29,85,190
4,29,92,0
4,29,76,240
4,29,85,48
4,29,87,0
4,29,87,240
4,29,101,720
4,29,101,26
4,29,101,74
4,29,101,28
4,29,99,355
4,29,99,24
4,29,99,70
4,29,99,28
4,29,98,399
4,36,95,43
4,29,104,132
4,29,104,26
4,29,104,68
4,29,104,29
4,31,102,360
4,31,102,25
4,31,102,65
4,31,101,27
4,43,107,34
4,31,107,13
4,29,107,42
4,31,105,104
4,33,101,2
4,36,102,1
4,36,99,24
4,33,87,8
4,33,104,96
4,31,96,5
4,29,94,58
4,33,94,238
4,28,85,64
4,33,92,16
4,28,93,20
4,33,94,20
4,31,85,38
4,29,104,24
4,31,97,240
4,33,90,6
4,36,95,5
4,36,93,56
4,33,104,7
4,31,87,8
4,36,112,8
4,31,103,33
4,33,108,2
4,34,103,18
4,34,98,44
4,34,90,64
4,34,106,49
4,34,91,62
4,34,91,56
4,34,79,37
4,36,90,48
4,39,84,5
4,41,70,14
4,39,104,2
4,39,110,16
4,39,103,63
4,36,96,48
4,36,93,62
4,36,93,70
4,32,92,29
4,32,98,80
4,32,90,68
4,31,87,8
4,31,89,61
4,31,91,65
4,29,89,192
4,39,94,24
4,39,89,62
4,39,82,61
4,34,94,16
4,31,83,17
4,36,83,20
4,36,85,48
4,36,96,61
4,31,80,20
4,34,76,14
4,31,85,14
4,36,85,22
4,32,84,6
4,32,85,60
4,32,81,66
4,31,87,32
4,31,91,60
4,35,85,61
4,35,93,10
4,36,91,28
4,36,93,48
4,38,94,0
4,27,86,0
4,34,81,14
4,31,82,16
4,36,80,12
4,32,85,40
4,32,84,75
4,34,77,64
4,34,79,40
4,36,80,0
4,39,74,0
4,41,78,10
4,39,84,1
4,38,89,10
4,36,87,3
4,31,95,2
4,32,85,192
4,32,92,52
4,34,82,59
4,34,82,32
4,36,82,12
4,39,84,4
4,41,85,6
4,39,88,3
4,38,89,1
4,36,83,4
4,34,89,192
4,32,103,64
4,32,71,14
4,32,102,56
4,34,89,66
4,39,99,20
4,39,104,43
4,36,92,65
4,32,103,27
4,32,100,45
4,34,93,60
4,39,97,27
4,39,103,60
4,36,93,58
4,32,107,29
4,32,104,53
4,34,97,60
4,39,102,26
4,39,103,43
4,36,92,59
4,32,102,14
4,32,99,56
4,34,96,59
4,34,87,14
4,31,87,14
4,36,102,9
4,24,87,384
4,29,101,28
4,29,107,40
4,29,101,58
4,38,101,33
4,38,105,51
4,38,104,54
4,34,102,9
4,34,107,48
4,34,106,56
4,33,107,6
4,33,105,51
4,33,109,59
4,29,101,32
4,29,107,40
4,29,101,58
4,38,101,33
4,38,105,52
4,38,104,54
4,34,102,10
4,34,107,48
4,34,106,56
4,33,107,5
4,33,105,51
4,33,109,60
4,29,101,32
4,29,107,40
4,29,101,58
4,38,101,33
4,38,105,52
4,38,104,54
4,34,102,10
4,34,107,48
4,34,106,55
4,33,107,5
4,33,105,51
4,33,109,60
4,29,101,33
4,29,107,40
4,29,101,58
4,38,101,33
4,38,105,52
4,38,104,54
4,34,102,10
4,34,107,48
4,34,106,56
4,33,107,5
4,33,105,52
4,33,109,60
4,29,97,32
5,48,80,388
5,55,80,4
5,60,83,6
5,64,80,11
5,55,73,379
5,64,82,1
5,45,83,1
5,60,78,0
5,57,78,380
5,60,83,14
5,41,78,0
5,64,88,2
5,59,76,392
5,62,78,15
5,40,76,0
5,64,74,5
5,64,76,54
5,60,85,12
5,55,72,5
5,48,89,7
5,64,72,384
5,60,85,8
5,55,74,10
5,45,91,6
5,57,70,387
5,41,76,12
5,60,80,2
5,64,70,6
5,59,63,386
5,40,75,10
5,62,81,0
5,64,79,10
5,41,81,23
5,48,93,10
5,52,70,5
5,57,88,12
5,60,82,5
5,64,81,3
5,43,80,6
5,55,67,6
5,59,88,8
5,62,84,4
5,48,95,12
5,55,74,6
5,60,85,6
5,64,70,4
5,45,89,5
5,57,70,5
5,60,65,8
5,64,68,4
5,41,75,38
5,53,65,4
5,57,74,7
5,60,69,3
5,64,77,5
5,43,82,18
5,55,75,1
5,59,81,2
5,62,73,6
5,48,93,19
5,55,75,6
5,60,66,2
5,64,80,3
5,45,95,11
5,55,75,1
5,60,67,3
5,64,71,2
5,41,73,7
5,53,65,3
5,57,77,3
5,60,70,2
5,64,76,3
5,43,78,10
5,55,62,4
5,59,72,4
5,62,66,3
5,43,90,6
5,45,89,35
5,48,91,37
5,50,93,46
5,48,97,3
5,52,89,96
5,55,89,1
5,47,97,48
5,50,96,86
5,55,83,48
5,45,87,5
5,52,73,86
5,55,91,12
5,43,82,0
5,59,84,98
5,41,87,29
5,52,60,1
5,57,83,2
5,60,85,2
5,64,92,3
5,60,74,7320
5,64,89,12
5,69,90,25
5,59,79,2
5,62,88,10
5,67,80,13
5,60,85,18
5,64,84,9
5,67,76,14
5,60,89,22
5,64,84,9
5,69,72,16
5,60,80,9
5,64,96,9
5,69,76,12
5,59,80,24
5,62,91,7
5,67,79,15
5,43,88,167
5,45,85,36
5,48,83,1
5,50,90,4
5,48,97,13
5,52,90,96
5,55,80,48
5,47,90,32
5,50,88,8
5,55,76,4
5,52,81,18
5,57,83,3
5,60,91,11
5,64,76,15
5,60,80,24
5,52,80,8
5,67,83,5
5,72,85,15
5,60,78,9
5,64,91,12
5,69,74,8
5,59,85,3
5,62,91,8
5,67,76,13
5,43,88,169
5,45,83,2
5,48,83,48
5,50,90,4
5,48,95,14
5,52,91,96
5,55,79,48
5,47,92,24
5,50,74,96
5,55,70,46
5,52,84,22
5,57,89,10
5,60,81,11
5,60,84,102
5,64,95,7
5,69,87,11
5,57,90,124
5,60,90,10
5,64,85,6
5,69,90,16
5,51,66,13250
5,56,83,6
5,60,80,18
5,63,79,8
5,53,90,26
5,58,87,14
5,62,72,14
5,55,80,27
5,58,93,9
5,63,71,6
5,55,80,36
5,60,86,5
5,63,84,16
5,51,62,64
5,56,76,8
5,60,87,11
5,63,78,6
5,53,67,33
5,58,85,1
5,62,76,6
5,46,95,3
5,48,94,8
5,51,90,6
5,53,87,8
5,51,88,47
5,55,96,94
5,58,95,12
5,50,96,2
5,55,92,96
5,58,93,13
5,48,91,25
5,51,68,92
5,46,78,21
5,51,74,18
5,55,86,6
5,60,91,5
5,63,78,9
5,53,84,48
5,58,89,1
5,62,80,8
5,46,89,176
5,48,87,4
5,51,93,5
5,53,95,13
5,51,95,12
5,55,83,94
5,58,88,17
5,50,87,32
5,55,89,86
5,58,91,8
5,48,96,13
5,51,93,95
5,58,65,14
5,46,77,21
5,63,86,68
5,55,86,3
5,51,91,0
5,60,85,0
6,67,101,811
6,69,104,13
6,71,104,23
6,72,85,19
6,71,74,17
6,71,70,17
6,67,90,191
6,69,97,13
6,71,104,29
6,72,79,20
6,74,79,7
6,71,76,10
6,69,76,26
6,69,83,20
6,69,104,24
6,67,88,14
6,67,94,23
6,67,104,23
6,65,75,7
6,65,92,16
6,65,104,21
6,64,72,0
6,62,73,46
6,64,75,17
6,67,99,601
6,69,99,14
6,71,104,24
6,72,86,17
6,71,88,13
6,71,94,20
6,74,65,3
6,67,76,71
6,69,107,10
6,71,110,29
6,72,82,19
6,74,83,13
6,71,70,11
6,69,64,74
6,69,97,27
6,69,120,22
6,67,78,11
6,67,76,20
6,67,92,23
6,65,75,7
6,65,94,17
6,65,101,26
6,64,75,0
6,62,94,17
6,64,86,20
6,69,101,329
6,69,94,14
6,76,92,23
6,67,65,0
6,67,107,70
6,79,94,7
6,75,100,20
6,76,107,0
6,75,62,1
6,74,101,20
6,72,73,199
6,69,92,77
6,69,88,19
6,76,97,17
6,67,85,0
6,67,68,134
6,67,85,19
6,67,80,17
6,69,107,20
6,72,101,20
6,74,104,26
6,72,85,10
6,69,83,64
6,69,86,26
6,76,97,26
6,67,73,0
6,67,101,51
6,79,99,13
6,75,96,26
6,76,86,1
6,74,86,11
6,76,79,185
6,74,62,30
6,72,83,3
6,69,73,86
6,69,97,22
6,76,101,14
6,67,71,4
6,69,66,0
6,67,80,1056
6,69,92,13
6,71,94,29
6,72,74,17
6,71,76,20
6,71,80,17
6,67,88,90
6,69,104,16
6,71,104,26
6,72,83,17
6,74,85,20
6,71,82,14
6,69,65,29
6,69,75,29
6,69,113,27
6,67,76,7
6,67,71,23
6,67,107,29
6,65,75,7
6,65,101,14
6,65,110,17
6,64,85,14
6,62,92,11
6,63,96,47
6,64,90,0
6,67,92,490
6,69,99,13
6,71,101,20
6,72,97,16
6,71,94,17
6,71,101,23
6,73,86,11
6,74,113,10
6,67,90,13
6,69,99,17
6,71,107,27
6,72,90,10
6,74,92,11
6,71,90,14
6,69,97,48
6,69,68,20
6,69,101,27
6,67,75,10
6,67,86,26
6,67,104,23
6,65,80,4
6,65,94,23
6,65,110,29
6,64,74,7
6,62,83,47
6,64,88,17
6,69,92,194
6,69,88,19
6,76,94,20
6,67,71,0
6,67,107,32
6,79,107,1
6,75,96,13
6,76,101,12
6,74,88,10
6,76,76,1
6,74,73,27
6,72,82,0
6,69,86,7
6,69,92,20
6,76,92,7
6,67,76,0
6,67,66,149
6,67,83,16
6,67,97,24
6,69,113,20
6,72,101,13
6,74,107,48
6,76,78,7
6,72,88,10
6,69,80,167
6,69,92,20
6,76,94,10
6,67,85,11
6,67,104,121
6,79,92,7
6,75,96,29
6,76,101,11
6,74,79,7
6,76,59,3
6,74,57,28
6,72,78,0
6,69,75,90
6,69,88,23
6,76,88,13
6,67,71,7
6,69,65,92
6,70,92,8061
6,72,86,13
6,74,110,20
6,75,86,23
6,74,99,20
6,74,92,26
6,70,92,204
6,72,80,19
6,74,113,26
6,75,84,13
6,77,85,17
6,74,97,20
6,72,92,38
6,72,83,24
6,72,101,26
6,70,86,17
6,70,81,26
6,70,104,30
6,68,89,23
6,68,92,23
6,68,96,33
6,67,62,16
6,65,72,23
6,66,79,17
6,67,80,1
6,70,96,730
6,72,94,17
6,74,113,23
6,75,92,16
6,74,110,16
6,74,88,26
6,75,79,75
6,76,68,7
6,77,101,18
6,70,54,96
6,72,80,17
6,74,113,23
6,75,96,33
6,77,82,14
6,74,85,14
6,72,78,7
6,72,97,20
6,72,117,20
6,70,84,16
6,70,86,7
6,70,114,23
6,68,81,10
6,68,86,17
6,68,109,29
6,67,86,10
6,65,90,16
6,66,79,22
6,67,72,1
6,67,82,16
6,67,74,17
6,67,62,17
6,72,101,268
6,72,99,24
6,79,97,40
6,70,92,8
6,70,100,100
6,82,79,23
6,79,94,33
6,77,90,10
6,75,86,4
6,72,88,90
6,72,88,23
6,79,86,38
6,70,81,23
6,70,59,13
6,70,84,51
6,70,77,23
6,70,64,14
6,72,90,22
6,75,89,19
6,77,99,58
6,79,74,7
6,75,86,13
6,72,82,83
6,72,94,30
6,79,101,48
6,70,84,6
6,70,100,77
6,82,68,10
6,79,94,26
6,77,88,13
6,75,86,14
6,72,79,137
6,72,94,29
6,75,82,10
6,70,94,16
6,72,79,16
6,70,75,1353
6,70,79,23
6,70,86,23
6,70,96,23
6,72,94,17
6,75,104,17
6,77,104,26
6,79,68,79
6,77,66,20
6,75,86,13
6,79,104,26
6,77,101,42
6,70,71,560
6,70,66,20
6,70,77,23
6,70,89,26
6,72,85,14
6,75,100,17
6,77,101,23
6,79,75,79
6,77,62,13
6,75,86,13
6,72,117,7
6,72,110,26
6,79,97,16
6,79,97,4
6,77,92,94
6,70,96,34
6,70,63,614
6,70,69,20
6,70,86,23
6,70,96,23
6,72,88,14
6,75,100,17
6,77,99,23
6,79,71,0
6,77,66,28
6,75,81,16
6,72,104,1
6,72,86,26
6,79,94,0
6,79,86,0
6,70,89,26
6,77,82,1
7,41,92,40
8,47,72,29
8,48,55,7
8,50,57,4
8,52,59,0
8,53,59,4
8,55,70,1
8,57,68,0
8,59,69,0
8,60,76,0
8,62,75,1
8,65,80,0
8,64,71,0
8,67,79,1
8,69,82,0
8,71,72,0
8,72,82,0
8,74,76,1
8,76,64,0
8,77,68,0
8,79,72,0
8,81,60,1
8,83,58,0
8,84,68,0
8,86,62,1
8,88,56,0
8,89,61,2
8,91,78,1
9,67,101,3
9,60,71,4
9,64,77,0
9,67,101,116
9,60,71,4
9,64,77,0
9,76,68,0
9,72,66,0
9,72,66,144
9,76,66,0
9,76,66,143
9,72,66,0
9,72,71,144
9,76,73,0
9,76,66,144
9,74,66,0
9,71,58,0
9,76,66,142
9,74,65,0
9,71,67,0
9,76,66,144
9,71,65,0
9,74,64,0
9,71,69,144
9,74,71,0
9,76,72,0
9,72,67,140
9,76,75,0
9,69,66,0
9,72,69,144
9,76,66,0
9,69,65,0
9,72,68,143
9,69,54,0
9,76,66,0
9,69,58,144
9,72,65,0
9,76,59,0
9,76,63,144
9,71,60,0
9,74,61,0
9,76,57,143
9,74,61,0
9,71,58,0
9,76,54,144
9,71,59,0
9,74,63,0
9,76,54,144
9,74,62,0
9,71,58,0
10,64,72,2068
10,62,78,0
10,67,70,191
10,60,72,189
10,59,78,6
10,64,72,192
10,57,78,6
10,59,73,668
10,60,78,48
10,59,74,44
10,64,75,765
10,62,68,3
10,67,76,192
10,60,76,190
10,59,79,4
10,64,76,192
10,57,74,0
10,59,68,5
10,60,60,5
10,59,51,4
11,48,80,484
11,82,49,36
11,63,92,37
11,32,41,39
11,64,57,0
11,75,58,134
11,75,70,41
11,32,74,132
11,32,75,39
11,32,75,40
11,32,72,36
11,64,64,37
11,64,94,39
11,63,90,138
11,75,40,181
11,75,55,37
11,48,72,40
11,48,75,86
11,82,71,38
11,48,84,0
11,32,52,36
11,32,72,38
11,64,58,39
11,64,95,42
11,48,80,36
11,82,49,37
11,63,92,37
11,32,41,40
11,64,57,0
11,75,58,134
11,75,70,40
11,32,74,132
11,32,75,39
11,32,75,40
11,32,72,41
11,64,64,36
11,64,94,38
11,63,90,136
11,75,40,180
11,75,55,40
11,48,72,36
11,48,75,87
11,82,71,37
11,48,84,0
11,32,52,35
11,32,72,36
11,64,58,38
11,64,95,40
11,35,125,41
11,49,79,0
11,51,45,32
11,51,59,38
11,42,105,0
11,63,92,0
11,51,45,35
