track,note,velocity,time
0,51,101,2
0,68,104,0
0,58,104,0
0,63,101,0
0,39,104,0
0,68,104,192
0,58,104,0
0,63,104,0
0,66,98,198
0,58,101,0
0,63,104,0
0,66,101,210
0,63,101,0
0,58,101,0
0,68,98,206
0,63,101,0
0,58,101,0
0,58,98,214
0,68,101,0
0,63,101,0
0,66,95,50
0,58,98,0
0,63,104,0
0,46,101,46
0,34,104,0
0,66,95,58
0,58,98,0
0,63,104,0
0,37,107,0
0,49,104,0
0,50,98,46
0,38,104,0
0,39,101,50
0,63,101,0
0,68,101,0
0,51,92,0
0,58,98,0
0,58,101,194
0,63,101,0
0,68,101,0
0,66,95,186
0,58,98,0
0,63,104,0
0,63,101,226
0,58,98,0
0,66,101,0
0,68,101,212
0,58,98,0
0,63,101,0
0,69,44,222
0,68,101,0
0,58,98,0
0,63,98,0
0,66,92,164
0,58,89,0
0,63,101,0
0,46,101,9
0,34,104,0
0,34,105,16
0,48,110,0
0,37,107,10
0,49,104,0
0,63,104,0
0,66,101,0
0,58,101,0
0,37,117,0
0,45,121,0
0,50,98,56
0,38,104,0
0,38,90,16
0,63,104,10
0,68,104,0
0,58,104,0
0,39,120,0
0,35,110,0
0,44,107,0
0,41,110,0
0,63,107,100
0,58,104,0
0,68,104,0
0,66,104,188
0,58,101,0
0,63,104,0
0,75,92,70
0,75,92,40
0,58,104,12
0,63,104,0
0,66,101,0
0,80,104,76
0,58,101,4
0,68,101,0
0,63,104,0
0,80,104,106
0,58,104,8
0,68,104,0
0,63,104,0
0,78,98,8
0,66,98,174
0,58,101,0
0,63,104,0
0,34,107,68
0,46,104,0
0,34,117,0
0,35,107,0
0,48,107,0
0,58,104,0
0,66,104,0
0,63,104,0
0,37,107,0
0,49,104,0
0,37,123,0
0,35,92,0
0,45,107,0
0,34,107,0
0,46,104,0
0,34,120,0
0,35,107,0
0,59,104,32
0,63,107,0
0,68,104,0
0,35,107,0
0,47,104,0
0,35,126,0
0,35,101,0
0,59,104,150
0,68,104,0
0,63,104,0
0,75,77,28
0,63,104,128
0,66,101,0
0,59,101,0
0,78,95,6
0,78,95,72
0,66,104,126
0,63,104,0
0,59,101,0
0,75,95,40
0,68,104,106
0,63,104,0
0,59,104,0
0,80,101,2
0,63,107,2
0,68,107,0
0,59,104,0
0,75,104,18
0,75,95,22
0,63,104,162
0,66,104,0
0,59,101,0
0,34,107,64
0,46,104,0
0,34,105,0
0,35,107,0
0,48,107,0
0,63,107,32
0,66,104,0
0,59,104,0
0,37,107,0
0,49,107,0
0,37,117,0
0,35,107,0
0,45,107,0
0,75,107,6
0,38,107,0
0,50,104,0
0,75,124,28
0,63,104,52
0,68,104,0
0,58,104,0
0,39,107,0
0,51,107,0
0,39,120,0
0,35,110,0
0,63,107,124
0,58,104,0
0,68,104,0
0,66,104,56
0,58,101,0
0,63,104,0
0,58,104,202
0,63,104,0
0,66,101,0
0,58,101,184
0,68,101,0
0,63,104,0
0,58,104,206
0,68,104,0
0,63,104,0
0,66,98,174
0,58,101,0
0,63,104,0
0,34,107,68
0,46,104,0
0,34,117,0
0,35,107,0
0,48,107,0
0,58,104,0
0,66,104,0
0,63,104,0
0,37,107,0
0,49,104,0
0,37,123,0
0,35,92,0
0,45,107,0
0,34,107,0
0,46,104,0
0,34,120,0
0,35,107,0
0,59,104,32
0,63,107,0
0,68,104,0
0,35,107,0
0,47,104,0
0,35,126,0
0,35,101,0
0,59,104,150
0,68,104,0
0,63,104,0
0,63,104,156
0,66,101,0
0,59,101,0
0,66,104,210
0,63,104,0
0,59,101,0
0,68,104,190
0,63,104,0
0,59,104,0
0,63,107,196
0,68,107,0
0,59,104,0
0,63,104,184
0,66,104,0
0,59,101,0
0,34,107,64
0,46,104,0
0,34,105,0
0,35,107,0
0,48,107,0
0,63,107,32
0,66,104,0
0,59,104,0
0,37,107,0
0,49,107,0
0,37,117,0
0,35,107,0
0,45,107,0
0,38,107,0
0,50,104,0
0,63,104,52
0,68,104,0
0,58,104,0
0,39,107,0
0,51,107,0
0,39,120,0
0,35,110,0
0,63,107,124
0,58,104,0
0,68,104,0
0,75,89,24
0,80,86,0
0,66,104,188
0,58,101,0
0,63,104,0
0,78,80,22
0,75,86,40
0,75,98,34
0,75,89,46
0,58,104,2
0,63,104,0
0,66,101,0
0,78,86,4
0,80,101,36
0,80,89,6
0,58,101,14
0,68,101,0
0,63,104,0
0,80,104,178
0,80,89,24
0,75,92,4
0,58,104,0
0,68,104,0
0,63,104,0
0,78,98,8
0,75,80,48
0,78,83,6
0,66,98,6
0,58,101,0
0,63,104,0
0,34,107,68
0,46,104,0
0,34,117,0
0,35,107,0
0,48,107,0
0,75,86,38
0,78,86,4
0,58,104,0
0,66,104,0
0,63,104,0
0,37,107,0
0,49,104,0
0,37,123,0
0,35,92,0
0,45,107,0
0,34,107,0
0,46,104,0
0,34,120,0
0,35,107,0
0,59,104,14
0,63,107,0
0,68,104,0
0,35,107,0
0,47,104,0
0,35,126,0
0,35,101,0
0,80,86,12
0,75,89,0
0,59,104,150
0,68,104,0
0,63,104,0
0,80,86,18
0,75,95,0
0,63,104,20
0,66,101,0
0,59,101,0
0,75,89,2
0,78,86,4
0,78,104,12
0,78,104,100
0,75,86,104
0,66,104,6
0,63,104,0
0,59,101,0
0,78,77,4
0,82,95,22
0,75,86,24
0,80,86,4
0,68,104,8
0,63,104,0
0,59,104,0
0,80,104,18
0,48,104,68
0,80,86,18
0,75,92,2
0,63,107,4
0,68,107,0
0,59,104,0
0,45,107,0
0,75,101,10
0,75,92,28
0,75,86,124
0,78,86,4
0,63,104,20
0,66,104,0
0,59,101,0
0,47,104,0
0,35,107,0
0,35,123,0
0,35,107,0
0,49,107,0
0,75,89,8
0,78,89,4
0,63,107,20
0,66,104,0
0,59,104,0
0,34,107,0
0,46,104,0
0,34,120,0
0,35,110,0
0,49,110,0
0,75,110,16
0,71,77,32
0,68,77,0
0,68,92,0
0,59,98,0
0,56,98,0
0,63,89,0
0,44,104,0
0,32,107,0
0,32,108,0
0,75,77,4
0,75,107,30
0,38,80,758
0,38,68,44
0,38,71,48
0,38,86,54
0,38,89,42
0,73,92,18
0,38,89,12
0,70,77,0
0,54,83,0
0,42,104,0
0,66,104,0
0,70,107,0
0,73,104,0
0,54,101,0
0,42,123,0
0,35,107,0
0,42,104,0
0,58,83,6
0,73,71,2
0,75,98,12
0,61,80,30
0,73,89,198
0,42,95,88
0,70,98,2
0,73,92,198
0,38,110,130
0,42,104,0
0,42,98,112
0,70,92,22
0,53,86,6
0,57,89,42
0,41,98,0
0,53,86,0
0,65,98,0
0,69,104,0
0,73,101,0
0,41,117,0
0,35,107,0
0,42,104,0
0,73,98,10
0,61,80,18
0,73,77,6
0,69,66,4
0,75,92,0
0,42,95,2
0,73,92,176
0,38,110,134
0,42,104,0
0,42,98,68
0,73,92,18
0,44,101,34
0,56,98,0
0,71,101,0
0,75,92,0
0,68,95,0
0,32,111,0
0,35,104,0
0,42,104,0
0,56,83,2
0,71,80,2
0,75,74,4
0,59,89,10
0,75,92,0
0,63,74,6
0,78,83,192
0,42,95,36
0,78,89,10
0,78,86,46
0,38,110,114
0,42,104,0
0,42,98,68
0,78,95,14
0,75,86,44
0,54,83,0
0,75,68,16
0,78,68,8
0,59,86,2
0,47,101,10
0,71,95,0
0,59,95,0
0,75,92,0
0,66,95,0
0,35,105,0
0,35,107,0
0,42,104,0
0,78,98,14
0,63,71,14
0,80,92,42
0,39,108,10
0,42,95,0
0,75,95,168
0,42,108,88
0,38,110,0
0,42,104,0
0,38,117,128
0,44,102,10
0,38,121,0
0,42,98,0
0,70,86,14
0,54,86,48
0,58,86,5
0,61,83,9
0,42,104,2
0,70,98,0
0,54,95,0
0,73,95,0
0,66,95,0
0,42,117,0
0,35,98,0
0,42,104,0
0,70,92,6
0,77,42,12
0,82,44,0
0,73,40,0
0,70,83,6
0,73,74,6
0,73,83,186
0,73,86,36
0,42,95,12
0,73,80,54
0,38,110,156
0,42,104,0
0,42,98,112
0,70,83,38
0,53,86,2
0,57,92,12
0,70,98,26
0,65,98,2
0,69,104,0
0,53,89,0
0,73,98,0
0,41,86,0
0,41,117,0
0,35,101,0
0,42,104,0
0,61,71,16
0,81,50,0
0,77,62,12
0,73,71,2
0,69,68,2
0,73,89,154
0,73,83,46
0,42,95,10
0,73,92,64
0,38,110,154
0,42,104,0
0,42,98,28
0,73,89,0
0,56,80,60
0,59,86,18
0,75,92,18
0,63,77,2
0,56,98,2
0,44,98,0
0,75,92,0
0,68,95,0
0,71,98,0
0,32,111,0
0,35,101,0
0,38,101,0
0,42,104,0
0,71,54,2
0,75,46,2
0,80,50,0
0,71,83,10
0,75,74,4
0,78,74,6
0,78,89,46
0,32,120,6
0,38,107,0
0,42,95,0
0,78,86,50
0,32,123,128
0,38,111,0
0,42,104,0
0,32,127,96
0,38,111,0
0,42,98,0
0,75,89,6
0,75,92,2
0,74,60,34
0,70,46,4
0,46,104,12
0,58,95,0
0,70,101,0
0,74,104,0
0,65,92,0
0,34,105,0
0,77,54,0
0,35,101,0
0,38,60,0
0,42,104,0
0,80,92,14
0,77,86,0
0,74,86,2
0,58,86,34
0,62,89,16
0,38,64,16
0,66,74,24
0,80,86,24
0,38,77,8
0,38,105,0
0,38,84,0
0,42,95,0
0,85,89,8
0,38,90,32
0,82,95,90
0,38,97,6
0,65,80,26
0,42,123,2
0,38,104,0
0,42,104,0
0,38,111,32
0,38,117,32
0,41,117,32
0,38,124,0
0,42,98,0
0,38,124,32
0,38,127,0
0,58,102,16
0,63,104,0
0,68,104,0
0,58,104,0
0,39,123,0
0,35,107,0
0,42,104,0
0,63,105,18
0,70,89,30
0,80,92,0
0,75,98,0
0,63,107,0
0,58,104,0
0,68,104,0
0,39,123,0
0,38,110,0
0,42,95,0
0,66,104,172
0,58,101,0
0,63,104,0
0,39,123,0
0,35,107,0
0,42,104,0
0,78,89,34
0,75,92,0
0,70,92,0
0,58,104,0
0,63,104,0
0,66,101,0
0,39,126,0
0,38,110,0
0,42,98,0
0,58,96,88
0,58,101,48
0,68,101,0
0,63,104,0
0,39,123,0
0,35,107,0
0,42,104,0
0,68,108,4
0,58,102,92
0,66,105,62
0,80,92,6
0,75,98,0
0,70,92,0
0,58,104,0
0,68,104,0
0,63,104,0
0,39,123,0
0,38,110,0
0,42,95,0
0,58,96,40
0,65,96,76
0,66,98,24
0,58,101,0
0,63,104,0
0,39,123,0
0,35,107,0
0,42,104,0
0,58,80,56
0,61,99,68
0,78,89,16
0,75,86,0
0,70,89,0
0,58,104,0
0,66,104,0
0,63,104,0
0,39,126,0
0,38,110,0
0,42,98,0
0,58,93,10
0,63,105,42
0,59,104,32
0,63,107,0
0,68,104,0
0,35,123,0
0,35,107,0
0,42,104,0
0,71,101,134
0,80,98,0
0,75,101,0
0,59,104,0
0,68,104,0
0,63,104,0
0,35,123,0
0,38,110,0
0,42,95,0
0,63,104,156
0,66,101,0
0,59,101,0
0,35,123,0
0,35,107,0
0,42,104,0
0,78,101,130
0,75,101,0
0,71,95,0
0,66,104,0
0,63,104,0
0,59,101,0
0,35,123,0
0,38,110,0
0,42,98,0
0,59,93,70
0,68,104,64
0,63,104,0
0,59,104,0
0,35,123,0
0,35,107,0
0,42,104,0
0,48,107,0
0,63,99,24
0,48,92,58
0,48,98,60
0,59,90,36
0,75,101,64
0,80,98,0
0,71,89,0
0,63,107,0
0,68,107,0
0,59,104,0
0,35,123,0
0,42,95,0
0,41,104,0
0,65,93,10
0,41,98,54
0,41,92,56
0,59,96,42
0,63,104,32
0,66,104,0
0,59,101,0
0,35,120,0
0,35,107,0
0,42,104,0
0,48,107,0
0,66,99,12
0,48,104,58
0,48,104,4
0,59,99,24
0,71,89,28
0,78,101,0
0,75,95,0
0,63,107,0
0,66,104,0
0,59,104,0
0,35,120,0
0,42,98,0
0,41,107,0
0,68,105,10
0,41,101,56
0,59,76,28
0,41,95,8
0,62,111,0
0,80,77,32
0,63,111,0
0,63,104,0
0,68,104,0
0,58,104,0
0,39,111,0
0,35,107,0
0,42,104,0
0,75,71,38
0,70,80,2
0,80,89,30
0,63,107,0
0,58,104,0
0,68,104,0
0,39,111,0
0,38,110,0
0,42,95,0
0,75,68,94
0,70,77,48
0,78,92,40
0,66,104,0
0,58,101,0
0,63,104,0
0,39,114,0
0,35,107,0
0,42,104,0
0,75,74,46
0,75,92,28
0,70,86,4
0,75,92,22
0,78,86,12
0,58,104,0
0,63,104,0
0,66,101,0
0,39,114,0
0,38,110,0
0,42,98,0
0,75,60,94
0,70,71,56
0,80,104,76
0,80,86,4
0,58,101,0
0,68,101,0
0,63,104,0
0,39,114,0
0,35,107,0
0,42,104,0
0,75,66,74
0,70,83,10
0,80,104,60
0,80,89,8
0,58,104,0
0,68,104,0
0,63,104,0
0,39,114,0
0,38,110,0
0,42,95,0
0,75,68,88
0,78,98,6
0,70,68,0
0,78,86,20
0,66,98,0
0,58,101,0
0,63,104,0
0,39,114,0
0,35,107,0
0,42,104,0
0,75,62,46
0,70,83,68
0,78,86,84
0,58,104,0
0,66,104,0
0,63,104,0
0,39,114,0
0,38,110,0
0,42,98,0
0,75,62,94
0,70,71,22
0,80,83,78
0,59,104,0
0,63,107,0
0,68,104,0
0,35,102,0
0,35,107,0
0,42,104,0
0,75,71,74
0,71,71,4
0,80,89,30
0,59,104,0
0,68,104,0
0,63,104,0
0,35,111,0
0,38,110,0
0,42,95,0
0,75,71,80
0,75,77,28
0,71,77,0
0,78,86,116
0,63,104,0
0,66,101,0
0,59,101,0
0,35,117,0
0,35,107,0
0,42,104,0
0,78,95,6
0,75,71,84
0,71,83,38
0,78,95,2
0,78,77,34
0,66,104,0
0,63,104,0
0,59,101,0
0,35,120,0
0,38,110,0
0,42,98,0
0,75,58,82
0,75,95,32
0,71,71,22
0,80,86,106
0,68,104,0
0,63,104,0
0,59,104,0
0,35,117,0
0,35,107,0
0,42,104,0
0,80,101,16
0,75,66,68
0,71,71,4
0,80,89,2
0,63,107,0
0,68,107,0
0,59,104,0
0,35,111,0
0,38,110,0
0,42,95,0
0,75,104,18
0,75,68,64
0,75,95,22
0,71,71,28
0,78,89,112
0,63,104,0
0,66,104,0
0,59,101,0
0,35,117,0
0,35,107,0
0,42,104,0
0,75,68,94
0,71,83,36
0,78,83,84
0,63,107,0
0,66,104,0
0,59,104,0
0,35,117,0
0,38,110,0
0,42,98,0
0,75,107,6
0,75,62,94
0,71,68,32
0,75,124,32
0,80,77,0
0,63,104,0
0,68,104,0
0,58,104,0
0,39,108,0
0,35,107,0
0,42,104,0
0,75,71,74
0,70,80,2
0,80,89,30
0,63,107,0
0,58,104,0
0,68,104,0
0,39,108,0
0,38,110,0
0,42,95,0
0,75,68,94
0,70,77,48
0,78,92,40
0,66,104,0
0,58,101,0
0,63,104,0
0,39,108,0
0,35,107,0
0,42,104,0
0,75,74,46
0,70,86,32
0,78,86,34
0,58,104,0
0,63,104,0
0,66,101,0
0,39,105,0
0,38,110,0
0,42,98,0
0,75,60,94
0,70,71,50
0,80,86,104
0,58,101,0
0,68,101,0
0,63,104,0
0,39,105,0
0,35,107,0
0,42,104,0
0,75,66,74
0,70,83,10
0,80,89,68
0,58,104,0
0,68,104,0
0,63,104,0
0,39,108,0
0,38,110,0
0,42,95,0
0,75,68,88
0,70,68,0
0,78,86,20
0,66,98,0
0,58,101,0
0,63,104,0
0,39,108,0
0,35,107,0
0,42,104,0
0,75,62,94
0,70,83,68
0,78,86,84
0,58,104,0
0,66,104,0
0,63,104,0
0,39,111,0
0,38,110,0
0,42,98,0
0,75,62,94
0,70,71,22
0,80,83,78
0,59,104,0
0,63,107,0
0,68,104,0
0,35,111,0
0,35,107,0
0,42,104,0
0,75,71,74
0,71,71,4
0,80,89,30
0,59,104,0
0,68,104,0
0,63,104,0
0,35,114,0
0,38,110,0
0,42,95,0
0,75,71,80
