track,note,velocity,time
0,40,60,404
0,44,110,25
0,60,127,0
0,60,95,5
0,65,102,0
0,44,102,5
0,51,78,81
0,40,52,96
0,56,83,24
0,56,78,20
0,58,102,42
0,40,59,67
0,63,118,23
0,51,98,2
0,53,74,2
0,65,88,6
0,60,88,2
0,56,81,0
0,65,102,8
0,40,49,50
0,63,102,27
0,56,78,5
0,68,110,0
0,51,83,75
0,70,102,3
0,40,53,10
0,65,95,25
0,56,78,2
0,60,95,0
0,72,106,3
0,60,127,12
0,40,49,32
0,51,72,25
0,56,65,3
0,56,79,37
0,40,53,94
0,58,115,26
0,65,99,0
0,53,82,1
0,60,99,2
0,51,80,39
0,40,49,94
0,39,108,5
0,70,106,5
0,56,88,0
0,56,68,13
0,68,106,60
0,63,123,7
0,40,60,10
0,32,108,10
0,51,88,7
0,70,114,8
0,60,99,2
0,65,92,0
0,44,102,3
0,56,78,72
0,68,110,8
0,40,52,63
0,60,119,24
0,56,71,5
0,70,106,3
0,68,106,48
0,51,76,7
0,40,59,42
0,70,106,23
0,65,92,2
0,60,95,3
0,53,86,1
0,56,86,1
0,63,111,22
0,72,94,8
0,40,49,63
0,51,89,27
0,56,71,5
0,56,76,57
0,40,53,45
0,72,118,15
0,60,90,12
0,60,88,3
0,65,88,0
0,75,106,28
0,56,89,2
0,51,78,0
0,40,49,65
0,72,98,18
0,56,74,7
0,56,65,5
0,60,89,17
0,40,53,11
0,53,87,19
0,63,105,1
0,60,88,5
0,65,85,0
0,32,110,8
0,65,97,2
0,36,114,3
0,40,49,91
0,63,97,2
0,56,71,5
0,39,109,8
0,60,107,90
0,40,60,5
0,56,95,22
0,65,92,3
0,60,92,0
0,44,102,2
0,44,109,8
0,51,84,25
0,40,52,38
0,56,74,24
0,56,61,8
0,60,127,52
0,40,59,17
0,51,74,25
0,65,85,0
0,60,92,0
0,53,82,4
0,63,118,4
0,65,110,13
0,56,83,2
0,40,49,80
0,63,99,7
0,56,61,5
0,68,110,3
0,70,102,0
0,51,85,2
0,40,53,73
0,60,92,12
0,65,85,0
0,72,98,3
0,56,72,7
0,56,79,7
0,40,49,72
0,58,123,25
0,56,68,5
0,51,77,50
0,40,53,11
0,60,99,26
0,53,84,1
0,65,85,2
0,56,83,2
0,44,109,8
0,60,127,17
0,39,108,13
0,40,49,56
0,70,114,24
0,51,75,2
0,56,65,3
0,56,84,90
0,68,106,0
0,40,60,68
0,60,95,0
0,65,88,0
0,58,105,2
0,44,105,0
0,70,114,0
0,32,113,5
0,51,90,81
0,68,106,13
0,40,52,68
0,56,85,27
0,70,110,5
0,56,75,3
0,68,106,45
0,63,111,2
0,40,59,67
0,70,106,23
0,51,73,2
0,65,85,0
0,60,88,0
0,53,90,2
0,56,82,25
0,72,94,10
0,40,49,40
0,56,68,32
0,60,105,70
0,40,53,5
0,72,106,5
0,60,92,10
0,65,85,0
0,51,82,5
0,75,106,45
0,56,72,17
0,40,49,12
0,72,118,8
0,58,99,2
0,56,68,0
0,51,78,62
0,40,53,21
0,53,87,3
0,60,85,2
0,65,92,0
0,56,72,5
0,32,109,8
0,63,125,24
0,36,110,3
0,40,49,86
0,60,102,12
0,39,110,8
0,56,71,5
0,56,81,55
0,40,60,5
0,51,111,7
0,60,67,0
0,56,69,0
0,63,67,0
0,53,86,0
0,63,102,5
0,68,105,0
0,60,105,0
0,44,105,2
0,44,114,13
0,72,119,14
0,56,90,17
0,40,52,5
0,72,114,5
0,60,102,22
0,56,75,0
0,51,83,1
0,70,120,23
0,40,59,23
0,60,95,3
0,63,115,2
0,63,99,0
0,68,95,0
0,59,91,3
0,51,88,0
0,37,112,1
0,72,116,5
0,51,86,38
0,40,49,20
0,56,76,2
0,56,82,0
0,70,115,5
0,60,78,1
0,44,108,3
0,72,115,5
0,55,67,28
0,40,53,0
0,58,107,5
0,63,102,0
0,43,109,0
0,43,105,0
0,70,95,0
0,51,78,74
0,63,115,16
0,40,49,49
0,58,75,23
0,58,83,2
0,63,125,35
0,40,53,21
0,70,95,24
0,63,102,0
0,51,88,2
0,37,113,2
0,59,96,1
0,58,90,34
0,72,120,1
0,40,49,6
0,58,78,10
0,51,76,7
0,43,109,3
0,72,114,34
0,53,69,0
0,60,68,0
0,40,60,0
0,41,109,19
0,63,99,0
0,60,125,2
0,41,105,0
0,68,99,0
0,70,114,5
0,68,120,1
0,40,52,3
0,56,51,5
0,53,71,84
0,40,59,15
0,59,86,18
0,56,83,2
0,37,108,0
0,63,95,3
0,68,95,0
0,60,95,22
0,40,49,85
0,56,93,20
0,56,78,0
0,41,109,10
0,53,88,2
0,51,70,3
0,40,53,20
0,60,92,7
0,63,95,3
0,68,92,0
0,60,127,2
0,39,102,0
0,39,114,5
0,51,77,12
0,40,49,0
0,56,78,25
0,56,75,3
0,60,102,53
0,40,53,15
0,63,92,4
0,68,95,0
0,60,92,0
0,63,98,2
0,37,105,3
0,59,90,0
0,39,113,4
0,65,113,2
0,40,49,49
0,56,71,21
0,67,125,5
0,63,116,46
0,68,101,7
0,63,69,20
0,40,60,10
0,56,69,5
0,60,95,2
0,63,95,3
0,70,123,2
0,44,105,0
0,44,110,0
0,72,114,5
0,60,104,24
0,40,52,46
0,63,93,15
0,56,54,3
0,70,119,6
0,56,88,24
0,72,120,2
0,40,59,8
0,63,99,15
0,60,95,0
0,60,94,2
0,59,97,3
0,37,105,2
0,72,120,2
0,63,101,4
0,40,49,13
0,56,75,20
0,56,78,7
0,70,116,6
0,44,114,13
0,72,116,9
0,55,68,30
0,40,53,5
0,63,95,0
0,70,102,0
0,43,99,0
0,65,127,2
0,43,109,3
0,56,86,84
0,72,120,1
0,40,49,5
0,58,75,15
0,60,94,10
0,72,119,10
0,41,110,0
0,63,119,1
0,72,120,7
0,40,53,24
0,70,99,24
0,63,99,0
0,56,90,2
0,37,114,0
0,59,89,2
0,73,115,27
0,60,94,11
0,40,49,21
0,39,109,14
0,58,92,5
0,63,104,2
0,75,115,24
0,56,77,15
0,40,60,5
0,77,116,5
0,65,121,10
0,37,113,3
0,53,70,0
0,56,67,0
0,61,67,0
0,65,102,0
0,68,95,0
0,37,105,0
0,61,102,0
0,56,79,12
0,40,52,12
0,77,120,18
0,61,85,6
0,56,54,2
0,68,119,17
0,40,59,18
0,56,81,25
0,37,105,3
0,59,89,0
0,65,99,0
0,68,102,0
0,61,102,0
0,49,102,1
0,61,80,8
0,40,49,0
0,56,95,29
0,37,110,1
0,65,113,2
0,56,75,65
0,60,69,10
0,40,53,15
0,36,77,4
0,68,71,0
0,65,81,0
0,48,82,0
0,61,72,0
0,36,108,0
0,65,127,0
0,56,79,10
0,40,49,92
0,60,79,0
0,56,76,1
0,65,123,8
0,40,53,17
0,56,83,29
0,37,110,0
0,59,97,0
0,68,74,0
0,65,83,0
0,61,77,0
0,68,119,12
0,40,49,12
0,56,104,29
0,56,67,1
0,36,109,25
0,60,102,0
0,53,69,5
0,58,68,0
0,40,60,0
0,61,70,5
0,65,127,12
0,61,102,2
0,65,105,0
0,73,99,0
0,46,105,0
0,34,108,0
0,58,88,17
0,40,52,84
0,61,86,0
0,61,68,3
0,77,115,1
0,58,83,2
0,40,59,1
0,53,99,25
0,37,112,2
0,59,91,1
0,73,99,0
0,65,105,0
0,58,92,0
0,77,116,3
0,61,97,0
0,40,49,15
0,53,99,7
0,61,85,2
0,77,114,3
0,34,109,5
0,58,98,16
0,75,115,11
0,55,70,0
0,63,67,5
0,40,53,5
0,51,77,7
0,39,105,5
0,63,95,0
0,67,92,0
0,39,108,3
0,73,114,1
0,55,98,46
0,40,49,37
0,58,105,0
0,58,58,5
0,51,85,7
0,40,53,11
0,65,70,4
0,55,117,7
0,51,102,0
0,37,114,2
0,59,92,1
0,39,114,5
0,63,121,7
0,63,95,0
0,67,102,0
0,58,95,0
0,40,49,19
0,37,108,10
0,51,98,1
0,65,99,20
0,61,102,0
0,61,99,42
0,63,68,47
0,60,70,5
0,40,60,20
0,36,113,10
0,63,99,0
0,48,102,0
0,60,99,0
0,60,111,2
0,55,81,86
0,40,52,91
0,75,119,4
0,51,87,3
0,55,95,25
0,75,116,0
0,40,59,49
0,63,117,19
0,37,112,3
0,59,82,0
0,36,99,0
0,63,95,2
0,60,88,0
0,77,116,0
0,51,79,5
0,40,49,30
0,55,85,8
0,75,116,13
0,55,86,2
0,36,110,12
0,60,87,2
0,68,120,2
0,53,67,0
0,56,68,5
0,40,53,8
0,60,99,0
0,41,99,2
0,65,92,0
0,60,105,2
0,41,108,3
0,53,83,83
0,40,49,79
0,56,61,5
0,56,76,7
0,60,99,35
0,40,53,4
0,65,121,20
0,60,95,0
0,65,92,0
0,53,99,0
0,59,93,3
0,37,108,2
0,53,75,17
0,41,108,17
0,40,49,44
0,56,92,24
0,56,87,2
0,60,86,17
0,51,67,15
0,40,60,5
0,63,99,17
0,39,105,3
0,68,99,0
0,60,95,0
0,60,119,2
0,51,95,0
0,39,109,0
0,72,115,8
0,51,76,7
0,40,52,14
0,56,74,14
0,56,58,0
0,72,115,6
0,63,119,7
0,72,119,12
0,40,59,25
0,51,89,15
0,37,107,2
0,59,89,1
0,68,95,2
0,63,99,0
0,60,95,0
0,72,119,10
0,56,72,15
0,40,49,17
0,42,58,6
0,72,115,2
0,56,75,3
0,60,80,7
0,51,75,6
0,39,114,5
0,75,119,7
0,53,68,0
0,40,53,10
0,65,95,8
0,61,115,2
0,39,102,0
0,51,88,0
0,61,99,0
0,39,108,10
0,73,114,15
0,56,90,3
0,39,109,2
0,40,49,75
0,56,65,15
0,53,83,15
0,63,107,32
0,39,114,18
0,40,53,2
0,65,95,0
0,61,99,3
0,37,108,6
0,59,94,0
0,61,92,2
0,39,113,8
0,63,119,36
0,40,49,50
0,56,68,19
0,56,87,7
0,63,115,17
0,53,72,33
0,39,108,3
0,65,116,0
0,65,102,6
0,61,102,2
0,44,105,2
0,49,95,0
0,65,119,2
0,44,110,3
0,49,60,0
0,37,107,0
0,61,70,13
0,53,69,10
0,56,80,32
0,68,115,5
0,56,75,102
0,61,88,67
0,56,75,40
0,61,102,3
0,68,102,2
0,65,127,115
0,56,75,28
0,56,86,7
0,56,105,57
0,61,105,0
0,65,105,0
0,56,102,50
0,37,105,5
0,61,98,99
0,49,99,5
0,38,4,28
0,38,4,6
0,38,5,4
0,38,5,6
0,38,6,5
0,63,117,2
0,38,9,3
0,56,105,0
0,44,109,3
0,38,9,4
0,38,10,6
0,38,11,8
0,38,11,8
0,38,12,6
0,38,14,8
0,56,98,2
0,38,15,3
0,36,114,10
0,38,15,4
0,38,17,6
0,38,17,8
0,38,18,8
0,38,20,6
0,38,21,8
0,56,75,2
0,65,119,5
0,61,95,0
0,38,22,3
0,37,108,5
0,38,23,4
0,38,25,6
0,38,26,8
0,38,30,8
0,38,31,6
0,38,34,8
0,56,81,5
0,65,105,0
0,38,36,0
0,39,114,5
0,38,37,2
0,38,41,5
0,38,43,1
0,38,45,8
0,38,47,6
0,38,50,8
0,61,87,7
0,38,52,3
0,38,54,4
0,38,59,6
0,38,60,8
0,63,67,7
0,38,63,1
0,38,66,6
0,60,67,8
0,38,70,8
0,32,105,5
0,63,102,0
0,56,99,0
0,60,105,0
0,44,99,0
0,63,125,2
0,35,126,2
0,44,113,0
0,51,72,0
0,63,102,0
0,60,102,0
0,68,105,0
0,44,105,2
0,56,87,7
0,56,78,94
0,60,99,47
0,60,85,19
0,63,117,2
0,63,95,0
0,40,86,3
0,68,99,0
0,42,116,0
0,56,74,26
0,56,88,5
0,44,114,45
0,60,92,7
0,55,67,0
0,58,68,0
0,70,102,0
0,63,102,0
0,43,105,3
0,63,104,2
0,35,122,2
0,43,108,6
0,58,75,82
0,58,109,90
0,51,71,57
0,70,95,0
0,63,102,0
0,42,110,1
0,40,86,2
0,58,93,0
0,58,92,35
0,63,98,2
0,43,114,3
0,56,70,5
0,61,69,0
0,68,95,10
0,61,102,0
0,65,102,0
0,61,115,2
0,37,105,0
0,35,126,3
0,51,93,0
0,37,110,5
0,53,79,10
0,56,71,17
0,53,88,14
0,65,95,51
0,56,92,2
0,40,86,3
0,53,91,0
0,61,99,0
0,49,95,0
0,61,109,67
0,56,58,63
0,53,72,3
0,56,76,20
0,63,69,0
0,65,123,32
0,61,102,0
0,56,99,0
0,65,105,0
0,53,97,95
0,56,86,120
0,61,97,10
0,56,105,10
0,61,102,0
0,63,105,0
0,61,70,0
0,63,104,12
0,37,102,0
0,37,109,5
0,36,114,5
0,61,102,2
0,49,95,0
0,56,94,2
0,34,114,1
0,56,92,7
0,53,94,12
0,60,127,30
0,60,69,0
0,56,69,0
0,63,68,0
0,35,122,0
0,49,60,0
0,63,102,5
0,68,105,0
0,60,105,0
0,44,105,2
0,72,114,5
0,44,113,8
0,51,76,16
0,72,119,27
0,42,74,1
0,56,79,1
0,56,75,0
0,51,93,10
0,70,116,5
0,60,95,23
0,58,113,2
0,63,99,0
0,68,95,0
0,40,85,0
0,42,110,0
0,51,88,0
0,72,116,6
0,51,84,15
0,56,88,0
0,56,82,0
0,70,120,2
0,42,85,3
0,63,123,12
0,44,109,3
0,72,116,10
0,55,68,60
0,63,102,6
0,43,108,0
0,35,125,0
0,43,105,0
0,70,95,0
0,42,98,1
0,51,95,43
0,63,116,0
0,58,75,0
0,58,95,2
0,42,78,3
0,51,105,22
0,70,95,0
0,63,102,0
0,63,127,2
0,51,88,0
0,42,114,2
0,40,85,1
0,63,116,43
0,51,83,6
0,58,78,4
0,58,88,0
0,43,109,3
0,42,80,1
0,72,119,8
0,51,90,25
0,53,68,8
0,60,67,0
0,41,110,7
0,63,99,0
0,60,123,2
0,41,105,0
0,68,99,0
0,35,121,3
0,42,72,0
0,72,115,34
0,53,89,2
0,70,120,11
0,56,83,16
0,42,74,2
0,56,51,3
0,68,119,12
0,60,93,47
0,40,85,25
0,42,110,0
0,63,95,5
0,68,95,0
0,53,102,61
0,56,78,106
0,56,73,3
0,42,85,2
0,41,109,5
0,53,80,2
0,51,68,3
0,60,92,6
0,63,95,3
0,68,92,0
0,60,127,2
0,35,126,0
0,39,102,0
0,42,98,1
0,39,109,4
0,51,89,12
0,56,90,43
0,42,78,3
0,56,75,0
0,58,117,80
0,63,92,0
0,68,95,0
0,60,92,0
0,42,114,4
0,40,85,1
0,39,108,30
0,51,89,2
0,56,71,115
0,60,105,5
0,63,119,0
0,42,80,4
0,72,119,2
0,51,78,3
0,63,67,23
0,56,68,13
0,60,95,2
0,63,95,3
0,63,119,2
0,44,105,0
0,44,114,0
0,35,125,0
0,42,72,0
0,70,114,13
0,56,84,48
0,42,74,2
0,56,54,1
0,72,119,2
0,60,111,10
0,72,116,25
0,63,99,3
0,60,95,0
0,40,85,5
0,42,110,0
0,63,104,20
0,70,119,19
0,56,75,41
0,42,85,12
0,72,115,4
0,44,108,12
0,55,67,28
0,63,95,0
0,70,102,0
0,43,99,0
0,63,104,4
0,43,113,3
0,35,118,0
0,42,98,1
0,70,119,6
0,56,86,31
0,72,119,29
0,58,75,55
0,60,78,10
0,42,78,3
0,41,110,0
0,63,105,2
0,72,116,10
0,70,99,19
0,63,99,0
0,42,114,4
0,40,85,1
0,72,119,17
0,56,76,49
0,73,114,2
0,39,114,8
0,58,92,5
0,68,119,5
0,42,80,1
0,75,116,8
0,56,81,16
0,65,117,20
0,37,108,3
0,53,70,0
0,56,67,0
0,61,67,0
0,35,117,0
0,42,72,0
0,65,102,0
0,68,95,0
0,37,105,0
0,61,102,0
0,77,114,1
0,56,98,5
0,61,74,5
0,42,74,2
0,56,54,0
0,77,120,17
0,63,113,15
0,56,72,43
0,40,85,3
0,42,110,0
0,65,99,0
0,68,102,0
0,61,102,0
0,49,102,1
0,56,95,29
0,37,110,1
0,65,119,2
0,42,85,0
0,56,87,62
0,60,69,13
0,65,125,42
0,36,77,2
0,68,71,0
0,65,81,0
0,48,82,0
0,61,72,0
0,36,113,0
0,35,124,0
