track,note,velocity,time
1,62,85,5183
1,71,85,4
1,72,85,0
1,71,85,0
1,69,85,0
1,67,85,0
1,71,85,288
1,69,85,4
1,67,85,4
1,79,85,0
1,77,85,4
1,76,85,4
1,76,85,0
1,74,85,4
1,78,85,96
1,79,99,0
1,73,85,0
1,73,85,0
1,79,85,96
1,67,85,0
1,72,85,0
1,79,85,0
1,78,85,0
1,76,85,0
1,74,85,0
1,72,85,0
1,74,89,0
1,71,85,672
1,71,85,0
1,72,85,0
1,72,85,0
1,71,85,676
1,71,85,0
1,69,85,0
1,71,85,0
1,69,85,0
1,71,85,0
1,62,85,0
1,71,85,4
1,72,85,0
1,71,85,0
1,69,85,0
1,67,85,0
1,71,85,288
1,69,85,4
1,67,85,4
1,79,85,0
1,77,85,4
1,76,85,4
1,76,85,0
1,74,85,4
1,78,85,96
1,79,99,0
1,73,85,0
1,73,85,0
1,79,85,96
1,67,85,0
1,72,85,0
1,79,85,0
1,78,85,0
1,76,85,0
1,74,85,0
1,72,85,0
1,74,89,0
1,71,85,672
1,71,85,0
1,72,85,0
1,72,85,0
1,71,85,676
1,71,85,0
1,69,85,0
1,71,85,0
1,69,85,0
1,71,85,0
1,74,85,0
1,78,85,0
1,79,85,0
1,78,85,0
1,79,85,0
1,74,85,0
1,79,85,0
1,78,85,0
1,78,85,0
1,79,85,0
1,78,85,0
1,76,106,0
1,79,92,0
1,77,105,4
1,79,92,4
1,81,99,4
1,79,104,0
1,76,106,0
1,74,97,0
1,78,103,0
1,79,97,0
1,73,103,0
1,78,99,0
1,79,93,0
1,79,105,0
1,72,98,0
1,79,102,0
1,78,90,0
1,76,109,0
1,78,91,0
1,79,101,0
1,62,85,1344
1,71,85,4
1,72,85,0
1,71,85,0
1,69,85,0
1,67,85,0
1,71,85,288
1,69,85,4
1,67,85,4
1,79,85,0
1,77,85,4
1,76,85,4
1,76,85,0
1,74,85,4
1,78,85,96
1,79,99,0
1,73,85,0
1,73,85,0
1,79,85,96
1,67,85,0
1,72,85,0
1,79,85,0
1,78,85,0
1,76,85,0
1,74,85,0
1,72,85,0
1,74,89,0
1,71,85,672
1,71,85,0
1,72,85,0
1,72,85,0
1,71,85,676
1,71,85,0
1,69,85,0
1,71,85,0
1,69,85,0
1,71,85,0
1,74,85,0
1,78,85,0
1,79,85,0
1,78,85,0
1,79,85,0
1,74,85,0
1,79,85,0
1,78,85,0
1,78,85,0
1,79,85,0
1,78,85,0
1,76,106,0
1,79,92,0
1,77,105,4
1,79,92,4
1,81,99,4
1,79,104,0
1,76,106,0
1,74,97,0
1,78,103,0
1,79,97,0
1,73,103,0
1,78,99,0
1,79,93,0
1,79,105,0
1,72,92,0
1,78,98,0
1,76,91,0
1,74,107,0
1,76,109,0
1,76,93,0
1,76,94,0
1,74,97,0
1,81,96,0
1,79,96,0
1,76,96,121
1,76,108,0
1,74,95,0
1,76,95,0
1,74,108,0
1,68,85,36
1,69,85,18
1,71,85,6
1,74,85,0
1,78,85,0
1,79,85,0
1,78,85,0
1,79,85,0
1,74,85,0
1,79,85,0
1,78,85,0
1,78,85,0
1,79,85,0
1,78,85,0
1,76,106,0
1,79,92,0
1,77,105,4
1,79,92,4
1,81,99,4
1,79,104,0
1,76,106,0
1,74,97,0
1,78,103,0
1,79,97,0
1,73,103,0
1,78,99,0
1,79,93,0
1,79,105,0
1,72,98,0
1,79,102,0
1,78,90,0
1,76,109,0
1,78,91,0
1,79,101,0
1,78,98,11520
1,76,91,0
1,74,107,0
1,76,109,0
1,76,93,0
1,76,94,0
1,74,97,0
1,81,96,0
1,79,96,0
1,76,109,192
1,76,109,96
1,74,97,0
1,74,103,0
2,43,100,4800
2,35,85,0
2,40,85,0
2,31,85,4
2,36,85,4
2,35,85,4
2,34,85,4
2,33,85,4
2,38,85,4
2,36,85,4
2,35,85,0
2,40,85,4
2,35,85,0
2,33,85,4
2,33,85,0
2,38,85,0
2,26,85,0
2,43,100,0
2,35,85,0
2,40,85,0
2,31,85,4
2,36,85,4
2,35,85,4
2,34,85,4
2,33,85,4
2,38,85,4
2,36,85,4
2,35,85,0
2,40,85,4
2,35,85,0
2,33,85,4
2,33,85,0
2,38,85,0
2,26,85,0
2,31,85,0
2,31,85,4
2,33,85,4
2,33,85,4
2,35,85,4
2,35,85,4
2,35,85,4
2,35,85,4
2,39,85,4
2,40,107,4
2,40,99,0
2,31,93,0
2,33,96,0
2,35,101,0
2,36,92,0
2,35,108,0
2,35,106,0
2,34,97,0
2,34,94,0
2,33,109,0
2,33,100,0
2,38,91,0
2,28,102,0
2,31,103,0
2,33,104,0
2,35,92,0
2,33,99,0
2,26,92,0
2,38,106,0
2,43,100,0
2,35,85,0
2,40,85,0
2,31,85,4
2,36,85,4
2,35,85,4
2,34,85,4
2,33,85,4
2,38,85,4
2,36,85,4
2,35,85,0
2,40,85,4
2,35,85,0
2,33,85,4
2,33,85,0
2,38,85,0
2,26,85,0
2,31,85,0
2,31,85,4
2,33,85,4
2,33,85,4
2,35,85,4
2,35,85,4
2,35,85,4
2,35,85,4
2,39,85,4
2,40,107,4
2,40,99,0
2,31,93,0
2,33,96,0
2,35,101,0
2,36,92,0
2,35,108,0
2,35,106,0
2,34,97,0
2,34,94,0
2,33,95,0
2,33,106,0
2,38,91,0
2,36,95,0
2,35,102,0
2,35,96,0
2,40,99,0
2,40,107,0
2,33,109,0
2,33,100,0
2,33,107,0
2,33,107,0
2,26,104,0
2,33,104,0
2,38,104,0
2,26,105,0
2,31,85,0
2,31,85,4
2,33,85,4
2,33,85,4
2,35,85,4
2,35,85,4
2,35,85,4
2,35,85,4
2,39,85,4
2,40,107,4
2,40,99,0
2,31,93,0
2,33,96,0
2,35,101,0
2,36,92,0
2,35,108,0
2,35,106,0
2,34,97,0
2,34,94,0
2,33,109,0
2,33,100,0
2,38,91,0
2,28,102,0
2,31,103,0
2,33,104,0
2,35,92,0
2,33,99,0
2,26,92,0
2,38,106,0
2,31,85,0
2,31,85,4
2,33,85,4
2,33,85,4
2,35,85,4
2,35,85,4
2,35,85,4
2,35,85,4
2,39,85,4
2,40,107,4
2,40,99,0
2,31,93,0
2,33,96,0
2,35,101,0
2,36,92,0
2,35,108,0
2,35,106,0
2,34,97,0
2,34,94,0
2,33,95,0
2,33,106,0
2,38,91,0
2,36,95,0
2,35,102,0
2,35,96,0
2,40,99,0
2,40,107,0
2,33,95,0
2,33,106,0
2,38,91,0
2,36,95,0
2,35,102,0
2,35,96,0
2,40,99,0
2,40,107,0
2,33,102,0
2,33,96,0
2,33,102,0
2,33,96,0
2,31,90,0
2,31,90,0
2,35,90,0
2,36,105,0
2,30,100,0
2,30,90,0
2,31,97,0
3,43,105,1596
3,58,103,14
3,62,90,21
3,67,94,30
3,50,102,162
3,55,105,0
3,59,108,4
3,60,109,0
3,62,96,0
3,64,109,0
3,65,90,0
3,67,105,4
3,47,105,155
3,60,102,2
3,62,93,2
3,67,95,40
3,55,97,152
3,59,93,4
3,45,107,4
3,59,105,0
3,60,93,0
3,52,99,0
3,62,108,0
3,69,92,0
3,59,95,4
3,63,97,96
3,71,97,0
3,59,107,4
3,62,98,0
3,67,109,0
3,50,96,4
3,55,91,4
3,50,109,4
3,52,97,4
3,57,98,0
3,59,101,0
3,60,94,4
3,51,97,4
3,57,94,0
3,59,96,0
3,51,94,0
3,57,97,0
3,59,104,4
3,57,104,4
3,47,106,4
3,52,90,0
3,55,108,0
3,52,105,0
3,55,108,0
3,47,93,4
3,52,93,4
3,55,95,0
3,59,91,100
3,47,91,4
3,53,97,0
3,57,100,0
3,55,95,4
3,59,107,96
3,62,106,0
3,67,103,4
3,65,109,4
3,55,94,4
3,60,94,0
3,64,98,0
3,52,101,0
3,55,102,0
3,60,102,0
3,64,102,0
3,55,108,0
3,59,99,0
3,62,104,0
3,66,108,0
3,59,97,0
3,62,101,0
3,67,94,0
3,59,102,0
3,62,92,0
3,67,95,0
3,55,109,0
3,58,103,0
3,61,93,0
3,61,99,0
3,58,92,0
3,61,103,0
3,66,96,0
3,59,92,4
3,61,90,0
3,67,109,0
3,67,97,4
3,52,106,0
3,55,99,0
3,60,103,0
3,48,102,0
3,52,93,0
3,55,108,0
3,67,102,0
3,57,108,0
3,60,90,0
3,66,91,0
3,64,103,0
3,53,104,0
3,57,108,0
3,62,103,0
3,60,104,0
3,53,103,0
3,57,99,0
3,62,94,0
3,53,99,0
3,57,106,0
3,62,104,0
3,50,100,0
3,53,96,0
3,57,95,0
3,50,107,0
3,50,92,0
3,55,96,0
3,47,91,0
3,50,105,0
3,55,91,0
3,59,98,96
3,52,108,0
3,55,92,0
3,59,99,0
3,60,99,0
3,60,99,0
3,52,91,4
3,55,94,0
3,48,102,0
3,52,108,0
3,55,92,0
3,59,93,96
3,48,90,0
3,52,95,0
3,59,94,0
3,57,93,0
3,59,104,0
3,57,102,0
3,48,94,0
3,52,109,0
3,55,103,0
3,48,91,0
3,52,93,0
3,55,99,0
3,48,109,0
3,59,107,0
3,62,98,0
3,67,109,0
3,50,96,4
3,55,91,4
3,50,109,4
3,52,97,4
3,57,98,0
3,59,101,0
3,60,94,4
3,51,97,4
3,57,94,0
3,59,96,0
3,51,94,0
3,57,97,0
3,59,104,4
3,57,104,4
3,47,106,4
3,52,90,0
3,55,108,0
3,52,105,0
3,55,108,0
3,47,93,4
3,52,93,4
3,55,95,0
3,59,91,100
3,47,91,4
3,53,97,0
3,57,100,0
3,55,95,4
3,59,107,96
3,62,106,0
3,67,103,4
3,65,109,4
3,55,94,4
3,60,94,0
3,64,98,0
3,52,101,0
3,55,102,0
3,60,102,0
3,64,102,0
3,55,108,0
3,59,99,0
3,62,104,0
3,66,108,0
3,59,97,0
3,62,101,0
3,67,94,0
3,59,102,0
3,62,92,0
3,67,95,0
3,55,109,0
3,58,103,0
3,61,93,0
3,61,99,0
3,58,92,0
3,61,103,0
3,66,96,0
3,59,92,4
3,61,90,0
3,67,109,0
3,67,97,4
3,52,106,0
3,55,99,0
3,60,103,0
3,48,102,0
3,52,93,0
3,55,108,0
3,67,102,0
3,57,108,0
3,60,90,0
3,66,91,0
3,64,103,0
3,53,104,0
3,57,108,0
3,62,103,0
3,60,104,0
3,53,103,0
3,57,99,0
3,62,94,0
3,53,99,0
3,57,106,0
3,62,104,0
3,50,100,0
3,53,96,0
3,57,95,0
3,50,107,0
3,50,92,0
3,55,96,0
3,47,91,0
3,50,105,0
3,55,91,0
3,59,98,96
3,52,108,0
3,55,92,0
3,59,99,0
3,60,99,0
3,60,99,0
3,52,91,4
3,55,94,0
3,48,102,0
3,52,108,0
3,55,92,0
3,59,93,96
3,48,90,0
3,52,95,0
3,59,94,0
3,57,93,0
3,59,104,0
3,57,102,0
3,48,94,0
3,52,109,0
3,55,103,0
3,48,91,0
3,52,93,0
3,55,99,0
3,48,109,0
3,50,102,0
3,55,91,0
3,59,101,0
3,62,103,0
3,60,90,0
3,64,98,0
3,66,99,0
3,60,107,0
3,62,107,0
3,64,92,0
3,66,94,0
3,67,100,0
3,66,102,0
3,55,105,0
3,59,95,0
3,67,98,0
3,55,109,0
3,59,106,0
3,62,94,0
3,67,92,0
3,57,92,0
3,63,93,0
3,66,90,0
3,66,107,0
3,57,97,0
3,63,90,0
3,67,91,0
3,57,90,0
3,63,91,0
3,67,92,0
3,66,101,0
3,55,92,0
3,59,97,0
3,64,93,0
3,67,97,4
3,59,108,4
3,62,97,0
3,65,106,0
3,67,96,4
3,59,90,4
3,65,91,0
3,69,109,0
3,59,94,0
3,69,107,0
3,67,105,4
3,55,95,0
3,60,109,0
3,64,98,0
3,55,95,0
3,60,92,0
3,55,108,0
3,59,109,0
3,62,91,0
3,66,95,0
3,59,92,0
3,62,106,0
3,67,103,0
3,59,92,0
3,62,109,0
3,67,92,0
3,55,97,0
3,58,90,0
3,61,106,0
3,66,94,0
3,58,107,0
3,61,109,0
3,67,99,0
3,58,108,0
3,61,97,0
3,67,109,0
3,67,109,0
3,52,93,0
3,55,100,0
3,60,93,0
3,57,97,0
3,60,101,0
3,67,95,0
3,66,105,0
3,57,105,0
3,60,99,0
3,64,96,0
3,66,99,0
3,59,107,0
3,62,100,0
3,67,97,0
3,59,91,0
3,62,94,0
3,67,94,0
3,59,99,0
3,60,102,0
3,62,95,0
3,67,90,0
3,67,93,0
3,69,99,0
3,60,93,0
3,62,96,0
3,67,94,0
3,59,105,0
3,59,103,0
3,60,104,0
3,62,99,0
3,67,108,0
3,67,92,0
3,69,107,0
3,59,107,0
3,62,98,0
3,67,109,0
3,50,96,4
3,55,91,4
3,50,109,4
3,52,97,4
3,57,98,0
3,59,101,0
3,60,94,4
3,51,97,4
3,57,94,0
3,59,96,0
3,51,94,0
3,57,97,0
3,59,104,4
3,57,104,4
3,47,106,4
3,52,90,0
3,55,108,0
3,52,105,0
3,55,108,0
3,47,93,4
3,52,93,4
3,55,95,0
3,59,91,100
3,47,91,4
3,53,97,0
3,57,100,0
3,55,95,4
3,59,107,96
3,62,106,0
3,67,103,4
3,65,109,4
3,55,94,4
3,60,94,0
3,64,98,0
3,52,101,0
3,55,102,0
3,60,102,0
3,64,102,0
3,55,108,0
3,59,99,0
3,62,104,0
3,66,108,0
3,59,97,0
3,62,101,0
3,67,94,0
3,59,102,0
3,62,92,0
3,67,95,0
3,55,109,0
3,58,103,0
3,61,93,0
3,61,99,0
3,58,92,0
3,61,103,0
3,66,96,0
3,59,92,4
3,61,90,0
3,67,109,0
3,67,97,4
3,52,106,0
3,55,99,0
3,60,103,0
3,48,102,0
3,52,93,0
3,55,108,0
3,67,102,0
3,57,108,0
3,60,90,0
3,66,91,0
3,64,103,0
3,53,104,0
3,57,108,0
3,62,103,0
3,60,104,0
3,53,103,0
3,57,99,0
3,62,94,0
3,53,99,0
3,57,106,0
3,62,104,0
3,50,100,0
3,53,96,0
3,57,95,0
3,50,107,0
3,50,92,0
3,55,96,0
3,47,91,0
3,50,105,0
3,55,91,0
3,59,98,96
3,52,108,0
3,55,92,0
3,59,99,0
3,60,99,0
3,60,99,0
3,52,91,4
3,55,94,0
3,48,102,0
3,52,108,0
3,55,92,0
3,59,93,96
3,48,90,0
3,52,95,0
3,59,94,0
3,57,93,0
3,59,104,0
3,57,102,0
3,48,94,0
3,52,109,0
3,55,103,0
3,48,91,0
3,52,93,0
3,55,99,0
3,48,109,0
3,50,102,0
3,55,91,0
3,59,101,0
3,62,103,0
3,60,90,0
3,64,98,0
3,66,99,0
3,60,107,0
3,62,107,0
3,64,92,0
3,66,94,0
3,67,100,0
3,66,102,0
3,55,105,0
3,59,95,0
3,67,98,0
3,55,109,0
3,59,106,0
3,62,94,0
3,67,92,0
3,57,92,0
3,63,93,0
3,66,90,0
3,66,107,0
3,57,97,0
3,63,90,0
3,67,91,0
3,57,90,0
3,63,91,0
3,67,92,0
3,66,101,0
3,55,92,0
3,59,97,0
3,64,93,0
3,67,97,4
3,59,108,4
3,62,97,0
3,65,106,0
3,67,96,4
3,59,90,4
3,65,91,0
3,69,109,0
3,59,94,0
3,69,107,0
3,67,105,4
3,55,95,0
3,60,109,0
3,64,98,0
3,55,95,0
3,60,92,0
3,55,108,0
3,59,109,0
3,62,91,0
3,66,95,0
3,59,92,0
3,62,106,0
3,67,103,0
3,59,92,0
3,62,109,0
3,67,92,0
3,55,97,0
3,58,90,0
3,61,106,0
3,66,94,0
3,58,107,0
3,61,109,0
3,67,99,0
3,58,108,0
3,61,97,0
3,67,109,0
3,67,109,0
3,52,109,0
3,55,107,0
3,60,96,0
3,57,109,0
3,60,92,0
3,66,109,0
3,64,109,0
3,62,93,0
3,54,102,0
3,57,100,0
3,64,105,0
3,64,99,0
3,54,91,0
3,57,96,0
3,64,99,0
3,62,103,0
3,69,95,0
3,59,109,0
3,62,106,0
3,67,104,0
3,57,96,0
3,60,99,0
3,67,102,0
3,64,95,192
3,55,101,0
3,60,92,0
3,64,97,0
3,62,99,0
