track,note,velocity,time
2,59,68,752
2,67,68,0
2,62,61,6
2,62,63,24
2,66,63,0
2,71,61,6
2,60,61,18
2,64,61,6
2,69,66,6
2,60,56,12
2,64,56,0
2,67,56,0
2,59,68,24
2,67,68,0
2,62,61,6
2,62,63,24
2,66,63,0
2,71,61,14
2,60,61,10
2,64,61,6
2,69,66,6
2,60,56,12
2,64,56,0
2,67,56,0
2,59,68,8
2,67,68,0
2,62,61,6
2,62,63,24
2,66,63,0
2,71,61,14
2,60,61,10
2,64,61,6
2,69,66,6
2,60,56,12
2,64,56,0
2,67,56,0
2,59,68,36
2,67,68,0
2,62,61,6
2,71,61,22
2,62,63,2
2,66,63,0
2,60,68,32
2,69,68,0
2,64,61,6
2,60,61,18
2,64,61,0
2,69,61,0
2,60,66,174
2,64,66,0
2,69,66,12
2,60,68,18
2,69,68,0
2,64,61,6
2,60,61,18
2,64,61,0
2,69,61,0
2,60,66,174
2,64,66,0
2,69,66,12
2,60,68,18
2,69,68,0
2,64,61,6
2,60,61,18
2,64,61,0
2,69,61,0
2,60,66,174
2,64,66,0
2,69,66,12
2,60,68,18
2,69,68,0
2,64,61,6
2,60,61,18
2,64,61,0
2,69,61,0
2,60,66,174
2,64,66,0
2,69,66,12
2,59,68,24594
2,67,68,0
2,62,61,6
2,62,63,24
2,66,63,0
2,71,61,6
2,60,61,18
2,64,61,6
2,69,66,6
2,60,56,12
2,64,56,0
2,67,56,0
2,59,68,24
2,67,68,0
2,62,61,6
2,62,63,24
2,66,63,0
2,71,61,14
2,60,61,10
2,64,61,6
2,69,66,6
2,60,56,12
2,64,56,0
2,67,56,0
2,59,68,8
2,67,68,0
2,62,61,6
2,62,63,24
2,66,63,0
2,71,61,14
2,60,61,10
2,64,61,6
2,69,66,6
2,60,56,12
2,64,56,0
2,67,56,0
2,59,68,36
2,67,68,0
2,62,61,6
2,71,61,22
2,62,63,2
2,66,63,0
2,60,68,32
2,69,68,0
2,64,61,6
2,60,61,18
2,64,61,0
2,69,61,0
2,60,66,174
2,64,66,0
2,69,66,12
2,60,68,18
2,69,68,0
2,64,61,6
2,60,61,18
2,64,61,0
2,69,61,0
2,60,66,174
2,64,66,0
2,69,66,12
2,60,68,18
2,69,68,0
2,64,61,6
2,60,61,18
2,64,61,0
2,69,61,0
2,60,66,174
2,64,66,0
2,69,66,12
2,60,68,18
2,69,68,0
2,64,61,6
2,60,61,18
2,64,61,0
2,69,61,0
2,60,66,174
2,64,66,0
2,69,66,12
2,59,68,12306
2,67,68,0
2,62,61,6
2,62,63,24
2,66,63,0
2,71,61,6
2,60,61,18
2,64,61,6
2,69,66,6
2,60,56,12
2,64,56,0
2,67,56,0
2,59,68,24
2,67,68,0
2,62,61,6
2,62,63,24
2,66,63,0
2,71,61,14
2,60,61,10
2,64,61,6
2,69,66,6
2,60,56,12
2,64,56,0
2,67,56,0
2,59,68,8
2,67,68,0
2,62,61,6
2,62,63,24
2,66,63,0
2,71,61,14
2,60,61,10
2,64,61,6
2,69,66,6
2,60,56,12
2,64,56,0
2,67,56,0
2,59,68,36
2,67,68,0
2,62,61,6
2,71,61,22
2,62,63,2
2,66,63,0
2,60,68,32
2,69,68,0
2,64,61,6
2,60,61,18
2,64,61,0
2,69,61,0
2,60,66,174
2,64,66,0
2,69,66,12
2,60,68,18
2,69,68,0
2,64,61,6
2,60,61,18
2,64,61,0
2,69,61,0
2,60,66,174
2,64,66,0
2,69,66,12
2,60,68,18
2,69,68,0
2,64,61,6
2,60,61,18
2,64,61,0
2,69,61,0
2,60,66,174
2,64,66,0
2,69,66,12
2,60,68,18
2,69,68,0
2,64,61,6
2,60,61,18
2,64,61,0
2,69,61,0
2,60,66,174
2,64,66,0
2,69,66,12
2,59,68,12306
2,67,68,0
2,62,61,6
2,62,63,24
2,66,63,0
2,71,61,6
2,60,61,18
2,64,61,6
2,69,66,6
2,60,56,12
2,64,56,0
2,67,56,0
2,59,68,24
2,67,68,0
2,62,61,6
2,62,63,24
2,66,63,0
2,71,61,6
2,60,61,18
2,64,61,6
2,69,66,6
2,60,56,12
2,64,56,0
2,67,56,0
2,59,68,24
2,67,68,0
2,62,61,6
2,62,63,24
2,66,63,0
2,71,61,6
2,60,61,18
2,64,61,6
2,69,66,6
2,60,56,12
2,64,56,0
2,67,56,0
2,59,68,24
2,67,68,0
2,62,61,6
2,62,63,24
2,66,63,0
2,71,61,6
2,60,61,18
2,64,61,6
2,69,66,6
2,60,56,12
2,64,56,0
2,67,56,0
2,59,68,24
2,67,68,0
2,62,61,6
2,62,63,24
2,66,63,0
2,71,61,6
2,60,61,18
2,64,61,6
2,69,66,6
2,60,56,12
2,64,56,0
2,67,56,0
2,59,68,24
2,67,68,0
2,62,61,6
2,62,63,24
2,66,63,0
2,71,61,14
2,60,61,10
2,64,61,6
2,69,66,6
2,60,56,12
2,64,56,0
2,67,56,0
2,59,68,8
2,67,68,0
2,62,61,6
2,62,63,24
2,66,63,0
2,71,61,14
2,60,61,10
2,64,61,6
2,69,66,6
2,60,56,12
2,64,56,0
2,67,56,0
2,59,68,36
2,67,68,0
2,62,61,6
2,71,61,22
2,62,63,2
2,66,63,0
2,60,68,32
2,69,68,0
2,64,61,6
2,60,59,18
2,64,59,0
2,69,59,0
2,60,61,174
2,64,61,0
2,69,61,12
2,60,54,18
2,69,54,0
2,64,48,6
2,60,47,18
2,64,47,0
2,69,47,0
2,60,48,174
2,64,48,0
2,69,48,12
2,60,40,18
2,69,40,0
2,64,36,6
2,60,35,18
2,64,35,0
2,69,35,0
2,60,34,174
2,64,34,0
2,69,34,12
2,60,27,18
2,69,27,0
2,64,24,6
2,60,23,18
2,64,23,0
2,69,23,0
2,60,21,174
2,64,21,0
2,69,21,12
2,59,13,18
2,62,13,0
2,67,13,0
3,60,48,17794
3,64,48,6
3,71,48,0
3,71,48,306
3,60,41,6
3,64,41,0
3,71,41,294
3,60,41,6
3,64,46,6
3,60,46,300
3,64,46,6
3,71,53,6
3,60,48,300
3,64,48,6
3,69,48,6
3,60,41,306
3,64,41,0
3,69,48,0
3,60,41,300
3,69,41,0
3,64,46,6
3,60,46,300
3,64,46,6
3,69,53,12
3,60,48,294
3,64,48,6
3,71,48,0
3,71,48,306
3,60,41,6
3,64,41,0
3,71,41,294
3,60,41,6
3,64,46,6
3,60,46,300
3,64,46,6
3,71,53,6
3,60,48,300
3,64,48,6
3,69,48,6
3,60,41,306
3,64,41,0
3,69,48,0
3,60,41,300
3,69,41,0
3,64,46,6
3,60,46,300
3,64,46,6
3,69,53,12
3,60,48,294
3,64,48,6
3,71,48,0
3,71,48,306
3,60,41,6
3,64,41,0
3,71,41,294
3,60,41,6
3,64,46,6
3,60,46,300
3,64,46,6
3,71,53,6
3,60,48,300
3,64,48,6
3,69,48,6
3,60,41,306
3,64,41,0
3,69,48,0
3,60,41,300
3,69,41,0
3,64,46,6
3,60,46,300
3,64,46,6
3,69,53,12
3,60,48,294
3,64,48,6
3,71,48,0
3,71,48,306
3,60,41,6
3,64,41,0
3,71,41,294
3,60,41,6
3,64,46,6
3,60,46,300
3,64,46,6
3,71,53,6
3,60,48,300
3,64,48,6
3,69,48,6
3,60,41,306
3,64,41,0
3,69,48,0
3,60,41,300
3,69,41,0
3,64,46,6
3,60,46,300
3,64,46,6
3,69,53,12
3,60,48,294
3,64,48,6
3,71,48,0
3,71,48,306
3,60,41,6
3,64,41,0
3,71,41,294
3,60,41,6
3,64,46,6
3,60,46,300
3,64,46,6
3,71,53,6
3,60,48,300
3,64,48,6
3,69,48,6
3,60,41,306
3,64,41,0
3,69,48,0
3,60,41,300
3,69,41,0
3,64,46,6
3,60,46,300
3,64,46,6
3,69,53,12
3,60,48,294
3,64,48,6
3,71,48,0
3,71,48,306
3,60,41,6
3,64,41,0
3,71,41,294
3,60,41,6
3,64,46,6
3,60,46,300
3,64,46,6
3,71,53,6
3,60,48,300
3,64,48,6
3,69,48,6
3,60,41,306
3,64,41,0
3,69,48,0
3,60,41,300
3,69,41,0
3,64,46,6
3,60,46,300
3,64,46,6
3,69,53,12
3,60,48,294
3,64,48,6
3,71,48,0
3,71,48,306
3,60,41,6
3,64,41,0
3,71,41,294
3,60,41,6
3,64,46,6
3,60,46,300
3,64,46,6
3,71,53,6
3,60,48,300
3,64,48,6
3,69,48,6
3,60,41,306
3,64,41,0
3,69,48,0
3,60,41,300
3,69,41,0
3,64,46,6
3,60,46,300
3,64,46,6
3,69,53,12
3,60,48,294
3,64,48,6
3,71,48,0
3,71,48,306
3,60,41,6
3,64,41,0
3,71,41,294
3,60,41,6
3,64,46,6
3,60,46,300
3,64,46,6
3,71,53,6
3,60,23,120
3,64,23,0
3,69,23,0
3,60,23,96
3,64,23,6
3,69,23,6
3,60,23,114
3,69,23,0
3,64,25,6
3,60,28,114
3,64,28,6
3,69,17,12
3,60,17,102
3,64,17,0
3,69,30,6
3,60,48,17748
3,64,48,6
3,71,48,0
3,71,48,306
3,60,41,6
3,64,41,0
3,71,41,294
3,60,41,6
3,64,46,6
3,60,46,300
3,64,46,6
3,71,53,6
3,60,48,300
3,64,48,6
3,69,48,6
3,60,41,306
3,64,41,0
3,69,48,0
3,60,41,300
3,69,41,0
3,64,46,6
3,60,46,300
3,64,46,6
3,69,53,12
3,60,48,294
3,64,48,6
3,71,48,0
3,71,48,306
3,60,41,6
3,64,41,0
3,71,41,294
3,60,41,6
3,64,46,6
3,60,46,300
3,64,46,6
3,71,53,6
3,60,48,300
3,64,48,6
3,69,48,6
3,60,41,306
3,64,41,0
3,69,48,0
3,60,41,300
3,69,41,0
3,64,46,6
3,60,46,300
3,64,46,6
3,69,53,12
3,60,48,294
3,64,48,6
3,71,48,0
3,71,48,306
3,60,41,6
3,64,41,0
3,71,41,294
3,60,41,6
3,64,46,6
3,60,46,300
3,64,46,6
3,71,53,6
3,60,48,300
3,64,48,6
3,69,48,6
3,60,41,306
3,64,41,0
3,69,48,0
3,60,41,300
3,69,41,0
3,64,46,6
3,60,46,300
3,64,46,6
3,69,53,12
3,60,48,294
3,64,48,6
3,71,48,0
3,71,48,306
3,60,41,6
3,64,41,0
3,71,41,294
3,60,41,6
3,64,46,6
3,60,46,300
3,64,46,6
3,71,53,6
3,60,23,120
3,64,23,0
3,69,23,0
3,60,23,120
3,64,23,6
3,69,23,6
3,60,23,114
3,69,23,0
3,64,25,6
3,60,28,114
3,64,28,6
3,69,17,12
3,60,17,102
3,64,17,0
3,69,30,6
4,50,73,0
4,55,67,8
4,59,72,8
4,62,60,8
4,59,57,0
4,55,66,0
4,50,64,14
4,59,64,0
4,55,64,2
4,62,56,4
4,59,57,4
4,54,64,4
4,50,56,8
4,54,56,0
4,50,56,6
4,59,56,0
4,62,56,0
4,62,69,0
4,50,64,12
4,54,64,0
4,59,64,0
4,52,56,144
4,57,56,8
4,60,56,8
4,64,56,8
4,60,57,0
4,57,66,0
4,52,64,14
4,60,64,0
4,57,64,2
4,64,56,4
4,60,57,4
4,55,64,4
4,52,56,8
4,55,56,0
4,52,56,6
4,60,56,0
4,64,56,0
4,64,69,12
4,48,64,0
4,52,64,0
4,60,64,0
4,50,73,0
4,55,67,8
4,59,72,8
4,62,60,8
4,59,57,0
4,55,66,0
4,50,64,14
4,59,64,0
4,55,64,2
4,62,56,4
4,59,57,4
4,54,64,4
4,50,56,8
4,54,56,0
4,50,56,6
4,59,56,0
4,62,56,0
4,62,69,0
4,50,64,12
4,54,64,0
4,59,64,0
4,52,56,144
4,57,56,8
4,60,56,8
4,64,56,8
4,60,57,0
4,57,66,0
4,52,64,14
4,60,64,0
4,57,64,2
4,64,56,4
4,60,57,4
4,55,64,4
4,52,56,8
4,55,56,0
4,52,56,6
4,60,56,0
4,64,56,0
4,64,69,12
4,48,64,0
4,52,64,0
4,60,64,0
4,50,73,0
4,55,67,8
4,59,72,8
4,62,60,8
4,59,57,0
4,55,66,0
4,50,64,14
4,59,64,0
4,55,64,2
4,62,56,4
4,59,57,4
4,54,64,4
4,50,56,8
4,54,56,0
4,50,56,6
4,59,56,0
4,62,56,0
4,62,69,0
4,50,64,12
4,54,64,0
4,59,64,0
4,52,56,144
4,57,56,8
4,60,56,8
4,64,56,8
4,60,57,0
4,57,66,0
4,52,64,14
4,60,64,0
4,57,64,2
4,64,56,4
4,60,57,4
4,55,64,4
4,52,56,8
4,55,56,0
4,52,56,6
4,60,56,0
4,64,56,0
4,64,69,12
4,48,64,0
4,52,64,0
4,60,64,0
4,50,73,0
4,55,67,8
4,59,72,8
4,62,60,8
4,59,57,0
4,55,66,0
4,50,64,14
4,59,64,0
4,55,64,2
4,62,56,4
4,59,57,4
4,54,64,4
4,50,56,8
4,54,56,0
4,50,56,6
4,59,56,0
4,62,56,0
4,62,69,0
4,50,64,12
4,54,64,0
4,59,64,0
4,52,56,144
4,55,56,8
4,60,56,8
4,64,56,8
4,60,57,0
4,55,66,0
4,52,64,14
4,60,64,0
4,55,64,2
4,64,56,4
4,60,57,4
4,55,64,4
4,52,56,8
4,55,56,0
4,52,56,6
4,60,56,0
4,64,56,0
4,55,64,12
4,64,69,0
4,52,64,0
4,60,64,0
4,52,56,138
4,55,56,8
4,60,56,8
4,64,56,8
4,60,57,0
4,55,66,0
4,52,64,14
4,60,64,0
4,55,64,2
4,64,56,4
4,60,57,4
4,55,64,4
4,52,56,8
4,55,56,0
4,52,56,6
4,60,56,0
4,64,56,0
4,55,64,12
4,64,69,0
4,52,64,0
4,60,64,0
4,52,56,138
4,55,56,8
4,60,56,8
4,64,56,8
4,60,57,0
4,55,66,0
4,52,64,14
4,60,64,0
4,55,64,2
4,64,56,4
4,60,57,4
4,55,64,4
4,52,56,8
4,55,56,0
4,52,56,6
4,60,56,0
4,64,56,0
4,55,64,12
4,64,69,0
4,52,64,0
4,60,64,0
4,52,56,138
4,55,56,8
4,60,56,8
4,64,56,8
4,60,57,0
4,55,66,0
4,52,64,14
4,60,64,0
4,55,64,2
4,64,56,4
4,60,57,4
4,55,64,4
4,52,56,8
4,55,56,0
4,52,56,6
4,60,56,0
4,64,56,0
4,55,64,12
4,64,69,0
4,52,64,0
4,60,64,0
4,52,53,138
4,59,55,0
4,60,53,0
4,57,60,32
4,52,60,8
4,60,60,0
4,52,60,24
4,57,60,0
4,60,60,0
4,52,53,16
4,59,55,0
4,60,53,0
4,57,60,32
4,52,60,8
4,60,60,0
4,52,60,24
4,57,60,0
4,60,60,0
4,52,53,16
4,59,55,0
4,60,53,0
4,57,60,32
4,52,60,8
4,60,60,0
4,52,60,24
4,57,60,0
4,60,60,0
4,52,53,16
4,59,55,0
4,60,53,0
4,57,60,32
4,52,60,8
4,60,60,0
4,52,53,96
4,59,55,0
4,60,53,0
4,57,60,32
4,52,60,8
4,60,60,0
4,52,60,24
4,57,60,0
4,60,60,0
4,52,53,16
4,59,55,0
4,60,53,0
4,57,60,32
4,52,60,8
4,60,60,0
4,52,60,24
4,57,60,0
4,60,60,0
4,52,53,16
4,59,55,0
4,60,53,0
4,57,60,32
4,52,60,8
4,60,60,0
4,52,60,24
4,57,60,0
4,60,60,0
4,52,32,16
4,59,32,0
4,60,32,0
4,57,32,32
4,52,32,8
4,60,32,0
4,50,73,0
4,55,67,8
4,59,72,8
4,62,60,8
4,59,57,0
4,55,66,0
4,50,64,14
4,59,64,0
4,55,64,2
4,62,56,4
4,59,57,4
4,54,64,4
4,50,56,8
4,54,56,0
4,50,56,6
4,59,56,0
4,62,56,0
4,62,69,0
4,50,64,12
4,54,64,0
4,59,64,0
4,52,56,144
4,57,56,8
4,60,56,8
4,64,56,8
4,60,57,0
4,57,66,0
4,52,64,14
4,60,64,0
4,57,64,2
4,64,56,4
4,60,57,4
4,55,64,4
4,52,56,8
4,55,56,0
4,52,56,6
4,60,56,0
4,64,56,0
4,64,69,12
4,48,64,0
4,52,64,0
4,60,64,0
4,50,73,0
4,55,67,8
4,59,72,8
4,62,60,8
