track,note,velocity,time
1,28,113,768
1,28,0,47
1,28,113,17
1,28,0,27
1,28,113,6
1,28,0,46
1,28,113,17
1,28,0,23
1,28,113,9
1,28,0,50
1,28,113,14
1,28,0,25
1,28,113,7
1,28,0,51
1,28,113,13
1,28,0,22
1,28,113,10
1,28,0,49
1,28,113,15
1,28,0,24
1,28,113,8
1,28,0,49
1,28,113,15
1,28,0,23
1,28,113,9
1,28,0,49
1,28,113,15
1,28,0,23
1,28,113,9
1,28,0,48
1,28,113,16
1,28,0,22
1,28,113,10
1,28,0,47
1,28,113,17
1,28,0,21
1,28,113,12
1,28,0,46
1,28,113,17
1,28,0,22
1,28,113,11
1,28,0,52
1,28,113,11
1,28,0,25
1,28,113,8
1,28,0,45
1,28,113,18
1,28,0,21
1,28,113,12
1,28,0,45
1,28,113,18
1,28,0,25
1,28,113,8
1,28,0,42
1,28,113,21
1,28,0,24
1,28,113,8
1,28,0,78
1,29,113,19
1,29,0,88
1,30,113,7
1,30,0,57
1,30,113,7
1,30,0,22
1,30,113,11
1,30,0,45
1,30,113,18
1,30,0,21
1,30,113,11
1,30,0,45
1,30,113,19
1,30,0,29
1,30,113,4
1,30,0,45
1,30,113,18
1,30,0,22
1,30,113,10
1,30,0,51
1,30,113,13
1,30,0,27
1,30,113,5
1,30,0,53
1,30,113,11
1,30,0,27
1,30,113,6
1,30,0,48
1,30,113,15
1,30,0,27
1,34,113,6
1,35,113,95
1,34,0,1
1,35,0,56
1,35,113,7
1,35,0,29
1,35,113,4
1,35,0,48
1,35,113,15
1,35,0,21
1,35,113,12
1,35,0,50
1,35,113,13
1,35,0,21
1,35,113,12
1,35,0,50
1,35,113,13
1,35,0,22
1,35,113,11
1,35,0,53
1,35,113,10
1,35,0,21
1,35,113,12
1,35,0,52
1,35,113,11
1,35,0,23
1,35,113,10
1,35,0,73
1,36,113,23
1,36,0,61
1,36,113,2
1,37,113,33
1,36,0,5
1,37,0,48
1,37,113,10
1,37,0,23
1,37,113,10
1,37,0,49
1,37,113,14
1,37,0,29
1,37,113,3
1,37,0,50
1,37,113,14
1,37,0,25
1,37,113,8
1,37,0,56
1,37,113,7
1,37,0,25
1,37,113,7
1,37,0,45
1,37,113,19
1,37,0,27
1,37,113,6
1,37,0,56
1,37,113,7
1,37,0,29
1,37,113,4
1,37,0,50
1,37,113,13
1,37,0,29
1,37,113,4
1,37,0,45
1,37,113,18
1,35,113,32
1,37,0,6
1,35,0,45
1,35,113,13
1,35,0,25
1,35,113,8
1,35,0,50
1,35,113,13
1,35,0,27
1,35,113,6
1,35,0,46
1,35,113,17
1,35,0,22
1,35,113,11
1,35,0,45
1,35,113,18
1,40,113,33
1,35,0,8
1,28,113,55
1,40,0,6
1,45,113,123
1,28,0,6
1,33,113,57
1,45,0,6
1,30,113,123
1,33,0,13
1,30,0,36
1,30,113,14
1,30,0,28
1,30,113,5
1,30,0,49
1,30,113,14
1,30,0,22
1,30,113,10
1,30,0,59
1,30,113,5
1,30,0,25
1,30,113,8
1,30,0,57
1,30,113,6
1,30,0,26
1,30,113,6
1,30,0,55
1,30,113,9
1,30,0,25
1,30,113,7
1,30,0,57
1,30,113,7
1,30,0,29
1,30,113,4
1,30,0,49
1,30,113,14
1,30,0,26
1,34,113,6
1,34,0,50
1,34,113,14
1,34,0,26
1,35,113,7
1,35,0,50
1,35,113,13
1,35,0,25
1,35,113,7
1,35,0,53
1,35,113,11
1,35,0,18
1,35,113,15
1,35,0,49
1,35,113,14
1,35,0,29
1,35,113,4
1,35,0,50
1,35,113,13
1,35,0,18
1,35,113,14
1,35,0,54
1,35,113,10
1,35,0,22
1,35,113,11
1,35,0,53
1,35,113,10
1,35,0,21
1,35,113,11
1,35,0,50
1,35,113,14
1,35,0,26
1,35,113,7
1,35,0,46
1,35,113,17
1,35,0,25
1,37,113,8
1,37,0,50
1,37,113,13
1,37,0,22
1,37,113,11
1,37,0,48
1,37,113,15
1,37,0,25
1,37,113,8
1,37,0,53
1,37,113,10
1,37,0,22
1,37,113,11
1,37,0,48
1,37,113,15
1,37,0,23
1,37,113,10
1,37,0,53
1,37,113,10
1,37,0,24
1,37,113,9
1,37,0,49
1,37,113,14
1,37,0,25
1,37,113,8
1,37,0,41
1,37,113,22
1,37,0,31
1,37,113,2
1,37,0,48
1,37,113,15
1,37,0,29
1,35,113,3
1,35,0,49
1,35,113,15
1,35,0,25
1,35,113,8
1,35,0,53
1,35,113,10
1,35,0,22
1,35,113,11
1,35,0,50
1,35,113,13
1,35,0,27
1,35,113,6
1,35,0,57
1,35,113,6
1,35,0,25
1,37,113,8
1,37,0,49
1,37,113,14
1,37,0,25
1,37,113,8
1,37,0,49
1,37,113,14
1,37,0,21
1,37,113,12
1,37,0,56
1,37,113,7
1,37,0,33
1,37,113,0
1,37,0,47
1,37,113,16
1,30,113,32
1,37,0,11
1,30,0,42
1,30,113,11
1,30,0,22
1,30,113,10
1,30,0,50
1,30,113,14
1,30,0,21
1,30,113,12
1,30,0,51
1,30,113,12
1,30,0,21
1,30,113,12
1,30,0,53
1,30,113,10
1,30,0,22
1,30,113,10
1,30,0,57
1,30,113,7
1,30,0,23
1,30,113,10
1,30,0,52
1,30,113,11
1,30,0,23
1,30,113,9
1,30,0,58
1,30,113,6
1,30,0,23
1,30,113,10
1,30,0,53
1,34,113,10
1,35,113,32
1,34,0,10
1,35,0,41
1,35,113,13
1,35,0,29
1,35,113,4
1,35,0,40
1,35,113,23
1,35,0,18
1,35,113,14
1,35,0,53
1,35,113,11
1,35,0,17
1,35,113,16
1,35,0,49
1,35,113,14
1,35,0,17
1,35,113,15
1,35,0,46
1,35,113,18
1,35,0,21
1,35,113,11
1,35,0,54
1,35,113,10
1,35,0,23
1,35,113,10
1,35,0,53
1,35,113,10
1,35,0,24
1,35,113,8
1,35,0,50
1,35,113,14
1,35,0,25
1,37,113,7
1,37,0,122
1,37,113,38
1,37,0,75
1,35,113,54
1,35,0,192
1,35,113,0
1,35,0,52
1,35,113,44
1,35,0,41
1,35,113,22
1,35,0,87
1,37,113,42
1,37,0,121
1,37,113,38
1,37,0,87
1,35,113,41
1,35,0,171
1,35,113,22
1,35,0,60
1,35,113,36
1,35,0,40
1,35,113,23
1,35,0,71
1,37,113,57
1,37,0,77
1,37,113,20
1,37,0,56
1,37,113,7
1,37,0,18
1,37,113,15
1,37,0,48
1,37,113,15
1,37,0,22
1,37,113,11
1,37,0,47
1,37,113,16
1,37,0,21
1,37,113,12
1,37,0,56
1,37,113,7
1,37,0,18
1,37,113,15
1,37,0,47
1,37,113,16
1,37,0,22
1,37,113,11
1,37,0,60
1,37,113,3
1,37,0,25
1,37,113,8
1,37,0,42
1,37,113,21
1,37,0,23
1,40,113,9
1,40,0,50
1,40,113,14
1,40,0,18
1,40,113,14
1,40,0,57
1,40,113,7
1,40,0,22
1,40,113,11
1,40,0,49
1,40,113,14
1,40,0,22
1,40,113,11
1,40,0,54
1,40,113,9
1,40,0,23
1,40,113,9
1,40,0,47
1,40,113,17
1,40,0,22
1,40,113,11
1,40,0,53
1,40,113,10
1,40,0,25
1,40,113,8
1,40,0,53
1,40,113,10
1,40,0,26
1,40,113,7
1,40,0,49
1,40,113,14
1,40,0,27
1,33,113,6
1,33,0,54
1,33,113,9
1,33,0,22
1,33,113,11
1,33,0,52
1,33,113,11
1,33,0,25
1,33,113,8
1,33,0,44
1,33,113,19
1,33,0,24
1,33,113,8
1,33,0,49
1,33,113,15
1,33,0,25
1,33,113,7
1,33,0,53
1,33,113,11
1,33,0,25
1,33,113,7
1,33,0,42
1,33,113,22
1,33,0,33
1,37,113,0
1,37,0,52
1,37,113,11
1,40,113,33
1,37,0,1
1,40,0,51
1,40,113,11
1,38,113,33
1,40,0,6
1,38,0,44
1,38,113,13
1,38,0,23
1,38,113,10
1,38,0,52
1,38,113,11
1,38,0,31
1,38,113,2
1,38,0,40
1,38,113,23
1,38,0,22
1,38,113,11
1,38,0,49
1,38,113,14
1,38,0,22
1,38,113,11
1,38,0,53
1,38,113,10
1,38,0,28
1,37,113,5
1,37,0,56
1,37,113,7
1,37,0,27
1,38,113,6
1,38,0,44
1,38,113,19
1,38,0,26
1,39,113,7
1,39,0,47
1,39,113,16
1,39,0,27
1,40,113,6
1,40,0,57
1,40,113,6
1,40,0,23
1,40,113,9
1,40,0,50
1,40,113,14
1,40,0,22
1,40,113,11
1,40,0,46
1,40,113,17
1,40,0,27
1,40,113,6
1,40,0,49
1,40,113,14
1,40,0,25
1,40,113,7
1,40,0,53
1,40,113,11
1,40,0,29
1,40,113,4
1,40,0,46
1,40,113,17
1,40,0,27
1,40,113,6
1,40,0,53
1,40,113,10
1,40,0,29
1,40,113,4
1,40,0,41
1,40,113,22
1,38,113,32
1,40,0,7
1,38,0,43
1,38,113,14
1,38,0,26
1,38,113,7
1,38,0,49
1,38,113,14
1,38,0,26
1,38,113,6
1,38,0,37
1,38,113,27
1,38,0,31
1,40,113,1
1,40,0,169
1,40,113,24
1,40,0,76
1,40,113,20
1,40,0,44
1,40,113,19
1,33,113,128
1,40,0,15
1,33,0,40
1,33,113,9
1,33,0,25
1,33,113,8
1,33,0,52
1,33,113,11
1,33,0,25
1,33,113,8
1,33,0,49
1,33,113,14
1,33,0,24
1,33,113,9
1,33,0,48
1,33,113,15
1,33,0,26
1,33,113,6
1,33,0,49
1,33,113,15
1,33,0,29
1,33,113,4
1,33,0,44
1,33,113,19
1,33,0,29
1,37,113,4
1,37,0,46
1,37,113,17
1,37,0,29
1,40,113,4
1,40,0,52
1,40,113,11
1,38,113,33
1,40,0,6
1,38,0,82
1,38,113,8
1,37,113,96
1,38,0,6
1,37,0,75
1,37,113,14
1,37,0,93
1,35,113,4
1,35,0,84
1,35,113,12
1,35,0,78
1,33,113,18
1,33,0,78
1,33,113,18
1,33,0,95
1,40,113,0
1,40,0,103
1,40,113,57
1,38,113,128
1,40,0,7
1,38,0,168
1,38,113,18
1,38,0,80
1,38,113,16
1,38,0,46
1,38,113,17
1,38,0,125
1,40,113,3
1,40,0,120
1,40,113,40
1,40,0,129
1,38,113,0
1,38,0,165
1,38,113,27
1,38,0,81
1,38,113,15
1,38,0,38
1,38,113,25
1,38,0,129
1,40,113,0
1,40,0,125
1,40,113,34
1,40,0,127
1,38,113,1
1,38,0,937
1,40,113,312
1,40,0,62
1,28,113,1
1,28,0,117
1,45,113,12
1,45,0,58
1,33,113,5
1,30,113,128
1,33,0,5
1,30,0,45
1,30,113,14
1,30,0,29
1,30,113,4
1,30,0,50
1,30,113,13
1,30,0,22
1,30,113,10
1,30,0,59
1,30,113,5
1,30,0,25
1,30,113,8
1,30,0,57
1,30,113,6
1,30,0,26
1,30,113,6
1,30,0,55
1,30,113,9
1,30,0,25
1,30,113,8
1,30,0,56
1,30,113,7
1,30,0,29
1,30,113,4
1,30,0,49
1,30,113,14
1,30,0,26
1,34,113,7
1,34,0,48
1,34,113,15
1,34,0,26
1,35,113,6
1,35,0,51
1,35,113,13
1,35,0,25
1,35,113,7
1,35,0,53
1,35,113,11
1,35,0,17
1,35,113,16
1,35,0,48
1,35,113,15
1,35,0,29
1,35,113,3
1,35,0,50
1,35,113,14
1,35,0,18
1,35,113,14
1,35,0,54
1,35,113,10
1,35,0,22
1,35,113,11
1,35,0,53
1,35,113,10
1,35,0,21
1,35,113,12
1,35,0,49
1,35,113,14
1,35,0,26
1,35,113,7
1,35,0,46
1,35,113,17
1,35,0,24
1,37,113,8
1,37,0,51
1,37,113,13
1,37,0,22
1,37,113,11
1,37,0,48
1,37,113,15
1,37,0,25
1,37,113,8
1,37,0,53
1,37,113,10
1,37,0,22
1,37,113,11
1,37,0,48
1,37,113,15
1,37,0,23
1,37,113,10
1,37,0,53
1,37,113,10
1,37,0,25
1,37,113,7
1,37,0,50
1,37,113,14
1,37,0,25
1,37,113,8
1,37,0,42
1,37,113,21
1,37,0,31
1,37,113,1
1,37,0,49
1,37,113,15
1,37,0,29
1,35,113,3
1,35,0,49
1,35,113,15
1,35,0,24
1,35,113,9
1,35,0,53
1,35,113,10
1,35,0,22
1,35,113,11
1,35,0,50
1,35,113,13
1,35,0,27
1,35,113,6
1,35,0,57
1,35,113,6
1,35,0,25
1,37,113,7
1,37,0,50
1,37,113,14
1,37,0,25
1,37,113,8
1,37,0,50
1,37,113,13
1,37,0,21
1,37,113,12
1,37,0,56
1,37,113,7
1,37,0,33
1,37,113,0
1,37,0,46
1,37,113,17
1,30,113,32
1,37,0,11
1,30,0,42
1,30,113,11
1,30,0,22
1,30,113,10
1,30,0,50
1,30,113,14
1,30,0,20
1,30,113,13
1,30,0,52
1,30,113,11
1,30,0,21
1,30,113,12
1,30,0,53
1,30,113,10
1,30,0,22
1,30,113,11
1,30,0,56
1,30,113,7
1,30,0,23
1,30,113,9
1,30,0,53
1,30,113,11
1,30,0,23
1,30,113,10
1,30,0,57
1,30,113,6
1,30,0,23
1,30,113,10
1,30,0,53
1,34,113,10
1,35,113,32
1,34,0,10
1,35,0,40
1,35,113,14
1,35,0,29
1,35,113,4
1,35,0,40
1,35,113,23
1,35,0,18
1,35,113,14
1,35,0,53
1,35,113,11
1,35,0,17
1,35,113,16
1,35,0,49
1,35,113,14
1,35,0,18
1,35,113,14
1,35,0,47
1,35,113,17
1,35,0,21
1,35,113,12
1,35,0,53
1,35,113,10
1,35,0,23
1,35,113,10
1,35,0,53
1,35,113,10
1,35,0,25
1,35,113,8
1,35,0,49
1,35,113,14
1,35,0,25
1,37,113,8
1,37,0,121
1,37,113,38
1,37,0,74
1,35,113,55
1,35,0,192
1,35,113,0
1,35,0,52
1,35,113,44
1,35,0,41
1,35,113,22
1,35,0,87
1,37,113,41
1,37,0,122
1,37,113,38
1,37,0,87
1,35,113,41
1,35,0,171
1,35,113,22
1,35,0,60
1,35,113,36
1,35,0,40
1,35,113,23
1,35,0,71
1,37,113,57
1,37,0,77
1,37,113,20
1,37,0,56
1,37,113,7
1,37,0,18
1,37,113,14
1,37,0,48
1,37,113,16
1,37,0,21
1,37,113,12
1,37,0,48
1,37,113,15
1,37,0,21
1,37,113,12
1,37,0,55
1,37,113,8
1,37,0,18
1,37,113,15
1,37,0,47
1,37,113,16
1,37,0,21
1,37,113,12
1,37,0,61
1,37,113,2
1,37,0,25
1,37,113,8
1,37,0,42
1,37,113,21
1,37,0,23
1,40,113,10
1,40,0,49
1,40,113,14
1,40,0,18
1,40,113,15
1,40,0,56
1,40,113,7
1,40,0,21
1,40,113,12
1,40,0,49
1,40,113,14
1,40,0,22
1,40,113,10
1,40,0,55
1,40,113,9
1,40,0,23
1,40,113,9
1,40,0,47
1,40,113,17
1,40,0,22
1,40,113,11
1,40,0,53
1,40,113,10
1,40,0,25
1,40,113,8
1,40,0,53
1,40,113,10
1,40,0,26
1,40,113,7
1,40,0,49
1,40,113,14
1,40,0,27
1,33,113,6
1,33,0,54
1,33,113,9
1,33,0,22
1,33,113,11
1,33,0,52
1,33,113,11
1,33,0,25
1,33,113,8
1,33,0,44
1,33,113,19
1,33,0,25
1,33,113,8
1,33,0,48
1,33,113,15
1,33,0,25
1,33,113,8
1,33,0,52
1,33,113,11
1,33,0,25
1,33,113,7
1,33,0,42
1,33,113,22
1,33,0,33
1,37,113,0
1,37,0,53
1,37,113,10
1,40,113,32
1,37,0,2
1,40,0,51
1,40,113,11
1,38,113,32
1,40,0,7
1,38,0,44
1,38,113,13
1,38,0,23
1,38,113,9
1,38,0,53
1,38,113,11
1,38,0,31
1,38,113,1
1,38,0,41
1,38,113,23
1,38,0,21
1,38,113,12
1,38,0,49
1,38,113,14
1,38,0,22
1,38,113,10
1,38,0,54
1,38,113,10
1,38,0,29
1,37,113,4
1,37,0,56
1,37,113,7
1,37,0,27
1,38,113,6
1,38,0,44
1,38,113,19
1,38,0,27
1,39,113,6
1,39,0,47
1,39,113,16
1,39,0,27
1,40,113,6
1,40,0,57
