track,note,velocity,time
1,38,107,329
1,38,0,12
1,38,112,20
1,38,0,30
1,43,96,33
1,43,0,8
1,41,94,18
1,41,0,9
1,57,100,21
1,36,100,0
1,42,100,60
1,42,0,60
1,36,0,0
1,57,0,0
1,38,100,0
1,42,100,0
1,42,0,60
1,38,0,0
1,42,100,0
1,42,0,60
1,36,100,0
1,42,100,0
1,42,0,60
1,36,0,0
1,36,100,0
1,42,100,0
1,42,0,60
1,36,0,0
1,38,100,0
1,42,100,0
1,42,0,60
1,38,0,0
1,42,100,0
1,42,0,60
1,42,100,0
1,36,100,0
1,42,0,60
1,42,100,0
1,42,0,60
1,36,0,0
1,38,100,0
1,42,100,0
1,42,0,60
1,38,0,0
1,42,100,0
1,36,100,30
1,36,0,30
1,42,0,0
1,36,100,0
1,42,100,0
1,36,0,30
1,42,0,30
1,42,100,0
1,42,0,60
1,38,100,0
1,42,100,0
1,38,0,30
1,42,0,30
1,46,100,0
1,46,0,60
1,42,100,0
1,36,100,0
1,42,0,60
1,42,100,0
1,42,0,60
1,36,0,0
1,38,100,0
1,42,100,0
1,42,0,60
1,38,0,0
1,42,100,0
1,36,100,30
1,36,0,30
1,42,0,0
1,42,100,0
1,36,100,30
1,36,0,30
1,42,0,0
1,36,100,0
1,42,100,0
1,36,0,30
1,42,0,30
1,38,100,0
1,42,100,0
1,38,0,30
1,42,0,30
1,46,100,0
1,46,0,60
1,57,100,0
1,36,100,0
1,36,0,480
1,57,0,0
1,57,100,0
1,36,100,0
1,42,100,60
1,42,0,60
1,36,0,0
1,57,0,0
1,38,100,0
1,42,100,0
1,42,0,60
1,38,0,0
1,42,100,0
1,42,0,60
1,36,100,0
1,42,100,0
1,42,0,60
1,36,0,0
1,36,100,0
1,42,100,0
1,42,0,60
1,36,0,0
1,38,100,0
1,42,100,0
1,42,0,60
1,38,0,0
1,42,100,0
1,42,0,60
1,42,100,0
1,36,100,0
1,42,0,60
1,42,100,0
1,42,0,60
1,36,0,0
1,38,100,0
1,42,100,0
1,42,0,60
1,38,0,0
1,42,100,0
1,36,100,30
1,36,0,30
1,42,0,0
1,36,100,0
1,42,100,0
1,36,0,30
1,42,0,30
1,42,100,0
1,42,0,60
1,38,100,0
1,42,100,0
1,38,0,30
1,42,0,30
1,46,100,0
1,46,0,60
1,42,100,0
1,36,100,0
1,42,0,60
1,42,100,0
1,42,0,60
1,36,0,0
1,38,100,0
1,42,100,0
1,42,0,60
1,38,0,0
1,42,100,0
1,36,100,30
1,36,0,30
1,42,0,0
1,42,100,0
1,36,100,30
1,36,0,30
1,42,0,0
1,36,100,0
1,42,100,0
1,36,0,30
1,42,0,30
1,38,100,0
1,42,100,0
1,38,0,30
1,42,0,30
1,46,100,0
1,46,0,60
1,36,100,0
1,42,100,60
1,42,0,60
1,36,0,0
1,38,100,0
1,42,100,0
1,42,0,60
1,38,0,0
1,42,100,0
1,42,0,60
1,36,100,0
1,42,100,0
1,42,0,60
1,36,0,0
1,36,100,0
1,42,100,0
1,42,0,60
1,36,0,0
1,38,100,0
1,42,100,0
1,42,0,60
1,38,0,0
1,42,100,0
1,42,0,60
1,42,100,0
1,36,100,0
1,42,0,60
1,42,100,0
1,42,0,60
1,36,0,0
1,38,100,0
1,42,100,0
1,42,0,60
1,38,0,0
1,42,100,0
1,36,100,30
1,36,0,30
1,42,0,0
1,36,100,0
1,42,100,0
1,36,0,30
1,42,0,30
1,42,100,0
1,42,0,60
1,38,100,0
1,42,100,0
1,38,0,30
1,42,0,30
1,46,100,0
1,46,0,60
1,42,100,0
1,36,100,0
1,42,0,60
1,42,100,0
1,42,0,60
1,36,0,0
1,38,100,0
1,42,100,0
1,42,0,60
1,38,0,0
1,42,100,0
1,36,100,30
1,36,0,30
1,42,0,0
1,42,100,0
1,36,100,30
1,36,0,30
1,42,0,0
1,36,100,0
1,42,100,0
1,36,0,30
1,42,0,30
1,38,100,0
1,42,100,0
1,38,0,30
1,42,0,30
1,46,100,0
1,46,0,60
1,36,100,0
1,42,100,60
1,42,0,60
1,36,0,0
1,38,100,0
1,42,100,0
1,42,0,60
1,38,0,0
1,42,100,0
1,42,0,60
1,36,100,0
1,42,100,0
1,42,0,60
1,36,0,0
1,36,100,0
1,42,100,0
1,42,0,60
1,36,0,0
1,38,100,0
1,42,100,0
1,42,0,60
1,38,0,0
1,42,100,0
1,42,0,60
1,42,100,0
1,36,100,0
1,42,0,60
1,42,100,0
1,42,0,60
1,36,0,0
1,38,100,0
1,42,100,0
1,42,0,60
1,38,0,0
1,42,100,0
1,36,100,30
1,36,0,30
1,42,0,0
1,36,100,0
1,42,100,0
1,36,0,30
1,42,0,30
1,42,100,0
1,42,0,60
1,38,100,0
1,42,100,0
1,38,0,30
1,42,0,30
1,46,100,0
1,46,0,60
1,57,100,0
1,42,100,0
1,36,100,0
1,42,0,60
1,42,100,0
1,42,0,60
1,36,0,0
1,57,0,0
1,38,100,0
1,42,100,0
1,42,0,60
1,38,0,0
1,42,100,0
1,36,100,30
1,36,0,30
1,42,0,0
1,42,100,0
1,36,100,30
1,36,0,30
1,42,0,0
1,36,100,0
1,42,100,0
1,36,0,30
1,42,0,30
1,38,100,0
1,42,100,0
1,38,0,30
1,42,0,30
1,46,100,0
1,46,0,60
1,36,100,0
1,42,100,60
1,42,0,60
1,36,0,0
1,38,100,0
1,42,100,0
1,42,0,60
1,38,0,0
1,42,100,0
1,42,0,60
1,36,100,0
1,42,100,0
1,42,0,60
1,36,0,0
1,36,100,0
1,42,100,0
1,42,0,60
1,36,0,0
1,38,100,0
1,42,100,0
1,42,0,60
1,38,0,0
1,42,100,0
1,42,0,60
1,57,100,0
1,42,100,0
1,36,100,0
1,42,0,60
1,42,100,0
1,42,0,60
1,36,0,0
1,57,0,0
1,38,100,0
1,42,100,0
1,42,0,60
1,38,0,0
1,36,100,0
1,57,100,0
1,57,0,60
1,36,0,0
1,36,100,0
1,42,100,0
1,36,0,30
1,42,0,30
1,42,100,0
1,42,0,60
1,38,100,0
1,42,100,0
1,38,0,30
1,42,0,30
1,48,100,0
1,48,0,30
1,45,100,0
1,45,0,30
1,57,100,0
1,42,100,0
1,36,100,0
1,42,0,60
1,42,100,0
1,42,0,60
1,36,0,0
1,57,0,0
1,38,100,0
1,42,100,0
1,42,0,60
1,38,0,0
1,36,100,0
1,57,100,0
1,57,0,30
1,36,0,30
1,42,100,0
1,36,100,30
1,36,0,30
1,42,0,0
1,36,100,0
1,42,100,0
1,36,0,30
1,42,0,30
1,45,127,0
1,48,127,0
1,48,0,30
1,45,0,0
1,43,127,30
1,47,127,0
1,47,0,30
1,43,0,0
1,57,100,30
1,36,100,0
1,42,100,60
1,42,0,60
1,36,0,0
1,57,0,0
1,38,100,0
1,42,100,0
1,42,0,60
1,38,0,0
1,42,100,0
1,42,0,60
1,36,100,0
1,42,100,0
1,42,0,60
1,36,0,0
1,36,100,0
1,42,100,0
1,42,0,60
1,36,0,0
1,38,100,0
1,42,100,0
1,42,0,60
1,38,0,0
1,42,100,0
1,42,0,60
1,42,100,0
1,36,100,0
1,42,0,60
1,42,100,0
1,42,0,60
1,36,0,0
1,38,100,0
1,42,100,0
1,42,0,60
1,38,0,0
1,42,100,0
1,36,100,30
1,36,0,30
1,42,0,0
1,36,100,0
1,42,100,0
1,36,0,30
1,42,0,30
1,42,100,0
1,42,0,60
1,38,100,0
1,42,100,0
1,38,0,30
1,42,0,30
1,46,100,0
1,46,0,60
1,42,100,0
1,36,100,0
1,42,0,60
1,42,100,0
1,42,0,60
1,36,0,0
1,38,100,0
1,42,100,0
1,42,0,60
1,38,0,0
1,42,100,0
1,36,100,30
1,36,0,30
1,42,0,0
1,42,100,0
1,36,100,30
1,36,0,30
1,42,0,0
1,36,100,0
1,42,100,0
1,36,0,30
1,42,0,30
1,38,100,0
1,42,100,0
1,38,0,30
1,42,0,30
1,46,100,0
1,46,0,60
1,57,60,0
1,36,100,0
1,46,100,60
1,46,0,60
1,36,0,0
1,57,0,0
1,57,60,0
1,38,100,0
1,57,0,30
1,38,0,30
1,46,100,0
1,46,0,60
1,57,60,0
1,36,100,0
1,57,0,30
1,36,0,30
1,46,100,0
1,46,0,60
1,57,60,0
1,38,100,0
1,57,0,30
1,38,0,30
1,48,100,0
1,48,0,15
1,43,100,15
1,43,0,15
1,57,100,15
1,36,100,0
1,42,100,60
1,42,0,60
1,36,0,0
1,57,0,0
1,38,100,0
1,42,100,0
1,42,0,60
1,38,0,0
1,42,100,0
1,42,0,60
1,36,100,0
1,42,100,0
1,42,0,60
1,36,0,0
1,36,100,0
1,42,100,0
1,42,0,60
1,36,0,0
1,38,100,0
1,42,100,0
1,42,0,60
1,38,0,0
1,42,100,0
1,42,0,60
1,42,100,0
1,36,100,0
1,42,0,60
1,42,100,0
1,42,0,60
1,36,0,0
1,38,100,0
1,42,100,0
1,42,0,60
1,38,0,0
1,42,100,0
1,36,100,30
1,36,0,30
1,42,0,0
1,36,100,0
1,42,100,0
1,36,0,30
1,42,0,30
1,42,100,0
1,42,0,60
1,38,100,0
1,42,100,0
1,38,0,30
1,42,0,30
1,46,100,0
1,46,0,60
1,57,100,0
1,42,100,0
1,36,100,0
1,57,0,15
1,42,0,45
1,42,100,0
1,42,0,60
1,36,0,0
1,38,100,0
1,42,100,0
1,42,0,60
1,38,0,0
1,42,100,0
1,36,100,30
1,36,0,30
1,42,0,0
1,42,100,0
1,36,100,30
1,36,0,30
1,42,0,0
1,36,100,0
1,42,100,0
1,36,0,30
1,42,0,30
1,38,100,0
1,42,100,0
1,38,0,30
1,42,0,30
1,46,100,0
1,46,0,60
1,57,100,0
1,36,100,0
1,36,0,120
1,57,0,0
1,49,100,360
1,36,100,0
1,42,100,60
1,42,0,60
1,36,0,0
1,49,0,0
1,38,100,0
1,42,100,0
1,42,0,60
1,38,0,0
1,42,100,0
1,42,0,60
1,36,100,0
1,42,100,0
1,42,0,60
1,36,0,0
1,36,100,0
1,42,100,0
1,42,0,60
1,36,0,0
1,38,100,0
1,42,100,0
1,42,0,60
1,38,0,0
1,42,100,0
1,42,0,60
1,42,100,0
1,36,100,0
1,42,0,60
1,42,100,0
1,42,0,60
1,36,0,0
1,38,100,0
1,42,100,0
1,42,0,60
1,38,0,0
1,42,100,0
1,36,100,30
1,36,0,30
1,42,0,0
1,36,100,0
1,42,100,0
1,36,0,30
1,42,0,30
1,42,100,0
1,42,0,60
1,38,100,0
1,42,100,0
1,38,0,30
1,42,0,30
1,46,100,0
1,46,0,60
1,42,100,0
1,36,100,0
1,42,0,60
1,42,100,0
1,42,0,60
1,36,0,0
1,38,100,0
1,42,100,0
1,42,0,60
1,38,0,0
1,42,100,0
1,36,100,30
1,36,0,30
1,42,0,0
1,42,100,0
1,36,100,30
1,36,0,30
1,42,0,0
1,36,100,0
1,42,100,0
1,36,0,30
1,42,0,30
1,38,100,0
1,42,100,0
1,38,0,30
1,42,0,30
1,46,100,0
1,46,0,60
1,57,100,0
1,36,100,0
1,42,100,60
1,57,0,20
1,42,0,40
1,36,0,0
1,38,100,0
1,42,100,0
1,42,0,60
1,38,0,0
1,36,100,30
1,38,85,28
1,36,0,2
1,38,0,3
1,38,85,2
1,38,0,5
1,48,100,50
1,48,0,30
1,45,100,30
1,45,0,30
1,43,100,0
1,43,0,30
1,41,100,0
1,41,0,30
1,36,100,0
1,36,0,15
1,57,100,15
1,42,100,0
1,36,100,0
1,57,0,30
1,42,0,30
1,42,100,0
1,42,0,60
1,36,0,0
1,38,100,0
1,42,100,0
1,42,0,60
1,38,0,0
1,42,100,0
1,36,100,30
1,36,0,30
1,42,0,0
1,36,100,0
1,42,100,0
1,36,0,30
1,42,0,30
1,42,100,0
1,42,0,60
1,38,100,0
1,42,100,0
1,38,0,30
1,42,0,30
1,46,100,0
1,46,0,60
1,42,100,0
1,36,100,0
1,42,0,60
1,42,100,0
1,42,0,60
1,36,0,0
1,38,100,0
1,42,100,0
1,42,0,60
1,38,0,0
1,42,100,0
1,36,100,30
1,36,0,30
1,42,0,0
1,42,100,0
1,36,100,30
1,36,0,30
1,42,0,0
1,36,100,0
1,42,100,0
1,36,0,30
1,42,0,30
1,38,100,0
1,42,100,0
1,38,0,30
1,42,0,30
1,46,100,0
1,46,0,60
1,36,100,0
1,42,100,60
1,42,0,60
1,36,0,0
1,38,100,0
1,42,100,0
1,42,0,60
1,38,0,0
1,42,100,0
1,42,0,60
1,36,100,0
1,42,100,0
1,42,0,60
1,36,0,0
1,36,100,0
1,42,100,0
1,42,0,60
1,36,0,0
1,38,100,0
1,42,100,0
1,42,0,60
1,38,0,0
1,42,100,0
1,42,0,60
1,42,100,0
1,36,100,0
1,42,0,60
1,42,100,0
1,42,0,60
1,36,0,0
1,38,100,0
1,42,100,0
1,42,0,60
1,38,0,0
1,42,100,0
1,36,100,30
1,36,0,30
1,42,0,0
1,36,100,0
1,42,100,0
1,36,0,30
1,42,0,30
1,42,100,0
1,42,0,60
1,38,100,0
1,42,100,0
1,38,0,30
1,42,0,30
1,46,100,0
1,46,0,60
1,42,100,0
1,36,100,0
1,42,0,60
1,42,100,0
1,42,0,60
1,36,0,0
1,38,100,0
1,42,100,0
1,42,0,60
1,38,0,0
1,42,100,0
1,36,100,30
1,36,0,30
1,42,0,0
1,36,100,0
1,42,100,0
1,36,0,30
1,42,0,30
1,42,100,0
1,42,0,60
1,38,100,0
1,42,100,0
1,38,0,30
1,42,0,30
1,46,100,0
1,46,0,60
1,42,100,0
1,36,100,0
1,42,0,60
1,42,100,0
1,42,0,60
1,36,0,0
1,38,100,0
1,42,100,0
1,42,0,60
1,38,0,0
1,42,100,0
1,36,100,30
1,36,0,30
1,42,0,0
1,42,100,0
1,36,100,30
1,36,0,30
1,42,0,0
1,36,100,0
1,42,100,0
1,36,0,30
1,42,0,30
1,38,100,0
1,42,100,0
1,38,0,30
1,42,0,30
1,46,100,0
1,46,0,60
1,36,100,0
1,42,100,60
1,42,0,60
1,36,0,0
1,38,100,0
1,42,100,0
1,42,0,60
1,38,0,0
1,42,100,0
1,42,0,60
1,36,100,0
1,42,100,0
1,42,0,60
1,36,0,0
1,36,100,0
1,42,100,0
1,42,0,60
1,36,0,0
1,38,100,0
1,42,100,0
1,42,0,60
1,38,0,0
1,42,100,0
1,42,0,60
1,42,100,0
1,36,100,0
1,42,0,60
1,42,100,0
1,42,0,60
1,36,0,0
1,38,100,0
1,42,100,0
1,42,0,60
1,38,0,0
1,42,100,0
1,36,100,30
1,36,0,30
1,42,0,0
1,36,100,0
1,42,100,0
1,36,0,30
1,42,0,30
1,42,100,0
1,42,0,60
1,38,100,0
1,42,100,0
1,38,0,30
1,42,0,30
1,46,100,0
1,46,0,60
1,42,100,0
1,36,100,0
1,42,0,60
1,42,100,0
1,42,0,60
1,36,0,0
1,38,100,0
1,42,100,0
1,42,0,60
1,38,0,0
1,42,100,0
1,36,100,30
1,36,0,30
1,42,0,0
1,36,100,0
1,42,100,0
1,36,0,30
1,42,0,30
1,42,100,0
1,42,0,60
1,38,100,0
1,42,100,0
1,38,0,30
1,42,0,30
1,46,100,0
1,46,0,60
1,42,100,0
1,36,100,0
1,42,0,60
1,42,100,0
1,42,0,60
1,36,0,0
1,38,100,0
1,42,100,0
1,42,0,60
1,38,0,0
1,42,100,0
1,36,100,30
1,36,0,30
1,42,0,0
1,42,100,0
1,36,100,30
1,36,0,30
1,42,0,0
1,36,100,0
1,42,100,0
1,36,0,30
1,42,0,30
1,38,100,0
1,42,100,0
1,38,0,30
1,42,0,30
1,46,100,0
1,46,0,60
1,57,100,0
1,36,100,0
1,36,0,120
1,57,0,0
1,36,100,0
1,41,127,0
1,38,100,0
1,38,0,30
1,41,0,0
1,36,0,30
1,36,100,0
1,49,100,0
1,49,0,30
1,36,0,30
1,46,100,0
1,46,0,30
1,36,100,30
1,36,0,30
1,48,100,30
1,48,0,30
1,48,100,0
1,48,0,30
