track,note,velocity,time
1,52,64,1536
1,52,64,8
1,47,64,8
1,50,64,8
1,52,64,8
1,52,64,8
1,47,64,8
1,50,64,8
1,52,64,8
1,52,64,8
1,47,64,8
1,50,64,8
1,52,64,8
1,52,64,8
1,47,64,8
1,50,64,8
1,52,64,8
1,52,64,8
1,47,64,8
1,50,64,8
1,52,64,8
1,52,64,8
1,47,64,8
1,50,64,8
1,52,64,8
1,52,64,8
1,47,64,8
1,50,64,8
1,52,64,8
1,52,64,8
1,47,64,8
1,50,64,8
1,52,64,8
1,52,64,8
1,47,64,8
1,50,64,8
1,52,64,8
1,52,64,8
1,47,64,8
1,50,64,8
1,52,64,8
1,52,64,8
1,47,64,8
1,50,64,8
1,52,64,8
1,52,64,8
1,47,64,8
1,50,64,8
1,52,64,8
1,52,64,8
1,47,64,8
1,50,64,8
1,52,64,8
1,52,64,8
1,47,64,8
1,50,64,8
1,52,64,8
1,52,64,8
1,47,64,8
1,50,64,8
1,52,64,8
1,52,64,8
1,47,64,8
1,50,64,8
1,52,64,8
1,52,64,8
1,47,64,8
1,50,64,8
1,52,64,8
1,52,64,8
1,47,64,8
1,50,64,8
1,52,64,8
1,52,64,8
1,47,64,8
1,50,64,8
1,52,64,8
1,52,64,8
1,47,64,8
1,50,64,8
1,52,64,8
1,52,64,8
1,47,64,8
1,50,64,8
1,52,64,8
1,52,64,8
1,47,64,8
1,50,64,8
1,52,64,8
1,52,64,8
1,47,64,8
1,50,64,8
1,52,64,8
1,52,64,8
1,47,64,8
1,50,64,8
1,52,64,8
1,52,64,8
1,47,64,8
1,50,64,8
1,52,64,8
1,52,64,8
1,47,64,8
1,50,64,8
1,52,64,8
1,52,64,8
1,47,64,8
1,50,64,8
1,52,64,8
1,52,64,8
1,47,64,8
1,50,64,8
1,52,64,8
1,52,64,8
1,47,64,8
1,50,64,8
1,52,64,8
1,52,64,8
1,47,64,8
1,50,64,8
1,52,64,8
1,52,64,8
1,47,64,8
1,50,64,8
1,52,64,8
1,52,64,8
1,47,64,8
1,50,64,8
1,40,64,0
1,40,64,15
1,40,64,15
1,40,64,15
1,40,64,15
1,40,64,8
1,35,64,8
1,38,64,8
1,40,64,8
1,40,64,8
1,35,64,8
1,38,64,8
1,40,64,8
1,40,64,15
1,40,64,15
1,40,64,8
1,35,64,8
1,38,64,8
1,40,64,8
1,40,64,15
1,40,64,15
1,40,64,8
1,35,64,8
1,38,64,8
1,40,64,8
1,40,64,8
1,35,64,8
1,38,64,8
1,40,64,8
1,40,64,8
1,35,64,8
1,38,64,8
1,40,64,8
1,40,64,8
1,35,64,8
1,38,64,8
1,40,64,8
1,40,64,8
1,35,64,8
1,38,64,8
1,40,64,8
1,40,64,8
1,35,64,8
1,38,64,8
1,40,64,8
1,40,64,8
1,35,64,8
1,38,64,8
1,40,64,8
1,40,64,8
1,35,64,8
1,38,64,8
1,40,64,8
1,40,64,8
1,43,64,8
1,42,64,8
1,40,64,8
1,40,64,15
1,40,64,15
1,40,64,15
1,40,64,15
1,40,64,15
1,40,64,15
1,40,64,8
1,35,64,8
1,38,64,8
1,40,64,8
1,40,64,15
1,40,64,15
1,40,64,8
1,35,64,8
1,38,64,8
1,40,64,8
1,40,64,15
1,40,64,15
1,40,64,8
1,35,64,8
1,38,64,8
1,40,64,8
1,40,64,8
1,35,64,8
1,38,64,8
1,40,64,8
1,40,64,8
1,35,64,8
1,38,64,8
1,40,64,8
1,40,64,8
1,35,64,8
1,38,64,8
1,40,64,8
1,40,64,8
1,35,64,8
1,38,64,8
1,40,64,8
1,40,64,8
1,35,64,8
1,38,64,8
1,40,64,8
1,40,64,8
1,35,64,8
1,38,64,8
1,40,64,8
1,40,64,8
1,35,64,8
1,38,64,8
1,40,64,8
1,40,64,8
1,43,64,8
1,42,64,8
1,36,64,8
1,36,64,8
1,36,64,8
1,38,64,8
1,38,64,8
1,38,64,8
1,38,64,8
1,38,64,8
1,38,64,8
1,38,64,8
1,38,64,8
1,38,64,8
1,40,64,8
1,40,64,8
1,40,64,8
1,40,64,8
1,36,64,8
1,36,64,8
1,36,64,8
1,38,64,8
1,38,64,8
1,38,64,8
1,38,64,8
1,38,64,8
1,38,64,8
1,38,64,8
1,38,64,8
1,38,64,8
1,40,64,8
1,40,64,8
1,40,64,8
1,40,64,8
1,36,64,8
1,36,64,8
1,36,64,8
1,38,64,8
1,38,64,8
1,38,64,8
1,38,64,8
1,38,64,8
1,38,64,8
1,38,64,8
1,38,64,8
1,38,64,8
1,40,64,8
1,40,64,8
1,40,64,8
1,40,64,8
1,36,64,8
1,35,64,8
1,33,64,8
1,36,64,8
1,36,64,8
1,35,64,8
1,33,64,8
1,36,64,8
1,38,64,8
1,38,64,10
1,38,64,10
1,38,64,10
1,40,64,111
1,40,64,8
1,40,64,8
1,36,64,8
1,35,64,8
1,36,64,8
1,38,64,8
1,38,64,8
1,38,64,8
1,38,64,8
1,38,64,8
1,42,64,8
1,42,64,8
1,43,64,8
1,38,64,8
1,35,64,8
1,36,64,8
1,35,64,8
1,36,64,8
1,38,64,8
1,38,64,8
1,38,64,8
1,38,64,8
1,38,64,8
1,38,64,8
1,40,64,8
1,40,64,8
1,40,64,8
1,36,64,8
1,35,64,8
1,36,64,8
1,38,64,8
1,38,64,8
1,38,64,8
1,38,64,8
1,38,64,8
1,42,64,8
1,42,64,8
1,43,64,8
1,38,64,8
1,35,64,8
1,36,64,8
1,35,64,8
1,36,64,8
1,38,64,8
1,38,64,8
1,38,64,8
1,38,64,8
1,38,64,8
1,40,64,0
1,40,64,8
1,35,64,8
1,38,64,8
1,40,64,8
1,40,64,8
1,35,64,8
1,38,64,8
1,40,64,8
1,40,64,8
1,35,64,8
1,38,64,8
1,40,64,8
1,40,64,8
1,35,64,8
1,38,64,8
1,40,64,0
1,40,64,15
1,40,64,15
1,40,64,15
1,40,64,15
1,40,64,8
1,35,64,8
1,38,64,8
1,40,64,8
1,40,64,8
1,35,64,8
1,38,64,8
1,40,64,8
1,40,64,15
1,40,64,15
1,40,64,8
1,35,64,8
1,38,64,8
1,40,64,8
1,40,64,15
1,40,64,15
1,40,64,8
1,35,64,8
1,38,64,8
1,40,64,8
1,40,64,8
1,35,64,8
1,38,64,8
1,40,64,8
1,40,64,8
1,35,64,8
1,38,64,8
1,40,64,8
1,40,64,8
1,35,64,8
1,38,64,8
1,40,64,8
1,40,64,8
1,35,64,8
1,38,64,8
1,40,64,8
1,40,64,8
1,35,64,8
1,38,64,8
1,40,64,8
1,40,64,8
1,35,64,8
1,38,64,8
1,40,64,8
1,40,64,8
1,35,64,8
1,38,64,8
1,40,64,8
1,40,64,8
1,43,64,8
1,42,64,8
1,40,64,8
1,40,64,15
1,40,64,15
1,40,64,15
1,40,64,15
1,40,64,15
1,40,64,15
1,40,64,8
1,35,64,8
1,38,64,8
1,40,64,8
1,40,64,15
1,40,64,15
1,40,64,8
1,35,64,8
1,38,64,8
1,40,64,8
1,40,64,15
1,40,64,15
1,40,64,8
1,35,64,8
1,38,64,8
1,40,64,8
1,40,64,8
1,35,64,8
1,38,64,8
1,40,64,8
1,40,64,8
1,35,64,8
1,38,64,8
1,40,64,8
1,40,64,8
1,35,64,8
1,38,64,8
1,40,64,8
1,40,64,8
1,35,64,8
1,38,64,8
1,40,64,8
1,40,64,8
1,35,64,8
1,38,64,8
1,40,64,8
1,40,64,8
1,35,64,8
1,38,64,8
1,40,64,8
1,40,64,8
1,35,64,8
1,38,64,8
1,40,64,8
1,40,64,8
1,43,64,8
1,42,64,8
1,36,64,8
1,36,64,8
1,36,64,8
1,38,64,8
1,38,64,8
1,38,64,8
1,38,64,8
1,38,64,8
1,38,64,8
1,38,64,8
1,38,64,8
1,38,64,8
1,40,64,8
1,40,64,8
1,40,64,8
1,40,64,8
1,36,64,8
1,36,64,8
1,36,64,8
1,38,64,8
1,38,64,8
1,38,64,8
1,38,64,8
1,38,64,8
1,38,64,8
1,38,64,8
1,38,64,8
1,38,64,8
1,40,64,8
1,40,64,8
1,40,64,8
1,40,64,8
1,36,64,8
1,36,64,8
1,36,64,8
1,38,64,8
1,38,64,8
1,38,64,8
1,38,64,8
1,38,64,8
1,38,64,8
1,38,64,8
1,38,64,8
1,38,64,8
1,40,64,8
1,40,64,8
1,40,64,8
1,40,64,8
1,36,64,8
1,35,64,8
1,33,64,8
1,36,64,8
1,36,64,8
1,35,64,8
1,33,64,8
1,36,64,8
1,38,64,8
1,38,64,10
1,38,64,10
1,38,64,10
1,40,64,111
1,40,64,8
1,40,64,8
1,36,64,8
1,35,64,8
1,36,64,8
1,38,64,8
1,38,64,8
1,38,64,8
1,38,64,8
1,38,64,8
1,42,64,8
1,42,64,8
1,43,64,8
1,38,64,8
1,35,64,8
1,36,64,8
1,35,64,8
1,36,64,8
1,38,64,8
1,38,64,8
1,38,64,8
1,38,64,8
1,38,64,8
1,38,64,8
1,40,64,8
1,40,64,8
1,40,64,8
1,36,64,8
1,35,64,8
1,36,64,8
1,38,64,8
1,38,64,8
1,38,64,8
1,38,64,8
1,38,64,8
1,42,64,8
1,42,64,8
1,43,64,8
1,38,64,8
1,35,64,8
1,36,64,8
1,35,64,8
1,36,64,8
1,38,64,8
1,38,64,8
1,38,64,8
1,38,64,8
1,38,64,8
1,36,66,0
1,43,78,8
1,48,74,7
1,40,64,192
1,40,64,8
1,40,64,8
1,36,64,8
1,35,64,8
1,36,64,8
1,38,64,8
1,38,64,8
1,38,64,8
1,38,64,8
1,38,64,8
1,42,64,8
1,42,64,8
1,43,64,8
1,38,64,8
1,35,64,8
1,36,64,8
1,35,64,8
1,36,64,8
1,38,64,8
1,38,64,8
1,38,64,8
1,38,64,8
1,38,64,8
1,38,64,8
1,40,64,8
1,40,64,8
1,40,64,8
1,36,64,8
1,35,64,8
1,36,64,8
1,38,64,8
1,38,64,8
1,38,64,8
1,38,64,8
1,38,64,8
1,42,64,8
1,42,64,8
1,43,64,8
1,38,64,8
1,35,64,8
1,36,64,8
1,35,64,8
1,36,64,8
1,38,64,8
1,38,64,8
1,40,64,0
1,40,64,8
1,43,64,8
1,42,64,8
1,36,64,8
1,36,64,8
1,36,64,8
1,38,64,8
1,38,64,8
1,38,64,8
1,38,64,8
1,38,64,8
1,38,64,8
1,38,64,8
1,38,64,8
1,38,64,8
1,40,64,8
1,40,64,8
1,38,64,8
1,38,64,8
1,36,64,8
1,36,64,8
1,36,64,8
1,38,64,29
1,38,64,10
1,38,64,10
1,38,64,10
1,43,64,0
1,43,64,8
1,43,64,8
1,39,64,8
1,38,64,8
1,39,64,8
1,41,64,8
1,41,64,8
1,41,64,8
1,41,64,8
1,41,64,8
1,45,64,8
1,45,64,8
1,46,64,8
1,41,64,8
1,38,64,8
1,39,64,8
1,38,64,8
1,39,64,8
1,41,64,8
1,41,64,8
1,41,64,8
1,41,64,8
1,41,64,8
1,41,64,8
1,43,64,8
1,43,64,8
1,43,64,8
1,39,64,8
1,38,64,8
1,39,64,8
1,41,64,8
1,41,64,8
1,41,64,8
1,41,64,8
1,41,64,8
1,45,64,8
1,45,64,8
1,46,64,8
1,41,64,8
1,38,64,8
1,39,64,8
1,38,64,8
1,39,64,8
1,41,64,8
1,41,64,8
1,41,64,8
1,41,64,8
1,41,64,8
2,79,102,0
2,79,92,14
2,78,92,7
2,76,96,15
2,76,96,23
2,74,102,7
2,76,102,8
2,76,108,21
2,74,96,3
2,71,96,1
2,79,96,189
2,79,88,10
2,78,88,2
2,76,92,13
2,76,96,27
2,78,96,28
2,79,102,9
2,78,96,10
2,76,96,18
2,76,96,10
2,71,92,6
2,69,96,7
2,67,78,1
2,71,102,285
2,69,108,12
2,71,108,7
2,79,96,587
2,79,74,4
2,78,92,6
2,76,96,0
2,76,102,19
2,74,108,2
2,76,102,3
2,76,102,25
2,74,108,5
2,71,96,1
2,79,102,172
2,79,96,11
2,78,88,20
2,76,96,10
2,76,102,26
2,78,96,41
2,79,92,12
2,78,102,7
2,76,96,17
2,76,108,16
2,71,102,10
2,69,96,15
2,67,92,28
2,64,92,67
2,71,108,261
2,69,108,6
2,71,96,55
2,71,108,317
2,71,88,8
2,74,88,12
2,74,96,19
2,74,88,9
2,76,108,20
2,76,96,0
2,74,96,4
2,74,102,24
2,71,102,22
2,74,108,23
2,76,108,1
2,71,108,22
2,76,102,35
2,76,102,17
2,76,96,13
2,76,92,20
2,76,96,17
2,74,108,14
2,74,88,21
2,74,96,21
2,71,108,7
2,74,108,20
2,74,96,15
2,76,108,9
2,76,96,48
2,76,102,23
2,76,108,19
2,76,92,16
2,74,108,28
2,71,108,9
2,71,96,48
2,74,114,23
2,76,102,67
2,71,108,15
2,69,108,38
2,67,92,16
2,79,102,44
2,79,108,22
2,78,102,9
2,76,102,14
2,76,108,25
2,79,96,95
2,79,96,51
2,79,108,24
2,78,96,4
2,76,108,9
2,74,108,3
2,83,102,47
2,84,102,2
2,84,108,38
2,84,102,15
2,83,102,10
2,79,108,1
2,79,108,26
2,81,108,19
2,79,108,46
2,77,108,2
2,79,96,10
2,81,96,40
2,79,102,5
2,79,102,23
2,79,102,19
2,79,102,13
2,78,96,27
2,76,108,7
2,74,108,1
2,83,114,52
2,84,108,1
2,84,102,49
2,84,92,17
2,83,108,8
2,79,108,2
2,79,108,23
2,81,108,1
2,76,102,5
2,79,102,0
2,79,92,14
2,78,92,7
2,76,96,15
2,76,96,23
2,74,102,7
2,76,102,8
2,76,108,21
2,74,96,3
2,71,96,1
2,79,96,189
2,79,88,10
2,78,88,2
2,76,92,13
2,76,96,27
2,78,96,28
2,79,102,9
2,78,96,10
2,76,96,18
2,76,96,10
2,71,92,6
2,69,96,7
2,67,78,1
2,71,102,285
2,69,108,12
2,71,108,7
2,79,96,587
2,79,74,4
2,78,92,6
2,76,96,0
2,76,102,19
2,74,108,2
2,76,102,3
2,76,102,25
2,74,108,5
2,71,96,1
2,79,102,172
2,79,96,11
2,78,88,20
2,76,96,10
2,76,102,26
2,78,96,41
2,79,92,12
2,78,102,7
2,76,96,17
2,76,108,16
2,71,102,10
2,69,96,15
2,67,92,28
2,64,92,67
2,71,108,261
2,69,108,6
2,71,96,55
2,71,108,317
2,71,88,8
2,74,88,12
2,74,96,19
2,74,88,9
2,76,108,20
2,76,96,0
2,74,96,4
2,74,102,24
2,71,102,22
2,74,108,23
2,76,108,1
2,71,108,22
2,76,102,35
2,76,102,17
2,76,96,13
2,76,92,20
2,76,96,17
2,74,108,14
2,74,88,21
2,74,96,21
2,71,108,7
2,74,108,20
2,74,96,15
2,76,108,9
2,76,96,48
2,76,102,23
2,76,108,19
2,76,92,16
2,74,108,28
2,71,108,9
2,71,96,48
2,74,114,23
2,76,102,67
2,71,108,15
2,69,108,38
2,67,92,16
2,79,102,44
2,79,108,22
2,78,102,9
2,76,102,14
2,76,108,25
2,79,96,95
2,79,96,51
2,79,108,24
2,78,96,4
2,76,108,9
2,74,108,3
2,83,102,47
2,84,102,2
2,84,108,38
2,84,102,15
2,83,102,10
2,79,108,1
2,79,108,26
2,81,108,19
2,79,108,46
2,77,108,2
2,79,96,10
2,81,96,40
2,79,102,5
2,79,102,23
2,79,102,19
2,79,102,13
2,78,96,27
2,76,108,7
2,74,108,1
2,83,114,52
2,84,108,1
2,84,102,49
2,84,92,17
2,83,108,8
2,79,108,2
2,79,108,23
2,81,108,1
2,76,102,5
2,84,96,0
2,79,108,0
2,76,92,1
2,84,88,14
2,79,102,0
2,76,88,1
2,79,108,24
2,84,108,0
2,76,96,1
2,79,108,11
2,84,102,1
2,76,96,0
2,83,114,26
2,79,108,0
2,74,102,0
2,81,74,4
2,74,70,27
2,79,102,1
2,79,74,35
2,79,88,29
2,76,92,20
2,81,102,22
2,79,88,1
2,79,96,12
2,76,102,74
2,76,92,8
2,74,102,1
2,76,108,25
2,79,102,67
2,79,102,17
2,79,92,25
2,76,92,22
2,79,102,25
2,76,96,22
2,79,96,2
