track,note,velocity,time
1,36,38,1136
1,59,75,0
1,64,78,0
1,66,64,0
1,38,36,0
1,40,35,4
1,36,41,4
1,38,38,4
1,52,34,4
1,48,47,4
1,50,57,4
1,52,49,0
1,48,53,4
1,60,82,4
1,72,64,0
1,76,83,0
1,62,81,0
1,74,69,0
1,78,78,0
1,50,57,0
1,81,64,768
1,64,84,0
1,79,64,0
1,83,75,0
1,52,49,0
1,69,72,1152
1,71,82,4
1,60,70,4
1,72,78,0
1,76,81,0
1,48,47,0
1,62,76,0
1,74,77,0
1,78,84,0
1,50,64,4
1,81,78,764
1,64,76,0
1,79,66,0
1,83,74,0
1,52,56,4
1,76,84,0
1,79,74,0
1,76,85,4
1,78,89,0
1,76,87,4
1,79,89,0
1,76,81,4
1,78,86,0
1,72,82,4
1,76,74,0
1,79,78,0
1,74,81,4
1,78,87,0
1,76,90,4
1,79,90,0
1,78,78,4
1,76,74,4
1,79,88,0
1,76,85,4
1,78,76,0
1,76,78,4
1,79,77,0
1,76,76,4
1,78,80,0
1,72,90,4
1,76,76,0
1,79,84,0
1,74,87,4
1,78,74,0
1,76,78,4
1,79,87,0
1,78,87,4
1,67,90,0
1,79,86,0
1,67,89,296
1,79,77,0
1,67,87,268
1,79,74,0
1,67,84,280
1,79,79,0
1,67,88,280
1,79,79,0
1,67,77,276
1,79,74,0
1,67,78,260
1,79,77,0
1,67,80,276
1,79,86,0
1,67,80,260
1,79,86,0
1,67,79,296
1,79,76,0
1,67,77,268
1,79,82,0
1,67,87,280
1,79,85,0
1,67,78,280
1,79,84,0
1,67,74,276
1,79,76,0
1,67,81,260
1,79,85,0
1,67,85,276
1,79,90,0
1,67,78,260
1,79,87,0
1,67,90,276
1,79,89,0
1,67,84,260
1,79,82,0
1,67,85,276
1,79,79,0
1,67,75,260
1,79,90,0
1,67,74,276
1,79,75,0
1,64,84,260
1,76,86,0
1,62,85,276
1,74,82,0
1,60,83,260
1,67,90,0
1,72,88,0
1,74,82,4
1,81,74,0
1,86,76,0
1,74,79,168
1,81,79,0
1,86,80,0
1,74,81,168
1,81,78,0
1,86,88,0
1,74,86,168
1,81,81,0
1,86,80,0
1,67,81,680
1,71,80,0
1,76,77,0
1,67,90,4
1,72,89,0
1,76,80,0
1,62,80,32
1,69,84,0
1,74,85,0
1,66,77,16
1,69,74,0
1,74,85,0
1,67,82,0
1,71,87,0
1,74,86,0
1,67,88,4
1,72,86,0
1,76,84,0
1,62,83,4
1,69,78,0
1,74,77,0
1,66,86,4
1,69,77,0
1,74,85,0
1,67,79,4
1,71,81,0
1,76,85,0
1,67,80,4
1,72,89,0
1,76,88,0
1,62,83,32
1,69,91,0
1,74,79,0
1,66,80,16
1,69,74,0
1,74,87,0
1,67,80,0
1,71,91,0
1,74,84,0
1,67,82,4
1,72,80,0
1,76,76,0
1,62,80,4
1,69,78,0
1,74,78,0
1,66,88,4
1,69,74,0
1,74,88,0
1,64,78,4
1,71,83,0
1,67,83,2304
1,76,83,4
1,79,79,0
1,76,78,4
1,78,84,0
1,76,90,4
1,79,86,0
1,76,80,4
1,78,78,0
1,72,80,4
1,76,80,0
1,79,88,0
1,74,75,4
1,78,82,0
1,76,83,4
1,79,78,0
1,78,77,4
1,76,82,4
1,79,76,0
1,76,82,4
1,78,77,0
1,76,76,4
1,79,82,0
1,76,74,4
1,78,77,0
1,72,85,4
1,76,80,0
1,79,88,0
1,74,86,4
1,78,87,0
1,76,77,4
1,79,80,0
1,78,90,4
1,67,85,0
1,79,88,0
1,67,85,296
1,79,80,0
1,67,75,268
1,79,83,0
1,67,76,280
1,79,77,0
1,67,78,280
1,79,77,0
1,67,87,276
1,79,90,0
1,67,88,260
1,79,77,0
1,67,74,276
1,79,86,0
1,67,75,260
1,79,79,0
1,67,88,296
1,79,77,0
1,67,86,268
1,79,90,0
1,67,86,280
1,79,79,0
1,67,74,280
1,79,89,0
1,67,85,276
1,79,87,0
1,67,84,260
1,79,83,0
1,67,75,276
1,79,85,0
1,67,86,260
1,79,85,0
1,67,90,276
1,79,83,0
1,67,76,260
1,79,86,0
1,67,87,276
1,79,83,0
1,67,91,260
1,79,81,0
1,67,83,276
1,79,77,0
1,64,75,260
1,76,77,0
1,62,85,276
1,74,85,0
1,60,83,260
1,67,89,0
1,72,75,0
1,74,83,4
1,81,77,0
1,86,87,0
1,74,79,168
1,81,88,0
1,86,77,0
1,74,87,168
1,81,80,0
1,86,78,0
1,74,78,168
1,81,77,0
1,86,85,0
1,67,87,680
1,71,84,0
1,76,89,0
1,67,76,4
1,72,75,0
1,76,74,0
1,62,78,32
1,69,80,0
1,74,78,0
1,66,84,16
1,69,74,0
1,74,77,0
1,67,88,0
1,71,77,0
1,74,84,0
1,67,76,4
1,72,74,0
1,76,89,0
1,62,87,4
1,69,77,0
1,74,78,0
1,66,83,4
1,69,74,0
1,74,88,0
1,67,86,4
1,71,78,0
1,76,75,0
1,67,90,4
1,72,75,0
1,76,87,0
1,62,78,32
1,69,75,0
1,74,79,0
1,66,80,16
1,69,83,0
1,74,77,0
1,67,74,0
1,71,87,0
1,74,76,0
1,67,87,4
1,72,80,0
1,76,76,0
1,62,90,4
1,69,86,0
1,74,88,0
1,66,76,4
1,69,79,0
1,74,83,0
1,64,85,4
1,67,76,0
1,67,75,4
1,67,81,4
1,71,80,0
1,76,71,0
1,67,65,4
1,72,76,0
1,76,77,0
1,67,73,4
1,69,82,0
1,74,80,0
1,66,67,4
1,69,84,0
1,74,77,0
1,67,80,4
1,71,81,0
1,74,65,0
1,67,75,4
1,72,73,0
1,76,75,0
1,67,69,4
1,69,71,0
1,74,66,0
1,66,82,4
1,69,78,0
1,74,69,0
1,67,76,4
1,71,78,0
1,76,84,0
1,72,64,4
1,76,69,0
1,79,75,0
1,74,66,4
1,79,80,0
1,81,83,0
1,74,70,4
1,78,80,0
1,81,71,0
1,74,84,4
1,79,75,0
1,83,64,0
1,76,82,4
1,79,69,0
1,84,68,0
1,76,74,4
1,83,66,0
1,67,105,4
1,79,105,0
1,67,105,296
1,79,105,0
1,67,105,268
1,79,105,0
1,67,105,280
1,79,105,0
1,67,105,280
1,79,105,0
1,67,105,276
1,79,105,0
1,64,105,260
1,76,105,0
1,62,105,268
1,74,105,0
1,60,105,288
1,72,105,0
1,62,105,4
1,74,105,0
1,62,105,128
1,74,105,0
1,62,105,120
1,74,105,0
1,62,105,128
1,74,105,0
1,67,64,16
1,70,78,0
1,74,69,0
1,67,69,4
1,70,69,0
1,75,65,0
1,65,82,4
1,70,65,0
1,72,68,0
1,65,77,4
1,69,73,0
1,72,78,0
1,65,80,4
1,70,77,0
1,74,77,0
1,67,83,4
1,70,68,0
1,75,71,0
1,65,74,4
1,70,84,0
1,72,72,0
1,65,86,4
1,69,75,0
1,72,74,0
1,67,80,4
1,70,71,0
1,74,64,0
1,67,84,4
1,70,65,0
1,75,65,0
1,65,72,4
1,70,73,0
1,72,78,0
1,65,73,4
1,69,80,0
1,72,82,0
1,65,73,4
1,70,72,0
1,74,82,0
1,67,77,4
1,70,78,0
1,75,73,0
1,65,77,4
1,70,64,0
1,72,69,0
1,65,74,4
1,69,76,0
1,72,74,0
1,67,74,4
1,70,64,0
1,74,68,0
1,67,84,4
1,70,69,0
1,75,65,0
1,65,77,4
1,70,74,0
1,72,83,0
1,65,64,4
1,69,71,0
1,72,74,0
1,65,69,4
1,70,82,0
1,74,77,0
1,67,78,4
1,70,78,0
1,75,65,0
1,65,86,4
1,70,70,0
1,72,84,0
1,65,78,4
1,69,68,0
1,72,65,0
1,67,75,4
1,70,64,0
1,74,67,0
1,67,68,4
1,70,67,0
1,75,68,0
1,65,67,4
1,70,72,0
1,72,68,0
1,65,76,4
1,69,71,0
1,72,82,0
1,65,75,4
1,70,68,0
1,74,69,0
1,67,72,4
1,70,73,0
1,75,75,0
1,65,65,4
1,70,66,0
1,72,82,0
1,65,74,4
1,69,69,0
1,72,81,0
1,67,74,4
1,70,64,0
1,74,68,0
1,67,84,4
1,70,69,0
1,75,65,0
1,65,77,4
1,70,74,0
1,72,83,0
1,65,64,4
1,69,71,0
1,72,74,0
1,65,69,4
1,70,82,0
1,74,77,0
1,67,78,4
1,70,78,0
1,75,65,0
1,65,86,4
1,70,70,0
1,72,84,0
1,65,78,4
1,69,68,0
1,72,65,0
1,67,75,4
1,70,64,0
1,74,67,0
1,67,68,4
1,70,67,0
1,75,68,0
1,65,67,4
1,70,72,0
1,72,68,0
1,65,76,4
1,69,71,0
1,72,82,0
1,65,75,4
1,70,68,0
1,74,69,0
1,67,72,4
1,70,73,0
1,75,75,0
1,65,65,4
1,70,66,0
1,72,82,0
1,65,74,4
1,69,69,0
1,72,81,0
1,70,78,4
1,58,78,0
2,38,71,2648
2,40,71,52
2,36,71,16
2,38,71,40
2,28,104,64
2,40,99,4
2,35,110,4
2,38,93,4
2,28,112,4
2,28,112,108
2,35,108,12
2,38,85,4
2,28,110,8
2,40,104,0
2,35,88,8
2,38,109,0
2,28,112,4
2,28,105,112
2,35,109,4
2,38,104,0
2,28,104,4
2,40,99,0
2,35,110,0
2,38,93,0
2,28,112,4
2,28,112,104
2,35,108,0
2,38,85,4
2,28,110,12
2,40,104,0
2,35,88,0
2,38,109,0
2,28,112,4
2,28,105,112
2,35,109,8
2,38,104,0
2,28,104,8
2,40,99,0
2,35,110,0
2,38,93,8
2,28,112,0
2,28,112,104
2,35,108,4
2,38,85,8
2,28,110,0
2,40,104,4
2,35,88,8
2,38,109,4
2,28,112,0
2,28,105,124
2,35,109,0
2,38,104,0
2,28,104,0
2,40,99,4
2,35,110,4
2,38,93,4
2,28,112,4
2,28,112,116
2,35,108,4
2,38,85,4
2,28,110,4
2,40,104,0
2,35,88,0
2,38,109,8
2,28,112,8
2,28,105,104
2,35,109,12
2,38,104,4
2,28,105,12
2,40,105,4
2,35,105,0
2,38,105,0
2,28,105,4
2,28,105,100
2,35,105,4
2,38,105,4
2,28,105,8
2,40,105,4
2,35,105,4
2,38,105,0
2,28,105,0
2,28,105,116
2,35,105,8
2,38,105,0
2,28,105,0
2,40,105,0
2,35,105,12
2,38,105,0
2,28,105,4
2,28,105,116
2,35,105,0
2,38,105,0
2,28,105,8
2,40,105,8
2,35,105,4
2,38,105,8
2,28,105,4
2,28,105,112
2,35,105,4
2,38,105,12
2,28,105,4
2,40,105,0
2,35,105,12
2,38,105,0
2,28,105,4
2,28,105,104
2,35,105,4
2,38,105,4
2,28,105,4
2,40,105,0
2,35,105,4
2,38,105,8
2,28,105,4
2,28,105,100
2,35,105,0
2,38,105,8
2,28,105,4
2,40,105,0
2,35,105,0
2,38,105,4
2,28,105,8
2,28,105,112
2,35,105,0
2,38,105,0
2,28,105,4
2,40,105,0
2,35,105,0
2,38,105,0
2,28,105,8
2,28,105,112
2,35,105,4
2,38,105,8
2,28,105,4
2,40,105,8
2,35,105,0
2,38,105,8
2,28,105,8
2,28,105,112
2,35,105,0
2,38,105,4
2,28,105,8
2,40,105,0
2,35,105,0
2,38,105,12
2,28,105,0
2,28,105,116
2,35,105,8
2,38,105,0
2,28,105,4
2,40,105,4
2,35,105,4
2,38,105,8
2,28,105,0
2,28,105,116
2,35,105,4
2,38,105,0
2,28,105,8
2,40,105,4
2,35,105,8
2,38,105,4
2,28,105,0
2,28,105,104
2,35,105,4
2,38,105,12
2,28,105,4
2,40,105,4
2,35,105,4
2,38,105,4
2,28,105,4
2,28,105,108
2,35,105,0
2,38,105,4
2,28,105,8
2,40,105,0
2,35,105,12
2,38,105,0
2,28,105,4
2,28,105,120
2,35,105,4
2,38,105,0
2,28,105,4
2,40,105,8
2,35,105,0
2,38,105,4
2,28,105,0
2,28,105,112
2,35,105,8
2,38,105,4
2,28,105,4
2,40,105,4
2,35,105,0
2,38,105,8
2,28,105,4
2,28,105,112
2,35,105,4
2,38,105,4
2,28,105,4
2,40,105,4
2,35,105,4
2,38,105,4
2,28,105,0
2,28,105,112
2,35,105,12
2,38,105,0
2,28,105,0
2,40,105,4
2,35,105,4
2,38,105,0
2,28,105,4
2,28,105,120
2,35,105,0
2,38,105,8
2,28,105,4
2,40,105,8
2,35,105,0
2,38,105,8
2,28,105,4
2,28,105,116
2,35,105,4
2,38,105,4
2,28,105,0
2,40,105,4
2,35,105,12
2,38,105,4
2,28,105,12
2,28,105,104
2,35,105,8
2,38,105,4
2,28,105,4
2,40,105,8
2,35,105,8
2,38,105,0
2,28,105,4
2,28,105,104
2,35,105,4
2,38,105,8
2,28,105,0
2,40,105,4
2,35,105,8
2,38,105,0
2,28,105,0
2,28,105,116
2,35,105,12
2,38,105,0
2,28,105,8
2,40,105,4
2,35,105,0
2,38,105,0
2,28,105,8
2,28,105,116
2,35,105,4
2,38,105,8
2,28,105,4
2,40,105,0
2,35,105,4
2,38,105,0
2,28,105,8
2,28,105,116
2,35,105,0
2,38,105,4
2,36,105,8
2,36,105,120
2,36,105,128
2,38,105,100
2,38,105,132
2,38,105,96
2,38,105,132
2,38,105,140
2,38,105,132
2,38,105,120
2,38,105,108
2,38,105,128
2,40,105,116
2,40,105,104
2,40,105,92
2,36,105,0
2,36,105,128
2,36,105,124
2,38,105,100
2,38,105,136
2,38,105,100
2,38,105,128
2,38,105,136
2,38,105,128
2,38,105,112
2,38,105,120
2,38,105,128
2,40,105,120
2,40,105,108
2,40,105,80
2,36,105,52
2,36,105,132
2,36,105,116
2,38,105,104
2,38,105,132
2,38,105,104
2,38,105,116
2,38,105,140
2,38,105,140
2,38,105,116
2,38,105,108
2,38,105,124
2,40,105,116
2,40,105,112
2,38,105,84
2,36,105,0
2,31,105,8
2,33,105,8
2,36,105,0
2,31,105,32
2,33,105,8
2,36,105,4
2,38,112,100
2,38,112,196
2,38,112,136
2,38,112,120
2,38,112,268
2,28,105,48
2,30,105,0
2,31,105,4
2,36,105,0
2,35,105,16
2,36,105,0
2,36,105,104
2,38,105,124
2,38,105,104
2,38,105,132
2,38,105,128
2,40,105,112
2,40,105,112
2,42,105,156
2,42,105,124
2,43,105,120
2,38,105,8
2,35,105,16
2,36,105,16
2,35,105,76
2,36,105,16
2,38,105,0
2,38,105,16
2,38,105,128
2,38,105,136
2,38,105,148
2,38,105,140
2,28,105,88
2,31,105,4
2,30,105,0
2,28,105,0
2,30,105,28
2,31,105,0
2,36,105,4
2,35,105,24
2,36,105,16
2,36,105,132
2,38,105,120
2,38,105,136
2,38,105,124
2,38,105,124
2,38,105,144
2,38,105,128
2,40,105,76
2,42,105,4
2,43,105,16
2,38,105,28
2,35,105,0
2,36,105,4
2,35,105,20
2,36,105,4
2,36,105,80
2,38,105,0
2,38,105,112
2,38,105,120
2,38,105,132
2,38,105,116
2,38,105,116
2,38,105,140
2,38,105,132
2,28,105,124
2,40,105,0
2,35,105,0
2,38,105,0
2,28,105,8
2,28,105,108
2,35,105,0
2,38,105,0
2,28,105,12
2,40,105,0
2,35,105,4
2,38,105,8
2,28,105,0
2,28,105,120
2,35,105,0
2,38,105,8
2,28,105,0
2,40,105,4
2,35,105,4
2,38,105,4
2,28,105,0
2,28,105,116
2,35,105,4
2,38,105,0
2,28,105,0
2,40,105,8
2,35,105,4
2,38,105,4
2,28,105,8
2,28,105,104
2,35,105,4
2,38,105,8
2,28,105,0
2,40,105,4
2,35,105,0
2,38,105,8
2,28,105,0
2,28,105,112
2,35,105,8
2,38,105,0
2,28,105,4
2,40,105,0
2,35,105,4
2,38,105,4
2,28,105,8
2,28,105,108
2,35,105,12
2,38,105,0
2,28,105,4
2,40,105,8
2,35,105,4
2,38,105,0
2,28,105,0
2,28,105,116
2,35,105,4
2,38,105,0
2,28,105,4
2,40,105,0
2,35,105,12
2,38,105,4
2,28,105,0
2,28,105,104
2,35,105,0
2,38,105,8
2,28,105,4
2,40,105,4
2,35,105,0
2,38,105,12
2,28,105,0
2,28,105,108
2,35,105,8
2,38,105,0
2,28,105,8
2,40,105,0
2,35,105,0
