track,note,velocity,time
3,66,64,1420
3,64,78,0
3,59,75,0
3,36,38,0
3,38,36,0
3,40,35,4
3,36,41,4
3,38,38,4
3,52,34,6
3,48,47,6
3,50,57,4
3,52,49,0
3,48,53,4
3,60,82,6
3,72,64,0
3,76,83,0
3,50,57,0
3,62,81,0
3,74,69,0
3,78,78,0
3,81,64,960
3,52,49,0
3,83,75,0
3,79,64,0
3,64,84,0
3,69,72,1440
3,71,82,6
3,48,47,6
3,60,70,0
3,72,78,0
3,76,81,0
3,62,76,0
3,74,77,0
3,78,84,0
3,50,64,4
3,81,78,956
3,83,74,0
3,79,66,0
3,64,76,0
3,52,56,4
3,76,84,0
3,79,74,0
3,76,85,6
3,78,89,0
3,79,89,6
3,76,87,0
3,76,81,6
3,78,86,0
3,72,82,6
3,76,74,0
3,79,78,0
3,74,81,6
3,78,87,0
3,79,90,6
3,76,90,0
3,78,78,6
3,76,74,6
3,79,88,0
3,76,85,6
3,78,76,0
3,79,77,6
3,76,78,0
3,76,76,6
3,78,80,0
3,72,90,6
3,76,76,0
3,79,84,0
3,74,87,6
3,78,74,0
3,76,78,6
3,79,87,0
3,78,87,6
3,67,90,0
3,79,86,0
3,67,89,370
3,79,77,0
3,67,87,336
3,79,74,0
3,67,84,350
3,79,79,0
3,67,88,350
3,79,79,0
3,67,77,346
3,79,74,0
3,67,78,326
3,79,77,0
3,67,80,346
3,79,86,0
3,67,80,326
3,79,86,0
3,67,79,370
3,79,76,0
3,67,77,336
3,79,82,0
3,67,87,350
3,79,85,0
3,67,78,350
3,79,84,0
3,67,74,346
3,79,76,0
3,67,81,326
3,79,85,0
3,67,85,346
3,79,90,0
3,67,78,326
3,79,87,0
3,67,90,346
3,79,89,0
3,67,84,326
3,79,82,0
3,67,85,346
3,79,79,0
3,67,75,326
3,79,90,0
3,67,74,346
3,79,75,0
3,64,84,326
3,76,86,0
3,62,85,346
3,74,82,0
3,60,83,326
3,67,90,0
3,72,88,0
3,74,82,6
3,81,74,0
3,86,76,0
3,74,79,210
3,81,79,0
3,86,80,0
3,74,81,210
3,81,78,0
3,86,88,0
3,74,86,210
3,81,81,0
3,86,80,0
3,67,81,850
3,71,80,0
3,76,77,0
3,67,90,6
3,72,89,0
3,76,80,0
3,62,80,40
3,69,84,0
3,74,85,0
3,69,74,20
3,66,77,0
3,74,85,0
3,67,82,0
3,71,87,0
3,74,86,0
3,67,88,6
3,72,86,0
3,76,84,0
3,74,77,6
3,69,78,0
3,62,83,0
3,66,86,6
3,69,77,0
3,74,85,0
3,67,79,6
3,71,81,0
3,76,85,0
3,67,80,6
3,72,89,0
3,76,88,0
3,74,79,40
3,69,91,0
3,62,83,0
3,69,74,20
3,66,80,0
3,74,87,0
3,67,80,0
3,71,91,0
3,74,84,0
3,67,82,6
3,72,80,0
3,76,76,0
3,74,78,6
3,69,78,0
3,62,80,0
3,66,88,6
3,69,74,0
3,74,88,0
3,71,83,6
3,64,78,0
3,67,83,2880
3,76,83,6
3,79,79,0
3,76,78,6
3,78,84,0
3,79,86,6
3,76,90,0
3,76,80,6
3,78,78,0
3,72,80,6
3,76,80,0
3,79,88,0
3,74,75,6
3,78,82,0
3,79,78,6
3,76,83,0
3,78,77,6
3,76,82,6
3,79,76,0
3,76,82,6
3,78,77,0
3,79,82,6
3,76,76,0
3,76,74,6
3,78,77,0
3,72,85,6
3,76,80,0
3,79,88,0
3,74,86,6
3,78,87,0
3,76,77,6
3,79,80,0
3,78,90,6
3,67,85,0
3,79,88,0
3,67,85,370
3,79,80,0
3,67,75,336
3,79,83,0
3,67,76,350
3,79,77,0
3,67,78,350
3,79,77,0
3,67,87,346
3,79,90,0
3,67,88,326
3,79,77,0
3,67,74,346
3,79,86,0
3,67,75,326
3,79,79,0
3,67,88,370
3,79,77,0
3,67,86,336
3,79,90,0
3,67,86,350
3,79,79,0
3,67,74,350
3,79,89,0
3,67,85,346
3,79,87,0
3,67,84,326
3,79,83,0
3,67,75,346
3,79,85,0
3,67,86,326
3,79,85,0
3,67,90,346
3,79,83,0
3,67,76,326
3,79,86,0
3,67,87,346
3,79,83,0
3,67,91,326
3,79,81,0
3,67,83,346
3,79,77,0
3,64,75,326
3,76,77,0
3,62,85,346
3,74,85,0
3,60,83,326
3,67,89,0
3,72,75,0
3,74,83,6
3,81,77,0
3,86,87,0
3,74,79,210
3,81,88,0
3,86,77,0
3,74,87,210
3,81,80,0
3,86,78,0
3,74,78,210
3,81,77,0
3,86,85,0
3,67,87,850
3,71,84,0
3,76,89,0
3,67,76,6
3,72,75,0
3,76,74,0
3,62,78,40
3,69,80,0
3,74,78,0
3,69,74,20
3,66,84,0
3,74,77,0
3,67,88,0
3,71,77,0
3,74,84,0
3,67,76,6
3,72,74,0
3,76,89,0
3,74,78,6
3,69,77,0
3,62,87,0
3,66,83,6
3,69,74,0
3,74,88,0
3,67,86,6
3,71,78,0
3,76,75,0
3,67,90,6
3,72,75,0
3,76,87,0
3,74,79,40
3,69,75,0
3,62,78,0
3,69,83,20
3,66,80,0
3,74,77,0
3,67,74,0
3,71,87,0
3,74,76,0
3,67,87,6
3,72,80,0
3,76,76,0
3,74,88,6
3,69,86,0
3,62,90,0
3,66,76,6
3,69,79,0
3,74,83,0
3,67,76,6
3,64,85,0
3,67,75,6
3,67,81,6
3,71,80,0
3,76,71,0
3,67,65,6
3,72,76,0
3,76,77,0
3,74,80,6
3,69,82,0
3,67,73,0
3,66,67,6
3,69,84,0
3,74,77,0
3,67,80,6
3,71,81,0
3,74,65,0
3,67,75,6
3,72,73,0
3,76,75,0
3,74,66,6
3,69,71,0
3,67,69,0
3,66,82,6
3,69,78,0
3,74,69,0
3,67,76,6
3,71,78,0
3,76,84,0
3,72,64,6
3,76,69,0
3,79,75,0
3,81,83,6
3,79,80,0
3,74,66,0
3,74,70,6
3,78,80,0
3,81,71,0
3,74,84,6
3,79,75,0
3,83,64,0
3,76,82,6
3,79,69,0
3,84,68,0
3,83,66,6
3,76,74,0
3,67,105,6
3,79,105,0
3,67,105,370
3,79,105,0
3,67,105,336
3,79,105,0
3,67,105,350
3,79,105,0
3,67,105,350
3,79,105,0
3,67,105,346
3,79,105,0
3,64,105,326
3,76,105,0
3,62,105,336
3,74,105,0
3,60,105,360
3,72,105,0
3,62,105,6
3,74,105,0
3,62,105,160
3,74,105,0
3,62,105,150
3,74,105,0
3,62,105,160
3,74,105,0
3,67,64,20
3,70,78,0
3,74,69,0
3,67,69,6
3,70,69,0
3,75,65,0
3,72,68,6
3,70,65,0
3,65,82,0
3,65,77,6
3,69,73,0
3,72,78,0
3,65,80,6
3,70,77,0
3,74,77,0
3,67,83,6
3,70,68,0
3,75,71,0
3,72,72,6
3,70,84,0
3,65,74,0
3,65,86,6
3,69,75,0
3,72,74,0
3,67,80,6
3,70,71,0
3,74,64,0
3,67,84,6
3,70,65,0
3,75,65,0
3,72,78,6
3,70,73,0
3,65,72,0
3,65,73,6
3,69,80,0
3,72,82,0
3,65,73,6
3,70,72,0
3,74,82,0
3,67,77,6
3,70,78,0
3,75,73,0
3,72,69,6
3,70,64,0
3,65,77,0
3,65,74,6
3,69,76,0
3,72,74,0
3,67,74,6
3,70,64,0
3,74,68,0
3,67,84,6
3,70,69,0
3,75,65,0
3,72,83,6
3,70,74,0
3,65,77,0
3,65,64,6
3,69,71,0
3,72,74,0
3,65,69,6
3,70,82,0
3,74,77,0
3,67,78,6
3,70,78,0
3,75,65,0
3,72,84,6
3,70,70,0
3,65,86,0
3,65,78,6
3,69,68,0
3,72,65,0
3,67,75,6
3,70,64,0
3,74,67,0
3,67,68,6
3,70,67,0
3,75,68,0
3,72,68,6
3,70,72,0
3,65,67,0
3,65,76,6
3,69,71,0
3,72,82,0
3,65,75,6
3,70,68,0
3,74,69,0
3,67,72,6
3,70,73,0
3,75,75,0
3,72,82,6
3,70,66,0
3,65,65,0
3,65,74,6
3,69,69,0
3,72,81,0
3,67,74,6
3,70,64,0
3,74,68,0
3,67,84,6
3,70,69,0
3,75,65,0
3,72,83,6
3,70,74,0
3,65,77,0
3,65,64,6
3,69,71,0
3,72,74,0
3,65,69,6
3,70,82,0
3,74,77,0
3,67,78,6
3,70,78,0
3,75,65,0
3,72,84,6
3,70,70,0
3,65,86,0
3,65,78,6
3,69,68,0
3,72,65,0
3,67,75,6
3,70,64,0
3,74,67,0
3,67,68,6
3,70,67,0
3,75,68,0
3,72,68,6
3,70,72,0
3,65,67,0
3,65,76,6
3,69,71,0
3,72,82,0
3,65,75,6
3,70,68,0
3,74,69,0
3,67,72,6
3,70,73,0
3,75,75,0
3,72,82,6
3,70,66,0
3,65,65,0
3,65,74,6
3,69,69,0
3,72,81,0
3,70,78,6
3,58,78,0
4,38,71,3310
4,40,71,66
4,36,71,20
4,38,71,50
4,28,104,80
4,40,99,4
4,35,110,4
4,38,93,4
4,28,112,4
4,28,112,136
4,35,108,14
4,38,85,4
4,28,110,10
4,40,104,0
4,35,88,10
4,38,109,0
4,28,112,4
4,28,105,140
4,35,109,4
4,38,104,0
4,28,104,4
4,40,99,0
4,35,110,0
4,38,93,0
4,28,112,6
4,28,112,130
4,35,108,0
4,38,85,4
4,28,110,14
4,40,104,0
4,35,88,0
4,38,109,0
4,28,112,6
4,28,105,140
4,35,109,10
4,38,104,0
4,28,104,10
4,40,99,0
4,35,110,0
4,38,93,10
4,28,112,0
4,28,112,130
4,35,108,4
4,38,85,10
4,28,110,0
4,40,104,6
4,35,88,10
4,38,109,6
4,28,112,0
4,28,105,154
4,35,109,0
4,38,104,0
4,28,104,0
4,40,99,6
4,35,110,6
4,38,93,4
4,28,112,4
4,28,112,146
4,35,108,4
4,38,85,4
4,28,110,6
4,40,104,0
4,35,88,0
4,38,109,10
4,28,112,10
4,28,105,130
4,35,109,14
4,38,104,4
4,28,105,14
4,40,105,4
4,35,105,0
4,38,105,0
4,28,105,4
4,28,105,126
4,35,105,4
4,38,105,4
4,28,105,10
4,40,105,4
4,35,105,4
4,38,105,0
4,28,105,0
4,28,105,146
4,35,105,10
4,38,105,0
4,28,105,0
4,40,105,0
4,35,105,14
4,38,105,0
4,28,105,6
4,28,105,144
4,35,105,0
4,38,105,0
4,28,105,10
4,40,105,10
4,35,105,4
4,38,105,10
4,28,105,4
4,28,105,140
4,35,105,4
4,38,105,14
4,28,105,4
4,40,105,0
4,35,105,14
4,38,105,0
4,28,105,4
4,28,105,130
4,35,105,6
4,38,105,4
4,28,105,4
4,40,105,0
4,35,105,6
4,38,105,10
4,28,105,4
4,28,105,126
4,35,105,0
4,38,105,10
4,28,105,6
4,40,105,0
4,35,105,0
4,38,105,4
4,28,105,10
4,28,105,140
4,35,105,0
4,38,105,0
4,28,105,4
4,40,105,0
4,35,105,0
4,38,105,0
4,28,105,10
4,28,105,140
4,35,105,6
4,38,105,10
4,28,105,6
4,40,105,10
4,35,105,0
4,38,105,10
4,28,105,10
4,28,105,140
4,35,105,0
4,38,105,4
4,28,105,10
4,40,105,0
4,35,105,0
4,38,105,14
4,28,105,0
4,28,105,144
4,35,105,10
4,38,105,0
4,28,105,4
4,40,105,4
4,35,105,6
4,38,105,10
4,28,105,0
4,28,105,144
4,35,105,4
4,38,105,0
4,28,105,10
4,40,105,6
4,35,105,10
4,38,105,4
4,28,105,0
4,28,105,130
4,35,105,4
4,38,105,14
4,28,105,6
4,40,105,6
4,35,105,4
4,38,105,4
4,28,105,4
4,28,105,136
4,35,105,0
4,38,105,4
4,28,105,10
4,40,105,0
4,35,105,14
4,38,105,0
4,28,105,4
4,28,105,150
4,35,105,4
4,38,105,0
4,28,105,4
4,40,105,10
4,35,105,0
4,38,105,4
4,28,105,0
4,28,105,140
4,35,105,10
4,38,105,4
4,28,105,4
4,40,105,4
4,35,105,0
4,38,105,10
4,28,105,4
4,28,105,140
4,35,105,4
4,38,105,4
4,28,105,4
4,40,105,6
4,35,105,6
4,38,105,4
4,28,105,0
4,28,105,140
4,35,105,14
4,38,105,0
4,28,105,0
4,40,105,6
4,35,105,6
4,38,105,0
4,28,105,4
4,28,105,150
4,35,105,0
4,38,105,10
4,28,105,4
4,40,105,10
4,35,105,0
4,38,105,10
4,28,105,4
4,28,105,146
4,35,105,4
4,38,105,4
4,28,105,0
4,40,105,4
4,35,105,14
4,38,105,4
4,28,105,14
4,28,105,130
4,35,105,10
4,38,105,6
4,28,105,4
4,40,105,10
4,35,105,10
4,38,105,0
4,28,105,6
4,28,105,130
4,35,105,4
4,38,105,10
4,28,105,0
4,40,105,4
4,35,105,10
4,38,105,0
4,28,105,0
4,28,105,144
4,35,105,14
4,38,105,0
4,28,105,10
4,40,105,4
4,35,105,0
4,38,105,0
4,28,105,10
4,28,105,144
4,35,105,4
4,38,105,10
4,28,105,6
4,40,105,0
4,35,105,4
4,38,105,0
4,28,105,10
4,28,105,144
4,35,105,0
4,38,105,4
4,36,105,10
4,36,105,150
4,36,105,160
4,38,105,126
4,38,105,166
4,38,105,120
4,38,105,164
4,38,105,174
4,38,105,166
4,38,105,150
4,38,105,134
4,38,105,160
4,40,105,146
4,40,105,130
4,40,105,114
4,36,105,0
4,36,105,160
4,36,105,156
4,38,105,126
4,38,105,170
4,38,105,126
4,38,105,160
4,38,105,170
4,38,105,160
4,38,105,140
4,38,105,150
4,38,105,160
4,40,105,150
4,40,105,134
4,40,105,100
4,36,105,64
4,36,105,164
4,36,105,146
4,38,105,130
4,38,105,164
4,38,105,130
4,38,105,146
4,38,105,176
4,38,105,174
4,38,105,144
4,38,105,136
4,38,105,154
4,40,105,146
4,40,105,140
4,38,105,106
4,36,105,0
4,31,105,10
4,33,105,10
4,36,105,0
4,31,105,40
4,33,105,10
4,36,105,6
4,38,112,124
4,38,112,244
4,38,112,170
4,38,112,150
4,38,112,334
4,28,105,60
4,30,105,0
4,31,105,4
4,36,105,0
4,35,105,20
4,36,105,0
4,36,105,130
4,38,105,154
4,38,105,130
4,38,105,164
4,38,105,160
4,40,105,140
4,40,105,140
4,42,105,194
4,42,105,154
4,43,105,150
4,38,105,10
4,35,105,20
4,36,105,20
4,35,105,94
4,36,105,20
4,38,105,0
4,38,105,20
4,38,105,160
4,38,105,170
4,38,105,184
4,38,105,174
4,28,105,110
4,31,105,4
4,30,105,0
4,28,105,0
4,30,105,36
4,31,105,0
4,36,105,6
4,35,105,30
4,36,105,20
4,36,105,164
4,38,105,150
4,38,105,170
4,38,105,156
4,38,105,156
4,38,105,180
4,38,105,160
4,40,105,94
4,42,105,6
4,43,105,20
4,38,105,34
4,35,105,0
4,36,105,6
4,35,105,24
4,36,105,6
4,36,105,100
4,38,105,0
4,38,105,140
4,38,105,150
4,38,105,164
4,38,105,144
4,38,105,144
4,38,105,174
4,38,105,164
4,28,105,156
4,40,105,0
4,35,105,0
4,38,105,0
4,28,105,10
4,28,105,134
4,35,105,0
4,38,105,0
4,28,105,14
4,40,105,0
4,35,105,4
4,38,105,10
4,28,105,0
4,28,105,150
4,35,105,0
4,38,105,10
4,28,105,0
4,40,105,4
4,35,105,6
4,38,105,6
4,28,105,0
4,28,105,146
4,35,105,6
4,38,105,0
4,28,105,0
4,40,105,10
4,35,105,6
4,38,105,6
4,28,105,10
4,28,105,130
4,35,105,4
4,38,105,10
4,28,105,0
4,40,105,4
4,35,105,0
4,38,105,10
4,28,105,0
4,28,105,140
4,35,105,10
4,38,105,0
4,28,105,6
4,40,105,0
4,35,105,6
4,38,105,4
4,28,105,10
4,28,105,134
4,35,105,14
4,38,105,0
4,28,105,4
4,40,105,10
4,35,105,6
4,38,105,0
4,28,105,0
4,28,105,144
4,35,105,4
4,38,105,0
4,28,105,4
4,40,105,0
4,35,105,14
4,38,105,4
4,28,105,0
4,28,105,130
4,35,105,0
4,38,105,10
4,28,105,6
4,40,105,6
4,35,105,0
4,38,105,14
4,28,105,0
4,28,105,134
4,35,105,10
4,38,105,0
4,28,105,10
4,40,105,0
4,35,105,0
