track,note,velocity,time
0,40,120,38
0,59,86,0
0,59,108,0
0,64,90,2
0,40,0,20
0,40,84,26
0,40,0,38
0,40,70,10
0,40,0,16
0,64,0,8
0,59,0,2
0,59,0,10
0,40,84,12
0,59,86,0
0,59,108,0
0,64,80,2
0,40,0,36
0,40,114,10
0,40,0,26
0,40,74,22
0,64,0,8
0,59,0,6
0,40,0,16
0,59,0,10
0,40,88,8
0,59,80,0
0,61,98,0
0,64,90,2
0,40,0,14
0,40,96,32
0,40,0,30
0,40,52,18
0,40,0,16
0,40,88,8
0,40,0,8
0,40,92,10
0,40,0,2
0,40,80,8
0,40,0,2
0,40,120,10
0,40,0,8
0,40,70,2
0,61,0,10
0,40,0,2
0,40,80,6
0,56,112,0
0,64,0,6
0,40,0,2
0,59,0,0
0,40,80,34
0,40,0,28
0,40,120,20
0,59,80,0
0,64,72,2
0,40,0,6
0,40,74,6
0,40,0,2
0,40,58,4
0,40,0,12
0,56,0,8
0,59,0,4
0,40,74,6
0,56,104,0
0,59,90,0
0,64,0,0
0,64,94,2
0,40,0,8
0,40,114,6
0,40,0,8
0,40,80,22
0,40,0,6
0,64,0,12
0,59,0,2
0,40,92,8
0,52,114,0
0,59,80,0
0,64,94,2
0,40,0,12
0,56,0,8
0,40,88,26
0,40,0,24
0,40,84,72
0,52,0,10
0,40,0,18
0,59,0,0
0,64,0,0
0,40,92,20
0,56,108,0
0,59,94,0
0,64,94,2
0,40,0,14
0,40,88,2
0,40,0,10
0,56,0,2
0,59,0,11
0,40,120,1
0,56,90,0
0,59,94,0
0,59,0,1
0,64,0,0
0,64,90,1
0,64,0,1
0,40,0,2
0,40,102,10
0,40,0,26
0,43,120,14
0,52,114,0
0,59,108,0
0,64,94,2
0,56,0,10
0,43,0,18
0,64,0,2
0,59,0,6
0,52,0,2
0,40,102,8
0,40,0,30
0,40,120,18
0,59,86,0
0,59,108,0
0,64,90,2
0,40,0,20
0,40,84,26
0,40,0,38
0,40,70,10
0,40,0,16
0,64,0,8
0,59,0,2
0,59,0,10
0,40,84,12
0,59,86,0
0,59,108,0
0,64,80,2
0,40,0,36
0,40,114,10
0,40,0,26
0,40,74,22
0,64,0,8
0,59,0,6
0,40,0,16
0,59,0,10
0,40,88,8
0,59,80,0
0,61,98,0
0,64,90,2
0,40,0,14
0,40,96,32
0,40,0,30
0,40,52,18
0,40,0,16
0,40,88,8
0,40,0,8
0,40,92,10
0,40,0,2
0,40,80,8
0,40,0,2
0,40,120,10
0,40,0,8
0,40,70,2
0,61,0,10
0,40,0,2
0,40,80,6
0,56,94,0
0,64,0,6
0,40,0,2
0,59,0,0
0,56,0,24
0,40,80,10
0,56,90,0
0,40,0,28
0,56,0,10
0,40,114,10
0,55,108,0
0,59,80,0
0,64,72,2
0,40,0,2
0,40,96,10
0,40,0,70
0,55,0,20
0,59,0,0
0,40,96,6
0,56,108,0
0,59,90,0
0,64,0,0
0,64,94,2
0,40,0,12
0,40,114,2
0,40,0,2
0,40,74,14
0,40,0,30
0,64,0,8
0,59,0,2
0,56,0,4
0,40,96,4
0,52,102,0
0,59,80,0
0,64,94,2
0,40,0,12
0,40,96,34
0,40,0,40
0,40,74,8
0,40,0,28
0,40,108,20
0,59,0,28
0,64,0,0
0,40,0,6
0,52,0,0
0,43,114,4
0,55,94,0
0,59,94,0
0,64,94,2
0,43,0,18
0,40,102,16
0,40,0,36
0,55,0,6
0,59,0,1
0,43,120,1
0,56,90,0
0,59,94,0
0,59,0,1
0,64,0,0
0,64,90,1
0,64,0,1
0,43,0,4
0,40,96,6
0,40,0,36
0,40,96,12
0,52,108,0
0,59,108,0
0,64,94,2
0,56,0,6
0,40,0,8
0,64,0,16
0,59,0,6
0,40,102,10
0,52,0,2
0,40,0,24
0,40,120,22
0,59,86,0
0,59,108,0
0,64,90,2
0,40,0,20
0,40,84,26
0,40,0,38
0,40,70,10
0,40,0,16
0,64,0,8
0,59,0,2
0,59,0,10
0,40,84,12
0,59,86,0
0,59,108,0
0,64,80,2
0,40,0,36
0,40,114,10
0,40,0,26
0,40,74,22
0,64,0,8
0,59,0,6
0,40,0,16
0,59,0,10
0,40,88,8
0,59,80,0
0,61,98,0
0,64,90,2
0,40,0,14
0,40,96,32
0,40,0,30
0,40,52,18
0,40,0,16
0,40,88,8
0,40,0,8
0,40,92,10
0,40,0,2
0,40,80,8
0,40,0,2
0,40,120,10
0,40,0,8
0,40,70,2
0,61,0,10
0,40,0,2
0,40,80,6
0,56,112,0
0,64,0,6
0,40,0,2
0,59,0,0
0,40,80,34
0,40,0,28
0,40,120,20
0,59,80,0
0,64,72,2
0,40,0,6
0,40,74,6
0,40,0,2
0,40,58,4
0,40,0,12
0,56,0,8
0,59,0,4
0,40,74,6
0,56,104,0
0,59,90,0
0,64,0,0
0,64,94,2
0,40,0,8
0,40,114,6
0,40,0,8
0,40,80,22
0,40,0,6
0,64,0,12
0,59,0,2
0,40,92,8
0,52,114,0
0,59,80,0
0,64,94,2
0,40,0,12
0,56,0,8
0,40,88,26
0,40,0,24
0,40,84,72
0,52,0,10
0,40,0,18
0,59,0,0
0,64,0,0
0,40,92,20
0,56,108,0
0,59,94,0
0,64,94,2
0,40,0,14
0,40,88,2
0,40,0,10
0,56,0,2
0,59,0,11
0,40,120,1
0,56,90,0
0,59,94,0
0,59,0,1
0,64,0,0
0,64,90,1
0,64,0,1
0,40,0,2
0,40,102,10
0,40,0,26
0,43,120,14
0,52,114,0
0,59,108,0
0,64,94,2
0,56,0,10
0,43,0,18
0,64,0,2
0,59,0,6
0,52,0,2
0,40,102,8
0,40,0,30
0,40,120,18
0,59,86,0
0,59,108,0
0,64,90,2
0,40,0,20
0,40,84,26
0,40,0,38
0,40,70,10
0,40,0,16
0,64,0,8
0,59,0,2
0,59,0,10
0,40,84,12
0,59,86,0
0,59,108,0
0,64,80,2
0,40,0,36
0,40,114,10
0,40,0,26
0,40,74,22
0,64,0,8
0,59,0,6
0,40,0,16
0,59,0,10
0,40,88,8
0,59,80,0
0,61,102,0
0,64,90,2
0,40,0,14
0,40,96,32
0,40,0,30
0,40,52,8
0,40,0,10
0,40,88,4
0,40,0,4
0,40,92,6
0,40,0,2
0,40,80,8
0,40,0,2
0,40,120,8
0,40,0,8
0,40,70,2
0,40,0,10
0,61,0,2
0,40,80,2
0,56,120,0
0,64,0,6
0,40,0,2
0,59,0,0
0,56,0,28
0,40,80,6
0,56,108,0
0,40,0,28
0,56,0,14
0,40,120,6
0,56,108,0
0,59,90,0
0,64,86,2
0,40,0,26
0,40,70,20
0,40,0,8
0,40,70,8
0,40,0,8
0,59,0,8
0,64,0,2
0,56,0,2
0,40,114,4
0,56,94,0
0,59,94,0
0,64,94,2
0,40,0,6
0,40,92,6
0,40,0,10
0,40,108,22
0,64,0,12
0,59,0,2
0,40,0,14
0,56,0,4
0,59,90,8
0,64,90,2
0,40,120,6
0,52,114,0
0,40,0,126
0,35,104,8
0,43,101,0
0,43,0,4
0,59,0,2
0,52,0,6
0,64,0,0
0,35,0,14
0,28,110,6
0,40,114,0
0,40,114,0
0,47,114,0
0,59,96,0
0,59,108,0
0,35,115,0
0,49,56,0
0,47,126,2
0,35,0,2
0,49,0,0
0,46,48,92
0,46,0,4
0,47,0,24
0,47,0,8
0,59,0,0
0,59,0,0
0,40,0,2
0,28,0,9
0,31,104,1
0,40,0,0
0,43,120,0
0,43,114,0
0,50,114,0
0,59,96,0
0,59,108,0
0,50,114,2
0,40,111,46
0,46,51,0
0,40,0,4
0,46,0,0
0,50,0,60
0,50,0,8
0,43,0,14
0,43,0,2
0,59,0,0
0,59,0,0
0,31,0,7
0,33,104,1
0,45,108,0
0,45,114,0
0,52,108,0
0,61,98,0
0,35,110,0
0,46,67,0
0,52,108,2
0,61,86,0
0,35,0,2
0,46,0,0
0,46,60,92
0,46,0,4
0,35,110,10
0,46,67,0
0,35,0,0
0,46,0,0
0,40,111,0
0,46,55,0
0,40,0,4
0,46,0,0
0,33,0,2
0,61,0,0
0,61,0,2
0,33,98,20
0,56,100,0
0,56,112,0
0,40,71,0
0,40,0,4
0,40,105,44
0,40,0,4
0,45,0,16
0,45,0,0
0,52,0,2
0,33,0,2
0,52,0,2
0,35,104,22
0,47,108,0
0,47,108,0
0,54,114,0
0,35,98,0
0,46,65,0
0,57,69,0
0,52,108,2
0,54,114,2
0,35,0,0
0,46,0,0
0,57,0,0
0,35,97,4
0,46,64,0
0,35,0,4
0,46,0,0
0,56,0,10
0,54,0,4
0,47,0,4
0,47,0,4
0,35,0,4
0,52,0,0
0,54,0,0
0,56,0,0
0,43,114,10
0,50,120,0
0,56,92,0
0,43,114,0
0,56,104,0
0,31,110,0
0,50,114,2
0,40,114,6
0,46,67,0
0,40,0,4
0,46,0,0
0,50,0,10
0,50,0,6
0,43,0,4
0,43,0,2
0,31,0,20
0,28,110,2
0,40,102,0
0,40,98,0
0,47,114,0
0,52,102,0
0,52,114,0
0,35,107,0
0,46,69,0
0,47,120,2
0,35,0,2
0,46,0,0
0,56,0,18
0,56,0,0
0,46,34,74
0,46,0,4
0,52,0,54
0,52,0,0
0,56,96,38
0,56,108,0
0,35,99,0
0,46,65,0
0,35,0,4
0,46,0,0
0,56,0,2
0,56,0,0
0,56,78,12
0,56,90,0
0,40,97,0
0,46,62,0
0,40,0,4
0,46,0,0
0,40,88,0
0,40,0,4
0,28,0,32
0,40,98,8
0,52,102,0
0,52,114,0
0,40,126,0
0,46,67,0
0,40,0,4
0,46,0,0
0,56,0,8
0,56,0,0
0,40,0,16
0,52,0,12
0,52,0,0
0,40,0,6
0,47,0,0
0,28,98,2
0,40,118,0
0,40,0,4
0,47,0,2
0,28,0,10
0,40,0,2
0,28,98,30
0,40,108,0
0,40,102,0
0,47,120,0
0,59,96,0
0,59,108,0
0,35,116,0
0,49,57,0
0,47,114,2
0,35,0,2
0,49,0,0
0,46,49,92
0,46,0,4
0,47,0,18
0,40,0,12
0,47,0,0
0,59,0,2
0,59,0,0
0,28,0,11
0,31,110,1
0,40,0,0
0,43,120,0
0,43,114,0
0,50,120,0
0,59,96,0
0,59,108,0
0,50,108,2
0,40,112,46
0,46,51,0
0,40,0,4
0,46,0,0
0,50,0,60
0,50,0,10
0,31,0,8
0,59,0,6
0,59,0,0
0,43,0,2
0,43,0,0
0,33,98,6
0,45,120,0
0,45,114,0
0,52,114,0
0,61,98,0
0,35,111,0
0,46,68,0
0,52,108,2
0,61,86,0
0,35,0,2
0,46,0,0
0,46,61,92
0,46,0,4
0,35,111,10
0,46,67,0
0,35,0,0
0,46,0,0
0,40,112,0
0,46,56,0
0,40,0,4
0,46,0,0
0,33,0,6
0,61,0,0
0,61,0,2
0,33,98,20
0,56,82,0
0,56,94,0
0,40,72,0
0,40,0,4
0,56,0,34
0,56,0,0
0,56,78,10
0,56,90,0
0,40,106,0
0,40,0,4
0,45,0,34
0,56,0,0
0,56,0,0
0,52,0,8
0,33,0,1
0,35,104,1
0,47,102,0
0,47,108,0
0,54,114,0
0,55,96,0
0,55,108,0
0,35,99,0
0,46,66,0
0,57,69,0
0,52,0,2
0,52,114,0
0,45,0,2
0,54,114,0
0,35,0,0
0,46,0,0
0,57,0,0
0,35,98,58
0,46,65,0
0,35,0,4
0,46,0,0
0,54,0,18
0,47,0,6
0,47,0,4
0,52,0,4
0,54,0,0
0,55,0,6
0,55,0,0
0,35,0,4
0,31,116,2
0,43,98,0
0,43,108,0
0,50,120,0
0,56,96,0
0,56,108,0
0,50,114,2
0,52,90,2
0,52,0,6
0,40,114,2
0,46,67,0
0,40,0,4
0,46,0,0
0,43,0,38
0,43,0,2
0,31,0,2
0,50,0,4
0,50,0,2
0,56,0,10
0,56,0,0
0,28,92,4
0,40,102,0
0,40,102,0
0,47,108,0
0,52,90,0
0,52,102,0
0,35,107,0
0,46,70,0
0,47,114,2
0,35,0,2
0,46,0,0
0,46,35,92
0,46,0,4
0,52,0,78
0,52,0,0
0,55,82,4
0,55,94,0
0,35,99,0
0,46,65,0
0,35,0,4
0,46,0,0
0,28,0,3
0,40,98,1
0,56,78,0
0,56,90,0
0,40,97,0
0,46,62,0
0,40,0,2
0,46,0,0
0,55,0,0
0,64,114,6
0,59,98,2
0,55,0,2
0,40,88,2
0,40,0,4
0,40,0,8
0,28,98,8
0,52,96,0
0,52,108,0
0,40,126,0
0,46,67,0
0,40,0,4
0,46,0,0
0,56,0,4
0,56,0,0
0,40,118,4
0,52,0,2
0,52,0,0
0,40,0,2
0,40,0,0
0,28,0,8
0,47,0,2
0,47,0,6
0,40,0,0
0,28,110,18
0,40,114,0
0,40,114,0
0,47,114,0
0,59,96,0
0,59,108,0
0,35,116,0
0,49,57,0
0,47,126,2
0,35,0,2
0,49,0,0
0,46,48,8
0,46,0,2
0,47,0,8
0,47,0,6
0,59,0,0
0,59,0,0
0,40,0,2
0,28,0,7
0,43,120,1
0,50,114,0
0,59,96,0
0,31,104,0
0,40,0,0
0,43,114,0
0,59,108,0
0,50,114,2
0,40,111,46
0,46,51,0
0,40,0,4
0,46,0,0
0,50,0,60
0,50,0,8
0,43,0,14
0,43,0,2
0,59,0,0
0,59,0,0
0,31,0,7
0,33,104,1
0,45,108,0
0,45,114,0
0,52,108,0
0,61,98,0
0,35,110,0
0,46,67,0
0,52,108,2
0,61,86,0
0,35,0,2
0,46,0,0
0,46,60,6
0,46,0,4
0,35,110,4
0,46,67,0
0,35,0,0
0,46,0,0
0,64,0,4
0,59,0,2
0,40,111,0
0,46,55,0
0,40,0,4
0,46,0,0
0,33,0,2
0,61,0,0
0,61,0,2
0,33,98,20
0,56,100,0
0,56,112,0
0,40,71,0
0,40,0,4
0,40,115,44
0,40,0,4
0,45,0,16
0,45,0,0
0,52,0,2
0,33,0,2
0,52,0,2
0,35,104,22
0,47,108,0
0,47,108,0
0,54,114,0
0,35,98,0
0,46,64,0
0,57,69,0
0,52,108,2
0,54,114,2
0,35,0,0
0,46,0,0
0,57,0,0
0,35,97,4
0,46,64,0
0,35,0,4
0,46,0,0
0,56,0,10
0,56,0,0
0,54,0,4
0,47,0,4
0,47,0,4
0,35,0,4
0,52,0,0
0,54,0,0
0,43,114,10
0,50,120,0
0,56,92,0
0,43,114,0
0,56,104,0
0,31,110,0
0,50,114,2
0,40,113,6
0,46,66,0
0,40,0,4
0,46,0,0
0,50,0,10
0,50,0,6
0,43,0,4
0,43,0,2
0,31,0,20
0,28,110,2
0,40,102,0
0,40,98,0
0,47,114,0
0,52,102,0
0,52,114,0
0,35,106,0
0,46,69,0
0,47,120,2
0,35,0,2
0,46,0,0
0,56,0,18
0,56,0,0
0,46,34,74
0,46,0,4
0,52,0,10
0,52,0,0
0,56,96,6
0,56,108,0
0,35,97,0
0,46,64,0
0,35,0,4
0,46,0,0
0,56,0,2
0,56,0,0
0,56,78,10
0,56,90,0
0,40,96,0
0,46,61,0
0,40,0,4
0,46,0,0
0,64,102,12
0,59,102,2
0,40,86,0
0,40,0,4
0,28,0,14
0,40,98,2
0,52,102,0
0,52,114,0
0,40,125,0
0,46,66,0
0,40,0,4
0,46,0,0
0,56,0,8
0,56,0,0
0,40,0,2
0,52,0,12
0,52,0,0
0,40,0,6
0,47,0,0
0,28,98,2
0,40,117,0
0,40,0,4
0,47,0,2
0,28,0,10
0,40,0,2
0,28,98,2
0,40,108,0
0,40,102,0
0,47,120,0
0,59,96,0
0,59,108,0
0,35,114,0
0,49,55,0
0,47,114,2
0,35,0,2
0,49,0,0
0,46,58,36
0,46,0,4
0,47,0,18
0,40,0,12
0,47,0,0
0,59,0,2
0,59,0,0
0,28,0,11
0,31,110,1
0,40,0,0
0,43,120,0
0,43,114,0
0,50,120,0
0,59,96,0
0,59,108,0
0,50,108,2
0,40,110,46
0,46,49,0
0,40,0,4
0,46,0,0
0,50,0,60
0,50,0,10
0,31,0,0
0,59,0,6
0,59,0,0
0,43,0,2
0,43,0,0
