track,note,velocity,time
1,75,95,7280
1,72,92,0
1,72,90,32
1,68,83,0
1,70,83,76
1,74,90,4
1,72,85,44
1,75,81,0
1,72,90,68
1,68,81,0
1,70,66,96
1,74,87,0
1,75,87,508
1,79,87,0
1,75,87,164
1,72,80,0
1,75,87,320
1,72,92,0
1,70,81,60
1,74,85,0
1,72,77,48
1,75,81,0
1,68,87,80
1,72,95,0
1,70,77,16
1,74,87,0
1,70,87,24960
1,65,80,4
1,74,82,0
1,65,61,96
1,72,80,0
1,69,80,4
1,74,95,84
1,67,82,0
1,67,77,96
1,74,82,0
1,67,75,76
1,74,80,0
1,67,63,20
1,74,85,0
1,67,77,48
1,75,95,240
1,72,92,0
1,72,90,32
1,68,83,0
1,70,83,76
1,74,90,4
1,72,85,44
1,75,81,0
1,72,90,68
1,68,81,0
1,70,66,96
1,74,87,0
1,75,87,508
1,79,87,0
1,75,87,164
1,72,80,0
1,75,95,320
1,72,92,0
1,72,90,32
1,68,83,0
1,70,83,76
1,74,90,4
1,72,85,44
1,75,81,0
1,72,90,68
1,68,81,0
1,70,66,96
1,74,87,0
1,75,87,508
1,79,87,0
1,75,87,164
1,72,80,0
1,72,90,320
1,68,81,0
1,70,66,96
1,74,87,0
1,70,87,26636
1,65,80,4
1,74,82,0
1,65,61,96
1,72,80,0
1,69,80,4
1,74,95,84
1,67,82,0
1,67,77,96
1,74,82,0
1,67,75,76
1,74,80,0
1,67,63,20
1,74,85,0
1,67,77,48
1,75,95,240
1,72,92,0
1,72,90,32
1,68,83,0
1,70,83,76
1,74,90,4
1,72,85,44
1,75,81,0
1,72,90,68
1,68,81,0
1,70,66,96
1,74,87,0
1,75,87,508
1,79,87,0
1,75,87,164
1,72,80,0
1,75,95,320
1,72,92,0
1,72,90,32
1,68,83,0
1,70,83,76
1,74,90,4
1,72,85,44
1,75,81,0
1,72,90,68
1,68,81,0
1,70,66,96
1,74,87,0
1,75,87,508
1,79,87,0
1,75,87,164
1,72,80,0
1,72,90,320
1,68,81,0
1,70,66,96
1,74,87,0
1,67,80,1292
1,72,78,0
1,63,82,0
1,68,78,52
1,63,77,0
1,72,84,0
1,62,77,40
1,65,85,4
1,70,82,0
1,65,94,52
1,70,86,0
1,62,76,0
1,63,78,16
1,72,83,0
1,67,83,0
1,72,89,64
1,63,83,0
1,67,89,0
1,72,76,52
1,68,79,0
1,63,85,0
1,70,89,60
1,62,84,0
1,65,84,0
1,70,91,52
1,65,98,0
1,62,89,0
1,63,85,64
1,67,87,0
1,72,87,0
1,63,88,100
1,67,91,0
1,72,101,0
1,72,92,52
1,63,79,4
1,68,85,0
1,65,94,60
1,70,82,0
1,62,88,0
1,70,89,56
1,65,92,0
1,62,77,0
1,67,81,44
1,63,88,0
1,72,94,0
1,63,86,88
1,72,104,0
1,67,90,0
1,63,88,64
1,72,102,4
1,68,91,0
1,59,72,96
1,62,77,0
1,67,84,0
1,75,95,12484
1,72,92,0
1,72,90,32
1,68,83,0
1,70,83,76
1,74,90,4
1,72,85,44
1,75,81,0
1,72,90,68
1,68,81,0
1,70,66,96
1,74,87,0
1,75,87,508
1,79,87,0
1,75,87,164
1,72,80,0
1,75,95,320
1,72,92,0
1,72,90,32
1,68,83,0
1,70,83,76
1,74,90,4
1,72,85,44
1,75,81,0
1,72,90,68
1,68,81,0
1,70,66,80
1,74,87,0
1,75,87,508
1,79,87,0
1,75,87,164
1,72,80,0
1,72,90,320
1,68,81,0
1,70,66,96
1,74,87,0
1,75,87,508
1,79,87,0
1,75,87,164
1,72,80,0
1,72,90,320
1,68,81,0
1,70,66,96
1,74,87,0
1,75,87,508
1,79,87,0
1,75,87,164
1,72,80,0
1,72,90,320
1,68,81,0
1,70,66,96
1,74,87,0
1,75,87,508
1,79,87,0
1,75,87,164
1,72,80,0
1,72,90,320
1,68,81,0
1,70,66,80
1,74,87,0
1,75,87,508
1,79,87,0
1,75,87,164
1,72,80,0
1,72,90,320
1,68,81,0
1,70,66,96
1,74,87,0
1,75,87,508
1,79,87,0
1,75,87,164
1,72,80,0
1,72,90,320
1,68,81,0
1,70,66,80
1,74,87,0
1,75,87,508
1,79,87,0
1,75,87,164
1,72,80,0
1,72,90,320
1,68,81,0
1,70,66,96
1,74,87,0
1,75,87,508
1,79,87,0
1,75,87,164
1,72,80,0
1,72,90,320
1,68,81,0
1,70,66,96
1,74,87,0
1,75,87,508
1,79,87,0
1,75,87,164
1,72,80,0
1,72,90,320
1,68,81,0
1,70,66,96
1,74,87,0
1,75,87,508
1,79,87,0
1,75,87,164
1,72,80,0
2,39,127,6868
2,36,108,24
2,32,113,0
2,34,110,580
2,36,106,168
2,34,113,0
2,34,116,72
2,36,108,64
2,36,94,84
2,32,104,20
2,34,119,80
2,31,106,24
2,34,107,192
2,39,110,16
2,36,98,72
2,31,108,24
2,34,99,192
2,36,100,0
2,36,106,100
2,32,113,44
2,34,107,52
2,36,100,188
2,34,110,184
2,34,116,84
2,36,104,32
2,36,88,88
2,32,113,16
2,34,123,88
2,36,104,88
2,31,88,8
2,34,85,196
2,36,83,152
2,39,107,16
2,39,116,128
2,36,79,192
2,34,95,176
2,36,100,4
2,31,97,192
2,34,97,176
2,36,80,12
2,39,116,0
2,39,104,124
2,36,83,192
2,36,102,76
2,31,94,4
2,34,101,196
2,36,85,148
2,39,113,0
2,39,116,124
2,36,84,192
2,34,85,188
2,36,104,172
2,31,100,176
2,34,99,188
2,36,80,132
2,39,99,176
2,39,116,132
2,36,86,192
2,36,108,92
2,31,94,188
2,34,97,196
2,36,90,144
2,39,107,0
2,39,104,120
2,36,87,192
2,34,84,176
2,36,100,188
2,31,97,160
2,34,97,176
2,36,80,148
2,39,101,8
2,39,110,104
2,36,83,16
2,36,90,80
2,31,91,196
2,34,91,180
2,36,80,148
2,39,107,184
2,39,107,124
2,36,81,0
2,34,87,188
2,36,94,188
2,31,97,0
2,34,97,196
2,36,81,128
2,39,110,188
2,39,101,124
2,36,80,8
2,36,97,84
2,31,90,196
2,34,93,184
2,36,80,8
2,39,116,0
2,39,104,120
2,36,83,0
2,34,87,192
2,36,95,172
2,31,95,176
2,34,95,180
2,36,80,140
2,39,110,172
2,39,107,96
2,36,88,12
2,36,95,92
2,31,97,192
2,34,97,192
2,36,78,132
2,39,107,180
2,39,110,120
2,36,86,4
2,34,79,192
2,36,100,156
2,31,95,168
2,34,93,176
2,36,85,144
2,39,104,196
2,39,101,112
2,36,86,192
2,29,110,56
2,29,97,68
2,29,102,80
2,29,92,80
2,29,110,92
2,29,106,68
2,29,91,72
2,29,90,84
2,29,112,76
2,29,112,68
2,29,114,64
2,29,114,76
2,34,110,4
2,35,102,16
2,36,95,4
2,31,98,0
2,34,97,192
2,36,80,156
2,39,116,172
2,39,101,108
2,36,84,188
2,34,99,176
2,48,100,4
2,43,87,196
2,46,93,172
2,48,84,144
2,51,91,168
2,51,107,100
2,48,85,16
2,34,110,16
2,34,81,76
2,34,101,76
2,34,77,60
2,34,101,76
2,34,89,52
2,34,110,84
2,34,77,56
2,34,110,92
2,34,84,68
2,34,104,92
2,34,91,64
2,34,116,92
2,36,94,188
2,31,106,0
2,29,102,60
2,29,100,80
2,29,102,80
2,29,106,80
2,29,102,72
2,29,97,88
2,29,106,96
2,29,104,76
2,29,114,80
2,31,90,24
2,31,110,84
2,31,112,100
2,31,112,96
2,31,117,104
2,31,110,84
2,31,120,124
2,31,114,76
2,36,110,56
2,32,107,20
2,34,91,28
2,36,104,188
2,34,113,172
2,34,101,56
2,36,102,36
2,32,119,8
2,34,107,576
2,31,98,20
2,34,107,196
2,39,119,20
2,36,98,44
2,36,117,100
2,32,127,16
2,34,116,48
2,36,106,196
2,34,107,16
2,34,119,72
2,36,112,72
2,36,97,64
2,34,116,28
2,32,113,192
2,34,110,8
2,31,100,28
2,34,107,196
2,39,116,16
2,36,95,52
2,39,116,0
2,36,90,192
2,34,99,172
2,32,104,28
2,34,123,36
2,36,114,404
2,31,100,16
2,34,104,192
2,36,85,164
2,39,116,184
2,39,113,124
2,36,86,192
2,34,87,184
2,36,102,172
2,31,108,8
2,34,99,196
2,36,95,12
2,39,116,192
2,39,116,112
2,36,97,192
2,36,117,132
2,31,100,8
2,34,110,196
2,36,83,148
2,39,116,4
2,39,113,120
2,36,94,24
2,34,97,192
2,36,100,176
2,31,106,12
2,34,104,196
2,36,88,8
2,39,119,196
2,39,119,112
2,36,97,52
2,36,98,64
2,31,95,4
2,34,91,196
2,36,77,144
2,39,116,188
2,39,116,124
2,36,83,28
2,34,79,192
2,36,92,176
2,31,100,152
2,34,91,188
2,36,80,0
2,39,110,200
2,39,119,128
2,36,94,196
2,36,102,104
2,31,100,24
2,34,101,192
2,36,87,156
2,39,116,172
2,39,113,128
2,36,91,16
2,34,84,0
2,36,100,192
2,31,98,12
2,34,95,196
2,36,90,152
2,39,116,184
2,39,116,120
2,36,91,0
2,36,102,120
2,31,100,8
2,34,95,196
2,36,85,136
2,39,113,192
2,39,116,124
2,36,94,188
2,34,89,192
2,36,94,160
2,31,95,0
2,34,97,192
2,36,81,152
2,39,116,188
2,39,113,120
2,36,87,28
2,36,98,100
2,31,100,192
2,34,97,164
2,36,83,144
2,39,116,188
2,39,104,112
2,36,84,0
2,34,91,192
2,36,97,176
2,31,102,4
2,34,84,196
2,36,83,116
2,39,104,176
2,39,107,120
2,36,98,196
2,29,112,128
2,29,84,68
2,29,94,76
2,29,94,64
2,29,102,92
2,29,94,80
2,29,108,104
2,29,84,76
2,29,94,80
2,29,90,80
2,29,97,84
2,29,104,72
2,34,110,56
2,35,102,52
2,36,104,16
2,31,92,192
2,34,99,188
2,36,84,8
2,39,116,196
2,39,107,108
2,36,86,12
2,34,104,4
2,48,100,52
2,43,97,24
2,46,89,196
2,48,85,136
2,51,93,172
2,51,113,112
2,48,102,36
2,34,116,20
2,34,79,84
2,34,99,96
2,34,79,56
2,34,101,80
2,34,95,76
2,34,101,72
2,34,93,92
2,34,116,96
2,34,97,92
2,34,110,84
2,34,99,68
2,34,110,96
2,36,90,8
2,31,97,192
2,29,97,28
2,29,120,100
2,29,108,80
2,29,114,100
2,29,94,92
2,29,110,92
2,29,112,92
2,29,112,100
2,29,112,92
2,31,104,48
2,31,100,88
2,31,102,84
2,31,110,88
2,31,120,96
2,31,102,76
2,31,117,108
2,31,114,92
2,36,108,20
2,32,119,16
2,34,93,40
2,36,90,4
2,34,113,0
2,34,101,72
2,36,97,76
2,32,119,80
2,34,110,576
2,31,94,52
2,34,99,196
2,39,123,88
2,36,102,84
2,36,114,212
2,32,123,16
2,34,101,0
2,36,85,192
2,34,110,192
2,34,119,112
2,36,110,64
2,36,91,40
2,34,97,192
2,32,99,36
2,34,123,72
2,31,110,60
2,34,107,196
2,39,123,36
2,36,104,112
2,39,116,8
2,36,90,0
2,34,99,192
2,32,104,28
2,34,127,44
2,36,120,128
2,32,110,52
2,34,116,84
2,36,108,196
2,34,116,184
2,34,123,68
2,36,106,64
2,31,112,12
2,34,116,192
2,36,108,56
2,32,116,36
2,34,116,64
2,36,106,192
2,34,113,172
2,36,100,172
2,38,122,4
2,36,117,56
2,31,110,16
2,34,116,192
2,36,117,32
2,32,127,4
2,34,116,36
2,36,106,4
2,34,119,12
2,34,123,80
2,36,120,80
2,34,110,384
2,34,110,64
2,36,120,64
2,32,127,4
2,31,120,108
2,31,120,96
2,31,117,92
2,31,88,56
2,31,83,72
2,31,100,80
2,31,90,64
2,31,95,84
2,31,106,76
2,31,100,96
2,31,91,84
2,31,112,92
2,48,110,10812
2,48,75,32
2,48,95,28
2,48,77,32
2,48,120,44
2,48,102,112
2,48,65,28
2,48,106,36
2,48,52,44
2,48,117,40
2,48,120,128
2,48,45,40
2,48,108,20
2,48,104,28
2,36,117,32
2,32,119,52
2,34,104,576
2,36,100,28
2,34,110,192
2,34,116,100
2,36,108,88
2,36,95,64
2,34,107,40
2,32,113,192
2,34,101,568
2,31,92,28
2,34,116,188
2,39,119,28
2,36,85,24
2,46,104,388
2,47,75,64
2,48,98,28
2,43,92,8
2,39,113,32
2,36,122,44
2,32,127,580
2,34,113,52
2,36,108,188
2,34,110,188
2,34,116,80
2,36,106,76
2,36,81,48
2,34,107,0
2,32,104,196
2,34,99,16
2,31,88,0
2,34,87,196
2,39,123,4
2,36,95,116
2,36,87,108
2,34,101,60
2,32,101,16
2,32,71,56
2,32,81,72
2,34,97,4
2,34,93,68
2,31,92,0
2,34,95,188
2,39,113,12
2,39,101,88
2,36,80,32
2,36,85,52
2,36,100,68
2,36,83,56
2,34,95,192
2,34,99,88
2,32,78,0
2,32,82,60
2,32,99,48
2,34,93,84
2,34,97,44
2,31,90,0
2,34,97,188
2,39,104,4
2,39,84,64
2,36,84,0
2,36,85,56
2,36,114,80
2,36,81,52
2,34,97,192
2,34,91,92
2,32,104,192
2,32,91,40
2,32,99,52
2,34,104,200
2,34,101,72
2,31,92,0
2,34,101,192
2,39,113,28
2,39,95,80
2,36,84,20
2,36,98,64
2,36,98,68
2,36,98,104
2,34,95,192
2,34,99,76
2,32,101,192
2,32,87,92
2,32,110,80
2,34,101,0
2,34,97,60
2,31,94,196
2,34,104,176
2,39,113,32
2,39,97,64
2,36,81,24
2,36,90,56
2,36,102,84
2,36,87,64
2,34,110,36
2,34,99,64
2,32,99,192
2,32,97,64
2,32,93,64
2,34,101,0
2,34,95,112
2,31,86,0
2,34,85,192
2,39,113,28
2,39,97,68
2,36,83,16
2,36,92,64
2,36,98,48
2,36,92,72
2,34,87,188
2,34,91,60
2,32,85,192
2,32,87,80
2,32,101,52
2,34,95,188
2,34,101,76
2,31,86,8
2,34,97,192
2,39,110,28
2,39,97,92
2,36,86,20
2,36,88,48
2,36,100,76
2,36,91,60
2,34,91,192
2,34,95,84
2,32,85,12
2,32,89,76
2,32,99,84
2,34,116,32
2,34,101,76
2,31,87,12
2,34,95,8
2,39,110,28
2,39,81,80
2,36,80,16
2,36,87,64
2,36,97,56
2,36,92,56
2,34,99,196
2,34,104,92
2,32,85,28
2,32,81,68
2,32,99,72
2,34,101,48
2,34,101,92
2,31,92,44
2,34,95,188
2,39,113,48
2,39,97,100
2,36,97,52
2,36,95,64
2,36,94,56
2,36,92,64
2,34,95,192
2,34,97,92
2,32,75,16
2,32,84,52
2,32,93,80
2,34,110,32
2,34,113,44
2,31,104,0
2,34,101,192
2,39,110,20
2,36,85,4
3,79,100,7240
3,67,99,0
3,77,95,32
3,65,89,0
3,63,94,0
3,75,108,0
3,79,100,16
3,67,99,0
3,65,87,92
3,77,105,4
3,63,90,12
3,75,100,4
3,72,108,16
3,60,99,4
3,70,94,380
3,58,98,4
3,60,87,0
3,72,93,4
3,79,111,16
3,67,94,0
3,65,94,12
3,77,103,0
3,75,100,28
3,63,90,0
3,67,94,0
3,79,93,4
3,65,92,164
3,77,93,0
3,63,90,0
3,75,100,0
3,60,94,12
3,72,100,0
3,79,98,16
3,67,102,0
3,77,103,464
3,65,97,0
3,75,96,716
3,63,90,0
3,79,98,12
3,67,92,0
3,65,92,60
3,77,98,0
3,63,81,0
3,75,100,0
3,60,99,0
3,72,98,4
3,58,90,380
3,70,83,0
3,60,80,0
3,72,78,0
3,67,94,0
3,79,103,0
3,77,100,0
3,65,94,0
3,60,82,16
3,55,63,32
3,58,53,60
3,60,67,32
3,63,63,52
3,63,63,112
3,60,75,28
3,58,47,48
3,60,72,0
3,55,65,32
3,58,66,192
3,60,65,48
3,63,63,48
3,63,66,112
3,60,87,12
3,60,84,96
3,55,54,32
3,58,66,48
3,60,67,32
3,63,63,32
3,63,60,112
3,60,75,32
3,58,45,48
3,60,82,32
3,55,65,16
3,58,66,32
3,60,67,32
3,63,66,48
3,63,66,128
3,60,72,64
3,60,82,148
3,55,63,32
3,58,53,64
3,60,67,48
3,63,63,48
3,63,63,112
3,60,75,28
3,58,47,48
3,60,72,0
3,55,65,16
3,58,66,192
3,60,65,48
