track,note,velocity,time
1,62,50,960
1,62,0,360
1,63,46,0
1,63,0,120
1,65,50,0
1,65,0,930
1,69,46,0
1,69,0,30
1,67,50,0
1,67,0,120
1,65,45,0
1,65,0,120
1,67,50,0
1,67,0,120
1,69,43,0
1,69,0,120
1,70,50,0
1,70,0,480
1,65,41,0
1,65,0,420
1,69,43,30
1,69,0,30
1,67,50,0
1,67,0,120
1,65,46,0
1,65,0,120
1,67,50,0
1,67,0,120
1,69,50,0
1,69,0,120
1,70,50,0
1,70,0,60
1,69,46,300
1,69,0,60
1,70,56,60
1,70,0,60
1,72,48,300
1,72,0,60
1,74,55,60
1,74,0,60
1,76,59,300
1,76,0,60
1,70,53,60
1,76,63,0
1,76,0,480
1,70,0,0
1,69,48,0
1,77,57,0
1,77,0,240
1,69,0,0
1,77,43,210
1,77,0,30
1,75,50,0
1,75,0,120
1,74,46,0
1,74,0,120
1,75,54,0
1,75,0,120
1,77,51,0
1,77,0,120
1,79,59,0
1,79,0,480
1,72,50,0
1,72,0,420
1,74,43,30
1,74,0,30
1,72,50,0
1,72,0,120
1,71,46,0
1,71,0,120
1,72,54,0
1,72,0,120
1,74,51,0
1,74,0,120
1,75,59,0
1,75,0,480
1,69,50,0
1,69,0,420
1,70,43,30
1,70,0,30
1,69,50,0
1,69,0,120
1,67,46,0
1,67,0,120
1,69,52,0
1,69,0,120
1,70,48,0
1,70,0,80
1,74,43,10
1,74,0,30
1,72,53,0
1,72,0,120
1,71,50,0
1,71,0,120
1,72,54,0
1,72,0,120
1,74,51,0
1,74,0,80
1,77,43,10
1,77,0,30
1,75,57,0
1,75,0,120
1,74,52,0
1,74,0,120
1,75,58,0
1,75,0,120
1,77,55,0
1,77,0,120
1,79,64,0
1,79,0,60
1,69,42,300
1,69,0,120
1,72,50,0
1,72,0,480
1,70,44,0
1,70,0,240
1,62,50,240
1,62,0,360
1,63,46,0
1,63,0,120
1,65,50,0
1,65,0,930
1,69,46,0
1,69,0,30
1,67,50,0
1,67,0,120
1,65,45,0
1,65,0,120
1,67,50,0
1,67,0,120
1,69,43,0
1,69,0,120
1,70,50,0
1,70,0,480
1,65,41,0
1,65,0,420
1,69,43,30
1,69,0,30
1,67,50,0
1,67,0,120
1,65,46,0
1,65,0,120
1,67,50,0
1,67,0,120
1,69,50,0
1,69,0,120
1,70,50,0
1,70,0,60
1,69,46,300
1,69,0,60
1,70,56,60
1,70,0,60
1,72,48,300
1,72,0,60
1,74,55,60
1,74,0,60
1,76,59,300
1,76,0,60
1,70,53,60
1,76,63,0
1,76,0,480
1,70,0,0
1,69,48,0
1,77,57,0
1,77,0,240
1,69,0,0
1,77,43,210
1,77,0,30
1,75,50,0
1,75,0,120
1,74,46,0
1,74,0,120
1,75,54,0
1,75,0,120
1,77,51,0
1,77,0,120
1,79,59,0
1,79,0,480
1,72,50,0
1,72,0,420
1,74,43,30
1,74,0,30
1,72,50,0
1,72,0,120
1,71,46,0
1,71,0,120
1,72,54,0
1,72,0,120
1,74,51,0
1,74,0,120
1,75,59,0
1,75,0,480
1,69,50,0
1,69,0,420
1,70,43,30
1,70,0,30
1,69,50,0
1,69,0,120
1,67,46,0
1,67,0,120
1,69,52,0
1,69,0,120
1,70,48,0
1,70,0,80
1,74,43,10
1,74,0,30
1,72,53,0
1,72,0,120
1,71,50,0
1,71,0,120
1,72,54,0
1,72,0,120
1,74,51,0
1,74,0,80
1,77,43,10
1,77,0,30
1,75,57,0
1,75,0,120
1,74,52,0
1,74,0,120
1,75,58,0
1,75,0,120
1,77,55,0
1,77,0,120
1,79,64,0
1,79,0,60
1,69,42,300
1,69,0,120
1,72,50,0
1,72,0,480
1,70,44,0
1,70,0,240
1,69,38,240
1,74,46,0
1,74,0,120
1,69,0,0
1,70,34,0
1,73,41,0
1,73,0,120
1,70,0,0
1,69,42,0
1,74,50,0
1,74,0,120
1,69,0,0
1,70,34,0
1,73,40,0
1,73,0,120
1,70,0,0
1,69,45,0
1,74,54,0
1,74,0,120
1,69,0,0
1,70,40,0
1,73,49,0
1,73,0,120
1,70,0,0
1,69,49,0
1,74,57,0
1,74,0,120
1,69,0,0
1,70,39,0
1,73,47,0
1,73,0,120
1,70,0,0
1,69,52,0
1,74,62,0
1,74,0,120
1,69,0,0
1,70,47,0
1,73,56,0
1,73,0,120
1,70,0,0
1,69,55,0
1,74,66,0
1,74,0,120
1,69,0,0
1,70,46,0
1,73,54,0
1,73,0,120
1,70,0,0
1,69,59,0
1,74,71,0
1,74,0,120
1,69,0,0
1,70,53,0
1,73,64,0
1,73,0,120
1,70,0,0
1,69,63,0
1,74,75,0
1,74,0,120
1,69,0,0
1,70,52,0
1,73,62,0
1,73,0,120
1,70,0,0
1,69,83,0
1,74,83,0
1,74,0,240
1,69,0,0
1,86,100,240
1,78,84,0
1,78,0,720
1,86,0,0
1,84,75,0
1,78,63,0
1,78,0,120
1,84,0,0
1,82,91,120
1,79,77,0
1,79,0,240
1,82,0,0
1,81,73,120
1,75,61,0
1,75,0,60
1,81,0,0
1,70,72,60
1,79,85,0
1,79,0,240
1,70,0,0
1,72,69,240
1,78,81,0
1,78,0,240
1,72,0,0
1,72,69,240
1,81,82,0
1,81,0,480
1,72,0,0
1,70,61,0
1,79,72,0
1,79,0,240
1,70,0,0
1,56,25,240
1,58,30,0
1,59,27,120
1,58,0,1
1,56,0,0
1,56,27,119
1,58,33,0
1,59,0,1
1,59,26,119
1,58,0,1
1,56,0,0
1,56,28,119
1,58,34,0
1,59,0,1
1,59,30,119
1,58,0,1
1,56,0,0
1,56,30,119
1,58,36,0
1,59,0,1
1,59,29,119
1,58,0,1
1,56,0,0
1,56,33,119
1,58,39,0
1,59,0,1
1,59,36,119
1,58,0,1
1,56,0,0
1,56,36,119
1,58,42,0
1,59,0,1
1,59,34,119
1,58,0,1
1,56,0,0
1,56,38,119
1,58,45,0
1,59,0,1
1,59,41,119
1,58,0,1
1,56,0,0
1,56,40,119
1,58,49,0
1,59,0,1
1,59,40,119
1,58,0,1
1,56,0,0
1,56,65,119
1,58,65,0
1,59,0,1
1,58,0,239
1,56,0,0
1,80,85,240
1,71,72,0
1,71,0,720
1,80,0,0
1,79,59,0
1,72,49,0
1,72,0,240
1,79,0,0
1,77,70,0
1,68,58,0
1,68,0,360
1,77,0,0
1,75,53,0
1,67,45,0
1,67,0,120
1,75,0,0
1,65,52,0
1,74,61,0
1,74,0,480
1,65,0,0
1,63,46,0
1,72,54,0
1,72,0,480
1,63,0,0
1,62,40,0
1,70,48,0
1,70,0,480
1,62,0,0
1,60,36,0
1,69,42,0
1,69,0,240
1,60,0,0
1,62,50,240
1,62,0,360
1,63,46,0
1,63,0,120
1,65,50,0
1,65,0,930
1,69,46,0
1,69,0,30
1,67,50,0
1,67,0,120
1,65,45,0
1,65,0,120
1,67,50,0
1,67,0,120
1,69,43,0
1,69,0,120
1,70,50,0
1,70,0,480
1,65,41,0
1,65,0,420
1,69,43,30
1,69,0,30
1,67,50,0
1,67,0,120
1,65,46,0
1,65,0,120
1,67,50,0
1,67,0,120
1,69,50,0
1,69,0,120
1,70,50,0
1,70,0,60
1,69,46,300
1,69,0,60
1,70,56,60
1,70,0,60
1,72,48,300
1,72,0,60
1,74,55,60
1,74,0,60
1,76,59,300
1,76,0,60
1,70,53,60
1,76,63,0
1,76,0,480
1,70,0,0
1,69,48,0
1,77,57,0
1,77,0,240
1,69,0,0
1,77,43,210
1,77,0,30
1,75,50,0
1,75,0,120
1,74,46,0
1,74,0,120
1,75,54,0
1,75,0,120
1,77,51,0
1,77,0,120
1,79,59,0
1,79,0,480
1,72,50,0
1,72,0,420
1,74,43,30
1,74,0,30
1,72,50,0
1,72,0,120
1,71,46,0
1,71,0,120
1,72,54,0
1,72,0,120
1,74,51,0
1,74,0,120
1,75,59,0
1,75,0,480
1,69,50,0
1,69,0,420
1,70,43,30
1,70,0,30
1,69,50,0
1,69,0,120
1,67,46,0
1,67,0,120
1,69,52,0
1,69,0,120
1,70,48,0
1,70,0,80
1,74,43,10
1,74,0,30
1,72,53,0
1,72,0,120
1,71,50,0
1,71,0,120
1,72,54,0
1,72,0,120
1,74,51,0
1,74,0,80
1,77,43,10
1,77,0,30
1,75,57,0
1,75,0,120
1,74,52,0
1,74,0,120
1,75,58,0
1,75,0,120
1,77,55,0
1,77,0,120
1,79,61,0
1,79,0,120
1,75,59,0
1,75,0,120
1,72,52,0
1,72,0,120
1,69,42,0
1,69,0,120
1,70,50,0
1,70,0,480
1,81,46,450
1,81,0,30
1,79,50,0
1,79,0,120
1,78,45,0
1,78,0,120
1,79,50,0
1,79,0,120
1,81,43,0
1,81,0,120
1,82,50,0
1,82,0,480
1,77,41,0
1,77,0,420
1,69,43,30
1,69,0,30
1,75,41,0
1,67,50,0
1,67,0,120
1,65,46,0
1,65,0,120
1,67,50,0
1,67,0,120
1,69,46,0
1,69,0,120
1,75,0,0
1,74,44,0
1,70,50,0
1,70,0,480
1,74,0,0
1,65,41,0
1,65,0,240
1,69,43,210
1,69,0,30
1,67,50,0
1,67,0,120
1,66,46,0
1,66,0,120
1,67,50,0
1,67,0,120
1,69,46,0
1,69,0,120
1,70,50,0
1,70,0,480
1,65,41,0
1,65,0,420
1,57,36,30
1,57,0,30
1,63,34,0
1,55,42,0
1,55,0,120
1,53,39,0
1,53,0,120
1,55,42,0
1,55,0,120
1,57,39,0
1,57,0,120
1,63,0,0
1,62,34,0
1,58,42,0
1,58,0,240
1,53,33,0
1,53,0,200
1,57,37,10
1,57,0,30
1,62,0,0
1,63,39,0
1,55,43,0
1,55,0,120
1,53,40,0
1,53,0,120
1,55,44,0
1,55,0,120
1,57,40,0
1,57,0,120
1,63,0,0
1,62,36,0
1,58,44,0
1,58,0,240
1,53,34,0
1,53,0,180
1,57,39,30
1,57,0,30
1,62,0,0
1,63,44,0
1,55,46,0
1,55,0,120
1,53,43,0
1,53,0,120
1,55,47,0
1,55,0,120
1,57,44,0
1,57,0,120
1,63,0,0
1,62,42,0
1,58,48,0
1,58,0,120
1,53,41,0
1,53,0,120
1,62,0,0
1,63,40,0
1,57,50,0
1,57,0,120
1,53,43,0
1,53,0,120
1,63,0,0
1,62,49,0
1,58,51,0
1,58,0,120
1,53,46,0
1,53,0,120
1,62,0,0
1,63,42,0
1,57,52,0
1,57,0,120
1,53,47,0
1,53,0,120
1,63,0,0
1,58,34,0
1,62,40,0
1,62,0,120
1,58,0,0
1,62,34,360
1,70,40,0
1,70,0,120
1,62,0,0
1,69,38,360
1,74,46,0
1,74,0,120
1,69,0,0
1,70,34,0
1,73,41,0
1,73,0,120
1,70,0,0
1,69,42,0
1,74,50,0
1,74,0,120
1,69,0,0
1,70,34,0
1,73,40,0
1,73,0,120
1,70,0,0
1,69,45,0
1,74,53,0
1,74,0,120
1,69,0,0
1,70,40,0
1,73,49,0
1,73,0,120
1,70,0,0
1,69,48,0
1,74,57,0
1,74,0,120
1,69,0,0
1,70,39,0
1,73,47,0
1,73,0,120
1,70,0,0
1,69,52,0
1,74,62,0
1,74,0,120
1,69,0,0
1,70,47,0
1,73,56,0
1,73,0,120
1,70,0,0
1,69,55,0
1,74,66,0
1,74,0,120
1,69,0,0
1,70,46,0
1,73,54,0
1,73,0,120
1,70,0,0
1,69,59,0
1,74,71,0
1,74,0,120
1,69,0,0
1,70,53,0
1,73,63,0
1,73,0,120
1,70,0,0
1,69,63,0
1,74,75,0
1,74,0,120
1,69,0,0
1,70,52,0
1,73,61,0
1,73,0,120
1,70,0,0
1,69,83,0
1,74,83,0
1,74,0,240
1,69,0,0
1,86,100,240
1,78,84,0
1,78,0,720
1,86,0,0
1,84,75,0
1,78,63,0
1,78,0,120
1,84,0,0
1,82,91,120
1,79,77,0
1,79,0,240
1,82,0,0
1,81,73,120
1,75,61,0
1,75,0,60
1,81,0,0
1,70,72,60
1,79,85,0
1,79,0,240
1,70,0,0
1,72,69,240
1,78,81,0
1,78,0,240
1,72,0,0
1,72,69,240
1,81,82,0
1,81,0,480
1,72,0,0
1,70,61,0
1,79,72,0
1,79,0,240
1,70,0,0
1,56,25,240
1,58,30,0
1,59,27,120
1,58,0,1
1,56,0,0
1,56,27,119
1,58,33,0
1,59,0,1
1,59,27,119
1,58,0,1
1,56,0,0
1,56,29,119
1,58,35,0
1,59,0,1
1,59,32,119
1,58,0,1
1,56,0,0
1,56,32,119
1,58,37,0
1,59,0,1
1,59,30,119
1,58,0,1
1,56,0,0
1,56,34,119
1,58,41,0
1,59,0,1
1,59,38,119
1,58,0,1
1,56,0,0
1,56,37,119
1,58,44,0
1,59,0,1
1,59,35,119
1,58,0,1
1,56,0,0
1,56,39,119
1,58,46,0
1,59,0,1
1,59,42,119
1,58,0,1
1,56,0,0
1,56,42,119
1,58,50,0
1,59,0,1
1,59,41,119
1,58,0,1
1,56,0,0
1,56,65,119
1,58,65,0
1,59,0,1
1,58,0,239
1,56,0,0
1,80,85,240
1,71,72,0
1,71,0,720
1,80,0,0
1,79,59,0
1,72,49,0
1,72,0,240
1,79,0,0
1,77,70,0
1,68,58,0
1,68,0,360
1,77,0,0
1,75,53,0
1,67,45,0
1,67,0,120
1,75,0,0
1,65,52,0
1,74,61,0
1,74,0,480
1,65,0,0
1,63,46,0
1,72,54,0
1,72,0,480
1,63,0,0
1,62,40,0
1,70,48,0
1,70,0,480
1,62,0,0
1,60,36,0
1,69,42,0
1,69,0,240
1,60,0,0
1,62,50,240
1,62,0,360
1,63,46,0
1,63,0,120
1,65,50,0
1,65,0,930
1,69,46,0
1,69,0,30
1,67,50,0
1,67,0,120
1,65,45,0
1,65,0,120
1,67,50,0
1,67,0,120
1,69,43,0
1,69,0,120
1,70,50,0
1,70,0,480
1,65,41,0
1,65,0,420
1,69,43,30
1,69,0,30
1,67,50,0
1,67,0,120
1,65,46,0
1,65,0,120
1,67,50,0
1,67,0,120
1,69,50,0
1,69,0,120
1,70,50,0
1,70,0,60
1,69,46,300
1,69,0,60
1,70,56,60
1,70,0,60
1,72,48,300
1,72,0,60
1,74,55,60
1,74,0,60
1,76,59,300
1,76,0,60
1,70,53,60
1,76,63,0
1,76,0,480
1,70,0,0
1,69,48,0
1,77,57,0
1,77,0,240
1,69,0,0
1,77,43,210
1,77,0,30
1,75,50,0
1,75,0,120
1,74,46,0
1,74,0,120
1,75,54,0
1,75,0,120
1,77,51,0
1,77,0,120
1,79,59,0
1,79,0,480
1,72,50,0
1,72,0,420
1,74,43,30
1,74,0,30
1,72,50,0
1,72,0,120
1,71,46,0
1,71,0,120
1,72,54,0
1,72,0,120
1,74,51,0
1,74,0,120
1,75,59,0
1,75,0,480
1,69,50,0
1,69,0,420
1,70,43,30
1,70,0,30
1,69,50,0
1,69,0,120
1,67,46,0
1,67,0,120
1,69,52,0
1,69,0,120
1,70,48,0
1,70,0,80
1,74,43,10
1,74,0,30
1,72,53,0
1,72,0,120
1,71,50,0
1,71,0,120
1,72,54,0
1,72,0,120
1,74,51,0
1,74,0,80
1,77,43,10
1,77,0,30
1,75,57,0
1,75,0,120
1,74,52,0
1,74,0,120
1,75,58,0
1,75,0,120
1,77,55,0
1,77,0,120
1,79,61,0
1,79,0,120
1,75,59,0
1,75,0,120
1,72,52,0
1,72,0,120
1,69,42,0
1,69,0,120
1,70,50,0
1,70,0,480
1,81,46,450
1,81,0,30
1,79,50,0
1,79,0,120
1,78,45,0
1,78,0,120
1,79,50,0
1,79,0,120
1,81,43,0
1,81,0,120
1,82,50,0
1,82,0,480
1,77,41,0
1,77,0,420
1,69,43,30
1,69,0,30
1,75,41,0
1,67,50,0
1,67,0,120
1,65,46,0
1,65,0,120
1,67,50,0
1,67,0,120
1,69,46,0
1,69,0,120
1,75,0,0
1,74,44,0
1,70,50,0
1,70,0,480
1,74,0,0
1,65,41,0
1,65,0,240
1,69,43,210
1,69,0,30
1,67,50,0
1,67,0,120
1,66,46,0
1,66,0,120
