track,note,velocity,time
1,63,115,6144
1,63,0,384
1,56,115,0
1,56,0,128
1,56,115,64
1,56,0,384
1,63,115,576
1,61,115,192
1,61,0,128
1,59,115,64
1,59,0,128
1,63,0,0
1,56,115,64
1,56,0,128
1,56,115,64
1,56,0,128
1,63,115,256
1,63,0,64
1,61,115,32
1,61,0,192
1,61,115,96
1,61,0,128
1,63,115,1024
1,63,0,64
1,61,115,32
1,61,0,192
1,61,115,96
1,61,0,128
1,59,115,64
1,59,0,128
1,61,115,64
1,61,0,128
1,61,115,64
1,61,0,384
1,59,115,0
1,59,0,256
1,56,115,128
1,56,0,64
1,56,115,32
1,56,0,64
1,63,115,32
1,61,115,192
1,61,0,128
1,59,115,64
1,59,0,128
1,63,0,0
1,56,115,64
1,56,0,128
1,56,115,64
1,56,0,128
1,56,115,448
1,56,0,128
1,54,115,64
1,54,0,128
1,56,115,64
1,56,0,128
1,59,115,64
1,59,0,128
1,59,115,64
1,59,0,128
1,63,115,448
1,63,0,64
1,61,115,32
1,61,0,192
1,61,115,96
1,61,0,128
1,56,115,1024
1,56,0,64
1,56,115,32
1,56,0,192
1,63,115,96
1,63,0,128
1,66,115,64
1,66,0,128
1,66,115,64
1,66,0,128
1,68,115,64
1,68,0,384
1,66,115,0
1,66,0,128
1,68,115,448
1,66,115,192
1,68,0,64
1,66,0,64
1,63,115,64
1,63,0,128
1,68,115,64
1,68,0,384
1,71,115,576
1,71,0,128
1,70,115,64
1,70,0,128
1,68,115,64
1,68,0,128
1,68,115,64
1,68,0,512
1,63,115,256
1,63,0,128
1,71,115,64
1,71,0,128
1,71,115,64
1,71,0,128
1,70,115,64
1,70,0,128
1,70,115,64
1,70,0,128
1,68,115,64
1,68,0,128
1,68,115,64
1,68,0,128
1,66,115,64
1,66,0,256
1,68,115,128
1,68,0,128
1,68,115,64
1,68,0,128
1,66,115,64
1,66,0,256
1,66,115,128
1,66,0,256
1,63,115,320
1,63,0,128
1,73,115,64
1,70,115,192
1,73,0,64
1,70,0,64
1,68,115,64
1,68,0,128
1,68,115,64
1,68,0,384
1,63,115,384
1,63,0,128
1,66,115,64
1,68,115,192
1,66,0,64
1,68,0,64
1,71,115,64
1,71,0,128
1,68,115,64
1,63,115,0
1,59,115,0
1,59,0,384
1,63,0,0
1,68,0,0
1,63,115,384
1,63,0,64
1,63,115,32
1,63,0,64
1,71,115,32
1,71,115,0
1,71,0,168
1,71,0,0
1,70,115,88
1,70,115,0
1,70,0,168
1,70,0,0
1,68,115,88
1,68,115,0
1,68,0,168
1,68,0,0
1,68,115,88
1,68,0,256
1,63,115,320
1,63,0,128
1,75,115,64
1,75,0,168
1,70,115,88
1,70,0,168
1,68,115,88
1,68,0,168
1,68,115,88
1,68,0,256
1,71,115,128
1,71,0,128
1,68,115,256
1,68,0,256
1,63,115,1088
1,63,0,128
1,71,115,64
1,71,0,64
1,70,115,32
1,70,0,128
1,71,115,64
1,71,0,192
1,68,115,96
1,68,0,192
1,68,115,96
1,68,0,64
1,71,115,224
1,71,0,128
1,68,115,256
1,68,0,256
1,63,115,800
1,63,0,64
1,63,115,32
1,63,0,64
1,63,115,32
1,63,0,192
1,66,115,96
1,66,0,64
1,66,115,32
1,66,0,64
1,66,115,32
1,66,0,64
1,66,115,32
1,66,0,64
1,68,115,32
1,68,0,256
1,71,115,512
1,71,0,128
1,68,115,256
1,68,0,256
1,63,115,1184
1,63,0,64
1,71,115,32
1,71,0,128
1,70,115,64
1,70,0,128
1,68,115,64
1,68,0,128
1,68,115,64
1,68,0,256
1,66,115,128
1,66,0,128
1,71,115,64
1,71,0,128
1,68,115,256
1,68,0,256
1,55,115,2624
1,55,0,128
1,63,115,64
1,63,0,384
1,56,115,0
1,56,0,128
1,56,115,64
1,56,0,384
1,63,115,576
1,61,115,192
1,61,0,128
1,59,115,64
1,59,0,128
1,63,0,0
1,56,115,64
1,56,0,128
1,56,115,64
1,56,0,128
1,63,115,256
1,63,0,64
1,61,115,32
1,61,0,192
1,61,115,96
1,61,0,128
1,63,115,1024
1,63,0,64
1,61,115,32
1,61,0,192
1,61,115,96
1,61,0,128
1,59,115,64
1,59,0,128
1,61,115,64
1,61,0,128
1,61,115,64
1,61,0,384
1,59,115,0
1,59,0,256
1,56,115,128
1,56,0,64
1,56,115,32
1,56,0,64
1,63,115,32
1,61,115,192
1,61,0,128
1,59,115,64
1,59,0,128
1,63,0,0
1,56,115,64
1,56,0,128
1,56,115,64
1,56,0,128
1,56,115,448
1,56,0,128
1,54,115,64
1,54,0,128
1,56,115,64
1,56,0,128
1,59,115,64
1,59,0,128
1,59,115,64
1,59,0,128
1,63,115,448
1,63,0,64
1,61,115,32
1,61,0,192
1,61,115,96
1,61,0,128
1,56,115,1024
1,56,0,64
1,56,115,32
1,56,0,192
1,63,115,96
1,63,0,128
1,66,115,64
1,66,0,128
1,66,115,64
1,66,0,128
1,68,115,64
1,68,0,384
1,66,115,0
1,66,0,128
1,68,115,448
1,66,115,192
1,68,0,64
1,66,0,64
1,63,115,64
1,63,0,128
1,68,115,64
1,68,0,384
1,71,115,576
1,71,0,128
1,70,115,64
1,70,0,128
1,68,115,64
1,68,0,128
1,68,115,64
1,68,0,512
1,63,115,256
1,63,0,128
1,71,115,64
1,71,0,128
1,71,115,64
1,71,0,128
1,70,115,64
1,70,0,128
1,70,115,64
1,70,0,128
1,68,115,64
1,68,0,128
1,68,115,64
1,68,0,128
1,66,115,64
1,66,0,256
1,68,115,128
1,68,0,128
1,68,115,64
1,68,0,128
1,66,115,64
1,66,0,256
1,66,115,128
1,66,0,256
1,63,115,320
1,63,0,128
1,73,115,64
1,70,115,192
1,73,0,64
1,70,0,64
1,68,115,64
1,68,0,128
1,68,115,64
1,68,0,384
1,63,115,384
1,63,0,128
1,66,115,64
1,68,115,192
1,66,0,64
1,68,0,64
1,71,115,64
1,71,0,128
1,68,115,64
1,63,115,0
1,59,115,0
1,59,0,384
1,63,0,0
1,68,0,0
1,63,115,384
1,63,0,64
1,63,115,32
1,63,0,64
1,71,115,32
1,71,115,0
1,71,0,168
1,71,0,0
1,70,115,88
1,70,115,0
1,70,0,168
1,70,0,0
1,68,115,88
1,68,115,0
1,68,0,168
1,68,0,0
1,68,115,88
1,68,0,256
1,63,115,320
1,63,0,128
1,75,115,64
1,75,0,168
1,70,115,88
1,70,0,168
1,68,115,88
1,68,0,168
1,68,115,88
1,68,0,256
1,71,115,128
1,71,0,128
1,68,115,256
1,68,0,256
1,63,115,1088
1,63,0,128
1,71,115,64
1,71,0,64
1,70,115,32
1,70,0,128
1,71,115,64
1,71,0,192
1,68,115,96
1,68,0,192
1,68,115,96
1,68,0,64
1,71,115,224
1,71,0,128
1,68,115,256
1,68,0,256
1,63,115,800
1,63,0,64
1,63,115,32
1,63,0,64
1,63,115,32
1,63,0,192
1,66,115,96
1,66,0,64
1,66,115,32
1,66,0,64
1,66,115,32
1,66,0,64
1,66,115,32
1,66,0,64
1,68,115,32
1,68,0,256
1,71,115,512
1,71,0,128
1,68,115,256
1,68,0,256
1,63,115,1184
1,63,0,64
1,71,115,32
1,71,0,128
1,70,115,64
1,70,0,128
1,68,115,64
1,68,0,128
1,68,115,64
1,68,0,256
1,66,115,128
1,66,0,128
1,71,115,64
1,71,0,128
1,68,115,256
1,68,0,256
1,55,115,2624
1,55,0,128
2,69,115,0
2,74,115,0
2,78,115,0
2,78,0,384
2,74,0,0
2,69,0,0
2,73,115,192
2,69,115,0
2,76,115,0
2,76,0,768
2,69,0,0
2,73,0,0
2,74,115,0
2,79,115,0
2,83,115,0
2,83,0,128
2,79,0,0
2,74,0,0
2,78,115,256
2,81,115,0
2,74,115,0
2,74,0,1028
2,81,0,0
2,78,0,0
2,69,115,316
2,74,115,0
2,78,115,0
2,78,0,384
2,74,0,0
2,69,0,0
2,73,115,192
2,69,115,0
2,76,115,0
2,76,0,768
2,69,0,0
2,73,0,0
2,69,115,0
2,76,115,0
2,73,115,0
2,69,0,128
2,70,115,64
2,70,0,128
2,73,0,0
2,76,0,0
2,78,115,64
2,78,0,64
2,76,115,32
2,76,0,64
2,67,115,32
2,71,115,0
2,74,115,0
2,74,0,768
2,71,0,0
2,67,0,0
2,56,115,384
2,63,115,0
2,59,115,0
2,59,0,256
2,63,0,0
2,56,0,0
2,56,115,128
2,56,0,128
2,52,115,64
2,56,115,0
2,56,0,768
2,52,0,0
2,58,115,192
2,63,115,0
2,54,115,0
2,54,0,128
2,63,0,0
2,58,0,0
2,61,115,64
2,61,0,128
2,59,115,64
2,59,0,128
2,56,115,64
2,51,115,0
2,51,0,128
2,56,0,0
2,56,115,64
2,56,0,128
2,63,115,256
2,63,0,64
2,61,115,32
2,61,0,192
2,61,115,96
2,59,115,0
2,56,115,0
2,52,115,0
2,52,0,768
2,61,0,0
2,59,0,0
2,56,0,0
2,63,115,384
2,63,0,64
2,61,115,32
2,61,0,192
2,61,115,96
2,58,115,0
2,54,115,0
2,54,0,128
2,58,0,0
2,61,0,0
2,59,115,64
2,59,0,128
2,61,115,64
2,61,0,128
2,61,115,64
2,58,115,0
2,54,115,0
2,54,0,256
2,58,0,0
2,61,0,0
2,59,115,128
2,59,0,128
2,56,115,256
2,56,0,64
2,56,115,32
2,56,0,64
2,63,115,32
2,59,115,0
2,56,115,0
2,56,0,128
2,59,0,0
2,63,0,0
2,61,115,64
2,61,0,128
2,59,115,64
2,59,0,128
2,56,115,64
2,52,115,0
2,52,0,128
2,56,0,0
2,56,115,64
2,56,0,256
2,56,115,320
2,56,0,128
2,54,115,64
2,54,0,128
2,56,115,64
2,56,0,128
2,59,115,64
2,59,0,128
2,59,115,64
2,56,115,0
2,56,0,384
2,59,0,0
2,63,115,192
2,63,0,64
2,61,115,32
2,61,0,192
2,61,115,96
2,59,115,0
2,56,115,0
2,52,115,0
2,52,0,768
2,61,0,0
2,59,0,0
2,56,0,0
2,56,115,384
2,56,0,64
2,56,115,32
2,56,0,192
2,63,115,96
2,58,115,0
2,54,115,0
2,54,0,128
2,58,0,0
2,63,0,0
2,66,115,64
2,66,0,128
2,66,115,64
2,66,0,128
2,68,115,64
2,66,115,0
2,61,115,0
2,58,115,0
2,58,0,256
2,68,0,0
2,66,0,0
2,61,0,0
2,58,115,128
2,66,115,0
2,59,115,0
2,59,0,384
2,66,0,0
2,58,0,0
2,68,115,192
2,59,115,0
2,63,115,0
2,63,0,128
2,59,0,0
2,68,0,0
2,66,115,64
2,66,0,128
2,63,115,64
2,63,0,128
2,68,115,64
2,64,115,0
2,59,115,0
2,59,0,768
2,64,0,0
2,68,0,0
2,61,115,192
2,66,115,0
2,71,115,0
2,71,0,128
2,66,0,0
2,61,0,0
2,70,115,64
2,70,0,128
2,68,115,64
2,68,0,128
2,68,115,64
2,63,115,0
2,59,115,0
2,59,0,512
2,63,0,0
2,68,0,0
2,63,115,256
2,63,0,128
2,71,115,64
2,64,115,0
2,59,115,0
2,59,0,128
2,64,0,0
2,71,0,0
2,71,115,64
2,71,0,128
2,70,115,64
2,64,115,0
2,59,115,0
2,59,0,128
2,64,0,0
2,70,0,0
2,70,115,64
2,70,0,128
2,68,115,64
2,64,115,0
2,59,115,0
2,59,0,128
2,64,0,0
2,68,0,0
2,68,115,64
2,68,0,128
2,66,115,64
2,64,115,0
2,59,115,0
2,59,0,256
2,64,0,0
2,66,0,0
2,68,115,128
2,66,115,0
2,61,115,0
2,58,115,0
2,58,0,128
2,68,0,0
2,66,0,0
2,61,0,0
2,68,115,64
2,68,0,128
2,58,115,64
2,61,115,0
2,66,115,0
2,66,0,256
2,61,0,0
2,58,0,0
2,58,115,128
2,61,115,0
2,66,115,0
2,66,0,256
2,61,0,0
2,58,0,0
2,63,115,320
2,63,0,128
2,63,115,64
2,68,115,0
2,71,115,0
2,71,0,128
2,68,0,0
2,63,0,0
2,70,115,64
2,70,0,128
2,68,115,64
2,68,0,128
2,68,115,64
2,64,115,0
2,59,115,0
2,59,0,384
2,64,0,0
2,68,0,0
2,63,115,384
2,63,0,128
2,66,115,64
2,61,115,0
2,58,115,0
2,58,0,128
2,61,0,0
2,66,0,0
2,68,115,64
2,68,0,128
2,71,115,64
2,71,0,128
2,68,115,64
2,63,115,0
2,59,115,0
2,59,0,384
2,63,0,0
2,68,0,0
2,63,115,384
2,63,0,64
2,63,115,32
2,63,0,64
2,71,115,32
2,64,115,0
2,59,115,0
2,59,0,168
2,64,0,0
2,71,0,0
2,70,115,88
2,70,0,168
2,68,115,88
2,68,0,168
2,68,115,88
2,64,115,0
2,59,115,0
2,59,0,256
2,64,0,0
2,68,0,0
2,63,115,320
2,63,0,128
2,61,115,64
2,66,115,0
2,71,115,0
2,71,0,168
2,66,0,0
2,61,0,0
2,70,115,88
2,70,0,168
2,68,115,88
2,68,0,168
2,68,115,88
2,66,115,0
2,61,115,0
2,58,115,0
2,58,0,256
2,68,0,0
2,66,0,0
2,61,0,0
2,61,115,128
2,66,115,0
2,71,115,0
2,71,0,128
2,66,0,0
2,61,0,0
2,68,115,256
2,63,115,0
2,56,115,0
2,56,0,1028
2,63,0,0
2,68,0,0
2,63,115,316
2,63,0,128
2,71,115,64
2,71,0,64
2,70,115,32
2,70,0,128
2,71,115,64
2,71,0,192
2,68,115,96
2,68,0,192
2,68,115,96
2,68,0,64
2,71,115,224
2,71,0,128
2,68,115,256
2,66,115,0
2,63,115,0
2,59,115,0
2,59,0,768
2,68,0,0
2,66,0,0
2,63,0,0
2,63,115,288
2,63,0,64
2,63,115,32
2,63,0,64
2,63,115,32
2,63,0,192
2,66,115,96
2,66,0,64
2,66,115,32
2,66,0,64
2,66,115,32
2,66,0,64
2,66,115,32
2,66,0,64
2,68,115,32
2,68,0,512
2,71,115,256
2,66,115,0
2,61,115,0
2,61,0,128
2,66,0,0
2,71,0,0
2,68,115,256
2,63,115,0
2,56,115,0
2,56,0,768
2,63,0,0
2,68,0,0
2,63,115,672
2,63,0,64
2,71,115,32
2,66,115,0
2,66,0,128
2,71,0,0
2,70,115,64
2,70,0,128
2,68,115,64
2,68,0,128
2,68,115,64
2,68,0,256
2,66,115,128
2,66,0,128
2,71,115,64
2,71,0,128
2,68,115,256
2,66,115,0
2,63,115,0
2,59,115,0
2,59,0,1028
2,68,0,0
2,66,0,0
2,63,0,0
2,59,115,508
2,53,115,0
2,53,0,128
2,59,0,0
2,59,115,256
2,52,115,0
2,52,0,128
2,59,0,0
2,59,115,256
2,53,115,0
2,53,0,128
2,59,0,0
2,55,115,448
2,55,0,128
2,56,115,64
2,63,115,0
2,59,115,0
2,59,0,256
2,63,0,0
2,56,0,0
2,56,115,128
2,56,0,128
2,52,115,64
2,56,115,0
2,56,0,768
2,52,0,0
2,58,115,192
2,63,115,0
2,54,115,0
2,54,0,128
2,63,0,0
2,58,0,0
2,61,115,64
2,61,0,128
2,59,115,64
2,59,0,128
2,56,115,64
2,51,115,0
2,51,0,128
2,56,0,0
2,56,115,64
2,56,0,128
2,63,115,256
2,63,0,64
2,61,115,32
2,61,0,192
2,61,115,96
2,59,115,0
2,56,115,0
2,52,115,0
2,52,0,768
2,61,0,0
2,59,0,0
2,56,0,0
2,63,115,384
2,63,0,64
2,61,115,32
2,61,0,192
2,61,115,96
2,58,115,0
2,54,115,0
2,54,0,128
2,58,0,0
2,61,0,0
2,59,115,64
2,59,0,128
2,61,115,64
2,61,0,128
2,61,115,64
2,58,115,0
2,54,115,0
2,54,0,256
2,58,0,0
2,61,0,0
2,59,115,128
2,59,0,128
2,56,115,256
2,56,0,64
2,56,115,32
2,56,0,64
2,63,115,32
2,59,115,0
2,56,115,0
2,56,0,128
2,59,0,0
2,63,0,0
2,61,115,64
2,61,0,128
2,59,115,64
2,59,0,128
2,56,115,64
2,52,115,0
2,52,0,128
2,56,0,0
2,56,115,64
2,56,0,256
2,56,115,320
2,56,0,128
2,54,115,64
2,54,0,128
2,56,115,64
2,56,0,128
2,59,115,64
2,59,0,128
