track,note,velocity,time
0,36,84,243
0,36,84,13
0,38,84,3
0,38,110,6
0,36,102,58
0,36,102,1
0,49,94,0
0,67,80,1
0,75,80,0
0,48,92,1
0,55,92,0
0,36,84,1
0,77,109,4
0,77,109,8
0,38,84,4
0,48,91,1
0,55,93,0
0,51,84,0
0,32,102,0
0,32,102,0
0,77,109,0
0,44,92,1
0,68,80,0
0,75,80,0
0,36,84,0
0,46,84,0
0,77,109,0
0,77,109,1
0,34,102,1
0,34,102,0
0,44,92,0
0,51,91,0
0,44,84,1
0,38,84,2
0,77,109,1
0,44,93,2
0,51,98,0
0,36,84,0
0,75,109,1
0,36,102,0
0,36,102,0
0,77,109,0
0,75,109,1
0,46,94,0
0,34,102,1
0,34,102,0
0,65,80,0
0,74,80,0
0,44,84,1
0,53,86,0
0,36,84,0
0,77,109,1
0,53,87,3
0,46,84,1
0,44,84,2
0,53,87,1
0,38,84,0
0,75,109,1
0,46,94,0
0,34,102,0
0,34,102,0
0,75,109,2
0,72,109,1
0,48,86,0
0,55,93,0
0,36,102,0
0,36,102,1
0,67,80,0
0,75,80,0
0,36,84,1
0,44,84,1
0,72,109,1
0,44,84,3
0,38,84,1
0,55,97,0
0,48,90,0
0,70,109,1
0,36,84,2
0,48,83,0
0,70,109,0
0,55,85,1
0,72,109,0
0,51,94,0
0,36,84,0
0,72,109,0
0,44,93,1
0,68,80,0
0,75,80,0
0,32,102,1
0,32,102,0
0,46,84,0
0,77,109,0
0,77,109,0
0,44,84,0
0,44,96,1
0,51,103,0
0,38,84,1
0,77,109,1
0,53,88,0
0,70,80,1
0,74,80,0
0,34,102,0
0,34,102,0
0,36,84,0
0,46,101,0
0,46,84,1
0,77,109,1
0,44,84,2
0,31,102,1
0,31,102,0
0,77,109,0
0,53,99,1
0,38,84,0
0,46,92,1
0,75,109,0
0,77,109,1
0,46,89,0
0,53,92,1
0,34,102,1
0,34,102,1
0,36,84,0
0,75,109,2
0,77,109,1
0,51,86,1
0,58,91,1
0,39,102,0
0,39,102,0
0,44,84,0
0,67,80,0
0,75,80,0
0,36,84,0
0,77,109,1
0,75,109,1
0,72,109,0
0,55,90,1
0,36,102,0
0,36,102,0
0,67,80,0
0,75,80,0
0,38,84,1
0,48,89,0
0,44,84,0
0,75,109,0
0,72,109,0
0,55,91,1
0,48,94,0
0,38,84,1
0,31,102,6
0,31,102,0
0,36,84,1
0,48,92,0
0,55,86,1
0,34,102,1
0,34,102,0
0,55,93,1
0,38,84,0
0,48,85,0
0,36,84,2
0,48,95,0
0,55,97,0
0,35,102,1
0,35,102,0
0,46,84,5
0,67,80,0
0,36,84,0
0,36,102,1
0,36,102,0
0,75,80,0
0,48,92,0
0,55,92,0
0,77,109,1
0,77,109,2
0,48,91,6
0,55,93,0
0,44,84,0
0,38,84,2
0,46,84,1
0,36,84,0
0,68,80,0
0,75,80,0
0,51,84,1
0,44,92,0
0,32,102,0
0,32,102,0
0,77,109,0
0,77,109,0
0,44,84,3
0,77,109,1
0,44,84,0
0,44,92,0
0,51,91,0
0,34,102,1
0,34,102,0
0,38,84,1
0,77,109,1
0,36,102,0
0,36,102,0
0,44,93,1
0,51,98,0
0,75,109,0
0,36,84,2
0,75,109,1
0,46,94,0
0,77,109,0
0,34,102,0
0,34,102,1
0,65,80,0
0,74,80,0
0,36,84,1
0,53,86,0
0,44,84,1
0,77,109,1
0,53,87,4
0,46,84,2
0,53,87,1
0,38,84,0
0,75,109,0
0,34,102,1
0,34,102,0
0,46,94,0
0,44,84,1
0,75,109,1
0,48,86,6
0,55,93,0
0,72,109,0
0,44,84,1
0,67,80,0
0,75,80,0
0,36,84,0
0,36,102,1
0,36,102,0
0,72,109,1
0,44,84,4
0,55,97,1
0,48,90,1
0,38,84,0
0,70,109,2
0,48,83,1
0,70,109,1
0,36,84,0
0,55,85,0
0,72,109,1
0,72,109,1
0,51,94,1
0,68,80,0
0,75,80,0
0,44,93,1
0,32,102,0
0,36,84,0
0,32,102,0
0,46,84,0
0,77,109,1
0,77,109,1
0,44,96,0
0,51,103,0
0,38,84,1
0,44,84,0
0,34,102,1
0,36,84,0
0,34,102,0
0,53,88,0
0,46,84,0
0,65,80,0
0,74,80,0
0,46,101,1
0,77,122,0
0,77,122,1
0,53,99,2
0,44,84,1
0,38,84,0
0,46,92,0
0,46,89,1
0,53,92,0
0,53,91,0
0,46,94,1
0,44,84,0
0,46,92,1
0,36,84,0
0,53,86,0
0,38,84,2
0,53,90,0
0,44,84,0
0,46,89,0
0,53,91,0
0,46,94,0
0,44,84,0
0,46,92,1
0,53,86,0
0,36,84,1
0,36,84,2
0,53,93,1
0,46,85,0
0,38,84,0
0,46,95,3
0,53,97,0
0,38,84,0
0,46,84,1
0,84,127,0
0,36,112,0
0,36,112,0
0,36,84,1
0,70,80,0
0,75,80,0
0,48,127,0
0,79,127,1
0,43,114,1
0,31,112,1
0,31,112,0
0,82,127,1
0,46,127,0
0,77,127,0
0,44,84,1
0,38,84,0
0,34,112,1
0,34,112,0
0,79,127,1
0,36,112,8
0,36,112,0
0,75,127,3
0,44,84,1
0,77,127,1
0,51,110,0
0,36,84,1
0,39,112,0
0,39,112,0
0,74,127,0
0,39,112,16
0,39,112,0
0,51,118,0
0,75,127,2
0,38,84,0
0,48,127,0
0,44,84,1
0,36,112,0
0,36,112,1
0,72,127,0
0,74,127,0
0,34,112,2
0,34,112,1
0,70,127,0
0,36,112,1
0,36,112,0
0,72,127,0
0,44,84,1
0,48,127,0
0,36,84,0
0,67,127,1
0,31,112,0
0,31,112,1
0,70,127,0
0,44,84,3
0,65,127,1
0,38,84,0
0,34,112,1
0,34,112,0
0,46,127,1
0,67,127,1
0,36,112,11
0,36,112,0
0,63,127,1
0,44,84,0
0,65,127,0
0,51,118,1
0,36,84,0
0,39,112,1
0,39,112,0
0,62,127,2
0,39,112,2
0,39,112,0
0,51,127,1
0,36,84,0
0,63,127,2
0,36,112,1
0,36,112,0
0,44,84,1
0,48,127,0
0,38,84,0
0,60,127,2
0,62,127,1
0,58,125,1
0,36,112,18
0,36,112,0
0,36,84,0
0,84,127,1
0,75,80,1
0,82,80,0
0,48,127,0
0,44,84,1
0,79,127,1
0,31,112,3
0,31,112,0
0,82,127,1
0,44,84,1
0,34,112,0
0,34,112,0
0,38,84,1
0,77,127,1
0,46,127,0
0,79,127,0
0,36,112,3
0,36,112,0
0,75,127,4
0,39,112,0
0,39,112,0
0,51,127,1
0,36,84,0
0,44,84,2
0,77,127,0
0,74,127,0
0,51,105,0
0,39,112,0
0,39,112,0
0,75,127,2
0,36,112,2
0,36,112,0
0,48,123,0
0,38,84,0
0,44,84,1
0,72,127,0
0,74,127,1
0,34,112,13
0,34,112,0
0,46,95,3
0,70,127,0
0,44,84,0
0,72,127,0
0,36,84,0
0,36,112,0
0,36,112,0
0,58,115,0
0,48,127,1
0,63,115,0
0,67,127,2
0,58,115,0
0,63,115,1
0,31,112,1
0,31,112,0
0,70,127,0
0,34,112,8
0,34,112,0
0,65,127,0
0,38,84,0
0,46,127,1
0,44,84,0
0,67,127,0
0,36,112,1
0,36,112,0
0,63,127,3
0,36,84,0
0,65,127,0
0,39,112,0
0,39,112,0
0,51,127,1
0,62,127,2
0,48,127,0
0,51,119,0
0,48,107,1
0,48,127,0
0,60,127,0
0,39,122,0
0,39,122,0
0,24,107,0
0,36,111,1
0,63,127,1
0,84,107,1
0,84,127,0
0,72,127,1
0,60,127,0
0,52,111,0
0,60,107,0
0,36,122,0
0,36,122,1
0,72,127,0
0,84,127,0
0,38,111,1
0,48,125,0
0,62,127,2
0,67,116,0
0,36,111,0
0,58,127,0
0,46,94,0
0,36,102,0
0,36,102,0
0,36,111,0
0,84,80,0
0,70,116,0
0,48,127,1
0,43,114,0
0,72,116,1
0,31,102,1
0,31,102,0
0,42,92,6
0,46,127,1
0,38,84,1
0,34,102,1
0,34,102,0
0,36,102,8
0,36,102,1
0,72,116,1
0,36,84,5
0,51,110,1
0,39,102,0
0,39,102,1
0,42,92,0
0,51,118,19
0,39,102,1
0,39,102,0
0,38,84,1
0,36,102,1
0,36,102,0
0,48,127,0
0,42,92,1
0,34,102,0
0,34,102,1
0,67,116,1
0,42,92,0
0,36,84,0
0,82,80,0
0,48,127,0
0,70,116,1
0,36,102,0
0,36,102,0
0,31,102,0
0,31,102,0
0,34,102,0
0,34,102,1
0,84,80,0
0,72,116,1
0,42,92,0
0,46,127,0
0,38,84,0
0,36,102,0
0,36,102,1
0,42,92,0
0,36,84,0
0,51,118,0
0,39,102,1
0,39,102,0
0,87,80,0
0,75,116,0
0,51,127,2
0,39,102,0
0,39,102,0
0,38,84,1
0,48,127,1
0,36,102,0
0,36,102,0
0,44,84,0
0,36,84,0
0,72,116,1
0,36,84,0
0,77,80,1
0,42,92,0
0,36,102,1
0,84,80,0
0,75,116,0
0,48,127,0
0,36,102,0
0,31,102,1
0,31,102,0
0,75,116,9
0,38,84,11
0,34,102,0
0,34,102,0
0,46,127,0
0,42,92,1
0,75,116,2
0,36,102,2
0,36,102,0
0,51,127,0
0,42,92,0
0,39,102,1
0,39,102,0
0,75,116,0
0,36,84,0
0,51,105,0
0,39,102,2
0,39,102,0
0,72,116,3
0,42,92,0
0,38,84,0
0,48,123,0
0,36,102,1
0,36,102,1
0,72,116,4
0,34,102,0
0,34,102,0
0,46,95,0
0,75,80,0
0,42,92,0
0,48,127,0
0,79,80,0
0,75,116,1
0,36,102,0
0,36,102,1
0,36,84,0
0,31,102,0
0,31,102,0
0,74,116,7
0,42,92,11
0,34,102,1
0,34,102,0
0,38,84,0
0,46,127,1
0,72,116,1
0,36,102,0
0,36,102,1
0,36,84,1
0,72,116,1
0,39,102,1
0,51,127,0
0,42,92,1
0,39,102,0
0,51,119,23
0,38,84,1
0,39,102,0
0,39,102,1
0,36,102,1
0,36,102,0
0,38,84,0
0,44,84,0
0,48,125,1
0,36,84,3
0,36,84,0
0,36,102,0
0,36,102,0
0,84,80,0
0,70,116,0
0,48,127,1
0,49,106,0
0,43,114,0
0,31,102,1
0,31,102,0
0,72,116,0
0,42,92,29
0,46,127,0
0,34,102,1
0,70,116,0
0,34,102,0
0,38,84,1
0,36,102,1
0,72,116,0
0,36,102,0
0,42,92,23
0,39,102,0
0,51,110,0
0,39,102,1
0,36,84,1
0,51,118,24
0,39,102,0
0,39,102,0
0,48,127,0
0,42,92,0
0,38,84,0
0,36,102,1
0,36,102,0
0,46,106,0
0,67,116,0
0,34,102,1
0,34,102,0
0,67,116,1
0,36,102,22
0,36,102,0
0,42,92,0
0,36,84,0
0,70,116,0
0,82,80,0
0,48,127,0
0,31,102,2
0,31,102,0
0,43,106,1
0,72,116,0
0,42,92,0
0,38,84,0
0,34,102,1
0,34,102,0
0,46,127,1
0,36,102,1
0,36,102,0
0,39,102,0
0,39,102,0
0,51,118,0
0,42,92,0
0,36,84,0
0,75,116,1
0,51,127,2
0,39,102,2
0,39,102,0
0,44,84,0
0,48,127,0
0,36,102,0
0,36,102,0
0,38,84,1
0,72,116,3
0,42,92,0
0,84,80,0
0,75,116,1
0,36,102,0
0,36,84,1
0,48,127,0
0,36,102,0
0,31,102,0
0,43,106,0
0,31,102,0
0,75,116,15
0,42,92,0
0,38,84,0
0,46,127,1
0,34,102,0
0,34,102,1
0,75,116,5
0,48,106,16
0,36,84,1
0,36,102,0
0,36,102,0
0,36,84,1
0,39,102,1
0,51,127,0
0,39,102,0
0,42,92,1
0,75,116,0
0,51,105,0
0,39,102,2
0,39,102,0
0,72,116,4
0,36,102,0
0,38,84,0
0,36,102,0
0,42,92,1
0,48,123,0
0,72,116,8
0,34,102,1
0,34,102,0
0,46,95,2
0,42,92,0
0,87,80,1
0,36,84,0
0,48,119,0
0,75,116,1
0,36,102,0
0,36,102,0
0,31,102,0
0,31,102,0
0,86,80,1
0,74,116,0
0,34,102,3
0,34,102,0
0,42,92,1
0,38,84,0
0,46,127,0
0,84,80,1
0,72,116,0
0,36,84,1
0,36,102,1
0,36,102,0
0,42,92,10
0,36,84,0
0,39,102,0
0,39,102,0
0,72,116,0
0,84,80,1
0,51,127,0
0,51,119,2
0,39,102,0
0,39,102,0
0,38,84,1
0,38,84,0
0,48,125,2
0,36,102,0
0,36,102,0
0,38,84,0
0,36,84,3
0,46,84,1
0,53,109,0
0,60,109,0
0,65,109,0
0,77,116,1
0,29,102,0
0,41,121,0
0,48,121,1
0,29,102,0
0,53,109,0
0,60,109,0
0,65,109,1
0,29,102,1
0,29,102,0
0,51,100,0
0,38,84,0
0,75,116,1
0,29,102,1
0,29,102,0
0,41,113,0
0,48,113,0
0,41,109,1
0,48,114,0
0,29,102,0
0,72,116,0
0,29,102,0
0,29,102,3
0,29,102,0
0,41,124,1
0,48,124,0
0,36,84,0
0,51,100,1
0,29,102,1
0,29,102,0
0,41,109,2
0,48,109,0
0,38,84,1
0,29,102,0
0,29,102,0
0,51,100,1
0,41,120,0
0,48,120,0
0,72,116,0
0,72,116,5
0,29,102,1
0,29,102,1
0,41,119,0
0,48,119,0
0,36,84,27
0,77,116,0
0,29,102,1
0,51,100,0
0,29,102,0
0,41,107,0
0,48,107,1
0,29,102,0
0,29,102,1
0,29,102,1
0,41,116,0
0,48,116,0
0,79,116,0
0,29,102,0
0,51,100,1
0,38,84,1
0,41,118,0
0,48,118,0
0,75,116,0
0,29,102,1
0,29,102,0
0,51,100,1
0,36,84,0
0,34,102,1
0,34,102,0
0,46,127,0
0,53,127,0
0,38,84,1
0,49,94,0
0,46,84,1
0,38,84,1
0,47,127,0
0,54,127,1
0,35,102,0
0,35,102,0
0,36,84,2
0,58,78,0
0,63,79,0
0,36,102,0
0,49,124,0
0,36,102,1
0,48,127,0
0,31,102,1
0,31,102,0
0,43,114,1
0,58,109,1
0,63,109,0
0,58,109,6
0,63,109,0
0,58,109,13
0,63,109,0
0,38,84,1
0,44,84,0
0,46,127,1
0,34,102,1
0,58,109,0
0,63,109,0
0,34,102,1
0,58,109,3
0,63,109,0
0,58,109,13
0,63,109,0
0,36,102,3
0,36,102,0
0,51,110,1
0,36,84,0
0,58,109,0
0,63,109,1
0,42,92,0
0,39,102,0
0,39,102,0
0,58,109,2
0,63,109,0
0,39,102,2
0,51,118,0
0,39,102,0
0,58,109,2
0,63,109,0
0,58,109,1
0,63,109,0
0,44,84,2
0,38,84,1
0,48,127,0
0,36,102,1
0,36,102,0
0,34,102,0
0,34,102,0
0,42,92,0
0,36,84,0
0,36,102,1
0,36,102,0
0,48,127,0
0,31,102,0
0,31,102,0
0,43,119,1
0,34,102,0
0,34,102,0
0,38,84,1
0,44,84,0
0,46,127,1
0,36,102,0
0,36,102,0
0,51,118,0
0,42,92,1
0,39,102,1
0,36,84,0
0,39,102,0
0,51,127,0
0,36,84,0
0,39,102,0
0,39,102,0
0,36,102,2
0,48,127,0
0,38,84,0
0,36,102,0
0,44,84,1
0,36,84,0
0,58,109,0
0,34,102,0
0,34,102,0
0,46,127,0
0,53,127,1
0,77,116,0
0,65,109,0
0,70,109,0
0,49,94,1
0,58,109,2
0,65,109,1
0,70,109,0
0,34,102,0
0,34,102,1
0,38,84,1
0,51,100,0
0,34,102,1
0,34,102,1
0,46,127,0
0,53,127,0
0,34,102,0
0,34,102,1
0,46,127,0
0,53,127,0
0,75,116,0
0,34,102,1
0,34,102,0
0,72,116,0
0,51,100,0
0,36,84,1
0,46,127,1
0,53,127,0
0,36,84,0
0,34,102,1
0,34,102,0
0,46,127,1
0,53,127,0
0,38,84,0
0,46,127,1
0,53,127,0
0,34,102,1
0,34,102,0
0,51,100,0
0,34,102,1
0,34,102,0
0,46,124,0
0,53,124,0
0,72,116,0
0,34,102,1
0,34,102,0
0,77,116,0
0,36,84,1
0,51,100,0
0,46,127,0
0,53,127,1
0,34,102,1
0,34,102,0
0,65,127,0
0,77,116,4
0,65,127,4
0,51,100,0
0,70,127,0
0,38,84,1
