track,note,velocity,time
1,1,127,0
1,1,0,384
1,66,127,384
1,63,127,0
1,59,127,1
1,80,127,1
1,80,0,32
1,78,127,1
1,75,127,31
1,78,0,1
1,80,127,32
1,75,0,4
1,80,0,27
1,78,127,0
1,75,127,32
1,78,0,1
1,80,127,29
1,75,0,4
1,80,0,29
1,78,127,1
1,75,127,32
1,78,0,1
1,80,127,30
1,75,0,5
1,78,127,28
1,80,0,1
1,59,0,23
1,63,0,0
1,75,127,7
1,66,0,2
1,78,0,1
1,75,0,23
1,61,127,4
1,66,127,0
1,58,127,0
1,80,127,3
1,80,0,30
1,78,127,2
1,73,127,30
1,78,0,1
1,80,127,32
1,73,0,4
1,80,0,28
1,78,127,0
1,73,127,32
1,78,0,1
1,80,127,30
1,73,0,6
1,78,127,25
1,80,0,1
1,73,127,31
1,78,0,1
1,80,127,30
1,73,0,3
1,78,127,30
1,58,0,1
1,80,0,0
1,61,0,5
1,66,0,15
1,78,0,11
1,73,127,1
1,73,0,18
1,63,127,12
1,66,127,0
1,59,127,0
1,80,127,3
1,80,0,30
1,78,127,0
1,78,0,27
1,75,127,7
1,80,127,32
1,75,0,1
1,80,0,31
1,78,127,1
1,78,0,31
1,75,127,1
1,75,0,31
1,80,127,1
1,80,0,32
1,78,127,0
1,75,127,30
1,78,0,1
1,80,127,32
1,75,0,4
1,78,127,29
1,80,0,1
1,59,0,23
1,63,0,0
1,66,0,2
1,78,0,6
1,75,127,1
1,75,0,24
1,61,127,6
1,66,127,0
1,58,127,0
1,80,127,3
1,80,0,29
1,78,127,0
1,73,127,33
1,78,0,1
1,80,127,31
1,73,0,2
1,80,0,28
1,78,127,1
1,73,127,33
1,78,0,1
1,80,127,30
1,73,0,13
1,78,127,19
1,80,0,3
1,66,0,26
1,73,127,2
1,78,0,1
1,66,127,31
1,73,0,1
1,73,127,32
1,68,127,0
1,66,0,1
1,61,0,5
1,58,0,0
1,68,0,8
1,70,127,2
1,73,0,16
1,68,127,1
1,70,0,1
1,68,0,12
1,66,127,2
1,66,0,15
1,59,127,0
1,75,127,2
1,63,127,32
1,66,127,32
1,75,0,1
1,75,127,31
1,71,127,32
1,66,0,6
1,66,127,26
1,63,0,4
1,59,0,15
1,59,127,11
1,66,0,15
1,63,127,19
1,66,127,32
1,71,0,4
1,75,0,12
1,71,127,16
1,75,127,31
1,71,0,7
1,63,0,12
1,59,0,0
1,66,0,3
1,71,127,11
1,71,0,27
1,58,127,2
1,75,0,3
1,73,127,0
1,70,127,31
1,61,127,32
1,70,0,12
1,73,0,18
1,78,127,2
1,66,127,0
1,70,127,0
1,73,127,32
1,70,0,3
1,66,0,26
1,61,0,0
1,70,127,3
1,58,0,19
1,58,127,13
1,73,0,28
1,61,127,3
1,70,0,4
1,78,0,24
1,66,127,5
1,66,0,30
1,73,127,2
1,68,127,0
1,68,0,10
1,61,0,4
1,70,127,3
1,70,0,15
1,68,127,1
1,58,0,13
1,61,127,16
1,68,0,1
1,73,0,1
1,66,127,1
1,61,0,23
1,66,0,6
1,71,127,1
1,75,127,1
1,59,127,1
1,66,127,32
1,63,127,67
1,66,0,6
1,71,0,12
1,75,0,6
1,66,127,10
1,59,0,13
1,71,127,17
1,59,127,32
1,63,0,1
1,63,127,31
1,66,0,8
1,66,127,23
1,71,0,3
1,71,127,29
1,66,0,7
1,63,0,24
1,66,127,0
1,59,0,23
1,63,127,11
1,71,0,6
1,66,0,1
1,58,127,23
1,70,127,0
1,66,127,0
1,73,127,0
1,63,0,1
1,61,127,30
1,66,0,13
1,70,0,16
1,66,127,5
1,70,127,32
1,66,0,11
1,66,127,22
1,61,0,2
1,58,0,16
1,61,127,11
1,58,127,32
1,61,0,1
1,66,0,0
1,70,0,15
1,61,127,15
1,73,0,1
1,68,127,29
1,73,127,2
1,68,0,11
1,70,127,3
1,70,0,15
1,68,127,3
1,68,0,29
1,61,0,3
1,66,127,0
1,58,0,7
1,61,127,24
1,73,0,2
1,66,0,6
1,61,0,22
1,75,127,2
1,59,127,2
1,66,127,32
1,63,127,32
1,71,127,32
1,66,0,4
1,66,127,28
1,63,0,4
1,63,127,26
1,59,0,1
1,59,127,30
1,63,0,2
1,63,127,30
1,66,0,4
1,71,0,4
1,66,127,23
1,75,0,1
1,75,127,32
1,71,127,31
1,66,0,3
1,63,0,1
1,59,0,4
1,66,127,26
1,75,0,20
1,58,127,11
1,71,0,20
1,61,127,11
1,66,0,6
1,66,127,29
1,73,127,32
1,70,127,33
1,66,0,2
1,61,0,29
1,66,127,0
1,58,0,5
1,61,127,25
1,66,0,3
1,70,0,0
1,73,0,2
1,68,127,31
1,70,127,14
1,68,0,3
1,78,127,14
1,70,0,17
1,66,127,17
1,61,0,7
1,70,127,25
1,66,0,5
1,61,127,24
1,66,127,4
1,78,0,4
1,70,0,2
1,61,0,14
1,59,127,9
1,66,0,14
1,63,127,17
1,66,127,32
1,75,127,32
1,66,0,7
1,66,127,26
1,63,0,5
1,59,0,14
1,63,127,11
1,59,127,32
1,63,0,1
1,63,127,31
1,66,0,3
1,66,127,28
1,71,127,32
1,66,0,6
1,63,0,24
1,66,127,2
1,59,0,31
1,63,127,0
1,71,0,30
1,58,127,2
1,75,0,1
1,63,0,1
1,66,0,2
1,61,127,29
1,66,127,32
1,73,127,33
1,66,0,10
1,70,127,24
1,66,127,29
1,58,0,7
1,61,0,2
1,70,0,22
1,58,127,0
1,73,0,1
1,66,0,12
1,61,127,21
1,68,127,32
1,73,127,0
1,68,0,11
1,70,127,6
1,70,0,13
1,68,127,2
1,68,0,32
1,66,127,1
1,61,0,6
1,58,0,21
1,61,127,3
1,61,0,13
1,58,127,19
1,66,0,1
1,73,0,4
1,61,127,28
1,65,127,32
1,70,127,33
1,73,127,0
1,65,0,39
1,58,0,25
1,61,0,1
1,65,127,1
1,65,0,48
1,73,0,6
1,70,0,0
1,59,127,15
1,63,127,31
1,66,127,33
1,75,127,0
1,71,127,31
1,66,0,8
1,59,0,22
1,63,0,0
1,66,127,3
1,58,127,28
1,75,0,2
1,71,0,0
1,66,0,2
1,61,127,28
1,66,127,31
1,73,127,30
1,70,127,32
1,66,0,6
1,66,127,25
1,61,0,6
1,58,0,1
1,58,127,24
1,73,0,15
1,70,0,12
1,61,127,5
1,66,0,11
1,68,127,21
1,73,127,0
1,68,0,13
1,70,127,3
1,70,0,15
1,68,127,1
1,68,0,32
1,66,127,1
1,61,0,1
1,58,0,6
1,61,127,24
1,61,0,20
1,73,0,10
1,59,127,1
1,66,0,3
1,63,127,31
1,66,127,31
1,71,127,32
1,75,127,1
1,66,0,7
1,66,127,26
1,63,0,7
1,59,0,4
1,63,127,20
1,59,127,33
1,63,0,5
1,63,127,27
1,66,0,5
1,71,0,4
1,75,0,20
1,66,127,3
1,75,127,29
1,71,127,34
1,66,0,7
1,66,127,28
1,59,0,4
1,63,0,2
1,75,0,5
1,71,0,2
1,66,0,3
1,59,127,12
1,63,127,35
1,66,127,31
1,75,127,30
1,71,127,34
1,66,0,4
1,59,0,9
1,63,0,1
1,75,0,14
1,66,127,2
1,71,0,1
1,66,0,20
1,65,127,11
1,61,127,0
1,68,127,2
1,73,127,0
1,65,0,42
1,65,127,22
1,61,0,7
1,61,127,27
1,65,0,13
1,73,0,20
1,68,0,0
1,65,127,0
1,68,127,32
1,65,0,18
1,68,0,5
1,61,0,3
1,54,127,2
1,61,127,30
1,73,127,33
1,68,127,2
1,70,127,30
1,68,0,1
1,66,127,33
1,61,0,2
1,54,0,17
1,61,127,10
1,54,127,32
1,61,0,1
1,70,0,2
1,66,0,0
1,73,0,1
1,61,127,28
1,68,127,33
1,68,0,30
1,70,127,2
1,73,127,2
1,73,0,6
1,66,127,23
1,61,0,7
1,54,0,20
1,61,127,5
1,61,0,22
1,70,0,7
1,59,127,4
1,66,0,14
1,63,127,19
1,66,127,32
1,66,0,28
1,75,127,3
1,59,0,30
1,63,0,2
1,71,127,1
1,66,127,31
1,75,0,12
1,59,127,19
1,71,0,25
1,66,0,6
1,63,127,0
1,66,127,32
1,66,0,54
1,66,127,12
1,63,0,21
1,59,0,2
1,71,127,9
1,66,0,8
1,71,0,24
1,54,127,2
1,70,127,2
1,66,127,30
1,70,0,1
1,61,127,31
1,66,0,23
1,73,127,8
1,68,127,0
1,61,0,32
1,66,127,1
1,68,0,1
1,61,127,30
1,54,0,4
1,54,127,27
1,61,0,1
1,61,127,32
1,66,0,4
1,73,0,0
1,73,127,27
1,68,127,0
1,68,0,15
1,70,127,1
1,70,0,50
1,68,127,0
1,61,0,1
1,68,0,15
1,66,127,0
1,54,0,11
1,61,127,7
1,61,0,23
1,59,127,5
1,73,0,1
1,66,0,11
1,66,127,20
1,63,127,34
1,75,127,30
1,71,127,32
1,66,0,4
1,59,0,0
1,63,0,8
1,66,127,22
1,71,0,9
1,59,127,19
1,63,127,35
1,66,0,4
1,75,0,22
1,66,127,4
1,71,127,35
1,66,0,9
1,66,127,23
1,63,0,4
1,59,0,5
1,63,127,21
1,71,0,9
1,63,0,10
1,54,127,15
1,66,0,5
1,61,127,28
1,68,127,33
1,70,127,15
1,68,0,1
1,78,127,16
1,66,127,31
1,61,0,4
1,61,127,28
1,54,0,5
1,78,0,18
1,70,0,1
1,54,127,8
1,61,0,1
1,66,0,13
1,66,127,7
1,61,127,10
1,66,0,3
1,68,127,27
1,73,127,0
1,68,0,32
1,70,127,0
1,68,127,34
1,70,0,3
1,61,0,4
1,54,0,15
1,66,127,8
1,68,0,5
1,70,127,28
1,66,0,1
1,58,127,0
1,65,127,31
1,61,127,33
1,70,0,3
1,73,0,1
1,77,127,30
1,70,127,0
1,73,127,32
1,77,0,9
1,65,0,6
1,65,127,17
1,61,0,1
1,58,0,7
1,73,0,23
1,70,0,0
1,65,0,2
1,59,127,31
1,66,127,31
1,63,127,29
1,75,127,0
1,71,127,32
1,66,0,4
1,63,0,9
1,59,0,6
1,66,127,15
1,71,0,7
1,75,0,1
1,54,127,22
1,73,127,2
1,70,127,0
1,66,0,3
1,66,127,29
1,70,0,1
1,61,127,30
1,73,0,13
1,66,0,13
1,68,127,8
1,73,127,0
1,68,0,13
1,70,127,3
1,61,0,12
1,73,0,2
1,68,127,2
1,70,0,1
1,54,0,28
1,61,127,0
1,66,127,2
1,68,0,8
1,66,0,15
1,54,127,7
1,85,127,33
1,80,127,0
1,80,0,14
1,82,127,2
1,82,0,14
1,80,127,3
1,61,0,13
1,80,0,18
1,78,127,0
1,61,127,0
1,61,0,50
1,61,127,15
1,54,0,4
1,85,0,15
1,78,0,4
1,61,0,5
1,59,127,2
1,63,127,34
1,66,127,32
1,78,127,30
1,66,0,3
1,75,127,14
1,71,127,16
1,63,0,1
1,59,0,5
1,66,127,26
1,63,127,32
1,66,0,8
1,75,0,2
1,71,0,2
1,66,127,21
1,71,127,29
1,75,127,34
1,71,0,14
1,71,127,19
1,66,0,11
1,63,0,13
1,66,127,7
1,66,0,23
1,71,0,2
1,75,0,0
1,78,0,0
1,59,127,8
1,75,127,0
1,66,127,2
1,63,127,29
1,71,127,1
1,66,0,1
1,66,127,32
1,59,0,2
1,63,0,1
1,66,0,13
1,75,0,4
1,71,0,5
1,61,127,5
1,65,127,1
1,77,127,1
1,68,127,0
1,73,127,30
1,68,0,6
1,68,127,26
1,77,0,19
1,65,0,0
1,61,0,1
1,73,0,0
1,68,0,0
1,54,127,15
1,78,127,0
1,70,127,0
1,61,127,29
1,70,0,19
1,78,0,7
1,66,127,7
1,78,127,33
1,90,127,0
1,78,0,18
1,90,0,2
1,92,127,11
1,80,127,0
1,80,0,9
1,92,0,6
1,54,0,5
1,66,0,3
1,61,0,0
1,78,127,10
1,90,127,0
1,78,0,7
1,90,0,2
1,61,127,22
1,65,127,0
1,56,127,0
1,77,127,0
1,89,127,0
1,89,0,82
1,77,0,0
1,77,127,13
1,89,127,0
1,77,0,17
1,89,0,1
1,78,127,16
1,90,127,0
1,78,0,20
1,90,0,1
1,77,127,11
1,89,127,0
1,89,0,15
1,77,0,1
1,61,0,5
1,56,0,1
1,65,0,0
1,63,127,9
1,70,127,0
1,78,127,0
1,75,127,30
1,70,0,5
1,70,127,28
1,63,0,16
1,63,127,15
1,70,0,14
1,75,0,17
1,70,127,0
1,75,127,35
1,78,0,5
1,63,0,0
1,70,0,1
1,75,0,17
1,68,127,7
1,73,127,0
1,77,127,0
1,61,127,0
1,68,0,48
1,73,0,13
1,68,127,7
1,61,0,8
1,77,0,2
1,68,0,1
1,59,127,17
1,75,127,2
1,66,127,0
1,71,127,0
1,59,0,38
1,66,0,7
1,66,127,18
1,71,0,1
1,66,0,16
1,75,0,12
1,73,127,1
1,66,127,1
1,70,127,0
1,54,127,0
1,61,127,31
1,66,0,7
1,73,0,52
1,70,0,3
1,66,127,4
1,66,0,29
1,73,127,4
1,68,127,0
1,68,0,15
1,70,127,2
1,61,0,3
1,54,0,1
1,70,0,10
1,68,127,1
1,68,0,26
1,54,127,2
1,66,127,0
1,61,127,34
1,66,0,11
1,66,127,22
1,73,0,14
1,73,127,18
1,66,0,4
1,66,127,29
1,61,0,2
1,54,0,2
1,73,0,23
1,66,0,0
1,61,127,1
1,61,0,12
1,70,127,24
1,63,127,0
1,78,127,0
1,75,127,31
1,70,0,6
1,70,127,27
1,75,0,36
1,78,0,6
1,75,127,22
1,78,127,32
1,75,0,4
1,70,0,0
1,63,0,3
1,78,0,9
1,65,127,13
1,73,127,1
1,80,127,0
1,73,0,48
1,73,127,16
1,80,0,1
1,73,0,7
1,65,0,15
1,66,127,11
1,75,127,0
1,83,127,0
1,75,0,48
1,75,127,14
1,66,0,4
1,75,0,10
1,83,0,1
1,66,127,19
1,82,127,0
1,73,127,0
1,78,127,30
1,73,0,16
1,73,127,16
1,66,0,3
1,73,0,24
1,78,0,3
1,82,0,1
1,66,127,1
1,80,127,32
1,85,127,0
1,80,0,16
1,82,127,1
1,66,0,8
1,82,0,8
1,80,127,0
1,80,0,16
1,78,127,1
1,85,0,14
1,68,127,2
1,78,0,1
1,68,0,14
1,70,127,1
1,73,127,16
1,70,0,5
1,78,127,11
1,73,0,1
1,73,127,13
1,78,0,7
1,66,127,9
1,73,0,16
1,70,127,3
1,73,127,29
1,70,0,12
1,66,0,2
1,78,127,17
1,73,0,4
1,78,0,6
1,59,127,25
1,75,127,0
1,78,127,0
1,71,127,0
1,75,0,70
1,66,127,26
1,71,0,8
1,71,127,22
1,75,127,0
1,66,0,13
1,59,0,4
1,71,0,7
1,75,0,2
1,71,127,6
1,75,127,2
1,71,0,21
1,75,0,1
1,78,0,7
1,54,127,1
1,75,127,2
1,71,127,0
1,71,0,40
1,75,0,12
1,70,127,10
1,66,127,2
1,73,127,0
1,73,0,33
1,66,0,9
1,70,0,0
1,73,127,21
1,68,127,0
1,68,0,14
1,70,127,3
1,54,0,15
1,70,0,1
1,73,0,1
1,66,127,0
1,59,127,29
1,71,127,2
1,75,127,0
1,66,0,51
1,66,127,14
1,59,0,13
1,59,127,20
1,75,0,5
1,71,0,2
1,66,0,7
1,71,127,16
1,66,127,0
1,75,127,0
1,59,0,15
1,66,0,9
1,75,0,2
1,71,0,1
1,71,127,6
1,75,127,0
1,66,127,2
1,66,0,17
1,75,0,0
1,71,0,3
1,54,127,10
1,75,127,0
1,71,127,0
1,75,0,51
1,71,0,1
1,61,127,8
1,73,127,3
1,70,127,0
1,66,127,66
1,70,0,4
1,73,0,27
1,70,127,1
1,66,0,2
1,54,0,14
1,61,0,1
1,70,0,0
1,63,127,13
1,75,127,0
1,70,127,0
1,78,127,0
1,70,0,67
1,78,0,3
1,75,0,0
1,63,0,14
1,73,127,12
1,80,127,0
1,65,127,0
1,65,0,67
1,73,0,1
1,80,0,3
1,66,127,22
1,75,127,0
1,78,127,0
1,71,127,0
1,71,0,3
1,78,0,0
1,75,0,0
1,83,127,0
1,83,0,0
1,71,127,3
1,75,127,0
1,83,127,0
