track,note,velocity,time
1,67,78,4224
1,64,101,0
1,62,86,0
1,64,95,0
1,69,101,0
1,67,83,0
1,66,69,0
1,64,104,0
1,69,95,384
1,69,72,0
1,69,86,0
1,69,80,0
1,69,95,0
1,67,78,0
1,66,72,0
1,64,89,0
1,64,101,0
1,59,86,0
1,61,72,0
1,64,89,0
1,62,78,192
1,67,95,0
1,64,89,0
1,62,78,0
1,64,98,0
1,69,98,0
1,67,78,0
1,66,72,0
1,64,95,0
1,69,92,192
1,69,75,0
1,67,95,0
1,69,72,0
1,67,92,0
1,69,83,0
1,71,101,0
1,67,89,0
1,66,78,0
1,64,80,0
1,64,95,0
1,64,92,5376
1,64,89,192
1,64,72,96
1,64,83,96
1,67,92,96
1,67,75,0
1,66,83,0
1,64,92,0
1,64,83,0
1,64,89,0
1,67,80,0
1,67,89,0
1,67,80,0
1,67,86,0
1,66,83,0
1,64,86,0
1,64,80,0
1,67,86,0
1,67,69,0
1,67,95,0
1,67,75,0
1,67,89,0
1,67,83,0
1,64,98,0
1,67,78,0
1,64,92,0
1,67,98,0
1,67,95,0
1,67,86,0
1,67,92,0
1,67,98,0
1,66,80,0
1,64,72,0
1,64,72,0
1,67,72,0
1,67,75,0
1,67,98,0
1,67,98,0
1,67,80,0
1,67,69,0
1,64,80,0
1,67,86,0
1,64,86,0
1,64,80,0
1,64,80,0
1,67,86,0
1,67,75,0
1,67,75,0
1,67,89,0
1,67,89,0
1,67,89,0
1,64,80,0
1,67,86,0
1,67,86,0
1,67,89,0
1,61,63,0
1,67,63,0
1,64,83,0
1,67,86,0
1,67,89,0
1,67,86,0
1,66,89,0
1,64,104,0
1,64,98,0
1,67,78,0
1,67,101,0
1,67,83,0
1,67,83,0
1,67,69,0
1,66,80,0
1,64,101,0
1,66,80,192
1,66,98,0
1,66,86,0
1,66,95,0
1,64,92,0
1,66,78,0
1,64,92,0
1,66,83,0
1,64,89,0
1,66,83,0
1,66,83,0
1,64,89,0
1,66,89,0
1,66,83,0
1,64,92,0
1,69,92,0
1,66,60,0
1,64,80,0
1,64,80,0
1,64,83,0
1,64,83,0
1,67,95,0
1,67,95,0
1,67,95,0
1,67,78,0
1,67,95,0
1,69,86,0
1,69,101,0
1,66,83,0
1,66,95,0
1,64,75,0
1,68,95,0
1,71,80,384
1,64,75,0
1,64,95,0
1,68,92,384
1,68,80,0
1,68,92,0
1,69,75,0
1,69,98,0
1,69,78,0
1,69,104,0
1,66,83,0
1,64,78,0
1,66,78,0
1,64,72,0
1,64,101,0
1,76,72,192
1,64,60,0
1,66,80,0
1,70,86,192
1,70,78,0
1,70,86,0
1,71,101,0
1,71,92,0
1,68,75,0
1,68,86,0
1,66,78,0
1,70,101,0
1,69,92,192
1,68,80,0
1,69,95,0
1,68,83,0
1,69,92,0
1,69,80,0
1,69,80,0
1,69,101,0
1,71,86,0
1,69,80,0
1,68,78,0
1,71,92,0
1,59,80,0
1,61,92,0
1,64,104,0
1,68,78,0
1,64,98,0
1,62,80,0
1,64,104,0
1,69,104,0
1,67,83,0
1,66,78,0
1,64,101,0
1,69,89,384
1,69,78,0
1,69,83,0
1,69,72,0
1,69,98,0
1,67,72,0
1,66,89,0
1,64,86,0
1,59,78,0
1,61,63,0
1,64,101,0
1,62,86,0
1,67,80,0
1,64,101,0
1,62,80,0
1,64,92,0
1,69,92,0
1,67,86,0
1,66,69,0
1,64,101,0
1,69,86,192
1,69,78,0
1,67,92,0
1,69,69,0
1,67,86,0
1,69,95,0
1,71,86,0
1,67,63,0
1,66,83,0
1,64,75,0
1,64,98,0
1,66,92,384
1,64,86,0
1,67,83,0
1,66,66,0
1,64,86,0
1,67,80,1728
1,67,75,0
1,66,83,0
1,64,92,0
1,64,83,0
1,64,89,0
1,67,80,0
1,67,89,0
1,67,80,0
1,67,86,0
1,66,83,0
1,64,86,0
1,64,80,0
1,67,86,0
1,67,69,0
1,67,95,0
1,67,75,0
1,67,89,0
1,67,83,0
1,64,98,0
1,67,78,0
1,64,92,0
1,67,98,0
1,67,95,0
1,67,86,0
1,67,92,0
1,67,98,0
1,66,80,0
1,64,72,0
1,64,72,0
1,67,83,0
1,67,75,0
1,67,98,0
1,67,98,0
1,67,80,0
1,67,69,0
1,64,80,0
1,67,83,0
1,64,83,0
1,64,83,0
1,64,83,0
1,67,72,0
1,67,83,0
1,67,83,0
1,67,89,0
1,67,89,0
1,67,89,0
1,64,80,0
1,67,69,0
1,67,69,0
1,67,98,0
1,61,63,0
1,67,63,0
1,64,83,0
1,67,86,0
1,67,89,0
1,67,86,0
1,66,89,0
1,64,104,0
1,64,98,0
1,67,78,0
1,67,101,0
1,67,83,0
1,67,83,0
1,67,69,0
1,66,80,0
1,64,101,0
1,66,80,192
1,66,98,0
1,66,86,0
1,66,95,0
1,64,92,0
1,66,78,0
1,64,92,0
1,66,83,0
1,64,89,0
1,66,83,0
1,66,83,0
1,64,92,0
1,66,92,0
1,66,83,0
1,64,92,0
1,69,92,0
1,66,89,0
1,64,80,0
1,64,80,0
1,64,86,0
1,64,86,0
1,67,66,0
1,67,66,0
1,67,95,0
1,67,78,0
1,67,95,0
1,69,86,0
1,69,101,0
1,66,83,0
1,66,95,0
1,64,75,0
1,68,95,0
1,71,89,384
1,64,75,0
1,64,92,0
1,68,92,384
1,68,80,0
1,68,92,0
1,69,75,0
1,69,98,0
1,69,78,0
1,69,104,0
1,66,83,0
1,64,89,0
1,66,89,0
1,64,72,0
1,64,101,0
1,76,72,192
1,64,89,0
1,66,89,0
1,70,72,192
1,70,78,0
1,70,86,0
1,71,101,0
1,71,92,0
1,68,75,0
1,68,86,0
1,66,78,0
1,70,101,0
1,69,92,192
1,68,80,0
1,69,95,0
1,68,83,0
1,69,92,0
1,69,80,0
1,69,80,0
1,69,101,0
1,71,86,0
1,69,80,0
1,68,89,0
1,71,92,0
1,59,80,0
1,61,92,0
1,64,104,0
1,68,78,0
1,64,98,0
1,62,80,0
1,64,104,0
1,69,104,0
1,67,83,0
1,66,75,0
1,64,101,0
1,69,89,384
1,69,86,0
1,69,83,0
1,69,72,0
1,69,98,0
1,67,72,0
1,66,89,0
1,64,86,0
1,59,86,0
1,61,83,0
1,64,101,0
1,62,86,0
1,67,80,0
1,64,101,0
1,62,80,0
1,64,92,0
1,69,92,0
1,67,86,0
1,66,69,0
1,64,101,0
1,69,86,192
1,69,78,0
1,67,92,0
1,69,69,0
1,67,86,0
1,69,95,0
1,71,86,0
1,67,63,0
1,66,83,0
1,64,75,0
1,64,98,0
1,66,92,384
1,64,86,0
1,67,80,0
1,66,72,0
1,64,95,0
1,62,80,192
1,62,66,0
1,64,95,0
1,67,98,0
1,66,80,0
1,64,80,0
1,67,83,0
1,66,66,0
1,64,104,0
1,76,86,0
1,64,78,0
1,67,69,0
1,64,86,0
1,64,89,0
1,67,92,12480
1,67,78,0
1,67,89,0
1,66,95,0
1,66,86,0
1,64,95,0
1,64,92,0
1,67,101,0
1,67,89,0
1,67,95,0
1,67,75,0
1,66,75,0
1,64,89,0
1,67,78,0
1,67,86,0
1,67,78,0
1,67,101,0
1,67,98,0
1,67,75,0
1,67,98,0
1,66,101,0
1,64,95,0
1,64,89,0
1,67,92,0
1,67,101,0
1,67,89,0
1,67,80,0
1,66,95,0
1,66,92,0
1,66,104,0
1,66,98,384
1,66,89,0
1,66,83,0
1,64,92,0
1,66,86,0
1,64,92,0
1,66,86,0
1,66,83,0
1,66,92,0
1,64,92,0
1,66,89,0
1,64,86,0
1,68,95,0
1,67,80,0
1,67,80,0
1,67,78,0
1,68,86,0
1,68,80,0
1,68,95,0
1,68,98,0
1,68,83,0
1,68,92,0
1,68,89,0
1,68,80,0
1,68,80,0
1,68,95,0
1,68,83,0
1,68,98,0
1,68,86,0
1,59,89,0
1,61,75,0
1,64,101,0
1,68,86,0
1,64,78,0
1,62,80,0
1,64,98,0
1,69,86,0
1,67,86,0
1,66,66,0
1,64,92,0
1,69,92,384
1,69,89,0
1,69,80,0
1,69,92,0
1,69,98,0
1,67,86,0
1,66,75,0
1,64,89,0
1,64,98,0
1,59,86,0
1,61,78,0
1,64,95,0
1,62,89,0
1,67,80,0
1,64,95,0
1,62,86,0
1,64,83,0
1,69,95,0
1,67,80,0
1,66,72,0
1,64,98,0
1,69,98,192
1,69,63,0
1,67,83,0
1,69,72,0
1,67,89,0
1,69,89,0
1,71,86,0
1,67,98,0
1,66,92,0
1,64,83,0
1,64,98,0
1,68,86,192
1,64,89,0
1,62,80,0
1,64,98,0
1,69,86,0
1,67,75,0
1,66,60,0
1,64,92,0
1,69,92,384
1,69,89,0
1,69,80,0
1,69,92,0
1,69,98,0
1,67,86,0
1,66,78,0
1,64,83,0
1,64,69,0
1,59,75,0
1,61,54,0
1,64,75,0
1,62,60,0
1,67,60,0
1,64,51,0
1,62,34,0
1,64,34,0
1,69,22,0
1,67,22,0
1,66,22,0
1,64,14,0
1,69,11,192
1,69,8,0
1,67,11,0
1,69,11,0
1,67,8,0
1,69,2,0
1,71,1,0
1,67,2,0
1,66,1,0
1,64,1,0
1,64,1,0
2,52,127,768
2,43,119,0
2,42,101,0
2,40,119,0
2,52,119,0
2,43,119,0
2,42,98,0
2,40,122,0
2,40,119,0
2,40,110,0
2,40,107,0
2,45,122,0
2,43,116,0
2,42,101,0
2,40,116,0
2,45,113,192
2,45,101,0
2,45,119,0
2,45,104,0
2,43,107,0
2,42,104,0
2,40,116,0
2,40,122,0
2,35,119,0
2,37,110,0
2,40,119,0
2,38,119,0
2,43,101,0
2,40,122,0
2,38,110,0
2,40,119,0
2,45,116,0
2,43,113,0
2,42,104,0
2,40,119,0
2,45,98,192
2,45,116,0
2,45,104,0
2,45,101,0
2,43,113,0
2,42,87,0
2,40,104,0
2,40,119,0
2,40,110,0
2,40,107,0
2,40,95,0
2,40,116,0
2,40,116,192
2,40,104,0
2,45,110,0
2,43,101,0
2,40,110,0
2,40,104,0
2,40,107,0
2,40,95,0
2,40,119,0
2,40,110,1344
2,40,107,0
2,40,95,0
2,40,116,0
2,40,116,192
2,40,104,0
2,45,110,0
2,43,101,0
2,40,110,0
2,40,107,0
2,40,95,0
2,40,116,0
2,40,116,192
2,40,104,0
2,45,110,0
2,43,101,0
2,45,116,0
2,45,107,0
2,45,107,0
2,45,104,0
2,40,104,192
2,45,113,0
2,45,110,0
2,40,107,0
2,45,119,0
2,43,110,0
2,40,110,0
2,40,107,0
2,40,95,0
2,40,116,0
2,40,116,192
2,40,104,0
2,45,110,0
2,43,101,0
2,47,116,0
2,47,104,0
2,47,107,0
2,47,113,0
2,47,101,192
2,47,119,0
2,47,116,0
2,47,116,0
2,47,113,0
2,43,119,0
2,40,116,0
2,43,113,0
2,42,104,0
2,40,119,0
2,40,113,0
2,42,119,0
2,42,113,0
2,42,119,0
2,42,113,0
2,42,113,0
2,42,110,0
2,42,116,0
2,42,101,0
2,50,119,0
2,50,116,0
2,50,116,0
2,49,113,0
2,48,119,0
2,47,113,0
2,47,110,0
2,47,113,0
2,43,116,0
2,42,110,0
2,40,119,0
2,40,107,0
2,40,107,0
2,40,110,0
2,45,119,0
2,43,116,0
2,42,104,0
2,40,116,0
2,45,116,192
2,45,113,0
2,45,107,0
2,45,116,0
2,43,116,0
2,42,110,0
2,40,101,0
2,40,119,0
2,35,116,0
2,37,110,0
2,40,122,0
2,38,119,0
2,43,107,0
2,40,119,0
2,38,110,0
2,40,119,0
2,45,119,0
2,43,113,0
2,42,119,0
2,40,119,0
2,45,110,192
2,45,113,0
2,45,107,0
2,45,110,0
2,43,113,0
2,42,110,0
2,40,101,0
2,40,122,0
2,43,122,0
2,43,116,0
2,43,119,0
2,43,116,0
2,43,107,0
2,43,113,0
2,43,113,0
2,43,113,0
2,45,122,0
2,45,122,0
2,45,116,0
2,45,122,0
2,45,119,0
2,45,122,0
2,45,110,0
2,45,122,0
2,40,116,0
2,40,113,1344
2,40,107,384
2,40,95,0
2,40,116,0
2,40,116,192
2,40,104,0
2,45,110,0
2,43,101,0
2,40,110,0
2,40,107,0
2,40,95,0
2,40,116,0
2,40,116,192
2,40,104,0
2,45,110,0
2,43,101,0
2,45,116,0
2,45,107,0
2,45,107,0
2,45,104,0
2,40,104,192
2,45,113,0
2,45,110,0
2,40,107,0
2,45,119,0
2,43,110,0
2,40,110,0
2,40,107,0
2,40,95,0
2,40,116,0
2,40,116,192
2,40,104,0
2,45,110,0
2,43,101,0
2,47,116,0
2,47,104,0
2,47,107,0
2,47,113,0
2,47,101,192
2,47,119,0
2,47,116,0
2,47,116,0
2,47,113,0
2,43,119,0
2,40,116,0
2,43,113,0
2,42,104,0
2,40,119,0
2,40,113,0
2,42,119,0
2,42,113,0
2,42,119,0
2,42,113,0
2,42,113,0
2,42,110,0
2,42,116,0
2,42,101,0
2,50,119,0
2,50,116,0
2,50,116,0
2,49,113,0
2,48,119,0
2,47,113,0
2,47,110,0
2,47,113,0
2,43,116,0
2,42,110,0
2,40,119,0
2,40,107,0
2,40,107,0
2,40,110,0
2,45,119,0
2,43,116,0
2,42,104,0
2,40,116,0
2,45,116,192
2,45,113,0
2,45,107,0
2,45,116,0
2,43,116,0
2,42,110,0
2,40,101,0
2,40,119,0
2,35,116,0
2,37,110,0
2,40,122,0
2,38,119,0
2,43,107,0
2,40,119,0
2,38,110,0
2,40,119,0
2,45,119,0
2,43,113,0
2,42,119,0
2,40,119,0
2,45,110,192
2,45,113,0
2,45,107,0
2,45,110,0
2,43,113,0
2,42,110,0
2,40,101,0
2,40,122,0
2,43,122,0
2,43,116,0
2,43,119,0
2,43,116,0
2,43,107,0
2,43,113,0
2,43,113,0
2,43,113,0
2,45,122,0
2,45,122,0
2,45,116,0
2,45,122,0
2,45,119,0
2,45,122,0
2,45,110,0
2,45,122,0
2,40,119,0
2,40,110,0
2,40,116,0
2,40,113,0
2,40,116,192
2,40,122,0
2,40,122,0
2,40,116,0
2,40,113,0
2,40,122,0
2,43,116,0
2,43,113,0
2,47,122,0
2,50,113,0
2,52,119,0
2,50,119,0
2,47,125,0
2,43,119,0
2,45,119,0
2,45,113,0
2,49,125,0
2,52,116,0
2,55,113,0
2,54,116,0
2,52,113,0
2,49,119,0
2,40,127,0
2,40,122,960
2,40,113,0
2,40,122,0
2,45,113,0
2,45,113,0
2,45,113,0
2,45,119,0
2,45,119,0
2,45,116,0
2,45,113,0
2,45,116,0
2,45,119,0
2,45,113,0
2,45,116,0
2,45,110,0
2,45,116,0
2,45,116,0
2,47,122,0
2,43,116,0
2,40,113,0
2,40,116,0
2,40,119,0
2,40,116,0
2,40,122,0
2,40,116,0
2,40,113,0
2,40,116,0
2,43,127,0
2,40,125,0
2,44,122,0
2,40,116,0
2,45,116,0
2,44,116,0
2,45,119,0
2,45,119,0
2,45,116,0
2,45,113,0
2,45,116,0
2,45,119,0
2,45,113,0
2,45,119,0
2,45,116,0
2,45,107,0
2,45,119,0
2,45,122,0
2,45,113,0
2,45,113,0
2,45,125,0
2,45,125,0
2,47,119,0
2,47,113,0
2,47,116,0
2,47,113,0
2,47,113,0
2,47,116,0
2,49,116,0
2,49,119,0
2,50,119,0
2,50,110,0
2,51,119,0
2,51,119,0
2,52,119,0
2,55,116,384
2,52,122,0
2,50,119,0
2,40,122,0
2,45,116,0
2,40,119,0
2,43,122,0
2,40,107,0
2,40,104,0
2,40,116,0
2,43,113,0
2,40,122,0
2,38,116,0
2,40,119,0
2,45,113,0
2,40,119,0
2,43,113,0
2,40,104,0
2,40,119,0
2,47,122,0
2,47,116,0
2,47,116,0
2,47,110,0
2,47,119,0
2,47,113,0
2,47,119,0
2,47,116,0
2,47,113,0
2,47,116,0
2,47,119,0
2,47,116,0
2,47,119,0
2,47,110,0
2,47,116,0
2,47,122,0
2,40,122,0
2,43,119,2112
2,42,107,0
2,40,119,0
2,40,119,0
2,40,110,0
2,40,107,0
2,45,122,0
2,43,116,0
2,42,101,0
2,40,116,0
