track,note,velocity,time
3,75,95,1820
3,72,92,0
3,72,0,127
3,75,0,8
3,72,90,8
3,68,83,0
3,68,0,200
3,72,0,20
3,70,83,19
3,74,90,1
3,70,0,179
3,74,0,1
3,72,85,11
3,75,81,0
3,75,0,164
3,72,0,12
3,72,90,17
3,68,81,0
3,68,0,120
3,70,66,24
3,74,87,0
3,72,0,4
3,74,0,108
3,70,0,0
3,75,87,127
3,79,87,0
3,79,0,40
3,75,0,16
3,75,87,41
3,72,80,0
3,72,0,204
3,75,0,4
3,75,87,80
3,72,92,0
3,75,0,352
3,72,0,16
3,70,81,15
3,74,85,0
3,70,0,176
3,74,0,4
3,72,77,12
3,75,81,0
3,72,0,164
3,75,0,8
3,68,87,20
3,72,95,0
3,68,0,120
3,72,0,20
3,70,77,4
3,74,87,0
3,74,0,528
3,70,0,0
3,70,87,6240
3,65,80,1
3,74,82,0
3,74,0,732
3,65,0,8
3,70,0,3
3,65,61,24
3,72,80,0
3,69,80,1
3,65,0,359
3,69,0,1
3,72,0,3
3,74,95,21
3,67,82,0
3,67,0,48
3,74,0,0
3,67,77,24
3,74,82,0
3,74,0,52
3,67,0,0
3,67,75,19
3,74,80,0
3,74,0,44
3,67,0,0
3,67,63,5
3,74,85,0
3,67,0,84
3,67,77,12
3,74,0,32
3,67,0,4
3,75,95,60
3,72,92,0
3,72,0,128
3,75,0,8
3,72,90,8
3,68,83,0
3,68,0,200
3,72,0,20
3,70,83,19
3,74,90,1
3,70,0,179
3,74,0,1
3,72,85,11
3,75,81,0
3,75,0,164
3,72,0,12
3,72,90,17
3,68,81,0
3,68,0,120
3,70,66,24
3,74,87,0
3,72,0,4
3,74,0,108
3,70,0,0
3,75,87,127
3,79,87,0
3,79,0,40
3,75,0,16
3,75,87,41
3,72,80,0
3,72,0,204
3,75,0,4
3,75,95,80
3,72,92,0
3,72,0,128
3,75,0,8
3,72,90,8
3,68,83,0
3,68,0,200
3,72,0,20
3,70,83,19
3,74,90,1
3,70,0,179
3,74,0,1
3,72,85,11
3,75,81,0
3,75,0,164
3,72,0,12
3,72,90,17
3,68,81,0
3,68,0,120
3,70,66,24
3,74,87,0
3,72,0,4
3,74,0,108
3,70,0,0
3,75,87,127
3,79,87,0
3,79,0,40
3,75,0,16
3,75,87,41
3,72,80,0
3,72,0,204
3,75,0,4
3,72,90,80
3,68,81,0
3,68,0,120
3,70,66,24
3,74,87,0
3,72,0,4
3,70,0,292
3,74,0,4
3,70,87,6659
3,65,80,1
3,74,82,0
3,74,0,732
3,65,0,8
3,70,0,3
3,65,61,24
3,72,80,0
3,69,80,1
3,65,0,359
3,69,0,1
3,72,0,3
3,74,95,21
3,67,82,0
3,67,0,48
3,74,0,0
3,67,77,24
3,74,82,0
3,74,0,52
3,67,0,0
3,67,75,19
3,74,80,0
3,74,0,44
3,67,0,0
3,67,63,5
3,74,85,0
3,67,0,84
3,67,77,12
3,74,0,32
3,67,0,4
3,75,95,60
3,72,92,0
3,72,0,128
3,75,0,8
3,72,90,8
3,68,83,0
3,68,0,200
3,72,0,20
3,70,83,19
3,74,90,1
3,70,0,179
3,74,0,1
3,72,85,11
3,75,81,0
3,75,0,164
3,72,0,12
3,72,90,17
3,68,81,0
3,68,0,120
3,70,66,24
3,74,87,0
3,72,0,4
3,74,0,108
3,70,0,0
3,75,87,127
3,79,87,0
3,79,0,40
3,75,0,16
3,75,87,41
3,72,80,0
3,72,0,204
3,75,0,4
3,75,95,80
3,72,92,0
3,72,0,128
3,75,0,8
3,72,90,8
3,68,83,0
3,68,0,200
3,72,0,20
3,70,83,19
3,74,90,1
3,70,0,179
3,74,0,1
3,72,85,11
3,75,81,0
3,75,0,164
3,72,0,12
3,72,90,17
3,68,81,0
3,68,0,120
3,70,66,24
3,74,87,0
3,72,0,4
3,74,0,108
3,70,0,0
3,75,87,127
3,79,87,0
3,79,0,40
3,75,0,16
3,75,87,41
3,72,80,0
3,72,0,204
3,75,0,4
3,72,90,80
3,68,81,0
3,68,0,120
3,70,66,24
3,74,87,0
3,72,0,4
3,70,0,292
3,74,0,4
3,67,80,323
3,72,78,0
3,63,82,0
3,63,0,131
3,72,0,0
3,67,0,0
3,68,78,13
3,63,77,0
3,72,84,0
3,72,0,221
3,63,0,0
3,68,0,8
3,62,77,10
3,65,85,1
3,70,82,0
3,70,0,80
3,62,0,0
3,65,0,3
3,65,94,13
3,70,86,0
3,62,76,0
3,62,0,69
3,65,0,2
3,70,0,22
3,63,78,4
3,72,83,0
3,67,83,0
3,67,0,172
3,63,0,2
3,72,0,2
3,72,89,16
3,63,83,0
3,67,89,0
3,72,0,129
3,67,0,2
3,63,0,0
3,72,76,13
3,68,79,0
3,63,85,0
3,72,0,200
3,63,0,8
3,68,0,16
3,70,89,15
3,62,84,0
3,65,84,0
3,62,0,81
3,70,0,3
3,65,0,1
3,70,91,13
3,65,98,0
3,62,89,0
3,62,0,72
3,65,0,5
3,70,0,3
3,63,85,16
3,67,87,0
3,72,87,0
3,72,0,162
3,63,0,0
3,67,0,4
3,63,88,25
3,67,91,0
3,72,101,0
3,72,0,126
3,63,0,2
3,67,0,3
3,72,92,13
3,63,79,1
3,68,85,0
3,72,0,205
3,63,0,3
3,68,0,14
3,65,94,15
3,70,82,0
3,62,88,0
3,62,0,83
3,70,0,1
3,65,0,0
3,70,89,14
3,65,92,0
3,62,77,0
3,62,0,72
3,65,0,13
3,70,0,0
3,67,81,11
3,63,88,0
3,72,94,0
3,72,0,166
3,63,0,4
3,67,0,0
3,63,86,22
3,72,104,0
3,67,90,0
3,67,0,124
3,63,0,0
3,72,0,3
3,63,88,16
3,72,102,1
3,68,91,0
3,63,0,215
3,59,72,24
3,62,77,0
3,67,84,0
3,72,0,9
3,68,0,1
3,62,0,710
3,59,0,0
3,67,0,0
3,75,95,3121
3,72,92,0
3,72,0,128
3,75,0,8
3,72,90,8
3,68,83,0
3,68,0,200
3,72,0,20
3,70,83,19
3,74,90,1
3,70,0,179
3,74,0,1
3,72,85,11
3,75,81,0
3,75,0,164
3,72,0,12
3,72,90,17
3,68,81,0
3,68,0,120
3,70,66,24
3,74,87,0
3,72,0,4
3,74,0,108
3,70,0,0
3,75,87,127
3,79,87,0
3,79,0,40
3,75,0,16
3,75,87,41
3,72,80,0
3,72,0,204
3,75,0,4
3,75,95,80
3,72,92,0
3,72,0,128
3,75,0,8
3,72,90,8
3,68,83,0
3,68,0,200
3,72,0,20
3,70,83,19
3,74,90,1
3,70,0,179
3,74,0,1
3,72,85,11
3,75,81,0
3,75,0,164
3,72,0,12
3,72,90,17
3,68,81,0
3,68,0,124
3,70,66,20
3,74,87,0
3,72,0,4
3,74,0,108
3,70,0,0
3,75,87,127
3,79,87,0
3,79,0,40
3,75,0,16
3,75,87,41
3,72,80,0
3,72,0,204
3,75,0,4
3,72,90,80
3,68,81,0
3,68,0,120
3,70,66,24
3,74,87,0
3,72,0,4
3,74,0,108
3,70,0,0
3,75,87,127
3,79,87,0
3,79,0,40
3,75,0,16
3,75,87,41
3,72,80,0
3,72,0,204
3,75,0,4
3,72,90,80
3,68,81,0
3,68,0,120
3,70,66,24
3,74,87,0
3,72,0,4
3,74,0,108
3,70,0,0
3,75,87,127
3,79,87,0
3,79,0,40
3,75,0,16
3,75,87,41
3,72,80,0
3,72,0,204
3,75,0,4
3,72,90,80
3,68,81,0
3,68,0,120
3,70,66,24
3,74,87,0
3,72,0,4
3,74,0,108
3,70,0,0
3,75,87,127
3,79,87,0
3,79,0,40
3,75,0,16
3,75,87,41
3,72,80,0
3,72,0,204
3,75,0,4
3,72,90,80
3,68,81,0
3,68,0,124
3,70,66,20
3,74,87,0
3,72,0,4
3,74,0,108
3,70,0,0
3,75,87,127
3,79,87,0
3,79,0,40
3,75,0,16
3,75,87,41
3,72,80,0
3,72,0,204
3,75,0,4
3,72,90,80
3,68,81,0
3,68,0,120
3,70,66,24
3,74,87,0
3,72,0,4
3,74,0,108
3,70,0,0
3,75,87,127
3,79,87,0
3,79,0,40
3,75,0,16
3,75,87,41
3,72,80,0
3,72,0,204
3,75,0,4
3,72,90,80
3,68,81,0
3,68,0,124
3,70,66,20
3,74,87,0
3,72,0,4
3,74,0,108
3,70,0,0
3,75,87,127
3,79,87,0
3,79,0,40
3,75,0,16
3,75,87,41
3,72,80,0
3,72,0,204
3,75,0,4
3,72,90,80
3,68,81,0
3,68,0,120
3,70,66,24
3,74,87,0
3,72,0,4
3,74,0,108
3,70,0,0
3,75,87,127
3,79,87,0
3,79,0,40
3,75,0,16
3,75,87,41
3,72,80,0
3,72,0,204
3,75,0,4
3,72,90,80
3,68,81,0
3,68,0,120
3,70,66,24
3,74,87,0
3,72,0,4
3,74,0,108
3,70,0,0
3,75,87,127
3,79,87,0
3,79,0,40
3,75,0,16
3,75,87,41
3,72,80,0
3,72,0,204
3,75,0,4
3,72,90,80
3,68,81,0
3,68,0,120
3,70,66,24
3,74,87,0
3,72,0,4
3,74,0,108
3,70,0,0
3,75,87,127
3,79,87,0
3,79,0,40
3,75,0,16
3,75,87,41
3,72,80,0
3,72,0,480
3,75,0,0
4,39,127,1717
4,39,0,90
4,36,108,6
4,36,0,144
4,32,113,0
4,34,110,145
4,32,0,6
4,36,106,42
4,34,0,5
4,36,0,42
4,34,113,0
4,34,0,79
4,34,116,18
4,34,0,80
4,36,108,16
4,36,0,123
4,36,94,21
4,36,0,43
4,32,104,5
4,32,0,123
4,34,119,20
4,34,0,137
4,31,106,6
4,34,107,48
4,31,0,11
4,34,0,34
4,39,110,4
4,39,0,79
4,36,98,18
4,36,0,138
4,31,108,6
4,34,99,48
4,31,0,7
4,34,0,41
4,36,100,0
4,36,0,23
4,36,106,25
4,36,0,132
4,32,113,11
4,32,0,132
4,34,107,13
4,36,100,47
4,34,0,2
4,34,110,46
4,36,0,7
4,34,0,69
4,34,116,21
4,34,0,87
4,36,104,8
4,36,0,123
4,36,88,22
4,36,0,44
4,32,113,4
4,32,0,124
4,34,123,22
4,34,0,600
4,36,104,22
4,36,0,45
4,31,88,2
4,34,85,49
4,31,0,10
4,36,83,38
4,34,0,3
4,36,0,41
4,39,107,4
4,39,0,16
4,39,116,32
4,36,79,48
4,39,0,3
4,34,95,44
4,36,0,1
4,34,0,47
4,36,100,1
4,31,97,48
4,36,0,4
4,34,97,44
4,31,0,12
4,34,0,32
4,36,80,3
4,36,0,49
4,39,116,0
4,39,0,17
4,39,104,31
4,36,83,48
4,39,0,4
4,36,0,73
4,36,102,19
4,36,0,46
4,31,94,1
4,34,101,49
4,31,0,11
4,36,85,37
4,34,0,4
4,36,0,45
4,39,113,0
4,39,0,16
4,39,116,31
4,36,84,48
4,39,0,1
4,34,85,47
4,36,0,5
4,36,104,43
4,34,0,3
4,31,100,44
4,36,0,1
4,34,99,47
4,31,0,15
4,36,80,33
4,34,0,5
4,39,99,44
4,36,0,4
4,39,0,11
4,39,116,33
4,36,86,48
4,39,0,1
4,36,0,71
4,36,108,23
4,31,94,47
4,36,0,1
4,34,97,49
4,31,0,11
4,36,90,36
4,34,0,2
4,36,0,47
4,39,107,0
4,39,0,17
4,39,104,30
4,36,87,48
4,39,0,3
4,34,84,44
4,36,0,2
4,36,100,47
4,34,0,8
4,31,97,40
4,36,0,4
4,34,97,44
4,31,0,11
4,36,80,37
4,34,0,5
4,36,0,42
4,39,101,2
4,39,0,22
4,39,110,26
4,39,0,43
4,36,83,4
4,36,0,76
4,36,90,20
4,31,91,49
4,36,0,3
4,34,91,45
4,31,0,11
4,36,80,37
4,34,0,3
4,39,107,46
4,36,0,6
4,39,0,10
4,39,107,31
4,39,0,48
4,36,81,0
4,34,87,47
4,36,0,2
4,36,94,47
4,34,0,3
4,36,0,44
4,31,97,0
4,34,97,49
4,31,0,15
4,36,81,32
4,34,0,2
4,39,110,47
4,36,0,2
4,39,0,15
4,39,101,31
4,39,0,45
4,36,80,2
4,36,0,75
4,36,97,21
4,31,90,49
4,36,0,2
4,34,93,46
4,31,0,12
4,34,0,33
4,36,80,2
4,36,0,49
4,39,116,0
4,39,0,18
4,39,104,30
4,39,0,47
4,36,83,0
4,34,87,48
4,36,0,5
4,36,95,43
4,34,0,5
4,31,95,44
4,36,0,3
4,34,95,45
4,31,0,12
4,36,80,35
4,34,0,6
4,39,110,43
4,36,0,8
4,39,0,16
4,39,107,24
4,39,0,45
4,36,88,3
4,36,0,72
4,36,95,23
4,31,97,48
4,36,0,1
4,34,97,48
4,31,0,15
4,36,78,33
4,34,0,4
4,39,107,45
4,36,0,10
4,39,0,7
4,39,110,30
4,39,0,47
4,36,86,1
4,34,79,48
4,36,0,8
4,36,100,39
4,34,0,6
4,31,95,42
4,36,0,5
4,34,93,44
4,31,0,10
4,36,85,36
4,34,0,1
4,39,104,49
4,36,0,13
4,39,0,6
4,39,101,28
4,36,86,48
4,39,0,1
4,36,0,82
4,29,110,14
4,29,0,31
4,29,97,17
4,29,0,28
4,29,102,20
4,29,0,27
4,29,92,20
4,29,0,25
4,29,110,23
4,29,0,32
4,29,106,17
4,29,0,29
4,29,91,18
4,29,0,27
4,29,90,21
4,29,0,29
4,29,112,19
4,29,0,31
4,29,112,17
4,29,0,33
4,29,114,16
4,29,0,29
4,29,114,19
4,29,0,47
4,34,110,1
4,34,0,92
4,35,102,4
4,35,0,95
4,36,95,1
4,36,0,48
4,31,98,0
4,34,97,48
4,31,0,8
4,36,80,39
4,34,0,6
4,39,116,43
4,36,0,4
4,39,0,16
4,39,101,27
4,36,84,47
4,39,0,5
4,34,99,44
4,36,0,7
4,34,0,40
4,48,100,1
4,43,87,49
4,48,0,4
4,46,93,43
4,43,0,12
4,48,84,36
4,46,0,7
4,51,91,42
4,48,0,4
4,51,0,19
4,51,107,25
4,51,0,43
4,48,85,4
4,48,0,93
4,34,110,4
4,34,0,29
4,34,81,19
4,34,0,29
4,34,101,19
4,34,0,33
4,34,77,15
4,34,0,29
4,34,101,19
4,34,0,35
4,34,89,13
4,34,0,27
4,34,110,21
4,34,0,33
4,34,77,14
4,34,0,25
4,34,110,23
4,34,0,31
4,34,84,17
4,34,0,26
4,34,104,23
4,34,0,32
4,34,91,16
4,34,0,25
4,34,116,23
4,36,94,47
4,34,0,1
4,36,0,48
4,31,106,0
4,31,0,32
4,29,102,15
4,29,0,28
4,29,100,20
4,29,0,28
4,29,102,20
4,29,0,28
4,29,106,20
4,29,0,30
4,29,102,18
4,29,0,26
4,29,97,22
4,29,0,25
4,29,106,24
4,29,0,28
4,29,104,19
4,29,0,28
4,29,114,20
4,29,0,41
4,31,90,6
4,31,0,28
4,31,110,21
4,31,0,24
4,31,112,25
4,31,0,24
4,31,112,24
4,31,0,21
4,31,117,26
4,31,0,28
4,31,110,21
4,31,0,17
4,31,120,31
4,31,0,29
4,31,114,19
4,31,0,33
4,36,110,14
4,36,0,139
4,32,107,5
4,32,0,138
4,34,91,7
4,36,104,47
4,34,0,5
4,34,113,43
4,36,0,9
4,34,0,74
4,34,101,14
4,34,0,87
4,36,102,9
4,36,0,190
4,32,119,2
4,34,107,144
4,32,0,4
4,34,0,133
4,31,98,5
4,34,107,49
4,31,0,11
4,34,0,33
4,39,119,5
4,39,0,85
4,36,98,11
4,36,0,263
4,36,117,25
4,36,0,140
4,32,127,4
4,32,0,131
4,34,116,12
4,36,106,49
4,34,0,4
4,36,0,39
4,34,107,4
4,34,0,79
4,34,119,18
4,34,0,77
4,36,112,18
4,36,0,81
4,36,97,16
4,36,0,41
4,34,116,7
4,32,113,48
4,34,0,5
4,32,0,137
4,34,110,2
4,34,0,135
4,31,100,7
4,34,107,49
4,31,0,10
4,34,0,35
4,39,116,4
4,39,0,83
4,36,95,13
4,36,0,144
4,39,116,0
4,36,90,48
4,39,0,4
4,34,99,43
4,36,0,2
4,34,0,39
4,32,104,7
4,32,0,135
4,34,123,9
4,34,0,716
4,36,114,101
4,36,0,43
4,31,100,4
4,34,104,48
