track,note,velocity,time
1,52,64,0
1,43,64,8
1,42,64,8
1,40,64,8
1,52,64,144
1,43,64,8
1,42,64,8
1,40,64,8
1,40,64,8
1,40,64,8
1,40,64,8
1,40,64,8
1,40,64,8
1,45,64,8
1,43,64,8
1,42,64,8
1,40,64,8
1,40,64,8
1,45,64,8
1,45,64,8
1,45,64,8
1,45,64,8
1,47,64,8
1,43,64,8
1,42,64,8
1,40,64,8
1,40,64,8
1,42,64,8
1,44,64,8
1,40,64,8
1,42,64,8
1,44,64,8
1,40,64,8
1,40,64,8
1,40,64,8
1,40,64,8
1,45,64,8
1,43,64,8
1,42,64,8
1,40,64,8
1,40,64,8
1,45,64,8
1,45,64,8
1,45,64,8
1,45,64,8
1,47,64,8
1,43,64,8
1,42,64,8
1,40,64,8
1,40,64,8
1,40,64,8
1,40,64,8
1,40,64,8
1,40,64,56
1,40,64,8
1,40,64,8
1,40,64,8
1,45,64,8
1,43,64,8
1,40,64,8
1,40,64,8
1,40,64,8
1,40,64,8
1,40,64,8
1,40,64,344
1,40,64,8
1,40,64,8
1,40,64,8
1,40,64,8
1,40,64,8
1,40,64,8
1,40,64,8
1,40,64,8
1,45,64,8
1,43,64,8
1,40,64,8
1,40,64,8
1,40,64,8
1,40,64,8
1,40,64,56
1,40,64,8
1,40,64,8
1,40,64,8
1,45,64,8
1,43,64,8
1,45,64,8
1,45,64,8
1,45,64,8
1,45,64,8
1,40,64,56
1,45,64,8
1,45,64,8
1,45,64,8
1,45,64,8
1,43,64,8
1,40,64,8
1,40,64,8
1,40,64,8
1,40,64,8
1,40,64,56
1,40,64,8
1,40,64,8
1,40,64,8
1,45,64,8
1,43,64,8
1,47,64,8
1,47,64,8
1,47,64,8
1,47,64,8
1,47,64,56
1,47,64,8
1,47,64,8
1,47,64,8
1,43,64,8
1,42,64,8
1,40,64,8
1,43,64,8
1,42,64,8
1,40,64,8
1,40,64,8
1,40,64,8
1,42,64,8
1,42,64,8
1,42,64,8
1,42,64,8
1,42,64,56
1,42,64,8
1,42,64,8
1,42,64,8
1,42,64,8
1,42,64,8
1,50,64,8
1,50,64,8
1,50,64,8
1,49,64,8
1,48,64,8
1,47,64,8
1,47,64,8
1,45,64,8
1,47,64,8
1,43,64,8
1,42,64,8
1,40,64,8
1,40,64,8
1,40,64,8
1,40,64,8
1,40,64,8
1,40,64,8
1,45,64,8
1,43,64,8
1,42,64,8
1,40,64,8
1,40,64,8
1,45,64,8
1,45,64,8
1,45,64,8
1,45,64,8
1,47,64,8
1,43,64,8
1,42,64,8
1,40,64,8
1,40,64,8
1,42,64,8
1,44,64,8
1,40,64,8
1,42,64,8
1,44,64,8
1,40,64,8
1,40,64,8
1,40,64,8
1,40,64,8
1,45,64,8
1,43,64,8
1,42,64,8
1,40,64,8
1,40,64,8
1,45,64,8
1,45,64,8
1,45,64,8
1,45,64,8
1,47,64,8
1,43,64,8
1,42,64,8
1,40,64,8
1,40,64,8
1,43,64,8
1,43,64,8
1,43,64,8
1,43,64,8
1,43,64,8
1,43,64,8
1,45,64,8
1,45,64,8
1,45,64,8
1,45,64,8
1,45,64,8
1,45,64,8
1,40,64,8
1,40,64,8
1,40,64,8
1,40,64,8
1,40,64,8
1,40,64,8
1,40,64,8
1,40,64,8
1,40,64,8
1,40,64,8
1,40,64,8
1,40,64,8
1,40,64,8
1,40,64,8
1,40,64,8
1,40,64,8
1,40,64,56
1,40,64,8
1,40,64,8
1,40,64,8
1,40,64,8
1,40,64,8
1,40,64,8
1,40,64,8
1,45,64,8
1,43,64,8
1,40,64,8
1,40,64,8
1,40,64,8
1,40,64,8
1,40,64,56
1,40,64,8
1,40,64,8
1,40,64,8
1,45,64,8
1,43,64,8
1,45,64,8
1,45,64,8
1,45,64,8
1,45,64,8
1,40,64,56
1,45,64,8
1,45,64,8
1,45,64,8
1,45,64,8
1,43,64,8
1,40,64,8
1,40,64,8
1,40,64,8
1,40,64,8
1,40,64,56
1,40,64,8
1,40,64,8
1,40,64,8
1,45,64,8
1,43,64,8
1,47,64,8
1,47,64,8
1,47,64,8
1,47,64,8
1,47,64,56
1,47,64,8
1,47,64,8
1,47,64,8
1,43,64,8
1,42,64,8
1,40,64,8
1,43,64,8
1,42,64,8
1,40,64,8
1,40,64,8
1,40,64,8
1,42,64,8
1,42,64,8
1,42,64,8
1,42,64,8
1,42,64,56
1,42,64,8
1,42,64,8
1,42,64,8
1,42,64,8
1,42,64,8
1,50,64,8
1,50,64,8
1,50,64,8
1,49,64,8
1,48,64,8
1,47,64,8
1,47,64,8
1,45,64,8
1,47,64,8
1,43,64,8
1,42,64,8
1,40,64,8
1,40,64,8
1,40,64,8
1,40,64,8
1,40,64,8
1,40,64,8
1,45,64,8
1,43,64,8
1,42,64,8
1,40,64,8
1,40,64,8
1,45,64,8
1,45,64,8
1,45,64,8
1,45,64,8
1,47,64,8
1,43,64,8
1,42,64,8
1,40,64,8
1,40,64,8
1,42,64,8
1,44,64,8
1,40,64,8
1,42,64,8
1,44,64,8
1,40,64,8
1,40,64,8
1,40,64,8
1,40,64,8
1,45,64,8
1,43,64,8
1,42,64,8
1,40,64,8
1,40,64,8
1,45,64,8
1,45,64,8
1,45,64,8
1,45,64,8
1,47,64,8
1,43,64,8
1,42,64,8
1,40,64,8
1,40,64,8
1,43,64,8
1,43,64,8
1,43,64,8
1,43,64,8
1,43,64,8
1,43,64,8
1,45,64,8
1,45,64,8
1,45,64,8
1,45,64,8
1,45,64,8
1,45,64,8
1,40,64,8
1,40,64,8
1,40,64,8
1,40,64,8
1,40,64,8
1,40,64,8
1,40,64,8
1,40,64,8
1,40,64,8
1,40,64,8
1,40,64,8
1,40,64,8
1,40,64,8
1,40,64,8
1,40,64,8
1,40,64,8
1,43,64,8
1,43,64,8
1,43,64,8
1,43,64,8
1,43,64,8
1,43,64,8
1,45,64,8
1,45,64,8
1,45,64,8
1,45,64,8
1,45,64,8
1,45,64,8
1,40,64,8
1,38,64,15
1,39,64,8
1,40,64,8
1,55,64,104
1,52,64,8
1,50,64,8
1,52,64,8
1,57,64,8
1,55,64,8
1,54,64,8
1,52,64,8
1,52,64,104
1,55,64,104
1,52,64,8
1,50,64,8
1,52,64,8
1,57,64,8
1,55,64,8
1,54,64,8
1,52,64,8
1,47,64,56
1,47,64,8
1,47,64,8
1,47,64,8
1,47,64,8
1,47,64,8
1,47,64,8
1,47,64,8
1,47,64,8
1,47,64,8
1,47,64,8
1,47,64,8
1,47,64,8
1,47,64,8
1,47,64,8
1,47,64,8
1,47,64,8
1,40,64,8
1,43,64,536
1,42,64,8
1,40,64,8
1,40,64,48
1,40,64,8
1,40,64,8
1,40,64,8
1,40,64,8
1,45,64,8
1,43,64,8
1,42,64,8
1,40,64,8
1,40,64,8
1,45,64,8
1,45,64,8
1,45,64,8
1,45,64,8
1,47,64,8
1,43,64,8
1,42,64,8
1,40,64,8
1,40,64,8
1,42,64,8
1,44,64,8
1,40,64,8
1,42,64,8
1,44,64,8
1,40,64,8
1,40,64,8
1,40,64,8
1,40,64,8
1,45,64,8
1,43,64,8
1,42,64,8
1,40,64,8
1,40,64,8
1,45,64,8
1,45,64,8
1,45,64,8
1,45,64,8
1,47,64,8
1,43,64,8
1,42,64,8
1,40,64,8
1,40,64,8
1,43,64,8
1,43,64,8
1,43,64,8
1,43,64,8
1,43,64,8
1,43,64,8
1,45,64,8
1,45,64,8
1,45,64,8
1,45,64,8
1,45,64,8
1,45,64,8
1,40,64,8
1,40,64,8
1,40,64,8
1,40,64,8
1,40,64,8
1,40,64,8
1,40,64,8
1,40,64,8
1,40,64,8
1,40,64,8
1,40,64,8
1,40,64,8
1,40,64,8
1,40,64,8
1,40,64,8
1,40,64,8
1,40,62,56
1,40,61,8
1,40,58,8
1,40,57,8
1,40,56,8
1,40,55,8
1,40,53,8
1,40,51,8
1,45,48,8
1,43,45,8
1,40,42,8
1,40,40,8
1,40,37,8
1,40,36,8
1,40,33,56
1,40,32,8
1,40,29,8
1,40,28,8
1,45,26,8
1,43,24,8
1,45,21,8
1,45,19,8
1,45,16,8
1,45,14,8
1,40,12,56
1,45,10,8
1,45,8,8
1,45,5,8
1,45,4,8
1,43,3,8
1,43,0,88
2,56,64,0
2,64,64,0
2,59,64,0
2,59,64,8
2,64,64,0
2,56,64,0
2,59,64,8
2,64,64,0
2,56,64,0
2,59,64,8
2,56,64,0
2,64,64,0
2,59,64,8
2,56,64,0
2,64,64,0
2,59,64,8
2,56,64,0
2,64,64,0
2,56,64,8
2,59,64,0
2,64,64,0
2,59,64,8
2,56,64,0
2,62,64,0
2,62,64,8
2,59,64,0
2,56,64,0
2,59,64,8
2,56,64,0
2,62,64,0
2,59,64,8
2,62,64,0
2,56,64,0
2,59,64,8
2,56,64,0
2,62,64,0
2,59,64,8
2,56,64,0
2,62,64,0
2,59,64,8
2,56,64,0
2,62,64,0
2,59,64,8
2,56,64,0
2,62,64,0
2,56,64,8
2,52,64,0
2,61,64,0
2,56,64,8
2,52,64,0
2,61,64,0
2,56,64,8
2,52,64,0
2,61,64,0
2,56,64,8
2,52,64,0
2,61,64,0
2,56,64,8
2,52,64,0
2,61,64,0
2,56,64,8
2,61,64,0
2,52,64,0
2,56,64,8
2,61,64,0
2,52,64,0
2,56,64,8
2,52,64,0
2,61,64,0
2,56,64,8
2,62,64,0
2,59,64,0
2,62,64,8
2,59,64,0
2,56,64,0
2,59,64,8
2,56,64,0
2,62,64,0
2,62,64,8
2,56,64,0
2,59,64,0
2,59,64,8
2,56,64,0
2,62,64,0
2,62,64,8
2,56,64,0
2,59,64,0
2,56,64,8
2,62,64,0
2,59,64,0
2,56,64,8
2,62,64,0
2,59,64,0
2,56,64,8
2,62,64,0
2,59,64,0
2,56,64,8
2,64,64,0
2,59,64,0
2,59,64,8
2,56,64,0
2,64,64,0
2,64,64,8
2,56,64,0
2,59,64,0
2,56,64,8
2,59,64,0
2,64,64,0
2,59,64,8
2,64,64,0
2,56,64,0
2,64,64,8
2,56,64,0
2,59,64,0
2,56,64,8
2,59,64,0
2,64,64,0
2,59,64,8
2,56,64,0
2,62,64,0
2,59,64,8
2,56,64,0
2,62,64,0
2,59,64,8
2,56,64,0
2,62,64,0
2,56,64,8
2,59,64,0
2,62,64,0
2,59,64,8
2,62,64,0
2,59,64,8
2,56,64,0
2,62,64,0
2,59,64,8
2,56,64,0
2,62,64,0
2,56,64,8
2,59,64,0
2,62,64,0
2,52,64,8
2,56,64,0
2,61,64,0
2,56,64,8
2,61,64,0
2,52,64,0
2,56,64,8
2,61,64,0
2,52,64,0
2,56,64,8
2,61,64,0
2,52,64,0
2,56,64,8
2,61,64,0
2,52,64,0
2,61,64,8
2,56,64,0
2,52,64,0
2,56,64,8
2,61,64,0
2,52,64,0
2,52,64,8
2,61,64,0
2,56,64,0
2,56,64,8
2,62,64,0
2,59,64,0
2,62,64,8
2,59,64,0
2,56,64,0
2,62,64,8
2,56,64,0
2,59,64,0
2,62,64,8
2,56,64,0
2,59,64,0
2,62,64,8
2,59,64,0
2,56,64,0
2,56,64,8
2,62,64,0
2,59,64,0
2,56,64,8
2,59,64,0
2,62,64,0
2,56,64,8
2,59,64,0
2,62,64,0
2,64,64,0
2,56,64,0
2,59,64,0
2,69,64,8
2,61,64,0
2,64,64,0
2,56,64,8
2,59,64,0
2,64,64,0
2,61,64,56
2,69,64,0
2,64,64,0
2,61,64,8
2,69,64,0
2,64,64,0
2,56,64,8
2,64,64,0
2,59,64,0
2,56,64,8
2,59,64,0
2,64,64,0
2,66,64,8
2,68,64,8
2,64,64,8
2,66,64,8
2,68,64,8
2,64,64,8
2,61,64,8
2,69,64,0
2,64,64,0
2,56,64,8
2,59,64,0
2,64,64,0
2,61,64,56
2,64,64,0
2,69,64,0
2,61,64,8
2,64,64,0
2,69,64,0
2,59,64,8
2,56,64,0
2,64,64,0
2,56,64,8
2,59,64,0
2,64,64,0
2,59,78,56
2,56,74,0
2,56,66,30
2,59,88,0
2,56,64,26
2,59,88,0
2,56,82,31
2,59,92,0
2,56,62,28
2,59,88,0
2,56,82,30
2,59,96,0
2,56,74,23
2,59,88,0
2,56,54,32
2,59,60,0
2,56,60,32
2,59,78,0
2,59,74,29
2,56,58,0
2,61,92,26
2,64,88,0
2,59,92,2
2,62,88,0
2,59,92,79
2,56,58,0
2,56,62,31
2,59,88,0
2,56,66,24
2,59,88,0
2,56,66,31
2,59,78,0
2,56,66,29
2,59,82,0
2,59,92,32
2,56,66,0
2,56,66,29
2,59,88,0
2,59,96,460
2,56,66,0
2,56,66,29
2,59,92,0
2,56,70,27
2,59,88,0
2,56,74,29
2,59,88,0
2,56,70,24
2,59,82,0
2,59,102,31
2,56,96,0
2,59,78,25
2,56,60,0
2,56,70,34
2,59,88,0
2,59,70,29
2,56,54,0
2,56,62,31
2,59,88,0
2,64,82,29
2,61,88,0
2,59,82,8
2,62,88,0
2,59,88,79
2,56,66,0
2,56,62,27
2,59,82,0
2,56,62,24
2,59,88,0
2,56,62,29
2,59,88,0
2,59,74,28
2,56,60,0
2,56,92,33
2,59,96,0
2,56,60,20
2,59,74,0
2,56,66,31
2,59,74,0
2,59,78,30
2,56,58,0
2,56,62,30
2,59,78,0
2,61,88,30
2,64,88,0
2,59,88,6
2,62,88,0
2,64,64,91
2,57,64,0
2,61,64,0
2,64,64,8
2,57,64,0
2,61,64,0
2,64,64,14
2,57,64,0
2,61,64,0
2,64,64,8
2,61,64,0
2,57,64,0
2,61,64,56
2,64,64,0
2,57,64,0
2,57,64,8
2,61,64,0
2,64,64,0
2,57,64,8
2,61,64,0
2,64,64,0
2,61,64,14
2,57,64,0
2,64,64,0
2,62,64,14
2,59,64,0
2,67,64,0
2,63,64,830
2,66,64,0
2,59,64,0
2,66,64,8
2,59,64,0
2,63,64,0
2,63,64,8
2,66,64,0
2,59,64,0
2,63,64,8
2,66,64,0
2,59,64,0
2,59,64,8
2,63,64,0
2,66,64,0
2,63,64,152
2,59,64,0
2,66,64,0
2,63,64,8
2,66,64,0
2,59,64,0
2,63,64,8
2,59,64,0
2,66,64,0
2,66,64,8
2,63,64,0
2,59,64,0
2,64,64,56
2,59,64,0
2,68,64,0
2,64,64,8
2,59,64,0
2,68,64,0
2,64,64,8
2,59,64,0
2,68,64,0
2,64,64,8
2,59,64,0
2,68,64,0
2,61,64,8
2,69,64,0
2,64,64,0
2,69,64,8
2,61,64,0
2,64,64,0
2,61,64,8
2,69,64,0
2,64,64,0
2,61,64,8
2,69,64,0
2,64,64,0
2,63,64,8
2,66,64,0
2,59,64,0
2,59,64,8
2,63,64,0
2,66,64,0
2,63,64,8
2,59,64,0
2,66,64,0
2,59,64,8
2,64,64,0
2,68,64,0
2,64,64,8
2,59,64,0
2,68,64,0
2,64,64,8
2,59,64,0
2,68,64,0
2,64,64,8
2,59,64,0
2,68,64,0
2,68,64,8
2,59,64,0
2,64,64,0
2,68,64,8
2,59,64,0
2,64,64,0
2,64,64,8
2,59,64,0
2,68,64,0
2,64,64,8
2,68,64,0
2,59,64,0
2,69,64,8
2,61,64,0
2,64,64,0
2,61,64,8
2,69,64,0
2,64,64,0
2,69,64,8
2,64,64,0
2,61,64,0
2,69,64,8
2,64,64,0
2,61,64,0
2,63,64,8
2,66,64,0
2,71,64,0
2,71,64,8
2,66,64,0
2,63,64,0
2,66,64,8
2,71,64,0
2,63,64,0
2,59,64,8
2,68,64,0
2,64,64,0
2,64,64,8
2,59,64,0
2,68,64,0
2,64,64,8
2,59,64,0
2,68,64,0
2,59,64,8
2,68,64,0
2,64,64,0
2,70,64,8
2,61,64,0
2,66,64,0
2,66,64,8
2,61,64,0
2,70,64,0
2,61,64,8
2,70,64,0
2,66,64,0
2,61,64,8
2,70,64,0
2,66,64,0
2,71,64,8
2,66,64,0
2,63,64,0
2,66,64,8
2,71,64,0
2,63,64,0
2,63,64,8
2,71,64,0
2,66,64,0
