track,note,velocity,time
3,40,100,1912
3,40,100,0
3,45,100,0
3,45,100,0
3,47,100,0
3,47,100,0
3,47,100,0
3,47,100,240
3,40,100,240
3,40,100,0
3,40,100,0
3,40,100,0
3,47,100,0
3,49,100,0
3,47,100,0
3,40,100,0
3,40,100,0
3,40,100,0
3,40,100,0
3,40,100,0
3,42,100,0
3,44,100,0
3,44,100,0
3,44,100,0
3,44,100,0
3,44,100,0
3,47,100,0
3,45,100,0
3,45,100,0
3,45,100,0
3,45,100,0
3,45,100,0
3,44,100,0
3,42,100,0
3,40,100,0
3,42,100,0
3,44,100,0
3,49,100,0
3,47,100,0
3,42,100,0
3,44,100,0
3,42,100,0
3,40,100,0
3,40,100,0
3,40,100,0
3,40,100,0
3,40,100,0
3,47,100,0
3,49,100,0
3,47,100,0
3,40,100,0
3,40,100,0
3,40,100,0
3,40,100,0
3,40,100,0
3,42,100,0
3,44,100,0
3,44,100,0
3,44,100,0
3,44,100,0
3,44,100,0
3,47,100,0
3,45,100,0
3,45,100,0
3,45,100,0
3,45,100,0
3,45,100,0
3,44,100,0
3,42,100,0
3,47,100,0
3,42,100,0
3,44,100,0
3,42,100,0
3,47,100,0
3,42,100,0
3,44,100,0
3,42,100,0
3,49,100,0
3,49,100,0
3,47,100,0
3,45,100,0
3,45,100,0
3,45,100,0
3,47,100,0
3,40,100,0
3,40,100,0
3,40,100,0
3,40,100,0
3,40,100,0
3,42,100,0
3,44,100,0
3,44,100,0
3,44,100,0
3,44,100,0
3,42,100,0
3,44,100,0
3,47,100,0
3,45,100,0
3,45,100,0
3,45,100,0
3,47,100,0
3,49,100,0
3,52,100,0
3,54,100,0
3,54,100,0
3,54,100,0
3,54,100,0
3,54,100,0
3,47,100,0
3,47,100,0
3,47,100,0
3,40,100,0
3,40,100,0
3,40,100,0
3,40,100,0
3,49,100,0
3,47,100,0
3,45,100,0
3,45,100,0
3,45,100,0
3,52,100,0
3,49,100,0
3,47,100,0
3,45,100,0
3,40,100,0
3,40,100,0
3,40,100,0
3,45,100,0
3,44,100,0
3,42,100,16
3,40,100,464
3,47,100,0
3,47,100,0
3,47,100,0
3,47,100,0
3,47,100,0
3,47,100,0
3,45,100,0
3,45,100,0
3,45,100,0
3,47,100,0
3,44,100,0
3,42,100,0
3,40,100,0
3,40,100,0
3,42,100,0
3,44,100,0
3,49,100,0
3,49,100,0
3,44,100,0
3,47,100,0
3,47,100,0
3,49,100,0
3,51,100,0
3,45,100,0
3,40,100,0
3,40,100,0
3,40,100,0
3,40,100,0
3,40,100,0
3,42,100,0
3,44,100,0
3,40,100,0
3,45,100,0
3,45,100,0
3,45,100,0
3,45,100,0
3,49,100,0
3,47,100,0
3,40,100,0
3,40,100,0
3,40,100,0
3,40,100,0
3,40,100,0
3,42,100,0
3,44,100,0
3,44,100,0
3,44,100,0
3,44,100,0
3,44,100,0
3,47,100,0
3,45,100,0
3,45,100,0
3,45,100,0
3,45,100,0
3,45,100,0
3,44,100,0
3,42,100,0
3,47,100,0
3,42,100,0
3,44,100,0
3,42,100,0
3,47,100,0
3,42,100,0
3,44,100,0
3,42,100,0
3,49,100,0
3,49,100,0
3,47,100,0
3,45,100,0
3,45,100,0
3,45,100,0
3,47,100,0
3,40,100,0
3,40,100,0
3,40,100,0
3,40,100,0
3,40,100,0
3,42,100,0
3,44,100,0
3,44,100,0
3,44,100,0
3,44,100,0
3,42,100,0
3,44,100,0
3,47,100,0
3,45,100,0
3,45,100,0
3,45,100,0
3,47,100,0
3,49,100,0
3,52,100,0
3,54,100,0
3,54,100,0
3,54,100,0
3,54,100,0
3,54,100,0
3,47,100,0
3,47,100,0
3,47,100,0
3,40,100,0
3,40,100,0
3,40,100,0
3,40,100,0
3,49,100,0
3,47,100,0
3,45,100,0
3,45,100,0
3,45,100,0
3,52,100,0
3,49,100,0
3,47,100,0
3,45,100,0
3,40,100,0
3,40,100,0
3,40,100,0
3,45,100,0
3,44,100,0
3,42,100,16
3,40,100,464
3,47,100,0
3,47,100,0
3,47,100,0
3,47,100,0
3,47,100,0
3,47,100,0
3,45,100,0
3,45,100,0
3,45,100,0
3,47,100,0
3,44,100,0
3,42,100,0
3,40,100,0
3,40,100,0
3,42,100,0
3,44,100,0
3,49,100,0
3,49,100,0
3,44,100,0
3,47,100,0
3,47,100,0
3,49,100,0
3,51,100,0
3,45,100,0
3,40,100,0
3,40,100,0
3,40,100,0
3,40,100,0
3,40,100,0
3,42,100,0
3,44,100,0
3,45,100,0
3,45,100,0
3,45,100,0
3,45,100,0
3,47,100,0
3,49,100,0
3,52,100,0
3,54,100,0
3,52,100,0
3,52,100,0
3,52,100,0
3,52,100,0
3,47,100,0
3,49,100,0
3,47,100,0
3,45,100,0
3,45,100,0
3,45,100,0
3,45,100,0
3,45,100,0
3,47,100,0
3,47,100,0
3,52,100,0
3,40,100,0
3,45,100,0
3,45,100,0
3,47,100,0
3,49,100,0
3,52,100,0
3,54,100,0
3,52,100,0
3,40,100,0
3,45,100,0
3,45,100,0
3,47,100,0
3,49,100,0
3,52,100,0
3,54,100,0
3,52,100,0
3,52,100,0
3,45,100,0
3,40,100,0
3,45,100,0
3,45,100,0
3,40,100,0
3,40,100,0
3,40,100,0
3,40,100,0
3,40,100,0
3,40,100,0
3,40,100,0
3,40,100,0
3,40,100,0
3,40,100,0
3,45,100,0
3,45,100,0
3,45,100,0
3,45,100,0
3,45,100,0
3,40,100,0
3,40,100,0
3,40,100,0
3,40,100,0
3,49,100,0
3,47,100,0
3,45,100,0
3,45,100,0
3,45,100,0
3,52,100,0
3,49,100,0
3,47,100,0
3,45,100,0
3,40,100,0
3,40,100,0
3,40,100,0
3,45,100,0
3,44,100,0
3,42,100,16
3,40,100,464
3,47,100,0
3,47,100,0
3,47,100,0
3,47,100,0
3,47,100,0
3,47,100,0
3,45,100,0
3,45,100,0
3,45,100,0
3,47,100,0
3,44,100,0
3,42,100,0
3,40,100,0
3,40,100,0
3,42,100,0
3,44,100,0
3,49,100,0
3,49,100,0
3,44,100,0
3,47,100,0
3,47,100,0
3,49,100,0
3,51,100,0
3,45,100,0
3,40,100,0
3,40,100,0
3,40,100,0
3,40,100,0
3,44,100,0
3,45,100,0
3,47,100,0
3,47,100,0
3,42,100,0
3,44,100,0
3,45,100,0
3,45,100,0
3,44,100,0
3,42,100,0
3,40,100,0
3,40,100,0
3,40,100,0
3,40,100,0
3,40,100,0
3,42,100,0
3,44,100,0
3,45,100,0
3,45,100,0
3,40,100,0
3,45,100,0
3,47,100,0
3,49,100,0
3,51,100,0
3,49,100,0
3,40,100,0
3,40,100,0
3,40,100,0
3,40,100,0
3,40,100,0
3,42,100,0
3,44,100,0
3,45,100,0
3,45,100,0
3,40,100,0
3,45,100,0
3,47,100,0
3,49,100,0
3,51,100,0
3,49,100,0
3,40,100,0
3,40,100,0
3,40,100,0
3,40,100,0
3,40,100,0
3,42,100,0
3,44,100,0
3,45,100,0
3,45,100,0
3,40,100,0
3,45,100,0
3,47,100,0
3,49,100,0
3,51,100,0
3,49,100,0
3,40,100,0
3,40,100,0
3,40,100,0
3,40,100,0
3,40,100,0
3,42,100,0
3,44,100,0
3,45,100,0
3,45,100,0
3,40,100,0
3,45,100,0
3,47,100,0
3,49,100,0
3,51,100,0
3,49,100,0
3,40,100,0
3,40,100,0
3,40,100,0
3,40,100,0
3,40,100,0
3,42,100,0
3,44,100,0
3,45,100,0
3,45,100,0
3,40,100,0
3,45,100,0
3,47,100,0
3,49,100,0
3,51,100,0
3,49,100,0
4,42,100,2392
4,42,100,480
4,42,100,480
4,42,100,480
4,42,100,480
4,42,100,480
4,42,100,480
4,42,100,480
4,42,100,480
4,42,100,480
4,40,100,900
4,40,100,0
4,35,100,0
4,40,100,420
4,35,100,0
4,40,100,0
4,42,100,0
4,52,100,0
4,59,100,0
4,35,100,0
4,42,100,0
4,59,100,0
4,42,100,0
4,59,100,0
4,40,100,0
4,42,100,0
4,59,100,0
4,35,100,0
4,42,100,0
4,59,100,0
4,42,100,0
4,59,100,0
4,35,100,0
4,42,100,0
4,59,100,0
4,40,100,0
4,42,100,0
4,59,100,0
4,35,100,0
4,42,100,0
4,52,100,0
4,59,100,0
4,35,100,0
4,42,100,0
4,59,100,0
4,42,100,0
4,59,100,0
4,40,100,0
4,42,100,0
4,59,100,0
4,35,100,0
4,42,100,0
4,59,100,0
4,42,100,0
4,59,100,0
4,35,100,0
4,42,100,0
4,59,100,0
4,40,100,0
4,42,100,0
4,59,100,0
4,35,100,0
4,42,100,0
4,52,100,0
4,59,100,0
4,35,100,0
4,42,100,0
4,59,100,0
4,42,100,0
4,59,100,0
4,40,100,0
4,42,100,0
4,59,100,0
4,35,100,0
4,42,100,0
4,59,100,0
4,42,100,0
4,59,100,0
4,35,100,0
4,42,100,0
4,59,100,0
4,40,100,0
4,42,100,0
4,59,100,0
4,35,100,0
4,42,100,0
4,59,100,0
4,35,100,0
4,42,100,0
4,59,100,0
4,42,100,0
4,59,100,0
4,40,100,0
4,42,100,0
4,59,100,0
4,35,100,0
4,42,100,0
4,59,100,0
4,42,100,0
4,59,100,0
4,35,100,0
4,42,100,0
4,59,100,0
4,40,100,0
4,42,100,0
4,59,100,0
4,35,100,0
4,42,100,0
4,59,100,0
4,35,100,0
4,42,100,0
4,59,100,0
4,42,100,0
4,59,100,0
4,40,100,0
4,42,100,0
4,59,100,0
4,35,100,0
4,42,100,0
4,59,100,0
4,42,100,0
4,59,100,0
4,35,100,0
4,42,100,0
4,59,100,0
4,40,100,0
4,42,100,0
4,59,100,0
4,35,100,0
4,42,100,0
4,59,100,0
4,35,100,0
4,42,100,0
4,59,100,0
4,42,100,0
4,59,100,0
4,40,100,0
4,42,100,0
4,59,100,0
4,35,100,0
4,42,100,0
4,59,100,0
4,42,100,0
4,59,100,0
4,35,100,0
4,42,100,0
4,59,100,0
4,40,100,0
4,42,100,0
4,59,100,0
4,35,100,0
4,42,100,0
4,52,100,0
4,59,100,0
4,35,100,0
4,42,100,0
4,59,100,0
4,42,100,0
4,59,100,0
4,40,100,0
4,42,100,0
4,59,100,0
4,35,100,0
4,42,100,0
4,59,100,0
4,42,100,0
4,59,100,0
4,35,100,0
4,42,100,0
4,59,100,0
4,40,100,0
4,42,100,0
4,59,100,0
4,35,100,0
4,42,100,0
4,59,100,0
4,35,100,0
4,42,100,0
4,59,100,0
4,42,100,0
4,59,100,0
4,40,100,0
4,42,100,0
4,59,100,0
4,35,100,0
4,42,100,0
4,59,100,0
4,42,100,0
4,59,100,0
4,35,100,0
4,42,100,0
4,59,100,0
4,40,100,0
4,42,100,0
4,59,100,0
4,35,100,0
4,42,100,0
4,52,100,0
4,59,100,0
4,35,100,0
4,42,100,0
4,59,100,0
4,42,100,0
4,59,100,0
4,40,100,0
4,42,100,0
4,59,100,0
4,35,100,0
4,42,100,0
4,59,100,0
4,42,100,0
4,59,100,0
4,35,100,0
4,42,100,0
4,59,100,0
4,40,100,0
4,42,100,0
4,59,100,0
4,35,100,0
4,42,100,0
4,59,100,0
4,35,100,0
4,42,100,0
4,59,100,0
4,42,100,0
4,59,100,0
4,40,100,0
4,42,100,0
4,59,100,0
4,35,100,0
4,42,100,0
4,59,100,0
4,42,100,0
4,59,100,0
4,35,100,0
4,42,100,0
4,59,100,0
4,40,100,0
4,42,100,0
4,59,100,0
4,35,100,0
4,42,100,0
4,52,100,0
4,59,100,0
4,35,100,0
4,42,100,0
4,59,100,0
4,42,100,0
4,59,100,0
4,40,100,0
4,42,100,0
4,59,100,0
4,35,100,0
4,42,100,0
4,59,100,0
4,42,100,0
4,59,100,0
4,35,100,0
4,42,100,0
4,59,100,0
4,40,100,0
4,42,100,0
4,59,100,0
4,35,100,0
4,42,100,0
4,59,100,0
4,35,100,0
4,42,100,0
4,59,100,0
4,42,100,0
4,59,100,0
4,40,100,0
4,42,100,0
4,59,100,0
4,35,100,0
4,57,100,0
4,42,100,0
4,59,100,0
4,42,100,0
4,59,100,0
4,35,100,0
4,57,100,0
4,42,100,0
4,59,100,0
4,40,100,0
4,42,100,0
4,59,100,0
4,35,100,0
4,57,100,0
4,42,100,0
4,59,100,0
4,35,100,0
4,42,100,0
4,59,100,0
4,42,100,0
4,59,100,0
4,40,100,0
4,42,100,0
4,59,100,0
4,35,100,0
4,42,100,0
4,59,100,0
4,42,100,0
4,59,100,0
4,35,100,0
4,42,100,0
4,59,100,0
4,40,100,0
4,42,100,0
4,59,100,0
4,35,100,0
4,42,100,0
4,59,100,0
4,35,100,0
4,42,100,0
4,59,100,0
4,42,100,0
4,59,100,0
4,40,100,0
4,42,100,0
4,59,100,0
4,35,100,0
4,42,100,0
4,59,100,0
4,42,100,0
4,59,100,0
4,35,100,0
4,42,100,0
4,59,100,0
4,40,100,0
4,42,100,0
4,59,100,0
4,35,100,0
4,42,100,0
4,52,100,0
4,59,100,0
4,35,100,0
4,42,100,0
4,59,100,0
4,42,100,0
4,59,100,0
4,40,100,0
4,42,100,0
4,59,100,0
4,35,100,0
4,42,100,0
4,59,100,0
4,42,100,0
4,59,100,0
4,35,100,0
4,42,100,0
4,59,100,0
4,40,100,0
4,42,100,0
4,59,100,0
4,35,100,0
4,42,100,0
4,52,100,0
4,59,100,0
4,35,100,0
4,42,100,0
4,59,100,0
4,42,100,0
4,59,100,0
4,40,100,0
4,42,100,0
4,59,100,0
4,35,100,0
4,42,100,0
4,59,100,0
4,42,100,0
4,59,100,0
4,35,100,0
4,42,100,0
4,59,100,0
4,40,100,0
4,42,100,0
4,59,100,0
4,35,100,0
4,42,100,0
4,59,100,0
4,35,100,0
4,42,100,0
4,59,100,0
4,42,100,0
4,59,100,0
4,40,100,0
4,42,100,0
4,59,100,0
4,35,100,0
4,42,100,0
4,59,100,0
4,42,100,0
4,59,100,0
4,35,100,0
4,42,100,0
4,59,100,0
4,40,100,0
4,42,100,0
4,59,100,0
4,35,100,0
4,42,100,0
4,59,100,0
4,35,100,0
4,42,100,0
4,59,100,0
4,42,100,0
4,59,100,0
4,40,100,0
4,42,100,0
4,59,100,0
4,35,100,0
4,42,100,0
4,59,100,0
4,42,100,0
4,59,100,0
4,35,100,0
4,42,100,0
4,59,100,0
4,40,100,0
4,42,100,0
4,59,100,0
4,35,100,0
4,42,100,0
4,52,100,0
4,59,100,0
4,35,100,0
4,42,100,0
4,59,100,0
4,42,100,0
4,59,100,0
4,40,100,0
4,42,100,0
4,59,100,0
4,35,100,0
4,42,100,0
4,59,100,0
4,42,100,0
4,59,100,0
4,35,100,0
4,42,100,0
4,59,100,0
4,40,100,0
4,42,100,0
4,59,100,0
4,35,100,0
4,42,100,0
4,52,100,0
4,59,100,0
4,35,100,0
4,42,100,0
4,59,100,0
4,42,100,0
4,59,100,0
4,40,100,0
4,42,100,0
4,59,100,0
4,35,100,0
4,42,100,0
4,59,100,0
4,42,100,0
4,59,100,0
4,35,100,0
4,42,100,0
4,59,100,0
4,40,100,0
4,42,100,0
4,59,100,0
4,35,100,0
4,56,100,0
4,57,100,0
4,52,100,0
4,42,100,0
4,59,100,0
4,35,100,0
4,42,100,0
4,59,100,0
4,56,100,0
4,42,100,0
4,59,100,0
4,40,100,0
4,42,100,0
4,59,100,0
4,35,100,0
4,56,100,0
4,42,100,0
4,59,100,0
4,42,100,0
4,59,100,0
4,35,100,0
4,56,100,0
4,42,100,0
4,59,100,0
4,40,100,0
4,42,100,0
4,59,100,0
4,35,100,0
4,56,100,0
4,42,100,0
4,59,100,0
4,35,100,0
4,42,100,0
4,59,100,0
4,56,100,0
4,42,100,0
4,59,100,0
4,40,100,0
4,42,100,0
4,59,100,0
4,35,100,0
4,56,100,0
4,42,100,0
4,59,100,0
4,42,100,0
4,59,100,0
4,35,100,0
4,56,100,0
4,42,100,0
4,59,100,0
4,40,100,0
4,42,100,0
4,59,100,0
4,35,100,0
4,56,100,0
4,42,100,0
4,52,100,0
4,59,100,0
