track,note,velocity,time
1,71,127,0
1,70,127,132
1,68,127,4
1,71,127,8
1,70,127,128
1,68,127,8
1,71,127,8
1,71,127,32
1,70,127,380
1,68,127,0
1,68,127,68
1,70,127,8
1,68,127,64
1,70,127,16
1,71,127,24
1,71,127,12
1,71,127,20
1,70,127,136
1,68,127,0
1,71,127,64
1,71,127,24
1,70,127,384
1,68,127,0
1,68,127,28
1,66,127,136
1,61,127,12
1,73,127,80
1,73,127,20
1,73,127,28
1,73,127,24
1,73,127,28
1,73,127,16
1,73,127,24
1,78,127,12
1,78,127,28
1,75,127,4
1,75,127,20
1,75,127,72
1,73,127,4
1,73,127,48
1,70,127,20
1,73,127,108
1,75,127,20
1,73,127,8
1,73,127,36
1,71,127,16
1,70,127,32
1,66,127,20
1,66,127,20
1,66,127,60
1,66,127,20
1,71,127,48
1,71,127,12
1,71,127,24
1,71,127,12
1,71,127,24
1,71,127,32
1,71,127,68
1,71,127,16
1,71,127,60
1,71,127,72
1,70,127,128
1,68,127,8
1,66,127,20
1,68,127,204
1,70,127,12
1,71,127,12
1,71,127,16
1,71,127,16
1,71,127,20
1,70,127,188
1,68,127,8
1,71,127,20
1,71,127,24
1,71,127,24
1,71,127,32
1,70,127,0
1,68,127,4
1,68,127,32
1,70,127,0
1,68,127,236
1,70,127,8
1,71,127,12
1,71,127,20
1,71,127,40
1,71,127,24
1,70,127,140
1,68,127,0
1,71,127,12
1,71,127,20
1,71,127,32
1,71,127,52
1,70,127,96
1,68,127,4
1,68,127,20
1,66,127,8
1,61,127,0
1,73,127,180
1,73,127,16
1,73,127,32
1,73,127,16
1,73,127,36
1,73,127,16
1,73,127,20
1,78,127,12
1,78,127,32
1,75,127,8
1,75,127,20
1,73,127,8
1,75,127,16
1,73,127,68
1,73,127,20
1,75,127,68
1,73,127,4
1,73,127,28
1,73,127,32
1,71,127,24
1,70,127,24
1,66,127,16
1,66,127,12
1,71,127,312
1,71,127,24
1,71,127,28
1,71,127,32
1,70,127,4
1,68,127,4
1,66,127,28
1,78,127,360
1,78,127,32
1,78,127,24
1,78,127,32
1,78,127,28
1,78,127,24
1,77,127,40
1,77,127,16
1,75,127,4
1,75,127,12
1,75,127,40
1,73,127,24
1,78,127,132
1,78,127,28
1,78,127,24
1,78,127,24
1,78,127,8
1,80,127,20
1,80,127,28
1,83,127,12
1,83,127,28
1,82,127,4
1,78,127,508
1,82,127,40
1,80,127,8
1,78,127,12
1,78,127,28
1,75,127,8
1,75,127,24
1,75,127,48
1,73,127,36
1,78,127,68
1,75,127,512
1,75,127,28
1,75,127,32
1,73,127,0
1,75,127,256
1,77,127,4
1,78,127,52
1,77,127,48
1,75,127,48
1,71,127,1016
1,71,127,36
1,71,127,16
1,70,127,8
1,68,127,544
1,70,127,16
1,71,127,16
1,71,127,16
1,71,127,20
1,71,127,24
1,71,127,12
1,71,127,20
1,71,127,24
1,71,127,20
1,70,127,120
1,68,127,12
1,68,127,44
1,70,127,8
1,68,127,192
1,70,127,132
1,71,127,124
1,71,127,16
1,71,127,24
1,71,127,32
1,70,127,180
1,68,127,120
1,71,127,8
1,71,127,20
1,71,127,16
1,71,127,20
1,70,127,4
1,68,127,4
1,66,127,8
1,61,127,8
1,73,127,80
1,73,127,52
1,73,127,20
1,73,127,36
1,73,127,60
1,73,127,28
1,73,127,32
1,78,127,24
1,78,127,36
1,78,127,16
1,78,127,32
1,78,127,16
1,75,127,8
1,73,127,8
1,73,127,16
1,73,127,8
1,73,127,24
1,75,127,36
1,73,127,8
1,73,127,32
1,73,127,24
1,73,127,84
1,71,127,12
1,70,127,4
1,66,127,16
1,66,127,20
1,71,127,184
1,71,127,16
1,71,127,60
1,71,127,32
1,70,127,0
1,68,127,4
1,66,127,52
1,78,127,512
1,78,127,16
1,78,127,20
1,78,127,12
1,78,127,28
1,78,127,12
1,78,127,20
1,78,127,24
1,77,127,28
1,77,127,36
1,75,127,132
1,75,127,20
1,75,127,24
1,73,127,4
1,78,127,244
1,78,127,16
1,78,127,20
1,78,127,12
1,78,127,28
1,78,127,24
1,80,127,20
1,80,127,36
1,83,127,16
1,83,127,28
1,82,127,140
1,82,127,16
1,80,127,60
1,78,127,4
1,82,127,16
1,82,127,4
1,80,127,16
1,78,127,4
1,78,127,28
1,75,127,20
1,75,127,32
1,75,127,32
1,73,127,12
1,78,127,64
1,75,127,24
1,75,127,28
1,75,127,32
1,73,127,20
1,78,127,176
1,77,127,32
1,75,127,36
1,71,127,0
1,70,127,392
1,68,127,12
1,68,127,52
1,66,127,56
1,78,127,68
1,78,127,24
1,78,127,24
1,78,127,28
1,78,127,20
1,78,127,32
1,78,127,44
1,78,127,28
1,75,127,8
1,78,127,24
1,80,127,24
1,80,127,24
1,78,127,12
1,80,127,120
1,78,127,12
1,78,127,36
1,75,127,8
1,73,127,28
1,75,127,8
1,73,127,4
1,73,127,32
1,71,127,20
1,71,127,40
1,71,127,24
1,70,127,4
1,68,127,16
1,71,127,20
1,71,127,20
1,71,127,80
1,71,127,16
1,71,127,32
1,71,127,28
1,70,127,12
1,68,127,4
1,66,127,28
1,68,127,13680
1,70,127,4
1,71,127,4
1,71,127,24
1,71,127,24
1,71,127,20
1,70,127,184
1,68,127,8
1,71,127,8
1,71,127,16
1,70,127,380
1,68,127,12
1,68,127,32
1,70,127,0
1,68,127,0
1,70,127,4
1,71,127,0
1,71,127,32
1,71,127,24
1,71,127,12
1,70,127,140
1,68,127,0
1,71,127,4
1,70,127,568
1,68,127,8
1,68,127,16
1,66,127,4
1,61,127,8
1,68,127,104
1,70,127,0
1,71,127,8
1,71,127,20
1,71,127,16
1,71,127,24
1,70,127,196
1,68,127,4
1,71,127,8
1,70,127,584
1,68,127,12
1,68,127,28
1,70,127,4
1,66,127,0
1,78,127,220
1,78,127,32
1,78,127,36
1,77,127,28
1,77,127,24
1,75,127,4
1,75,127,32
1,73,127,12
1,73,127,28
1,78,127,700
1,78,127,40
1,78,127,32
1,78,127,28
1,78,127,36
1,78,127,28
1,78,127,20
1,77,127,48
1,77,127,28
1,75,127,0
1,73,127,8
1,73,127,92
1,75,127,0
1,73,127,0
1,78,127,104
1,78,127,24
1,78,127,20
1,78,127,28
1,78,127,24
1,80,127,24
1,80,127,20
1,83,127,20
1,83,127,36
1,82,127,16
1,80,127,8
1,78,127,0
1,82,127,16
1,80,127,12
1,78,127,4
1,78,127,32
1,75,127,0
1,75,127,28
1,75,127,28
1,73,127,8
1,78,127,0
1,75,127,12
1,75,127,32
1,75,127,40
1,73,127,8
1,75,127,12
1,77,127,8
1,78,127,40
1,77,127,52
1,75,127,60
1,78,127,1000
1,78,127,28
1,78,127,20
1,78,127,52
1,77,127,20
1,75,127,48
1,75,127,68
1,73,127,8
1,78,127,124
1,78,127,32
1,78,127,28
1,78,127,20
1,78,127,24
1,78,127,64
1,80,127,20
1,80,127,36
1,83,127,16
1,83,127,28
1,82,127,24
1,80,127,4
1,78,127,8
1,82,127,16
1,80,127,24
1,78,127,8
1,78,127,24
1,75,127,8
1,75,127,24
1,75,127,40
1,73,127,28
1,78,127,64
1,75,127,52
1,75,127,40
1,75,127,40
1,73,127,8
1,78,127,188
1,77,127,40
1,75,127,32
1,66,127,0
1,71,127,32
1,70,127,252
1,68,127,240
1,68,127,60
1,66,127,8
2,44,127,27392
2,42,127,128
2,35,127,12
2,37,127,1276
2,39,127,0
2,30,127,8
2,39,127,1276
2,37,127,100
2,35,127,16
2,37,127,0
2,39,127,128
2,42,127,0
2,30,127,20
2,32,127,128
2,34,127,12
2,34,127,56
2,35,127,128
2,35,127,88
2,30,127,128
2,37,127,12
2,42,127,128
2,39,127,0
2,37,127,128
2,35,127,8
2,35,127,60
2,35,127,28
2,30,127,32
2,32,127,24
2,35,127,32
2,37,127,380
2,42,127,52
2,42,127,20
2,42,127,24
2,41,127,24
2,41,127,40
2,41,127,12
2,39,127,12
2,39,127,60
2,37,127,4
2,35,127,12
2,30,127,52
2,37,127,36
2,42,127,128
2,37,127,0
2,30,127,0
2,39,127,28
2,39,127,40
2,41,127,28
2,42,127,4
2,30,127,384
2,37,127,624
2,42,127,116
2,37,127,124
2,30,127,8
2,32,127,256
2,34,127,16
2,35,127,12
2,35,127,60
2,30,127,12
2,32,127,512
2,30,127,108
2,35,127,4
2,35,127,44
2,30,127,0
2,30,127,68
2,39,127,128
2,41,127,28
2,42,127,52
2,30,127,64
2,30,127,32
2,30,127,60
2,35,127,64
2,35,127,36
2,35,127,72
2,30,127,12
2,32,127,0
2,30,127,4
2,37,127,16
2,42,127,128
2,30,127,4
2,32,127,128
2,35,127,16
2,35,127,64
2,35,127,68
2,37,127,512
2,39,127,0
2,30,127,8
2,30,127,60
2,30,127,68
2,32,127,512
2,30,127,0
2,34,127,0
2,34,127,44
2,35,127,0
2,35,127,88
2,30,127,4
2,37,127,636
2,42,127,108
2,37,127,244
2,42,127,0
2,37,127,128
2,30,127,8
2,35,127,16
2,35,127,104
2,35,127,32
2,30,127,0
2,32,127,12
2,35,127,12
2,37,127,48
2,42,127,36
2,42,127,28
2,42,127,20
2,41,127,20
2,41,127,28
2,41,127,24
2,41,127,16
2,39,127,24
2,39,127,56
2,37,127,4
2,35,127,8
2,30,127,32
2,37,127,0
2,42,127,128
2,37,127,120
2,30,127,0
2,37,127,12
2,39,127,8
2,39,127,56
2,41,127,28
2,42,127,28
2,30,127,0
2,37,127,28
2,42,127,256
2,42,127,24
2,42,127,24
2,42,127,20
2,42,127,12
2,35,127,8
2,30,127,20
2,32,127,128
2,30,127,0
2,37,127,512
2,42,127,0
2,35,127,8
2,35,127,44
2,30,127,8
2,30,127,48
2,30,127,24
2,39,127,16
2,41,127,44
2,35,127,48
2,30,127,0
2,32,127,128
2,35,127,12
2,35,127,36
2,35,127,12
2,42,127,20
2,42,127,20
2,42,127,28
2,41,127,44
2,41,127,48
2,41,127,16
2,35,127,0
2,39,127,4
2,35,127,128
2,37,127,20
2,37,127,72
2,42,127,0
2,37,127,636
2,30,127,120
2,37,127,508
2,30,127,12
2,35,127,16
2,30,127,384
2,32,127,0
2,30,127,8
2,35,127,20
2,35,127,44
2,35,127,24
2,35,127,24
2,35,127,36
2,35,127,36
2,37,127,24
2,37,127,20
2,37,127,12
2,42,127,28
2,42,127,24
2,42,127,52
2,44,127,16
2,42,127,16
2,41,127,8
2,41,127,16
2,41,127,56
2,42,127,20
2,41,127,20
2,39,127,28
2,39,127,60
2,37,127,0
2,35,127,4
2,30,127,380
2,37,127,32
2,42,127,128
2,37,127,0
2,42,127,0
2,37,127,64
2,39,127,12
2,39,127,40
2,37,127,4
2,35,127,20
2,30,127,56
2,37,127,48
2,30,127,0
2,42,127,0
2,37,127,12
2,30,127,128
2,39,127,12
2,39,127,40
2,37,127,4
2,35,127,16
2,30,127,12
2,37,127,636
2,42,127,0
2,37,127,320
2,42,127,60
2,37,127,56
2,30,127,12
2,42,127,0
2,39,127,60
2,41,127,36
2,42,127,32
2,39,127,10792
2,41,127,40
2,42,127,28
2,30,127,768
2,42,127,84
2,41,127,20
2,29,127,256
2,41,127,236
2,29,127,108
2,39,127,48
2,39,127,36
2,37,127,8
2,35,127,16
2,30,127,16
2,37,127,24
2,42,127,128
2,37,127,508
2,30,127,8
2,39,127,20
2,39,127,52
2,41,127,28
2,42,127,16
2,30,127,12
2,37,127,16
2,30,127,0
2,37,127,36
2,39,127,64
2,37,127,4
2,35,127,16
2,35,127,60
2,30,127,20
2,37,127,512
2,42,127,116
2,35,127,16
2,35,127,68
2,30,127,12
2,37,127,8
2,42,127,0
2,39,127,16
2,39,127,44
2,41,127,28
2,41,127,20
2,42,127,8
2,37,127,44
2,30,127,4
2,37,127,380
2,42,127,8
2,37,127,128
2,41,127,24
2,41,127,36
2,41,127,52
2,29,127,128
2,41,127,124
2,29,127,116
2,39,127,20
2,39,127,64
2,37,127,0
2,35,127,8
2,30,127,8
2,37,127,80
2,42,127,128
2,37,127,12
2,42,127,4
2,37,127,64
2,30,127,8
2,37,127,64
2,42,127,56
2,39,127,12
2,39,127,36
2,41,127,128
2,43,127,0
2,42,127,16
2,30,127,4
2,37,127,636
2,42,127,120
2,30,127,252
2,42,127,16
2,30,127,128
2,35,127,32
2,35,127,72
2,30,127,4
2,32,127,20
2,30,127,128
2,35,127,68
2,37,127,8
2,42,127,16
2,37,127,20
2,30,127,4
2,39,127,12
2,41,127,32
2,42,127,32
3,66,126,1536
3,63,127,0
3,59,120,4
3,80,127,4
3,78,124,4
3,75,120,124
3,80,127,128
3,78,125,0
3,75,115,128
3,80,127,116
3,78,121,4
3,75,117,128
3,80,127,120
3,78,122,112
3,75,115,28
3,61,127,16
3,66,127,0
3,58,127,0
3,80,127,12
3,78,122,8
3,73,119,120
3,80,126,128
3,78,120,0
3,73,118,128
3,80,122,120
3,78,117,100
3,73,116,124
3,80,127,120
3,78,123,120
3,73,117,4
3,63,126,48
3,66,127,0
3,59,117,0
3,80,127,12
3,78,120,0
3,75,127,28
3,80,127,128
3,78,127,4
3,75,122,4
3,80,127,4
3,78,127,0
3,75,121,120
3,80,127,128
3,78,127,116
3,75,122,4
3,61,127,24
3,66,126,0
3,58,126,0
3,80,127,12
3,78,123,0
3,73,121,132
3,80,127,124
3,78,121,4
3,73,117,132
3,80,126,120
3,78,122,76
3,73,120,8
3,66,127,124
3,73,127,128
3,68,127,0
3,70,127,8
3,68,127,4
3,66,127,8
3,59,126,0
3,75,127,8
3,63,119,128
3,66,122,128
3,75,127,124
3,71,118,128
3,66,116,104
3,59,121,44
3,63,123,76
3,66,127,128
3,71,125,64
3,75,121,124
3,71,114,44
3,58,127,8
3,73,127,0
3,70,123,124
3,61,117,128
3,78,118,8
3,66,123,0
3,70,117,0
3,73,118,128
3,70,118,12
3,58,127,52
3,61,120,12
3,66,122,20
3,73,127,8
3,68,127,0
3,70,127,12
3,68,127,4
3,61,126,64
3,66,127,4
3,71,126,4
3,75,127,4
3,59,126,4
3,66,116,128
3,63,127,268
3,66,123,40
3,71,127,68
3,59,118,128
3,63,116,124
3,66,115,92
3,71,127,116
3,66,122,0
3,63,118,44
3,58,125,92
3,70,127,0
3,66,126,0
3,73,126,0
3,61,125,120
3,66,118,20
3,70,127,128
3,66,118,88
3,61,116,44
3,58,127,128
3,61,124,60
3,68,127,116
3,73,127,8
3,70,127,12
3,68,127,12
3,66,127,0
3,61,127,96
3,75,127,8
3,59,126,8
3,66,127,128
3,63,127,128
3,71,127,128
3,66,120,112
3,63,108,104
3,59,122,120
3,63,124,120
3,66,127,92
3,75,127,128
3,71,116,124
3,66,124,104
3,58,127,44
3,61,125,44
3,66,127,116
3,73,127,128
3,70,122,132
3,66,118,0
3,61,127,100
3,68,127,124
3,70,127,56
3,78,127,56
3,66,127,68
3,70,127,100
3,61,122,96
3,66,127,16
3,59,127,36
3,63,127,68
3,66,127,128
3,75,127,128
3,66,120,104
3,63,116,44
3,59,121,128
3,63,126,124
3,66,127,112
3,71,127,128
3,66,119,8
3,63,117,0
3,58,122,8
3,61,127,116
3,66,127,128
3,73,127,132
3,70,126,96
3,66,127,116
3,58,126,0
3,61,127,84
3,68,127,128
3,73,127,0
3,70,118,24
3,68,127,8
3,66,127,4
3,61,127,12
3,58,127,76
3,61,127,112
3,65,127,128
3,70,127,132
3,73,127,0
3,65,110,4
3,59,120,60
3,63,127,124
3,66,127,132
3,75,127,0
3,71,117,124
3,66,120,12
3,58,127,112
3,61,127,112
3,66,127,124
3,73,127,120
3,70,118,128
3,66,118,100
3,58,126,96
3,61,127,20
3,68,127,84
3,73,127,0
3,70,127,12
3,68,127,4
3,66,127,4
3,61,127,96
3,59,126,4
3,63,127,124
3,66,127,124
3,71,124,128
3,75,127,4
3,66,121,104
3,63,116,80
3,59,125,132
3,63,127,108
3,66,127,12
3,75,127,116
3,71,118,136
3,66,122,112
3,59,125,48
3,63,127,140
3,66,127,124
3,75,127,120
3,71,122,136
