track,note,velocity,time
2,44,127,1218
2,44,0,478
2,53,127,2
2,51,127,120
2,53,0,3
2,48,127,77
2,51,0,1
2,51,127,39
2,48,0,1
2,51,0,69
2,51,127,10
2,51,0,40
2,53,127,0
2,53,0,70
2,46,127,10
2,49,127,480
2,46,0,2
2,49,0,476
2,44,127,2
2,44,0,500
2,53,127,20
2,51,127,120
2,53,0,3
2,48,127,77
2,51,0,1
2,51,127,39
2,48,0,1
2,51,0,69
2,51,127,10
2,51,0,40
2,53,127,0
2,53,0,70
2,46,127,10
2,49,127,480
2,46,0,2
2,49,0,476
2,44,127,2
2,44,0,500
2,53,127,20
2,51,127,120
2,53,0,3
2,48,127,77
2,51,0,1
2,51,127,39
2,48,0,1
2,51,0,69
2,51,127,10
2,51,0,40
2,53,127,0
2,53,0,70
2,46,127,10
2,49,127,480
2,46,0,2
2,49,0,476
2,44,127,2
2,44,0,500
2,53,127,20
2,51,127,120
2,53,0,3
2,48,127,77
2,51,0,1
2,51,127,39
2,48,0,1
2,51,0,69
2,51,127,10
2,51,0,40
2,53,127,0
2,53,0,70
2,46,127,10
2,49,127,480
2,46,0,2
2,49,0,476
2,44,127,42
2,44,0,430
2,48,127,10
2,48,0,480
2,49,127,0
2,49,0,480
2,53,127,0
2,53,0,475
2,48,127,5
2,53,127,480
2,48,0,7
2,53,0,455
2,46,127,18
2,46,0,453
2,46,127,27
2,46,0,467
2,44,127,13
2,44,0,460
2,48,127,20
2,48,0,476
2,49,127,4
2,49,0,467
2,52,127,13
2,52,0,470
2,51,127,10
2,51,0,475
2,41,127,5
2,41,0,468
2,46,127,12
2,46,0,455
2,46,127,25
2,46,0,207
2,46,127,33
2,46,0,97
2,46,127,23
2,46,0,98
2,44,127,62
2,44,0,478
2,44,127,2
2,44,0,120
2,44,127,0
2,44,0,75
2,44,127,5
2,44,0,38
2,44,127,2
2,44,0,75
2,44,127,5
2,44,0,40
2,44,127,0
2,44,0,75
2,46,127,5
2,49,127,480
2,46,0,2
2,49,0,476
2,44,127,2
2,44,0,500
2,44,127,20
2,44,0,120
2,44,127,0
2,44,0,75
2,44,127,5
2,44,0,38
2,44,127,2
2,44,0,75
2,44,127,5
2,44,0,40
2,44,127,0
2,44,0,75
2,46,127,5
2,49,127,480
2,46,0,2
2,49,0,476
2,44,127,2
2,44,0,500
2,44,127,20
2,44,0,120
2,44,127,0
2,44,0,75
2,44,127,5
2,44,0,38
2,44,127,2
2,44,0,75
2,44,127,5
2,44,0,40
2,44,127,0
2,44,0,75
2,46,127,5
2,49,127,480
2,46,0,2
2,49,0,476
2,44,127,42
2,44,0,78
2,44,127,2
2,44,0,38
2,44,127,2
2,44,0,78
2,44,127,2
2,44,0,38
2,44,127,2
2,44,0,78
2,44,127,2
2,44,0,38
2,44,127,2
2,44,0,78
2,44,127,2
2,44,0,38
2,46,127,2
2,46,0,78
2,46,127,2
2,46,0,38
2,46,127,2
2,46,0,78
2,46,127,2
2,46,0,38
2,46,127,2
2,46,0,78
2,46,127,2
2,46,0,38
2,46,127,2
2,46,0,78
2,46,127,2
2,46,0,38
2,48,127,2
2,48,0,78
2,48,127,2
2,48,0,38
2,48,127,2
2,48,0,78
2,48,127,2
2,48,0,38
2,48,127,2
2,48,0,78
2,48,127,2
2,48,0,38
2,48,127,2
2,48,0,78
2,48,127,2
2,48,0,38
2,51,127,2
2,51,0,78
2,51,127,2
2,51,0,38
2,51,127,2
2,51,0,78
2,51,127,2
2,51,0,38
2,51,127,2
2,51,0,78
2,51,127,2
2,51,0,38
2,51,127,2
2,51,0,78
2,51,127,2
2,51,0,38
2,44,127,2
2,44,0,78
2,44,127,2
2,44,0,38
2,44,127,2
2,44,0,78
2,44,127,2
2,44,0,38
2,44,127,2
2,44,0,78
2,44,127,2
2,44,0,38
2,44,127,2
2,44,0,78
2,44,127,2
2,44,0,38
2,46,127,2
2,46,0,78
2,46,127,2
2,46,0,38
2,46,127,2
2,46,0,78
2,46,127,2
2,46,0,38
2,46,127,2
2,46,0,78
2,46,127,2
2,46,0,38
2,46,127,2
2,46,0,78
2,46,127,2
2,46,0,38
2,48,127,2
2,48,0,78
2,48,127,2
2,48,0,38
2,48,127,2
2,48,0,78
2,48,127,2
2,48,0,38
2,48,127,2
2,48,0,78
2,48,127,2
2,48,0,38
2,48,127,2
2,48,0,78
2,48,127,2
2,48,0,38
2,51,127,2
2,51,0,78
2,51,127,2
2,51,0,78
2,51,127,2
2,51,0,78
2,51,127,2
2,51,0,78
2,48,127,2
2,48,0,78
2,46,127,2
2,46,0,80
2,44,127,0
2,44,0,430
2,48,127,10
2,48,0,480
2,49,127,0
2,49,0,480
2,53,127,0
2,53,0,475
2,48,127,5
2,53,127,480
2,48,0,7
2,53,0,455
2,46,127,18
2,46,0,453
2,46,127,27
2,46,0,467
2,44,127,13
2,44,0,460
2,48,127,20
2,48,0,476
2,49,127,4
2,49,0,467
2,52,127,13
2,52,0,470
2,51,127,10
2,51,0,475
2,41,127,5
2,41,0,468
2,46,127,12
2,46,0,455
2,46,127,25
2,46,0,207
2,46,127,33
2,46,0,97
2,46,127,23
2,46,0,98
2,44,127,62
2,44,0,478
2,44,127,2
2,44,0,120
2,44,127,0
2,44,0,75
2,44,127,5
2,44,0,38
2,44,127,2
2,44,0,75
2,44,127,5
2,44,0,40
2,44,127,0
2,44,0,75
2,46,127,5
2,49,127,480
2,46,0,2
2,49,0,476
2,44,127,2
2,44,0,500
2,44,127,20
2,44,0,120
2,44,127,0
2,44,0,75
2,44,127,5
2,44,0,38
2,44,127,2
2,44,0,75
2,44,127,5
2,44,0,40
2,44,127,0
2,44,0,75
2,46,127,5
2,49,127,480
2,46,0,2
2,49,0,476
2,44,127,2
2,44,0,500
2,44,127,20
2,44,0,120
2,44,127,0
2,44,0,75
2,44,127,5
2,44,0,38
2,44,127,2
2,44,0,75
2,44,127,5
2,44,0,40
2,44,127,0
2,44,0,75
2,46,127,5
2,49,127,480
2,46,0,2
2,49,0,476
2,44,127,42
2,44,0,78
2,44,127,2
2,44,0,38
2,44,127,2
2,44,0,78
2,44,127,2
2,44,0,38
2,44,127,2
2,44,0,78
2,44,127,2
2,44,0,38
2,44,127,2
2,44,0,78
2,44,127,2
2,44,0,38
2,46,127,2
2,46,0,78
2,46,127,2
2,46,0,38
2,46,127,2
2,46,0,78
2,46,127,2
2,46,0,38
2,46,127,2
2,46,0,78
2,46,127,2
2,46,0,38
2,46,127,2
2,46,0,78
2,46,127,2
2,46,0,38
2,48,127,2
2,48,0,78
2,48,127,2
2,48,0,38
2,48,127,2
2,48,0,78
2,48,127,2
2,48,0,38
2,48,127,2
2,48,0,78
2,48,127,2
2,48,0,38
2,48,127,2
2,48,0,78
2,48,127,2
2,48,0,38
2,51,127,2
2,51,0,78
2,51,127,2
2,51,0,38
2,51,127,2
2,51,0,78
2,51,127,2
2,51,0,38
2,51,127,2
2,51,0,78
2,51,127,2
2,51,0,38
2,51,127,2
2,51,0,78
2,51,127,2
2,51,0,38
2,44,127,2
2,44,0,78
2,44,127,2
2,44,0,38
2,44,127,2
2,44,0,78
2,44,127,2
2,44,0,38
2,44,127,2
2,44,0,78
2,44,127,2
2,44,0,38
2,44,127,2
2,44,0,78
2,44,127,2
2,44,0,38
2,46,127,2
2,46,0,78
2,46,127,2
2,46,0,38
2,46,127,2
2,46,0,78
2,46,127,2
2,46,0,38
2,46,127,2
2,46,0,78
2,46,127,2
2,46,0,38
2,46,127,2
2,46,0,78
2,46,127,2
2,46,0,38
2,48,127,2
2,48,0,78
2,48,127,2
2,48,0,38
2,48,127,2
2,48,0,78
2,48,127,2
2,48,0,38
2,48,127,2
2,48,0,78
2,48,127,2
2,48,0,38
2,48,127,2
2,48,0,78
2,48,127,2
2,48,0,38
2,51,127,2
2,51,0,78
2,51,127,2
2,51,0,78
2,51,127,2
2,51,0,78
2,51,127,2
2,51,0,78
2,48,127,2
2,48,0,78
2,46,127,2
2,46,0,80
2,54,127,0
2,54,0,38
2,54,127,2
2,54,0,38
2,54,127,2
2,54,0,38
2,54,127,2
2,54,0,38
2,54,127,2
2,54,0,38
2,54,127,2
2,54,0,38
2,54,127,2
2,54,0,38
2,54,127,2
2,54,0,38
2,54,127,2
2,54,0,38
2,54,127,2
2,54,0,38
2,54,127,2
2,54,0,38
2,54,127,2
2,54,0,38
2,49,127,2
2,49,0,38
2,49,127,2
2,49,0,38
2,49,127,2
2,49,0,38
2,49,127,2
2,49,0,38
2,49,127,2
2,49,0,38
2,49,127,2
2,49,0,38
2,49,127,2
2,49,0,78
2,49,127,2
2,49,0,78
2,49,127,2
2,49,0,80
2,48,127,0
2,48,0,416
2,41,127,24
2,46,127,480
2,41,0,3
2,46,0,474
2,51,127,3
2,51,0,455
2,41,127,65
2,41,0,78
2,41,127,2
2,41,0,38
2,41,127,2
2,41,0,78
2,41,127,2
2,41,0,38
2,41,127,2
2,41,0,78
2,41,127,2
2,41,0,38
2,41,127,2
2,41,0,78
2,41,127,2
2,41,0,38
2,41,127,2
2,41,0,78
2,41,127,2
2,41,0,38
2,41,127,2
2,41,0,78
2,41,127,2
2,41,0,38
2,41,127,2
2,41,0,78
2,41,127,2
2,41,0,38
2,41,127,2
2,41,0,60
2,54,127,60
2,54,0,38
2,54,127,2
2,54,0,38
2,54,127,2
2,54,0,38
2,54,127,2
2,54,0,38
2,54,127,2
2,54,0,38
2,54,127,2
2,54,0,38
2,54,127,2
2,54,0,38
2,54,127,2
2,54,0,38
2,54,127,2
2,54,0,38
2,54,127,2
2,54,0,38
2,54,127,2
2,54,0,38
2,54,127,2
2,54,0,38
2,49,127,2
2,49,0,38
2,49,127,2
2,49,0,38
2,49,127,2
2,49,0,38
2,49,127,2
2,49,0,38
2,49,127,2
2,49,0,38
2,49,127,2
2,49,0,38
2,49,127,2
2,49,0,78
2,49,127,2
2,49,0,78
2,49,127,2
2,49,0,80
2,48,127,0
2,48,0,416
2,41,127,24
2,46,127,480
2,41,0,3
2,46,0,474
2,51,127,3
2,51,0,455
2,41,127,65
2,41,0,78
2,41,127,2
2,41,0,38
2,41,127,2
2,41,0,78
2,41,127,2
2,41,0,38
2,41,127,2
2,41,0,78
2,41,127,2
2,41,0,38
2,41,127,2
2,41,0,78
2,41,127,2
2,41,0,38
2,41,127,2
2,41,0,78
2,41,127,2
2,41,0,38
2,41,127,2
2,41,0,78
2,41,127,2
2,41,0,38
2,41,127,2
2,41,0,78
2,41,127,2
2,41,0,38
2,41,127,2
2,41,0,60
2,44,127,60
2,44,0,430
2,48,127,10
2,48,0,480
2,49,127,0
2,49,0,480
2,53,127,0
2,53,0,475
2,48,127,5
2,53,127,480
2,48,0,7
2,53,0,455
2,46,127,18
2,46,0,453
2,46,127,27
2,46,0,467
2,44,127,13
2,44,0,460
2,48,127,20
2,48,0,476
2,49,127,4
2,49,0,467
2,52,127,13
2,52,0,470
2,51,127,10
2,51,0,475
2,41,127,5
2,41,0,468
2,46,127,12
2,46,0,455
2,46,127,25
2,46,0,207
2,46,127,33
2,46,0,97
2,46,127,23
2,46,0,98
2,44,127,62
2,44,0,478
2,44,127,2
2,44,0,120
2,44,127,0
2,44,0,75
2,44,127,5
2,44,0,38
2,44,127,2
2,44,0,75
2,44,127,5
2,44,0,40
2,44,127,0
2,44,0,75
2,46,127,5
2,49,127,480
2,46,0,2
2,49,0,476
2,44,127,2
2,44,0,500
2,44,127,20
2,44,0,120
2,44,127,0
2,44,0,75
2,44,127,5
2,44,0,38
2,44,127,2
2,44,0,75
2,44,127,5
2,44,0,40
2,44,127,0
2,44,0,75
2,46,127,5
2,49,127,480
2,46,0,2
2,49,0,476
2,44,127,2
2,44,0,500
2,44,127,20
2,44,0,120
2,44,127,0
2,44,0,75
2,44,127,5
2,44,0,38
2,44,127,2
2,44,0,75
2,44,127,5
2,44,0,40
2,44,127,0
2,44,0,75
2,46,127,5
2,49,127,480
2,46,0,2
2,49,0,476
2,44,127,2
2,44,0,500
2,44,127,20
2,44,0,120
2,44,127,0
2,44,0,75
2,44,127,5
2,44,0,38
2,44,127,2
2,44,0,75
2,44,127,5
2,44,0,40
2,44,127,0
2,44,0,75
2,46,127,5
2,49,127,480
2,46,0,2
2,49,0,476
2,44,127,42
2,44,0,45
2,44,127,35
2,48,127,40
2,44,0,6
2,48,0,41
2,48,127,33
2,48,0,40
2,49,127,0
2,49,0,42
2,49,127,38
2,49,0,40
2,51,127,0
2,51,0,43
2,51,127,37
2,44,127,40
2,51,0,6
2,44,0,41
2,44,127,33
2,48,127,40
2,44,0,6
2,48,0,45
2,48,127,29
2,48,0,40
2,49,127,0
2,49,0,52
2,49,127,28
2,49,0,40
2,51,127,0
2,51,0,31
2,51,127,49
2,42,127,40
2,51,0,6
2,42,0,45
2,46,127,29
2,46,0,40
2,46,127,0
2,46,0,1
2,46,127,79
2,46,0,26
2,46,127,14
2,46,0,45
2,46,127,35
2,46,0,40
2,46,127,0
2,46,0,47
2,46,127,33
2,46,0,40
2,41,127,0
2,41,0,52
2,41,127,28
2,41,0,40
2,48,127,0
2,48,0,57
2,48,127,23
2,48,0,40
2,46,127,0
2,46,0,58
2,46,127,22
2,46,0,40
2,44,127,0
2,44,0,41
2,44,127,39
2,44,0,40
2,42,127,0
2,42,0,56
2,46,127,24
2,46,0,30
2,46,127,10
2,46,0,56
2,46,127,24
2,46,0,15
2,46,127,25
2,46,0,51
2,46,127,29
2,46,0,26
2,46,127,14
2,46,0,46
2,46,127,34
2,46,0,40
2,41,127,0
2,41,0,46
2,41,127,34
2,41,0,40
2,48,127,0
2,48,0,48
2,48,127,32
2,48,0,40
2,46,127,0
2,46,0,47
2,46,127,33
2,44,127,40
2,46,0,12
2,44,0,34
2,44,127,34
2,44,0,30
2,37,127,10
2,37,0,40
2,37,127,40
2,37,0,21
2,37,127,19
2,37,0,40
2,37,127,40
2,37,0,26
2,37,127,14
2,37,0,40
2,37,127,40
2,37,0,31
2,37,127,9
2,37,0,40
2,37,127,40
2,37,0,40
2,39,127,0
2,39,0,40
2,39,127,40
2,39,0,25
2,39,127,15
2,39,0,40
2,39,127,40
2,39,0,26
2,39,127,14
2,39,0,40
2,39,127,40
2,39,0,31
2,39,127,9
2,39,0,40
2,39,127,40
2,39,0,36
2,44,127,4
2,44,0,45
2,44,127,35
2,48,127,40
2,44,0,6
2,48,0,41
2,48,127,33
2,48,0,40
2,49,127,0
2,49,0,42
2,49,127,38
2,49,0,40
2,51,127,0
2,51,0,43
2,51,127,37
2,44,127,40
2,51,0,6
2,44,0,41
2,44,127,33
2,48,127,40
2,44,0,6
2,48,0,45
2,48,127,29
2,48,0,40
2,49,127,0
2,49,0,52
2,49,127,28
2,49,0,40
2,51,127,0
2,51,0,31
2,51,127,49
2,42,127,40
2,51,0,6
2,42,0,45
2,46,127,29
2,46,0,40
2,46,127,0
2,46,0,1
2,46,127,79
2,46,0,26
2,46,127,14
2,46,0,45
2,46,127,35
2,46,0,40
2,46,127,0
2,46,0,47
2,46,127,33
2,46,0,40
2,41,127,0
2,41,0,52
2,41,127,28
2,41,0,40
2,48,127,0
2,48,0,57
2,48,127,23
2,48,0,40
2,46,127,0
2,46,0,58
2,46,127,22
2,46,0,40
2,44,127,0
2,44,0,41
2,44,127,39
2,44,0,40
2,42,127,0
2,42,0,56
2,46,127,24
2,46,0,30
2,46,127,10
2,46,0,56
2,46,127,24
2,46,0,15
2,46,127,25
2,46,0,51
2,46,127,29
2,46,0,26
2,46,127,14
2,46,0,46
2,46,127,34
2,46,0,40
2,41,127,0
2,41,0,46
2,41,127,34
2,41,0,40
2,48,127,0
2,48,0,48
2,48,127,32
2,48,0,40
2,46,127,0
2,46,0,47
2,46,127,33
2,44,127,40
2,46,0,12
2,44,0,34
2,44,127,34
2,44,0,30
2,37,127,10
2,37,0,40
2,37,127,40
2,37,0,21
2,37,127,19
2,37,0,40
2,37,127,40
2,37,0,26
