track,note,velocity,time
1,35,100,1536
1,35,100,322
1,35,100,307
1,35,100,311
1,35,100,311
1,35,100,314
1,35,100,320
1,35,100,321
1,35,100,311
1,35,100,318
1,35,100,308
1,35,100,292
1,35,100,316
1,35,100,310
1,35,100,308
1,35,100,324
1,35,100,326
1,35,100,322
1,35,100,307
1,35,100,311
1,35,100,311
1,35,100,314
1,35,100,320
1,35,100,321
1,35,100,311
1,35,100,318
1,35,100,308
1,35,100,292
1,35,100,316
1,35,100,310
1,35,100,308
1,35,100,324
1,35,100,326
1,35,100,322
1,35,100,307
1,35,100,311
1,35,100,311
1,35,100,314
1,35,100,320
1,35,100,321
1,35,100,311
1,35,100,318
1,35,100,308
1,35,100,292
1,35,100,316
1,35,100,310
1,35,100,308
1,35,100,324
1,35,100,326
1,35,100,322
1,35,100,307
1,35,100,311
1,35,100,311
1,35,100,314
1,35,100,320
1,35,100,321
1,35,100,311
1,35,100,318
1,35,100,308
1,35,100,292
1,35,100,316
1,35,100,310
1,35,100,308
1,35,100,324
1,35,100,326
1,35,100,322
1,35,100,307
1,35,100,311
1,35,100,311
1,35,100,314
1,35,100,320
1,35,100,321
1,35,100,311
1,35,100,318
1,35,100,308
1,35,100,292
1,35,100,316
1,35,100,310
1,35,100,308
1,35,100,324
1,35,110,326
1,35,110,678
1,35,110,691
1,35,110,688
1,35,110,689
1,35,110,689
1,35,110,689
1,35,110,677
1,35,110,705
1,35,110,678
1,35,110,691
1,35,110,688
1,35,110,689
1,35,110,689
1,35,110,689
1,35,110,677
1,35,110,705
1,35,110,678
1,35,110,691
1,35,110,688
1,35,110,689
1,35,110,689
1,35,110,689
1,35,110,677
1,35,110,705
1,35,110,678
1,35,110,691
1,35,110,688
1,35,110,689
1,35,110,689
1,35,110,689
1,35,110,677
1,35,110,705
1,35,110,678
1,35,110,691
1,35,110,688
1,35,110,689
1,35,110,689
1,35,110,689
1,35,110,677
1,35,110,705
1,35,110,678
1,35,110,691
1,35,110,688
1,35,110,689
1,35,110,689
1,35,110,689
1,35,110,485
1,35,110,897
1,35,110,678
1,35,110,691
1,35,110,688
1,35,110,689
1,35,110,689
1,35,110,689
1,35,110,677
1,35,110,705
1,35,110,678
1,35,110,691
1,35,110,688
1,35,110,689
1,35,110,689
1,35,110,689
1,35,110,485
1,35,116,897
1,35,125,2400
1,35,104,288
1,35,119,96
1,35,119,2400
1,35,110,480
1,35,110,678
1,35,110,691
1,35,110,688
1,35,110,689
1,35,110,689
1,35,110,689
1,35,110,677
1,35,110,705
1,35,110,678
1,35,110,691
1,35,110,688
1,35,110,689
1,35,110,689
1,35,110,689
1,35,110,677
1,35,110,705
1,35,110,678
1,35,110,691
1,35,110,688
1,35,110,689
1,35,110,689
1,35,110,689
1,35,110,677
1,35,110,705
1,35,110,678
1,35,110,691
1,35,110,688
1,35,110,689
1,35,110,689
1,35,110,689
1,35,110,677
1,35,110,705
1,35,110,678
1,35,110,691
1,35,110,688
1,35,110,689
1,35,110,689
1,35,110,689
1,35,110,677
1,35,110,705
1,35,110,678
1,35,110,691
1,35,110,688
1,35,110,689
1,35,110,689
1,35,110,689
1,35,110,485
1,35,110,897
1,35,110,678
1,35,110,691
1,35,110,688
1,35,110,689
1,35,110,689
1,35,110,689
1,35,110,677
1,35,110,705
1,35,110,678
1,35,110,691
1,35,110,688
1,35,110,689
1,35,110,689
1,35,110,689
1,35,110,677
1,35,122,705
1,35,126,697
1,35,126,696
1,35,127,479
1,35,110,858
1,35,110,678
1,35,110,691
1,35,110,688
1,35,110,689
1,35,110,689
1,35,110,689
1,35,110,677
1,35,110,705
1,35,110,678
1,35,110,691
1,35,110,688
1,35,110,689
1,35,110,689
1,35,110,689
1,35,110,485
1,35,110,897
1,35,110,678
1,35,110,691
1,35,110,688
1,35,110,689
1,35,110,689
1,35,110,689
1,35,110,677
1,35,110,705
1,35,110,678
1,35,110,691
1,35,110,688
1,35,110,689
1,35,110,689
1,35,110,689
1,35,110,485
1,35,110,897
1,35,110,678
1,35,110,691
1,35,110,688
1,35,110,689
1,35,110,689
1,35,110,689
1,35,110,677
1,35,110,705
1,35,110,678
1,35,110,691
1,35,110,688
1,35,110,689
1,35,110,689
1,35,110,689
1,35,110,677
1,35,110,705
1,35,110,678
1,35,110,691
1,35,110,688
1,35,110,689
1,35,110,689
1,35,110,689
1,35,110,485
1,35,110,897
1,35,110,678
1,35,110,691
1,35,110,688
1,35,110,689
1,35,110,689
1,35,110,689
1,35,110,677
1,35,110,705
1,35,110,678
1,35,110,691
1,35,110,688
1,35,110,689
1,35,110,689
1,35,110,689
1,35,110,485
1,35,110,897
1,35,110,678
1,35,110,691
1,35,110,688
1,35,110,689
1,35,110,689
1,35,110,689
1,35,110,485
1,35,110,897
1,35,110,678
1,35,110,691
1,35,110,688
1,35,110,689
1,35,110,689
1,35,110,689
1,35,110,485
1,35,110,897
1,35,110,678
1,35,110,691
1,35,110,688
1,35,110,689
1,35,110,689
1,35,110,689
1,35,110,485
2,37,60,7680
2,37,58,317
2,37,71,294
2,37,61,241
2,37,71,294
2,37,80,242
2,37,80,295
2,37,80,308
2,37,80,313
2,37,90,307
2,37,77,316
2,37,95,297
2,37,95,304
2,37,106,307
2,37,90,308
2,37,90,302
2,37,60,325
2,37,58,317
2,37,71,294
2,37,61,241
2,37,71,294
2,37,80,242
2,37,80,295
2,37,80,308
2,37,80,313
2,37,90,307
2,37,77,316
2,37,95,297
2,37,95,304
2,37,106,307
2,37,90,308
2,37,90,302
2,37,60,325
2,37,58,317
2,37,71,294
2,37,61,241
2,37,71,294
2,37,80,242
2,37,80,295
2,37,80,308
2,37,80,313
2,37,90,307
2,37,77,316
2,37,95,297
2,37,95,304
2,37,106,307
2,37,90,308
2,37,90,302
2,37,60,325
2,37,58,317
2,37,71,294
2,37,61,241
2,37,71,294
2,37,80,242
2,37,80,295
2,37,80,308
2,37,80,313
2,37,90,307
2,37,77,316
2,37,95,297
2,37,95,304
2,37,106,307
2,37,90,308
2,40,120,302
2,40,110,709
2,40,110,717
2,40,110,715
2,40,110,716
2,40,110,712
2,40,110,718
2,40,110,717
2,40,110,717
2,40,110,716
2,40,110,717
2,40,110,715
2,40,110,716
2,40,110,712
2,40,110,718
2,40,110,717
2,40,110,717
2,40,110,716
2,40,110,717
2,40,110,715
2,40,110,716
2,40,110,712
2,40,110,718
2,40,110,717
2,40,110,717
2,40,110,716
2,40,110,717
2,40,110,715
2,40,110,716
2,40,110,712
2,40,110,718
2,40,116,333
2,40,115,30
2,40,115,227
2,40,114,332
2,40,114,135
2,40,113,117
2,40,113,137
2,40,110,512
2,40,110,717
2,40,110,715
2,40,110,716
2,40,110,712
2,40,110,718
2,40,110,717
2,40,110,717
2,40,110,716
2,40,110,717
2,40,110,715
2,40,110,716
2,40,110,712
2,40,110,718
2,40,127,544
2,40,127,515
2,40,126,324
2,40,110,701
2,40,110,717
2,40,110,715
2,40,110,716
2,40,110,712
2,40,110,718
2,40,110,717
2,40,110,717
2,40,110,716
2,40,110,717
2,40,110,715
2,40,110,716
2,40,110,712
2,40,110,718
2,40,127,544
2,40,127,515
2,40,126,324
2,37,60,317
2,37,58,317
2,37,71,294
2,37,61,241
2,37,71,294
2,37,80,242
2,37,80,295
2,37,80,308
2,37,80,313
2,37,90,307
2,37,77,316
2,37,95,297
2,37,95,304
2,37,106,307
2,37,90,308
2,40,120,302
2,40,110,709
2,40,110,717
2,40,110,715
2,40,110,716
2,40,110,712
2,40,110,718
2,40,110,717
2,40,110,717
2,40,110,716
2,40,110,717
2,40,110,715
2,40,110,716
2,40,110,712
2,40,110,718
2,40,110,717
2,40,110,717
2,40,110,716
2,40,110,717
2,40,110,715
2,40,110,716
2,40,110,712
2,40,110,718
2,40,115,717
2,40,113,716
2,40,110,713
2,40,110,717
2,40,110,715
2,40,110,716
2,40,110,712
2,40,110,718
2,40,59,525
2,40,96,127
2,40,102,134
2,40,111,126
2,40,117,121
2,40,123,133
2,40,122,32
2,40,125,24
2,40,125,25
2,40,110,426
2,40,110,717
2,40,110,715
2,40,110,716
2,40,110,712
2,40,110,718
2,40,110,717
2,40,110,717
2,40,110,716
2,40,110,717
2,40,110,715
2,40,110,716
2,40,110,712
2,40,110,718
2,40,127,544
2,40,127,515
2,40,126,324
2,40,110,701
2,40,110,717
2,40,110,715
2,40,110,716
2,40,110,712
2,40,110,718
2,40,110,717
2,40,110,717
2,40,110,716
2,40,110,717
2,40,110,715
2,40,110,716
2,40,110,712
2,40,110,718
2,40,127,717
2,40,126,729
2,40,126,704
2,40,126,705
2,40,127,514
2,40,122,470
2,40,127,287
2,40,110,666
2,40,110,717
2,40,110,715
2,40,110,716
2,40,110,712
2,40,110,718
2,40,110,717
2,40,110,717
2,40,110,716
2,40,110,717
2,40,110,715
2,40,110,716
2,40,110,904
2,40,110,526
2,40,127,333
2,40,127,0
2,40,127,192
2,40,127,298
2,40,127,119
2,40,126,109
2,40,110,701
2,40,110,717
2,40,110,715
2,40,110,716
2,40,110,712
2,40,110,718
2,40,110,717
2,40,110,717
2,40,110,716
2,40,110,717
2,40,110,715
2,40,110,716
2,40,110,712
2,40,110,718
2,40,127,544
2,40,127,515
2,40,126,324
2,40,110,701
2,40,110,717
2,40,110,715
2,40,110,716
2,40,127,328
2,40,47,526
2,40,54,96
2,40,60,96
2,40,67,96
2,40,73,141
2,40,80,96
2,40,86,96
2,40,93,96
2,40,99,141
2,40,106,96
2,40,112,96
2,40,127,96
2,40,110,716
2,40,110,717
2,40,110,715
2,40,110,716
2,40,110,712
2,40,110,718
2,40,110,717
2,40,110,717
2,40,110,716
2,40,110,717
2,40,110,715
2,40,110,716
2,40,110,712
2,40,110,718
2,40,127,544
2,40,127,515
2,40,126,324
2,40,110,701
2,40,110,717
2,40,110,715
2,40,110,716
2,40,110,712
2,40,110,718
2,40,110,717
2,40,110,717
2,40,110,716
2,40,110,717
2,40,110,715
2,40,110,716
2,40,110,712
2,40,110,718
2,40,127,544
2,40,127,515
2,40,126,324
2,40,110,701
2,40,110,717
2,40,110,715
2,40,110,716
2,40,110,712
2,40,110,718
2,40,127,544
2,40,127,515
2,40,126,324
2,40,110,701
2,40,110,717
2,40,110,715
2,40,110,716
2,40,110,712
2,40,110,718
2,40,127,544
2,40,127,515
2,40,126,324
2,40,110,701
2,40,110,717
2,40,110,715
2,40,110,716
2,40,110,712
2,40,110,718
2,40,127,544
2,40,127,515
2,40,126,324
3,46,51,7476
3,42,80,132
3,42,57,122
3,42,89,148
3,42,32,129
3,42,77,148
3,42,59,125
3,42,90,133
3,42,43,134
3,42,83,109
3,42,51,131
3,42,86,131
3,42,53,124
3,42,86,129
3,42,30,118
3,42,80,150
3,42,50,124
3,42,80,141
3,42,56,118
3,42,83,136
3,42,53,108
3,42,86,139
3,42,48,123
3,42,83,146
3,42,42,115
3,42,80,123
3,42,56,118
3,42,83,136
3,42,53,108
3,42,86,139
3,42,48,123
3,42,83,146
3,42,42,115
3,42,80,121
3,42,57,122
3,42,89,148
3,42,32,129
3,42,77,148
3,42,59,125
3,42,90,133
3,42,43,134
3,42,83,109
3,42,51,131
3,42,86,131
3,42,53,124
3,42,86,129
3,42,30,118
3,42,80,150
3,42,50,124
3,42,80,141
3,42,56,118
3,42,83,136
3,42,53,108
3,42,86,139
3,42,48,123
3,42,83,146
3,42,42,115
3,42,77,119
3,42,47,115
3,42,80,128
3,42,47,108
3,42,80,114
3,42,47,115
3,42,95,111
3,42,59,119
3,42,80,137
3,42,57,122
3,42,89,148
3,42,32,129
3,42,77,148
3,42,59,125
3,42,90,133
3,42,43,134
3,42,83,109
3,42,51,131
3,42,86,131
3,42,53,124
3,42,86,129
3,42,30,118
3,42,80,150
3,42,50,124
3,42,80,141
3,42,56,118
3,42,83,136
3,42,53,108
3,42,86,139
3,42,48,123
3,42,83,146
3,42,42,115
3,42,77,119
3,42,47,115
3,42,80,128
3,42,47,108
3,42,80,114
3,42,47,115
3,42,95,111
3,42,59,119
3,42,80,137
3,42,57,122
3,42,89,148
3,42,32,129
3,42,77,148
3,42,59,125
3,42,90,133
3,42,43,134
3,42,83,109
3,42,51,131
3,42,86,131
3,42,53,124
3,42,86,129
3,42,30,118
3,42,80,150
3,42,50,124
3,42,80,141
3,42,56,118
3,42,83,136
3,42,53,108
3,42,86,139
3,42,48,123
3,42,83,146
3,42,42,115
3,42,77,119
3,42,47,115
3,42,80,128
3,42,47,108
3,42,80,114
3,42,47,115
3,42,95,111
3,42,59,119
3,42,80,137
3,42,57,122
3,42,89,148
3,42,32,129
3,42,77,148
3,42,59,125
3,42,90,133
3,42,43,134
3,42,83,109
3,42,51,131
3,42,86,131
3,42,53,124
3,42,86,129
3,42,30,118
3,42,80,150
3,42,50,124
3,42,80,141
3,42,56,118
3,42,83,136
3,42,53,108
3,42,86,139
3,42,48,123
3,42,83,146
3,42,42,115
3,42,77,119
3,42,47,115
3,42,80,128
3,42,47,108
3,42,80,114
3,42,47,115
3,42,95,111
3,42,59,119
3,42,80,137
3,42,57,122
3,42,89,148
3,42,32,129
3,42,77,148
3,42,59,125
3,42,90,133
3,42,43,134
3,42,83,109
3,42,51,131
3,42,86,131
3,42,53,124
3,42,86,129
3,42,30,118
3,42,80,150
3,42,50,124
3,42,80,141
3,42,56,118
3,42,83,136
3,42,53,108
3,42,86,139
3,42,48,123
3,42,83,146
3,42,42,115
3,42,77,119
3,42,47,115
3,42,80,128
3,42,47,108
3,42,80,114
3,42,47,115
3,42,95,111
3,42,59,119
3,42,80,137
3,42,57,122
3,42,89,148
3,42,32,129
3,42,77,148
3,42,59,125
3,42,90,133
3,42,43,134
3,42,83,109
3,42,51,131
3,42,86,131
3,42,53,124
3,42,86,129
3,42,30,118
3,42,80,150
3,42,50,124
3,42,80,141
3,42,56,118
3,42,83,136
3,42,53,108
3,42,86,139
3,42,48,123
3,42,83,146
3,42,42,115
3,42,77,119
3,42,47,115
3,42,80,128
3,42,47,108
3,42,80,114
3,42,47,115
3,42,95,111
3,42,59,119
3,42,80,137
3,42,57,122
3,42,89,148
3,42,32,129
3,42,77,148
3,42,59,125
3,42,90,133
3,42,43,134
3,42,83,109
3,42,51,131
3,42,86,131
3,42,53,124
3,42,86,129
3,42,30,118
3,42,80,150
3,42,50,124
3,42,80,141
3,42,56,118
3,42,83,136
3,42,53,108
3,42,86,139
3,42,48,123
3,42,83,146
3,42,42,115
3,42,77,119
3,42,47,115
3,42,80,128
3,42,47,108
3,42,80,114
3,42,47,115
3,42,95,111
3,42,59,119
3,42,80,24713
3,42,57,122
3,42,89,148
3,42,32,129
3,42,77,148
3,42,59,125
3,42,90,133
3,42,43,134
3,42,83,109
3,42,51,131
3,42,86,131
3,42,53,124
3,42,86,129
3,42,30,118
3,42,80,150
3,42,50,124
3,42,80,141
3,42,56,118
3,42,83,136
3,42,53,108
3,42,86,139
3,42,48,123
3,42,83,146
3,42,42,115
3,42,77,119
3,42,47,115
3,42,80,128
3,42,47,108
3,42,80,114
3,42,47,115
3,42,95,111
3,42,59,119
3,42,80,137
3,42,57,122
3,42,89,148
3,42,32,129
3,42,77,148
3,42,59,125
3,42,90,133
3,42,43,134
3,42,83,109
3,42,51,131
3,42,86,131
3,42,53,124
3,42,86,129
3,42,30,118
3,42,80,150
3,42,50,124
3,42,80,141
3,42,56,118
3,42,83,136
3,42,53,108
3,42,86,139
3,42,48,123
3,42,83,146
3,42,42,115
3,42,77,119
3,42,47,115
3,42,80,128
3,42,47,108
3,42,80,114
3,42,47,115
3,42,95,111
3,42,59,119
3,42,80,137
3,42,57,122
3,42,89,148
3,42,32,129
3,42,77,148
3,42,59,125
3,42,90,133
3,42,43,134
3,42,83,109
3,42,51,131
3,42,86,131
3,42,53,124
3,42,86,129
3,42,30,118
3,42,80,150
3,42,50,124
3,42,80,141
3,42,56,118
3,42,83,136
3,42,53,108
3,42,86,139
3,42,48,123
3,42,83,146
