track,note,velocity,time
1,52,127,0
1,43,127,32
1,42,127,32
1,40,127,32
1,52,127,576
1,43,127,32
1,42,127,32
1,40,127,32
1,40,127,32
1,40,127,32
1,40,127,32
1,40,127,32
1,40,127,32
1,45,127,32
1,43,127,32
1,42,127,32
1,40,127,32
1,40,127,32
1,45,127,32
1,45,127,32
1,45,127,32
1,45,127,32
1,47,127,32
1,43,127,32
1,42,127,32
1,40,127,32
1,40,127,32
1,42,127,32
1,44,127,32
1,40,127,32
1,42,127,32
1,44,127,32
1,40,127,32
1,40,127,32
1,40,127,32
1,40,127,32
1,45,127,32
1,43,127,32
1,42,127,32
1,40,127,32
1,40,127,32
1,45,127,32
1,45,127,32
1,45,127,32
1,45,127,32
1,47,127,32
1,43,127,32
1,42,127,32
1,40,127,32
1,40,127,32
1,40,127,32
1,40,127,32
1,40,127,32
1,40,127,224
1,40,127,32
1,40,127,32
1,40,127,32
1,45,127,32
1,43,127,32
1,40,127,32
1,40,127,32
1,40,127,32
1,40,127,32
1,40,127,32
1,40,127,1376
1,40,127,32
1,40,127,32
1,40,127,32
1,40,127,32
1,40,127,32
1,40,127,32
1,40,127,32
1,40,127,32
1,45,127,32
1,43,127,32
1,40,127,32
1,40,127,32
1,40,127,32
1,40,127,32
1,40,127,224
1,40,127,32
1,40,127,32
1,40,127,32
1,45,127,32
1,43,127,32
1,45,127,32
1,45,127,32
1,45,127,32
1,45,127,32
1,40,127,224
1,45,127,32
1,45,127,32
1,45,127,32
1,45,127,32
1,43,127,32
1,40,127,32
1,40,127,32
1,40,127,32
1,40,127,32
1,40,127,224
1,40,127,32
1,40,127,32
1,40,127,32
1,45,127,32
1,43,127,32
1,47,127,32
1,47,127,32
1,47,127,32
1,47,127,32
1,47,127,224
1,47,127,32
1,47,127,32
1,47,127,32
1,43,127,32
1,42,127,32
1,40,127,32
1,43,127,32
1,42,127,32
1,40,127,32
1,40,127,32
1,40,127,32
1,42,127,32
1,42,127,32
1,42,127,32
1,42,127,32
1,42,127,224
1,42,127,32
1,42,127,32
1,42,127,32
1,42,127,32
1,42,127,32
1,50,127,32
1,50,127,32
1,50,127,32
1,49,127,32
1,48,127,32
1,47,127,32
1,47,127,32
1,45,127,32
1,47,127,32
1,43,127,32
1,42,127,32
1,40,127,32
1,40,127,32
1,40,127,32
1,40,127,32
1,40,127,32
1,40,127,32
1,45,127,32
1,43,127,32
1,42,127,32
1,40,127,32
1,40,127,32
1,45,127,32
1,45,127,32
1,45,127,32
1,45,127,32
1,47,127,32
1,43,127,32
1,42,127,32
1,40,127,32
1,40,127,32
1,42,127,32
1,44,127,32
1,40,127,32
1,42,127,32
1,44,127,32
1,40,127,32
1,40,127,32
1,40,127,32
1,40,127,32
1,45,127,32
1,43,127,32
1,42,127,32
1,40,127,32
1,40,127,32
1,45,127,32
1,45,127,32
1,45,127,32
1,45,127,32
1,47,127,32
1,43,127,32
1,42,127,32
1,40,127,32
1,40,127,32
1,43,127,32
1,43,127,32
1,43,127,32
1,43,127,32
1,43,127,32
1,43,127,32
1,45,127,32
1,45,127,32
1,45,127,32
1,45,127,32
1,45,127,32
1,45,127,32
1,40,127,32
1,40,127,32
1,40,127,32
1,40,127,32
1,40,127,32
1,40,127,32
1,40,127,32
1,40,127,32
1,40,127,32
1,40,127,32
1,40,127,32
1,40,127,32
1,40,127,32
1,40,127,32
1,40,127,32
1,40,127,32
1,40,127,224
1,40,127,32
1,40,127,32
1,40,127,32
1,40,127,32
1,40,127,32
1,40,127,32
1,40,127,32
1,45,127,32
1,43,127,32
1,40,127,32
1,40,127,32
1,40,127,32
1,40,127,32
1,40,127,224
1,40,127,32
1,40,127,32
1,40,127,32
1,45,127,32
1,43,127,32
1,45,127,32
1,45,127,32
1,45,127,32
1,45,127,32
1,40,127,224
1,45,127,32
1,45,127,32
1,45,127,32
1,45,127,32
1,43,127,32
1,40,127,32
1,40,127,32
1,40,127,32
1,40,127,32
1,40,127,224
1,40,127,32
1,40,127,32
1,40,127,32
1,45,127,32
1,43,127,32
1,47,127,32
1,47,127,32
1,47,127,32
1,47,127,32
1,47,127,224
1,47,127,32
1,47,127,32
1,47,127,32
1,43,127,32
1,42,127,32
1,40,127,32
1,43,127,32
1,42,127,32
1,40,127,32
1,40,127,32
1,40,127,32
1,42,127,32
1,42,127,32
1,42,127,32
1,42,127,32
1,42,127,224
1,42,127,32
1,42,127,32
1,42,127,32
1,42,127,32
1,42,127,32
1,50,127,32
1,50,127,32
1,50,127,32
1,49,127,32
1,48,127,32
1,47,127,32
1,47,127,32
1,45,127,32
1,47,127,32
1,43,127,32
1,42,127,32
1,40,127,32
1,40,127,32
1,40,127,32
1,40,127,32
1,40,127,32
1,40,127,32
1,45,127,32
1,43,127,32
1,42,127,32
1,40,127,32
1,40,127,32
1,45,127,32
1,45,127,32
1,45,127,32
1,45,127,32
1,47,127,32
1,43,127,32
1,42,127,32
1,40,127,32
1,40,127,32
1,42,127,32
1,44,127,32
1,40,127,32
1,42,127,32
1,44,127,32
1,40,127,32
1,40,127,32
1,40,127,32
1,40,127,32
1,45,127,32
1,43,127,32
1,42,127,32
1,40,127,32
1,40,127,32
1,45,127,32
1,45,127,32
1,45,127,32
1,45,127,32
1,47,127,32
1,43,127,32
1,42,127,32
1,40,127,32
1,40,127,32
1,43,127,32
1,43,127,32
1,43,127,32
1,43,127,32
1,43,127,32
1,43,127,32
1,45,127,32
1,45,127,32
1,45,127,32
1,45,127,32
1,45,127,32
1,45,127,32
1,40,127,32
1,40,127,32
1,40,127,32
1,40,127,32
1,40,127,32
1,40,127,32
1,40,127,32
1,40,127,32
1,40,127,32
1,40,127,32
1,40,127,32
1,40,127,32
1,40,127,32
1,40,127,32
1,40,127,32
1,40,127,32
1,43,127,32
1,43,127,32
1,43,127,32
1,43,127,32
1,43,127,32
1,43,127,32
1,45,127,32
1,45,127,32
1,45,127,32
1,45,127,32
1,45,127,32
1,45,127,32
1,40,127,32
1,38,127,60
1,39,127,32
1,40,127,32
1,55,127,416
1,52,127,32
1,50,127,32
1,52,127,32
1,57,127,32
1,55,127,32
1,54,127,32
1,52,127,32
1,52,127,416
1,55,127,416
1,52,127,32
1,50,127,32
1,52,127,32
1,57,127,32
1,55,127,32
1,54,127,32
1,52,127,32
1,47,127,224
1,47,127,32
1,47,127,32
1,47,127,32
1,47,127,32
1,47,127,32
1,47,127,32
1,47,127,32
1,47,127,32
1,47,127,32
1,47,127,32
1,47,127,32
1,47,127,32
1,47,127,32
1,47,127,32
1,47,127,32
1,47,127,32
1,40,127,32
1,43,127,2144
1,42,127,32
1,40,127,32
1,40,127,192
1,40,127,32
1,40,127,32
1,40,127,32
1,40,127,32
1,45,127,32
1,43,127,32
1,42,127,32
1,40,127,32
1,40,127,32
1,45,127,32
1,45,127,32
1,45,127,32
1,45,127,32
1,47,127,32
1,43,127,32
1,42,127,32
1,40,127,32
1,40,127,32
1,42,127,32
1,44,127,32
1,40,127,32
1,42,127,32
1,44,127,32
1,40,127,32
1,40,127,32
1,40,127,32
1,40,127,32
1,45,127,32
1,43,127,32
1,42,127,32
1,40,127,32
1,40,127,32
1,45,127,32
1,45,127,32
1,45,127,32
1,45,127,32
1,47,127,32
1,43,127,32
1,42,127,32
1,40,127,32
1,40,127,32
1,43,127,32
1,43,127,32
1,43,127,32
1,43,127,32
1,43,127,32
1,43,127,32
1,45,127,32
1,45,127,32
1,45,127,32
1,45,127,32
1,45,127,32
1,45,127,32
1,40,127,32
1,40,127,32
1,40,127,32
1,40,127,32
1,40,127,32
1,40,127,32
1,40,127,32
1,40,127,32
1,40,127,32
1,40,127,32
1,40,127,32
1,40,127,32
1,40,127,32
1,40,127,32
1,40,127,32
1,40,127,32
1,40,127,224
1,40,127,32
1,40,127,32
1,40,127,32
1,40,127,32
1,40,127,32
1,40,127,32
1,40,127,32
1,45,127,32
1,43,127,32
1,40,127,32
1,40,127,32
1,40,127,32
1,40,127,32
1,40,127,224
1,40,127,32
1,40,127,32
1,40,127,32
1,45,127,32
1,43,127,32
1,45,127,32
1,45,127,32
1,45,127,32
1,45,127,32
1,40,127,224
1,45,127,32
1,45,127,32
1,45,127,32
1,45,127,32
1,43,127,32
2,56,127,0
2,64,127,0
2,59,127,0
2,59,127,32
2,64,127,0
2,56,127,0
2,59,127,32
2,64,127,0
2,56,127,0
2,59,127,32
2,56,127,0
2,64,127,0
2,59,127,32
2,56,127,0
2,64,127,0
2,59,127,32
2,56,127,0
2,64,127,0
2,56,127,32
2,59,127,0
2,64,127,0
2,59,127,32
2,56,127,0
2,62,127,0
2,62,127,32
2,59,127,0
2,56,127,0
2,59,127,32
2,56,127,0
2,62,127,0
2,59,127,32
2,62,127,0
2,56,127,0
2,59,127,32
2,56,127,0
2,62,127,0
2,59,127,32
2,56,127,0
2,62,127,0
2,59,127,32
2,56,127,0
2,62,127,0
2,59,127,32
2,56,127,0
2,62,127,0
2,56,127,32
2,52,127,0
2,61,127,0
2,56,127,32
2,52,127,0
2,61,127,0
2,56,127,32
2,52,127,0
2,61,127,0
2,56,127,32
2,52,127,0
2,61,127,0
2,56,127,32
2,52,127,0
2,61,127,0
2,56,127,32
2,61,127,0
2,52,127,0
2,56,127,32
2,61,127,0
2,52,127,0
2,56,127,32
2,52,127,0
2,61,127,0
2,56,127,32
2,62,127,0
2,59,127,0
2,62,127,32
2,59,127,0
2,56,127,0
2,59,127,32
2,56,127,0
2,62,127,0
2,62,127,32
2,56,127,0
2,59,127,0
2,59,127,32
2,56,127,0
2,62,127,0
2,62,127,32
2,56,127,0
2,59,127,0
2,56,127,32
2,62,127,0
2,59,127,0
2,56,127,32
2,62,127,0
2,59,127,0
2,56,127,32
2,62,127,0
2,59,127,0
2,56,127,32
2,64,127,0
2,59,127,0
2,59,127,32
2,56,127,0
2,64,127,0
2,64,127,32
2,56,127,0
2,59,127,0
2,56,127,32
2,59,127,0
2,64,127,0
2,59,127,32
2,64,127,0
2,56,127,0
2,64,127,32
2,56,127,0
2,59,127,0
2,56,127,32
2,59,127,0
2,64,127,0
2,59,127,32
2,56,127,0
2,62,127,0
2,59,127,32
2,56,127,0
2,62,127,0
2,59,127,32
2,56,127,0
2,62,127,0
2,56,127,32
2,59,127,0
2,62,127,0
2,59,127,32
2,62,127,0
2,59,127,32
2,56,127,0
2,62,127,0
2,59,127,32
2,56,127,0
2,62,127,0
2,56,127,32
2,59,127,0
2,62,127,0
2,52,127,32
2,56,127,0
2,61,127,0
2,56,127,32
2,61,127,0
2,52,127,0
2,56,127,32
2,61,127,0
2,52,127,0
2,56,127,32
2,61,127,0
2,52,127,0
2,56,127,32
2,61,127,0
2,52,127,0
2,61,127,32
2,56,127,0
2,52,127,0
2,56,127,32
2,61,127,0
2,52,127,0
2,52,127,32
2,61,127,0
2,56,127,0
2,56,127,32
2,62,127,0
2,59,127,0
2,62,127,32
2,59,127,0
2,56,127,0
2,62,127,32
2,56,127,0
2,59,127,0
2,62,127,32
2,56,127,0
2,59,127,0
2,62,127,32
2,59,127,0
2,56,127,0
2,56,127,32
2,62,127,0
2,59,127,0
2,56,127,32
2,59,127,0
2,62,127,0
2,56,127,32
2,59,127,0
2,62,127,0
2,64,127,0
2,56,127,0
2,59,127,0
2,69,127,32
2,61,127,0
2,64,127,0
2,56,127,32
2,59,127,0
2,64,127,0
2,61,127,224
2,69,127,0
2,64,127,0
2,61,127,32
2,69,127,0
2,64,127,0
2,56,127,32
2,64,127,0
2,59,127,0
2,56,127,32
2,59,127,0
2,64,127,0
2,66,127,32
2,68,127,32
2,64,127,32
2,66,127,32
2,68,127,32
2,64,127,32
2,61,127,32
2,69,127,0
2,64,127,0
2,56,127,32
2,59,127,0
2,64,127,0
2,61,127,224
2,64,127,0
2,69,127,0
2,61,127,32
2,64,127,0
2,69,127,0
2,59,127,32
2,56,127,0
2,64,127,0
2,56,127,32
2,59,127,0
2,64,127,0
2,59,127,224
2,56,127,0
2,56,127,120
2,59,127,0
2,56,127,104
2,59,127,0
2,56,127,124
2,59,127,0
2,56,127,112
2,59,127,0
2,56,127,120
2,59,127,0
2,56,127,92
2,59,127,0
2,56,127,128
2,59,127,0
2,56,127,128
2,59,127,0
2,59,127,116
2,56,127,0
2,61,127,104
2,64,127,0
2,59,127,8
2,62,127,0
2,59,127,316
2,56,127,0
2,56,127,124
2,59,127,0
2,56,127,96
2,59,127,0
2,56,127,124
2,59,127,0
2,56,127,116
2,59,127,0
2,59,127,128
2,56,127,0
2,56,127,116
2,59,127,0
2,59,127,1840
2,56,127,0
2,56,127,116
2,59,127,0
2,56,127,108
2,59,127,0
2,56,127,116
2,59,127,0
2,56,127,96
2,59,127,0
2,59,127,124
2,56,127,0
2,59,127,100
2,56,127,0
2,56,127,136
2,59,127,0
2,59,127,116
2,56,127,0
2,56,127,124
2,59,127,0
2,64,127,116
2,61,127,0
2,59,127,32
2,62,127,0
2,59,127,316
2,56,127,0
2,56,127,108
2,59,127,0
2,56,127,96
2,59,127,0
2,56,127,116
2,59,127,0
2,59,127,112
2,56,127,0
2,56,127,132
2,59,127,0
2,56,127,80
2,59,127,0
2,56,127,124
2,59,127,0
2,59,127,120
2,56,127,0
2,56,127,120
2,59,127,0
2,61,127,120
2,64,127,0
2,59,127,24
2,62,127,0
2,64,127,364
2,57,127,0
2,61,127,0
2,64,127,32
2,57,127,0
2,61,127,0
2,64,127,56
2,57,127,0
2,61,127,0
2,64,127,32
2,61,127,0
2,57,127,0
2,61,127,224
2,64,127,0
2,57,127,0
2,57,127,32
2,61,127,0
2,64,127,0
2,57,127,32
2,61,127,0
2,64,127,0
2,61,127,56
2,57,127,0
2,64,127,0
2,62,127,56
2,59,127,0
2,67,127,0
2,63,127,3320
2,66,127,0
2,59,127,0
2,66,127,32
2,59,127,0
2,63,127,0
2,63,127,32
2,66,127,0
2,59,127,0
2,63,127,32
2,66,127,0
2,59,127,0
2,59,127,32
2,63,127,0
2,66,127,0
2,63,127,608
2,59,127,0
2,66,127,0
2,63,127,32
2,66,127,0
2,59,127,0
2,63,127,32
2,59,127,0
2,66,127,0
2,66,127,32
2,63,127,0
2,59,127,0
2,64,127,224
2,59,127,0
2,68,127,0
2,64,127,32
2,59,127,0
2,68,127,0
2,64,127,32
2,59,127,0
2,68,127,0
2,64,127,32
2,59,127,0
2,68,127,0
2,61,127,32
2,69,127,0
2,64,127,0
2,69,127,32
2,61,127,0
2,64,127,0
2,61,127,32
2,69,127,0
2,64,127,0
2,61,127,32
2,69,127,0
2,64,127,0
2,63,127,32
2,66,127,0
2,59,127,0
2,59,127,32
2,63,127,0
2,66,127,0
2,63,127,32
2,59,127,0
2,66,127,0
2,59,127,32
2,64,127,0
2,68,127,0
2,64,127,32
2,59,127,0
2,68,127,0
2,64,127,32
2,59,127,0
2,68,127,0
2,64,127,32
2,59,127,0
2,68,127,0
2,68,127,32
2,59,127,0
2,64,127,0
2,68,127,32
2,59,127,0
2,64,127,0
2,64,127,32
2,59,127,0
2,68,127,0
2,64,127,32
2,68,127,0
2,59,127,0
2,69,127,32
2,61,127,0
2,64,127,0
2,61,127,32
2,69,127,0
2,64,127,0
2,69,127,32
2,64,127,0
2,61,127,0
2,69,127,32
2,64,127,0
2,61,127,0
2,63,127,32
2,66,127,0
2,71,127,0
2,71,127,32
2,66,127,0
2,63,127,0
2,66,127,32
2,71,127,0
2,63,127,0
2,59,127,32
2,68,127,0
2,64,127,0
2,64,127,32
2,59,127,0
2,68,127,0
2,64,127,32
2,59,127,0
2,68,127,0
2,59,127,32
2,68,127,0
2,64,127,0
2,70,127,32
2,61,127,0
2,66,127,0
2,66,127,32
2,61,127,0
2,70,127,0
2,61,127,32
2,70,127,0
2,66,127,0
2,61,127,32
2,70,127,0
2,66,127,0
2,71,127,32
2,66,127,0
2,63,127,0
2,66,127,32
2,71,127,0
2,63,127,0
2,63,127,32
2,71,127,0
2,66,127,0
2,63,127,32
