track,note,velocity,time
1,38,100,1320
1,38,100,64
1,43,100,184
1,43,103,64
1,49,122,64
1,35,122,0
1,42,100,184
1,38,100,184
1,42,100,0
1,42,100,184
1,35,100,184
1,42,100,0
1,42,100,184
1,38,100,184
1,42,100,0
1,42,100,184
1,49,122,184
1,49,122,0
1,35,122,0
1,42,100,184
1,38,100,184
1,42,100,0
1,35,122,184
1,42,100,0
1,35,100,184
1,42,100,0
1,42,100,184
1,38,100,184
1,42,100,0
1,42,100,184
1,49,122,184
1,35,122,0
1,42,100,184
1,38,100,184
1,42,100,0
1,42,100,184
1,35,122,64
1,35,100,64
1,42,100,0
1,42,100,184
1,38,100,184
1,42,100,0
1,42,100,184
1,49,122,184
1,35,122,0
1,42,122,424
1,59,52,424
1,59,53,40
1,59,54,24
1,59,55,24
1,59,56,24
1,59,57,24
1,59,58,24
1,59,59,24
1,59,60,24
1,59,61,24
1,59,62,24
1,59,63,24
1,59,64,24
1,59,66,24
1,59,67,24
1,59,68,24
1,59,69,24
1,59,70,24
1,59,71,24
1,59,72,24
1,59,73,24
1,59,74,24
1,59,75,24
1,59,76,24
1,57,100,24
1,35,100,0
1,42,100,424
1,38,100,0
1,42,100,184
1,42,100,184
1,35,100,0
1,42,100,184
1,42,100,184
1,38,100,0
1,42,100,184
1,35,100,184
1,42,100,0
1,42,100,184
1,38,100,184
1,42,100,0
1,35,100,184
1,42,100,0
1,35,100,184
1,42,100,0
1,42,100,184
1,38,100,184
1,42,100,0
1,42,100,184
1,35,100,184
1,42,100,0
1,42,100,184
1,38,100,184
1,42,100,0
1,42,100,184
1,35,100,184
1,42,100,0
1,42,100,184
1,38,100,184
1,42,100,0
1,35,100,184
1,42,100,0
1,35,100,184
1,42,100,0
1,42,100,184
1,38,100,184
1,42,100,0
1,42,100,184
1,35,100,64
1,35,100,64
1,42,100,0
1,46,100,184
1,38,100,184
1,42,100,0
1,46,100,184
1,35,100,184
1,42,125,0
1,42,100,184
1,38,100,184
1,42,100,0
1,42,100,184
1,35,100,184
1,42,100,0
1,42,100,184
1,38,100,184
1,42,100,0
1,42,100,184
1,35,100,64
1,35,100,64
1,42,100,0
1,42,100,184
1,38,100,184
1,42,100,0
1,42,100,184
1,35,100,184
1,42,100,0
1,42,100,184
1,38,100,184
1,42,100,0
1,46,100,184
1,35,100,184
1,42,100,0
1,42,100,184
1,38,100,184
1,42,100,0
1,35,100,184
1,42,100,0
1,35,100,184
1,42,100,0
1,42,100,184
1,38,100,184
1,42,100,0
1,42,100,184
1,35,100,184
1,42,100,0
1,42,100,184
1,38,100,184
1,42,100,0
1,42,100,184
1,35,100,184
1,42,100,0
1,35,100,64
1,42,100,64
1,46,100,184
1,38,100,0
1,45,100,184
1,42,100,0
1,45,100,64
1,35,120,64
1,49,120,0
1,42,100,184
1,38,100,184
1,42,100,0
1,42,100,184
1,35,100,184
1,42,100,0
1,35,100,184
1,42,100,0
1,38,100,184
1,42,100,0
1,42,100,184
1,35,100,184
1,42,100,0
1,42,100,184
1,38,100,184
1,42,100,0
1,42,100,184
1,35,100,184
1,42,100,0
1,35,100,184
1,42,100,0
1,46,100,184
1,38,100,0
1,46,100,184
1,35,123,184
1,57,123,0
1,42,100,424
1,38,100,0
1,35,100,184
1,49,118,184
1,42,118,0
1,42,100,184
1,35,100,0
1,46,100,184
1,38,100,0
1,45,100,184
1,45,100,64
1,49,122,64
1,35,122,0
1,42,100,184
1,35,100,0
1,42,100,184
1,35,100,0
1,42,100,184
1,35,100,0
1,42,100,184
1,35,100,0
1,42,100,184
1,35,100,0
1,45,100,184
1,35,100,0
1,45,100,64
1,35,100,64
1,43,100,64
1,35,117,64
1,57,117,0
1,51,100,184
1,51,100,184
1,38,100,0
1,51,100,184
1,35,100,0
1,51,100,184
1,35,100,0
1,51,100,184
1,51,100,184
1,38,100,0
1,51,100,184
1,51,100,184
1,35,100,0
1,51,100,184
1,51,100,184
1,38,100,0
1,51,100,184
1,35,100,0
1,51,100,184
1,35,100,0
1,51,100,184
1,49,125,184
1,38,125,0
1,51,100,184
1,35,100,64
1,51,100,64
1,35,100,0
1,51,100,184
1,51,100,184
1,38,100,0
1,51,100,184
1,35,100,0
1,51,100,184
1,35,100,0
1,51,100,184
1,51,100,184
1,38,100,0
1,51,100,184
1,38,100,64
1,51,100,64
1,35,100,0
1,51,100,184
1,51,100,184
1,38,100,0
1,51,100,184
1,51,100,184
1,35,100,0
1,51,100,184
1,35,100,0
1,35,100,64
1,38,123,64
1,49,123,0
1,43,100,184
1,43,100,64
1,35,120,64
1,57,120,0
1,51,100,184
1,51,100,184
1,38,100,0
1,51,100,184
1,35,100,0
1,51,100,184
1,35,100,0
1,51,100,184
1,51,100,184
1,38,100,0
1,51,100,184
1,35,120,184
1,57,120,0
1,51,100,184
1,51,100,184
1,38,100,0
1,51,100,184
1,35,100,0
1,51,100,184
1,35,100,0
1,51,100,184
1,51,100,184
1,38,100,0
1,51,100,184
1,35,120,184
1,57,120,0
1,51,100,184
1,51,100,184
1,38,100,0
1,51,100,184
1,35,100,0
1,51,100,184
1,35,100,0
1,51,100,184
1,51,100,184
1,38,100,0
1,51,100,184
1,35,122,184
1,59,52,0
1,59,47,40
1,59,47,24
1,59,48,24
1,59,49,24
1,59,49,24
1,59,50,24
1,59,50,24
1,59,51,24
1,59,52,24
1,59,52,24
1,59,53,24
1,59,53,24
1,59,54,24
1,59,55,24
1,59,55,24
1,59,56,24
1,59,56,24
1,59,57,24
1,59,58,24
1,59,58,24
1,59,59,24
1,59,59,24
1,59,60,24
1,59,61,24
1,59,61,24
1,59,62,24
1,59,62,24
1,59,63,24
1,59,64,24
1,59,64,24
1,59,65,24
1,59,65,24
1,59,66,24
1,59,67,24
1,59,67,24
1,59,68,24
1,59,68,24
1,59,69,24
1,59,70,24
1,59,70,24
1,59,71,24
1,59,71,24
1,59,72,24
1,59,73,24
1,59,73,24
1,59,74,24
1,59,74,24
1,35,100,24
1,49,100,0
1,42,100,184
1,42,100,184
1,38,100,0
1,42,100,184
1,35,100,0
1,42,100,184
1,35,100,0
1,42,100,184
1,42,100,184
1,38,100,0
1,42,100,184
1,35,100,184
1,49,100,0
1,42,100,184
1,42,100,184
1,38,100,0
1,42,100,184
1,35,100,0
1,42,100,184
1,35,100,0
1,42,100,184
1,42,100,184
1,38,100,0
1,42,100,184
1,35,100,184
1,49,100,0
1,42,100,184
1,42,100,184
1,38,100,0
1,42,100,184
1,35,100,64
1,42,100,64
1,35,100,0
1,42,100,184
1,42,100,184
1,38,100,0
1,42,100,184
1,35,100,0
1,35,119,184
1,49,119,0
1,42,100,184
1,42,100,184
1,38,100,0
1,42,100,184
1,49,100,184
1,35,100,0
1,42,100,184
1,45,100,0
1,42,100,184
1,43,100,64
1,42,100,64
1,43,100,0
1,57,100,184
1,35,100,0
1,42,100,424
1,38,100,0
1,42,100,184
1,42,100,184
1,35,100,0
1,42,100,184
1,42,100,184
1,38,100,0
1,42,100,184
1,35,100,184
1,42,100,0
1,42,100,184
1,38,100,184
1,42,100,0
1,35,100,184
1,42,100,0
1,35,100,184
1,42,100,0
1,42,100,184
1,38,100,184
1,42,100,0
1,42,100,184
1,35,100,184
1,42,100,0
1,42,100,184
1,38,100,184
1,42,100,0
1,42,100,184
1,35,100,184
1,42,100,0
1,42,100,184
1,38,100,184
1,42,100,0
1,35,100,184
1,42,100,0
1,35,100,184
1,42,100,0
1,42,100,184
1,38,100,184
1,42,100,0
1,42,100,184
1,35,100,64
1,35,100,64
1,42,100,0
1,46,100,184
1,38,100,184
1,42,100,0
1,46,100,184
1,35,100,184
1,42,125,0
1,42,100,184
1,38,100,184
1,42,100,0
1,42,100,184
1,35,100,184
1,42,100,0
1,42,100,184
1,38,100,184
1,42,100,0
1,42,100,184
1,35,100,64
1,35,100,64
1,42,100,0
1,42,100,184
1,38,100,184
1,42,100,0
1,42,100,184
1,35,100,184
1,42,100,0
1,42,100,184
1,38,100,184
1,42,100,0
1,46,100,184
1,35,100,184
1,42,100,0
1,42,100,184
1,38,100,184
1,42,100,0
1,35,100,184
1,42,100,0
1,35,100,184
1,42,100,0
1,42,100,184
1,38,100,184
1,42,100,0
1,42,100,184
1,35,100,184
1,42,100,0
1,42,100,184
1,38,100,184
1,42,100,0
1,42,100,184
1,35,100,184
1,42,100,0
1,35,100,64
1,42,100,64
1,46,100,184
1,38,100,0
1,45,100,184
1,42,100,0
1,45,100,64
1,35,120,64
1,49,120,0
1,42,100,184
1,38,100,184
1,42,100,0
1,42,100,184
1,35,100,184
1,42,100,0
1,35,100,184
1,42,100,0
1,38,100,184
1,42,100,0
1,42,100,184
1,35,100,184
1,42,100,0
1,42,100,184
1,38,100,184
1,42,100,0
1,42,100,184
1,35,100,184
1,42,100,0
1,35,100,184
1,42,100,0
1,46,100,184
1,38,100,0
1,46,100,184
1,35,123,184
1,57,123,0
1,42,100,424
1,38,100,0
1,35,100,184
1,49,118,184
1,42,118,0
1,42,100,184
1,35,100,0
1,46,100,184
1,38,100,0
1,45,100,184
1,45,100,64
1,49,122,64
1,35,122,0
1,42,100,184
1,35,100,0
1,42,100,184
1,35,100,0
1,42,100,184
1,35,100,0
1,42,100,184
1,35,100,0
1,42,100,184
1,35,100,0
1,45,100,184
1,35,100,0
1,45,100,64
1,35,100,64
1,43,100,64
1,35,117,64
1,57,117,0
1,51,100,184
1,51,100,184
1,38,100,0
1,51,100,184
1,35,100,0
1,51,100,184
1,35,100,0
1,51,100,184
1,51,100,184
1,38,100,0
1,51,100,184
1,51,100,184
1,35,100,0
1,51,100,184
1,51,100,184
1,38,100,0
1,51,100,184
1,35,100,0
1,51,100,184
1,35,100,0
1,51,100,184
1,49,125,184
1,38,125,0
1,51,100,184
1,35,100,64
1,51,100,64
1,35,100,0
1,51,100,184
1,51,100,184
1,38,100,0
1,51,100,184
1,35,100,0
1,51,100,184
1,35,100,0
1,51,100,184
1,51,100,184
1,38,100,0
1,51,100,184
1,38,100,64
1,51,100,64
1,35,100,0
1,51,100,184
1,51,100,184
1,38,100,0
1,51,100,184
1,51,100,184
1,35,100,0
1,51,100,184
1,35,100,0
1,35,100,64
1,38,123,64
1,49,123,0
1,43,100,184
1,43,100,64
1,35,120,64
1,57,120,0
1,51,100,184
1,51,100,184
1,38,100,0
1,51,100,184
1,35,100,0
1,51,100,184
1,35,100,0
1,51,100,184
1,51,100,184
1,38,100,0
1,51,100,184
1,35,120,184
1,57,120,0
1,51,100,184
1,51,100,184
1,38,100,0
1,51,100,184
1,35,100,0
1,51,100,184
1,35,100,0
1,51,100,184
1,51,100,184
1,38,100,0
1,51,100,184
1,35,120,184
1,57,120,0
1,51,100,184
1,51,100,184
1,38,100,0
1,51,100,184
1,35,100,0
1,51,100,184
1,35,100,0
1,51,100,184
1,51,100,184
1,38,100,0
1,51,100,184
1,38,123,184
1,57,123,0
1,42,100,184
1,35,100,64
1,49,120,64
1,38,120,0
1,49,119,184
1,38,119,0
1,42,100,184
1,38,100,64
1,51,100,0
1,38,100,64
1,49,100,0
1,42,100,184
1,45,100,0
1,45,100,64
1,42,100,64
1,43,100,0
1,43,100,64
1,49,125,64
1,35,125,0
1,51,100,184
1,51,100,184
1,38,100,0
1,51,100,184
1,35,100,0
1,51,100,184
1,35,100,0
1,51,100,184
1,51,100,184
1,38,100,0
1,51,100,184
1,51,100,184
1,35,100,0
1,51,100,184
1,51,100,184
1,38,100,0
1,51,100,184
1,35,100,0
1,51,100,184
1,35,100,0
1,51,100,184
1,51,100,184
1,38,100,0
1,51,100,184
1,38,100,64
1,35,125,64
1,49,125,0
1,51,100,184
1,51,100,184
1,38,100,0
1,51,100,184
1,35,100,0
1,51,100,184
1,35,100,0
1,51,100,184
1,51,100,184
1,38,100,0
1,51,100,184
1,51,100,184
1,35,100,0
1,51,100,184
1,51,100,184
1,38,100,0
1,51,100,184
1,35,100,64
1,49,120,64
1,38,120,0
1,49,120,184
1,38,120,0
1,42,100,184
1,45,100,0
1,45,100,64
1,42,100,64
1,43,100,0
1,43,100,64
1,49,125,64
1,35,125,0
1,51,100,184
1,51,100,184
1,38,100,0
1,51,100,184
1,35,100,0
1,51,100,184
1,35,100,0
1,51,100,184
1,51,100,184
1,38,100,0
1,51,100,184
1,35,122,184
1,57,122,0
1,51,100,184
1,51,100,184
1,38,100,0
1,51,100,184
1,35,100,0
1,51,100,184
1,35,100,0
1,51,100,184
1,51,100,184
1,38,100,0
1,51,100,184
1,35,100,0
1,35,100,64
1,35,127,64
1,49,127,0
1,51,100,184
1,51,100,184
1,38,100,0
1,51,100,184
1,35,100,0
1,51,100,184
1,35,100,0
1,51,100,184
1,35,100,64
1,51,100,64
1,38,100,0
1,51,100,184
1,57,100,184
1,38,100,0
1,35,100,304
1,57,125,64
1,38,125,0
1,35,100,304
1,57,126,64
1,38,126,0
1,35,100,64
1,35,100,64
1,35,100,64
1,57,127,64
1,38,127,0
1,35,100,64
1,35,100,64
1,35,100,64
1,35,127,64
1,49,127,0
1,57,127,0
1,51,100,184
1,51,100,184
1,38,100,0
1,35,100,184
1,51,100,0
1,35,100,184
1,51,100,0
1,51,100,184
1,38,100,184
1,51,100,0
1,51,100,184
1,35,100,64
1,35,100,64
1,51,100,0
1,51,100,184
1,38,100,184
1,51,100,0
1,51,100,184
1,35,100,64
1,35,100,64
1,51,100,0
1,51,100,184
1,35,100,64
1,38,100,64
1,51,100,0
1,51,100,184
1,35,100,64
1,35,123,64
1,49,123,0
1,38,100,424
1,49,123,184
1,35,123,0
1,42,100,424
1,35,100,64
1,38,100,64
1,42,100,0
1,46,100,184
1,49,127,184
1,41,100,184
1,41,104,184
1,41,109,184
1,41,113,184
1,41,117,184
1,41,121,184
1,41,123,64
1,41,118,64
1,35,123,184
1,57,123,0
1,51,100,184
1,51,100,184
1,38,100,0
1,51,100,184
1,35,100,0
1,51,100,184
1,35,100,0
1,51,100,184
1,51,100,184
1,38,100,0
1,51,100,184
1,35,127,184
1,49,127,0
1,51,100,184
1,51,100,184
1,38,100,0
1,51,100,184
1,35,100,0
1,51,100,184
1,35,100,0
1,51,100,184
1,51,100,184
1,38,100,0
1,51,100,184
1,38,100,64
1,35,120,64
1,49,120,0
1,51,100,184
1,38,100,184
1,51,100,0
1,35,100,184
1,51,100,0
1,35,100,184
1,51,100,0
1,51,100,184
1,38,100,184
1,51,100,0
1,51,100,184
1,35,126,184
1,49,126,0
1,51,100,184
1,51,100,184
1,38,100,0
1,51,100,184
1,51,100,184
1,35,100,0
1,51,100,184
1,35,100,0
1,51,100,184
1,38,100,0
1,51,100,184
1,35,120,184
1,49,120,0
1,51,100,184
1,38,100,184
1,51,100,0
1,35,100,184
1,51,100,0
1,35,100,184
1,51,100,0
1,51,100,184
1,38,100,184
1,51,100,0
1,51,100,184
1,49,125,184
1,35,125,0
1,51,100,184
1,51,100,184
1,38,100,0
1,51,100,184
1,35,100,0
1,51,100,184
1,35,100,0
1,51,100,184
1,35,100,64
1,49,125,64
1,38,125,0
1,51,100,184
1,35,125,184
1,49,125,0
1,51,100,184
1,51,100,184
1,38,100,0
1,51,100,184
1,35,100,0
1,51,100,184
1,35,100,0
1,51,100,184
1,51,100,184
1,38,100,0
1,51,100,184
1,57,125,184
1,38,125,0
1,35,100,64
1,35,100,64
1,35,100,64
1,57,124,64
1,38,124,0
1,35,100,64
1,35,100,64
1,35,100,64
1,57,125,64
1,38,125,0
1,35,100,64
1,35,100,64
1,35,100,64
1,57,125,64
1,38,125,0
1,35,100,64
1,35,100,64
1,35,100,64
1,35,122,64
1,49,122,0
1,57,122,0
1,51,100,184
1,51,100,184
1,38,100,0
1,51,100,184
1,35,100,0
1,51,100,184
1,35,100,0
1,35,100,184
1,51,100,0
1,51,100,184
1,38,100,0
1,51,100,184
1,35,100,64
1,51,100,64
1,35,100,0
1,51,100,184
1,38,100,184
1,51,100,0
1,35,100,184
1,51,100,0
