track,note,velocity,time
1,48,78,1530
1,46,46,33
1,43,40,8
1,46,52,7
1,48,62,21
1,46,54,6
1,43,54,9
1,48,66,11
1,43,46,42
1,46,56,10
1,48,60,18
1,46,50,6
1,43,50,3
1,46,58,7
1,48,58,28
1,46,62,14
1,43,50,6
1,43,66,58
1,43,48,43
1,46,62,20
1,48,74,23
1,46,54,31
1,43,48,31
1,46,58,19
1,48,60,28
1,46,60,13
1,43,58,13
1,48,74,51
1,43,58,43
1,46,58,21
1,48,66,25
1,46,58,33
1,43,60,6
1,46,62,8
1,48,74,57
1,46,62,15
1,43,62,5
1,43,66,60
1,48,64,171
1,43,64,8
1,46,64,8
1,48,64,8
1,51,64,8
1,51,64,8
1,48,64,8
1,46,64,8
1,48,64,8
1,43,64,8
1,46,64,8
1,48,64,8
1,51,64,8
1,51,64,8
1,48,64,8
1,48,64,8
1,43,64,8
1,46,64,8
1,48,64,8
1,51,64,8
1,51,64,8
1,48,64,8
1,46,64,8
1,48,64,8
1,43,64,8
1,46,64,8
1,48,64,8
1,51,64,8
1,51,64,8
1,48,64,8
1,48,64,8
1,43,64,8
1,46,64,8
1,48,64,8
1,51,64,8
1,51,64,8
1,48,64,8
1,46,64,8
1,48,64,8
1,43,64,8
1,46,64,8
1,48,64,8
1,51,64,8
1,51,64,8
1,48,64,8
1,48,64,8
1,43,64,8
1,46,64,8
1,48,64,8
1,51,64,8
1,51,64,8
1,48,64,8
1,46,64,8
1,48,64,8
1,43,64,8
1,46,64,8
1,48,64,8
1,51,64,8
1,51,64,8
1,48,64,8
1,48,64,8
1,43,64,8
1,46,64,8
1,48,64,8
1,51,64,8
1,51,64,8
1,48,64,8
1,46,64,8
1,48,64,8
1,43,64,8
1,46,64,8
1,48,64,8
1,51,64,8
1,51,64,8
1,48,64,8
1,48,64,8
1,43,64,8
1,46,64,8
1,48,64,8
1,51,64,8
1,51,64,8
1,48,64,8
1,46,64,8
1,48,64,8
1,43,64,8
1,46,64,8
1,48,64,8
1,51,64,8
1,51,64,8
1,48,64,8
1,41,64,8
1,41,64,8
1,41,64,8
1,41,64,8
1,41,64,8
1,41,64,8
1,41,64,8
1,41,64,8
1,41,64,8
1,41,64,8
1,41,64,8
1,41,64,8
1,46,64,8
1,46,64,8
1,47,64,8
1,47,64,8
1,48,64,8
1,43,64,8
1,46,64,8
1,48,64,8
1,51,64,8
1,51,64,8
1,48,64,8
1,46,64,8
1,48,64,8
1,43,64,8
1,46,64,8
1,48,64,8
1,51,64,8
1,51,64,8
1,48,64,8
1,46,64,8
1,46,64,8
1,46,64,8
1,46,64,8
1,46,64,8
1,46,64,8
1,46,64,8
1,46,64,8
1,46,64,8
1,46,64,8
1,46,64,8
1,46,64,8
1,46,64,8
1,46,64,8
1,46,64,8
1,46,64,8
1,41,64,8
1,41,64,8
1,41,64,8
1,41,64,8
1,41,64,8
1,41,64,8
1,41,64,8
1,41,64,8
1,43,64,8
1,43,64,8
1,43,64,8
1,43,64,8
1,43,64,8
1,43,64,8
1,43,64,8
1,43,64,8
1,48,64,8
1,44,64,8
1,46,64,8
1,48,64,8
1,46,64,8
1,46,64,8
1,48,64,8
1,48,64,8
1,46,64,8
1,44,64,8
1,46,64,8
1,51,64,8
1,48,64,8
1,48,64,8
1,48,64,8
1,48,64,8
1,48,64,8
1,48,64,8
1,44,64,8
1,46,64,8
1,48,64,8
1,46,64,8
1,46,64,8
1,48,64,8
1,48,64,8
1,46,64,8
1,44,64,8
1,46,64,8
1,51,64,8
1,48,64,8
1,48,64,8
1,48,64,8
1,48,64,8
1,48,64,8
1,44,64,8
1,46,64,8
1,48,64,8
1,43,64,8
1,46,64,8
1,48,64,8
1,51,64,8
1,51,64,8
1,48,64,8
1,46,64,8
1,48,64,8
1,43,64,8
1,46,64,8
1,48,64,8
1,51,64,8
1,51,64,8
1,48,64,8
1,48,64,8
1,43,64,8
1,46,64,8
1,48,64,8
1,51,64,8
1,51,64,8
1,48,64,8
1,46,64,8
1,48,64,8
1,43,64,8
1,46,64,8
1,48,64,8
1,51,64,8
1,51,64,8
1,48,64,8
1,48,64,8
1,43,64,8
1,46,64,8
1,48,64,8
1,51,64,8
1,51,64,8
1,48,64,8
1,46,64,8
1,48,64,8
1,43,64,8
1,46,64,8
1,48,64,8
1,51,64,8
1,51,64,8
1,48,64,8
1,48,64,8
1,43,64,8
1,46,64,8
1,48,64,8
1,51,64,8
1,51,64,8
1,48,64,8
1,46,64,8
1,48,64,8
1,43,64,8
1,46,64,8
1,48,64,8
1,51,64,8
1,51,64,8
1,48,64,8
1,48,64,8
1,43,64,8
1,46,64,8
1,48,64,8
1,51,64,8
1,51,64,8
1,48,64,8
1,46,64,8
1,48,64,8
1,43,64,8
1,46,64,8
1,48,64,8
1,51,64,8
1,51,64,8
1,48,64,8
1,48,64,8
1,43,64,8
1,46,64,8
1,48,64,8
1,51,64,8
1,51,64,8
1,48,64,8
1,46,64,8
1,48,64,8
1,43,64,8
1,46,64,8
1,48,64,8
1,51,64,8
1,51,64,8
1,48,64,8
1,41,64,8
1,41,64,8
1,41,64,8
1,41,64,8
1,41,64,8
1,41,64,8
1,41,64,8
1,41,64,8
1,41,64,8
1,41,64,8
1,41,64,8
1,41,64,8
1,46,64,8
1,46,64,8
1,47,64,8
1,47,64,8
1,48,64,8
1,43,64,8
1,46,64,8
1,48,64,8
1,51,64,8
1,51,64,8
1,48,64,8
1,46,64,8
1,48,64,8
1,43,64,8
1,46,64,8
1,48,64,8
1,51,64,8
1,51,64,8
1,48,64,8
1,46,64,8
1,46,64,8
1,46,64,8
1,46,64,8
1,46,64,8
1,46,64,8
1,46,64,8
1,46,64,8
1,46,64,8
1,46,64,8
1,46,64,8
1,46,64,8
1,46,64,8
1,46,64,8
1,46,64,8
1,46,64,8
1,41,64,8
1,41,64,8
1,41,64,8
1,41,64,8
1,41,64,8
1,41,64,8
1,41,64,8
1,41,64,8
1,43,64,8
1,43,64,8
1,43,64,8
1,43,64,8
1,43,64,8
1,43,64,8
1,43,64,8
1,43,64,8
1,48,64,8
1,44,64,8
1,46,64,8
1,48,64,8
1,46,64,8
1,46,64,8
1,48,64,8
1,48,64,8
1,46,64,8
1,44,64,8
1,46,64,8
1,51,64,8
1,48,64,8
1,48,64,8
1,48,64,8
1,48,64,8
1,48,64,8
1,48,64,8
1,44,64,8
1,46,64,8
1,48,64,8
1,46,64,8
1,46,64,8
1,48,64,8
1,48,64,8
1,46,64,8
1,44,64,8
1,46,64,8
1,51,64,8
1,48,64,8
1,48,64,8
1,48,64,8
1,48,64,8
1,48,64,8
1,44,64,8
1,46,64,8
1,48,78,1384
1,48,88,100
1,48,88,19
1,44,64,6
1,46,74,134
1,48,78,39
1,46,62,8
1,46,66,21
1,48,78,0
1,48,66,34
1,46,64,10
1,44,62,22
1,46,60,2
1,51,78,15
1,48,70,9
1,48,82,90
1,48,88,22
1,48,82,22
1,44,62,6
1,46,64,180
1,48,78,79
1,46,66,3
1,46,70,22
1,48,88,1
1,48,74,19
1,46,70,2
1,44,66,15
1,46,74,139
1,51,74,6
1,48,74,11
1,48,62,40
1,48,82,30
1,48,70,25
1,48,78,35
1,44,74,1
1,46,74,140
1,48,88,42
1,46,66,1
1,46,60,30
1,46,66,31
1,48,92,3
1,46,74,8
1,44,60,8
1,44,66,31
1,46,64,150
1,44,62,196
1,51,82,27
1,48,78,4
1,48,74,40
1,48,78,30
1,48,70,30
1,48,82,34
1,44,74,5
1,46,74,141
1,48,88,24
1,46,64,26
1,46,70,26
1,46,70,29
1,48,92,5
1,46,78,33
1,44,74,23
1,48,74,43
1,48,82,24
1,48,88,25
1,46,74,12
1,48,88,7
1,46,66,13
1,44,88,30
1,44,58,26
1,44,78,33
1,48,92,44
1,44,70,22
1,46,64,27
1,51,92,29
1,51,82,18
1,48,82,27
1,48,82,21
1,46,63,2
1,44,60,17
1,46,57,32
1,46,53,33
1,46,70,35
1,48,80,48
1,46,50,23
1,44,50,24
1,48,71,26
1,48,58,24
1,48,67,29
1,48,69,17
1,46,50,14
1,44,42,13
1,44,38,21
1,46,54,23
1,46,51,15
1,46,44,25
1,48,53,40
1,46,45,28
1,44,36,25
1,51,42,33
1,51,41,13
1,48,45,25
1,48,41,24
1,48,34,10
1,46,31,1
1,44,27,16
1,46,27,31
1,46,26,30
1,46,25,33
1,48,30,64
1,46,22,25
1,44,19,24
1,51,21,30
1,51,21,25
1,48,19,34
1,48,20,31
1,48,17,15
1,46,12,13
1,44,11,15
1,46,11,31
1,46,9,31
1,46,10,35
1,48,9,54
2,79,96,0
2,75,96,0
2,72,96,0
2,75,96,16
2,72,92,1
2,79,96,0
2,75,96,17
2,79,96,1
2,72,88,0
2,75,102,23
2,72,92,0
2,80,102,1
2,77,78,53
2,74,70,6
2,70,102,22
2,77,102,0
2,74,102,0
2,70,88,12
2,77,96,1
2,74,96,1
2,79,88,33
2,75,92,24
2,79,102,0
2,72,96,1
2,77,96,18
2,75,70,3
2,79,102,14
2,77,92,11
2,79,102,45
2,77,96,7
2,75,78,63
2,72,82,8
2,72,96,58
2,75,114,14
2,72,88,5
2,67,88,4774
2,70,102,2
2,67,88,54
2,72,102,1
2,67,78,42
2,72,96,1
2,67,82,37
2,70,102,20
2,72,96,96
2,75,88,86
2,67,78,2
2,72,82,35
2,67,62,0
2,75,96,7
2,67,82,1
2,75,88,11
2,67,82,2
2,75,92,25
2,67,82,0
2,67,66,6
2,72,96,1
2,72,96,24
2,67,74,1
2,75,96,38
2,67,88,1
2,67,74,19
2,75,92,1
2,72,88,47
2,72,96,32
2,67,74,0
2,67,74,55
2,70,96,25
2,67,66,5
2,72,102,8
2,67,88,0
2,72,102,37
2,67,92,0
2,70,102,29
2,70,78,20
2,70,96,14
2,72,96,1
2,75,96,100
2,75,88,35
2,75,96,29
2,75,88,12
2,75,88,25
2,75,96,31
2,72,88,56
2,72,82,26
2,75,96,26
2,74,78,0
2,72,82,6
2,72,96,30
2,69,92,104
2,77,96,0
2,75,88,6
2,72,92,1
2,72,92,17
2,67,88,1
2,77,92,50
2,72,88,8
2,79,96,12
2,67,50,4
2,75,92,20
2,72,88,2
2,67,58,4
2,70,102,219
2,72,96,0
2,67,82,1
2,70,88,400
2,77,92,2
2,75,96,5
2,72,92,43
2,77,92,43
2,70,74,2
2,70,82,23
2,77,92,1
2,79,88,28
2,77,88,1
2,75,62,46
2,77,96,5
2,77,102,116
2,69,96,1
2,69,82,16
2,77,96,1
2,69,78,29
2,77,92,1
2,69,88,33
2,77,96,0
2,75,96,10
2,69,78,2
2,77,92,8
2,75,54,6
2,71,92,30
2,79,102,2
2,71,88,16
2,79,96,0
2,71,92,20
2,79,96,1
2,79,96,19
2,71,88,0
2,75,108,135
2,72,96,1
2,79,102,0
2,75,96,13
2,72,92,0
2,79,96,1
2,75,88,12
2,72,82,2
2,79,96,0
2,72,96,31
2,80,108,1
2,75,108,0
2,77,82,46
2,74,78,1
2,70,102,28
2,77,88,1
2,74,92,1
2,70,74,17
2,77,82,1
2,74,88,1
2,79,88,1
2,75,92,28
2,79,96,2
2,72,88,1
2,75,108,86
2,79,102,1
2,75,92,15
2,79,92,1
2,77,96,27
2,74,102,0
2,75,96,9
2,72,102,13
2,72,78,23
2,75,108,36
2,72,82,2
2,72,108,10
2,79,92,170
2,75,88,2
2,75,102,32
2,79,102,0
2,72,108,0
2,75,88,12
2,72,92,0
2,79,96,2
2,72,96,29
2,75,108,1
2,80,102,1
2,79,88,21
2,80,82,12
2,82,96,29
2,77,92,0
2,74,78,1
2,77,96,23
2,74,88,0
2,79,92,46
2,75,108,32
2,72,96,1
2,79,96,0
2,75,108,82
2,79,102,1
2,75,96,18
2,79,96,1
2,74,96,25
2,77,96,0
2,75,102,19
2,72,108,22
2,72,82,21
2,75,114,38
2,72,96,0
2,72,108,8
2,75,82,180
2,79,88,1
2,79,102,31
2,75,108,0
2,75,88,12
2,79,92,1
2,74,88,23
2,77,92,0
2,75,78,0
2,79,78,2
2,70,96,2027
2,72,96,83
2,72,102,23
2,70,78,64
2,70,96,35
2,72,96,6
2,75,88,1
2,75,96,87
2,75,96,10
2,75,88,29
2,72,96,2
2,72,82,38
2,75,88,27
2,74,78,4
2,72,82,9
2,67,88,75
2,70,92,17
2,72,96,4
2,72,102,30
2,67,78,81
2,70,78,18
2,72,92,9
2,75,88,95
2,75,92,68
2,75,82,6
2,75,88,30
2,72,74,24
2,72,82,60
2,75,88,23
2,74,88,20
2,72,82,19
2,72,96,30
2,77,96,128
2,69,92,1
2,75,88,15
2,72,92,8
2,69,82,1
2,72,92,42
2,67,88,0
2,77,96,21
2,69,88,1
2,79,96,19
2,75,96,20
2,70,92,210
2,72,92,44
2,67,78,0
2,77,96,346
2,70,92,0
2,75,96,8
2,72,96,2
2,77,88,75
2,79,102,42
2,77,92,3
2,75,88,62
2,77,96,3
2,77,96,99
2,77,96,9
2,77,92,16
2,77,92,24
2,75,96,8
2,77,92,71
2,79,88,14
2,74,88,2
2,71,82,0
2,79,82,5
2,71,54,1
2,74,92,0
2,79,88,14
2,71,78,0
2,74,92,0
2,74,102,25
2,79,96,0
2,71,96,0
2,79,96,113
2,75,102,0
2,75,108,17
2,79,102,0
2,72,102,0
2,75,102,20
2,79,96,1
2,72,96,0
2,75,88,18
2,72,82,1
2,79,88,1
2,72,96,31
2,75,108,0
2,80,102,2
2,74,88,51
2,77,88,1
2,77,102,34
2,74,108,1
2,77,92,11
2,74,88,1
2,75,74,54
2,79,70,4
2,75,92,13
2,79,96,1
2,75,108,107
2,79,102,0
2,75,102,15
2,79,96,1
2,72,70,3
2,77,108,33
2,74,102,1
2,75,78,4
2,72,102,10
2,72,78,27
2,75,108,35
2,72,102,1
2,72,108,1
2,75,108,196
2,79,96,1
2,72,82,0
2,72,96,28
2,79,108,1
2,75,108,1
2,75,88,10
2,72,82,1
2,79,96,1
2,72,92,26
2,75,102,1
2,80,96,2
2,79,88,19
2,80,82,46
2,74,78,30
2,77,88,0
2,82,96,0
2,77,92,22
2,74,82,0
2,79,82,46
2,72,96,35
2,79,96,0
2,75,96,1
2,75,108,100
2,79,102,1
2,75,96,21
2,79,96,2
2,77,102,22
2,74,96,1
2,75,92,5
2,72,102,0
2,72,106,15
2,75,108,5
2,72,102,2
2,79,78,186
2,75,88,2
2,75,102,32
2,79,96,1
2,72,92,1
2,75,78,15
2,79,88,1
2,72,78,0
2,72,82,31
2,77,96,1
2,79,88,3
2,72,78,0
2,75,70,1
2,72,108,217
2,79,114,0
2,75,114,0
2,75,102,14
2,72,96,0
2,79,102,1
2,72,96,31
2,75,108,0
2,80,102,2
2,77,74,32
2,74,60,2
2,74,92,28
2,77,108,0
2,77,92,18
2,74,78,2
2,79,88,45
2,79,96,35
2,75,96,0
2,72,92,2
2,75,108,100
2,79,96,0
2,72,92,1
2,75,88,19
2,72,88,1
2,79,96,1
2,77,92,53
2,74,96,0
2,70,70,7
2,75,82,11
2,72,96,22
2,72,74,27
2,75,102,35
2,72,96,1
2,72,108,17
2,79,88,139
2,75,66,0
2,75,108,31
2,72,108,0
2,79,108,1
2,75,96,13
2,72,92,0
2,79,96,1
2,72,96,32
2,75,108,0
2,80,102,1
2,79,82,18
2,80,78,45
2,74,88,29
2,77,92,1
2,82,96,1
2,77,88,18
2,74,70,1
2,79,88,12
2,75,96,32
2,72,88,1
2,79,96,0
2,75,108,114
2,79,96,0
2,72,96,1
2,75,88,13
2,72,78,2
2,79,88,0
2,74,92,29
2,77,96,1
2,75,66,7
2,72,82,29
2,72,66,25
2,72,88,38
2,75,102,0
2,72,96,13
2,79,92,371
2,75,82,2
2,72,108,30
2,75,114,0
2,79,114,1
2,72,88,11
2,75,102,1
2,79,102,1
2,72,96,33
2,75,108,0
2,80,108,0
2,77,78,47
2,74,58,2
2,74,96,30
2,77,108,1
2,77,88,17
2,74,78,2
2,79,64,47
2,79,96,39
