track,note,velocity,time
5,35,126,0
5,35,0,14
5,40,126,6
5,40,0,14
5,43,127,46
5,43,0,14
5,42,126,46
5,42,0,14
5,40,126,16
5,40,0,14
5,43,126,76
5,42,100,0
5,43,0,14
5,42,0,0
5,40,102,26
5,40,0,14
5,48,120,26
5,40,59,0
5,48,0,14
5,40,0,0
5,48,120,6
5,40,59,0
5,48,0,14
5,40,0,0
5,45,120,6
5,42,100,0
5,40,59,0
5,45,0,14
5,42,0,0
5,40,0,0
5,45,120,6
5,40,59,0
5,45,0,14
5,40,0,0
5,43,120,6
5,40,59,0
5,43,0,14
5,40,0,0
5,43,120,6
5,40,59,0
5,43,0,14
5,40,0,0
5,41,120,6
5,40,59,0
5,41,0,14
5,40,0,0
5,41,120,6
5,41,0,14
5,35,100,6
5,57,80,0
5,40,59,0
5,57,100,0
5,42,100,0
5,35,0,59
5,57,0,0
5,40,0,0
5,57,0,0
5,42,0,0
5,42,100,1
5,42,0,59
5,38,100,1
5,42,100,0
5,38,0,59
5,42,0,0
5,42,100,1
5,42,0,59
5,35,100,1
5,42,100,0
5,42,100,30
5,42,0,14
5,35,0,15
5,42,0,0
5,42,100,1
5,42,100,0
5,42,0,59
5,42,0,0
5,38,100,1
5,42,100,0
5,38,0,59
5,42,0,0
5,42,100,1
5,42,0,59
5,35,100,1
5,42,100,0
5,49,70,0
5,35,0,59
5,42,0,0
5,49,0,0
5,42,100,1
5,42,0,59
5,38,100,1
5,42,100,0
5,38,0,59
5,42,0,0
5,42,100,1
5,42,0,59
5,35,100,1
5,42,100,0
5,35,0,59
5,42,0,0
5,35,100,1
5,42,100,0
5,35,0,59
5,42,0,0
5,38,100,1
5,42,100,0
5,38,0,59
5,42,0,0
5,43,70,1
5,42,100,0
5,41,70,30
5,43,0,29
5,42,0,0
5,49,100,1
5,35,100,0
5,42,100,0
5,41,0,29
5,49,0,30
5,35,0,0
5,42,0,0
5,42,100,1
5,42,0,59
5,38,100,1
5,42,100,0
5,38,0,59
5,42,0,0
5,42,100,1
5,42,0,59
5,57,70,1
5,35,100,0
5,42,100,0
5,57,0,59
5,35,0,0
5,42,0,0
5,42,100,1
5,42,0,59
5,38,100,1
5,42,100,0
5,49,80,60
5,57,70,60
5,42,103,0
5,42,0,59
5,57,0,0
5,37,100,61
5,42,102,0
5,37,0,14
5,49,0,45
5,42,0,0
5,37,68,41
5,37,72,10
5,38,0,10
5,42,0,0
5,37,79,0
5,37,71,30
5,37,0,9
5,37,0,10
5,37,0,10
5,37,75,1
5,37,0,29
5,37,76,1
5,42,88,30
5,37,88,0
5,37,60,100
5,37,63,10
5,37,66,10
5,42,73,120
5,37,73,0
5,37,67,110
5,37,68,10
5,37,63,30
5,37,63,30
5,37,64,30
5,42,69,30
5,37,69,0
5,37,66,100
5,37,68,10
5,37,0,4
5,37,71,6
5,37,0,4
5,37,0,10
5,37,63,106
5,37,0,14
5,37,0,75
5,37,60,21
5,42,0,9
5,37,0,0
5,37,63,1
5,37,0,4
5,37,0,10
5,37,66,16
5,37,0,14
5,37,65,16
5,37,0,14
5,37,66,16
5,37,0,9
5,37,0,5
5,37,0,5
5,37,0,10
5,37,68,1
5,37,0,14
5,37,53,46
5,37,0,14
5,37,59,26
5,37,65,10
5,37,0,4
5,37,0,5
5,37,69,1
5,37,0,4
5,37,0,10
5,37,68,106
5,37,0,14
5,37,59,86
5,37,61,10
5,37,0,4
5,37,66,6
5,37,0,4
5,37,0,10
5,37,58,16
5,37,0,14
5,37,57,16
5,37,0,14
5,37,57,16
5,37,0,14
5,37,65,16
5,37,0,14
5,37,57,106
5,37,0,14
5,37,44,86
5,37,46,10
5,37,46,0
5,37,0,4
5,37,47,6
5,37,0,4
5,37,0,0
5,37,0,10
5,42,0,45
5,37,54,41
5,37,54,10
5,37,0,4
5,37,56,6
5,37,0,4
5,37,0,10
5,37,53,16
5,37,0,14
5,37,0,5
5,37,0,10
5,37,57,1
5,37,0,14
5,37,0,15
5,37,59,1
5,37,0,14
5,37,0,15
5,37,0,0
5,37,62,1
5,37,0,14
5,37,0,15
5,42,0,30
5,37,0,0
5,37,60,61
5,37,0,14
5,37,66,106
5,37,0,14
5,37,56,96
5,37,59,10
5,37,0,4
5,37,0,10
5,37,59,16
5,37,0,14
5,37,61,16
5,37,0,14
5,37,64,16
5,37,0,14
5,37,71,16
5,37,0,14
5,37,71,106
5,37,0,4
5,37,63,116
5,37,0,14
5,37,60,96
5,37,0,9
5,37,63,1
5,37,0,4
5,37,66,26
5,37,0,14
5,37,65,16
5,37,0,14
5,37,66,16
5,37,0,9
5,37,68,21
5,37,0,14
5,37,53,46
5,37,0,14
5,37,59,26
5,37,65,10
5,37,0,4
5,37,0,5
5,37,69,1
5,37,0,4
5,37,68,116
5,37,0,14
5,37,59,86
5,37,61,10
5,37,0,4
5,37,66,6
5,37,0,4
5,37,0,10
5,37,58,16
5,37,0,14
5,37,57,16
5,37,0,14
5,37,57,16
5,37,0,14
5,37,65,16
5,37,0,14
5,37,57,106
5,37,0,14
5,37,44,86
5,37,46,10
5,37,46,0
5,37,0,4
5,37,47,6
5,37,0,4
5,37,0,0
5,37,0,10
5,37,54,86
5,37,54,10
5,37,0,4
5,37,56,6
5,37,0,4
5,37,0,10
5,37,53,16
5,37,0,14
5,37,57,16
5,37,0,14
5,37,59,16
5,37,0,14
5,37,62,16
5,37,0,14
5,37,60,106
5,37,0,14
5,37,66,106
5,37,0,14
5,37,56,96
5,37,59,10
5,37,0,4
5,37,0,10
5,37,59,16
5,37,0,14
5,37,61,16
5,37,0,14
5,37,64,16
5,37,0,14
5,37,71,16
5,37,0,14
5,35,80,106
5,37,71,0
5,37,0,4
5,35,0,10
5,37,63,106
5,37,0,14
5,37,60,96
5,37,0,9
5,37,63,1
5,37,0,4
5,37,66,26
5,37,0,14
5,37,65,16
5,37,0,14
5,37,66,16
5,37,0,9
5,37,68,21
5,37,0,14
5,37,53,46
5,37,0,14
5,37,59,26
5,37,65,10
5,37,0,4
5,37,0,5
5,35,80,1
5,37,69,0
5,37,0,4
5,35,0,10
5,37,68,106
5,37,0,14
5,37,59,86
5,37,61,10
5,37,0,4
5,37,66,6
5,37,0,4
5,37,0,10
5,37,58,16
5,37,0,14
5,37,57,16
5,37,0,14
5,37,57,16
5,37,0,14
5,42,80,16
5,38,80,0
5,37,65,0
5,42,0,14
5,38,0,0
5,37,0,0
5,35,80,106
5,37,57,0
5,35,0,14
5,37,0,0
5,37,44,86
5,37,46,10
5,37,46,0
5,37,0,4
5,37,47,6
5,37,0,4
5,37,0,0
5,37,0,10
5,37,54,86
5,37,54,10
5,37,0,4
5,37,56,6
5,37,0,4
5,37,0,10
5,37,53,16
5,37,0,14
5,37,57,16
5,37,0,14
5,37,59,16
5,37,0,14
5,42,80,16
5,38,80,0
5,37,62,0
5,42,0,14
5,38,0,0
5,37,0,0
5,35,80,106
5,37,60,0
5,35,0,14
5,37,0,0
5,37,66,106
5,37,0,14
5,49,60,106
5,38,80,0
5,37,59,0
5,37,0,4
5,49,0,10
5,38,0,0
5,37,59,16
5,37,0,14
5,37,61,16
5,37,0,14
5,37,64,16
5,37,0,14
5,49,33,16
5,37,60,0
5,49,33,10
5,49,0,4
5,37,0,0
5,49,35,6
5,49,0,4
5,49,35,6
5,49,0,4
5,49,36,6
5,49,0,4
5,49,38,6
5,49,0,4
5,49,38,6
5,49,0,4
5,49,39,6
5,49,0,4
5,49,41,6
5,49,0,4
5,49,44,6
5,49,0,4
5,49,44,6
5,49,0,4
5,49,45,6
5,49,0,4
5,57,52,6
5,49,0,4
5,57,0,10
5,37,60,1906
5,35,100,0
5,37,0,14
5,35,0,0
5,37,59,106
5,37,0,14
5,42,60,46
5,42,0,14
5,37,78,46
5,42,78,0
5,37,0,14
5,42,0,0
5,42,80,16
5,42,0,14
5,42,81,16
5,42,0,14
5,42,81,16
5,42,0,14
5,37,82,16
5,42,82,0
5,37,0,14
5,42,0,0
5,37,49,46
5,35,100,0
5,37,0,14
5,35,0,0
5,37,60,46
5,35,100,0
5,37,0,14
5,35,0,0
5,37,60,106
5,37,0,14
5,42,60,46
5,42,0,14
5,42,80,46
5,37,80,0
5,42,0,14
5,37,0,0
5,42,80,16
5,42,0,14
5,42,81,16
5,42,0,14
5,42,81,16
5,42,0,14
5,42,82,16
5,37,82,0
5,42,0,14
5,37,0,0
5,35,81,46
5,37,60,0
5,35,0,14
5,37,0,0
5,35,100,46
5,37,60,0
5,35,0,14
5,37,0,0
5,37,60,106
5,37,0,14
5,42,81,46
5,42,0,14
5,42,81,46
5,37,60,0
5,42,0,14
5,37,0,0
5,42,81,16
5,42,0,14
5,42,81,16
5,42,0,14
5,42,81,46
5,37,60,0
5,42,0,14
5,37,0,0
5,42,81,16
5,42,0,14
5,42,81,16
5,42,0,14
5,35,100,46
5,37,60,0
5,35,0,14
5,37,0,0
5,37,60,106
5,37,0,14
5,42,60,46
5,42,0,14
5,42,81,46
5,37,60,0
5,42,0,14
5,37,0,0
5,42,81,46
5,42,0,14
5,42,81,46
5,37,60,0
5,42,0,14
5,37,0,0
5,42,81,46
5,42,0,14
5,35,100,46
5,42,81,0
5,49,40,0
5,35,0,14
5,42,0,0
5,49,0,0
5,42,81,106
5,37,100,0
5,42,0,14
5,37,0,0
5,42,81,46
5,42,0,14
5,42,81,46
5,37,70,0
5,42,0,14
5,37,0,0
5,42,81,16
5,42,0,14
5,42,81,16
5,42,0,14
5,42,81,16
5,42,0,14
5,42,81,16
5,37,70,0
5,42,0,14
5,37,0,0
5,42,81,46
5,42,0,14
5,35,100,46
5,35,0,14
5,42,81,46
5,42,0,14
5,37,100,46
5,42,81,0
5,37,0,14
5,42,0,0
5,42,81,46
5,42,0,14
5,37,70,46
5,42,81,0
5,37,0,14
5,42,0,0
5,42,81,16
5,42,0,14
5,42,81,16
5,42,0,14
5,42,81,46
5,37,70,0
5,42,0,14
5,37,0,0
5,42,81,16
5,42,0,14
5,42,81,16
5,42,0,14
5,35,100,46
5,42,81,0
5,35,0,14
5,42,0,0
5,42,81,106
5,37,100,0
5,42,0,14
5,37,0,0
5,42,81,106
5,37,70,0
5,42,0,14
5,37,0,0
5,42,81,106
5,37,70,0
5,42,0,14
5,37,0,0
5,42,81,106
5,35,100,0
5,42,0,14
5,35,0,0
5,42,81,106
5,37,100,0
5,42,0,14
5,37,0,0
5,42,81,106
5,37,70,0
5,42,0,14
5,37,0,0
5,42,81,106
5,37,70,0
5,42,0,14
5,37,0,0
5,49,30,526
5,49,0,14
5,49,31,46
5,49,0,14
5,84,66,346
5,84,0,14
5,35,100,106
5,49,60,0
5,35,0,14
5,49,0,0
5,42,100,46
5,42,0,14
5,37,70,46
5,42,100,0
5,38,100,0
5,37,0,14
5,42,0,0
5,38,0,0
5,42,100,46
5,42,0,14
5,35,100,46
5,42,100,0
5,35,0,14
5,42,0,0
5,42,100,46
5,42,0,14
5,37,70,46
5,42,100,0
5,38,100,0
5,37,0,14
5,42,0,0
5,38,0,0
5,42,100,46
5,35,60,0
5,42,0,14
5,35,0,0
5,35,100,46
5,42,87,0
5,35,0,14
5,42,0,0
5,42,86,16
5,42,0,14
5,42,92,16
5,42,0,14
5,37,70,46
5,38,100,0
5,42,96,0
5,37,0,14
5,38,0,0
5,42,0,0
5,42,100,46
5,42,0,14
5,35,100,46
5,42,100,0
5,35,0,14
5,42,0,0
5,42,100,46
5,42,0,14
5,37,70,46
5,38,100,0
5,42,100,0
5,37,0,14
5,38,0,0
5,42,0,0
5,42,100,46
5,42,0,14
5,35,100,46
5,42,87,0
5,35,0,14
5,42,0,0
5,42,86,16
5,42,0,14
5,42,92,16
5,42,0,14
5,37,70,46
5,38,100,0
5,42,96,0
5,37,0,14
5,38,0,0
5,42,0,0
5,42,100,46
5,42,0,14
5,35,100,46
5,42,100,0
5,35,0,14
5,42,0,0
5,42,100,46
5,42,0,14
5,37,70,46
5,38,100,0
5,42,100,0
5,37,0,14
5,38,0,0
5,42,0,0
5,42,100,46
5,42,0,14
5,35,100,46
5,42,87,0
5,35,0,14
5,42,0,0
5,42,86,16
5,42,0,14
5,42,92,16
5,42,0,14
5,37,70,46
5,38,100,0
5,42,96,0
5,37,0,14
5,38,0,0
5,42,0,0
5,42,100,46
5,42,0,14
5,35,100,46
5,42,100,0
5,35,0,14
5,42,0,0
5,42,100,46
5,42,0,14
5,37,70,46
5,38,100,0
5,42,100,0
5,37,0,14
5,38,0,0
5,42,0,0
5,42,100,46
5,42,0,14
5,57,50,46
5,35,100,0
5,42,100,0
5,57,0,14
5,35,0,0
5,42,0,0
5,42,100,46
5,42,0,14
5,37,70,46
5,38,100,0
5,42,100,0
5,37,0,14
5,38,0,0
5,42,0,0
5,42,100,46
5,42,0,14
5,35,100,46
5,42,100,0
5,35,0,14
5,42,0,0
5,42,100,16
5,42,0,14
5,42,100,16
5,42,0,14
5,37,70,46
5,38,100,0
5,42,100,0
5,37,0,14
5,38,0,0
5,42,0,0
5,42,100,46
5,42,0,14
5,35,100,46
5,42,100,0
5,35,0,14
5,42,0,0
5,42,100,46
5,42,0,14
5,37,70,46
5,38,100,0
5,42,100,0
5,37,0,14
5,38,0,0
5,42,0,0
5,42,100,46
5,42,0,14
5,35,100,46
5,42,100,0
5,35,0,14
5,42,0,0
5,42,100,16
5,42,0,14
5,42,100,16
5,42,0,14
5,37,70,46
5,38,100,0
5,42,100,0
5,37,0,14
5,38,0,0
5,42,0,0
5,42,100,46
5,42,0,14
5,35,100,46
5,42,100,0
5,35,0,14
5,42,0,0
5,42,100,46
5,42,0,14
5,37,70,46
5,38,100,0
5,42,100,0
5,37,0,14
5,38,0,0
5,42,0,0
5,42,100,46
5,42,0,14
5,35,100,46
5,42,100,0
5,35,0,14
5,42,0,0
5,42,100,16
5,42,0,14
5,42,100,16
5,42,0,14
5,42,100,46
5,37,70,0
5,38,100,0
5,42,0,14
5,42,100,46
5,42,0,14
5,35,100,46
5,42,100,0
5,35,0,14
5,42,0,0
5,42,100,46
5,42,0,14
5,37,70,46
5,38,100,0
5,42,100,0
5,37,0,14
5,38,0,0
5,42,0,0
5,42,100,46
5,42,0,14
5,35,100,46
5,42,100,0
5,35,0,14
5,42,0,0
5,42,100,16
5,42,0,14
5,35,100,16
5,42,100,0
5,35,0,14
5,42,0,0
5,37,70,46
5,38,100,0
5,42,100,0
5,37,0,14
5,38,0,0
5,42,0,0
5,47,100,46
5,42,100,0
5,47,0,14
5,42,0,0
5,47,100,16
5,45,100,0
5,47,0,14
5,45,0,0
5,35,100,16
5,42,100,0
5,35,0,14
5,42,0,0
5,42,100,46
5,42,0,14
5,37,70,46
5,38,100,0
5,42,100,0
5,37,0,14
5,38,0,0
5,42,0,0
5,42,100,46
5,42,0,14
5,35,100,46
5,42,100,0
5,35,0,14
5,42,0,0
5,42,100,16
5,42,0,14
5,42,100,16
5,42,0,14
5,42,100,46
5,37,70,0
5,38,100,0
5,42,0,14
5,42,100,46
5,42,0,14
5,35,100,46
5,42,100,0
5,35,0,14
5,42,0,0
5,42,100,46
5,42,0,14
5,37,70,46
5,38,100,0
5,42,100,0
5,37,0,14
5,38,0,0
5,42,0,0
5,42,100,46
5,42,0,14
5,35,100,46
5,42,100,0
5,37,0,14
5,38,0,0
5,35,0,0
5,42,0,0
5,42,100,16
5,42,0,14
5,42,100,16
5,42,0,14
5,42,100,46
5,37,70,0
5,38,100,0
5,42,0,14
5,42,100,46
5,42,0,14
5,35,100,46
5,42,100,0
5,35,0,14
5,42,0,0
5,42,100,46
5,42,0,14
5,37,70,46
5,38,100,0
5,42,100,0
5,37,0,14
5,38,0,0
5,42,0,0
5,42,100,46
5,42,0,14
5,35,100,46
5,42,100,0
5,35,0,14
5,42,0,0
5,42,100,16
5,42,0,14
5,42,100,16
5,42,0,14
5,42,100,46
5,37,70,0
5,38,100,0
5,42,0,14
5,42,100,46
5,42,0,14
