track,note,velocity,time
1,38,127,1248
1,26,85,0
1,38,127,13
1,26,95,1536
1,38,127,136
1,26,85,0
1,38,127,13
1,26,95,1536
1,38,127,136
1,26,85,0
1,38,127,13
1,26,95,1536
1,38,61,136
1,48,14,1536
1,43,47,1525
1,38,59,29
1,41,123,209
1,36,118,19
1,43,118,128
1,38,113,3
1,38,127,367
1,26,85,0
1,38,127,13
1,26,95,1536
1,38,118,150
1,38,85,74
1,38,101,3
1,36,82,4
1,36,90,93
1,35,79,89
1,31,123,4
1,43,118,7
1,31,106,187
1,38,123,0
1,38,106,79
1,33,101,0
1,38,106,2
1,29,118,380
1,41,123,6
1,40,95,367
1,38,85,0
1,114,1,96
1,36,123,4
1,36,123,115
1,31,123,189
1,31,123,61
1,43,123,1349
1,38,123,25
1,38,113,36
1,38,123,32
1,31,127,300
1,43,127,379
1,38,118,82
1,43,118,11
1,38,123,93
1,31,127,63
1,43,127,2
1,38,127,34
1,38,123,48
1,33,95,305
1,38,118,75
1,38,127,75
1,31,127,80
1,43,127,4
1,38,101,288
1,43,113,7
1,43,127,121
1,38,127,379
1,43,106,13
1,38,123,16
1,38,123,78
1,33,127,280
1,38,123,2
1,36,113,0
1,38,118,22
1,38,127,56
1,36,127,11
1,38,127,99
1,31,127,32
1,43,127,0
1,38,82,283
1,43,123,28
1,43,127,128
1,31,127,27
1,38,127,205
1,38,127,73
1,33,123,296
1,38,123,3
1,38,127,121
1,33,127,24
1,36,127,114
1,36,123,51
1,31,118,298
1,36,123,26
1,36,127,102
1,38,127,6
1,36,101,109
1,31,127,5
1,43,127,377
1,38,101,268
1,43,101,1
1,38,113,98
1,31,123,11
1,43,127,195
1,31,127,11
1,38,127,68
1,26,95,1536
1,38,118,150
1,38,85,74
1,38,101,3
1,36,82,4
1,36,90,93
1,35,79,89
1,31,123,4
1,43,118,7
1,31,106,187
1,38,123,0
1,38,106,79
1,33,101,0
1,38,106,2
1,29,118,380
1,41,123,6
1,40,95,367
1,38,85,0
1,114,1,96
1,36,123,4
1,36,123,115
1,31,123,189
1,31,123,61
1,43,123,1349
1,38,123,25
1,38,113,36
1,38,123,32
1,31,127,300
1,43,127,379
1,38,118,82
1,43,118,11
1,38,123,93
1,31,127,63
1,43,127,2
1,38,127,34
1,38,123,48
1,33,95,305
1,38,118,75
1,38,127,75
1,31,127,80
1,43,127,4
1,38,101,288
1,43,113,7
1,43,127,121
1,38,127,379
1,43,106,13
1,38,123,16
1,38,123,78
1,33,127,280
1,38,123,2
1,36,113,0
1,38,118,22
1,38,127,56
1,36,127,11
1,38,127,99
1,31,127,32
1,43,127,0
1,38,82,283
1,43,123,28
1,43,127,128
1,31,127,27
1,38,127,205
1,38,127,73
1,33,123,296
1,38,123,3
1,38,127,121
1,33,127,24
1,36,127,114
1,36,123,51
1,31,118,298
1,36,123,26
1,36,127,102
1,38,127,6
1,36,101,109
1,31,127,5
1,43,127,377
1,38,101,268
1,43,101,1
1,38,113,98
1,31,123,11
1,43,127,195
1,31,127,11
1,38,127,68
1,26,85,0
1,38,127,13
1,26,95,1536
1,31,127,136
1,43,127,379
1,38,118,82
1,43,118,11
1,38,123,93
1,31,127,63
1,43,127,2
1,38,127,34
1,38,123,48
1,33,95,305
1,38,118,75
1,38,127,75
1,31,127,80
1,43,127,4
1,38,101,288
1,43,113,7
1,43,127,121
1,38,127,379
1,43,106,13
1,38,123,16
1,38,123,78
1,33,127,280
1,38,123,2
1,36,113,0
1,38,118,22
1,38,127,56
1,36,127,11
1,38,127,99
1,31,127,32
1,43,127,0
1,38,82,283
1,43,123,28
1,43,127,128
1,31,127,27
1,38,127,205
1,38,127,73
1,33,123,296
1,38,123,3
1,38,127,121
1,33,127,24
1,29,127,109
1,41,127,10
1,36,95,296
1,41,127,7
1,36,127,105
1,29,127,28
1,41,127,0
1,29,127,182
1,31,127,111
1,43,127,3
1,38,123,275
1,31,127,8
1,38,127,652
1,26,85,0
1,38,127,13
1,26,95,1536
1,38,118,150
1,38,85,74
1,38,101,3
1,36,82,4
1,36,90,93
1,35,79,89
1,31,123,4
1,43,118,7
1,31,106,187
1,38,123,0
1,38,106,79
1,33,101,0
1,38,106,2
1,29,118,380
1,41,123,6
1,40,95,367
1,38,85,0
1,114,1,96
1,36,123,4
1,36,123,115
1,31,123,189
1,31,123,61
1,43,123,1349
1,38,123,25
1,38,113,36
1,38,123,32
1,31,127,311
1,38,118,19
1,31,127,762
1,43,127,379
1,38,118,82
1,43,118,11
1,38,123,93
1,31,127,63
1,43,127,2
1,38,127,34
1,38,123,48
1,33,95,305
1,38,118,75
1,38,127,75
1,31,127,80
1,43,127,4
1,38,101,288
1,43,113,7
1,43,127,121
1,38,127,379
1,43,106,13
1,38,123,16
1,38,123,78
1,33,127,280
1,38,123,2
1,36,113,0
1,38,118,22
1,38,127,56
1,36,127,11
1,38,127,99
1,31,127,32
1,43,127,0
1,38,82,283
1,43,123,28
1,43,127,128
1,31,127,27
1,38,127,205
1,38,127,73
1,33,123,296
1,38,123,3
1,38,127,121
1,33,127,24
1,36,127,114
1,36,123,51
1,31,118,298
1,36,123,26
1,36,127,102
1,38,127,6
1,36,101,109
1,31,127,5
1,43,127,377
1,38,101,268
1,43,101,1
1,38,113,98
1,31,123,11
1,43,127,195
1,31,127,11
1,38,127,68
1,38,127,45
1,33,113,288
1,38,127,10
1,38,127,117
1,33,127,288
1,38,127,23
1,36,127,50
1,36,127,64
1,31,123,288
1,36,123,21
1,38,113,96
1,36,127,95
1,36,127,58
1,31,123,28
1,43,127,15
1,38,118,288
1,43,127,85
1,43,127,128
1,43,127,42
1,38,127,15
1,38,127,68
1,33,106,288
1,38,127,15
1,38,127,106
1,40,106,96
1,38,127,0
1,33,127,16
1,38,127,88
1,38,127,68
1,33,118,288
1,38,127,13
1,38,127,109
1,40,127,20
1,38,127,96
1,36,127,58
1,36,127,82
1,31,118,288
1,36,118,23
1,36,127,112
1,38,127,26
1,31,127,56
1,43,127,16
1,41,106,288
1,43,118,87
1,41,118,87
1,38,127,15
1,31,127,8
1,43,127,192
1,26,127,77
1,38,95,2688
1,36,101,90
1,38,101,84
1,36,101,82
1,26,127,66
2,50,98,1095
2,57,94,0
2,62,101,0
2,38,94,0
2,57,36,37
2,50,59,20
2,62,55,48
2,38,59,53
2,50,40,576
2,50,36,252
2,38,50,0
2,57,59,0
2,45,60,0
2,62,59,0
2,38,32,388
2,50,43,384
2,57,68,384
2,38,76,87
2,50,98,68
2,57,94,0
2,62,101,0
2,38,94,0
2,57,36,37
2,50,59,20
2,62,55,48
2,38,59,53
2,50,40,576
2,50,36,252
2,38,50,0
2,57,59,0
2,45,60,0
2,62,59,0
2,38,32,388
2,50,43,384
2,57,68,384
2,38,76,87
2,50,98,68
2,57,94,0
2,62,101,0
2,38,94,0
2,57,36,37
2,50,59,20
2,62,55,48
2,38,59,53
2,50,40,576
2,50,36,252
2,38,50,0
2,57,59,0
2,45,60,0
2,62,59,0
2,38,32,388
2,50,43,384
2,57,68,384
2,38,76,87
2,65,98,6231
2,41,94,0
2,57,90,0
2,60,72,0
2,62,72,8
2,36,94,393
2,60,84,2
2,64,84,0
2,55,72,0
2,50,98,3132
2,57,94,0
2,62,101,0
2,38,94,0
2,57,36,37
2,50,59,20
2,62,55,48
2,38,59,53
2,50,40,576
2,50,36,252
2,38,50,0
2,57,59,0
2,45,60,0
2,62,59,0
2,38,32,388
2,50,43,384
2,57,68,384
2,38,76,87
2,69,84,72
2,65,76,2
2,62,72,5
2,50,80,8
2,57,84,176
2,62,84,29
2,57,65,0
2,65,72,18
2,69,90,4
2,50,94,104
2,57,94,70
2,65,101,87
2,62,98,24
2,69,76,88
2,64,94,6
2,67,80,2
2,60,80,3
2,48,84,3
2,55,76,11
2,72,90,100
2,55,65,10
2,79,94,219
2,76,76,93
2,72,90,5
2,55,80,51
2,60,84,21
2,64,76,9
2,55,80,5
2,53,80,4
2,59,84,59
2,62,94,87
2,67,84,56
2,71,101,10
2,62,98,381
2,74,94,6
2,71,76,96
2,67,80,74
2,69,76,206
2,65,72,3
2,62,63,2
2,50,84,3
2,57,84,7
2,62,80,20
2,65,84,71
2,57,80,72
2,69,94,88
2,65,101,8
2,57,98,188
2,69,98,4
2,53,84,0
2,72,98,0
2,65,76,3
2,60,84,29
2,65,76,16
2,69,76,2
2,72,94,102
2,60,94,33
2,77,101,26
2,60,90,22
2,72,94,42
2,60,84,128
2,60,98,138
2,64,80,91
2,67,90,95
2,72,98,32
2,76,94,0
2,67,94,98
2,79,90,2
2,76,90,89
2,67,90,11
2,72,68,10
2,76,80,47
2,79,80,173
2,62,101,167
2,59,98,1
2,55,94,0
2,43,90,3
2,59,101,91
2,62,101,2
2,55,98,0
2,50,94,335
2,55,84,30
2,62,101,40
2,57,101,1
2,50,72,123
2,62,101,34
2,59,101,1
2,55,90,30
2,38,98,117
2,62,80,45
2,69,94,92
2,62,94,1
2,65,94,2
2,50,98,19
2,62,80,83
2,57,94,49
2,65,101,14
2,62,98,2
2,69,101,0
2,57,94,123
2,62,90,32
2,69,101,32
2,65,101,0
2,62,101,3
2,62,98,317
2,55,94,1
2,59,94,2
2,43,84,3
2,67,94,169
2,71,101,0
2,74,101,2
2,55,90,320
2,62,80,10
2,50,94,120
2,57,101,58
2,62,101,19
2,50,98,10
2,57,98,5
2,62,94,32
2,69,98,0
2,66,84,1
2,62,80,29
2,57,98,27
2,62,98,91
2,69,101,32
2,62,101,2
2,66,101,0
2,57,90,30
2,69,98,48
2,64,98,1
2,62,98,6
2,62,98,22
2,59,94,0
2,55,80,2
2,43,101,5
2,57,101,97
2,62,101,4
2,50,47,149
2,55,101,18
2,50,72,27
2,62,101,131
2,53,98,3
2,59,101,2
2,50,94,8
2,57,84,3
2,62,101,3
2,62,98,149
2,66,98,3
2,57,84,6
2,62,80,94
2,66,63,2
2,66,101,28
2,62,98,3
2,69,101,51
2,66,101,0
2,62,101,0
2,62,10,8
2,55,94,162
2,43,90,0
2,59,98,1
2,62,101,0
2,55,94,16
2,62,101,2
2,59,101,0
2,50,80,19
2,55,101,19
2,62,101,37
2,57,101,1
2,50,98,174
2,57,90,5
2,66,101,392
2,62,101,2
2,69,98,4
2,57,94,160
2,62,94,65
2,69,59,16
2,69,101,2
2,64,101,1
2,64,101,62
2,60,94,0
2,67,98,2
2,48,84,5
2,55,98,330
2,67,101,274
2,64,101,0
2,60,94,1
2,62,101,71
2,67,101,0
2,59,101,213
2,55,90,0
2,62,101,1
2,43,94,4
2,50,94,13
2,67,94,311
2,71,101,1
2,74,101,0
2,69,101,57
2,74,101,2
2,50,101,263
2,50,36,122
2,38,50,0
2,57,59,0
2,45,60,0
2,62,59,0
2,38,32,388
2,50,43,384
2,57,68,384
2,38,76,87
2,69,84,72
2,65,76,2
2,62,72,5
2,50,80,8
2,57,84,176
2,62,84,29
2,57,65,0
2,65,72,18
2,69,90,4
2,50,94,104
2,57,94,70
2,65,101,87
2,62,98,24
2,69,76,88
2,64,94,6
2,67,80,2
2,60,80,3
2,48,84,3
2,55,76,11
2,72,90,100
2,55,65,10
2,79,94,219
2,76,76,93
2,72,90,5
2,55,80,51
2,60,84,21
2,64,76,9
2,55,80,5
2,53,80,4
2,59,84,59
2,62,94,87
2,67,84,56
2,71,101,10
2,62,98,381
2,74,94,6
2,71,76,96
2,67,80,74
2,69,76,206
2,65,72,3
2,62,63,2
2,50,84,3
2,57,84,7
2,62,80,20
2,65,84,71
2,57,80,72
2,69,94,88
2,65,101,8
2,57,98,188
2,69,98,4
2,53,84,0
2,72,98,0
2,65,76,3
2,60,84,29
2,65,76,16
2,69,76,2
2,72,94,102
2,60,94,33
2,77,101,26
2,60,90,22
2,72,94,42
2,60,84,128
2,60,98,138
2,64,80,91
2,67,90,95
2,72,98,32
2,76,94,0
2,67,94,98
2,79,90,2
2,76,90,89
2,67,90,11
2,72,68,10
2,76,80,47
2,79,80,173
2,62,101,167
2,59,98,1
2,55,94,0
2,43,90,3
2,59,101,91
2,62,101,2
2,55,98,0
2,50,94,335
2,55,84,30
2,62,101,40
2,57,101,1
2,50,72,123
2,62,101,34
2,59,101,1
2,55,90,30
2,38,98,117
2,62,80,45
2,69,94,92
2,62,94,1
2,65,94,2
2,50,98,19
2,62,80,83
2,57,94,49
2,65,101,14
2,62,98,2
2,69,101,0
2,57,94,123
2,62,90,32
2,69,101,32
2,65,101,0
2,62,101,3
2,62,98,317
2,55,94,1
2,59,94,2
2,43,84,3
2,67,94,169
2,71,101,0
2,74,101,2
2,55,90,320
2,62,80,10
2,50,94,120
2,57,101,58
2,62,101,19
2,50,98,10
2,57,98,5
2,62,94,32
2,69,98,0
2,66,84,1
2,62,80,29
2,57,98,27
2,62,98,91
2,69,101,32
2,62,101,2
2,66,101,0
2,57,90,30
2,69,98,48
2,64,98,1
2,62,98,6
2,62,98,22
2,59,94,0
2,55,80,2
2,43,101,5
2,57,101,97
2,62,101,4
2,50,47,149
2,55,101,18
2,50,72,27
2,62,101,131
2,53,98,3
2,59,101,2
2,50,94,8
2,57,84,3
2,62,101,3
2,62,98,149
2,66,98,3
2,57,84,6
2,62,80,94
2,66,63,2
2,66,101,28
2,62,98,3
2,69,101,51
2,66,101,0
2,62,101,0
2,62,10,8
2,55,94,162
2,43,90,0
2,59,98,1
2,62,101,0
2,55,94,16
2,62,101,2
2,59,101,0
2,50,80,19
2,55,101,19
2,62,101,37
2,57,101,1
2,50,98,174
2,57,90,5
2,66,101,392
2,62,101,2
2,69,98,4
2,57,94,160
2,62,94,65
2,69,59,16
2,69,101,2
2,64,101,1
2,64,101,62
2,60,94,0
2,67,98,2
2,48,84,5
2,55,98,330
2,67,101,274
2,64,101,0
2,60,94,1
2,62,101,71
2,67,101,0
2,59,101,213
2,55,90,0
2,62,101,1
2,43,94,4
2,50,94,13
2,67,94,311
2,71,101,1
2,74,101,0
2,69,101,57
2,74,101,2
2,50,101,263
2,50,98,122
2,57,94,0
2,62,101,0
2,38,94,0
2,57,36,37
2,50,59,20
2,62,55,48
2,38,59,53
2,50,40,576
2,50,36,252
2,38,50,0
2,57,59,0
2,45,60,0
2,62,59,0
2,38,32,388
2,50,43,384
2,57,68,384
2,38,76,87
2,62,98,76
2,55,94,1
2,59,94,2
2,43,84,3
2,67,94,169
2,71,101,0
2,74,101,2
2,55,90,320
2,62,80,10
2,50,94,120
2,57,101,58
2,62,101,19
2,50,98,10
2,57,98,5
2,62,94,32
2,69,98,0
2,66,84,1
2,62,80,29
2,57,98,27
2,62,98,91
2,69,101,32
2,62,101,2
2,66,101,0
2,57,90,30
2,69,98,48
2,64,98,1
2,62,98,6
2,62,98,22
2,59,94,0
2,55,80,2
2,43,101,5
2,57,101,97
2,62,101,4
2,50,47,149
2,55,101,18
2,50,72,27
2,62,101,131
2,53,98,3
2,59,101,2
2,50,94,8
2,57,84,3
2,62,101,3
2,62,98,149
2,66,98,3
2,57,84,6
2,62,80,94
2,66,63,2
2,66,101,28
2,62,98,3
2,69,101,51
2,66,101,0
2,62,101,0
2,62,10,8
2,55,94,162
2,43,90,0
2,59,98,1
2,62,101,0
2,55,94,16
2,62,101,2
2,59,101,0
2,50,80,19
2,55,101,19
2,62,101,37
2,57,101,1
2,50,98,174
2,57,90,5
2,66,101,392
2,62,101,2
2,69,98,4
2,57,94,160
2,62,94,65
2,69,59,16
2,69,101,2
2,64,101,1
2,64,101,29
2,60,94,0
2,67,98,2
2,57,94,6
2,53,80,0
2,60,98,0
2,41,94,2
2,67,101,373
2,72,101,0
2,72,98,46
2,69,101,8
2,72,101,72
2,69,101,0
2,65,101,3
2,53,94,6
2,67,101,55
2,72,80,4
2,43,101,2
2,59,101,192
2,62,101,2
2,55,101,0
2,57,101,86
2,62,101,2
2,55,98,3
2,59,101,20
2,62,101,0
2,53,101,3
2,43,101,1
2,50,98,688
2,57,94,0
2,62,101,0
2,38,94,0
2,57,36,37
2,50,59,20
