track,note,velocity,time
0,36,98,8
0,39,62,0
0,49,60,0
0,51,66,0
0,54,66,0
0,58,66,0
0,36,0,4
0,49,0,0
0,42,49,92
0,42,0,4
0,42,38,44
0,42,0,4
0,38,85,44
0,42,88,0
0,38,0,4
0,42,0,0
0,36,75,44
0,36,0,4
0,42,48,44
0,42,0,4
0,42,39,44
0,42,0,4
0,36,94,44
0,42,77,0
0,36,0,4
0,42,0,0
0,42,54,92
0,42,0,4
0,36,54,44
0,36,0,4
0,51,0,40
0,54,0,0
0,58,0,0
0,39,0,2
0,37,60,2
0,38,91,0
0,42,85,0
0,49,66,0
0,53,66,0
0,56,66,0
0,38,0,4
0,42,0,0
0,42,49,92
0,42,0,4
0,42,39,44
0,42,0,4
0,53,0,40
0,56,0,0
0,37,0,2
0,36,103,2
0,42,75,0
0,42,57,0
0,54,66,0
0,58,66,0
0,36,0,4
0,42,0,0
0,42,50,92
0,90,52,0
0,42,0,4
0,42,36,44
0,42,0,4
0,90,0,42
0,38,82,2
0,42,78,0
0,85,52,0
0,38,0,4
0,42,0,0
0,36,77,44
0,36,0,4
0,85,0,42
0,42,52,2
0,87,51,0
0,42,0,4
0,42,43,44
0,42,0,4
0,87,0,42
0,36,98,2
0,42,82,0
0,82,49,0
0,36,0,4
0,42,0,0
0,42,48,92
0,42,0,4
0,42,36,44
0,42,0,4
0,38,87,44
0,42,87,0
0,38,0,4
0,42,0,0
0,42,29,44
0,42,0,4
0,82,0,42
0,42,55,2
0,42,0,4
0,42,42,44
0,42,0,4
0,49,0,40
0,54,0,0
0,58,0,0
0,42,0,2
0,35,61,2
0,36,102,0
0,42,79,0
0,51,66,0
0,54,66,0
0,59,66,0
0,36,0,4
0,42,0,0
0,42,50,92
0,42,0,4
0,42,35,44
0,42,0,4
0,35,0,42
0,38,84,2
0,42,82,0
0,38,0,4
0,42,0,0
0,35,51,44
0,36,79,0
0,36,0,4
0,35,0,18
0,42,55,26
0,42,0,4
0,42,44,44
0,42,0,4
0,51,0,40
0,54,0,0
0,59,0,0
0,36,97,4
0,39,63,0
0,42,76,0
0,51,66,0
0,54,66,0
0,58,66,0
0,36,0,4
0,42,0,0
0,42,50,92
0,42,0,4
0,42,37,44
0,42,0,4
0,38,94,44
0,42,85,0
0,38,0,4
0,42,0,0
0,36,90,44
0,36,0,4
0,42,50,44
0,42,0,4
0,42,40,44
0,42,0,4
0,36,108,44
0,42,80,0
0,36,0,4
0,42,0,0
0,42,51,92
0,42,0,4
0,42,36,44
0,42,0,4
0,38,103,44
0,42,83,0
0,38,0,4
0,42,0,0
0,42,50,92
0,42,0,4
0,42,39,44
0,42,0,4
0,36,99,44
0,42,76,0
0,36,0,4
0,42,0,0
0,42,48,92
0,42,0,4
0,42,41,44
0,42,0,4
0,38,84,44
0,42,85,0
0,38,0,4
0,42,0,0
0,36,88,44
0,36,0,4
0,42,50,44
0,42,0,4
0,42,43,44
0,42,0,4
0,36,101,44
0,42,79,0
0,36,0,4
0,42,0,0
0,42,50,92
0,42,0,4
0,42,35,44
0,44,72,0
0,56,94,0
0,42,0,4
0,44,0,2
0,38,91,42
0,42,82,0
0,38,0,4
0,42,0,0
0,56,0,90
0,42,72,2
0,42,50,0
0,54,94,0
0,42,0,4
0,42,0,2
0,42,42,42
0,42,0,4
0,54,0,42
0,36,95,2
0,39,72,0
0,42,88,0
0,58,94,0
0,36,0,4
0,42,0,0
0,39,0,2
0,42,50,90
0,42,0,4
0,42,37,44
0,42,0,4
0,38,94,44
0,42,85,0
0,38,0,4
0,42,0,0
0,36,78,44
0,70,90,0
0,36,0,4
0,70,0,16
0,42,52,28
0,70,91,1
0,42,0,3
0,70,0,19
0,70,85,18
0,42,40,7
0,42,0,4
0,70,0,18
0,36,99,26
0,42,80,0
0,70,93,3
0,36,0,1
0,42,0,0
0,68,90,85
0,70,0,1
0,42,51,6
0,42,0,4
0,68,0,18
0,68,89,19
0,42,37,7
0,42,0,4
0,51,0,40
0,54,0,0
0,58,0,0
0,39,0,2
0,37,54,2
0,38,92,0
0,42,83,0
0,49,66,0
0,53,66,0
0,56,66,0
0,38,0,4
0,42,0,0
0,66,90,37
0,68,0,3
0,66,0,26
0,66,87,16
0,42,50,10
0,42,0,4
0,42,39,44
0,42,0,4
0,49,0,40
0,53,0,0
0,56,0,0
0,58,0,0
0,37,0,2
0,36,101,2
0,42,79,0
0,42,65,0
0,49,66,0
0,54,66,0
0,58,66,0
0,36,0,4
0,42,0,0
0,42,50,92
0,42,0,4
0,42,35,44
0,42,0,4
0,38,91,44
0,42,82,0
0,38,0,4
0,42,0,0
0,42,0,42
0,36,78,2
0,42,57,0
0,36,0,4
0,42,56,44
0,42,0,4
0,42,44,44
0,42,0,4
0,42,0,42
0,36,95,2
0,42,76,0
0,42,64,0
0,36,0,4
0,42,0,0
0,66,0,3
0,42,50,89
0,42,0,4
0,42,37,44
0,42,0,4
0,38,94,44
0,42,85,0
0,38,0,4
0,42,0,0
0,42,52,92
0,42,0,4
0,68,84,0
0,68,0,18
0,70,92,24
0,42,40,2
0,42,0,4
0,70,0,18
0,49,0,22
0,58,0,0
0,42,0,2
0,35,62,2
0,36,99,0
0,42,80,0
0,51,66,0
0,59,66,0
0,36,0,4
0,42,0,0
0,71,94,2
0,70,92,88
0,71,0,1
0,42,51,1
0,42,0,4
0,70,0,24
0,42,37,20
0,42,0,4
0,68,88,4
0,38,92,40
0,42,83,0
0,38,0,4
0,42,0,0
0,68,0,29
0,66,87,11
0,36,89,4
0,36,0,4
0,42,50,44
0,42,0,4
0,66,0,18
0,70,88,16
0,42,39,10
0,42,0,4
0,51,0,40
0,54,0,0
0,59,0,0
0,35,0,2
0,36,102,2
0,39,60,0
0,42,79,0
0,51,66,0
0,54,66,0
0,58,66,0
0,36,0,4
0,42,0,0
0,70,0,42
0,70,82,21
0,42,50,29
0,42,0,4
0,42,35,44
0,42,0,4
0,38,84,44
0,42,82,0
0,38,0,4
0,42,0,0
0,39,0,42
0,36,75,2
0,39,54,0
0,36,0,4
0,42,56,44
0,42,0,4
0,42,44,44
0,42,0,4
0,39,0,42
0,36,105,2
0,39,47,0
0,42,76,0
0,36,0,4
0,42,0,0
0,42,50,92
0,42,0,4
0,42,37,44
0,42,0,4
0,70,0,5
0,38,94,39
0,42,85,0
0,38,0,4
0,42,0,0
0,42,52,92
0,42,0,4
0,42,40,44
0,42,0,4
0,39,0,42
0,36,104,2
0,39,46,0
0,42,80,0
0,36,0,4
0,42,0,0
0,42,51,92
0,42,0,4
0,42,37,44
0,42,0,4
0,38,84,44
0,42,83,0
0,38,0,4
0,42,0,0
0,39,0,42
0,36,85,2
0,39,63,0
0,36,0,4
0,42,50,44
0,42,0,4
0,42,39,44
0,42,0,4
0,39,0,42
0,36,99,2
0,39,60,0
0,42,76,0
0,36,0,4
0,42,0,0
0,42,48,92
0,42,0,4
0,42,41,44
0,44,72,0
0,56,94,0
0,42,0,4
0,44,0,2
0,38,84,42
0,42,85,0
0,38,0,4
0,42,0,0
0,56,0,42
0,42,72,2
0,54,94,0
0,42,0,6
0,42,50,42
0,42,0,4
0,39,0,42
0,42,43,2
0,42,0,4
0,54,0,42
0,36,101,2
0,39,72,0
0,39,55,0
0,42,79,0
0,51,94,0
0,36,0,4
0,42,0,0
0,39,0,2
0,42,50,90
0,42,0,4
0,42,35,44
0,42,0,4
0,38,91,44
0,42,82,0
0,38,0,4
0,42,0,0
0,39,0,42
0,36,82,2
0,39,62,0
0,36,0,4
0,42,56,44
0,42,0,4
0,70,91,2
0,70,0,17
0,42,44,25
0,70,90,3
0,42,0,1
0,70,0,21
0,39,0,21
0,36,95,2
0,39,63,0
0,42,76,0
0,36,0,4
0,42,0,0
0,70,91,7
0,70,0,79
0,68,93,4
0,42,50,2
0,42,0,4
0,68,0,21
0,68,93,21
0,42,37,2
0,42,0,4
0,51,0,40
0,54,0,0
0,58,0,0
0,39,0,2
0,37,53,2
0,38,94,0
0,42,85,0
0,49,66,0
0,53,66,0
0,56,66,0
0,38,0,4
0,42,0,0
0,66,90,47
0,68,0,3
0,66,0,25
0,66,91,13
0,42,52,4
0,42,0,4
0,42,40,44
0,42,0,4
0,49,0,40
0,51,0,0
0,53,0,0
0,56,0,0
0,37,0,2
0,36,101,2
0,42,82,0
0,42,54,0
0,49,66,0
0,54,66,0
0,58,66,0
0,36,0,4
0,42,0,0
0,42,44,92
0,42,0,4
0,42,38,44
0,42,0,4
0,38,91,44
0,42,88,0
0,38,0,4
0,42,0,0
0,42,0,42
0,36,89,2
0,42,52,0
0,36,0,4
0,42,48,44
0,42,0,4
0,42,39,44
0,42,0,4
0,66,0,37
0,42,0,5
0,36,108,2
0,42,75,0
0,42,60,0
0,36,0,4
0,42,0,0
0,42,52,92
0,42,0,4
0,38,94,92
0,42,85,0
0,38,0,4
0,42,0,0
0,42,50,92
0,68,94,1
0,42,0,3
0,68,0,18
0,70,94,19
0,42,39,7
0,42,0,4
0,70,0,13
0,49,0,27
0,58,0,0
0,42,0,2
0,35,63,2
0,36,99,0
0,42,80,0
0,51,66,0
0,59,66,0
0,71,95,3
0,36,0,1
0,42,0,0
0,71,0,86
0,42,49,6
0,70,89,1
0,42,0,3
0,70,0,26
0,42,37,18
0,68,91,3
0,42,0,1
0,38,92,44
0,42,83,0
0,38,0,4
0,42,0,0
0,68,0,30
0,36,85,14
0,66,93,0
0,36,0,4
0,42,50,44
0,42,0,4
0,66,0,42
0,42,39,2
0,42,0,4
0,70,85,5
0,51,0,35
0,54,0,0
0,59,0,0
0,35,0,2
0,36,102,2
0,39,65,0
0,42,79,0
0,51,66,0
0,54,66,0
0,58,66,0
0,36,0,4
0,42,0,0
0,68,84,88
0,70,0,2
0,42,50,2
0,42,0,4
0,68,0,37
0,42,35,7
0,66,80,0
0,42,0,4
0,38,84,44
0,42,82,0
0,38,0,4
0,42,0,0
0,39,0,42
0,36,89,2
0,39,51,0
0,36,0,4
0,42,56,44
0,42,0,4
0,42,44,44
0,42,0,4
0,39,0,42
0,36,105,2
0,39,42,0
0,42,76,0
0,36,0,4
0,42,0,0
0,42,50,92
0,42,0,4
0,42,37,44
0,42,0,4
0,66,0,16
0,38,94,28
0,42,85,0
0,38,0,4
0,42,0,0
0,42,52,92
0,42,0,4
0,42,40,44
0,42,0,4
0,39,0,0
0,36,104,2
0,39,40,0
0,42,80,0
0,53,74,0
0,56,74,0
0,61,74,0
0,63,74,0
0,36,0,4
0,42,0,0
0,42,51,92
0,42,0,4
0,42,37,44
0,42,0,4
0,49,107,3
0,38,84,12
0,42,83,0
0,38,0,4
0,42,0,0
0,39,0,22
0,36,88,2
0,39,48,0
0,36,0,4
0,42,50,34
0,42,0,3
0,42,39,8
0,42,0,4
0,39,0,19
0,36,99,2
0,39,60,0
0,42,76,0
0,36,0,4
0,42,0,0
0,42,48,5
0,42,0,4
0,42,41,15
0,42,0,4
0,38,84,28
0,42,85,0
0,38,0,4
0,42,0,0
0,42,50,12
0,42,0,4
0,39,0,19
0,42,43,2
0,42,0,3
0,51,0,14
0,54,0,0
0,58,0,0
0,36,101,4
0,37,60,0
0,42,79,0
0,49,66,0
0,53,66,0
0,56,66,0
0,70,86,0
0,36,0,4
0,42,0,0
0,42,50,8
0,42,0,4
0,42,35,2
0,42,0,4
0,38,91,2
0,42,82,0
0,38,0,3
0,42,0,0
0,37,0,10
0,36,88,2
0,37,52,0
0,36,0,4
0,42,56,15
0,42,0,4
0,42,44,8
0,42,0,3
0,37,0,0
0,36,95,2
0,37,58,0
0,42,76,0
0,36,0,4
0,42,0,0
0,42,50,18
0,42,0,4
0,42,37,5
0,42,0,4
0,38,94,8
0,42,85,0
0,38,0,4
0,42,0,0
0,78,100,22
0,36,62,2
0,42,52,0
0,36,0,3
0,42,0,0
0,70,0,0
0,37,0,21
0,36,42,2
0,42,40,0
0,36,0,4
0,42,0,0
0,49,0,40
0,49,0,0
0,53,0,0
0,56,0,0
0,56,0,2
0,61,0,0
0,63,0,0
0,36,101,2
0,39,78,0
0,39,90,0
0,42,82,0
0,51,68,0
0,51,69,0
0,54,73,0
0,54,61,0
0,54,74,0
0,58,55,0
0,58,53,0
0,63,40,0
0,63,74,0
0,58,74,1
0,36,0,3
0,42,0,0
0,77,96,2
0,53,0,14
0,78,0,6
0,42,44,70
0,42,0,4
0,42,38,44
0,42,0,4
0,38,91,44
0,42,88,0
0,38,0,4
0,42,0,0
0,39,0,30
0,36,89,14
0,39,68,0
0,36,0,4
0,42,48,44
0,42,0,4
0,78,91,4
0,77,0,9
0,42,39,31
0,42,0,4
0,75,86,13
0,39,0,9
0,78,0,0
0,36,108,22
0,39,70,0
0,42,75,0
0,36,0,4
0,42,0,0
0,39,0,26
0,36,75,66
0,39,58,0
0,42,52,0
0,36,0,4
0,42,0,0
0,38,94,92
0,42,85,0
0,38,0,4
0,42,0,0
0,70,70,8
0,42,50,7
0,42,0,4
0,75,0,0
0,70,0,26
0,68,79,4
0,39,0,1
0,34,67,7
0,36,61,0
0,42,39,0
0,36,0,4
0,42,0,0
0,34,0,35
0,36,99,0
0,39,86,0
0,42,80,0
0,36,0,4
0,42,0,0
0,42,49,28
0,42,0,4
0,68,0,7
0,42,37,9
0,42,0,4
0,38,92,12
0,42,83,0
0,38,0,4
0,42,0,0
0,39,0,24
0,36,85,16
0,39,73,0
0,36,0,4
0,39,0,26
0,39,0,5
0,42,50,2
0,42,0,4
0,42,39,39
0,42,0,0
0,34,78,32
0,36,102,0
0,42,79,0
0,46,41,0
0,58,71,0
0,36,0,4
0,42,0,0
0,58,0,6
0,36,54,6
0,37,85,0
0,42,50,0
0,49,44,0
0,61,71,0
0,34,0,4
0,36,0,0
0,42,0,0
0,42,35,7
0,42,0,4
0,61,0,6
0,38,84,6
0,39,87,0
0,42,82,0
0,51,47,0
0,63,69,0
0,37,0,1
0,38,0,3
0,42,0,0
0,39,0,35
0,63,0,0
0,36,65,4
0,42,56,0
0,42,83,0
0,54,52,0
0,66,69,0
0,36,0,0
0,42,0,0
0,42,44,44
0,42,0,4
0,42,0,9
0,66,0,19
0,46,0,2
0,51,0,1
0,36,105,1
0,39,83,0
0,42,76,0
0,51,45,0
0,63,56,0
0,36,0,4
0,42,0,0
0,49,0,14
0,42,50,2
0,42,0,4
0,42,37,7
0,42,0,4
0,51,0,42
0,38,94,2
0,42,85,0
0,38,0,0
0,42,0,0
0,39,0,24
0,36,87,20
0,39,78,0
0,36,0,4
0,39,0,19
0,54,0,18
0,63,0,0
0,42,52,2
0,70,88,3
0,42,0,1
0,70,0,14
0,70,87,23
0,42,40,5
0,42,0,4
0,70,0,10
0,70,91,11
0,36,104,5
0,39,81,0
0,42,80,0
0,36,0,4
0,42,0,0
0,68,86,58
0,36,65,0
0,42,51,0
0,36,0,4
0,42,0,0
0,70,0,0
0,68,0,21
0,42,37,23
0,68,87,0
0,54,0,1
0,58,0,0
0,63,0,1
0,42,0,2
0,51,0,0
0,54,0,10
0,51,0,1
0,58,0,2
0,63,0,3
0,54,0,3
0,58,0,2
0,39,0,14
0,37,120,9
0,37,76,0
0,38,84,0
0,42,83,0
0,49,66,0
0,53,66,0
0,53,94,0
0,56,66,0
0,56,94,0
0,61,94,0
0,38,0,4
0,42,0,0
0,66,90,48
0,68,0,8
0,66,0,18
0,42,50,18
0,66,85,0
0,42,0,4
0,53,0,42
0,56,0,0
0,61,0,0
0,42,39,2
0,42,0,4
0,37,0,14
0,37,0,20
0,49,0,6
0,53,0,0
0,56,0,0
0,36,95,2
0,42,88,0
0,42,120,0
0,42,83,0
0,49,66,0
0,54,66,0
0,58,66,0
0,58,94,0
0,61,94,0
0,66,94,0
0,36,0,4
0,42,0,0
0,42,50,92
0,42,0,4
0,42,37,44
0,42,0,4
0,38,94,44
0,42,85,0
0,38,0,4
0,42,0,0
0,42,0,8
0,36,78,36
0,42,71,0
0,36,0,4
0,42,52,44
