track,note,velocity,time
1,40,96,4204
1,52,81,2
1,59,91,2
1,64,100,0
1,68,91,0
1,59,91,48
1,52,81,36
1,66,100,60
1,68,100,22
1,69,100,30
1,59,91,4
1,64,109,0
1,68,100,14
1,59,56,2
1,40,78,30
1,66,100,0
1,59,91,0
1,64,100,0
1,64,95,26
1,59,91,0
1,33,89,10
1,59,100,6
1,45,81,0
1,61,100,0
1,64,91,4
1,57,60,6
1,64,82,20
1,61,91,4
1,59,91,2
1,57,55,2
1,64,91,20
1,61,100,4
1,59,100,8
1,57,81,8
1,59,102,18
1,64,81,0
1,61,89,0
1,57,84,4
1,37,91,50
1,49,82,4
1,61,91,2
1,64,100,0
1,68,91,0
1,61,91,50
1,64,73,16
1,68,60,0
1,66,100,8
1,64,82,0
1,68,100,22
1,35,91,28
1,69,105,2
1,47,82,2
1,59,91,2
1,64,89,0
1,68,106,14
1,47,82,0
1,59,56,0
1,66,100,4
1,59,91,0
1,51,82,0
1,39,73,0
1,40,73,20
1,52,82,2
1,64,95,4
1,59,91,0
1,33,82,20
1,45,100,8
1,59,82,2
1,61,91,2
1,64,73,0
1,57,64,10
1,64,73,8
1,61,82,4
1,59,82,0
1,57,64,0
1,59,82,180
1,64,82,0
1,61,91,4
1,57,64,0
1,59,73,194
1,64,60,0
1,61,82,0
1,57,64,6
1,61,73,6
1,59,82,0
1,64,73,4
1,57,64,6
1,64,73,180
1,61,64,2
1,59,73,2
1,57,60,0
1,64,73,184
1,59,73,0
1,61,60,0
1,57,60,2
1,64,64,178
1,59,73,0
1,61,64,0
1,45,80,4
1,57,60,0
1,37,82,0
1,61,91,0
1,49,81,0
1,64,86,0
1,63,75,0
1,56,52,104
1,63,66,162
1,64,78,0
1,61,91,2
1,56,49,0
1,64,90,186
1,61,91,0
1,63,74,6
1,56,55,2
1,61,82,192
1,64,80,0
1,63,68,0
1,56,67,22
1,49,67,0
1,63,80,6
1,35,82,2
1,61,81,0
1,47,81,2
1,59,91,0
1,54,64,98
1,59,91,152
1,63,82,0
1,61,74,4
1,54,49,176
1,61,66,182
1,59,82,0
1,63,87,2
1,54,56,0
1,59,82,190
1,61,76,0
1,63,87,4
1,47,73,22
1,54,72,2
1,59,64,78
1,33,82,12
1,61,64,2
1,45,81,0
1,64,82,10
1,57,52,34
1,45,52,0
1,61,72,154
1,64,87,0
1,59,91,2
1,57,58,0
1,45,57,0
1,59,91,192
1,64,82,0
1,61,74,0
1,57,55,0
1,45,58,0
1,59,82,192
1,64,82,0
1,61,82,0
1,57,67,178
1,45,71,0
1,32,82,8
1,59,90,2
1,63,82,0
1,44,81,0
1,54,78,0
1,54,64,20
1,63,82,180
1,59,90,4
1,54,56,176
1,59,95,182
1,63,89,2
1,54,68,0
1,44,87,72
1,63,56,0
1,59,60,0
1,54,72,22
1,63,96,22
1,59,97,0
1,54,91,0
1,47,93,4
1,54,72,26
1,37,82,0
1,61,91,2
1,49,81,0
1,64,82,0
1,63,73,0
1,56,64,6
1,56,52,12
1,63,72,162
1,64,87,0
1,61,91,2
1,56,58,0
1,64,85,36
1,61,91,0
1,49,58,4
1,63,64,2
1,56,55,2
1,61,87,192
1,64,86,0
1,63,72,0
1,56,67,30
1,49,67,0
1,59,82,8
1,35,82,0
1,47,81,2
1,61,77,0
1,63,82,0
1,54,64,102
1,59,91,180
1,63,82,0
1,61,74,4
1,54,56,176
1,47,58,40
1,61,76,2
1,59,82,0
1,63,82,2
1,54,66,0
1,59,56,26
1,63,48,2
1,61,48,0
1,47,88,2
1,54,85,18
1,59,93,84
1,61,96,0
1,63,96,0
1,54,75,68
1,47,73,0
1,59,82,44
1,61,68,4
1,64,82,4
1,33,82,0
1,45,81,2
1,57,52,100
1,61,72,156
1,64,87,0
1,59,91,2
1,57,49,0
1,64,82,186
1,59,91,0
1,61,74,6
1,57,55,2
1,59,82,192
1,64,82,0
1,61,82,0
1,57,67,44
1,45,71,0
1,32,82,8
1,59,90,2
1,63,82,0
1,44,81,0
1,54,78,0
1,54,64,20
1,63,89,180
1,59,90,4
1,44,77,32
1,54,56,0
1,57,52,6
1,33,82,0
1,45,81,2
1,61,91,0
1,64,82,2
1,52,74,0
1,45,85,44
1,35,85,20
1,47,81,2
1,54,92,0
1,59,99,14
1,54,64,2
1,63,95,0
1,47,94,28
1,54,70,24
1,59,55,2
1,63,74,0
1,37,82,6
1,61,91,0
1,64,82,0
1,49,81,0
1,63,75,0
1,56,79,0
1,56,52,20
1,63,62,162
1,64,87,0
1,61,91,2
1,56,58,0
1,64,86,186
1,61,91,0
1,63,64,6
1,56,55,2
1,61,86,192
1,64,89,0
1,63,74,0
1,56,67,22
1,49,67,0
1,39,88,8
1,51,81,2
1,59,91,0
1,63,82,0
1,66,93,0
1,61,56,0
1,54,64,6
1,66,91,26
1,63,91,0
1,59,91,0
1,61,67,2
1,54,73,4
1,61,60,22
1,63,91,0
1,59,82,0
1,66,91,2
1,54,64,194
1,61,64,54
1,66,82,0
1,63,82,0
1,51,100,0
1,59,73,2
1,54,89,32
1,61,64,82
1,59,91,2
1,66,99,0
1,63,87,2
1,54,77,50
1,51,93,4
1,45,81,18
1,40,87,8
1,52,83,0
1,61,91,0
1,64,91,0
1,69,73,0
1,57,66,116
1,64,100,172
1,69,83,2
1,61,84,0
1,57,73,8
1,52,67,30
1,40,91,10
1,69,91,0
1,64,100,0
1,61,82,4
1,57,85,12
1,69,60,92
1,64,64,0
1,52,95,4
1,59,100,10
1,40,81,0
1,61,90,16
1,69,92,0
1,64,90,2
1,52,81,12
1,59,90,0
1,57,100,26
1,63,91,2
1,42,97,0
1,54,81,2
1,71,91,2
1,66,91,0
1,42,87,0
1,59,82,0
1,66,100,24
1,75,100,2
1,71,91,6
1,54,56,22
1,59,91,2
1,59,109,6
1,42,73,6
1,64,100,6
1,69,91,2
1,61,91,0
1,33,100,0
1,45,100,2
1,33,91,10
1,57,91,6
1,45,100,92
1,59,100,12
1,47,100,2
1,35,91,0
1,64,91,0
1,66,100,2
1,63,109,24
1,47,89,4
1,42,91,0
1,40,96,16
1,52,81,0
1,59,91,2
1,64,100,0
1,68,91,0
1,59,91,48
1,64,100,26
1,68,91,2
1,59,82,30
1,68,73,0
1,64,100,0
1,52,58,40
1,59,73,0
1,68,91,30
1,64,100,0
1,40,91,2
1,59,82,92
1,68,91,0
1,52,67,6
1,71,91,28
1,71,91,28
1,75,91,0
1,35,97,0
1,66,82,0
1,47,81,0
1,59,82,8
1,66,64,28
1,63,64,0
1,71,56,0
1,47,104,66
1,75,91,8
1,59,82,2
1,66,91,2
1,47,56,28
1,68,91,2
1,59,73,2
1,59,91,34
1,47,100,2
1,69,100,0
1,75,73,4
1,68,100,26
1,59,73,0
1,75,73,2
1,59,91,22
1,66,100,2
1,75,82,8
1,47,73,18
1,59,64,4
1,64,100,2
1,42,91,2
1,54,82,0
1,64,82,6
1,61,82,0
1,66,64,2
1,57,64,126
1,61,64,12
1,66,64,0
1,64,64,0
1,57,44,4
1,57,73,28
1,64,82,2
1,61,82,0
1,66,82,0
1,54,52,28
1,59,91,10
1,54,98,6
1,61,91,26
1,64,91,0
1,59,82,16
1,57,64,36
1,37,92,16
1,49,91,0
1,61,82,0
1,64,91,0
1,68,82,2
1,56,60,2
1,64,106,32
1,68,91,2
1,49,73,0
1,61,101,0
1,56,73,68
1,49,100,2
1,37,82,80
1,35,91,52
1,47,91,2
1,61,91,0
1,54,86,2
1,63,100,0
1,66,91,2
1,59,82,2
1,54,52,6
1,59,91,6
1,61,100,0
1,63,109,0
1,66,100,2
1,47,100,84
1,54,73,0
1,42,91,12
1,54,82,0
1,61,100,0
1,66,91,0
1,59,73,2
1,63,66,8
1,35,82,6
1,40,96,4
1,52,81,2
1,59,91,2
1,64,100,0
1,68,91,0
1,59,91,48
1,64,90,26
1,68,76,2
1,59,82,30
1,68,98,0
1,64,100,0
1,52,58,40
1,59,73,0
1,68,82,14
1,52,107,2
1,68,60,14
1,59,104,2
1,68,92,2
1,64,109,0
1,52,67,4
1,71,98,8
1,71,91,28
1,75,91,2
1,35,97,0
1,66,82,0
1,47,81,0
1,59,82,10
1,71,71,4
1,66,64,24
1,63,64,0
1,71,56,0
1,47,104,66
1,71,100,8
1,75,91,0
1,59,82,2
1,66,91,2
1,47,56,28
1,68,91,0
1,59,73,2
1,71,100,36
1,75,91,0
1,47,100,0
1,78,91,2
1,69,110,0
1,78,91,34
1,71,100,2
1,68,110,0
1,75,91,0
1,63,91,34
1,59,91,2
1,71,100,2
1,66,111,2
1,47,73,34
1,59,64,2
1,64,110,2
1,33,91,8
1,45,82,2
1,64,99,0
1,59,71,0
1,61,91,2
1,57,73,6
1,59,81,26
1,61,73,0
1,64,82,0
1,57,60,2
1,64,82,184
1,59,77,2
1,61,91,0
1,45,52,0
1,57,73,6
1,59,91,10
1,45,88,6
1,57,91,26
1,61,82,86
1,64,93,38
1,37,92,10
1,49,91,0
1,61,82,0
1,64,91,0
1,68,82,2
1,56,70,2
1,64,106,32
1,68,91,2
1,49,73,0
1,73,101,0
1,61,79,68
1,49,100,2
1,64,52,78
1,37,82,2
1,35,91,14
1,47,91,2
1,54,86,2
1,66,109,0
1,71,82,2
1,63,70,34
1,59,71,6
1,54,52,8
1,63,109,2
1,71,91,0
1,73,100,0
1,66,100,2
1,47,100,2
1,54,73,0
1,59,91,84
1,73,82,8
1,42,91,0
1,54,82,0
1,61,100,0
1,66,91,0
1,63,66,8
1,75,82,2
1,35,82,4
1,40,96,4
1,52,81,2
1,59,91,2
1,64,100,0
1,68,91,0
1,59,91,48
1,64,90,26
1,68,76,2
1,71,64,2
1,76,91,30
1,71,82,0
1,68,98,0
1,64,100,0
1,52,58,40
1,59,73,0
1,68,82,14
1,52,107,2
1,68,60,14
1,59,104,2
1,76,92,2
1,64,109,0
1,52,67,4
1,71,87,8
1,71,91,28
1,75,91,2
1,42,97,0
1,66,82,0
1,54,81,0
1,59,72,10
1,54,84,26
1,66,74,0
1,75,90,0
1,71,79,0
1,59,76,2
1,42,76,0
1,54,73,16
1,42,97,20
1,54,73,0
1,63,82,2
1,71,91,0
1,66,91,0
1,59,82,0
1,54,82,22
1,63,91,30
1,66,91,0
1,71,82,0
1,42,73,54
1,44,82,12
1,33,91,10
1,45,82,4
1,64,91,2
1,71,73,0
1,73,92,0
1,69,83,2
1,57,66,0
1,59,82,24
1,64,91,2
1,61,73,0
1,57,90,12
1,45,85,22
1,59,82,4
1,64,82,0
1,33,85,2
1,61,90,0
1,57,73,0
1,64,82,4
1,69,91,0
1,73,82,4
1,45,73,4
1,33,84,6
1,59,91,148
1,71,82,0
1,64,91,0
1,69,91,22
1,63,91,20
1,35,97,0
1,47,81,2
1,71,91,2
1,66,91,0
1,35,87,0
1,59,82,0
1,66,100,24
1,75,100,2
1,71,91,6
1,47,56,22
1,59,91,2
1,35,73,12
1,64,100,6
1,69,89,2
1,61,91,0
1,33,90,0
1,45,88,2
1,33,75,10
1,57,91,6
1,45,90,92
1,59,100,12
1,47,100,2
1,35,89,0
1,64,91,0
1,66,100,2
1,59,96,24
1,47,79,4
1,61,82,14
1,49,82,2
1,64,83,0
1,68,80,0
1,37,60,2
1,61,78,54
1,49,60,44
1,61,73,162
1,64,73,0
1,66,73,2
1,68,90,2
1,69,100,20
1,37,72,2
1,64,91,0
1,61,64,0
1,49,73,0
1,61,73,20
1,68,93,4
1,61,64,30
1,66,94,2
1,61,60,20
1,64,95,2
1,59,82,10
1,61,91,0
1,64,85,0
1,33,73,0
1,45,73,2
1,57,58,2
1,59,82,16
1,61,82,0
1,64,73,0
1,57,60,10
1,61,91,6
1,64,91,0
1,59,82,2
1,57,64,4
1,35,73,6
1,61,100,0
1,64,91,0
1,59,64,86
1,47,82,10
1,57,64,80
1,37,82,8
1,61,91,2
1,49,81,0
1,64,86,0
1,63,75,0
1,56,52,104
1,64,78,162
1,63,66,0
1,61,91,2
1,56,49,0
1,64,90,186
1,61,91,0
1,63,74,6
1,56,55,2
1,49,82,32
1,56,82,34
1,61,91,92
1,64,82,2
1,63,82,0
1,49,67,88
1,56,67,0
1,61,66,48
1,64,74,0
1,37,67,10
1,63,80,0
1,35,82,2
1,61,81,0
1,47,81,0
1,59,91,0
1,54,64,98
1,59,91,152
1,63,82,0
1,61,74,4
1,54,49,176
1,61,66,182
1,59,82,0
1,63,87,2
1,54,56,0
1,47,82,52
1,54,82,24
1,59,91,92
1,63,82,2
1,61,82,0
1,47,73,88
1,35,67,38
1,54,83,0
1,59,64,10
1,33,82,2
1,61,64,0
1,45,81,0
1,64,82,12
1,57,52,112
1,61,72,154
1,64,87,0
1,59,91,2
1,57,58,0
1,59,91,192
1,64,82,0
1,61,74,0
1,57,55,0
1,45,88,56
1,59,100,98
1,61,84,0
1,64,82,4
1,59,82,2
1,45,71,6
1,57,64,4
1,33,67,8
1,32,82,2
1,59,90,2
1,63,82,0
1,44,81,0
1,54,78,0
1,54,64,20
1,63,82,180
1,59,90,4
1,54,56,176
1,59,95,182
1,63,89,2
1,54,68,0
1,44,87,72
1,63,56,0
1,59,60,0
1,54,72,22
1,63,96,22
1,59,97,0
1,54,91,0
1,47,97,2
1,54,72,26
1,37,82,0
1,49,81,2
1,61,81,0
1,64,82,0
1,63,68,0
1,56,64,6
1,56,52,12
1,63,72,162
1,64,87,0
1,61,86,2
1,56,58,0
1,64,85,186
1,61,81,0
1,63,59,6
1,56,55,2
1,49,82,32
1,56,82,34
1,61,91,92
1,64,82,2
1,63,82,0
1,49,67,88
1,56,67,0
1,61,66,48
1,64,74,0
1,37,67,10
1,59,82,2
1,35,82,0
1,47,81,0
1,61,77,0
1,63,82,0
1,54,64,102
1,59,81,180
1,63,82,0
1,61,74,4
1,54,56,176
1,47,58,40
1,61,76,2
1,59,77,0
1,63,82,2
1,54,66,0
1,47,88,30
1,59,93,22
1,63,96,0
1,61,96,0
1,54,75,24
1,40,73,2
1,47,73,4
1,61,68,10
1,59,82,0
1,64,82,2
1,33,82,0
1,45,81,2
1,57,52,100
1,61,72,140
1,64,87,0
1,59,91,2
1,57,49,0
1,59,100,192
1,64,91,0
1,61,60,40
1,52,64,4
1,64,91,18
1,59,100,0
1,52,64,0
1,64,91,20
1,47,82,2
1,59,91,0
1,45,82,12
1,32,82,12
1,59,90,2
1,63,82,0
1,44,81,0
1,54,78,0
1,54,64,20
1,63,89,180
1,59,90,4
1,44,77,32
1,54,56,0
1,57,52,6
1,33,82,0
1,45,81,2
1,61,91,0
1,64,82,2
1,52,74,0
1,45,85,44
1,35,85,20
1,47,81,2
1,54,92,0
1,59,99,14
1,54,64,2
1,63,95,0
1,47,94,28
1,54,70,24
1,59,55,2
1,63,74,0
1,37,82,6
1,61,91,0
1,64,82,0
1,49,81,0
1,63,75,0
1,56,79,0
1,56,52,20
1,63,62,162
1,64,87,0
1,61,87,2
1,56,58,0
1,64,86,186
1,61,87,0
1,63,63,6
1,56,55,2
1,61,86,192
1,64,89,0
1,63,74,0
1,56,67,22
1,49,67,0
1,39,88,8
1,51,81,2
1,59,91,0
1,63,82,0
1,66,93,0
1,61,56,0
1,54,64,6
1,66,91,26
1,63,91,0
1,59,91,0
1,61,67,2
1,54,73,4
1,61,60,22
1,63,91,0
1,59,82,0
1,66,91,2
1,54,64,194
1,61,64,54
1,66,82,0
1,63,82,0
1,51,100,0
1,59,73,2
1,54,89,32
1,73,64,82
1,71,91,2
1,78,99,0
1,75,87,2
1,59,77,50
1,51,93,4
1,45,81,18
1,40,87,8
1,52,83,0
1,69,91,0
1,73,91,0
1,76,73,0
1,64,66,116
1,73,100,172
1,76,83,2
1,69,84,0
1,64,73,8
1,52,67,30
1,59,102,24
1,64,96,2
1,40,91,4
1,61,75,92
1,57,70,14
1,52,95,40
1,76,109,0
1,69,91,0
1,73,100,4
1,64,91,34
1,40,81,2
1,52,81,32
1,69,100,2
1,64,91,0
1,69,82,22
