track,note,velocity,time
1,38,127,780
1,26,85,0
1,38,127,8
1,26,95,960
1,38,127,85
1,26,85,0
1,38,127,8
1,26,95,960
1,38,127,85
1,26,85,0
1,38,127,8
1,26,95,960
1,38,61,85
1,48,14,960
1,43,47,953
1,38,59,18
1,41,123,131
1,36,118,12
1,43,118,80
1,38,113,2
1,38,127,229
1,26,85,0
1,38,127,8
1,26,95,960
1,38,118,94
1,38,85,46
1,38,101,2
1,36,82,3
1,36,90,58
1,35,79,56
1,31,123,3
1,43,118,4
1,31,106,117
1,38,123,0
1,38,106,49
1,33,101,0
1,38,106,1
1,29,118,238
1,41,123,4
1,40,95,229
1,38,85,0
1,114,1,60
1,36,123,2
1,36,123,72
1,31,123,118
1,31,123,38
1,43,123,843
1,38,123,16
1,38,113,22
1,38,123,20
1,31,127,187
1,43,127,237
1,38,118,51
1,43,118,7
1,38,123,58
1,31,127,39
1,43,127,1
1,38,127,21
1,38,123,30
1,33,95,191
1,38,118,47
1,38,127,47
1,31,127,50
1,43,127,3
1,38,101,180
1,43,113,4
1,43,127,76
1,38,127,237
1,43,106,8
1,38,123,10
1,38,123,49
1,33,127,175
1,38,123,1
1,36,113,0
1,38,118,14
1,38,127,35
1,36,127,7
1,38,127,62
1,31,127,20
1,43,127,0
1,38,82,177
1,43,123,17
1,43,127,80
1,31,127,17
1,38,127,128
1,38,127,46
1,33,123,185
1,38,123,2
1,38,127,76
1,33,127,15
1,36,127,71
1,36,123,32
1,31,118,186
1,36,123,16
1,36,127,64
1,38,127,4
1,36,101,68
1,31,127,3
1,43,127,236
1,38,101,167
1,43,101,1
1,38,113,61
1,31,123,7
1,43,127,122
1,31,127,7
1,38,127,42
1,26,95,960
1,38,118,94
1,38,85,46
1,38,101,2
1,36,82,3
1,36,90,58
1,35,79,56
1,31,123,3
1,43,118,4
1,31,106,117
1,38,123,0
1,38,106,49
1,33,101,0
1,38,106,1
1,29,118,238
1,41,123,4
1,40,95,229
1,38,85,0
1,114,1,60
1,36,123,2
1,36,123,72
1,31,123,118
1,31,123,38
1,43,123,843
1,38,123,16
1,38,113,22
1,38,123,20
1,31,127,187
1,43,127,237
1,38,118,51
1,43,118,7
1,38,123,58
1,31,127,39
1,43,127,1
1,38,127,21
1,38,123,30
1,33,95,191
1,38,118,47
1,38,127,47
1,31,127,50
1,43,127,3
1,38,101,180
1,43,113,4
1,43,127,76
1,38,127,237
1,43,106,8
1,38,123,10
1,38,123,49
1,33,127,175
1,38,123,1
1,36,113,0
1,38,118,14
1,38,127,35
1,36,127,7
1,38,127,62
1,31,127,20
1,43,127,0
1,38,82,177
1,43,123,17
1,43,127,80
1,31,127,17
1,38,127,128
1,38,127,46
1,33,123,185
1,38,123,2
1,38,127,76
1,33,127,15
1,36,127,71
1,36,123,32
1,31,118,186
1,36,123,16
1,36,127,64
1,38,127,4
1,36,101,68
1,31,127,3
1,43,127,236
1,38,101,167
1,43,101,1
1,38,113,61
1,31,123,7
1,43,127,122
1,31,127,7
1,38,127,42
1,26,85,0
1,38,127,8
1,26,95,960
1,31,127,85
1,43,127,237
1,38,118,51
1,43,118,7
1,38,123,58
1,31,127,39
1,43,127,1
1,38,127,21
1,38,123,30
1,33,95,191
1,38,118,47
1,38,127,47
1,31,127,50
1,43,127,3
1,38,101,180
1,43,113,4
1,43,127,76
1,38,127,237
1,43,106,8
1,38,123,10
1,38,123,49
1,33,127,175
1,38,123,1
1,36,113,0
1,38,118,14
1,38,127,35
1,36,127,7
1,38,127,62
1,31,127,20
1,43,127,0
1,38,82,177
1,43,123,17
1,43,127,80
1,31,127,17
1,38,127,128
1,38,127,46
1,33,123,185
1,38,123,2
1,38,127,76
1,33,127,15
1,29,127,68
1,41,127,6
1,36,95,185
1,41,127,4
1,36,127,66
1,29,127,18
1,41,127,0
1,29,127,114
1,31,127,69
1,43,127,2
1,38,123,172
1,31,127,5
1,38,127,407
1,26,85,0
1,38,127,8
1,26,95,960
1,38,118,94
1,38,85,46
1,38,101,2
1,36,82,3
1,36,90,58
1,35,79,56
1,31,123,3
1,43,118,4
1,31,106,117
1,38,123,0
1,38,106,49
1,33,101,0
1,38,106,1
1,29,118,238
1,41,123,4
1,40,95,229
1,38,85,0
1,114,1,60
1,36,123,2
1,36,123,72
1,31,123,118
1,31,123,38
1,43,123,843
1,38,123,16
1,38,113,22
1,38,123,20
1,31,127,194
1,38,118,12
1,31,127,476
1,43,127,237
1,38,118,51
1,43,118,7
1,38,123,58
1,31,127,39
1,43,127,1
1,38,127,21
1,38,123,30
1,33,95,191
1,38,118,47
1,38,127,47
1,31,127,50
1,43,127,3
1,38,101,180
1,43,113,4
1,43,127,76
1,38,127,237
1,43,106,8
1,38,123,10
1,38,123,49
1,33,127,175
1,38,123,1
1,36,113,0
1,38,118,14
1,38,127,35
1,36,127,7
1,38,127,62
1,31,127,20
1,43,127,0
1,38,82,177
1,43,123,17
1,43,127,80
1,31,127,17
1,38,127,128
1,38,127,46
1,33,123,185
1,38,123,2
1,38,127,76
1,33,127,15
1,36,127,71
1,36,123,32
1,31,118,186
1,36,123,16
1,36,127,64
1,38,127,4
1,36,101,68
1,31,127,3
1,43,127,236
1,38,101,167
1,43,101,1
1,38,113,61
1,31,123,7
1,43,127,122
1,31,127,7
1,38,127,42
1,38,127,28
1,33,113,180
1,38,127,6
1,38,127,73
1,33,127,180
1,38,127,14
1,36,127,31
1,36,127,40
1,31,123,180
1,36,123,13
1,38,113,60
1,36,127,59
1,36,127,36
1,31,123,17
1,43,127,9
1,38,118,180
1,43,127,53
1,43,127,80
1,43,127,26
1,38,127,9
1,38,127,42
1,33,106,180
1,38,127,9
1,38,127,66
1,40,106,60
1,38,127,0
1,33,127,10
1,38,127,55
1,38,127,42
1,33,118,180
1,38,127,8
1,38,127,68
1,40,127,12
1,38,127,60
1,36,127,36
1,36,127,51
1,31,118,180
1,36,118,14
1,36,127,70
1,38,127,16
1,31,127,35
1,43,127,10
1,41,106,180
1,43,118,54
1,41,118,54
1,38,127,9
1,31,127,5
1,43,127,120
1,26,127,48
1,38,95,1680
1,36,101,56
1,38,101,52
1,36,101,51
1,26,127,41
2,50,98,684
2,57,94,0
2,62,101,0
2,38,94,0
2,57,36,23
2,50,59,12
2,62,55,30
2,38,59,33
2,50,40,360
2,50,36,157
2,38,50,0
2,57,59,0
2,45,60,0
2,62,59,0
2,38,32,242
2,50,43,240
2,57,68,240
2,38,76,54
2,50,98,42
2,57,94,0
2,62,101,0
2,38,94,0
2,57,36,23
2,50,59,12
2,62,55,30
2,38,59,33
2,50,40,360
2,50,36,157
2,38,50,0
2,57,59,0
2,45,60,0
2,62,59,0
2,38,32,242
2,50,43,240
2,57,68,240
2,38,76,54
2,50,98,42
2,57,94,0
2,62,101,0
2,38,94,0
2,57,36,23
2,50,59,12
2,62,55,30
2,38,59,33
2,50,40,360
2,50,36,157
2,38,50,0
2,57,59,0
2,45,60,0
2,62,59,0
2,38,32,242
2,50,43,240
2,57,68,240
2,38,76,54
2,65,98,3894
2,41,94,0
2,57,90,0
2,60,72,0
2,62,72,5
2,36,94,246
2,60,84,1
2,64,84,0
2,55,72,0
2,50,98,1957
2,57,94,0
2,62,101,0
2,38,94,0
2,57,36,23
2,50,59,12
2,62,55,30
2,38,59,33
2,50,40,360
2,50,36,157
2,38,50,0
2,57,59,0
2,45,60,0
2,62,59,0
2,38,32,242
2,50,43,240
2,57,68,240
2,38,76,54
2,69,84,45
2,65,76,1
2,62,72,3
2,50,80,5
2,57,84,110
2,62,84,18
2,57,65,0
2,65,72,11
2,69,90,3
2,50,94,65
2,57,94,44
2,65,101,54
2,62,98,15
2,69,76,55
2,64,94,4
2,67,80,1
2,60,80,2
2,48,84,2
2,55,76,7
2,72,90,62
2,55,65,6
2,79,94,137
2,76,76,58
2,72,90,3
2,55,80,32
2,60,84,13
2,64,76,6
2,55,80,3
2,53,80,3
2,59,84,37
2,62,94,54
2,67,84,35
2,71,101,6
2,62,98,238
2,74,94,4
2,71,76,60
2,67,80,46
2,69,76,129
2,65,72,2
2,62,63,1
2,50,84,2
2,57,84,4
2,62,80,13
2,65,84,44
2,57,80,45
2,69,94,55
2,65,101,5
2,57,98,118
2,69,98,2
2,53,84,0
2,72,98,0
2,65,76,2
2,60,84,18
2,65,76,10
2,69,76,1
2,72,94,64
2,60,94,21
2,77,101,16
2,60,90,14
2,72,94,26
2,60,84,80
2,60,98,86
2,64,80,57
2,67,90,59
2,72,98,20
2,76,94,0
2,67,94,61
2,79,90,1
2,76,90,56
2,67,90,7
2,72,68,6
2,76,80,29
2,79,80,108
2,62,101,104
2,59,98,1
2,55,94,0
2,43,90,2
2,59,101,57
2,62,101,1
2,55,98,0
2,50,94,209
2,55,84,19
2,62,101,25
2,57,101,1
2,50,72,77
2,62,101,21
2,59,101,1
2,55,90,19
2,38,98,73
2,62,80,28
2,69,94,57
2,62,94,1
2,65,94,1
2,50,98,12
2,62,80,52
2,57,94,31
2,65,101,9
2,62,98,1
2,69,101,0
2,57,94,77
2,62,90,20
2,69,101,20
2,65,101,0
2,62,101,2
2,62,98,198
2,55,94,1
2,59,94,1
2,43,84,2
2,67,94,106
2,71,101,0
2,74,101,1
2,55,90,200
2,62,80,6
2,50,94,75
2,57,101,36
2,62,101,12
2,50,98,6
2,57,98,3
2,62,94,20
2,69,98,0
2,66,84,1
2,62,80,18
2,57,98,17
2,62,98,57
2,69,101,20
2,62,101,1
2,66,101,0
2,57,90,19
2,69,98,30
2,64,98,1
2,62,98,4
2,62,98,14
2,59,94,0
2,55,80,1
2,43,101,3
2,57,101,61
2,62,101,2
2,50,47,93
2,55,101,11
2,50,72,17
2,62,101,82
2,53,98,2
2,59,101,1
2,50,94,5
2,57,84,2
2,62,101,2
2,62,98,93
2,66,98,2
2,57,84,4
2,62,80,59
2,66,63,1
2,66,101,17
2,62,98,2
2,69,101,32
2,66,101,0
2,62,101,0
2,62,10,5
2,55,94,101
2,43,90,0
2,59,98,1
2,62,101,0
2,55,94,10
2,62,101,1
2,59,101,0
2,50,80,12
2,55,101,12
2,62,101,23
2,57,101,1
2,50,98,109
2,57,90,3
2,66,101,245
2,62,101,1
2,69,98,3
2,57,94,100
2,62,94,41
2,69,59,10
2,69,101,1
2,64,101,1
2,64,101,39
2,60,94,0
2,67,98,1
2,48,84,3
2,55,98,206
2,67,101,171
2,64,101,0
2,60,94,1
2,62,101,44
2,67,101,0
2,59,101,133
2,55,90,0
2,62,101,1
2,43,94,2
2,50,94,8
2,67,94,194
2,71,101,1
2,74,101,0
2,69,101,36
2,74,101,1
2,50,101,164
2,50,36,76
2,38,50,0
2,57,59,0
2,45,60,0
2,62,59,0
2,38,32,242
2,50,43,240
2,57,68,240
2,38,76,54
2,69,84,45
2,65,76,1
2,62,72,3
2,50,80,5
2,57,84,110
2,62,84,18
2,57,65,0
2,65,72,11
2,69,90,3
2,50,94,65
2,57,94,44
2,65,101,54
2,62,98,15
2,69,76,55
2,64,94,4
2,67,80,1
2,60,80,2
2,48,84,2
2,55,76,7
2,72,90,62
2,55,65,6
2,79,94,137
2,76,76,58
2,72,90,3
2,55,80,32
2,60,84,13
2,64,76,6
2,55,80,3
2,53,80,3
2,59,84,37
2,62,94,54
2,67,84,35
2,71,101,6
2,62,98,238
2,74,94,4
2,71,76,60
2,67,80,46
2,69,76,129
2,65,72,2
2,62,63,1
2,50,84,2
2,57,84,4
2,62,80,13
2,65,84,44
2,57,80,45
2,69,94,55
2,65,101,5
2,57,98,118
2,69,98,2
2,53,84,0
2,72,98,0
2,65,76,2
2,60,84,18
2,65,76,10
2,69,76,1
2,72,94,64
2,60,94,21
2,77,101,16
2,60,90,14
2,72,94,26
2,60,84,80
2,60,98,86
2,64,80,57
2,67,90,59
2,72,98,20
2,76,94,0
2,67,94,61
2,79,90,1
2,76,90,56
2,67,90,7
2,72,68,6
2,76,80,29
2,79,80,108
2,62,101,104
2,59,98,1
2,55,94,0
2,43,90,2
2,59,101,57
2,62,101,1
2,55,98,0
2,50,94,209
2,55,84,19
2,62,101,25
2,57,101,1
2,50,72,77
2,62,101,21
2,59,101,1
2,55,90,19
2,38,98,73
2,62,80,28
2,69,94,57
2,62,94,1
2,65,94,1
2,50,98,12
2,62,80,52
2,57,94,31
2,65,101,9
2,62,98,1
2,69,101,0
2,57,94,77
2,62,90,20
2,69,101,20
2,65,101,0
2,62,101,2
2,62,98,198
2,55,94,1
2,59,94,1
2,43,84,2
2,67,94,106
2,71,101,0
2,74,101,1
2,55,90,200
2,62,80,6
2,50,94,75
2,57,101,36
2,62,101,12
2,50,98,6
2,57,98,3
2,62,94,20
2,69,98,0
2,66,84,1
2,62,80,18
2,57,98,17
2,62,98,57
2,69,101,20
2,62,101,1
2,66,101,0
2,57,90,19
2,69,98,30
2,64,98,1
2,62,98,4
2,62,98,14
2,59,94,0
2,55,80,1
2,43,101,3
2,57,101,61
2,62,101,2
2,50,47,93
2,55,101,11
2,50,72,17
2,62,101,82
2,53,98,2
2,59,101,1
2,50,94,5
2,57,84,2
2,62,101,2
2,62,98,93
2,66,98,2
2,57,84,4
2,62,80,59
2,66,63,1
2,66,101,17
2,62,98,2
2,69,101,32
2,66,101,0
2,62,101,0
2,62,10,5
2,55,94,101
2,43,90,0
2,59,98,1
2,62,101,0
2,55,94,10
2,62,101,1
2,59,101,0
2,50,80,12
2,55,101,12
2,62,101,23
2,57,101,1
2,50,98,109
2,57,90,3
2,66,101,245
2,62,101,1
2,69,98,3
2,57,94,100
2,62,94,41
2,69,59,10
2,69,101,1
2,64,101,1
2,64,101,39
2,60,94,0
2,67,98,1
2,48,84,3
2,55,98,206
2,67,101,171
2,64,101,0
2,60,94,1
2,62,101,44
2,67,101,0
2,59,101,133
2,55,90,0
2,62,101,1
2,43,94,2
2,50,94,8
2,67,94,194
2,71,101,1
2,74,101,0
2,69,101,36
2,74,101,1
2,50,101,164
2,50,98,76
2,57,94,0
2,62,101,0
2,38,94,0
2,57,36,23
2,50,59,12
2,62,55,30
2,38,59,33
2,50,40,360
2,50,36,157
2,38,50,0
2,57,59,0
2,45,60,0
2,62,59,0
2,38,32,242
2,50,43,240
2,57,68,240
2,38,76,54
2,62,98,47
2,55,94,1
2,59,94,1
2,43,84,2
2,67,94,106
2,71,101,0
2,74,101,1
2,55,90,200
2,62,80,6
2,50,94,75
2,57,101,36
2,62,101,12
2,50,98,6
2,57,98,3
2,62,94,20
2,69,98,0
2,66,84,1
2,62,80,18
2,57,98,17
2,62,98,57
2,69,101,20
2,62,101,1
2,66,101,0
2,57,90,19
2,69,98,30
2,64,98,1
2,62,98,4
2,62,98,14
2,59,94,0
2,55,80,1
2,43,101,3
2,57,101,61
2,62,101,2
2,50,47,93
2,55,101,11
2,50,72,17
2,62,101,82
2,53,98,2
2,59,101,1
2,50,94,5
2,57,84,2
2,62,101,2
2,62,98,93
2,66,98,2
2,57,84,4
2,62,80,59
2,66,63,1
2,66,101,17
2,62,98,2
2,69,101,32
2,66,101,0
2,62,101,0
2,62,10,5
2,55,94,101
2,43,90,0
2,59,98,1
2,62,101,0
2,55,94,10
2,62,101,1
2,59,101,0
2,50,80,12
2,55,101,12
2,62,101,23
2,57,101,1
2,50,98,109
2,57,90,3
2,66,101,245
2,62,101,1
2,69,98,3
2,57,94,100
2,62,94,41
2,69,59,10
2,69,101,1
2,64,101,1
2,64,101,18
2,60,94,0
2,67,98,1
2,57,94,4
2,53,80,0
2,60,98,0
2,41,94,1
2,67,101,233
2,72,101,0
2,72,98,29
2,69,101,5
2,72,101,45
2,69,101,0
2,65,101,2
2,53,94,4
2,67,101,34
2,72,80,3
2,43,101,1
2,59,101,120
2,62,101,1
2,55,101,0
2,57,101,54
2,62,101,1
2,55,98,2
2,59,101,12
2,62,101,0
2,53,101,2
2,43,101,1
2,50,98,430
2,57,94,0
2,62,101,0
2,38,94,0
2,57,36,23
2,50,59,12
