track,note,velocity,time
1,40,100,480
1,40,0,480
1,40,100,0
1,40,0,480
1,45,100,0
1,45,0,480
1,45,100,0
1,45,0,480
1,47,100,0
1,47,0,480
1,47,100,0
1,47,0,240
1,47,100,0
1,47,0,60
1,47,100,60
1,47,0,60
1,40,100,60
1,40,0,300
1,40,100,0
1,40,0,120
1,40,100,0
1,40,0,60
1,40,100,0
1,40,0,240
1,47,100,0
1,47,0,60
1,49,100,0
1,49,0,60
1,47,100,0
1,47,0,120
1,40,100,0
1,40,0,300
1,40,100,0
1,40,0,120
1,40,100,0
1,40,0,60
1,40,100,0
1,40,0,300
1,40,100,0
1,40,0,120
1,42,100,0
1,42,0,60
1,44,100,0
1,44,0,300
1,44,100,0
1,44,0,120
1,44,100,0
1,44,0,60
1,44,100,0
1,44,0,300
1,44,100,0
1,44,0,60
1,47,100,0
1,47,0,120
1,45,100,0
1,45,0,300
1,45,100,0
1,45,0,120
1,45,100,0
1,45,0,60
1,45,100,0
1,45,0,300
1,45,100,0
1,45,0,60
1,44,100,0
1,44,0,60
1,42,100,0
1,42,0,60
1,40,100,0
1,40,0,300
1,42,100,0
1,42,0,60
1,44,100,0
1,44,0,60
1,49,100,0
1,49,0,60
1,47,100,0
1,47,0,240
1,42,100,0
1,42,0,60
1,44,100,0
1,44,0,60
1,42,100,0
1,42,0,120
1,40,100,0
1,40,0,300
1,40,100,0
1,40,0,120
1,40,100,0
1,40,0,60
1,40,100,0
1,40,0,180
1,40,100,0
1,40,0,60
1,47,100,0
1,47,0,60
1,49,100,0
1,49,0,60
1,47,100,0
1,47,0,120
1,40,100,0
1,40,0,300
1,40,100,0
1,40,0,120
1,40,100,0
1,40,0,60
1,40,100,0
1,40,0,300
1,40,100,0
1,40,0,120
1,42,100,0
1,42,0,60
1,44,100,0
1,44,0,300
1,44,100,0
1,44,0,120
1,44,100,0
1,44,0,60
1,44,100,0
1,44,0,300
1,44,100,0
1,44,0,60
1,47,100,0
1,47,0,120
1,45,100,0
1,45,0,300
1,45,100,0
1,45,0,120
1,45,100,0
1,45,0,60
1,45,100,0
1,45,0,300
1,45,100,0
1,45,0,60
1,44,100,0
1,44,0,60
1,42,100,0
1,42,0,60
1,47,100,0
1,47,0,240
1,42,100,0
1,42,0,60
1,44,100,0
1,44,0,60
1,42,100,0
1,42,0,120
1,47,100,0
1,47,0,240
1,42,100,0
1,42,0,60
1,44,100,0
1,44,0,60
1,42,100,0
1,42,0,120
1,49,100,0
1,49,0,300
1,49,100,0
1,49,0,120
1,47,100,0
1,47,0,60
1,45,100,0
1,45,0,300
1,45,100,0
1,45,0,60
1,45,100,0
1,45,0,60
1,47,100,0
1,47,0,60
1,40,100,0
1,40,0,300
1,40,100,0
1,40,0,120
1,40,100,0
1,40,0,60
1,40,100,0
1,40,0,300
1,40,100,0
1,40,0,120
1,42,100,0
1,42,0,60
1,44,100,0
1,44,0,300
1,44,100,0
1,44,0,120
1,44,100,0
1,44,0,60
1,44,100,0
1,44,0,300
1,42,100,0
1,42,0,60
1,44,100,0
1,44,0,60
1,47,100,0
1,47,0,60
1,45,100,0
1,45,0,120
1,45,100,0
1,45,0,120
1,45,100,0
1,45,0,60
1,47,100,0
1,47,0,60
1,49,100,0
1,49,0,60
1,52,100,0
1,52,0,60
1,54,100,0
1,54,0,60
1,54,100,0
1,54,0,60
1,54,100,0
1,54,0,60
1,54,100,0
1,54,0,60
1,54,100,0
1,54,0,60
1,47,100,0
1,47,0,60
1,47,100,0
1,47,0,60
1,47,100,0
1,47,0,60
1,40,100,0
1,40,0,300
1,40,100,0
1,40,0,120
1,40,100,0
1,40,0,60
1,40,100,0
1,40,0,240
1,49,100,0
1,49,0,120
1,47,100,0
1,47,0,120
1,45,100,0
1,45,0,300
1,45,100,0
1,45,0,120
1,45,100,0
1,45,0,60
1,52,100,0
1,52,0,120
1,49,100,0
1,49,0,120
1,47,100,0
1,47,0,120
1,45,100,0
1,45,0,120
1,40,100,0
1,40,0,300
1,40,100,0
1,40,0,120
1,40,100,0
1,40,0,60
1,45,100,0
1,45,0,60
1,44,100,0
1,44,0,120
1,42,100,4
1,40,100,116
1,42,0,4
1,40,0,176
1,47,100,0
1,47,0,300
1,47,100,0
1,47,0,120
1,47,100,0
1,47,0,60
1,47,100,0
1,47,0,180
1,47,100,0
1,47,0,180
1,47,100,0
1,47,0,120
1,45,100,0
1,45,0,300
1,45,100,0
1,45,0,120
1,45,100,0
1,45,0,60
1,47,100,0
1,47,0,240
1,44,100,0
1,44,0,120
1,42,100,0
1,42,0,120
1,40,100,0
1,40,0,240
1,40,100,0
1,40,0,60
1,42,100,0
1,42,0,60
1,44,100,0
1,44,0,120
1,49,100,0
1,49,0,300
1,49,100,0
1,49,0,60
1,44,100,0
1,44,0,120
1,47,100,0
1,47,0,240
1,47,100,0
1,47,0,60
1,49,100,0
1,49,0,60
1,51,100,0
1,51,0,120
1,45,100,0
1,45,0,480
1,40,100,0
1,40,0,300
1,40,100,0
1,40,0,120
1,40,100,0
1,40,0,60
1,40,100,0
1,40,0,240
1,40,100,0
1,40,0,60
1,42,100,0
1,42,0,60
1,44,100,0
1,44,0,60
1,40,100,0
1,40,0,60
1,45,100,0
1,45,0,300
1,45,100,0
1,45,0,120
1,45,100,0
1,45,0,60
1,45,100,0
1,45,0,240
1,49,100,0
1,49,0,120
1,47,100,0
1,47,0,120
1,40,100,0
1,40,0,300
1,40,100,0
1,40,0,120
1,40,100,0
1,40,0,60
1,40,100,0
1,40,0,300
1,40,100,0
1,40,0,120
1,42,100,0
1,42,0,60
1,44,100,0
1,44,0,300
1,44,100,0
1,44,0,120
1,44,100,0
1,44,0,60
1,44,100,0
1,44,0,300
1,44,100,0
1,44,0,60
1,47,100,0
1,47,0,120
1,45,100,0
1,45,0,300
1,45,100,0
1,45,0,120
1,45,100,0
1,45,0,60
1,45,100,0
1,45,0,300
1,45,100,0
1,45,0,60
1,44,100,0
1,44,0,60
1,42,100,0
1,42,0,60
1,47,100,0
1,47,0,240
1,42,100,0
1,42,0,60
1,44,100,0
1,44,0,60
1,42,100,0
1,42,0,120
1,47,100,0
1,47,0,240
1,42,100,0
1,42,0,60
1,44,100,0
1,44,0,60
1,42,100,0
1,42,0,120
1,49,100,0
1,49,0,300
1,49,100,0
1,49,0,120
1,47,100,0
1,47,0,60
1,45,100,0
1,45,0,300
1,45,100,0
1,45,0,60
1,45,100,0
1,45,0,60
1,47,100,0
1,47,0,60
1,40,100,0
1,40,0,300
1,40,100,0
1,40,0,120
1,40,100,0
1,40,0,60
1,40,100,0
1,40,0,300
1,40,100,0
1,40,0,120
1,42,100,0
1,42,0,60
1,44,100,0
1,44,0,300
1,44,100,0
1,44,0,120
1,44,100,0
1,44,0,60
1,44,100,0
1,44,0,300
1,42,100,0
1,42,0,60
1,44,100,0
1,44,0,60
1,47,100,0
1,47,0,60
1,45,100,0
1,45,0,120
1,45,100,0
1,45,0,120
1,45,100,0
1,45,0,60
1,47,100,0
1,47,0,60
1,49,100,0
1,49,0,60
1,52,100,0
1,52,0,60
1,54,100,0
1,54,0,60
1,54,100,0
1,54,0,60
1,54,100,0
1,54,0,60
1,54,100,0
1,54,0,60
1,54,100,0
1,54,0,60
1,47,100,0
1,47,0,60
1,47,100,0
1,47,0,60
1,47,100,0
1,47,0,60
1,40,100,0
1,40,0,300
1,40,100,0
1,40,0,120
1,40,100,0
1,40,0,60
1,40,100,0
1,40,0,240
1,49,100,0
1,49,0,120
1,47,100,0
1,47,0,120
1,45,100,0
1,45,0,300
1,45,100,0
1,45,0,120
1,45,100,0
1,45,0,60
1,52,100,0
1,52,0,120
1,49,100,0
1,49,0,120
1,47,100,0
1,47,0,120
1,45,100,0
1,45,0,120
1,40,100,0
1,40,0,300
1,40,100,0
1,40,0,120
1,40,100,0
1,40,0,60
1,45,100,0
1,45,0,60
1,44,100,0
1,44,0,120
1,42,100,4
1,40,100,116
1,42,0,4
1,40,0,176
1,47,100,0
1,47,0,300
1,47,100,0
1,47,0,120
1,47,100,0
1,47,0,60
1,47,100,0
1,47,0,180
1,47,100,0
1,47,0,180
1,47,100,0
1,47,0,120
1,45,100,0
1,45,0,300
1,45,100,0
1,45,0,120
1,45,100,0
1,45,0,60
1,47,100,0
1,47,0,240
1,44,100,0
1,44,0,120
1,42,100,0
1,42,0,120
1,40,100,0
1,40,0,240
1,40,100,0
1,40,0,60
1,42,100,0
1,42,0,60
1,44,100,0
1,44,0,120
1,49,100,0
1,49,0,300
1,49,100,0
1,49,0,60
1,44,100,0
1,44,0,120
1,47,100,0
1,47,0,240
1,47,100,0
1,47,0,60
1,49,100,0
1,49,0,60
1,51,100,0
1,51,0,120
1,45,100,0
1,45,0,480
1,40,100,0
1,40,0,300
1,40,100,0
1,40,0,120
1,40,100,0
1,40,0,60
1,40,100,0
1,40,0,180
1,40,100,0
1,40,0,60
1,42,100,0
1,42,0,120
1,44,100,0
1,44,0,120
1,45,100,0
1,45,0,300
1,45,100,0
1,45,0,120
1,45,100,0
1,45,0,60
1,45,100,0
1,45,0,180
1,47,100,0
1,47,0,60
1,49,100,0
1,49,0,60
1,52,100,0
1,52,0,60
1,54,100,0
1,54,0,120
1,52,100,0
1,52,0,300
1,52,100,0
1,52,0,120
1,52,100,0
1,52,0,60
1,52,100,0
1,52,0,240
1,47,100,0
1,47,0,60
1,49,100,0
1,49,0,60
1,47,100,0
1,47,0,120
1,45,100,0
1,45,0,300
1,45,100,0
1,45,0,120
1,45,100,0
1,45,0,60
1,45,100,0
1,45,0,180
1,45,100,0
1,45,0,60
1,47,100,0
1,47,0,120
1,47,100,0
1,47,0,120
1,52,100,0
1,52,0,480
1,40,100,0
1,40,0,480
1,45,100,0
1,45,0,480
1,45,100,0
1,45,0,180
1,47,100,0
1,47,0,60
1,49,100,0
1,49,0,60
1,52,100,0
1,52,0,60
1,54,100,0
1,54,0,120
1,52,100,0
1,52,0,480
1,40,100,0
1,40,0,480
1,45,100,0
1,45,0,480
1,45,100,0
1,45,0,180
1,47,100,0
1,47,0,60
1,49,100,0
1,49,0,60
1,52,100,0
1,52,0,60
1,54,100,0
1,54,0,120
1,52,100,0
1,52,0,840
1,52,100,0
1,52,0,120
1,45,100,0
1,45,0,420
1,40,100,0
1,40,0,60
1,45,100,0
1,45,0,240
1,45,100,0
1,45,0,60
1,40,100,0
1,40,0,60
1,40,100,0
1,40,0,120
1,40,100,0
1,40,0,120
1,40,100,0
1,40,0,120
1,40,100,0
1,40,0,120
1,40,100,0
1,40,0,120
1,40,100,0
1,40,0,120
1,40,100,0
1,40,0,120
1,40,100,0
1,40,0,120
1,40,100,0
1,40,0,120
1,45,100,0
1,45,0,480
1,45,100,0
1,45,0,120
1,45,100,0
1,45,0,120
1,45,100,0
1,45,0,120
1,45,100,0
1,45,0,120
1,40,100,0
1,40,0,300
1,40,100,0
1,40,0,120
1,40,100,0
1,40,0,60
1,40,100,0
1,40,0,240
1,49,100,0
1,49,0,120
1,47,100,0
1,47,0,120
1,45,100,0
1,45,0,300
1,45,100,0
1,45,0,120
1,45,100,0
1,45,0,60
1,52,100,0
1,52,0,120
1,49,100,0
1,49,0,120
1,47,100,0
1,47,0,120
1,45,100,0
1,45,0,120
1,40,100,0
1,40,0,300
1,40,100,0
1,40,0,120
1,40,100,0
1,40,0,60
1,45,100,0
1,45,0,60
1,44,100,0
1,44,0,120
1,42,100,4
1,40,100,116
1,42,0,4
1,40,0,176
1,47,100,0
1,47,0,300
1,47,100,0
1,47,0,120
1,47,100,0
1,47,0,60
1,47,100,0
1,47,0,180
1,47,100,0
1,47,0,180
1,47,100,0
1,47,0,120
1,45,100,0
1,45,0,300
1,45,100,0
1,45,0,120
1,45,100,0
1,45,0,60
1,47,100,0
1,47,0,240
1,44,100,0
1,44,0,120
1,42,100,0
1,42,0,120
1,40,100,0
1,40,0,240
1,40,100,0
1,40,0,60
1,42,100,0
1,42,0,60
1,44,100,0
1,44,0,120
1,49,100,0
1,49,0,300
1,49,100,0
1,49,0,60
1,44,100,0
1,44,0,120
1,47,100,0
1,47,0,240
1,47,100,0
1,47,0,60
1,49,100,0
1,49,0,60
1,51,100,0
1,51,0,120
1,45,100,0
1,45,0,480
1,40,100,0
1,40,0,300
1,40,100,0
1,40,0,120
1,40,100,0
1,40,0,60
1,40,100,0
1,40,0,240
1,44,100,0
1,44,0,120
1,45,100,0
1,45,0,120
1,47,100,0
1,47,0,240
1,47,100,0
1,47,0,120
1,42,100,0
1,42,0,60
1,44,100,0
1,44,0,60
1,45,100,0
1,45,0,240
1,45,100,0
1,45,0,60
1,44,100,0
1,44,0,60
1,42,100,0
1,42,0,120
1,40,100,0
1,40,0,300
1,40,100,0
1,40,0,120
1,40,100,0
1,40,0,60
1,40,100,0
1,40,0,180
1,40,100,0
1,40,0,60
1,42,100,0
1,42,0,120
1,44,100,0
1,44,0,120
1,45,100,0
1,45,0,300
1,45,100,0
1,45,0,120
1,40,100,0
1,40,0,60
1,45,100,0
1,45,0,180
1,47,100,0
1,47,0,60
1,49,100,0
1,49,0,60
1,51,100,0
1,51,0,60
1,49,100,0
1,49,0,120
1,40,100,0
1,40,0,300
1,40,100,0
1,40,0,120
1,40,100,0
1,40,0,60
1,40,100,0
1,40,0,180
1,40,100,0
1,40,0,60
1,42,100,0
1,42,0,120
1,44,100,0
1,44,0,120
1,45,100,0
1,45,0,300
1,45,100,0
1,45,0,120
1,40,100,0
1,40,0,60
1,45,100,0
1,45,0,180
1,47,100,0
1,47,0,60
1,49,100,0
1,49,0,60
1,51,100,0
1,51,0,60
1,49,100,0
1,49,0,120
1,40,100,0
1,40,0,300
1,40,100,0
1,40,0,120
1,40,100,0
1,40,0,60
1,40,100,0
1,40,0,180
1,40,100,0
1,40,0,60
1,42,100,0
1,42,0,120
1,44,100,0
1,44,0,120
1,45,100,0
1,45,0,300
1,45,100,0
1,45,0,120
1,40,100,0
1,40,0,60
1,45,100,0
1,45,0,180
1,47,100,0
1,47,0,60
1,49,100,0
1,49,0,60
1,51,100,0
1,51,0,60
1,49,100,0
1,49,0,120
1,40,100,0
1,40,0,300
1,40,100,0
1,40,0,120
1,40,100,0
1,40,0,60
1,40,100,0
1,40,0,180
1,40,100,0
1,40,0,60
1,42,100,0
1,42,0,120
1,44,100,0
1,44,0,120
1,45,100,0
1,45,0,300
1,45,100,0
1,45,0,120
1,40,100,0
1,40,0,60
1,45,100,0
1,45,0,20
1,47,100,0
1,47,0,10
1,49,100,0
1,49,0,10
1,51,100,0
1,51,0,10
1,49,100,0
1,49,0,20
1,40,100,0
1,40,0,10
1,40,100,0
1,40,0,20
1,40,100,0
1,40,0,20
1,40,100,0
1,40,0,10
1,40,100,0
1,40,0,10
1,42,100,0
1,42,0,10
1,44,100,0
1,44,0,20
1,45,100,0
1,45,0,10
1,45,100,0
1,45,0,20
1,40,100,0
1,40,0,20
1,45,100,0
1,45,0,10
1,47,100,0
1,47,0,10
1,49,100,0
1,49,0,20
1,51,100,0
1,51,0,20
1,49,100,0
1,49,0,20
2,42,100,600
2,42,0,120
2,42,100,120
2,42,0,120
2,42,100,120
2,42,0,120
2,42,100,120
2,42,0,120
2,42,100,120
2,42,0,120
2,42,100,120
2,42,0,120
2,42,100,120
2,42,0,120
2,42,100,120
2,42,0,120
2,42,100,120
2,42,0,120
2,42,100,120
2,42,0,120
2,40,100,225
2,40,0,15
2,40,100,0
2,35,100,0
2,40,100,105
2,40,0,15
2,35,0,0
2,40,0,0
2,35,100,0
2,40,100,0
2,40,0,120
2,35,0,0
2,42,100,0
2,52,100,0
2,59,100,0
2,35,100,0
2,59,0,60
2,42,0,0
2,52,0,0
2,42,100,0
2,59,100,0
2,59,0,60
2,42,0,0
2,35,0,0
2,42,100,0
2,59,100,0
2,40,100,0
2,40,0,60
2,59,0,0
2,42,0,0
2,42,100,0
2,59,100,0
2,35,100,0
2,35,0,60
