track,note,velocity,time
1,68,83,2672
1,51,92,0
1,39,92,0
1,70,83,0
1,63,83,0
1,68,83,164
1,70,83,0
1,63,83,4
1,66,92,144
1,70,81,0
1,63,83,0
1,70,83,140
1,63,74,0
1,66,93,0
1,68,83,132
1,70,83,0
1,63,83,4
1,70,83,116
1,68,83,0
1,63,83,4
1,63,81,132
1,66,92,0
1,70,74,0
1,46,70,16
1,66,93,104
1,63,74,0
1,70,83,0
1,49,92,12
1,46,74,40
1,39,92,108
1,51,92,0
1,68,83,0
1,70,83,0
1,63,83,0
1,68,83,164
1,70,83,0
1,63,83,4
1,66,92,144
1,70,81,0
1,63,83,0
1,70,83,140
1,63,74,0
1,66,93,0
1,68,83,132
1,70,83,0
1,63,83,4
1,70,83,116
1,68,83,0
1,63,83,4
1,63,81,132
1,66,92,0
1,70,74,0
1,46,92,24
1,49,92,104
1,66,93,12
1,63,74,0
1,70,83,0
1,46,61,0
1,68,83,112
1,70,83,0
1,63,83,0
1,51,94,4
1,39,92,8
1,68,83,148
1,70,83,0
1,63,83,4
1,66,92,144
1,70,81,0
1,63,83,0
1,70,83,140
1,63,74,0
1,66,93,0
1,68,83,132
1,70,83,0
1,63,83,4
1,70,83,116
1,68,83,0
1,63,83,4
1,63,81,132
1,66,92,0
1,70,74,0
1,46,83,4
1,49,92,8
1,66,93,12
1,63,74,0
1,70,83,0
1,46,74,20
1,68,83,32
1,63,83,0
1,59,83,0
1,47,92,0
1,68,83,144
1,63,83,0
1,59,83,4
1,66,92,144
1,63,81,0
1,59,83,0
1,63,83,140
1,59,74,0
1,66,93,0
1,68,83,132
1,63,83,0
1,59,83,4
1,63,83,116
1,68,83,0
1,59,83,4
1,59,81,132
1,66,92,0
1,63,74,0
1,46,61,20
1,49,92,28
1,66,93,8
1,59,74,0
1,63,83,0
1,46,65,8
1,51,92,64
1,68,83,4
1,70,83,0
1,63,83,0
1,39,92,0
1,68,83,124
1,70,83,0
1,63,83,4
1,66,92,144
1,70,81,0
1,63,83,0
1,70,83,140
1,63,74,0
1,66,93,0
1,68,83,132
1,70,83,0
1,63,83,4
1,70,83,116
1,68,83,0
1,63,83,4
1,63,81,132
1,66,92,0
1,70,74,0
1,46,83,4
1,49,92,8
1,66,93,12
1,63,74,0
1,70,83,0
1,46,74,20
1,68,83,32
1,63,83,0
1,59,83,0
1,47,92,0
1,68,83,144
1,63,83,0
1,59,83,4
1,66,92,144
1,63,81,0
1,59,83,0
1,63,83,140
1,59,74,0
1,66,93,0
1,68,83,132
1,63,83,0
1,59,83,4
1,63,83,116
1,68,83,0
1,59,83,4
1,59,81,132
1,66,92,0
1,63,74,0
1,49,86,20
1,37,50,64
1,66,93,56
1,59,74,0
1,63,83,0
1,39,90,48
1,68,83,0
1,70,83,0
1,63,83,0
1,51,92,4
1,68,83,156
1,70,83,0
1,63,83,4
1,66,92,144
1,70,81,0
1,63,83,0
1,70,83,140
1,63,74,0
1,66,93,0
1,68,83,132
1,70,83,0
1,63,83,4
1,70,83,116
1,68,83,0
1,63,83,4
1,63,81,132
1,66,92,0
1,70,74,0
1,46,83,4
1,49,92,8
1,66,93,12
1,63,74,0
1,70,83,0
1,46,74,20
1,68,83,32
1,63,83,0
1,59,83,0
1,47,92,0
1,68,83,144
1,63,83,0
1,59,83,4
1,66,92,144
1,63,81,0
1,59,83,0
1,63,83,140
1,59,74,0
1,66,93,0
1,68,83,132
1,63,83,0
1,59,83,4
1,63,83,116
1,68,83,0
1,59,83,4
1,47,92,124
1,66,66,12
1,59,92,0
1,63,83,0
1,66,66,48
1,46,92,0
1,58,83,4
1,63,83,0
1,59,74,12
1,63,92,0
1,68,70,0
1,56,83,0
1,44,92,4
1,56,65,44
1,68,66,0
1,63,66,0
1,59,73,0
1,56,71,12
1,68,73,4
1,59,73,4
1,63,73,0
1,56,73,4
1,68,64,12
1,59,73,0
1,63,73,0
1,61,83,8
1,66,83,0
1,58,83,0
1,54,83,0
1,42,92,4
1,41,92,56
1,53,83,0
1,65,83,0
1,61,83,0
1,57,83,4
1,44,92,52
1,68,66,4
1,59,83,0
1,63,92,0
1,63,84,44
1,59,74,0
1,68,76,0
1,63,83,48
1,59,74,0
1,68,92,0
1,68,74,36
1,59,83,0
1,63,92,0
1,46,71,116
1,63,83,44
1,66,83,0
1,59,83,0
1,47,92,8
1,63,83,164
1,66,83,0
1,59,83,4
1,63,92,12
1,66,81,0
1,59,83,0
1,49,92,4
1,66,83,140
1,59,74,0
1,63,93,0
1,42,92,8
1,61,83,0
1,66,83,0
1,58,83,4
1,54,83,0
1,61,83,68
1,54,69,4
1,58,83,0
1,66,83,0
1,41,92,56
1,53,83,12
1,65,83,0
1,61,83,0
1,57,83,0
1,73,89,52
1,69,91,4
1,77,83,0
1,65,83,4
1,65,92,44
1,73,101,0
1,69,101,0
1,77,92,0
1,44,92,44
1,68,83,4
1,63,83,0
1,71,75,4
1,59,83,0
1,71,77,116
1,59,83,0
1,63,83,0
1,68,83,0
1,71,81,128
1,59,81,0
1,68,92,0
1,63,74,0
1,71,74,144
1,59,74,0
1,68,93,0
1,63,83,0
1,70,75,120
1,46,92,4
1,62,83,0
1,65,83,0
1,58,83,0
1,62,83,76
1,70,77,0
1,65,83,0
1,58,83,4
1,62,92,80
1,65,81,0
1,58,83,0
1,70,81,4
1,65,83,48
1,58,74,0
1,62,93,0
1,70,74,0
1,39,90,68
1,68,83,0
1,70,83,0
1,63,83,0
1,51,92,4
1,68,83,164
1,70,83,0
1,63,83,4
1,66,92,144
1,70,81,0
1,63,83,0
1,70,83,140
1,63,74,0
1,66,93,0
1,68,83,132
1,70,83,0
1,63,83,4
1,70,83,116
1,68,83,0
1,63,83,4
1,63,81,132
1,66,92,0
1,70,74,0
1,39,92,8
1,46,83,0
1,51,74,4
1,46,92,4
1,66,93,4
1,63,74,0
1,70,83,0
1,47,92,16
1,68,83,4
1,63,83,0
1,59,83,0
1,68,83,164
1,63,83,0
1,59,83,4
1,66,92,144
1,63,81,0
1,59,83,0
1,63,83,140
1,59,74,0
1,66,93,0
1,68,83,132
1,63,83,0
1,59,83,4
1,65,83,116
1,68,83,0
1,59,83,4
1,42,65,100
1,59,81,0
1,66,92,0
1,63,74,0
1,47,83,124
1,51,88,16
1,47,78,124
1,66,93,12
1,59,74,0
1,63,83,0
1,68,83,72
1,51,92,0
1,70,83,0
1,63,83,0
1,68,83,136
1,70,83,0
1,63,83,4
1,66,92,144
1,70,81,0
1,63,83,0
1,70,83,140
1,63,74,0
1,66,93,0
1,68,83,132
1,70,83,0
1,63,83,4
1,70,83,116
1,68,83,0
1,63,83,4
1,63,81,132
1,66,92,0
1,70,74,0
1,51,70,16
1,46,74,124
1,66,93,0
1,63,74,0
1,70,83,0
1,47,92,32
1,68,83,4
1,63,83,0
1,59,83,0
1,68,83,144
1,63,83,0
1,59,83,4
1,66,92,144
1,63,81,0
1,59,83,0
1,63,83,140
1,59,74,0
1,66,93,0
1,68,83,132
1,63,83,0
1,59,83,4
1,63,83,116
1,68,83,0
1,59,83,4
1,59,81,132
1,66,92,0
1,63,74,0
1,47,74,12
1,49,83,128
1,66,93,0
1,59,74,0
1,63,83,0
1,68,83,152
1,51,92,0
1,70,83,0
1,63,83,0
1,68,83,136
1,70,83,0
1,63,83,4
1,66,92,144
1,70,81,0
1,63,83,0
1,70,83,140
1,63,74,0
1,66,93,0
1,68,83,132
1,70,83,0
1,63,83,4
1,70,83,116
1,68,83,0
1,63,83,4
1,63,81,132
1,66,92,0
1,70,74,0
1,51,70,16
1,46,74,124
1,66,93,0
1,63,74,0
1,70,83,0
1,47,92,32
1,68,83,4
1,63,83,0
1,59,83,0
1,68,83,144
1,63,83,0
1,59,83,4
1,66,92,144
1,63,81,0
1,59,83,0
1,63,83,140
1,59,74,0
1,66,93,0
1,68,83,132
1,63,83,0
1,59,83,4
1,63,83,116
1,68,83,0
1,59,83,4
1,59,81,132
1,66,92,0
1,63,74,0
1,47,74,12
1,49,83,128
1,66,93,0
1,59,74,0
1,63,83,0
1,68,83,152
1,51,92,0
1,70,83,0
1,63,83,0
1,68,83,136
1,70,83,0
1,63,83,4
1,66,92,144
1,70,81,0
1,63,83,0
1,70,83,140
1,63,74,0
1,66,93,0
1,68,83,132
1,70,83,0
1,63,83,4
1,70,83,116
1,68,83,0
1,63,83,4
1,63,81,132
1,66,92,0
1,70,74,0
1,51,70,16
1,46,74,124
1,66,93,0
1,63,74,0
1,70,83,0
1,47,92,32
1,68,83,4
1,63,83,0
1,59,83,0
1,68,83,144
1,63,83,0
1,59,83,4
1,66,92,144
1,63,81,0
1,59,83,0
1,63,83,140
1,59,74,0
1,66,93,0
1,68,83,132
1,63,83,0
1,59,83,4
1,63,83,116
1,68,83,0
1,59,83,4
1,47,92,124
1,59,81,8
1,66,92,0
1,63,74,0
1,66,93,72
1,58,74,0
1,63,83,0
1,46,90,4
1,56,83,44
1,63,83,0
1,68,83,0
1,59,83,0
1,44,92,4
1,61,83,88
1,66,83,0
1,58,83,4
1,54,83,0
1,42,92,4
1,66,83,64
1,70,83,4
1,61,83,4
1,41,92,12
1,53,83,4
1,65,83,0
1,61,83,0
1,57,83,0
1,65,70,60
1,69,82,4
1,73,84,0
1,77,81,4
1,77,83,12
1,73,92,8
1,69,74,0
1,65,74,0
1,71,83,0
1,68,83,0
1,63,83,0
1,44,92,4
1,59,83,0
1,71,83,112
1,63,83,4
1,68,83,0
1,59,83,0
1,71,81,124
1,59,81,4
1,68,92,0
1,63,74,0
1,71,74,144
1,68,93,0
1,59,74,0
1,63,83,0
1,46,71,32
1,63,83,120
1,71,83,0
1,66,83,0
1,59,83,0
1,47,92,8
1,71,83,164
1,63,83,0
1,66,83,0
1,59,83,4
1,71,83,12
1,63,92,0
1,66,81,0
1,59,83,0
1,49,92,4
1,71,74,136
1,66,83,4
1,59,74,0
1,63,93,0
1,42,92,8
1,61,83,0
1,66,83,0
1,58,83,4
1,54,83,0
1,61,83,68
1,54,69,4
1,58,83,0
1,66,83,0
1,41,92,56
1,53,83,12
1,65,83,0
1,61,83,0
1,57,83,0
1,73,89,52
1,69,91,4
1,77,83,0
1,65,83,4
1,65,92,44
1,73,101,0
1,69,101,0
1,77,92,0
1,44,92,44
1,68,83,4
1,63,83,0
1,71,75,4
1,59,83,0
1,70,75,56
1,46,92,4
1,62,83,0
1,65,83,0
1,58,83,0
1,62,92,104
1,65,81,0
1,58,83,0
1,70,81,4
1,65,64,24
1,58,64,8
1,62,60,0
1,46,59,8
1,54,74,48
1,63,92,0
1,66,92,0
1,59,74,0
1,47,93,0
1,66,84,148
1,54,76,4
1,63,83,0
1,59,76,0
1,54,83,100
1,63,83,0
1,59,83,0
1,66,83,4
1,54,74,92
1,63,83,0
1,59,74,0
1,66,90,4
1,54,74,80
1,59,74,0
1,66,83,0
1,63,83,4
1,63,83,96
1,66,92,4
1,54,74,4
1,59,74,0
1,66,84,96
1,63,80,0
1,47,91,4
1,54,74,0
1,59,74,0
1,54,74,108
1,59,74,0
1,63,74,4
1,66,83,4
1,54,74,20
1,63,92,0
1,66,92,0
1,58,74,0
1,46,92,8
1,66,84,148
1,54,76,4
1,63,83,0
1,58,76,0
1,54,83,100
1,63,83,0
1,58,83,0
1,66,83,4
1,54,74,92
1,63,83,0
1,58,74,0
1,66,90,4
1,54,74,80
1,58,74,0
1,66,83,0
1,63,83,4
1,63,83,96
1,66,92,4
1,54,74,4
1,58,74,0
1,66,88,96
1,63,80,0
1,54,74,4
1,58,74,0
1,54,74,108
1,58,74,0
1,63,74,4
1,66,83,4
1,47,64,28
1,66,74,24
1,54,74,8
1,59,74,0
1,63,70,0
1,46,95,0
1,54,74,48
1,63,92,0
1,66,92,0
1,59,74,0
1,47,93,12
1,66,84,108
1,54,76,4
1,63,83,0
1,59,76,0
1,54,83,100
1,63,83,0
1,59,83,0
1,66,83,4
1,54,74,44
1,63,83,0
1,58,74,0
1,46,92,4
1,66,90,0
1,56,74,40
1,63,83,0
1,44,92,0
1,59,83,4
1,59,83,96
1,63,92,4
1,56,74,4
1,68,84,96
1,63,80,0
1,56,74,4
1,59,74,0
1,56,74,108
1,59,74,0
1,63,74,4
1,68,83,4
1,42,92,40
1,54,74,4
1,61,92,0
1,66,92,0
1,58,74,0
1,66,75,88
1,54,76,4
1,61,83,0
1,58,76,0
1,54,83,100
1,61,83,0
1,58,83,0
1,66,74,4
1,54,74,32
1,61,83,0
1,58,74,0
1,66,74,4
1,58,92,36
1,53,92,8
1,65,92,4
1,46,92,0
1,62,83,4
1,62,83,40
1,65,92,4
1,53,74,4
1,58,74,0
1,65,88,96
1,62,80,0
1,53,74,4
1,58,74,0
1,49,92,92
1,56,74,108
1,58,74,0
1,61,74,4
1,65,78,4
1,51,92,28
1,58,92,0
1,39,92,4
1,66,83,0
1,70,92,0
1,63,92,4
1,63,83,52
1,58,92,48
1,66,92,0
1,70,83,0
1,63,74,0
1,63,83,40
1,41,92,16
1,53,92,4
1,65,92,4
1,62,92,0
1,68,83,4
1,62,86,52
1,62,83,60
1,65,92,8
1,68,83,0
1,62,88,84
1,54,66,40
1,42,74,4
1,44,92,12
1,56,92,4
1,65,83,12
1,70,92,0
1,62,92,4
1,62,80,52
1,65,92,48
1,70,83,0
1,62,74,0
1,58,93,0
1,62,66,8
1,70,62,0
1,65,69,4
1,59,106,24
1,62,92,20
1,65,83,0
1,68,91,0
1,58,94,8
1,65,72,0
1,68,66,4
1,62,72,0
1,56,110,44
1,68,80,44
1,65,74,0
1,62,83,4
1,70,82,44
1,65,83,0
1,62,70,4
1,58,95,0
1,51,92,4
1,58,92,0
1,66,83,0
1,70,92,0
1,39,92,0
1,63,92,4
1,63,75,52
1,58,92,48
1,66,92,0
1,70,83,0
1,63,74,0
1,63,78,40
1,41,92,20
1,53,92,0
1,65,92,4
1,62,92,0
1,56,92,4
1,68,83,0
1,62,78,52
1,62,83,60
1,68,83,4
1,65,92,0
1,62,74,84
1,54,66,12
1,42,74,4
1,44,92,12
1,56,92,8
1,68,92,8
1,65,83,0
1,62,92,4
1,62,78,52
1,68,74,52
1,65,83,0
1,62,70,4
1,58,93,16
1,65,77,8
1,62,75,0
1,68,74,4
1,59,107,20
1,68,91,24
1,62,83,0
1,65,83,0
1,58,88,60
1,65,92,4
1,68,83,0
1,62,83,4
1,56,97,20
1,68,74,48
1,65,83,0
1,62,83,0
1,54,74,56
1,65,92,0
1,62,83,0
1,68,92,0
1,42,92,4
1,51,92,4
1,58,92,0
1,66,83,0
1,70,92,0
1,39,92,0
1,63,92,4
1,63,80,56
1,58,92,44
1,66,92,0
1,70,83,0
1,63,74,0
1,63,86,40
1,41,92,20
1,53,92,0
1,65,92,4
1,62,92,0
1,68,83,4
1,62,80,52
1,62,83,60
1,65,92,8
1,68,83,0
1,62,75,84
1,54,66,24
1,42,74,4
1,44,92,12
1,56,92,8
1,68,82,8
1,65,83,0
1,70,92,0
1,62,92,4
1,62,78,52
1,68,73,48
1,65,92,0
1,70,83,0
1,62,74,0
1,65,74,24
1,62,74,4
1,70,70,0
1,46,92,4
1,58,83,4
1,59,92,52
1,47,92,8
1,71,83,8
1,62,74,80
1,65,74,0
1,62,74,32
1,68,83,0
1,58,92,4
1,46,92,0
1,65,92,0
1,62,74,48
1,65,83,0
1,70,72,4
1,44,101,8
1,56,92,8
1,62,87,12
1,61,70,4
1,68,70,0
1,42,83,0
1,54,92,4
1,66,83,0
1,66,75,40
1,63,84,0
1,47,92,0
1,59,92,0
1,71,93,0
1,66,84,88
1,63,84,0
1,71,84,0
1,71,93,72
1,66,93,0
1,63,84,0
1,66,89,80
1,63,93,0
1,71,84,4
1,59,92,76
1,47,90,4
1,66,90,0
1,71,84,0
1,63,92,0
1,46,92,32
1,58,92,0
1,66,87,4
1,63,84,0
1,71,87,0
1,56,92,36
1,66,93,0
1,71,84,0
1,44,92,4
1,63,84,0
