track,note,velocity,time
2,36,127,14200
2,36,127,183
2,36,100,120
2,36,127,90
2,36,127,166
2,36,127,114
2,36,127,88
2,36,6,147
2,36,127,93
2,36,92,162
2,36,127,86
2,36,127,104
2,36,127,303
2,36,92,211
2,36,85,96
2,36,127,101
2,36,53,92
2,36,127,99
2,36,127,96
2,36,85,491
2,36,127,89
2,36,42,559
2,36,127,87
2,36,112,546
2,36,127,83
2,36,100,105
2,36,120,147
2,36,127,91
2,36,127,92
2,36,76,535
2,36,127,83
2,36,48,507
2,36,127,90
2,36,112,92
2,36,112,304
2,36,127,90
2,36,112,108
2,36,127,173
2,36,127,77
2,36,127,67
2,36,120,77
2,36,64,283
2,36,127,84
2,36,100,98
2,36,64,297
2,36,127,85
2,36,74,68
2,36,70,285
2,36,127,85
2,36,94,83
2,36,10,189
2,36,41,88
2,36,127,90
2,36,90,95
2,36,76,262
2,36,127,73
2,36,90,72
2,36,63,301
2,36,127,85
2,36,127,1420
2,36,127,183
2,36,100,120
2,36,127,90
2,36,127,166
2,36,127,114
2,36,127,88
2,36,6,147
2,36,127,93
2,36,92,162
2,36,127,86
2,36,127,104
2,36,127,303
2,36,92,211
2,36,85,96
2,36,127,101
2,36,53,92
2,36,127,99
2,36,127,96
2,36,127,183
2,36,100,120
2,36,127,90
2,36,127,166
2,36,127,114
2,36,127,88
2,36,6,147
2,36,127,93
2,36,92,162
2,36,127,86
2,36,127,104
2,36,127,303
2,36,92,211
2,36,85,96
2,36,127,101
2,36,53,92
2,36,127,99
2,36,127,96
2,36,85,491
2,36,127,89
2,36,42,559
2,36,127,87
2,36,112,546
2,36,127,83
2,36,100,105
2,36,120,147
2,36,127,91
2,36,127,92
2,36,76,535
2,36,127,83
2,36,48,507
2,36,127,90
2,36,112,92
2,36,112,304
2,36,127,90
2,36,112,108
2,36,127,173
2,36,127,77
2,36,127,67
2,36,120,77
2,36,64,283
2,36,127,84
2,36,100,98
2,36,64,297
2,36,127,85
2,36,74,68
2,36,70,285
2,36,127,85
2,36,94,83
2,36,10,189
2,36,41,88
2,36,127,90
2,36,120,77
2,36,64,283
2,36,127,84
2,36,100,98
2,36,64,297
2,36,127,85
2,36,74,68
2,36,70,285
2,36,127,85
2,36,94,83
2,36,10,189
2,36,41,88
2,36,127,90
2,36,120,77
2,36,64,283
2,36,127,84
2,36,100,98
2,36,64,297
2,36,127,85
2,36,74,68
2,36,70,285
2,36,127,85
2,36,94,83
2,36,10,189
2,36,41,88
2,36,127,90
2,36,120,77
2,36,64,283
2,36,127,84
2,36,100,98
2,36,64,297
2,36,127,85
2,36,74,68
2,36,127,349
2,36,90,19
2,36,127,128
2,36,88,125
2,36,99,88
2,36,127,90
2,36,120,77
2,36,64,283
2,36,127,84
2,36,100,98
2,36,64,297
2,36,127,85
2,36,74,68
2,36,70,285
2,36,127,85
2,36,94,83
2,36,10,189
2,36,41,88
2,36,127,90
2,36,120,77
2,36,64,283
2,36,127,84
2,36,100,98
2,36,64,297
2,36,15,213
2,36,22,74
2,36,53,76
2,36,64,83
2,36,83,86
2,36,92,87
2,36,100,87
2,36,127,88
2,36,127,88
2,36,127,91
2,36,127,83
2,36,127,92
2,36,85,491
2,36,127,89
2,36,42,559
2,36,127,87
2,36,112,546
2,36,127,83
2,36,100,105
2,36,120,147
2,36,127,91
2,36,127,92
2,36,76,535
2,36,127,83
2,36,48,507
2,36,127,90
2,36,112,92
2,36,112,304
2,36,127,90
2,36,112,108
2,36,127,173
2,36,127,77
2,36,127,67
2,36,120,77
2,36,64,283
2,36,127,84
2,36,100,98
2,36,64,297
2,36,127,85
2,36,74,68
2,36,70,285
2,36,127,85
2,36,94,83
2,36,10,189
2,36,41,88
2,36,127,90
2,36,120,77
2,36,64,283
2,36,127,84
2,36,100,98
2,36,64,297
2,36,127,85
2,36,74,68
2,36,70,285
2,36,127,213
2,36,127,64
2,36,10,189
2,36,41,88
2,36,127,90
2,36,120,77
2,36,64,283
2,36,127,84
2,36,100,98
2,36,64,297
2,36,127,85
2,36,74,68
2,36,70,285
2,36,127,85
2,36,94,83
2,36,10,189
2,36,41,88
2,36,127,90
2,36,120,77
2,36,64,283
2,36,127,84
2,36,100,98
2,36,64,297
2,36,127,85
2,36,106,64
2,36,91,64
2,36,106,157
2,36,106,127
2,36,108,192
2,36,110,64
2,36,127,189
2,36,127,88
2,36,127,90
2,36,120,77
2,36,64,283
2,36,127,84
2,36,100,98
2,36,64,297
2,36,127,85
2,36,74,68
2,36,127,349
2,36,90,19
2,36,127,128
2,36,88,125
2,36,99,88
2,36,127,90
2,36,120,77
3,40,110,14580
3,40,117,628
3,40,117,511
3,40,117,631
3,40,117,584
3,40,117,448
3,40,117,632
3,40,117,260
3,40,64,133
3,40,117,42
3,40,117,834
3,40,117,689
3,40,117,706
3,40,117,691
3,40,117,683
3,40,117,672
3,40,117,679
3,40,117,656
3,40,117,675
3,40,117,641
3,40,117,636
3,40,117,640
3,40,117,679
3,40,117,632
3,40,110,2202
3,40,117,628
3,40,117,511
3,40,117,631
3,40,117,584
3,40,117,448
3,40,117,632
3,40,117,644
3,40,110,720
3,40,117,628
3,40,117,511
3,40,117,631
3,40,117,584
3,40,117,448
3,40,117,632
3,40,117,260
3,40,64,133
3,40,117,42
3,40,117,834
3,40,117,689
3,40,117,706
3,40,117,691
3,40,117,683
3,40,117,672
3,40,117,679
3,40,117,656
3,40,117,675
3,40,117,641
3,40,117,636
3,40,117,640
3,40,117,679
3,40,117,641
3,40,117,636
3,40,117,640
3,40,117,679
3,40,117,641
3,40,117,636
3,40,117,640
3,40,117,679
3,40,117,641
3,40,117,636
3,40,80,240
3,40,117,15
3,40,82,304
3,40,117,15
3,40,117,679
3,40,117,641
3,40,117,636
3,40,117,640
3,40,117,679
3,40,117,641
3,40,54,240
3,40,117,8
3,40,117,1904
3,40,117,689
3,40,117,706
3,40,117,691
3,40,117,683
3,40,117,672
3,40,117,679
3,40,117,656
3,40,117,675
3,40,117,641
3,40,117,636
3,40,117,640
3,40,117,679
3,40,117,641
3,40,117,636
3,40,117,256
3,40,81,330
3,40,117,11
3,40,117,679
3,40,117,641
3,40,117,636
3,40,117,640
3,40,117,679
3,40,117,641
3,40,117,252
3,40,117,320
3,40,80,240
3,40,117,15
3,40,82,304
3,40,117,15
3,40,117,679
3,40,117,641
3,40,117,636
3,40,80,240
3,40,117,15
3,40,82,304
3,40,117,15
3,40,117,679
4,44,72,2288
4,44,72,408
4,44,72,588
4,44,75,641
4,44,72,676
4,44,72,680
4,44,80,674
4,44,64,696
4,44,72,719
4,44,72,408
4,44,72,588
4,44,75,641
4,44,72,676
4,44,72,680
4,44,80,674
4,44,64,696
4,44,80,12751
4,44,106,126
4,44,106,107
4,44,96,76
4,44,112,80
4,44,100,109
4,44,96,72
4,44,112,71
4,44,96,126
4,44,100,113
4,44,106,102
4,44,112,114
4,44,106,133
4,44,100,115
4,44,106,123
4,44,106,130
4,44,100,160
4,44,96,179
4,44,80,460
4,44,87,701
4,44,80,18943
4,44,106,126
4,44,106,107
4,44,96,76
4,44,112,80
4,44,100,109
4,44,96,72
4,44,112,71
4,44,96,126
4,44,100,113
4,44,106,102
4,44,112,114
4,44,106,133
4,44,100,115
4,44,106,123
4,44,106,130
4,44,100,160
4,44,96,179
4,44,80,460
4,44,87,701
4,44,80,511
4,44,106,126
4,44,106,107
4,44,96,76
4,44,112,80
4,44,100,109
4,44,96,72
4,44,112,71
4,44,96,126
4,44,100,113
4,44,106,102
4,44,112,114
4,44,106,133
4,44,100,115
4,44,106,123
4,44,106,130
4,44,100,160
4,44,96,179
4,44,80,460
4,44,87,701
4,44,80,511
4,44,106,126
4,44,106,107
4,44,96,76
4,44,112,80
4,44,100,109
4,44,96,72
4,44,112,71
4,44,96,126
4,44,100,113
4,44,106,102
4,44,112,114
4,44,80,133
4,44,106,126
4,44,106,107
4,44,96,76
4,44,112,80
4,44,100,109
4,44,96,72
4,44,112,71
4,44,96,126
4,44,100,113
4,44,106,102
4,44,112,114
4,44,80,6277
4,44,106,126
4,44,106,107
4,44,96,76
4,44,112,80
4,44,100,109
4,44,96,72
4,44,112,71
4,44,96,126
4,44,100,113
4,44,106,102
4,44,112,114
4,44,106,133
4,44,100,115
4,44,106,123
4,44,106,130
4,44,100,160
4,44,96,179
4,44,80,460
4,44,87,701
4,44,80,511
4,44,106,126
4,44,106,107
4,44,96,76
4,44,112,80
4,44,100,109
4,44,96,72
4,44,112,71
4,44,96,126
4,44,100,113
4,44,106,102
4,44,112,114
4,44,106,133
4,44,100,115
4,44,106,123
4,44,106,130
4,44,100,160
4,44,96,179
4,44,80,460
4,44,87,701
4,44,106,511
4,44,100,115
4,44,106,123
4,44,106,130
4,44,100,160
4,44,96,179
4,44,80,460
4,44,87,701
4,44,106,511
4,44,100,115
4,44,72,635
4,44,72,588
4,44,75,641
4,44,72,676
4,44,72,408
4,44,72,588
4,44,75,641
4,44,72,676
4,44,72,680
4,44,80,674
4,44,64,696
5,57,41,14188
5,49,67,0
5,49,93,5208
5,57,83,0
5,49,51,232
5,57,40,0
5,57,22,137
5,57,64,33
5,55,97,0
5,49,32,64
5,57,94,0
5,49,96,64
5,57,1,139
5,57,48,280
5,49,64,0
5,49,69,156
5,57,76,0
5,59,92,112
5,49,112,0
5,57,92,0
5,59,66,85
5,59,81,88
5,59,94,22
5,59,64,85
5,59,85,88
5,59,97,88
5,59,72,85
5,59,83,89
5,59,108,91
5,57,74,9
5,59,66,86
5,59,85,9
5,59,94,90
5,49,58,6
5,59,70,87
5,59,87,91
5,59,94,91
5,59,85,89
5,59,92,90
5,59,100,89
5,59,87,86
5,59,94,87
5,59,112,89
5,59,94,88
5,57,33,78
5,59,97,10
5,59,120,84
5,49,58,6
5,59,97,80
5,59,97,6
5,59,127,83
5,57,81,0
5,49,75,0
5,59,92,84
5,59,97,88
5,59,127,84
5,59,94,84
5,59,100,89
5,59,127,28
5,59,92,84
5,59,94,89
5,49,29,86
5,59,97,0
5,57,28,0
5,57,41,960
5,49,67,0
5,57,41,5208
5,49,67,0
5,49,93,5208
5,57,83,0
5,49,51,232
5,57,40,0
5,57,22,137
5,57,64,33
5,55,97,0
5,49,32,64
5,57,94,0
5,49,96,64
5,57,1,139
5,57,48,280
5,49,64,0
5,49,69,156
5,57,76,0
5,59,92,112
5,49,112,0
5,57,92,0
5,59,66,85
5,59,81,88
5,59,94,22
5,59,64,85
5,59,85,88
5,59,97,88
5,59,72,85
5,59,83,89
5,59,108,91
5,57,74,9
5,59,66,86
5,59,85,9
5,59,94,90
5,49,58,6
5,59,70,87
5,59,87,91
5,59,94,91
5,59,85,89
5,59,92,90
5,59,100,89
5,59,87,86
5,59,94,87
5,59,112,89
5,59,94,88
5,57,33,78
5,59,97,10
5,59,44,84
5,59,66,85
5,59,81,14
5,57,64,90
5,49,64,0
5,59,64,0
5,59,88,85
5,59,85,88
5,59,97,22
5,59,72,85
5,59,83,89
5,59,108,91
5,57,74,9
5,59,66,86
5,59,85,9
5,59,94,90
5,49,58,6
5,59,70,87
5,59,87,91
5,59,94,91
5,59,85,89
5,59,92,90
5,59,100,89
5,59,87,86
5,59,94,87
5,59,112,89
5,59,94,88
5,57,33,78
5,59,97,10
5,59,92,84
5,49,112,0
5,57,92,0
5,59,66,85
5,59,81,14
5,59,94,22
5,59,64,85
5,59,85,88
5,59,97,88
5,59,72,85
5,59,83,89
5,59,108,91
5,57,74,9
5,59,66,86
5,59,85,9
5,59,94,90
5,49,58,6
5,59,70,87
5,59,87,91
5,59,94,91
5,59,85,89
5,59,92,90
5,59,100,89
5,59,87,86
5,59,94,87
5,59,112,89
5,59,94,88
5,57,33,78
5,59,97,10
5,59,44,84
5,59,66,85
5,59,81,14
5,57,64,90
5,49,64,0
5,59,64,0
5,59,88,85
5,59,85,88
5,59,97,22
5,59,72,85
5,59,83,89
5,59,108,91
5,57,74,9
5,59,66,86
5,59,85,9
5,59,94,90
5,49,58,6
5,59,70,87
5,59,87,91
5,59,94,91
5,59,85,89
5,59,92,90
5,59,100,89
5,59,87,86
5,59,94,87
5,59,112,89
5,59,94,88
5,57,33,78
5,59,97,10
5,59,92,84
5,49,112,0
5,57,92,0
5,59,66,85
5,59,81,14
5,59,94,22
5,59,64,85
5,59,85,88
5,59,97,88
5,59,72,85
5,59,83,89
5,59,108,91
5,57,74,9
5,59,66,86
5,59,85,9
5,59,94,90
5,49,58,6
5,59,70,87
5,59,87,91
5,59,94,91
5,59,85,89
5,59,92,90
5,59,100,89
5,59,87,86
5,59,94,87
5,59,112,89
5,59,94,88
5,57,33,78
5,59,97,10
5,59,88,84
5,49,88,0
5,57,88,0
5,59,66,85
5,59,81,14
5,59,94,22
5,59,64,85
5,59,85,88
5,59,97,88
5,59,72,85
5,59,83,89
5,59,108,91
5,59,66,86
5,59,85,89
5,49,86,90
5,57,86,0
5,59,86,0
5,59,70,87
5,59,87,18
5,59,94,91
5,59,85,89
5,59,92,90
5,59,100,89
5,59,87,86
5,59,94,87
5,59,112,89
5,59,94,88
5,57,33,78
5,59,97,10
5,49,93,84
5,57,83,0
5,49,51,232
5,57,40,0
5,57,22,137
5,57,64,33
5,55,97,0
5,49,32,64
5,57,94,0
5,49,96,64
5,57,1,139
5,57,48,280
5,49,64,0
5,49,69,156
5,57,76,0
5,59,92,112
5,49,112,0
5,57,92,0
5,59,66,85
5,59,81,88
5,59,94,22
5,59,64,85
5,59,85,88
5,59,97,88
5,59,72,85
5,59,83,89
5,59,108,91
5,57,74,9
5,59,66,86
5,59,85,9
5,59,94,90
5,49,58,6
5,59,70,87
5,59,87,91
5,59,94,91
5,59,85,89
5,59,92,90
5,59,100,89
5,59,87,86
5,59,94,87
5,59,112,89
5,59,94,88
5,57,33,78
5,59,97,10
5,59,44,84
5,59,66,85
5,59,81,14
5,57,64,90
5,49,64,0
5,59,64,0
5,59,88,85
5,59,85,88
5,59,97,22
5,59,72,85
5,59,83,89
5,59,108,91
5,57,74,9
5,59,66,86
5,59,85,9
5,59,94,90
5,49,58,6
5,59,70,87
5,59,87,91
5,59,94,91
5,59,85,89
5,59,92,90
5,59,100,89
5,59,87,86
5,59,94,87
5,59,112,89
5,59,94,88
5,57,33,78
5,59,97,10
5,59,92,84
5,49,112,0
5,57,92,0
5,59,66,85
5,59,81,14
5,59,94,22
5,59,64,85
5,59,85,88
5,59,97,88
5,59,72,85
5,59,83,89
5,59,108,91
5,57,74,9
5,59,66,86
5,59,85,9
5,59,94,90
5,49,58,6
5,59,70,87
5,59,87,91
5,59,94,91
5,59,85,89
5,59,92,90
5,59,100,89
5,59,87,86
5,59,94,87
5,59,112,89
5,59,94,88
5,57,33,78
5,59,97,10
5,59,44,84
5,59,66,85
5,59,81,14
5,59,64,90
5,49,64,0
5,57,64,0
5,59,88,85
5,59,85,88
5,59,97,22
5,59,72,85
5,59,83,89
5,57,74,91
5,59,108,0
5,59,66,86
5,59,85,18
5,49,58,90
5,59,94,0
5,57,94,0
5,59,70,87
5,59,87,91
5,59,94,91
5,49,54,0
5,59,85,89
5,59,92,90
5,57,76,89
5,55,70,0
5,49,93,0
5,59,100,0
5,59,87,86
5,59,94,87
5,57,69,89
5,59,69,0
5,59,94,88
5,59,97,88
5,57,33,0
5,59,44,84
5,59,66,85
5,59,81,4
5,57,64,90
5,49,64,0
5,59,64,0
5,59,88,85
5,59,85,88
5,59,97,22
5,59,72,85
5,59,83,89
5,59,108,91
5,57,74,9
5,59,66,86
5,59,85,9
5,59,94,90
5,49,58,6
5,59,70,87
5,59,87,91
5,59,94,91
5,59,85,89
5,59,92,90
5,59,100,89
5,59,87,86
5,59,94,87
5,59,112,89
5,59,94,88
5,57,33,78
5,59,97,10
5,57,83,84
5,55,83,0
5,49,80,0
5,59,44,0
5,59,66,85
5,59,81,14
5,59,64,90
6,47,127,19944
6,47,127,69
6,45,98,46
6,45,119,19
6,43,127,26
6,41,13,4896
