track,note,velocity,time
0,45,63,16
0,45,0,4
0,40,72,22
0,40,0,4
0,40,110,2
0,40,0,4
0,45,103,92
0,45,0,4
0,44,63,92
0,44,0,4
0,40,103,44
0,40,0,4
0,46,35,140
0,47,89,0
0,46,0,4
0,47,0,0
0,40,106,58
0,46,58,2
0,40,0,2
0,46,0,2
0,40,68,60
0,40,0,4
0,40,86,28
0,40,0,4
0,35,120,28
0,45,91,0
0,45,0,4
0,45,85,28
0,45,0,4
0,45,68,28
0,45,0,4
0,35,0,26
0,33,101,2
0,41,91,0
0,41,0,4
0,33,0,18
0,32,98,2
0,41,76,8
0,41,0,4
0,32,0,10
0,31,95,2
0,41,68,16
0,41,0,4
0,31,0,2
0,29,95,2
0,29,0,22
0,28,106,2
0,35,114,0
0,40,95,0
0,47,86,0
0,49,58,0
0,52,95,0
0,68,75,0
0,71,87,0
0,76,95,0
0,40,82,2
0,56,78,0
0,59,90,0
0,64,95,0
0,64,95,1
0,35,0,1
0,49,0,0
0,59,0,12
0,28,0,22
0,64,0,8
0,28,103,4
0,44,67,0
0,51,47,0
0,44,0,4
0,51,0,0
0,59,78,0
0,56,0,54
0,59,0,8
0,40,102,30
0,56,66,2
0,59,86,1
0,64,90,0
0,40,0,1
0,59,0,60
0,64,0,8
0,28,0,12
0,40,0,11
0,28,93,1
0,44,67,0
0,51,47,0
0,59,85,0
0,66,82,0
0,59,60,2
0,66,66,0
0,44,0,2
0,51,0,0
0,64,0,7
0,68,70,16
0,68,82,4
0,66,0,7
0,66,0,6
0,59,0,12
0,28,0,1
0,68,0,12
0,56,0,2
0,28,102,4
0,35,114,0
0,51,67,0
0,40,78,1
0,59,78,0
0,64,82,0
0,69,95,0
0,35,0,3
0,51,0,0
0,69,94,0
0,68,0,7
0,44,67,37
0,44,0,4
0,64,0,27
0,28,0,3
0,69,0,6
0,28,111,8
0,51,47,0
0,68,82,1
0,51,0,3
0,68,95,0
0,69,0,7
0,59,0,47
0,68,0,18
0,40,99,20
0,51,67,0
0,56,57,0
0,59,99,0
0,66,99,0
0,66,95,0
0,40,0,4
0,51,0,0
0,68,0,4
0,56,0,41
0,40,0,11
0,28,0,21
0,64,74,13
0,28,106,2
0,44,67,0
0,51,47,0
0,64,90,3
0,66,0,0
0,44,0,1
0,51,0,0
0,59,0,5
0,66,0,4
0,64,0,33
0,35,48,2
0,35,0,1
0,68,0,23
0,40,0,16
0,69,93,1
0,28,0,2
0,52,0,0
0,59,0,0
0,45,82,1
0,52,74,0
0,59,86,0
0,61,86,0
0,64,86,0
0,33,102,1
0,35,114,0
0,45,99,0
0,49,48,0
0,52,90,0
0,57,90,0
0,64,0,0
0,47,0,2
0,64,95,0
0,35,0,2
0,49,0,0
0,59,0,2
0,64,0,7
0,61,0,2
0,44,67,2
0,51,47,0
0,57,78,1
0,44,0,3
0,51,0,0
0,57,0,70
0,40,97,22
0,59,82,2
0,61,78,0
0,64,90,0
0,40,0,2
0,33,0,66
0,59,0,18
0,61,0,6
0,33,102,2
0,44,67,0
0,51,47,0
0,57,74,0
0,64,77,0
0,44,0,4
0,51,0,0
0,64,0,15
0,57,0,53
0,33,0,11
0,33,97,13
0,35,114,0
0,51,67,0
0,64,78,1
0,59,78,1
0,61,57,1
0,35,0,1
0,51,0,0
0,59,0,17
0,52,0,5
0,61,0,4
0,33,0,8
0,52,0,3
0,57,86,1
0,33,98,1
0,35,99,0
0,44,67,0
0,51,47,0
0,52,78,0
0,35,0,4
0,44,0,0
0,51,0,0
0,64,0,16
0,57,0,16
0,52,95,3
0,33,0,30
0,45,0,4
0,57,0,0
0,35,106,2
0,40,102,0
0,45,71,0
0,51,67,0
0,57,71,0
0,59,104,0
0,64,99,0
0,40,0,4
0,51,0,0
0,61,74,25
0,59,0,7
0,64,0,30
0,61,0,2
0,57,95,6
0,44,67,1
0,45,35,0
0,52,0,1
0,44,0,3
0,45,0,0
0,45,0,7
0,57,0,17
0,45,45,15
0,45,0,4
0,35,0,18
0,71,0,5
0,73,94,6
0,68,94,1
0,76,82,0
0,57,0,2
0,64,0,0
0,45,0,1
0,49,86,0
0,56,82,0
0,61,82,0
0,64,90,0
0,69,0,0
0,35,113,1
0,37,101,0
0,49,86,0
0,56,90,0
0,57,58,0
0,61,85,0
0,35,0,4
0,57,0,0
0,56,0,18
0,61,0,1
0,37,0,6
0,56,66,1
0,37,92,1
0,44,67,0
0,51,47,0
0,76,0,0
0,44,0,4
0,51,0,0
0,68,86,0
0,64,0,8
0,56,0,3
0,37,0,32
0,39,89,2
0,40,102,0
0,56,78,1
0,61,78,0
0,64,90,0
0,73,66,0
0,40,0,2
0,68,0,5
0,56,0,11
0,61,0,2
0,64,0,2
0,39,0,57
0,73,0,14
0,76,86,0
0,40,85,1
0,44,67,0
0,51,47,0
0,66,95,0
0,66,82,1
0,44,0,3
0,51,0,0
0,64,0,4
0,49,0,2
0,68,86,37
0,68,78,0
0,66,0,7
0,66,0,3
0,68,0,8
0,76,0,14
0,68,0,7
0,71,95,5
0,40,0,1
0,66,95,0
0,75,86,0
0,75,95,1
0,61,0,1
0,64,90,1
0,69,95,0
0,35,93,1
0,35,114,0
0,47,66,0
0,47,82,0
0,57,48,0
0,59,82,0
0,61,90,0
0,49,0,1
0,69,90,1
0,35,0,2
0,57,0,0
0,76,0,0
0,68,0,3
0,73,0,8
0,75,0,11
0,69,0,4
0,35,0,1
0,35,95,2
0,44,67,0
0,51,47,0
0,68,82,0
0,68,82,1
0,44,0,3
0,51,0,0
0,68,82,0
0,64,0,3
0,69,0,7
0,47,0,50
0,71,78,29
0,35,0,1
0,66,90,1
0,68,0,0
0,39,85,1
0,40,99,0
0,51,67,0
0,66,90,0
0,68,0,0
0,40,0,4
0,51,0,0
0,68,0,2
0,64,90,89
0,35,99,1
0,40,81,0
0,44,67,0
0,49,49,0
0,64,86,1
0,75,74,0
0,35,0,3
0,39,0,0
0,44,0,0
0,49,0,0
0,61,0,2
0,71,0,0
0,66,0,2
0,66,0,2
0,64,0,8
0,66,0,49
0,52,0,9
0,40,0,9
0,64,0,2
0,75,0,1
0,59,0,2
0,64,82,3
0,56,0,1
0,76,96,0
0,69,84,1
0,45,86,1
0,45,63,0
0,57,78,0
0,59,86,0
0,61,82,0
0,64,86,0
0,73,91,0
0,35,91,0
0,40,22,0
0,45,99,0
0,52,95,0
0,57,99,0
0,57,48,0
0,47,0,1
0,52,51,0
0,35,0,3
0,40,0,0
0,57,0,0
0,75,0,0
0,57,0,9
0,59,0,2
0,40,18,0
0,57,78,3
0,40,0,1
0,61,0,0
0,64,0,9
0,57,0,32
0,40,15,10
0,40,0,4
0,40,23,0
0,44,56,0
0,59,70,3
0,61,63,0
0,40,0,0
0,44,0,0
0,64,63,0
0,64,0,36
0,61,0,4
0,59,0,4
0,57,74,0
0,40,22,0
0,64,38,2
0,40,0,2
0,64,0,13
0,40,15,7
0,40,0,4
0,40,18,0
0,40,0,4
0,40,18,20
0,40,0,4
0,52,0,2
0,57,0,3
0,40,13,9
0,40,0,4
0,59,74,0
0,61,63,0
0,64,78,0
0,40,26,0
0,40,0,4
0,40,18,0
0,40,0,4
0,40,18,0
0,57,63,1
0,40,0,3
0,59,0,0
0,61,0,2
0,64,0,17
0,40,18,0
0,40,0,4
0,57,0,9
0,40,15,3
0,59,70,3
0,61,60,0
0,64,74,0
0,40,0,0
0,40,23,0
0,44,56,0
0,40,0,4
0,44,0,0
0,73,0,20
0,57,63,1
0,40,20,0
0,61,0,3
0,40,0,1
0,59,0,1
0,40,13,19
0,40,0,2
0,64,0,4
0,40,15,0
0,40,0,4
0,40,16,20
0,40,0,4
0,57,0,1
0,59,70,18
0,61,53,0
0,64,63,0
0,40,22,0
0,40,0,4
0,40,18,0
0,57,45,0
0,59,0,3
0,40,0,1
0,61,0,6
0,64,0,26
0,57,0,21
0,40,15,21
0,40,0,4
0,40,23,0
0,59,60,2
0,61,63,0
0,64,63,0
0,40,0,2
0,61,0,47
0,40,22,0
0,57,42,2
0,59,0,0
0,40,0,2
0,40,15,20
0,40,0,4
0,64,0,5
0,40,18,0
0,40,0,4
0,40,18,20
0,40,0,4
0,57,0,5
0,40,13,9
0,40,0,4
0,40,26,0
0,59,53,3
0,61,45,0
0,64,60,0
0,40,0,1
0,40,18,0
0,40,0,4
0,64,0,41
0,40,18,0
0,59,0,1
0,61,0,0
0,40,0,3
0,57,45,0
0,40,18,0
0,40,0,4
0,57,0,26
0,40,15,14
0,40,0,0
0,40,23,0
0,59,51,0
0,61,68,0
0,64,63,0
0,40,0,4
0,40,20,0
0,40,0,4
0,57,39,0
0,40,13,20
0,40,0,4
0,69,0,17
0,45,0,1
0,52,0,0
0,57,0,0
0,40,15,0
0,40,0,4
0,76,0,3
0,71,0,1
0,40,16,16
0,40,0,4
0,45,0,18
0,45,0,0
0,57,0,0
0,59,0,0
0,61,0,0
0,64,0,0
0,49,53,2
0,61,66,0
0,63,70,0
0,64,78,0
0,40,22,0
0,51,32,0
0,56,69,0
0,61,69,0
0,64,0,1
0,40,0,3
0,51,0,0
0,61,0,21
0,40,18,0
0,56,66,3
0,40,0,1
0,63,0,1
0,64,0,1
0,56,100,42
0,56,0,33
0,40,15,9
0,40,0,4
0,56,0,0
0,64,41,2
0,40,23,0
0,61,43,3
0,63,41,0
0,40,0,1
0,56,110,5
0,56,0,46
0,56,103,5
0,61,0,21
0,64,0,2
0,40,22,0
0,56,53,1
0,40,0,3
0,56,0,5
0,63,0,0
0,54,103,1
0,40,15,14
0,40,0,4
0,40,18,0
0,40,0,4
0,40,18,20
0,40,0,4
0,40,13,14
0,56,0,1
0,63,41,1
0,40,0,2
0,64,53,0
0,54,0,1
0,61,41,0
0,40,26,1
0,56,106,0
0,40,0,4
0,40,18,0
0,40,0,4
0,61,0,38
0,40,18,0
0,56,41,1
0,40,0,3
0,64,0,27
0,63,0,1
0,56,0,14
0,40,18,2
0,40,0,4
0,40,15,40
0,63,48,1
0,64,74,0
0,61,63,1
0,40,0,0
0,40,23,0
0,56,0,1
0,40,0,3
0,56,63,46
0,40,20,2
0,49,0,0
0,61,0,1
0,40,0,3
0,63,0,3
0,40,13,17
0,64,0,2
0,40,0,2
0,56,0,12
0,40,15,0
0,40,0,4
0,40,16,20
0,40,0,4
0,47,63,18
0,59,70,0
0,63,51,0
0,40,22,0
0,40,0,4
0,40,18,0
0,40,0,4
0,54,53,1
0,59,0,6
0,63,0,22
0,54,0,3
0,54,96,13
0,40,15,4
0,63,41,3
0,40,0,1
0,59,66,1
0,40,23,1
0,54,0,0
0,56,101,1
0,40,0,3
0,56,0,40
0,56,103,3
0,56,0,23
0,59,0,19
0,40,22,6
0,54,48,0
0,40,0,4
0,63,0,10
0,40,15,10
0,40,0,4
0,40,18,0
0,40,0,4
0,56,110,1
0,54,0,5
0,40,18,14
0,40,0,4
0,40,13,14
0,63,66,0
0,59,78,2
0,40,0,2
0,40,26,2
0,40,0,4
0,56,0,42
0,59,103,1
0,40,18,0
0,40,0,4
0,59,0,27
0,54,86,12
0,40,18,0
0,40,0,4
0,63,0,11
0,59,0,30
0,40,18,3
0,40,0,4
0,56,97,1
0,54,0,18
0,59,78,20
0,63,63,0
0,40,15,1
0,54,60,0
0,40,0,0
0,40,23,0
0,40,0,4
0,54,0,26
0,59,0,19
0,47,0,20
0,54,57,1
0,63,0,3
0,40,20,0
0,56,0,3
0,40,0,1
0,54,0,14
0,40,13,6
0,40,0,4
0,40,15,20
0,40,0,4
0,40,16,20
0,40,0,4
0,45,74,15
0,59,74,0
0,64,78,0
0,56,0,3
0,61,0,0
0,61,53,2
0,40,22,0
0,52,64,0
0,61,64,0
0,40,0,4
0,57,51,42
0,59,0,3
0,40,18,1
0,61,0,3
0,40,0,1
0,64,0,12
0,57,0,30
0,56,85,6
0,40,15,6
0,64,70,2
0,59,74,1
0,40,0,1
0,56,0,0
0,57,103,1
0,40,23,0
0,61,57,3
0,40,0,1
0,57,0,39
0,57,107,3
0,57,0,24
0,57,104,20
0,57,51,2
0,61,0,0
0,59,0,4
0,40,22,0
0,40,0,4
0,57,0,14
0,40,15,6
0,40,0,4
0,57,107,18
0,64,0,1
0,40,18,1
0,40,0,4
0,40,18,20
0,57,0,1
0,40,0,3
0,40,13,14
0,59,66,0
0,64,63,0
0,61,66,1
0,40,0,3
0,40,26,0
0,40,0,4
0,57,0,40
0,40,18,4
0,57,103,0
0,40,0,4
0,59,0,36
0,57,66,6
0,61,0,1
0,40,18,0
0,40,0,4
0,64,0,23
0,57,0,19
0,40,18,2
0,40,0,4
0,57,0,12
0,40,15,28
0,64,82,4
0,40,0,0
0,40,23,0
0,59,86,1
0,61,70,0
0,40,0,3
0,59,0,81
0,61,0,5
0,64,0,1
0,57,78,3
0,54,99,2
0,40,20,0
0,45,0,3
0,40,0,1
0,40,13,20
0,57,0,3
0,40,0,1
0,54,0,18
0,40,15,2
0,54,102,0
0,40,0,4
0,40,16,20
0,40,0,4
0,52,0,9
0,54,0,9
0,44,66,1
0,63,74,0
0,59,86,1
0,40,22,0
0,51,63,0
0,59,63,0
0,40,0,4
0,61,0,1
0,56,106,4
0,56,0,7
0,59,0,38
0,63,0,1
0,40,18,2
0,54,41,3
0,40,0,1
0,56,96,8
0,54,0,53
0,40,15,25
0,40,0,4
0,40,23,2
0,59,82,2
0,63,63,0
0,40,0,2
0,56,0,6
0,59,0,36
0,63,0,11
0,40,22,1
0,59,110,0
0,40,0,4
0,54,60,0
0,40,15,20
0,40,0,4
0,59,0,18
0,56,100,2
0,40,18,0
0,54,0,1
0,40,0,3
0,40,18,20
0,40,0,4
0,40,13,14
0,40,0,4
0,59,90,1
0,63,78,0
0,40,26,1
0,40,0,4
0,56,0,42
0,54,100,2
0,40,18,0
0,40,0,4
0,59,0,27
0,63,0,5
0,44,0,4
0,54,95,6
0,40,18,2
0,40,0,4
0,44,95,41
0,54,0,1
0,40,18,2
0,40,0,4
0,54,0,1
0,40,15,39
0,54,86,2
0,40,0,0
0,40,23,0
0,40,0,4
0,54,0,1
0,54,86,8
0,59,95,0
0,63,95,0
0,40,20,12
0,47,99,0
0,40,0,4
0,44,0,0
0,40,13,20
0,40,0,4
0,54,0,19
0,40,15,1
0,59,0,3
0,40,0,1
0,63,0,2
0,40,16,18
0,40,0,4
0,47,0,6
0,51,0,0
0,59,0,0
0,51,34,0
0,56,74,0
0,61,74,0
0,49,82,2
0,63,74,0
0,64,82,0
0,61,78,1
0,51,0,1
0,61,0,58
0,64,0,11
0,63,0,3
0,40,18,5
0,56,51,1
0,40,0,3
0,54,82,20
0,56,0,8
0,40,15,14
0,40,0,4
0,40,23,0
0,64,66,3
0,40,0,1
0,61,74,0
0,63,63,0
0,54,0,1
0,56,93,1
0,56,0,4
0,56,101,8
0,61,0,15
0,40,22,21
0,56,41,3
0,40,0,1
0,56,0,0
0,64,0,1
0,56,107,2
0,40,15,17
0,63,0,2
0,40,0,2
0,56,0,3
0,40,18,0
0,40,0,4
0,56,110,1
0,40,18,19
0,40,0,4
0,56,0,1
0,40,13,13
0,40,0,4
0,40,26,2
0,63,63,3
0,64,74,0
0,40,0,1
0,61,70,0
0,56,107,2
0,56,0,4
0,40,18,38
0,40,0,4
0,64,0,32
0,61,0,2
0,63,0,5
0,40,18,0
0,56,57,3
0,40,0,1
0,56,0,0
0,56,96,3
0,40,18,0
0,40,0,4
0,56,0,1
0,56,0,22
0,40,15,17
0,40,0,4
0,40,23,0
0,61,82,1
0,63,66,0
0,64,82,0
0,40,0,3
0,56,93,11
0,64,0,32
0,61,0,1
0,63,0,0
0,40,20,0
0,56,74,1
0,49,0,1
0,40,0,2
0,56,0,5
0,54,81,4
0,40,13,11
0,40,0,4
0,56,0,9
0,40,15,11
0,40,0,4
0,54,0,7
0,56,109,2
0,40,16,11
0,40,0,4
0,40,22,20
0,59,86,0
0,47,78,1
0,63,66,0
0,40,0,3
