track,note,velocity,time
0,64,100,232
0,66,100,0
0,71,100,240
0,73,100,0
0,71,100,0
0,66,100,0
0,68,100,0
0,40,100,0
0,52,100,0
0,80,110,0
0,42,100,480
0,76,100,0
0,71,100,0
0,68,100,0
0,64,100,0
0,59,100,0
0,52,100,0
0,80,110,0
0,52,100,0
0,59,100,0
0,64,100,0
0,68,100,0
0,71,100,0
0,76,100,0
0,42,100,240
0,52,100,0
0,59,100,0
0,64,100,0
0,68,100,0
0,71,100,0
0,76,100,0
0,52,100,0
0,59,100,0
0,64,100,0
0,68,100,0
0,71,100,0
0,76,100,0
0,40,100,0
0,59,100,0
0,52,100,0
0,81,110,0
0,42,100,0
0,76,100,0
0,71,100,0
0,68,100,0
0,64,100,0
0,59,100,0
0,52,100,0
0,80,110,0
0,78,110,0
0,71,100,0
0,68,100,0
0,64,100,0
0,59,100,0
0,52,100,0
0,76,100,0
0,76,110,0
0,42,100,240
0,71,100,0
0,68,100,0
0,64,100,0
0,59,100,0
0,52,100,0
0,76,100,0
0,71,100,0
0,68,100,0
0,64,100,0
0,59,100,0
0,52,100,0
0,76,100,0
0,81,110,0
0,45,100,0
0,57,100,0
0,81,110,0
0,42,100,0
0,76,100,0
0,71,100,0
0,69,100,0
0,64,100,0
0,57,100,0
0,80,110,0
0,69,100,0
0,64,100,0
0,57,100,0
0,78,110,0
0,57,100,0
0,64,100,0
0,69,100,0
0,71,100,0
0,76,100,0
0,76,110,0
0,42,100,0
0,57,100,0
0,64,100,0
0,69,100,0
0,71,100,0
0,76,100,0
0,76,110,0
0,57,100,0
0,64,100,0
0,69,100,0
0,71,100,0
0,76,100,0
0,83,110,0
0,45,100,0
0,57,100,0
0,80,110,0
0,42,100,0
0,76,100,0
0,71,100,0
0,69,100,0
0,64,100,0
0,57,100,0
0,79,110,0
0,80,110,0
0,69,100,0
0,64,100,0
0,57,100,0
0,78,110,0
0,57,100,0
0,64,100,0
0,69,100,0
0,71,100,0
0,76,100,0
0,76,110,0
0,42,100,240
0,57,100,0
0,64,100,0
0,69,100,0
0,71,100,0
0,76,100,0
0,57,100,0
0,64,100,0
0,69,100,0
0,71,100,0
0,76,100,0
0,76,110,0
0,47,100,0
0,59,100,0
0,66,100,0
0,71,100,0
0,71,100,0
0,76,100,0
0,76,110,0
0,78,110,0
0,42,100,0
0,78,110,0
0,78,110,0
0,78,110,0
0,78,110,0
0,42,100,0
0,76,110,0
0,78,110,0
0,47,100,0
0,76,110,0
0,76,110,0
0,76,110,0
0,73,110,0
0,40,100,180
0,47,100,0
0,40,100,0
0,35,100,0
0,76,100,0
0,71,100,0
0,71,100,0
0,66,100,0
0,59,100,0
0,76,110,0
0,76,110,0
0,40,100,180
0,47,100,0
0,35,100,0
0,40,100,0
0,59,100,0
0,66,100,0
0,71,100,0
0,71,100,0
0,76,100,0
0,76,110,0
0,78,110,0
0,40,100,0
0,42,100,0
0,52,100,0
0,59,100,0
0,35,100,0
0,52,100,0
0,64,100,0
0,76,110,0
0,42,100,0
0,59,100,0
0,52,100,0
0,76,110,0
0,42,100,0
0,59,100,0
0,40,100,0
0,76,100,0
0,71,100,0
0,68,100,0
0,64,100,0
0,59,100,0
0,52,100,0
0,52,100,0
0,42,100,0
0,59,100,0
0,35,100,0
0,63,100,0
0,42,100,0
0,59,100,0
0,52,100,0
0,40,100,0
0,42,100,0
0,59,100,0
0,35,100,0
0,52,100,0
0,59,100,0
0,64,100,0
0,68,100,0
0,71,100,0
0,76,100,0
0,52,100,0
0,42,100,0
0,59,100,0
0,40,100,0
0,52,100,0
0,59,100,0
0,64,100,0
0,68,100,0
0,71,100,0
0,76,100,0
0,61,100,0
0,40,100,0
0,42,100,0
0,59,100,0
0,35,100,0
0,52,100,0
0,59,100,0
0,64,100,0
0,68,100,0
0,71,100,0
0,76,100,0
0,52,100,0
0,40,100,0
0,42,100,0
0,52,100,0
0,59,100,0
0,35,100,0
0,59,100,0
0,52,100,0
0,52,100,0
0,42,100,0
0,59,100,0
0,59,100,0
0,42,100,0
0,59,100,0
0,40,100,0
0,76,100,0
0,71,100,0
0,68,100,0
0,64,100,0
0,59,100,0
0,52,100,0
0,52,100,0
0,42,100,0
0,59,100,0
0,35,100,0
0,52,100,0
0,47,100,0
0,42,100,0
0,59,100,0
0,57,100,0
0,49,100,0
0,42,100,0
0,59,100,0
0,35,100,0
0,71,100,0
0,68,100,0
0,64,100,0
0,59,100,0
0,52,100,0
0,76,100,0
0,47,100,0
0,42,100,0
0,59,100,0
0,40,100,0
0,71,100,0
0,68,100,0
0,64,100,0
0,59,100,0
0,52,100,0
0,76,100,0
0,56,100,0
0,42,100,0
0,59,100,0
0,35,100,0
0,71,100,0
0,68,100,0
0,64,100,0
0,59,100,0
0,52,100,0
0,76,100,0
0,40,100,0
0,42,100,0
0,52,100,0
0,59,100,0
0,35,100,0
0,52,100,0
0,59,100,0
0,52,100,0
0,68,110,0
0,42,100,0
0,59,100,0
0,66,110,0
0,42,100,0
0,59,100,0
0,40,100,0
0,76,100,0
0,71,100,0
0,68,100,0
0,64,100,0
0,59,100,0
0,52,100,0
0,68,110,0
0,42,100,0
0,59,100,0
0,35,100,0
0,66,110,0
0,42,100,0
0,59,100,0
0,68,110,0
0,40,100,0
0,42,100,0
0,59,100,0
0,35,100,0
0,52,100,0
0,59,100,0
0,64,100,0
0,68,100,0
0,71,100,0
0,76,100,0
0,42,100,0
0,59,100,0
0,40,100,0
0,52,100,0
0,59,100,0
0,64,100,0
0,68,100,0
0,71,100,0
0,76,100,0
0,68,110,0
0,40,100,0
0,42,100,0
0,59,100,0
0,35,100,0
0,52,100,0
0,59,100,0
0,64,100,0
0,68,100,0
0,71,100,0
0,76,100,0
0,67,110,0
0,40,100,0
0,42,100,0
0,59,100,0
0,35,100,0
0,59,100,0
0,52,100,0
0,68,110,0
0,42,100,0
0,59,100,0
0,68,110,0
0,42,100,0
0,59,100,0
0,40,100,0
0,76,100,0
0,71,100,0
0,68,100,0
0,64,100,0
0,59,100,0
0,52,100,0
0,42,100,0
0,59,100,0
0,35,100,0
0,68,110,0
0,42,100,0
0,59,100,0
0,71,110,0
0,40,100,0
0,42,100,0
0,59,100,0
0,35,100,0
0,71,100,0
0,68,100,0
0,64,100,0
0,59,100,0
0,52,100,0
0,76,100,0
0,68,110,0
0,42,100,0
0,59,100,0
0,40,100,0
0,71,100,0
0,68,100,0
0,64,100,0
0,59,100,0
0,52,100,0
0,76,100,0
0,42,100,0
0,42,100,0
0,59,100,0
0,35,100,0
0,71,100,0
0,68,100,0
0,64,100,0
0,59,100,0
0,52,100,0
0,76,100,0
0,67,110,0
0,44,100,0
0,42,100,0
0,59,100,0
0,35,100,0
0,56,100,0
0,68,110,0
0,42,100,0
0,59,100,0
0,67,110,0
0,42,100,0
0,59,100,0
0,40,100,0
0,80,100,0
0,75,100,0
0,71,100,0
0,68,100,0
0,63,100,0
0,56,100,0
0,68,110,0
0,42,100,0
0,59,100,0
0,35,100,0
0,66,110,0
0,42,100,0
0,59,100,0
0,68,110,0
0,44,100,0
0,42,100,0
0,59,100,0
0,35,100,0
0,56,100,0
0,63,100,0
0,68,100,0
0,71,100,0
0,75,100,0
0,80,100,0
0,66,110,0
0,42,100,0
0,59,100,0
0,40,100,0
0,56,100,0
0,63,100,0
0,68,100,0
0,71,100,0
0,75,100,0
0,80,100,0
0,68,110,0
0,44,100,0
0,42,100,0
0,59,100,0
0,35,100,0
0,56,100,0
0,63,100,0
0,68,100,0
0,71,100,0
0,75,100,0
0,80,100,0
0,66,110,0
0,44,100,0
0,42,100,0
0,59,100,0
0,35,100,0
0,56,100,0
0,68,110,0
0,42,100,0
0,59,100,0
0,42,100,0
0,59,100,0
0,40,100,0
0,80,100,0
0,75,100,0
0,68,100,0
0,71,100,0
0,63,100,0
0,56,100,0
0,71,110,0
0,42,100,0
0,59,100,0
0,35,100,0
0,42,100,0
0,59,100,0
0,66,110,0
0,44,100,0
0,42,100,0
0,59,100,0
0,35,100,0
0,56,100,0
0,63,100,0
0,68,100,0
0,71,100,0
0,75,100,0
0,80,100,0
0,47,100,0
0,42,100,0
0,59,100,0
0,40,100,0
0,56,100,0
0,63,100,0
0,68,100,0
0,71,100,0
0,75,100,0
0,80,100,0
0,42,100,0
0,59,100,0
0,35,100,0
0,68,100,0
0,71,110,0
0,45,100,0
0,42,100,0
0,52,100,0
0,59,100,0
0,35,100,0
0,64,100,0
0,57,100,0
0,73,110,0
0,42,100,0
0,59,100,0
0,71,110,0
0,42,100,0
0,59,100,0
0,40,100,0
0,76,100,0
0,73,100,0
0,69,100,0
0,64,100,0
0,57,100,0
0,73,110,0
0,42,100,0
0,59,100,0
0,35,100,0
0,71,110,0
0,42,100,0
0,59,100,0
0,73,110,0
0,45,100,0
0,42,100,0
0,59,100,0
0,35,100,0
0,57,100,0
0,64,100,0
0,69,100,0
0,73,100,0
0,76,100,0
0,42,100,0
0,59,100,0
0,40,100,0
0,57,100,0
0,64,100,0
0,69,100,0
0,73,100,0
0,76,100,0
0,45,100,0
0,42,100,0
0,59,100,0
0,35,100,0
0,57,100,0
0,64,100,0
0,69,100,0
0,73,100,0
0,76,100,0
0,71,110,0
0,45,100,0
0,42,100,0
0,59,100,0
0,35,100,0
0,64,100,0
0,57,100,0
0,73,110,0
0,71,110,0
0,42,100,0
0,59,100,0
0,73,110,0
0,42,100,0
0,59,100,0
0,40,100,0
0,76,100,0
0,73,100,0
0,69,100,0
0,64,100,0
0,57,100,0
0,71,110,0
0,42,100,0
0,59,100,0
0,35,100,0
0,73,110,0
0,42,100,0
0,59,100,0
0,45,100,0
0,42,100,0
0,59,100,0
0,35,100,0
0,57,100,0
0,64,100,0
0,69,100,0
0,73,100,0
0,76,100,0
0,44,100,0
0,42,100,0
0,59,100,0
0,40,100,0
0,57,100,0
0,64,100,0
0,69,100,0
0,73,100,0
0,76,100,0
0,42,100,0
0,42,100,0
0,59,100,0
0,35,100,0
0,57,100,0
0,64,100,0
0,69,100,0
0,73,100,0
0,76,100,0
0,64,110,0
0,40,100,0
0,42,100,0
0,52,100,0
0,59,100,0
0,35,100,0
0,59,100,0
0,52,100,0
0,66,110,0
0,42,100,0
0,59,100,0
0,68,110,0
0,42,100,0
0,59,100,0
0,40,100,0
0,76,100,0
0,71,100,0
0,68,100,0
0,64,100,0
0,59,100,0
0,52,100,0
0,68,110,0
0,42,100,0
0,59,100,0
0,35,100,0
0,68,110,0
0,42,100,0
0,59,100,0
0,68,110,0
0,42,100,0
0,42,100,0
0,59,100,0
0,35,100,0
0,52,100,0
0,59,100,0
0,64,100,0
0,68,100,0
0,71,100,0
0,76,100,0
0,69,110,0
0,44,100,0
0,42,100,0
0,59,100,0
0,40,100,0
0,52,100,0
0,59,100,0
0,64,100,0
0,68,100,0
0,71,100,0
0,76,100,0
0,49,100,0
0,42,100,0
0,59,100,0
0,35,100,0
0,52,100,0
0,59,100,0
0,64,100,0
0,68,100,0
0,71,100,0
0,76,100,0
0,64,110,0
0,47,100,0
0,42,100,0
0,59,100,0
0,35,100,0
0,71,100,0
0,66,100,0
0,59,100,0
0,66,110,0
0,42,100,0
0,59,100,0
0,42,100,0
0,59,100,0
0,40,100,0
0,76,100,0
0,71,100,0
0,66,100,0
0,59,100,0
0,42,100,0
0,59,100,0
0,35,100,0
0,42,100,0
0,42,100,0
0,59,100,0
0,71,100,0
0,66,100,0
0,59,100,0
0,66,110,0
0,44,100,0
0,42,100,0
0,59,100,0
0,35,100,0
0,66,100,0
0,71,100,0
0,59,100,0
0,68,110,0
0,42,100,0
0,42,100,0
0,59,100,0
0,40,100,0
0,76,100,0
0,71,100,0
0,66,100,0
0,59,100,0
0,66,110,0
0,42,100,0
0,59,100,0
0,35,100,0
0,71,100,0
0,66,100,0
0,59,100,0
0,64,110,0
0,40,100,0
0,42,100,0
0,52,100,0
0,59,100,0
0,35,100,0
0,52,100,0
0,64,100,0
0,64,110,0
0,42,100,0
0,59,100,0
0,52,100,0
0,42,100,0
0,59,100,0
0,40,100,0
0,76,100,0
0,71,100,0
0,68,100,0
0,64,100,0
0,59,100,0
0,52,100,0
0,52,100,0
0,42,100,0
0,59,100,0
0,35,100,0
0,63,100,0
0,42,100,0
0,59,100,0
0,52,100,0
0,40,100,0
0,42,100,0
0,59,100,0
0,35,100,0
0,52,100,0
0,59,100,0
0,64,100,0
0,68,100,0
0,71,100,0
0,76,100,0
0,52,100,0
0,42,100,0
0,59,100,0
0,40,100,0
0,52,100,0
0,59,100,0
0,64,100,0
0,68,100,0
0,71,100,0
0,76,100,0
0,61,100,0
0,40,100,0
0,42,100,0
0,59,100,0
0,35,100,0
0,52,100,0
0,59,100,0
0,64,100,0
0,68,100,0
0,71,100,0
0,76,100,0
0,52,100,0
0,40,100,0
0,42,100,0
0,59,100,0
0,35,100,0
0,59,100,0
0,52,100,0
0,52,100,0
0,42,100,0
0,59,100,0
0,59,100,0
0,42,100,0
0,59,100,0
0,40,100,0
0,76,100,0
0,71,100,0
0,68,100,0
0,64,100,0
0,59,100,0
0,52,100,0
0,52,100,0
0,40,100,0
0,42,100,0
0,59,100,0
0,35,100,0
0,52,100,0
0,47,100,0
0,57,100,0
0,42,100,0
0,59,100,0
0,57,100,0
0,49,100,0
0,42,100,0
0,59,100,0
0,35,100,0
0,71,100,0
0,68,100,0
0,64,100,0
0,59,100,0
0,52,100,0
0,76,100,0
0,47,100,0
0,57,100,0
0,42,100,0
0,59,100,0
0,40,100,0
0,71,100,0
0,68,100,0
0,64,100,0
0,59,100,0
0,52,100,0
0,76,100,0
0,56,100,0
0,42,100,0
0,59,100,0
0,35,100,0
0,71,100,0
0,68,100,0
0,64,100,0
0,59,100,0
0,52,100,0
0,76,100,0
0,66,110,0
0,40,100,0
0,57,100,0
0,42,100,0
0,59,100,0
0,35,100,0
0,52,100,0
0,59,100,0
0,52,100,0
0,68,110,0
0,42,100,0
0,59,100,0
0,66,110,0
0,42,100,0
0,59,100,0
0,40,100,0
0,76,100,0
0,71,100,0
0,68,100,0
0,64,100,0
0,59,100,0
0,52,100,0
0,68,110,0
0,42,100,0
0,59,100,0
0,35,100,0
0,67,110,0
0,42,100,0
0,59,100,0
0,68,110,0
0,40,100,0
0,42,100,0
0,59,100,0
0,35,100,0
0,52,100,0
0,59,100,0
0,64,100,0
0,68,100,0
0,71,100,0
0,76,100,0
0,66,110,0
0,42,100,0
0,59,100,0
0,40,100,0
0,52,100,0
0,59,100,0
0,64,100,0
0,68,100,0
0,71,100,0
0,76,100,0
0,68,110,0
0,40,100,0
0,42,100,0
0,59,100,0
0,35,100,0
0,52,100,0
0,59,100,0
0,64,100,0
0,68,100,0
0,71,100,0
0,76,100,0
0,66,110,0
0,40,100,0
0,42,100,0
0,59,100,0
0,35,100,0
0,59,100,0
0,52,100,0
0,68,110,0
0,42,100,0
0,59,100,0
0,68,110,0
0,42,100,0
0,59,100,0
0,40,100,0
0,76,100,0
0,71,100,0
0,68,100,0
0,64,100,0
0,59,100,0
0,52,100,0
0,42,100,0
0,59,100,0
0,35,100,0
0,71,110,0
0,42,100,0
0,59,100,0
0,40,100,0
0,42,100,0
0,59,100,0
0,35,100,0
0,71,100,0
0,68,100,0
0,64,100,0
0,59,100,0
0,52,100,0
0,76,100,0
0,42,100,0
0,59,100,0
0,40,100,0
0,71,100,0
0,68,100,0
0,64,100,0
0,59,100,0
0,52,100,0
0,76,100,0
0,42,100,0
0,42,100,0
0,59,100,0
0,35,100,0
0,71,100,0
0,68,100,0
0,64,100,0
0,59,100,0
0,52,100,0
0,76,100,0
0,66,110,0
0,44,100,0
0,42,100,0
0,52,100,0
0,59,100,0
0,35,100,0
0,56,100,0
0,68,110,0
0,42,100,0
0,59,100,0
0,66,110,0
0,42,100,0
0,59,100,0
0,40,100,0
0,80,100,0
0,75,100,0
0,71,100,0
0,68,100,0
0,63,100,0
0,56,100,0
