track,note,velocity,time
1,30,80,2
1,30,77,98
1,30,80,32
1,30,77,56
1,28,83,100
1,33,75,104
1,33,74,88
1,33,78,104
1,33,74,96
1,26,81,88
1,26,80,96
1,26,84,112
1,26,77,88
1,30,82,104
1,30,82,92
1,30,84,44
1,30,82,36
1,30,82,104
1,30,85,88
1,30,79,112
1,30,84,24
1,25,83,56
1,28,74,72
1,30,84,60
1,33,84,80
1,30,78,72
1,30,73,92
1,30,74,116
1,28,79,88
1,33,75,100
1,33,77,116
1,33,84,28
1,33,74,44
1,33,80,100
1,26,74,104
1,26,85,108
1,30,83,96
1,30,74,92
1,30,73,44
1,30,84,36
1,30,79,104
1,30,73,108
1,30,83,92
1,30,81,40
1,25,81,56
1,28,85,68
1,30,85,76
1,33,81,68
1,30,83,68
1,30,82,76
1,30,83,112
1,28,79,96
1,33,79,96
1,33,79,100
1,33,80,32
1,33,74,56
1,33,74,112
1,26,78,96
1,26,73,100
1,30,83,96
1,30,79,112
1,30,79,32
1,30,79,56
1,30,75,88
1,30,73,96
1,30,73,100
1,30,75,32
1,30,77,40
1,30,77,112
1,28,84,100
1,28,79,84
1,28,84,32
1,28,73,56
1,28,82,108
1,30,73,92
1,30,84,96
1,30,82,40
1,30,78,44
1,30,84,112
1,30,78,84
1,30,83,100
1,30,74,36
1,25,76,48
1,28,83,48
1,30,84,64
1,33,83,80
1,30,73,68
1,30,81,84
1,30,75,100
1,28,82,96
1,33,80,96
1,33,82,96
1,33,73,36
1,33,79,60
1,33,78,72
1,26,74,108
1,26,85,104
1,30,84,92
1,30,73,92
1,30,79,36
1,25,79,52
1,28,74,76
1,30,77,68
1,33,74,64
1,30,75,72
1,30,82,100
1,30,77,80
1,28,83,108
1,33,73,104
1,33,84,92
1,33,74,28
1,33,75,48
1,33,74,104
1,26,82,92
1,26,74,104
1,30,74,92
1,30,80,92
1,30,84,100
1,30,83,112
1,30,75,84
1,30,79,112
1,30,74,92
1,33,85,100
1,35,77,108
1,35,79,180
1,35,74,200
1,35,77,104
1,35,83,184
1,35,75,196
1,35,75,112
1,35,74,192
1,35,74,184
1,35,83,100
1,35,75,192
1,35,84,196
1,35,75,108
1,35,83,180
1,35,83,192
1,35,84,112
1,35,76,208
1,35,73,188
1,26,75,100
1,25,75,80
1,35,77,108
1,35,79,64
1,33,73,44
1,28,74,68
1,33,84,192
1,33,77,104
1,33,73,100
1,30,77,96
1,40,84,96
1,40,83,88
1,40,83,108
1,40,84,88
1,35,81,100
1,35,73,92
1,35,74,108
1,30,74,96
1,40,79,96
1,40,79,76
1,40,78,108
1,40,84,92
1,33,84,116
1,33,85,92
1,33,83,100
1,30,84,96
1,40,82,104
1,40,84,100
1,40,74,104
1,40,84,92
1,35,78,104
1,35,84,84
1,35,81,116
1,30,75,104
1,40,75,92
1,40,84,100
1,40,80,96
1,40,73,108
1,40,79,104
1,25,74,48
1,28,83,52
1,30,79,76
1,33,80,56
1,30,80,56
1,30,79,104
1,30,79,28
1,30,83,52
1,30,83,92
1,30,79,92
1,30,82,104
1,30,74,16
1,25,73,52
1,28,83,80
1,30,80,68
1,33,84,72
1,30,85,68
1,30,82,96
1,30,78,104
1,28,83,92
1,33,76,88
1,33,79,104
1,33,81,40
1,33,75,40
1,33,76,100
1,26,84,108
1,26,79,92
1,30,74,104
1,30,81,96
1,30,73,36
1,25,83,48
1,28,78,48
1,30,74,68
1,33,84,60
1,30,74,84
1,30,79,84
1,30,83,104
1,28,74,104
1,33,78,92
1,33,81,100
1,33,80,40
1,33,73,52
1,33,81,96
1,26,77,100
1,26,73,100
1,30,75,96
1,30,84,100
1,30,84,100
1,30,76,100
1,30,73,100
1,30,77,112
1,30,79,88
1,33,73,108
1,35,75,100
1,35,81,192
1,35,76,188
1,35,83,112
1,35,79,192
1,35,75,184
1,35,81,112
1,35,76,192
1,35,79,208
1,35,77,96
1,35,74,200
1,35,83,184
1,35,77,100
1,35,75,200
1,35,84,200
1,35,75,112
1,35,75,184
1,35,78,184
1,26,73,100
1,25,74,88
1,35,78,112
1,35,73,56
1,33,80,60
1,28,83,72
1,33,79,196
1,33,73,96
1,33,83,96
1,30,82,100
1,40,76,88
1,40,75,104
1,40,78,112
1,40,82,100
1,35,82,92
1,35,84,88
1,35,73,104
1,30,81,108
1,40,85,100
1,40,85,104
1,40,76,100
1,40,77,92
1,33,81,96
1,33,74,108
1,33,84,96
1,30,84,104
1,40,77,88
1,40,78,104
1,40,78,100
1,40,79,96
1,35,80,100
1,35,73,108
1,35,81,96
1,30,73,104
1,40,83,88
1,40,75,92
1,40,74,92
1,40,79,112
1,40,81,108
1,25,75,32
1,28,84,64
1,30,84,72
1,33,84,72
1,33,73,72
1,33,77,88
1,33,83,100
1,30,85,100
1,40,73,96
1,40,84,100
1,40,75,108
1,40,82,92
1,35,83,92
1,35,74,108
1,35,85,88
1,30,84,96
1,40,83,88
1,40,84,116
1,40,74,88
1,40,83,96
1,33,79,108
1,33,74,92
1,33,81,92
1,30,84,92
1,40,74,120
1,40,82,80
1,40,79,92
1,40,75,112
1,35,79,92
1,35,84,104
1,35,84,104
1,30,85,84
1,40,79,104
1,40,84,88
1,40,82,112
1,40,81,104
1,40,85,88
1,25,74,24
1,28,76,72
1,30,74,72
1,33,73,44
1,33,77,60
1,33,74,104
1,33,84,100
1,30,85,108
1,40,82,100
1,40,84,92
1,40,81,100
1,40,82,100
1,35,83,108
1,35,79,92
1,35,79,104
1,30,79,108
1,40,81,92
1,40,79,112
1,40,79,88
1,40,74,100
1,33,84,108
1,33,78,104
1,33,77,84
1,30,78,116
1,40,83,104
1,40,81,84
1,40,79,108
1,40,85,100
1,35,74,92
1,35,79,96
1,35,78,96
1,30,78,100
1,40,74,104
1,40,85,104
1,40,82,92
1,40,76,92
1,40,76,96
1,25,78,12
1,28,78,80
1,30,79,52
1,33,75,80
1,33,73,48
1,33,83,96
1,33,82,96
1,30,73,120
1,40,75,100
1,40,74,104
1,40,77,88
1,40,77,104
1,35,84,116
1,35,80,84
1,35,79,104
1,30,84,100
1,40,84,104
1,40,83,92
1,40,79,108
1,40,73,92
1,33,73,116
1,33,82,96
1,33,74,96
1,30,83,104
1,40,79,96
1,40,85,92
1,40,85,104
1,40,78,104
1,35,78,88
1,35,74,100
1,35,80,88
1,30,77,108
1,40,84,96
1,40,83,100
1,40,84,100
1,40,78,92
1,40,75,108
1,25,78,36
1,28,78,68
1,30,82,56
1,33,83,72
1,33,79,56
2,54,94,4
2,52,90,28
2,52,89,100
2,54,91,176
2,54,96,36
2,54,91,208
2,52,99,32
2,52,88,100
2,54,89,192
2,54,99,32
2,54,90,192
2,52,90,40
2,52,95,96
2,54,90,204
2,54,99,36
2,52,92,184
2,54,95,188
2,54,97,204
2,52,100,32
2,52,89,96
2,54,89,192
2,54,93,48
2,54,91,184
2,52,91,48
2,52,99,104
2,54,95,180
2,54,100,56
2,62,94,24
2,59,88,12
2,59,95,36
2,59,99,52
2,62,91,32
2,59,93,24
2,59,88,40
2,59,99,36
2,62,95,44
2,59,99,28
2,59,99,36
2,59,98,28
2,62,90,24
2,64,89,100
2,66,88,112
2,64,89,100
2,57,90,44
2,64,99,12
2,66,88,56
2,64,94,12
2,66,88,12
2,66,94,44
2,64,91,52
2,64,89,0
2,66,93,44
2,64,90,24
2,66,95,28
2,66,98,36
2,64,98,24
2,64,89,28
2,66,99,16
2,54,97,20
2,52,94,44
2,52,88,88
2,54,94,200
2,54,89,44
2,54,98,184
2,52,92,44
2,52,99,108
2,54,94,196
2,54,98,36
2,62,93,36
2,59,92,44
2,59,99,20
2,59,88,28
2,62,98,32
2,59,92,40
2,59,99,40
2,59,99,44
2,62,89,40
2,59,89,24
2,59,96,40
2,59,96,48
2,62,94,20
2,64,88,96
2,66,89,104
2,64,93,104
2,57,96,64
2,64,89,24
2,66,98,28
2,64,97,28
2,66,88,28
2,66,94,24
2,64,88,32
2,64,90,24
2,66,92,40
2,64,91,24
2,66,90,28
2,66,89,36
2,64,90,44
2,64,98,0
2,64,99,396
2,66,96,36
2,64,94,12
2,66,97,24
2,66,90,24
2,64,97,24
2,64,96,24
2,66,89,40
2,64,88,24
2,66,91,16
2,66,99,36
2,64,89,40
2,64,91,8
2,64,98,400
2,66,100,48
2,64,94,36
2,66,94,8
2,66,90,28
2,64,96,40
2,64,97,16
2,66,88,48
2,64,89,20
2,66,96,20
2,66,93,40
2,64,96,32
2,64,98,40
2,64,93,364
2,66,98,36
2,64,91,44
2,66,92,20
2,66,99,32
2,64,96,20
2,64,90,36
2,66,89,24
2,64,99,40
2,66,100,8
2,66,90,40
2,64,89,36
2,64,99,32
2,64,90,372
3,57,96,0
3,56,89,40
3,57,100,96
3,57,94,172
3,57,89,52
3,57,99,188
3,56,90,32
3,57,97,100
3,57,99,192
3,57,100,40
3,57,89,192
3,56,88,44
3,57,94,100
3,57,95,200
3,57,88,40
3,56,93,192
3,57,100,184
3,57,89,200
3,56,98,28
3,57,99,112
3,57,97,184
3,57,88,56
3,57,89,192
3,56,94,28
3,57,90,108
3,57,90,204
3,57,93,36
3,66,88,28
3,62,94,32
3,64,99,48
3,62,95,24
3,66,94,48
3,62,90,44
3,64,98,20
3,62,88,40
3,66,99,56
3,62,88,28
3,64,100,36
3,62,94,32
3,66,92,36
3,69,99,104
3,71,89,88
3,69,89,120
3,62,98,52
3,69,96,16
3,69,90,48
3,68,89,8
3,71,93,32
3,69,95,36
3,68,99,36
3,69,89,16
3,69,91,24
3,68,88,48
3,71,98,20
3,69,93,40
3,68,92,28
3,68,99,20
3,69,89,20
3,57,93,24
3,56,92,24
3,57,98,112
3,57,99,200
3,57,93,28
3,57,89,196
3,56,93,60
3,57,90,96
3,57,99,188
3,57,99,40
3,66,88,28
3,62,94,44
3,64,99,36
3,62,98,32
3,66,90,32
3,62,88,40
3,64,98,48
3,62,92,32
3,66,94,40
3,62,88,48
3,64,93,24
3,62,88,60
3,66,96,16
3,69,92,104
3,71,96,108
3,69,88,108
3,62,98,56
3,69,88,24
3,69,89,36
3,68,97,44
3,71,90,36
3,69,98,28
3,68,93,32
3,69,94,8
3,69,92,40
3,68,97,32
3,71,88,32
3,69,95,24
3,68,97,56
3,68,89,8
3,69,89,372
3,69,99,48
3,68,96,16
3,71,88,24
3,69,90,32
3,68,99,28
3,69,95,16
3,69,99,40
3,68,96,28
3,71,99,20
3,69,99,44
3,68,94,28
3,68,89,20
3,69,98,400
3,69,89,40
3,68,99,28
3,71,99,12
3,69,88,40
3,68,91,44
3,69,89,16
3,69,93,36
3,68,96,40
3,71,99,20
3,69,91,40
3,68,93,44
3,68,99,20
3,69,94,384
3,69,93,32
3,68,95,40
3,71,91,24
3,69,96,36
3,68,88,28
3,69,90,24
3,69,100,40
3,68,90,40
3,71,97,12
3,69,92,48
3,68,94,44
3,68,97,20
3,69,96,380
4,61,95,8
4,59,100,32
4,61,94,108
4,62,94,168
4,61,93,52
4,61,100,200
4,59,95,28
4,61,99,112
4,62,100,176
4,61,98,44
4,61,92,200
4,59,89,44
4,61,97,100
4,62,91,200
4,61,90,36
4,59,89,200
4,61,90,188
4,61,89,196
4,59,99,40
4,61,96,96
4,62,100,188
4,61,97,48
4,61,91,204
4,59,91,28
4,61,89,116
4,62,92,180
4,61,99,52
4,69,92,44
4,66,98,48
4,68,100,152
4,66,89,52
4,69,98,40
4,66,97,24
4,68,93,192
4,66,98,32
4,69,91,44
4,66,98,36
4,68,89,156
4,66,91,52
4,69,91,28
4,73,96,112
4,74,89,92
4,73,98,112
4,69,89,60
4,66,94,16
4,67,99,44
4,66,88,16
4,64,94,16
4,73,99,24
4,73,91,68
4,71,89,20
4,74,91,28
4,73,90,40
4,71,95,44
4,73,89,12
4,73,92,52
4,71,89,32
4,74,91,20
4,73,93,32
4,71,97,56
4,71,91,12
4,73,93,16
4,61,95,20
4,59,89,48
4,61,89,104
4,62,88,200
4,61,100,40
4,61,98,204
4,59,88,48
4,61,90,116
4,62,97,196
4,61,100,40
4,69,94,32
4,66,90,40
4,68,95,168
4,66,89,32
4,69,94,36
4,66,90,52
4,68,92,160
4,66,96,52
4,69,96,44
4,66,89,36
4,68,94,164
4,66,89,60
4,69,96,24
4,73,100,116
4,74,100,96
4,73,98,104
4,69,96,80
4,66,94,20
4,67,99,44
4,66,92,0
4,64,98,28
4,73,98,36
4,73,89,44
4,71,94,36
4,74,95,16
4,73,96,28
4,71,94,40
4,73,94,12
4,73,90,52
4,71,98,32
4,74,88,24
4,73,96,36
4,71,97,52
4,71,88,20
4,73,94,392
4,73,98,40
4,71,92,28
4,74,90,20
4,73,89,40
4,71,92,12
4,73,93,24
4,73,95,44
4,71,92,40
4,74,88,20
4,73,99,52
4,71,94,40
4,71,94,4
4,73,98,400
4,73,89,36
4,71,94,48
4,74,91,24
4,73,96,24
4,71,94,48
4,73,93,32
4,73,92,28
4,71,98,40
4,74,100,24
4,73,98,36
4,71,94,48
4,71,94,24
4,73,94,376
4,73,94,44
4,71,88,48
4,74,96,24
4,73,88,44
4,71,99,40
4,73,97,4
4,73,93,40
4,71,92,48
4,74,97,12
4,73,88,44
4,71,88,40
4,71,92,32
4,73,89,376
5,61,47,4
5,59,54,1160
5,61,51,88
5,62,32,1532
5,61,51,192
5,61,41,284
5,59,35,76
5,61,54,64
5,62,52,188
5,61,53,772
5,61,38,288
5,59,46,1168
5,61,32,88
5,62,55,212
5,61,52,56
5,59,51,3072
5,61,54,1264
5,61,47,208
5,59,49,1144
5,61,40,108
5,62,33,192
5,61,44,772
5,61,40,376
5,59,44,8
5,61,48,108
5,62,32,1528
5,61,33,656
5,69,47,336
5,66,54,112
5,68,34,168
5,66,42,68
5,69,44,112
5,66,56,588
5,68,37,188
5,66,33,572
5,69,50,136
5,66,44,592
5,68,44,32
5,66,46,28
5,69,33,948
5,73,49,116
5,74,43,96
5,73,33,100
5,69,34,84
5,66,50,24
5,67,41,32
5,66,40,12
5,64,43,40
5,73,47,20
5,73,43,52
5,71,51,72
5,74,38,220
5,73,46,88
5,71,32,88
5,73,35,0
5,73,40,52
5,71,43,52
5,74,36,1528
5,73,50,180
5,71,37,72
5,71,32,72
5,73,55,224
5,61,32,3060
5,59,44,56
5,61,44,96
5,62,51,160
5,61,34,56
5,61,47,236
5,59,54,52
5,61,37,100
5,62,33,1536
5,61,34,64
5,69,42,3076
5,66,35,40
5,68,53,192
5,66,43,572
5,69,54,28
5,66,53,596
5,68,38,156
5,66,46,112
5,69,54,944
5,66,46,128
5,68,34,948
5,66,35,104
5,69,34,36
5,73,51,44
5,74,48,140
5,73,37,96
5,69,54,52
5,66,33,36
5,67,45,1156
5,66,46,0
5,64,54,4
5,73,45,8
5,73,38,36
5,71,54,40
5,74,47,76
5,73,45,148
5,71,38,376
5,73,54,16
5,73,34,184
5,71,40,88
5,74,54,16
5,73,36,156
5,71,51,84
5,71,34,24
5,73,53,392
5,73,48,28
5,71,44,44
5,74,44,1536
5,73,55,32
5,71,54,36
5,73,55,1520
5,73,49,184
5,71,54,388
5,74,56,1524
5,73,56,44
5,71,32,40
5,71,35,76
5,73,45,536
5,73,46,196
5,71,46,52
5,74,47,152
5,73,40,1164
5,71,44,176
5,73,54,1500
5,73,34,44
5,71,42,24
5,74,41,180
5,73,54,40
5,71,39,36
5,71,35,0
5,73,42,192
5,73,50,0
5,71,35,52
5,74,36,160
5,73,50,1156
5,71,54,36
5,73,56,168
5,73,35,24
5,71,39,380
5,74,49,216
5,73,48,20
5,71,53,60
5,71,51,80
5,73,32,528
6,66,51,0
6,93,52,388
6,88,47,12
6,90,47,196
6,90,50,4
6,85,52,4
6,85,46,4
6,62,46,264
6,66,49,96
6,69,51,96
6,68,49,92
6,69,49,96
6,93,47,184
6,88,51,20
6,90,47,184
6,85,49,28
6,66,47,148
6,73,46,56
6,69,46,116
6,68,51,1152
6,69,47,104
6,93,51,184
6,88,49,36
6,90,49,16
6,85,52,40
6,66,50,76
