track,note,velocity,time
1,71,80,1926
1,83,89,2
1,83,103,22
1,78,69,14
1,76,62,58
1,47,86,26168
1,40,86,6
1,47,86,178
1,40,86,6
1,47,86,52
1,40,86,2
1,47,86,26
1,54,86,10
1,54,86,100
1,47,86,2
1,54,86,60
1,47,86,0
1,49,86,32
1,56,86,6
1,49,86,132
1,56,86,8
1,49,86,134
1,56,86,4
1,52,86,82
1,45,86,8
1,52,86,164
1,45,86,6
1,52,86,90
1,45,86,2
1,40,86,78
1,47,86,0
1,47,86,150
1,40,86,4
1,40,86,96
1,47,86,0
1,49,86,108
1,56,86,10
1,49,86,94
1,56,86,4
1,49,86,102
1,56,86,6
1,54,86,68
1,47,86,4
1,47,86,144
1,54,86,0
1,47,86,112
1,54,86,0
1,45,86,160
1,52,86,0
1,52,86,22
1,45,86,4
1,52,86,0
1,45,86,0
1,52,86,392
1,45,86,0
1,47,86,28
1,40,86,6
1,47,86,178
1,40,86,6
1,47,86,52
1,40,86,2
1,47,86,26
1,54,86,10
1,54,86,100
1,47,86,2
1,54,86,60
1,47,86,0
1,49,86,32
1,56,86,6
1,49,86,132
1,56,86,8
1,49,86,134
1,56,86,4
1,52,86,82
1,45,86,8
1,52,86,164
1,45,86,6
1,52,86,90
1,45,86,2
1,40,86,78
1,47,86,0
1,47,86,150
1,40,86,4
1,40,86,96
1,47,86,0
1,40,86,108
1,47,86,0
1,47,86,150
1,40,86,4
1,40,86,96
1,47,86,0
1,54,86,120
1,47,86,2
1,47,86,20
1,54,86,6
1,54,86,162
1,47,86,6
1,47,86,22
1,54,86,4
1,54,86,44
1,47,86,0
1,52,86,158
1,45,86,6
1,52,86,166
1,45,86,6
1,45,86,32
1,52,86,4
1,52,69,252
1,59,84,0
1,64,73,14
1,49,112,12314
1,56,126,0
1,49,59,44
1,56,86,4
1,49,51,52
1,56,63,4
1,56,127,120
1,49,118,0
1,49,71,56
1,56,100,2
1,49,64,54
1,56,86,4
1,49,106,72
1,56,126,2
1,49,83,70
1,56,106,2
1,49,112,88
1,56,127,2
1,56,90,72
1,49,77,4
1,49,61,70
1,56,77,2
1,49,100,86
1,56,126,2
1,49,75,76
1,56,100,0
1,49,67,72
1,56,86,2
1,56,127,98
1,49,118,4
1,49,80,74
1,56,95,4
1,52,103,74
1,45,101,14
1,45,101,38
1,52,101,10
1,52,92,92
1,45,92,4
1,52,106,80
1,45,117,12
1,45,103,44
1,52,92,14
1,45,100,96
1,52,90,10
1,52,122,102
1,45,122,4
1,45,90,64
1,52,86,16
1,45,109,94
1,52,106,0
1,45,86,60
1,52,82,4
1,45,72,60
1,52,79,18
1,52,117,104
1,45,122,8
1,52,88,66
1,45,100,0
1,52,79,66
1,45,80,0
1,52,113,94
1,45,106,2
1,52,95,66
1,45,100,8
1,49,77,66
1,56,112,4
1,56,100,66
1,49,75,4
1,49,43,46
1,56,83,18
1,49,100,84
1,56,127,4
1,49,67,72
1,56,95,0
1,49,67,70
1,56,90,4
1,49,100,82
1,56,127,4
1,49,69,68
1,56,90,8
1,49,106,80
1,56,127,2
1,56,83,56
1,49,67,0
1,49,80,82
1,56,100,0
1,56,118,72
1,49,95,0
1,49,61,54
1,56,77,4
1,56,83,82
1,49,65,0
1,49,112,88
1,56,127,4
1,49,80,62
1,56,100,8
1,45,92,88
1,52,117,4
1,52,44,32
1,45,88,118
1,52,106,0
1,52,113,86
1,45,100,0
1,45,72,70
1,52,106,4
1,45,80,86
1,52,97,0
1,45,103,66
1,52,117,0
1,52,86,54
1,45,69,0
1,54,126,58
1,47,100,0
1,47,86,58
1,54,106,0
1,54,86,54
1,47,76,4
1,47,97,74
1,54,126,0
1,47,70,50
1,54,83,0
1,47,109,84
1,54,127,0
1,47,86,74
1,40,86,6
1,47,86,178
1,40,86,6
1,47,86,52
1,40,86,2
1,47,86,26
1,54,86,10
1,54,86,100
1,47,86,2
1,54,86,60
1,47,86,0
1,49,86,32
1,56,86,6
1,49,86,132
1,56,86,8
1,49,86,134
1,56,86,4
1,52,86,82
1,45,86,8
1,52,86,164
1,45,86,6
1,52,86,90
1,45,86,2
1,40,86,78
1,47,86,0
1,47,86,150
1,40,86,4
1,40,86,96
1,47,86,0
1,49,86,108
1,56,86,10
1,49,86,94
1,56,86,4
1,49,86,102
1,56,86,6
1,54,86,68
1,47,86,4
1,47,86,144
1,54,86,0
1,47,86,112
1,54,86,0
1,45,86,160
1,52,86,0
1,52,86,22
1,45,86,4
1,52,86,0
1,45,86,0
1,52,86,392
1,45,86,0
1,47,86,28
1,40,86,6
1,47,86,178
1,40,86,6
1,47,86,52
1,40,86,2
1,47,86,26
1,54,86,10
1,54,86,100
1,47,86,2
1,54,86,60
1,47,86,0
1,49,86,32
1,56,86,6
1,49,86,132
1,56,86,8
1,49,86,134
1,56,86,4
1,52,86,82
1,45,86,8
1,52,86,164
1,45,86,6
1,52,86,90
1,45,86,2
1,40,86,78
1,47,86,0
1,47,86,150
1,40,86,4
1,40,86,96
1,47,86,0
1,40,86,108
1,47,86,0
1,47,86,150
1,40,86,4
1,40,86,96
1,47,86,0
1,54,86,120
1,47,86,2
1,47,86,20
1,54,86,6
1,54,86,162
1,47,86,6
1,47,86,22
1,54,86,4
1,54,86,44
1,47,86,0
1,52,86,158
1,45,86,6
1,52,86,166
1,45,86,6
1,45,86,32
1,52,86,4
1,68,106,252
1,64,97,0
1,59,84,0
1,64,113,14
1,68,127,0
1,59,100,8
1,68,118,172
1,64,109,4
1,59,103,4
1,69,103,36
1,61,106,4
1,64,109,0
1,68,83,22
1,59,109,6
1,64,100,0
1,59,103,118
1,54,126,0
1,47,100,6
1,54,106,64
1,59,97,4
1,47,84,0
1,52,113,66
1,57,100,0
1,45,95,2
1,52,106,58
1,57,106,2
1,45,97,2
1,52,100,172
1,45,82,4
1,57,103,2
1,45,103,36
1,52,117,0
1,57,100,0
1,52,103,78
1,57,95,2
1,45,82,4
1,54,100,88
1,59,106,10
1,47,77,0
1,54,100,88
1,59,100,4
1,47,92,0
1,54,95,126
1,47,86,4
1,59,95,0
1,54,100,108
1,47,103,8
1,59,103,0
1,57,109,126
1,52,122,0
1,45,106,2
1,57,100,386
1,45,97,2
1,52,106,0
1,57,106,318
1,52,113,0
1,45,100,2
1,47,86,158
1,40,86,6
1,47,86,178
1,40,86,6
1,47,86,52
1,40,86,2
1,47,86,26
1,54,86,10
1,54,86,100
1,47,86,2
1,54,86,60
1,47,86,0
1,49,86,32
1,56,86,6
1,49,86,132
1,56,86,8
1,49,86,134
1,56,86,4
1,52,86,82
1,45,86,8
1,52,86,164
1,45,86,6
1,52,86,90
1,45,86,2
1,47,86,78
1,40,86,6
1,47,86,178
1,40,86,6
1,47,86,52
1,40,86,2
1,47,86,26
1,54,86,10
1,54,86,100
1,47,86,2
1,54,86,60
1,47,86,0
1,42,86,52
1,49,86,6
1,42,86,132
1,49,86,8
1,42,86,134
1,49,86,6
1,52,86,62
1,45,86,8
1,52,86,164
1,45,86,6
1,52,86,90
1,45,86,2
1,66,126,92
1,47,109,0
1,59,92,0
1,64,113,36
1,63,118,60
1,47,86,66
1,40,86,6
1,47,86,178
1,40,86,6
1,47,86,52
1,40,86,2
1,47,86,26
1,54,86,10
1,54,86,100
1,47,86,2
1,54,86,60
1,47,86,0
1,49,86,32
1,56,86,6
1,49,86,132
1,56,86,8
1,49,86,134
1,56,86,4
1,52,86,82
1,45,86,8
1,52,86,164
1,45,86,6
1,52,86,90
1,45,86,2
1,40,86,78
1,47,86,0
1,47,86,150
1,40,86,4
1,40,86,96
1,47,86,0
1,49,86,108
1,56,86,10
1,49,86,94
1,56,86,4
1,49,86,102
1,56,86,6
1,54,86,68
1,47,86,4
1,47,86,144
1,54,86,0
1,47,86,112
1,54,86,0
1,45,86,160
1,52,86,0
1,52,86,22
1,45,86,4
1,52,86,0
1,45,86,0
1,52,86,392
1,45,86,0
1,47,86,28
1,40,86,6
1,47,86,178
1,40,86,6
1,47,86,52
1,40,86,2
1,47,86,26
1,54,86,10
1,54,86,100
1,47,86,2
1,54,86,60
1,47,86,0
1,49,86,32
1,56,86,6
1,49,86,132
1,56,86,8
1,49,86,134
1,56,86,4
1,52,86,82
1,45,86,8
1,52,86,164
1,45,86,6
1,52,86,90
1,45,86,2
1,40,86,78
1,47,86,0
1,47,86,150
1,40,86,4
1,40,86,96
1,47,86,0
1,49,86,108
1,56,86,10
1,49,86,94
1,56,86,4
1,49,86,102
1,56,86,6
1,54,86,68
1,47,86,4
1,47,86,144
1,54,86,0
1,47,86,112
1,54,86,0
1,45,86,160
1,52,86,0
1,52,86,22
1,45,86,4
1,52,86,0
1,45,86,0
1,52,86,392
1,45,86,0
1,47,109,28
1,40,109,6
1,47,109,402
1,40,109,6
1,47,109,382
1,40,109,2
1,47,109,26
1,54,109,10
1,54,109,380
1,47,109,2
1,54,109,372
1,47,109,0
1,49,109,32
1,56,109,6
1,49,109,364
1,56,109,8
1,49,109,392
1,56,109,4
1,52,109,82
1,45,109,8
1,52,109,386
1,45,109,6
1,52,109,380
1,45,109,2
1,47,109,0
1,40,109,6
1,47,109,402
1,40,109,6
1,47,109,190
1,40,109,2
1,47,109,26
1,54,109,10
1,54,109,188
1,47,109,2
1,54,109,372
1,47,109,0
1,49,109,32
1,56,109,6
1,49,109,364
1,56,109,8
1,49,109,8
1,56,109,4
1,52,109,82
1,45,109,8
1,52,109,2
1,45,109,6
1,52,109,380
1,45,109,2
1,47,109,0
1,40,109,6
1,47,109,402
1,40,109,6
1,47,109,190
1,40,109,2
1,47,109,26
1,54,109,10
1,54,109,380
1,47,109,2
1,54,109,372
1,47,109,0
1,49,109,32
1,56,109,6
1,49,109,364
1,56,109,8
1,49,109,8
1,56,109,4
1,52,109,82
1,45,109,8
1,52,109,2
1,45,109,6
1,52,109,380
1,45,109,2
2,40,69,1176
2,40,86,42
2,35,86,194
2,40,89,192
2,40,86,34
2,31,80,228
2,32,63,24
2,35,72,28
2,37,75,192
2,35,74,188
2,40,95,190
2,40,77,24
2,37,69,48
2,35,82,26
2,40,69,4
2,40,95,42
2,35,74,194
2,40,86,192
2,40,86,34
2,31,80,228
2,32,63,24
2,35,72,28
2,37,75,192
2,35,74,188
2,40,83,190
2,40,77,24
2,37,69,48
2,35,82,26
2,40,69,4
2,40,86,42
2,35,86,194
2,40,89,192
2,40,86,34
2,31,80,228
2,32,63,24
2,35,72,28
2,37,75,192
2,35,74,188
2,40,95,190
2,40,77,24
2,37,69,48
2,35,82,26
2,40,69,4
2,40,95,42
2,35,74,194
2,40,86,192
2,40,86,34
2,31,80,228
2,32,63,24
2,35,72,28
2,37,75,192
2,35,74,188
2,40,83,190
2,40,77,24
2,37,69,48
2,35,82,26
2,40,69,4
2,40,86,42
2,35,86,194
2,40,89,192
2,40,86,34
2,31,80,228
2,32,63,24
2,35,72,28
2,37,75,192
2,35,74,188
2,40,95,190
2,40,77,24
2,37,69,48
2,35,82,26
2,40,69,4
2,40,95,42
2,35,74,194
2,40,86,192
2,40,86,34
2,31,80,228
2,32,63,24
2,35,72,28
2,37,75,192
2,35,74,188
2,40,83,190
2,40,77,24
2,37,69,48
2,35,82,26
2,40,69,4
2,40,86,42
2,35,86,194
2,40,89,192
2,40,86,34
2,31,80,228
2,32,63,24
2,35,72,28
2,37,75,192
2,35,74,188
2,40,95,190
2,40,77,24
2,37,69,48
2,35,82,26
2,40,69,4
2,40,95,42
2,35,74,194
2,40,86,192
2,40,86,34
2,31,80,228
2,32,63,24
2,35,72,28
2,37,75,192
2,35,74,188
2,40,83,190
2,40,77,24
2,37,69,48
2,35,82,26
2,37,92,4
2,37,92,22
2,32,98,206
2,37,98,38
2,37,95,64
2,44,100,210
2,49,83,48
2,32,90,0
2,37,98,54
2,37,106,42
2,39,90,42
2,40,86,24
2,33,90,8
2,33,92,30
2,28,76,226
2,33,82,28
2,35,82,10
2,37,77,20
2,33,98,0
2,35,84,0
2,35,92,32
2,30,65,228
2,35,82,26
2,37,75,192
2,39,75,20
2,35,90,10
2,40,69,4
2,40,86,42
2,35,86,194
2,40,89,192
2,40,86,34
2,31,80,228
2,32,63,24
2,35,72,28
2,37,75,192
2,35,74,188
2,40,95,190
2,40,77,24
2,37,69,48
2,35,82,26
2,40,69,4
2,40,95,42
2,35,74,194
2,40,86,192
2,40,86,34
2,31,80,228
2,32,63,24
2,35,72,28
2,37,75,192
2,35,74,188
2,40,83,190
2,40,77,24
2,37,69,48
2,35,82,26
2,40,69,4
2,40,86,42
2,35,86,194
2,40,89,192
2,40,86,34
2,31,80,228
2,32,63,24
2,35,72,28
2,37,75,192
2,35,74,188
2,40,95,190
2,40,77,24
2,37,69,48
2,35,82,26
2,40,69,4
2,40,95,42
2,35,74,194
2,40,86,192
2,40,86,34
2,31,80,228
2,32,63,24
2,35,72,28
2,37,75,192
2,35,74,188
2,40,83,190
2,40,77,24
2,37,69,48
2,35,82,26
2,40,69,4
2,40,86,42
2,35,86,194
2,40,89,192
2,40,86,34
2,31,80,228
2,32,63,24
2,35,72,28
2,37,75,192
2,35,74,188
2,40,95,190
2,40,77,24
2,37,69,48
2,35,82,26
2,40,69,4
2,40,95,42
2,35,74,194
2,40,86,192
2,40,86,34
2,31,80,228
2,32,63,24
2,35,72,28
2,37,75,192
2,35,74,188
2,40,83,190
2,40,77,24
2,37,69,48
2,35,82,26
2,37,92,4
2,37,92,22
2,32,98,206
2,37,98,38
2,37,95,64
2,44,100,210
2,49,83,48
2,32,90,0
2,37,98,54
2,37,106,42
2,39,90,42
2,40,86,24
2,33,90,8
2,33,92,30
2,28,76,226
2,33,82,28
2,35,82,10
2,37,77,20
2,33,98,0
2,35,84,0
2,35,92,32
2,30,65,228
2,35,82,26
2,37,75,192
2,39,75,20
2,35,90,10
2,28,90,4
2,28,90,46
2,28,90,66
2,28,90,62
2,28,90,44
2,30,90,36
2,32,90,192
2,28,90,8
2,35,90,16
2,35,90,76
2,35,90,74
2,35,90,66
2,35,90,68
2,37,90,48
2,39,90,10
2,35,90,16
2,37,90,26
2,37,90,54
2,37,90,64
2,37,90,62
2,37,90,68
2,39,90,38
2,40,90,46
2,44,90,24
2,45,90,10
2,45,90,68
2,45,90,54
2,40,90,46
2,45,90,0
2,44,90,4
2,42,90,8
2,37,90,20
2,40,90,30
2,40,90,70
2,40,90,62
2,40,90,58
2,40,90,70
2,42,90,54
2,44,90,28
2,40,90,36
2,37,90,6
2,37,90,86
2,37,90,80
2,37,90,54
2,37,90,72
2,39,90,32
2,40,90,26
2,37,90,12
2,35,90,36
2,35,90,52
2,35,90,32
2,35,90,52
2,35,90,36
2,35,90,52
2,35,90,28
2,35,90,56
2,45,90,12
2,45,90,54
2,45,90,72
2,40,90,58
2,45,90,12
2,35,90,40
2,37,90,14
2,39,90,10
2,28,90,192
2,28,90,46
2,28,90,66
2,28,90,62
2,28,90,44
2,30,90,36
2,32,90,192
2,28,90,8
2,35,90,16
2,35,90,76
2,35,90,74
2,35,90,66
2,35,90,68
2,37,90,48
2,39,90,10
2,35,90,16
2,37,90,26
2,37,90,54
2,37,90,64
2,37,90,62
2,37,90,68
2,39,90,38
2,40,90,46
2,44,90,24
2,45,90,10
2,45,90,68
2,45,90,54
2,40,90,46
2,45,90,0
2,44,90,4
2,42,90,8
2,37,90,20
2,28,90,30
2,28,90,92
2,28,90,38
2,28,90,68
2,28,90,56
2,28,90,56
2,28,90,42
2,28,90,66
2,28,90,50
2,28,90,74
2,28,90,34
2,28,90,56
2,28,90,28
2,28,90,70
2,28,90,24
2,28,90,40
2,35,90,22
2,35,90,76
2,35,90,66
2,35,90,78
2,35,90,62
2,35,90,82
2,35,90,72
2,35,90,78
2,33,90,232
2,33,90,222
2,33,90,64
2,35,90,44
2,37,90,24
2,35,90,48
2,40,69,12
2,40,86,42
2,35,86,194
2,40,89,192
2,40,86,34
2,31,80,228
2,32,63,24
2,35,72,28
2,37,75,192
