track,note,velocity,time
1,56,94,178
1,56,65,230
1,54,86,150
1,40,104,344
1,42,104,32
1,51,76,386
1,52,107,22
1,51,72,352
1,52,104,30
1,52,65,48
1,40,110,168
1,49,110,4
1,47,103,18
1,44,98,2
1,42,105,8
1,40,90,36
1,42,90,44
1,40,90,5534
1,42,90,46
1,35,112,196
1,47,118,2
1,40,108,44
1,39,108,106
1,39,108,228
1,38,108,128
1,38,108,118
1,37,108,12
1,33,108,128
1,28,108,242
1,33,108,6
1,44,108,166
1,40,108,128
1,39,108,60
1,37,108,34
1,35,108,26
1,35,108,4
1,35,108,4
1,35,108,4
1,35,108,4
1,35,108,4
1,35,108,4
1,37,108,4
1,35,108,4
1,33,108,4
1,33,108,104
1,35,108,8
1,37,108,40
1,37,108,4
1,40,108,28
1,37,108,26
1,35,108,28
1,35,108,66
1,35,108,78
1,30,108,4
1,32,108,4
1,35,108,4
1,35,108,132
1,35,108,56
1,31,108,4
1,32,108,4
1,33,108,4
1,33,108,104
1,35,108,8
1,37,108,40
1,37,108,4
1,40,108,28
1,37,108,26
1,35,108,28
1,35,108,36
1,35,108,62
1,35,108,32
1,37,108,58
1,35,108,128
1,35,108,40
1,37,108,44
1,35,108,64
1,33,108,8
1,35,108,8
1,33,108,6
1,32,108,10
1,28,108,10
1,32,108,194
1,35,108,128
1,32,108,198
1,37,108,10
1,37,108,4
1,39,108,34
1,40,108,34
1,33,108,4
1,32,108,136
1,30,108,24
1,28,108,20
1,37,108,30
1,32,108,128
1,35,108,32
1,40,108,1580
1,39,108,106
1,39,108,228
1,38,108,128
1,38,108,118
1,37,108,12
1,33,108,128
1,28,108,242
1,33,108,6
1,44,108,4
1,40,108,128
1,39,108,60
1,37,108,34
1,35,108,26
1,35,108,4
1,35,108,4
1,35,108,4
1,35,108,4
1,35,108,4
1,35,108,4
1,32,108,2
1,30,108,6
1,28,108,4
1,40,108,44
1,39,108,44
1,39,108,170
1,38,108,52
1,38,108,56
1,40,108,128
1,38,108,2
1,37,108,128
1,36,108,238
1,40,108,4
1,35,108,54
1,32,108,70
1,30,108,16
1,30,108,42
1,30,108,52
1,30,108,38
1,32,108,16
1,35,108,128
1,35,108,38
1,32,108,22
1,35,108,64
1,30,108,62
1,32,108,42
1,35,108,58
1,32,108,40
1,33,108,54
1,33,108,104
1,35,108,8
1,37,108,40
1,37,108,4
1,40,108,28
1,37,108,26
1,35,108,28
1,35,108,66
1,35,108,78
1,30,108,4
1,32,108,4
1,35,108,4
1,35,108,132
1,35,108,56
1,31,108,4
1,32,108,4
1,33,108,4
1,33,108,104
1,35,108,8
1,37,108,40
1,37,108,4
1,40,108,28
1,37,108,26
1,35,108,28
1,35,108,36
1,35,108,62
1,35,108,32
1,37,108,58
1,35,108,128
1,35,108,40
1,37,108,44
1,35,108,64
1,33,108,8
1,35,108,8
1,33,108,6
1,32,108,10
1,28,108,10
1,32,108,194
1,35,108,128
1,32,108,198
1,37,108,10
1,37,108,4
1,39,108,34
1,40,108,34
1,33,108,4
1,32,108,136
1,30,108,24
1,28,108,20
1,37,108,30
1,32,108,128
1,35,108,32
1,35,108,132
1,35,108,4
1,33,108,4
1,33,108,38
1,33,108,46
1,33,108,42
1,33,108,52
1,33,108,52
1,33,108,14
1,33,108,68
1,33,108,24
1,28,108,48
1,32,108,194
1,35,108,128
1,32,108,198
1,37,108,10
1,35,108,0
1,33,108,8
1,32,108,136
1,30,108,24
1,28,108,20
1,37,108,30
1,32,108,128
1,35,108,32
1,35,108,132
1,35,108,4
1,33,108,4
1,33,108,38
1,33,108,46
1,33,108,42
1,33,108,52
1,33,108,52
1,33,108,14
1,33,108,68
1,33,108,24
1,38,108,48
1,38,108,152
1,33,108,2
1,33,108,78
1,34,108,30
1,35,108,16
1,35,108,42
1,36,108,24
1,38,108,22
1,31,108,34
1,31,108,50
1,38,108,4
1,38,108,72
1,33,108,24
1,33,108,12
1,33,108,52
1,31,108,4
1,31,108,42
1,31,108,50
1,31,108,50
1,31,108,50
1,31,108,48
1,31,108,44
1,31,108,50
1,31,108,48
1,31,108,48
1,31,108,44
1,31,108,44
1,33,108,44
1,33,108,102
1,35,108,18
1,37,108,34
1,37,108,58
1,40,108,18
1,37,108,36
1,35,108,26
1,35,108,38
1,37,108,14
1,40,108,4
1,37,108,40
1,35,108,32
1,35,108,64
1,37,108,36
1,35,108,36
1,34,108,40
1,33,108,44
1,33,108,114
1,35,108,10
1,37,108,44
1,37,108,26
1,37,108,66
1,35,108,12
1,35,108,74
1,35,108,62
1,35,108,76
1,35,108,68
1,35,108,70
1,35,108,66
1,35,108,64
1,35,108,64
1,35,108,64
1,35,108,66
1,35,108,62
1,28,108,58
1,32,108,194
1,35,108,128
1,32,108,198
1,37,108,10
1,37,108,4
1,39,108,34
1,40,108,34
1,33,108,4
1,32,108,136
1,30,108,24
1,28,108,20
1,37,108,30
1,32,108,128
1,35,108,32
1,35,108,132
1,35,108,4
1,33,108,4
1,33,108,38
1,33,108,46
1,33,108,42
1,33,108,52
1,33,108,52
1,33,108,14
1,33,108,68
1,33,108,24
1,28,108,48
1,32,108,194
1,35,108,128
1,32,108,198
1,37,108,10
1,37,108,4
1,39,108,34
1,40,108,34
1,33,108,4
1,32,108,136
1,30,108,24
1,28,108,20
1,37,108,30
1,32,108,128
1,35,108,32
1,35,108,132
1,35,108,4
1,33,108,4
1,33,108,38
1,33,108,46
1,33,108,42
1,33,108,52
1,33,108,52
1,33,108,14
1,33,108,68
1,33,108,24
1,28,108,48
1,37,108,30
1,32,108,128
1,35,108,32
1,35,108,132
1,35,108,4
1,33,108,4
1,33,108,38
1,33,108,46
1,33,108,42
1,33,108,52
1,33,108,52
1,33,108,14
1,33,108,68
1,33,108,24
1,28,100,48
1,59,108,3524
1,52,108,4
1,59,108,4
1,52,58,0
1,51,108,24
1,57,108,0
1,50,61,16
1,57,109,20
1,59,109,2
1,52,108,26
1,57,108,0
1,57,108,60
1,52,108,4
1,47,108,8
1,52,83,0
1,51,110,4
1,40,88,4
1,35,88,4
1,40,88,4
1,51,88,2
1,57,88,0
1,50,58,16
1,57,88,20
1,50,71,2
1,50,46,2
1,59,88,0
1,45,64,782
1,52,78,0
1,40,73,8
1,40,88,128
1,35,88,4
1,40,88,4
1,51,88,4
1,57,88,0
1,50,58,16
1,57,88,20
1,50,71,2
1,50,46,2
1,59,88,0
1,45,64,128
1,52,78,0
1,40,73,6
2,68,90,404
2,68,90,70
2,68,90,54
2,68,90,82
2,66,90,14
2,66,90,78
2,66,78,182
2,66,63,40
2,68,55,22
2,71,78,126
2,64,70,76
2,64,75,128
2,62,59,52
2,64,60,8
2,60,69,0
2,57,35,70
2,60,52,16
2,57,28,30
2,59,77,10
2,61,78,2
2,59,70,6
2,56,78,8
2,54,58,0
2,51,70,8
2,54,64,60
2,59,61,8
2,63,58,6
2,49,55,5094
2,51,61,0
2,54,64,120
2,59,65,8
2,63,70,6
2,68,68,126
2,66,57,64
2,50,38,14
2,54,46,20
2,59,53,20
2,66,60,20
2,66,65,186
2,66,63,40
2,68,55,22
2,71,65,126
2,64,57,76
2,52,38,60
2,57,46,20
2,60,53,20
2,64,60,20
2,64,60,78
2,60,59,0
2,57,35,70
2,60,52,16
2,57,28,30
2,59,77,10
2,61,78,2
2,59,70,6
2,56,78,8
2,54,58,0
2,51,70,8
2,54,64,60
2,63,85,12
2,61,80,150
2,63,73,12
2,61,60,64
2,63,85,2
2,61,80,0
2,63,66,16
2,61,71,2
2,63,76,8
2,61,76,160
2,63,64,8
2,61,68,64
2,63,71,2
2,61,85,88
2,59,83,14
2,61,71,2
2,59,68,1126
2,69,68,2
2,57,68,12
2,68,68,0
2,56,68,128
2,66,68,34
2,54,68,16
2,64,68,4
2,52,68,2
2,63,68,42
2,51,68,4
2,61,68,6
2,49,68,6
2,59,68,4
2,47,68,4
2,68,68,6148
2,68,54,68
2,51,33,4
2,59,37,20
2,63,43,20
2,66,51,20
2,50,32,10
2,54,35,20
2,59,39,20
2,66,45,20
2,66,53,186
2,66,62,10
2,68,74,22
2,71,68,126
2,64,59,76
2,52,38,60
2,57,46,20
2,60,53,20
2,64,60,20
2,60,59,4
2,60,52,16
2,59,66,4
2,61,72,2
2,59,64,6
2,56,72,8
2,54,58,0
2,51,70,8
2,54,64,60
2,56,83,6
2,59,77,12
2,56,72,128
2,54,83,14
2,56,83,12
2,59,70,84
2,59,74,60
2,56,76,16
2,54,81,14
2,52,65,10
2,63,75,12
2,61,75,150
2,63,75,12
2,61,75,64
2,63,75,2
2,61,75,0
2,63,75,16
2,61,75,2
2,63,75,8
2,61,75,160
2,63,75,8
2,61,75,64
2,63,75,2
2,61,75,88
2,59,75,14
2,61,75,2
2,63,75,12
2,61,75,162
2,63,75,12
2,61,75,64
2,63,75,2
2,61,75,0
2,63,75,16
2,61,75,2
2,63,75,8
2,61,75,160
2,63,75,8
2,61,75,64
2,63,75,2
2,61,75,88
2,59,75,14
2,61,75,2
2,68,90,21734
2,68,90,70
2,68,90,54
2,68,90,82
2,66,90,14
2,66,90,78
2,66,78,182
2,66,63,40
2,68,55,22
2,71,78,126
2,64,70,76
2,64,75,128
2,62,59,52
2,64,60,8
2,60,69,0
2,57,35,70
2,60,52,16
2,57,28,30
2,59,77,10
2,61,78,2
2,59,70,6
2,56,78,8
2,54,58,0
2,51,70,8
2,54,64,60
2,59,61,8
2,63,58,6
2,68,90,126
2,68,90,70
2,68,90,54
2,68,90,82
2,66,90,14
2,66,90,78
2,66,78,182
2,66,63,40
2,68,55,22
2,71,78,126
2,64,70,76
2,64,75,128
2,62,59,52
2,64,60,8
2,60,69,0
2,57,35,70
2,60,52,16
2,57,28,30
2,59,77,10
2,61,78,2
2,59,70,6
2,56,78,8
2,54,58,0
2,51,70,6
2,54,64,60
2,59,61,8
2,63,58,4
2,68,90,126
2,68,90,70
2,68,90,54
2,68,90,82
2,66,90,14
2,66,90,78
2,66,78,128
2,66,63,40
2,68,55,22
2,71,78,120
2,64,70,2
2,64,75,4
2,62,59,52
2,64,60,8
2,60,69,0
2,57,35,70
2,60,52,2
2,57,28,30
2,59,77,10
2,61,78,2
2,59,70,6
2,56,78,8
2,54,58,0
2,51,70,6
2,54,64,60
2,59,61,8
2,63,58,4
3,71,100,6806
3,68,92,0
3,71,89,6
3,68,89,76
3,71,106,2
3,68,83,122
3,71,89,0
3,73,105,2
3,71,93,220
3,71,105,46
3,71,95,258
3,68,74,60
3,71,100,60
3,68,87,74
3,71,100,60
3,73,98,108
3,71,95,22
3,71,109,24
3,69,103,194
3,69,103,38
3,69,83,430
3,69,103,46
3,69,100,40
3,69,95,48
3,68,89,222
3,68,103,46
3,68,92,154
3,66,89,194
3,66,82,54
3,64,80,128
3,66,78,116
3,76,115,466
3,76,106,34
3,76,105,36
3,76,100,46
3,76,106,52
3,73,105,6
3,76,109,24
3,73,109,60
3,76,109,24
3,73,109,64
3,76,118,6
3,73,98,118
3,76,106,116
3,73,118,2
3,71,118,4
3,76,111,188
3,76,111,30
3,76,115,30
3,76,106,34
3,76,109,34
3,78,127,80
3,71,127,204
3,71,111,86
3,73,106,18
3,69,118,12
3,69,95,206
3,69,95,30
3,68,74,2
3,69,100,2
3,76,118,26
3,68,102,132
3,66,82,2
3,68,100,114
3,68,127,250
3,66,118,52
3,66,127,40
3,64,126,6
3,66,127,14
3,73,127,402
3,76,127,64
3,76,106,24
3,76,118,84
3,76,111,46
3,73,108,26
3,76,127,54
3,76,115,38
3,76,111,60
3,78,104,112
3,76,104,122
3,76,124,42
3,75,124,24
3,76,111,758
3,76,124,66
3,76,109,36
3,76,127,78
3,76,124,64
3,73,124,124
3,76,118,16
3,76,111,36
3,76,106,56
3,78,105,42
3,76,103,68
3,80,127,56
3,78,106,14
3,80,127,116
3,78,127,38
3,76,127,112
3,78,127,34
3,80,126,40
3,80,109,34
3,80,118,42
3,80,118,52
3,78,115,10
3,76,121,12
3,73,127,122
3,71,111,150
3,76,127,130
3,78,104,60
3,80,121,60
3,80,109,46
3,80,100,48
3,80,98,50
3,81,109,32
3,80,109,38
3,80,109,38
3,76,100,12
3,76,115,34
3,78,103,20
3,80,127,42
3,83,124,112
3,80,105,34
3,80,111,52
3,78,103,120
3,80,105,4
3,80,105,2
3,80,104,132
3,78,104,26
3,76,100,24
3,68,118,560
3,71,100,92
3,71,103,104
3,68,103,8
3,71,109,18
3,68,104,60
3,71,104,4
3,68,84,54
3,73,106,72
3,71,103,8
3,71,106,56
3,71,109,246
3,68,95,0
3,71,98,20
3,68,104,58
3,71,106,4
3,73,127,54
3,71,100,10
3,71,111,68
3,73,98,234
3,69,115,10
3,69,92,238
3,69,94,30
3,69,95,28
3,69,100,30
3,69,105,38
3,71,100,12
3,69,92,14
3,69,100,46
3,68,103,32
3,68,104,44
3,68,109,22
3,68,124,94
3,66,106,146
3,66,124,150
3,64,94,18
3,66,103,128
3,68,111,220
3,76,98,464
3,76,95,34
3,76,95,36
3,76,109,28
3,76,118,24
3,76,106,64
3,73,92,0
3,76,100,34
3,73,100,2
3,76,103,0
3,78,106,10
3,73,98,36
3,71,100,24
3,76,124,232
3,76,127,38
3,76,104,90
3,71,109,92
3,73,82,4
3,73,97,2
3,69,105,18
3,69,115,228
3,69,124,94
3,76,124,20
3,69,121,66
3,68,118,0
3,68,109,56
3,68,118,274
3,66,105,26
3,66,103,22
3,64,106,36
3,66,106,0
3,68,109,10
3,76,127,370
3,76,104,48
3,76,115,58
3,76,113,56
3,76,104,44
3,73,118,64
3,76,102,80
3,76,104,30
3,76,104,24
3,76,111,20
3,78,106,128
3,76,106,16
3,76,115,54
3,78,93,256
3,76,80,36
3,75,111,64
3,76,124,694
3,76,127,40
3,76,109,40
3,76,113,44
3,76,118,46
3,76,100,54
3,76,103,60
3,76,109,60
3,76,106,42
3,76,113,50
3,80,127,42
3,78,124,22
3,76,127,10
3,80,127,26
3,78,106,0
3,78,127,40
3,80,127,58
3,80,111,16
3,80,106,28
3,80,109,28
3,80,115,16
3,80,124,28
3,80,127,210
3,80,124,54
3,80,124,40
3,80,127,42
3,78,124,18
3,76,115,14
3,73,127,36
3,71,124,40
3,76,127,44
3,78,127,28
3,80,127,36
3,80,109,32
3,80,111,36
3,80,124,44
3,81,111,128
3,80,113,8
3,80,127,30
3,76,126,192
3,76,127,64
3,78,121,22
3,80,127,30
3,83,126,160
3,80,124,20
3,80,127,70
3,78,127,44
3,80,127,50
3,80,127,22
3,78,127,30
3,76,127,58
3,76,106,454
3,78,111,66
3,80,127,42
3,80,124,34
3,80,124,38
3,80,127,38
3,78,127,22
3,76,111,18
3,76,111,2
3,73,124,54
3,71,113,10
3,76,127,52
3,78,109,24
3,80,127,40
3,80,127,38
3,80,121,38
3,80,127,46
3,81,115,128
3,80,103,308
3,80,115,20
3,76,100,128
3,76,118,26
3,78,124,36
3,80,127,32
3,83,127,48
3,80,110,10
3,80,127,28
3,78,105,192
3,80,115,116
3,80,127,26
3,78,111,6
3,76,127,6
3,76,124,468
3,73,127,30
3,76,124,6018
3,76,127,44
3,76,103,62
3,76,106,28
3,76,103,48
3,73,118,2
3,76,111,32
3,76,111,46
3,76,106,40
3,78,124,128
3,76,111,0
3,76,118,30
3,75,105,0
3,76,127,686
3,76,127,40
3,76,106,58
3,76,111,14
3,76,103,38
3,76,95,38
3,76,105,20
3,76,105,62
3,80,126,22
3,78,84,128
3,76,118,6
3,80,124,18
3,78,105,34
3,80,127,86
3,78,127,44
3,76,127,16
3,78,115,24
3,80,127,30
3,80,109,44
3,80,118,52
3,80,124,46
3,78,115,36
3,76,115,30
3,73,127,34
3,71,106,18
3,76,113,78
3,78,106,2
3,80,118,30
3,80,104,52
3,80,105,30
3,81,115,26
3,80,104,20
3,80,124,32
3,76,109,8
3,76,127,50
3,78,111,28
3,80,127,28
3,83,124,80
3,80,105,8
3,80,127,36
3,78,108,22
3,80,121,12
3,80,115,36
