track,note,velocity,time
1,38,127,780
1,38,0,960
1,26,85,0
1,26,0,952
1,38,127,8
1,26,95,960
1,38,0,11
1,26,0,864
1,38,127,85
1,38,0,960
1,26,85,0
1,26,0,952
1,38,127,8
1,26,95,960
1,38,0,11
1,26,0,864
1,38,127,85
1,38,0,960
1,26,85,0
1,26,0,952
1,38,127,8
1,26,95,960
1,38,0,11
1,26,0,864
1,38,61,85
1,48,14,960
1,38,0,7
1,43,47,953
1,48,0,9
1,43,0,933
1,38,59,18
1,38,0,845
1,41,123,131
1,41,0,938
1,36,118,12
1,36,0,886
1,43,118,80
1,43,0,949
1,38,113,2
1,38,0,728
1,38,127,229
1,38,0,960
1,26,85,0
1,26,0,952
1,38,127,8
1,26,95,960
1,38,0,11
1,26,0,864
1,38,118,94
1,38,0,40
1,38,85,46
1,38,0,45
1,38,101,2
1,38,0,114
1,36,82,3
1,36,0,789
1,36,90,58
1,35,79,56
1,36,0,1
1,35,0,58
1,31,123,3
1,31,0,720
1,43,118,4
1,31,106,117
1,43,0,18
1,31,0,98
1,38,123,0
1,38,0,558
1,38,106,49
1,38,0,57
1,33,101,0
1,33,0,60
1,38,106,1
1,29,118,238
1,38,0,9
1,29,0,590
1,41,123,4
1,40,95,229
1,41,0,9
1,40,0,56
1,38,85,0
1,114,1,60
1,114,0,5
1,38,0,3
1,36,123,2
1,36,0,645
1,36,123,72
1,31,123,118
1,36,0,15
1,31,0,66
1,31,123,38
1,43,123,843
1,31,0,9
1,43,0,96
1,38,123,16
1,38,0,330
1,38,113,22
1,38,0,107
1,38,123,20
1,38,0,286
1,31,127,187
1,43,127,237
1,31,0,1
1,38,118,51
1,43,0,1
1,38,0,11
1,43,118,7
1,38,123,58
1,43,0,21
1,31,127,39
1,38,0,3
1,31,0,234
1,43,127,1
1,43,0,113
1,38,127,21
1,38,0,198
1,38,123,30
1,33,95,191
1,38,0,8
1,38,118,47
1,33,0,4
1,38,0,189
1,38,127,47
1,38,0,191
1,31,127,50
1,31,0,236
1,43,127,3
1,38,101,180
1,43,0,8
1,38,0,52
1,43,113,4
1,43,0,43
1,43,127,76
1,38,127,237
1,43,0,3
1,38,0,51
1,43,106,8
1,43,0,49
1,38,123,10
1,38,0,190
1,38,123,49
1,33,127,175
1,38,0,3
1,33,0,55
1,38,123,1
1,38,0,57
1,36,113,0
1,36,0,51
1,38,118,14
1,38,0,94
1,38,127,35
1,38,0,107
1,36,127,7
1,38,127,62
1,36,0,16
1,38,0,32
1,31,127,20
1,31,0,233
1,43,127,0
1,38,82,177
1,43,0,9
1,38,0,32
1,43,123,17
1,43,0,46
1,43,127,80
1,43,0,211
1,31,127,17
1,38,127,128
1,31,0,3
1,38,0,187
1,38,127,46
1,33,123,185
1,38,0,20
1,33,0,42
1,38,123,2
1,38,0,45
1,38,127,76
1,38,0,217
1,33,127,15
1,33,0,56
1,36,127,71
1,36,0,204
1,36,123,32
1,31,118,186
1,36,0,7
1,31,0,28
1,36,123,16
1,36,0,59
1,36,127,64
1,36,0,227
1,38,127,4
1,36,101,68
1,38,0,12
1,36,0,48
1,31,127,3
1,43,127,236
1,31,0,2
1,38,101,167
1,43,0,12
1,38,0,55
1,43,101,1
1,38,113,61
1,43,0,11
1,38,0,44
1,31,123,7
1,43,127,122
1,31,0,11
1,43,0,102
1,31,127,7
1,31,0,75
1,38,127,42
1,26,95,960
1,38,0,11
1,26,0,864
1,38,118,94
1,38,0,40
1,38,85,46
1,38,0,45
1,38,101,2
1,38,0,114
1,36,82,3
1,36,0,789
1,36,90,58
1,35,79,56
1,36,0,1
1,35,0,58
1,31,123,3
1,31,0,720
1,43,118,4
1,31,106,117
1,43,0,18
1,31,0,98
1,38,123,0
1,38,0,558
1,38,106,49
1,38,0,57
1,33,101,0
1,33,0,60
1,38,106,1
1,29,118,238
1,38,0,9
1,29,0,590
1,41,123,4
1,40,95,229
1,41,0,9
1,40,0,56
1,38,85,0
1,114,1,60
1,114,0,5
1,38,0,3
1,36,123,2
1,36,0,645
1,36,123,72
1,31,123,118
1,36,0,15
1,31,0,66
1,31,123,38
1,43,123,843
1,31,0,9
1,43,0,96
1,38,123,16
1,38,0,330
1,38,113,22
1,38,0,107
1,38,123,20
1,38,0,286
1,31,127,187
1,43,127,237
1,31,0,1
1,38,118,51
1,43,0,1
1,38,0,11
1,43,118,7
1,38,123,58
1,43,0,21
1,31,127,39
1,38,0,3
1,31,0,234
1,43,127,1
1,43,0,113
1,38,127,21
1,38,0,198
1,38,123,30
1,33,95,191
1,38,0,8
1,38,118,47
1,33,0,4
1,38,0,189
1,38,127,47
1,38,0,191
1,31,127,50
1,31,0,236
1,43,127,3
1,38,101,180
1,43,0,8
1,38,0,52
1,43,113,4
1,43,0,43
1,43,127,76
1,38,127,237
1,43,0,3
1,38,0,51
1,43,106,8
1,43,0,49
1,38,123,10
1,38,0,190
1,38,123,49
1,33,127,175
1,38,0,3
1,33,0,55
1,38,123,1
1,38,0,57
1,36,113,0
1,36,0,51
1,38,118,14
1,38,0,94
1,38,127,35
1,38,0,107
1,36,127,7
1,38,127,62
1,36,0,16
1,38,0,32
1,31,127,20
1,31,0,233
1,43,127,0
1,38,82,177
1,43,0,9
1,38,0,32
1,43,123,17
1,43,0,46
1,43,127,80
1,43,0,211
1,31,127,17
1,38,127,128
1,31,0,3
1,38,0,187
1,38,127,46
1,33,123,185
1,38,0,20
1,33,0,42
1,38,123,2
1,38,0,45
1,38,127,76
1,38,0,217
1,33,127,15
1,33,0,56
1,36,127,71
1,36,0,204
1,36,123,32
1,31,118,186
1,36,0,7
1,31,0,28
1,36,123,16
1,36,0,59
1,36,127,64
1,36,0,227
1,38,127,4
1,36,101,68
1,38,0,12
1,36,0,48
1,31,127,3
1,43,127,236
1,31,0,2
1,38,101,167
1,43,0,12
1,38,0,55
1,43,101,1
1,38,113,61
1,43,0,11
1,38,0,44
1,31,123,7
1,43,127,122
1,31,0,11
1,43,0,102
1,31,127,7
1,31,0,75
1,38,127,42
1,38,0,960
1,26,85,0
1,26,0,952
1,38,127,8
1,26,95,960
1,38,0,11
1,26,0,864
1,31,127,85
1,43,127,237
1,31,0,1
1,38,118,51
1,43,0,1
1,38,0,11
1,43,118,7
1,38,123,58
1,43,0,21
1,31,127,39
1,38,0,3
1,31,0,234
1,43,127,1
1,43,0,113
1,38,127,21
1,38,0,198
1,38,123,30
1,33,95,191
1,38,0,8
1,38,118,47
1,33,0,4
1,38,0,189
1,38,127,47
1,38,0,191
1,31,127,50
1,31,0,236
1,43,127,3
1,38,101,180
1,43,0,8
1,38,0,52
1,43,113,4
1,43,0,43
1,43,127,76
1,38,127,237
1,43,0,3
1,38,0,51
1,43,106,8
1,43,0,49
1,38,123,10
1,38,0,190
1,38,123,49
1,33,127,175
1,38,0,3
1,33,0,55
1,38,123,1
1,38,0,57
1,36,113,0
1,36,0,51
1,38,118,14
1,38,0,94
1,38,127,35
1,38,0,107
1,36,127,7
1,38,127,62
1,36,0,16
1,38,0,32
1,31,127,20
1,31,0,233
1,43,127,0
1,38,82,177
1,43,0,9
1,38,0,32
1,43,123,17
1,43,0,46
1,43,127,80
1,43,0,211
1,31,127,17
1,38,127,128
1,31,0,3
1,38,0,187
1,38,127,46
1,33,123,185
1,38,0,20
1,33,0,42
1,38,123,2
1,38,0,45
1,38,127,76
1,38,0,217
1,33,127,15
1,33,0,56
1,29,127,68
1,29,0,229
1,41,127,6
1,36,95,185
1,41,0,7
1,36,0,47
1,41,127,4
1,36,127,66
1,41,0,13
1,36,0,29
1,29,127,18
1,29,0,121
1,41,127,0
1,29,127,114
1,41,0,1
1,29,0,54
1,31,127,69
1,31,0,238
1,43,127,2
1,38,123,172
1,43,0,10
1,38,0,49
1,31,127,5
1,31,0,70
1,38,127,407
1,38,0,960
1,26,85,0
1,26,0,952
1,38,127,8
1,26,95,960
1,38,0,11
1,26,0,864
1,38,118,94
1,38,0,40
1,38,85,46
1,38,0,45
1,38,101,2
1,38,0,114
1,36,82,3
1,36,0,789
1,36,90,58
1,35,79,56
1,36,0,1
1,35,0,58
1,31,123,3
1,31,0,720
1,43,118,4
1,31,106,117
1,43,0,18
1,31,0,98
1,38,123,0
1,38,0,558
1,38,106,49
1,38,0,57
1,33,101,0
1,33,0,60
1,38,106,1
1,29,118,238
1,38,0,9
1,29,0,590
1,41,123,4
1,40,95,229
1,41,0,9
1,40,0,56
1,38,85,0
1,114,1,60
1,114,0,5
1,38,0,3
1,36,123,2
1,36,0,645
1,36,123,72
1,31,123,118
1,36,0,15
1,31,0,66
1,31,123,38
1,43,123,843
1,31,0,9
1,43,0,96
1,38,123,16
1,38,0,330
1,38,113,22
1,38,0,107
1,38,123,20
1,38,0,286
1,31,127,194
1,31,0,947
1,38,118,12
1,38,0,1438
1,31,127,476
1,43,127,237
1,31,0,1
1,38,118,51
1,43,0,1
1,38,0,11
1,43,118,7
1,38,123,58
1,43,0,21
1,31,127,39
1,38,0,3
1,31,0,234
1,43,127,1
1,43,0,113
1,38,127,21
1,38,0,198
1,38,123,30
1,33,95,191
1,38,0,8
1,38,118,47
1,33,0,4
1,38,0,189
1,38,127,47
1,38,0,191
1,31,127,50
1,31,0,236
1,43,127,3
1,38,101,180
1,43,0,8
1,38,0,52
1,43,113,4
1,43,0,43
1,43,127,76
1,38,127,237
1,43,0,3
1,38,0,51
1,43,106,8
1,43,0,49
1,38,123,10
1,38,0,190
1,38,123,49
1,33,127,175
1,38,0,3
1,33,0,55
1,38,123,1
1,38,0,57
1,36,113,0
1,36,0,51
1,38,118,14
1,38,0,94
1,38,127,35
1,38,0,107
1,36,127,7
1,38,127,62
1,36,0,16
1,38,0,32
1,31,127,20
1,31,0,233
1,43,127,0
1,38,82,177
1,43,0,9
1,38,0,32
1,43,123,17
1,43,0,46
1,43,127,80
1,43,0,211
1,31,127,17
1,38,127,128
1,31,0,3
1,38,0,187
1,38,127,46
1,33,123,185
1,38,0,20
1,33,0,42
1,38,123,2
1,38,0,45
1,38,127,76
1,38,0,217
1,33,127,15
1,33,0,56
1,36,127,71
1,36,0,204
1,36,123,32
1,31,118,186
1,36,0,7
1,31,0,28
1,36,123,16
1,36,0,59
1,36,127,64
1,36,0,227
1,38,127,4
1,36,101,68
1,38,0,12
1,36,0,48
1,31,127,3
1,43,127,236
1,31,0,2
1,38,101,167
1,43,0,12
1,38,0,55
1,43,101,1
1,38,113,61
1,43,0,11
1,38,0,44
1,31,123,7
1,43,127,122
1,31,0,11
1,43,0,102
1,31,127,7
1,31,0,75
1,38,127,42
1,38,0,212
1,38,127,28
1,33,113,180
1,38,0,8
1,33,0,46
1,38,127,6
1,38,0,47
1,38,127,73
1,33,127,180
1,38,0,3
1,33,0,43
1,38,127,14
1,38,0,89
1,36,127,31
1,36,0,200
1,36,127,40
1,31,123,180
1,36,0,16
1,31,0,31
1,36,123,13
1,38,113,60
1,36,0,1
1,36,127,59
1,38,0,2
1,36,0,202
1,36,127,36
1,36,0,103
1,31,123,17
1,31,0,231
1,43,127,9
1,38,118,180
1,43,0,7
1,43,127,53
1,38,0,1
1,43,0,39
1,43,127,80
1,43,0,214
1,43,127,26
1,43,0,111
1,38,127,9
1,38,0,198
1,38,127,42
1,33,106,180
1,38,0,15
1,33,0,36
1,38,127,9
1,38,0,54
1,38,127,66
1,40,106,60
1,38,0,5
1,40,0,55
1,38,127,0
1,38,0,110
1,33,127,10
1,33,0,65
1,38,127,55
1,38,0,198
1,38,127,42
1,33,118,180
1,38,0,15
1,33,0,37
1,38,127,8
1,38,0,52
1,38,127,68
1,38,0,228
1,40,127,12
1,38,127,60
1,40,0,24
1,36,127,36
1,38,0,2
1,36,0,187
1,36,127,51
1,31,118,180
1,36,0,8
1,31,0,38
1,36,118,14
1,36,0,50
1,36,127,70
1,36,0,224
1,38,127,16
1,38,0,85
1,31,127,35
1,31,0,230
1,43,127,10
1,41,106,180
1,43,0,6
1,43,118,54
1,41,0,6
1,41,118,54
1,43,0,14
1,41,0,37
1,38,127,9
1,38,0,115
1,31,127,5
1,43,127,120
1,31,0,4
1,43,0,68
1,26,127,48
1,38,95,1680
1,26,0,4
1,36,101,56
1,38,0,8
1,38,101,52
1,36,0,9
1,36,101,51
1,38,0,19
1,26,127,41
1,36,0,3
1,26,0,1616
2,50,98,684
2,57,94,0
2,62,101,0
2,38,94,0
2,57,0,530
2,50,0,43
2,57,36,23
2,62,0,9
2,57,0,99
2,50,59,12
2,38,0,3
2,50,0,87
2,62,55,30
2,62,0,87
2,38,59,33
2,50,40,360
2,50,0,422
2,38,0,21
2,50,36,157
2,38,50,0
2,57,59,0
2,45,60,0
2,62,59,0
2,57,0,97
2,62,0,6
2,38,0,13
2,45,0,1
2,50,0,1
2,38,32,242
2,50,43,240
2,57,68,240
2,38,0,45
2,50,0,9
2,57,0,12
2,38,76,54
2,38,0,91
2,50,98,42
2,57,94,0
2,62,101,0
2,38,94,0
2,57,0,530
2,50,0,43
2,57,36,23
2,62,0,9
2,57,0,99
2,50,59,12
2,38,0,3
2,50,0,87
2,62,55,30
2,62,0,87
2,38,59,33
2,50,40,360
2,50,0,422
2,38,0,21
2,50,36,157
2,38,50,0
2,57,59,0
2,45,60,0
2,62,59,0
2,57,0,97
2,62,0,6
2,38,0,13
2,45,0,1
2,50,0,1
2,38,32,242
2,50,43,240
2,57,68,240
2,38,0,45
2,50,0,9
2,57,0,12
2,38,76,54
2,38,0,91
2,50,98,42
2,57,94,0
2,62,101,0
2,38,94,0
2,57,0,530
2,50,0,43
2,57,36,23
2,62,0,9
2,57,0,99
2,50,59,12
2,38,0,3
2,50,0,87
2,62,55,30
2,62,0,87
2,38,59,33
2,50,40,360
2,50,0,422
2,38,0,21
2,50,36,157
2,38,50,0
2,57,59,0
2,45,60,0
2,62,59,0
2,57,0,97
2,62,0,6
2,38,0,13
2,45,0,1
2,50,0,1
2,38,32,242
2,50,43,240
2,57,68,240
2,38,0,45
2,50,0,9
2,57,0,12
2,38,76,54
2,38,0,91
2,65,98,3894
2,41,94,0
2,57,90,0
2,60,72,0
2,62,72,5
2,62,0,35
2,65,0,47
2,41,0,28
2,57,0,12
2,60,0,0
2,36,94,246
2,60,84,1
2,64,84,0
2,55,72,0
2,55,0,908
2,36,0,1
2,60,0,3
2,64,0,8
2,50,98,1957
2,57,94,0
2,62,101,0
2,38,94,0
2,57,0,530
2,50,0,43
2,57,36,23
2,62,0,9
2,57,0,99
2,50,59,12
2,38,0,3
2,50,0,87
2,62,55,30
2,62,0,87
2,38,59,33
2,50,40,360
2,50,0,422
2,38,0,21
2,50,36,157
2,38,50,0
2,57,59,0
2,45,60,0
2,62,59,0
2,57,0,97
2,62,0,6
2,38,0,13
2,45,0,1
2,50,0,1
2,38,32,242
2,50,43,240
2,57,68,240
2,38,0,45
2,50,0,9
2,57,0,12
2,38,76,54
2,38,0,91
2,69,84,45
2,65,76,1
2,62,72,3
2,50,80,5
2,57,84,110
2,62,0,12
2,69,0,29
2,65,0,5
2,57,0,45
2,62,84,18
2,62,0,123
2,57,65,0
2,57,0,45
2,50,0,58
2,65,72,11
2,65,0,58
2,69,90,3
2,50,94,65
2,69,0,21
2,57,94,44
2,65,101,54
2,57,0,2
2,50,0,43
2,62,98,15
2,65,0,7
2,69,76,55
2,62,0,27
2,69,0,10
2,64,94,4
2,67,80,1
2,60,80,2
2,48,84,2
2,60,0,82
2,64,0,5
2,67,0,8
2,55,76,7
2,55,0,65
2,72,90,62
2,72,0,100
2,48,0,3
2,55,65,6
2,55,0,53
2,79,94,137
2,76,76,58
2,79,0,20
2,76,0,34
2,72,90,3
2,72,0,32
2,55,80,32
2,55,0,46
2,60,84,13
2,60,0,53
2,64,76,6
2,64,0,50
2,55,80,3
2,53,80,3
2,53,0,18
2,59,84,37
2,62,94,54
2,67,84,35
2,62,0,29
2,67,0,29
2,71,101,6
2,71,0,125
2,62,98,238
2,62,0,55
