track,note,velocity,time
0,1,1,0
0,1,1,0
0,61,127,0
0,61,0,9
0,66,127,0
0,73,127,8
0,66,126,6
0,63,127,0
0,66,0,0
0,54,88,0
0,63,95,0
0,59,93,0
0,59,120,1
0,80,127,0
0,80,127,1
0,78,127,4
0,73,0,3
0,78,117,3
0,80,0,2
0,78,124,1
0,75,122,0
0,75,120,2
0,80,127,6
0,78,0,2
0,77,127,0
0,80,127,1
0,75,0,3
0,75,0,1
0,78,122,0
0,80,0,2
0,78,125,0
0,75,123,8
0,75,115,2
0,78,0,1
0,78,0,1
0,80,0,0
0,80,127,2
0,80,127,0
0,75,127,1
0,75,0,3
0,77,0,0
0,75,0,3
0,78,116,25
0,80,0,1
0,78,121,1
0,80,0,0
0,75,113,5
0,78,0,1
0,75,117,1
0,78,0,1
0,80,127,9
0,80,127,1
0,75,0,2
0,73,127,23
0,75,0,1
0,78,121,2
0,78,122,2
0,80,0,1
0,80,0,1
0,59,0,22
0,63,0,0
0,75,123,6
0,75,115,1
0,66,0,2
0,78,0,0
0,78,0,1
0,54,0,10
0,59,0,5
0,73,0,1
0,73,127,2
0,75,0,1
0,61,127,3
0,66,127,0
0,58,127,0
0,58,100,0
0,61,89,0
0,54,94,0
0,80,123,1
0,80,127,1
0,70,121,0
0,78,120,0
0,78,122,2
0,80,0,0
0,73,119,30
0,78,0,0
0,73,117,0
0,78,0,1
0,80,125,5
0,80,126,1
0,73,0,2
0,73,0,2
0,78,108,7
0,80,0,1
0,78,120,0
0,80,0,2
0,73,117,11
0,73,118,1
0,80,122,3
0,80,127,0
0,73,0,6
0,78,117,1
0,80,0,1
0,78,111,0
0,80,0,2
0,73,116,6
0,78,0,1
0,73,127,0
0,78,0,2
0,80,127,10
0,80,127,2
0,73,0,1
0,73,0,5
0,78,123,25
0,58,0,1
0,80,0,0
0,78,114,0
0,80,0,3
0,61,0,2
0,66,0,15
0,61,127,6
0,70,0,1
0,78,0,4
0,73,117,1
0,73,115,0
0,78,0,2
0,66,127,2
0,61,0,1
0,73,127,8
0,73,0,5
0,66,0,1
0,54,0,3
0,58,0,1
0,78,127,3
0,61,0,2
0,63,126,2
0,66,127,0
0,59,117,0
0,73,0,0
0,73,0,2
0,80,127,0
0,59,94,0
0,63,99,0
0,54,98,0
0,80,127,1
0,78,120,0
0,78,117,1
0,80,0,3
0,75,113,0
0,75,127,1
0,80,116,0
0,80,127,1
0,75,0,1
0,77,127,1
0,78,111,5
0,80,0,1
0,78,127,1
0,80,0,4
0,75,111,1
0,78,0,1
0,75,122,1
0,78,0,3
0,75,123,5
0,75,127,9
0,80,125,0
0,75,0,1
0,77,0,0
0,80,127,1
0,75,0,2
0,78,117,11
0,80,0,2
0,78,127,0
0,75,121,4
0,75,114,0
0,78,0,1
0,78,0,1
0,80,125,6
0,80,127,1
0,75,0,4
0,75,0,1
0,75,127,4
0,78,115,5
0,78,127,2
0,75,113,0
0,78,0,2
0,75,122,1
0,73,127,2
0,80,121,1
0,61,95,0
0,58,104,0
0,61,127,1
0,66,126,0
0,58,126,0
0,75,0,1
0,80,127,1
0,78,116,8
0,80,0,1
0,78,123,0
0,80,0,3
0,73,122,2
0,73,121,2
0,78,0,1
0,80,121,2
0,80,127,2
0,73,0,2
0,73,0,2
0,78,107,0
0,78,121,1
0,80,0,2
0,73,110,24
0,73,117,2
0,78,0,1
0,78,0,1
0,80,122,2
0,80,126,1
0,73,0,2
0,73,0,11
0,78,108,6
0,78,122,1
0,80,0,3
0,80,0,0
0,73,120,2
0,73,112,0
0,78,0,1
0,78,0,0
0,66,127,4
0,80,123,0
0,73,0,1
0,78,106,28
0,73,127,1
0,68,127,0
0,66,0,1
0,80,0,1
0,61,0,4
0,58,0,0
0,68,0,8
0,70,127,2
0,73,115,15
0,73,0,1
0,78,0,0
0,68,127,1
0,70,0,1
0,61,127,9
0,54,0,1
0,68,0,2
0,66,127,2
0,61,0,2
0,58,0,1
0,66,127,2
0,61,0,1
0,73,127,8
0,66,0,1
0,59,126,0
0,73,0,0
0,63,95,0
0,59,95,0
0,54,94,0
0,80,123,1
0,75,127,1
0,66,0,3
0,78,127,4
0,73,0,4
0,78,112,4
0,63,119,2
0,80,0,3
0,75,117,24
0,66,122,1
0,75,0,1
0,80,122,0
0,75,0,1
0,75,127,1
0,78,0,0
0,77,127,1
0,78,119,0
0,71,118,2
0,75,113,1
0,78,0,1
0,66,116,1
0,63,0,4
0,59,121,6
0,80,122,0
0,75,127,2
0,77,0,1
0,75,0,0
0,66,0,12
0,78,120,0
0,63,123,2
0,80,0,1
0,75,119,4
0,66,127,2
0,78,0,0
0,71,0,4
0,80,123,12
0,75,0,1
0,71,125,1
0,73,127,1
0,78,116,0
0,75,121,1
0,80,0,3
0,71,0,4
0,63,0,12
0,59,0,0
0,66,0,3
0,78,0,7
0,75,119,2
0,71,114,2
0,73,127,0
0,71,0,2
0,58,127,2
0,61,88,0
0,54,91,0
0,58,93,0
0,80,123,0
0,75,0,1
0,73,127,0
0,70,111,4
0,80,0,1
0,78,110,0
0,70,123,1
0,73,0,2
0,73,120,8
0,61,117,1
0,78,0,2
0,80,127,0
0,78,118,1
0,66,123,0
0,70,117,0
0,78,107,0
0,73,118,1
0,70,0,3
0,80,0,1
0,73,119,2
0,70,118,1
0,78,0,2
0,80,121,7
0,58,127,1
0,61,120,3
0,78,115,0
0,73,116,1
0,66,122,1
0,78,0,0
0,80,127,1
0,73,127,1
0,68,127,0
0,73,0,0
0,68,0,10
0,61,0,4
0,70,127,3
0,78,113,14
0,70,0,1
0,80,0,0
0,68,127,1
0,58,0,13
0,61,126,16
0,68,0,1
0,78,0,0
0,73,115,0
0,73,0,1
0,66,127,1
0,61,127,3
0,66,127,10
0,61,0,3
0,54,0,0
0,61,0,1
0,58,0,0
0,61,0,6
0,73,127,1
0,73,0,4
0,66,0,1
0,71,126,1
0,80,125,0
0,59,95,0
0,54,98,0
0,63,90,0
0,75,127,1
0,59,126,1
0,78,127,2
0,66,0,1
0,73,0,7
0,78,115,5
0,66,116,2
0,80,0,3
0,75,115,0
0,80,121,11
0,77,127,0
0,63,127,2
0,66,0,6
0,71,0,12
0,75,0,6
0,78,115,3
0,80,0,5
0,66,123,2
0,75,119,11
0,71,127,1
0,80,121,5
0,75,127,4
0,59,118,1
0,75,0,0
0,63,0,1
0,77,0,1
0,78,120,25
0,80,0,4
0,63,116,1
0,75,117,11
0,66,115,1
0,71,0,3
0,80,119,3
0,71,127,4
0,75,0,1
0,78,120,1
0,75,127,1
0,63,0,2
0,66,122,0
0,75,115,0
0,63,118,5
0,71,0,6
0,80,122,0
0,61,95,0
0,54,89,0
0,58,94,0
0,75,0,1
0,58,125,2
0,70,127,0
0,66,126,0
0,73,126,0
0,73,127,0
0,78,112,4
0,80,0,1
0,61,125,1
0,73,120,1
0,78,0,2
0,66,118,2
0,80,119,15
0,70,127,4
0,78,104,5
0,80,0,3
0,66,118,2
0,61,0,2
0,73,109,9
0,61,116,2
0,78,0,0
0,80,116,1
0,58,127,2
0,61,0,1
0,66,0,0
0,70,0,15
0,78,108,0
0,61,124,1
0,73,0,1
0,80,0,1
0,68,127,5
0,73,109,1
0,73,127,1
0,78,0,3
0,70,127,3
0,80,121,0
0,68,127,1
0,78,105,0
0,61,0,1
0,66,127,0
0,58,0,7
0,73,0,18
0,61,127,6
0,73,113,0
0,73,0,2
0,78,0,1
0,66,0,5
0,54,0,7
0,58,0,2
0,61,0,2
0,61,0,11
0,75,127,2
0,73,0,0
0,63,91,0
0,54,93,0
0,59,95,0
0,80,115,0
0,71,127,0
0,59,126,1
0,78,104,30
0,66,127,0
0,80,0,0
0,70,127,0
0,71,0,3
0,75,105,27
0,78,0,1
0,63,127,1
0,70,0,0
0,68,127,0
0,80,107,29
0,75,0,1
0,71,127,1
0,68,0,0
0,71,127,0
0,66,0,2
0,78,108,26
0,66,120,2
0,80,0,0
0,70,127,0
0,63,0,2
0,71,0,2
0,63,108,24
0,75,104,0
0,70,0,0
0,59,0,1
0,78,0,0
0,68,127,0
0,59,122,29
0,80,106,1
0,68,0,0
0,63,0,1
0,71,127,0
0,75,0,2
0,71,0,20
0,63,124,7
0,78,107,0
0,71,127,0
0,66,0,3
0,80,0,0
0,71,0,4
0,66,127,23
0,75,0,1
0,78,0,1
0,75,108,0
0,75,127,31
0,80,113,1
0,75,0,1
0,71,116,29
0,70,127,0
0,78,102,1
0,66,0,1
0,63,0,1
0,71,0,0
0,80,0,1
0,59,0,3
0,66,124,0
0,75,104,0
0,70,0,0
0,68,127,0
0,78,0,2
0,68,0,17
0,54,0,0
0,75,0,1
0,59,0,2
0,63,0,0
0,58,127,9
0,80,108,1
0,61,95,0
0,58,93,0
0,54,88,0
0,75,0,1
0,68,127,0
0,71,0,15
0,61,125,11
0,78,103,2
0,80,0,1
0,66,0,3
0,68,0,3
0,70,127,0
0,78,0,21
0,73,105,2
0,66,127,1
0,80,112,31
0,73,127,1
0,73,0,1
0,78,94,30
0,80,0,1
0,70,122,1
0,66,0,2
0,73,103,28
0,61,0,1
0,66,118,0
0,78,0,1
0,58,0,4
0,61,127,25
0,80,119,1
0,66,0,2
0,70,0,0
0,73,0,2
0,73,0,1
0,78,102,27
0,80,0,2
0,68,127,1
0,70,127,14
0,68,0,3
0,73,104,12
0,78,0,1
0,78,127,1
0,70,0,17
0,80,113,13
0,73,0,3
0,66,127,1
0,61,0,7
0,78,99,21
0,80,0,2
0,70,127,2
0,66,0,5
0,70,0,11
0,73,104,12
0,61,122,1
0,78,0,2
0,68,127,0
0,66,127,1
0,78,0,4
0,70,0,2
0,68,0,4
0,54,0,3
0,70,127,0
0,58,0,1
0,61,0,0
0,61,0,5
0,70,0,5
0,73,0,2
0,80,114,0
0,63,90,0
0,59,95,0
0,54,91,0
0,59,127,2
0,71,127,0
0,66,0,12
0,78,108,16
0,71,0,0
0,63,127,1
0,80,0,1
0,71,127,0
0,78,0,27
0,75,108,2
0,66,127,1
0,71,0,25
0,71,127,0
0,75,0,1
0,80,106,0
0,75,127,1
0,66,0,7
0,78,98,24
0,70,127,0
0,66,120,1
0,80,0,0
0,71,0,1
0,63,0,4
0,59,0,14
0,68,127,0
0,63,116,1
0,75,104,0
0,78,0,2
0,71,127,0
0,68,0,1
0,59,121,16
0,80,107,0
0,63,0,1
0,75,0,4
0,71,0,19
0,71,127,0
0,63,126,2
0,80,0,0
0,78,102,0
0,66,0,3
0,66,127,28
0,75,104,1
0,78,0,3
0,71,127,28
0,75,0,0
0,80,114,1
0,66,0,5
0,63,0,24
0,70,127,0
0,66,119,1
0,78,108,1
0,71,0,0
0,80,0,2
0,63,117,0
0,70,0,0
0,68,127,0
0,75,104,2
0,78,0,1
0,54,0,11
0,59,0,3
0,63,0,2
0,68,0,6
0,71,0,5
0,58,122,0
0,68,127,0
0,75,0,1
0,63,0,1
0,75,0,0
0,80,111,0
0,61,99,0
0,58,102,0
0,54,96,0
0,66,0,2
0,61,127,29
0,78,100,0
0,66,127,0
0,68,0,1
0,80,0,2
0,66,127,28
0,73,107,1
0,78,0,1
0,73,127,31
0,80,113,0
0,66,0,0
0,61,127,0
0,73,0,1
0,66,0,6
0,78,107,22
0,70,126,2
0,80,0,0
0,66,127,29
0,73,105,1
0,78,0,2
0,58,0,4
0,61,0,2
0,70,0,22
0,58,126,0
0,73,0,1
0,80,107,1
0,73,0,5
0,66,0,6
0,61,127,21
0,78,107,0
0,80,0,1
0,68,127,31
0,73,127,0
0,78,0,0
0,73,108,0
0,68,0,11
0,70,118,6
0,70,0,13
0,68,127,2
0,80,116,0
0,73,0,6
0,61,0,7
0,68,0,19
0,78,109,0
0,66,127,0
0,73,127,0
0,80,0,3
0,61,0,3
0,58,0,21
0,73,0,0
0,61,127,3
0,78,0,0
0,73,114,1
0,73,127,0
0,61,0,11
0,54,0,8
0,73,0,5
0,58,127,6
0,65,116,0
0,73,127,0
0,53,89,0
0,73,0,4
0,73,0,25
0,61,127,3
0,70,112,0
0,73,127,0
0,73,0,28
0,65,127,1
0,73,116,0
0,73,127,0
0,73,0,9
0,73,127,0
0,73,0,13
0,77,119,0
0,54,110,0
0,70,127,1
0,73,127,0
0,54,0,10
0,73,0,17
0,73,120,4
0,73,127,0
0,70,0,2
0,65,0,4
0,73,0,22
0,70,117,2
0,78,127,0
0,61,0,1
0,65,110,1
0,65,0,1
0,53,0,7
0,77,0,4
0,58,0,5
0,61,0,2
0,73,0,4
0,78,0,2
0,66,127,4
0,54,98,0
0,63,99,0
0,59,97,0
0,78,127,0
0,70,0,4
0,65,0,12
0,73,0,6
0,70,0,0
0,71,115,7
0,59,120,8
0,78,0,11
0,75,127,0
0,75,115,12
0,63,127,7
0,78,114,25
0,75,0,0
0,75,127,0
0,66,127,3
0,75,127,0
0,75,107,24
0,71,117,7
0,71,0,5
0,66,0,3
0,71,103,17
0,66,0,2
0,59,0,3
0,63,0,0
0,66,120,3
0,54,0,4
0,59,0,3
0,63,0,5
0,75,0,2
0,66,123,10
0,61,96,0
0,54,93,0
0,58,96,0
0,71,0,2
0,75,0,1
0,58,127,1
0,75,0,2
0,71,0,0
0,75,127,0
0,78,0,4
0,70,113,20
0,75,0,3
0,61,127,0
0,73,127,0
0,73,112,28
0,70,0,2
0,66,127,1
0,73,0,20
0,80,108,9
0,54,105,0
0,73,127,1
0,73,127,0
0,66,0,1
0,73,0,4
0,54,0,5
0,78,106,19
0,70,118,1
0,73,0,1
0,80,0,3
0,70,127,0
0,66,118,25
0,73,109,0
0,73,127,0
0,70,0,2
0,61,0,2
0,58,0,1
0,73,0,23
0,58,126,1
0,80,114,1
0,75,127,0
0,73,0,11
0,70,0,12
0,61,127,5
0,78,108,1
0,80,0,1
0,75,0,0
0,73,127,0
0,66,0,7
0,68,127,21
0,73,127,0
0,78,0,1
0,73,112,0
0,68,0,12
0,70,127,3
0,73,0,8
0,70,0,7
0,68,127,1
0,80,117,0
0,73,127,0
0,73,0,28
0,68,0,3
0,66,127,0
0,78,109,0
0,71,127,0
0,61,0,1
0,80,0,1
0,58,0,5
0,71,0,18
0,61,127,6
0,73,112,1
0,70,127,0
0,78,0,2
0,54,0,11
0,61,0,5
0,61,0,0
0,58,0,1
0,70,0,7
0,73,0,2
0,59,126,1
0,80,109,0
0,66,127,0
0,63,92,0
0,59,95,0
0,54,98,0
0,66,0,1
0,63,127,31
0,78,110,0
0,80,0,2
0,66,0,9
0,66,127,0
0,66,127,15
0,75,99,1
0,78,0,2
0,71,124,29
0,75,127,1
0,80,99,0
0,54,112,0
0,75,0,1
0,66,0,6
0,54,0,5
0,78,104,20
0,66,121,1
0,80,0,2
0,63,0,5
0,59,0,4
0,63,116,20
0,78,0,0
0,75,111,0
0,80,111,32
0,59,125,1
0,75,0,4
0,63,0,1
0,78,108,26
0,63,127,1
0,80,0,0
0,66,0,5
0,71,0,4
0,75,0,20
0,78,0,1
0,75,108,1
0,66,127,1
0,75,127,29
0,80,110,2
0,75,0,5
0,66,0,13
0,71,118,14
0,78,105,0
0,66,127,0
0,80,0,2
0,66,0,4
0,66,0,4
0,66,127,0
0,75,107,16
0,78,0,2
0,66,122,1
0,59,0,4
0,63,0,2
0,75,0,5
0,71,0,2
0,66,0,3
0,66,0,6
0,59,125,6
0,80,111,1
0,75,0,2
0,71,127,0
0,78,107,27
0,71,0,0
0,80,0,1
0,63,127,1
0,71,127,0
0,71,0,26
0,75,109,3
0,66,127,1
0,78,0,0
0,71,127,0
0,71,0,13
0,71,127,0
0,75,127,12
0,80,113,1
0,54,104,0
0,75,0,5
0,54,0,11
0,71,0,12
0,78,106,4
0,71,122,1
0,71,127,0
0,66,0,3
0,59,0,9
0,63,0,1
0,71,0,10
0,75,0,4
0,66,118,2
0,71,0,1
0,78,0,0
0,75,111,0
0,71,127,0
0,59,0,4
0,54,0,2
0,63,0,2
0,71,0,8
0,66,0,3
0,65,127,11
