track,note,velocity,time
2,71,80,2407
2,83,89,1
2,83,103,30
2,78,69,16
2,76,62,70
2,47,86,32714
2,40,86,7
2,47,86,226
2,40,86,8
2,47,86,69
2,40,86,3
2,47,86,35
2,54,86,14
2,54,86,129
2,47,86,3
2,47,86,79
2,54,86,0
2,49,86,45
2,56,86,7
2,49,86,169
2,56,86,10
2,49,86,172
2,56,86,6
2,52,86,106
2,45,86,10
2,52,86,208
2,45,86,7
2,52,86,117
2,45,86,3
2,40,86,102
2,47,86,0
2,47,86,190
2,40,86,5
2,40,86,124
2,47,86,0
2,49,86,139
2,56,86,13
2,49,86,120
2,56,86,5
2,49,86,131
2,56,86,7
2,54,86,87
2,47,86,5
2,47,86,185
2,54,86,0
2,47,86,143
2,54,86,0
2,45,86,204
2,52,86,0
2,52,86,31
2,45,86,5
2,45,86,3
2,52,86,0
2,52,86,492
2,45,86,1
2,47,86,39
2,40,86,7
2,47,86,226
2,40,86,8
2,47,86,69
2,40,86,3
2,47,86,35
2,54,86,14
2,54,86,129
2,47,86,3
2,47,86,79
2,54,86,0
2,49,86,45
2,56,86,7
2,49,86,169
2,56,86,10
2,49,86,172
2,56,86,6
2,52,86,106
2,45,86,10
2,52,86,208
2,45,86,7
2,52,86,117
2,45,86,3
2,40,86,102
2,47,86,0
2,47,86,190
2,40,86,5
2,40,86,124
2,47,86,0
2,40,86,139
2,47,86,0
2,47,86,190
2,40,86,5
2,40,86,124
2,47,86,0
2,54,86,154
2,47,86,3
2,47,86,28
2,54,86,8
2,54,86,205
2,47,86,7
2,47,86,32
2,54,86,5
2,47,86,60
2,54,86,0
2,52,86,201
2,45,86,6
2,52,86,212
2,45,86,8
2,45,86,45
2,52,86,5
2,52,69,319
2,59,84,0
2,64,73,18
2,49,112,15396
2,56,126,0
2,49,59,60
2,56,86,5
2,49,51,70
2,56,63,4
2,49,118,153
2,56,127,0
2,49,71,75
2,56,100,3
2,49,64,72
2,56,86,4
2,49,106,94
2,56,126,3
2,49,83,90
2,56,106,3
2,49,112,115
2,56,127,2
2,56,90,95
2,49,77,5
2,49,61,93
2,56,77,2
2,49,100,110
2,56,126,4
2,49,75,98
2,56,100,1
2,49,67,94
2,56,86,4
2,56,127,126
2,49,118,5
2,49,80,95
2,56,95,5
2,52,103,95
2,45,101,18
2,45,101,50
2,52,101,12
2,52,92,119
2,45,92,5
2,52,106,105
2,45,117,14
2,45,103,57
2,52,92,19
2,45,100,124
2,52,90,14
2,52,122,132
2,45,122,6
2,45,90,83
2,52,86,20
2,45,109,121
2,52,106,0
2,45,86,77
2,52,82,6
2,45,72,79
2,52,79,22
2,52,117,133
2,45,122,10
2,52,88,87
2,45,100,1
2,45,80,85
2,52,79,0
2,52,113,122
2,45,106,2
2,52,95,86
2,45,100,11
2,49,77,86
2,56,112,6
2,56,100,85
2,49,75,5
2,49,43,60
2,56,83,22
2,49,100,109
2,56,127,5
2,49,67,95
2,56,95,0
2,49,67,91
2,56,90,4
2,49,100,107
2,56,127,4
2,49,69,90
2,56,90,9
2,49,106,105
2,56,127,2
2,49,67,74
2,56,83,0
2,49,80,106
2,56,100,0
2,49,95,92
2,56,118,0
2,49,61,70
2,56,77,5
2,49,65,107
2,56,83,0
2,49,112,113
2,56,127,5
2,49,80,80
2,56,100,10
2,45,92,113
2,52,117,5
2,52,44,43
2,45,88,152
2,52,106,0
2,45,100,112
2,52,113,0
2,45,72,92
2,52,106,5
2,45,80,111
2,52,97,0
2,45,103,87
2,52,117,0
2,45,69,70
2,52,86,0
2,47,100,77
2,54,126,0
2,47,86,75
2,54,106,0
2,54,86,72
2,47,76,4
2,47,97,96
2,54,126,0
2,47,70,65
2,54,83,0
2,47,109,109
2,54,127,0
2,47,86,95
2,40,86,7
2,47,86,226
2,40,86,8
2,47,86,69
2,40,86,3
2,47,86,35
2,54,86,14
2,54,86,129
2,47,86,3
2,47,86,79
2,54,86,0
2,49,86,45
2,56,86,7
2,49,86,169
2,56,86,10
2,49,86,172
2,56,86,6
2,52,86,106
2,45,86,10
2,52,86,208
2,45,86,7
2,52,86,117
2,45,86,3
2,40,86,102
2,47,86,0
2,47,86,190
2,40,86,5
2,40,86,124
2,47,86,0
2,49,86,139
2,56,86,13
2,49,86,120
2,56,86,5
2,49,86,131
2,56,86,7
2,54,86,87
2,47,86,5
2,47,86,185
2,54,86,0
2,47,86,143
2,54,86,0
2,45,86,204
2,52,86,0
2,52,86,31
2,45,86,5
2,45,86,3
2,52,86,0
2,52,86,492
2,45,86,1
2,47,86,39
2,40,86,7
2,47,86,226
2,40,86,8
2,47,86,69
2,40,86,3
2,47,86,35
2,54,86,14
2,54,86,129
2,47,86,3
2,47,86,79
2,54,86,0
2,49,86,45
2,56,86,7
2,49,86,169
2,56,86,10
2,49,86,172
2,56,86,6
2,52,86,106
2,45,86,10
2,52,86,208
2,45,86,7
2,52,86,117
2,45,86,3
2,40,86,102
2,47,86,0
2,47,86,190
2,40,86,5
2,40,86,124
2,47,86,0
2,40,86,139
2,47,86,0
2,47,86,190
2,40,86,5
2,40,86,124
2,47,86,0
2,54,86,154
2,47,86,3
2,47,86,28
2,54,86,8
2,54,86,205
2,47,86,7
2,47,86,32
2,54,86,5
2,47,86,60
2,54,86,0
2,52,86,201
2,45,86,6
2,52,86,212
2,45,86,8
2,45,86,45
2,52,86,5
2,59,84,319
2,64,97,0
2,68,106,0
2,64,113,17
2,68,127,0
2,59,100,10
2,68,118,220
2,64,109,4
2,59,103,5
2,69,103,49
2,61,106,5
2,64,109,0
2,68,83,32
2,59,109,7
2,64,100,0
2,59,103,150
2,54,126,1
2,47,100,7
2,54,106,85
2,47,84,4
2,59,97,0
2,52,113,85
2,57,100,0
2,45,95,4
2,52,106,76
2,57,106,4
2,45,97,1
2,52,100,220
2,45,82,5
2,57,103,3
2,45,103,48
2,52,117,0
2,57,100,0
2,52,103,100
2,57,95,3
2,45,82,5
2,54,100,115
2,47,77,12
2,59,106,0
2,54,100,114
2,47,92,5
2,59,100,0
2,54,95,162
2,47,86,4
2,59,95,0
2,54,100,139
2,47,103,10
2,59,103,0
2,52,122,162
2,57,109,0
2,45,106,2
2,57,100,486
2,45,97,2
2,52,106,0
2,52,113,403
2,57,106,0
2,45,100,1
2,47,86,195
2,40,86,7
2,47,86,226
2,40,86,8
2,47,86,69
2,40,86,3
2,47,86,35
2,54,86,14
2,54,86,129
2,47,86,3
2,47,86,79
2,54,86,0
2,49,86,45
2,56,86,7
2,49,86,169
2,56,86,10
2,49,86,172
2,56,86,6
2,52,86,106
2,45,86,10
2,52,86,208
2,45,86,7
2,52,86,117
2,45,86,3
2,47,86,102
2,40,86,7
2,47,86,226
2,40,86,8
2,47,86,69
2,40,86,3
2,47,86,35
2,54,86,14
2,54,86,129
2,47,86,3
2,47,86,79
2,54,86,0
2,42,86,69
2,49,86,7
2,42,86,168
2,49,86,10
2,42,86,171
2,49,86,7
2,52,86,82
2,45,86,10
2,52,86,208
2,45,86,7
2,52,86,117
2,45,86,3
2,47,109,119
2,66,126,0
2,59,92,1
2,64,113,45
2,63,118,72
2,47,86,85
2,40,86,7
2,47,86,226
2,40,86,8
2,47,86,69
2,40,86,3
2,47,86,35
2,54,86,14
2,54,86,129
2,47,86,3
2,47,86,79
2,54,86,0
2,49,86,45
2,56,86,7
2,49,86,169
2,56,86,10
2,49,86,172
2,56,86,6
2,52,86,106
2,45,86,10
2,52,86,208
2,45,86,7
2,52,86,117
2,45,86,3
2,40,86,102
2,47,86,0
2,47,86,190
2,40,86,5
2,40,86,124
2,47,86,0
2,49,86,139
2,56,86,13
2,49,86,120
2,56,86,5
2,49,86,131
2,56,86,7
2,54,86,87
2,47,86,5
2,47,86,185
2,54,86,0
2,47,86,143
2,54,86,0
2,45,86,204
2,52,86,0
2,52,86,31
2,45,86,5
2,45,86,3
2,52,86,0
2,52,86,492
2,45,86,1
2,47,86,39
2,40,86,7
2,47,86,226
2,40,86,8
2,47,86,69
2,40,86,3
2,47,86,35
2,54,86,14
2,54,86,129
2,47,86,3
2,47,86,79
2,54,86,0
2,49,86,45
2,56,86,7
2,49,86,169
2,56,86,10
2,49,86,172
2,56,86,6
2,52,86,106
2,45,86,10
2,52,86,208
2,45,86,7
2,52,86,117
2,45,86,3
2,40,86,102
2,47,86,0
2,47,86,190
2,40,86,5
2,40,86,124
2,47,86,0
2,49,86,139
2,56,86,13
2,49,86,120
2,56,86,5
2,49,86,131
2,56,86,7
2,54,86,87
2,47,86,5
2,47,86,185
2,54,86,0
2,47,86,143
2,54,86,0
2,45,86,204
2,52,86,0
2,52,86,31
2,45,86,5
2,45,86,3
2,52,86,0
2,52,86,492
2,45,86,1
2,47,109,39
2,40,109,7
2,47,109,507
2,40,109,8
2,47,109,481
2,40,109,3
2,47,109,35
2,54,109,14
2,54,109,479
2,47,109,3
2,47,109,470
2,54,109,0
2,49,109,45
2,56,109,7
2,49,109,459
2,56,109,10
2,49,109,494
2,56,109,6
2,52,109,106
2,45,109,10
2,52,109,487
2,45,109,7
2,52,109,479
2,45,109,3
2,47,109,102
2,40,109,6
2,47,109,507
2,40,109,8
2,47,109,236
2,40,109,3
2,47,109,35
2,54,109,14
2,54,109,234
2,47,109,3
2,47,109,470
2,54,109,0
2,49,109,45
2,56,109,7
2,49,109,459
2,56,109,10
2,49,109,9
2,56,109,6
2,52,109,106
2,45,109,10
2,52,109,2
2,45,109,7
2,52,109,479
2,45,109,3
2,47,109,102
2,40,109,6
2,47,109,507
2,40,109,8
2,47,109,236
2,40,109,3
2,47,109,35
2,54,109,14
2,54,109,479
2,47,109,3
2,47,109,465
2,54,109,0
2,49,109,45
2,56,109,7
2,49,109,454
2,56,109,10
2,49,109,9
2,56,109,6
2,52,109,106
2,45,109,10
2,52,109,2
2,45,109,7
2,52,109,479
2,45,109,3
3,40,69,1469
3,40,86,55
3,35,86,247
3,40,89,0
3,40,86,47
3,31,80,288
3,32,63,34
3,35,72,39
3,37,75,240
3,35,74,0
3,40,95,240
3,40,77,33
3,37,69,63
3,35,82,37
3,40,69,8
3,40,95,55
3,35,74,247
3,40,86,0
3,40,86,47
3,31,80,288
3,32,63,34
3,35,72,39
3,37,75,240
3,35,74,0
3,40,83,240
3,40,77,33
3,37,69,63
3,35,82,37
3,40,69,8
3,40,86,55
3,35,86,247
3,40,89,0
3,40,86,47
3,31,80,288
3,32,63,34
3,35,72,39
3,37,75,240
3,35,74,0
3,40,95,240
3,40,77,33
3,37,69,63
3,35,82,37
3,40,69,8
3,40,95,55
3,35,74,247
3,40,86,0
3,40,86,47
3,31,80,288
3,32,63,34
3,35,72,39
3,37,75,240
3,35,74,0
3,40,83,240
3,40,77,33
3,37,69,63
3,35,82,37
3,40,69,8
3,40,86,55
3,35,86,247
3,40,89,0
3,40,86,47
3,31,80,288
3,32,63,34
3,35,72,39
3,37,75,240
3,35,74,0
3,40,95,240
3,40,77,33
3,37,69,63
3,35,82,37
3,40,69,8
3,40,95,55
3,35,74,247
3,40,86,0
3,40,86,47
3,31,80,288
3,32,63,34
3,35,72,39
3,37,75,240
3,35,74,0
3,40,83,240
3,40,77,33
3,37,69,63
3,35,82,37
3,40,69,8
3,40,86,55
3,35,86,247
3,40,89,0
3,40,86,47
3,31,80,288
3,32,63,34
3,35,72,39
3,37,75,240
3,35,74,0
3,40,95,240
3,40,77,33
3,37,69,63
3,35,82,37
3,40,69,8
3,40,95,55
3,35,74,247
3,40,86,0
3,40,86,47
3,31,80,288
3,32,63,34
3,35,72,39
3,37,75,240
3,35,74,0
3,40,83,240
3,40,77,33
3,37,69,63
3,35,82,37
3,37,92,8
3,37,92,32
3,32,98,262
3,37,98,52
3,37,95,84
3,44,100,267
3,49,83,63
3,32,90,4
3,37,98,72
3,37,106,55
3,39,90,55
3,40,86,34
3,33,90,14
3,33,92,40
3,28,76,287
3,33,82,39
3,35,82,17
3,37,77,28
3,33,98,4
3,35,84,4
3,35,92,43
3,30,65,289
3,35,82,35
3,37,75,240
3,39,75,29
3,35,90,15
3,40,69,8
3,40,86,55
3,35,86,247
3,40,89,0
3,40,86,47
3,31,80,288
3,32,63,34
3,35,72,39
3,37,75,240
3,35,74,0
3,40,95,240
3,40,77,33
3,37,69,63
3,35,82,37
3,40,69,8
3,40,95,55
3,35,74,247
3,40,86,0
3,40,86,47
3,31,80,288
3,32,63,34
3,35,72,39
3,37,75,240
3,35,74,0
3,40,83,240
3,40,77,33
3,37,69,63
3,35,82,37
3,40,69,8
3,40,86,55
3,35,86,247
3,40,89,0
3,40,86,47
3,31,80,288
3,32,63,34
3,35,72,39
3,37,75,240
3,35,74,0
3,40,95,240
3,40,77,33
3,37,69,63
3,35,82,37
3,40,69,8
3,40,95,55
3,35,74,247
3,40,86,0
3,40,86,47
3,31,80,288
3,32,63,34
3,35,72,39
3,37,75,240
3,35,74,0
3,40,83,240
3,40,77,33
3,37,69,63
3,35,82,37
3,40,69,8
3,40,86,55
3,35,86,247
3,40,89,0
3,40,86,47
3,31,80,288
3,32,63,34
3,35,72,39
3,37,75,240
3,35,74,0
3,40,95,240
3,40,77,33
3,37,69,63
3,35,82,37
3,40,69,8
3,40,95,55
3,35,74,247
3,40,86,0
3,40,86,47
3,31,80,288
3,32,63,34
3,35,72,39
3,37,75,240
3,35,74,0
3,40,83,240
3,40,77,33
3,37,69,63
3,35,82,37
3,37,92,8
3,37,92,32
3,32,98,262
3,37,98,52
3,37,95,84
3,44,100,267
3,49,83,63
3,32,90,4
3,37,98,72
3,37,106,55
3,39,90,55
3,40,86,34
3,33,90,14
3,33,92,40
3,28,76,287
3,33,82,39
3,35,82,17
3,37,77,28
3,33,98,4
3,35,84,4
3,35,92,43
3,30,65,289
3,35,82,35
3,37,75,240
3,39,75,29
3,35,90,15
3,28,90,8
3,28,90,62
3,28,90,85
3,28,90,80
3,28,90,59
3,30,90,48
3,32,90,240
3,28,90,13
3,35,90,24
3,35,90,98
3,35,90,97
3,35,90,85
3,35,90,89
3,37,90,64
3,39,90,17
3,35,90,24
3,37,90,37
3,37,90,72
3,37,90,83
3,37,90,82
3,37,90,88
3,39,90,50
3,40,90,62
3,44,90,34
3,45,90,15
3,45,90,89
3,45,90,70
3,40,90,60
3,45,90,4
3,44,90,9
3,42,90,13
3,37,90,29
3,40,90,42
3,40,90,90
3,40,90,80
3,40,90,75
3,40,90,90
3,42,90,70
3,44,90,39
3,40,90,49
3,37,90,10
3,37,90,110
3,37,90,103
3,37,90,70
3,37,90,93
3,39,90,44
3,40,90,37
3,37,90,19
3,35,90,49
3,35,90,69
3,35,90,44
3,35,90,68
3,35,90,48
3,35,90,69
3,35,90,38
3,35,90,73
3,45,90,19
3,45,90,70
3,45,90,94
3,40,90,77
3,45,90,19
3,35,90,53
3,37,90,22
3,39,90,15
3,28,90,240
3,28,90,62
3,28,90,85
3,28,90,80
3,28,90,59
3,30,90,48
3,32,90,240
3,28,90,13
3,35,90,24
3,35,90,98
3,35,90,97
3,35,90,85
3,35,90,89
3,37,90,64
3,39,90,17
3,35,90,24
3,37,90,37
3,37,90,72
3,37,90,83
3,37,90,82
3,37,90,88
3,39,90,50
3,40,90,62
3,44,90,34
3,45,90,15
3,45,90,89
3,45,90,70
3,40,90,60
3,45,90,4
3,44,90,9
3,42,90,13
3,37,90,29
3,28,90,42
3,28,90,119
3,28,90,50
3,28,90,88
3,28,90,73
3,28,90,74
3,28,90,57
3,28,90,87
3,28,90,65
3,28,90,97
3,28,90,47
3,28,90,74
3,28,90,39
3,28,90,92
3,28,90,34
3,28,90,53
3,35,90,30
3,35,90,98
3,35,90,87
3,35,90,100
3,35,90,82
3,35,90,107
3,35,90,93
3,35,90,100
3,33,90,293
3,33,90,280
3,33,90,83
3,35,90,59
3,37,90,33
3,35,90,64
3,40,69,18
3,40,86,55
3,35,86,247
3,40,89,0
3,40,86,47
3,31,80,288
3,32,63,34
3,35,72,39
3,37,75,240
