track,note,velocity,time
0,67,120,0
0,67,109,0
0,67,0,33
0,67,115,0
0,67,0,41
0,68,118,0
0,68,0,119
0,65,115,0
0,74,40,1
0,65,113,0
0,74,0,0
0,74,102,1
0,65,0,71
0,74,0,22
0,74,102,1
0,65,116,0
0,65,0,45
0,74,0,1
0,75,103,0
0,67,109,1
0,67,0,29
0,67,115,0
0,75,0,0
0,75,99,1
0,67,0,70
0,75,0,6
0,65,117,0
0,63,110,0
0,63,0,29
0,67,119,0
0,67,0,25
0,67,117,0
0,67,0,79
0,65,117,0
0,63,110,49
0,65,0,8
0,60,114,40
0,63,0,1
0,60,0,68
0,60,116,0
0,60,0,33
0,63,118,0
0,63,0,72
0,60,119,0
0,60,0,144
0,39,127,46
0,38,89,0
0,36,115,0
0,55,103,0
0,60,111,0
0,48,98,0
0,36,108,3
0,75,95,1
0,72,92,0
0,79,100,0
0,67,99,0
0,42,99,0
0,36,110,0
0,49,78,0
0,48,114,0
0,67,119,0
0,55,118,0
0,42,99,60
0,53,112,0
0,38,106,0
0,38,0,6
0,53,0,0
0,42,0,0
0,72,0,26
0,75,0,8
0,79,0,0
0,67,0,0
0,36,0,7
0,32,113,0
0,72,90,1
0,68,83,0
0,77,95,0
0,65,89,0
0,44,103,0
0,65,114,0
0,53,108,0
0,67,0,4
0,55,0,0
0,48,0,4
0,42,93,40
0,36,79,0
0,53,111,0
0,53,0,6
0,36,0,0
0,42,0,0
0,34,110,90
0,42,93,0
0,53,111,0
0,38,106,0
0,32,0,6
0,38,0,0
0,53,0,0
0,42,0,0
0,77,0,38
0,65,0,0
0,36,106,4
0,65,0,0
0,63,94,0
0,75,108,0
0,53,0,0
0,63,127,0
0,51,113,0
0,34,0,5
0,68,0,3
0,72,0,20
0,75,0,8
0,44,0,0
0,70,83,3
0,36,0,0
0,34,113,0
0,46,95,0
0,74,90,1
0,79,100,0
0,67,99,0
0,42,95,0
0,36,92,0
0,53,111,0
0,67,119,0
0,55,118,0
0,53,0,6
0,36,0,0
0,42,0,0
0,65,87,23
0,53,106,0
0,77,105,1
0,65,124,0
0,67,0,4
0,55,0,0
0,79,0,4
0,67,0,0
0,34,0,22
0,77,0,14
0,65,0,0
0,63,90,3
0,53,112,0
0,34,116,1
0,75,100,0
0,42,76,0
0,38,106,0
0,51,109,0
0,63,119,0
0,65,0,3
0,53,0,0
0,53,0,2
0,38,0,1
0,42,0,0
0,34,0,74
0,70,0,3
0,74,0,1
0,75,0,0
0,63,0,0
0,46,0,3
0,63,0,4
0,51,0,1
0,72,85,3
0,75,81,0
0,72,108,0
0,48,111,0
0,36,108,1
0,60,99,0
0,53,111,0
0,42,95,0
0,36,102,0
0,60,127,0
0,48,118,0
0,36,0,6
0,42,0,0
0,53,0,0
0,70,94,89
0,49,86,0
0,58,113,0
0,58,98,1
0,42,78,0
0,38,106,0
0,46,117,0
0,48,0,4
0,60,0,0
0,49,0,1
0,38,0,1
0,42,0,0
0,72,0,1
0,60,0,1
0,36,0,19
0,58,0,13
0,46,0,0
0,70,0,7
0,60,87,0
0,58,0,0
0,36,94,1
0,72,93,0
0,48,106,0
0,60,112,0
0,75,0,19
0,72,0,12
0,72,0,9
0,72,90,4
0,68,81,0
0,32,104,0
0,79,111,0
0,67,94,0
0,42,95,0
0,36,97,0
0,53,111,0
0,44,103,0
0,67,127,0
0,55,113,0
0,48,0,3
0,53,0,3
0,36,0,0
0,42,0,0
0,53,111,76
0,42,82,0
0,38,106,0
0,38,0,6
0,42,0,0
0,53,0,0
0,68,0,18
0,32,0,3
0,67,0,17
0,55,0,0
0,34,119,3
0,65,94,0
0,53,113,0
0,70,66,1
0,74,87,0
0,79,0,0
0,77,103,0
0,46,103,0
0,67,0,0
0,65,122,0
0,72,0,4
0,44,0,4
0,36,73,40
0,53,111,0
0,42,76,0
0,42,0,6
0,53,0,0
0,36,0,0
0,74,0,58
0,70,0,0
0,34,0,24
0,31,106,6
0,42,93,2
0,53,111,0
0,38,106,0
0,38,0,6
0,53,0,0
0,42,0,0
0,77,0,34
0,65,0,0
0,34,107,6
0,75,100,1
0,63,90,0
0,63,119,0
0,51,109,0
0,65,0,8
0,53,0,0
0,31,0,2
0,46,0,23
0,34,0,11
0,75,87,4
0,79,87,0
0,39,110,0
0,63,0,0
0,67,94,0
0,51,0,0
0,55,113,0
0,79,93,1
0,42,99,0
0,36,97,0
0,53,111,0
0,51,112,0
0,67,112,0
0,53,0,6
0,36,0,0
0,42,0,0
0,75,0,1
0,63,0,0
0,79,0,32
0,65,92,9
0,77,93,0
0,53,111,0
0,65,112,0
0,75,0,7
0,79,0,1
0,67,0,0
0,67,0,3
0,55,0,0
0,65,0,13
0,77,0,0
0,63,90,0
0,75,100,0
0,53,0,0
0,65,0,0
0,51,109,0
0,63,119,0
0,39,0,6
0,51,0,6
0,63,0,4
0,75,0,4
0,63,0,0
0,51,0,0
0,60,94,3
0,72,100,0
0,53,111,0
0,48,113,0
0,60,119,0
0,75,87,1
0,72,80,0
0,36,98,0
0,49,70,0
0,42,95,0
0,38,104,0
0,48,103,0
0,53,0,5
0,49,0,1
0,42,0,0
0,38,0,0
0,53,111,89
0,42,95,1
0,38,106,0
0,53,0,5
0,38,0,1
0,42,0,0
0,36,0,36
0,31,108,6
0,36,94,0
0,36,0,6
0,53,111,41
0,34,99,1
0,42,93,0
0,49,63,0
0,38,106,0
0,53,0,5
0,42,0,1
0,49,0,0
0,38,0,0
0,31,0,1
0,72,0,0
0,60,0,0
0,72,0,5
0,75,0,4
0,60,0,3
0,48,0,0
0,48,0,9
0,34,0,20
0,36,100,0
0,36,0,23
0,49,86,3
0,75,87,1
0,72,92,0
0,36,106,0
0,79,98,0
0,67,102,0
0,36,104,0
0,42,99,0
0,44,103,0
0,67,117,0
0,55,121,0
0,49,0,5
0,42,0,1
0,36,0,0
0,42,99,68
0,53,112,0
0,38,106,0
0,38,0,6
0,53,0,0
0,42,0,0
0,36,0,30
0,32,113,11
0,77,103,1
0,65,97,0
0,65,122,0
0,53,116,0
0,79,0,4
0,67,0,0
0,67,0,8
0,55,0,0
0,36,92,35
0,42,93,1
0,53,111,0
0,36,0,5
0,53,0,1
0,42,0,0
0,32,0,77
0,53,111,12
0,34,107,1
0,42,93,0
0,38,106,0
0,53,0,5
0,38,0,1
0,42,0,0
0,53,0,38
0,36,100,3
0,75,96,0
0,63,115,0
0,77,0,1
0,65,0,0
0,63,90,0
0,65,0,0
0,51,109,0
0,34,0,1
0,75,0,15
0,72,0,16
0,63,0,8
0,70,81,3
0,74,85,0
0,34,110,0
0,79,98,0
0,67,92,0
0,53,111,0
0,36,107,0
0,67,117,0
0,42,95,0
0,46,99,0
0,55,111,0
0,65,92,15
0,77,98,0
0,53,111,0
0,65,117,0
0,55,0,1
0,67,0,3
0,67,0,8
0,79,0,4
0,34,0,12
0,65,0,20
0,63,81,0
0,75,100,0
0,53,111,0
0,51,100,0
0,63,119,0
0,34,116,1
0,42,76,0
0,38,106,0
0,77,0,3
0,53,0,0
0,65,0,0
0,53,0,2
0,38,0,1
0,42,0,0
0,70,0,73
0,46,0,1
0,74,0,3
0,34,0,4
0,63,0,4
0,72,77,4
0,75,81,0
0,36,104,0
0,75,0,0
0,60,99,0
0,49,73,0
0,36,104,0
0,48,100,0
0,51,0,0
0,63,0,0
0,48,118,0
0,72,98,1
0,42,95,0
0,60,117,0
0,36,0,5
0,49,0,0
0,42,0,1
0,58,90,89
0,70,83,0
0,53,111,0
0,46,109,0
0,58,102,0
0,42,78,1
0,38,106,0
0,72,0,4
0,60,0,0
0,53,0,1
0,38,0,1
0,42,0,0
0,60,0,1
0,48,0,4
0,36,0,15
0,70,0,17
0,58,0,0
0,58,0,4
0,60,80,0
0,72,78,0
0,46,0,0
0,48,99,0
0,60,97,0
0,36,88,1
0,72,0,19
0,75,0,8
0,68,87,3
0,72,95,0
0,72,0,0
0,67,94,0
0,79,103,0
0,60,0,0
0,55,113,0
0,32,113,1
0,36,99,0
0,49,93,0
0,42,95,0
0,44,106,0
0,67,122,0
0,42,0,6
0,49,0,0
0,36,0,0
0,48,0,1
0,42,82,76
0,38,106,0
0,38,0,6
0,42,0,0
0,68,0,17
0,32,0,5
0,70,77,3
0,74,87,0
0,77,100,0
0,65,94,0
0,49,95,0
0,36,97,0
0,46,103,0
0,65,119,0
0,53,113,0
0,34,123,2
0,67,0,2
0,36,0,2
0,49,0,0
0,79,0,1
0,42,76,28
0,42,0,6
0,42,93,90
0,53,111,0
0,38,106,0
0,38,0,6
0,53,0,0
0,42,0,0
0,53,111,3
0,36,107,0
0,42,99,0
0,38,104,0
0,53,112,23
0,49,82,0
0,36,107,0
0,38,106,0
0,42,95,1
0,46,80,0
0,38,0,5
0,36,0,0
0,53,0,0
0,49,0,0
0,46,0,1
0,42,0,0
0,46,84,7
0,46,0,6
0,46,0,83
0,65,0,4
0,53,0,0
0,74,0,3
0,70,0,0
0,46,82,0
0,38,94,0
0,77,0,1
0,65,0,0
0,38,0,5
0,46,0,0
0,36,89,42
0,36,0,6
0,34,0,21
0,86,127,3
0,46,80,0
0,49,82,0
0,36,104,1
0,60,82,0
0,36,114,0
0,48,127,0
0,49,0,5
0,36,0,1
0,46,0,0
0,87,127,3
0,86,109,0
0,31,88,2
0,43,105,0
0,55,63,1
0,87,120,0
0,86,0,4
0,87,0,4
0,84,114,16
0,55,0,8
0,84,0,0
0,43,0,11
0,58,53,4
0,34,85,1
0,46,87,0
0,38,106,0
0,46,123,0
0,38,0,6
0,46,0,0
0,31,0,4
0,79,125,14
0,79,0,12
0,58,0,3
0,46,0,1
0,60,67,7
0,48,113,0
0,36,83,1
0,82,127,0
0,34,0,3
0,82,0,13
0,79,123,8
0,60,0,11
0,48,0,0
0,79,0,5
0,36,0,4
0,82,127,3
0,36,98,0
0,39,107,1
0,63,63,0
0,46,83,0
0,51,115,0
0,36,0,5
0,46,0,1
0,39,0,10
0,63,0,4
0,51,0,0
0,82,0,3
0,79,117,0
0,77,127,1
0,77,0,16
0,79,0,3
0,36,111,4
0,39,116,1
0,63,63,0
0,75,127,0
0,51,119,0
0,36,0,5
0,75,0,11
0,63,0,24
0,60,75,7
0,74,94,0
0,72,99,0
0,46,86,0
0,38,106,0
0,48,115,0
0,36,79,1
0,75,127,0
0,39,0,3
0,51,0,1
0,38,0,1
0,46,0,0
0,74,0,2
0,75,0,9
0,72,0,7
0,74,119,1
0,60,0,11
0,74,0,5
0,34,95,7
0,58,47,0
0,48,0,0
0,46,123,0
0,36,0,1
0,72,127,0
0,72,0,8
0,70,126,15
0,70,0,8
0,46,0,8
0,34,0,8
0,58,0,0
0,60,72,0
0,67,119,0
0,46,87,0
0,36,108,0
0,48,120,0
0,36,100,1
0,65,123,0
0,36,0,5
0,46,0,0
0,67,0,10
0,65,0,5
0,70,127,4
0,60,0,15
0,70,0,5
0,55,65,3
0,67,127,0
0,48,0,0
0,43,91,0
0,31,97,1
0,65,127,0
0,36,0,4
0,65,0,12
0,67,0,3
0,63,127,5
0,43,0,19
0,63,0,1
0,58,66,3
0,46,84,0
0,38,106,0
0,46,119,0
0,34,97,1
0,62,127,0
0,55,0,3
0,38,0,2
0,46,0,0
0,31,0,7
0,62,0,4
0,60,119,7
0,58,0,12
0,60,0,4
0,34,0,5
0,36,80,3
0,60,65,0
0,63,126,0
0,46,0,0
0,48,115,0
0,62,127,1
0,63,0,11
0,62,0,9
0,60,127,3
0,60,0,12
0,60,0,0
0,48,0,4
0,63,63,8
0,58,126,0
0,46,85,0
0,36,108,0
0,51,119,0
0,36,0,1
0,39,116,0
0,36,0,5
0,46,0,0
0,58,0,6
0,39,0,6
0,63,0,2
0,51,0,0
0,55,127,4
0,53,123,1
0,63,66,23
0,55,0,0
0,36,106,0
0,51,123,0
0,39,104,1
0,53,0,0
0,36,0,5
0,63,0,22
0,60,87,3
0,46,86,0
0,38,106,0
0,48,126,0
0,36,83,1
0,60,84,18
0,86,127,0
0,36,111,0
0,46,85,0
0,48,123,0
0,36,102,1
0,46,0,5
0,36,0,0
0,86,0,14
0,87,127,4
0,86,127,1
0,60,0,15
0,86,0,5
0,36,0,2
0,31,94,1
0,55,54,0
0,87,0,0
0,43,108,0
0,84,127,1
0,48,0,3
0,84,0,9
0,82,127,12
0,55,0,11
0,43,0,8
0,82,0,1
0,58,66,3
0,46,86,0
0,38,106,0
0,46,115,0
0,34,101,1
0,79,127,0
0,38,0,5
0,46,0,0
0,31,0,6
0,79,0,9
0,77,112,3
0,82,120,1
0,58,0,15
0,82,0,1
0,60,67,7
0,48,113,0
0,36,85,1
0,79,115,0
0,77,0,3
0,46,0,0
0,34,0,1
0,77,115,20
0,79,0,4
0,48,0,7
0,77,0,1
0,60,0,3
0,63,63,8
0,46,86,0
0,36,103,0
0,51,115,0
0,36,0,2
0,39,113,0
0,36,0,4
0,46,0,0
0,39,0,12
0,63,0,2
0,75,113,4
0,51,0,0
0,74,109,1
0,75,0,11
0,74,0,5
0,63,60,7
0,36,108,0
0,51,115,0
0,39,116,1
0,72,70,0
0,75,92,0
0,36,0,5
0,75,0,3
0,72,0,8
0,75,87,8
0,75,0,8
0,63,0,7
0,60,75,8
0,74,123,0
0,46,87,0
0,38,106,0
0,48,123,0
0,36,84,1
0,72,127,0
0,39,0,1
0,38,0,4
0,46,0,0
0,51,0,2
0,72,0,1
0,74,0,7
0,60,0,20
0,48,0,8
0,46,111,3
0,58,45,1
0,70,126,0
0,34,85,1
0,36,0,5
0,70,0,14
0,67,106,4
0,65,121,1
0,60,82,3
0,70,120,0
0,46,86,0
0,36,111,0
0,63,125,0
0,60,124,0
0,48,126,0
0,36,104,1
0,65,0,0
0,67,127,15
0,65,110,1
0,70,0,3
0,65,0,9
0,31,100,3
0,55,65,0
0,43,108,0
0,36,0,1
0,63,127,0
0,48,0,7
0,62,127,4
0,55,0,15
0,43,0,0
0,62,0,5
0,34,99,3
0,58,66,0
0,46,86,0
0,38,106,0
0,46,115,0
0,60,86,1
0,63,126,0
0,38,0,5
0,46,0,0
0,62,127,8
0,63,0,4
0,36,80,7
0,60,67,0
0,46,0,0
0,48,113,0
0,62,0,1
0,60,119,0
0,34,0,4
0,60,0,12
0,58,113,8
0,63,66,3
0,36,101,0
0,46,87,0
0,38,106,0
0,51,123,0
0,39,99,1
0,55,127,0
0,53,115,4
0,63,66,3
0,55,117,0
0,36,96,0
0,51,126,0
0,39,116,1
0,53,0,0
0,60,72,4
0,55,0,0
0,46,86,0
0,52,116,0
0,53,110,0
0,38,106,0
0,48,120,0
0,36,86,1
0,53,103,0
0,39,0,1
0,38,0,4
0,46,0,0
0,52,0,0
0,53,0,0
0,55,111,0
0,36,98,0
0,53,0,1
0,36,0,5
0,48,0,2
0,60,0,4
0,60,0,12
0,36,0,1
0,63,0,3
0,55,0,3
0,58,113,0
0,36,108,1
0,49,78,0
0,36,116,0
0,48,127,0
0,60,82,1
0,36,0,5
0,49,0,0
0,31,94,3
0,36,0,1
0,55,63,0
0,60,119,0
0,43,105,0
0,55,0,32
0,43,0,12
0,46,85,3
0,34,97,1
0,58,53,0
0,38,106,0
0,46,123,0
0,46,0,5
0,38,0,1
0,31,0,5
0,60,0,10
0,58,0,15
0,46,0,4
0,36,90,0
0,60,120,0
0,60,67,1
0,48,113,0
0,34,0,1
0,60,0,35
0,48,0,0
0,46,83,11
0,36,0,1
0,39,107,0
0,63,63,0
0,51,115,0
0,46,0,5
0,39,0,12
0,63,0,3
0,51,0,0
0,60,0,10
0,39,104,17
0,63,63,1
0,36,115,0
0,51,119,0
0,36,0,6
0,63,0,34
0,36,87,7
0,60,75,0
0,48,115,0
0,46,81,1
0,38,106,0
0,39,0,2
0,51,0,2
0,38,0,2
0,46,0,0
0,60,0,29
0,34,84,11
0,58,47,0
0,55,112,0
0,46,123,0
0,36,0,1
0,48,0,3
0,55,0,25
0,46,0,11
0,36,100,0
