track,note,velocity,time
3,28,127,2160
3,27,127,0
3,26,127,30
3,31,127,0
3,28,127,0
3,31,127,0
3,28,127,0
3,28,127,30
3,27,127,0
3,26,127,0
3,31,127,0
3,28,127,0
3,31,127,0
3,28,127,0
3,23,127,776
3,25,127,51
3,28,127,12
3,28,127,30
3,28,127,30
3,28,127,30
3,28,127,30
3,28,127,30
3,28,127,30
3,28,127,30
3,28,127,30
3,28,127,30
3,28,127,30
3,28,127,30
3,28,127,30
3,28,127,30
3,28,127,30
3,28,127,30
3,28,127,30
3,28,127,30
3,28,127,30
3,28,127,30
3,28,127,30
3,28,127,30
3,28,127,30
3,28,127,30
3,28,127,30
3,28,127,30
3,28,127,30
3,28,127,30
3,28,127,30
3,28,127,30
3,23,127,26
3,25,127,17
3,28,127,13
3,28,127,30
3,28,127,30
3,28,127,30
3,28,127,30
3,28,127,30
3,28,127,30
3,28,127,30
3,28,127,30
3,28,127,30
3,28,127,30
3,28,127,30
3,28,127,30
3,28,127,30
3,28,127,30
3,28,127,30
3,28,127,30
3,28,127,30
3,28,127,30
3,28,127,30
3,28,127,30
3,28,127,30
3,28,127,30
3,28,127,30
3,28,127,30
3,28,127,30
3,28,127,30
3,28,127,30
3,28,127,30
3,28,127,30
3,28,127,30
3,28,127,30
3,28,127,30
3,33,127,30
3,33,127,0
3,33,127,30
3,33,127,30
3,33,127,30
3,33,127,30
3,33,127,30
3,33,127,30
3,33,127,30
3,33,127,30
3,33,127,30
3,33,127,30
3,33,127,30
3,33,127,30
3,33,127,30
3,33,127,30
3,33,127,30
3,33,127,30
3,33,127,30
3,33,127,30
3,33,127,30
3,33,127,30
3,33,127,30
3,33,127,30
3,35,127,30
3,35,127,30
3,35,127,30
3,35,127,30
3,35,127,30
3,35,127,30
3,34,127,30
3,33,127,30
3,33,127,30
3,33,127,30
3,33,127,30
3,33,127,30
3,33,127,30
3,33,127,30
3,33,127,30
3,33,127,30
3,33,127,30
3,33,127,30
3,33,127,30
3,33,127,30
3,33,127,30
3,33,127,30
3,33,127,30
3,33,127,30
3,33,127,30
3,33,127,30
3,33,127,30
3,33,127,30
3,33,127,30
3,33,127,30
3,33,127,30
3,35,127,30
3,35,127,30
3,35,127,30
3,35,127,30
3,35,127,30
3,35,127,30
3,35,127,30
3,35,127,30
3,28,127,30
3,28,127,30
3,28,127,30
3,28,127,30
3,28,127,30
3,28,127,30
3,28,127,30
3,35,127,30
3,28,127,0
3,28,127,30
3,28,127,30
3,28,127,30
3,28,127,30
3,28,127,30
3,28,127,30
3,35,127,0
3,28,127,0
3,28,127,30
3,28,127,30
3,28,127,30
3,28,127,30
3,28,127,30
3,28,127,30
3,28,127,30
3,35,127,30
3,35,127,30
3,35,127,30
3,35,127,30
3,35,127,60
3,28,127,0
3,28,127,60
3,28,127,30
3,28,127,30
3,28,127,30
3,28,127,30
3,28,127,30
3,28,127,0
3,28,127,30
3,28,127,30
3,28,127,30
3,28,127,30
3,28,127,30
3,28,127,30
3,28,127,30
3,28,127,30
3,28,127,90
3,35,127,0
3,35,127,60
3,35,127,30
3,35,127,60
3,35,127,30
3,35,127,30
3,33,127,0
3,35,127,30
3,34,127,0
3,26,127,120
3,31,127,0
3,28,127,0
3,31,127,0
3,28,127,0
3,28,127,30
3,27,127,0
3,26,127,0
3,31,127,0
3,28,127,0
3,31,127,0
3,28,127,0
3,23,127,776
3,25,127,51
3,28,127,12
3,28,127,30
3,28,127,30
3,28,127,30
3,28,127,30
3,28,127,30
3,28,127,30
3,28,127,30
3,28,127,30
3,28,127,30
3,28,127,30
3,28,127,30
3,28,127,30
3,28,127,30
3,28,127,30
3,28,127,30
3,28,127,30
3,28,127,30
3,28,127,30
3,28,127,30
3,28,127,30
3,28,127,30
3,28,127,30
3,28,127,30
3,28,127,30
3,28,127,30
3,28,127,30
3,28,127,30
3,28,127,30
3,28,127,30
3,23,127,26
3,25,127,17
3,28,127,13
3,28,127,30
3,28,127,30
3,28,127,30
3,28,127,30
3,28,127,30
3,28,127,30
3,28,127,30
3,28,127,30
3,28,127,30
3,28,127,30
3,28,127,30
3,28,127,30
3,28,127,30
3,28,127,30
3,28,127,30
3,28,127,30
3,28,127,30
3,28,127,30
3,28,127,30
3,28,127,30
3,28,127,30
3,28,127,30
3,28,127,30
3,28,127,30
3,28,127,30
3,28,127,30
3,28,127,30
3,28,127,30
3,28,127,30
3,28,127,30
3,28,127,30
3,28,127,30
3,33,127,30
3,33,127,0
3,33,127,30
3,33,127,30
3,33,127,30
3,33,127,30
3,33,127,30
3,33,127,30
3,33,127,30
3,33,127,30
3,33,127,30
3,33,127,30
3,33,127,30
3,33,127,30
3,33,127,30
3,33,127,30
3,33,127,30
3,33,127,30
3,33,127,30
3,33,127,30
3,33,127,30
3,33,127,30
3,33,127,30
3,33,127,30
3,35,127,30
3,35,127,30
3,35,127,30
3,35,127,30
3,35,127,30
3,35,127,30
3,34,127,30
3,33,127,30
3,33,127,30
3,33,127,30
3,33,127,30
3,33,127,30
3,33,127,30
3,33,127,30
3,33,127,30
3,33,127,30
3,33,127,30
3,33,127,30
3,33,127,30
3,33,127,30
3,33,127,30
3,33,127,30
3,33,127,30
3,33,127,30
3,33,127,30
3,33,127,30
3,33,127,30
3,33,127,30
3,33,127,30
3,33,127,30
3,33,127,30
3,35,127,30
3,35,127,30
3,35,127,30
3,35,127,30
3,35,127,30
3,35,127,30
3,35,127,30
3,35,127,30
3,28,127,30
3,28,127,30
3,28,127,30
3,28,127,30
3,28,127,30
3,28,127,30
3,28,127,30
3,35,127,30
3,28,127,0
3,28,127,30
3,28,127,30
3,28,127,30
3,28,127,30
3,28,127,30
3,28,127,30
3,35,127,0
3,28,127,0
3,28,127,30
3,28,127,30
3,28,127,30
3,28,127,30
3,28,127,30
3,28,127,30
3,28,127,30
3,35,127,30
3,35,127,30
3,35,127,30
3,35,127,30
3,35,127,60
3,28,127,0
3,28,127,60
3,28,127,30
3,28,127,30
3,28,127,30
3,28,127,30
3,28,127,30
3,28,127,0
3,28,127,30
3,28,127,30
3,28,127,30
3,28,127,30
3,28,127,30
3,28,127,30
3,28,127,30
3,28,127,30
3,28,127,90
3,35,127,0
3,35,127,60
3,35,127,30
3,35,127,60
3,35,127,30
3,35,127,30
3,33,127,0
3,35,127,30
3,34,127,0
3,28,127,3570
3,27,127,0
3,26,127,30
3,31,127,0
3,28,127,0
3,31,127,0
3,28,127,0
3,28,127,30
3,27,127,0
3,26,127,0
3,31,127,0
3,28,127,0
3,31,127,0
3,28,127,0
3,28,127,720
3,27,127,0
3,26,127,30
3,31,127,0
3,28,127,0
3,31,127,0
3,28,127,0
3,28,127,30
3,27,127,0
3,26,127,0
3,31,127,0
3,28,127,0
3,31,127,0
3,28,127,0
3,28,127,720
3,27,127,0
3,26,127,30
3,31,127,0
3,28,127,0
3,31,127,0
3,28,127,0
3,28,127,10
3,27,127,0
3,26,127,0
3,31,127,0
3,28,127,0
3,31,127,0
3,28,127,0
4,40,127,1734
4,39,127,110
4,38,127,102
4,43,127,3
4,40,127,0
4,43,127,356
4,40,127,0
4,40,127,96
4,39,127,119
4,38,127,107
4,43,127,12
4,40,127,13
4,43,127,25
4,40,127,5
4,35,127,138
4,38,127,57
4,40,127,50
4,40,127,16
4,35,127,412
4,47,94,10
4,35,120,3
4,37,120,48
4,38,127,2
4,50,94,1
4,52,94,44
4,40,120,2
4,40,127,3
4,52,94,7
4,40,127,5
4,40,127,895
4,52,94,2
4,40,120,1
4,55,94,6
4,43,120,2
4,43,127,0
4,45,120,6
4,57,94,1
4,45,127,0
4,57,94,15
4,45,127,1
4,35,127,986
4,47,94,14
4,34,127,5
4,46,94,8
4,33,127,1
4,45,94,10
4,47,94,847
4,50,94,59
4,52,94,0
4,52,94,18
4,48,94,1
4,52,94,41
4,47,94,120
4,50,94,30
4,52,94,0
4,52,94,30
4,52,94,30
4,52,94,30
4,47,94,30
4,50,94,0
4,52,94,30
4,52,94,30
4,52,94,30
4,52,94,60
4,52,94,60
4,52,94,60
4,47,94,0
4,47,94,60
4,47,94,30
4,47,94,60
4,52,94,30
4,52,94,60
4,47,94,60
4,49,94,0
4,50,94,0
4,52,94,0
4,52,94,30
4,52,94,90
4,47,94,30
4,50,94,0
4,52,94,30
4,52,94,30
4,52,94,30
4,52,94,60
4,52,94,60
4,47,94,60
4,47,94,0
4,47,94,30
4,47,94,30
4,47,94,30
4,47,94,30
4,47,94,60
4,47,94,30
4,46,94,30
4,38,127,3
4,43,127,39
4,40,127,0
4,43,127,356
4,40,127,0
4,40,127,96
4,39,127,119
4,38,127,107
4,43,127,12
4,40,127,13
4,43,127,25
4,40,127,5
4,35,127,138
4,38,127,57
4,40,127,50
4,40,127,16
4,35,127,412
4,47,94,10
4,35,120,3
4,37,120,48
4,38,127,2
4,50,94,1
4,52,94,44
4,40,120,2
4,40,127,3
4,52,94,7
4,40,127,5
4,40,127,895
4,52,94,2
4,40,120,1
4,55,94,6
4,43,120,2
4,43,127,0
4,45,120,6
4,57,94,1
4,45,127,0
4,57,94,15
4,45,127,1
4,35,127,986
4,47,94,14
4,34,127,5
4,46,94,8
4,33,127,1
4,45,94,10
4,47,94,847
4,50,94,59
4,52,94,0
4,52,94,18
4,48,94,1
4,52,94,41
4,47,94,120
4,50,94,30
4,52,94,0
4,52,94,30
4,52,94,30
4,52,94,30
4,47,94,30
4,50,94,0
4,52,94,30
4,52,94,30
4,52,94,30
4,52,94,60
4,52,94,60
4,52,94,60
4,47,94,0
4,47,94,60
4,47,94,30
4,47,94,60
4,52,94,30
4,52,94,60
4,47,94,60
4,49,94,0
4,50,94,0
4,52,94,0
4,52,94,30
4,52,94,90
4,47,94,30
4,50,94,0
4,52,94,30
4,52,94,30
4,52,94,30
4,52,94,60
4,52,94,60
4,47,94,60
4,47,94,0
4,47,94,30
4,47,94,30
4,47,94,30
4,47,94,30
4,47,94,60
4,47,94,30
4,46,94,30
4,40,127,3604
4,39,127,110
4,38,127,102
4,43,127,3
4,40,127,0
4,43,127,356
4,40,127,0
4,40,127,96
4,39,127,119
4,38,127,107
4,43,127,12
4,40,127,13
4,43,127,25
4,40,127,5
4,40,127,123
4,39,127,110
4,38,127,102
4,43,127,3
4,40,127,0
4,43,127,356
4,40,127,0
4,40,127,96
4,39,127,119
4,38,127,107
4,43,127,12
4,40,127,13
4,43,127,25
4,40,127,5
4,40,127,123
4,39,127,110
4,38,127,102
4,43,127,3
4,40,127,0
4,43,127,29
4,40,127,0
4,40,127,9
4,39,127,10
4,38,127,19
4,43,127,5
4,40,127,5
4,43,127,25
4,40,127,5
5,52,90,2156
5,51,90,118
5,50,90,2
5,55,90,0
5,52,90,0
5,55,90,0
5,52,90,0
5,52,90,0
5,52,90,7
5,52,90,0
5,52,90,12
5,52,90,0
5,52,90,2
5,52,90,20
5,51,90,0
5,50,90,0
5,55,90,0
5,52,90,0
5,55,90,0
5,52,90,0
5,47,90,0
5,49,90,0
5,52,90,0
5,52,90,30
5,47,90,1260
5,50,90,0
5,52,90,0
5,52,90,30
5,52,90,1530
5,55,90,0
5,57,90,0
5,57,90,30
5,66,90,1470
5,47,90,0
5,46,90,0
5,65,90,0
5,64,90,0
5,45,90,2
5,47,90,1408
5,50,90,30
5,52,90,60
5,52,90,0
5,52,90,240
5,52,90,120
5,47,90,90
5,47,90,90
5,52,90,90
5,52,90,120
5,52,90,120
5,47,90,210
5,49,90,0
5,47,90,120
5,47,90,90
5,47,90,30
5,46,90,0
5,50,90,0
5,55,90,14
5,52,90,0
5,55,90,0
5,52,90,0
5,52,90,0
5,52,90,7
5,52,90,0
5,52,90,12
5,52,90,0
5,52,90,2
5,52,90,20
5,51,90,0
5,50,90,0
5,55,90,0
5,52,90,0
5,55,90,0
5,52,90,0
5,47,90,0
5,49,90,0
5,52,90,0
5,52,90,30
5,47,90,1260
5,50,90,0
5,52,90,0
5,52,90,30
5,52,90,1530
5,55,90,0
5,57,90,0
5,57,90,30
5,66,90,1470
5,47,90,0
5,46,90,0
5,65,90,0
5,64,90,0
5,45,90,2
5,47,90,1408
5,50,90,30
5,52,90,60
5,52,90,0
5,52,90,240
5,52,90,120
5,47,90,90
5,47,90,90
5,52,90,90
5,52,90,120
5,52,90,120
5,47,90,210
5,49,90,0
5,47,90,120
5,47,90,90
5,47,90,30
5,46,90,0
5,52,90,3596
5,51,90,118
5,50,90,2
5,55,90,0
5,52,90,0
5,55,90,0
5,52,90,0
5,52,90,0
5,52,90,7
5,52,90,0
5,52,90,12
5,52,90,0
5,52,90,2
5,52,90,20
5,51,90,0
5,50,90,0
5,55,90,0
5,52,90,0
5,55,90,0
5,52,90,0
5,52,90,238
5,51,90,84
5,50,90,2
5,55,90,0
5,52,90,0
5,55,90,0
5,52,90,0
5,52,90,0
5,52,90,7
5,52,90,0
5,52,90,12
5,52,90,0
5,52,90,2
5,52,90,20
5,51,90,0
5,50,90,0
5,55,90,0
5,52,90,0
5,55,90,0
5,52,90,0
5,52,90,238
5,51,90,84
5,50,90,2
5,55,90,0
5,52,90,0
5,55,90,0
5,52,90,0
5,52,90,5
5,52,90,12
5,52,90,7
5,52,90,32
5,52,90,12
5,52,90,27
5,52,90,10
5,51,90,0
5,50,90,0
5,55,90,0
5,52,90,0
5,55,90,0
5,52,90,0
6,52,90,2163
6,51,90,114
6,50,90,113
6,55,90,358
6,52,90,117
6,55,90,347
6,52,90,124
6,52,90,602
6,51,90,120
6,50,90,112
6,55,90,355
6,52,90,123
6,55,90,340
6,52,90,130
6,47,90,401
6,49,90,21
6,52,90,32
6,40,90,16
6,47,90,2
6,52,90,5
6,47,127,1501
6,50,127,30
6,52,127,30
6,40,90,27
6,52,127,3
6,52,127,1525
6,55,127,0
6,57,127,30
6,33,90,22
6,57,127,8
6,47,127,1438
6,46,127,30
6,45,127,30
6,47,127,1530
6,50,127,30
6,52,127,30
6,40,90,21
6,40,127,5
6,52,127,4
6,40,127,249
6,40,127,240
6,35,127,270
6,35,127,120
6,40,127,120
6,40,127,240
6,40,127,240
6,35,127,360
6,35,127,90
6,35,127,120
6,35,127,60
6,34,127,0
6,50,90,14
6,55,90,4
6,52,90,124
6,55,90,347
6,52,90,124
6,52,90,602
6,51,90,120
6,50,90,112
6,55,90,355
6,52,90,123
6,55,90,340
6,52,90,130
6,47,90,401
6,49,90,21
6,52,90,32
6,40,90,16
6,47,90,2
6,52,90,5
6,47,127,1501
6,50,127,30
6,52,127,30
6,40,90,27
6,52,127,3
6,52,127,1525
6,55,127,0
6,57,127,30
6,33,90,22
6,57,127,8
6,47,127,1438
6,46,127,30
6,45,127,30
6,47,127,1530
6,50,127,30
6,52,127,30
6,40,90,21
6,40,127,5
6,52,127,4
6,40,127,249
6,40,127,240
6,35,127,270
6,35,127,120
6,40,127,120
6,40,127,240
6,40,127,240
6,35,127,360
6,35,127,90
6,35,127,120
6,35,127,60
6,34,127,0
6,52,90,3603
6,51,90,114
6,50,90,113
6,55,90,358
6,52,90,117
6,55,90,347
6,52,90,124
6,52,90,602
6,51,90,120
6,50,90,112
6,55,90,355
6,52,90,123
6,55,90,340
6,52,90,130
6,52,90,355
6,51,90,114
6,50,90,113
6,55,90,358
6,52,90,117
6,55,90,347
6,52,90,124
6,52,90,602
6,51,90,120
6,50,90,112
6,55,90,355
6,52,90,123
6,55,90,340
6,52,90,130
6,52,90,355
6,51,90,114
6,50,90,113
6,55,90,38
6,52,90,117
6,55,90,30
6,52,90,27
6,52,90,9
6,51,90,11
6,50,90,27
6,55,90,2
6,52,90,6
6,55,90,76
6,52,90,8
7,50,90,2388
7,38,90,0
7,50,127,14
7,54,90,1
7,57,90,4
7,62,127,1
7,67,127,0
7,55,127,0
7,40,90,37
7,52,90,5
7,56,90,6
7,52,127,0
7,64,127,6
7,59,90,18
7,67,127,5
7,55,127,5
7,59,90,61
7,56,90,19
7,64,127,7
7,52,127,4
7,40,90,9
7,52,90,3
7,50,90,407
7,38,90,8
