track,note,velocity,time
1,35,100,6432
1,37,100,6
1,35,90,32
1,28,98,6
1,28,96,114
1,28,102,68
1,28,98,130
1,28,102,56
1,28,96,132
1,28,100,46
1,28,96,132
1,28,102,48
1,28,96,122
1,28,102,50
1,28,100,134
1,28,104,60
1,35,96,106
1,37,100,6
1,35,96,24
1,28,98,6
1,28,96,114
1,28,102,68
1,28,98,130
1,28,102,56
1,28,96,132
1,28,100,46
1,28,96,132
1,28,102,48
1,28,96,122
1,28,102,50
1,28,100,134
1,28,104,60
1,35,96,106
1,37,100,6
1,35,96,24
1,28,98,6
1,28,96,114
1,28,102,68
1,28,98,130
1,28,102,56
1,28,96,132
1,28,100,46
1,28,96,132
1,28,102,48
1,28,96,122
1,28,102,50
1,28,100,134
1,28,104,60
1,35,96,106
1,37,100,6
1,35,96,24
1,28,98,6
1,28,96,114
1,28,102,68
1,28,98,130
1,28,102,56
1,28,96,132
1,28,100,46
1,28,96,132
1,28,102,48
1,28,96,122
1,28,102,50
1,28,100,134
1,28,104,60
1,35,96,106
1,37,100,6
1,35,96,24
1,28,98,6
1,40,96,18
1,40,98,170
1,40,96,168
1,35,96,166
1,28,98,6
1,40,96,18
1,40,98,170
1,40,96,168
1,35,96,166
1,28,98,6
1,40,96,18
1,40,98,170
1,40,96,168
1,35,96,166
1,28,98,6
1,40,96,18
1,40,98,170
1,40,96,168
1,35,96,166
1,28,98,6
1,40,96,18
1,40,98,170
1,40,96,168
1,35,96,166
1,28,98,6
1,40,96,18
1,40,98,170
1,40,96,168
1,35,96,166
1,28,98,6
1,40,96,18
1,40,98,170
1,40,96,168
1,35,96,166
1,28,98,6
1,40,96,18
1,40,98,170
1,40,96,168
1,35,96,166
1,31,98,6
1,31,98,56
1,31,94,130
1,31,94,128
1,31,96,130
1,33,97,6
1,33,96,46
1,33,92,138
1,33,96,148
1,33,97,124
1,35,96,6
1,35,83,56
1,35,95,158
1,35,97,170
1,35,99,106
1,35,94,6
1,35,99,100
1,35,99,148
1,35,100,168
1,35,103,158
1,35,99,166
1,35,99,148
1,35,100,168
1,35,103,158
1,40,97,6
1,40,96,36
1,40,95,36
1,38,98,62
1,38,96,110
1,38,96,122
1,33,99,6
1,33,94,16
1,33,100,36
1,35,97,102
1,35,97,104
1,35,98,90
1,40,97,6
1,40,96,36
1,40,95,36
1,38,98,62
1,38,96,110
1,38,96,122
1,33,99,6
1,33,94,16
1,33,100,36
1,35,97,102
1,35,97,104
1,35,98,90
1,40,97,6
1,40,96,36
1,40,95,36
1,38,98,62
1,38,96,110
1,38,96,122
1,33,99,6
1,33,94,16
1,33,100,36
1,35,97,102
1,35,97,104
1,35,96,90
1,28,98,6
1,28,96,114
1,28,102,68
1,28,98,130
1,28,102,56
1,28,96,132
1,28,100,46
1,28,96,132
1,28,102,48
1,28,96,122
1,28,102,50
1,28,100,134
1,28,104,60
1,35,96,106
1,37,100,6
1,35,96,24
1,28,98,6
1,28,96,114
1,28,102,68
1,28,98,130
1,28,102,56
1,28,96,132
1,28,100,46
1,28,96,132
1,28,102,48
1,28,96,122
1,28,102,50
1,28,100,134
1,28,104,60
1,35,96,106
1,37,100,6
1,35,96,24
1,28,98,6
1,40,96,18
1,40,98,170
1,40,96,168
1,35,96,166
1,28,98,6
1,40,96,18
1,40,98,170
1,40,96,168
1,35,96,166
1,28,98,6
1,40,96,18
1,40,98,170
1,40,96,168
1,35,96,166
1,28,98,6
1,40,96,18
1,40,98,170
1,40,96,168
1,35,96,166
1,28,98,6
1,40,96,18
1,40,98,170
1,40,96,168
1,35,96,166
1,28,98,6
1,40,96,18
1,40,98,170
1,40,96,168
1,35,96,166
1,28,98,6
1,40,96,18
1,40,98,170
1,40,96,168
1,35,96,166
1,28,98,6
1,40,96,18
1,40,98,170
1,40,96,168
1,35,96,166
1,31,98,6
1,31,98,56
1,31,94,130
1,31,94,128
1,31,96,130
1,33,97,6
1,33,96,46
1,33,92,138
1,33,96,148
1,33,97,124
1,35,96,6
1,35,83,56
1,35,95,158
1,35,97,170
1,35,99,106
1,35,94,6
1,35,99,100
1,35,99,148
1,35,100,168
1,35,103,158
1,35,99,166
1,35,99,148
1,35,100,168
1,35,103,158
1,40,97,6
1,40,96,36
1,40,95,36
1,38,98,62
1,38,96,110
1,38,96,122
1,33,99,6
1,33,94,16
1,33,100,36
1,35,97,102
1,35,97,104
1,35,98,90
1,40,97,6
1,40,96,36
1,40,95,36
1,38,98,62
1,38,96,110
1,38,96,122
1,33,99,6
1,33,94,16
1,33,100,36
1,35,97,102
1,35,97,104
1,35,98,90
1,40,97,6
1,40,96,36
1,40,95,36
1,38,98,62
1,38,96,110
1,38,96,122
1,33,99,6
1,33,94,16
1,33,100,36
1,35,97,102
1,35,97,104
1,35,96,90
1,28,98,6
1,28,96,114
1,28,102,68
1,28,98,130
1,28,102,56
1,28,96,132
1,28,100,46
1,28,96,132
1,28,102,48
1,28,96,122
1,28,102,50
1,28,100,134
1,28,104,60
1,35,96,106
1,37,100,6
1,35,96,24
1,28,98,6
1,28,96,114
1,28,102,68
1,28,98,130
1,28,102,56
1,28,96,132
1,28,100,46
1,28,96,132
1,28,102,48
1,28,96,122
1,28,102,50
1,28,100,134
1,28,104,60
1,35,96,106
1,37,100,6
1,35,96,24
1,28,98,6
1,28,96,114
1,28,102,68
1,28,98,130
1,28,102,56
1,28,96,132
1,28,100,46
1,28,96,132
1,28,102,48
1,28,96,122
1,28,102,50
1,28,100,134
1,28,104,60
1,35,96,106
1,37,100,6
1,35,96,24
1,28,98,6
1,28,96,114
1,28,102,68
1,28,98,130
1,28,102,56
1,28,96,132
1,28,100,46
1,28,96,132
1,28,102,48
1,28,96,122
1,28,102,50
1,28,100,134
1,28,104,60
1,35,96,106
1,37,100,6
1,35,96,24
1,28,98,6
1,28,96,114
1,28,102,68
1,28,98,130
1,28,102,56
1,28,96,132
1,28,100,46
1,28,96,132
1,28,102,48
1,28,96,122
1,28,102,50
1,28,100,134
1,28,104,60
1,35,96,106
1,37,100,6
1,35,96,24
1,28,98,6
1,28,96,114
1,28,102,68
1,28,98,130
1,28,102,56
1,28,96,132
1,28,100,46
1,28,96,132
1,28,102,48
1,28,96,122
1,28,102,50
1,28,100,134
1,28,104,60
1,35,96,106
1,37,100,6
1,35,96,24
1,28,98,6
1,28,96,114
1,28,102,68
1,28,98,130
1,28,102,56
1,28,96,132
1,28,100,46
1,28,96,132
1,28,102,48
1,28,96,122
1,28,102,50
1,28,100,134
1,28,104,60
1,35,96,106
1,37,100,6
1,35,96,24
1,28,98,6
1,28,96,114
1,28,102,68
1,28,98,130
1,28,102,56
1,28,96,132
1,28,100,46
1,28,96,132
1,28,102,48
1,28,96,122
1,28,102,50
1,28,100,134
1,28,104,60
1,35,96,106
1,37,100,6
1,35,96,24
1,40,97,6
1,40,96,36
1,40,95,36
1,38,98,62
1,38,96,110
1,38,96,122
1,33,99,6
1,33,94,16
1,33,100,36
1,35,97,102
1,35,97,104
1,35,98,90
1,40,97,6
1,40,96,36
1,40,95,36
1,38,98,62
1,38,96,110
1,38,96,122
1,33,99,6
1,33,94,16
1,33,100,36
1,35,97,102
1,35,97,104
1,35,98,90
1,40,97,6
1,40,96,36
1,40,95,36
1,38,98,62
1,38,96,110
1,38,96,122
1,33,99,6
1,33,94,16
1,33,100,36
1,35,97,102
1,35,97,104
1,35,96,90
1,28,98,6
1,28,96,114
1,28,102,68
1,28,98,130
1,28,102,56
1,28,96,132
1,28,100,46
1,28,96,132
1,28,102,48
1,28,96,122
1,28,102,50
1,28,100,134
1,28,104,60
1,35,96,106
1,37,100,6
1,35,96,24
1,28,98,6
1,28,96,114
1,28,102,68
1,28,98,130
1,28,102,56
1,28,96,132
1,28,100,46
1,28,96,132
1,28,102,48
1,28,96,122
1,28,102,50
1,28,100,134
1,28,104,60
1,35,96,106
1,37,100,6
1,35,96,24
1,28,98,6
1,28,96,114
1,28,102,68
1,28,98,130
1,28,102,56
1,28,96,132
1,28,100,46
1,28,96,132
1,28,102,48
1,28,96,122
1,28,102,50
1,28,100,134
1,28,104,60
1,35,96,106
1,37,100,6
1,35,96,24
1,28,98,6
1,28,96,114
1,28,102,68
1,28,98,130
1,28,102,56
1,28,96,132
1,28,100,46
1,28,96,132
1,28,102,48
1,28,96,122
1,28,102,50
1,28,100,134
1,28,104,60
1,35,96,106
1,37,100,6
1,35,96,24
1,28,98,6
1,28,96,114
1,28,102,68
1,28,98,130
1,28,102,56
1,28,96,132
1,28,100,46
1,28,96,132
1,28,102,48
1,28,96,122
1,28,102,50
1,28,100,134
1,28,104,60
1,35,96,106
1,37,100,6
1,35,96,24
1,28,98,6
1,28,96,114
1,28,102,68
1,28,98,130
1,28,102,56
1,28,96,132
1,28,100,46
1,28,96,132
1,28,102,48
1,28,96,122
1,28,102,50
1,28,100,134
1,28,104,60
1,35,96,106
1,37,100,6
1,35,96,24
1,28,98,6
1,28,96,114
1,28,102,68
1,28,98,130
1,28,102,56
1,28,96,132
1,28,100,46
1,28,96,132
1,28,102,48
1,28,96,122
1,28,102,50
1,28,100,134
1,28,104,60
1,35,96,106
1,37,100,6
1,35,96,24
1,28,98,6
1,28,96,114
1,28,102,68
1,28,98,130
1,28,102,56
1,28,96,132
1,28,100,46
1,28,96,132
1,28,102,48
1,28,96,122
1,28,102,50
1,28,100,134
1,28,104,60
1,35,96,106
1,37,100,6
1,35,89,24
1,28,98,6
1,28,96,114
1,28,102,68
1,28,98,130
1,28,102,56
1,28,96,132
1,28,100,46
1,28,96,132
1,28,102,48
1,28,96,24
1,28,102,50
1,28,100,134
1,28,104,60
1,35,96,16
1,37,100,6
1,35,96,24
1,28,98,6
1,28,96,114
1,28,102,68
1,28,98,130
1,28,102,56
1,28,96,132
1,28,100,46
1,28,96,132
1,28,102,48
1,28,96,122
1,28,102,50
1,28,100,6
1,28,104,60
1,35,96,106
1,37,100,6
1,35,96,24
1,28,98,6
1,28,96,114
1,28,102,68
1,28,98,130
1,28,102,56
1,28,96,132
1,28,100,46
1,28,96,96
1,28,102,48
1,28,96,122
1,28,102,50
2,49,103,12704
2,47,119,6
2,52,121,6
2,52,121,116
2,52,121,988
2,52,121,214
2,52,123,6
2,49,103,202
2,47,118,6
2,52,121,6
2,52,121,194
2,52,119,966
2,52,119,226
2,52,120,6
2,80,118,20588
2,80,118,1586
2,80,118,1586
2,49,103,1202
2,47,119,6
2,52,121,6
2,52,121,116
2,52,121,988
2,52,121,214
2,52,123,6
2,49,103,202
2,47,118,6
2,52,121,6
2,52,121,194
2,52,119,966
2,52,119,226
2,52,120,6
2,80,118,20588
2,80,118,1586
2,80,118,1586
2,49,103,1202
2,47,119,6
2,52,121,6
2,52,121,116
2,52,121,988
2,52,121,214
2,52,123,6
2,49,103,202
2,47,118,6
2,52,121,6
2,52,121,194
2,52,119,966
2,52,119,226
2,52,120,6
2,49,103,236
2,47,119,6
2,52,121,6
2,52,121,116
2,52,121,988
2,52,121,214
2,52,123,6
2,49,103,202
2,47,118,6
2,52,121,6
2,52,121,194
2,52,119,966
2,52,119,226
2,52,120,6
2,49,103,236
2,47,119,6
2,52,121,6
2,52,121,116
2,52,121,988
2,52,121,214
2,52,123,6
2,49,103,202
2,47,118,6
2,52,121,6
2,52,121,194
2,52,119,966
2,52,119,226
2,52,120,6
2,49,103,236
2,47,119,6
2,52,121,6
2,52,121,116
2,52,121,988
2,52,121,214
2,52,123,6
2,49,103,202
2,47,118,6
2,52,121,6
2,52,121,194
2,52,119,966
2,52,119,226
2,52,120,6
2,80,118,620
2,80,118,1586
2,80,118,1586
2,49,103,1202
2,47,119,6
2,52,121,6
2,52,121,116
2,52,121,988
2,52,121,214
2,52,123,6
2,49,103,202
2,47,118,6
2,52,121,6
2,52,121,194
2,52,119,966
2,52,119,226
2,52,120,6
2,49,103,236
2,47,119,6
2,52,121,6
2,52,121,116
2,52,121,988
2,52,121,214
2,52,123,6
2,49,103,202
2,47,118,6
2,52,121,6
2,52,121,194
2,52,119,966
2,52,119,226
2,52,120,6
2,49,103,236
2,47,119,6
2,52,121,6
2,52,121,116
2,52,121,988
2,52,121,214
2,52,123,6
2,49,103,202
2,47,118,6
2,52,121,6
2,52,121,194
2,52,119,966
2,52,119,226
2,52,120,6
2,49,103,236
2,47,119,6
2,52,121,6
2,52,121,116
2,52,121,988
2,52,121,214
2,52,123,6
2,49,103,202
2,47,118,6
2,52,121,6
2,52,121,194
2,52,119,966
2,52,119,226
2,52,120,6
2,49,103,236
2,47,119,6
2,52,121,6
2,52,121,116
2,52,121,16
2,52,121,214
2,52,123,6
2,49,103,152
2,47,118,6
2,52,121,4
2,52,121,194
2,52,119,546
2,52,119,226
2,52,120,6
2,49,103,62
2,47,119,6
2,52,121,6
2,52,121,116
2,52,121,470
2,52,121,38
2,52,123,6
3,62,121,18828
3,62,122,114
3,62,123,56
3,62,121,72
3,62,121,222
3,61,118,44
3,61,118,110
3,61,118,60
3,59,116,84
3,59,118,208
3,57,119,6
3,57,115,98
3,59,118,38
3,59,119,78
3,59,120,172
3,62,119,1402
3,62,119,90
3,62,118,52
3,62,118,134
3,62,117,78
3,61,111,84
3,61,114,68
3,61,116,48
3,59,113,46
3,59,114,132
3,57,107,10
3,57,109,74
3,59,114,20
3,59,114,38
3,59,112,152
3,62,118,1356
3,62,119,74
3,62,115,98
3,62,115,106
3,62,115,122
3,62,115,106
3,62,114,102
3,61,114,6
3,62,116,6
3,64,113,50
3,64,114,90
3,64,115,32
3,64,109,64
3,64,116,34
3,64,115,128
3,64,111,96
3,64,109,106
3,64,110,108
3,63,108,6
3,64,110,6
3,66,114,96
3,59,124,1436
3,64,125,208
3,57,123,290
3,59,124,186
3,59,124,246
3,64,125,198
3,57,123,290
3,59,124,186
3,59,124,246
3,64,125,198
3,57,123,290
3,59,124,186
3,62,121,6390
3,62,122,114
3,62,123,56
3,62,121,72
3,62,121,222
3,61,118,44
3,61,118,110
3,61,118,60
3,59,116,84
3,59,118,208
3,57,119,6
3,57,115,98
3,59,118,38
3,59,119,78
3,59,120,172
3,62,119,1402
3,62,119,90
3,62,118,52
3,62,118,134
3,62,117,78
3,61,111,84
3,61,114,68
3,61,116,48
3,59,113,46
3,59,114,132
3,57,107,10
3,57,109,74
3,59,114,20
3,59,114,38
3,59,112,152
3,62,118,1356
3,62,119,74
3,62,115,98
3,62,115,106
3,62,115,122
3,62,115,106
3,62,114,102
3,61,114,6
3,62,116,6
3,64,113,50
3,64,114,90
3,64,115,32
3,64,109,64
3,64,116,34
3,64,115,128
3,64,111,96
3,64,109,106
3,64,110,108
3,63,108,6
3,64,110,6
3,66,114,96
3,59,124,1436
3,64,125,208
3,57,123,290
3,59,124,186
3,59,124,246
3,64,125,198
3,57,123,290
3,59,124,186
3,59,124,246
3,64,125,198
3,57,123,290
3,59,124,186
3,59,124,24822
3,64,125,208
3,57,123,290
3,59,124,186
3,59,124,246
3,64,125,198
3,57,123,290
3,59,124,186
3,59,124,246
3,64,125,198
3,57,123,290
3,59,124,186
4,64,70,94
4,52,94,0
4,59,80,0
4,59,53,6
4,52,67,0
4,64,43,0
4,59,66,6
4,64,56,0
4,52,80,0
4,64,40,6
4,59,50,0
4,52,64,0
4,52,92,6
4,64,64,0
4,59,78,0
4,59,74,2
4,64,64,0
4,52,88,0
4,64,42,6
4,52,66,0
4,59,52,0
4,64,45,6
4,52,69,0
4,59,55,0
4,64,43,6
4,59,53,0
4,52,67,0
4,64,57,6
4,52,85,0
4,59,71,0
4,64,70,94
4,59,80,0
4,52,94,0
4,59,53,6
4,64,43,0
4,52,67,0
4,64,56,6
4,59,66,0
4,52,80,0
4,59,50,6
4,64,40,0
4,52,64,0
4,64,64,6
4,52,92,0
4,59,78,0
4,52,88,2
4,59,74,0
4,64,64,0
4,64,42,6
4,52,66,0
4,59,52,0
4,64,45,6
4,52,69,0
4,59,55,0
4,64,43,6
4,59,53,0
4,52,67,0
4,59,71,6
