track,note,velocity,time
2,66,91,0
2,69,93,0
2,69,86,20
2,74,87,0
2,73,85,20
2,76,91,0
2,74,84,20
2,78,87,0
2,69,88,10
2,74,90,0
2,73,87,20
2,76,89,0
2,74,87,10
2,78,90,0
2,69,91,10
2,74,89,0
2,73,86,10
2,76,85,0
2,76,88,10
2,81,91,0
2,73,93,20
2,76,86,0
2,74,93,10
2,78,91,0
2,69,92,10
2,76,87,0
2,74,87,5
2,73,91,5
2,76,92,0
2,73,88,10
2,81,86,0
2,73,89,20
2,76,85,0
2,74,92,10
2,78,92,0
2,69,87,10
2,76,90,0
2,74,91,5
2,73,89,5
2,76,92,0
2,69,90,10
2,81,89,116
2,81,89,10
2,81,86,10
2,81,85,10
2,79,85,10
2,78,87,5
2,79,86,5
2,79,87,10
2,79,84,10
2,79,86,10
2,79,85,10
2,78,85,10
2,76,86,5
2,78,90,5
2,78,90,10
2,81,92,0
2,78,85,10
2,81,91,0
2,78,93,10
2,81,87,0
2,78,92,10
2,81,84,0
2,76,90,10
2,79,93,0
2,74,90,5
2,78,91,0
2,76,86,5
2,79,88,0
2,76,90,10
2,79,88,0
2,76,85,10
2,79,87,0
2,76,86,10
2,79,84,0
2,73,92,10
2,79,87,0
2,73,89,29
2,81,87,0
2,74,92,10
2,78,92,0
2,76,91,10
2,78,87,10
2,74,88,10
2,79,90,0
2,74,84,10
2,76,91,0
2,73,88,20
2,74,85,29
2,74,92,10
2,78,88,3975
2,81,93,0
2,78,85,10
2,81,85,0
2,78,86,10
2,81,91,0
2,78,84,10
2,81,87,0
2,76,85,10
2,79,93,0
2,74,90,5
2,78,88,0
2,76,90,5
2,79,88,0
2,76,87,10
2,79,93,0
2,76,84,10
2,79,86,0
2,76,92,10
2,79,91,0
2,76,91,10
2,79,86,0
2,74,90,10
2,78,87,0
2,73,93,5
2,76,90,0
2,74,89,5
2,78,91,0
2,78,85,1076
2,78,85,10
2,78,92,10
2,80,88,10
2,76,90,116
2,81,92,10
2,76,88,10
2,78,87,10
2,78,91,116
2,78,89,10
2,78,90,10
2,71,92,10
2,71,92,29
2,76,89,10
2,81,86,20
2,81,84,20
2,80,86,20
2,81,89,20
2,78,91,2247
2,81,88,0
2,78,87,10
2,81,90,0
2,78,92,10
2,81,92,0
2,78,88,10
2,81,90,0
2,76,92,10
2,79,92,0
2,74,92,5
2,78,91,0
2,76,92,5
2,79,87,0
2,76,84,10
2,79,90,0
2,76,93,10
2,79,92,0
2,74,85,10
2,79,90,0
2,73,84,10
2,79,87,0
2,73,91,29
2,81,87,0
2,74,89,10
2,78,86,0
2,76,93,10
2,78,84,10
2,76,86,10
2,79,90,0
2,73,87,10
2,76,89,0
2,74,88,29
2,74,92,10
2,78,94,116
2,81,92,0
2,78,84,10
2,81,92,0
2,78,89,10
2,81,92,0
2,78,88,10
2,81,85,0
2,76,84,10
2,79,90,0
2,74,88,5
2,78,92,0
2,76,86,5
2,79,84,0
2,76,87,10
2,79,86,0
2,76,93,10
2,79,86,0
2,74,84,10
2,79,86,0
2,73,84,10
2,79,84,0
2,73,92,29
2,81,89,0
2,74,87,10
2,78,88,0
2,76,89,10
2,78,84,10
2,76,90,10
2,79,87,0
2,73,89,10
2,76,84,0
2,74,84,29
2,74,93,10
2,66,91,58
2,69,91,0
2,69,84,20
2,74,92,0
2,73,88,20
2,76,88,0
2,74,91,20
2,78,88,0
2,69,88,10
2,74,85,0
2,73,91,20
2,76,87,0
2,74,85,10
2,78,88,0
2,69,86,10
2,74,92,0
2,73,87,10
2,76,85,0
2,76,90,10
2,81,89,0
2,73,88,20
2,76,91,0
2,74,86,10
2,78,91,0
2,69,86,10
2,76,86,0
2,74,88,5
2,73,84,5
2,76,84,0
2,73,85,10
2,81,88,0
2,73,93,20
2,76,92,0
2,74,88,10
2,78,92,0
2,69,92,10
2,76,92,0
2,74,89,5
2,73,91,5
2,76,85,0
2,69,92,10
2,81,87,116
2,81,91,10
2,81,89,10
2,81,87,10
2,79,88,10
2,78,92,5
2,79,86,5
2,79,85,10
2,79,91,10
2,79,91,10
2,79,93,10
2,78,88,10
2,76,91,5
2,78,88,5
2,78,92,10
2,81,87,0
2,78,88,10
2,81,89,0
2,78,91,10
2,81,93,0
2,78,86,10
2,81,86,0
2,76,91,10
2,79,86,0
2,74,84,5
2,78,85,0
2,76,90,5
2,79,89,0
2,76,89,10
2,79,85,0
2,76,91,10
2,79,90,0
2,76,88,10
2,79,84,0
2,73,89,10
2,79,93,0
2,73,88,29
2,81,92,0
2,74,88,10
2,78,86,0
2,76,87,10
2,78,85,10
2,74,85,10
2,79,93,0
2,74,90,10
2,76,84,0
2,73,92,20
2,74,91,29
2,74,88,10
2,78,84,3975
2,81,85,0
2,78,86,10
2,81,84,0
2,78,88,10
2,81,88,0
2,78,84,10
2,81,89,0
2,76,91,10
2,79,87,0
2,74,90,5
2,78,87,0
2,76,93,5
2,79,85,0
2,76,91,10
2,79,88,0
2,76,91,10
2,79,89,0
2,76,92,10
2,79,86,0
2,76,86,10
2,79,90,0
2,74,91,10
2,78,91,0
2,73,93,5
2,76,87,0
2,74,90,5
2,78,88,0
2,78,93,1076
2,78,91,10
2,78,90,10
2,80,87,10
2,76,93,116
2,81,89,10
2,76,92,10
2,78,92,10
2,78,84,116
2,78,84,10
2,78,86,10
2,71,93,10
2,71,91,29
2,76,93,10
2,81,84,20
2,81,84,20
2,80,85,20
2,81,88,20
2,78,86,2247
2,81,86,0
2,78,92,10
2,81,86,0
2,78,85,10
2,81,93,0
2,78,93,10
2,81,90,0
2,76,89,10
2,79,84,0
2,74,84,5
2,78,87,0
2,76,92,5
2,79,85,0
2,76,87,10
2,79,88,0
2,76,92,10
2,79,85,0
2,74,86,10
2,79,91,0
2,73,92,10
2,79,88,0
2,73,93,29
2,81,89,0
2,74,91,10
2,78,85,0
2,76,84,10
2,78,88,10
2,76,93,10
2,79,90,0
2,73,90,10
2,76,90,0
2,74,85,29
2,74,93,10
2,78,86,116
2,81,93,0
2,78,92,10
2,81,88,0
2,78,84,10
2,81,89,0
2,78,92,10
2,81,86,0
2,76,90,10
2,79,86,0
2,74,87,5
2,78,90,0
2,76,84,5
2,79,84,0
2,76,88,10
2,79,91,0
2,76,92,10
2,79,92,0
2,74,86,10
2,79,93,0
2,73,86,10
2,79,92,0
2,73,91,29
2,81,86,0
2,74,91,10
2,78,91,0
2,76,85,10
2,78,85,10
2,76,89,10
2,79,91,0
2,73,88,10
2,76,89,0
2,74,84,29
2,74,89,10
2,78,93,58
2,74,93,10
2,71,89,10
2,78,87,10
2,78,88,10
2,78,86,10
2,78,89,10
2,76,93,10
2,74,86,5
2,76,84,5
2,76,85,10
2,76,89,10
2,76,87,10
2,76,86,10
2,74,92,10
2,73,92,5
2,74,93,5
2,74,87,10
2,74,93,10
2,74,84,10
2,74,94,10
2,76,86,10
2,74,92,5
2,73,93,5
2,76,91,10
2,76,89,10
2,76,92,10
2,76,90,10
2,76,84,29
2,78,84,10
2,73,86,10
2,74,93,10
2,78,87,10
2,83,86,20
2,78,88,20
2,76,84,29
2,79,88,10
2,79,86,10
2,79,92,48
2,78,90,10
2,76,89,10
2,78,87,10
2,83,89,10
2,80,93,20
2,78,90,20
2,77,90,10
2,73,86,116
2,73,91,10
2,71,85,15
2,73,90,3
2,78,84,3
2,73,85,116
2,73,90,10
2,71,85,15
2,73,87,3
2,80,84,3
2,73,91,116
2,73,91,10
2,71,88,15
2,73,88,3
2,81,85,3
2,73,87,116
2,81,92,10
2,73,86,10
2,80,85,10
2,81,88,10
2,83,90,5
2,71,89,5
2,71,91,10
2,71,84,10
2,71,89,10
2,80,85,10
2,81,86,10
2,83,89,5
2,71,88,5
2,71,85,10
2,71,87,10
2,71,93,10
2,77,84,10
2,73,88,29
2,78,90,10
2,80,91,29
2,80,88,10
2,78,85,29
2,78,91,10
2,73,92,116
2,78,86,10
2,73,93,10
2,75,84,10
2,78,92,10
2,71,88,20
2,80,89,20
2,76,89,20
2,71,92,20
2,73,88,10
2,74,87,5
2,76,89,5
2,69,86,10
2,81,93,10
2,76,89,20
2,78,91,10
2,78,89,116
2,76,89,10
2,76,86,10
2,76,89,10
2,76,90,116
2,76,87,10
2,76,88,10
2,76,85,10
2,76,85,116
2,76,84,10
2,76,88,10
2,82,91,10
2,80,86,29
2,78,93,5
2,83,85,5
2,81,89,10
2,79,88,5
2,78,91,5
2,79,92,5
2,76,92,5
2,74,92,10
2,73,91,20
2,71,86,15
2,71,90,5
2,66,85,5012
2,69,88,0
2,69,93,20
2,74,88,0
2,73,86,20
2,76,86,0
2,74,90,20
2,78,86,0
2,69,93,10
2,74,91,0
2,73,90,20
2,76,88,0
2,74,86,10
2,78,87,0
2,69,93,10
2,74,85,0
2,73,90,10
2,76,89,0
2,76,91,10
2,81,90,0
2,73,88,20
2,76,91,0
2,74,93,10
2,78,94,0
2,69,84,10
2,76,88,0
2,74,92,5
2,73,90,5
2,76,90,0
2,73,85,10
2,81,88,0
2,73,89,20
2,76,92,0
2,74,87,10
2,78,92,0
2,69,86,10
2,76,90,0
2,74,87,5
2,73,85,5
2,76,90,0
2,69,91,10
2,81,93,116
2,81,88,10
2,81,86,10
2,81,85,10
2,79,85,10
2,78,91,5
2,79,84,5
2,79,89,10
2,79,93,10
2,79,87,10
2,79,88,10
2,78,93,10
2,76,86,5
2,78,85,5
2,78,87,10
2,81,84,0
2,78,84,10
2,81,87,0
2,78,87,10
2,81,92,0
2,78,88,10
2,81,93,0
2,76,88,10
2,79,93,0
2,74,85,5
2,78,85,0
2,76,93,5
2,79,88,0
2,76,88,10
2,79,93,0
2,76,94,10
2,79,93,0
2,76,93,10
2,79,90,0
2,73,93,10
2,79,89,0
2,73,93,29
2,81,93,0
2,74,92,10
2,78,92,0
2,76,85,10
2,78,87,10
2,74,84,10
2,79,93,0
2,74,91,10
2,76,90,0
2,73,90,20
2,74,87,29
2,74,89,10
2,78,86,3975
2,81,93,0
2,78,87,10
2,81,90,0
2,78,92,10
2,81,85,0
2,78,87,10
2,81,92,0
2,76,92,10
2,79,89,0
2,74,89,5
2,78,87,0
2,76,86,5
2,79,85,0
2,76,88,10
2,79,92,0
2,76,85,10
2,79,88,0
2,76,86,10
2,79,89,0
2,76,89,10
2,79,88,0
2,74,88,10
2,78,86,0
2,73,91,5
2,76,89,0
2,74,86,5
2,78,85,0
2,78,89,1076
2,78,91,10
2,78,85,10
2,80,92,10
2,76,88,116
2,81,88,10
2,76,86,10
2,78,91,10
2,78,85,116
2,78,91,10
2,78,85,10
2,71,87,10
2,71,93,29
2,76,94,10
2,81,84,20
2,81,85,20
2,80,92,20
2,81,86,20
2,78,87,2247
2,81,89,0
2,78,84,10
2,81,93,0
2,78,87,10
2,81,84,0
2,78,89,10
2,81,93,0
2,76,88,10
2,79,86,0
2,74,89,5
2,78,93,0
2,76,93,5
2,79,87,0
2,76,92,10
2,79,91,0
2,76,86,10
2,79,84,0
2,74,84,10
2,79,92,0
2,73,89,10
2,79,90,0
2,73,91,29
2,81,85,0
2,74,87,10
2,78,92,0
2,76,87,10
2,78,87,10
2,76,92,10
2,79,91,0
2,73,92,10
2,76,85,0
2,74,90,29
2,74,86,10
2,78,87,116
2,81,85,0
2,78,92,10
2,81,88,0
2,78,92,10
2,81,87,0
2,78,92,10
2,81,84,0
2,76,90,10
2,79,85,0
2,74,93,5
2,78,88,0
2,76,89,5
2,79,89,0
2,76,91,10
2,79,85,0
2,76,84,10
2,79,84,0
2,74,85,10
2,79,88,0
2,73,91,10
2,79,89,0
2,73,93,29
2,81,84,0
2,74,86,10
2,78,89,0
2,76,85,10
2,78,86,10
2,76,85,10
2,79,93,0
2,73,87,10
2,76,91,0
2,74,84,29
2,74,87,10
3,50,90,0
3,54,90,20
3,57,89,20
3,62,90,20
3,54,90,10
3,57,92,20
3,62,85,10
3,54,87,10
3,57,88,10
3,61,87,10
3,57,90,20
3,62,87,10
3,54,89,10
3,57,84,10
3,61,87,10
3,57,85,20
3,62,85,10
3,54,85,10
3,57,85,10
3,57,91,116
3,54,92,10
3,57,86,10
3,59,88,10
3,55,89,116
3,52,91,10
3,55,91,10
3,57,93,10
3,54,90,116
3,50,87,10
3,54,85,10
3,55,84,10
3,52,87,116
3,55,92,10
3,52,92,10
3,57,90,10
3,57,91,29
3,62,91,10
3,55,88,29
3,57,84,10
3,45,87,20
3,50,86,20
3,57,86,3975
3,54,84,10
3,57,93,10
3,59,91,10
3,55,93,116
3,52,84,10
3,55,85,10
3,57,89,10
3,50,91,20
3,50,93,1076
3,47,92,10
3,50,86,10
3,52,87,10
3,49,93,116
3,45,89,10
3,49,91,10
3,50,93,10
3,50,84,116
3,62,85,10
3,62,92,10
3,62,88,10
3,62,88,29
3,61,86,10
3,59,88,10
3,61,92,10
3,57,84,10
3,64,92,10
3,52,86,20
3,57,93,20
3,54,86,2247
3,57,85,10
3,54,87,10
3,59,93,10
3,52,92,116
3,55,88,10
3,52,87,10
3,57,90,10
3,57,85,29
3,59,93,10
3,55,87,29
3,57,85,10
3,45,84,20
3,50,91,20
3,62,93,10
3,57,86,10
3,54,93,10
3,57,87,10
3,54,85,10
3,59,85,10
3,52,89,29
3,55,90,10
3,52,89,10
3,57,89,10
3,57,86,29
3,59,84,10
3,55,88,20
3,57,90,20
3,45,93,20
3,50,91,20
3,50,85,58
3,54,86,20
3,57,92,20
3,62,93,20
3,54,93,10
3,57,89,20
3,62,84,10
3,54,91,10
3,57,87,10
3,61,85,10
3,57,90,20
3,62,90,10
3,54,89,10
3,57,88,10
3,61,89,10
3,57,90,20
3,62,94,10
3,54,84,10
3,57,86,10
3,57,84,116
3,54,92,10
3,57,85,10
3,59,87,10
3,55,93,116
3,52,91,10
3,55,89,10
3,57,87,10
3,54,91,116
3,50,91,10
3,54,88,10
3,55,85,10
3,52,88,116
3,55,88,10
3,52,89,10
3,57,92,10
3,57,89,29
3,62,92,10
3,55,84,29
3,57,89,10
3,45,84,20
3,50,91,20
3,57,90,3975
3,54,88,10
3,57,86,10
3,59,84,10
3,55,90,116
3,52,88,10
3,55,87,10
3,57,88,10
3,50,91,20
3,50,93,1076
3,47,90,10
3,50,93,10
3,52,84,10
3,49,90,116
3,45,85,10
3,49,86,10
3,50,88,10
3,50,93,116
3,62,86,10
3,62,88,10
3,62,84,10
3,62,91,29
3,61,85,10
3,59,84,10
3,61,90,10
3,57,86,10
3,64,84,10
3,52,85,20
3,57,87,20
3,54,88,2247
3,57,85,10
3,54,88,10
3,59,93,10
3,52,91,116
3,55,91,10
3,52,93,10
3,57,91,10
3,57,91,29
3,59,93,10
3,55,86,29
3,57,86,10
3,45,93,20
3,50,84,20
3,62,88,10
3,57,92,10
3,54,86,10
3,57,85,10
3,54,86,10
3,59,86,10
3,52,92,29
3,55,91,10
3,52,89,10
3,57,89,10
3,57,90,29
3,59,90,10
3,55,84,20
3,57,90,20
3,45,84,20
3,50,88,20
3,47,92,58
3,47,89,116
3,50,91,10
3,47,85,10
3,55,89,10
3,49,85,116
3,52,86,10
3,49,85,10
3,54,86,10
3,47,90,116
3,50,87,10
3,47,87,10
3,52,88,10
3,52,90,116
3,55,88,10
3,52,87,10
3,54,87,10
3,54,89,116
3,58,86,10
3,54,84,10
3,59,89,10
3,47,92,116
3,50,85,10
3,47,94,10
3,52,84,10
3,52,93,116
3,55,93,10
3,52,84,10
3,57,88,10
3,45,88,116
3,49,85,10
3,45,91,10
3,50,93,10
3,50,90,116
3,47,88,10
3,50,84,10
3,49,84,10
3,49,86,116
3,61,86,10
3,49,87,10
3,61,92,10
3,49,88,116
3,61,88,10
3,49,91,10
3,61,84,10
3,49,93,116
3,61,86,10
3,49,89,10
3,61,90,10
3,49,84,116
3,61,89,10
3,49,92,10
3,50,85,10
3,50,87,116
3,62,91,10
3,50,85,10
3,62,92,10
3,50,85,116
3,62,90,10
3,50,87,10
3,49,86,10
3,61,85,29
3,62,90,10
