track,note,velocity,time
1,62,95,0
1,58,95,0
1,55,95,0
1,60,95,0
1,55,95,0
1,51,95,0
1,60,95,0
1,57,95,0
1,53,95,0
1,58,95,0
1,53,95,0
1,50,95,0
1,46,95,0
1,58,95,0
1,55,95,0
1,51,95,0
1,57,95,0
1,51,95,0
1,48,95,0
1,50,95,0
1,38,95,0
1,43,95,0
1,62,95,0
1,58,95,0
1,55,95,0
1,60,95,0
1,55,95,0
1,51,95,0
1,60,95,0
1,57,95,0
1,53,95,0
1,58,95,0
1,53,95,0
1,50,95,0
1,46,95,0
1,58,95,0
1,55,95,0
1,51,95,0
1,57,95,0
1,51,95,0
1,48,95,0
1,50,95,0
1,38,95,0
1,43,95,0
1,55,95,0
1,43,91,0
1,53,95,0
1,41,91,0
1,51,95,0
1,39,91,0
1,50,95,0
1,38,91,0
1,48,95,0
1,36,91,0
1,50,95,0
1,38,91,0
1,51,95,0
1,39,91,0
1,48,95,0
1,36,91,0
1,53,95,0
1,41,91,0
1,51,95,0
1,39,91,0
1,50,95,0
1,38,91,0
1,48,95,0
1,36,91,0
1,46,95,0
1,34,91,0
1,48,95,0
1,36,91,0
1,50,95,0
1,38,91,0
1,46,95,0
1,34,91,0
1,63,91,0
1,51,91,0
1,62,91,0
1,50,91,0
1,60,91,0
1,48,91,0
1,58,91,0
1,46,91,0
1,57,91,0
1,45,91,0
1,58,91,0
1,46,91,0
1,60,91,0
1,48,91,0
1,57,91,0
1,45,91,0
1,62,91,0
1,50,91,0
1,60,91,0
1,48,91,0
1,58,91,0
1,46,91,0
1,57,91,0
1,45,91,0
1,55,91,0
1,43,91,0
1,50,107,0
1,46,107,0
1,50,107,0
1,55,95,0
1,43,91,0
1,53,95,0
1,41,91,0
1,51,95,0
1,39,91,0
1,50,95,0
1,38,91,0
1,48,95,0
1,36,91,0
1,50,95,0
1,38,91,0
1,51,95,0
1,39,91,0
1,48,95,0
1,36,91,0
1,53,95,0
1,41,91,0
1,51,95,0
1,39,91,0
1,50,95,0
1,38,91,0
1,48,95,0
1,36,91,0
1,46,95,0
1,34,91,0
1,48,95,0
1,36,91,0
1,50,95,0
1,38,91,0
1,46,95,0
1,34,91,0
1,63,91,0
1,51,91,0
1,62,91,0
1,50,91,0
1,60,91,0
1,48,91,0
1,58,91,0
1,46,91,0
1,57,91,0
1,45,91,0
1,58,91,0
1,46,91,0
1,60,91,0
1,48,91,0
1,57,91,0
1,45,91,0
1,62,91,0
1,50,91,0
1,60,91,0
1,48,91,0
1,58,91,0
1,46,91,0
1,57,91,0
1,45,91,0
1,55,91,0
1,43,91,0
1,50,107,0
1,46,107,0
1,50,107,0
1,55,91,0
1,58,91,0
1,60,91,0
1,51,91,0
1,53,91,0
1,57,91,0
1,58,91,0
1,50,91,0
1,51,91,0
1,55,91,0
1,57,91,0
1,48,91,0
1,50,91,0
1,54,91,0
1,55,91,0
1,43,91,0
1,46,95,0
1,50,95,0
1,55,95,96
1,53,95,100
1,51,95,96
1,50,95,96
1,48,95,102
1,46,95,94
1,45,95,98
1,48,95,0
1,53,95,100
1,51,95,98
1,50,95,96
1,48,95,96
1,46,95,98
1,45,95,98
1,43,95,100
1,46,95,0
1,51,95,96
1,50,95,96
1,48,95,98
1,46,95,96
1,45,95,98
1,43,95,96
1,42,95,96
1,45,95,0
1,50,95,94
1,48,95,98
1,46,95,102
1,45,95,96
1,43,95,98
1,43,95,0
1,55,91,0
1,57,91,0
1,58,91,0
1,36,95,0
1,48,91,0
1,50,91,0
1,51,91,0
1,41,95,0
1,53,91,0
1,55,91,0
1,57,91,0
1,46,95,0
1,58,91,0
1,60,91,0
1,62,91,0
1,39,95,0
1,51,91,0
1,53,91,0
1,55,91,0
1,45,95,0
1,57,91,0
1,58,91,0
1,60,91,0
1,62,95,0
1,50,95,0
1,52,95,0
1,54,95,0
1,55,95,0
1,46,95,0
1,48,95,0
1,50,95,0
1,55,103,0
1,50,91,0
1,46,91,0
1,43,103,0
1,55,103,0
1,51,103,0
1,48,103,0
1,57,103,0
1,53,103,0
1,58,103,0
1,53,103,0
1,46,103,0
1,58,103,0
1,55,103,0
1,51,103,0
1,55,103,0
1,45,103,0
1,48,103,0
1,50,103,0
1,38,103,0
1,43,103,0
1,46,103,0
1,48,103,0
1,50,103,0
1,43,103,0
1,62,95,0
1,60,95,0
1,58,95,0
1,60,95,0
1,62,95,0
1,51,95,0
1,53,95,0
1,55,95,0
1,48,95,0
1,50,95,0
1,51,95,0
1,45,95,0
1,46,95,0
1,48,95,0
1,41,95,0
1,53,95,0
1,51,95,0
1,50,95,0
1,51,95,0
1,53,95,0
1,46,95,0
1,48,95,0
1,50,95,0
1,51,95,0
1,53,95,0
1,55,95,0
1,48,95,0
1,50,95,0
1,51,95,0
1,50,95,0
1,52,95,0
1,54,95,0
1,55,95,0
1,57,95,0
1,58,95,0
1,60,95,0
1,58,95,0
1,57,95,0
1,62,95,0
1,60,95,0
1,62,95,0
1,58,95,0
1,60,95,0
1,62,95,0
1,55,95,0
1,57,95,0
1,58,95,0
1,62,71,0
1,58,71,0
1,55,71,0
1,60,71,0
1,55,71,0
1,51,71,0
1,60,71,0
1,57,71,0
1,53,71,0
1,58,71,0
1,53,71,0
1,50,71,0
1,58,71,0
1,55,71,0
1,51,71,0
1,57,71,0
1,51,71,0
1,48,71,0
1,57,71,0
1,54,71,0
1,50,71,0
1,55,71,0
1,50,71,0
1,46,71,0
1,43,71,0
1,62,71,0
1,58,71,0
1,55,71,0
1,60,75,0
1,55,75,0
1,51,75,0
1,60,75,0
1,57,75,0
1,53,75,0
1,58,79,0
1,53,79,0
1,50,79,0
1,58,79,0
1,55,79,0
1,51,79,0
1,57,79,0
1,51,79,0
1,48,79,0
1,57,79,0
1,54,79,0
1,50,79,0
1,55,79,0
1,50,79,0
1,46,79,0
1,43,79,0
1,43,87,0
1,45,87,0
1,46,87,0
1,48,87,0
1,50,87,0
1,52,87,0
1,54,87,0
1,55,87,0
1,48,87,0
1,50,87,0
1,51,87,0
1,53,87,0
1,55,87,0
1,57,87,0
1,58,87,0
1,60,87,0
1,41,91,0
1,43,91,0
1,45,91,0
1,46,91,0
1,48,91,0
1,50,91,0
1,51,91,0
1,53,91,0
1,46,91,0
1,48,91,0
1,50,91,0
1,51,91,0
1,53,91,0
1,55,91,0
1,57,91,0
1,58,91,0
1,48,95,0
1,50,95,0
1,51,95,0
1,53,95,0
1,55,95,0
1,57,95,0
1,58,95,0
1,60,95,0
1,62,95,0
1,54,95,0
1,55,99,0
1,46,99,0
1,48,99,0
1,45,99,0
1,50,103,0
1,38,103,0
1,55,103,0
1,46,103,0
1,48,107,0
1,50,107,0
1,62,95,0
1,58,95,0
1,55,95,0
1,60,95,0
1,55,95,0
1,48,95,0
1,60,95,0
1,57,95,0
1,53,95,0
1,58,95,0
1,53,95,0
1,46,95,0
1,58,95,0
1,55,95,0
1,51,95,0
1,57,95,0
1,48,95,0
1,45,95,0
1,50,107,0
1,38,107,0
1,43,107,0
1,31,107,0
1,62,71,0
1,58,71,0
1,55,71,0
1,58,71,0
1,55,71,0
1,52,71,0
1,57,71,0
1,53,71,0
1,51,71,0
1,56,71,0
1,53,71,0
1,50,71,0
1,55,75,0
1,52,75,0
1,49,75,0
1,54,75,0
1,50,75,0
1,48,75,0
1,55,79,0
1,50,79,0
1,46,79,0
1,48,83,0
1,36,83,0
1,50,87,0
1,38,87,0
1,55,91,0
1,43,91,0
1,60,95,98
1,58,95,0
1,57,95,0
1,62,71,0
1,58,71,0
1,55,71,0
1,58,71,0
1,55,71,0
1,52,71,0
1,57,71,0
1,53,71,0
1,51,71,0
1,59,71,0
1,53,71,0
1,50,71,0
1,58,75,0
1,52,75,0
1,49,75,0
1,57,75,0
1,48,75,0
1,55,79,0
1,46,79,0
1,57,83,0
1,51,83,0
1,48,83,0
1,57,83,0
1,50,83,0
1,55,87,0
1,50,87,0
1,46,87,0
1,43,87,0
1,43,71,0
1,46,71,0
1,50,71,0
1,55,71,0
1,43,71,0
1,46,71,0
1,50,71,0
1,55,71,0
1,48,71,0
1,51,71,0
1,55,71,0
1,60,71,0
1,48,71,0
1,51,71,0
1,55,71,0
1,60,71,0
1,41,71,0
1,45,71,0
1,48,71,0
1,53,71,0
1,41,71,0
1,45,71,0
1,48,71,0
1,53,71,0
1,46,71,0
1,50,71,0
1,53,71,0
1,58,71,0
1,46,71,0
1,50,71,0
1,53,71,0
1,58,71,0
1,48,75,0
1,51,75,0
1,55,75,0
1,60,75,0
1,48,79,0
1,51,79,0
1,55,79,0
1,60,79,0
1,50,83,0
1,54,83,0
1,55,83,0
1,46,83,0
1,48,87,0
1,45,87,0
1,50,87,0
1,38,87,0
1,43,91,0
1,55,91,0
1,54,91,0
1,55,91,0
1,50,91,0
1,55,91,0
1,46,91,0
1,50,91,0
1,55,91,0
1,50,91,0
1,43,91,0
1,55,91,0
1,51,91,0
1,48,91,0
1,53,91,0
1,48,91,0
1,41,91,0
1,53,91,0
1,50,91,0
1,46,91,0
1,55,91,0
1,51,91,0
1,57,91,0
1,51,91,0
1,48,91,0
1,57,91,0
1,54,91,0
1,50,91,0
1,55,91,0
1,50,91,0
1,46,91,0
1,43,91,0
1,46,95,0
1,50,95,0
1,55,95,0
1,58,95,0
1,46,95,0
1,50,95,0
1,55,95,0
1,58,95,0
1,48,95,0
1,51,95,0
1,55,95,0
1,60,95,0
1,48,95,0
1,51,95,0
1,55,95,0
1,60,95,0
1,45,95,0
1,48,95,0
1,51,95,0
1,53,95,0
1,45,95,0
1,48,95,0
1,51,95,0
1,53,95,0
1,46,95,0
1,50,95,0
1,53,95,0
1,58,95,0
1,46,95,0
1,50,95,0
1,53,95,0
1,58,95,0
1,51,95,0
1,55,95,0
1,58,95,0
1,63,95,0
1,51,95,0
1,55,95,0
1,58,95,0
1,63,95,0
1,48,95,0
1,51,95,0
1,55,95,0
1,60,95,0
1,48,95,0
1,51,95,0
1,55,95,0
1,60,95,0
1,50,95,0
1,55,95,0
1,58,95,0
1,62,95,0
1,50,107,0
1,38,107,0
1,55,107,0
1,50,107,0
1,46,107,0
1,43,107,0
2,74,107,0
2,70,107,0
2,75,107,0
2,72,107,0
2,72,107,0
2,69,107,0
2,74,107,0
2,70,107,0
2,75,107,0
2,72,107,0
2,75,107,0
2,72,107,0
2,74,107,0
2,70,107,0
2,75,107,0
2,72,107,0
2,72,107,0
2,69,107,0
2,77,107,0
2,69,107,0
2,75,107,0
2,67,107,0
2,77,107,0
2,69,107,0
2,74,107,0
2,70,107,0
2,74,107,0
2,70,107,0
2,72,107,0
2,69,107,0
2,74,107,0
2,70,107,0
2,70,107,0
2,67,107,0
2,70,107,0
2,67,107,0
2,69,107,0
2,66,107,0
2,70,107,0
2,67,107,0
2,72,107,0
2,69,107,0
2,72,107,0
2,69,107,0
2,70,107,0
2,67,107,0
2,72,107,0
2,69,107,0
2,69,107,0
2,66,107,0
2,74,107,0
2,66,107,0
2,72,107,0
2,64,107,0
2,74,107,0
2,66,107,0
2,70,107,0
2,67,107,0
2,69,107,0
2,67,107,0
2,74,107,0
2,70,107,0
2,75,107,0
2,72,107,0
2,72,107,0
2,69,107,0
2,74,107,0
2,70,107,0
2,75,107,0
2,72,107,0
2,75,107,0
2,72,107,0
2,74,107,0
2,70,107,0
2,75,107,0
2,72,107,0
2,72,107,0
2,69,107,0
2,77,107,0
2,69,107,0
2,75,107,0
2,67,107,0
2,77,107,0
2,69,107,0
2,74,107,0
2,70,107,0
2,74,107,0
2,70,107,0
2,72,107,0
2,69,107,0
2,74,107,0
2,70,107,0
2,70,107,0
2,67,107,0
2,70,107,0
2,67,107,0
2,69,107,0
2,66,107,0
2,70,107,0
2,67,107,0
2,72,107,0
2,69,107,0
2,72,107,0
2,69,107,0
2,70,107,0
2,67,107,0
2,72,107,0
2,69,107,0
2,69,107,0
2,66,107,0
2,74,107,0
2,66,107,0
2,72,107,0
2,64,107,0
2,74,107,0
2,66,107,0
2,70,107,0
2,67,107,0
2,69,107,0
2,67,107,0
2,74,107,0
2,70,107,0
2,67,107,0
2,74,107,0
2,70,107,0
2,75,107,0
2,72,107,0
2,67,107,0
2,74,107,0
2,70,107,0
2,72,107,0
2,69,107,0
2,72,107,0
2,69,107,0
2,74,107,0
2,70,107,0
2,65,107,0
2,72,107,0
2,69,107,0
2,70,107,0
2,67,107,0
2,70,107,0
2,67,107,0
2,72,107,0
2,69,107,0
2,70,107,0
2,67,107,0
2,69,107,0
2,66,107,0
2,74,107,0
2,70,107,0
2,69,107,0
2,67,107,0
2,74,107,0
2,70,107,0
2,67,107,0
2,74,107,0
2,70,107,0
2,75,107,0
2,72,107,0
2,67,107,0
2,74,107,0
2,70,107,0
2,72,107,0
2,69,107,0
2,72,107,0
2,69,107,0
2,74,107,0
2,70,107,0
2,65,107,0
2,72,107,0
2,69,107,0
2,70,107,0
2,67,107,0
2,70,107,0
2,67,107,0
2,72,107,0
2,69,107,0
2,70,107,0
2,67,107,0
2,69,107,0
2,66,107,0
2,74,107,0
2,70,107,0
2,69,107,0
2,67,107,0
2,70,107,0
2,74,107,0
2,79,107,102
2,77,107,96
2,75,107,96
2,74,107,96
2,72,107,98
2,70,107,98
2,69,107,96
2,72,107,0
2,77,107,96
2,75,107,96
2,74,107,94
2,72,107,96
2,70,107,96
2,69,107,96
2,67,107,98
2,70,107,0
2,75,107,100
2,74,107,96
2,72,107,98
2,70,107,98
2,69,107,100
2,67,107,100
2,66,107,100
2,69,107,0
2,74,107,98
2,72,107,98
2,70,107,100
2,69,107,96
2,67,107,100
2,67,107,0
2,69,107,60
2,67,107,0
2,66,107,0
2,67,107,0
2,70,107,0
2,72,107,0
2,63,107,0
2,65,107,0
2,67,107,62
2,65,107,0
2,64,107,0
2,65,107,0
2,69,107,0
2,70,107,0
2,62,107,0
2,63,107,0
2,65,107,60
2,63,107,0
2,62,107,0
2,63,107,0
2,67,107,0
2,69,107,0
2,60,107,0
2,62,107,0
2,63,107,66
2,62,107,0
2,61,107,0
2,62,107,0
2,66,107,0
2,67,107,0
2,55,107,0
2,70,107,0
2,74,107,0
2,79,107,0
2,77,107,0
2,75,107,0
2,74,107,0
2,72,107,0
2,70,107,0
2,69,107,0
2,72,107,0
2,77,107,0
2,75,107,0
2,74,107,0
2,72,107,0
2,70,107,0
2,69,107,0
2,67,107,0
2,70,107,0
2,75,107,0
2,74,107,0
2,72,107,0
2,70,107,0
2,69,107,0
2,67,107,0
2,66,107,0
2,74,107,0
2,70,107,0
2,69,107,0
2,67,107,0
2,74,107,124
2,72,107,0
2,70,107,0
2,72,107,0
2,74,107,0
2,75,107,0
2,77,107,0
2,79,107,0
2,72,107,0
2,74,107,0
2,75,107,0
2,69,107,0
2,70,107,0
2,72,107,0
2,65,107,0
2,77,107,0
2,75,107,0
2,74,107,0
2,75,107,0
2,77,107,0
2,70,107,0
2,72,107,0
2,74,107,0
2,67,107,0
2,69,107,0
2,70,107,0
2,63,107,0
2,65,107,0
2,67,107,0
2,60,107,0
2,62,107,0
2,63,107,0
2,57,107,0
2,58,107,0
2,60,107,0
2,54,107,0
2,55,107,0
2,57,107,0
2,50,107,0
2,62,107,0
2,60,107,0
2,58,107,0
2,60,107,0
2,62,107,0
2,43,107,0
2,74,107,0
2,70,107,0
2,67,107,0
2,79,107,0
2,75,107,0
2,72,107,0
2,67,107,0
2,72,107,0
2,69,107,0
2,65,107,0
2,74,107,0
2,70,107,0
2,65,107,0
2,67,107,0
2,63,107,0
2,72,107,0
2,72,107,0
2,69,107,0
2,66,107,0
2,70,107,0
2,67,107,0
2,62,107,0
2,69,107,0
2,67,107,0
2,63,107,0
2,66,107,0
2,70,107,0
2,67,107,0
2,79,83,0
2,77,83,230
2,75,83,0
2,77,83,0
2,75,83,32
2,74,83,0
2,72,83,0
2,70,83,0
2,69,83,0
2,67,83,0
2,77,83,0
2,75,83,232
