track,note,velocity,time
1,72,80,34560
1,72,80,24
1,72,80,24
1,72,80,24
1,74,80,24
1,74,80,48
1,74,80,24
1,76,80,24
1,76,80,48
1,72,80,168
1,77,80,24
1,76,80,24
1,74,80,24
1,76,80,24
1,77,80,12
1,79,80,12
1,77,80,24
1,76,80,24
1,72,80,408
1,77,80,24
1,77,80,48
1,76,80,48
1,77,80,48
1,67,80,1848
1,72,80,24
1,70,80,24
1,69,80,24
1,70,80,24
1,72,80,12
1,74,80,12
1,72,80,24
1,71,80,24
1,67,80,168
1,72,80,24
1,69,80,72
1,71,80,24
1,67,80,24
1,72,80,24
1,71,80,48
1,72,80,48
1,65,80,288
1,65,80,24
1,65,80,24
1,65,80,24
1,67,80,24
1,67,80,48
1,67,80,24
1,69,80,24
1,69,80,48
1,65,80,168
1,70,80,24
1,69,80,24
1,67,80,24
1,69,80,24
1,70,80,12
1,72,80,12
1,70,80,24
1,69,80,24
1,70,80,24
1,72,80,12
1,74,80,12
1,72,80,24
1,71,80,24
1,72,80,24
1,74,80,12
1,76,80,12
1,74,80,24
1,73,80,24
1,74,80,24
1,76,80,12
1,77,80,12
1,76,80,24
1,74,80,24
1,76,80,72
1,73,80,24
1,74,80,48
1,73,80,48
1,74,80,48
1,72,80,2016
1,72,80,24
1,72,80,24
1,72,80,24
1,74,80,24
1,74,80,48
1,74,80,24
1,76,80,24
1,76,80,48
1,72,80,168
1,77,80,24
1,76,80,24
1,74,80,24
1,72,80,72
1,70,80,24
1,70,80,72
1,70,80,24
1,70,80,48
1,72,80,24
1,69,80,24
1,67,80,24
1,69,80,24
1,70,80,24
1,69,80,12
1,67,80,12
1,67,80,1248
1,67,80,24
1,67,80,24
1,67,80,24
1,69,80,24
1,72,80,288
1,72,80,24
1,72,80,24
1,72,80,24
1,74,80,24
1,74,80,48
1,74,80,24
1,76,80,24
1,76,80,48
1,65,80,48
1,65,80,24
1,65,80,24
1,65,80,24
1,67,80,24
1,67,80,48
1,67,80,24
1,69,80,24
1,69,80,48
1,74,80,168
1,79,80,24
1,77,80,24
1,76,80,24
1,77,80,96
1,77,80,96
1,76,80,96
1,77,80,96
2,65,80,35040
2,65,80,24
2,65,80,24
2,65,80,24
2,67,80,24
2,67,80,48
2,67,80,24
2,69,80,24
2,69,80,48
2,65,80,168
2,70,80,24
2,69,80,24
2,67,80,24
2,60,80,24
2,60,80,24
2,70,80,24
2,69,80,24
2,69,80,48
2,69,80,24
2,67,80,24
2,67,80,72
2,65,80,24
2,60,80,768
2,60,80,24
2,60,80,24
2,60,80,24
2,62,80,24
2,62,80,48
2,62,80,24
2,64,80,24
2,64,80,48
2,60,80,168
2,65,80,24
2,64,80,24
2,62,80,24
2,64,80,24
2,65,80,12
2,67,80,12
2,65,80,24
2,64,80,24
2,60,80,24
2,65,80,24
2,67,80,24
2,64,80,24
2,62,80,24
2,64,80,24
2,62,80,48
2,60,80,36
2,60,80,12
2,60,80,48
2,62,80,48
2,65,80,24
2,65,80,24
2,64,80,48
2,65,80,48
2,60,80,168
2,65,80,24
2,64,80,24
2,62,80,24
2,64,80,24
2,65,80,12
2,67,80,12
2,65,80,24
2,64,80,24
2,62,80,24
2,60,80,24
2,62,80,24
2,64,80,12
2,65,80,12
2,64,80,24
2,62,80,24
2,64,80,24
2,65,80,12
2,67,80,12
2,65,80,24
2,64,80,24
2,65,80,24
2,67,80,12
2,69,80,12
2,67,80,48
2,65,80,96
2,64,80,48
2,62,80,216
2,67,80,24
2,65,80,24
2,64,80,24
2,65,80,24
2,67,80,12
2,69,80,12
2,67,80,24
2,66,80,24
2,62,80,3576
2,67,80,24
2,65,80,24
2,64,80,24
2,65,80,24
2,67,80,24
2,64,80,24
2,60,80,24
2,62,80,72
2,64,80,24
2,60,80,24
2,69,80,24
2,67,80,24
2,65,80,12
2,67,80,12
2,65,80,48
2,64,80,96
2,62,80,24
2,60,80,24
2,69,80,168
2,67,80,24
2,67,80,24
2,69,80,24
2,67,80,24
2,65,80,24
2,67,80,24
2,69,80,12
2,70,80,12
2,69,80,24
2,67,80,12
2,69,80,12
2,67,80,24
2,65,80,24
2,64,80,24
2,62,80,24
2,60,80,48
2,64,80,408
2,69,80,24
2,67,80,24
2,65,80,24
2,65,80,24
2,70,80,24
2,70,80,24
2,70,80,24
2,69,80,96
2,69,80,48
2,67,80,48
2,67,80,144
2,69,80,48
3,57,80,0
3,55,80,0
3,57,80,0
3,60,80,0
3,62,80,0
3,60,80,0
3,59,80,0
3,57,80,0
3,57,80,2400
3,55,80,0
3,53,80,0
3,55,80,0
3,57,80,0
3,57,80,0
3,55,80,0
3,53,80,0
3,52,80,0
3,52,80,0
3,50,80,0
3,50,80,1920
3,53,80,0
3,55,80,0
3,50,80,0
3,52,80,0
3,53,80,0
3,55,80,0
3,57,80,0
3,57,80,1440
3,62,80,0
3,61,80,0
3,62,80,0
3,55,80,0
3,55,80,0
3,53,80,0
3,52,80,0
3,52,80,0
3,50,80,0
3,60,80,4800
3,60,80,12
3,60,80,12
3,60,80,12
3,62,80,12
3,62,80,24
3,62,80,12
3,64,80,12
3,64,80,24
3,60,80,144
3,65,80,12
3,64,80,12
3,62,80,12
3,64,80,12
3,65,80,6
3,67,80,6
3,65,80,12
3,64,80,12
3,65,80,24
3,65,80,12
3,64,80,12
3,62,80,18
3,60,80,6
3,58,80,504
3,58,80,12
3,58,80,12
3,58,80,12
3,60,80,12
3,60,80,24
3,60,80,12
3,62,80,12
3,62,80,24
3,64,80,144
3,64,80,12
3,64,80,12
3,65,80,12
3,65,80,12
3,65,80,12
3,65,80,12
3,60,80,12
3,53,80,384
3,58,80,12
3,57,80,12
3,55,80,12
3,57,80,12
3,58,80,6
3,60,80,6
3,58,80,12
3,57,80,12
3,57,80,24
3,57,80,12
3,59,80,12
3,59,80,36
3,60,80,12
3,62,80,1824
3,64,80,12
3,65,80,12
3,67,80,12
3,62,80,12
3,67,80,12
3,65,80,12
3,64,80,12
3,64,80,36
3,65,80,12
3,64,80,12
3,62,80,12
3,60,80,12
3,58,80,12
3,60,80,24
3,60,80,24
3,57,80,144
3,62,80,12
3,60,80,12
3,58,80,12
3,62,80,12
3,60,80,12
3,60,80,12
3,55,80,12
3,55,80,12
3,57,80,12
3,55,80,12
3,53,80,12
3,57,80,12
3,59,80,12
3,59,80,36
3,61,80,12
3,57,80,24
3,57,80,12
3,62,80,12
3,61,80,36
3,62,80,6
3,64,80,6
3,62,80,24
3,57,80,24
3,62,80,1608
3,67,80,12
3,65,80,12
3,64,80,12
3,62,80,12
3,64,80,12
3,60,80,12
3,65,80,12
3,57,80,264
3,57,80,12
3,57,80,12
3,57,80,12
3,58,80,12
3,58,80,24
3,58,80,12
3,60,80,12
3,60,80,24
3,60,80,1944
3,60,80,12
3,60,80,12
3,60,80,12
3,58,80,12
3,58,80,24
3,58,80,12
3,57,80,12
3,57,80,24
3,65,80,504
3,65,80,12
3,65,80,12
3,65,80,12
3,64,80,12
3,64,80,24
3,64,80,12
3,62,80,12
3,62,80,24
3,62,80,144
3,60,80,12
3,58,80,12
3,57,80,12
3,53,80,12
3,58,80,12
3,57,80,12
3,55,80,12
3,57,80,12
3,58,80,6
3,60,80,6
3,58,80,12
3,57,80,12
3,57,80,24
3,57,80,12
3,58,80,12
3,62,80,24
3,64,80,24
3,60,80,48
3,60,80,24
3,60,80,24
3,60,80,72
3,60,80,24
4,57,80,0
4,55,80,0
4,57,80,0
4,60,80,0
4,62,80,0
4,60,80,0
4,59,80,0
4,57,80,0
4,57,80,2400
4,55,80,0
4,53,80,0
4,55,80,0
4,57,80,0
4,57,80,0
4,55,80,0
4,53,80,0
4,52,80,0
4,52,80,0
4,50,80,0
4,50,80,1920
4,53,80,0
4,55,80,0
4,50,80,0
4,52,80,0
4,53,80,0
4,55,80,0
4,57,80,0
4,57,80,1440
4,62,80,0
4,61,80,0
4,62,80,0
4,55,80,0
4,55,80,0
4,53,80,0
4,52,80,0
4,52,80,0
4,50,80,0
4,53,80,2400
4,53,80,12
4,53,80,12
4,53,80,12
4,55,80,12
4,55,80,24
4,55,80,12
4,57,80,12
4,57,80,24
4,53,80,144
4,58,80,12
4,57,80,12
4,55,80,12
4,57,80,12
4,58,80,6
4,60,80,6
4,58,80,12
4,57,80,12
4,53,80,12
4,60,80,12
4,60,80,12
4,60,80,12
4,59,80,24
4,60,80,24
4,53,80,624
4,58,80,12
4,57,80,12
4,55,80,12
4,57,80,12
4,58,80,6
4,60,80,6
4,62,80,24
4,60,80,24
4,48,80,12
4,53,80,12
4,52,80,12
4,50,80,12
4,53,80,12
4,58,80,12
4,57,80,12
4,55,80,12
4,55,80,36
4,53,80,12
4,48,80,1488
4,48,80,12
4,48,80,12
4,48,80,12
4,50,80,12
4,50,80,24
4,50,80,12
4,52,80,12
4,52,80,24
4,48,80,144
4,53,80,12
4,52,80,12
4,50,80,12
4,52,80,12
4,53,80,6
4,55,80,6
4,53,80,12
4,52,80,12
4,48,80,36
4,53,80,12
4,50,80,24
4,55,80,24
4,52,80,24
4,57,80,24
4,53,80,36
4,55,80,12
4,55,80,648
4,60,80,12
4,58,80,12
4,57,80,12
4,53,80,12
4,58,80,12
4,57,80,12
4,55,80,12
4,48,80,384
4,53,80,12
4,52,80,12
4,50,80,12
4,52,80,12
4,53,80,6
4,55,80,6
4,53,80,12
4,52,80,12
4,48,80,144
4,53,80,12
4,52,80,12
4,50,80,12
4,52,80,12
4,53,80,6
4,55,80,6
4,53,80,12
4,52,80,12
4,53,80,12
4,55,80,6
4,57,80,6
4,55,80,12
4,53,80,12
4,55,80,12
4,57,80,6
4,58,80,6
4,58,80,36
4,57,80,12
4,57,80,264
4,57,80,12
4,57,80,12
4,57,80,12
4,59,80,12
4,59,80,24
4,59,80,12
4,61,80,12
4,61,80,24
4,57,80,144
4,62,80,12
4,60,80,12
4,59,80,12
4,57,80,12
4,59,80,12
4,55,80,12
4,60,80,12
4,53,80,744
4,53,80,12
4,53,80,12
4,53,80,12
4,55,80,12
4,55,80,24
4,55,80,12
4,57,80,12
4,57,80,24
4,53,80,144
4,58,80,12
4,57,80,12
4,55,80,12
4,53,80,12
4,52,80,12
4,50,80,12
4,48,80,12
4,50,80,12
4,52,80,12
4,48,80,12
4,53,80,12
4,48,80,12
4,53,80,12
4,48,80,24
4,60,80,96
4,60,80,12
4,60,80,12
4,60,80,12
4,58,80,12
4,58,80,24
4,58,80,12
4,57,80,12
4,57,80,12
4,57,80,12
4,53,80,12
4,60,80,12
4,48,80,24
4,48,80,504
4,48,80,12
4,48,80,12
4,48,80,12
4,50,80,12
4,50,80,24
4,50,80,12
4,52,80,12
4,52,80,24
4,48,80,144
4,53,80,12
4,52,80,12
4,50,80,12
4,50,80,12
4,58,80,12
4,57,80,12
4,55,80,12
4,57,80,48
4,53,80,24
4,48,80,24
4,48,80,72
4,53,80,24
12,57,80,0
12,57,80,672
12,69,80,24
12,69,80,24
12,69,80,24
12,64,80,24
12,72,80,24
12,72,80,24
12,72,80,24
12,72,80,24
12,71,80,24
12,69,80,12
12,71,80,12
12,71,80,24
12,71,80,24
12,69,80,24
12,68,80,12
12,69,80,12
12,69,80,24
12,69,80,24
12,76,80,120
12,67,80,24
12,76,80,0
12,76,80,24
12,69,80,24
12,77,80,24
12,65,80,0
12,64,80,12
12,77,80,12
12,62,80,0
12,77,80,24
12,74,80,0
12,77,80,24
12,74,80,0
12,76,80,24
12,73,80,0
12,74,80,12
12,71,80,0
12,76,80,12
12,73,80,0
12,77,80,48
12,76,80,24
12,74,80,24
12,65,80,0
12,67,80,24
12,65,80,12
12,64,80,12
12,76,80,24
12,74,80,12
12,72,80,12
12,64,80,72
12,65,80,24
12,70,80,24
12,69,80,12
12,74,80,12
12,67,80,72
12,65,80,12
12,72,80,12
12,64,80,0
12,62,80,48
12,64,80,24
12,69,80,24
12,72,80,24
12,74,80,24
12,76,80,48
12,64,80,120
12,64,80,24
12,64,80,24
12,65,80,144
12,65,80,24
12,74,80,0
12,65,80,24
12,65,80,24
12,64,80,24
12,62,80,12
12,64,80,12
12,72,80,0
12,64,80,24
12,65,80,48
12,62,80,24
12,61,80,12
12,62,80,12
12,67,80,24
12,65,80,12
12,64,80,12
12,60,80,24
12,69,80,0
12,60,80,24
12,69,80,0
12,60,80,24
12,69,80,0
12,62,80,24
12,70,80,0
12,60,80,48
12,72,80,0
12,67,80,24
12,69,80,24
12,74,80,120
12,74,80,24
12,70,80,0
12,74,80,24
12,69,80,0
12,70,80,24
12,74,80,0
12,69,80,24
12,73,80,0
12,74,80,12
12,67,80,12
12,76,80,0
12,65,80,24
12,74,80,0
12,64,80,24
12,73,80,0
12,81,80,24
12,81,80,24
12,81,80,24
12,73,80,0
12,74,80,24
12,74,80,0
12,82,80,24
12,74,80,24
12,82,80,0
12,82,80,24
12,82,80,24
12,74,80,24
12,81,80,0
12,79,80,12
12,74,80,12
12,81,80,0
12,72,80,24
12,81,80,0
12,70,80,24
12,81,80,0
12,79,80,24
12,70,80,24
12,79,80,0
12,69,80,24
12,69,80,24
12,78,80,24
12,78,80,24
12,66,80,24
12,79,80,0
12,81,80,12
12,67,80,12
12,74,80,0
12,69,80,24
12,73,80,0
12,70,80,24
12,74,80,0
12,76,80,24
12,74,80,12
12,64,80,12
12,73,80,0
12,61,80,24
12,69,80,0
12,69,80,24
12,74,80,0
12,62,80,24
12,67,80,0
12,62,80,24
12,65,80,0
12,61,80,48
12,64,80,0
12,62,80,36
12,62,80,12
12,62,80,0
12,62,80,408
12,62,80,24
12,62,80,24
12,57,80,24
12,65,80,24
12,65,80,24
12,65,80,24
12,65,80,24
12,64,80,24
12,62,80,12
12,64,80,12
12,64,80,24
12,65,80,24
12,74,80,120
12,74,80,24
12,74,80,24
12,69,80,24
12,67,80,24
12,77,80,0
12,69,80,24
12,77,80,0
12,77,80,24
12,70,80,24
12,77,80,0
12,76,80,24
12,74,80,12
12,70,80,12
12,76,80,0
12,74,80,24
12,73,80,24
12,69,80,24
12,67,80,12
12,69,80,12
12,67,80,24
12,73,80,0
12,65,80,24
12,74,80,0
12,72,80,24
12,71,80,12
12,69,80,12
12,65,80,24
12,71,80,0
12,64,80,24
12,72,80,0
12,69,80,24
12,60,80,24
12,70,80,0
12,65,80,24
12,69,80,0
12,62,80,24
12,67,80,0
12,70,80,0
12,60,80,48
12,67,80,0
12,72,80,0
12,70,80,24
12,60,80,24
12,65,80,0
12,69,80,0
12,67,80,24
12,69,80,24
12,74,80,0
12,70,80,24
12,64,80,24
12,73,80,96
12,74,80,48
12,69,80,120
12,70,80,24
12,67,80,24
12,64,80,24
12,69,80,0
12,76,80,24
12,76,80,24
12,76,80,24
12,69,80,24
12,77,80,24
12,77,80,24
12,77,80,24
12,77,80,24
12,76,80,24
12,74,80,12
12,76,80,12
12,74,80,24
12,64,80,24
12,73,80,0
12,69,80,24
12,69,80,24
12,69,80,24
12,73,80,0
12,62,80,24
12,74,80,0
12,70,80,24
12,74,80,24
12,70,80,0
12,70,80,24
12,70,80,24
12,69,80,24
12,73,80,0
12,74,80,12
12,67,80,12
12,76,80,0
12,65,80,24
12,74,80,0
12,64,80,24
12,73,80,0
12,81,80,24
12,81,80,24
12,81,80,24
12,73,80,0
12,74,80,24
12,74,80,0
12,82,80,24
12,74,80,24
12,82,80,0
12,82,80,24
12,82,80,24
12,74,80,24
12,81,80,0
12,79,80,12
12,74,80,12
12,81,80,0
12,72,80,24
12,81,80,0
12,81,80,24
12,70,80,0
12,79,80,24
12,79,80,24
12,70,80,0
12,69,80,24
12,69,80,24
12,78,80,24
12,78,80,24
12,79,80,24
12,66,80,0
12,81,80,12
12,67,80,12
12,74,80,0
12,69,80,24
12,73,80,0
12,70,80,24
12,74,80,0
12,76,80,24
12,74,80,12
12,64,80,12
12,73,80,0
12,61,80,24
12,69,80,0
12,69,80,24
12,74,80,0
12,62,80,24
12,67,80,0
12,62,80,24
12,65,80,0
