track,note,velocity,time
1,74,48,480
1,38,48,0
1,66,48,0
1,69,48,0
1,50,48,0
1,50,0,59
1,66,0,0
1,69,0,0
1,38,0,0
1,67,48,1
1,52,48,0
1,40,48,0
1,40,0,59
1,52,0,0
1,67,0,0
1,69,48,1
1,42,48,0
1,54,48,0
1,54,0,59
1,74,0,0
1,69,0,0
1,42,0,0
1,74,48,1
1,38,48,0
1,50,48,0
1,78,48,0
1,81,48,0
1,81,0,59
1,50,0,0
1,74,0,0
1,38,0,0
1,78,0,0
1,74,48,1
1,55,48,0
1,43,48,0
1,74,48,0
1,79,48,0
1,83,48,0
1,83,0,59
1,55,0,0
1,43,0,0
1,74,0,0
1,79,0,0
1,50,48,1
1,38,48,0
1,78,48,0
1,74,48,0
1,81,48,0
1,81,0,59
1,50,0,0
1,38,0,0
1,78,0,0
1,74,0,0
1,42,48,1
1,54,48,0
1,54,0,59
1,42,0,0
1,74,0,0
1,57,48,1
1,45,48,0
1,45,0,59
1,57,0,0
1,38,48,1
1,50,48,0
1,86,48,0
1,81,48,0
1,78,48,0
1,74,48,0
1,50,0,59
1,38,0,0
1,52,48,1
1,40,48,0
1,40,0,59
1,52,0,0
1,42,48,1
1,54,48,0
1,54,0,59
1,74,0,0
1,78,0,0
1,81,0,0
1,42,0,0
1,86,0,0
1,38,48,1
1,50,48,0
1,78,48,0
1,69,48,0
1,74,48,0
1,74,0,59
1,78,0,0
1,38,0,0
1,50,0,0
1,69,0,0
1,52,48,1
1,40,48,0
1,73,48,0
1,79,48,0
1,67,48,0
1,67,0,59
1,73,0,0
1,52,0,0
1,40,0,0
1,79,0,0
1,50,48,1
1,38,48,0
1,69,48,0
1,78,48,0
1,74,48,0
1,74,0,59
1,69,0,0
1,50,0,0
1,38,0,0
1,78,0,0
1,74,48,61
1,81,48,0
1,69,48,0
1,42,48,0
1,54,48,0
1,54,0,59
1,81,0,0
1,74,0,0
1,42,0,0
1,79,48,1
1,73,48,0
1,52,48,0
1,40,48,0
1,40,0,59
1,73,0,0
1,69,0,0
1,79,0,0
1,52,0,0
1,38,48,1
1,50,48,0
1,78,48,0
1,69,48,0
1,74,48,0
1,76,48,60
1,45,48,0
1,57,48,0
1,78,0,0
1,38,0,0
1,50,0,0
1,76,0,14
1,78,48,1
1,78,0,14
1,76,48,1
1,76,0,14
1,78,48,1
1,78,0,14
1,69,0,0
1,57,0,0
1,45,0,0
1,74,0,0
1,76,48,1
1,73,48,0
1,67,48,0
1,69,48,0
1,45,48,0
1,33,48,0
1,76,0,14
1,78,48,1
1,78,0,14
1,74,48,1
1,74,0,14
1,76,48,1
1,76,0,14
1,33,0,0
1,69,0,0
1,73,0,0
1,67,0,0
1,45,0,0
1,50,48,1
1,38,48,0
1,66,48,0
1,69,48,0
1,74,48,0
1,74,0,59
1,66,0,0
1,69,0,0
1,66,48,1
1,69,48,0
1,69,0,59
1,50,0,0
1,38,0,0
1,66,0,0
1,67,48,1
1,71,48,0
1,71,0,59
1,67,0,0
1,73,48,1
1,64,48,0
1,64,0,59
1,73,0,0
1,66,48,1
1,69,48,0
1,74,48,0
1,50,48,0
1,38,48,0
1,38,0,59
1,50,0,0
1,38,48,1
1,50,48,0
1,50,0,59
1,66,0,0
1,74,0,0
1,69,0,0
1,38,0,0
1,52,48,1
1,40,48,0
1,40,0,59
1,52,0,0
1,54,48,1
1,42,48,0
1,42,0,59
1,54,0,0
1,74,48,1
1,62,48,0
1,67,48,0
1,71,48,0
1,43,48,0
1,55,48,0
1,55,0,59
1,71,0,0
1,67,0,0
1,43,0,0
1,50,48,1
1,38,48,0
1,66,48,0
1,69,48,0
1,69,0,59
1,38,0,0
1,50,0,0
1,66,0,0
1,62,0,60
1,74,0,0
1,66,48,1
1,62,48,0
1,69,48,0
1,69,0,59
1,62,0,0
1,66,0,0
1,66,48,1
1,57,48,0
1,62,48,0
1,38,48,0
1,50,48,0
1,50,0,59
1,62,0,0
1,66,0,0
1,57,0,0
1,38,0,0
1,50,48,1
1,38,48,0
1,54,48,0
1,62,48,0
1,57,48,0
1,57,0,59
1,54,0,0
1,50,0,0
1,38,0,0
1,62,0,0
1,40,48,1
1,52,48,0
1,52,0,59
1,40,0,0
1,54,48,1
1,42,48,0
1,42,0,59
1,54,0,0
1,86,48,2
1,74,48,0
1,83,48,0
1,79,48,0
1,55,48,0
1,43,48,0
1,43,0,59
1,79,0,0
1,83,0,0
1,55,0,0
1,38,48,1
1,50,48,0
1,78,48,0
1,81,48,0
1,81,0,59
1,50,0,0
1,38,0,0
1,78,0,0
1,81,48,60
1,69,48,0
1,74,48,0
1,42,48,0
1,54,48,0
1,74,0,0
1,86,0,0
1,42,0,29
1,74,0,0
1,69,0,0
1,54,0,0
1,42,48,1
1,54,48,0
1,74,48,0
1,69,48,0
1,69,0,29
1,54,0,0
1,81,0,0
1,42,0,0
1,74,0,0
1,55,48,1
1,43,48,0
1,74,48,0
1,67,48,0
1,71,48,0
1,71,0,59
1,74,0,0
1,55,0,0
1,43,0,0
1,67,0,0
1,38,48,1
1,50,48,0
1,78,48,0
1,74,48,0
1,69,48,0
1,69,0,29
1,78,0,0
1,74,0,0
1,78,48,1
1,74,48,0
1,69,48,0
1,69,0,29
1,78,0,0
1,38,0,0
1,50,0,0
1,74,0,0
1,79,48,1
1,74,48,0
1,71,48,0
1,71,0,59
1,74,0,0
1,79,0,0
1,78,48,1
1,69,48,0
1,74,48,0
1,54,48,0
1,42,48,0
1,42,0,29
1,74,0,0
1,78,0,0
1,69,0,0
1,54,0,0
1,42,48,1
1,54,48,0
1,74,48,0
1,69,48,0
1,69,0,29
1,42,0,0
1,54,0,0
1,74,0,0
1,43,48,1
1,55,48,0
1,67,48,0
1,74,48,0
1,71,48,0
1,71,0,59
1,67,0,0
1,43,0,0
1,55,0,0
1,74,0,0
1,50,48,1
1,38,48,0
1,69,48,0
1,81,48,0
1,78,48,0
1,74,48,0
1,74,0,29
1,81,0,0
1,78,0,0
1,78,48,1
1,81,48,0
1,74,48,0
1,74,0,29
1,69,0,0
1,50,0,0
1,38,0,0
1,81,0,0
1,78,0,0
1,83,48,1
1,74,48,0
1,79,48,0
1,79,0,59
1,74,0,0
1,83,0,0
1,78,48,1
1,81,48,0
1,74,48,0
1,69,48,0
1,42,48,0
1,54,48,0
1,54,0,59
1,81,0,0
1,74,0,0
1,78,0,0
1,42,0,0
1,69,0,0
1,52,48,1
1,40,48,0
1,67,48,0
1,73,48,0
1,73,0,59
1,52,0,0
1,40,0,0
1,67,0,0
1,38,48,1
1,50,48,0
1,69,48,0
1,74,48,0
1,66,48,0
1,66,0,59
1,38,0,0
1,50,0,0
1,45,48,1
1,57,48,0
1,64,48,0
1,64,0,59
1,45,0,0
1,74,0,0
1,69,0,0
1,57,0,0
1,45,48,1
1,33,48,0
1,69,48,0
1,73,48,0
1,76,48,0
1,76,0,59
1,69,0,0
1,45,0,0
1,33,0,0
1,73,0,0
1,50,48,1
1,38,48,0
1,69,48,0
1,78,48,0
1,74,48,0
1,74,0,59
1,69,0,0
1,50,0,0
1,38,0,0
1,78,0,0
1,42,48,1
1,54,48,0
1,81,48,0
1,74,48,0
1,69,48,0
1,69,0,59
1,81,0,0
1,42,0,0
1,54,0,0
1,74,0,0
1,40,48,1
1,52,48,0
1,73,48,0
1,79,48,0
1,79,0,59
1,40,0,0
1,52,0,0
1,73,0,0
1,38,48,1
1,50,48,0
1,74,48,0
1,69,48,0
1,78,48,0
1,78,0,59
1,74,0,0
1,38,0,0
1,50,0,0
1,69,0,0
1,69,48,1
1,73,48,0
1,76,48,0
1,57,48,0
1,45,48,0
1,76,0,119
1,69,0,0
1,73,0,0
1,57,0,60
1,45,0,0
1,49,48,1
1,61,48,0
1,61,0,59
1,49,0,0
1,69,48,1
1,57,48,0
1,74,48,0
1,78,48,0
1,62,48,0
1,50,48,0
1,50,0,59
1,78,0,0
1,74,0,0
1,62,0,0
1,57,48,1
1,45,48,0
1,73,48,0
1,76,48,0
1,76,0,59
1,45,0,0
1,57,0,0
1,73,0,0
1,57,0,60
1,69,0,0
1,73,48,1
1,76,48,0
1,69,48,0
1,69,0,59
1,76,0,0
1,73,0,0
1,73,48,1
1,64,48,0
1,69,48,0
1,45,48,0
1,57,48,0
1,69,0,119
1,73,0,0
1,64,0,0
1,45,0,60
1,57,0,0
1,49,48,1
1,61,48,0
1,61,0,59
1,49,0,0
1,50,48,1
1,62,48,0
1,62,0,59
1,50,0,0
1,57,48,1
1,45,48,0
1,73,48,0
1,69,48,0
1,76,48,0
1,76,0,29
1,73,0,0
1,69,0,0
1,73,48,1
1,69,48,0
1,76,48,0
1,76,0,29
1,73,0,0
1,57,0,0
1,45,0,0
1,69,0,0
1,78,48,1
1,69,48,0
1,74,48,0
1,74,0,59
1,69,0,0
1,78,0,0
1,73,48,1
1,69,48,0
1,76,48,0
1,49,48,0
1,61,48,0
1,61,0,29
1,49,0,0
1,49,48,1
1,61,48,0
1,61,0,29
1,73,0,0
1,76,0,0
1,69,0,0
1,49,0,0
1,50,48,1
1,62,48,0
1,62,0,59
1,50,0,0
1,45,48,1
1,57,48,0
1,85,48,0
1,76,48,0
1,81,48,0
1,81,0,29
1,85,0,0
1,76,0,0
1,85,48,1
1,81,48,0
1,76,48,0
1,76,0,29
1,85,0,0
1,45,0,0
1,57,0,0
1,81,0,0
1,78,48,1
1,86,48,0
1,81,48,0
1,81,0,59
1,86,0,0
1,78,0,0
1,85,48,1
1,81,48,0
1,76,48,0
1,61,48,0
1,49,48,0
1,49,0,29
1,61,0,0
1,61,48,1
1,49,48,0
1,49,0,29
1,85,0,0
1,76,0,0
1,81,0,0
1,61,0,0
1,62,48,1
1,50,48,0
1,50,0,59
1,62,0,0
1,57,48,1
1,45,48,0
1,85,48,0
1,81,48,0
1,76,48,0
1,76,0,29
1,85,0,0
1,81,0,0
1,85,48,1
1,76,48,0
1,81,48,0
1,81,0,29
1,85,0,0
1,57,0,0
1,45,0,0
1,76,0,0
1,86,48,1
1,78,48,0
1,81,48,0
1,81,0,59
1,78,0,0
1,86,0,0
1,85,48,1
1,81,48,0
1,76,48,0
1,61,48,0
1,49,48,0
1,49,0,59
1,76,0,0
1,85,0,0
1,81,0,0
1,61,0,0
1,78,48,1
1,69,48,0
1,74,48,0
1,62,48,0
1,50,48,0
1,50,0,59
1,74,0,0
1,78,0,0
1,69,0,0
1,62,0,0
1,81,48,1
1,76,48,0
1,69,48,0
1,61,48,0
1,49,48,0
1,49,0,59
1,69,0,0
1,61,0,0
1,76,0,0
1,74,48,1
1,71,48,0
1,59,48,0
1,47,48,0
1,81,0,59
1,80,48,1
1,80,0,59
1,47,0,0
1,74,0,0
1,71,0,0
1,59,0,0
1,57,48,1
1,45,48,0
1,81,48,0
1,73,48,0
1,73,0,59
1,81,0,0
1,73,48,1
1,69,48,0
1,76,48,0
1,76,0,29
1,73,0,0
1,69,0,0
1,69,48,1
1,73,48,0
1,76,48,0
1,76,0,29
1,69,0,0
1,57,0,0
1,45,0,0
1,73,0,0
1,78,48,1
1,69,48,0
1,74,48,0
1,74,0,59
1,69,0,0
1,78,0,0
1,76,48,1
1,69,48,0
1,73,48,0
1,73,0,59
1,69,0,0
1,76,0,0
1,57,48,1
1,45,48,0
1,69,48,0
1,69,0,239
1,45,0,0
1,57,0,0
1,47,48,1
1,59,48,0
1,71,48,0
1,71,0,119
1,59,0,0
1,47,0,0
1,61,48,1
1,49,48,0
1,73,48,0
1,73,0,119
1,49,0,0
1,61,0,0
1,62,48,1
1,50,48,0
1,74,48,0
1,74,0,59
1,50,0,0
1,62,0,0
1,50,48,1
1,38,48,0
1,62,48,0
1,62,0,59
1,38,0,0
1,50,0,0
1,62,48,1
1,50,48,0
1,74,48,0
1,74,0,179
1,50,0,0
1,62,0,0
1,62,48,1
1,50,48,0
1,74,48,0
1,74,0,59
1,50,0,0
1,62,0,0
1,61,48,1
1,49,48,0
1,73,48,0
1,73,0,119
1,49,0,0
1,61,0,0
1,59,48,1
1,47,48,0
1,71,48,0
1,71,0,239
1,47,0,0
1,59,0,0
1,45,48,1
1,57,48,0
1,69,48,0
1,69,0,119
1,57,0,0
1,45,0,0
1,61,48,61
1,49,48,0
1,81,48,0
1,76,48,0
1,76,0,29
1,61,0,0
1,49,0,0
1,81,0,0
1,76,48,1
1,81,48,0
1,61,48,0
1,49,48,0
1,49,0,29
1,76,0,0
1,81,0,0
1,61,0,0
1,62,48,1
1,50,48,0
1,78,48,0
1,86,48,0
1,81,48,0
1,81,0,59
1,78,0,0
1,62,0,0
1,50,0,0
1,86,0,0
1,57,48,1
1,45,48,0
1,85,48,0
1,81,48,0
1,76,48,0
1,76,0,59
1,85,0,0
1,57,0,0
1,45,0,0
1,81,0,0
1,61,48,61
1,49,48,0
1,81,48,0
1,76,48,0
1,76,0,29
1,61,0,0
1,49,0,0
1,81,0,0
1,61,48,1
1,49,48,0
1,81,48,0
1,76,48,0
1,76,0,29
1,61,0,0
1,49,0,0
1,81,0,0
1,62,48,1
1,50,48,0
1,86,48,0
1,78,48,0
1,81,48,0
1,81,0,59
1,86,0,0
1,62,0,0
1,50,0,0
1,78,0,0
1,57,48,1
1,45,48,0
1,85,48,0
1,76,48,0
1,81,48,0
1,81,0,59
1,85,0,0
1,57,0,0
1,45,0,0
1,76,0,0
1,61,48,61
1,49,48,0
1,81,48,0
1,76,48,0
1,76,0,29
1,61,0,0
1,49,0,0
1,81,0,0
1,61,48,1
1,49,48,0
1,81,48,0
1,76,48,0
1,76,0,29
1,81,0,0
1,62,48,1
1,50,48,0
1,86,48,0
1,78,48,0
1,81,48,0
1,49,0,0
1,61,0,0
1,62,0,59
1,86,0,0
1,50,0,0
1,81,0,0
1,78,0,0
1,57,48,1
1,45,48,0
1,76,48,0
1,85,48,0
1,81,48,0
1,81,0,29
1,76,0,0
1,85,0,0
1,85,48,1
1,76,48,0
1,81,48,0
1,81,0,29
1,85,0,0
1,57,0,0
1,45,0,0
1,76,0,0
1,85,48,1
1,76,48,0
1,81,48,0
1,81,0,59
1,76,0,0
1,85,0,0
1,61,48,1
1,49,48,0
1,81,48,0
1,76,48,0
1,76,0,29
1,61,0,0
1,49,0,0
1,81,0,0
1,61,48,1
1,49,48,0
1,81,48,0
1,76,48,0
1,76,0,29
1,61,0,0
1,49,0,0
1,81,0,0
1,62,48,1
1,50,48,0
1,78,48,0
1,86,48,0
1,81,48,0
1,81,0,59
1,78,0,0
1,62,0,0
1,50,0,0
1,86,0,0
1,57,48,1
1,45,48,0
1,85,48,0
1,81,48,0
1,76,48,0
1,76,0,59
1,85,0,0
1,57,0,0
1,45,0,0
1,81,0,0
1,50,48,121
1,38,48,0
1,62,48,0
1,62,0,239
1,38,0,0
1,50,0,0
1,52,48,1
1,40,48,0
1,64,48,0
1,64,0,119
1,40,0,0
1,52,0,0
1,54,48,1
1,42,48,0
1,66,48,0
1,66,0,119
1,42,0,0
1,54,0,0
1,55,48,1
1,43,48,0
1,67,48,0
1,67,0,59
1,43,0,0
1,55,0,0
1,55,48,1
1,31,48,0
1,43,48,0
1,43,0,59
1,31,0,0
1,55,0,0
1,55,48,1
1,43,48,0
1,67,48,0
1,67,0,179
1,43,0,0
1,55,0,0
1,55,48,1
1,43,48,0
1,67,48,0
1,67,0,59
1,43,0,0
1,55,0,0
1,54,48,1
1,42,48,0
1,66,48,0
1,66,0,119
1,42,0,0
1,54,0,0
1,52,48,1
1,40,48,0
1,64,48,0
1,64,0,239
1,40,0,0
1,52,0,0
1,50,48,1
1,38,48,0
1,62,48,0
1,62,0,119
1,38,0,0
1,50,0,0
1,54,48,61
1,42,48,0
1,81,48,0
1,74,48,0
1,74,0,29
1,54,0,0
1,42,0,0
1,81,0,0
1,81,48,1
1,74,48,0
1,54,48,0
1,42,48,0
1,42,0,29
1,81,0,0
1,74,0,0
1,54,0,0
1,55,48,1
1,43,48,0
