track,note,velocity,time
1,36,104,61632
1,36,104,50
1,36,104,88
1,36,104,146
1,36,104,114
1,36,104,66
1,36,104,86
1,36,104,182
1,36,104,160
1,36,104,108
1,36,104,74
1,36,104,64
1,36,104,148
1,36,104,136
1,36,104,120
1,36,104,82
1,36,104,70
1,38,104,130
1,39,104,148
1,39,104,122
1,32,104,34
1,32,104,24
1,32,104,170
1,32,104,188
1,32,104,126
1,32,104,76
1,32,104,66
1,32,104,170
1,32,104,162
1,32,104,138
1,32,104,82
1,32,104,84
1,32,104,180
1,32,104,174
1,32,104,124
1,32,104,84
1,32,104,82
1,32,104,152
1,34,104,60
1,34,104,88
1,34,104,174
1,36,104,60
1,36,104,60
1,36,104,214
1,36,104,180
1,36,104,142
1,36,104,62
1,36,104,76
1,36,104,162
1,36,104,150
1,36,104,138
1,36,104,82
1,36,104,50
1,36,104,194
1,36,104,178
1,36,104,136
1,36,104,110
1,36,104,68
1,38,104,134
1,39,104,98
1,39,104,140
1,32,104,26
1,32,104,46
1,32,104,158
1,32,104,210
1,32,104,120
1,32,104,84
1,32,104,64
1,32,104,124
1,32,104,154
1,32,104,130
1,32,104,78
1,32,104,52
1,32,104,170
1,32,104,114
1,32,104,124
1,32,104,80
1,32,104,86
1,32,104,176
1,34,104,86
1,34,104,96
1,34,104,190
1,60,65,2
1,74,125,0
1,74,119,2
1,75,118,2
1,60,93,2
1,72,112,2
1,60,68,2
1,74,107,2
1,60,76,2
1,79,125,2
1,67,57,2
1,60,80,2
1,75,109,2
1,67,65,2
1,60,74,2
1,74,108,2
1,67,59,2
1,74,120,2
1,60,63,0
1,74,119,2
1,75,125,2
1,60,88,2
1,72,115,2
1,60,65,2
1,74,111,2
1,60,79,2
1,79,119,2
1,67,53,2
1,74,76,2
1,75,109,2
1,67,62,2
1,60,74,2
1,74,110,2
1,67,59,2
1,60,62,2
1,74,118,0
1,74,114,2
1,75,127,2
1,60,93,2
1,72,107,2
1,60,70,2
1,74,110,2
1,60,79,2
1,79,124,2
1,67,57,2
1,60,78,2
1,75,112,2
1,67,58,2
1,60,75,2
1,74,112,2
1,67,57,2
1,60,59,2
1,74,120,0
1,74,114,2
1,75,119,2
1,60,93,2
1,72,108,2
1,60,67,2
1,74,113,2
1,60,74,2
1,79,122,2
1,67,52,2
1,74,72,2
1,75,117,2
1,67,65,2
1,60,81,2
1,74,116,2
1,67,65,2
1,60,63,2
1,74,118,0
1,74,111,2
1,75,127,2
1,60,87,2
1,72,115,2
1,60,68,2
1,74,109,2
1,60,71,2
1,79,121,2
1,67,54,2
1,60,75,2
1,75,114,2
1,67,65,2
1,60,76,2
1,74,116,2
1,67,56,2
1,74,127,2
1,60,61,0
1,74,109,2
1,75,123,2
1,60,95,2
1,72,111,2
1,60,66,2
1,74,114,2
1,60,78,2
1,79,127,2
1,67,57,2
1,74,81,2
1,75,110,2
1,67,58,2
1,60,79,2
1,74,111,2
1,67,56,2
1,74,126,2
1,60,56,0
1,74,109,2
1,75,121,2
1,60,92,2
1,72,113,2
1,60,63,2
1,74,116,2
1,60,73,2
1,79,122,2
1,67,57,2
1,60,74,2
1,75,108,2
1,67,65,2
1,60,75,2
1,74,114,2
1,67,55,2
1,60,57,2
1,74,118,0
1,74,111,2
1,75,126,2
1,60,89,2
1,72,109,2
1,60,64,2
1,74,108,2
1,60,81,2
1,79,122,2
1,67,59,2
1,74,72,2
1,75,110,2
1,67,58,2
1,60,71,2
1,74,113,2
1,67,59,2
1,74,124,2
1,60,59,0
1,74,109,2
1,75,119,2
1,60,90,2
1,72,109,2
1,60,70,2
1,74,109,2
1,60,78,2
1,79,124,2
1,67,54,2
1,60,71,2
1,75,107,2
1,67,60,2
1,60,76,2
1,74,111,2
1,67,55,2
1,60,59,2
1,74,122,0
1,74,110,2
1,75,121,2
1,60,90,2
1,72,114,2
1,60,65,2
1,74,109,2
1,60,81,2
1,79,122,2
1,67,62,2
1,74,78,2
1,75,115,2
1,67,56,2
1,60,80,2
1,74,108,2
1,67,63,2
1,74,121,2
1,60,65,0
1,74,109,2
1,75,124,2
1,60,90,2
1,72,116,2
1,60,64,2
1,74,114,2
1,60,78,2
1,79,118,2
1,67,53,2
1,60,73,2
1,75,109,2
1,67,57,2
1,60,75,2
1,74,113,2
1,67,60,2
1,60,63,2
1,74,125,0
1,74,116,2
1,75,125,2
1,60,90,2
1,72,110,2
1,60,73,2
1,74,107,2
1,60,74,2
1,79,122,2
1,67,58,2
1,74,72,2
1,75,109,2
1,67,55,2
1,60,79,2
1,74,109,2
1,67,60,2
1,60,56,2
1,74,125,0
1,74,114,2
1,75,124,2
1,60,86,2
1,72,113,2
1,60,68,2
1,74,116,2
1,60,77,2
1,79,127,2
1,67,58,2
1,60,71,2
1,75,107,2
1,67,60,2
1,60,80,2
1,74,111,2
1,67,60,2
1,60,62,2
1,74,118,0
1,74,114,2
1,75,127,2
1,60,96,2
1,72,106,2
1,60,70,2
1,74,113,2
1,60,72,2
1,79,124,2
1,67,58,2
1,74,76,2
1,75,113,2
1,67,62,2
1,60,76,2
1,74,114,2
1,67,62,2
1,74,118,2
1,60,55,0
1,74,112,2
1,75,124,2
1,60,93,2
1,72,112,2
1,60,67,2
1,74,110,2
1,60,72,2
1,79,126,2
1,67,54,2
1,60,75,2
1,75,113,2
1,67,63,2
1,60,77,2
1,74,115,2
1,67,62,2
1,74,127,2
1,60,59,0
1,74,117,2
1,75,122,2
1,60,94,2
1,72,106,2
1,60,68,2
1,74,111,2
1,60,78,2
1,79,120,2
1,67,57,2
1,74,78,2
1,75,109,2
1,67,59,2
1,60,77,2
1,74,118,2
1,67,59,2
2,67,73,62020
2,63,73,0
2,72,73,0
2,48,73,0
2,70,73,6
2,74,73,42
2,75,73,2
2,72,73,24
2,44,73,0
2,74,73,20
2,46,73,4
2,75,73,0
2,48,73,8
2,72,73,0
2,70,73,16
2,74,73,16
2,75,73,768
2,72,73,20
2,44,73,0
2,74,73,4608
2,75,73,28
2,46,73,0
2,48,73,730
2,72,73,0
2,72,73,43024
2,48,73,0
2,63,73,0
2,67,73,0
2,70,73,6
2,74,73,42
2,75,73,2
2,44,73,24
2,72,73,0
2,74,73,20
2,46,73,4
2,75,73,0
2,72,73,8
2,48,73,0
2,70,73,16
2,74,73,16
2,75,73,768
2,44,73,20
2,72,73,0
2,74,73,4608
2,46,73,28
2,75,73,0
2,63,66,12248
2,48,66,0
2,72,66,0
2,67,66,0
2,70,66,6
2,74,66,42
2,75,66,2
2,44,66,24
2,72,66,0
2,74,66,20
2,46,66,4
2,75,66,0
2,48,70,24584
2,63,70,0
2,72,70,0
2,67,70,0
2,70,70,6
2,74,70,42
2,75,70,2
2,44,70,24
2,72,70,0
2,74,70,20
2,46,70,4
2,75,70,0
2,72,70,8
2,48,70,0
2,70,70,16
2,74,70,16
2,75,70,768
2,72,70,20
2,44,70,0
2,74,70,4608
2,75,70,28
2,46,70,0
2,72,70,16
2,48,70,0
2,67,70,0
2,63,70,0
2,70,70,6
2,74,70,42
2,75,70,2
2,44,70,24
2,72,70,0
2,74,70,20
2,75,70,4
2,46,70,0
2,48,70,8
2,72,70,0
2,70,70,16
2,74,70,16
2,75,70,768
2,72,70,20
2,44,70,0
2,74,70,4608
2,75,70,28
2,46,70,0
3,63,127,90416
3,63,127,54
3,63,127,74
3,60,127,54
3,62,127,96
3,62,127,108
3,62,127,116
3,63,127,110
3,63,127,104
3,63,127,98
3,60,127,48
3,62,127,96
3,63,127,550
3,63,127,108
3,63,127,0
3,63,127,114
3,60,127,98
3,62,127,102
3,62,127,114
3,62,127,110
3,60,127,80
3,63,127,102
3,63,127,90
3,63,127,112
3,60,127,92
3,62,127,96
3,63,127,480
3,63,127,148
3,60,127,78
3,62,127,192
3,62,127,108
3,62,127,124
3,60,127,112
3,63,127,114
3,63,127,108
3,63,127,110
3,60,127,88
3,62,127,104
3,60,127,50
3,63,127,96
3,63,127,84
3,63,127,104
3,60,127,74
3,62,127,98
3,60,127,82
3,63,127,92
3,63,127,94
3,63,127,116
3,60,127,24
3,62,127,80
3,63,127,544
3,63,127,114
3,60,127,54
3,62,127,94
3,62,127,108
3,62,127,122
3,60,127,108
3,63,127,112
3,63,127,90
3,60,127,50
3,62,127,90
3,63,127,622
3,63,127,92
3,60,127,92
3,62,127,88
3,62,127,114
3,62,127,122
3,60,127,96
3,63,127,114
3,63,127,62
3,60,127,58
3,62,127,90
3,63,127,518
3,63,127,104
3,60,127,54
3,62,127,104
3,60,127,308
3,63,127,80
3,63,127,100
3,63,127,114
3,60,127,90
3,62,127,96
3,63,127,570
3,63,127,108
3,60,127,78
3,62,127,92
3,62,127,118
3,62,127,130
3,60,127,110
3,63,127,92
3,63,127,96
3,63,127,106
3,60,127,90
3,62,127,104
3,60,127,48
3,63,127,82
3,63,127,100
3,63,127,102
3,60,127,70
3,62,127,94
3,62,127,100
3,62,127,110
3,63,127,88
3,63,127,58
3,63,127,88
3,60,127,84
3,62,127,90
3,63,127,376
3,63,127,114
3,63,127,86
3,60,127,74
3,62,127,94
3,62,127,106
3,62,127,112
3,63,127,110
3,63,127,84
3,63,127,102
3,60,127,56
3,62,127,66
3,63,127,706
3,63,127,120
3,60,127,78
3,62,127,104
3,62,127,118
3,63,127,218
3,63,127,66
3,63,127,102
3,60,127,70
3,62,127,104
3,63,127,748
3,63,127,120
3,60,127,88
3,62,127,102
3,62,127,106
3,62,127,114
3,60,127,86
3,63,127,1086
3,63,127,22
3,62,127,60
3,60,127,30
3,60,127,66
3,63,127,1982
3,63,127,92
3,62,127,58
3,60,127,40
3,60,127,30
3,70,127,934
3,65,127,384
3,65,127,64
3,65,127,66
3,63,127,384
3,70,127,1218
3,65,127,6
3,65,127,94
3,65,127,54
3,63,127,40
3,70,127,1230
3,65,127,62
3,65,127,70
3,65,127,84
3,67,127,94
3,63,127,2
3,60,127,1454
3,63,127,50
3,60,127,52
3,67,127,66
3,65,127,56
3,65,127,80
3,60,127,10
3,63,127,42
3,60,127,52
3,67,127,64
3,65,127,62
3,65,127,56
3,70,127,850
3,65,127,82
3,65,127,60
3,65,127,82
3,63,127,384
3,70,127,1310
3,65,127,74
3,65,127,76
3,65,127,92
3,63,127,44
3,67,127,48
3,65,127,44
3,63,127,56
3,63,127,90
3,65,127,52
3,60,127,28
3,60,127,1376
3,63,127,46
3,60,127,36
3,67,127,72
3,65,127,74
3,65,127,66
3,60,127,34
3,63,127,44
3,60,127,50
3,67,127,88
3,65,127,54
3,65,127,72
3,63,127,24798
3,63,127,100
3,63,127,102
3,60,127,70
3,62,127,94
3,62,127,100
3,62,127,110
3,63,127,88
3,63,127,58
3,63,127,88
3,60,127,84
3,62,127,90
3,63,127,376
3,63,127,114
3,63,127,86
3,60,127,74
3,62,127,94
3,62,127,106
3,62,127,112
3,63,127,110
3,63,127,84
3,63,127,102
3,60,127,56
3,62,127,66
3,63,127,706
3,63,127,120
3,60,127,78
3,62,127,104
3,62,127,118
3,63,127,218
3,63,127,66
3,63,127,102
3,60,127,70
3,62,127,104
3,63,127,748
3,63,127,120
3,60,127,88
3,62,127,102
3,62,127,106
3,62,127,114
3,60,127,86
3,70,127,318
3,65,127,384
3,65,127,64
3,65,127,66
3,63,127,384
3,70,127,1218
3,65,127,6
3,65,127,94
3,65,127,54
3,63,127,40
3,70,127,1230
3,65,127,62
3,65,127,70
3,65,127,84
3,67,127,94
3,63,127,2
3,60,127,1454
3,63,127,50
3,60,127,52
3,67,127,66
3,65,127,56
3,65,127,80
3,60,127,10
3,63,127,42
3,60,127,52
3,67,127,64
3,65,127,62
3,65,127,56
3,70,127,850
3,65,127,82
3,65,127,60
3,65,127,82
3,63,127,384
3,70,127,1310
3,65,127,74
3,65,127,76
3,65,127,92
3,63,127,44
3,67,127,48
3,65,127,44
3,63,127,56
3,63,127,90
3,65,127,52
3,60,127,28
3,60,127,1376
3,63,127,46
3,60,127,36
3,67,127,72
3,65,127,74
3,65,127,66
3,60,127,34
3,63,127,44
3,60,127,50
3,67,127,88
3,65,127,54
3,65,127,72
3,70,127,798
3,65,127,384
3,65,127,64
3,65,127,66
3,63,127,384
3,70,127,1218
3,65,127,6
3,65,127,94
3,65,127,54
3,63,127,40
3,70,127,1230
3,65,127,62
3,65,127,70
3,65,127,84
3,63,127,384
3,60,127,494
3,63,127,50
3,60,127,52
3,67,127,66
3,65,127,56
3,65,127,80
3,60,127,10
3,63,127,42
3,60,127,52
3,67,127,64
3,65,127,62
3,65,127,56
4,48,95,1400
4,55,95,98
4,48,93,0
4,48,100,64
4,48,95,32
4,48,95,48
4,48,100,44
4,48,100,28
4,48,100,46
4,48,102,96
4,55,95,0
4,48,97,188
4,48,93,50
4,48,93,44
4,48,93,38
4,48,87,34
4,48,95,40
4,48,95,16
4,48,95,32
4,55,95,98
4,48,97,186
4,48,97,184
4,48,89,64
4,48,95,38
4,48,89,40
4,48,91,42
4,48,97,44
4,48,97,32
4,48,83,26
4,48,97,50
4,48,97,48
4,48,97,28
4,48,100,52
4,48,97,30
4,48,93,50
4,48,102,16
4,55,95,96
4,48,93,184
4,48,97,28
4,48,100,52
4,48,95,44
4,48,97,38
4,48,97,54
4,48,95,38
4,48,95,4
4,55,95,96
4,48,83,164
4,48,97,46
4,48,95,46
4,48,97,34
4,48,89,32
4,48,93,48
4,48,100,50
4,48,89,10
4,55,95,94
4,48,82,186
4,48,91,44
4,48,97,50
4,48,95,44
4,48,91,44
4,48,91,44
4,48,95,44
4,48,93,30
4,48,93,52
4,48,95,42
4,48,95,50
4,48,95,54
4,48,95,44
4,48,97,56
4,48,100,50
4,48,97,4
4,55,95,94
4,48,89,182
4,48,95,12
4,48,93,62
4,48,93,44
4,48,93,52
4,48,93,44
4,48,93,48
4,48,100,10
4,55,93,98
4,48,77,182
4,48,91,38
4,48,93,30
4,48,93,50
4,48,95,54
4,48,89,50
4,48,91,54
4,48,97,6
4,55,93,96
4,48,95,36
4,48,93,72
4,48,91,54
4,48,89,60
4,48,93,68
4,48,93,58
4,48,82,38
4,48,89,46
4,48,93,64
4,48,95,62
4,48,89,56
4,48,93,46
4,48,95,54
4,48,97,58
4,48,97,76
4,48,97,4
4,55,97,98
4,48,83,166
4,48,93,56
4,48,95,54
4,48,95,62
4,48,93,66
4,48,91,58
4,48,97,62
4,48,95,4
4,55,93,2
4,48,85,188
4,48,97,56
4,48,95,60
4,48,93,48
4,48,95,64
4,48,95,68
4,48,95,60
4,48,97,22
4,55,95,96
4,48,89,42
4,48,93,48
4,48,93,46
4,48,93,56
4,48,89,58
4,48,97,56
4,48,91,60
4,48,91,40
4,48,87,40
4,48,91,52
4,48,93,54
4,48,93,50
4,48,93,48
4,48,97,40
4,48,95,60
4,46,95,102
4,53,97,56
4,46,95,192
4,46,97,38
4,46,100,72
4,46,95,94
4,46,93,84
4,46,97,48
4,46,91,72
4,46,97,28
4,53,100,96
4,46,93,190
4,46,93,54
4,46,93,68
4,46,95,78
4,46,95,62
4,46,89,66
4,46,95,76
4,46,95,2
4,53,95,98
4,46,95,178
4,46,93,66
4,46,95,88
4,46,97,74
4,46,91,70
4,46,91,68
4,46,79,54
4,46,89,60
4,46,87,56
4,46,80,54
4,46,93,54
4,46,85,66
4,46,87,60
4,46,87,68
4,46,93,60
4,46,93,12
4,53,97,96
4,46,91,184
4,46,91,76
4,46,81,68
4,46,87,60
4,46,87,70
4,46,93,64
4,46,87,70
4,46,89,4
4,53,93,98
4,46,91,176
4,46,87,70
4,46,89,74
4,46,83,60
4,46,85,74
4,46,85,70
4,46,87,62
4,46,93,10
4,53,91,0
4,46,91,190
4,46,80,78
4,46,83,78
4,46,85,64
4,46,85,76
4,46,89,68
4,46,85,72
4,46,85,60
4,46,87,68
4,46,89,80
4,46,87,82
4,46,89,76
4,46,85,62
4,46,89,74
4,46,95,66
4,48,88,98
4,55,88,96
4,48,86,0
4,48,93,64
4,48,88,32
4,48,88,48
4,48,93,44
4,48,93,28
