track,note,velocity,time
1,63,127,59512
1,55,127,0
1,56,127,0
1,60,127,0
1,62,127,220
1,53,127,0
1,55,127,0
1,58,127,0
1,62,127,60
1,53,127,0
1,55,127,0
1,58,127,0
1,63,127,76
1,55,127,0
1,56,127,0
1,60,127,0
1,62,127,220
1,53,127,0
1,55,127,0
1,58,127,0
1,62,127,60
1,53,127,0
1,55,127,0
1,58,127,0
1,63,127,76
1,55,127,0
1,56,127,0
1,60,127,0
1,62,127,220
1,53,127,0
1,55,127,0
1,58,127,0
1,62,127,60
1,53,127,0
1,55,127,0
1,58,127,0
1,63,127,76
1,55,127,0
1,56,127,0
1,60,127,0
1,62,127,220
1,53,127,0
1,55,127,0
1,58,127,0
1,62,127,60
1,53,127,0
1,55,127,0
1,58,127,0
1,63,127,76
1,55,127,0
1,56,127,0
1,60,127,0
1,62,127,220
1,53,127,0
1,55,127,0
1,58,127,0
1,62,127,60
1,53,127,0
1,55,127,0
1,58,127,0
1,63,127,76
1,55,127,0
1,56,127,0
1,60,127,0
1,62,127,220
1,53,127,0
1,55,127,0
1,58,127,0
1,62,127,60
1,53,127,0
1,55,127,0
1,58,127,0
1,63,127,76
1,67,127,0
1,56,127,0
1,60,127,0
1,56,127,200
1,60,127,0
1,67,127,0
1,63,127,0
1,58,127,60
1,62,127,0
1,65,127,0
1,60,127,0
1,67,127,76
1,58,127,0
1,60,127,0
1,63,127,0
1,55,127,136
1,60,127,0
1,63,127,0
1,58,127,0
1,63,127,40
1,55,127,0
1,60,127,0
1,58,127,0
1,56,127,396
1,64,127,0
1,58,127,0
1,64,127,80
1,58,127,0
1,60,127,0
1,68,127,48
1,58,127,0
1,64,127,0
1,63,127,0
1,55,127,0
1,56,127,0
1,60,127,0
1,62,127,220
1,53,127,0
1,55,127,0
1,58,127,0
1,62,127,60
1,53,127,0
1,55,127,0
1,58,127,0
1,63,127,76
1,55,127,0
1,56,127,0
1,60,127,0
1,62,127,220
1,53,127,0
1,55,127,0
1,58,127,0
1,62,127,60
1,53,127,0
1,55,127,0
1,58,127,0
1,63,127,76
1,67,127,0
1,56,127,0
1,60,127,0
1,56,127,200
1,60,127,0
1,67,127,0
1,63,127,0
1,58,127,60
1,62,127,0
1,65,127,0
1,60,127,0
1,67,127,76
1,58,127,0
1,60,127,0
1,63,127,0
1,62,127,200
1,60,127,0
1,58,127,0
1,65,127,0
1,58,127,108
1,62,127,0
1,65,127,0
1,60,127,0
1,58,127,56
1,63,127,0
1,60,127,0
1,56,127,0
1,67,127,168
1,58,127,0
1,60,127,0
1,63,127,0
1,62,127,200
1,60,127,0
1,58,127,0
1,65,127,0
1,58,127,108
1,62,127,0
1,65,127,0
1,60,127,0
1,58,127,56
1,63,127,0
1,60,127,0
1,56,127,0
1,63,127,12456
1,55,127,0
1,56,127,0
1,60,127,0
1,62,127,220
1,53,127,0
1,55,127,0
1,58,127,0
1,62,127,60
1,53,127,0
1,55,127,0
1,58,127,0
1,63,127,76
1,55,127,0
1,56,127,0
1,60,127,0
1,62,127,220
1,53,127,0
1,55,127,0
1,58,127,0
1,62,127,60
1,53,127,0
1,55,127,0
1,58,127,0
1,63,127,76
1,67,127,0
1,56,127,0
1,60,127,0
1,56,127,200
1,60,127,0
1,67,127,0
1,63,127,0
1,58,127,60
1,62,127,0
1,65,127,0
1,60,127,0
1,67,127,76
1,58,127,0
1,60,127,0
1,63,127,0
1,62,127,200
1,60,127,0
1,58,127,0
1,65,127,0
1,58,127,108
1,62,127,0
1,65,127,0
1,60,127,0
1,58,127,56
1,63,127,0
1,60,127,0
1,56,127,0
1,67,127,168
1,58,127,0
1,60,127,0
1,63,127,0
1,62,127,200
1,60,127,0
1,58,127,0
1,65,127,0
1,58,127,108
1,62,127,0
1,65,127,0
1,60,127,0
1,58,127,56
1,63,127,0
1,60,127,0
1,56,127,0
1,63,127,12456
1,55,127,0
1,56,127,0
1,60,127,0
1,62,127,220
1,53,127,0
1,55,127,0
1,58,127,0
1,62,127,60
1,53,127,0
1,55,127,0
1,58,127,0
1,63,127,76
1,55,127,0
1,56,127,0
1,60,127,0
1,62,127,220
1,53,127,0
1,55,127,0
1,58,127,0
1,62,127,60
1,53,127,0
1,55,127,0
1,58,127,0
1,63,127,76
1,67,127,0
1,56,127,0
1,60,127,0
1,56,127,200
1,60,127,0
1,67,127,0
1,63,127,0
1,58,127,60
1,62,127,0
1,65,127,0
1,60,127,0
1,67,127,76
1,58,127,0
1,60,127,0
1,63,127,0
1,55,127,136
1,60,127,0
1,63,127,0
1,58,127,0
1,63,127,40
1,55,127,0
1,60,127,0
1,58,127,0
1,56,127,396
1,64,127,0
1,58,127,0
1,64,127,80
1,58,127,0
1,60,127,0
1,68,127,48
1,58,127,0
1,64,127,0
1,63,127,0
1,55,127,0
1,56,127,0
1,60,127,0
1,62,127,220
1,53,127,0
1,55,127,0
1,58,127,0
1,62,127,60
1,53,127,0
1,55,127,0
1,58,127,0
1,63,127,76
1,55,127,0
1,56,127,0
1,60,127,0
1,62,127,220
1,53,127,0
1,55,127,0
1,58,127,0
1,62,127,60
1,53,127,0
1,55,127,0
1,58,127,0
1,63,127,76
1,67,127,0
1,56,127,0
1,60,127,0
1,56,127,200
1,60,127,0
1,67,127,0
1,63,127,0
1,58,127,60
1,62,127,0
1,65,127,0
1,60,127,0
1,67,127,76
1,58,127,0
1,60,127,0
1,63,127,0
1,62,127,200
1,60,127,0
1,58,127,0
1,65,127,0
1,58,127,108
1,62,127,0
1,65,127,0
1,60,127,0
1,58,127,56
1,63,127,0
1,60,127,0
1,56,127,0
1,67,127,168
1,58,127,0
1,60,127,0
1,63,127,0
1,62,127,200
1,60,127,0
1,58,127,0
1,65,127,0
1,58,127,108
1,62,127,0
1,65,127,0
1,60,127,0
1,58,127,56
1,63,127,0
1,60,127,0
1,56,127,0
1,63,127,24744
1,67,127,0
1,56,127,0
1,60,127,0
1,62,127,220
1,65,127,0
1,55,127,0
1,58,127,0
1,62,127,60
1,65,127,0
1,55,127,0
1,58,127,0
1,63,127,76
1,67,127,0
1,56,127,0
1,60,127,0
1,60,127,104
1,63,127,0
1,67,127,0
1,56,127,0
1,57,127,36
1,64,127,0
1,61,127,0
1,68,127,0
1,58,127,52
1,62,127,0
1,65,127,0
1,69,127,0
1,66,127,0
1,70,127,0
1,59,127,0
1,63,127,0
1,65,127,220
1,68,127,0
1,58,127,0
1,61,127,0
1,65,127,60
1,68,127,0
1,58,127,0
1,61,127,0
1,66,127,76
1,70,127,0
1,59,127,0
1,63,127,0
1,63,127,104
1,66,127,0
1,70,127,0
1,59,127,0
1,58,127,36
1,65,127,0
1,62,127,0
1,69,127,0
1,57,127,52
1,61,127,0
1,64,127,0
1,68,127,0
1,63,127,0
1,67,127,0
1,56,127,0
1,60,127,0
1,62,127,220
1,65,127,0
1,55,127,0
1,58,127,0
1,62,127,60
1,65,127,0
1,55,127,0
1,58,127,0
1,63,127,76
1,67,127,0
1,56,127,0
1,60,127,0
1,60,127,104
1,63,127,0
1,67,127,0
1,56,127,0
1,57,127,36
1,64,127,0
1,61,127,0
1,68,127,0
1,58,127,52
1,62,127,0
1,65,127,0
1,69,127,0
1,66,127,0
1,70,127,0
1,59,127,0
1,63,127,0
1,65,127,220
1,68,127,0
1,58,127,0
1,61,127,0
1,65,127,60
1,68,127,0
1,58,127,0
1,61,127,0
1,66,127,76
1,70,127,0
1,59,127,0
1,63,127,0
1,63,127,28
1,66,127,0
1,70,127,0
1,59,127,0
1,58,127,36
1,65,127,0
1,62,127,0
1,69,127,0
1,57,127,32
1,61,127,0
1,64,127,0
1,68,127,0
1,63,127,0
1,67,127,0
1,56,127,0
1,60,127,0
1,62,127,40
1,65,127,0
1,55,127,0
1,58,127,0
1,62,127,0
1,65,127,0
1,55,127,0
1,58,127,0
1,63,127,68
1,67,127,0
1,56,127,0
1,60,127,0
1,60,127,68
1,63,127,0
1,67,127,0
1,56,127,0
1,57,127,36
1,64,127,0
1,61,127,0
1,68,127,0
1,58,127,4
1,62,127,0
1,65,127,0
1,69,127,0
1,66,127,0
1,70,127,0
1,59,127,0
1,63,127,0
1,65,127,48
1,68,127,0
1,58,127,0
1,61,127,0
1,65,127,48
1,68,127,0
1,58,127,0
1,61,127,0
1,66,127,64
1,70,127,0
1,59,127,0
1,63,127,0
1,63,127,100
1,66,127,0
1,70,127,0
1,59,127,0
1,58,127,36
1,65,127,0
1,62,127,0
1,69,127,0
1,57,127,52
1,61,127,0
1,64,127,0
1,68,127,0
2,29,87,46540
2,29,91,288
2,29,93,208
2,24,93,176
2,27,93,48
2,27,93,128
2,29,87,32
2,29,91,288
2,29,93,208
2,24,93,176
2,27,93,48
2,27,93,128
2,29,87,32
2,29,91,288
2,29,93,208
2,24,93,176
2,27,93,48
2,27,93,128
2,29,87,32
2,29,91,288
2,29,93,208
2,51,104,96
2,48,93,80
2,46,84,96
2,44,72,68
2,43,64,72
2,41,64,72
2,39,66,0
2,41,110,80
2,29,82,4
2,27,93,220
2,24,93,176
2,27,93,48
2,27,93,128
2,29,87,32
2,29,91,288
2,29,93,208
2,24,93,176
2,27,93,48
2,27,93,128
2,41,110,32
2,29,82,4
2,27,93,220
2,24,93,176
2,27,93,48
2,27,93,128
2,29,87,32
2,41,110,1440
2,29,82,4
2,27,93,220
2,24,93,176
2,27,93,48
2,27,93,128
2,29,87,32
2,29,91,288
2,29,93,208
2,24,93,176
2,27,93,48
2,27,93,128
2,29,87,32
2,29,91,288
2,29,93,208
2,24,93,176
2,27,93,48
2,27,93,128
2,29,87,32
2,29,91,288
2,29,93,208
2,24,93,176
2,27,93,48
2,27,93,128
2,41,110,32
2,29,82,4
2,29,93,220
2,24,93,176
2,27,93,48
2,27,93,128
2,29,87,32
2,29,91,288
2,29,93,208
2,24,93,176
2,27,93,48
2,27,93,128
2,29,87,32
2,29,91,288
2,29,93,208
2,24,93,176
2,27,93,48
2,27,93,128
2,29,87,32
2,29,91,288
2,29,93,208
2,24,93,176
2,24,93,48
2,24,93,128
2,41,110,32
2,24,82,384
2,24,93,220
2,41,64,80
2,41,91,44
2,24,93,52
2,27,93,48
2,27,93,128
2,29,87,32
2,24,91,192
2,29,93,112
2,43,91,176
2,39,91,4
2,41,91,36
2,41,110,20
2,29,82,36
2,29,93,220
2,24,93,176
2,27,93,48
2,27,93,128
2,29,87,32
2,29,91,192
2,29,93,112
2,24,93,176
2,41,93,48
2,43,93,128
2,41,110,32
2,29,91,4
2,29,93,208
2,31,93,176
2,34,93,48
2,34,93,128
2,36,87,32
2,31,91,24
2,31,93,208
2,31,93,176
2,34,93,48
2,34,93,128
2,36,87,32
2,31,91,24
2,31,93,208
2,31,93,176
2,24,93,48
2,24,93,128
2,41,110,32
2,24,82,384
2,24,93,220
2,41,64,80
2,41,91,44
2,24,93,52
2,27,93,48
2,27,93,128
2,29,87,32
2,24,91,192
2,29,93,112
2,43,91,176
2,36,91,4
2,39,91,36
2,24,110,20
2,29,82,100
2,29,93,220
2,43,93,176
2,36,93,48
2,39,93,128
2,29,87,32
2,29,91,192
2,29,93,112
2,46,93,176
2,36,93,48
2,39,93,24
2,41,110,32
2,29,91,4
2,29,93,208
2,29,93,176
2,29,93,48
2,34,93,128
2,36,87,32
2,36,91,192
2,31,93,112
2,31,93,176
2,31,93,48
2,30,93,128
2,29,87,32
2,27,91,192
2,34,93,112
2,34,93,176
2,34,93,48
2,34,93,128
2,36,87,32
2,36,91,192
2,31,93,112
2,31,93,176
2,31,93,48
2,30,93,128
2,29,87,32
2,36,91,192
2,53,93,112
2,53,93,176
2,53,93,48
2,51,93,48
2,48,87,80
2,46,78,92
2,36,110,60
2,36,82,288
2,36,93,220
2,31,87,80
2,31,93,136
2,31,93,48
2,30,93,128
2,29,87,32
2,29,91,192
2,51,93,112
2,53,91,0
2,34,91,92
2,34,91,4
2,34,91,96
2,36,110,20
2,36,82,288
2,36,93,220
2,31,87,80
2,39,93,136
2,31,93,48
2,30,93,128
2,41,87,32
2,36,91,0
2,29,91,132
2,46,93,112
2,48,91,0
2,53,91,92
2,31,91,4
2,34,91,96
2,36,110,20
2,36,82,288
2,36,93,220
2,31,87,80
2,31,93,136
2,31,93,48
2,29,93,128
2,27,87,32
2,41,91,192
2,29,93,112
2,34,91,176
2,32,91,4
2,29,91,96
2,27,110,20
2,39,82,288
2,27,93,112
2,27,93,176
2,34,91,120
2,31,93,8
2,29,93,12
2,28,87,32
2,52,91,192
2,28,93,208
2,28,91,28
2,40,91,224
2,39,91,28
2,40,91,12
2,41,110,20
2,24,82,384
2,24,93,220
2,41,64,80
2,41,91,44
2,24,93,52
2,27,93,48
2,27,93,128
2,29,87,32
2,24,91,192
2,29,93,112
2,43,91,176
2,36,91,4
2,39,91,36
2,24,110,20
2,29,82,100
2,29,93,220
2,36,93,176
2,39,93,20
2,39,93,156
2,29,87,32
2,29,91,192
2,29,93,112
2,46,93,176
2,36,93,48
2,39,93,24
2,41,110,32
2,29,91,4
2,29,93,208
2,29,93,176
2,29,93,48
2,34,93,128
2,36,87,32
2,36,91,192
2,31,93,112
2,31,93,176
2,31,93,48
2,30,93,128
2,29,87,32
2,27,91,192
2,34,93,112
2,34,93,176
2,34,93,48
2,34,93,128
2,36,87,32
2,36,91,192
2,31,93,112
2,31,93,176
2,31,93,48
2,30,93,128
2,29,87,32
2,36,91,192
2,53,93,112
2,53,93,176
2,48,93,48
2,46,93,24
2,43,87,80
2,39,78,92
2,36,87,60
2,36,91,192
2,34,93,148
2,31,91,80
2,31,93,148
2,31,93,48
2,30,93,128
2,29,87,32
2,29,91,192
2,34,93,144
2,34,93,176
2,31,93,48
2,34,93,128
2,36,87,32
2,36,91,192
2,27,93,148
2,27,91,0
2,27,93,148
2,31,93,48
2,30,93,128
2,29,87,32
2,29,91,192
2,34,93,144
2,34,93,176
2,31,93,48
2,34,93,128
2,36,87,32
2,36,91,192
2,34,93,148
2,31,91,80
2,31,93,148
2,31,93,48
2,30,93,128
2,29,87,32
2,29,91,192
2,34,93,144
2,34,93,176
2,27,93,48
2,29,93,128
2,27,87,32
2,39,91,192
2,34,93,192
2,34,91,120
2,34,93,20
2,29,93,128
2,52,87,32
2,48,91,192
2,46,95,224
2,46,93,40
2,43,93,52
2,42,87,56
2,41,110,32
2,24,82,384
2,24,93,220
2,41,64,80
2,41,91,44
2,24,93,52
2,27,93,48
2,27,93,128
2,29,87,32
2,29,91,192
2,29,93,112
2,43,91,176
2,39,91,4
2,41,91,36
2,41,110,20
2,29,82,36
2,29,93,220
2,24,93,176
2,27,93,48
2,27,93,128
2,29,87,32
2,29,91,192
2,29,93,112
2,24,93,176
2,41,93,48
2,43,93,128
2,41,110,32
2,29,91,4
2,29,93,208
2,31,93,176
2,34,93,48
2,34,93,128
2,36,87,32
2,31,91,24
2,31,93,208
2,31,93,176
2,34,93,48
2,34,93,128
2,36,87,32
2,31,91,24
2,24,93,208
2,24,93,176
2,24,93,48
2,24,93,128
2,41,110,32
2,29,82,384
2,24,93,220
2,41,64,80
2,41,91,44
2,24,93,52
2,27,93,48
2,27,93,128
2,29,87,32
2,29,91,192
2,29,93,112
2,43,91,176
2,36,91,4
2,39,91,36
2,29,110,20
2,29,82,288
2,29,93,220
2,43,93,176
2,36,93,48
2,39,93,128
2,29,87,32
2,29,91,192
2,29,93,112
2,46,93,176
2,36,93,48
2,39,93,24
2,41,110,32
2,29,91,4
2,29,93,208
2,29,93,176
2,29,93,48
2,34,93,128
2,36,87,32
2,36,91,192
2,31,93,112
2,31,93,176
2,31,93,48
2,30,93,128
2,29,87,32
2,27,91,192
2,34,93,112
2,34,93,176
2,34,93,48
2,34,93,128
2,36,87,32
2,36,91,192
2,31,93,112
2,31,93,176
2,31,93,48
2,30,93,128
2,29,87,32
2,36,91,192
2,43,93,112
2,48,92,60
2,48,93,116
2,48,93,48
2,46,93,48
2,43,87,80
2,46,78,92
2,48,87,60
