track,note,velocity,time
0,38,127,2420
0,40,127,0
0,40,0,25
0,38,0,0
0,38,32,95
0,40,32,0
0,40,0,25
0,38,0,0
0,40,64,35
0,38,64,0
0,38,0,25
0,40,0,0
0,40,127,35
0,38,127,0
0,38,0,25
0,40,0,0
0,38,127,95
0,40,127,0
0,40,0,25
0,38,0,0
0,45,127,95
0,45,0,95
0,54,64,145
0,36,127,0
0,57,127,0
0,42,127,0
0,42,0,50
0,36,0,0
0,54,0,45
0,42,36,25
0,42,0,50
0,57,0,20
0,42,52,50
0,54,127,0
0,42,0,50
0,54,0,45
0,42,84,25
0,42,0,50
0,54,64,70
0,40,127,0
0,38,127,0
0,42,127,0
0,36,127,0
0,36,0,50
0,42,0,0
0,54,0,45
0,42,52,25
0,42,0,50
0,38,0,20
0,40,0,0
0,42,84,50
0,54,127,0
0,42,0,50
0,54,0,45
0,46,96,25
0,46,0,50
0,36,127,70
0,42,84,0
0,54,64,0
0,42,0,50
0,36,0,0
0,54,0,45
0,42,116,25
0,42,0,50
0,54,127,70
0,46,96,0
0,46,0,50
0,54,0,45
0,40,127,145
0,54,64,0
0,36,127,0
0,38,127,0
0,42,127,0
0,42,0,50
0,36,0,0
0,54,0,45
0,42,36,25
0,42,0,50
0,40,0,20
0,38,0,0
0,42,52,50
0,54,127,0
0,42,0,50
0,54,0,45
0,42,84,25
0,42,0,50
0,36,127,70
0,42,127,0
0,54,64,0
0,42,0,50
0,54,0,45
0,42,36,25
0,42,0,50
0,36,0,20
0,54,127,50
0,42,52,0
0,42,0,50
0,54,0,45
0,42,84,25
0,42,0,50
0,54,64,70
0,42,127,0
0,38,127,0
0,40,127,0
0,36,127,0
0,42,0,50
0,54,0,45
0,42,52,25
0,42,0,50
0,36,0,20
0,38,0,0
0,40,0,0
0,54,127,50
0,42,84,0
0,42,0,50
0,54,0,45
0,46,96,25
0,46,0,50
0,54,64,70
0,42,84,0
0,36,127,0
0,42,0,50
0,54,0,45
0,42,116,25
0,42,0,50
0,36,0,20
0,46,96,50
0,54,127,0
0,46,0,50
0,54,0,45
0,42,127,145
0,36,127,0
0,38,127,0
0,54,64,0
0,40,127,0
0,42,0,50
0,54,0,45
0,42,36,25
0,42,0,50
0,40,0,20
0,38,0,0
0,36,0,0
0,46,96,50
0,54,127,0
0,46,0,50
0,54,0,45
0,36,127,145
0,54,64,0
0,42,127,0
0,42,0,50
0,36,0,0
0,54,0,45
0,42,36,25
0,42,0,50
0,42,52,70
0,54,127,0
0,42,0,50
0,54,0,45
0,42,84,25
0,42,0,50
0,54,64,70
0,40,127,0
0,36,127,0
0,38,127,0
0,42,127,0
0,42,0,50
0,36,0,0
0,38,0,0
0,40,0,0
0,54,0,45
0,42,52,25
0,42,0,50
0,42,84,70
0,54,127,0
0,42,0,50
0,54,0,45
0,46,96,25
0,36,64,0
0,36,0,50
0,46,0,0
0,36,127,70
0,54,64,0
0,42,84,0
0,42,0,50
0,36,0,0
0,54,0,45
0,42,116,25
0,42,0,50
0,54,127,70
0,46,96,0
0,46,0,50
0,54,0,45
0,54,64,145
0,38,127,0
0,42,127,0
0,40,127,0
0,36,127,0
0,36,0,50
0,42,0,0
0,40,0,0
0,38,0,0
0,54,0,45
0,42,36,25
0,42,0,50
0,54,127,70
0,42,52,0
0,42,0,50
0,54,0,45
0,38,127,25
0,42,84,0
0,40,127,0
0,40,0,50
0,42,0,0
0,38,0,0
0,42,127,70
0,54,64,0
0,36,127,0
0,36,0,50
0,42,0,0
0,54,0,45
0,42,36,25
0,42,0,50
0,42,52,70
0,54,127,0
0,42,0,50
0,54,0,45
0,42,84,25
0,42,0,50
0,36,127,70
0,38,127,0
0,54,64,0
0,40,127,0
0,42,127,0
0,42,0,50
0,38,0,0
0,36,0,0
0,40,0,0
0,54,0,45
0,42,52,25
0,42,0,50
0,54,127,70
0,42,84,0
0,42,0,50
0,54,0,45
0,46,96,25
0,36,64,0
0,36,0,50
0,46,0,0
0,36,127,70
0,42,84,0
0,54,64,0
0,42,0,50
0,36,0,0
0,54,0,45
0,42,116,25
0,42,0,50
0,40,127,70
0,83,127,0
0,38,127,0
0,46,96,0
0,54,127,0
0,71,127,0
0,38,0,25
0,40,0,0
0,46,0,25
0,54,0,45
0,71,0,5
0,83,0,0
0,38,32,20
0,40,32,0
0,40,0,25
0,38,0,0
0,38,64,35
0,40,64,0
0,40,0,25
0,38,0,0
0,38,127,35
0,54,64,0
0,40,127,0
0,40,127,0
0,71,127,0
0,42,127,0
0,36,127,0
0,83,127,0
0,38,127,0
0,38,0,25
0,40,0,0
0,40,0,25
0,42,0,0
0,38,0,0
0,36,0,0
0,54,0,45
0,71,0,15
0,83,0,0
0,40,127,10
0,69,127,0
0,81,127,0
0,38,127,0
0,42,36,0
0,38,0,25
0,40,0,0
0,42,0,25
0,81,0,50
0,69,0,0
0,45,127,20
0,54,127,0
0,42,52,0
0,68,127,0
0,80,127,0
0,42,0,50
0,45,0,45
0,54,0,0
0,68,0,5
0,80,0,0
0,42,84,20
0,38,127,0
0,40,127,0
0,40,0,50
0,38,0,0
0,42,0,0
0,61,127,70
0,64,127,0
0,66,127,0
0,35,127,0
0,80,127,0
0,83,127,0
0,42,127,0
0,54,64,0
0,68,127,0
0,35,127,0
0,57,127,0
0,36,127,0
0,59,127,0
0,36,0,50
0,42,0,0
0,54,0,45
0,68,0,20
0,80,0,0
0,42,36,5
0,42,0,50
0,57,0,20
0,42,52,50
0,81,127,0
0,54,127,0
0,69,127,0
0,64,0,20
0,61,0,10
0,35,0,5
0,35,0,0
0,59,0,5
0,66,0,0
0,42,0,10
0,54,0,45
0,42,84,25
0,78,127,0
0,59,127,0
0,35,127,0
0,66,127,0
0,61,127,0
0,35,127,0
0,66,127,0
0,64,127,0
0,69,0,20
0,81,0,0
0,66,0,20
0,42,0,10
0,59,0,5
0,61,0,5
0,64,0,5
0,35,0,55
0,35,0,0
0,42,127,0
0,40,127,0
0,54,64,0
0,36,127,0
0,38,127,0
0,36,0,50
0,42,0,0
0,54,0,45
0,42,52,25
0,32,127,0
0,32,127,0
0,32,0,25
0,32,0,0
0,42,0,25
0,40,0,20
0,38,0,0
0,35,127,50
0,61,127,0
0,66,127,0
0,64,127,0
0,42,84,0
0,54,127,0
0,35,127,0
0,59,127,0
0,42,0,50
0,54,0,45
0,46,96,25
0,46,0,50
0,35,0,65
0,35,0,0
0,36,127,5
0,42,84,0
0,54,64,0
0,42,0,50
0,36,0,0
0,54,0,45
0,42,116,25
0,35,127,0
0,35,127,0
0,42,0,50
0,35,0,55
0,35,0,0
0,54,127,15
0,46,96,0
0,32,127,0
0,32,127,0
0,46,0,50
0,54,0,45
0,32,0,130
0,32,0,0
0,38,127,15
0,36,127,0
0,42,127,0
0,33,127,0
0,40,127,0
0,33,127,0
0,54,64,0
0,42,0,50
0,36,0,0
0,54,0,45
0,42,36,25
0,42,0,50
0,38,0,20
0,40,0,0
0,33,0,20
0,33,0,0
0,42,52,30
0,34,127,0
0,34,127,0
0,54,127,0
0,59,0,30
0,42,0,20
0,66,0,20
0,61,0,5
0,64,0,0
0,34,0,5
0,34,0,0
0,54,0,15
0,32,127,25
0,42,84,0
0,32,127,0
0,42,0,50
0,32,0,45
0,32,0,0
0,54,64,25
0,35,127,0
0,66,127,0
0,42,127,0
0,59,127,0
0,35,127,0
0,64,127,0
0,36,127,0
0,61,127,0
0,42,0,50
0,54,0,45
0,42,36,25
0,42,0,50
0,36,0,20
0,54,127,50
0,42,52,0
0,59,0,20
0,35,0,5
0,35,0,0
0,61,0,10
0,64,0,5
0,66,0,5
0,42,0,5
0,54,0,45
0,35,127,25
0,64,127,0
0,59,127,0
0,61,127,0
0,42,84,0
0,35,127,0
0,66,127,0
0,64,0,35
0,66,0,10
0,42,0,5
0,59,0,5
0,61,0,15
0,35,0,25
0,35,0,0
0,40,127,25
0,42,127,0
0,54,64,0
0,36,127,0
0,38,127,0
0,42,0,50
0,54,0,45
0,32,127,25
0,42,52,0
0,32,127,0
0,42,0,50
0,38,0,20
0,40,0,0
0,36,0,0
0,32,0,5
0,32,0,0
0,64,127,45
0,35,127,0
0,54,127,0
0,35,127,0
0,42,84,0
0,59,127,0
0,61,127,0
0,66,127,0
0,35,0,45
0,35,0,0
0,42,0,5
0,54,0,45
0,35,127,25
0,35,127,0
0,46,96,0
0,46,0,50
0,35,0,40
0,35,0,0
0,42,84,30
0,54,64,0
0,36,127,0
0,42,0,50
0,78,0,10
0,66,0,0
0,54,0,35
0,35,127,25
0,42,116,0
0,35,127,0
0,42,0,50
0,36,0,20
0,35,0,10
0,35,0,0
0,46,96,40
0,32,127,0
0,83,127,0
0,71,127,0
0,54,127,0
0,32,127,0
0,46,0,50
0,54,0,45
0,83,0,0
0,71,0,0
0,38,127,145
0,71,127,0
0,42,127,0
0,33,127,0
0,40,127,0
0,83,127,0
0,54,64,0
0,36,127,0
0,33,127,0
0,32,0,5
0,32,0,0
0,42,0,45
0,54,0,45
0,71,0,25
0,83,0,0
0,42,36,0
0,81,127,0
0,69,127,0
0,42,0,50
0,38,0,20
0,40,0,0
0,36,0,0
0,33,0,5
0,33,0,0
0,81,0,40
0,69,0,0
0,68,127,5
0,46,96,0
0,34,127,0
0,54,127,0
0,34,127,0
0,80,127,0
0,46,0,50
0,59,0,25
0,34,0,10
0,34,0,0
0,80,0,5
0,68,0,0
0,54,0,5
0,66,0,10
0,64,0,5
0,61,0,10
0,32,127,0
0,32,127,0
0,32,0,115
0,32,0,0
0,80,127,5
0,42,127,0
0,68,127,0
0,64,127,0
0,54,64,0
0,66,127,0
0,35,127,0
0,59,127,0
0,61,127,0
0,36,127,0
0,35,127,0
0,36,0,50
0,42,0,0
0,54,0,45
0,68,0,5
0,80,0,0
0,42,36,20
0,64,0,25
0,61,0,0
0,66,0,10
0,59,0,5
0,42,0,10
0,54,127,70
0,81,127,0
0,42,52,0
0,69,127,0
0,35,0,25
0,35,0,0
0,42,0,25
0,54,0,45
0,81,0,25
0,69,0,0
0,78,127,0
0,59,127,0
0,42,84,0
0,64,127,0
0,66,127,0
0,35,127,0
0,35,127,0
0,61,127,0
0,66,127,0
0,61,0,50
0,42,0,0
0,64,0,5
0,59,0,0
0,66,0,10
0,35,0,55
0,35,0,0
0,40,127,0
0,38,127,0
0,54,64,0
0,42,127,0
0,36,127,0
0,36,0,50
0,42,0,0
0,40,0,0
0,38,0,0
0,54,0,45
0,32,127,25
0,42,52,0
0,32,127,0
0,42,0,50
0,32,0,50
0,32,0,0
0,42,84,20
0,35,127,0
0,61,127,0
0,59,127,0
0,66,127,0
0,35,127,0
0,64,127,0
0,54,127,0
0,35,0,50
0,35,0,0
0,42,0,0
0,54,0,45
0,35,127,25
0,46,96,0
0,35,127,0
0,36,64,0
0,36,0,50
0,46,0,0
0,35,0,30
0,35,0,0
0,36,127,40
0,54,64,0
0,42,84,0
0,42,0,50
0,36,0,0
0,54,0,45
0,35,127,25
0,42,116,0
0,35,127,0
0,42,0,50
0,35,0,15
0,35,0,0
0,46,96,55
0,54,127,0
0,32,127,0
0,32,127,0
0,46,0,50
0,54,0,45
0,42,127,145
0,54,64,0
0,38,127,0
0,33,127,0
0,33,127,0
0,40,127,0
0,36,127,0
0,32,0,25
0,32,0,0
0,36,0,25
0,42,0,0
0,40,0,0
0,38,0,0
0,54,0,45
0,42,36,25
0,42,0,50
0,33,0,0
0,33,0,0
0,34,127,70
0,42,52,0
0,34,127,0
0,54,127,0
0,42,0,50
0,59,0,20
0,66,0,20
0,64,0,0
0,34,0,5
0,34,0,0
0,54,0,0
0,61,0,5
0,32,127,20
0,42,84,0
0,40,127,0
0,32,127,0
0,38,127,0
0,38,0,50
0,40,0,0
0,42,0,0
0,32,0,65
0,32,0,0
0,35,127,5
0,54,64,0
0,59,127,0
0,61,127,0
0,66,127,0
0,42,127,0
0,35,127,0
0,36,127,0
0,64,127,0
0,36,0,50
0,42,0,0
0,54,0,45
0,42,36,25
0,42,0,50
0,54,127,70
0,42,52,0
0,35,0,15
0,35,0,0
0,59,0,5
0,64,0,10
0,61,0,5
0,66,0,5
0,42,0,10
0,54,0,45
0,61,127,25
0,42,84,0
0,59,127,0
0,66,127,0
0,64,127,0
0,35,127,0
0,35,127,0
0,66,0,40
0,59,0,0
0,64,0,5
0,42,0,5
0,61,0,10
0,35,0,40
0,35,0,0
0,40,127,20
0,54,64,0
0,38,127,0
0,42,127,0
0,36,127,0
0,36,0,50
0,42,0,0
0,40,0,0
0,38,0,0
0,54,0,45
0,32,127,25
0,42,52,0
0,32,127,0
0,42,0,50
0,32,0,20
0,32,0,0
0,64,127,50
0,35,127,0
0,42,84,0
0,61,127,0
0,54,127,0
0,35,127,0
0,59,127,0
0,66,127,0
0,42,0,50
0,35,0,25
0,35,0,0
0,54,0,20
0,36,64,25
0,46,96,0
0,46,0,50
0,36,0,0
0,42,127,70
0,54,64,0
0,35,127,0
0,35,127,0
0,57,127,0
0,36,127,0
0,36,0,50
0,42,0,0
0,54,0,45
0,35,0,20
0,35,0,0
0,37,127,5
0,37,127,0
0,57,0,70
0,54,127,50
0,54,0,95
0,40,96,25
0,38,96,0
0,38,0,50
0,40,0,0
0,66,0,25
0,37,0,15
0,64,0,0
0,37,0,0
0,59,0,10
0,61,0,5
0,36,127,15
0,40,127,0
0,40,127,0
0,54,64,0
0,38,127,0
0,40,127,0
0,38,0,50
0,40,0,0
0,36,0,0
0,54,0,45
0,40,127,25
0,42,127,0
0,42,127,0
0,38,127,0
0,40,0,25
0,40,0,0
0,38,0,25
0,40,0,0
0,54,127,70
0,45,127,0
0,45,0,95
0,54,0,0
0,78,0,55
0,66,0,0
0,42,0,90
0,83,0,0
0,42,0,0
0,57,127,0
0,28,127,0
0,36,127,0
0,28,127,0
0,42,127,0
0,52,127,0
0,56,127,0
0,59,127,0
0,42,0,50
0,36,0,0
0,42,36,70
0,42,0,50
0,57,0,20
0,42,52,50
0,52,127,0
0,52,0,40
0,42,0,10
0,42,84,70
0,42,0,50
0,42,127,70
0,36,127,0
0,40,127,0
0,38,127,0
0,36,0,50
0,42,0,0
0,28,0,10
0,28,0,0
0,28,127,60
0,52,127,0
0,42,52,0
0,28,127,0
0,42,0,50
0,38,0,20
0,40,0,0
0,52,0,5
0,28,0,20
0,28,0,0
0,35,127,25
0,42,84,0
0,35,127,0
0,42,0,50
0,44,127,70
0,52,0,10
0,59,0,10
0,44,0,30
0,56,0,15
0,35,0,40
0,35,0,0
0,42,52,15
0,56,127,0
0,52,127,0
0,36,127,0
0,61,127,0
0,52,127,0
0,37,127,0
0,37,127,0
0,36,0,50
0,42,0,0
0,52,0,30
0,42,84,40
0,42,0,50
0,46,96,70
0,46,0,95
0,52,127,25
0,52,0,70
0,37,0,10
0,37,0,0
0,42,127,40
0,36,127,0
0,38,127,0
0,35,127,0
0,40,127,0
0,35,127,0
0,36,0,50
0,42,0,0
0,42,36,70
0,42,0,50
0,40,0,20
0,38,0,0
0,35,0,30
0,35,0,0
0,49,127,20
0,42,52,0
0,37,127,0
0,37,127,0
0,42,0,50
0,56,0,25
0,49,0,10
0,61,0,0
0,52,0,10
0,37,0,25
0,37,0,0
0,42,84,0
0,35,127,0
0,35,127,0
0,36,64,0
0,47,127,0
0,36,0,50
0,42,0,0
0,47,0,50
0,35,0,20
0,35,0,0
0,52,127,0
0,28,127,0
0,36,127,0
0,28,127,0
0,42,127,0
0,56,127,0
0,63,127,0
0,42,0,50
0,36,0,0
0,42,36,70
0,42,0,50
0,42,52,70
0,52,127,0
0,28,0,30
0,28,0,0
0,42,0,20
0,52,0,10
0,28,127,60
0,28,127,0
0,42,84,0
0,42,0,50
0,28,0,50
0,28,0,0
0,42,127,20
0,36,127,0
0,40,127,0
0,38,127,0
0,36,0,50
0,42,0,0
0,28,127,70
0,28,127,0
0,52,127,0
0,42,52,0
0,63,0,30
0,52,0,5
0,56,0,0
