track,note,velocity,time
1,33,88,62016
1,30,80,20
1,35,84,2
1,28,88,20
1,33,88,136
1,30,80,20
1,35,84,2
1,28,88,20
1,33,88,49288
1,30,80,20
1,35,84,2
1,28,88,20
1,33,88,136
1,30,80,20
1,35,84,2
1,28,88,20
1,35,102,18568
1,37,74,4
1,38,78,16
1,28,78,2
1,35,78,24
1,37,76,2
1,28,110,20
1,34,88,15420
1,31,80,20
1,36,84,2
1,29,88,20
1,34,88,136
1,31,80,20
1,36,84,2
1,29,88,20
1,34,88,136
1,31,80,20
1,36,84,2
1,29,110,20
2,57,32,288
2,61,36,0
2,64,36,0
2,54,60,3072
2,54,18,254
2,47,58,10
2,59,40,0
2,62,48,0
2,66,52,0
2,69,30,0
2,40,56,10
2,57,30,10
2,61,52,0
2,64,48,0
2,54,46,202
2,47,46,266
2,62,50,0
2,66,60,0
2,57,10,192
2,40,48,10
2,54,36,0
2,59,58,0
2,62,62,0
2,64,44,0
2,57,30,214
2,61,52,0
2,64,48,0
2,54,46,202
2,47,46,266
2,62,50,0
2,66,60,0
2,57,10,192
2,40,48,10
2,54,36,0
2,59,58,0
2,62,62,0
2,64,44,0
2,42,50,214
2,57,34,0
2,61,42,0
2,64,38,0
2,55,46,10
2,64,68,0
2,53,60,70
2,62,60,0
2,52,60,576
2,61,64,0
2,47,40,6
2,57,32,0
2,59,34,0
2,62,48,0
2,65,46,0
2,40,56,10
2,61,54,0
2,64,50,0
2,38,54,50
2,62,48,0
2,66,56,0
2,40,56,26
2,66,52,0
2,41,64,206
2,56,54,0
2,59,56,0
2,64,28,0
2,42,46,126
2,57,20,0
2,61,52,0
2,66,46,0
2,55,46,10
2,64,68,0
2,53,60,70
2,62,60,0
2,52,60,576
2,61,64,0
2,47,40,6
2,57,32,0
2,59,34,0
2,62,48,0
2,65,46,0
2,45,68,10
2,57,30,0
2,61,52,0
2,64,40,0
2,38,52,62
2,62,56,0
2,66,46,0
2,40,60,2
2,57,46,0
2,62,56,0
2,66,50,0
2,57,32,10
2,61,36,0
2,64,36,0
2,54,60,3072
2,54,18,254
2,47,58,10
2,59,40,0
2,62,48,0
2,66,52,0
2,69,30,0
2,40,56,10
2,57,32,10
2,61,36,0
2,64,36,0
2,54,60,3072
2,54,18,254
2,47,58,10
2,59,40,0
2,62,48,0
2,66,52,0
2,69,30,0
2,40,56,10
2,57,30,10
2,61,52,0
2,64,48,0
2,54,46,202
2,47,46,266
2,62,50,0
2,66,60,0
2,57,10,192
2,40,48,10
2,54,36,0
2,59,58,0
2,62,62,0
2,64,44,0
2,57,30,214
2,61,52,0
2,64,48,0
2,54,46,202
2,47,46,266
2,62,50,0
2,66,60,0
2,57,10,192
2,40,48,10
2,54,36,0
2,59,58,0
2,62,62,0
2,64,44,0
2,42,50,214
2,57,34,0
2,61,42,0
2,64,38,0
2,55,46,10
2,64,68,0
2,53,60,70
2,62,60,0
2,52,60,576
2,61,64,0
2,47,40,6
2,57,32,0
2,59,34,0
2,62,48,0
2,65,46,0
2,45,68,10
2,57,30,0
2,61,52,0
2,64,40,0
2,38,52,62
2,62,56,0
2,66,46,0
2,40,56,26
2,66,52,0
2,41,64,190
2,56,54,0
2,59,56,0
2,64,28,0
2,42,46,126
2,57,22,0
2,61,50,0
2,66,40,0
2,55,46,10
2,64,68,0
2,53,60,70
2,62,60,0
2,52,60,576
2,61,64,0
2,47,40,6
2,57,32,0
2,59,34,0
2,62,48,0
2,65,46,0
2,45,68,10
2,57,30,0
2,61,52,0
2,64,40,0
2,38,52,62
2,62,56,0
2,66,46,0
2,40,60,2
2,57,46,0
2,62,56,0
2,66,50,0
2,57,32,10
2,61,36,0
2,64,36,0
2,54,60,3072
2,54,18,254
2,47,58,10
2,59,40,0
2,62,48,0
2,66,52,0
2,69,30,0
2,40,56,10
2,57,32,10
2,61,36,0
2,64,36,0
2,54,60,3072
2,54,18,254
2,47,58,10
2,59,40,0
2,62,48,0
2,66,52,0
2,69,30,0
2,40,56,10
2,38,52,10
2,57,30,0
2,62,56,0
2,37,48,10
2,59,60,0
2,64,72,0
2,42,56,10
2,57,40,0
2,61,60,0
2,38,62,10
2,57,48,0
2,62,72,0
2,66,54,0
2,37,68,10
2,57,56,0
2,61,68,0
2,64,62,0
2,56,56,118
2,59,68,0
2,64,62,0
2,57,58,54
2,61,72,0
2,64,60,0
2,42,52,10
2,57,48,0
2,61,60,0
2,66,62,0
2,38,50,10
2,59,50,0
2,64,56,0
2,68,56,0
2,57,40,82
2,62,52,0
2,66,52,0
2,37,62,10
2,59,48,0
2,64,62,0
2,68,58,0
2,38,56,62
2,57,54,0
2,62,56,0
2,66,56,0
2,40,68,34
2,59,60,0
2,64,72,0
2,68,60,0
2,42,62,66
2,57,52,0
2,61,54,0
2,66,56,0
2,47,52,10
2,57,40,0
2,62,58,0
2,66,52,0
2,49,56,10
2,59,42,0
2,64,56,0
2,68,48,0
2,50,42,10
2,62,32,0
2,66,38,0
2,69,44,0
2,66,20,74
2,40,62,10
2,62,50,0
2,64,60,0
2,66,56,0
2,69,30,0
2,52,56,384
2,47,52,10
2,57,56,0
2,62,60,0
2,66,52,0
2,49,46,10
2,59,42,0
2,64,56,0
2,68,56,0
2,40,58,10
2,57,52,0
2,59,48,0
2,62,56,0
2,66,48,0
2,69,52,0
2,39,60,646
2,58,48,0
2,63,56,0
2,67,56,0
2,41,56,10
2,60,50,0
2,65,40,0
2,58,32,10
2,62,36,0
2,65,36,0
2,55,60,3072
2,55,18,254
2,48,58,10
2,60,40,0
2,63,48,0
2,67,52,0
2,70,30,0
2,41,56,10
2,58,32,10
2,62,36,0
2,65,36,0
2,55,60,3072
2,55,18,254
2,48,58,10
2,60,40,0
2,63,48,0
2,67,52,0
2,70,30,0
2,41,56,10
2,58,32,10
2,62,36,0
2,65,36,0
2,55,60,3072
2,55,18,254
2,48,58,10
2,60,40,0
2,63,48,0
2,67,52,0
2,70,30,0
2,41,56,10
2,58,32,10
2,62,36,0
2,65,36,0
2,55,60,3072
2,55,18,254
2,48,58,10
2,60,40,0
2,63,48,0
2,67,52,0
2,70,30,0
2,41,52,2
2,63,36,0
2,67,52,0
3,64,91,2592
3,62,82,78
3,61,83,82
3,59,80,30
3,61,98,58
3,59,76,30
3,57,59,58
3,59,83,106
3,61,83,54
3,59,82,2
3,57,70,38
3,59,70,66
3,61,91,320
3,62,76,38
3,64,80,384
3,66,82,94
3,57,87,1502
3,61,91,34
3,62,91,2
3,64,80,62
3,57,78,2
3,57,68,1070
3,62,91,6
3,62,87,66
3,62,104,74
3,61,91,78
3,57,80,42
3,61,82,26
3,59,91,54
3,57,87,1930
3,61,91,34
3,62,91,2
3,64,80,62
3,57,78,2
3,57,68,1070
3,62,91,6
3,62,87,66
3,62,104,74
3,61,91,78
3,57,80,42
3,61,82,26
3,59,91,54
3,61,82,1354
3,66,98,46
3,66,95,122
3,66,95,74
3,61,98,86
3,62,104,106
3,64,108,66
3,62,91,70
3,61,87,26
3,59,95,42
3,57,72,18
3,61,78,938
3,66,91,46
3,66,95,94
3,66,87,70
3,64,91,70
3,61,83,54
3,62,76,6
3,64,80,50
3,54,76,192
3,57,91,82
3,54,80,10
3,59,82,46
3,57,83,46
3,54,80,62
3,57,83,86
3,59,70,38
3,57,98,58
3,57,70,822
3,66,95,6
3,66,91,90
3,66,82,62
3,61,108,82
3,62,95,82
3,64,108,38
3,62,91,70
3,61,87,26
3,59,95,42
3,57,72,18
3,61,82,1706
3,66,95,86
3,64,95,66
3,61,98,18
3,62,91,34
3,66,82,46
3,64,80,6
3,61,91,96
3,64,91,90
3,64,91,2830
3,62,82,78
3,61,83,82
3,59,80,30
3,61,98,58
3,59,76,30
3,57,59,58
3,59,83,106
3,61,83,54
3,59,82,2
3,57,70,38
3,59,70,66
3,61,91,320
3,62,76,38
3,64,80,384
3,61,91,798
3,61,80,74
3,59,80,54
3,61,91,58
3,59,83,30
3,57,82,54
3,59,80,38
3,61,98,34
3,64,91,2538
3,62,82,78
3,61,83,82
3,59,80,30
3,61,98,58
3,59,76,30
3,57,59,58
3,59,83,106
3,61,83,54
3,59,82,2
3,57,70,38
3,59,70,66
3,61,91,320
3,62,76,38
3,64,80,384
3,57,87,4254
3,61,91,34
3,62,91,2
3,64,80,62
3,57,78,2
3,57,68,1070
3,62,91,6
3,62,87,66
3,62,104,74
3,61,91,78
3,57,80,42
3,61,82,26
3,59,91,54
3,57,87,1930
3,61,91,34
3,62,91,2
3,64,80,62
3,57,78,2
3,62,108,1262
3,62,80,118
3,62,91,98
3,64,98,38
3,66,87,18
3,61,95,14
3,64,87,58
3,61,80,46
3,59,82,38
3,61,82,1250
3,66,98,46
3,66,95,122
3,66,95,74
3,61,98,86
3,62,104,106
3,64,108,66
3,62,91,70
3,61,87,26
3,59,95,42
3,57,72,18
3,61,78,938
3,66,91,46
3,66,95,94
3,66,87,70
3,64,91,70
3,61,83,54
3,62,76,6
3,64,80,50
3,54,76,192
3,57,91,82
3,54,80,10
3,59,82,46
3,57,83,46
3,54,80,62
3,57,83,86
3,59,70,38
3,57,98,58
3,57,70,822
3,66,95,6
3,66,91,90
3,66,82,62
3,61,108,82
3,62,95,82
3,64,108,38
3,62,91,70
3,61,87,26
3,59,95,42
3,57,72,18
3,66,112,1514
3,64,78,58
3,66,95,70
3,64,76,90
3,66,91,58
3,64,91,74
3,66,91,118
3,64,91,30
3,64,91,78
3,66,104,38
3,66,108,1274
3,64,76,30
3,62,91,26
3,61,108,42
3,59,76,50
3,57,78,38
3,59,80,34
3,61,91,26
3,59,68,34
3,57,83,18
3,64,91,722
3,62,82,78
3,61,83,82
3,59,80,30
3,61,98,58
3,59,76,30
3,57,59,58
3,59,83,106
3,61,83,54
3,59,82,2
3,57,70,38
3,59,70,66
3,61,91,320
3,62,76,38
3,64,80,384
3,61,91,798
3,61,80,74
3,59,80,54
3,61,91,58
3,59,83,30
3,57,82,54
3,59,80,38
3,61,98,34
3,64,91,2538
3,62,82,78
3,61,83,82
3,59,80,30
3,61,98,58
3,59,76,30
3,57,59,58
3,59,83,106
3,61,83,54
3,59,82,2
3,57,70,38
3,59,70,66
3,61,91,320
3,62,76,38
3,64,80,384
3,66,87,3870
3,66,80,106
3,66,80,98
3,66,83,110
3,64,91,42
3,64,95,98
3,62,83,384
3,61,82,46
3,59,87,30
3,57,76,30
3,66,87,978
3,66,82,86
3,66,82,66
3,62,87,82
3,64,80,14
3,66,80,10
3,64,70,14
3,68,83,0
3,64,76,62
3,66,95,0
3,68,83,30
3,66,80,54
3,69,76,0
3,57,91,730
3,57,98,98
3,66,98,38
3,66,104,130
3,66,98,66
3,64,87,94
3,61,91,62
3,61,80,170
3,62,72,58
3,64,98,38
3,62,80,86
3,61,83,42
3,59,78,114
3,57,76,30
3,57,95,974
3,57,108,94
3,57,98,94
3,66,91,46
3,64,95,18
3,61,91,6
3,64,98,26
3,66,91,10
3,64,91,18
3,61,82,260
3,64,91,22
3,66,91,2
3,64,83,22
3,61,91,224
3,64,80,34
3,66,95,22
3,66,87,2
3,64,91,26
3,61,108,54
3,59,95,46
3,57,108,38
3,66,108,146
3,64,98,50
3,61,95,38
3,64,97,54
3,66,104,42
3,64,98,22
3,61,104,252
3,64,95,18
3,66,104,18
3,66,95,102
3,66,104,110
3,66,108,110
3,64,91,42
3,62,95,14
3,64,80,34
3,67,108,6
3,67,87,78
3,67,95,78
3,67,104,78
3,65,91,54
3,62,91,2510
3,62,82,114
3,60,76,480
3,58,61,110
3,62,108,694
3,62,87,142
3,60,80,576
3,58,70,130
3,60,70,902
3,62,91,320
3,63,76,38
3,65,80,384
3,62,82,222
3,62,80,118
3,62,87,106
3,65,83,30
3,62,76,62
3,62,80,90
3,63,76,288
3,62,76,82
3,60,83,50
3,58,68,18
3,65,82,2398
3,62,108,70
3,60,91,78
3,58,80,42
3,65,98,466
3,62,108,2
3,60,82,46
3,58,68,6
3,60,70,234
3,62,91,320
3,63,76,38
3,65,80,384
3,62,91,798
3,62,80,74
3,60,80,54
3,62,91,58
3,60,83,30
3,58,82,54
3,60,80,38
3,62,98,34
3,58,83,2154
3,65,91,26
3,62,104,78
3,60,108,54
3,58,76,96
3,62,98,606
3,60,80,46
3,60,98,82
3,60,76,2282
3,67,108,110
3,67,91,54
3,65,95,42
3,65,87,78
3,63,83,22
3,62,80,162
3,60,108,26
3,58,87,70
3,67,112,2658
3,65,108,162
3,67,115,42
3,67,108,1850
3,65,95,18
3,65,104,66
3,67,119,22
4,57,60,1248
4,61,60,0
4,64,72,0
4,56,68,10
4,59,60,0
4,57,52,34
4,61,56,0
4,57,72,394
4,61,64,0
4,56,80,54
4,59,68,0
4,64,62,0
4,57,62,2
4,61,50,0
4,66,56,0
4,59,68,1602
4,62,68,0
4,61,60,26
4,64,62,0
4,62,94,2
4,66,86,0
4,64,90,10
4,68,56,0
4,62,42,50
4,64,30,0
4,66,68,0
4,69,76,0
4,61,60,10
4,64,60,0
4,59,62,50
4,62,60,0
4,57,64,50
4,61,62,0
4,56,64,130
4,59,64,0
4,56,60,98
4,59,76,0
4,54,40,50
4,57,64,0
4,61,72,0
4,56,68,362
4,59,68,0
4,57,60,192
4,61,68,0
4,57,48,46
4,61,56,0
4,59,64,102
4,62,60,0
4,59,58,110
4,62,52,0
4,64,56,0
4,61,60,290
4,64,60,0
4,59,62,50
4,62,60,0
4,57,64,50
4,61,62,0
4,56,64,130
4,59,64,0
4,56,60,98
4,59,76,0
4,54,40,50
4,57,64,0
4,61,72,0
4,56,68,362
4,59,68,0
4,57,60,192
4,61,68,0
4,57,48,46
4,61,56,0
4,59,64,102
4,62,60,0
4,59,58,110
4,62,52,0
4,64,56,0
4,59,68,2
4,64,68,0
4,59,76,290
4,64,72,0
4,57,62,102
4,61,62,0
4,40,72,1152
4,64,72,286
4,67,64,0
4,62,76,70
4,65,60,0
4,61,72,10
4,64,56,26
4,57,64,18
4,59,64,0
4,62,72,0
4,57,58,294
4,61,56,0
4,64,72,0
4,50,76,6
4,54,60,0
4,57,52,0
4,38,64,66
4,57,44,0
4,62,52,0
4,66,50,0
4,40,68,6
4,57,50,0
4,62,56,0
4,66,56,0
4,41,80,10
4,59,60,0
4,64,72,0
4,42,80,142
4,56,54,0
4,59,62,0
4,64,56,0
4,42,72,58
4,57,48,0
4,61,80,0
4,64,72,230
4,67,64,0
4,62,76,70
4,65,60,0
4,61,72,10
4,64,56,26
4,57,64,18
4,59,64,0
4,62,72,0
4,57,58,294
4,61,56,0
4,64,72,0
4,50,76,6
4,54,60,0
4,57,52,0
4,40,60,66
4,62,56,0
4,66,50,0
4,69,60,0
4,57,60,970
4,61,60,0
4,64,72,0
4,56,68,10
4,59,60,0
4,57,52,34
4,61,56,0
4,57,72,394
4,61,64,0
4,56,80,54
4,59,68,0
4,64,62,0
4,57,62,2
4,61,50,0
4,66,56,0
4,59,68,1602
4,62,68,0
4,61,60,26
4,64,62,0
4,62,94,2
4,66,86,0
4,64,90,10
4,68,56,0
4,62,42,50
4,64,30,0
4,66,68,0
4,69,76,0
4,57,60,778
4,61,60,0
4,64,72,0
4,56,68,10
4,59,60,0
4,57,52,34
4,61,56,0
4,57,72,394
4,61,64,0
4,56,80,54
4,59,68,0
4,64,62,0
4,57,62,2
4,61,50,0
4,66,56,0
4,59,68,1602
4,62,68,0
4,61,60,26
4,64,62,0
4,62,94,2
4,66,86,0
4,64,90,10
4,68,56,0
4,62,42,50
4,64,30,0
4,66,68,0
4,69,76,0
4,61,60,10
4,64,60,0
4,59,62,50
4,62,60,0
4,57,64,50
4,61,62,0
4,56,64,130
4,59,64,0
4,56,60,98
4,59,76,0
4,54,40,50
4,57,64,0
4,61,72,0
4,56,68,362
4,59,68,0
4,57,60,192
4,61,68,0
4,57,48,46
4,61,56,0
4,59,64,102
4,62,60,0
4,59,58,110
4,62,52,0
4,64,56,0
4,61,60,290
4,64,60,0
4,59,62,50
4,62,60,0
4,57,64,50
4,61,62,0
4,56,64,130
