track,note,velocity,time
0,57,32,133
0,61,36,0
0,64,36,0
0,45,80,9
0,57,60,0
0,61,56,0
0,64,62,0
0,57,60,384
0,61,60,0
0,64,72,0
0,61,0,179
0,57,0,8
0,56,68,5
0,59,60,0
0,59,0,363
0,56,0,4
0,57,52,17
0,61,56,0
0,64,91,192
0,64,0,57
0,62,82,39
0,62,0,55
0,61,83,41
0,61,0,177
0,54,60,6
0,45,0,4
0,57,0,0
0,61,0,0
0,64,0,0
0,42,76,5
0,57,62,0
0,59,80,0
0,61,62,0
0,64,60,0
0,54,0,56
0,64,0,89
0,54,18,38
0,57,0,4
0,61,0,0
0,57,72,197
0,61,64,0
0,57,0,165
0,56,80,27
0,59,68,0
0,64,62,0
0,61,0,25
0,59,0,344
0,56,0,14
0,57,62,1
0,61,50,0
0,66,56,0
0,64,0,5
0,59,0,158
0,61,98,29
0,61,0,81
0,44,54,15
0,59,76,0
0,42,0,7
0,59,0,60
0,44,0,26
0,45,90,3
0,57,59,0
0,57,0,139
0,66,0,2
0,61,0,10
0,54,0,3
0,57,0,5
0,45,0,4
0,57,0,15
0,61,0,0
0,64,0,0
0,47,58,5
0,59,40,0
0,62,48,0
0,66,52,0
0,69,30,0
0,57,0,4
0,61,0,0
0,64,0,0
0,47,56,5
0,57,48,0
0,59,83,0
0,62,60,0
0,66,42,0
0,69,34,0
0,59,0,261
0,61,83,27
0,61,0,31
0,59,82,1
0,59,0,45
0,57,70,19
0,47,0,379
0,57,0,0
0,62,0,0
0,66,0,0
0,69,0,0
0,57,0,4
0,50,94,1
0,57,60,0
0,59,68,0
0,62,62,0
0,62,68,0
0,66,60,0
0,59,70,32
0,62,0,139
0,59,0,8
0,50,0,4
0,57,0,4
0,49,72,5
0,61,76,0
0,61,60,0
0,61,91,0
0,64,62,0
0,59,0,19
0,62,0,20
0,61,0,134
0,49,0,10
0,61,0,6
0,61,0,0
0,64,0,2
0,45,76,1
0,59,80,0
0,62,94,0
0,62,76,0
0,66,86,0
0,45,0,183
0,62,0,0
0,66,0,4
0,42,90,5
0,61,72,0
0,64,90,0
0,64,80,0
0,68,56,0
0,59,0,15
0,62,0,16
0,61,0,128
0,68,0,0
0,64,0,8
0,42,0,8
0,64,0,2
0,47,0,1
0,40,56,5
0,40,62,9
0,57,60,0
0,59,54,0
0,62,72,0
0,62,42,0
0,64,30,0
0,66,68,0
0,69,76,0
0,66,82,32
0,66,0,1329
0,57,0,26
0,59,0,2
0,40,0,2
0,62,0,2
0,66,0,2
0,69,0,40
0,40,0,87
0,59,0,0
0,62,0,0
0,66,0,0
0,69,0,0
0,57,30,5
0,61,52,0
0,64,48,0
0,62,0,4
0,64,0,0
0,66,0,0
0,36,96,2
0,42,60,0
0,45,76,3
0,57,58,0
0,61,56,0
0,61,60,0
0,64,76,0
0,64,60,0
0,36,0,1
0,42,0,0
0,75,65,284
0,75,0,4
0,37,72,92
0,42,58,0
0,37,0,4
0,42,0,0
0,36,96,188
0,57,87,3
0,36,0,1
0,57,0,174
0,42,61,14
0,61,91,3
0,42,0,1
0,61,0,168
0,57,0,74
0,61,0,44
0,62,91,1
0,64,0,61
0,61,0,2
0,64,0,8
0,37,85,22
0,42,54,0
0,56,72,3
0,59,72,0
0,59,62,0
0,62,60,0
0,64,44,0
0,37,0,1
0,42,0,0
0,62,0,160
0,59,0,6
0,56,0,4
0,64,0,6
0,57,68,15
0,57,64,0
0,61,62,0
0,61,62,0
0,64,50,0
0,64,80,0
0,59,0,21
0,62,0,14
0,61,0,92
0,61,0,26
0,64,0,18
0,57,0,4
0,57,0,3
0,45,0,9
0,36,100,2
0,42,56,0
0,64,0,2
0,42,64,1
0,56,64,0
0,57,60,0
0,57,78,0
0,59,64,0
0,61,56,0
0,64,68,0
0,36,0,1
0,42,0,0
0,57,0,4
0,54,46,82
0,36,100,198
0,75,66,0
0,36,0,4
0,75,0,0
0,56,0,40
0,59,0,6
0,37,72,46
0,42,60,0
0,56,60,3
0,59,76,0
0,37,0,1
0,42,0,0
0,56,0,146
0,59,0,20
0,36,98,22
0,54,40,3
0,57,64,0
0,61,72,0
0,36,0,1
0,42,62,188
0,42,0,4
0,61,0,282
0,57,0,2
0,54,0,14
0,64,0,4
0,57,0,4
0,61,0,2
0,42,0,12
0,37,85,60
0,42,55,0
0,37,0,4
0,42,0,0
0,56,68,95
0,57,56,0
0,59,62,0
0,59,68,0
0,57,0,41
0,57,0,28
0,59,0,14
0,56,60,13
0,57,60,0
0,61,64,0
0,61,68,0
0,56,0,9
0,59,0,0
0,64,0,23
0,54,0,18
0,61,0,113
0,57,0,6
0,56,0,4
0,61,0,4
0,47,46,6
0,62,50,0
0,66,60,0
0,36,102,6
0,42,57,0
0,47,60,3
0,57,46,0
0,57,48,0
0,61,46,0
0,61,56,0
0,62,60,0
0,66,50,0
0,36,0,1
0,42,0,0
0,57,10,86
0,75,70,198
0,57,68,3
0,75,0,1
0,37,76,92
0,42,56,0
0,57,0,0
0,62,91,3
0,37,0,1
0,42,0,0
0,57,0,124
0,61,0,16
0,62,0,18
0,36,102,30
0,59,64,3
0,62,60,0
0,62,87,0
0,36,0,1
0,62,0,58
0,62,104,37
0,42,58,93
0,42,0,4
0,62,0,152
0,61,91,39
0,57,0,121
0,61,0,16
0,61,0,34
0,37,81,18
0,42,59,0
0,57,22,3
0,57,80,0
0,59,22,0
0,37,0,1
0,42,0,0
0,62,0,166
0,57,0,12
0,61,82,13
0,66,0,19
0,61,0,41
0,57,0,22
0,62,0,41
0,59,0,14
0,57,0,8
0,59,0,2
0,61,0,18
0,47,0,13
0,62,0,0
0,66,0,0
0,40,48,5
0,54,36,0
0,59,58,0
0,62,62,0
0,64,44,0
0,47,0,4
0,36,97,2
0,42,62,0
0,40,32,3
0,57,52,0
0,59,54,0
0,59,58,0
0,59,91,0
0,62,60,0
0,62,52,0
0,64,56,0
0,66,60,0
0,69,58,0
0,36,0,1
0,42,0,0
0,36,97,284
0,75,63,0
0,57,0,2
0,57,90,1
0,36,0,1
0,75,0,0
0,57,0,34
0,37,78,58
0,42,57,0
0,57,94,3
0,37,0,1
0,42,0,0
0,57,0,160
0,36,103,28
0,56,62,3
0,36,0,1
0,56,0,84
0,52,62,11
0,57,68,0
0,42,58,93
0,42,0,4
0,59,0,378
0,37,83,2
0,42,61,0
0,37,0,4
0,42,0,0
0,59,0,210
0,62,0,0
0,66,0,0
0,69,0,0
0,40,0,8
0,62,0,18
0,59,0,2
0,64,0,0
0,40,0,27
0,59,0,0
0,62,0,0
0,64,0,0
0,54,0,2
0,52,0,15
0,57,0,0
0,57,30,92
0,61,52,0
0,64,48,0
0,36,99,6
0,42,54,0
0,45,76,3
0,57,58,0
0,61,56,0
0,61,60,0
0,64,76,0
0,64,60,0
0,36,0,1
0,42,0,0
0,75,67,284
0,75,0,4
0,37,74,92
0,42,61,0
0,37,0,4
0,42,0,0
0,36,99,188
0,57,87,3
0,36,0,1
0,57,0,174
0,42,54,14
0,61,91,3
0,42,0,1
0,61,0,168
0,57,0,74
0,61,0,44
0,62,91,1
0,64,0,61
0,61,0,2
0,64,0,8
0,37,86,22
0,42,57,0
0,56,72,3
0,59,72,0
0,59,62,0
0,62,60,0
0,64,44,0
0,37,0,1
0,42,0,0
0,62,0,160
0,59,0,6
0,56,0,4
0,64,0,6
0,57,68,15
0,57,64,0
0,61,62,0
0,61,62,0
0,64,50,0
0,64,80,0
0,59,0,21
0,62,0,14
0,61,0,92
0,61,0,26
0,64,0,18
0,57,0,4
0,57,0,3
0,45,0,9
0,36,103,2
0,42,58,0
0,64,0,2
0,42,64,1
0,56,64,0
0,57,60,0
0,57,78,0
0,59,64,0
0,61,56,0
0,64,68,0
0,36,0,1
0,42,0,0
0,57,0,4
0,54,46,82
0,36,94,198
0,75,68,0
0,36,0,4
0,75,0,0
0,56,0,40
0,59,0,6
0,37,76,46
0,42,54,0
0,56,60,3
0,59,76,0
0,37,0,1
0,42,0,0
0,56,0,146
0,59,0,20
0,36,100,22
0,54,40,3
0,57,64,0
0,61,72,0
0,36,0,1
0,42,56,188
0,42,0,4
0,61,0,282
0,57,0,2
0,54,0,14
0,64,0,4
0,57,0,4
0,61,0,2
0,42,0,12
0,37,88,60
0,42,58,0
0,37,0,4
0,42,0,0
0,56,68,95
0,57,56,0
0,59,62,0
0,59,68,0
0,57,0,41
0,57,0,28
0,59,0,14
0,56,60,13
0,57,60,0
0,61,64,0
0,61,68,0
0,56,0,9
0,59,0,0
0,64,0,23
0,54,0,18
0,61,0,113
0,57,0,6
0,56,0,4
0,61,0,4
0,47,46,6
0,62,50,0
0,66,60,0
0,36,95,6
0,42,60,0
0,47,60,3
0,57,46,0
0,57,48,0
0,61,46,0
0,61,56,0
0,62,60,0
0,66,50,0
0,36,0,1
0,42,0,0
0,57,10,86
0,75,65,198
0,57,68,3
0,75,0,1
0,37,80,92
0,42,58,0
0,57,0,0
0,62,91,3
0,37,0,1
0,42,0,0
0,57,0,124
0,61,0,16
0,62,0,18
0,36,96,30
0,59,64,3
0,62,60,0
0,62,87,0
0,36,0,1
0,62,0,58
0,62,104,37
0,42,60,93
0,42,0,4
0,62,0,152
0,61,91,39
0,57,0,121
0,61,0,16
0,61,0,34
0,37,84,18
0,42,62,0
0,57,22,3
0,57,80,0
0,59,22,0
0,37,0,1
0,42,0,0
0,62,0,166
0,57,0,12
0,61,82,13
0,66,0,19
0,61,0,41
0,57,0,22
0,62,0,41
0,59,0,14
0,57,0,8
0,59,0,2
0,61,0,18
0,47,0,13
0,62,0,0
0,66,0,0
0,40,48,5
0,54,36,0
0,59,58,0
0,62,62,0
0,64,44,0
0,47,0,4
0,36,99,2
0,42,56,0
0,40,32,3
0,57,52,0
0,59,54,0
0,59,58,0
0,59,91,0
0,62,60,0
0,62,52,0
0,64,56,0
0,66,60,0
0,69,58,0
0,36,0,1
0,42,0,0
0,36,100,284
0,75,66,0
0,57,0,2
0,57,90,1
0,36,0,1
0,75,0,0
0,57,0,34
0,37,72,58
0,42,59,0
0,57,94,3
0,37,0,1
0,42,0,0
0,57,0,160
0,36,97,28
0,56,62,3
0,36,0,1
0,56,0,84
0,52,62,11
0,57,68,0
0,42,62,93
0,42,0,4
0,59,0,378
0,37,85,2
0,42,55,0
0,59,0,2
0,59,0,0
0,64,0,0
0,41,80,1
0,56,72,0
0,59,62,0
0,59,68,0
0,64,68,0
0,37,0,1
0,42,0,0
0,59,0,210
0,62,0,0
0,66,0,0
0,69,0,0
0,40,0,8
0,62,0,18
0,59,0,2
0,64,0,0
0,40,0,27
0,59,0,0
0,62,0,0
0,64,0,0
0,54,0,2
0,52,0,15
0,57,0,0
0,41,0,78
0,42,50,14
0,56,0,0
0,57,34,0
0,61,42,0
0,64,38,0
0,36,101,6
0,42,57,0
0,42,76,3
0,56,76,0
0,59,68,0
0,59,76,0
0,64,90,0
0,64,72,0
0,36,0,1
0,42,0,0
0,56,0,136
0,59,0,4
0,42,0,2
0,59,0,2
0,64,0,2
0,42,68,45
0,57,60,0
0,57,62,0
0,61,68,0
0,61,62,0
0,64,52,0
0,75,70,93
0,61,82,3
0,75,0,1
0,61,0,72
0,37,76,20
0,42,56,0
0,66,98,3
0,37,0,1
0,42,0,0
0,66,0,130
0,36,102,58
0,66,95,3
0,36,0,1
0,66,0,58
0,66,95,37
0,42,58,93
0,42,0,2
0,40,90,1
0,40,72,0
0,42,0,1
0,37,81,380
0,42,59,0
0,37,0,4
0,42,0,0
0,66,0,148
0,61,98,43
0,61,0,41
0,61,0,2
0,40,0,2
0,57,0,4
0,64,0,0
0,62,104,47
0,61,0,39
0,57,0,6
0,64,0,2
0,62,0,16
0,42,0,19
0,57,0,0
0,61,0,0
0,64,0,0
0,55,46,5
0,64,68,0
0,40,0,4
0,36,98,2
0,42,61,0
0,52,86,3
0,59,60,0
0,64,76,0
0,64,72,0
0,64,108,0
0,67,76,0
0,67,64,0
0,36,0,1
0,42,0,0
0,55,0,239
0,64,0,4
0,67,0,3
0,64,0,2
0,64,0,4
0,64,0,0
0,67,0,0
0,59,0,8
0,52,0,18
0,53,60,0
0,62,60,0
0,36,97,6
0,75,63,0
0,50,76,3
0,57,62,0
0,62,60,0
0,62,76,0
0,62,91,0
0,65,56,0
0,65,60,0
0,36,0,1
0,75,0,0
0,37,78,92
0,42,57,0
0,37,0,4
0,42,0,0
0,62,0,134
0,65,0,0
0,62,0,40
0,62,0,4
0,50,0,4
0,52,60,0
0,61,64,0
0,65,0,4
0,36,103,2
0,49,60,3
0,53,0,0
0,61,76,0
0,61,72,0
0,61,87,0
0,62,0,0
0,64,60,0
0,36,0,1
0,61,0,82
0,64,56,13
0,57,0,31
0,61,0,22
0,64,0,8
0,49,0,4
0,61,0,10
0,52,0,9
0,61,0,0
0,47,40,3
0,57,32,0
0,59,34,0
0,62,48,0
0,64,0,0
0,65,46,0
0,42,58,6
0,47,64,3
0,57,72,0
0,57,64,0
0,59,60,0
0,59,64,0
0,59,95,0
0,62,50,0
0,62,72,0
0,65,50,0
0,42,0,1
0,59,0,86
0,57,72,9
0,37,82,285
0,42,60,0
0,37,0,4
0,42,0,0
0,65,0,98
0,62,0,44
0,57,0,32
0,47,0,10
0,59,0,0
0,52,72,7
0,64,64,0
0,52,50,1
0,57,0,10
0,57,0,12
0,59,0,2
0,62,0,20
0,52,0,94
0,64,0,14
0,47,0,25
0,57,0,0
0,59,0,0
0,62,0,0
0,65,0,0
0,40,56,5
0,61,54,0
0,64,50,0
0,36,98,6
0,42,54,0
0,52,0,1
0,52,90,2
0,57,76,0
0,57,58,0
0,61,72,0
0,61,56,0
0,64,72,0
0,64,72,0
0,36,0,1
0,42,0,0
0,61,72,0
0,61,0,215
0,64,0,20
0,40,0,18
0,61,0,20
0,38,54,5
0,62,48,0
0,66,56,0
0,52,0,6
0,57,0,0
0,57,0,0
0,61,0,0
0,61,0,0
0,64,0,0
0,64,0,0
0,75,66,0
0,50,90,3
0,50,76,0
0,54,68,0
0,54,60,0
0,57,60,0
0,57,52,0
0,61,78,0
0,57,62,1
0,75,0,0
0,61,0,72
0,37,73,20
0,42,60,0
0,66,91,3
0,37,0,1
0,42,0,0
0,66,0,144
0,36,99,44
0,66,95,3
0,36,0,1
0,66,0,60
0,66,87,35
0,42,54,93
0,42,0,4
0,66,0,156
0,64,91,35
0,64,0,69
0,61,83,27
0,37,86,93
0,42,56,0
0,37,0,4
0,42,0,0
0,61,0,188
0,62,76,3
0,54,0,85
0,50,0,4
0,57,0,4
0,54,0,52
0,57,0,12
0,50,0,2
0,57,0,1
0,66,0,2
0,38,0,4
0,62,0,1
0,62,0,3
0,40,56,13
0,66,52,0
0,36,102,6
0,42,58,0
0,38,64,3
0,57,44,0
0,62,52,0
0,64,80,0
0,66,50,0
0,36,0,1
0,42,0,0
0,54,72,95
0,54,76,0
0,54,0,55
0,54,0,16
0,57,80,25
0,57,91,0
0,57,0,87
0,57,0,4
0,36,93,2
0,75,68,0
0,54,60,3
0,54,80,0
0,36,0,1
0,75,0,0
0,66,0,50
0,57,0,4
0,62,0,6
0,54,0,8
0,54,0,4
0,37,74,20
0,38,0,0
0,42,61,0
0,40,68,3
0,57,50,0
0,59,80,0
0,59,82,0
0,62,56,0
0,66,56,0
0,37,0,1
0,42,0,0
0,59,0,162
0,59,0,6
0,36,99,20
0,57,76,3
0,57,83,0
0,36,0,1
0,57,0,160
0,42,55,28
0,57,0,0
0,54,48,3
0,54,80,0
0,42,0,1
0,54,0,52
0,54,0,4
0,57,62,39
0,57,83,0
0,57,0,75
0,57,0,2
0,59,76,19
0,59,70,0
0,59,0,67
0,57,0,4
0,59,0,6
0,66,0,3
0,66,0,9
0,57,76,7
0,57,98,0
0,41,64,87
0,56,54,0
0,59,56,0
0,64,28,0
0,40,0,4
0,62,0,0
0,37,87,2
0,42,57,0
0,41,80,3
0,59,60,0
0,64,72,0
0,37,0,1
