track,note,velocity,time
1,26,72,23106
1,35,72,30
1,37,52,768
1,26,76,0
1,31,72,124
1,33,72,76
1,35,60,6
1,33,37,138
1,32,85,84
1,33,76,52
1,33,68,60
1,26,85,36
1,38,68,0
1,35,72,0
1,35,56,6
1,30,90,98
1,30,64,48
1,31,72,86
1,33,64,40
1,26,81,2
1,35,76,54
1,35,72,266
1,30,81,602
1,30,56,290
1,31,72,618
1,33,72,20
1,28,90,84
1,28,72,96
1,33,72,192
1,30,81,68
1,31,72,0
1,28,81,72
1,28,85,76
1,33,81,18
1,33,76,106
1,38,64,12
1,35,64,1536
1,35,60,82
1,30,56,12
1,30,68,150
1,31,68,192
1,31,72,32
1,33,76,2
1,33,64,36
1,26,107,98
1,26,107,80
1,26,107,66
1,35,107,18
1,35,107,94
1,37,107,192
1,37,107,104
1,38,101,192
1,26,107,10
1,26,107,30
1,31,107,8
1,31,107,80
1,33,107,192
1,35,107,2
1,35,107,16
1,35,107,14
1,31,107,32
1,31,107,64
1,31,107,40
1,33,107,768
1,33,107,94
1,33,107,62
1,33,107,18
1,26,107,384
1,26,107,54
1,26,107,68
1,35,107,14
1,35,107,88
1,37,107,192
1,37,107,52
1,38,101,192
1,26,107,564
1,26,107,56
1,31,107,768
1,31,107,80
1,33,107,4
1,33,107,38
1,35,107,192
1,35,107,36
1,35,107,6
1,33,107,768
1,33,107,78
1,33,107,52
1,32,107,6
1,32,107,90
1,32,107,64
1,33,107,768
1,33,107,78
1,33,107,26
1,33,107,44
1,26,107,384
1,26,107,192
1,26,107,86
1,35,107,480
1,35,107,192
1,35,107,4
1,30,107,768
1,30,107,192
1,30,107,48
1,30,107,134
1,31,107,24
1,31,107,192
1,33,107,6
1,33,107,50
1,26,107,18
1,26,107,192
1,26,107,54
1,38,101,6
1,37,107,12
1,35,107,192
1,35,107,192
1,35,107,44
1,35,107,192
1,30,107,192
1,30,107,192
1,30,107,66
1,30,107,192
1,31,107,30
1,31,107,192
1,33,107,8
1,33,107,46
1,28,107,384
1,40,101,958
1,28,107,6
1,33,107,2
1,33,107,40
1,31,107,768
1,30,107,70
1,28,107,4
1,28,107,192
1,40,101,576
1,28,107,0
1,33,107,192
1,33,107,112
1,33,107,44
1,38,89,36
1,38,100,186
1,38,100,102
1,26,105,0
1,33,105,96
1,38,100,88
1,37,100,20
1,35,100,22
1,35,100,192
1,33,100,92
1,33,102,192
1,30,101,96
1,30,101,192
1,30,101,104
1,28,98,60
1,30,101,0
1,31,101,32
1,31,101,90
1,33,101,48
1,33,101,94
1,30,102,106
1,30,102,96
1,33,98,0
1,30,98,0
1,35,102,0
1,35,102,92
1,28,111,104
1,28,111,192
1,28,111,86
1,37,111,480
1,37,111,192
1,37,111,4
1,32,111,768
1,32,111,192
1,32,111,48
1,32,111,134
1,33,111,24
1,33,111,192
1,35,111,6
1,35,111,50
1,28,111,18
1,28,99,192
1,28,96,54
1,40,89,6
1,39,85,12
1,37,82,192
1,37,72,192
1,37,68,44
1,37,58,192
1,32,55,192
1,32,44,192
1,32,41,66
1,32,31,192
1,33,27,30
1,33,17,192
1,35,13,8
1,35,7,46
2,67,87,1204
2,64,81,6
2,57,73,194
2,62,79,12
2,66,87,0
2,55,73,342
2,59,75,2
2,64,86,0
2,57,64,44
2,54,73,0
2,62,86,0
2,59,87,282
2,62,86,2
2,54,72,10
2,57,72,166
2,64,86,4
2,61,83,4
2,62,87,162
2,66,86,0
2,59,72,8
2,59,72,40
2,66,86,0
2,62,83,2
2,59,72,32
2,66,86,2
2,62,83,0
2,59,71,62
2,62,79,2
2,66,86,0
2,50,71,16
2,54,87,20
2,57,86,8
2,50,71,56
2,55,79,0
2,59,86,4
2,52,71,0
2,57,83,10
2,61,86,14
2,64,83,496
2,67,85,0
2,62,87,200
2,57,70,4
2,66,85,2
2,64,85,4
2,59,63,4
2,55,70,10
2,57,71,26
2,62,85,10
2,54,70,0
2,59,67,282
2,62,85,0
2,54,69,14
2,57,69,166
2,64,85,10
2,61,67,2
2,59,69,0
2,62,83,8
2,66,85,8
2,59,69,4
2,66,85,4
2,62,67,6
2,66,84,40
2,59,69,4
2,62,79,0
2,59,68,58
2,66,84,8
2,62,83,2
2,57,84,0
2,50,68,4
2,54,67,2
2,59,84,160
2,55,75,4
2,52,68,6
2,54,68,116
2,57,83,2
2,61,84,0
2,67,87,25284
2,64,81,6
2,57,73,194
2,62,79,12
2,66,87,0
2,55,73,342
2,59,75,2
2,64,86,0
2,57,64,44
2,54,73,0
2,62,86,0
2,59,87,282
2,62,86,2
2,54,72,10
2,57,72,166
2,64,86,4
2,61,83,4
2,62,87,162
2,66,86,0
2,59,72,8
2,59,72,40
2,66,86,0
2,62,83,2
2,59,72,32
2,66,86,2
2,62,83,0
2,59,71,62
2,62,79,2
2,66,86,0
2,50,71,16
2,54,87,20
2,57,86,8
2,50,71,56
2,55,79,0
2,59,86,4
2,52,71,0
2,57,83,10
2,61,86,14
2,64,83,2034
2,67,85,0
2,62,87,200
2,57,70,4
2,66,85,2
2,64,85,2
2,59,63,4
2,55,70,10
2,57,71,24
2,62,85,10
2,54,70,0
2,59,67,282
2,62,85,0
2,54,69,14
2,57,69,166
2,64,85,10
2,61,67,2
2,59,69,0
2,62,83,8
2,66,85,8
2,59,69,4
2,66,85,4
2,62,67,6
2,66,84,40
2,59,69,4
2,62,79,0
2,59,68,58
2,66,84,8
2,62,83,2
2,57,84,0
2,50,68,4
2,54,67,2
2,59,84,160
2,55,75,4
2,52,68,6
2,54,68,116
2,57,83,2
2,61,84,0
2,66,79,5516
2,54,87,4
2,57,87,0
2,67,87,190
2,55,87,2
2,59,87,0
2,66,83,140
2,54,87,6
2,57,87,0
2,62,83,4
2,50,87,14
2,54,87,0
2,66,83,24
2,57,87,2
2,62,87,0
2,67,79,334
2,59,88,10
2,64,88,0
2,69,83,160
2,62,88,2
2,66,88,0
2,69,96,26
2,62,88,4
2,66,88,0
2,69,71,40
2,62,88,12
2,66,88,0
2,71,87,184
2,64,89,0
2,67,89,0
2,67,83,2
2,61,89,6
2,64,89,0
2,71,83,17782
2,69,67,198
2,71,83,364
2,74,83,162
2,74,75,72
2,76,83,404
2,73,71,356
2,71,67,544
2,69,75,200
2,74,71,434
2,76,83,168
2,78,83,176
2,78,75,70
2,79,79,374
2,78,63,360
2,76,71,580
2,78,63,162
2,78,83,470
2,79,87,206
2,81,71,6
2,81,83,68
2,79,71,380
2,78,79,174
2,78,71,46
2,83,92,544
2,81,71,206
2,79,71,154
2,78,75,174
2,76,83,376
2,74,63,2
2,76,75,168
2,67,87,1038
2,64,81,6
2,57,73,194
2,62,79,12
2,66,87,0
2,55,73,342
2,59,75,2
2,64,86,0
2,57,64,44
2,54,73,0
2,62,86,0
2,59,87,282
2,62,86,2
2,54,72,10
2,57,72,166
2,64,86,4
2,61,83,4
2,62,87,162
2,66,86,0
2,59,72,8
2,59,72,40
2,66,86,0
2,62,83,2
2,59,72,32
2,66,86,2
2,62,83,0
2,59,71,62
2,62,79,2
2,66,86,0
2,50,71,16
2,54,87,20
2,57,86,8
2,50,71,56
2,55,79,0
2,59,86,4
2,52,71,0
2,57,83,10
2,61,86,14
2,64,83,2034
2,67,85,0
2,62,87,200
2,57,70,4
2,66,85,2
2,64,85,2
2,59,63,4
2,55,70,10
2,57,71,24
2,62,85,10
2,54,70,0
2,59,67,282
2,62,85,0
2,54,69,14
2,57,69,166
2,64,85,10
2,61,67,2
2,59,69,0
2,62,83,8
2,66,85,8
2,59,69,4
2,66,85,4
2,62,67,6
2,66,84,40
2,59,69,4
2,62,79,0
2,59,68,58
2,66,84,8
2,62,83,2
2,57,84,0
2,50,68,4
2,54,67,2
2,59,84,160
2,55,75,4
2,52,68,6
2,54,68,116
2,57,83,2
2,61,84,0
2,66,79,5516
2,54,87,4
2,57,87,0
2,67,87,190
2,55,87,2
2,59,87,0
2,66,83,140
2,54,87,6
2,57,87,0
2,62,83,4
2,50,87,14
2,54,87,0
2,66,83,24
2,57,87,2
2,62,87,0
2,67,79,334
2,59,88,10
2,64,88,0
2,69,83,160
2,62,88,2
2,66,88,0
2,69,96,26
2,62,88,4
2,66,88,0
2,69,71,40
2,62,88,12
2,66,88,0
2,71,87,184
2,64,89,0
2,67,89,0
2,67,83,2
2,61,89,6
2,64,89,0
2,69,87,7790
2,66,81,6
2,59,73,194
2,64,79,12
2,68,87,0
2,57,73,342
2,61,75,2
2,66,86,0
2,59,64,44
2,56,73,0
2,64,86,0
2,61,87,282
2,64,86,2
2,56,72,10
2,59,72,166
2,66,86,4
2,63,83,4
2,64,87,162
2,68,86,0
2,61,72,8
2,61,72,40
2,68,86,0
2,64,83,2
2,61,72,32
2,68,86,2
2,64,83,0
2,61,71,62
2,64,79,2
2,68,86,0
2,52,71,16
2,56,87,20
2,59,86,8
2,52,71,56
2,57,79,0
2,61,86,4
2,54,71,0
2,59,83,10
2,63,86,14
2,66,83,2034
2,69,85,0
2,64,87,200
2,59,72,4
2,68,85,2
2,66,76,2
2,61,80,4
2,57,58,10
2,59,79,24
2,64,75,10
2,56,57,0
2,61,70,282
2,64,66,0
2,56,50,14
2,59,48,166
2,66,64,10
2,63,68,2
2,61,46,0
2,64,65,8
2,68,61,8
2,61,43,4
2,68,57,4
2,64,61,6
2,68,55,40
2,61,41,4
2,64,58,0
2,61,39,58
2,68,52,8
2,64,56,2
2,59,47,0
2,52,35,4
2,56,51,2
2,61,45,160
2,57,49,4
2,54,33,6
2,56,32,116
2,59,46,2
2,63,42,0
3,64,84,1202
3,62,82,220
3,59,78,344
3,57,67,0
3,59,90,242
3,61,86,180
3,62,90,160
3,62,86,0
3,62,86,0
3,62,82,0
3,54,90,16
3,55,82,184
3,57,86,210
3,64,86,482
3,62,90,206
3,59,66,338
3,57,74,92
3,59,70,330
3,61,70,190
3,62,86,166
3,62,70,0
3,62,82,0
3,62,86,0
3,54,70,382
3,55,78,178
3,57,86,186
3,54,82,2990
3,55,90,190
3,57,95,170
3,57,90,34
3,59,86,380
3,57,70,392
3,55,74,564
3,54,86,176
3,54,82,176
3,55,90,182
3,57,95,166
3,57,95,36
3,64,95,4
3,61,82,364
3,57,82,574
3,59,86,178
3,57,74,316
3,54,70,84
3,54,66,124
3,55,82,180
3,57,90,152
3,57,86,38
3,59,82,368
3,50,82,354
3,54,63,582
3,52,82,178
3,59,90,50
3,57,90,214
3,55,54,0
3,54,46,0
3,54,74,226
3,55,78,172
3,57,74,150
3,57,86,40
3,59,78,380
3,57,78,374
3,55,78,576
3,54,78,170
3,54,74,108
3,55,74,198
3,57,82,174
3,57,78,44
3,64,82,398
3,61,84,362
3,57,79,568
3,59,84,164
3,57,63,350
3,54,45,0
3,62,87,230
3,64,90,176
3,66,92,170
3,66,90,36
3,64,70,378
3,62,74,156
3,62,86,34
3,66,82,242
3,64,84,184
3,62,87,140
3,62,86,46
3,64,79,382
3,66,74,0
3,64,78,188
3,57,74,82
3,64,86,60
3,62,82,16
3,59,78,356
3,57,67,0
3,59,90,242
3,61,86,180
3,62,90,160
3,62,86,0
3,62,86,0
3,62,82,0
3,54,90,16
3,55,82,184
3,57,86,210
3,59,70,282
3,61,70,198
3,57,74,4
3,64,86,1152
3,62,90,206
3,59,66,336
3,57,74,90
3,59,70,330
3,61,70,190
3,62,86,166
3,62,70,0
3,62,82,0
3,62,86,0
3,54,70,382
3,55,78,178
3,57,86,186
3,59,78,136
3,61,78,2
3,57,74,192
3,54,90,880
3,55,86,196
3,54,82,186
3,52,90,6
3,62,99,198
3,54,78,266
3,55,70,192
3,54,70,164
3,52,86,2
3,64,86,8
3,54,90,348
3,55,78,4
3,54,86,188
3,50,74,178
3,61,70,40
3,62,82,6
3,64,82,384
3,66,78,152
3,66,82,36
3,66,86,60
3,67,90,196
3,64,86,174
3,57,48,20
3,64,82,80
3,54,82,7012
3,55,90,190
3,57,95,170
3,57,90,34
3,59,86,380
3,57,70,392
3,55,74,564
3,54,86,176
3,54,82,176
3,55,90,182
3,57,95,166
3,57,95,36
3,64,95,4
3,61,82,364
3,57,82,574
3,59,86,178
3,57,74,316
3,54,70,84
3,54,66,124
3,55,82,180
3,57,90,152
3,57,86,38
3,59,82,368
3,50,82,354
3,54,63,582
3,52,82,178
3,59,90,50
3,57,90,214
3,55,54,0
3,54,46,0
3,54,74,226
3,55,78,172
3,57,74,150
3,57,86,40
3,59,78,380
3,57,78,374
3,55,78,576
3,54,78,170
3,54,74,108
3,55,74,198
3,57,82,174
3,57,78,44
3,64,82,398
3,61,84,362
3,57,79,568
3,59,84,164
3,57,63,350
3,54,45,0
3,62,87,230
3,64,90,176
3,66,92,170
3,66,90,36
3,64,70,378
3,62,74,156
3,62,86,34
3,66,82,242
3,64,84,184
3,62,87,140
3,62,86,46
3,64,79,382
3,66,74,0
3,64,78,188
3,57,74,82
3,64,86,60
3,62,82,16
3,59,78,356
3,57,67,0
3,59,90,242
3,61,86,180
3,62,90,160
3,62,86,0
3,62,86,0
3,62,82,0
3,54,90,16
3,55,82,184
3,57,86,210
3,59,78,276
3,61,70,196
3,57,82,0
3,64,86,462
3,62,90,206
3,59,66,336
3,57,74,90
3,59,70,330
3,61,70,190
3,62,86,166
3,62,70,0
3,62,82,0
3,62,86,0
3,54,70,382
3,55,78,178
3,57,86,186
3,59,86,108
3,61,86,194
3,57,86,0
3,54,86,916
3,55,86,208
3,54,82,40
3,52,90,6
3,62,99,198
3,54,78,266
3,55,70,192
3,54,70,164
3,52,86,2
3,64,86,8
3,54,90,348
3,55,78,4
3,54,86,188
3,50,74,178
3,61,70,40
3,62,82,6
3,64,82,384
3,66,78,152
3,66,82,36
3,66,86,60
3,67,90,196
3,64,86,174
3,57,48,20
3,64,82,80
3,59,74,7198
3,66,86,60
3,61,78,372
3,59,67,0
3,61,90,242
3,63,86,180
3,64,90,160
3,64,86,0
3,64,86,0
3,64,82,0
3,56,90,16
3,57,82,184
3,59,86,210
3,61,78,276
3,63,70,196
3,59,82,0
3,66,86,462
3,64,90,206
3,61,83,336
3,59,82,90
3,61,73,330
3,63,70,190
3,64,67,166
3,64,62,0
3,64,60,0
3,64,57,0
3,56,52,382
3,57,49,178
3,59,47,186
3,61,27,108
3,63,25,194
3,59,23,0
4,50,67,1600
4,74,83,2
4,62,54,6
4,71,71,1510
4,47,71,4
4,59,48,6
4,45,71,6
4,69,71,2
4,57,42,4
4,50,75,1506
4,62,54,0
4,74,79,2
4,47,71,1490
4,71,79,14
4,59,45,2
4,66,75,238
4,54,71,20
4,42,31,28
4,57,31,2
4,45,79,2
4,69,75,6
4,50,93,41550
4,57,93,0
4,62,97,0
4,66,93,0
4,47,97,1508
4,74,100,760
4,76,98,194
4,78,98,152
4,83,98,150
4,61,81,28
4,42,97,0
4,57,89,0
4,64,102,0
4,81,75,8
4,43,106,86
4,59,102,0
4,62,97,0
4,55,97,10
4,45,97,14
4,62,97,4
4,57,81,4
4,64,97,0
4,61,81,330
4,50,71,10752
4,54,87,0
4,55,83,2
4,47,67,6
4,49,87,762
4,59,77,0
4,50,63,736
4,57,76,4
4,50,67,14
4,59,87,2
4,55,83,2
4,52,71,746
4,57,83,10
4,61,79,2
4,54,71,720
4,59,75,2
4,62,75,0
4,56,71,52
4,55,87,16
4,59,83,2
4,64,80,730
4,57,85,8
4,50,67,116
4,57,75,0
4,66,71,0
4,47,83,1526
4,61,83,60
4,64,83,4
4,42,75,4
4,43,83,6
4,59,79,2
4,62,79,0
4,55,57,6
4,45,87,18
4,57,71,0
4,62,83,0
4,64,75,0
4,61,60,384
4,50,75,58
4,62,75,2
4,66,79,0
4,47,79,40
4,57,71,2
4,61,67,12
4,57,71,2
4,64,87,0
4,42,75,2
4,43,79,46
4,59,71,4
4,62,71,0
4,55,67,2
4,64,75,2
4,45,75,2
4,57,71,0
4,61,71,0
4,55,63,6
4,59,67,0
4,62,75,0
4,40,71,6
4,45,83,14
4,57,67,4
4,61,67,0
4,64,71,2
