track,note,velocity,time
0,59,99,1854
0,67,101,2
0,76,104,8
0,57,105,82
0,66,104,4
0,74,113,4
0,38,99,156
0,50,99,0
0,74,60,18
0,62,98,6
0,62,92,14
0,69,80,0
0,74,87,0
0,78,78,0
0,55,91,142
0,64,101,0
0,71,107,12
0,54,84,72
0,62,94,0
0,69,100,2
0,44,64,102
0,69,71,6
0,81,99,182
0,69,62,50
0,54,98,122
0,62,108,0
0,71,114,12
0,74,73,6
0,57,96,78
0,64,106,0
0,73,112,12
0,44,66,2
0,78,90,10
0,59,102,42
0,66,112,0
0,74,118,12
0,35,99,4
0,47,99,0
0,71,61,2
0,59,93,2
0,59,79,18
0,71,78,0
0,74,81,0
0,78,76,0
0,59,93,42
0,66,103,0
0,74,109,4
0,59,95,46
0,66,105,0
0,74,111,12
0,44,64,6
0,71,76,10
0,59,93,80
0,66,103,0
0,74,109,12
0,81,90,20
0,71,80,134
0,59,94,54
0,62,104,0
0,66,110,12
0,74,84,26
0,59,92,58
0,62,102,0
0,71,108,12
0,44,63,16
0,78,80,10
0,54,96,74
0,64,106,0
0,69,112,12
0,30,99,4
0,42,99,0
0,69,60,2
0,54,89,2
0,54,76,18
0,69,79,0
0,73,80,0
0,78,78,0
0,33,99,4
0,45,99,0
0,57,89,2
0,69,80,0
0,71,103,0
0,74,72,0
0,44,58,44
0,69,74,10
0,57,83,4
0,76,95,0
0,69,55,66
0,69,111,54
0,73,74,14
0,67,105,84
0,59,105,2
0,76,113,12
0,44,57,0
0,81,99,10
0,66,100,14
0,57,105,4
0,74,115,12
0,38,99,4
0,50,99,0
0,62,76,20
0,69,76,0
0,74,72,0
0,78,73,0
0,62,76,18
0,69,81,0
0,74,84,0
0,78,78,0
0,71,104,6
0,55,91,10
0,64,101,0
0,69,106,2
0,54,84,30
0,62,94,0
0,44,64,24
0,69,75,6
0,78,90,166
0,71,112,260
0,54,98,4
0,62,108,0
0,69,81,18
0,57,96,86
0,64,106,0
0,73,109,8
0,44,59,6
0,74,81,10
0,59,102,86
0,66,112,0
0,74,110,8
0,76,80,6
0,35,99,4
0,47,99,0
0,59,77,2
0,71,72,0
0,59,79,0
0,71,84,0
0,74,83,0
0,78,79,0
0,59,93,22
0,66,103,0
0,74,109,6
0,59,95,62
0,66,105,0
0,81,85,10
0,44,57,8
0,74,108,0
0,71,76,10
0,59,93,90
0,66,103,0
0,74,105,20
0,83,99,10
0,71,74,36
0,59,94,14
0,62,104,0
0,66,110,2
0,74,83,22
0,59,92,70
0,62,102,0
0,44,57,2
0,67,108,0
0,78,78,10
0,54,96,82
0,64,106,0
0,69,107,2
0,30,99,4
0,42,99,0
0,54,78,2
0,69,76,0
0,76,76,0
0,54,71,18
0,69,75,0
0,73,81,0
0,78,78,0
0,44,53,114
0,69,83,10
0,76,92,26
0,74,76,18
0,81,95,210
0,44,62,30
0,57,107,8
0,62,113,0
0,64,102,0
0,69,68,38
0,76,90,26
0,33,99,4
0,45,99,0
0,57,80,2
0,57,81,18
0,74,83,0
0,44,58,24
0,69,76,6
0,81,99,2
0,64,64,24
0,74,79,6
0,44,57,26
0,38,72,10
0,50,76,0
0,69,73,0
0,74,79,0
0,78,70,0
0,50,99,18
0,62,100,80
0,69,99,0
0,44,62,182
0,74,97,10
0,76,106,182
0,66,114,146
0,50,97,4
0,67,104,2
0,76,99,22
0,69,102,2
0,44,61,2
0,78,97,10
0,69,115,10
0,62,92,6
0,59,101,6
0,67,97,0
0,69,101,0
0,74,99,0
0,71,111,2
0,67,97,12
0,44,59,134
0,69,92,10
0,69,102,2
0,74,95,16
0,61,99,8
0,69,94,0
0,73,94,0
0,76,101,0
0,70,49,36
0,69,94,6
0,66,102,2
0,44,58,8
0,76,99,10
0,66,115,32
0,78,91,22
0,50,103,18
0,62,99,56
0,66,97,0
0,44,61,10
0,69,95,10
0,74,95,16
0,50,102,54
0,66,114,0
0,67,119,6
0,70,49,2
0,76,99,6
0,69,116,2
0,44,61,2
0,70,58,4
0,78,97,6
0,69,121,42
0,62,93,4
0,55,99,4
0,67,94,0
0,69,98,0
0,74,97,0
0,76,115,2
0,82,38,4
0,67,97,8
0,44,58,162
0,74,102,10
0,73,119,2
0,55,94,14
0,67,94,0
0,57,92,86
0,64,95,0
0,69,95,0
0,73,92,0
0,70,52,28
0,64,96,6
0,44,64,168
0,76,101,10
0,69,119,2
0,57,94,108
0,71,102,2
0,82,28,12
0,59,97,8
0,71,94,0
0,74,99,0
0,78,88,0
0,82,45,30
0,71,88,8
0,44,57,76
0,74,97,10
0,66,90,30
0,74,97,84
0,66,115,2
0,67,106,2
0,70,37,2
0,76,94,6
0,44,57,34
0,69,106,2
0,70,49,0
0,78,92,6
0,69,88,24
0,59,87,14
0,55,97,20
0,69,91,0
0,71,94,0
0,74,99,0
0,78,90,0
0,62,94,114
0,71,124,8
0,44,56,10
0,74,104,10
0,62,106,2
0,62,97,14
0,71,99,0
0,74,104,42
0,70,42,106
0,55,91,6
0,44,58,124
0,78,87,10
0,66,106,2
0,55,90,92
0,64,94,2
0,82,37,16
0,57,93,6
0,64,92,0
0,69,97,0
0,76,97,0
0,82,26,52
0,64,99,8
0,44,60,124
0,69,105,10
0,74,102,14
0,57,81,54
0,73,91,0
0,70,39,148
0,71,106,164
0,44,54,4
0,70,39,4
0,69,105,2
0,82,24,10
0,54,83,102
0,57,83,0
0,62,83,0
0,81,48,32
0,38,100,6
0,50,97,4
0,74,108,0
0,67,108,2
0,62,86,26
0,69,91,0
0,66,100,2
0,44,52,68
0,66,85,10
0,69,87,14
0,74,102,192
0,66,106,162
0,70,49,16
0,76,106,6
0,67,111,6
0,44,55,12
0,85,74,0
0,78,103,10
0,69,119,4
0,74,100,16
0,55,83,0
0,57,83,0
0,62,83,0
0,35,100,6
0,55,89,4
0,69,99,0
0,71,99,0
0,74,99,0
0,71,113,2
0,62,99,4
0,44,58,14
0,71,92,10
0,69,119,2
0,69,91,8
0,57,83,4
0,59,83,0
0,64,83,0
0,37,100,2
0,57,91,4
0,71,102,0
0,73,97,0
0,76,108,0
0,70,49,88
0,64,90,6
0,66,111,4
0,44,59,6
0,85,68,0
0,70,58,4
0,81,102,6
0,69,91,2
0,74,99,0
0,78,94,0
0,66,90,4
0,54,83,4
0,57,83,0
0,62,83,0
0,81,46,32
0,38,100,2
0,62,91,4
0,82,38,58
0,50,102,8
0,44,58,32
0,66,90,10
0,69,97,24
0,66,115,24
0,50,102,6
0,74,105,0
0,67,106,2
0,70,52,4
0,76,102,6
0,69,111,2
0,44,57,2
0,85,71,0
0,78,83,6
0,62,87,30
0,69,106,2
0,55,83,4
0,59,83,0
0,62,83,0
0,82,28,2
0,31,100,4
0,55,97,4
0,67,87,0
0,69,94,0
0,71,90,0
0,74,97,0
0,82,45,52
0,76,111,2
0,67,90,2
0,44,52,156
0,74,108,10
0,73,115,2
0,55,90,2
0,57,83,4
0,61,83,0
0,64,83,0
0,33,100,2
0,57,86,4
0,64,90,0
0,69,91,0
0,71,97,0
0,73,91,0
0,70,37,40
0,64,97,6
0,44,56,10
0,85,71,0
0,70,49,4
0,76,108,6
0,69,115,2
0,71,108,2
0,57,82,12
0,59,83,0
0,62,83,0
0,66,83,0
0,81,48,18
0,35,100,2
0,59,87,2
0,66,85,0
0,71,99,0
0,74,97,0
0,59,86,44
0,44,57,8
0,66,97,2
0,71,90,50
0,74,102,16
0,74,119,6
0,70,42,18
0,76,111,0
0,59,94,6
0,66,94,0
0,44,48,10
0,78,115,0
0,85,80,0
0,78,88,10
0,78,115,54
0,59,81,8
0,57,83,4
0,82,37,12
0,33,100,4
0,57,99,4
0,69,97,0
0,74,95,0
0,78,83,0
0,82,26,126
0,66,78,8
0,74,106,108
0,44,55,2
0,69,88,10
0,74,102,62
0,74,94,4
0,78,101,68
0,70,39,122
0,57,86,6
0,44,52,8
0,85,76,0
0,70,39,4
0,74,99,6
0,82,24,160
0,78,97,8
0,56,83,4
0,59,83,0
0,32,100,2
0,56,94,4
0,78,104,0
0,78,119,0
0,64,99,0
0,76,102,2
0,44,53,2
0,74,111,0
0,66,85,10
0,71,97,0
0,74,106,42
0,74,102,2
0,70,49,62
0,76,111,2
0,56,87,2
0,44,53,66
0,85,73,0
0,78,111,2
0,78,87,2
0,66,80,2
0,76,102,0
0,55,83,4
0,59,83,0
0,62,83,0
0,64,83,0
0,33,100,0
0,57,90,4
0,67,92,0
0,69,95,0
0,71,101,0
0,74,98,0
0,70,36,110
0,44,54,168
0,57,83,4
0,61,83,0
0,88,95,0
0,45,100,2
0,57,90,4
0,64,90,0
0,69,101,0
0,73,90,0
0,86,66,22
0,85,74,14
0,83,74,8
0,81,95,6
0,79,91,2
0,78,87,4
0,76,78,2
0,74,78,2
0,73,82,2
0,69,114,2
0,71,78,0
0,69,78,2
0,67,70,2
0,66,70,2
0,64,74,4
0,62,78,4
0,61,82,2
0,59,74,0
0,57,74,4
0,55,78,4
0,54,95,4
0,59,99,6
0,67,101,0
0,52,91,8
0,76,109,6
0,44,63,2
0,54,78,50
0,55,87,10
0,57,95,6
0,59,95,4
0,61,95,4
0,62,100,4
0,57,105,2
0,66,104,2
0,64,95,6
0,74,111,2
0,46,44,6
0,66,95,4
0,67,100,6
0,69,95,4
0,71,100,4
0,73,95,4
0,74,95,8
0,76,91,6
0,78,95,6
0,57,95,4
0,62,95,0
0,66,95,0
0,79,95,4
0,81,87,2
0,49,53,2
0,38,102,0
0,62,85,2
0,62,92,2
0,69,92,0
0,74,95,0
0,78,85,0
0,55,91,38
0,64,101,0
0,71,107,2
0,57,80,18
0,69,84,2
0,54,84,16
0,62,94,0
0,69,100,2
0,44,64,102
0,70,50,0
0,64,85,4
0,74,85,2
0,70,44,136
0,62,93,4
0,78,92,2
0,70,37,144
0,54,98,160
0,62,108,0
0,82,42,10
0,70,30,2
0,71,114,0
0,74,83,6
0,57,96,56
0,64,106,0
0,73,112,4
0,44,66,2
0,85,76,0
0,70,24,4
0,69,80,6
0,59,102,76
0,66,112,0
0,74,118,12
0,37,100,2
0,71,90,4
0,74,90,0
0,59,95,4
0,35,100,2
0,62,80,2
0,59,95,2
0,59,93,42
0,66,103,0
0,57,68,0
0,69,95,0
0,74,109,2
0,59,95,70
0,66,105,0
0,74,111,12
0,44,64,6
0,70,50,4
0,64,89,4
0,71,87,2
0,59,93,80
0,66,103,0
0,74,109,12
0,70,44,14
0,62,72,4
0,74,92,2
0,70,37,34
0,59,94,50
0,62,104,0
0,66,110,12
0,70,30,20
0,69,84,6
0,59,92,58
0,62,102,0
0,67,108,12
0,44,63,16
0,85,80,0
0,70,24,4
0,78,80,6
0,54,96,72
0,64,106,0
0,69,112,12
0,59,81,18
0,54,95,4
0,57,95,0
0,59,95,0
0,64,95,0
0,30,100,2
0,57,89,2
0,54,97,2
0,64,91,0
0,69,92,0
0,73,88,0
0,70,36,6
0,52,76,4
0,64,85,0
0,44,58,118
0,82,44,2
0,70,50,2
0,59,76,4
0,69,88,2
0,70,44,128
0,57,77,4
0,73,87,2
0,70,37,120
0,76,97,6
0,71,115,22
0,82,35,4
0,70,30,2
0,64,82,6
0,71,115,92
0,44,57,6
0,85,89,0
0,70,24,4
0,73,87,6
0,69,115,0
0,30,100,12
0,69,86,4
0,55,95,4
0,62,95,0
0,70,39,0
0,31,103,0
0,59,85,0
0,55,85,0
0,67,85,0
0,69,92,0
0,71,90,0
0,74,85,0
0,71,102,2
0,70,36,10
0,55,62,4
0,67,85,2
0,44,64,30
0,70,48,4
0,62,72,4
0,69,95,2
0,70,42,54
0,31,100,2
0,57,72,2
0,71,85,0
0,57,95,4
0,59,95,0
0,61,95,0
0,64,95,0
0,70,37,0
0,33,103,2
0,62,76,2
0,57,78,2
0,64,81,0
0,69,82,0
0,73,82,0
0,76,85,0
0,82,42,52
0,70,30,2
0,61,76,4
0,64,92,2
0,67,105,26
0,59,105,2
0,44,59,18
0,85,89,0
0,70,24,4
0,59,68,4
0,76,111,0
0,69,85,2
0,66,100,16
0,57,105,4
0,33,100,24
0,57,76,2
0,74,113,0
0,73,86,2
0,57,95,2
0,62,95,0
0,66,95,0
0,70,39,0
0,26,102,2
0,62,85,2
0,62,95,2
0,69,90,0
0,74,98,0
0,78,84,0
0,55,91,54
0,64,101,0
0,71,107,12
0,70,36,20
0,57,80,4
0,54,84,16
0,62,94,0
0,69,100,2
0,44,57,102
0,70,48,0
0,64,85,4
0,69,80,2
0,70,42,136
0,62,93,4
0,81,98,2
0,70,37,136
0,69,83,6
0,54,98,6
0,62,108,0
0,70,30,12
0,71,114,0
0,38,100,2
0,74,92,4
0,57,96,78
0,64,106,0
0,73,112,12
0,44,57,2
0,85,89,0
0,70,24,0
0,37,100,2
0,76,92,4
0,59,102,28
0,66,112,0
0,74,118,12
0,78,98,14
0,59,95,4
0,70,39,0
0,35,100,2
0,62,80,2
0,59,85,2
0,74,87,0
0,59,93,42
0,66,103,0
0,82,45,2
0,70,36,2
0,57,68,4
0,71,71,2
0,74,109,2
0,59,95,70
0,66,105,0
0,74,111,12
0,44,53,6
0,70,48,4
0,64,89,4
0,74,80,2
0,59,93,80
0,66,103,0
0,74,109,12
0,70,42,14
0,62,72,4
0,78,78,2
0,70,37,150
0,71,79,6
0,59,94,54
0,62,104,0
0,66,110,2
0,70,30,20
0,74,85,6
0,59,92,58
0,62,102,0
0,67,108,12
0,44,62,16
0,85,88,0
0,70,24,4
0,78,95,6
0,54,96,74
0,64,106,0
0,69,112,12
0,82,32,10
0,28,100,2
0,69,90,4
0,54,95,4
0,57,95,0
0,59,95,0
0,64,95,0
0,82,39,0
0,70,39,0
0,30,100,2
0,57,89,2
0,54,82,2
0,73,82,0
0,76,92,0
0,70,36,6
0,52,76,4
0,69,78,0
0,44,58,84
0,70,48,4
0,59,76,4
0,73,77,2
0,70,42,6
0,57,77,4
0,70,37,68
0,69,78,6
0,71,119,100
0,70,30,6
0,73,78,6
0,81,104,0
0,73,115,2
0,44,57,10
0,85,89,0
0,70,24,4
0,76,80,6
0,28,100,12
0,61,80,4
0,30,100,2
0,55,95,4
0,62,95,0
0,70,39,0
0,31,100,2
0,59,85,2
0,55,81,2
0,67,82,0
0,69,84,0
0,71,87,0
0,74,82,0
0,69,103,2
0,70,36,54
0,55,62,4
0,67,81,2
0,44,62,122
0,70,48,4
0,62,72,4
0,69,81,2
0,82,43,54
0,70,42,2
0,57,72,4
0,71,80,2
0,57,95,4
0,59,95,0
0,61,95,0
0,64,95,0
0,70,37,0
0,33,100,2
0,62,76,2
0,57,85,2
0,69,87,0
0,73,85,0
0,76,90,0
0,70,30,136
0,61,76,4
0,64,85,2
0,44,61,136
0,85,88,0
0,70,24,4
0,61,68,4
0,69,83,2
0,66,111,136
0,82,32,0
0,61,55,6
0,73,77,2
0,55,83,0
0,59,83,0
0,62,83,0
0,70,39,0
0,28,100,2
0,52,92,4
0,67,90,0
0,71,95,0
0,74,99,0
0,67,110,2
0,70,36,0
0,66,109,2
0,64,109,2
0,44,59,2
0,70,48,4
0,74,113,2
0,70,42,12
0,79,99,6
0,70,37,58
0,70,30,62
0,67,89,6
0,44,58,124
0,85,88,0
0,70,24,4
0,74,96,6
0,66,108,50
0,28,100,6
0,52,83,4
0,57,83,4
0,64,83,0
0,67,106,2
0,70,39,0
0,33,102,2
0,57,87,4
0,67,87,0
0,71,88,0
0,74,91,0
0,76,94,0
0,66,119,2
0,70,36,6
0,64,106,4
0,44,61,4
0,70,48,4
0,57,91,6
0,76,115,2
0,70,42,10
0,71,94,6
0,70,37,42
0,74,80,4
0,74,88,2
0,82,30,12
0,70,30,2
0,31,100,2
0,73,77,2
0,73,88,2
0,44,61,164
0,85,88,0
0,82,42,2
0,70,24,0
0,30,100,2
0,54,109,16
0,57,82,0
0,61,96,0
0,66,118,0
0,66,115,12
0,55,83,4
0,59,83,0
0,62,83,0
0,55,109,0
0,59,82,2
0,62,88,0
