track,note,velocity,time
1,32,117,8816
1,32,117,284
1,32,117,188
1,32,117,208
1,32,117,188
1,28,117,188
1,28,117,284
1,28,117,188
1,28,117,208
1,28,117,188
1,30,117,188
1,30,117,284
1,30,117,188
1,30,117,208
1,30,117,188
1,32,117,188
1,32,117,284
1,32,117,188
1,32,117,208
1,30,117,284
1,32,117,92
1,32,117,284
1,32,117,188
1,32,117,208
1,32,117,188
1,28,117,188
1,28,117,284
1,28,117,188
1,28,117,208
1,28,117,188
1,30,117,188
1,30,117,284
1,30,117,188
1,30,117,208
1,30,117,188
1,32,117,188
1,32,117,284
1,32,117,188
1,32,117,208
1,30,117,284
1,32,117,92
1,32,117,284
1,32,117,188
1,32,117,208
1,32,117,188
1,28,117,188
1,28,117,284
1,28,117,188
1,28,117,208
1,28,117,188
1,30,117,188
1,30,117,284
1,30,117,188
1,30,117,208
1,30,117,188
1,32,117,188
1,32,117,284
1,32,117,188
1,32,117,208
1,30,117,284
1,32,117,92
1,32,117,284
1,32,117,188
1,32,117,208
1,32,117,188
1,28,117,188
1,28,117,284
1,28,117,188
1,28,117,208
1,28,117,188
1,30,117,188
1,30,117,284
1,30,117,188
1,30,117,208
1,30,117,188
1,32,117,188
1,32,117,284
1,32,117,188
1,32,117,208
1,30,117,284
1,32,117,92
1,32,117,284
1,32,117,188
1,32,117,208
1,32,117,188
1,28,117,188
1,28,117,284
1,28,117,188
1,28,117,208
1,28,117,188
1,30,117,188
1,30,117,284
1,30,117,188
1,30,117,208
1,30,117,188
1,32,117,188
1,32,117,284
1,32,117,188
1,32,117,208
1,30,117,284
1,32,117,92
1,32,117,284
1,32,117,188
1,32,117,208
1,32,117,188
1,28,117,188
1,28,117,284
1,28,117,188
1,28,117,208
1,28,117,188
1,30,117,188
1,30,117,284
1,30,117,188
1,30,117,208
1,30,117,188
1,32,117,188
1,32,117,284
1,32,117,188
1,32,117,208
1,30,117,284
1,32,117,92
1,32,117,284
1,32,117,188
1,32,117,208
1,32,117,188
1,28,117,188
1,28,117,284
1,28,117,188
1,28,117,208
1,28,117,188
1,30,117,188
1,30,117,284
1,30,117,188
1,30,117,208
1,30,117,188
1,32,117,188
1,32,117,284
1,32,117,188
1,32,117,208
1,32,117,284
1,32,117,92
1,32,117,284
1,32,117,188
1,32,117,208
1,32,117,188
1,32,117,188
1,32,117,284
1,32,117,188
1,32,117,208
1,32,117,188
1,32,117,188
1,32,117,284
1,32,117,188
1,32,117,208
1,32,117,188
1,32,117,188
1,32,117,284
1,32,117,188
1,32,117,208
1,32,117,188
1,32,117,188
1,32,117,284
1,32,117,188
1,32,117,208
1,32,117,188
1,32,117,188
1,32,117,284
1,32,117,188
1,32,117,208
1,32,117,188
1,32,117,188
1,32,117,284
1,32,117,188
1,32,117,208
1,32,117,188
1,32,117,188
1,32,117,284
1,32,117,188
1,32,117,208
1,32,117,188
1,32,117,188
1,32,117,284
1,32,117,188
1,32,117,208
1,32,117,188
1,32,117,188
1,32,117,284
1,32,117,188
1,32,117,208
1,32,117,188
1,32,117,188
1,32,117,284
1,32,117,188
1,32,117,208
1,32,117,188
1,32,117,188
1,32,117,284
1,32,117,188
1,32,117,208
1,32,117,188
1,32,117,188
1,32,117,284
1,32,117,188
1,32,117,208
1,32,117,188
1,32,117,188
1,32,117,284
1,32,117,188
1,32,117,208
1,32,117,188
1,32,117,188
1,32,117,284
1,32,117,188
1,32,117,208
1,32,117,188
1,32,117,188
1,32,117,284
1,32,117,188
1,32,117,208
1,32,117,188
1,32,117,188
1,32,117,284
1,32,117,188
1,32,117,208
1,32,117,188
1,32,117,188
1,32,117,284
1,32,117,188
1,32,117,208
1,32,117,188
1,28,117,188
1,28,117,284
1,28,117,188
1,28,117,208
1,28,117,188
1,30,117,188
1,30,117,284
1,30,117,188
1,30,117,208
1,30,117,188
1,32,117,188
1,32,117,284
1,32,117,188
1,32,117,208
1,32,117,284
1,32,117,92
1,32,117,284
1,32,117,188
1,32,117,208
1,32,117,188
1,28,117,188
1,28,117,284
1,28,117,188
1,28,117,208
1,28,117,188
1,30,117,188
1,30,117,284
1,30,117,188
1,30,117,208
1,30,117,188
1,32,117,188
1,32,117,284
1,32,117,188
1,32,117,208
1,32,117,284
1,32,117,92
1,32,117,284
1,32,117,188
1,32,117,208
1,32,117,188
1,28,117,188
1,28,117,284
1,28,117,188
1,28,117,208
1,28,117,188
1,30,117,188
1,30,117,284
1,30,117,188
1,30,117,208
1,30,117,188
1,32,117,188
1,32,117,284
1,32,117,188
1,32,117,208
1,32,117,284
1,32,117,92
1,32,117,284
1,32,117,188
1,32,117,208
1,32,117,188
1,28,117,188
1,28,117,284
1,28,117,188
1,28,117,208
1,28,117,188
1,30,117,188
1,30,117,284
1,30,117,188
1,30,117,208
1,30,117,188
1,32,117,188
1,32,117,284
1,32,117,188
1,32,117,208
1,32,117,284
1,32,117,92
1,32,117,284
1,32,117,188
1,32,117,208
1,32,117,188
1,32,117,188
1,32,117,284
1,32,117,188
1,32,117,208
1,32,117,188
1,32,117,188
1,32,117,284
1,32,117,188
1,32,117,208
1,32,117,188
1,32,117,188
1,32,117,284
1,32,117,188
1,32,117,208
1,32,117,188
1,32,117,188
1,32,117,284
1,32,117,188
1,32,117,208
1,32,117,188
1,32,117,188
1,32,117,284
1,32,117,188
1,32,117,208
1,32,117,188
1,32,117,188
1,32,117,284
1,32,117,188
1,32,117,208
1,32,117,188
1,32,117,188
1,32,117,284
1,32,117,188
1,32,117,208
1,32,117,188
1,32,117,188
1,32,117,284
1,32,117,188
1,32,117,208
1,32,117,188
1,32,117,188
1,32,117,284
1,32,117,188
1,32,117,208
1,32,117,188
1,32,117,188
1,32,117,284
1,32,117,188
1,32,117,208
1,32,117,188
1,32,117,188
1,32,117,284
1,32,117,188
1,32,117,208
1,32,117,188
1,32,117,188
1,32,117,284
1,32,117,188
1,32,117,208
1,32,117,188
1,32,117,188
1,32,117,284
1,32,117,188
1,32,117,208
1,32,117,188
1,32,117,188
1,32,117,284
1,32,117,188
1,32,117,208
1,32,117,188
1,32,117,188
1,32,117,284
1,32,117,188
1,32,117,208
1,32,117,188
1,32,117,188
1,32,117,284
1,32,117,188
1,32,117,208
1,32,117,188
1,32,117,188
1,32,117,284
1,32,117,188
1,32,117,208
1,32,117,188
1,28,117,188
1,28,117,284
1,28,117,188
1,28,117,208
1,28,117,188
1,30,117,188
1,30,117,284
1,30,117,188
1,30,117,208
1,30,117,188
1,32,117,188
1,32,117,284
1,32,117,188
1,32,117,208
1,32,117,284
1,32,117,92
1,32,117,284
1,32,117,188
1,32,117,208
1,32,117,188
1,28,117,188
1,28,117,284
1,28,117,188
1,28,117,208
1,28,117,188
1,30,117,188
1,30,117,284
1,30,117,188
1,30,117,208
1,30,117,188
1,32,117,188
1,32,117,284
1,32,117,188
1,32,117,208
1,32,117,284
1,32,117,92
1,32,117,284
1,32,117,188
1,32,117,208
1,32,117,188
1,28,117,188
1,28,117,284
1,28,117,188
1,28,117,208
1,28,117,188
1,30,117,188
1,30,117,284
1,30,117,188
1,30,117,208
1,30,117,188
1,32,117,188
1,32,117,284
1,32,117,188
1,32,117,208
1,32,117,284
1,32,117,92
1,32,117,284
1,32,117,188
1,32,117,208
1,32,117,188
1,28,117,188
1,28,117,284
1,28,117,188
1,28,117,208
1,28,117,188
1,30,117,188
1,30,117,284
1,30,117,188
1,30,117,208
1,30,117,188
1,32,117,188
1,32,117,284
1,32,117,188
1,32,117,208
1,32,117,284
1,32,117,92
1,32,117,284
1,32,117,188
1,32,117,208
1,32,117,188
1,28,117,188
1,28,117,284
1,28,117,188
1,28,117,208
1,28,117,188
1,30,117,188
1,30,117,284
1,30,117,188
1,30,117,208
1,30,117,188
1,32,117,188
1,32,117,284
1,32,117,188
1,32,117,208
1,32,117,284
1,32,117,92
1,32,117,284
1,32,117,188
1,32,117,208
1,32,117,188
1,28,117,188
1,28,117,284
1,28,117,188
1,28,117,208
1,28,117,188
1,30,117,188
1,30,117,284
1,30,117,188
1,30,117,208
1,30,117,188
1,32,117,188
1,32,117,284
1,32,117,188
1,32,117,208
1,32,117,284
1,32,117,92
1,32,117,284
1,32,117,188
1,32,117,208
1,32,117,188
1,28,117,188
1,28,117,284
1,28,117,188
1,28,117,208
1,28,117,188
1,30,117,188
1,30,117,284
1,30,117,188
1,30,117,208
1,30,117,188
1,32,117,188
1,32,117,284
1,32,117,188
1,32,117,208
1,32,117,284
1,32,117,92
1,32,117,284
1,32,117,188
1,32,117,208
1,32,117,188
1,28,117,188
1,28,117,284
1,28,117,188
1,28,117,208
1,28,117,188
1,30,117,188
1,30,117,284
1,30,117,188
1,30,117,208
1,30,117,188
1,32,117,188
1,32,117,284
1,32,117,188
1,32,117,208
1,32,117,284
2,71,64,39716
2,75,64,0
2,68,64,0
2,71,64,240
2,75,64,0
2,68,64,0
2,71,44,144
2,75,44,0
2,68,44,0
2,71,64,48
2,75,64,0
2,68,64,0
2,71,64,240
2,75,64,0
2,68,64,0
2,71,44,144
2,75,44,0
2,68,44,0
2,75,64,48
2,71,64,0
2,68,64,0
2,68,64,336
2,64,64,0
2,76,64,0
2,73,64,240
2,68,64,0
2,64,64,0
2,73,44,144
2,68,44,0
2,64,44,0
2,73,64,48
2,68,64,0
2,64,64,0
2,73,64,240
2,68,64,0
2,64,64,0
2,73,44,144
2,68,44,0
2,64,44,0
2,73,64,48
2,68,64,0
2,64,64,0
2,75,64,336
2,70,64,0
2,66,64,0
2,75,64,240
2,70,64,0
2,66,64,0
2,75,44,144
2,70,44,0
2,66,44,0
2,75,64,48
2,70,64,0
2,66,64,0
2,73,64,240
2,70,64,0
2,66,64,0
2,66,44,144
2,70,44,0
2,73,44,0
2,78,64,48
2,70,64,0
2,66,64,0
2,71,64,336
2,75,64,0
2,68,64,0
2,71,64,240
2,75,64,0
2,68,64,0
2,75,44,144
2,71,44,0
2,68,44,0
2,71,64,48
2,75,64,0
2,68,64,0
2,71,64,240
2,75,64,0
2,68,64,0
2,68,44,144
2,71,44,0
2,75,44,0
2,75,64,48
2,71,64,0
2,68,64,0
2,75,64,48
2,71,64,0
2,68,64,0
2,71,44,144
2,75,44,0
2,68,44,0
2,71,64,48
2,75,64,0
2,68,64,0
2,71,64,240
2,75,64,0
2,68,64,0
2,71,44,144
2,75,44,0
2,68,44,0
2,71,64,48
2,75,64,0
2,68,64,0
2,71,64,240
2,75,64,0
2,68,64,0
2,71,44,144
2,75,44,0
2,68,44,0
2,75,64,48
2,71,64,0
2,68,64,0
2,68,64,336
2,64,64,0
2,76,64,0
2,73,64,240
2,68,64,0
2,64,64,0
2,73,44,144
2,68,44,0
2,64,44,0
2,73,64,48
2,68,64,0
2,64,64,0
2,73,64,240
2,68,64,0
2,64,64,0
2,73,44,144
2,68,44,0
2,64,44,0
2,73,64,48
2,68,64,0
2,64,64,0
2,75,64,336
2,70,64,0
2,66,64,0
2,75,64,240
2,70,64,0
2,66,64,0
2,75,44,144
2,70,44,0
2,66,44,0
2,75,64,48
2,70,64,0
2,66,64,0
2,73,64,240
2,70,64,0
2,66,64,0
2,66,44,144
2,70,44,0
2,73,44,0
2,78,64,48
2,70,64,0
2,66,64,0
2,71,64,27984
2,75,64,0
2,68,64,0
2,71,64,240
2,75,64,0
2,68,64,0
2,71,44,144
2,75,44,0
2,68,44,0
2,71,64,48
2,75,64,0
2,68,64,0
2,71,64,240
2,75,64,0
2,68,64,0
2,71,44,144
2,75,44,0
2,68,44,0
2,75,64,48
2,71,64,0
2,68,64,0
2,68,64,336
2,64,64,0
2,76,64,0
2,73,64,240
2,68,64,0
2,64,64,0
2,73,44,144
2,68,44,0
2,64,44,0
2,73,64,48
2,68,64,0
2,64,64,0
2,73,64,240
2,68,64,0
2,64,64,0
2,73,44,144
2,68,44,0
2,64,44,0
2,73,64,48
2,68,64,0
2,64,64,0
2,75,64,336
2,70,64,0
2,66,64,0
2,75,64,240
2,70,64,0
2,66,64,0
2,75,44,144
2,70,44,0
2,66,44,0
2,75,64,48
2,70,64,0
2,66,64,0
2,73,64,240
2,70,64,0
2,66,64,0
2,66,44,144
2,70,44,0
2,73,44,0
2,78,64,48
2,70,64,0
2,66,64,0
2,71,64,336
2,75,64,0
2,68,64,0
2,71,64,240
2,75,64,0
2,68,64,0
2,75,44,144
2,71,44,0
2,68,44,0
2,71,64,48
2,75,64,0
2,68,64,0
2,71,64,240
2,75,64,0
2,68,64,0
2,68,44,144
2,71,44,0
2,75,44,0
2,75,64,48
2,71,64,0
2,68,64,0
2,75,64,48
2,71,64,0
2,68,64,0
2,71,44,144
2,75,44,0
2,68,44,0
2,71,64,48
2,75,64,0
2,68,64,0
2,71,64,240
2,75,64,0
2,68,64,0
2,71,44,144
2,75,44,0
2,68,44,0
2,71,64,48
2,75,64,0
2,68,64,0
2,71,64,240
2,75,64,0
2,68,64,0
2,71,44,144
2,75,44,0
2,68,44,0
2,75,64,48
2,71,64,0
2,68,64,0
2,68,64,336
2,64,64,0
2,76,64,0
2,73,64,240
2,68,64,0
2,64,64,0
2,73,44,144
2,68,44,0
2,64,44,0
2,73,64,48
2,68,64,0
2,64,64,0
2,73,64,240
2,68,64,0
2,64,64,0
2,73,44,144
2,68,44,0
2,64,44,0
2,73,64,48
2,68,64,0
2,64,64,0
2,75,64,336
2,70,64,0
2,66,64,0
2,75,64,240
2,70,64,0
2,66,64,0
2,75,44,144
2,70,44,0
2,66,44,0
2,75,64,48
2,70,64,0
2,66,64,0
2,73,64,240
2,70,64,0
2,66,64,0
2,66,44,144
2,70,44,0
2,73,44,0
2,78,64,48
2,70,64,0
2,66,64,0
2,71,64,336
2,75,64,0
2,68,64,0
2,71,64,240
2,75,64,0
2,68,64,0
2,75,44,144
2,71,44,0
2,68,44,0
2,71,64,48
2,75,64,0
2,68,64,0
2,71,64,240
2,75,64,0
2,68,64,0
2,68,44,144
2,71,44,0
2,75,44,0
2,75,64,48
2,71,64,0
2,68,64,0
2,75,64,48
2,71,64,0
2,68,64,0
2,71,44,144
2,75,44,0
2,68,44,0
2,71,64,48
2,75,64,0
2,68,64,0
2,71,64,240
2,75,64,0
2,68,64,0
2,71,44,144
2,75,44,0
2,68,44,0
2,71,64,48
2,75,64,0
2,68,64,0
2,71,64,240
2,75,64,0
2,68,64,0
2,71,44,144
2,75,44,0
2,68,44,0
2,75,64,48
2,71,64,0
2,68,64,0
2,68,64,336
2,64,64,0
2,76,64,0
2,73,64,240
2,68,64,0
2,64,64,0
2,73,44,144
2,68,44,0
2,64,44,0
2,73,64,48
2,68,64,0
2,64,64,0
2,73,64,240
2,68,64,0
2,64,64,0
2,73,44,144
2,68,44,0
2,64,44,0
2,73,64,48
2,68,64,0
2,64,64,0
2,75,64,336
2,70,64,0
2,66,64,0
2,75,64,240
2,70,64,0
2,66,64,0
2,75,44,144
2,70,44,0
2,66,44,0
2,75,64,48
2,70,64,0
2,66,64,0
2,73,64,240
2,70,64,0
2,66,64,0
2,66,44,144
2,70,44,0
2,73,44,0
2,78,64,48
2,70,64,0
2,66,64,0
2,71,64,336
2,75,64,0
2,68,64,0
2,71,64,240
2,75,64,0
2,68,64,0
2,75,44,144
2,71,44,0
2,68,44,0
2,71,64,48
2,75,64,0
2,68,64,0
2,71,64,240
2,75,64,0
2,68,64,0
2,68,44,144
2,71,44,0
2,75,44,0
2,75,64,48
2,71,64,0
2,68,64,0
2,75,64,48
2,71,64,0
2,68,64,0
2,71,44,144
2,75,44,0
2,68,44,0
2,71,64,48
2,75,64,0
2,68,64,0
2,71,64,240
2,75,64,0
2,68,64,0
2,71,44,144
2,75,44,0
2,68,44,0
2,71,64,48
2,75,64,0
2,68,64,0
2,71,64,240
2,75,64,0
2,68,64,0
2,71,44,144
2,75,44,0
2,68,44,0
2,75,64,48
2,71,64,0
2,68,64,0
2,68,64,336
2,64,64,0
2,76,64,0
2,73,64,240
2,68,64,0
2,64,64,0
