track,note,velocity,time
2,49,127,1906
2,49,0,30
2,51,126,0
2,51,0,29
2,39,127,0
2,39,0,31
2,39,127,360
2,39,0,29
2,49,127,0
2,49,0,30
2,51,126,0
2,51,0,31
2,39,127,0
2,39,0,29
2,49,127,391
2,49,0,30
2,51,118,0
2,51,0,30
2,39,127,0
2,39,0,0
2,39,127,0
2,39,0,29
2,39,124,1
2,39,0,29
2,39,100,1
2,39,0,29
2,39,85,1
2,39,0,29
2,39,127,1
2,39,0,30
2,39,71,0
2,39,0,29
2,39,74,0
2,39,0,31
2,39,127,0
2,39,0,29
2,39,86,1
2,39,0,30
2,39,124,0
2,39,0,30
2,39,127,0
2,39,0,29
2,39,118,1
2,39,0,30
2,39,126,0
2,39,0,30
2,39,76,0
2,39,0,30
2,49,127,0
2,39,127,0
2,39,0,29
2,49,0,1
2,51,122,0
2,39,127,0
2,51,0,30
2,39,0,0
2,39,127,0
2,39,0,0
2,39,127,0
2,39,0,29
2,39,124,1
2,39,0,29
2,39,100,1
2,39,0,29
2,39,85,1
2,39,0,29
2,39,127,1
2,39,0,30
2,39,71,0
2,39,0,29
2,39,74,0
2,39,0,31
2,39,127,0
2,39,0,29
2,39,86,1
2,39,0,30
2,39,124,0
2,39,0,30
2,39,127,0
2,39,0,29
2,39,118,1
2,39,0,30
2,39,126,0
2,39,0,30
2,39,76,0
2,39,0,30
2,49,127,0
2,39,127,0
2,39,0,29
2,49,0,1
2,51,122,0
2,39,127,0
2,51,0,30
2,39,0,0
2,39,127,0
2,39,0,0
2,39,127,0
2,39,0,29
2,39,124,1
2,39,0,29
2,39,100,1
2,39,0,29
2,39,85,1
2,39,0,29
2,39,127,1
2,39,0,30
2,39,71,0
2,39,0,29
2,39,74,0
2,39,0,31
2,39,127,0
2,39,0,29
2,39,86,1
2,39,0,30
2,39,124,0
2,39,0,30
2,39,127,0
2,39,0,29
2,39,118,1
2,39,0,30
2,39,126,0
2,39,0,30
2,39,76,0
2,39,0,30
2,49,127,0
2,39,127,0
2,39,0,29
2,49,0,1
2,51,122,0
2,39,127,0
2,51,0,30
2,39,0,0
2,39,127,0
2,39,0,0
2,39,127,0
2,39,0,29
2,39,124,1
2,39,0,29
2,39,100,1
2,39,0,29
2,39,85,1
2,39,0,29
2,39,127,1
2,39,0,30
2,39,71,0
2,39,0,29
2,39,74,0
2,39,0,31
2,39,127,0
2,39,0,29
2,39,86,1
2,39,0,30
2,39,124,0
2,39,0,30
2,39,127,0
2,39,0,29
2,39,118,1
2,39,0,30
2,39,126,0
2,39,0,30
2,39,76,0
2,39,0,30
2,49,127,0
2,39,127,0
2,39,0,29
2,49,0,1
2,51,122,0
2,39,127,0
2,51,0,30
2,39,0,0
2,39,127,0
2,39,0,0
2,39,127,0
2,39,0,29
2,39,124,1
2,39,0,29
2,39,100,1
2,39,0,29
2,39,85,1
2,39,0,29
2,39,127,1
2,39,0,30
2,39,71,0
2,39,0,29
2,39,74,0
2,39,0,31
2,39,127,0
2,39,0,29
2,39,86,1
2,39,0,30
2,39,124,0
2,39,0,30
2,39,127,0
2,39,0,29
2,39,118,1
2,39,0,30
2,39,126,0
2,39,0,30
2,39,76,0
2,39,0,30
2,49,127,0
2,39,127,0
2,39,0,29
2,49,0,1
2,51,122,0
2,39,127,0
2,51,0,30
2,39,0,0
2,39,127,0
2,39,0,0
2,39,127,0
2,39,0,29
2,39,124,1
2,39,0,29
2,39,100,1
2,39,0,29
2,39,85,1
2,39,0,29
2,39,127,1
2,39,0,30
2,39,71,0
2,39,0,29
2,39,74,0
2,39,0,31
2,39,127,0
2,39,0,29
2,39,86,1
2,39,0,30
2,39,124,0
2,39,0,30
2,39,127,0
2,39,0,29
2,39,118,1
2,39,0,30
2,39,126,0
2,39,0,30
2,39,76,0
2,39,0,30
2,49,127,0
2,39,127,0
2,39,0,29
2,49,0,1
2,51,122,0
2,39,127,0
2,51,0,30
2,39,0,0
2,39,122,0
2,39,0,29
2,39,127,31
2,39,0,29
2,34,104,1
2,34,0,30
2,37,127,0
2,37,0,30
2,39,127,30
2,39,0,120
2,37,127,0
2,37,0,30
2,34,86,0
2,34,0,30
2,37,120,0
2,37,0,30
2,39,116,0
2,39,0,30
2,37,127,0
2,37,0,30
2,34,78,0
2,34,0,30
2,39,127,0
2,39,0,30
2,39,127,30
2,39,0,30
2,32,118,0
2,32,0,30
2,36,124,0
2,36,0,30
2,39,127,30
2,39,0,120
2,36,124,0
2,36,0,29
2,32,110,0
2,32,0,31
2,36,96,0
2,36,0,30
2,39,127,0
2,39,0,30
2,36,127,0
2,36,0,30
2,32,114,0
2,32,0,29
2,39,127,0
2,39,0,31
2,39,127,30
2,39,0,30
2,34,122,0
2,34,0,30
2,37,118,0
2,37,0,29
2,39,127,31
2,39,0,120
2,37,127,0
2,37,0,30
2,34,100,0
2,34,0,30
2,37,110,0
2,37,0,30
2,39,118,0
2,39,0,29
2,37,127,0
2,37,0,31
2,34,118,0
2,34,0,30
2,39,127,0
2,39,0,29
2,39,127,31
2,39,0,29
2,32,116,0
2,32,0,31
2,36,127,0
2,36,0,30
2,39,127,30
2,39,0,120
2,36,127,0
2,36,0,30
2,32,126,0
2,32,0,30
2,36,122,0
2,36,0,30
2,39,127,0
2,39,0,30
2,36,122,0
2,36,0,30
2,32,89,0
2,32,0,30
2,39,127,0
2,39,0,29
2,39,127,31
2,39,0,29
2,34,102,1
2,34,0,30
2,37,102,0
2,37,0,30
2,39,127,30
2,39,0,120
2,37,127,0
2,37,0,30
2,34,71,30
2,34,0,0
2,37,122,0
2,37,0,30
2,39,127,0
2,39,0,30
2,37,127,0
2,37,0,30
2,34,97,0
2,34,0,30
2,39,127,0
2,39,0,29
2,39,127,31
2,39,0,29
2,32,116,0
2,32,0,31
2,36,127,0
2,36,0,30
2,39,127,30
2,39,0,120
2,36,127,0
2,36,0,30
2,32,126,0
2,32,0,30
2,36,122,0
2,36,0,30
2,39,127,0
2,39,0,30
2,36,122,0
2,36,0,30
2,32,89,0
2,32,0,30
2,39,127,5
2,39,0,25
2,39,127,30
2,39,0,29
2,34,102,0
2,34,0,31
2,37,102,0
2,37,0,29
2,39,127,31
2,39,0,120
2,37,127,0
2,37,0,30
2,34,71,30
2,34,0,0
2,37,122,0
2,37,0,30
2,39,127,0
2,39,0,30
2,37,127,0
2,37,0,30
2,34,97,0
2,34,0,30
2,39,127,0
2,39,0,29
2,39,127,31
2,39,0,29
2,32,116,0
2,32,0,31
2,36,127,0
2,36,0,30
2,39,127,30
2,39,0,120
2,36,127,0
2,36,0,30
2,32,126,0
2,32,0,30
2,36,122,0
2,36,0,30
2,39,127,0
2,39,0,30
2,36,122,0
2,36,0,30
2,32,89,0
2,32,0,30
2,39,127,5
2,39,0,25
2,39,127,30
2,39,0,29
2,34,102,0
2,34,0,31
2,37,102,0
2,37,0,29
2,39,127,31
2,39,0,120
2,37,127,0
2,37,0,30
2,34,71,30
2,34,0,0
2,37,122,0
2,37,0,30
2,39,127,0
2,39,0,30
2,37,127,0
2,37,0,30
2,34,97,0
2,34,0,30
2,39,127,0
2,39,0,30
2,39,124,30
2,39,0,29
2,32,126,0
2,32,0,31
2,36,122,0
2,36,0,30
2,39,127,30
2,39,0,120
2,36,127,0
2,36,0,30
2,32,112,0
2,32,0,30
2,36,118,0
2,36,0,30
2,39,122,0
2,36,104,29
2,39,0,1
2,36,0,29
2,32,96,1
2,32,0,30
2,39,127,0
2,39,0,30
2,39,127,30
2,39,0,29
2,34,107,1
2,34,0,30
2,37,127,0
2,37,0,30
2,39,127,30
2,39,0,120
2,37,127,0
2,37,0,30
2,34,97,0
2,34,0,30
2,37,122,0
2,37,0,30
2,39,122,0
2,39,0,30
2,37,122,0
2,37,0,30
2,34,89,0
2,34,0,30
2,39,127,0
2,39,0,29
2,39,124,31
2,39,0,29
2,32,126,0
2,32,0,31
2,36,122,0
2,36,0,30
2,39,127,30
2,39,0,119
2,36,127,0
2,36,0,30
2,32,112,1
2,32,0,30
2,36,118,0
2,36,0,30
2,39,122,0
2,39,0,30
2,36,104,0
2,36,0,30
2,32,96,0
2,39,127,29
2,32,0,1
2,39,0,30
2,39,127,30
2,39,0,29
2,34,124,1
2,37,127,29
2,34,0,1
2,37,0,30
2,39,127,29
2,39,0,121
2,37,127,0
2,37,0,29
2,34,71,1
2,34,0,29
2,37,120,0
2,37,0,31
2,39,127,0
2,39,0,29
2,37,127,0
2,37,0,30
2,39,127,30
2,39,0,31
2,39,127,30
2,39,0,30
2,32,127,0
2,32,0,29
2,36,124,0
2,36,0,1
2,39,127,59
2,39,0,121
2,36,126,0
2,36,0,30
2,32,120,0
2,32,0,30
2,36,120,0
2,36,0,30
2,39,127,0
2,39,0,60
2,39,127,29
2,39,0,31
2,39,127,30
2,39,0,29
2,34,106,1
2,34,0,30
2,37,127,0
2,37,0,30
2,39,127,29
2,39,0,121
2,37,127,0
2,37,0,29
2,34,90,0
2,34,0,31
2,37,118,0
2,37,0,30
2,39,127,0
2,39,0,90
2,32,127,0
2,32,0,29
2,32,127,30
2,32,0,30
2,36,127,31
2,36,0,30
2,39,127,30
2,39,0,90
2,39,127,30
2,39,0,59
2,49,127,0
2,49,0,31
2,51,127,0
2,51,0,90
2,39,127,0
2,39,0,29
2,27,127,91
2,27,0,59
2,27,127,61
2,27,0,60
2,27,127,60
2,27,0,59
2,27,127,61
2,27,0,61
2,27,127,59
2,27,0,59
2,39,127,300
2,39,0,60
2,27,127,61
2,27,0,61
2,27,127,59
2,27,0,60
2,27,127,60
2,27,0,60
2,27,127,60
2,27,0,60
2,27,127,60
2,27,0,61
2,39,127,299
2,39,0,29
2,27,127,91
2,27,0,59
2,27,127,61
2,27,0,60
2,27,127,60
2,27,0,59
2,27,127,61
2,27,0,61
2,27,127,59
2,27,0,59
2,39,127,300
2,39,0,60
2,27,127,61
2,27,0,61
2,27,127,59
2,27,0,60
2,27,127,60
2,27,0,60
2,27,127,60
2,27,0,60
2,27,127,60
2,27,0,61
2,39,127,299
2,39,0,29
2,39,127,31
2,39,0,29
2,34,126,0
2,34,0,31
2,37,126,0
2,37,0,29
2,39,127,31
2,39,0,120
2,37,127,0
2,37,0,30
2,34,112,0
2,34,0,30
2,37,120,0
2,37,0,30
2,39,126,0
2,39,0,29
2,37,127,0
2,37,0,30
2,39,127,31
2,39,0,29
2,39,127,31
2,39,0,30
2,32,122,0
2,32,0,30
2,36,112,0
2,36,0,30
2,39,127,29
2,39,0,121
2,36,126,0
2,36,0,30
2,32,118,0
2,32,0,30
2,36,92,0
2,36,0,30
2,39,124,0
2,39,0,30
2,36,82,0
2,36,0,30
2,32,120,0
2,32,0,30
2,39,120,0
2,39,0,30
2,39,127,30
2,39,0,29
2,34,97,1
2,34,0,30
2,37,127,0
2,37,0,29
2,39,127,31
2,39,0,119
2,37,127,0
2,37,0,31
2,34,81,0
2,34,0,30
2,37,114,0
2,37,0,30
2,39,127,0
2,39,0,30
2,37,126,0
2,37,0,30
2,39,127,30
2,39,0,30
2,39,127,30
2,39,0,29
2,32,120,1
2,32,0,29
2,36,100,0
2,36,0,30
2,39,127,31
2,39,0,120
2,36,126,0
2,36,0,30
2,32,126,0
2,32,0,30
2,36,116,0
2,36,0,30
2,39,124,0
2,39,0,29
2,36,124,0
2,36,0,31
2,32,116,0
2,32,0,30
2,39,127,0
2,39,0,29
2,39,127,31
2,39,0,30
2,34,102,0
2,34,0,30
2,37,126,0
2,37,0,30
2,39,127,30
2,39,0,120
2,37,127,0
2,37,0,30
2,34,74,0
2,34,0,29
2,37,116,0
2,37,0,31
2,39,122,0
2,37,112,29
2,39,0,1
2,37,0,30
2,34,107,0
2,34,0,30
2,39,127,0
2,39,0,29
2,39,127,30
2,39,0,30
2,32,118,0
2,32,0,31
2,36,122,0
2,36,0,30
2,39,127,30
2,39,0,120
2,36,127,0
2,36,0,30
2,32,120,0
2,32,0,30
2,36,90,0
2,36,0,30
2,39,127,0
2,39,0,30
2,36,127,0
2,36,0,30
2,32,107,0
2,32,0,29
2,39,127,0
2,39,0,31
2,39,127,30
2,39,0,29
2,34,122,0
2,34,0,31
2,37,127,0
2,37,0,29
2,39,127,30
2,39,0,121
2,37,127,0
2,37,0,30
2,34,99,0
2,34,0,30
2,37,127,0
2,37,0,30
2,39,127,0
2,39,0,59
2,37,122,0
2,37,0,31
2,39,127,0
2,39,0,29
2,39,127,31
2,39,0,30
2,32,127,0
2,32,0,30
2,36,127,0
2,36,0,30
2,39,127,30
2,39,0,90
2,39,127,30
2,39,0,60
2,36,127,0
2,36,0,30
2,39,127,0
2,39,0,89
2,27,127,0
2,27,0,31
2,39,127,30
2,39,0,0
2,39,127,60
2,39,0,29
2,39,127,30
2,39,0,1
2,39,127,59
2,39,0,61
2,39,127,0
2,39,0,0
2,39,127,60
2,39,0,59
2,49,127,0
2,39,127,1
2,39,0,0
2,49,0,29
2,51,127,1
2,51,0,30
2,39,127,0
2,39,0,60
2,39,127,0
2,39,0,0
2,39,127,60
2,39,0,60
2,39,127,0
2,39,0,0
2,39,127,59
2,39,0,60
2,39,127,1
2,39,0,0
2,39,127,60
2,39,0,59
2,49,127,0
2,39,127,1
2,39,0,0
2,49,0,30
2,51,127,0
2,51,0,30
2,39,127,0
2,39,0,60
2,39,127,0
2,39,0,0
2,39,127,60
2,39,0,59
2,39,127,0
2,39,0,1
2,39,127,59
2,39,0,61
2,39,127,0
2,39,0,0
2,39,127,60
2,39,0,59
2,49,127,0
2,39,127,1
2,39,0,0
2,49,0,29
2,51,127,0
2,51,0,31
2,39,127,0
2,39,0,60
2,39,127,0
2,39,0,0
2,39,127,60
2,39,0,59
2,39,127,0
2,39,0,1
2,39,127,60
2,39,0,60
2,39,127,0
2,39,0,0
2,39,127,59
2,39,0,61
2,49,127,0
2,39,127,0
2,39,0,0
2,49,0,29
2,51,127,0
2,51,0,31
2,41,127,0
2,41,0,29
2,41,127,30
2,41,0,30
2,41,127,31
2,41,0,30
2,41,127,29
2,41,0,30
2,41,127,31
2,41,0,29
2,41,127,30
2,41,0,31
2,41,127,30
2,41,0,30
2,29,127,30
2,29,0,60
2,34,127,0
2,34,0,30
2,34,122,30
2,34,0,29
2,34,127,31
2,34,0,29
2,34,127,30
2,34,0,30
2,34,127,31
2,34,0,30
2,34,127,30
2,34,0,60
2,37,127,0
2,37,0,60
2,38,127,0
2,38,0,60
2,27,127,0
2,27,0,30
2,27,127,30
2,27,0,64
2,37,127,1
2,37,0,25
2,39,127,30
2,39,0,120
2,37,127,0
2,37,0,29
2,34,96,1
2,37,118,30
2,34,0,5
2,37,0,25
2,39,127,0
2,39,0,30
2,37,106,0
2,37,0,30
2,34,126,0
2,34,0,30
2,32,127,0
2,32,0,30
2,32,127,30
2,32,0,29
2,36,127,31
2,36,0,29
2,39,127,31
2,39,0,120
2,36,127,0
2,36,0,29
2,32,127,1
2,36,112,30
2,32,0,4
2,36,0,26
2,39,127,0
2,39,0,30
2,36,106,0
2,36,0,29
2,32,102,0
2,32,0,31
2,39,127,0
2,39,0,29
2,39,127,31
2,39,0,30
2,34,118,0
2,37,127,29
2,34,0,1
2,37,0,30
2,39,127,30
2,39,0,120
2,37,127,0
2,37,0,30
2,34,122,0
2,34,0,30
2,37,106,0
2,37,0,30
2,39,127,0
2,39,0,30
2,37,118,0
2,37,0,30
2,34,120,0
2,34,0,30
2,39,127,0
2,39,0,29
2,39,127,31
2,32,122,29
2,39,0,1
2,32,0,30
2,36,124,0
2,36,0,29
2,39,127,31
2,39,0,120
2,36,127,0
2,36,0,30
2,32,116,0
2,36,106,29
2,32,0,1
2,36,0,30
2,39,127,0
2,39,0,30
2,36,124,0
2,36,0,30
2,32,106,0
2,32,0,30
2,39,127,0
2,39,0,30
2,39,127,30
2,39,0,29
2,34,102,0
2,34,0,31
2,37,120,0
2,37,0,29
2,39,127,30
2,39,0,121
2,37,127,0
2,37,0,30
