track,note,velocity,time
1,46,60,2672
1,70,66,0
1,74,64,4
1,65,66,0
1,41,61,44
1,41,84,72
1,46,88,44
1,70,86,4
1,77,97,0
1,74,96,0
1,79,103,28
1,74,99,4
1,70,80,0
1,74,105,40
1,81,119,0
1,70,88,0
1,79,83,4
1,41,61,112
1,74,55,40
1,70,71,4
1,77,80,4
1,41,67,88
1,46,67,40
1,65,86,0
1,70,74,0
1,73,62,0
1,41,67,0
1,41,76,172
1,46,90,44
1,73,92,0
1,77,103,0
1,70,95,0
1,73,97,52
1,79,113,0
1,70,97,4
1,80,120,32
1,70,114,0
1,73,120,0
1,79,105,0
1,73,94,0
1,70,94,0
1,41,65,128
1,70,74,72
1,77,82,0
1,73,80,0
1,70,83,140
1,46,71,0
1,73,69,0
1,65,86,4
1,41,77,24
1,72,78,4
1,69,89,0
1,65,71,0
1,41,70,212
1,36,77,20
1,41,70,240
1,72,80,104
1,65,72,0
1,69,83,0
1,41,75,168
1,69,91,16
1,73,80,4
1,40,83,0
1,67,77,0
1,76,96,0
1,40,36,0
1,38,67,56
1,72,82,0
1,65,92,0
1,74,93,4
1,45,83,64
1,74,84,56
1,72,75,4
1,65,71,0
1,69,81,0
1,45,87,188
1,63,61,56
1,67,98,20
1,74,103,0
1,69,93,0
1,36,92,0
1,72,100,8
1,63,84,4
1,67,86,0
1,69,82,0
1,63,74,8
1,74,107,60
1,67,81,0
1,69,72,0
1,41,85,4
1,67,90,48
1,69,86,0
1,72,104,0
1,63,92,0
1,41,61,40
1,46,80,64
1,62,83,4
1,65,92,0
1,41,58,32
1,41,85,168
1,77,103,36
1,46,95,0
1,74,104,0
1,70,110,4
1,79,100,60
1,74,103,0
1,70,94,0
1,81,120,40
1,74,120,0
1,70,102,0
1,46,51,68
1,74,111,48
1,79,101,4
1,70,100,0
1,41,57,120
1,74,86,64
1,70,74,0
1,77,93,0
1,41,86,80
1,46,74,48
1,70,74,0
1,73,63,0
1,65,73,0
1,67,59,8
1,41,70,52
1,41,78,104
1,46,87,36
1,77,101,4
1,73,95,0
1,70,94,0
1,79,115,56
1,73,108,0
1,70,102,0
1,80,120,36
1,70,114,4
1,73,120,0
1,46,78,64
1,73,92,4
1,70,88,4
1,79,110,0
1,41,70,52
1,77,101,88
1,73,87,0
1,70,90,0
1,46,78,180
1,70,114,4
1,73,102,0
1,65,98,0
1,41,83,16
1,65,83,0
1,72,87,0
1,69,94,0
1,41,83,160
1,36,84,8
1,36,75,68
1,41,91,8
1,72,98,268
1,69,100,0
1,65,91,0
1,41,66,120
1,73,90,28
1,40,86,0
1,76,103,0
1,69,99,4
1,67,98,0
1,40,73,40
1,69,85,20
1,65,96,0
1,72,92,0
1,38,93,0
1,74,87,0
1,50,100,32
1,74,86,4
1,72,86,0
1,69,92,0
1,65,79,0
1,72,86,56
1,69,87,0
1,65,87,0
1,74,92,0
1,45,93,12
1,36,120,16
1,63,120,240
1,74,120,0
1,67,115,0
1,69,100,0
1,72,92,20
1,36,99,68
1,74,120,64
1,67,100,0
1,63,100,0
1,69,93,0
1,63,90,44
1,69,85,0
1,67,93,0
1,72,105,0
1,41,100,0
1,69,93,44
1,62,88,44
1,46,80,0
1,65,93,0
1,41,81,48
1,65,88,44
1,62,83,0
1,41,79,144
1,46,95,44
1,77,94,0
1,70,91,4
1,74,97,0
1,79,101,52
1,74,99,4
1,70,85,0
1,74,120,36
1,81,120,0
1,70,102,0
1,79,117,48
1,74,120,0
1,70,98,0
1,41,63,64
1,74,105,60
1,77,100,4
1,70,97,0
1,41,88,116
1,73,68,28
1,65,91,0
1,70,87,0
1,46,75,0
1,41,83,72
1,41,74,128
1,46,94,40
1,77,107,8
1,73,104,0
1,70,114,0
1,79,107,60
1,73,102,0
1,70,98,4
1,80,120,48
1,70,106,0
1,73,120,4
1,46,74,56
1,73,110,8
1,70,106,0
1,79,120,0
1,41,83,44
1,73,97,60
1,77,97,0
1,70,108,0
1,46,80,156
1,73,94,0
1,70,102,0
1,65,93,8
1,41,86,16
1,69,94,8
1,65,81,0
1,72,91,0
1,69,79,64
1,72,78,0
1,65,74,0
1,41,78,200
1,36,77,12
1,69,78,0
1,72,71,0
1,65,62,0
1,69,69,80
1,65,72,0
1,72,72,0
1,65,72,56
1,69,79,4
1,72,82,0
1,41,83,0
1,69,104,64
1,72,108,0
1,65,104,0
1,41,83,24
1,73,85,20
1,76,93,0
1,69,92,0
1,67,81,0
1,40,86,4
1,69,105,84
1,67,94,0
1,76,104,4
1,73,88,0
1,40,62,200
1,38,83,8
1,72,78,0
1,65,64,4
1,74,81,0
1,69,75,64
1,65,77,0
1,72,79,0
1,74,73,0
1,45,85,68
1,74,101,76
1,72,103,0
1,65,107,4
1,69,110,0
1,45,91,236
1,63,69,8
1,63,74,64
1,67,105,0
1,36,101,0
1,69,98,0
1,74,113,4
1,72,107,36
1,69,99,0
1,67,105,0
1,63,97,0
1,36,98,32
1,63,94,0
1,67,107,64
1,74,120,0
1,69,100,0
1,72,113,52
1,67,113,0
1,63,110,0
1,69,101,60
1,46,72,132
1,65,81,0
1,62,80,0
1,58,66,0
1,65,63,32
1,58,57,0
1,62,88,4
1,41,54,48
1,58,47,256
1,58,71,80
1,65,91,0
1,62,87,0
1,58,78,36
1,65,82,0
1,62,93,0
1,46,92,128
1,62,63,108
1,58,86,4
1,46,71,216
1,41,77,32
1,62,47,256
1,70,110,92
1,62,96,0
1,65,108,0
1,46,86,72
1,72,100,40
1,36,85,0
1,67,92,0
1,64,89,4
1,67,104,64
1,64,91,0
1,72,107,0
1,43,94,64
1,72,120,124
1,65,120,0
1,68,74,0
1,72,110,8
1,66,120,0
1,43,85,252
1,67,113,4
1,36,107,52
1,83,86,196
1,84,113,4
1,89,107,4
1,41,70,368
1,69,81,0
1,65,72,0
1,60,72,4
1,69,98,212
1,65,93,4
1,60,107,0
1,41,62,44
1,46,71,64
1,70,85,0
1,65,79,0
1,62,59,4
1,70,104,196
1,62,88,0
1,65,97,0
1,46,72,240
1,72,71,52
1,69,72,0
1,65,61,0
1,41,63,8
1,69,108,240
1,65,104,0
1,72,105,0
1,41,77,24
1,74,86,44
1,70,73,4
1,46,66,0
1,65,63,4
1,74,111,244
1,70,114,0
1,65,104,0
1,46,81,20
1,72,70,60
1,69,68,0
1,41,73,4
1,65,59,0
1,69,115,236
1,72,110,0
1,65,110,4
1,41,78,52
1,70,74,64
1,74,84,0
1,46,62,8
1,65,57,0
1,74,111,244
1,70,120,0
1,65,108,0
1,46,90,68
1,41,80,52
1,72,92,8
1,65,85,0
1,69,87,0
1,69,120,0
1,72,115,0
1,65,113,0
1,41,104,96
1,46,94,44
1,68,120,244
1,72,120,0
1,69,120,8
1,72,98,4
1,68,108,0
1,46,74,60
1,72,59,8
1,67,78,0
1,41,82,28
1,72,71,8
1,65,86,4
1,72,103,172
1,65,103,0
1,69,105,0
1,41,88,84
1,46,71,64
1,70,97,0
1,74,100,0
1,65,89,0
1,74,111,220
1,70,114,0
1,65,107,4
1,46,91,56
1,41,79,52
1,72,93,4
1,69,89,0
1,65,92,0
1,72,113,236
1,69,119,0
1,65,117,0
1,41,83,96
1,46,62,48
1,70,106,4
1,74,94,0
1,65,99,0
1,70,120,208
1,74,113,0
1,65,111,0
1,46,95,72
1,41,83,60
1,72,100,12
1,69,99,0
1,65,98,0
1,72,104,260
1,65,103,0
1,69,110,4
1,41,74,84
1,46,75,76
1,74,93,0
1,70,80,0
1,65,86,0
1,74,107,0
1,70,104,4
1,65,97,0
1,46,69,80
1,72,101,48
1,41,79,0
1,65,96,8
1,69,98,0
1,65,79,160
1,69,81,0
1,41,75,0
1,60,58,4
1,43,71,52
1,67,73,4
1,62,78,0
1,70,78,0
1,63,72,40
1,69,80,4
1,72,78,0
1,45,58,4
1,46,52,56
1,74,75,4
1,70,63,8
1,65,59,0
1,41,71,28
1,70,67,156
1,74,81,0
1,65,72,4
1,41,74,100
1,46,72,64
1,70,78,0
1,77,83,0
1,74,83,4
1,79,98,64
1,74,101,0
1,70,85,0
1,81,120,36
1,74,120,4
1,70,106,4
1,46,77,56
1,79,82,16
1,74,93,0
1,70,83,0
1,41,44,48
1,70,80,64
1,77,87,0
1,74,87,0
1,41,79,40
1,67,83,44
1,46,77,0
1,70,62,8
1,73,63,0
1,77,63,160
1,73,64,0
1,70,56,4
1,67,50,0
1,46,59,12
1,77,66,44
1,70,53,0
1,73,63,4
1,41,58,0
1,67,52,0
1,70,50,128
1,73,58,0
1,77,48,0
1,67,42,4
1,41,77,112
1,46,87,52
1,77,91,8
1,73,86,0
1,70,80,0
1,79,101,64
1,73,97,0
1,70,86,4
1,80,120,52
1,70,108,0
1,73,120,0
1,46,74,72
1,73,91,4
1,79,104,0
1,70,87,0
1,41,74,44
1,73,87,92
1,77,100,0
1,70,84,0
1,46,80,136
1,70,85,4
1,73,74,0
1,65,90,0
1,41,80,20
1,72,67,16
1,69,78,0
1,65,64,0
1,69,79,128
1,72,79,4
1,65,73,0
1,41,73,212
1,69,73,28
1,72,78,8
1,65,69,0
1,36,45,4
1,69,69,84
1,72,78,0
1,65,73,4
1,72,66,96
1,69,60,0
1,65,58,8
1,41,66,0
1,69,110,76
1,72,105,0
1,65,104,0
1,41,83,44
1,69,83,32
1,67,86,0
1,40,91,4
1,73,79,0
1,64,84,0
1,69,94,112
1,73,98,0
1,64,93,0
1,67,100,0
1,40,71,16
1,74,77,76
1,65,67,0
1,38,81,12
1,65,70,100
1,69,68,0
1,72,72,4
1,74,60,0
1,45,71,100
1,65,62,0
1,72,61,0
1,69,64,0
1,74,69,4
1,74,99,80
1,65,93,0
1,69,99,0
1,72,98,0
1,45,86,132
1,36,96,48
1,74,94,0
1,63,80,0
1,67,92,8
1,69,83,0
1,72,110,44
1,63,91,0
1,67,108,0
1,69,89,0
1,36,91,4
1,63,69,16
1,67,103,48
1,63,71,0
1,74,117,0
1,69,93,4
1,41,93,0
1,72,99,32
1,69,76,0
1,63,90,0
1,67,98,0
1,69,86,60
1,46,69,128
1,65,84,4
1,62,68,0
1,65,64,68
1,62,67,0
1,41,54,4
1,65,81,80
1,62,78,0
1,41,80,80
1,46,97,64
1,77,96,4
1,74,99,4
1,70,112,0
1,79,98,72
1,74,110,0
1,70,100,0
1,74,120,44
1,81,120,0
1,70,106,0
1,46,80,60
1,79,86,4
1,74,87,0
1,70,78,0
1,41,69,52
1,77,86,60
1,74,87,0
1,70,79,0
1,41,90,80
1,46,69,48
1,65,90,0
1,70,67,4
1,73,54,0
1,70,66,112
1,65,73,0
1,73,66,0
1,46,69,212
1,41,59,24
1,70,64,4
1,73,59,4
1,65,49,0
1,73,55,156
1,65,64,0
1,70,71,0
1,41,85,124
1,77,105,64
1,73,98,0
1,70,85,0
1,46,100,0
1,79,107,64
1,73,100,8
1,70,91,0
1,80,117,40
1,73,117,0
1,70,112,4
1,46,87,72
1,79,111,8
1,70,104,0
1,73,108,0
1,41,78,72
1,70,91,84
1,77,107,0
1,73,98,0
1,46,80,160
1,70,100,4
1,73,91,0
1,65,83,0
1,41,87,4
1,72,81,8
1,65,72,8
1,69,91,0
1,69,67,104
1,72,73,0
1,65,72,0
1,41,56,220
1,36,63,96
1,69,69,0
1,72,70,0
1,65,71,4
1,69,67,104
1,72,76,0
1,65,70,4
1,36,86,148
1,41,80,48
1,69,73,0
1,72,78,0
1,65,62,4
1,69,115,76
1,72,113,0
1,65,111,0
1,41,88,4
1,76,111,36
1,73,90,0
1,40,100,0
1,69,103,0
1,67,84,4
1,73,83,92
1,69,101,0
1,67,96,0
1,76,98,0
1,40,53,0
1,74,65,64
1,72,69,4
1,69,62,4
1,65,64,0
1,38,86,0
1,72,81,92
1,69,79,0
1,74,81,0
1,65,78,4
1,38,83,164
1,45,83,12
1,69,69,12
1,72,77,0
1,65,73,0
1,74,74,4
1,72,107,128
1,69,103,0
1,74,105,0
1,65,99,0
1,45,93,88
1,63,90,44
1,74,98,0
1,36,105,0
1,67,92,0
1,69,88,8
1,72,115,40
1,63,112,0
1,67,107,0
1,69,113,0
1,36,97,4
1,63,75,16
1,63,59,32
1,67,100,0
1,74,120,0
1,69,92,0
1,41,88,0
1,69,88,36
1,67,107,0
1,63,90,0
1,72,111,4
1,41,86,40
1,69,85,12
1,46,87,44
1,65,73,0
1,62,59,4
1,65,62,4
1,62,70,8
1,46,62,240
1,41,77,20
1,65,72,88
1,62,74,0
1,41,81,156
1,46,87,28
1,77,90,4
1,70,95,0
1,74,100,0
1,79,107,72
1,74,113,0
1,70,95,0
1,74,120,36
1,81,120,0
1,70,106,0
1,46,79,52
1,79,94,16
1,74,110,0
1,70,86,0
1,41,69,36
1,74,113,92
1,77,99,0
1,70,95,8
1,41,93,16
1,46,75,48
1,70,74,0
1,65,77,0
1,73,71,0
1,73,81,132
1,70,78,0
1,65,78,4
1,46,83,232
1,73,69,4
1,65,72,4
1,70,85,4
1,41,72,0
1,65,67,120
1,70,80,0
1,73,69,0
1,41,89,108
1,46,81,56
1,77,96,0
1,70,83,0
1,73,80,0
1,79,115,72
1,73,108,0
1,70,104,8
1,80,114,36
1,70,120,0
1,73,120,0
1,46,97,0
1,46,87,64
1,73,110,4
1,79,120,0
1,70,110,0
1,41,73,52
1,73,85,80
1,70,106,4
1,77,104,0
1,41,107,40
1,46,85,156
1,73,108,4
1,70,100,0
1,65,105,8
1,41,92,12
1,65,74,4
1,72,81,4
1,69,89,0
1,72,83,88
1,69,87,0
1,65,78,4
1,41,64,196
1,36,72,0
1,65,65,12
1,69,72,0
1,72,71,0
1,72,86,84
1,69,94,0
1,65,88,8
1,36,91,136
1,41,75,32
1,72,83,8
1,69,81,0
1,65,79,4
1,72,115,88
1,69,117,0
1,65,117,0
1,41,84,16
1,76,111,0
1,69,97,0
1,73,87,0
1,67,83,0
1,40,93,8
1,73,110,104
1,69,120,0
1,67,110,0
1,76,120,0
1,40,79,184
1,38,83,20
1,72,72,0
1,69,69,4
1,65,75,0
1,74,70,0
1,69,74,104
1,72,77,4
1,65,72,0
1,74,75,0
1,38,93,168
1,69,78,28
1,45,74,4
1,65,78,0
1,72,79,0
1,74,79,0
1,74,108,112
1,65,100,0
1,69,99,0
1,72,101,0
1,45,92,132
1,63,57,52
1,67,99,16
1,74,110,4
1,69,94,0
1,36,94,0
1,67,108,16
1,69,81,0
1,72,107,0
1,63,95,0
1,36,94,116
1,63,86,8
1,67,110,40
1,63,68,4
1,74,120,0
1,69,99,0
1,41,93,0
1,67,111,28
1,69,82,4
1,63,112,0
1,72,115,0
1,41,82,60
1,69,92,8
1,65,79,48
1,46,80,4
1,62,62,0
1,65,84,8
1,62,73,4
1,46,47,248
1,41,77,16
1,62,56,164
1,65,93,76
1,70,88,4
1,62,78,0
1,41,83,48
1,46,88,56
1,65,90,0
1,62,83,8
1,70,94,0
1,65,87,100
1,70,92,0
1,62,81,0
1,46,74,224
1,70,78,20
1,62,77,0
1,65,83,0
1,41,30,20
1,70,100,80
1,62,91,0
1,65,100,0
1,46,102,68
1,72,80,64
1,67,81,0
1,64,73,0
1,36,88,0
1,67,100,100
1,64,103,0
1,72,100,0
1,67,73,100
1,64,68,0
1,48,100,4
1,72,71,0
1,65,119,76
1,72,113,0
1,66,120,40
1,72,120,0
1,48,78,68
1,67,113,4
1,72,119,0
1,83,86,208
1,89,103,12
1,84,75,0
1,72,86,484
1,65,80,0
1,69,83,0
1,41,100,4
1,72,100,216
1,65,87,0
1,69,96,4
1,41,67,16
1,46,65,60
1,74,81,0
1,65,68,8
1,70,65,0
1,70,106,144
1,65,98,0
1,74,110,0
1,46,63,188
1,41,74,88
1,72,63,0
1,65,50,0
1,69,71,0
1,72,110,100
1,69,104,0
1,65,115,0
1,41,87,224
1,46,69,24
1,65,70,8
1,70,84,0
1,74,92,8
1,70,104,160
1,74,111,0
1,65,100,0
1,46,91,236
1,41,79,52
1,72,77,8
1,65,72,0
