track,note,velocity,time
0,40,116,0
0,40,0,1
0,40,122,31
0,40,0,1
0,57,103,95
0,40,122,0
0,35,108,0
0,35,0,1
0,40,0,0
0,57,0,70
0,57,98,25
0,57,0,64
0,57,93,32
0,57,0,47
0,57,87,17
0,57,0,18
0,57,95,14
0,57,0,65
0,57,98,31
0,57,0,47
0,57,87,16
0,57,0,19
0,57,98,13
0,57,0,65
0,57,103,32
0,54,69,62
0,54,0,1
0,45,122,0
0,40,116,1
0,40,0,1
0,45,0,12
0,57,0,17
0,54,67,1
0,54,0,1
0,45,118,0
0,40,122,0
0,40,0,1
0,45,0,80
0,54,69,14
0,54,0,0
0,45,122,0
0,61,103,0
0,40,122,0
0,35,108,0
0,35,0,1
0,40,0,0
0,61,0,54
0,45,0,15
0,61,98,26
0,61,0,67
0,61,95,29
0,61,0,52
0,61,90,11
0,61,0,20
0,61,98,13
0,61,0,66
0,61,95,30
0,61,0,51
0,61,89,12
0,61,0,18
0,61,95,14
0,61,0,67
0,61,93,29
0,54,69,63
0,54,0,1
0,45,122,0
0,40,116,1
0,40,0,1
0,45,0,12
0,45,118,18
0,54,68,0
0,54,0,1
0,40,122,0
0,40,0,1
0,61,0,58
0,45,0,16
0,54,69,20
0,54,0,1
0,64,100,0
0,40,122,0
0,35,113,0
0,35,0,1
0,40,0,0
0,45,122,1
0,64,0,51
0,45,0,12
0,64,98,31
0,64,0,58
0,64,103,38
0,64,0,46
0,64,86,17
0,64,0,20
0,64,103,12
0,64,0,66
0,64,98,31
0,64,0,51
0,64,88,13
0,64,0,19
0,64,103,12
0,64,0,67
0,64,98,29
0,64,0,46
0,64,98,19
0,64,0,19
0,64,95,12
0,64,0,39
0,64,94,26
0,64,0,19
0,64,102,0
0,54,61,0
0,54,0,1
0,64,0,0
0,40,122,0
0,40,122,0
0,35,122,0
0,35,0,1
0,40,0,0
0,64,100,34
0,64,0,19
0,64,102,15
0,40,0,14
0,54,61,2
0,54,0,1
0,64,0,0
0,40,122,0
0,35,122,0
0,35,0,1
0,40,0,0
0,40,123,2
0,64,100,34
0,64,0,19
0,64,107,4
0,40,0,7
0,64,0,46
0,54,63,38
0,54,0,1
0,40,122,0
0,35,122,0
0,35,0,1
0,40,0,0
0,40,120,1
0,64,107,4
0,64,0,43
0,64,107,16
0,64,0,38
0,40,0,32
0,64,107,23
0,64,0,24
0,54,59,9
0,54,0,1
0,40,125,0
0,40,122,0
0,35,122,0
0,35,0,1
0,40,0,0
0,59,96,0
0,59,0,60
0,61,89,3
0,40,52,0
0,40,0,1
0,40,0,13
0,61,0,10
0,45,117,8
0,57,99,0
0,69,122,0
0,35,88,0
0,35,0,1
0,69,0,15
0,57,0,29
0,73,98,10
0,69,94,2
0,64,89,2
0,69,106,2
0,57,114,1
0,45,0,10
0,69,0,5
0,64,0,6
0,69,0,4
0,73,0,2
0,57,0,3
0,54,57,3
0,54,0,1
0,47,114,0
0,61,97,0
0,69,122,0
0,42,73,0
0,40,84,0
0,40,0,1
0,42,0,0
0,69,0,15
0,69,106,45
0,61,0,1
0,47,0,6
0,69,0,9
0,57,114,18
0,64,88,1
0,64,102,0
0,69,122,0
0,35,81,0
0,35,0,1
0,49,111,0
0,69,94,1
0,73,98,2
0,69,0,12
0,57,0,15
0,64,0,3
0,69,0,4
0,73,0,6
0,69,106,17
0,49,0,8
0,69,0,8
0,64,0,5
0,54,57,13
0,54,0,1
0,69,122,0
0,50,116,2
0,46,78,0
0,46,0,1
0,69,0,13
0,69,106,45
0,50,0,11
0,69,0,5
0,57,110,18
0,64,86,1
0,57,93,0
0,69,122,0
0,35,88,0
0,35,0,1
0,69,94,1
0,52,111,1
0,73,98,1
0,69,0,12
0,64,0,11
0,57,0,6
0,69,0,1
0,73,0,11
0,57,0,7
0,69,106,9
0,52,0,11
0,69,0,5
0,54,57,18
0,54,0,1
0,61,93,0
0,69,122,0
0,42,84,0
0,42,0,1
0,50,118,1
0,69,0,14
0,61,0,25
0,73,93,14
0,69,93,2
0,57,114,0
0,64,82,3
0,69,106,1
0,64,102,3
0,50,0,4
0,69,0,9
0,57,0,2
0,49,111,3
0,69,122,0
0,35,88,0
0,35,0,1
0,69,0,10
0,64,0,1
0,73,0,9
0,69,0,0
0,64,0,16
0,69,106,13
0,40,102,3
0,40,0,1
0,49,0,7
0,69,0,5
0,47,114,17
0,46,78,0
0,46,0,1
0,54,56,0
0,54,0,1
0,59,86,0
0,69,122,0
0,40,122,0
0,40,0,1
0,69,0,15
0,59,0,38
0,69,106,7
0,61,84,3
0,47,0,6
0,69,0,7
0,61,0,10
0,45,115,9
0,57,96,0
0,69,122,0
0,35,85,0
0,35,0,1
0,69,0,15
0,73,95,39
0,69,95,2
0,57,0,2
0,64,88,0
0,57,110,2
0,69,106,0
0,45,0,13
0,69,0,3
0,64,0,6
0,69,0,1
0,73,0,2
0,57,0,5
0,47,111,4
0,54,57,0
0,54,0,1
0,61,97,0
0,69,122,0
0,42,76,1
0,42,0,1
0,69,0,14
0,61,0,45
0,69,106,0
0,47,0,10
0,69,0,6
0,49,106,18
0,57,114,0
0,64,89,1
0,64,102,0
0,69,122,0
0,35,85,0
0,35,0,1
0,69,94,2
0,73,98,2
0,69,0,11
0,64,0,14
0,57,0,1
0,69,0,7
0,73,0,5
0,69,106,18
0,64,0,5
0,49,0,5
0,69,0,6
0,50,111,18
0,54,57,0
0,46,76,0
0,46,0,1
0,54,0,0
0,66,98,0
0,69,122,0
0,69,0,16
0,69,106,45
0,66,0,3
0,64,84,0
0,50,0,3
0,69,0,10
0,64,0,9
0,57,113,6
0,64,89,4
0,52,114,0
0,67,93,0
0,69,122,0
0,35,81,0
0,35,0,1
0,69,93,1
0,73,95,2
0,69,0,12
0,57,0,11
0,64,0,3
0,73,0,5
0,69,0,1
0,69,106,25
0,67,0,11
0,52,0,3
0,69,0,2
0,54,59,18
0,42,76,0
0,42,0,1
0,54,0,0
0,64,93,0
0,69,122,0
0,50,111,1
0,69,0,15
0,73,96,39
0,57,112,0
0,69,93,2
0,64,89,2
0,69,106,2
0,64,0,8
0,50,0,2
0,69,0,6
0,57,0,2
0,49,114,5
0,60,95,1
0,69,122,0
0,35,79,0
0,35,0,1
0,64,0,2
0,69,0,10
0,73,0,2
0,69,0,8
0,69,106,13
0,40,102,0
0,40,0,1
0,49,0,11
0,69,0,1
0,60,0,3
0,47,114,15
0,54,59,0
0,46,71,0
0,46,0,1
0,54,0,0
0,57,93,0
0,69,122,0
0,40,122,0
0,40,0,1
0,69,0,15
0,57,0,44
0,69,106,1
0,55,84,3
0,47,0,6
0,69,0,7
0,55,0,7
0,38,117,12
0,64,102,0
0,69,122,0
0,35,83,0
0,35,0,1
0,69,0,15
0,69,90,39
0,64,89,2
0,60,82,2
0,64,0,1
0,57,110,0
0,69,106,1
0,69,0,16
0,38,0,0
0,57,0,13
0,60,0,2
0,64,0,2
0,54,57,1
0,54,0,1
0,69,0,0
0,69,122,0
0,42,114,1
0,42,71,0
0,42,0,1
0,69,0,14
0,69,106,45
0,62,96,3
0,42,0,11
0,69,0,2
0,62,0,17
0,60,85,2
0,45,108,0
0,57,105,0
0,60,88,0
0,69,122,0
0,35,81,0
0,35,0,1
0,64,88,1
0,69,92,2
0,69,0,12
0,57,0,11
0,60,0,21
0,64,0,5
0,69,0,3
0,69,106,5
0,45,0,12
0,69,0,4
0,60,0,9
0,54,59,9
0,54,0,1
0,47,116,0
0,57,91,0
0,69,122,0
0,46,73,0
0,46,0,1
0,69,0,15
0,57,0,37
0,69,106,8
0,69,0,16
0,47,0,2
0,60,85,17
0,64,102,0
0,69,122,0
0,35,85,0
0,35,0,1
0,57,110,0
0,64,89,1
0,48,108,0
0,69,92,2
0,69,0,12
0,57,0,16
0,60,0,20
0,64,0,1
0,64,0,2
0,69,0,0
0,69,106,6
0,69,0,16
0,48,0,0
0,54,57,18
0,54,0,1
0,62,99,0
0,69,122,0
0,47,110,1
0,42,76,0
0,42,0,1
0,69,0,14
0,62,0,34
0,57,110,4
0,69,93,1
0,64,89,1
0,60,85,3
0,69,106,2
0,60,91,3
0,47,0,9
0,69,0,4
0,57,0,9
0,45,108,10
0,69,122,0
0,35,77,0
0,35,0,1
0,69,0,15
0,60,0,1
0,69,0,9
0,64,0,14
0,69,106,1
0,60,0,2
0,64,102,1
0,40,102,0
0,40,0,1
0,45,0,5
0,69,0,7
0,64,0,6
0,54,57,12
0,46,76,0
0,46,0,1
0,54,0,0
0,64,100,0
0,69,122,0
0,40,122,0
0,40,0,1
0,42,104,1
0,69,0,14
0,64,0,2
0,69,106,21
0,64,98,3
0,42,0,5
0,69,0,8
0,64,0,8
0,45,116,11
0,64,107,0
0,69,122,0
0,35,81,0
0,35,0,1
0,69,0,15
0,73,98,39
0,69,90,1
0,64,0,1
0,64,86,0
0,57,110,4
0,69,106,0
0,45,0,13
0,69,0,3
0,57,0,9
0,69,0,2
0,64,0,2
0,73,0,2
0,54,57,3
0,42,76,0
0,42,0,1
0,54,0,0
0,62,103,0
0,69,122,0
0,47,116,1
0,69,0,15
0,62,0,38
0,69,106,7
0,47,0,10
0,69,0,6
0,64,89,19
0,61,102,0
0,69,122,0
0,35,79,0
0,35,0,1
0,49,111,0
0,69,91,1
0,73,98,2
0,57,110,1
0,69,0,11
0,57,0,14
0,64,0,9
0,69,0,10
0,73,0,3
0,61,0,2
0,69,106,7
0,49,0,11
0,69,0,5
0,54,59,18
0,46,77,0
0,46,0,1
0,54,0,0
0,57,99,0
0,69,122,0
0,50,118,1
0,69,0,15
0,57,0,36
0,69,106,9
0,50,0,6
0,69,0,10
0,64,87,19
0,64,96,0
0,69,122,0
0,35,79,0
0,35,0,1
0,52,108,0
0,69,90,2
0,73,98,1
0,57,112,2
0,69,0,10
0,57,0,15
0,64,0,2
0,69,0,7
0,73,0,0
0,64,0,21
0,69,106,0
0,52,0,4
0,69,0,12
0,54,59,18
0,54,0,1
0,62,96,0
0,69,122,0
0,42,77,0
0,42,0,1
0,50,114,0
0,69,0,15
0,62,0,34
0,73,97,5
0,69,94,2
0,64,89,1
0,69,106,3
0,57,110,2
0,61,92,1
0,50,0,7
0,69,0,6
0,69,122,3
0,35,81,0
0,35,0,1
0,49,111,0
0,57,0,3
0,69,0,10
0,61,0,1
0,64,0,4
0,73,0,0
0,69,0,1
0,69,106,15
0,62,102,3
0,40,102,0
0,40,0,1
0,49,0,5
0,69,0,7
0,62,0,11
0,54,58,7
0,46,76,0
0,46,0,1
0,54,0,0
0,62,100,0
0,69,122,0
0,40,122,0
0,40,0,1
0,47,114,0
0,69,0,15
0,62,0,30
0,69,106,15
0,61,99,3
0,47,0,7
0,69,0,6
0,61,0,17
0,62,100,2
0,69,122,0
0,35,77,0
0,35,0,1
0,40,116,0
0,69,0,15
0,62,0,23
0,71,92,16
0,66,89,2
0,62,86,2
0,59,114,1
0,69,106,1
0,40,0,15
0,69,0,1
0,59,0,13
0,62,0,3
0,54,59,2
0,54,0,1
0,62,96,0
0,69,122,0
0,42,77,0
0,42,0,1
0,66,0,0
0,44,114,1
0,71,0,3
0,69,0,11
0,62,0,31
0,69,106,14
0,61,93,3
0,44,0,8
0,69,0,5
0,59,109,15
0,62,87,4
0,62,102,0
0,69,122,0
0,35,79,0
0,35,0,1
0,66,91,1
0,45,108,0
0,71,94,2
0,61,0,7
0,69,0,5
0,59,0,11
0,62,0,12
0,62,0,5
0,66,0,8
0,71,0,4
0,69,106,5
0,64,93,4
0,45,0,3
0,69,0,9
0,54,57,18
0,54,0,1
0,46,110,0
0,69,122,0
0,46,77,1
0,46,0,1
0,69,0,14
0,64,0,0
0,62,89,42
0,69,106,3
0,62,0,1
0,63,90,0
0,46,0,12
0,69,0,3
0,63,0,3
0,64,93,0
0,62,87,16
0,69,122,0
0,35,81,0
0,35,0,1
0,47,106,0
0,66,91,1
0,59,109,0
0,71,93,2
0,69,0,12
0,59,0,12
0,62,0,16
0,66,0,5
0,71,0,5
0,69,106,7
0,47,0,13
0,69,0,3
0,64,0,13
0,54,57,5
0,54,0,1
0,62,91,0
0,69,122,0
0,42,77,0
0,42,0,1
0,45,106,2
0,69,0,13
0,62,0,24
0,71,94,15
0,66,90,2
0,62,87,2
0,69,106,2
0,61,96,3
0,59,110,1
0,45,0,7
0,69,0,5
0,59,0,18
0,69,122,1
0,40,64,0
0,35,81,0
0,35,0,1
0,40,0,0
0,40,108,1
0,69,0,10
0,61,0,6
0,71,0,6
0,62,0,1
0,66,0,0
0,69,106,15
0,40,102,3
0,40,0,1
0,69,0,12
0,40,0,0
0,54,59,18
0,54,0,1
0,57,96,0
0,69,122,0
0,40,116,0
0,40,0,1
0,40,111,1
0,46,79,0
0,46,0,1
0,69,0,13
0,57,0,16
0,69,106,29
0,57,99,2
0,40,0,11
0,69,0,3
0,69,122,19
0,40,116,0
0,35,85,0
0,35,0,1
0,40,0,0
0,45,118,0
0,69,0,15
0,40,76,16
0,40,0,1
0,73,95,22
0,69,91,2
0,64,88,2
0,69,106,2
0,40,64,3
0,40,0,1
0,57,110,0
0,45,0,6
0,69,0,6
0,64,0,7
0,69,0,2
0,73,0,5
0,57,0,3
0,54,57,1
0,54,0,1
0,47,122,0
0,69,122,0
0,40,102,0
0,40,0,1
0,46,86,0
0,46,0,1
0,69,0,14
0,69,106,45
0,40,52,3
0,40,0,1
0,47,0,8
0,69,0,4
0,64,87,19
0,69,122,0
0,40,116,0
0,35,79,0
0,35,0,1
0,40,0,0
0,49,108,0
0,69,93,1
0,73,98,2
0,57,114,0
0,69,0,12
0,57,0,15
0,64,0,1
0,40,76,0
0,40,0,1
0,69,0,8
0,73,0,5
0,69,106,15
0,40,64,3
0,40,0,1
0,49,0,0
0,69,0,12
0,54,57,18
0,54,0,1
0,47,108,0
0,69,122,0
0,40,102,0
0,40,0,1
0,46,76,0
0,46,0,1
0,69,0,14
0,69,106,45
0,40,40,3
0,40,0,1
0,47,0,9
0,69,0,3
0,64,89,19
0,69,122,0
0,40,102,0
0,35,88,0
0,35,0,1
0,40,0,0
0,45,108,0
0,57,0,1
0,69,93,0
0,73,95,2
0,57,110,1
0,69,0,11
0,64,0,13
0,40,76,3
0,40,0,1
0,57,0,4
0,69,0,3
0,73,0,6
0,69,106,15
0,40,64,3
0,40,0,1
0,45,0,7
0,69,0,5
0,54,57,18
0,54,0,1
0,69,122,0
0,46,79,0
0,40,116,0
0,40,0,1
0,46,0,0
0,43,114,1
0,69,0,14
0,73,95,39
0,69,94,2
0,57,114,1
0,64,86,1
0,69,106,2
0,40,52,3
0,40,0,1
0,43,0,9
0,69,0,3
0,57,0,3
0,69,122,0
0,40,89,0
0,35,85,0
0,35,0,1
0,40,0,0
0,40,118,0
0,69,0,10
0,40,76,3
0,40,0,1
0,73,0,3
0,64,0,1
0,69,0,0
0,69,100,14
0,69,106,1
0,40,89,3
0,40,0,1
0,40,0,7
0,69,0,5
0,54,55,18
0,54,0,1
0,69,122,0
0,46,88,0
0,40,116,0
0,40,0,1
0,46,0,0
0,40,111,3
0,69,0,12
0,69,0,28
0,69,106,17
0,40,0,2
0,69,93,1
0,69,0,13
0,69,0,14
0,45,114,5
0,69,99,0
0,69,122,0
0,35,88,0
0,35,0,1
0,69,0,15
0,69,0,29
0,73,98,10
0,69,94,2
0,64,89,2
0,69,106,2
0,57,114,1
0,45,0,12
0,69,0,3
0,64,0,6
0,69,0,4
0,73,0,2
0,57,0,3
0,54,56,3
0,54,0,1
0,73,97,0
0,69,122,0
0,42,77,0
0,42,0,1
0,47,111,0
0,69,0,15
0,69,106,45
0,73,0,1
0,47,0,10
0,69,0,5
0,57,114,18
0,64,88,1
0,76,102,0
0,69,122,0
0,35,81,0
0,35,0,1
0,49,108,0
0,69,94,1
0,73,98,2
0,69,0,12
0,57,0,15
0,64,0,3
0,69,0,4
0,73,0,6
0,69,106,17
0,49,0,11
0,69,0,5
0,76,0,5
