track,note,velocity,time
3,31,118,490
3,31,0,100
3,31,118,860
3,31,0,100
3,31,118,860
3,31,0,105
3,38,118,975
3,38,0,75
3,38,118,165
3,38,0,90
3,38,118,150
3,38,0,85
3,38,118,110
3,38,0,25
3,38,118,25
3,38,0,55
3,31,118,55
3,31,0,115
3,35,118,5
3,38,118,120
3,35,0,5
3,38,0,110
3,40,118,5
3,41,118,120
3,40,0,5
3,41,0,115
3,40,118,0
3,38,118,120
3,40,0,15
3,38,0,105
3,35,118,0
3,31,118,120
3,35,0,5
3,35,118,115
3,31,0,15
3,36,118,105
3,35,0,5
3,37,118,115
3,36,0,5
3,38,118,115
3,37,0,5
3,31,118,115
3,38,0,5
3,33,118,115
3,31,0,10
3,33,0,110
3,35,118,0
3,35,0,115
3,36,118,5
3,36,0,115
3,40,118,5
3,36,118,120
3,40,0,15
3,34,118,105
3,36,0,5
3,36,118,115
3,34,0,5
3,36,0,95
3,36,118,20
3,34,118,120
3,36,0,5
3,33,118,115
3,34,0,10
3,31,118,110
3,33,0,5
3,35,118,115
3,31,0,10
3,36,118,110
3,35,0,10
3,37,118,110
3,36,0,5
3,38,118,115
3,37,0,15
3,31,118,105
3,38,0,10
3,33,118,110
3,31,0,5
3,35,118,115
3,33,0,5
3,38,118,115
3,35,0,5
3,38,0,110
3,42,118,5
3,38,118,120
3,42,0,15
3,36,118,105
3,38,0,5
3,38,118,115
3,36,0,5
3,36,118,115
3,38,0,10
3,36,0,110
3,35,118,0
3,33,118,120
3,35,0,10
3,31,118,110
3,33,0,10
3,35,118,110
3,31,0,5
3,38,118,115
3,35,0,10
3,40,118,110
3,38,0,5
3,41,118,115
3,40,0,5
3,40,118,115
3,41,0,5
3,38,118,115
3,40,0,15
3,38,0,100
3,35,118,5
3,35,0,95
3,31,118,25
3,31,0,115
3,35,118,5
3,38,118,120
3,35,0,5
3,38,0,110
3,40,118,5
3,41,118,120
3,40,0,5
3,41,0,115
3,40,118,0
3,38,118,120
3,40,0,15
3,38,0,105
3,35,118,0
3,31,118,120
3,35,0,5
3,35,118,115
3,31,0,15
3,36,118,105
3,35,0,5
3,37,118,115
3,36,0,5
3,38,118,115
3,37,0,5
3,31,118,115
3,38,0,5
3,33,118,115
3,31,0,10
3,33,0,110
3,35,118,0
3,35,0,115
3,36,118,5
3,36,0,115
3,40,118,5
3,36,118,120
3,40,0,10
3,34,118,110
3,36,0,5
3,36,118,115
3,34,0,5
3,36,0,95
3,36,118,20
3,34,118,120
3,36,0,5
3,33,118,115
3,34,0,10
3,31,118,110
3,33,0,5
3,35,118,115
3,31,0,10
3,36,118,110
3,35,0,10
3,37,118,110
3,36,0,5
3,38,118,115
3,37,0,10
3,31,118,110
3,38,0,10
3,33,118,110
3,31,0,5
3,35,118,115
3,33,0,5
3,38,118,115
3,35,0,5
3,38,0,110
3,42,118,5
3,38,118,120
3,42,0,15
3,36,118,105
3,38,0,5
3,38,118,115
3,36,0,5
3,36,118,115
3,38,0,10
3,36,0,110
3,35,118,0
3,33,118,120
3,35,0,10
3,31,118,110
3,33,0,10
3,35,118,110
3,31,0,5
3,38,118,115
3,35,0,10
3,40,118,110
3,38,0,5
3,41,118,115
3,40,0,5
3,40,118,115
3,41,0,5
3,38,118,115
3,40,0,15
3,38,0,100
3,35,118,5
3,35,0,95
3,31,118,25
3,31,0,115
3,35,118,5
3,38,118,120
3,35,0,5
3,38,0,110
3,40,118,5
3,41,118,120
3,40,0,10
3,41,0,110
3,40,118,0
3,38,118,120
3,40,0,15
3,38,0,105
3,35,118,0
3,31,118,120
3,35,0,10
3,35,118,110
3,31,0,15
3,36,118,105
3,35,0,10
3,37,118,110
3,36,0,5
3,38,118,120
3,37,0,5
3,31,118,110
3,38,0,5
3,33,118,115
3,31,0,10
3,33,0,110
3,35,118,0
3,35,0,115
3,36,118,10
3,36,0,110
3,40,118,5
3,36,118,120
3,40,0,15
3,34,118,105
3,36,0,5
3,36,118,115
3,34,0,15
3,36,0,85
3,36,118,20
3,34,118,120
3,36,0,5
3,33,118,115
3,34,0,10
3,31,118,110
3,33,0,10
3,35,118,110
3,31,0,10
3,36,118,110
3,35,0,10
3,37,118,110
3,36,0,5
3,38,118,120
3,37,0,5
3,31,118,110
3,38,0,5
3,33,118,115
3,31,0,5
3,35,118,115
3,33,0,5
3,38,118,115
3,35,0,5
3,38,0,110
3,42,118,5
3,38,118,120
3,42,0,15
3,36,118,105
3,38,0,5
3,38,118,120
3,36,0,5
3,36,118,110
3,38,0,15
3,36,0,105
3,35,118,0
3,33,118,120
3,35,0,10
3,31,118,110
3,33,0,10
3,35,118,110
3,31,0,5
3,38,118,115
3,35,0,10
3,40,118,110
3,38,0,10
3,41,118,110
3,40,0,5
3,40,118,115
3,41,0,5
3,38,118,115
3,40,0,15
3,38,0,100
3,35,118,5
3,35,0,95
3,31,118,25
3,31,0,115
3,35,118,5
3,38,118,120
3,35,0,5
3,38,0,110
3,40,118,5
3,41,118,120
3,40,0,5
3,41,0,115
3,40,118,0
3,38,118,120
3,40,0,15
3,38,0,105
3,35,118,0
3,31,118,120
3,35,0,5
3,35,118,115
3,31,0,15
3,36,118,105
3,35,0,5
3,37,118,115
3,36,0,5
3,38,118,115
3,37,0,5
3,31,118,115
3,38,0,5
3,33,118,115
3,31,0,10
3,33,0,110
3,35,118,0
3,35,0,115
3,36,118,5
3,36,0,115
3,40,118,5
3,36,118,120
3,40,0,10
3,34,118,110
3,36,0,5
3,36,118,115
3,34,0,5
3,36,0,95
3,36,118,20
3,34,118,120
3,36,0,5
3,33,118,115
3,34,0,10
3,31,118,110
3,33,0,5
3,35,118,115
3,31,0,10
3,36,118,110
3,35,0,10
3,37,118,110
3,36,0,5
3,38,118,115
3,37,0,10
3,31,118,110
3,38,0,10
3,33,118,110
3,31,0,5
3,35,118,115
3,33,0,5
3,38,118,115
3,35,0,5
3,38,0,110
3,42,118,5
3,38,118,120
3,42,0,15
3,36,118,105
3,38,0,5
3,38,118,115
3,36,0,5
3,36,118,115
3,38,0,10
3,36,0,110
3,35,118,0
3,33,118,120
3,35,0,10
3,31,118,115
3,33,0,5
3,35,118,110
3,31,0,5
3,38,118,115
3,35,0,10
3,40,118,110
3,38,0,5
3,41,118,115
3,40,0,5
3,40,118,115
3,41,0,5
3,38,118,115
3,40,0,10
3,38,0,105
3,35,118,5
3,35,0,95
3,31,118,25
3,31,0,115
3,35,118,5
3,38,118,120
3,35,0,5
3,38,0,110
3,40,118,5
3,41,118,120
3,40,0,5
3,41,0,115
3,40,118,0
3,38,118,120
3,40,0,15
3,38,0,105
3,35,118,0
3,31,118,120
3,35,0,5
3,35,118,115
3,31,0,15
3,36,118,105
3,35,0,5
3,37,118,115
3,36,0,5
3,38,118,115
3,37,0,5
3,31,118,115
3,38,0,5
3,33,118,115
3,31,0,10
3,33,0,110
3,35,118,0
3,35,0,115
3,36,118,5
3,36,0,115
3,40,118,5
3,36,118,120
3,40,0,10
3,34,118,110
3,36,0,5
3,36,118,115
3,34,0,5
3,36,0,95
3,36,118,20
3,34,118,120
3,36,0,5
3,33,118,115
3,34,0,10
3,31,118,110
3,33,0,5
3,35,118,115
3,31,0,10
3,36,118,110
3,35,0,10
3,37,118,110
3,36,0,5
3,38,118,115
3,37,0,10
3,31,118,110
3,38,0,10
3,33,118,110
3,31,0,5
3,35,118,115
3,33,0,5
3,38,118,115
3,35,0,5
3,38,0,110
3,42,118,5
3,38,118,120
3,42,0,15
3,36,118,105
3,38,0,5
3,38,118,115
3,36,0,5
3,36,118,115
3,38,0,10
3,36,0,110
3,35,118,0
3,33,118,120
3,35,0,10
3,31,118,110
3,33,0,10
3,35,118,110
3,31,0,5
3,38,118,115
3,35,0,10
3,40,118,110
3,38,0,5
3,41,118,115
3,40,0,10
3,40,118,110
3,41,0,5
3,38,118,115
3,40,0,15
3,38,0,100
3,35,118,5
3,35,0,95
3,31,118,25
3,31,0,115
3,35,118,5
3,38,118,120
3,35,0,5
3,38,0,110
3,40,118,5
3,41,118,120
3,40,0,10
3,41,0,110
3,40,118,0
3,38,118,120
3,40,0,15
3,38,0,100
3,35,118,5
3,31,118,120
3,35,0,5
3,35,118,115
3,31,0,15
3,36,118,105
3,35,0,10
3,37,118,110
3,36,0,5
3,38,118,120
3,37,0,5
3,31,118,110
3,38,0,5
3,33,118,115
3,31,0,10
3,33,0,110
3,35,118,0
3,35,0,115
3,36,118,5
3,36,0,115
3,40,118,5
3,36,118,120
3,40,0,10
3,34,118,110
3,36,0,5
3,36,118,115
3,34,0,10
3,36,0,90
3,36,118,20
3,34,118,120
3,36,0,10
3,33,118,110
3,34,0,15
3,31,118,110
3,33,0,5
3,35,118,110
3,31,0,10
3,36,118,110
3,35,0,10
3,37,118,110
3,36,0,5
3,38,118,115
3,37,0,10
3,31,118,110
3,38,0,10
3,33,118,110
3,31,0,5
3,35,118,115
3,33,0,5
3,38,118,115
3,35,0,5
3,38,0,110
3,42,118,5
3,38,118,120
3,42,0,15
3,36,118,105
3,38,0,5
3,38,118,115
3,36,0,5
3,36,118,115
3,38,0,10
3,36,0,110
3,35,118,0
3,33,118,120
3,35,0,15
3,31,118,105
3,33,0,10
3,35,118,110
3,31,0,5
3,38,118,115
3,35,0,15
3,40,118,105
3,38,0,5
3,41,118,115
3,40,0,10
3,40,118,110
3,41,0,5
3,38,118,115
3,40,0,15
3,38,0,100
3,35,118,5
3,35,0,95
3,31,118,25
3,31,0,115
3,35,118,5
3,38,118,120
3,35,0,5
3,38,0,110
3,40,118,5
3,41,118,120
3,40,0,5
3,41,0,115
3,40,118,0
3,38,118,120
3,40,0,15
3,38,0,100
3,35,118,5
3,31,118,120
3,35,0,5
3,35,118,115
3,31,0,15
3,36,118,105
3,35,0,5
3,37,118,115
3,36,0,5
3,38,118,115
3,37,0,5
3,31,118,115
3,38,0,5
3,33,118,115
3,31,0,10
3,33,0,110
3,35,118,0
3,35,0,115
3,36,118,5
3,36,0,115
3,40,118,5
3,36,118,120
3,40,0,10
3,34,118,110
3,36,0,5
3,36,118,115
3,34,0,5
3,36,0,95
3,36,118,20
3,34,118,120
3,36,0,5
3,33,118,115
3,34,0,10
3,31,118,110
3,33,0,5
3,35,118,115
3,31,0,10
3,36,118,110
3,35,0,10
3,37,118,110
3,36,0,5
3,38,118,115
3,37,0,15
3,31,118,100
3,38,0,15
3,33,118,110
3,31,0,5
3,35,118,115
3,33,0,5
3,38,118,115
3,35,0,5
3,38,0,110
3,42,118,5
3,38,118,120
3,42,0,15
3,36,118,105
3,38,0,5
3,38,118,115
3,36,0,5
3,36,118,115
3,38,0,10
3,36,0,110
3,35,118,0
3,33,118,120
3,35,0,10
3,31,118,115
3,33,0,5
3,31,0,105
3,35,118,5
3,36,118,120
3,35,0,15
3,36,0,95
3,37,118,10
3,37,0,115
3,38,118,5
3,36,118,80
3,38,0,5
3,35,118,35
3,36,0,5
3,35,0,60
3,31,118,15
3,31,0,150
3,31,118,10
3,31,0,70
4,62,110,505
4,67,110,0
4,43,110,0
4,55,110,0
4,59,110,0
4,59,0,50
4,43,0,10
4,62,0,10
4,67,0,0
4,55,0,0
4,62,110,885
4,43,110,0
4,71,110,0
4,67,110,0
4,71,0,80
4,62,0,10
4,43,0,0
4,67,0,0
4,74,110,860
4,62,110,15
4,43,110,0
4,67,110,0
4,71,110,0
4,67,0,45
4,71,0,15
4,43,0,10
4,62,0,0
4,74,0,10
4,50,110,995
4,74,110,0
4,62,110,0
4,66,110,0
4,69,110,0
4,69,0,15
4,66,0,20
4,62,0,15
4,74,0,0
4,50,0,10
4,74,110,180
4,50,110,0
4,66,110,0
4,69,110,0
4,69,0,35
4,74,0,10
4,50,0,0
4,66,0,0
4,74,110,195
4,66,110,0
4,69,110,0
4,50,110,0
4,50,0,35
4,69,0,0
4,66,0,0
4,74,0,10
4,66,110,120
4,50,110,0
4,74,110,0
4,69,110,0
4,69,0,50
4,66,0,0
4,50,0,0
4,74,0,0
4,74,110,30
4,66,110,0
4,50,110,0
4,69,110,0
4,69,0,25
4,50,0,0
4,66,0,10
4,74,0,0
4,59,110,125
4,62,110,0
4,55,110,0
4,59,0,35
4,55,0,10
4,62,0,0
4,55,110,135
4,62,110,0
4,59,110,0
4,59,0,50
4,62,0,0
4,55,0,10
4,55,110,180
4,59,110,0
4,62,110,10
4,62,0,40
4,59,0,0
4,55,0,10
4,55,110,120
4,62,110,0
4,59,110,0
4,59,0,45
4,62,0,0
4,55,0,15
4,55,110,300
4,62,110,0
4,59,110,0
4,59,0,50
4,62,0,0
4,55,0,10
4,55,110,120
4,62,110,0
4,59,110,5
4,59,0,45
4,62,0,0
4,55,0,20
4,55,110,170
4,62,110,0
4,59,110,10
4,59,0,45
4,62,0,15
4,55,0,0
4,55,110,110
4,62,110,0
4,59,110,0
4,59,0,70
4,62,0,0
4,55,0,10
4,55,110,280
4,64,110,0
4,58,110,0
4,60,110,0
4,60,0,35
4,58,0,0
4,64,0,15
4,55,0,0
4,55,110,130
4,58,110,0
4,60,110,0
4,64,110,10
4,64,0,35
4,60,0,0
4,58,0,0
4,55,0,15
4,55,110,180
4,60,110,0
4,58,110,10
4,64,110,0
4,58,0,25
4,64,0,10
4,60,0,0
4,55,0,15
4,55,110,120
4,60,110,0
4,64,110,0
4,58,110,0
4,58,0,45
4,60,0,0
4,64,0,15
4,55,0,0
4,55,110,300
4,62,110,0
4,59,110,0
4,59,0,45
4,62,0,0
4,55,0,15
4,62,110,120
4,55,110,0
4,59,110,0
4,59,0,45
4,55,0,15
4,62,0,0
4,62,110,180
4,55,110,0
4,59,110,10
4,59,0,25
4,55,0,25
4,62,0,0
4,62,110,120
4,55,110,0
4,59,110,0
4,59,0,45
4,62,0,0
4,55,0,15
4,60,110,300
4,62,110,0
4,54,110,0
4,57,110,0
4,57,0,35
4,60,0,10
4,62,0,0
4,54,0,0
4,62,110,135
4,60,110,0
4,54,110,0
4,57,110,5
4,57,0,35
4,54,0,0
4,60,0,0
4,62,0,20
4,57,110,180
4,60,110,0
4,62,110,10
4,54,110,0
4,54,0,15
4,57,0,20
4,60,0,0
4,62,0,0
4,60,110,135
4,62,110,0
4,54,110,0
4,57,110,0
4,57,0,45
4,60,0,0
4,62,0,0
4,54,0,0
4,55,110,315
4,62,110,0
4,59,110,0
4,59,0,45
4,62,0,0
4,55,0,0
4,55,110,135
4,62,110,0
4,59,110,0
4,59,0,45
4,62,0,0
4,55,0,25
4,55,110,170
4,62,110,0
4,59,110,10
4,59,0,25
4,62,0,15
4,55,0,10
4,55,110,120
4,62,110,0
4,59,110,0
4,59,0,45
4,62,0,0
4,55,0,25
4,59,110,290
4,62,110,0
4,55,110,0
4,59,0,35
4,55,0,10
4,62,0,0
4,55,110,135
4,62,110,0
4,59,110,0
4,59,0,50
4,62,0,0
4,55,0,10
4,55,110,180
4,59,110,0
4,62,110,10
4,62,0,40
4,59,0,0
4,55,0,10
4,55,110,120
4,62,110,0
4,59,110,0
4,59,0,45
4,62,0,0
4,55,0,15
4,55,110,300
4,62,110,0
4,59,110,0
4,59,0,50
4,62,0,0
4,55,0,10
4,55,110,120
4,62,110,0
4,59,110,0
4,59,0,50
4,62,0,0
4,55,0,10
4,55,110,180
4,62,110,0
4,59,110,10
4,59,0,45
4,62,0,15
4,55,0,0
4,55,110,110
4,62,110,0
4,59,110,0
4,59,0,70
4,62,0,0
4,55,0,10
4,55,110,280
4,64,110,0
4,58,110,0
4,60,110,0
4,60,0,35
4,55,0,10
4,64,0,0
4,58,0,0
4,55,110,135
4,58,110,0
4,60,110,0
4,64,110,5
4,64,0,40
4,60,0,0
4,58,0,0
4,55,0,15
4,55,110,180
4,60,110,0
4,58,110,10
4,64,110,0
4,64,0,25
4,58,0,0
4,60,0,10
4,55,0,15
4,55,110,120
4,60,110,0
4,64,110,0
4,58,110,0
4,58,0,45
4,60,0,0
4,64,0,15
4,55,0,10
