track,note,velocity,time
1,30,92,1780
1,37,92,2
1,30,79,2
1,29,97,2
1,37,95,20
1,29,94,2
1,27,93,2
1,37,95,16
1,27,89,10
1,24,84,2
1,37,95,8
1,30,85,150
1,37,95,2
1,30,79,2
1,29,97,2
1,37,95,20
1,29,94,2
1,27,93,2
1,37,102,16
1,27,89,10
1,24,84,2
1,37,102,8
1,30,92,150
1,37,92,2
1,30,79,2
1,29,97,2
1,37,95,20
1,29,94,2
1,27,93,2
1,37,95,16
1,27,89,10
1,24,84,2
1,37,95,8
1,29,85,4
1,30,92,4
1,37,95,2
1,30,79,2
1,29,97,2
1,37,95,20
1,29,94,2
1,27,93,2
1,37,102,16
1,27,89,10
1,24,84,2
1,37,102,8
1,30,92,150
1,37,92,2
1,30,79,2
1,29,97,2
1,37,95,20
1,29,94,2
1,27,93,2
1,37,95,16
1,27,89,10
1,24,84,2
1,37,95,8
1,30,85,150
1,37,95,2
1,30,79,2
1,29,97,2
1,37,95,20
1,29,94,2
1,27,93,2
1,37,102,16
1,27,89,10
1,24,84,2
1,37,102,8
1,30,92,150
1,37,92,2
1,30,79,2
1,29,97,2
1,37,95,20
1,29,94,2
1,27,93,2
1,37,95,16
1,27,89,10
1,24,84,2
1,37,95,8
1,29,85,4
1,30,92,4
1,37,95,2
1,30,79,2
1,29,97,2
1,37,95,20
1,29,94,2
1,27,93,2
1,37,102,16
1,27,89,10
1,24,84,2
1,37,102,8
1,29,93,150
1,41,92,4
1,36,70,4
1,33,84,4
1,41,93,4
1,33,80,4
1,34,87,4
1,46,93,4
1,34,89,4
1,32,93,4
1,46,92,4
1,44,84,4
1,32,82,4
1,27,86,4
1,39,97,4
1,27,86,4
1,29,90,2
1,41,90,4
1,29,95,4
1,30,90,4
1,42,93,2
1,30,89,4
1,32,89,4
1,44,100,2
1,30,92,4
1,37,92,2
1,30,79,2
1,29,97,2
1,37,95,20
1,29,94,2
1,27,93,2
1,37,95,16
1,27,89,10
1,24,84,2
1,37,95,8
1,30,85,150
1,37,95,2
1,30,79,2
1,29,97,2
1,37,95,20
1,29,94,2
1,27,93,2
1,37,102,16
1,27,89,10
1,24,84,2
1,37,102,8
1,30,92,150
1,37,92,2
1,30,79,2
1,29,97,2
1,37,95,20
1,29,94,2
1,27,93,2
1,37,95,16
1,27,89,10
1,24,84,2
1,37,95,8
1,29,85,4
1,30,92,4
1,37,95,2
1,30,79,2
1,29,97,2
1,37,95,20
1,29,94,2
1,27,93,2
1,37,102,16
1,27,89,10
1,24,87,2
2,54,51,1452
2,58,52,0
2,61,54,0
2,53,51,4
2,56,56,0
2,54,55,4
2,58,56,0
2,61,56,0
2,53,52,4
2,56,57,0
2,54,55,4
2,58,58,0
2,61,54,0
2,53,53,4
2,56,57,0
2,54,54,4
2,58,56,0
2,61,55,0
2,53,53,4
2,56,55,0
2,61,56,0
2,54,51,4
2,58,52,0
2,61,54,0
2,68,46,0
2,70,50,0
2,73,48,0
2,53,51,4
2,56,56,0
2,65,58,0
2,54,55,4
2,58,56,0
2,61,56,0
2,63,58,0
2,66,55,0
2,70,38,0
2,53,52,4
2,56,57,0
2,65,65,0
2,68,53,0
2,54,55,4
2,58,58,0
2,61,54,0
2,70,52,0
2,53,53,4
2,56,57,0
2,65,51,0
2,54,54,4
2,58,56,0
2,61,55,0
2,63,52,0
2,66,55,0
2,53,53,4
2,56,55,0
2,61,56,0
2,65,50,0
2,54,57,4
2,58,58,0
2,61,60,0
2,53,57,4
2,56,62,0
2,54,61,4
2,58,62,0
2,61,62,0
2,53,58,4
2,56,63,0
2,54,61,4
2,58,64,0
2,61,60,0
2,53,59,4
2,56,63,0
2,54,60,4
2,58,62,0
2,61,61,0
2,53,59,4
2,56,61,0
2,61,62,0
2,54,51,4
2,58,52,0
2,61,54,0
2,68,46,0
2,70,50,0
2,73,48,0
2,53,51,4
2,56,56,0
2,65,58,0
2,54,55,4
2,58,56,0
2,61,56,0
2,63,58,0
2,66,55,0
2,70,38,0
2,53,52,4
2,56,57,0
2,65,65,0
2,68,53,0
2,54,55,4
2,58,58,0
2,61,54,0
2,70,52,0
2,53,53,4
2,56,57,0
2,65,51,0
2,54,54,4
2,58,56,0
2,61,55,0
2,63,52,0
2,66,55,0
2,53,53,4
2,56,55,0
2,61,56,0
2,65,50,0
2,65,49,4
2,70,50,0
2,72,48,0
2,69,49,4
2,70,56,4
2,73,52,0
2,65,52,4
2,61,57,4
2,66,60,0
2,70,57,0
2,61,67,4
2,68,63,0
2,73,58,0
2,61,66,4
2,66,62,0
2,70,65,0
2,61,77,4
2,66,74,0
2,70,67,0
2,54,51,4
2,58,52,0
2,61,54,0
2,53,51,4
2,56,56,0
2,54,55,4
2,58,56,0
2,61,56,0
2,53,52,4
2,56,57,0
2,54,55,4
2,58,58,0
2,61,54,0
2,53,53,4
2,56,57,0
2,54,54,4
2,58,56,0
2,61,55,0
2,53,53,4
2,56,55,0
2,61,56,0
2,54,51,4
2,58,52,0
2,61,54,0
2,68,46,0
2,70,50,0
2,73,48,0
2,53,51,4
2,56,56,0
2,65,58,0
2,54,55,4
2,58,56,0
2,61,56,0
2,63,58,0
2,66,55,0
2,70,38,0
2,53,52,4
2,56,57,0
2,65,65,0
2,68,53,0
2,54,55,4
2,58,58,0
2,61,54,0
2,70,52,0
2,53,53,4
2,56,57,0
2,65,51,0
2,54,54,4
2,58,56,0
2,61,55,0
2,63,52,0
2,66,55,0
2,53,53,4
2,56,55,0
2,61,56,0
2,65,50,0
3,73,92,1690
3,75,90,12
3,77,86,8
3,70,84,4
3,73,92,490
3,75,90,16
3,73,94,192
3,73,93,56
3,70,83,48
3,68,75,4
3,73,98,588
3,75,94,32
3,77,92,36
3,77,98,96
3,75,91,48
3,73,84,42
3,68,93,464
3,70,93,0
3,73,99,24
3,75,82,4
3,73,84,192
3,73,91,584
3,75,96,24
3,77,93,24
3,70,93,16
3,70,80,594
3,73,98,192
3,75,83,180
3,73,91,0
3,73,98,710
3,75,94,12
3,77,91,48
3,77,92,52
3,73,95,20
3,70,92,442
3,73,92,12
3,75,95,192
3,73,86,188
3,73,91,24
3,73,94,18
3,73,95,186
3,75,83,4
3,77,93,96
3,61,2,86
3,61,2,288
3,61,2,288
3,61,2,288
3,58,2,0
3,61,2,0
3,61,2,288
3,61,2,288
3,61,2,288
3,58,2,0
3,61,2,0
3,61,2,288
3,61,2,288
3,61,2,288
3,58,2,0
3,73,98,0
3,68,85,96
3,70,93,22
3,68,85,8
3,73,92,4
3,77,90,4
3,75,98,84
3,73,77,142
3,82,95,156
3,80,80,292
3,77,95,80
3,75,80,44
3,73,78,24
3,61,2,184
3,61,2,288
3,61,2,288
3,56,2,0
3,61,2,0
3,61,2,288
3,61,2,288
3,61,2,288
3,58,2,0
3,61,2,0
3,77,99,98
3,75,89,96
3,73,77,16
3,61,2,30
3,61,2,288
3,56,2,0
3,61,2,0
3,82,89,862
3,80,98,66
3,80,94,70
3,80,93,98
3,77,83,56
3,75,79,32
3,73,81,20
3,70,77,36
3,73,70,74
3,70,89,380
3,73,98,76
3,75,80,190
3,73,76,4
3,75,75,338
3,77,82,2
3,73,93,544
3,75,93,26
3,77,89,28
3,75,84,48
3,77,84,24
3,75,79,106
3,73,69,132
3,70,93,466
3,73,94,4
3,75,94,12
3,73,90,4
3,75,78,230
3,77,81,36
3,77,96,628
3,82,93,40
3,80,96,24
3,77,95,96
3,80,88,10
3,77,81,52
3,75,75,32
3,73,76,16
3,70,72,24
3,73,63,40
3,70,104,506
3,73,96,24
3,75,97,54
3,73,72,96
3,75,87,54
3,73,70,70
3,73,99,452
3,75,103,68
3,77,99,40
3,75,91,32
3,77,92,28
3,75,90,8
3,73,79,86
3,70,87,400
3,73,91,8
3,75,90,14
3,73,87,192
3,73,90,124
3,73,79,56
3,85,90,62
3,61,2,152
3,61,2,288
3,61,2,288
3,61,2,62
3,58,2,0
3,61,2,0
3,61,2,288
3,61,2,288
3,61,2,288
3,58,2,0
3,61,2,0
3,61,2,288
3,61,2,288
3,61,2,288
3,58,2,0
3,61,2,0
3,61,2,288
3,61,2,288
3,61,2,288
3,56,2,0
3,61,2,0
3,77,100,96
3,75,92,64
3,70,77,0
3,77,100,316
3,75,92,64
3,70,77,0
3,77,101,310
3,80,93,80
3,73,81,16
3,73,100,322
3,85,100,114
3,87,91,36
3,85,82,0
3,77,98,292
3,80,93,112
3,73,77,8
3,73,86,262
3,75,77,40
3,77,79,22
3,75,77,88
3,73,79,80
3,70,80,92
3,68,74,76
3,68,83,146
3,70,84,4
3,73,74,2
3,77,91,372
3,80,72,94
3,82,66,4
3,77,103,336
3,77,96,38
3,77,98,6
3,77,99,34
3,77,94,30
3,77,108,4
3,77,99,248
3,77,101,70
3,82,99,12
3,77,99,20
3,75,87,78
3,73,93,8
3,82,98,366
3,80,93,36
3,75,110,50
3,73,93,0
3,82,110,178
3,80,96,46
3,75,110,4
3,73,88,148
3,82,117,230
3,80,91,82
3,82,89,2
3,80,88,0
3,82,99,6
3,85,116,4
3,82,89,158
3,80,96,0
3,82,84,2
3,82,117,396
3,80,96,26
3,82,103,58
3,80,96,18
3,82,110,54
3,80,117,208
3,82,117,50
3,78,103,128
3,80,99,12
3,80,116,180
3,80,103,34
3,84,113,0
3,82,93,70
3,80,89,4
3,80,103,152
3,82,108,32
3,77,101,62
3,80,103,20
3,82,93,6
3,80,87,18
3,82,110,256
3,80,98,18
3,82,117,46
3,80,103,28
3,82,117,32
3,80,110,20
3,82,110,34
3,80,108,328
3,80,105,38
3,80,117,22
3,85,117,18
3,89,96,54
3,87,89,84
3,85,105,4
3,80,72,8
3,82,93,8
3,85,105,12
3,82,91,20
3,80,75,12
3,80,93,26
3,85,96,14
3,73,99,362
3,75,84,104
3,77,84,2
3,75,91,64
3,73,77,74
3,70,68,54
3,73,66,0
3,68,94,148
3,70,91,16
3,73,99,26
3,75,93,26
3,73,96,8
3,77,103,42
3,75,91,8
3,77,98,18
3,80,81,26
3,82,71,4
3,80,70,6
3,82,64,58
3,80,65,78
3,80,108,332
3,78,89,0
3,78,103,54
3,77,96,4
3,77,101,50
3,75,78,198
3,73,68,62
3,68,77,582
3,70,99,26
3,68,74,6
3,73,101,54
3,75,108,50
3,73,74,100
3,77,94,80
3,75,81,170
3,73,67,0
3,80,101,438
3,82,86,10
3,80,89,6
3,89,94,86
3,87,73,138
3,85,72,22
3,82,73,26
3,80,64,34
3,85,117,136
3,85,117,78
3,80,75,10
3,82,84,28
3,80,81,40
3,77,74,54
3,80,70,8
3,82,99,344
3,80,87,192
3,80,103,58
3,77,94,28
3,80,93,14
3,77,78,66
3,75,66,24
3,73,77,16
3,70,74,30
3,73,69,4
3,82,96,636
3,80,105,74
3,77,101,4
3,77,99,74
3,75,83,142
3,73,86,10
3,73,84,30
3,68,91,646
3,70,87,22
3,73,94,12
3,75,93,0
3,77,99,104
3,75,69,66
3,73,70,24
3,68,75,12
3,70,86,4
3,73,93,14
3,68,65,96
3,70,72,14
3,73,91,20
3,77,96,12
3,61,2,186
3,61,2,288
3,61,2,288
3,61,2,288
3,58,2,0
3,61,2,0
3,61,2,288
3,61,3,288
3,61,3,288
3,58,3,0
3,61,3,0
3,61,3,36
3,61,3,288
3,61,3,288
3,58,3,0
3,61,3,160
3,61,3,38
3,61,4,22
3,56,4,0
3,61,4,0
3,61,4,288
3,61,4,288
3,61,4,288
3,56,4,0
3,61,4,0
3,61,4,288
3,75,105,8
3,70,78,40
3,73,80,14
3,73,101,354
3,75,88,10
3,75,89,42
3,77,103,360
3,75,105,184
3,70,78,40
3,73,80,14
4,61,86,57532
4,66,80,0
4,70,81,0
4,73,83,768
4,61,76,30
4,65,76,0
4,68,80,0
4,73,89,760
4,56,76,70
4,61,84,0
4,65,65,0
4,58,76,4
4,63,86,0
4,66,59,0
4,56,82,4
4,61,80,0
4,65,88,0
4,68,57,0
4,58,101,0
4,61,99,0
4,66,99,0
4,68,104,0
5,72,72,51354
5,73,76,4
5,56,81,4
5,75,72,0
5,57,66,4
5,72,71,0
5,55,84,4
5,70,71,0
5,57,79,4
5,72,69,0
5,60,76,4
5,75,69,0
5,58,70,4
5,73,66,0
5,82,67,4
5,80,71,4
5,60,90,4
5,61,83,4
5,77,83,0
5,80,64,4
5,65,69,4
5,85,71,0
5,63,72,4
5,65,73,4
5,66,66,4
5,82,69,0
5,65,65,4
5,63,67,4
5,61,67,4
5,63,64,4
5,80,60,4
5,82,73,4
5,66,76,4
5,85,74,0
5,68,67,4
5,80,64,0
5,65,65,4
5,77,80,0
5,68,71,4
5,80,71,0
5,73,78,4
5,85,80,0
5,70,69,4
5,82,76,0
5,80,76,4
5,82,78,4
5,66,82,4
5,68,68,4
5,85,71,0
5,82,47,6532
5,80,52,4
5,78,50,4
5,77,53,4
5,75,47,384
5,73,53,4
5,72,55,4
5,70,39,4
5,78,43,0
5,66,39,4
5,65,46,4
5,68,49,0
5,80,82,274
5,77,65,8
5,80,60,182
5,80,71,434
5,77,64,12
5,80,56,0
5,80,72,454
5,77,65,10
5,80,55,4
5,80,78,426
5,77,64,10
5,80,78,410
5,78,65,182
5,75,66,0
5,80,57,192
5,75,54,358
5,78,58,2
5,73,51,368
5,77,61,0
5,82,73,542
5,80,69,4
5,73,67,4
5,82,74,292
5,80,70,4
5,73,66,4
5,80,65,1828
5,78,65,4
5,75,62,4
5,80,58,4
5,75,55,4
5,73,51,4
6,58,109,51324
6,60,111,0
6,65,111,0
6,57,109,432
6,60,111,0
6,65,111,0
6,58,111,408
6,61,111,0
6,65,111,0
6,56,108,252
6,58,110,0
6,61,108,0
6,65,110,0
6,58,117,362
6,61,117,0
6,66,117,0
6,61,119,752
6,56,117,2
6,68,117,0
6,58,117,454
6,61,119,0
6,65,119,0
6,66,119,2
6,58,119,722
6,61,119,0
6,68,119,0
6,56,84,624
6,58,87,0
6,61,82,0
6,65,86,0
6,58,95,66
6,61,82,0
6,65,89,0
6,58,81,24
6,66,87,0
6,56,77,44
6,61,87,0
6,68,84,0
6,58,66,618
6,61,66,0
6,66,71,0
6,56,60,558
6,61,64,0
6,65,63,0
6,56,82,756
6,58,80,0
6,61,82,0
6,65,93,0
6,56,70,62
6,61,86,0
6,65,81,0
6,58,78,62
6,66,89,0
6,56,69,42
6,61,82,0
6,68,91,0
6,56,91,126
6,63,84,0
6,65,82,192
6,58,77,34
6,61,81,0
6,66,87,0
6,56,69,596
6,61,74,0
6,65,81,0
6,56,95,352
6,58,100,0
6,61,105,0
6,56,105,80
6,61,126,0
6,56,114,120
6,61,127,0
6,58,108,4
6,56,118,82
6,61,118,0
6,56,105,86
6,63,127,8
6,65,127,8
6,58,100,24
6,61,95,0
6,66,100,2
6,58,127,166
6,61,114,0
6,63,108,6
6,61,126,24
6,53,84,6
6,56,102,0
6,56,95,354
6,58,100,0
6,61,105,0
6,56,105,122
6,61,126,0
6,56,114,120
6,61,127,0
6,58,108,4
6,56,118,82
6,61,118,0
6,56,105,86
6,63,127,8
6,65,127,8
6,58,100,24
6,61,95,0
6,66,100,2
6,58,127,154
6,61,114,2
6,60,108,4
6,53,84,26
6,56,102,0
6,61,126,0
7,68,74,13714
7,80,50,0
7,65,69,4
7,77,50,0
7,68,61,4
7,80,38,0
7,68,70,388
7,80,50,0
7,65,63,4
7,77,47,0
7,68,65,484
7,80,45,0
7,65,69,4
7,77,48,0
7,68,62,4
7,80,40,0
7,68,69,292
7,80,46,0
7,65,68,4
7,77,53,0
7,68,69,388
7,80,51,0
7,66,79,4
7,78,54,0
7,63,69,4
7,75,44,0
7,68,67,4
7,80,41,0
7,66,58,4
7,78,48,0
7,65,61,4
7,77,47,0
7,68,61,4
7,80,44,0
7,73,61,4
7,85,25,0
7,61,47,4
7,68,63,292
7,80,39,0
7,65,65,4
7,77,40,0
7,68,61,4
7,80,50,0
7,68,67,292
7,80,46,0
7,65,57,4
7,77,51,0
7,68,66,388
