track,note,velocity,time
1,65,94,1860
1,65,0,58
1,65,94,2
1,65,0,58
1,65,94,2
1,65,0,58
1,65,94,2
1,65,0,88
1,63,94,2
1,63,0,28
1,62,94,2
1,62,0,88
1,65,94,2
1,65,0,28
1,70,94,2
1,70,0,88
1,72,94,2
1,72,0,28
1,74,94,2
1,74,0,88
1,74,94,2
1,74,0,28
1,74,94,2
1,74,0,88
1,72,94,2
1,72,0,28
1,70,104,2
1,70,0,118
1,70,94,62
1,70,0,28
1,70,94,2
1,70,0,28
1,67,94,2
1,67,0,88
1,67,94,2
1,67,0,28
1,67,94,2
1,67,0,88
1,69,94,2
1,69,0,28
1,70,94,2
1,70,0,88
1,70,94,2
1,70,0,28
1,69,94,2
1,69,0,88
1,67,94,2
1,67,0,28
1,65,94,2
1,65,0,88
1,67,94,2
1,67,0,28
1,65,94,2
1,65,0,88
1,62,94,2
1,62,0,28
1,65,104,2
1,65,0,118
1,65,94,62
1,65,0,28
1,65,94,2
1,65,0,28
1,65,94,2
1,65,0,88
1,65,94,2
1,65,0,28
1,65,94,2
1,65,0,88
1,63,94,2
1,63,0,28
1,62,94,2
1,62,0,88
1,65,94,2
1,65,0,28
1,70,94,2
1,70,0,88
1,72,94,2
1,72,0,28
1,74,94,2
1,74,0,88
1,74,94,2
1,74,0,28
1,74,94,2
1,74,0,88
1,72,94,2
1,72,0,28
1,70,104,2
1,70,0,118
1,70,94,62
1,70,0,58
1,72,104,2
1,72,0,208
1,72,94,2
1,72,0,28
1,70,94,2
1,70,0,118
1,69,94,2
1,69,0,118
1,70,114,2
1,70,0,238
1,65,94,242
1,65,0,178
1,63,94,2
1,63,0,58
1,62,94,2
1,62,0,88
1,65,94,2
1,65,0,28
1,70,94,2
1,70,0,88
1,72,94,2
1,72,0,28
1,74,104,2
1,74,0,238
1,70,94,2
1,70,0,118
1,67,94,122
1,67,0,88
1,67,94,2
1,67,0,28
1,67,94,2
1,67,0,88
1,69,94,2
1,69,0,28
1,70,94,2
1,70,0,88
1,70,94,2
1,70,0,28
1,69,94,2
1,69,0,88
1,67,94,2
1,67,0,28
1,65,94,2
1,65,0,118
1,62,94,2
1,62,0,118
1,65,104,2
1,65,0,238
1,65,94,2
1,65,0,178
1,63,94,2
1,63,0,58
1,62,94,2
1,62,0,88
1,65,94,2
1,65,0,28
1,70,94,2
1,70,0,88
1,72,94,2
1,72,0,28
1,74,104,2
1,74,0,238
1,70,94,2
1,70,0,118
1,70,94,62
1,70,0,58
1,72,94,2
1,72,0,118
1,72,94,2
1,72,0,118
1,70,94,2
1,70,0,118
1,69,94,2
1,69,0,118
1,70,104,2
1,70,0,238
1,65,94,60
1,65,0,28
1,65,94,2
1,65,0,28
1,65,94,2
1,65,0,58
1,65,94,2
1,65,0,58
1,65,94,2
1,65,0,88
1,63,94,2
1,63,0,28
1,62,94,2
1,62,0,88
1,65,94,2
1,65,0,28
1,70,94,2
1,70,0,88
1,72,94,2
1,72,0,28
1,74,94,2
1,74,0,88
1,72,94,2
1,72,0,28
1,74,94,2
1,74,0,88
1,72,94,2
1,72,0,28
1,70,104,2
1,70,0,118
1,70,94,62
1,70,0,28
1,70,94,2
1,70,0,28
1,67,94,2
1,67,0,88
1,67,94,2
1,67,0,28
1,67,94,2
1,67,0,88
1,69,94,2
1,69,0,28
1,70,94,2
1,70,0,88
1,70,94,2
1,70,0,28
1,69,94,2
1,69,0,88
1,67,94,2
1,67,0,28
1,65,94,2
1,65,0,88
1,67,94,2
1,67,0,28
1,65,94,2
1,65,0,88
1,62,94,2
1,62,0,28
1,65,104,2
1,65,0,118
1,65,94,62
1,65,0,28
1,65,94,2
1,65,0,28
1,65,94,2
1,65,0,88
1,65,94,2
1,65,0,28
1,65,94,2
1,65,0,88
1,63,94,2
1,63,0,28
1,62,94,2
1,62,0,88
1,65,94,2
1,65,0,28
1,70,94,2
1,70,0,88
1,72,94,2
1,72,0,28
1,74,94,2
1,74,0,88
1,74,94,2
1,74,0,28
1,74,94,2
1,74,0,88
1,72,94,2
1,72,0,28
1,70,104,2
1,70,0,118
1,70,94,62
1,70,0,58
1,72,104,2
1,72,0,208
1,72,94,2
1,72,0,28
1,70,94,2
1,70,0,118
1,69,94,2
1,69,0,118
1,70,104,2
1,70,0,238
1,65,94,242
1,65,0,178
1,63,94,2
1,63,0,58
1,62,94,2
1,62,0,88
1,65,94,2
1,65,0,28
1,70,94,2
1,70,0,88
1,72,94,2
1,72,0,28
1,74,104,2
1,74,0,238
1,70,94,2
1,70,0,118
1,67,94,122
1,67,0,88
1,67,94,2
1,67,0,28
1,67,94,2
1,67,0,88
1,69,94,2
1,69,0,28
1,70,94,2
1,70,0,88
1,70,94,2
1,70,0,28
1,69,94,2
1,69,0,88
1,67,94,2
1,67,0,28
1,65,94,2
1,65,0,118
1,62,94,2
1,62,0,118
1,65,104,2
1,65,0,238
1,65,94,2
1,65,0,178
1,63,94,2
1,63,0,58
1,62,94,2
1,62,0,88
1,65,94,2
1,65,0,28
1,70,94,2
1,70,0,88
1,72,94,2
1,72,0,28
1,74,104,2
1,74,0,238
1,70,94,2
1,70,0,118
1,70,94,62
1,70,0,58
1,72,94,2
1,72,0,118
1,72,94,2
1,72,0,118
1,70,94,2
1,70,0,118
1,69,94,2
1,69,0,118
1,70,104,2
1,70,0,238
1,65,84,60
1,65,0,28
1,65,84,2
1,65,0,28
1,65,84,2
1,65,0,58
1,65,84,2
1,65,0,58
1,65,84,2
1,65,0,88
1,63,84,2
1,63,0,28
1,62,84,2
1,62,0,88
1,65,84,2
1,65,0,28
1,70,84,2
1,70,0,88
1,72,84,2
1,72,0,28
1,74,84,2
1,74,0,88
1,72,84,2
1,72,0,28
1,74,84,2
1,74,0,88
1,72,84,2
1,72,0,28
1,70,94,2
1,70,0,118
1,70,84,62
1,70,0,28
1,70,84,2
1,70,0,28
1,67,84,2
1,67,0,88
1,67,84,2
1,67,0,28
1,67,84,2
1,67,0,88
1,69,84,2
1,69,0,28
1,70,84,2
1,70,0,88
1,70,84,2
1,70,0,28
1,69,84,2
1,69,0,88
1,67,84,2
1,67,0,28
1,65,84,2
1,65,0,88
1,67,84,2
1,67,0,28
1,65,84,2
1,65,0,88
1,62,84,2
1,62,0,28
1,65,94,2
1,65,0,118
1,65,84,62
1,65,0,28
1,65,84,2
1,65,0,28
1,65,84,2
1,65,0,88
1,65,84,2
1,65,0,28
1,65,84,2
1,65,0,88
1,63,84,2
1,63,0,28
1,62,84,2
1,62,0,88
1,65,84,2
1,65,0,28
1,70,84,2
1,70,0,88
1,72,84,2
1,72,0,28
1,74,84,2
1,74,0,88
1,74,84,2
1,74,0,28
1,74,84,2
1,74,0,88
1,72,84,2
1,72,0,28
1,70,94,2
1,70,0,118
1,70,84,62
1,70,0,58
1,72,94,2
1,72,0,208
1,72,84,2
1,72,0,28
1,70,84,2
1,70,0,118
1,69,84,2
1,69,0,118
1,70,94,2
1,70,0,238
1,65,84,242
1,65,0,178
1,63,84,2
1,63,0,58
1,62,84,2
1,62,0,88
1,65,84,2
1,65,0,28
1,70,84,2
1,70,0,88
1,72,84,2
1,72,0,28
1,74,94,2
1,74,0,238
1,70,84,2
1,70,0,118
1,67,84,122
1,67,0,88
1,67,84,2
1,67,0,28
1,67,84,2
1,67,0,88
1,69,84,2
1,69,0,28
1,70,84,2
1,70,0,88
1,70,84,2
1,70,0,28
1,69,84,2
1,69,0,88
1,67,84,2
1,67,0,28
1,65,84,2
1,65,0,118
1,62,84,2
1,62,0,118
1,65,94,2
1,65,0,238
1,65,84,2
1,65,0,178
1,63,84,2
1,63,0,58
1,62,84,2
1,62,0,88
1,65,84,2
1,65,0,28
1,70,84,2
1,70,0,88
1,72,84,2
1,72,0,28
1,74,94,2
1,74,0,238
1,70,84,2
1,70,0,118
1,70,84,62
1,70,0,58
1,72,84,2
1,72,0,118
1,72,84,2
1,72,0,118
1,70,84,2
1,70,0,118
1,69,84,2
1,69,0,118
1,70,94,2
1,70,0,238
1,65,94,60
1,65,0,28
1,65,94,2
1,65,0,28
1,65,94,2
1,65,0,58
1,65,94,2
1,65,0,58
1,65,94,2
1,65,0,88
1,63,94,2
1,63,0,28
1,62,94,2
1,62,0,88
1,65,94,2
1,65,0,28
1,70,94,2
1,70,0,88
1,72,94,2
1,72,0,28
1,74,94,2
1,74,0,88
1,72,94,2
1,72,0,28
1,74,94,2
1,74,0,88
1,72,94,2
1,72,0,28
1,70,104,2
1,70,0,118
1,70,94,62
1,70,0,28
1,70,94,2
1,70,0,28
1,67,94,2
1,67,0,88
1,67,94,2
1,67,0,28
1,67,94,2
1,67,0,88
1,69,94,2
1,69,0,28
1,70,94,2
1,70,0,88
1,70,94,2
1,70,0,28
1,69,94,2
1,69,0,88
1,67,94,2
1,67,0,28
1,65,94,2
1,65,0,88
1,67,94,2
1,67,0,28
1,65,94,2
1,65,0,88
1,62,94,2
1,62,0,28
1,65,104,2
1,65,0,118
1,65,94,62
1,65,0,28
1,65,94,2
1,65,0,28
1,65,94,2
1,65,0,88
1,65,94,2
1,65,0,28
1,65,94,2
1,65,0,88
1,63,94,2
1,63,0,28
1,62,94,2
1,62,0,88
1,65,94,2
1,65,0,28
1,70,94,2
1,70,0,88
1,72,94,2
1,72,0,28
1,74,94,2
1,74,0,88
1,74,94,2
1,74,0,28
1,74,94,2
1,74,0,88
1,72,94,2
1,72,0,28
1,70,104,2
1,70,0,118
1,70,94,62
1,70,0,58
1,72,104,2
1,72,0,208
1,72,94,2
1,72,0,28
1,70,94,2
1,70,0,118
1,69,94,2
1,69,0,118
1,70,104,2
1,70,0,238
1,65,94,242
1,65,0,178
1,63,94,2
1,63,0,58
1,62,94,2
1,62,0,88
1,65,94,2
1,65,0,28
1,70,94,2
1,70,0,88
1,72,94,2
1,72,0,28
1,74,104,2
1,74,0,238
1,70,94,2
1,70,0,118
1,67,94,122
1,67,0,88
1,67,94,2
1,67,0,28
1,67,94,2
1,67,0,88
1,69,94,2
1,69,0,28
1,70,94,2
1,70,0,88
1,70,94,2
1,70,0,28
1,69,94,2
1,69,0,88
1,67,94,2
1,67,0,28
1,65,94,2
1,65,0,118
1,62,94,2
1,62,0,118
1,65,104,2
1,65,0,238
1,65,94,2
1,65,0,178
1,63,94,2
1,63,0,58
1,62,94,2
1,62,0,88
1,65,94,2
1,65,0,28
1,70,94,2
1,70,0,88
1,72,94,2
1,72,0,28
1,74,104,2
1,74,0,238
1,70,94,2
1,70,0,118
1,70,94,62
1,70,0,58
1,72,94,2
1,72,0,118
1,72,94,2
1,72,0,118
1,70,94,2
1,70,0,118
1,69,94,2
1,69,0,118
1,70,104,2
1,70,0,238
2,62,94,5760
2,62,0,178
2,60,94,2
2,60,0,58
2,62,94,2
2,62,0,88
2,62,94,2
2,62,0,28
2,62,94,2
2,62,0,88
2,63,94,2
2,63,0,28
2,65,104,2
2,65,0,238
2,62,94,2
2,62,0,118
2,63,94,122
2,63,0,88
2,63,94,2
2,63,0,28
2,63,94,2
2,63,0,88
2,65,94,2
2,65,0,28
2,67,94,2
2,67,0,88
2,67,94,2
2,67,0,28
2,65,94,2
2,65,0,88
2,63,94,2
2,63,0,28
2,62,94,2
2,62,0,118
2,62,94,2
2,62,0,118
2,62,104,2
2,62,0,238
2,62,94,2
2,62,0,178
2,60,94,2
2,60,0,58
2,62,94,2
2,62,0,88
2,62,94,2
2,62,0,28
2,62,94,2
2,62,0,88
2,62,94,2
2,62,0,28
2,65,104,2
2,65,0,238
2,62,94,2
2,62,0,118
2,65,94,62
2,65,0,58
2,67,94,2
2,67,0,118
2,67,94,2
2,67,0,118
2,65,94,2
2,65,0,118
2,63,94,2
2,63,0,118
2,62,104,2
2,62,0,238
2,62,94,4562
2,62,0,178
2,60,94,2
2,60,0,58
2,62,94,2
2,62,0,88
2,62,94,2
2,62,0,28
2,62,94,2
2,62,0,88
2,63,94,2
2,63,0,28
2,65,94,2
2,65,0,238
2,62,94,2
2,62,0,118
2,63,94,122
2,63,0,88
2,63,94,2
2,63,0,28
2,63,94,2
2,63,0,88
2,65,94,2
2,65,0,28
2,67,94,2
2,67,0,88
2,67,94,2
2,67,0,28
2,65,94,2
2,65,0,88
2,63,94,2
2,63,0,28
2,62,94,2
2,62,0,118
2,62,94,2
2,62,0,118
2,62,94,2
2,62,0,238
2,62,94,2
2,62,0,178
2,60,94,2
2,60,0,58
2,62,94,2
2,62,0,88
2,62,94,2
2,62,0,28
2,62,94,2
2,62,0,88
2,62,94,2
2,62,0,28
2,65,94,2
2,65,0,238
2,62,94,2
2,62,0,118
2,65,94,62
2,65,0,58
2,67,94,2
2,67,0,118
2,67,94,2
2,67,0,118
2,65,94,2
2,65,0,118
2,63,94,2
2,63,0,118
2,62,104,2
2,62,0,238
2,62,94,6002
2,62,0,178
2,60,94,2
2,60,0,58
2,62,94,2
2,62,0,88
2,62,94,2
2,62,0,28
2,62,94,2
2,62,0,88
2,63,94,2
2,63,0,28
2,65,94,2
2,65,0,238
2,62,94,2
2,62,0,118
2,63,94,122
2,63,0,88
2,63,94,2
2,63,0,28
2,63,94,2
2,63,0,88
2,65,94,2
2,65,0,28
2,67,94,2
2,67,0,88
2,67,94,2
2,67,0,28
2,65,94,2
2,65,0,88
2,63,94,2
2,63,0,28
2,62,94,2
2,62,0,118
2,62,94,2
2,62,0,118
2,62,94,2
2,62,0,238
2,62,94,2
2,62,0,178
2,60,94,2
2,60,0,58
2,62,94,2
2,62,0,88
2,62,94,2
2,62,0,28
2,62,94,2
2,62,0,88
2,62,94,2
2,62,0,28
2,65,94,2
2,65,0,238
2,62,94,2
2,62,0,118
2,65,94,62
2,65,0,58
2,67,94,2
2,67,0,118
2,67,94,2
2,67,0,118
2,65,94,2
2,65,0,118
2,63,94,2
2,63,0,118
2,62,104,2
2,62,0,238
2,62,94,4562
2,62,0,178
2,60,94,2
2,60,0,58
2,62,94,2
2,62,0,88
2,62,94,2
2,62,0,28
2,62,94,2
2,62,0,88
2,63,94,2
2,63,0,28
2,65,94,2
2,65,0,238
2,62,94,2
2,62,0,118
2,63,94,122
2,63,0,88
2,63,94,2
2,63,0,28
2,63,94,2
2,63,0,88
2,65,94,2
2,65,0,28
2,67,94,2
2,67,0,88
2,67,94,2
2,67,0,28
2,65,94,2
2,65,0,88
2,63,94,2
2,63,0,28
2,62,94,2
2,62,0,118
2,62,94,2
2,62,0,118
2,62,94,2
2,62,0,238
2,62,94,2
2,62,0,178
2,60,94,2
2,60,0,58
2,62,94,2
2,62,0,88
2,62,94,2
2,62,0,28
2,62,94,2
2,62,0,88
2,62,94,2
2,62,0,28
2,65,94,2
2,65,0,238
2,62,94,2
2,62,0,118
2,65,94,62
2,65,0,58
2,67,94,2
2,67,0,118
2,67,94,2
2,67,0,118
2,65,94,2
2,65,0,118
2,63,94,2
2,63,0,118
2,62,104,2
2,62,0,238
3,46,94,5760
3,46,0,178
3,46,94,2
3,46,0,58
3,46,94,2
3,46,0,88
3,46,94,2
3,46,0,28
3,46,94,2
3,46,0,88
3,46,94,2
3,46,0,28
3,46,104,2
3,46,0,238
3,46,94,2
3,46,0,118
3,51,94,122
3,51,0,88
3,51,94,2
3,51,0,28
3,51,94,2
3,51,0,88
3,51,94,2
3,51,0,28
3,51,94,2
3,51,0,88
3,51,94,2
3,51,0,28
3,51,94,2
3,51,0,88
3,51,94,2
3,51,0,28
3,46,94,2
3,46,0,118
3,46,94,2
3,46,0,118
3,46,104,2
3,46,0,238
3,46,94,2
3,46,0,178
3,46,94,2
3,46,0,58
3,46,94,2
3,46,0,88
3,46,94,2
3,46,0,28
3,46,94,2
3,46,0,88
3,46,94,2
3,46,0,28
3,46,104,2
3,46,0,238
3,46,94,2
3,46,0,118
3,46,94,62
3,46,0,58
3,51,94,2
3,51,0,118
3,51,94,2
3,51,0,118
3,53,94,2
3,53,0,118
3,53,94,2
3,53,0,118
3,46,104,2
3,46,0,238
