track,note,velocity,time
1,42,113,2976
1,42,102,56
1,37,89,50
1,42,80,14
1,42,93,99
1,37,89,120
1,32,119,29
1,44,89,5
1,44,89,44
1,32,85,120
1,44,72,7
1,39,89,12
1,39,89,42
1,39,85,105
1,41,68,120
1,39,89,113
1,32,89,15
1,44,89,360
1,44,89,71
1,41,85,120
1,39,85,108
1,39,102,72
1,39,80,14
1,34,89,120
1,39,93,13
1,34,85,120
1,39,102,10
1,32,102,35
1,44,89,360
1,44,93,69
1,32,76,120
1,44,76,93
1,39,93,27
1,39,102,47
1,39,93,110
1,41,72,2
1,39,93,120
1,32,93,14
1,32,93,46
1,44,93,120
1,44,98,63
1,41,85,120
1,39,113,86
1,39,93,79
1,41,89,120
1,41,89,101
1,39,80,120
1,37,107,88
1,37,93,62
1,37,93,43
1,32,93,120
1,37,89,10
1,39,102,33
1,39,102,59
1,34,89,120
1,39,89,1
1,34,98,120
1,39,102,89
1,42,113,263
1,42,107,81
1,37,93,37
1,42,107,18
1,42,102,134
1,37,107,21
1,32,102,258
1,44,89,240
1,44,93,69
1,32,76,120
1,44,76,93
1,39,93,27
1,39,102,47
1,39,93,110
1,41,72,2
1,39,93,120
1,32,93,14
1,32,93,46
1,44,93,120
1,44,98,63
1,41,85,120
1,39,113,86
1,39,93,79
1,41,89,120
1,41,89,101
1,39,80,120
1,37,107,88
1,37,93,62
1,37,93,43
1,32,93,120
1,37,89,10
1,39,102,33
1,39,102,59
1,34,89,120
1,39,89,1
1,34,98,120
1,39,102,89
1,42,113,263
1,42,107,81
1,37,93,37
1,42,107,18
1,42,102,134
1,37,107,21
1,40,113,138
1,40,89,58
1,40,89,18
1,35,98,120
1,40,93,24
1,30,107,15
1,30,107,62
1,42,98,120
1,30,98,117
1,42,89,91
1,37,89,117
1,42,102,6
1,30,93,120
1,30,107,35
1,32,113,1675
1,44,113,4
1,32,102,120
1,44,107,96
1,37,102,33
1,36,102,16
1,34,102,3
1,32,89,30
1,39,102,24
1,39,93,83
1,37,93,8
1,36,98,23
1,36,98,64
1,34,89,23
1,32,98,41
1,32,113,228
1,44,113,244
1,32,102,120
1,44,107,96
1,37,102,33
1,36,102,16
1,34,102,3
1,32,89,30
1,39,102,24
1,39,93,83
1,37,93,8
1,36,98,23
1,36,98,64
1,34,89,23
1,32,98,41
1,42,113,228
1,42,102,56
1,37,89,50
1,42,80,14
1,42,93,99
1,37,89,120
1,32,119,29
1,32,102,0
1,44,89,240
1,44,93,69
1,32,76,120
1,44,76,93
1,39,93,27
1,39,102,47
1,39,93,110
1,41,72,2
1,39,93,120
1,32,93,14
1,32,93,46
1,44,93,120
1,44,98,63
1,41,85,120
1,39,113,86
1,39,93,79
1,41,89,120
1,41,89,101
1,39,80,120
1,37,107,88
1,37,93,62
1,37,93,43
1,32,93,120
1,37,89,10
1,39,102,33
1,39,102,59
1,34,89,120
1,39,89,1
1,34,98,120
1,39,102,89
1,42,113,263
1,42,107,81
1,37,93,37
1,42,107,18
1,42,102,134
1,37,107,21
1,32,102,258
1,44,89,240
1,44,93,69
1,32,76,120
1,44,76,93
1,39,93,27
1,39,102,47
1,39,93,110
1,41,72,2
1,39,93,120
1,32,93,14
1,32,93,46
1,44,93,120
1,44,98,63
1,41,85,120
1,39,113,86
1,39,93,79
1,41,89,120
1,41,89,101
1,39,80,120
1,37,107,88
1,37,93,62
1,37,93,43
1,32,93,120
1,37,89,10
1,39,102,33
1,39,102,59
1,34,89,120
1,39,89,1
1,34,98,120
1,39,102,89
1,42,113,263
1,42,107,81
1,37,93,37
1,42,107,18
1,42,102,134
1,37,107,21
1,40,113,138
1,40,89,58
1,40,89,18
1,35,98,120
1,40,93,24
1,30,107,15
1,30,107,62
1,42,98,120
1,30,98,117
1,42,89,91
1,37,89,117
1,42,102,6
1,30,93,120
1,30,107,35
1,32,113,1675
1,44,113,4
1,32,102,120
1,44,107,96
1,37,102,33
1,36,102,16
1,34,102,3
1,32,89,30
1,39,102,24
1,39,93,83
1,37,93,8
1,36,98,23
1,36,98,64
1,34,89,23
1,32,98,41
1,32,113,228
1,44,113,244
1,32,102,120
1,44,107,96
1,37,102,33
1,36,102,16
1,34,102,3
1,32,89,30
1,39,102,24
1,39,93,83
1,37,93,8
1,36,98,23
1,36,98,64
1,34,89,23
1,32,98,41
1,32,113,7200
1,44,113,4
1,32,102,120
1,44,107,96
1,37,102,33
1,36,102,16
1,34,102,3
1,32,89,30
1,39,102,24
1,39,93,83
1,37,93,8
1,36,98,23
1,36,98,64
1,34,89,23
1,32,98,41
1,32,113,228
1,44,113,244
1,32,102,120
1,44,107,96
1,37,102,33
1,36,102,16
1,34,102,3
1,32,89,30
1,39,102,24
1,39,93,83
1,37,93,8
1,36,98,23
1,36,98,64
1,34,89,23
1,32,98,41
1,32,93,0
1,32,107,57
1,44,93,29
1,41,98,39
1,39,98,42
1,32,102,120
1,32,102,91
1,36,93,120
1,32,93,108
1,41,102,20
1,39,107,48
1,36,98,120
1,37,107,47
1,37,102,120
1,36,102,16
1,34,102,3
1,32,89,30
1,39,102,24
1,39,93,83
1,37,93,8
1,36,98,23
1,36,98,64
1,34,89,23
1,32,98,41
1,32,93,0
1,32,107,57
1,44,93,29
1,41,98,39
1,39,98,42
1,32,102,120
1,32,102,91
1,36,93,120
1,32,93,108
1,41,102,20
1,39,107,48
1,36,98,120
1,37,107,47
1,37,102,120
1,36,102,16
1,34,102,3
1,32,89,30
1,39,102,24
1,39,93,83
1,37,93,8
1,36,98,23
1,36,98,64
1,34,89,23
1,32,98,41
1,32,113,0
1,44,113,4
1,32,102,120
1,44,107,96
1,37,102,33
1,36,102,16
1,34,102,3
1,32,89,30
1,39,102,24
1,39,93,83
1,37,93,8
1,36,98,23
1,36,98,64
1,34,89,23
1,32,98,41
1,32,113,228
1,44,113,244
1,32,102,120
1,44,107,96
1,37,102,33
1,36,102,16
1,34,102,3
1,32,89,30
1,39,102,24
1,39,93,83
1,37,93,8
1,36,98,23
1,36,98,64
1,34,89,23
1,32,98,41
1,42,113,228
1,42,102,56
1,37,89,50
1,42,80,14
1,42,93,99
1,37,89,120
1,32,119,29
1,32,89,12
1,44,60,164
1,32,62,22
1,44,56,51
1,32,57,24
1,44,55,33
1,32,59,15
1,44,55,25
1,32,60,29
1,44,72,20
1,32,72,20
1,44,64,13
1,32,72,18
1,44,48,14
1,32,76,17
1,44,68,17
1,32,72,19
1,44,80,14
1,32,76,227
1,44,72,76
2,54,113,2988
2,66,85,0
2,61,93,0
2,70,98,0
2,54,98,54
2,70,98,0
2,66,93,0
2,61,85,0
2,68,93,35
2,65,93,0
2,61,89,0
2,49,93,0
2,54,107,40
2,66,89,0
2,70,89,0
2,61,89,0
2,66,93,63
2,54,102,0
2,61,89,0
2,70,98,0
2,65,102,8
2,68,102,0
2,61,85,0
2,60,113,66
2,63,107,0
2,56,98,0
2,44,80,45
2,56,89,89
2,63,80,45
2,51,113,32
2,55,72,240
2,58,89,20
2,55,76,0
2,63,98,0
2,60,93,27
2,44,107,0
2,56,89,0
2,63,93,0
2,60,98,46
2,56,85,0
2,63,93,0
2,60,85,17
2,56,85,0
2,63,93,0
2,58,98,19
2,63,85,0
2,56,93,11
2,51,119,20
2,58,89,240
2,63,102,0
2,55,93,0
2,58,80,138
2,63,93,0
2,55,68,0
2,51,107,151
2,58,72,17
2,63,93,0
2,55,85,0
2,56,102,32
2,51,102,0
2,44,102,0
2,60,93,5
2,56,89,0
2,63,107,0
2,51,119,69
2,58,93,720
2,55,76,0
2,63,102,0
2,60,93,162
2,63,93,0
2,56,89,0
2,44,107,0
2,51,107,0
2,58,98,45
2,63,107,0
2,51,113,0
2,55,93,0
2,56,98,157
2,61,102,0
2,65,102,0
2,49,107,0
2,63,93,25
2,55,76,0
2,51,102,0
2,58,93,0
2,58,102,266
2,61,113,0
2,66,107,0
2,58,98,49
2,61,107,0
2,66,102,0
2,61,113,2
2,56,102,0
2,65,107,0
2,66,107,19
2,58,89,0
2,61,102,0
2,61,102,131
2,58,98,0
2,66,102,0
2,56,93,44
2,61,98,0
2,65,98,0
2,51,113,142
2,44,113,0
2,56,113,0
2,56,102,120
2,51,102,0
2,44,102,0
2,60,93,5
2,56,89,0
2,63,107,0
2,51,119,69
2,58,93,720
2,55,76,0
2,63,102,0
2,60,93,162
2,63,93,0
2,56,89,0
2,44,107,0
2,51,107,0
2,58,98,45
2,63,107,0
2,51,113,0
2,55,93,0
2,56,98,157
2,61,102,0
2,65,102,0
2,49,107,0
2,63,93,25
2,55,76,0
2,51,102,0
2,58,93,0
2,58,102,266
2,61,113,0
2,66,107,0
2,58,98,49
2,61,107,0
2,66,102,0
2,61,113,2
2,56,102,0
2,65,107,0
2,66,107,19
2,58,89,0
2,61,102,0
2,61,102,131
2,58,98,0
2,66,102,0
2,56,93,44
2,61,98,0
2,65,98,0
2,59,93,142
2,56,107,0
2,52,102,0
2,64,102,0
2,66,102,9
2,54,107,0
2,58,102,0
2,61,113,0
2,61,119,11
2,58,119,0
2,54,119,0
2,51,102,1745
2,56,107,0
2,44,107,0
2,49,113,798
2,61,102,0
2,65,107,0
2,56,93,0
2,56,72,15
2,56,80,9
2,61,98,62
2,56,102,0
2,65,102,0
2,49,98,65
2,51,113,3
2,58,85,1
2,63,102,0
2,55,89,0
2,51,89,183
2,58,85,16
2,63,89,0
2,55,76,0
2,51,107,79
2,58,60,35
2,63,89,0
2,55,89,0
2,44,119,27
2,44,107,275
2,56,107,0
2,51,102,0
2,49,113,558
2,61,102,0
2,65,107,0
2,56,93,0
2,56,72,15
2,56,80,9
2,61,98,62
2,56,102,0
2,65,102,0
2,49,98,65
2,51,113,3
2,58,85,1
2,63,102,0
2,55,89,0
2,51,89,183
2,58,85,16
2,63,89,0
2,55,76,0
2,51,107,79
2,58,60,35
2,63,89,0
2,55,89,0
2,44,119,27
2,54,113,275
2,66,85,0
2,61,93,0
2,70,98,0
2,54,98,54
2,70,98,0
2,66,93,0
2,61,85,0
2,68,93,35
2,65,93,0
2,61,89,0
2,49,93,0
2,54,107,40
2,66,89,0
2,70,89,0
2,61,89,0
2,66,93,63
2,54,102,0
2,61,89,0
2,70,98,0
2,65,102,8
2,68,102,0
2,61,85,0
2,60,113,66
2,63,107,0
2,56,98,0
2,56,102,0
2,51,102,0
2,44,102,0
2,60,93,5
2,56,89,0
2,63,107,0
2,51,119,69
2,58,93,720
2,55,76,0
2,63,102,0
2,60,93,162
2,63,93,0
2,56,89,0
2,44,107,0
2,51,107,0
2,58,98,45
2,63,107,0
2,51,113,0
2,55,93,0
2,56,98,157
2,61,102,0
2,65,102,0
2,49,107,0
2,63,93,25
2,55,76,0
2,51,102,0
2,58,93,0
2,58,102,266
2,61,113,0
2,66,107,0
2,58,98,49
2,61,107,0
2,66,102,0
2,61,113,2
2,56,102,0
2,65,107,0
2,66,107,19
2,58,89,0
2,61,102,0
2,61,102,131
2,58,98,0
2,66,102,0
2,56,93,44
2,61,98,0
2,65,98,0
2,51,113,142
2,44,113,0
2,56,113,0
2,56,102,120
2,51,102,0
2,44,102,0
2,60,93,5
2,56,89,0
2,63,107,0
2,51,119,69
2,58,93,720
2,55,76,0
2,63,102,0
2,60,93,162
2,63,93,0
2,56,89,0
2,44,107,0
2,51,107,0
2,58,98,45
2,63,107,0
2,51,113,0
2,55,93,0
2,56,98,157
2,61,102,0
2,65,102,0
2,49,107,0
2,63,93,25
2,55,76,0
2,51,102,0
2,58,93,0
2,58,102,266
2,61,113,0
2,66,107,0
2,58,98,49
2,61,107,0
2,66,102,0
2,61,113,2
2,56,102,0
2,65,107,0
2,66,107,19
2,58,89,0
2,61,102,0
2,61,102,131
2,58,98,0
2,66,102,0
2,56,93,44
2,61,98,0
2,65,98,0
2,59,93,142
2,56,107,0
2,52,102,0
2,64,102,0
2,66,102,9
2,54,107,0
2,58,102,0
2,61,113,0
2,61,119,11
2,58,119,0
2,54,119,0
2,51,102,1745
2,56,107,0
2,44,107,0
2,49,113,798
2,61,102,0
2,65,107,0
2,56,93,0
2,56,72,15
2,56,80,9
2,61,98,62
2,56,102,0
2,65,102,0
2,49,98,65
2,51,113,3
2,58,85,1
2,63,102,0
2,55,89,0
2,51,89,183
2,58,85,16
2,63,89,0
2,55,76,0
2,51,107,79
2,58,60,35
2,63,89,0
2,55,89,0
2,44,119,27
2,44,107,275
2,56,107,0
2,51,102,0
2,49,113,558
2,61,102,0
2,65,107,0
2,56,93,0
2,56,72,15
2,56,80,9
2,61,98,62
2,56,102,0
2,65,102,0
2,49,98,65
2,51,113,3
2,58,85,1
2,63,102,0
2,55,89,0
2,51,89,183
2,58,85,16
2,63,89,0
2,55,76,0
2,51,107,79
2,58,60,35
2,63,89,0
2,55,89,0
2,44,119,27
2,51,102,6995
2,56,107,0
2,44,107,0
2,49,113,798
2,61,102,0
2,65,107,0
2,56,93,0
2,56,72,15
2,56,80,9
2,61,98,62
2,56,102,0
2,65,102,0
2,49,98,65
2,51,113,3
2,58,85,1
2,63,102,0
2,55,89,0
2,51,89,183
2,58,85,16
2,63,89,0
2,55,76,0
2,51,107,79
2,58,60,35
2,63,89,0
2,55,89,0
2,44,119,27
2,44,107,275
2,56,107,0
2,51,102,0
2,49,113,558
2,61,102,0
2,65,107,0
2,56,93,0
2,56,72,15
2,56,80,9
2,61,98,62
2,56,102,0
2,65,102,0
2,49,98,65
2,51,113,3
2,58,85,1
2,63,102,0
2,55,89,0
2,51,89,183
2,58,85,16
2,63,89,0
2,55,76,0
2,51,107,79
2,58,60,35
2,63,89,0
2,55,89,0
2,44,119,27
2,56,76,35
2,60,85,0
2,63,93,0
2,44,98,120
2,60,85,38
2,56,85,0
2,63,98,0
2,44,93,5
2,56,72,25
2,60,93,0
2,63,85,0
2,44,89,40
2,56,93,81
2,61,98,0
2,65,102,0
2,56,89,46
2,60,98,0
2,63,102,0
2,44,98,112
2,56,89,49
2,60,98,40
2,56,98,0
2,63,107,0
2,44,102,120
2,63,60,45
2,60,64,0
2,56,76,0
2,60,113,20
2,56,93,0
2,63,107,0
2,56,93,11
2,61,107,0
2,65,102,0
2,49,113,120
2,61,102,0
2,65,107,0
2,56,93,0
2,56,72,15
2,56,80,9
2,61,98,62
2,56,102,0
2,65,102,0
2,49,98,65
2,51,113,3
2,58,85,1
2,63,102,0
2,55,89,0
2,51,89,183
2,58,85,16
2,63,89,0
2,55,76,0
2,51,107,79
2,58,60,35
2,63,89,0
2,55,89,0
2,44,119,27
2,56,76,35
2,60,85,0
2,63,93,0
2,44,98,120
2,60,85,38
2,56,85,0
2,63,98,0
2,44,93,5
2,56,72,25
2,60,93,0
2,63,85,0
2,44,89,40
2,56,93,81
2,61,98,0
2,65,102,0
2,56,89,46
2,60,98,0
2,63,102,0
2,44,98,112
2,56,89,49
2,60,98,40
2,56,98,0
2,63,107,0
2,44,102,120
2,63,60,45
2,60,64,0
2,56,76,0
2,60,113,20
2,56,93,0
2,63,107,0
2,56,93,11
2,61,107,0
2,65,102,0
2,49,113,120
2,61,102,0
2,65,107,0
2,56,93,0
2,56,72,15
2,56,80,9
2,61,98,62
2,56,102,0
2,65,102,0
2,49,98,65
2,51,113,3
2,58,85,1
2,63,102,0
2,55,89,0
2,51,89,183
2,58,85,16
2,63,89,0
2,55,76,0
2,51,107,79
2,58,60,35
2,63,89,0
2,55,89,0
2,44,119,27
2,51,102,35
2,56,107,0
2,44,107,0
2,49,113,798
2,61,102,0
2,65,107,0
2,56,93,0
2,56,72,15
2,56,80,9
2,61,98,62
2,56,102,0
2,65,102,0
2,49,98,65
2,51,113,3
2,58,85,1
2,63,102,0
2,55,89,0
2,51,89,183
2,58,85,16
2,63,89,0
2,55,76,0
2,51,107,79
2,58,60,35
2,63,89,0
2,55,89,0
2,44,119,27
2,44,107,275
2,56,107,0
2,51,102,0
2,49,113,558
2,61,102,0
2,65,107,0
2,56,93,0
2,56,72,15
2,56,80,9
