track,note,velocity,time
1,35,127,480
1,42,127,0
1,35,0,48
1,42,0,0
1,44,127,12
1,44,0,48
1,37,127,12
1,42,127,0
1,37,0,48
1,42,0,0
1,35,127,12
1,44,127,0
1,35,0,48
1,44,0,0
1,35,127,12
1,42,127,0
1,35,0,48
1,42,0,0
1,44,127,12
1,44,0,48
1,37,127,12
1,42,127,0
1,37,0,48
1,42,0,0
1,44,127,12
1,44,0,48
1,35,127,12
1,42,127,0
1,35,0,48
1,42,0,0
1,44,127,12
1,44,0,48
1,37,127,12
1,42,127,0
1,37,0,48
1,42,0,0
1,35,127,12
1,44,127,0
1,35,0,48
1,44,0,0
1,35,127,12
1,42,127,0
1,35,0,48
1,42,0,0
1,44,127,12
1,44,0,48
1,37,127,12
1,42,127,0
1,37,0,48
1,42,0,0
1,44,127,12
1,44,0,48
1,35,127,12
1,42,127,0
1,35,0,48
1,42,0,0
1,44,127,12
1,44,0,48
1,37,127,12
1,42,127,0
1,37,0,48
1,42,0,0
1,35,127,12
1,44,127,0
1,35,0,48
1,44,0,0
1,35,127,12
1,42,127,0
1,35,0,48
1,42,0,0
1,44,127,12
1,44,0,48
1,37,127,12
1,42,127,0
1,37,0,48
1,42,0,0
1,44,127,12
1,44,0,48
1,35,127,12
1,42,127,0
1,35,0,48
1,42,0,0
1,44,127,12
1,44,0,48
1,37,127,12
1,42,127,0
1,37,0,48
1,42,0,0
1,35,127,12
1,44,127,0
1,35,0,48
1,44,0,0
1,35,127,12
1,42,127,0
1,35,0,48
1,42,0,0
1,44,127,12
1,44,0,48
1,37,127,12
1,42,127,0
1,37,0,48
1,42,0,0
1,44,127,12
1,44,0,48
1,35,127,12
1,42,127,0
1,35,0,48
1,42,0,0
1,44,127,12
1,44,0,48
1,37,127,12
1,42,127,0
1,37,0,48
1,42,0,0
1,35,127,12
1,44,127,0
1,35,0,48
1,44,0,0
1,35,127,12
1,42,127,0
1,35,0,48
1,42,0,0
1,44,127,12
1,44,0,48
1,37,127,12
1,42,127,0
1,37,0,48
1,42,0,0
1,44,127,12
1,44,0,48
1,35,127,12
1,42,127,0
1,35,0,48
1,42,0,0
1,44,127,12
1,44,0,48
1,37,127,12
1,42,127,0
1,37,0,48
1,42,0,0
1,35,127,12
1,44,127,0
1,35,0,48
1,44,0,0
1,35,127,12
1,42,127,0
1,35,0,48
1,42,0,0
1,44,127,12
1,44,0,48
1,37,127,12
1,42,127,0
1,37,0,48
1,42,0,0
1,44,127,12
1,44,0,48
1,35,127,12
1,42,127,0
1,35,0,48
1,42,0,0
1,44,127,12
1,44,0,48
1,37,127,12
1,42,127,0
1,37,0,48
1,42,0,0
1,35,127,12
1,44,127,0
1,35,0,48
1,44,0,0
1,35,127,12
1,42,127,0
1,35,0,48
1,42,0,0
1,44,127,12
1,44,0,48
1,37,127,12
1,42,127,0
1,37,0,48
1,42,0,0
1,44,127,12
1,44,0,48
1,35,127,12
1,42,127,0
1,35,0,48
1,42,0,0
1,44,127,12
1,44,0,48
1,37,127,12
1,42,127,0
1,37,0,48
1,42,0,0
1,35,127,12
1,44,127,0
1,35,0,48
1,44,0,0
1,35,127,12
1,42,127,0
1,35,0,48
1,42,0,0
1,44,127,12
1,44,0,48
1,37,127,12
1,42,127,0
1,37,0,48
1,42,0,0
1,44,127,12
1,44,0,48
1,35,127,12
1,42,127,0
1,35,0,48
1,42,0,0
1,44,127,12
1,44,0,48
1,37,127,12
1,42,127,0
1,37,0,48
1,42,0,0
1,35,127,12
1,44,127,0
1,35,0,48
1,44,0,0
1,35,127,12
1,42,127,0
1,35,0,48
1,42,0,0
1,44,127,12
1,44,0,48
1,37,127,12
1,42,127,0
1,37,0,48
1,42,0,0
1,44,127,12
1,44,0,48
1,35,127,12
1,42,127,0
1,35,0,48
1,42,0,0
1,44,127,12
1,44,0,48
1,37,127,12
1,42,127,0
1,37,0,48
1,42,0,0
1,35,127,12
1,44,127,0
1,35,0,48
1,44,0,0
1,35,127,12
1,42,127,0
1,35,0,48
1,42,0,0
1,44,127,12
1,44,0,48
1,37,127,12
1,42,127,0
1,37,0,48
1,42,0,0
1,44,127,12
1,44,0,48
1,35,127,12
1,42,127,0
1,35,0,48
1,42,0,0
1,44,127,12
1,44,0,48
1,37,127,12
1,42,127,0
1,37,0,48
1,42,0,0
1,35,127,12
1,44,127,0
1,35,0,48
1,44,0,0
1,35,127,12
1,42,127,0
1,35,0,48
1,42,0,0
1,44,127,12
1,44,0,48
1,37,127,12
1,42,127,0
1,37,0,48
1,42,0,0
1,44,127,12
1,44,0,48
1,35,127,12
1,42,127,0
1,35,0,48
1,42,0,0
1,44,127,12
1,44,0,48
1,37,127,12
1,37,0,48
1,37,127,72
1,37,0,48
1,50,105,72
1,37,127,0
1,50,0,48
1,37,0,0
1,48,97,12
1,35,127,0
1,48,0,24
1,35,0,0
1,52,99,36
1,35,127,0
1,52,0,48
1,35,0,0
1,44,127,12
1,44,0,24
1,57,79,6
1,35,127,0
1,57,0,24
1,35,0,0
1,37,127,6
1,42,127,0
1,37,0,48
1,42,0,0
1,49,77,12
1,35,127,0
1,49,0,48
1,35,0,0
1,42,127,12
1,35,127,30
1,42,0,18
1,44,127,12
1,35,0,18
1,44,0,30
1,37,127,12
1,42,127,0
1,37,0,48
1,42,0,0
1,44,127,12
1,44,0,24
1,36,127,6
1,36,0,24
1,35,127,6
1,42,127,0
1,35,0,48
1,42,0,0
1,61,73,10
1,44,127,2
1,61,0,10
1,44,0,38
1,37,127,12
1,42,127,0
1,37,0,48
1,42,0,0
1,35,127,12
1,44,127,0
1,63,62,1
1,63,0,15
1,63,69,13
1,35,0,19
1,44,0,0
1,63,0,2
1,35,127,10
1,42,127,0
1,35,0,48
1,42,0,0
1,44,127,12
1,61,56,1
1,61,0,13
1,44,0,34
1,37,127,12
1,42,127,0
1,61,57,24
1,61,0,18
1,37,0,6
1,42,0,0
1,63,65,12
1,44,127,0
1,63,0,14
1,63,74,15
1,44,0,19
1,63,0,1
1,35,127,11
1,42,127,0
1,35,0,48
1,42,0,0
1,44,127,12
1,61,71,1
1,61,0,8
1,44,0,39
1,37,127,12
1,42,127,0
1,37,0,48
1,42,0,0
1,63,73,12
1,35,127,0
1,44,127,0
1,63,0,13
1,63,69,18
1,35,0,17
1,44,0,0
1,63,0,0
1,35,127,12
1,42,127,0
1,35,0,48
1,42,0,0
1,61,65,9
1,44,127,3
1,61,0,9
1,44,0,39
1,37,127,12
1,42,127,0
1,61,30,32
1,61,0,10
1,37,0,6
1,42,0,0
1,63,71,12
1,44,127,0
1,63,0,13
1,63,75,17
1,63,0,17
1,44,0,1
1,35,127,12
1,42,127,0
1,35,0,48
1,42,0,0
1,44,127,12
1,61,65,2
1,61,0,11
1,44,0,35
1,37,127,12
1,42,127,0
1,37,0,48
1,42,0,0
1,35,127,12
1,44,127,0
1,63,70,3
1,63,0,16
1,63,77,11
1,35,0,18
1,44,0,0
1,63,0,6
1,35,127,6
1,42,127,0
1,35,0,48
1,42,0,0
1,44,127,12
1,61,62,2
1,61,0,12
1,44,0,34
1,37,127,12
1,42,127,0
1,37,0,48
1,42,0,0
1,63,64,12
1,44,127,0
1,63,0,15
1,63,69,16
1,44,0,17
1,63,0,3
1,35,127,9
1,42,127,0
1,35,0,48
1,42,0,0
1,61,69,11
1,44,127,1
1,61,0,16
1,44,0,32
1,37,127,12
1,42,127,0
1,37,0,48
1,42,0,0
1,63,64,10
1,35,127,2
1,44,127,0
1,63,0,12
1,63,64,18
1,35,0,18
1,44,0,0
1,63,0,3
1,35,127,9
1,42,127,0
1,35,0,48
1,42,0,0
1,61,67,11
1,44,127,1
1,61,0,10
1,44,0,38
1,37,127,12
1,42,127,0
1,37,0,48
1,42,0,0
1,63,75,12
1,44,127,0
1,63,0,12
1,63,75,18
1,63,0,15
1,44,0,3
1,35,127,12
1,42,127,0
1,35,0,48
1,42,0,0
1,44,127,12
1,61,69,1
1,61,0,14
1,44,0,33
1,37,127,12
1,42,127,0
1,61,52,26
1,61,0,14
1,37,0,8
1,42,0,0
1,63,61,12
1,35,127,0
1,44,127,0
1,63,0,16
1,63,74,15
1,35,0,17
1,44,0,0
1,63,0,7
1,35,127,5
1,42,127,0
1,35,0,48
1,42,0,0
1,44,127,12
1,61,65,1
1,61,0,7
1,44,0,40
1,37,127,12
1,42,127,0
1,60,60,30
1,60,0,11
1,37,0,7
1,42,0,0
1,63,76,12
1,44,127,0
1,63,0,15
1,63,75,14
1,44,0,19
1,63,0,4
1,35,127,8
1,42,127,0
1,35,0,48
1,42,0,0
1,61,60,11
1,44,127,1
1,61,0,11
1,44,0,37
1,37,127,12
1,42,127,0
1,60,28,35
1,37,0,13
1,42,0,0
1,60,0,0
1,35,127,12
1,44,127,0
1,63,66,3
1,63,0,15
1,63,74,12
1,35,0,18
1,44,0,0
1,63,0,3
1,35,127,9
1,42,127,0
1,35,0,48
1,42,0,0
1,61,66,10
1,44,127,2
1,61,0,13
1,44,0,35
1,37,127,12
1,42,127,0
1,60,60,29
1,60,0,15
1,37,0,4
1,42,0,0
1,63,64,11
1,44,127,1
1,63,0,13
1,63,64,16
1,44,0,19
1,63,0,1
1,35,127,11
1,42,127,0
1,35,0,48
1,42,0,0
1,61,63,9
1,44,127,3
1,61,0,13
1,44,0,35
1,37,127,12
1,42,127,0
1,60,55,29
1,60,0,13
1,37,0,6
1,42,0,0
1,63,71,10
1,35,127,2
1,44,127,0
1,63,0,11
1,63,78,16
1,35,0,21
1,44,0,0
1,63,0,1
1,35,127,11
1,42,127,0
1,35,0,48
1,42,0,0
1,61,65,12
1,44,127,0
1,61,0,17
1,44,0,31
1,37,127,12
1,42,127,0
1,60,59,31
1,60,0,14
1,37,0,3
1,42,0,0
1,44,127,12
1,63,59,1
1,63,0,14
1,63,74,13
1,44,0,20
1,63,0,3
1,35,127,9
1,42,127,0
1,35,0,48
1,42,0,0
1,61,55,11
1,44,127,1
1,61,0,13
1,44,0,35
1,37,127,12
1,37,0,48
1,60,57,14
1,60,0,8
1,60,57,23
1,60,0,9
1,37,127,18
1,37,0,48
1,35,127,72
1,50,98,0
1,50,0,24
1,35,0,24
1,36,127,12
1,48,97,0
1,36,0,24
1,48,0,24
1,57,80,12
1,35,127,0
1,57,0,48
1,35,0,0
1,52,80,42
1,35,127,0
1,52,0,24
1,35,0,24
1,49,81,42
1,35,127,0
1,49,0,48
1,35,0,0
1,42,127,12
1,35,127,30
1,42,0,18
1,44,127,12
1,35,0,18
1,44,0,30
1,37,127,12
1,42,127,0
1,37,0,48
1,42,0,0
1,63,64,9
1,44,127,3
1,63,0,12
1,36,89,14
1,63,66,2
1,44,0,20
1,36,0,6
1,63,0,1
1,35,127,5
1,42,127,0
1,35,0,48
1,42,0,0
1,61,72,7
1,44,127,5
1,61,0,20
1,44,0,28
1,37,127,12
1,42,127,0
1,37,0,24
1,42,0,0
1,46,127,6
1,46,0,24
1,63,62,6
1,35,127,0
1,44,127,0
1,63,0,12
1,63,55,17
1,35,0,19
1,44,0,0
1,63,0,2
1,35,127,10
1,42,127,0
1,35,0,48
1,42,0,0
1,61,74,12
1,44,127,0
1,61,0,13
1,44,0,35
1,37,127,12
1,42,127,0
1,80,56,31
1,80,0,9
1,37,0,8
1,42,0,0
1,44,127,12
1,81,53,1
1,44,0,47
1,81,0,8
1,35,127,4
1,42,127,0
1,35,0,48
1,42,0,0
1,63,74,8
1,44,127,4
1,63,0,14
1,44,0,34
1,37,127,12
1,42,127,0
1,37,0,48
1,42,0,0
1,35,127,12
1,44,127,0
1,63,71,30
1,63,0,16
1,35,0,2
1,44,0,0
1,35,127,12
1,42,127,0
1,35,0,48
1,42,0,0
1,61,69,12
1,44,127,0
1,61,0,13
1,44,0,11
1,46,127,6
1,46,0,24
1,37,127,6
1,42,127,0
1,60,46,31
1,60,0,16
1,37,0,1
1,42,0,0
1,63,71,12
1,44,127,0
1,63,0,15
1,63,77,14
1,44,0,19
1,63,0,5
1,35,127,7
1,42,127,0
1,35,0,48
1,42,0,0
1,44,127,12
1,61,75,1
1,61,0,10
1,44,0,37
1,37,127,12
1,42,127,0
1,60,61,30
1,60,0,11
1,37,0,7
1,42,0,0
1,63,75,11
1,35,127,1
1,44,127,0
1,63,0,14
1,63,73,15
1,35,0,19
1,44,0,0
1,63,0,0
1,35,127,12
1,42,127,0
1,61,71,32
1,61,0,10
1,35,0,6
1,42,0,0
1,80,57,11
1,44,127,1
1,80,0,10
1,44,0,14
1,80,63,0
1,46,127,6
1,80,0,10
1,46,0,14
1,81,62,5
1,37,127,1
1,42,127,0
1,37,0,48
1,42,0,0
1,63,71,9
1,44,127,3
1,63,0,11
1,81,0,11
1,44,0,26
1,35,127,12
1,42,127,0
1,35,0,48
1,42,0,0
1,63,64,7
1,44,127,5
1,63,0,8
1,63,78,15
1,63,0,23
1,44,0,2
1,37,127,12
1,42,127,0
1,37,0,48
1,42,0,0
1,61,77,9
1,35,127,3
1,44,127,0
1,61,0,11
1,35,0,37
1,44,0,0
1,35,127,12
1,42,127,0
1,60,41,31
1,60,0,9
1,35,0,8
1,42,0,0
1,44,127,12
1,63,71,2
1,63,0,14
1,63,74,12
1,44,0,20
1,63,0,2
1,43,103,10
1,37,127,0
1,43,0,48
1,37,0,0
1,61,65,10
1,44,127,2
1,61,0,9
1,44,0,15
1,36,127,6
1,36,0,22
1,59,92,5
1,35,127,3
1,42,127,0
1,85,64,29
1,85,0,6
1,35,0,13
1,42,0,0
1,70,57,12
1,44,127,0
1,70,0,8
1,80,49,23
1,59,0,15
1,44,0,2
1,80,0,5
1,85,62,5
1,59,88,2
1,37,127,0
1,42,127,0
1,85,0,12
1,70,63,19
1,70,0,10
1,37,0,7
1,42,0,0
1,35,127,12
1,44,127,0
1,82,44,6
1,82,0,9
1,82,55,16
1,82,0,12
1,59,0,4
1,35,0,1
1,44,0,0
1,35,127,12
1,42,127,0
1,59,94,1
1,70,63,1
1,70,0,10
1,82,60,20
1,82,0,7
1,35,0,9
1,42,0,0
1,44,127,12
1,70,67,29
1,70,0,12
1,59,0,4
1,44,0,3
1,59,92,12
1,37,127,0
1,42,127,0
1,37,0,48
1,42,0,0
1,44,127,12
1,75,77,3
1,75,0,7
1,75,86,19
1,59,0,14
1,75,0,4
1,44,0,1
1,59,94,11
1,35,127,1
1,42,127,0
1,70,56,1
1,70,0,5
1,35,0,42
1,42,0,0
1,44,127,12
1,70,52,4
1,70,0,5
1,80,60,21
1,80,0,9
1,59,0,4
1,44,0,5
1,59,90,12
1,37,127,0
1,42,127,0
1,81,58,1
1,37,0,47
1,42,0,0
1,35,127,12
1,44,127,0
1,59,0,40
1,35,0,8
1,44,0,0
1,81,0,5
1,59,98,4
1,35,127,3
1,42,127,0
1,70,58,2
1,70,0,11
1,75,59,17
1,75,0,8
1,35,0,10
1,42,0,0
1,44,127,12
1,75,40,4
1,75,0,8
1,70,64,21
1,70,0,11
1,59,0,1
1,44,0,3
1,37,127,12
1,42,127,0
1,59,94,1
1,82,53,2
1,82,0,14
1,37,0,31
1,42,0,0
1,44,127,12
1,70,64,3
1,70,0,12
1,85,86,17
1,59,0,7
1,85,0,8
1,44,0,1
1,59,94,12
1,35,127,0
1,42,127,0
1,70,72,30
1,70,0,8
1,35,0,10
1,42,0,0
1,44,127,12
1,85,94,2
1,85,0,30
1,59,0,10
1,44,0,6
1,59,94,11
1,37,127,1
1,42,127,0
1,85,88,34
1,37,0,14
1,42,0,0
1,85,0,0
1,35,127,12
1,44,127,0
1,70,70,30
1,59,0,9
1,70,0,2
1,35,0,7
1,44,0,0
1,59,101,10
1,35,127,2
1,42,127,0
1,75,62,3
1,75,0,13
1,75,60,15
1,75,0,6
1,35,0,11
1,42,0,0
1,44,127,12
1,80,61,1
1,80,0,7
1,80,56,22
1,59,0,13
1,44,0,5
1,80,0,6
1,37,127,6
1,42,127,0
1,59,89,1
1,81,77,1
