track,note,velocity,time
3,42,100,480
3,49,100,1
3,49,0,58
3,42,0,0
3,42,100,1
3,49,100,1
3,49,0,58
3,42,0,0
3,42,100,1
3,49,100,1
3,49,0,58
3,42,0,0
3,42,100,1
3,49,100,1
3,49,0,58
3,42,0,0
3,43,100,1
3,50,100,1
3,50,0,58
3,43,0,0
3,43,100,1
3,50,100,1
3,50,0,58
3,43,0,0
3,43,100,1
3,50,100,1
3,50,0,58
3,43,0,0
3,43,100,1
3,50,100,1
3,50,0,58
3,43,0,0
3,44,100,1
3,51,100,1
3,51,0,58
3,44,0,0
3,44,100,1
3,51,100,1
3,51,0,58
3,44,0,0
3,44,100,1
3,51,100,1
3,51,0,58
3,44,0,0
3,44,100,1
3,51,100,1
3,51,0,58
3,44,0,0
3,45,100,1
3,52,100,1
3,52,0,58
3,45,0,0
3,45,100,1
3,52,100,1
3,52,0,58
3,45,0,0
3,45,100,1
3,52,100,1
3,52,0,58
3,45,0,0
3,45,100,1
3,52,100,1
3,52,0,58
3,45,0,0
3,46,100,1
3,53,100,1
3,53,0,58
3,46,0,0
3,46,100,1
3,53,100,1
3,53,0,58
3,46,0,0
3,46,100,1
3,53,100,1
3,53,0,58
3,46,0,0
3,46,100,1
3,53,100,1
3,53,0,58
3,46,0,0
3,47,100,1
3,54,100,1
3,54,0,58
3,47,0,0
3,47,100,1
3,54,100,1
3,54,0,58
3,47,0,0
3,47,100,1
3,54,100,1
3,54,0,58
3,47,0,0
3,47,100,1
3,54,100,1
3,54,0,58
3,47,0,0
3,48,100,1
3,55,100,1
3,55,0,58
3,48,0,0
3,48,100,1
3,55,100,1
3,55,0,58
3,48,0,0
3,48,100,1
3,55,100,1
3,55,0,58
3,48,0,0
3,48,100,1
3,55,100,1
3,55,0,58
3,48,0,0
3,49,100,1
3,56,100,1
3,56,0,58
3,49,0,0
3,49,100,1
3,56,100,1
3,56,0,58
3,49,0,0
3,49,100,1
3,56,100,1
3,56,0,58
3,49,0,0
3,49,100,1
3,56,100,1
3,56,0,58
3,49,0,0
3,40,100,1
3,40,0,60
3,50,100,0
3,50,0,59
3,40,100,1
3,40,0,60
3,52,100,0
3,52,0,60
3,40,100,0
3,40,0,60
3,55,100,0
3,55,0,120
3,40,100,0
3,40,0,60
3,50,100,0
3,50,0,59
3,40,100,1
3,40,0,60
3,52,100,0
3,52,0,60
3,40,100,0
3,40,0,60
3,50,100,0
3,50,0,120
3,40,100,0
3,40,0,60
3,50,100,0
3,50,0,59
3,40,100,1
3,40,0,60
3,52,100,0
3,52,0,60
3,40,100,0
3,40,0,60
3,55,100,0
3,55,0,59
3,47,100,1
3,47,0,59
3,50,100,1
3,50,0,59
3,51,100,1
3,51,0,59
3,52,100,1
3,52,0,59
3,55,100,1
3,55,0,59
3,45,100,1
3,45,0,59
3,46,100,1
3,46,0,59
3,47,100,1
3,47,0,59
3,50,100,1
3,50,0,59
3,40,100,1
3,40,0,60
3,50,100,0
3,50,0,59
3,40,100,1
3,40,0,60
3,52,100,0
3,52,0,60
3,40,100,0
3,40,0,60
3,55,100,0
3,55,0,120
3,40,100,0
3,40,0,60
3,50,100,0
3,50,0,59
3,40,100,1
3,40,0,60
3,52,100,0
3,52,0,60
3,40,100,0
3,40,0,60
3,50,100,0
3,50,0,120
3,40,100,0
3,40,0,60
3,50,100,0
3,50,0,59
3,40,100,1
3,40,0,60
3,52,100,0
3,52,0,60
3,40,100,0
3,40,0,60
3,55,100,0
3,55,0,59
3,47,100,1
3,47,0,59
3,57,100,1
3,57,0,59
3,55,100,1
3,55,0,59
3,52,100,1
3,52,0,59
3,51,100,1
3,51,0,59
3,50,100,1
3,50,0,59
3,47,100,1
3,47,0,59
3,46,100,1
3,46,0,59
3,45,100,1
3,45,0,59
3,54,100,1
3,49,100,0
3,42,100,0
3,42,0,60
3,49,0,0
3,54,0,0
3,54,100,60
3,49,100,0
3,42,100,0
3,42,0,60
3,49,0,0
3,54,0,0
3,54,100,60
3,49,100,0
3,42,100,0
3,42,0,7
3,49,0,0
3,54,0,0
3,54,100,53
3,47,100,0
3,59,100,0
3,59,0,180
3,47,0,0
3,54,0,0
3,54,100,0
3,49,100,0
3,42,100,0
3,42,0,60
3,49,0,0
3,54,0,0
3,54,100,60
3,49,100,0
3,42,100,0
3,42,0,60
3,49,0,0
3,54,0,0
3,54,100,60
3,49,100,0
3,42,100,0
3,42,0,7
3,49,0,0
3,54,0,0
3,47,100,53
3,40,100,0
3,52,100,0
3,52,0,180
3,40,0,0
3,47,0,0
3,49,100,0
3,42,100,0
3,54,100,0
3,54,0,60
3,42,0,0
3,49,0,0
3,54,100,60
3,49,100,0
3,42,100,0
3,42,0,60
3,49,0,0
3,54,0,0
3,54,100,60
3,49,100,0
3,42,100,0
3,42,0,7
3,49,0,0
3,54,0,0
3,54,100,53
3,47,100,0
3,59,100,0
3,59,0,180
3,47,0,0
3,54,0,0
3,42,100,0
3,49,100,0
3,49,0,120
3,42,0,0
3,43,100,0
3,50,100,0
3,50,0,120
3,43,0,0
3,51,100,0
3,44,100,0
3,44,0,120
3,51,0,0
3,52,100,0
3,45,100,0
3,45,0,120
3,52,0,0
3,40,100,0
3,40,0,60
3,50,100,0
3,50,0,59
3,40,100,1
3,40,0,60
3,52,100,0
3,52,0,60
3,40,100,0
3,40,0,60
3,55,100,0
3,55,0,120
3,40,100,0
3,40,0,60
3,50,100,0
3,50,0,59
3,40,100,1
3,40,0,60
3,52,100,0
3,52,0,60
3,40,100,0
3,40,0,60
3,50,100,0
3,50,0,120
3,40,100,0
3,40,0,60
3,50,100,0
3,50,0,59
3,40,100,1
3,40,0,60
3,52,100,0
3,52,0,60
3,40,100,0
3,40,0,60
3,55,100,0
3,55,0,59
3,47,100,1
3,47,0,59
3,50,100,1
3,50,0,59
3,51,100,1
3,51,0,59
3,52,100,1
3,52,0,59
3,55,100,1
3,55,0,59
3,45,100,1
3,45,0,59
3,46,100,1
3,46,0,59
3,47,100,1
3,47,0,59
3,50,100,1
3,50,0,59
3,54,100,1
3,42,100,0
3,49,100,0
3,49,0,60
3,42,0,0
3,54,0,0
3,42,100,60
3,54,100,0
3,49,100,0
3,49,0,60
3,54,0,0
3,42,0,0
3,54,100,60
3,49,100,0
3,42,100,0
3,42,0,7
3,49,0,0
3,54,0,0
3,47,100,53
3,54,100,0
3,59,100,0
3,59,0,180
3,54,0,0
3,47,0,0
3,49,100,0
3,42,100,0
3,54,100,0
3,54,0,60
3,42,0,0
3,49,0,0
3,54,100,60
3,49,100,0
3,42,100,0
3,42,0,60
3,49,0,0
3,54,0,0
3,49,100,60
3,54,100,0
3,42,100,0
3,42,0,7
3,54,0,0
3,49,0,0
3,40,100,53
3,52,100,0
3,47,100,0
3,47,0,180
3,52,0,0
3,40,0,0
3,54,100,0
3,42,100,0
3,49,100,0
3,49,0,60
3,42,0,0
3,54,0,0
3,49,100,60
3,54,100,0
3,42,100,0
3,42,0,60
3,54,0,0
3,49,0,0
3,49,100,60
3,54,100,0
3,42,100,0
3,42,0,7
3,54,0,0
3,49,0,0
3,47,100,53
3,54,100,0
3,59,100,0
3,59,0,180
3,54,0,0
3,47,0,0
3,42,100,0
3,49,100,0
3,49,0,120
3,42,0,0
3,50,100,0
3,43,100,0
3,43,0,120
3,50,0,0
3,51,100,0
3,44,100,0
3,44,0,120
3,51,0,0
3,45,100,0
3,52,100,0
3,52,0,120
3,45,0,0
3,40,100,0
3,40,0,60
3,50,100,0
3,50,0,59
3,40,100,1
3,40,0,60
3,52,100,0
3,52,0,60
3,40,100,0
3,40,0,60
3,55,100,0
3,55,0,120
3,40,100,0
3,40,0,60
3,50,100,0
3,50,0,59
3,40,100,1
3,40,0,60
3,52,100,0
3,52,0,60
3,40,100,0
3,40,0,60
3,50,100,0
3,50,0,120
3,40,100,0
3,40,0,60
3,50,100,0
3,50,0,59
3,40,100,1
3,40,0,60
3,52,100,0
3,52,0,60
3,40,100,0
3,40,0,60
3,55,100,0
3,55,0,59
3,47,100,1
3,47,0,59
3,57,100,1
3,57,0,59
3,55,100,1
3,55,0,59
3,52,100,1
3,52,0,59
3,51,100,1
3,51,0,59
3,50,100,1
3,50,0,59
3,47,100,1
3,47,0,59
3,46,100,1
3,46,0,59
3,45,100,1
3,45,0,59
3,60,100,1
3,55,100,0
3,48,100,0
3,48,0,59
3,55,0,0
3,60,0,0
3,62,100,1
3,57,100,0
3,50,100,0
3,50,0,60
3,57,0,0
3,62,0,0
3,60,100,0
3,55,100,0
3,48,100,0
3,48,0,59
3,55,0,0
3,60,0,0
3,60,100,1
3,55,100,0
3,48,100,0
3,60,0,59
3,48,0,1
3,55,0,0
3,62,100,0
3,57,100,0
3,50,100,0
3,50,0,59
3,57,0,0
3,62,0,0
3,57,100,61
3,50,100,0
3,62,100,0
3,62,0,59
3,50,0,0
3,57,0,0
3,64,100,1
3,59,100,0
3,52,100,0
3,52,0,60
3,59,0,0
3,64,0,0
3,57,100,0
3,50,100,0
3,62,100,0
3,62,0,59
3,50,0,0
3,57,0,0
3,62,100,1
3,57,100,0
3,50,100,0
3,62,0,59
3,50,0,1
3,57,0,0
3,64,100,0
3,59,100,0
3,52,100,0
3,52,0,59
3,59,0,0
3,64,0,0
3,66,100,1
3,61,100,0
3,54,100,0
3,54,0,719
3,61,0,0
3,66,0,0
3,66,100,1
3,61,100,0
3,54,100,0
3,54,0,60
3,61,0,0
3,66,0,0
3,66,100,60
3,61,100,0
3,54,100,0
3,54,0,7
3,61,0,0
3,66,0,0
3,66,100,53
3,61,100,0
3,54,100,0
3,54,0,359
3,61,0,0
3,66,0,0
3,59,100,1
3,66,100,0
3,66,0,60
3,59,0,0
3,66,100,60
3,61,100,0
3,54,100,0
3,54,0,359
3,61,0,0
3,66,0,0
3,59,100,1
3,66,100,0
3,66,0,60
3,59,0,0
3,66,100,60
3,61,100,0
3,54,100,0
3,54,0,60
3,61,0,0
3,66,0,0
3,64,100,60
3,59,100,0
3,52,100,0
3,52,0,59
3,59,0,0
3,64,0,0
3,64,100,1
3,59,100,0
3,52,100,0
3,52,0,59
3,59,0,0
3,64,0,0
3,64,100,1
3,59,100,0
3,52,100,0
3,52,0,59
3,59,0,0
3,64,0,0
3,64,100,1
3,59,100,0
3,52,100,0
3,52,0,59
3,59,0,0
3,64,0,0
3,64,100,1
3,59,100,0
3,52,100,0
3,52,0,59
3,59,0,0
3,64,0,0
3,59,100,1
3,54,100,0
3,47,100,0
3,47,0,119
3,54,0,0
3,59,0,0
3,64,100,61
3,59,100,0
3,52,100,0
3,52,0,59
3,59,0,0
3,64,0,0
3,64,100,1
3,59,100,0
3,52,100,0
3,52,0,59
3,59,0,0
3,64,0,0
3,64,100,1
3,59,100,0
3,52,100,0
3,52,0,59
3,59,0,0
3,64,0,0
3,64,100,1
3,59,100,0
3,52,100,0
3,52,0,59
3,59,0,0
3,64,0,0
3,64,100,1
3,59,100,0
3,52,100,0
3,52,0,59
3,59,0,0
3,64,0,0
3,59,100,1
3,54,100,0
3,47,100,0
3,47,0,60
3,54,0,0
3,59,0,0
3,66,100,0
3,61,100,0
3,54,100,0
3,54,0,359
3,61,0,0
3,66,0,0
3,59,100,1
3,66,100,0
3,66,0,60
3,59,0,0
3,66,100,60
3,61,100,0
3,54,100,0
3,54,0,359
3,61,0,0
3,66,0,0
3,59,100,1
3,66,100,0
3,66,0,60
3,59,0,0
3,66,100,60
3,61,100,0
3,54,100,0
3,54,0,60
3,61,0,0
3,66,0,0
3,64,100,60
3,59,100,0
3,52,100,0
3,52,0,59
3,59,0,0
3,64,0,0
3,64,100,1
3,59,100,0
3,52,100,0
3,52,0,59
3,59,0,0
3,64,0,0
3,64,100,1
3,59,100,0
3,52,100,0
3,52,0,59
3,59,0,0
3,64,0,0
3,64,100,1
3,59,100,0
3,52,100,0
3,52,0,59
3,59,0,0
3,64,0,0
3,64,100,1
3,59,100,0
3,52,100,0
3,52,0,59
3,59,0,0
3,64,0,0
3,59,100,1
3,54,100,0
3,47,100,0
3,47,0,119
3,54,0,0
3,59,0,0
3,64,100,61
3,59,100,0
3,52,100,0
3,52,0,59
3,59,0,0
3,64,0,0
3,64,100,1
3,59,100,0
3,52,100,0
3,52,0,59
3,59,0,0
3,64,0,0
3,64,100,1
3,59,100,0
3,52,100,0
3,52,0,59
3,59,0,0
3,64,0,0
3,64,100,1
3,59,100,0
3,52,100,0
3,52,0,59
3,59,0,0
3,64,0,0
3,64,100,1
3,59,100,0
3,52,100,0
3,52,0,59
3,59,0,0
3,64,0,0
3,59,100,1
3,54,100,0
3,47,100,0
3,47,0,119
3,54,0,0
3,59,0,0
3,40,100,1
3,40,0,60
3,50,100,0
3,50,0,59
3,40,100,1
3,40,0,60
3,52,100,0
3,52,0,60
3,40,100,0
3,40,0,60
3,55,100,0
3,55,0,120
3,40,100,0
3,40,0,60
3,50,100,0
3,50,0,59
3,40,100,1
3,40,0,60
3,52,100,0
3,52,0,60
3,40,100,0
3,40,0,60
3,50,100,0
3,50,0,120
3,40,100,0
3,40,0,60
3,50,100,0
3,50,0,59
3,40,100,1
3,40,0,60
3,52,100,0
3,52,0,60
3,40,100,0
3,40,0,60
3,55,100,0
3,55,0,59
3,47,100,1
3,47,0,59
3,50,100,1
3,50,0,59
3,51,100,1
3,51,0,59
3,52,100,1
3,52,0,59
3,55,100,1
3,55,0,59
3,45,100,1
3,45,0,59
3,46,100,1
3,46,0,59
3,47,100,1
3,47,0,59
3,50,100,1
3,50,0,59
3,40,100,1
3,40,0,60
3,57,100,0
3,57,0,59
3,40,100,1
3,40,0,60
3,59,100,0
3,59,0,60
3,40,100,0
3,40,0,60
3,62,100,0
3,62,0,120
3,40,100,0
3,40,0,60
3,57,100,0
3,57,0,59
3,40,100,1
3,40,0,60
3,59,100,0
3,59,0,60
3,40,100,0
3,40,0,60
3,57,100,0
3,57,0,120
3,40,100,0
3,40,0,60
3,57,100,0
3,57,0,59
3,40,100,1
3,40,0,60
3,59,100,0
3,59,0,60
3,40,100,0
3,40,0,60
3,62,100,0
3,62,0,59
3,47,100,1
3,47,0,59
3,64,100,1
3,64,0,59
3,62,100,1
3,62,0,59
3,59,100,1
3,59,0,59
3,58,100,1
3,58,0,59
3,57,100,1
3,57,0,59
3,54,100,1
3,54,0,59
3,53,100,1
3,53,0,59
3,52,100,1
3,52,0,59
3,49,100,1
3,54,100,0
3,42,100,0
3,42,0,60
3,54,0,0
3,49,0,0
3,49,100,60
3,54,100,0
3,42,100,0
3,42,0,60
3,54,0,0
3,49,0,0
3,49,100,60
3,54,100,0
3,42,100,0
3,42,0,7
3,54,0,0
3,49,0,0
3,47,100,53
3,54,100,0
3,59,100,0
3,59,0,180
3,54,0,0
3,47,0,0
3,49,100,0
3,54,100,0
3,42,100,0
3,42,0,60
3,54,0,0
3,49,0,0
3,49,100,60
3,54,100,0
3,42,100,0
3,42,0,60
3,54,0,0
3,49,0,0
3,49,100,60
3,54,100,0
3,42,100,0
3,42,0,7
3,54,0,0
3,49,0,0
3,40,100,53
3,47,100,0
3,52,100,0
3,52,0,180
3,47,0,0
3,40,0,0
3,49,100,0
3,54,100,0
3,42,100,0
3,42,0,60
3,54,0,0
3,49,0,0
3,49,100,60
3,54,100,0
3,42,100,0
3,42,0,60
3,54,0,0
3,49,0,0
3,49,100,60
3,54,100,0
3,42,100,0
3,42,0,7
3,54,0,0
3,49,0,0
3,47,100,53
3,54,100,0
3,59,100,0
3,59,0,180
3,54,0,0
3,47,0,0
3,42,100,0
3,49,100,0
3,49,0,120
3,42,0,0
3,50,100,0
3,43,100,0
3,43,0,120
3,50,0,0
3,51,100,0
3,44,100,0
3,44,0,120
3,51,0,0
3,45,100,0
3,52,100,0
3,52,0,120
3,45,0,0
3,40,100,0
3,40,0,60
3,50,100,0
3,50,0,59
3,40,100,1
3,40,0,60
3,52,100,0
3,52,0,60
3,40,100,0
3,40,0,60
