track,note,velocity,time
1,67,127,12288
1,67,127,128
1,69,127,64
1,72,127,128
1,74,127,128
1,74,127,192
1,76,127,64
1,72,127,832
1,72,127,64
1,76,127,64
1,76,127,128
1,72,127,128
1,74,127,128
1,69,127,64
1,69,127,192
1,72,127,1280
1,71,127,64
1,69,127,64
1,71,127,64
1,69,127,64
1,67,127,128
1,69,127,64
1,67,127,64
1,72,127,1024
1,72,127,64
1,76,127,64
1,76,127,128
1,72,127,128
1,74,127,128
1,76,127,64
1,76,127,192
1,72,127,1408
1,72,127,128
1,72,127,64
1,72,127,128
1,71,127,128
1,71,127,192
1,69,127,64
1,67,127,64
1,67,127,512
1,67,127,64
1,72,127,64
1,72,127,128
1,74,127,128
1,72,127,128
1,71,127,64
1,71,127,192
1,67,127,1088
1,72,127,64
1,72,127,128
1,72,127,128
1,72,127,128
1,71,127,64
1,71,127,192
1,69,127,64
1,67,127,1024
1,69,127,64
1,72,127,128
1,76,127,64
1,69,127,128
1,72,127,64
1,69,127,1664
1,72,127,128
1,76,127,64
1,74,127,128
1,72,127,64
1,67,127,1472
1,67,127,64
1,67,127,128
1,69,127,64
1,72,127,128
1,74,127,128
1,74,127,192
1,76,127,64
1,72,127,832
1,72,127,64
1,76,127,64
1,76,127,128
1,72,127,128
1,74,127,128
1,69,127,64
1,69,127,192
1,72,127,1280
1,71,127,64
1,69,127,64
1,71,127,256
1,69,127,64
1,67,127,64
1,72,127,1024
1,72,127,64
1,76,127,64
1,76,127,128
1,72,127,128
1,74,127,128
1,76,127,64
1,76,127,192
1,72,127,1408
1,72,127,128
1,72,127,64
1,72,127,128
1,71,127,128
1,71,127,192
1,69,127,64
1,67,127,64
1,67,127,512
1,67,127,64
1,72,127,64
1,72,127,128
1,74,127,128
1,72,127,128
1,71,127,64
1,71,127,192
1,67,127,1088
1,72,127,64
1,72,127,128
1,72,127,128
1,72,127,128
1,71,127,64
1,71,127,192
1,69,127,64
1,67,127,1024
1,69,127,64
1,72,127,128
1,76,127,64
1,69,127,128
1,72,127,64
1,69,127,1664
1,72,127,128
1,76,127,64
1,74,127,128
1,72,127,64
1,67,127,27392
1,67,127,128
1,69,127,64
1,69,127,64
1,72,127,128
1,74,127,64
1,76,127,64
1,72,127,1120
1,72,127,32
1,76,127,64
1,76,127,64
1,74,127,640
1,74,127,64
1,69,127,64
1,69,127,192
1,69,127,1216
1,72,127,64
1,71,127,64
1,69,127,64
1,71,127,64
1,69,127,128
1,67,127,64
1,69,127,64
1,67,127,64
1,72,127,1024
1,72,127,128
1,72,127,1536
1,81,127,1468
1,76,127,64
1,79,127,64
1,79,127,192
1,79,127,0
1,81,127,64
2,48,106,0
2,55,106,64
2,60,106,64
2,55,106,64
2,57,106,128
2,55,106,128
2,57,106,128
2,50,106,64
2,50,106,384
2,52,106,64
2,43,106,64
2,43,106,384
2,45,106,64
2,48,106,64
2,60,106,768
2,62,106,64
2,55,106,128
2,55,106,64
2,55,106,128
2,57,106,64
2,50,106,64
2,50,106,640
2,52,106,64
2,43,106,64
2,48,106,768
2,48,106,64
2,50,106,64
2,50,106,64
2,52,106,64
2,45,106,508
2,43,106,256
2,41,106,256
2,40,106,384
2,43,106,256
2,45,106,64
2,48,106,64
2,48,106,256
2,50,106,128
2,52,106,128
2,52,106,256
2,45,106,256
2,45,106,64
2,41,106,64
2,40,106,508
2,50,106,508
2,50,106,256
2,52,106,128
2,53,106,128
2,53,106,128
2,55,106,128
2,55,106,128
2,57,106,128
2,57,106,1536
2,57,106,0
2,57,106,0
2,45,106,256
2,43,106,128
2,41,106,128
2,43,106,320
2,48,106,320
2,48,106,384
2,48,106,768
2,48,106,64
2,48,106,64
2,48,106,64
2,50,106,64
2,50,106,64
2,52,106,64
2,45,106,508
2,43,106,256
2,41,106,256
2,40,106,384
2,43,106,256
2,45,106,64
2,48,106,64
2,48,106,256
2,50,106,128
2,52,106,128
2,52,106,256
2,45,106,256
2,45,106,64
2,41,106,64
2,40,106,508
2,50,106,508
2,50,106,256
2,52,106,128
2,53,106,128
2,53,106,128
2,55,106,128
2,55,106,128
2,57,106,128
2,57,106,508
2,60,106,128
2,64,106,64
2,57,106,128
2,60,106,64
2,45,106,256
2,43,106,128
2,41,106,128
2,43,106,320
2,48,106,320
2,60,106,768
2,62,106,64
2,55,106,256
2,55,106,128
2,55,106,64
2,57,106,64
2,50,84,64
2,50,84,384
2,52,84,64
2,43,84,64
2,50,84,448
2,55,84,64
2,50,84,64
2,48,84,64
2,55,84,576
2,60,84,64
2,55,84,64
2,62,84,64
2,62,84,128
2,60,84,64
2,55,84,64
2,57,84,64
2,50,84,64
2,50,84,384
2,51,84,64
2,52,84,64
2,40,84,256
2,45,84,256
2,43,84,384
2,45,84,384
2,43,84,128
2,43,84,64
2,41,84,64
2,41,84,384
2,41,84,64
2,40,84,64
2,52,84,256
2,40,84,128
2,48,84,64
2,50,84,64
2,50,84,256
2,52,84,128
2,53,84,128
2,55,84,256
2,55,84,192
2,56,84,32
2,57,84,32
2,45,84,256
2,43,84,128
2,41,84,128
2,43,84,320
2,48,84,320
2,48,84,384
2,48,84,128
2,48,84,64
2,50,84,64
2,50,84,64
2,52,84,64
2,45,84,508
2,43,84,256
2,41,84,256
2,43,84,256
3,79,100,0
3,60,100,0
3,67,100,64
3,72,100,64
3,79,100,64
3,67,100,64
3,72,100,64
3,79,100,64
3,72,100,64
3,77,100,64
3,76,100,64
3,67,100,64
3,74,100,64
3,67,100,64
3,72,100,64
3,64,100,64
3,67,100,64
3,62,100,64
3,69,100,64
3,74,100,64
3,77,100,64
3,62,100,64
3,69,100,64
3,77,100,64
3,72,100,64
3,71,100,64
3,67,100,0
3,79,100,64
3,72,100,64
3,79,100,64
3,74,100,64
3,67,100,64
3,77,100,64
3,67,100,64
3,60,100,64
3,76,100,0
3,64,100,64
3,67,100,64
3,72,100,64
3,79,100,0
3,72,100,128
3,79,100,64
3,67,100,64
3,77,100,64
3,76,100,64
3,67,100,64
3,74,100,64
3,67,100,64
3,72,100,64
3,64,100,64
3,67,100,64
3,62,100,64
3,69,100,64
3,74,100,64
3,77,100,64
3,62,100,64
3,69,100,64
3,77,100,64
3,79,100,256
3,74,100,0
3,67,100,0
3,62,100,0
3,59,100,0
3,55,100,0
3,60,100,508
3,64,100,64
3,67,100,64
3,76,100,64
3,64,100,64
3,67,100,64
3,76,100,64
3,72,100,64
3,62,100,64
3,69,100,64
3,74,100,64
3,77,100,64
3,62,100,64
3,69,100,64
3,77,100,64
3,71,100,64
3,52,100,64
3,59,100,0
3,64,100,64
3,67,100,64
3,76,100,64
3,71,100,0
3,71,100,128
3,67,100,64
3,71,100,64
3,64,100,64
3,57,100,0
3,69,100,64
3,72,100,64
3,67,100,64
3,62,100,64
3,55,100,0
3,67,100,64
3,71,100,64
3,67,100,64
3,65,100,64
3,69,100,64
3,72,100,64
3,77,100,64
3,65,100,64
3,69,100,64
3,77,100,64
3,72,100,64
3,62,100,64
3,55,100,0
3,67,100,64
3,74,100,64
3,79,100,64
3,62,100,64
3,67,100,64
3,79,100,64
3,74,100,64
3,62,100,64
3,59,100,0
3,67,100,64
3,76,100,64
3,72,100,64
3,64,100,64
3,67,100,64
3,76,100,64
3,71,100,64
3,52,100,64
3,59,100,0
3,64,100,0
3,69,100,0
3,71,100,64
3,76,100,64
3,71,100,64
3,52,100,64
3,59,100,0
3,64,100,0
3,68,100,0
3,71,100,64
3,76,100,64
3,71,100,64
3,64,100,64
3,57,100,0
3,69,100,64
3,76,100,64
3,72,100,64
3,64,100,64
3,69,100,64
3,76,100,64
3,72,100,64
3,62,100,64
3,55,100,0
3,67,100,64
3,74,100,64
3,79,100,64
3,62,100,64
3,67,100,64
3,79,100,64
3,74,100,64
3,65,100,64
3,69,100,64
3,72,100,64
3,79,100,64
3,65,100,64
3,69,100,64
3,79,100,64
3,72,100,64
3,59,100,64
3,52,100,0
3,64,100,64
3,67,100,64
3,71,100,64
3,76,100,0
3,64,100,64
3,67,100,64
3,76,100,64
3,71,100,64
3,62,100,64
3,69,100,64
3,72,100,64
3,78,100,64
3,62,100,64
3,69,100,64
3,78,100,64
3,72,100,64
3,65,100,64
3,69,100,64
3,77,100,64
3,72,100,64
3,67,100,64
3,62,100,0
3,55,100,0
3,74,100,64
3,79,100,64
3,76,100,256
3,72,100,0
3,69,100,0
3,64,100,0
3,57,100,0
3,76,100,256
3,72,100,0
3,69,100,0
3,64,100,0
3,57,100,0
3,79,100,128
3,74,100,0
3,67,100,0
3,62,100,0
3,59,100,0
3,55,100,0
3,77,100,128
3,72,100,0
3,69,100,0
3,65,100,0
3,60,100,0
3,53,100,0
3,79,100,320
3,74,100,0
3,71,100,0
3,67,100,0
3,62,100,0
3,55,100,0
3,76,100,320
3,72,100,0
3,67,100,0
3,64,100,0
3,60,100,0
3,67,100,256
3,72,100,64
3,74,100,64
3,77,100,64
3,60,100,64
3,64,100,64
3,67,100,64
3,76,100,64
3,64,100,64
3,67,100,64
3,76,100,64
3,72,100,64
3,62,100,64
3,69,100,64
3,74,100,64
3,77,100,64
3,62,100,64
3,69,100,64
3,77,100,64
3,71,100,64
3,59,100,64
3,52,100,0
3,64,100,64
3,67,100,64
3,76,100,64
3,71,100,0
3,71,100,128
3,67,100,64
3,71,100,64
3,64,100,64
3,57,100,0
3,69,100,64
3,72,100,64
3,67,100,64
3,62,100,64
3,55,100,0
3,67,100,64
3,71,100,64
3,67,100,64
3,65,100,64
3,69,100,64
3,72,100,64
3,77,100,64
3,65,100,64
3,69,100,64
3,77,100,64
3,72,100,64
3,62,100,64
3,55,100,0
3,67,100,64
3,74,100,64
3,79,100,64
3,62,100,64
3,67,100,64
3,79,100,64
3,74,100,64
3,64,100,64
3,60,100,0
3,67,100,64
3,76,100,64
3,72,100,64
3,64,100,64
3,67,100,64
3,76,100,64
3,71,100,64
3,69,100,64
3,64,100,0
3,59,100,0
3,52,100,0
3,71,100,64
3,76,100,64
3,71,100,64
3,68,100,64
3,64,100,0
3,59,100,0
3,52,100,0
3,71,100,64
3,76,100,64
3,71,100,64
3,64,100,64
3,57,100,0
3,69,100,64
3,76,100,64
3,72,100,64
3,64,100,64
3,69,100,64
3,76,100,64
3,72,100,64
3,62,100,64
3,55,100,0
3,67,100,64
3,74,100,64
3,79,100,64
3,62,100,64
3,67,100,64
3,79,100,64
3,74,100,64
3,65,100,64
3,69,100,64
3,72,100,64
3,79,100,64
3,65,100,64
3,69,100,64
3,79,100,64
3,72,100,64
3,59,100,64
3,52,100,0
3,64,100,64
3,67,100,64
3,71,100,64
3,76,100,0
3,64,100,64
3,67,100,64
3,76,100,64
3,71,100,64
3,62,100,64
3,69,100,64
3,72,100,64
3,78,100,64
3,62,100,64
3,69,100,64
3,78,100,64
3,72,100,64
3,65,100,64
3,69,100,64
3,77,100,64
3,72,100,64
3,67,100,64
3,62,100,0
3,55,100,0
3,74,100,64
3,79,100,64
3,76,100,256
3,72,100,0
3,69,100,0
3,64,100,0
3,57,100,0
3,76,100,256
3,72,100,0
3,69,100,0
3,64,100,0
3,57,100,0
3,79,100,128
3,74,100,0
3,67,100,0
3,62,100,0
3,59,100,0
3,55,100,0
3,77,100,128
3,72,100,0
3,69,100,0
3,65,100,0
3,60,100,0
3,53,100,0
3,79,100,320
3,72,100,0
3,69,100,0
3,65,100,0
3,60,100,0
3,53,100,0
3,79,100,320
3,60,100,0
3,67,100,64
3,72,100,64
3,79,100,64
3,67,100,64
3,72,100,64
3,79,100,64
3,72,100,64
3,77,100,64
3,76,100,64
3,67,100,64
3,74,100,64
3,67,100,64
3,72,100,64
3,64,100,64
3,67,100,64
3,62,100,64
3,69,100,64
3,74,100,64
3,77,100,64
3,62,100,64
3,69,100,64
3,77,100,64
3,72,100,64
3,71,100,64
3,67,100,0
3,79,100,64
3,72,100,64
3,79,100,64
3,74,100,64
3,67,100,64
3,77,100,64
3,67,100,64
3,60,100,64
3,76,100,0
3,64,100,64
3,67,100,64
3,72,100,64
3,79,100,0
3,72,100,128
3,79,100,64
3,67,100,64
3,77,100,64
3,76,100,64
3,67,100,64
3,74,100,64
3,67,100,64
3,72,100,64
3,64,100,64
3,67,100,64
3,62,100,64
3,69,100,64
3,74,100,64
3,77,100,64
3,62,100,64
3,69,100,64
3,77,100,64
3,79,100,256
3,74,100,0
3,67,100,0
3,62,100,0
3,59,100,0
3,55,100,0
3,64,100,508
3,57,100,0
3,69,100,64
3,76,100,64
3,72,100,64
3,64,100,64
3,69,100,64
3,76,100,64
3,72,100,64
3,62,100,64
3,55,100,0
3,67,100,64
3,74,100,64
3,79,100,64
3,62,100,64
3,67,100,64
3,79,100,64
3,74,100,64
3,65,100,64
3,69,100,64
3,72,100,64
3,79,100,64
3,65,100,64
3,69,100,64
3,79,100,64
3,72,100,64
3,59,100,64
3,52,100,0
3,64,100,64
3,67,100,64
3,71,100,64
3,76,100,0
3,64,100,64
3,67,100,64
3,76,100,64
3,71,100,64
3,62,100,64
3,69,100,64
3,72,100,64
3,78,100,64
3,62,100,64
3,69,100,64
3,78,100,64
3,72,100,64
3,65,100,64
3,69,100,64
3,77,100,64
3,72,100,64
3,67,100,64
3,62,100,0
3,55,100,0
3,74,100,64
3,79,100,64
3,76,100,256
3,72,100,0
3,69,100,0
3,64,100,0
3,57,100,0
3,76,100,256
3,72,100,0
3,69,100,0
3,64,100,0
3,57,100,0
3,79,100,128
3,74,100,0
3,67,100,0
3,62,100,0
3,59,100,0
3,55,100,0
3,77,100,128
3,72,100,0
3,69,100,0
3,65,100,0
3,60,100,0
3,53,100,0
3,79,100,320
3,74,100,0
3,71,100,0
3,67,100,0
3,62,100,0
3,55,100,0
3,76,100,320
3,72,100,0
3,67,100,0
3,64,100,0
3,60,100,0
3,67,100,256
3,72,100,64
3,74,100,64
3,77,100,64
3,76,100,64
3,62,100,508
3,69,100,64
3,74,100,64
3,77,100,64
3,62,100,64
3,69,100,64
3,77,100,64
3,71,100,64
3,64,100,64
3,67,100,64
3,76,100,64
3,71,100,64
3,64,100,64
3,67,100,64
3,76,100,64
3,71,100,64
3,64,100,64
3,69,100,64
3,76,100,64
3,72,100,64
3,62,100,64
3,67,100,64
3,71,100,64
3,67,100,64
3,65,100,64
3,69,100,64
3,72,100,64
3,69,100,64
3,65,100,64
3,69,100,64
3,65,100,64
3,79,100,256
3,74,100,0
3,67,100,0
3,62,100,0
3,59,100,0
3,55,100,0
3,71,100,3580
3,79,100,64
3,72,100,64
3,79,100,64
3,74,100,64
3,77,100,128
3,76,100,128
3,72,100,0
3,67,100,0
3,64,100,0
3,60,100,0
4,60,100,0
4,79,100,0
4,72,100,64
4,67,100,64
4,72,100,64
4,79,100,0
4,67,100,64
4,67,100,64
4,72,100,0
4,79,100,64
4,72,100,64
4,77,100,64
4,76,100,64
4,74,100,128
4,72,100,128
4,67,100,128
4,62,100,64
4,69,100,64
4,84,100,64
4,77,100,64
4,62,100,64
4,77,100,64
4,84,100,0
4,67,100,64
4,55,100,256
4,67,100,64
4,71,100,0
4,67,100,64
4,72,100,0
4,57,100,64
4,59,100,64
4,67,100,0
4,74,100,0
4,59,100,64
4,62,100,64
4,67,100,0
4,77,100,0
4,67,100,64
4,60,100,64
4,76,100,0
4,64,100,64
4,67,100,64
4,72,100,64
4,79,100,0
4,79,100,128
4,72,100,0
4,79,100,64
4,67,100,64
4,77,100,64
4,76,100,64
4,67,100,64
4,74,100,64
4,72,100,128
4,67,100,64
4,71,100,64
4,62,100,64
4,69,100,64
4,84,100,64
4,77,100,64
4,62,100,64
4,69,100,64
4,77,100,64
4,84,100,0
4,67,100,64
4,79,100,64
4,71,100,0
4,67,100,0
4,62,100,0
4,59,100,0
4,55,100,0
4,55,100,508
4,64,100,64
4,67,100,64
4,76,100,64
4,72,100,0
4,72,100,128
4,76,100,64
4,67,100,64
4,62,100,64
4,69,100,64
4,74,100,64
4,77,100,64
4,81,100,0
4,77,100,128
4,81,100,64
