track,note,velocity,time
1,59,100,0
1,64,100,240
1,64,100,0
1,59,100,0
1,59,100,0
1,64,100,240
1,64,100,0
1,59,100,0
1,55,100,0
1,60,100,240
1,64,100,240
1,60,100,0
1,57,100,0
1,62,100,240
1,64,100,240
1,62,100,0
1,59,100,0
1,64,100,240
1,64,100,0
1,59,100,0
1,59,100,0
1,64,100,240
1,64,100,0
1,59,100,0
1,55,100,0
1,60,100,240
1,64,100,240
1,60,100,0
1,57,100,0
1,62,100,240
1,64,100,240
1,62,100,0
1,59,100,0
1,64,100,240
1,64,100,0
1,59,100,0
1,59,100,0
1,64,100,240
1,64,100,0
1,59,100,0
1,55,100,0
1,60,100,240
1,64,100,240
1,60,100,0
1,57,100,0
1,62,100,240
1,64,100,240
1,62,100,0
1,59,100,0
1,64,100,240
1,64,100,0
1,59,100,0
1,59,100,0
1,64,100,240
1,64,100,0
1,59,100,0
1,55,100,0
1,60,100,240
1,64,100,240
1,60,100,0
1,57,100,0
1,62,100,240
1,64,100,240
1,62,100,0
1,59,100,0
1,64,100,240
1,64,100,0
1,59,100,0
1,59,100,0
1,64,100,240
1,64,100,0
1,59,100,0
1,55,100,0
1,60,100,240
1,64,100,240
1,60,100,0
1,57,100,0
1,62,100,240
1,64,100,240
1,62,100,0
1,59,100,0
1,64,100,240
1,64,100,0
1,59,100,0
1,59,100,0
1,64,100,240
1,64,100,0
1,59,100,0
1,55,100,0
1,60,100,240
1,64,100,240
1,60,100,0
1,57,100,0
1,62,100,240
1,64,100,240
1,62,100,0
1,64,100,14400
1,60,100,240
1,66,100,0
1,62,100,240
1,55,100,11520
1,60,100,480
1,64,100,0
1,60,100,0
1,57,100,0
1,62,100,480
1,66,100,0
1,62,100,0
1,59,100,3840
1,64,100,240
1,64,100,0
1,59,100,0
1,59,100,0
1,64,100,240
1,64,100,0
1,59,100,0
1,55,100,0
1,60,100,240
1,64,100,240
1,60,100,0
1,57,100,0
1,62,100,240
1,64,100,240
1,62,100,0
1,59,100,0
1,64,100,240
1,64,100,0
1,59,100,0
1,59,100,0
1,64,100,240
1,64,100,0
1,59,100,0
1,55,100,0
1,60,100,240
1,64,100,240
1,60,100,0
1,57,100,0
1,62,100,240
1,64,100,240
1,62,100,0
1,59,100,0
1,64,100,240
1,64,100,0
1,59,100,0
1,59,100,0
1,64,100,240
1,64,100,0
1,59,100,0
1,55,100,0
1,60,100,240
1,64,100,240
1,60,100,0
1,57,100,0
1,62,100,240
1,64,100,240
1,62,100,0
1,59,100,0
1,64,100,240
1,64,100,0
1,59,100,0
1,59,100,0
1,64,100,240
1,64,100,0
1,59,100,0
1,55,100,0
1,60,100,240
1,64,100,240
1,60,100,0
1,57,100,0
1,62,100,240
1,64,100,240
1,62,100,0
1,59,100,0
1,64,100,240
1,64,100,0
1,59,100,0
1,59,100,0
1,64,100,240
1,64,100,0
1,59,100,0
1,55,100,0
1,60,100,240
1,64,100,240
1,60,100,0
1,57,100,0
1,62,100,240
1,64,100,240
1,62,100,0
1,64,100,14400
1,60,100,240
1,66,100,0
1,62,100,240
1,55,100,11520
1,60,100,480
1,64,100,0
1,60,100,0
1,57,100,0
1,62,100,480
1,66,100,0
1,62,100,0
1,59,100,3840
1,64,100,240
1,64,100,0
1,59,100,0
1,59,100,0
1,64,100,240
1,64,100,0
1,59,100,0
1,55,100,0
1,60,100,240
1,64,100,240
1,60,100,0
1,57,100,0
1,62,100,240
1,64,100,240
1,62,100,0
1,59,100,0
1,64,100,240
1,64,100,0
1,59,100,0
1,59,100,0
1,64,100,240
1,64,100,0
1,59,100,0
1,55,100,0
1,60,100,240
1,64,100,240
1,60,100,0
1,57,100,0
1,62,100,240
1,64,100,240
1,62,100,0
1,59,100,0
1,64,100,240
1,64,100,0
1,59,100,0
1,59,100,0
1,64,100,240
1,64,100,0
1,59,100,0
1,55,100,0
1,60,100,240
1,64,100,240
1,60,100,0
1,57,100,0
1,62,100,240
1,64,100,240
1,62,100,0
1,59,100,0
1,64,100,240
1,64,100,0
1,59,100,0
1,59,100,0
1,64,100,240
1,64,100,0
1,59,100,0
1,55,100,0
1,60,100,240
1,64,100,240
1,60,100,0
1,57,100,0
1,62,100,240
1,64,100,240
1,62,100,0
1,59,100,0
1,64,100,240
1,64,100,0
1,59,100,0
1,59,100,0
1,64,100,240
1,64,100,0
1,59,100,0
1,55,100,0
1,60,100,240
1,64,100,240
1,60,100,0
1,57,100,0
1,62,100,240
1,64,100,240
1,62,100,0
1,57,100,17280
1,60,100,240
1,64,100,0
1,60,100,0
1,62,100,0
1,66,100,480
1,67,100,0
1,62,100,240
1,66,100,0
1,62,100,120
1,66,100,0
1,62,100,120
1,66,100,0
1,62,100,120
1,67,100,0
1,62,100,120
1,66,100,0
1,62,100,120
1,66,100,0
1,62,100,120
1,66,100,0
1,62,100,120
1,57,100,1920
1,60,100,240
1,64,100,0
1,60,100,0
1,62,100,0
1,66,100,480
1,59,100,5760
1,64,100,240
1,64,100,0
1,59,100,0
1,59,100,0
1,64,100,240
1,64,100,0
1,59,100,0
1,55,100,0
1,60,100,240
1,64,100,240
1,60,100,0
1,57,100,0
1,62,100,240
1,64,100,240
1,62,100,0
1,59,100,0
1,64,100,240
1,64,100,0
1,59,100,0
1,59,100,0
1,64,100,240
1,64,100,0
1,59,100,0
1,55,100,0
1,60,100,240
1,64,100,240
1,60,100,0
1,57,100,0
1,62,100,240
1,64,100,240
1,62,100,0
1,59,100,0
1,64,100,240
1,64,100,0
1,59,100,0
1,59,100,0
1,64,100,240
1,64,100,0
1,59,100,0
1,55,100,0
1,60,100,240
1,64,100,240
1,60,100,0
1,57,100,0
1,62,100,240
1,64,100,240
1,62,100,0
1,59,100,0
1,64,100,240
1,64,100,0
1,59,100,0
1,59,100,0
1,64,100,240
1,64,100,0
1,59,100,0
1,55,100,0
1,60,100,240
1,64,100,240
1,60,100,0
1,57,100,0
1,62,100,240
1,64,100,240
1,62,100,0
1,59,100,0
1,64,100,240
1,64,100,0
1,59,100,0
1,59,100,0
1,64,100,240
1,64,100,0
1,59,100,0
1,55,100,0
1,60,100,240
1,64,100,240
1,60,100,0
1,57,100,0
1,62,100,240
1,64,100,240
1,62,100,0
1,59,100,0
1,64,100,240
1,64,100,0
1,59,100,0
1,59,100,0
1,64,100,240
1,64,100,0
1,59,100,0
1,55,100,0
1,60,100,240
1,64,100,240
1,60,100,0
1,57,100,0
1,62,100,240
1,64,100,240
1,62,100,0
1,59,100,0
1,64,100,240
1,64,100,0
1,59,100,0
1,59,100,0
1,64,100,240
1,64,100,0
1,59,100,0
1,55,100,0
1,60,100,240
1,64,100,240
1,60,100,0
1,57,100,0
1,62,100,240
1,64,100,240
1,62,100,0
1,59,100,0
1,64,100,240
1,64,100,0
1,59,100,0
1,59,100,0
1,64,100,240
1,64,100,0
1,59,100,0
1,55,100,0
1,60,100,240
1,64,100,240
1,60,100,0
1,57,100,0
1,62,100,240
1,64,100,240
1,62,100,0
1,59,100,0
1,64,100,240
1,64,100,0
1,59,100,0
1,59,100,0
1,64,100,240
1,64,100,0
1,59,100,0
1,55,100,0
1,60,100,240
1,64,100,240
1,60,100,0
1,57,100,0
1,62,100,240
1,64,100,240
1,62,100,0
1,59,100,0
1,64,100,240
1,64,100,0
1,59,100,0
1,59,100,0
1,64,100,240
1,64,100,0
1,59,100,0
1,55,100,0
1,60,100,240
1,64,100,240
1,60,100,0
1,57,100,0
1,62,100,240
1,64,100,240
1,62,100,0
1,59,100,0
1,64,100,240
1,64,100,0
1,59,100,0
1,59,100,0
1,64,100,240
1,64,100,0
1,59,100,0
1,55,100,0
1,60,100,240
1,64,100,240
1,60,100,0
1,57,100,0
1,62,100,240
1,64,100,240
1,62,100,0
1,59,100,0
1,64,100,240
1,64,100,0
1,59,100,0
1,59,100,0
1,64,100,240
1,64,100,0
1,59,100,0
1,55,100,0
1,60,100,240
1,64,100,240
1,60,100,0
1,57,100,0
1,62,100,240
1,64,100,240
1,62,100,0
1,59,100,0
1,64,100,240
1,64,100,0
1,59,100,0
1,59,100,0
1,64,100,240
1,64,100,0
1,59,100,0
1,55,100,0
1,60,100,240
1,64,100,240
1,60,100,0
1,57,100,0
1,62,100,240
1,64,100,240
1,62,100,0
1,59,100,0
1,64,100,240
1,64,100,0
1,59,100,0
1,59,100,0
1,64,100,240
1,64,100,0
1,59,100,0
1,55,100,0
1,60,100,240
1,64,100,240
1,60,100,0
1,57,100,0
1,62,100,240
1,64,100,240
1,62,100,0
1,59,100,0
1,64,100,240
1,64,100,0
1,59,100,0
1,59,100,0
1,64,100,240
1,64,100,0
1,59,100,0
1,55,100,0
1,60,100,240
1,64,100,240
1,60,100,0
1,57,100,0
1,62,100,240
1,64,100,240
1,62,100,0
1,59,100,0
1,64,100,240
1,64,100,0
1,59,100,0
1,59,100,0
1,64,100,240
1,64,100,0
1,59,100,0
1,55,100,0
1,60,100,240
1,64,100,240
1,60,100,0
1,57,100,0
1,62,100,240
1,64,100,240
1,62,100,0
1,59,100,0
1,64,100,240
1,64,100,0
1,59,100,0
1,59,100,0
1,64,100,240
1,64,100,0
1,59,100,0
1,55,100,0
1,60,100,240
1,64,100,240
1,60,100,0
1,57,100,0
1,62,100,240
1,64,100,240
1,62,100,0
1,59,100,0
1,64,100,240
1,64,100,0
1,59,100,0
1,59,100,0
1,64,100,240
1,64,100,0
1,59,100,0
1,55,100,0
1,60,100,240
1,64,100,240
1,60,100,0
1,57,100,0
1,62,100,240
1,64,100,240
1,62,100,0
1,59,100,0
1,64,100,240
1,64,100,0
1,59,100,0
1,59,100,0
1,64,100,240
1,64,100,0
1,59,100,0
1,55,100,0
1,60,100,240
1,64,100,240
1,60,100,0
1,57,100,0
1,62,100,240
1,64,100,240
1,62,100,0
1,59,100,0
1,64,100,240
1,64,100,0
1,59,100,0
1,59,100,0
1,64,100,240
1,64,100,0
1,59,100,0
1,55,100,0
1,60,100,240
1,64,100,240
1,60,100,0
1,57,100,0
1,62,100,240
1,64,100,240
1,62,100,0
2,64,100,0
2,59,100,0
2,52,100,0
2,64,100,0
2,59,100,0
2,52,100,0
2,60,100,1440
2,55,100,0
2,48,100,0
2,60,100,0
2,55,100,0
2,48,100,0
2,62,100,480
2,57,100,0
2,50,100,0
2,62,100,0
2,57,100,0
2,50,100,0
2,64,100,480
2,59,100,0
2,52,100,0
2,64,100,0
2,59,100,0
2,52,100,0
2,60,100,1440
2,55,100,0
2,48,100,0
2,60,100,0
2,55,100,0
2,48,100,0
2,62,100,480
2,57,100,0
2,50,100,0
2,64,100,0
2,59,100,0
2,52,100,0
2,64,100,0
2,59,100,0
2,52,100,0
2,40,100,0
2,40,100,0
2,40,100,0
2,40,100,0
2,40,100,0
2,40,100,0
2,60,100,0
2,55,100,0
2,48,100,0
2,60,100,0
2,55,100,0
2,48,100,0
2,40,100,0
2,40,100,0
2,62,100,0
2,57,100,0
2,50,100,0
2,62,100,0
2,57,100,0
2,50,100,0
2,40,100,0
2,40,100,0
2,64,100,0
2,59,100,0
2,52,100,0
2,64,100,0
2,59,100,0
2,52,100,0
2,40,100,0
2,40,100,0
2,40,100,0
2,40,100,0
2,40,100,0
2,40,100,0
2,60,100,0
2,55,100,0
2,48,100,0
2,60,100,0
2,55,100,0
2,48,100,0
2,62,100,0
2,57,100,0
2,50,100,0
2,52,100,0
2,47,100,0
2,40,100,0
2,52,100,0
2,47,100,0
2,40,100,0
2,62,100,0
2,57,100,0
2,50,100,0
2,62,100,0
2,57,100,0
2,50,100,0
2,59,100,0
2,54,100,0
2,47,100,0
2,59,100,0
2,54,100,0
2,47,100,0
2,62,100,0
2,57,100,0
2,50,100,0
2,52,100,0
2,47,100,0
2,40,100,0
2,60,100,0
2,55,100,0
2,48,100,0
2,62,100,0
2,57,100,0
2,50,100,0
2,52,100,0
2,47,100,0
2,40,100,0
2,52,100,0
2,47,100,0
2,40,100,0
2,62,100,0
2,57,100,0
2,50,100,0
2,62,100,0
2,57,100,0
2,50,100,0
2,57,100,0
2,52,100,0
2,45,100,0
2,57,100,0
2,52,100,0
2,45,100,0
2,57,100,0
2,52,100,0
2,45,100,0
2,57,100,0
2,52,100,0
2,45,100,0
2,57,100,0
2,52,100,0
2,45,100,0
2,57,100,0
2,52,100,0
2,45,100,0
2,54,100,0
2,47,100,0
2,60,100,0
2,55,100,0
2,48,100,0
2,62,100,0
2,57,100,0
2,50,100,0
2,54,100,0
2,59,100,0
2,47,100,0
2,54,100,0
2,59,100,0
2,47,100,0
2,57,100,120
2,52,100,0
2,45,100,0
2,57,100,0
2,52,100,0
2,45,100,0
2,57,100,0
2,52,100,0
2,45,100,0
2,54,100,0
2,59,100,0
2,47,100,0
2,64,100,0
2,59,100,0
2,52,100,0
2,64,100,0
2,59,100,0
2,52,100,0
2,40,100,0
2,40,100,0
2,40,100,0
2,40,100,0
2,40,100,0
2,40,100,0
2,60,100,0
2,55,100,0
2,48,100,0
2,60,100,0
2,55,100,0
2,48,100,0
2,40,100,0
2,40,100,0
2,62,100,0
2,57,100,0
2,50,100,0
2,62,100,0
2,57,100,0
2,50,100,0
2,40,100,0
2,40,100,0
2,64,100,0
2,59,100,0
2,52,100,0
2,64,100,0
2,59,100,0
2,52,100,0
2,40,100,0
2,40,100,0
2,40,100,0
2,40,100,0
2,40,100,0
2,40,100,0
2,60,100,0
2,55,100,0
2,48,100,0
2,60,100,0
2,55,100,0
2,48,100,0
2,40,100,0
2,40,100,0
2,62,100,0
2,57,100,0
2,50,100,0
2,62,100,0
2,57,100,0
2,50,100,0
2,40,100,0
2,40,100,0
2,64,100,0
2,59,100,0
2,52,100,0
2,64,100,0
2,59,100,0
2,52,100,0
2,40,100,0
2,40,100,0
2,40,100,0
2,40,100,0
2,40,100,0
2,40,100,0
2,60,100,0
2,55,100,0
2,48,100,0
2,60,100,0
2,55,100,0
2,48,100,0
2,40,100,0
2,40,100,0
2,62,100,0
2,57,100,0
2,50,100,0
2,62,100,0
2,57,100,0
2,50,100,0
2,40,100,0
2,40,100,0
2,64,100,0
2,59,100,0
2,52,100,0
2,64,100,0
2,59,100,0
2,52,100,0
2,40,100,0
2,40,100,0
2,40,100,0
2,40,100,0
2,40,100,0
2,40,100,0
2,60,100,0
2,55,100,0
2,48,100,0
2,60,100,0
2,55,100,0
2,48,100,0
2,40,100,0
2,40,100,0
2,62,100,0
2,57,100,0
2,50,100,0
2,64,100,0
2,59,100,0
2,52,100,0
2,64,100,0
2,59,100,0
2,52,100,0
2,60,100,1440
2,55,100,0
2,48,100,0
2,60,100,0
2,55,100,0
2,48,100,0
2,62,100,480
2,57,100,0
2,50,100,0
2,52,100,0
2,47,100,0
2,40,100,0
2,52,100,0
2,47,100,0
2,40,100,0
2,62,100,0
2,57,100,0
2,50,100,0
2,62,100,0
2,57,100,0
2,50,100,0
2,59,100,0
2,54,100,0
2,47,100,0
2,59,100,0
2,54,100,0
2,47,100,0
2,62,100,0
2,57,100,0
2,50,100,0
2,52,100,0
2,47,100,0
2,40,100,0
2,60,100,0
2,55,100,0
2,48,100,0
2,62,100,0
2,57,100,0
2,50,100,0
2,52,100,0
2,47,100,0
2,40,100,0
2,52,100,0
2,47,100,0
2,40,100,0
2,62,100,0
2,57,100,0
2,50,100,0
2,62,100,0
2,57,100,0
2,50,100,0
2,57,100,0
2,52,100,0
2,45,100,0
2,57,100,0
2,52,100,0
2,45,100,0
2,57,100,0
2,52,100,0
2,45,100,0
2,57,100,0
2,52,100,0
2,45,100,0
2,57,100,0
2,52,100,0
2,45,100,0
2,57,100,0
2,52,100,0
2,45,100,0
2,54,100,0
2,47,100,0
2,60,100,0
2,55,100,0
2,48,100,0
2,62,100,0
2,57,100,0
2,50,100,0
2,54,100,0
2,59,100,0
2,47,100,0
2,54,100,0
2,59,100,0
2,47,100,0
2,57,100,120
2,52,100,0
2,45,100,0
2,57,100,0
2,52,100,0
2,45,100,0
2,57,100,0
2,52,100,0
