track,note,velocity,time
0,62,127,1328
0,65,100,0
0,74,127,0
0,77,127,0
0,81,127,0
0,62,87,26
0,69,127,0
0,62,69,32
0,69,87,0
0,69,127,0
0,62,127,26
0,69,69,0
0,69,87,0
0,62,87,32
0,67,127,0
0,69,69,0
0,62,69,26
0,67,87,0
0,67,127,0
0,62,127,32
0,67,69,0
0,67,87,0
0,62,87,26
0,67,69,0
0,69,127,0
0,62,69,26
0,62,127,0
0,69,87,0
0,62,87,26
0,69,69,0
0,69,127,0
0,62,69,32
0,69,87,0
0,69,127,0
0,62,127,26
0,69,69,0
0,69,87,0
0,62,87,32
0,67,127,0
0,69,69,0
0,62,69,26
0,67,87,0
0,67,127,0
0,62,127,32
0,67,69,0
0,67,87,0
0,62,87,26
0,65,127,0
0,67,69,0
0,65,100,2
0,74,127,0
0,79,127,0
0,82,127,0
0,62,69,24
0,62,127,0
0,65,87,0
0,62,87,26
0,65,69,0
0,69,127,0
0,62,69,26
0,69,87,0
0,69,127,0
0,62,127,26
0,69,69,0
0,69,87,0
0,62,87,32
0,67,127,0
0,69,69,0
0,62,69,26
0,67,87,0
0,67,127,0
0,62,127,32
0,67,69,0
0,67,87,0
0,62,87,26
0,67,69,0
0,69,127,0
0,60,100,2
0,72,127,0
0,76,127,0
0,79,127,0
0,62,69,24
0,62,127,0
0,69,87,0
0,62,87,26
0,69,69,0
0,69,127,0
0,62,69,32
0,69,87,0
0,69,127,0
0,62,127,26
0,69,69,0
0,69,87,0
0,62,87,32
0,67,127,0
0,69,69,0
0,62,69,26
0,67,87,0
0,67,127,0
0,62,127,32
0,67,69,0
0,67,87,0
0,62,87,26
0,65,127,0
0,67,69,0
0,65,100,2
0,74,127,0
0,77,127,0
0,81,127,0
0,62,69,24
0,62,127,0
0,65,87,0
0,62,87,26
0,65,69,0
0,69,127,0
0,62,69,26
0,69,87,0
0,69,127,0
0,62,127,26
0,69,69,0
0,69,87,0
0,62,87,32
0,67,127,0
0,69,69,0
0,62,69,26
0,67,87,0
0,67,127,0
0,62,127,32
0,67,69,0
0,67,87,0
0,62,87,26
0,67,69,0
0,69,127,0
0,62,69,26
0,62,127,0
0,69,87,0
0,62,87,26
0,69,69,0
0,69,127,0
0,62,69,32
0,69,87,0
0,69,127,0
0,62,127,26
0,69,69,0
0,69,87,0
0,62,87,32
0,67,127,0
0,69,69,0
0,62,69,26
0,67,87,0
0,67,127,0
0,62,127,32
0,67,69,0
0,67,87,0
0,62,87,26
0,65,127,0
0,67,69,0
0,65,100,2
0,74,127,0
0,79,127,0
0,82,127,0
0,62,69,24
0,62,127,0
0,65,87,0
0,62,87,26
0,65,69,0
0,69,127,0
0,62,69,26
0,69,87,0
0,69,127,0
0,62,127,26
0,69,69,0
0,69,87,0
0,62,87,32
0,67,127,0
0,69,69,0
0,62,69,26
0,67,87,0
0,67,127,0
0,62,127,32
0,67,69,0
0,67,87,0
0,62,87,26
0,67,69,0
0,69,127,0
0,64,100,2
0,76,127,0
0,79,127,0
0,84,127,0
0,62,69,24
0,62,127,0
0,69,87,0
0,62,87,26
0,69,69,0
0,69,127,0
0,62,69,32
0,69,87,0
0,69,127,0
0,62,127,26
0,69,69,0
0,69,87,0
0,60,127,32
0,62,87,0
0,67,127,0
0,69,69,0
0,62,69,26
0,67,87,0
0,67,127,0
0,62,127,32
0,67,69,0
0,67,87,0
0,62,87,26
0,65,127,0
0,67,69,0
0,65,100,2
0,74,127,0
0,77,127,0
0,81,127,0
0,62,69,24
0,62,127,0
0,65,87,0
0,72,127,0
0,62,87,26
0,65,69,0
0,69,127,0
0,62,69,26
0,69,87,0
0,69,127,0
0,62,127,26
0,69,69,0
0,69,87,0
0,62,87,32
0,67,127,0
0,69,69,0
0,62,69,26
0,67,87,0
0,67,127,0
0,62,127,4
0,67,69,0
0,67,87,0
0,62,87,10
0,67,69,0
0,69,127,0
0,62,69,2
0,62,127,0
0,69,87,0
0,62,87,18
0,69,69,0
0,69,127,0
0,62,69,32
0,69,87,0
0,69,127,0
0,62,127,26
0,69,69,0
0,69,87,0
0,62,87,32
0,67,127,0
0,69,69,0
0,62,69,26
0,67,87,0
0,67,127,0
0,62,127,32
0,67,69,0
0,67,87,0
0,62,87,26
0,65,127,0
0,67,69,0
0,65,100,2
0,74,127,0
0,79,127,0
0,82,127,0
0,62,69,24
0,62,127,0
0,65,87,0
0,62,87,26
0,65,69,0
0,69,127,0
0,62,69,26
0,69,87,0
0,69,127,0
0,62,127,10
0,69,69,0
0,69,87,0
0,62,87,4
0,67,127,0
0,69,69,0
0,62,69,26
0,67,87,0
0,67,127,0
0,62,127,12
0,67,69,0
0,67,87,0
0,62,87,26
0,67,69,0
0,69,127,0
0,60,100,2
0,72,127,0
0,76,127,0
0,79,127,0
0,62,69,24
0,62,127,0
0,69,87,0
0,62,87,26
0,69,69,0
0,69,127,0
0,62,69,32
0,69,87,0
0,69,127,0
0,62,127,26
0,69,69,0
0,69,87,0
0,62,87,32
0,67,127,0
0,69,113,0
0,69,69,0
0,62,69,26
0,67,87,0
0,67,127,0
0,62,127,32
0,67,69,0
0,67,87,0
0,70,100,0
0,62,87,26
0,65,127,0
0,67,69,0
0,65,100,2
0,74,127,0
0,77,127,0
0,81,127,0
0,62,69,24
0,62,127,0
0,65,87,0
0,69,108,0
0,62,87,26
0,65,69,0
0,69,127,0
0,62,69,26
0,69,87,0
0,69,127,0
0,62,127,26
0,69,69,0
0,69,87,0
0,62,87,32
0,67,127,0
0,69,69,0
0,62,69,26
0,67,87,0
0,67,127,0
0,62,127,32
0,67,69,0
0,67,87,0
0,62,87,26
0,67,69,0
0,69,127,0
0,62,69,26
0,62,127,0
0,69,87,0
0,62,87,26
0,69,69,0
0,69,127,0
0,62,69,32
0,69,87,0
0,69,127,0
0,62,127,26
0,69,69,0
0,69,87,0
0,62,87,32
0,67,126,0
0,67,127,0
0,69,69,0
0,62,69,26
0,67,87,0
0,67,127,0
0,62,127,32
0,65,113,0
0,67,69,0
0,67,87,0
0,62,87,26
0,65,127,0
0,67,69,0
0,65,100,2
0,74,127,0
0,79,127,0
0,82,127,0
0,62,69,24
0,62,127,0
0,65,87,0
0,62,87,26
0,65,69,0
0,69,127,0
0,62,69,26
0,69,87,0
0,69,127,0
0,62,127,26
0,69,69,0
0,69,87,0
0,62,87,32
0,67,127,0
0,69,69,0
0,62,69,26
0,67,87,0
0,67,127,0
0,62,127,32
0,67,69,0
0,67,87,0
0,62,87,26
0,67,69,0
0,69,127,0
0,64,100,2
0,76,127,0
0,79,127,0
0,84,127,0
0,62,69,24
0,62,127,0
0,69,87,0
0,62,87,26
0,69,69,0
0,69,127,0
0,62,69,32
0,69,87,0
0,69,127,0
0,62,127,26
0,69,69,0
0,69,87,0
0,62,87,32
0,67,127,0
0,69,69,0
0,62,69,26
0,67,87,0
0,67,127,0
0,62,127,32
0,62,127,0
0,67,69,0
0,67,87,0
0,62,87,0
0,65,127,0
0,67,69,0
0,38,127,0
0,38,127,0
0,62,127,0
0,65,100,0
0,74,127,0
0,77,127,0
0,77,127,0
0,81,127,0
0,62,87,26
0,69,127,0
0,50,127,2
0,62,69,0
0,69,87,0
0,69,127,0
0,38,127,26
0,62,127,0
0,69,69,0
0,69,87,0
0,38,127,2
0,62,87,0
0,67,127,0
0,69,69,0
0,62,69,18
0,67,87,0
0,67,127,0
0,38,127,2
0,50,127,0
0,62,127,0
0,67,69,0
0,67,87,0
0,62,87,26
0,67,69,0
0,69,127,0
0,38,127,2
0,38,127,0
0,62,69,0
0,62,127,0
0,69,87,0
0,62,87,26
0,69,69,0
0,69,127,0
0,50,127,2
0,62,69,0
0,69,87,0
0,69,127,0
0,38,127,26
0,62,127,0
0,69,69,0
0,69,87,0
0,38,127,2
0,62,87,0
0,67,127,0
0,69,69,0
0,62,69,12
0,67,87,0
0,67,127,0
0,38,127,2
0,50,127,0
0,62,127,0
0,67,69,0
0,67,87,0
0,62,87,26
0,65,127,0
0,67,69,0
0,65,100,2
0,74,127,0
0,79,127,0
0,82,127,0
0,34,127,2
0,34,127,0
0,62,69,0
0,62,127,0
0,65,87,0
0,79,127,0
0,34,104,26
0,62,87,0
0,65,69,0
0,69,127,0
0,46,127,2
0,62,69,0
0,69,87,0
0,69,127,0
0,34,127,26
0,62,127,0
0,69,69,0
0,69,87,0
0,34,127,2
0,62,87,0
0,67,127,0
0,69,69,0
0,62,69,12
0,67,87,0
0,67,127,0
0,34,127,2
0,46,127,0
0,62,127,0
0,67,69,0
0,67,87,0
0,62,87,26
0,67,69,0
0,69,127,0
0,60,100,2
0,72,127,0
0,76,127,0
0,79,127,0
0,36,127,2
0,36,127,0
0,62,69,0
0,62,127,0
0,69,87,0
0,62,87,26
0,69,69,0
0,69,127,0
0,48,127,2
0,62,69,0
0,69,87,0
0,69,127,0
0,36,127,26
0,62,127,0
0,69,69,0
0,69,87,0
0,36,127,2
0,62,87,0
0,67,127,0
0,69,69,0
0,36,127,26
0,62,69,0
0,67,87,0
0,67,127,0
0,34,127,2
0,45,127,0
0,62,127,0
0,67,69,0
0,67,87,0
0,77,127,0
0,62,87,26
0,65,127,0
0,67,69,0
0,65,100,2
0,74,127,0
0,77,127,0
0,81,127,0
0,38,127,2
0,38,127,0
0,62,69,0
0,62,127,0
0,65,87,0
0,81,127,0
0,62,87,26
0,65,69,0
0,69,127,0
0,50,127,2
0,62,69,0
0,69,87,0
0,69,127,0
0,38,127,6
0,62,127,0
0,69,69,0
0,69,87,0
0,38,127,2
0,62,87,0
0,67,127,0
0,69,69,0
0,62,69,26
0,67,87,0
0,67,127,0
0,38,127,2
0,50,127,0
0,62,127,0
0,67,69,0
0,67,87,0
0,62,87,26
0,67,69,0
0,69,127,0
0,38,127,2
0,38,127,0
0,62,69,0
0,62,127,0
0,69,87,0
0,62,87,26
0,69,69,0
0,69,127,0
0,50,127,2
0,62,69,0
0,69,87,0
0,69,127,0
0,38,127,26
0,62,127,0
0,69,69,0
0,69,87,0
0,38,127,2
0,62,87,0
0,67,127,0
0,69,69,0
0,62,69,22
0,67,87,0
0,67,127,0
0,38,127,2
0,50,127,0
0,62,127,0
0,67,69,0
0,67,87,0
0,62,87,26
0,65,127,0
0,67,69,0
0,65,100,2
0,74,127,0
0,79,127,0
0,82,127,0
0,34,127,2
0,34,127,0
0,62,69,0
0,62,127,0
0,65,87,0
0,34,104,26
0,62,87,0
0,65,69,0
0,69,127,0
0,46,127,2
0,62,69,0
0,69,87,0
0,69,127,0
0,34,127,26
0,62,127,0
0,69,69,0
0,69,87,0
0,34,127,2
0,62,87,0
0,67,127,0
0,69,69,0
0,62,69,26
0,67,87,0
0,67,127,0
0,34,127,2
0,46,127,0
0,62,127,0
0,67,69,0
0,67,87,0
0,62,87,26
0,67,69,0
0,69,127,0
0,64,100,2
0,76,127,0
0,79,127,0
0,84,127,0
0,36,127,2
0,36,127,0
0,62,69,0
0,62,127,0
0,69,87,0
0,62,87,26
0,69,69,0
0,69,127,0
0,48,127,2
0,62,69,0
0,69,87,0
0,69,127,0
0,36,127,26
0,62,127,0
0,69,69,0
0,69,87,0
0,36,127,2
0,62,87,0
0,67,127,0
0,69,69,0
0,36,127,26
0,62,69,0
0,67,87,0
0,67,127,0
0,34,127,2
0,45,127,0
0,62,127,0
0,67,69,0
0,67,87,0
0,62,87,26
0,65,127,0
0,67,69,0
0,65,100,2
0,74,127,0
0,77,127,0
0,81,127,0
0,35,127,2
0,38,127,0
0,38,127,0
0,50,127,0
0,62,127,0
0,65,100,0
0,72,127,0
0,74,127,0
0,77,127,0
0,81,127,0
0,62,87,26
0,69,127,0
0,50,127,2
0,62,127,0
0,62,69,0
0,69,87,0
0,69,127,0
0,38,127,18
0,62,127,0
0,69,69,0
0,69,87,0
0,35,127,2
0,38,127,0
0,50,127,0
0,62,87,0
0,67,127,0
0,69,127,0
0,69,69,0
0,62,69,0
0,67,87,0
0,67,127,0
0,38,127,2
0,50,127,0
0,62,127,0
0,62,127,0
0,67,69,0
0,67,87,0
0,69,126,0
0,62,87,26
0,67,69,0
0,69,127,0
0,35,127,2
0,38,127,0
0,38,127,0
0,50,127,0
0,62,69,0
0,62,127,0
0,67,127,0
0,69,87,0
0,62,87,26
0,69,69,0
0,69,127,0
0,50,127,2
0,62,127,0
0,62,69,0
0,65,111,0
0,69,87,0
0,69,127,0
0,38,127,24
0,62,127,0
0,69,69,0
0,69,87,0
0,35,127,2
0,38,127,0
0,50,127,0
0,62,123,0
0,62,87,0
0,67,127,0
0,69,69,0
0,62,69,12
0,67,87,0
0,67,127,0
0,38,127,2
0,50,127,0
0,62,127,0
0,62,127,0
0,67,69,0
0,67,87,0
0,62,87,4
0,65,127,0
0,67,69,0
0,65,100,2
0,74,127,0
0,79,127,0
0,82,127,0
0,34,127,2
0,34,127,0
0,35,127,0
0,46,127,0
0,62,69,0
0,62,127,0
0,65,87,0
0,34,104,26
0,62,87,0
0,65,69,0
0,69,127,0
0,46,127,2
0,58,127,0
0,62,69,0
0,69,87,0
0,69,127,0
0,34,127,26
0,62,127,0
0,69,69,0
0,69,87,0
0,34,127,2
0,35,127,0
0,46,127,0
0,62,87,0
0,67,127,0
0,69,69,0
0,62,69,12
0,67,87,0
0,67,127,0
0,34,127,2
0,46,127,0
0,58,127,0
0,62,127,0
0,67,69,0
0,67,87,0
0,62,87,26
0,67,69,0
0,69,127,0
0,60,100,2
0,72,127,0
0,76,127,0
0,79,127,0
0,35,127,2
0,36,127,0
0,36,127,0
0,48,127,0
0,62,69,0
0,62,127,0
0,69,87,0
0,62,87,26
0,69,69,0
0,69,127,0
0,48,127,2
0,60,127,0
0,62,69,0
0,69,87,0
0,69,127,0
0,36,127,26
0,62,127,0
0,69,69,0
0,69,87,0
0,35,127,2
0,36,127,0
0,48,127,0
0,62,87,0
0,67,127,0
0,69,69,0
0,36,127,26
0,62,69,0
0,67,87,0
0,67,127,0
0,34,127,2
0,45,127,0
0,62,127,0
0,65,127,0
0,67,69,0
0,67,87,0
0,62,87,26
0,65,127,0
0,67,69,0
0,65,100,2
0,74,127,0
0,77,127,0
0,81,127,0
0,35,127,2
0,38,127,0
0,38,127,0
0,50,123,0
0,62,127,0
0,62,69,0
0,62,127,0
0,65,87,0
0,62,87,26
0,65,69,0
0,69,127,0
0,50,127,2
0,62,117,0
0,62,127,0
0,62,69,0
0,69,87,0
0,69,127,0
0,38,127,26
0,62,127,0
0,69,69,0
0,69,87,0
0,35,127,2
0,38,127,0
0,50,123,0
0,62,87,0
0,65,127,0
0,67,127,0
0,69,69,0
0,62,69,26
0,67,87,0
0,67,127,0
0,38,127,2
0,50,127,0
0,62,127,0
0,62,127,0
0,67,69,0
0,67,87,0
0,62,87,26
0,67,69,0
0,69,127,0
0,35,127,2
0,38,127,0
0,38,127,0
0,50,123,0
0,62,69,0
0,62,127,0
0,67,127,0
0,69,87,0
0,62,87,26
0,69,69,0
0,69,127,0
0,50,127,2
0,62,127,0
0,62,69,0
0,69,87,0
0,69,127,0
0,38,127,26
0,62,127,0
0,69,69,0
0,69,87,0
0,35,127,2
0,38,127,0
0,50,123,0
0,62,87,0
0,67,127,0
0,69,108,0
0,69,69,0
0,62,69,22
0,67,87,0
0,67,127,0
0,38,127,2
0,50,127,0
0,62,127,0
0,62,127,0
0,67,69,0
0,67,87,0
0,62,87,26
0,65,127,0
0,67,69,0
0,65,100,2
0,74,127,0
0,79,127,0
0,82,127,0
0,34,127,2
0,34,127,0
0,35,127,0
0,46,127,0
0,62,69,0
0,62,127,0
0,65,87,0
0,34,104,26
0,62,87,0
0,65,69,0
0,69,127,0
0,46,127,2
0,58,127,0
0,62,69,0
0,69,87,0
0,69,127,0
0,34,127,26
0,62,127,0
0,67,127,0
0,69,69,0
0,69,87,0
0,34,127,2
0,35,127,0
0,46,127,0
0,62,87,0
0,67,127,0
0,69,69,0
0,62,69,26
0,67,87,0
0,67,127,0
