track,note,velocity,time
3,54,127,395
3,56,127,81
3,59,127,10
3,62,127,92
3,62,127,88
3,62,127,123
3,61,127,59
3,59,127,102
3,54,127,39
3,56,127,22
3,59,127,47
3,62,127,78
3,62,127,66
3,62,127,164
3,61,127,48
3,59,127,158
3,59,127,64
3,62,127,48
3,62,127,116
3,62,127,95
3,62,127,35
3,61,127,41
3,59,127,150
3,52,127,5
3,56,127,41
3,59,127,41
3,59,127,162
3,54,127,123
3,57,127,56
3,62,127,110
3,62,127,74
3,62,127,35
3,61,127,74
3,59,127,162
3,54,127,223
3,56,127,11
3,59,127,3
3,62,127,50
3,62,127,64
3,62,127,154
3,61,127,35
3,59,127,176
3,59,127,81
3,62,127,51
3,62,127,134
3,62,127,93
3,62,127,44
3,61,127,85
3,59,127,162
3,52,127,21
3,56,127,128
3,59,127,55
3,59,127,131
3,59,127,111
3,57,127,42
3,56,127,58
3,56,127,47
3,56,127,29
3,56,127,63
3,56,127,169
3,59,127,69
3,62,127,8
3,63,127,73
3,63,127,157
3,63,127,146
3,63,127,28
3,56,127,125
3,56,127,162
3,59,127,123
3,59,127,86
3,59,127,167
3,59,127,124
3,59,127,123
3,59,127,116
3,62,127,63
3,62,127,1039
3,59,127,49
3,62,127,113
3,59,127,29
3,62,127,57
3,62,127,86
3,62,127,171
3,62,127,73
3,59,127,110
3,61,127,29
3,61,127,111
3,61,127,141
3,61,127,134
3,61,127,176
3,69,127,141
3,69,127,15
3,69,127,74
3,67,127,97
3,64,127,109
3,64,127,94
3,62,127,292
3,61,127,23
3,59,127,10
3,59,127,332
3,59,127,86
3,59,127,98
3,59,127,66
3,64,127,86
3,64,127,81
3,64,127,120
3,63,127,32
3,59,127,854
3,64,127,156
3,63,127,25
3,64,127,1081
3,62,127,65
3,64,127,86
3,64,127,97
3,64,127,109
3,64,127,117
3,66,127,38
3,59,127,8
3,59,127,94
3,57,127,237
3,59,127,16
3,62,127,40
3,59,127,602
3,64,127,4
3,64,127,81
3,63,127,3
3,56,127,804
3,59,127,137
3,59,127,106
3,64,127,865
3,62,127,24
3,64,127,53
3,62,127,74
3,64,127,96
3,64,127,101
3,66,127,70
3,59,127,11
3,59,127,109
3,57,127,36
3,59,127,20
3,62,127,18
3,62,127,672
3,62,127,0
3,61,127,28
3,61,127,43
3,61,127,41
3,59,127,13
3,61,127,19
3,61,127,62
3,61,127,92
3,61,127,95
3,56,127,46
3,59,127,78
3,59,127,99
3,59,127,104
3,62,127,134
3,59,127,41
3,59,127,3
3,62,127,12
3,59,127,27
3,59,127,121
3,57,127,251
3,59,127,0
3,59,127,928
3,59,127,104
3,56,127,9
3,59,127,124
3,62,127,67
3,62,127,101
3,62,127,134
3,61,127,76
3,59,127,162
3,54,127,44
3,57,127,51
3,59,127,115
3,62,127,60
3,62,127,74
3,62,127,138
3,61,127,91
3,59,127,181
3,62,127,2
3,62,127,110
3,62,127,120
3,61,127,101
3,59,127,172
3,54,127,54
3,57,127,53
3,59,127,35
3,59,127,133
3,57,127,894
3,59,127,80
3,62,127,70
3,62,127,62
3,62,127,53
3,62,127,52
3,61,127,66
3,59,127,111
3,54,127,109
3,57,127,35
3,59,127,49
3,62,127,156
3,62,127,89
3,62,127,121
3,61,127,79
3,59,127,169
3,62,127,112
3,62,127,76
3,62,127,147
3,61,127,100
3,59,127,171
3,54,127,70
3,57,127,90
3,59,127,32
3,59,127,155
3,59,127,629
3,57,127,23
3,56,127,45
3,56,127,58
3,56,127,38
3,56,127,59
3,56,127,133
3,56,127,104
3,59,127,154
3,63,127,79
3,63,127,161
3,63,127,108
3,63,127,0
3,56,127,428
3,56,127,158
3,59,127,65
3,59,127,71
3,59,127,141
3,59,127,111
3,59,127,114
3,59,127,113
3,62,127,31
3,62,127,1011
3,59,127,49
3,62,127,103
3,59,127,33
3,62,127,57
3,62,127,94
3,62,127,166
3,62,127,102
3,59,127,93
3,61,127,28
3,61,127,115
3,61,127,175
3,61,127,79
3,61,127,54
3,69,127,137
3,69,127,335
3,62,127,283
3,59,127,148
3,59,127,493
3,59,127,112
3,59,127,101
3,59,127,98
3,64,127,127
3,64,127,125
3,64,127,124
3,63,127,14
3,59,127,738
3,64,127,34
3,63,127,2
3,64,127,1027
3,62,127,45
3,64,127,110
3,64,127,103
3,64,127,116
3,64,127,128
3,66,127,24
3,59,127,20
3,59,127,121
3,57,127,40
3,59,127,61
3,62,127,9
3,62,127,584
3,64,127,91
3,64,127,74
3,63,127,0
3,57,127,674
3,59,127,162
3,59,127,102
3,64,127,780
3,62,127,25
3,64,127,80
3,62,127,23
3,64,127,56
3,64,127,98
3,66,127,13
3,59,127,131
3,59,127,101
3,57,127,22
3,59,127,235
3,62,127,22
3,62,127,620
3,62,127,9
3,61,127,8
3,61,127,47
3,61,127,70
3,59,127,22
3,61,127,40
3,61,127,76
3,61,127,99
3,61,127,132
3,57,127,51
3,59,127,28
3,59,127,120
3,59,127,139
3,62,127,149
3,59,127,34
3,59,127,10
3,62,127,53
3,59,127,55
3,59,127,114
3,57,127,10
3,59,127,100
3,59,127,141
3,64,127,21
3,63,127,20
3,64,127,940
3,62,127,8
3,64,127,84
3,62,127,47
3,64,127,67
3,64,127,87
3,66,127,8
3,59,127,17
3,59,127,121
3,57,127,39
3,59,127,82
3,62,127,42
3,59,127,672
3,64,127,110
3,64,127,73
3,63,127,6
3,57,127,780
3,59,127,1
3,59,127,165
3,64,127,746
3,62,127,10
3,64,127,88
3,62,127,34
3,64,127,74
3,64,127,106
3,66,127,3
3,59,127,20
3,59,127,125
3,57,127,38
3,59,127,48
3,62,127,48
3,62,127,727
3,62,127,128
3,61,127,14
3,61,127,57
3,61,127,82
3,59,127,17
3,61,127,18
3,61,127,68
3,61,127,88
3,61,127,141
3,56,127,86
3,59,127,34
3,59,127,92
3,59,127,110
3,62,127,155
3,59,127,37
3,59,127,12
3,62,127,53
3,59,127,60
3,59,127,160
3,57,127,3
3,59,127,134
3,59,127,688
3,64,127,162
3,63,127,4
3,57,127,745
3,59,127,182
3,59,127,117
3,59,83,561
3,62,83,161
3,59,83,174
4,59,83,19
4,71,83,2
4,66,83,3
4,69,83,6721
4,64,83,1
4,57,83,0
4,59,83,10
4,66,83,12
4,71,83,8
4,71,83,81
4,66,83,5
4,59,83,9
4,59,83,917
4,66,83,9
4,71,83,2
4,59,83,162
4,66,83,0
4,71,83,5
4,54,83,7
4,66,83,3
4,61,83,4
4,59,83,18
4,64,83,0
4,52,83,3
4,59,50,572
4,71,50,3
4,66,50,9
4,56,83,21044
4,68,83,9
4,63,83,3
4,56,83,29
4,68,83,16
4,63,83,7
4,59,83,256
4,64,83,0
4,68,83,1
4,59,83,13
4,64,83,1
4,68,83,5
4,64,83,8
4,68,83,4
4,71,83,3
4,59,83,19
4,71,83,2
4,66,83,3
4,69,83,6721
4,64,83,1
4,57,83,0
4,59,83,10
4,66,83,12
4,71,83,8
4,71,83,81
4,66,83,5
4,59,83,9
4,59,83,917
4,66,83,9
4,71,83,2
4,59,83,162
4,66,83,0
4,71,83,5
4,54,83,7
4,66,83,3
4,61,83,4
4,64,83,18
4,59,83,0
4,52,83,3
4,59,83,1
4,71,83,5
4,66,83,5
4,59,83,19
4,71,83,2
4,66,83,3
4,69,83,6721
4,64,83,1
4,57,83,0
4,59,83,10
4,66,83,12
4,71,83,8
4,71,83,81
4,66,83,5
4,59,83,9
4,59,83,917
4,66,83,9
4,71,83,2
4,59,83,162
4,66,83,0
4,71,83,5
4,54,83,7
4,66,83,3
4,61,83,4
4,64,83,18
4,59,83,0
4,52,83,3
4,59,83,1
4,71,83,5
4,66,83,5
4,59,50,690
4,71,50,3
4,66,50,9
5,33,83,1584
5,28,83,242
5,35,83,147
5,35,83,60
5,35,83,138
5,35,83,86
5,35,83,101
5,35,83,80
5,35,83,110
5,35,83,91
5,35,83,113
5,35,83,112
5,35,83,111
5,35,83,104
5,35,83,115
5,35,83,99
5,35,83,93
5,28,83,80
5,28,83,72
5,32,83,20
5,38,83,33
5,38,83,89
5,38,83,110
5,37,83,83
5,35,83,25
5,35,83,72
5,35,83,117
5,33,83,81
5,33,83,60
5,33,83,103
5,32,83,56
5,30,83,219
5,35,83,29
5,35,83,62
5,35,83,98
5,35,83,96
5,35,83,107
5,35,83,107
5,35,83,111
5,35,83,104
5,35,83,106
5,35,83,95
5,35,83,109
5,35,83,104
5,35,83,99
5,35,83,102
5,35,83,96
5,35,83,102
5,35,83,95
5,35,83,92
5,35,83,115
5,35,83,118
5,30,83,14
5,30,83,75
5,30,83,94
5,30,83,97
5,35,83,87
5,35,83,90
5,35,83,108
5,35,83,94
5,35,83,105
5,35,83,102
5,35,83,113
5,35,83,97
5,35,83,111
5,35,83,109
5,35,83,117
5,35,83,110
5,35,83,111
5,35,83,96
5,35,83,108
5,35,83,114
5,35,83,119
5,35,83,107
5,35,83,117
5,35,83,109
5,35,83,115
5,35,83,116
5,35,83,119
5,35,83,113
5,35,83,120
5,35,83,114
5,35,83,123
5,35,83,119
5,30,83,53
5,30,83,103
5,30,83,116
5,30,83,125
5,35,83,114
5,35,83,109
5,35,83,118
5,35,83,118
5,35,83,122
5,35,83,114
5,35,83,120
5,34,83,66
5,32,83,23
5,32,83,81
5,32,83,95
5,32,83,86
5,32,83,96
5,32,83,85
5,32,83,104
5,32,83,112
5,32,83,108
5,32,83,111
5,32,83,114
5,30,83,60
5,32,83,73
5,35,83,39
5,32,83,51
5,30,83,36
5,28,83,48
5,28,83,75
5,28,83,88
5,28,83,80
5,28,83,84
5,28,83,84
5,28,83,93
5,28,83,83
5,28,83,85
5,28,83,85
5,28,83,97
5,28,83,101
5,38,83,91
5,40,83,81
5,42,83,79
5,38,83,75
5,35,83,79
5,35,83,53
5,35,83,68
5,35,83,63
5,35,83,68
5,35,83,66
5,35,83,76
5,35,83,75
5,30,83,48
5,30,83,64
5,30,83,77
5,30,83,83
5,30,83,94
5,30,83,85
5,30,83,93
5,30,83,113
5,28,83,9
5,28,83,207
5,28,83,276
5,33,83,233
5,33,83,59
5,33,83,76
5,35,83,139
5,35,83,96
5,35,83,79
5,35,83,91
5,35,83,102
5,35,83,84
5,35,83,91
5,35,83,79
5,35,83,89
5,35,83,86
5,35,83,91
5,35,83,91
5,35,83,82
5,35,83,76
5,35,83,94
5,35,83,80
5,28,83,137
5,28,83,76
5,28,83,81
5,28,83,83
5,28,83,92
5,28,83,94
5,28,83,78
5,28,83,92
5,35,83,71
5,35,83,82
5,35,83,93
5,35,83,89
5,35,83,101
5,35,83,93
5,35,83,109
5,33,83,61
5,35,83,62
5,35,83,84
5,35,83,90
5,35,83,88
5,35,83,95
5,35,83,95
5,35,83,92
5,35,83,95
5,35,83,101
5,35,83,93
5,35,83,107
5,35,83,106
5,35,83,111
5,35,83,105
5,35,83,108
5,33,83,107
5,28,83,114
5,28,83,83
5,28,83,99
5,28,83,93
5,28,83,103
5,28,83,90
5,28,83,88
5,28,83,91
5,35,83,80
5,35,83,101
5,35,83,105
5,35,83,105
5,35,83,106
5,35,83,109
5,35,83,104
5,33,83,91
5,30,83,62
5,30,83,97
5,30,83,96
5,30,83,95
5,30,83,110
5,30,83,102
5,30,83,99
5,30,83,114
5,28,83,60
5,28,83,90
5,28,83,100
5,28,83,106
5,28,83,105
5,28,83,98
5,28,83,98
5,40,83,48
5,40,83,74
5,40,83,106
5,40,83,104
5,40,83,100
5,40,83,101
5,40,83,119
5,28,83,13
5,28,83,104
5,32,83,107
5,38,83,0
5,38,83,68
5,38,83,120
5,37,83,46
5,35,83,14
5,33,83,104
5,33,83,60
5,33,83,103
5,32,83,56
5,30,83,219
5,35,83,29
5,35,83,62
5,35,83,98
5,35,83,96
5,35,83,107
5,35,83,107
5,35,83,111
5,35,83,104
5,35,83,106
5,35,83,95
5,35,83,109
5,35,83,104
5,35,83,99
5,35,83,102
5,35,83,96
5,35,83,102
5,35,83,95
5,35,83,92
5,35,83,115
5,35,83,118
5,30,83,14
5,30,83,75
5,30,83,94
5,30,83,97
5,35,83,87
5,35,83,90
5,35,83,108
5,35,83,94
5,35,83,105
5,35,83,102
5,35,83,113
5,35,83,97
5,35,83,111
5,35,83,109
5,35,83,117
5,35,83,110
5,35,83,111
5,35,83,96
5,35,83,108
5,35,83,114
5,35,83,119
5,35,83,107
5,35,83,117
5,35,83,109
5,35,83,115
5,35,83,116
5,35,83,119
5,35,83,113
5,35,83,120
5,35,83,114
5,35,83,123
5,35,83,119
5,30,83,53
5,30,83,103
5,30,83,116
5,30,83,125
5,35,83,114
5,35,83,109
5,35,83,118
5,35,83,118
5,35,83,122
5,35,83,114
5,35,83,120
5,34,83,66
5,32,83,23
5,32,83,81
5,32,83,95
5,32,83,86
5,32,83,96
5,32,83,85
5,32,83,104
5,32,83,112
5,32,83,108
5,32,83,111
5,32,83,114
5,30,83,60
5,32,83,73
5,35,83,39
5,32,83,51
5,30,83,36
5,28,83,48
5,28,83,75
5,28,83,88
5,28,83,80
5,28,83,84
5,28,83,84
5,28,83,93
5,28,83,83
5,28,83,85
5,28,83,85
5,28,83,97
5,28,83,101
5,38,83,91
5,40,83,81
5,42,83,79
5,38,83,75
5,35,83,79
5,35,83,53
5,35,83,68
5,35,83,63
5,35,83,68
5,35,83,66
5,35,83,76
5,35,83,75
5,30,83,48
5,30,83,64
5,30,83,77
5,30,83,83
5,30,83,94
5,30,83,85
5,30,83,93
5,30,83,113
5,28,83,9
5,28,83,207
5,28,83,276
5,33,83,233
5,33,83,59
5,33,83,76
5,35,83,153
5,35,83,82
5,35,83,79
5,35,83,91
5,35,83,102
5,35,83,84
5,35,83,91
5,35,83,79
5,35,83,89
5,35,83,86
5,35,83,91
5,35,83,91
5,35,83,82
5,35,83,76
5,35,83,94
5,35,83,80
5,28,83,137
5,28,83,76
5,28,83,81
5,28,83,83
5,28,83,92
5,28,83,94
5,28,83,78
5,28,83,92
5,35,83,71
5,35,83,82
5,35,83,93
5,35,83,89
5,35,83,101
5,35,83,93
5,35,83,109
5,33,83,61
5,35,83,62
5,35,83,84
5,35,83,90
5,35,83,88
5,35,83,95
5,35,83,95
5,35,83,92
5,35,83,95
5,35,83,101
5,35,83,93
5,35,83,107
5,35,83,106
5,35,83,111
5,35,83,105
5,35,83,108
5,33,83,107
5,28,83,114
5,28,83,83
5,28,83,99
5,28,83,93
5,28,83,103
5,28,83,90
5,28,83,88
5,28,83,91
5,35,83,80
5,35,83,101
5,35,83,105
5,35,83,105
5,35,83,106
5,35,83,109
5,35,83,104
5,33,83,91
5,30,83,62
5,30,83,97
5,30,83,96
5,30,83,95
5,30,83,110
5,30,83,102
5,30,83,99
5,30,83,114
5,28,83,60
5,28,83,90
5,28,83,100
5,28,83,106
5,28,83,105
5,28,83,98
5,28,83,98
5,40,83,48
5,40,83,74
5,40,83,106
5,40,83,104
5,40,83,100
5,40,83,101
5,38,83,119
5,35,83,55
5,35,83,82
5,35,83,79
5,35,83,91
5,35,83,102
5,35,83,84
5,35,83,91
5,35,83,79
5,35,83,89
5,35,83,86
5,35,83,91
5,35,83,91
5,35,83,82
5,35,83,76
5,35,83,94
5,35,83,80
5,28,83,137
5,28,83,76
5,28,83,81
5,28,83,83
5,28,83,92
5,28,83,94
5,28,83,78
5,28,83,92
5,35,83,71
5,35,83,82
5,35,83,93
5,35,83,89
5,35,83,101
5,35,83,93
5,35,83,109
5,33,83,61
5,35,83,62
5,35,83,84
5,35,83,90
5,35,83,88
5,35,83,95
5,35,83,95
5,35,83,92
5,35,83,95
5,35,83,101
5,35,83,93
5,35,83,107
5,35,83,106
5,35,83,111
5,35,83,105
5,35,83,108
5,33,83,107
5,28,83,114
5,28,83,83
5,28,83,99
5,28,83,93
5,28,83,103
5,28,83,90
5,28,83,88
5,28,83,91
5,35,83,80
5,35,83,101
5,35,83,105
5,35,83,105
5,35,83,106
5,35,83,109
5,35,83,104
5,33,83,91
5,30,83,62
5,30,83,97
