track,note,velocity,time
2,40,100,0
2,40,100,0
2,40,100,0
2,40,100,0
2,64,100,0
2,59,100,0
2,52,100,0
2,40,100,0
2,40,100,0
2,40,100,0
2,40,100,0
2,62,100,0
2,57,100,0
2,50,100,0
2,40,100,0
2,40,100,0
2,40,100,0
2,40,100,0
2,67,100,0
2,62,100,0
2,55,100,0
2,40,100,0
2,40,100,0
2,40,100,0
2,40,100,0
2,62,100,0
2,57,100,0
2,50,100,0
2,64,100,0
2,59,100,0
2,52,100,0
2,40,100,0
2,40,100,0
2,40,100,0
2,40,100,0
2,64,100,0
2,59,100,0
2,52,100,0
2,40,100,0
2,40,100,0
2,40,100,0
2,40,100,0
2,62,100,0
2,57,100,0
2,50,100,0
2,40,100,0
2,40,100,0
2,40,100,0
2,40,100,0
2,67,100,0
2,62,100,0
2,55,100,0
2,40,100,0
2,40,100,0
2,40,100,0
2,40,100,0
2,62,100,0
2,57,100,0
2,50,100,0
2,62,100,0
2,50,100,0
2,57,100,0
2,40,100,0
2,40,100,0
2,40,100,0
2,40,100,0
2,64,100,0
2,59,100,0
2,52,100,0
2,40,100,0
2,40,100,0
2,40,100,0
2,40,100,0
2,62,100,0
2,57,100,0
2,50,100,0
2,40,100,0
2,40,100,0
2,40,100,0
2,40,100,0
2,67,100,0
2,62,100,0
2,55,100,0
2,40,100,0
2,40,100,0
2,40,100,0
2,40,100,0
2,62,100,0
2,57,100,0
2,50,100,0
2,64,100,0
2,59,100,0
2,52,100,0
2,40,100,0
2,40,100,0
2,40,100,0
2,40,100,0
2,64,100,0
2,59,100,0
2,52,100,0
2,40,100,0
2,40,100,0
2,40,100,0
2,40,100,0
2,62,100,0
2,57,100,0
2,50,100,0
2,40,100,0
2,40,100,0
2,40,100,0
2,40,100,0
2,67,100,0
2,62,100,0
2,55,100,0
2,40,100,0
2,40,100,0
2,40,100,0
2,40,100,0
2,62,100,0
2,57,100,0
2,50,100,0
2,62,100,0
2,50,100,0
2,57,100,0
2,40,100,0
2,40,100,0
2,40,100,0
2,40,100,0
2,64,100,0
2,59,100,0
2,52,100,0
2,40,100,0
2,40,100,0
2,40,100,0
2,40,100,0
2,62,100,0
2,57,100,0
2,50,100,0
2,40,100,0
2,40,100,0
2,40,100,0
2,40,100,0
2,67,100,0
2,62,100,0
2,55,100,0
2,40,100,0
2,40,100,0
2,40,100,0
2,40,100,0
2,62,100,0
2,57,100,0
2,50,100,0
2,64,100,0
2,59,100,0
2,52,100,0
2,40,100,0
2,40,100,0
2,40,100,0
2,40,100,0
2,64,100,0
2,59,100,0
2,52,100,0
2,40,100,0
2,40,100,0
2,40,100,0
2,40,100,0
2,62,100,0
2,57,100,0
2,50,100,0
2,40,100,0
2,40,100,0
2,40,100,0
2,40,100,0
2,67,100,0
2,62,100,0
2,55,100,0
2,40,100,0
2,40,100,0
2,40,100,0
2,40,100,0
2,62,100,0
2,57,100,0
2,50,100,0
2,62,100,0
2,50,100,0
2,57,100,0
2,40,100,0
2,40,100,0
2,40,100,0
2,40,100,0
2,64,100,0
2,59,100,0
2,52,100,0
2,40,100,0
2,40,100,0
2,40,100,0
2,40,100,0
2,62,100,0
2,57,100,0
2,50,100,0
2,40,100,0
2,40,100,0
2,40,100,0
2,40,100,0
2,67,100,0
2,62,100,0
2,55,100,0
2,40,100,0
2,40,100,0
2,40,100,0
2,40,100,0
2,62,100,0
2,57,100,0
2,50,100,0
2,64,100,0
2,59,100,0
2,52,100,0
2,40,100,0
2,40,100,0
2,40,100,0
2,40,100,0
2,64,100,0
2,59,100,0
2,52,100,0
2,40,100,0
2,40,100,0
2,40,100,0
2,40,100,0
2,62,100,0
2,57,100,0
2,50,100,0
2,40,100,0
2,40,100,0
2,40,100,0
2,40,100,0
2,67,100,0
2,62,100,0
2,55,100,0
2,40,100,0
2,40,100,0
2,40,100,0
2,40,100,0
2,64,100,0
2,59,100,0
2,52,100,0
2,62,100,0
2,55,100,0
2,62,100,0
2,57,100,0
2,50,100,0
2,40,100,0
2,40,100,0
2,40,100,0
2,40,100,0
2,64,100,0
2,59,100,0
2,52,100,0
2,40,100,0
2,40,100,0
2,40,100,0
2,40,100,0
2,64,100,0
2,59,100,0
2,52,100,0
2,40,100,0
2,40,100,0
2,40,100,0
2,40,100,0
2,62,100,0
2,57,100,0
2,50,100,0
2,40,100,0
2,40,100,0
2,40,100,0
2,40,100,0
2,64,100,0
2,59,100,0
2,52,100,0
2,40,100,0
2,40,100,0
2,40,100,0
2,40,100,0
2,60,100,0
2,55,100,0
2,48,100,0
2,62,100,0
2,57,100,0
2,50,100,0
2,64,100,0
2,60,100,144
2,64,100,0
2,66,100,48
2,60,100,0
2,67,100,96
2,60,100,48
2,67,100,0
2,66,100,96
2,60,100,0
2,62,100,0
2,57,100,0
2,50,100,0
2,48,100,0
2,55,100,0
2,60,100,0
2,47,100,0
2,55,100,0
2,59,100,0
2,45,100,0
2,52,100,0
2,57,100,0
2,57,100,0
2,50,100,0
2,62,100,0
2,50,100,0
2,57,100,0
2,62,100,0
2,62,100,0
2,57,100,0
2,50,100,0
2,59,100,96
2,54,100,0
2,47,100,0
2,40,100,768
2,40,100,0
2,40,100,0
2,40,100,0
2,64,100,0
2,59,100,0
2,52,100,0
2,40,100,0
2,40,100,0
2,40,100,0
2,40,100,0
2,62,100,0
2,57,100,0
2,50,100,0
2,40,100,0
2,40,100,0
2,40,100,0
2,40,100,0
2,67,100,0
2,62,100,0
2,55,100,0
2,40,100,0
2,40,100,0
2,40,100,0
2,40,100,0
2,62,100,0
2,57,100,0
2,50,100,0
2,64,100,0
2,59,100,0
2,52,100,0
2,40,100,0
2,40,100,0
2,40,100,0
2,40,100,0
2,64,100,0
2,59,100,0
2,52,100,0
2,40,100,0
2,40,100,0
2,40,100,0
2,40,100,0
2,62,100,0
2,57,100,0
2,50,100,0
2,40,100,0
2,40,100,0
2,40,100,0
2,40,100,0
2,67,100,0
2,62,100,0
2,55,100,0
2,40,100,0
2,40,100,0
2,40,100,0
2,40,100,0
2,62,100,0
2,57,100,0
2,50,100,0
2,62,100,0
2,50,100,0
2,57,100,0
2,40,100,0
2,40,100,0
2,40,100,0
2,40,100,0
2,64,100,0
2,59,100,0
2,52,100,0
2,40,100,0
2,40,100,0
2,40,100,0
2,40,100,0
2,62,100,0
2,57,100,0
2,50,100,0
2,40,100,0
2,40,100,0
2,40,100,0
2,40,100,0
2,67,100,0
2,62,100,0
2,55,100,0
2,40,100,0
2,40,100,0
2,40,100,0
2,40,100,0
2,62,100,0
2,57,100,0
2,50,100,0
2,64,100,0
2,59,100,0
2,52,100,0
2,40,100,0
2,40,100,0
2,40,100,0
2,40,100,0
2,64,100,0
2,59,100,0
2,52,100,0
2,40,100,0
2,40,100,0
2,40,100,0
2,40,100,0
2,62,100,0
2,57,100,0
2,50,100,0
2,40,100,0
2,40,100,0
2,40,100,0
2,40,100,0
2,67,100,0
2,62,100,0
2,55,100,0
2,40,100,0
2,40,100,0
2,40,100,0
2,40,100,0
2,64,100,0
2,59,100,0
2,52,100,0
2,62,100,0
2,55,100,0
2,62,100,0
2,57,100,0
2,50,100,0
2,40,100,0
2,40,100,0
2,40,100,0
2,40,100,0
2,64,100,0
2,59,100,0
2,52,100,0
2,40,100,0
2,40,100,0
2,40,100,0
2,40,100,0
2,64,100,0
2,59,100,0
2,52,100,0
2,40,100,0
2,40,100,0
2,40,100,0
2,40,100,0
2,62,100,0
2,57,100,0
2,50,100,0
2,40,100,0
2,40,100,0
2,40,100,0
2,40,100,0
2,64,100,0
2,59,100,0
2,52,100,0
2,40,100,0
2,40,100,0
2,40,100,0
2,40,100,0
2,60,100,0
2,55,100,0
2,48,100,0
2,62,100,0
2,57,100,0
2,50,100,0
2,64,100,0
2,60,100,144
2,64,100,0
2,66,100,48
2,60,100,0
2,67,100,96
2,60,100,48
2,67,100,0
2,66,100,96
2,60,100,0
2,62,100,0
2,57,100,0
2,50,100,0
2,48,100,0
2,55,100,0
2,60,100,0
2,47,100,0
2,55,100,0
2,59,100,0
2,45,100,0
2,52,100,0
2,57,100,0
2,57,100,0
2,50,100,0
2,62,100,0
2,50,100,0
2,57,100,0
2,62,100,0
2,62,100,0
2,57,100,0
2,50,100,0
2,59,100,96
2,54,100,0
2,47,100,0
2,40,100,768
2,40,100,0
2,40,100,0
2,40,100,0
2,64,100,0
2,59,100,0
2,52,100,0
2,40,100,0
2,40,100,0
2,40,100,0
2,40,100,0
2,62,100,0
2,57,100,0
2,50,100,0
2,40,100,0
2,40,100,0
2,40,100,0
2,40,100,0
2,67,100,0
2,62,100,0
2,55,100,0
2,40,100,0
2,40,100,0
2,40,100,0
2,40,100,0
2,62,100,0
2,57,100,0
2,50,100,0
2,64,100,0
2,59,100,0
2,52,100,0
2,40,100,0
2,40,100,0
2,40,100,0
2,40,100,0
2,64,100,0
2,59,100,0
2,52,100,0
2,40,100,0
2,40,100,0
2,40,100,0
2,40,100,0
2,62,100,0
2,57,100,0
2,50,100,0
2,40,100,0
2,40,100,0
2,40,100,0
2,40,100,0
2,67,100,0
2,62,100,0
2,55,100,0
2,40,100,0
2,40,100,0
2,40,100,0
2,40,100,0
2,62,100,0
2,57,100,0
2,50,100,0
2,62,100,0
2,50,100,0
2,57,100,0
2,40,100,0
2,40,100,0
2,40,100,0
2,40,100,0
2,64,100,0
2,59,100,0
2,52,100,0
2,40,100,0
2,40,100,0
2,40,100,0
2,40,100,0
2,62,100,0
2,57,100,0
2,50,100,0
2,40,100,0
2,40,100,0
2,40,100,0
2,40,100,0
2,67,100,0
2,62,100,0
2,55,100,0
2,40,100,0
2,40,100,0
2,40,100,0
2,40,100,0
2,62,100,0
2,57,100,0
2,50,100,0
2,64,100,0
2,59,100,0
2,52,100,0
2,40,100,0
2,40,100,0
2,40,100,0
2,40,100,0
2,64,100,0
2,59,100,0
2,52,100,0
2,40,100,0
2,40,100,0
2,40,100,0
2,40,100,0
2,62,100,0
2,57,100,0
2,50,100,0
2,40,100,0
2,40,100,0
2,40,100,0
2,40,100,0
2,67,100,0
2,62,100,0
2,55,100,0
2,40,100,0
2,40,100,0
2,40,100,0
2,40,100,0
2,40,100,0
2,40,100,0
2,50,100,0
2,57,100,0
2,62,100,0
2,62,100,0
2,57,100,0
2,50,100,0
2,62,100,0
2,50,100,0
2,57,100,0
2,62,100,0
2,57,100,0
2,50,100,0
2,40,100,0
2,40,100,0
2,40,100,0
2,40,100,0
2,64,100,0
2,59,100,0
2,52,100,0
2,40,100,0
2,40,100,0
2,40,100,0
2,40,100,0
2,62,100,0
2,57,100,0
2,50,100,0
2,40,100,0
2,40,100,0
2,40,100,0
2,40,100,0
2,67,100,0
2,62,100,0
2,55,100,0
2,40,100,0
2,40,100,0
2,40,100,0
2,40,100,0
2,62,100,0
2,57,100,0
2,50,100,0
2,64,100,0
2,59,100,0
2,52,100,0
2,40,100,0
2,40,100,0
2,40,100,0
2,40,100,0
2,64,100,0
2,59,100,0
2,52,100,0
2,40,100,0
2,40,100,0
2,40,100,0
2,40,100,0
2,62,100,0
2,57,100,0
2,50,100,0
2,40,100,0
2,40,100,0
2,40,100,0
2,40,100,0
2,67,100,0
2,62,100,0
2,55,100,0
2,40,100,0
2,40,100,0
2,40,100,0
2,40,100,0
2,62,100,0
2,57,100,0
2,50,100,0
2,62,100,0
2,50,100,0
2,57,100,0
2,40,100,0
2,40,100,0
2,40,100,0
2,40,100,0
2,64,100,0
2,59,100,0
2,52,100,0
2,40,100,0
2,40,100,0
2,40,100,0
2,40,100,0
2,62,100,0
2,57,100,0
2,50,100,0
2,40,100,0
2,40,100,0
2,40,100,0
2,40,100,0
2,67,100,0
2,62,100,0
2,55,100,0
2,40,100,0
2,40,100,0
2,40,100,0
2,40,100,0
2,62,100,0
2,57,100,0
2,50,100,0
2,64,100,0
2,59,100,0
2,52,100,0
2,40,100,0
2,40,100,0
2,40,100,0
2,40,100,0
2,64,100,0
2,59,100,0
2,52,100,0
2,40,100,0
2,40,100,0
2,40,100,0
2,40,100,0
2,62,100,0
2,57,100,0
2,50,100,0
2,40,100,0
2,40,100,0
2,40,100,0
2,40,100,0
2,67,100,0
2,62,100,0
2,55,100,0
2,40,100,0
2,40,100,0
2,40,100,0
2,40,100,0
2,59,100,0
2,52,100,0
2,64,100,0
2,64,100,0
2,52,100,0
2,59,100,0
2,48,100,0
2,55,100,0
2,60,100,0
2,66,100,0
2,48,100,0
2,55,100,0
2,60,100,0
2,64,100,0
2,60,100,0
2,66,100,0
2,55,100,0
2,55,100,0
2,60,100,0
2,67,100,0
2,48,100,0
2,55,100,0
2,60,100,0
2,66,100,0
2,48,100,0
2,55,100,0
2,60,100,0
2,64,100,0
2,55,100,0
2,60,100,0
2,66,100,0
2,55,100,0
2,60,100,0
2,67,100,0
2,50,100,0
2,57,100,0
2,62,100,0
2,66,100,0
2,50,100,0
2,57,100,0
2,62,100,0
2,64,100,0
2,69,100,0
2,66,100,0
2,62,100,0
2,57,100,0
2,67,100,0
2,62,100,0
2,57,100,0
2,50,100,0
2,57,100,0
2,62,100,0
2,66,100,0
2,50,100,0
2,57,100,0
2,62,100,0
2,64,100,0
2,69,100,0
2,66,100,0
2,62,100,0
2,57,100,0
2,67,100,0
2,62,100,0
2,57,100,0
2,48,100,0
2,55,100,0
2,60,100,0
2,66,100,0
2,48,100,0
2,55,100,0
2,60,100,0
2,64,100,0
2,55,100,0
2,60,100,0
2,66,100,0
2,55,100,0
2,60,100,0
2,67,100,0
2,48,100,0
2,55,100,0
2,60,100,0
2,66,100,0
2,48,100,0
2,55,100,0
2,60,100,0
2,64,100,0
2,55,100,0
2,60,100,0
2,66,100,0
2,55,100,0
2,60,100,0
2,64,100,0
2,47,100,0
2,54,100,0
2,59,100,0
2,63,100,0
2,59,100,0
2,54,100,0
2,47,100,0
2,59,100,0
2,54,100,0
2,47,100,0
2,59,100,0
2,54,100,0
2,47,100,0
2,59,100,0
2,54,100,0
2,47,100,0
2,59,100,0
2,54,100,0
2,47,100,0
2,59,100,0
2,54,100,0
2,47,100,0
2,59,100,0
2,54,100,0
2,47,100,0
2,59,100,0
2,54,100,0
2,47,100,0
2,60,100,0
2,55,100,0
2,48,100,0
2,55,100,0
2,47,100,0
2,57,100,0
2,52,100,0
2,45,100,0
2,62,100,0
2,57,100,0
2,50,100,0
2,59,100,0
2,54,100,0
2,47,100,0
2,62,100,0
2,57,100,0
2,50,100,0
2,40,100,0
2,40,100,0
2,40,100,0
2,40,100,0
2,64,100,0
2,59,100,0
2,52,100,0
2,40,100,0
2,40,100,0
2,40,100,0
2,40,100,0
2,62,100,0
2,57,100,0
2,50,100,0
2,40,100,0
2,40,100,0
2,40,100,0
2,40,100,0
2,67,100,0
2,62,100,0
2,55,100,0
2,40,100,0
2,40,100,0
2,40,100,0
2,40,100,0
2,62,100,0
2,57,100,0
2,50,100,0
2,64,100,0
2,59,100,0
2,52,100,0
2,40,100,0
2,40,100,0
2,40,100,0
2,40,100,0
2,64,100,0
2,59,100,0
2,52,100,0
2,40,100,0
2,40,100,0
2,40,100,0
2,40,100,0
2,62,100,0
2,57,100,0
2,50,100,0
2,40,100,0
2,40,100,0
2,40,100,0
2,40,100,0
2,67,100,0
2,62,100,0
2,55,100,0
2,40,100,0
2,40,100,0
2,40,100,0
2,40,100,0
2,40,100,0
2,40,100,0
2,50,100,0
2,57,100,0
2,62,100,0
2,62,100,0
2,57,100,0
2,50,100,0
2,62,100,0
2,50,100,0
2,57,100,0
2,62,100,0
2,57,100,0
2,50,100,0
2,40,100,0
2,40,100,0
2,40,100,0
2,40,100,0
2,64,100,0
2,59,100,0
2,52,100,0
2,40,100,0
2,40,100,0
2,40,100,0
2,40,100,0
2,62,100,0
2,57,100,0
2,50,100,0
2,40,100,0
2,40,100,0
2,40,100,0
2,40,100,0
2,67,100,0
2,62,100,0
2,55,100,0
2,40,100,0
2,40,100,0
