track,note,velocity,time
0,45,102,0
0,57,102,180
0,67,102,192
0,57,0,188
0,57,102,4
0,67,0,188
0,64,102,4
0,57,0,188
0,57,102,4
0,64,0,188
0,62,102,4
0,57,0,188
0,57,102,4
0,62,0,60
0,60,102,4
0,57,0,188
0,57,102,4
0,60,0,188
0,59,102,4
0,57,0,12
0,57,102,4
0,59,0,188
0,59,102,4
0,57,0,156
0,60,102,4
0,59,0,188
0,59,102,4
0,60,0,188
0,55,102,4
0,59,0,188
0,45,0,0
0,53,102,4
0,55,0,188
0,57,102,4
0,62,102,32
0,57,0,188
0,64,102,4
0,62,0,188
0,53,0,0
0,53,102,4
0,57,102,192
0,62,102,192
0,60,102,192
0,53,0,92
0,62,0,96
0,64,0,0
0,57,0,0
0,53,84,4
0,60,0,188
0,59,102,4
0,53,0,188
0,53,84,4
0,59,0,188
0,57,102,4
0,53,0,188
0,55,102,4
0,57,0,188
0,59,102,4
0,62,102,192
0,59,0,188
0,59,102,4
0,59,0,188
0,62,0,0
0,55,0,0
0,45,102,4
0,57,102,192
0,67,102,192
0,57,0,188
0,57,102,4
0,67,0,188
0,64,102,4
0,57,0,188
0,57,102,4
0,64,0,188
0,62,102,4
0,57,0,188
0,57,102,4
0,62,0,188
0,60,102,4
0,57,0,188
0,57,102,4
0,60,0,188
0,59,102,4
0,57,0,188
0,57,102,4
0,59,0,188
0,59,102,4
0,57,0,188
0,60,102,4
0,59,0,188
0,59,102,4
0,60,0,188
0,55,102,4
0,59,0,188
0,45,0,0
0,53,102,4
0,55,0,188
0,57,102,4
0,62,102,192
0,57,0,188
0,64,102,4
0,62,0,188
0,53,0,0
0,53,102,4
0,57,102,192
0,62,102,192
0,60,102,192
0,62,0,188
0,53,0,0
0,64,0,0
0,53,84,4
0,57,0,188
0,60,0,0
0,59,102,4
0,53,0,188
0,53,84,4
0,59,0,188
0,57,102,4
0,53,0,188
0,55,102,4
0,57,0,188
0,59,102,4
0,62,102,192
0,59,0,188
0,59,102,4
0,59,0,188
0,62,0,0
0,55,0,0
0,45,102,4
0,52,102,192
0,59,102,192
0,52,0,188
0,60,102,4
0,59,0,188
0,57,102,4
0,60,0,188
0,52,102,4
0,57,0,188
0,45,0,0
0,45,102,4
0,52,0,188
0,59,102,4
0,59,0,380
0,60,102,4
0,57,102,192
0,60,0,188
0,52,102,4
0,57,0,188
0,45,0,0
0,59,102,4
0,52,0,188
0,60,102,4
0,59,0,188
0,57,102,4
0,60,0,188
0,55,102,4
0,57,0,188
0,53,102,4
0,55,0,188
0,57,102,4
0,59,102,192
0,57,0,188
0,60,102,4
0,59,0,188
0,57,102,4
0,60,0,188
0,53,0,0
0,53,102,4
0,57,0,188
0,57,102,4
0,59,102,192
0,57,0,188
0,53,0,0
0,53,102,4
0,59,0,188
0,60,102,4
0,57,102,192
0,60,0,188
0,53,0,0
0,53,102,4
0,57,0,188
0,55,102,4
0,53,0,188
0,59,102,4
0,62,102,192
0,59,0,188
0,55,0,0
0,59,102,4
0,59,0,188
0,62,0,0
0,45,102,4
0,52,102,192
0,59,102,192
0,52,0,188
0,60,102,4
0,59,0,188
0,57,102,4
0,60,0,188
0,52,102,4
0,57,0,188
0,45,0,0
0,45,102,4
0,52,0,188
0,59,102,4
0,59,0,380
0,60,102,4
0,57,102,192
0,60,0,188
0,52,102,4
0,57,0,188
0,45,0,0
0,59,102,4
0,52,0,188
0,60,102,4
0,59,0,188
0,57,102,4
0,60,0,188
0,55,102,4
0,57,0,188
0,53,102,4
0,55,0,188
0,57,102,4
0,67,102,192
0,57,0,188
0,53,0,0
0,53,102,4
0,67,0,188
0,64,102,4
0,53,0,188
0,53,102,4
0,64,0,188
0,62,102,4
0,53,0,188
0,53,102,4
0,62,0,188
0,60,102,4
0,53,0,188
0,53,102,4
0,60,0,188
0,59,102,4
0,53,0,188
0,53,102,4
0,53,0,188
0,59,0,0
0,55,102,4
0,59,102,192
0,62,102,192
0,62,0,380
0,59,0,0
0,55,0,0
0,64,82,4
0,45,127,0
0,45,102,0
0,64,0,188
0,57,102,4
0,64,82,0
0,64,0,188
0,67,102,4
0,64,82,0
0,64,0,188
0,57,0,4
0,57,102,0
0,62,82,0
0,67,0,192
0,64,102,0
0,62,0,188
0,57,0,4
0,57,102,0
0,60,82,0
0,60,0,188
0,64,0,4
0,62,102,0
0,57,82,0
0,57,0,188
0,57,0,4
0,62,82,0
0,57,102,0
0,62,0,192
0,60,102,0
0,62,0,188
0,57,0,4
0,57,102,0
0,57,82,0
0,60,0,192
0,59,102,0
0,57,0,192
0,57,102,0
0,57,0,92
0,59,0,100
0,59,102,0
0,57,0,192
0,60,102,0
0,59,0,192
0,59,102,0
0,60,0,192
0,55,102,0
0,45,0,188
0,45,0,0
0,59,0,4
0,53,102,0
0,41,127,0
0,55,0,192
0,57,102,0
0,57,82,192
0,62,102,0
0,57,0,188
0,57,0,4
0,64,102,0
0,57,82,0
0,57,0,188
0,62,0,4
0,53,0,0
0,60,82,0
0,53,102,0
0,60,0,188
0,57,102,4
0,57,82,0
0,57,0,188
0,60,82,4
0,62,102,0
0,60,0,188
0,60,102,4
0,64,82,0
0,53,0,96
0,64,0,96
0,57,0,0
0,62,0,0
0,53,84,0
0,64,0,188
0,60,0,4
0,62,82,0
0,59,102,0
0,53,0,192
0,53,84,0
0,59,0,16
0,57,102,0
0,53,0,96
0,76,127,0
0,72,127,0
0,55,102,0
0,57,0,80
0,59,102,0
0,72,0,12
0,76,0,0
0,74,127,4
0,62,102,0
0,71,127,0
0,59,0,16
0,59,102,0
0,74,0,12
0,41,0,0
0,62,0,0
0,71,0,0
0,62,0,4
0,59,0,0
0,55,0,0
0,69,127,0
0,76,127,0
0,72,127,0
0,45,127,0
0,45,102,0
0,57,102,112
0,67,102,192
0,57,0,192
0,57,102,0
0,67,0,192
0,64,102,0
0,57,0,192
0,57,102,0
0,64,0,192
0,62,102,0
0,57,0,80
0,57,102,0
0,69,0,44
0,72,0,0
0,76,0,0
0,62,0,4
0,60,102,0
0,57,0,192
0,57,102,0
0,60,0,192
0,59,102,0
0,57,0,192
0,57,102,0
0,59,0,16
0,59,102,0
0,57,0,96
0,60,102,0
0,59,0,192
0,59,102,0
0,60,0,192
0,55,102,0
0,45,0,188
0,45,0,0
0,59,0,4
0,53,102,0
0,41,127,0
0,55,0,192
0,57,102,0
0,62,102,192
0,57,82,0
0,57,0,188
0,57,0,4
0,64,102,0
0,57,82,0
0,57,0,188
0,62,0,4
0,53,0,0
0,53,102,0
0,60,82,0
0,60,0,188
0,57,102,4
0,57,82,0
0,57,0,188
0,62,82,4
0,62,102,0
0,60,102,192
0,62,0,192
0,53,0,0
0,64,0,0
0,41,0,188
0,62,0,0
0,60,0,4
0,57,0,0
0,57,102,0
0,45,127,0
0,60,102,0
0,45,102,0
0,52,102,0
0,57,82,0
0,52,0,764
0,45,0,0
0,60,0,0
0,57,0,0
0,45,0,576
0,57,0,0
0,37,112,0
0,37,0,44
0,37,112,340
0,37,0,44
0,37,112,340
0,37,0,44
0,37,112,340
0,37,0,44
0,52,103,340
0,57,103,0
0,48,112,0
0,47,112,0
0,35,112,0
0,45,112,0
0,45,103,0
0,57,112,0
0,38,112,0
0,36,112,0
0,55,112,0
0,49,112,0
0,44,112,0
0,33,118,0
0,54,112,0
0,54,0,44
0,36,0,0
0,45,0,0
0,35,0,0
0,47,0,0
0,57,0,0
0,38,0,0
0,48,0,0
0,44,0,0
0,49,0,0
0,55,0,0
0,57,0,627
0,52,0,0
0,45,0,0
0,33,0,48
0,35,112,49
0,45,118,0
0,48,112,0
0,57,103,0
0,50,112,0
0,50,0,44
0,48,0,0
0,35,0,3
0,45,0,96
0,57,0,0
0,35,112,49
0,47,112,0
0,40,118,0
0,52,103,0
0,48,112,0
0,48,0,44
0,47,0,0
0,35,0,3
0,40,0,96
0,52,0,48
0,47,112,1
0,33,118,0
0,43,112,0
0,35,112,0
0,45,103,0
0,43,0,44
0,47,0,0
0,35,0,3
0,35,112,241
0,43,112,0
0,43,0,47
0,35,0,0
0,45,0,48
0,33,0,0
0,43,112,1
0,35,112,0
0,40,103,0
0,28,118,0
0,35,0,47
0,43,0,0
0,40,0,96
0,28,0,0
0,48,112,49
0,31,118,0
0,47,112,0
0,43,103,0
0,35,112,0
0,35,0,47
0,47,0,0
0,48,0,0
0,31,0,96
0,43,0,48
0,45,103,1
0,33,118,0
0,48,112,0
0,35,112,0
0,50,112,0
0,50,0,47
0,48,0,0
0,35,0,0
0,35,112,241
0,43,112,0
0,43,0,47
0,35,0,0
0,33,0,48
0,45,0,0
0,35,112,1
0,36,118,0
0,48,103,0
0,43,112,0
0,43,0,47
0,35,0,0
0,48,0,144
0,36,0,0
0,43,112,1
0,41,112,0
0,47,103,0
0,35,112,0
0,35,118,0
0,48,112,0
0,48,0,47
0,41,0,0
0,43,0,0
0,35,0,0
0,47,0,144
0,35,0,0
0,43,112,1
0,33,118,0
0,35,112,0
0,45,103,0
0,47,112,0
0,41,112,0
0,41,0,47
0,43,0,0
0,35,0,0
0,47,0,0
0,33,0,144
0,45,0,0
0,31,118,1
0,45,112,0
0,43,103,0
0,35,112,0
0,43,112,0
0,41,112,0
0,41,0,47
0,35,0,0
0,45,0,0
0,43,0,0
0,45,112,142
0,57,112,0
0,55,112,0
0,47,112,0
0,54,112,0
0,35,112,0
0,49,112,0
0,48,112,0
0,44,112,0
0,36,112,0
0,38,112,0
0,31,0,2
0,43,0,0
0,57,103,1
0,65,103,0
0,53,103,0
0,41,103,0
0,48,103,0
0,29,118,0
0,60,103,0
0,45,0,41
0,54,0,0
0,49,0,0
0,57,0,0
0,35,0,0
0,44,0,0
0,55,0,0
0,48,0,0
0,38,0,0
0,36,0,0
0,47,0,0
0,44,112,343
0,44,0,47
0,44,112,337
0,44,0,47
0,44,112,337
0,44,0,47
0,29,0,288
0,41,0,48
0,53,0,0
0,65,0,0
0,48,0,0
0,60,0,0
0,57,0,0
0,48,112,1
0,50,112,0
0,50,0,47
0,48,0,0
0,62,103,145
0,31,118,0
0,71,103,0
0,35,112,0
0,67,103,0
0,35,0,47
0,71,0,96
0,67,0,0
0,62,0,0
0,31,0,48
0,72,103,1
0,67,103,0
0,43,112,0
0,64,103,0
0,36,118,0
0,45,112,0
0,45,0,47
0,43,0,0
0,72,0,96
0,67,0,0
0,64,0,48
0,36,0,0
0,67,103,1
0,62,103,0
0,31,118,0
0,71,103,0
0,35,112,0
0,35,0,47
0,62,0,96
0,67,0,0
0,71,0,0
0,31,0,48
0,36,118,1
0,43,112,0
0,45,112,0
0,64,103,0
0,72,103,0
0,67,103,0
0,45,0,47
0,43,0,0
0,64,0,96
0,72,0,0
0,67,0,0
0,36,0,48
0,67,103,1
0,31,118,0
0,71,103,0
0,35,112,0
0,62,103,0
0,35,0,47
0,71,0,96
0,62,0,0
0,67,0,0
0,31,0,48
0,72,103,1
0,64,103,0
0,45,112,0
0,36,118,0
0,43,112,0
0,48,112,0
0,67,103,0
0,48,0,47
0,45,0,0
0,43,0,0
0,72,0,96
0,67,0,0
0,64,0,0
0,36,0,48
0,71,103,1
0,35,112,0
0,62,103,0
0,67,103,0
0,48,112,0
0,43,112,0
0,31,118,0
0,43,0,47
0,35,0,0
0,48,0,0
0,54,112,142
0,49,112,0
0,36,112,0
0,38,112,0
0,45,112,0
0,35,112,0
0,55,112,0
0,57,112,0
0,44,112,0
0,48,112,0
0,47,112,0
0,67,0,2
0,31,0,0
0,71,0,0
0,62,0,0
0,52,103,2
0,33,118,0
0,45,103,0
0,57,103,0
0,49,0,40
0,36,0,0
0,48,0,0
0,38,0,0
0,45,0,0
0,35,0,0
0,55,0,0
0,54,0,0
0,57,0,0
0,47,0,0
0,44,0,0
0,52,0,631
0,57,0,0
0,45,0,0
0,33,0,48
0,50,112,49
0,35,112,0
0,57,103,0
0,48,112,0
0,45,118,0
0,48,0,44
0,50,0,0
0,35,0,3
0,57,0,96
0,45,0,0
0,48,112,49
0,52,103,0
0,35,112,0
0,40,118,0
0,47,112,0
0,47,0,44
0,48,0,0
0,35,0,3
0,40,0,96
0,52,0,48
0,43,112,1
0,33,118,0
0,45,103,0
0,35,112,0
0,47,112,0
0,47,0,44
0,43,0,0
0,35,0,3
0,43,112,241
0,35,112,0
0,35,0,47
0,43,0,0
0,45,0,48
0,33,0,0
0,28,118,1
0,40,103,0
0,43,112,0
0,35,112,0
0,35,0,47
0,43,0,0
0,40,0,96
0,28,0,0
0,35,112,49
0,48,112,0
0,47,112,0
0,43,103,0
0,31,118,0
0,47,0,47
0,35,0,0
0,48,0,0
0,31,0,96
0,43,0,48
0,48,112,1
0,35,112,0
0,45,103,0
0,33,118,0
0,50,112,0
0,50,0,47
0,48,0,0
0,35,0,0
0,35,112,241
0,43,112,0
0,43,0,47
0,35,0,0
0,45,0,48
0,33,0,0
0,43,112,1
0,48,103,0
0,36,118,0
0,35,112,0
0,35,0,47
0,43,0,0
0,36,0,144
0,48,0,0
0,35,112,1
0,43,112,0
0,47,103,0
0,35,118,0
0,41,112,0
0,48,112,0
0,48,0,47
0,43,0,0
0,35,0,0
0,41,0,0
0,35,0,144
0,47,0,0
0,45,103,1
0,47,112,0
0,35,112,0
0,41,112,0
0,33,118,0
0,43,112,0
0,43,0,47
0,47,0,0
0,35,0,0
0,41,0,0
0,45,0,144
0,33,0,0
0,35,112,1
0,45,112,0
0,43,112,0
0,31,118,0
0,41,112,0
0,43,103,0
0,41,0,47
0,43,0,0
0,35,0,0
0,45,0,0
0,45,112,142
0,49,112,0
0,38,112,0
0,35,112,0
0,36,112,0
0,48,112,0
0,54,112,0
0,55,112,0
0,47,112,0
0,44,112,0
0,57,112,0
0,31,0,2
0,43,0,0
0,41,103,1
0,48,103,0
0,57,103,0
0,29,118,0
0,60,103,0
0,65,103,0
0,53,103,0
0,45,0,41
0,36,0,0
0,54,0,0
0,49,0,0
0,48,0,0
0,47,0,0
0,38,0,0
0,55,0,0
0,57,0,0
0,44,0,0
0,35,0,0
0,44,112,342
0,44,0,47
0,44,112,337
0,44,0,47
0,44,112,337
0,44,0,47
0,29,0,289
0,48,0,48
0,57,0,0
0,41,0,0
0,53,0,0
0,65,0,0
0,60,0,0
0,40,118,0
0,40,0,47
0,40,118,145
0,31,118,1
0,62,103,0
0,71,103,0
0,67,103,0
0,40,0,46
0,40,118,49
0,40,0,47
0,67,0,1
0,71,0,0
0,62,0,0
0,31,0,48
0,40,118,0
0,67,103,1
0,36,118,0
0,72,103,0
0,64,103,0
0,40,0,46
0,40,118,49
0,40,0,47
0,67,0,1
0,72,0,0
0,36,0,48
0,64,0,0
0,40,118,0
0,31,118,1
0,71,103,0
0,67,103,0
0,62,103,0
0,40,0,46
0,40,118,49
0,40,0,47
0,62,0,1
0,67,0,0
0,71,0,0
0,31,0,48
0,40,118,0
0,67,103,1
0,64,103,0
0,72,103,0
0,36,118,0
0,40,0,46
0,40,118,49
0,40,0,47
0,67,0,1
0,72,0,0
0,64,0,0
0,36,0,48
0,40,118,0
0,67,103,1
0,62,103,0
0,31,118,0
0,71,103,0
0,40,0,46
0,40,118,49
0,40,0,47
0,71,0,1
0,67,0,0
0,62,0,0
0,31,0,48
0,40,118,0
0,64,103,1
0,72,103,0
0,67,103,0
0,36,118,0
0,40,0,46
0,40,118,49
0,40,0,47
0,64,0,1
0,67,0,0
0,72,0,0
0,36,0,48
0,40,118,0
0,62,103,1
0,31,118,0
0,67,103,0
0,71,103,0
0,63,65,4
0,40,0,42
0,63,0,22
0,40,118,27
0,62,65,5
0,40,0,42
0,62,0,22
0,49,112,25
0,35,112,0
0,54,112,0
0,38,112,0
0,55,112,0
0,48,112,0
0,57,112,0
0,36,112,0
0,45,112,0
0,47,112,0
0,44,112,0
0,71,0,2
0,67,0,0
0,62,0,0
0,31,0,0
0,33,118,0
0,57,103,0
0,45,103,0
0,52,103,0
0,64,100,5
