track,note,velocity,time
1,28,86,19968
1,28,86,4
1,40,86,4
1,35,86,4
1,38,86,4
1,40,86,4
1,28,86,4
1,28,86,196
1,40,86,4
1,35,86,4
1,38,86,4
1,40,86,4
1,43,86,4
1,28,86,64
1,28,86,4
1,40,86,4
1,35,86,4
1,38,86,4
1,40,86,4
1,43,86,4
1,43,86,4
1,40,86,4
1,43,86,4
1,45,86,4
1,46,86,4
1,45,86,4
1,43,86,4
1,45,86,4
1,28,86,4
1,28,86,4
1,40,86,4
1,35,86,4
1,38,86,4
1,40,86,4
1,28,86,4
1,28,86,196
1,40,86,4
1,35,86,4
1,38,86,4
1,40,86,4
1,43,86,4
1,28,86,64
1,28,86,4
1,40,86,4
1,35,86,4
1,38,86,4
1,40,86,4
1,43,86,4
1,43,86,4
1,40,86,4
1,43,86,4
1,45,86,4
1,46,86,4
1,45,86,4
1,43,86,4
1,45,86,4
1,28,86,4
1,28,86,4
1,40,86,4
1,35,86,4
1,38,86,4
1,40,86,4
1,28,86,4
1,28,86,196
1,40,86,4
1,35,86,4
1,38,86,4
1,40,86,4
1,43,86,4
1,28,86,64
1,28,86,4
1,40,86,4
1,35,86,4
1,38,86,4
1,40,86,4
1,28,86,4
1,28,86,196
1,40,86,4
1,35,86,4
1,38,86,4
1,40,86,4
1,38,86,4
1,40,86,4
1,28,86,4
1,28,86,4
1,40,86,4
1,35,86,4
1,38,86,4
1,40,86,4
1,28,86,4
1,28,86,196
1,40,86,4
1,35,86,4
1,38,86,4
1,40,86,4
1,43,86,4
1,28,86,64
1,28,86,4
1,40,86,4
1,35,86,4
1,38,86,4
1,40,86,4
1,43,86,4
1,43,86,4
1,40,86,4
1,43,86,4
1,45,86,4
1,46,86,4
1,45,86,4
1,43,86,4
1,45,86,4
1,28,86,4
1,28,86,4
1,40,86,4
1,35,86,4
1,38,86,4
1,40,86,4
1,28,86,4
1,28,86,196
1,40,86,4
1,35,86,4
1,38,86,4
1,40,86,4
1,43,86,4
1,28,86,64
1,28,86,4
1,40,86,4
1,35,86,4
1,38,86,4
1,40,86,4
1,43,86,4
1,43,86,4
1,40,86,4
1,43,86,4
1,45,86,4
1,46,86,4
1,45,86,4
1,43,86,4
1,45,86,4
1,28,86,4
1,28,86,4
1,40,86,4
1,35,86,4
1,38,86,4
1,40,86,4
1,28,86,4
1,28,86,196
1,40,86,4
1,35,86,4
1,38,86,4
1,40,86,4
1,43,86,4
1,28,86,64
1,28,86,4
1,40,86,4
1,35,86,4
1,38,86,4
1,40,86,4
1,43,86,4
1,43,86,4
1,40,86,4
1,43,86,4
1,45,86,4
1,46,86,4
1,45,86,4
1,43,86,4
1,45,86,4
1,28,86,4
1,28,86,4
1,40,86,4
1,35,86,4
1,38,86,4
1,40,86,4
1,28,86,4
1,28,86,196
1,40,86,4
1,35,86,4
1,38,86,4
1,40,86,4
1,43,86,4
1,28,86,64
1,28,86,4
1,40,86,4
1,35,86,4
1,38,86,4
1,40,86,4
1,43,86,4
1,43,86,4
1,40,86,4
1,43,86,4
1,45,86,4
1,46,86,4
1,45,86,4
1,43,86,4
1,45,86,4
1,36,86,4
1,43,86,0
1,48,86,0
1,36,86,4
1,43,86,0
1,48,86,0
1,31,86,388
1,38,86,0
1,43,86,0
1,50,86,0
1,31,86,4
1,38,86,0
1,43,86,0
1,50,86,0
1,38,86,388
1,45,86,0
1,50,86,0
1,38,86,4
1,45,86,0
1,50,86,0
1,40,86,196
1,47,86,0
1,52,86,0
1,36,86,96
1,43,86,0
1,48,86,0
1,36,86,4
1,43,86,0
1,48,86,0
1,40,86,388
1,47,86,0
1,52,86,0
1,33,86,448
1,40,86,0
1,33,86,4
1,40,86,0
1,33,86,4
1,40,86,0
1,33,86,4
1,40,86,0
1,33,86,4
1,40,86,0
1,35,86,4
1,42,86,0
1,47,86,0
1,36,86,64
1,43,86,0
1,48,86,0
1,36,86,4
1,43,86,0
1,48,86,0
1,31,86,388
1,38,86,0
1,43,86,0
1,50,86,0
1,31,86,4
1,38,86,0
1,43,86,0
1,50,86,0
1,38,86,388
1,45,86,0
1,50,86,0
1,38,86,4
1,45,86,0
1,50,86,0
1,40,86,196
1,47,86,0
1,52,86,0
1,36,86,96
1,35,86,4
1,36,86,4
1,35,86,4
1,36,86,4
1,31,86,4
1,38,86,0
1,43,86,0
1,50,86,0
1,55,86,0
1,38,86,196
1,45,86,0
1,50,86,0
1,38,86,4
1,45,86,0
1,50,86,0
1,38,86,4
1,48,86,0
1,38,86,4
1,48,86,0
1,38,86,4
1,48,86,0
1,38,86,4
1,48,86,0
1,38,86,4
1,48,86,0
1,38,86,4
1,48,86,0
1,38,86,4
1,48,86,0
1,28,86,4
1,28,86,4
1,40,86,4
1,35,86,4
1,38,86,4
1,40,86,4
1,28,86,4
1,28,86,196
1,40,86,4
1,35,86,4
1,38,86,4
1,40,86,4
1,43,86,4
1,28,86,64
1,28,86,4
1,40,86,4
1,35,86,4
1,38,86,4
1,40,86,4
1,43,86,4
1,43,86,4
1,40,86,4
1,43,86,4
1,45,86,4
1,46,86,4
1,45,86,4
1,43,86,4
1,45,86,4
1,28,86,4
1,28,86,4
1,40,86,4
1,35,86,4
1,38,86,4
1,40,86,4
1,28,86,4
1,28,86,196
1,40,86,4
1,35,86,4
1,38,86,4
1,40,86,4
1,43,86,4
1,28,86,64
1,28,86,4
1,40,86,4
1,35,86,4
1,38,86,4
1,40,86,4
1,28,86,4
1,28,86,196
1,40,86,4
1,35,86,4
1,38,86,4
1,40,86,4
1,38,86,4
1,40,86,4
1,28,86,4
1,28,86,4
1,40,86,4
1,35,86,4
1,38,86,4
1,40,86,4
1,28,86,4
1,28,86,196
1,40,86,4
1,35,86,4
1,38,86,4
1,40,86,4
1,43,86,4
1,28,86,64
1,28,86,4
1,40,86,4
1,35,86,4
1,38,86,4
1,40,86,4
1,43,86,4
1,43,86,4
1,40,86,4
1,43,86,4
1,45,86,4
1,46,86,4
1,45,86,4
1,43,86,4
1,45,86,4
1,28,86,4
1,28,86,4
1,40,86,4
1,35,86,4
1,38,86,4
1,40,86,4
1,28,86,4
1,28,86,196
1,40,86,4
1,35,86,4
1,38,86,4
1,40,86,4
1,43,86,4
1,28,86,64
1,28,86,4
1,40,86,4
1,35,86,4
1,38,86,4
1,40,86,4
1,43,86,4
1,43,86,4
1,40,86,4
1,43,86,4
1,45,86,4
1,46,86,4
1,45,86,4
1,43,86,4
1,45,86,4
1,28,86,4
1,28,86,4
1,40,86,4
1,35,86,4
1,38,86,4
1,40,86,4
1,28,86,4
1,28,86,196
1,40,86,4
1,35,86,4
1,38,86,4
1,40,86,4
1,43,86,4
1,28,86,64
1,28,86,4
1,40,86,4
1,35,86,4
1,38,86,4
1,40,86,4
1,43,86,4
1,43,86,4
1,40,86,4
1,43,86,4
1,45,86,4
1,46,86,4
1,45,86,4
1,43,86,4
1,45,86,4
1,28,86,4
1,28,86,4
1,40,86,4
1,35,86,4
1,38,86,4
1,40,86,4
1,28,86,4
1,28,86,196
1,40,86,4
1,35,86,4
1,38,86,4
1,40,86,4
1,43,86,4
1,28,86,64
1,28,86,4
1,40,86,4
1,35,86,4
1,38,86,4
1,40,86,4
1,43,86,4
1,43,86,4
1,40,86,4
1,43,86,4
1,45,86,4
1,46,86,4
1,45,86,4
1,43,86,4
1,45,86,4
1,36,86,4
1,43,86,0
1,48,86,0
1,36,86,4
1,43,86,0
1,48,86,0
1,31,86,388
1,38,86,0
1,43,86,0
1,50,86,0
1,31,86,4
1,38,86,0
1,43,86,0
1,50,86,0
1,38,86,388
1,45,86,0
1,50,86,0
1,38,86,4
1,45,86,0
1,50,86,0
1,40,86,196
1,47,86,0
1,52,86,0
1,36,86,96
1,43,86,0
1,48,86,0
1,36,86,4
1,43,86,0
1,48,86,0
1,40,86,388
1,47,86,0
1,52,86,0
1,33,86,448
1,40,86,0
1,33,86,4
1,40,86,0
1,33,86,4
1,40,86,0
1,33,86,4
1,40,86,0
1,33,86,4
1,40,86,0
1,35,86,4
1,42,86,0
1,47,86,0
1,36,86,64
1,43,86,0
1,48,86,0
1,36,86,4
1,43,86,0
1,48,86,0
1,31,86,388
1,38,86,0
1,43,86,0
1,50,86,0
1,31,86,4
1,38,86,0
1,43,86,0
1,50,86,0
1,38,86,388
1,45,86,0
1,50,86,0
1,38,86,4
1,45,86,0
1,50,86,0
1,40,86,196
1,47,86,0
1,52,86,0
1,36,86,96
1,35,86,4
1,36,86,4
1,35,86,4
1,36,86,4
1,31,86,4
1,38,86,0
1,43,86,0
1,50,86,0
1,55,86,0
1,38,86,196
1,45,86,0
1,50,86,0
1,38,86,4
1,45,86,0
1,50,86,0
1,38,86,4
1,48,86,0
1,38,86,4
1,48,86,0
1,38,86,4
1,48,86,0
1,38,86,4
1,48,86,0
1,38,86,4
1,48,86,0
1,38,86,4
1,48,86,0
1,38,86,4
1,48,86,0
1,28,86,196
1,40,86,4
1,35,86,4
1,38,86,4
1,40,86,4
1,43,86,4
1,28,86,64
1,28,86,4
1,40,86,4
1,35,86,4
1,38,86,4
1,40,86,4
1,43,86,4
1,43,86,4
1,40,86,4
1,43,86,4
1,45,86,4
1,46,86,4
1,45,86,4
1,43,86,4
1,45,86,4
1,28,86,4
1,28,86,4
1,40,86,4
1,35,86,4
1,38,86,4
1,40,86,4
1,28,86,4
1,28,86,196
1,40,86,4
1,35,86,4
1,38,86,4
1,40,86,4
1,43,86,4
1,28,86,64
1,28,86,4
1,40,86,4
1,35,86,4
1,38,86,4
1,40,86,4
1,43,86,4
1,43,86,4
1,40,86,4
1,43,86,4
1,45,86,4
1,46,86,4
1,45,86,4
1,43,86,4
1,45,86,4
1,28,86,4
1,28,86,4
1,40,86,4
1,35,86,4
1,38,86,4
1,40,86,4
1,28,86,4
1,28,86,196
1,40,86,4
1,35,86,4
1,38,86,4
1,40,86,4
1,43,86,4
1,28,86,64
1,28,86,4
1,40,86,4
1,35,86,4
1,38,86,4
1,40,86,4
1,43,86,4
1,43,86,4
1,40,86,4
1,43,86,4
1,45,86,4
1,46,86,4
1,45,86,4
1,43,86,4
1,45,86,4
1,28,86,4
1,28,86,4
1,40,86,4
1,35,86,4
1,38,86,4
1,40,86,4
1,28,86,4
1,28,86,196
1,40,86,4
1,35,86,4
1,38,86,4
1,40,86,4
1,43,86,4
1,28,86,64
1,28,86,4
1,40,86,4
1,35,86,4
1,38,86,4
1,40,86,4
1,43,86,4
1,43,86,4
1,40,86,4
1,43,86,4
1,45,86,4
1,46,86,4
1,45,86,4
1,43,86,4
1,45,86,4
1,28,86,4
1,28,86,4
1,40,86,4
1,35,86,4
1,38,86,4
1,40,86,4
1,28,86,4
1,28,86,196
1,40,86,4
1,35,86,4
1,38,86,4
1,40,86,4
1,43,86,4
1,28,86,64
1,28,86,4
1,40,86,4
1,35,86,4
1,38,86,4
1,40,86,4
1,43,86,4
1,43,86,4
1,40,86,4
1,43,86,4
1,45,86,4
1,46,86,4
1,45,86,4
1,43,86,4
1,45,86,4
1,28,86,4
1,28,86,4
1,40,86,4
1,35,86,4
1,38,86,4
1,40,86,4
1,28,86,4
1,28,86,196
1,40,86,4
1,35,86,4
1,38,86,4
1,40,86,4
1,43,86,4
1,28,86,64
1,28,86,4
1,40,86,4
1,35,86,4
1,38,86,4
1,40,86,4
1,43,86,4
1,43,86,4
1,40,86,4
1,43,86,4
1,45,86,4
1,46,86,4
1,45,86,4
1,43,86,4
1,45,86,4
1,40,86,4
1,47,86,0
1,52,86,0
1,40,86,4
1,47,86,0
1,52,86,0
2,40,68,0
2,40,68,4
2,52,68,4
2,47,68,4
2,50,68,4
2,52,68,4
2,40,68,4
2,40,68,196
2,52,68,4
2,47,68,4
2,50,68,4
2,52,68,4
2,55,68,4
2,40,68,64
2,40,68,4
2,52,68,4
2,47,68,4
2,50,68,4
2,52,68,4
2,60,68,4
2,64,68,0
2,60,68,4
2,64,68,0
2,57,68,4
2,60,68,4
2,64,68,0
2,62,68,4
2,65,68,0
2,63,68,4
2,67,68,0
2,62,68,4
2,65,68,0
2,60,68,4
2,64,68,0
2,62,68,4
2,65,68,0
2,40,68,4
2,40,68,4
2,52,68,4
2,47,68,4
2,50,68,4
2,52,68,4
2,40,68,4
2,40,68,196
2,52,68,4
2,47,68,4
2,50,68,4
2,52,68,4
2,55,68,4
2,40,68,64
2,40,68,4
2,52,68,4
2,47,68,4
2,50,68,4
2,52,68,4
2,60,68,4
2,64,68,0
2,60,68,4
2,64,68,0
2,57,68,4
2,60,68,4
2,64,68,0
2,62,68,4
2,65,68,0
2,63,68,4
2,67,68,0
2,62,68,4
2,65,68,0
2,60,68,4
2,64,68,0
2,62,68,4
2,65,68,0
2,40,68,4
2,40,68,4
2,52,68,4
2,47,68,4
2,50,68,4
2,52,68,4
2,40,68,4
2,40,68,196
2,52,68,4
2,47,68,4
2,50,68,4
2,52,68,4
2,55,68,4
2,40,68,64
2,40,68,4
2,52,68,4
2,47,68,4
2,50,68,4
2,52,68,4
2,40,68,4
2,40,68,196
2,52,68,4
2,47,68,4
2,52,68,4
2,52,68,64
2,40,68,64
2,40,68,4
2,52,68,4
2,47,68,4
2,50,68,4
2,52,68,4
2,40,68,4
2,40,68,196
2,52,68,4
2,47,68,4
2,50,68,4
2,52,68,4
2,55,68,4
2,40,68,64
2,40,68,4
2,52,68,4
2,47,68,4
2,50,68,4
2,52,68,4
2,60,68,4
2,64,68,0
2,60,68,4
2,64,68,0
2,57,68,4
2,60,68,4
2,64,68,0
2,62,68,4
2,65,68,0
2,63,68,4
2,67,68,0
2,62,68,4
2,65,68,0
2,60,68,4
2,64,68,0
2,62,68,4
2,65,68,0
2,40,68,4
2,40,68,4
2,52,68,4
2,47,68,4
2,50,68,4
2,52,68,4
2,40,68,4
2,40,68,196
2,52,68,4
2,47,68,4
2,50,68,4
2,52,68,4
2,55,68,4
2,40,68,64
2,40,68,4
2,52,68,4
2,47,68,4
2,50,68,4
2,52,68,4
2,60,68,4
2,64,68,0
2,60,68,4
2,64,68,0
2,57,68,4
2,60,68,4
2,64,68,0
2,62,68,4
2,65,68,0
2,63,68,4
2,67,68,0
2,62,68,4
2,65,68,0
2,60,68,4
2,64,68,0
2,62,68,4
2,65,68,0
2,40,68,4
2,40,68,4
2,52,68,4
2,47,68,4
2,50,68,4
2,52,68,4
2,40,68,4
2,40,68,196
2,52,68,4
2,47,68,4
2,50,68,4
2,52,68,4
2,55,68,4
2,40,68,64
2,40,68,4
2,52,68,4
2,47,68,4
2,50,68,4
2,52,68,4
2,60,68,4
2,64,68,0
2,60,68,4
2,64,68,0
2,57,68,4
2,60,68,4
2,64,68,0
2,62,68,4
2,65,68,0
2,63,68,4
2,67,68,0
2,62,68,4
2,65,68,0
2,60,68,4
2,64,68,0
2,62,68,4
2,65,68,0
2,40,68,4
2,40,68,4
2,52,68,4
2,47,68,4
2,50,68,4
2,52,68,4
2,40,68,4
2,40,68,196
2,52,68,4
2,47,68,4
2,50,68,4
2,52,68,4
2,55,68,4
2,40,68,64
2,40,68,4
2,52,68,4
2,47,68,4
2,50,68,4
2,52,68,4
2,60,68,4
2,64,68,0
2,60,68,4
2,64,68,0
2,57,68,4
2,60,68,4
2,64,68,0
2,62,68,4
2,65,68,0
2,63,68,4
2,67,68,0
2,62,68,4
2,65,68,0
2,60,68,4
2,64,68,0
2,62,68,4
2,65,68,0
2,48,68,4
2,55,68,0
2,60,68,0
2,48,68,4
2,55,68,0
2,60,68,0
2,43,68,388
2,50,68,0
2,55,68,0
2,62,68,0
2,43,68,4
2,50,68,0
2,55,68,0
2,62,68,0
2,50,68,388
2,57,68,0
2,62,68,0
2,50,68,4
2,57,68,0
2,62,68,0
2,52,68,196
2,59,68,0
2,64,68,0
2,48,68,96
2,55,68,0
2,60,68,0
2,48,68,4
2,55,68,0
2,60,68,0
2,52,68,388
2,59,68,0
2,64,68,0
2,45,68,448
2,52,68,0
