track,note,velocity,time
0,49,115,0
0,42,115,0
0,57,120,0
0,30,119,0
0,49,121,0
0,35,120,0
0,35,0,2
0,42,0,45
0,49,0,0
0,30,0,0
0,40,115,1
0,47,115,0
0,28,120,0
0,28,0,59
0,40,0,0
0,47,0,0
0,30,120,1
0,42,115,0
0,35,120,0
0,49,115,0
0,35,0,14
0,42,0,45
0,30,0,0
0,49,0,0
0,33,127,1
0,45,115,0
0,52,115,0
0,49,0,15
0,57,0,13
0,45,0,31
0,33,0,0
0,52,0,0
0,35,120,1
0,35,0,14
0,52,115,46
0,33,121,0
0,45,115,0
0,35,120,60
0,43,100,0
0,43,0,14
0,35,0,0
0,43,72,46
0,43,0,14
0,35,120,46
0,43,72,0
0,43,0,14
0,35,0,0
0,43,100,46
0,43,0,14
0,43,100,16
0,43,0,14
0,52,0,15
0,33,0,0
0,45,0,0
0,43,100,1
0,35,121,0
0,35,0,14
0,43,0,0
0,43,72,46
0,43,0,14
0,33,121,46
0,49,121,0
0,45,115,0
0,52,115,0
0,57,119,0
0,43,100,0
0,35,120,0
0,35,0,14
0,57,0,0
0,49,0,0
0,43,0,0
0,33,0,45
0,52,0,0
0,45,0,0
0,33,121,1
0,43,100,0
0,52,115,0
0,49,116,0
0,57,116,0
0,45,115,0
0,57,0,14
0,49,0,0
0,43,0,0
0,33,0,45
0,45,0,0
0,52,0,0
0,43,106,1
0,35,120,0
0,35,100,1
0,35,0,13
0,43,0,0
0,35,0,1
0,43,106,15
0,43,0,14
0,43,106,16
0,43,0,14
0,54,115,46
0,35,121,0
0,47,115,0
0,35,120,1
0,35,0,14
0,54,0,44
0,35,0,0
0,47,0,0
0,33,121,1
0,52,115,0
0,45,115,0
0,45,0,59
0,52,0,0
0,33,0,0
0,47,115,1
0,35,121,0
0,54,115,0
0,35,120,1
0,35,0,14
0,47,0,44
0,35,0,0
0,54,0,0
0,57,115,1
0,38,121,0
0,50,115,0
0,50,0,59
0,38,0,0
0,57,0,0
0,35,121,2
0,35,100,1
0,35,0,13
0,35,0,1
0,38,121,44
0,57,115,0
0,50,115,0
0,43,100,60
0,35,100,2
0,43,0,12
0,35,0,2
0,43,100,14
0,43,0,14
0,43,100,16
0,43,0,14
0,43,100,16
0,43,0,14
0,35,100,18
0,35,0,14
0,43,100,44
0,43,0,14
0,43,100,16
0,43,0,14
0,38,0,15
0,57,0,0
0,50,0,0
0,43,100,1
0,35,100,2
0,35,100,1
0,43,0,11
0,35,0,2
0,35,0,1
0,43,100,13
0,43,0,14
0,43,100,16
0,43,0,14
0,49,124,46
0,49,115,0
0,37,121,0
0,57,122,0
0,56,115,0
0,35,100,3
0,35,0,14
0,49,0,42
0,37,0,0
0,56,0,0
0,49,115,1
0,56,115,0
0,37,121,0
0,49,0,10
0,57,0,18
0,56,0,31
0,49,0,0
0,37,0,0
0,43,124,1
0,35,100,3
0,35,0,14
0,43,124,13
0,43,124,30
0,43,0,10
0,43,124,20
0,43,0,10
0,49,115,20
0,35,120,0
0,42,115,0
0,49,121,0
0,57,120,0
0,30,119,1
0,43,0,9
0,35,0,4
0,43,0,26
0,42,0,19
0,49,0,0
0,30,0,1
0,47,115,0
0,40,115,0
0,28,120,1
0,57,0,14
0,49,0,2
0,40,0,42
0,47,0,0
0,28,0,1
0,49,115,0
0,35,120,0
0,42,115,0
0,30,120,1
0,35,0,13
0,49,0,45
0,42,0,0
0,30,0,1
0,52,115,0
0,45,115,0
0,33,127,1
0,45,0,58
0,52,0,0
0,33,0,1
0,35,120,0
0,35,0,14
0,52,115,46
0,45,115,0
0,33,121,1
0,43,100,59
0,35,120,0
0,35,0,14
0,43,0,0
0,43,72,46
0,43,0,14
0,43,72,46
0,35,120,0
0,35,0,14
0,43,0,0
0,43,100,46
0,43,0,14
0,43,100,16
0,43,0,14
0,52,0,15
0,45,0,0
0,33,0,1
0,35,121,0
0,43,100,0
0,43,0,14
0,35,0,0
0,43,72,46
0,43,0,14
0,35,120,46
0,52,115,0
0,57,119,0
0,45,115,0
0,43,100,0
0,49,121,0
0,33,121,1
0,49,0,13
0,57,0,0
0,35,0,0
0,43,0,0
0,52,0,45
0,45,0,0
0,33,0,1
0,52,115,0
0,57,116,0
0,45,115,0
0,49,116,0
0,43,100,0
0,33,121,1
0,43,0,13
0,49,0,0
0,57,0,0
0,52,0,45
0,45,0,0
0,33,0,1
0,35,120,0
0,43,106,0
0,35,100,1
0,43,0,13
0,35,0,0
0,35,0,1
0,43,106,15
0,43,0,14
0,43,106,16
0,43,0,14
0,49,127,46
0,57,127,0
0,54,115,0
0,43,111,0
0,47,115,0
0,35,120,1
0,35,121,0
0,35,0,14
0,54,0,44
0,47,0,0
0,35,0,1
0,45,115,0
0,52,115,0
0,33,121,1
0,43,0,9
0,57,0,32
0,49,0,3
0,45,0,14
0,52,0,0
0,33,0,1
0,54,115,0
0,43,111,0
0,36,111,0
0,47,115,0
0,35,120,1
0,35,121,0
0,35,0,14
0,47,0,44
0,54,0,0
0,35,0,1
0,35,100,0
0,57,115,0
0,50,115,0
0,38,121,1
0,43,0,9
0,36,0,0
0,35,0,4
0,57,0,45
0,50,0,0
0,38,0,1
0,36,111,0
0,43,111,0
0,35,121,1
0,35,100,1
0,35,0,13
0,35,0,1
0,35,100,44
0,57,115,0
0,50,115,0
0,38,121,1
0,43,0,9
0,36,0,0
0,35,0,4
0,43,111,46
0,36,111,0
0,35,100,2
0,35,0,14
0,35,100,44
0,43,0,10
0,36,0,0
0,35,0,4
0,36,111,46
0,43,111,0
0,35,100,2
0,35,0,14
0,35,100,44
0,36,0,10
0,43,0,0
0,35,0,4
0,57,0,45
0,50,0,0
0,38,0,1
0,36,111,0
0,43,111,0
0,35,100,2
0,35,100,1
0,35,0,13
0,35,0,1
0,35,100,43
0,43,0,10
0,36,0,0
0,35,0,4
0,36,111,46
0,49,115,0
0,56,115,0
0,43,111,0
0,37,121,1
0,35,100,2
0,35,0,14
0,49,0,42
0,56,0,0
0,37,0,1
0,49,115,0
0,56,115,0
0,43,121,0
0,49,115,1
0,37,121,0
0,43,0,9
0,36,0,0
0,56,0,49
0,49,0,0
0,37,0,1
0,49,0,0
0,36,127,0
0,43,127,0
0,35,100,3
0,35,120,1
0,35,0,13
0,35,0,1
0,43,0,36
0,43,121,6
0,43,0,10
0,36,0,0
0,43,121,20
0,42,127,30
0,49,115,0
0,42,115,0
0,57,121,0
0,30,119,0
0,49,127,0
0,46,127,0
0,35,120,4
0,35,0,14
0,43,0,36
0,49,0,5
0,42,0,0
0,30,0,0
0,47,115,1
0,42,100,0
0,40,115,0
0,28,120,0
0,42,0,14
0,43,0,10
0,49,0,30
0,57,0,0
0,46,0,0
0,42,0,0
0,28,0,5
0,40,0,0
0,47,0,0
0,38,127,1
0,30,120,0
0,42,127,0
0,42,115,0
0,49,115,0
0,35,120,4
0,35,0,14
0,42,0,41
0,30,0,0
0,49,0,0
0,52,115,1
0,42,120,0
0,45,115,0
0,33,127,0
0,38,0,10
0,42,0,4
0,42,0,40
0,52,0,5
0,33,0,0
0,45,0,0
0,42,100,1
0,35,120,4
0,42,0,10
0,35,0,4
0,42,120,42
0,33,121,0
0,45,115,0
0,52,115,0
0,42,0,14
0,38,127,46
0,42,127,0
0,35,120,4
0,35,0,14
0,42,120,42
0,38,0,10
0,42,0,4
0,42,100,16
0,42,0,14
0,42,0,10
0,42,100,6
0,35,121,4
0,42,0,10
0,35,0,4
0,42,100,12
0,42,0,14
0,42,100,16
0,60,111,0
0,42,0,14
0,52,0,45
0,45,0,0
0,33,0,0
0,60,0,0
0,61,111,1
0,42,100,0
0,38,126,0
0,35,120,4
0,42,0,10
0,35,0,4
0,61,0,41
0,60,111,1
0,42,120,0
0,38,0,10
0,42,0,4
0,60,0,45
0,42,100,1
0,52,115,0
0,33,121,0
0,61,111,0
0,45,115,0
0,35,120,4
0,35,100,1
0,42,0,9
0,35,0,4
0,35,0,1
0,52,0,40
0,45,0,0
0,33,0,0
0,52,115,1
0,42,120,0
0,33,121,0
0,45,115,0
0,42,0,14
0,33,0,45
0,61,0,0
0,52,0,0
0,45,0,0
0,35,120,1
0,38,127,0
0,54,111,0
0,42,100,0
0,42,0,14
0,35,0,0
0,38,0,56
0,54,0,49
0,35,121,1
0,42,100,0
0,54,115,0
0,47,115,0
0,35,120,5
0,42,0,9
0,35,0,5
0,35,0,40
0,54,0,0
0,47,0,0
0,45,115,1
0,42,100,0
0,33,121,0
0,52,115,0
0,42,0,14
0,45,0,45
0,33,0,0
0,52,0,0
0,47,115,1
0,42,100,0
0,38,127,0
0,35,121,0
0,54,115,0
0,35,121,5
0,35,100,1
0,42,0,8
0,35,0,5
0,35,0,1
0,35,0,39
0,47,0,0
0,54,0,0
0,50,115,1
0,42,120,0
0,38,121,0
0,57,115,0
0,38,0,10
0,42,0,4
0,50,0,45
0,38,0,0
0,57,0,0
0,42,100,1
0,35,100,6
0,42,0,8
0,35,0,6
0,38,121,40
0,57,115,0
0,50,115,0
0,42,120,0
0,42,0,14
0,38,127,46
0,42,100,0
0,35,100,6
0,42,0,8
0,35,0,6
0,42,120,40
0,38,0,10
0,42,0,4
0,42,120,16
0,42,0,14
0,42,100,16
0,35,100,6
0,35,100,1
0,42,0,7
0,35,0,6
0,35,0,1
0,42,120,9
0,42,0,14
0,60,111,16
0,42,120,0
0,42,0,14
0,57,0,45
0,50,0,0
0,38,0,0
0,60,0,0
0,38,127,1
0,42,100,0
0,61,111,0
0,35,100,7
0,42,0,7
0,35,0,7
0,61,0,38
0,60,111,1
0,38,0,10
0,60,0,49
0,37,121,1
0,61,111,0
0,49,115,0
0,42,100,0
0,56,115,0
0,35,100,7
0,35,120,1
0,42,0,6
0,35,0,7
0,35,0,1
0,49,0,37
0,37,0,0
0,61,0,0
0,56,0,0
0,37,121,1
0,42,120,0
0,56,115,0
0,64,111,0
0,49,115,0
0,42,0,14
0,64,0,45
0,37,0,0
0,56,0,0
0,49,0,0
0,61,111,1
0,42,100,0
0,38,127,0
0,35,120,8
0,42,0,6
0,35,0,8
0,38,0,48
0,61,0,49
0,42,115,1
0,49,115,0
0,46,127,0
0,57,121,0
0,49,127,0
0,42,127,0
0,30,119,1
0,35,120,3
0,35,0,14
0,49,0,41
0,42,0,0
0,30,0,1
0,42,100,0
0,40,115,0
0,47,115,0
0,28,120,1
0,42,0,13
0,42,0,40
0,57,0,0
0,49,0,0
0,46,0,0
0,40,0,5
0,47,0,0
0,28,0,1
0,49,115,0
0,42,127,0
0,38,127,0
0,42,115,0
0,30,120,1
0,35,120,3
0,35,0,14
0,49,0,41
0,42,0,0
0,30,0,1
0,52,115,0
0,45,115,0
0,42,120,0
0,33,127,1
0,38,0,9
0,42,0,4
0,42,0,40
0,45,0,5
0,52,0,0
0,33,0,1
0,42,100,0
0,35,120,4
0,42,0,10
0,35,0,4
0,52,115,42
0,45,115,0
0,42,120,0
0,33,121,1
0,42,0,13
0,42,127,46
0,38,127,0
0,35,120,4
0,35,0,14
0,42,120,42
0,38,0,10
0,42,0,4
0,42,100,16
0,42,0,14
0,42,0,10
0,42,100,6
0,35,121,4
0,42,0,10
0,35,0,4
0,42,100,12
0,42,0,14
0,42,100,16
0,60,111,1
0,42,0,13
0,45,0,45
0,52,0,0
0,33,0,1
0,60,0,0
0,38,126,0
0,42,100,0
0,61,111,1
0,35,120,3
0,42,0,10
0,35,0,4
0,61,0,42
0,42,120,0
0,60,111,1
0,38,0,9
0,42,0,4
0,60,0,46
0,45,115,0
0,42,100,0
0,52,115,0
0,61,111,1
0,33,121,0
0,35,120,3
0,35,100,1
0,42,0,9
0,35,0,4
0,35,0,1
0,45,0,40
0,52,0,0
0,33,0,1
0,42,120,0
0,52,115,0
0,45,115,0
0,33,121,1
0,42,0,13
0,45,0,45
0,52,0,0
0,61,0,1
0,33,0,0
0,38,127,0
0,35,120,0
0,42,100,0
0,54,111,1
0,42,0,13
0,35,0,0
0,38,0,56
0,54,0,50
0,54,115,0
0,42,100,0
0,47,115,0
0,35,121,1
0,35,120,4
0,42,0,9
0,35,0,5
0,54,0,40
0,47,0,0
0,35,0,1
0,42,100,0
0,52,115,0
0,45,115,0
0,33,121,1
0,42,0,13
0,52,0,45
0,45,0,0
0,33,0,1
0,47,115,0
0,54,115,0
0,42,100,0
0,38,127,0
0,35,121,1
0,35,121,4
0,35,100,1
0,42,0,8
0,35,0,5
0,35,0,1
0,47,0,39
0,54,0,0
0,35,0,1
0,57,115,0
0,42,120,0
0,50,115,0
0,38,121,1
0,38,0,9
0,42,0,4
0,57,0,45
0,50,0,0
0,38,0,1
0,42,100,0
0,35,100,6
0,42,0,8
0,35,0,6
0,42,120,40
0,57,115,0
0,50,115,0
0,38,121,1
0,42,0,13
0,38,127,46
0,42,100,0
0,35,100,6
0,42,0,8
0,35,0,6
0,42,120,40
0,38,0,10
0,42,0,4
0,42,120,16
0,42,0,14
0,42,100,16
0,35,100,6
0,35,100,1
0,42,0,7
0,35,0,6
0,35,0,1
0,42,120,9
0,42,0,14
0,42,120,16
0,60,111,1
0,42,0,13
0,50,0,45
0,57,0,0
0,38,0,1
0,60,0,0
0,42,100,0
0,38,127,0
0,61,111,1
0,35,100,6
0,42,0,7
0,35,0,7
0,61,0,39
0,42,120,0
0,60,111,1
0,38,0,9
0,42,0,4
0,60,0,46
0,56,115,0
0,42,100,0
0,49,115,0
0,61,111,1
0,37,121,0
0,35,100,6
0,35,120,1
0,42,0,6
0,35,0,7
0,35,0,1
0,56,0,37
0,49,0,0
0,61,0,1
0,37,0,0
0,49,115,0
0,56,115,0
0,42,120,0
0,64,111,1
0,49,115,0
0,37,121,0
0,42,0,13
0,49,0,45
0,56,0,0
0,64,0,1
0,49,0,0
0,37,0,0
0,35,120,0
0,42,100,0
0,38,127,0
0,61,111,1
0,42,0,13
0,35,0,0
0,38,0,56
0,61,0,50
0,57,121,0
0,46,127,0
0,49,127,0
0,42,127,0
0,42,115,1
0,30,119,0
0,49,115,0
0,35,120,3
0,35,0,14
0,49,0,42
0,42,0,0
0,30,0,0
0,42,100,0
0,28,120,1
0,47,115,0
0,40,115,0
0,42,0,13
0,42,0,40
0,57,0,0
0,49,0,0
0,46,0,0
0,40,0,6
0,47,0,0
0,28,0,0
0,38,127,0
0,42,127,0
0,30,120,1
0,49,115,0
0,42,115,0
0,35,120,3
0,35,0,14
0,49,0,42
0,30,0,0
0,42,0,0
0,42,120,0
0,52,115,1
0,33,127,0
0,45,115,0
0,38,0,9
0,42,0,4
0,42,0,40
0,52,0,6
0,33,0,0
0,45,0,0
0,42,100,0
0,35,120,4
0,42,0,10
0,35,0,4
0,42,120,42
0,45,115,1
0,52,115,0
0,33,121,0
0,42,0,13
0,38,127,46
0,42,127,0
0,35,120,4
0,35,0,14
0,42,120,42
0,38,0,10
0,42,0,4
0,42,100,16
0,42,0,14
0,42,0,10
0,42,100,6
0,35,121,4
0,42,0,10
0,35,0,4
0,42,100,12
0,42,0,14
0,60,111,16
0,42,100,0
0,42,0,14
0,60,0,45
0,52,0,1
0,45,0,0
0,33,0,0
0,61,111,0
0,38,126,0
0,42,100,0
0,35,120,4
0,42,0,10
0,35,0,4
0,61,0,41
0,42,120,1
0,60,111,0
0,38,0,10
0,42,0,4
0,60,0,45
0,42,100,1
0,61,111,0
0,45,115,1
0,52,115,0
0,33,121,0
0,35,120,3
0,35,100,1
0,42,0,9
0,35,0,4
0,35,0,1
0,61,0,40
0,52,0,1
0,45,0,0
0,33,0,0
0,42,120,0
0,60,111,0
0,52,115,1
0,45,115,0
0,33,121,0
0,42,0,13
0,60,0,45
0,45,0,1
0,52,0,0
0,33,0,0
0,38,127,0
0,42,100,0
0,61,111,0
0,35,120,0
0,35,0,14
0,42,0,0
0,38,0,56
0,61,0,49
0,42,100,1
0,35,121,1
0,47,115,0
0,54,115,0
0,35,120,4
0,42,0,9
0,35,0,5
0,35,0,41
