track,note,velocity,time
1,28,100,0
1,28,100,240
1,28,100,0
1,28,100,240
1,28,100,0
1,28,100,240
1,28,100,0
1,28,100,240
1,28,100,0
1,28,100,240
1,28,100,0
1,28,100,240
1,28,100,0
1,28,100,240
1,28,100,0
1,28,100,240
1,28,100,0
1,28,100,240
1,28,100,0
1,38,100,240
1,38,100,0
1,38,100,240
1,38,100,0
1,28,100,240
1,28,100,0
1,28,100,240
1,28,100,0
1,38,100,240
1,38,100,240
1,31,100,240
1,33,100,0
1,45,100,0
1,43,100,0
1,28,100,0
1,28,100,320
1,28,100,0
1,38,100,240
1,38,100,0
1,38,100,240
1,38,100,0
1,28,100,240
1,28,100,0
1,28,100,240
1,28,100,0
1,38,100,240
1,38,100,240
1,31,100,240
1,33,100,0
1,33,100,0
1,31,100,0
1,28,100,0
1,28,100,0
1,28,100,0
1,35,100,0
1,35,100,0
1,40,100,0
1,40,100,0
1,40,100,0
1,38,100,0
1,38,100,0
1,38,100,0
1,45,100,0
1,45,100,0
1,50,100,0
1,50,100,0
1,50,100,0
1,33,100,0
1,33,100,0
1,33,100,0
1,40,100,0
1,40,100,0
1,45,100,0
1,45,100,0
1,45,100,0
1,31,100,0
1,31,100,0
1,31,100,0
1,31,100,0
1,38,100,0
1,38,100,0
1,38,100,0
1,38,100,0
1,28,100,0
1,28,100,0
1,28,100,0
1,35,100,0
1,35,100,0
1,40,100,0
1,40,100,0
1,40,100,0
1,38,100,0
1,38,100,0
1,38,100,0
1,45,100,0
1,45,100,0
1,50,100,0
1,50,100,0
1,50,100,0
1,31,100,0
1,38,100,160
1,33,100,160
1,33,100,160
1,33,100,0
1,33,100,0
1,28,100,0
1,28,100,240
1,28,100,0
1,38,100,240
1,38,100,0
1,38,100,240
1,38,100,0
1,28,100,240
1,28,100,0
1,28,100,240
1,28,100,0
1,38,100,240
1,38,100,240
1,31,100,240
1,33,100,0
1,45,100,0
1,43,100,0
1,28,100,0
1,28,100,320
1,28,100,0
1,38,100,240
1,38,100,0
1,38,100,240
1,38,100,0
1,28,100,240
1,28,100,0
1,28,100,240
1,28,100,0
1,38,100,240
1,38,100,240
1,31,100,240
1,33,100,0
1,33,100,0
1,31,100,0
1,28,100,0
1,28,100,0
1,28,100,0
1,35,100,0
1,35,100,0
1,40,100,0
1,40,100,0
1,40,100,0
1,38,100,0
1,38,100,0
1,38,100,0
1,45,100,0
1,45,100,0
1,50,100,0
1,50,100,0
1,50,100,0
1,33,100,0
1,33,100,0
1,33,100,0
1,40,100,0
1,40,100,0
1,45,100,0
1,45,100,0
1,45,100,0
1,31,100,0
1,31,100,0
1,31,100,0
1,31,100,0
1,38,100,0
1,38,100,0
1,38,100,0
1,38,100,0
1,28,100,0
1,28,100,0
1,28,100,0
1,35,100,0
1,35,100,0
1,40,100,0
1,40,100,0
1,40,100,0
1,38,100,0
1,38,100,0
1,38,100,0
1,45,100,0
1,45,100,0
1,50,100,0
1,50,100,0
1,50,100,0
1,31,100,0
1,38,100,160
1,33,100,160
1,33,100,160
1,33,100,0
1,33,100,0
1,28,100,0
1,28,100,240
1,28,100,0
1,38,100,240
1,38,100,0
1,38,100,240
1,38,100,0
1,28,100,240
1,28,100,0
1,28,100,240
1,28,100,0
1,38,100,240
1,38,100,240
1,31,100,240
1,33,100,0
1,45,100,0
1,43,100,0
1,28,100,0
1,28,100,320
1,28,100,0
1,38,100,240
1,38,100,0
1,38,100,240
1,38,100,0
1,28,100,240
1,28,100,0
1,28,100,240
1,28,100,0
1,38,100,240
1,38,100,240
1,31,100,240
1,33,100,0
1,33,100,0
1,31,100,0
1,28,100,0
1,28,100,0
1,28,100,0
1,35,100,0
1,35,100,0
1,40,100,0
1,40,100,0
1,40,100,0
1,38,100,0
1,38,100,0
1,38,100,0
1,45,100,0
1,45,100,0
1,50,100,0
1,50,100,0
1,50,100,0
1,33,100,0
1,33,100,0
1,33,100,0
1,40,100,0
1,40,100,0
1,45,100,0
1,45,100,0
1,45,100,0
1,31,100,0
1,31,100,0
1,31,100,0
1,31,100,0
1,38,100,0
1,38,100,0
1,38,100,0
1,38,100,0
1,28,100,0
1,28,100,0
1,28,100,0
1,35,100,0
1,35,100,0
1,40,100,0
1,40,100,0
1,40,100,0
1,38,100,0
1,38,100,0
1,38,100,0
1,45,100,0
1,45,100,0
1,50,100,0
1,50,100,0
1,50,100,0
1,31,100,0
1,38,100,160
1,33,100,160
1,33,100,160
1,33,100,0
1,33,100,0
1,35,100,0
1,35,100,240
1,35,100,0
1,35,100,120
1,35,100,240
1,35,100,0
1,35,100,240
1,35,100,0
1,28,100,0
1,28,100,240
1,28,100,0
1,28,100,120
1,28,100,240
1,28,100,0
1,28,100,240
1,28,100,0
1,35,100,0
1,35,100,240
1,35,100,0
1,35,100,120
1,35,100,240
1,35,100,0
1,35,100,240
1,35,100,0
1,35,100,0
1,35,100,0
1,35,100,0
1,28,100,0
1,28,100,240
1,28,100,0
1,38,100,240
1,38,100,0
1,38,100,240
1,38,100,0
1,28,100,240
1,28,100,0
1,28,100,240
1,28,100,0
1,38,100,240
1,38,100,240
1,31,100,240
1,33,100,0
1,45,100,0
1,43,100,0
1,28,100,0
1,28,100,320
1,28,100,0
1,38,100,240
1,38,100,0
1,38,100,240
1,38,100,0
1,28,100,240
1,28,100,0
1,28,100,240
1,28,100,0
1,38,100,240
1,38,100,240
1,31,100,240
1,33,100,0
1,33,100,0
1,31,100,0
1,28,100,0
1,28,100,0
1,28,100,240
1,28,100,0
1,28,100,240
1,28,100,0
1,28,100,240
1,28,100,0
1,28,100,240
1,28,100,0
1,28,100,240
1,28,100,0
1,28,100,240
1,28,100,0
1,28,100,240
1,28,100,0
1,28,100,240
1,28,100,0
1,28,100,240
1,28,100,0
1,38,100,240
1,38,100,0
1,38,100,240
1,38,100,0
1,28,100,240
1,28,100,0
1,28,100,240
1,28,100,0
1,38,100,240
1,38,100,240
1,31,100,240
1,33,100,0
1,45,100,0
1,43,100,0
1,28,100,0
1,28,100,320
1,28,100,0
1,38,100,240
1,38,100,0
1,38,100,240
1,38,100,0
1,28,100,240
1,28,100,0
1,28,100,240
1,28,100,0
1,38,100,240
1,38,100,240
1,31,100,240
1,33,100,0
1,33,100,0
1,31,100,0
1,28,100,0
1,28,100,0
1,28,100,0
1,35,100,0
1,35,100,0
1,40,100,0
1,40,100,0
1,40,100,0
1,38,100,0
1,38,100,0
1,38,100,0
1,45,100,0
1,45,100,0
1,50,100,0
1,50,100,0
1,50,100,0
1,33,100,0
1,33,100,0
1,33,100,0
1,40,100,0
1,40,100,0
1,45,100,0
1,45,100,0
1,45,100,0
1,31,100,0
1,31,100,0
1,31,100,0
1,31,100,0
1,38,100,0
1,38,100,0
1,38,100,0
1,38,100,0
1,28,100,0
1,28,100,0
1,28,100,0
1,35,100,0
1,35,100,0
1,40,100,0
1,40,100,0
1,40,100,0
1,38,100,0
1,38,100,0
1,38,100,0
1,45,100,0
1,45,100,0
1,50,100,0
1,50,100,0
1,50,100,0
1,31,100,0
1,38,100,160
1,40,100,400
1,38,100,0
1,35,100,0
1,28,100,0
1,28,100,0
2,40,100,0
2,40,100,240
2,40,100,0
2,40,100,240
2,40,100,0
2,40,100,240
2,40,100,0
2,40,100,240
2,40,100,0
2,40,100,240
2,40,100,0
2,40,100,240
2,40,100,0
2,40,100,240
2,40,100,0
2,40,100,240
2,40,100,0
2,64,100,0
2,52,100,0
2,59,100,0
2,64,100,0
2,52,100,0
2,61,100,0
2,64,100,240
2,59,100,0
2,52,100,0
2,62,100,400
2,50,100,0
2,57,100,0
2,62,100,0
2,50,100,0
2,59,100,0
2,62,100,240
2,50,100,0
2,57,100,0
2,64,100,480
2,52,100,0
2,59,100,0
2,64,100,0
2,52,100,0
2,61,100,0
2,64,100,240
2,59,100,0
2,52,100,0
2,62,100,0
2,50,100,0
2,57,100,0
2,50,100,240
2,62,100,0
2,57,100,0
2,55,100,240
2,50,100,0
2,43,100,0
2,57,100,0
2,52,100,0
2,45,100,0
2,57,100,0
2,52,100,0
2,45,100,0
2,55,100,0
2,50,100,0
2,43,100,0
2,52,100,0
2,47,100,0
2,40,100,0
2,64,100,240
2,52,100,0
2,59,100,0
2,64,100,0
2,52,100,0
2,61,100,0
2,64,100,240
2,59,100,0
2,52,100,0
2,62,100,400
2,50,100,0
2,57,100,0
2,62,100,0
2,50,100,0
2,59,100,0
2,62,100,240
2,50,100,0
2,57,100,0
2,64,100,480
2,52,100,0
2,59,100,0
2,64,100,0
2,52,100,0
2,61,100,0
2,64,100,240
2,59,100,0
2,52,100,0
2,62,100,0
2,50,100,0
2,57,100,0
2,50,100,240
2,62,100,0
2,57,100,0
2,55,100,240
2,50,100,0
2,43,100,0
2,57,100,0
2,52,100,0
2,45,100,0
2,57,100,0
2,52,100,0
2,45,100,0
2,55,100,0
2,50,100,0
2,43,100,0
2,52,100,0
2,47,100,0
2,40,100,0
2,64,100,0
2,59,100,0
2,52,100,0
2,64,100,0
2,59,100,0
2,52,100,0
2,61,100,0
2,64,100,0
2,52,100,0
2,64,100,0
2,59,100,0
2,52,100,0
2,62,100,0
2,57,100,0
2,50,100,0
2,62,100,0
2,57,100,0
2,50,100,0
2,62,100,0
2,59,100,0
2,50,100,0
2,62,100,0
2,57,100,0
2,50,100,0
2,45,100,0
2,52,100,0
2,57,100,0
2,57,100,0
2,52,100,0
2,45,100,0
2,57,100,0
2,54,100,0
2,45,100,0
2,57,100,0
2,52,100,0
2,45,100,0
2,55,100,0
2,50,100,0
2,43,100,0
2,50,100,0
2,57,100,0
2,62,100,0
2,52,100,0
2,59,100,0
2,64,100,0
2,64,100,0
2,59,100,0
2,52,100,0
2,61,100,0
2,64,100,0
2,52,100,0
2,64,100,0
2,59,100,0
2,52,100,0
2,50,100,0
2,57,100,0
2,62,100,0
2,57,100,0
2,62,100,0
2,50,100,0
2,62,100,0
2,59,100,0
2,50,100,0
2,62,100,0
2,57,100,0
2,50,100,0
2,43,100,0
2,50,100,0
2,55,100,0
2,62,100,0
2,57,100,0
2,50,100,0
2,57,100,240
2,52,100,0
2,45,100,0
2,57,100,0
2,45,100,0
2,57,100,120
2,45,100,0
2,57,100,120
2,45,100,0
2,40,100,120
2,64,100,0
2,52,100,0
2,59,100,0
2,64,100,0
2,52,100,0
2,61,100,0
2,64,100,240
2,59,100,0
2,52,100,0
2,62,100,400
2,50,100,0
2,57,100,0
2,62,100,0
2,50,100,0
2,59,100,0
2,62,100,240
2,50,100,0
2,57,100,0
2,64,100,480
2,52,100,0
2,59,100,0
2,64,100,0
2,52,100,0
2,61,100,0
2,64,100,240
2,59,100,0
2,52,100,0
2,62,100,0
2,50,100,0
2,57,100,0
2,50,100,240
2,62,100,0
2,57,100,0
2,55,100,240
2,50,100,0
2,43,100,0
2,57,100,0
2,52,100,0
2,45,100,0
2,57,100,0
2,52,100,0
2,45,100,0
2,55,100,0
2,50,100,0
2,43,100,0
2,52,100,0
2,47,100,0
2,40,100,0
2,64,100,240
2,52,100,0
2,59,100,0
2,64,100,0
2,52,100,0
2,61,100,0
2,64,100,240
2,59,100,0
2,52,100,0
2,62,100,400
2,50,100,0
2,57,100,0
2,62,100,0
2,50,100,0
2,59,100,0
2,62,100,240
2,50,100,0
2,57,100,0
2,64,100,480
2,52,100,0
2,59,100,0
2,64,100,0
2,52,100,0
2,61,100,0
2,64,100,240
2,59,100,0
2,52,100,0
2,62,100,0
2,50,100,0
2,57,100,0
2,50,100,240
2,62,100,0
2,57,100,0
2,55,100,240
2,50,100,0
2,43,100,0
2,57,100,0
2,52,100,0
2,45,100,0
2,57,100,0
2,52,100,0
2,45,100,0
2,55,100,0
2,50,100,0
2,43,100,0
2,52,100,0
2,47,100,0
2,40,100,0
2,64,100,0
2,59,100,0
2,52,100,0
2,64,100,0
2,59,100,0
2,52,100,0
2,61,100,0
2,64,100,0
2,52,100,0
2,64,100,0
2,59,100,0
2,52,100,0
2,62,100,0
2,57,100,0
2,50,100,0
2,62,100,0
2,57,100,0
2,50,100,0
2,62,100,0
2,59,100,0
2,50,100,0
2,62,100,0
2,57,100,0
2,50,100,0
2,45,100,0
2,52,100,0
2,57,100,0
2,57,100,0
2,52,100,0
2,45,100,0
2,57,100,0
2,54,100,0
2,45,100,0
2,57,100,0
2,52,100,0
2,45,100,0
2,55,100,0
2,50,100,0
2,43,100,0
2,50,100,0
2,57,100,0
2,62,100,0
2,52,100,0
2,59,100,0
2,64,100,0
2,64,100,0
2,59,100,0
2,52,100,0
2,61,100,0
2,64,100,0
2,52,100,0
2,64,100,0
2,59,100,0
2,52,100,0
2,50,100,0
2,57,100,0
2,62,100,0
2,57,100,0
2,62,100,0
2,50,100,0
2,62,100,0
2,59,100,0
2,50,100,0
2,62,100,0
2,57,100,0
2,50,100,0
2,43,100,0
2,50,100,0
2,55,100,0
2,62,100,0
2,57,100,0
2,50,100,0
2,45,100,240
2,52,100,0
2,57,100,0
2,57,100,0
2,45,100,0
2,57,100,120
2,45,100,0
2,57,100,120
2,45,100,0
2,40,100,120
2,64,100,0
2,52,100,0
2,59,100,0
2,64,100,0
2,52,100,0
2,61,100,0
2,64,100,240
2,59,100,0
2,52,100,0
2,62,100,400
2,50,100,0
2,57,100,0
2,62,100,0
2,50,100,0
2,59,100,0
2,62,100,240
2,50,100,0
2,57,100,0
2,64,100,480
2,52,100,0
2,59,100,0
2,64,100,0
2,52,100,0
2,61,100,0
2,64,100,240
2,59,100,0
2,52,100,0
2,62,100,0
2,50,100,0
2,57,100,0
2,50,100,240
2,62,100,0
2,57,100,0
2,55,100,240
2,50,100,0
2,43,100,0
2,57,100,0
2,52,100,0
2,45,100,0
2,57,100,0
2,52,100,0
2,45,100,0
2,55,100,0
2,50,100,0
2,43,100,0
2,52,100,0
2,47,100,0
2,40,100,0
2,64,100,240
2,52,100,0
2,59,100,0
2,64,100,0
2,52,100,0
2,61,100,0
2,64,100,240
2,59,100,0
2,52,100,0
2,62,100,400
2,50,100,0
2,57,100,0
2,62,100,0
2,50,100,0
2,59,100,0
2,62,100,240
2,50,100,0
2,57,100,0
2,64,100,480
2,52,100,0
2,59,100,0
2,64,100,0
2,52,100,0
2,61,100,0
2,64,100,240
2,59,100,0
2,52,100,0
2,62,100,0
2,50,100,0
2,57,100,0
2,50,100,240
2,62,100,0
2,57,100,0
2,55,100,240
2,50,100,0
2,43,100,0
2,57,100,0
2,52,100,0
2,45,100,0
2,57,100,0
2,52,100,0
2,45,100,0
2,55,100,0
2,50,100,0
2,43,100,0
2,52,100,0
2,47,100,0
2,40,100,0
2,64,100,0
2,59,100,0
2,52,100,0
2,64,100,0
2,59,100,0
2,52,100,0
2,61,100,0
2,64,100,0
2,52,100,0
2,64,100,0
2,59,100,0
2,52,100,0
2,62,100,0
2,57,100,0
2,50,100,0
2,62,100,0
2,57,100,0
2,50,100,0
2,62,100,0
2,59,100,0
2,50,100,0
2,62,100,0
2,57,100,0
2,50,100,0
2,45,100,0
2,52,100,0
2,57,100,0
2,57,100,0
2,52,100,0
2,45,100,0
2,57,100,0
2,54,100,0
2,45,100,0
2,57,100,0
2,52,100,0
2,45,100,0
2,55,100,0
2,50,100,0
2,43,100,0
2,50,100,0
2,57,100,0
2,62,100,0
2,52,100,0
2,59,100,0
2,64,100,0
2,64,100,0
2,59,100,0
2,52,100,0
2,61,100,0
2,64,100,0
2,52,100,0
2,64,100,0
2,59,100,0
2,52,100,0
2,50,100,0
2,57,100,0
2,62,100,0
2,57,100,0
2,62,100,0
2,50,100,0
2,62,100,0
2,59,100,0
2,50,100,0
2,62,100,0
2,57,100,0
2,50,100,0
2,43,100,0
2,50,100,0
2,55,100,0
2,62,100,0
2,57,100,0
2,50,100,0
2,45,100,240
2,52,100,0
2,57,100,0
2,57,100,0
2,45,100,0
2,57,100,120
2,45,100,0
2,57,100,120
2,45,100,0
2,59,100,120
2,54,100,0
2,47,100,0
