track,note,velocity,time
3,33,80,3
3,33,0,50
3,33,88,1
3,33,0,59
3,33,78,2
3,33,0,57
3,33,86,1
3,33,0,58
3,33,89,1
3,33,0,60
3,33,84,3
3,33,0,57
3,33,81,1
3,33,0,60
3,33,90,2
3,33,0,58
3,33,82,1
3,33,0,59
3,33,86,2
3,33,0,58
3,33,79,1
3,33,0,57
3,33,89,1
3,33,0,60
3,33,83,2
3,33,0,57
3,33,83,1
3,33,0,59
3,33,92,3
3,33,0,58
3,33,90,4
3,33,0,57
3,33,82,1
3,33,0,57
3,33,79,1
3,33,0,60
3,33,84,2
3,33,0,58
3,33,85,3
3,33,0,60
3,33,78,1
3,33,0,58
3,33,92,1
3,33,0,59
3,33,92,1
3,33,0,57
3,33,82,1
3,33,0,60
3,33,79,3
3,33,0,59
3,33,79,1
3,33,0,58
3,33,86,1
3,33,0,57
3,33,81,1
3,33,0,60
3,33,79,1
3,33,0,59
3,33,92,3
3,33,0,58
3,33,83,1
3,33,0,59
3,33,88,2
3,33,0,56
3,33,82,1
3,33,0,58
3,33,91,1
3,33,0,59
3,33,92,5
3,33,0,59
3,33,79,1
3,33,0,55
3,33,78,1
3,33,0,58
3,33,89,5
3,33,0,56
3,33,84,1
3,33,0,58
3,33,88,3
3,33,0,59
3,33,88,3
3,33,0,59
3,33,83,1
3,33,0,56
3,33,83,1
3,33,0,59
3,33,84,2
3,33,0,59
3,33,82,3
3,33,0,56
3,33,88,1
3,33,0,58
3,33,78,6
3,33,0,55
3,33,81,1
3,33,0,60
3,33,79,3
3,33,0,58
3,33,90,3
3,33,0,59
3,33,89,1
3,33,0,56
3,33,81,1
3,33,0,58
3,33,83,5
3,33,0,55
3,33,91,1
3,33,0,59
3,33,86,5
3,33,0,58
3,33,89,2
3,33,0,58
3,33,84,2
3,33,0,58
3,33,87,1
3,33,0,57
3,33,82,1
3,33,0,60
3,33,79,1
3,33,0,59
3,33,84,3
3,33,0,57
3,33,80,1
3,33,0,58
3,33,85,1
3,33,0,58
3,33,84,1
3,33,0,58
3,33,84,6
3,33,0,58
3,33,83,1
3,33,0,60
3,33,87,1
3,33,0,59
3,33,81,1
3,33,0,55
3,33,89,1
3,33,0,59
3,33,80,1
3,33,0,58
3,33,85,2
3,33,0,58
3,33,89,4
3,33,0,58
3,33,89,1
3,33,0,59
3,33,80,3
3,33,0,57
3,33,84,1
3,33,0,58
3,33,80,4
3,33,0,59
3,33,89,1
3,33,0,58
3,33,83,1
3,33,0,58
3,33,89,1
3,33,0,58
3,33,81,1
3,33,0,60
3,33,81,1
3,33,0,58
3,33,92,3
3,33,0,58
3,33,89,1
3,33,0,59
3,33,80,2
3,33,0,58
3,33,89,1
3,33,0,60
3,33,89,1
3,33,0,60
3,33,84,1
3,33,0,56
3,33,92,1
3,33,0,59
3,33,87,1
3,33,0,60
3,43,78,4
3,43,0,57
3,40,84,1
3,40,0,58
3,38,91,1
3,38,0,58
3,38,79,1
3,38,0,60
3,36,78,3
3,36,0,56
3,35,84,1
3,35,0,58
3,33,88,6
3,33,0,117
3,33,81,2
3,33,0,59
3,33,89,1
3,33,0,56
3,33,88,1
3,33,0,60
3,33,84,3
3,33,0,56
3,36,90,1
3,36,0,58
3,37,84,6
3,37,0,58
3,38,84,1
3,38,0,116
3,38,82,1
3,38,0,59
3,38,87,5
3,38,0,59
3,38,82,1
3,38,0,55
3,38,87,1
3,38,0,59
3,31,79,1
3,31,0,59
3,32,89,3
3,32,0,59
3,33,83,1
3,33,0,121
3,33,92,1
3,33,0,58
3,33,78,1
3,33,0,58
3,33,88,2
3,33,0,57
3,33,85,1
3,33,0,58
3,36,92,1
3,36,0,58
3,37,84,5
3,37,0,58
3,38,91,1
3,38,0,118
3,38,88,1
3,38,0,58
3,38,92,2
3,38,0,60
3,38,92,1
3,38,0,60
3,38,83,1
3,38,0,58
3,36,80,1
3,36,0,59
3,33,89,3
3,33,0,58
3,29,90,1
3,29,0,120
3,29,81,1
3,29,0,57
3,29,83,1
3,29,0,58
3,29,84,4
3,29,0,59
3,29,90,1
3,29,0,57
3,29,83,1
3,29,0,58
3,29,80,1
3,29,0,59
3,31,78,1
3,31,0,120
3,31,92,2
3,31,0,60
3,31,81,1
3,31,0,56
3,31,90,1
3,31,0,59
3,31,81,4
3,31,0,56
3,31,90,1
3,31,0,58
3,31,89,1
3,31,0,58
3,38,91,4
3,38,0,118
3,38,91,2
3,38,0,60
3,38,90,1
3,38,0,58
3,38,92,1
3,38,0,58
3,38,87,4
3,38,0,58
3,38,80,2
3,38,0,55
3,38,87,1
3,38,0,59
3,48,83,1
3,48,0,106
3,48,89,1
3,48,0,117
3,45,78,6
3,45,0,56
3,45,78,1
3,45,0,58
3,43,85,1
3,43,0,59
3,40,88,4
3,40,0,58
3,33,86,1
3,33,0,119
3,33,81,1
3,33,0,58
3,33,84,1
3,33,0,60
3,33,91,1
3,33,0,58
3,33,79,1
3,33,0,59
3,36,84,1
3,36,0,58
3,37,84,3
3,37,0,58
3,38,90,4
3,38,0,118
3,38,88,2
3,38,0,58
3,38,89,1
3,38,0,56
3,38,86,1
3,38,0,58
3,38,90,6
3,38,0,58
3,33,85,2
3,33,0,59
3,36,78,1
3,36,0,58
3,33,80,1
3,33,0,116
3,33,80,1
3,33,0,58
3,33,83,3
3,33,0,58
3,33,81,4
3,33,0,57
3,33,78,1
3,33,0,58
3,36,91,2
3,36,0,59
3,37,85,2
3,37,0,60
3,38,84,1
3,38,0,117
3,38,86,2
3,38,0,58
3,38,82,1
3,38,0,59
3,38,86,1
3,38,0,58
3,38,86,4
3,38,0,58
3,38,92,3
3,38,0,58
3,38,87,1
3,38,0,59
3,41,84,1
3,41,0,118
3,41,91,3
3,41,0,58
3,41,87,1
3,41,0,56
3,41,78,1
3,41,0,59
3,41,78,1
3,41,0,58
3,41,83,3
3,41,0,60
3,41,81,3
3,41,0,55
3,43,90,1
3,43,0,118
3,43,90,3
3,43,0,59
3,43,87,3
3,43,0,59
3,43,78,1
3,43,0,58
3,43,84,1
3,43,0,58
3,43,79,1
3,43,0,58
3,43,81,3
3,43,0,58
3,38,80,1
3,38,0,118
3,38,84,5
3,38,0,58
3,38,90,1
3,38,0,56
3,38,91,1
3,38,0,59
3,38,90,4
3,38,0,58
3,38,92,1
3,38,0,58
3,38,86,4
3,38,0,56
3,43,82,1
3,43,0,60
3,43,87,63
3,43,0,58
3,38,79,59
3,38,0,59
3,38,84,3
3,38,0,60
3,28,83,1
3,28,0,58
3,30,85,1
3,30,0,58
3,31,85,1
3,31,0,117
3,31,81,1
3,31,0,59
3,31,81,3
3,31,0,58
3,31,82,1
3,31,0,58
3,31,80,3
3,31,0,58
3,35,89,3
3,35,0,59
3,36,92,1
3,36,0,57
3,38,83,1
3,38,0,119
3,38,89,1
3,38,0,60
3,38,84,3
3,38,0,55
3,38,80,1
3,38,0,59
3,38,85,4
3,38,0,58
3,28,84,2
3,28,0,57
3,30,91,1
3,30,0,59
3,31,78,1
3,31,0,119
3,31,92,1
3,31,0,60
3,31,78,2
3,31,0,56
3,31,83,1
3,31,0,58
3,31,89,2
3,31,0,58
3,35,87,5
3,35,0,58
3,36,90,1
3,36,0,60
3,38,92,2
3,38,0,117
3,38,88,1
3,38,0,58
3,38,89,3
3,38,0,60
3,38,81,1
3,38,0,55
3,38,87,1
3,38,0,58
3,38,83,2
3,38,0,60
3,36,82,3
3,36,0,59
3,29,79,1
3,29,0,117
3,29,79,1
3,29,0,58
3,29,87,1
3,29,0,60
3,29,81,1
3,29,0,58
3,29,85,1
3,29,0,58
3,29,78,5
3,29,0,57
3,29,87,1
3,29,0,60
3,31,89,2
3,31,0,118
3,31,87,2
3,31,0,56
3,31,89,1
3,31,0,59
3,31,80,4
3,31,0,60
3,31,92,1
3,31,0,57
3,31,84,1
3,31,0,60
3,31,79,2
3,31,0,59
3,33,88,1
3,33,0,119
3,33,81,1
3,33,0,59
3,33,91,1
3,33,0,58
3,33,88,1
3,33,0,59
3,33,85,1
3,33,0,60
3,33,92,1
3,33,0,56
3,33,87,1
3,33,0,58
3,33,91,1
3,33,0,60
3,33,84,4
3,33,0,55
3,33,80,1
3,33,0,60
3,33,85,1
3,33,0,58
3,33,89,2
3,33,0,58
3,33,85,2
3,33,0,58
3,36,85,1
3,36,0,58
3,36,87,4
3,36,0,58
3,38,90,1
3,38,0,117
3,38,87,6
3,38,0,57
3,38,79,1
3,38,0,58
3,38,83,4
3,38,0,55
3,38,83,1
3,38,0,59
3,36,87,2
3,36,0,60
3,33,78,3
3,33,0,57
3,31,85,1
3,31,0,118
3,31,85,4
3,31,0,55
3,31,84,1
3,31,0,59
3,31,92,4
3,31,0,58
3,31,89,1
3,31,0,59
3,36,91,3
3,36,0,58
3,36,82,1
3,36,0,57
3,38,90,1
3,38,0,117
3,38,81,3
3,38,0,58
3,38,86,1
3,38,0,59
3,38,80,1
3,38,0,60
3,38,92,2
3,38,0,59
3,36,85,1
3,36,0,57
3,33,81,1
3,33,0,60
3,31,83,4
3,31,0,115
3,31,79,1
3,31,0,60
3,31,84,2
3,31,0,59
3,31,92,3
3,31,0,55
3,31,78,1
3,31,0,60
3,31,91,4
3,31,0,56
3,31,91,1
3,31,0,58
3,29,78,1
3,29,0,117
3,29,83,5
3,29,0,58
3,29,89,1
3,29,0,58
3,29,81,1
3,29,0,60
3,29,87,3
3,29,0,59
3,29,90,1
3,29,0,56
3,29,83,1
3,29,0,58
3,36,80,3
3,36,0,118
3,36,89,2
3,36,0,58
3,36,80,1
3,36,0,59
3,36,87,1
3,36,0,60
3,36,78,4
3,36,0,58
3,35,92,2
3,35,0,56
3,33,80,1
3,33,0,58
3,31,81,1
3,31,0,117
3,31,88,6
3,31,0,59
3,31,90,2
3,31,0,57
3,31,79,1
3,31,0,58
3,31,86,1
3,31,0,59
3,31,90,3
3,31,0,58
3,31,88,3
3,31,0,59
3,36,92,1
3,36,0,59
3,36,87,59
3,36,0,60
3,31,78,58
3,31,0,59
3,31,90,3
3,31,0,58
3,33,87,2
3,33,0,57
3,36,82,1
3,36,0,59
3,33,85,3
3,33,0,117
3,33,84,2
3,33,0,58
3,33,79,5
3,33,0,55
3,33,92,1
3,33,0,60
3,33,80,2
3,33,0,58
3,36,88,4
3,36,0,57
3,37,82,1
3,37,0,59
3,38,83,3
3,38,0,117
3,38,90,3
3,38,0,55
3,38,88,1
3,38,0,60
3,38,86,3
3,38,0,56
3,38,78,1
3,38,0,58
3,31,87,5
3,31,0,56
3,32,81,1
3,32,0,58
3,33,86,3
3,33,0,121
3,33,85,1
3,33,0,59
3,33,85,1
3,33,0,60
3,33,86,1
3,33,0,56
3,33,91,1
3,33,0,60
3,36,88,1
3,36,0,59
3,37,88,1
3,37,0,60
3,38,82,2
3,38,0,119
3,38,84,1
3,38,0,57
3,38,88,1
3,38,0,58
3,38,86,1
3,38,0,60
3,38,87,1
3,38,0,58
3,38,88,1
3,38,0,60
3,38,83,3
3,38,0,58
3,41,82,1
3,41,0,119
3,41,86,2
3,41,0,55
3,41,84,1
3,41,0,58
3,41,80,3
3,41,0,59
3,41,80,4
3,41,0,56
3,41,80,1
3,41,0,58
3,41,91,1
3,41,0,58
3,43,81,6
3,43,0,118
3,43,83,1
3,43,0,58
3,43,88,1
3,43,0,58
3,43,83,1
3,43,0,60
3,43,83,2
3,43,0,58
3,43,90,1
3,43,0,60
3,43,80,1
3,43,0,59
3,38,92,1
3,38,0,58
3,38,81,1
3,38,0,60
3,38,87,1
3,38,0,59
3,38,81,1
3,38,0,58
3,38,88,1
3,38,0,57
3,38,88,1
3,38,0,59
3,38,84,1
3,38,0,59
3,38,79,5
3,38,0,58
3,43,85,2
3,43,0,59
3,43,86,57
3,43,0,59
3,38,86,64
3,38,0,58
3,38,92,3
3,38,0,57
3,28,91,1
3,28,0,57
3,30,79,1
3,30,0,60
3,31,82,2
3,31,0,118
3,31,88,3
3,31,0,60
3,31,81,1
3,31,0,57
3,31,78,1
3,31,0,59
3,31,92,1
3,31,0,59
3,35,91,3
3,35,0,55
3,36,86,1
3,36,0,60
3,38,90,4
3,38,0,115
3,38,90,1
3,38,0,58
3,38,86,3
3,38,0,58
3,38,83,5
3,38,0,55
3,38,86,1
3,38,0,59
3,28,82,5
3,28,0,58
3,30,92,1
3,30,0,58
3,31,83,1
3,31,0,117
3,31,90,1
3,31,0,59
3,31,80,4
3,31,0,58
3,31,79,3
3,31,0,58
3,31,79,1
3,31,0,60
3,35,87,1
3,35,0,56
3,36,91,1
3,36,0,59
3,38,89,3
3,38,0,117
3,38,87,1
3,38,0,58
3,38,79,2
3,38,0,59
3,38,85,4
3,38,0,57
3,38,82,1
3,38,0,59
3,36,84,2
3,36,0,58
3,33,90,2
3,33,0,57
3,29,81,1
3,29,0,117
3,29,84,6
3,29,0,59
3,29,79,1
3,29,0,58
3,29,90,1
3,29,0,60
3,29,85,1
3,29,0,55
3,29,86,1
3,29,0,59
3,29,86,5
3,29,0,57
3,31,85,1
3,31,0,119
3,31,82,1
3,31,0,60
3,31,91,1
3,31,0,56
3,31,81,1
3,31,0,59
3,31,79,3
3,31,0,59
3,31,89,2
3,31,0,56
3,31,92,1
3,31,0,60
3,33,80,2
3,33,0,117
3,33,86,3
3,33,0,60
3,33,90,2
3,33,0,55
3,33,84,1
3,33,0,60
3,33,80,3
3,33,0,59
3,33,79,2
3,33,0,56
3,33,81,1
3,33,0,58
3,33,80,1
3,33,0,58
3,33,84,6
3,33,0,58
3,33,80,1
3,33,0,58
3,33,80,1
3,33,0,58
3,33,83,1
3,33,0,58
3,33,80,1
3,33,0,58
3,36,91,5
3,36,0,59
3,36,84,2
3,36,0,57
3,38,85,1
3,38,0,119
3,38,79,3
3,38,0,56
3,38,83,1
3,38,0,58
3,38,80,1
3,38,0,59
3,38,84,2
3,38,0,59
3,36,89,3
3,36,0,58
3,33,90,1
3,33,0,58
3,31,80,2
3,31,0,117
3,31,79,5
3,31,0,56
3,31,92,1
3,31,0,59
3,31,82,2
3,31,0,58
3,31,88,1
3,31,0,60
3,33,91,3
3,33,0,55
3,36,79,1
3,36,0,59
3,38,82,1
3,38,0,119
3,38,85,1
3,38,0,58
3,38,83,3
3,38,0,58
3,38,86,5
3,38,0,56
3,38,92,1
3,38,0,59
3,36,81,1
3,36,0,58
3,33,78,1
3,33,0,58
3,31,88,2
3,31,0,118
3,31,86,6
3,31,0,57
3,31,79,1
3,31,0,57
3,31,79,1
3,31,0,59
3,31,84,2
3,31,0,60
3,31,82,1
3,31,0,58
3,31,88,2
3,31,0,57
3,41,92,1
3,41,0,118
3,41,82,4
3,41,0,59
3,41,81,1
3,41,0,58
3,41,91,1
3,41,0,59
3,41,91,1
3,41,0,59
3,40,82,3
3,40,0,59
3,38,78,1
3,38,0,60
3,36,91,1
3,36,0,119
3,36,89,1
3,36,0,56
3,36,82,1
3,36,0,59
3,36,84,1
3,36,0,59
3,36,92,3
3,36,0,58
3,35,85,1
3,35,0,59
3,33,90,2
3,33,0,58
3,31,82,1
3,31,0,118
3,31,80,1
3,31,0,60
3,31,80,3
3,31,0,59
3,31,80,1
3,31,0,58
3,31,88,1
3,31,0,57
3,31,88,1
3,31,0,58
3,31,87,1
3,31,0,59
3,36,88,1
3,36,0,59
3,36,81,62
3,36,0,58
3,31,79,65
3,31,0,55
3,31,90,1
3,31,0,58
3,33,88,4
3,33,0,58
3,36,89,2
3,36,0,59
3,33,86,3
3,33,0,117
3,33,92,1
3,33,0,59
3,33,78,2
3,33,0,56
3,33,89,1
3,33,0,60
3,33,89,3
3,33,0,58
3,36,81,1
3,36,0,58
3,37,88,2
3,37,0,57
3,38,88,1
3,38,0,117
3,38,91,4
3,38,0,59
3,38,84,1
3,38,0,58
3,38,89,1
3,38,0,59
3,38,85,1
3,38,0,59
3,33,86,5
3,33,0,57
3,36,78,1
3,36,0,59
3,33,83,3
3,33,0,117
