track,note,velocity,time
3,55,127,1937
3,55,0,2
3,50,111,2
3,43,112,1
3,43,0,58
3,43,110,1
3,50,0,2
3,50,99,1
3,43,0,57
3,50,0,5
3,50,104,115
3,43,109,2
3,50,0,56
3,43,0,1
3,50,105,0
3,43,99,1
3,50,0,60
3,43,0,0
3,58,111,1
3,58,0,2
3,48,102,1
3,48,0,31
3,49,109,0
3,50,105,26
3,49,0,6
3,50,0,53
3,53,110,4
3,50,112,118
3,53,0,3
3,55,111,26
3,50,0,3
3,55,0,29
3,53,103,31
3,53,0,30
3,50,104,30
3,53,101,28
3,50,0,1
3,53,0,58
3,50,102,0
3,43,109,1
3,50,0,58
3,43,0,0
3,43,102,1
3,50,104,5
3,43,0,55
3,50,0,4
3,50,110,119
3,43,100,0
3,50,0,60
3,43,0,1
3,50,106,0
3,43,105,0
3,58,100,1
3,50,0,1
3,43,0,1
3,48,109,1
3,58,0,1
3,48,0,30
3,49,112,3
3,49,0,30
3,50,109,1
3,50,0,58
3,53,106,0
3,50,106,117
3,53,0,6
3,50,0,25
3,55,100,2
3,55,0,29
3,53,112,30
3,53,0,30
3,50,106,31
3,53,101,27
3,50,0,2
3,53,0,59
3,43,106,2
3,47,101,59
3,43,0,2
3,48,110,28
3,47,0,2
3,50,103,27
3,48,0,2
3,50,0,59
3,53,101,0
3,55,111,30
3,53,0,2
3,55,0,27
3,58,104,4
3,55,107,7
3,58,0,2
3,53,107,26
3,55,0,1
3,53,0,28
3,55,99,2
3,55,0,60
3,58,102,0
3,55,111,6
3,58,0,1
3,53,105,27
3,55,0,4
3,53,0,28
3,55,112,0
3,55,0,61
3,58,99,2
3,55,100,6
3,58,0,2
3,55,0,28
3,53,112,1
3,55,111,26
3,53,0,3
3,55,0,27
3,53,110,5
3,50,102,29
3,53,0,1
3,53,104,58
3,50,0,1
3,53,0,118
3,43,110,2
3,47,104,57
3,43,0,4
3,47,0,25
3,48,101,3
3,48,0,32
3,50,110,0
3,53,112,56
3,50,0,5
3,55,102,24
3,53,0,2
3,55,0,27
3,58,107,1
3,55,100,2
3,58,0,2
3,55,0,27
3,53,101,1
3,53,0,31
3,55,109,2
3,58,99,57
3,55,0,3
3,58,0,5
3,55,102,2
3,53,111,28
3,55,0,3
3,55,108,26
3,53,0,3
3,55,0,58
3,58,108,2
3,55,107,6
3,58,0,2
3,53,100,25
3,55,0,4
3,53,0,26
3,55,105,5
3,55,0,29
3,53,103,1
3,50,103,26
3,53,0,3
3,50,0,57
3,53,110,3
3,50,103,120
3,43,104,0
3,53,0,1
3,43,0,56
3,43,104,1
3,50,0,1
3,50,112,1
3,43,0,60
3,50,0,1
3,43,102,118
3,50,100,1
3,43,0,56
3,50,0,0
3,43,104,1
3,50,106,0
3,43,0,61
3,50,0,0
3,48,102,120
3,48,0,29
3,49,107,0
3,49,0,32
3,50,105,1
3,50,0,30
3,53,112,29
3,53,0,88
3,50,103,3
3,48,100,28
3,50,0,2
3,49,109,27
3,48,0,3
3,49,0,28
3,50,102,1
3,50,0,59
3,53,100,1
3,53,0,91
3,50,103,0
3,50,0,26
3,50,106,1
3,43,100,1
3,43,0,59
3,50,0,1
3,43,99,0
3,50,101,0
3,43,0,62
3,50,0,0
3,43,100,121
3,50,110,0
3,43,0,55
3,50,0,1
3,43,108,0
3,50,101,1
3,50,0,58
3,57,101,0
3,43,0,3
3,57,0,1
3,48,100,2
3,49,109,30
3,48,0,2
3,49,0,28
3,50,104,2
3,50,0,29
3,53,112,29
3,50,104,92
3,53,0,1
3,50,0,28
3,48,105,2
3,49,102,26
3,48,0,3
3,49,0,29
3,50,109,2
3,53,99,57
3,50,0,5
3,53,0,83
3,50,110,0
3,50,0,29
3,50,99,1
3,43,107,1
3,43,0,59
3,50,0,1
3,43,109,2
3,50,110,0
3,43,0,59
3,50,0,0
3,43,101,122
3,50,111,0
3,43,0,60
3,50,0,0
3,43,111,1
3,50,105,0
3,43,0,59
3,50,0,1
3,48,105,118
3,49,104,27
3,48,0,5
3,49,0,26
3,50,109,0
3,50,0,31
3,53,109,33
3,50,104,89
3,53,0,1
3,48,99,27
3,50,0,2
3,48,0,27
3,49,110,3
3,50,99,27
3,49,0,5
3,50,0,55
3,53,103,4
3,50,112,90
3,53,0,1
3,50,0,24
3,50,106,1
3,43,102,3
3,50,0,56
3,43,0,2
3,43,104,1
3,50,111,1
3,50,0,60
3,43,0,1
3,43,102,116
3,50,111,0
3,50,0,59
3,43,0,2
3,43,105,1
3,50,105,2
3,57,102,3
3,50,0,1
3,43,0,1
3,57,0,2
3,48,100,2
3,49,112,26
3,48,0,4
3,49,0,25
3,50,99,3
3,50,0,32
3,53,112,31
3,50,110,88
3,53,0,3
3,48,107,25
3,50,0,3
3,48,0,28
3,49,99,0
3,49,0,30
3,50,99,0
3,50,0,61
3,53,110,1
3,53,0,59
3,50,104,1
3,50,0,61
3,69,109,59
3,64,109,0
3,57,100,1
3,69,0,59
3,64,0,2
3,57,0,1
3,69,112,56
3,64,105,1
3,57,108,0
3,57,0,59
3,69,0,2
3,64,0,0
3,69,110,56
3,64,107,2
3,57,106,0
3,69,0,59
3,57,0,1
3,64,0,2
3,69,112,58
3,64,110,2
3,57,105,0
3,69,0,60
3,64,0,2
3,57,0,0
3,69,102,58
3,64,107,0
3,57,112,0
3,69,0,59
3,57,0,0
3,64,0,3
3,69,101,58
3,64,100,0
3,57,111,0
3,64,0,59
3,57,0,1
3,69,0,1
3,69,103,54
3,64,109,5
3,57,105,0
3,69,0,54
3,64,0,6
3,57,0,0
3,69,102,59
3,64,109,0
3,57,112,1
3,69,0,60
3,64,0,1
3,57,0,0
3,57,112,59
3,69,112,0
3,64,109,0
3,57,0,59
3,69,0,0
3,64,0,0
3,69,106,59
3,64,105,0
3,57,105,0
3,69,0,59
3,64,0,0
3,57,0,2
3,69,112,60
3,64,104,0
3,57,106,0
3,69,0,61
3,57,0,0
3,64,0,1
3,57,109,58
3,69,101,0
3,64,99,0
3,64,0,55
3,64,103,1
3,57,0,3
3,69,0,0
3,57,110,1
3,69,101,0
3,64,0,470
3,57,0,3
3,69,0,0
3,50,105,5
3,43,101,2
3,50,0,57
3,43,0,0
3,43,111,1
3,50,107,0
3,43,0,60
3,50,0,0
3,43,107,120
3,50,108,1
3,43,0,58
3,43,103,1
3,50,0,1
3,50,100,1
3,43,0,2
3,50,0,1
3,58,99,0
3,48,99,4
3,58,0,3
3,49,105,26
3,48,0,1
3,50,101,27
3,49,0,2
3,50,0,27
3,53,102,35
3,50,109,87
3,53,0,4
3,48,103,24
3,50,0,1
3,49,109,29
3,48,0,1
3,49,0,28
3,50,106,2
3,53,103,59
3,50,0,2
3,53,0,88
3,50,108,2
3,50,0,28
3,50,101,1
3,43,110,0
3,43,0,61
3,50,0,1
3,43,99,0
3,50,100,0
3,43,0,60
3,50,0,2
3,43,105,117
3,50,104,1
3,43,0,56
3,43,105,1
3,50,0,1
3,50,99,1
3,43,0,60
3,50,0,0
3,48,106,120
3,49,108,28
3,48,0,1
3,49,0,29
3,50,102,3
3,50,0,31
3,53,102,28
3,53,0,93
3,50,103,0
3,48,106,26
3,50,0,4
3,48,0,25
3,49,112,0
3,49,0,31
3,50,103,1
3,50,0,60
3,53,112,3
3,53,0,89
3,50,101,1
3,50,0,29
3,50,104,1
3,43,112,0
3,50,0,57
3,43,0,0
3,43,106,1
3,50,111,0
3,50,0,59
3,43,0,2
3,43,105,121
3,50,106,0
3,43,0,58
3,50,0,1
3,43,103,0
3,50,109,1
3,57,110,1
3,43,0,1
3,50,0,0
3,48,99,1
3,57,0,4
3,48,0,25
3,49,107,3
3,49,0,31
3,50,112,2
3,50,0,30
3,53,102,30
3,53,0,88
3,50,107,0
3,48,99,30
3,50,0,2
3,48,0,27
3,49,107,1
3,49,0,31
3,50,104,0
3,53,108,60
3,50,0,1
3,50,101,86
3,53,0,4
3,50,0,27
3,50,102,1
3,43,102,0
3,43,0,57
3,43,112,1
3,50,0,3
3,50,109,1
3,43,0,56
3,50,0,4
3,43,110,117
3,50,107,0
3,50,0,60
3,43,0,2
3,43,101,1
3,50,100,0
3,50,0,60
3,43,0,1
3,48,104,114
3,48,0,29
3,49,103,6
3,50,108,29
3,49,0,1
3,50,0,31
3,53,108,24
3,53,0,92
3,50,109,3
3,48,112,27
3,50,0,3
3,48,0,28
3,49,104,0
3,49,0,29
3,50,105,1
3,53,112,58
3,50,0,1
3,53,0,87
3,50,108,4
3,50,0,26
3,50,108,1
3,43,105,5
3,50,0,54
3,43,0,2
3,43,107,1
3,50,101,3
3,43,0,56
3,50,0,3
3,43,100,118
3,50,110,0
3,43,0,59
3,50,0,0
3,43,107,1
3,50,109,0
3,50,0,58
3,57,108,2
3,43,0,1
3,48,106,1
3,57,0,3
3,49,102,28
3,48,0,1
3,50,106,30
3,49,0,1
3,50,0,28
3,53,111,30
3,50,104,89
3,53,0,4
3,50,0,27
3,48,104,0
3,48,0,30
3,49,106,0
3,50,112,28
3,49,0,1
3,50,0,59
3,53,100,5
3,50,110,55
3,53,0,5
3,50,0,54
3,69,106,65
3,64,103,0
3,57,102,0
3,69,0,59
3,64,0,0
3,57,0,1
3,69,106,56
3,64,107,0
3,57,112,2
3,64,0,57
3,69,0,1
3,57,0,2
3,69,111,58
3,64,112,5
3,57,103,0
3,69,0,55
3,57,0,4
3,64,0,3
3,69,105,53
3,64,108,3
3,57,99,1
3,69,0,56
3,57,0,3
3,64,0,2
3,69,111,59
3,64,107,0
3,57,100,0
3,69,0,59
3,57,0,2
3,64,0,1
3,69,111,59
3,64,99,0
3,57,107,0
3,69,0,61
3,64,0,0
3,57,0,1
3,69,111,56
3,64,106,1
3,57,100,0
3,57,0,59
3,69,0,1
3,64,0,2
3,69,103,58
3,64,100,0
3,57,105,0
3,69,0,59
3,64,0,0
3,57,0,0
3,57,109,57
3,69,102,3
3,64,111,0
3,57,0,56
3,69,0,5
3,64,0,0
3,69,106,59
3,64,103,0
3,57,105,1
3,57,0,59
3,69,0,1
3,64,0,1
3,69,108,57
3,64,99,0
3,57,99,1
3,69,0,58
3,64,0,1
3,57,0,0
3,57,109,59
3,69,105,1
3,64,103,2
3,57,0,56
3,69,0,0
3,64,0,0
3,64,105,1
3,57,109,0
3,69,111,0
3,64,0,470
3,57,0,2
3,69,0,10
3,50,110,2
3,43,108,0
3,50,0,58
3,43,0,0
3,43,111,1
3,50,107,0
3,43,0,61
3,50,0,0
3,43,105,116
3,50,107,0
3,43,0,60
3,50,0,0
3,43,99,1
3,50,104,0
3,50,0,58
3,58,104,2
3,43,0,1
3,58,0,1
3,48,107,4
3,49,112,26
3,48,0,5
3,49,0,24
3,50,103,4
3,50,0,30
3,53,99,31
3,50,109,89
3,53,0,3
3,48,109,23
3,50,0,4
3,49,105,27
3,48,0,1
3,49,0,30
3,50,112,3
3,53,110,60
3,50,0,1
3,50,99,85
3,53,0,2
3,50,0,29
3,50,99,3
3,43,110,0
3,43,0,57
3,43,105,1
3,50,0,1
3,50,100,1
3,43,0,60
3,50,0,0
3,43,102,117
3,50,102,0
3,43,0,60
3,43,112,1
3,50,0,1
3,50,108,1
3,43,0,3
3,50,0,2
3,58,106,0
3,48,101,1
3,58,0,3
3,48,0,27
3,49,108,2
3,50,101,28
3,49,0,4
3,50,0,25
3,53,102,34
3,53,0,88
3,50,105,2
3,48,110,27
3,50,0,2
3,48,0,28
3,49,100,0
3,50,99,30
3,49,0,2
3,53,109,59
3,50,0,1
3,50,102,90
3,53,0,1
3,50,0,27
3,50,111,1
3,43,103,2
3,50,0,58
3,43,0,1
3,43,108,1
3,50,101,0
3,43,0,60
3,60,111,1
3,55,108,0
3,50,0,1
3,58,100,27
3,60,0,2
3,53,102,0
3,55,0,1
3,53,0,87
3,58,0,1
3,43,106,1
3,50,107,0
3,43,0,59
3,50,0,0
3,43,110,1
3,50,111,0
3,60,104,55
3,55,107,2
3,43,0,2
3,50,0,3
3,60,0,25
3,55,0,2
3,58,112,0
3,53,102,0
3,48,104,86
3,53,0,4
3,58,0,2
3,48,0,25
3,49,107,2
3,50,101,27
3,49,0,3
3,50,0,57
3,53,100,3
3,50,111,118
3,53,0,4
3,50,0,25
3,55,103,3
3,55,0,30
3,53,106,27
3,53,0,31
3,50,112,34
3,53,112,25
3,50,0,4
3,53,0,58
3,50,110,3
3,43,101,0
3,50,0,58
3,43,0,0
3,43,110,1
3,50,103,0
3,60,103,58
3,43,0,2
3,50,0,1
3,55,102,0
3,58,110,25
3,60,0,4
3,53,100,0
3,55,0,2
3,43,108,84
3,50,112,0
3,58,0,1
3,53,0,6
3,43,0,52
3,50,0,1
3,43,106,4
3,50,106,1
3,60,104,58
3,55,112,0
3,43,0,1
3,50,0,1
3,60,0,27
3,55,0,2
3,58,102,0
3,53,99,1
3,48,110,88
3,53,0,2
3,58,0,2
3,48,0,25
3,49,100,0
3,49,0,29
3,50,105,4
3,53,103,55
3,50,0,5
3,53,0,113
3,50,100,5
3,50,0,31
3,55,100,0
3,55,0,30
3,53,110,29
3,53,0,29
3,50,101,32
3,53,112,27
3,50,0,4
3,53,0,55
3,50,99,4
3,43,103,0
3,50,0,57
3,43,0,0
3,43,103,1
3,50,107,0
3,55,106,58
3,50,0,1
3,43,0,2
3,53,105,28
3,55,0,1
3,50,103,89
3,53,0,3
3,48,110,26
3,50,0,2
3,50,108,29
3,48,0,1
3,50,0,29
3,58,100,4
3,55,110,88
3,58,0,1
3,55,0,59
3,50,102,2
3,43,104,0
3,43,0,56
3,43,111,1
3,50,0,1
3,50,106,1
3,43,0,57
3,55,112,3
3,50,0,1
3,53,101,26
3,55,0,2
3,53,0,90
3,50,109,2
3,48,103,29
3,50,0,2
3,50,101,24
3,48,0,3
3,50,0,27
3,58,105,0
3,58,0,7
3,50,107,5
3,43,99,0
3,50,0,62
3,43,0,0
3,43,106,1
3,50,103,1
3,55,106,58
3,50,0,1
3,43,0,1
3,53,107,27
3,55,0,1
3,50,102,89
3,53,0,1
3,50,0,30
3,48,109,0
3,50,109,27
3,48,0,5
3,50,0,24
3,58,100,1
3,58,0,89
3,55,106,6
3,50,111,58
3,43,99,0
3,55,0,4
3,50,0,53
3,43,0,0
3,43,102,1
3,50,100,0
3,50,0,60
3,43,0,1
3,55,106,1
3,53,103,31
3,55,0,1
3,50,102,86
3,53,0,3
3,50,0,28
3,48,107,2
3,48,0,31
3,50,106,0
3,58,107,29
3,50,0,1
3,58,0,12
3,50,105,0
3,43,103,0
3,50,0,61
3,43,0,1
3,53,102,1678
3,46,108,1
3,53,0,119
3,46,0,1
3,55,105,3
3,48,105,0
3,53,111,56
3,55,0,3
3,48,0,0
3,53,0,2
3,55,105,1
3,55,0,7
3,55,110,25
3,55,0,7
3,55,106,22
3,55,0,90
3,55,108,1
3,53,103,30
3,55,0,1
3,55,111,4
3,53,0,1
3,55,0,7
3,55,107,20
3,55,0,8
3,55,99,21
3,55,0,90
3,55,105,3
3,53,110,26
3,55,0,6
3,53,0,2
3,55,106,0
3,55,0,7
3,55,112,24
3,55,0,7
3,55,105,25
3,53,101,88
3,55,0,4
3,53,0,25
3,55,102,3
3,55,0,61
3,53,105,176
3,55,110,29
3,53,0,1
3,55,0,7
3,55,104,26
3,55,0,8
3,55,109,23
3,55,0,87
3,55,107,1
3,53,109,30
3,55,0,1
3,55,100,3
3,53,0,2
3,55,0,5
3,55,110,25
3,55,0,7
3,55,109,23
3,55,0,86
3,55,107,1
3,55,0,30
3,53,100,3
3,55,105,1
3,53,0,6
3,55,0,1
3,55,104,22
3,55,0,7
3,55,100,24
3,53,111,89
3,55,0,1
3,53,0,30
3,55,100,1
3,55,0,60
3,53,104,183
3,55,105,2
3,53,0,2
3,55,0,6
3,55,102,20
3,55,0,8
3,55,99,25
3,55,0,88
3,55,105,4
3,53,105,28
3,55,0,1
3,55,108,4
3,53,0,1
3,55,0,7
3,55,100,21
3,55,0,8
