track,note,velocity,time
0,36,100,0
0,39,115,92
0,39,115,88
0,39,115,176
0,36,100,348
0,56,90,188
0,56,90,88
0,39,115,88
0,56,90,88
0,56,90,184
0,36,100,88
0,56,100,92
0,56,100,260
0,36,100,0
0,56,100,176
0,56,100,176
0,36,100,0
0,39,115,176
0,39,115,88
0,39,115,184
0,39,115,184
0,42,120,84
0,30,120,0
0,42,60,4
0,36,100,0
0,39,115,92
0,42,56,0
0,39,115,88
0,42,60,0
0,42,105,56
0,30,105,0
0,42,56,4
0,39,110,56
0,27,110,0
0,39,115,4
0,54,100,0
0,42,98,0
0,42,56,60
0,42,105,20
0,30,105,0
0,42,60,4
0,36,90,0
0,42,56,92
0,42,56,24
0,36,100,0
0,42,56,92
0,56,90,92
0,42,98,0
0,56,90,88
0,42,56,0
0,39,115,88
0,42,98,0
0,56,90,88
0,42,56,0
0,39,105,84
0,27,105,0
0,42,56,4
0,56,90,72
0,42,56,0
0,42,120,84
0,30,120,0
0,42,60,0
0,36,100,0
0,56,100,92
0,42,56,0
0,42,98,68
0,42,56,92
0,56,100,92
0,54,100,0
0,42,98,0
0,42,56,60
0,42,105,4
0,30,105,0
0,56,100,4
0,42,60,0
0,36,90,0
0,42,56,12
0,56,100,92
0,42,60,0
0,36,100,0
0,42,56,80
0,39,115,92
0,54,100,0
0,42,60,0
0,39,115,80
0,42,56,0
0,54,100,88
0,42,84,0
0,39,115,80
0,42,91,0
0,42,95,88
0,36,90,0
0,39,115,92
0,42,98,0
0,42,120,84
0,30,120,0
0,42,60,4
0,36,100,0
0,39,115,92
0,42,56,0
0,39,115,88
0,42,60,0
0,42,105,68
0,30,105,0
0,42,56,4
0,39,105,56
0,27,105,0
0,39,115,4
0,42,84,0
0,42,91,60
0,42,105,20
0,30,105,0
0,42,95,4
0,36,90,0
0,42,98,92
0,42,60,24
0,36,100,0
0,42,56,92
0,56,90,92
0,42,60,0
0,56,90,88
0,42,56,0
0,39,115,88
0,54,100,0
0,42,84,0
0,56,90,60
0,42,91,0
0,39,105,84
0,27,105,0
0,42,95,4
0,56,90,72
0,42,98,0
0,42,115,84
0,30,120,0
0,42,60,0
0,36,100,0
0,56,100,92
0,42,56,0
0,42,60,68
0,42,56,92
0,56,100,92
0,42,84,0
0,42,91,80
0,42,105,4
0,30,105,0
0,56,100,4
0,42,95,0
0,36,90,0
0,42,98,12
0,56,100,92
0,36,100,0
0,39,115,80
0,38,55,0
0,54,100,88
0,39,115,0
0,38,55,0
0,39,115,80
0,38,65,0
0,54,125,84
0,42,125,0
0,54,100,4
0,39,115,0
0,38,75,0
0,39,115,80
0,38,85,0
0,39,115,0
0,38,90,0
0,36,90,0
0,39,115,4
0,38,100,0
0,61,120,4
0,66,120,0
0,70,120,0
0,42,115,0
0,36,100,4
0,70,126,0
0,82,127,0
0,66,119,0
0,70,117,0
0,78,115,0
0,82,115,0
0,54,100,0
0,42,60,0
0,70,127,4
0,42,56,64
0,42,60,92
0,42,105,4
0,66,117,4
0,70,113,0
0,54,100,0
0,42,56,0
0,73,127,4
0,75,98,0
0,78,119,8
0,39,105,4
0,73,123,4
0,85,126,0
0,42,84,0
0,38,100,0
0,80,117,4
0,82,127,0
0,42,91,40
0,42,105,20
0,42,95,0
0,36,90,0
0,42,98,20
0,54,100,92
0,42,60,0
0,42,56,80
0,56,90,92
0,54,100,0
0,42,60,0
0,56,90,80
0,42,56,0
0,70,120,88
0,82,120,0
0,48,110,0
0,42,84,0
0,38,100,0
0,56,90,92
0,42,91,0
0,42,95,88
0,70,120,68
0,82,120,0
0,56,90,0
0,42,98,0
0,42,115,32
0,68,120,4
0,70,121,0
0,66,121,0
0,42,60,0
0,36,100,0
0,80,120,0
0,56,100,92
0,42,56,0
0,66,120,32
0,78,120,0
0,42,60,0
0,42,105,32
0,66,115,4
0,70,109,0
0,42,56,0
0,36,90,0
0,56,100,68
0,42,84,0
0,38,100,0
0,42,91,80
0,42,105,48
0,68,120,4
0,80,120,0
0,56,100,0
0,42,95,0
0,36,90,0
0,42,98,20
0,70,123,92
0,66,125,0
0,56,100,0
0,42,60,0
0,36,100,0
0,42,56,80
0,70,120,92
0,82,120,0
0,39,115,0
0,42,60,0
0,70,115,56
0,66,117,0
0,39,115,0
0,42,56,0
0,48,110,68
0,77,115,0
0,80,115,0
0,42,84,0
0,38,100,0
0,39,115,92
0,42,91,0
0,78,115,20
0,82,115,0
0,42,95,0
0,39,115,92
0,42,98,0
0,61,120,32
0,66,120,0
0,70,120,0
0,70,127,4
0,42,115,0
0,36,100,0
0,82,127,0
0,66,119,0
0,70,117,0
0,42,60,0
0,70,127,24
0,42,56,64
0,42,60,36
0,42,105,16
0,66,117,4
0,70,113,0
0,42,56,0
0,73,127,4
0,75,98,0
0,78,119,28
0,39,105,4
0,73,120,4
0,85,120,0
0,42,84,0
0,38,100,0
0,80,117,4
0,82,127,0
0,42,91,40
0,42,105,16
0,42,95,4
0,36,90,0
0,42,98,20
0,54,100,92
0,42,60,0
0,42,56,80
0,56,90,92
0,54,100,0
0,42,60,0
0,56,90,80
0,42,56,0
0,70,120,88
0,82,120,0
0,48,110,0
0,42,84,0
0,38,100,0
0,56,90,92
0,42,91,0
0,42,95,88
0,70,120,68
0,82,120,0
0,56,90,0
0,42,98,0
0,42,115,32
0,68,120,4
0,80,120,0
0,70,121,0
0,36,100,0
0,66,121,0
0,42,60,0
0,56,100,88
0,42,56,0
0,66,120,32
0,78,120,0
0,42,60,0
0,42,105,32
0,66,115,4
0,70,109,0
0,42,56,0
0,36,90,0
0,56,100,12
0,42,84,0
0,38,100,0
0,42,91,80
0,68,120,92
0,80,120,0
0,56,100,0
0,42,95,0
0,36,90,0
0,42,98,56
0,42,110,88
0,70,123,4
0,66,125,0
0,56,100,0
0,42,60,0
0,36,100,0
0,42,56,80
0,69,120,60
0,81,120,0
0,70,120,32
0,82,120,0
0,39,115,0
0,42,60,0
0,70,115,68
0,66,117,0
0,39,115,0
0,42,56,0
0,41,110,16
0,68,120,4
0,48,110,0
0,77,115,0
0,80,115,0
0,42,84,0
0,38,100,0
0,80,120,0
0,39,115,92
0,42,91,0
0,66,120,20
0,78,120,0
0,78,115,0
0,82,115,0
0,42,95,0
0,39,115,56
0,42,98,0
0,61,120,32
0,66,120,0
0,70,120,0
0,39,115,0
0,36,100,0
0,70,127,0
0,82,127,0
0,66,119,0
0,70,117,0
0,42,60,0
0,70,127,24
0,42,56,64
0,42,60,92
0,39,105,16
0,66,117,4
0,70,113,0
0,42,56,0
0,73,127,4
0,75,98,0
0,78,119,12
0,37,105,4
0,73,120,4
0,85,120,0
0,42,84,0
0,38,100,0
0,80,117,4
0,82,127,0
0,42,91,40
0,39,105,16
0,42,95,4
0,36,90,0
0,42,98,20
0,54,100,92
0,42,60,0
0,42,56,80
0,56,90,92
0,54,100,0
0,42,60,0
0,56,90,80
0,42,56,0
0,70,120,88
0,82,120,0
0,48,110,0
0,42,84,0
0,38,100,0
0,56,90,92
0,42,91,0
0,42,95,88
0,70,120,68
0,82,120,0
0,56,90,0
0,42,98,0
0,39,115,32
0,70,121,4
0,66,121,0
0,42,60,0
0,36,100,0
0,68,120,0
0,80,120,0
0,56,100,92
0,42,56,0
0,66,120,32
0,78,120,0
0,42,60,0
0,39,105,32
0,66,115,4
0,70,109,0
0,42,56,0
0,36,90,0
0,56,100,12
0,42,84,0
0,38,100,0
0,42,91,80
0,68,120,92
0,80,120,0
0,56,100,0
0,42,95,0
0,36,90,0
0,42,98,56
0,39,115,88
0,70,123,4
0,66,125,0
0,56,100,0
0,42,60,0
0,36,100,0
0,42,56,80
0,70,120,92
0,82,120,0
0,39,115,0
0,42,60,0
0,39,105,32
0,70,115,4
0,66,117,0
0,39,115,0
0,42,56,0
0,46,115,64
0,48,110,4
0,77,115,0
0,80,115,0
0,42,84,0
0,38,100,0
0,39,115,92
0,42,91,0
0,75,115,20
0,78,115,0
0,42,95,0
0,46,105,32
0,39,115,4
0,42,98,0
0,63,120,32
0,66,120,0
0,70,120,0
0,47,105,0
0,36,100,4
0,70,126,0
0,82,127,0
0,59,121,0
0,66,125,0
0,42,60,0
0,70,127,24
0,42,56,64
0,42,60,36
0,47,105,0
0,59,121,4
0,66,121,0
0,42,56,0
0,73,127,4
0,75,98,0
0,78,119,28
0,73,123,8
0,85,126,0
0,42,84,0
0,38,100,0
0,80,117,4
0,82,127,0
0,42,91,40
0,47,105,32
0,42,95,0
0,36,90,0
0,42,98,40
0,54,100,92
0,42,60,0
0,42,56,80
0,56,90,92
0,54,100,0
0,42,60,0
0,56,90,80
0,42,56,0
0,48,110,88
0,42,84,0
0,38,100,0
0,56,90,92
0,42,91,0
0,47,110,84
0,78,123,4
0,66,123,0
0,42,95,0
0,46,110,56
0,66,125,4
0,78,125,0
0,56,90,0
0,42,98,0
0,61,120,32
0,66,120,0
0,71,120,0
0,44,105,0
0,78,111,0
0,83,103,0
0,73,107,0
0,36,100,4
0,66,120,0
0,78,120,0
0,66,123,0
0,59,109,0
0,42,60,0
0,56,100,88
0,42,56,0
0,68,120,32
0,80,120,0
0,42,60,0
0,59,95,68
0,66,125,0
0,42,56,0
0,36,90,0
0,46,105,28
0,70,120,4
0,82,120,0
0,56,100,0
0,42,84,0
0,38,100,0
0,42,91,36
0,78,111,0
0,80,107,0
0,73,109,0
0,68,120,4
0,80,120,0
0,56,100,0
0,42,95,0
0,36,90,0
0,44,105,32
0,42,98,4
0,47,105,68
0,66,111,4
0,59,105,0
0,56,100,0
0,42,60,0
0,36,100,0
0,66,115,4
0,59,105,0
0,42,56,0
0,39,115,68
0,42,60,0
0,44,105,24
0,39,115,4
0,42,56,0
0,66,120,68
0,71,120,0
0,73,120,0
0,49,105,0
0,48,110,4
0,42,84,0
0,38,100,0
0,66,115,0
0,59,101,0
0,59,103,4
0,66,119,0
0,39,115,0
0,42,91,0
0,42,95,68
0,39,115,92
0,42,98,0
0,61,120,0
0,66,120,0
0,70,120,0
0,66,110,0
0,70,127,4
0,42,115,0
0,36,100,0
0,82,127,0
0,66,123,0
0,61,126,0
0,42,60,0
0,70,127,24
0,39,115,64
0,42,56,0
0,39,115,88
0,42,60,0
0,42,105,16
0,66,119,4
0,61,125,0
0,42,56,0
0,73,127,4
0,75,98,0
0,78,119,28
0,39,105,4
0,73,120,4
0,85,120,0
0,39,115,0
0,42,84,0
0,38,100,0
0,80,117,4
0,82,127,0
0,42,91,40
0,42,105,16
0,42,95,4
0,36,90,0
0,42,98,20
0,42,60,92
0,42,56,92
0,56,100,92
0,54,100,0
0,42,60,0
0,56,100,80
0,42,56,0
0,48,110,88
0,39,115,0
0,54,100,0
0,42,84,0
0,38,100,0
0,56,100,60
0,42,91,0
0,42,95,88
0,61,105,20
0,73,115,0
0,66,105,60
0,78,103,0
0,56,100,8
0,42,98,0
0,68,119,40
0,80,123,0
0,67,120,4
0,79,120,0
0,68,120,0
0,80,120,0
0,69,120,12
0,81,120,0
0,42,115,0
0,30,115,0
0,78,119,0
0,73,113,0
0,61,126,4
0,66,123,0
0,36,100,0
0,70,120,0
0,82,120,0
0,42,60,0
0,56,100,72
0,42,56,0
0,39,105,8
0,27,105,0
0,73,109,0
0,77,109,0
0,68,120,4
0,80,120,0
0,42,60,0
0,61,117,68
0,66,103,0
0,42,56,0
0,37,105,8
0,25,105,0
0,73,111,0
0,75,119,0
0,66,120,4
0,78,120,0
0,56,100,0
0,42,84,0
0,42,91,36
0,90,125,20
0,42,115,0
0,30,115,0
0,82,117,0
0,66,127,4
0,61,127,0
0,56,100,0
0,42,95,0
0,36,110,0
0,66,120,0
0,78,120,0
0,66,120,396
0,70,120,0
0,78,115,8
0,82,115,0
0,68,120,4
0,65,120,0
0,61,120,0
0,77,115,8
0,80,115,0
0,46,60,0
0,36,90,0
0,37,115,184
0,42,60,4
0,36,100,0
0,54,100,0
0,54,100,84
0,54,100,36
0,42,56,0
0,37,105,32
0,34,105,36
0,73,105,4
0,42,56,0
0,38,100,0
0,37,105,20
0,42,56,4
0,36,90,0
0,73,105,36
0,42,60,0
0,42,56,160
0,42,70,4
0,38,100,0
0,54,100,92
0,42,56,0
0,34,115,76
0,73,117,4
0,42,60,0
0,54,100,36
0,42,56,0
0,37,115,84
0,75,121,4
0,54,100,0
0,42,60,0
0,36,100,0
0,42,56,156
0,37,105,32
0,73,111,40
0,42,56,0
0,38,100,0
0,37,105,0
0,75,113,4
0,42,56,0
0,36,90,0
0,75,100,84
0,42,60,4
0,36,100,0
0,75,100,40
0,75,100,40
0,75,100,44
0,42,56,16
0,77,113,188
0,48,110,0
0,42,60,0
0,38,100,0
0,34,115,128
0,77,115,4
0,42,56,0
0,37,105,24
0,61,120,28
0,66,120,0
0,39,120,0
0,70,120,4
0,78,125,0
0,42,60,0
0,61,93,0
0,54,100,0
0,36,100,0
0,66,93,8
0,54,100,164
0,42,56,0
0,39,105,68
0,54,100,4
0,37,105,8
0,77,100,4
0,42,60,0
0,38,100,0
0,39,105,20
0,78,120,4
0,42,56,0
0,36,90,0
0,42,60,72
0,82,105,188
0,42,56,0
0,42,70,112
0,38,100,0
0,54,100,92
0,42,56,0
0,37,105,76
0,75,123,4
0,42,60,0
0,54,100,4
0,42,56,0
0,39,115,84
0,54,100,0
0,42,60,0
0,36,100,0
0,70,127,12
0,66,92,4
0,78,115,0
0,82,117,0
0,42,56,0
0,39,105,32
0,66,127,16
0,63,80,0
0,75,115,0
0,78,117,0
0,42,60,0
0,38,100,0
0,63,127,16
0,39,105,0
0,71,115,4
0,75,117,0
0,42,56,0
0,36,90,0
0,58,120,16
0,63,120,0
0,66,120,0
0,32,105,0
0,58,90,4
0,42,60,0
0,36,100,0
0,70,115,0
0,73,115,0
0,63,90,0
0,71,115,0
0,75,115,0
0,42,56,0
0,58,120,16
0,63,120,0
0,66,120,0
0,34,105,0
0,48,110,4
0,42,60,0
0,66,84,0
0,78,115,0
0,82,115,0
0,38,100,0
0,65,84,0
0,77,115,0
0,80,115,0
0,46,65,0
0,54,100,92
0,42,56,0
0,56,120,32
0,61,120,0
0,65,120,0
0,37,115,0
0,42,60,4
0,36,100,0
0,54,100,0
0,54,100,84
0,54,100,40
0,42,56,0
0,37,105,32
0,34,105,24
0,73,126,4
0,42,60,0
0,38,100,0
0,37,105,20
0,42,56,4
0,36,90,0
0,75,113,40
0,42,63,0
0,73,119,4
0,42,56,0
0,42,56,92
0,42,70,92
0,38,100,0
0,54,100,60
0,42,56,0
0,34,115,76
0,73,113,4
0,42,60,0
0,54,100,36
0,42,56,0
0,37,115,84
0,75,125,4
0,54,100,0
0,42,60,0
0,36,100,0
0,42,56,156
0,37,105,32
0,73,119,40
0,42,56,0
0,38,100,0
0,37,105,32
0,75,113,4
0,42,56,0
0,36,90,0
0,75,100,28
0,42,60,4
0,36,100,0
0,75,100,40
0,75,100,44
0,75,100,40
0,42,56,16
0,37,115,184
0,77,113,4
0,48,110,0
0,42,60,0
0,38,100,0
0,34,105,116
0,77,115,4
0,42,56,0
0,37,105,16
0,58,120,32
0,61,120,0
0,66,120,0
0,39,120,0
0,42,63,4
0,78,125,0
0,66,98,0
0,54,100,0
0,36,100,0
0,73,98,16
0,54,100,68
0,54,100,88
0,42,56,0
0,39,105,68
0,77,111,20
0,42,60,0
0,38,100,0
0,39,105,32
0,78,111,4
0,42,56,0
0,36,90,0
0,42,60,68
0,82,121,188
0,42,56,0
0,42,56,0
0,42,60,92
0,38,100,0
0,42,56,92
0,37,115,88
0,75,111,4
0,54,100,0
0,42,56,0
0,42,56,0
0,39,115,88
0,54,100,4
0,42,60,0
0,36,100,0
0,54,100,88
0,42,56,88
0,39,105,32
0,42,60,100
0,38,100,0
0,37,105,32
0,42,56,0
0,36,90,0
0,39,105,4
0,54,115,0
0,61,120,4
0,75,115,0
0,78,115,0
0,42,60,0
0,36,100,0
0,77,115,20
0,80,115,0
0,42,56,0
