track,note,velocity,time
1,36,127,0
1,36,0,29
1,36,127,31
1,36,0,59
1,33,127,1
1,33,0,59
1,36,127,1
1,36,0,29
1,36,127,31
1,36,0,89
1,33,127,31
1,33,0,119
1,38,127,1
1,38,0,29
1,38,127,31
1,38,0,59
1,35,127,1
1,35,0,59
1,38,127,1
1,38,0,29
1,38,127,31
1,38,0,119
1,28,127,1
1,28,0,29
1,28,127,31
1,28,0,59
1,31,127,1
1,31,0,59
1,32,127,1
1,32,0,59
1,40,127,1
1,40,0,119
1,31,127,1
1,31,0,29
1,28,127,31
1,28,0,59
1,31,127,1
1,31,0,59
1,32,127,1
1,32,0,59
1,40,127,1
1,40,0,119
1,33,127,61
1,33,0,119
1,28,127,61
1,28,0,29
1,28,127,31
1,28,0,59
1,31,127,1
1,31,0,59
1,32,127,1
1,32,0,59
1,40,127,1
1,40,0,119
1,31,127,1
1,31,0,29
1,28,127,31
1,28,0,59
1,38,127,61
1,38,0,179
1,33,127,1
1,33,0,179
1,28,127,62
1,28,0,29
1,28,127,31
1,28,0,59
1,31,127,1
1,31,0,59
1,32,127,1
1,32,0,59
1,40,127,1
1,40,0,119
1,31,127,1
1,31,0,29
1,28,127,31
1,28,0,59
1,31,127,1
1,31,0,59
1,32,127,1
1,32,0,59
1,40,127,1
1,40,0,119
1,33,127,61
1,33,0,119
1,28,127,61
1,28,0,29
1,28,127,31
1,28,0,59
1,31,127,1
1,31,0,59
1,32,127,1
1,32,0,59
1,40,127,1
1,40,0,119
1,31,127,1
1,31,0,29
1,28,127,31
1,28,0,59
1,38,127,61
1,38,0,179
1,33,127,1
1,33,0,179
1,28,127,61
1,28,0,29
1,28,127,31
1,28,0,59
1,31,127,1
1,31,0,59
1,32,127,1
1,32,0,59
1,40,127,1
1,40,0,119
1,31,127,1
1,31,0,29
1,28,127,31
1,28,0,59
1,31,127,1
1,31,0,59
1,32,127,1
1,32,0,59
1,40,127,1
1,40,0,119
1,33,127,61
1,33,0,119
1,28,127,61
1,28,0,29
1,28,127,31
1,28,0,59
1,31,127,1
1,31,0,59
1,32,127,1
1,32,0,59
1,40,127,1
1,40,0,119
1,31,127,1
1,31,0,29
1,28,127,31
1,28,0,59
1,38,127,61
1,38,0,179
1,33,127,1
1,33,0,179
1,35,127,0
1,35,0,29
1,35,127,1
1,35,0,29
1,35,127,1
1,35,0,119
1,35,127,1
1,35,0,119
1,35,127,1
1,35,0,119
1,35,127,1
1,35,0,119
1,35,127,1
1,35,0,119
1,35,127,1
1,35,0,119
1,35,127,1
1,35,0,119
1,47,127,1
1,47,0,59
1,35,127,1
1,35,0,59
1,36,127,62
1,36,0,29
1,36,127,31
1,36,0,59
1,33,127,1
1,33,0,59
1,36,127,1
1,36,0,29
1,36,127,31
1,36,0,89
1,33,127,31
1,33,0,119
1,36,127,3
1,36,0,29
1,36,127,31
1,36,0,59
1,33,127,1
1,33,0,59
1,36,127,1
1,36,0,29
1,36,127,31
1,36,0,119
1,35,127,1
1,35,0,29
1,35,127,1
1,35,0,29
1,35,127,1
1,35,0,119
1,35,127,1
1,35,0,119
1,35,127,1
1,35,0,119
1,35,127,1
1,35,0,119
1,35,127,1
1,35,0,119
1,35,127,1
1,35,0,119
1,35,127,1
1,35,0,119
1,47,127,1
1,47,0,59
1,35,127,1
1,35,0,59
1,36,127,62
1,36,0,29
1,36,127,31
1,36,0,59
1,33,127,1
1,33,0,59
1,36,127,1
1,36,0,29
1,36,127,31
1,36,0,89
1,33,127,31
1,33,0,119
1,38,127,0
1,38,0,29
1,38,127,31
1,38,0,59
1,35,127,1
1,35,0,59
1,38,127,1
1,38,0,29
1,38,127,31
1,38,0,119
1,28,127,59
1,28,0,29
1,28,127,31
1,28,0,59
1,31,127,1
1,31,0,59
1,32,127,1
1,32,0,59
1,40,127,0
1,40,0,119
1,40,127,1
1,40,0,59
1,38,127,1
1,38,0,179
1,38,127,1
1,38,0,119
1,33,127,1
1,33,0,119
1,31,127,1
1,31,0,59
1,30,127,1
1,30,0,59
1,28,127,1
1,28,0,29
1,28,127,31
1,28,0,59
1,31,127,1
1,31,0,59
1,32,127,1
1,32,0,59
1,40,127,0
1,40,0,119
1,40,127,1
1,40,0,59
1,36,127,2
1,36,0,179
1,38,127,1
1,38,0,119
1,40,127,1
1,40,0,119
1,28,127,122
1,28,0,29
1,28,127,31
1,28,0,59
1,31,127,1
1,31,0,59
1,32,127,1
1,32,0,59
1,40,127,0
1,40,0,119
1,40,127,1
1,40,0,59
1,38,127,1
1,38,0,179
1,38,127,1
1,38,0,119
1,33,127,1
1,33,0,119
1,31,127,1
1,31,0,59
1,30,127,1
1,30,0,59
1,36,127,62
1,36,0,29
1,36,127,31
1,36,0,59
1,33,127,1
1,33,0,59
1,36,127,1
1,36,0,29
1,36,127,31
1,36,0,89
1,33,127,31
1,33,0,119
1,38,127,0
1,38,0,29
1,38,127,31
1,38,0,59
1,35,127,1
1,35,0,59
1,38,127,1
1,38,0,29
1,38,127,31
1,38,0,119
1,28,127,61
1,28,0,29
1,28,127,31
1,28,0,59
1,31,127,1
1,31,0,59
1,32,127,1
1,32,0,59
1,40,127,1
1,40,0,119
1,31,127,1
1,31,0,29
1,28,127,31
1,28,0,59
1,31,127,1
1,31,0,59
1,32,127,1
1,32,0,59
1,40,127,1
1,40,0,119
1,33,127,61
1,33,0,119
1,28,127,61
1,28,0,29
1,28,127,31
1,28,0,59
1,31,127,1
1,31,0,59
1,32,127,1
1,32,0,59
1,40,127,1
1,40,0,119
1,31,127,1
1,31,0,29
1,28,127,31
1,28,0,59
1,38,127,61
1,38,0,179
1,33,127,1
1,33,0,179
1,28,127,62
1,28,0,29
1,28,127,31
1,28,0,59
1,31,127,1
1,31,0,59
1,32,127,1
1,32,0,59
1,40,127,1
1,40,0,119
1,31,127,1
1,31,0,29
1,28,127,31
1,28,0,59
1,31,127,1
1,31,0,59
1,32,127,1
1,32,0,59
1,40,127,1
1,40,0,119
1,33,127,61
1,33,0,119
1,28,127,61
1,28,0,29
1,28,127,31
1,28,0,59
1,31,127,1
1,31,0,59
1,32,127,1
1,32,0,59
1,40,127,1
1,40,0,119
1,31,127,1
1,31,0,29
1,28,127,31
1,28,0,59
1,38,127,61
1,38,0,179
1,33,127,1
1,33,0,179
1,28,127,61
1,28,0,29
1,28,127,31
1,28,0,59
1,31,127,1
1,31,0,59
1,32,127,1
1,32,0,59
1,40,127,1
1,40,0,119
1,31,127,1
1,31,0,29
1,28,127,31
1,28,0,59
1,31,127,1
1,31,0,59
1,32,127,1
1,32,0,59
1,40,127,1
1,40,0,119
1,33,127,61
1,33,0,119
1,28,127,61
1,28,0,29
1,28,127,31
1,28,0,59
1,31,127,1
1,31,0,59
1,32,127,1
1,32,0,59
1,40,127,1
1,40,0,119
1,31,127,1
1,31,0,29
1,28,127,31
1,28,0,59
1,38,127,61
1,38,0,179
1,33,127,1
1,33,0,179
1,35,127,0
1,35,0,29
1,35,127,1
1,35,0,29
1,35,127,1
1,35,0,119
1,35,127,1
1,35,0,119
1,35,127,1
1,35,0,119
1,35,127,1
1,35,0,119
1,35,127,1
1,35,0,119
1,35,127,1
1,35,0,119
1,35,127,1
1,35,0,119
1,47,127,1
1,47,0,59
1,35,127,1
1,35,0,59
1,36,127,62
1,36,0,29
1,36,127,31
1,36,0,59
1,33,127,1
1,33,0,59
1,36,127,1
1,36,0,29
1,36,127,31
1,36,0,89
1,33,127,31
1,33,0,119
1,36,127,3
1,36,0,29
1,36,127,31
1,36,0,59
1,33,127,1
1,33,0,59
1,36,127,1
1,36,0,29
1,36,127,31
1,36,0,119
1,35,127,1
1,35,0,29
1,35,127,1
1,35,0,29
1,35,127,1
1,35,0,119
1,35,127,1
1,35,0,119
1,35,127,1
1,35,0,119
1,35,127,1
1,35,0,119
1,35,127,1
1,35,0,119
1,35,127,1
1,35,0,119
1,35,127,1
1,35,0,119
1,47,127,1
1,47,0,59
1,35,127,1
1,35,0,59
1,36,127,62
1,36,0,29
1,36,127,31
1,36,0,59
1,33,127,1
1,33,0,59
1,36,127,1
1,36,0,29
1,36,127,31
1,36,0,89
1,33,127,31
1,33,0,119
1,38,127,0
1,38,0,29
1,38,127,31
1,38,0,59
1,35,127,1
1,35,0,59
1,38,127,1
1,38,0,29
1,38,127,31
1,38,0,119
1,28,127,59
1,28,0,29
1,28,127,31
1,28,0,59
1,31,127,1
1,31,0,59
1,32,127,1
1,32,0,59
1,40,127,0
1,40,0,119
1,40,127,1
1,40,0,59
1,38,127,1
1,38,0,179
1,38,127,1
1,38,0,119
1,33,127,1
1,33,0,119
1,31,127,1
1,31,0,59
1,30,127,1
1,30,0,59
1,28,127,1
1,28,0,29
1,28,127,31
1,28,0,59
1,31,127,1
1,31,0,59
1,32,127,1
1,32,0,59
1,40,127,0
1,40,0,119
1,40,127,1
1,40,0,59
1,36,127,2
1,36,0,179
1,38,127,1
1,38,0,119
1,40,127,1
1,40,0,119
1,28,127,122
1,28,0,29
1,28,127,31
1,28,0,59
1,31,127,1
1,31,0,59
1,32,127,1
1,32,0,59
1,40,127,0
1,40,0,119
1,40,127,1
1,40,0,59
1,38,127,1
1,38,0,179
1,38,127,1
1,38,0,119
1,33,127,1
1,33,0,119
1,31,127,1
1,31,0,59
1,30,127,1
1,30,0,59
1,36,127,62
1,36,0,29
1,36,127,31
1,36,0,59
1,33,127,1
1,33,0,59
1,36,127,1
1,36,0,29
1,36,127,31
1,36,0,89
1,33,127,31
1,33,0,119
1,38,127,0
1,38,0,29
1,38,127,31
1,38,0,59
1,35,127,1
1,35,0,59
1,38,127,1
1,38,0,29
1,38,127,31
1,38,0,119
1,28,127,61
1,28,0,29
1,28,127,31
1,28,0,59
1,31,127,1
1,31,0,59
1,32,127,1
1,32,0,59
1,40,127,1
1,40,0,119
1,31,127,1
1,31,0,29
1,28,127,31
1,28,0,59
1,31,127,1
1,31,0,59
1,32,127,1
1,32,0,59
1,40,127,1
1,40,0,119
1,33,127,61
1,33,0,119
1,28,127,61
1,28,0,29
1,28,127,31
1,28,0,59
1,31,127,1
1,31,0,59
1,32,127,1
1,32,0,59
1,40,127,1
1,40,0,119
1,31,127,1
1,31,0,29
1,28,127,31
1,28,0,59
1,38,127,61
1,38,0,179
1,33,127,1
1,33,0,179
1,35,127,61
1,35,0,119
1,35,127,1
1,35,0,119
1,35,127,1
1,35,0,119
1,35,127,1
1,35,0,119
1,35,127,1
1,35,0,119
1,35,127,1
1,35,0,119
1,35,127,1
1,35,0,119
1,35,127,1
1,35,0,59
1,36,127,1
1,36,0,179
1,36,127,1
1,36,0,119
1,36,127,1
1,36,0,119
1,36,127,1
1,36,0,59
1,33,127,1
1,33,0,239
1,38,127,1
1,38,0,239
1,28,127,63
1,28,0,29
1,28,127,31
1,28,0,59
1,31,127,1
1,31,0,59
1,32,127,1
1,32,0,59
1,40,127,1
1,40,0,119
1,31,127,1
1,31,0,29
1,28,127,31
1,28,0,59
1,31,127,1
1,31,0,59
1,32,127,1
1,32,0,59
1,40,127,1
1,40,0,119
1,33,127,61
1,33,0,119
1,28,127,59
1,28,0,29
1,28,127,31
1,28,0,59
1,31,127,1
1,31,0,59
1,32,127,1
1,32,0,59
1,40,127,1
1,40,0,119
1,31,127,1
1,31,0,29
1,28,127,31
1,28,0,59
1,31,127,1
1,31,0,59
1,32,127,1
1,32,0,59
1,40,127,1
1,40,0,119
1,33,127,61
1,33,0,119
1,28,127,61
1,28,0,29
1,28,127,31
1,28,0,59
1,31,127,1
1,31,0,59
1,32,127,1
1,32,0,59
1,40,127,1
1,40,0,119
1,31,127,1
1,31,0,29
1,28,127,31
1,28,0,59
1,31,127,1
1,31,0,59
1,32,127,1
1,32,0,59
1,40,127,1
1,40,0,119
1,33,127,61
1,33,0,119
1,28,127,63
1,28,0,29
1,28,127,31
1,28,0,59
1,31,127,1
1,31,0,59
1,32,127,1
1,32,0,59
1,40,127,1
1,40,0,119
1,31,127,1
1,31,0,29
1,28,127,31
1,28,0,59
1,38,127,59
1,38,0,179
1,33,125,1
1,33,0,179
1,28,127,61
1,28,0,29
1,28,127,31
1,28,0,59
1,31,127,1
1,31,0,59
1,32,127,1
1,32,0,59
1,40,127,0
1,40,0,119
1,40,127,1
1,40,0,59
1,38,127,1
1,38,0,179
1,38,127,1
1,38,0,119
1,33,127,1
1,33,0,119
1,31,127,1
1,31,0,59
1,30,127,1
1,30,0,59
1,28,127,1
1,28,0,29
1,28,127,31
1,28,0,59
1,31,127,1
1,31,0,59
1,32,127,1
1,32,0,59
1,40,127,0
1,40,0,119
1,40,127,1
1,40,0,59
1,36,127,2
1,36,0,179
1,38,127,1
1,38,0,119
1,40,127,1
1,40,0,119
1,28,127,122
1,28,0,29
1,28,127,31
1,28,0,59
1,31,127,1
1,31,0,59
1,32,127,1
1,32,0,59
1,40,127,0
1,40,0,119
1,40,127,1
1,40,0,59
1,38,127,1
1,38,0,179
1,38,127,1
1,38,0,119
1,33,127,1
1,33,0,119
1,31,127,1
1,31,0,59
1,30,127,1
1,30,0,59
1,36,127,64
1,36,0,29
1,36,127,31
1,36,0,59
1,33,127,1
1,33,0,59
1,36,127,1
1,36,0,29
1,36,127,31
1,36,0,89
1,33,127,31
1,33,0,119
1,38,127,1
1,38,0,29
1,38,127,31
1,38,0,59
1,35,127,1
1,35,0,59
1,38,127,1
1,38,0,29
1,38,127,31
1,38,0,119
1,28,127,59
1,28,0,29
1,28,127,31
1,28,0,59
1,31,127,1
1,31,0,59
1,32,127,1
1,32,0,59
1,40,127,0
1,40,0,119
1,40,127,1
1,40,0,59
1,38,127,1
1,38,0,179
1,38,127,1
1,38,0,119
1,33,127,1
1,33,0,119
1,31,127,1
1,31,0,59
1,30,127,1
1,30,0,59
1,28,127,1
1,28,0,29
1,28,127,31
1,28,0,59
1,31,127,1
1,31,0,59
1,32,127,1
1,32,0,59
1,40,127,0
1,40,0,119
1,40,127,1
1,40,0,59
1,36,127,2
1,36,0,179
1,38,127,1
1,38,0,119
1,40,127,1
1,40,0,119
1,28,127,122
1,28,0,29
1,28,127,31
1,28,0,59
1,31,127,1
1,31,0,59
1,32,127,1
1,32,0,59
1,40,127,0
1,40,0,119
1,40,127,1
1,40,0,59
1,38,127,1
1,38,0,179
1,38,127,1
1,38,0,119
1,33,127,1
1,33,0,119
1,31,127,1
1,31,0,59
1,30,127,1
1,30,0,59
1,36,127,64
1,36,0,29
1,36,127,31
1,36,0,59
1,33,127,1
1,33,0,59
1,36,127,1
1,36,0,29
1,36,127,31
1,36,0,89
1,33,127,31
1,33,0,119
1,38,127,1
1,38,0,29
1,38,127,31
1,38,0,59
1,35,127,1
1,35,0,59
1,38,127,1
1,38,0,29
1,38,127,31
1,38,0,119
1,36,127,120
1,36,0,29
1,36,127,31
1,36,0,59
1,33,127,1
1,33,0,59
1,36,127,1
1,36,0,29
1,36,127,31
1,36,0,89
1,33,127,31
1,33,0,119
1,38,127,1
1,38,0,29
1,38,127,31
1,38,0,59
1,35,127,1
1,35,0,59
1,38,127,1
1,38,0,29
1,38,127,31
1,38,0,119
1,36,127,120
1,36,0,29
1,36,127,31
1,36,0,59
1,33,127,1
1,33,0,59
1,36,127,1
1,36,0,29
1,36,127,31
1,36,0,89
1,33,127,31
1,33,0,119
1,38,127,1
1,38,0,29
1,38,127,31
1,38,0,59
1,35,127,1
1,35,0,59
1,38,127,1
1,38,0,29
1,38,127,31
1,38,0,119
1,28,100,61
1,40,100,0
1,40,0,239
1,28,0,0
2,52,100,285
2,40,100,0
2,47,100,0
2,47,0,119
2,40,0,0
2,52,0,0
2,49,100,1
2,42,100,0
2,42,0,59
2,49,0,0
2,43,100,61
2,50,100,0
2,50,0,59
2,43,0,0
2,42,100,61
2,49,100,0
2,49,0,59
2,42,0,0
2,50,100,61
2,43,100,0
2,43,0,59
2,50,0,0
2,42,100,61
2,49,100,0
2,49,0,59
2,42,0,0
