track,note,velocity,time
1,62,127,14016
1,62,0,128
1,64,127,64
1,64,0,128
1,62,127,64
1,62,0,128
1,64,127,64
1,64,0,256
1,62,127,128
1,62,0,128
1,59,127,64
1,59,0,128
1,62,127,64
1,62,0,256
1,62,127,128
1,62,0,256
1,59,127,128
1,59,0,64
1,57,127,32
1,57,0,64
1,55,127,32
1,55,0,128
1,62,127,640
1,62,0,128
1,64,127,64
1,64,0,128
1,62,127,64
1,62,0,128
1,64,127,64
1,64,0,128
1,66,127,64
1,66,0,128
1,64,127,64
1,64,0,128
1,62,127,64
1,62,0,128
1,64,127,64
1,64,0,128
1,64,127,64
1,64,0,128
1,61,127,64
1,61,0,128
1,59,127,64
1,59,0,128
1,62,127,1024
1,62,0,128
1,64,127,64
1,64,0,128
1,62,127,64
1,62,0,128
1,62,127,64
1,62,0,128
1,59,127,64
1,59,0,128
1,62,127,64
1,62,0,128
1,59,127,64
1,59,0,128
1,62,127,64
1,62,0,128
1,62,127,64
1,62,0,256
1,59,127,128
1,59,0,64
1,57,127,32
1,57,0,64
1,55,127,32
1,55,0,128
1,64,127,1024
1,64,0,128
1,62,127,64
1,62,0,128
1,64,127,64
1,64,0,128
1,66,127,64
1,66,0,128
1,64,127,64
1,64,0,128
1,62,127,64
1,62,0,128
1,64,127,64
1,64,0,128
1,64,127,64
1,64,0,256
1,62,127,128
1,62,0,128
1,60,127,64
1,60,0,128
1,62,127,1792
1,62,0,256
1,68,127,128
1,68,0,256
1,68,127,128
1,68,0,256
1,68,127,128
1,71,127,0
1,71,0,256
1,68,0,0
1,68,127,128
1,71,127,0
1,71,0,128
1,68,0,0
1,69,127,64
1,72,127,0
1,69,95,192
1,72,95,0
1,69,127,0
1,72,127,0
1,69,90,0
1,72,90,0
1,72,0,128
1,69,0,0
1,69,0,0
1,72,0,0
1,69,0,0
1,72,0,0
1,72,0,0
1,69,0,0
1,64,127,64
1,64,0,128
1,66,127,64
1,66,0,128
1,64,127,64
1,64,0,128
1,66,127,64
1,66,0,128
1,64,127,256
1,64,0,128
1,68,127,64
1,68,95,192
1,68,127,0
1,68,90,0
1,68,0,128
1,68,0,0
1,68,0,0
1,68,0,0
1,68,127,256
1,71,127,0
1,71,0,128
1,68,0,0
1,68,127,64
1,71,127,0
1,71,0,128
1,68,0,0
1,68,127,64
1,71,127,0
1,71,0,128
1,68,0,0
1,68,127,256
1,71,127,0
1,71,0,128
1,68,0,0
1,72,127,64
1,69,127,0
1,69,95,192
1,72,95,0
1,72,127,0
1,69,127,0
1,69,90,0
1,72,90,0
1,72,0,128
1,72,0,0
1,72,0,0
1,69,0,0
1,69,0,0
1,72,0,0
1,69,0,0
1,69,0,0
1,64,127,64
1,64,0,128
1,66,127,64
1,66,0,128
1,64,127,64
1,64,0,128
1,66,127,64
1,66,0,128
1,64,127,64
1,64,0,128
1,66,127,64
1,66,0,128
1,64,127,64
1,64,0,128
1,66,127,64
1,66,0,128
1,67,127,64
1,67,0,128
1,68,127,64
1,71,127,0
1,71,0,128
1,68,0,0
1,68,127,64
1,71,127,0
1,71,0,128
1,68,0,0
1,68,127,64
1,71,127,0
1,71,0,128
1,68,0,0
1,68,127,256
1,71,127,0
1,71,0,128
1,68,0,0
1,72,127,64
1,69,127,0
1,69,95,192
1,72,95,0
1,72,127,0
1,69,127,0
1,69,90,0
1,72,90,0
1,72,0,1088
1,72,0,0
1,72,0,0
1,69,0,0
1,69,0,0
1,72,0,0
1,69,0,0
1,69,0,0
1,68,127,256
1,71,127,0
1,68,95,192
1,71,95,0
1,68,90,0
1,71,90,0
1,68,127,0
1,71,127,0
1,71,0,128
1,68,0,0
1,68,0,0
1,71,0,0
1,68,0,0
1,71,0,0
1,71,0,0
1,68,0,0
1,62,127,6208
1,62,0,128
1,64,127,64
1,64,0,128
1,62,127,64
1,62,0,128
1,64,127,64
1,64,0,128
1,62,127,256
1,62,0,128
1,62,127,256
1,62,0,128
1,62,127,64
1,62,0,256
1,62,127,128
1,62,0,384
1,64,127,960
1,64,0,128
1,62,127,64
1,62,0,128
1,67,127,64
1,67,0,256
1,62,127,128
1,62,0,256
1,64,127,128
1,64,0,256
1,64,127,128
1,64,0,256
1,62,127,128
1,62,0,128
1,59,127,64
1,59,0,128
1,62,127,640
1,62,0,128
1,64,127,64
1,64,0,128
1,62,127,64
1,62,0,128
1,64,127,64
1,64,0,128
1,59,127,64
1,59,0,128
1,62,127,64
1,62,0,128
1,59,127,64
1,59,0,128
1,62,127,64
1,62,0,128
1,62,127,64
1,62,0,256
1,59,127,128
1,59,0,64
1,57,127,32
1,57,0,64
1,55,127,32
1,55,0,128
1,62,127,832
1,62,0,128
1,64,127,64
1,64,0,128
1,62,127,64
1,62,0,128
1,64,127,64
1,64,0,128
1,67,127,64
1,67,0,128
1,64,127,64
1,64,0,128
1,62,127,64
1,62,0,128
1,64,127,64
1,64,0,256
1,64,127,128
1,64,0,256
1,62,127,128
1,62,0,128
1,60,127,64
1,60,0,128
1,62,118,640
1,62,0,128
1,64,118,64
1,64,0,128
1,62,118,64
1,62,0,128
1,66,118,64
1,66,0,128
1,67,118,64
1,67,0,128
1,59,118,256
1,59,0,128
1,62,118,64
1,62,0,256
1,62,118,128
1,62,0,256
1,57,118,128
1,57,0,128
1,55,118,64
1,55,0,128
1,62,118,640
1,62,0,128
1,64,118,64
1,64,0,128
1,62,118,64
1,62,0,128
1,64,118,64
1,64,0,256
1,62,118,128
1,62,0,256
1,62,118,128
1,62,0,256
1,62,118,128
1,62,0,256
1,62,118,128
1,62,0,256
1,64,118,704
1,64,0,128
1,64,118,64
1,64,0,128
1,62,118,64
1,62,0,128
1,64,118,64
1,64,0,128
1,59,118,64
1,59,0,128
1,62,118,64
1,62,0,128
1,62,118,256
1,62,0,128
1,62,118,64
1,62,0,128
1,59,118,256
1,59,0,64
1,57,118,32
1,57,0,64
1,55,118,32
1,55,0,128
1,62,118,832
1,62,0,128
1,64,118,64
1,64,0,256
1,64,118,128
1,64,0,128
1,64,118,64
1,64,0,128
1,62,118,64
1,62,0,128
1,64,118,64
1,64,0,320
1,64,118,64
1,64,0,128
1,64,118,832
1,64,0,128
1,69,118,64
1,69,0,128
1,62,118,1408
1,62,0,128
1,68,127,64
1,68,0,256
1,68,127,128
1,68,0,256
1,68,127,128
1,71,127,0
1,71,0,256
1,68,0,0
1,68,127,128
1,71,127,0
1,71,0,128
1,68,0,0
1,69,127,64
1,72,127,0
1,69,90,192
1,72,90,0
1,72,0,128
1,69,0,0
1,72,0,0
1,69,0,0
1,64,127,64
1,64,0,128
1,66,127,64
1,66,0,128
1,64,127,64
1,64,0,128
1,66,127,64
1,66,0,128
1,64,127,256
1,64,0,128
1,68,127,64
1,68,90,192
1,68,0,128
1,68,0,0
1,68,127,256
1,71,127,0
1,71,0,128
1,68,0,0
1,68,127,64
1,71,127,0
1,71,0,128
1,68,0,0
1,68,127,64
1,71,127,0
1,71,0,128
1,68,0,0
1,68,127,256
1,71,127,0
1,71,0,128
1,68,0,0
1,72,127,64
1,69,127,0
1,69,90,192
1,72,90,0
1,72,0,128
1,72,0,0
1,69,0,0
1,69,0,0
1,64,127,64
1,64,0,128
1,66,127,64
1,66,0,128
1,64,127,64
1,64,0,128
1,66,127,64
1,66,0,128
1,64,127,64
1,64,0,128
1,66,127,64
1,66,0,128
1,64,127,64
1,64,0,128
1,66,127,64
1,66,0,128
1,67,127,64
1,67,0,128
1,68,127,64
1,71,127,0
1,71,0,128
1,68,0,0
1,68,127,64
1,71,127,0
1,71,0,128
1,68,0,0
1,68,127,64
1,71,127,0
1,71,0,128
1,68,0,0
1,68,127,256
1,71,127,0
1,71,0,128
1,68,0,0
1,72,127,64
1,69,127,0
1,69,90,192
1,72,90,0
1,72,0,1088
1,72,0,0
1,69,0,0
1,69,0,0
1,68,127,256
1,71,127,0
1,71,0,320
1,68,0,0
1,68,118,4480
1,68,0,128
1,64,118,1024
1,64,0,256
1,68,127,128
1,68,0,256
1,68,127,128
1,68,0,256
1,68,127,128
1,71,127,0
1,71,0,256
1,68,0,0
1,68,127,128
1,71,127,0
1,71,0,128
1,68,0,0
1,69,127,64
1,72,127,0
1,69,127,192
1,72,127,0
1,69,90,0
1,72,90,0
1,72,0,128
1,72,0,0
1,69,0,0
1,69,0,0
1,69,0,0
1,72,0,0
1,64,127,64
1,64,0,128
1,66,127,64
1,66,0,128
1,64,127,64
1,64,0,128
1,66,127,64
1,66,0,128
1,64,127,256
1,64,0,128
1,68,127,64
1,68,127,192
1,68,90,0
1,68,0,128
1,68,0,0
1,68,0,0
1,68,127,256
1,71,127,0
1,71,0,128
1,68,0,0
1,68,127,64
1,71,127,0
1,71,0,128
1,68,0,0
1,68,127,64
1,71,127,0
1,71,0,128
1,68,0,0
1,68,127,256
1,71,127,0
1,71,0,128
1,68,0,0
1,72,127,64
1,69,127,0
1,72,127,192
1,69,127,0
1,69,90,0
1,72,90,0
1,72,0,128
1,69,0,0
1,72,0,0
1,72,0,0
1,69,0,0
1,69,0,0
1,64,127,64
1,64,0,128
1,66,127,64
1,66,0,128
1,64,127,64
1,64,0,128
1,66,127,64
1,66,0,128
1,64,127,64
1,64,0,128
1,66,127,64
1,66,0,128
1,64,127,64
1,64,0,128
1,66,127,64
1,66,0,128
1,67,127,64
1,67,0,128
1,68,127,64
1,71,127,0
1,71,0,128
1,68,0,0
1,68,127,64
1,71,127,0
1,71,0,128
1,68,0,0
1,68,127,64
1,71,127,0
1,71,0,128
1,68,0,0
1,68,127,256
1,71,127,0
1,71,0,128
1,68,0,0
1,72,127,64
1,69,127,0
1,72,127,192
1,69,127,0
1,69,90,0
1,72,90,0
1,72,0,1088
1,69,0,0
1,72,0,0
1,72,0,0
1,69,0,0
1,69,0,0
1,68,127,256
1,71,127,0
1,71,0,320
1,68,0,0
1,71,127,24640
1,71,0,128
1,69,127,64
1,69,0,256
1,67,127,128
1,67,0,128
1,66,127,64
1,66,0,128
1,62,127,63
1,64,127,1
1,62,0,255
1,64,0,1
1,68,127,127
1,68,0,256
1,68,127,128
1,68,0,256
1,68,127,128
1,71,127,0
1,71,0,256
1,68,0,0
1,68,127,128
1,71,127,0
1,71,0,128
1,68,0,0
1,69,127,64
1,72,127,0
1,69,95,192
1,72,95,0
1,69,127,0
1,72,127,0
1,69,90,0
1,72,90,0
1,72,0,128
1,69,0,0
1,69,0,0
1,72,0,0
1,69,0,0
1,72,0,0
1,72,0,0
1,69,0,0
1,64,127,64
1,64,0,128
1,66,127,64
1,66,0,128
1,64,127,64
1,64,0,128
1,66,127,64
1,66,0,128
1,64,127,256
1,64,0,128
1,68,127,64
1,68,95,192
1,68,127,0
1,68,90,0
1,68,0,128
1,68,0,0
1,68,0,0
1,68,0,0
1,68,127,256
1,71,127,0
1,71,0,128
1,68,0,0
1,68,127,64
1,71,127,0
1,71,0,128
1,68,0,0
1,68,127,64
1,71,127,0
1,71,0,128
1,68,0,0
1,68,127,256
1,71,127,0
1,71,0,128
1,68,0,0
1,72,127,64
1,69,127,0
1,69,95,192
1,72,95,0
1,72,127,0
1,69,127,0
1,69,90,0
1,72,90,0
1,72,0,128
1,72,0,0
1,72,0,0
1,69,0,0
1,69,0,0
1,72,0,0
1,69,0,0
1,69,0,0
1,64,127,64
1,64,0,128
1,66,127,64
1,66,0,128
1,64,127,64
1,64,0,128
1,66,127,64
1,66,0,128
1,64,127,64
1,64,0,128
1,66,127,64
1,66,0,128
1,64,127,64
1,64,0,128
1,66,127,64
1,66,0,128
1,67,127,64
1,67,0,128
1,68,127,64
1,71,127,0
1,71,0,128
1,68,0,0
1,68,127,64
1,71,127,0
1,71,0,128
1,68,0,0
1,68,127,64
1,71,127,0
1,71,0,128
1,68,0,0
1,68,127,256
1,71,127,0
1,71,0,128
1,68,0,0
1,72,127,64
1,69,127,0
1,69,95,192
1,72,95,0
1,72,127,0
1,69,127,0
1,69,90,0
1,72,90,0
1,72,0,1088
1,72,0,0
1,72,0,0
1,69,0,0
1,69,0,0
1,72,0,0
1,69,0,0
1,69,0,0
1,68,127,256
1,71,127,0
1,68,95,192
1,71,95,0
1,68,90,0
1,71,90,0
1,68,127,0
1,71,127,0
1,71,0,128
1,68,0,0
1,68,0,0
1,71,0,0
1,68,0,0
1,71,0,0
1,71,0,0
1,68,0,0
2,64,117,1344
2,59,117,0
2,52,117,0
2,52,0,448
2,59,0,0
2,64,0,0
2,64,117,704
2,59,117,0
2,52,117,0
2,52,0,128
2,59,0,0
2,64,0,0
2,55,117,64
2,50,117,0
2,50,0,128
2,55,117,64
2,62,117,0
2,67,117,0
2,55,0,128
2,55,0,320
2,62,0,0
2,67,0,0
2,67,117,704
2,62,117,0
2,55,117,0
2,55,0,128
2,62,0,0
2,67,0,0
2,55,117,64
2,50,117,0
2,50,0,128
2,55,0,0
2,62,117,64
2,57,117,0
2,50,117,0
2,50,0,448
2,57,0,0
2,62,0,0
2,62,117,704
2,57,117,0
2,50,117,0
2,50,0,128
2,57,0,0
2,62,0,0
2,55,117,64
2,50,117,0
2,50,0,128
2,55,0,0
2,45,117,64
2,52,117,0
2,57,117,0
2,57,0,448
2,52,0,0
2,45,0,0
2,57,117,704
2,52,117,0
2,45,117,0
2,45,0,128
2,52,0,0
2,57,0,0
2,55,117,64
2,50,117,0
2,43,117,0
2,43,0,128
2,50,0,0
2,55,0,0
2,64,117,64
2,59,117,0
2,52,117,0
2,52,0,448
2,59,0,0
2,64,0,0
2,64,117,608
2,59,117,0
2,52,117,0
2,52,0,128
2,59,0,0
2,64,0,0
2,55,117,64
2,50,117,0
2,50,0,128
2,55,0,0
2,67,117,64
2,62,117,0
2,55,117,0
2,55,0,8
2,62,0,0
2,67,0,0
2,67,117,480
2,62,117,0
2,55,117,0
2,55,0,128
2,62,0,0
2,67,0,0
2,55,117,64
2,50,117,0
2,50,0,128
2,55,0,0
2,62,117,64
2,57,117,0
2,50,117,0
2,50,0,448
2,57,0,0
2,62,0,0
2,62,117,704
2,57,117,0
2,50,117,0
2,50,0,128
2,57,0,0
2,62,0,0
2,55,117,64
2,50,117,0
2,50,0,128
2,55,0,0
2,57,117,16
2,52,117,0
2,45,117,0
2,45,0,24
2,52,0,0
2,57,0,0
2,57,117,704
2,52,117,0
2,45,117,0
2,45,0,128
2,52,0,0
2,57,0,0
2,55,117,64
2,50,117,0
2,43,117,0
2,43,0,128
2,50,0,0
2,55,0,0
2,68,117,64
2,64,117,0
2,59,117,0
2,52,117,0
2,68,0,128
2,64,0,320
2,59,0,0
2,52,0,0
2,64,117,704
2,59,117,0
2,52,117,0
2,52,0,128
2,59,0,0
2,64,0,0
2,55,117,64
2,50,117,0
2,50,0,128
2,55,0,0
2,62,117,64
2,55,117,0
2,67,117,0
2,67,0,448
2,55,0,0
2,62,0,0
2,67,117,704
2,62,117,0
2,55,117,0
2,55,0,128
2,62,0,0
2,67,0,0
2,55,117,64
2,50,117,0
2,50,0,128
2,55,0,0
2,62,117,64
2,57,117,0
2,50,117,0
2,50,0,448
2,57,0,0
2,62,0,0
2,62,117,704
2,57,117,0
2,50,117,0
2,50,0,128
2,57,0,0
2,62,0,0
2,55,117,64
2,50,117,0
2,50,0,128
2,55,0,0
2,52,117,64
2,45,117,0
2,57,117,0
2,57,0,448
2,45,0,0
2,52,0,0
2,57,117,704
2,52,117,0
2,45,117,0
2,45,0,128
2,52,0,0
2,57,0,0
2,55,117,64
2,50,117,0
2,43,117,0
2,43,0,128
2,50,0,0
2,55,0,0
2,64,117,64
2,59,117,0
2,52,117,0
2,52,0,448
2,59,0,0
2,64,0,0
2,64,117,704
2,59,117,0
2,52,117,0
2,52,0,128
2,59,0,0
2,64,0,0
2,50,117,64
2,55,117,0
2,55,0,128
2,50,0,0
2,67,117,64
2,62,117,0
2,55,117,0
2,55,0,448
2,62,0,0
2,67,0,0
2,59,117,704
2,59,0,128
2,60,117,64
2,60,0,128
2,71,117,256
2,67,117,0
