track,note,velocity,time
1,40,100,0
1,40,100,120
1,40,100,0
1,40,100,0
1,40,100,0
1,40,100,120
1,40,100,0
1,40,100,120
1,40,100,0
1,50,100,0
1,52,100,0
1,40,100,0
1,40,100,120
1,40,100,0
1,40,100,0
1,40,100,0
1,40,100,120
1,40,100,0
1,40,100,120
1,40,100,0
1,50,100,0
1,52,100,0
1,40,100,0
1,40,100,120
1,40,100,0
1,40,100,0
1,40,100,0
1,40,100,120
1,40,100,0
1,40,100,120
1,40,100,0
1,50,100,0
1,52,100,0
1,40,100,0
1,40,100,120
1,40,100,0
1,40,100,0
1,40,100,0
1,40,100,120
1,40,100,0
1,40,100,120
1,40,100,0
1,40,100,0
1,40,100,0
1,40,100,0
1,40,100,0
1,66,100,0
1,40,100,0
1,40,100,120
1,62,100,80
1,40,100,0
1,40,100,0
1,40,100,0
1,57,100,40
1,40,100,120
1,64,100,0
1,59,100,0
1,52,100,0
1,40,100,0
1,40,100,80
1,40,100,0
1,40,100,0
1,40,100,0
1,40,100,120
1,40,100,0
1,40,100,120
1,40,100,0
1,40,100,0
1,40,100,0
1,40,100,120
1,40,100,0
1,40,100,120
1,40,100,0
1,40,100,0
1,40,100,0
1,40,100,120
1,66,100,0
1,40,100,0
1,40,100,120
1,62,100,80
1,40,100,0
1,40,100,0
1,40,100,0
1,57,100,40
1,40,100,120
1,64,100,0
1,59,100,0
1,52,100,0
1,40,100,0
1,40,100,80
1,40,100,0
1,40,100,0
1,40,100,0
1,40,100,120
1,40,100,0
1,40,100,120
1,40,100,0
1,40,100,0
1,40,100,0
1,40,100,120
1,40,100,0
1,40,100,120
1,40,100,0
1,40,100,0
1,40,100,0
1,40,100,120
1,60,100,0
1,55,100,0
1,48,100,0
1,60,100,0
1,55,100,0
1,48,100,0
1,60,100,0
1,55,100,0
1,48,100,0
1,60,100,0
1,55,100,0
1,48,100,0
1,60,100,0
1,55,100,0
1,48,100,0
1,60,100,0
1,55,100,0
1,48,100,0
1,60,100,0
1,55,100,0
1,48,100,0
1,60,100,0
1,55,100,0
1,48,100,0
1,60,100,0
1,55,100,0
1,48,100,0
1,60,100,0
1,55,100,0
1,48,100,0
1,60,100,0
1,55,100,0
1,48,100,0
1,60,100,0
1,55,100,0
1,48,100,0
1,60,100,0
1,55,100,0
1,48,100,0
1,60,100,0
1,55,100,0
1,48,100,0
1,60,100,0
1,55,100,0
1,48,100,0
1,60,100,0
1,55,100,0
1,48,100,0
1,40,100,0
1,40,100,120
1,40,100,0
1,40,100,0
1,40,100,0
1,40,100,120
1,40,100,0
1,40,100,120
1,40,100,0
1,40,100,0
1,40,100,0
1,40,100,120
1,62,100,0
1,57,100,0
1,50,100,0
1,40,100,0
1,40,100,0
1,40,100,0
1,40,100,0
1,62,100,0
1,57,100,0
1,50,100,0
1,64,100,0
1,59,100,0
1,52,100,0
1,40,100,360
1,40,100,0
1,40,100,0
1,40,100,0
1,40,100,0
1,40,100,0
1,66,100,0
1,40,100,0
1,40,100,120
1,62,100,80
1,40,100,0
1,40,100,0
1,40,100,0
1,57,100,40
1,40,100,120
1,64,100,0
1,59,100,0
1,52,100,0
1,40,100,0
1,40,100,80
1,40,100,0
1,40,100,0
1,40,100,0
1,40,100,120
1,40,100,0
1,40,100,120
1,40,100,0
1,40,100,0
1,40,100,0
1,40,100,120
1,40,100,0
1,40,100,120
1,40,100,0
1,40,100,0
1,40,100,0
1,40,100,120
1,66,100,0
1,40,100,0
1,40,100,120
1,62,100,80
1,40,100,0
1,40,100,0
1,40,100,0
1,57,100,40
1,40,100,120
1,64,100,0
1,59,100,0
1,52,100,0
1,40,100,0
1,40,100,80
1,40,100,0
1,40,100,0
1,40,100,0
1,40,100,120
1,40,100,0
1,40,100,120
1,40,100,0
1,40,100,0
1,40,100,0
1,40,100,120
1,40,100,0
1,40,100,120
1,40,100,0
1,40,100,0
1,40,100,0
1,40,100,120
1,60,100,0
1,55,100,0
1,48,100,0
1,60,100,0
1,55,100,0
1,48,100,0
1,60,100,0
1,55,100,0
1,48,100,0
1,60,100,0
1,55,100,0
1,48,100,0
1,60,100,0
1,55,100,0
1,48,100,0
1,60,100,0
1,55,100,0
1,48,100,0
1,60,100,0
1,55,100,0
1,48,100,0
1,60,100,0
1,55,100,0
1,48,100,0
1,60,100,0
1,55,100,0
1,48,100,0
1,60,100,0
1,55,100,0
1,48,100,0
1,60,100,0
1,55,100,0
1,48,100,0
1,60,100,0
1,55,100,0
1,48,100,0
1,60,100,0
1,55,100,0
1,48,100,0
1,60,100,0
1,55,100,0
1,48,100,0
1,60,100,0
1,55,100,0
1,48,100,0
1,60,100,0
1,55,100,0
1,48,100,0
1,62,100,0
1,57,100,0
1,50,100,0
1,62,100,0
1,57,100,0
1,50,100,0
1,62,100,0
1,57,100,0
1,50,100,0
1,62,100,0
1,57,100,0
1,50,100,0
1,62,100,0
1,57,100,0
1,50,100,0
1,62,100,0
1,57,100,0
1,50,100,0
1,62,100,0
1,57,100,0
1,50,100,0
1,62,100,0
1,57,100,0
1,50,100,0
1,62,100,0
1,57,100,0
1,50,100,0
1,62,100,0
1,57,100,0
1,50,100,0
1,62,100,0
1,57,100,0
1,50,100,0
1,62,100,0
1,57,100,0
1,50,100,0
1,62,100,0
1,57,100,0
1,50,100,0
1,62,100,0
1,57,100,0
1,50,100,0
1,62,100,0
1,57,100,0
1,50,100,0
1,62,100,0
1,57,100,0
1,50,100,0
1,52,100,0
1,47,100,0
1,40,100,0
1,62,100,0
1,57,100,0
1,50,100,0
1,62,100,0
1,57,100,0
1,50,100,0
1,62,100,0
1,57,100,0
1,50,100,0
1,62,100,0
1,57,100,0
1,50,100,0
1,62,100,0
1,57,100,0
1,50,100,0
1,64,100,0
1,59,100,0
1,52,100,0
1,52,100,0
1,47,100,0
1,40,100,0
1,62,100,0
1,57,100,0
1,50,100,0
1,62,100,0
1,57,100,0
1,50,100,0
1,62,100,0
1,57,100,0
1,50,100,0
1,62,100,0
1,57,100,0
1,50,100,0
1,62,100,0
1,57,100,0
1,50,100,0
1,64,100,0
1,59,100,0
1,52,100,0
1,62,100,0
1,57,100,0
1,50,100,0
1,60,100,0
1,55,100,0
1,48,100,0
1,60,100,0
1,55,100,0
1,48,100,0
1,60,100,0
1,55,100,0
1,48,100,0
1,60,100,0
1,55,100,0
1,48,100,0
1,60,100,0
1,55,100,0
1,48,100,0
1,60,100,0
1,55,100,0
1,48,100,0
1,60,100,0
1,55,100,0
1,48,100,0
1,62,100,0
1,57,100,0
1,50,100,0
1,62,100,0
1,57,100,0
1,50,100,0
1,60,100,0
1,55,100,0
1,48,100,0
1,60,100,0
1,55,100,0
1,48,100,0
1,60,100,0
1,55,100,0
1,48,100,0
1,60,100,0
1,55,100,0
1,48,100,0
1,60,100,0
1,55,100,0
1,48,100,0
1,64,100,0
1,59,100,0
1,52,100,0
1,62,100,0
1,57,100,0
1,50,100,0
1,52,100,0
1,47,100,0
1,40,100,0
1,62,100,0
1,57,100,0
1,50,100,0
1,62,100,0
1,57,100,0
1,50,100,0
1,62,100,0
1,57,100,0
1,50,100,0
1,62,100,0
1,57,100,0
1,50,100,0
1,62,100,0
1,57,100,0
1,50,100,0
1,64,100,0
1,59,100,0
1,52,100,0
1,52,100,0
1,47,100,0
1,40,100,0
1,62,100,0
1,57,100,0
1,50,100,0
1,62,100,0
1,57,100,0
1,50,100,0
1,62,100,0
1,57,100,0
1,50,100,0
1,62,100,0
1,57,100,0
1,50,100,0
1,62,100,0
1,57,100,0
1,50,100,0
1,64,100,0
1,59,100,0
1,52,100,0
1,62,100,0
1,57,100,0
1,50,100,0
1,60,100,0
1,55,100,0
1,48,100,0
1,60,100,0
1,55,100,0
1,48,100,0
1,60,100,0
1,55,100,0
1,48,100,0
1,60,100,0
1,55,100,0
1,48,100,0
1,60,100,0
1,55,100,0
1,48,100,0
1,60,100,0
1,55,100,0
1,48,100,0
1,60,100,0
1,55,100,0
1,48,100,0
1,62,100,0
1,57,100,0
1,50,100,0
1,62,100,0
1,57,100,0
1,50,100,0
1,60,100,0
1,55,100,0
1,48,100,0
1,60,100,0
1,55,100,0
1,48,100,0
1,60,100,0
1,55,100,0
1,48,100,0
1,60,100,0
1,55,100,0
1,48,100,0
1,60,100,0
1,55,100,0
1,48,100,0
1,64,100,0
1,59,100,0
1,52,100,0
1,62,100,0
1,57,100,0
1,50,100,0
1,60,100,0
1,55,100,0
1,48,100,0
1,40,100,0
1,40,100,120
1,40,100,0
1,40,100,0
1,40,100,0
1,40,100,120
1,40,100,0
1,40,100,120
1,40,100,0
1,40,100,0
1,40,100,0
1,40,100,0
1,40,100,0
1,66,100,0
1,40,100,0
1,40,100,120
1,62,100,80
1,40,100,0
1,40,100,0
1,40,100,0
1,57,100,40
1,40,100,120
1,64,100,0
1,59,100,0
1,52,100,0
1,40,100,0
1,40,100,80
1,40,100,0
1,40,100,0
1,40,100,0
1,40,100,120
1,40,100,0
1,40,100,120
1,40,100,0
1,40,100,0
1,40,100,0
1,40,100,120
1,40,100,0
1,40,100,120
1,40,100,0
1,40,100,0
1,40,100,0
1,40,100,120
1,62,100,0
1,57,100,0
1,50,100,0
1,40,100,0
1,40,100,0
1,40,100,0
1,40,100,0
1,62,100,0
1,57,100,0
1,50,100,0
1,64,100,0
1,59,100,0
1,52,100,0
1,40,100,360
1,40,100,0
1,40,100,0
1,40,100,0
1,40,100,0
1,40,100,0
1,60,100,0
1,55,100,0
1,48,100,0
1,60,100,0
1,55,100,0
1,48,100,0
1,60,100,0
1,55,100,0
1,48,100,0
1,60,100,0
1,55,100,0
1,48,100,0
1,60,100,0
1,55,100,0
1,48,100,0
1,60,100,0
1,55,100,0
1,48,100,0
1,60,100,0
1,55,100,0
1,48,100,0
1,60,100,0
1,55,100,0
1,48,100,0
1,60,100,0
1,55,100,0
1,48,100,0
1,60,100,0
1,55,100,0
1,48,100,0
1,60,100,0
1,55,100,0
1,48,100,0
1,60,100,0
1,55,100,0
1,48,100,0
1,60,100,0
1,55,100,0
1,48,100,0
1,60,100,0
1,55,100,0
1,48,100,0
1,60,100,0
1,55,100,0
1,48,100,0
1,60,100,0
1,55,100,0
1,48,100,0
1,40,100,0
1,40,100,120
1,40,100,0
1,40,100,0
1,40,100,0
1,40,100,120
1,40,100,0
1,40,100,120
1,40,100,0
1,40,100,0
1,40,100,0
1,40,100,120
1,62,100,0
1,57,100,0
1,50,100,0
1,40,100,0
1,40,100,0
1,40,100,0
1,40,100,0
1,62,100,0
1,57,100,0
1,50,100,0
1,64,100,0
1,59,100,0
1,52,100,0
1,40,100,360
1,40,100,0
1,40,100,0
1,40,100,0
1,40,100,0
1,40,100,0
1,66,100,0
1,40,100,0
1,40,100,120
1,62,100,80
1,40,100,0
1,40,100,0
1,40,100,0
1,57,100,40
1,40,100,120
1,64,100,0
1,59,100,0
1,52,100,0
1,40,100,0
1,40,100,80
1,40,100,0
1,40,100,0
1,40,100,0
1,40,100,120
1,40,100,0
1,40,100,120
1,40,100,0
1,40,100,0
1,40,100,0
1,40,100,120
1,40,100,0
1,40,100,120
1,40,100,0
1,40,100,0
1,40,100,0
1,40,100,120
1,66,100,0
1,40,100,0
1,40,100,120
1,62,100,80
1,40,100,0
1,40,100,0
1,40,100,0
1,57,100,40
1,40,100,120
1,64,100,0
1,59,100,0
1,52,100,0
1,40,100,0
1,40,100,80
1,40,100,0
1,40,100,0
1,40,100,0
1,40,100,120
1,40,100,0
1,40,100,120
1,40,100,0
1,40,100,0
1,40,100,0
1,40,100,120
1,40,100,0
1,40,100,120
1,40,100,0
1,40,100,0
1,40,100,0
1,40,100,120
1,60,100,0
1,55,100,0
1,48,100,0
1,60,100,0
1,55,100,0
1,48,100,0
1,60,100,0
1,55,100,0
1,48,100,0
1,60,100,0
1,55,100,0
1,48,100,0
1,60,100,0
1,55,100,0
1,48,100,0
1,60,100,0
1,55,100,0
1,48,100,0
1,60,100,0
1,55,100,0
1,48,100,0
1,60,100,0
1,55,100,0
1,48,100,0
1,60,100,0
1,55,100,0
1,48,100,0
1,60,100,0
1,55,100,0
1,48,100,0
1,60,100,0
1,55,100,0
1,48,100,0
1,60,100,0
1,55,100,0
1,48,100,0
1,60,100,0
1,55,100,0
1,48,100,0
1,60,100,0
1,55,100,0
1,48,100,0
1,60,100,0
1,55,100,0
1,48,100,0
1,60,100,0
1,55,100,0
1,48,100,0
1,62,100,0
1,57,100,0
1,50,100,0
1,62,100,0
1,57,100,0
1,50,100,0
1,62,100,0
1,57,100,0
1,50,100,0
1,62,100,0
1,57,100,0
1,50,100,0
1,62,100,0
1,57,100,0
1,50,100,0
1,62,100,0
1,57,100,0
1,50,100,0
1,62,100,0
1,57,100,0
1,50,100,0
1,62,100,0
1,57,100,0
1,50,100,0
1,62,100,0
1,57,100,0
1,50,100,0
1,62,100,0
1,57,100,0
1,50,100,0
1,62,100,0
1,57,100,0
1,50,100,0
1,62,100,0
1,57,100,0
1,50,100,0
1,62,100,0
1,57,100,0
1,50,100,0
1,62,100,0
1,57,100,0
1,50,100,0
1,62,100,0
1,57,100,0
1,50,100,0
1,62,100,0
1,57,100,0
1,50,100,0
1,52,100,0
1,47,100,0
1,40,100,0
1,62,100,0
1,57,100,0
1,50,100,0
1,62,100,0
1,57,100,0
1,50,100,0
1,62,100,0
1,57,100,0
1,50,100,0
1,62,100,0
1,57,100,0
1,50,100,0
1,62,100,0
1,57,100,0
1,50,100,0
1,64,100,0
1,59,100,0
1,52,100,0
1,52,100,0
1,47,100,0
1,40,100,0
1,62,100,0
1,57,100,0
1,50,100,0
1,62,100,0
1,57,100,0
1,50,100,0
1,62,100,0
1,57,100,0
1,50,100,0
1,62,100,0
1,57,100,0
1,50,100,0
1,62,100,0
1,57,100,0
1,50,100,0
1,64,100,0
1,59,100,0
1,52,100,0
1,62,100,0
1,57,100,0
1,50,100,0
1,60,100,0
1,55,100,0
1,48,100,0
1,60,100,0
1,55,100,0
1,48,100,0
1,60,100,0
1,55,100,0
1,48,100,0
1,60,100,0
1,55,100,0
1,48,100,0
1,60,100,0
1,55,100,0
1,48,100,0
1,60,100,0
1,55,100,0
1,48,100,0
1,60,100,0
1,55,100,0
1,48,100,0
1,62,100,0
1,57,100,0
1,50,100,0
1,62,100,0
1,57,100,0
1,50,100,0
1,60,100,0
1,55,100,0
1,48,100,0
1,60,100,0
1,55,100,0
1,48,100,0
1,60,100,0
1,55,100,0
1,48,100,0
1,60,100,0
1,55,100,0
1,48,100,0
1,60,100,0
1,55,100,0
1,48,100,0
1,64,100,0
1,59,100,0
1,52,100,0
1,62,100,0
1,57,100,0
1,50,100,0
1,52,100,0
1,47,100,0
1,40,100,0
1,62,100,0
1,57,100,0
1,50,100,0
1,62,100,0
1,57,100,0
1,50,100,0
1,62,100,0
1,57,100,0
1,50,100,0
1,62,100,0
1,57,100,0
1,50,100,0
1,62,100,0
1,57,100,0
1,50,100,0
1,64,100,0
1,59,100,0
1,52,100,0
1,52,100,0
1,47,100,0
1,40,100,0
1,62,100,0
1,57,100,0
1,50,100,0
1,62,100,0
1,57,100,0
1,50,100,0
1,62,100,0
1,57,100,0
1,50,100,0
1,62,100,0
1,57,100,0
1,50,100,0
1,62,100,0
1,57,100,0
1,50,100,0
1,64,100,0
1,59,100,0
1,52,100,0
1,62,100,0
1,57,100,0
1,50,100,0
1,60,100,0
1,55,100,0
1,48,100,0
1,60,100,0
1,55,100,0
1,48,100,0
1,60,100,0
1,55,100,0
1,48,100,0
1,60,100,0
1,55,100,0
1,48,100,0
1,60,100,0
1,55,100,0
1,48,100,0
1,60,100,0
1,55,100,0
1,48,100,0
1,60,100,0
1,55,100,0
1,48,100,0
1,62,100,0
1,57,100,0
1,50,100,0
1,62,100,0
1,57,100,0
1,50,100,0
1,60,100,0
1,55,100,0
1,48,100,0
1,60,100,0
1,55,100,0
1,48,100,0
1,60,100,0
1,55,100,0
