track,note,velocity,time
0,47,127,0
0,47,127,0
0,36,127,0
0,35,127,0
0,52,127,0
0,47,127,32
0,47,127,32
0,59,127,0
0,52,127,0
0,47,127,32
0,47,127,32
0,47,127,0
0,36,127,0
0,35,127,0
0,52,127,0
0,47,127,32
0,47,127,32
0,59,127,0
0,52,127,0
0,47,127,32
0,47,127,0
0,47,127,32
0,47,127,0
0,36,127,0
0,35,127,0
0,52,127,0
0,47,127,32
0,47,127,32
0,59,127,0
0,52,127,0
0,47,127,32
0,47,127,32
0,36,127,0
0,35,127,0
0,52,127,0
0,47,127,32
0,47,127,32
0,52,127,0
0,47,127,32
0,47,127,32
0,47,127,0
0,36,127,0
0,35,127,0
0,52,127,0
0,47,127,32
0,47,127,32
0,59,127,0
0,52,127,0
0,47,127,32
0,47,127,32
0,36,127,0
0,35,127,0
0,52,127,0
0,47,127,32
0,47,127,32
0,52,127,0
0,47,127,32
0,47,127,0
0,47,127,32
0,47,127,0
0,36,127,0
0,35,127,0
0,52,127,0
0,47,127,32
0,47,127,32
0,59,127,0
0,52,127,0
0,47,127,32
0,47,127,32
0,36,127,0
0,35,127,0
0,52,127,0
0,47,127,32
0,47,127,32
0,52,127,0
0,47,127,32
0,47,127,32
0,47,127,0
0,36,127,0
0,35,127,0
0,52,127,0
0,47,127,32
0,47,127,32
0,59,127,0
0,52,127,0
0,47,127,32
0,47,127,32
0,47,127,0
0,36,127,0
0,35,127,0
0,52,127,0
0,47,127,32
0,47,127,32
0,59,127,0
0,52,127,0
0,47,127,32
0,47,127,0
0,47,127,32
0,47,127,0
0,36,127,0
0,35,127,0
0,52,127,0
0,47,127,32
0,47,127,32
0,59,127,0
0,52,127,0
0,47,127,32
0,47,127,32
0,36,127,0
0,35,127,0
0,52,127,0
0,47,127,32
0,47,127,32
0,52,127,0
0,47,127,32
0,47,127,32
0,47,127,0
0,36,127,0
0,35,127,0
0,47,127,32
0,47,127,32
0,59,127,0
0,43,127,0
0,47,127,32
0,43,127,0
0,47,127,32
0,35,127,0
0,36,127,0
0,43,127,0
0,47,127,32
0,43,127,0
0,47,127,32
0,45,127,0
0,47,127,32
0,47,127,0
0,45,127,0
0,47,127,32
0,47,127,0
0,35,127,0
0,36,127,0
0,45,127,0
0,47,127,32
0,45,127,0
0,47,127,32
0,59,127,0
0,41,127,0
0,47,127,32
0,41,127,0
0,47,127,32
0,35,127,0
0,36,127,0
0,41,127,0
0,47,127,32
0,41,127,0
0,47,127,32
0,41,127,0
0,47,127,32
0,41,127,0
0,47,127,32
0,47,127,0
0,36,127,0
0,35,127,0
0,52,127,0
0,47,127,32
0,47,127,32
0,59,127,0
0,52,127,0
0,47,127,32
0,47,127,32
0,47,127,0
0,81,75,0
0,76,75,0
0,36,127,0
0,35,127,0
0,52,127,0
0,40,127,0
0,38,127,0
0,47,127,32
0,47,127,32
0,59,127,0
0,52,127,0
0,47,127,32
0,47,127,0
0,47,127,32
0,47,127,0
0,79,75,0
0,76,75,0
0,36,127,0
0,35,127,0
0,52,127,0
0,47,127,32
0,47,127,32
0,59,127,0
0,52,127,0
0,47,127,32
0,47,127,32
0,36,127,0
0,35,127,0
0,52,127,0
0,40,127,0
0,38,127,0
0,47,127,32
0,47,127,32
0,81,75,0
0,76,75,0
0,52,127,0
0,47,127,32
0,47,127,32
0,47,127,0
0,36,127,0
0,35,127,0
0,52,127,0
0,47,127,32
0,47,127,32
0,59,127,0
0,81,75,0
0,76,75,0
0,52,127,0
0,47,127,32
0,47,127,32
0,79,75,0
0,76,75,0
0,36,127,0
0,35,127,0
0,52,127,0
0,40,127,0
0,38,127,0
0,47,127,32
0,47,127,32
0,52,127,0
0,47,127,32
0,47,127,0
0,47,127,32
0,47,127,0
0,79,75,0
0,76,75,0
0,36,127,0
0,35,127,0
0,52,127,0
0,47,127,32
0,47,127,32
0,59,127,0
0,52,127,0
0,47,127,32
0,47,127,32
0,36,127,0
0,35,127,0
0,52,127,0
0,40,127,0
0,38,127,0
0,47,127,32
0,47,127,32
0,52,127,0
0,47,127,32
0,47,127,32
0,47,127,0
0,36,127,0
0,35,127,0
0,52,127,0
0,47,127,32
0,47,127,32
0,59,127,0
0,52,127,0
0,47,127,32
0,47,127,32
0,47,127,0
0,74,75,0
0,69,75,0
0,36,127,0
0,35,127,0
0,52,127,0
0,40,127,0
0,38,127,0
0,47,127,32
0,47,127,32
0,59,127,0
0,52,127,0
0,47,127,32
0,47,127,0
0,47,127,32
0,47,127,0
0,72,75,0
0,69,75,0
0,36,127,0
0,35,127,0
0,52,127,0
0,47,127,32
0,47,127,32
0,59,127,0
0,52,127,0
0,47,127,32
0,47,127,32
0,36,127,0
0,35,127,0
0,52,127,0
0,40,127,0
0,38,127,0
0,47,127,32
0,47,127,32
0,79,75,0
0,76,75,0
0,71,75,0
0,52,127,0
0,47,127,32
0,47,127,32
0,47,127,0
0,36,127,0
0,35,127,0
0,52,127,0
0,47,127,32
0,47,127,32
0,59,127,0
0,79,75,0
0,76,75,0
0,71,75,0
0,52,127,0
0,47,127,32
0,47,127,32
0,78,75,0
0,74,75,0
0,36,127,0
0,35,127,0
0,52,127,0
0,40,127,0
0,38,127,0
0,47,127,32
0,47,127,0
0,78,127,0
0,52,127,0
0,47,127,32
0,47,127,0
0,47,127,0
0,47,127,0
0,78,75,0
0,74,75,0
0,78,127,0
0,36,127,0
0,35,127,0
0,52,127,0
0,47,127,32
0,47,127,32
0,59,127,0
0,52,127,0
0,47,127,32
0,47,127,0
0,79,127,0
0,36,127,0
0,35,127,0
0,52,127,0
0,40,127,0
0,38,127,0
0,47,127,32
0,47,127,0
0,76,127,0
0,52,127,0
0,47,127,32
0,47,127,32
0,47,127,0
0,78,127,0
0,36,127,0
0,35,127,0
0,52,127,0
0,47,127,32
0,76,127,0
0,47,127,32
0,59,127,0
0,78,127,0
0,52,127,0
0,47,127,32
0,76,127,0
0,47,127,32
0,47,127,0
0,81,75,0
0,76,75,0
0,76,127,0
0,36,127,0
0,35,127,0
0,52,127,0
0,40,127,0
0,38,127,0
0,47,127,32
0,47,127,32
0,59,127,0
0,52,127,0
0,47,127,32
0,47,127,0
0,47,127,32
0,47,127,0
0,79,75,0
0,76,75,0
0,36,127,0
0,35,127,0
0,52,127,0
0,47,127,32
0,47,127,32
0,59,127,0
0,52,127,0
0,47,127,32
0,47,127,32
0,36,127,0
0,35,127,0
0,52,127,0
0,40,127,0
0,38,127,0
0,47,127,32
0,47,127,32
0,81,75,0
0,76,75,0
0,52,127,0
0,47,127,32
0,47,127,32
0,47,127,0
0,36,127,0
0,35,127,0
0,52,127,0
0,47,127,32
0,47,127,32
0,59,127,0
0,81,75,0
0,76,75,0
0,52,127,0
0,47,127,32
0,47,127,32
0,79,75,0
0,76,75,0
0,36,127,0
0,35,127,0
0,52,127,0
0,40,127,0
0,38,127,0
0,47,127,32
0,47,127,32
0,52,127,0
0,47,127,32
0,47,127,0
0,47,127,32
0,47,127,0
0,76,127,0
0,36,127,0
0,35,127,0
0,52,127,0
0,47,127,32
0,74,127,0
0,47,127,32
0,59,127,0
0,71,127,0
0,52,127,0
0,47,127,32
0,71,127,0
0,47,127,32
0,69,127,0
0,36,127,0
0,35,127,0
0,52,127,0
0,40,127,0
0,38,127,0
0,47,127,32
0,67,127,0
0,47,127,32
0,64,127,0
0,52,127,0
0,47,127,32
0,47,127,32
0,47,127,0
0,67,127,0
0,36,127,0
0,35,127,0
0,52,127,0
0,47,127,32
0,69,127,0
0,47,127,32
0,59,127,0
0,52,127,0
0,47,127,32
0,47,127,32
0,47,127,0
0,74,75,0
0,69,75,0
0,69,127,0
0,36,127,0
0,35,127,0
0,52,127,0
0,40,127,0
0,38,127,0
0,47,127,32
0,47,127,32
0,59,127,0
0,52,127,0
0,47,127,32
0,47,127,0
0,47,127,32
0,47,127,0
0,72,75,0
0,69,75,0
0,69,127,0
0,36,127,0
0,35,127,0
0,52,127,0
0,47,127,32
0,47,127,32
0,59,127,0
0,74,127,0
0,52,127,0
0,47,127,32
0,47,127,32
0,36,127,0
0,35,127,0
0,52,127,0
0,40,127,0
0,38,127,0
0,47,127,32
0,47,127,32
0,79,75,0
0,76,75,0
0,71,75,0
0,52,127,0
0,47,127,32
0,47,127,32
0,47,127,0
0,87,127,0
0,36,127,0
0,35,127,0
0,52,127,0
0,47,127,32
0,47,127,32
0,59,127,0
0,86,127,0
0,52,127,0
0,47,127,32
0,83,127,0
0,47,127,32
0,79,75,0
0,76,75,0
0,71,75,0
0,83,127,0
0,36,127,0
0,35,127,0
0,52,127,0
0,40,127,0
0,38,127,0
0,47,127,32
0,47,127,32
0,77,75,0
0,74,75,0
0,81,127,0
0,52,127,0
0,47,127,32
0,47,127,0
0,79,127,0
0,47,127,32
0,47,127,0
0,81,127,0
0,36,127,0
0,35,127,0
0,52,127,0
0,47,127,32
0,47,127,32
0,59,127,0
0,82,127,0
0,52,127,0
0,47,127,32
0,81,127,0
0,47,127,32
0,76,127,0
0,36,127,0
0,35,127,0
0,52,127,0
0,40,127,0
0,38,127,0
0,47,127,32
0,47,127,32
0,74,127,0
0,52,127,0
0,40,127,0
0,38,127,0
0,36,127,0
0,35,127,0
0,45,127,0
0,43,127,0
0,41,127,0
0,47,127,32
0,40,127,0
0,38,127,0
0,36,127,0
0,35,127,0
0,45,127,0
0,43,127,0
0,41,127,0
0,47,127,32
0,47,127,0
0,74,127,0
0,76,127,0
0,36,127,0
0,35,127,0
0,52,127,0
0,47,127,32
0,76,127,0
0,47,127,32
0,59,127,0
0,52,127,0
0,47,127,32
0,47,127,0
0,47,127,0
0,81,75,0
0,76,75,0
0,78,127,0
0,36,127,0
0,35,127,0
0,52,127,0
0,40,127,0
0,38,127,0
0,47,127,32
0,47,127,32
0,59,127,0
0,52,127,0
0,47,127,32
0,47,127,0
0,47,127,0
0,47,127,0
0,79,75,0
0,76,75,0
0,79,127,0
0,36,127,0
0,35,127,0
0,52,127,0
0,47,127,32
0,47,127,32
0,59,127,0
0,52,127,0
0,47,127,32
0,47,127,0
0,81,127,0
0,36,127,0
0,35,127,0
0,52,127,0
0,40,127,0
0,38,127,0
0,47,127,32
0,47,127,0
0,81,75,0
0,76,75,0
0,83,127,0
0,52,127,0
0,47,127,32
0,47,127,32
0,47,127,0
0,36,127,0
0,35,127,0
0,52,127,0
0,47,127,32
0,47,127,0
0,59,127,0
0,81,75,0
0,76,75,0
0,83,127,0
0,52,127,0
0,47,127,32
0,47,127,0
0,79,75,0
0,76,75,0
0,81,127,0
0,36,127,0
0,35,127,0
0,52,127,0
0,40,127,0
0,38,127,0
0,47,127,32
0,47,127,0
0,79,127,0
0,52,127,0
0,47,127,32
0,47,127,0
0,47,127,0
0,47,127,0
0,79,75,0
0,76,75,0
0,79,127,0
0,36,127,0
0,35,127,0
0,52,127,0
0,47,127,32
0,47,127,32
0,59,127,0
0,52,127,0
0,47,127,32
0,47,127,0
0,78,127,0
0,36,127,0
0,35,127,0
0,52,127,0
0,40,127,0
0,38,127,0
0,47,127,32
0,47,127,32
0,52,127,0
0,47,127,32
0,47,127,0
0,47,127,0
0,76,127,0
0,36,127,0
0,35,127,0
0,52,127,0
0,47,127,32
0,47,127,32
0,59,127,0
0,52,127,0
0,47,127,32
0,47,127,0
0,47,127,0
0,74,75,0
0,69,75,0
0,78,127,0
0,36,127,0
0,35,127,0
0,52,127,0
0,40,127,0
0,38,127,0
0,47,127,32
0,47,127,32
0,59,127,0
0,52,127,0
0,47,127,32
0,47,127,0
0,47,127,0
0,47,127,0
0,72,75,0
0,69,75,0
0,79,127,0
0,36,127,0
0,35,127,0
0,52,127,0
0,47,127,32
0,47,127,32
0,59,127,0
0,52,127,0
0,47,127,32
0,47,127,0
0,81,127,0
0,36,127,0
0,35,127,0
0,52,127,0
0,40,127,0
0,38,127,0
0,47,127,32
0,47,127,0
0,74,75,0
0,69,75,0
0,83,127,0
0,52,127,0
0,47,127,32
0,47,127,32
0,47,127,0
0,36,127,0
0,35,127,0
0,52,127,0
0,47,127,32
0,47,127,0
0,59,127,0
0,74,75,0
0,69,75,0
0,83,127,0
0,52,127,0
0,47,127,32
0,47,127,0
0,72,75,0
0,69,75,0
0,81,127,0
0,36,127,0
0,35,127,0
0,52,127,0
0,40,127,0
0,38,127,0
0,47,127,32
0,47,127,32
0,52,127,0
0,47,127,32
0,47,127,0
0,47,127,32
0,47,127,0
0,72,75,0
0,69,75,0
0,36,127,0
0,35,127,0
0,52,127,0
0,47,127,32
0,47,127,32
0,59,127,0
0,52,127,0
0,47,127,32
0,47,127,32
0,36,127,0
0,35,127,0
0,52,127,0
0,40,127,0
0,38,127,0
0,47,127,32
0,47,127,32
0,52,127,0
0,40,127,0
0,38,127,0
0,36,127,0
0,35,127,0
0,45,127,0
0,43,127,0
0,41,127,0
0,47,127,32
0,40,127,0
0,38,127,0
0,36,127,0
0,35,127,0
0,45,127,0
0,43,127,0
0,41,127,0
0,47,127,0
0,47,127,0
0,76,127,0
0,36,127,0
0,35,127,0
0,52,127,0
0,47,127,32
0,47,127,32
0,59,127,0
0,52,127,0
0,47,127,32
0,47,127,0
0,47,127,0
0,81,75,0
0,76,75,0
0,78,127,0
0,36,127,0
0,35,127,0
0,52,127,0
0,40,127,0
0,38,127,0
0,47,127,32
0,47,127,32
0,59,127,0
0,52,127,0
0,47,127,32
0,47,127,0
0,47,127,0
0,47,127,0
0,79,75,0
0,76,75,0
0,79,127,0
0,36,127,0
0,35,127,0
0,52,127,0
0,47,127,32
0,47,127,32
0,59,127,0
0,52,127,0
0,47,127,32
0,47,127,0
0,81,127,0
0,36,127,0
0,35,127,0
0,52,127,0
0,40,127,0
0,38,127,0
0,47,127,32
0,47,127,0
0,81,75,0
0,76,75,0
0,83,127,0
0,52,127,0
0,47,127,32
0,47,127,0
0,47,127,0
0,83,127,0
0,36,127,0
0,35,127,0
0,52,127,0
0,47,127,32
0,47,127,0
0,59,127,0
0,81,75,0
0,76,75,0
0,83,127,0
0,52,127,0
0,47,127,32
0,47,127,0
0,79,75,0
0,76,75,0
0,81,127,0
0,36,127,0
0,35,127,0
0,52,127,0
0,40,127,0
0,38,127,0
0,47,127,32
0,47,127,0
0,79,127,0
0,52,127,0
0,47,127,32
0,47,127,0
0,47,127,0
0,47,127,0
0,79,75,0
0,76,75,0
0,79,127,0
0,36,127,0
0,35,127,0
0,52,127,0
0,47,127,32
0,47,127,32
0,59,127,0
0,52,127,0
0,47,127,32
0,47,127,32
0,78,127,0
0,36,127,0
0,35,127,0
0,52,127,0
0,40,127,0
0,38,127,0
0,47,127,32
0,47,127,32
0,52,127,0
0,47,127,32
0,47,127,0
0,47,127,0
0,76,127,0
0,36,127,0
0,35,127,0
0,52,127,0
0,47,127,32
0,47,127,32
0,59,127,0
0,52,127,0
0,47,127,32
0,47,127,0
0,47,127,0
0,74,75,0
0,69,75,0
0,78,127,0
0,36,127,0
0,35,127,0
0,52,127,0
0,40,127,0
0,38,127,0
0,47,127,32
0,47,127,32
0,59,127,0
0,52,127,0
0,47,127,32
0,47,127,0
0,47,127,0
0,47,127,0
0,76,75,0
0,72,75,0
0,69,75,0
0,79,127,0
0,36,127,0
0,35,127,0
0,52,127,0
0,47,127,32
0,47,127,32
0,59,127,0
0,52,127,0
0,47,127,32
0,47,127,0
0,81,127,0
0,36,127,0
0,35,127,0
0,52,127,0
0,40,127,0
0,38,127,0
0,47,127,32
0,47,127,0
0,79,75,0
0,76,75,0
0,71,75,0
0,83,127,0
0,52,127,0
0,47,127,32
0,47,127,32
0,47,127,0
0,36,127,0
0,35,127,0
0,52,127,0
0,47,127,32
0,47,127,0
0,59,127,0
0,79,75,0
0,76,75,0
0,71,75,0
0,83,127,0
0,52,127,0
0,47,127,32
0,47,127,0
0,77,75,0
0,74,75,0
0,81,127,0
0,36,127,0
0,35,127,0
0,52,127,0
0,40,127,0
0,38,127,0
0,47,127,32
