track,note,velocity,time
4,40,100,0
4,47,100,0
4,40,100,0
4,45,100,0
4,40,100,0
4,47,100,0
4,40,100,0
4,47,100,0
4,40,100,0
4,43,100,0
4,45,100,0
4,40,100,0
4,47,100,0
4,40,100,0
4,43,100,0
4,40,100,0
4,45,100,0
4,40,100,0
4,45,100,0
4,40,100,0
4,43,100,0
4,45,100,0
4,40,100,0
4,47,100,0
4,40,100,0
4,45,100,0
4,40,100,0
4,47,100,0
4,40,100,0
4,47,100,0
4,40,100,0
4,43,100,0
4,45,100,0
4,40,100,0
4,47,100,0
4,40,100,0
4,43,100,0
4,40,100,0
4,45,100,0
4,40,100,0
4,45,100,0
4,40,100,0
4,43,100,0
4,45,100,0
4,40,100,0
4,47,100,0
4,40,100,0
4,45,100,0
4,40,100,0
4,47,100,0
4,40,100,0
4,47,100,0
4,40,100,0
4,62,100,0
4,55,100,0
4,50,100,0
4,43,100,0
4,62,100,0
4,57,100,0
4,50,100,0
4,52,100,0
4,47,100,0
4,40,100,0
4,52,100,0
4,47,100,0
4,40,100,0
4,43,100,0
4,57,100,0
4,52,100,0
4,45,100,0
4,57,100,0
4,52,100,0
4,45,100,0
4,43,100,0
4,57,100,0
4,52,100,0
4,45,100,0
4,45,100,480
4,52,100,0
4,57,100,0
4,43,100,96
4,45,100,80
4,52,100,0
4,57,100,0
4,43,100,0
4,52,100,0
4,47,100,0
4,40,100,0
4,52,100,0
4,47,100,0
4,40,100,0
4,43,100,0
4,47,100,0
4,40,100,0
4,52,100,0
4,52,100,480
4,47,100,0
4,40,100,0
4,40,100,96
4,52,100,80
4,47,100,0
4,40,100,0
4,43,100,0
4,57,100,0
4,52,100,0
4,45,100,0
4,57,100,0
4,52,100,0
4,45,100,0
4,43,100,0
4,57,100,0
4,52,100,0
4,45,100,0
4,45,100,480
4,52,100,0
4,57,100,0
4,43,100,96
4,45,100,80
4,52,100,0
4,57,100,0
4,43,100,0
4,54,100,0
4,47,100,0
4,54,100,0
4,47,100,0
4,54,100,0
4,45,100,0
4,54,100,0
4,47,100,0
4,54,100,0
4,47,100,0
4,54,100,0
4,45,100,0
4,54,100,0
4,47,100,0
4,52,100,288
4,47,100,0
4,40,100,0
4,43,100,0
4,57,100,0
4,52,100,0
4,45,100,0
4,57,100,0
4,52,100,0
4,45,100,0
4,43,100,0
4,57,100,0
4,52,100,0
4,45,100,0
4,45,100,480
4,52,100,0
4,57,100,0
4,43,100,96
4,45,100,80
4,52,100,0
4,57,100,0
4,43,100,0
4,52,100,0
4,47,100,0
4,40,100,0
4,52,100,0
4,47,100,0
4,40,100,0
4,43,100,0
4,47,100,0
4,40,100,0
4,52,100,0
4,52,100,480
4,47,100,0
4,40,100,0
4,40,100,96
4,52,100,80
4,47,100,0
4,40,100,0
4,43,100,0
4,57,100,0
4,52,100,0
4,45,100,0
4,57,100,0
4,52,100,0
4,45,100,0
4,43,100,0
4,57,100,0
4,52,100,0
4,45,100,0
4,45,100,480
4,52,100,0
4,57,100,0
4,43,100,96
4,45,100,80
4,52,100,0
4,57,100,0
4,43,100,0
4,59,100,0
4,54,100,0
4,47,100,0
4,57,100,0
4,52,100,0
4,45,100,0
4,55,100,0
4,50,100,0
4,43,100,0
4,49,100,0
4,54,100,0
4,42,100,0
4,40,100,0
4,47,100,0
4,40,100,0
4,45,100,0
4,40,100,0
4,47,100,0
4,40,100,0
4,47,100,0
4,40,100,0
4,43,100,0
4,45,100,0
4,40,100,0
4,47,100,0
4,40,100,0
4,43,100,0
4,40,100,0
4,45,100,0
4,40,100,0
4,45,100,0
4,40,100,0
4,43,100,0
4,45,100,0
4,40,100,0
4,47,100,0
4,40,100,0
4,45,100,0
4,40,100,0
4,47,100,0
4,40,100,0
4,47,100,0
4,40,100,0
4,62,100,0
4,55,100,0
4,50,100,0
4,43,100,0
4,62,100,0
4,57,100,0
4,50,100,0
4,52,100,0
4,47,100,0
4,40,100,0
4,52,100,0
4,47,100,0
4,40,100,0
4,43,100,0
4,57,100,0
4,52,100,0
4,45,100,0
4,57,100,0
4,52,100,0
4,45,100,0
4,43,100,0
4,57,100,0
4,52,100,0
4,45,100,0
4,45,100,480
4,52,100,0
4,57,100,0
4,43,100,96
4,45,100,80
4,52,100,0
4,57,100,0
4,43,100,0
4,52,100,0
4,47,100,0
4,40,100,0
4,52,100,0
4,47,100,0
4,40,100,0
4,43,100,0
4,47,100,0
4,40,100,0
4,52,100,0
4,52,100,480
4,47,100,0
4,40,100,0
4,40,100,96
4,52,100,80
4,47,100,0
4,40,100,0
4,43,100,0
4,57,100,0
4,52,100,0
4,45,100,0
4,57,100,0
4,52,100,0
4,45,100,0
4,43,100,0
4,57,100,0
4,52,100,0
4,45,100,0
4,45,100,480
4,52,100,0
4,57,100,0
4,43,100,96
4,45,100,80
4,52,100,0
4,57,100,0
4,43,100,0
4,54,100,0
4,47,100,0
4,54,100,0
4,47,100,0
4,54,100,0
4,45,100,0
4,54,100,0
4,47,100,0
4,54,100,0
4,47,100,0
4,54,100,0
4,45,100,0
4,54,100,0
4,47,100,0
4,52,100,288
4,47,100,0
4,40,100,0
4,43,100,0
4,57,100,0
4,52,100,0
4,45,100,0
4,57,100,0
4,52,100,0
4,45,100,0
4,43,100,0
4,57,100,0
4,52,100,0
4,45,100,0
4,45,100,480
4,52,100,0
4,57,100,0
4,43,100,96
4,45,100,80
4,52,100,0
4,57,100,0
4,43,100,0
4,52,100,0
4,47,100,0
4,40,100,0
4,52,100,0
4,47,100,0
4,40,100,0
4,43,100,0
4,47,100,0
4,40,100,0
4,52,100,0
4,52,100,480
4,47,100,0
4,40,100,0
4,40,100,96
4,52,100,80
4,47,100,0
4,40,100,0
4,43,100,0
4,57,100,0
4,52,100,0
4,45,100,0
4,57,100,0
4,52,100,0
4,45,100,0
4,43,100,0
4,57,100,0
4,52,100,0
4,45,100,0
4,45,100,480
4,52,100,0
4,57,100,0
4,43,100,96
4,45,100,80
4,52,100,0
4,57,100,0
4,43,100,0
4,59,100,0
4,54,100,0
4,47,100,0
4,57,100,0
4,52,100,0
4,45,100,0
4,55,100,0
4,50,100,0
4,43,100,0
4,49,100,0
4,54,100,0
4,42,100,0
4,40,100,0
4,47,100,0
4,40,100,0
4,45,100,0
4,40,100,0
4,47,100,0
4,40,100,0
4,47,100,0
4,40,100,0
4,43,100,0
4,45,100,0
4,40,100,0
4,47,100,0
4,40,100,0
4,43,100,0
4,40,100,0
4,45,100,0
4,40,100,0
4,45,100,0
4,40,100,0
4,43,100,0
4,45,100,0
4,40,100,0
4,47,100,0
4,40,100,0
4,45,100,0
4,40,100,0
4,47,100,0
4,40,100,0
4,47,100,0
4,40,100,0
4,43,100,0
4,45,100,0
4,40,100,0
4,47,100,0
4,40,100,0
4,43,100,0
4,40,100,0
4,45,100,0
4,40,100,0
4,45,100,0
4,40,100,0
4,43,100,0
4,45,100,0
4,40,100,0
4,47,100,0
4,40,100,0
4,45,100,0
4,40,100,0
4,47,100,0
4,40,100,0
4,47,100,0
4,40,100,0
4,43,100,0
4,45,100,0
4,40,100,0
4,47,100,0
4,40,100,0
4,43,100,0
4,40,100,0
4,45,100,0
4,40,100,0
4,45,100,0
4,40,100,0
4,43,100,0
4,45,100,0
4,40,100,0
4,47,100,0
4,40,100,0
4,45,100,0
4,40,100,0
4,47,100,0
4,40,100,0
4,47,100,0
4,40,100,0
4,43,100,0
4,45,100,0
4,40,100,0
4,47,100,0
4,40,100,0
4,43,100,0
4,40,100,0
4,45,100,0
4,40,100,0
4,45,100,0
4,40,100,0
4,43,100,0
4,45,100,0
4,40,100,0
4,57,100,0
4,52,100,0
4,45,100,0
4,43,100,0
4,50,100,0
4,55,100,0
4,53,100,0
4,48,100,0
4,41,100,0
4,52,100,0
4,47,100,0
4,40,100,0
4,52,100,0
4,59,100,0
4,64,100,0
4,57,100,0
4,52,100,0
4,45,100,0
4,53,100,0
4,60,100,0
4,65,100,0
4,58,100,0
4,53,100,0
4,46,100,0
4,54,100,0
4,61,100,0
4,66,100,0
4,59,100,0
4,54,100,0
4,47,100,0
4,40,100,0
4,47,100,0
4,40,100,0
4,45,100,0
4,40,100,0
4,47,100,0
4,40,100,0
4,47,100,0
4,40,100,0
4,43,100,0
4,45,100,0
4,40,100,0
4,47,100,0
4,40,100,0
4,43,100,0
4,40,100,0
4,45,100,0
4,40,100,0
4,45,100,0
4,40,100,0
4,43,100,0
4,45,100,0
4,40,100,0
4,47,100,0
4,40,100,0
4,45,100,0
4,40,100,0
4,47,100,0
4,40,100,0
4,47,100,0
4,40,100,0
4,43,100,0
4,45,100,0
4,40,100,0
4,47,100,0
4,40,100,0
4,43,100,0
4,40,100,0
4,45,100,0
4,40,100,0
4,45,100,0
4,40,100,0
4,43,100,0
4,45,100,0
4,40,100,0
4,47,100,0
4,40,100,0
4,45,100,0
4,40,100,0
4,47,100,0
4,40,100,0
4,47,100,0
4,40,100,0
4,43,100,0
4,45,100,0
4,40,100,0
4,47,100,0
4,40,100,0
4,43,100,0
4,40,100,0
4,45,100,0
4,40,100,0
4,45,100,0
4,40,100,0
4,43,100,0
4,45,100,0
4,40,100,0
4,47,100,0
4,40,100,0
4,45,100,0
4,40,100,0
4,47,100,0
4,40,100,0
4,47,100,0
4,40,100,0
4,43,100,0
4,45,100,0
4,40,100,0
4,47,100,0
4,40,100,0
4,43,100,0
4,40,100,0
4,45,100,0
4,40,100,0
4,45,100,0
4,40,100,0
4,43,100,0
4,45,100,0
4,40,100,0
4,47,100,0
4,40,100,0
4,45,100,0
4,40,100,0
4,47,100,0
4,40,100,0
4,47,100,0
4,40,100,0
4,43,100,0
4,45,100,0
4,40,100,0
4,47,100,0
4,40,100,0
4,43,100,0
4,40,100,0
4,45,100,0
4,40,100,0
4,45,100,0
4,40,100,0
4,43,100,0
4,45,100,0
4,40,100,0
4,47,100,0
4,40,100,0
4,45,100,0
4,40,100,0
4,47,100,0
4,40,100,0
4,47,100,0
4,40,100,0
4,43,100,0
4,45,100,0
4,40,100,0
4,47,100,0
4,40,100,0
4,43,100,0
4,40,100,0
4,45,100,0
4,40,100,0
4,45,100,0
4,40,100,0
4,43,100,0
4,45,100,0
4,40,100,0
4,47,100,0
4,40,100,0
4,45,100,0
4,40,100,0
4,47,100,0
4,40,100,0
4,47,100,0
4,40,100,0
4,43,100,0
4,45,100,0
4,40,100,0
4,47,100,0
4,40,100,0
4,43,100,0
4,40,100,0
4,45,100,0
4,40,100,0
4,45,100,0
4,40,100,0
4,43,100,0
4,45,100,0
4,40,100,0
4,47,100,0
4,40,100,0
4,45,100,0
4,40,100,0
4,47,100,0
4,40,100,0
4,47,100,0
4,40,100,0
4,43,100,0
4,45,100,0
4,40,100,0
4,47,100,0
4,40,100,0
4,43,100,0
4,40,100,0
4,45,100,0
4,40,100,0
4,45,100,0
4,40,100,0
4,43,100,0
4,45,100,0
4,40,100,0
5,28,100,0
5,28,100,0
5,35,100,0
5,35,100,0
5,28,100,0
5,28,100,0
5,33,100,0
5,33,100,0
5,28,100,0
5,28,100,0
5,35,100,0
5,35,100,0
5,28,100,0
5,28,100,0
5,35,100,0
5,35,100,0
5,28,100,0
5,28,100,0
5,31,100,0
5,31,100,0
5,33,100,0
5,33,100,0
5,28,100,0
5,28,100,0
5,35,100,0
5,35,100,0
5,28,100,0
5,28,100,0
5,31,100,0
5,31,100,0
5,28,100,0
5,28,100,0
5,33,100,0
5,33,100,0
5,28,100,0
5,28,100,0
5,33,100,0
5,33,100,0
5,28,100,0
5,28,100,0
5,31,100,0
5,31,100,0
5,33,100,0
5,33,100,0
5,28,100,0
5,35,100,0
5,28,100,0
5,33,100,0
5,28,100,0
5,35,100,0
5,28,100,0
5,35,100,0
5,28,100,0
5,31,100,0
5,33,100,0
5,28,100,0
5,35,100,0
5,28,100,0
5,31,100,0
5,28,100,0
5,33,100,0
5,28,100,0
5,33,100,0
5,28,100,0
5,31,100,0
5,33,100,0
5,28,100,0
5,35,100,0
5,28,100,0
5,33,100,0
5,28,100,0
5,35,100,0
5,28,100,0
5,35,100,0
5,28,100,0
5,50,100,0
5,43,100,0
5,38,100,0
5,31,100,0
5,50,100,0
5,45,100,0
5,38,100,0
5,40,100,0
5,35,100,0
5,28,100,0
5,40,100,0
5,35,100,0
5,28,100,0
5,31,100,0
5,45,100,0
5,40,100,0
5,33,100,0
5,45,100,0
5,40,100,0
5,33,100,0
5,31,100,0
5,45,100,0
5,40,100,0
5,33,100,0
5,33,100,480
5,40,100,0
5,45,100,0
5,31,100,96
5,33,100,80
5,40,100,0
5,45,100,0
5,31,100,0
5,40,100,0
5,35,100,0
5,28,100,0
5,40,100,0
5,35,100,0
5,28,100,0
5,31,100,0
5,35,100,0
5,28,100,0
5,40,100,0
5,40,100,480
5,35,100,0
5,28,100,0
5,28,100,96
5,40,100,80
5,35,100,0
5,28,100,0
5,31,100,0
5,45,100,0
5,40,100,0
5,33,100,0
5,45,100,0
5,40,100,0
5,33,100,0
5,31,100,0
5,45,100,0
5,40,100,0
5,33,100,0
5,33,100,480
5,40,100,0
5,45,100,0
5,31,100,96
5,33,100,80
5,40,100,0
5,45,100,0
5,31,100,0
5,42,100,0
5,35,100,0
5,42,100,0
5,35,100,0
5,42,100,0
5,33,100,0
5,42,100,0
5,35,100,0
5,42,100,0
5,35,100,0
5,42,100,0
5,33,100,0
5,42,100,0
5,35,100,0
5,40,100,288
5,35,100,0
5,28,100,0
5,31,100,0
5,45,100,0
5,40,100,0
5,33,100,0
5,45,100,0
5,40,100,0
5,33,100,0
5,31,100,0
5,45,100,0
5,40,100,0
5,33,100,0
5,33,100,480
5,40,100,0
5,45,100,0
5,31,100,96
5,33,100,80
5,40,100,0
5,45,100,0
5,31,100,0
5,40,100,0
5,35,100,0
5,28,100,0
5,40,100,0
5,35,100,0
5,28,100,0
5,31,100,0
5,35,100,0
5,28,100,0
5,40,100,0
5,40,100,480
5,35,100,0
5,28,100,0
5,28,100,96
5,40,100,80
5,35,100,0
5,28,100,0
5,31,100,0
5,45,100,0
5,40,100,0
5,33,100,0
5,45,100,0
5,40,100,0
5,33,100,0
5,31,100,0
5,45,100,0
5,40,100,0
5,33,100,0
5,33,100,480
5,40,100,0
5,45,100,0
5,31,100,96
5,33,100,80
5,40,100,0
5,45,100,0
5,31,100,0
5,47,100,0
5,42,100,0
5,35,100,0
5,45,100,0
5,40,100,0
5,33,100,0
5,43,100,0
5,38,100,0
5,31,100,0
5,37,100,0
5,42,100,0
5,30,100,0
5,28,100,0
5,35,100,0
5,28,100,0
5,33,100,0
5,28,100,0
5,35,100,0
5,28,100,0
5,35,100,0
5,28,100,0
5,31,100,0
5,33,100,0
5,28,100,0
5,35,100,0
5,28,100,0
5,31,100,0
5,28,100,0
5,33,100,0
5,28,100,0
5,33,100,0
5,28,100,0
5,31,100,0
5,33,100,0
5,28,100,0
5,35,100,0
5,28,100,0
5,33,100,0
5,28,100,0
5,35,100,0
5,28,100,0
5,35,100,0
5,28,100,0
5,50,100,0
5,43,100,0
5,38,100,0
5,31,100,0
5,50,100,0
5,45,100,0
5,38,100,0
5,40,100,0
5,35,100,0
5,28,100,0
5,40,100,0
5,35,100,0
5,28,100,0
5,31,100,0
5,45,100,0
5,40,100,0
5,33,100,0
5,45,100,0
5,40,100,0
5,33,100,0
5,31,100,0
5,45,100,0
5,40,100,0
5,33,100,0
5,33,100,480
5,40,100,0
5,45,100,0
5,31,100,96
5,33,100,80
5,40,100,0
5,45,100,0
5,31,100,0
5,40,100,0
5,35,100,0
5,28,100,0
5,40,100,0
5,35,100,0
5,28,100,0
5,31,100,0
5,35,100,0
5,28,100,0
5,40,100,0
5,40,100,480
5,35,100,0
5,28,100,0
5,28,100,96
5,40,100,80
5,35,100,0
5,28,100,0
5,31,100,0
5,45,100,0
5,40,100,0
5,33,100,0
5,45,100,0
5,40,100,0
5,33,100,0
5,31,100,0
5,45,100,0
