track,note,velocity,time
1,38,81,480
1,38,0,39
1,38,90,1
1,38,0,39
1,38,87,4
1,38,86,36
1,38,0,3
1,38,0,36
1,38,85,1
1,38,0,39
1,38,87,3
1,38,0,39
1,38,82,1
1,38,0,119
1,36,98,2
1,36,0,89
1,57,93,0
1,36,84,2
1,46,93,146
1,57,0,1
1,38,88,0
1,36,0,2
1,46,0,116
1,38,0,1
1,46,96,3
1,36,100,0
1,36,98,77
1,36,0,2
1,36,0,37
1,46,0,3
1,46,85,0
1,38,100,2
1,46,0,117
1,46,102,1
1,38,0,1
1,36,91,1
1,36,103,76
1,36,0,3
1,36,0,36
1,46,0,2
1,46,100,1
1,38,93,1
1,36,95,117
1,46,0,1
1,38,0,1
1,46,92,2
1,36,0,75
1,38,98,5
1,36,97,38
1,46,0,1
1,38,0,0
1,36,0,78
1,57,88,0
1,36,91,0
1,57,0,159
1,36,0,0
1,46,97,1
1,38,89,2
1,46,0,117
1,38,0,2
1,46,87,0
1,36,89,1
1,36,0,79
1,36,94,2
1,46,0,37
1,38,89,0
1,46,89,1
1,36,0,1
1,38,0,117
1,46,0,1
1,46,99,1
1,36,94,1
1,36,98,77
1,36,0,2
1,36,0,37
1,46,97,1
1,46,0,1
1,38,91,2
1,46,0,116
1,36,95,1
1,38,0,2
1,46,100,2
1,36,0,75
1,36,103,5
1,46,90,36
1,46,0,3
1,36,0,0
1,38,101,1
1,46,0,115
1,42,104,1
1,38,0,3
1,36,89,1
1,36,93,77
1,36,0,2
1,42,0,36
1,36,0,1
1,42,107,0
1,38,95,3
1,42,0,116
1,38,0,3
1,42,99,1
1,36,86,1
1,36,0,79
1,36,89,1
1,42,0,38
1,36,0,1
1,42,97,0
1,38,103,1
1,42,0,118
1,42,104,0
1,36,86,0
1,38,0,1
1,36,0,78
1,36,92,0
1,36,0,39
1,42,91,0
1,42,0,1
1,38,89,1
1,42,0,117
1,36,105,1
1,38,0,1
1,42,103,0
1,36,0,78
1,36,89,4
1,42,0,37
1,42,111,1
1,36,0,1
1,38,86,0
1,42,0,118
1,42,112,0
1,38,0,1
1,36,96,0
1,36,0,79
1,36,98,4
1,42,0,35
1,38,82,2
1,36,0,2
1,42,98,1
1,38,0,76
1,36,83,1
1,36,0,39
1,42,100,2
1,42,0,1
1,36,87,1
1,36,89,77
1,36,0,2
1,36,0,37
1,38,104,0
1,42,0,1
1,42,112,3
1,38,0,75
1,36,93,4
1,36,0,39
1,42,0,1
1,38,85,0
1,38,0,39
1,38,80,0
1,38,0,39
1,38,82,2
1,38,91,38
1,38,0,1
1,38,0,38
1,38,92,0
1,38,0,39
1,38,86,3
1,38,0,39
1,38,89,0
1,38,0,119
1,36,89,1
1,42,103,1
1,36,0,88
1,42,0,1
1,57,100,0
1,36,91,2
1,57,0,147
1,36,0,2
1,46,94,1
1,38,80,0
1,36,92,117
1,46,0,2
1,38,0,0
1,46,99,2
1,36,0,75
1,36,109,2
1,36,0,39
1,46,93,0
1,38,86,2
1,46,0,1
1,46,0,116
1,38,0,2
1,38,87,3
1,38,90,37
1,38,0,2
1,38,0,37
1,38,85,0
1,38,0,39
1,38,84,3
1,38,0,39
1,38,79,2
1,38,0,39
1,38,87,1
1,38,0,39
1,38,84,0
1,38,0,119
1,42,96,0
1,36,100,3
1,42,0,86
1,36,87,2
1,36,0,1
1,57,98,1
1,36,0,147
1,57,0,2
1,46,96,0
1,38,98,0
1,46,0,119
1,38,0,0
1,36,80,0
1,46,98,2
1,36,0,77
1,36,86,2
1,46,94,38
1,36,0,1
1,46,0,1
1,38,98,1
1,46,0,116
1,36,92,0
1,38,0,3
1,46,96,0
1,36,0,76
1,36,94,2
1,36,0,39
1,46,0,2
1,38,90,1
1,46,101,1
1,46,95,117
1,38,0,1
1,36,99,0
1,46,0,1
1,36,0,78
1,36,102,2
1,46,0,37
1,36,0,2
1,46,90,0
1,38,104,2
1,46,0,117
1,38,0,2
1,36,89,0
1,57,88,1
1,36,95,76
1,36,0,2
1,36,0,37
1,42,92,1
1,57,0,3
1,38,86,0
1,42,0,116
1,42,99,1
1,38,0,2
1,36,91,1
1,36,0,79
1,36,93,0
1,42,0,37
1,42,98,1
1,38,101,0
1,36,0,1
1,42,0,118
1,38,0,0
1,36,84,1
1,42,99,3
1,36,0,76
1,36,82,2
1,36,0,39
1,38,98,0
1,42,0,2
1,42,100,2
1,38,0,115
1,42,93,3
1,42,0,1
1,36,97,1
1,36,92,76
1,36,0,3
1,36,0,36
1,38,100,1
1,42,0,1
1,57,63,1
1,57,0,79
1,38,0,38
1,36,88,1
1,57,60,4
1,57,0,39
1,36,0,36
1,36,91,2
1,36,0,39
1,42,86,4
1,38,98,0
1,36,91,116
1,42,86,2
1,42,0,1
1,38,0,0
1,36,0,76
1,36,95,4
1,42,0,38
1,38,94,0
1,36,0,1
1,42,81,2
1,38,0,116
1,42,85,1
1,36,85,0
1,42,0,2
1,36,0,77
1,36,88,3
1,42,0,37
1,38,94,1
1,36,0,1
1,42,86,0
1,38,0,118
1,42,82,0
1,42,0,1
1,36,104,3
1,36,0,79
1,36,94,0
1,42,0,36
1,38,94,2
1,36,0,1
1,57,63,2
1,57,0,79
1,38,0,37
1,36,88,3
1,57,65,1
1,57,0,39
1,36,83,37
1,36,0,2
1,36,0,37
1,38,93,2
1,42,88,3
1,38,0,116
1,42,0,3
1,36,100,0
1,42,89,1
1,36,90,76
1,36,0,2
1,36,0,37
1,42,96,1
1,42,0,3
1,38,101,1
1,42,0,115
1,42,87,2
1,38,0,2
1,36,90,0
1,36,95,77
1,36,0,2
1,36,0,37
1,42,0,1
1,42,84,3
1,38,90,1
1,36,94,116
1,42,82,1
1,42,0,1
1,38,0,1
1,36,0,76
1,36,93,3
1,42,0,38
1,36,0,1
1,57,61,1
1,38,95,2
1,57,0,77
1,57,60,41
1,38,0,1
1,36,94,1
1,57,0,37
1,36,0,42
1,36,94,0
1,42,88,38
1,36,0,1
1,38,94,0
1,42,0,118
1,38,0,1
1,36,89,0
1,42,98,1
1,36,0,78
1,36,90,3
1,38,100,37
1,42,0,1
1,36,0,1
1,42,101,2
1,38,0,115
1,42,88,1
1,42,0,3
1,36,94,0
1,36,0,79
1,36,82,0
1,42,0,37
1,42,93,1
1,36,0,1
1,38,91,1
1,42,0,117
1,38,0,2
1,36,88,0
1,42,93,1
1,36,0,78
1,36,93,4
1,57,63,36
1,42,0,1
1,36,0,2
1,38,109,0
1,57,0,76
1,57,63,41
1,36,94,0
1,38,0,2
1,57,0,37
1,36,0,40
1,36,89,2
1,36,0,39
1,42,93,2
1,38,97,0
1,42,0,119
1,38,0,0
1,36,95,0
1,42,97,3
1,36,0,76
1,36,95,2
1,36,0,39
1,42,93,0
1,42,0,2
1,38,97,1
1,42,0,116
1,36,92,1
1,38,0,2
1,42,88,1
1,36,0,76
1,36,86,0
1,36,0,39
1,38,97,3
1,42,0,1
1,42,95,0
1,36,101,117
1,38,0,1
1,42,0,1
1,42,74,0
1,36,0,77
1,36,97,3
1,42,0,39
1,36,0,0
1,57,61,2
1,38,97,1
1,57,0,78
1,36,85,38
1,57,63,1
1,38,0,2
1,57,0,37
1,36,0,39
1,36,91,3
1,42,101,38
1,36,0,1
1,38,89,3
1,42,0,115
1,38,0,4
1,42,93,0
1,36,90,1
1,36,86,76
1,36,0,3
1,36,0,36
1,38,103,2
1,42,0,1
1,42,100,0
1,38,0,118
1,42,90,0
1,42,0,1
1,36,91,0
1,36,0,79
1,36,87,0
1,42,0,39
1,36,0,0
1,42,96,5
1,38,97,0
1,42,92,118
1,42,0,1
1,38,0,0
1,36,96,0
1,36,0,79
1,36,91,1
1,42,0,38
1,57,65,0
1,36,0,1
1,38,99,0
1,57,0,78
1,36,95,40
1,38,0,1
1,57,59,0
1,57,0,39
1,36,0,39
1,36,91,3
1,36,0,39
1,42,103,0
1,38,86,1
1,42,0,118
1,38,0,1
1,42,85,3
1,36,88,0
1,36,0,79
1,36,91,0
1,38,101,37
1,36,0,2
1,42,0,1
1,42,87,0
1,38,0,116
1,42,102,2
1,36,92,0
1,42,0,1
1,36,0,78
1,36,91,3
1,42,0,37
1,42,90,1
1,36,0,1
1,38,90,0
1,42,0,118
1,38,0,1
1,42,89,2
1,36,104,1
1,36,96,78
1,36,0,1
1,36,0,38
1,42,0,1
1,57,64,0
1,38,107,0
1,57,0,79
1,38,0,40
1,57,66,2
1,42,102,0
1,36,84,0
1,57,0,39
1,36,0,40
1,36,84,0
1,36,0,39
1,42,0,1
1,38,97,1
1,42,91,1
1,42,84,116
1,36,96,1
1,38,0,1
1,42,0,1
1,36,0,77
1,36,88,1
1,42,0,38
1,36,0,1
1,38,101,0
1,42,94,2
1,38,0,117
1,42,0,2
1,36,103,1
1,46,102,1
1,36,0,78
1,36,94,1
1,36,0,39
1,46,0,1
1,38,102,0
1,46,101,1
1,36,97,77
1,38,0,1
1,36,0,38
1,46,0,3
1,38,87,0
1,46,80,1
1,38,0,38
1,38,92,2
1,38,0,39
1,38,98,1
1,36,98,37
1,46,102,1
1,46,0,1
1,38,0,0
1,36,0,77
1,46,0,1
1,38,89,1
1,57,126,2
1,38,0,37
1,57,0,2
1,38,116,121
1,42,93,1
1,42,102,116
1,36,109,0
1,38,0,2
1,42,0,1
1,36,0,76
1,36,116,5
1,42,0,35
1,36,0,4
1,42,103,0
1,38,100,0
1,38,92,118
1,42,0,1
1,38,0,0
1,38,0,38
1,38,96,2
1,38,88,38
1,38,0,1
1,38,0,38
1,38,92,3
1,38,0,39
1,38,84,3
1,38,0,39
1,38,86,1
1,38,0,39
1,38,96,0
1,38,0,39
1,43,97,0
1,43,0,39
1,41,97,1
1,41,0,39
1,42,106,0
1,46,111,2
1,36,89,1
1,57,103,76
1,36,110,1
1,46,0,1
1,36,0,1
1,42,0,7
1,57,0,29
1,36,0,1
1,42,110,124
1,38,102,0
1,42,112,117
1,36,86,0
1,42,0,2
1,38,0,0
1,36,0,77
1,36,102,3
1,42,0,37
1,38,100,0
1,36,0,2
1,42,121,1
1,38,0,116
1,36,91,1
1,42,0,2
1,42,100,1
1,36,0,76
1,36,93,5
1,42,0,38
1,42,109,0
1,36,0,1
1,38,99,0
1,42,0,118
1,42,97,0
1,36,85,0
1,38,0,1
1,36,0,78
1,36,86,2
1,42,0,38
1,36,0,1
1,42,109,3
1,38,91,0
1,42,99,116
1,42,0,3
1,38,0,0
1,36,91,1
1,36,102,78
1,36,0,1
1,42,0,36
1,36,0,2
1,42,99,1
1,38,94,1
1,42,104,117
1,42,0,1
1,36,91,0
1,38,0,1
1,36,0,78
1,36,99,1
1,42,0,38
1,36,0,1
1,38,86,1
1,42,88,2
1,38,0,117
1,36,96,1
1,42,0,1
1,42,94,1
1,36,0,77
1,36,96,3
1,42,100,37
1,38,92,1
1,42,0,1
1,36,0,0
1,42,0,117
1,38,0,1
1,42,95,3
1,36,91,0
1,36,90,77
1,36,0,2
1,36,0,37
1,42,0,3
1,42,113,0
1,38,81,1
1,42,98,117
1,42,0,1
1,38,0,1
1,36,85,0
1,36,0,79
1,36,104,3
1,42,0,35
1,36,0,4
1,42,91,0
1,38,92,0
1,42,0,119
1,38,0,0
1,36,85,0
1,42,94,2
1,36,0,77
1,36,104,1
1,36,0,39
1,42,0,2
1,42,108,0
1,38,98,0
1,36,100,117
1,42,0,2
1,38,0,0
1,42,115,2
1,36,0,75
1,36,95,1
1,36,0,39
1,42,116,2
1,38,108,0
1,42,0,2
1,38,0,77
1,36,83,0
1,36,0,39
1,42,0,1
1,38,86,2
1,38,0,39
1,38,91,0
1,38,0,39
1,38,92,3
1,38,90,38
1,38,0,1
1,38,0,78
1,36,107,0
1,57,120,4
1,36,0,35
1,42,104,3
1,57,0,1
1,42,0,118
1,38,115,0
1,42,105,2
1,38,0,117
1,42,102,1
1,36,115,0
1,42,0,1
1,36,0,78
1,36,98,2
1,42,0,38
1,36,0,1
1,42,116,1
1,38,104,1
1,38,0,79
1,36,97,0
1,42,0,39
1,36,0,0
1,38,90,2
1,38,84,37
1,38,0,2
1,38,0,37
1,38,86,2
1,38,0,39
1,38,89,2
1,38,0,39
1,38,84,3
1,38,90,37
1,38,0,2
1,38,0,37
1,45,93,0
1,45,0,39
1,43,93,1
1,43,0,39
1,41,85,4
1,36,103,37
1,41,0,2
1,36,0,77
1,36,107,1
1,57,117,3
1,36,0,36
1,57,0,3
1,42,123,1
1,42,119,117
1,42,0,2
1,38,90,2
1,42,0,115
1,42,99,1
1,36,98,0
1,38,0,3
1,36,0,76
1,36,100,5
1,42,0,35
1,38,81,3
1,36,0,1
1,42,117,1
1,38,0,117
1,36,92,1
1,42,0,1
1,42,125,1
1,36,81,76
1,36,0,1
1,36,0,38
1,42,0,4
1,42,108,1
1,38,96,0
1,42,108,118
1,36,86,0
1,42,0,1
1,38,0,0
1,36,0,78
1,36,99,1
1,42,0,39
1,36,0,0
1,38,114,1
1,42,115,1
1,57,120,117
1,38,0,1
1,42,0,1
1,36,97,2
1,57,0,115
1,38,107,1
1,36,0,3
1,42,91,1
1,38,0,115
1,42,88,2
1,42,0,2
1,36,114,0
1,36,0,79
1,36,107,2
1,42,0,36
1,36,0,3
1,42,88,0
1,38,103,0
1,36,103,118
1,42,0,1
1,38,0,0
1,42,86,2
1,36,0,116
1,38,106,1
1,42,0,2
1,42,81,0
1,38,0,117
1,36,109,1
1,42,0,1
1,42,96,0
1,36,0,78
1,36,117,1
1,36,0,39
1,57,84,0
1,42,0,1
1,38,119,3
1,57,0,115
1,57,86,1
1,36,102,0
1,38,0,3
1,57,0,116
1,36,0,0
1,42,91,5
1,38,93,0
1,42,0,119
1,38,0,0
1,42,89,1
1,36,114,0
1,36,111,76
1,36,0,3
1,36,0,36
1,42,84,1
1,42,0,3
1,38,110,1
1,42,0,115
1,42,82,1
1,36,97,1
1,38,0,2
1,42,0,116
1,36,0,1
1,38,95,2
1,42,90,2
1,38,0,117
1,42,85,0
1,42,0,2
1,36,106,0
1,36,122,77
1,36,0,2
1,36,0,37
1,42,0,1
1,57,83,0
1,38,109,4
1,57,0,115
1,57,88,3
1,38,0,1
1,36,92,1
1,57,0,117
1,38,103,0
1,36,0,2
1,42,88,1
1,38,0,116
1,42,82,0
1,36,107,0
1,42,0,3
1,36,0,76
1,36,113,3
1,42,0,37
1,36,0,2
1,38,110,1
1,42,91,2
1,38,0,117
1,42,0,2
1,42,96,0
1,36,87,1
1,42,0,118
1,38,97,0
1,36,0,1
1,42,86,1
1,38,0,117
1,42,103,0
1,42,0,2
1,36,105,1
1,36,112,77
1,36,0,2
1,42,0,37
1,36,0,0
1,57,91,2
1,38,116,1
1,36,93,117
1,57,0,1
1,57,90,0
1,38,0,1
1,36,0,117
1,57,0,1
1,38,109,0
1,42,87,4
1,38,0,115
1,36,113,1
1,42,0,3
1,42,101,0
1,36,0,76
1,36,111,5
1,38,120,37
1,42,0,1
1,42,95,0
1,36,0,1
1,38,0,117
1,42,98,0
1,42,0,1
1,36,94,2
1,42,0,116
1,42,101,1
1,36,0,2
1,38,99,1
1,42,0,116
1,42,93,1
1,36,122,0
1,38,0,2
1,36,0,77
1,36,122,5
1,42,0,35
1,57,92,1
1,38,106,0
1,36,0,3
1,57,0,116
1,38,0,0
1,36,97,1
1,57,108,2
1,36,0,117
1,57,0,2
1,38,97,1
1,42,82,1
1,38,0,118
1,42,0,1
1,42,79,0
1,36,119,0
1,36,0,79
1,36,122,1
1,42,0,39
1,36,0,0
1,42,79,2
1,38,113,1
1,36,88,116
1,42,0,2
1,42,89,0
1,38,0,1
1,36,0,116
1,42,0,2
1,38,101,2
1,42,92,1
1,38,0,118
1,36,118,0
1,42,0,1
1,42,86,1
1,36,0,77
1,36,113,0
1,36,0,39
1,57,89,2
1,42,0,1
1,38,119,0
1,57,0,118
1,36,89,0
1,38,0,1
1,57,92,0
1,36,0,118
1,42,91,0
1,57,0,1
1,38,105,0
