track,note,velocity,time
1,52,100,0
1,52,100,1
1,52,100,1
1,52,100,1
1,52,100,33
1,52,100,1
1,52,100,1
1,52,100,1
1,52,100,0
1,52,100,1
1,52,100,1
1,52,100,1
1,52,100,1
1,52,100,1
1,52,100,1
1,52,100,0
1,50,100,1
1,50,100,0
1,48,100,0
1,52,100,1
1,50,100,0
1,52,100,0
1,50,100,1
1,50,100,0
1,48,100,0
1,52,100,1
1,50,100,0
1,52,100,0
1,62,100,1537
1,67,100,1
1,62,100,0
1,62,100,0
1,67,100,1
1,62,100,0
1,60,100,0
1,62,100,0
1,62,100,0
1,64,100,1
1,69,100,0
1,67,100,0
1,64,100,1
1,69,100,0
1,52,100,0
1,52,100,1
1,52,100,1
1,52,100,1
1,52,100,33
1,52,100,1
1,52,100,1
1,52,100,1
1,52,100,33
1,52,100,1
1,52,100,1
1,52,100,1
1,52,100,1
1,52,100,1
1,52,100,1
1,52,100,129
1,50,100,1
1,50,100,0
1,48,100,0
1,52,100,1
1,50,100,0
1,52,100,0
1,50,100,1
1,50,100,0
1,48,100,0
1,52,100,1
1,50,100,0
1,52,100,0
1,62,100,1537
1,67,100,1
1,62,100,0
1,62,100,0
1,67,100,1
1,62,100,0
1,60,100,0
1,62,100,0
1,62,100,0
1,64,100,1
1,69,100,0
1,67,100,0
1,64,100,1
1,69,100,0
1,52,100,0
1,52,100,1
1,52,100,1
1,52,100,1
1,52,100,33
1,52,100,1
1,52,100,1
1,52,100,1
1,52,100,33
1,52,100,1
1,52,100,1
1,52,100,1
1,52,100,1
1,52,100,1
1,52,100,1
1,52,100,129
1,50,100,1
1,50,100,0
1,48,100,0
1,52,100,1
1,50,100,0
1,52,100,0
1,50,100,1
1,50,100,0
1,48,100,0
1,52,100,1
1,50,100,0
1,52,100,0
1,50,100,1
1,50,100,0
1,48,100,0
1,52,100,1
1,50,100,0
1,52,100,0
1,50,100,1
1,50,100,0
1,48,100,0
1,52,100,1
1,50,100,0
1,52,100,1504
1,55,100,1
1,52,100,0
1,55,100,0
1,57,100,0
1,55,100,0
1,57,100,0
1,59,100,0
1,57,100,0
1,59,100,0
1,62,100,0
1,59,100,0
1,62,100,0
1,64,100,0
1,62,100,0
1,64,100,0
1,67,100,0
1,64,100,0
1,67,100,0
1,69,100,0
1,67,100,0
1,69,100,0
1,71,100,0
1,69,100,0
1,71,100,0
1,74,100,0
1,71,100,0
1,74,100,0
1,76,100,0
1,74,100,0
1,76,100,0
1,79,100,0
1,76,100,0
1,79,100,0
1,81,100,0
1,79,100,0
1,81,100,0
1,83,100,0
1,81,100,0
1,79,100,0
1,83,100,0
1,81,100,0
1,79,100,0
1,86,100,0
1,83,100,1
1,86,100,0
1,86,100,0
1,86,100,0
1,86,100,0
1,86,100,0
1,86,100,0
1,86,100,0
1,86,100,0
1,86,100,0
1,88,100,576
1,88,100,0
1,88,100,0
1,69,100,0
1,69,100,1
1,67,100,0
1,64,100,1
1,69,100,0
1,71,100,0
1,76,100,0
1,69,100,0
1,71,100,0
1,76,100,0
1,79,100,0
1,76,100,0
1,78,100,0
1,76,100,0
1,74,100,0
1,76,100,0
1,69,100,0
1,71,100,0
1,76,100,0
1,69,100,0
1,71,100,0
1,76,100,0
1,79,100,0
1,76,100,0
1,78,100,0
1,76,100,0
1,74,100,0
1,76,100,0
1,69,100,0
1,71,100,0
1,76,100,0
1,69,100,0
1,71,100,0
1,76,100,0
1,79,100,0
1,76,100,0
1,78,100,0
1,76,100,0
1,74,100,0
1,76,100,0
1,69,100,0
1,71,100,0
1,76,100,0
1,69,100,0
1,71,100,0
1,76,100,0
1,79,100,0
1,76,100,0
1,78,100,0
1,76,100,0
1,74,100,0
1,76,100,0
1,69,100,0
1,71,100,0
1,76,100,0
1,69,100,0
1,71,100,0
1,76,100,0
1,79,100,0
1,76,100,0
1,78,100,0
1,76,100,0
1,74,100,0
1,76,100,0
1,69,100,0
1,71,100,0
1,76,100,0
1,69,100,0
1,71,100,0
1,76,100,0
1,79,100,0
1,76,100,0
1,78,100,0
1,76,100,0
1,74,100,0
1,76,100,0
1,69,100,0
1,71,100,0
1,76,100,0
1,69,100,0
1,71,100,0
1,76,100,0
1,69,100,0
1,71,100,0
1,76,100,0
1,69,100,0
1,76,100,0
1,74,100,0
1,71,100,0
1,74,100,0
1,71,100,0
1,69,100,0
1,71,100,0
1,69,100,0
1,67,100,0
1,69,100,0
1,67,100,0
1,66,100,0
1,64,100,0
1,79,100,385
1,78,100,0
1,74,100,0
1,78,100,0
1,74,100,0
1,71,100,0
1,76,100,0
1,74,100,0
1,71,100,0
1,74,100,0
1,71,100,0
1,69,100,0
1,67,100,0
1,83,100,385
1,81,100,0
1,79,100,0
1,81,100,0
1,79,100,0
1,78,100,0
1,79,100,0
1,78,100,0
1,76,100,0
1,78,100,0
1,76,100,0
1,74,100,0
1,71,100,0
1,79,100,385
1,78,100,0
1,76,100,0
1,78,100,0
1,76,100,0
1,74,100,0
1,76,100,0
1,74,100,0
1,71,100,0
1,74,100,0
1,71,100,0
1,69,100,0
1,64,100,0
1,83,100,385
1,81,100,0
1,79,100,0
1,81,100,0
1,79,100,0
1,78,100,0
1,79,100,0
1,78,100,0
1,76,100,0
1,78,100,0
1,76,100,0
1,74,100,0
1,71,100,0
1,79,100,385
1,78,100,0
1,76,100,0
1,78,100,0
1,76,100,0
1,74,100,0
1,76,100,0
1,74,100,0
1,71,100,0
1,74,100,0
1,71,100,0
1,69,100,0
1,52,100,0
1,52,100,1
1,52,100,1
1,52,100,1
1,52,100,33
1,52,100,1
1,52,100,1
1,52,100,1
1,52,100,33
1,52,100,1
1,52,100,1
1,52,100,1
1,52,100,1
1,52,100,1
1,52,100,1
1,52,100,1
1,52,100,1
1,52,100,1
2,40,100,0
2,40,100,1
2,40,100,1
2,40,100,1
2,40,100,33
2,40,100,1
2,40,100,1
2,40,100,1
2,40,100,0
2,40,100,1
2,40,100,1
2,40,100,1
2,40,100,1
2,40,100,1
2,40,100,1
2,40,100,0
2,43,100,1
2,45,100,1
2,43,100,1
2,38,100,0
2,36,100,0
2,40,100,1
2,38,100,0
2,40,100,0
2,43,100,1
2,45,100,1
2,43,100,1
2,38,100,0
2,36,100,0
2,40,100,1
2,38,100,0
2,40,100,0
2,43,100,1
2,38,100,1
2,40,100,1
2,43,100,1
2,38,100,1
2,36,100,1
2,38,100,1
2,40,100,1
2,40,100,1
2,43,100,1
2,38,100,1
2,40,100,1
2,43,100,1
2,38,100,1
2,36,100,1
2,38,100,1
2,40,100,1
2,33,100,1
2,38,100,1
2,40,100,1
2,33,100,1
2,38,100,1
2,40,100,1
2,40,100,1
2,40,100,1
2,40,100,1
2,40,100,33
2,40,100,1
2,40,100,1
2,40,100,1
2,40,100,33
2,40,100,1
2,40,100,1
2,40,100,1
2,40,100,1
2,40,100,1
2,40,100,1
2,40,100,129
2,43,100,1
2,45,100,1
2,43,100,1
2,38,100,0
2,36,100,0
2,40,100,1
2,38,100,0
2,40,100,0
2,43,100,1
2,45,100,1
2,43,100,1
2,38,100,0
2,36,100,0
2,40,100,1
2,38,100,0
2,40,100,0
2,43,100,1
2,38,100,1
2,40,100,1
2,43,100,1
2,38,100,1
2,36,100,1
2,38,100,1
2,40,100,1
2,40,100,1
2,43,100,1
2,38,100,1
2,40,100,1
2,43,100,1
2,38,100,1
2,36,100,1
2,38,100,1
2,40,100,1
2,33,100,1
2,38,100,1
2,40,100,1
2,33,100,1
2,38,100,1
2,40,100,1
2,40,100,1
2,40,100,1
2,40,100,1
2,40,100,33
2,40,100,1
2,40,100,1
2,40,100,1
2,40,100,33
2,40,100,1
2,40,100,1
2,40,100,1
2,40,100,1
2,40,100,1
2,40,100,1
2,40,100,129
2,43,100,1
2,45,100,1
2,43,100,1
2,38,100,0
2,36,100,0
2,40,100,1
2,38,100,0
2,40,100,0
2,43,100,1
2,45,100,1
2,43,100,1
2,38,100,0
2,36,100,0
2,40,100,1
2,38,100,0
2,40,100,0
2,43,100,1
2,45,100,1
2,43,100,1
2,38,100,0
2,36,100,0
2,40,100,1
2,38,100,0
2,40,100,0
2,43,100,1
2,45,100,1
2,43,100,1
2,38,100,0
2,36,100,0
2,40,100,1
2,38,100,0
2,40,100,0
2,40,100,1
2,40,100,1
2,40,100,1
2,40,100,33
2,40,100,1
2,40,100,1
2,40,100,1
2,40,100,33
2,40,100,1
2,40,100,1
2,40,100,1
2,40,100,1
2,40,100,1
2,40,100,1
2,40,100,1
2,40,100,1
2,40,100,1
2,40,100,33
2,40,100,1
2,40,100,1
2,40,100,1
2,40,100,33
2,40,100,1
2,40,100,1
2,40,100,1
2,40,100,33
2,40,100,1
2,40,100,1
2,40,100,1
2,40,100,1
2,40,100,1
2,40,100,1
2,40,100,1
2,40,100,1
2,40,100,1
2,40,100,33
2,40,100,1
2,40,100,1
2,40,100,1
2,40,100,33
2,40,100,1
2,40,100,1
2,40,100,1
2,40,100,33
2,40,100,1
2,40,100,1
2,40,100,1
2,40,100,1
2,40,100,1
2,40,100,1
2,40,100,1
2,40,100,1
2,40,100,1
2,40,100,33
2,40,100,1
2,40,100,1
2,40,100,1
2,40,100,33
2,40,100,1
2,40,100,1
2,40,100,1
2,40,100,33
2,40,100,1
2,40,100,1
2,40,100,1
2,40,100,1
2,40,100,1
2,40,100,1
2,40,100,1
2,40,100,1
2,40,100,1
2,40,100,33
2,43,100,1
2,45,100,1
2,43,100,1
2,38,100,0
2,36,100,0
2,40,100,1
2,38,100,0
2,40,100,0
2,43,100,1
2,45,100,1
2,43,100,1
2,38,100,0
2,36,100,0
2,40,100,1
2,38,100,0
2,40,100,0
2,43,100,1
2,45,100,1
2,43,100,1
2,38,100,0
2,36,100,0
2,40,100,1
2,38,100,0
2,40,100,0
2,43,100,1
2,45,100,1
2,43,100,1
2,38,100,0
2,36,100,0
2,40,100,1
2,38,100,0
2,40,100,0
2,43,100,1
2,45,100,1
2,43,100,1
2,38,100,0
2,36,100,0
2,40,100,1
2,38,100,0
2,40,100,0
2,43,100,1
2,45,100,1
2,43,100,1
2,38,100,0
2,36,100,0
2,40,100,1
2,38,100,0
2,40,100,0
2,43,100,1
2,45,100,1
2,43,100,1
2,38,100,0
2,36,100,0
2,40,100,1
2,38,100,0
2,40,100,0
2,43,100,1
2,45,100,1
2,43,100,1
2,38,100,0
2,36,100,0
2,40,100,1
2,38,100,0
2,40,100,0
2,40,100,1
2,40,100,1
2,40,100,1
2,40,100,33
2,40,100,1
2,40,100,1
2,40,100,1
2,40,100,33
2,40,100,1
2,40,100,1
2,40,100,1
2,40,100,1
2,40,100,1
2,40,100,1
2,40,100,1
2,40,100,1
2,40,100,1
3,52,100,0
3,52,100,1
3,52,100,1
3,52,100,1
3,52,100,33
3,52,100,1
3,52,100,1
3,52,100,1
3,52,100,0
3,52,100,1
3,52,100,1
3,52,100,1
3,52,100,1
3,52,100,1
3,52,100,1
3,40,100,0
3,40,100,1
3,35,100,64
3,40,100,1
3,40,100,1
3,40,100,64
3,43,100,1
3,42,100,0
3,40,100,0
3,38,100,0
3,36,100,0
3,36,100,1
3,31,100,64
3,36,100,1
3,36,100,1
3,31,100,64
3,36,100,1
3,36,100,1
3,36,100,64
3,40,100,1
3,38,100,0
3,40,100,0
3,40,100,1
3,35,100,64
3,40,100,1
3,40,100,1
3,40,100,64
3,43,100,1
3,42,100,0
3,40,100,0
3,38,100,0
3,36,100,0
3,36,100,1
3,31,100,64
3,36,100,1
3,36,100,1
3,31,100,64
3,36,100,1
3,36,100,1
3,36,100,64
3,40,100,1
3,38,100,0
3,40,100,0
3,40,100,1
3,35,100,64
3,40,100,1
3,40,100,1
3,35,100,64
3,40,100,1
3,40,100,1
3,40,100,64
3,43,100,1
3,38,100,0
3,40,100,0
3,40,100,1
3,35,100,64
3,40,100,1
3,40,100,1
3,35,100,64
3,40,100,1
3,40,100,1
3,40,100,64
3,43,100,1
3,31,100,0
3,36,100,0
3,35,100,0
3,33,100,0
3,31,100,0
3,40,100,0
3,38,100,0
3,36,100,0
3,38,100,0
3,40,100,0
3,40,100,1
3,35,100,64
3,40,100,1
3,40,100,1
3,35,100,64
3,40,100,1
3,40,100,1
3,40,100,64
3,43,100,1
3,38,100,0
3,40,100,0
3,40,100,1
3,35,100,64
3,40,100,1
3,40,100,1
3,35,100,64
3,40,100,1
3,40,100,1
3,40,100,64
3,43,100,1
3,38,100,0
3,40,100,0
3,40,100,1
3,35,100,64
3,40,100,1
3,40,100,1
3,35,100,64
3,40,100,1
3,40,100,1
3,40,100,64
3,43,100,1
3,31,100,0
3,36,100,0
3,35,100,0
3,33,100,0
3,31,100,0
3,40,100,0
3,38,100,0
3,36,100,0
3,38,100,0
3,40,100,0
3,40,100,1
3,35,100,64
3,40,100,1
3,40,100,1
3,35,100,64
3,40,100,1
3,40,100,1
3,40,100,64
3,43,100,1
3,38,100,0
3,33,100,0
3,33,100,1
3,35,100,0
3,35,100,1
3,36,100,0
3,33,100,0
3,40,100,0
3,38,100,0
3,36,100,0
3,38,100,0
3,40,100,0
3,40,100,1
3,35,100,64
3,40,100,1
3,40,100,1
3,35,100,64
3,40,100,1
3,40,100,1
3,40,100,64
3,43,100,1
3,38,100,0
3,33,100,0
3,33,100,1
3,35,100,0
3,35,100,1
3,36,100,0
3,33,100,0
3,40,100,0
3,38,100,0
3,36,100,0
3,38,100,0
3,52,100,0
3,52,100,1
3,52,100,1
3,52,100,1
3,52,100,33
3,52,100,1
3,52,100,1
3,52,100,1
3,52,100,33
3,52,100,1
3,52,100,1
3,52,100,1
3,52,100,1
3,52,100,1
3,52,100,1
3,40,100,129
3,40,100,1
3,35,100,64
3,40,100,1
3,40,100,1
3,40,100,64
3,43,100,1
3,42,100,0
3,40,100,0
3,38,100,0
3,36,100,0
3,36,100,1
3,31,100,64
3,36,100,1
3,36,100,1
3,31,100,64
3,36,100,1
3,36,100,1
3,36,100,64
3,40,100,1
3,38,100,0
3,40,100,0
3,40,100,1
3,35,100,64
3,40,100,1
3,40,100,1
3,40,100,64
3,43,100,1
3,42,100,0
3,40,100,0
3,38,100,0
3,36,100,0
3,36,100,1
3,31,100,64
3,36,100,1
3,36,100,1
3,31,100,64
3,36,100,1
3,36,100,1
3,36,100,64
3,40,100,1
3,38,100,0
3,40,100,0
3,40,100,1
3,35,100,64
3,40,100,1
3,40,100,1
3,35,100,64
3,40,100,1
3,40,100,1
3,40,100,64
3,43,100,1
3,38,100,0
3,40,100,0
3,40,100,1
3,35,100,64
3,40,100,1
3,40,100,1
3,35,100,64
3,40,100,1
3,40,100,1
3,40,100,64
3,43,100,1
3,31,100,0
3,36,100,0
3,35,100,0
3,33,100,0
3,31,100,0
3,40,100,0
3,38,100,0
3,36,100,0
3,38,100,0
3,40,100,0
3,40,100,1
3,35,100,64
3,40,100,1
3,40,100,1
3,35,100,64
3,40,100,1
3,40,100,1
3,40,100,64
3,43,100,1
3,38,100,0
3,40,100,0
3,40,100,1
3,35,100,64
3,40,100,1
3,40,100,1
3,35,100,64
3,40,100,1
3,40,100,1
3,40,100,64
3,43,100,1
3,38,100,0
3,40,100,0
3,40,100,1
3,35,100,64
3,40,100,1
3,40,100,1
3,35,100,64
3,40,100,1
3,40,100,1
3,40,100,64
3,43,100,1
3,31,100,0
3,36,100,0
3,35,100,0
3,33,100,0
3,31,100,0
3,40,100,0
3,38,100,0
3,36,100,0
3,38,100,0
3,40,100,0
3,40,100,1
3,35,100,64
3,40,100,1
3,40,100,1
3,35,100,64
3,40,100,1
3,40,100,1
3,40,100,64
3,43,100,1
3,38,100,0
3,33,100,0
3,33,100,1
3,35,100,0
3,35,100,1
3,36,100,0
3,33,100,0
3,40,100,0
3,38,100,0
3,36,100,0
3,38,100,0
3,40,100,0
3,40,100,1
3,35,100,64
3,40,100,1
3,40,100,1
3,35,100,64
3,40,100,1
3,40,100,1
3,40,100,64
3,43,100,1
3,38,100,0
