track,note,velocity,time
1,67,125,0
1,68,125,146
1,69,125,133
1,68,125,134
1,67,125,20
1,67,125,212
1,68,125,128
1,69,125,54
1,68,125,106
1,67,125,48
1,69,125,133
1,70,125,92
1,71,125,129
1,70,125,126
1,69,125,20
1,69,125,218
1,70,125,128
1,71,125,55
1,70,125,93
1,69,125,48
1,72,125,325
1,69,125,170
1,67,125,115
1,65,125,29
1,64,125,135
1,62,125,18
1,67,125,126
1,64,125,606
1,65,125,9
1,67,125,34
1,65,125,64
1,64,125,131
1,62,125,19
1,67,125,147
1,68,125,114
1,69,125,139
1,68,125,130
1,67,125,13
1,67,125,202
1,68,125,128
1,69,125,48
1,68,125,100
1,67,125,48
1,69,125,145
1,70,125,99
1,71,125,138
1,70,125,122
1,69,125,27
1,69,125,201
1,70,125,128
1,71,125,48
1,70,125,106
1,69,125,48
1,72,125,325
1,69,125,194
1,67,125,107
1,65,125,37
1,64,125,121
1,62,125,6
1,60,125,139
1,72,125,1306
1,73,125,110
1,74,125,141
1,72,125,314
1,73,125,114
1,74,125,53
1,74,125,145
1,72,125,64
1,76,125,323
1,74,125,140
1,72,125,116
1,69,125,76
1,76,125,446
1,74,125,139
1,72,125,99
1,69,125,204
1,71,125,2
1,72,125,98
1,76,125,125
1,74,125,21
1,72,125,129
1,71,125,64
1,69,125,122
1,67,125,293
1,67,125,114
1,67,125,310
1,68,125,109
1,69,125,133
1,68,125,126
1,67,125,13
1,67,125,213
1,68,125,128
1,69,125,62
1,68,125,120
1,67,125,4
1,69,125,139
1,70,125,107
1,71,125,140
1,70,125,122
1,69,125,17
1,69,125,201
1,70,125,128
1,71,125,54
1,70,125,99
1,69,125,12
1,72,125,325
1,69,125,187
1,67,125,101
1,65,125,30
1,64,125,114
1,62,125,18
1,74,125,329
1,71,125,165
1,69,125,101
1,67,125,10
1,65,125,129
1,64,125,26
1,65,125,130
1,66,125,290
1,67,125,293
1,72,125,107
1,69,125,154
1,65,125,126
1,66,125,290
1,67,125,294
1,72,125,122
1,69,125,178
1,65,125,124
1,66,125,274
1,67,125,294
1,69,125,290
1,76,125,300
1,74,125,80
1,72,125,154
1,71,125,80
1,72,125,138
1,72,125,306
1,72,125,134
1,67,125,326
1,68,125,143
1,69,125,133
1,68,125,134
1,67,125,20
1,67,125,212
1,68,125,128
1,69,125,54
1,68,125,106
1,67,125,48
1,69,125,133
1,70,125,92
1,71,125,129
1,70,125,126
1,69,125,20
1,69,125,218
1,70,125,128
1,71,125,55
1,70,125,93
1,69,125,48
1,72,125,325
1,69,125,170
1,67,125,115
1,65,125,29
1,64,125,135
1,62,125,18
1,67,125,126
1,64,125,606
1,65,125,9
1,67,125,34
1,65,125,64
1,64,125,131
1,62,125,19
1,67,125,147
1,68,125,114
1,69,125,139
1,68,125,130
1,67,125,13
1,67,125,202
1,68,125,128
1,69,125,48
1,68,125,100
1,67,125,48
1,69,125,145
1,70,125,99
1,71,125,138
1,70,125,122
1,69,125,27
1,69,125,201
1,70,125,128
1,71,125,48
1,70,125,106
1,69,125,48
1,72,125,325
1,69,125,194
1,67,125,107
1,65,125,37
1,64,125,121
1,62,125,6
1,60,125,139
1,72,125,1306
1,73,125,110
1,74,125,141
1,72,125,314
1,73,125,114
1,74,125,53
1,74,125,145
1,72,125,64
1,76,125,323
1,74,125,140
1,72,125,116
1,69,125,76
1,76,125,446
1,74,125,139
1,72,125,99
1,69,125,204
1,71,125,2
1,72,125,98
1,76,125,125
1,74,125,21
1,72,125,129
1,71,125,64
1,69,125,122
1,67,125,293
1,67,125,114
1,67,125,310
1,68,125,109
1,69,125,133
1,68,125,126
1,67,125,13
1,67,125,213
1,68,125,128
1,69,125,62
1,68,125,120
1,67,125,4
1,69,125,139
1,70,125,107
1,71,125,140
1,70,125,122
1,69,125,17
1,69,125,201
1,70,125,128
1,71,125,54
1,70,125,99
1,69,125,12
1,72,125,325
1,69,125,187
1,67,125,101
1,65,125,30
1,64,125,114
1,62,125,18
1,74,125,329
1,71,125,165
1,69,125,101
1,67,125,10
1,65,125,129
1,64,125,26
1,65,125,130
1,66,125,290
1,67,125,293
1,72,125,107
1,69,125,154
1,65,125,126
1,66,125,290
1,67,125,294
1,72,125,122
1,69,125,178
1,65,125,124
1,66,125,274
1,67,125,294
1,69,125,290
1,76,125,300
1,74,125,80
1,72,125,154
1,71,125,80
1,72,125,138
1,72,125,306
1,72,125,134
1,67,110,326
1,68,110,143
1,69,110,133
1,68,110,134
1,67,110,20
1,69,110,788
1,70,110,92
1,71,110,129
1,70,110,126
1,69,110,20
1,72,110,986
1,69,110,170
1,67,110,115
1,65,110,29
1,64,110,135
1,62,110,18
1,67,110,126
1,64,110,606
1,65,110,9
1,67,110,34
1,65,110,64
1,64,110,131
1,62,110,19
1,67,110,147
1,68,110,114
1,69,110,139
1,68,110,130
1,67,110,13
1,69,110,778
1,70,110,99
1,71,110,138
1,70,110,122
1,69,110,27
1,72,110,969
1,69,110,194
1,67,110,107
1,65,110,37
1,64,110,121
1,62,110,6
1,60,110,139
1,72,110,1306
1,73,110,110
1,74,110,141
1,72,110,314
1,73,110,114
1,74,110,53
1,74,110,145
1,72,110,64
1,76,110,323
1,74,110,140
1,72,110,116
1,69,110,76
1,76,110,446
1,74,110,139
1,72,110,99
1,69,110,204
1,71,110,2
1,72,110,98
1,76,110,125
1,74,110,21
1,72,110,129
1,71,110,64
1,69,110,122
1,67,110,293
1,67,110,114
1,67,110,310
1,68,110,109
1,69,110,133
1,68,110,126
1,67,110,13
1,69,110,789
1,70,110,107
1,71,110,140
1,70,110,122
1,69,110,17
1,72,110,969
1,69,110,187
1,67,110,101
1,65,110,30
1,64,110,114
1,62,110,18
1,74,110,329
1,71,110,165
1,69,110,101
1,67,110,10
1,65,110,129
1,64,110,26
1,65,110,130
1,66,110,290
1,67,110,293
1,72,110,107
1,69,110,154
1,65,110,126
1,66,110,290
1,67,110,294
1,72,110,122
1,69,110,178
1,65,110,124
1,66,110,274
1,67,110,294
1,69,110,290
1,76,110,300
1,74,110,80
1,72,110,154
1,71,110,80
1,72,110,138
1,72,110,306
1,72,110,134
2,55,116,5519
2,56,116,128
2,57,116,54
2,56,116,106
2,55,116,48
2,57,116,1093
2,58,116,128
2,59,116,55
2,58,116,93
2,57,116,48
2,55,116,4165
2,56,116,128
2,57,116,48
2,56,116,100
2,55,116,48
2,57,116,1105
2,58,116,128
2,59,116,48
2,58,116,106
2,57,116,48
2,55,116,10309
2,56,116,128
2,57,116,62
2,56,116,120
2,55,116,4
2,57,116,1099
2,58,116,128
2,59,116,54
2,58,116,99
2,57,116,12
2,55,116,71749
2,56,116,128
2,57,116,54
2,56,116,106
2,55,116,48
2,57,116,1093
2,58,116,128
2,59,116,55
2,58,116,93
2,57,116,48
2,55,116,4165
2,56,116,128
2,57,116,48
2,56,116,100
2,55,116,48
2,57,116,1105
2,58,116,128
2,59,116,48
2,58,116,106
2,57,116,48
2,55,116,10309
2,56,116,128
2,57,116,62
2,56,116,120
2,55,116,4
2,57,116,1099
2,58,116,128
2,59,116,54
2,58,116,99
2,57,116,12
3,60,100,1487
3,64,100,0
3,67,100,0
3,60,100,135
3,64,100,0
3,68,100,0
3,60,100,137
3,64,100,0
3,69,100,0
3,60,100,327
3,64,100,0
3,67,100,0
3,60,100,134
3,64,100,0
3,68,100,0
3,60,100,71
3,64,100,0
3,69,100,0
3,64,100,134
3,69,100,0
3,60,100,8
3,64,100,0
3,68,100,0
3,60,100,134
3,64,100,0
3,67,100,0
3,60,100,135
3,64,100,0
3,68,100,0
3,60,100,134
3,64,100,0
3,69,100,0
3,60,100,327
3,64,100,0
3,67,100,0
3,60,100,136
3,64,100,0
3,68,100,0
3,60,100,74
3,64,100,0
3,69,100,0
3,60,100,137
3,64,100,0
3,69,100,0
3,60,100,6
3,64,100,0
3,68,100,0
3,60,100,136
3,64,100,0
3,67,100,0
3,60,100,136
3,64,100,0
3,67,100,0
3,60,100,134
3,64,100,0
3,69,100,0
3,60,100,135
3,64,100,0
3,69,100,0
3,61,100,904
3,64,100,0
3,69,100,0
3,61,100,134
3,64,100,0
3,69,100,0
3,61,100,134
3,64,100,0
3,71,100,0
3,61,100,136
3,64,100,0
3,71,100,0
3,62,100,1094
3,65,100,0
3,69,100,0
3,72,100,0
3,62,100,326
3,65,100,0
3,69,100,0
3,72,100,0
3,62,100,135
3,65,100,0
3,67,100,0
3,71,100,0
3,62,100,134
3,65,100,0
3,67,100,0
3,71,100,0
3,62,100,135
3,65,100,0
3,67,100,0
3,71,100,0
3,62,100,134
3,65,100,0
3,67,100,0
3,71,100,0
3,64,100,134
3,67,100,0
3,72,100,0
3,64,100,134
3,67,100,0
3,72,100,0
3,63,100,138
3,66,100,0
3,72,100,0
3,63,100,137
3,66,100,0
3,72,100,0
3,62,100,135
3,65,100,0
3,72,100,0
3,62,100,138
3,65,100,0
3,72,100,0
3,62,100,135
3,65,100,0
3,67,100,0
3,71,100,0
3,62,100,136
3,65,100,0
3,71,100,0
3,60,100,135
3,64,100,0
3,67,100,0
3,60,100,134
3,64,100,0
3,67,100,0
3,60,100,134
3,64,100,0
3,69,100,0
3,60,100,135
3,64,100,0
3,69,100,0
3,61,100,902
3,64,100,0
3,69,100,0
3,61,100,135
3,64,100,0
3,69,100,0
3,61,100,136
3,64,100,0
3,71,100,0
3,61,100,134
3,64,100,0
3,71,100,0
3,62,100,1098
3,65,100,0
3,72,100,0
3,62,100,137
3,65,100,0
3,72,100,0
3,62,100,134
3,65,100,0
3,72,100,0
3,62,100,137
3,65,100,0
3,67,100,0
3,71,100,0
3,62,100,134
3,65,100,0
3,67,100,0
3,71,100,0
3,62,100,136
3,65,100,0
3,67,100,0
3,71,100,0
3,62,100,135
3,65,100,0
3,67,100,0
3,71,100,0
3,64,100,134
3,67,100,0
3,72,100,0
3,64,100,136
3,67,100,0
3,72,100,0
3,64,100,135
3,67,100,0
3,72,100,0
3,64,100,135
3,67,100,0
3,72,100,0
3,64,100,134
3,67,100,0
3,70,100,0
3,64,100,133
3,67,100,0
3,70,100,0
3,64,100,137
3,67,100,0
3,70,100,0
3,64,100,133
3,67,100,0
3,70,100,0
3,65,100,136
3,69,100,0
3,72,100,0
3,65,100,137
3,69,100,0
3,72,100,0
3,65,100,134
3,69,100,0
3,74,100,0
3,65,100,134
3,69,100,0
3,74,100,0
3,65,100,136
3,68,100,0
3,72,100,0
3,65,100,134
3,68,100,0
3,72,100,0
3,65,100,135
3,68,100,0
3,74,100,0
3,65,100,134
3,68,100,0
3,74,100,0
3,64,100,328
3,68,100,0
3,71,100,0
3,74,100,0
3,64,100,136
3,68,100,0
3,71,100,0
3,74,100,0
3,64,100,137
3,68,100,0
3,71,100,0
3,74,100,0
3,64,100,135
3,69,100,0
3,72,100,0
3,64,100,134
3,69,100,0
3,72,100,0
3,64,100,134
3,69,100,0
3,72,100,0
3,64,100,135
3,69,100,0
3,72,100,0
3,66,100,328
3,69,100,0
3,72,100,0
3,76,100,0
3,66,100,330
3,69,100,0
3,76,100,0
3,66,100,134
3,69,100,0
3,72,100,0
3,76,100,0
3,66,100,135
3,69,100,0
3,72,100,0
3,76,100,0
3,66,100,134
3,69,100,0
3,72,100,0
3,76,100,0
3,66,100,134
3,69,100,0
3,72,100,0
3,76,100,0
3,62,100,134
3,65,100,0
3,69,100,0
3,72,100,0
3,62,100,135
3,65,100,0
3,69,100,0
3,72,100,0
3,62,100,134
3,65,100,0
3,69,100,0
3,72,100,0
3,62,100,133
3,65,100,0
3,69,100,0
3,72,100,0
3,62,100,328
3,65,100,0
3,67,100,0
3,71,100,0
3,62,100,135
3,65,100,0
3,67,100,0
3,71,100,0
3,60,100,326
3,64,100,0
3,67,100,0
3,60,100,134
3,64,100,0
3,67,100,0
3,60,100,135
3,64,100,0
3,69,100,0
3,60,100,138
3,64,100,0
3,69,100,0
3,61,100,903
3,64,100,0
3,69,100,0
3,61,100,134
3,64,100,0
3,69,100,0
3,61,100,137
3,64,100,0
3,69,100,0
3,61,100,136
3,64,100,0
3,69,100,0
3,62,100,1094
3,65,100,0
3,72,100,0
3,62,100,136
3,65,100,0
3,72,100,0
3,62,100,134
3,65,100,0
3,72,100,0
3,62,100,136
3,65,100,0
3,67,100,0
3,71,100,0
3,62,100,135
3,65,100,0
3,67,100,0
3,71,100,0
3,62,100,134
3,65,100,0
3,67,100,0
3,71,100,0
3,62,100,136
3,65,100,0
3,67,100,0
3,71,100,0
3,64,100,327
3,68,100,0
3,74,100,0
3,64,100,135
3,68,100,0
3,74,100,0
3,64,100,134
3,68,100,0
3,74,100,0
3,64,100,136
3,69,100,0
3,72,100,0
3,64,100,135
3,69,100,0
3,72,100,0
3,64,100,135
3,69,100,0
3,72,100,0
3,64,100,136
3,69,100,0
3,72,100,0
3,57,100,135
3,62,100,0
3,65,100,0
3,57,100,327
3,63,100,0
3,66,100,0
3,59,100,329
3,64,100,0
3,67,100,0
3,64,100,136
3,69,100,0
3,72,100,0
3,57,100,521
3,62,100,0
3,65,100,0
3,57,100,327
3,63,100,0
3,66,100,0
3,59,100,330
3,64,100,0
3,67,100,0
3,64,100,135
3,69,100,0
3,72,100,0
3,57,100,519
3,62,100,0
3,65,100,0
3,59,100,326
3,63,100,0
3,66,100,0
3,59,100,327
3,64,100,0
3,67,100,0
3,60,100,326
3,64,100,0
3,69,100,0
3,66,100,328
3,69,100,0
3,72,100,0
3,76,100,0
3,62,100,326
3,65,100,0
3,67,100,0
3,71,100,0
3,64,100,134
3,67,100,0
3,72,100,0
3,60,100,327
3,72,100,0
3,60,100,137
3,72,100,0
3,64,100,326
3,67,100,0
3,69,100,0
3,72,100,0
3,64,100,134
3,67,100,0
3,69,100,0
3,72,100,0
3,64,100,134
3,67,100,0
3,69,100,0
3,72,100,0
3,64,100,135
3,67,100,0
3,69,100,0
3,72,100,0
3,64,100,134
3,67,100,0
3,69,100,0
3,72,100,0
3,64,100,135
3,67,100,0
3,69,100,0
3,72,100,0
3,64,100,136
3,67,100,0
3,69,100,0
3,72,100,0
3,64,100,134
3,67,100,0
3,69,100,0
3,72,100,0
3,64,100,134
3,67,100,0
3,69,100,0
3,73,100,0
3,64,100,134
3,67,100,0
3,69,100,0
3,73,100,0
3,64,100,134
3,67,100,0
3,69,100,0
3,73,100,0
3,64,100,134
3,67,100,0
3,69,100,0
3,73,100,0
3,64,100,135
3,67,100,0
3,69,100,0
3,73,100,0
3,64,100,135
3,67,100,0
3,69,100,0
3,73,100,0
3,64,100,136
3,67,100,0
3,69,100,0
3,73,100,0
3,64,100,134
3,67,100,0
3,73,100,0
3,62,100,134
3,65,100,0
3,69,100,0
3,72,100,0
3,74,100,0
3,62,100,135
3,65,100,0
3,69,100,0
3,62,100,134
3,65,100,0
3,69,100,0
3,72,100,0
3,62,100,134
3,65,100,0
3,69,100,0
3,72,100,0
3,62,100,135
3,65,100,0
3,67,100,0
3,71,100,0
3,62,100,137
3,65,100,0
3,67,100,0
3,71,100,0
3,62,100,135
3,65,100,0
3,67,100,0
3,71,100,0
3,62,100,134
3,65,100,0
3,67,100,0
3,71,100,0
3,64,100,136
3,67,100,0
3,72,100,0
3,64,100,135
3,67,100,0
3,72,100,0
3,63,100,137
3,66,100,0
3,72,100,0
3,63,100,134
3,66,100,0
3,69,100,0
3,72,100,0
3,62,100,136
3,65,100,0
3,69,100,0
3,72,100,0
3,62,100,134
3,65,100,0
3,69,100,0
3,72,100,0
3,62,100,137
3,65,100,0
3,67,100,0
3,71,100,0
3,62,100,134
3,65,100,0
3,67,100,0
3,71,100,0
3,64,100,135
3,67,100,0
3,69,100,0
3,72,100,0
3,64,100,135
3,67,100,0
3,69,100,0
3,72,100,0
3,64,100,135
3,67,100,0
3,69,100,0
3,72,100,0
3,64,100,134
3,67,100,0
3,69,100,0
3,72,100,0
3,64,100,136
3,67,100,0
3,69,100,0
3,72,100,0
3,64,100,136
3,67,100,0
3,69,100,0
