track,note,velocity,time
1,81,87,1708
1,80,74,192
1,71,58,4
1,64,57,0
1,78,71,176
1,62,62,8
1,76,64,0
1,74,67,0
1,76,61,4
1,71,51,0
1,61,48,0
1,69,72,676
1,71,72,4
1,69,60,4
1,54,71,0
1,57,62,88
1,61,61,96
1,64,60,96
1,76,68,96
1,54,56,0
1,57,56,0
1,62,59,4
1,59,45,380
1,68,83,192
1,71,83,96
1,80,83,96
1,64,48,0
1,71,51,0
1,78,84,152
1,62,62,12
1,76,82,0
1,74,77,184
1,61,42,4
1,76,60,0
1,68,38,0
1,71,55,0
1,68,85,4
1,69,96,100
1,71,98,4
1,69,79,4
1,57,62,4
1,54,48,0
1,61,66,72
1,64,55,92
1,69,75,4
1,61,97,4
1,62,81,0
1,47,49,0
1,50,54,8
1,54,69,88
1,57,55,96
1,61,80,96
1,62,66,4
1,69,84,96
1,78,91,96
1,81,102,96
1,71,76,96
1,52,77,0
1,80,69,0
1,59,71,76
1,78,75,96
1,69,76,0
1,59,72,4
1,50,76,0
1,68,75,0
1,76,76,0
1,59,66,96
1,66,74,96
1,74,80,0
1,59,57,4
1,71,65,0
1,76,52,0
1,56,52,0
1,49,56,0
1,59,60,0
1,56,67,4
1,59,64,4
1,64,79,96
1,66,91,96
1,68,115,96
1,71,84,4
1,42,64,4
1,57,66,0
1,64,76,0
1,52,76,176
1,57,84,4
1,66,109,96
1,64,87,4
1,66,77,4
1,57,62,0
1,62,74,0
1,47,69,0
1,73,80,0
1,71,80,176
1,73,74,364
1,66,57,20
1,52,58,0
1,69,69,0
1,74,68,0
1,62,53,0
1,40,61,384
1,73,85,192
1,61,57,36
1,45,68,0
1,52,60,96
1,57,58,96
1,59,80,96
1,61,70,4
1,45,62,4
1,53,74,12
1,57,69,0
1,59,69,96
1,61,61,96
1,73,71,96
1,45,71,24
1,54,56,96
1,57,80,96
1,61,78,96
1,66,87,96
1,61,81,4
1,55,66,4
1,59,65,0
1,45,44,0
1,52,56,0
1,64,66,384
1,66,81,8
1,64,77,24
1,62,75,24
1,38,73,28
1,57,73,0
1,50,81,88
1,54,87,96
1,57,75,4
1,62,96,4
1,66,104,4
1,58,93,4
1,66,95,0
1,38,60,0
1,50,56,0
1,58,95,4
1,62,77,88
1,64,87,96
1,59,88,4
1,66,93,0
1,38,66,0
1,50,56,0
1,64,104,572
1,66,106,4
1,66,95,4
1,50,62,0
1,58,87,0
1,38,64,0
1,57,76,4
1,66,97,4
1,64,87,132
1,62,76,100
1,56,59,4
1,64,76,0
1,49,57,0
1,59,62,0
1,68,95,556
1,76,106,96
1,42,87,0
1,69,96,8
1,49,75,68
1,54,100,96
1,57,88,92
1,59,97,96
1,61,77,96
1,64,93,96
1,66,97,96
1,66,77,28
1,62,88,0
1,73,74,0
1,57,66,0
1,47,80,0
1,69,71,0
1,57,75,4
1,59,108,96
1,62,90,4
1,66,103,4
1,69,110,4
1,64,104,16
1,68,97,0
1,40,108,0
1,59,100,0
1,52,98,0
1,66,95,192
1,57,100,0
1,62,106,0
1,66,95,4
1,64,102,0
1,62,100,0
1,38,96,0
1,50,98,0
1,71,106,0
1,37,95,4
1,68,85,0
1,61,91,0
1,71,96,0
1,64,96,0
1,49,91,92
1,56,89,96
1,59,90,92
1,61,109,4
1,64,94,4
1,68,106,4
1,71,100,4
1,54,85,16
1,42,89,0
1,61,80,0
1,64,82,0
1,69,81,4
1,66,69,0
1,57,76,4
1,69,83,0
1,59,96,192
1,71,98,0
1,66,86,8
1,73,86,0
1,69,86,0
1,57,86,0
1,62,84,0
1,47,85,0
1,71,78,192
1,73,69,4
1,69,76,8
1,40,79,0
1,62,79,0
1,66,79,0
1,52,72,0
1,74,72,0
1,73,65,584
1,64,63,124
1,61,63,20
1,59,58,4
1,57,79,24
1,45,66,0
1,52,68,92
1,57,82,4
1,59,91,4
1,61,83,4
1,64,81,4
1,71,66,96
1,69,73,96
1,45,83,12
1,53,65,96
1,57,82,96
1,59,106,96
1,61,83,96
1,65,80,96
1,71,83,96
1,69,77,4
1,45,73,20
1,54,93,88
1,57,104,96
1,59,98,96
1,61,74,96
1,66,75,104
1,71,96,92
1,69,87,4
1,45,74,8
1,55,75,96
1,57,108,96
1,59,102,100
1,61,106,100
1,64,74,184
1,66,65,120
1,64,64,4
1,62,64,24
1,38,90,20
1,57,93,4
1,57,94,4
1,62,96,4
1,64,82,4
1,66,73,4
1,69,76,96
1,76,77,96
1,74,98,96
1,50,79,8
1,58,95,96
1,62,91,96
1,64,100,96
1,66,93,96
1,70,97,96
1,76,106,96
1,74,91,4
1,50,77,40
1,59,84,92
1,62,110,96
1,64,108,96
1,66,91,96
1,71,93,96
1,76,106,96
1,74,93,4
1,58,78,4
1,50,82,0
1,70,83,0
1,62,93,0
1,66,83,0
1,69,81,8
1,57,87,0
1,50,94,0
1,66,78,0
1,62,87,0
1,76,84,72
1,68,70,0
1,71,83,0
1,59,83,0
1,49,77,0
1,56,63,184
1,68,85,0
1,76,91,4
1,59,76,4
1,59,86,4
1,66,102,96
1,68,97,4
1,64,81,4
1,66,66,0
1,61,83,0
1,54,87,0
1,69,88,0
1,61,63,52
1,54,67,4
1,64,88,0
1,54,89,4
1,66,90,0
1,76,104,0
1,71,98,4
1,66,93,0
1,73,99,124
1,62,96,20
1,73,90,0
1,66,91,0
1,57,84,0
1,47,88,0
1,62,76,4
1,71,90,0
1,66,74,0
1,54,80,76
1,73,109,192
1,52,72,12
1,66,83,0
1,74,90,0
1,69,84,0
1,62,106,0
1,40,87,288
1,66,68,36
1,64,73,16
1,62,62,24
1,38,93,8
1,50,84,0
1,57,77,4
1,57,66,16
1,62,93,20
1,64,98,48
1,57,80,4
1,50,91,0
1,62,91,72
1,64,96,20
1,68,83,144
1,61,85,0
1,64,90,0
1,71,77,0
1,49,91,0
1,57,67,96
1,69,65,12
1,61,40,4
1,64,56,0
1,61,63,4
1,64,82,0
1,57,82,4
1,61,81,0
1,64,81,4
1,57,70,4
1,64,50,4
1,61,47,0
1,71,66,0
1,69,79,0
1,61,69,0
1,57,69,4
1,68,91,0
1,62,98,0
1,66,95,0
1,47,104,4
1,57,77,0
1,54,73,84
1,69,61,12
1,69,94,4
1,66,87,0
1,62,90,0
1,57,76,92
1,54,91,4
1,71,104,92
1,73,95,0
1,66,100,0
1,69,86,0
1,62,110,0
1,61,103,0
1,66,78,20
1,62,87,0
1,71,81,0
1,69,74,0
1,59,96,0
1,69,88,20
1,66,93,0
1,62,93,0
1,57,94,0
1,68,89,20
1,64,98,0
1,59,88,0
1,56,103,0
1,64,69,4
1,62,68,0
1,57,81,0
1,66,64,4
1,38,91,0
1,57,88,36
1,62,93,4
1,64,104,4
1,57,80,4
1,50,82,0
1,62,86,4
1,64,94,4
1,62,43,0
1,50,84,4
1,71,88,16
1,68,85,0
1,64,98,0
1,61,100,0
1,49,75,0
1,49,100,64
1,61,21,4
1,64,63,0
1,69,75,0
1,69,81,4
1,71,73,0
1,64,100,0
1,61,64,0
1,57,69,4
1,61,89,0
1,64,88,4
1,57,69,4
1,61,71,0
1,57,58,4
1,66,100,8
1,62,98,0
1,68,97,0
1,47,102,0
1,57,80,96
1,69,60,20
1,66,106,0
1,62,98,0
1,69,106,4
1,54,95,188
1,71,94,96
1,59,76,0
1,73,93,12
1,66,97,0
1,61,103,0
1,69,87,0
1,62,94,0
1,66,97,0
1,71,102,0
1,59,91,0
1,62,94,0
1,69,83,16
1,66,87,0
1,57,96,0
1,62,86,0
1,68,89,8
1,64,96,0
1,59,90,0
1,56,97,0
1,64,69,4
1,62,69,0
1,66,64,0
1,57,83,0
1,38,100,4
1,57,83,32
1,62,91,4
1,64,100,4
1,50,84,4
1,57,84,0
1,62,90,4
1,64,102,4
1,68,93,12
1,61,97,0
1,49,91,0
1,71,94,0
1,64,96,0
1,57,69,96
1,69,62,12
1,57,81,4
1,69,98,4
1,71,82,0
1,61,112,0
1,64,106,0
1,57,66,4
1,61,75,0
1,64,76,4
1,57,62,0
1,71,73,4
1,66,103,92
1,62,98,0
1,68,95,0
1,47,102,0
1,54,85,96
1,69,65,16
1,69,81,4
1,66,68,0
1,62,76,0
1,66,103,4
1,69,104,0
1,62,100,0
1,57,83,88
1,71,123,96
1,66,100,12
1,73,95,0
1,62,106,0
1,69,96,0
1,61,109,0
1,66,91,0
1,71,100,4
1,62,88,0
1,59,76,0
1,69,100,8
1,57,106,0
1,66,100,0
1,62,102,0
1,28,116,16
1,66,106,0
1,40,123,0
1,62,116,0
1,57,113,0
1,69,102,0
1,81,110,4
1,69,110,0
1,74,108,0
1,78,63,0
1,68,97,4
1,40,116,0
1,71,108,0
1,52,121,0
1,80,87,0
1,76,88,0
1,38,113,12
1,66,106,0
1,78,95,0
1,50,106,0
1,69,106,0
1,74,83,0
1,68,80,52
1,64,82,0
1,49,80,0
1,76,83,0
1,56,89,0
1,59,77,0
1,56,97,4
1,64,68,4
1,59,84,4
1,68,47,0
1,76,74,4
1,64,64,0
1,76,100,4
1,61,75,0
1,54,71,0
1,57,83,0
1,64,82,4
1,66,52,16
1,69,64,4
1,61,95,188
1,71,96,96
1,73,115,100
1,66,85,12
1,73,87,0
1,62,98,0
1,47,91,0
1,69,84,0
1,57,94,0
1,66,67,0
1,71,81,0
1,62,79,4
1,54,93,60
1,69,110,192
1,52,100,20
1,68,95,0
1,64,102,0
1,59,98,0
1,66,112,192
1,50,100,20
1,64,106,0
1,62,96,192
1,56,87,16
1,49,85,0
1,61,83,0
1,64,84,0
1,59,94,384
1,64,90,4
1,66,115,104
1,68,112,88
1,54,68,12
1,57,83,0
1,66,97,4
1,69,96,0
1,64,98,0
1,61,100,0
1,68,97,0
1,64,104,4
1,69,76,4
1,66,78,16
1,47,82,0
1,73,77,0
1,76,96,0
1,69,94,0
1,57,75,4
1,71,52,20
1,74,83,4
1,71,84,4
1,74,82,0
1,69,86,0
1,66,80,0
1,54,103,0
1,57,93,4
1,64,93,8
1,68,103,0
1,52,100,4
1,64,76,4
1,52,51,4
1,68,66,0
1,50,121,100
1,64,75,4
1,68,60,4
1,49,85,4
1,59,91,0
1,61,97,4
1,56,74,284
1,68,45,4
1,61,52,0
1,59,88,0
1,64,64,0
1,64,62,4
1,66,103,100
1,68,97,4
1,61,80,0
1,54,74,4
1,66,71,0
1,57,86,4
1,64,84,0
1,69,91,0
1,61,91,232
1,59,83,92
1,71,84,0
1,61,93,4
1,73,97,4
1,73,91,12
1,61,87,0
1,57,94,0
1,47,87,0
1,54,75,192
1,66,69,4
1,71,81,0
1,62,82,0
1,57,96,0
1,73,115,252
1,74,84,8
1,66,87,0
1,69,86,0
1,62,94,0
1,52,93,4
1,66,54,4
1,74,75,0
1,62,69,0
1,61,60,4
1,33,65,0
1,73,58,4
1,64,58,0
1,69,66,0
1,71,61,4
1,67,61,0
1,62,61,0
1,59,61,0
1,33,38,4
1,33,40,64
1,59,61,0
1,62,48,0
1,67,52,0
1,71,45,0
1,33,62,52
1,59,62,0
1,67,62,0
1,62,62,0
1,71,62,0
1,33,67,52
1,59,67,0
1,62,67,0
1,67,67,0
1,71,67,0
1,33,84,4
1,71,77,0
1,67,72,0
1,62,79,0
1,59,91,0
1,59,113,4
1,71,98,0
1,62,98,0
1,67,93,0
1,33,77,4
1,33,80,4
1,67,104,4
1,62,118,0
1,71,113,0
1,59,118,0
1,32,93,4
1,31,86,92
1,54,91,8
1,61,91,0
1,73,87,0
1,78,81,0
1,64,90,0
1,81,98,0
1,69,82,0
1,69,91,4
1,78,93,4
1,73,95,0
1,81,100,0
1,78,55,8
1,81,64,0
1,69,82,0
1,74,90,0
1,62,96,0
1,54,91,0
1,59,77,4
1,57,83,0
1,62,84,4
1,69,91,4
1,74,45,0
1,78,100,4
1,74,96,0
1,79,104,8
1,76,100,0
1,71,110,0
1,62,91,0
1,52,77,0
1,59,82,0
1,55,86,0
1,62,80,4
1,71,106,4
1,76,113,0
1,67,83,192
1,76,64,12
1,73,91,0
1,69,87,0
1,61,115,0
1,64,102,0
1,57,104,0
1,61,103,16
1,67,90,0
1,73,89,0
1,64,94,4
1,76,88,0
1,55,106,0
1,73,95,28
1,54,100,0
1,61,95,0
1,64,93,0
1,78,89,0
1,81,104,0
1,69,88,0
1,69,66,4
1,64,102,4
1,78,85,4
1,73,93,0
1,81,94,0
1,78,87,12
1,74,106,0
1,71,104,0
1,81,98,0
1,54,85,0
1,62,93,0
1,59,90,0
1,57,86,0
1,62,77,4
1,73,77,96
1,76,80,0
1,69,68,0
1,54,106,36
1,62,94,0
1,78,91,0
1,59,88,0
1,57,91,0
1,74,102,0
1,69,81,0
1,78,93,12
1,67,87,4
1,71,100,0
1,74,94,0
1,62,76,0
1,59,76,0
1,55,79,0
1,52,69,0
1,67,79,16
1,76,84,0
1,71,94,0
1,74,84,0
1,62,90,0
1,52,82,0
1,55,98,0
1,59,91,0
1,67,106,4
1,61,106,16
1,64,100,0
1,57,106,0
1,73,100,4
1,69,96,0
1,76,83,188
1,64,104,12
1,61,115,0
1,67,96,0
1,55,110,0
1,54,103,28
1,61,100,0
1,64,98,0
1,73,97,0
1,81,116,0
1,69,84,0
1,73,34,4
1,69,102,0
1,64,93,0
1,61,61,4
1,78,112,96
1,62,100,28
1,54,103,0
1,69,104,0
1,59,96,0
1,57,98,0
1,74,93,0
1,54,30,4
1,76,82,0
1,54,85,0
1,73,83,0
1,69,76,0
1,62,57,4
1,59,63,0
1,57,64,0
1,54,103,20
1,78,91,0
1,62,93,0
1,59,104,0
1,74,106,0
1,69,86,0
1,57,100,0
1,78,100,16
1,74,96,0
1,67,82,4
1,71,100,0
1,62,82,0
1,52,75,0
1,59,84,0
1,55,86,0
1,74,98,12
1,76,98,4
1,71,106,0
1,52,76,0
1,55,93,0
1,67,90,0
1,62,93,0
1,59,94,0
1,67,86,0
1,74,96,4
1,71,98,0
1,57,100,0
1,50,91,20
1,57,73,96
1,62,84,96
1,78,100,96
1,74,98,0
1,76,91,192
1,74,102,4
1,50,104,8
1,57,81,92
1,62,91,92
1,69,87,8
1,78,100,92
1,81,102,0
1,76,87,188
1,74,83,4
1,69,87,4
1,45,62,36
1,76,72,4
1,57,60,84
1,52,47,0
1,59,91,96
1,61,112,96
1,52,57,4
1,57,57,0
1,59,64,4
1,61,54,4
1,57,49,4
1,53,75,16
1,45,68,0
1,57,62,56
1,59,86,4
1,61,89,4
1,57,64,4
1,53,39,0
1,59,57,4
1,61,67,4
1,57,69,4
1,54,68,4
1,45,74,0
1,57,62,68
1,59,96,4
1,61,106,4
1,57,67,4
1,59,73,4
1,61,59,4
1,57,66,4
1,45,76,20
1,55,71,0
1,57,67,8
1,59,88,92
1,61,106,96
1,55,69,4
1,57,83,0
1,59,72,4
1,61,63,4
1,62,69,96
1,66,75,4
1,64,74,32
1,62,76,4
1,38,86,12
1,57,87,0
1,62,83,52
1,64,86,96
1,66,78,4
1,50,66,4
1,57,61,0
1,62,73,0
1,64,88,4
1,66,87,4
1,62,72,4
1,50,70,4
1,58,49,0
1,62,84,72
1,64,84,4
1,66,85,4
1,62,58,4
1,64,69,4
1,66,61,4
1,62,56,4
1,50,81,0
1,59,83,0
1,62,80,72
1,64,84,4
1,66,87,4
1,62,71,4
1,64,74,4
1,66,71,4
1,62,82,4
1,50,87,0
1,58,87,0
1,62,72,96
1,64,81,96
1,66,85,4
1,66,81,0
1,57,87,0
1,62,94,0
1,50,83,0
1,64,94,12
1,57,76,4
1,62,94,0
1,56,69,28
1,49,69,0
1,61,68,0
1,59,72,0
1,64,73,0
1,68,81,284
1,59,100,4
1,64,74,4
1,49,57,4
1,71,82,4
1,68,69,0
1,64,71,0
1,57,82,0
1,54,75,0
1,66,87,0
1,64,84,4
1,69,84,0
1,69,76,4
1,61,81,96
1,66,69,4
1,64,66,4
1,66,63,4
1,47,86,0
1,69,76,0
1,59,81,0
1,62,83,4
1,54,69,92
1,62,66,4
