track,note,velocity,time
1,67,69,0
1,72,69,1
1,75,69,1
1,75,69,1
1,72,69,116
1,74,69,1
1,75,69,1
1,77,69,1
1,79,69,1
1,84,69,1
1,79,69,1
1,82,69,1
1,79,69,1
1,82,69,1
1,79,69,1
1,77,69,1
1,79,69,1
1,72,69,1
1,75,69,69
1,74,69,13
1,72,69,1
1,74,69,3
1,75,69,3
1,77,69,0
1,79,69,8
1,84,69,59
1,82,69,3
1,79,69,6
1,77,69,58
1,79,69,43
1,72,69,49
1,74,69,1
1,75,69,18
1,72,69,1
1,74,69,1
1,75,69,1
1,77,69,1
1,79,69,1
1,84,69,1
1,87,69,6
1,86,69,1
1,84,69,1
1,82,69,6
1,79,69,1
1,77,69,0
1,79,69,9
1,82,69,1
1,79,69,1
1,84,69,70
1,82,69,17
1,79,69,63
1,77,69,57
1,79,69,2
1,77,69,0
1,75,69,66
1,74,69,20
1,72,69,1
1,74,69,66
1,75,69,17
1,77,69,6
1,79,69,65
1,84,69,1
1,82,69,1
1,79,69,63
1,77,69,1
1,79,69,19
1,72,69,1
1,75,69,1
1,72,69,1
1,74,69,1
1,75,69,1
1,77,69,1
1,79,69,1
1,84,69,1
1,87,69,1
1,84,69,1
1,86,69,1
1,87,69,1
1,89,69,1
1,91,69,1
1,96,69,1
1,94,69,1
1,91,69,1
1,94,69,1
1,91,69,1
1,89,69,1
1,91,69,1
1,82,69,1
1,79,69,1
1,77,89,1
1,74,89,167
1,72,89,1
1,70,89,1
1,72,89,1
1,82,89,488
1,82,89,1
1,81,89,1
1,79,89,1
1,81,89,1
1,77,89,1
1,79,89,1
1,79,89,1
1,77,89,1
1,75,89,1
1,77,89,1
1,72,89,1
1,74,89,1
1,75,89,1
1,67,89,1
1,72,89,1
1,67,89,1
1,72,89,1
1,79,89,1
1,69,89,1
1,74,89,1
1,69,89,1
1,74,89,1
1,81,89,1
1,79,89,1
1,81,89,1
1,84,89,1
1,84,89,1
1,86,89,1
1,84,89,1
1,86,89,1
1,84,89,1
1,81,89,1
1,79,89,1
1,76,89,1
1,74,89,1
1,72,89,1
1,84,89,1
1,81,89,1
1,79,89,1
1,76,89,1
1,74,89,1
1,72,89,1
1,84,89,1
1,81,89,1
1,79,89,1
1,76,89,1
1,74,89,1
1,72,89,1
1,74,89,1
1,86,89,193
1,74,95,1
1,86,89,30
1,74,95,5
1,74,95,257
1,86,89,21
1,74,89,193
1,77,89,0
1,81,89,0
1,74,89,1
2,55,102,0
2,60,102,1
2,63,102,1
2,63,102,1
2,60,102,116
2,62,102,1
2,63,102,1
2,65,102,1
2,67,102,1
2,72,102,1
2,67,102,1
2,70,102,1
2,67,102,1
2,70,102,1
2,67,102,1
2,65,102,1
2,67,102,1
2,60,102,1
2,63,102,69
2,62,102,13
2,60,102,1
2,62,102,3
2,63,102,3
2,65,102,0
2,67,102,8
2,72,102,59
2,70,102,3
2,67,102,6
2,65,102,58
2,67,102,43
2,60,102,49
2,62,102,1
2,63,102,18
2,60,102,1
2,62,102,1
2,63,102,1
2,65,102,1
2,67,102,1
2,72,102,1
2,75,102,6
2,74,102,1
2,72,102,1
2,70,102,6
2,67,102,1
2,65,102,0
2,67,102,9
2,70,102,1
2,67,102,1
2,72,102,70
2,70,102,17
2,67,102,63
2,65,102,57
2,67,102,2
2,65,102,0
2,63,102,66
2,62,102,20
2,60,102,1
2,62,102,66
2,63,102,17
2,65,102,6
2,67,102,65
2,72,102,1
2,70,102,1
2,67,102,63
2,65,102,1
2,67,102,19
2,60,102,1
2,63,102,1
2,60,102,1
2,62,102,1
2,63,102,1
2,65,102,1
2,67,102,1
2,72,102,1
2,75,102,1
2,72,102,1
2,74,102,1
2,75,102,1
2,77,102,1
2,79,102,1
2,84,102,1
2,82,102,1
2,79,102,1
2,82,102,1
2,79,102,1
2,77,102,1
2,79,102,1
2,70,102,1
2,67,102,1
2,65,102,1
2,62,102,167
2,60,102,1
2,58,102,1
2,60,102,1
2,70,102,488
2,70,102,1
2,69,102,1
2,67,102,1
2,69,102,1
2,65,102,1
2,67,102,1
2,67,102,1
2,65,102,1
2,63,102,1
2,65,102,1
2,60,102,1
2,62,102,1
2,63,102,1
2,55,102,1
2,60,102,1
2,55,102,1
2,60,102,1
2,67,102,1
2,57,102,1
2,62,102,1
2,57,102,1
2,62,102,1
2,69,102,1
2,67,102,1
2,69,102,1
2,72,102,1
2,72,102,1
2,74,102,1
2,72,102,1
2,74,102,1
2,72,102,1
2,69,102,1
2,67,102,1
2,64,102,1
2,62,102,1
2,60,102,1
2,72,102,1
2,69,102,1
2,67,102,1
2,64,102,1
2,62,102,1
2,60,102,1
2,72,102,1
2,69,102,1
2,67,102,1
2,64,102,1
2,62,102,1
2,60,102,1
2,62,102,1
2,74,102,193
2,74,102,30
2,74,102,289
2,62,102,193
2,65,102,0
2,69,102,0
2,62,102,1
3,60,127,0
3,62,127,30
3,63,127,55
3,65,127,147
3,63,127,34
3,62,127,57
3,58,127,146
3,55,127,1283
3,55,127,44722
4,84,60,0
4,87,60,0
4,91,60,0
4,83,60,35
4,87,60,0
4,91,60,0
4,82,60,23
4,87,60,0
4,91,60,0
4,81,60,45
4,87,60,0
4,91,60,0
4,84,60,42
4,87,60,0
4,91,60,0
4,83,60,11
4,87,60,0
4,91,60,0
4,82,60,16
4,87,60,0
4,91,60,0
4,81,60,47
4,87,60,0
4,91,60,0
4,84,60,42
4,87,60,0
4,91,60,0
4,87,60,113
4,91,60,0
4,94,60,0
4,82,60,60
4,86,60,0
4,89,60,0
4,84,60,44
4,87,60,0
4,91,60,0
4,84,60,323
4,89,60,0
4,92,60,0
4,84,60,27
4,87,60,0
4,91,60,0
4,84,60,1
4,87,60,0
4,91,60,0
4,83,60,107
4,87,60,0
4,91,60,0
4,82,60,23
4,87,60,0
4,91,60,0
4,81,60,45
4,87,60,0
4,91,60,0
4,84,60,42
4,87,60,0
4,91,60,0
4,83,60,11
4,87,60,0
4,91,60,0
4,82,60,16
4,87,60,0
4,91,60,0
4,81,60,47
4,87,60,0
4,91,60,0
4,84,60,42
4,87,60,0
4,91,60,0
4,87,60,113
4,91,60,0
4,94,60,0
4,82,60,60
4,86,60,0
4,89,60,0
4,84,60,44
4,87,60,0
4,91,60,0
4,84,60,323
4,89,60,0
4,92,60,0
4,84,60,27
4,87,60,0
4,91,60,0
4,87,60,1
4,91,60,0
4,94,60,0
4,86,60,124
4,89,60,0
4,93,60,0
4,87,60,65
4,94,60,0
4,91,60,1
4,89,60,53
4,86,60,2
4,93,60,0
4,80,60,170
4,84,60,0
4,87,60,0
4,79,60,35
4,82,60,0
4,86,60,0
4,84,60,161
4,87,60,0
4,91,60,0
4,84,60,338
4,89,60,0
4,92,60,0
4,84,60,22
4,87,60,0
4,91,60,0
4,84,60,128
4,87,60,0
4,91,60,0
4,83,60,35
4,87,60,0
4,91,60,0
4,82,60,23
4,87,60,0
4,91,60,0
4,81,60,45
4,87,60,0
4,91,60,0
4,84,60,42
4,87,60,0
4,91,60,0
4,83,60,11
4,87,60,0
4,91,60,0
4,82,60,16
4,87,60,0
4,91,60,0
4,81,60,47
4,87,60,0
4,91,60,0
4,84,60,42
4,87,60,0
4,91,60,0
4,87,60,113
4,91,60,0
4,94,60,0
4,82,60,60
4,86,60,0
4,89,60,0
4,84,60,44
4,87,60,0
4,91,60,0
4,84,60,323
4,89,60,0
4,92,60,0
4,84,60,27
4,87,60,0
4,91,60,0
4,87,60,5
4,91,60,0
4,94,60,0
4,89,60,76
4,86,60,2
4,93,60,0
4,91,60,65
4,87,60,4
4,94,60,0
4,89,60,60
4,93,60,0
4,86,60,1
4,84,60,158
4,87,60,0
4,92,60,0
4,82,60,225
4,86,60,0
4,91,60,0
4,84,60,2290
4,87,60,0
4,91,60,0
4,83,60,35
4,87,60,0
4,91,60,0
4,86,60,23
4,89,60,0
4,93,60,0
4,85,60,1
4,89,60,0
4,93,60,0
4,86,60,1
4,89,60,0
4,93,60,0
4,85,60,35
4,89,60,0
4,93,60,0
4,84,60,1
4,89,60,0
4,93,60,0
4,83,60,45
4,89,60,0
4,93,60,0
4,86,60,42
4,89,60,0
4,93,60,0
4,85,60,11
4,89,60,0
4,93,60,0
4,84,60,16
4,89,60,0
4,93,60,0
4,83,60,47
4,89,60,0
4,93,60,0
4,86,60,42
4,89,60,0
4,93,60,0
4,89,60,113
4,93,60,0
4,96,60,0
4,84,60,60
4,88,60,0
4,91,60,0
4,89,60,44
4,93,60,0
4,96,60,0
4,84,60,60
4,88,60,0
4,91,60,0
4,89,60,44
4,93,60,0
4,96,60,0
4,84,60,60
4,88,60,0
4,91,60,0
4,86,60,44
4,89,60,0
4,93,60,0
4,86,60,1283
4,89,60,0
4,93,60,0
5,72,96,0
5,74,96,28
5,75,96,29
5,77,96,111
5,75,96,20
5,74,96,49
5,70,96,120
5,67,96,1412
5,55,96,792
5,55,96,949
5,60,96,111
5,55,96,512
5,60,96,18
5,67,96,13
5,60,96,151
5,67,96,28
5,69,96,7
5,67,96,58
5,70,96,4
5,69,96,3
5,72,96,23
5,69,96,53
5,67,96,19
5,65,96,2
5,55,96,397
5,60,96,24
5,55,96,521
5,60,96,33
5,67,96,34
5,60,96,528
5,67,96,27
5,69,96,29
5,70,96,67
5,69,96,4
5,69,96,35
5,70,96,11
5,72,96,29
5,69,96,50
5,67,96,12
5,65,96,28
5,65,96,341
5,67,96,33
5,70,96,55
5,72,96,37
5,70,96,68
5,72,96,18
5,67,96,244
5,65,96,64
5,67,96,15
5,63,96,270
5,62,96,63
5,63,96,63
5,70,96,79
5,70,96,8
5,67,96,179
5,67,96,1
5,65,96,70
5,62,96,230
5,62,96,1
5,60,96,107
5,60,96,1
5,58,96,34
5,58,96,1
5,60,96,111
5,55,96,137
5,60,96,21
5,55,96,552
5,60,96,32
5,67,96,32
5,60,96,509
5,67,96,29
5,69,96,17
5,70,96,57
5,69,96,4
5,72,96,32
5,69,96,59
5,67,96,19
5,65,96,6
5,55,96,384
5,60,96,27
5,55,96,546
5,60,96,27
5,67,96,38
5,60,96,515
5,67,96,31
5,69,96,20
5,70,96,62
5,69,96,4
5,69,96,41
5,70,96,6
5,72,96,40
5,69,96,33
5,67,96,19
5,65,96,24
5,65,96,313
5,67,96,26
5,70,96,27
5,72,96,36
5,70,96,47
5,72,96,18
5,67,96,258
5,65,96,3
5,67,96,64
5,63,96,278
5,62,96,12
5,63,96,59
5,70,96,162
5,67,96,200
5,65,96,52
5,62,96,215
5,60,96,130
5,58,96,34
5,60,96,89
5,70,96,209
5,70,96,50
5,69,96,20
5,67,96,31
5,69,96,44
5,65,96,172
5,67,96,203
5,67,96,60
5,65,96,15
5,63,96,66
5,65,96,46
5,60,96,41
5,62,96,20
5,63,96,42
5,65,96,19
5,63,96,28
5,62,96,52
5,58,96,141
5,55,96,29
5,60,96,123
5,70,96,8269
5,67,96,161
5,65,96,59
5,62,96,210
5,60,96,13
5,58,96,23
5,60,96,86
5,70,96,485
5,70,96,53
5,69,96,2
5,67,96,31
5,69,96,45
5,65,96,172
5,67,96,227
5,67,96,58
5,65,96,6
5,63,96,32
5,65,96,72
5,72,96,88
5,74,96,30
5,75,96,53
5,77,96,942
5,75,96,20
5,74,96,49
5,70,96,120
5,67,96,1028
5,55,96,792
5,55,96,1313
5,60,96,111
5,55,96,514
5,60,96,26
5,67,96,13
5,57,96,235
5,62,96,24
5,57,96,526
5,62,96,38
5,69,96,28
5,57,96,595
5,62,96,17
5,57,96,521
5,62,96,18
5,69,96,45
5,62,96,486
5,69,96,31
5,71,96,9
5,71,96,59
5,72,96,3
5,74,96,4
5,71,96,54
5,69,96,12
5,67,96,18
5,57,96,383
5,62,96,18
5,57,96,540
5,62,96,30
5,69,96,25
5,62,96,532
5,69,96,25
5,71,96,16
5,71,96,69
5,72,96,4
5,71,96,39
5,72,96,7
5,74,96,11
5,71,96,42
5,69,96,8
5,67,96,15
5,67,96,332
5,69,96,22
5,72,96,33
5,72,96,4
5,74,96,81
5,72,96,58
5,74,96,62
5,69,96,236
5,67,96,2
5,69,96,56
5,65,96,45
5,64,96,2
5,65,96,62
5,72,96,120
5,69,96,208
5,67,96,67
5,64,96,207
5,62,96,5
5,60,96,38
5,72,96,143
5,69,96,215
5,67,96,82
5,64,96,217
5,62,96,2
5,60,96,30
5,72,96,153
5,69,96,232
5,67,96,97
5,64,96,217
5,62,96,4
5,60,96,31
5,62,96,85
5,65,96,1288
5,69,96,0
5,62,96,1
6,68,97,432
6,70,97,28
6,72,97,29
6,74,97,1340
6,72,97,0
6,70,97,49
6,67,97,120
6,43,97,781
6,55,97,566
6,60,97,25
6,55,97,541
6,60,97,24
6,67,97,24
6,60,97,534
6,67,97,26
6,69,97,4
6,70,97,45
6,72,97,59
6,69,97,53
6,67,97,14
6,65,97,3
6,55,97,425
6,60,97,31
6,55,97,515
6,60,97,41
6,67,97,49
6,60,97,514
6,67,97,29
6,69,97,13
6,67,97,43
6,70,97,10
6,70,97,51
6,68,97,14
6,72,97,34
6,69,97,37
6,67,97,15
6,65,97,52
6,65,97,334
6,67,97,26
6,70,97,49
6,72,97,26
6,70,97,2
6,72,97,12
6,67,97,268
6,65,97,63
6,67,97,29
6,63,97,267
6,62,97,12
6,63,97,1
6,70,97,146
6,67,97,166
6,65,97,41
6,62,97,234
6,60,97,6
6,58,97,31
6,60,97,83
6,55,97,55
6,60,97,29
6,55,97,491
6,60,97,30
6,67,97,19
6,60,97,531
6,67,97,31
6,69,97,22
6,70,97,41
6,72,97,39
6,69,97,52
6,67,97,17
6,65,97,17
6,55,97,381
6,60,97,11
6,55,97,533
6,60,97,31
6,67,97,27
6,60,97,506
6,67,97,32
6,69,97,4
6,70,97,37
6,69,97,2
6,70,97,42
6,72,97,22
6,69,97,54
6,67,97,13
6,65,97,24
6,65,97,316
6,67,97,23
6,70,97,70
6,72,97,25
6,70,97,59
6,72,97,15
6,63,97,656
6,62,97,18
6,63,97,55
6,70,97,126
6,67,97,175
6,65,97,39
6,62,97,227
6,60,97,9
6,58,97,36
6,60,97,87
6,70,97,230
6,70,97,49
6,69,97,19
6,67,97,22
6,69,97,58
6,65,97,135
6,67,97,173
6,67,97,59
6,65,97,25
6,63,97,31
6,65,97,51
6,60,97,88
6,62,97,16
6,63,97,61
6,65,97,29
6,63,97,30
6,62,97,73
6,58,97,135
6,55,97,34
6,60,97,143
6,70,97,8046
6,67,97,189
6,65,97,50
6,62,97,228
6,60,97,7
6,58,97,30
6,60,97,94
6,70,97,238
6,70,97,44
6,69,97,15
6,67,97,17
6,69,97,46
6,65,97,143
6,67,97,205
6,67,97,49
6,65,97,22
6,63,97,28
6,65,97,44
6,72,97,96
6,74,97,27
6,75,97,54
6,77,97,942
6,75,97,20
6,74,97,49
6,70,97,120
6,67,97,1028
6,55,97,13
6,55,97,19
6,60,97,25
6,55,97,497
6,60,97,23
6,67,97,26
6,57,97,598
6,62,97,34
6,57,97,511
6,62,97,19
6,69,97,28
6,57,97,598
6,62,97,40
6,57,97,522
6,62,97,17
6,69,97,20
6,62,97,496
6,69,97,24
6,71,97,10
6,72,97,38
6,74,97,39
6,71,97,53
6,69,97,16
6,67,97,9
6,57,97,394
6,62,97,42
6,57,97,522
6,62,97,26
6,69,97,25
6,62,97,509
6,69,97,23
6,71,97,8
6,71,97,38
6,72,97,12
6,71,97,38
6,72,97,6
6,74,97,28
6,71,97,49
6,69,97,14
6,67,97,22
6,67,97,317
6,69,97,27
6,72,97,59
6,74,97,37
6,72,97,1
6,74,97,47
6,65,97,651
6,64,97,68
6,65,97,7
6,72,97,145
6,69,97,199
6,67,97,42
6,64,97,205
6,62,97,11
6,60,97,20
6,72,97,154
6,69,97,176
6,67,97,59
6,64,97,220
6,62,97,15
6,60,97,27
6,72,97,150
6,69,97,178
6,67,97,61
6,64,97,213
6,62,97,15
6,60,97,22
6,62,97,27
6,50,97,1303
7,36,100,0
7,38,100,192
