track,note,velocity,time
1,69,116,7860
1,72,116,60
1,69,0,16
1,72,0,108
1,77,116,116
1,77,0,120
1,76,116,120
1,76,0,120
1,74,116,120
1,74,0,100
1,72,117,60
1,72,0,80
1,70,117,160
1,70,0,184
1,67,117,140
1,67,0,56
1,70,118,4
1,70,0,124
1,76,118,116
1,76,0,124
1,74,118,116
1,74,0,124
1,72,118,116
1,72,0,100
1,70,118,60
1,70,0,80
1,69,119,160
1,69,0,312
1,65,119,40
1,65,0,80
1,69,120,0
1,69,0,108
1,74,120,132
1,74,0,120
1,72,120,120
1,72,0,116
1,70,120,124
1,70,0,100
1,69,120,60
1,69,0,80
1,67,121,160
1,67,0,16
1,66,121,80
1,66,0,80
1,67,121,0
1,67,0,112
1,69,121,128
1,69,0,120
1,72,122,120
1,72,0,116
1,72,122,4
1,72,0,116
1,72,122,4
1,72,0,120
1,70,123,760
1,70,0,240
1,69,123,80
1,69,0,104
1,67,123,136
1,67,0,108
1,65,124,132
1,65,0,296
1,64,73,8
1,62,101,64
1,64,0,12
1,62,0,100
1,60,124,0
1,60,0,316
1,57,90,28
1,57,0,52
1,55,93,20
1,53,124,64
1,55,0,32
1,53,0,128
1,69,116,500
1,72,116,60
1,69,0,16
1,72,0,108
1,77,116,116
1,77,0,120
1,76,116,120
1,76,0,120
1,74,116,120
1,74,0,100
1,72,117,60
1,72,0,80
1,70,117,160
1,70,0,184
1,67,117,140
1,67,0,56
1,70,118,4
1,70,0,124
1,76,118,116
1,76,0,124
1,74,118,116
1,74,0,124
1,72,118,116
1,72,0,104
1,70,118,56
1,70,0,80
1,69,119,160
1,69,0,312
1,65,119,40
1,65,0,80
1,69,120,0
1,69,0,108
1,74,120,132
1,74,0,120
1,72,120,120
1,72,0,116
1,70,120,124
1,70,0,104
1,69,120,56
1,69,0,80
1,67,121,160
1,67,0,16
1,66,121,80
1,66,0,80
1,67,121,0
1,67,0,116
1,69,121,124
1,69,0,116
1,72,122,124
1,72,0,116
1,72,122,4
1,72,0,116
1,72,122,4
1,72,0,120
1,70,123,760
1,70,0,240
1,69,123,80
1,69,0,116
1,67,123,124
1,67,0,120
1,65,124,120
1,65,0,264
1,60,112,712
1,60,0,80
1,60,93,80
1,60,0,80
1,64,101,0
1,64,0,100
1,65,105,60
1,65,0,80
1,67,115,160
1,67,0,488
1,60,104,224
1,60,0,80
1,60,73,80
1,60,0,80
1,65,107,0
1,65,0,100
1,67,105,60
1,67,0,80
1,69,110,160
1,69,0,352
1,62,105,376
1,62,0,80
1,62,98,80
1,62,0,80
1,66,99,0
1,66,0,104
1,67,115,56
1,67,0,80
1,69,110,160
1,69,0,344
1,67,110,680
1,67,0,80
1,69,107,80
1,69,0,80
1,70,97,160
1,70,0,512
1,72,115,192
1,72,0,100
1,70,115,140
1,70,0,80
1,72,115,80
1,72,0,80
1,70,116,160
1,70,0,80
1,70,116,400
1,72,117,80
1,70,0,8
1,72,0,80
1,70,117,72
1,70,0,76
1,72,117,4
1,72,0,120
1,70,117,120
1,70,0,116
1,70,118,124
1,70,0,100
1,69,118,140
1,69,0,80
1,70,118,80
1,70,0,80
1,69,119,160
1,69,0,80
1,69,120,400
1,69,0,80
1,70,120,0
1,70,0,80
1,69,120,80
1,69,0,80
1,70,120,0
1,70,0,116
1,69,121,124
1,69,0,116
1,69,121,124
1,69,0,104
1,67,121,136
1,67,0,80
1,69,122,80
1,69,0,80
1,67,122,160
1,67,0,80
1,67,123,400
1,67,0,80
1,69,123,0
1,69,0,80
1,67,123,80
1,67,0,80
1,69,123,0
1,69,0,112
1,67,124,128
1,67,0,116
1,65,124,124
1,65,0,80
1,65,112,1280
1,65,0,32
1,69,116,48
1,69,0,76
1,72,116,164
1,72,0,124
1,77,116,116
1,81,80,24
1,77,0,96
1,81,0,16
1,76,116,104
1,79,80,28
1,76,0,92
1,79,0,12
1,74,116,108
1,77,81,16
1,74,0,64
1,77,0,36
1,76,82,36
1,72,117,8
1,72,0,80
1,76,0,56
1,70,117,104
1,74,83,0
1,70,0,184
1,74,0,8
1,67,117,140
1,76,86,4
1,67,0,52
1,70,118,4
1,76,0,36
1,77,86,12
1,70,0,76
1,77,0,12
1,76,118,104
1,79,87,44
1,76,0,80
1,79,0,8
1,74,118,108
1,77,88,20
1,77,0,84
1,74,0,20
1,72,118,116
1,76,89,8
1,72,0,72
1,76,0,32
1,74,89,40
1,70,118,8
1,70,0,80
1,74,0,40
1,69,119,120
1,72,90,4
1,72,0,264
1,69,0,48
1,65,119,40
1,69,93,0
1,69,0,68
1,65,0,12
1,69,120,0
1,72,93,12
1,69,0,68
1,72,0,60
1,74,120,100
1,78,94,32
1,74,0,88
1,78,0,8
1,72,120,112
1,76,95,12
1,76,0,100
1,72,0,4
1,70,120,124
1,74,96,12
1,70,0,68
1,74,0,36
1,69,120,44
1,72,97,4
1,69,0,76
1,72,0,56
1,67,121,104
1,70,98,16
1,67,0,16
1,70,0,60
1,66,121,20
1,66,0,80
1,67,121,0
1,67,0,88
1,69,121,152
1,69,0,120
1,72,122,120
1,72,0,100
1,72,122,20
1,72,0,100
1,72,122,20
1,72,0,116
1,70,123,764
1,70,0,240
1,69,123,80
1,69,0,80
1,67,123,160
1,67,0,80
1,65,124,160
1,65,0,296
1,64,73,8
1,62,101,64
1,64,0,12
1,62,0,100
1,60,124,0
1,60,0,316
1,57,90,28
1,57,0,52
1,55,93,20
1,53,124,64
1,55,0,32
1,53,0,128
1,60,112,712
1,60,0,80
1,60,93,80
1,60,0,80
1,64,101,0
1,64,0,80
1,65,105,80
1,65,0,80
1,67,115,160
1,67,0,488
1,60,104,224
1,60,0,80
1,60,73,80
1,60,0,80
1,65,107,0
1,65,0,80
1,67,105,80
1,67,0,80
1,69,110,160
1,69,0,352
1,62,105,376
1,62,0,80
1,62,98,80
1,62,0,80
1,66,99,0
1,66,0,80
1,67,115,80
1,67,0,80
1,69,110,160
1,69,0,344
1,67,110,680
1,67,0,80
1,69,107,80
1,69,0,80
1,70,97,160
1,70,0,512
1,72,115,192
1,72,0,104
1,70,115,136
1,70,0,80
1,72,115,80
1,72,0,80
1,70,116,160
1,70,0,80
1,70,116,400
1,70,0,80
1,72,117,0
1,72,0,80
1,70,117,80
1,70,0,80
1,72,117,0
1,72,0,116
1,70,117,124
1,70,0,120
1,70,118,120
1,70,0,100
1,69,118,140
1,69,0,80
1,70,118,80
1,70,0,80
1,69,119,160
1,69,0,80
1,69,120,400
1,69,0,80
1,70,120,0
1,70,0,80
1,69,120,80
1,69,0,80
1,70,120,0
1,70,0,120
1,69,121,120
1,69,0,120
1,69,121,120
1,69,0,100
1,67,121,140
1,67,0,80
1,69,122,80
1,69,0,80
1,67,122,160
1,67,0,80
1,67,123,400
1,67,0,80
1,69,123,0
1,69,0,80
1,67,123,80
1,67,0,80
1,69,123,0
1,69,0,120
1,67,124,120
1,67,0,120
1,65,124,120
1,65,0,80
1,60,125,160
1,60,0,80
1,62,125,80
1,62,0,80
1,60,125,160
1,60,0,80
1,57,126,0
1,57,0,160
1,53,126,80
1,53,0,240
1,65,112,160
1,65,0,32
1,69,116,48
1,69,0,76
1,72,116,164
1,72,0,124
1,77,116,116
1,81,80,24
1,77,0,96
1,81,0,16
1,76,116,104
1,79,80,28
1,76,0,92
1,79,0,12
1,74,116,108
1,77,81,16
1,74,0,64
1,77,0,36
1,76,82,36
1,72,117,8
1,72,0,80
1,76,0,56
1,70,117,104
1,74,83,0
1,70,0,184
1,74,0,8
1,67,117,140
1,76,86,4
1,67,0,52
1,70,118,4
1,76,0,36
1,77,86,12
1,70,0,76
1,77,0,12
1,76,118,104
1,79,87,44
1,76,0,80
1,79,0,8
1,74,118,108
1,77,88,20
1,77,0,84
1,74,0,20
1,72,118,116
1,76,89,8
1,72,0,72
1,76,0,32
1,74,89,40
1,70,118,8
1,70,0,80
1,74,0,40
1,69,119,120
1,72,90,4
1,72,0,264
1,69,0,48
1,65,119,40
1,69,93,0
1,69,0,68
1,65,0,12
1,69,120,0
1,72,93,12
1,69,0,68
1,72,0,60
1,74,120,100
1,78,94,32
1,74,0,88
1,78,0,8
1,72,120,112
1,76,95,12
1,76,0,100
1,72,0,4
1,70,120,124
1,74,96,12
1,70,0,68
1,74,0,36
1,69,120,44
1,72,97,4
1,69,0,76
1,72,0,56
1,67,121,104
1,70,98,16
1,67,0,16
1,70,0,60
1,66,121,20
1,66,0,80
1,67,121,0
1,67,0,88
1,69,121,152
1,69,0,120
1,72,122,120
1,72,0,100
1,72,122,20
1,72,0,100
1,72,122,20
1,72,0,116
1,72,120,1484
1,72,0,80
1,72,127,0
1,70,120,0
1,70,0,100
1,72,0,0
1,70,120,20
1,72,98,4
1,72,0,96
1,70,0,0
1,72,104,16
1,70,120,4
1,72,0,96
1,70,0,4
1,70,121,1500
1,70,0,80
1,72,119,0
1,69,121,0
1,69,0,100
1,72,0,0
1,72,107,20
1,69,122,0
1,69,0,100
1,72,0,0
1,69,122,20
1,72,112,4
1,69,0,100
1,72,0,4
1,69,123,1492
1,69,0,80
1,67,123,0
1,72,127,4
1,72,0,92
1,67,0,4
1,67,123,20
1,72,107,4
1,72,0,96
1,67,0,4
1,72,110,16
1,67,124,0
1,67,0,100
1,72,0,0
1,72,64,1500
1,77,122,80
1,72,0,12
1,77,0,128
2,41,78,4320
2,41,0,240
2,65,63,0
2,57,70,0
2,60,84,0
2,60,0,240
2,57,0,0
2,65,0,0
2,48,95,0
2,48,0,240
2,65,65,0
2,57,68,0
2,60,77,0
2,60,0,240
2,57,0,0
2,65,0,0
2,41,80,0
2,41,0,240
2,65,63,0
2,57,66,0
2,60,82,0
2,60,0,240
2,57,0,0
2,65,0,0
2,48,90,0
2,48,0,240
2,65,80,0
2,57,84,0
2,60,94,0
2,60,0,240
2,57,0,0
2,65,0,0
2,41,81,0
2,41,0,240
2,57,78,0
2,60,81,0
2,65,76,0
2,65,0,240
2,60,0,0
2,57,0,0
2,48,99,0
2,48,0,240
2,60,77,0
2,65,76,0
2,57,76,0
2,57,0,240
2,65,0,0
2,60,0,0
2,41,84,0
2,41,0,240
2,41,84,720
2,41,0,240
2,65,73,0
2,57,94,0
2,60,86,0
2,60,0,240
2,57,0,0
2,65,0,0
2,48,104,0
2,48,0,240
2,65,74,0
2,57,93,0
2,60,95,0
2,60,0,240
2,57,0,0
2,65,0,0
2,43,99,0
2,43,0,240
2,62,86,0
2,55,95,0
2,58,87,0
2,58,0,240
2,55,0,0
2,62,0,0
2,48,104,0
2,48,0,240
2,62,81,0
2,58,95,0
2,55,93,0
2,55,0,240
2,58,0,0
2,62,0,0
2,43,85,0
2,43,0,240
2,62,84,0
2,55,93,0
2,58,85,0
2,58,0,240
2,55,0,0
2,62,0,0
2,48,104,0
2,48,0,240
2,64,84,0
2,60,94,0
2,55,94,0
2,55,0,240
2,60,0,0
2,64,0,0
2,41,89,0
2,41,0,240
2,65,80,0
2,57,94,0
2,60,101,0
2,60,0,240
2,57,0,0
2,65,0,0
2,40,99,0
2,40,0,240
2,39,72,0
2,55,98,0
2,63,83,0
2,58,97,0
2,58,0,240
2,39,0,0
2,55,0,0
2,63,0,0
2,50,107,0
2,50,0,240
2,66,66,0
2,62,94,0
2,57,95,0
2,57,0,240
2,62,0,0
2,66,0,0
2,45,89,0
2,45,0,240
2,66,64,0
2,62,94,0
2,57,93,0
2,57,0,240
2,62,0,0
2,66,0,0
2,43,90,0
2,43,0,240
2,67,81,0
2,62,95,0
2,58,82,0
2,58,0,240
2,62,0,0
2,67,0,0
2,50,105,0
2,50,0,240
2,67,82,0
2,62,95,0
2,58,91,0
2,58,0,240
2,62,0,0
2,67,0,0
2,48,119,0
2,48,0,120
2,48,99,0
2,48,0,120
2,48,105,0
2,48,0,240
2,48,76,480
2,48,0,240
2,60,105,0
2,55,94,0
2,64,85,0
2,64,0,240
2,55,0,0
2,60,0,0
2,50,107,0
2,50,0,240
2,60,107,0
2,55,105,0
2,64,95,0
2,64,0,240
2,55,0,0
2,60,0,0
2,53,89,0
2,53,0,240
2,65,80,0
2,60,89,0
2,57,89,0
2,57,0,240
2,60,0,0
2,65,0,0
2,48,85,0
2,48,0,240
2,57,84,0
2,65,85,0
2,60,94,0
2,60,0,240
2,65,0,0
2,57,0,0
2,41,86,0
2,41,0,240
2,65,73,0
2,60,84,0
2,57,80,0
2,57,0,240
2,60,0,0
2,65,0,0
2,48,94,0
2,48,0,240
2,65,84,0
2,60,86,0
2,57,90,0
2,57,0,240
2,60,0,0
2,65,0,0
2,41,84,0
2,41,0,240
2,65,73,0
2,57,94,0
2,60,86,0
2,60,0,240
2,57,0,0
2,65,0,0
2,48,104,0
2,48,0,240
2,65,74,0
2,57,93,0
2,60,95,0
2,60,0,240
2,57,0,0
2,65,0,0
2,43,99,0
2,43,0,240
2,62,86,0
2,55,95,0
2,58,87,0
2,58,0,240
2,55,0,0
2,62,0,0
2,48,104,0
2,48,0,240
2,62,81,0
2,58,95,0
2,55,93,0
2,55,0,240
2,58,0,0
2,62,0,0
2,43,85,0
2,43,0,240
2,62,84,0
2,55,93,0
2,58,85,0
2,58,0,240
2,55,0,0
2,62,0,0
2,48,104,0
2,48,0,240
2,64,84,0
2,60,94,0
2,55,94,0
2,55,0,240
2,60,0,0
2,64,0,0
2,41,89,0
2,41,0,240
2,65,80,0
2,57,94,0
2,60,101,0
2,60,0,240
2,57,0,0
2,65,0,0
2,40,99,0
2,40,0,240
2,39,72,0
2,55,98,0
2,63,83,0
2,58,97,0
2,58,0,240
2,39,0,0
2,55,0,0
2,63,0,0
2,50,107,0
2,50,0,240
2,66,66,0
2,62,94,0
2,57,95,0
2,57,0,240
2,62,0,0
2,66,0,0
2,45,89,0
2,45,0,240
2,66,64,0
2,62,94,0
2,57,93,0
2,57,0,240
2,62,0,0
2,66,0,0
2,43,90,0
2,43,0,240
2,67,81,0
2,62,95,0
2,58,82,0
2,58,0,240
2,62,0,0
2,67,0,0
2,50,105,0
2,50,0,240
2,67,82,0
2,62,95,0
2,58,91,0
2,58,0,240
2,62,0,0
2,67,0,0
2,48,119,0
2,48,0,120
2,48,99,0
2,48,0,120
2,48,105,0
2,48,0,240
2,48,76,480
2,48,0,240
2,60,105,0
2,55,94,0
2,64,85,0
2,64,0,240
2,55,0,0
2,60,0,0
2,50,107,0
2,50,0,240
2,60,107,0
2,55,105,0
2,64,95,0
2,64,0,240
2,55,0,0
2,60,0,0
2,53,89,0
2,53,0,240
2,65,80,0
2,60,89,0
2,57,89,0
2,57,0,240
2,60,0,0
2,65,0,0
2,48,85,0
2,48,0,240
2,57,84,0
2,65,85,0
2,60,94,0
2,60,0,240
2,65,0,0
2,57,0,0
2,48,82,0
2,48,0,240
2,60,86,0
2,55,84,0
2,64,82,0
2,64,0,240
2,55,0,0
2,60,0,0
2,43,86,0
2,43,0,240
2,55,80,0
2,60,89,0
2,64,84,0
2,64,0,240
2,60,0,0
2,55,0,0
2,48,104,0
2,48,0,240
2,55,80,0
2,64,84,0
2,60,89,0
2,60,0,240
2,64,0,0
2,55,0,0
2,50,112,0
2,50,0,240
2,55,89,0
2,60,101,0
2,64,85,0
2,64,0,240
2,60,0,0
2,55,0,0
2,53,94,0
2,53,0,240
2,57,80,0
2,65,82,0
2,60,90,0
2,60,0,240
2,65,0,0
2,57,0,0
2,48,94,0
2,48,0,240
2,57,71,0
2,65,80,0
2,60,90,0
2,60,0,240
2,65,0,0
2,57,0,0
2,41,84,0
2,41,0,240
2,65,80,0
2,57,78,0
2,60,95,0
2,60,0,240
2,57,0,0
2,65,0,0
2,52,99,0
2,52,0,240
2,67,86,0
2,58,74,0
2,63,79,0
2,63,0,240
2,58,0,0
2,67,0,0
2,50,99,0
2,50,0,240
2,62,93,0
2,57,89,0
2,66,66,0
2,66,0,240
2,57,0,0
2,62,0,0
2,45,89,0
2,45,0,240
2,62,86,0
2,57,86,0
2,66,63,0
2,66,0,240
