track,note,velocity,time
0,35,102,46
0,38,87,0
0,27,89,92
0,38,63,0
0,38,77,44
0,35,105,44
0,38,101,0
0,27,91,92
0,38,56,0
0,38,77,44
0,35,105,44
0,38,87,0
0,27,86,92
0,38,49,0
0,38,71,44
0,35,105,44
0,38,101,0
0,38,65,44
0,27,86,44
0,38,49,0
0,38,74,44
0,35,102,44
0,38,87,0
0,27,89,92
0,38,63,0
0,38,77,44
0,35,105,44
0,38,101,0
0,27,91,92
0,38,56,0
0,38,77,44
0,35,105,44
0,38,87,0
0,27,86,92
0,38,49,0
0,38,71,44
0,35,105,44
0,38,101,0
0,38,65,44
0,27,86,44
0,38,49,0
0,38,74,44
0,35,102,44
0,38,90,0
0,69,37,44
0,38,61,44
0,69,67,0
0,38,77,44
0,69,35,0
0,35,105,44
0,38,101,0
0,69,64,44
0,38,63,44
0,69,67,0
0,38,77,44
0,69,43,0
0,35,105,44
0,38,87,0
0,69,59,44
0,38,51,44
0,69,67,0
0,38,71,44
0,69,53,0
0,35,105,44
0,38,101,0
0,38,65,44
0,69,56,0
0,38,51,44
0,69,67,0
0,38,74,44
0,69,59,0
0,35,102,44
0,38,90,0
0,69,37,44
0,38,61,44
0,69,67,0
0,38,77,44
0,69,35,0
0,35,105,44
0,38,101,0
0,69,64,44
0,38,63,44
0,69,67,0
0,38,77,44
0,69,43,0
0,35,105,44
0,38,87,0
0,69,59,44
0,38,51,44
0,69,67,0
0,38,71,44
0,69,53,0
0,35,105,44
0,38,101,0
0,38,65,44
0,69,56,0
0,38,51,44
0,69,67,0
0,38,74,44
0,69,59,0
0,35,102,44
0,38,98,0
0,41,93,0
0,41,107,0
0,69,37,6
0,38,64,44
0,69,67,0
0,38,84,12
0,69,35,0
0,35,105,44
0,36,96,0
0,36,104,0
0,38,110,0
0,69,64,0
0,38,65,44
0,69,67,0
0,38,84,34
0,69,43,0
0,35,105,44
0,38,95,0
0,41,93,0
0,41,107,0
0,69,59,10
0,38,56,44
0,69,67,0
0,38,78,44
0,69,53,0
0,35,105,42
0,36,90,0
0,36,107,0
0,38,110,0
0,38,71,2
0,69,56,0
0,38,56,44
0,69,67,0
0,38,81,22
0,69,59,0
0,35,102,44
0,38,98,0
0,41,93,0
0,41,107,0
0,69,37,18
0,38,64,44
0,69,67,0
0,38,84,4
0,69,35,0
0,35,105,44
0,36,90,0
0,36,101,0
0,38,110,0
0,69,64,4
0,38,65,44
0,69,67,0
0,38,84,18
0,69,43,0
0,35,105,44
0,38,95,0
0,41,87,0
0,41,98,0
0,69,59,18
0,38,56,44
0,69,67,0
0,38,78,16
0,69,53,0
0,35,105,44
0,36,87,0
0,36,95,0
0,38,110,0
0,38,71,4
0,69,56,0
0,38,56,44
0,69,67,0
0,38,81,24
0,69,59,0
0,35,102,44
0,38,98,0
0,41,96,0
0,41,104,0
0,69,37,18
0,38,64,44
0,69,90,0
0,69,67,0
0,65,96,1
0,61,90,2
0,57,99,1
0,53,93,2
0,38,84,11
0,69,35,0
0,35,105,44
0,36,90,0
0,36,101,0
0,38,110,0
0,57,51,0
0,69,64,6
0,38,65,44
0,69,78,0
0,69,67,0
0,65,93,1
0,61,93,2
0,57,99,1
0,53,87,2
0,38,84,8
0,69,43,0
0,35,105,44
0,38,95,0
0,41,90,0
0,41,101,0
0,69,59,16
0,38,56,44
0,69,82,0
0,69,67,0
0,65,93,1
0,61,93,2
0,57,96,1
0,53,90,2
0,38,78,7
0,69,53,0
0,35,105,44
0,36,96,0
0,36,101,0
0,38,110,0
0,38,71,6
0,69,56,0
0,38,56,44
0,69,78,0
0,69,67,0
0,65,96,1
0,61,90,2
0,57,93,1
0,53,90,2
0,38,81,1
0,69,59,0
0,35,102,44
0,38,98,0
0,41,93,0
0,41,101,0
0,69,37,16
0,38,64,44
0,69,82,0
0,69,67,0
0,65,90,1
0,61,90,2
0,57,93,1
0,53,90,2
0,38,84,10
0,69,35,0
0,35,105,44
0,36,93,0
0,36,107,0
0,38,110,0
0,69,64,44
0,38,65,42
0,69,80,0
0,69,67,0
0,65,90,1
0,61,87,2
0,57,93,1
0,53,90,2
0,38,84,4
0,69,43,0
0,35,105,44
0,38,95,0
0,41,90,0
0,41,107,0
0,69,59,14
0,38,56,44
0,69,84,0
0,69,67,0
0,65,93,1
0,61,105,2
0,57,99,1
0,53,93,2
0,38,78,1
0,69,53,0
0,35,105,44
0,36,90,0
0,36,107,0
0,38,110,0
0,38,71,2
0,69,56,0
0,38,56,44
0,69,93,0
0,69,67,0
0,65,90,1
0,61,96,2
0,57,93,1
0,53,84,2
0,38,81,8
0,69,59,0
0,35,102,43
0,38,98,0
0,41,90,0
0,41,116,0
0,69,37,16
0,38,64,44
0,69,87,0
0,69,67,0
0,65,93,1
0,61,99,2
0,57,96,1
0,53,84,2
0,38,84,2
0,69,35,0
0,35,105,42
0,36,87,0
0,36,104,0
0,38,110,0
0,57,55,0
0,69,64,40
0,38,65,44
0,69,93,0
0,69,67,0
0,65,93,1
0,61,96,2
0,57,96,1
0,53,84,2
0,38,84,8
0,69,43,0
0,35,105,39
0,38,95,0
0,41,90,0
0,41,104,0
0,69,59,12
0,38,56,44
0,69,84,0
0,69,67,0
0,65,80,1
0,61,90,2
0,57,93,1
0,53,87,2
0,38,78,16
0,69,53,0
0,35,105,41
0,36,90,0
0,36,101,0
0,38,110,0
0,38,71,0
0,69,56,0
0,38,56,44
0,69,82,0
0,69,67,0
0,65,82,1
0,61,90,2
0,57,90,1
0,53,93,2
0,38,81,18
0,69,59,0
0,35,102,38
0,38,98,0
0,41,90,0
0,41,104,0
0,69,37,16
0,38,64,44
0,69,84,0
0,69,67,0
0,65,80,1
0,61,93,2
0,57,93,1
0,53,87,2
0,38,84,6
0,69,35,0
0,35,105,44
0,36,90,0
0,36,98,0
0,38,110,0
0,69,64,44
0,38,65,44
0,69,90,0
0,69,67,0
0,65,80,1
0,61,90,2
0,57,90,1
0,53,84,2
0,38,84,14
0,69,43,0
0,35,105,44
0,38,95,0
0,41,90,0
0,41,104,0
0,69,59,12
0,38,56,44
0,69,93,0
0,69,67,0
0,65,84,1
0,61,96,2
0,57,99,1
0,53,87,2
0,38,78,5
0,69,53,0
0,35,105,36
0,36,87,0
0,36,107,0
0,38,110,0
0,38,71,2
0,69,56,0
0,38,56,44
0,69,87,0
0,69,67,0
0,65,87,1
0,61,93,2
0,57,96,1
0,53,80,2
0,38,81,4
0,69,59,0
0,35,102,42
0,38,98,0
0,41,90,0
0,41,101,0
0,69,37,14
0,38,64,44
0,69,87,0
0,69,67,0
0,65,82,1
0,61,93,2
0,57,96,1
0,53,84,2
0,38,84,18
0,69,35,0
0,35,105,40
0,36,87,0
0,36,101,0
0,38,110,0
0,57,45,0
0,69,64,0
0,38,65,44
0,69,93,0
0,69,67,0
0,65,80,1
0,61,90,2
0,57,99,1
0,53,87,2
0,38,84,2
0,69,43,0
0,35,105,42
0,38,95,0
0,41,87,0
0,41,98,0
0,69,59,12
0,38,56,44
0,69,93,0
0,69,67,0
0,65,87,1
0,61,102,2
0,57,99,1
0,53,90,2
0,38,78,2
0,69,53,0
0,35,105,43
0,36,87,0
0,36,95,0
0,38,110,0
0,38,71,0
0,69,56,0
0,38,56,44
0,69,90,0
0,69,67,0
0,65,90,1
0,61,102,2
0,57,96,1
0,53,93,2
0,38,81,2
0,69,59,0
0,35,102,36
0,38,98,0
0,41,87,0
0,41,98,0
0,69,37,10
0,38,64,44
0,69,90,0
0,69,67,0
0,65,87,1
0,61,99,2
0,57,96,1
0,53,99,2
0,38,84,2
0,69,35,0
0,35,105,44
0,36,87,0
0,36,98,0
0,38,110,0
0,57,44,0
0,69,64,42
0,38,65,44
0,69,87,0
0,69,67,0
0,65,82,1
0,61,99,2
0,57,96,1
0,53,90,2
0,38,84,9
0,69,43,0
0,35,102,40
0,38,98,0
0,41,93,0
0,41,107,0
0,69,37,14
0,38,64,44
0,65,83,0
0,69,84,0
0,69,67,0
0,65,82,1
0,61,96,2
0,57,93,1
0,53,93,2
0,38,84,4
0,69,35,0
0,35,105,32
0,36,90,0
0,36,107,0
0,38,110,0
0,65,85,0
0,69,64,2
0,38,65,44
0,65,107,0
0,69,87,0
0,69,67,0
0,65,84,1
0,61,96,2
0,57,93,1
0,53,82,2
0,38,84,2
0,69,43,0
0,35,105,44
0,38,95,0
0,41,105,0
0,41,104,0
0,65,116,0
0,69,59,12
0,38,56,30
0,64,107,0
0,69,84,0
0,69,67,0
0,65,80,1
0,61,96,2
0,57,96,1
0,53,84,2
0,38,78,16
0,69,53,0
0,35,105,44
0,36,96,0
0,36,101,0
0,38,110,0
0,62,105,0
0,38,71,24
0,69,56,0
0,38,56,42
0,60,116,0
0,69,87,0
0,69,67,0
0,65,87,1
0,61,96,2
0,57,93,0
0,53,84,2
0,38,81,20
0,69,59,0
0,35,102,42
0,38,98,0
0,43,99,0
0,57,70,0
0,62,102,0
0,69,37,44
0,38,91,30
0,52,90,0
0,64,96,0
0,64,94,0
0,69,67,0
0,60,96,1
0,58,99,2
0,55,93,1
0,38,84,12
0,69,35,0
0,35,105,6
0,36,84,0
0,38,93,0
0,52,90,0
0,63,102,0
0,64,101,0
0,69,64,20
0,38,78,44
0,52,105,0
0,64,93,0
0,64,116,0
0,69,67,0
0,60,93,1
0,58,90,2
0,55,93,1
0,38,84,16
0,69,43,0
0,35,105,44
0,38,95,0
0,43,99,0
0,52,111,0
0,62,105,0
0,64,119,0
0,69,59,44
0,38,84,20
0,50,105,0
0,62,113,0
0,64,93,0
0,69,67,0
0,60,96,1
0,58,93,2
0,55,102,1
0,38,78,14
0,69,53,0
0,35,105,44
0,36,80,0
0,38,84,0
0,48,102,0
0,60,107,0
0,63,96,0
0,38,71,26
0,69,56,0
0,38,81,44
0,60,102,0
0,64,90,0
0,69,67,0
0,72,116,0
0,60,64,1
0,58,87,2
0,55,93,1
0,38,81,14
0,35,102,44
0,38,98,0
0,41,105,0
0,69,37,44
0,38,64,18
0,57,102,0
0,65,99,0
0,69,110,0
0,69,67,0
0,60,99,1
0,57,93,2
0,38,84,4
0,69,35,0
0,35,105,2
0,36,87,0
0,38,110,0
0,57,105,0
0,69,113,0
0,69,64,10
0,38,65,44
0,55,102,0
0,65,96,0
0,67,119,0
0,69,67,0
0,60,99,1
0,57,93,2
0,38,84,14
0,69,43,0
0,35,105,44
0,38,81,0
0,38,95,0
0,54,105,0
0,66,122,0
0,69,59,44
0,38,56,16
0,55,93,0
0,66,102,0
0,67,104,0
0,69,67,0
0,60,99,1
0,57,99,2
0,38,78,6
0,69,53,0
0,33,87,44
0,35,105,0
0,38,110,0
0,57,102,0
0,69,116,0
0,38,71,10
0,69,56,0
0,38,56,44
0,55,108,0
0,66,93,0
0,67,119,0
0,69,67,0
0,60,93,1
0,57,96,2
0,38,81,14
0,69,59,0
0,35,102,18
0,38,98,0
0,43,90,0
0,69,37,42
0,38,64,44
0,55,108,0
0,62,93,0
0,67,127,0
0,69,67,0
0,58,93,1
0,55,99,2
0,38,84,2
0,69,35,0
0,35,105,6
0,38,84,0
0,38,110,0
0,55,96,0
0,67,101,0
0,69,64,8
0,38,65,44
0,53,99,0
0,62,90,0
0,65,116,0
0,69,67,0
0,58,93,1
0,55,90,2
0,38,84,10
0,69,43,0
0,35,105,44
0,36,84,0
0,38,95,0
0,52,102,0
0,64,122,0
0,69,59,44
0,38,56,20
0,53,90,0
0,64,80,0
0,65,116,0
0,69,67,0
0,60,84,1
0,58,93,2
0,55,96,1
0,38,78,16
0,69,53,0
0,35,105,2
0,38,110,0
0,43,84,0
0,55,105,0
0,67,122,0
0,38,71,16
0,69,56,0
0,38,56,44
0,53,105,0
0,64,93,0
0,65,122,0
0,69,67,0
0,60,93,1
0,58,87,2
0,55,90,1
0,38,81,6
0,69,59,0
0,35,102,38
0,38,98,0
0,41,96,0
0,69,37,44
0,38,64,44
0,53,105,0
0,65,90,0
0,65,113,0
0,69,67,0
0,60,105,1
0,57,105,2
0,38,84,44
0,69,35,0
0,35,105,18
0,36,93,0
0,38,110,0
0,53,78,0
0,65,110,0
0,69,64,16
0,38,65,44
0,53,102,0
0,65,82,0
0,65,122,0
0,69,67,0
0,60,102,1
0,57,102,2
0,38,84,24
0,69,43,0
0,35,105,14
0,38,95,0
0,41,99,0
0,53,111,0
0,60,55,0
0,65,127,0
0,69,59,44
0,38,56,24
0,52,102,0
0,64,113,0
0,65,93,0
0,69,67,0
0,60,105,1
0,57,108,2
0,38,78,18
0,69,53,0
0,35,105,4
0,36,96,0
0,38,110,0
0,50,102,0
0,62,119,0
0,38,71,22
0,69,56,0
0,38,56,44
0,48,105,0
0,60,125,0
0,65,90,0
0,69,67,0
0,60,105,1
0,57,102,2
0,38,81,21
0,69,59,0
0,35,102,4
0,38,98,0
0,43,87,0
0,69,37,44
0,38,64,14
0,52,102,0
0,64,87,0
0,64,113,0
0,69,67,0
0,60,87,1
0,58,87,2
0,55,90,1
0,38,84,44
0,69,35,0
0,35,105,22
0,36,87,0
0,38,110,0
0,52,90,0
0,64,107,0
0,69,64,20
0,38,65,44
0,52,102,0
0,64,93,0
0,64,119,0
0,69,67,0
0,60,90,1
0,58,99,2
0,55,90,1
0,38,84,14
0,69,43,0
0,35,105,6
0,38,95,0
0,43,87,0
0,52,111,0
0,64,127,0
0,69,59,44
0,38,56,10
0,50,102,0
0,62,116,0
0,64,90,0
0,69,67,0
0,60,90,1
0,58,96,2
0,55,87,1
0,38,78,8
0,69,53,0
0,35,105,14
0,36,90,0
0,38,110,0
0,48,102,0
0,60,116,0
0,38,71,20
0,69,56,0
0,38,56,44
0,60,108,0
0,64,80,0
0,69,67,0
0,72,122,0
0,60,90,1
0,58,90,2
0,55,87,1
0,38,81,15
0,69,59,0
0,35,102,8
0,38,98,0
0,41,93,0
0,69,37,44
0,38,64,16
0,57,102,0
0,65,96,0
0,69,92,0
0,69,67,0
0,60,105,1
0,57,87,2
0,38,84,44
0,69,35,0
0,35,105,3
0,36,102,0
0,38,110,0
0,57,102,0
0,69,110,0
0,69,64,14
0,38,65,44
0,55,96,0
0,65,96,0
0,67,116,0
0,69,67,0
0,60,96,1
0,57,90,2
0,38,84,16
0,69,43,0
0,35,105,4
0,38,82,0
0,38,95,0
0,54,108,0
0,66,116,0
0,69,59,44
0,38,56,8
0,55,90,0
0,66,87,0
0,67,104,0
0,69,67,0
0,60,90,1
0,57,87,2
0,38,78,2
0,69,53,0
0,33,99,10
0,35,105,0
0,38,110,0
0,57,102,0
0,69,119,0
0,38,71,12
0,69,56,0
0,38,56,44
0,55,105,0
0,66,102,0
0,67,127,0
0,69,67,0
0,60,93,1
0,57,96,2
0,38,81,0
0,69,59,0
0,35,102,44
0,38,98,0
0,43,93,0
0,69,37,44
0,38,64,44
0,55,102,0
0,65,90,0
0,69,67,0
0,62,82,1
0,58,93,2
0,55,93,1
0,67,113,4
0,38,84,40
0,69,35,0
0,35,105,1
0,38,102,0
0,38,110,0
0,55,96,0
0,67,110,8
0,69,64,2
0,38,65,44
0,53,108,0
0,65,93,0
0,69,67,0
0,62,90,1
0,58,99,2
0,55,96,1
0,65,113,6
0,38,84,10
0,69,43,0
0,35,105,26
0,36,87,0
0,38,95,0
0,52,99,0
0,64,116,14
0,69,59,30
0,38,56,18
0,53,105,0
0,64,78,0
0,69,67,0
0,60,96,1
0,58,93,1
0,55,90,1
0,65,110,0
0,38,78,8
0,69,53,0
0,35,105,6
0,38,110,0
0,43,87,0
0,55,108,0
0,67,116,2
0,38,71,12
0,69,56,0
0,38,56,44
0,53,102,0
0,64,90,0
0,69,67,0
0,60,87,1
0,58,93,2
0,55,93,1
0,65,104,4
0,38,81,12
0,69,59,0
0,35,102,22
0,38,98,0
0,41,99,0
0,69,37,44
0,38,64,44
0,65,90,0
0,69,67,0
0,60,87,1
0,57,82,2
0,38,84,12
0,69,35,0
0,35,105,2
0,36,80,0
