track,note,velocity,time
1,29,105,838
1,29,0,41
1,29,99,18
1,29,0,42
1,29,105,17
1,29,0,52
1,29,101,8
1,29,0,43
1,29,103,17
1,29,0,52
1,29,101,10
1,29,0,41
1,29,100,19
1,29,0,54
1,32,106,5
1,32,0,58
1,34,106,63
1,34,0,111
1,34,102,9
1,34,0,41
1,34,99,19
1,34,0,41
1,34,102,19
1,34,0,41
1,34,100,18
1,34,0,42
1,34,102,19
1,34,0,41
1,36,104,18
1,36,0,51
1,36,99,10
1,36,0,41
1,36,102,18
1,36,0,42
1,36,100,18
1,36,0,42
1,36,102,17
1,36,0,52
1,36,102,10
1,36,0,41
1,36,101,19
1,36,0,41
1,39,105,19
1,39,0,54
1,36,108,65
1,36,0,342
1,29,105,18
1,29,0,53
1,34,108,8
1,34,0,170
1,42,109,9
1,43,109,1
1,42,0,19
1,43,0,43
1,41,103,58
1,41,0,71
1,38,101,49
1,38,0,57
1,34,103,1
1,34,0,173
1,42,109,7
1,43,110,2
1,42,0,19
1,43,0,38
1,41,104,63
1,41,0,57
1,38,103,62
1,38,0,61
1,34,109,0
1,34,0,177
1,42,111,3
1,43,111,0
1,42,0,19
1,43,0,38
1,41,103,63
1,41,0,61
1,38,104,59
1,38,0,54
1,34,110,6
1,34,0,177
1,42,108,3
1,43,108,0
1,42,0,13
1,43,0,47
1,41,99,60
1,41,0,81
1,38,104,39
1,38,0,51
1,29,103,7
1,37,106,182
1,38,106,0
1,29,0,1
1,37,0,18
1,38,0,38
1,36,104,63
1,36,0,57
1,33,100,61
1,29,102,60
1,33,0,1
1,37,109,181
1,38,109,0
1,29,0,1
1,37,0,18
1,38,0,38
1,36,103,63
1,36,0,61
1,33,100,57
1,33,0,59
1,29,102,2
1,37,111,181
1,38,111,0
1,29,0,1
1,37,0,18
1,38,0,38
1,36,104,63
1,36,0,61
1,33,103,57
1,33,0,59
1,29,102,1
1,37,105,182
1,38,105,0
1,29,0,1
1,37,0,18
1,38,0,38
1,36,105,63
1,36,0,62
1,29,97,56
1,34,107,60
1,29,0,3
1,34,0,169
1,42,108,10
1,43,108,0
1,42,0,19
1,43,0,40
1,41,102,61
1,41,0,59
1,38,104,61
1,38,0,57
1,34,102,1
1,34,0,182
1,42,110,0
1,43,110,0
1,42,0,19
1,43,0,40
1,41,104,61
1,41,0,59
1,38,104,61
1,38,0,59
1,34,102,1
1,34,0,171
1,42,109,9
1,43,109,0
1,42,0,19
1,43,0,38
1,41,100,63
1,41,0,58
1,38,104,62
1,38,0,57
1,34,102,3
1,34,0,170
1,42,111,10
1,43,111,0
1,42,0,19
1,43,0,38
1,41,101,63
1,41,0,71
1,38,99,49
1,38,0,51
1,29,106,7
1,29,102,1
1,29,0,72
1,37,105,109
1,38,105,0
1,29,0,1
1,37,0,18
1,38,0,38
1,36,105,63
1,36,0,62
1,29,97,57
1,34,107,60
1,29,0,2
1,34,0,169
1,42,108,10
1,43,108,0
1,42,0,19
1,43,0,40
1,41,102,61
1,41,0,59
1,38,104,61
1,38,0,57
1,29,102,2
1,37,105,181
1,38,105,0
1,29,0,1
1,37,0,18
1,38,0,38
1,36,105,63
1,36,0,62
1,29,97,57
1,34,107,60
1,29,0,2
1,34,0,169
1,42,108,10
1,43,108,0
1,42,0,19
1,43,0,40
1,41,102,61
1,41,0,59
1,38,104,61
1,38,0,57
1,29,107,3
1,29,0,59
1,29,105,421
1,29,0,41
1,29,99,18
1,29,0,42
1,29,105,17
1,29,0,52
1,29,101,8
1,29,0,43
1,29,103,17
1,29,0,52
1,29,101,10
1,29,0,41
1,29,100,19
1,29,0,54
1,32,106,5
1,32,0,58
1,34,106,63
1,34,0,111
1,34,102,9
1,34,0,41
1,34,99,19
1,34,0,41
1,34,102,19
1,34,0,41
1,34,100,18
1,34,0,42
1,34,102,19
1,34,0,41
1,36,104,18
1,36,0,51
1,36,99,10
1,36,0,41
1,36,102,18
1,36,0,42
1,36,100,18
1,36,0,42
1,36,102,17
1,36,0,52
1,36,102,10
1,36,0,41
1,36,101,19
1,36,0,41
1,39,105,19
1,39,0,54
1,36,108,65
1,36,0,342
1,29,91,18
1,29,0,60
1,34,108,1
1,34,0,170
1,42,109,9
1,43,109,1
1,42,0,19
1,43,0,43
1,41,103,58
1,41,0,71
1,38,101,49
1,38,0,59
1,34,103,0
1,34,0,173
1,42,109,6
1,43,110,2
1,42,0,19
1,43,0,38
1,41,104,63
1,41,0,57
1,38,103,62
1,38,0,61
1,34,109,0
1,34,0,177
1,42,111,3
1,43,111,0
1,42,0,19
1,43,0,38
1,41,103,63
1,41,0,61
1,38,104,59
1,38,0,54
1,34,110,6
1,34,0,177
1,42,108,3
1,43,108,0
1,42,0,13
1,43,0,47
1,41,99,60
1,41,0,81
1,38,104,39
1,38,0,51
1,29,103,7
1,37,106,182
1,38,106,0
1,29,0,1
1,37,0,18
1,38,0,38
1,36,104,63
1,36,0,57
1,33,100,61
1,29,102,60
1,33,0,1
1,37,109,181
1,38,109,0
1,29,0,1
1,37,0,18
1,38,0,38
1,36,103,63
1,36,0,61
1,33,100,57
1,33,0,59
1,29,102,2
1,37,111,181
1,38,111,0
1,29,0,1
1,37,0,18
1,38,0,38
1,36,104,63
1,36,0,61
1,33,103,57
1,33,0,59
1,29,102,1
1,37,105,182
1,38,105,0
1,29,0,1
1,37,0,18
1,38,0,38
1,36,105,63
1,36,0,62
1,29,97,56
1,34,107,60
1,29,0,3
1,34,0,169
1,42,108,10
1,43,108,0
1,42,0,19
1,43,0,40
1,41,102,61
1,41,0,59
1,38,104,61
1,38,0,57
1,34,102,1
1,34,0,182
1,42,110,0
1,43,110,0
1,42,0,19
1,43,0,40
1,41,104,61
1,41,0,59
1,38,104,61
1,38,0,59
1,34,102,1
1,34,0,171
1,42,109,9
1,43,109,0
1,42,0,19
1,43,0,38
1,41,100,63
1,41,0,58
1,38,104,62
1,38,0,57
1,34,102,3
1,34,0,170
1,42,111,10
1,43,111,0
1,42,0,19
1,43,0,38
1,41,101,63
1,41,0,71
1,38,99,49
1,38,0,51
1,29,106,7
1,29,102,1
1,29,0,72
1,37,105,109
1,38,105,0
1,29,0,1
1,37,0,18
1,38,0,38
1,36,105,63
1,36,0,62
1,29,97,57
1,34,107,60
1,29,0,2
1,34,0,169
1,42,108,10
1,43,108,0
1,42,0,19
1,43,0,40
1,41,102,61
1,41,0,59
1,38,104,61
1,38,0,57
1,29,102,2
1,37,105,181
1,38,105,0
1,29,0,1
1,37,0,18
1,38,0,38
1,36,105,63
1,36,0,62
1,29,97,57
1,34,107,60
1,29,0,2
1,34,0,169
1,42,108,10
1,43,108,0
1,42,0,19
1,43,0,40
1,41,102,61
1,41,0,59
1,38,104,61
1,38,0,57
1,29,107,3
1,29,0,59
1,29,105,421
1,29,0,41
1,29,99,18
1,29,0,42
1,29,105,17
1,29,0,52
1,29,101,8
1,29,0,43
1,29,103,17
1,29,0,52
1,29,101,10
1,29,0,41
1,29,100,19
1,29,0,54
1,32,106,5
1,32,0,58
1,34,106,63
1,34,0,111
1,34,102,9
1,34,0,41
1,34,99,19
1,34,0,41
1,34,102,19
1,34,0,41
1,34,100,18
1,34,0,42
1,34,102,19
1,34,0,41
1,36,104,18
1,36,0,51
1,36,99,10
1,36,0,41
1,36,102,18
1,36,0,42
1,36,100,18
1,36,0,42
1,36,102,17
1,36,0,43
1,36,102,32
1,36,0,37
1,36,101,10
1,36,0,41
1,39,105,19
1,39,0,54
1,36,108,65
1,36,0,60
1,34,108,62
1,34,0,56
1,32,108,76
1,32,0,48
1,31,102,118
1,31,0,51
1,31,91,9
1,31,0,51
1,31,102,9
1,31,0,51
1,31,89,9
1,31,0,51
1,31,102,9
1,31,0,51
1,31,94,9
1,31,0,51
1,31,102,9
1,31,0,51
1,31,89,9
1,31,0,51
1,33,102,9
1,33,0,51
1,33,91,9
1,33,0,51
1,33,102,9
1,33,0,51
1,33,89,9
1,33,0,51
1,33,102,9
1,33,0,51
1,33,94,9
1,33,0,51
1,33,102,9
1,33,0,51
1,33,89,9
1,33,102,1
1,33,0,50
1,33,0,0
1,34,91,10
1,34,0,50
1,34,102,10
1,34,0,50
1,34,89,10
1,34,0,50
1,34,102,10
1,34,0,50
1,34,94,10
1,34,0,50
1,34,102,10
1,34,0,50
1,34,89,10
1,34,0,50
1,34,89,9
1,34,0,51
1,37,89,9
1,37,0,51
1,36,89,189
1,36,0,51
1,34,108,190
1,34,0,170
1,42,109,9
1,43,109,1
1,42,0,19
1,43,0,43
1,41,103,58
1,41,0,71
1,38,101,49
1,38,0,59
1,34,103,0
1,34,0,173
1,42,109,6
1,43,110,2
1,42,0,19
1,43,0,38
1,41,104,63
1,41,0,57
1,38,103,62
1,38,0,61
1,34,109,0
1,34,0,177
1,42,111,3
1,43,111,0
1,42,0,19
1,43,0,38
1,41,103,63
1,41,0,61
1,38,104,59
1,38,0,59
1,34,110,1
1,34,0,177
1,42,108,3
1,43,108,0
1,42,0,13
1,43,0,47
1,41,99,60
1,41,0,81
1,38,104,39
1,29,103,58
1,38,0,1
1,37,106,181
1,38,106,0
1,29,0,1
1,37,0,18
1,38,0,38
1,36,104,63
1,36,0,57
1,33,100,61
1,29,102,60
1,33,0,13
1,37,109,169
1,38,109,0
1,29,0,1
1,37,0,18
1,38,0,38
1,36,103,63
1,36,0,61
1,33,100,57
1,33,0,59
1,29,102,2
1,37,111,181
1,38,111,0
1,29,0,1
1,37,0,18
1,38,0,38
1,36,104,63
1,36,0,61
1,33,103,57
1,29,102,60
1,33,0,1
1,37,105,181
1,38,105,0
1,29,0,1
1,37,0,18
1,38,0,38
1,36,105,63
1,36,0,62
1,29,97,56
1,34,107,60
1,29,0,3
1,34,0,169
1,42,108,10
1,43,108,0
1,42,0,19
1,43,0,40
1,41,102,61
1,41,0,59
1,38,104,61
1,38,0,57
1,34,102,1
1,34,0,182
1,42,110,0
1,43,110,0
1,42,0,19
1,43,0,40
1,41,104,61
1,41,0,59
1,38,104,61
1,38,0,59
1,34,102,1
1,34,0,171
1,42,109,9
1,43,109,0
1,42,0,19
1,43,0,38
1,41,100,63
1,41,0,58
1,38,104,62
1,38,0,57
1,34,102,3
1,34,0,170
1,42,111,10
1,43,111,0
1,42,0,19
1,43,0,38
1,41,101,63
1,41,0,71
1,38,99,49
1,38,0,51
1,29,106,7
1,29,102,1
1,29,0,72
1,37,105,109
1,38,105,0
1,29,0,1
1,37,0,18
1,38,0,38
1,36,105,63
1,36,0,62
1,29,97,57
1,34,107,60
1,29,0,2
1,34,0,169
1,42,108,10
1,43,108,0
1,42,0,19
1,43,0,40
1,41,102,61
1,41,0,59
1,38,104,61
1,38,0,57
1,29,102,2
1,37,105,181
1,38,105,0
1,29,0,1
1,37,0,18
1,38,0,38
1,36,105,63
1,36,0,62
1,29,97,57
1,34,107,60
1,29,0,2
1,34,0,169
1,42,108,10
1,43,108,0
1,42,0,19
1,43,0,40
1,41,102,61
1,41,0,59
1,38,104,61
1,38,0,57
1,29,107,3
1,29,0,59
1,29,105,421
1,29,0,41
1,29,99,18
1,29,0,42
1,29,105,17
1,29,0,52
1,29,101,8
1,29,0,43
1,29,103,17
1,29,0,52
1,29,101,10
1,29,0,41
1,29,100,19
1,29,0,54
1,32,106,5
1,32,0,58
1,34,106,63
1,34,0,111
1,34,102,9
1,34,0,41
1,34,99,19
1,34,0,41
1,34,102,19
1,34,0,41
1,34,100,18
1,34,0,42
1,34,102,19
1,34,0,41
1,36,104,18
1,36,0,51
1,36,99,10
1,36,0,41
1,36,102,18
1,36,0,42
1,36,100,18
1,36,0,42
1,36,102,17
1,36,0,43
1,36,102,32
1,36,0,37
1,36,101,10
1,36,0,41
1,39,105,19
1,39,0,54
1,36,108,65
1,36,0,60
1,34,108,62
1,34,0,56
1,32,108,76
1,32,0,48
1,27,103,58
1,27,0,60
1,29,110,0
1,37,106,181
1,38,106,0
1,29,0,1
1,37,0,18
1,38,0,38
1,36,104,63
1,36,0,57
1,29,100,61
1,29,0,61
1,34,102,1
1,34,0,171
1,42,109,9
1,43,109,0
1,42,0,19
1,43,0,38
1,41,100,63
1,41,0,58
1,38,104,62
1,38,0,57
1,29,102,2
1,37,106,181
1,38,106,0
1,29,0,1
1,37,0,18
1,38,0,38
1,36,104,63
1,36,0,57
1,29,100,61
1,29,0,61
1,34,102,1
1,34,0,171
1,42,109,9
1,43,109,0
1,42,0,19
1,43,0,38
1,41,100,63
1,41,0,58
1,38,104,62
1,38,0,57
1,29,102,2
1,37,106,181
1,38,106,0
1,29,0,1
1,37,0,18
1,38,0,38
1,36,104,63
1,36,0,57
1,29,100,61
1,29,0,61
1,34,102,1
1,34,0,171
1,42,109,9
1,43,109,0
1,42,0,19
1,43,0,38
1,41,100,63
1,41,0,58
1,38,104,62
1,38,0,57
1,29,102,2
1,37,106,181
1,38,106,0
1,29,0,1
1,37,0,18
1,38,0,38
1,36,104,63
1,36,0,9
1,29,100,13
1,29,0,7
1,34,102,1
1,34,0,16
1,42,109,9
1,43,109,0
1,42,0,14
1,43,0,15
1,41,100,4
1,41,0,38
1,38,104,16
1,38,0,4
1,29,102,2
1,37,106,10
1,38,106,0
1,29,0,1
1,37,0,3
1,38,0,2
1,36,104,15
1,36,0,19
1,29,100,13
1,29,0,3
1,34,102,1
1,34,0,21
1,42,109,9
1,43,109,0
1,42,0,14
1,43,0,38
1,41,100,4
1,41,0,58
1,38,104,13
1,38,0,5
1,29,102,2
1,37,106,30
1,38,106,0
1,29,0,1
1,37,0,6
1,38,0,2
1,36,104,11
1,36,0,35
1,29,100,21
1,29,0,9
1,34,102,1
1,34,0,46
1,42,109,4
1,43,109,0
1,42,0,19
1,43,0,28
1,41,100,25
1,41,0,14
1,38,104,7
1,38,0,5
1,29,102,2
1,37,106,15
1,38,106,0
1,29,0,1
1,37,0,18
1,38,0,15
1,36,104,35
1,36,0,17
1,29,100,12
1,29,0,6
1,34,102,1
1,34,0,28
1,42,109,9
1,43,109,0
1,42,0,19
1,43,0,18
1,41,100,3
1,41,0,23
1,38,104,34
1,38,0,8
1,29,102,2
1,37,106,91
1,38,106,0
1,29,0,1
1,37,0,13
1,38,0,38
1,36,104,15
1,36,0,22
1,29,100,61
1,29,0,21
1,34,102,1
1,34,0,2
1,42,109,9
1,43,109,0
1,42,0,19
1,43,0,5
1,41,100,63
1,41,0,18
1,38,104,41
1,38,0,9
1,29,102,2
1,37,106,24
1,38,106,0
1,29,0,1
1,37,0,18
1,38,0,38
1,36,104,32
1,36,0,16
1,29,100,21
1,29,0,35
2,57,86,825
2,41,86,4
2,41,0,402
2,57,0,6
2,44,83,12
2,60,83,1
2,44,0,16
2,60,0,13
2,46,83,88
2,62,83,2
2,46,0,401
2,62,0,1
2,64,82,10
2,48,82,4
2,48,0,405
2,64,0,8
2,51,88,9
2,67,88,2
2,67,0,30
2,51,0,2
2,64,81,87
2,48,81,2
2,48,0,395
2,64,0,12
2,40,70,5709
2,40,0,60
2,41,76,0
2,41,0,30
2,65,89,152
2,69,89,0
2,69,0,105
2,65,0,0
2,69,81,13
2,65,81,3
2,69,0,15
2,65,0,3
2,45,71,100
2,46,78,59
2,45,0,1
2,46,0,29
2,62,85,152
2,70,85,2
2,62,0,103
2,70,0,2
2,70,83,12
2,62,83,2
2,70,0,16
2,62,0,2
2,40,72,102
2,41,80,57
2,40,0,3
2,41,0,27
2,65,84,152
2,69,84,1
2,65,0,104
2,69,0,1
2,65,79,14
2,69,79,2
2,65,0,14
2,69,0,2
2,45,61,103
2,46,71,58
2,45,0,2
2,46,0,28
2,62,85,151
2,70,85,1
2,62,0,105
2,70,0,1
2,62,80,11
2,70,80,1
2,62,0,15
2,70,0,2
2,40,72,105
2,41,72,57
2,40,0,3
2,41,0,42
2,57,85,435
2,41,85,4
2,57,0,399
2,41,0,3
2,44,88,15
2,60,88,3
2,44,0,26
2,60,0,6
2,46,87,83
2,62,87,3
