track,note,velocity,time
1,26,125,2208
1,26,126,208
1,26,125,986
1,26,126,136
1,26,125,948
1,26,125,160
1,26,126,960
1,26,125,164
1,26,125,876
1,26,126,208
1,26,125,986
1,26,126,136
1,26,125,948
1,26,125,160
1,26,126,960
1,26,125,164
1,26,125,876
1,26,126,208
1,26,125,986
1,26,126,136
1,26,125,948
1,26,125,160
1,26,126,960
1,26,125,164
1,26,125,876
1,26,126,208
1,26,125,986
1,26,126,136
1,26,125,948
1,26,125,160
1,26,126,960
1,26,125,164
1,31,123,204
1,43,120,306
1,43,123,124
1,31,120,24
1,43,123,32
1,31,120,32
1,33,113,56
1,45,120,176
1,45,120,224
1,33,123,24
1,36,123,32
1,38,110,2
1,31,123,26
1,43,123,272
1,43,123,142
1,31,125,40
1,43,123,50
1,31,123,42
1,33,120,58
1,33,123,152
1,33,123,202
1,45,120,28
1,36,123,8
1,38,117,12
1,31,125,14
1,43,123,258
1,43,123,120
1,31,123,22
1,43,123,22
1,31,120,6
1,33,120,72
1,45,113,248
1,45,120,120
1,33,117,20
1,45,120,30
1,33,120,10
1,31,125,98
1,33,123,188
1,34,120,144
1,36,123,138
1,38,110,128
1,26,113,4
1,38,107,24
1,38,113,620
1,26,113,14
1,33,120,108
1,38,110,104
1,29,125,6
1,41,117,616
1,29,101,16
1,29,110,114
1,31,110,46
1,34,109,100
1,34,96,192
1,46,109,44
1,46,104,118
1,34,100,96
1,46,109,32
1,28,107,76
1,40,117,24
1,33,107,16
1,33,107,98
1,33,104,118
1,45,104,34
1,33,117,36
1,38,107,74
1,38,107,488
1,26,110,4
1,26,104,110
1,26,110,120
1,38,107,20
1,29,120,88
1,41,113,16
1,29,99,4
1,29,107,568
1,41,110,22
1,41,110,88
1,33,120,26
1,34,114,48
1,46,114,220
1,34,100,8
1,34,114,126
1,46,104,30
1,34,114,192
1,46,104,96
1,28,110,52
1,40,117,4
1,28,107,0
1,33,120,42
1,38,117,1256
1,38,120,186
1,38,120,936
1,38,120,162
1,38,120,960
1,38,120,198
1,38,123,886
1,38,120,194
1,26,125,928
1,26,126,208
1,26,125,986
1,26,126,136
1,26,125,948
1,26,125,160
1,26,126,960
1,26,125,164
1,26,125,876
1,26,126,208
1,26,125,986
1,26,126,136
1,26,125,948
1,26,125,160
1,26,126,960
1,26,125,164
1,31,123,204
1,43,120,306
1,43,123,124
1,31,120,24
1,43,123,32
1,31,120,32
1,33,113,56
1,45,120,176
1,45,120,224
1,33,123,24
1,36,123,32
1,38,110,2
1,31,123,26
1,43,123,272
1,43,123,142
1,31,125,40
1,43,123,50
1,31,123,42
1,33,120,58
1,33,123,152
1,33,123,202
1,45,120,28
1,36,123,8
1,38,117,12
1,31,125,14
1,43,123,258
1,43,123,120
1,31,123,22
1,43,123,22
1,31,120,6
1,33,120,72
1,45,113,248
1,45,120,120
1,33,117,20
1,45,120,30
1,33,120,10
1,31,125,98
1,33,123,188
1,34,120,144
1,36,123,138
1,38,110,128
1,26,113,4
1,38,107,24
1,38,113,620
1,26,113,14
1,33,120,108
1,38,110,104
1,29,125,6
1,41,117,616
1,29,101,16
1,29,110,114
1,31,110,46
1,34,109,100
1,34,96,192
1,46,109,44
1,46,104,118
1,34,100,96
1,46,109,32
1,28,107,76
1,40,117,24
1,33,107,16
1,33,107,98
1,33,104,118
1,45,104,34
1,33,117,36
1,38,107,74
1,38,107,488
1,26,110,4
1,26,104,110
1,26,110,120
1,38,107,20
1,29,120,88
1,41,113,16
1,29,99,4
1,29,107,568
1,41,110,22
1,41,110,88
1,33,120,26
1,34,114,48
1,46,114,220
1,34,100,8
1,34,114,126
1,46,104,30
1,34,114,192
1,46,104,96
1,28,110,52
1,40,117,4
1,28,107,0
1,33,120,42
1,46,114,584
1,34,100,192
1,46,96,32
1,46,92,92
1,34,96,40
1,34,89,106
1,46,92,46
1,34,109,192
1,46,100,22
1,36,97,192
1,36,85,76
1,48,94,8
1,36,86,8
1,48,79,16
1,45,80,96
1,43,97,0
1,36,97,8
1,48,88,192
1,36,88,6
1,48,80,22
1,33,97,0
1,45,86,24
1,45,97,86
1,33,90,10
1,45,86,64
1,40,66,30
1,33,90,8
1,45,88,0
1,38,101,58
1,36,110,38
1,38,99,56
1,38,110,76
1,33,120,16
1,31,101,32
1,43,90,8
1,31,90,102
1,43,85,34
1,43,86,84
1,43,79,8
1,31,83,192
1,43,83,20
1,33,104,10
1,45,101,30
1,45,99,80
1,45,101,194
1,40,94,6
1,33,97,12
1,45,88,4
1,33,110,192
1,34,104,102
1,46,109,40
1,46,96,120
1,34,114,92
1,46,109,24
1,34,109,192
1,46,104,20
1,34,109,192
1,46,100,26
1,36,120,12
1,48,117,56
1,48,107,96
1,26,125,1280
1,26,126,208
1,26,125,986
1,26,126,136
1,26,125,948
1,26,125,160
1,26,126,960
1,26,125,164
1,26,125,876
1,26,126,208
1,26,125,986
1,26,126,136
1,26,125,948
1,26,125,160
1,26,126,960
1,26,125,164
1,31,123,204
1,43,120,306
1,43,123,124
1,31,120,24
1,43,123,32
1,31,120,32
1,33,113,56
1,45,120,176
1,45,120,224
1,33,123,24
1,36,123,32
1,38,110,2
1,31,123,26
1,43,123,272
1,43,123,142
1,31,125,40
1,43,123,50
1,31,123,42
1,33,120,58
1,33,123,152
1,33,123,202
1,45,120,28
1,36,123,8
1,38,117,12
1,31,125,14
1,43,123,258
1,43,123,120
1,31,123,22
1,43,123,22
1,31,120,6
1,33,120,72
1,45,113,248
1,45,120,120
1,33,117,20
1,45,120,30
1,33,120,10
1,31,125,98
1,33,123,188
1,34,120,144
1,36,123,138
1,38,125,128
1,38,125,5998
1,38,110,5998
1,26,113,4
1,38,107,24
1,38,113,620
1,26,113,14
1,33,120,108
1,38,110,104
1,29,125,6
1,41,117,616
1,29,101,16
1,29,110,114
1,31,110,46
1,34,109,100
1,34,96,192
1,46,109,44
1,46,104,118
1,34,100,96
1,46,109,32
1,28,107,76
1,40,117,24
1,33,107,16
1,33,107,98
1,33,104,118
1,45,104,34
1,33,117,36
1,38,110,74
1,26,113,4
1,38,107,24
1,38,113,620
1,26,113,14
1,33,120,108
1,38,110,104
1,29,125,6
1,41,117,616
1,29,101,16
1,29,110,114
1,31,110,46
1,34,109,100
1,34,96,192
1,46,109,44
1,46,104,118
1,34,100,96
1,46,109,32
1,28,107,76
1,40,117,24
1,33,107,16
1,33,107,98
1,33,104,118
1,45,104,34
1,33,117,36
1,38,110,74
1,26,113,4
1,38,107,24
1,38,113,620
1,26,113,14
1,33,120,108
1,38,110,104
1,29,125,6
1,41,117,616
1,29,101,16
1,29,110,114
1,31,110,46
1,34,109,100
1,34,96,192
1,46,109,44
1,46,104,118
1,34,100,96
1,46,109,32
1,28,107,76
1,40,117,24
1,33,107,16
1,33,107,98
1,33,104,118
1,45,104,34
1,33,117,36
1,38,110,74
1,26,113,4
1,38,107,24
1,38,113,620
1,26,113,14
1,33,120,108
1,38,110,104
1,29,125,6
1,41,117,616
1,29,101,16
1,29,110,114
1,31,110,46
1,34,109,100
1,34,96,192
1,46,109,44
1,46,104,118
1,34,100,96
1,46,109,32
1,28,107,76
1,40,117,24
1,33,107,16
1,33,107,98
1,33,104,118
1,45,104,34
1,33,117,36
1,38,110,74
1,26,113,4
1,38,107,24
1,38,113,620
1,26,113,14
1,33,120,108
1,38,110,104
1,29,125,6
1,41,117,616
1,29,101,16
1,29,110,114
1,31,110,46
1,34,109,100
1,34,96,192
1,46,109,44
1,46,104,118
1,34,100,96
1,46,109,32
1,28,107,76
1,40,117,24
1,33,107,16
1,33,107,98
1,33,104,118
1,45,104,34
1,33,117,36
1,38,110,74
1,26,113,4
1,38,107,24
1,38,113,620
1,26,113,14
1,33,120,108
1,38,110,104
1,29,125,6
1,41,117,616
1,29,101,16
1,29,110,114
1,31,110,46
1,34,109,100
1,34,96,192
1,46,109,44
1,46,104,118
1,34,100,96
1,46,109,32
1,38,125,1612
2,38,125,2208
2,38,126,208
2,38,125,986
2,38,126,136
2,38,125,948
2,38,125,160
2,38,126,960
2,38,125,164
2,38,125,876
2,38,126,208
2,38,125,986
2,38,126,136
2,38,125,948
2,38,125,160
2,38,126,960
2,38,125,164
2,57,120,204
2,60,120,0
2,65,120,0
2,38,125,576
2,38,126,208
2,38,125,986
2,38,126,136
2,62,120,84
2,62,123,152
2,62,117,64
2,50,125,44
2,38,125,414
2,38,125,160
2,38,126,960
2,38,125,164
2,57,120,204
2,60,120,0
2,65,120,0
2,38,125,576
2,38,126,208
2,60,123,192
2,60,125,218
2,59,123,80
2,38,125,432
2,60,123,96
2,59,123,136
2,38,126,0
2,57,123,146
2,59,125,84
2,62,123,40
2,38,125,712
2,38,125,160
2,38,126,960
2,38,125,164
2,57,99,204
2,62,86,0
2,58,92,0
2,53,85,0
2,55,97,98
2,62,88,0
2,60,104,0
2,62,82,264
2,57,99,0
2,53,88,0
2,58,89,0
2,55,88,132
2,62,86,0
2,60,97,0
2,62,80,270
2,53,83,0
2,57,86,0
2,58,86,0
2,55,88,116
2,62,80,0
2,60,94,0
2,62,85,264
2,57,97,0
2,53,92,0
2,58,92,0
2,55,90,106
2,60,90,0
2,62,80,0
2,60,88,186
2,62,101,0
2,65,94,0
2,58,96,0
2,62,92,116
2,69,99,0
2,65,104,0
2,58,104,0
2,60,94,0
2,57,110,560
2,62,94,0
2,55,88,40
2,60,88,0
2,62,99,64
2,57,104,0
2,57,104,884
2,62,92,0
2,55,92,68
2,60,85,0
2,62,101,48
2,57,107,0
2,46,114,496
2,57,94,384
2,53,83,0
2,58,92,0
2,62,80,0
2,46,96,152
2,53,78,40
2,62,79,0
2,57,86,0
2,58,81,0
2,46,104,376
2,57,97,32
2,53,76,0
2,58,96,0
2,62,82,0
2,40,97,70
2,52,85,0
2,55,92,0
2,62,82,0
2,52,86,46
2,55,97,0
2,62,86,0
2,52,86,168
2,55,94,0
2,61,96,0
2,45,97,0
2,45,99,52
2,52,71,24
2,55,88,0
2,61,84,0
2,45,107,4
2,57,110,514
2,62,94,0
2,55,88,40
2,60,88,0
2,62,99,64
2,57,104,0
2,57,104,884
2,62,92,0
2,55,92,68
2,60,85,0
2,62,101,48
2,57,107,0
2,46,109,496
2,53,72,192
2,57,86,70
2,53,71,0
2,62,80,0
2,58,86,0
2,46,86,62
2,57,85,40
2,58,81,0
2,53,72,0
2,62,79,0
2,46,100,0
2,57,97,38
2,53,79,0
2,58,89,0
2,62,80,0
2,52,90,250
2,40,107,0
2,55,101,0
2,62,92,0
2,52,85,38
2,55,97,0
2,62,85,0
2,52,101,138
2,55,113,0
2,45,110,0
2,61,109,0
2,50,117,1304
2,50,120,186
2,50,120,936
2,50,120,162
2,50,120,960
2,50,120,198
2,50,123,886
2,50,120,194
2,57,120,256
2,60,120,0
2,65,120,0
2,38,125,576
2,38,126,208
2,38,125,986
2,38,126,136
2,62,120,84
2,62,123,152
2,62,117,64
2,50,125,44
2,38,125,414
2,38,125,160
2,38,126,960
2,38,125,164
2,57,120,204
2,60,120,0
2,65,120,0
2,38,125,576
2,38,126,208
2,60,123,192
2,60,125,218
2,59,123,80
2,38,125,432
2,60,123,96
2,59,123,136
2,38,126,0
2,57,123,146
2,59,125,84
2,62,123,40
2,38,125,712
2,38,125,160
2,38,126,960
2,38,125,164
2,57,99,204
2,62,86,0
2,58,92,0
2,53,85,0
2,55,97,98
2,62,88,0
2,60,104,0
2,62,82,264
2,57,99,0
2,53,88,0
2,58,89,0
2,55,88,132
2,62,86,0
2,60,97,0
2,62,80,270
2,53,83,0
2,57,86,0
2,58,86,0
2,55,88,116
2,62,80,0
2,60,94,0
2,62,85,264
2,57,97,0
2,53,92,0
2,58,92,0
2,55,90,106
2,60,90,0
2,62,80,0
2,60,88,186
2,62,101,0
2,65,94,0
2,58,96,0
2,62,92,116
2,69,99,0
2,65,104,0
2,58,104,0
2,60,94,0
2,57,110,560
2,62,94,0
2,55,88,40
2,60,88,0
2,62,99,64
2,57,104,0
2,57,104,884
2,62,92,0
2,55,92,68
2,60,85,0
2,62,101,48
2,57,107,0
2,46,114,496
2,57,94,384
2,53,83,0
2,58,92,0
2,62,80,0
2,46,96,152
2,53,78,40
2,62,79,0
2,57,86,0
2,58,81,0
2,46,104,376
2,57,97,32
2,53,76,0
2,58,96,0
2,62,82,0
2,40,97,70
2,52,85,0
2,55,92,0
2,62,82,0
2,52,86,46
2,55,97,0
2,62,86,0
2,52,86,168
2,55,94,0
2,61,96,0
2,45,97,0
2,45,99,52
2,52,71,24
2,55,88,0
2,61,84,0
2,45,107,4
2,57,110,514
2,62,94,0
2,55,88,40
2,60,88,0
2,62,99,64
2,57,104,0
2,57,104,884
2,62,92,0
2,55,92,68
2,60,85,0
2,62,101,48
2,57,107,0
2,46,109,496
2,53,72,192
2,57,86,70
2,53,71,0
2,62,80,0
2,58,86,0
2,46,86,62
2,57,85,40
2,58,81,0
2,53,72,0
2,62,79,0
2,46,100,0
2,57,97,38
2,53,79,0
2,58,89,0
2,62,80,0
2,52,90,250
2,40,107,0
2,55,101,0
2,62,92,0
2,52,85,38
2,55,97,0
2,62,85,0
2,72,107,138
2,52,101,0
2,60,101,0
2,55,113,0
2,45,110,0
2,61,109,0
2,70,114,8
2,58,86,0
2,46,114,78
2,65,99,0
2,62,90,0
2,69,97,0
2,48,94,148
2,72,88,0
2,64,79,0
2,69,92,0
2,67,90,0
2,57,88,122
2,64,80,0
2,69,90,0
2,72,82,0
2,55,88,164
2,67,82,0
2,57,92,0
2,62,85,0
2,54,75,60
2,57,80,0
2,66,79,0
2,62,62,0
2,46,109,128
2,62,78,0
2,65,88,0
2,58,96,0
2,69,88,0
2,60,85,64
2,57,80,0
2,64,90,0
2,67,88,0
2,62,86,72
2,65,97,0
2,69,94,0
2,58,92,0
2,60,125,68
2,65,78,0
2,60,75,0
2,72,90,0
2,62,76,0
2,60,117,34
2,60,120,140
2,60,117,136
2,60,123,38
2,72,126,110
2,38,125,1320
2,38,126,208
2,38,125,986
2,38,126,136
2,38,125,948
2,38,125,160
2,38,126,960
2,38,125,164
2,38,125,876
2,38,126,208
2,38,125,986
2,38,126,136
2,38,125,948
2,38,125,160
2,38,126,960
2,38,125,164
2,57,99,204
2,62,86,0
2,58,92,0
2,53,85,0
2,55,97,98
2,62,88,0
2,60,104,0
2,62,82,264
2,57,99,0
2,53,88,0
2,58,89,0
2,55,88,132
2,62,86,0
2,60,97,0
2,62,80,270
2,53,83,0
2,57,86,0
2,58,86,0
2,55,88,116
2,62,80,0
2,60,94,0
2,62,85,264
2,57,97,0
2,53,92,0
2,58,92,0
2,55,90,106
2,60,90,0
2,62,80,0
2,60,88,186
2,62,101,0
2,65,94,0
2,58,96,0
2,62,92,116
2,69,99,0
2,65,104,0
2,58,104,0
2,60,94,0
2,53,107,176
2,50,92,0
2,38,101,0
2,62,97,0
2,53,107,5986
2,50,92,0
2,38,101,0
2,62,97,0
2,57,110,18658
2,62,94,0
2,55,88,40
2,60,88,0
2,62,99,64
2,57,104,0
2,57,104,884
2,62,92,0
2,55,92,68
2,60,85,0
2,62,101,48
2,57,107,0
2,46,114,496
2,57,94,384
2,53,83,0
2,58,92,0
2,62,80,0
2,46,96,152
2,53,78,40
2,62,79,0
2,57,86,0
2,58,81,0
2,46,104,376
2,57,97,32
2,53,76,0
2,58,96,0
2,62,82,0
2,40,97,70
2,52,85,0
2,55,92,0
2,62,82,0
2,52,86,46
2,55,97,0
2,62,86,0
2,52,86,168
2,55,94,0
2,61,96,0
2,45,97,0
2,45,99,52
2,52,71,24
2,55,88,0
2,61,84,0
2,45,107,4
2,57,110,514
2,62,94,0
2,55,88,40
2,60,88,0
2,62,99,64
2,57,104,0
2,57,104,884
2,62,92,0
2,55,92,68
2,60,85,0
2,62,101,48
2,57,107,0
2,46,109,496
2,53,72,192
2,57,86,70
2,53,71,0
2,62,80,0
2,58,86,0
2,46,86,62
2,57,85,40
2,58,81,0
