track,note,velocity,time
1,59,100,60
1,64,100,0
1,64,0,24
1,59,0,0
1,59,100,0
1,64,100,0
1,64,0,60
1,59,0,0
1,59,100,0
1,64,100,0
1,64,0,60
1,59,0,0
1,59,100,0
1,64,100,0
1,64,0,60
1,59,0,0
1,59,100,0
1,64,100,0
1,64,0,60
1,59,0,0
1,57,100,60
1,62,100,0
1,62,0,120
1,57,0,0
1,57,100,0
1,61,100,0
1,61,0,60
1,57,0,0
1,62,100,0
1,57,100,0
1,57,0,60
1,62,0,0
1,57,100,0
1,61,100,0
1,61,0,60
1,57,0,0
1,62,100,0
1,57,100,0
1,57,0,42
1,62,0,0
1,40,100,41
1,40,0,120
1,64,100,0
1,59,100,0
1,59,0,25
1,64,0,0
1,64,100,0
1,59,100,0
1,59,0,60
1,64,0,0
1,64,100,0
1,59,100,0
1,59,0,60
1,64,0,0
1,64,100,0
1,59,100,0
1,59,0,60
1,64,0,0
1,59,100,0
1,64,100,0
1,64,0,60
1,59,0,0
1,62,100,60
1,57,100,0
1,57,0,120
1,62,0,0
1,61,100,0
1,57,100,0
1,57,0,60
1,61,0,0
1,57,100,0
1,62,100,0
1,62,0,60
1,57,0,0
1,57,100,0
1,61,100,0
1,61,0,60
1,57,0,0
1,57,100,0
1,62,100,0
1,62,0,60
1,57,0,0
1,57,100,0
1,61,100,0
1,61,0,60
1,57,0,0
1,40,100,60
1,40,0,120
1,64,100,0
1,59,100,0
1,59,0,18
1,64,0,0
1,59,100,0
1,64,100,0
1,64,0,60
1,59,0,0
1,59,100,0
1,64,100,0
1,64,0,60
1,59,0,0
1,59,100,0
1,64,100,0
1,64,0,60
1,59,0,0
1,59,100,0
1,64,100,0
1,64,0,60
1,59,0,0
1,62,100,60
1,57,100,0
1,57,0,120
1,62,0,0
1,61,100,0
1,57,100,0
1,57,0,60
1,61,0,0
1,57,100,0
1,62,100,0
1,62,0,60
1,57,0,0
1,57,100,0
1,61,100,0
1,61,0,60
1,57,0,0
1,57,100,0
1,62,100,0
1,62,0,37
1,57,0,0
1,64,100,161
1,59,100,0
1,59,0,28
1,64,0,0
1,59,100,0
1,64,100,0
1,64,0,60
1,59,0,0
1,59,100,0
1,64,100,0
1,64,0,60
1,59,0,0
1,59,100,0
1,64,100,0
1,64,0,60
1,59,0,0
1,59,100,0
1,64,100,0
1,64,0,60
1,59,0,0
1,62,100,60
1,57,100,0
1,57,0,120
1,62,0,0
1,57,100,0
1,61,100,0
1,61,0,60
1,57,0,0
1,57,100,0
1,62,100,0
1,62,0,60
1,57,0,0
1,57,100,0
1,61,100,0
1,61,0,60
1,57,0,0
1,57,100,0
1,62,100,0
1,62,0,60
1,57,0,0
1,57,100,0
1,61,100,0
1,61,0,60
1,57,0,0
1,40,100,60
1,40,0,120
1,64,100,0
1,59,100,0
1,59,0,27
1,64,0,0
1,59,100,0
1,64,100,0
1,64,0,60
1,59,0,0
1,59,100,0
1,64,100,0
1,64,0,60
1,59,0,0
1,59,100,0
1,64,100,0
1,64,0,60
1,59,0,0
1,59,100,0
1,64,100,0
1,64,0,60
1,59,0,0
1,62,100,60
1,57,100,0
1,57,0,120
1,62,0,0
1,61,100,0
1,57,100,0
1,57,0,60
1,61,0,0
1,57,100,0
1,62,100,0
1,62,0,2
1,57,0,0
1,57,100,0
1,61,100,0
1,61,0,5
1,57,0,0
1,57,100,0
1,62,100,0
1,62,0,5
1,57,0,0
1,40,100,5
1,40,0,1
1,64,100,0
1,59,100,0
1,59,0,7
1,64,0,0
1,59,100,0
1,64,100,0
1,64,0,20
1,59,0,0
1,59,100,0
1,64,100,0
1,64,0,60
1,59,0,0
1,59,100,0
1,64,100,0
1,64,0,60
1,59,0,0
1,59,100,0
1,64,100,0
1,64,0,60
1,59,0,0
1,40,100,7
1,40,0,2
1,57,100,0
1,62,100,0
1,62,0,3
1,57,0,0
1,57,100,0
1,61,100,0
1,61,0,5
1,57,0,0
1,57,100,0
1,52,100,0
1,52,0,131
1,57,0,0
1,40,100,0
1,40,0,60
1,40,100,0
1,40,0,60
1,50,100,0
1,50,0,60
1,40,100,0
1,40,0,60
1,49,100,0
1,49,0,60
1,47,100,0
1,47,0,60
1,43,100,0
1,43,0,60
1,44,100,0
1,44,0,60
1,40,100,0
1,40,0,60
1,40,100,0
1,40,0,60
1,40,100,0
1,40,0,60
1,40,100,0
1,40,0,60
1,40,100,0
1,40,0,60
1,40,100,0
1,40,0,60
1,40,100,0
1,40,0,60
1,40,100,0
1,40,0,60
1,40,100,0
1,40,0,60
1,40,100,0
1,40,0,60
1,49,100,0
1,49,0,60
1,40,100,0
1,40,0,60
1,49,100,0
1,49,0,60
1,50,100,0
1,50,0,60
1,45,100,0
1,45,0,60
1,47,100,0
1,47,0,60
1,40,100,0
1,40,0,30
1,40,100,30
1,40,0,60
1,40,100,0
1,40,0,60
1,40,100,0
1,40,0,60
1,40,100,0
1,40,0,60
1,40,100,0
1,40,0,60
1,40,100,0
1,40,0,60
1,40,100,0
1,40,0,60
1,40,100,0
1,40,0,60
1,40,100,0
1,40,0,30
1,50,100,0
1,50,0,60
1,40,100,0
1,40,0,3
1,49,100,0
1,49,0,38
1,47,100,0
1,47,0,7
1,43,100,0
1,43,0,58
1,44,100,0
1,44,0,60
1,40,100,0
1,40,0,30
1,40,100,30
1,40,0,20
1,40,100,30
1,40,0,5
1,40,100,1
1,40,0,25
1,40,100,4
1,40,0,3
1,40,100,18
1,40,0,1
1,40,100,5
1,40,0,30
1,40,100,9
1,40,0,14
1,40,100,30
1,40,0,30
1,40,100,1
1,40,0,17
1,49,100,30
1,49,0,60
1,40,100,0
1,40,0,30
1,49,100,10
1,49,0,60
1,50,100,0
1,50,0,60
1,45,100,0
1,45,0,60
1,47,100,0
1,47,0,60
1,40,100,0
1,40,0,30
1,40,100,30
1,40,0,30
1,40,100,30
1,40,0,30
1,40,100,30
1,40,0,30
1,40,100,30
1,40,0,30
1,40,100,30
1,40,0,30
1,40,100,30
1,40,0,30
1,40,100,30
1,40,0,30
1,40,100,30
1,40,0,30
1,64,100,5
1,59,100,0
1,52,100,0
1,52,0,5
1,59,0,0
1,64,0,0
1,40,100,0
1,40,0,1
1,40,100,0
1,40,0,2
1,64,100,0
1,59,100,0
1,52,100,0
1,52,0,4
1,59,0,0
1,64,0,0
1,40,100,0
1,40,0,5
1,40,100,0
1,40,0,4
1,62,100,0
1,57,100,0
1,50,100,0
1,50,0,5
1,57,0,0
1,62,0,0
1,40,100,0
1,40,0,1
1,40,100,0
1,40,0,2
1,57,100,0
1,52,100,0
1,45,100,0
1,45,0,111
1,52,0,0
1,57,0,0
1,40,100,0
1,40,0,5
1,40,100,0
1,40,0,60
1,40,100,0
1,40,0,1
1,64,100,0
1,59,100,0
1,52,100,0
1,52,0,3
1,59,0,0
1,64,0,0
1,40,100,0
1,40,0,5
1,40,100,0
1,40,0,2
1,64,100,0
1,59,100,0
1,52,100,0
1,52,0,5
1,59,0,0
1,64,0,0
1,40,100,0
1,40,0,1
1,40,100,0
1,40,0,2
1,62,100,0
1,57,100,0
1,50,100,0
1,50,0,5
1,57,0,0
1,62,0,0
1,47,100,1
1,52,100,0
1,57,100,0
1,57,0,5
1,52,0,0
1,47,0,0
1,57,100,5
1,52,100,0
1,47,100,0
1,47,0,15
1,52,0,0
1,57,0,0
1,47,100,2
1,47,0,3
1,43,100,0
1,43,0,5
1,40,100,0
1,40,0,5
1,40,100,2
1,40,0,7
1,50,100,3
1,50,0,4
1,40,100,0
1,40,0,9
1,49,100,5
1,49,0,1
1,47,100,0
1,47,0,2
1,43,100,0
1,43,0,2
1,44,100,0
1,44,0,3
1,40,100,0
1,40,0,3
1,40,100,4
1,40,0,4
1,40,100,5
1,40,0,10
1,40,100,2
1,40,0,2
1,40,100,3
1,40,0,3
1,40,100,5
1,40,0,5
1,40,100,1
1,40,0,5
1,40,100,2
1,40,0,7
1,40,100,4
1,40,0,8
1,40,100,6
1,40,0,5
1,49,100,2
1,49,0,3
1,40,100,0
1,40,0,4
1,49,100,5
1,49,0,5
1,50,100,0
1,50,0,46
1,45,100,0
1,45,0,60
1,47,100,0
1,47,0,60
1,40,100,0
1,40,0,30
1,40,100,30
1,40,0,30
1,40,100,30
1,40,0,30
1,40,100,30
1,40,0,30
1,40,100,30
1,40,0,30
1,40,100,30
1,40,0,30
1,40,100,30
1,40,0,30
1,40,100,30
1,40,0,30
1,64,100,30
1,59,100,0
1,52,100,0
1,52,0,120
1,59,0,0
1,64,0,0
1,59,100,60
1,64,100,0
1,64,0,60
1,59,0,0
1,59,100,0
1,59,0,30
1,59,100,30
1,59,0,60
1,59,100,0
1,64,100,0
1,64,0,120
1,59,0,0
1,59,100,0
1,64,100,0
1,64,0,60
1,59,0,0
1,64,100,0
1,59,100,0
1,59,0,60
1,64,0,0
1,59,100,120
1,64,100,0
1,64,0,60
1,59,0,0
1,59,100,0
1,59,0,30
1,59,100,30
1,59,0,60
1,59,100,0
1,64,100,0
1,64,0,60
1,59,0,0
1,59,100,0
1,64,100,0
1,64,0,60
1,59,0,0
1,59,100,0
1,64,100,60
1,59,0,60
1,59,100,0
1,64,0,60
1,64,100,0
1,64,0,60
1,63,100,0
1,59,0,60
1,59,100,0
1,59,0,60
1,63,0,0
1,59,100,0
1,59,0,60
1,64,100,0
1,69,100,0
1,69,0,60
1,64,0,0
1,69,100,0
1,64,100,0
1,64,0,60
1,69,0,0
1,62,100,0
1,67,100,0
1,67,0,60
1,62,0,0
1,64,100,0
1,59,100,0
1,59,0,240
1,64,0,0
1,59,100,0
1,54,100,0
1,47,100,0
1,47,0,30
1,54,0,0
1,59,0,0
1,54,100,0
1,59,100,0
1,47,100,0
1,47,0,30
1,59,0,0
1,54,0,0
1,59,100,0
1,54,100,0
1,47,100,0
1,47,0,360
1,54,0,0
1,59,0,0
1,64,100,60
1,59,100,0
1,56,100,0
1,56,0,60
1,59,0,0
1,64,0,0
1,63,100,60
1,59,100,0
1,54,100,0
1,54,0,60
1,59,0,0
1,63,0,0
1,64,100,60
1,59,100,0
1,56,100,0
1,56,0,60
1,59,0,0
1,64,0,0
1,54,100,60
1,59,100,0
1,63,100,0
1,63,0,60
1,59,0,0
1,54,0,0
1,63,100,60
1,59,100,0
1,54,100,0
1,54,0,30
1,59,0,0
1,63,0,0
1,63,100,0
1,59,100,0
1,54,100,0
1,54,0,30
1,59,0,0
1,63,0,0
1,54,100,0
1,59,100,0
1,47,100,0
1,47,0,420
1,59,0,0
1,54,0,0
1,64,100,0
1,59,100,0
1,56,100,0
1,56,0,120
1,59,0,0
1,64,0,0
1,63,100,0
1,59,100,0
1,54,100,0
1,54,0,120
1,59,0,0
1,63,0,0
1,64,100,0
1,59,100,0
1,56,100,0
1,56,0,120
1,59,0,0
1,64,0,0
1,63,100,0
1,59,100,0
1,54,100,0
1,54,0,120
1,59,0,0
1,63,0,0
1,59,100,0
1,63,100,0
1,54,100,0
1,54,0,1
1,63,0,0
1,59,0,0
1,48,100,0
1,55,100,60
1,62,100,60
1,55,0,59
1,55,100,1
1,62,0,59
1,48,0,0
1,55,0,1
1,43,100,0
1,55,100,60
1,62,100,60
1,55,0,59
1,43,0,0
1,62,0,1
1,50,100,0
1,57,100,60
1,62,100,60
1,66,100,60
1,50,0,59
1,52,100,1
1,57,0,59
1,57,100,1
1,62,0,59
1,62,100,1
1,52,0,59
1,50,100,1
1,57,0,59
1,57,100,1
1,62,0,59
1,50,0,0
1,66,0,0
1,57,0,1
1,48,100,0
1,55,100,60
1,62,100,60
1,55,0,59
1,55,100,1
1,62,0,59
1,48,0,0
1,55,0,1
1,43,100,0
1,55,100,60
1,62,100,60
1,55,0,59
1,43,0,0
1,62,0,1
1,50,100,0
1,57,100,60
1,62,100,60
1,57,0,59
1,57,100,1
1,57,0,59
1,50,0,0
1,45,100,1
1,62,0,59
1,62,100,1
1,57,100,60
1,62,0,59
1,45,0,0
1,57,0,1
1,47,100,0
1,55,100,60
1,47,0,59
1,55,0,1
1,48,100,0
1,55,100,60
1,62,100,60
1,55,0,59
1,55,100,1
1,62,0,59
1,48,0,0
1,55,0,1
1,43,100,0
1,55,100,60
1,62,100,60
1,55,0,59
1,43,0,0
1,62,0,1
1,50,100,0
1,50,0,60
1,57,100,0
1,62,100,60
1,57,0,59
1,66,100,1
1,66,0,59
1,52,100,1
1,62,0,59
1,57,100,1
1,62,100,60
1,57,0,59
1,52,0,0
1,62,0,1
1,50,100,0
1,57,100,60
1,50,0,59
1,57,0,1
1,48,100,0
1,55,100,60
1,62,100,60
1,55,0,59
1,55,100,1
1,62,0,59
1,48,0,0
1,55,0,1
1,43,100,0
1,55,100,60
1,62,100,60
1,55,0,59
1,43,0,0
1,62,0,1
1,50,100,0
1,50,0,60
1,57,100,0
1,62,100,60
1,57,0,59
1,57,100,1
1,57,0,59
1,45,100,1
1,62,0,59
1,62,100,1
1,57,100,60
1,62,0,59
1,45,0,0
1,57,0,1
1,47,100,0
1,55,100,60
1,47,0,59
1,55,0,1
1,52,100,0
1,47,100,0
1,40,100,0
1,40,0,60
1,47,0,0
1,52,0,0
1,47,100,0
1,52,100,0
1,40,100,0
1,40,0,60
1,52,0,0
1,47,0,0
1,47,100,0
1,52,100,0
1,40,100,0
1,40,0,120
1,52,0,0
1,47,0,0
1,40,100,1680
1,40,0,60
1,64,100,0
1,59,100,0
1,59,0,18
1,64,0,0
1,59,100,0
1,64,100,0
1,64,0,60
1,59,0,0
1,59,100,0
1,64,100,0
1,64,0,60
1,59,0,0
1,59,100,0
1,64,100,0
1,64,0,60
1,59,0,0
1,59,100,0
1,64,100,0
1,64,0,60
1,59,0,0
1,62,100,60
1,57,100,0
1,57,0,120
1,62,0,0
1,61,100,0
1,57,100,0
1,57,0,60
1,61,0,0
1,57,100,0
1,62,100,0
1,62,0,60
1,57,0,0
1,57,100,0
1,61,100,0
1,61,0,60
1,57,0,0
1,57,100,0
1,62,100,0
1,62,0,37
1,57,0,0
1,40,100,41
1,40,0,120
1,64,100,0
1,59,100,0
1,59,0,28
1,64,0,0
1,59,100,0
1,64,100,0
1,64,0,60
1,59,0,0
1,59,100,0
1,64,100,0
1,64,0,60
1,59,0,0
1,59,100,0
1,64,100,0
1,64,0,60
1,59,0,0
1,59,100,0
1,64,100,0
1,64,0,60
1,59,0,0
1,62,100,60
1,57,100,0
1,57,0,120
1,62,0,0
1,57,100,0
1,61,100,0
1,61,0,60
1,57,0,0
1,57,100,0
1,62,100,0
1,62,0,60
1,57,0,0
1,57,100,0
1,61,100,0
1,61,0,60
1,57,0,0
1,57,100,0
1,62,100,0
1,62,0,60
1,57,0,0
1,57,100,0
1,61,100,0
1,61,0,60
1,57,0,0
1,40,100,60
1,40,0,120
1,64,100,0
1,59,100,0
1,59,0,27
1,64,0,0
1,59,100,0
1,64,100,0
1,64,0,60
1,59,0,0
1,59,100,0
1,64,100,0
1,64,0,60
1,59,0,0
1,59,100,0
1,64,100,0
1,64,0,60
1,59,0,0
1,59,100,0
1,64,100,0
1,64,0,60
1,59,0,0
1,62,100,60
1,57,100,0
1,57,0,120
1,62,0,0
1,61,100,0
1,57,100,0
1,57,0,60
1,61,0,0
1,57,100,0
1,62,100,0
1,62,0,60
1,57,0,0
1,57,100,0
1,61,100,0
1,61,0,60
1,57,0,0
1,57,100,0
1,62,100,0
1,62,0,31
1,57,0,0
1,40,100,53
1,40,0,1
1,64,100,0
1,59,100,0
1,59,0,22
1,64,0,0
1,59,100,0
1,64,100,0
1,64,0,60
1,59,0,0
1,59,100,0
1,64,100,0
1,64,0,60
1,59,0,0
1,59,100,0
1,64,100,0
1,64,0,60
1,59,0,0
1,59,100,0
1,64,100,0
1,64,0,60
1,59,0,0
1,57,100,60
1,62,100,0
1,62,0,60
1,57,0,0
1,57,100,0
1,62,100,0
1,62,0,120
1,57,0,0
1,57,100,0
1,61,100,0
1,61,0,60
1,57,0,0
