track,note,velocity,time
1,74,107,4416
1,69,95,0
1,69,99,42
1,74,105,0
1,69,103,43
1,73,101,0
1,76,100,0
1,67,106,599
1,74,104,0
1,73,101,10
1,69,110,35
1,66,99,0
1,62,109,0
1,57,107,18944
1,59,105,90
1,57,108,88
1,59,107,79
1,61,98,75
1,64,105,94
1,57,103,484
1,59,105,93
1,57,96,71
1,62,108,0
1,62,105,31
1,62,107,65
1,57,99,463
1,59,102,91
1,57,107,80
1,59,103,92
1,61,107,78
1,64,107,84
1,57,107,496
1,59,107,87
1,57,103,79
1,62,109,79
1,61,98,192
1,57,108,14
1,62,95,17732
1,55,96,0
1,61,94,228
1,57,90,0
1,61,96,232
1,57,96,0
1,55,95,49
1,62,95,0
1,62,95,16
1,55,95,0
1,64,108,2115
1,76,105,3
1,76,99,45
1,76,102,31
1,64,105,3
1,76,105,43
1,64,93,33
1,76,94,3
1,64,105,45
1,76,109,0
2,69,70,768
2,64,70,0
2,45,70,0
2,71,70,0
2,57,70,0
2,76,84,0
2,43,68,0
2,55,50,0
2,71,78,0
2,62,78,0
2,67,78,0
2,69,78,0
2,64,78,2
2,74,60,0
2,38,78,0
2,50,78,0
2,66,78,0
2,69,78,0
2,62,78,0
2,69,70,0
2,64,70,0
2,45,70,0
2,71,70,0
2,57,70,0
2,76,84,0
2,55,50,0
2,43,68,0
2,71,78,0
2,62,78,0
2,67,78,0
2,69,78,0
2,64,78,0
2,38,78,0
2,50,78,0
2,50,107,2011
2,62,107,1
2,57,107,1
2,57,107,97
2,62,107,1
2,50,107,1
2,50,63,37
2,57,63,3
2,62,63,0
2,50,63,83
2,57,63,1
2,62,63,1
2,57,107,190
2,62,107,0
2,50,105,2
2,50,107,83
2,62,107,1
2,57,107,1
2,50,107,2021
2,62,107,1
2,57,107,1
2,57,107,97
2,62,107,1
2,50,107,1
2,50,63,37
2,57,63,3
2,62,63,0
2,50,63,83
2,57,63,1
2,62,63,1
2,62,107,83
2,57,107,0
2,50,105,0
2,62,107,48
2,57,107,0
2,50,107,0
2,62,110,48
2,50,103,0
2,67,107,0
2,43,98,0
2,55,108,0
2,62,90,34
2,67,90,96
2,45,94,31
2,33,95,0
2,57,115,0
2,52,107,0
2,53,102,0
2,35,98,0
2,33,80,20
2,45,94,0
2,52,80,0
2,57,94,0
2,52,105,98
2,57,108,0
2,45,90,0
2,33,92,0
2,57,100,36
2,33,98,0
2,45,99,0
2,52,98,0
2,52,87,16
2,57,98,0
2,45,98,0
2,33,98,0
2,45,87,15
2,33,21,0
2,52,107,0
2,57,105,0
2,45,99,66
2,52,112,0
2,57,112,0
2,33,102,0
2,62,118,68
2,67,117,0
2,55,105,0
2,43,89,0
2,50,96,0
2,55,104,11
2,67,100,0
2,62,97,0
2,71,110,0
2,45,112,756
2,52,94,67
2,57,110,96
2,59,115,0
2,50,124,3
2,57,118,67
2,45,109,78
2,57,96,85
2,64,78,3
2,69,98,92
2,71,90,95
2,69,93,277
2,45,105,7
2,64,86,86
2,57,93,4
2,69,94,92
2,71,81,97
2,69,97,297
2,62,98,33
2,50,86,1
2,64,74,86
2,69,94,96
2,71,96,87
2,69,99,178
2,55,100,4
2,69,94,184
2,71,90,100
2,69,104,168
2,45,97,21
2,57,99,98
2,64,79,0
2,69,86,90
2,71,90,96
2,69,97,278
2,45,84,0
2,57,98,82
2,64,84,1
2,69,82,97
2,71,85,93
2,69,97,292
2,62,87,38
2,50,72,1
2,64,75,83
2,69,52,89
2,71,98,90
2,69,91,47
2,55,104,205
2,69,97,174
2,71,96,93
2,69,96,164
2,62,110,6181
2,50,103,0
2,67,107,0
2,43,98,0
2,55,108,0
2,62,90,34
2,67,90,96
2,45,94,31
2,33,95,0
2,57,115,0
2,52,107,0
2,53,102,0
2,35,98,0
2,33,80,20
2,45,94,0
2,52,80,0
2,57,94,0
2,52,105,98
2,57,108,0
2,45,90,0
2,33,92,0
2,57,100,36
2,33,98,0
2,45,99,0
2,52,98,0
2,52,87,16
2,57,98,0
2,45,98,0
2,33,98,0
2,45,87,15
2,33,21,0
2,52,107,0
2,57,105,0
2,45,99,66
2,52,112,0
2,57,112,0
2,33,102,0
2,62,118,68
2,67,117,0
2,55,105,0
2,43,89,0
2,50,96,0
2,55,104,11
2,67,100,0
2,62,97,0
2,71,110,0
2,45,112,756
2,52,94,67
2,57,110,96
2,59,115,0
2,50,124,3
2,57,118,67
2,45,109,78
2,57,96,85
2,64,78,3
2,69,98,92
2,71,90,95
2,69,93,277
2,45,105,7
2,64,86,86
2,57,93,4
2,69,94,92
2,71,81,97
2,69,97,297
2,62,98,33
2,50,86,1
2,64,74,86
2,69,94,96
2,71,96,87
2,69,99,178
2,55,100,4
2,69,94,184
2,71,90,100
2,69,104,168
2,45,97,21
2,57,99,98
2,64,79,0
2,69,86,90
2,71,90,96
2,69,97,278
2,45,84,0
2,57,98,82
2,64,84,1
2,69,82,97
2,71,85,93
2,69,97,292
2,62,87,38
2,50,72,1
2,64,75,83
2,69,52,89
2,71,98,90
2,69,91,47
2,55,104,205
2,69,97,174
2,71,96,93
2,69,96,164
2,45,109,37
2,57,96,85
2,64,78,3
2,69,98,92
2,71,90,95
2,69,93,277
2,45,105,7
2,64,86,86
2,57,93,4
2,69,94,92
2,71,81,97
2,69,97,297
2,62,98,33
2,50,86,1
2,64,74,86
2,69,94,96
2,71,96,87
2,69,99,178
2,55,100,4
2,69,94,184
2,71,90,100
2,69,104,168
2,62,127,37
2,55,127,0
2,62,95,10
2,62,95,10
2,62,95,10
2,62,95,10
2,62,95,10
2,57,127,0
2,64,127,0
2,66,105,0
2,59,125,0
2,62,120,56
2,57,116,1
2,57,118,35
2,57,119,47
2,61,127,0
2,62,127,67
2,55,127,0
2,67,127,0
2,62,121,9
2,62,115,10
2,62,109,10
2,62,103,0
2,62,97,10
2,64,108,8
2,57,115,1
2,66,101,49
2,59,114,0
2,57,118,43
2,62,127,0
2,57,112,42
2,61,125,44
2,57,118,0
2,64,112,633
2,64,112,18
2,69,108,18
2,71,107,51
2,73,127,0
2,69,112,7
2,73,97,5
2,69,98,48
2,69,105,10
2,71,97,0
2,69,102,47
2,66,117,0
2,63,60,0
2,74,117,0
2,73,88,48
2,69,109,2
2,73,100,48
2,74,98,33
2,73,102,45
2,64,99,3
2,73,106,0
2,76,112,0
2,64,97,384
2,69,74,0
2,71,100,0
2,69,98,0
2,76,97,48
2,64,105,0
2,76,104,23
2,64,91,0
2,76,106,28
2,64,85,0
2,74,110,96
2,62,98,0
2,62,110,45
2,50,103,0
2,67,107,0
2,43,98,0
2,55,108,0
2,62,90,34
2,67,90,96
2,45,94,31
2,33,95,0
2,57,115,0
2,52,107,0
2,53,102,0
2,35,98,0
2,33,80,20
2,45,94,0
2,52,80,0
2,57,94,0
2,52,105,98
2,57,108,0
2,45,90,0
2,33,92,0
2,57,100,36
2,33,98,0
2,45,99,0
2,52,98,0
2,52,87,16
2,57,98,0
2,45,98,0
2,33,98,0
2,45,87,15
2,33,21,0
2,52,107,0
2,57,105,0
2,45,99,66
2,52,112,0
2,57,112,0
2,33,102,0
2,62,118,68
2,67,117,0
2,55,105,0
2,43,89,0
2,50,96,0
2,55,104,11
2,67,100,0
2,62,97,0
2,71,110,0
2,45,112,756
2,52,94,67
2,57,110,96
2,59,115,0
2,50,124,3
2,57,118,67
2,45,99,78
2,57,86,85
2,64,68,3
2,69,88,92
2,71,80,95
2,69,83,277
2,45,95,7
2,64,76,86
2,57,83,4
2,69,84,92
2,71,71,97
2,69,87,297
2,62,88,33
2,50,76,1
2,64,64,86
2,69,84,96
2,71,86,87
2,69,89,178
2,55,90,4
2,69,84,184
2,71,80,100
2,69,94,168
2,45,87,21
2,57,89,98
2,64,69,0
2,69,76,90
2,71,80,96
2,69,87,278
2,45,74,0
2,57,88,82
2,64,74,1
2,69,72,97
2,71,75,93
2,69,87,292
2,62,77,38
2,50,62,1
2,64,65,83
2,69,42,89
2,71,88,90
2,69,81,47
2,55,94,205
2,69,87,174
2,71,86,93
2,69,86,164
2,45,99,37
2,57,86,85
2,64,68,3
2,69,88,92
2,71,80,95
2,69,83,277
2,45,95,7
2,64,76,86
2,57,83,4
2,69,84,92
2,71,71,97
2,69,87,297
2,62,88,33
2,50,76,1
2,64,64,86
2,69,84,96
2,71,86,87
2,69,89,178
2,55,90,4
2,69,84,184
2,71,80,100
2,69,94,168
2,31,87,37
2,62,100,0
2,55,96,0
2,43,89,0
2,67,90,0
2,67,83,10
2,62,90,0
2,55,87,0
2,43,83,0
2,31,94,0
2,64,88,0
2,57,98,0
2,45,98,0
2,33,88,0
2,69,86,0
2,38,84,0
2,64,87,0
2,69,87,0
2,62,92,0
2,57,95,0
2,50,73,0
2,45,99,180
2,57,86,85
2,64,68,3
2,69,88,92
2,71,80,95
2,69,83,277
2,45,95,7
2,64,76,86
2,57,83,4
2,69,84,92
2,71,71,97
2,69,87,297
2,62,88,33
2,50,76,1
2,64,64,86
2,69,84,96
2,71,86,87
2,69,89,178
2,55,90,4
2,69,84,184
2,71,80,100
2,69,94,168
2,45,87,21
2,57,89,98
2,64,69,0
2,69,76,90
2,71,80,96
2,69,87,278
2,45,74,0
2,57,88,82
2,64,74,1
2,69,72,97
2,71,75,93
2,69,87,292
2,62,77,38
2,50,62,1
2,64,65,83
2,69,42,89
2,71,88,90
2,69,81,47
2,55,94,205
2,69,87,174
2,71,86,93
2,69,86,164
2,45,99,0
2,57,86,10
2,64,68,3
2,69,88,36
2,71,80,11
2,69,83,12
2,45,95,7
2,64,76,54
2,57,83,4
2,69,84,30
2,71,71,7
2,69,87,1
2,62,88,27
2,50,76,1
2,64,64,42
2,69,84,18
2,71,86,33
2,69,89,62
2,55,90,4
2,69,84,58
2,71,80,38
2,69,94,33
2,45,99,37
2,57,86,61
2,64,68,3
2,69,88,36
2,71,80,11
2,69,83,60
2,45,95,7
2,64,76,30
2,57,83,4
2,69,84,6
2,71,71,55
2,69,87,1
2,62,88,3
2,50,76,1
2,64,64,42
2,69,84,66
2,71,86,33
2,69,89,38
2,55,90,4
2,69,84,34
2,71,80,14
2,69,94,33
2,45,87,8
2,57,89,58
2,64,69,0
2,69,76,4
2,71,80,52
2,69,87,39
2,45,74,0
2,57,88,40
2,64,74,1
2,69,72,18
2,71,75,39
2,69,87,53
3,61,32,768
3,52,39,0
3,45,68,0
3,43,60,1538
3,59,29,2
3,50,34,9
3,38,26,725
3,57,36,2
3,61,32,25
3,52,39,0
3,45,68,0
3,74,70,1536
3,43,60,2
3,59,29,2
3,50,34,9
3,38,26,725
3,57,36,2
3,57,30,0
3,45,30,0
3,33,100,0
3,50,30,48
3,62,30,0
3,38,100,0
3,57,30,0
3,45,30,0
3,33,100,0
3,50,30,48
3,62,30,0
3,38,100,0
3,43,98,0
3,43,98,1536
3,33,83,1536
3,38,77,1530
3,43,79,735
3,33,88,744
3,38,71,1517
3,43,73,754
3,57,30,25
3,45,30,0
3,33,100,0
3,50,30,48
3,62,30,0
3,38,100,0
3,57,30,0
3,45,30,0
3,33,100,0
3,50,30,48
3,62,30,0
3,38,100,0
3,43,98,0
3,43,98,1536
3,33,83,1536
3,38,77,1530
3,43,79,735
3,33,88,744
3,38,71,1517
3,43,73,754
3,33,83,25
3,38,77,1530
3,43,79,735
3,33,75,6144
3,45,75,0
3,38,75,1525
3,50,68,1
3,33,70,1526
3,45,67,2
3,38,80,1497
3,50,67,10
3,43,98,0
3,43,98,1536
3,33,83,1536
3,38,77,1530
3,43,79,735
3,33,88,744
3,38,71,1517
3,43,73,754
3,33,83,25
3,38,77,1530
3,43,79,735
3,43,103,0
3,45,100,1423
3,50,90,762
3,33,83,25
3,38,77,1530
3,43,79,735
3,33,88,744
3,38,71,1517
3,43,73,754
3,33,83,0
3,38,77,18
3,43,79,39
3,33,83,0
3,38,77,66
3,43,79,39
3,33,88,17
4,69,86,4192
4,62,65,875
4,69,72,45055
5,57,52,4697
5,61,25,1
5,52,41,3
5,57,44,91
5,61,31,1
5,52,44,1
5,61,32,21
5,57,32,0
5,52,38,2
5,52,22,102
5,57,24,0
5,61,23,5
6,64,108,7007
6,62,113,34
6,61,102,34
6,57,117,29
6,54,102,39
6,52,91,10
6,64,98,87
6,62,105,29
6,61,95,31
6,57,109,35
6,61,106,50
6,59,105,11
6,59,104,43
6,57,100,7
6,57,102,45
6,54,91,104
6,64,108,1186
6,62,113,34
6,61,102,34
6,57,117,29
6,54,102,39
6,52,91,10
6,64,98,87
6,62,105,29
6,61,95,31
6,57,109,35
6,61,106,56
6,59,105,0
6,59,104,14
6,57,100,7
6,57,102,45
6,54,91,104
6,61,112,696
6,62,109,290
6,62,127,0
6,62,108,48
6,62,114,54
6,62,102,70
6,62,76,21
6,62,115,27
6,62,108,50
6,62,117,59
6,62,114,77
6,62,107,54
6,64,117,37
6,64,108,43
6,64,114,50
6,64,112,257
6,61,103,101
6,62,110,482
6,64,112,12
6,62,112,15
6,62,77,5
6,67,108,0
6,62,77,31
6,67,96,1
6,67,107,40
6,62,77,2
6,67,102,41
6,62,77,2
6,69,110,90
6,67,100,3
6,62,77,25
6,69,103,3
6,67,98,0
6,71,95,23
6,62,7,41
6,71,110,1
6,67,78,6
6,69,108,38
6,71,110,94
6,69,89,6
6,64,83,26
6,69,95,2
6,71,99,1
6,73,101,15
6,64,87,34
6,69,102,2
6,73,109,1
6,73,117,89
6,69,105,0
6,64,100,4
6,71,108,5
6,62,103,5
6,69,110,7
6,66,105,267
6,69,114,121
6,52,74,2
6,71,117,64
6,50,74,0
6,69,112,77
6,49,74,0
6,73,112,24
6,69,112,0
6,64,112,0
6,57,74,0
6,71,115,27
6,52,74,1
6,64,95,1
6,69,88,6
6,52,74,20
6,71,114,1
6,64,94,6
6,73,101,11
6,57,74,1
6,64,94,0
6,69,109,1
6,69,127,144
6,69,87,28
6,69,125,34
6,69,92,23
6,69,110,29
6,71,127,22
6,69,125,89
6,52,74,2
6,50,74,95
6,71,120,0
6,49,74,10
6,69,123,10
6,73,98,1
6,57,74,1
6,64,95,3
6,71,116,40
6,64,104,4
6,69,115,61
6,64,88,2
6,73,121,25
6,52,74,1
6,64,100,1
6,69,119,0
6,52,74,58
6,71,116,1
6,69,112,3
6,64,99,1
6,57,74,37
6,69,112,1
6,71,108,0
6,64,92,4
6,64,43,4
6,66,116,11
6,69,119,15
6,64,107,3
6,71,109,192
6,69,123,130
6,69,127,68
6,66,114,95
6,69,120,69
6,71,127,10
6,64,108,473
6,62,113,34
6,61,102,34
6,57,117,29
6,54,102,39
6,52,91,10
6,64,98,87
6,62,105,29
6,61,95,31
6,57,109,35
6,61,106,50
6,59,105,11
6,59,104,43
6,57,100,7
6,57,102,45
6,54,91,104
6,64,108,1186
6,62,113,34
6,61,102,34
6,57,117,29
6,54,102,39
6,52,91,10
6,64,98,87
6,62,105,29
6,61,95,31
6,57,109,35
6,61,106,56
6,59,105,0
6,59,104,14
6,57,100,7
6,57,102,45
6,54,91,104
6,61,112,696
6,62,109,290
6,62,127,0
6,62,108,48
6,62,114,54
6,62,102,70
6,62,76,21
6,62,115,27
6,62,108,50
6,62,117,59
6,62,114,77
6,62,107,54
6,64,117,37
6,64,108,43
6,64,114,50
6,64,112,257
6,61,103,101
6,62,110,482
6,64,112,12
6,62,112,15
6,62,77,5
6,67,108,0
6,62,77,31
6,67,96,1
6,67,107,40
6,62,77,2
6,67,102,41
6,62,77,2
6,69,110,90
6,67,100,3
6,62,77,25
6,69,103,3
6,67,98,0
6,71,95,23
6,62,7,41
6,71,110,1
6,67,78,6
6,69,108,38
6,71,110,94
6,69,89,6
6,64,83,26
6,69,95,2
6,71,99,1
6,73,101,15
6,64,87,34
6,69,102,2
6,73,109,1
6,73,117,89
6,69,105,0
6,64,100,4
6,71,108,5
6,62,103,5
6,69,110,7
6,66,105,267
6,69,114,121
6,52,74,2
6,71,117,64
6,50,74,0
6,69,112,77
6,49,74,0
6,73,112,24
6,69,112,0
6,64,112,0
