track,note,velocity,time
1,50,100,0
1,57,100,120
1,62,100,60
1,62,0,60
1,57,0,0
1,50,0,0
1,48,100,0
1,55,100,120
1,62,100,60
1,62,0,60
1,55,0,0
1,48,0,0
1,43,100,0
1,55,100,120
1,62,100,60
1,62,0,60
1,55,0,0
1,43,0,0
1,50,100,0
1,57,100,120
1,62,100,60
1,62,0,60
1,57,0,0
1,50,0,0
1,50,100,0
1,57,100,120
1,62,100,60
1,62,0,60
1,57,0,0
1,50,0,0
1,48,100,0
1,55,100,120
1,62,100,60
1,62,0,60
1,55,0,0
1,48,0,0
1,67,100,0
1,62,100,0
1,55,100,0
1,50,100,0
1,43,100,0
1,43,0,960
1,55,0,0
1,67,0,0
1,62,0,0
1,50,0,0
1,54,100,0
1,47,100,0
1,47,0,120
1,54,0,0
1,47,100,120
1,54,100,0
1,54,0,120
1,47,0,0
1,47,100,0
1,54,100,0
1,54,0,30
1,47,0,0
1,54,100,30
1,47,100,0
1,47,0,30
1,54,0,0
1,59,100,30
1,52,100,0
1,52,0,60
1,59,0,0
1,59,100,0
1,52,100,0
1,52,0,60
1,59,0,0
1,47,100,60
1,54,100,0
1,54,0,180
1,47,0,0
1,47,100,0
1,54,100,0
1,54,0,60
1,47,0,0
1,47,100,0
1,54,100,0
1,54,0,60
1,47,0,0
1,54,100,60
1,47,100,0
1,47,0,60
1,54,0,0
1,54,100,60
1,47,100,0
1,47,0,60
1,54,0,0
1,54,100,0
1,47,100,0
1,47,0,120
1,54,0,0
1,47,100,0
1,54,100,0
1,54,0,30
1,47,0,0
1,54,100,30
1,47,100,0
1,47,0,30
1,54,0,0
1,47,100,30
1,40,100,0
1,40,0,60
1,47,0,0
1,40,100,0
1,47,100,0
1,47,0,60
1,40,0,0
1,47,100,60
1,54,100,0
1,54,0,180
1,47,0,0
1,47,100,0
1,54,100,0
1,54,0,30
1,47,0,0
1,54,100,30
1,47,100,0
1,47,0,30
1,54,0,0
1,54,100,30
1,47,100,0
1,47,0,120
1,54,0,0
1,47,100,120
1,54,100,0
1,54,0,120
1,47,0,0
1,47,100,0
1,54,100,0
1,54,0,30
1,47,0,0
1,54,100,30
1,47,100,0
1,47,0,30
1,54,0,0
1,59,100,30
1,52,100,0
1,52,0,60
1,59,0,0
1,59,100,0
1,52,100,0
1,52,0,60
1,59,0,0
1,47,100,60
1,54,100,0
1,54,0,180
1,47,0,0
1,47,100,0
1,54,100,0
1,54,0,60
1,47,0,0
1,47,100,0
1,54,100,0
1,54,0,60
1,47,0,0
1,54,100,60
1,47,100,0
1,47,0,60
1,54,0,0
1,54,100,60
1,47,100,0
1,47,0,60
1,54,0,0
1,54,100,0
1,47,100,0
1,47,0,120
1,54,0,0
1,47,100,0
1,54,100,0
1,54,0,30
1,47,0,0
1,54,100,30
1,47,100,0
1,47,0,30
1,54,0,0
1,47,100,30
1,40,100,0
1,40,0,60
1,47,0,0
1,40,100,0
1,47,100,0
1,47,0,60
1,40,0,0
1,47,100,60
1,54,100,0
1,54,0,180
1,47,0,0
1,47,100,0
1,54,100,0
1,54,0,30
1,47,0,0
1,54,100,30
1,47,100,0
1,47,0,30
1,54,0,0
1,47,100,30
1,40,100,0
1,40,0,120
1,47,0,0
1,40,100,0
1,47,100,0
1,47,0,30
1,40,0,0
1,47,100,30
1,40,100,0
1,40,0,30
1,47,0,0
1,47,100,30
1,40,100,0
1,40,0,120
1,47,0,0
1,52,100,120
1,45,100,0
1,45,0,120
1,52,0,0
1,47,100,60
1,40,100,0
1,40,0,180
1,47,0,0
1,47,100,0
1,40,100,0
1,40,0,60
1,47,0,0
1,47,100,0
1,40,100,0
1,40,0,60
1,47,0,0
1,54,100,0
1,47,100,0
1,47,0,30
1,54,0,0
1,54,100,30
1,47,100,0
1,47,0,60
1,54,0,0
1,54,100,60
1,47,100,0
1,47,0,180
1,54,0,0
1,59,100,120
1,52,100,0
1,52,0,60
1,59,0,0
1,59,100,0
1,52,100,0
1,52,0,60
1,59,0,0
1,54,100,60
1,47,100,0
1,47,0,120
1,54,0,0
1,47,100,0
1,54,100,0
1,54,0,60
1,47,0,0
1,47,100,0
1,54,100,0
1,54,0,60
1,47,0,0
1,47,100,0
1,54,100,0
1,54,0,60
1,47,0,0
1,59,100,0
1,64,100,0
1,64,0,30
1,59,0,0
1,59,100,30
1,64,100,0
1,64,100,0
1,64,0,60
1,64,0,0
1,59,0,0
1,59,100,60
1,64,100,0
1,64,0,30
1,59,0,0
1,63,100,30
1,59,100,60
1,59,0,60
1,63,0,0
1,59,100,60
1,64,100,0
1,64,0,30
1,59,0,0
1,59,100,30
1,64,100,0
1,64,100,0
1,64,0,60
1,64,0,0
1,59,0,0
1,59,100,0
1,64,100,0
1,64,100,0
1,64,0,60
1,64,0,0
1,59,0,0
1,59,100,60
1,63,100,0
1,63,0,60
1,59,0,0
1,59,100,60
1,63,100,0
1,63,0,30
1,59,0,0
1,63,100,30
1,59,100,0
1,64,100,0
1,64,0,60
1,59,0,0
1,63,0,0
1,64,100,0
1,59,100,0
1,64,100,0
1,64,0,60
1,59,0,0
1,64,0,0
1,59,100,60
1,64,100,0
1,64,100,0
1,64,0,60
1,64,0,0
1,59,0,0
1,59,100,60
1,64,100,0
1,64,0,30
1,59,0,0
1,63,100,30
1,59,100,60
1,59,0,60
1,63,0,0
1,64,100,60
1,59,100,0
1,59,0,30
1,64,0,0
1,64,100,30
1,64,100,0
1,59,100,0
1,59,0,60
1,64,0,0
1,64,0,0
1,64,100,0
1,64,100,0
1,59,100,0
1,59,0,120
1,64,0,0
1,64,0,0
1,59,100,0
1,63,100,0
1,63,0,120
1,59,0,0
1,59,100,0
1,59,0,30
1,63,100,30
1,63,0,30
1,48,100,30
1,64,100,0
1,62,100,0
1,55,100,0
1,55,0,480
1,48,0,0
1,64,0,0
1,62,0,0
1,67,100,0
1,62,100,0
1,55,100,0
1,50,100,0
1,43,100,0
1,43,0,480
1,55,0,0
1,67,0,0
1,62,0,0
1,50,0,0
1,50,100,0
1,57,100,120
1,62,100,60
1,62,0,60
1,57,0,0
1,50,0,0
1,48,100,0
1,55,100,120
1,62,100,60
1,62,0,60
1,55,0,0
1,48,0,0
1,43,100,0
1,55,100,120
1,62,100,60
1,62,0,60
1,55,0,0
1,43,0,0
1,50,100,0
1,57,100,120
1,62,100,60
1,62,0,60
1,57,0,0
1,50,0,0
1,50,100,0
1,57,100,120
1,62,100,60
1,62,0,60
1,57,0,0
1,50,0,0
1,48,100,0
1,55,100,120
1,62,100,60
1,62,0,60
1,55,0,0
1,48,0,0
1,43,100,0
1,55,100,120
1,62,100,60
1,62,0,60
1,55,0,0
1,43,0,0
1,50,100,0
1,57,100,120
1,62,100,60
1,62,0,60
1,57,0,0
1,50,0,0
1,50,100,0
1,57,100,120
1,62,100,60
1,62,0,60
1,57,0,0
1,50,0,0
1,48,100,0
1,55,100,120
1,62,100,60
1,62,0,60
1,55,0,0
1,48,0,0
1,43,100,0
1,55,100,120
1,62,100,60
1,62,0,60
1,55,0,0
1,43,0,0
1,50,100,0
1,57,100,120
1,62,100,60
1,62,0,60
1,57,0,0
1,50,0,0
1,50,100,0
1,57,100,120
1,62,100,60
1,62,0,60
1,57,0,0
1,50,0,0
1,48,100,0
1,55,100,120
1,62,100,60
1,62,0,60
1,55,0,0
1,48,0,0
1,43,100,0
1,55,100,120
1,62,100,60
1,62,0,60
1,55,0,0
1,43,0,0
1,50,100,0
1,57,100,120
1,62,100,60
1,62,0,120
1,57,0,0
1,50,0,0
1,54,100,0
1,47,100,0
1,47,0,120
1,54,0,0
1,47,100,120
1,54,100,0
1,54,0,120
1,47,0,0
1,47,100,0
1,54,100,0
1,54,0,30
1,47,0,0
1,54,100,30
1,47,100,0
1,47,0,30
1,54,0,0
1,59,100,30
1,52,100,0
1,52,0,60
1,59,0,0
1,59,100,0
1,52,100,0
1,52,0,60
1,59,0,0
1,47,100,60
1,54,100,0
1,54,0,180
1,47,0,0
1,47,100,0
1,54,100,0
1,54,0,60
1,47,0,0
1,47,100,0
1,54,100,0
1,54,0,60
1,47,0,0
1,54,100,60
1,47,100,0
1,47,0,60
1,54,0,0
1,54,100,60
1,47,100,0
1,47,0,60
1,54,0,0
1,54,100,0
1,47,100,0
1,47,0,120
1,54,0,0
1,47,100,0
1,54,100,0
1,54,0,30
1,47,0,0
1,54,100,30
1,47,100,0
1,47,0,30
1,54,0,0
1,47,100,30
1,40,100,0
1,40,0,60
1,47,0,0
1,40,100,0
1,47,100,0
1,47,0,60
1,40,0,0
1,47,100,60
1,54,100,0
1,54,0,180
1,47,0,0
1,47,100,0
1,54,100,0
1,54,0,30
1,47,0,0
1,54,100,30
1,47,100,0
1,47,0,30
1,54,0,0
1,54,100,30
1,47,100,0
1,47,0,120
1,54,0,0
1,47,100,120
1,54,100,0
1,54,0,120
1,47,0,0
1,47,100,0
1,54,100,0
1,54,0,30
1,47,0,0
1,54,100,30
1,47,100,0
1,47,0,30
1,54,0,0
1,59,100,30
1,52,100,0
1,52,0,60
1,59,0,0
1,59,100,0
1,52,100,0
1,52,0,60
1,59,0,0
1,47,100,60
1,54,100,0
1,54,0,180
1,47,0,0
1,47,100,0
1,54,100,0
1,54,0,60
1,47,0,0
1,47,100,0
1,54,100,0
1,54,0,60
1,47,0,0
1,54,100,60
1,47,100,0
1,47,0,60
1,54,0,0
1,54,100,60
1,47,100,0
1,47,0,60
1,54,0,0
1,54,100,0
1,47,100,0
1,47,0,120
1,54,0,0
1,47,100,0
1,54,100,0
1,54,0,30
1,47,0,0
1,54,100,30
1,47,100,0
1,47,0,30
1,54,0,0
1,47,100,30
1,40,100,0
1,40,0,60
1,47,0,0
1,40,100,0
1,47,100,0
1,47,0,60
1,40,0,0
1,47,100,60
1,54,100,0
1,54,0,180
1,47,0,0
1,47,100,0
1,54,100,0
1,54,0,30
1,47,0,0
1,54,100,30
1,47,100,0
1,47,0,30
1,54,0,0
1,59,100,30
1,64,100,0
1,64,0,30
1,59,0,0
1,59,100,30
1,64,100,0
1,64,100,0
1,64,0,60
1,64,0,0
1,59,0,0
1,59,100,60
1,64,100,0
1,64,0,30
1,59,0,0
1,63,100,30
1,59,100,60
1,59,0,60
1,63,0,0
1,59,100,60
1,64,100,0
1,64,0,30
1,59,0,0
1,59,100,30
1,64,100,0
1,64,100,0
1,64,0,60
1,64,0,0
1,59,0,0
1,59,100,0
1,64,100,0
1,64,100,0
1,64,0,60
1,64,0,0
1,59,0,0
1,59,100,60
1,63,100,0
1,63,0,60
1,59,0,0
1,59,100,60
1,63,100,0
1,63,0,30
1,59,0,0
1,63,100,30
1,59,100,0
1,64,100,0
1,64,0,60
1,59,0,0
1,63,0,0
1,64,100,0
1,59,100,0
1,64,100,0
1,64,0,60
1,59,0,0
1,64,0,0
1,59,100,60
1,64,100,0
1,64,100,0
1,64,0,60
1,64,0,0
1,59,0,0
1,59,100,60
1,64,100,0
1,64,0,30
1,59,0,0
1,63,100,30
1,59,100,60
1,59,0,60
1,63,0,0
1,64,100,60
1,59,100,0
1,59,0,30
1,64,0,0
1,64,100,30
1,64,100,0
1,59,100,0
1,59,0,60
1,64,0,0
1,64,0,0
1,64,100,0
1,64,100,0
1,59,100,0
1,59,0,120
1,64,0,0
1,64,0,0
1,59,100,0
1,63,100,0
1,63,0,120
1,59,0,0
1,59,100,0
1,59,0,30
1,63,100,30
1,63,0,30
1,48,100,30
1,64,100,0
1,62,100,0
1,55,100,0
1,55,0,480
1,48,0,0
1,64,0,0
1,62,0,0
1,67,100,0
1,62,100,0
1,55,100,0
1,50,100,0
1,43,100,0
1,43,0,480
1,55,0,0
1,67,0,0
1,62,0,0
1,50,0,0
1,50,100,0
1,57,100,120
1,62,100,60
1,62,0,60
1,57,0,0
1,50,0,0
1,48,100,0
1,55,100,120
1,62,100,60
1,62,0,60
1,55,0,0
1,48,0,0
1,43,100,0
1,55,100,120
1,62,100,60
1,62,0,60
1,55,0,0
1,43,0,0
1,50,100,0
1,57,100,120
1,62,100,60
1,62,0,60
1,57,0,0
1,50,0,0
1,50,100,0
1,57,100,120
1,62,100,60
1,62,0,60
1,57,0,0
1,50,0,0
1,48,100,0
1,55,100,120
1,62,100,60
1,62,0,60
1,55,0,0
1,48,0,0
1,43,100,0
1,55,100,120
1,62,100,60
1,62,0,60
1,55,0,0
1,43,0,0
1,50,100,0
1,57,100,120
1,62,100,60
1,62,0,60
1,57,0,0
1,50,0,0
1,50,100,0
1,57,100,120
1,62,100,60
1,62,0,60
1,57,0,0
1,50,0,0
1,48,100,0
1,55,100,120
1,62,100,60
1,62,0,60
1,55,0,0
1,48,0,0
1,43,100,0
1,55,100,120
1,62,100,60
1,62,0,60
1,55,0,0
1,43,0,0
1,50,100,0
1,57,100,120
1,62,100,60
1,62,0,60
1,57,0,0
1,50,0,0
1,50,100,0
1,57,100,120
1,62,100,60
1,62,0,60
1,57,0,0
1,50,0,0
1,48,100,0
1,55,100,120
1,62,100,60
1,62,0,60
1,55,0,0
1,48,0,0
1,43,100,0
1,55,100,120
1,62,100,60
1,62,0,60
1,55,0,0
1,43,0,0
1,50,100,0
1,57,100,120
1,62,100,60
1,62,0,60
1,57,0,0
1,50,0,0
1,50,100,0
1,57,100,120
1,62,100,60
1,62,0,60
1,57,0,0
1,50,0,0
1,48,100,0
1,55,100,120
1,62,100,60
1,62,0,60
1,55,0,0
1,48,0,0
1,43,100,0
1,55,100,120
1,62,100,60
1,62,0,60
1,55,0,0
1,43,0,0
1,50,100,0
1,57,100,120
1,62,100,60
1,62,0,60
1,57,0,0
1,50,0,0
1,50,100,0
1,50,0,240
1,59,100,1740
1,71,100,0
1,71,0,8
1,59,0,0
1,60,100,0
1,72,100,0
1,72,0,15
1,60,0,0
1,59,100,0
1,71,100,0
1,71,0,15
1,59,0,0
1,60,100,0
1,72,100,0
1,72,0,15
1,60,0,0
1,59,100,1
1,71,100,0
1,71,0,15
1,59,0,0
1,60,100,0
1,72,100,0
1,72,0,15
1,60,0,0
1,59,100,1
1,71,100,0
1,71,0,15
1,59,0,0
1,60,100,0
1,72,100,0
1,72,0,15
1,60,0,0
1,59,100,1
1,71,100,0
1,71,0,15
1,59,0,0
1,60,100,0
1,72,100,0
1,72,0,15
1,60,0,0
1,59,100,1
1,71,100,0
1,71,0,15
1,59,0,0
1,60,100,0
1,72,100,0
1,72,0,15
1,60,0,0
1,59,100,1
1,71,100,0
1,71,0,15
1,59,0,0
1,60,100,0
1,72,100,0
1,72,0,15
1,60,0,0
1,59,100,1
1,71,100,0
1,71,0,15
1,59,0,0
1,60,100,0
1,72,100,0
1,72,0,15
1,60,0,0
1,59,100,1
1,71,100,0
1,71,0,15
1,59,0,0
1,60,100,0
1,72,100,0
1,72,0,15
1,60,0,0
1,59,100,1
1,71,100,0
1,71,0,15
1,59,0,0
1,60,100,0
1,72,100,0
1,72,0,15
1,60,0,0
1,59,100,1
1,71,100,0
1,71,0,15
1,59,0,0
1,60,100,0
1,72,100,0
1,72,0,15
1,60,0,0
1,59,100,1
1,71,100,0
1,71,0,15
1,59,0,0
1,60,100,0
1,72,100,0
1,72,0,15
1,60,0,0
1,59,100,1
1,71,100,0
1,71,0,15
1,59,0,0
1,60,100,0
1,72,100,0
1,72,0,15
1,60,0,0
1,59,100,1
1,71,100,0
1,71,0,15
1,59,0,0
1,60,100,0
1,72,100,0
1,72,0,15
1,60,0,0
1,59,100,1
1,71,100,0
1,71,0,15
1,59,0,0
1,60,100,0
1,72,100,0
1,72,0,15
1,60,0,0
1,59,100,1
1,71,100,0
1,71,0,15
1,59,0,0
1,60,100,0
1,72,100,0
1,72,0,15
1,60,0,0
1,59,100,1
1,71,100,0
1,71,0,15
1,59,0,0
1,60,100,0
1,72,100,0
1,72,0,15
1,60,0,0
1,59,100,1
1,71,100,0
1,71,0,15
1,59,0,0
1,60,100,0
1,72,100,0
1,72,0,15
1,60,0,0
