track,note,velocity,time
1,66,127,36096
1,62,127,0
1,57,127,0
1,57,0,384
1,62,0,0
1,66,0,0
1,67,127,0
1,62,127,0
1,57,127,0
1,57,0,384
1,62,0,0
1,67,0,0
1,64,127,0
1,62,127,0
1,55,127,0
1,52,127,0
1,52,0,768
1,64,0,0
1,62,0,0
1,55,0,0
1,64,127,0
1,64,0,384
1,62,127,0
1,62,0,192
1,55,127,0
1,55,0,960
1,66,127,0
1,62,127,0
1,57,127,0
1,50,127,0
1,50,0,384
1,66,0,0
1,62,0,0
1,57,0,0
1,67,127,0
1,62,127,0
1,57,127,0
1,50,127,0
1,50,0,384
1,67,0,0
1,62,0,0
1,57,0,0
1,62,127,0
1,64,127,0
1,55,127,0
1,50,127,0
1,47,127,0
1,47,0,768
1,55,0,0
1,62,0,0
1,64,0,0
1,50,0,0
1,64,127,0
1,64,0,384
1,62,127,0
1,62,0,192
1,55,127,0
1,55,0,960
1,66,127,0
1,62,127,0
1,57,127,0
1,50,127,0
1,50,0,384
1,66,0,0
1,62,0,0
1,57,0,0
1,67,127,0
1,62,127,0
1,57,127,0
1,50,127,0
1,50,0,384
1,67,0,0
1,62,0,0
1,57,0,0
1,48,127,0
1,64,127,0
1,62,127,0
1,55,127,0
1,52,127,0
1,52,0,768
1,62,0,0
1,48,0,0
1,64,0,0
1,55,0,0
1,64,127,0
1,64,0,384
1,62,127,0
1,62,0,192
1,55,127,0
1,55,0,768
1,64,127,0
1,60,127,0
1,55,127,0
1,52,127,0
1,48,127,0
1,48,0,96
1,55,0,0
1,64,0,0
1,60,0,0
1,52,0,0
1,64,127,0
1,60,127,0
1,55,127,0
1,52,127,0
1,48,127,0
1,48,0,96
1,55,0,0
1,64,0,0
1,60,0,0
1,52,0,0
1,64,127,0
1,60,127,0
1,55,127,0
1,52,127,0
1,48,127,0
1,48,0,384
1,55,0,0
1,64,0,0
1,60,0,0
1,52,0,0
1,67,127,0
1,62,127,0
1,55,127,0
1,50,127,0
1,43,127,0
1,43,0,384
1,55,0,0
1,67,0,0
1,62,0,0
1,50,0,0
1,66,127,0
1,62,127,0
1,57,127,0
1,50,127,0
1,50,0,1536
1,66,0,0
1,62,0,0
1,57,0,0
1,66,127,192
1,64,127,0
1,57,127,0
1,50,127,0
1,50,0,192
1,66,0,0
1,64,0,0
1,57,0,0
1,66,127,0
1,64,127,0
1,57,127,0
1,50,127,0
1,50,0,192
1,66,0,0
1,64,0,0
1,57,0,0
1,66,127,0
1,64,127,0
1,57,127,0
1,50,127,0
1,50,0,960
1,66,0,0
1,64,0,0
1,57,0,0
1,66,127,48384
1,62,127,0
1,57,127,0
1,50,127,0
1,50,0,384
1,66,0,0
1,62,0,0
1,57,0,0
1,67,127,0
1,62,127,0
1,57,127,0
1,50,127,0
1,50,0,384
1,67,0,0
1,62,0,0
1,57,0,0
1,48,127,0
1,64,127,0
1,62,127,0
1,55,127,0
1,52,127,0
1,52,0,768
1,62,0,0
1,48,0,0
1,64,0,0
1,55,0,0
1,64,127,0
1,64,0,384
1,62,127,0
1,62,0,192
1,55,127,0
1,55,0,960
1,66,127,0
1,62,127,0
1,57,127,0
1,50,127,0
1,50,0,384
1,66,0,0
1,62,0,0
1,57,0,0
1,67,127,0
1,62,127,0
1,57,127,0
1,50,127,0
1,50,0,384
1,67,0,0
1,62,0,0
1,57,0,0
1,62,127,0
1,64,127,0
1,55,127,0
1,50,127,0
1,47,127,0
1,47,0,768
1,55,0,0
1,62,0,0
1,64,0,0
1,50,0,0
1,64,127,0
1,64,0,384
1,62,127,0
1,62,0,192
1,55,127,0
1,55,0,960
1,66,127,0
1,62,127,0
1,57,127,0
1,50,127,0
1,50,0,384
1,66,0,0
1,62,0,0
1,57,0,0
1,67,127,0
1,62,127,0
1,57,127,0
1,50,127,0
1,50,0,384
1,67,0,0
1,62,0,0
1,57,0,0
1,48,127,0
1,64,127,0
1,62,127,0
1,55,127,0
1,52,127,0
1,52,0,768
1,62,0,0
1,48,0,0
1,64,0,0
1,55,0,0
1,64,127,0
1,64,0,384
1,62,127,0
1,62,0,192
1,55,127,0
1,55,0,768
1,64,127,0
1,60,127,0
1,55,127,0
1,52,127,0
1,48,127,0
1,48,0,96
1,55,0,0
1,64,0,0
1,60,0,0
1,52,0,0
1,64,127,0
1,60,127,0
1,55,127,0
1,52,127,0
1,48,127,0
1,48,0,96
1,55,0,0
1,64,0,0
1,60,0,0
1,52,0,0
1,64,127,0
1,60,127,0
1,55,127,0
1,52,127,0
1,48,127,0
1,48,0,384
1,55,0,0
1,64,0,0
1,60,0,0
1,52,0,0
1,67,127,0
1,62,127,0
1,55,127,0
1,50,127,0
1,43,127,0
1,43,0,384
1,55,0,0
1,67,0,0
1,62,0,0
1,50,0,0
1,66,127,0
1,62,127,0
1,57,127,0
1,50,127,0
1,50,0,1536
1,66,0,0
1,62,0,0
1,57,0,0
1,66,127,192
1,64,127,0
1,57,127,0
1,50,127,0
1,50,0,192
1,66,0,0
1,64,0,0
1,57,0,0
1,66,127,0
1,64,127,0
1,57,127,0
1,50,127,0
1,50,0,192
1,66,0,0
1,64,0,0
1,57,0,0
1,66,127,0
1,64,127,0
1,57,127,0
1,50,127,0
1,50,0,960
1,66,0,0
1,64,0,0
1,57,0,0
1,66,127,17664
1,62,127,0
1,57,127,0
1,50,127,0
1,50,0,384
1,66,0,0
1,62,0,0
1,57,0,0
1,67,127,0
1,62,127,0
1,57,127,0
1,50,127,0
1,50,0,384
1,67,0,0
1,62,0,0
1,57,0,0
1,48,127,0
1,64,127,0
1,62,127,0
1,55,127,0
1,52,127,0
1,52,0,768
1,62,0,0
1,48,0,0
1,64,0,0
1,55,0,0
1,64,127,0
1,64,0,384
1,62,127,0
1,62,0,192
1,55,127,0
1,55,0,960
1,66,127,0
1,62,127,0
1,57,127,0
1,50,127,0
1,50,0,384
1,66,0,0
1,62,0,0
1,57,0,0
1,67,127,0
1,62,127,0
1,57,127,0
1,50,127,0
1,50,0,384
1,67,0,0
1,62,0,0
1,57,0,0
1,62,127,0
1,64,127,0
1,55,127,0
1,50,127,0
1,47,127,0
1,47,0,768
1,55,0,0
1,62,0,0
1,64,0,0
1,50,0,0
1,64,127,0
1,64,0,384
1,62,127,0
1,62,0,192
1,55,127,0
1,55,0,960
1,66,127,0
1,62,127,0
1,57,127,0
1,50,127,0
1,50,0,384
1,66,0,0
1,62,0,0
1,57,0,0
1,67,127,0
1,62,127,0
1,57,127,0
1,50,127,0
1,50,0,384
1,67,0,0
1,62,0,0
1,57,0,0
1,48,127,0
1,64,127,0
1,62,127,0
1,55,127,0
1,52,127,0
1,52,0,768
1,62,0,0
1,48,0,0
1,64,0,0
1,55,0,0
1,64,127,0
1,64,0,384
1,62,127,0
1,62,0,192
1,55,127,0
1,55,0,768
1,64,127,0
1,60,127,0
1,55,127,0
1,52,127,0
1,48,127,0
1,48,0,96
1,55,0,0
1,64,0,0
1,60,0,0
1,52,0,0
1,64,127,0
1,60,127,0
1,55,127,0
1,52,127,0
1,48,127,0
1,48,0,96
1,55,0,0
1,64,0,0
1,60,0,0
1,52,0,0
1,64,127,0
1,60,127,0
1,55,127,0
1,52,127,0
1,48,127,0
1,48,0,384
1,55,0,0
1,64,0,0
1,60,0,0
1,52,0,0
1,67,127,0
1,62,127,0
1,55,127,0
1,50,127,0
1,43,127,0
1,43,0,384
1,55,0,0
1,67,0,0
1,62,0,0
1,50,0,0
1,66,127,0
1,62,127,0
1,57,127,0
1,50,127,0
1,50,0,1536
1,66,0,0
1,62,0,0
1,57,0,0
1,66,127,192
1,64,127,0
1,57,127,0
1,50,127,0
1,50,0,192
1,66,0,0
1,64,0,0
1,57,0,0
1,66,127,0
1,64,127,0
1,57,127,0
1,50,127,0
1,50,0,192
1,66,0,0
1,64,0,0
1,57,0,0
1,66,127,0
1,64,127,0
1,57,127,0
1,50,127,0
1,50,0,960
1,66,0,0
1,64,0,0
1,57,0,0
1,66,127,37056
1,62,127,0
1,57,127,0
1,50,127,0
1,50,0,2304
1,66,0,0
1,62,0,0
1,57,0,0
1,64,127,768
1,62,127,0
1,57,127,0
1,50,127,0
1,50,0,384
1,64,0,0
1,62,0,0
1,57,0,0
1,64,127,0
1,62,127,0
1,57,127,0
1,50,127,0
1,50,0,1536
1,64,0,0
1,62,0,0
1,57,0,0
1,66,127,1152
1,62,127,0
1,57,127,0
1,50,127,0
1,50,0,2304
1,66,0,0
1,62,0,0
1,57,0,0
1,64,127,768
1,62,127,0
1,57,127,0
1,50,127,0
1,50,0,96
1,64,0,0
1,62,0,0
1,57,0,0
1,64,127,0
1,62,127,0
1,57,127,0
1,50,127,0
1,50,0,96
1,64,0,0
1,62,0,0
1,57,0,0
1,64,127,0
1,62,127,0
1,57,127,0
1,50,127,0
1,50,0,192
1,64,0,0
1,62,0,0
1,57,0,0
1,64,127,0
1,62,127,0
1,57,127,0
1,50,127,0
1,50,0,1536
1,64,0,0
1,62,0,0
1,57,0,0
1,64,127,1152
1,62,127,0
1,57,127,0
1,50,127,0
1,50,0,384
1,64,0,0
1,62,0,0
1,57,0,0
1,64,127,0
1,62,127,0
1,57,127,0
1,50,127,0
1,50,0,384
1,64,0,0
1,62,0,0
1,57,0,0
1,64,127,0
1,62,127,0
1,57,127,0
1,50,127,0
1,50,0,1536
1,64,0,0
1,62,0,0
1,57,0,0
1,67,127,3840
1,62,127,0
1,57,127,0
1,50,127,0
1,50,0,192
1,67,0,0
1,62,0,0
1,57,0,0
1,67,127,0
1,62,127,0
1,57,127,0
1,50,127,0
1,50,0,192
1,67,0,0
1,62,0,0
1,57,0,0
1,67,127,0
1,62,127,0
1,57,127,0
1,50,127,0
1,50,0,192
1,67,0,0
1,62,0,0
1,57,0,0
1,67,127,0
1,62,127,0
1,57,127,0
1,50,127,0
1,50,0,192
1,67,0,0
1,62,0,0
1,57,0,0
1,66,127,0
1,62,127,0
1,57,127,0
1,50,127,0
1,50,0,576
1,66,0,0
1,62,0,0
1,57,0,0
1,67,127,192
1,62,127,0
1,57,127,0
1,50,127,0
1,50,0,192
1,67,0,0
1,62,0,0
1,57,0,0
1,67,127,0
1,62,127,0
1,57,127,0
1,50,127,0
1,50,0,192
1,67,0,0
1,62,0,0
1,57,0,0
1,67,127,0
1,62,127,0
1,57,127,0
1,50,127,0
1,50,0,192
1,67,0,0
1,62,0,0
1,57,0,0
1,67,127,0
1,62,127,0
1,57,127,0
1,50,127,0
1,50,0,192
1,67,0,0
1,62,0,0
1,57,0,0
1,66,127,0
1,62,127,0
1,57,127,0
1,50,127,0
1,50,0,576
1,66,0,0
1,62,0,0
1,57,0,0
1,67,127,192
1,62,127,0
1,57,127,0
1,50,127,0
1,50,0,192
1,67,0,0
1,62,0,0
1,57,0,0
1,67,127,0
1,62,127,0
1,57,127,0
1,50,127,0
1,50,0,192
1,67,0,0
1,62,0,0
1,57,0,0
1,67,127,0
1,62,127,0
1,57,127,0
1,50,127,0
1,50,0,192
1,67,0,0
1,62,0,0
1,57,0,0
1,67,127,0
1,62,127,0
1,57,127,0
1,50,127,0
1,50,0,192
1,67,0,0
1,62,0,0
1,57,0,0
1,66,127,0
1,62,127,0
1,57,127,0
1,50,127,0
1,50,0,384
1,66,0,0
1,62,0,0
1,57,0,0
1,66,127,0
1,62,127,0
1,57,127,0
1,50,127,0
1,50,0,1536
1,66,0,0
1,62,0,0
1,57,0,0
1,67,127,384
1,62,127,0
1,57,127,0
1,50,127,0
1,50,0,192
1,67,0,0
1,62,0,0
1,57,0,0
1,67,127,0
1,62,127,0
1,57,127,0
1,50,127,0
1,50,0,192
1,67,0,0
1,62,0,0
1,57,0,0
1,67,127,0
1,62,127,0
1,57,127,0
1,50,127,0
1,50,0,192
1,67,0,0
1,62,0,0
1,57,0,0
1,67,127,0
1,62,127,0
1,57,127,0
1,50,127,0
1,50,0,192
1,67,0,0
1,62,0,0
1,57,0,0
1,66,127,0
1,62,127,0
1,57,127,0
1,50,127,0
1,50,0,576
1,66,0,0
1,62,0,0
1,57,0,0
1,67,127,192
1,62,127,0
1,57,127,0
1,50,127,0
1,50,0,192
1,67,0,0
1,62,0,0
1,57,0,0
1,67,127,0
1,62,127,0
1,57,127,0
1,50,127,0
1,50,0,192
1,67,0,0
1,62,0,0
1,57,0,0
1,67,127,0
1,62,127,0
1,57,127,0
1,50,127,0
1,50,0,192
1,67,0,0
1,62,0,0
1,57,0,0
1,67,127,0
1,62,127,0
1,57,127,0
1,50,127,0
1,50,0,192
1,67,0,0
1,62,0,0
1,57,0,0
1,66,127,0
1,62,127,0
1,57,127,0
1,50,127,0
1,50,0,576
1,66,0,0
1,62,0,0
1,57,0,0
1,67,127,192
1,62,127,0
1,57,127,0
1,50,127,0
1,50,0,192
1,67,0,0
1,62,0,0
1,57,0,0
1,67,127,0
1,62,127,0
1,57,127,0
1,50,127,0
1,50,0,192
1,67,0,0
1,62,0,0
1,57,0,0
1,67,127,0
1,62,127,0
1,57,127,0
1,50,127,0
1,50,0,192
1,67,0,0
1,62,0,0
1,57,0,0
1,67,127,0
1,62,127,0
1,57,127,0
1,50,127,0
1,50,0,192
1,67,0,0
1,62,0,0
1,57,0,0
1,66,127,0
1,62,127,0
1,57,127,0
1,50,127,0
1,50,0,384
1,66,0,0
1,62,0,0
1,57,0,0
1,66,127,0
1,62,127,0
1,57,127,0
1,50,127,0
1,50,0,1536
1,66,0,0
1,62,0,0
1,57,0,0
1,66,127,192
1,62,127,0
1,57,127,0
1,50,127,0
1,50,0,3072
1,66,0,0
1,62,0,0
1,57,0,0
1,67,127,184
1,62,127,0
1,57,127,0
1,50,127,0
1,50,0,192
1,67,0,0
1,62,0,0
1,57,0,0
1,67,127,0
1,62,127,0
1,57,127,0
1,50,127,0
1,50,0,192
1,67,0,0
1,62,0,0
1,57,0,0
1,67,127,0
1,62,127,0
1,57,127,0
1,50,127,0
1,50,0,192
1,67,0,0
1,62,0,0
1,57,0,0
1,67,127,0
1,62,127,0
1,57,127,0
1,50,127,0
1,50,0,192
1,67,0,0
1,62,0,0
1,57,0,0
1,66,127,0
1,62,127,0
1,57,127,0
1,50,127,0
1,50,0,384
1,66,0,0
1,62,0,0
1,57,0,0
1,66,127,0
1,62,127,0
1,57,127,0
1,50,127,0
1,50,0,1536
1,66,0,0
1,62,0,0
1,57,0,0
1,66,127,200
1,62,127,0
1,57,127,0
1,50,127,0
1,50,0,1536
1,66,0,0
1,62,0,0
1,57,0,0
2,69,92,28412
2,69,0,116
2,69,92,0
2,69,0,384
2,71,92,0
2,71,0,192
2,71,92,0
2,71,0,1232
2,74,88,10368
2,62,88,0
2,74,0,368
2,71,88,0
2,71,0,96
2,74,88,0
2,74,0,96
2,74,88,0
2,74,0,576
2,71,88,0
2,71,0,96
2,74,88,0
2,74,0,96
2,74,88,0
2,74,0,192
2,74,88,0
2,74,0,384
2,71,88,0
2,71,0,96
2,74,88,0
2,74,0,288
2,62,0,0
2,71,88,0
2,64,88,0
2,71,0,1152
2,71,88,0
2,71,0,96
2,74,88,0
2,74,0,96
2,71,88,0
2,71,0,192
2,64,0,0
2,71,88,0
2,67,88,0
2,67,0,1536
2,71,0,0
2,69,88,0
2,66,88,0
2,66,0,1152
2,69,0,0
2,69,88,0
2,64,88,0
2,64,0,1152
2,69,0,0
2,64,88,0
2,64,0,116
2,64,88,0
2,64,0,384
2,66,88,0
2,66,0,192
2,66,88,0
2,66,0,28
2,71,88,0
2,71,0,192
2,73,88,0
2,73,0,192
2,73,88,0
2,73,0,192
2,78,88,0
2,78,0,192
2,78,88,0
2,78,0,200
2,71,88,0
2,71,0,384
2,73,88,0
2,73,0,192
2,64,88,0
2,64,0,256
2,69,88,0
2,69,0,256
2,71,88,0
2,71,0,256
2,73,88,0
2,73,0,256
2,64,88,0
2,64,0,256
2,73,88,0
2,73,0,256
2,69,88,0
2,69,0,84
2,74,88,0
2,69,88,0
2,69,0,96
2,74,0,0
2,76,88,0
2,71,88,0
