track,note,velocity,time
1,69,100,1916
1,69,0,120
1,60,100,0
1,60,0,120
1,60,100,0
1,60,0,120
1,69,100,0
1,69,0,120
1,60,100,0
1,60,0,120
1,60,100,0
1,60,0,120
1,69,100,0
1,69,0,120
1,60,100,0
1,60,0,120
1,70,100,0
1,70,0,120
1,60,100,0
1,60,0,120
1,60,100,0
1,60,0,120
1,69,100,0
1,69,0,240
1,70,100,0
1,70,0,360
1,70,100,0
1,70,0,120
1,60,100,0
1,60,0,120
1,60,100,0
1,60,0,120
1,70,100,0
1,70,0,120
1,60,100,0
1,60,0,120
1,60,100,0
1,60,0,120
1,70,100,0
1,70,0,120
1,60,100,0
1,60,0,120
1,72,100,0
1,72,0,120
1,60,100,0
1,60,0,120
1,60,100,0
1,60,0,120
1,70,100,0
1,70,0,120
1,72,100,0
1,72,0,480
1,60,100,0
1,72,100,0
1,72,0,120
1,60,0,0
1,60,100,0
1,60,0,120
1,60,100,0
1,60,0,120
1,60,100,0
1,72,100,0
1,72,0,120
1,60,0,0
1,60,100,0
1,60,0,120
1,72,100,0
1,60,100,0
1,60,0,60
1,72,0,0
1,60,100,0
1,72,100,0
1,72,0,60
1,60,0,0
1,72,100,0
1,60,100,0
1,60,0,120
1,72,0,0
1,72,100,0
1,60,100,0
1,60,0,960
1,72,0,0
1,59,100,15480
1,59,0,120
1,66,100,0
1,66,0,120
1,59,100,0
1,59,0,120
1,64,100,0
1,64,0,120
1,59,100,0
1,59,0,120
1,66,100,0
1,66,0,240
1,61,100,120
1,61,0,120
1,66,100,0
1,66,0,120
1,61,100,0
1,61,0,120
1,64,100,0
1,64,0,120
1,61,100,0
1,61,0,120
1,66,100,0
1,66,0,240
1,61,100,120
1,61,0,120
1,68,100,0
1,68,0,120
1,61,100,0
1,61,0,120
1,66,100,0
1,66,0,120
1,61,100,0
1,61,0,120
1,68,100,0
1,68,0,480
1,61,100,120
1,64,100,0
1,64,0,120
1,61,0,0
1,66,100,0
1,61,100,0
1,61,0,360
1,66,0,0
1,68,100,0
1,61,100,0
1,61,0,240
1,68,0,0
1,59,100,0
1,59,0,120
1,66,100,0
1,66,0,120
1,59,100,0
1,59,0,120
1,64,100,0
1,64,0,120
1,59,100,0
1,59,0,120
1,66,100,0
1,66,0,240
1,61,100,120
1,61,0,120
1,66,100,0
1,66,0,120
1,61,100,0
1,61,0,120
1,64,100,0
1,64,0,120
1,61,100,0
1,61,0,120
1,66,100,0
1,66,0,240
1,61,100,120
1,61,0,120
1,68,100,0
1,68,0,120
1,61,100,0
1,61,0,120
1,66,100,0
1,66,0,120
1,61,100,0
1,61,0,120
1,68,100,0
1,68,0,480
1,61,100,120
1,64,100,0
1,64,0,120
1,61,0,0
1,66,100,0
1,61,100,0
1,61,0,360
1,66,0,0
1,68,100,0
1,61,100,0
1,61,0,240
1,68,0,0
1,73,100,120
1,73,0,120
1,66,100,0
1,66,0,120
1,73,100,0
1,68,100,120
1,73,0,480
1,68,0,120
1,73,100,0
1,73,0,120
1,66,100,0
1,73,100,120
1,73,0,600
1,66,0,0
1,66,100,0
1,66,0,120
1,73,100,0
1,73,0,120
1,66,100,0
1,66,0,120
1,73,100,0
1,66,100,120
1,73,0,480
1,66,0,120
1,66,100,0
1,66,0,120
1,73,100,0
1,66,100,120
1,73,0,600
1,66,0,120
1,73,100,0
1,73,0,120
1,66,100,0
1,66,0,120
1,73,100,0
1,68,100,120
1,73,0,480
1,68,0,120
1,73,100,0
1,73,0,100
1,66,100,0
1,73,100,120
1,73,0,140
1,66,0,0
1,66,100,0
1,66,0,120
1,73,100,0
1,73,0,90
1,66,100,0
1,66,0,120
1,73,100,0
1,66,100,120
1,73,0,36
1,66,0,120
1,59,100,15366
1,59,0,120
1,66,100,0
1,66,0,120
1,59,100,0
1,59,0,120
1,64,100,0
1,64,0,120
1,59,100,0
1,59,0,120
1,66,100,0
1,66,0,240
1,61,100,120
1,61,0,120
1,66,100,0
1,66,0,120
1,61,100,0
1,61,0,120
1,64,100,0
1,64,0,120
1,61,100,0
1,61,0,120
1,66,100,0
1,66,0,240
1,61,100,120
1,61,0,120
1,68,100,0
1,68,0,120
1,61,100,0
1,61,0,120
1,66,100,0
1,66,0,120
1,61,100,0
1,61,0,120
1,68,100,0
1,68,0,480
1,61,100,120
1,64,100,0
1,64,0,120
1,61,0,0
1,66,100,0
1,61,100,0
1,61,0,360
1,66,0,0
1,68,100,0
1,61,100,0
1,61,0,240
1,68,0,0
1,59,100,0
1,59,0,120
1,66,100,0
1,66,0,120
1,59,100,0
1,59,0,120
1,64,100,0
1,64,0,120
1,59,100,0
1,59,0,120
1,66,100,0
1,66,0,240
1,61,100,120
1,61,0,120
1,66,100,0
1,66,0,120
1,61,100,0
1,61,0,120
1,64,100,0
1,64,0,120
1,61,100,0
1,61,0,120
1,66,100,0
1,66,0,240
1,61,100,120
1,61,0,120
1,68,100,0
1,68,0,120
1,61,100,0
1,61,0,120
1,66,100,0
1,66,0,120
1,61,100,0
1,61,0,120
1,68,100,0
1,68,0,480
1,61,100,120
1,64,100,0
1,64,0,120
1,61,0,0
1,66,100,0
1,61,100,0
1,61,0,360
1,66,0,0
1,68,100,0
1,61,100,0
1,61,0,240
1,68,0,0
1,73,100,120
1,73,0,120
1,66,100,0
1,66,0,120
1,73,100,0
1,68,100,120
1,73,0,480
1,68,0,120
1,73,100,0
1,73,0,120
1,66,100,0
1,73,100,120
1,73,0,600
1,66,0,0
1,66,100,0
1,66,0,120
1,73,100,0
1,73,0,120
1,66,100,0
1,66,0,120
1,73,100,0
1,66,100,120
1,73,0,480
1,66,0,120
1,66,100,0
1,66,0,120
1,73,100,0
1,66,100,120
1,73,0,600
1,66,0,120
1,73,100,0
1,73,0,120
1,66,100,0
1,66,0,120
1,73,100,0
1,68,100,120
1,73,0,480
1,68,0,120
1,73,100,0
1,73,0,120
1,66,100,0
1,73,100,120
1,73,0,600
1,66,0,0
1,66,100,0
1,66,0,120
1,73,100,0
1,73,0,120
1,66,100,0
1,66,0,120
1,73,100,0
1,66,100,120
1,73,0,480
1,66,0,120
1,46,100,360
1,46,0,240
1,42,100,0
1,42,0,240
1,43,100,0
1,43,0,720
1,45,100,120
1,45,0,360
1,48,100,240
1,55,100,0
1,55,0,240
1,48,0,0
1,42,100,0
1,49,100,0
1,49,0,240
1,42,0,0
1,40,100,0
1,52,100,0
1,43,100,840
1,43,0,120
1,52,0,0
1,40,0,0
1,43,100,0
1,43,0,240
1,43,100,240
1,43,0,240
1,50,100,0
1,62,100,0
1,62,0,240
1,50,0,0
1,40,100,0
1,47,100,0
1,47,0,240
1,40,0,0
1,40,100,600
1,47,100,0
1,47,0,120
1,40,0,0
1,40,100,0
1,47,100,0
1,47,0,240
1,40,0,0
1,43,100,240
1,43,0,240
1,50,100,0
1,62,100,0
1,62,0,240
1,50,0,0
1,64,100,240
1,64,0,120
1,65,100,0
1,65,0,120
1,66,100,0
1,66,0,180
1,67,100,0
1,67,0,180
1,68,100,0
1,68,0,120
1,69,100,0
1,69,0,120
1,71,100,0
1,71,0,180
1,72,100,0
1,72,0,180
1,72,100,0
1,72,0,120
1,73,100,0
1,73,0,180
1,74,100,0
1,74,0,180
1,46,100,0
1,46,0,120
1,46,100,0
1,46,0,120
1,46,100,0
1,46,0,120
1,46,100,0
1,46,0,120
1,46,100,0
1,46,0,120
1,46,100,0
1,46,0,120
1,46,100,0
1,46,0,120
1,46,100,0
1,46,0,120
1,48,100,0
1,48,0,120
1,48,100,0
1,48,0,120
1,48,100,0
1,48,0,120
1,48,100,0
1,48,0,120
1,50,100,0
1,50,0,120
1,50,100,0
1,50,0,120
1,50,100,0
1,50,0,120
1,50,100,0
1,50,0,120
1,46,100,0
1,46,0,120
1,46,100,0
1,46,0,120
1,46,100,0
1,46,0,120
1,46,100,0
1,46,0,120
1,46,100,0
1,46,0,120
1,46,100,0
1,46,0,120
1,46,100,0
1,46,0,120
1,46,100,0
1,46,0,120
1,48,100,0
1,48,0,120
1,48,100,0
1,48,0,120
1,48,100,0
1,48,0,120
1,48,100,0
1,48,0,120
1,50,100,0
1,50,0,120
1,50,100,0
1,50,0,120
1,48,100,0
1,48,0,120
1,48,100,0
1,48,0,120
1,46,100,0
1,46,0,120
1,46,100,0
1,46,0,120
1,46,100,0
1,46,0,120
1,46,100,0
1,46,0,120
1,46,100,0
1,46,0,120
1,46,100,0
1,46,0,120
1,46,100,0
1,46,0,120
1,46,100,0
1,46,0,120
1,48,100,0
1,48,0,120
1,48,100,0
1,48,0,120
1,48,100,0
1,48,0,120
1,48,100,0
1,48,0,120
1,50,100,0
1,50,0,120
1,50,100,0
1,50,0,120
1,50,100,0
1,50,0,120
1,50,100,0
1,50,0,120
1,46,100,0
1,46,0,120
1,46,100,0
1,46,0,120
1,46,100,0
1,46,0,120
1,46,100,0
1,46,0,120
1,46,100,0
1,46,0,120
1,46,100,0
1,46,0,120
1,46,100,0
1,46,0,120
1,46,100,0
1,46,0,120
1,48,100,0
1,48,0,120
1,48,100,0
1,48,0,120
1,48,100,0
1,48,0,120
1,48,100,0
1,48,0,120
1,50,100,0
1,50,0,120
1,50,100,0
1,50,0,120
1,48,100,0
1,48,0,120
1,48,100,0
1,48,0,120
1,59,100,0
1,59,0,120
1,66,100,0
1,66,0,120
1,59,100,0
1,59,0,120
1,64,100,0
1,64,0,120
1,59,100,0
1,59,0,120
1,66,100,0
1,66,0,240
1,61,100,120
1,61,0,120
1,66,100,0
1,66,0,120
1,61,100,0
1,61,0,120
1,64,100,0
1,64,0,120
1,61,100,0
1,61,0,120
1,66,100,0
1,66,0,240
1,61,100,120
1,61,0,120
1,68,100,0
1,68,0,120
1,61,100,0
1,61,0,120
1,66,100,0
1,66,0,120
1,61,100,0
1,61,0,120
1,68,100,0
1,68,0,480
1,61,100,120
1,64,100,0
1,64,0,120
1,61,0,0
1,66,100,0
1,61,100,0
1,61,0,360
1,66,0,0
1,68,100,0
1,61,100,0
1,61,0,240
1,68,0,0
1,59,100,0
1,59,0,120
1,66,100,0
1,66,0,120
1,59,100,0
1,59,0,120
1,64,100,0
1,64,0,120
1,59,100,0
1,59,0,120
1,66,100,0
1,66,0,240
1,61,100,120
1,61,0,120
1,66,100,0
1,66,0,120
1,61,100,0
1,61,0,120
1,64,100,0
1,64,0,120
1,61,100,0
1,61,0,120
1,66,100,0
1,66,0,240
1,61,100,120
1,61,0,120
1,68,100,0
1,68,0,120
1,61,100,0
1,61,0,120
1,66,100,0
1,66,0,120
1,61,100,0
1,61,0,120
1,68,100,0
1,68,0,480
1,61,100,120
1,64,100,0
1,64,0,120
1,61,0,0
1,66,100,0
1,61,100,0
1,61,0,360
1,66,0,0
1,68,100,0
1,61,100,0
1,61,0,240
1,68,0,0
1,73,100,120
1,73,0,120
1,66,100,0
1,66,0,120
1,73,100,0
1,68,100,120
1,73,0,480
1,68,0,120
1,73,100,0
1,73,0,120
1,66,100,0
1,73,100,120
1,73,0,600
1,66,0,0
1,66,100,0
1,66,0,120
1,73,100,0
1,73,0,120
1,66,100,0
1,66,0,120
1,73,100,0
1,66,100,120
1,73,0,480
1,66,0,120
1,66,100,0
1,66,0,120
1,73,100,0
1,66,100,120
1,73,0,600
1,66,0,120
1,73,100,0
1,73,0,120
1,66,100,0
1,66,0,120
1,73,100,0
1,68,100,120
1,73,0,480
1,68,0,120
1,73,100,0
1,73,0,100
1,66,100,0
1,73,100,120
1,73,0,140
1,66,0,0
1,66,100,0
1,66,0,120
1,73,100,0
1,73,0,90
1,66,100,0
1,66,0,120
1,73,100,0
1,66,100,120
1,66,0,36
1,73,0,0
1,66,100,0
1,66,0,120
1,73,100,0
1,73,0,6
1,66,100,0
1,66,0,6
1,73,100,0
1,78,100,0
1,78,0,6
1,73,0,0
1,73,100,120
1,73,0,120
1,66,100,0
1,66,0,120
1,73,100,0
1,68,100,120
1,73,0,480
1,68,0,120
1,73,100,0
1,73,0,120
1,66,100,0
1,73,100,120
1,73,0,600
1,66,0,0
1,66,100,0
1,66,0,120
1,73,100,0
1,73,0,120
1,66,100,0
1,66,0,120
1,73,100,0
1,66,100,120
1,73,0,480
1,66,0,120
1,66,100,0
1,66,0,120
1,73,100,0
1,66,100,120
1,73,0,600
1,66,0,120
1,73,100,0
1,73,0,120
1,66,100,0
1,66,0,120
1,73,100,0
1,68,100,120
1,73,0,480
1,68,0,120
1,73,100,0
1,73,0,100
1,66,100,0
1,73,100,120
1,73,0,140
1,66,0,0
1,66,100,0
1,66,0,120
1,73,100,0
1,73,0,90
1,66,100,0
1,66,0,120
1,73,100,0
1,73,0,120
1,66,100,0
1,73,100,0
1,73,0,16
1,66,0,0
1,66,100,0
1,73,100,0
1,73,0,16
1,66,0,0
1,66,100,0
1,73,100,0
1,73,0,76
1,66,0,0
1,66,100,0
1,73,100,0
1,73,0,36
1,66,0,0
1,66,100,0
1,73,100,0
1,78,100,0
1,78,0,120
1,73,0,0
1,66,0,0
1,73,100,0
1,66,100,0
1,78,100,0
1,78,0,6
1,66,0,0
1,73,0,0
1,73,100,0
1,66,100,0
1,78,100,0
1,78,0,6
1,66,0,0
1,73,0,0
1,73,100,0
1,66,100,0
1,78,100,0
1,78,0,6
1,66,0,0
1,73,0,0
1,73,100,0
1,66,100,0
1,78,100,0
1,78,0,6
1,66,0,0
1,73,0,0
1,66,100,0
1,73,100,0
1,78,100,0
1,78,0,6
1,73,0,0
1,66,0,0
1,66,100,0
1,66,0,6
1,73,100,0
1,73,0,6
1,66,100,0
1,66,0,120
1,78,100,0
1,73,100,0
1,73,0,120
1,78,0,0
1,66,100,0
1,66,0,120
1,73,100,0
1,78,100,0
1,66,100,600
1,66,0,120
1,78,0,0
1,73,0,0
1,73,100,0
1,73,0,120
1,66,100,0
1,66,0,120
1,78,100,0
1,73,100,0
1,66,100,600
1,66,0,120
1,73,0,0
1,78,0,0
1,78,100,0
1,73,100,0
1,73,0,120
1,78,0,0
1,66,100,0
1,66,0,120
1,78,100,0
1,73,100,0
1,73,0,120
1,78,0,0
1,66,100,0
1,66,0,120
1,73,100,0
1,78,100,0
1,78,0,120
1,73,0,0
1,73,100,0
1,78,100,0
1,78,0,120
1,73,0,0
1,73,100,0
1,78,100,0
1,78,0,120
1,73,0,0
1,76,100,0
1,81,100,0
1,69,100,0
1,69,0,120
1,81,0,0
1,76,0,0
1,73,100,0
1,66,100,0
1,66,0,120
1,73,0,0
1,66,100,0
1,73,100,0
1,73,0,120
1,66,0,0
1,81,100,0
1,76,100,0
1,66,100,0
1,66,0,360
1,76,0,0
1,81,0,0
1,66,100,1200
1,66,0,120
1,73,100,0
1,73,0,120
1,66,100,0
1,66,0,120
1,66,100,0
1,73,100,0
1,73,0,720
1,66,0,0
1,73,100,0
1,73,0,120
1,66,100,0
1,66,0,120
1,73,100,0
1,66,100,0
1,66,0,720
1,73,0,0
1,73,100,0
1,73,0,120
1,66,100,0
1,66,0,120
1,73,100,0
1,73,0,120
1,66,100,0
1,73,100,0
1,73,0,120
1,66,0,0
1,66,100,0
1,73,100,0
1,73,0,120
1,66,0,0
1,66,100,0
1,73,100,0
1,73,0,120
1,66,0,0
1,66,100,0
1,73,100,0
1,73,0,120
1,66,0,0
2,46,100,0
2,53,100,0
2,53,0,86
2,46,0,0
2,46,100,0
2,53,100,0
2,53,0,120
2,46,0,0
2,46,100,0
2,53,100,0
2,53,0,120
2,46,0,0
2,46,100,0
2,53,100,0
2,53,0,120
2,46,0,0
2,46,100,0
2,53,100,0
2,53,0,120
2,46,0,0
2,46,100,0
2,53,100,0
2,53,0,120
2,46,0,0
2,46,100,0
2,53,100,0
2,53,0,120
2,46,0,0
2,46,100,0
2,53,100,0
2,53,0,120
2,46,0,0
2,48,100,0
2,55,100,0
2,55,0,120
2,48,0,0
2,48,100,0
2,55,100,0
2,55,0,120
2,48,0,0
2,48,100,0
2,55,100,0
2,55,0,120
2,48,0,0
