track,note,velocity,time
2,50,108,1
2,54,96,91
2,50,108,78
2,55,99,2
2,54,105,193
2,50,107,82
2,55,105,1
2,54,107,200
2,50,108,75
2,55,108,2
2,54,109,199
2,50,102,5
2,50,112,92
2,54,101,9
2,55,99,99
2,54,107,189
2,50,105,182
2,50,107,108
2,54,105,99
2,55,105,84
2,54,107,191
2,47,102,3
2,47,104,82
2,54,105,97
2,55,100,93
2,54,105,185
2,47,108,7
2,50,114,103
2,54,98,2
2,55,103,96
2,54,109,182
2,50,108,6
2,54,114,189
2,50,100,4
2,55,102,8
2,54,101,192
2,50,86,9
2,55,94,100
2,54,101,178
2,50,98,2
2,55,94,10
2,54,101,198
2,50,105,75
2,50,108,85
2,54,96,91
2,50,108,78
2,55,99,2
2,54,105,193
2,50,107,82
2,55,105,1
2,54,107,200
2,50,108,75
2,55,108,2
2,54,109,199
2,50,114,169
2,50,112,77
2,54,101,9
2,55,99,99
2,54,107,189
2,50,105,182
2,50,107,108
2,54,105,99
2,55,105,84
2,54,107,191
2,50,108,3
2,47,104,82
2,54,105,97
2,55,100,93
2,54,105,185
2,47,108,7
2,50,114,103
2,54,98,2
2,55,103,96
2,54,109,182
2,50,108,6
2,54,114,189
2,50,100,4
2,55,102,8
2,54,101,192
2,50,86,9
2,55,94,100
2,54,101,178
2,50,98,2
2,55,94,10
2,54,101,198
2,50,105,75
2,50,108,84
2,54,102,96
2,50,109,75
2,55,99,91
2,54,92,183
2,50,92,180
2,54,99,101
2,50,94,93
2,55,99,57
2,54,101,176
2,50,99,174
2,50,98,95
2,54,94,96
2,55,96,77
2,54,94,176
2,50,95,170
2,50,95,95
2,54,94,93
2,55,96,69
2,54,94,181
2,50,103,161
2,47,103,92
2,54,92,91
2,55,99,86
2,54,96,190
2,47,103,1
2,50,105,85
2,54,94,96
2,55,95,90
2,54,101,187
2,50,108,7
2,54,108,95
2,50,105,0
2,55,100,96
2,54,98,178
2,50,100,71
2,55,102,3
2,54,101,194
2,50,108,72
2,55,102,13
2,54,85,191
2,64,127,559
2,62,127,14
2,55,127,6
2,55,95,48
2,64,127,369
2,62,127,15
2,55,127,23
2,55,95,48
2,64,127,373
2,62,127,195
2,55,127,5
2,55,95,48
2,66,127,863
2,62,127,0
2,57,127,0
2,66,127,15
2,57,127,0
2,62,127,0
2,66,127,21
2,57,127,0
2,62,127,1
2,66,127,45
2,57,127,0
2,62,127,0
2,50,108,9390
2,54,102,96
2,50,109,75
2,55,99,91
2,54,92,183
2,50,92,180
2,54,99,101
2,50,94,93
2,55,99,57
2,54,101,176
2,50,99,174
2,50,98,95
2,54,94,96
2,55,96,77
2,54,94,176
2,50,95,170
2,50,95,95
2,54,94,93
2,55,96,69
2,54,94,181
2,50,103,161
2,50,108,2
2,54,96,91
2,50,108,78
2,55,99,2
2,54,105,193
2,50,107,82
2,55,105,1
2,54,107,200
2,50,108,75
2,55,108,2
2,54,109,199
2,50,114,169
2,50,112,77
2,54,101,9
2,55,99,99
2,54,107,189
2,50,105,182
2,50,107,108
2,54,105,99
2,55,105,84
2,54,107,191
2,50,108,3
2,47,104,82
2,54,105,97
2,55,100,93
2,54,105,185
2,47,108,7
2,50,114,103
2,54,98,2
2,55,103,96
2,54,109,182
2,50,108,6
2,54,114,189
2,50,100,4
2,55,102,8
2,54,101,192
2,50,86,9
2,55,94,100
2,54,101,178
2,50,98,2
2,55,94,10
2,54,101,198
2,50,105,75
2,50,108,84
2,54,102,96
2,50,109,75
2,55,99,91
2,54,92,183
2,50,92,180
2,54,99,101
2,50,94,93
2,55,99,57
2,54,101,176
2,50,99,174
2,50,98,95
2,54,94,96
2,55,96,77
2,54,94,176
2,50,95,170
2,50,95,95
2,54,94,93
2,55,96,69
2,54,94,181
2,50,103,161
2,47,103,92
2,54,92,91
2,55,99,86
2,54,96,190
2,47,103,1
2,50,105,85
2,54,94,96
2,55,95,90
2,54,101,187
2,50,108,7
2,54,108,95
2,50,105,0
2,55,100,96
2,54,98,178
2,50,100,71
2,55,102,3
2,54,101,194
2,50,108,72
2,55,102,13
2,54,85,191
2,64,127,559
2,62,127,14
2,55,127,6
2,55,95,48
2,64,127,369
2,62,127,15
2,55,127,23
2,55,95,48
2,64,127,373
2,62,127,195
2,55,127,5
2,55,95,48
2,66,127,863
2,62,127,0
2,57,127,0
2,66,127,15
2,57,127,0
2,62,127,0
2,66,127,21
2,57,127,0
2,62,127,1
2,66,127,45
2,57,127,0
2,62,127,0
2,64,127,23583
2,62,127,14
2,55,127,6
2,55,95,48
2,64,127,369
2,62,127,15
2,55,127,23
2,55,95,48
2,64,127,373
2,62,127,195
2,55,127,5
2,55,95,48
2,66,127,863
2,62,127,0
2,57,127,0
2,66,127,15
2,57,127,0
2,62,127,0
2,66,127,21
2,57,127,0
2,62,127,1
2,66,127,45
2,57,127,0
2,62,127,0
2,50,108,15534
2,54,102,96
2,50,109,75
2,55,99,91
2,54,92,183
2,50,92,180
2,54,99,101
2,50,94,93
2,55,99,57
2,54,101,176
2,50,99,174
2,50,98,95
2,54,94,96
2,55,96,77
2,54,94,176
2,50,95,170
2,50,95,95
2,54,94,93
2,55,96,69
2,54,94,181
2,50,103,161
2,54,96,105
2,50,108,101
2,55,99,2
2,54,105,193
2,50,107,82
2,55,105,1
2,54,107,200
2,50,108,75
2,55,108,2
2,54,109,199
2,50,102,5
2,50,88,0
2,54,96,44
2,50,108,101
2,55,99,2
2,54,105,193
2,50,107,82
2,55,105,1
2,54,107,200
2,50,108,75
2,55,108,2
2,54,109,199
2,50,102,5
2,50,88,0
2,54,102,48
2,55,99,91
2,54,92,184
2,50,92,180
2,50,88,13
2,54,102,48
2,50,109,88
2,55,99,91
2,54,92,183
2,50,92,180
2,50,88,13
2,54,102,48
2,50,109,88
2,55,99,91
2,54,92,183
2,50,92,180
2,50,88,13
2,54,102,48
2,50,109,88
2,55,99,91
2,54,92,183
2,50,92,180
2,50,88,13
2,54,102,48
2,50,109,88
2,55,99,91
2,54,92,183
2,50,92,180
2,50,88,13
2,54,102,48
2,50,109,88
2,55,99,91
2,54,92,183
2,50,92,180
2,50,88,13
2,54,102,48
2,50,109,88
2,55,99,91
2,54,92,183
2,50,92,180
2,50,88,13
2,54,102,48
2,50,109,88
2,55,99,91
2,54,92,183
2,50,92,180
2,50,88,0
2,54,102,0
2,50,109,16
2,55,99,43
2,54,92,11
2,50,92,62
2,50,88,13
2,54,102,48
2,50,109,64
2,55,99,19
2,54,92,59
2,50,92,38
2,50,88,0
2,54,102,24
2,50,109,40
2,55,99,67
2,54,92,35
2,50,92,14
2,50,88,13
2,54,102,0
2,50,109,16
2,55,99,43
2,54,92,11
2,50,92,62
2,50,88,13
2,54,102,48
2,50,109,40
2,55,99,67
2,54,92,35
2,50,92,14
2,50,88,13
2,54,102,0
2,50,109,16
2,55,99,43
2,54,92,11
2,50,92,62
2,50,88,13
2,54,102,48
2,50,109,64
2,55,99,19
2,54,92,59
2,50,92,38
2,50,88,0
2,54,102,24
2,50,109,40
2,55,99,67
2,54,92,35
2,50,92,14
2,50,88,13
2,54,102,0
2,50,109,88
2,55,99,19
2,54,92,59
2,50,92,38
2,50,88,0
2,54,102,24
2,50,109,40
2,55,99,67
2,54,92,35
2,50,92,14
2,50,88,13
2,54,102,0
2,50,109,16
2,55,99,43
2,54,92,11
2,50,92,62
2,50,88,13
2,54,102,48
2,50,109,64
2,55,99,19
2,54,92,59
2,50,92,38
3,47,80,2880
3,40,80,192
3,67,80,144
3,74,80,0
3,43,80,0
3,74,80,192
3,67,80,0
3,64,80,768
3,62,80,8
3,64,80,97
3,62,80,7
3,64,80,2
3,62,80,15
3,62,80,46
3,50,108,5993
3,54,102,96
3,50,109,75
3,55,99,91
3,54,92,183
3,50,92,180
3,54,99,98
3,50,94,93
3,55,99,57
3,54,101,176
3,50,99,174
3,50,98,95
3,54,94,96
3,55,96,77
3,54,94,176
3,50,95,170
3,50,95,95
3,54,94,93
3,55,96,69
3,54,94,181
3,50,103,161
3,47,103,92
3,54,92,91
3,55,99,86
3,54,96,190
3,47,103,1
3,50,105,85
3,54,94,96
3,55,95,90
3,54,101,187
3,50,108,7
3,54,108,95
3,50,105,0
3,55,100,96
3,54,98,178
3,50,100,71
3,55,102,3
3,54,101,194
3,50,108,72
3,55,102,13
3,54,85,191
3,50,99,89
3,64,80,6206
3,74,70,0
3,59,80,4
3,64,80,95
3,74,70,1
3,59,80,0
3,64,80,79
3,74,70,0
3,62,80,0
3,59,80,15
3,74,70,2
3,48,80,21
3,74,70,96
3,74,70,96
3,64,80,118
3,74,70,1
3,62,80,93
3,57,80,2
3,74,70,2
3,50,80,11
3,74,70,98
3,74,70,96
3,74,70,120
3,74,70,96
3,50,80,24
3,57,80,0
3,62,80,0
3,74,70,96
3,74,70,96
3,74,70,120
3,74,70,0
3,64,80,119
3,74,70,1
3,59,80,95
3,64,80,73
3,74,70,1
3,59,80,24
3,64,80,76
3,74,70,1
3,62,80,82
3,59,80,61
3,74,70,0
3,48,80,13
3,74,70,97
3,74,70,96
3,64,80,24
3,74,70,1
3,62,80,94
3,57,80,8
3,74,70,1
3,50,80,10
3,74,70,98
3,74,70,96
3,74,70,120
3,74,70,96
3,50,80,24
3,57,80,0
3,62,80,0
3,74,70,96
3,74,70,96
3,74,70,120
3,74,70,0
3,64,80,119
3,74,70,1
3,59,80,95
3,64,80,79
3,74,70,0
3,59,80,24
3,64,80,81
3,74,70,0
3,62,80,0
3,59,80,62
3,74,70,0
3,48,80,23
3,74,70,96
3,74,70,96
3,64,80,7
3,74,70,1
3,62,80,95
3,60,80,0
3,74,70,1
3,62,80,0
3,74,70,97
3,69,70,0
3,50,108,726
3,54,102,96
3,50,109,75
3,55,99,91
3,54,92,183
3,50,92,180
3,54,99,98
3,50,94,93
3,55,99,57
3,54,101,176
3,50,99,174
3,50,98,95
3,54,94,96
3,55,96,77
3,54,94,176
3,50,95,170
3,50,95,95
3,54,94,93
3,55,96,69
3,54,94,181
3,50,103,161
3,62,80,1
3,50,108,5993
3,54,102,96
3,50,109,75
3,55,99,91
3,54,92,183
3,50,92,180
3,54,99,98
3,50,94,93
3,55,99,57
3,54,101,176
3,50,99,174
3,50,98,95
3,54,94,96
3,55,96,77
3,54,94,176
3,50,95,170
3,50,95,95
3,54,94,93
3,55,96,69
3,54,94,181
3,50,103,161
3,47,103,92
3,54,92,91
3,55,99,86
3,54,96,190
3,47,103,1
3,50,105,85
3,54,94,96
3,55,95,90
3,54,101,187
3,50,108,7
3,54,108,95
3,50,105,0
3,55,100,96
3,54,98,178
3,50,100,71
3,55,102,3
3,54,101,194
3,50,108,72
3,55,102,13
3,54,85,191
3,50,99,89
3,64,80,6206
3,74,70,0
3,59,80,4
3,64,80,95
3,74,70,1
3,59,80,0
3,64,80,79
3,74,70,0
3,62,80,0
3,59,80,15
3,74,70,2
3,48,80,21
3,74,70,96
3,74,70,96
3,64,80,118
3,74,70,1
3,62,80,93
3,57,80,2
3,74,70,2
3,50,80,11
3,74,70,98
3,74,70,96
3,74,70,120
3,74,70,96
3,50,80,24
3,57,80,0
3,62,80,0
3,74,70,96
3,74,70,96
3,74,70,120
3,74,70,0
3,64,80,119
3,74,70,1
3,59,80,95
3,64,80,73
3,74,70,1
3,59,80,24
3,64,80,76
3,74,70,1
3,62,80,82
3,59,80,61
3,74,70,0
3,48,80,13
3,74,70,97
3,74,70,96
3,64,80,24
3,74,70,1
3,62,80,94
3,57,80,8
3,74,70,1
3,50,80,10
3,74,70,98
3,74,70,96
3,74,70,120
3,74,70,96
3,50,80,24
3,57,80,0
3,62,80,0
3,74,70,96
3,74,70,96
3,74,70,120
3,74,70,0
3,64,80,119
3,74,70,1
3,59,80,95
3,64,80,79
3,74,70,0
3,59,80,24
3,64,80,81
3,74,70,0
3,62,80,0
3,59,80,62
3,74,70,0
3,48,80,23
3,74,70,96
3,74,70,96
3,64,80,7
3,74,70,1
3,62,80,95
3,60,80,0
3,74,70,1
3,62,80,0
3,74,70,97
3,69,70,0
3,52,105,4990
3,52,86,489
3,57,83,0
3,45,90,0
3,45,95,155
3,57,89,0
3,52,88,0
3,52,57,26
3,45,66,0
3,57,62,0
3,45,72,54
3,52,67,0
3,57,61,0
3,45,77,160
3,57,66,0
3,52,62,0
3,45,51,150
3,52,41,0
3,57,51,0
3,62,88,534
3,57,88,0
3,50,90,1
3,50,92,150
3,62,87,1
3,57,84,0
3,50,72,44
3,57,63,0
3,62,54,0
3,50,43,62
3,62,53,1
3,57,57,0
3,50,87,67
3,57,87,1
3,62,86,0
3,48,72,34
3,60,88,0
3,55,87,0
3,45,72,48
3,57,92,1
3,52,88,0
3,52,81,55
3,57,86,0
3,45,64,0
3,45,77,155
3,57,79,0
3,52,71,0
3,52,63,39
3,57,67,0
3,45,69,0
3,45,80,60
3,52,65,0
3,57,67,0
3,45,79,155
3,57,60,1
3,52,52,0
3,45,57,151
3,52,31,0
3,57,41,1
3,57,87,540
3,62,84,0
3,50,44,1
3,50,87,151
3,62,92,0
3,57,95,0
3,50,46,49
3,57,61,0
3,62,58,0
3,50,47,64
3,62,53,1
3,57,47,0
3,50,87,68
3,57,95,0
3,62,92,0
3,48,72,38
3,55,87,1
3,60,88,0
3,57,94,48
3,52,89,0
3,45,53,0
3,52,74,52
3,57,75,1
3,45,72,0
3,57,79,153
3,52,75,0
3,45,55,1
3,57,49,40
3,52,53,0
3,45,50,1
3,57,72,57
3,45,72,0
3,52,69,0
3,57,66,158
3,45,65,0
3,52,65,0
3,45,64,157
3,57,73,0
3,52,71,0
3,50,75,535
3,62,72,0
3,57,72,0
3,50,87,152
3,62,87,1
3,57,88,0
3,57,90,27
3,62,89,0
3,50,81,1
3,57,87,35
3,62,89,0
3,50,73,1
3,50,74,46
3,62,86,0
3,57,88,0
3,64,80,6132
3,74,70,0
3,59,80,4
3,64,80,95
3,74,70,1
3,59,80,0
3,64,80,79
3,74,70,0
3,62,80,0
3,59,80,15
3,74,70,2
3,48,80,21
3,74,70,96
3,74,70,96
3,64,80,118
3,74,70,1
3,62,80,93
3,57,80,2
3,74,70,2
3,50,80,11
3,74,70,98
3,74,70,96
3,74,70,120
3,74,70,96
3,50,80,24
3,57,80,0
3,62,80,0
3,74,70,96
3,74,70,96
3,74,70,120
3,74,70,0
3,64,80,119
3,74,70,1
3,59,80,95
3,64,80,73
3,74,70,1
3,59,80,24
3,64,80,76
3,74,70,1
3,62,80,82
3,59,80,61
3,74,70,0
3,48,80,13
3,74,70,97
3,74,70,96
3,64,80,24
3,74,70,1
3,62,80,94
3,57,80,8
3,74,70,1
3,50,80,10
3,74,70,98
3,74,70,96
3,74,70,120
3,74,70,96
3,50,80,24
3,57,80,0
3,62,80,0
3,74,70,96
3,74,70,96
3,74,70,120
3,74,70,0
3,64,80,120
3,74,70,0
3,59,80,95
3,64,80,73
3,74,70,1
3,59,80,24
3,64,80,76
3,74,70,1
3,62,80,82
3,59,80,61
3,74,70,0
3,48,80,13
3,74,70,97
3,74,70,96
3,64,80,24
3,74,70,1
3,62,80,94
3,57,80,8
3,74,70,1
3,50,80,10
3,74,70,98
3,74,70,96
3,74,70,120
3,74,70,96
3,50,80,24
3,57,80,0
3,62,80,0
3,74,70,96
3,74,70,96
3,74,70,120
3,74,70,0
3,64,80,120
3,74,70,0
3,59,80,95
3,64,80,73
3,74,70,1
3,59,80,24
3,64,80,76
3,74,70,1
3,62,80,82
3,59,80,61
3,74,70,0
3,48,80,13
3,74,70,97
3,74,70,96
3,64,80,24
3,74,70,1
3,62,80,94
3,57,80,8
3,74,70,1
3,50,80,10
3,74,70,98
3,74,70,96
3,74,70,120
3,74,70,96
3,50,80,24
3,57,80,0
3,62,80,0
3,74,70,96
3,74,70,96
3,74,70,120
3,74,70,0
3,64,80,120
3,74,70,0
3,59,80,95
3,64,80,79
3,74,70,0
3,59,80,24
3,64,80,81
3,74,70,0
3,62,80,0
