track,note,velocity,time
1,21,100,0
1,24,100,0
1,27,100,0
2,79,67,37420
2,81,67,1
2,82,67,1
2,75,67,1
2,86,67,1
2,84,67,1
2,82,67,1
2,81,67,1
2,79,67,1
2,81,67,1
2,82,67,1
2,75,67,1
2,86,67,1
2,84,67,1
2,82,67,1
2,81,67,1
2,79,67,1
2,81,67,1
2,82,67,1
2,75,67,1
2,86,67,1
2,84,67,1
2,82,67,1
2,81,67,1
2,79,67,1
2,81,67,1
2,82,67,1
2,75,67,1
2,86,67,1
2,84,67,1
2,82,67,1
2,81,67,1
2,79,67,1
2,81,67,1
2,82,67,1
2,87,67,1
2,86,67,1
2,84,67,1
2,82,67,1
2,81,67,1
2,79,67,1
2,81,67,1
2,82,67,1
2,87,67,1
2,86,67,1
2,84,67,1
2,82,67,1
2,81,67,1
2,79,63,1
2,81,63,1
2,82,63,1
2,87,63,1
2,86,63,1
2,84,63,1
2,82,63,1
2,81,63,1
2,79,63,1
2,81,63,1
2,82,63,1
2,87,63,1
2,86,63,1
2,84,63,1
2,82,63,1
2,81,63,1
2,79,67,1
2,81,67,1
2,82,67,1
2,87,67,1
2,86,67,1
2,84,67,1
2,82,67,1
2,81,67,1
2,79,67,1
2,81,67,1
2,82,67,1
2,87,67,1
2,86,67,1
2,84,67,1
2,82,67,1
2,81,67,1
2,79,63,1
2,81,63,1
2,82,63,1
2,87,63,1
2,86,63,1
2,84,63,1
2,82,63,1
2,81,63,1
2,79,63,1
2,81,63,1
2,82,63,1
2,87,63,1
2,86,63,1
2,84,63,1
2,82,63,1
2,81,63,1
2,79,67,1
2,81,67,1
2,82,67,1
2,87,67,1
2,86,67,1
2,84,67,1
2,82,67,1
2,81,67,1
2,79,67,1
2,81,67,1
2,82,67,1
2,87,67,1
2,86,67,1
2,84,67,1
2,82,67,1
2,81,67,1
2,79,63,1
2,81,63,1
2,82,63,1
2,87,63,1
2,86,63,1
2,84,63,1
2,82,63,1
2,81,63,1
2,79,63,1
2,81,63,1
2,82,63,1
2,87,63,1
2,86,63,1
2,84,63,1
2,82,63,1
2,81,63,1
2,79,67,1
2,81,67,1
2,82,67,1
2,87,67,1
2,86,67,1
2,84,67,1
2,82,67,1
2,81,67,1
2,79,67,1
2,81,67,1
2,82,67,1
2,87,67,1
2,86,67,1
2,84,67,1
2,82,67,1
2,81,67,1
2,79,63,1
2,81,63,1
2,82,63,1
2,87,63,1
2,86,63,1
2,84,63,1
2,82,63,1
2,81,63,1
2,79,63,1
2,81,63,1
2,82,63,1
2,87,63,1
2,86,63,1
2,84,63,1
2,82,63,1
2,81,63,1
3,74,86,364
3,79,86,1
3,81,86,1
3,82,86,1
3,74,86,1
3,79,86,1
3,81,86,1
3,82,86,1
3,74,86,1
3,79,86,1
3,81,86,1
3,82,86,1
3,74,86,1
3,79,86,1
3,81,86,1
3,82,86,1
3,75,86,1
3,82,86,1
3,81,86,1
3,81,86,1
3,79,86,1
3,79,86,1
3,81,86,1
3,81,86,1
3,77,86,1
3,79,86,1
3,81,86,1
3,82,86,1
3,74,86,1
3,79,86,1
3,81,86,1
3,82,86,1
3,74,86,1
3,79,86,1
3,81,86,1
3,82,86,1
3,74,86,1
3,79,86,1
3,81,86,1
3,82,86,1
3,75,86,1
3,82,86,1
3,81,86,1
3,81,86,1
3,79,86,1
3,79,86,1
3,81,86,1
3,81,86,1
3,77,86,1
3,79,86,1
3,81,86,1
3,82,86,1
3,74,86,1
3,79,86,1
3,81,86,1
3,82,86,1
3,74,86,1
3,79,86,1
3,81,86,1
3,82,86,1
3,74,86,1
3,79,86,1
3,81,86,1
3,82,86,1
3,75,86,1
3,82,86,1
3,81,86,1
3,81,86,1
3,79,86,1
3,79,86,1
3,81,86,1
3,81,86,1
3,77,86,1
3,79,86,1
3,81,86,1
3,82,86,1
3,74,86,1
3,79,86,1
3,81,86,1
3,82,86,1
3,74,86,1
3,79,86,1
3,81,86,1
3,82,86,1
3,74,86,1
3,79,86,1
3,81,86,1
3,82,86,1
3,75,86,1
3,82,86,1
3,81,86,1
3,81,86,1
3,79,86,1
3,79,86,1
3,81,86,1
3,81,86,1
3,77,86,1
3,79,86,1
3,81,86,1
3,82,86,1
3,74,86,1
3,79,86,1
3,81,86,1
3,82,86,1
3,74,86,1
3,79,86,1
3,81,86,1
3,82,86,1
3,74,86,1
3,79,86,1
3,81,86,1
3,82,86,1
3,75,86,1
3,82,86,1
3,81,86,1
3,81,86,1
3,79,86,1
3,79,86,1
3,81,86,1
3,81,86,1
3,77,86,1
3,79,86,1
3,81,86,1
3,82,86,1
3,74,86,1
3,79,86,1
3,81,86,1
3,82,86,1
3,74,86,1
3,79,86,1
3,81,86,1
3,82,86,1
3,74,86,1
3,79,86,1
3,81,86,1
3,82,86,1
3,75,86,1
3,82,86,1
3,81,86,1
3,81,86,1
3,79,86,1
3,79,86,1
3,81,86,1
3,81,86,1
3,77,86,1
3,43,86,1
3,48,86,1
3,45,86,1
4,43,96,556
4,67,96,0
4,55,96,0
4,38,96,1
4,62,96,0
4,50,96,0
4,39,96,1
4,63,96,0
4,51,96,0
4,41,96,1
4,65,96,0
4,53,96,0
4,43,96,1
4,67,96,0
4,55,96,0
4,38,96,1
4,62,96,0
4,50,96,0
4,39,96,1
4,63,96,0
4,51,96,0
4,53,96,1
4,41,96,0
4,65,96,0
4,43,96,1
4,67,96,0
4,55,96,0
4,38,96,1
4,62,96,0
4,50,96,0
4,39,96,1
4,63,96,0
4,51,96,0
4,53,96,1
4,65,96,0
4,41,96,0
4,43,96,1
4,67,96,0
4,55,96,0
4,38,96,1
4,62,96,0
4,50,96,0
4,39,96,1
4,63,96,0
4,51,96,0
4,65,96,1
4,41,96,0
4,53,96,0
4,67,104,1
4,43,96,0
4,67,96,0
4,55,96,0
4,69,104,1
4,70,104,1
4,62,104,1
4,67,104,1
4,69,104,1
4,70,104,1
4,38,96,0
4,62,96,0
4,50,96,0
4,62,104,1
4,67,104,1
4,39,96,0
4,63,96,0
4,51,96,0
4,69,104,1
4,70,104,1
4,63,104,1
4,67,104,1
4,69,104,1
4,70,104,1
4,63,104,1
4,70,104,1
4,53,96,0
4,41,96,0
4,65,96,0
4,69,104,1
4,69,104,1
4,67,104,1
4,67,104,1
4,69,104,1
4,69,104,1
4,65,104,1
4,67,104,1
4,43,96,0
4,67,96,0
4,55,96,0
4,69,104,1
4,70,104,1
4,62,104,1
4,67,104,1
4,69,104,1
4,70,104,1
4,38,96,0
4,62,96,0
4,50,96,0
4,62,104,1
4,67,104,1
4,39,96,0
4,63,96,0
4,51,96,0
4,69,104,1
4,70,104,1
4,63,104,1
4,67,104,1
4,69,104,1
4,70,104,1
4,63,104,1
4,70,104,1
4,53,96,0
4,65,96,0
4,41,96,0
4,69,104,1
4,69,104,1
4,67,104,1
4,67,104,1
4,69,104,1
4,69,104,1
4,65,104,1
4,67,104,1
4,62,104,0
4,70,104,0
4,60,104,1
4,63,104,0
4,72,104,0
4,67,104,0
4,74,104,1
4,62,104,0
4,65,104,0
4,69,104,0
4,86,72,1
4,91,72,0
4,84,72,1
4,82,72,1
4,84,72,1
5,67,96,9772
5,69,96,1
5,70,96,1
5,63,96,1
5,74,96,1
5,72,96,1
5,70,96,1
5,69,96,1
5,67,96,1
5,69,96,1
5,70,96,1
5,63,96,1
5,74,96,1
5,72,96,1
5,70,96,1
5,69,96,1
5,67,96,1
5,69,96,1
5,70,96,1
5,63,96,1
5,74,96,1
5,72,96,1
5,70,96,1
5,69,96,1
5,67,96,1
5,69,96,1
5,70,96,1
5,63,96,1
5,74,96,1
5,72,96,1
5,70,96,1
5,69,96,1
5,67,96,1
5,69,96,1
5,70,96,1
5,74,96,1
5,72,96,1
5,69,96,1
5,70,96,1
5,72,96,1
5,74,96,57
5,72,96,0
5,70,96,1
5,72,96,1
6,65,87,32812
6,69,56,0
6,67,87,1
6,70,56,0
6,62,87,1
6,67,56,0
6,65,87,1
6,69,56,0
6,67,87,1
6,70,56,0
6,55,87,1
6,65,87,1
6,69,56,0
6,67,87,1
6,70,56,0
6,62,87,1
6,67,56,0
6,65,87,1
6,69,56,0
6,67,87,1
6,70,56,0
6,55,87,1
6,63,87,1
6,69,56,0
6,67,87,1
6,70,56,0
6,62,87,1
6,67,56,0
6,65,87,1
6,69,56,0
6,67,87,1
6,70,56,0
6,55,87,1
6,63,87,1
6,69,56,0
6,67,87,1
6,70,56,0
6,62,87,1
6,67,56,0
6,65,87,1
6,69,56,0
6,67,87,1
6,70,56,0
6,55,87,1
6,64,87,1
6,69,56,0
6,67,87,1
6,70,56,0
6,62,87,1
6,67,56,0
6,65,87,1
6,69,56,0
6,67,87,1
6,70,56,0
6,55,87,1
6,64,87,1
6,69,56,0
6,67,87,1
6,70,56,0
6,62,87,1
6,67,56,0
6,65,87,1
6,69,56,0
6,67,87,1
6,70,56,0
6,55,87,1
6,65,87,1
6,69,56,0
6,67,87,1
6,70,56,0
6,62,87,1
6,67,56,0
6,65,87,1
6,69,56,0
6,67,87,1
6,70,56,0
6,55,87,1
6,65,87,1
6,69,56,0
6,67,87,1
6,70,56,0
6,62,87,1
6,67,56,0
6,65,87,1
6,69,56,0
6,67,87,1
6,70,56,0
6,55,87,1
6,65,87,1
6,69,56,0
6,67,87,1
6,70,56,0
6,62,87,1
6,67,56,0
6,65,87,1
6,69,56,0
6,67,87,1
6,70,56,0
6,55,87,1
6,65,87,1
6,69,56,0
6,67,87,1
6,70,56,0
6,62,87,1
6,67,56,0
6,65,87,1
6,69,56,0
6,67,87,1
6,70,56,0
6,55,87,1
6,63,87,1
6,67,56,0
6,65,87,1
6,69,56,0
6,60,87,1
6,65,56,0
6,63,87,1
6,67,56,0
6,65,87,1
6,69,56,0
6,53,87,1
6,65,87,1
6,69,56,0
6,67,87,1
6,70,56,0
6,62,87,1
6,67,56,0
6,65,87,1
6,69,56,0
6,67,87,1
6,70,56,0
6,55,87,1
6,65,87,1
6,69,56,0
6,67,87,1
6,70,56,0
6,62,87,1
6,67,56,0
6,65,87,1
6,69,56,0
6,67,87,1
6,70,56,0
6,55,87,1
6,63,87,1
6,67,56,0
6,65,87,1
6,69,56,0
6,60,87,1
6,65,56,0
6,63,87,1
6,67,56,0
6,65,87,1
6,69,56,0
6,53,87,1
6,65,87,1
6,69,56,0
6,67,87,1
6,70,56,0
6,62,87,1
6,67,56,0
6,65,87,1
6,69,56,0
6,67,87,1
6,70,56,0
6,55,87,1
6,65,87,1
6,69,56,0
6,67,87,1
6,70,56,0
6,62,87,1
6,67,56,0
6,65,87,1
6,69,56,0
6,67,87,1
6,70,56,0
6,55,87,1
6,63,87,1
6,67,56,0
6,65,87,1
6,69,56,0
6,60,87,1
6,65,56,0
6,63,87,1
6,67,56,0
6,65,87,1
6,69,56,0
6,53,87,1
6,65,87,1
6,69,56,0
6,67,87,1
6,70,56,0
6,62,87,1
6,67,56,0
6,65,87,1
6,69,56,0
6,67,87,1
6,70,56,0
6,55,87,1
6,65,87,1
6,69,56,0
6,67,87,1
6,70,56,0
6,62,87,1
6,67,56,0
6,65,87,1
6,69,56,0
6,67,87,1
6,70,56,0
6,55,87,1
6,63,87,1
6,67,56,0
6,65,87,1
6,69,56,0
6,60,87,1
6,65,56,0
6,63,87,1
6,67,56,0
6,65,87,1
6,69,56,0
6,53,87,1
6,65,87,1
6,69,56,0
6,67,87,1
6,70,56,0
6,62,87,1
6,67,56,0
6,65,87,1
6,69,56,0
6,67,87,1
6,70,56,0
6,55,87,1
6,65,87,1
6,69,56,0
6,67,87,1
6,70,56,0
6,62,87,1
6,67,56,0
6,65,87,1
6,69,56,0
6,67,87,1
6,70,56,0
6,55,87,1
6,63,87,1
6,67,56,0
6,65,87,1
6,69,56,0
6,60,87,1
6,65,56,0
6,63,87,1
6,67,56,0
6,65,87,1
6,69,56,0
6,53,87,1
6,65,87,1
6,69,56,0
6,67,87,1
6,70,56,0
6,62,87,1
6,67,56,0
6,65,87,1
6,69,56,0
6,67,87,1
6,70,56,0
6,55,87,1
6,65,87,1
6,69,56,0
6,67,87,1
6,70,56,0
6,62,87,1
6,67,56,0
6,65,87,1
6,69,56,0
6,67,87,1
6,70,56,0
6,55,87,1
6,63,87,1
6,67,56,0
6,65,87,1
6,69,56,0
6,60,87,1
6,65,56,0
6,63,87,1
6,67,56,0
6,65,87,1
6,69,56,0
6,53,87,1
6,65,87,1
6,69,56,0
6,67,87,1
6,70,56,0
6,62,87,1
6,67,56,0
6,65,87,1
6,69,56,0
6,67,87,1
6,70,56,0
6,55,87,1
6,65,87,1
6,69,56,0
6,67,87,1
6,70,56,0
6,62,87,1
6,67,56,0
6,65,87,1
6,69,56,0
6,67,87,1
6,70,56,0
6,55,87,1
6,63,87,1
6,67,56,0
6,65,87,1
6,69,56,0
6,60,87,1
6,65,56,0
6,63,87,1
6,67,56,0
6,65,87,1
6,69,56,0
6,53,87,1
6,65,87,1
6,69,56,0
6,67,87,1
6,70,56,0
6,62,87,1
6,67,56,0
6,65,87,1
6,69,56,0
6,67,87,1
6,70,56,0
6,55,87,1
6,65,87,1
6,69,56,0
6,67,87,1
6,70,56,0
6,62,87,1
6,67,56,0
6,65,87,1
6,69,56,0
6,67,87,1
6,70,56,0
6,55,87,1
6,63,87,1
6,67,56,0
6,65,87,1
6,69,56,0
6,60,87,1
6,65,56,0
6,63,87,1
6,67,56,0
6,65,87,1
6,69,56,0
6,53,87,1
6,65,87,1
6,69,56,0
6,67,87,1
6,70,56,0
6,62,87,1
6,67,56,0
6,65,87,1
6,69,56,0
6,67,87,1
6,70,56,0
6,55,87,1
6,65,87,1
6,69,56,0
6,67,87,1
6,70,56,0
6,62,87,1
6,67,56,0
6,65,87,1
6,69,56,0
6,67,87,1
6,70,56,0
6,55,87,1
6,63,87,1
6,67,56,0
6,65,87,1
6,69,56,0
6,60,87,1
6,65,56,0
6,63,87,1
6,67,56,0
6,65,87,1
6,69,56,0
6,53,87,1
6,65,87,10
6,69,56,0
6,67,87,87
6,70,56,0
6,62,87,1
6,67,56,0
6,65,87,1
6,69,56,0
6,67,87,1
6,70,56,0
6,55,87,1
6,65,87,1
6,69,56,0
6,67,87,1
6,70,56,0
6,62,87,1
6,67,56,0
6,65,87,1
6,69,56,0
6,67,87,1
6,70,56,0
6,55,87,1
6,63,87,1
6,67,56,0
6,65,87,1
6,69,56,0
6,60,87,1
6,65,56,0
6,63,87,1
6,67,56,0
6,65,87,1
6,69,56,0
6,53,87,1
6,65,87,1
6,69,56,0
6,67,87,1
6,70,56,0
6,62,87,1
6,67,56,0
6,65,87,1
6,69,56,0
6,67,87,1
6,70,56,0
6,55,87,1
6,65,87,1
6,69,56,0
6,67,87,1
6,70,56,0
6,62,87,1
6,67,56,0
6,65,87,1
6,69,56,0
6,67,87,1
6,70,56,0
6,55,87,1
6,63,87,1
6,67,56,0
6,65,87,1
6,69,56,0
6,60,87,1
6,65,56,0
6,63,87,1
6,67,56,0
6,65,87,1
6,69,56,0
6,53,87,1
6,65,87,1
6,69,56,0
6,67,87,1
6,70,56,0
6,62,87,1
6,67,56,0
6,65,87,1
6,69,56,0
6,67,87,1
6,70,56,0
6,55,87,1
6,65,87,1
6,69,56,0
6,67,87,1
6,70,56,0
6,62,87,1
6,67,56,0
6,65,87,1
6,69,56,0
6,67,87,1
6,70,56,0
6,55,87,1
6,63,87,1
6,67,56,0
6,65,87,1
6,69,56,0
6,60,87,1
6,65,56,0
6,63,87,1
6,67,56,0
6,65,87,1
6,69,56,0
6,53,87,1
6,65,87,1
6,69,56,0
6,67,87,1
6,70,56,0
6,62,87,1
6,67,56,0
6,65,87,1
6,69,56,0
6,67,87,1
6,70,56,0
6,55,87,1
6,65,87,1
6,69,56,0
6,67,87,1
6,70,56,0
6,62,87,1
6,67,56,0
6,65,87,1
6,69,56,0
6,67,87,1
6,70,56,0
6,55,87,1
6,63,87,1
6,67,56,0
6,65,87,1
