track,note,velocity,time
0,71,88,168
0,48,106,0
0,48,0,1
0,71,0,9
0,48,106,2
0,73,88,0
0,48,0,1
0,73,0,9
0,42,106,0
0,36,106,0
0,47,84,0
0,35,70,0
0,74,88,0
0,36,0,1
0,42,0,0
0,54,84,11
0,42,106,12
0,59,84,0
0,42,0,1
0,54,0,11
0,59,0,12
0,42,106,0
0,38,92,0
0,62,84,0
0,38,0,1
0,42,0,0
0,74,0,8
0,62,0,4
0,59,84,0
0,42,106,0
0,78,88,0
0,42,0,1
0,35,0,9
0,35,70,2
0,54,84,0
0,35,0,3
0,78,0,7
0,47,0,2
0,59,0,0
0,33,70,0
0,45,84,0
0,76,88,0
0,42,106,0
0,36,106,0
0,36,0,1
0,42,0,0
0,54,0,11
0,52,84,0
0,57,84,12
0,42,106,0
0,42,0,1
0,52,0,11
0,59,84,0
0,57,0,12
0,42,106,0
0,38,92,0
0,52,84,0
0,38,0,1
0,42,0,0
0,59,0,11
0,59,84,0
0,52,0,12
0,61,84,0
0,42,106,0
0,42,0,1
0,59,0,11
0,57,84,0
0,57,0,4
0,76,0,4
0,33,0,0
0,45,0,4
0,61,0,0
0,42,106,0
0,76,88,0
0,36,106,0
0,42,84,0
0,30,70,0
0,36,0,1
0,42,0,0
0,30,0,9
0,76,0,0
0,57,84,2
0,73,88,0
0,25,70,0
0,25,0,10
0,73,0,0
0,30,70,2
0,61,84,0
0,69,88,0
0,42,106,0
0,42,0,1
0,57,0,11
0,69,0,10
0,30,0,0
0,61,0,2
0,55,84,0
0,31,70,0
0,71,88,0
0,38,92,0
0,42,106,0
0,42,0,1
0,38,0,0
0,71,0,10
0,55,0,2
0,62,84,0
0,74,88,0
0,42,106,0
0,42,0,1
0,31,0,20
0,74,0,1
0,62,0,2
0,42,0,0
0,42,106,0
0,79,88,0
0,31,70,0
0,36,106,0
0,67,84,0
0,36,0,1
0,42,0,0
0,79,0,21
0,67,0,2
0,62,84,0
0,74,88,0
0,42,106,0
0,42,0,1
0,31,0,20
0,74,0,1
0,62,0,2
0,73,88,0
0,61,84,0
0,33,70,0
0,38,92,0
0,42,106,0
0,42,0,1
0,38,0,0
0,61,0,12
0,64,84,0
0,36,106,0
0,38,92,0
0,38,0,1
0,36,0,0
0,48,106,11
0,48,0,1
0,48,106,2
0,48,0,1
0,73,0,6
0,64,0,2
0,36,106,0
0,69,84,0
0,45,106,0
0,45,0,1
0,36,0,0
0,45,106,11
0,64,84,0
0,45,0,1
0,69,0,11
0,61,84,0
0,41,106,0
0,36,106,0
0,71,88,0
0,36,0,1
0,41,0,0
0,71,0,9
0,64,0,2
0,57,84,0
0,73,88,0
0,41,106,0
0,41,0,1
0,33,0,7
0,73,0,2
0,61,0,2
0,42,106,0
0,36,106,0
0,49,78,0
0,35,70,0
0,47,84,0
0,74,88,0
0,49,0,1
0,36,0,0
0,42,0,0
0,57,0,11
0,62,84,0
0,42,106,12
0,59,84,0
0,42,0,1
0,62,0,11
0,66,84,0
0,59,0,12
0,42,106,0
0,54,84,0
0,38,92,0
0,38,0,1
0,42,0,0
0,66,0,11
0,62,84,0
0,74,0,8
0,54,0,4
0,59,84,0
0,42,106,0
0,78,88,0
0,42,0,1
0,35,0,9
0,62,0,2
0,54,84,0
0,35,70,0
0,35,0,3
0,54,0,1
0,78,0,6
0,59,0,2
0,47,0,0
0,33,70,0
0,42,106,0
0,36,106,0
0,76,88,0
0,45,84,0
0,36,0,1
0,42,0,0
0,52,84,11
0,57,84,12
0,42,106,0
0,42,0,1
0,52,0,11
0,59,84,0
0,57,0,12
0,52,84,0
0,38,92,0
0,42,106,0
0,42,0,1
0,38,0,0
0,33,0,9
0,59,0,2
0,40,46,0
0,59,84,0
0,40,0,10
0,52,0,2
0,42,106,0
0,61,84,0
0,33,70,0
0,42,0,1
0,59,0,11
0,57,84,0
0,57,0,4
0,76,0,4
0,33,0,2
0,45,0,2
0,61,0,0
0,42,106,0
0,76,88,0
0,36,106,0
0,42,84,0
0,30,70,0
0,36,0,1
0,42,0,0
0,30,0,9
0,76,0,0
0,57,84,2
0,25,70,0
0,73,88,0
0,73,0,10
0,25,0,0
0,42,106,2
0,30,70,0
0,61,84,0
0,69,88,0
0,42,0,1
0,57,0,11
0,30,0,10
0,69,0,0
0,61,0,2
0,31,70,0
0,42,106,0
0,55,84,0
0,38,92,0
0,71,88,0
0,38,0,1
0,42,0,0
0,71,0,10
0,55,0,2
0,74,88,0
0,62,84,0
0,42,106,0
0,42,0,1
0,31,0,20
0,74,0,1
0,42,0,2
0,62,0,0
0,67,84,0
0,31,70,0
0,36,106,0
0,42,106,0
0,79,88,0
0,42,0,1
0,36,0,0
0,79,0,21
0,67,0,2
0,62,84,0
0,74,88,0
0,42,106,0
0,42,0,1
0,31,0,20
0,74,0,1
0,62,0,2
0,73,88,0
0,33,70,0
0,38,92,0
0,42,106,0
0,61,84,0
0,42,0,1
0,38,0,0
0,61,0,12
0,36,106,0
0,64,84,0
0,38,92,0
0,38,0,1
0,36,0,0
0,73,0,21
0,64,0,2
0,36,106,0
0,48,106,0
0,69,84,0
0,48,0,1
0,36,0,0
0,48,106,5
0,48,0,1
0,48,106,5
0,64,84,0
0,48,0,1
0,69,0,11
0,45,106,0
0,71,88,0
0,36,106,0
0,61,84,0
0,36,0,1
0,45,0,0
0,45,106,5
0,45,0,1
0,71,0,3
0,64,0,2
0,73,88,0
0,57,84,0
0,45,106,0
0,45,0,1
0,57,0,3
0,33,0,4
0,73,0,2
0,61,0,2
0,49,78,0
0,47,84,0
0,35,70,0
0,36,106,0
0,42,106,0
0,74,88,0
0,42,0,1
0,36,0,0
0,49,0,0
0,62,84,11
0,42,106,12
0,59,84,0
0,42,0,1
0,62,0,11
0,66,84,0
0,59,0,12
0,54,84,0
0,42,106,0
0,38,92,0
0,38,0,1
0,42,0,0
0,66,0,11
0,62,84,0
0,74,0,8
0,54,0,4
0,59,84,0
0,78,88,0
0,42,106,0
0,42,0,1
0,35,0,9
0,62,0,2
0,35,70,0
0,54,84,0
0,35,0,3
0,54,0,1
0,78,0,6
0,47,0,2
0,59,0,0
0,33,70,0
0,36,106,0
0,45,84,0
0,76,88,0
0,42,106,0
0,42,0,1
0,36,0,0
0,52,84,11
0,42,106,12
0,57,84,0
0,42,0,1
0,52,0,11
0,59,84,0
0,57,0,12
0,38,92,0
0,52,84,0
0,42,106,0
0,42,0,1
0,38,0,0
0,33,0,9
0,59,0,2
0,40,46,0
0,59,84,0
0,40,0,10
0,52,0,2
0,42,106,0
0,33,70,0
0,61,84,0
0,42,0,1
0,59,0,11
0,57,84,0
0,57,0,4
0,76,0,4
0,33,0,2
0,61,0,0
0,45,0,0
0,36,106,0
0,42,84,0
0,42,106,0
0,30,70,0
0,76,88,0
0,42,0,1
0,36,0,0
0,76,0,9
0,30,0,0
0,25,70,2
0,57,84,0
0,73,88,0
0,73,0,10
0,25,0,0
0,61,84,2
0,69,88,0
0,30,70,0
0,42,106,0
0,42,0,1
0,57,0,11
0,69,0,10
0,30,0,0
0,61,0,2
0,31,70,0
0,71,88,0
0,42,106,0
0,55,84,0
0,38,92,0
0,38,0,1
0,42,0,0
0,71,0,10
0,55,0,2
0,74,88,0
0,62,84,0
0,42,106,0
0,42,0,1
0,31,0,20
0,74,0,1
0,42,0,2
0,62,0,0
0,79,88,0
0,67,84,0
0,42,106,0
0,36,106,0
0,31,70,0
0,36,0,1
0,42,0,0
0,79,0,21
0,67,0,2
0,74,88,0
0,42,106,0
0,62,84,0
0,42,0,1
0,31,0,20
0,74,0,1
0,62,0,2
0,38,92,0
0,61,84,0
0,73,88,0
0,33,70,0
0,42,106,0
0,42,0,1
0,38,0,0
0,61,0,12
0,64,84,0
0,38,92,0
0,36,106,0
0,36,0,1
0,38,0,0
0,46,120,11
0,36,106,0
0,36,0,1
0,46,0,0
0,64,0,11
0,42,106,0
0,69,84,0
0,42,0,1
0,64,84,11
0,38,92,0
0,38,0,1
0,69,0,11
0,36,106,0
0,48,106,0
0,61,84,0
0,48,0,1
0,36,0,0
0,48,106,5
0,48,0,1
0,64,0,5
0,48,106,0
0,57,84,0
0,48,0,1
0,57,0,3
0,33,0,4
0,73,0,0
0,61,0,0
0,36,106,0
0,49,92,0
0,73,88,0
0,30,70,0
0,58,84,0
0,42,106,0
0,42,0,1
0,36,0,0
0,49,0,0
0,73,0,21
0,58,0,2
0,74,88,0
0,66,84,0
0,42,106,0
0,42,0,1
0,74,0,21
0,66,0,2
0,42,106,0
0,70,84,0
0,76,88,0
0,38,92,0
0,38,0,1
0,42,0,0
0,66,84,5
0,76,0,10
0,70,0,2
0,73,88,0
0,36,106,0
0,42,106,0
0,61,84,0
0,42,0,1
0,36,0,0
0,66,0,11
0,58,84,0
0,58,0,4
0,30,0,4
0,73,0,2
0,61,0,2
0,42,106,0
0,74,88,0
0,36,106,0
0,59,84,0
0,35,70,0
0,36,0,1
0,42,0,0
0,59,0,10
0,66,84,0
0,42,106,0
0,42,0,1
0,66,0,23
0,38,92,0
0,42,106,0
0,71,84,0
0,42,0,1
0,38,0,0
0,66,84,11
0,71,0,3
0,38,64,0
0,62,84,0
0,38,0,1
0,38,64,5
0,38,0,1
0,66,0,5
0,38,78,0
0,38,0,1
0,38,92,5
0,38,0,1
0,74,0,1
0,35,0,0
0,62,0,4
0,78,88,0
0,31,70,0
0,55,70,0
0,42,50,0
0,42,0,1
0,59,70,2
0,62,70,3
0,66,70,3
0,78,0,13
0,76,88,2
0,76,0,19
0,79,88,2
0,79,0,22
0,78,88,2
0,42,50,0
0,42,0,1
0,55,0,10
0,31,0,0
0,78,0,2
0,59,0,1
0,42,50,1
0,28,70,0
0,78,88,0
0,55,65,0
0,42,0,1
0,62,0,1
0,59,65,1
0,66,0,2
0,62,65,1
0,67,65,3
0,78,0,2
0,28,0,0
0,55,0,0
0,59,0,3
0,42,92,1
0,33,70,0
0,66,81,0
0,55,60,0
0,42,0,1
0,62,0,1
0,57,60,1
0,67,0,2
0,61,60,1
0,64,60,3
0,66,0,13
0,64,81,2
0,42,50,0
0,42,0,1
0,64,0,8
0,42,50,2
0,38,64,0
0,67,81,0
0,38,0,1
0,42,0,0
0,67,0,21
0,66,81,2
0,42,92,0
0,42,0,1
0,33,0,2
0,55,0,0
0,66,0,2
0,57,0,1
0,73,60,0
0,42,92,0
0,36,36,0
0,66,81,0
0,38,60,0
0,54,55,0
0,36,0,1
0,42,0,0
0,61,0,1
0,57,55,0
0,61,55,2
0,64,0,1
0,62,55,1
0,73,0,4
0,78,60,2
0,78,0,10
0,42,50,2
0,73,60,0
0,42,0,1
0,73,0,9
0,66,60,2
0,66,0,10
0,73,60,2
0,42,50,0
0,38,64,0
0,38,0,1
0,42,0,0
0,73,0,9
0,78,60,2
0,78,0,10
0,42,50,2
0,73,60,0
0,42,0,1
0,73,0,9
0,66,60,2
0,66,0,10
0,73,60,2
0,51,92,0
0,51,0,1
0,73,0,9
0,78,60,2
0,78,0,10
0,73,60,2
0,51,92,0
0,51,0,1
0,73,0,9
0,66,60,2
0,66,0,10
0,38,64,2
0,73,60,0
0,38,0,1
0,73,0,9
0,78,60,2
0,78,0,10
0,38,0,0
0,33,60,2
0,73,60,0
0,73,0,10
0,78,60,2
0,78,0,10
0,33,0,0
0,54,0,2
0,51,92,0
0,71,60,0
0,36,36,0
0,50,55,0
0,31,60,0
0,36,0,1
0,51,0,0
0,57,0,1
0,55,55,0
0,61,0,1
0,59,55,0
0,62,0,1
0,62,55,0
0,71,0,3
0,78,60,2
0,78,0,1
0,71,60,1
0,71,0,2
0,67,60,2
0,67,0,3
0,38,64,2
0,71,60,0
0,38,0,1
0,71,0,1
0,78,60,1
0,78,0,2
0,71,60,2
0,51,92,0
0,51,0,1
0,71,0,3
0,67,60,0
0,67,0,1
0,51,78,1
0,71,60,0
0,51,0,1
0,71,0,2
0,78,60,2
0,78,0,3
0,71,60,0
0,51,92,0
0,51,0,1
0,71,0,1
0,67,60,1
0,67,0,2
0,71,60,2
0,38,64,0
0,38,0,1
0,71,0,3
0,78,60,0
0,78,0,1
0,31,0,0
0,71,60,1
0,33,60,0
0,71,0,2
0,78,60,2
0,78,0,3
0,33,0,0
0,50,0,2
0,51,92,0
0,54,55,0
0,36,36,0
0,73,60,0
0,38,60,0
0,36,0,1
0,51,0,0
0,55,0,1
0,57,55,0
0,59,0,2
0,61,55,0
0,62,0,2
0,62,55,0
0,73,0,1
0,78,60,1
0,78,0,2
0,73,60,2
0,73,0,3
0,66,60,2
0,66,0,1
0,38,64,1
0,73,60,0
0,38,0,1
0,73,0,2
0,78,60,2
0,78,0,3
0,51,92,0
0,73,60,0
0,51,0,1
0,73,0,1
0,66,60,1
0,66,0,2
0,51,78,2
0,73,60,0
0,51,0,1
0,73,0,9
0,78,60,2
0,78,0,10
0,51,92,2
0,73,60,0
0,51,0,1
0,73,0,9
0,66,60,2
0,66,0,10
0,51,92,2
0,38,64,0
0,73,60,0
0,38,0,1
0,51,0,0
0,73,0,9
0,78,60,2
0,78,0,10
0,73,60,2
0,73,0,10
0,78,60,2
0,78,0,10
0,38,0,0
0,66,0,0
0,54,0,2
0,51,92,0
0,36,36,0
0,71,60,0
0,31,60,0
0,50,55,0
0,36,0,1
0,51,0,0
0,57,0,1
0,55,55,0
0,61,0,2
0,59,55,0
0,62,0,2
0,62,55,0
0,71,0,4
0,78,60,2
0,78,0,10
0,71,60,2
0,71,0,10
0,67,60,2
0,67,0,10
0,38,64,2
0,71,60,0
0,38,0,1
0,71,0,9
0,78,60,2
0,78,0,10
0,71,60,2
0,51,92,0
0,51,0,1
0,71,0,9
0,67,60,2
0,67,0,10
0,71,60,2
0,51,78,0
0,51,0,1
0,71,0,9
0,78,60,2
0,78,0,10
0,51,92,2
0,71,60,0
0,51,0,1
0,71,0,9
0,67,60,2
0,48,50,6
0,48,0,1
0,48,50,2
0,48,0,1
0,67,0,0
0,71,60,2
0,48,92,0
0,48,0,1
0,71,0,9
0,48,92,2
0,78,60,0
0,48,0,1
0,31,0,9
0,78,0,0
0,71,60,2
0,33,60,0
0,45,92,0
0,45,0,1
0,71,0,9
0,78,60,2
0,78,0,10
0,33,0,0
0,50,0,2
0,66,64,0
0,38,60,0
0,51,92,0
0,54,55,0
0,36,78,0
0,73,60,0
0,36,0,1
0,51,0,0
0,55,0,1
0,57,55,0
0,59,0,1
0,61,55,0
0,62,0,1
0,62,55,0
0,73,0,3
0,78,60,2
0,78,0,1
0,73,60,1
0,73,0,2
0,66,60,1
0,66,0,2
0,73,60,2
0,38,64,0
0,38,0,1
0,73,0,1
0,78,60,1
0,78,0,1
0,51,92,1
0,73,60,0
0,51,0,1
0,73,0,2
0,66,60,2
0,66,0,3
0,51,78,0
0,73,60,0
0,51,0,1
0,73,0,1
0,78,60,1
0,78,0,2
0,51,92,2
0,73,60,0
0,51,0,1
0,73,0,9
0,66,60,2
0,66,0,10
0,38,64,2
0,73,60,0
0,38,0,1
0,73,0,9
0,78,60,2
0,78,0,10
0,38,0,0
0,73,60,2
0,33,60,0
0,73,0,10
0,78,60,2
0,78,0,10
0,33,0,0
0,66,0,0
0,54,0,2
0,51,92,0
0,64,60,0
0,50,55,0
0,31,60,0
0,71,60,0
0,51,0,1
0,57,0,1
0,55,55,0
0,61,0,2
0,59,55,0
0,62,0,2
0,62,55,0
0,71,0,4
0,78,60,2
0,78,0,10
0,71,60,2
0,71,0,10
0,67,60,2
0,64,0,9
0,67,0,1
0,38,64,2
0,66,60,0
0,71,60,0
0,38,0,1
0,71,0,9
0,78,60,2
0,78,0,10
0,66,0,0
0,69,80,2
0,51,92,0
0,71,60,0
0,51,0,1
0,71,0,9
0,67,60,2
0,67,0,10
0,71,60,2
0,51,78,0
0,51,0,1
0,71,0,9
0,78,60,2
0,69,0,9
0,78,0,1
0,51,92,2
0,67,70,0
0,71,60,0
0,51,0,1
0,71,0,9
