track,note,velocity,time
1,30,123,0
1,30,125,0
1,32,127,192
1,32,127,0
1,33,123,0
1,33,123,0
1,35,123,0
1,35,125,90
1,37,127,24
1,40,127,24
1,30,127,36
1,30,127,18
1,32,127,192
1,32,127,6
1,33,127,192
1,33,127,18
1,35,127,29
1,35,127,18
1,37,127,18
1,40,127,24
1,30,123,42
1,30,125,0
1,32,127,192
1,32,127,0
1,33,123,0
1,33,123,0
1,35,123,0
1,35,125,90
1,37,127,24
1,40,127,24
1,30,127,36
1,30,127,18
1,32,127,192
1,32,127,6
1,33,127,192
1,33,127,18
1,35,127,29
1,35,127,18
1,37,127,18
1,40,127,24
1,30,123,0
1,30,125,0
1,32,127,192
1,32,127,0
1,33,123,0
1,33,123,0
1,35,123,0
1,35,125,90
1,37,127,24
1,40,127,24
1,30,127,36
1,30,127,18
1,32,127,192
1,32,127,6
1,33,127,192
1,33,127,18
1,35,127,29
1,35,127,18
1,37,127,18
1,40,127,24
1,30,123,42
1,30,125,0
1,32,127,192
1,32,127,0
1,33,123,0
1,33,123,0
1,35,123,0
1,35,125,90
1,37,127,24
1,40,127,24
1,30,127,36
1,30,127,18
1,32,127,192
1,32,127,6
1,33,127,192
1,33,127,18
1,35,127,29
1,35,127,18
1,37,127,18
1,40,127,24
1,30,123,42
1,30,125,0
1,32,127,192
1,32,127,0
1,33,123,0
1,33,123,0
1,35,123,0
1,35,125,90
1,37,127,24
1,40,127,24
1,30,127,36
1,30,127,18
1,32,127,192
1,32,127,6
1,33,127,192
1,33,127,18
1,35,127,29
1,35,127,18
1,37,127,18
1,40,127,24
1,30,123,0
1,30,125,0
1,32,127,192
1,32,127,0
1,33,123,0
1,33,123,0
1,35,123,0
1,35,125,90
1,37,127,24
1,40,127,24
1,30,127,36
1,30,127,18
1,32,127,192
1,32,127,6
1,33,127,192
1,33,127,18
1,35,127,29
1,35,127,18
1,37,127,18
1,40,127,24
1,30,123,0
1,30,125,0
1,32,127,192
1,32,127,0
1,33,123,0
1,33,123,0
1,35,123,0
1,35,125,90
1,37,127,24
1,40,127,24
1,30,127,36
1,30,127,18
1,32,127,192
1,32,127,6
1,33,127,192
1,33,127,18
1,35,127,29
1,35,127,18
1,37,127,18
1,40,127,24
1,30,123,42
1,30,125,0
1,32,127,192
1,32,127,0
1,33,123,0
1,33,123,0
1,35,123,0
1,35,125,90
1,37,127,24
1,40,127,24
1,30,127,36
1,30,127,18
1,32,127,192
1,32,127,6
1,33,127,192
1,33,127,18
1,35,127,29
1,35,127,18
1,37,127,18
1,40,127,24
1,30,123,42
1,30,125,0
1,32,127,192
1,32,127,0
1,33,123,0
1,33,123,0
1,35,123,0
1,35,125,90
1,37,127,24
1,40,127,24
1,30,127,36
1,30,127,18
1,32,127,192
1,32,127,6
1,33,127,192
1,33,127,18
1,35,127,29
1,35,127,18
1,37,127,18
1,40,127,24
1,30,123,0
1,30,125,0
1,32,127,192
1,32,127,0
1,33,123,0
1,33,123,0
1,35,123,0
1,35,125,90
1,37,127,24
1,40,127,24
1,30,127,36
1,30,127,18
1,32,127,192
1,32,127,6
1,33,127,192
1,33,127,18
1,35,127,29
1,35,127,18
1,37,127,18
1,40,127,24
1,30,123,0
1,30,125,0
1,32,127,192
1,32,127,0
1,33,123,0
1,33,123,0
1,35,123,0
1,35,125,90
1,37,127,24
1,40,127,24
1,30,127,36
1,30,127,18
1,32,127,192
1,32,127,6
1,33,127,192
1,33,127,18
1,35,127,29
1,35,127,18
1,37,127,18
1,40,127,24
1,30,123,42
1,30,125,0
1,32,127,192
1,32,127,0
1,33,123,0
1,33,123,0
1,35,123,0
1,35,125,90
1,37,127,24
1,40,127,24
1,30,127,36
1,30,127,18
1,32,127,192
1,32,127,6
1,33,127,192
1,33,127,18
1,35,127,29
1,35,127,18
1,37,127,18
1,40,127,24
1,30,123,0
1,30,125,0
1,32,127,192
1,32,127,0
1,33,123,0
1,33,123,0
1,35,123,0
1,35,125,90
1,37,127,24
1,40,127,24
1,30,123,36
1,30,125,0
1,32,127,192
1,32,127,0
1,33,123,0
1,33,123,0
1,35,123,0
1,35,125,90
1,37,127,24
1,40,127,24
1,30,127,36
1,30,127,18
1,32,127,192
1,32,127,6
1,33,127,192
1,33,127,18
1,35,127,29
1,35,127,18
1,37,127,18
1,40,127,24
1,30,123,0
1,30,125,0
1,32,127,192
1,32,127,0
1,33,123,0
1,33,123,0
1,35,123,0
1,35,125,90
1,37,127,24
1,40,127,24
1,30,127,36
1,30,127,18
1,32,127,192
1,32,127,6
1,33,127,192
1,33,127,18
1,35,127,29
1,35,127,18
1,37,127,18
1,40,127,24
1,30,123,42
1,30,125,0
1,32,127,192
1,32,127,0
1,33,123,0
1,33,123,0
1,35,123,0
1,35,125,90
1,37,127,24
1,40,127,24
1,30,123,0
1,30,125,0
1,32,127,192
1,32,127,0
1,33,123,0
1,33,123,0
1,35,123,0
1,35,125,90
1,37,127,24
1,40,127,24
1,30,127,36
1,30,127,18
1,32,127,192
1,32,127,6
1,33,127,192
1,33,127,18
1,35,127,29
1,35,127,18
1,37,127,18
1,40,127,24
1,30,123,0
1,30,125,0
1,32,127,192
1,32,127,0
1,33,123,0
1,33,123,0
1,35,123,0
1,35,125,90
1,37,127,24
1,40,127,24
1,30,127,36
1,30,127,18
1,32,127,24
1,32,127,6
1,33,127,24
1,33,127,16
1,35,127,16
1,35,127,16
1,37,127,16
1,40,127,16
1,30,123,16
1,30,125,0
1,32,127,8
1,32,127,0
1,33,123,0
1,33,123,0
1,35,123,0
1,35,125,0
1,37,127,0
1,40,127,0
2,42,127,0
2,30,127,0
2,42,127,74
2,30,127,0
2,44,127,192
2,32,127,0
2,44,127,31
2,32,127,0
2,45,127,192
2,33,127,0
2,45,127,59
2,33,127,0
2,47,127,26
2,35,127,0
2,47,127,102
2,35,127,0
2,49,127,96
2,37,127,0
2,52,127,78
2,40,127,0
2,42,127,186
2,30,127,0
2,42,127,74
2,30,127,0
2,44,127,192
2,32,127,0
2,44,127,31
2,32,127,0
2,45,127,192
2,33,127,0
2,45,127,59
2,33,127,0
2,47,127,26
2,35,127,0
2,47,127,102
2,35,127,0
2,49,127,96
2,37,127,0
2,52,127,78
2,40,127,0
2,42,127,186
2,30,127,0
2,42,127,74
2,30,127,0
2,44,127,192
2,32,127,0
2,44,127,31
2,32,127,0
2,45,127,192
2,33,127,0
2,45,127,59
2,33,127,0
2,47,127,26
2,35,127,0
2,47,127,102
2,35,127,0
2,49,127,96
2,37,127,0
2,52,127,78
2,40,127,0
2,42,123,0
2,30,123,0
2,30,125,0
2,42,125,0
2,32,127,0
2,44,127,0
2,32,127,0
2,44,127,0
2,33,123,0
2,45,123,0
2,33,123,0
2,45,123,0
2,35,123,0
2,47,123,0
2,35,125,0
2,47,125,0
2,37,127,0
2,49,127,0
2,40,127,0
2,52,127,0
2,30,127,0
2,42,127,0
2,30,127,0
2,42,127,0
2,32,127,0
2,44,127,0
2,32,127,0
2,44,127,0
2,33,127,0
2,45,127,0
2,33,127,0
2,45,127,0
2,35,127,0
2,47,127,0
2,35,127,0
2,47,127,0
2,37,127,0
2,49,127,0
2,40,127,0
2,52,127,0
2,30,123,0
2,42,123,0
2,30,125,0
2,42,125,0
2,32,127,0
2,44,127,0
2,32,127,0
2,44,127,0
2,33,123,0
2,45,123,0
2,33,123,0
2,45,123,0
2,35,123,0
2,47,123,0
2,35,125,0
2,47,125,0
2,37,127,0
2,49,127,0
2,40,127,0
2,52,127,0
2,30,127,0
2,42,127,0
2,30,127,0
2,42,127,0
2,32,127,0
2,44,127,0
2,32,127,0
2,44,127,0
2,33,127,0
2,45,127,0
2,33,127,0
2,45,127,0
2,35,127,0
2,47,127,0
2,35,127,0
2,47,127,0
2,37,127,0
2,49,127,0
2,40,127,0
2,52,127,0
2,30,123,0
2,42,123,0
2,30,125,0
2,42,125,0
2,32,127,0
2,44,127,0
2,32,127,0
2,44,127,0
2,33,123,0
2,45,123,0
2,33,123,0
2,45,123,0
2,35,123,0
2,47,123,0
2,35,125,0
2,47,125,0
2,37,127,0
2,49,127,0
2,40,127,0
2,52,127,0
2,30,127,0
2,42,127,0
2,30,127,0
2,42,127,0
2,32,127,0
2,44,127,0
2,32,127,0
2,44,127,0
2,33,127,0
2,45,127,0
2,33,127,0
2,45,127,0
2,35,127,0
2,47,127,0
2,35,127,0
2,47,127,0
2,37,127,0
2,49,127,0
2,40,127,0
2,52,127,0
2,30,123,0
2,42,123,0
2,30,125,0
2,42,125,0
2,32,127,0
2,44,127,0
2,32,127,0
2,44,127,0
2,33,123,0
2,45,123,0
2,33,123,0
2,45,123,0
2,35,123,0
2,47,123,0
2,35,125,0
2,47,125,0
2,37,127,0
2,49,127,0
2,40,127,0
2,52,127,0
2,30,127,0
2,42,127,0
2,30,127,0
2,42,127,0
2,32,127,0
2,44,127,0
2,32,127,0
2,44,127,0
2,33,127,0
2,45,127,0
2,33,127,0
2,45,127,0
2,35,127,0
2,47,127,0
2,35,127,0
2,47,127,0
2,37,127,0
2,49,127,0
2,40,127,0
2,52,127,0
2,30,123,0
2,42,123,0
2,30,125,0
2,42,125,0
2,32,127,0
2,44,127,0
2,32,127,0
2,44,127,0
2,33,123,0
2,45,123,0
2,33,123,0
2,45,123,0
2,35,123,0
2,47,123,0
2,35,125,0
2,47,125,0
2,37,127,0
2,49,127,0
2,40,127,0
2,52,127,0
2,30,127,0
2,42,127,0
2,30,127,0
2,42,127,0
2,32,127,0
2,44,127,0
2,32,127,0
2,44,127,0
2,33,127,0
2,45,127,0
2,33,127,0
2,45,127,0
2,35,127,0
2,47,127,0
2,35,127,0
2,47,127,0
2,37,127,0
2,49,127,0
2,40,127,0
2,52,127,0
2,30,123,0
2,42,123,0
2,30,125,0
2,42,125,0
2,32,127,0
2,44,127,0
2,32,127,0
2,44,127,0
2,33,123,0
2,45,123,0
2,33,123,0
2,45,123,0
2,35,123,0
2,47,123,0
2,35,125,0
2,47,125,0
2,37,127,0
2,49,127,0
2,40,127,0
2,52,127,0
2,30,127,0
2,42,127,0
2,30,127,0
2,42,127,0
2,32,127,0
2,44,127,0
2,32,127,0
2,44,127,0
2,33,127,0
2,45,127,0
2,33,127,0
2,45,127,0
2,35,127,0
2,47,127,0
2,35,127,0
2,47,127,0
2,37,127,0
2,49,127,0
2,40,127,0
2,52,127,0
2,30,123,0
2,42,123,0
2,30,125,0
2,42,125,0
2,32,127,0
2,44,127,0
2,32,127,0
2,44,127,0
2,33,123,0
2,45,123,0
2,33,123,0
2,45,123,0
2,35,123,0
2,47,123,0
2,35,125,0
2,47,125,0
2,37,127,0
2,49,127,0
2,40,127,0
2,52,127,0
2,30,127,0
2,42,127,0
2,30,127,0
2,42,127,0
2,32,127,0
2,44,127,0
2,32,127,0
2,44,127,0
2,33,127,0
2,45,127,0
2,33,127,0
2,45,127,0
2,35,127,0
2,47,127,0
2,35,127,0
2,47,127,0
2,37,127,0
2,49,127,0
2,40,127,0
2,52,127,0
2,30,123,0
2,42,123,0
2,30,125,0
2,42,125,0
2,32,127,0
2,44,127,0
2,32,127,0
2,44,127,0
2,33,123,0
2,45,123,0
2,33,123,0
2,45,123,0
2,35,123,0
2,47,123,0
2,35,125,0
2,47,125,0
2,37,127,0
2,49,127,0
2,40,127,0
2,52,127,0
2,30,127,0
2,42,127,0
2,30,127,0
2,42,127,0
2,32,127,0
2,44,127,0
2,32,127,0
2,44,127,0
2,33,127,0
2,45,127,0
2,33,127,0
2,45,127,0
2,35,127,0
2,47,127,0
2,35,127,0
2,47,127,0
2,37,127,0
2,49,127,0
2,40,127,0
2,52,127,0
2,30,123,0
2,42,123,0
2,30,125,0
2,42,125,0
2,32,127,0
2,44,127,0
2,32,127,0
2,44,127,0
2,33,123,0
2,45,123,0
2,33,123,0
2,45,123,0
2,35,123,0
2,47,123,0
2,35,125,0
2,47,125,0
2,37,127,0
2,49,127,0
2,40,127,0
2,52,127,0
2,30,127,0
2,42,127,0
2,30,127,0
2,42,127,0
2,32,127,0
2,44,127,0
2,32,127,0
2,44,127,0
2,33,127,0
2,45,127,0
2,33,127,0
2,45,127,0
2,35,127,0
2,47,127,0
2,35,127,0
2,47,127,0
2,37,127,0
2,49,127,0
2,40,127,0
2,52,127,0
2,30,123,0
2,42,123,0
2,30,125,0
2,42,125,0
2,32,127,0
2,44,127,0
2,32,127,0
2,44,127,0
2,33,123,0
2,45,123,0
2,33,123,0
2,45,123,0
2,35,123,0
2,47,123,0
2,35,125,0
2,47,125,0
2,37,127,0
2,49,127,0
2,40,127,0
2,52,127,0
2,30,127,0
2,42,127,0
2,30,127,0
2,42,127,0
2,32,127,0
2,44,127,0
2,32,127,0
2,44,127,0
2,33,127,0
2,45,127,0
2,33,127,0
2,45,127,0
2,35,127,0
2,47,127,0
2,35,127,0
2,47,127,0
2,37,127,0
2,49,127,0
2,40,127,0
2,52,127,0
2,30,123,0
2,42,123,0
2,30,125,0
2,42,125,0
2,32,127,0
2,44,127,0
2,32,127,0
2,44,127,0
2,33,123,0
2,45,123,0
2,33,123,0
2,45,123,0
2,35,123,0
2,47,123,0
2,35,125,0
2,47,125,0
2,37,127,0
2,49,127,0
2,40,127,0
2,52,127,0
2,30,123,0
2,42,123,0
2,30,125,0
2,42,125,0
2,32,127,0
2,44,127,0
2,32,127,0
2,44,127,0
2,33,123,0
2,45,123,0
2,33,123,0
2,45,123,0
2,35,123,0
2,47,123,0
2,35,125,0
2,47,125,0
2,37,127,0
2,49,127,0
2,40,127,0
2,52,127,0
2,30,127,0
2,42,127,0
2,30,127,0
2,42,127,0
2,32,127,0
2,44,127,0
2,32,127,0
2,44,127,0
2,33,127,0
2,45,127,0
2,33,127,0
2,45,127,0
2,35,127,0
2,47,127,0
2,35,127,0
2,47,127,0
2,37,127,0
2,49,127,0
2,40,127,0
2,52,127,0
2,30,123,0
2,42,123,0
2,30,125,0
2,42,125,0
2,32,127,0
2,44,127,0
2,32,127,0
2,44,127,0
2,33,123,0
2,45,123,0
2,33,123,0
2,45,123,0
2,35,123,0
2,47,123,0
2,35,125,0
2,47,125,0
2,37,127,0
2,49,127,0
2,40,127,0
2,52,127,0
2,30,127,0
2,42,127,0
2,30,127,0
2,42,127,0
2,32,127,0
2,44,127,0
2,32,127,0
2,44,127,0
2,33,127,0
2,45,127,0
2,33,127,0
2,45,127,0
2,35,127,0
2,47,127,0
2,35,127,0
2,47,127,0
2,37,127,0
2,49,127,0
2,40,127,0
2,52,127,0
2,30,123,0
2,42,123,0
2,30,125,0
2,42,125,0
2,32,127,0
2,44,127,0
2,32,127,0
2,44,127,0
2,33,123,0
2,45,123,0
2,33,123,0
2,45,123,0
2,35,123,0
2,47,123,0
2,35,125,0
2,47,125,0
2,37,127,0
2,49,127,0
2,40,127,0
2,52,127,0
2,30,123,0
2,42,123,0
2,30,125,0
2,42,125,0
2,32,127,0
2,44,127,0
2,32,127,0
2,44,127,0
2,33,123,0
2,45,123,0
2,33,123,0
2,45,123,0
2,35,123,0
2,47,123,0
2,35,125,0
2,47,125,0
2,37,127,0
2,49,127,0
2,40,127,0
2,52,127,0
2,30,127,0
2,42,127,0
2,30,127,0
2,42,127,0
2,32,127,0
2,44,127,0
2,32,127,0
2,44,127,0
2,33,127,0
2,45,127,0
2,33,127,0
2,45,127,0
2,35,127,0
2,47,127,0
2,35,127,0
2,47,127,0
2,37,127,0
2,49,127,0
2,40,127,0
2,52,127,0
2,30,123,0
2,42,123,0
2,30,125,0
2,42,125,0
2,32,127,0
2,44,127,0
2,32,127,0
2,44,127,0
2,33,123,0
2,45,123,0
2,33,123,0
2,45,123,0
2,35,123,0
2,47,123,0
2,35,125,0
2,47,125,0
2,37,127,0
2,49,127,0
2,40,127,0
2,52,127,0
2,30,127,0
2,42,127,0
2,30,127,0
2,42,127,0
2,32,127,0
2,44,127,0
2,32,127,0
2,44,127,0
2,33,127,0
2,45,127,0
