track,note,velocity,time
0,57,100,0
0,53,100,0
0,60,100,0
0,65,100,0
0,77,100,75
0,77,0,179
0,60,0,0
0,57,0,0
0,53,0,0
0,65,0,0
0,60,100,1
0,64,100,0
0,55,100,0
0,48,100,0
0,84,100,0
0,84,0,179
0,55,0,0
0,60,0,0
0,64,0,0
0,48,0,0
0,65,100,1
0,60,100,0
0,53,100,0
0,77,100,0
0,57,100,0
0,57,0,179
0,53,0,0
0,65,0,0
0,60,0,0
0,77,0,0
0,48,100,1
0,79,100,0
0,64,100,0
0,55,100,0
0,60,100,0
0,60,0,179
0,64,0,0
0,48,0,0
0,79,0,0
0,55,0,0
0,53,100,1
0,53,100,0
0,77,100,0
0,57,100,0
0,60,100,0
0,65,100,0
0,53,0,29
0,60,100,1
0,60,0,29
0,65,100,1
0,65,0,29
0,69,100,1
0,69,0,29
0,65,100,1
0,65,0,29
0,60,100,1
0,60,0,29
0,77,0,0
0,53,100,1
0,53,0,29
0,60,100,1
0,60,0,29
0,65,100,1
0,65,0,29
0,69,100,1
0,69,0,29
0,65,100,1
0,65,0,29
0,60,100,1
0,60,0,29
0,57,0,0
0,53,0,0
0,65,0,0
0,60,0,0
0,53,100,1
0,65,100,0
0,53,100,0
0,60,100,0
0,65,100,0
0,57,100,0
0,53,0,29
0,60,100,1
0,60,0,29
0,65,100,1
0,65,0,29
0,69,100,1
0,69,0,29
0,65,0,0
0,65,100,1
0,65,100,0
0,65,0,29
0,60,100,1
0,60,0,29
0,65,0,0
0,65,0,0
0,53,0,0
0,57,0,0
0,60,0,0
0,64,100,1
0,60,100,0
0,55,100,0
0,48,100,0
0,65,100,0
0,48,100,0
0,48,0,29
0,60,100,1
0,60,0,29
0,65,0,0
0,67,100,1
0,64,100,0
0,64,0,29
0,67,100,1
0,67,0,29
0,64,100,1
0,64,0,29
0,67,0,0
0,60,100,1
0,64,100,0
0,64,0,29
0,48,0,0
0,55,0,0
0,64,0,0
0,60,0,0
0,60,0,0
0,50,100,1
0,50,100,0
0,57,100,0
0,65,100,0
0,62,100,0
0,65,100,0
0,50,0,29
0,57,100,1
0,57,0,29
0,62,100,1
0,62,0,29
0,65,100,1
0,65,0,29
0,65,0,0
0,60,100,1
0,62,100,0
0,62,0,29
0,57,100,1
0,57,0,29
0,60,0,0
0,62,0,0
0,50,0,0
0,57,0,0
0,65,0,0
0,58,100,1
0,62,100,0
0,62,100,0
0,65,100,0
0,46,100,0
0,53,100,0
0,58,0,29
0,62,100,1
0,62,0,29
0,65,100,1
0,65,0,29
0,70,100,1
0,70,0,29
0,53,0,0
0,65,0,0
0,62,0,0
0,62,0,0
0,46,0,0
0,48,100,1
0,55,100,0
0,60,100,0
0,60,100,0
0,65,100,0
0,64,100,0
0,65,0,29
0,60,100,1
0,60,0,29
0,64,0,0
0,60,0,0
0,48,0,0
0,55,0,0
0,60,0,0
0,65,100,1
0,53,100,0
0,53,100,0
0,57,100,0
0,60,100,0
0,53,0,29
0,60,100,1
0,60,0,29
0,65,100,1
0,60,100,0
0,65,0,29
0,69,100,1
0,69,0,29
0,60,0,0
0,65,100,1
0,65,100,0
0,65,0,29
0,60,100,1
0,60,0,29
0,65,0,0
0,60,0,0
0,65,0,0
0,53,0,0
0,57,0,0
0,64,100,1
0,55,100,0
0,48,100,0
0,48,100,0
0,64,100,0
0,60,100,0
0,48,0,29
0,64,0,0
0,65,100,1
0,60,100,0
0,60,0,29
0,65,0,0
0,67,100,1
0,64,100,0
0,64,0,29
0,67,100,1
0,67,0,29
0,67,0,0
0,64,100,1
0,60,100,0
0,64,0,29
0,60,100,1
0,60,0,29
0,60,0,0
0,64,0,0
0,55,0,0
0,60,0,0
0,48,0,0
0,60,100,1
0,46,100,0
0,65,100,0
0,62,100,0
0,53,100,0
0,58,100,0
0,58,0,29
0,62,100,1
0,62,0,29
0,60,0,0
0,65,100,1
0,62,100,0
0,65,0,29
0,70,100,1
0,70,0,29
0,65,100,1
0,65,0,29
0,62,100,1
0,62,0,29
0,58,100,1
0,58,0,29
0,62,100,1
0,62,0,29
0,65,100,1
0,65,0,29
0,70,100,1
0,70,0,29
0,65,0,0
0,53,0,0
0,46,0,0
0,62,0,0
0,65,100,1
0,48,100,0
0,55,100,0
0,60,100,0
0,64,100,0
0,65,0,29
0,60,100,1
0,60,0,29
0,64,0,0
0,55,0,0
0,62,0,0
0,48,0,0
0,60,0,0
0,57,100,1
0,53,100,0
0,60,100,0
0,53,100,0
0,65,100,0
0,53,0,29
0,60,100,1
0,60,0,29
0,65,100,1
0,65,100,0
0,65,0,29
0,69,100,1
0,69,0,29
0,65,0,0
0,65,100,1
0,65,100,0
0,65,0,29
0,60,100,1
0,60,0,29
0,65,0,0
0,65,0,0
0,57,0,0
0,53,0,0
0,60,0,0
0,55,100,1
0,65,100,0
0,60,100,0
0,48,100,0
0,64,100,0
0,48,100,0
0,48,0,29
0,60,100,1
0,60,0,29
0,65,0,0
0,67,100,1
0,64,100,0
0,64,0,29
0,67,100,1
0,67,0,29
0,64,100,1
0,64,0,29
0,67,0,0
0,60,100,1
0,64,100,0
0,64,0,29
0,48,0,0
0,64,0,0
0,55,0,0
0,60,0,0
0,60,0,0
0,57,100,1
0,65,100,0
0,50,100,0
0,62,100,0
0,65,100,0
0,50,100,0
0,50,0,29
0,57,100,1
0,57,0,29
0,62,100,1
0,62,0,29
0,65,100,1
0,65,0,29
0,65,0,0
0,62,100,1
0,60,100,0
0,62,0,29
0,57,100,1
0,57,0,29
0,60,0,0
0,65,0,0
0,57,0,0
0,50,0,0
0,62,0,0
0,53,100,1
0,58,100,0
0,62,100,0
0,65,100,0
0,62,100,0
0,46,100,0
0,58,0,29
0,62,100,1
0,62,0,29
0,65,100,1
0,65,0,29
0,70,100,1
0,70,0,29
0,46,0,0
0,65,0,0
0,53,0,0
0,62,0,0
0,62,0,0
0,65,100,1
0,60,100,0
0,60,100,0
0,55,100,0
0,48,100,0
0,64,100,0
0,65,0,29
0,60,100,1
0,60,0,29
0,64,0,0
0,55,0,0
0,60,0,0
0,60,0,0
0,48,0,0
0,53,100,1
0,60,100,0
0,65,100,0
0,53,100,0
0,57,100,0
0,53,0,29
0,60,100,1
0,60,0,29
0,65,100,1
0,60,100,0
0,65,0,29
0,69,100,1
0,69,0,29
0,60,0,0
0,65,100,1
0,65,100,0
0,65,0,29
0,60,100,1
0,60,0,29
0,65,0,0
0,57,0,0
0,53,0,0
0,60,0,0
0,65,0,0
0,48,100,1
0,48,100,0
0,55,100,0
0,60,100,0
0,64,100,0
0,64,100,0
0,64,0,29
0,48,0,0
0,60,100,1
0,65,100,0
0,65,0,29
0,60,0,0
0,64,100,1
0,67,100,0
0,64,0,29
0,67,100,1
0,67,0,29
0,64,100,1
0,64,0,29
0,67,0,0
0,64,100,1
0,60,100,0
0,60,0,29
0,64,0,0
0,55,0,0
0,48,0,0
0,64,0,0
0,60,0,0
0,60,100,1
0,53,100,0
0,57,100,0
0,53,100,0
0,65,100,0
0,65,100,0
0,53,0,29
0,60,100,1
0,60,0,29
0,65,100,1
0,65,0,29
0,69,100,1
0,69,0,29
0,65,100,1
0,65,0,29
0,60,100,1
0,60,0,29
0,53,100,1
0,53,0,29
0,60,100,1
0,60,0,29
0,65,100,1
0,65,0,29
0,69,100,1
0,69,0,29
0,65,0,0
0,65,100,1
0,65,0,29
0,60,100,1
0,60,0,29
0,57,0,0
0,60,0,0
0,53,0,0
0,65,0,0
0,65,100,1
0,53,100,0
0,53,100,0
0,41,100,0
0,57,100,0
0,53,100,0
0,60,100,0
0,65,100,0
0,53,0,29
0,53,0,0
0,60,100,1
0,60,100,0
0,60,0,29
0,60,0,0
0,65,100,1
0,65,100,0
0,65,0,29
0,65,0,0
0,69,100,1
0,69,100,0
0,69,0,29
0,69,0,0
0,65,0,0
0,65,100,1
0,65,100,0
0,65,100,0
0,65,0,29
0,65,0,0
0,60,100,1
0,60,100,0
0,60,0,29
0,57,0,0
0,65,0,0
0,65,0,0
0,41,0,0
0,60,0,0
0,53,0,0
0,60,0,0
0,55,100,1
0,48,100,0
0,48,100,0
0,65,100,0
0,64,100,0
0,60,100,0
0,36,100,0
0,48,100,0
0,48,0,29
0,48,0,0
0,60,100,1
0,60,100,0
0,60,0,29
0,60,0,0
0,65,0,0
0,67,100,1
0,64,100,0
0,64,100,0
0,64,0,29
0,64,0,0
0,67,100,1
0,67,100,0
0,67,0,29
0,67,0,0
0,64,100,1
0,64,100,0
0,64,0,29
0,64,0,0
0,67,0,0
0,60,100,1
0,60,100,0
0,64,100,0
0,64,0,29
0,55,0,0
0,36,0,0
0,48,0,0
0,64,0,0
0,60,0,0
0,60,0,0
0,60,0,0
0,50,100,1
0,50,100,0
0,62,100,0
0,50,100,0
0,38,100,0
0,65,100,0
0,57,100,0
0,65,100,0
0,50,0,29
0,50,0,0
0,57,100,1
0,57,100,0
0,57,0,29
0,57,0,0
0,62,100,1
0,62,100,0
0,62,0,29
0,62,0,0
0,65,100,1
0,65,100,0
0,65,0,29
0,65,0,0
0,65,0,0
0,60,100,1
0,62,100,0
0,62,100,0
0,62,0,29
0,62,0,0
0,57,100,1
0,57,100,0
0,57,0,29
0,65,0,0
0,60,0,0
0,57,0,0
0,38,0,0
0,50,0,0
0,62,0,0
0,57,0,0
0,62,100,1
0,58,100,0
0,65,100,0
0,58,100,0
0,46,100,0
0,53,100,0
0,34,100,0
0,62,100,0
0,58,0,29
0,58,0,0
0,62,100,1
0,62,100,0
0,62,0,29
0,62,0,0
0,65,100,1
0,65,100,0
0,65,0,29
0,65,0,0
0,70,100,1
0,70,100,0
0,70,0,29
0,70,0,0
0,53,0,0
0,65,0,0
0,46,0,0
0,62,0,0
0,62,0,0
0,60,100,1
0,64,100,0
0,65,100,0
0,65,100,0
0,48,100,0
0,60,100,0
0,55,100,0
0,65,0,29
0,65,0,0
0,60,100,1
0,60,100,0
0,60,0,29
0,55,0,0
0,60,0,0
0,60,0,0
0,64,0,0
0,34,0,0
0,48,0,0
0,60,0,0
0,41,100,1
0,57,100,0
0,53,100,0
0,65,100,0
0,60,100,0
0,53,100,0
0,53,100,0
0,53,0,29
0,53,0,0
0,60,100,1
0,60,100,0
0,60,0,29
0,60,0,0
0,65,100,1
0,60,100,0
0,65,100,0
0,65,0,29
0,65,0,0
0,69,100,1
0,69,100,0
0,69,0,29
0,69,0,0
0,60,0,0
0,65,100,1
0,65,100,0
0,65,100,0
0,65,0,29
0,65,0,0
0,60,100,1
0,60,100,0
0,60,0,29
0,60,0,0
0,41,0,0
0,53,0,0
0,65,0,0
0,65,0,0
0,57,0,0
0,60,0,0
0,64,100,1
0,48,100,0
0,60,100,0
0,64,100,0
0,55,100,0
0,48,100,0
0,48,100,0
0,36,100,0
0,48,0,29
0,64,0,0
0,48,0,0
0,65,100,1
0,60,100,0
0,60,100,0
0,60,0,29
0,60,0,0
0,65,0,0
0,67,100,1
0,64,100,0
0,64,100,0
0,64,0,29
0,64,0,0
0,67,100,1
0,67,100,0
0,67,0,29
0,67,0,0
0,67,0,0
0,64,100,1
0,60,100,0
0,64,100,0
0,64,0,29
0,64,0,0
0,60,100,1
0,60,100,0
0,60,0,29
0,36,0,0
0,60,0,0
0,48,0,0
0,55,0,0
0,64,0,0
0,60,0,0
0,60,0,0
0,58,100,1
0,58,100,0
0,53,100,0
0,34,100,0
0,46,100,0
0,60,100,0
0,65,100,0
0,62,100,0
0,58,0,29
0,58,0,0
0,62,100,1
0,62,100,0
0,62,0,29
0,62,0,0
0,60,0,0
0,65,100,1
0,62,100,0
0,65,100,0
0,65,0,29
0,65,0,0
0,70,100,1
0,70,100,0
0,70,0,29
0,70,0,0
0,65,100,1
0,65,100,0
0,65,0,29
0,65,0,0
0,62,100,1
0,62,100,0
0,62,0,29
0,62,0,0
0,34,0,0
0,58,100,1
0,58,100,0
0,34,100,0
0,58,0,29
0,58,0,0
0,62,100,1
0,62,100,0
0,62,0,29
0,62,0,0
0,65,100,1
0,65,100,0
0,65,0,29
0,65,0,0
0,70,100,1
0,70,100,0
0,70,0,29
0,62,0,0
0,65,0,0
0,70,0,0
0,46,0,0
0,34,0,0
0,53,0,0
0,64,100,1
0,48,100,0
0,60,100,0
0,65,100,0
0,65,100,0
0,36,100,0
0,55,100,0
0,65,0,29
0,65,0,0
0,60,100,1
0,60,100,0
0,60,0,29
0,60,0,0
0,62,0,0
0,64,0,0
0,48,0,0
0,55,0,0
0,36,0,0
0,60,0,0
0,60,100,1
0,65,100,0
0,57,100,0
0,41,100,0
0,53,100,0
0,53,100,0
0,53,100,0
0,53,0,29
0,53,0,0
0,60,100,1
0,60,100,0
0,60,0,29
0,60,0,0
0,65,100,1
0,65,100,0
0,65,100,0
0,65,0,29
0,65,0,0
0,69,100,1
0,69,100,0
0,69,0,29
0,69,0,0
0,65,0,0
0,65,100,1
0,65,100,0
0,65,100,0
0,65,0,29
0,65,0,0
0,60,100,1
0,60,100,0
0,60,0,29
0,41,0,0
0,53,0,0
0,60,0,0
0,57,0,0
0,65,0,0
0,65,0,0
0,60,0,0
0,36,100,1
0,48,100,0
0,64,100,0
0,48,100,0
0,48,100,0
0,55,100,0
0,65,100,0
0,60,100,0
0,48,0,29
0,48,0,0
0,60,100,1
0,60,100,0
0,60,0,29
0,60,0,0
0,65,0,0
0,64,100,1
0,67,100,0
0,64,100,0
0,64,0,29
0,64,0,0
0,67,100,1
0,67,100,0
0,67,0,29
0,67,0,0
0,64,100,1
0,64,100,0
0,64,0,29
0,64,0,0
0,67,0,0
0,64,100,1
0,60,100,0
0,60,100,0
0,60,0,29
0,60,0,0
0,55,0,0
0,64,0,0
0,48,0,0
0,36,0,0
0,64,0,0
0,60,0,0
0,50,100,1
0,62,100,0
0,50,100,0
0,57,100,0
0,50,100,0
0,65,100,0
0,65,100,0
0,38,100,0
0,50,0,29
0,50,0,0
0,57,100,1
0,57,100,0
0,57,0,29
0,57,0,0
0,62,100,1
0,62,100,0
0,62,0,29
0,62,0,0
0,65,100,1
0,65,100,0
0,65,0,29
0,65,0,0
0,65,0,0
0,62,100,1
0,62,100,0
0,60,100,0
0,62,0,29
0,62,0,0
0,57,100,1
0,57,100,0
0,57,0,29
0,38,0,0
0,62,0,0
0,65,0,0
0,57,0,0
0,60,0,0
0,50,0,0
0,57,0,0
0,58,100,1
0,34,100,0
0,53,100,0
0,65,100,0
0,62,100,0
0,46,100,0
0,58,100,0
0,62,100,0
0,58,0,29
0,58,0,0
0,62,100,1
0,62,100,0
0,62,0,29
0,62,0,0
0,65,100,1
0,65,100,0
0,65,0,29
0,65,0,0
0,70,100,1
0,70,100,0
0,70,0,29
0,62,0,0
0,34,0,0
0,53,0,0
0,65,0,0
0,62,0,0
0,46,0,0
0,70,0,0
0,65,100,1
0,65,100,0
0,55,100,0
0,60,100,0
0,64,100,0
0,48,100,0
0,36,100,0
0,60,100,0
0,65,0,29
0,65,0,0
0,60,100,1
0,60,100,0
0,60,0,29
0,60,0,0
0,36,0,0
0,55,0,0
0,64,0,0
0,60,0,0
0,48,0,0
0,60,0,0
0,53,100,1
0,53,100,0
0,65,100,0
0,53,100,0
0,57,100,0
0,41,100,0
0,60,100,0
0,53,0,29
0,53,0,0
0,60,100,1
0,60,100,0
0,60,0,29
0,60,0,0
0,60,100,1
0,65,100,0
0,65,100,0
0,65,0,29
0,65,0,0
0,69,100,1
0,69,100,0
0,69,0,29
0,69,0,0
0,60,0,0
0,65,100,1
0,65,100,0
0,65,100,0
0,65,0,29
0,65,0,0
0,60,100,1
0,60,100,0
0,60,0,29
0,41,0,0
0,53,0,0
0,60,0,0
0,57,0,0
0,65,0,0
0,65,0,0
0,60,0,0
0,48,100,1
0,60,100,0
0,48,100,0
0,64,100,0
0,48,100,0
0,55,100,0
0,64,100,0
0,36,100,0
0,64,0,29
0,48,0,0
0,48,0,0
0,65,100,1
0,60,100,0
0,60,100,0
