track,note,velocity,time
1.0,48.0,56.0,150.0
1.0,55.0,42.0,334.0
1.0,60.0,44.0,332.0
1.0,55.0,45.0,362.0
1.0,48.0,54.0,396.0
1.0,55.0,49.0,416.0
1.0,60.0,41.0,470.0
1.0,55.0,41.0,488.0
1.0,48.0,47.0,446.0
1.0,64.0,78.0,88.0
1.0,55.0,33.0,134.0
1.0,60.0,35.0,288.0
1.0,55.0,42.0,282.0
1.0,48.0,70.0,300.0
1.0,55.0,49.0,284.0
1.0,65.0,71.0,332.0
1.0,60.0,58.0,16.0
1.0,55.0,49.0,276.0
1.0,46.0,76.0,256.0
1.0,62.0,68.0,80.0
1.0,53.0,41.0,36.0
1.0,58.0,55.0,2.0
1.0,65.0,62.0,14.0
1.0,53.0,42.0,250.0
1.0,48.0,75.0,262.0
1.0,64.0,76.0,18.0
1.0,55.0,46.0,124.0
1.0,60.0,65.0,2.0
1.0,55.0,42.0,324.0
1.0,41.0,42.0,200.0
1.0,57.0,68.0,6.0
1.0,48.0,42.0,106.0
1.0,53.0,42.0,272.0
1.0,48.0,54.0,288.0
1.0,43.0,62.0,192.0
1.0,59.0,66.0,14.0
1.0,50.0,42.0,76.0
1.0,55.0,38.0,322.0
1.0,50.0,36.0,384.0
1.0,48.0,54.0,290.0
1.0,60.0,60.0,4.0
1.0,55.0,55.0,154.0
1.0,60.0,55.0,266.0
1.0,55.0,35.0,332.0
1.0,48.0,45.0,314.0
1.0,55.0,41.0,340.0
1.0,60.0,31.0,360.0
1.0,55.0,45.0,412.0
1.0,48.0,42.0,330.0
1.0,64.0,68.0,0.0
1.0,55.0,38.0,82.0
1.0,60.0,45.0,278.0
1.0,64.0,71.0,6.0
1.0,55.0,43.0,304.0
1.0,48.0,54.0,274.0
1.0,55.0,56.0,314.0
1.0,64.0,73.0,186.0
1.0,60.0,66.0,2.0
1.0,55.0,57.0,270.0
1.0,65.0,66.0,6.0
1.0,46.0,81.0,264.0
1.0,62.0,78.0,0.0
1.0,53.0,45.0,84.0
1.0,58.0,76.0,6.0
1.0,65.0,70.0,20.0
1.0,53.0,63.0,266.0
1.0,64.0,82.0,272.0
1.0,48.0,77.0,2.0
1.0,55.0,51.0,70.0
1.0,60.0,76.0,76.0
1.0,55.0,55.0,0.0
1.0,41.0,79.0,192.0
1.0,57.0,83.0,6.0
1.0,48.0,66.0,74.0
1.0,53.0,55.0,262.0
1.0,48.0,65.0,266.0
1.0,43.0,76.0,60.0
1.0,59.0,79.0,4.0
1.0,50.0,59.0,82.0
1.0,55.0,59.0,236.0
1.0,57.0,59.0,214.0
1.0,50.0,49.0,0.0
1.0,59.0,54.0,90.0
1.0,60.0,77.0,112.0
1.0,45.0,58.0,4.0
1.0,52.0,50.0,64.0
1.0,57.0,39.0,272.0
1.0,52.0,41.0,276.0
1.0,45.0,41.0,314.0
1.0,52.0,37.0,282.0
1.0,64.0,56.0,294.0
1.0,57.0,42.0,8.0
1.0,52.0,42.0,328.0
1.0,41.0,58.0,256.0
1.0,57.0,68.0,14.0
1.0,48.0,46.0,82.0
1.0,53.0,54.0,216.0
1.0,62.0,76.0,10.0
1.0,48.0,52.0,300.0
1.0,43.0,56.0,188.0
1.0,60.0,76.0,10.0
1.0,50.0,43.0,98.0
1.0,55.0,43.0,284.0
1.0,59.0,54.0,10.0
1.0,50.0,44.0,346.0
1.0,48.0,49.0,272.0
1.0,60.0,64.0,20.0
1.0,55.0,36.0,96.0
1.0,60.0,42.0,280.0
1.0,55.0,35.0,300.0
1.0,48.0,44.0,338.0
1.0,55.0,41.0,326.0
1.0,60.0,42.0,390.0
1.0,55.0,43.0,388.0
1.0,48.0,63.0,336.0
1.0,64.0,68.0,8.0
1.0,55.0,50.0,96.0
1.0,60.0,53.0,316.0
1.0,55.0,39.0,288.0
1.0,48.0,55.0,270.0
1.0,55.0,46.0,262.0
1.0,65.0,71.0,256.0
1.0,60.0,58.0,4.0
1.0,55.0,53.0,274.0
1.0,62.0,78.0,226.0
1.0,46.0,60.0,6.0
1.0,53.0,62.0,80.0
1.0,65.0,78.0,256.0
1.0,58.0,68.0,2.0
1.0,53.0,53.0,260.0
1.0,64.0,79.0,278.0
1.0,48.0,65.0,0.0
1.0,55.0,56.0,128.0
1.0,60.0,81.0,74.0
1.0,55.0,43.0,284.0
1.0,57.0,83.0,176.0
1.0,41.0,71.0,6.0
1.0,48.0,53.0,108.0
1.0,53.0,54.0,6.0
1.0,48.0,42.0,302.0
1.0,43.0,54.0,188.0
1.0,59.0,78.0,0.0
1.0,50.0,47.0,92.0
1.0,55.0,42.0,330.0
1.0,50.0,64.0,352.0
1.0,48.0,42.0,290.0
1.0,60.0,80.0,0.0
1.0,55.0,35.0,150.0
1.0,60.0,39.0,308.0
1.0,55.0,32.0,292.0
1.0,48.0,35.0,316.0
1.0,55.0,42.0,312.0
1.0,60.0,45.0,290.0
1.0,55.0,42.0,380.0
1.0,48.0,51.0,316.0
1.0,64.0,66.0,6.0
1.0,55.0,47.0,98.0
1.0,60.0,57.0,220.0
1.0,64.0,79.0,0.0
1.0,55.0,54.0,282.0
1.0,48.0,60.0,252.0
1.0,55.0,55.0,298.0
1.0,64.0,66.0,214.0
1.0,60.0,62.0,0.0
1.0,55.0,70.0,270.0
1.0,65.0,73.0,12.0
1.0,62.0,75.0,234.0
1.0,46.0,81.0,6.0
1.0,53.0,62.0,106.0
1.0,58.0,69.0,0.0
1.0,65.0,81.0,8.0
1.0,53.0,52.0,246.0
1.0,48.0,73.0,256.0
1.0,64.0,86.0,0.0
1.0,55.0,62.0,162.0
1.0,60.0,81.0,48.0
1.0,55.0,76.0,290.0
1.0,41.0,80.0,184.0
1.0,57.0,93.0,4.0
1.0,48.0,66.0,96.0
1.0,53.0,74.0,246.0
1.0,48.0,69.0,250.0
1.0,43.0,82.0,58.0
1.0,59.0,87.0,6.0
1.0,50.0,54.0,86.0
1.0,55.0,71.0,268.0
1.0,57.0,70.0,10.0
1.0,50.0,59.0,32.0
1.0,59.0,64.0,32.0
1.0,60.0,79.0,108.0
1.0,45.0,70.0,6.0
1.0,52.0,45.0,106.0
1.0,57.0,50.0,236.0
1.0,52.0,42.0,278.0
1.0,45.0,54.0,310.0
1.0,52.0,35.0,290.0
1.0,64.0,64.0,304.0
1.0,57.0,42.0,16.0
1.0,52.0,41.0,8.0
1.0,57.0,65.0,240.0
1.0,41.0,55.0,52.0
1.0,48.0,53.0,68.0
1.0,53.0,59.0,160.0
1.0,62.0,76.0,10.0
1.0,48.0,55.0,270.0
1.0,43.0,60.0,176.0
1.0,60.0,75.0,0.0
1.0,50.0,42.0,106.0
1.0,59.0,68.0,278.0
1.0,55.0,45.0,2.0
1.0,50.0,64.0,286.0
1.0,48.0,76.0,266.0
1.0,60.0,69.0,16.0
1.0,55.0,46.0,78.0
1.0,60.0,50.0,256.0
1.0,55.0,39.0,300.0
1.0,48.0,42.0,320.0
1.0,55.0,49.0,308.0
1.0,60.0,59.0,330.0
1.0,55.0,78.0,338.0
1.0,41.0,80.0,304.0
1.0,57.0,93.0,6.0
1.0,48.0,68.0,80.0
1.0,53.0,45.0,242.0
1.0,48.0,78.0,250.0
1.0,43.0,83.0,124.0
1.0,59.0,90.0,4.0
1.0,50.0,68.0,62.0
1.0,55.0,72.0,246.0
1.0,57.0,89.0,2.0
1.0,50.0,79.0,24.0
1.0,59.0,83.0,58.0
1.0,60.0,96.0,90.0
1.0,45.0,78.0,2.0
1.0,52.0,64.0,110.0
1.0,57.0,62.0,246.0
1.0,52.0,57.0,242.0
1.0,45.0,54.0,6.0
1.0,52.0,44.0,274.0
1.0,57.0,46.0,16.0
1.0,64.0,57.0,0.0
1.0,52.0,57.0,320.0
1.0,41.0,66.0,246.0
1.0,57.0,62.0,14.0
1.0,48.0,42.0,118.0
1.0,53.0,57.0,200.0
1.0,62.0,78.0,8.0
1.0,48.0,59.0,268.0
1.0,43.0,58.0,150.0
1.0,60.0,80.0,10.0
1.0,50.0,38.0,192.0
1.0,55.0,55.0,272.0
1.0,59.0,59.0,0.0
1.0,50.0,58.0,310.0
1.0,48.0,59.0,164.0
1.0,60.0,62.0,6.0
1.0,55.0,51.0,26.0
1.0,60.0,41.0,278.0
1.0,55.0,54.0,4.0
1.0,48.0,45.0,136.0
1.0,55.0,42.0,320.0
1.0,60.0,58.0,104.0
1.0,55.0,63.0,246.0
1.0,48.0,50.0,412.0
1.0,67.0,79.0,6.0
1.0,55.0,42.0,116.0
1.0,60.0,51.0,4.0
1.0,55.0,55.0,290.0
1.0,70.0,87.0,168.0
1.0,51.0,55.0,10.0
1.0,58.0,76.0,92.0
1.0,67.0,80.0,92.0
1.0,58.0,44.0,16.0
1.0,44.0,80.0,172.0
1.0,63.0,81.0,8.0
1.0,51.0,42.0,104.0
1.0,56.0,63.0,0.0
1.0,63.0,59.0,16.0
1.0,51.0,71.0,248.0
1.0,43.0,71.0,154.0
1.0,63.0,83.0,14.0
1.0,51.0,78.0,70.0
1.0,58.0,86.0,68.0
1.0,51.0,85.0,252.0
1.0,63.0,89.0,182.0
1.0,44.0,64.0,6.0
1.0,51.0,68.0,168.0
1.0,65.0,84.0,0.0
1.0,56.0,70.0,10.0
1.0,67.0,81.0,6.0
1.0,51.0,65.0,252.0
1.0,63.0,88.0,6.0
1.0,46.0,83.0,146.0
1.0,65.0,83.0,10.0
1.0,53.0,45.0,10.0
1.0,58.0,58.0,278.0
1.0,53.0,42.0,362.0
1.0,48.0,78.0,266.0
1.0,63.0,78.0,0.0
1.0,55.0,68.0,194.0
1.0,65.0,82.0,22.0
1.0,60.0,66.0,208.0
1.0,67.0,79.0,4.0
1.0,55.0,68.0,244.0
1.0,63.0,90.0,16.0
1.0,65.0,85.0,148.0
1.0,46.0,86.0,2.0
1.0,53.0,64.0,28.0
1.0,58.0,68.0,26.0
1.0,70.0,83.0,0.0
1.0,53.0,62.0,252.0
1.0,44.0,73.0,188.0
1.0,67.0,86.0,6.0
1.0,63.0,83.0,238.0
1.0,51.0,57.0,2.0
1.0,60.0,81.0,246.0
1.0,56.0,75.0,4.0
1.0,51.0,84.0,258.0
1.0,67.0,87.0,14.0
1.0,65.0,96.0,150.0
1.0,49.0,81.0,0.0
1.0,56.0,62.0,80.0
1.0,61.0,54.0,326.0
1.0,56.0,53.0,384.0
1.0,46.0,64.0,324.0
1.0,65.0,81.0,72.0
1.0,53.0,42.0,32.0
1.0,58.0,49.0,20.0
1.0,53.0,57.0,454.0
1.0,48.0,44.0,380.0
1.0,67.0,86.0,8.0
1.0,47.0,42.0,2.0
1.0,55.0,51.0,48.0
1.0,67.0,83.0,88.0
1.0,60.0,67.0,8.0
1.0,55.0,65.0,252.0
1.0,51.0,78.0,168.0
1.0,72.0,83.0,2.0
1.0,58.0,70.0,6.0
1.0,67.0,81.0,60.0
1.0,58.0,96.0,18.0
1.0,44.0,70.0,166.0
1.0,63.0,103.0,8.0
1.0,51.0,68.0,70.0
1.0,56.0,86.0,6.0
1.0,63.0,101.0,8.0
1.0,51.0,84.0,264.0
1.0,43.0,80.0,186.0
1.0,63.0,96.0,0.0
1.0,51.0,76.0,146.0
1.0,58.0,103.0,76.0
1.0,51.0,102.0,218.0
1.0,44.0,77.0,184.0
1.0,63.0,108.0,0.0
1.0,51.0,79.0,194.0
1.0,65.0,86.0,4.0
1.0,67.0,81.0,230.0
1.0,56.0,79.0,0.0
1.0,63.0,98.0,14.0
1.0,51.0,69.0,6.0
1.0,49.0,73.0,218.0
1.0,65.0,101.0,0.0
1.0,56.0,53.0,72.0
1.0,61.0,55.0,288.0
1.0,56.0,70.0,358.0
1.0,46.0,81.0,376.0
1.0,65.0,83.0,0.0
1.0,53.0,42.0,130.0
1.0,58.0,38.0,30.0
1.0,53.0,32.0,576.0
1.0,64.0,64.0,508.0
1.0,48.0,45.0,6.0
1.0,55.0,42.0,32.0
1.0,60.0,50.0,270.0
1.0,55.0,54.0,262.0
1.0,48.0,58.0,282.0
1.0,55.0,62.0,298.0
1.0,60.0,66.0,246.0
1.0,65.0,78.0,10.0
1.0,55.0,66.0,256.0
1.0,46.0,73.0,12.0
1.0,62.0,78.0,14.0
1.0,53.0,54.0,8.0
1.0,65.0,78.0,12.0
1.0,58.0,64.0,4.0
1.0,53.0,42.0,266.0
1.0,48.0,81.0,268.0
1.0,64.0,83.0,2.0
1.0,55.0,64.0,96.0
1.0,60.0,76.0,86.0
1.0,55.0,57.0,284.0
1.0,41.0,78.0,176.0
1.0,57.0,78.0,12.0
1.0,48.0,51.0,120.0
1.0,53.0,55.0,272.0
1.0,48.0,65.0,260.0
1.0,43.0,64.0,182.0
1.0,59.0,80.0,0.0
1.0,50.0,42.0,78.0
1.0,55.0,35.0,0.0
1.0,50.0,56.0,330.0
1.0,48.0,62.0,278.0
1.0,60.0,75.0,12.0
1.0,55.0,50.0,108.0
1.0,60.0,41.0,280.0
1.0,55.0,36.0,284.0
1.0,48.0,42.0,304.0
1.0,55.0,55.0,312.0
1.0,60.0,42.0,332.0
1.0,55.0,45.0,330.0
1.0,48.0,57.0,280.0
1.0,64.0,80.0,2.0
1.0,55.0,55.0,80.0
1.0,60.0,65.0,220.0
1.0,64.0,79.0,4.0
1.0,55.0,68.0,294.0
1.0,48.0,71.0,262.0
1.0,55.0,64.0,294.0
1.0,60.0,64.0,148.0
1.0,64.0,76.0,10.0
1.0,55.0,64.0,246.0
1.0,65.0,79.0,16.0
1.0,62.0,86.0,172.0
1.0,46.0,68.0,10.0
1.0,53.0,62.0,42.0
1.0,65.0,77.0,228.0
1.0,58.0,74.0,0.0
1.0,53.0,66.0,250.0
1.0,48.0,78.0,158.0
1.0,64.0,86.0,12.0
1.0,55.0,66.0,86.0
1.0,60.0,77.0,54.0
1.0,55.0,74.0,278.0
1.0,41.0,80.0,198.0
1.0,57.0,95.0,4.0
1.0,48.0,74.0,102.0
1.0,53.0,78.0,224.0
1.0,48.0,74.0,234.0
1.0,43.0,86.0,98.0
1.0,59.0,87.0,10.0
1.0,50.0,72.0,70.0
1.0,55.0,67.0,260.0
1.0,57.0,79.0,16.0
1.0,50.0,79.0,8.0
1.0,59.0,76.0,72.0
1.0,60.0,94.0,4.0
1.0,45.0,70.0,12.0
1.0,52.0,76.0,74.0
1.0,57.0,52.0,4.0
1.0,52.0,58.0,266.0
1.0,45.0,70.0,284.0
1.0,52.0,54.0,282.0
1.0,57.0,64.0,294.0
1.0,64.0,78.0,8.0
1.0,52.0,49.0,0.0
1.0,41.0,58.0,242.0
1.0,57.0,73.0,14.0
1.0,48.0,52.0,118.0
1.0,53.0,52.0,146.0
1.0,62.0,79.0,0.0
1.0,48.0,42.0,290.0
1.0,60.0,77.0,196.0
1.0,43.0,42.0,12.0
1.0,50.0,42.0,88.0
1.0,55.0,45.0,6.0
1.0,59.0,67.0,0.0
1.0,50.0,54.0,314.0
1.0,60.0,78.0,240.0
1.0,48.0,42.0,6.0
1.0,55.0,50.0,142.0
1.0,60.0,49.0,310.0
1.0,55.0,40.0,292.0
1.0,48.0,54.0,310.0
1.0,55.0,64.0,340.0
1.0,60.0,70.0,346.0
1.0,55.0,83.0,342.0
1.0,41.0,69.0,320.0
1.0,57.0,101.0,6.0
1.0,48.0,86.0,110.0
1.0,53.0,94.0,238.0
1.0,48.0,87.0,282.0
1.0,43.0,85.0,194.0
1.0,59.0,96.0,0.0
1.0,50.0,83.0,92.0
1.0,55.0,96.0,260.0
1.0,50.0,89.0,16.0
1.0,57.0,92.0,4.0
1.0,59.0,81.0,90.0
1.0,60.0,94.0,96.0
1.0,45.0,78.0,14.0
1.0,52.0,66.0,104.0
1.0,57.0,58.0,240.0
1.0,52.0,45.0,272.0
1.0,45.0,57.0,304.0
1.0,52.0,47.0,278.0
1.0,57.0,64.0,292.0
1.0,64.0,79.0,2.0
1.0,52.0,59.0,12.0
1.0,41.0,54.0,256.0
1.0,57.0,79.0,18.0
1.0,48.0,57.0,108.0
1.0,53.0,54.0,244.0
1.0,62.0,83.0,0.0
1.0,48.0,72.0,292.0
1.0,60.0,80.0,210.0
1.0,43.0,75.0,10.0
1.0,50.0,52.0,168.0
1.0,59.0,76.0,290.0
1.0,55.0,51.0,14.0
1.0,50.0,55.0,360.0
1.0,48.0,52.0,288.0
1.0,60.0,76.0,2.0
1.0,55.0,44.0,152.0
1.0,60.0,42.0,288.0
1.0,55.0,41.0,320.0
1.0,48.0,31.0,352.0
1.0,55.0,41.0,368.0
1.0,60.0,41.0,362.0
1.0,55.0,65.0,22.0
1.0,60.0,71.0,422.0
1.0,36.0,42.0,14.0
1.0,48.0,42.0,12.0
2.0,48.0,39.0,3762.0
2.0,46.0,47.0,2798.0
2.0,48.0,34.0,1174.0
2.0,41.0,38.0,1216.0
2.0,43.0,32.0,1268.0
2.0,48.0,39.0,1428.0
2.0,48.0,35.0,4.0
2.0,46.0,60.0,2546.0
2.0,48.0,37.0,10.0
2.0,41.0,34.0,722.0
2.0,43.0,42.0,1194.0
2.0,45.0,42.0,1116.0
2.0,41.0,42.0,2456.0
2.0,43.0,58.0,1192.0
2.0,48.0,41.0,1314.0
2.0,48.0,44.0,1772.0
2.0,46.0,53.0,2528.0
2.0,48.0,53.0,1148.0
2.0,41.0,37.0,1138.0
2.0,43.0,42.0,1176.0
2.0,48.0,42.0,1350.0
2.0,48.0,54.0,2044.0
2.0,46.0,55.0,2336.0
2.0,48.0,52.0,1042.0
2.0,41.0,38.0,4.0
2.0,43.0,57.0,1098.0
2.0,45.0,59.0,1140.0
2.0,41.0,38.0,20.0
2.0,43.0,42.0,1126.0
2.0,48.0,41.0,1184.0
2.0,41.0,60.0,454.0
2.0,43.0,76.0,1098.0
2.0,45.0,69.0,994.0
2.0,41.0,45.0,1164.0
2.0,43.0,47.0,1064.0
2.0,48.0,42.0,1284.0
2.0,48.0,42.0,1832.0
2.0,51.0,62.0,1218.0
2.0,44.0,55.0,1064.0
2.0,43.0,50.0,1046.0
2.0,44.0,53.0,1042.0
2.0,46.0,60.0,1064.0
2.0,48.0,55.0,1310.0
2.0,46.0,66.0,1070.0
2.0,44.0,59.0,1074.0
2.0,49.0,55.0,1120.0
2.0,46.0,57.0,480.0
2.0,48.0,57.0,864.0
2.0,51.0,45.0,1114.0
2.0,44.0,58.0,934.0
2.0,43.0,68.0,0.0
2.0,44.0,70.0,1040.0
2.0,49.0,69.0,1066.0
2.0,46.0,77.0,824.0
2.0,48.0,54.0,1392.0
2.0,46.0,53.0,2478.0
2.0,48.0,56.0,1088.0
2.0,41.0,56.0,0.0
2.0,43.0,66.0,1194.0
2.0,48.0,44.0,1320.0
2.0,48.0,66.0,2010.0
2.0,46.0,54.0,2186.0
2.0,48.0,64.0,1112.0
2.0,41.0,62.0,1068.0
2.0,43.0,53.0,1140.0
2.0,45.0,55.0,966.0
2.0,41.0,64.0,1574.0
2.0,43.0,58.0,1078.0
2.0,48.0,42.0,1196.0
2.0,41.0,69.0,1738.0
2.0,43.0,74.0,1106.0
2.0,45.0,78.0,1118.0
2.0,41.0,74.0,1402.0
2.0,43.0,70.0,1144.0
2.0,48.0,67.0,1338.0
2.0,36.0,5.0,2680.0
2.0,48.0,37.0,12.0
3.0,64.0,78.0,3718.0
3.0,65.0,71.0,1836.0
3.0,62.0,68.0,704.0
3.0,65.0,62.0,356.0
3.0,64.0,76.0,560.0
3.0,57.0,68.0,662.0
3.0,59.0,66.0,206.0
3.0,60.0,60.0,310.0
3.0,64.0,68.0,2654.0
3.0,64.0,71.0,284.0
3.0,64.0,73.0,186.0
3.0,65.0,66.0,294.0
3.0,62.0,78.0,310.0
3.0,65.0,70.0,378.0
3.0,64.0,82.0,564.0
3.0,57.0,83.0,830.0
3.0,59.0,79.0,958.0
3.0,59.0,54.0,140.0
3.0,60.0,77.0,132.0
3.0,64.0,56.0,1654.0
3.0,57.0,68.0,304.0
3.0,62.0,76.0,232.0
3.0,60.0,76.0,260.0
3.0,59.0,54.0,298.0
3.0,60.0,64.0,294.0
3.0,64.0,68.0,2608.0
3.0,65.0,71.0,1658.0
3.0,62.0,78.0,578.0
3.0,65.0,78.0,354.0
3.0,64.0,79.0,564.0
3.0,57.0,83.0,806.0
3.0,59.0,78.0,188.0
3.0,60.0,80.0,290.0
3.0,64.0,66.0,2540.0
3.0,64.0,79.0,220.0
3.0,64.0,66.0,214.0
3.0,65.0,73.0,292.0
3.0,62.0,75.0,280.0
3.0,65.0,81.0,366.0
3.0,64.0,86.0,530.0
3.0,60.0,81.0,240.0
3.0,57.0,93.0,292.0
3.0,59.0,87.0,930.0
3.0,59.0,64.0,118.0
3.0,60.0,79.0,154.0
3.0,64.0,64.0,1680.0
3.0,57.0,65.0,304.0
3.0,62.0,76.0,170.0
3.0,60.0,75.0,188.0
3.0,59.0,68.0,278.0
3.0,60.0,69.0,292.0
3.0,60.0,50.0,256.0
3.0,57.0,93.0,1820.0
3.0,59.0,90.0,932.0
3.0,57.0,89.0,2.0
3.0,59.0,83.0,120.0
3.0,60.0,96.0,90.0
3.0,64.0,57.0,1582.0
3.0,57.0,62.0,292.0
3.0,62.0,78.0,208.0
3.0,60.0,80.0,576.0
3.0,59.0,59.0,496.0
3.0,60.0,62.0,170.0
3.0,67.0,79.0,2844.0
3.0,70.0,87.0,168.0
3.0,67.0,80.0,374.0
3.0,58.0,44.0,16.0
3.0,63.0,64.0,180.0
3.0,63.0,59.0,272.0
3.0,63.0,83.0,206.0
3.0,58.0,86.0,214.0
3.0,63.0,89.0,218.0
3.0,65.0,84.0,168.0
3.0,67.0,81.0,16.0
3.0,63.0,88.0,258.0
3.0,65.0,83.0,156.0
3.0,63.0,78.0,314.0
3.0,65.0,82.0,216.0
3.0,67.0,79.0,212.0
3.0,63.0,90.0,16.0
3.0,65.0,85.0,148.0
3.0,70.0,83.0,306.0
3.0,67.0,86.0,194.0
3.0,63.0,83.0,238.0
3.0,60.0,81.0,246.0
3.0,67.0,87.0,272.0
3.0,65.0,96.0,150.0
3.0,65.0,81.0,400.0
3.0,67.0,86.0,388.0
3.0,67.0,83.0,88.0
3.0,72.0,83.0,170.0
3.0,67.0,81.0,134.0
3.0,63.0,103.0,282.0
3.0,63.0,101.0,190.0
3.0,58.0,103.0,248.0
3.0,63.0,108.0,238.0
3.0,65.0,86.0,198.0
3.0,67.0,64.0,230.0
3.0,63.0,98.0,228.0
3.0,65.0,64.0,218.0
3.0,65.0,83.0,780.0
3.0,64.0,64.0,508.0
3.0,65.0,64.0,1608.0
3.0,62.0,78.0,558.0
3.0,65.0,78.0,296.0
3.0,64.0,83.0,546.0
3.0,60.0,76.0,270.0
3.0,55.0,57.0,284.0
3.0,57.0,78.0,188.0
3.0,59.0,64.0,182.0
3.0,60.0,75.0,310.0
3.0,60.0,41.0,324.0
3.0,64.0,80.0,1738.0
3.0,64.0,79.0,224.0
3.0,64.0,76.0,158.0
3.0,65.0,79.0,268.0
3.0,62.0,86.0,172.0
3.0,65.0,77.0,308.0
3.0,64.0,86.0,534.0
3.0,60.0,77.0,224.0
3.0,57.0,95.0,284.0
3.0,59.0,87.0,922.0
3.0,57.0,79.0,16.0
3.0,59.0,76.0,104.0
3.0,60.0,94.0,4.0
3.0,64.0,78.0,1578.0
3.0,57.0,73.0,310.0
3.0,62.0,79.0,146.0
3.0,60.0,77.0,208.0
3.0,59.0,67.0,220.0
3.0,60.0,78.0,270.0
3.0,60.0,49.0,310.0
3.0,57.0,101.0,1878.0
3.0,59.0,96.0,128.0
3.0,57.0,92.0,20.0
3.0,59.0,81.0,122.0
3.0,60.0,94.0,96.0
3.0,64.0,79.0,1616.0
3.0,57.0,79.0,348.0
3.0,62.0,83.0,244.0
3.0,60.0,80.0,210.0
3.0,59.0,76.0,298.0
3.0,60.0,76.0,290.0
3.0,60.0,42.0,294.0
3.0,60.0,71.0,2086.0
3.0,36.0,42.0,14.0
3.0,48.0,42.0,12.0
0.0,0.0,0.0,0.0
0.0,0.0,0.0,0.0
0.0,0.0,0.0,0.0
0.0,0.0,0.0,0.0
0.0,0.0,0.0,0.0
0.0,0.0,0.0,0.0
0.0,0.0,0.0,0.0
0.0,0.0,0.0,0.0
0.0,0.0,0.0,0.0
0.0,0.0,0.0,0.0
0.0,0.0,0.0,0.0
0.0,0.0,0.0,0.0
0.0,0.0,0.0,0.0
0.0,0.0,0.0,0.0
0.0,0.0,0.0,0.0
0.0,0.0,0.0,0.0
0.0,0.0,0.0,0.0
0.0,0.0,0.0,0.0
0.0,0.0,0.0,0.0
0.0,0.0,0.0,0.0
0.0,0.0,0.0,0.0
0.0,0.0,0.0,0.0
0.0,0.0,0.0,0.0
0.0,0.0,0.0,0.0
0.0,0.0,0.0,0.0
0.0,0.0,0.0,0.0
0.0,0.0,0.0,0.0
0.0,0.0,0.0,0.0
0.0,0.0,0.0,0.0
0.0,0.0,0.0,0.0
0.0,0.0,0.0,0.0
0.0,0.0,0.0,0.0
0.0,0.0,0.0,0.0
0.0,0.0,0.0,0.0
0.0,0.0,0.0,0.0
0.0,0.0,0.0,0.0
0.0,0.0,0.0,0.0
0.0,0.0,0.0,0.0
0.0,0.0,0.0,0.0
0.0,0.0,0.0,0.0
0.0,0.0,0.0,0.0
0.0,0.0,0.0,0.0
0.0,0.0,0.0,0.0
0.0,0.0,0.0,0.0
0.0,0.0,0.0,0.0
0.0,0.0,0.0,0.0
0.0,0.0,0.0,0.0
0.0,0.0,0.0,0.0
0.0,0.0,0.0,0.0
0.0,0.0,0.0,0.0
0.0,0.0,0.0,0.0
0.0,0.0,0.0,0.0
0.0,0.0,0.0,0.0
0.0,0.0,0.0,0.0
0.0,0.0,0.0,0.0
0.0,0.0,0.0,0.0
0.0,0.0,0.0,0.0
0.0,0.0,0.0,0.0
0.0,0.0,0.0,0.0
0.0,0.0,0.0,0.0
0.0,0.0,0.0,0.0
0.0,0.0,0.0,0.0
0.0,0.0,0.0,0.0
0.0,0.0,0.0,0.0
0.0,0.0,0.0,0.0
0.0,0.0,0.0,0.0
0.0,0.0,0.0,0.0
0.0,0.0,0.0,0.0
0.0,0.0,0.0,0.0
0.0,0.0,0.0,0.0
0.0,0.0,0.0,0.0
0.0,0.0,0.0,0.0
0.0,0.0,0.0,0.0
0.0,0.0,0.0,0.0
0.0,0.0,0.0,0.0
0.0,0.0,0.0,0.0
0.0,0.0,0.0,0.0
0.0,0.0,0.0,0.0
0.0,0.0,0.0,0.0
0.0,0.0,0.0,0.0
0.0,0.0,0.0,0.0
0.0,0.0,0.0,0.0
0.0,0.0,0.0,0.0
0.0,0.0,0.0,0.0
0.0,0.0,0.0,0.0
0.0,0.0,0.0,0.0
0.0,0.0,0.0,0.0
0.0,0.0,0.0,0.0
0.0,0.0,0.0,0.0
0.0,0.0,0.0,0.0
0.0,0.0,0.0,0.0
0.0,0.0,0.0,0.0
0.0,0.0,0.0,0.0
0.0,0.0,0.0,0.0
0.0,0.0,0.0,0.0
0.0,0.0,0.0,0.0
0.0,0.0,0.0,0.0
0.0,0.0,0.0,0.0
0.0,0.0,0.0,0.0
0.0,0.0,0.0,0.0
0.0,0.0,0.0,0.0
0.0,0.0,0.0,0.0
0.0,0.0,0.0,0.0
0.0,0.0,0.0,0.0
0.0,0.0,0.0,0.0
0.0,0.0,0.0,0.0
0.0,0.0,0.0,0.0
0.0,0.0,0.0,0.0
0.0,0.0,0.0,0.0
0.0,0.0,0.0,0.0
0.0,0.0,0.0,0.0
0.0,0.0,0.0,0.0
0.0,0.0,0.0,0.0
0.0,0.0,0.0,0.0
0.0,0.0,0.0,0.0
0.0,0.0,0.0,0.0
0.0,0.0,0.0,0.0
0.0,0.0,0.0,0.0
0.0,0.0,0.0,0.0
0.0,0.0,0.0,0.0
0.0,0.0,0.0,0.0
0.0,0.0,0.0,0.0
0.0,0.0,0.0,0.0
0.0,0.0,0.0,0.0
0.0,0.0,0.0,0.0
0.0,0.0,0.0,0.0
0.0,0.0,0.0,0.0
0.0,0.0,0.0,0.0
0.0,0.0,0.0,0.0
0.0,0.0,0.0,0.0
0.0,0.0,0.0,0.0
0.0,0.0,0.0,0.0
0.0,0.0,0.0,0.0
0.0,0.0,0.0,0.0
0.0,0.0,0.0,0.0
0.0,0.0,0.0,0.0
0.0,0.0,0.0,0.0
0.0,0.0,0.0,0.0
0.0,0.0,0.0,0.0
0.0,0.0,0.0,0.0
0.0,0.0,0.0,0.0
0.0,0.0,0.0,0.0
0.0,0.0,0.0,0.0
0.0,0.0,0.0,0.0
0.0,0.0,0.0,0.0
0.0,0.0,0.0,0.0
0.0,0.0,0.0,0.0
0.0,0.0,0.0,0.0
0.0,0.0,0.0,0.0
0.0,0.0,0.0,0.0
0.0,0.0,0.0,0.0
0.0,0.0,0.0,0.0
0.0,0.0,0.0,0.0
0.0,0.0,0.0,0.0
0.0,0.0,0.0,0.0
0.0,0.0,0.0,0.0
0.0,0.0,0.0,0.0
0.0,0.0,0.0,0.0
0.0,0.0,0.0,0.0
0.0,0.0,0.0,0.0
0.0,0.0,0.0,0.0
0.0,0.0,0.0,0.0
0.0,0.0,0.0,0.0
0.0,0.0,0.0,0.0
0.0,0.0,0.0,0.0
0.0,0.0,0.0,0.0
0.0,0.0,0.0,0.0
0.0,0.0,0.0,0.0
0.0,0.0,0.0,0.0
0.0,0.0,0.0,0.0
0.0,0.0,0.0,0.0
0.0,0.0,0.0,0.0
0.0,0.0,0.0,0.0
0.0,0.0,0.0,0.0
0.0,0.0,0.0,0.0
0.0,0.0,0.0,0.0
0.0,0.0,0.0,0.0
0.0,0.0,0.0,0.0
0.0,0.0,0.0,0.0
0.0,0.0,0.0,0.0
0.0,0.0,0.0,0.0
0.0,0.0,0.0,0.0
0.0,0.0,0.0,0.0
0.0,0.0,0.0,0.0
0.0,0.0,0.0,0.0
0.0,0.0,0.0,0.0
0.0,0.0,0.0,0.0
0.0,0.0,0.0,0.0
0.0,0.0,0.0,0.0
0.0,0.0,0.0,0.0
0.0,0.0,0.0,0.0
0.0,0.0,0.0,0.0
0.0,0.0,0.0,0.0
0.0,0.0,0.0,0.0
0.0,0.0,0.0,0.0
0.0,0.0,0.0,0.0
0.0,0.0,0.0,0.0
0.0,0.0,0.0,0.0
0.0,0.0,0.0,0.0
0.0,0.0,0.0,0.0
0.0,0.0,0.0,0.0
0.0,0.0,0.0,0.0
0.0,0.0,0.0,0.0
0.0,0.0,0.0,0.0
0.0,0.0,0.0,0.0
0.0,0.0,0.0,0.0
0.0,0.0,0.0,0.0
0.0,0.0,0.0,0.0
0.0,0.0,0.0,0.0
0.0,0.0,0.0,0.0
0.0,0.0,0.0,0.0
0.0,0.0,0.0,0.0
0.0,0.0,0.0,0.0
0.0,0.0,0.0,0.0
0.0,0.0,0.0,0.0
0.0,0.0,0.0,0.0
0.0,0.0,0.0,0.0
0.0,0.0,0.0,0.0
0.0,0.0,0.0,0.0
0.0,0.0,0.0,0.0
0.0,0.0,0.0,0.0
0.0,0.0,0.0,0.0
0.0,0.0,0.0,0.0
0.0,0.0,0.0,0.0
0.0,0.0,0.0,0.0
0.0,0.0,0.0,0.0
0.0,0.0,0.0,0.0
0.0,0.0,0.0,0.0
0.0,0.0,0.0,0.0
0.0,0.0,0.0,0.0
0.0,0.0,0.0,0.0
0.0,0.0,0.0,0.0
0.0,0.0,0.0,0.0
0.0,0.0,0.0,0.0
0.0,0.0,0.0,0.0
0.0,0.0,0.0,0.0
0.0,0.0,0.0,0.0
0.0,0.0,0.0,0.0
0.0,0.0,0.0,0.0
0.0,0.0,0.0,0.0
0.0,0.0,0.0,0.0
0.0,0.0,0.0,0.0
0.0,0.0,0.0,0.0
0.0,0.0,0.0,0.0
0.0,0.0,0.0,0.0
0.0,0.0,0.0,0.0
0.0,0.0,0.0,0.0
0.0,0.0,0.0,0.0
0.0,0.0,0.0,0.0
0.0,0.0,0.0,0.0
0.0,0.0,0.0,0.0
0.0,0.0,0.0,0.0
0.0,0.0,0.0,0.0
0.0,0.0,0.0,0.0
