track,note,velocity,time
1.0,46.0,75.0,310.0
1.0,53.0,78.0,10.0
1.0,58.0,48.0,16.0
1.0,65.0,73.0,52.0
1.0,73.0,69.0,6.0
1.0,72.0,85.0,138.0
1.0,73.0,86.0,194.0
1.0,70.0,83.0,0.0
1.0,41.0,83.0,282.0
1.0,48.0,59.0,60.0
1.0,53.0,48.0,0.0
1.0,68.0,83.0,56.0
1.0,60.0,70.0,16.0
1.0,67.0,73.0,4.0
1.0,68.0,82.0,204.0
1.0,65.0,93.0,124.0
1.0,46.0,86.0,250.0
1.0,53.0,75.0,50.0
1.0,58.0,61.0,4.0
1.0,73.0,83.0,74.0
1.0,65.0,70.0,8.0
1.0,72.0,89.0,82.0
1.0,73.0,83.0,198.0
1.0,70.0,96.0,206.0
1.0,41.0,86.0,260.0
1.0,48.0,85.0,54.0
1.0,53.0,57.0,6.0
1.0,68.0,91.0,46.0
1.0,60.0,68.0,18.0
1.0,67.0,71.0,2.0
1.0,68.0,85.0,178.0
1.0,65.0,100.0,620.0
1.0,49.0,91.0,340.0
1.0,65.0,96.0,4.0
1.0,53.0,77.0,58.0
1.0,63.0,91.0,218.0
1.0,56.0,82.0,0.0
1.0,53.0,86.0,212.0
1.0,65.0,89.0,2.0
1.0,68.0,86.0,4.0
1.0,51.0,78.0,0.0
1.0,67.0,76.0,120.0
1.0,55.0,78.0,22.0
1.0,58.0,78.0,194.0
1.0,63.0,78.0,6.0
1.0,55.0,84.0,194.0
1.0,44.0,100.0,156.0
1.0,63.0,89.0,6.0
1.0,51.0,69.0,88.0
1.0,56.0,83.0,214.0
1.0,51.0,80.0,188.0
1.0,44.0,78.0,164.0
1.0,51.0,89.0,108.0
1.0,56.0,75.0,4.0
1.0,63.0,85.0,94.0
1.0,56.0,78.0,10.0
1.0,68.0,100.0,28.0
1.0,51.0,93.0,8.0
1.0,49.0,96.0,160.0
1.0,65.0,89.0,2.0
1.0,53.0,72.0,14.0
1.0,56.0,70.0,0.0
1.0,63.0,91.0,6.0
1.0,53.0,85.0,192.0
1.0,65.0,86.0,12.0
1.0,68.0,93.0,18.0
1.0,51.0,85.0,4.0
1.0,67.0,79.0,96.0
1.0,55.0,82.0,14.0
1.0,63.0,86.0,190.0
1.0,58.0,83.0,2.0
1.0,55.0,70.0,168.0
1.0,46.0,103.0,132.0
1.0,65.0,96.0,10.0
1.0,53.0,80.0,10.0
1.0,58.0,82.0,226.0
1.0,53.0,80.0,182.0
1.0,46.0,93.0,100.0
1.0,58.0,83.0,100.0
1.0,53.0,89.0,4.0
1.0,58.0,75.0,100.0
1.0,65.0,91.0,0.0
1.0,53.0,73.0,28.0
1.0,70.0,86.0,0.0
1.0,49.0,93.0,154.0
1.0,65.0,91.0,12.0
1.0,53.0,83.0,36.0
1.0,63.0,86.0,212.0
1.0,56.0,78.0,2.0
1.0,53.0,85.0,188.0
1.0,65.0,89.0,6.0
1.0,68.0,100.0,14.0
1.0,51.0,71.0,0.0
1.0,67.0,76.0,90.0
1.0,55.0,76.0,16.0
1.0,58.0,77.0,186.0
1.0,63.0,85.0,4.0
1.0,55.0,76.0,178.0
1.0,44.0,98.0,146.0
1.0,60.0,85.0,8.0
1.0,51.0,80.0,16.0
1.0,56.0,77.0,204.0
1.0,51.0,75.0,84.0
1.0,44.0,93.0,0.0
1.0,56.0,82.0,106.0
1.0,51.0,89.0,2.0
1.0,63.0,89.0,72.0
1.0,56.0,80.0,14.0
1.0,68.0,96.0,38.0
1.0,51.0,86.0,0.0
1.0,49.0,86.0,158.0
1.0,65.0,91.0,6.0
1.0,53.0,77.0,24.0
1.0,56.0,71.0,194.0
1.0,63.0,96.0,0.0
1.0,53.0,82.0,202.0
1.0,65.0,89.0,2.0
1.0,68.0,91.0,2.0
1.0,51.0,86.0,2.0
1.0,67.0,78.0,86.0
1.0,55.0,79.0,14.0
1.0,63.0,82.0,178.0
1.0,58.0,80.0,0.0
1.0,55.0,66.0,166.0
1.0,41.0,103.0,158.0
1.0,65.0,85.0,6.0
1.0,48.0,89.0,14.0
1.0,53.0,70.0,164.0
1.0,48.0,77.0,162.0
1.0,41.0,78.0,156.0
1.0,48.0,78.0,0.0
1.0,53.0,73.0,214.0
1.0,48.0,82.0,198.0
1.0,41.0,71.0,152.0
1.0,48.0,72.0,178.0
1.0,53.0,61.0,200.0
1.0,48.0,71.0,234.0
1.0,46.0,91.0,692.0
1.0,53.0,78.0,50.0
1.0,58.0,71.0,8.0
1.0,73.0,86.0,20.0
1.0,65.0,77.0,2.0
1.0,72.0,83.0,54.0
1.0,73.0,86.0,196.0
1.0,70.0,93.0,620.0
1.0,41.0,80.0,276.0
1.0,48.0,96.0,56.0
1.0,53.0,55.0,6.0
1.0,68.0,83.0,60.0
1.0,60.0,68.0,18.0
1.0,67.0,71.0,58.0
1.0,68.0,80.0,188.0
1.0,65.0,98.0,8.0
1.0,46.0,85.0,260.0
1.0,53.0,93.0,48.0
1.0,58.0,67.0,4.0
1.0,73.0,86.0,16.0
1.0,65.0,72.0,4.0
1.0,72.0,89.0,90.0
1.0,73.0,85.0,192.0
1.0,70.0,89.0,28.0
1.0,41.0,82.0,236.0
1.0,48.0,89.0,54.0
1.0,53.0,55.0,2.0
1.0,68.0,86.0,54.0
1.0,60.0,72.0,16.0
1.0,67.0,71.0,152.0
1.0,68.0,89.0,192.0
1.0,65.0,91.0,560.0
1.0,49.0,71.0,340.0
1.0,65.0,91.0,10.0
1.0,53.0,66.0,38.0
1.0,56.0,75.0,208.0
1.0,63.0,89.0,0.0
1.0,53.0,89.0,190.0
1.0,65.0,83.0,14.0
1.0,68.0,86.0,4.0
1.0,51.0,83.0,8.0
1.0,67.0,76.0,88.0
1.0,55.0,84.0,24.0
1.0,63.0,85.0,172.0
1.0,58.0,85.0,8.0
1.0,55.0,75.0,180.0
1.0,44.0,89.0,152.0
1.0,63.0,89.0,2.0
1.0,51.0,75.0,96.0
1.0,56.0,78.0,204.0
1.0,51.0,73.0,6.0
1.0,44.0,82.0,208.0
1.0,51.0,86.0,112.0
1.0,56.0,78.0,4.0
1.0,63.0,85.0,90.0
1.0,56.0,77.0,0.0
1.0,51.0,89.0,48.0
1.0,68.0,93.0,0.0
1.0,49.0,93.0,146.0
1.0,65.0,93.0,10.0
1.0,53.0,78.0,26.0
1.0,56.0,71.0,192.0
1.0,63.0,93.0,4.0
1.0,53.0,83.0,184.0
1.0,65.0,83.0,6.0
1.0,68.0,93.0,18.0
1.0,51.0,77.0,2.0
1.0,67.0,78.0,72.0
1.0,55.0,73.0,6.0
1.0,63.0,77.0,186.0
1.0,58.0,80.0,6.0
1.0,55.0,71.0,172.0
1.0,46.0,96.0,132.0
1.0,65.0,91.0,10.0
1.0,53.0,68.0,0.0
1.0,58.0,67.0,232.0
1.0,53.0,64.0,6.0
1.0,46.0,78.0,78.0
1.0,53.0,73.0,102.0
1.0,58.0,73.0,12.0
1.0,65.0,89.0,88.0
1.0,58.0,71.0,2.0
1.0,70.0,91.0,38.0
1.0,53.0,75.0,0.0
1.0,49.0,85.0,148.0
1.0,65.0,91.0,12.0
1.0,53.0,80.0,30.0
1.0,56.0,86.0,184.0
1.0,63.0,93.0,6.0
1.0,53.0,85.0,164.0
1.0,65.0,85.0,20.0
1.0,51.0,70.0,12.0
1.0,68.0,83.0,8.0
1.0,67.0,76.0,86.0
1.0,55.0,75.0,16.0
1.0,58.0,78.0,148.0
1.0,63.0,83.0,14.0
1.0,55.0,76.0,154.0
1.0,60.0,77.0,112.0
1.0,44.0,66.0,12.0
1.0,51.0,71.0,2.0
1.0,56.0,70.0,188.0
1.0,51.0,71.0,24.0
1.0,44.0,75.0,0.0
1.0,51.0,85.0,84.0
1.0,56.0,75.0,10.0
1.0,63.0,82.0,86.0
1.0,56.0,77.0,0.0
1.0,51.0,85.0,30.0
1.0,68.0,86.0,12.0
1.0,49.0,96.0,156.0
1.0,65.0,89.0,0.0
1.0,53.0,86.0,126.0
1.0,56.0,72.0,0.0
1.0,63.0,83.0,10.0
1.0,53.0,72.0,6.0
1.0,65.0,89.0,14.0
1.0,68.0,83.0,8.0
1.0,51.0,70.0,0.0
1.0,67.0,76.0,106.0
1.0,55.0,62.0,12.0
1.0,63.0,82.0,174.0
1.0,58.0,70.0,0.0
1.0,55.0,60.0,188.0
1.0,65.0,85.0,168.0
1.0,41.0,65.0,4.0
1.0,48.0,73.0,34.0
1.0,53.0,61.0,30.0
1.0,48.0,72.0,170.0
1.0,41.0,56.0,146.0
1.0,48.0,70.0,214.0
1.0,53.0,58.0,190.0
1.0,48.0,83.0,216.0
1.0,46.0,89.0,440.0
1.0,53.0,73.0,46.0
1.0,58.0,62.0,6.0
1.0,73.0,77.0,28.0
1.0,65.0,73.0,4.0
1.0,72.0,91.0,24.0
1.0,73.0,86.0,200.0
1.0,70.0,91.0,4.0
1.0,41.0,83.0,264.0
1.0,48.0,91.0,40.0
1.0,53.0,32.0,32.0
1.0,68.0,91.0,28.0
1.0,60.0,67.0,20.0
1.0,67.0,62.0,158.0
1.0,68.0,80.0,180.0
1.0,65.0,98.0,300.0
1.0,46.0,93.0,228.0
1.0,53.0,89.0,48.0
1.0,58.0,61.0,10.0
1.0,73.0,83.0,2.0
1.0,65.0,63.0,10.0
1.0,72.0,83.0,70.0
1.0,73.0,82.0,188.0
1.0,70.0,83.0,204.0
1.0,41.0,80.0,256.0
1.0,48.0,91.0,48.0
1.0,53.0,61.0,0.0
1.0,68.0,93.0,52.0
1.0,60.0,70.0,10.0
1.0,67.0,61.0,14.0
1.0,68.0,75.0,202.0
1.0,65.0,93.0,652.0
1.0,65.0,91.0,330.0
1.0,49.0,96.0,4.0
1.0,53.0,77.0,50.0
1.0,56.0,78.0,208.0
1.0,63.0,85.0,6.0
1.0,53.0,86.0,216.0
1.0,65.0,83.0,0.0
1.0,68.0,85.0,8.0
1.0,51.0,75.0,6.0
1.0,67.0,71.0,112.0
1.0,55.0,76.0,16.0
1.0,58.0,72.0,190.0
1.0,63.0,80.0,2.0
1.0,55.0,57.0,188.0
1.0,44.0,96.0,152.0
1.0,63.0,91.0,8.0
1.0,51.0,78.0,76.0
1.0,56.0,67.0,194.0
1.0,51.0,72.0,182.0
1.0,44.0,75.0,0.0
1.0,51.0,91.0,102.0
1.0,56.0,80.0,6.0
1.0,63.0,93.0,94.0
1.0,56.0,71.0,10.0
1.0,51.0,86.0,40.0
1.0,68.0,96.0,10.0
1.0,49.0,85.0,152.0
1.0,65.0,98.0,14.0
1.0,53.0,69.0,40.0
1.0,63.0,89.0,194.0
1.0,56.0,91.0,4.0
1.0,53.0,78.0,0.0
1.0,65.0,85.0,6.0
1.0,68.0,89.0,14.0
1.0,51.0,75.0,12.0
1.0,67.0,76.0,48.0
1.0,55.0,75.0,6.0
1.0,58.0,72.0,198.0
1.0,63.0,83.0,0.0
1.0,55.0,71.0,188.0
1.0,46.0,96.0,136.0
1.0,65.0,93.0,6.0
1.0,53.0,77.0,50.0
1.0,58.0,72.0,200.0
1.0,53.0,89.0,190.0
1.0,46.0,85.0,8.0
1.0,53.0,77.0,94.0
1.0,58.0,82.0,10.0
1.0,58.0,80.0,74.0
1.0,65.0,91.0,0.0
1.0,53.0,86.0,58.0
1.0,70.0,86.0,6.0
1.0,65.0,86.0,156.0
1.0,49.0,67.0,0.0
1.0,51.0,66.0,8.0
1.0,53.0,65.0,118.0
1.0,56.0,72.0,176.0
1.0,63.0,89.0,10.0
1.0,53.0,83.0,178.0
1.0,65.0,91.0,6.0
1.0,68.0,86.0,16.0
1.0,51.0,78.0,0.0
1.0,67.0,75.0,80.0
1.0,55.0,75.0,16.0
1.0,58.0,80.0,174.0
1.0,63.0,82.0,0.0
1.0,55.0,71.0,166.0
1.0,44.0,91.0,138.0
1.0,60.0,83.0,12.0
1.0,51.0,70.0,18.0
1.0,56.0,64.0,190.0
1.0,51.0,68.0,112.0
1.0,44.0,85.0,20.0
1.0,51.0,85.0,114.0
1.0,56.0,71.0,8.0
1.0,63.0,85.0,78.0
1.0,56.0,71.0,4.0
1.0,68.0,91.0,34.0
1.0,51.0,85.0,10.0
1.0,49.0,72.0,152.0
1.0,65.0,98.0,4.0
1.0,53.0,69.0,66.0
1.0,56.0,80.0,178.0
1.0,63.0,91.0,8.0
1.0,53.0,85.0,176.0
1.0,65.0,86.0,8.0
1.0,68.0,93.0,16.0
1.0,51.0,73.0,0.0
1.0,67.0,76.0,8.0
1.0,55.0,71.0,22.0
1.0,63.0,80.0,182.0
1.0,58.0,82.0,8.0
1.0,55.0,68.0,174.0
1.0,46.0,91.0,140.0
1.0,65.0,98.0,0.0
1.0,53.0,83.0,12.0
1.0,58.0,82.0,192.0
1.0,53.0,63.0,190.0
1.0,46.0,78.0,130.0
1.0,53.0,85.0,96.0
1.0,58.0,78.0,2.0
1.0,65.0,96.0,98.0
1.0,58.0,73.0,0.0
1.0,53.0,80.0,64.0
1.0,70.0,83.0,2.0
1.0,49.0,98.0,144.0
1.0,65.0,86.0,6.0
1.0,53.0,69.0,52.0
1.0,63.0,89.0,190.0
1.0,56.0,77.0,0.0
1.0,53.0,82.0,204.0
1.0,65.0,82.0,8.0
1.0,68.0,91.0,18.0
1.0,51.0,80.0,14.0
1.0,67.0,75.0,42.0
1.0,55.0,79.0,20.0
1.0,58.0,75.0,162.0
1.0,63.0,78.0,0.0
1.0,55.0,51.0,172.0
1.0,44.0,85.0,154.0
1.0,60.0,96.0,16.0
1.0,51.0,72.0,50.0
1.0,56.0,61.0,200.0
1.0,51.0,69.0,10.0
1.0,44.0,70.0,200.0
1.0,56.0,69.0,84.0
1.0,51.0,85.0,0.0
1.0,63.0,83.0,98.0
1.0,56.0,80.0,10.0
1.0,51.0,85.0,42.0
1.0,68.0,96.0,2.0
1.0,49.0,93.0,154.0
1.0,65.0,89.0,4.0
1.0,53.0,75.0,68.0
1.0,56.0,78.0,4.0
1.0,63.0,85.0,10.0
1.0,53.0,71.0,186.0
1.0,65.0,82.0,12.0
1.0,68.0,86.0,28.0
1.0,51.0,77.0,6.0
1.0,67.0,73.0,86.0
1.0,55.0,71.0,8.0
1.0,63.0,83.0,154.0
1.0,58.0,83.0,0.0
1.0,55.0,71.0,168.0
1.0,65.0,91.0,140.0
1.0,46.0,86.0,2.0
1.0,53.0,91.0,44.0
1.0,58.0,75.0,194.0
1.0,53.0,65.0,18.0
1.0,46.0,77.0,0.0
1.0,53.0,72.0,50.0
1.0,58.0,80.0,6.0
1.0,58.0,62.0,98.0
1.0,65.0,91.0,0.0
1.0,68.0,85.0,60.0
1.0,53.0,83.0,0.0
1.0,65.0,85.0,140.0
1.0,49.0,73.0,0.0
1.0,53.0,75.0,72.0
1.0,63.0,85.0,180.0
1.0,56.0,69.0,0.0
1.0,53.0,82.0,210.0
1.0,65.0,82.0,4.0
1.0,68.0,93.0,18.0
1.0,51.0,83.0,2.0
1.0,67.0,75.0,74.0
1.0,55.0,70.0,12.0
1.0,63.0,82.0,154.0
1.0,58.0,69.0,8.0
1.0,55.0,66.0,162.0
1.0,60.0,85.0,152.0
1.0,44.0,89.0,0.0
1.0,51.0,78.0,42.0
1.0,56.0,73.0,196.0
1.0,51.0,70.0,116.0
1.0,44.0,78.0,216.0
1.0,56.0,75.0,90.0
1.0,51.0,91.0,6.0
1.0,63.0,83.0,100.0
1.0,56.0,75.0,4.0
1.0,68.0,96.0,58.0
1.0,51.0,75.0,8.0
1.0,49.0,80.0,8.0
1.0,65.0,96.0,8.0
1.0,53.0,80.0,82.0
1.0,56.0,72.0,0.0
1.0,63.0,89.0,8.0
1.0,53.0,75.0,12.0
1.0,65.0,82.0,10.0
1.0,68.0,83.0,0.0
1.0,51.0,75.0,6.0
1.0,67.0,73.0,72.0
1.0,55.0,78.0,12.0
1.0,63.0,82.0,180.0
1.0,58.0,77.0,0.0
1.0,41.0,82.0,364.0
1.0,65.0,89.0,22.0
1.0,48.0,78.0,26.0
1.0,53.0,42.0,32.0
2.0,81.0,73.0,1378.0
2.0,81.0,70.0,932.0
2.0,81.0,70.0,812.0
2.0,81.0,71.0,798.0
2.0,81.0,71.0,810.0
2.0,81.0,75.0,804.0
2.0,81.0,73.0,796.0
2.0,82.0,52.0,1238.0
2.0,82.0,67.0,142.0
2.0,82.0,62.0,550.0
2.0,82.0,58.0,812.0
2.0,82.0,62.0,148.0
2.0,82.0,63.0,550.0
2.0,82.0,60.0,150.0
2.0,82.0,56.0,534.0
2.0,82.0,59.0,150.0
2.0,82.0,57.0,544.0
2.0,82.0,60.0,120.0
2.0,82.0,64.0,546.0
2.0,82.0,65.0,120.0
2.0,82.0,63.0,524.0
2.0,82.0,58.0,118.0
2.0,82.0,56.0,562.0
2.0,82.0,62.0,106.0
2.0,82.0,63.0,540.0
2.0,82.0,60.0,110.0
2.0,82.0,57.0,514.0
2.0,82.0,53.0,126.0
2.0,82.0,60.0,518.0
2.0,82.0,53.0,104.0
2.0,82.0,53.0,542.0
2.0,82.0,51.0,104.0
2.0,82.0,57.0,518.0
2.0,82.0,59.0,106.0
2.0,82.0,39.0,518.0
2.0,82.0,51.0,110.0
2.0,82.0,56.0,516.0
2.0,82.0,56.0,98.0
2.0,82.0,51.0,534.0
2.0,82.0,50.0,104.0
2.0,81.0,68.0,1944.0
2.0,81.0,65.0,872.0
2.0,81.0,65.0,832.0
2.0,81.0,78.0,804.0
2.0,81.0,76.0,776.0
2.0,81.0,68.0,784.0
2.0,81.0,78.0,756.0
2.0,82.0,71.0,808.0
2.0,82.0,67.0,84.0
2.0,82.0,68.0,568.0
2.0,82.0,65.0,138.0
2.0,82.0,56.0,520.0
2.0,82.0,60.0,102.0
2.0,82.0,61.0,556.0
2.0,82.0,59.0,112.0
2.0,82.0,62.0,542.0
2.0,82.0,56.0,134.0
2.0,82.0,61.0,544.0
2.0,82.0,59.0,134.0
2.0,82.0,60.0,546.0
2.0,82.0,56.0,80.0
2.0,82.0,65.0,530.0
2.0,82.0,63.0,88.0
2.0,82.0,54.0,518.0
2.0,82.0,56.0,106.0
2.0,82.0,62.0,518.0
2.0,82.0,60.0,92.0
2.0,82.0,62.0,532.0
2.0,82.0,59.0,104.0
2.0,82.0,61.0,520.0
2.0,82.0,58.0,80.0
2.0,82.0,60.0,518.0
2.0,82.0,57.0,108.0
2.0,82.0,45.0,544.0
2.0,82.0,47.0,104.0
2.0,82.0,43.0,596.0
2.0,82.0,46.0,108.0
2.0,82.0,50.0,516.0
2.0,82.0,55.0,92.0
2.0,82.0,17.0,558.0
2.0,81.0,65.0,2232.0
2.0,81.0,70.0,820.0
2.0,81.0,76.0,800.0
2.0,81.0,68.0,758.0
2.0,81.0,73.0,744.0
2.0,81.0,78.0,778.0
2.0,81.0,79.0,758.0
2.0,82.0,44.0,810.0
2.0,82.0,53.0,110.0
2.0,82.0,43.0,578.0
2.0,82.0,58.0,160.0
2.0,82.0,60.0,534.0
2.0,82.0,58.0,90.0
2.0,82.0,58.0,568.0
2.0,82.0,59.0,112.0
2.0,82.0,63.0,526.0
2.0,82.0,63.0,118.0
2.0,82.0,43.0,548.0
2.0,82.0,48.0,106.0
2.0,82.0,52.0,526.0
2.0,82.0,51.0,100.0
2.0,82.0,58.0,532.0
2.0,82.0,58.0,92.0
2.0,82.0,60.0,492.0
2.0,82.0,58.0,98.0
2.0,82.0,60.0,522.0
2.0,82.0,58.0,92.0
2.0,82.0,67.0,526.0
2.0,82.0,62.0,84.0
2.0,82.0,50.0,536.0
2.0,82.0,51.0,88.0
2.0,82.0,60.0,530.0
2.0,82.0,46.0,82.0
2.0,82.0,57.0,538.0
2.0,82.0,54.0,92.0
2.0,82.0,60.0,490.0
2.0,82.0,53.0,100.0
2.0,82.0,58.0,544.0
2.0,82.0,61.0,102.0
2.0,82.0,59.0,518.0
2.0,82.0,58.0,100.0
2.0,82.0,57.0,538.0
2.0,82.0,53.0,100.0
2.0,82.0,61.0,528.0
2.0,82.0,57.0,84.0
2.0,82.0,58.0,520.0
2.0,82.0,45.0,72.0
2.0,82.0,48.0,476.0
2.0,82.0,51.0,84.0
2.0,82.0,55.0,550.0
2.0,82.0,53.0,88.0
2.0,82.0,54.0,524.0
2.0,82.0,55.0,100.0
2.0,82.0,60.0,520.0
2.0,82.0,55.0,96.0
2.0,82.0,57.0,518.0
2.0,82.0,57.0,96.0
2.0,82.0,55.0,508.0
2.0,82.0,43.0,104.0
2.0,82.0,59.0,528.0
2.0,82.0,60.0,88.0
2.0,82.0,60.0,534.0
2.0,82.0,55.0,88.0
2.0,82.0,60.0,512.0
2.0,82.0,57.0,104.0
2.0,82.0,62.0,488.0
2.0,82.0,61.0,128.0
2.0,84.0,51.0,1084.0
0.0,0.0,0.0,0.0
0.0,0.0,0.0,0.0
0.0,0.0,0.0,0.0
0.0,0.0,0.0,0.0
0.0,0.0,0.0,0.0
0.0,0.0,0.0,0.0
0.0,0.0,0.0,0.0
0.0,0.0,0.0,0.0
0.0,0.0,0.0,0.0
0.0,0.0,0.0,0.0
0.0,0.0,0.0,0.0
0.0,0.0,0.0,0.0
0.0,0.0,0.0,0.0
0.0,0.0,0.0,0.0
0.0,0.0,0.0,0.0
0.0,0.0,0.0,0.0
0.0,0.0,0.0,0.0
0.0,0.0,0.0,0.0
0.0,0.0,0.0,0.0
0.0,0.0,0.0,0.0
0.0,0.0,0.0,0.0
0.0,0.0,0.0,0.0
0.0,0.0,0.0,0.0
0.0,0.0,0.0,0.0
0.0,0.0,0.0,0.0
0.0,0.0,0.0,0.0
0.0,0.0,0.0,0.0
0.0,0.0,0.0,0.0
0.0,0.0,0.0,0.0
0.0,0.0,0.0,0.0
0.0,0.0,0.0,0.0
0.0,0.0,0.0,0.0
0.0,0.0,0.0,0.0
0.0,0.0,0.0,0.0
0.0,0.0,0.0,0.0
0.0,0.0,0.0,0.0
0.0,0.0,0.0,0.0
0.0,0.0,0.0,0.0
0.0,0.0,0.0,0.0
0.0,0.0,0.0,0.0
0.0,0.0,0.0,0.0
0.0,0.0,0.0,0.0
0.0,0.0,0.0,0.0
0.0,0.0,0.0,0.0
0.0,0.0,0.0,0.0
0.0,0.0,0.0,0.0
0.0,0.0,0.0,0.0
0.0,0.0,0.0,0.0
0.0,0.0,0.0,0.0
0.0,0.0,0.0,0.0
0.0,0.0,0.0,0.0
0.0,0.0,0.0,0.0
0.0,0.0,0.0,0.0
0.0,0.0,0.0,0.0
0.0,0.0,0.0,0.0
0.0,0.0,0.0,0.0
0.0,0.0,0.0,0.0
0.0,0.0,0.0,0.0
0.0,0.0,0.0,0.0
0.0,0.0,0.0,0.0
0.0,0.0,0.0,0.0
0.0,0.0,0.0,0.0
0.0,0.0,0.0,0.0
0.0,0.0,0.0,0.0
0.0,0.0,0.0,0.0
0.0,0.0,0.0,0.0
0.0,0.0,0.0,0.0
0.0,0.0,0.0,0.0
0.0,0.0,0.0,0.0
0.0,0.0,0.0,0.0
0.0,0.0,0.0,0.0
0.0,0.0,0.0,0.0
0.0,0.0,0.0,0.0
0.0,0.0,0.0,0.0
0.0,0.0,0.0,0.0
0.0,0.0,0.0,0.0
0.0,0.0,0.0,0.0
0.0,0.0,0.0,0.0
0.0,0.0,0.0,0.0
0.0,0.0,0.0,0.0
0.0,0.0,0.0,0.0
0.0,0.0,0.0,0.0
0.0,0.0,0.0,0.0
0.0,0.0,0.0,0.0
0.0,0.0,0.0,0.0
0.0,0.0,0.0,0.0
0.0,0.0,0.0,0.0
0.0,0.0,0.0,0.0
0.0,0.0,0.0,0.0
0.0,0.0,0.0,0.0
0.0,0.0,0.0,0.0
0.0,0.0,0.0,0.0
0.0,0.0,0.0,0.0
0.0,0.0,0.0,0.0
0.0,0.0,0.0,0.0
0.0,0.0,0.0,0.0
0.0,0.0,0.0,0.0
0.0,0.0,0.0,0.0
0.0,0.0,0.0,0.0
0.0,0.0,0.0,0.0
0.0,0.0,0.0,0.0
0.0,0.0,0.0,0.0
0.0,0.0,0.0,0.0
0.0,0.0,0.0,0.0
0.0,0.0,0.0,0.0
0.0,0.0,0.0,0.0
0.0,0.0,0.0,0.0
0.0,0.0,0.0,0.0
0.0,0.0,0.0,0.0
0.0,0.0,0.0,0.0
0.0,0.0,0.0,0.0
0.0,0.0,0.0,0.0
0.0,0.0,0.0,0.0
0.0,0.0,0.0,0.0
0.0,0.0,0.0,0.0
0.0,0.0,0.0,0.0
0.0,0.0,0.0,0.0
0.0,0.0,0.0,0.0
0.0,0.0,0.0,0.0
0.0,0.0,0.0,0.0
0.0,0.0,0.0,0.0
0.0,0.0,0.0,0.0
0.0,0.0,0.0,0.0
0.0,0.0,0.0,0.0
0.0,0.0,0.0,0.0
0.0,0.0,0.0,0.0
0.0,0.0,0.0,0.0
0.0,0.0,0.0,0.0
0.0,0.0,0.0,0.0
0.0,0.0,0.0,0.0
0.0,0.0,0.0,0.0
0.0,0.0,0.0,0.0
0.0,0.0,0.0,0.0
0.0,0.0,0.0,0.0
0.0,0.0,0.0,0.0
0.0,0.0,0.0,0.0
0.0,0.0,0.0,0.0
0.0,0.0,0.0,0.0
0.0,0.0,0.0,0.0
0.0,0.0,0.0,0.0
0.0,0.0,0.0,0.0
0.0,0.0,0.0,0.0
0.0,0.0,0.0,0.0
0.0,0.0,0.0,0.0
0.0,0.0,0.0,0.0
0.0,0.0,0.0,0.0
0.0,0.0,0.0,0.0
0.0,0.0,0.0,0.0
0.0,0.0,0.0,0.0
0.0,0.0,0.0,0.0
0.0,0.0,0.0,0.0
0.0,0.0,0.0,0.0
0.0,0.0,0.0,0.0
0.0,0.0,0.0,0.0
0.0,0.0,0.0,0.0
0.0,0.0,0.0,0.0
0.0,0.0,0.0,0.0
0.0,0.0,0.0,0.0
0.0,0.0,0.0,0.0
0.0,0.0,0.0,0.0
0.0,0.0,0.0,0.0
0.0,0.0,0.0,0.0
0.0,0.0,0.0,0.0
0.0,0.0,0.0,0.0
0.0,0.0,0.0,0.0
0.0,0.0,0.0,0.0
0.0,0.0,0.0,0.0
0.0,0.0,0.0,0.0
0.0,0.0,0.0,0.0
0.0,0.0,0.0,0.0
0.0,0.0,0.0,0.0
0.0,0.0,0.0,0.0
0.0,0.0,0.0,0.0
0.0,0.0,0.0,0.0
0.0,0.0,0.0,0.0
0.0,0.0,0.0,0.0
0.0,0.0,0.0,0.0
0.0,0.0,0.0,0.0
0.0,0.0,0.0,0.0
0.0,0.0,0.0,0.0
0.0,0.0,0.0,0.0
0.0,0.0,0.0,0.0
0.0,0.0,0.0,0.0
0.0,0.0,0.0,0.0
0.0,0.0,0.0,0.0
0.0,0.0,0.0,0.0
0.0,0.0,0.0,0.0
0.0,0.0,0.0,0.0
0.0,0.0,0.0,0.0
0.0,0.0,0.0,0.0
0.0,0.0,0.0,0.0
0.0,0.0,0.0,0.0
0.0,0.0,0.0,0.0
0.0,0.0,0.0,0.0
0.0,0.0,0.0,0.0
0.0,0.0,0.0,0.0
0.0,0.0,0.0,0.0
0.0,0.0,0.0,0.0
0.0,0.0,0.0,0.0
0.0,0.0,0.0,0.0
0.0,0.0,0.0,0.0
0.0,0.0,0.0,0.0
0.0,0.0,0.0,0.0
0.0,0.0,0.0,0.0
0.0,0.0,0.0,0.0
0.0,0.0,0.0,0.0
0.0,0.0,0.0,0.0
0.0,0.0,0.0,0.0
0.0,0.0,0.0,0.0
0.0,0.0,0.0,0.0
0.0,0.0,0.0,0.0
0.0,0.0,0.0,0.0
0.0,0.0,0.0,0.0
0.0,0.0,0.0,0.0
0.0,0.0,0.0,0.0
0.0,0.0,0.0,0.0
0.0,0.0,0.0,0.0
0.0,0.0,0.0,0.0
0.0,0.0,0.0,0.0
0.0,0.0,0.0,0.0
0.0,0.0,0.0,0.0
0.0,0.0,0.0,0.0
0.0,0.0,0.0,0.0
0.0,0.0,0.0,0.0
0.0,0.0,0.0,0.0
0.0,0.0,0.0,0.0
0.0,0.0,0.0,0.0
0.0,0.0,0.0,0.0
0.0,0.0,0.0,0.0
0.0,0.0,0.0,0.0
0.0,0.0,0.0,0.0
0.0,0.0,0.0,0.0
0.0,0.0,0.0,0.0
0.0,0.0,0.0,0.0
0.0,0.0,0.0,0.0
0.0,0.0,0.0,0.0
0.0,0.0,0.0,0.0
0.0,0.0,0.0,0.0
0.0,0.0,0.0,0.0
0.0,0.0,0.0,0.0
0.0,0.0,0.0,0.0
0.0,0.0,0.0,0.0
0.0,0.0,0.0,0.0
0.0,0.0,0.0,0.0
0.0,0.0,0.0,0.0
0.0,0.0,0.0,0.0
0.0,0.0,0.0,0.0
0.0,0.0,0.0,0.0
0.0,0.0,0.0,0.0
0.0,0.0,0.0,0.0
0.0,0.0,0.0,0.0
0.0,0.0,0.0,0.0
0.0,0.0,0.0,0.0
0.0,0.0,0.0,0.0
0.0,0.0,0.0,0.0
0.0,0.0,0.0,0.0
0.0,0.0,0.0,0.0
0.0,0.0,0.0,0.0
0.0,0.0,0.0,0.0
0.0,0.0,0.0,0.0
0.0,0.0,0.0,0.0
0.0,0.0,0.0,0.0
0.0,0.0,0.0,0.0
0.0,0.0,0.0,0.0
0.0,0.0,0.0,0.0
0.0,0.0,0.0,0.0
0.0,0.0,0.0,0.0
0.0,0.0,0.0,0.0
0.0,0.0,0.0,0.0
0.0,0.0,0.0,0.0
0.0,0.0,0.0,0.0
0.0,0.0,0.0,0.0
0.0,0.0,0.0,0.0
0.0,0.0,0.0,0.0
0.0,0.0,0.0,0.0
0.0,0.0,0.0,0.0
0.0,0.0,0.0,0.0
0.0,0.0,0.0,0.0
0.0,0.0,0.0,0.0
0.0,0.0,0.0,0.0
0.0,0.0,0.0,0.0
0.0,0.0,0.0,0.0
0.0,0.0,0.0,0.0
0.0,0.0,0.0,0.0
0.0,0.0,0.0,0.0
0.0,0.0,0.0,0.0
0.0,0.0,0.0,0.0
0.0,0.0,0.0,0.0
0.0,0.0,0.0,0.0
0.0,0.0,0.0,0.0
0.0,0.0,0.0,0.0
0.0,0.0,0.0,0.0
0.0,0.0,0.0,0.0
0.0,0.0,0.0,0.0
0.0,0.0,0.0,0.0
0.0,0.0,0.0,0.0
0.0,0.0,0.0,0.0
0.0,0.0,0.0,0.0
0.0,0.0,0.0,0.0
0.0,0.0,0.0,0.0
0.0,0.0,0.0,0.0
0.0,0.0,0.0,0.0
0.0,0.0,0.0,0.0
0.0,0.0,0.0,0.0
0.0,0.0,0.0,0.0
0.0,0.0,0.0,0.0
0.0,0.0,0.0,0.0
0.0,0.0,0.0,0.0
0.0,0.0,0.0,0.0
0.0,0.0,0.0,0.0
0.0,0.0,0.0,0.0
0.0,0.0,0.0,0.0
0.0,0.0,0.0,0.0
0.0,0.0,0.0,0.0
0.0,0.0,0.0,0.0
0.0,0.0,0.0,0.0
0.0,0.0,0.0,0.0
0.0,0.0,0.0,0.0
0.0,0.0,0.0,0.0
0.0,0.0,0.0,0.0
0.0,0.0,0.0,0.0
0.0,0.0,0.0,0.0
0.0,0.0,0.0,0.0
0.0,0.0,0.0,0.0
0.0,0.0,0.0,0.0
0.0,0.0,0.0,0.0
0.0,0.0,0.0,0.0
0.0,0.0,0.0,0.0
0.0,0.0,0.0,0.0
0.0,0.0,0.0,0.0
0.0,0.0,0.0,0.0
0.0,0.0,0.0,0.0
0.0,0.0,0.0,0.0
0.0,0.0,0.0,0.0
0.0,0.0,0.0,0.0
0.0,0.0,0.0,0.0
0.0,0.0,0.0,0.0
0.0,0.0,0.0,0.0
0.0,0.0,0.0,0.0
0.0,0.0,0.0,0.0
0.0,0.0,0.0,0.0
0.0,0.0,0.0,0.0
0.0,0.0,0.0,0.0
0.0,0.0,0.0,0.0
0.0,0.0,0.0,0.0
0.0,0.0,0.0,0.0
0.0,0.0,0.0,0.0
0.0,0.0,0.0,0.0
0.0,0.0,0.0,0.0
0.0,0.0,0.0,0.0
