track,note,velocity,time
1,67,90,384
1,62,90,0
1,59,90,0
1,67,90,768
1,62,90,0
1,59,90,0
1,65,90,384
1,60,90,0
1,57,90,0
1,64,90,384
1,60,90,0
1,55,90,0
1,67,90,768
1,62,90,0
1,59,90,0
1,67,90,768
1,62,90,0
1,59,90,0
1,65,90,384
1,60,90,0
1,57,90,0
1,64,90,384
1,60,90,0
1,55,90,0
1,67,90,768
1,62,90,0
1,59,90,0
1,67,90,768
1,62,90,0
1,59,90,0
1,65,90,384
1,60,90,0
1,57,90,0
1,64,90,384
1,60,90,0
1,55,90,0
1,67,90,768
1,62,90,0
1,59,90,0
1,67,90,768
1,62,90,0
1,59,90,0
1,65,90,384
1,60,90,0
1,57,90,0
1,64,90,384
1,60,90,0
1,55,90,0
1,67,90,768
1,62,90,0
1,59,90,0
1,67,90,768
1,62,90,0
1,59,90,0
1,65,90,384
1,60,90,0
1,57,90,0
1,64,90,384
1,60,90,0
1,55,90,0
1,67,90,0
1,62,90,0
1,67,90,0
1,62,90,0
1,67,90,384
1,62,90,0
1,59,90,0
1,67,90,768
1,62,90,0
1,59,90,0
1,65,90,384
1,60,90,0
1,57,90,0
1,64,90,384
1,60,90,0
1,55,90,0
1,67,90,768
1,62,90,0
1,59,90,0
1,67,90,768
1,62,90,0
1,59,90,0
1,65,90,384
1,60,90,0
1,57,90,0
1,64,90,384
1,60,90,0
1,55,90,0
1,72,90,576
1,75,90,0
1,72,90,0
1,67,90,0
1,72,90,0
1,75,90,0
1,72,90,0
1,67,90,0
1,72,90,0
1,65,90,192
1,74,90,0
1,70,90,0
1,65,90,0
1,72,90,192
1,69,90,0
1,65,90,0
1,75,90,576
1,72,90,0
1,79,90,0
1,75,90,0
1,75,90,0
1,72,90,0
1,79,90,0
1,75,90,0
1,75,90,0
1,72,90,0
1,65,90,192
1,74,90,0
1,70,90,0
1,65,90,0
1,72,90,192
1,69,90,0
1,65,90,0
1,72,90,576
1,75,90,0
1,72,90,0
1,67,90,0
1,72,90,0
1,75,90,0
1,72,90,0
1,67,90,0
1,72,90,0
1,65,90,192
1,74,90,0
1,70,90,0
1,65,90,0
1,72,90,192
1,69,90,0
1,65,90,0
1,75,90,576
1,72,90,0
1,79,90,0
1,75,90,0
1,75,90,0
1,72,90,0
1,79,90,0
1,75,90,0
1,75,90,0
1,72,90,0
1,65,90,192
1,74,90,0
1,70,90,0
1,65,90,0
1,72,90,192
1,69,90,0
1,65,90,0
1,74,90,576
1,79,90,0
1,74,90,0
1,71,90,0
1,74,90,0
1,79,90,0
1,74,90,0
1,71,90,0
1,74,90,0
1,79,90,384
1,74,90,0
1,71,90,0
1,79,90,0
1,74,90,0
1,71,90,0
1,67,90,384
1,62,90,0
1,59,90,0
1,67,90,768
1,62,90,0
1,59,90,0
1,65,90,384
1,60,90,0
1,57,90,0
1,64,90,384
1,60,90,0
1,55,90,0
1,67,90,768
1,62,90,0
1,59,90,0
1,67,90,768
1,62,90,0
1,59,90,0
1,65,90,384
1,60,90,0
1,57,90,0
1,64,90,384
1,60,90,0
1,55,90,0
1,67,90,768
1,62,90,0
1,59,90,0
1,67,90,768
1,62,90,0
1,59,90,0
1,65,90,384
1,60,90,0
1,57,90,0
1,64,90,384
1,60,90,0
1,55,90,0
1,67,90,768
1,62,90,0
1,59,90,0
1,67,90,768
1,62,90,0
1,59,90,0
1,65,90,384
1,60,90,0
1,57,90,0
1,64,90,384
1,60,90,0
1,55,90,0
1,67,90,768
1,62,90,0
1,59,90,0
1,67,90,768
1,62,90,0
1,59,90,0
1,65,90,384
1,60,90,0
1,57,90,0
1,64,90,384
1,60,90,0
1,55,90,0
1,67,90,768
1,62,90,0
1,59,90,0
1,67,90,768
1,62,90,0
1,59,90,0
1,65,90,384
1,60,90,0
1,57,90,0
1,64,90,384
1,60,90,0
1,55,90,0
1,67,90,0
1,62,90,0
1,67,90,0
1,62,90,0
1,67,90,384
1,62,90,0
1,59,90,0
1,67,90,768
1,62,90,0
1,59,90,0
1,65,90,384
1,60,90,0
1,57,90,0
1,64,90,384
1,60,90,0
1,55,90,0
1,67,90,768
1,62,90,0
1,59,90,0
1,67,90,768
1,62,90,0
1,59,90,0
1,65,90,384
1,60,90,0
1,57,90,0
1,64,90,384
1,60,90,0
1,55,90,0
1,72,90,576
1,75,90,0
1,72,90,0
1,67,90,0
1,72,90,0
1,75,90,0
1,72,90,0
1,67,90,0
1,72,90,0
1,65,90,192
1,74,90,0
1,70,90,0
1,65,90,0
1,72,90,192
1,69,90,0
1,65,90,0
1,75,90,576
1,72,90,0
1,79,90,0
1,75,90,0
1,75,90,0
1,72,90,0
1,79,90,0
1,75,90,0
1,75,90,0
1,72,90,0
1,65,90,192
1,74,90,0
1,70,90,0
1,65,90,0
1,72,90,192
1,69,90,0
1,65,90,0
1,72,90,576
1,75,90,0
1,72,90,0
1,67,90,0
1,72,90,0
1,75,90,0
1,72,90,0
1,67,90,0
1,72,90,0
1,65,90,192
1,74,90,0
1,70,90,0
1,65,90,0
1,72,90,192
1,69,90,0
1,65,90,0
1,75,90,576
1,72,90,0
1,79,90,0
1,75,90,0
1,75,90,0
1,72,90,0
1,79,90,0
1,75,90,0
1,75,90,0
1,72,90,0
1,65,90,192
1,74,90,0
1,70,90,0
1,65,90,0
1,72,90,192
1,69,90,0
1,65,90,0
1,74,90,576
1,79,90,0
1,74,90,0
1,71,90,0
1,74,90,0
1,79,90,0
1,74,90,0
1,71,90,0
1,74,90,0
1,79,90,384
1,74,90,0
1,71,90,0
1,79,90,0
1,74,90,0
1,71,90,0
1,67,90,20352
1,62,90,0
1,59,90,0
1,67,90,768
1,62,90,0
1,59,90,0
1,65,90,384
1,60,90,0
1,57,90,0
1,64,90,384
1,60,90,0
1,55,90,0
1,67,90,768
1,62,90,0
1,59,90,0
1,67,90,768
1,62,90,0
1,59,90,0
1,65,90,384
1,60,90,0
1,57,90,0
1,64,90,384
1,60,90,0
1,55,90,0
1,67,90,768
1,62,90,0
1,59,90,0
1,67,90,768
1,62,90,0
1,59,90,0
1,65,90,384
1,60,90,0
1,57,90,0
1,64,90,384
1,60,90,0
1,55,90,0
1,67,90,768
1,62,90,0
1,59,90,0
1,67,90,768
1,62,90,0
1,59,90,0
1,65,90,384
1,60,90,0
1,57,90,0
1,64,90,384
1,60,90,0
1,55,90,0
1,67,90,768
1,62,90,0
1,59,90,0
1,67,90,768
1,62,90,0
1,59,90,0
1,65,90,384
1,60,90,0
1,57,90,0
1,64,90,384
1,60,90,0
1,55,90,0
1,67,90,768
1,62,90,0
1,59,90,0
1,67,90,768
1,62,90,0
1,59,90,0
1,65,90,384
1,60,90,0
1,57,90,0
1,64,90,384
1,60,90,0
1,55,90,0
1,67,90,768
1,62,90,0
1,59,90,0
1,67,90,768
1,62,90,0
1,59,90,0
1,65,90,384
1,60,90,0
1,57,90,0
1,64,90,384
1,60,90,0
1,55,90,0
1,67,90,768
1,62,90,0
1,59,90,0
1,67,90,768
1,62,90,0
1,59,90,0
1,65,90,384
1,60,90,0
1,57,90,0
1,64,90,384
1,60,90,0
1,55,90,0
1,67,90,768
1,62,90,0
1,59,90,0
1,67,90,768
1,62,90,0
1,59,90,0
1,65,90,384
1,60,90,0
1,57,90,0
1,64,90,384
1,60,90,0
1,55,90,0
1,67,90,768
1,62,90,0
1,59,90,0
1,67,90,768
1,62,90,0
1,59,90,0
1,65,90,384
1,60,90,0
1,57,90,0
1,64,90,384
1,60,90,0
1,55,90,0
1,67,90,768
1,62,90,0
1,59,90,0
1,67,90,768
1,62,90,0
1,59,90,0
1,65,90,384
1,60,90,0
1,57,90,0
1,64,90,384
1,60,90,0
1,55,90,0
1,67,90,768
1,62,90,0
1,59,90,0
1,67,90,768
1,62,90,0
1,59,90,0
1,65,90,384
1,60,90,0
1,57,90,0
1,64,90,384
1,60,90,0
1,55,90,0
1,67,90,768
1,62,90,0
1,59,90,0
1,67,90,768
1,62,90,0
1,59,90,0
1,65,90,384
1,60,90,0
1,57,90,0
1,64,90,384
1,60,90,0
1,55,90,0
1,67,90,768
1,62,90,0
1,59,90,0
1,67,90,768
1,62,90,0
1,59,90,0
1,65,90,384
1,60,90,0
1,57,90,0
1,64,90,384
1,60,90,0
1,55,90,0
1,67,90,768
1,62,90,0
1,59,90,0
1,67,90,768
1,62,90,0
1,59,90,0
1,65,90,384
1,60,90,0
1,57,90,0
1,64,90,384
1,60,90,0
1,55,90,0
1,67,90,768
1,62,90,0
1,59,90,0
1,67,90,768
1,62,90,0
1,59,90,0
1,65,90,384
1,60,90,0
1,57,90,0
1,64,90,384
1,60,90,0
1,55,90,0
1,67,90,768
1,62,90,0
1,59,90,0
1,67,90,768
1,62,90,0
1,59,90,0
1,65,90,384
1,60,90,0
1,57,90,0
1,64,90,384
1,60,90,0
1,55,90,0
1,67,90,768
1,62,90,0
1,59,90,0
1,67,90,768
1,62,90,0
1,59,90,0
1,65,90,384
1,60,90,0
1,57,90,0
1,64,90,384
1,60,90,0
1,55,90,0
1,67,90,768
1,62,90,0
1,59,90,0
1,67,90,768
1,62,90,0
1,59,90,0
1,65,90,384
1,60,90,0
1,57,90,0
1,64,90,384
1,60,90,0
1,55,90,0
1,67,90,768
1,62,90,0
1,59,90,0
1,67,90,768
1,62,90,0
1,59,90,0
1,65,90,384
1,60,90,0
1,57,90,0
1,64,90,384
1,60,90,0
1,55,90,0
2,31,94,14288
2,33,94,1536
2,29,94,1488
2,31,94,720
2,36,94,720
2,31,94,1488
2,33,94,1488
2,29,94,1488
2,31,94,720
2,36,94,720
2,31,94,1488
2,29,94,1488
2,29,94,1104
2,26,94,336
3,79,100,137856
3,74,100,0
3,77,100,0
3,77,100,0
3,72,100,0
3,76,100,0
3,76,100,0
3,72,100,0
3,74,100,0
3,79,100,768
3,74,100,0
3,77,100,0
3,77,100,0
3,72,100,0
3,76,100,0
3,76,100,0
3,72,100,0
3,74,100,0
3,79,100,768
3,74,100,0
3,77,100,0
3,77,100,0
3,72,100,0
3,76,100,0
3,76,100,0
3,72,100,0
3,74,100,0
3,79,100,768
3,74,100,0
3,77,100,0
3,77,100,0
3,72,100,0
3,76,100,0
3,76,100,0
3,72,100,0
3,74,100,0
3,79,100,768
3,74,100,0
3,77,100,0
3,77,100,0
3,72,100,0
3,76,100,0
3,76,100,0
3,72,100,0
3,74,100,0
3,79,100,768
3,74,100,0
3,77,100,0
3,77,100,0
3,72,100,0
3,76,100,0
3,76,100,0
3,72,100,0
3,74,100,0
3,79,100,768
3,74,100,0
3,77,100,0
3,77,100,0
3,72,100,0
3,76,100,0
3,76,100,0
3,72,100,0
3,74,100,0
3,71,100,16
3,77,100,0
3,72,100,0
3,76,100,0
3,71,100,0
3,77,100,0
3,72,100,0
3,76,100,0
3,74,100,0
3,77,100,16
3,72,100,0
3,76,100,0
3,71,100,0
3,77,100,0
3,72,100,0
3,76,100,0
3,72,100,0
4,67,100,9216
4,71,100,0
4,67,100,0
4,67,100,0
4,67,100,0
4,71,100,0
4,67,100,0
4,67,100,0
4,67,100,0
4,72,100,0
4,72,100,0
4,72,100,0
4,72,100,0
4,67,100,0
4,67,100,0
4,67,100,0
4,71,100,0
4,67,100,0
4,67,100,0
4,67,100,0
4,71,100,0
4,67,100,0
4,67,100,0
4,67,100,0
4,72,100,0
4,72,100,0
4,72,100,0
4,72,100,0
4,67,100,0
4,67,100,0
4,67,100,0
4,71,100,0
4,67,100,0
4,67,100,0
4,67,100,0
4,71,100,0
4,67,100,0
4,67,100,0
4,67,100,0
4,72,100,0
4,72,100,0
4,72,100,0
4,72,100,0
4,67,100,0
4,67,100,0
4,67,100,0
4,71,100,0
4,67,100,0
4,67,100,0
4,67,100,0
4,71,100,0
4,67,100,0
4,67,100,0
4,67,100,0
4,72,100,0
4,72,100,0
4,72,100,0
4,72,100,0
4,75,100,768
4,75,100,192
4,74,100,576
4,72,100,192
4,75,100,768
4,75,100,192
4,74,100,576
4,72,100,192
4,75,100,768
4,75,100,192
4,74,100,576
4,72,100,192
4,75,100,768
4,75,100,192
4,74,100,576
4,72,100,192
4,74,100,768
4,74,100,192
4,74,100,576
4,74,100,0
4,67,100,12672
4,71,100,0
4,67,100,0
4,67,100,0
4,67,100,0
4,71,100,0
4,67,100,0
4,67,100,0
4,67,100,0
4,72,100,0
4,72,100,0
4,72,100,0
4,72,100,0
4,67,100,0
4,67,100,0
4,67,100,0
4,71,100,0
4,67,100,0
4,67,100,0
4,67,100,0
4,71,100,0
4,67,100,0
4,67,100,0
4,67,100,0
4,72,100,0
4,72,100,0
4,72,100,0
4,72,100,0
4,67,100,0
4,67,100,0
4,67,100,0
4,71,100,0
4,67,100,0
4,67,100,0
4,67,100,0
4,71,100,0
4,67,100,0
4,67,100,0
4,67,100,0
4,72,100,0
4,72,100,0
4,72,100,0
4,72,100,0
4,67,100,0
4,67,100,0
4,67,100,0
4,71,100,0
4,67,100,0
4,67,100,0
4,67,100,0
4,71,100,0
4,67,100,0
4,67,100,0
4,67,100,0
4,72,100,0
4,72,100,0
4,72,100,0
4,72,100,0
4,75,100,768
4,75,100,192
4,74,100,576
4,72,100,192
4,75,100,768
4,75,100,192
4,74,100,576
4,72,100,192
4,75,100,768
4,75,100,192
4,74,100,576
4,72,100,192
4,75,100,768
4,75,100,192
4,74,100,576
4,72,100,192
4,74,100,768
4,74,100,192
4,74,100,576
4,74,100,0
4,67,100,4608
4,65,100,0
4,67,100,4608
4,65,100,0
4,67,90,19968
4,71,90,0
4,67,90,0
4,67,90,0
4,67,90,0
4,71,90,0
4,67,90,0
4,67,90,0
4,67,90,0
4,72,90,0
4,72,90,0
4,72,90,0
4,72,90,0
4,67,90,0
4,67,90,0
4,67,90,0
4,71,90,0
4,67,90,0
4,67,90,0
4,67,90,0
4,71,90,0
4,67,90,0
4,67,90,0
4,67,90,0
4,72,90,0
4,72,90,0
4,72,90,0
4,72,90,0
4,67,90,0
4,67,90,0
4,67,90,0
4,71,90,0
4,67,90,0
4,67,90,0
4,67,90,0
4,71,90,0
4,67,90,0
4,67,90,0
4,67,90,0
4,72,90,0
4,72,90,0
4,72,90,0
4,72,90,0
4,67,90,0
4,67,90,0
4,67,90,0
4,71,90,0
4,67,90,0
4,67,90,0
4,67,90,0
4,71,90,0
4,67,90,0
4,67,90,0
4,67,90,0
4,72,90,0
4,72,90,0
4,72,90,0
4,72,90,0
4,67,90,0
4,67,90,0
4,67,90,0
4,71,90,0
4,67,90,0
4,67,90,0
4,67,90,0
4,71,90,0
4,67,90,0
4,67,90,0
4,67,90,0
4,72,90,0
4,72,90,0
4,72,90,0
4,72,90,0
4,67,90,0
4,67,90,0
4,67,90,0
4,71,90,0
4,67,90,0
4,67,90,0
4,67,90,0
4,71,90,0
4,67,90,0
4,67,90,0
4,67,90,0
4,72,90,0
4,72,90,0
4,72,90,0
4,72,90,0
4,67,90,0
4,67,90,0
4,67,90,0
4,71,90,0
4,67,90,0
4,67,90,0
4,67,90,0
4,71,90,0
4,67,90,0
4,67,90,0
4,67,90,0
4,72,90,0
4,72,90,0
4,72,90,0
4,72,90,0
4,67,90,0
4,67,90,0
4,67,90,0
4,71,90,0
4,67,90,0
4,67,90,0
4,67,90,0
4,71,90,0
4,67,90,0
4,67,90,0
4,67,90,0
4,72,90,0
4,72,90,0
4,72,90,0
4,72,90,0
4,67,90,0
4,67,90,0
4,67,90,0
4,71,90,0
4,67,90,0
4,67,90,0
4,67,90,0
4,71,90,0
4,67,90,0
4,67,90,0
4,67,90,0
4,72,90,0
4,72,90,0
4,72,90,0
4,72,90,0
4,67,90,0
4,67,90,0
4,67,90,0
4,71,90,0
4,67,90,0
4,67,90,0
4,67,90,0
4,71,90,0
4,67,90,0
4,67,90,0
4,67,90,0
4,72,90,0
4,72,90,0
4,72,90,0
4,72,90,0
4,67,90,0
4,67,90,0
4,67,90,0
4,71,90,0
4,67,90,0
4,67,90,0
4,67,90,0
4,71,90,0
