track,note,velocity,time
1,57,70,419
1,65,77,1
1,60,75,1
1,60,0,14
1,57,0,4
1,65,0,1
1,57,68,42
1,60,67,1
1,65,77,2
1,65,0,98
1,60,0,1
1,57,0,1
1,57,77,20
1,60,83,1
1,65,83,2
1,57,0,105
1,60,0,2
1,65,0,5
1,60,66,177
1,69,79,0
1,65,80,0
1,65,0,18
1,60,0,0
1,69,0,1
1,70,72,43
1,65,79,2
1,62,71,0
1,70,0,234
1,62,0,4
1,65,0,1
1,57,75,176
1,60,77,1
1,65,76,0
1,60,0,14
1,65,0,2
1,57,0,1
1,57,78,46
1,60,80,0
1,65,80,0
1,57,0,100
1,60,0,1
1,65,0,2
1,65,78,18
1,60,78,0
1,57,78,0
1,57,0,118
1,60,0,0
1,65,0,6
1,60,66,176
1,69,78,2
1,65,86,0
1,60,0,16
1,69,0,3
1,65,0,1
1,62,67,45
1,65,80,0
1,70,83,0
1,70,0,233
1,65,0,0
1,62,0,5
1,57,74,170
1,60,76,2
1,65,71,0
1,65,0,22
1,60,0,0
1,57,0,1
1,57,77,40
1,60,83,0
1,65,81,0
1,65,0,99
1,60,0,0
1,57,0,1
1,60,86,19
1,57,83,0
1,65,85,2
1,60,0,120
1,57,0,1
1,65,0,3
2,41,87,486
2,41,0,21
2,41,96,35
2,41,0,23
2,41,96,36
2,41,0,22
2,41,92,36
2,41,0,23
2,41,93,35
2,41,0,21
2,41,93,34
2,41,0,25
2,41,90,38
2,41,0,22
2,41,95,35
2,41,0,23
2,41,93,40
2,41,0,21
2,41,94,37
2,41,0,24
2,41,93,38
2,41,0,24
2,41,90,32
2,41,0,26
2,41,96,36
2,41,0,23
2,41,94,39
2,41,0,26
2,41,88,34
2,41,0,21
2,41,92,37
2,41,0,25
2,41,95,38
2,41,0,25
2,41,89,35
2,41,0,23
2,41,96,40
2,41,0,26
2,41,93,38
2,41,0,25
2,41,89,36
2,41,0,24
2,41,89,30
2,41,0,20
2,41,92,38
2,41,0,20
2,41,93,37
2,41,0,19
2,41,93,41
2,41,0,22
2,41,92,41
2,41,0,20
2,41,94,38
2,41,0,22
2,41,93,35
2,41,0,22
2,41,86,39
2,41,0,22
2,41,88,36
2,41,0,21
2,41,96,41
2,41,0,21
2,41,89,39
2,41,0,18
2,41,89,42
2,41,0,20
2,41,90,41
2,41,0,16
2,41,95,47
2,41,0,17
2,41,92,46
2,41,0,17
2,41,93,47
2,41,0,16
2,41,94,37
2,41,0,19
2,41,96,41
2,41,0,20
2,41,95,36
2,41,0,20
2,41,97,39
2,41,0,14
3,77,82,2989
3,77,0,98
3,77,94,19
3,84,71,116
3,77,0,7
3,84,0,102
3,84,84,15
3,84,0,285
3,81,90,85
3,82,75,120
3,81,0,6
3,81,85,160
3,82,0,4
3,81,0,59
3,77,84,3
3,77,0,489
3,81,86,179
3,82,76,59
3,81,0,7
3,82,0,101
3,82,87,14
3,82,0,129
3,81,89,1
3,81,0,225
3,77,81,1
3,77,0,212
3,77,82,24
3,77,0,359
3,72,76,4
3,72,0,93
3,72,90,21
3,75,86,64
3,72,0,2
3,74,82,118
3,75,0,5
3,74,0,61
3,72,80,0
3,72,0,909
3,62,66,50
3,69,58,3
3,65,66,0
3,69,0,203
3,62,0,2
3,65,0,1
3,70,73,16
3,62,68,2
3,65,76,0
3,62,0,68
3,65,0,3
3,70,0,2
3,67,78,2
3,64,69,1
3,72,77,0
3,67,0,100
3,67,86,14
3,72,0,8
3,69,81,53
3,67,0,7
3,64,0,2
3,69,0,29
3,65,78,4
3,69,66,1
3,60,69,1
3,60,0,7
3,69,0,4
3,65,0,0
3,61,76,100
3,65,81,0
3,70,78,3
3,70,0,61
3,65,0,4
3,61,0,0
3,70,85,3
3,62,84,0
3,65,86,0
3,65,0,31
3,62,0,0
3,70,0,0
3,67,71,1
3,64,72,0
3,72,84,3
3,72,0,103
3,67,0,1
3,64,0,2
3,62,60,210
3,65,66,0
3,69,71,0
3,69,0,21
3,69,81,2
3,69,0,57
3,70,68,11
3,70,0,27
3,65,0,0
3,62,0,3
3,60,70,1
3,64,77,0
3,67,75,2
3,69,78,173
3,67,0,6
3,64,0,15
3,60,0,7
3,69,0,5
3,65,88,19
3,69,83,1
3,60,79,1
3,65,0,90
3,65,102,22
3,69,0,5
3,60,0,47
3,65,0,5
3,65,81,6
3,61,82,0
3,70,79,4
3,65,0,29
3,61,0,4
3,70,0,108
3,65,76,5
3,62,81,2
3,70,96,117
3,62,0,7
3,65,0,1
3,70,0,3
3,67,86,1
3,64,84,0
3,72,87,3
3,64,0,239
3,67,0,3
3,72,0,5
3,65,95,312
3,65,0,81
3,65,96,40
3,72,83,101
3,65,0,4
3,72,0,112
3,72,89,12
3,72,0,293
3,69,86,61
3,70,83,118
3,69,0,14
3,69,87,169
3,70,0,6
3,65,83,61
3,69,0,1
3,65,0,472
3,69,80,168
3,70,86,63
3,69,0,5
3,70,0,117
3,70,86,6
3,69,87,122
3,70,0,8
3,65,84,240
3,69,0,3
3,65,0,206
3,65,87,28
3,65,0,352
3,60,85,5
3,60,0,102
3,60,86,18
3,63,86,62
3,60,0,6
3,62,82,111
3,63,0,5
3,62,0,54
3,60,76,0
3,60,0,474
3,60,85,133
3,60,0,101
3,60,86,18
3,63,87,60
3,60,0,8
3,62,86,104
3,63,0,7
3,62,0,49
3,60,82,2
3,60,0,121
3,77,76,98
3,77,0,95
3,77,86,21
3,84,75,112
3,77,0,6
3,84,0,94
3,84,79,20
3,84,0,305
3,81,80,62
3,82,70,121
3,81,0,9
3,81,79,167
3,82,0,4
3,77,82,60
3,81,0,2
3,77,0,487
3,81,80,166
3,82,72,59
3,81,0,4
3,82,0,109
3,82,81,16
3,81,81,116
3,82,0,4
3,77,81,233
3,81,0,2
3,77,0,230
3,77,78,17
3,77,0,353
3,72,86,3
3,72,0,101
3,72,80,14
3,75,82,64
3,72,0,4
3,74,75,110
3,75,0,6
3,72,78,53
3,74,0,4
3,72,0,68
3,69,54,291
3,62,45,1
3,65,45,0
3,69,0,29
3,62,0,3
3,65,0,3
3,70,59,4
3,65,68,2
3,62,45,2
3,62,0,49
3,65,0,3
3,70,0,5
3,67,62,53
3,64,66,2
3,72,70,0
3,67,0,94
3,67,88,11
3,72,0,3
3,69,80,58
3,67,0,10
3,64,0,10
3,69,0,18
3,65,73,25
3,60,58,2
3,69,72,2
3,60,0,11
3,69,0,3
3,65,0,1
3,61,64,87
3,70,77,3
3,65,68,0
3,65,0,74
3,70,0,13
3,61,0,1
3,70,78,32
3,65,76,1
3,62,78,2
3,62,0,42
3,65,0,3
3,70,0,4
3,64,64,67
3,67,65,2
3,72,76,0
3,72,0,80
3,67,0,2
3,64,0,3
3,69,62,155
3,62,59,0
3,65,67,0
3,69,0,19
3,69,93,2
3,69,0,60
3,70,78,11
3,70,0,31
3,65,0,2
3,62,0,5
3,60,66,85
3,64,78,2
3,67,74,0
3,67,0,167
3,69,84,0
3,64,0,52
3,69,0,7
3,60,0,3
3,60,68,10
3,69,86,0
3,65,86,2
3,65,0,84
3,65,94,30
3,69,0,5
3,60,0,8
3,65,0,37
3,65,86,11
3,61,86,3
3,70,87,1
3,61,0,75
3,70,0,3
3,65,0,6
3,65,89,66
3,62,92,1
3,71,100,116
3,62,0,11
3,65,0,1
3,71,0,1
3,64,85,49
3,72,85,2
3,67,87,0
3,67,0,35
3,72,0,2
3,64,0,2
3,65,95,277
3,65,0,96
3,65,93,18
3,72,80,104
3,65,0,7
3,72,0,108
3,72,87,12
3,72,0,299
3,69,80,64
3,70,81,110
3,69,0,12
3,69,80,165
3,70,0,7
3,65,83,58
3,69,0,3
3,65,0,488
3,69,79,118
3,69,0,100
3,69,86,15
3,70,76,126
3,69,0,4
3,69,82,110
3,70,0,4
3,69,0,236
3,65,72,0
3,65,0,214
3,65,83,18
3,65,0,358
3,60,85,5
3,60,0,101
3,60,84,19
3,63,89,62
3,60,0,4
3,62,87,116
3,63,0,4
3,62,0,59
3,60,86,1
3,65,83,172
3,60,0,9
3,65,0,38
3,65,89,15
3,69,86,60
3,65,0,8
3,65,87,53
3,69,0,6
3,65,0,127
3,69,89,167
3,70,82,59
3,69,0,5
3,70,0,101
3,70,90,14
3,70,0,120
3,65,86,182
3,65,0,33
3,65,90,28
3,69,87,67
3,65,0,4
3,65,92,57
3,69,0,4
3,65,0,132
3,69,83,155
3,70,87,54
3,69,0,6
3,70,0,108
3,70,86,10
3,70,0,126
3,65,66,177
3,65,0,32
3,65,82,30
3,69,81,60
3,65,0,8
3,65,85,52
3,69,0,2
3,65,0,131
3,69,81,170
3,70,79,56
3,69,0,2
3,70,0,113
3,70,87,9
3,70,0,111
3,65,83,181
3,65,0,28
3,65,83,35
3,69,87,58
3,65,0,12
3,69,0,49
3,65,88,2
3,65,0,119
3,69,83,181
3,70,92,52
3,69,0,1
3,70,0,121
3,70,93,8
3,70,0,41
3,70,100,10
3,70,0,53
3,65,96,186
3,65,0,22
3,65,95,37
3,69,86,60
3,65,0,5
3,69,0,53
3,65,92,1
3,65,0,125
3,69,83,184
3,70,96,58
3,69,0,5
3,70,0,103
3,70,87,16
3,70,0,121
3,65,79,0
3,65,0,95
4,69,100,11574
4,72,87,57
4,69,0,4
4,69,86,53
4,72,0,6
4,69,0,37
4,69,88,65
4,72,87,47
4,69,0,3
4,69,88,55
4,72,0,2
4,69,0,45
4,69,83,83
4,72,82,59
4,69,0,2
4,69,95,60
4,72,0,3
4,69,0,56
4,69,86,317
4,72,81,57
4,69,0,5
4,69,84,52
4,72,0,9
4,69,0,57
4,69,87,56
4,69,0,51
4,72,79,0
4,69,90,60
4,72,0,4
4,69,0,47
4,69,88,76
4,72,80,54
4,69,0,4
4,69,89,50
4,72,0,4
4,70,93,64
4,69,0,13
4,70,0,26
4,70,86,22
4,70,0,33
4,70,81,27
4,70,0,35
4,70,97,24
4,70,0,40
4,69,87,90
4,69,0,56
4,72,86,2
4,69,84,54
4,72,0,2
4,69,0,43
4,70,93,71
4,74,84,59
4,70,0,1
4,70,97,59
4,74,0,8
4,70,0,54
4,69,87,791
4,72,88,53
4,69,0,7
4,69,86,50
4,72,0,1
4,69,0,48
4,69,89,78
4,72,83,59
4,69,0,2
4,72,0,47
4,69,86,3
4,69,0,60
4,69,86,75
4,72,81,59
4,69,0,4
4,72,0,45
4,69,86,6
4,70,84,66
4,69,0,10
4,70,0,18
4,70,89,34
4,70,0,26
4,70,93,31
4,70,0,28
4,70,100,32
4,70,0,30
4,69,85,95
4,72,83,56
4,69,0,3
4,72,0,53
4,69,86,1
4,69,0,43
4,69,84,77
4,72,76,57
4,69,0,2
4,69,85,58
4,72,0,1
4,69,0,40
4,69,86,81
4,72,76,61
4,69,0,2
4,72,0,48
4,69,92,7
4,69,0,42
4,69,88,78
4,69,0,61
4,72,64,0
4,69,83,59
4,72,0,2
4,69,0,51
4,69,83,8478
4,72,86,56
4,69,0,7
4,69,83,51
4,72,0,5
4,69,0,43
4,69,84,68
4,72,80,53
4,69,0,3
4,72,0,55
4,69,88,0
4,69,0,46
4,69,83,74
4,72,83,59
4,69,0,4
4,72,0,51
4,69,85,3
4,69,0,70
4,69,81,316
4,72,83,53
4,69,0,3
4,69,83,57
4,72,0,7
4,69,0,40
4,69,82,69
4,72,72,59
4,69,0,4
4,69,83,54
4,72,0,3
4,69,0,48
4,69,87,69
4,69,0,59
4,72,74,1
4,69,78,54
4,72,0,2
4,70,76,64
4,69,0,12
4,70,0,22
4,70,90,28
4,70,0,31
4,70,96,27
4,70,0,30
4,70,101,30
4,70,0,36
4,69,80,86
4,69,0,56
4,72,83,2
4,69,94,58
4,72,0,6
4,69,0,36
4,70,87,85
4,74,83,47
4,70,0,1
4,70,100,59
4,74,0,10
4,70,0,50
4,70,105,491
4,70,0,24
4,70,101,31
4,70,0,24
4,70,100,32
4,70,0,22
4,70,98,34
4,70,0,29
4,69,92,93
4,72,89,60
4,69,0,2
4,72,0,53
4,69,94,3
4,69,0,42
4,69,88,93
4,69,0,57
4,72,85,1
4,72,0,53
4,69,87,3
4,69,0,41
4,69,93,92
4,72,89,53
4,69,0,3
4,72,0,53
4,69,93,1
4,70,94,60
4,69,0,4
4,70,0,24
4,70,92,32
4,70,0,23
4,70,83,35
4,70,0,26
4,70,92,33
4,70,0,28
4,69,86,98
4,72,83,57
4,69,0,3
4,72,0,53
4,69,87,1
4,69,0,39
4,69,86,82
4,72,87,64
4,69,0,2
4,72,0,54
4,69,93,4
4,69,0,42
4,69,97,91
4,72,96,55
4,69,0,3
4,72,0,48
4,69,96,2
4,69,0,57
4,70,97,5
4,70,0,25
4,70,94,33
4,70,0,22
4,70,96,38
4,70,0,19
4,70,100,36
4,70,0,23
4,69,87,92
4,72,78,54
4,69,0,2
4,72,0,56
4,69,89,2
4,69,0,38
4,69,84,80
4,72,80,60
4,69,0,3
4,72,0,54
4,69,93,3
4,69,0,43
4,69,87,87
4,72,92,54
4,69,0,3
4,72,0,48
4,69,84,5
4,70,83,67
4,69,0,9
4,70,0,17
4,70,80,32
4,70,0,23
4,70,80,39
4,70,0,22
4,70,83,37
4,70,0,27
4,69,85,82
4,72,65,63
4,69,0,3
4,72,0,50
4,69,80,4
4,69,0,47
4,69,79,75
4,72,72,60
4,69,0,5
4,72,0,60
4,69,86,4
4,69,0,41
4,69,81,80
4,72,78,64
4,69,0,5
4,72,0,48
4,69,80,3
4,70,67,66
4,69,0,14
4,70,0,12
4,70,80,33
4,70,0,23
4,70,74,38
4,70,0,23
4,70,82,38
4,70,0,29
4,69,80,89
4,72,65,61
4,69,0,4
4,72,0,51
4,69,79,4
4,69,0,38
4,69,83,83
4,72,58,61
4,69,0,1
4,72,0,60
4,69,80,0
4,69,0,43
4,69,85,82
4,72,66,60
4,69,0,4
4,72,0,42
4,69,81,7
4,70,76,61
4,69,0,5
4,70,0,21
4,70,76,30
4,70,0,23
4,70,78,37
4,70,0,23
4,70,94,40
4,70,0,26
4,69,82,94
4,72,68,58
4,69,0,3
4,72,0,55
4,69,86,4
4,69,0,40
4,69,81,74
4,69,0,58
4,72,83,0
4,72,0,53
4,69,78,3
4,69,0,42
4,69,88,90
4,69,0,58
4,72,63,4
4,72,0,45
4,69,68,7
4,69,0,54
4,70,78,7
4,70,0,23
4,70,82,37
4,70,0,20
4,70,83,39
4,70,0,19
4,70,86,40
4,70,0,22
4,69,83,39
4,69,0,533
5,57,78,3122
5,60,79,54
5,57,0,6
5,65,83,51
5,60,0,4
5,60,71,56
5,65,0,7
5,57,86,50
5,60,0,3
5,60,71,56
5,57,0,2
5,65,73,52
5,60,0,6
5,60,65,57
5,65,0,7
5,57,51,55
5,60,0,3
5,60,51,62
5,57,0,5
5,65,78,57
5,60,0,6
5,60,75,52
5,65,0,13
5,55,79,49
5,60,0,6
5,60,78,56
5,55,0,7
5,64,80,47
5,60,0,8
5,60,60,52
5,64,0,10
5,57,79,47
5,60,0,3
5,60,76,59
5,57,0,7
5,60,0,53
5,67,5,15
5,65,31,2
5,65,0,31
5,67,0,0
5,60,81,5
5,57,72,71
5,60,0,5
5,60,69,55
5,57,0,3
5,65,78,54
5,60,0,4
5,60,65,58
5,65,0,8
5,55,69,57
5,60,0,3
5,58,80,46
5,55,0,6
5,62,74,63
5,58,0,6
5,58,77,53
5,62,0,12
5,58,0,53
5,55,56,3
5,58,63,57
5,55,0,3
5,62,84,60
5,58,0,7
5,58,70,49
5,62,0,12
5,57,57,49
5,58,0,2
5,60,78,59
5,57,0,4
5,64,79,61
5,60,0,3
5,60,69,51
5,64,0,10
5,53,84,48
5,60,0,8
5,58,81,54
5,53,0,8
5,62,88,51
5,58,0,3
5,58,81,58
5,62,0,9
5,53,80,47
5,58,0,4
5,57,84,57
5,53,0,6
5,62,79,53
5,57,0,3
5,57,79,56
5,62,0,10
5,53,86,48
5,57,0,3
5,57,76,55
5,53,0,5
5,62,81,57
5,57,0,1
5,57,69,59
