track,note,velocity,time
0,42,64,0
0,42,44,93
0,42,44,93
0,42,44,93
0,61,72,93
0,70,77,0
0,49,66,3
0,53,60,0
0,67,42,4
0,72,72,10
0,70,89,3
0,70,78,4
0,70,78,0
0,72,77,3
0,68,82,0
0,68,82,0
0,70,94,0
0,65,110,2
0,65,110,0
0,72,80,10
0,70,94,0
0,67,116,2
0,67,116,0
0,72,81,0
0,70,94,1
0,72,80,8
0,70,88,0
0,70,88,0
0,70,91,1
0,72,77,0
0,68,88,0
0,68,88,0
0,70,89,0
0,63,96,1
0,63,96,0
0,72,78,1
0,70,97,0
0,72,85,0
0,65,96,1
0,65,96,0
0,70,91,0
0,72,78,0
0,70,90,1
0,70,96,0
0,70,96,0
0,72,77,1
0,70,90,2
0,68,82,1
0,68,82,0
0,72,77,0
0,70,87,1
0,65,96,1
0,65,96,0
0,72,74,1
0,70,84,1
0,72,69,2
0,67,110,1
0,67,110,0
0,70,87,0
0,72,83,1
0,70,97,1
0,72,81,0
0,70,88,1
0,70,88,0
0,70,91,0
0,68,88,0
0,68,88,0
0,72,76,2
0,70,89,0
0,63,96,1
0,63,96,0
0,72,81,1
0,70,90,1
0,72,80,1
0,70,94,0
0,65,100,1
0,65,100,0
0,72,81,1
0,70,90,0
0,72,77,0
0,70,96,1
0,70,96,0
0,70,91,1
0,72,78,2
0,68,96,1
0,68,96,0
0,70,90,2
0,65,96,1
0,65,96,0
0,72,77,2
0,70,84,3
0,72,72,1
0,70,86,2
0,67,110,1
0,67,110,0
0,72,77,3
0,70,91,2
0,72,77,3
0,70,102,1
0,70,102,0
0,70,90,1
0,72,80,1
0,68,88,1
0,68,88,0
0,70,90,0
0,72,78,2
0,63,88,1
0,63,88,0
0,70,90,2
0,72,76,2
0,70,85,1
0,72,72,0
0,65,100,1
0,65,100,0
0,70,86,2
0,72,78,1
0,70,95,2
0,70,88,0
0,70,88,0
0,72,87,2
0,70,95,1
0,68,96,1
0,68,96,0
0,72,90,7
0,65,88,1
0,65,88,0
0,70,97,1
0,72,81,11
0,70,94,3
0,72,87,10
0,67,110,0
0,67,110,0
0,70,94,3
0,72,83,0
0,70,94,4
0,72,77,0
0,70,110,0
0,70,110,0
0,70,92,2
0,68,96,1
0,68,96,0
0,72,77,0
0,70,95,1
0,46,44,1
0,63,102,1
0,63,102,0
0,72,85,5
0,46,47,2
0,70,94,1
0,46,52,6
0,72,75,4
0,46,56,0
0,60,96,1
0,65,106,0
0,56,110,0
0,56,126,1
0,65,106,0
0,65,106,0
0,29,125,1
0,65,126,0
0,60,116,0
0,41,120,1
0,70,92,1
0,65,109,3
0,65,97,4
0,65,113,4
0,67,88,1
0,67,107,2
0,68,88,3
0,68,113,4
0,65,96,3
0,68,107,1
0,29,119,3
0,56,126,19
0,65,126,1
0,60,110,0
0,37,115,1
0,49,126,0
0,70,98,5
0,68,103,2
0,63,126,1
0,58,126,1
0,55,116,0
0,48,120,1
0,67,88,0
0,63,78,0
0,58,60,0
0,36,123,1
0,67,99,0
0,65,109,1
0,63,98,0
0,36,115,1
0,61,105,0
0,61,72,0
0,56,48,0
0,65,66,0
0,53,110,3
0,46,126,0
0,61,126,0
0,56,126,0
0,34,121,1
0,68,100,5
0,65,117,20
0,34,117,8
0,67,101,5
0,67,48,1
0,39,115,6
0,61,126,3
0,68,126,1
0,65,116,0
0,51,110,1
0,68,103,0
0,65,78,1
0,68,68,1
0,61,52,1
0,70,126,5
0,63,126,0
0,67,126,0
0,70,88,1
0,70,111,1
0,67,88,0
0,63,68,0
0,72,71,1
0,70,79,12
0,68,89,0
0,70,107,5
0,72,113,0
0,68,72,2
0,72,74,0
0,72,120,1
0,65,120,0
0,68,116,0
0,65,74,0
0,27,103,1
0,70,126,1
0,70,64,0
0,70,95,1
0,68,102,13
0,68,88,0
0,68,78,1
0,65,96,2
0,46,110,1
0,61,102,0
0,34,121,1
0,65,78,0
0,36,121,0
0,61,78,2
0,65,96,1
0,61,78,40
0,61,88,18
0,39,70,1
0,36,113,18
0,34,117,2
0,46,116,0
0,61,88,0
0,61,72,4
0,58,52,1
0,61,82,2
0,56,64,6
0,61,96,2
0,42,95,0
0,63,68,0
0,63,102,2
0,36,105,5
0,34,102,2
0,56,96,1
0,61,68,0
0,61,110,1
0,36,119,0
0,53,110,1
0,53,58,0
0,29,117,1
0,60,92,1
0,56,46,0
0,60,74,1
0,60,62,0
0,39,70,42
0,68,88,2
0,68,88,0
0,36,115,1
0,29,113,2
0,60,110,42
0,75,79,18
0,65,120,13
0,42,105,2
0,60,106,5
0,68,88,17
0,68,126,3
0,55,106,1
0,41,119,1
0,48,86,6
0,36,123,1
0,58,78,0
0,58,60,0
0,51,126,1
0,63,102,0
0,63,40,0
0,68,102,1
0,39,115,0
0,36,121,2
0,67,78,1
0,67,84,2
0,55,66,5
0,67,70,0
0,39,70,0
0,63,68,9
0,58,64,0
0,67,96,0
0,36,113,0
0,39,115,1
0,51,126,68
0,42,107,10
0,58,126,0
0,63,96,23
0,67,100,22
0,67,116,3
0,39,100,5
0,36,105,0
0,63,72,8
0,55,54,1
0,58,40,0
0,37,113,1
0,63,102,0
0,67,100,0
0,36,119,0
0,49,116,1
0,67,106,3
0,68,110,6
0,65,74,0
0,68,102,3
0,39,70,0
0,61,42,34
0,53,58,1
0,37,123,1
0,56,102,0
0,65,96,0
0,61,96,0
0,36,115,0
0,65,100,2
0,49,126,44
0,75,79,7
0,42,103,2
0,63,126,2
0,60,112,1
0,53,96,1
0,55,118,21
0,37,119,2
0,61,116,0
0,60,106,1
0,48,108,0
0,36,123,0
0,36,92,1
0,61,56,1
0,46,126,1
0,56,126,0
0,61,110,0
0,56,64,0
0,53,54,0
0,36,121,0
0,34,123,1
0,61,88,41
0,61,88,35
0,39,70,1
0,61,72,25
0,46,116,1
0,36,113,0
0,34,119,1
0,61,88,30
0,61,88,22
0,53,80,4
0,61,110,20
0,61,88,0
0,42,107,2
0,63,88,42
0,63,116,1
0,36,105,3
0,34,119,3
0,61,102,2
0,56,56,0
0,53,58,1
0,29,115,1
0,61,126,0
0,41,126,0
0,53,116,0
0,36,119,0
0,60,78,2
0,60,78,0
0,60,100,2
0,39,70,0
0,68,102,0
0,56,102,2
0,53,120,2
0,36,115,0
0,29,119,2
0,60,120,18
0,42,76,1
0,75,79,20
0,46,97,22
0,65,120,1
0,60,100,19
0,68,82,16
0,68,116,3
0,55,114,2
0,29,93,6
0,48,114,1
0,36,123,0
0,56,72,0
0,63,82,1
0,51,126,1
0,58,60,0
0,27,123,1
0,58,102,1
0,68,116,0
0,63,126,0
0,68,96,0
0,36,121,0
0,55,78,2
0,67,106,45
0,39,70,1
0,67,106,1
0,67,106,11
0,36,113,3
0,63,110,2
0,51,126,0
0,58,110,0
0,39,117,1
0,65,60,4
0,63,68,23
0,42,107,50
0,67,116,2
0,67,106,1
0,36,105,5
0,63,78,17
0,67,92,0
0,63,96,1
0,67,92,0
0,58,82,0
0,49,126,0
0,67,100,0
0,58,96,0
0,36,119,0
0,37,119,1
0,68,72,1
0,68,116,4
0,39,70,0
0,65,96,0
0,61,78,1
0,65,96,0
0,61,110,1
0,36,115,0
0,49,126,1
0,65,100,0
0,37,115,1
0,75,79,114
0,42,99,23
0,60,110,6
0,65,120,19
0,65,106,1
0,55,116,1
0,46,105,1
0,48,114,4
0,36,123,1
0,37,121,1
0,58,102,16
0,62,100,1
0,65,116,0
0,58,82,0
0,62,96,0
0,48,126,1
0,65,106,0
0,36,123,2
0,36,113,2
0,67,106,2
0,67,120,9
0,46,109,3
0,60,106,32
0,55,120,0
0,64,100,0
0,60,80,0
0,64,92,0
0,36,117,1
0,48,126,0
0,64,96,0
0,55,78,0
0,36,121,1
0,42,93,91
0,46,111,47
0,36,119,15
0,65,84,20
0,66,60,0
0,62,88,0
0,58,72,0
0,36,120,0
0,62,96,0
0,65,100,0
0,36,125,1
0,36,121,2
0,48,117,30
0,45,107,1
0,64,116,16
0,67,126,0
0,60,126,0
0,60,92,1
0,67,110,0
0,64,106,0
0,41,93,0
0,36,117,2
0,36,127,0
0,49,121,0
0,36,127,141
0,48,125,0
0,65,106,1
0,36,125,45
0,45,127,0
0,68,96,1
0,70,102,33
0,36,127,1
0,41,119,0
0,36,117,1
0,29,123,4
0,72,106,0
0,60,92,1
0,56,102,0
0,65,110,0
0,49,105,0
0,36,125,0
0,60,116,1
0,65,126,0
0,68,126,0
0,53,120,0
0,42,84,18
0,38,127,44
0,48,121,0
0,42,103,0
0,45,107,19
0,41,101,21
0,29,125,1
0,77,109,0
0,36,127,1
0,49,103,0
0,60,116,1
0,65,120,0
0,68,126,0
0,42,67,43
0,65,106,23
0,75,78,3
0,42,93,0
0,53,126,3
0,41,117,17
0,38,127,1
0,42,101,0
0,68,116,1
0,60,120,1
0,65,120,0
0,65,53,0
0,75,80,2
0,60,107,1
0,72,116,18
0,29,115,0
0,53,116,1
0,55,119,0
0,42,95,0
0,36,115,2
0,48,115,0
0,58,110,16
0,62,100,0
0,70,81,0
0,29,125,2
0,70,126,0
0,62,116,0
0,65,120,0
0,36,127,0
0,49,109,1
0,42,87,13
0,70,116,2
0,48,121,3
0,38,127,2
0,42,99,0
0,45,107,20
0,70,126,20
0,41,113,0
0,65,126,1
0,62,116,0
0,49,95,0
0,36,126,0
0,29,121,2
0,77,101,44
0,42,75,0
0,65,61,1
0,75,80,33
0,42,95,0
0,53,120,1
0,38,127,8
0,42,103,1
0,41,119,1
0,70,126,0
0,65,126,1
0,62,120,0
0,70,103,3
0,58,70,1
0,60,115,14
0,75,78,0
0,42,97,2
0,29,119,1
0,55,121,0
0,48,119,0
0,53,106,0
0,61,82,1
0,70,110,1
0,36,125,0
0,42,101,0
0,27,115,1
0,70,110,1
0,61,110,1
0,51,126,0
0,70,126,0
0,65,120,0
0,42,87,46
0,38,125,44
0,42,105,0
0,61,96,14
0,68,102,0
0,65,96,1
0,68,116,3
0,36,125,0
0,42,101,0
0,61,126,1
0,68,126,0
0,65,110,1
0,27,117,1
0,42,93,44
0,51,126,18
0,42,97,0
0,75,77,1
0,27,111,2
0,70,126,0
0,38,127,0
0,42,103,0
0,61,116,2
0,39,115,1
0,65,110,0
0,68,102,0
0,56,100,0
0,68,102,1
0,75,76,1
0,27,109,2
0,46,103,0
0,51,126,3
0,70,126,5
0,32,119,9
0,36,127,0
0,42,105,0
0,60,116,1
0,63,126,0
0,56,126,1
0,63,110,1
0,60,110,0
0,72,96,1
0,72,106,1
0,42,99,0
0,70,102,1
0,68,110,1
0,38,127,0
0,42,105,0
0,68,126,2
0,63,126,0
0,60,120,1
0,70,100,8
0,58,94,1
0,32,121,1
0,60,95,1
0,42,95,0
0,56,116,1
0,72,81,0
0,38,121,2
0,65,110,12
0,63,116,0
0,60,88,0
0,65,120,1
0,48,121,0
0,38,109,0
0,60,116,2
0,63,126,0
0,48,93,10
0,68,116,1
0,48,119,0
0,32,119,1
0,56,126,1
0,68,102,0
0,75,78,0
0,38,121,1
0,67,106,2
0,67,120,1
0,70,116,1
0,70,126,0
0,70,110,0
0,45,127,0
0,55,116,1
0,31,123,1
0,45,113,1
0,60,113,2
0,75,77,0
0,68,126,3
0,72,120,1
0,65,126,0
0,68,110,0
0,65,116,0
0,72,106,0
0,72,120,1
0,38,125,0
0,41,115,0
0,55,111,2
0,48,115,9
0,77,115,19
0,49,121,0
0,36,126,0
0,29,125,1
0,53,113,1
0,53,126,1
0,60,62,40
0,42,93,5
0,65,106,13
0,48,103,1
0,72,126,0
0,48,125,0
0,38,126,0
0,42,103,0
0,75,115,1
0,51,119,0
0,45,113,0
0,41,116,3
0,65,116,0
0,68,116,0
0,60,100,0
0,77,101,0
0,53,119,0
0,41,119,0
0,60,116,1
0,68,126,0
0,65,126,0
0,49,107,1
0,36,127,0
0,29,125,1
0,42,75,27
0,65,126,9
0,75,78,1
0,42,99,1
0,29,109,2
0,41,126,1
0,68,116,1
0,41,117,2
0,38,127,0
0,42,103,0
0,60,110,1
0,65,110,20
0,60,117,1
0,75,77,0
0,70,110,1
0,29,109,1
0,68,126,1
0,55,119,0
0,46,107,0
0,48,121,2
0,65,88,3
0,62,120,1
0,70,126,0
0,65,120,0
0,70,102,0
0,58,116,0
0,62,100,0
0,72,110,2
0,36,125,0
0,42,101,0
0,29,123,1
0,70,116,27
0,42,97,0
0,48,126,4
0,70,116,1
0,38,127,0
0,42,103,1
0,45,105,2
0,65,78,0
0,70,116,2
0,70,116,0
0,62,106,1
0,65,106,0
0,41,119,1
0,36,126,0
0,49,100,0
0,29,119,1
0,65,126,0
0,62,126,0
0,70,126,0
0,68,82,17
0,65,100,3
0,42,63,6
0,75,78,30
0,42,91,0
0,29,117,2
0,41,120,2
0,41,111,2
0,38,117,2
0,42,101,0
0,62,116,1
0,70,116,1
0,65,116,9
0,70,126,1
0,60,117,0
0,75,78,0
0,42,81,0
0,70,116,8
0,29,117,1
0,55,113,1
0,46,107,0
0,48,121,0
0,61,110,19
0,65,106,1
0,51,110,1
0,27,111,1
0,36,121,0
0,42,99,0
0,61,102,1
0,70,107,0
0,70,126,2
0,58,85,1
0,42,97,43
0,68,96,0
0,38,123,1
0,42,103,0
0,65,116,3
0,61,116,0
0,68,116,0
0,70,88,0
0,51,116,1
0,71,100,1
0,72,116,0
0,36,119,0
0,42,95,0
0,27,113,1
0,70,110,15
0,42,91,17
0,42,99,31
0,75,74,2
0,27,111,2
0,38,127,3
0,42,103,1
0,39,111,1
0,70,116,0
0,68,102,0
0,75,76,1
0,27,100,1
0,56,83,0
0,42,95,0
0,68,107,1
0,67,87,2
0,55,78,1
0,65,85,1
0,36,123,0
0,29,123,1
0,65,120,0
0,68,126,0
0,60,116,0
0,68,96,0
0,60,96,0
0,53,77,0
0,42,103,0
0,53,120,1
0,42,84,41
0,42,95,0
0,69,96,2
0,70,110,1
0,68,82,1
0,41,126,7
0,65,106,0
0,60,106,0
0,65,70,0
0,36,111,0
0,42,99,0
0,29,123,1
0,38,109,0
0,67,84,19
0,68,64,19
0,42,82,0
0,53,120,29
0,75,73,0
0,42,91,0
0,60,110,4
0,42,84,0
0,60,113,2
0,75,74,0
0,53,116,0
0,55,101,1
0,36,117,0
0,42,91,0
0,41,119,2
0,51,102,2
0,48,109,0
0,58,110,4
0,58,82,0
0,63,72,0
0,67,78,0
0,63,116,1
0,67,116,0
0,36,121,0
0,42,91,0
0,49,126,1
0,37,119,1
0,42,65,33
0,42,79,0
0,56,40,16
0,61,42,0
0,65,56,0
0,36,115,4
0,56,116,1
0,65,106,0
0,61,110,0
0,42,87,1
0,37,119,1
0,42,76,44
0,75,67,34
0,42,70,1
0,63,64,1
0,63,126,1
0,42,87,1
0,36,117,1
0,56,48,21
0,60,95,0
0,75,64,0
0,61,96,10
0,61,68,0
0,55,85,1
0,36,113,0
0,42,82,0
0,60,78,19
0,48,101,0
0,60,74,3
0,42,84,9
0,34,121,1
0,61,102,0
0,36,121,0
0,61,78,1
0,42,66,19
0,42,53,21
0,61,96,1
0,42,61,13
0,61,88,21
0,39,36,0
0,42,86,0
0,53,32,2
0,42,57,10
0,46,87,12
0,61,88,1
0,36,113,0
0,34,117,2
0,46,88,0
0,61,102,5
0,42,93,7
0,61,88,1
0,42,47,3
0,42,50,21
0,61,110,3
0,53,96,1
0,42,76,13
0,56,116,3
0,63,102,2
0,46,103,0
0,61,42,1
0,36,105,6
0,34,102,2
0,65,80,0
0,36,119,2
0,42,89,0
0,61,96,1
0,53,100,1
0,61,72,0
0,29,117,1
0,42,47,21
0,60,68,0
0,60,68,2
0,42,58,0
0,63,40,4
0,42,62,2
0,61,68,4
0,60,88,1
0,39,70,3
0,42,79,0
0,42,69,15
0,56,48,15
0,68,110,4
0,68,102,1
0,36,115,1
0,46,91,0
0,29,113,1
0,42,69,24
0,53,116,18
0,42,89,3
0,75,76,10
0,42,73,0
0,60,116,1
0,42,71,1
