track,note,velocity,time
1,63,89,982
1,47,55,4
1,63,0,48
1,54,66,67
1,66,103,94
1,66,0,8
1,66,60,15
1,54,0,9
1,66,0,13
1,54,36,93
1,63,81,100
1,54,0,15
1,63,0,4
1,54,49,109
1,47,0,19
1,54,0,17
1,68,62,102
1,40,60,7
1,47,61,34
1,40,0,13
1,47,0,70
1,52,84,20
1,52,0,20
1,56,60,97
1,56,0,108
1,59,56,18
1,59,0,104
1,56,56,21
1,56,0,27
1,42,40,101
1,66,86,5
1,68,0,12
1,66,0,29
1,49,65,21
1,42,0,48
1,61,101,48
1,54,75,5
1,49,0,27
1,61,0,5
1,54,0,70
1,49,58,6
1,64,83,107
1,49,0,19
1,54,52,4
1,64,0,10
1,54,0,70
1,49,58,10
1,49,0,76
1,64,73,39
1,47,27,13
1,54,56,14
1,63,81,109
1,64,0,7
1,54,0,23
1,63,0,11
1,54,46,81
1,59,36,128
1,54,0,25
1,47,0,30
1,54,47,70
1,59,0,3
1,63,98,2
1,47,64,5
1,54,0,3
1,54,64,70
1,63,0,10
1,66,94,89
1,54,0,20
1,66,0,20
1,54,60,73
1,63,86,119
1,54,0,1
1,63,0,38
1,54,57,75
1,47,0,7
1,54,0,57
1,44,60,51
1,71,62,2
1,51,61,39
1,44,0,11
1,51,0,84
1,56,66,11
1,56,0,74
1,51,57,55
1,51,0,127
1,44,39,11
1,44,0,78
1,71,0,19
1,51,36,42
1,51,0,38
1,73,89,80
1,40,61,4
1,47,61,35
1,40,0,50
1,71,92,42
1,47,0,2
1,52,86,6
1,73,0,4
1,71,0,1
1,52,0,29
1,56,62,71
1,56,0,99
1,68,96,8
1,59,86,1
1,68,0,32
1,59,0,47
1,56,59,30
1,56,0,30
1,42,61,94
1,66,78,5
1,49,60,34
1,42,0,17
1,59,64,88
1,49,0,8
1,59,0,109
1,49,58,11
1,54,50,144
1,49,0,32
1,49,49,102
1,54,0,1
1,66,0,76
1,49,0,20
1,71,101,58
1,47,40,17
1,54,66,26
1,71,0,55
1,66,111,32
1,66,0,33
1,54,0,2
1,54,61,86
1,69,105,92
1,54,0,16
1,69,0,20
1,47,0,21
1,54,58,44
1,54,0,37
1,40,66,5
1,69,73,5
1,47,59,35
1,69,0,58
1,68,85,41
1,68,0,27
1,52,52,99
1,47,0,44
1,47,55,83
1,52,0,12
1,40,0,42
1,47,0,70
1,52,61,4
1,52,0,36
1,73,105,86
1,37,62,7
1,44,65,20
1,73,0,33
1,68,103,77
1,49,69,4
1,68,0,41
1,49,0,11
1,49,72,59
1,44,0,31
1,71,105,74
1,44,65,4
1,49,0,4
1,71,0,26
1,37,0,10
1,49,60,76
1,44,0,37
1,42,78,73
1,49,0,1
1,71,90,1
1,49,57,35
1,71,0,103
1,70,81,0
1,70,0,15
1,54,43,2
1,42,0,1
1,49,0,26
1,54,0,47
1,49,34,40
1,54,44,118
1,49,0,190
1,54,0,60
1,71,88,10
1,47,70,7
1,54,72,30
1,71,0,80
1,66,105,13
1,66,0,44
1,54,0,10
1,54,57,51
1,54,0,99
1,63,105,3
1,63,0,31
1,47,0,69
1,54,71,7
1,54,0,41
1,68,94,11
1,40,84,10
1,47,62,36
1,64,101,92
1,68,0,4
1,52,81,8
1,64,0,13
1,47,0,36
1,47,66,46
1,52,0,24
1,61,96,81
1,61,0,15
1,52,61,0
1,47,0,22
1,40,0,63
1,47,55,15
1,52,0,3
1,47,0,65
1,42,65,2
1,59,94,16
1,49,65,28
1,54,58,109
1,49,0,42
1,49,61,72
1,63,75,22
1,54,0,7
1,59,0,8
1,54,61,87
1,61,65,12
1,49,0,6
1,63,0,9
1,42,0,54
1,49,47,43
1,61,0,10
1,58,64,2
1,49,0,69
1,54,0,3
1,47,64,55
1,59,75,1
1,58,0,25
1,54,59,45
1,51,53,136
1,54,0,3
1,47,0,14
1,51,0,117
1,54,40,1
1,47,33,182
1,54,0,4
1,51,32,159
1,59,0,25
1,47,0,32
1,51,0,120
1,63,94,22
1,47,63,12
1,54,69,42
1,63,0,39
1,66,116,67
1,54,0,26
1,66,0,9
1,54,61,80
1,63,92,105
1,54,0,9
1,63,0,36
1,54,55,69
1,47,0,11
1,54,0,30
1,68,72,6
1,40,57,11
1,47,51,44
1,40,0,24
1,47,0,66
1,52,84,15
1,52,0,37
1,56,28,63
1,56,0,94
1,59,82,18
1,59,0,91
1,56,80,11
1,56,0,40
1,66,89,78
1,42,61,12
1,68,0,7
1,42,0,50
1,42,56,1
1,49,85,23
1,42,0,20
1,66,0,27
1,61,88,58
1,54,73,21
1,49,0,31
1,49,59,75
1,54,0,49
1,61,0,18
1,64,77,36
1,54,29,86
1,49,0,25
1,64,0,40
1,54,0,65
1,47,56,12
1,64,65,10
1,54,57,26
1,63,56,117
1,64,0,5
1,54,0,18
1,54,49,113
1,59,46,132
1,63,0,25
1,54,0,9
1,59,0,83
1,54,53,12
1,47,0,22
1,63,105,95
1,54,0,11
1,47,71,0
1,54,76,36
1,63,0,30
1,66,109,69
1,54,0,18
1,66,0,18
1,54,62,74
1,63,107,106
1,54,0,4
1,63,0,32
1,54,61,66
1,47,0,7
1,54,0,45
1,44,82,67
1,71,111,3
1,51,65,12
1,56,71,110
1,71,0,3
1,51,0,43
1,44,0,8
1,56,0,69
1,51,59,1
1,59,55,125
1,51,0,5
1,59,0,56
1,51,55,55
1,51,0,51
1,40,77,73
1,73,92,3
1,47,64,34
1,40,0,50
1,47,0,37
1,71,105,0
1,52,92,6
1,73,0,9
1,71,0,4
1,52,0,22
1,56,65,69
1,56,0,106
1,59,88,2
1,68,94,4
1,59,0,89
1,56,72,29
1,56,0,26
1,66,86,96
1,42,66,3
1,68,0,18
1,49,72,43
1,42,0,34
1,49,0,88
1,54,82,0
1,49,65,134
1,54,0,3
1,46,72,139
1,49,0,2
1,54,57,153
1,46,0,28
1,66,0,31
1,54,0,88
1,71,94,7
1,47,62,10
1,54,65,42
1,71,0,97
1,66,107,3
1,66,0,30
1,54,0,1
1,54,60,88
1,54,0,87
1,69,103,1
1,69,0,35
1,54,62,85
1,47,0,11
1,54,0,19
1,69,98,66
1,40,88,2
1,47,65,26
1,40,0,40
1,47,0,45
1,68,92,0
1,52,86,9
1,69,0,6
1,68,0,9
1,52,0,20
1,56,57,76
1,56,0,110
1,59,77,8
1,59,0,94
1,56,61,25
1,56,0,26
1,73,96,98
1,37,74,6
1,44,77,29
1,73,0,39
1,37,0,1
1,68,100,48
1,49,82,12
1,68,0,14
1,44,0,2
1,49,0,66
1,44,59,13
1,71,90,105
1,49,47,28
1,71,0,2
1,44,0,15
1,49,0,14
1,49,55,61
1,49,0,97
1,71,90,11
1,42,67,5
1,49,60,37
1,42,0,55
1,70,96,50
1,71,0,6
1,70,0,10
1,54,47,0
1,49,0,15
1,54,0,102
1,49,51,1
1,54,51,130
1,49,0,12
1,54,0,164
1,47,67,69
1,71,88,2
1,54,70,39
1,71,0,84
1,66,109,11
1,66,0,30
1,54,0,18
1,54,46,59
1,54,0,80
1,63,105,13
1,63,0,24
1,54,64,82
1,47,0,11
1,54,0,25
1,40,78,18
1,68,90,2
1,47,62,8
1,68,0,101
1,64,100,13
1,64,0,22
1,52,57,3
1,47,0,43
1,52,0,44
1,47,60,4
1,52,60,106
1,61,85,7
1,47,0,9
1,61,0,35
1,52,0,42
1,47,57,25
1,40,0,3
1,47,0,43
1,42,60,25
1,59,73,13
1,49,59,59
1,42,0,60
1,54,59,43
1,49,0,27
1,49,57,89
1,63,67,3
1,59,0,6
1,54,0,10
1,54,64,88
1,49,0,14
1,61,70,5
1,63,0,12
1,49,62,83
1,54,0,4
1,58,62,11
1,61,0,3
1,49,0,88
1,59,77,2
1,58,0,4
1,44,83,0
1,47,73,41
1,44,0,39
1,51,75,88
1,47,0,18
1,56,61,104
1,51,0,21
1,51,58,126
1,56,0,22
1,51,0,108
1,47,60,4
1,47,0,76
1,43,76,52
1,59,0,27
1,47,76,33
1,43,0,25
1,50,90,90
1,47,0,4
1,50,0,103
1,55,69,14
1,55,0,122
1,50,60,4
1,47,56,149
1,50,0,20
1,47,0,76
1,47,70,68
1,71,90,9
1,54,83,13
1,71,0,61
1,66,120,44
1,54,0,34
1,66,0,5
1,54,61,66
1,63,118,103
1,54,0,3
1,63,0,31
1,54,59,68
1,47,0,4
1,54,0,27
1,68,86,2
1,40,80,4
1,47,62,38
1,64,105,104
1,52,85,4
1,68,0,6
1,64,0,3
1,47,0,35
1,47,56,65
1,52,0,19
1,61,89,95
1,52,66,15
1,61,0,17
1,47,0,5
1,52,0,82
1,40,0,6
1,47,55,3
1,47,0,74
1,59,92,48
1,42,71,9
1,49,64,33
1,42,0,86
1,54,51,26
1,49,0,28
1,63,81,86
1,59,0,3
1,49,51,11
1,54,0,20
1,63,0,94
1,61,80,4
1,54,48,16
1,49,0,27
1,61,0,69
1,58,71,4
1,49,54,32
1,54,0,1
1,49,0,51
1,59,75,48
1,58,0,22
1,35,58,58
1,42,62,28
1,35,0,1
1,47,60,139
1,47,0,114
1,54,54,7
1,54,0,110
1,59,66,36
1,54,64,121
1,59,0,64
1,59,0,5
1,54,0,19
1,47,57,44
1,54,57,135
1,57,57,154
1,54,0,28
1,54,45,117
1,57,0,46
1,47,0,6
1,54,0,98
1,47,37,4
1,54,41,158
1,47,0,10
1,42,0,19
1,54,0,15
1,64,77,23
1,40,39,6
1,64,0,38
1,47,56,87
1,40,0,52
1,64,109,58
1,52,62,14
1,64,0,12
1,47,0,0
1,52,0,36
1,47,62,47
1,64,98,118
1,52,76,5
1,47,0,28
1,52,0,52
1,47,60,32
1,47,0,41
1,63,65,84
1,47,64,19
1,64,0,2
1,54,57,8
1,47,0,22
1,54,0,116
1,59,60,0
1,59,0,51
1,54,54,75
1,54,0,102
1,59,57,47
1,59,0,88
1,54,41,61
1,54,0,104
1,66,75,88
1,63,0,4
1,47,66,9
1,54,66,5
1,47,0,3
1,66,0,59
1,54,0,51
1,66,109,4
1,59,80,6
1,66,0,78
1,59,0,17
1,54,66,23
1,54,0,117
1,66,89,6
1,59,72,2
1,59,0,83
1,54,60,47
1,54,0,29
1,64,62,103
1,66,0,8
1,40,47,0
1,47,52,46
1,40,0,12
1,47,0,98
1,52,46,24
1,52,0,87
1,47,40,51
1,47,0,61
1,40,51,68
1,40,0,119
1,47,44,20
1,47,0,65
1,64,0,91
1,40,66,4
1,68,86,12
1,47,62,16
1,40,0,21
1,68,0,46
1,47,0,45
1,68,107,3
1,52,75,4
1,68,0,38
1,52,0,25
1,47,64,46
1,68,109,111
1,47,0,1
1,52,59,9
1,52,0,81
1,47,66,33
1,47,0,42
1,69,82,73
1,47,75,2
1,68,0,19
1,54,73,5
1,47,0,21
1,59,84,84
1,54,0,1
1,59,0,83
1,69,0,16
1,68,94,0
1,54,74,7
1,66,101,99
1,68,0,7
1,59,70,4
1,54,0,2
1,66,0,49
1,59,0,20
1,64,80,26
1,54,61,12
1,54,0,56
1,63,84,54
1,47,59,4
1,64,0,11
1,54,62,41
1,47,0,64
1,59,41,61
1,64,78,2
1,54,0,11
1,63,0,15
1,59,0,70
1,54,52,13
1,64,0,85
1,66,70,37
1,59,61,16
1,54,0,22
1,59,0,40
1,54,45,55
1,54,0,32
1,40,55,118
1,64,56,3
1,66,0,21
1,47,57,19
1,40,0,13
1,52,66,111
1,47,0,1
1,52,0,113
1,47,55,14
1,59,62,112
1,64,0,72
1,52,58,56
1,47,0,45
1,52,0,37
1,59,0,49
1,40,88,83
1,64,83,6
1,64,0,55
1,47,65,0
1,40,0,11
1,47,0,99
1,52,73,4
1,64,89,3
1,52,0,60
1,64,0,16
1,47,57,33
1,47,0,111
1,64,113,3
1,52,70,1
1,52,0,80
1,47,62,33
1,47,0,39
1,63,67,82
1,47,45,7
1,64,0,18
1,54,60,8
1,47,0,32
1,59,59,94
1,54,0,33
1,59,0,46
1,54,55,55
1,47,48,125
1,54,0,10
1,47,0,69
1,54,61,70
1,54,0,103
1,66,88,25
1,47,74,7
1,63,0,9
1,54,64,35
1,47,0,20
1,66,0,30
1,54,0,66
1,59,86,0
1,66,89,1
1,59,0,95
1,54,58,29
1,66,0,21
1,66,94,85
1,59,75,10
1,54,0,4
1,59,0,72
1,54,66,35
1,54,0,33
1,64,76,102
1,40,73,0
1,66,0,13
1,47,57,13
1,40,0,4
1,47,0,109
1,52,61,8
1,52,0,79
1,47,54,58
1,47,0,86
1,52,52,43
1,52,0,127
1,47,39,13
1,47,0,143
1,68,83,3
1,40,77,2
1,64,0,5
1,47,69,36
1,40,0,29
1,68,0,7
1,68,96,75
1,52,76,2
1,47,0,1
1,52,0,95
1,47,67,11
1,68,0,10
1,68,105,97
1,52,82,9
1,47,0,4
1,52,0,101
1,47,63,3
1,47,0,46
1,47,58,71
1,69,75,24
1,68,0,26
1,54,71,70
1,47,0,39
1,59,78,77
1,54,0,15
1,69,0,85
1,68,92,2
1,54,75,4
1,59,0,1
1,68,0,61
1,54,0,48
1,59,69,0
1,66,86,1
1,66,0,51
1,59,0,36
1,64,82,27
1,54,56,2
1,54,0,114
1,63,78,14
1,47,67,0
1,64,0,8
1,54,55,58
1,47,0,90
1,64,84,32
1,59,66,0
1,63,0,7
1,54,0,22
1,59,0,51
1,54,57,42
1,64,0,124
1,66,74,0
1,59,59,11
1,54,0,3
1,59,0,74
1,54,57,42
1,54,0,34
1,40,75,5
1,64,78,2
1,66,0,23
1,64,0,32
1,47,67,36
1,52,75,122
1,40,0,59
1,56,94,51
1,52,0,6
1,52,89,104
1,56,0,22
1,47,100,93
1,52,0,22
1,47,0,37
1,38,105,70
1,47,0,18
1,45,78,21
1,50,86,121
1,54,82,114
1,50,86,130
1,54,0,24
1,50,0,33
1,38,0,68
1,45,89,16
1,45,0,13
1,50,0,9
1,42,105,119
1,45,0,23
1,49,81,10
1,54,86,125
1,58,89,128
1,54,80,159
1,58,0,32
1,49,89,117
1,54,0,6
1,54,0,126
1,49,0,63
1,49,0,95
1,42,0,0
1,63,105,222
1,47,89,2
1,54,84,70
1,63,0,1
1,66,103,92
1,66,0,31
1,54,0,27
1,54,67,54
1,63,101,116
1,54,0,34
1,63,0,10
1,47,0,61
1,54,61,20
1,54,0,40
1,68,74,74
1,40,84,12
1,47,58,57
1,40,0,32
1,47,0,52
1,52,84,16
1,52,0,39
1,56,60,73
1,56,0,100
1,59,85,6
1,59,0,110
1,56,85,9
1,56,0,31
1,66,84,92
1,42,78,4
1,68,0,10
1,66,0,34
1,49,73,3
1,61,100,100
1,54,69,11
1,61,0,46
1,54,0,18
1,49,0,37
1,49,61,16
1,42,0,58
1,64,90,55
1,64,0,41
1,54,54,73
1,49,0,21
1,54,0,96
1,64,85,7
1,47,54,8
1,54,60,36
1,63,77,106
1,64,0,23
1,54,0,27
1,63,0,60
1,54,47,7
1,59,56,120
1,54,0,25
1,59,0,83
1,54,47,20
1,47,0,47
1,63,90,85
1,47,66,10
1,54,0,4
1,54,62,55
1,63,0,18
1,66,103,69
1,54,0,15
1,66,0,10
1,54,56,87
1,63,105,99
1,54,0,22
1,63,0,11
1,54,54,85
1,47,0,5
1,54,0,94
1,71,62,7
1,44,63,5
1,51,61,49
1,44,0,24
1,51,0,91
1,56,62,0
1,56,0,113
1,51,61,5
1,44,49,142
1,51,0,4
1,71,0,3
1,44,0,99
1,51,60,26
1,51,0,40
1,73,85,80
1,40,65,12
1,47,65,15
1,40,0,37
1,47,0,51
1,71,98,3
1,52,85,7
1,73,0,16
1,71,0,6
1,52,0,13
1,56,62,59
1,56,0,106
1,68,94,6
1,59,80,1
1,68,0,31
1,56,73,93
1,59,0,11
1,56,0,37
1,66,84,79
1,42,70,2
1,49,77,40
1,66,0,15
1,42,0,37
1,54,76,72
1,61,72,128
1,54,0,8
1,54,65,120
1,49,0,37
1,49,49,111
1,61,0,6
1,49,0,81
1,54,0,113
1,71,88,48
1,47,64,5
1,54,58,33
1,71,0,56
