track,note,velocity,time
1,79,103,3072
1,79,0,184
1,82,103,8
1,82,0,184
1,81,103,8
1,81,0,184
1,86,103,8
1,86,0,184
1,82,103,8
1,82,0,184
1,79,103,8
1,79,0,376
1,79,103,8
1,79,0,88
1,81,103,8
1,81,0,88
1,82,103,8
1,82,0,184
1,82,103,8
1,81,103,48
1,82,0,16
1,81,0,24
1,79,103,8
1,79,0,64
1,79,103,32
1,79,0,184
1,77,103,8
1,77,0,184
1,74,103,8
1,74,0,184
1,76,103,8
1,76,0,88
1,77,103,8
1,77,0,88
1,79,103,8
1,79,0,376
1,79,103,8
1,79,0,184
1,82,103,8
1,82,0,184
1,81,103,8
1,81,0,184
1,86,103,8
1,86,0,184
1,82,103,8
1,82,0,184
1,79,103,8
1,79,0,376
1,79,103,8
1,79,0,88
1,81,103,8
1,81,0,88
1,82,103,8
1,82,0,184
1,82,103,8
1,81,103,48
1,82,0,16
1,81,0,24
1,79,103,8
1,79,0,64
1,79,103,32
1,79,0,184
1,77,103,8
1,77,0,184
1,79,103,8
1,79,0,380
1,79,103,4
1,79,0,380
1,79,103,4
1,79,0,184
1,82,103,8
1,82,0,184
1,81,103,8
1,81,0,184
1,86,103,8
1,86,0,184
1,82,103,8
1,82,0,184
1,79,103,8
1,79,0,376
1,79,103,8
1,79,0,88
1,81,103,8
1,81,0,88
1,82,103,8
1,82,0,184
1,82,103,8
1,81,103,48
1,82,0,16
1,81,0,24
1,79,103,8
1,79,0,64
1,79,103,32
1,79,0,184
1,77,103,8
1,77,0,184
1,74,103,8
1,74,0,184
1,76,103,8
1,76,0,88
1,77,103,8
1,77,0,88
1,79,103,8
1,79,0,376
1,79,103,8
1,79,0,184
1,82,103,8
1,82,0,184
1,81,103,8
1,81,0,184
1,86,103,8
1,86,0,184
1,82,103,8
1,82,0,184
1,79,103,8
1,79,0,376
1,79,103,8
1,79,0,88
1,81,103,8
1,81,0,88
1,82,103,8
1,82,0,184
1,82,103,8
1,81,103,48
1,82,0,16
1,81,0,24
1,79,103,8
1,79,0,64
1,79,103,32
1,79,0,184
1,77,103,8
1,77,0,184
1,79,103,8
1,79,0,376
1,79,103,8
1,79,0,376
1,82,103,8
1,82,0,184
1,86,103,8
1,86,0,184
1,84,103,8
1,84,0,184
1,89,103,8
1,89,0,184
1,86,103,8
1,86,0,184
1,82,103,8
1,82,0,376
1,82,103,8
1,82,0,88
1,84,103,8
1,84,0,88
1,86,103,8
1,86,0,184
1,86,103,8
1,84,103,48
1,86,0,16
1,84,0,24
1,82,103,8
1,82,0,64
1,82,103,32
1,82,0,184
1,81,103,8
1,81,0,184
1,82,103,8
1,82,0,184
1,79,103,8
1,79,0,184
1,81,103,8
1,81,0,380
1,82,103,4
1,82,0,184
1,86,103,8
1,86,0,184
1,84,103,8
1,84,0,184
1,89,103,8
1,89,0,184
1,86,103,8
1,86,0,184
1,82,103,8
1,82,0,376
1,82,103,8
1,82,0,88
1,84,103,8
1,84,0,88
1,86,103,8
1,86,0,184
1,86,103,8
1,84,103,48
1,86,0,16
1,84,0,24
1,82,103,8
1,82,0,64
1,82,103,32
1,82,0,184
1,81,103,8
1,81,0,184
1,82,103,8
1,82,0,184
1,79,103,8
1,79,0,184
1,81,103,8
1,81,0,380
1,79,103,4
1,79,0,184
1,82,103,8
1,82,0,184
1,81,103,8
1,81,0,184
1,86,103,8
1,86,0,184
1,82,103,8
1,82,0,184
1,79,103,8
1,79,0,376
1,79,103,8
1,79,0,88
1,81,103,8
1,81,0,88
1,82,103,8
1,82,0,184
1,82,103,8
1,81,103,48
1,82,0,16
1,81,0,24
1,79,103,8
1,79,0,64
1,79,103,32
1,79,0,184
1,77,103,8
1,77,0,184
1,74,103,8
1,74,0,184
1,76,103,8
1,76,0,88
1,77,103,8
1,77,0,88
1,79,103,8
1,79,0,376
1,79,103,8
1,79,0,184
1,82,103,8
1,82,0,184
1,81,103,8
1,81,0,184
1,86,103,8
1,86,0,184
1,82,103,8
1,82,0,184
1,79,103,8
1,79,0,376
1,79,103,8
1,79,0,88
1,81,103,8
1,81,0,88
1,82,103,8
1,82,0,184
1,82,103,8
1,81,103,48
1,82,0,16
1,81,0,24
1,79,103,8
1,79,0,64
1,79,103,32
1,79,0,184
1,77,103,8
1,77,0,184
1,79,103,8
1,79,0,376
1,79,103,8
1,79,0,376
1,82,103,8
1,82,0,380
1,81,103,4
1,81,0,184
1,86,103,8
1,86,0,184
1,82,103,8
1,82,0,184
1,79,103,8
1,79,0,376
1,79,103,8
1,79,0,88
1,81,103,8
1,81,0,88
1,82,103,8
1,82,0,184
1,82,103,8
1,81,103,48
1,82,0,16
1,81,0,24
1,79,103,8
1,79,0,64
1,79,103,32
1,79,0,184
1,77,103,8
1,77,0,184
1,74,103,8
1,74,0,184
1,76,103,8
1,76,0,88
1,77,103,8
1,77,0,88
1,79,103,8
1,79,0,376
1,82,103,8
1,82,0,380
1,81,103,4
1,81,0,184
1,86,103,8
1,86,0,184
1,82,103,8
1,82,0,184
1,79,103,8
1,79,0,376
1,79,103,8
1,79,0,88
1,81,103,8
1,81,0,88
1,82,103,8
1,82,0,184
1,82,103,8
1,81,103,48
1,82,0,16
1,81,0,24
1,79,103,8
1,79,0,64
1,79,103,32
1,79,0,184
1,77,103,8
1,77,0,184
1,79,103,8
1,79,0,376
1,79,103,8
1,79,0,376
1,82,103,8
1,82,0,184
1,86,103,8
1,86,0,184
1,84,103,8
1,84,0,184
1,89,103,8
1,89,0,184
1,86,103,8
1,86,0,184
1,82,103,8
1,82,0,376
1,82,103,8
1,82,0,88
1,84,103,8
1,84,0,88
1,86,103,8
1,86,0,184
1,86,103,8
1,84,103,48
1,86,0,16
1,84,0,24
1,82,103,8
1,82,0,64
1,82,103,32
1,82,0,184
1,81,103,8
1,81,0,184
1,82,103,8
1,82,0,184
1,79,103,8
1,79,0,184
1,81,103,8
1,81,0,380
1,82,103,4
1,82,0,184
1,86,103,8
1,86,0,184
1,84,103,8
1,84,0,184
1,89,103,8
1,89,0,184
1,86,103,8
1,86,0,184
1,82,103,8
1,82,0,376
1,82,103,8
1,82,0,88
1,84,103,8
1,84,0,88
1,86,103,8
1,86,0,184
1,86,103,8
1,84,103,48
1,86,0,16
1,84,0,24
1,82,103,8
1,82,0,64
1,82,103,32
1,82,0,184
1,81,103,8
1,81,0,184
1,82,103,8
1,82,0,184
1,79,103,8
1,79,0,184
1,81,103,8
1,81,0,380
1,82,103,4
1,82,0,380
1,81,103,4
1,81,0,184
1,86,103,8
1,86,0,184
1,82,103,8
1,82,0,184
1,79,103,8
1,79,0,376
1,79,103,8
1,79,0,88
1,81,103,8
1,81,0,88
1,82,103,8
1,82,0,184
1,82,103,8
1,81,103,48
1,82,0,16
1,81,0,24
1,79,103,8
1,79,0,64
1,79,103,32
1,79,0,184
1,77,103,8
1,77,0,184
1,74,103,8
1,74,0,184
1,76,103,8
1,76,0,88
1,77,103,8
1,77,0,88
1,79,103,8
1,79,0,376
1,82,103,8
1,82,0,380
1,81,103,4
1,81,0,184
1,86,103,8
1,86,0,184
1,82,103,8
1,82,0,184
1,79,103,8
1,79,0,376
1,79,103,8
1,79,0,88
1,81,103,8
1,81,0,88
1,82,103,8
1,82,0,184
1,82,103,8
1,81,103,48
1,82,0,16
1,81,0,24
1,79,103,8
1,79,0,64
1,79,103,32
1,79,0,184
1,77,103,8
1,77,0,184
1,79,103,8
1,79,0,764
2,55,68,3072
2,55,0,92
2,62,68,4
2,62,0,92
2,67,68,4
2,67,0,188
2,58,68,4
2,58,0,92
2,65,68,4
2,65,0,92
2,70,68,4
2,70,0,188
2,55,68,4
2,55,0,92
2,62,68,4
2,62,0,92
2,67,68,4
2,67,0,188
2,58,68,388
2,58,0,92
2,65,68,4
2,65,0,92
2,70,68,4
2,70,0,188
2,53,68,4
2,53,0,92
2,60,68,4
2,60,0,92
2,65,68,4
2,65,0,188
2,55,68,388
2,55,0,92
2,62,68,4
2,62,0,92
2,67,68,4
2,67,0,188
2,55,68,4
2,55,0,92
2,62,68,4
2,62,0,92
2,67,68,4
2,67,0,188
2,58,68,4
2,58,0,92
2,65,68,4
2,65,0,92
2,70,68,4
2,70,0,188
2,55,68,4
2,55,0,92
2,62,68,4
2,62,0,92
2,67,68,4
2,67,0,188
2,58,68,388
2,58,0,92
2,65,68,4
2,65,0,92
2,70,68,4
2,70,0,188
2,53,68,4
2,53,0,92
2,60,68,4
2,60,0,92
2,65,68,4
2,65,0,188
2,55,68,4
2,55,0,92
2,62,68,4
2,62,0,92
2,67,68,4
2,67,0,188
2,55,68,388
2,55,0,92
2,62,68,4
2,62,0,92
2,67,68,4
2,67,0,188
2,58,68,4
2,58,0,92
2,65,68,4
2,65,0,92
2,70,68,4
2,70,0,188
2,55,68,4
2,55,0,92
2,62,68,4
2,62,0,92
2,67,68,4
2,67,0,188
2,58,68,388
2,58,0,92
2,65,68,4
2,65,0,92
2,70,68,4
2,70,0,188
2,53,68,4
2,53,0,92
2,60,68,4
2,60,0,92
2,65,68,4
2,65,0,188
2,55,68,388
2,55,0,92
2,62,68,4
2,62,0,92
2,67,68,4
2,67,0,188
2,55,68,4
2,55,0,92
2,62,68,4
2,62,0,92
2,67,68,4
2,67,0,188
2,58,68,4
2,58,0,92
2,65,68,4
2,65,0,92
2,70,68,4
2,70,0,188
2,55,68,4
2,55,0,92
2,62,68,4
2,62,0,92
2,67,68,4
2,67,0,188
2,58,68,388
2,58,0,88
2,65,68,8
2,65,0,88
2,70,68,8
2,70,0,184
2,53,68,8
2,53,0,88
2,60,68,8
2,60,0,88
2,65,68,8
2,65,0,184
2,55,68,8
2,55,0,88
2,62,68,8
2,62,0,88
2,67,68,8
2,67,0,184
2,58,68,392
2,58,0,88
2,65,68,8
2,65,0,88
2,70,68,8
2,70,0,184
2,53,68,8
2,53,0,88
2,60,68,8
2,60,0,88
2,65,68,8
2,65,0,184
2,58,68,8
2,58,0,88
2,65,68,8
2,65,0,88
2,70,68,8
2,70,0,184
2,58,68,392
2,58,0,88
2,65,68,8
2,65,0,88
2,70,68,8
2,70,0,184
2,55,68,392
2,55,0,92
2,62,68,4
2,62,0,92
2,67,68,4
2,67,0,188
2,62,68,4
2,62,0,92
2,69,68,4
2,69,0,92
2,74,68,4
2,74,0,188
2,58,68,4
2,58,0,88
2,65,68,8
2,65,0,88
2,70,68,8
2,70,0,184
2,53,68,8
2,53,0,88
2,60,68,8
2,60,0,88
2,65,68,8
2,65,0,184
2,58,68,8
2,58,0,88
2,65,68,8
2,65,0,88
2,70,68,8
2,70,0,184
2,58,68,392
2,58,0,88
2,65,68,8
2,65,0,88
2,70,68,8
2,70,0,184
2,55,68,392
2,55,0,92
2,62,68,4
2,62,0,92
2,67,68,4
2,67,0,188
2,62,68,4
2,62,0,92
2,69,68,4
2,69,0,92
2,74,68,4
2,74,0,188
2,55,68,4
2,55,0,92
2,62,68,4
2,62,0,92
2,67,68,4
2,67,0,188
2,58,68,4
2,58,0,92
2,65,68,4
2,65,0,92
2,70,68,4
2,70,0,188
2,55,68,4
2,55,0,92
2,62,68,4
2,62,0,92
2,67,68,4
2,67,0,188
2,58,68,388
2,58,0,92
2,65,68,4
2,65,0,92
2,70,68,4
2,70,0,188
2,53,68,4
2,53,0,92
2,60,68,4
2,60,0,92
2,65,68,4
2,65,0,188
2,55,68,388
2,55,0,92
2,62,68,4
2,62,0,92
2,67,68,4
2,67,0,188
2,55,68,4
2,55,0,92
2,62,68,4
2,62,0,92
2,67,68,4
2,67,0,188
2,58,68,4
2,58,0,92
2,65,68,4
2,65,0,92
2,70,68,4
2,70,0,188
2,55,68,4
2,55,0,92
2,62,68,4
2,62,0,92
2,67,68,4
2,67,0,188
2,58,68,388
2,58,0,92
2,65,68,4
2,65,0,92
2,70,68,4
2,70,0,188
2,53,68,4
2,53,0,92
2,60,68,4
2,60,0,92
2,65,68,4
2,65,0,188
2,55,68,4
2,55,0,92
2,62,68,4
2,62,0,92
2,67,68,4
2,67,0,188
2,55,68,388
2,55,0,92
2,62,68,4
2,62,0,92
2,67,68,4
2,67,0,188
2,58,68,4
2,58,0,92
2,65,68,4
2,65,0,92
2,70,68,4
2,70,0,188
2,55,68,4
2,55,0,92
2,62,68,4
2,62,0,92
2,67,68,4
2,67,0,188
2,58,68,388
2,58,0,92
2,65,68,4
2,65,0,92
2,70,68,4
2,70,0,188
2,53,68,4
2,53,0,92
2,60,68,4
2,60,0,92
2,65,68,4
2,65,0,188
2,55,68,388
2,55,0,92
2,62,68,4
2,62,0,92
2,67,68,4
2,67,0,188
2,55,68,4
2,55,0,92
2,62,68,4
2,62,0,92
2,67,68,4
2,67,0,188
2,58,68,4
2,58,0,92
2,65,68,4
2,65,0,92
2,70,68,4
2,70,0,188
2,55,68,4
2,55,0,92
2,62,68,4
2,62,0,92
2,67,68,4
2,67,0,188
2,58,68,388
2,58,0,92
2,65,68,4
2,65,0,92
2,70,68,4
2,70,0,188
2,53,68,4
2,53,0,92
2,60,68,4
2,60,0,92
2,65,68,4
2,65,0,188
2,55,68,4
2,55,0,92
2,62,68,4
2,62,0,92
2,67,68,4
2,67,0,188
2,58,68,388
2,58,0,88
2,65,68,8
2,65,0,88
2,70,68,8
2,70,0,184
2,53,68,8
2,53,0,88
2,60,68,8
2,60,0,88
2,65,68,8
2,65,0,184
2,58,68,8
2,58,0,88
2,65,68,8
2,65,0,88
2,70,68,8
2,70,0,184
2,58,68,392
2,58,0,88
2,65,68,8
2,65,0,88
2,70,68,8
2,70,0,184
2,55,68,392
2,55,0,92
2,62,68,4
2,62,0,92
2,67,68,4
2,67,0,188
2,62,68,4
2,62,0,92
2,69,68,4
2,69,0,92
2,74,68,4
2,74,0,188
2,58,68,4
2,58,0,88
2,65,68,8
2,65,0,88
2,70,68,8
2,70,0,184
2,53,68,8
2,53,0,88
2,60,68,8
2,60,0,88
2,65,68,8
2,65,0,184
2,58,68,8
2,58,0,88
2,65,68,8
2,65,0,88
2,70,68,8
2,70,0,184
2,58,68,392
2,58,0,88
2,65,68,8
2,65,0,88
2,70,68,8
2,70,0,184
2,55,68,392
2,55,0,92
2,62,68,4
2,62,0,92
2,67,68,4
2,67,0,188
2,62,68,4
2,62,0,92
2,69,68,4
2,69,0,92
2,74,68,4
2,74,0,188
2,55,68,4
2,55,0,92
2,62,68,4
2,62,0,92
2,67,68,4
2,67,0,188
2,58,68,4
2,58,0,92
2,65,68,4
2,65,0,92
2,70,68,4
2,70,0,188
2,55,68,4
2,55,0,92
2,62,68,4
2,62,0,92
2,67,68,4
2,67,0,188
2,58,68,388
2,58,0,92
2,65,68,4
2,65,0,92
2,70,68,4
2,70,0,188
2,53,68,4
2,53,0,92
2,60,68,4
2,60,0,92
2,65,68,4
2,65,0,188
2,55,68,388
2,55,0,92
2,62,68,4
2,62,0,92
2,67,68,4
2,67,0,188
2,55,68,4
2,55,0,92
2,62,68,4
2,62,0,92
2,67,68,4
2,67,0,188
2,58,68,4
2,58,0,92
2,65,68,4
2,65,0,92
2,70,68,4
2,70,0,188
2,55,68,4
2,55,0,92
2,62,68,4
2,62,0,92
2,67,68,4
2,67,0,188
3,82,68,21504
3,82,0,184
3,86,68,8
3,86,0,184
3,84,68,8
3,84,0,184
3,89,68,8
3,89,0,184
3,86,68,8
3,86,0,184
3,82,68,8
3,82,0,376
3,82,68,8
3,82,0,88
3,84,68,8
3,84,0,88
3,86,68,8
3,86,0,184
3,86,68,8
3,84,68,48
3,86,0,16
3,84,0,24
3,82,68,8
3,82,0,64
3,82,68,32
3,82,0,184
3,81,68,8
3,81,0,188
3,77,68,4
3,77,0,188
3,79,68,4
3,79,0,92
3,81,68,4
3,81,0,92
3,82,68,4
3,82,0,380
3,82,68,4
3,82,0,184
3,86,68,8
3,86,0,184
3,84,68,8
3,84,0,184
3,89,68,8
3,89,0,184
3,86,68,8
3,86,0,184
3,82,68,8
3,82,0,376
