track,note,velocity,time
1,54,46,488
1,62,52,1
1,57,53,1
1,50,45,0
1,38,49,2
1,50,0,211
1,54,0,28
1,38,0,0
1,57,0,66
1,59,39,57
1,55,39,3
1,43,33,5
1,31,38,4
1,43,0,193
1,55,0,25
1,31,0,5
1,59,0,8
1,30,35,90
1,57,23,3
1,54,18,0
1,42,44,4
1,42,0,181
1,30,0,0
1,54,0,64
1,45,17,89
1,61,64,11
1,33,45,1
1,52,24,1
1,62,0,16
1,52,0,11
1,57,0,8
1,45,0,1
1,33,0,3
1,61,0,2
1,38,49,67
1,50,48,0
1,57,66,1
1,62,58,0
1,54,54,0
1,38,0,108
1,54,0,14
1,50,0,5
1,57,0,12
1,59,58,63
1,43,52,3
1,55,45,0
1,43,0,52
1,59,0,17
1,55,0,2
1,54,36,127
1,57,40,1
1,38,43,5
1,54,0,55
1,57,0,3
1,38,0,226
1,64,62,9
1,45,47,1
1,61,62,2
1,62,0,1
1,57,31,0
1,57,0,193
1,64,0,2
1,61,0,1
1,45,0,108
1,62,46,6
1,57,46,2
1,54,47,3
1,38,20,7
1,62,0,146
1,57,0,2
1,54,0,4
1,38,0,11
1,62,52,205
1,57,51,3
1,54,45,0
1,38,57,1
1,54,0,23
1,57,0,27
1,38,0,31
1,55,44,46
1,59,46,1
1,43,43,9
1,55,0,131
1,59,0,17
1,43,0,12
1,38,58,3
1,54,40,2
1,57,30,1
1,54,0,100
1,57,0,4
1,62,0,11
1,38,0,24
1,64,64,14
1,57,45,1
1,45,56,0
1,61,53,2
1,61,0,51
1,64,0,0
1,57,0,0
1,45,0,30
1,62,38,25
1,57,40,2
1,38,47,3
1,54,58,0
1,54,0,89
1,62,0,4
1,57,0,2
1,38,0,105
1,42,49,1
1,61,51,2
1,57,37,2
1,66,56,2
1,61,0,71
1,57,0,11
1,42,0,46
1,62,59,60
1,47,53,1
1,59,39,2
1,59,0,348
1,47,0,39
1,57,50,46
1,38,42,4
1,62,0,218
1,66,0,12
1,38,0,5
1,57,0,4
1,61,50,64
1,64,46,1
1,57,44,4
1,45,40,8
1,57,0,111
1,64,0,9
1,61,0,1
1,45,0,151
1,57,43,15
1,54,43,2
1,62,46,1
1,38,36,5
1,54,0,77
1,57,0,11
1,38,0,17
1,59,52,63
1,55,39,1
1,43,46,4
1,43,0,74
1,55,0,21
1,59,0,3
1,54,52,104
1,38,41,0
1,57,50,1
1,57,0,87
1,54,0,4
1,38,0,4
1,62,0,5
1,62,53,299
1,59,50,0
1,66,55,3
1,47,50,1
1,62,0,67
1,59,0,2
1,66,0,4
1,47,0,39
1,61,57,98
1,64,48,2
1,45,50,1
1,57,32,1
1,45,0,71
1,61,0,26
1,57,0,1
1,64,0,2
1,64,45,107
1,57,48,2
1,38,50,1
1,54,35,0
1,64,0,34
1,62,61,3
1,62,0,62
1,57,0,7
1,54,0,8
1,38,0,16
1,54,39,235
1,57,50,1
1,62,38,1
1,38,46,1
1,54,0,51
1,57,0,6
1,38,0,1
1,55,46,107
1,59,49,1
1,43,44,3
1,43,0,60
1,59,0,8
1,55,0,4
1,54,45,139
1,38,49,6
1,57,43,1
1,54,0,180
1,57,0,4
1,62,0,5
1,38,0,15
1,57,41,62
1,61,55,0
1,64,58,1
1,45,54,0
1,64,0,289
1,57,0,2
1,61,0,1
1,45,0,22
1,57,50,81
1,62,55,1
1,54,59,3
1,38,61,2
1,38,0,283
1,62,0,9
1,54,0,11
1,57,0,0
1,54,45,146
1,57,48,1
1,62,50,0
1,38,57,2
1,54,0,69
1,38,0,6
1,57,0,4
1,59,53,99
1,55,46,2
1,43,51,5
1,55,0,59
1,59,0,11
1,43,0,13
1,54,45,130
1,38,59,3
1,57,53,0
1,54,0,98
1,57,0,13
1,62,0,51
1,38,0,13
1,66,57,251
1,62,48,1
1,47,55,1
1,59,30,1
1,62,0,86
1,59,0,2
1,66,0,4
1,47,0,49
1,61,60,36
1,64,49,2
1,57,46,2
1,45,42,1
1,45,0,17
1,61,0,10
1,57,0,4
1,64,0,10
1,57,48,177
1,38,51,0
1,64,27,1
1,54,23,2
1,64,0,27
1,62,48,6
1,57,0,52
1,54,0,1
1,62,0,3
1,38,0,53
1,42,54,185
1,66,46,1
1,61,59,1
1,57,30,3
1,61,0,68
1,57,0,3
1,42,0,32
1,62,56,63
1,59,42,0
1,47,48,2
1,62,0,164
1,59,0,10
1,66,0,1
1,47,0,197
1,62,49,37
1,57,53,0
1,54,48,2
1,38,51,0
1,57,0,297
1,54,0,3
1,62,0,10
1,38,0,29
1,64,50,50
1,61,60,1
1,57,53,1
1,45,55,2
1,64,0,167
1,57,0,5
1,61,0,3
1,45,0,46
1,62,50,62
1,57,52,0
1,54,55,4
1,38,52,3
1,54,0,97
1,38,0,31
1,57,0,4
1,59,61,58
1,43,54,0
1,55,39,2
1,59,0,73
1,55,0,8
1,43,0,5
1,54,39,168
1,57,47,1
1,38,22,2
1,54,0,199
1,57,0,1
1,62,0,77
1,38,0,17
1,62,52,144
1,59,48,2
1,66,51,5
1,47,48,1
1,62,0,94
1,59,0,1
1,66,0,2
1,47,0,68
1,61,57,9
1,64,53,2
1,45,48,1
1,57,42,2
1,61,0,34
1,57,0,5
1,45,0,5
1,64,0,27
1,64,32,108
1,54,26,5
1,57,57,2
1,38,56,1
1,62,64,37
1,64,0,2
1,57,0,113
1,38,0,5
1,54,0,10
1,38,54,98
1,54,50,0
1,57,48,0
1,54,0,79
1,57,0,11
1,38,0,87
1,59,46,18
1,55,54,1
1,43,51,6
1,62,0,64
1,55,0,19
1,43,0,9
1,62,46,49
1,47,50,12
1,54,56,11
1,54,0,29
1,59,0,1
1,45,58,114
1,61,58,6
1,57,28,0
1,47,0,2
1,64,64,2
1,62,0,1
1,45,0,40
1,57,0,40
1,64,0,16
1,61,0,6
1,62,57,86
1,57,50,4
1,38,46,0
1,54,51,3
1,57,0,78
1,59,57,21
1,38,0,1
1,47,57,3
1,54,0,50
1,59,0,34
1,47,0,40
1,62,0,1
1,45,55,2
1,61,32,1
1,57,52,7
1,52,45,0
1,52,0,128
1,45,0,1
1,61,0,25
1,57,0,6
1,62,46,57
1,57,49,3
1,54,56,1
1,38,53,4
1,54,0,254
1,57,0,44
1,58,59,34
1,53,57,4
1,34,73,0
1,38,0,2
1,53,0,210
1,58,0,0
1,34,0,1
1,62,0,8
1,63,61,115
1,58,59,0
1,39,57,3
1,55,57,1
1,55,0,81
1,58,0,68
1,60,60,20
1,56,35,1
1,39,0,5
1,32,61,1
1,56,0,136
1,60,0,25
1,32,0,18
1,39,57,6
1,58,63,8
1,55,46,3
1,55,0,198
1,58,0,1
1,63,0,19
1,34,63,61
1,39,0,3
1,58,47,2
1,65,52,2
1,62,38,1
1,62,0,337
1,58,0,2
1,65,0,7
1,34,0,46
1,63,57,26
1,67,62,2
1,58,53,1
1,39,63,1
1,63,0,250
1,67,0,2
1,58,0,8
1,39,0,24
1,39,71,110
1,58,64,0
1,63,63,1
1,55,64,1
1,58,0,62
1,55,0,5
1,60,62,69
1,56,51,1
1,32,65,0
1,39,0,5
1,60,0,41
1,56,0,10
1,32,0,102
1,39,59,3
1,58,61,5
1,55,54,2
1,58,0,157
1,55,0,150
1,63,0,2
1,39,0,32
1,63,67,105
1,60,88,2
1,36,72,0
1,55,72,2
1,60,0,67
1,55,0,6
1,63,0,1
1,36,0,1
1,62,78,87
1,58,73,1
1,34,64,1
1,53,63,3
1,53,0,62
1,34,0,4
1,62,0,6
1,58,0,7
1,58,58,52
1,63,61,2
1,55,50,2
1,39,58,3
1,55,0,170
1,58,0,11
1,63,0,6
1,39,0,10
1,43,57,158
1,70,52,1
1,67,60,1
1,62,38,0
1,67,0,77
1,70,0,3
1,62,0,6
1,43,0,133
1,60,52,11
1,63,60,1
1,67,51,2
1,36,57,1
1,60,0,310
1,63,0,4
1,67,0,5
1,36,0,39
1,63,62,126
1,58,66,3
1,39,60,0
1,55,52,1
1,55,0,293
1,63,0,0
1,58,0,12
1,62,65,56
1,39,0,2
1,58,64,0
1,34,64,0
1,53,58,4
1,53,0,353
1,62,0,38
1,58,0,0
1,34,0,21
1,63,69,50
1,58,75,2
1,55,60,2
1,39,78,1
1,55,0,116
1,39,0,2
1,58,0,1
1,60,64,32
1,32,71,3
1,56,64,0
1,60,0,115
1,56,0,8
1,32,0,23
1,58,64,38
1,55,60,2
1,39,76,1
1,58,0,263
1,63,0,10
1,55,0,13
1,39,0,13
1,63,71,65
1,60,82,3
1,55,65,1
1,36,73,2
1,60,0,106
1,55,0,14
1,63,0,15
1,36,0,22
1,58,64,18
1,62,80,2
1,34,59,3
1,62,0,122
1,58,0,9
1,34,0,41
1,63,56,30
1,58,62,1
1,39,83,2
1,55,53,1
1,58,0,438
1,55,0,3
1,39,0,1
1,58,57,53
1,55,54,4
1,39,64,1
1,55,0,99
1,58,0,71
1,56,46,70
1,39,0,1
1,32,60,0
1,60,60,2
1,60,0,58
1,56,0,8
1,32,0,28
1,55,56,103
1,36,66,1
1,60,70,3
1,60,0,85
1,55,0,14
1,63,0,3
1,36,0,20
1,62,62,25
1,58,59,3
1,34,62,2
1,53,60,1
1,53,0,168
1,62,0,11
1,58,0,11
1,34,0,27
1,39,65,19
1,58,65,2
1,63,65,1
1,55,59,6
1,58,0,103
1,55,0,2
1,39,0,21
1,55,61,36
1,60,78,1
1,36,61,1
1,60,0,95
1,55,0,8
1,63,0,12
1,36,0,17
1,34,57,17
1,62,57,1
1,58,64,4
1,53,57,1
1,53,0,405
1,62,0,19
1,58,0,12
1,34,0,35
1,63,60,19
1,58,61,1
1,39,74,0
1,55,66,5
1,55,0,96
1,58,0,41
1,32,76,54
1,56,56,1
1,60,62,2
1,39,0,2
1,56,0,110
1,60,0,5
1,32,0,24
1,36,64,74
1,55,60,2
1,60,64,3
1,60,0,105
1,55,0,10
1,63,0,7
1,36,0,8
1,62,57,58
1,58,58,4
1,34,61,0
1,53,56,2
1,53,0,135
1,62,0,13
1,34,0,44
1,39,69,4
1,63,62,3
1,55,54,3
1,36,67,170
1,60,61,1
1,58,0,1
1,39,0,8
1,60,0,99
1,55,0,13
1,63,0,5
1,36,0,8
1,62,48,115
1,58,56,2
1,53,53,3
1,34,59,2
1,53,0,169
1,62,0,37
1,34,0,21
1,39,59,12
1,63,57,6
1,55,42,4
1,55,0,873
1,39,0,0
1,63,0,2
1,58,0,2
2,57,105,142
2,59,84,74
2,57,0,12
2,62,96,23
2,59,0,6
2,62,0,57
2,66,98,41
2,38,92,1
2,45,85,51
2,50,94,66
2,66,0,32
2,38,0,9
2,64,74,29
2,45,0,2
2,64,0,11
2,50,0,8
2,55,65,40
2,59,80,9
2,43,63,12
2,62,100,2
2,50,81,9
2,59,0,17
2,55,0,14
2,62,0,41
2,59,69,5
2,50,0,11
2,59,0,7
2,43,0,19
2,50,17,38
2,50,0,49
2,38,59,16
2,54,59,3
2,57,59,1
2,45,51,9
2,54,0,6
2,57,0,16
2,50,52,55
2,54,40,75
2,54,0,45
2,38,0,57
2,45,0,33
2,62,92,6
2,50,0,5
2,62,0,18
2,57,43,38
2,61,78,7
2,64,86,18
2,45,65,3
2,52,74,4
2,57,0,2
2,57,85,57
2,64,0,1
2,61,0,2
2,52,0,27
2,57,0,9
2,52,52,21
2,62,66,38
2,62,0,27
2,64,90,3
2,52,0,1
2,52,58,65
2,57,37,6
2,57,0,61
2,62,83,1
2,64,0,1
2,52,0,9
2,62,0,2
2,52,51,60
2,45,0,15
2,52,0,14
2,66,67,48
2,38,59,1
2,69,101,20
2,66,0,9
2,45,59,14
2,38,0,33
2,45,0,17
2,50,84,5
2,50,0,24
2,54,58,39
2,57,62,70
2,54,0,3
2,57,0,19
2,69,0,11
2,57,96,44
2,59,98,65
2,57,0,9
2,59,0,21
2,62,103,2
2,62,0,7
2,57,46,63
2,62,65,14
2,38,62,7
2,66,70,2
2,45,72,25
2,50,64,68
2,62,0,26
2,57,0,15
2,38,0,5
2,66,0,6
2,64,82,4
2,45,0,13
2,64,0,4
2,50,0,11
2,55,64,32
2,59,70,10
2,43,52,3
2,62,65,6
2,50,46,25
2,55,0,7
2,59,0,5
2,62,0,18
2,59,63,37
2,50,0,9
2,59,0,7
2,43,0,25
2,38,57,89
2,54,59,3
2,57,58,2
2,45,53,13
2,54,0,28
2,57,0,13
2,50,44,35
2,38,0,142
2,45,0,22
2,62,101,4
2,50,0,3
2,57,66,65
2,62,0,1
2,61,84,7
2,45,56,13
2,64,83,2
2,52,81,8
2,57,0,7
2,57,72,48
2,64,0,4
2,61,0,8
2,52,0,12
2,57,0,26
2,52,51,13
2,62,78,31
2,52,0,24
2,62,0,4
2,64,89,2
2,52,46,65
2,64,0,59
2,62,81,3
2,62,0,10
2,52,0,9
2,52,40,62
2,45,0,11
2,52,0,22
2,66,76,38
2,50,40,4
2,69,92,14
2,66,0,4
2,54,67,20
2,57,75,55
2,54,0,29
2,54,56,37
2,50,0,25
2,57,0,6
2,50,42,52
2,54,0,15
2,50,0,54
2,62,77,46
2,69,0,6
2,62,0,85
2,66,70,15
2,66,0,26
2,67,90,4
2,67,0,18
2,69,81,57
2,42,59,4
2,49,69,4
2,61,72,66
2,54,22,56
2,61,0,16
2,69,0,10
2,66,74,13
2,42,0,7
2,69,86,34
2,66,0,8
2,49,0,8
2,69,0,6
2,54,0,25
2,59,66,12
2,62,65,10
2,47,58,15
2,66,65,1
2,59,0,4
2,54,63,13
2,62,0,1
2,66,0,3
2,66,100,33
2,54,0,31
2,54,52,18
2,66,0,43
2,64,65,15
2,64,0,37
2,62,84,1
2,54,0,16
2,62,0,69
2,54,14,6
2,54,0,106
2,47,0,23
2,62,61,3
2,62,0,17
2,38,69,79
2,66,81,2
2,45,55,50
2,38,0,24
2,45,0,27
2,50,75,9
2,50,0,19
2,54,28,61
2,57,59,50
2,67,92,5
2,66,0,3
2,57,0,70
2,66,76,3
2,54,0,11
2,67,0,6
2,64,90,17
2,66,0,9
2,64,0,64
2,45,54,2
2,66,78,0
2,69,107,19
2,66,0,10
2,52,60,18
2,69,0,72
2,52,0,56
2,45,0,30
2,57,86,66
2,59,78,71
2,57,0,16
2,62,94,12
2,59,0,7
2,62,0,1
2,57,58,66
2,62,67,12
2,66,76,16
2,38,58,5
2,45,62,21
2,50,75,68
2,38,0,56
2,62,0,3
2,66,0,2
2,64,75,0
2,57,0,2
2,64,0,14
2,45,0,1
2,50,0,14
2,55,51,34
2,59,65,7
2,43,60,2
2,62,62,5
2,55,0,25
2,50,51,1
2,59,0,6
2,62,0,6
2,59,63,54
2,59,0,19
2,50,0,7
2,43,0,40
2,50,45,2
2,54,55,73
2,57,59,0
2,50,0,2
2,38,52,0
2,45,51,5
2,54,0,53
2,57,0,8
2,50,30,22
2,57,60,165
2,50,0,3
2,38,0,37
2,59,67,19
2,45,0,2
2,57,0,2
2,62,82,30
2,59,0,14
2,59,61,79
2,62,0,5
2,62,71,6
2,66,77,0
2,47,55,0
2,54,63,20
2,59,0,13
2,59,75,55
2,66,0,8
2,62,0,2
2,54,0,10
2,59,0,12
2,54,44,42
2,47,0,5
2,54,0,24
2,57,57,9
2,61,70,12
2,64,78,16
2,45,53,6
2,52,55,17
2,57,0,22
2,64,0,46
2,57,57,4
2,61,0,5
2,52,0,11
2,57,0,11
2,52,58,51
2,45,0,8
2,52,0,16
2,54,63,53
2,64,67,1
2,38,60,0
2,57,64,2
2,64,0,36
2,62,65,2
2,45,51,15
2,50,45,66
2,54,0,37
2,54,42,59
2,62,0,78
2,57,0,1
2,54,0,8
2,57,85,116
2,59,86,72
2,57,0,12
2,59,0,18
2,62,92,2
2,62,0,7
2,50,0,13
2,38,0,1
2,45,0,8
2,57,57,44
2,62,67,12
2,66,76,5
2,38,45,0
2,45,57,26
2,50,77,66
2,38,0,57
2,64,83,6
2,62,0,6
2,66,0,5
2,57,0,1
2,64,0,3
2,45,0,6
2,50,0,7
