track,note,velocity,time
1.0,79.0,103.0,3072.0
1.0,82.0,103.0,8.0
1.0,81.0,103.0,8.0
1.0,86.0,103.0,8.0
1.0,82.0,103.0,8.0
1.0,79.0,103.0,8.0
1.0,79.0,103.0,8.0
1.0,81.0,103.0,8.0
1.0,82.0,103.0,8.0
1.0,82.0,103.0,8.0
1.0,81.0,103.0,48.0
1.0,79.0,103.0,8.0
1.0,79.0,103.0,32.0
1.0,77.0,103.0,8.0
1.0,74.0,103.0,8.0
1.0,76.0,103.0,8.0
1.0,77.0,103.0,8.0
1.0,79.0,103.0,8.0
1.0,79.0,103.0,8.0
1.0,82.0,103.0,8.0
1.0,81.0,103.0,8.0
1.0,86.0,103.0,8.0
1.0,82.0,103.0,8.0
1.0,79.0,103.0,8.0
1.0,79.0,103.0,8.0
1.0,81.0,103.0,8.0
1.0,82.0,103.0,8.0
1.0,82.0,103.0,8.0
1.0,81.0,103.0,48.0
1.0,79.0,103.0,8.0
1.0,79.0,103.0,32.0
1.0,77.0,103.0,8.0
1.0,79.0,103.0,8.0
1.0,79.0,103.0,4.0
1.0,79.0,103.0,4.0
1.0,82.0,103.0,8.0
1.0,81.0,103.0,8.0
1.0,86.0,103.0,8.0
1.0,82.0,103.0,8.0
1.0,79.0,103.0,8.0
1.0,79.0,103.0,8.0
1.0,81.0,103.0,8.0
1.0,82.0,103.0,8.0
1.0,82.0,103.0,8.0
1.0,81.0,103.0,48.0
1.0,79.0,103.0,8.0
1.0,79.0,103.0,32.0
1.0,77.0,103.0,8.0
1.0,74.0,103.0,8.0
1.0,76.0,103.0,8.0
1.0,77.0,103.0,8.0
1.0,79.0,103.0,8.0
1.0,79.0,103.0,8.0
1.0,82.0,103.0,8.0
1.0,81.0,103.0,8.0
1.0,86.0,103.0,8.0
1.0,82.0,103.0,8.0
1.0,79.0,103.0,8.0
1.0,79.0,103.0,8.0
1.0,81.0,103.0,8.0
1.0,82.0,103.0,8.0
1.0,82.0,103.0,8.0
1.0,81.0,103.0,48.0
1.0,79.0,103.0,8.0
1.0,79.0,103.0,32.0
1.0,77.0,103.0,8.0
1.0,79.0,103.0,8.0
1.0,79.0,103.0,8.0
1.0,82.0,103.0,8.0
1.0,86.0,103.0,8.0
1.0,84.0,103.0,8.0
1.0,89.0,103.0,8.0
1.0,86.0,103.0,8.0
1.0,82.0,103.0,8.0
1.0,82.0,103.0,8.0
1.0,84.0,103.0,8.0
1.0,86.0,103.0,8.0
1.0,86.0,103.0,8.0
1.0,84.0,103.0,48.0
1.0,82.0,103.0,8.0
1.0,82.0,103.0,32.0
1.0,81.0,103.0,8.0
1.0,82.0,103.0,8.0
1.0,79.0,103.0,8.0
1.0,81.0,103.0,8.0
1.0,82.0,103.0,4.0
1.0,86.0,103.0,8.0
1.0,84.0,103.0,8.0
1.0,89.0,103.0,8.0
1.0,86.0,103.0,8.0
1.0,82.0,103.0,8.0
1.0,82.0,103.0,8.0
1.0,84.0,103.0,8.0
1.0,86.0,103.0,8.0
1.0,86.0,103.0,8.0
1.0,84.0,103.0,48.0
1.0,82.0,103.0,8.0
1.0,82.0,103.0,32.0
1.0,81.0,103.0,8.0
1.0,82.0,103.0,8.0
1.0,79.0,103.0,8.0
1.0,81.0,103.0,8.0
1.0,79.0,103.0,4.0
1.0,82.0,103.0,8.0
1.0,81.0,103.0,8.0
1.0,86.0,103.0,8.0
1.0,82.0,103.0,8.0
1.0,79.0,103.0,8.0
1.0,79.0,103.0,8.0
1.0,81.0,103.0,8.0
1.0,82.0,103.0,8.0
1.0,82.0,103.0,8.0
1.0,81.0,103.0,48.0
1.0,79.0,103.0,8.0
1.0,79.0,103.0,32.0
1.0,77.0,103.0,8.0
1.0,74.0,103.0,8.0
1.0,76.0,103.0,8.0
1.0,77.0,103.0,8.0
1.0,79.0,103.0,8.0
1.0,79.0,103.0,8.0
1.0,82.0,103.0,8.0
1.0,81.0,103.0,8.0
1.0,86.0,103.0,8.0
1.0,82.0,103.0,8.0
1.0,79.0,103.0,8.0
1.0,79.0,103.0,8.0
1.0,81.0,103.0,8.0
1.0,82.0,103.0,8.0
1.0,82.0,103.0,8.0
1.0,81.0,103.0,48.0
1.0,79.0,103.0,8.0
1.0,79.0,103.0,32.0
1.0,77.0,103.0,8.0
1.0,79.0,103.0,8.0
1.0,79.0,103.0,8.0
1.0,82.0,103.0,8.0
1.0,81.0,103.0,4.0
1.0,86.0,103.0,8.0
1.0,82.0,103.0,8.0
1.0,79.0,103.0,8.0
1.0,79.0,103.0,8.0
1.0,81.0,103.0,8.0
1.0,82.0,103.0,8.0
1.0,82.0,103.0,8.0
1.0,81.0,103.0,48.0
1.0,79.0,103.0,8.0
1.0,79.0,103.0,32.0
1.0,77.0,103.0,8.0
1.0,74.0,103.0,8.0
1.0,76.0,103.0,8.0
1.0,77.0,103.0,8.0
1.0,79.0,103.0,8.0
1.0,82.0,103.0,8.0
1.0,81.0,103.0,4.0
1.0,86.0,103.0,8.0
1.0,82.0,103.0,8.0
1.0,79.0,103.0,8.0
1.0,79.0,103.0,8.0
1.0,81.0,103.0,8.0
1.0,82.0,103.0,8.0
1.0,82.0,103.0,8.0
1.0,81.0,103.0,48.0
1.0,79.0,103.0,8.0
1.0,79.0,103.0,32.0
1.0,77.0,103.0,8.0
1.0,79.0,103.0,8.0
1.0,79.0,103.0,8.0
1.0,82.0,103.0,8.0
1.0,86.0,103.0,8.0
1.0,84.0,103.0,8.0
1.0,89.0,103.0,8.0
1.0,86.0,103.0,8.0
1.0,82.0,103.0,8.0
1.0,82.0,103.0,8.0
1.0,84.0,103.0,8.0
1.0,86.0,103.0,8.0
1.0,86.0,103.0,8.0
1.0,84.0,103.0,48.0
1.0,82.0,103.0,8.0
1.0,82.0,103.0,32.0
1.0,81.0,103.0,8.0
1.0,82.0,103.0,8.0
1.0,79.0,103.0,8.0
1.0,81.0,103.0,8.0
1.0,82.0,103.0,4.0
1.0,86.0,103.0,8.0
1.0,84.0,103.0,8.0
1.0,89.0,103.0,8.0
1.0,86.0,103.0,8.0
1.0,82.0,103.0,8.0
1.0,82.0,103.0,8.0
1.0,84.0,103.0,8.0
1.0,86.0,103.0,8.0
1.0,86.0,103.0,8.0
1.0,84.0,103.0,48.0
1.0,82.0,103.0,8.0
1.0,82.0,103.0,32.0
1.0,81.0,103.0,8.0
1.0,82.0,103.0,8.0
1.0,79.0,103.0,8.0
1.0,81.0,103.0,8.0
1.0,82.0,103.0,4.0
1.0,81.0,103.0,4.0
1.0,86.0,103.0,8.0
1.0,82.0,103.0,8.0
1.0,79.0,103.0,8.0
1.0,79.0,103.0,8.0
1.0,81.0,103.0,8.0
1.0,82.0,103.0,8.0
1.0,82.0,103.0,8.0
1.0,81.0,103.0,48.0
1.0,79.0,103.0,8.0
1.0,79.0,103.0,32.0
1.0,77.0,103.0,8.0
1.0,74.0,103.0,8.0
1.0,76.0,103.0,8.0
1.0,77.0,103.0,8.0
1.0,79.0,103.0,8.0
1.0,82.0,103.0,8.0
1.0,81.0,103.0,4.0
1.0,86.0,103.0,8.0
1.0,82.0,103.0,8.0
1.0,79.0,103.0,8.0
1.0,79.0,103.0,8.0
1.0,81.0,103.0,8.0
1.0,82.0,103.0,8.0
1.0,82.0,103.0,8.0
1.0,81.0,103.0,48.0
1.0,79.0,103.0,8.0
1.0,79.0,103.0,32.0
1.0,77.0,103.0,8.0
1.0,79.0,103.0,8.0
2.0,46.0,100.0,33792.0
2.0,41.0,100.0,4.0
2.0,46.0,100.0,4.0
2.0,46.0,100.0,4.0
2.0,43.0,100.0,4.0
2.0,46.0,100.0,4.0
2.0,41.0,100.0,4.0
2.0,46.0,100.0,4.0
2.0,46.0,100.0,4.0
2.0,43.0,100.0,4.0
2.0,43.0,100.0,4.0
2.0,43.0,100.0,4.0
2.0,41.0,100.0,4.0
2.0,43.0,100.0,4.0
2.0,43.0,100.0,4.0
2.0,43.0,100.0,4.0
2.0,41.0,100.0,4.0
2.0,43.0,100.0,4.0
3.0,82.0,68.0,21504.0
3.0,86.0,68.0,8.0
3.0,84.0,68.0,8.0
3.0,89.0,68.0,8.0
3.0,86.0,68.0,8.0
3.0,82.0,68.0,8.0
3.0,82.0,68.0,8.0
3.0,84.0,68.0,8.0
3.0,86.0,68.0,8.0
3.0,86.0,68.0,8.0
3.0,84.0,68.0,48.0
3.0,82.0,68.0,8.0
3.0,82.0,68.0,32.0
3.0,81.0,68.0,8.0
3.0,77.0,68.0,4.0
3.0,79.0,68.0,4.0
3.0,81.0,68.0,4.0
3.0,82.0,68.0,4.0
3.0,82.0,68.0,4.0
3.0,86.0,68.0,8.0
3.0,84.0,68.0,8.0
3.0,89.0,68.0,8.0
3.0,86.0,68.0,8.0
3.0,82.0,68.0,8.0
3.0,82.0,68.0,8.0
3.0,84.0,68.0,8.0
3.0,86.0,68.0,8.0
3.0,86.0,68.0,8.0
3.0,84.0,68.0,48.0
3.0,82.0,68.0,8.0
3.0,82.0,68.0,32.0
3.0,81.0,68.0,8.0
3.0,82.0,68.0,4.0
3.0,82.0,68.0,4.0
3.0,86.0,68.0,4.0
3.0,84.0,68.0,4.0
3.0,89.0,68.0,4.0
3.0,86.0,68.0,4.0
3.0,82.0,68.0,4.0
3.0,82.0,68.0,4.0
3.0,84.0,68.0,4.0
3.0,86.0,68.0,4.0
3.0,86.0,68.0,8.0
3.0,84.0,68.0,48.0
3.0,82.0,68.0,8.0
3.0,82.0,68.0,32.0
3.0,81.0,68.0,8.0
3.0,77.0,68.0,4.0
3.0,79.0,68.0,4.0
3.0,81.0,68.0,4.0
3.0,82.0,68.0,4.0
3.0,86.0,68.0,4.0
3.0,84.0,68.0,4.0
3.0,89.0,68.0,4.0
3.0,86.0,68.0,4.0
3.0,82.0,68.0,4.0
3.0,82.0,68.0,4.0
3.0,84.0,68.0,4.0
3.0,86.0,68.0,4.0
3.0,86.0,68.0,8.0
3.0,84.0,68.0,48.0
3.0,82.0,68.0,8.0
3.0,82.0,68.0,32.0
3.0,81.0,68.0,8.0
3.0,82.0,68.0,4.0
3.0,82.0,68.0,4.0
3.0,86.0,68.0,6148.0
3.0,84.0,68.0,4.0
3.0,89.0,68.0,4.0
3.0,86.0,68.0,4.0
3.0,82.0,68.0,4.0
3.0,82.0,68.0,4.0
3.0,84.0,68.0,4.0
3.0,86.0,68.0,4.0
3.0,86.0,68.0,8.0
3.0,84.0,68.0,48.0
3.0,82.0,68.0,8.0
3.0,82.0,68.0,32.0
3.0,81.0,68.0,8.0
3.0,77.0,68.0,4.0
3.0,79.0,68.0,4.0
3.0,81.0,68.0,4.0
3.0,82.0,68.0,4.0
3.0,86.0,68.0,4.0
3.0,84.0,68.0,4.0
3.0,89.0,68.0,4.0
3.0,86.0,68.0,4.0
3.0,82.0,68.0,4.0
3.0,82.0,68.0,4.0
3.0,84.0,68.0,4.0
3.0,86.0,68.0,4.0
3.0,86.0,68.0,8.0
3.0,84.0,68.0,48.0
3.0,82.0,68.0,8.0
3.0,82.0,68.0,32.0
3.0,81.0,68.0,8.0
3.0,82.0,68.0,4.0
4.0,55.0,68.0,3072.0
4.0,62.0,68.0,4.0
4.0,67.0,68.0,4.0
4.0,58.0,68.0,4.0
4.0,65.0,68.0,4.0
4.0,70.0,68.0,4.0
4.0,55.0,68.0,4.0
4.0,62.0,68.0,4.0
4.0,67.0,68.0,4.0
4.0,58.0,68.0,388.0
4.0,65.0,68.0,4.0
4.0,70.0,68.0,4.0
4.0,53.0,68.0,4.0
4.0,60.0,68.0,4.0
4.0,65.0,68.0,4.0
4.0,55.0,68.0,388.0
4.0,62.0,68.0,4.0
4.0,67.0,68.0,4.0
4.0,55.0,68.0,4.0
4.0,62.0,68.0,4.0
4.0,67.0,68.0,4.0
4.0,58.0,68.0,4.0
4.0,65.0,68.0,4.0
4.0,70.0,68.0,4.0
4.0,55.0,68.0,4.0
4.0,62.0,68.0,4.0
4.0,67.0,68.0,4.0
4.0,58.0,68.0,388.0
4.0,65.0,68.0,4.0
4.0,70.0,68.0,4.0
4.0,53.0,68.0,4.0
4.0,60.0,68.0,4.0
4.0,65.0,68.0,4.0
4.0,55.0,68.0,4.0
4.0,62.0,68.0,4.0
4.0,67.0,68.0,4.0
4.0,55.0,68.0,388.0
4.0,62.0,68.0,4.0
4.0,67.0,68.0,4.0
4.0,58.0,68.0,4.0
4.0,65.0,68.0,4.0
4.0,70.0,68.0,4.0
4.0,55.0,68.0,4.0
4.0,62.0,68.0,4.0
4.0,67.0,68.0,4.0
4.0,58.0,68.0,388.0
4.0,65.0,68.0,4.0
4.0,70.0,68.0,4.0
4.0,53.0,68.0,4.0
4.0,60.0,68.0,4.0
4.0,65.0,68.0,4.0
4.0,55.0,68.0,388.0
4.0,62.0,68.0,4.0
4.0,67.0,68.0,4.0
4.0,55.0,68.0,4.0
4.0,62.0,68.0,4.0
4.0,67.0,68.0,4.0
4.0,58.0,68.0,4.0
4.0,65.0,68.0,4.0
4.0,70.0,68.0,4.0
4.0,55.0,68.0,4.0
4.0,62.0,68.0,4.0
4.0,67.0,68.0,4.0
4.0,58.0,68.0,388.0
4.0,65.0,68.0,8.0
4.0,70.0,68.0,8.0
4.0,53.0,68.0,8.0
4.0,60.0,68.0,8.0
4.0,65.0,68.0,8.0
4.0,55.0,68.0,8.0
4.0,62.0,68.0,8.0
4.0,67.0,68.0,8.0
4.0,58.0,68.0,392.0
4.0,65.0,68.0,8.0
4.0,70.0,68.0,8.0
4.0,53.0,68.0,8.0
4.0,60.0,68.0,8.0
4.0,65.0,68.0,8.0
4.0,58.0,68.0,8.0
4.0,65.0,68.0,8.0
4.0,70.0,68.0,8.0
4.0,58.0,68.0,392.0
4.0,65.0,68.0,8.0
4.0,70.0,68.0,8.0
4.0,55.0,68.0,392.0
4.0,62.0,68.0,4.0
4.0,67.0,68.0,4.0
4.0,62.0,68.0,4.0
4.0,69.0,68.0,4.0
4.0,74.0,68.0,4.0
4.0,58.0,68.0,4.0
4.0,65.0,68.0,8.0
4.0,70.0,68.0,8.0
4.0,53.0,68.0,8.0
4.0,60.0,68.0,8.0
4.0,65.0,68.0,8.0
4.0,58.0,68.0,8.0
4.0,65.0,68.0,8.0
4.0,70.0,68.0,8.0
4.0,58.0,68.0,392.0
4.0,65.0,68.0,8.0
4.0,70.0,68.0,8.0
4.0,55.0,68.0,392.0
4.0,62.0,68.0,4.0
4.0,67.0,68.0,4.0
4.0,62.0,68.0,4.0
4.0,69.0,68.0,4.0
4.0,74.0,68.0,4.0
4.0,55.0,68.0,4.0
4.0,62.0,68.0,4.0
4.0,67.0,68.0,4.0
4.0,58.0,68.0,4.0
4.0,65.0,68.0,4.0
4.0,70.0,68.0,4.0
4.0,55.0,68.0,4.0
4.0,62.0,68.0,4.0
4.0,67.0,68.0,4.0
4.0,58.0,68.0,388.0
4.0,65.0,68.0,4.0
4.0,70.0,68.0,4.0
4.0,53.0,68.0,4.0
4.0,60.0,68.0,4.0
4.0,65.0,68.0,4.0
4.0,55.0,68.0,388.0
4.0,62.0,68.0,4.0
4.0,67.0,68.0,4.0
4.0,55.0,68.0,4.0
4.0,62.0,68.0,4.0
4.0,67.0,68.0,4.0
4.0,58.0,68.0,4.0
4.0,65.0,68.0,4.0
4.0,70.0,68.0,4.0
4.0,55.0,68.0,4.0
4.0,62.0,68.0,4.0
4.0,67.0,68.0,4.0
4.0,58.0,68.0,388.0
4.0,65.0,68.0,4.0
4.0,70.0,68.0,4.0
4.0,53.0,68.0,4.0
4.0,60.0,68.0,4.0
4.0,65.0,68.0,4.0
4.0,55.0,68.0,4.0
4.0,62.0,68.0,4.0
4.0,67.0,68.0,4.0
4.0,55.0,68.0,388.0
4.0,62.0,68.0,4.0
4.0,67.0,68.0,4.0
4.0,58.0,68.0,4.0
4.0,65.0,68.0,4.0
4.0,70.0,68.0,4.0
4.0,55.0,68.0,4.0
4.0,62.0,68.0,4.0
4.0,67.0,68.0,4.0
4.0,58.0,68.0,388.0
4.0,65.0,68.0,4.0
4.0,70.0,68.0,4.0
4.0,53.0,68.0,4.0
4.0,60.0,68.0,4.0
4.0,65.0,68.0,4.0
4.0,55.0,68.0,388.0
4.0,62.0,68.0,4.0
4.0,67.0,68.0,4.0
4.0,55.0,68.0,4.0
4.0,62.0,68.0,4.0
4.0,67.0,68.0,4.0
4.0,58.0,68.0,4.0
4.0,65.0,68.0,4.0
4.0,70.0,68.0,4.0
4.0,55.0,68.0,4.0
4.0,62.0,68.0,4.0
4.0,67.0,68.0,4.0
4.0,58.0,68.0,388.0
4.0,65.0,68.0,4.0
4.0,70.0,68.0,4.0
4.0,53.0,68.0,4.0
4.0,60.0,68.0,4.0
4.0,65.0,68.0,4.0
4.0,55.0,68.0,4.0
4.0,62.0,68.0,4.0
4.0,67.0,68.0,4.0
4.0,58.0,68.0,388.0
4.0,65.0,68.0,8.0
4.0,70.0,68.0,8.0
4.0,53.0,68.0,8.0
4.0,60.0,68.0,8.0
4.0,65.0,68.0,8.0
4.0,58.0,68.0,8.0
4.0,65.0,68.0,8.0
4.0,70.0,68.0,8.0
4.0,58.0,68.0,392.0
4.0,65.0,68.0,8.0
4.0,70.0,68.0,8.0
4.0,55.0,68.0,392.0
4.0,62.0,68.0,4.0
4.0,67.0,68.0,4.0
4.0,62.0,68.0,4.0
4.0,69.0,68.0,4.0
4.0,74.0,68.0,4.0
4.0,58.0,68.0,4.0
4.0,65.0,68.0,8.0
4.0,70.0,68.0,8.0
4.0,53.0,68.0,8.0
4.0,60.0,68.0,8.0
4.0,65.0,68.0,8.0
4.0,58.0,68.0,8.0
4.0,65.0,68.0,8.0
4.0,70.0,68.0,8.0
4.0,58.0,68.0,392.0
4.0,65.0,68.0,8.0
4.0,70.0,68.0,8.0
4.0,55.0,68.0,392.0
4.0,62.0,68.0,4.0
4.0,67.0,68.0,4.0
4.0,62.0,68.0,4.0
4.0,69.0,68.0,4.0
4.0,74.0,68.0,4.0
4.0,55.0,68.0,4.0
4.0,62.0,68.0,4.0
4.0,67.0,68.0,4.0
4.0,58.0,68.0,4.0
4.0,65.0,68.0,4.0
4.0,70.0,68.0,4.0
4.0,55.0,68.0,4.0
4.0,62.0,68.0,4.0
4.0,67.0,68.0,4.0
4.0,58.0,68.0,388.0
4.0,65.0,68.0,4.0
4.0,70.0,68.0,4.0
4.0,53.0,68.0,4.0
4.0,60.0,68.0,4.0
4.0,65.0,68.0,4.0
4.0,55.0,68.0,388.0
4.0,62.0,68.0,4.0
4.0,67.0,68.0,4.0
4.0,55.0,68.0,4.0
4.0,62.0,68.0,4.0
4.0,67.0,68.0,4.0
4.0,58.0,68.0,4.0
4.0,65.0,68.0,4.0
4.0,70.0,68.0,4.0
4.0,55.0,68.0,4.0
4.0,62.0,68.0,4.0
4.0,67.0,68.0,4.0
5.0,35.0,71.0,480.0
5.0,35.0,71.0,8.0
5.0,35.0,71.0,8.0
5.0,54.0,100.0,8.0
5.0,35.0,71.0,96.0
5.0,35.0,71.0,8.0
5.0,35.0,71.0,8.0
5.0,35.0,71.0,104.0
5.0,35.0,71.0,8.0
5.0,35.0,71.0,8.0
5.0,54.0,100.0,8.0
5.0,35.0,71.0,0.0
5.0,35.0,71.0,8.0
5.0,35.0,71.0,104.0
5.0,35.0,71.0,8.0
5.0,35.0,71.0,8.0
5.0,54.0,100.0,8.0
5.0,35.0,71.0,96.0
5.0,35.0,71.0,8.0
5.0,35.0,71.0,8.0
5.0,35.0,71.0,104.0
5.0,35.0,71.0,8.0
5.0,35.0,71.0,8.0
5.0,54.0,100.0,8.0
5.0,35.0,71.0,0.0
5.0,35.0,71.0,8.0
5.0,54.0,100.0,8.0
5.0,35.0,71.0,96.0
5.0,35.0,71.0,8.0
5.0,35.0,71.0,8.0
5.0,54.0,100.0,8.0
5.0,35.0,71.0,96.0
5.0,35.0,71.0,8.0
5.0,35.0,71.0,8.0
5.0,54.0,100.0,8.0
5.0,35.0,71.0,96.0
5.0,35.0,71.0,8.0
5.0,35.0,71.0,8.0
5.0,54.0,100.0,8.0
5.0,35.0,71.0,96.0
5.0,35.0,71.0,8.0
5.0,35.0,71.0,8.0
5.0,54.0,100.0,8.0
5.0,35.0,71.0,96.0
5.0,35.0,71.0,8.0
5.0,35.0,71.0,8.0
5.0,54.0,100.0,8.0
5.0,35.0,71.0,96.0
5.0,35.0,71.0,8.0
5.0,35.0,71.0,8.0
5.0,54.0,100.0,8.0
5.0,35.0,71.0,96.0
5.0,35.0,71.0,8.0
5.0,35.0,71.0,8.0
5.0,54.0,100.0,8.0
5.0,35.0,71.0,96.0
5.0,35.0,71.0,8.0
5.0,35.0,71.0,8.0
5.0,54.0,100.0,8.0
5.0,35.0,71.0,96.0
5.0,35.0,71.0,8.0
5.0,35.0,71.0,8.0
5.0,54.0,100.0,8.0
5.0,35.0,71.0,96.0
5.0,35.0,71.0,8.0
5.0,35.0,71.0,8.0
5.0,54.0,100.0,8.0
5.0,35.0,71.0,96.0
5.0,35.0,71.0,8.0
5.0,35.0,71.0,8.0
5.0,54.0,100.0,8.0
5.0,35.0,71.0,96.0
5.0,35.0,71.0,8.0
5.0,35.0,71.0,8.0
5.0,54.0,100.0,8.0
5.0,35.0,71.0,96.0
5.0,35.0,71.0,8.0
5.0,35.0,71.0,8.0
5.0,54.0,100.0,8.0
5.0,35.0,71.0,96.0
5.0,35.0,71.0,8.0
5.0,35.0,71.0,8.0
5.0,54.0,100.0,8.0
5.0,35.0,71.0,96.0
5.0,35.0,71.0,8.0
5.0,35.0,71.0,8.0
5.0,54.0,100.0,8.0
5.0,35.0,71.0,0.0
5.0,35.0,71.0,8.0
5.0,54.0,100.0,8.0
5.0,35.0,71.0,96.0
5.0,35.0,71.0,8.0
5.0,35.0,71.0,8.0
5.0,54.0,100.0,8.0
5.0,35.0,71.0,96.0
5.0,35.0,71.0,8.0
5.0,35.0,71.0,8.0
5.0,54.0,100.0,8.0
5.0,35.0,71.0,96.0
5.0,35.0,71.0,8.0
5.0,35.0,71.0,8.0
5.0,35.0,71.0,8.0
5.0,35.0,71.0,4.0
5.0,35.0,71.0,104.0
5.0,35.0,71.0,8.0
5.0,35.0,71.0,8.0
5.0,54.0,100.0,8.0
5.0,35.0,71.0,96.0
5.0,35.0,71.0,8.0
5.0,35.0,71.0,8.0
5.0,54.0,100.0,8.0
5.0,35.0,71.0,96.0
5.0,35.0,71.0,8.0
5.0,35.0,71.0,8.0
5.0,54.0,100.0,8.0
5.0,35.0,71.0,96.0
5.0,35.0,71.0,8.0
5.0,35.0,71.0,8.0
5.0,54.0,100.0,8.0
5.0,35.0,71.0,96.0
5.0,35.0,71.0,8.0
5.0,35.0,71.0,8.0
5.0,54.0,100.0,8.0
5.0,35.0,71.0,96.0
5.0,35.0,71.0,8.0
5.0,35.0,71.0,8.0
5.0,54.0,100.0,8.0
5.0,35.0,71.0,96.0
5.0,35.0,71.0,8.0
5.0,35.0,71.0,8.0
5.0,54.0,100.0,8.0
5.0,35.0,71.0,96.0
5.0,35.0,71.0,8.0
5.0,35.0,71.0,8.0
5.0,54.0,100.0,8.0
5.0,35.0,71.0,96.0
5.0,35.0,71.0,8.0
5.0,35.0,71.0,8.0
5.0,54.0,100.0,8.0
5.0,35.0,71.0,96.0
5.0,35.0,71.0,8.0
5.0,35.0,71.0,8.0
5.0,54.0,100.0,8.0
5.0,35.0,71.0,96.0
5.0,35.0,71.0,8.0
5.0,35.0,71.0,8.0
5.0,35.0,71.0,392.0
5.0,54.0,100.0,8.0
5.0,35.0,71.0,96.0
5.0,35.0,71.0,8.0
5.0,35.0,71.0,8.0
5.0,54.0,100.0,8.0
5.0,35.0,71.0,96.0
5.0,35.0,71.0,8.0
5.0,35.0,71.0,8.0
5.0,54.0,100.0,8.0
5.0,35.0,71.0,96.0
5.0,35.0,71.0,8.0
5.0,35.0,71.0,8.0
5.0,54.0,100.0,8.0
5.0,35.0,71.0,0.0
5.0,35.0,71.0,4.0
5.0,35.0,71.0,8.0
5.0,54.0,100.0,8.0
5.0,35.0,71.0,96.0
5.0,35.0,71.0,8.0
5.0,35.0,71.0,8.0
5.0,54.0,100.0,8.0
5.0,35.0,71.0,96.0
5.0,35.0,71.0,8.0
5.0,35.0,71.0,8.0
5.0,54.0,100.0,8.0
5.0,35.0,71.0,96.0
5.0,35.0,71.0,8.0
5.0,35.0,71.0,8.0
5.0,54.0,100.0,8.0
5.0,35.0,71.0,0.0
5.0,35.0,71.0,4.0
5.0,54.0,100.0,8.0
5.0,35.0,71.0,96.0
5.0,35.0,71.0,8.0
5.0,35.0,71.0,8.0
5.0,54.0,100.0,8.0
5.0,35.0,71.0,96.0
5.0,35.0,71.0,8.0
5.0,35.0,71.0,8.0
5.0,54.0,100.0,8.0
5.0,35.0,71.0,96.0
5.0,35.0,71.0,8.0
5.0,35.0,71.0,8.0
5.0,54.0,100.0,8.0
5.0,35.0,71.0,96.0
5.0,35.0,71.0,8.0
5.0,35.0,71.0,8.0
5.0,54.0,100.0,8.0
5.0,35.0,71.0,96.0
5.0,35.0,71.0,8.0
5.0,35.0,71.0,8.0
5.0,54.0,100.0,8.0
5.0,35.0,71.0,96.0
5.0,35.0,71.0,8.0
5.0,35.0,71.0,8.0
5.0,54.0,100.0,8.0
5.0,35.0,71.0,96.0
5.0,35.0,71.0,8.0
5.0,35.0,71.0,8.0
5.0,54.0,100.0,8.0
5.0,35.0,71.0,96.0
5.0,35.0,71.0,8.0
5.0,35.0,71.0,8.0
5.0,54.0,100.0,8.0
5.0,35.0,71.0,96.0
5.0,35.0,71.0,8.0
5.0,35.0,71.0,8.0
5.0,35.0,71.0,104.0
5.0,35.0,71.0,8.0
5.0,35.0,71.0,8.0
5.0,54.0,100.0,8.0
5.0,35.0,71.0,96.0
5.0,35.0,71.0,8.0
5.0,35.0,71.0,8.0
5.0,54.0,100.0,8.0
5.0,35.0,71.0,0.0
0.0,0.0,0.0,0.0
0.0,0.0,0.0,0.0
0.0,0.0,0.0,0.0
0.0,0.0,0.0,0.0
0.0,0.0,0.0,0.0
0.0,0.0,0.0,0.0
0.0,0.0,0.0,0.0
0.0,0.0,0.0,0.0
0.0,0.0,0.0,0.0
0.0,0.0,0.0,0.0
0.0,0.0,0.0,0.0
0.0,0.0,0.0,0.0
0.0,0.0,0.0,0.0
0.0,0.0,0.0,0.0
0.0,0.0,0.0,0.0
0.0,0.0,0.0,0.0
0.0,0.0,0.0,0.0
0.0,0.0,0.0,0.0
0.0,0.0,0.0,0.0
0.0,0.0,0.0,0.0
0.0,0.0,0.0,0.0
0.0,0.0,0.0,0.0
0.0,0.0,0.0,0.0
0.0,0.0,0.0,0.0
0.0,0.0,0.0,0.0
0.0,0.0,0.0,0.0
0.0,0.0,0.0,0.0
0.0,0.0,0.0,0.0
0.0,0.0,0.0,0.0
0.0,0.0,0.0,0.0
0.0,0.0,0.0,0.0
0.0,0.0,0.0,0.0
0.0,0.0,0.0,0.0
0.0,0.0,0.0,0.0
0.0,0.0,0.0,0.0
0.0,0.0,0.0,0.0
0.0,0.0,0.0,0.0
0.0,0.0,0.0,0.0
0.0,0.0,0.0,0.0
0.0,0.0,0.0,0.0
0.0,0.0,0.0,0.0
0.0,0.0,0.0,0.0
0.0,0.0,0.0,0.0
0.0,0.0,0.0,0.0
0.0,0.0,0.0,0.0
0.0,0.0,0.0,0.0
0.0,0.0,0.0,0.0
0.0,0.0,0.0,0.0
0.0,0.0,0.0,0.0
0.0,0.0,0.0,0.0
0.0,0.0,0.0,0.0
0.0,0.0,0.0,0.0
0.0,0.0,0.0,0.0
0.0,0.0,0.0,0.0
0.0,0.0,0.0,0.0
0.0,0.0,0.0,0.0
0.0,0.0,0.0,0.0
0.0,0.0,0.0,0.0
0.0,0.0,0.0,0.0
0.0,0.0,0.0,0.0
0.0,0.0,0.0,0.0
0.0,0.0,0.0,0.0
0.0,0.0,0.0,0.0
0.0,0.0,0.0,0.0
0.0,0.0,0.0,0.0
0.0,0.0,0.0,0.0
0.0,0.0,0.0,0.0
0.0,0.0,0.0,0.0
0.0,0.0,0.0,0.0
0.0,0.0,0.0,0.0
0.0,0.0,0.0,0.0
0.0,0.0,0.0,0.0
0.0,0.0,0.0,0.0
0.0,0.0,0.0,0.0
0.0,0.0,0.0,0.0
0.0,0.0,0.0,0.0
0.0,0.0,0.0,0.0
0.0,0.0,0.0,0.0
0.0,0.0,0.0,0.0
0.0,0.0,0.0,0.0
0.0,0.0,0.0,0.0
0.0,0.0,0.0,0.0
0.0,0.0,0.0,0.0
0.0,0.0,0.0,0.0
0.0,0.0,0.0,0.0
0.0,0.0,0.0,0.0
0.0,0.0,0.0,0.0
0.0,0.0,0.0,0.0
0.0,0.0,0.0,0.0
0.0,0.0,0.0,0.0
0.0,0.0,0.0,0.0
0.0,0.0,0.0,0.0
0.0,0.0,0.0,0.0
0.0,0.0,0.0,0.0
0.0,0.0,0.0,0.0
0.0,0.0,0.0,0.0
0.0,0.0,0.0,0.0
0.0,0.0,0.0,0.0
0.0,0.0,0.0,0.0
0.0,0.0,0.0,0.0
0.0,0.0,0.0,0.0
0.0,0.0,0.0,0.0
0.0,0.0,0.0,0.0
0.0,0.0,0.0,0.0
0.0,0.0,0.0,0.0
0.0,0.0,0.0,0.0
0.0,0.0,0.0,0.0
0.0,0.0,0.0,0.0
0.0,0.0,0.0,0.0
0.0,0.0,0.0,0.0
0.0,0.0,0.0,0.0
0.0,0.0,0.0,0.0
0.0,0.0,0.0,0.0
0.0,0.0,0.0,0.0
0.0,0.0,0.0,0.0
0.0,0.0,0.0,0.0
0.0,0.0,0.0,0.0
0.0,0.0,0.0,0.0
0.0,0.0,0.0,0.0
0.0,0.0,0.0,0.0
0.0,0.0,0.0,0.0
0.0,0.0,0.0,0.0
0.0,0.0,0.0,0.0
0.0,0.0,0.0,0.0
0.0,0.0,0.0,0.0
0.0,0.0,0.0,0.0
0.0,0.0,0.0,0.0
0.0,0.0,0.0,0.0
0.0,0.0,0.0,0.0
0.0,0.0,0.0,0.0
0.0,0.0,0.0,0.0
0.0,0.0,0.0,0.0
0.0,0.0,0.0,0.0
0.0,0.0,0.0,0.0
0.0,0.0,0.0,0.0
0.0,0.0,0.0,0.0
0.0,0.0,0.0,0.0
0.0,0.0,0.0,0.0
0.0,0.0,0.0,0.0
0.0,0.0,0.0,0.0
0.0,0.0,0.0,0.0
0.0,0.0,0.0,0.0
0.0,0.0,0.0,0.0
0.0,0.0,0.0,0.0
0.0,0.0,0.0,0.0
0.0,0.0,0.0,0.0
0.0,0.0,0.0,0.0
0.0,0.0,0.0,0.0
0.0,0.0,0.0,0.0
0.0,0.0,0.0,0.0
0.0,0.0,0.0,0.0
0.0,0.0,0.0,0.0
0.0,0.0,0.0,0.0
0.0,0.0,0.0,0.0
0.0,0.0,0.0,0.0
0.0,0.0,0.0,0.0
0.0,0.0,0.0,0.0
0.0,0.0,0.0,0.0
0.0,0.0,0.0,0.0
0.0,0.0,0.0,0.0
0.0,0.0,0.0,0.0
0.0,0.0,0.0,0.0
0.0,0.0,0.0,0.0
0.0,0.0,0.0,0.0
0.0,0.0,0.0,0.0
0.0,0.0,0.0,0.0
0.0,0.0,0.0,0.0
0.0,0.0,0.0,0.0
0.0,0.0,0.0,0.0
0.0,0.0,0.0,0.0
0.0,0.0,0.0,0.0
0.0,0.0,0.0,0.0
0.0,0.0,0.0,0.0
0.0,0.0,0.0,0.0
0.0,0.0,0.0,0.0
0.0,0.0,0.0,0.0
0.0,0.0,0.0,0.0
0.0,0.0,0.0,0.0
0.0,0.0,0.0,0.0
0.0,0.0,0.0,0.0
0.0,0.0,0.0,0.0
0.0,0.0,0.0,0.0
0.0,0.0,0.0,0.0
0.0,0.0,0.0,0.0
0.0,0.0,0.0,0.0
0.0,0.0,0.0,0.0
