track,note,velocity,time
3,69,77,13225
3,69,0,38
3,71,78,154
3,71,0,186
3,69,77,3
3,69,0,177
3,73,74,18
3,73,0,432
3,69,78,737
3,69,0,134
3,71,75,33
3,71,0,53
3,73,73,158
3,73,0,374
3,69,76,958
3,69,0,188
3,71,75,4
3,73,77,193
3,71,0,10
3,73,0,549
3,74,78,12
3,74,0,71
3,73,77,125
3,71,75,183
3,73,0,22
3,69,78,175
3,71,0,7
3,69,0,178
3,73,76,0
3,73,0,353
3,73,77,631
3,74,74,194
3,73,0,3
3,73,77,179
3,74,0,4
3,73,0,174
3,74,76,8
3,73,77,191
3,74,0,38
3,73,0,338
3,69,78,13
3,69,0,62
3,69,79,136
3,66,73,370
3,69,0,25
3,66,0,136
3,69,76,36
3,71,76,179
3,69,0,31
3,73,81,164
3,71,0,31
3,73,0,209
3,73,75,141
3,71,78,206
3,73,0,22
3,71,0,203
3,69,74,345
3,73,77,195
3,69,0,31
3,73,0,462
3,73,75,76
3,71,74,201
3,73,0,41
3,73,70,470
3,71,0,21
3,73,0,177
3,69,74,49
3,69,0,636
3,69,75,528
3,71,74,125
3,69,0,59
3,73,76,190
3,71,0,10
3,73,0,897
3,69,80,246
3,69,0,44
3,71,78,158
3,73,75,206
3,71,0,62
3,73,0,516
3,69,78,669
3,71,75,201
3,69,0,38
3,73,79,223
3,71,0,10
3,74,81,566
3,73,0,3
3,74,0,56
3,73,74,149
3,71,77,190
3,73,0,25
3,69,80,165
3,71,0,8
3,73,80,167
3,69,0,2
3,73,0,521
3,73,74,442
3,74,76,181
3,73,0,18
3,73,77,120
3,74,0,72
3,74,77,121
3,73,0,18
3,73,81,226
3,74,0,11
3,73,0,304
3,73,75,68
3,73,0,68
3,69,83,148
3,66,74,366
3,69,0,3
3,66,0,178
3,69,78,14
3,71,76,182
3,69,0,7
3,73,75,201
3,71,0,71
3,73,0,210
3,73,75,100
3,71,78,184
3,73,0,26
3,71,0,296
3,69,79,250
3,69,0,280
3,76,75,109
3,76,0,402
3,72,73,561
3,74,77,193
3,72,0,10
3,76,79,180
3,74,0,11
3,76,0,405
3,72,78,930
3,74,76,192
3,72,0,40
3,76,79,151
3,74,0,32
3,77,78,550
3,76,0,8
3,77,0,66
3,76,77,119
3,74,74,182
3,76,0,51
3,72,75,150
3,74,0,6
3,72,0,178
3,76,78,7
3,76,0,509
3,77,76,458
3,79,73,171
3,77,0,9
3,79,0,98
3,77,76,100
3,79,74,127
3,77,0,58
3,79,0,129
3,76,74,57
3,76,0,257
3,76,75,132
3,74,77,224
3,76,0,67
3,74,0,239
3,74,77,170
3,72,77,272
3,74,0,14
3,72,0,481
3,69,78,648
3,69,0,50
3,72,77,144
3,74,77,132
3,72,0,60
3,74,0,174
3,76,77,17
3,76,0,277
3,76,75,117
3,74,79,188
3,76,0,25
3,74,0,363
3,74,75,181
3,72,79,202
3,74,0,33
3,72,0,398
3,69,78,522
3,69,0,73
3,71,79,125
3,72,75,504
3,71,0,40
3,72,0,534
3,69,78,1815
3,69,0,231
3,71,76,29
3,71,0,291
3,72,78,19
3,72,0,639
3,76,79,1848
3,76,0,272
3,77,78,8
3,77,0,216
3,72,76,101
3,72,0,608
3,69,77,2072
3,69,0,38
3,71,78,153
3,73,74,180
3,71,0,6
3,73,0,426
3,69,78,737
3,69,0,134
3,71,75,33
3,71,0,53
3,73,73,158
3,73,0,374
3,69,76,958
3,69,0,188
3,71,75,4
3,73,77,193
3,71,0,10
3,73,0,549
3,74,78,12
3,74,0,71
3,73,77,125
3,71,75,183
3,73,0,22
3,69,78,175
3,71,0,7
3,69,0,178
3,73,76,0
3,73,0,353
3,69,77,439
3,73,77,192
3,69,0,5
3,74,74,189
3,73,0,3
3,73,77,179
3,74,0,4
3,73,0,174
3,74,76,8
3,73,77,191
3,74,0,38
3,73,0,338
3,69,78,13
3,69,0,62
3,69,79,136
3,66,73,370
3,69,0,25
3,66,0,136
3,69,76,36
3,71,76,179
3,69,0,31
3,73,81,164
3,71,0,31
3,73,0,209
3,73,75,141
3,71,78,206
3,73,0,22
3,71,0,203
3,69,74,345
3,73,77,195
3,69,0,31
3,73,0,462
3,73,75,76
3,71,74,201
3,73,0,41
3,73,70,470
3,71,0,21
3,73,0,177
3,69,74,49
3,69,0,636
3,69,75,528
3,71,74,125
3,69,0,59
3,73,76,190
3,71,0,10
3,73,0,897
3,69,80,246
3,69,0,44
3,71,78,158
3,73,75,206
3,71,0,62
3,73,0,516
3,69,78,669
3,71,75,201
3,69,0,38
3,73,79,223
3,71,0,10
3,74,81,566
3,73,0,3
3,74,0,56
3,73,74,149
3,71,77,190
3,73,0,25
3,69,80,165
3,71,0,8
3,73,80,167
3,69,0,2
3,73,0,521
3,73,74,442
3,74,76,181
3,73,0,18
3,73,77,120
3,74,0,72
3,74,77,121
3,73,0,18
3,73,81,226
3,74,0,11
3,73,0,304
3,73,75,68
3,73,0,68
3,69,83,148
3,66,74,366
3,69,0,3
3,66,0,178
3,69,78,14
3,71,76,182
3,69,0,7
3,73,75,201
3,71,0,71
3,73,0,210
3,73,75,100
3,71,78,184
3,73,0,26
3,71,0,296
3,69,79,250
3,69,0,280
3,76,75,109
3,76,0,402
3,72,73,561
3,74,77,193
3,72,0,10
3,76,79,180
3,74,0,11
3,76,0,405
3,72,78,930
3,74,76,192
3,72,0,40
3,76,79,151
3,74,0,32
3,77,78,550
3,76,0,8
3,77,0,66
3,76,77,119
3,74,74,182
3,76,0,51
3,72,75,150
3,74,0,6
3,72,0,178
3,76,78,7
3,76,0,509
3,77,76,458
3,79,73,171
3,77,0,9
3,79,0,98
3,77,76,100
3,79,74,127
3,77,0,58
3,79,0,129
3,76,74,57
3,76,0,257
3,76,75,132
3,74,77,224
3,76,0,67
3,74,0,239
3,74,77,170
3,72,77,272
3,74,0,14
3,72,0,481
3,69,78,648
3,69,0,50
3,72,77,144
3,74,77,132
3,72,0,60
3,74,0,174
3,76,77,17
3,76,0,277
3,76,75,117
3,74,79,188
3,76,0,25
3,74,0,363
3,74,75,181
3,72,79,202
3,74,0,33
3,72,0,398
3,76,78,1279
3,76,0,347
3,74,78,429
3,74,0,300
3,72,76,473
3,72,0,410
3,69,80,548
3,69,0,53
3,71,79,137
3,72,77,312
3,71,0,47
3,72,0,488
3,69,76,1857
3,69,0,70
3,71,80,129
3,71,0,317
3,72,78,55
3,72,0,510
3,77,78,1986
3,77,0,47
3,77,79,142
3,77,0,459
3,72,74,26
3,72,0,536
3,76,79,1858
3,76,0,69
3,77,79,132
3,79,79,488
3,77,0,18
3,79,0,409
3,81,81,2156
3,76,74,198
3,81,0,1
3,76,0,177
3,79,75,5
3,79,0,525
3,67,77,1978
3,67,0,164
3,71,78,23
3,71,0,316
3,76,80,56
3,76,0,376
3,72,77,2121
3,74,77,213
3,72,0,42
3,74,0,337
3,79,75,260
3,79,0,7
4,33,73,1719
4,45,66,1
4,52,84,1
4,57,104,0
4,61,97,1
4,57,0,139
4,52,0,3
4,61,0,20
4,45,0,45
4,33,0,7
4,33,88,1194
4,45,79,0
4,52,85,1
4,56,91,0
4,61,95,1
4,61,0,66
4,56,0,5
4,52,0,13
4,33,0,17
4,45,0,1
4,45,79,1257
4,52,83,1
4,55,90,0
4,33,87,1
4,59,91,0
4,59,0,99
4,52,0,18
4,55,0,5
4,33,0,14
4,45,0,7
4,49,101,16
4,54,104,0
4,58,104,0
4,30,82,1
4,42,93,1
4,49,0,168
4,58,0,2
4,54,0,2
4,42,0,15
4,30,0,11
4,50,90,3
4,54,99,0
4,35,94,1
4,61,107,0
4,47,90,1
4,61,0,129
4,54,0,4
4,50,0,66
4,50,87,46
4,54,97,1
4,59,104,0
4,59,0,67
4,54,0,0
4,50,0,22
4,54,87,597
4,35,0,5
4,47,0,4
4,54,0,63
4,35,81,130
4,47,72,1
4,57,108,1
4,61,99,0
4,50,80,2
4,54,80,0
4,54,0,87
4,50,0,11
4,61,0,2
4,57,0,10
4,50,86,18
4,54,101,2
4,59,87,1
4,54,0,139
4,50,0,14
4,59,0,1
4,35,0,526
4,47,0,4
4,40,92,134
4,56,104,1
4,52,97,1
4,61,101,0
4,56,0,205
4,61,0,4
4,52,0,1
4,59,92,34
4,52,95,1
4,56,101,0
4,52,0,144
4,56,0,11
4,59,0,17
4,57,97,313
4,57,0,93
4,40,0,209
4,61,97,10
4,52,84,1
4,56,97,0
4,40,84,9
4,56,0,144
4,61,0,25
4,52,0,7
4,52,87,28
4,56,95,0
4,59,92,0
4,56,0,64
4,52,0,1
4,59,0,13
4,57,114,419
4,57,0,134
4,59,100,53
4,59,0,60
4,52,66,133
4,57,81,1
4,61,75,0
4,45,87,1
4,40,0,26
4,57,0,111
4,52,0,4
4,61,0,0
4,45,0,58
4,61,82,1225
4,52,66,1
4,56,72,0
4,45,80,3
4,56,0,74
4,61,0,3
4,52,0,4
4,45,0,17
4,43,83,11
4,61,82,0
4,55,74,1
4,64,87,0
4,59,80,1
4,61,0,131
4,64,0,8
4,55,0,0
4,59,0,1
4,43,0,28
4,54,85,19
4,58,84,0
4,42,91,1
4,61,85,0
4,52,80,1
4,61,0,111
4,54,0,2
4,58,0,5
4,52,0,2
4,42,0,17
4,47,97,117
4,61,116,4
4,61,0,165
4,50,85,317
4,59,98,0
4,54,89,1
4,59,0,137
4,50,0,12
4,54,0,29
4,57,98,270
4,57,0,189
4,47,0,40
4,40,91,135
4,61,127,11
4,61,0,228
4,40,0,205
4,41,79,46
4,53,87,4
4,59,102,1
4,59,0,288
4,57,86,220
4,41,0,76
4,53,0,3
4,57,0,5
4,50,88,54
4,59,97,0
4,69,84,0
4,66,95,1
4,62,88,1
4,66,0,237
4,59,0,6
4,62,0,1
4,50,0,8
4,69,0,130
4,68,81,98
4,59,80,1
4,49,81,1
4,52,95,0
4,56,82,0
4,56,0,165
4,49,0,0
4,52,0,14
4,59,0,3
4,68,0,239
4,47,70,157
4,54,75,2
4,66,89,1
4,59,70,1
4,62,86,0
4,54,0,228
4,62,0,4
4,59,0,4
4,66,0,2
4,47,0,4
4,66,67,380
4,66,0,57
4,52,59,71
4,59,59,0
4,64,59,0
4,69,89,0
4,69,0,600
4,52,0,72
4,59,0,0
4,64,0,0
4,42,67,45
4,61,73,1
4,66,82,0
4,57,70,1
4,49,61,1
4,61,0,167
4,49,0,6
4,42,0,3
4,66,0,0
4,57,0,5
4,42,66,1222
4,57,70,1
4,65,79,0
4,61,71,1
4,49,67,1
4,49,0,132
4,57,0,0
4,61,0,11
4,65,0,20
4,42,0,2
4,55,80,7
4,61,95,1
4,64,92,0
4,43,92,1
4,59,85,0
4,61,0,131
4,59,0,4
4,64,0,0
4,55,0,6
4,43,0,31
4,42,95,14
4,54,82,2
4,61,84,0
4,58,84,1
4,64,98,0
4,58,0,122
4,61,0,3
4,54,0,4
4,64,0,6
4,42,0,5
4,61,93,733
4,62,88,189
4,61,0,12
4,62,0,287
4,47,94,20
4,50,92,2
4,61,101,2
4,61,0,117
4,50,0,58
4,50,75,12
4,54,85,2
4,59,90,0
4,59,0,93
4,54,0,9
4,50,0,37
4,57,104,368
4,57,0,90
4,47,0,165
4,40,102,61
4,61,99,5
4,52,86,2
4,56,99,0
4,56,0,99
4,61,0,6
4,52,0,20
4,52,73,6
4,56,87,1
4,59,81,1
4,56,0,94
4,59,0,12
4,52,0,19
4,57,110,387
4,40,0,4
4,57,0,112
4,57,81,39
4,60,75,4
4,64,83,1
4,69,81,0
4,64,0,85
4,69,0,20
4,60,0,7
4,57,0,19
4,57,80,376
4,57,0,98
4,60,91,300
4,60,0,108
4,56,87,460
4,68,81,0
4,60,70,2
4,64,79,1
4,68,0,51
4,64,0,15
4,60,0,2
4,56,0,0
4,56,95,365
4,56,0,73
4,60,88,314
4,60,0,102
4,64,87,42
4,60,77,1
4,67,87,0
4,48,88,1
4,67,0,86
4,64,0,4
4,48,0,4
4,60,0,6
4,55,90,379
4,55,0,78
4,58,104,317
4,58,0,54
4,58,87,31
4,65,88,1
4,62,88,1
4,55,86,3
4,58,0,59
4,62,0,7
4,65,0,12
4,55,0,20
4,67,98,466
4,67,0,57
4,53,91,112
4,57,104,1
4,64,106,0
4,60,91,1
4,64,0,162
4,53,0,5
4,57,0,0
4,60,0,3
4,55,94,199
4,62,95,0
4,52,90,1
4,59,84,0
4,59,0,51
4,55,0,0
4,52,0,1
4,62,0,0
4,53,91,176
4,60,91,0
4,50,86,1
4,57,86,1
4,50,0,89
4,53,0,3
4,57,0,1
4,60,0,2
4,53,88,189
4,57,104,0
4,60,87,1
4,64,106,0
4,60,0,121
4,57,0,0
4,53,0,2
4,64,0,2
4,52,91,133
4,55,98,0
4,59,86,1
4,62,102,0
4,62,0,74
4,59,0,1
4,55,0,2
4,52,0,0
4,50,80,201
4,53,91,1
4,57,91,1
4,60,94,0
4,60,0,110
4,57,0,5
4,53,0,1
4,50,0,7
4,57,85,542
4,57,0,67
4,60,108,135
4,60,0,93
4,57,102,293
4,57,0,49
4,52,80,75
4,55,88,0
4,48,90,1
4,60,87,0
4,52,0,108
4,60,0,1
4,55,0,1
4,48,0,13
4,53,98,71
4,60,100,0
4,57,90,1
4,48,80,1
4,57,0,60
4,60,0,0
4,53,0,5
4,48,0,33
4,65,110,1001
4,65,0,71
4,60,80,321
4,52,84,1
4,55,81,1
4,48,74,1
4,60,0,12
4,55,0,18
4,52,0,7
4,48,0,41
4,48,91,1314
4,53,100,1
4,57,92,1
4,60,104,0
4,57,0,10
4,60,0,1
4,53,0,5
4,48,0,29
4,65,92,1029
4,65,0,47
4,48,86,50
4,55,86,2
4,57,92,1
4,60,92,0
4,64,94,1
4,64,0,51
4,55,0,5
4,60,0,1
4,57,0,0
4,48,0,27
4,50,94,62
4,53,98,0
4,60,97,0
4,43,94,1
4,57,91,0
4,57,0,48
4,53,0,4
4,50,0,1
4,60,0,6
4,43,0,5
4,43,92,314
4,53,100,0
4,50,94,1
4,60,100,0
4,57,94,1
4,60,0,91
4,50,0,3
4,57,0,1
4,53,0,1
4,43,0,23
4,52,66,1
4,57,81,1
4,61,75,0
4,45,87,1
4,57,0,111
4,52,0,4
4,61,0,0
4,45,0,58
4,61,82,1225
4,52,66,1
4,56,72,0
4,45,80,3
4,56,0,74
4,61,0,3
4,52,0,4
4,45,0,17
4,43,83,11
4,61,82,0
4,55,74,1
4,64,87,0
4,59,80,1
4,61,0,131
4,64,0,8
4,55,0,0
4,59,0,1
4,43,0,28
4,54,85,19
4,58,84,0
4,42,91,1
4,61,85,0
4,52,80,1
4,61,0,111
4,54,0,2
4,58,0,5
4,52,0,2
4,42,0,17
4,47,97,117
4,61,116,4
4,61,0,165
4,50,85,317
4,59,98,0
4,54,89,1
4,59,0,137
4,50,0,12
4,54,0,29
4,57,98,270
4,57,0,189
4,47,0,40
4,40,91,135
4,61,127,11
4,61,0,228
4,40,0,205
4,40,79,46
4,52,87,4
4,59,102,1
4,59,0,288
4,57,86,220
4,40,0,76
4,52,0,3
4,57,0,5
4,59,97,54
4,50,88,0
4,69,84,0
4,66,95,1
4,62,88,1
4,66,0,237
4,59,0,6
4,62,0,1
4,50,0,8
4,69,0,130
4,68,81,98
4,59,80,1
4,49,81,1
4,52,95,0
4,56,82,0
4,56,0,165
4,49,0,0
4,52,0,14
4,59,0,3
4,68,0,239
4,47,70,157
4,54,75,2
4,66,89,1
4,59,70,1
4,62,86,0
4,54,0,228
4,62,0,4
4,59,0,4
4,66,0,2
4,47,0,4
4,66,87,2
4,69,87,5
4,64,80,2
4,40,97,1
4,74,83,2
4,66,0,155
4,69,0,3
4,40,0,4
4,74,0,2
4,64,0,2
4,42,67,1
4,61,73,1
4,66,82,0
4,57,70,1
4,49,61,1
4,61,0,167
4,49,0,6
4,42,0,3
4,66,0,0
4,57,0,5
4,42,66,1222
4,57,70,1
4,65,79,0
4,61,71,1
4,49,67,1
4,49,0,132
4,57,0,0
4,61,0,11
4,65,0,20
4,42,0,2
