track,note,velocity,time
1,62,81,1560
1,62,0,177
1,58,82,38
1,58,0,59
1,60,81,1
1,62,81,10
1,60,0,3
1,65,83,57
1,62,0,2
1,65,0,62
1,62,90,33
1,62,0,145
1,60,80,65
1,60,0,58
1,58,85,2
1,58,0,51
1,60,81,4
1,60,0,58
1,58,89,2
1,58,0,72
1,62,88,50
1,62,0,171
1,58,85,44
1,58,0,52
1,60,75,8
1,62,81,4
1,60,0,3
1,62,0,55
1,65,92,2
1,65,0,62
1,62,90,15
1,62,0,156
1,60,88,8
1,60,0,54
1,58,75,6
1,58,0,11
1,60,75,4
1,60,0,56
1,58,73,4
1,58,0,52
1,60,83,8
1,58,70,60
1,60,0,3
1,60,73,57
1,58,0,2
1,62,79,58
1,60,0,1
1,60,80,44
1,62,0,5
1,58,68,55
1,60,0,9
1,58,0,26
1,55,73,5
1,55,0,54
1,53,66,6
1,55,79,60
1,53,0,4
1,58,75,56
1,55,0,2
1,60,86,14
1,58,0,5
1,60,0,55
1,58,71,0
1,60,84,5
1,58,0,4
1,58,78,56
1,60,0,4
1,60,79,56
1,58,0,2
1,62,84,58
1,60,0,1
1,60,78,8
1,62,0,4
1,60,0,52
1,58,81,4
1,58,0,47
1,58,75,7
1,58,0,125
1,62,81,6
1,62,0,177
1,58,82,95
1,58,0,59
1,60,81,1
1,62,81,4
1,60,0,3
1,65,83,57
1,62,0,2
1,65,0,62
1,62,90,53
1,62,0,145
1,60,80,90
1,60,0,58
1,58,85,2
1,58,0,10
1,60,81,9
1,60,0,58
1,58,89,2
1,58,0,72
1,62,88,78
1,62,0,171
1,58,85,65
1,58,0,52
1,60,75,8
1,62,81,20
1,60,0,3
1,62,0,55
1,65,92,2
1,65,0,62
1,62,90,66
1,62,0,156
1,60,88,19
1,60,0,54
1,58,75,6
1,58,0,3
1,60,75,4
1,60,0,56
1,58,73,4
1,58,0,3
1,60,83,8
1,58,70,60
1,60,0,3
1,60,73,57
1,58,0,2
1,62,79,58
1,60,0,1
1,60,80,7
1,62,0,5
1,58,68,55
1,60,0,9
1,58,0,26
1,55,73,7
1,55,0,54
1,53,66,6
1,55,79,60
1,53,0,4
1,58,75,56
1,55,0,2
1,60,86,5
1,58,0,5
1,60,0,55
1,58,71,0
1,60,84,7
1,58,0,4
1,58,78,56
1,60,0,4
1,60,79,56
1,58,0,2
1,62,84,58
1,60,0,1
1,60,78,6
1,62,0,4
1,60,0,52
1,58,81,4
1,58,0,47
1,58,75,7
1,58,0,125
1,60,83,22
1,58,70,60
1,60,0,3
1,60,73,57
1,58,0,2
1,62,79,58
1,60,0,1
1,60,80,6
1,62,0,5
1,58,68,55
1,60,0,9
1,58,0,26
1,55,73,15
1,55,0,54
1,53,66,6
1,55,79,60
1,53,0,4
1,58,75,56
1,55,0,2
1,60,86,3
1,58,0,5
1,60,0,55
1,58,71,0
1,60,84,7
1,58,0,4
1,58,78,56
1,60,0,4
1,60,79,56
1,58,0,2
1,62,84,58
1,60,0,1
1,60,78,8
1,62,0,4
1,60,0,52
1,58,81,4
1,58,0,47
1,58,75,6
1,58,0,125
1,65,84,8
1,65,0,57
1,63,71,3
1,63,0,59
1,65,74,1
1,63,83,60
1,65,0,3
1,63,0,5
1,62,72,0
1,62,0,82
1,60,77,6
1,60,0,59
1,58,73,1
1,58,0,51
1,60,72,9
1,60,0,56
1,62,67,4
1,62,0,6
1,60,72,1
1,58,60,60
1,60,0,8
1,58,0,18
1,65,78,8
1,63,72,60
1,65,0,10
1,63,0,50
1,65,55,0
1,65,0,47
1,63,70,13
1,62,77,60
1,63,0,3
1,62,0,83
1,60,77,8
1,60,0,52
1,58,71,8
1,58,0,49
1,60,68,11
1,60,0,58
1,62,71,2
1,60,66,6
1,62,0,2
1,58,63,58
1,60,0,4
1,58,0,47
1,60,75,9
1,58,71,60
1,60,0,4
1,58,0,55
1,60,76,1
1,62,75,60
1,60,0,3
1,62,0,6
1,60,65,1
1,58,70,60
1,60,0,12
1,58,0,24
1,55,81,8
1,55,0,59
1,53,63,1
1,55,71,60
1,53,0,1
1,55,0,58
1,58,69,1
1,60,72,6
1,58,0,4
1,58,73,56
1,60,0,1
1,60,87,7
1,58,0,3
1,58,71,57
1,60,0,5
1,58,0,53
1,60,65,2
1,60,0,58
1,62,75,2
1,60,76,60
1,62,0,5
1,58,71,55
1,60,0,5
1,58,0,31
1,58,75,7
1,58,0,119
1,65,79,8
1,65,0,59
1,63,70,1
1,63,0,58
1,65,72,2
1,63,58,60
1,65,0,7
1,63,0,7
1,62,67,2
1,62,0,84
1,60,81,7
1,58,70,60
1,60,0,2
1,58,0,52
1,60,71,6
1,60,0,59
1,62,70,1
1,60,72,7
1,62,0,3
1,58,60,57
1,60,0,5
1,58,0,26
1,65,72,6
1,63,67,60
1,65,0,4
1,63,0,56
1,65,74,0
1,63,65,60
1,65,0,7
1,63,0,4
1,62,64,2
1,62,0,82
1,60,70,8
1,58,71,60
1,60,0,3
1,60,72,57
1,58,0,1
1,60,0,58
1,62,71,1
1,60,76,8
1,62,0,7
1,58,63,53
1,60,0,8
1,58,0,39
1,60,82,6
1,58,73,60
1,60,0,6
1,58,0,54
1,60,63,0
1,60,0,57
1,62,66,3
1,60,72,7
1,62,0,10
1,58,66,50
1,60,0,9
1,58,0,26
1,55,78,7
1,55,0,57
1,53,63,3
1,55,72,60
1,53,0,1
1,58,60,59
1,55,0,1
1,60,72,7
1,58,0,6
1,60,0,52
1,58,78,2
1,60,85,7
1,58,0,4
1,58,64,56
1,60,0,8
1,60,74,52
1,58,0,3
1,60,0,53
1,62,77,4
1,60,72,6
1,62,0,6
1,60,0,53
1,58,71,1
1,58,0,42
1,58,75,6
1,58,0,153
1,60,68,8
1,58,73,60
1,60,0,5
1,58,0,55
1,60,74,0
1,60,0,56
1,62,75,4
1,60,74,6
1,62,0,1
1,58,83,59
1,60,0,1
1,58,0,45
1,55,81,6
1,55,0,55
1,53,61,5
1,55,72,60
1,53,0,1
1,55,0,58
1,58,64,1
1,60,70,7
1,58,0,7
1,58,61,53
1,60,0,3
1,60,84,6
1,58,0,1
1,58,72,59
1,60,0,6
1,58,0,54
1,60,72,0
1,60,0,58
1,62,72,2
1,62,0,53
1,60,75,7
1,58,76,60
1,60,0,3
1,58,0,33
1,58,83,7
1,58,0,97
1,62,81,46
1,62,0,177
1,58,82,8
1,58,0,59
1,60,81,1
1,62,81,4
1,60,0,3
1,65,83,57
1,62,0,2
1,65,0,62
1,62,90,15
1,62,0,145
1,60,80,75
1,60,0,58
1,58,85,2
1,58,0,4
1,60,81,9
1,60,0,58
1,58,89,2
1,58,0,72
1,62,88,90
1,62,0,171
1,58,85,126
1,58,0,52
1,60,75,8
1,62,81,10
1,60,0,3
1,62,0,55
1,65,92,2
1,65,0,62
1,62,90,45
1,62,0,156
1,60,88,28
1,60,0,54
1,58,75,6
1,58,0,4
1,60,75,4
1,60,0,56
1,58,73,4
1,58,0,52
1,60,83,8
1,58,70,60
1,60,0,3
1,60,73,57
1,58,0,2
1,62,79,58
1,60,0,1
1,60,80,8
1,62,0,5
1,58,68,55
1,60,0,9
1,58,0,26
1,55,73,7
1,55,0,54
1,53,66,6
1,55,79,60
1,53,0,4
1,58,75,56
1,55,0,2
1,60,86,8
1,58,0,5
1,60,0,55
1,58,71,0
1,60,84,4
1,58,0,4
1,58,78,56
1,60,0,4
1,60,79,56
1,58,0,2
1,62,84,58
1,60,0,1
1,60,78,5
1,62,0,4
1,60,0,52
1,58,81,4
1,58,0,2
1,58,75,13
1,58,0,125
1,60,83,235
1,58,70,60
1,60,0,3
1,60,73,57
1,58,0,2
1,62,79,58
1,60,0,1
1,60,80,19
1,62,0,5
1,58,68,55
1,60,0,9
1,58,0,26
1,55,73,6
1,55,0,54
1,53,66,6
1,55,79,60
1,53,0,4
1,58,75,56
1,55,0,2
1,60,86,23
1,58,0,5
1,60,0,55
1,58,71,0
1,60,84,4
1,58,0,4
1,58,78,56
1,60,0,4
1,60,79,56
1,58,0,2
1,62,84,58
1,60,0,1
1,60,78,29
1,62,0,4
1,60,0,52
1,58,81,4
1,58,0,5
1,58,84,28
1,58,0,125
2,46,67,1440
2,53,65,52
2,46,0,2
2,53,0,57
2,58,87,1
2,58,0,56
2,53,69,4
2,53,0,59
2,58,81,1
2,58,0,58
2,53,73,2
2,53,0,16
2,43,85,44
2,50,71,52
2,43,0,2
2,50,0,58
2,55,80,0
2,55,0,161
2,46,67,79
2,53,65,52
2,46,0,2
2,53,0,57
2,58,87,1
2,58,0,56
2,53,69,4
2,53,0,59
2,58,81,1
2,58,0,58
2,53,73,2
2,53,0,16
2,43,80,44
2,43,0,50
2,50,65,2
2,50,0,60
2,55,81,0
2,55,0,155
2,46,79,85
2,46,0,49
2,53,64,3
2,53,0,57
2,58,87,3
2,58,0,55
2,53,63,5
2,53,0,56
2,58,85,4
2,53,67,60
2,58,0,2
2,53,0,17
2,43,83,41
2,50,71,52
2,43,0,1
2,55,85,59
2,50,0,3
2,55,0,155
2,46,81,82
2,46,0,46
2,53,69,6
2,53,0,53
2,58,81,7
2,58,0,59
2,53,72,1
2,53,0,57
2,58,88,3
2,58,0,60
2,53,73,0
2,53,0,14
2,43,69,46
2,50,73,52
2,43,0,2
2,55,84,58
2,50,0,1
2,55,0,145
2,39,85,94
2,39,0,49
2,46,71,3
2,46,0,56
2,51,99,4
2,51,0,120
2,41,85,0
2,41,0,52
2,43,87,68
2,50,79,52
2,43,0,3
2,50,0,56
2,55,86,1
2,55,0,151
2,39,70,89
2,46,62,52
2,39,0,9
2,46,0,46
2,51,85,5
2,41,80,120
2,51,0,32
2,41,0,22
2,46,95,66
2,46,0,48
2,53,65,4
2,53,0,60
2,58,87,0
2,53,64,60
2,58,0,3
2,53,0,53
2,58,58,4
2,53,69,60
2,58,0,2
2,53,0,26
2,46,67,32
2,53,65,52
2,46,0,2
2,53,0,57
2,58,87,1
2,58,0,56
2,53,69,4
2,53,0,59
2,58,81,1
2,58,0,58
2,53,73,2
2,53,0,16
2,43,85,44
2,50,71,52
2,43,0,2
2,50,0,58
2,55,80,0
2,55,0,161
2,46,67,79
2,53,65,52
2,46,0,2
2,53,0,57
2,58,87,1
2,58,0,56
2,53,69,4
2,53,0,59
2,58,81,1
2,58,0,58
2,53,73,2
2,53,0,16
2,43,80,44
2,43,0,50
2,50,65,2
2,50,0,60
2,55,81,0
2,55,0,155
2,46,79,85
2,46,0,49
2,53,64,3
2,53,0,57
2,58,87,3
2,58,0,55
2,53,63,5
2,53,0,56
2,58,85,4
2,53,67,60
2,58,0,2
2,53,0,17
2,43,83,41
2,50,71,52
2,43,0,1
2,55,85,59
2,50,0,3
2,55,0,155
2,46,81,82
2,46,0,46
2,53,69,6
2,53,0,53
2,58,81,7
2,58,0,59
2,53,72,1
2,53,0,57
2,58,88,3
2,58,0,60
2,53,73,0
2,53,0,14
2,43,69,46
2,50,73,52
2,43,0,2
2,55,84,58
2,50,0,1
2,55,0,145
2,39,85,94
2,39,0,49
2,46,71,3
2,46,0,56
2,51,99,4
2,51,0,120
2,41,85,0
2,41,0,52
2,43,87,68
2,50,79,52
2,43,0,3
2,50,0,56
2,55,86,1
2,55,0,151
2,39,70,89
2,46,62,52
2,39,0,9
2,46,0,46
2,51,85,5
2,41,80,120
2,51,0,32
2,41,0,22
2,46,95,66
2,46,0,48
2,53,65,4
2,53,0,60
2,58,87,0
2,53,64,60
2,58,0,3
2,53,0,53
2,58,58,4
2,53,69,60
2,58,0,2
2,53,0,26
2,39,85,32
2,39,0,49
2,46,71,3
2,46,0,56
2,51,99,4
2,51,0,120
2,41,85,0
2,41,0,52
2,43,87,68
2,50,79,52
2,43,0,3
2,50,0,56
2,55,86,1
2,55,0,151
2,39,70,89
2,46,62,52
2,39,0,9
2,46,0,46
2,51,85,5
2,41,80,120
2,51,0,32
2,41,0,22
2,46,95,66
2,46,0,48
2,53,65,4
2,53,0,60
2,58,87,0
2,53,64,60
2,58,0,3
2,53,0,53
2,58,58,4
2,53,69,60
2,58,0,2
2,53,0,26
2,46,79,32
2,46,0,49
2,53,64,3
2,53,0,57
2,58,87,3
2,58,0,154
2,53,67,26
2,53,0,19
2,43,83,41
2,50,71,52
2,43,0,1
2,55,85,59
2,50,0,3
2,55,0,155
2,50,67,22
2,50,0,19
2,46,79,41
2,46,0,49
2,53,64,3
2,53,0,57
2,58,87,3
2,58,0,154
2,53,67,26
2,53,0,19
2,43,83,41
2,50,71,52
2,43,0,1
2,55,85,59
2,50,0,3
2,55,0,155
2,50,67,22
2,50,0,19
2,39,85,41
2,39,0,49
2,46,71,3
2,46,0,56
2,51,99,4
2,51,0,120
2,41,85,0
2,41,0,52
2,43,87,68
2,50,79,52
2,43,0,3
2,50,0,56
2,55,86,1
2,55,0,151
2,39,70,89
2,46,62,52
2,39,0,9
2,46,0,46
2,51,85,5
2,41,80,120
2,51,0,32
2,41,0,22
2,46,95,66
2,46,0,48
2,53,65,4
2,53,0,60
2,58,87,0
2,53,64,60
2,58,0,3
2,53,0,53
2,58,58,4
2,53,69,60
2,58,0,2
2,53,0,26
2,46,79,32
2,46,0,49
2,53,64,3
2,53,0,57
2,58,87,3
2,58,0,154
2,53,67,26
2,53,0,19
2,43,83,41
2,50,71,52
2,43,0,1
2,55,85,59
2,50,0,3
2,55,0,155
2,50,67,22
2,50,0,19
2,46,79,41
2,46,0,49
2,53,64,3
2,53,0,57
2,58,87,3
2,58,0,154
2,53,67,26
2,53,0,19
2,43,83,41
2,50,71,52
2,43,0,1
2,55,85,59
2,50,0,3
2,55,0,155
2,50,67,22
2,50,0,19
2,39,85,41
2,39,0,49
2,46,71,3
2,46,0,56
2,51,99,4
2,51,0,120
2,41,85,0
2,41,0,52
2,43,87,68
2,50,79,52
2,43,0,3
2,50,0,56
2,55,86,1
2,55,0,151
2,39,70,89
2,46,62,52
2,39,0,9
2,46,0,46
2,51,85,5
2,41,80,120
2,51,0,32
2,41,0,22
2,46,95,66
2,46,0,48
2,53,65,4
2,53,0,60
2,58,87,0
2,53,64,60
2,58,0,3
2,53,0,53
2,58,58,4
2,53,69,60
2,58,0,2
2,53,0,26
2,39,85,32
2,39,0,49
2,46,71,3
2,46,0,56
2,51,99,4
2,51,0,120
2,41,85,0
2,41,0,52
2,43,87,68
2,50,79,52
2,43,0,3
2,50,0,56
2,55,86,1
2,55,0,151
2,39,70,89
2,46,62,52
2,39,0,9
2,46,0,46
2,51,85,5
2,41,80,120
2,51,0,32
2,41,0,22
2,46,95,66
2,46,0,48
2,53,65,4
2,53,0,60
2,58,87,0
2,53,64,60
2,58,0,3
2,53,0,53
2,58,58,4
2,53,69,60
2,58,0,2
2,53,0,26
2,46,67,32
2,53,65,52
2,46,0,2
2,53,0,57
2,58,87,1
2,58,0,56
2,53,69,4
2,53,0,59
2,58,81,1
2,58,0,58
2,53,73,2
2,53,0,16
2,43,85,44
2,50,71,52
2,43,0,2
2,50,0,58
2,55,80,0
2,55,0,161
2,46,67,79
2,53,65,52
2,46,0,2
2,53,0,57
2,58,87,1
2,58,0,56
2,53,69,4
2,53,0,59
2,58,81,1
2,58,0,58
2,53,73,2
2,53,0,16
2,43,80,44
2,43,0,50
2,50,65,2
2,50,0,60
2,55,81,0
2,55,0,155
2,46,79,85
2,46,0,49
2,53,64,3
2,53,0,57
2,58,87,3
2,58,0,55
2,53,63,5
2,53,0,56
2,58,85,4
2,53,67,60
2,58,0,2
2,53,0,17
2,43,83,41
2,50,71,52
2,43,0,1
2,55,85,59
2,50,0,3
2,55,0,155
2,46,81,82
2,46,0,46
2,53,69,6
2,53,0,53
2,58,81,7
2,58,0,59
2,53,72,1
2,53,0,57
2,58,88,3
2,58,0,60
2,53,73,0
2,53,0,14
2,43,69,46
2,50,73,52
2,43,0,2
2,55,84,58
2,50,0,1
2,55,0,145
2,39,85,94
2,39,0,49
2,46,71,3
2,46,0,56
