track,note,velocity,time
1,60,5,152
1,64,42,9
1,67,57,14
1,79,54,3
1,72,53,93
1,79,0,12
1,76,59,82
1,64,0,7
1,60,0,5
1,67,0,3
1,72,0,67
1,84,68,17
1,76,0,26
1,84,0,16
1,60,41,56
1,65,49,16
1,69,54,8
1,81,63,4
1,72,41,71
1,81,0,32
1,65,0,32
1,69,0,2
1,60,0,1
1,77,53,5
1,72,0,25
1,84,70,72
1,77,0,23
1,84,0,15
1,58,42,58
1,62,45,27
1,65,50,3
1,77,59,1
1,70,42,72
1,77,0,3
1,74,69,65
1,58,0,13
1,62,0,11
1,65,0,1
1,70,0,11
1,74,0,54
1,82,70,1
1,82,0,33
1,60,35,67
1,64,47,8
1,67,41,19
1,79,63,5
1,72,45,87
1,76,50,102
1,79,0,44
1,77,55,84
1,76,0,22
1,60,0,1
1,72,0,3
1,64,0,4
1,67,0,8
1,77,0,27
1,60,51,61
1,64,50,12
1,67,46,17
1,79,67,11
1,72,34,11
1,79,0,18
1,76,67,79
1,60,0,4
1,64,0,6
1,67,0,6
1,72,0,26
1,84,70,56
1,76,0,17
1,84,0,18
1,60,42,46
1,65,42,16
1,69,68,10
1,81,65,8
1,72,42,25
1,81,0,93
1,77,65,0
1,60,0,84
1,84,74,11
1,69,0,1
1,65,0,3
1,77,0,11
1,72,0,2
1,84,0,13
1,58,54,65
1,62,55,2
1,77,55,3
1,65,59,12
1,70,80,45
1,77,0,42
1,74,76,66
1,58,0,3
1,65,0,6
1,62,0,11
1,70,0,15
1,74,0,73
1,81,76,4
1,81,0,49
1,60,37,47
1,64,51,17
1,67,45,12
1,79,65,5
1,72,42,28
1,79,0,30
1,76,42,103
1,72,0,27
1,72,44,150
1,76,0,16
1,60,0,62
1,64,0,9
1,67,0,0
1,72,0,7
1,60,42,84
1,64,55,11
1,67,56,20
1,79,55,11
1,72,63,19
1,79,0,10
1,76,77,77
1,60,0,6
1,64,0,6
1,67,0,2
1,72,0,58
1,84,64,23
1,76,0,15
1,84,0,19
1,60,42,26
1,65,58,23
1,69,65,7
1,81,78,13
1,72,65,10
1,81,0,16
1,60,0,55
1,69,0,2
1,65,0,3
1,77,78,5
1,72,0,28
1,84,79,57
1,77,0,10
1,84,0,20
1,58,53,50
1,62,55,4
1,65,70,9
1,77,68,7
1,70,95,23
1,77,0,47
1,58,0,31
1,62,0,3
1,74,80,6
1,65,0,8
1,70,0,34
1,82,80,44
1,74,0,4
1,82,0,37
1,60,45,43
1,64,69,27
1,79,64,9
1,67,65,0
1,72,53,29
1,76,45,101
1,79,0,56
1,77,45,61
1,60,0,7
1,67,0,8
1,76,0,6
1,64,0,2
1,72,0,9
1,77,0,59
1,60,62,34
1,64,64,12
1,79,64,25
1,67,67,1
1,72,59,72
1,79,0,7
1,76,49,83
1,60,0,10
1,64,0,1
1,67,0,2
1,72,0,56
1,84,57,29
1,76,0,26
1,84,0,14
1,60,43,33
1,65,42,21
1,69,76,5
1,81,62,8
1,72,43,7
1,81,0,26
1,60,0,43
1,69,0,6
1,65,0,3
1,77,65,6
1,72,0,33
1,84,68,61
1,77,0,11
1,84,0,33
1,58,60,40
1,62,45,15
1,65,54,18
1,77,65,3
1,70,55,23
1,77,0,51
1,58,0,46
1,74,65,5
1,62,0,3
1,65,0,6
1,70,0,75
1,74,0,21
1,81,56,7
1,81,0,35
1,60,45,68
1,64,58,24
1,79,38,9
1,67,55,7
1,72,35,30
1,76,55,135
1,72,0,15
1,72,53,138
1,76,0,4
1,64,0,40
1,67,0,5
1,60,0,3
1,79,0,80
1,72,0,8
1,53,38,454
1,72,39,2
1,77,73,2
1,81,54,26
1,60,59,41
1,81,0,17
1,53,0,11
1,81,76,73
1,65,63,3
1,60,0,12
1,60,52,84
1,72,0,11
1,65,0,4
1,77,0,5
1,81,0,2
1,60,0,14
1,72,54,61
1,53,54,7
1,77,79,2
1,60,59,35
1,53,0,10
1,65,70,88
1,60,0,8
1,60,56,86
1,65,0,16
1,53,59,81
1,60,0,2
1,60,53,91
1,53,0,4
1,77,0,52
1,72,0,8
1,72,64,24
1,77,78,3
1,65,59,8
1,81,69,1
1,60,0,10
1,77,0,26
1,81,0,57
1,60,66,3
1,77,53,3
1,72,0,12
1,77,0,3
1,65,0,4
1,60,0,20
1,53,68,52
1,74,62,8
1,77,66,1
1,82,73,8
1,62,57,6
1,53,0,12
1,65,70,85
1,62,0,12
1,62,59,88
1,82,0,4
1,81,77,0
1,65,0,11
1,77,0,9
1,74,0,1
1,81,0,5
1,62,0,4
1,53,62,70
1,72,45,13
1,77,59,1
1,81,70,12
1,60,68,3
1,53,0,18
1,65,70,74
1,60,0,9
1,60,67,81
1,65,0,22
1,53,65,69
1,60,0,15
1,60,75,76
1,53,0,8
1,81,0,71
1,52,78,4
1,79,84,12
1,77,0,12
1,60,0,73
1,52,0,4
1,81,80,4
1,79,0,17
1,72,0,2
1,81,0,15
1,50,44,78
1,77,62,10
1,74,47,5
1,57,58,18
1,77,0,18
1,50,0,4
1,74,0,5
1,62,64,71
1,77,85,4
1,74,81,0
1,57,0,5
1,77,0,86
1,57,62,2
1,74,0,1
1,62,0,15
1,57,0,45
1,72,86,46
1,52,77,2
1,79,89,0
1,74,87,74
1,79,0,84
1,77,82,3
1,74,0,30
1,52,0,37
1,79,85,29
1,52,83,6
1,77,0,2
1,72,0,2
1,79,0,11
1,52,0,5
1,77,81,83
1,55,42,5
1,82,80,2
1,62,42,70
1,55,0,10
1,77,0,3
1,82,0,6
1,62,0,27
1,48,84,41
1,76,58,11
1,84,78,7
1,55,51,75
1,48,0,22
1,60,56,71
1,55,0,7
1,55,44,90
1,60,0,8
1,48,57,95
1,55,0,8
1,55,39,101
1,48,0,11
1,60,45,116
1,55,0,1
1,84,0,61
1,76,0,32
1,60,0,39
1,64,41,1
1,64,0,30
1,53,55,139
1,72,41,1
1,77,64,3
1,81,68,19
1,60,51,5
1,53,0,16
1,81,0,13
1,72,0,28
1,77,0,4
1,72,59,30
1,77,77,2
1,65,65,3
1,60,0,6
1,81,78,4
1,60,70,88
1,77,0,4
1,72,0,1
1,65,0,8
1,81,0,5
1,60,0,20
1,72,46,48
1,77,72,5
1,53,50,3
1,60,42,36
1,53,0,15
1,65,54,86
1,60,0,15
1,60,36,87
1,65,0,27
1,53,65,69
1,60,0,17
1,60,63,73
1,72,0,7
1,53,0,1
1,77,0,6
1,77,42,63
1,72,42,0
1,65,66,4
1,60,0,10
1,81,42,8
1,77,0,14
1,60,59,73
1,77,78,0
1,81,0,3
1,77,0,18
1,65,0,2
1,72,0,0
1,60,0,13
1,53,45,62
1,74,60,0
1,77,54,2
1,82,79,11
1,62,47,38
1,53,0,14
1,65,58,99
1,62,0,11
1,62,51,99
1,82,0,3
1,81,63,2
1,65,0,9
1,77,0,3
1,81,0,9
1,74,0,0
1,62,0,4
1,53,38,94
1,72,32,24
1,77,42,3
1,69,5,4
1,60,49,22
1,53,0,31
1,65,65,78
1,60,0,17
1,60,42,97
1,65,0,1
1,53,45,119
1,60,0,8
1,60,41,110
1,53,0,10
1,65,41,116
1,69,0,4
1,77,0,11
1,72,0,3
1,60,0,0
1,60,42,139
1,65,0,20
1,60,0,26
1,53,49,93
1,72,49,10
1,77,68,5
1,81,67,21
1,60,64,3
1,53,0,25
1,81,0,14
1,77,0,4
1,72,0,18
1,65,70,44
1,72,51,3
1,81,68,1
1,77,78,0
1,60,0,11
1,72,0,84
1,77,0,3
1,60,64,3
1,81,0,4
1,65,0,5
1,60,0,49
1,72,42,27
1,53,64,3
1,77,63,2
1,60,51,16
1,53,0,16
1,65,54,92
1,60,0,4
1,60,58,96
1,65,0,18
1,53,68,91
1,60,0,12
1,60,62,91
1,72,0,9
1,53,0,3
1,77,0,3
1,77,66,64
1,72,54,8
1,65,66,1
1,60,0,5
1,81,78,6
1,77,0,18
1,77,86,75
1,60,73,2
1,81,0,6
1,72,0,13
1,65,0,3
1,77,0,1
1,60,0,12
1,53,54,63
1,74,55,1
1,79,58,4
1,82,71,2
1,62,53,5
1,53,0,17
1,65,66,88
1,62,0,6
1,62,42,104
1,65,0,6
1,82,0,1
1,81,57,0
1,74,0,14
1,62,0,0
1,79,0,2
1,81,0,4
1,53,34,99
1,72,55,9
1,77,67,1
1,81,54,16
1,60,55,14
1,53,0,21
1,65,51,75
1,60,0,4
1,60,46,98
1,65,0,19
1,53,66,84
1,60,0,45
1,60,56,70
1,53,0,18
1,77,0,31
1,81,0,1
1,72,0,11
1,52,70,34
1,79,84,6
1,72,55,3
1,81,78,97
1,60,0,4
1,52,0,3
1,79,0,11
1,72,0,1
1,81,0,21
1,50,65,66
1,72,68,9
1,77,79,3
1,57,62,3
1,77,0,31
1,72,0,1
1,77,85,61
1,74,85,2
1,62,64,2
1,57,0,1
1,77,0,90
1,57,72,6
1,74,0,1
1,50,0,12
1,62,0,5
1,57,0,69
1,52,86,17
1,72,83,3
1,79,90,0
1,74,89,5
1,79,0,96
1,77,88,9
1,52,0,54
1,79,78,41
1,77,0,4
1,74,0,8
1,72,0,5
1,79,0,9
1,55,62,79
1,79,81,5
1,82,84,4
1,62,58,41
1,79,0,7
1,55,0,8
1,82,0,7
1,62,0,20
1,48,69,58
1,76,52,7
1,79,82,5
1,84,82,7
1,55,44,12
1,48,0,24
1,60,42,88
1,55,0,14
1,55,42,105
1,60,0,15
1,48,62,105
1,55,0,9
1,55,55,100
1,48,0,14
1,60,60,111
1,55,0,11
1,64,70,142
1,60,0,7
1,76,0,22
1,64,0,4
1,84,0,1
1,79,0,2
1,53,54,153
1,77,42,21
1,72,35,4
1,81,55,2
1,60,67,12
1,53,0,7
1,77,0,31
1,72,0,1
1,81,0,3
1,72,67,57
1,65,45,0
1,81,73,1
1,77,78,0
1,60,0,3
1,60,59,99
1,65,0,18
1,60,0,5
1,81,0,3
1,77,0,10
1,72,0,1
1,53,45,53
1,72,55,11
1,77,74,4
1,60,58,5
1,53,0,22
1,65,67,83
1,60,0,8
1,60,58,84
1,65,0,18
1,53,71,85
1,60,0,10
1,60,54,89
1,53,0,5
1,72,0,12
1,77,0,3
1,77,55,55
1,72,50,6
1,65,59,4
1,81,57,13
1,60,0,2
1,77,0,11
1,77,78,77
1,60,68,3
1,81,0,7
1,72,0,3
1,65,0,7
1,77,0,5
1,60,0,13
1,77,58,77
1,74,50,2
1,82,82,4
1,55,52,5
1,62,57,29
1,55,0,13
1,65,66,95
1,62,0,8
1,77,0,96
1,81,78,18
1,62,66,1
1,82,0,2
1,65,0,11
1,74,0,6
1,81,0,2
1,62,0,7
1,69,55,123
1,72,70,3
1,53,35,3
1,77,78,7
1,60,58,24
1,53,0,21
1,65,55,91
1,60,0,12
1,60,35,101
1,65,0,17
1,53,42,98
1,60,0,11
1,60,42,106
1,53,0,11
1,65,41,136
1,60,0,17
1,69,0,108
1,72,0,3
1,77,0,4
1,60,45,6
1,65,0,13
1,60,0,16
1,60,42,90
1,64,67,27
1,79,66,15
1,67,42,5
1,72,70,4
1,79,0,36
1,76,57,55
1,60,0,15
1,67,0,10
1,64,0,0
1,72,0,59
1,84,78,10
1,76,0,23
1,84,0,13
1,60,47,59
1,65,58,11
1,69,75,9
1,81,68,2
1,72,70,6
1,81,0,37
1,69,0,31
1,60,0,4
1,65,0,0
1,77,74,10
1,72,0,19
1,84,74,72
1,77,0,11
1,84,0,19
1,58,32,59
1,62,47,11
1,77,76,3
1,65,67,2
1,70,78,52
1,62,0,67
1,77,0,1
1,58,0,1
1,74,41,3
1,65,0,1
1,70,0,36
1,82,63,56
1,74,0,2
1,82,0,44
1,60,45,51
1,64,71,17
1,67,42,16
1,79,72,1
1,72,59,10
1,76,76,99
1,79,0,18
1,72,0,23
1,77,63,72
1,60,0,11
1,64,0,5
1,67,0,1
1,76,0,2
1,77,0,67
1,60,42,28
1,64,55,15
1,67,49,6
1,79,63,10
1,72,59,4
1,79,0,44
1,76,65,42
1,64,0,15
1,60,0,10
1,67,0,5
1,72,0,7
1,84,69,55
1,76,0,18
1,84,0,19
1,60,55,42
1,65,68,8
1,69,79,10
1,81,74,5
1,72,64,10
1,81,0,68
1,77,80,12
1,69,0,18
1,65,0,0
1,60,0,4
1,72,0,4
1,84,80,59
1,77,0,13
1,84,0,16
1,58,42,56
1,62,62,8
1,65,65,9
1,77,70,3
1,70,80,65
1,74,82,72
1,77,0,10
1,62,0,8
1,58,0,1
1,65,0,5
1,70,0,14
1,74,0,45
1,81,80,19
1,81,0,38
1,60,56,68
1,64,54,25
1,79,64,1
1,67,58,11
1,72,42,28
1,76,66,139
1,79,0,15
1,72,0,4
1,72,45,137
1,76,0,9
1,60,0,32
1,67,0,7
1,64,0,6
1,72,0,8
1,60,58,110
1,64,62,3
1,67,65,4
1,79,64,10
1,72,58,13
1,76,79,91
1,79,0,10
1,60,0,71
1,84,79,7
1,64,0,2
1,72,0,9
1,67,0,2
1,76,0,2
1,84,0,15
1,60,45,44
1,65,62,17
1,69,66,5
1,81,81,6
1,72,65,10
1,81,0,15
1,60,0,58
1,69,0,4
1,65,0,2
1,77,64,1
1,72,0,20
1,84,77,68
1,77,0,16
1,84,0,20
1,58,46,35
1,62,54,15
1,65,80,11
1,77,76,8
1,70,88,18
1,77,0,68
1,58,0,18
1,74,86,0
1,62,0,2
1,65,0,13
1,70,0,33
1,82,84,30
1,74,0,4
1,82,0,33
1,60,42,36
1,64,41,15
1,67,62,10
1,79,73,6
1,72,54,16
1,76,65,107
1,77,52,100
1,79,0,7
1,76,0,8
1,60,0,3
1,72,0,7
1,64,0,15
1,67,0,1
1,77,0,24
1,60,55,48
1,64,57,8
1,67,65,21
1,79,70,1
1,72,68,25
1,79,0,57
1,76,78,23
1,64,0,23
1,60,0,0
1,67,0,6
1,72,0,19
1,84,66,35
1,76,0,23
1,84,0,8
1,60,42,24
1,65,54,21
1,69,67,8
1,81,76,11
1,72,66,23
1,81,0,9
1,77,78,71
1,69,0,3
1,60,0,3
1,65,0,5
1,72,0,12
1,84,78,63
1,77,0,11
1,84,0,22
1,58,44,46
1,62,68,6
1,65,73,7
1,77,79,8
1,70,73,36
1,77,0,30
1,58,0,25
1,62,0,1
1,65,0,6
1,74,81,29
1,70,0,48
1,74,0,44
1,81,78,5
1,81,0,33
1,60,35,58
1,64,66,11
1,67,62,8
1,79,66,24
1,72,51,56
1,79,0,16
1,76,63,95
1,72,0,21
1,72,58,112
1,76,0,7
1,60,0,27
1,64,0,6
1,67,0,4
1,48,64,97
1,72,0,44
1,48,0,166
1,77,55,292
1,72,42,1
1,53,49,4
1,81,62,14
1,60,59,21
1,53,0,24
1,81,0,3
1,65,68,64
1,81,80,4
1,60,0,10
1,60,66,91
1,65,0,13
1,72,0,1
1,77,0,2
1,81,0,8
1,60,0,14
1,72,51,58
1,77,78,6
1,53,59,5
1,60,53,37
1,53,0,14
1,65,51,89
1,60,0,16
1,60,30,87
1,65,0,37
1,53,55,58
1,60,0,6
1,60,44,89
1,53,0,11
1,72,0,2
1,77,0,1
1,72,57,65
1,77,75,0
1,65,59,5
1,60,0,14
1,81,78,0
1,77,0,22
1,77,86,64
1,60,65,2
1,81,0,8
1,72,0,6
1,65,0,7
1,77,0,3
1,60,0,8
1,74,54,58
1,55,67,5
1,77,59,3
1,82,89,7
1,62,69,8
1,55,0,14
1,65,71,73
1,62,0,6
1,62,66,87
1,81,73,2
1,82,0,3
1,65,0,6
1,74,0,3
1,77,0,6
1,62,0,3
1,81,0,2
1,53,65,70
1,72,57,7
1,77,70,2
1,81,76,6
1,60,55,18
1,53,0,16
1,65,55,79
1,60,0,4
1,60,53,91
1,65,0,19
1,53,47,77
1,60,0,9
1,60,55,95
1,53,0,11
1,81,0,82
1,52,79,2
1,79,85,3
1,77,0,46
1,81,79,56
1,52,0,8
1,60,0,0
1,72,0,5
1,79,0,2
1,81,0,23
1,50,45,69
1,74,80,6
1,77,80,1
1,57,53,13
