track,note,velocity,time
3,72,89,13922
3,72,0,50
3,65,83,8
3,65,0,51
3,69,89,9
3,69,0,51
3,65,89,9
3,65,0,51
3,72,89,11
3,72,0,50
3,65,89,8
3,65,0,51
3,69,78,9
3,69,0,51
3,72,72,11
3,72,0,50
3,67,89,10
3,67,0,50
3,74,89,8
3,74,0,51
3,71,89,9
3,71,0,51
3,67,87,11
3,67,0,50
3,79,89,8
3,79,0,51
3,67,89,9
3,67,0,51
3,71,89,11
3,71,0,50
3,74,89,10
3,74,0,50
3,69,83,10
3,69,0,50
3,72,89,10
3,72,0,50
3,64,89,10
3,64,0,50
3,69,89,10
3,69,0,50
3,72,89,10
3,72,0,51
3,69,89,9
3,69,0,50
3,72,89,10
3,72,0,50
3,69,89,10
3,69,0,51
3,72,89,9
3,72,0,51
3,64,89,9
3,64,0,51
3,69,89,9
3,69,0,51
3,72,89,9
3,72,0,51
3,69,89,9
3,69,0,51
3,64,82,9
3,64,0,51
3,72,89,9
3,72,0,51
3,64,89,9
3,64,0,51
3,72,89,10
3,72,0,50
3,65,83,9
3,65,0,51
3,69,89,9
3,69,0,51
3,65,89,9
3,65,0,51
3,72,89,10
3,72,0,50
3,65,89,9
3,65,0,51
3,69,78,9
3,69,0,51
3,72,72,10
3,72,0,50
3,67,89,10
3,67,0,50
3,74,89,9
3,74,0,51
3,71,89,9
3,71,0,51
3,67,87,10
3,67,0,50
3,79,89,9
3,79,0,51
3,67,89,9
3,67,0,51
3,71,89,10
3,71,0,50
3,74,89,10
3,74,0,50
3,69,83,10
3,69,0,50
3,72,89,10
3,72,0,50
3,64,89,10
3,64,0,50
3,69,89,10
3,69,0,50
3,72,89,10
3,72,0,50
3,69,89,10
3,69,0,50
3,72,89,10
3,72,0,50
3,69,89,10
3,69,0,50
3,72,89,10
3,72,0,51
3,64,89,9
3,64,0,51
3,69,89,9
3,69,0,51
3,72,89,9
3,72,0,51
3,69,89,9
3,69,0,51
3,64,82,9
3,64,0,51
3,72,89,9
3,72,0,51
3,64,89,9
3,64,0,51
3,65,89,3371
3,69,89,60
3,65,0,22
3,69,0,35
3,72,89,3
3,68,89,62
3,72,0,10
3,64,89,108
3,68,0,17
3,74,89,43
3,64,0,5
3,74,0,110
3,76,89,7
3,72,89,180
3,76,0,10
3,72,0,100
3,71,89,10
3,69,89,58
3,71,0,12
3,69,0,91
3,72,89,9145
3,72,0,50
3,65,83,9
3,65,0,51
3,69,89,9
3,69,0,51
3,65,89,9
3,65,0,51
3,72,89,9
3,72,0,51
3,65,89,9
3,65,0,51
3,69,78,9
3,69,0,51
3,72,72,10
3,72,0,50
3,67,89,9
3,67,0,51
3,74,89,9
3,74,0,51
3,71,89,9
3,71,0,51
3,67,87,9
3,67,0,51
3,79,89,9
3,79,0,51
3,67,89,9
3,67,0,51
3,71,89,9
3,71,0,51
3,74,89,10
3,74,0,50
3,69,83,10
3,69,0,50
3,72,89,9
3,72,0,51
3,64,89,9
3,64,0,51
3,69,89,10
3,69,0,50
3,72,89,10
3,72,0,50
3,69,89,9
3,69,0,51
3,72,89,10
3,72,0,50
3,69,89,10
3,69,0,50
3,72,89,10
3,72,0,50
3,64,89,9
3,64,0,51
3,69,89,10
3,69,0,50
3,72,89,10
3,72,0,50
3,69,89,10
3,69,0,50
3,64,82,10
3,64,0,50
3,72,89,10
3,72,0,50
3,64,89,10
3,64,0,51
3,72,89,10
3,72,0,50
3,65,83,9
3,65,0,51
3,69,89,9
3,69,0,51
3,65,89,9
3,65,0,51
3,72,89,9
3,72,0,51
3,65,89,9
3,65,0,51
3,69,78,9
3,69,0,51
3,72,72,10
3,72,0,50
3,67,89,9
3,67,0,51
3,74,89,9
3,74,0,51
3,71,89,9
3,71,0,51
3,67,87,9
3,67,0,51
3,79,89,9
3,79,0,51
3,67,89,9
3,67,0,51
3,71,89,9
3,71,0,51
3,74,89,10
3,74,0,50
3,69,83,10
3,69,0,50
3,72,89,9
3,72,0,51
3,64,89,9
3,64,0,51
3,69,89,10
3,69,0,50
3,72,89,9
3,72,0,51
3,69,89,9
3,69,0,51
3,72,89,10
3,72,0,50
3,69,89,10
3,69,0,50
3,72,89,10
3,72,0,50
3,64,89,9
3,64,0,51
3,69,89,10
3,69,0,50
3,72,89,10
3,72,0,50
3,69,89,10
3,69,0,50
3,64,82,10
3,64,0,50
3,72,89,10
3,72,0,50
3,64,89,10
3,64,0,50
3,65,89,3373
3,69,89,60
3,65,0,22
3,69,0,34
3,72,89,4
3,68,89,60
3,72,0,11
3,64,89,109
3,68,0,15
3,74,89,45
3,64,0,3
3,74,0,110
3,76,89,8
3,72,89,180
3,76,0,8
3,72,0,102
3,71,89,9
3,69,89,60
3,71,0,11
3,69,0,92
3,76,89,3379
3,72,89,181
3,76,0,9
3,72,0,101
3,71,89,9
3,69,89,60
3,71,0,11
3,69,0,92
4,60,84,468
4,57,86,0
4,53,91,0
4,41,100,0
4,57,0,142
4,53,0,14
4,41,0,4
4,41,84,20
4,60,0,41
4,41,0,4
4,60,82,15
4,55,115,0
4,43,91,0
4,60,0,38
4,59,107,21
4,43,0,93
4,43,78,28
4,55,0,13
4,59,0,7
4,43,0,22
4,60,79,18
4,57,93,0
4,64,93,0
4,45,105,0
4,45,0,153
4,45,95,27
4,64,0,213
4,60,0,8
4,57,0,2
4,45,0,38
4,60,98,39
4,57,98,0
4,53,98,1
4,41,93,0
4,41,0,148
4,57,0,22
4,53,0,5
4,41,98,4
4,60,0,36
4,41,0,6
4,60,98,18
4,55,113,0
4,43,78,0
4,60,0,51
4,59,105,9
4,43,0,100
4,43,78,20
4,55,0,15
4,59,0,5
4,43,0,18
4,60,84,22
4,57,95,0
4,64,95,1
4,45,98,0
4,45,0,153
4,45,100,26
4,64,0,223
4,60,0,12
4,57,0,3
4,45,0,37
4,60,79,26
4,57,89,0
4,53,89,0
4,41,93,1
4,57,0,160
4,41,0,1
4,53,0,3
4,41,76,15
4,60,0,41
4,41,0,1
4,60,105,17
4,55,115,1
4,43,86,0
4,60,0,39
4,59,107,20
4,43,0,89
4,43,79,32
4,55,0,5
4,59,0,5
4,43,0,36
4,60,78,14
4,57,86,0
4,64,95,0
4,45,93,0
4,45,0,152
4,45,95,28
4,64,0,197
4,60,0,6
4,57,0,3
4,53,100,34
4,57,91,0
4,60,91,0
4,45,0,20
4,41,89,40
4,41,0,150
4,41,91,30
4,41,0,163
4,41,91,17
4,53,0,10
4,57,0,5
4,60,0,2
4,59,86,43
4,62,98,1
4,55,98,0
4,41,0,32
4,43,86,27
4,43,0,158
4,43,82,22
4,43,0,161
4,43,86,19
4,55,0,73
4,62,0,1
4,59,0,2
4,43,0,42
4,60,84,3
4,57,86,0
4,53,91,0
4,41,100,0
4,57,0,142
4,53,0,14
4,41,0,4
4,41,84,20
4,60,0,41
4,41,0,4
4,60,82,15
4,55,115,0
4,43,91,0
4,60,0,38
4,59,107,21
4,43,0,93
4,43,78,28
4,55,0,13
4,59,0,7
4,43,0,22
4,60,79,18
4,57,93,0
4,64,93,0
4,45,105,0
4,45,0,153
4,45,95,27
4,64,0,213
4,60,0,8
4,57,0,2
4,45,0,38
4,60,98,39
4,57,98,2
4,53,98,0
4,41,93,0
4,41,0,148
4,57,0,22
4,53,0,5
4,41,98,3
4,60,0,36
4,41,0,6
4,60,98,18
4,55,113,0
4,43,78,2
4,60,0,49
4,59,105,9
4,43,0,100
4,43,78,22
4,55,0,13
4,59,0,5
4,43,0,19
4,60,84,21
4,57,95,0
4,64,95,2
4,45,98,0
4,45,0,153
4,45,100,25
4,64,0,224
4,60,0,11
4,57,0,3
4,45,0,37
4,60,79,27
4,57,89,0
4,53,89,1
4,41,93,0
4,57,0,160
4,41,0,1
4,53,0,2
4,41,76,16
4,60,0,41
4,41,0,1
4,60,105,18
4,55,115,0
4,43,86,0
4,60,0,38
4,59,107,20
4,43,0,90
4,43,79,32
4,55,0,5
4,59,0,4
4,43,0,37
4,60,78,14
4,57,86,0
4,64,95,0
4,45,93,0
4,45,0,152
4,45,95,28
4,64,0,197
4,60,0,6
4,57,0,3
4,53,100,34
4,57,91,0
4,60,91,0
4,45,0,20
4,41,89,40
4,41,0,150
4,41,91,30
4,41,0,163
4,41,91,17
4,53,0,10
4,57,0,5
4,60,0,2
4,59,86,44
4,62,98,0
4,55,98,0
4,41,0,32
4,43,86,27
4,43,0,158
4,43,82,22
4,43,0,161
4,43,86,19
4,55,0,73
4,62,0,1
4,59,0,2
4,43,0,42
4,41,89,3
4,41,0,160
4,41,95,20
4,41,0,45
4,43,82,44
4,43,0,143
4,43,77,8
4,43,0,35
4,45,98,25
4,45,0,460
4,41,95,21
4,41,0,153
4,41,82,26
4,41,0,45
4,43,84,16
4,43,0,148
4,43,74,32
4,43,0,40
4,45,98,19
4,45,0,467
4,41,93,14
4,41,0,141
4,41,82,39
4,41,0,51
4,43,86,9
4,43,0,151
4,43,74,29
4,43,0,40
4,45,86,20
4,45,0,460
4,41,91,21
4,41,0,143
4,41,89,36
4,41,0,35
4,41,79,25
4,41,0,236
4,43,78,4
4,43,0,162
4,44,82,19
4,44,0,278
4,45,78,22
4,45,0,148
4,45,91,32
4,45,0,282
4,41,93,18
4,41,0,226
4,43,93,14
4,43,0,230
4,36,91,10
4,36,0,150
4,36,100,30
4,36,0,265
4,36,84,35
4,36,0,152
4,36,84,28
4,36,0,268
4,60,84,34
4,57,86,0
4,53,91,0
4,41,100,0
4,57,0,142
4,53,0,14
4,41,0,4
4,41,84,20
4,60,0,41
4,41,0,4
4,60,82,15
4,55,115,0
4,43,91,0
4,60,0,38
4,59,107,20
4,43,0,94
4,43,78,28
4,55,0,13
4,59,0,6
4,43,0,23
4,60,79,18
4,57,93,0
4,64,93,0
4,45,105,0
4,45,0,153
4,45,95,27
4,64,0,213
4,60,0,8
4,57,0,2
4,45,0,38
4,60,98,39
4,57,98,1
4,53,98,0
4,41,93,0
4,41,0,148
4,57,0,22
4,53,0,3
4,41,98,6
4,60,0,35
4,41,0,6
4,60,98,19
4,55,113,0
4,43,78,1
4,60,0,49
4,59,105,10
4,43,0,99
4,43,78,22
4,55,0,14
4,59,0,5
4,43,0,18
4,60,84,22
4,57,95,0
4,64,95,1
4,45,98,0
4,45,0,153
4,45,100,26
4,64,0,223
4,60,0,12
4,57,0,3
4,45,0,37
4,60,79,26
4,57,89,0
4,53,89,1
4,41,93,0
4,57,0,160
4,41,0,1
4,53,0,2
4,41,76,16
4,60,0,41
4,41,0,1
4,60,105,18
4,55,115,0
4,43,86,0
4,60,0,38
4,59,107,21
4,43,0,89
4,43,79,32
4,55,0,5
4,59,0,5
4,43,0,36
4,60,78,14
4,57,86,0
4,64,95,0
4,45,93,0
4,45,0,152
4,45,95,28
4,64,0,197
4,60,0,6
4,57,0,3
4,53,100,34
4,57,91,0
4,60,91,0
4,45,0,20
4,41,89,40
4,41,0,150
4,41,91,30
4,41,0,162
4,41,91,18
4,53,0,8
4,57,0,5
4,60,0,3
4,59,86,45
4,62,98,0
4,55,98,0
4,41,0,31
4,43,86,28
4,43,0,158
4,43,82,22
4,43,0,161
4,43,86,19
4,55,0,73
4,62,0,1
4,59,0,2
4,43,0,42
4,60,84,3
4,57,86,0
4,53,91,0
4,41,100,0
4,57,0,142
4,53,0,14
4,41,0,4
4,41,84,20
4,60,0,41
4,41,0,4
4,60,82,15
4,55,115,0
4,43,91,0
4,60,0,38
4,59,107,22
4,43,0,92
4,43,78,28
4,55,0,13
4,59,0,7
4,43,0,22
4,60,79,18
4,57,93,0
4,64,93,0
4,45,105,0
4,45,0,153
4,45,95,27
4,64,0,213
4,60,0,8
4,57,0,2
4,45,0,38
4,60,98,39
4,57,98,1
4,53,98,0
4,41,93,0
4,41,0,148
4,57,0,20
4,53,0,5
4,41,98,6
4,60,0,35
4,41,0,6
4,60,98,19
4,55,113,1
4,43,78,0
4,60,0,49
4,59,105,10
4,43,0,98
4,43,78,23
4,55,0,12
4,59,0,5
4,43,0,19
4,60,84,23
4,57,95,0
4,64,95,1
4,45,98,0
4,45,0,153
4,45,100,26
4,64,0,223
4,60,0,12
4,57,0,3
4,45,0,37
4,60,79,26
4,57,89,0
4,53,89,2
4,41,93,0
4,57,0,159
4,41,0,2
4,53,0,2
4,41,76,15
4,60,0,41
4,41,0,1
4,60,105,18
4,55,115,0
4,43,86,0
4,60,0,38
4,59,107,22
4,43,0,88
4,43,79,32
4,55,0,5
4,59,0,5
4,43,0,36
4,60,78,14
4,57,86,0
4,64,95,0
4,45,93,0
4,45,0,152
4,45,95,28
4,64,0,197
4,60,0,6
4,57,0,3
4,45,0,54
4,41,105,40
4,41,0,151
4,41,100,29
4,41,0,275
4,43,78,25
4,43,0,181
4,44,102,1
4,44,0,267
4,41,91,33
4,41,0,158
4,43,100,22
4,43,0,273
4,43,93,27
4,43,0,166
4,36,100,14
4,36,0,272
4,41,100,28
4,41,0,163
4,43,102,17
4,43,0,276
4,36,98,25
4,36,0,142
4,36,93,37
4,36,0,270
4,41,105,31
4,41,0,180
4,43,102,0
4,43,0,283
4,44,98,17
4,44,0,162
4,45,102,18
4,45,0,277
4,41,100,23
4,41,0,160
4,41,105,20
4,41,0,163
4,41,102,17
4,41,0,101
4,43,89,19
4,43,0,160
4,43,91,20
4,43,0,258
4,45,100,43
4,45,0,455
4,41,102,26
4,41,0,163
4,43,100,16
4,43,0,285
4,36,98,16
4,36,0,142
4,36,98,37
4,36,0,275
4,36,100,25
4,36,0,432
4,60,84,49
4,57,86,0
4,53,91,0
4,41,100,0
4,57,0,142
4,53,0,14
4,41,0,4
4,41,84,19
4,60,0,42
4,41,0,4
4,60,82,14
4,55,115,0
4,43,91,0
4,60,0,40
4,59,107,20
4,43,0,93
4,43,78,28
4,55,0,14
4,59,0,6
4,43,0,22
4,60,79,17
4,57,93,1
4,64,93,0
4,45,105,0
4,45,0,153
4,45,95,26
4,64,0,214
4,60,0,8
4,57,0,2
4,45,0,38
4,60,98,39
4,57,98,0
4,53,98,0
4,41,93,0
4,41,0,148
4,57,0,22
4,53,0,5
4,41,98,5
4,60,0,35
4,41,0,6
4,60,98,19
4,55,113,0
4,43,78,0
4,60,0,50
4,59,105,9
4,43,0,99
4,43,78,22
4,55,0,13
4,59,0,6
4,43,0,18
4,60,84,23
4,57,95,0
4,64,95,0
4,45,98,0
4,45,0,153
4,45,100,27
4,64,0,223
4,60,0,12
4,57,0,3
4,45,0,37
4,60,79,27
4,57,89,0
4,53,89,0
4,41,93,0
4,57,0,161
4,41,0,1
4,53,0,3
4,41,76,13
4,41,0,43
4,60,0,0
4,60,105,17
4,55,115,2
4,43,86,0
4,60,0,38
4,59,107,20
4,43,0,90
4,43,79,32
4,55,0,5
4,59,0,4
4,43,0,37
4,60,78,14
4,57,86,0
4,64,95,0
4,45,93,0
4,45,0,152
4,45,95,28
4,64,0,197
4,60,0,6
4,57,0,3
4,53,100,34
4,57,91,0
4,60,91,0
4,45,0,20
4,41,89,40
4,41,0,148
4,41,91,32
4,41,0,162
4,41,91,18
4,53,0,8
4,57,0,5
4,60,0,3
4,59,86,44
4,62,98,0
4,55,98,0
4,41,0,32
4,43,86,28
4,43,0,157
4,43,82,23
4,43,0,160
4,43,86,20
4,55,0,73
4,59,0,2
4,62,0,0
4,43,0,43
4,60,84,3
4,57,86,0
4,53,91,0
4,41,100,0
4,57,0,142
4,53,0,14
4,41,0,4
4,41,84,19
4,60,0,42
4,41,0,4
4,60,82,14
4,55,115,1
4,43,91,0
4,60,0,39
4,59,107,20
4,43,0,93
4,43,78,28
4,55,0,13
4,59,0,7
4,43,0,22
4,60,79,18
4,57,93,0
4,64,93,0
4,45,105,0
4,45,0,153
4,45,95,27
4,64,0,213
4,60,0,8
4,57,0,2
4,45,0,38
4,60,98,39
4,57,98,0
4,53,98,0
4,41,93,1
4,41,0,147
4,57,0,22
4,53,0,5
4,41,98,5
4,60,0,35
4,41,0,6
