track,note,velocity,time
1.0,46.0,75.0,194.0
1.0,53.0,78.0,7.0
1.0,58.0,48.0,10.0
1.0,65.0,73.0,32.0
1.0,73.0,69.0,4.0
1.0,72.0,85.0,86.0
1.0,73.0,86.0,121.0
1.0,70.0,83.0,0.0
1.0,41.0,83.0,176.0
1.0,48.0,59.0,37.0
1.0,53.0,48.0,1.0
1.0,68.0,83.0,34.0
1.0,60.0,70.0,11.0
1.0,67.0,73.0,3.0
1.0,68.0,82.0,127.0
1.0,65.0,93.0,77.0
1.0,46.0,86.0,157.0
1.0,53.0,75.0,31.0
1.0,58.0,61.0,2.0
1.0,73.0,83.0,47.0
1.0,65.0,70.0,4.0
1.0,72.0,89.0,51.0
1.0,73.0,83.0,123.0
1.0,70.0,96.0,129.0
1.0,41.0,86.0,162.0
1.0,48.0,85.0,34.0
1.0,53.0,57.0,4.0
1.0,68.0,91.0,29.0
1.0,60.0,68.0,11.0
1.0,67.0,71.0,1.0
1.0,68.0,85.0,111.0
1.0,65.0,100.0,387.0
1.0,49.0,91.0,213.0
1.0,65.0,96.0,3.0
1.0,53.0,77.0,36.0
1.0,63.0,91.0,136.0
1.0,56.0,82.0,0.0
1.0,53.0,86.0,133.0
1.0,65.0,89.0,1.0
1.0,68.0,86.0,3.0
1.0,51.0,78.0,0.0
1.0,67.0,76.0,76.0
1.0,55.0,78.0,13.0
1.0,58.0,78.0,121.0
1.0,63.0,78.0,4.0
1.0,55.0,84.0,121.0
1.0,44.0,100.0,97.0
1.0,63.0,89.0,4.0
1.0,51.0,69.0,55.0
1.0,56.0,83.0,134.0
1.0,51.0,80.0,117.0
1.0,44.0,78.0,103.0
1.0,51.0,89.0,68.0
1.0,56.0,75.0,2.0
1.0,63.0,85.0,59.0
1.0,56.0,78.0,6.0
1.0,68.0,100.0,18.0
1.0,51.0,93.0,5.0
1.0,49.0,96.0,99.0
1.0,65.0,89.0,2.0
1.0,53.0,72.0,9.0
1.0,56.0,70.0,0.0
1.0,63.0,91.0,4.0
1.0,53.0,85.0,120.0
1.0,65.0,86.0,7.0
1.0,68.0,93.0,11.0
1.0,51.0,85.0,2.0
1.0,67.0,79.0,60.0
1.0,55.0,82.0,9.0
1.0,63.0,86.0,119.0
1.0,58.0,83.0,1.0
1.0,55.0,70.0,105.0
1.0,46.0,103.0,83.0
1.0,65.0,96.0,6.0
1.0,53.0,80.0,6.0
1.0,58.0,82.0,142.0
1.0,53.0,80.0,114.0
1.0,46.0,93.0,62.0
1.0,58.0,83.0,62.0
1.0,53.0,89.0,3.0
1.0,58.0,75.0,63.0
1.0,65.0,91.0,0.0
1.0,53.0,73.0,18.0
1.0,70.0,86.0,0.0
1.0,49.0,93.0,97.0
1.0,65.0,91.0,7.0
1.0,53.0,83.0,23.0
1.0,63.0,86.0,132.0
1.0,56.0,78.0,1.0
1.0,53.0,85.0,117.0
1.0,65.0,89.0,4.0
1.0,68.0,100.0,9.0
1.0,51.0,71.0,0.0
1.0,67.0,76.0,57.0
1.0,55.0,76.0,10.0
1.0,58.0,77.0,116.0
1.0,63.0,85.0,3.0
1.0,55.0,76.0,112.0
1.0,44.0,98.0,92.0
1.0,60.0,85.0,4.0
1.0,51.0,80.0,10.0
1.0,56.0,77.0,127.0
1.0,51.0,75.0,53.0
1.0,44.0,93.0,0.0
1.0,56.0,82.0,66.0
1.0,51.0,89.0,2.0
1.0,63.0,89.0,46.0
1.0,56.0,80.0,8.0
1.0,68.0,96.0,23.0
1.0,51.0,86.0,0.0
1.0,49.0,86.0,99.0
1.0,65.0,91.0,3.0
1.0,53.0,77.0,15.0
1.0,56.0,71.0,122.0
1.0,63.0,96.0,0.0
1.0,53.0,82.0,127.0
1.0,65.0,89.0,1.0
1.0,68.0,91.0,1.0
1.0,51.0,86.0,2.0
1.0,67.0,78.0,53.0
1.0,55.0,79.0,9.0
1.0,63.0,82.0,111.0
1.0,58.0,80.0,0.0
1.0,55.0,66.0,104.0
1.0,41.0,103.0,99.0
1.0,65.0,85.0,4.0
1.0,48.0,89.0,9.0
1.0,53.0,70.0,102.0
1.0,48.0,77.0,101.0
1.0,41.0,78.0,98.0
1.0,48.0,78.0,0.0
1.0,53.0,73.0,134.0
1.0,48.0,82.0,123.0
1.0,41.0,71.0,95.0
1.0,48.0,72.0,111.0
1.0,53.0,61.0,126.0
1.0,48.0,71.0,146.0
1.0,46.0,91.0,432.0
1.0,53.0,78.0,31.0
1.0,58.0,71.0,5.0
1.0,73.0,86.0,13.0
1.0,65.0,77.0,1.0
1.0,72.0,83.0,33.0
1.0,73.0,86.0,123.0
1.0,70.0,93.0,387.0
1.0,41.0,80.0,173.0
1.0,48.0,96.0,34.0
1.0,53.0,55.0,4.0
1.0,68.0,83.0,38.0
1.0,60.0,68.0,11.0
1.0,67.0,71.0,36.0
1.0,68.0,80.0,117.0
1.0,65.0,98.0,5.0
1.0,46.0,85.0,162.0
1.0,53.0,93.0,30.0
1.0,58.0,67.0,3.0
1.0,73.0,86.0,10.0
1.0,65.0,72.0,3.0
1.0,72.0,89.0,56.0
1.0,73.0,85.0,120.0
1.0,70.0,89.0,17.0
1.0,41.0,82.0,148.0
1.0,48.0,89.0,33.0
1.0,53.0,55.0,2.0
1.0,68.0,86.0,34.0
1.0,60.0,72.0,9.0
1.0,67.0,71.0,95.0
1.0,68.0,89.0,120.0
1.0,65.0,91.0,350.0
1.0,49.0,71.0,213.0
1.0,65.0,91.0,6.0
1.0,53.0,66.0,24.0
1.0,56.0,75.0,130.0
1.0,63.0,89.0,0.0
1.0,53.0,89.0,118.0
1.0,65.0,83.0,9.0
1.0,68.0,86.0,3.0
1.0,51.0,83.0,5.0
1.0,67.0,76.0,54.0
1.0,55.0,84.0,15.0
1.0,63.0,85.0,108.0
1.0,58.0,85.0,5.0
1.0,55.0,75.0,112.0
1.0,44.0,89.0,95.0
1.0,63.0,89.0,2.0
1.0,51.0,75.0,59.0
1.0,56.0,78.0,127.0
1.0,51.0,73.0,4.0
1.0,44.0,82.0,130.0
1.0,51.0,86.0,70.0
1.0,56.0,78.0,2.0
1.0,63.0,85.0,56.0
1.0,56.0,77.0,1.0
1.0,51.0,89.0,31.0
1.0,68.0,93.0,0.0
1.0,49.0,93.0,91.0
1.0,65.0,93.0,7.0
1.0,53.0,78.0,16.0
1.0,56.0,71.0,119.0
1.0,63.0,93.0,3.0
1.0,53.0,83.0,115.0
1.0,65.0,83.0,4.0
1.0,68.0,93.0,12.0
1.0,51.0,77.0,1.0
1.0,67.0,78.0,45.0
1.0,55.0,73.0,4.0
1.0,63.0,77.0,116.0
1.0,58.0,80.0,3.0
1.0,55.0,71.0,108.0
1.0,46.0,96.0,83.0
1.0,65.0,91.0,6.0
1.0,53.0,68.0,0.0
1.0,58.0,67.0,145.0
1.0,53.0,64.0,3.0
1.0,46.0,78.0,49.0
1.0,53.0,73.0,64.0
1.0,58.0,73.0,7.0
1.0,65.0,89.0,55.0
1.0,58.0,71.0,1.0
1.0,70.0,91.0,23.0
1.0,53.0,75.0,0.0
1.0,49.0,85.0,92.0
1.0,65.0,91.0,8.0
1.0,53.0,80.0,19.0
1.0,56.0,86.0,115.0
1.0,63.0,93.0,4.0
1.0,53.0,85.0,102.0
1.0,65.0,85.0,13.0
1.0,51.0,70.0,8.0
1.0,68.0,83.0,5.0
1.0,67.0,76.0,54.0
1.0,55.0,75.0,9.0
1.0,58.0,78.0,93.0
1.0,63.0,83.0,9.0
1.0,55.0,76.0,96.0
1.0,60.0,77.0,70.0
1.0,44.0,66.0,8.0
1.0,51.0,71.0,2.0
1.0,56.0,70.0,117.0
1.0,51.0,71.0,15.0
1.0,44.0,75.0,0.0
1.0,51.0,85.0,52.0
1.0,56.0,75.0,6.0
1.0,63.0,82.0,53.0
1.0,56.0,77.0,1.0
1.0,51.0,85.0,19.0
1.0,68.0,86.0,7.0
1.0,49.0,96.0,97.0
1.0,65.0,89.0,0.0
1.0,53.0,86.0,78.0
1.0,56.0,72.0,0.0
1.0,63.0,83.0,7.0
1.0,53.0,72.0,3.0
1.0,65.0,89.0,9.0
1.0,68.0,83.0,5.0
1.0,51.0,70.0,4.0
1.0,67.0,76.0,66.0
1.0,55.0,62.0,8.0
1.0,63.0,82.0,109.0
1.0,58.0,70.0,0.0
1.0,55.0,60.0,117.0
1.0,65.0,85.0,105.0
1.0,41.0,65.0,3.0
1.0,48.0,73.0,21.0
1.0,53.0,61.0,19.0
1.0,48.0,72.0,106.0
1.0,41.0,56.0,92.0
1.0,48.0,70.0,133.0
1.0,53.0,58.0,118.0
1.0,48.0,83.0,136.0
1.0,46.0,89.0,275.0
1.0,53.0,73.0,29.0
1.0,58.0,62.0,4.0
1.0,73.0,77.0,18.0
1.0,65.0,73.0,2.0
1.0,72.0,91.0,14.0
1.0,73.0,86.0,126.0
1.0,70.0,91.0,3.0
1.0,41.0,83.0,165.0
1.0,48.0,91.0,25.0
1.0,53.0,32.0,19.0
1.0,68.0,91.0,18.0
1.0,60.0,67.0,13.0
1.0,67.0,62.0,99.0
1.0,68.0,80.0,113.0
1.0,65.0,98.0,187.0
1.0,46.0,93.0,143.0
1.0,53.0,89.0,29.0
1.0,58.0,61.0,7.0
1.0,73.0,83.0,1.0
1.0,65.0,63.0,7.0
1.0,72.0,83.0,43.0
1.0,73.0,82.0,118.0
1.0,70.0,83.0,128.0
1.0,41.0,80.0,160.0
1.0,48.0,91.0,30.0
1.0,53.0,61.0,0.0
1.0,68.0,93.0,33.0
1.0,60.0,70.0,6.0
1.0,67.0,61.0,9.0
1.0,68.0,75.0,126.0
1.0,65.0,93.0,407.0
1.0,65.0,91.0,206.0
1.0,49.0,96.0,3.0
1.0,53.0,77.0,31.0
1.0,56.0,78.0,130.0
1.0,63.0,85.0,3.0
1.0,53.0,86.0,134.0
1.0,65.0,83.0,1.0
1.0,68.0,85.0,4.0
1.0,51.0,75.0,3.0
1.0,67.0,71.0,70.0
1.0,55.0,76.0,10.0
1.0,58.0,72.0,118.0
1.0,63.0,80.0,1.0
1.0,55.0,57.0,118.0
1.0,44.0,96.0,95.0
1.0,63.0,91.0,5.0
1.0,51.0,78.0,47.0
1.0,56.0,67.0,121.0
1.0,51.0,72.0,113.0
1.0,44.0,75.0,0.0
1.0,51.0,91.0,63.0
1.0,56.0,80.0,4.0
1.0,63.0,93.0,59.0
1.0,56.0,71.0,7.0
1.0,51.0,86.0,26.0
1.0,68.0,96.0,6.0
1.0,49.0,85.0,95.0
1.0,65.0,98.0,9.0
1.0,53.0,69.0,25.0
1.0,63.0,89.0,121.0
1.0,56.0,91.0,3.0
1.0,53.0,78.0,0.0
1.0,65.0,85.0,3.0
1.0,68.0,89.0,9.0
1.0,51.0,75.0,7.0
1.0,67.0,76.0,30.0
1.0,55.0,75.0,4.0
1.0,58.0,72.0,123.0
1.0,63.0,83.0,0.0
1.0,55.0,71.0,118.0
1.0,46.0,96.0,85.0
1.0,65.0,93.0,4.0
1.0,53.0,77.0,31.0
1.0,58.0,72.0,125.0
1.0,53.0,89.0,118.0
1.0,46.0,85.0,6.0
1.0,53.0,77.0,59.0
1.0,58.0,82.0,7.0
1.0,58.0,80.0,47.0
1.0,65.0,91.0,0.0
1.0,53.0,86.0,37.0
1.0,70.0,86.0,4.0
1.0,65.0,86.0,97.0
1.0,49.0,67.0,0.0
1.0,51.0,66.0,5.0
1.0,53.0,65.0,73.0
1.0,56.0,72.0,110.0
1.0,63.0,89.0,6.0
1.0,53.0,83.0,111.0
1.0,65.0,91.0,4.0
1.0,68.0,86.0,9.0
1.0,51.0,78.0,0.0
1.0,67.0,75.0,50.0
1.0,55.0,75.0,10.0
1.0,58.0,80.0,109.0
1.0,63.0,82.0,0.0
1.0,55.0,71.0,104.0
1.0,44.0,91.0,87.0
1.0,60.0,83.0,7.0
1.0,51.0,70.0,11.0
1.0,56.0,64.0,119.0
1.0,51.0,68.0,70.0
1.0,44.0,85.0,13.0
1.0,51.0,85.0,71.0
1.0,56.0,71.0,5.0
1.0,63.0,85.0,49.0
1.0,56.0,71.0,2.0
1.0,68.0,91.0,21.0
1.0,51.0,85.0,6.0
1.0,49.0,72.0,96.0
1.0,65.0,98.0,2.0
1.0,53.0,69.0,41.0
1.0,56.0,80.0,112.0
1.0,63.0,91.0,6.0
1.0,53.0,85.0,111.0
1.0,65.0,86.0,6.0
1.0,68.0,93.0,9.0
1.0,51.0,73.0,10.0
1.0,67.0,76.0,5.0
1.0,55.0,71.0,14.0
1.0,63.0,80.0,114.0
1.0,58.0,82.0,5.0
1.0,55.0,68.0,109.0
1.0,46.0,91.0,88.0
1.0,65.0,98.0,0.0
1.0,53.0,83.0,8.0
1.0,58.0,82.0,120.0
1.0,53.0,63.0,118.0
1.0,46.0,78.0,82.0
1.0,53.0,85.0,59.0
1.0,58.0,78.0,2.0
1.0,65.0,96.0,62.0
1.0,58.0,73.0,0.0
1.0,53.0,80.0,39.0
1.0,70.0,83.0,2.0
1.0,49.0,98.0,90.0
1.0,65.0,86.0,4.0
1.0,53.0,69.0,32.0
1.0,63.0,89.0,119.0
1.0,56.0,77.0,0.0
1.0,53.0,82.0,127.0
1.0,65.0,82.0,6.0
1.0,68.0,91.0,12.0
1.0,51.0,80.0,8.0
1.0,67.0,75.0,26.0
1.0,55.0,79.0,13.0
1.0,58.0,75.0,101.0
1.0,63.0,78.0,0.0
1.0,55.0,51.0,108.0
1.0,44.0,85.0,97.0
1.0,60.0,96.0,10.0
1.0,51.0,72.0,31.0
1.0,56.0,61.0,125.0
1.0,51.0,69.0,7.0
1.0,44.0,70.0,124.0
1.0,56.0,69.0,53.0
1.0,51.0,85.0,0.0
1.0,63.0,83.0,62.0
1.0,56.0,80.0,6.0
1.0,51.0,85.0,26.0
1.0,68.0,96.0,1.0
1.0,49.0,93.0,96.0
1.0,65.0,89.0,3.0
1.0,53.0,75.0,43.0
1.0,56.0,78.0,2.0
1.0,63.0,85.0,6.0
1.0,53.0,71.0,116.0
1.0,65.0,82.0,7.0
1.0,68.0,86.0,17.0
1.0,51.0,77.0,4.0
1.0,67.0,73.0,54.0
1.0,55.0,71.0,5.0
1.0,63.0,83.0,97.0
1.0,58.0,83.0,0.0
1.0,55.0,71.0,105.0
1.0,65.0,91.0,88.0
1.0,46.0,86.0,1.0
1.0,53.0,91.0,28.0
1.0,58.0,75.0,122.0
1.0,53.0,65.0,11.0
1.0,46.0,77.0,0.0
1.0,53.0,72.0,32.0
1.0,58.0,80.0,4.0
1.0,58.0,62.0,61.0
1.0,65.0,91.0,0.0
1.0,68.0,85.0,37.0
1.0,53.0,83.0,0.0
1.0,65.0,85.0,88.0
1.0,49.0,73.0,0.0
1.0,53.0,75.0,45.0
1.0,63.0,85.0,113.0
1.0,56.0,69.0,0.0
1.0,53.0,82.0,131.0
1.0,65.0,82.0,3.0
1.0,68.0,93.0,12.0
1.0,51.0,83.0,1.0
1.0,67.0,75.0,46.0
1.0,55.0,70.0,7.0
1.0,63.0,82.0,96.0
1.0,58.0,69.0,5.0
1.0,55.0,66.0,101.0
1.0,60.0,85.0,95.0
1.0,44.0,89.0,0.0
1.0,51.0,78.0,27.0
1.0,56.0,73.0,123.0
1.0,51.0,70.0,73.0
1.0,44.0,78.0,135.0
1.0,56.0,75.0,57.0
1.0,51.0,91.0,3.0
1.0,63.0,83.0,62.0
1.0,56.0,75.0,3.0
1.0,68.0,96.0,36.0
1.0,51.0,75.0,6.0
1.0,49.0,80.0,4.0
1.0,65.0,96.0,5.0
1.0,53.0,80.0,51.0
1.0,56.0,72.0,124.0
1.0,63.0,89.0,4.0
1.0,53.0,75.0,7.0
1.0,65.0,82.0,7.0
1.0,68.0,83.0,0.0
1.0,51.0,75.0,4.0
1.0,67.0,73.0,45.0
1.0,55.0,78.0,8.0
1.0,63.0,82.0,113.0
1.0,58.0,77.0,0.0
1.0,41.0,82.0,228.0
1.0,65.0,89.0,13.0
1.0,48.0,78.0,17.0
1.0,53.0,42.0,19.0
2.0,81.0,73.0,862.0
2.0,81.0,70.0,583.0
2.0,81.0,70.0,507.0
2.0,81.0,71.0,499.0
2.0,81.0,71.0,506.0
2.0,81.0,75.0,503.0
2.0,81.0,73.0,497.0
2.0,82.0,52.0,774.0
2.0,82.0,67.0,88.0
2.0,82.0,62.0,343.0
2.0,82.0,58.0,508.0
2.0,82.0,62.0,92.0
2.0,82.0,63.0,344.0
2.0,82.0,60.0,94.0
2.0,82.0,56.0,334.0
2.0,82.0,59.0,94.0
2.0,82.0,57.0,340.0
2.0,82.0,60.0,74.0
2.0,82.0,64.0,341.0
2.0,82.0,65.0,76.0
2.0,82.0,63.0,327.0
2.0,82.0,58.0,74.0
2.0,82.0,56.0,351.0
2.0,82.0,62.0,66.0
2.0,82.0,63.0,337.0
2.0,82.0,60.0,69.0
2.0,82.0,57.0,322.0
2.0,82.0,53.0,78.0
2.0,82.0,60.0,324.0
2.0,82.0,53.0,64.0
2.0,82.0,53.0,338.0
2.0,82.0,51.0,65.0
2.0,82.0,57.0,324.0
2.0,82.0,59.0,66.0
2.0,82.0,39.0,324.0
2.0,82.0,51.0,68.0
2.0,82.0,56.0,323.0
2.0,82.0,56.0,61.0
2.0,82.0,51.0,334.0
2.0,82.0,50.0,65.0
2.0,81.0,68.0,1215.0
2.0,81.0,65.0,545.0
2.0,81.0,65.0,519.0
2.0,81.0,78.0,502.0
2.0,81.0,76.0,485.0
2.0,81.0,68.0,490.0
2.0,81.0,78.0,473.0
2.0,82.0,71.0,505.0
2.0,82.0,67.0,53.0
2.0,82.0,68.0,355.0
2.0,82.0,65.0,87.0
2.0,82.0,56.0,326.0
2.0,82.0,60.0,64.0
2.0,82.0,61.0,348.0
2.0,82.0,59.0,70.0
2.0,82.0,62.0,339.0
2.0,82.0,56.0,83.0
2.0,82.0,61.0,339.0
2.0,82.0,59.0,83.0
2.0,82.0,60.0,341.0
2.0,82.0,56.0,50.0
2.0,82.0,65.0,331.0
2.0,82.0,63.0,55.0
2.0,82.0,54.0,323.0
2.0,82.0,56.0,66.0
2.0,82.0,62.0,324.0
2.0,82.0,60.0,57.0
2.0,82.0,62.0,332.0
2.0,82.0,59.0,65.0
2.0,82.0,61.0,325.0
2.0,82.0,58.0,50.0
2.0,82.0,60.0,324.0
2.0,82.0,57.0,67.0
2.0,82.0,45.0,340.0
2.0,82.0,47.0,66.0
2.0,82.0,43.0,373.0
2.0,82.0,46.0,67.0
2.0,82.0,50.0,322.0
2.0,82.0,55.0,57.0
2.0,82.0,17.0,348.0
2.0,81.0,65.0,1395.0
2.0,81.0,70.0,512.0
2.0,81.0,76.0,499.0
2.0,81.0,68.0,473.0
2.0,81.0,73.0,466.0
2.0,81.0,78.0,486.0
2.0,81.0,79.0,473.0
2.0,82.0,44.0,507.0
2.0,82.0,53.0,69.0
2.0,82.0,43.0,361.0
2.0,82.0,58.0,100.0
2.0,82.0,60.0,334.0
2.0,82.0,58.0,56.0
2.0,82.0,58.0,356.0
2.0,82.0,59.0,70.0
2.0,82.0,63.0,329.0
2.0,82.0,63.0,74.0
2.0,82.0,43.0,343.0
2.0,82.0,48.0,66.0
2.0,82.0,52.0,328.0
2.0,82.0,51.0,62.0
2.0,82.0,58.0,333.0
2.0,82.0,58.0,57.0
2.0,82.0,60.0,308.0
2.0,82.0,58.0,62.0
2.0,82.0,60.0,326.0
2.0,82.0,58.0,57.0
2.0,82.0,67.0,329.0
2.0,82.0,62.0,53.0
2.0,82.0,50.0,335.0
2.0,82.0,51.0,55.0
2.0,82.0,60.0,331.0
2.0,82.0,46.0,51.0
2.0,82.0,57.0,336.0
2.0,82.0,54.0,57.0
2.0,82.0,60.0,307.0
2.0,82.0,53.0,62.0
2.0,82.0,58.0,341.0
2.0,82.0,61.0,64.0
2.0,82.0,59.0,324.0
2.0,82.0,58.0,63.0
2.0,82.0,57.0,336.0
2.0,82.0,53.0,63.0
2.0,82.0,61.0,331.0
2.0,82.0,57.0,52.0
2.0,82.0,58.0,325.0
2.0,82.0,45.0,45.0
2.0,82.0,48.0,297.0
2.0,82.0,51.0,53.0
2.0,82.0,55.0,344.0
2.0,82.0,53.0,55.0
2.0,82.0,54.0,328.0
2.0,82.0,55.0,63.0
2.0,82.0,60.0,324.0
2.0,82.0,55.0,59.0
2.0,82.0,57.0,323.0
2.0,82.0,57.0,60.0
2.0,82.0,55.0,317.0
2.0,82.0,43.0,65.0
2.0,82.0,59.0,330.0
2.0,82.0,60.0,55.0
2.0,82.0,60.0,333.0
2.0,82.0,55.0,55.0
2.0,82.0,60.0,320.0
2.0,82.0,57.0,65.0
2.0,82.0,62.0,305.0
2.0,82.0,61.0,79.0
2.0,84.0,51.0,677.0
0.0,0.0,0.0,0.0
0.0,0.0,0.0,0.0
0.0,0.0,0.0,0.0
0.0,0.0,0.0,0.0
0.0,0.0,0.0,0.0
0.0,0.0,0.0,0.0
0.0,0.0,0.0,0.0
0.0,0.0,0.0,0.0
0.0,0.0,0.0,0.0
0.0,0.0,0.0,0.0
0.0,0.0,0.0,0.0
0.0,0.0,0.0,0.0
0.0,0.0,0.0,0.0
0.0,0.0,0.0,0.0
0.0,0.0,0.0,0.0
0.0,0.0,0.0,0.0
0.0,0.0,0.0,0.0
0.0,0.0,0.0,0.0
0.0,0.0,0.0,0.0
0.0,0.0,0.0,0.0
0.0,0.0,0.0,0.0
0.0,0.0,0.0,0.0
0.0,0.0,0.0,0.0
0.0,0.0,0.0,0.0
0.0,0.0,0.0,0.0
0.0,0.0,0.0,0.0
0.0,0.0,0.0,0.0
0.0,0.0,0.0,0.0
0.0,0.0,0.0,0.0
0.0,0.0,0.0,0.0
0.0,0.0,0.0,0.0
0.0,0.0,0.0,0.0
0.0,0.0,0.0,0.0
0.0,0.0,0.0,0.0
0.0,0.0,0.0,0.0
0.0,0.0,0.0,0.0
0.0,0.0,0.0,0.0
0.0,0.0,0.0,0.0
0.0,0.0,0.0,0.0
0.0,0.0,0.0,0.0
0.0,0.0,0.0,0.0
0.0,0.0,0.0,0.0
0.0,0.0,0.0,0.0
0.0,0.0,0.0,0.0
0.0,0.0,0.0,0.0
0.0,0.0,0.0,0.0
0.0,0.0,0.0,0.0
0.0,0.0,0.0,0.0
0.0,0.0,0.0,0.0
0.0,0.0,0.0,0.0
0.0,0.0,0.0,0.0
0.0,0.0,0.0,0.0
0.0,0.0,0.0,0.0
0.0,0.0,0.0,0.0
0.0,0.0,0.0,0.0
0.0,0.0,0.0,0.0
0.0,0.0,0.0,0.0
0.0,0.0,0.0,0.0
0.0,0.0,0.0,0.0
0.0,0.0,0.0,0.0
0.0,0.0,0.0,0.0
0.0,0.0,0.0,0.0
0.0,0.0,0.0,0.0
0.0,0.0,0.0,0.0
0.0,0.0,0.0,0.0
0.0,0.0,0.0,0.0
0.0,0.0,0.0,0.0
0.0,0.0,0.0,0.0
0.0,0.0,0.0,0.0
0.0,0.0,0.0,0.0
0.0,0.0,0.0,0.0
0.0,0.0,0.0,0.0
0.0,0.0,0.0,0.0
0.0,0.0,0.0,0.0
0.0,0.0,0.0,0.0
0.0,0.0,0.0,0.0
0.0,0.0,0.0,0.0
0.0,0.0,0.0,0.0
0.0,0.0,0.0,0.0
0.0,0.0,0.0,0.0
0.0,0.0,0.0,0.0
0.0,0.0,0.0,0.0
0.0,0.0,0.0,0.0
0.0,0.0,0.0,0.0
0.0,0.0,0.0,0.0
0.0,0.0,0.0,0.0
0.0,0.0,0.0,0.0
0.0,0.0,0.0,0.0
0.0,0.0,0.0,0.0
0.0,0.0,0.0,0.0
0.0,0.0,0.0,0.0
0.0,0.0,0.0,0.0
0.0,0.0,0.0,0.0
0.0,0.0,0.0,0.0
0.0,0.0,0.0,0.0
0.0,0.0,0.0,0.0
0.0,0.0,0.0,0.0
0.0,0.0,0.0,0.0
0.0,0.0,0.0,0.0
0.0,0.0,0.0,0.0
0.0,0.0,0.0,0.0
0.0,0.0,0.0,0.0
0.0,0.0,0.0,0.0
0.0,0.0,0.0,0.0
0.0,0.0,0.0,0.0
0.0,0.0,0.0,0.0
0.0,0.0,0.0,0.0
0.0,0.0,0.0,0.0
0.0,0.0,0.0,0.0
0.0,0.0,0.0,0.0
0.0,0.0,0.0,0.0
0.0,0.0,0.0,0.0
0.0,0.0,0.0,0.0
0.0,0.0,0.0,0.0
0.0,0.0,0.0,0.0
0.0,0.0,0.0,0.0
0.0,0.0,0.0,0.0
0.0,0.0,0.0,0.0
0.0,0.0,0.0,0.0
0.0,0.0,0.0,0.0
0.0,0.0,0.0,0.0
0.0,0.0,0.0,0.0
0.0,0.0,0.0,0.0
0.0,0.0,0.0,0.0
0.0,0.0,0.0,0.0
0.0,0.0,0.0,0.0
0.0,0.0,0.0,0.0
0.0,0.0,0.0,0.0
0.0,0.0,0.0,0.0
0.0,0.0,0.0,0.0
0.0,0.0,0.0,0.0
0.0,0.0,0.0,0.0
0.0,0.0,0.0,0.0
0.0,0.0,0.0,0.0
0.0,0.0,0.0,0.0
0.0,0.0,0.0,0.0
0.0,0.0,0.0,0.0
0.0,0.0,0.0,0.0
0.0,0.0,0.0,0.0
0.0,0.0,0.0,0.0
0.0,0.0,0.0,0.0
0.0,0.0,0.0,0.0
0.0,0.0,0.0,0.0
0.0,0.0,0.0,0.0
0.0,0.0,0.0,0.0
0.0,0.0,0.0,0.0
0.0,0.0,0.0,0.0
0.0,0.0,0.0,0.0
0.0,0.0,0.0,0.0
0.0,0.0,0.0,0.0
0.0,0.0,0.0,0.0
0.0,0.0,0.0,0.0
0.0,0.0,0.0,0.0
0.0,0.0,0.0,0.0
0.0,0.0,0.0,0.0
0.0,0.0,0.0,0.0
0.0,0.0,0.0,0.0
0.0,0.0,0.0,0.0
0.0,0.0,0.0,0.0
0.0,0.0,0.0,0.0
0.0,0.0,0.0,0.0
0.0,0.0,0.0,0.0
0.0,0.0,0.0,0.0
0.0,0.0,0.0,0.0
0.0,0.0,0.0,0.0
0.0,0.0,0.0,0.0
0.0,0.0,0.0,0.0
0.0,0.0,0.0,0.0
0.0,0.0,0.0,0.0
0.0,0.0,0.0,0.0
0.0,0.0,0.0,0.0
0.0,0.0,0.0,0.0
0.0,0.0,0.0,0.0
0.0,0.0,0.0,0.0
0.0,0.0,0.0,0.0
0.0,0.0,0.0,0.0
0.0,0.0,0.0,0.0
0.0,0.0,0.0,0.0
0.0,0.0,0.0,0.0
0.0,0.0,0.0,0.0
0.0,0.0,0.0,0.0
0.0,0.0,0.0,0.0
0.0,0.0,0.0,0.0
0.0,0.0,0.0,0.0
0.0,0.0,0.0,0.0
0.0,0.0,0.0,0.0
0.0,0.0,0.0,0.0
0.0,0.0,0.0,0.0
0.0,0.0,0.0,0.0
0.0,0.0,0.0,0.0
0.0,0.0,0.0,0.0
0.0,0.0,0.0,0.0
0.0,0.0,0.0,0.0
0.0,0.0,0.0,0.0
0.0,0.0,0.0,0.0
0.0,0.0,0.0,0.0
0.0,0.0,0.0,0.0
0.0,0.0,0.0,0.0
0.0,0.0,0.0,0.0
0.0,0.0,0.0,0.0
0.0,0.0,0.0,0.0
0.0,0.0,0.0,0.0
0.0,0.0,0.0,0.0
0.0,0.0,0.0,0.0
0.0,0.0,0.0,0.0
0.0,0.0,0.0,0.0
0.0,0.0,0.0,0.0
0.0,0.0,0.0,0.0
0.0,0.0,0.0,0.0
0.0,0.0,0.0,0.0
0.0,0.0,0.0,0.0
0.0,0.0,0.0,0.0
0.0,0.0,0.0,0.0
0.0,0.0,0.0,0.0
0.0,0.0,0.0,0.0
0.0,0.0,0.0,0.0
0.0,0.0,0.0,0.0
0.0,0.0,0.0,0.0
0.0,0.0,0.0,0.0
0.0,0.0,0.0,0.0
0.0,0.0,0.0,0.0
0.0,0.0,0.0,0.0
0.0,0.0,0.0,0.0
0.0,0.0,0.0,0.0
0.0,0.0,0.0,0.0
0.0,0.0,0.0,0.0
0.0,0.0,0.0,0.0
0.0,0.0,0.0,0.0
0.0,0.0,0.0,0.0
0.0,0.0,0.0,0.0
0.0,0.0,0.0,0.0
0.0,0.0,0.0,0.0
0.0,0.0,0.0,0.0
0.0,0.0,0.0,0.0
0.0,0.0,0.0,0.0
0.0,0.0,0.0,0.0
0.0,0.0,0.0,0.0
0.0,0.0,0.0,0.0
0.0,0.0,0.0,0.0
0.0,0.0,0.0,0.0
0.0,0.0,0.0,0.0
0.0,0.0,0.0,0.0
0.0,0.0,0.0,0.0
0.0,0.0,0.0,0.0
0.0,0.0,0.0,0.0
0.0,0.0,0.0,0.0
0.0,0.0,0.0,0.0
0.0,0.0,0.0,0.0
0.0,0.0,0.0,0.0
0.0,0.0,0.0,0.0
0.0,0.0,0.0,0.0
0.0,0.0,0.0,0.0
0.0,0.0,0.0,0.0
0.0,0.0,0.0,0.0
0.0,0.0,0.0,0.0
0.0,0.0,0.0,0.0
0.0,0.0,0.0,0.0
0.0,0.0,0.0,0.0
0.0,0.0,0.0,0.0
0.0,0.0,0.0,0.0
0.0,0.0,0.0,0.0
0.0,0.0,0.0,0.0
0.0,0.0,0.0,0.0
0.0,0.0,0.0,0.0
0.0,0.0,0.0,0.0
0.0,0.0,0.0,0.0
0.0,0.0,0.0,0.0
0.0,0.0,0.0,0.0
0.0,0.0,0.0,0.0
0.0,0.0,0.0,0.0
0.0,0.0,0.0,0.0
0.0,0.0,0.0,0.0
0.0,0.0,0.0,0.0
0.0,0.0,0.0,0.0
0.0,0.0,0.0,0.0
0.0,0.0,0.0,0.0
0.0,0.0,0.0,0.0
0.0,0.0,0.0,0.0
0.0,0.0,0.0,0.0
0.0,0.0,0.0,0.0
0.0,0.0,0.0,0.0
0.0,0.0,0.0,0.0
0.0,0.0,0.0,0.0
0.0,0.0,0.0,0.0
0.0,0.0,0.0,0.0
0.0,0.0,0.0,0.0
0.0,0.0,0.0,0.0
0.0,0.0,0.0,0.0
0.0,0.0,0.0,0.0
0.0,0.0,0.0,0.0
0.0,0.0,0.0,0.0
0.0,0.0,0.0,0.0
0.0,0.0,0.0,0.0
0.0,0.0,0.0,0.0
0.0,0.0,0.0,0.0
0.0,0.0,0.0,0.0
0.0,0.0,0.0,0.0
0.0,0.0,0.0,0.0
0.0,0.0,0.0,0.0
0.0,0.0,0.0,0.0
0.0,0.0,0.0,0.0
0.0,0.0,0.0,0.0
0.0,0.0,0.0,0.0
0.0,0.0,0.0,0.0
0.0,0.0,0.0,0.0
0.0,0.0,0.0,0.0
0.0,0.0,0.0,0.0
0.0,0.0,0.0,0.0
0.0,0.0,0.0,0.0
0.0,0.0,0.0,0.0
0.0,0.0,0.0,0.0
0.0,0.0,0.0,0.0
0.0,0.0,0.0,0.0
0.0,0.0,0.0,0.0
0.0,0.0,0.0,0.0
0.0,0.0,0.0,0.0
0.0,0.0,0.0,0.0
0.0,0.0,0.0,0.0
0.0,0.0,0.0,0.0
0.0,0.0,0.0,0.0
0.0,0.0,0.0,0.0
0.0,0.0,0.0,0.0
0.0,0.0,0.0,0.0
0.0,0.0,0.0,0.0
0.0,0.0,0.0,0.0
0.0,0.0,0.0,0.0
0.0,0.0,0.0,0.0
0.0,0.0,0.0,0.0
0.0,0.0,0.0,0.0
0.0,0.0,0.0,0.0
0.0,0.0,0.0,0.0
0.0,0.0,0.0,0.0
0.0,0.0,0.0,0.0
0.0,0.0,0.0,0.0
0.0,0.0,0.0,0.0
0.0,0.0,0.0,0.0
0.0,0.0,0.0,0.0
0.0,0.0,0.0,0.0
0.0,0.0,0.0,0.0
0.0,0.0,0.0,0.0
0.0,0.0,0.0,0.0
0.0,0.0,0.0,0.0
0.0,0.0,0.0,0.0
0.0,0.0,0.0,0.0
0.0,0.0,0.0,0.0
0.0,0.0,0.0,0.0
0.0,0.0,0.0,0.0
0.0,0.0,0.0,0.0
0.0,0.0,0.0,0.0
0.0,0.0,0.0,0.0
