track,note,velocity,time
1,55,110,0
1,55,110,0
1,55,0,58
1,55,0,0
1,60,110,2
1,60,110,0
1,60,0,58
1,60,0,0
1,62,110,2
1,62,110,0
1,62,0,58
1,62,0,0
1,67,110,2
1,67,110,0
1,67,0,220
1,67,0,0
1,65,110,20
1,65,110,0
1,65,0,28
1,65,0,0
1,67,110,2
1,67,110,0
1,67,0,28
1,67,0,0
1,60,110,2
1,68,110,0
1,60,110,0
1,68,110,0
1,68,0,78
1,68,0,0
1,67,110,2
1,67,110,0
1,67,0,78
1,67,0,0
1,63,110,2
1,63,110,0
1,60,0,50
1,60,0,0
1,63,0,28
1,63,0,0
1,58,110,2
1,58,110,0
1,58,0,160
1,58,0,0
1,55,110,20
1,55,110,0
1,55,0,58
1,55,0,0
1,52,110,2
1,55,110,0
1,60,110,0
1,52,110,0
1,55,110,0
1,60,110,0
1,60,0,930
1,55,0,0
1,60,0,0
1,52,0,0
1,55,0,0
1,52,0,0
1,60,110,30
1,64,110,0
1,60,110,0
1,64,110,0
1,64,0,160
1,60,0,0
1,64,0,0
1,60,0,0
1,60,110,20
1,64,110,0
1,60,110,0
1,64,110,0
1,64,0,160
1,60,0,0
1,64,0,0
1,60,0,0
1,59,110,20
1,62,110,0
1,59,110,0
1,62,110,0
1,62,0,100
1,59,0,0
1,62,0,0
1,59,0,0
1,60,110,20
1,64,110,0
1,60,110,0
1,64,110,0
1,64,0,100
1,60,0,0
1,64,0,0
1,60,0,0
1,62,110,20
1,65,110,0
1,62,110,0
1,65,110,0
1,65,0,100
1,62,0,0
1,65,0,0
1,62,0,0
1,60,110,20
1,64,110,0
1,60,110,0
1,64,110,0
1,64,0,160
1,60,0,0
1,64,0,0
1,60,0,0
1,59,110,20
1,62,110,0
1,59,110,0
1,62,110,0
1,62,0,160
1,59,0,0
1,62,0,0
1,59,0,0
1,60,110,20
1,64,110,0
1,60,110,0
1,64,110,0
1,64,0,100
1,60,0,0
1,64,0,0
1,60,0,0
1,62,110,20
1,65,110,0
1,62,110,0
1,65,110,0
1,65,0,100
1,62,0,0
1,65,0,0
1,62,0,0
1,64,110,20
1,67,110,0
1,64,110,0
1,67,110,0
1,67,0,160
1,64,0,0
1,67,0,0
1,64,0,0
1,62,110,20
1,65,110,0
1,62,110,0
1,65,110,0
1,65,0,28
1,62,0,0
1,65,0,0
1,62,0,0
1,60,110,2
1,64,110,0
1,60,110,0
1,64,110,0
1,64,0,28
1,60,0,0
1,64,0,0
1,60,0,0
1,57,110,2
1,60,110,0
1,57,110,0
1,60,110,0
1,60,0,160
1,57,0,0
1,60,0,0
1,57,0,0
1,57,110,20
1,60,110,0
1,57,110,0
1,60,110,0
1,60,0,160
1,57,0,0
1,60,0,0
1,57,0,0
1,60,110,20
1,64,110,0
1,60,110,0
1,64,110,0
1,64,0,100
1,60,0,0
1,64,0,0
1,60,0,0
1,59,110,20
1,62,110,0
1,59,110,0
1,62,110,0
1,62,0,100
1,59,0,0
1,62,0,0
1,59,0,0
1,60,110,20
1,64,110,0
1,60,110,0
1,64,110,0
1,64,0,160
1,60,0,0
1,64,0,0
1,60,0,0
1,60,110,20
1,64,110,0
1,60,110,0
1,64,110,0
1,64,0,160
1,60,0,0
1,64,0,0
1,60,0,0
1,59,110,20
1,62,110,0
1,59,110,0
1,62,110,0
1,62,0,100
1,59,0,0
1,62,0,0
1,59,0,0
1,60,110,20
1,64,110,0
1,60,110,0
1,64,110,0
1,64,0,100
1,60,0,0
1,64,0,0
1,60,0,0
1,64,110,20
1,67,110,0
1,64,110,0
1,67,110,0
1,67,0,100
1,64,0,0
1,67,0,0
1,64,0,0
1,60,110,20
1,64,110,0
1,60,110,0
1,64,110,0
1,64,0,160
1,60,0,0
1,64,0,0
1,60,0,0
1,59,110,20
1,62,110,0
1,59,110,0
1,62,110,0
1,62,0,160
1,59,0,0
1,62,0,0
1,59,0,0
1,59,110,20
1,62,110,0
1,59,110,0
1,62,110,0
1,62,0,100
1,59,0,0
1,62,0,0
1,59,0,0
1,64,110,20
1,67,110,0
1,64,110,0
1,67,110,0
1,67,0,100
1,64,0,0
1,67,0,0
1,64,0,0
1,62,110,20
1,65,110,0
1,62,110,0
1,65,110,0
1,65,0,160
1,62,0,0
1,65,0,0
1,62,0,0
1,62,110,20
1,65,110,0
1,62,110,0
1,65,110,0
1,65,0,160
1,62,0,0
1,65,0,0
1,62,0,0
1,60,110,20
1,64,110,0
1,60,110,0
1,64,110,0
1,64,0,100
1,60,0,0
1,64,0,0
1,60,0,0
1,57,110,20
1,60,110,0
1,57,110,0
1,60,110,0
1,60,0,100
1,57,0,0
1,60,0,0
1,57,0,0
1,60,110,20
1,64,110,0
1,60,110,0
1,64,110,0
1,64,0,160
1,60,0,0
1,64,0,0
1,60,0,0
1,59,110,20
1,62,110,0
1,59,110,0
1,62,110,0
1,62,0,160
1,59,0,0
1,62,0,0
1,59,0,0
1,57,110,20
1,60,110,0
1,57,110,0
1,60,110,0
1,60,0,100
1,57,0,0
1,60,0,0
1,57,0,0
1,59,110,20
1,62,110,0
1,59,110,0
1,62,110,0
1,62,0,100
1,59,0,0
1,62,0,0
1,59,0,0
1,60,110,20
1,64,110,0
1,60,110,0
1,64,110,0
1,64,0,160
1,60,0,0
1,64,0,0
1,60,0,0
1,60,110,20
1,64,110,0
1,60,110,0
1,64,110,0
1,64,0,160
1,60,0,0
1,64,0,0
1,60,0,0
1,59,110,20
1,62,110,0
1,59,110,0
1,62,110,0
1,62,0,100
1,59,0,0
1,62,0,0
1,59,0,0
1,60,110,20
1,64,110,0
1,60,110,0
1,64,110,0
1,64,0,100
1,60,0,0
1,64,0,0
1,60,0,0
1,62,110,20
1,65,110,0
1,62,110,0
1,65,110,0
1,65,0,100
1,62,0,0
1,65,0,0
1,62,0,0
1,60,110,20
1,64,110,0
1,60,110,0
1,64,110,0
1,64,0,160
1,60,0,0
1,64,0,0
1,60,0,0
1,59,110,20
1,62,110,0
1,59,110,0
1,62,110,0
1,62,0,160
1,59,0,0
1,62,0,0
1,59,0,0
1,60,110,20
1,64,110,0
1,60,110,0
1,64,110,0
1,64,0,100
1,60,0,0
1,64,0,0
1,60,0,0
1,62,110,20
1,65,110,0
1,62,110,0
1,65,110,0
1,65,0,100
1,62,0,0
1,65,0,0
1,62,0,0
1,64,110,20
1,67,110,0
1,64,110,0
1,67,110,0
1,67,0,160
1,64,0,0
1,67,0,0
1,64,0,0
1,62,110,20
1,65,110,0
1,62,110,0
1,65,110,0
1,65,0,28
1,62,0,0
1,65,0,0
1,62,0,0
1,60,110,2
1,64,110,0
1,60,110,0
1,64,110,0
1,64,0,28
1,60,0,0
1,64,0,0
1,60,0,0
1,57,110,2
1,60,110,0
1,57,110,0
1,60,110,0
1,60,0,160
1,57,0,0
1,60,0,0
1,57,0,0
1,57,110,20
1,60,110,0
1,57,110,0
1,60,110,0
1,60,0,160
1,57,0,0
1,60,0,0
1,57,0,0
1,60,110,20
1,64,110,0
1,60,110,0
1,64,110,0
1,64,0,100
1,60,0,0
1,64,0,0
1,60,0,0
1,59,110,20
1,62,110,0
1,59,110,0
1,62,110,0
1,62,0,160
1,59,0,0
1,62,0,0
1,59,0,0
1,59,110,20
1,62,110,0
1,59,110,0
1,62,110,0
1,62,0,160
1,59,0,0
1,62,0,0
1,59,0,0
1,57,110,20
1,57,110,0
1,57,0,100
1,57,0,0
1,60,110,20
1,60,110,0
1,60,0,100
1,60,0,0
1,55,110,20
1,62,110,0
1,55,110,0
1,62,110,0
1,62,0,160
1,62,0,0
1,62,110,20
1,62,110,0
1,62,0,118
1,62,0,0
1,60,110,2
1,60,110,0
1,55,0,30
1,55,0,0
1,60,0,28
1,60,0,0
1,55,110,2
1,62,110,0
1,55,110,0
1,62,110,0
1,62,0,100
1,62,0,0
1,64,110,20
1,64,110,0
1,55,0,90
1,55,0,0
1,64,0,10
1,64,0,0
1,52,110,20
1,60,110,0
1,52,110,0
1,60,110,0
1,60,0,100
1,60,0,0
1,55,110,20
1,55,110,0
1,55,0,100
1,55,0,0
1,57,110,20
1,57,110,0
1,57,0,100
1,57,0,0
1,60,110,20
1,60,110,0
1,52,0,90
1,52,0,0
1,60,0,10
1,60,0,0
1,59,110,20
1,62,110,0
1,59,110,0
1,62,110,0
1,62,0,160
1,62,0,0
1,62,110,20
1,62,110,0
1,62,0,118
1,62,0,0
1,60,110,2
1,60,110,0
1,59,0,30
1,59,0,0
1,60,0,28
1,60,0,0
1,59,110,2
1,62,110,0
1,59,110,0
1,62,110,0
1,62,0,100
1,62,0,0
1,64,110,20
1,64,110,0
1,59,0,90
1,59,0,0
1,64,0,10
1,64,0,0
1,53,110,20
1,57,110,0
1,53,110,0
1,57,110,0
1,57,0,210
1,57,0,0
1,57,110,30
1,57,110,0
1,57,0,100
1,57,0,0
1,60,110,20
1,60,110,0
1,53,0,90
1,53,0,0
1,60,0,10
1,60,0,0
1,55,110,20
1,62,110,0
1,55,110,0
1,62,110,0
1,62,0,160
1,62,0,0
1,62,110,20
1,62,110,0
1,62,0,118
1,62,0,0
1,60,110,2
1,60,110,0
1,55,0,30
1,55,0,0
1,60,0,28
1,60,0,0
1,55,110,2
1,62,110,0
1,55,110,0
1,62,110,0
1,62,0,100
1,62,0,0
1,67,110,20
1,67,110,0
1,55,0,90
1,55,0,0
1,67,0,10
1,67,0,0
1,55,110,20
1,64,110,0
1,55,110,0
1,64,110,0
1,64,0,100
1,64,0,0
1,60,110,20
1,60,110,0
1,60,0,100
1,60,0,0
1,57,110,20
1,57,110,0
1,57,0,100
1,57,0,0
1,60,110,20
1,60,110,0
1,55,0,90
1,55,0,0
1,60,0,10
1,60,0,0
1,59,110,20
1,62,110,0
1,59,110,0
1,62,110,0
1,62,0,160
1,62,0,0
1,62,110,20
1,62,110,0
1,62,0,118
1,62,0,0
1,60,110,2
1,60,110,0
1,59,0,30
1,59,0,0
1,60,0,28
1,60,0,0
1,59,110,2
1,62,110,0
1,59,110,0
1,62,110,0
1,62,0,100
1,62,0,0
1,64,110,20
1,64,110,0
1,59,0,90
1,59,0,0
1,64,0,10
1,64,0,0
1,53,110,20
1,57,110,0
1,53,110,0
1,57,110,0
1,57,0,160
1,57,0,0
1,59,110,20
1,59,110,0
1,53,0,150
1,53,0,0
1,59,0,10
1,59,0,0
1,60,110,20
1,60,110,0
1,60,0,100
1,60,0,0
1,62,110,20
1,62,110,0
1,62,0,100
1,62,0,0
1,60,110,20
1,64,110,0
1,60,110,0
1,64,110,0
1,64,0,160
1,60,0,0
1,64,0,0
1,60,0,0
1,60,110,20
1,64,110,0
1,60,110,0
1,64,110,0
1,64,0,160
1,60,0,0
1,64,0,0
1,60,0,0
1,59,110,20
1,62,110,0
1,59,110,0
1,62,110,0
1,62,0,100
1,59,0,0
1,62,0,0
1,59,0,0
1,60,110,20
1,64,110,0
1,60,110,0
1,64,110,0
1,64,0,100
1,60,0,0
1,64,0,0
1,60,0,0
1,62,110,20
1,65,110,0
1,62,110,0
1,65,110,0
1,65,0,100
1,62,0,0
1,65,0,0
1,62,0,0
1,60,110,20
1,64,110,0
1,60,110,0
1,64,110,0
1,64,0,160
1,60,0,0
1,64,0,0
1,60,0,0
1,59,110,20
1,62,110,0
1,59,110,0
1,62,110,0
1,62,0,160
1,59,0,0
1,62,0,0
1,59,0,0
1,60,110,20
1,64,110,0
1,60,110,0
1,64,110,0
1,64,0,100
1,60,0,0
1,64,0,0
1,60,0,0
1,62,110,20
1,65,110,0
1,62,110,0
1,65,110,0
1,65,0,100
1,62,0,0
1,65,0,0
1,62,0,0
1,64,110,20
1,67,110,0
1,64,110,0
1,67,110,0
1,67,0,160
1,64,0,0
1,67,0,0
1,64,0,0
1,62,110,20
1,65,110,0
1,62,110,0
1,65,110,0
1,65,0,28
1,62,0,0
1,65,0,0
1,62,0,0
1,60,110,2
1,64,110,0
1,60,110,0
1,64,110,0
1,64,0,28
1,60,0,0
1,64,0,0
1,60,0,0
1,57,110,2
1,60,110,0
1,57,110,0
1,60,110,0
1,60,0,160
1,57,0,0
1,60,0,0
1,57,0,0
1,57,110,20
1,60,110,0
1,57,110,0
1,60,110,0
1,60,0,160
1,57,0,0
1,60,0,0
1,57,0,0
1,60,110,20
1,64,110,0
1,60,110,0
1,64,110,0
1,64,0,100
1,60,0,0
1,64,0,0
1,60,0,0
1,59,110,20
1,62,110,0
1,59,110,0
1,62,110,0
1,62,0,100
1,59,0,0
1,62,0,0
1,59,0,0
1,60,110,20
1,64,110,0
1,60,110,0
1,64,110,0
1,64,0,160
1,60,0,0
1,64,0,0
1,60,0,0
1,60,110,20
1,64,110,0
1,60,110,0
1,64,110,0
1,64,0,160
1,60,0,0
1,64,0,0
1,60,0,0
1,59,110,20
1,62,110,0
1,59,110,0
1,62,110,0
1,62,0,100
1,59,0,0
1,62,0,0
1,59,0,0
1,60,110,20
1,64,110,0
1,60,110,0
1,64,110,0
1,64,0,100
1,60,0,0
1,64,0,0
1,60,0,0
1,64,110,20
1,67,110,0
1,64,110,0
1,67,110,0
1,67,0,100
1,64,0,0
1,67,0,0
1,64,0,0
1,60,110,20
1,64,110,0
1,67,110,0
1,60,110,0
1,64,110,0
1,67,110,0
1,67,0,100
1,67,0,0
1,71,110,20
1,71,110,0
1,60,0,90
1,64,0,0
1,60,0,0
1,64,0,0
1,71,0,10
1,71,0,0
1,64,110,20
1,69,110,0
1,72,110,0
1,64,110,0
1,69,110,0
1,72,110,0
1,69,0,160
1,64,0,0
1,69,0,0
1,64,0,0
1,65,110,20
1,69,110,0
1,65,110,0
1,69,110,0
1,72,0,150
1,72,0,0
1,65,0,10
1,69,0,0
1,69,0,0
1,65,0,0
1,65,110,20
1,72,110,0
1,76,110,0
1,65,110,0
1,72,110,0
1,76,110,0
1,76,0,100
1,72,0,0
1,76,0,0
1,65,0,0
1,72,0,0
1,65,0,0
1,67,110,20
1,71,110,0
1,74,110,0
1,67,110,0
1,71,110,0
1,74,110,0
1,74,0,100
1,71,0,0
1,74,0,0
1,67,0,0
1,71,0,0
1,67,0,0
1,67,110,20
1,76,110,0
1,67,110,0
1,76,110,0
1,76,0,58
1,67,0,0
1,76,0,0
1,67,0,0
1,64,110,2
1,67,110,0
1,72,110,0
1,64,110,0
1,67,110,0
1,72,110,0
1,72,0,400
1,67,0,0
1,72,0,0
1,64,0,0
1,67,0,0
1,64,0,0
1,72,110,20
1,76,110,0
1,72,110,0
1,76,110,0
1,76,0,100
1,72,0,0
1,76,0,0
1,72,0,0
1,67,110,20
1,71,110,0
1,74,110,0
1,67,110,0
1,71,110,0
1,74,110,0
1,74,0,100
1,71,0,0
1,74,0,0
1,67,0,0
1,71,0,0
1,67,0,0
1,67,110,20
1,76,110,0
1,67,110,0
1,76,110,0
1,76,0,58
1,67,0,0
1,76,0,0
1,67,0,0
1,64,110,2
1,67,110,0
1,72,110,0
1,64,110,0
1,67,110,0
1,72,110,0
1,72,0,510
1,67,0,0
1,72,0,0
1,64,0,0
1,67,0,0
1,64,0,0
1,62,110,30
1,67,110,0
1,71,110,0
1,62,110,0
1,67,110,0
1,71,110,0
1,71,0,210
1,67,0,0
1,71,0,0
1,62,0,0
1,67,0,0
1,62,0,0
1,61,110,30
1,64,110,0
1,69,110,0
1,61,110,0
1,64,110,0
1,69,110,0
1,69,0,210
1,64,0,0
1,69,0,0
1,61,0,0
1,64,0,0
1,61,0,0
1,62,110,30
1,66,110,0
1,62,110,0
1,66,110,0
1,66,0,210
1,62,0,0
1,66,0,0
1,62,0,0
1,61,110,30
1,66,110,0
1,61,110,0
1,66,110,0
1,66,0,210
1,61,0,0
1,66,0,0
1,61,0,0
1,62,110,30
1,66,110,0
1,62,110,0
1,66,110,0
1,66,0,450
1,62,0,0
1,66,0,0
1,62,0,0
1,62,110,30
1,66,110,0
1,62,110,0
1,66,110,0
1,66,0,210
1,62,0,0
1,66,0,0
1,62,0,0
