track,note,velocity,time
1,76,106,384
1,76,106,4
1,74,102,4
1,79,102,4
1,76,125,4
1,72,112,4
1,69,110,4
1,67,100,4
1,77,108,4
1,77,122,4
1,74,108,4
1,79,88,4
1,77,102,4
1,76,110,4
1,76,100,4
1,79,102,4
1,76,110,4
1,74,106,4
1,76,112,4
1,76,106,4
1,74,97,4
1,79,95,4
1,76,104,4
1,81,110,4
1,76,122,4
1,76,108,4
1,74,100,4
1,79,91,4
1,76,125,4
1,72,108,4
1,71,97,4
1,72,108,4
1,84,100,580
1,88,108,0
1,84,100,0
1,88,110,0
1,83,100,0
1,86,108,0
1,88,100,0
1,91,98,0
1,84,100,0
1,88,120,0
1,81,100,0
1,84,120,0
1,81,122,0
1,79,100,4
1,86,100,4
1,89,108,0
1,86,100,0
1,89,95,0
1,83,100,0
1,86,100,0
1,88,100,0
1,91,97,0
1,86,100,0
1,89,92,0
1,88,114,0
1,84,100,0
1,84,100,0
1,88,94,0
1,88,100,0
1,91,102,0
1,84,100,0
1,88,108,0
1,83,100,0
1,86,114,0
1,84,100,0
1,88,114,0
1,84,100,0
1,88,94,0
1,83,100,0
1,86,102,0
1,88,100,0
1,91,106,0
1,84,100,0
1,88,100,0
1,89,81,0
1,93,110,0
1,84,100,0
1,88,120,0
1,84,100,0
1,88,108,0
1,83,100,0
1,86,102,0
1,88,100,0
1,91,92,0
1,84,100,0
1,88,120,0
1,81,100,0
1,84,120,0
1,79,100,0
1,83,117,0
1,84,125,0
1,84,100,580
1,88,108,0
1,84,100,0
1,88,110,0
1,83,100,0
1,86,108,0
1,88,100,0
1,91,98,0
1,84,100,0
1,88,120,0
1,81,100,0
1,84,120,0
1,81,122,0
1,79,100,4
1,86,100,4
1,89,108,0
1,86,100,0
1,89,95,0
1,83,100,0
1,86,100,0
1,88,100,0
1,91,97,0
1,86,100,0
1,89,92,0
1,88,114,0
1,84,100,0
1,84,100,0
1,88,94,0
1,88,100,0
1,91,102,0
1,84,100,0
1,88,108,0
1,83,100,0
1,86,114,0
1,84,100,0
1,88,114,0
1,84,100,0
1,88,94,0
1,83,100,0
1,86,102,0
1,88,100,0
1,91,106,0
1,84,100,0
1,88,100,0
1,89,81,0
1,93,110,0
1,84,100,0
1,88,120,0
1,84,100,0
1,88,108,0
1,83,100,0
1,86,102,0
1,88,100,0
1,91,92,0
1,84,100,0
1,88,120,0
1,81,100,0
1,84,120,0
1,79,100,0
1,83,117,0
1,84,125,0
1,60,77,580
1,62,90,4
1,64,95,4
1,65,87,4
1,62,88,4
1,67,87,196
1,67,92,4
1,65,80,4
1,64,91,4
1,65,84,4
1,64,97,4
1,62,91,4
1,64,88,4
1,62,97,4
1,60,83,4
1,62,94,4
1,64,90,4
1,65,80,4
1,62,90,4
1,67,88,192
1,67,92,4
1,65,80,4
1,64,98,4
1,65,87,4
1,64,100,4
1,62,104,4
1,60,97,4
1,64,98,4
1,67,79,196
1,69,94,4
1,64,88,4
1,69,100,4
1,67,100,4
1,69,97,4
1,71,102,4
1,72,77,4
1,76,80,4
1,74,90,4
1,71,97,4
1,69,98,4
1,64,88,4
1,69,102,4
1,64,97,4
1,69,112,4
1,67,98,4
1,69,95,4
1,71,87,4
1,72,80,4
1,76,74,4
1,74,87,4
1,71,94,4
1,69,88,4
1,67,86,4
1,60,76,4
1,62,88,4
1,64,86,4
1,65,88,4
1,62,88,4
1,67,79,192
1,67,81,4
1,65,76,4
1,64,91,4
1,65,85,4
1,64,91,4
1,62,95,4
1,64,97,4
1,62,97,4
1,60,85,4
1,62,97,4
1,64,95,4
1,65,90,4
1,62,91,4
1,67,80,192
1,67,87,4
1,65,80,4
1,64,92,4
1,65,88,4
1,64,102,4
1,62,100,4
1,60,86,4
1,60,77,580
1,62,90,4
1,64,95,4
1,65,87,4
1,62,88,4
1,67,87,196
1,67,92,4
1,65,80,4
1,64,91,4
1,65,84,4
1,64,97,4
1,62,91,4
1,64,88,4
1,62,97,4
1,60,83,4
1,62,94,4
1,64,90,4
1,65,80,4
1,62,90,4
1,67,88,192
1,67,92,4
1,65,80,4
1,64,98,4
1,65,87,4
1,64,100,4
1,62,104,4
1,60,97,4
1,64,98,4
1,67,79,196
1,69,94,4
1,64,88,4
1,69,100,4
1,67,100,4
1,69,97,4
1,71,102,4
1,72,77,4
1,76,80,4
1,74,90,4
1,71,97,4
1,69,98,4
1,64,88,4
1,69,102,4
1,64,97,4
1,69,112,4
1,67,98,4
1,69,95,4
1,71,87,4
1,72,80,4
1,76,74,4
1,74,87,4
1,71,94,4
1,69,88,4
1,67,86,4
1,60,76,4
1,62,88,4
1,64,86,4
1,65,88,4
1,62,88,4
1,67,79,192
1,67,81,4
1,65,76,4
1,64,91,4
1,65,85,4
1,64,91,4
1,62,95,4
1,64,97,4
1,62,97,4
1,60,85,4
1,62,97,4
1,64,95,4
1,65,90,4
1,62,91,4
1,67,80,192
1,67,87,4
1,65,80,4
1,64,92,4
1,65,88,4
1,64,102,4
1,62,100,4
1,60,86,4
2,48,75,384
2,55,59,192
2,60,75,4
2,55,69,4
2,47,68,4
2,55,68,192
2,59,70,4
2,55,78,4
2,45,76,4
2,52,45,192
2,57,63,4
2,52,68,4
2,43,64,4
2,50,80,192
2,55,69,4
2,50,77,4
2,41,66,4
2,48,65,192
2,53,76,4
2,48,71,4
2,43,85,4
2,50,70,192
2,55,77,4
2,50,70,4
2,48,78,4
2,55,73,192
2,60,79,4
2,55,68,4
2,43,91,4
2,50,73,192
2,55,88,4
2,50,80,4
2,48,83,4
2,55,80,192
2,60,92,4
2,55,77,4
2,47,83,4
2,55,58,192
2,59,81,4
2,55,86,4
2,45,83,4
2,52,73,192
2,57,84,4
2,52,77,4
2,43,95,4
2,50,75,192
2,55,80,4
2,50,75,4
2,41,75,4
2,48,72,192
2,53,91,4
2,48,79,4
2,43,92,4
2,50,77,192
2,55,85,4
2,50,81,4
2,48,97,4
2,55,80,192
2,60,86,4
2,55,80,4
2,48,72,4
2,60,72,0
2,55,74,0
2,48,75,388
2,55,59,192
2,60,75,4
2,55,69,4
2,47,68,4
2,55,68,192
2,59,70,4
2,55,78,4
2,45,76,4
2,52,45,192
2,57,63,4
2,52,68,4
2,43,64,4
2,50,80,192
2,55,69,4
2,50,77,4
2,41,66,4
2,48,65,192
2,53,76,4
2,48,71,4
2,43,85,4
2,50,70,192
2,55,77,4
2,50,70,4
2,48,78,4
2,55,73,192
2,60,79,4
2,55,68,4
2,43,91,4
2,50,73,192
2,55,88,4
2,50,80,4
2,48,83,4
2,55,80,192
2,60,92,4
2,55,77,4
2,47,83,4
2,55,58,192
2,59,81,4
2,55,86,4
2,45,83,4
2,52,73,192
2,57,84,4
2,52,77,4
2,43,95,4
2,50,75,192
2,55,80,4
2,50,75,4
2,41,75,4
2,48,72,192
2,53,91,4
2,48,79,4
2,43,92,4
2,50,77,192
2,55,85,4
2,50,81,4
2,48,97,4
2,55,80,192
2,60,86,4
2,55,80,4
2,48,72,4
2,60,72,0
2,55,74,0
2,48,75,388
2,55,59,192
2,60,75,4
2,55,69,4
2,47,68,4
2,55,68,192
2,59,70,4
2,55,78,4
2,45,76,4
2,52,45,192
2,57,63,4
2,52,68,4
2,43,64,4
2,50,80,192
2,55,69,4
2,50,77,4
2,41,66,4
2,48,65,192
2,53,76,4
2,48,71,4
2,43,85,4
2,50,70,192
2,55,77,4
2,50,70,4
2,48,78,4
2,55,73,192
2,60,79,4
2,55,68,4
2,43,91,4
2,50,73,192
2,55,88,4
2,50,80,4
2,48,83,4
2,55,80,192
2,60,92,4
2,55,77,4
2,47,83,4
2,55,58,192
2,59,81,4
2,55,86,4
2,45,83,4
2,52,73,192
2,57,84,4
2,52,77,4
2,43,95,4
2,50,75,192
2,55,80,4
2,50,75,4
2,41,75,4
2,48,72,192
2,53,91,4
2,48,79,4
2,43,92,4
2,50,77,192
2,55,85,4
2,50,81,4
2,48,97,4
2,55,80,192
2,60,86,4
2,55,80,4
2,48,72,4
2,60,72,0
2,55,74,0
2,36,68,388
2,43,65,192
2,48,61,4
2,43,68,4
2,36,68,4
2,43,68,192
2,48,75,4
2,43,71,4
2,43,78,4
2,50,65,192
2,55,73,4
2,50,70,4
2,43,84,4
2,50,66,192
2,55,68,4
2,50,70,4
2,41,75,4
2,48,73,192
2,53,72,4
2,48,64,4
2,43,80,4
2,50,65,192
2,55,65,4
2,50,69,4
2,48,68,4
2,55,46,192
2,60,65,4
2,55,72,4
2,43,73,4
2,50,70,192
2,55,57,4
2,50,68,4
2,36,70,4
2,43,66,192
2,48,68,4
2,43,74,4
2,36,73,4
2,43,66,192
2,48,70,4
2,43,71,4
2,46,78,4
2,53,65,192
2,58,58,4
2,53,71,4
2,43,90,4
2,50,57,192
2,55,74,4
2,50,73,4
2,41,85,4
2,48,66,192
2,53,75,4
2,48,68,4
2,43,83,4
2,50,70,192
2,55,68,4
2,50,70,4
2,48,70,4
2,55,64,192
2,60,76,4
2,55,64,4
2,48,77,4
2,55,66,4
2,47,78,4
2,55,63,4
2,45,80,4
2,52,65,192
2,57,74,4
2,52,72,4
2,45,78,4
2,52,70,192
2,57,66,4
2,52,70,4
2,40,47,4
2,47,65,192
2,52,67,4
2,47,66,4
2,40,75,4
2,47,59,192
2,52,68,4
2,47,64,4
2,41,80,4
2,48,70,192
2,53,72,4
2,48,62,4
2,43,86,4
2,50,70,192
2,55,67,4
2,50,62,4
2,45,74,4
2,52,64,192
2,57,66,4
2,52,68,4
2,40,74,4
2,47,65,192
2,52,75,4
2,47,59,4
2,45,48,4
2,52,70,192
2,57,80,4
2,52,66,4
2,45,83,4
2,52,64,192
2,57,73,4
2,52,69,4
2,40,64,4
2,47,60,192
2,52,76,4
2,47,65,4
2,40,81,4
2,47,51,192
2,52,74,4
2,47,62,4
2,41,73,4
2,48,64,192
2,53,64,4
2,48,64,4
2,43,73,4
2,50,60,192
2,55,68,4
2,50,65,4
2,41,78,4
2,48,68,192
2,53,77,4
2,48,61,4
2,43,79,4
2,50,68,192
2,55,61,4
2,50,62,4
2,36,68,4
2,43,65,192
2,48,61,4
2,43,68,4
2,36,68,4
2,43,68,192
2,48,75,4
2,43,71,4
2,43,78,4
2,50,65,192
2,55,73,4
2,50,70,4
2,43,84,4
2,50,66,192
2,55,68,4
2,50,70,4
2,41,75,4
2,48,73,192
2,53,72,4
2,48,64,4
2,43,80,4
2,50,65,192
2,55,65,4
2,50,69,4
2,48,68,4
2,55,46,192
2,60,65,4
2,55,72,4
2,43,73,4
2,50,70,192
2,55,57,4
2,50,68,4
2,36,70,4
2,43,66,192
2,48,68,4
2,43,74,4
2,36,73,4
2,43,66,192
2,48,70,4
2,43,71,4
2,46,78,4
2,53,65,192
2,58,58,4
2,53,71,4
2,43,90,4
2,50,57,192
2,55,74,4
2,50,73,4
2,41,85,4
2,48,66,192
2,53,75,4
2,48,68,4
2,43,83,4
2,50,70,192
2,55,68,4
2,50,70,4
2,48,70,4
2,55,64,192
2,60,76,4
2,55,64,4
2,48,87,4
2,36,68,388
2,43,65,192
2,48,61,4
2,43,68,4
2,36,68,4
2,43,68,192
2,48,75,4
2,43,71,4
2,43,78,4
2,50,65,192
2,55,73,4
2,50,70,4
2,43,84,4
2,50,66,192
2,55,68,4
2,50,70,4
2,41,75,4
2,48,73,192
2,53,72,4
2,48,64,4
2,43,80,4
2,50,65,192
2,55,65,4
2,50,69,4
2,48,68,4
2,55,46,192
2,60,65,4
2,55,72,4
2,43,73,4
2,50,70,192
2,55,57,4
2,50,68,4
2,36,70,4
2,43,66,192
2,48,68,4
2,43,74,4
2,36,73,4
2,43,66,192
2,48,70,4
2,43,71,4
2,46,78,4
2,53,65,192
2,58,58,4
2,53,71,4
2,43,90,4
2,50,57,192
2,55,74,4
2,50,73,4
2,41,85,4
2,48,66,192
2,53,75,4
2,48,68,4
2,43,83,4
2,50,70,192
2,55,68,4
2,50,70,4
2,48,70,4
2,55,64,192
2,60,76,4
2,55,64,4
2,48,77,4
2,55,66,4
2,47,78,4
2,55,63,4
2,45,80,4
2,52,65,192
2,57,74,4
2,52,72,4
2,45,78,4
2,52,70,192
2,57,66,4
2,52,70,4
2,40,47,4
2,47,65,192
2,52,67,4
2,47,66,4
2,40,75,4
2,47,59,192
2,52,68,4
2,47,64,4
2,41,80,4
2,48,70,192
2,53,72,4
2,48,62,4
2,43,86,4
2,50,70,192
2,55,67,4
2,50,62,4
2,45,74,4
2,52,64,192
2,57,66,4
2,52,68,4
2,40,74,4
2,47,65,192
2,52,75,4
2,47,59,4
2,45,48,4
2,52,70,192
2,57,80,4
2,52,66,4
2,45,83,4
2,52,64,192
2,57,73,4
2,52,69,4
2,40,64,4
2,47,60,192
2,52,76,4
2,47,65,4
2,40,81,4
2,47,51,192
2,52,74,4
2,47,62,4
2,41,73,4
2,48,64,192
2,53,64,4
2,48,64,4
2,43,73,4
2,50,60,192
2,55,68,4
2,50,65,4
2,41,78,4
2,48,68,192
2,53,77,4
2,48,61,4
2,43,79,4
2,50,68,192
2,55,61,4
2,50,62,4
2,36,68,4
2,43,65,192
2,48,61,4
2,43,68,4
2,36,68,4
2,43,68,192
2,48,75,4
2,43,71,4
2,43,78,4
2,50,65,192
2,55,73,4
2,50,70,4
2,43,84,4
2,50,66,192
2,55,68,4
2,50,70,4
2,41,75,4
2,48,73,192
2,53,72,4
2,48,64,4
2,43,80,4
2,50,65,192
2,55,65,4
2,50,69,4
2,48,68,4
2,55,46,192
2,60,65,4
2,55,72,4
2,43,73,4
2,50,70,192
2,55,57,4
2,50,68,4
2,36,70,4
2,43,66,192
2,48,68,4
2,43,74,4
2,36,73,4
2,43,66,192
2,48,70,4
2,43,71,4
2,46,78,4
2,53,65,192
2,58,58,4
2,53,71,4
2,43,90,4
2,50,57,192
2,55,74,4
2,50,73,4
2,41,85,4
2,48,66,192
2,53,75,4
2,48,68,4
2,43,83,4
2,50,70,192
2,55,68,4
2,50,70,4
2,48,70,4
2,55,64,192
2,60,76,4
2,55,64,4
2,43,70,4
2,50,66,192
2,55,75,4
2,50,79,4
2,36,83,4
3,67,86,208
3,72,94,20
3,67,85,14
3,67,86,192
3,72,91,16
3,67,84,24
3,67,88,24
3,71,88,40
3,67,86,26
3,67,86,302
3,71,91,24
3,67,85,16
3,65,91,280
3,69,94,16
3,65,88,16
3,67,85,90
3,71,95,20
3,67,85,20
3,67,87,14
3,72,84,16
3,67,90,20
3,67,86,308
3,71,98,20
3,67,90,126
3,67,73,100
3,72,87,10
3,67,78,32
3,67,84,100
3,72,84,16
3,67,75,20
3,65,80,308
3,70,93,46
3,65,83,40
3,67,85,296
3,71,91,40
3,67,83,26
3,65,92,10
3,69,92,104
3,65,86,24
3,67,86,10
3,71,92,36
3,67,84,24
3,67,85,10
3,72,92,74
3,67,81,16
3,57,80,208
3,60,88,0
3,60,87,148
3,57,81,0
3,60,85,148
3,57,76,0
3,60,87,152
3,57,79,0
3,60,85,144
3,57,75,0
3,57,77,144
3,60,85,0
3,57,80,142
3,60,90,0
3,52,88,330
3,55,94,0
3,52,91,142
3,55,92,0
3,52,86,148
3,55,90,0
3,52,87,144
3,55,90,0
3,52,80,148
3,55,87,0
3,52,85,154
3,55,90,0
3,52,90,142
3,55,94,0
3,53,86,330
3,57,86,0
3,57,88,148
3,53,90,0
3,57,91,144
3,53,92,0
3,59,90,336
3,55,79,0
3,59,94,152
3,55,90,0
3,59,98,144
3,55,94,0
3,57,85,334
3,60,92,0
3,60,88,148
3,57,80,0
3,57,85,144
3,60,90,0
3,52,91,330
3,55,95,0
3,52,87,144
3,55,92,0
3,52,92,148
3,55,97,0
3,57,85,334
3,60,91,0
3,57,83,144
3,60,87,0
3,57,84,152
3,60,88,0
3,60,83,154
3,57,80,0
3,57,83,158
3,60,87,0
3,57,80,148
3,60,86,0
3,57,83,152
3,60,86,0
3,52,85,344
3,55,90,0
3,55,95,148
3,52,91,0
