track,note,velocity,time
1.0,76.0,62.0,2304.0
1.0,69.0,62.0,0.0
1.0,76.0,62.0,324.0
1.0,69.0,62.0,0.0
1.0,76.0,62.0,708.0
1.0,69.0,62.0,0.0
1.0,76.0,62.0,324.0
1.0,69.0,62.0,0.0
1.0,76.0,62.0,324.0
1.0,69.0,62.0,0.0
1.0,76.0,62.0,324.0
1.0,69.0,62.0,0.0
1.0,76.0,62.0,324.0
1.0,69.0,62.0,0.0
1.0,76.0,62.0,324.0
1.0,69.0,62.0,0.0
1.0,76.0,62.0,324.0
1.0,69.0,62.0,0.0
1.0,76.0,62.0,324.0
1.0,69.0,62.0,0.0
1.0,76.0,62.0,324.0
1.0,69.0,62.0,0.0
1.0,64.0,100.0,324.0
1.0,65.0,100.0,8.0
1.0,64.0,100.0,8.0
1.0,64.0,100.0,392.0
1.0,65.0,100.0,8.0
1.0,67.0,100.0,8.0
1.0,65.0,100.0,8.0
1.0,60.0,100.0,8.0
1.0,62.0,100.0,8.0
1.0,64.0,100.0,392.0
1.0,65.0,100.0,8.0
1.0,64.0,100.0,8.0
1.0,69.0,100.0,392.0
1.0,71.0,100.0,8.0
1.0,72.0,100.0,8.0
1.0,74.0,100.0,8.0
1.0,72.0,100.0,8.0
1.0,71.0,100.0,8.0
1.0,67.0,100.0,8.0
1.0,62.0,100.0,8.0
1.0,64.0,100.0,8.0
1.0,64.0,100.0,1160.0
1.0,65.0,100.0,8.0
1.0,64.0,100.0,8.0
1.0,67.0,100.0,8.0
1.0,65.0,100.0,8.0
1.0,64.0,100.0,8.0
1.0,62.0,100.0,8.0
1.0,60.0,100.0,8.0
1.0,59.0,100.0,8.0
1.0,59.0,100.0,8.0
1.0,57.0,100.0,8.0
1.0,64.0,100.0,392.0
1.0,65.0,100.0,8.0
1.0,64.0,100.0,8.0
1.0,64.0,100.0,392.0
1.0,65.0,100.0,8.0
1.0,67.0,100.0,8.0
1.0,65.0,100.0,8.0
1.0,60.0,100.0,8.0
1.0,62.0,100.0,8.0
1.0,64.0,100.0,392.0
1.0,65.0,100.0,8.0
1.0,64.0,100.0,8.0
1.0,69.0,100.0,392.0
1.0,71.0,100.0,8.0
1.0,72.0,100.0,8.0
1.0,74.0,100.0,8.0
1.0,72.0,100.0,8.0
1.0,71.0,100.0,8.0
1.0,67.0,100.0,8.0
1.0,62.0,100.0,8.0
1.0,64.0,100.0,8.0
1.0,64.0,100.0,1160.0
1.0,65.0,100.0,8.0
1.0,64.0,100.0,8.0
1.0,67.0,100.0,8.0
1.0,65.0,100.0,8.0
1.0,64.0,100.0,8.0
1.0,62.0,100.0,8.0
1.0,60.0,100.0,8.0
1.0,59.0,100.0,8.0
1.0,59.0,100.0,8.0
1.0,57.0,100.0,4.0
1.0,61.0,100.0,580.0
1.0,62.0,100.0,4.0
1.0,64.0,100.0,4.0
1.0,61.0,100.0,8.0
1.0,64.0,100.0,8.0
1.0,68.0,100.0,8.0
1.0,69.0,100.0,960.0
1.0,66.0,100.0,4.0
1.0,64.0,100.0,4.0
1.0,69.0,100.0,8.0
1.0,64.0,100.0,8.0
1.0,66.0,100.0,384.0
1.0,64.0,100.0,4.0
1.0,57.0,100.0,4.0
1.0,59.0,100.0,4.0
1.0,61.0,100.0,196.0
1.0,61.0,100.0,8.0
1.0,64.0,100.0,8.0
1.0,68.0,100.0,8.0
1.0,71.0,100.0,200.0
1.0,71.0,100.0,8.0
1.0,73.0,100.0,8.0
1.0,69.0,100.0,8.0
1.0,66.0,100.0,1160.0
1.0,69.0,100.0,4.0
1.0,68.0,100.0,4.0
1.0,64.0,100.0,4.0
1.0,61.0,100.0,4.0
1.0,62.0,100.0,8.0
1.0,64.0,100.0,8.0
1.0,61.0,100.0,8.0
1.0,64.0,100.0,8.0
1.0,68.0,100.0,8.0
1.0,69.0,100.0,960.0
1.0,66.0,100.0,4.0
1.0,64.0,100.0,4.0
1.0,69.0,100.0,8.0
1.0,64.0,100.0,8.0
1.0,66.0,100.0,384.0
1.0,64.0,100.0,4.0
1.0,61.0,100.0,16900.0
1.0,62.0,100.0,8.0
1.0,64.0,100.0,8.0
1.0,61.0,100.0,8.0
1.0,64.0,100.0,8.0
1.0,68.0,100.0,8.0
1.0,69.0,100.0,960.0
1.0,66.0,100.0,4.0
1.0,64.0,100.0,4.0
1.0,69.0,100.0,8.0
1.0,64.0,100.0,8.0
1.0,66.0,100.0,384.0
1.0,64.0,100.0,4.0
1.0,57.0,100.0,4.0
1.0,59.0,100.0,4.0
1.0,61.0,100.0,580.0
1.0,61.0,100.0,12.0
1.0,64.0,100.0,12.0
1.0,68.0,100.0,12.0
1.0,71.0,100.0,204.0
1.0,71.0,100.0,12.0
1.0,73.0,100.0,12.0
1.0,69.0,100.0,12.0
1.0,66.0,100.0,1164.0
1.0,69.0,100.0,8.0
1.0,68.0,100.0,8.0
1.0,64.0,100.0,8.0
1.0,61.0,100.0,8.0
1.0,62.0,100.0,12.0
1.0,64.0,100.0,12.0
1.0,61.0,100.0,12.0
1.0,64.0,100.0,12.0
1.0,68.0,100.0,12.0
1.0,69.0,100.0,960.0
1.0,66.0,100.0,4.0
1.0,64.0,100.0,4.0
1.0,69.0,100.0,12.0
1.0,64.0,100.0,12.0
1.0,66.0,100.0,384.0
1.0,64.0,100.0,8.0
1.0,61.0,100.0,392.0
1.0,62.0,100.0,288.0
1.0,64.0,100.0,4.0
1.0,61.0,100.0,396.0
1.0,62.0,100.0,288.0
1.0,64.0,100.0,4.0
1.0,64.0,100.0,972.0
1.0,66.0,100.0,4.0
1.0,64.0,68.0,4.0
1.0,62.0,50.0,388.0
1.0,64.0,50.0,4.0
1.0,61.0,21.0,4.0
1.0,62.0,21.0,288.0
1.0,64.0,21.0,4.0
1.0,61.0,15.0,396.0
1.0,62.0,15.0,288.0
1.0,64.0,15.0,4.0
1.0,64.0,15.0,972.0
1.0,66.0,15.0,4.0
1.0,64.0,10.0,4.0
1.0,62.0,7.0,388.0
1.0,64.0,7.0,4.0
2.0,45.0,108.0,6912.0
2.0,52.0,108.0,8.0
2.0,60.0,108.0,8.0
2.0,45.0,108.0,392.0
2.0,43.0,108.0,8.0
2.0,50.0,108.0,8.0
2.0,59.0,108.0,8.0
2.0,41.0,108.0,584.0
2.0,48.0,108.0,8.0
2.0,57.0,108.0,8.0
2.0,43.0,108.0,584.0
2.0,50.0,108.0,8.0
2.0,59.0,108.0,8.0
2.0,45.0,108.0,584.0
2.0,52.0,108.0,8.0
2.0,60.0,108.0,8.0
2.0,45.0,108.0,392.0
2.0,43.0,108.0,8.0
2.0,50.0,108.0,8.0
2.0,59.0,108.0,8.0
2.0,41.0,108.0,584.0
2.0,48.0,108.0,8.0
2.0,57.0,108.0,8.0
2.0,43.0,108.0,584.0
2.0,50.0,108.0,8.0
2.0,59.0,108.0,8.0
2.0,45.0,108.0,584.0
2.0,52.0,108.0,8.0
2.0,60.0,108.0,8.0
2.0,45.0,108.0,392.0
2.0,43.0,108.0,8.0
2.0,50.0,108.0,8.0
2.0,59.0,108.0,8.0
2.0,41.0,108.0,584.0
2.0,48.0,108.0,8.0
2.0,57.0,108.0,8.0
2.0,43.0,108.0,584.0
2.0,50.0,108.0,8.0
2.0,59.0,108.0,8.0
2.0,45.0,108.0,2888.0
2.0,52.0,108.0,8.0
2.0,60.0,108.0,8.0
2.0,45.0,108.0,392.0
2.0,43.0,108.0,8.0
2.0,50.0,108.0,8.0
2.0,59.0,108.0,8.0
2.0,41.0,108.0,584.0
2.0,48.0,108.0,8.0
2.0,57.0,108.0,8.0
2.0,43.0,108.0,584.0
2.0,50.0,108.0,8.0
2.0,59.0,108.0,8.0
2.0,45.0,108.0,584.0
2.0,52.0,108.0,8.0
2.0,60.0,108.0,8.0
2.0,45.0,108.0,392.0
2.0,43.0,108.0,8.0
2.0,50.0,108.0,8.0
2.0,59.0,108.0,8.0
2.0,41.0,108.0,584.0
2.0,48.0,108.0,8.0
2.0,57.0,108.0,8.0
2.0,43.0,108.0,584.0
2.0,50.0,108.0,8.0
2.0,59.0,108.0,8.0
2.0,45.0,108.0,584.0
2.0,52.0,108.0,8.0
2.0,60.0,108.0,8.0
2.0,45.0,108.0,392.0
2.0,43.0,108.0,8.0
2.0,50.0,108.0,8.0
2.0,59.0,108.0,8.0
2.0,41.0,108.0,584.0
2.0,48.0,108.0,8.0
2.0,57.0,108.0,8.0
2.0,43.0,108.0,584.0
2.0,50.0,108.0,8.0
2.0,59.0,108.0,8.0
2.0,45.0,108.0,25160.0
2.0,52.0,108.0,8.0
2.0,60.0,108.0,8.0
2.0,45.0,108.0,392.0
2.0,43.0,108.0,8.0
2.0,50.0,108.0,8.0
2.0,59.0,108.0,8.0
2.0,41.0,108.0,584.0
2.0,48.0,108.0,8.0
2.0,57.0,108.0,8.0
2.0,43.0,108.0,584.0
2.0,50.0,108.0,8.0
2.0,59.0,108.0,8.0
2.0,45.0,108.0,584.0
2.0,52.0,108.0,8.0
2.0,60.0,108.0,8.0
2.0,45.0,108.0,392.0
2.0,43.0,108.0,8.0
2.0,50.0,108.0,8.0
2.0,59.0,108.0,8.0
2.0,41.0,108.0,584.0
2.0,48.0,108.0,8.0
2.0,57.0,108.0,8.0
2.0,43.0,108.0,584.0
2.0,50.0,108.0,8.0
2.0,59.0,108.0,8.0
2.0,45.0,108.0,584.0
2.0,52.0,108.0,8.0
2.0,60.0,108.0,8.0
2.0,45.0,108.0,392.0
2.0,43.0,108.0,8.0
2.0,50.0,108.0,8.0
2.0,59.0,108.0,8.0
2.0,41.0,108.0,584.0
2.0,48.0,108.0,8.0
2.0,57.0,108.0,8.0
2.0,43.0,108.0,584.0
2.0,50.0,108.0,8.0
2.0,59.0,108.0,8.0
3.0,69.0,78.0,3072.0
3.0,67.0,78.0,4.0
3.0,69.0,78.0,772.0
3.0,67.0,78.0,4.0
3.0,60.0,100.0,388.0
3.0,60.0,100.0,264.0
3.0,59.0,100.0,648.0
3.0,59.0,100.0,264.0
3.0,57.0,100.0,648.0
3.0,57.0,100.0,264.0
3.0,59.0,100.0,648.0
3.0,59.0,100.0,264.0
3.0,60.0,100.0,648.0
3.0,60.0,100.0,264.0
3.0,59.0,100.0,648.0
3.0,59.0,100.0,264.0
3.0,57.0,100.0,648.0
3.0,57.0,100.0,264.0
3.0,59.0,100.0,648.0
3.0,59.0,100.0,264.0
3.0,60.0,100.0,648.0
3.0,60.0,100.0,264.0
3.0,59.0,100.0,648.0
3.0,59.0,100.0,264.0
3.0,57.0,100.0,648.0
3.0,57.0,100.0,264.0
3.0,59.0,100.0,648.0
3.0,59.0,100.0,264.0
3.0,59.0,100.0,264.0
3.0,50.0,100.0,0.0
3.0,52.0,100.0,8.0
3.0,60.0,100.0,776.0
3.0,60.0,100.0,264.0
3.0,59.0,100.0,648.0
3.0,59.0,100.0,264.0
3.0,57.0,100.0,648.0
3.0,57.0,100.0,264.0
3.0,59.0,100.0,648.0
3.0,59.0,100.0,264.0
3.0,60.0,100.0,648.0
3.0,60.0,100.0,264.0
3.0,59.0,100.0,648.0
3.0,59.0,100.0,264.0
3.0,57.0,100.0,648.0
3.0,57.0,100.0,264.0
3.0,59.0,100.0,648.0
3.0,59.0,100.0,264.0
3.0,60.0,100.0,648.0
3.0,60.0,100.0,264.0
3.0,59.0,100.0,648.0
3.0,59.0,100.0,264.0
3.0,57.0,100.0,648.0
3.0,57.0,100.0,264.0
3.0,59.0,100.0,648.0
3.0,59.0,100.0,264.0
3.0,59.0,100.0,264.0
3.0,50.0,100.0,0.0
3.0,60.0,100.0,4.0
3.0,60.0,100.0,23236.0
3.0,60.0,100.0,264.0
3.0,59.0,100.0,648.0
3.0,59.0,100.0,264.0
3.0,57.0,100.0,648.0
3.0,57.0,100.0,264.0
3.0,59.0,100.0,648.0
3.0,59.0,100.0,264.0
3.0,60.0,100.0,648.0
3.0,60.0,100.0,264.0
3.0,59.0,100.0,648.0
3.0,59.0,100.0,264.0
3.0,57.0,100.0,648.0
3.0,57.0,100.0,264.0
3.0,59.0,100.0,648.0
3.0,59.0,100.0,264.0
3.0,60.0,100.0,648.0
3.0,60.0,100.0,264.0
3.0,59.0,100.0,648.0
3.0,59.0,100.0,264.0
3.0,57.0,100.0,648.0
3.0,57.0,100.0,264.0
3.0,59.0,100.0,648.0
3.0,59.0,100.0,264.0
4.0,57.0,77.0,23040.0
4.0,48.0,77.0,0.0
4.0,57.0,77.0,8.0
4.0,48.0,77.0,0.0
4.0,57.0,77.0,8.0
4.0,48.0,77.0,0.0
4.0,57.0,77.0,8.0
4.0,48.0,77.0,0.0
4.0,57.0,77.0,8.0
4.0,48.0,77.0,0.0
4.0,57.0,77.0,8.0
4.0,48.0,77.0,0.0
4.0,57.0,77.0,8.0
4.0,57.0,77.0,8.0
4.0,56.0,77.0,4.0
4.0,54.0,77.0,4.0
4.0,52.0,77.0,4.0
4.0,50.0,77.0,4.0
4.0,57.0,77.0,4.0
4.0,49.0,77.0,0.0
4.0,56.0,77.0,4.0
4.0,52.0,77.0,0.0
4.0,57.0,77.0,772.0
4.0,56.0,77.0,8.0
4.0,54.0,77.0,8.0
4.0,52.0,77.0,8.0
4.0,50.0,77.0,8.0
4.0,57.0,77.0,4.0
4.0,57.0,77.0,4.0
4.0,56.0,77.0,4.0
4.0,54.0,77.0,4.0
4.0,52.0,77.0,4.0
4.0,50.0,77.0,4.0
4.0,57.0,77.0,4.0
4.0,57.0,77.0,14212.0
4.0,57.0,77.0,8.0
4.0,56.0,77.0,4.0
4.0,54.0,77.0,4.0
4.0,52.0,77.0,4.0
4.0,50.0,77.0,4.0
4.0,57.0,77.0,4.0
4.0,49.0,77.0,0.0
4.0,56.0,77.0,4.0
4.0,52.0,77.0,0.0
4.0,57.0,77.0,388.0
4.0,56.0,77.0,12.0
4.0,54.0,77.0,12.0
4.0,52.0,77.0,12.0
4.0,50.0,77.0,12.0
4.0,57.0,77.0,8.0
4.0,57.0,77.0,8.0
4.0,56.0,77.0,8.0
4.0,54.0,77.0,8.0
4.0,52.0,77.0,8.0
4.0,50.0,77.0,8.0
4.0,57.0,77.0,8.0
4.0,57.0,77.0,392.0
4.0,56.0,77.0,8.0
4.0,54.0,77.0,8.0
4.0,52.0,54.0,8.0
4.0,57.0,13.0,2312.0
4.0,56.0,11.0,8.0
4.0,54.0,11.0,8.0
4.0,52.0,8.0,8.0
5.0,76.0,62.0,39552.0
5.0,69.0,62.0,0.0
5.0,64.0,106.0,0.0
5.0,76.0,62.0,260.0
5.0,69.0,62.0,0.0
5.0,64.0,106.0,0.0
5.0,64.0,106.0,644.0
5.0,64.0,106.0,260.0
5.0,64.0,106.0,644.0
5.0,64.0,106.0,260.0
5.0,64.0,106.0,644.0
5.0,64.0,106.0,260.0
5.0,76.0,62.0,4484.0
5.0,69.0,62.0,0.0
5.0,64.0,106.0,0.0
5.0,76.0,62.0,260.0
5.0,69.0,62.0,0.0
5.0,64.0,106.0,0.0
5.0,64.0,106.0,644.0
5.0,64.0,106.0,260.0
5.0,64.0,106.0,644.0
5.0,64.0,106.0,260.0
5.0,64.0,106.0,644.0
5.0,64.0,106.0,260.0
5.0,76.0,62.0,2948.0
5.0,69.0,62.0,0.0
5.0,64.0,106.0,0.0
5.0,76.0,62.0,260.0
5.0,69.0,62.0,0.0
5.0,64.0,106.0,0.0
5.0,64.0,106.0,644.0
5.0,64.0,106.0,260.0
5.0,64.0,106.0,644.0
5.0,64.0,106.0,260.0
5.0,64.0,106.0,644.0
5.0,64.0,106.0,260.0
5.0,64.0,62.0,2564.0
5.0,62.0,62.0,4.0
5.0,64.0,62.0,4.0
5.0,62.0,62.0,4.0
5.0,64.0,62.0,4.0
5.0,62.0,62.0,4.0
5.0,67.0,62.0,4.0
5.0,69.0,62.0,4.0
5.0,64.0,62.0,0.0
5.0,76.0,62.0,388.0
5.0,69.0,62.0,0.0
5.0,64.0,106.0,0.0
5.0,76.0,62.0,260.0
5.0,69.0,62.0,0.0
5.0,64.0,106.0,0.0
5.0,64.0,106.0,644.0
5.0,64.0,106.0,260.0
5.0,64.0,106.0,644.0
5.0,64.0,106.0,260.0
5.0,64.0,106.0,644.0
5.0,64.0,106.0,260.0
5.0,76.0,62.0,4484.0
5.0,69.0,62.0,0.0
5.0,64.0,106.0,0.0
5.0,76.0,62.0,260.0
5.0,69.0,62.0,0.0
5.0,64.0,106.0,0.0
5.0,64.0,106.0,644.0
5.0,64.0,106.0,260.0
5.0,64.0,106.0,644.0
5.0,64.0,106.0,260.0
5.0,64.0,106.0,644.0
5.0,64.0,106.0,260.0
5.0,76.0,62.0,2948.0
5.0,69.0,62.0,0.0
5.0,64.0,106.0,0.0
5.0,76.0,62.0,260.0
5.0,69.0,62.0,0.0
5.0,64.0,106.0,0.0
5.0,64.0,106.0,644.0
5.0,64.0,106.0,260.0
5.0,64.0,106.0,644.0
5.0,64.0,106.0,260.0
5.0,64.0,106.0,644.0
5.0,64.0,106.0,260.0
5.0,76.0,62.0,2948.0
5.0,69.0,62.0,0.0
5.0,64.0,106.0,0.0
5.0,76.0,62.0,260.0
5.0,69.0,62.0,0.0
5.0,64.0,106.0,0.0
5.0,64.0,106.0,644.0
5.0,64.0,106.0,260.0
5.0,64.0,106.0,644.0
5.0,64.0,106.0,260.0
5.0,64.0,89.0,644.0
5.0,64.0,89.0,260.0
5.0,76.0,11.0,2948.0
5.0,69.0,11.0,0.0
5.0,64.0,19.0,0.0
5.0,76.0,7.0,260.0
5.0,69.0,7.0,0.0
5.0,64.0,12.0,0.0
5.0,64.0,12.0,644.0
5.0,64.0,12.0,260.0
5.0,64.0,12.0,644.0
5.0,64.0,12.0,260.0
5.0,64.0,10.0,644.0
5.0,64.0,10.0,260.0
6.0,45.0,75.0,1536.0
6.0,43.0,75.0,388.0
6.0,41.0,75.0,4.0
6.0,43.0,75.0,4.0
6.0,45.0,62.0,32260.0
6.0,44.0,62.0,4.0
6.0,40.0,62.0,196.0
6.0,42.0,62.0,4.0
6.0,40.0,62.0,4.0
6.0,42.0,62.0,4.0
6.0,40.0,62.0,4.0
6.0,33.0,62.0,4.0
6.0,35.0,62.0,4.0
6.0,45.0,62.0,196.0
6.0,44.0,62.0,8.0
6.0,40.0,62.0,200.0
6.0,42.0,62.0,8.0
6.0,40.0,62.0,8.0
6.0,42.0,62.0,8.0
6.0,40.0,62.0,4.0
6.0,45.0,62.0,4.0
6.0,44.0,62.0,4.0
6.0,40.0,62.0,196.0
6.0,42.0,62.0,4.0
6.0,40.0,62.0,4.0
6.0,42.0,62.0,4.0
6.0,40.0,62.0,4.0
6.0,45.0,62.0,16516.0
6.0,44.0,62.0,4.0
6.0,40.0,62.0,196.0
6.0,42.0,62.0,4.0
6.0,40.0,62.0,4.0
6.0,42.0,62.0,4.0
6.0,40.0,62.0,4.0
6.0,33.0,62.0,4.0
6.0,35.0,100.0,4.0
6.0,45.0,62.0,580.0
6.0,44.0,62.0,12.0
6.0,40.0,62.0,204.0
6.0,42.0,62.0,12.0
6.0,40.0,62.0,12.0
6.0,42.0,62.0,12.0
6.0,40.0,62.0,8.0
6.0,45.0,62.0,8.0
6.0,44.0,62.0,8.0
6.0,40.0,62.0,200.0
6.0,42.0,62.0,8.0
6.0,40.0,62.0,8.0
6.0,42.0,62.0,8.0
6.0,40.0,62.0,8.0
6.0,45.0,62.0,392.0
6.0,44.0,62.0,12.0
6.0,40.0,62.0,204.0
6.0,42.0,62.0,12.0
6.0,40.0,62.0,12.0
6.0,38.0,40.0,12.0
6.0,40.0,40.0,4.0
6.0,45.0,11.0,388.0
6.0,44.0,9.0,12.0
6.0,40.0,9.0,204.0
6.0,42.0,9.0,12.0
6.0,40.0,9.0,12.0
6.0,38.0,6.0,12.0
6.0,40.0,6.0,4.0
7.0,59.0,103.0,60480.0
7.0,68.0,103.0,192.0
7.0,64.0,103.0,196.0
7.0,64.0,103.0,192.0
7.0,64.0,103.0,192.0
7.0,64.0,103.0,192.0
7.0,64.0,103.0,192.0
7.0,64.0,103.0,192.0
7.0,62.0,103.0,4.0
7.0,64.0,103.0,192.0
7.0,57.0,103.0,192.0
7.0,72.0,103.0,196.0
7.0,71.0,103.0,96.0
7.0,69.0,103.0,96.0
7.0,67.0,103.0,4.0
7.0,67.0,103.0,100.0
7.0,69.0,103.0,192.0
7.0,69.0,103.0,4.0
7.0,67.0,103.0,196.0
7.0,69.0,103.0,192.0
7.0,69.0,103.0,192.0
7.0,69.0,103.0,4.0
7.0,71.0,103.0,4.0
7.0,72.0,103.0,192.0
7.0,65.0,103.0,4.0
7.0,69.0,103.0,1060.0
7.0,72.0,103.0,96.0
7.0,69.0,103.0,196.0
7.0,72.0,103.0,96.0
7.0,69.0,103.0,196.0
7.0,72.0,103.0,4.0
7.0,69.0,103.0,196.0
7.0,71.0,103.0,4.0
7.0,69.0,103.0,196.0
7.0,71.0,103.0,4.0
7.0,67.0,103.0,292.0
7.0,69.0,103.0,4.0
7.0,67.0,103.0,4.0
7.0,69.0,103.0,96.0
7.0,55.0,103.0,192.0
7.0,57.0,103.0,4.0
7.0,69.0,103.0,4.0
7.0,60.0,103.0,0.0
7.0,65.0,103.0,196.0
7.0,67.0,103.0,4.0
7.0,67.0,103.0,4.0
7.0,67.0,103.0,4.0
7.0,69.0,103.0,4.0
7.0,69.0,103.0,4.0
7.0,69.0,103.0,4.0
7.0,78.0,103.0,22468.0
7.0,78.0,103.0,192.0
7.0,76.0,103.0,192.0
7.0,78.0,103.0,4.0
7.0,78.0,103.0,192.0
7.0,76.0,103.0,192.0
7.0,73.0,100.0,1540.0
7.0,73.0,100.0,4.0
7.0,71.0,100.0,4.0
7.0,78.0,18.0,2500.0
7.0,78.0,18.0,192.0
7.0,76.0,18.0,192.0
7.0,78.0,12.0,4.0
7.0,78.0,12.0,192.0
7.0,76.0,12.0,192.0
7.0,73.0,12.0,1540.0
7.0,73.0,12.0,4.0
7.0,71.0,12.0,4.0
0.0,0.0,0.0,0.0
0.0,0.0,0.0,0.0
0.0,0.0,0.0,0.0
0.0,0.0,0.0,0.0
0.0,0.0,0.0,0.0
0.0,0.0,0.0,0.0
0.0,0.0,0.0,0.0
0.0,0.0,0.0,0.0
0.0,0.0,0.0,0.0
0.0,0.0,0.0,0.0
0.0,0.0,0.0,0.0
0.0,0.0,0.0,0.0
0.0,0.0,0.0,0.0
0.0,0.0,0.0,0.0
0.0,0.0,0.0,0.0
0.0,0.0,0.0,0.0
0.0,0.0,0.0,0.0
0.0,0.0,0.0,0.0
0.0,0.0,0.0,0.0
0.0,0.0,0.0,0.0
0.0,0.0,0.0,0.0
0.0,0.0,0.0,0.0
0.0,0.0,0.0,0.0
0.0,0.0,0.0,0.0
0.0,0.0,0.0,0.0
0.0,0.0,0.0,0.0
0.0,0.0,0.0,0.0
0.0,0.0,0.0,0.0
0.0,0.0,0.0,0.0
0.0,0.0,0.0,0.0
0.0,0.0,0.0,0.0
0.0,0.0,0.0,0.0
0.0,0.0,0.0,0.0
0.0,0.0,0.0,0.0
0.0,0.0,0.0,0.0
0.0,0.0,0.0,0.0
0.0,0.0,0.0,0.0
0.0,0.0,0.0,0.0
0.0,0.0,0.0,0.0
0.0,0.0,0.0,0.0
0.0,0.0,0.0,0.0
0.0,0.0,0.0,0.0
0.0,0.0,0.0,0.0
0.0,0.0,0.0,0.0
0.0,0.0,0.0,0.0
0.0,0.0,0.0,0.0
0.0,0.0,0.0,0.0
0.0,0.0,0.0,0.0
0.0,0.0,0.0,0.0
0.0,0.0,0.0,0.0
0.0,0.0,0.0,0.0
0.0,0.0,0.0,0.0
0.0,0.0,0.0,0.0
0.0,0.0,0.0,0.0
0.0,0.0,0.0,0.0
0.0,0.0,0.0,0.0
0.0,0.0,0.0,0.0
0.0,0.0,0.0,0.0
0.0,0.0,0.0,0.0
0.0,0.0,0.0,0.0
0.0,0.0,0.0,0.0
0.0,0.0,0.0,0.0
0.0,0.0,0.0,0.0
0.0,0.0,0.0,0.0
0.0,0.0,0.0,0.0
0.0,0.0,0.0,0.0
0.0,0.0,0.0,0.0
0.0,0.0,0.0,0.0
0.0,0.0,0.0,0.0
0.0,0.0,0.0,0.0
0.0,0.0,0.0,0.0
0.0,0.0,0.0,0.0
0.0,0.0,0.0,0.0
0.0,0.0,0.0,0.0
0.0,0.0,0.0,0.0
0.0,0.0,0.0,0.0
0.0,0.0,0.0,0.0
0.0,0.0,0.0,0.0
0.0,0.0,0.0,0.0
0.0,0.0,0.0,0.0
0.0,0.0,0.0,0.0
0.0,0.0,0.0,0.0
0.0,0.0,0.0,0.0
0.0,0.0,0.0,0.0
0.0,0.0,0.0,0.0
0.0,0.0,0.0,0.0
0.0,0.0,0.0,0.0
0.0,0.0,0.0,0.0
0.0,0.0,0.0,0.0
0.0,0.0,0.0,0.0
0.0,0.0,0.0,0.0
0.0,0.0,0.0,0.0
0.0,0.0,0.0,0.0
0.0,0.0,0.0,0.0
0.0,0.0,0.0,0.0
0.0,0.0,0.0,0.0
0.0,0.0,0.0,0.0
0.0,0.0,0.0,0.0
0.0,0.0,0.0,0.0
0.0,0.0,0.0,0.0
0.0,0.0,0.0,0.0
0.0,0.0,0.0,0.0
0.0,0.0,0.0,0.0
0.0,0.0,0.0,0.0
0.0,0.0,0.0,0.0
0.0,0.0,0.0,0.0
0.0,0.0,0.0,0.0
0.0,0.0,0.0,0.0
0.0,0.0,0.0,0.0
0.0,0.0,0.0,0.0
0.0,0.0,0.0,0.0
0.0,0.0,0.0,0.0
0.0,0.0,0.0,0.0
0.0,0.0,0.0,0.0
0.0,0.0,0.0,0.0
0.0,0.0,0.0,0.0
0.0,0.0,0.0,0.0
0.0,0.0,0.0,0.0
0.0,0.0,0.0,0.0
0.0,0.0,0.0,0.0
0.0,0.0,0.0,0.0
0.0,0.0,0.0,0.0
0.0,0.0,0.0,0.0
0.0,0.0,0.0,0.0
0.0,0.0,0.0,0.0
0.0,0.0,0.0,0.0
0.0,0.0,0.0,0.0
0.0,0.0,0.0,0.0
0.0,0.0,0.0,0.0
0.0,0.0,0.0,0.0
0.0,0.0,0.0,0.0
0.0,0.0,0.0,0.0
0.0,0.0,0.0,0.0
0.0,0.0,0.0,0.0
0.0,0.0,0.0,0.0
0.0,0.0,0.0,0.0
0.0,0.0,0.0,0.0
0.0,0.0,0.0,0.0
0.0,0.0,0.0,0.0
0.0,0.0,0.0,0.0
0.0,0.0,0.0,0.0
0.0,0.0,0.0,0.0
0.0,0.0,0.0,0.0
0.0,0.0,0.0,0.0
0.0,0.0,0.0,0.0
0.0,0.0,0.0,0.0
0.0,0.0,0.0,0.0
0.0,0.0,0.0,0.0
0.0,0.0,0.0,0.0
0.0,0.0,0.0,0.0
0.0,0.0,0.0,0.0
0.0,0.0,0.0,0.0
0.0,0.0,0.0,0.0
0.0,0.0,0.0,0.0
0.0,0.0,0.0,0.0
0.0,0.0,0.0,0.0
0.0,0.0,0.0,0.0
0.0,0.0,0.0,0.0
0.0,0.0,0.0,0.0
0.0,0.0,0.0,0.0
0.0,0.0,0.0,0.0
0.0,0.0,0.0,0.0
0.0,0.0,0.0,0.0
0.0,0.0,0.0,0.0
0.0,0.0,0.0,0.0
0.0,0.0,0.0,0.0
0.0,0.0,0.0,0.0
0.0,0.0,0.0,0.0
0.0,0.0,0.0,0.0
0.0,0.0,0.0,0.0
0.0,0.0,0.0,0.0
0.0,0.0,0.0,0.0
0.0,0.0,0.0,0.0
0.0,0.0,0.0,0.0
0.0,0.0,0.0,0.0
0.0,0.0,0.0,0.0
0.0,0.0,0.0,0.0
0.0,0.0,0.0,0.0
0.0,0.0,0.0,0.0
0.0,0.0,0.0,0.0
0.0,0.0,0.0,0.0
0.0,0.0,0.0,0.0
0.0,0.0,0.0,0.0
0.0,0.0,0.0,0.0
0.0,0.0,0.0,0.0
0.0,0.0,0.0,0.0
0.0,0.0,0.0,0.0
0.0,0.0,0.0,0.0
0.0,0.0,0.0,0.0
0.0,0.0,0.0,0.0
0.0,0.0,0.0,0.0
0.0,0.0,0.0,0.0
0.0,0.0,0.0,0.0
0.0,0.0,0.0,0.0
0.0,0.0,0.0,0.0
0.0,0.0,0.0,0.0
0.0,0.0,0.0,0.0
0.0,0.0,0.0,0.0
0.0,0.0,0.0,0.0
0.0,0.0,0.0,0.0
0.0,0.0,0.0,0.0
0.0,0.0,0.0,0.0
0.0,0.0,0.0,0.0
0.0,0.0,0.0,0.0
0.0,0.0,0.0,0.0
0.0,0.0,0.0,0.0
0.0,0.0,0.0,0.0
0.0,0.0,0.0,0.0
0.0,0.0,0.0,0.0
0.0,0.0,0.0,0.0
0.0,0.0,0.0,0.0
0.0,0.0,0.0,0.0
0.0,0.0,0.0,0.0
0.0,0.0,0.0,0.0
0.0,0.0,0.0,0.0
0.0,0.0,0.0,0.0
0.0,0.0,0.0,0.0
0.0,0.0,0.0,0.0
0.0,0.0,0.0,0.0
0.0,0.0,0.0,0.0
0.0,0.0,0.0,0.0
0.0,0.0,0.0,0.0
0.0,0.0,0.0,0.0
0.0,0.0,0.0,0.0
0.0,0.0,0.0,0.0
0.0,0.0,0.0,0.0
0.0,0.0,0.0,0.0
0.0,0.0,0.0,0.0
0.0,0.0,0.0,0.0
0.0,0.0,0.0,0.0
0.0,0.0,0.0,0.0
0.0,0.0,0.0,0.0
0.0,0.0,0.0,0.0
0.0,0.0,0.0,0.0
0.0,0.0,0.0,0.0
0.0,0.0,0.0,0.0
0.0,0.0,0.0,0.0
0.0,0.0,0.0,0.0
0.0,0.0,0.0,0.0
0.0,0.0,0.0,0.0
0.0,0.0,0.0,0.0
0.0,0.0,0.0,0.0
0.0,0.0,0.0,0.0
0.0,0.0,0.0,0.0
0.0,0.0,0.0,0.0
0.0,0.0,0.0,0.0
0.0,0.0,0.0,0.0
0.0,0.0,0.0,0.0
0.0,0.0,0.0,0.0
0.0,0.0,0.0,0.0
0.0,0.0,0.0,0.0
0.0,0.0,0.0,0.0
0.0,0.0,0.0,0.0
0.0,0.0,0.0,0.0
0.0,0.0,0.0,0.0
0.0,0.0,0.0,0.0
0.0,0.0,0.0,0.0
0.0,0.0,0.0,0.0
0.0,0.0,0.0,0.0
0.0,0.0,0.0,0.0
0.0,0.0,0.0,0.0
0.0,0.0,0.0,0.0
0.0,0.0,0.0,0.0
0.0,0.0,0.0,0.0
0.0,0.0,0.0,0.0
0.0,0.0,0.0,0.0
0.0,0.0,0.0,0.0
0.0,0.0,0.0,0.0
0.0,0.0,0.0,0.0
0.0,0.0,0.0,0.0
0.0,0.0,0.0,0.0
0.0,0.0,0.0,0.0
0.0,0.0,0.0,0.0
0.0,0.0,0.0,0.0
0.0,0.0,0.0,0.0
0.0,0.0,0.0,0.0
0.0,0.0,0.0,0.0
0.0,0.0,0.0,0.0
0.0,0.0,0.0,0.0
0.0,0.0,0.0,0.0
0.0,0.0,0.0,0.0
0.0,0.0,0.0,0.0
0.0,0.0,0.0,0.0
0.0,0.0,0.0,0.0
0.0,0.0,0.0,0.0
0.0,0.0,0.0,0.0
0.0,0.0,0.0,0.0
0.0,0.0,0.0,0.0
0.0,0.0,0.0,0.0
0.0,0.0,0.0,0.0
0.0,0.0,0.0,0.0
0.0,0.0,0.0,0.0
0.0,0.0,0.0,0.0
0.0,0.0,0.0,0.0
0.0,0.0,0.0,0.0
0.0,0.0,0.0,0.0
0.0,0.0,0.0,0.0
0.0,0.0,0.0,0.0
0.0,0.0,0.0,0.0
0.0,0.0,0.0,0.0
0.0,0.0,0.0,0.0
0.0,0.0,0.0,0.0
0.0,0.0,0.0,0.0
0.0,0.0,0.0,0.0
0.0,0.0,0.0,0.0
0.0,0.0,0.0,0.0
0.0,0.0,0.0,0.0
0.0,0.0,0.0,0.0
0.0,0.0,0.0,0.0
0.0,0.0,0.0,0.0
0.0,0.0,0.0,0.0
0.0,0.0,0.0,0.0
