track,note,velocity,time
1,56,110,2672
1,58,112,0
1,59,108,0
1,63,101,568
1,58,103,0
1,59,95,0
1,56,92,228
1,58,92,0
1,59,97,0
1,54,76,0
1,63,99,560
1,59,101,0
1,58,95,0
1,53,78,300
1,56,97,0
1,59,97,0
1,58,78,0
1,63,99,584
1,58,101,0
1,59,90,0
1,56,105,440
1,51,99,0
1,58,99,0
1,58,110,468
1,51,97,0
1,55,88,0
1,58,99,228
1,59,101,0
1,56,103,0
1,63,99,560
1,58,99,0
1,59,95,0
1,54,82,292
1,56,88,0
1,58,84,0
1,59,95,0
1,63,92,580
1,59,90,0
1,58,73,0
1,56,101,344
1,53,80,0
1,59,99,0
1,58,95,0
1,63,103,596
1,58,101,0
1,59,99,0
1,56,99,504
1,58,101,0
1,51,97,0
1,58,110,476
1,55,88,0
1,51,99,0
1,63,90,152
1,56,90,4
1,58,90,0
1,59,90,0
1,58,95,460
1,63,95,0
1,59,95,0
1,56,95,0
1,59,71,4
1,58,71,0
1,56,71,0
1,63,71,4
1,56,72,24
1,59,72,4
1,58,72,0
1,63,72,0
1,59,89,68
1,52,89,0
1,56,89,0
1,63,89,0
1,63,94,448
1,56,94,0
1,59,94,0
1,52,94,0
1,63,69,72
1,59,69,0
1,56,69,0
1,52,69,0
1,52,68,4
1,56,68,0
1,63,68,0
1,59,68,0
1,61,89,48
1,52,89,0
1,58,89,0
1,56,89,0
1,58,87,476
1,61,95,0
1,56,97,0
1,52,91,0
1,61,70,40
1,52,70,4
1,56,70,0
1,58,70,4
1,61,72,64
1,58,72,0
1,56,72,0
1,52,72,0
1,58,91,40
1,56,91,0
1,61,91,0
1,63,91,4
1,55,95,424
1,58,95,0
1,63,95,0
1,61,95,0
1,55,71,48
1,63,71,0
1,61,71,0
1,58,71,0
1,55,71,24
1,63,71,0
1,58,71,0
1,61,71,0
1,58,85,36
1,56,85,0
1,63,85,0
1,59,85,0
1,58,99,444
1,56,99,0
1,59,99,0
1,63,99,0
1,58,77,60
1,56,77,0
1,59,77,0
1,63,77,0
1,56,79,16
1,63,79,0
1,59,79,0
1,58,79,0
1,52,96,44
1,56,96,0
1,59,96,0
1,63,96,0
1,63,99,472
1,56,99,0
1,59,99,0
1,52,99,0
1,59,72,72
1,56,72,0
1,52,72,0
1,63,72,0
1,63,75,0
1,56,75,0
1,59,75,4
1,52,75,0
1,52,90,40
1,61,90,0
1,58,90,0
1,56,90,0
1,61,99,472
1,58,99,0
1,56,99,4
1,52,99,0
1,58,69,36
1,61,69,0
1,56,69,0
1,52,69,0
1,58,72,28
1,61,72,0
1,52,72,0
1,56,72,0
1,58,91,44
1,56,91,0
1,63,91,0
1,61,91,0
1,58,99,396
1,63,99,0
1,55,99,0
1,61,99,0
1,55,69,48
1,63,69,4
1,61,69,0
1,58,69,0
1,55,70,36
1,58,70,0
1,61,70,0
1,63,70,0
1,58,95,60
1,56,95,0
1,60,95,0
1,63,95,4
1,60,61,412
1,58,42,0
1,56,38,0
1,63,48,0
1,63,91,76
1,56,101,0
1,60,117,0
1,58,99,0
1,56,82,32
1,63,78,0
1,60,95,0
1,58,84,0
1,56,85,52
1,60,95,0
1,58,84,0
1,63,84,0
1,63,92,76
1,59,92,0
1,61,92,0
1,61,99,356
1,63,101,0
1,59,90,0
1,63,95,52
1,59,92,0
1,58,104,0
1,59,66,28
1,58,85,0
1,63,97,0
1,56,99,24
1,63,101,0
1,59,106,8
1,59,76,56
1,63,74,0
1,56,87,0
1,52,80,0
1,59,38,352
1,56,37,4
1,52,54,4
1,63,38,4
1,63,87,80
1,56,91,0
1,59,102,0
1,52,92,0
1,63,85,40
1,56,91,0
1,52,92,0
1,59,91,0
1,52,86,32
1,63,85,0
1,59,100,0
1,56,85,0
1,63,89,64
1,61,87,0
1,58,99,0
1,56,99,0
1,63,74,356
1,58,84,0
1,56,81,0
1,61,74,0
1,58,51,36
1,61,71,0
1,55,87,0
1,63,74,4
1,61,87,64
1,58,93,0
1,63,97,0
1,55,94,0
1,55,88,40
1,61,97,0
1,63,99,0
1,58,95,0
1,58,98,36
1,60,98,0
1,63,98,0
1,56,98,0
1,63,64,408
1,58,51,4
1,56,53,0
1,60,68,0
1,56,78,88
1,58,82,0
1,60,95,0
1,63,78,0
1,60,97,40
1,63,99,0
1,56,101,0
1,58,99,0
1,60,102,32
1,56,93,0
1,63,91,0
1,58,89,0
1,63,104,48
1,61,97,0
1,59,104,0
1,61,104,392
1,59,92,0
1,63,99,0
1,63,97,44
1,58,104,0
1,59,88,0
1,59,97,52
1,63,107,0
1,58,101,0
1,59,106,20
1,56,101,0
1,63,101,0
1,59,64,44
1,63,85,4
1,56,82,0
1,52,83,0
1,59,81,400
1,63,75,0
1,56,70,0
1,52,68,0
1,63,93,52
1,59,108,0
1,52,95,0
1,56,95,0
1,59,84,28
1,56,81,0
1,63,87,0
1,52,81,0
1,63,93,28
1,52,92,0
1,56,93,0
1,59,100,0
1,71,85,104
1,67,85,0
1,63,85,0
1,71,95,56
1,67,95,0
1,63,95,0
1,63,103,84
1,71,103,0
1,67,103,0
1,71,109,100
1,67,109,0
1,63,109,0
1,56,105,592
1,58,105,0
1,59,105,0
1,63,105,0
1,58,123,492
1,63,113,0
1,56,119,0
1,59,122,0
1,63,81,80
1,56,97,0
1,54,101,0
1,59,95,0
1,63,104,472
1,56,113,0
1,54,116,0
1,59,108,0
1,63,101,104
1,59,106,4
1,56,110,0
1,53,122,0
1,56,116,476
1,63,104,0
1,59,106,0
1,53,120,0
1,58,93,208
1,61,104,0
1,51,113,0
1,56,99,0
1,58,99,416
1,61,110,0
1,51,119,0
1,55,108,0
1,63,101,120
1,58,101,0
1,56,101,0
1,59,101,0
1,56,109,468
1,58,109,0
1,63,109,0
1,59,109,0
1,54,123,116
1,63,107,0
1,56,119,0
1,59,98,0
1,63,107,488
1,54,123,0
1,56,116,0
1,59,114,0
1,56,117,168
1,63,117,0
1,53,117,0
1,59,117,0
1,63,116,480
1,59,116,0
1,56,116,0
1,53,116,0
1,58,95,144
1,56,107,0
1,61,107,0
1,51,113,0
1,58,101,380
1,61,113,0
1,55,114,0
1,51,119,0
1,63,90,128
1,56,90,4
1,58,90,0
1,59,90,0
1,58,95,460
1,63,95,0
1,59,95,0
1,56,95,0
1,59,71,4
1,58,71,0
1,56,71,0
1,63,71,4
1,56,72,24
1,59,72,4
1,58,72,0
1,63,72,0
1,59,89,68
1,52,89,0
1,56,89,0
1,63,89,0
1,63,94,448
1,56,94,0
1,59,94,0
1,52,94,0
1,63,69,72
1,59,69,0
1,56,69,0
1,52,69,0
1,52,68,4
1,56,68,0
1,63,68,0
1,59,68,0
1,61,89,48
1,52,89,0
1,58,89,0
1,56,89,0
1,58,87,476
1,61,95,0
1,56,97,0
1,52,91,0
1,61,70,40
1,52,70,4
1,56,70,0
1,58,70,4
1,61,72,64
1,58,72,0
1,56,72,0
1,52,72,0
1,58,91,40
1,56,91,0
1,61,91,0
1,63,91,4
1,55,95,424
1,58,95,0
1,63,95,0
1,61,95,0
1,55,71,48
1,63,71,0
1,61,71,0
1,58,71,0
1,55,71,24
1,63,71,0
1,58,71,0
1,61,71,0
1,58,85,36
1,56,85,0
1,63,85,0
1,59,85,0
1,58,99,444
1,56,99,0
1,59,99,0
1,63,99,0
1,58,77,60
1,56,77,0
1,59,77,0
1,63,77,0
1,56,79,16
1,63,79,0
1,59,79,0
1,58,79,0
1,52,96,44
1,56,96,0
1,59,96,0
1,63,96,0
1,63,99,472
1,56,99,0
1,59,99,0
1,52,99,0
1,59,72,72
1,56,72,0
1,52,72,0
1,63,72,0
1,63,75,0
1,56,75,0
1,59,75,4
1,52,75,0
1,52,90,40
1,61,90,0
1,58,90,0
1,56,90,0
1,61,99,472
1,58,99,0
1,56,99,4
1,52,99,0
1,58,69,36
1,61,69,0
1,56,69,0
1,52,69,0
1,58,72,28
1,61,72,0
1,52,72,0
1,56,72,0
1,58,91,44
1,56,91,0
1,63,91,0
1,61,91,0
1,58,99,396
1,63,99,0
1,55,99,0
1,61,99,0
1,55,69,48
1,63,69,4
1,61,69,0
1,58,69,0
1,55,70,36
1,58,70,0
1,61,70,0
1,63,70,0
1,58,95,60
1,56,95,0
1,60,95,0
1,63,95,4
1,60,61,412
1,58,42,0
1,56,38,0
1,63,48,0
1,63,91,76
1,56,101,0
1,60,117,0
1,58,99,0
1,56,82,32
1,63,78,0
1,60,95,0
1,58,84,0
1,56,85,52
1,60,95,0
1,58,84,0
1,63,84,0
1,63,92,76
1,59,92,0
1,61,92,0
1,61,99,356
1,63,101,0
1,59,90,0
1,63,95,52
1,59,92,0
1,58,104,0
1,59,66,28
1,58,85,0
1,63,97,0
1,56,99,24
1,63,101,0
1,59,106,8
1,59,76,56
1,63,74,0
1,56,87,0
1,52,80,0
1,59,38,352
1,56,37,4
1,52,54,4
1,63,38,4
1,63,87,80
1,56,91,0
1,59,102,0
1,52,92,0
1,63,85,40
1,56,91,0
1,52,92,0
1,59,91,0
1,52,86,32
1,63,85,0
1,59,100,0
1,56,85,0
1,63,89,64
1,61,87,0
1,58,99,0
1,56,99,0
1,63,74,356
1,58,84,0
1,56,81,0
1,61,74,0
1,58,51,36
1,61,71,0
1,55,87,0
1,63,74,4
1,61,87,64
1,58,93,0
1,63,97,0
1,55,94,0
1,55,88,40
1,61,97,0
1,63,99,0
1,58,95,0
1,58,98,36
1,60,98,0
1,63,98,0
1,56,98,0
1,63,64,408
1,58,51,4
1,56,53,0
1,60,68,0
1,56,78,88
1,58,82,0
1,60,95,0
1,63,78,0
1,60,97,40
1,63,99,0
1,56,101,0
1,58,99,0
1,60,102,32
1,56,93,0
1,63,91,0
1,58,89,0
1,63,104,48
1,61,97,0
1,59,104,0
1,61,104,392
1,59,92,0
1,63,99,0
1,63,97,44
1,58,104,0
1,59,88,0
1,59,97,52
1,63,107,0
1,58,101,0
1,59,106,20
1,56,101,0
1,63,101,0
1,59,64,44
1,63,85,4
1,56,82,0
1,52,83,0
1,59,81,400
1,63,75,0
1,56,70,0
1,52,68,0
1,63,93,52
1,59,108,0
1,52,95,0
1,56,95,0
1,59,84,28
1,56,81,0
1,63,87,0
1,52,81,0
1,63,93,28
1,52,92,0
1,56,93,0
1,59,100,0
1,71,85,104
1,67,85,0
1,63,85,0
1,71,95,56
1,67,95,0
1,63,95,0
1,63,103,84
1,71,103,0
1,67,103,0
1,71,109,100
1,67,109,0
1,63,109,0
1,56,105,592
1,58,105,0
1,59,105,0
1,63,105,0
1,58,123,492
1,63,113,0
1,56,119,0
1,59,122,0
1,63,81,80
1,56,97,0
1,54,101,0
1,59,95,0
1,63,104,472
1,56,113,0
1,54,116,0
1,59,108,0
1,63,101,104
1,59,106,4
1,56,110,0
1,53,122,0
1,56,116,476
1,63,104,0
1,59,106,0
1,53,120,0
1,58,93,208
1,61,104,0
1,51,113,0
1,56,99,0
1,58,99,416
1,61,110,0
1,51,119,0
1,55,108,0
1,63,101,120
1,58,101,0
1,56,101,0
1,59,101,0
1,56,109,468
1,58,109,0
1,63,109,0
1,59,109,0
1,54,123,116
1,63,107,0
1,56,119,0
1,59,98,0
1,63,107,488
1,54,123,0
1,56,116,0
1,59,114,0
1,56,117,168
1,63,117,0
1,53,117,0
1,59,117,0
1,63,116,480
1,59,116,0
1,56,116,0
1,53,116,0
1,58,95,144
1,56,107,0
1,61,107,0
1,51,113,0
1,58,101,380
1,61,113,0
1,55,114,0
1,51,119,0
1,56,105,132
1,58,105,0
1,59,105,0
1,63,105,0
1,58,123,492
1,63,113,0
1,56,119,0
1,59,122,0
1,63,81,80
1,56,97,0
1,54,101,0
1,59,95,0
1,63,104,472
1,56,113,0
1,54,116,0
1,59,108,0
1,63,101,104
1,59,106,4
1,56,110,0
1,53,122,0
1,56,116,476
1,63,104,0
1,59,106,0
1,53,120,0
1,58,93,208
1,61,104,0
1,51,113,0
1,56,99,0
1,58,99,416
1,61,110,0
1,51,119,0
1,55,108,0
1,63,101,120
1,58,101,0
1,56,101,0
1,59,101,0
1,56,109,468
1,58,109,0
1,63,109,0
1,59,109,0
1,54,123,116
1,63,107,0
1,56,119,0
1,59,98,0
1,63,107,488
1,54,123,0
1,56,116,0
1,59,114,0
1,56,117,168
1,63,117,0
1,53,117,0
1,59,117,0
1,63,116,480
1,59,116,0
1,56,116,0
1,53,116,0
1,58,95,144
1,56,107,0
1,61,107,0
1,51,113,0
1,58,101,380
1,61,113,0
1,55,114,0
1,51,119,0
1,63,78,128
1,56,91,0
1,61,74,0
1,59,87,0
1,64,91,0
1,59,73,4
1,63,70,4
1,56,93,0
1,61,70,0
1,64,78,0
1,61,81,264
1,63,78,0
1,56,89,0
1,64,86,0
1,59,87,0
1,56,59,136
1,63,58,0
1,61,72,0
1,64,68,0
1,59,81,0
1,56,93,120
1,63,85,0
1,64,95,0
1,59,95,0
1,61,84,0
1,56,89,16
1,61,89,4
1,66,93,0
1,59,81,0
1,63,87,0
1,56,101,12
1,66,75,0
1,61,75,0
1,63,78,0
1,66,75,260
1,63,75,0
1,61,74,0
1,59,77,0
1,56,85,0
1,66,67,112
1,61,74,0
1,63,75,0
1,59,80,0
1,56,97,0
1,66,95,116
1,56,101,0
1,59,92,0
1,61,85,0
1,63,87,0
1,63,91,116
1,56,107,0
1,64,98,0
1,61,85,8
1,59,85,0
1,56,99,12
1,59,73,0
1,61,73,0
1,63,74,0
1,64,83,0
1,56,84,264
1,61,68,0
1,63,67,0
1,64,75,0
1,59,74,0
1,56,91,112
1,61,71,0
1,59,76,0
1,63,67,0
1,64,70,0
1,56,97,116
1,64,92,0
1,63,81,0
1,59,88,0
1,61,81,0
1,66,95,20
1,61,84,0
1,63,82,0
1,56,107,0
1,59,83,0
1,56,101,12
1,66,93,0
1,59,81,0
1,63,91,0
1,61,91,0
1,56,91,264
1,66,85,0
1,61,82,0
1,63,85,0
1,59,86,0
1,66,89,16
1,56,87,0
1,59,85,0
1,61,91,0
1,63,85,0
1,66,104,20
1,59,95,0
1,56,107,0
1,61,99,0
1,63,99,0
1,56,104,116
1,61,77,0
1,64,80,0
1,63,74,0
1,59,83,0
1,56,89,16
1,61,79,0
1,59,85,0
1,63,79,0
1,64,87,0
1,56,97,260
1,61,77,0
1,63,77,0
1,59,78,0
1,64,80,0
1,64,90,116
1,61,85,0
1,63,84,0
1,59,87,0
1,56,104,0
1,56,104,20
1,61,97,0
1,63,97,0
1,59,95,0
1,64,106,0
1,56,99,116
1,63,93,0
1,61,95,0
1,66,97,0
1,59,90,0
1,56,104,12
1,61,75,0
1,63,85,0
1,59,77,0
1,66,95,0
1,56,110,260
1,66,95,0
1,61,89,0
1,63,91,0
1,59,84,0
1,56,85,136
1,66,84,0
1,61,81,0
1,59,78,0
1,63,81,0
1,56,107,20
1,66,89,0
1,59,83,0
1,61,87,0
1,63,87,0
1,64,91,128
1,61,91,0
1,63,92,8
1,66,92,0
1,64,97,8
1,68,97,0
1,70,99,8
1,66,99,0
1,71,102,8
1,68,102,0
1,70,104,8
1,73,104,0
1,75,107,8
1,71,107,0
1,72,83,52
1,75,83,0
1,56,105,11576
1,58,105,0
1,59,105,0
1,63,105,0
1,58,123,492
1,63,113,0
1,56,119,0
1,59,122,0
1,63,81,80
1,56,97,0
1,54,101,0
1,59,95,0
1,63,104,472
1,56,113,0
1,54,116,0
1,59,108,0
1,63,101,104
1,59,106,4
1,56,110,0
1,53,122,0
1,56,116,476
1,63,104,0
1,59,106,0
1,53,120,0
1,58,93,208
1,61,104,0
1,51,113,0
1,56,99,0
1,58,99,416
1,61,110,0
1,51,119,0
1,55,108,0
1,63,101,120
1,58,101,0
1,56,101,0
1,59,101,0
1,56,109,468
1,58,109,0
1,63,109,0
1,59,109,0
1,54,123,116
1,63,107,0
1,56,119,0
1,59,98,0
1,63,107,488
1,54,123,0
1,56,116,0
1,59,114,0
1,56,117,168
1,63,117,0
1,53,117,0
