track,note,velocity,time
1,36,80,479
1,36,0,29
1,36,80,47
1,36,0,29
1,48,98,15
1,48,0,23
1,48,104,53
1,48,0,21
1,36,97,263
1,36,0,26
1,36,92,49
1,36,0,25
1,48,112,20
1,48,0,19
1,48,114,56
1,48,0,18
1,36,94,267
1,36,0,29
1,36,90,46
1,36,0,25
1,48,95,20
1,48,0,21
1,48,90,54
1,48,0,24
1,36,98,261
1,36,0,27
1,36,90,48
1,36,0,24
1,48,97,21
1,48,0,20
1,48,104,56
1,48,0,18
1,36,100,266
1,36,0,22
1,36,91,60
1,36,0,22
1,48,98,16
1,48,0,20
1,48,104,56
1,48,0,20
1,43,97,257
1,43,0,28
1,43,95,54
1,43,0,25
1,55,91,14
1,55,0,20
1,55,97,61
1,55,0,20
1,44,97,265
1,44,0,22
1,44,97,53
1,44,0,22
1,56,110,23
1,56,0,15
1,56,107,60
1,56,0,20
1,39,93,265
1,39,0,25
1,39,99,50
1,39,0,23
1,51,113,22
1,51,0,18
1,51,110,57
1,51,0,15
1,43,92,30
1,43,0,28
1,43,90,49
1,43,0,28
1,55,102,15
1,55,0,19
1,55,95,64
1,55,0,18
1,36,90,21
1,36,0,26
1,36,88,53
1,36,0,30
1,48,108,16
1,48,0,21
1,48,100,54
1,48,0,20
1,43,97,251
1,43,0,29
1,43,98,56
1,43,0,26
1,55,102,13
1,55,0,21
1,55,102,60
1,55,0,20
1,44,104,262
1,44,0,23
1,44,91,52
1,44,0,22
1,56,93,13
1,56,0,17
1,56,104,68
1,56,0,18
1,39,95,267
1,39,0,24
1,39,91,51
1,39,0,24
1,51,113,21
1,51,0,18
1,51,110,57
1,51,0,13
1,43,94,32
1,43,0,26
1,43,94,49
1,43,0,26
1,55,97,19
1,55,0,22
1,55,95,53
1,55,0,17
1,36,90,22
1,36,0,26
1,36,92,56
1,36,0,27
1,48,112,16
1,48,0,21
1,48,110,57
1,48,0,18
1,39,91,265
1,39,0,25
1,39,95,50
1,39,0,23
1,51,119,22
1,51,0,15
1,51,119,60
1,51,0,14
1,43,97,31
1,43,0,22
1,43,97,53
1,43,0,25
1,55,106,20
1,55,0,19
1,55,92,56
1,55,0,17
1,36,90,28
1,36,0,27
1,36,90,49
1,36,0,27
1,48,117,17
1,48,0,19
1,48,106,59
1,48,0,18
1,36,100,264
1,36,0,20
1,36,90,70
1,36,0,24
1,48,97,6
1,48,0,20
1,48,104,62
1,48,0,18
1,36,100,261
1,36,0,22
1,36,91,59
1,36,0,22
1,48,98,14
1,48,0,20
1,48,104,58
1,48,0,20
1,43,97,257
1,43,0,28
1,43,95,54
1,43,0,25
1,55,91,14
1,55,0,20
1,55,97,61
1,55,0,20
1,44,97,259
1,44,0,22
1,44,97,59
1,44,0,22
1,56,110,15
1,56,0,15
1,56,107,68
1,56,0,20
1,39,93,265
1,39,0,25
1,39,99,50
1,39,0,23
1,51,113,22
1,51,0,18
1,51,110,57
1,51,0,15
1,43,92,30
1,43,0,28
1,43,90,49
1,43,0,28
1,55,102,15
1,55,0,19
1,55,95,64
1,55,0,18
1,36,90,21
1,36,0,26
1,36,88,53
1,36,0,30
1,48,108,16
1,48,0,21
1,48,100,54
1,48,0,20
1,43,97,251
1,43,0,29
1,43,98,56
1,43,0,26
1,55,102,13
1,55,0,21
1,55,102,60
1,55,0,20
1,44,104,257
1,44,0,23
1,44,91,57
1,44,0,22
1,56,93,13
1,56,0,17
1,56,104,68
1,56,0,18
1,39,95,267
1,39,0,24
1,39,91,51
1,39,0,24
1,51,113,21
1,51,0,18
1,51,110,57
1,51,0,13
1,43,94,32
1,43,0,26
1,43,94,49
1,43,0,26
1,55,97,19
1,55,0,22
1,55,95,53
1,55,0,17
1,36,90,22
1,36,0,26
1,36,92,56
1,36,0,27
1,48,112,16
1,48,0,21
1,48,110,57
1,48,0,18
1,39,91,265
1,39,0,25
1,39,95,50
1,39,0,23
1,51,119,22
1,51,0,15
1,51,119,60
1,51,0,14
1,43,97,31
1,43,0,22
1,43,97,53
1,43,0,25
1,55,106,20
1,55,0,19
1,55,92,56
1,55,0,17
1,36,90,27
1,36,0,27
1,36,90,50
1,36,0,27
1,48,117,15
1,48,0,19
1,48,106,61
1,48,0,18
1,36,100,262
1,36,0,27
1,36,91,56
1,36,0,26
1,48,97,11
1,48,0,20
1,48,102,57
1,48,0,20
1,44,102,265
1,44,0,44
1,44,99,31
1,44,0,31
1,56,119,14
1,56,0,24
1,56,119,51
1,56,0,29
1,39,93,255
1,39,0,33
1,39,87,47
1,39,0,27
1,51,110,14
1,51,0,21
1,51,119,54
1,51,0,24
1,43,98,270
1,43,0,32
1,43,91,39
1,43,0,31
1,55,102,9
1,55,0,23
1,55,102,52
1,55,0,25
1,36,91,258
1,36,0,29
1,36,92,49
1,36,0,28
1,48,112,16
1,48,0,22
1,48,108,53
1,48,0,26
1,44,101,255
1,44,0,31
1,44,99,49
1,44,0,23
1,56,123,21
1,56,0,21
1,56,107,54
1,56,0,31
1,39,104,257
1,39,0,30
1,39,89,49
1,39,0,26
1,51,113,12
1,51,0,23
1,51,110,52
1,51,0,28
1,43,102,261
1,43,0,33
1,43,98,41
1,43,0,29
1,55,108,13
1,55,0,21
1,55,110,54
1,55,0,22
1,44,91,265
1,44,0,29
1,44,89,47
1,44,0,28
1,56,110,14
1,56,0,22
1,56,107,53
1,56,0,25
1,39,101,258
1,39,0,29
1,39,91,50
1,39,0,24
1,51,116,19
1,51,0,22
1,51,119,53
1,51,0,23
1,43,104,262
1,43,0,32
1,43,100,43
1,43,0,26
1,55,106,11
1,55,0,20
1,55,102,63
1,55,0,19
1,36,100,266
1,36,0,28
1,36,74,47
1,36,0,27
1,48,106,18
1,48,0,22
1,48,112,53
1,48,0,23
1,44,91,262
1,44,0,26
1,44,82,49
1,44,0,25
1,56,107,20
1,56,0,24
1,56,97,51
1,56,0,23
1,39,91,262
1,39,0,24
1,39,89,51
1,39,0,25
1,51,119,20
1,51,0,21
1,51,113,55
1,51,0,18
1,38,102,266
1,38,0,32
1,38,86,43
1,38,0,28
1,50,108,17
1,50,0,22
1,50,106,53
1,50,0,27
1,36,98,253
1,36,0,32
1,36,81,50
1,36,0,34
1,48,114,9
1,48,0,19
1,48,106,56
1,48,0,19
1,36,104,266
1,36,0,36
1,36,81,39
1,36,0,32
1,48,95,13
1,48,0,23
1,48,95,52
1,48,0,21
1,36,83,258
1,36,0,38
1,36,81,45
1,36,0,30
1,48,100,12
1,48,0,23
1,48,97,53
1,48,0,21
1,36,90,264
1,36,90,85
1,36,0,5
1,36,0,19
1,48,97,13
1,48,0,20
1,48,104,60
1,48,0,18
1,36,100,260
1,36,0,22
1,36,91,60
1,36,0,22
1,48,98,16
1,48,0,20
1,48,104,56
1,48,0,20
1,43,97,257
1,43,0,28
1,43,95,54
1,43,0,25
1,55,91,14
1,55,0,20
1,55,97,61
1,55,0,20
1,44,97,265
1,44,0,22
1,44,97,53
1,44,0,22
1,56,110,23
1,56,0,15
1,56,107,60
1,56,0,20
1,39,93,265
1,39,0,25
1,39,99,50
1,39,0,23
1,51,113,22
1,51,0,18
1,51,110,57
1,51,0,15
1,43,92,30
1,43,0,28
1,43,90,49
1,43,0,28
1,55,102,15
1,55,0,19
1,55,95,64
1,55,0,18
1,36,90,21
1,36,0,26
1,36,88,53
1,36,0,30
1,48,108,16
1,48,0,21
1,48,100,54
1,48,0,20
1,43,97,251
1,43,0,29
1,43,98,56
1,43,0,26
1,55,102,13
1,55,0,21
1,55,102,60
1,55,0,20
1,44,104,262
1,44,0,23
1,44,91,52
1,44,0,22
1,56,93,13
1,56,0,17
1,56,104,68
1,56,0,18
1,39,95,267
1,39,0,24
1,39,91,51
1,39,0,24
1,51,113,21
1,51,0,18
1,51,110,57
1,51,0,13
1,43,94,32
1,43,0,26
1,43,94,49
1,43,0,26
1,55,97,19
1,55,0,22
1,55,95,53
1,55,0,17
1,36,90,22
1,36,0,26
1,36,92,56
1,36,0,27
1,48,112,16
1,48,0,21
1,48,110,57
1,48,0,18
1,39,91,265
1,39,0,25
1,39,95,50
1,39,0,23
1,51,119,22
1,51,0,15
1,51,119,60
1,51,0,14
1,43,97,31
1,43,0,22
1,43,97,53
1,43,0,25
1,55,106,20
1,55,0,19
1,55,92,56
1,55,0,17
1,36,90,28
1,36,0,27
1,36,90,49
1,36,0,27
1,48,117,17
1,48,0,19
1,48,106,59
1,48,0,18
1,36,100,264
1,36,0,20
1,36,90,70
1,36,0,24
1,48,97,6
1,48,0,20
1,48,104,62
1,48,0,18
1,36,100,261
1,36,0,22
1,36,91,59
1,36,0,22
1,48,98,14
1,48,0,20
1,48,104,58
1,48,0,20
1,43,97,257
1,43,0,28
1,43,95,54
1,43,0,25
1,55,91,14
1,55,0,20
1,55,97,61
1,55,0,20
1,44,97,259
1,44,0,22
1,44,97,59
1,44,0,22
1,56,110,15
1,56,0,15
1,56,107,68
1,56,0,20
1,39,93,265
1,39,0,25
1,39,99,50
1,39,0,23
1,51,113,22
1,51,0,18
1,51,110,57
1,51,0,15
1,43,92,30
1,43,0,28
1,43,90,49
1,43,0,28
1,55,102,15
1,55,0,19
1,55,95,64
1,55,0,18
1,36,90,21
1,36,0,26
1,36,88,53
1,36,0,30
1,48,108,16
1,48,0,21
1,48,100,54
1,48,0,20
1,43,97,251
1,43,0,29
1,43,98,56
1,43,0,26
1,55,102,13
1,55,0,21
1,55,102,60
1,55,0,20
1,44,104,257
1,44,0,23
1,44,91,57
1,44,0,22
1,56,93,13
1,56,0,17
1,56,104,68
1,56,0,18
1,39,95,267
1,39,0,24
1,39,91,51
1,39,0,24
1,51,113,21
1,51,0,18
1,51,110,57
1,51,0,13
1,43,94,32
1,43,0,26
1,43,94,49
1,43,0,26
1,55,97,19
1,55,0,22
1,55,95,53
1,55,0,17
1,36,90,22
1,36,0,26
1,36,92,56
1,36,0,27
1,48,112,16
1,48,0,21
1,48,110,57
1,48,0,18
1,39,91,265
1,39,0,25
1,39,95,50
1,39,0,23
1,51,119,22
1,51,0,15
1,51,119,60
1,51,0,14
1,43,97,31
1,43,0,22
1,43,97,53
1,43,0,25
1,55,106,20
1,55,0,19
1,55,92,56
1,55,0,17
1,36,90,27
1,36,0,27
1,36,90,50
1,36,0,27
1,48,117,15
1,48,0,19
1,48,106,61
1,48,0,18
1,36,100,262
1,36,0,27
1,36,92,51
1,36,0,27
1,48,112,16
1,48,0,21
1,48,110,57
1,48,0,18
1,39,91,265
1,39,0,25
1,39,95,50
1,39,0,23
1,51,119,22
1,51,0,15
1,51,119,60
1,51,0,14
1,43,97,31
1,43,0,22
1,43,97,53
1,43,0,25
1,55,106,20
1,55,0,19
1,55,92,56
1,55,0,17
1,36,90,27
1,36,0,27
1,36,90,50
1,36,0,27
1,48,117,15
1,48,0,19
1,48,106,61
1,48,0,18
1,36,100,262
1,36,0,27
1,36,92,51
1,36,0,27
1,48,112,16
1,48,0,21
1,48,110,57
1,48,0,18
1,39,91,265
1,39,0,25
1,39,95,50
1,39,0,23
1,51,119,22
1,51,0,15
1,51,119,60
1,51,0,14
1,43,97,31
1,43,0,22
1,43,97,53
1,43,0,25
1,55,106,20
1,55,0,19
1,55,92,56
1,55,0,17
1,36,90,27
1,36,0,27
1,36,90,50
1,36,0,27
1,48,117,15
1,48,0,19
1,48,106,61
1,48,0,18
1,36,100,264
1,36,0,27
1,36,91,54
1,36,0,26
1,48,97,11
1,48,0,20
1,48,102,57
1,48,0,20
1,36,100,265
1,36,0,27
1,36,91,54
1,36,0,26
1,48,97,11
1,48,0,20
1,48,102,57
1,48,0,20
1,36,100,265
1,36,0,27
1,36,91,54
1,36,0,26
1,48,97,11
1,48,0,20
1,48,102,57
1,48,0,20
1,36,100,265
1,36,0,27
1,36,91,54
1,36,0,26
1,48,97,11
1,48,0,20
1,48,102,57
1,48,0,20
1,36,100,265
1,36,0,27
1,36,91,54
1,36,0,26
1,48,97,11
1,48,0,20
1,48,102,57
1,48,0,20
1,36,100,265
1,36,0,27
1,36,91,54
1,36,0,26
1,48,97,11
1,48,0,20
1,48,102,57
1,48,0,20
1,36,100,51
1,36,0,27
1,36,91,29
1,36,0,26
1,48,97,11
1,48,0,20
1,48,102,57
1,48,0,20
1,36,100,41
1,36,0,27
1,36,91,54
1,36,0,26
1,48,97,6
1,48,0,20
1,48,102,57
1,48,0,5
1,36,100,123
1,36,0,15
1,36,91,54
1,36,0,16
1,48,97,11
1,48,0,20
1,48,102,57
1,48,0,20
1,36,100,11
1,36,0,27
1,36,91,39
1,36,0,26
1,48,97,11
1,48,0,20
1,48,102,27
1,48,0,20
1,36,100,51
1,36,0,25
1,36,91,54
1,36,0,8
1,48,97,11
1,48,0,20
1,48,102,47
1,48,0,20
1,36,100,26
1,36,0,27
1,36,91,54
1,36,0,21
1,48,97,11
1,48,0,20
1,48,102,57
1,48,0,20
1,36,100,11
1,36,0,27
1,36,91,54
1,36,0,21
1,48,97,11
1,48,0,20
1,48,102,57
1,48,0,5
1,36,100,36
1,36,0,10
1,36,91,9
1,36,0,26
1,48,97,11
1,48,0,20
1,48,102,12
1,48,0,20
1,36,100,16
1,36,0,27
1,36,91,19
1,36,0,26
1,48,97,6
1,48,0,20
1,48,102,57
1,48,0,20
1,36,100,46
1,36,0,10
1,36,91,54
1,36,0,16
1,48,97,11
1,48,0,20
1,48,102,12
1,48,0,20
1,36,100,61
1,36,0,15
1,36,91,29
1,36,0,11
1,48,97,11
1,48,0,20
1,48,102,7
1,48,0,20
2,24,104,488
2,24,0,436
2,24,104,41
2,24,0,436
2,24,104,44
2,24,0,436
2,24,104,44
2,24,0,436
2,24,98,48
2,31,104,471
2,24,0,9
2,31,0,391
2,32,95,80
2,32,0,480
2,27,104,0
2,31,100,234
2,27,0,6
2,31,0,242
2,24,94,9
2,24,0,450
2,31,92,19
2,31,0,461
2,32,85,19
2,32,0,466
2,27,89,14
2,31,90,235
2,27,0,10
2,31,0,238
2,24,88,4
2,24,0,388
2,27,107,92
2,31,104,233
2,27,0,4
2,24,87,236
2,31,0,4
2,24,0,420
2,36,77,7
2,36,0,393
2,36,98,89
2,43,104,471
2,36,0,9
2,43,0,391
2,44,95,80
2,44,0,480
2,39,104,0
2,43,100,234
2,39,0,6
2,43,0,242
2,36,94,9
2,36,0,450
2,43,92,19
2,43,0,461
2,44,85,19
2,44,0,466
2,39,89,14
2,43,90,235
2,39,0,10
2,43,0,238
2,36,88,4
2,36,0,388
2,39,107,92
2,43,104,233
2,39,0,4
2,43,0,240
2,36,77,3
2,36,0,393
2,36,87,80
2,36,0,419
2,44,90,61
2,44,0,479
2,39,90,1
2,39,0,479
2,43,86,1
2,43,0,479
2,36,76,1
2,36,0,479
2,44,67,1
2,44,0,479
2,39,85,1
2,39,0,479
2,43,73,1
2,43,0,479
2,44,73,1
2,44,0,479
2,39,81,1
2,39,0,479
2,43,87,1
2,43,0,479
2,36,80,1
2,36,0,479
2,44,79,1
2,44,0,479
2,39,82,1
2,39,0,479
2,38,80,1
2,38,0,382
2,36,83,98
2,36,0,419
2,36,90,61
2,36,0,480
2,36,90,0
2,36,0,480
2,36,104,5
2,36,0,436
2,36,98,48
2,43,104,471
2,36,0,9
2,43,0,391
2,44,95,80
2,44,0,480
2,39,104,0
2,43,100,234
2,39,0,6
2,43,0,242
2,36,94,9
2,36,0,450
2,43,92,19
2,43,0,461
2,44,85,19
2,44,0,466
2,39,89,14
2,43,90,235
2,39,0,10
2,43,0,238
2,36,88,4
2,36,0,388
2,39,107,92
2,43,104,233
2,39,0,4
2,36,87,236
2,43,0,4
2,36,0,420
2,36,77,7
2,36,0,393
2,36,98,89
2,43,104,471
2,36,0,9
2,43,0,391
2,44,95,80
2,44,0,480
2,39,104,0
2,43,100,234
2,39,0,6
2,43,0,242
2,36,94,9
2,36,0,450
2,43,92,19
2,43,0,461
2,44,85,19
2,44,0,466
2,39,89,14
2,43,90,235
