track,note,velocity,time
1.0,50.0,76.0,0.0
1.0,57.0,85.0,4.0
1.0,62.0,87.0,4.0
1.0,57.0,59.0,4.0
1.0,64.0,83.0,4.0
1.0,69.0,92.0,4.0
1.0,62.0,79.0,4.0
1.0,69.0,77.0,4.0
1.0,74.0,96.0,4.0
1.0,58.0,68.0,4.0
1.0,62.0,52.0,4.0
1.0,65.0,72.0,4.0
1.0,53.0,88.0,4.0
1.0,58.0,72.0,4.0
1.0,65.0,88.0,4.0
1.0,55.0,76.0,4.0
1.0,62.0,81.0,4.0
1.0,67.0,71.0,4.0
1.0,57.0,67.0,4.0
1.0,64.0,89.0,4.0
1.0,69.0,76.0,4.0
1.0,57.0,67.0,0.0
1.0,64.0,89.0,4.0
1.0,69.0,76.0,4.0
1.0,50.0,78.0,0.0
1.0,57.0,79.0,4.0
1.0,62.0,73.0,4.0
1.0,57.0,66.0,4.0
1.0,64.0,71.0,4.0
1.0,69.0,75.0,4.0
1.0,62.0,72.0,4.0
1.0,69.0,75.0,4.0
1.0,74.0,93.0,4.0
1.0,58.0,66.0,4.0
1.0,62.0,66.0,4.0
1.0,65.0,76.0,4.0
1.0,53.0,65.0,4.0
1.0,58.0,67.0,4.0
1.0,65.0,76.0,4.0
1.0,55.0,63.0,4.0
1.0,62.0,56.0,4.0
1.0,67.0,48.0,4.0
1.0,57.0,50.0,4.0
1.0,64.0,60.0,4.0
1.0,69.0,78.0,4.0
1.0,50.0,76.0,0.0
1.0,57.0,85.0,4.0
1.0,62.0,87.0,4.0
1.0,57.0,59.0,4.0
1.0,64.0,83.0,4.0
1.0,69.0,92.0,4.0
1.0,62.0,79.0,4.0
1.0,69.0,77.0,4.0
1.0,74.0,96.0,4.0
1.0,58.0,68.0,4.0
1.0,62.0,52.0,4.0
1.0,65.0,72.0,4.0
1.0,53.0,88.0,4.0
1.0,58.0,72.0,4.0
1.0,65.0,88.0,4.0
1.0,55.0,76.0,4.0
1.0,62.0,81.0,4.0
1.0,67.0,71.0,4.0
1.0,57.0,67.0,4.0
1.0,64.0,89.0,4.0
1.0,69.0,76.0,4.0
1.0,50.0,80.0,4.0
1.0,57.0,87.0,4.0
1.0,62.0,78.0,4.0
1.0,50.0,78.0,0.0
1.0,57.0,79.0,4.0
1.0,62.0,73.0,4.0
1.0,57.0,66.0,4.0
1.0,64.0,71.0,4.0
1.0,69.0,75.0,4.0
1.0,62.0,72.0,4.0
1.0,69.0,75.0,4.0
1.0,74.0,93.0,4.0
1.0,58.0,66.0,4.0
1.0,62.0,66.0,4.0
1.0,65.0,76.0,4.0
1.0,53.0,65.0,4.0
1.0,58.0,67.0,4.0
1.0,65.0,76.0,4.0
1.0,55.0,63.0,4.0
1.0,62.0,56.0,4.0
1.0,67.0,48.0,4.0
1.0,57.0,50.0,4.0
1.0,64.0,60.0,4.0
1.0,69.0,78.0,4.0
1.0,50.0,76.0,0.0
1.0,57.0,85.0,4.0
1.0,62.0,87.0,4.0
1.0,57.0,59.0,4.0
1.0,64.0,83.0,4.0
1.0,69.0,92.0,4.0
1.0,62.0,79.0,4.0
1.0,69.0,77.0,4.0
1.0,74.0,96.0,4.0
1.0,58.0,68.0,4.0
1.0,62.0,52.0,4.0
1.0,65.0,72.0,4.0
1.0,53.0,88.0,4.0
1.0,58.0,72.0,4.0
1.0,65.0,88.0,4.0
1.0,55.0,76.0,4.0
1.0,62.0,81.0,4.0
1.0,67.0,71.0,4.0
1.0,57.0,67.0,4.0
1.0,64.0,89.0,4.0
1.0,69.0,76.0,4.0
1.0,50.0,80.0,4.0
1.0,57.0,87.0,4.0
1.0,62.0,78.0,4.0
1.0,62.0,69.0,4.0
1.0,69.0,81.0,4.0
1.0,74.0,95.0,4.0
1.0,58.0,71.0,4.0
1.0,65.0,55.0,4.0
1.0,70.0,74.0,4.0
1.0,60.0,67.0,4.0
1.0,67.0,89.0,4.0
1.0,72.0,102.0,4.0
1.0,62.0,83.0,4.0
1.0,69.0,89.0,4.0
1.0,74.0,89.0,4.0
1.0,55.0,71.0,4.0
1.0,62.0,79.0,4.0
1.0,67.0,74.0,4.0
1.0,57.0,73.0,4.0
1.0,64.0,81.0,4.0
1.0,69.0,92.0,4.0
1.0,58.0,70.0,4.0
1.0,65.0,77.0,4.0
1.0,70.0,78.0,4.0
1.0,60.0,79.0,4.0
1.0,67.0,78.0,4.0
1.0,72.0,95.0,4.0
1.0,62.0,69.0,4.0
1.0,69.0,81.0,4.0
1.0,74.0,95.0,4.0
1.0,58.0,71.0,4.0
1.0,65.0,55.0,4.0
1.0,70.0,74.0,4.0
1.0,60.0,67.0,4.0
1.0,67.0,89.0,4.0
1.0,72.0,102.0,4.0
1.0,62.0,83.0,4.0
1.0,69.0,89.0,4.0
1.0,74.0,89.0,4.0
1.0,55.0,71.0,4.0
1.0,62.0,79.0,4.0
1.0,67.0,74.0,4.0
1.0,57.0,73.0,4.0
1.0,64.0,81.0,4.0
1.0,69.0,92.0,4.0
1.0,58.0,70.0,4.0
1.0,65.0,77.0,4.0
1.0,70.0,78.0,4.0
1.0,60.0,79.0,4.0
1.0,67.0,78.0,4.0
1.0,72.0,95.0,4.0
1.0,50.0,78.0,0.0
1.0,57.0,79.0,4.0
1.0,62.0,73.0,4.0
1.0,57.0,66.0,4.0
1.0,64.0,71.0,4.0
1.0,69.0,75.0,4.0
1.0,62.0,72.0,4.0
1.0,69.0,75.0,4.0
1.0,74.0,93.0,4.0
1.0,58.0,66.0,4.0
1.0,62.0,66.0,4.0
1.0,65.0,76.0,4.0
1.0,53.0,65.0,4.0
1.0,58.0,67.0,4.0
1.0,65.0,76.0,4.0
1.0,55.0,63.0,4.0
1.0,62.0,56.0,4.0
1.0,67.0,48.0,4.0
1.0,57.0,50.0,4.0
1.0,64.0,60.0,4.0
1.0,69.0,78.0,4.0
1.0,50.0,76.0,0.0
1.0,57.0,85.0,4.0
1.0,62.0,87.0,4.0
1.0,57.0,59.0,4.0
1.0,64.0,83.0,4.0
1.0,69.0,92.0,4.0
1.0,62.0,79.0,4.0
1.0,69.0,77.0,4.0
1.0,74.0,96.0,4.0
1.0,58.0,68.0,4.0
1.0,62.0,52.0,4.0
1.0,65.0,72.0,4.0
1.0,53.0,88.0,4.0
1.0,58.0,72.0,4.0
1.0,65.0,88.0,4.0
1.0,55.0,76.0,4.0
1.0,62.0,81.0,4.0
1.0,67.0,71.0,4.0
1.0,57.0,67.0,4.0
1.0,64.0,89.0,4.0
1.0,69.0,76.0,4.0
1.0,50.0,80.0,4.0
1.0,57.0,87.0,4.0
1.0,62.0,78.0,4.0
1.0,62.0,69.0,4.0
1.0,69.0,81.0,4.0
1.0,74.0,95.0,4.0
1.0,58.0,71.0,4.0
1.0,65.0,55.0,4.0
1.0,70.0,74.0,4.0
1.0,60.0,67.0,4.0
1.0,67.0,89.0,4.0
1.0,72.0,102.0,4.0
1.0,62.0,83.0,4.0
1.0,69.0,89.0,4.0
1.0,74.0,89.0,4.0
1.0,55.0,71.0,4.0
1.0,62.0,79.0,4.0
1.0,67.0,74.0,4.0
1.0,57.0,73.0,4.0
1.0,64.0,81.0,4.0
1.0,69.0,92.0,4.0
1.0,58.0,70.0,4.0
1.0,65.0,77.0,4.0
1.0,70.0,78.0,4.0
1.0,60.0,79.0,4.0
1.0,67.0,78.0,4.0
1.0,72.0,95.0,4.0
1.0,62.0,69.0,4.0
1.0,69.0,81.0,4.0
1.0,74.0,95.0,4.0
1.0,58.0,71.0,4.0
1.0,65.0,55.0,4.0
1.0,70.0,74.0,4.0
1.0,60.0,67.0,4.0
1.0,67.0,89.0,4.0
1.0,72.0,102.0,4.0
1.0,62.0,83.0,4.0
1.0,69.0,89.0,4.0
1.0,74.0,89.0,4.0
1.0,55.0,71.0,4.0
1.0,62.0,79.0,4.0
1.0,67.0,74.0,4.0
1.0,57.0,73.0,4.0
1.0,64.0,81.0,4.0
1.0,69.0,92.0,4.0
1.0,58.0,70.0,4.0
1.0,65.0,77.0,4.0
1.0,70.0,78.0,4.0
1.0,60.0,79.0,4.0
1.0,67.0,78.0,4.0
1.0,72.0,95.0,4.0
1.0,50.0,78.0,0.0
1.0,57.0,79.0,4.0
1.0,62.0,73.0,4.0
1.0,57.0,66.0,4.0
1.0,64.0,71.0,4.0
1.0,69.0,75.0,4.0
1.0,62.0,72.0,4.0
1.0,69.0,75.0,4.0
1.0,74.0,93.0,4.0
1.0,58.0,66.0,4.0
1.0,62.0,66.0,4.0
1.0,65.0,76.0,4.0
1.0,53.0,65.0,4.0
1.0,58.0,67.0,4.0
1.0,65.0,76.0,4.0
1.0,55.0,63.0,4.0
1.0,62.0,56.0,4.0
1.0,67.0,48.0,4.0
1.0,57.0,50.0,4.0
1.0,64.0,60.0,4.0
1.0,69.0,78.0,4.0
1.0,50.0,76.0,0.0
1.0,57.0,85.0,4.0
1.0,62.0,87.0,4.0
1.0,57.0,59.0,4.0
1.0,64.0,83.0,4.0
1.0,69.0,92.0,4.0
1.0,62.0,79.0,4.0
1.0,69.0,77.0,4.0
1.0,74.0,96.0,4.0
1.0,58.0,68.0,4.0
1.0,62.0,52.0,4.0
1.0,65.0,72.0,4.0
1.0,53.0,88.0,4.0
1.0,58.0,72.0,4.0
1.0,65.0,88.0,4.0
1.0,55.0,76.0,4.0
1.0,62.0,81.0,4.0
1.0,67.0,71.0,4.0
1.0,57.0,67.0,4.0
1.0,64.0,89.0,4.0
1.0,69.0,76.0,4.0
1.0,69.0,108.0,4.0
2.0,38.0,127.0,8832.0
2.0,38.0,127.0,64.0
2.0,45.0,127.0,132.0
2.0,45.0,127.0,4.0
2.0,38.0,127.0,4.0
2.0,38.0,127.0,64.0
2.0,46.0,127.0,132.0
2.0,46.0,127.0,4.0
2.0,41.0,127.0,4.0
2.0,41.0,127.0,64.0
2.0,43.0,127.0,132.0
2.0,43.0,127.0,4.0
2.0,45.0,127.0,4.0
2.0,45.0,127.0,64.0
2.0,38.0,127.0,4.0
2.0,38.0,127.0,64.0
2.0,45.0,127.0,132.0
2.0,45.0,127.0,4.0
2.0,38.0,127.0,4.0
2.0,38.0,127.0,64.0
2.0,46.0,127.0,132.0
2.0,46.0,127.0,4.0
2.0,41.0,127.0,4.0
2.0,41.0,127.0,64.0
2.0,43.0,127.0,132.0
2.0,43.0,127.0,4.0
2.0,45.0,127.0,4.0
2.0,45.0,127.0,64.0
2.0,38.0,127.0,4.0
2.0,50.0,127.0,4.0
2.0,46.0,127.0,0.0
2.0,48.0,127.0,0.0
2.0,50.0,127.0,0.0
2.0,43.0,127.0,0.0
2.0,45.0,127.0,0.0
2.0,46.0,127.0,0.0
2.0,43.0,127.0,256.0
2.0,48.0,127.0,96.0
2.0,50.0,127.0,0.0
2.0,46.0,127.0,0.0
2.0,48.0,127.0,0.0
2.0,50.0,127.0,0.0
2.0,43.0,127.0,0.0
2.0,45.0,127.0,0.0
2.0,46.0,127.0,0.0
2.0,43.0,127.0,256.0
2.0,48.0,127.0,96.0
2.0,38.0,127.0,0.0
2.0,38.0,127.0,64.0
2.0,45.0,127.0,132.0
2.0,45.0,127.0,4.0
2.0,38.0,127.0,4.0
2.0,38.0,127.0,64.0
2.0,46.0,127.0,132.0
2.0,46.0,127.0,4.0
2.0,41.0,127.0,4.0
2.0,41.0,127.0,64.0
2.0,43.0,127.0,132.0
2.0,43.0,127.0,4.0
2.0,45.0,127.0,4.0
2.0,45.0,127.0,64.0
2.0,38.0,127.0,4.0
2.0,38.0,127.0,64.0
2.0,45.0,127.0,132.0
2.0,45.0,127.0,4.0
2.0,38.0,127.0,4.0
2.0,38.0,127.0,64.0
2.0,46.0,127.0,132.0
2.0,46.0,127.0,4.0
2.0,41.0,127.0,4.0
2.0,41.0,127.0,64.0
2.0,43.0,127.0,132.0
2.0,43.0,127.0,4.0
2.0,45.0,127.0,4.0
2.0,45.0,127.0,64.0
2.0,38.0,127.0,4.0
2.0,50.0,127.0,4.0
2.0,46.0,127.0,0.0
2.0,48.0,127.0,0.0
2.0,50.0,127.0,0.0
2.0,43.0,127.0,0.0
2.0,45.0,127.0,0.0
2.0,46.0,127.0,0.0
2.0,43.0,127.0,256.0
2.0,48.0,127.0,96.0
2.0,50.0,127.0,0.0
2.0,46.0,127.0,0.0
2.0,48.0,127.0,0.0
2.0,50.0,127.0,0.0
2.0,43.0,127.0,0.0
2.0,45.0,127.0,0.0
2.0,46.0,127.0,0.0
2.0,43.0,127.0,256.0
2.0,48.0,127.0,96.0
2.0,38.0,127.0,0.0
2.0,38.0,127.0,64.0
2.0,45.0,127.0,132.0
2.0,45.0,127.0,4.0
2.0,38.0,127.0,4.0
2.0,38.0,127.0,64.0
2.0,46.0,127.0,132.0
2.0,46.0,127.0,4.0
2.0,41.0,127.0,4.0
2.0,41.0,127.0,64.0
2.0,43.0,127.0,132.0
2.0,43.0,127.0,4.0
2.0,45.0,127.0,4.0
2.0,45.0,127.0,64.0
2.0,38.0,127.0,4.0
2.0,38.0,127.0,64.0
2.0,45.0,127.0,132.0
2.0,45.0,127.0,4.0
2.0,38.0,127.0,4.0
2.0,38.0,127.0,64.0
2.0,46.0,127.0,132.0
2.0,46.0,127.0,4.0
2.0,41.0,127.0,4.0
2.0,41.0,127.0,64.0
2.0,43.0,127.0,132.0
2.0,43.0,127.0,4.0
2.0,45.0,127.0,4.0
2.0,45.0,127.0,64.0
2.0,38.0,127.0,0.0
3.0,78.0,86.0,0.0
3.0,79.0,107.0,0.0
3.0,81.0,111.0,4.0
3.0,78.0,102.0,48.0
3.0,81.0,103.0,4.0
3.0,78.0,102.0,48.0
3.0,81.0,103.0,0.0
3.0,78.0,102.0,48.0
3.0,74.0,86.0,0.0
3.0,77.0,107.0,8.0
3.0,79.0,111.0,4.0
3.0,74.0,102.0,48.0
3.0,79.0,103.0,4.0
3.0,74.0,102.0,48.0
3.0,76.0,103.0,0.0
3.0,74.0,102.0,48.0
3.0,76.0,103.0,0.0
3.0,74.0,102.0,0.0
3.0,78.0,115.0,0.0
3.0,79.0,115.0,4.0
3.0,81.0,115.0,4.0
3.0,76.0,109.0,4.0
3.0,79.0,105.0,4.0
3.0,78.0,104.0,4.0
3.0,76.0,102.0,0.0
3.0,78.0,105.0,4.0
3.0,76.0,104.0,4.0
3.0,74.0,113.0,0.0
3.0,76.0,106.0,4.0
3.0,74.0,114.0,4.0
3.0,76.0,101.0,4.0
3.0,77.0,113.0,4.0
3.0,76.0,100.0,4.0
3.0,74.0,116.0,4.0
3.0,71.0,112.0,4.0
3.0,74.0,123.0,4.0
3.0,76.0,119.0,4.0
3.0,74.0,109.0,4.0
3.0,73.0,95.0,4.0
3.0,69.0,96.0,4.0
3.0,78.0,115.0,4.0
3.0,79.0,115.0,4.0
3.0,81.0,115.0,4.0
3.0,76.0,109.0,4.0
3.0,79.0,92.0,4.0
3.0,78.0,104.0,4.0
3.0,76.0,102.0,0.0
3.0,78.0,93.0,4.0
3.0,76.0,96.0,4.0
3.0,74.0,113.0,0.0
3.0,76.0,106.0,4.0
3.0,74.0,114.0,4.0
3.0,76.0,101.0,4.0
3.0,77.0,113.0,4.0
3.0,76.0,100.0,4.0
3.0,74.0,116.0,4.0
3.0,71.0,112.0,4.0
3.0,74.0,123.0,4.0
3.0,76.0,119.0,4.0
3.0,74.0,109.0,4.0
3.0,73.0,95.0,4.0
3.0,69.0,96.0,4.0
3.0,74.0,104.0,4.0
3.0,78.0,115.0,0.0
3.0,79.0,115.0,4.0
3.0,81.0,115.0,4.0
3.0,76.0,109.0,4.0
3.0,79.0,105.0,4.0
3.0,78.0,104.0,4.0
3.0,76.0,120.0,20.0
3.0,76.0,104.0,4.0
3.0,74.0,113.0,0.0
3.0,76.0,106.0,4.0
3.0,74.0,114.0,4.0
3.0,76.0,101.0,4.0
3.0,77.0,113.0,4.0
3.0,76.0,100.0,4.0
3.0,74.0,116.0,4.0
3.0,71.0,112.0,4.0
3.0,74.0,123.0,4.0
3.0,76.0,119.0,4.0
3.0,74.0,109.0,4.0
3.0,73.0,95.0,4.0
3.0,69.0,96.0,4.0
3.0,78.0,115.0,4.0
3.0,81.0,115.0,132.0
3.0,76.0,109.0,4.0
3.0,79.0,92.0,4.0
3.0,78.0,104.0,4.0
3.0,76.0,102.0,0.0
3.0,78.0,93.0,4.0
3.0,76.0,96.0,4.0
3.0,74.0,113.0,0.0
3.0,76.0,106.0,4.0
3.0,74.0,114.0,4.0
3.0,76.0,101.0,4.0
3.0,77.0,113.0,4.0
3.0,76.0,100.0,4.0
3.0,74.0,116.0,4.0
3.0,71.0,112.0,4.0
3.0,74.0,123.0,4.0
3.0,76.0,119.0,4.0
3.0,74.0,109.0,4.0
3.0,73.0,95.0,4.0
3.0,69.0,96.0,4.0
3.0,74.0,104.0,4.0
3.0,77.0,127.0,4.0
3.0,79.0,120.0,4.0
3.0,81.0,126.0,4.0
3.0,74.0,123.0,4.0
3.0,77.0,113.0,4.0
3.0,81.0,115.0,4.0
3.0,79.0,104.0,4.0
3.0,77.0,120.0,32.0
3.0,77.0,104.0,20.0
3.0,76.0,113.0,0.0
3.0,77.0,117.0,0.0
3.0,76.0,89.0,4.0
3.0,74.0,116.0,4.0
3.0,70.0,104.0,4.0
3.0,74.0,127.0,4.0
3.0,77.0,112.0,4.0
3.0,76.0,116.0,4.0
3.0,72.0,112.0,240.0
3.0,74.0,127.0,48.0
3.0,72.0,119.0,4.0
3.0,77.0,109.0,4.0
3.0,76.0,119.0,4.0
3.0,74.0,118.0,4.0
3.0,76.0,107.0,4.0
3.0,77.0,105.0,4.0
3.0,79.0,127.0,4.0
3.0,81.0,112.0,4.0
3.0,74.0,113.0,4.0
3.0,77.0,117.0,4.0
3.0,81.0,116.0,4.0
3.0,79.0,125.0,4.0
3.0,77.0,121.0,4.0
3.0,79.0,125.0,4.0
3.0,77.0,121.0,4.0
3.0,76.0,111.0,4.0
3.0,77.0,117.0,68.0
3.0,76.0,89.0,4.0
3.0,74.0,116.0,4.0
3.0,70.0,104.0,4.0
3.0,74.0,127.0,4.0
3.0,77.0,112.0,4.0
3.0,76.0,112.0,4.0
3.0,74.0,108.0,4.0
3.0,72.0,102.0,4.0
3.0,74.0,127.0,4.0
3.0,72.0,119.0,4.0
3.0,77.0,109.0,4.0
3.0,76.0,119.0,4.0
3.0,78.0,115.0,0.0
3.0,81.0,120.0,0.0
3.0,79.0,123.0,4.0
3.0,81.0,117.0,4.0
3.0,76.0,109.0,4.0
3.0,79.0,105.0,240.0
3.0,78.0,104.0,52.0
3.0,76.0,102.0,0.0
3.0,78.0,105.0,4.0
3.0,76.0,104.0,4.0
3.0,74.0,113.0,0.0
3.0,76.0,106.0,4.0
3.0,74.0,114.0,4.0
3.0,76.0,101.0,4.0
3.0,77.0,113.0,4.0
3.0,74.0,104.0,0.0
3.0,76.0,100.0,4.0
3.0,74.0,116.0,4.0
3.0,71.0,112.0,4.0
3.0,79.0,111.0,0.0
3.0,74.0,123.0,4.0
3.0,76.0,119.0,4.0
3.0,74.0,109.0,4.0
3.0,73.0,95.0,4.0
3.0,69.0,96.0,4.0
3.0,81.0,115.0,4.0
3.0,78.0,115.0,0.0
3.0,81.0,115.0,132.0
3.0,76.0,109.0,4.0
3.0,79.0,92.0,4.0
3.0,78.0,104.0,4.0
3.0,76.0,102.0,0.0
3.0,78.0,93.0,4.0
3.0,76.0,96.0,4.0
3.0,74.0,113.0,0.0
3.0,76.0,106.0,4.0
3.0,74.0,114.0,4.0
3.0,76.0,101.0,4.0
3.0,74.0,113.0,4.0
3.0,77.0,113.0,0.0
3.0,76.0,100.0,4.0
3.0,74.0,116.0,4.0
3.0,79.0,112.0,4.0
3.0,71.0,112.0,0.0
3.0,74.0,123.0,4.0
3.0,76.0,119.0,4.0
3.0,74.0,109.0,4.0
3.0,73.0,95.0,4.0
3.0,69.0,96.0,4.0
3.0,74.0,104.0,4.0
3.0,74.0,127.0,4.0
3.0,77.0,127.0,0.0
3.0,79.0,120.0,4.0
3.0,81.0,126.0,4.0
3.0,74.0,123.0,4.0
3.0,77.0,113.0,4.0
3.0,81.0,115.0,4.0
3.0,79.0,104.0,4.0
3.0,77.0,120.0,32.0
3.0,77.0,104.0,20.0
3.0,76.0,113.0,0.0
3.0,77.0,117.0,0.0
3.0,76.0,89.0,4.0
3.0,74.0,116.0,4.0
3.0,74.0,80.0,4.0
3.0,70.0,104.0,0.0
3.0,76.0,80.0,4.0
3.0,74.0,127.0,0.0
3.0,77.0,112.0,4.0
3.0,76.0,116.0,4.0
3.0,77.0,70.0,128.0
3.0,72.0,112.0,112.0
3.0,79.0,70.0,4.0
3.0,74.0,127.0,4.0
3.0,77.0,70.0,0.0
3.0,72.0,119.0,4.0
3.0,81.0,109.0,4.0
3.0,77.0,109.0,0.0
3.0,79.0,119.0,4.0
3.0,76.0,119.0,0.0
3.0,74.0,118.0,4.0
3.0,76.0,107.0,4.0
3.0,74.0,105.0,4.0
3.0,77.0,105.0,0.0
3.0,79.0,127.0,4.0
3.0,81.0,112.0,4.0
3.0,81.0,113.0,4.0
3.0,74.0,113.0,0.0
3.0,77.0,117.0,4.0
3.0,81.0,116.0,4.0
3.0,79.0,125.0,4.0
3.0,77.0,121.0,4.0
3.0,79.0,125.0,4.0
3.0,77.0,121.0,4.0
3.0,76.0,111.0,4.0
3.0,77.0,117.0,68.0
3.0,76.0,89.0,4.0
3.0,74.0,116.0,4.0
3.0,74.0,70.0,4.0
3.0,70.0,104.0,0.0
3.0,76.0,70.0,4.0
3.0,74.0,127.0,0.0
3.0,77.0,70.0,4.0
3.0,76.0,100.0,4.0
3.0,77.0,70.0,4.0
3.0,74.0,108.0,0.0
3.0,79.0,70.0,4.0
3.0,72.0,102.0,0.0
3.0,77.0,70.0,4.0
3.0,74.0,127.0,0.0
3.0,79.0,70.0,4.0
3.0,72.0,119.0,0.0
3.0,81.0,75.0,4.0
3.0,77.0,109.0,0.0
3.0,79.0,80.0,4.0
3.0,76.0,119.0,0.0
3.0,78.0,115.0,0.0
3.0,81.0,120.0,0.0
3.0,79.0,123.0,4.0
3.0,81.0,117.0,4.0
3.0,76.0,109.0,4.0
3.0,79.0,105.0,240.0
3.0,78.0,104.0,52.0
3.0,76.0,102.0,0.0
3.0,78.0,105.0,4.0
3.0,76.0,104.0,4.0
3.0,74.0,113.0,0.0
3.0,76.0,106.0,4.0
3.0,74.0,114.0,4.0
3.0,76.0,101.0,4.0
3.0,77.0,113.0,4.0
3.0,74.0,104.0,0.0
3.0,76.0,100.0,4.0
3.0,74.0,116.0,4.0
3.0,71.0,112.0,4.0
3.0,79.0,111.0,0.0
3.0,74.0,123.0,4.0
3.0,76.0,119.0,4.0
3.0,74.0,109.0,4.0
3.0,73.0,95.0,4.0
3.0,69.0,96.0,4.0
3.0,81.0,115.0,4.0
3.0,78.0,115.0,0.0
3.0,81.0,115.0,132.0
3.0,76.0,109.0,4.0
3.0,79.0,92.0,4.0
3.0,78.0,104.0,4.0
3.0,76.0,102.0,0.0
3.0,78.0,93.0,4.0
3.0,76.0,96.0,4.0
3.0,74.0,113.0,0.0
3.0,76.0,106.0,4.0
3.0,74.0,114.0,4.0
3.0,76.0,101.0,4.0
3.0,74.0,113.0,4.0
3.0,77.0,113.0,0.0
3.0,76.0,100.0,4.0
3.0,74.0,116.0,4.0
3.0,79.0,112.0,4.0
3.0,71.0,112.0,0.0
3.0,74.0,123.0,4.0
3.0,76.0,119.0,4.0
3.0,74.0,109.0,4.0
3.0,73.0,95.0,4.0
3.0,69.0,96.0,4.0
3.0,69.0,70.0,4.0
3.0,74.0,104.0,20.0
4.0,64.0,127.0,8832.0
4.0,64.0,127.0,64.0
4.0,64.0,127.0,128.0
4.0,64.0,127.0,4.0
4.0,64.0,127.0,0.0
4.0,64.0,127.0,64.0
4.0,64.0,127.0,128.0
4.0,64.0,127.0,4.0
4.0,64.0,127.0,0.0
4.0,64.0,127.0,64.0
4.0,64.0,127.0,128.0
4.0,64.0,127.0,4.0
4.0,64.0,127.0,0.0
4.0,64.0,127.0,64.0
4.0,64.0,127.0,4.0
4.0,64.0,127.0,64.0
4.0,64.0,127.0,128.0
4.0,64.0,127.0,4.0
4.0,64.0,127.0,0.0
4.0,64.0,127.0,64.0
4.0,64.0,127.0,128.0
4.0,64.0,127.0,4.0
4.0,64.0,127.0,0.0
4.0,64.0,127.0,64.0
4.0,64.0,127.0,128.0
4.0,64.0,127.0,4.0
4.0,64.0,127.0,0.0
4.0,64.0,127.0,64.0
4.0,64.0,127.0,4.0
4.0,64.0,127.0,6404.0
4.0,64.0,127.0,64.0
4.0,64.0,127.0,128.0
4.0,64.0,127.0,4.0
4.0,64.0,127.0,0.0
4.0,64.0,127.0,64.0
4.0,64.0,127.0,128.0
4.0,64.0,127.0,4.0
4.0,64.0,127.0,0.0
4.0,64.0,127.0,64.0
4.0,64.0,127.0,128.0
4.0,64.0,127.0,4.0
4.0,64.0,127.0,0.0
4.0,64.0,127.0,64.0
4.0,64.0,127.0,4.0
4.0,64.0,127.0,64.0
4.0,64.0,127.0,128.0
4.0,64.0,127.0,4.0
4.0,64.0,127.0,0.0
4.0,64.0,127.0,64.0
4.0,64.0,127.0,128.0
4.0,64.0,127.0,4.0
4.0,64.0,127.0,0.0
4.0,64.0,127.0,64.0
4.0,64.0,127.0,128.0
4.0,64.0,127.0,4.0
4.0,64.0,127.0,0.0
4.0,64.0,127.0,64.0
4.0,64.0,127.0,4.0
4.0,64.0,127.0,6404.0
4.0,64.0,127.0,64.0
4.0,64.0,127.0,128.0
4.0,64.0,127.0,4.0
4.0,64.0,127.0,0.0
4.0,64.0,127.0,64.0
4.0,64.0,127.0,128.0
4.0,64.0,127.0,4.0
4.0,64.0,127.0,0.0
4.0,64.0,127.0,64.0
4.0,64.0,127.0,128.0
4.0,64.0,127.0,4.0
4.0,64.0,127.0,0.0
4.0,64.0,127.0,64.0
4.0,64.0,127.0,4.0
4.0,64.0,127.0,64.0
4.0,64.0,127.0,128.0
4.0,64.0,127.0,4.0
4.0,64.0,127.0,0.0
4.0,64.0,127.0,64.0
4.0,64.0,127.0,128.0
4.0,64.0,127.0,4.0
4.0,64.0,127.0,0.0
4.0,64.0,127.0,64.0
4.0,64.0,127.0,128.0
4.0,64.0,127.0,4.0
4.0,64.0,127.0,0.0
4.0,64.0,127.0,64.0
0.0,0.0,0.0,0.0
0.0,0.0,0.0,0.0
0.0,0.0,0.0,0.0
0.0,0.0,0.0,0.0
0.0,0.0,0.0,0.0
0.0,0.0,0.0,0.0
0.0,0.0,0.0,0.0
0.0,0.0,0.0,0.0
0.0,0.0,0.0,0.0
0.0,0.0,0.0,0.0
0.0,0.0,0.0,0.0
0.0,0.0,0.0,0.0
0.0,0.0,0.0,0.0
0.0,0.0,0.0,0.0
0.0,0.0,0.0,0.0
0.0,0.0,0.0,0.0
0.0,0.0,0.0,0.0
0.0,0.0,0.0,0.0
0.0,0.0,0.0,0.0
0.0,0.0,0.0,0.0
0.0,0.0,0.0,0.0
0.0,0.0,0.0,0.0
0.0,0.0,0.0,0.0
0.0,0.0,0.0,0.0
0.0,0.0,0.0,0.0
0.0,0.0,0.0,0.0
0.0,0.0,0.0,0.0
0.0,0.0,0.0,0.0
0.0,0.0,0.0,0.0
0.0,0.0,0.0,0.0
0.0,0.0,0.0,0.0
0.0,0.0,0.0,0.0
0.0,0.0,0.0,0.0
0.0,0.0,0.0,0.0
0.0,0.0,0.0,0.0
0.0,0.0,0.0,0.0
0.0,0.0,0.0,0.0
0.0,0.0,0.0,0.0
0.0,0.0,0.0,0.0
0.0,0.0,0.0,0.0
0.0,0.0,0.0,0.0
0.0,0.0,0.0,0.0
0.0,0.0,0.0,0.0
0.0,0.0,0.0,0.0
0.0,0.0,0.0,0.0
0.0,0.0,0.0,0.0
0.0,0.0,0.0,0.0
0.0,0.0,0.0,0.0
0.0,0.0,0.0,0.0
0.0,0.0,0.0,0.0
0.0,0.0,0.0,0.0
0.0,0.0,0.0,0.0
0.0,0.0,0.0,0.0
0.0,0.0,0.0,0.0
0.0,0.0,0.0,0.0
0.0,0.0,0.0,0.0
0.0,0.0,0.0,0.0
0.0,0.0,0.0,0.0
0.0,0.0,0.0,0.0
0.0,0.0,0.0,0.0
0.0,0.0,0.0,0.0
0.0,0.0,0.0,0.0
0.0,0.0,0.0,0.0
0.0,0.0,0.0,0.0
0.0,0.0,0.0,0.0
0.0,0.0,0.0,0.0
0.0,0.0,0.0,0.0
0.0,0.0,0.0,0.0
0.0,0.0,0.0,0.0
0.0,0.0,0.0,0.0
0.0,0.0,0.0,0.0
0.0,0.0,0.0,0.0
0.0,0.0,0.0,0.0
0.0,0.0,0.0,0.0
0.0,0.0,0.0,0.0
0.0,0.0,0.0,0.0
0.0,0.0,0.0,0.0
0.0,0.0,0.0,0.0
0.0,0.0,0.0,0.0
0.0,0.0,0.0,0.0
0.0,0.0,0.0,0.0
0.0,0.0,0.0,0.0
0.0,0.0,0.0,0.0
0.0,0.0,0.0,0.0
0.0,0.0,0.0,0.0
0.0,0.0,0.0,0.0
0.0,0.0,0.0,0.0
0.0,0.0,0.0,0.0
0.0,0.0,0.0,0.0
0.0,0.0,0.0,0.0
0.0,0.0,0.0,0.0
0.0,0.0,0.0,0.0
0.0,0.0,0.0,0.0
0.0,0.0,0.0,0.0
0.0,0.0,0.0,0.0
0.0,0.0,0.0,0.0
0.0,0.0,0.0,0.0
0.0,0.0,0.0,0.0
0.0,0.0,0.0,0.0
0.0,0.0,0.0,0.0
0.0,0.0,0.0,0.0
0.0,0.0,0.0,0.0
0.0,0.0,0.0,0.0
0.0,0.0,0.0,0.0
0.0,0.0,0.0,0.0
0.0,0.0,0.0,0.0
0.0,0.0,0.0,0.0
0.0,0.0,0.0,0.0
0.0,0.0,0.0,0.0
0.0,0.0,0.0,0.0
0.0,0.0,0.0,0.0
0.0,0.0,0.0,0.0
0.0,0.0,0.0,0.0
0.0,0.0,0.0,0.0
0.0,0.0,0.0,0.0
0.0,0.0,0.0,0.0
0.0,0.0,0.0,0.0
0.0,0.0,0.0,0.0
0.0,0.0,0.0,0.0
0.0,0.0,0.0,0.0
0.0,0.0,0.0,0.0
0.0,0.0,0.0,0.0
0.0,0.0,0.0,0.0
0.0,0.0,0.0,0.0
0.0,0.0,0.0,0.0
0.0,0.0,0.0,0.0
0.0,0.0,0.0,0.0
0.0,0.0,0.0,0.0
0.0,0.0,0.0,0.0
0.0,0.0,0.0,0.0
0.0,0.0,0.0,0.0
0.0,0.0,0.0,0.0
0.0,0.0,0.0,0.0
0.0,0.0,0.0,0.0
0.0,0.0,0.0,0.0
0.0,0.0,0.0,0.0
0.0,0.0,0.0,0.0
0.0,0.0,0.0,0.0
0.0,0.0,0.0,0.0
0.0,0.0,0.0,0.0
0.0,0.0,0.0,0.0
0.0,0.0,0.0,0.0
0.0,0.0,0.0,0.0
0.0,0.0,0.0,0.0
0.0,0.0,0.0,0.0
0.0,0.0,0.0,0.0
0.0,0.0,0.0,0.0
0.0,0.0,0.0,0.0
0.0,0.0,0.0,0.0
0.0,0.0,0.0,0.0
0.0,0.0,0.0,0.0
0.0,0.0,0.0,0.0
0.0,0.0,0.0,0.0
0.0,0.0,0.0,0.0
0.0,0.0,0.0,0.0
0.0,0.0,0.0,0.0
0.0,0.0,0.0,0.0
0.0,0.0,0.0,0.0
0.0,0.0,0.0,0.0
0.0,0.0,0.0,0.0
0.0,0.0,0.0,0.0
0.0,0.0,0.0,0.0
0.0,0.0,0.0,0.0
0.0,0.0,0.0,0.0
0.0,0.0,0.0,0.0
0.0,0.0,0.0,0.0
0.0,0.0,0.0,0.0
0.0,0.0,0.0,0.0
0.0,0.0,0.0,0.0
0.0,0.0,0.0,0.0
0.0,0.0,0.0,0.0
0.0,0.0,0.0,0.0
