track,note,velocity,time
1,36,80,1534
1,36,80,150
1,48,98,48
1,48,104,170
1,36,97,842
1,36,92,158
1,48,112,64
1,48,114,180
1,36,94,856
1,36,90,148
1,48,95,64
1,48,90,174
1,36,98,836
1,36,90,154
1,48,97,68
1,48,104,178
1,36,100,852
1,36,91,192
1,48,98,52
1,48,104,178
1,43,97,822
1,43,95,174
1,55,91,44
1,55,97,196
1,44,97,848
1,44,97,170
1,56,110,74
1,56,107,192
1,39,93,848
1,39,99,160
1,51,113,72
1,51,110,184
1,43,92,96
1,43,90,158
1,55,102,48
1,55,95,204
1,36,90,68
1,36,88,170
1,48,108,52
1,48,100,174
1,43,97,802
1,43,98,178
1,55,102,42
1,55,102,192
1,44,104,840
1,44,91,168
1,56,93,42
1,56,104,218
1,39,95,856
1,39,91,164
1,51,113,68
1,51,110,184
1,43,94,104
1,43,94,158
1,55,97,62
1,55,95,170
1,36,90,70
1,36,92,178
1,48,112,52
1,48,110,182
1,39,91,848
1,39,95,160
1,51,119,72
1,51,119,192
1,43,97,100
1,43,97,170
1,55,106,64
1,55,92,180
1,36,90,90
1,36,90,156
1,48,117,56
1,48,106,188
1,36,100,846
1,36,90,224
1,48,97,20
1,48,104,198
1,36,100,834
1,36,91,190
1,48,98,44
1,48,104,186
1,43,97,822
1,43,95,174
1,55,91,44
1,55,97,196
1,44,97,828
1,44,97,190
1,56,110,48
1,56,107,218
1,39,93,848
1,39,99,160
1,51,113,72
1,51,110,184
1,43,92,96
1,43,90,158
1,55,102,48
1,55,95,204
1,36,90,68
1,36,88,170
1,48,108,52
1,48,100,174
1,43,97,802
1,43,98,178
1,55,102,42
1,55,102,192
1,44,104,824
1,44,91,184
1,56,93,42
1,56,104,218
1,39,95,856
1,39,91,164
1,51,113,68
1,51,110,184
1,43,94,104
1,43,94,158
1,55,97,62
1,55,95,170
1,36,90,70
1,36,92,178
1,48,112,52
1,48,110,182
1,39,91,848
1,39,95,160
1,51,119,72
1,51,119,192
1,43,97,100
1,43,97,170
1,55,106,64
1,55,92,180
1,36,90,86
1,36,90,160
1,48,117,48
1,48,106,194
1,36,100,838
1,36,91,178
1,48,97,34
1,48,102,184
1,44,102,848
1,44,99,100
1,56,119,46
1,56,119,164
1,39,93,816
1,39,87,150
1,51,110,46
1,51,119,174
1,43,98,864
1,43,91,126
1,55,102,30
1,55,102,168
1,36,91,824
1,36,92,156
1,48,112,52
1,48,108,170
1,44,101,816
1,44,99,156
1,56,123,68
1,56,107,174
1,39,104,822
1,39,89,158
1,51,113,40
1,51,110,168
1,43,102,836
1,43,98,130
1,55,108,42
1,55,110,174
1,44,91,848
1,44,89,150
1,56,110,46
1,56,107,170
1,39,101,824
1,39,91,160
1,51,116,62
1,51,119,170
1,43,104,840
1,43,100,138
1,55,106,36
1,55,102,202
1,36,100,852
1,36,74,152
1,48,106,58
1,48,112,170
1,44,91,840
1,44,82,158
1,56,107,64
1,56,97,164
1,39,91,840
1,39,89,164
1,51,119,64
1,51,113,176
1,38,102,852
1,38,86,138
1,50,108,56
1,50,106,170
1,36,98,810
1,36,81,160
1,48,114,30
1,48,106,180
1,36,104,852
1,36,81,126
1,48,95,42
1,48,95,168
1,36,83,826
1,36,81,144
1,48,100,38
1,48,97,170
1,36,90,846
1,36,90,272
1,48,97,102
1,48,104,102
1,36,100,832
1,36,91,192
1,48,98,52
1,48,104,178
1,43,97,822
1,43,95,174
1,55,91,44
1,55,97,196
1,44,97,848
1,44,97,170
1,56,110,74
1,56,107,192
1,39,93,848
1,39,99,160
1,51,113,72
1,51,110,184
1,43,92,96
1,43,90,158
1,55,102,48
1,55,95,204
1,36,90,68
1,36,88,170
1,48,108,52
1,48,100,174
1,43,97,802
1,43,98,178
1,55,102,42
1,55,102,192
1,44,104,840
1,44,91,168
1,56,93,42
1,56,104,218
1,39,95,856
1,39,91,164
1,51,113,68
1,51,110,184
1,43,94,104
1,43,94,158
1,55,97,62
1,55,95,170
1,36,90,70
1,36,92,178
1,48,112,52
1,48,110,182
1,39,91,848
1,39,95,160
1,51,119,72
1,51,119,192
1,43,97,100
1,43,97,170
1,55,106,64
1,55,92,180
1,36,90,90
1,36,90,156
1,48,117,56
1,48,106,188
1,36,100,846
1,36,90,224
1,48,97,20
1,48,104,198
1,36,100,834
1,36,91,190
1,48,98,44
1,48,104,186
1,43,97,822
1,43,95,174
1,55,91,44
1,55,97,196
1,44,97,828
1,44,97,190
1,56,110,48
1,56,107,218
1,39,93,848
1,39,99,160
1,51,113,72
1,51,110,184
1,43,92,96
1,43,90,158
1,55,102,48
1,55,95,204
1,36,90,68
1,36,88,170
1,48,108,52
1,48,100,174
1,43,97,802
1,43,98,178
1,55,102,42
1,55,102,192
1,44,104,824
1,44,91,184
1,56,93,42
1,56,104,218
1,39,95,856
1,39,91,164
1,51,113,68
1,51,110,184
1,43,94,104
1,43,94,158
1,55,97,62
1,55,95,170
1,36,90,70
1,36,92,178
1,48,112,52
1,48,110,182
1,39,91,848
1,39,95,160
1,51,119,72
1,51,119,192
1,43,97,100
1,43,97,170
1,55,106,64
1,55,92,180
1,36,90,86
1,36,90,160
1,48,117,48
1,48,106,194
1,36,100,838
1,36,92,162
1,48,112,52
1,48,110,182
1,39,91,848
1,39,95,160
1,51,119,72
1,51,119,192
1,43,97,100
1,43,97,170
1,55,106,64
1,55,92,180
1,36,90,86
1,36,90,160
1,48,117,48
1,48,106,194
1,36,100,838
1,36,92,162
1,48,112,52
1,48,110,182
1,39,91,848
1,39,95,160
1,51,119,72
1,51,119,192
1,43,97,100
1,43,97,170
1,55,106,64
1,55,92,180
1,36,90,86
1,36,90,160
1,48,117,48
1,48,106,194
1,36,100,846
1,36,91,172
1,48,97,34
1,48,102,184
1,36,100,848
1,36,91,172
1,48,97,34
1,48,102,184
1,36,100,848
1,36,91,172
1,48,97,34
1,48,102,184
1,36,100,848
1,36,91,172
1,48,97,34
1,48,102,184
1,36,100,848
1,36,91,172
1,48,97,34
1,48,102,184
1,36,100,848
1,36,91,172
1,48,97,34
1,48,102,184
1,36,100,164
1,36,91,92
1,48,97,34
1,48,102,184
1,36,100,132
1,36,91,172
1,48,97,18
1,48,102,184
1,36,100,394
1,36,91,172
1,48,97,34
1,48,102,184
1,36,100,36
1,36,91,124
1,48,97,34
1,48,102,88
1,36,100,164
1,36,91,172
1,48,97,34
1,48,102,152
1,36,100,84
1,36,91,172
1,48,97,34
1,48,102,184
1,36,100,36
1,36,91,172
1,48,97,34
1,48,102,184
1,36,100,116
1,36,91,28
1,48,97,34
1,48,102,40
1,36,100,52
1,36,91,60
1,48,97,18
1,48,102,184
1,36,100,148
1,36,91,172
1,48,97,34
1,48,102,40
1,36,100,196
1,36,91,92
1,48,97,34
1,48,102,24
2,24,104,1560
2,24,104,132
2,24,104,142
2,24,104,142
2,24,98,154
2,31,104,1508
2,32,95,256
2,27,104,0
2,31,100,748
2,24,94,28
2,31,92,62
2,32,85,62
2,27,89,46
2,31,90,752
2,24,88,14
2,27,107,294
2,31,104,746
2,24,87,756
2,36,77,22
2,36,98,284
2,43,104,1508
2,44,95,256
2,39,104,0
2,43,100,748
2,36,94,28
2,43,92,62
2,44,85,62
2,39,89,46
2,43,90,752
2,36,88,14
2,39,107,294
2,43,104,746
2,36,77,10
2,36,87,256
2,44,90,196
2,39,90,4
2,43,86,4
2,36,76,4
2,44,67,4
2,39,85,4
2,43,73,4
2,44,73,4
2,39,81,4
2,43,87,4
2,36,80,4
2,44,79,4
2,39,82,4
2,38,80,4
2,36,83,314
2,36,90,196
2,36,90,0
2,36,104,16
2,36,98,154
2,43,104,1508
2,44,95,256
2,39,104,0
2,43,100,748
2,36,94,28
2,43,92,62
2,44,85,62
2,39,89,46
2,43,90,752
2,36,88,14
2,39,107,294
2,43,104,746
2,36,87,756
2,36,77,22
2,36,98,284
2,43,104,1508
2,44,95,256
2,39,104,0
2,43,100,748
2,36,94,28
2,43,92,62
2,44,85,62
2,39,89,46
2,43,90,752
2,36,88,14
2,39,107,294
2,43,104,746
2,36,77,10
2,36,88,278
2,39,107,294
2,43,104,746
2,36,77,10
2,36,88,278
2,39,107,294
2,43,104,746
2,36,77,10
2,36,87,256
2,36,87,196
2,36,87,196
2,36,87,196
2,36,87,196
2,36,87,196
2,36,87,100
2,36,87,36
2,36,87,196
2,36,87,164
2,36,87,196
2,36,87,180
2,36,87,148
2,36,87,36
2,36,87,116
2,36,87,20
2,36,87,116
3,24,79,66048
3,24,76,160
3,36,94,54
3,36,112,222
3,24,80,854
3,24,78,190
3,36,80,58
3,36,110,198
3,24,80,864
3,24,78,174
3,36,83,54
3,36,110,186
3,24,83,852
3,24,80,168
3,36,90,74
3,36,112,192
3,24,87,846
3,24,80,170
3,36,97,80
3,36,112,192
3,31,83,852
3,31,80,166
3,43,75,72
3,43,110,212
3,32,87,842
3,32,81,180
3,44,95,88
3,44,123,200
3,27,78,840
3,27,77,188
3,39,113,64
3,39,113,208
3,31,90,80
3,31,80,186
3,43,110,74
3,43,98,180
3,24,68,96
3,24,86,184
3,36,112,68
3,36,108,188
3,31,88,854
3,31,75,138
3,43,98,58
3,43,112,212
3,32,82,848
3,32,78,186
3,44,93,50
3,44,127,210
3,27,84,838
3,27,82,212
3,39,116,48
3,39,110,192
3,31,86,86
3,31,84,184
3,43,112,62
3,43,112,190
3,24,85,116
3,24,81,170
3,36,112,52
3,36,106,188
3,27,94,846
3,27,94,164
3,39,112,48
3,39,112,170
3,31,94,68
3,31,86,166
3,43,110,64
3,43,94,180
3,24,83,96
3,24,85,160
3,36,117,56
3,36,112,202
3,24,90,830
3,24,83,184
3,36,112,36
3,36,112,212
3,24,100,842
3,24,85,176
3,36,104,74
3,36,112,190
3,31,87,842
3,31,86,164
3,43,95,36
3,43,112,232
3,32,95,864
3,32,85,180
3,44,104,50
3,44,123,208
3,27,99,860
3,27,79,172
3,39,123,64
3,39,113,202
3,31,81,84
3,31,92,198
3,43,114,74
3,43,102,188
3,24,88,60
3,24,80,190
3,36,114,60
3,36,104,188
3,31,88,846
3,31,86,164
3,43,112,72
3,43,114,190
3,32,97,864
3,32,91,180
3,44,110,40
3,44,123,216
3,27,97,862
3,27,84,202
3,39,119,52
3,39,119,196
3,31,86,88
3,31,83,186
3,43,110,54
3,43,112,190
3,24,90,88
3,24,79,154
3,36,114,78
3,36,112,180
3,24,95,838
3,24,84,182
3,36,112,58
3,36,110,198
3,31,97,104
3,31,94,172
3,43,114,76
3,43,100,172
3,24,92,104
3,24,80,176
3,36,114,46
3,36,104,178
3,24,90,832
3,24,79,154
3,36,114,78
3,36,112,180
3,24,95,838
3,24,84,182
3,36,112,58
3,36,110,198
3,31,97,104
3,31,94,172
3,43,114,76
3,43,100,172
3,24,92,104
3,24,80,176
3,36,114,46
3,36,104,178
3,24,90,832
3,24,79,154
3,36,114,78
3,36,112,180
3,24,95,838
3,24,84,182
3,36,112,58
3,36,110,198
3,31,97,104
3,31,94,172
3,43,114,76
3,43,100,172
3,24,92,104
3,24,80,176
3,36,114,46
3,36,104,178
3,24,87,838
3,24,80,172
3,36,108,58
3,36,110,192
3,24,87,848
3,24,80,172
3,36,108,58
3,36,110,192
3,24,87,848
3,24,80,172
3,36,108,58
3,36,110,192
3,24,87,848
3,24,80,172
3,36,108,58
3,36,110,24
3,24,87,32
3,24,80,2
3,36,108,58
3,36,110,192
3,24,87,202
3,24,80,172
3,36,108,58
3,36,110,88
3,24,87,384
3,24,80,34
3,36,108,58
3,36,110,74
3,24,87,122
3,24,80,172
3,36,108,58
3,36,110,192
3,24,87,74
3,24,80,50
3,36,108,16
3,36,110,152
3,24,87,90
3,24,80,172
3,36,108,32
3,36,110,192
3,24,87,272
3,24,80,130
3,36,108,58
3,36,110,104
3,24,87,26
3,24,80,18
3,36,108,16
3,36,110,8
3,24,87,6
3,24,80,34
3,36,108,58
3,36,110,88
3,24,87,122
3,24,80,114
3,36,108,32
3,36,110,192
3,24,87,58
3,24,80,50
3,36,108,58
3,36,110,56
3,24,87,74
3,24,80,114
3,36,108,58
3,36,110,40
3,24,87,26
3,24,80,146
3,36,108,58
3,36,110,104
4,60,87,7312
4,62,85,268
4,63,107,4
4,60,104,16
4,62,98,396
4,60,97,268
4,62,91,298
4,63,113,96
4,60,108,12
4,60,100,46
4,58,87,426
4,62,87,382
4,63,85,384
4,60,95,26
4,62,90,384
4,60,110,420
4,62,88,262
4,63,89,112
4,60,100,26
4,60,94,46
4,58,73,394
4,62,81,368
4,58,56,246
4,60,90,166
4,60,95,320
4,60,92,122
4,58,74,384
4,62,84,324
4,58,84,288
4,60,90,124
4,60,97,1714
4,62,94,264
4,63,107,32
4,60,104,16
4,62,98,396
4,60,97,268
4,62,91,298
4,63,113,96
4,60,108,12
4,60,100,46
4,58,87,426
4,62,87,382
4,63,85,384
4,60,95,26
4,62,90,384
4,60,110,420
4,62,88,262
4,63,89,112
4,60,100,26
4,60,94,46
4,58,73,394
4,62,81,368
4,58,56,246
4,60,90,166
4,60,95,320
4,60,92,122
4,58,74,384
4,62,84,324
4,58,84,288
4,60,90,124
4,68,97,12
4,70,104,1534
4,67,100,0
4,60,91,2
4,68,104,420
4,70,74,1482
4,67,86,6
4,68,107,396
4,70,71,1508
4,67,85,1514
4,60,75,0
4,68,95,400
4,70,68,10
4,69,80,0
4,67,112,768
4,60,87,4624
4,62,85,268
4,63,107,4
4,60,104,16
4,62,98,396
4,60,97,268
4,62,91,298
4,63,113,96
4,60,108,12
4,60,100,46
4,58,87,426
4,62,87,382
4,63,85,384
4,60,95,26
4,62,90,384
4,60,110,420
4,62,88,262
4,63,89,112
4,60,100,26
4,60,94,46
4,58,73,394
4,62,81,368
4,58,56,246
4,60,90,166
4,60,95,320
4,60,92,122
4,58,74,384
4,62,84,324
4,58,84,288
4,60,90,124
4,60,97,1714
4,62,94,264
4,63,107,32
4,60,104,16
4,62,98,396
4,60,97,268
4,62,91,298
4,63,113,96
4,60,108,12
4,60,100,46
4,58,87,426
4,62,87,382
4,63,85,384
4,60,95,26
4,62,90,384
4,60,110,420
4,62,88,262
4,63,89,112
4,60,100,26
4,60,94,46
4,58,73,394
4,62,81,368
4,58,56,246
4,60,90,166
4,60,95,320
4,60,92,122
4,58,74,384
4,62,84,324
4,58,84,288
4,60,90,124
4,60,90,586
4,60,95,344
4,60,92,122
4,58,74,384
4,62,84,324
4,58,84,288
4,60,90,124
4,60,90,1148
4,60,95,320
4,60,92,122
4,58,74,384
4,62,84,324
4,58,84,288
4,60,90,124
4,60,90,1124
4,60,95,344
4,60,92,122
4,58,74,384
4,62,84,324
4,58,84,288
4,60,90,124
4,60,90,1148
4,60,95,320
4,60,92,122
4,58,74,384
4,62,84,324
4,58,84,288
4,60,90,124
5,63,78,44544
5,63,68,100
5,62,86,4
5,63,78,4
5,63,78,384
5,63,93,100
5,62,87,4
5,63,67,384
5,63,70,292
5,62,83,4
5,63,71,0
5,63,71,384
5,63,80,100
5,62,97,0
5,60,111,768
5,60,65,23424
5,63,73,100
5,62,85,4
5,56,93,384
5,58,70,4
5,60,86,96
5,63,79,4
5,63,91,4
5,62,88,4
5,62,92,100
5,60,88,384
5,63,89,4
5,62,98,4
5,56,89,384
5,58,82,4
5,60,66,96
5,63,84,4
5,63,93,100
5,62,87,4
5,62,88,100
5,58,95,244
5,60,80,144
5,63,93,676
5,63,99,100
5,62,88,4
5,62,88,100
5,58,101,244
5,60,70,144
5,60,90,618
5,60,95,344
5,60,92,122
5,58,74,384
5,62,84,324
5,58,84,288
5,60,90,124
5,60,90,1148
5,60,95,320
5,60,92,122
5,58,74,384
5,62,84,324
5,58,84,288
5,60,90,124
5,60,90,1124
5,60,95,344
5,60,92,122
5,58,74,384
5,62,84,324
5,58,84,288
5,60,90,124
5,60,90,1148
5,60,95,320
5,60,92,122
5,58,74,384
5,62,84,324
5,58,84,288
5,60,90,124
6,56,73,44544
6,58,89,4
6,59,94,4
6,60,80,4
