track,note,velocity,time
1.0,63.0,75.0,1184.0
1.0,65.0,67.0,338.0
1.0,39.0,63.0,406.0
1.0,66.0,77.0,8.0
1.0,46.0,73.0,112.0
1.0,51.0,89.0,62.0
1.0,58.0,85.0,140.0
1.0,63.0,84.0,128.0
1.0,66.0,80.0,20.0
1.0,66.0,72.0,70.0
1.0,47.0,52.0,16.0
1.0,54.0,59.0,40.0
1.0,65.0,57.0,182.0
1.0,63.0,77.0,176.0
1.0,65.0,94.0,166.0
1.0,49.0,86.0,0.0
1.0,56.0,88.0,122.0
1.0,68.0,105.0,126.0
1.0,56.0,54.0,70.0
1.0,65.0,57.0,56.0
1.0,56.0,43.0,56.0
1.0,46.0,64.0,60.0
1.0,61.0,72.0,16.0
1.0,53.0,57.0,96.0
1.0,58.0,65.0,140.0
1.0,53.0,43.0,26.0
1.0,63.0,101.0,188.0
1.0,65.0,103.0,170.0
1.0,47.0,78.0,122.0
1.0,66.0,109.0,6.0
1.0,54.0,83.0,10.0
1.0,59.0,89.0,144.0
1.0,54.0,67.0,58.0
1.0,66.0,57.0,258.0
1.0,44.0,65.0,76.0
1.0,66.0,64.0,16.0
1.0,51.0,73.0,36.0
1.0,56.0,77.0,94.0
1.0,70.0,98.0,374.0
1.0,66.0,92.0,144.0
1.0,68.0,86.0,0.0
1.0,49.0,60.0,10.0
1.0,56.0,75.0,80.0
1.0,73.0,78.0,168.0
1.0,56.0,59.0,52.0
1.0,68.0,62.0,104.0
1.0,65.0,70.0,154.0
1.0,46.0,50.0,16.0
1.0,53.0,52.0,22.0
1.0,61.0,60.0,182.0
1.0,53.0,18.0,38.0
1.0,63.0,84.0,40.0
1.0,65.0,92.0,92.0
1.0,39.0,82.0,136.0
1.0,66.0,94.0,12.0
1.0,63.0,82.0,6.0
1.0,46.0,81.0,84.0
1.0,51.0,89.0,72.0
1.0,58.0,109.0,40.0
1.0,63.0,96.0,86.0
1.0,66.0,113.0,6.0
1.0,63.0,100.0,40.0
1.0,66.0,96.0,0.0
1.0,59.0,100.0,8.0
1.0,47.0,81.0,8.0
1.0,54.0,92.0,124.0
1.0,59.0,80.0,58.0
1.0,54.0,65.0,44.0
1.0,65.0,62.0,90.0
1.0,63.0,75.0,150.0
1.0,49.0,81.0,120.0
1.0,65.0,81.0,8.0
1.0,61.0,72.0,0.0
1.0,56.0,85.0,108.0
1.0,68.0,105.0,56.0
1.0,56.0,59.0,74.0
1.0,65.0,64.0,38.0
1.0,56.0,48.0,90.0
1.0,61.0,67.0,38.0
1.0,46.0,58.0,10.0
1.0,53.0,67.0,124.0
1.0,58.0,81.0,166.0
1.0,53.0,52.0,128.0
1.0,61.0,105.0,212.0
1.0,63.0,101.0,160.0
1.0,63.0,103.0,26.0
1.0,47.0,86.0,12.0
1.0,54.0,74.0,8.0
1.0,65.0,105.0,326.0
1.0,66.0,96.0,160.0
1.0,49.0,82.0,10.0
1.0,65.0,92.0,4.0
1.0,56.0,74.0,126.0
1.0,63.0,82.0,70.0
1.0,56.0,33.0,54.0
1.0,61.0,69.0,164.0
1.0,56.0,43.0,58.0
1.0,46.0,73.0,20.0
1.0,61.0,92.0,2.0
1.0,53.0,76.0,144.0
1.0,58.0,100.0,236.0
1.0,61.0,100.0,16.0
1.0,63.0,105.0,20.0
1.0,47.0,64.0,8.0
1.0,54.0,66.0,54.0
1.0,59.0,73.0,180.0
1.0,54.0,47.0,76.0
1.0,66.0,109.0,158.0
1.0,68.0,94.0,204.0
1.0,65.0,76.0,248.0
1.0,49.0,58.0,4.0
1.0,56.0,50.0,116.0
1.0,66.0,64.0,0.0
1.0,65.0,81.0,200.0
1.0,61.0,59.0,76.0
1.0,63.0,56.0,2.0
1.0,39.0,45.0,4.0
1.0,46.0,57.0,82.0
1.0,51.0,75.0,6.0
1.0,63.0,103.0,586.0
1.0,65.0,94.0,10.0
1.0,63.0,85.0,194.0
1.0,66.0,83.0,6.0
1.0,39.0,82.0,6.0
1.0,46.0,86.0,128.0
1.0,51.0,96.0,26.0
1.0,58.0,100.0,82.0
1.0,63.0,98.0,122.0
1.0,66.0,118.0,0.0
1.0,66.0,103.0,46.0
1.0,63.0,90.0,0.0
1.0,59.0,105.0,6.0
1.0,47.0,81.0,10.0
1.0,54.0,84.0,16.0
1.0,59.0,88.0,76.0
1.0,54.0,75.0,32.0
1.0,65.0,83.0,122.0
1.0,63.0,83.0,150.0
1.0,49.0,82.0,122.0
1.0,65.0,100.0,0.0
1.0,56.0,83.0,14.0
1.0,68.0,103.0,144.0
1.0,56.0,35.0,118.0
1.0,65.0,74.0,86.0
1.0,56.0,47.0,70.0
1.0,61.0,78.0,82.0
1.0,46.0,64.0,20.0
1.0,53.0,72.0,6.0
1.0,58.0,114.0,144.0
1.0,53.0,70.0,58.0
1.0,63.0,105.0,140.0
1.0,53.0,52.0,54.0
1.0,65.0,105.0,6.0
1.0,63.0,101.0,74.0
1.0,47.0,92.0,2.0
1.0,66.0,94.0,4.0
1.0,54.0,89.0,20.0
1.0,59.0,100.0,120.0
1.0,54.0,64.0,6.0
1.0,66.0,80.0,10.0
1.0,54.0,61.0,80.0
1.0,66.0,92.0,96.0
1.0,44.0,57.0,18.0
1.0,51.0,70.0,32.0
1.0,56.0,90.0,64.0
1.0,70.0,118.0,228.0
1.0,66.0,105.0,6.0
1.0,49.0,86.0,8.0
1.0,68.0,103.0,4.0
1.0,56.0,78.0,56.0
1.0,73.0,113.0,124.0
1.0,56.0,64.0,82.0
1.0,68.0,100.0,46.0
1.0,56.0,54.0,116.0
1.0,46.0,85.0,92.0
1.0,65.0,84.0,4.0
1.0,53.0,57.0,138.0
1.0,61.0,71.0,10.0
1.0,63.0,113.0,320.0
1.0,65.0,101.0,80.0
1.0,66.0,89.0,106.0
1.0,63.0,83.0,4.0
1.0,39.0,75.0,2.0
1.0,46.0,76.0,8.0
1.0,51.0,90.0,6.0
1.0,58.0,96.0,76.0
1.0,63.0,98.0,0.0
1.0,66.0,114.0,36.0
1.0,63.0,107.0,58.0
1.0,66.0,111.0,0.0
1.0,47.0,81.0,6.0
1.0,59.0,101.0,0.0
1.0,54.0,75.0,16.0
1.0,59.0,92.0,54.0
1.0,54.0,57.0,72.0
1.0,65.0,70.0,140.0
1.0,63.0,78.0,160.0
1.0,49.0,76.0,10.0
1.0,65.0,89.0,4.0
1.0,56.0,66.0,76.0
1.0,68.0,85.0,142.0
1.0,56.0,50.0,106.0
1.0,65.0,69.0,80.0
1.0,56.0,43.0,86.0
1.0,61.0,85.0,22.0
1.0,46.0,74.0,4.0
1.0,53.0,46.0,12.0
1.0,58.0,83.0,180.0
1.0,53.0,43.0,16.0
1.0,61.0,105.0,268.0
1.0,63.0,101.0,190.0
1.0,63.0,90.0,36.0
1.0,47.0,84.0,6.0
1.0,54.0,69.0,56.0
1.0,65.0,105.0,324.0
1.0,66.0,92.0,170.0
1.0,49.0,73.0,14.0
1.0,65.0,90.0,2.0
1.0,56.0,62.0,36.0
1.0,61.0,62.0,166.0
1.0,63.0,85.0,52.0
1.0,56.0,46.0,144.0
1.0,61.0,66.0,64.0
1.0,46.0,76.0,26.0
1.0,61.0,82.0,6.0
1.0,53.0,78.0,80.0
1.0,58.0,120.0,142.0
1.0,61.0,98.0,20.0
1.0,63.0,98.0,20.0
1.0,47.0,81.0,6.0
1.0,54.0,66.0,64.0
1.0,66.0,76.0,264.0
1.0,68.0,80.0,186.0
1.0,65.0,66.0,224.0
1.0,49.0,60.0,0.0
1.0,56.0,46.0,112.0
1.0,65.0,64.0,8.0
1.0,66.0,67.0,206.0
1.0,65.0,67.0,184.0
1.0,61.0,54.0,86.0
1.0,63.0,65.0,350.0
1.0,39.0,44.0,0.0
1.0,46.0,62.0,88.0
1.0,51.0,64.0,46.0
1.0,27.0,40.0,400.0
1.0,66.0,103.0,154.0
1.0,65.0,101.0,206.0
1.0,66.0,89.0,120.0
1.0,42.0,59.0,6.0
1.0,49.0,54.0,166.0
1.0,54.0,39.0,222.0
1.0,61.0,96.0,4.0
1.0,54.0,61.0,172.0
1.0,58.0,105.0,0.0
1.0,61.0,107.0,40.0
1.0,66.0,100.0,42.0
1.0,47.0,76.0,28.0
1.0,54.0,56.0,42.0
1.0,68.0,57.0,134.0
1.0,66.0,64.0,106.0
1.0,65.0,69.0,34.0
1.0,49.0,56.0,4.0
1.0,56.0,18.0,148.0
1.0,66.0,92.0,272.0
1.0,65.0,94.0,4.0
1.0,61.0,80.0,156.0
1.0,42.0,40.0,22.0
1.0,49.0,42.0,72.0
1.0,54.0,28.0,176.0
1.0,61.0,103.0,210.0
1.0,66.0,85.0,4.0
1.0,70.0,73.0,22.0
1.0,47.0,52.0,36.0
1.0,71.0,69.0,4.0
1.0,54.0,36.0,94.0
1.0,68.0,62.0,80.0
1.0,49.0,57.0,16.0
1.0,56.0,50.0,80.0
1.0,61.0,50.0,90.0
1.0,71.0,103.0,206.0
1.0,70.0,85.0,2.0
1.0,70.0,94.0,80.0
1.0,42.0,80.0,6.0
1.0,49.0,61.0,54.0
1.0,54.0,48.0,88.0
1.0,66.0,105.0,248.0
1.0,61.0,105.0,6.0
1.0,66.0,101.0,6.0
1.0,66.0,103.0,102.0
1.0,47.0,80.0,8.0
1.0,54.0,50.0,78.0
1.0,68.0,62.0,122.0
1.0,66.0,84.0,100.0
1.0,49.0,57.0,16.0
1.0,65.0,75.0,0.0
1.0,56.0,40.0,114.0
1.0,66.0,86.0,220.0
1.0,65.0,73.0,192.0
1.0,61.0,80.0,60.0
1.0,46.0,55.0,16.0
1.0,53.0,51.0,52.0
1.0,61.0,81.0,0.0
1.0,66.0,86.0,222.0
1.0,53.0,50.0,6.0
1.0,61.0,70.0,228.0
1.0,63.0,80.0,180.0
1.0,47.0,56.0,6.0
1.0,54.0,39.0,150.0
1.0,66.0,85.0,298.0
1.0,49.0,59.0,26.0
1.0,65.0,75.0,0.0
1.0,56.0,34.0,50.0
1.0,61.0,42.0,298.0
1.0,66.0,45.0,34.0
1.0,58.0,55.0,166.0
1.0,61.0,60.0,42.0
1.0,42.0,40.0,48.0
1.0,66.0,58.0,26.0
1.0,49.0,46.0,54.0
1.0,54.0,38.0,168.0
1.0,49.0,18.0,38.0
1.0,42.0,21.0,314.0
1.0,63.0,94.0,958.0
1.0,65.0,85.0,0.0
1.0,63.0,64.0,350.0
1.0,66.0,80.0,2.0
1.0,39.0,62.0,2.0
1.0,46.0,54.0,86.0
1.0,51.0,50.0,58.0
1.0,66.0,85.0,4.0
1.0,66.0,69.0,162.0
1.0,59.0,60.0,10.0
1.0,63.0,66.0,0.0
1.0,47.0,56.0,6.0
1.0,54.0,46.0,90.0
1.0,65.0,96.0,328.0
1.0,63.0,94.0,172.0
1.0,49.0,66.0,6.0
1.0,65.0,85.0,0.0
1.0,56.0,48.0,96.0
1.0,68.0,85.0,22.0
1.0,65.0,75.0,186.0
1.0,56.0,40.0,62.0
1.0,46.0,53.0,62.0
1.0,61.0,71.0,14.0
1.0,53.0,40.0,40.0
1.0,58.0,71.0,120.0
1.0,63.0,105.0,282.0
1.0,65.0,101.0,192.0
1.0,66.0,88.0,240.0
1.0,47.0,73.0,24.0
1.0,54.0,54.0,80.0
1.0,59.0,62.0,280.0
1.0,66.0,85.0,70.0
1.0,66.0,66.0,164.0
1.0,44.0,61.0,10.0
1.0,56.0,62.0,2.0
1.0,59.0,62.0,0.0
1.0,51.0,38.0,148.0
1.0,70.0,101.0,340.0
1.0,66.0,103.0,178.0
1.0,68.0,84.0,144.0
1.0,49.0,55.0,6.0
1.0,73.0,89.0,120.0
1.0,56.0,45.0,16.0
1.0,68.0,78.0,56.0
1.0,56.0,19.0,122.0
1.0,65.0,70.0,106.0
1.0,46.0,48.0,34.0
1.0,53.0,30.0,68.0
1.0,61.0,71.0,64.0
1.0,63.0,105.0,258.0
1.0,65.0,92.0,28.0
1.0,39.0,60.0,200.0
1.0,66.0,78.0,4.0
1.0,46.0,41.0,98.0
1.0,51.0,36.0,176.0
1.0,66.0,81.0,10.0
1.0,59.0,57.0,144.0
1.0,66.0,59.0,0.0
1.0,63.0,59.0,8.0
1.0,47.0,37.0,16.0
1.0,54.0,30.0,144.0
1.0,65.0,113.0,320.0
1.0,63.0,89.0,160.0
1.0,65.0,86.0,160.0
1.0,49.0,64.0,2.0
1.0,68.0,86.0,120.0
1.0,56.0,51.0,10.0
1.0,65.0,73.0,140.0
1.0,56.0,37.0,80.0
1.0,61.0,81.0,96.0
1.0,46.0,59.0,16.0
1.0,53.0,25.0,80.0
1.0,58.0,80.0,50.0
1.0,53.0,25.0,44.0
1.0,61.0,105.0,138.0
1.0,63.0,98.0,0.0
1.0,63.0,86.0,62.0
1.0,47.0,57.0,6.0
1.0,54.0,52.0,130.0
1.0,65.0,86.0,460.0
1.0,66.0,85.0,132.0
1.0,49.0,72.0,78.0
1.0,65.0,81.0,0.0
1.0,63.0,83.0,228.0
1.0,61.0,76.0,368.0
1.0,46.0,59.0,46.0
1.0,61.0,81.0,2.0
1.0,53.0,46.0,86.0
1.0,58.0,103.0,252.0
1.0,61.0,96.0,4.0
1.0,63.0,77.0,104.0
1.0,47.0,51.0,8.0
1.0,54.0,19.0,0.0
1.0,66.0,111.0,394.0
1.0,68.0,77.0,0.0
1.0,65.0,82.0,36.0
1.0,49.0,52.0,10.0
1.0,56.0,26.0,178.0
1.0,66.0,71.0,144.0
1.0,65.0,62.0,20.0
1.0,61.0,46.0,136.0
1.0,63.0,72.0,496.0
1.0,39.0,46.0,10.0
1.0,46.0,28.0,156.0
1.0,51.0,28.0,380.0
2.0,58.0,46.0,1842.0
2.0,63.0,49.0,0.0
2.0,66.0,54.0,4.0
2.0,63.0,54.0,220.0
2.0,66.0,59.0,10.0
2.0,59.0,57.0,0.0
2.0,56.0,54.0,360.0
2.0,65.0,55.0,0.0
2.0,61.0,67.0,0.0
2.0,61.0,60.0,368.0
2.0,58.0,55.0,6.0
2.0,65.0,52.0,8.0
2.0,66.0,74.0,470.0
2.0,59.0,80.0,4.0
2.0,63.0,89.0,2.0
2.0,66.0,82.0,358.0
2.0,56.0,70.0,4.0
2.0,59.0,78.0,4.0
2.0,56.0,72.0,246.0
2.0,61.0,82.0,0.0
2.0,65.0,80.0,4.0
2.0,65.0,64.0,426.0
2.0,58.0,65.0,2.0
2.0,61.0,70.0,0.0
2.0,58.0,64.0,432.0
2.0,63.0,74.0,2.0
2.0,66.0,64.0,4.0
2.0,63.0,89.0,90.0
2.0,66.0,89.0,2.0
2.0,59.0,84.0,0.0
2.0,61.0,81.0,218.0
2.0,65.0,81.0,2.0
2.0,56.0,71.0,8.0
2.0,61.0,76.0,112.0
2.0,58.0,82.0,0.0
2.0,65.0,83.0,6.0
2.0,63.0,77.0,158.0
2.0,66.0,78.0,2.0
2.0,59.0,76.0,4.0
2.0,65.0,78.0,182.0
2.0,61.0,77.0,6.0
2.0,56.0,75.0,0.0
2.0,58.0,76.0,196.0
2.0,61.0,69.0,4.0
2.0,65.0,71.0,0.0
2.0,66.0,76.0,206.0
2.0,63.0,89.0,6.0
2.0,59.0,81.0,0.0
2.0,61.0,75.0,374.0
2.0,65.0,75.0,0.0
2.0,56.0,62.0,6.0
2.0,51.0,46.0,854.0
2.0,58.0,57.0,0.0
2.0,63.0,37.0,8.0
2.0,39.0,46.0,18.0
2.0,58.0,60.0,8.0
2.0,63.0,64.0,4.0
2.0,66.0,63.0,4.0
2.0,66.0,90.0,150.0
2.0,59.0,94.0,4.0
2.0,63.0,78.0,2.0
2.0,65.0,85.0,388.0
2.0,61.0,81.0,2.0
2.0,56.0,81.0,4.0
2.0,61.0,62.0,298.0
2.0,65.0,58.0,2.0
2.0,58.0,60.0,8.0
2.0,66.0,81.0,90.0
2.0,63.0,80.0,4.0
2.0,59.0,82.0,6.0
2.0,63.0,72.0,230.0
2.0,66.0,86.0,2.0
2.0,56.0,74.0,4.0
2.0,59.0,90.0,4.0
2.0,65.0,66.0,160.0
2.0,61.0,65.0,6.0
2.0,56.0,57.0,4.0
2.0,61.0,40.0,32.0
2.0,58.0,59.0,12.0
2.0,65.0,57.0,4.0
2.0,63.0,73.0,182.0
2.0,58.0,71.0,4.0
2.0,66.0,72.0,2.0
2.0,63.0,77.0,96.0
2.0,66.0,84.0,0.0
2.0,59.0,71.0,6.0
2.0,61.0,75.0,236.0
2.0,65.0,75.0,4.0
2.0,56.0,62.0,0.0
2.0,58.0,42.0,352.0
2.0,61.0,59.0,0.0
2.0,65.0,51.0,8.0
2.0,66.0,65.0,356.0
2.0,63.0,64.0,0.0
2.0,59.0,67.0,0.0
2.0,65.0,61.0,182.0
2.0,56.0,76.0,2.0
2.0,61.0,70.0,0.0
2.0,58.0,58.0,202.0
2.0,61.0,63.0,4.0
2.0,65.0,61.0,6.0
2.0,66.0,62.0,218.0
2.0,63.0,63.0,2.0
2.0,59.0,59.0,10.0
2.0,65.0,59.0,258.0
2.0,61.0,62.0,4.0
2.0,56.0,56.0,6.0
2.0,58.0,40.0,1138.0
2.0,51.0,41.0,4.0
2.0,63.0,20.0,6.0
2.0,27.0,46.0,22.0
2.0,39.0,18.0,10.0
2.0,61.0,57.0,410.0
2.0,58.0,44.0,2.0
2.0,66.0,49.0,0.0
2.0,59.0,58.0,266.0
2.0,66.0,54.0,0.0
2.0,63.0,60.0,0.0
2.0,61.0,60.0,288.0
2.0,56.0,36.0,2.0
2.0,65.0,45.0,4.0
2.0,66.0,57.0,136.0
2.0,61.0,67.0,8.0
2.0,58.0,50.0,4.0
2.0,63.0,61.0,180.0
2.0,66.0,60.0,12.0
2.0,59.0,61.0,4.0
2.0,61.0,63.0,216.0
2.0,65.0,60.0,4.0
2.0,56.0,57.0,4.0
2.0,66.0,50.0,18.0
2.0,61.0,66.0,4.0
2.0,58.0,48.0,2.0
2.0,63.0,72.0,330.0
2.0,66.0,83.0,0.0
2.0,59.0,71.0,6.0
2.0,61.0,70.0,304.0
2.0,65.0,58.0,0.0
2.0,56.0,64.0,0.0
2.0,61.0,66.0,194.0
2.0,58.0,51.0,4.0
2.0,65.0,60.0,10.0
2.0,63.0,66.0,6.0
2.0,66.0,62.0,0.0
2.0,59.0,56.0,6.0
2.0,61.0,60.0,278.0
2.0,65.0,49.0,6.0
2.0,56.0,36.0,0.0
2.0,54.0,42.0,506.0
2.0,66.0,24.0,24.0
2.0,61.0,54.0,0.0
2.0,58.0,45.0,4.0
2.0,39.0,81.0,1290.0
2.0,58.0,46.0,60.0
2.0,54.0,27.0,16.0
2.0,63.0,47.0,10.0
2.0,61.0,56.0,588.0
2.0,34.0,77.0,64.0
2.0,53.0,46.0,18.0
2.0,35.0,59.0,20.0
2.0,54.0,35.0,62.0
2.0,59.0,53.0,0.0
2.0,63.0,62.0,6.0
2.0,66.0,53.0,450.0
2.0,37.0,72.0,10.0
2.0,61.0,66.0,0.0
2.0,56.0,52.0,10.0
2.0,65.0,61.0,192.0
2.0,66.0,59.0,166.0
2.0,42.0,59.0,4.0
2.0,58.0,38.0,2.0
2.0,51.0,30.0,424.0
2.0,58.0,42.0,0.0
2.0,66.0,50.0,8.0
2.0,39.0,40.0,0.0
2.0,63.0,53.0,0.0
2.0,63.0,56.0,258.0
2.0,66.0,46.0,8.0
2.0,59.0,52.0,6.0
2.0,47.0,30.0,12.0
2.0,35.0,47.0,16.0
2.0,37.0,51.0,350.0
2.0,49.0,35.0,8.0
2.0,65.0,42.0,8.0
2.0,61.0,55.0,2.0
2.0,56.0,43.0,6.0
2.0,65.0,35.0,310.0
2.0,61.0,52.0,4.0
2.0,58.0,55.0,2.0
2.0,46.0,29.0,6.0
2.0,34.0,44.0,0.0
2.0,47.0,53.0,414.0
2.0,63.0,65.0,6.0
2.0,35.0,54.0,6.0
2.0,66.0,53.0,4.0
2.0,59.0,46.0,2.0
2.0,63.0,57.0,384.0
2.0,32.0,59.0,2.0
2.0,44.0,49.0,4.0
2.0,66.0,45.0,0.0
2.0,59.0,61.0,2.0
2.0,56.0,38.0,4.0
2.0,49.0,43.0,222.0
2.0,61.0,46.0,0.0
2.0,68.0,52.0,6.0
2.0,65.0,62.0,6.0
2.0,61.0,56.0,252.0
2.0,58.0,49.0,14.0
2.0,65.0,32.0,2.0
2.0,34.0,37.0,8.0
2.0,46.0,22.0,0.0
2.0,39.0,66.0,122.0
2.0,63.0,56.0,2.0
2.0,58.0,55.0,14.0
2.0,66.0,57.0,6.0
2.0,51.0,42.0,24.0
2.0,66.0,33.0,66.0
2.0,63.0,60.0,4.0
2.0,35.0,60.0,2.0
2.0,59.0,60.0,8.0
2.0,47.0,19.0,12.0
2.0,65.0,60.0,234.0
2.0,37.0,58.0,6.0
2.0,61.0,69.0,0.0
2.0,56.0,59.0,8.0
2.0,49.0,62.0,18.0
2.0,58.0,52.0,140.0
2.0,61.0,57.0,4.0
2.0,65.0,57.0,10.0
2.0,34.0,57.0,6.0
2.0,46.0,50.0,12.0
2.0,66.0,57.0,200.0
2.0,63.0,63.0,4.0
2.0,47.0,55.0,6.0
2.0,59.0,56.0,6.0
2.0,35.0,45.0,10.0
2.0,56.0,58.0,168.0
2.0,37.0,63.0,8.0
2.0,61.0,56.0,0.0
2.0,65.0,56.0,6.0
2.0,49.0,62.0,6.0
2.0,61.0,54.0,176.0
2.0,65.0,49.0,0.0
2.0,58.0,45.0,2.0
2.0,34.0,47.0,8.0
2.0,46.0,44.0,12.0
2.0,35.0,57.0,144.0
2.0,63.0,61.0,14.0
2.0,66.0,60.0,2.0
2.0,59.0,59.0,10.0
2.0,47.0,44.0,12.0
2.0,65.0,55.0,276.0
2.0,61.0,60.0,2.0
2.0,37.0,51.0,8.0
2.0,56.0,42.0,2.0
2.0,49.0,40.0,6.0
2.0,63.0,38.0,774.0
2.0,39.0,56.0,0.0
2.0,51.0,42.0,6.0
2.0,58.0,55.0,4.0
2.0,27.0,57.0,652.0
3.0,61.0,31.0,48674.0
3.0,66.0,41.0,14.0
3.0,70.0,43.0,16.0
3.0,66.0,37.0,560.0
3.0,63.0,53.0,6.0
3.0,59.0,46.0,4.0
3.0,61.0,45.0,314.0
3.0,65.0,42.0,16.0
3.0,56.0,36.0,6.0
3.0,58.0,30.0,246.0
3.0,61.0,42.0,0.0
3.0,65.0,39.0,8.0
3.0,66.0,46.0,156.0
3.0,63.0,48.0,26.0
3.0,59.0,35.0,6.0
3.0,65.0,29.0,324.0
3.0,61.0,56.0,2.0
3.0,56.0,30.0,8.0
3.0,61.0,33.0,2.0
3.0,66.0,35.0,0.0
3.0,58.0,30.0,4.0
3.0,39.0,56.0,2204.0
3.0,63.0,46.0,14.0
3.0,58.0,44.0,2.0
3.0,54.0,28.0,4.0
3.0,51.0,3.0,336.0
3.0,61.0,58.0,500.0
3.0,34.0,45.0,22.0
3.0,46.0,40.0,12.0
3.0,53.0,43.0,58.0
3.0,63.0,60.0,200.0
3.0,59.0,46.0,2.0
3.0,47.0,44.0,0.0
3.0,54.0,33.0,6.0
3.0,35.0,47.0,0.0
3.0,37.0,35.0,308.0
3.0,61.0,57.0,2.0
3.0,56.0,35.0,8.0
3.0,66.0,46.0,0.0
3.0,49.0,19.0,28.0
3.0,65.0,37.0,94.0
3.0,30.0,47.0,224.0
3.0,66.0,54.0,16.0
3.0,58.0,23.0,6.0
3.0,42.0,38.0,18.0
3.0,63.0,48.0,170.0
3.0,58.0,38.0,6.0
3.0,66.0,44.0,4.0
3.0,66.0,50.0,202.0
3.0,63.0,44.0,0.0
3.0,59.0,47.0,12.0
3.0,61.0,50.0,4.0
3.0,65.0,48.0,6.0
3.0,56.0,41.0,12.0
3.0,61.0,50.0,396.0
3.0,58.0,22.0,4.0
3.0,65.0,38.0,10.0
3.0,63.0,55.0,464.0
3.0,59.0,36.0,2.0
3.0,66.0,37.0,8.0
3.0,63.0,45.0,470.0
3.0,66.0,25.0,12.0
3.0,59.0,49.0,8.0
3.0,56.0,22.0,0.0
3.0,61.0,54.0,368.0
3.0,65.0,40.0,6.0
3.0,56.0,26.0,0.0
3.0,58.0,16.0,278.0
3.0,61.0,24.0,4.0
3.0,65.0,19.0,6.0
3.0,66.0,48.0,26.0
3.0,63.0,54.0,4.0
3.0,58.0,28.0,2.0
3.0,66.0,22.0,342.0
3.0,63.0,39.0,10.0
3.0,59.0,25.0,0.0
3.0,56.0,26.0,244.0
3.0,65.0,46.0,6.0
3.0,61.0,58.0,0.0
3.0,61.0,43.0,404.0
3.0,65.0,28.0,6.0
3.0,58.0,18.0,6.0
3.0,66.0,51.0,160.0
3.0,59.0,25.0,16.0
3.0,63.0,51.0,2.0
3.0,61.0,50.0,0.0
3.0,65.0,40.0,8.0
3.0,56.0,27.0,0.0
3.0,61.0,46.0,226.0
3.0,58.0,27.0,4.0
3.0,65.0,40.0,12.0
3.0,66.0,40.0,254.0
3.0,63.0,48.0,0.0
3.0,59.0,31.0,12.0
3.0,61.0,53.0,378.0
3.0,65.0,41.0,6.0
3.0,56.0,35.0,2.0
3.0,63.0,43.0,652.0
3.0,58.0,18.0,14.0
3.0,51.0,25.0,24.0
3.0,39.0,46.0,14.0
3.0,27.0,46.0,0.0
0.0,0.0,0.0,0.0
0.0,0.0,0.0,0.0
0.0,0.0,0.0,0.0
0.0,0.0,0.0,0.0
0.0,0.0,0.0,0.0
0.0,0.0,0.0,0.0
0.0,0.0,0.0,0.0
0.0,0.0,0.0,0.0
0.0,0.0,0.0,0.0
0.0,0.0,0.0,0.0
0.0,0.0,0.0,0.0
0.0,0.0,0.0,0.0
0.0,0.0,0.0,0.0
0.0,0.0,0.0,0.0
0.0,0.0,0.0,0.0
0.0,0.0,0.0,0.0
0.0,0.0,0.0,0.0
0.0,0.0,0.0,0.0
0.0,0.0,0.0,0.0
0.0,0.0,0.0,0.0
0.0,0.0,0.0,0.0
0.0,0.0,0.0,0.0
0.0,0.0,0.0,0.0
0.0,0.0,0.0,0.0
0.0,0.0,0.0,0.0
0.0,0.0,0.0,0.0
0.0,0.0,0.0,0.0
0.0,0.0,0.0,0.0
0.0,0.0,0.0,0.0
0.0,0.0,0.0,0.0
0.0,0.0,0.0,0.0
0.0,0.0,0.0,0.0
0.0,0.0,0.0,0.0
0.0,0.0,0.0,0.0
0.0,0.0,0.0,0.0
0.0,0.0,0.0,0.0
0.0,0.0,0.0,0.0
0.0,0.0,0.0,0.0
0.0,0.0,0.0,0.0
0.0,0.0,0.0,0.0
0.0,0.0,0.0,0.0
0.0,0.0,0.0,0.0
0.0,0.0,0.0,0.0
0.0,0.0,0.0,0.0
0.0,0.0,0.0,0.0
0.0,0.0,0.0,0.0
0.0,0.0,0.0,0.0
0.0,0.0,0.0,0.0
0.0,0.0,0.0,0.0
0.0,0.0,0.0,0.0
0.0,0.0,0.0,0.0
0.0,0.0,0.0,0.0
0.0,0.0,0.0,0.0
0.0,0.0,0.0,0.0
0.0,0.0,0.0,0.0
0.0,0.0,0.0,0.0
0.0,0.0,0.0,0.0
0.0,0.0,0.0,0.0
0.0,0.0,0.0,0.0
0.0,0.0,0.0,0.0
0.0,0.0,0.0,0.0
0.0,0.0,0.0,0.0
0.0,0.0,0.0,0.0
0.0,0.0,0.0,0.0
0.0,0.0,0.0,0.0
0.0,0.0,0.0,0.0
0.0,0.0,0.0,0.0
0.0,0.0,0.0,0.0
0.0,0.0,0.0,0.0
0.0,0.0,0.0,0.0
0.0,0.0,0.0,0.0
0.0,0.0,0.0,0.0
0.0,0.0,0.0,0.0
0.0,0.0,0.0,0.0
0.0,0.0,0.0,0.0
0.0,0.0,0.0,0.0
0.0,0.0,0.0,0.0
0.0,0.0,0.0,0.0
0.0,0.0,0.0,0.0
0.0,0.0,0.0,0.0
0.0,0.0,0.0,0.0
0.0,0.0,0.0,0.0
0.0,0.0,0.0,0.0
0.0,0.0,0.0,0.0
0.0,0.0,0.0,0.0
0.0,0.0,0.0,0.0
0.0,0.0,0.0,0.0
0.0,0.0,0.0,0.0
0.0,0.0,0.0,0.0
0.0,0.0,0.0,0.0
0.0,0.0,0.0,0.0
0.0,0.0,0.0,0.0
0.0,0.0,0.0,0.0
0.0,0.0,0.0,0.0
0.0,0.0,0.0,0.0
0.0,0.0,0.0,0.0
0.0,0.0,0.0,0.0
0.0,0.0,0.0,0.0
0.0,0.0,0.0,0.0
0.0,0.0,0.0,0.0
0.0,0.0,0.0,0.0
0.0,0.0,0.0,0.0
0.0,0.0,0.0,0.0
0.0,0.0,0.0,0.0
0.0,0.0,0.0,0.0
0.0,0.0,0.0,0.0
0.0,0.0,0.0,0.0
0.0,0.0,0.0,0.0
0.0,0.0,0.0,0.0
0.0,0.0,0.0,0.0
0.0,0.0,0.0,0.0
0.0,0.0,0.0,0.0
0.0,0.0,0.0,0.0
0.0,0.0,0.0,0.0
0.0,0.0,0.0,0.0
0.0,0.0,0.0,0.0
0.0,0.0,0.0,0.0
0.0,0.0,0.0,0.0
0.0,0.0,0.0,0.0
0.0,0.0,0.0,0.0
0.0,0.0,0.0,0.0
0.0,0.0,0.0,0.0
0.0,0.0,0.0,0.0
0.0,0.0,0.0,0.0
0.0,0.0,0.0,0.0
0.0,0.0,0.0,0.0
0.0,0.0,0.0,0.0
0.0,0.0,0.0,0.0
0.0,0.0,0.0,0.0
0.0,0.0,0.0,0.0
0.0,0.0,0.0,0.0
0.0,0.0,0.0,0.0
0.0,0.0,0.0,0.0
0.0,0.0,0.0,0.0
0.0,0.0,0.0,0.0
0.0,0.0,0.0,0.0
0.0,0.0,0.0,0.0
0.0,0.0,0.0,0.0
0.0,0.0,0.0,0.0
0.0,0.0,0.0,0.0
0.0,0.0,0.0,0.0
0.0,0.0,0.0,0.0
0.0,0.0,0.0,0.0
0.0,0.0,0.0,0.0
0.0,0.0,0.0,0.0
0.0,0.0,0.0,0.0
0.0,0.0,0.0,0.0
0.0,0.0,0.0,0.0
0.0,0.0,0.0,0.0
0.0,0.0,0.0,0.0
0.0,0.0,0.0,0.0
0.0,0.0,0.0,0.0
0.0,0.0,0.0,0.0
0.0,0.0,0.0,0.0
0.0,0.0,0.0,0.0
0.0,0.0,0.0,0.0
0.0,0.0,0.0,0.0
0.0,0.0,0.0,0.0
0.0,0.0,0.0,0.0
0.0,0.0,0.0,0.0
0.0,0.0,0.0,0.0
0.0,0.0,0.0,0.0
0.0,0.0,0.0,0.0
0.0,0.0,0.0,0.0
0.0,0.0,0.0,0.0
0.0,0.0,0.0,0.0
0.0,0.0,0.0,0.0
0.0,0.0,0.0,0.0
0.0,0.0,0.0,0.0
0.0,0.0,0.0,0.0
0.0,0.0,0.0,0.0
0.0,0.0,0.0,0.0
0.0,0.0,0.0,0.0
0.0,0.0,0.0,0.0
0.0,0.0,0.0,0.0
0.0,0.0,0.0,0.0
0.0,0.0,0.0,0.0
0.0,0.0,0.0,0.0
0.0,0.0,0.0,0.0
0.0,0.0,0.0,0.0
0.0,0.0,0.0,0.0
0.0,0.0,0.0,0.0
0.0,0.0,0.0,0.0
0.0,0.0,0.0,0.0
0.0,0.0,0.0,0.0
0.0,0.0,0.0,0.0
0.0,0.0,0.0,0.0
0.0,0.0,0.0,0.0
0.0,0.0,0.0,0.0
0.0,0.0,0.0,0.0
0.0,0.0,0.0,0.0
0.0,0.0,0.0,0.0
0.0,0.0,0.0,0.0
0.0,0.0,0.0,0.0
0.0,0.0,0.0,0.0
0.0,0.0,0.0,0.0
0.0,0.0,0.0,0.0
0.0,0.0,0.0,0.0
0.0,0.0,0.0,0.0
0.0,0.0,0.0,0.0
0.0,0.0,0.0,0.0
0.0,0.0,0.0,0.0
0.0,0.0,0.0,0.0
0.0,0.0,0.0,0.0
0.0,0.0,0.0,0.0
0.0,0.0,0.0,0.0
0.0,0.0,0.0,0.0
0.0,0.0,0.0,0.0
0.0,0.0,0.0,0.0
0.0,0.0,0.0,0.0
