track,note,velocity,time
1,39,67,2304
1,51,81,0
1,54,82,0
1,63,81,0
1,58,85,0
1,34,77,4
1,58,75,0
1,53,73,0
1,46,66,0
1,61,72,0
1,61,84,4
1,58,74,0
1,54,85,0
1,30,45,0
1,42,34,0
1,53,69,4
1,34,91,0
1,46,4,0
1,58,25,0
1,62,79,0
1,55,15,4
1,39,71,0
1,51,22,0
1,58,55,0
1,63,72,0
1,32,85,0
1,56,64,0
1,60,70,0
1,44,66,0
1,63,13,0
1,63,52,4
1,58,81,0
1,55,60,0
1,51,55,0
1,39,28,0
1,63,53,4
1,44,40,0
1,32,66,0
1,56,67,0
1,60,79,0
1,63,52,0
1,58,81,0
1,55,60,0
1,51,55,0
1,39,28,0
1,63,53,4
1,44,40,0
1,32,66,0
1,56,67,0
1,60,79,0
1,63,52,0
1,58,81,0
1,55,60,0
1,51,55,0
1,39,28,0
1,63,53,4
1,44,40,0
1,32,66,0
1,56,67,0
1,60,79,0
1,63,52,0
1,58,81,0
1,55,60,0
1,51,55,0
1,39,28,0
1,63,53,4
1,44,40,0
1,32,66,0
1,56,67,0
1,60,79,0
1,63,52,0
1,58,81,0
1,55,60,0
1,51,55,0
1,39,28,0
1,63,53,4
1,44,40,0
1,32,66,0
1,56,67,0
1,60,79,0
1,63,64,0
1,58,81,0
1,55,60,0
1,51,55,0
1,39,28,0
1,63,53,4
1,44,40,0
1,32,66,0
1,56,67,0
1,60,79,0
1,63,52,0
1,58,81,0
1,55,60,0
1,51,55,0
1,39,28,0
1,63,53,4
1,44,40,0
1,32,66,0
1,56,67,0
1,60,79,0
1,36,85,0
1,55,88,0
1,63,85,0
1,43,73,4
1,55,73,0
1,62,104,0
1,44,80,0
1,63,40,0
1,56,80,0
1,46,95,4
1,58,95,0
1,65,80,0
1,36,88,4
1,63,63,0
1,55,88,0
1,55,108,4
1,43,108,0
1,62,92,0
1,46,78,4
1,58,78,0
1,65,89,0
1,63,52,4
1,55,60,0
1,39,28,0
1,63,53,4
1,32,66,0
1,56,67,0
1,63,52,4
1,55,60,0
1,39,28,0
1,63,53,4
1,32,66,0
1,56,67,0
1,63,64,4
1,55,60,0
1,39,28,0
1,63,53,4
1,32,66,0
1,56,67,0
1,63,52,4
1,55,60,0
1,39,28,0
1,63,53,4
1,32,66,0
1,56,67,0
1,36,85,4
1,55,88,0
1,63,85,0
1,43,73,4
1,55,73,0
1,62,104,0
1,44,80,0
1,63,40,0
1,56,80,0
1,46,95,4
1,58,95,0
1,65,80,0
1,36,88,4
1,63,63,0
1,55,88,0
1,55,108,4
1,43,108,0
1,62,92,0
1,46,78,4
1,58,78,0
1,65,89,0
1,63,52,96
1,55,60,0
1,39,28,0
1,63,53,4
1,32,66,0
1,56,67,0
1,63,52,4
1,55,60,0
1,39,28,0
1,63,53,4
1,32,66,0
1,56,67,0
1,63,64,4
1,55,60,0
1,39,28,0
1,63,53,4
1,32,66,0
1,56,67,0
1,63,52,4
1,55,60,0
1,39,28,0
1,63,53,4
1,32,66,0
1,56,67,0
1,63,52,18436
1,55,60,0
1,39,28,0
1,63,53,4
1,32,66,0
1,56,67,0
1,63,52,4
1,55,60,0
1,39,28,0
1,63,53,4
1,32,66,0
1,56,67,0
1,63,64,4
1,55,60,0
1,39,28,0
1,63,53,4
1,32,66,0
1,56,67,0
1,63,52,4
1,55,60,0
1,39,28,0
1,63,53,4
1,32,66,0
1,56,67,0
1,36,85,4
1,55,88,0
1,63,85,0
1,43,73,4
1,55,73,0
1,62,104,0
1,44,80,0
1,63,40,0
1,56,80,0
1,46,95,4
1,58,95,0
1,65,80,0
1,36,88,4
1,63,63,0
1,55,88,0
1,55,108,4
1,43,108,0
1,62,92,0
1,46,78,4
1,58,78,0
1,65,89,0
1,63,52,96
1,55,60,0
1,39,28,0
1,63,53,4
1,32,66,0
1,56,67,0
1,63,52,4
1,55,60,0
1,39,28,0
1,63,53,4
1,32,66,0
1,56,67,0
1,63,64,4
1,55,60,0
1,39,28,0
1,63,53,4
1,32,66,0
1,56,67,0
1,63,52,4
1,55,60,0
1,39,28,0
1,63,53,4
1,32,66,0
1,56,67,0
1,63,52,9220
1,55,60,0
1,39,28,0
1,63,53,4
1,32,66,0
1,56,67,0
1,63,52,4
1,55,60,0
1,39,28,0
1,63,53,4
1,32,66,0
1,56,67,0
1,63,64,4
1,55,60,0
1,39,28,0
1,63,53,4
1,32,66,0
1,56,67,0
1,63,52,4
1,55,60,0
1,39,28,0
1,63,53,4
1,32,66,0
1,56,67,0
1,63,52,4
1,55,60,0
1,39,28,0
1,63,53,4
1,32,66,0
1,56,67,0
1,63,52,4
1,55,60,0
1,39,28,0
1,63,53,4
1,32,66,0
1,56,67,0
1,63,64,4
1,55,60,0
1,39,28,0
1,63,53,4
1,32,66,0
1,56,67,0
1,63,52,4
1,55,60,0
1,39,28,0
1,63,53,4
1,32,66,0
1,56,67,0
1,63,110,4
1,55,110,0
1,39,110,0
2,55,102,8
2,58,102,8
2,60,102,8
2,63,102,14
2,55,97,14
2,58,102,14
2,60,101,10
2,58,102,20
2,55,102,8
2,58,102,8
2,60,102,8
2,63,102,14
2,55,97,14
2,58,102,14
2,60,101,10
2,58,102,20
2,55,102,8
2,58,102,8
2,60,102,8
2,63,102,14
2,55,97,14
2,58,102,14
2,60,101,10
2,58,102,20
2,55,102,8
2,58,102,8
2,60,102,8
2,63,102,14
2,55,97,14
2,58,102,14
2,60,101,10
2,58,102,20
2,63,113,26
2,62,106,16
2,58,108,32
2,55,106,26
2,58,105,26
2,60,104,26
2,62,102,4
2,63,102,42
2,62,101,32
2,58,103,26
2,55,106,16
2,58,104,16
2,62,102,26
2,63,105,4
2,44,70,8
2,51,59,0
2,56,69,0
2,51,61,0
2,60,62,0
2,51,63,0
2,44,68,0
2,51,58,0
2,56,71,0
2,51,61,0
2,46,67,100
2,53,61,0
2,48,57,84
2,55,59,0
2,60,70,0
2,55,63,0
2,60,72,0
2,55,66,0
2,43,70,32
2,50,63,0
2,55,70,0
2,50,61,0
2,55,79,0
2,50,63,0
2,46,75,20
2,53,57,0
2,58,66,0
2,53,56,0
2,62,58,0
2,53,62,0
2,46,63,26
2,53,60,0
2,58,75,0
2,53,61,0
2,62,78,0
2,53,64,0
3,39,63,16128
3,46,55,0
3,51,66,0
3,46,61,0
3,51,72,0
3,46,58,0
3,44,64,64
3,51,55,0
3,56,60,0
3,51,56,0
3,56,60,4
3,51,68,0
3,39,63,52
3,46,55,0
3,51,66,0
3,46,61,0
3,51,72,0
3,46,58,0
3,44,64,64
3,51,55,0
3,56,60,0
3,51,56,0
3,56,60,4
3,51,68,0
3,39,63,52
3,46,55,0
3,51,66,0
3,46,61,0
3,51,72,0
3,46,58,0
3,44,64,64
3,51,55,0
3,56,60,0
3,51,56,0
3,56,60,4
3,51,68,0
3,39,63,52
3,46,55,0
3,51,66,0
3,46,61,0
3,51,72,0
3,46,58,0
3,44,64,64
3,51,55,0
3,56,60,0
3,51,56,0
3,56,60,4
3,51,68,0
3,39,63,52
3,46,55,0
3,51,66,0
3,55,68,0
3,67,82,0
3,46,61,0
3,51,72,0
3,70,64,0
3,58,76,0
3,46,58,0
3,44,64,64
3,72,82,0
3,60,75,0
3,51,55,0
3,56,60,0
3,51,56,0
3,56,60,4
3,63,78,0
3,75,81,0
3,51,68,0
3,39,63,52
3,46,55,0
3,51,66,0
3,55,72,0
3,67,80,0
3,46,61,0
3,51,72,0
3,58,74,0
3,70,72,0
3,46,58,0
3,44,64,64
3,60,75,0
3,72,76,0
3,51,55,0
3,56,60,0
3,51,56,0
3,56,60,4
3,58,72,0
3,70,72,0
3,51,68,0
3,39,63,52
3,46,55,0
3,51,66,0
3,55,68,0
3,67,80,0
3,46,61,0
3,51,72,0
3,58,85,0
3,70,76,0
3,46,58,0
3,44,64,64
3,60,68,0
3,72,84,0
3,51,55,0
3,56,60,0
3,51,56,0
3,56,60,4
3,63,68,0
3,75,84,0
3,51,68,0
3,39,63,52
3,46,55,0
3,51,66,0
3,55,68,0
3,67,78,0
3,46,61,0
3,51,72,0
3,58,81,0
3,70,72,0
3,46,58,0
3,44,64,64
3,60,68,0
3,72,76,0
3,51,55,0
3,56,60,0
3,51,56,0
3,56,60,4
3,70,72,0
3,58,76,0
3,51,68,0
3,48,61,52
3,55,60,0
3,60,73,0
3,75,89,0
3,63,86,0
3,55,61,0
3,60,59,0
3,74,81,0
3,62,81,0
3,55,63,0
3,43,69,100
3,70,85,0
3,58,83,0
3,50,59,0
3,55,74,0
3,55,81,0
3,67,81,0
3,50,63,0
3,55,70,0
3,58,68,0
3,70,76,0
3,50,60,0
3,44,70,100
3,60,64,0
3,72,83,0
3,51,59,0
3,56,69,0
3,51,61,0
3,56,62,0
3,51,63,0
3,44,68,0
3,51,58,0
3,56,71,0
3,51,61,0
3,46,67,4
3,62,78,0
3,74,85,0
3,53,61,0
3,48,57,84
3,55,59,0
3,60,70,0
3,63,74,0
3,75,83,0
3,55,63,0
3,60,72,0
3,62,72,0
3,74,81,0
3,55,66,0
3,43,70,32
3,58,72,0
3,70,80,0
3,50,63,0
3,55,70,0
3,55,81,0
3,67,81,0
3,50,61,0
3,55,79,0
3,58,72,0
3,70,72,0
3,50,63,0
3,46,75,20
3,62,78,0
3,74,87,0
3,53,57,0
3,58,66,0
3,53,56,0
3,58,58,0
3,53,62,0
3,46,63,26
3,53,60,0
3,58,75,0
3,53,61,0
3,58,78,0
3,63,80,0
3,75,80,0
3,53,64,0
3,39,63,16
3,46,55,0
3,51,66,0
3,55,72,0
3,67,87,0
3,46,61,0
3,51,72,0
3,70,68,0
3,58,80,0
3,46,58,0
3,44,64,64
3,72,87,0
3,60,79,0
3,51,55,0
3,56,60,0
3,51,56,0
3,56,60,4
3,63,83,0
3,75,86,0
3,51,68,0
3,39,63,52
3,46,55,0
3,51,66,0
3,55,76,0
3,67,85,0
3,46,61,0
3,51,72,0
3,58,78,0
3,70,76,0
3,46,58,0
3,44,64,64
3,60,79,0
3,72,81,0
3,51,55,0
3,56,60,0
3,51,56,0
3,56,60,4
3,58,76,0
3,70,76,0
3,51,68,0
3,39,63,52
3,46,55,0
3,51,66,0
3,55,72,0
3,67,85,0
3,46,61,0
3,51,72,0
3,58,90,0
3,70,81,0
3,46,58,0
3,44,64,64
3,60,72,0
3,72,89,0
3,51,55,0
3,56,60,0
3,51,56,0
3,56,60,4
3,63,72,0
3,75,89,0
3,51,68,0
3,39,63,52
3,46,55,0
3,51,66,0
3,55,72,0
3,67,83,0
3,46,61,0
3,51,72,0
3,58,86,0
3,70,76,0
3,46,58,0
3,44,64,64
3,60,72,0
3,72,81,0
3,51,55,0
3,56,60,0
3,51,56,0
3,56,60,4
3,70,76,0
3,58,81,0
3,51,68,0
3,48,61,52
3,55,60,0
3,60,73,0
3,75,89,0
3,63,86,0
3,55,61,0
3,60,59,0
3,74,81,0
3,62,81,0
3,55,63,0
3,43,69,100
3,70,85,0
3,58,83,0
3,50,59,0
3,55,74,0
3,55,81,0
3,67,81,0
3,50,63,0
3,55,70,0
3,58,68,0
3,70,76,0
3,50,60,0
3,44,70,100
3,60,64,0
3,72,83,0
3,51,59,0
3,56,69,0
3,51,61,0
3,56,62,0
3,51,63,0
3,44,68,0
3,51,58,0
3,56,71,0
3,51,61,0
3,46,67,4
3,62,78,0
3,74,85,0
3,53,61,0
3,48,57,84
3,55,59,0
3,60,70,0
3,63,74,0
3,75,83,0
3,55,63,0
3,60,72,0
3,62,72,0
3,74,81,0
3,55,66,0
3,43,70,32
3,58,72,0
3,70,80,0
3,50,63,0
3,55,70,0
3,55,81,0
3,67,81,0
3,50,61,0
3,55,79,0
3,58,72,0
3,70,72,0
3,50,63,0
3,46,75,20
3,62,78,0
3,74,87,0
3,53,57,0
3,58,66,0
3,53,56,0
3,58,58,0
3,53,62,0
3,46,63,26
3,53,60,0
3,58,75,0
3,53,61,0
3,58,78,0
3,63,80,0
3,75,80,0
3,53,64,0
3,39,63,16
3,46,55,0
3,51,66,0
3,55,72,0
3,67,87,0
3,46,61,0
3,51,72,0
3,70,68,0
3,58,80,0
3,46,58,0
3,44,64,64
3,72,87,0
3,60,79,0
3,51,55,0
3,56,60,0
3,51,56,0
3,56,60,4
3,63,83,0
3,75,86,0
3,51,68,0
3,39,63,52
3,46,55,0
3,51,66,0
3,55,76,0
3,67,85,0
3,46,61,0
3,51,72,0
3,58,78,0
3,70,76,0
3,46,58,0
3,44,64,64
3,60,79,0
3,72,81,0
3,51,55,0
3,56,60,0
3,51,56,0
3,56,60,4
3,58,76,0
3,70,76,0
3,51,68,0
3,39,63,52
3,46,55,0
3,51,66,0
3,55,72,0
3,67,85,0
3,46,61,0
3,51,72,0
3,58,90,0
3,70,81,0
3,46,58,0
3,44,64,64
3,60,72,0
3,72,89,0
3,51,55,0
3,56,60,0
3,51,56,0
3,56,60,4
3,63,72,0
3,75,89,0
3,51,68,0
3,39,63,52
3,46,55,0
3,51,66,0
3,55,72,0
3,67,83,0
3,46,61,0
3,51,72,0
3,58,86,0
3,70,76,0
3,46,58,0
3,44,64,64
3,60,72,0
3,72,81,0
3,51,55,0
3,56,60,0
3,51,56,0
3,56,60,4
3,70,76,0
3,58,81,0
3,51,68,0
3,58,84,28
3,43,62,24
3,70,65,0
3,50,53,4
3,55,64,192
3,55,77,0
3,67,73,0
3,50,56,4
3,55,67,10
3,58,71,0
3,70,71,0
3,50,54,4
3,44,52,78
3,60,60,0
3,72,75,0
3,51,56,184
3,56,68,170
3,51,58,180
3,56,67,0
3,56,68,0
3,68,65,0
3,51,61,4
3,39,64,112
3,55,64,0
3,67,70,0
3,46,53,4
3,51,59,0
3,51,72,0
3,63,71,0
3,46,53,4
3,51,64,0
3,55,68,0
3,67,75,0
3,46,54,4
3,34,71,112
3,65,72,0
3,53,67,0
3,41,52,4
3,46,65,192
3,50,72,0
3,62,67,0
3,41,58,4
3,46,67,170
3,53,64,0
3,65,73,0
3,41,48,4
3,43,61,80
3,70,71,0
3,58,74,0
3,50,64,176
3,55,72,164
3,50,61,0
3,55,68,174
3,70,69,0
3,58,74,0
3,50,59,4
3,36,59,120
3,63,74,0
3,51,72,0
3,43,51,186
3,48,76,4
3,43,64,0
3,48,68,170
3,63,67,0
3,51,85,0
3,43,64,4
3,41,57,106
3,68,68,0
3,56,83,0
3,48,61,184
3,53,64,168
3,48,62,0
3,53,67,0
3,68,71,0
3,56,63,0
3,48,58,4
3,34,76,96
3,62,58,0
3,50,49,0
3,41,47,4
3,46,71,4
3,41,59,0
3,46,72,192
3,50,67,0
3,62,73,0
3,41,60,4
3,43,72,104
3,70,71,0
3,58,76,0
3,50,59,4
3,55,69,158
3,67,67,0
3,55,76,0
3,50,63,4
3,55,64,176
3,70,71,0
3,58,65,0
3,50,56,4
3,44,62,46
3,60,67,0
3,72,69,0
3,51,61,176
3,56,71,176
3,51,64,184
3,56,72,0
3,56,68,0
3,68,72,0
3,51,67,4
3,39,67,120
3,67,67,0
3,55,69,0
3,46,65,4
3,51,79,122
3,51,74,0
3,63,68,0
3,46,59,0
3,51,71,192
3,67,68,0
3,55,67,0
3,46,57,4
3,34,77,120
3,53,72,0
3,65,64,0
3,41,56,4
3,46,72,184
3,62,66,0
3,50,72,0
3,41,59,4
3,46,77,192
3,53,69,0
3,65,72,0
3,41,60,4
3,43,72,84
3,58,76,0
3,70,76,0
3,50,56,4
3,55,60,136
3,55,77,0
3,67,78,0
3,50,59,4
3,55,66,176
3,58,77,0
3,70,80,0
3,50,57,4
3,44,67,30
3,60,79,0
3,72,80,0
3,51,67,4
3,56,63,152
3,56,82,0
3,68,81,0
3,51,60,4
3,56,68,186
3,60,83,0
3,72,84,0
3,51,65,4
3,46,69,24
3,63,89,0
3,75,86,0
3,53,58,4
3,58,69,176
3,62,93,0
3,74,93,0
3,53,57,4
3,58,63,0
3,58,88,0
3,70,86,0
3,53,59,4
