track,note,velocity,time
3,33,80,7180
3,30,80,1
3,26,80,1
3,26,0,479
3,28,80,1
3,33,80,1
3,35,80,1
3,26,80,1
3,26,0,479
3,28,80,1
3,33,80,1
3,30,80,1
3,26,80,1
3,23,80,1
3,28,80,1
3,30,80,1
3,26,80,1
3,23,80,1
3,21,80,1
3,33,80,6361
3,30,80,1
3,26,80,1
3,26,0,479
3,28,80,1
3,33,80,1
3,35,80,1
3,26,80,1
3,26,0,479
3,28,80,1
3,33,80,1
3,30,80,1
3,26,80,1
3,23,80,1
3,28,80,1
3,30,80,1
3,26,80,1
3,23,80,1
3,21,80,1
3,20,80,1
3,30,80,1
3,26,80,1
3,23,80,1
3,28,80,1
3,21,80,30
4,30,100,330
4,42,100,0
4,49,100,0
4,54,100,0
4,57,100,0
4,61,100,0
4,66,100,0
4,54,100,1
4,61,100,0
4,66,100,0
4,69,100,0
4,54,0,479
4,61,0,0
4,50,100,1
4,62,100,0
4,62,0,479
4,66,0,0
4,69,0,0
4,50,0,0
4,49,100,1
4,57,100,0
4,64,100,0
4,69,100,0
4,69,0,479
4,64,0,0
4,57,0,0
4,49,0,0
4,47,100,1
4,56,100,0
4,64,100,0
4,68,100,0
4,47,0,599
4,68,0,0
4,64,0,0
4,56,0,0
4,49,100,1
4,61,100,0
4,66,100,0
4,69,100,0
4,61,0,479
4,49,0,0
4,50,100,1
4,62,100,0
4,62,0,479
4,66,0,0
4,69,0,0
4,50,0,0
4,49,100,1
4,57,100,0
4,64,100,0
4,69,100,0
4,69,0,479
4,49,0,0
4,57,0,0
4,64,0,0
4,47,100,1
4,56,100,0
4,64,100,0
4,68,100,0
4,47,0,599
4,56,0,0
4,68,0,0
4,64,0,0
4,50,100,1
4,57,100,0
4,62,100,0
4,64,100,0
4,66,100,0
4,57,0,479
4,50,0,0
4,66,0,0
4,62,0,0
4,49,100,1
4,57,100,0
4,61,100,0
4,57,0,479
4,64,0,0
4,61,0,0
4,49,0,0
4,47,100,1
4,54,100,0
4,59,100,0
4,62,100,0
4,66,100,0
4,62,0,479
4,66,0,0
4,47,0,0
4,59,0,0
4,54,0,0
4,40,100,1
4,52,100,0
4,57,100,0
4,59,100,0
4,64,100,0
4,57,0,359
4,56,100,1
4,56,0,479
4,59,0,0
4,40,0,0
4,64,0,0
4,52,0,0
4,45,100,1
4,57,100,0
4,61,100,0
4,64,100,0
4,64,0,479
4,45,0,0
4,42,100,1
4,66,100,0
4,42,0,479
4,61,0,0
4,38,100,1
4,62,100,0
4,64,100,0
4,66,0,479
4,38,0,0
4,62,0,0
4,40,100,1
4,52,100,0
4,59,100,0
4,57,0,239
4,56,100,1
4,59,0,239
4,52,0,120
4,64,0,0
4,40,0,0
4,56,0,0
4,45,100,1
4,49,100,0
4,57,100,0
4,61,100,0
4,64,100,0
4,45,0,479
4,49,0,0
4,61,0,0
4,57,0,0
4,47,100,1
4,56,100,0
4,59,100,0
4,62,100,0
4,64,0,479
4,47,0,0
4,56,0,0
4,38,100,1
4,54,100,0
4,57,100,0
4,59,0,479
4,54,0,0
4,57,0,0
4,62,0,0
4,38,0,0
4,40,100,1
4,57,100,0
4,59,100,0
4,64,100,0
4,57,0,239
4,56,100,1
4,56,0,239
4,59,0,0
4,40,0,0
4,64,0,0
4,45,100,1
4,57,100,0
4,61,100,0
4,64,100,0
4,64,0,479
4,45,0,0
4,42,100,1
4,66,100,0
4,42,0,479
4,61,0,0
4,38,100,1
4,62,100,0
4,64,100,0
4,66,0,479
4,38,0,0
4,62,0,0
4,35,100,1
4,47,100,0
4,59,100,0
4,35,0,239
4,47,0,0
4,57,0,0
4,40,100,1
4,52,100,0
4,56,100,0
4,59,0,239
4,56,0,120
4,40,0,0
4,64,0,0
4,52,0,0
4,42,100,1
4,49,100,0
4,57,100,0
4,61,100,0
4,66,100,0
4,49,0,479
4,57,0,0
4,61,0,0
4,42,0,0
4,38,100,1
4,50,100,0
4,57,100,0
4,62,100,0
4,64,100,0
4,66,0,479
4,50,0,0
4,38,0,0
4,35,100,1
4,54,100,0
4,59,100,0
4,57,0,239
4,56,100,1
4,54,0,239
4,62,0,0
4,35,0,120
4,64,0,0
4,56,0,0
4,59,0,0
4,45,100,1
4,52,100,0
4,57,100,0
4,61,100,0
4,64,100,0
4,57,0,959
4,52,0,0
4,45,0,0
4,61,0,0
4,64,0,0
4,54,100,1
4,61,100,0
4,66,100,0
4,69,100,0
4,61,0,479
4,54,0,0
4,50,100,1
4,62,100,0
4,62,0,479
4,69,0,0
4,50,0,0
4,66,0,0
4,49,100,1
4,57,100,0
4,64,100,0
4,69,100,0
4,64,0,479
4,69,0,0
4,57,0,0
4,49,0,0
4,47,100,1
4,56,100,0
4,64,100,0
4,68,100,0
4,47,0,599
4,68,0,0
4,64,0,0
4,56,0,0
4,49,100,1
4,61,100,0
4,66,100,0
4,69,100,0
4,61,0,479
4,49,0,0
4,50,100,1
4,62,100,0
4,62,0,479
4,66,0,0
4,69,0,0
4,50,0,0
4,49,100,1
4,57,100,0
4,64,100,0
4,69,100,0
4,69,0,479
4,49,0,0
4,57,0,0
4,64,0,0
4,47,100,1
4,56,100,0
4,64,100,0
4,68,100,0
4,47,0,599
4,56,0,0
4,68,0,0
4,64,0,0
4,50,100,1
4,57,100,0
4,62,100,0
4,64,100,0
4,66,100,0
4,57,0,479
4,50,0,0
4,66,0,0
4,62,0,0
4,49,100,1
4,57,100,0
4,61,100,0
4,57,0,479
4,64,0,0
4,61,0,0
4,49,0,0
4,47,100,1
4,54,100,0
4,59,100,0
4,62,100,0
4,66,100,0
4,62,0,479
4,66,0,0
4,47,0,0
4,59,0,0
4,54,0,0
4,40,100,1
4,52,100,0
4,57,100,0
4,59,100,0
4,64,100,0
4,57,0,359
4,56,100,1
4,56,0,479
4,59,0,0
4,40,0,0
4,64,0,0
4,52,0,0
4,45,100,1
4,57,100,0
4,61,100,0
4,64,100,0
4,64,0,479
4,45,0,0
4,42,100,1
4,66,100,0
4,42,0,479
4,61,0,0
4,38,100,1
4,62,100,0
4,64,100,0
4,66,0,479
4,38,0,0
4,62,0,0
4,40,100,1
4,52,100,0
4,59,100,0
4,57,0,239
4,56,100,1
4,59,0,239
4,52,0,120
4,64,0,0
4,40,0,0
4,56,0,0
4,45,100,1
4,49,100,0
4,57,100,0
4,61,100,0
4,64,100,0
4,45,0,479
4,49,0,0
4,61,0,0
4,57,0,0
4,47,100,1
4,56,100,0
4,59,100,0
4,62,100,0
4,64,0,479
4,47,0,0
4,56,0,0
4,38,100,1
4,54,100,0
4,57,100,0
4,59,0,479
4,54,0,0
4,57,0,0
4,62,0,0
4,38,0,0
4,40,100,1
4,57,100,0
4,59,100,0
4,64,100,0
4,57,0,239
4,56,100,1
4,56,0,239
4,59,0,0
4,40,0,0
4,64,0,0
4,45,100,1
4,57,100,0
4,61,100,0
4,64,100,0
4,64,0,479
4,45,0,0
4,42,100,1
4,66,100,0
4,42,0,479
4,61,0,0
4,38,100,1
4,62,100,0
4,64,100,0
4,66,0,479
4,38,0,0
4,62,0,0
4,35,100,1
4,47,100,0
4,59,100,0
4,35,0,239
4,47,0,0
4,57,0,0
4,40,100,1
4,52,100,0
4,56,100,0
4,59,0,239
4,52,0,120
4,64,0,0
4,40,0,0
4,56,0,0
4,42,100,1
4,49,100,0
4,57,100,0
4,61,100,0
4,66,100,0
4,42,0,479
4,49,0,0
4,57,0,0
4,61,0,0
4,38,100,1
4,50,100,0
4,57,100,0
4,62,100,0
4,64,100,0
4,38,0,479
4,66,0,0
4,50,0,0
4,35,100,1
4,54,100,0
4,59,100,0
4,54,0,239
4,57,0,0
4,56,100,1
4,56,0,239
4,62,0,0
4,35,0,0
4,59,0,0
4,49,100,1
4,57,100,0
4,61,100,0
4,57,0,239
4,61,0,0
4,49,0,0
4,47,100,1
4,56,100,0
4,59,100,0
4,56,0,239
4,47,0,0
4,59,0,0
4,64,0,0
4,42,100,1
4,49,100,0
4,57,100,0
4,61,100,0
4,66,100,0
4,49,0,479
4,61,0,0
4,57,0,0
4,42,0,0
4,38,100,1
4,50,100,0
4,57,100,0
4,62,100,0
4,64,100,0
4,38,0,479
4,66,0,0
4,50,0,0
4,35,100,1
4,54,100,0
4,59,100,0
4,54,0,239
4,35,0,0
4,57,0,0
4,40,100,1
4,52,100,0
4,56,100,0
4,56,0,359
4,52,0,240
4,62,0,0
4,64,0,0
4,59,0,0
4,40,0,0
4,45,100,1
4,52,100,0
4,57,100,0
4,61,100,0
4,64,100,0
5,69,86,678
5,69,86,9
5,69,0,48
5,71,92,7
5,69,0,2
5,71,92,7
5,71,0,40
5,71,0,9
5,73,96,0
5,73,96,9
5,71,86,2
5,73,0,3
5,71,86,6
5,71,0,49
5,71,0,9
5,73,96,0
5,73,96,9
5,76,92,5
5,73,0,2
5,76,92,5
5,76,0,41
5,78,92,6
5,76,0,3
5,78,92,6
5,78,96,93
5,78,96,9
5,76,96,3
5,78,0,1
5,76,96,8
5,73,92,1
5,76,0,8
5,73,92,1
5,73,0,47
5,73,0,9
5,69,92,1
5,69,92,9
5,71,75,0
5,69,0,1
5,71,75,0
5,69,0,1
5,71,0,41
5,71,0,9
5,71,89,0
5,71,89,9
5,69,100,2
5,69,100,2
5,71,100,6
5,69,0,3
5,71,100,6
5,71,0,39
5,71,0,9
5,73,100,0
5,73,100,3
5,71,96,4
5,73,0,3
5,71,96,6
5,73,0,3
5,71,0,34
5,73,96,8
5,71,0,1
5,73,96,8
5,76,105,6
5,73,0,3
5,76,105,6
5,78,105,1
5,78,105,1
5,78,105,4
5,78,105,4
5,78,0,49
5,81,83,6
5,78,0,3
5,81,83,6
5,81,0,38
5,81,0,9
5,76,96,4
5,76,96,9
5,73,96,7
5,76,0,2
5,73,96,7
5,69,92,1
5,73,0,7
5,69,92,2
5,69,0,53
5,71,83,0
5,69,0,9
5,71,83,0
5,71,0,44
5,71,89,0
5,71,89,2
5,73,100,228
5,73,100,9
5,76,96,60
5,73,0,5
5,76,96,4
5,73,0,5
5,76,0,44
5,78,100,4
5,76,0,5
5,78,100,4
5,76,105,3
5,78,0,3
5,76,105,6
5,76,0,45
5,78,105,7
5,76,0,2
5,78,105,7
5,81,100,0
5,78,0,2
5,81,100,0
5,78,0,2
5,76,100,0
5,76,100,0
5,73,100,154
5,73,100,9
5,73,0,33
5,76,92,6
5,73,0,3
5,76,92,6
5,76,0,29
5,78,105,7
5,76,0,2
5,78,105,7
5,76,86,8
5,76,86,8
5,78,0,1
5,76,0,30
5,73,86,0
5,76,0,9
5,73,86,0
5,73,0,29
5,71,86,5
5,73,0,4
5,71,86,5
5,73,96,1
5,73,96,1
5,73,0,44
5,76,89,4
5,73,0,1
5,76,89,0
5,76,96,491
5,76,96,9
5,78,105,1
5,78,105,1
5,81,100,7
5,81,100,5
5,78,0,4
5,78,100,3
5,78,100,9
5,81,110,9
5,81,110,6
5,78,0,3
5,83,105,7
5,83,105,5
5,81,0,4
5,81,105,7
5,81,105,5
5,83,0,4
5,83,77,3
5,81,0,4
5,83,77,4
5,81,0,4
5,81,80,8
5,83,0,7
5,81,80,2
5,83,0,7
5,80,77,6
5,81,0,2
5,80,77,7
5,81,0,2
5,80,96,109
5,80,96,9
5,81,105,54
5,80,0,5
5,81,105,4
5,80,0,5
5,76,96,2
5,81,0,1
5,76,96,8
5,76,96,4
5,76,96,9
5,74,75,39
5,76,0,4
5,74,75,5
5,76,0,4
5,73,92,3
5,74,0,3
5,73,92,3
5,74,0,3
5,74,105,13
5,73,0,4
5,74,105,5
5,73,0,4
5,76,105,8
5,76,105,9
5,76,89,1
5,76,0,1
5,76,89,8
5,73,96,6
5,76,0,4
5,73,96,5
5,76,0,4
5,73,0,100
5,76,86,2
5,73,0,7
5,76,86,2
5,78,100,6
5,78,100,5
5,76,0,4
5,81,96,1
5,78,0,5
5,81,96,1
5,78,0,5
5,78,100,16
5,78,100,9
5,81,100,6
5,81,100,5
5,78,0,4
5,83,100,2
5,81,0,4
5,83,100,5
5,81,0,4
5,81,105,1
5,83,0,5
5,81,105,4
5,83,0,5
5,83,83,6
5,83,83,2
5,81,0,7
5,81,83,11
5,83,0,7
5,81,83,2
5,83,0,7
5,80,83,14
5,81,0,3
5,80,83,6
5,81,0,3
5,76,92,32
5,76,92,9
5,76,0,47
5,81,100,3
5,76,0,6
5,81,100,3
5,76,96,1
5,76,96,1
5,78,89,3
5,76,0,2
5,78,89,7
5,76,0,2
5,74,96,93
5,74,96,9
5,76,89,6
5,74,0,3
5,76,89,6
5,74,0,3
5,76,77,4
5,76,0,1
5,76,77,8
5,76,71,0
5,76,71,9
5,69,86,389
5,69,86,9
5,69,0,48
5,71,92,7
5,69,0,2
5,71,92,7
5,71,0,40
5,71,0,9
5,73,96,0
5,73,96,9
5,71,86,2
5,73,0,3
5,71,86,6
5,71,0,49
5,71,0,9
5,73,96,0
5,73,96,9
5,76,92,5
5,73,0,2
5,76,92,5
5,76,0,41
5,78,92,6
5,76,0,3
5,78,92,6
5,78,96,93
5,78,96,9
5,76,96,3
5,78,0,1
5,76,96,8
5,73,92,1
5,76,0,8
5,73,92,1
5,73,0,47
5,73,0,9
5,69,92,1
5,69,92,9
5,71,75,0
5,69,0,1
5,71,75,0
5,69,0,1
5,71,0,41
5,71,0,9
5,71,89,0
5,71,89,9
5,69,100,2
5,69,100,2
5,71,100,6
5,69,0,3
5,71,100,6
5,71,0,39
5,71,0,9
5,73,100,0
5,73,100,3
5,71,96,4
5,73,0,3
5,71,96,6
5,73,0,3
5,71,0,34
5,73,96,8
5,71,0,1
5,73,96,8
5,76,105,6
5,73,0,3
5,76,105,6
5,78,105,1
5,78,105,1
5,78,105,4
5,78,105,4
5,78,0,49
5,81,83,6
5,78,0,3
5,81,83,6
5,81,0,38
5,81,0,9
5,76,96,4
5,76,96,9
5,73,96,7
5,76,0,2
5,73,96,7
5,69,92,1
5,73,0,7
5,69,92,2
5,69,0,53
5,71,83,0
5,69,0,9
5,71,83,0
5,71,0,44
5,71,89,0
5,71,89,2
5,73,100,228
5,73,100,9
5,76,96,60
5,73,0,5
5,76,96,4
5,73,0,5
5,76,0,44
5,78,100,4
5,76,0,5
5,78,100,4
5,76,105,3
5,78,0,3
5,76,105,6
5,76,0,45
5,78,105,7
5,76,0,2
5,78,105,7
5,81,100,0
5,78,0,2
5,81,100,0
5,78,0,2
5,76,100,0
5,76,100,0
5,73,100,154
5,73,100,9
5,73,0,33
5,76,92,6
5,73,0,3
5,76,92,6
5,76,0,29
5,78,105,7
5,76,0,2
5,78,105,7
5,76,86,8
5,76,86,8
5,78,0,1
5,76,0,30
5,73,86,0
5,76,0,9
5,73,86,0
5,73,0,29
5,71,86,5
5,73,0,4
5,71,86,5
5,73,96,1
5,73,96,1
5,73,0,44
5,76,89,4
5,73,0,1
5,76,89,0
5,76,96,491
5,76,96,9
5,78,105,1
5,78,105,1
5,81,100,7
5,81,100,5
5,78,0,4
5,78,100,3
5,78,100,9
5,81,110,9
5,81,110,6
5,78,0,3
5,83,105,7
5,83,105,5
5,81,0,4
5,81,105,7
5,81,105,5
5,83,0,4
5,83,77,3
5,81,0,4
5,83,77,4
5,81,0,4
5,81,80,8
5,83,0,7
5,81,80,2
5,83,0,7
5,80,77,6
5,81,0,2
5,80,77,7
5,81,0,2
5,80,96,109
5,80,96,9
5,81,105,54
5,80,0,5
5,81,105,4
5,80,0,5
5,76,96,2
5,81,0,1
5,76,96,8
5,76,96,4
5,76,96,9
5,74,75,39
5,76,0,4
5,74,75,5
5,76,0,4
5,73,92,3
5,74,0,3
5,73,92,3
5,74,0,3
5,74,105,13
5,73,0,4
5,74,105,5
5,73,0,4
5,76,105,8
5,76,105,9
5,76,89,1
5,76,0,1
5,76,89,8
5,73,96,6
5,76,0,4
5,73,96,5
5,76,0,4
5,73,0,100
5,76,86,2
5,73,0,7
5,76,86,2
5,78,100,6
5,78,100,5
