track,note,velocity,time
0,71,106,0
0,71,0,78
0,76,109,2
0,76,0,111
0,85,127,2
0,85,0,93
0,83,104,2
0,83,0,143
0,81,111,2
0,81,0,125
0,80,97,3
0,80,0,109
0,81,111,2
0,81,0,126
0,73,106,2
0,73,0,142
0,76,88,2
0,76,0,110
0,75,106,2
0,62,100,0
0,63,72,12
0,62,0,19
0,63,0,2
0,75,0,8
0,76,69,5
0,83,85,0
0,59,119,2
0,56,127,0
0,40,114,0
0,52,126,0
0,56,63,0
0,64,91,2
0,40,85,0
0,59,85,0
0,52,57,0
0,59,0,4
0,56,0,4
0,56,14,14
0,64,0,20
0,56,0,7
0,52,0,8
0,40,0,6
0,56,0,25
0,59,0,4
0,52,18,28
0,52,0,24
0,52,92,68
0,56,127,0
0,56,41,20
0,47,32,0
0,64,60,2
0,59,57,2
0,40,21,2
0,59,0,16
0,64,0,2
0,56,0,2
0,40,0,0
0,47,0,8
0,56,39,12
0,47,35,2
0,59,83,2
0,40,57,0
0,64,80,0
0,40,0,31
0,64,0,6
0,59,0,0
0,47,0,2
0,56,0,2
0,52,0,6
0,52,30,24
0,47,35,4
0,56,41,0
0,40,49,0
0,59,69,2
0,64,60,0
0,59,0,22
0,40,0,0
0,56,0,2
0,52,0,0
0,64,0,0
0,47,0,4
0,56,0,6
0,56,38,56
0,52,50,0
0,56,0,14
0,52,0,10
0,56,38,24
0,40,0,2
0,59,49,2
0,64,41,0
0,47,21,12
0,59,0,4
0,40,15,0
0,64,0,6
0,56,0,2
0,40,0,11
0,47,0,2
0,56,41,10
0,64,80,0
0,59,57,4
0,40,52,2
0,47,52,0
0,40,22,4
0,64,0,15
0,59,0,2
0,56,0,2
0,40,0,0
0,47,0,4
0,40,0,8
0,56,57,2
0,59,41,6
0,59,0,12
0,56,0,4
0,61,95,12
0,57,69,2
0,64,57,0
0,59,74,2
0,45,85,0
0,61,127,2
0,57,126,2
0,64,109,0
0,40,66,0
0,59,0,29
0,57,0,0
0,61,0,2
0,64,0,0
0,57,46,2
0,57,0,26
0,45,0,2
0,57,0,38
0,64,0,30
0,57,52,0
0,57,46,2
0,61,0,2
0,59,49,0
0,61,34,0
0,64,39,4
0,61,0,12
0,59,0,2
0,57,0,0
0,57,0,5
0,64,0,2
0,83,0,10
0,76,0,4
0,57,83,55
0,61,77,2
0,64,88,0
0,45,60,2
0,62,99,2
0,62,127,0
0,64,119,0
0,57,126,0
0,61,0,10
0,57,0,51
0,57,38,4
0,62,0,16
0,64,0,2
0,57,0,10
0,62,0,10
0,57,0,0
0,45,0,2
0,64,0,2
0,61,38,6
0,57,41,2
0,61,0,16
0,57,0,4
0,52,0,12
0,61,127,0
0,64,126,2
0,57,126,0
0,57,63,2
0,61,55,0
0,64,55,2
0,57,111,4
0,57,80,0
0,61,97,0
0,64,91,2
0,61,0,21
0,64,0,4
0,57,0,0
0,61,77,6
0,57,85,2
0,64,95,0
0,59,92,0
0,45,69,0
0,40,0,16
0,57,0,11
0,64,0,15
0,61,0,6
0,59,0,0
0,57,0,2
0,45,0,2
0,61,0,6
0,64,0,2
0,57,57,20
0,57,0,28
0,59,95,20
0,57,0,17
0,59,0,2
0,61,0,2
0,76,88,7
0,83,97,0
0,56,119,0
0,28,106,0
0,59,119,0
0,52,125,0
0,57,0,2
0,40,71,0
0,56,85,0
0,40,100,0
0,47,55,2
0,64,99,0
0,59,104,0
0,56,126,6
0,59,1,0
0,56,71,6
0,40,0,16
0,47,0,2
0,64,0,0
0,56,0,2
0,59,0,0
0,56,38,7
0,64,69,0
0,59,38,4
0,59,0,2
0,56,0,2
0,64,0,4
0,56,41,21
0,59,57,4
0,64,42,0
0,64,0,16
0,59,0,2
0,56,0,0
0,52,0,8
0,56,43,18
0,64,55,2
0,59,83,0
0,59,0,6
0,52,59,0
0,56,0,18
0,59,0,0
0,64,0,2
0,56,0,2
0,52,0,15
0,40,66,10
0,47,55,0
0,56,85,2
0,59,104,2
0,64,95,0
0,56,92,6
0,56,0,5
0,52,122,10
0,56,0,25
0,59,0,20
0,56,0,2
0,64,0,0
0,40,0,8
0,47,0,10
0,56,35,0
0,59,57,4
0,64,52,2
0,59,0,14
0,64,0,4
0,56,0,0
0,56,38,25
0,59,60,0
0,64,49,2
0,64,0,18
0,59,0,0
0,56,0,2
0,56,41,25
0,59,69,2
0,64,60,2
0,59,0,18
0,56,0,2
0,64,0,2
0,56,42,14
0,64,71,0
0,59,63,2
0,59,0,20
0,56,0,0
0,76,0,2
0,64,0,0
0,83,0,4
0,40,83,16
0,47,69,0
0,64,99,0
0,56,91,0
0,59,101,0
0,52,34,6
0,52,0,15
0,40,0,12
0,64,0,16
0,64,0,4
0,56,0,0
0,40,0,2
0,59,0,2
0,56,0,0
0,59,0,2
0,47,0,10
0,56,43,14
0,64,69,0
0,59,88,0
0,40,50,10
0,59,0,12
0,64,0,3
0,56,0,0
0,40,0,16
0,57,92,4
0,61,88,0
0,45,80,0
0,40,89,4
0,61,127,0
0,64,114,0
0,57,121,0
0,64,71,4
0,57,49,0
0,61,77,2
0,61,0,15
0,57,0,6
0,52,66,10
0,45,0,4
0,52,0,18
0,52,42,16
0,57,57,0
0,61,0,10
0,64,0,2
0,57,0,2
0,57,0,2
0,52,0,6
0,57,0,12
0,61,88,17
0,52,71,0
0,57,83,2
0,57,52,8
0,64,0,2
0,61,0,8
0,57,0,5
0,52,0,6
0,61,0,4
0,57,0,6
0,40,0,28
0,59,99,34
0,63,108,0
0,54,63,0
0,63,71,0
0,45,88,2
0,54,109,0
0,59,46,0
0,57,59,2
0,57,0,15
0,28,0,26
0,54,0,18
0,63,0,8
0,59,0,2
0,54,43,12
0,59,15,6
0,45,0,4
0,59,0,8
0,54,0,4
0,54,35,26
0,63,52,0
0,59,28,2
0,59,0,16
0,54,0,2
0,63,0,0
0,54,38,24
0,63,77,2
0,59,43,2
0,59,0,20
0,63,0,5
0,54,0,4
0,59,104,63
0,45,71,0
0,54,91,0
0,63,95,2
0,57,99,0
0,57,0,2
0,54,0,17
0,63,0,6
0,59,0,0
0,63,42,15
0,54,57,0
0,59,74,2
0,45,0,4
0,59,0,8
0,63,0,2
0,54,0,2
0,54,46,18
0,63,43,2
0,59,0,2
0,54,0,8
0,52,0,0
0,63,0,2
0,63,0,2
0,54,0,2
0,64,125,0
0,59,110,0
0,68,114,0
0,47,42,1
0,56,55,1
0,40,43,0
0,59,41,1
0,56,39,0
0,59,69,1
0,64,66,0
0,64,77,1
0,28,121,3
0,64,0,21
0,59,0,2
0,56,0,7
0,40,0,10
0,47,0,4
0,56,41,24
0,64,57,3
0,59,42,1
0,59,0,18
0,64,0,2
0,56,0,2
0,58,100,12
0,56,41,8
0,59,60,2
0,64,43,3
0,64,0,13
0,59,0,2
0,56,0,3
0,58,0,5
0,56,85,21
0,59,104,2
0,64,95,0
0,58,100,29
0,64,0,7
0,56,0,0
0,59,0,1
0,58,0,26
0,56,38,32
0,59,49,1
0,64,52,3
0,40,36,3
0,47,15,2
0,59,0,15
0,64,0,3
0,58,100,0
0,56,0,2
0,40,0,9
0,47,0,0
0,56,38,8
0,59,41,6
0,64,43,1
0,59,0,18
0,58,0,2
0,64,0,1
0,56,0,2
0,56,41,20
0,64,55,2
0,40,46,1
0,59,52,1
0,58,100,21
0,59,0,4
0,64,0,2
0,56,0,2
0,56,32,11
0,64,46,2
0,58,0,1
0,59,60,0
0,59,0,21
0,64,0,2
0,56,0,1
0,56,41,21
0,59,69,2
0,64,60,0
0,40,0,5
0,59,0,16
0,64,0,1
0,56,0,2
0,47,74,5
0,40,80,1
0,56,111,1
0,59,104,0
0,64,99,2
0,58,100,16
0,64,0,12
0,56,0,10
0,59,0,2
0,58,0,5
0,56,0,10
0,28,0,0
0,64,0,2
0,59,0,2
0,64,0,1
0,59,0,0
0,68,0,10
0,40,0,3
0,47,0,5
0,56,42,2
0,59,66,2
0,64,57,1
0,64,79,13
0,28,110,3
0,59,25,1
0,56,0,5
0,64,0,1
0,59,0,1
0,58,100,0
0,64,0,12
0,59,0,5
0,56,52,3
0,58,0,16
0,56,0,10
0,54,77,27
0,63,71,1
0,56,60,0
0,28,0,1
0,44,60,1
0,54,46,1
0,60,49,3
0,56,57,0
0,60,71,1
0,63,91,3
0,68,72,0
0,60,125,1
0,66,68,3
0,32,127,1
0,63,109,5
0,60,0,5
0,58,100,5
0,58,0,33
0,63,0,3
0,56,0,3
0,54,0,2
0,60,43,21
0,54,42,0
0,56,39,0
0,63,43,3
0,56,0,18
0,54,0,1
0,60,0,0
0,63,0,1
0,44,0,17
0,54,38,8
0,60,71,2
0,63,38,0
0,63,0,10
0,54,0,1
0,60,0,2
0,54,109,25
0,60,83,0
0,63,97,1
0,56,105,1
0,58,100,19
0,56,0,23
0,66,0,4
0,54,0,1
0,63,0,0
0,60,0,3
0,68,0,2
0,58,0,1
0,63,0,5
0,60,0,3
0,56,36,27
0,63,31,1
0,54,38,0
0,60,69,3
0,54,0,7
0,56,0,4
0,63,0,2
0,60,0,2
0,58,100,25
0,58,0,31
0,60,43,24
0,63,60,0
0,44,14,8
0,63,34,0
0,63,0,11
0,60,0,0
0,44,0,8
0,63,57,18
0,68,42,1
0,60,42,3
0,68,0,13
0,63,0,4
0,60,0,1
0,63,60,27
0,60,60,2
0,68,60,0
0,44,60,0
0,51,43,3
0,72,116,0
0,66,52,5
0,51,0,9
0,68,0,3
0,63,0,0
0,60,0,2
0,63,0,2
0,44,0,1
0,66,0,44
0,63,115,18
0,68,109,0
0,72,0,1
0,60,105,0
0,63,119,0
0,44,66,2
0,51,80,1
0,68,47,0
0,66,25,0
0,60,0,10
0,54,0,6
0,56,0,10
0,63,0,4
0,63,0,19
0,68,0,10
0,32,0,4
0,60,0,2
0,68,0,4
0,63,0,2
0,51,0,3
0,44,0,4
0,66,0,2
0,68,63,8
0,63,41,1
0,60,57,2
0,63,38,2
0,32,109,3
0,68,0,6
0,63,0,5
0,60,0,6
0,63,0,10
0,32,0,58
0,56,42,1
0,61,88,1
0,61,55,1
0,64,83,1
0,49,52,0
0,56,85,1
0,64,83,2
0,73,114,1
0,68,106,0
0,64,102,1
0,37,125,1
0,64,0,13
0,61,0,5
0,56,0,1
0,56,28,27
0,64,27,7
0,49,0,5
0,64,0,3
0,56,0,0
0,58,100,14
0,56,38,6
0,61,63,1
0,64,55,5
0,59,43,1
0,59,0,12
0,61,0,0
0,64,0,2
0,56,0,2
0,58,0,14
0,56,85,17
0,61,104,2
0,64,99,1
0,59,85,0
0,58,100,39
0,58,0,8
0,56,0,4
0,61,0,5
0,59,0,2
0,64,0,2
0,49,43,30
0,61,42,1
0,56,38,0
0,59,43,1
0,64,49,2
0,58,100,1
0,59,0,18
0,61,0,0
0,56,0,2
0,64,0,1
0,49,0,1
0,58,0,13
0,56,38,5
0,61,41,0
0,59,43,3
0,64,55,0
0,64,0,14
0,61,0,4
0,64,0,1
0,59,0,1
0,56,0,4
0,58,100,1
0,61,41,13
0,56,41,1
0,49,36,0
0,59,39,2
0,64,43,2
0,64,47,1
0,58,0,16
0,61,0,9
0,64,0,1
0,56,0,2
0,59,0,0
0,64,0,4
0,73,0,5
0,61,52,5
0,56,41,0
0,59,42,3
0,64,60,1
0,68,0,1
0,61,0,17
0,59,0,2
0,64,0,1
0,56,0,2
0,56,38,20
0,61,60,1
0,49,0,1
0,59,52,0
0,68,46,0
0,64,43,1
0,37,0,6
0,37,32,12
0,61,0,1
0,64,0,2
0,56,0,0
0,59,0,1
0,58,100,9
0,68,0,13
0,58,0,19
0,56,99,7
0,49,111,0
0,64,95,0
0,61,105,1
0,59,104,0
0,64,116,0
0,37,0,4
0,35,109,4
0,61,0,8
0,56,0,5
0,64,0,6
0,64,0,5
0,58,100,7
0,56,0,1
0,64,0,6
0,61,0,2
0,58,0,0
0,59,0,4
0,49,0,13
0,56,46,13
0,61,38,0
0,59,57,2
0,61,0,18
0,59,0,2
0,56,0,0
0,58,100,11
0,59,85,10
0,61,63,3
0,61,0,17
0,58,0,4
0,59,0,4
0,35,0,13
0,61,77,6
0,59,69,1
0,55,69,0
0,57,71,1
0,45,77,0
0,64,66,2
0,33,127,1
0,61,88,1
0,55,69,1
0,57,66,0
0,64,60,5
0,45,100,0
0,59,126,1
0,61,119,0
0,64,116,1
0,57,126,1
0,58,100,24
0,57,0,10
0,55,0,0
0,61,0,4
0,59,0,1
0,64,0,1
0,58,0,3
0,61,41,16
0,59,42,2
0,64,36,1
0,55,38,2
0,57,36,0
0,45,0,17
0,59,0,2
0,61,0,0
0,55,0,1
0,57,0,1
0,64,0,1
0,58,100,13
0,61,55,3
0,59,49,2
0,55,35,0
0,57,35,1
0,64,38,2
0,64,0,11
0,61,0,1
0,57,0,1
0,55,0,0
0,59,0,1
0,58,0,10
0,57,0,4
0,61,99,17
0,64,99,1
0,59,83,0
0,55,77,0
0,57,77,1
0,45,63,1
0,57,32,18
0,58,100,19
0,45,0,2
0,57,0,6
0,55,0,0
0,57,0,1
0,61,0,0
0,64,0,1
0,59,0,0
0,61,0,5
0,59,0,1
0,64,0,14
0,58,0,8
0,57,41,15
0,61,42,0
0,55,41,1
0,64,46,0
0,59,41,3
0,45,52,0
0,61,0,13
0,59,0,1
0,64,0,2
0,57,0,2
0,55,0,0
0,45,0,10
0,58,100,5
0,55,46,6
0,57,43,0
0,64,43,3
0,61,43,0
0,59,42,1
0,45,49,2
0,61,0,10
0,59,0,1
0,57,0,1
0,55,0,0
0,64,0,1
0,58,0,2
0,45,0,1
0,45,41,12
0,61,43,3
0,55,39,1
0,57,39,0
0,64,41,1
0,59,46,1
0,57,12,0
0,59,0,3
0,61,0,0
0,57,0,4
0,55,0,0
0,64,0,1
0,57,0,12
0,64,41,0
0,61,41,1
0,57,32,1
0,55,34,1
0,59,43,1
0,63,127,11
0,67,121,5
0,63,0,2
0,61,0,1
0,64,127,0
0,59,0,1
0,55,0,1
0,57,0,0
0,45,0,1
0,64,0,0
0,64,46,22
0,57,38,0
0,61,43,1
0,55,38,0
0,59,46,2
0,45,34,4
0,59,0,18
0,61,0,0
0,55,0,1
0,57,0,1
0,64,0,0
0,64,0,0
0,67,0,5
0,45,0,3
0,57,43,20
0,55,0,24
0,57,0,2
0,61,0,4
0,64,0,1
0,57,0,4
0,61,97,3
0,45,57,0
0,55,104,2
0,59,101,0
0,57,101,1
0,64,99,0
0,66,109,0
0,62,127,3
0,57,110,5
0,45,0,8
0,57,0,8
0,55,0,1
0,62,0,5
0,59,0,0
0,64,0,3
0,57,0,0
0,66,0,2
0,61,0,7
0,45,0,5
0,61,38,17
0,55,57,2
0,57,55,0
0,61,119,4
0,64,38,1
0,64,0,12
0,55,0,4
0,57,0,1
0,61,0,1
0,61,0,5
0,33,0,26
0,40,55,12
0,40,0,1
0,47,41,0
0,47,0,1
0,59,55,0
0,64,71,0
0,68,63,0
0,71,126,0
0,66,127,0
0,68,126,0
0,64,121,0
0,40,119,0
0,47,55,9
0,40,74,1
0,59,97,1
0,56,85,1
0,64,83,1
0,28,126,5
0,64,0,14
0,56,0,0
0,59,0,3
0,56,41,18
0,59,46,2
0,64,55,2
0,58,100,14
0,47,0,2
0,40,0,2
0,64,0,1
0,59,0,2
0,56,0,2
0,56,41,20
0,59,55,3
0,64,52,1
0,58,0,1
0,64,0,18
0,59,0,0
0,56,0,3
0,56,77,23
0,59,97,2
0,64,95,0
0,58,100,20
0,59,0,10
0,64,0,1
0,56,0,1
0,59,63,14
0,56,32,1
0,58,0,1
0,64,43,1
0,64,0,17
0,59,0,1
0,56,0,0
0,56,41,20
0,59,55,3
0,64,42,2
0,64,0,16
0,59,0,2
0,56,0,1
0,58,100,2
0,58,0,32
0,56,49,44
0,59,57,1
0,47,49,0
0,64,63,1
0,40,52,0
0,58,100,4
0,58,0,30
0,64,0,12
0,59,0,6
0,56,0,0
0,64,0,1
0,66,0,11
0,71,0,1
