track,note,velocity,time
1,61,61,495
1,49,47,7
1,64,57,8
1,68,63,12
1,49,0,60
1,52,40,18
1,56,45,75
1,52,0,6
1,64,0,66
1,56,0,0
1,61,0,1
1,52,53,7
1,68,0,6
1,52,0,27
1,45,50,52
1,61,55,2
1,57,46,2
1,52,32,19
1,57,0,18
1,61,0,11
1,45,0,118
1,63,57,2
1,63,0,25
1,52,0,34
1,59,61,48
1,56,47,0
1,40,51,1
1,64,57,0
1,47,52,6
1,52,76,74
1,56,0,38
1,40,0,17
1,61,85,10
1,59,0,2
1,64,0,4
1,47,0,2
1,52,0,5
1,61,0,0
1,47,45,70
1,63,54,3
1,66,56,2
1,59,56,1
1,54,40,21
1,63,0,108
1,66,0,1
1,59,0,38
1,64,56,31
1,64,0,54
1,66,49,2
1,47,0,29
1,54,0,8
1,66,0,17
1,64,53,7
1,61,62,2
1,68,56,0
1,49,51,6
1,52,67,8
1,49,0,4
1,56,83,64
1,52,0,13
1,64,0,44
1,61,0,3
1,56,0,1
1,68,0,9
1,52,64,0
1,52,0,23
1,61,51,56
1,57,41,2
1,45,36,1
1,52,35,6
1,45,0,74
1,49,40,9
1,52,0,18
1,57,0,60
1,52,18,11
1,49,0,6
1,61,0,14
1,52,0,46
1,59,56,15
1,56,46,2
1,44,53,0
1,44,0,45
1,47,35,9
1,51,57,66
1,47,0,4
1,51,0,48
1,59,0,13
1,56,0,5
1,47,55,3
1,47,0,27
1,56,50,57
1,40,44,0
1,52,26,5
1,47,24,20
1,52,0,45
1,56,0,10
1,47,0,45
1,40,0,6
1,61,60,153
1,49,50,0
1,64,55,1
1,68,54,3
1,49,0,12
1,52,56,2
1,56,69,65
1,52,0,5
1,64,0,34
1,61,0,5
1,68,0,4
1,56,0,0
1,52,75,12
1,52,0,17
1,61,61,55
1,45,54,1
1,57,56,0
1,52,47,16
1,57,0,29
1,61,0,8
1,45,0,104
1,63,39,4
1,52,0,14
1,63,0,15
1,56,60,66
1,59,53,2
1,64,54,2
1,40,47,2
1,47,67,5
1,52,88,69
1,56,0,59
1,40,0,2
1,64,0,3
1,61,92,0
1,59,0,1
1,52,0,12
1,47,0,0
1,61,0,4
1,59,70,69
1,63,66,3
1,66,63,0
1,47,43,2
1,54,48,17
1,59,0,64
1,63,0,6
1,66,0,12
1,47,0,43
1,54,0,4
1,64,51,47
1,64,0,45
1,63,59,3
1,63,0,20
1,45,53,34
1,61,58,3
1,57,64,5
1,52,41,12
1,45,0,24
1,52,0,45
1,49,50,0
1,61,0,71
1,57,0,2
1,52,38,10
1,49,0,28
1,52,0,23
1,56,57,28
1,59,61,3
1,44,54,1
1,44,0,9
1,47,30,13
1,56,0,71
1,59,0,9
1,51,39,14
1,47,0,85
1,56,42,8
1,51,0,10
1,59,57,51
1,56,0,10
1,61,60,55
1,49,54,2
1,59,0,5
1,61,0,18
1,52,59,16
1,49,0,5
1,56,65,69
1,56,0,72
1,61,47,6
1,56,32,86
1,61,0,161
1,56,0,18
1,52,0,8
1,61,57,128
1,64,66,4
1,68,64,0
1,49,48,5
1,52,64,15
1,49,0,3
1,56,63,69
1,52,0,23
1,64,0,32
1,61,0,5
1,68,0,2
1,56,0,2
1,52,65,14
1,52,0,21
1,45,56,58
1,61,65,0
1,57,60,2
1,52,47,11
1,61,0,68
1,57,0,20
1,45,0,35
1,63,61,18
1,52,0,17
1,63,0,7
1,56,58,78
1,64,64,2
1,59,59,1
1,40,52,4
1,47,59,2
1,52,85,67
1,56,0,15
1,59,0,18
1,40,0,22
1,64,0,0
1,61,105,0
1,61,0,8
1,47,0,5
1,52,0,2
1,59,65,83
1,63,64,1
1,47,58,1
1,66,63,0
1,54,44,21
1,59,0,48
1,63,0,20
1,66,0,7
1,59,40,16
1,59,0,36
1,64,54,52
1,66,61,55
1,64,0,2
1,47,0,18
1,54,0,13
1,66,0,20
1,64,58,5
1,61,63,2
1,49,54,1
1,68,61,1
1,52,77,9
1,49,0,5
1,56,96,57
1,52,0,6
1,64,0,45
1,56,0,1
1,61,0,0
1,68,0,1
1,52,83,9
1,52,0,14
1,45,78,54
1,61,70,0
1,57,82,1
1,52,53,2
1,49,46,76
1,52,0,14
1,45,0,20
1,52,45,46
1,57,0,29
1,52,0,31
1,49,0,7
1,44,60,14
1,59,74,1
1,61,0,2
1,56,63,1
1,44,0,13
1,47,38,2
1,51,57,78
1,47,0,20
1,51,0,45
1,47,51,11
1,56,0,4
1,59,0,0
1,47,0,23
1,56,55,60
1,40,48,2
1,52,53,1
1,47,39,10
1,44,43,76
1,47,0,36
1,40,0,11
1,52,0,5
1,56,0,20
1,47,30,17
1,44,0,9
1,47,0,35
1,49,60,73
1,61,64,4
1,64,66,3
1,68,61,2
1,52,70,4
1,49,0,4
1,56,85,58
1,52,0,6
1,64,0,42
1,61,0,3
1,56,0,3
1,68,0,3
1,52,84,3
1,52,0,19
1,61,76,43
1,57,82,0
1,45,63,1
1,52,64,11
1,49,63,67
1,45,0,15
1,52,0,2
1,63,69,49
1,52,52,7
1,49,0,5
1,57,0,3
1,61,0,6
1,63,0,3
1,52,0,55
1,59,57,5
1,64,65,0
1,56,54,0
1,40,43,1
1,47,51,11
1,52,61,87
1,59,0,55
1,56,0,2
1,40,0,13
1,61,73,7
1,64,0,2
1,61,0,9
1,47,0,5
1,52,0,12
1,63,72,66
1,59,70,1
1,66,64,1
1,47,56,3
1,54,63,11
1,51,59,79
1,47,0,10
1,63,0,22
1,54,0,3
1,59,0,31
1,66,0,0
1,54,58,21
1,64,57,2
1,51,0,15
1,54,0,9
1,63,66,19
1,64,0,7
1,63,0,18
1,45,57,28
1,57,64,4
1,61,62,1
1,52,51,7
1,49,64,67
1,45,0,2
1,52,0,11
1,61,0,53
1,57,0,3
1,52,59,2
1,49,0,15
1,52,0,21
1,59,63,37
1,56,54,2
1,44,53,5
1,47,48,0
1,44,0,14
1,51,39,73
1,56,0,5
1,59,0,35
1,56,58,41
1,47,0,4
1,51,0,24
1,59,57,35
1,56,0,14
1,49,48,51
1,61,67,1
1,59,0,9
1,61,0,28
1,52,58,8
1,49,0,23
1,56,73,49
1,61,52,82
1,56,0,21
1,56,28,61
1,61,0,197
1,56,0,6
1,52,0,23
1,56,53,92
1,61,59,7
1,37,55,8
1,65,62,14
1,49,71,19
1,56,0,22
1,56,73,48
1,49,0,35
1,56,0,34
1,37,0,4
1,49,66,1
1,65,0,4
1,61,0,1
1,49,0,16
1,61,65,49
1,46,81,2
1,65,77,1
1,58,80,1
1,53,75,3
1,61,0,97
1,63,54,26
1,58,0,26
1,65,0,9
1,53,0,9
1,61,64,1
1,63,0,9
1,61,0,9
1,46,0,5
1,61,59,64
1,58,62,2
1,42,58,0
1,54,51,3
1,49,73,15
1,54,0,25
1,58,0,4
1,61,0,5
1,49,0,63
1,42,0,10
1,44,66,0
1,63,66,4
1,56,63,2
1,60,78,3
1,51,38,11
1,51,0,48
1,44,0,13
1,60,0,8
1,56,0,23
1,63,0,7
1,61,60,35
1,37,58,1
1,56,58,4
1,53,52,4
1,49,29,17
1,53,0,62
1,53,44,25
1,49,0,45
1,56,0,18
1,53,0,0
1,61,0,5
1,37,0,21
1,49,29,4
1,49,0,17
1,61,71,57
1,58,77,2
1,65,73,1
1,46,73,0
1,53,77,46
1,58,0,38
1,58,70,33
1,53,0,22
1,61,0,41
1,58,0,0
1,53,66,10
1,65,0,16
1,53,0,2
1,46,0,6
1,58,71,47
1,54,77,1
1,65,78,0
1,42,61,2
1,61,71,1
1,49,62,24
1,63,58,117
1,61,0,12
1,58,0,10
1,65,0,10
1,54,0,16
1,61,54,1
1,63,0,13
1,61,0,5
1,42,0,15
1,49,0,10
1,63,58,42
1,56,54,3
1,60,74,0
1,44,54,2
1,51,45,12
1,56,0,34
1,56,39,49
1,51,0,26
1,51,36,54
1,60,0,81
1,51,0,16
1,44,0,9
1,56,0,2
1,63,0,1
1,61,75,102
1,56,67,2
1,37,67,0
1,65,74,0
1,56,0,19
1,65,0,4
1,61,0,2
1,49,62,12
1,68,109,66
1,49,0,18
1,68,0,2
1,37,0,42
1,49,66,3
1,49,0,21
1,61,67,47
1,65,71,1
1,58,72,2
1,46,77,4
1,53,69,6
1,61,0,93
1,63,57,16
1,58,0,1
1,65,0,20
1,61,70,24
1,63,0,9
1,53,0,2
1,61,0,10
1,46,0,7
1,63,64,70
1,54,61,0
1,58,61,1
1,42,56,1
1,49,48,13
1,58,0,34
1,54,0,5
1,49,0,39
1,44,60,5
1,56,51,2
1,60,61,3
1,42,0,4
1,51,56,33
1,60,0,23
1,56,0,10
1,51,0,6
1,63,0,6
1,44,0,3
1,61,51,39
1,56,55,2
1,37,53,3
1,53,33,2
1,49,37,26
1,53,0,52
1,53,62,30
1,49,0,35
1,53,0,18
1,56,0,2
1,61,0,10
1,37,0,37
1,49,32,4
1,49,0,25
1,61,67,56
1,65,69,2
1,58,66,0
1,46,59,2
1,53,84,1
1,58,0,34
1,58,88,36
1,53,0,22
1,58,0,8
1,61,0,0
1,65,0,12
1,53,77,24
1,53,0,19
1,46,0,7
1,54,66,21
1,58,77,11
1,42,62,8
1,61,56,2
1,65,78,5
1,49,74,9
1,54,0,30
1,54,61,30
1,61,0,15
1,63,78,17
1,65,0,2
1,58,0,7
1,54,0,10
1,61,83,15
1,63,0,1
1,61,0,19
1,42,0,17
1,49,0,6
1,63,46,42
1,44,54,0
1,60,61,2
1,56,55,1
1,51,42,22
1,60,0,44
1,56,0,3
1,51,0,13
1,44,0,5
1,63,0,7
1,61,53,105
1,56,39,2
1,37,54,4
1,53,30,0
1,49,20,27
1,49,0,144
1,53,0,15
1,56,0,6
1,61,0,7
1,37,0,2
1,61,57,136
1,68,55,2
1,64,55,1
1,49,46,6
1,56,57,3
1,52,81,71
1,56,0,9
1,64,0,49
1,61,0,1
1,68,0,2
1,56,88,0
1,49,0,16
1,52,0,3
1,56,0,4
1,57,77,48
1,45,70,0
1,61,69,0
1,52,64,9
1,57,0,35
1,57,51,46
1,61,0,9
1,45,0,54
1,63,52,13
1,57,0,5
1,63,0,17
1,52,0,30
1,56,46,36
1,59,58,2
1,64,56,0
1,40,56,2
1,47,51,62
1,52,80,77
1,40,0,54
1,61,103,2
1,64,0,4
1,56,0,1
1,59,0,3
1,52,0,1
1,47,0,2
1,61,0,2
1,66,69,74
1,59,78,0
1,63,72,1
1,47,52,3
1,54,67,16
1,59,0,43
1,59,70,41
1,66,0,14
1,63,0,4
1,59,0,23
1,64,66,26
1,66,85,54
1,64,0,3
1,66,0,4
1,54,0,54
1,47,0,14
1,61,69,11
1,49,61,4
1,64,65,9
1,68,73,13
1,52,73,41
1,56,92,49
1,61,0,35
1,56,0,18
1,52,75,13
1,64,0,5
1,68,0,2
1,49,0,13
1,52,0,14
1,52,0,6
1,61,66,37
1,57,64,0
1,45,59,4
1,52,56,0
1,57,0,43
1,57,57,42
1,52,0,16
1,61,0,42
1,52,31,9
1,57,0,4
1,52,0,35
1,56,49,38
1,45,0,3
1,59,55,1
1,44,59,1
1,51,46,26
1,56,0,28
1,51,0,41
1,56,34,11
1,59,0,24
1,56,0,22
1,51,62,32
1,51,0,23
1,44,0,6
1,56,52,51
1,52,42,0
1,40,48,3
1,47,46,22
1,52,0,25
1,52,35,68
1,56,0,35
1,52,0,13
1,40,0,8
1,47,0,10
1,61,71,100
1,49,55,10
1,64,71,5
1,68,89,7
1,52,61,49
1,49,0,3
1,56,86,55
1,52,0,24
1,64,0,4
1,61,0,7
1,68,0,2
1,56,0,16
1,52,81,12
1,52,0,19
1,45,65,46
1,61,77,0
1,57,77,1
1,52,71,6
1,57,0,29
1,61,0,37
1,57,52,8
1,52,0,15
1,57,0,46
1,45,0,1
1,63,54,0
1,63,0,16
1,64,59,62
1,56,53,1
1,40,54,1
1,59,58,0
1,47,67,5
1,52,86,71
1,59,0,36
1,56,0,21
1,64,0,2
1,61,98,2
1,61,0,7
1,40,0,2
1,47,0,11
1,52,0,2
1,66,78,64
1,63,73,1
1,59,83,1
1,47,57,2
1,54,64,18
1,59,0,69
1,63,0,0
1,51,59,5
1,54,0,9
1,66,0,2
1,47,0,37
1,51,0,28
1,54,50,1
1,64,32,10
1,54,0,14
1,64,0,25
1,63,39,2
1,63,0,22
1,45,57,26
1,57,54,8
1,61,59,0
1,52,62,15
1,49,83,59
1,52,0,16
1,45,0,15
1,52,57,43
1,61,0,1
1,57,0,1
1,49,0,47
1,52,0,10
1,56,58,11
1,59,71,1
1,44,70,2
1,47,55,51
1,56,0,61
1,51,46,17
1,59,0,7
1,56,53,59
1,47,0,31
1,44,0,1
1,59,70,21
1,51,0,2
1,56,0,14
1,61,69,43
1,59,0,6
1,49,56,0
1,52,52,23
1,61,0,4
1,56,43,71
1,61,44,72
1,56,0,9
1,56,22,73
1,61,0,85
1,56,0,13
1,52,0,1
1,49,0,5
1,61,45,120
1,68,57,4
1,64,55,1
1,49,47,1
1,56,59,57
1,61,0,7
1,64,0,5
1,68,0,5
1,61,71,54
1,56,0,9
1,61,0,18
1,56,58,45
1,49,0,10
1,56,0,11
1,61,54,58
1,57,46,0
1,45,54,0
1,64,50,1
1,52,43,23
1,57,0,5
1,61,0,3
1,64,0,1
1,57,39,71
1,52,0,9
1,57,0,66
1,45,0,2
1,52,43,9
1,52,0,82
1,56,46,7
1,40,50,2
1,64,53,0
1,59,62,1
1,52,65,16
1,56,0,27
1,64,0,16
1,59,0,4
1,56,74,25
1,52,0,17
1,56,0,27
1,52,63,27
1,40,0,2
1,52,0,24
1,47,51,46
1,66,59,1
1,63,59,1
1,59,56,0
1,54,51,21
1,59,0,14
1,63,0,11
1,66,0,2
1,59,46,63
1,54,0,4
1,54,22,83
1,59,0,20
1,54,0,85
1,61,51,1
1,64,57,1
1,49,57,2
1,68,51,0
1,47,0,2
1,56,70,24
1,61,0,9
1,68,0,14
1,64,0,4
1,61,86,40
1,56,0,3
1,61,0,23
1,56,59,42
1,49,0,21
1,56,0,2
1,61,50,46
1,45,43,2
1,57,49,2
1,64,55,1
1,52,53,13
1,57,0,20
1,64,0,2
1,61,0,5
1,57,52,50
1,52,0,7
1,52,24,63
1,57,0,3
1,52,0,39
1,45,0,30
1,59,52,3
1,63,53,1
1,56,42,1
1,44,48,1
1,51,59,13
1,56,0,26
1,59,0,11
1,63,0,4
1,51,0,23
1,56,57,14
1,51,55,75
1,56,0,20
1,51,0,15
1,44,0,8
1,56,39,38
1,59,45,2
1,64,46,1
1,40,18,11
1,47,56,46
1,64,0,24
1,56,0,1
1,59,0,14
1,52,57,36
1,52,0,77
1,40,0,6
1,56,32,3
1,47,0,16
1,56,0,18
1,61,50,80
1,49,55,2
1,68,48,0
1,64,49,0
1,52,62,20
1,49,0,5
1,61,0,10
1,64,0,8
1,68,0,4
1,56,80,34
1,56,0,52
1,52,0,9
1,61,74,9
1,52,77,4
1,61,0,24
1,52,0,2
1,45,49,51
1,64,63,0
1,57,52,1
1,61,52,4
1,52,47,20
1,57,0,11
1,64,0,2
1,61,0,11
1,52,0,50
1,57,50,2
1,57,0,66
1,45,0,1
1,52,27,8
1,52,0,71
1,40,53,2
1,59,39,2
1,56,39,2
1,64,50,1
1,52,62,18
1,64,0,22
1,56,0,1
1,59,0,26
1,56,82,17
1,52,0,15
1,56,0,46
1,52,51,5
1,52,0,16
1,40,0,5
1,54,43,52
1,63,46,2
1,59,51,0
1,35,14,9
1,47,45,6
1,54,0,6
1,63,0,7
1,59,0,10
1,54,40,59
1,47,0,4
1,54,0,71
1,47,30,10
1,35,0,1
1,47,0,38
1,45,46,41
1,61,63,3
1,64,57,0
1,57,45,0
1,52,71,16
1,57,0,24
1,64,0,11
1,61,0,11
1,57,84,23
1,52,0,6
1,57,0,51
1,52,59,9
1,52,0,34
1,63,60,34
1,59,56,3
1,56,46,3
1,45,0,3
1,44,59,1
1,51,60,15
1,56,0,21
1,63,0,14
1,59,0,5
