track,note,velocity,time
3,58,113,3120
3,58,0,29
3,60,97,31
3,60,0,29
3,63,107,31
3,63,0,29
3,65,100,31
3,65,0,90
3,67,95,30
3,67,0,29
3,63,110,31
3,63,0,90
3,58,119,30
3,58,0,29
3,60,94,31
3,60,0,29
3,65,103,31
3,65,0,29
3,63,113,31
3,63,0,119
3,58,116,181
3,58,0,29
3,60,98,31
3,60,0,29
3,63,116,31
3,63,0,29
3,65,108,31
3,65,0,90
3,67,104,30
3,67,0,29
3,70,104,31
3,70,0,60
3,58,97,60
3,58,0,29
3,60,104,31
3,60,0,29
3,65,108,31
3,65,0,29
3,63,119,31
3,63,0,119
3,58,116,181
3,58,0,29
3,60,98,31
3,60,0,29
3,63,116,31
3,63,0,29
3,65,108,31
3,65,0,90
3,67,102,30
3,67,0,29
3,63,127,31
3,63,0,90
3,58,123,30
3,58,0,29
3,60,90,31
3,60,0,29
3,65,108,31
3,65,0,29
3,63,119,31
3,63,0,119
3,58,113,181
3,58,0,29
3,60,95,31
3,60,0,29
3,63,110,31
3,63,0,29
3,65,104,31
3,65,0,90
3,67,108,30
3,67,0,29
3,70,110,31
3,70,0,60
3,58,119,60
3,58,0,29
3,60,98,31
3,60,0,29
3,65,104,31
3,65,0,29
3,63,116,31
3,63,0,119
3,63,113,181
3,63,0,29
3,65,92,31
3,65,0,29
3,67,104,31
3,67,0,29
3,63,119,31
3,63,0,29
3,68,123,31
3,68,0,89
3,68,127,31
3,68,0,60
3,65,127,60
3,65,0,29
3,63,113,31
3,63,0,60
3,65,112,60
3,65,0,60
3,67,117,60
3,67,0,29
3,67,117,31
3,67,0,60
3,63,119,60
3,63,0,29
3,65,110,31
3,65,0,29
3,67,106,31
3,67,0,29
3,63,116,31
3,63,0,29
3,68,119,31
3,68,0,89
3,68,123,31
3,68,0,60
3,65,127,60
3,65,0,29
3,63,116,31
3,63,0,60
3,65,120,60
3,65,0,90
3,67,104,30
3,67,0,29
3,63,113,31
3,63,0,90
3,63,119,30
3,63,0,29
3,65,106,31
3,65,0,29
3,67,108,31
3,67,0,29
3,63,119,31
3,63,0,29
3,68,123,31
3,68,0,89
3,68,127,31
3,68,0,60
3,65,127,60
3,65,0,29
3,63,116,31
3,63,0,60
3,65,110,60
3,65,0,90
3,67,127,30
3,67,0,29
3,67,116,31
3,67,0,89
3,63,114,31
3,63,0,29
3,65,114,31
3,65,0,29
3,67,104,31
3,67,0,29
3,63,116,31
3,63,0,29
3,68,112,31
3,68,0,89
3,68,127,31
3,68,0,59
3,65,112,61
3,65,0,29
3,63,119,31
3,63,0,29
3,65,120,91
3,65,0,60
3,67,114,60
3,67,0,29
3,63,113,31
3,63,0,359
3,60,90,61
3,60,0,60
3,63,85,0
3,63,0,29
3,60,90,31
3,60,0,29
3,55,95,91
3,55,0,60
3,58,110,0
3,58,0,60
3,55,94,0
3,55,0,29
3,56,101,91
3,56,0,60
3,60,100,0
3,60,0,60
3,56,89,0
3,56,0,29
3,58,104,91
3,58,0,60
3,62,92,0
3,62,0,60
3,58,97,0
3,58,0,29
3,60,91,91
3,60,0,60
3,63,78,0
3,63,0,60
3,60,91,0
3,60,0,29
3,55,91,91
3,55,0,60
3,58,95,0
3,58,0,60
3,55,92,0
3,55,0,29
3,56,95,91
3,56,0,60
3,60,97,0
3,60,0,60
3,56,87,0
3,56,0,29
3,58,95,91
3,58,0,60
3,62,94,0
3,62,0,60
3,58,85,0
3,58,0,29
3,56,97,91
3,56,0,29
3,60,90,31
3,60,0,29
3,56,93,31
3,56,0,29
3,58,96,31
3,58,0,150
3,58,113,810
3,58,0,29
3,60,97,31
3,60,0,29
3,63,107,31
3,63,0,29
3,65,100,31
3,65,0,90
3,67,95,30
3,67,0,29
3,63,110,31
3,63,0,90
3,58,119,30
3,58,0,29
3,60,94,31
3,60,0,29
3,65,103,31
3,65,0,29
3,63,113,31
3,63,0,119
3,58,116,181
3,58,0,29
3,60,98,31
3,60,0,29
3,63,116,31
3,63,0,29
3,65,108,31
3,65,0,90
3,67,104,30
3,67,0,29
3,70,104,31
3,70,0,60
3,58,97,60
3,58,0,29
3,60,104,31
3,60,0,29
3,65,108,31
3,65,0,29
3,63,119,31
3,63,0,119
3,58,116,181
3,58,0,29
3,60,98,31
3,60,0,29
3,63,116,31
3,63,0,29
3,65,108,31
3,65,0,90
3,67,102,30
3,67,0,29
3,63,127,31
3,63,0,90
3,58,123,30
3,58,0,29
3,60,90,31
3,60,0,29
3,65,108,31
3,65,0,29
3,63,119,31
3,63,0,119
3,58,113,181
3,58,0,29
3,60,95,31
3,60,0,29
3,63,110,31
3,63,0,29
3,65,104,31
3,65,0,90
3,67,108,30
3,67,0,29
3,70,110,31
3,70,0,60
3,58,119,60
3,58,0,29
3,60,98,31
3,60,0,29
3,65,104,31
3,65,0,29
3,63,116,31
3,63,0,119
3,63,113,181
3,63,0,29
3,65,92,31
3,65,0,29
3,67,104,31
3,67,0,29
3,63,119,31
3,63,0,29
3,68,123,31
3,68,0,89
3,68,127,31
3,68,0,60
3,65,127,60
3,65,0,29
3,63,113,31
3,63,0,60
3,65,112,60
3,65,0,60
3,67,117,60
3,67,0,29
3,67,117,31
3,67,0,60
3,63,119,60
3,63,0,29
3,65,110,31
3,65,0,29
3,67,106,31
3,67,0,29
3,63,116,31
3,63,0,29
3,68,119,31
3,68,0,89
3,68,123,31
3,68,0,60
3,65,127,60
3,65,0,29
3,63,116,31
3,63,0,60
3,65,120,60
3,65,0,90
3,67,104,30
3,67,0,29
3,63,113,31
3,63,0,90
3,63,119,30
3,63,0,29
3,65,106,31
3,65,0,29
3,67,108,31
3,67,0,29
3,63,119,31
3,63,0,29
3,68,123,31
3,68,0,89
3,68,127,31
3,68,0,60
3,65,127,60
3,65,0,29
3,63,116,31
3,63,0,60
3,65,110,60
3,65,0,90
3,67,127,30
3,67,0,29
3,67,116,31
3,67,0,89
3,63,114,31
3,63,0,29
3,65,114,31
3,65,0,29
3,67,104,31
3,67,0,29
3,63,116,31
3,63,0,29
3,68,112,31
3,68,0,89
3,68,127,31
3,68,0,59
3,65,112,61
3,65,0,29
3,63,119,31
3,63,0,29
3,65,120,91
3,65,0,60
3,67,114,60
3,67,0,29
3,63,113,31
3,63,0,359
3,60,90,61
3,60,0,60
3,63,85,0
3,63,0,29
3,60,90,31
3,60,0,29
3,55,95,91
3,55,0,60
3,58,110,0
3,58,0,60
3,55,94,0
3,55,0,29
3,56,101,91
3,56,0,60
3,60,100,0
3,60,0,60
3,56,89,0
3,56,0,29
3,58,104,91
3,58,0,60
3,62,92,0
3,62,0,60
3,58,97,0
3,58,0,29
3,60,91,91
3,60,0,60
3,63,78,0
3,63,0,60
3,60,91,0
3,60,0,29
3,55,91,91
3,55,0,60
3,58,95,0
3,58,0,60
3,55,92,0
3,55,0,29
3,56,95,91
3,56,0,60
3,60,97,0
3,60,0,60
3,56,87,0
3,56,0,29
3,58,95,91
3,58,0,60
3,62,94,0
3,62,0,60
3,58,85,0
3,58,0,29
3,56,97,91
3,56,0,29
3,60,90,31
3,60,0,29
3,56,93,31
3,56,0,29
3,58,96,31
3,58,0,150
3,63,113,2970
3,63,0,29
3,65,92,31
3,65,0,29
3,67,104,31
3,67,0,29
3,63,119,31
3,63,0,29
3,68,123,31
3,68,0,89
3,68,127,31
3,68,0,60
3,65,127,60
3,65,0,29
3,63,113,31
3,63,0,60
3,65,112,60
3,65,0,60
3,67,117,60
3,67,0,29
3,67,117,31
3,67,0,60
3,63,119,60
3,63,0,29
3,65,110,31
3,65,0,29
3,67,106,31
3,67,0,29
3,63,116,31
3,63,0,29
3,68,119,31
3,68,0,89
3,68,123,31
3,68,0,60
3,65,127,60
3,65,0,29
3,63,116,31
3,63,0,60
3,65,120,60
3,65,0,90
3,67,104,30
3,67,0,29
3,63,113,31
3,63,0,90
3,63,119,30
3,63,0,29
3,65,106,31
3,65,0,29
3,67,108,31
3,67,0,29
3,63,119,31
3,63,0,29
3,68,123,31
3,68,0,89
3,68,127,31
3,68,0,60
3,65,127,60
3,65,0,29
3,63,116,31
3,63,0,60
3,65,110,60
3,65,0,90
3,67,127,30
3,67,0,29
3,67,116,31
3,67,0,89
3,63,114,31
3,63,0,29
3,65,114,31
3,65,0,29
3,67,104,31
3,67,0,29
3,63,116,31
3,63,0,29
3,68,112,31
3,68,0,89
3,68,127,31
3,68,0,59
3,65,112,61
3,65,0,29
3,63,119,31
3,63,0,29
3,65,120,91
3,65,0,60
3,67,114,60
3,67,0,29
3,63,113,31
3,63,0,719
3,49,88,121
3,49,0,90
3,49,101,30
3,49,0,90
3,49,99,30
3,49,0,90
3,49,96,30
3,49,0,90
3,49,96,30
3,49,0,240
3,49,101,240
3,49,0,60
3,49,104,60
3,49,0,60
3,49,104,60
3,49,0,60
3,49,107,60
3,49,0,60
3,49,111,60
3,49,0,240
3,49,107,240
3,49,0,60
3,49,96,60
3,49,0,60
3,49,96,60
3,49,0,60
3,49,104,60
3,49,0,60
3,49,99,60
3,49,0,240
3,49,101,240
3,49,0,60
3,49,104,60
3,49,0,60
3,49,101,60
3,49,0,90
3,49,99,30
3,49,0,60
3,49,101,60
3,49,0,60
3,49,99,60
3,49,0,60
3,50,105,60
3,50,0,4
3,63,113,2607
3,63,0,29
3,65,92,31
3,65,0,29
3,67,104,31
3,67,0,29
3,63,119,31
3,63,0,29
3,68,123,31
3,68,0,89
3,68,127,31
3,68,0,60
3,65,127,60
3,65,0,29
3,63,113,31
3,63,0,60
3,65,112,60
3,65,0,60
3,67,117,60
3,67,0,29
3,67,117,31
3,67,0,60
3,63,119,60
3,63,0,29
3,65,110,31
3,65,0,29
3,67,106,31
3,67,0,29
3,63,116,31
3,63,0,29
3,68,119,31
3,68,0,89
3,68,123,31
3,68,0,60
3,65,127,60
3,65,0,29
3,63,116,31
3,63,0,60
3,65,120,60
3,65,0,90
3,67,104,30
3,67,0,29
3,63,113,31
3,63,0,90
3,63,119,30
3,63,0,29
3,65,106,31
3,65,0,29
3,67,108,31
3,67,0,29
3,63,119,31
3,63,0,29
3,68,123,31
3,68,0,89
3,68,127,31
3,68,0,60
3,65,127,60
3,65,0,29
3,63,116,31
3,63,0,60
3,65,110,60
3,65,0,90
3,67,127,30
3,67,0,29
3,67,116,31
3,67,0,89
3,63,114,31
3,63,0,29
3,65,114,31
3,65,0,29
3,67,104,31
3,67,0,29
3,63,116,31
3,63,0,29
3,68,112,31
3,68,0,89
3,68,127,31
3,68,0,59
3,65,112,61
3,65,0,29
3,63,119,31
3,63,0,29
3,65,120,91
3,65,0,60
3,67,114,60
3,67,0,29
3,63,113,31
3,63,0,359
3,67,104,1501
3,67,0,29
3,63,113,31
3,63,0,90
3,63,119,30
3,63,0,29
3,65,106,31
3,65,0,29
3,67,108,31
3,67,0,29
3,63,119,31
3,63,0,29
3,68,123,31
3,68,0,89
3,68,127,31
3,68,0,60
3,65,127,60
3,65,0,29
3,63,116,31
3,63,0,60
3,65,110,60
3,65,0,90
3,67,127,30
3,67,0,29
3,67,116,31
3,67,0,89
3,63,114,31
3,63,0,29
3,65,114,31
3,65,0,29
3,67,104,31
3,67,0,29
3,63,116,31
3,63,0,29
3,68,112,31
3,68,0,89
3,68,127,31
3,68,0,59
3,65,112,61
3,65,0,29
3,63,119,31
3,63,0,29
3,65,120,91
3,65,0,60
3,67,114,60
3,67,0,29
3,63,113,31
3,63,0,419
4,60,78,11100
4,63,74,0
4,67,78,0
4,67,0,29
4,63,0,0
4,60,0,0
4,63,110,31
4,67,95,0
4,60,88,0
4,60,0,29
4,67,0,0
4,63,0,0
4,62,78,151
4,58,107,0
4,55,86,0
4,55,0,29
4,58,0,0
4,62,0,0
4,62,101,31
4,55,92,0
4,58,113,0
4,58,0,29
4,55,0,0
4,62,0,0
4,63,97,151
4,56,91,0
4,60,92,0
4,60,0,29
4,56,0,0
4,63,0,0
4,63,88,31
4,56,97,0
4,60,97,0
4,60,0,29
4,56,0,0
4,63,0,0
4,58,101,151
4,62,88,0
4,65,72,0
4,65,0,29
4,62,0,0
4,58,0,0
4,58,113,31
4,62,106,0
4,65,92,0
4,65,0,29
4,62,0,0
4,58,0,0
4,60,91,151
4,63,110,0
4,67,94,0
4,67,0,29
4,63,0,0
4,60,0,0
4,67,98,31
4,60,92,0
4,63,113,0
4,63,0,29
4,60,0,0
4,67,0,0
4,58,119,151
4,62,98,0
4,55,92,0
4,55,0,29
4,62,0,0
4,58,0,0
4,58,116,31
4,62,95,0
4,55,87,0
4,55,0,29
4,62,0,0
4,58,0,0
4,63,83,151
4,56,89,0
4,60,91,0
4,60,0,29
4,56,0,0
4,63,0,0
4,63,104,31
4,56,107,0
4,60,100,0
4,60,0,29
4,56,0,0
4,63,0,0
4,62,90,151
4,58,91,0
4,65,76,0
4,65,0,29
4,58,0,0
4,62,0,0
4,58,110,31
4,62,106,0
4,65,86,0
4,65,0,29
4,62,0,0
4,58,0,0
4,56,99,151
4,60,106,0
4,63,99,0
4,63,0,29
4,60,0,0
4,56,0,0
4,63,99,31
4,56,110,0
4,60,104,0
4,60,0,29
4,56,0,0
4,63,0,0
4,58,107,91
4,62,104,0
4,65,98,0
4,62,0,29
4,58,0,0
4,65,0,31
4,63,84,1262
4,58,99,1
4,58,0,81
4,63,0,0
4,63,89,33
4,58,104,2
4,58,0,84
4,63,0,0
4,63,107,32
4,58,113,0
4,63,0,84
4,58,0,1
4,63,110,35
4,58,116,1
4,58,0,219
4,63,0,1
4,63,99,380
4,58,123,1
4,58,0,76
4,63,0,1
4,63,104,43
4,58,110,0
4,63,0,88
4,58,0,1
4,63,104,26
4,58,99,3
4,58,0,73
4,63,0,12
4,63,113,30
4,58,123,3
4,58,0,186
4,63,0,8
4,58,113,414
4,63,101,1
4,58,0,74
4,63,0,1
4,63,110,38
4,58,110,3
4,58,0,76
4,63,0,1
4,63,97,39
4,58,95,1
4,58,0,75
4,63,0,2
4,63,104,41
4,58,113,0
4,58,0,218
4,63,0,1
4,63,110,384
4,58,116,3
4,58,0,92
4,63,0,1
4,63,101,28
4,58,107,1
4,63,0,94
4,58,0,4
4,58,107,22
4,63,101,0
4,63,0,81
4,58,0,2
4,63,104,33
4,58,113,0
4,58,0,158
4,63,0,2
4,60,78,4223
4,63,74,0
4,67,78,0
4,65,122,5
4,67,0,24
4,60,0,0
4,63,0,0
4,63,110,31
4,67,95,0
4,60,88,0
4,63,123,2
4,65,0,9
4,60,0,18
4,63,0,0
4,67,0,0
4,63,0,22
4,62,120,1
4,62,0,47
4,62,78,81
4,58,107,0
4,55,86,0
4,55,0,29
4,58,0,0
4,62,0,0
4,62,101,31
4,55,92,0
4,58,113,0
4,58,0,29
4,55,0,0
4,62,0,0
4,63,97,151
4,56,91,0
4,60,92,0
4,60,0,29
4,56,0,0
4,63,0,0
4,63,88,31
4,56,97,0
4,60,97,0
4,60,0,29
4,56,0,0
4,63,0,0
4,58,101,151
4,62,88,0
4,65,72,0
4,65,0,29
4,62,0,0
4,58,0,0
4,58,113,31
4,62,106,0
4,65,92,0
4,65,0,29
4,62,0,0
4,58,0,0
4,60,91,151
4,63,110,0
4,67,94,0
4,65,117,9
4,67,0,20
4,60,0,0
4,63,0,0
4,67,98,31
4,60,92,0
4,63,113,0
4,63,116,0
4,65,0,9
4,67,0,20
4,63,0,0
4,60,0,0
4,63,0,22
4,62,120,2
4,62,0,56
4,58,119,71
4,62,98,0
4,55,92,0
4,55,0,29
4,62,0,0
4,58,0,0
4,58,116,31
4,62,95,0
4,55,87,0
4,55,0,29
4,62,0,0
4,58,0,0
4,63,83,151
4,56,89,0
4,60,91,0
4,60,0,29
4,56,0,0
4,63,0,0
4,63,104,31
4,56,107,0
4,60,100,0
4,60,0,29
4,56,0,0
4,63,0,0
4,62,90,151
4,58,91,0
4,65,76,0
4,65,0,29
4,58,0,0
4,62,0,0
4,58,110,31
4,62,106,0
4,65,86,0
4,65,0,29
