track,note,velocity,time
1,24,100,0
1,48,100,192
1,55,100,192
1,43,80,192
1,51,100,4
1,43,80,4
1,53,100,192
1,31,100,4
1,24,100,4
1,48,100,4
1,55,100,192
1,43,80,192
1,51,100,4
1,43,80,4
1,50,100,4
1,31,100,0
1,24,100,4
1,48,100,4
1,55,100,192
1,43,80,192
1,51,100,4
1,43,80,4
1,53,100,192
1,31,100,4
1,24,100,4
1,48,100,4
1,55,100,192
1,43,80,192
1,51,100,4
1,43,80,4
1,50,100,4
1,31,100,0
1,29,100,4
1,53,80,4
1,56,100,192
1,53,80,4
1,55,100,192
1,53,80,4
1,56,100,192
1,48,75,4
1,29,100,4
1,53,80,4
1,56,100,192
1,53,80,4
1,55,100,192
1,53,80,4
1,51,100,192
1,53,75,4
1,24,100,4
1,48,100,100
1,55,100,100
1,43,80,192
1,51,100,4
1,43,80,4
1,53,100,192
1,31,100,4
1,24,100,4
1,48,100,4
1,55,100,192
1,43,80,192
1,51,100,4
1,43,80,4
1,24,100,4
1,50,100,0
1,31,100,4
1,55,100,4
1,58,100,192
1,55,100,100
1,60,100,192
1,55,100,4
1,58,100,192
1,55,100,4
1,27,100,4
1,51,100,100
1,55,100,192
1,51,100,4
1,56,100,4
1,51,100,4
1,58,100,4
1,51,100,4
1,29,100,4
1,53,100,4
1,56,100,192
1,53,100,4
1,55,100,4
1,48,69,4
1,51,100,4
1,53,69,4
1,24,100,4
1,48,100,4
1,55,100,192
1,43,80,192
1,51,100,4
1,43,80,4
1,53,100,192
1,31,100,4
1,24,100,4
1,48,100,4
1,55,100,192
1,43,80,192
1,51,100,4
1,43,80,4
1,31,100,4
1,50,100,0
1,24,100,4
1,48,100,4
1,55,100,192
1,43,80,192
1,51,100,4
1,43,80,4
1,53,100,192
1,31,100,4
1,24,100,4
1,48,100,4
1,55,100,192
1,43,80,192
1,51,100,4
1,43,80,4
1,50,100,4
1,31,100,0
1,24,100,4
1,48,100,4
1,55,100,192
1,43,80,192
1,51,100,4
1,43,80,4
1,53,100,192
1,31,100,4
1,24,100,4
1,48,100,4
1,55,100,192
1,43,80,192
1,51,100,4
1,43,80,4
1,31,100,4
1,50,100,0
1,29,100,4
1,53,80,4
1,56,100,192
1,53,80,4
1,55,100,192
1,53,80,4
1,56,100,192
1,48,75,4
1,29,100,4
1,53,80,4
1,56,100,192
1,53,80,4
1,55,100,192
1,53,80,4
1,51,100,192
1,53,75,4
1,24,100,4
1,48,100,100
1,55,100,100
1,43,80,192
1,51,100,4
1,43,80,4
1,53,100,192
1,31,100,4
1,24,100,4
1,48,100,4
1,55,100,192
1,43,80,192
1,51,100,4
1,43,80,4
1,24,100,4
1,50,100,0
1,31,100,4
1,55,100,4
1,58,100,192
1,55,100,100
1,60,100,192
1,55,100,4
1,58,100,192
1,55,100,4
1,27,100,4
1,51,100,100
1,55,100,192
1,51,100,4
1,56,100,4
1,51,100,4
1,58,100,4
1,51,100,4
1,29,100,4
1,53,100,4
1,56,100,192
1,53,100,4
1,55,100,4
1,48,69,4
1,51,100,4
1,53,69,4
1,24,100,4
1,48,100,4
1,55,100,192
1,43,80,192
1,51,100,4
1,43,80,4
1,53,100,192
1,31,100,4
1,24,100,4
1,48,100,4
1,55,100,192
1,43,80,192
1,51,100,4
1,43,80,4
1,50,100,4
1,31,100,0
1,24,100,4
1,50,50,196
1,46,50,384
1,50,50,292
1,24,100,4
1,50,50,292
1,46,50,384
1,26,100,4
1,50,50,0
1,27,100,4
1,67,25,292
1,63,25,0
1,58,25,192
1,63,25,100
1,67,25,0
1,58,25,100
1,63,25,100
1,67,25,0
1,58,25,100
1,25,100,4
1,61,25,292
1,65,25,0
1,56,25,192
1,61,25,100
1,65,25,0
1,56,25,100
1,65,25,100
1,61,25,0
1,56,25,100
1,32,100,4
1,63,25,292
1,60,25,0
1,56,25,192
1,63,25,100
1,60,25,0
1,56,25,100
1,60,25,100
1,63,25,0
1,56,25,100
1,34,100,4
1,62,25,292
1,65,25,0
1,58,25,192
1,65,25,100
1,62,25,0
1,58,25,100
1,65,25,100
1,62,25,0
1,58,25,100
1,27,100,4
1,63,25,292
1,67,25,0
1,58,25,192
1,67,25,100
1,63,25,0
1,58,25,100
1,67,25,100
1,63,25,0
1,58,25,100
1,25,100,4
1,65,25,292
1,61,25,0
1,56,25,192
1,65,25,100
1,61,25,0
1,56,25,100
1,61,25,100
1,65,25,0
1,56,25,100
1,32,100,4
1,63,25,292
1,60,25,0
1,56,25,192
1,63,25,100
1,60,25,0
1,56,25,100
1,63,25,100
1,60,25,0
1,56,25,100
1,34,100,4
1,62,25,292
1,65,25,0
1,58,25,192
1,65,25,100
1,62,25,0
1,58,25,100
1,62,25,100
1,65,25,0
1,58,25,100
1,27,100,4
1,63,25,292
1,67,25,0
1,58,25,192
1,63,25,100
1,67,25,0
1,58,25,100
1,67,25,100
1,63,25,0
1,58,25,100
1,25,100,4
1,65,25,292
1,61,25,0
1,56,25,192
1,65,25,100
1,61,25,0
1,56,25,100
1,65,25,100
1,61,25,0
1,56,25,100
1,32,100,4
1,63,25,292
1,60,25,0
1,56,25,192
1,60,25,100
1,63,25,0
1,56,25,100
1,63,25,100
1,60,25,0
1,56,25,100
1,34,100,4
1,62,25,292
1,65,25,0
1,58,25,192
1,65,25,100
1,62,25,0
1,58,25,100
1,62,25,100
1,65,25,0
1,58,25,100
1,27,100,4
1,63,25,292
1,67,25,0
1,58,25,192
1,63,25,100
1,67,25,0
1,58,25,100
1,63,25,100
1,67,25,0
1,58,25,100
1,27,100,4
1,67,10,292
1,63,10,0
1,58,10,192
1,67,10,100
1,63,10,0
1,58,10,100
1,26,100,4
1,62,10,0
1,67,10,0
1,59,10,100
1,24,100,4
1,48,100,100
1,55,100,192
1,43,80,192
1,51,100,4
1,43,80,4
1,53,100,192
1,31,100,4
1,24,100,4
1,48,100,4
1,55,100,192
1,43,80,192
1,51,100,4
1,43,80,4
1,31,100,4
1,50,100,0
1,24,100,4
1,48,100,4
1,55,100,192
1,43,80,192
1,51,100,4
1,43,80,4
1,53,100,192
1,31,100,4
1,24,100,4
1,48,100,4
1,55,100,192
1,43,80,192
1,51,100,4
1,43,80,4
1,31,100,4
1,50,100,0
1,29,100,4
1,53,80,4
1,56,100,192
1,53,80,4
1,55,100,192
1,53,80,4
1,56,100,192
1,48,75,4
1,29,100,4
1,53,80,4
1,56,100,192
1,53,80,4
1,55,100,192
1,53,80,4
1,51,100,192
1,53,75,4
1,24,100,4
1,48,100,100
1,55,100,100
1,43,80,192
1,51,100,4
1,43,80,4
1,53,100,192
1,31,100,4
1,24,100,4
1,48,100,4
1,55,100,192
1,43,80,192
1,51,100,4
1,43,80,4
1,50,100,4
1,24,100,0
1,31,100,4
1,55,100,4
1,58,100,192
1,55,100,100
1,60,100,192
1,55,100,4
1,58,100,192
1,55,100,4
1,27,100,4
1,51,100,100
1,55,100,192
1,51,100,4
1,56,100,4
1,51,100,4
1,58,100,4
1,51,100,4
1,29,100,4
1,53,100,4
1,56,100,192
1,53,100,4
1,55,100,4
1,48,69,4
1,51,100,4
1,53,69,4
1,24,100,4
1,48,100,4
1,55,100,192
1,43,80,192
1,51,100,4
1,43,80,4
1,53,100,192
1,31,100,4
1,24,100,4
1,48,100,4
1,55,100,192
1,43,80,192
1,51,100,4
1,43,80,4
1,50,100,4
1,31,100,0
1,36,100,4
1,24,100,0
1,31,100,4
1,23,100,4
1,35,100,0
1,28,100,4
1,40,100,0
1,40,100,21508
1,40,100,1540
1,40,100,1540
1,36,100,4
1,37,100,4
1,38,100,4
1,39,100,4
1,40,100,4
1,40,100,100
1,40,100,1540
1,40,100,1540
1,36,100,4
1,37,100,4
1,38,100,4
1,39,100,4
1,40,100,4
1,40,100,4
1,40,100,1540
1,40,100,1540
1,36,100,4
1,37,100,4
1,38,100,4
1,39,100,4
1,40,100,4
1,40,50,10756
1,28,50,0
2,24,100,0
2,48,100,192
2,55,100,192
2,43,80,192
2,51,100,4
2,43,80,4
2,53,100,192
2,31,100,4
2,24,100,4
2,48,100,4
2,55,100,192
2,43,80,192
2,51,100,4
2,43,80,4
2,31,100,4
2,50,100,0
2,24,100,4
2,48,100,4
2,55,100,192
2,43,80,192
2,51,100,4
2,43,80,4
2,53,100,192
2,31,100,4
2,24,100,4
2,48,100,4
2,55,100,192
2,43,80,192
2,51,100,4
2,43,80,4
2,50,100,4
2,31,100,0
2,29,100,4
2,53,80,4
2,56,100,192
2,53,80,4
2,55,100,192
2,53,80,4
2,56,100,192
2,48,75,4
2,29,100,4
2,53,80,4
2,56,100,192
2,53,80,4
2,55,100,192
2,53,80,4
2,51,100,192
2,53,75,4
2,24,100,4
2,48,100,100
2,55,100,100
2,43,80,192
2,51,100,4
2,43,80,4
2,53,100,192
2,31,100,4
2,24,100,4
2,48,100,4
2,55,100,192
2,43,80,192
2,51,100,4
2,43,80,4
2,24,100,4
2,50,100,0
2,31,100,4
2,55,100,4
2,58,100,192
2,55,100,100
2,60,100,192
2,55,100,4
2,58,100,192
2,55,100,4
2,27,100,4
2,51,100,100
2,55,100,192
2,51,100,4
2,56,100,4
2,51,100,4
2,58,100,4
2,51,100,4
2,29,100,4
2,53,100,4
2,56,100,192
2,53,100,4
2,55,100,4
2,48,69,4
2,51,100,4
2,53,69,4
2,24,100,4
2,48,100,4
2,55,100,192
2,43,80,192
2,51,100,4
2,43,80,4
2,53,100,192
2,31,100,4
2,24,100,4
2,48,100,4
2,55,100,192
2,43,80,192
2,51,100,4
2,43,80,4
2,50,100,4
2,31,100,0
2,24,100,4
2,48,100,4
2,55,100,192
2,43,80,192
2,51,100,4
2,43,80,4
2,53,100,192
2,31,100,4
2,24,100,4
2,48,100,4
2,55,100,192
2,43,80,192
2,51,100,4
2,43,80,4
2,50,100,4
2,31,100,0
2,24,100,4
2,48,100,4
2,55,100,192
2,43,80,192
2,51,100,4
2,43,80,4
2,53,100,192
2,31,100,4
2,24,100,4
2,48,100,4
2,55,100,192
2,43,80,192
2,51,100,4
2,43,80,4
2,50,100,4
2,31,100,0
2,29,100,4
2,53,80,4
2,56,100,192
2,53,80,4
2,55,100,192
2,53,80,4
2,56,100,192
2,48,75,4
2,29,100,4
2,53,80,4
2,56,100,192
2,53,80,4
2,55,100,192
2,53,80,4
2,51,100,192
2,53,75,4
2,24,100,4
2,48,100,100
2,55,100,100
2,43,80,192
2,51,100,4
2,43,80,4
2,53,100,192
2,31,100,4
2,24,100,4
2,48,100,4
2,55,100,192
2,43,80,192
2,51,100,4
2,43,80,4
2,24,100,4
2,50,100,0
2,31,100,4
2,55,100,4
2,58,100,192
2,55,100,100
2,60,100,192
2,55,100,4
2,58,100,192
2,55,100,4
2,27,100,4
2,51,100,100
2,55,100,192
2,51,100,4
2,56,100,4
2,51,100,4
2,58,100,4
2,51,100,4
2,29,100,4
2,53,100,4
2,56,100,192
2,53,100,4
2,55,100,4
2,48,69,4
2,51,100,4
2,53,69,4
2,24,100,4
2,48,100,4
2,55,100,192
2,43,80,192
2,51,100,4
2,43,80,4
2,53,100,192
2,31,100,4
2,24,100,4
2,48,100,4
2,55,100,192
2,43,80,192
2,51,100,4
2,43,80,4
2,50,100,4
2,31,100,0
2,36,100,4
2,43,100,196
2,43,100,4
2,36,100,0
2,46,100,4
2,38,100,0
2,39,100,4
2,37,100,4
2,24,100,18436
2,48,100,192
2,55,100,192
2,43,80,192
2,51,100,4
2,43,80,4
2,53,100,192
2,31,100,4
2,24,100,4
2,48,100,4
2,55,100,192
2,43,80,192
2,51,100,4
2,43,80,4
2,50,100,4
2,31,100,0
2,24,100,4
2,48,100,4
2,55,100,192
2,43,80,192
2,51,100,4
2,43,80,4
2,53,100,192
2,31,100,4
2,24,100,4
2,48,100,4
2,55,100,192
2,43,80,192
2,51,100,4
2,43,80,4
2,31,100,4
2,50,100,0
2,29,100,4
2,53,80,4
2,56,100,192
2,53,80,4
2,55,100,192
2,53,80,4
2,56,100,192
2,48,75,4
2,29,100,4
2,53,80,4
2,56,100,192
2,53,80,4
2,55,100,192
2,53,80,4
2,51,100,192
2,53,75,4
2,24,100,4
2,48,100,100
2,55,100,100
2,43,80,192
2,51,100,4
2,43,80,4
2,53,100,192
2,31,100,4
2,24,100,4
2,48,100,4
2,55,100,192
2,43,80,192
2,51,100,4
2,43,80,4
2,50,100,4
2,24,100,0
2,31,100,4
2,55,100,4
2,58,100,192
2,55,100,100
2,60,100,192
2,55,100,4
2,58,100,192
2,55,100,4
2,27,100,4
2,51,100,100
2,55,100,192
2,51,100,4
2,56,100,4
2,51,100,4
2,58,100,4
2,51,100,4
2,29,100,4
2,53,100,4
2,56,100,192
2,53,100,4
2,55,100,4
2,48,69,4
2,51,100,4
2,53,69,4
2,24,100,4
2,48,100,4
2,55,100,192
2,43,80,192
2,51,100,4
2,43,80,4
2,53,100,192
2,31,100,4
2,24,100,4
2,48,100,4
2,55,100,192
2,43,80,192
2,51,100,4
2,43,80,4
2,50,100,4
2,31,100,0
2,36,100,4
2,48,100,0
2,43,100,4
2,47,100,4
2,52,100,4
2,40,100,4
2,45,100,4
2,42,100,4
2,40,100,4
2,45,100,4
2,42,100,4
2,40,100,4
2,45,100,4
2,42,100,4
2,40,100,4
2,40,100,4
2,40,100,4
2,40,100,4
2,36,100,4
2,37,100,4
2,38,100,4
2,39,100,4
2,40,100,4
2,40,100,4
2,40,100,4
2,40,100,4
2,40,100,4
2,40,100,4
2,36,100,4
2,37,100,4
2,38,100,4
2,39,100,4
2,40,100,4
2,40,100,4
2,36,100,4
2,37,100,4
2,38,100,4
2,39,100,4
2,39,100,4
2,40,100,4
2,40,100,4
3,67,100,20352
3,63,100,100
3,65,100,100
3,67,100,484
3,63,100,100
3,62,100,100
3,60,60,100
3,67,100,4
3,63,100,100
3,65,100,100
3,67,100,484
3,63,100,100
3,62,100,100
3,60,60,100
3,68,100,4
3,67,100,100
3,68,100,100
3,68,100,484
3,67,100,100
3,63,100,100
3,60,60,100
3,67,100,4
3,63,100,100
3,65,100,100
3,67,100,484
3,63,100,100
3,62,100,100
3,58,60,100
3,67,100,4612
3,63,100,100
3,65,100,100
3,67,100,484
3,63,100,100
3,62,100,100
3,60,70,100
3,62,80,100
3,60,81,4
3,58,83,4
3,60,85,4
3,62,86,4
3,60,88,4
3,60,91,4
3,62,93,4
3,60,95,4
3,58,96,4
3,60,98,4
3,62,100,4
3,55,40,4
3,63,40,0
3,61,41,4
3,56,41,0
3,60,42,4
3,56,42,0
3,58,44,4
3,62,44,0
3,55,45,4
3,63,45,0
3,61,47,4
3,56,47,0
3,60,48,4
3,56,48,0
3,58,50,4
3,62,50,0
3,63,51,4
3,55,51,0
3,61,53,4
3,56,53,0
3,56,54,4
3,60,54,0
3,62,56,4
3,58,56,0
3,55,57,4
3,63,57,0
3,58,57,0
3,55,60,4
3,62,60,0
3,67,100,388
3,63,100,100
3,65,100,100
3,67,100,484
3,63,100,100
3,62,100,100
3,60,60,100
3,67,100,4
3,63,100,100
3,65,100,100
3,67,100,484
3,63,100,100
3,62,100,100
3,60,60,100
3,68,100,4
3,67,100,100
3,68,100,100
3,68,100,484
3,67,100,100
3,63,100,100
3,60,60,100
3,67,100,4
3,63,100,100
3,65,100,100
3,67,100,484
3,63,100,100
3,62,100,100
3,58,60,100
3,67,100,4612
3,63,100,100
3,65,100,100
3,67,100,484
3,63,100,100
3,62,100,100
3,60,70,100
3,60,90,4
3,60,85,4
3,60,80,4
3,58,75,4
3,58,70,4
3,58,65,4
3,58,60,4
3,59,55,4
3,59,55,4
3,59,50,3076
3,64,53,4
3,62,57,4
3,64,60,4
3,59,64,4
3,64,67,4
3,62,71,4
3,64,75,4
3,66,78,4
3,62,82,4
3,66,85,4
3,62,89,4
3,64,92,4
3,62,96,4
3,59,100,4
3,64,60,4
3,59,50,16
3,67,60,4
3,64,53,4
3,66,60,4
3,62,57,4
3,67,60,4
3,64,60,4
3,64,60,4
