track,note,velocity,time
3,62,98,351
3,57,101,29
3,55,104,59
3,62,96,15
3,57,98,18
3,55,91,21
3,62,93,36
3,57,104,25
3,55,93,35
3,54,65,24
3,55,83,5
3,55,91,49
3,62,91,11
3,57,89,11
3,55,85,39
3,62,89,19
3,57,85,14
3,55,91,35
3,62,87,38
3,57,91,19
3,55,89,50
3,54,71,13
3,55,85,6
3,62,89,49
3,57,98,13
3,55,104,19
3,62,96,15
3,57,98,18
3,55,91,21
3,62,93,36
3,57,104,25
3,55,93,35
3,54,65,24
3,55,83,5
3,55,91,49
3,62,91,11
3,57,89,11
3,55,85,39
3,62,89,19
3,57,85,14
3,55,91,35
3,62,87,38
3,57,91,19
3,55,89,50
3,54,71,13
3,55,85,6
3,55,85,33
3,67,86,226
3,62,80,192
3,55,65,60
3,64,80,1
3,55,69,192
3,62,80,192
3,55,67,25
3,62,80,145
3,60,87,160
3,52,74,189
3,55,71,191
3,60,81,192
3,50,67,119
3,57,72,57
3,62,66,192
3,59,83,2
3,43,69,0
3,50,73,192
3,55,80,192
3,48,72,173
3,55,62,49
3,55,73,135
3,62,69,1
3,50,62,0
3,50,77,36
3,57,70,192
3,59,87,192
3,43,77,15
3,50,74,192
3,62,91,156
3,55,81,0
3,67,85,192
3,62,81,2
3,43,77,0
3,50,74,184
3,43,77,10
3,62,87,0
3,42,71,9
3,40,81,10
3,64,71,370
3,55,70,1
3,59,64,0
3,52,63,1
3,40,79,101
3,59,56,157
3,52,67,1
3,64,57,0
3,55,67,1
3,47,83,190
3,52,81,168
3,62,71,190
3,50,62,1
3,57,63,0
3,50,61,113
3,66,57,196
3,62,77,33
3,50,67,105
3,64,63,196
3,52,61,1
3,55,62,0
3,59,59,0
3,64,68,0
3,52,67,87
3,52,59,88
3,59,62,0
3,55,68,1
3,64,61,23
3,59,63,0
3,55,64,1
3,52,62,1
3,64,83,71
3,66,57,33
3,50,62,1
3,62,71,1
3,57,56,1
3,57,59,14
3,50,51,5
3,57,67,8
3,66,53,2
3,62,67,1
3,64,75,306
3,50,67,130
3,64,75,79
3,59,62,0
3,52,62,0
3,55,63,1
3,52,68,2
3,59,59,24
3,64,59,1
3,55,66,1
3,52,56,0
3,52,61,117
3,59,70,1
3,55,68,0
3,64,77,104
3,59,71,1
3,52,67,1
3,55,86,1
3,52,64,68
3,55,72,43
3,52,86,0
3,53,45,132
3,54,66,59
3,62,101,147
3,54,63,21
3,64,81,191
3,64,86,78
3,52,68,12
3,52,61,50
3,59,55,0
3,55,68,3
3,59,52,1
3,64,56,0
3,52,55,2
3,55,59,1
3,59,64,1
3,52,60,1
3,55,64,1
3,52,60,72
3,64,77,3
3,52,57,59
3,59,51,1
3,55,67,2
3,52,67,46
3,62,68,2
3,57,66,1
3,50,63,0
3,54,51,0
3,50,68,56
3,62,82,56
3,50,64,67
3,54,59,100
3,57,59,0
3,47,104,3
3,45,91,22
3,67,63,23
3,50,59,1
3,62,73,1
3,55,62,1
3,59,63,0
3,43,57,1
3,67,68,9
3,50,63,1
3,43,68,1
3,62,75,0
3,59,63,1
3,55,64,1
3,50,68,109
3,62,62,1
3,55,57,1
3,59,55,0
3,43,59,1
3,67,67,93
3,62,70,2
3,43,62,0
3,50,64,1
3,55,58,1
3,59,73,0
3,43,73,26
3,50,79,39
3,67,61,1
3,62,79,1
3,59,71,1
3,50,57,1
3,43,58,0
3,55,64,0
3,50,57,8
3,67,59,0
3,43,61,1
3,62,77,1
3,59,66,0
3,62,73,70
3,59,67,0
3,67,64,1
3,55,57,55
3,43,59,11
3,50,59,0
3,62,51,5
3,59,78,2
3,43,78,0
3,55,67,0
3,62,83,41
3,67,77,69
3,59,80,0
3,62,69,0
3,43,89,109
3,48,77,7
3,55,78,191
3,62,96,192
3,48,76,74
3,50,81,35
3,54,59,0
3,57,87,14
3,54,47,9
3,57,83,0
3,62,72,0
3,50,83,191
3,43,78,38
3,50,71,191
3,62,66,194
3,55,85,0
3,50,67,106
3,47,86,7
3,55,60,189
3,62,67,191
3,59,77,0
3,55,70,183
3,48,93,12
3,55,69,167
3,62,80,192
3,57,81,100
3,55,86,30
3,50,85,0
3,54,71,192
3,62,87,185
3,43,85,168
3,62,77,16
3,50,76,3
3,55,77,189
3,62,91,76
3,59,91,79
3,55,78,0
3,55,83,1
3,59,85,0
3,62,76,0
3,62,63,87
3,59,85,71
3,55,81,0
3,52,73,0
3,64,87,203
3,55,98,99
3,52,87,192
3,45,91,13
3,52,69,190
3,60,83,16
3,54,69,164
3,50,87,0
3,54,71,52
3,57,67,196
3,59,83,192
3,43,69,176
3,50,73,182
3,67,80,192
3,55,80,0
3,60,72,0
3,48,72,0
3,55,62,66
3,55,73,135
3,62,69,1
3,50,62,0
3,50,77,36
3,57,70,192
3,67,87,192
3,43,77,15
3,67,96,48
3,55,72,2
3,62,83,1
3,59,76,0
3,67,85,73
3,59,70,3
3,62,91,1
3,55,71,1
3,43,77,5
3,67,98,39
3,62,93,2
3,59,78,0
3,43,77,67
3,42,71,9
3,40,91,195
3,64,81,370
3,55,80,1
3,59,74,0
3,52,73,1
3,40,89,101
3,59,66,157
3,52,77,1
3,64,67,0
3,55,77,1
3,47,93,190
3,52,91,168
3,62,81,190
3,50,72,1
3,57,73,0
3,50,71,113
3,66,67,196
3,62,87,33
3,50,77,105
3,64,73,196
3,52,71,1
3,55,72,0
3,59,69,0
3,64,78,0
3,52,77,87
3,52,69,88
3,59,72,0
3,55,78,1
3,64,71,23
3,59,73,0
3,55,74,1
3,52,72,1
3,64,93,71
3,52,92,30
3,66,67,3
3,62,81,2
3,57,66,1
3,54,92,88
3,62,99,15
3,50,61,4
3,57,77,8
3,66,63,2
3,62,77,1
3,64,85,306
3,50,77,130
3,64,85,79
3,59,72,0
3,52,72,0
3,55,73,1
3,59,69,24
3,64,69,1
3,55,76,1
3,52,66,0
3,52,71,117
3,59,80,1
3,55,78,0
3,64,87,104
3,59,81,1
3,52,77,1
3,55,96,1
3,52,74,68
3,55,82,43
3,54,63,13
3,57,89,3
3,62,89,3
3,50,72,5
3,57,83,7
3,54,55,1
3,50,74,8
3,54,63,42
3,50,89,9
3,57,93,1
3,62,104,3
3,62,104,75
3,64,96,47
3,52,78,189
3,52,71,50
3,59,65,0
3,55,78,3
3,59,62,1
3,64,66,0
3,52,65,2
3,55,69,1
3,59,74,1
3,52,70,1
3,55,74,1
3,52,70,72
3,64,87,3
3,52,67,59
3,59,61,1
3,55,77,2
3,52,77,46
3,52,96,0
3,53,55,132
3,54,76,29
3,62,111,147
3,50,74,17
3,62,92,191
3,54,69,2
3,57,69,0
3,47,114,3
3,45,101,22
3,67,73,23
3,50,69,1
3,62,83,1
3,55,72,1
3,59,73,0
3,43,67,1
3,67,78,9
3,50,73,1
3,43,78,1
3,62,85,0
3,59,73,1
3,55,74,1
3,50,78,109
3,62,72,1
3,55,67,1
3,59,65,0
3,43,69,1
3,67,77,93
3,62,80,2
3,43,72,0
3,50,74,1
3,55,68,1
3,59,83,0
3,43,83,26
3,50,89,39
3,67,71,1
3,62,89,1
3,59,81,1
3,50,67,1
3,43,68,0
3,55,74,0
3,67,87,206
3,55,80,0
3,59,80,0
3,62,85,1
3,67,71,63
3,55,83,3
3,59,87,0
3,62,89,1
3,55,55,92
3,48,85,2
3,64,74,91
3,67,61,2
3,60,73,0
3,55,69,1
3,55,76,64
3,64,68,0
3,67,68,1
3,60,80,1
3,55,59,55
3,60,59,2
3,62,65,74
3,66,71,1
3,57,70,0
3,50,96,4
3,66,52,71
3,62,85,1
3,57,81,0
3,57,59,13
3,59,80,99
3,67,76,0
3,43,80,1
3,62,77,1
3,55,74,1
3,67,74,83
3,59,80,1
3,55,72,0
3,62,61,2
3,55,61,65
3,62,61,1
3,59,61,0
3,43,87,65
3,67,68,1
3,59,76,1
3,55,74,1
3,62,85,1
3,67,66,75
3,59,77,1
3,55,78,1
3,62,85,1
3,62,57,63
3,59,57,1
3,55,59,1
3,48,85,10
3,67,60,71
3,55,70,1
3,64,83,0
3,60,62,1
3,55,74,73
3,60,72,1
3,64,72,0
3,67,70,1
3,55,57,68
3,60,57,1
3,64,57,1
3,62,87,82
3,57,74,2
3,66,67,1
3,50,96,20
3,66,59,72
3,57,81,1
3,62,91,1
3,57,55,1
3,59,74,94
3,62,73,1
3,67,87,1
3,55,77,3
3,43,80,10
3,67,74,59
3,59,74,1
3,62,78,0
3,55,76,1
3,62,55,61
3,59,55,0
3,55,55,1
3,43,87,88
3,67,89,6
3,59,91,0
3,55,83,0
3,62,77,0
3,55,71,15
3,62,73,112
3,67,63,1
3,55,62,1
3,59,68,0
3,59,83,45
3,64,91,1
3,55,81,1
3,52,101,6
3,67,72,65
3,64,83,1
3,59,83,0
3,55,74,1
3,55,67,97
3,60,73,67
3,64,87,0
3,57,73,2
3,69,78,1
3,45,80,3
3,57,73,85
3,69,63,2
3,60,73,0
3,64,77,1
3,57,76,18
3,69,56,58
3,50,87,3
3,66,56,1
3,57,64,1
3,62,66,1
3,57,73,57
3,69,64,2
3,62,78,0
3,66,57,1
3,62,60,40
3,57,62,0
3,67,78,16
3,55,80,0
3,59,81,0
3,62,87,0
3,43,91,5
3,55,77,42
3,59,69,110
3,55,70,1
3,62,74,2
3,67,68,1
3,60,80,48
3,48,104,2
3,55,70,0
3,67,59,1
3,64,85,1
3,55,72,117
3,64,74,2
3,67,69,0
3,60,73,0
3,55,72,73
3,60,67,0
3,64,64,2
3,62,98,80
3,66,75,1
3,57,81,0
3,50,85,26
3,57,72,32
3,57,70,104
3,66,57,2
3,62,69,1
3,43,89,23
3,67,83,5
3,59,77,1
3,62,83,0
3,59,78,97
3,67,81,1
3,62,74,0
3,55,72,1
3,55,73,49
3,59,69,82
3,62,71,1
3,67,72,0
3,55,66,0
3,43,114,58
3,67,62,5
3,55,77,2
3,59,74,0
3,62,78,1
3,42,81,2
3,55,63,10
3,40,91,2
3,64,81,384
3,55,80,1
3,59,74,0
3,52,73,1
3,40,89,101
3,59,66,157
3,52,77,1
3,64,67,0
3,55,77,1
3,47,93,190
3,52,91,168
3,62,81,190
3,50,72,1
3,57,73,0
3,50,71,113
3,66,67,196
3,62,87,33
3,50,77,105
3,64,73,196
3,52,71,1
3,55,72,0
3,59,69,0
3,64,78,0
3,52,77,87
3,52,69,88
3,59,72,0
3,55,78,1
3,64,71,23
3,59,73,0
3,55,74,1
3,52,72,1
3,64,93,71
3,52,92,30
3,66,67,3
3,62,81,2
3,57,66,1
3,54,92,88
3,62,99,15
3,50,61,4
3,57,77,8
3,66,63,2
3,62,77,1
3,64,85,306
3,50,77,130
3,64,85,79
3,59,72,0
3,52,72,0
3,55,73,1
3,59,69,24
3,64,69,1
3,55,76,1
3,52,66,0
3,52,71,117
3,59,80,1
3,55,78,0
3,64,87,104
3,59,81,1
3,52,77,1
3,55,96,1
3,52,74,68
3,55,82,43
3,54,63,13
3,57,89,3
3,62,89,3
3,50,72,5
3,57,83,7
3,54,55,1
3,50,74,8
3,54,63,42
3,50,89,9
3,57,93,1
3,62,104,3
3,62,104,75
3,64,96,47
3,52,78,189
3,52,71,50
3,59,65,0
3,55,78,3
3,59,62,1
3,64,66,0
3,52,65,2
3,55,69,1
3,59,74,1
3,52,70,1
3,55,74,1
3,52,70,72
3,64,87,3
3,52,67,59
3,59,61,1
3,55,77,2
3,52,77,46
3,52,96,0
3,53,55,132
3,54,76,29
3,62,111,147
3,50,74,17
3,62,92,191
3,54,69,2
3,57,69,0
3,47,114,3
3,45,101,22
3,67,73,23
3,50,69,1
3,62,83,1
3,55,72,1
3,59,73,0
3,43,67,1
3,67,78,9
3,50,73,1
3,43,78,1
3,62,85,0
3,59,73,1
3,55,74,1
3,50,78,109
3,62,72,1
3,55,67,1
3,59,65,0
3,43,69,1
3,67,77,93
3,62,80,2
3,43,72,0
3,50,74,1
3,55,68,1
3,59,83,0
3,43,83,26
3,50,89,39
3,43,98,23
3,67,71,1
3,62,89,1
3,59,81,1
3,50,67,1
3,55,74,1
3,47,96,128
3,62,96,0
3,47,74,14
3,57,98,0
3,55,104,19
3,62,96,15
3,57,98,18
3,48,74,2
3,55,91,21
3,62,93,36
3,57,104,25
3,50,74,9
3,55,93,35
3,54,65,24
3,55,83,5
3,55,91,49
3,62,91,11
3,57,89,11
3,47,74,189
3,55,85,39
3,62,89,19
3,57,85,14
3,48,74,3
3,55,91,35
3,62,87,38
3,57,91,19
3,50,74,2
3,55,89,50
3,54,71,13
3,55,85,6
3,55,85,33
3,47,93,192
3,59,93,0
3,40,91,3
3,64,81,13
3,55,80,1
3,59,74,0
3,52,73,1
3,40,89,101
3,59,66,157
3,52,77,1
3,64,67,0
3,55,77,1
3,47,93,190
3,52,91,168
3,62,81,190
3,50,72,1
3,57,73,0
3,50,71,113
3,66,67,196
3,62,87,33
3,50,77,105
3,64,73,196
3,52,71,1
3,55,72,0
3,59,69,0
3,64,78,0
3,52,77,87
3,52,69,88
3,59,72,0
3,55,78,1
3,64,71,23
3,59,73,0
3,55,74,1
3,52,72,1
3,64,93,71
3,52,92,30
3,66,67,3
3,62,81,2
3,57,66,1
3,54,92,88
3,62,99,15
3,50,61,4
3,57,77,8
3,66,63,2
3,62,77,1
3,64,85,306
3,50,77,130
3,64,85,79
3,59,72,0
3,52,72,0
3,55,73,1
3,59,69,24
3,64,69,1
3,55,76,1
3,52,66,0
3,52,71,117
3,59,80,1
3,55,78,0
3,64,87,104
3,59,81,1
3,52,77,1
3,55,96,1
3,52,74,68
3,55,82,43
3,54,63,13
3,57,89,3
3,62,89,3
3,50,72,5
3,57,83,7
3,54,55,1
3,50,74,8
3,54,63,42
3,50,89,9
3,57,93,1
3,62,104,3
3,62,104,75
3,64,96,47
3,52,78,189
3,52,71,50
3,59,65,0
3,55,78,3
3,59,62,1
3,64,66,0
3,52,65,2
3,55,69,1
3,59,74,1
3,52,70,1
3,55,74,1
3,52,70,72
3,64,87,3
3,52,67,59
3,59,61,1
3,55,77,2
3,52,77,46
3,54,63,13
3,57,89,3
3,62,89,3
3,50,72,5
3,57,83,7
3,54,55,1
3,50,74,8
3,54,63,42
3,50,89,9
3,57,93,1
3,62,104,3
3,62,104,75
3,64,96,47
3,52,78,189
3,47,93,1
3,59,93,0
3,40,91,3
3,64,81,13
3,55,80,1
3,59,74,0
3,52,73,1
3,40,89,101
3,59,66,157
3,52,77,1
3,64,67,0
3,55,77,1
3,47,93,190
3,52,91,168
3,62,81,190
3,50,72,1
3,57,73,0
3,50,71,113
3,66,67,196
3,62,87,33
3,50,77,105
3,64,73,196
3,52,71,1
3,55,72,0
3,59,69,0
3,64,78,0
3,52,77,87
3,52,69,88
3,59,72,0
3,55,78,1
3,64,71,23
3,59,73,0
3,55,74,1
3,52,72,1
3,64,93,71
3,52,92,30
3,66,67,3
3,62,81,2
3,57,66,1
3,54,92,88
3,62,99,15
3,50,61,4
3,57,77,8
3,66,63,2
3,62,77,1
3,62,87,303
3,50,77,122
3,64,73,196
3,52,71,1
3,55,72,1
3,59,69,0
3,59,72,0
3,52,72,0
3,55,73,1
3,59,69,24
3,64,69,1
3,55,76,1
3,52,66,0
3,52,71,117
3,59,80,1
3,55,78,0
3,64,87,104
3,59,81,1
3,52,77,1
3,55,96,1
3,52,74,68
3,55,82,43
3,54,63,13
3,57,89,3
3,62,89,3
3,50,72,5
3,57,83,7
3,54,55,1
3,50,74,8
3,54,63,42
3,50,89,9
3,57,93,1
3,62,104,3
3,62,104,75
3,64,96,47
3,52,78,189
3,52,71,50
3,59,65,0
3,55,78,3
3,59,62,1
3,64,66,0
3,52,65,2
3,55,69,1
3,59,74,1
3,52,70,1
3,55,74,1
3,52,70,72
3,64,87,3
3,52,67,59
3,59,61,1
3,55,77,2
3,52,77,46
3,52,96,0
3,53,55,132
3,54,76,29
3,62,111,147
3,50,74,17
3,62,92,191
3,54,69,2
3,57,69,0
3,47,114,3
