track,note,velocity,time
1,67,114,2880
1,70,109,60
1,67,0,9
1,69,111,51
1,70,0,1
1,65,106,59
1,69,0,1
1,62,102,179
1,65,0,2
1,62,0,37
1,60,97,0
1,60,0,59
1,62,104,1
1,62,0,1
1,67,112,119
1,70,116,60
1,67,0,8
1,70,0,52
1,69,100,0
1,69,0,57
1,65,106,3
1,69,106,180
1,65,0,14
1,70,113,46
1,69,0,2
1,70,0,57
1,67,108,1
1,67,0,6
1,62,106,65
1,62,0,58
1,67,108,2
1,70,113,60
1,67,0,3
1,69,98,57
1,70,0,1
1,65,108,59
1,69,0,2
1,62,108,178
1,65,0,4
1,62,0,21
1,60,92,0
1,62,106,60
1,60,0,1
1,62,0,64
1,67,114,115
1,70,104,60
1,67,0,5
1,70,0,55
1,69,100,0
1,69,0,58
1,65,108,2
1,69,104,180
1,65,0,11
1,70,113,49
1,69,0,5
1,70,0,54
1,67,110,1
1,67,0,18
1,67,115,99
1,70,108,60
1,67,0,3
1,70,0,56
1,69,110,1
1,69,0,60
1,65,108,0
1,62,95,180
1,65,0,11
1,62,0,11
1,60,106,8
1,62,108,60
1,60,0,1
1,62,0,31
1,67,106,103
1,70,116,60
1,67,0,12
1,70,0,47
1,69,106,1
1,69,0,58
1,65,108,2
1,69,106,180
1,65,0,9
1,70,113,51
1,69,0,3
1,70,0,55
1,67,112,2
1,67,0,6
1,62,100,57
1,67,106,60
1,62,0,1
1,67,0,58
1,70,101,1
1,70,0,58
1,69,108,2
1,65,112,60
1,69,0,1
1,62,110,179
1,65,0,9
1,62,0,16
1,60,97,3
1,60,0,56
1,62,110,4
1,62,0,40
1,67,112,113
1,70,105,60
1,67,0,5
1,70,0,50
1,69,111,5
1,69,0,59
1,65,114,1
1,69,108,180
1,65,0,12
1,70,110,48
1,69,0,2
1,70,0,56
1,67,110,2
1,67,0,57
1,67,95,31
1,67,0,240
1,65,98,0
1,70,92,88
1,65,0,5
1,70,0,111
1,65,92,4
1,62,100,240
1,65,0,14
1,65,91,106
1,62,0,2
1,65,0,110
1,65,91,8
1,65,0,230
1,60,91,10
1,65,92,120
1,60,0,8
1,65,0,96
1,65,92,16
1,65,0,446
1,67,95,34
1,67,0,237
1,65,91,3
1,70,91,80
1,65,0,4
1,70,0,110
1,65,88,6
1,62,95,240
1,65,0,6
1,65,92,114
1,62,0,7
1,65,0,101
1,65,92,12
1,60,96,240
1,65,0,4
1,65,92,116
1,60,0,5
1,66,97,115
1,65,0,3
1,66,0,7
1,67,116,3
1,70,109,60
1,67,0,9
1,69,110,51
1,70,0,1
1,65,106,59
1,69,0,1
1,62,102,179
1,65,0,2
1,62,0,37
1,60,97,0
1,60,0,59
1,62,104,1
1,62,0,19
1,67,112,119
1,70,116,60
1,67,0,8
1,70,0,52
1,69,100,0
1,69,0,57
1,65,106,3
1,69,106,180
1,65,0,14
1,70,113,46
1,69,0,2
1,70,0,57
1,67,108,1
1,67,0,2
1,62,106,88
1,62,0,58
1,67,108,2
1,70,113,60
1,67,0,3
1,69,98,57
1,70,0,1
1,65,108,59
1,69,0,2
1,62,108,178
1,65,0,4
1,62,0,22
1,60,92,0
1,62,106,60
1,60,0,1
1,62,0,25
1,67,114,115
1,70,104,60
1,67,0,5
1,70,0,55
1,69,100,0
1,69,0,58
1,65,108,2
1,69,104,180
1,65,0,11
1,70,113,49
1,69,0,5
1,70,0,54
1,67,110,1
1,67,0,4
1,67,95,3922
1,67,0,240
1,65,98,0
1,70,94,92
1,65,0,5
1,70,0,111
1,65,92,4
1,62,100,240
1,65,0,14
1,65,91,106
1,62,0,4
1,65,0,108
1,65,92,8
1,65,0,230
1,60,91,10
1,65,90,120
1,60,0,8
1,65,0,96
1,65,92,16
1,65,0,366
1,67,95,114
1,67,0,237
1,65,91,3
1,70,91,89
1,65,0,4
1,70,0,110
1,65,88,6
1,62,95,240
1,65,0,6
1,65,91,114
1,62,0,7
1,65,0,101
1,65,91,12
1,60,102,240
1,65,0,4
1,65,92,116
1,60,0,5
1,66,97,115
1,65,0,3
1,66,0,14
1,67,109,3
1,70,103,60
1,67,0,9
1,69,99,51
1,70,0,1
1,65,100,59
1,69,0,1
1,62,102,179
1,65,0,2
1,62,0,43
1,60,97,0
1,60,0,59
1,62,104,1
1,62,0,23
1,67,112,119
1,70,116,60
1,67,0,8
1,70,0,52
1,69,100,0
1,69,0,57
1,65,106,3
1,69,106,180
1,65,0,14
1,70,113,46
1,69,0,2
1,70,0,57
1,67,108,1
1,67,0,8
1,62,106,91
1,62,0,58
1,67,108,2
1,70,113,60
1,67,0,3
1,69,98,57
1,70,0,1
1,65,108,59
1,69,0,2
1,62,108,178
1,65,0,4
1,62,0,21
1,60,92,0
1,62,106,60
1,60,0,1
1,62,0,28
1,67,114,115
1,70,104,60
1,67,0,5
1,70,0,55
1,69,100,0
1,69,0,58
1,65,108,2
1,69,104,180
1,65,0,11
1,70,113,49
1,69,0,5
1,70,0,54
1,67,110,1
1,67,0,27
1,66,67,480
1,67,63,480
1,66,0,3
1,67,0,4
2,62,91,2880
2,67,97,10
2,70,93,50
2,67,0,6
2,62,0,1
2,69,77,53
2,70,0,39
2,69,0,10
2,65,91,11
2,62,92,0
2,62,0,154
2,65,0,26
2,62,94,0
2,62,0,58
2,60,80,2
2,60,0,40
2,62,73,20
2,58,79,0
2,58,0,320
2,62,0,2
2,62,83,158
2,67,90,10
2,62,0,42
2,70,85,8
2,67,0,16
2,69,94,44
2,70,0,20
2,69,0,34
2,65,91,6
2,69,94,180
2,65,0,19
2,69,0,41
2,70,89,0
2,70,0,45
2,67,80,15
2,63,87,0
2,63,0,286
2,67,0,66
2,62,87,68
2,62,0,58
2,62,80,2
2,67,88,10
2,70,95,50
2,67,0,10
2,62,0,2
2,69,95,48
2,70,0,11
2,69,0,46
2,65,100,3
2,65,0,170
2,62,78,10
2,60,94,60
2,62,0,17
2,60,0,26
2,62,80,17
2,58,91,0
2,58,0,289
2,62,0,6
2,62,88,185
2,67,95,10
2,62,0,35
2,70,87,15
2,67,0,11
2,69,90,49
2,70,0,16
2,69,0,33
2,65,85,11
2,62,86,0
2,62,0,173
2,69,84,7
2,65,0,23
2,69,0,35
2,70,85,2
2,70,0,44
2,62,74,16
2,67,74,0
2,62,0,330
2,67,0,5
2,62,91,145
2,67,97,10
2,70,93,50
2,67,0,6
2,62,0,1
2,69,77,53
2,70,0,39
2,69,0,10
2,65,91,11
2,62,92,0
2,62,0,154
2,65,0,26
2,62,94,0
2,62,0,58
2,60,80,2
2,60,0,40
2,62,73,20
2,58,79,0
2,58,0,320
2,62,0,2
2,62,83,158
2,67,90,10
2,62,0,42
2,70,85,8
2,67,0,16
2,69,94,44
2,70,0,20
2,69,0,34
2,65,91,6
2,69,94,180
2,65,0,19
2,69,0,41
2,70,89,0
2,70,0,45
2,67,80,15
2,63,87,0
2,63,0,286
2,67,0,66
2,62,87,68
2,62,0,58
2,62,80,2
2,67,88,10
2,70,95,50
2,67,0,10
2,62,0,2
2,69,95,48
2,70,0,11
2,69,0,46
2,65,100,3
2,65,0,170
2,62,78,10
2,60,94,60
2,62,0,17
2,60,0,26
2,62,80,17
2,58,91,0
2,58,0,289
2,62,0,6
2,62,88,185
2,67,95,10
2,62,0,35
2,70,87,15
2,67,0,11
2,69,90,49
2,70,0,16
2,69,0,33
2,65,85,11
2,62,86,0
2,62,0,173
2,69,84,7
2,65,0,23
2,69,0,35
2,70,85,2
2,70,0,44
2,62,74,16
2,67,74,0
2,62,0,330
2,67,0,5
2,63,85,145
2,67,81,0
2,67,0,219
2,63,0,6
2,65,77,15
2,65,0,114
2,63,64,6
2,70,74,0
2,70,0,87
2,63,0,9
2,62,76,24
2,65,67,0
2,65,0,201
2,62,0,2
2,62,64,37
2,58,82,0
2,58,0,70
2,62,0,22
2,62,80,28
2,65,78,0
2,62,0,87
2,65,0,3
2,65,80,30
2,57,80,0
2,60,85,0
2,65,0,173
2,60,0,4
2,57,0,5
2,53,76,58
2,57,78,0
2,60,70,0
2,53,0,69
2,57,0,5
2,60,0,3
2,60,75,43
2,57,67,0
2,65,80,0
2,57,0,60
2,60,0,5
2,65,0,4
2,58,87,51
2,62,86,0
2,62,0,168
2,58,0,10
2,58,81,62
2,53,69,0
2,62,76,0
2,53,0,148
2,58,0,5
2,62,0,4
2,63,85,83
2,67,78,0
2,67,0,204
2,63,0,6
2,65,87,30
2,65,0,104
2,63,74,16
2,70,84,0
2,70,0,88
2,63,0,3
2,62,81,29
2,65,79,0
2,65,0,178
2,62,0,14
2,58,82,48
2,62,78,0
2,58,0,71
2,62,0,5
2,62,87,44
2,65,80,0
2,65,0,71
2,62,0,5
2,65,80,44
2,57,80,0
2,60,85,0
2,65,0,173
2,60,0,4
2,57,0,5
2,53,76,58
2,57,78,0
2,60,70,0
2,53,0,69
2,57,0,5
2,60,0,3
2,60,75,43
2,57,67,0
2,65,80,0
2,57,0,60
2,60,0,5
2,65,0,4
2,57,69,51
2,62,77,0
2,66,75,0
2,66,0,720
2,62,0,5
2,57,0,0
2,62,91,115
2,67,97,10
2,70,93,50
2,67,0,6
2,62,0,1
2,69,77,53
2,70,0,39
2,69,0,10
2,65,91,11
2,62,92,0
2,62,0,154
2,65,0,26
2,62,94,0
2,62,0,58
2,60,80,2
2,60,0,40
2,62,73,20
2,58,79,0
2,58,0,320
2,62,0,2
2,62,83,158
2,67,90,10
2,62,0,42
2,70,85,8
2,67,0,16
2,69,94,44
2,70,0,20
2,69,0,34
2,65,91,6
2,69,94,180
2,65,0,19
2,69,0,41
2,70,89,0
2,70,0,45
2,67,80,15
2,63,87,0
2,63,0,286
2,67,0,66
2,62,87,68
2,62,0,58
2,62,80,2
2,67,88,10
2,70,95,50
2,67,0,10
2,62,0,2
2,69,95,48
2,70,0,11
2,69,0,46
2,65,100,3
2,65,0,170
2,62,78,10
2,60,94,60
2,62,0,17
2,60,0,26
2,62,80,17
2,58,91,0
2,58,0,289
2,62,0,6
2,62,88,185
2,67,95,10
2,62,0,35
2,70,87,15
2,67,0,11
2,69,90,49
2,70,0,16
2,69,0,33
2,65,85,11
2,62,86,0
2,62,0,173
2,69,84,7
2,65,0,23
2,69,0,35
2,70,85,2
2,70,0,44
2,62,74,16
2,67,74,0
2,62,0,330
2,67,0,5
2,58,91,1
2,62,97,10
2,67,93,50
2,62,0,6
2,58,0,1
2,67,0,52
2,70,93,1
2,70,0,59
2,69,92,1
2,65,91,0
2,69,0,154
2,65,0,26
2,65,94,0
2,65,0,58
2,62,80,2
2,62,0,59
2,65,79,1
2,62,73,0
2,65,0,200
2,62,0,2
2,58,83,278
2,62,90,15
2,58,0,37
2,67,85,8
2,62,0,21
2,67,0,38
2,70,94,1
2,70,0,54
2,69,91,6
2,65,91,0
2,65,94,180
2,65,0,19
2,69,0,0
2,65,0,41
2,69,89,0
2,69,0,59
2,63,87,1
2,67,80,0
2,63,0,166
2,67,0,36
2,62,87,218
2,62,0,58
2,62,80,2
2,67,88,10
2,70,95,50
2,67,0,10
2,62,0,2
2,70,0,47
2,69,95,1
2,69,0,57
2,65,100,3
2,65,0,170
2,62,78,10
2,60,94,60
2,62,0,17
2,60,0,42
2,58,91,1
2,62,80,0
2,58,0,169
2,62,0,6
2,58,88,305
2,62,95,15
2,58,0,30
2,67,87,15
2,62,0,16
2,67,0,43
2,70,90,1
2,70,0,59
2,69,86,1
2,65,85,0
2,69,0,173
2,65,84,7
2,65,0,23
2,65,0,35
2,69,85,2
2,69,0,59
2,62,74,1
2,67,74,0
2,62,0,210
2,67,0,5
2,63,85,0
2,67,81,0
2,67,0,219
2,63,0,6
2,65,77,15
2,65,0,114
2,63,64,6
2,70,74,0
2,70,0,87
2,63,0,9
2,62,76,24
2,65,67,0
2,65,0,201
2,62,0,2
2,62,64,37
2,58,82,0
2,58,0,70
2,62,0,22
2,62,80,28
2,65,78,0
2,62,0,87
2,65,0,3
2,65,80,30
2,57,80,0
2,60,85,0
2,65,0,173
2,60,0,4
2,57,0,5
2,53,76,58
2,57,78,0
2,60,70,0
2,53,0,69
2,57,0,5
2,60,0,3
2,60,75,43
2,57,67,0
2,65,80,0
2,57,0,60
2,60,0,5
2,65,0,4
2,58,87,51
2,62,86,0
2,62,0,168
2,58,0,10
2,58,81,62
2,53,69,0
2,62,76,0
2,53,0,148
2,58,0,5
2,62,0,4
2,63,85,83
2,67,78,0
2,67,0,204
2,63,0,6
2,65,87,30
2,65,0,104
2,63,74,16
2,70,84,0
2,70,0,88
2,63,0,3
2,62,81,29
2,65,79,0
2,65,0,178
2,62,0,14
2,58,82,48
2,62,78,0
2,58,0,71
2,62,0,5
2,62,87,44
2,65,80,0
2,65,0,71
2,62,0,5
2,65,80,44
2,57,80,0
2,60,85,0
2,65,0,173
2,60,0,4
2,57,0,5
2,53,76,58
2,57,78,0
2,60,70,0
2,53,0,69
2,57,0,5
2,60,0,3
2,60,75,43
2,57,67,0
2,65,80,0
2,57,0,60
2,60,0,5
2,65,0,4
2,57,69,51
2,62,77,0
2,66,75,0
2,66,0,840
2,62,0,5
2,57,0,0
2,62,91,115
2,67,97,10
2,70,93,50
2,67,0,6
2,62,0,1
2,69,77,53
2,70,0,39
2,69,0,10
2,65,91,11
2,62,92,0
2,62,0,154
2,65,0,26
2,62,94,0
2,62,0,58
2,60,80,2
2,60,0,40
2,62,73,20
2,58,79,0
2,58,0,320
2,62,0,2
2,62,83,158
2,67,90,10
2,62,0,42
2,70,85,8
2,67,0,16
2,69,94,44
2,70,0,20
2,69,0,34
2,65,91,6
2,69,94,180
2,65,0,19
2,69,0,41
2,70,89,0
2,70,0,45
2,67,80,15
2,63,87,0
2,63,0,286
2,67,0,66
2,62,87,68
2,62,0,58
2,62,80,2
2,67,88,10
2,70,95,50
2,67,0,10
2,62,0,2
2,69,95,48
2,70,0,11
2,69,0,46
2,65,100,3
2,65,0,170
2,62,78,10
2,60,94,60
2,62,0,17
2,60,0,26
2,62,80,17
2,58,91,0
2,58,0,289
2,62,0,6
2,62,88,185
2,67,95,10
2,62,0,35
2,70,87,15
2,67,0,11
2,69,90,49
2,70,0,16
2,69,0,33
2,65,85,11
2,62,86,0
2,62,0,173
2,69,84,7
2,65,0,23
2,69,0,35
2,70,85,2
2,70,0,44
2,62,74,16
2,67,74,0
2,62,0,450
2,67,0,5
2,62,85,25
2,67,85,0
2,70,85,0
2,70,0,150
2,67,0,0
2,62,0,0
2,60,78,210
2,72,78,0
2,72,0,60
2,60,0,0
2,65,77,60
2,60,77,0
2,60,0,240
2,65,0,0
2,60,77,0
2,60,0,120
2,65,71,0
2,65,0,60
2,60,63,0
2,60,0,60
2,66,77,0
2,62,77,0
2,62,0,480
2,66,0,0
2,62,77,0
2,67,77,0
2,67,0,480
2,62,0,0
3,43,84,2880
3,43,0,59
3,50,70,1
3,50,0,59
3,55,78,1
3,55,0,22
3,38,80,1
3,38,0,55
3,45,71,1
3,45,0,59
3,50,73,1
3,50,0,59
3,53,80,1
3,53,0,29
3,46,81,0
3,53,66,43
3,58,85,60
3,58,0,180
3,53,0,0
3,46,0,0
3,45,91,60
3,45,0,59
3,43,97,44
3,43,0,53
3,50,80,1
3,50,0,59
3,55,81,1
3,55,0,18
3,38,94,1
3,38,0,50
3,45,76,1
3,45,0,59
3,50,80,1
3,50,0,59
3,53,81,1
3,53,0,59
3,39,87,13
3,46,73,54
3,39,0,60
3,51,104,0
3,51,0,120
3,46,0,60
3,41,98,60
3,41,0,59
3,43,88,48
3,43,0,54
3,50,79,1
3,50,0,59
3,55,85,1
3,55,0,29
3,38,83,1
3,38,0,59
3,45,76,1
3,45,0,59
3,50,84,1
3,50,0,59
3,53,87,1
3,53,0,59
3,46,91,14
3,53,72,55
3,58,95,60
3,58,0,180
3,53,0,0
3,46,0,0
3,45,94,60
3,45,0,59
3,43,92,51
3,43,0,53
3,50,80,1
3,50,0,59
3,55,90,1
3,55,0,3
