track,note,velocity,time
1,50,60,0
1,62,57,0
1,57,50,0
1,66,51,2
1,48,57,38
1,60,43,12
1,47,46,42
1,67,48,0
1,62,46,4
1,59,54,0
1,45,47,6
1,64,58,12
1,57,50,6
1,61,52,0
1,50,57,2
1,62,60,0
1,54,48,0
2,62,60,9248
2,59,32,12
2,62,59,0
2,63,44,422
2,64,55,8
2,62,58,12
2,62,59,72
2,66,54,176
2,67,62,12
2,66,58,764
2,62,58,6
2,64,57,16
2,62,59,8
2,62,60,28
2,59,57,14
2,62,63,36
2,64,59,20
2,62,51,0
2,64,50,12
2,62,58,36
2,62,59,30
2,66,58,8
2,67,59,10
2,66,58,6
2,62,55,4
2,64,58,0
2,62,59,3158
2,59,56,6
2,62,55,48
2,64,59,22
2,62,60,12
2,62,59,58
2,66,59,6
2,67,62,6
2,66,58,0
2,62,57,6
2,64,63,0
2,62,59,4
2,69,72,860
2,72,72,22
2,73,75,78
2,74,94,12
2,72,94,12
2,69,94,14
2,72,75,12
2,74,94,26
2,72,79,6
2,69,87,18
2,72,72,40
2,74,94,80
2,72,75,2
2,69,87,1194
2,72,79,24
2,74,100,90
2,72,84,16
2,69,94,12
2,72,74,26
2,74,100,92
2,76,87,28
2,69,87,20
2,72,74,26
2,74,87,100
2,72,79,16
2,69,79,1216
2,72,72,16
2,74,84,84
2,72,75,16
2,69,84,20
2,72,65,48
2,74,94,86
2,72,84,82
2,69,94,32
2,72,84,32
2,74,94,86
2,72,84,16
2,62,60,3098
2,59,32,12
2,62,59,0
2,63,44,422
2,64,55,8
2,62,58,12
2,62,59,72
2,66,54,176
2,67,62,12
2,66,58,764
2,62,58,6
2,64,57,16
2,62,59,8
2,62,60,28
2,59,57,14
2,62,63,36
2,64,59,20
2,62,51,0
2,64,50,12
2,62,58,36
2,62,59,30
2,66,58,8
2,67,59,10
2,66,58,6
2,62,55,4
2,64,58,0
2,62,59,3158
2,59,56,6
2,62,55,48
2,64,59,22
2,62,60,12
2,62,59,58
2,66,59,6
2,67,62,6
2,66,58,0
2,62,57,6
2,64,63,0
2,62,59,4
2,69,72,860
2,72,72,22
2,73,75,78
2,74,94,12
2,72,94,12
2,69,94,14
2,72,75,12
2,74,94,26
2,72,79,6
2,69,87,18
2,72,72,40
2,74,94,80
2,72,75,2
2,69,87,1194
2,72,79,24
2,74,100,90
2,72,84,16
2,69,94,12
2,72,74,26
2,74,100,92
2,76,87,28
2,69,87,20
2,72,74,26
2,74,87,100
2,72,79,16
2,69,79,1216
2,72,72,16
2,74,84,84
2,72,75,16
2,69,84,20
2,72,65,48
2,74,94,86
2,72,84,82
2,69,94,32
2,72,84,32
2,74,94,86
2,72,84,16
2,72,54,3248
2,73,51,0
2,72,52,18
2,75,51,12
2,72,56,20
2,73,52,52
2,72,58,198
2,70,49,12
2,72,54,16
2,72,58,290
2,68,52,24
2,72,56,14
2,70,54,8
2,72,50,8
2,73,52,10
2,72,51,28
2,75,50,60
2,70,56,20
2,69,72,1140
2,72,74,16
2,73,75,6
2,74,94,12
2,72,94,12
2,69,94,14
2,72,75,12
2,74,94,26
2,72,79,6
2,69,87,18
2,72,72,40
2,74,94,80
2,72,75,2
2,69,87,1194
2,72,79,24
2,74,100,90
2,72,84,16
2,69,94,12
2,72,74,26
2,74,100,92
2,76,87,28
2,69,87,20
2,72,74,26
2,74,87,100
2,72,79,16
2,69,79,1216
2,72,72,16
2,74,84,84
2,72,75,16
2,69,84,20
2,72,65,48
2,74,94,86
2,72,84,82
2,69,94,32
2,72,84,32
2,74,94,86
2,72,84,16
2,69,69,1170
2,72,63,18
2,73,75,16
2,74,94,12
2,72,94,12
2,69,94,14
2,72,75,12
2,74,94,26
2,72,79,6
2,69,87,18
2,72,72,40
2,74,94,80
2,72,75,2
2,69,87,1194
2,72,79,24
2,74,100,90
2,72,84,16
2,69,94,12
2,72,74,26
2,74,100,92
2,76,87,28
2,69,87,20
2,72,74,26
2,74,87,100
2,72,79,16
2,69,79,1216
2,72,72,16
2,74,84,84
2,72,75,16
2,69,84,20
2,72,65,48
2,74,94,86
2,72,84,82
2,69,94,32
2,72,84,32
2,74,94,86
2,72,84,16
3,57,51,6120
3,62,53,0
3,61,53,4654
3,62,58,0
3,64,47,742
3,59,58,0
3,57,48,0
3,61,55,8
3,62,59,0
3,61,53,6
3,62,58,772
3,64,43,10
3,59,56,6
3,57,53,10
3,61,49,6
3,64,52,1504
3,59,60,0
3,62,57,1498
3,57,51,12
3,61,56,750
3,62,62,8
3,61,58,1424
3,62,61,0
3,59,59,0
3,64,50,0
3,61,52,10
3,57,51,0
3,62,51,10
3,55,58,1552
3,60,59,0
3,72,65,28
3,69,61,14
3,72,72,190
3,67,64,0
3,69,64,214
3,74,75,0
3,65,67,158
3,70,79,0
3,67,72,114
3,72,64,6
3,72,74,138
3,69,64,6
3,72,65,218
3,67,72,0
3,69,67,168
3,74,72,8
3,65,67,330
3,70,75,12
3,67,72,114
3,72,67,0
3,72,72,140
3,69,79,0
3,72,72,182
3,67,67,4
3,74,72,164
3,69,74,6
3,65,63,210
3,70,79,0
3,72,69,164
3,67,74,0
3,61,53,3140
3,62,58,0
3,64,47,742
3,59,58,6
3,57,48,0
3,61,55,8
3,62,59,0
3,61,53,6
3,62,58,772
3,64,43,10
3,59,56,6
3,57,53,10
3,61,49,6
3,64,52,1504
3,59,60,0
3,62,57,1498
3,57,51,12
3,61,56,750
3,62,62,8
3,61,58,1424
3,62,61,0
3,59,59,0
3,64,50,0
3,61,52,10
3,57,51,0
3,62,51,10
3,55,58,1552
3,60,59,0
3,72,65,28
3,69,61,14
3,72,72,190
3,67,64,0
3,69,64,214
3,74,75,0
3,65,67,158
3,70,79,0
3,67,72,114
3,72,64,6
3,72,74,138
3,69,64,6
3,72,65,218
3,67,72,0
3,69,67,168
3,74,72,8
3,65,67,330
3,70,75,12
3,67,72,114
3,72,67,0
3,72,72,140
3,69,79,0
3,72,72,182
3,67,67,4
3,74,72,164
3,69,74,6
3,65,63,210
3,70,79,0
3,72,69,164
3,67,74,0
3,72,65,15456
3,69,61,14
3,72,72,190
3,67,64,0
3,69,64,214
3,74,75,0
3,65,67,158
3,70,79,0
3,67,72,114
3,72,64,6
3,72,74,138
3,69,64,6
3,72,65,218
3,67,72,0
3,69,67,168
3,74,72,8
3,65,67,330
3,70,75,12
3,67,72,114
3,72,67,0
3,72,72,140
3,69,79,0
3,72,72,182
3,67,67,4
3,74,72,164
3,69,74,6
3,65,63,210
3,70,79,0
3,72,69,164
3,67,74,0
3,72,65,96
3,69,61,14
3,72,72,190
3,67,64,0
3,69,64,214
3,74,75,0
3,65,67,158
3,70,79,0
3,67,72,114
3,72,64,6
3,72,74,138
3,69,64,6
3,72,65,218
3,67,72,0
3,69,67,168
3,74,72,8
3,65,67,330
3,70,75,12
3,67,72,114
3,72,67,0
3,72,72,140
3,69,79,0
3,72,72,182
3,67,67,4
3,74,72,164
3,69,74,6
3,65,63,210
3,70,79,0
3,72,69,164
3,67,74,0
3,72,65,96
3,69,61,14
3,72,72,190
3,67,64,0
3,69,64,214
3,74,75,0
3,65,67,158
3,70,79,0
3,67,72,114
3,72,64,6
3,72,74,138
3,69,64,6
3,72,65,218
3,67,72,0
3,69,67,168
3,74,72,8
3,65,67,330
3,70,75,12
3,67,72,114
3,72,67,0
3,72,72,140
3,69,79,0
3,72,72,182
3,67,67,4
3,74,72,164
3,69,74,6
3,65,63,210
3,70,79,0
3,72,69,164
3,67,74,0
3,72,65,96
3,69,61,14
3,72,72,190
3,67,64,0
3,69,64,214
3,74,75,0
3,65,67,158
3,70,79,0
3,67,72,114
3,72,64,6
3,72,74,138
3,69,64,6
3,72,65,218
3,67,72,0
3,69,67,168
3,74,72,8
3,65,67,330
3,70,75,12
3,67,72,114
3,72,67,0
3,72,72,140
3,69,79,0
3,72,72,182
3,67,67,4
3,74,72,164
3,69,74,6
3,65,63,210
3,70,79,0
3,72,69,164
3,67,74,0
3,72,65,96
3,69,61,14
4,38,59,7680
4,45,58,4
4,50,58,4
4,54,57,4
4,38,63,4
4,45,58,4
4,50,57,4
4,54,48,4
4,38,61,4
4,45,54,4
4,50,57,4
4,54,54,4
4,38,59,4
4,45,58,4
4,50,57,4
4,54,57,4
4,38,58,4
4,45,58,4
4,50,57,4
4,54,57,4
4,38,61,4
4,45,59,4
4,50,59,4
4,54,59,4
4,38,59,4
4,45,59,4
4,50,59,4
4,54,52,4
4,38,60,4
4,45,59,4
4,50,59,4
4,54,57,4
4,37,57,4
4,45,59,4
4,49,53,4
4,52,59,4
4,37,54,4
4,45,58,4
4,49,54,4
4,52,63,4
4,38,54,4
4,45,52,4
4,50,59,4
4,54,56,4
4,38,59,4
4,45,59,4
4,50,59,4
4,54,59,4
4,40,51,4
4,47,58,4
4,52,58,4
4,55,58,4
4,40,53,4
4,47,59,4
4,52,58,4
4,55,59,4
4,40,59,4
4,47,58,4
4,52,57,4
4,55,58,4
4,40,59,4
4,47,56,4
4,52,57,4
4,55,58,4
4,37,49,4
4,45,54,4
4,49,53,4
4,52,59,4
4,37,50,4
4,45,54,4
4,49,47,4
4,52,59,4
4,38,60,4
4,45,57,4
4,50,56,4
4,54,56,4
4,38,58,4
4,45,58,4
4,50,58,4
4,54,54,4
4,38,59,4
4,45,58,4
4,50,58,4
4,54,55,4
4,38,59,4
4,45,58,4
4,50,59,4
4,54,58,4
4,38,58,4
4,45,54,4
4,50,58,4
4,54,57,4
4,38,59,4
4,45,56,4
4,50,56,4
4,54,59,4
4,37,53,4
4,40,51,4
4,45,51,4
4,52,58,4
4,37,52,4
4,40,59,4
4,45,57,4
4,52,59,4
4,38,50,4
4,45,58,4
4,50,58,4
4,54,55,4
4,38,65,4
4,45,53,4
4,50,59,4
4,54,46,4
4,40,56,4
4,47,59,4
4,52,58,4
4,55,58,4
4,40,57,4
4,47,59,4
4,52,58,4
4,55,59,4
4,40,44,4
4,47,55,4
4,52,58,4
4,55,52,4
4,40,58,4
4,47,58,4
4,52,59,4
4,55,56,4
4,37,54,4
4,45,59,4
4,49,49,4
4,52,58,4
4,37,52,4
4,45,58,4
4,49,45,4
4,52,54,4
4,37,54,4
4,45,59,4
4,49,49,4
4,52,58,4
4,37,52,4
4,45,58,4
4,49,45,4
4,52,54,4
4,40,51,4
4,47,60,4
4,52,58,4
4,55,54,4
4,40,59,4
4,47,60,4
4,52,58,4
4,55,57,4
4,38,48,4
4,45,56,4
4,50,55,4
4,55,56,4
4,38,42,4
4,45,55,4
4,50,53,4
4,55,51,4
4,37,54,4
4,45,58,4
4,49,54,4
4,52,58,4
4,37,53,4
4,45,54,4
4,49,53,4
4,52,58,4
4,37,49,4
4,45,52,4
4,49,52,4
4,52,58,4
4,37,52,4
4,45,60,4
4,49,54,4
4,52,61,4
4,38,53,4
4,45,58,4
4,50,59,4
4,54,54,4
4,38,63,4
4,45,60,4
4,50,59,4
4,54,56,4
4,38,63,4
4,45,59,4
4,50,59,4
4,54,54,4
4,38,62,4
4,45,60,4
4,50,59,4
4,54,58,4
4,37,55,4
4,45,60,4
4,49,51,4
4,52,59,4
4,37,50,4
4,45,60,4
4,49,54,4
4,52,61,4
4,38,59,4
4,45,59,4
4,50,59,4
4,54,56,4
4,38,59,4
4,45,59,4
4,50,59,4
4,54,57,4
4,40,51,4
4,47,58,4
4,52,58,4
4,55,58,4
4,40,53,4
4,47,59,4
4,52,58,4
4,55,59,4
4,40,59,4
4,47,58,4
4,52,57,4
4,55,58,4
4,40,59,4
4,47,56,4
4,52,57,4
4,55,58,4
4,37,49,4
4,45,54,4
4,49,53,4
4,52,59,4
4,37,50,4
4,45,54,4
4,49,47,4
4,52,59,4
4,38,60,4
4,45,57,4
4,50,56,4
4,54,56,4
4,38,58,4
4,45,58,4
4,50,58,4
4,54,54,4
4,38,59,4
4,45,58,4
4,50,58,4
4,54,55,4
4,38,59,4
4,45,58,4
4,50,59,4
4,54,58,4
4,36,58,4
4,43,54,4
4,48,58,4
4,52,57,4
4,36,59,4
4,43,56,4
4,48,56,4
4,52,59,4
4,41,51,4
4,48,52,4
4,53,53,4
4,57,52,4
4,65,54,4
4,60,58,4
4,57,54,4
4,53,52,4
4,41,50,4
4,53,52,4
4,48,54,4
4,57,54,4
4,53,50,4
4,60,51,4
4,57,55,4
4,65,55,4
4,36,53,4
4,43,53,4
4,48,52,4
4,52,56,4
4,55,54,4
4,60,54,4
4,64,54,4
4,60,54,4
4,64,59,4
4,62,56,4
4,60,58,4
4,55,59,4
4,48,58,4
4,52,50,4
4,43,58,4
4,36,59,4
4,38,61,4
4,41,53,4
4,45,60,4
4,50,58,4
4,53,51,4
4,57,59,4
4,62,58,4
4,65,59,4
4,50,53,4
4,45,55,4
4,53,60,4
4,50,54,4
4,57,61,4
4,53,54,4
4,62,60,4
4,57,56,4
4,46,60,4
4,50,59,4
4,53,58,4
4,58,60,4
4,62,59,4
4,58,53,4
4,53,60,4
4,50,59,4
4,48,58,4
4,52,60,4
4,55,59,4
4,60,58,4
4,64,60,4
4,60,52,4
4,55,48,4
4,52,58,4
4,41,51,4
4,48,52,4
4,53,53,4
4,57,52,4
4,65,54,4
4,60,58,4
4,57,54,4
4,53,52,4
4,41,50,4
4,53,52,4
4,48,54,4
4,57,54,4
4,53,50,4
4,60,51,4
4,57,55,4
4,65,55,4
4,36,53,4
4,43,53,4
4,48,52,4
4,52,56,4
4,55,54,4
4,60,54,4
4,64,54,4
4,60,54,4
4,64,59,4
4,62,56,4
4,60,58,4
4,55,59,4
4,48,58,4
4,52,50,4
4,43,58,4
4,36,59,4
4,38,61,4
4,41,53,4
4,45,60,4
4,50,58,4
4,53,51,4
4,57,59,4
4,62,58,4
4,65,59,4
4,50,53,4
4,45,55,4
4,53,60,4
4,50,54,4
4,57,61,4
4,53,54,4
4,62,60,4
4,57,56,4
4,46,60,4
4,50,59,4
4,53,58,4
4,58,60,4
4,62,59,4
4,58,53,4
4,53,60,4
4,50,59,4
4,48,58,4
4,52,60,4
4,55,59,4
4,60,58,4
4,64,60,4
4,60,52,4
4,55,48,4
4,52,58,4
4,41,51,4
4,48,52,4
4,53,53,4
4,57,52,4
4,65,54,4
4,60,58,4
4,57,54,4
4,53,52,4
4,41,50,4
4,53,52,4
4,48,54,4
4,57,54,4
4,53,50,4
4,60,51,4
4,57,55,4
4,65,55,4
4,36,53,4
4,43,53,4
4,48,52,4
4,52,56,4
4,55,54,4
4,60,54,4
4,64,54,4
4,60,54,4
4,64,59,4
4,62,56,4
4,60,58,4
4,55,59,4
4,48,58,4
4,52,50,4
4,43,58,4
4,36,59,4
4,38,61,4
4,41,53,4
4,45,60,4
4,50,58,4
4,53,51,4
4,57,59,4
4,62,58,4
4,65,59,4
4,50,53,4
4,45,55,4
4,53,60,4
4,50,54,4
4,57,61,4
4,53,54,4
4,62,60,4
4,57,56,4
4,46,60,4
4,50,59,4
4,53,58,4
4,58,60,4
4,62,59,4
4,58,53,4
4,53,60,4
4,50,59,4
4,48,58,4
4,52,60,4
4,55,59,4
4,60,58,4
4,64,60,4
4,60,52,4
4,55,48,4
4,52,58,4
4,38,58,1540
4,45,58,4
4,50,57,4
4,54,57,4
4,38,61,4
4,45,59,4
4,50,59,4
4,54,59,4
4,38,59,4
4,45,59,4
4,50,59,4
4,54,52,4
4,38,60,4
4,45,59,4
4,50,59,4
4,54,57,4
4,37,57,4
4,45,59,4
4,49,53,4
4,52,59,4
4,37,54,4
4,45,58,4
4,49,54,4
4,52,63,4
4,38,54,4
4,45,52,4
4,50,59,4
4,54,56,4
4,38,59,4
4,45,59,4
4,50,59,4
4,54,59,4
4,40,51,4
4,47,58,4
4,52,58,4
4,55,58,4
4,40,53,4
4,47,59,4
4,52,58,4
4,55,59,4
4,40,59,4
4,47,58,4
4,52,57,4
4,55,58,4
4,40,59,4
4,47,56,4
4,52,57,4
4,55,58,4
4,37,49,4
4,45,54,4
4,49,53,4
4,52,59,4
4,37,50,4
