track,note,velocity,time
0,42,100,0
0,61,100,0
0,58,100,0
0,54,100,0
0,42,100,0
0,42,100,1
0,42,100,0
0,42,0,239
0,61,0,0
0,54,0,0
0,58,0,0
0,42,0,0
0,42,100,1
0,54,100,0
0,61,100,0
0,58,100,0
0,42,100,0
0,42,0,59
0,54,0,0
0,61,0,0
0,58,0,0
0,42,0,0
0,46,100,1
0,58,100,0
0,53,100,0
0,62,100,0
0,46,100,0
0,46,0,179
0,62,0,0
0,58,0,0
0,53,0,0
0,46,0,0
0,46,100,1
0,58,100,0
0,62,100,0
0,53,100,0
0,46,100,0
0,46,0,59
0,53,0,0
0,58,0,0
0,62,0,0
0,46,0,0
0,39,100,1
0,63,100,0
0,58,100,0
0,55,100,0
0,39,100,0
0,39,0,59
0,39,0,90
0,63,0,30
0,58,0,0
0,55,0,0
0,39,100,1
0,55,100,0
0,63,100,0
0,58,100,0
0,39,100,0
0,39,0,59
0,39,0,210
0,39,100,31
0,39,100,0
0,39,0,59
0,39,0,90
0,39,100,31
0,39,100,0
0,39,0,59
0,58,100,0
0,39,0,29
0,58,0,30
0,63,0,0
0,55,0,0
0,58,0,0
0,39,100,0
0,63,100,0
0,58,100,0
0,55,100,0
0,58,100,0
0,39,100,0
0,58,100,0
0,63,100,5
0,39,0,54
0,58,0,0
0,39,0,0
0,58,0,0
0,46,100,0
0,60,100,0
0,46,100,0
0,58,100,0
0,63,0,4
0,63,100,1
0,46,0,54
0,60,0,0
0,46,0,0
0,58,0,0
0,51,100,0
0,63,100,0
0,51,100,0
0,58,100,0
0,63,0,4
0,63,100,1
0,51,0,54
0,63,0,0
0,51,0,0
0,58,0,0
0,46,100,0
0,60,100,0
0,46,100,0
0,58,100,0
0,63,0,4
0,63,100,1
0,46,0,54
0,63,0,0
0,55,0,0
0,58,0,0
0,60,0,0
0,46,0,0
0,58,0,0
0,34,100,0
0,53,100,0
0,58,100,0
0,62,100,0
0,63,100,0
0,34,100,0
0,58,100,0
0,63,0,4
0,62,100,1
0,34,0,54
0,34,0,0
0,41,100,1
0,41,100,0
0,63,0,29
0,58,0,0
0,67,100,0
0,58,100,0
0,62,0,4
0,62,100,1
0,41,0,24
0,41,0,0
0,46,100,1
0,46,100,0
0,46,0,59
0,67,0,0
0,46,0,0
0,58,0,0
0,41,100,0
0,58,100,0
0,41,100,0
0,58,100,0
0,62,0,4
0,62,100,1
0,41,0,54
0,62,0,0
0,53,0,0
0,58,0,0
0,58,0,0
0,41,0,0
0,58,0,0
0,32,100,0
0,63,100,0
0,56,100,0
0,60,100,0
0,58,100,0
0,32,100,0
0,58,100,0
0,62,0,4
0,63,100,1
0,32,0,54
0,58,0,0
0,32,0,0
0,58,0,0
0,39,100,0
0,60,100,0
0,39,100,0
0,58,100,0
0,63,0,4
0,63,100,1
0,39,0,54
0,60,0,0
0,39,0,0
0,58,0,0
0,56,100,0
0,44,100,0
0,63,100,0
0,44,100,0
0,56,100,0
0,58,100,0
0,63,0,4
0,63,100,1
0,56,0,54
0,44,0,0
0,63,0,0
0,56,0,0
0,44,0,0
0,58,0,0
0,32,100,0
0,60,100,0
0,32,100,0
0,58,100,0
0,63,0,4
0,63,100,1
0,32,0,54
0,63,0,0
0,60,0,0
0,56,0,0
0,60,0,0
0,32,0,0
0,58,0,0
0,39,100,0
0,58,100,0
0,55,100,0
0,63,100,0
0,63,100,0
0,39,100,0
0,58,100,0
0,63,0,4
0,63,100,1
0,39,0,54
0,39,0,0
0,46,100,1
0,46,100,0
0,63,0,29
0,58,0,0
0,63,100,0
0,58,100,0
0,63,0,4
0,63,100,1
0,46,0,24
0,46,0,0
0,51,100,1
0,51,100,0
0,51,0,59
0,63,0,0
0,51,0,0
0,58,0,0
0,46,100,0
0,58,100,0
0,46,100,0
0,58,100,0
0,63,0,4
0,63,100,1
0,46,0,54
0,55,0,0
0,58,0,0
0,63,0,0
0,58,0,0
0,46,0,0
0,58,0,0
0,32,100,0
0,60,100,0
0,63,100,0
0,56,100,0
0,58,100,0
0,32,100,0
0,60,100,0
0,58,100,0
0,63,0,4
0,63,100,1
0,32,0,54
0,58,0,0
0,32,0,0
0,60,0,0
0,58,0,0
0,39,100,0
0,60,100,0
0,39,100,0
0,60,100,0
0,58,100,0
0,63,0,4
0,63,100,1
0,39,0,54
0,60,0,0
0,39,0,0
0,60,0,0
0,58,0,0
0,56,100,0
0,44,100,0
0,63,100,0
0,56,100,0
0,44,100,0
0,60,100,0
0,58,100,0
0,63,0,4
0,63,100,1
0,44,0,54
0,56,0,0
0,63,0,0
0,44,0,0
0,56,0,0
0,60,0,0
0,58,0,0
0,32,100,0
0,60,100,0
0,32,100,0
0,60,100,0
0,58,100,0
0,63,0,4
0,63,100,1
0,32,0,54
0,60,0,0
0,56,0,0
0,63,0,0
0,60,0,0
0,32,0,0
0,60,0,0
0,58,0,0
0,39,100,0
0,63,100,0
0,58,100,0
0,55,100,0
0,63,100,0
0,39,100,0
0,58,100,0
0,63,0,4
0,63,100,1
0,39,0,54
0,39,0,0
0,46,100,1
0,46,100,0
0,63,0,29
0,58,0,0
0,67,100,0
0,58,100,0
0,63,0,4
0,63,100,1
0,46,0,24
0,46,0,0
0,51,100,1
0,51,100,0
0,51,0,59
0,67,0,0
0,51,0,0
0,58,0,0
0,46,100,0
0,58,100,0
0,46,100,0
0,58,100,0
0,63,0,4
0,63,100,1
0,46,0,54
0,58,0,0
0,63,0,0
0,55,0,0
0,58,0,0
0,46,0,0
0,58,0,0
0,34,100,0
0,62,100,0
0,53,100,0
0,58,100,0
0,58,100,0
0,34,100,0
0,58,100,0
0,63,0,4
0,62,100,1
0,34,0,54
0,58,0,0
0,34,0,0
0,58,0,0
0,41,100,0
0,60,100,0
0,41,100,0
0,58,100,0
0,62,0,4
0,62,100,1
0,41,0,54
0,60,0,0
0,41,0,0
0,58,0,0
0,46,100,0
0,63,100,0
0,46,100,0
0,62,100,0
0,58,100,0
0,62,0,4
0,46,0,55
0,63,0,0
0,46,0,0
0,62,0,0
0,58,0,0
0,34,100,0
0,60,100,0
0,34,100,0
0,58,100,0
0,62,100,5
0,34,0,54
0,62,0,0
0,58,0,0
0,53,0,0
0,60,0,0
0,34,0,0
0,58,0,0
0,39,100,0
0,58,100,0
0,63,100,0
0,55,100,0
0,63,100,0
0,39,100,0
0,58,100,0
0,62,0,4
0,63,100,1
0,39,0,54
0,39,0,0
0,46,100,1
0,46,100,0
0,63,0,29
0,58,0,0
0,63,100,0
0,58,100,0
0,63,0,4
0,63,100,1
0,46,0,24
0,46,0,0
0,51,100,1
0,51,100,0
0,51,0,59
0,63,0,0
0,51,0,0
0,46,100,0
0,58,100,0
0,46,100,0
0,46,0,59
0,55,0,0
0,58,0,0
0,63,0,0
0,58,0,0
0,46,0,0
0,58,0,0
0,39,100,0
0,55,100,0
0,63,100,0
0,58,100,0
0,58,100,0
0,39,100,0
0,58,100,0
0,63,0,4
0,63,100,1
0,39,0,54
0,58,0,0
0,39,0,0
0,58,0,0
0,46,100,0
0,60,100,0
0,46,100,0
0,58,100,0
0,63,0,4
0,63,100,1
0,46,0,54
0,60,0,0
0,46,0,0
0,58,0,0
0,51,100,0
0,63,100,0
0,51,100,0
0,58,100,0
0,63,0,4
0,63,100,1
0,51,0,54
0,63,0,0
0,51,0,0
0,58,0,0
0,46,100,0
0,60,100,0
0,46,100,0
0,58,100,0
0,63,0,4
0,63,100,1
0,46,0,54
0,55,0,0
0,58,0,0
0,63,0,0
0,60,0,0
0,46,0,0
0,58,0,0
0,34,100,0
0,58,100,0
0,62,100,0
0,53,100,0
0,63,100,0
0,34,100,0
0,58,100,0
0,63,0,4
0,62,100,1
0,34,0,54
0,34,0,0
0,41,100,1
0,41,100,0
0,63,0,29
0,58,0,0
0,67,100,0
0,58,100,0
0,62,0,4
0,62,100,1
0,41,0,24
0,41,0,0
0,46,100,1
0,46,100,0
0,46,0,59
0,67,0,0
0,46,0,0
0,58,0,0
0,41,100,0
0,58,100,0
0,41,100,0
0,58,100,0
0,62,0,4
0,62,100,1
0,41,0,54
0,53,0,0
0,58,0,0
0,62,0,0
0,58,0,0
0,41,0,0
0,58,0,0
0,32,100,0
0,56,100,0
0,63,100,0
0,60,100,0
0,58,100,0
0,32,100,0
0,58,100,0
0,62,0,4
0,63,100,1
0,32,0,54
0,58,0,0
0,32,0,0
0,58,0,0
0,39,100,0
0,60,100,0
0,39,100,0
0,58,100,0
0,63,0,4
0,63,100,1
0,39,0,54
0,60,0,0
0,39,0,0
0,58,0,0
0,44,100,0
0,56,100,0
0,63,100,0
0,44,100,0
0,56,100,0
0,58,100,0
0,63,0,4
0,63,100,1
0,44,0,54
0,56,0,0
0,63,0,0
0,56,0,0
0,44,0,0
0,58,0,0
0,32,100,0
0,60,100,0
0,32,100,0
0,58,100,0
0,63,0,4
0,63,100,1
0,32,0,54
0,56,0,0
0,60,0,0
0,63,0,0
0,60,0,0
0,32,0,0
0,58,0,0
0,39,100,0
0,55,100,0
0,58,100,0
0,63,100,0
0,63,100,0
0,39,100,0
0,58,100,0
0,63,0,4
0,63,100,1
0,39,0,54
0,39,0,0
0,46,100,1
0,46,100,0
0,63,0,29
0,58,0,0
0,63,100,0
0,58,100,0
0,63,0,4
0,63,100,1
0,46,0,24
0,46,0,0
0,51,100,1
0,51,100,0
0,51,0,59
0,63,0,0
0,51,0,0
0,58,0,0
0,46,100,0
0,58,100,0
0,46,100,0
0,58,100,0
0,63,0,4
0,63,100,1
0,46,0,54
0,63,0,0
0,58,0,0
0,55,0,0
0,58,0,0
0,46,0,0
0,58,0,0
0,32,100,0
0,56,100,0
0,60,100,0
0,63,100,0
0,58,100,0
0,32,100,0
0,60,100,0
0,58,100,0
0,63,0,4
0,63,100,1
0,32,0,54
0,58,0,0
0,32,0,0
0,60,0,0
0,58,0,0
0,39,100,0
0,60,100,0
0,39,100,0
0,60,100,0
0,58,100,0
0,63,0,4
0,63,100,1
0,39,0,54
0,60,0,0
0,39,0,0
0,60,0,0
0,58,0,0
0,44,100,0
0,56,100,0
0,63,100,0
0,44,100,0
0,56,100,0
0,60,100,0
0,58,100,0
0,63,0,4
0,63,100,1
0,44,0,54
0,56,0,0
0,63,0,0
0,44,0,0
0,56,0,0
0,60,0,0
0,58,0,0
0,32,100,0
0,60,100,0
0,32,100,0
0,60,100,0
0,58,100,0
0,63,0,4
0,63,100,1
0,32,0,54
0,56,0,0
0,60,0,0
0,63,0,0
0,60,0,0
0,32,0,0
0,60,0,0
0,58,0,0
0,39,100,0
0,55,100,0
0,63,100,0
0,58,100,0
0,63,100,0
0,39,100,0
0,58,100,0
0,63,0,4
0,63,100,1
0,39,0,54
0,39,0,0
0,46,100,1
0,46,100,0
0,63,0,29
0,58,0,0
0,67,100,0
0,58,100,0
0,63,0,4
0,63,100,1
0,46,0,24
0,46,0,0
0,51,100,1
0,51,100,0
0,51,0,59
0,67,0,0
0,51,0,0
0,58,0,0
0,46,100,0
0,58,100,0
0,46,100,0
0,58,100,0
0,63,0,4
0,63,100,1
0,46,0,54
0,55,0,0
0,58,0,0
0,63,0,0
0,58,0,0
0,46,0,0
0,58,0,0
0,34,100,0
0,58,100,0
0,62,100,0
0,53,100,0
0,58,100,0
0,34,100,0
0,58,100,0
0,63,0,4
0,62,100,1
0,34,0,54
0,58,0,0
0,34,0,0
0,58,0,0
0,41,100,0
0,60,100,0
0,41,100,0
0,58,100,0
0,62,0,4
0,62,100,1
0,41,0,54
0,60,0,0
0,41,0,0
0,58,0,0
0,46,100,0
0,63,100,0
0,46,100,0
0,62,100,0
0,58,100,0
0,62,0,4
0,46,0,55
0,63,0,0
0,46,0,0
0,62,0,0
0,58,0,0
0,34,100,0
0,60,100,0
0,34,100,0
0,58,100,0
0,62,100,5
0,34,0,54
0,62,0,0
0,58,0,0
0,53,0,0
0,60,0,0
0,34,0,0
0,58,0,0
0,39,100,0
0,58,100,0
0,55,100,0
0,63,100,0
0,63,100,0
0,39,100,0
0,58,100,0
0,62,0,4
0,63,100,1
0,39,0,54
0,39,0,0
0,46,100,1
0,46,100,0
0,63,0,29
0,58,0,0
0,63,100,0
0,58,100,0
0,63,0,4
0,63,100,1
0,46,0,24
0,46,0,0
0,51,100,1
0,51,100,0
0,51,0,59
0,51,0,0
0,46,100,1
0,46,100,0
0,46,0,59
0,46,0,0
0,58,0,0
0,39,100,1
0,39,100,0
0,67,70,0
0,79,70,0
0,63,0,4
0,79,0,25
0,67,0,0
0,39,0,30
0,39,0,0
0,46,100,1
0,46,100,0
0,46,0,59
0,63,0,0
0,46,0,0
0,51,100,1
0,51,100,0
0,70,72,0
0,82,72,0
0,82,0,29
0,70,0,0
0,51,0,30
0,51,0,0
0,46,100,1
0,46,100,0
0,46,0,59
0,63,0,0
0,55,0,0
0,58,0,0
0,46,0,0
0,36,100,0
0,60,100,0
0,63,100,0
0,55,100,0
0,60,80,0
0,63,100,0
0,36,100,0
0,75,74,0
0,87,74,0
0,87,0,29
0,75,0,0
0,36,0,30
0,63,0,0
0,60,0,0
0,36,0,0
0,43,100,0
0,60,80,0
0,63,100,0
0,43,100,0
0,43,0,59
0,60,0,0
0,63,0,0
0,43,0,0
0,48,100,0
0,63,100,0
0,60,80,0
0,48,100,0
0,84,77,0
0,72,77,0
0,72,0,29
0,84,0,0
0,48,0,30
0,63,0,0
0,60,0,0
0,48,0,0
0,43,100,0
0,60,81,0
0,63,100,0
0,43,100,0
0,43,0,59
0,60,0,0
0,63,0,0
0,55,0,0
0,63,0,0
0,60,0,0
0,43,0,0
0,38,100,0
0,53,100,0
0,62,100,0
0,58,100,0
0,65,100,0
0,38,100,0
0,89,79,0
0,77,79,0
0,77,0,29
0,89,0,0
0,38,0,30
0,65,0,0
0,38,0,0
0,46,100,0
0,63,100,0
0,46,100,0
0,46,0,59
0,63,0,0
0,46,0,0
0,50,100,0
0,65,100,0
0,50,100,0
0,82,81,0
0,94,81,0
0,65,0,29
0,94,0,0
0,82,0,0
0,67,100,0
0,50,0,29
0,50,0,0
0,38,100,1
0,38,100,0
0,67,0,29
0,38,0,30
0,53,0,0
0,58,0,0
0,62,0,0
0,38,0,0
0,44,100,0
0,60,100,0
0,56,100,0
0,63,100,0
0,63,100,0
0,56,82,0
0,44,100,0
0,92,84,0
0,80,84,0
0,80,0,29
0,92,0,0
0,44,0,30
0,63,0,0
0,56,0,0
0,44,0,0
0,51,100,0
0,63,100,0
0,56,83,0
0,51,100,0
0,51,0,59
0,56,0,0
0,63,0,0
0,51,0,0
0,56,100,0
0,56,83,0
0,63,100,0
0,56,100,0
0,79,86,0
0,91,86,0
0,91,0,29
0,79,0,0
0,56,0,30
0,63,0,0
0,56,0,0
0,56,0,0
0,51,100,0
0,63,100,0
0,56,84,0
0,51,100,0
0,51,0,59
0,56,0,0
0,63,0,0
0,60,0,0
0,56,0,0
0,63,0,0
0,51,0,0
0,46,100,0
0,58,100,0
0,62,100,0
0,65,100,0
0,65,100,0
0,46,100,0
0,77,88,0
0,89,88,0
0,89,0,29
0,77,0,0
0,46,0,30
0,65,0,0
0,46,0,0
0,53,100,0
0,63,100,0
0,53,100,0
0,53,0,59
0,63,0,0
0,53,0,0
0,58,100,0
0,65,100,0
0,58,100,0
0,74,91,0
0,86,91,0
0,65,0,29
0,86,0,0
0,74,0,0
0,67,100,1
0,58,0,29
0,67,0,0
0,58,0,0
0,53,100,1
0,65,100,0
0,53,100,0
0,65,0,29
0,63,100,1
0,53,0,29
0,58,0,0
0,65,0,0
0,62,0,0
0,63,0,0
0,53,0,0
0,36,100,0
0,60,100,0
0,55,100,0
0,63,100,0
0,63,100,0
0,60,85,0
0,36,100,0
0,75,93,0
0,87,93,0
0,87,0,29
0,75,0,0
0,36,0,30
0,63,0,0
0,60,0,0
0,36,0,0
0,43,100,0
0,63,100,0
0,60,86,0
0,43,100,0
0,43,0,59
0,60,0,0
0,63,0,0
