track,note,velocity,time
1,76,76,240
1,76,0,119
1,76,76,1
1,76,0,59
1,74,73,1
1,74,0,59
1,79,73,1
1,79,0,119
1,76,92,1
1,76,0,119
1,72,81,1
1,72,0,119
1,69,80,1
1,69,0,239
1,67,72,1
1,67,0,119
1,77,78,1
1,77,0,119
1,77,89,1
1,77,0,59
1,74,78,1
1,74,0,59
1,79,62,1
1,79,0,119
1,77,73,1
1,77,0,119
1,76,80,1
1,76,0,119
1,76,72,1
1,76,0,59
1,79,73,1
1,79,0,59
1,76,80,1
1,76,0,119
1,74,76,1
1,74,0,119
1,76,81,1
1,76,0,119
1,76,76,1
1,76,0,59
1,74,69,1
1,74,0,59
1,79,68,1
1,79,0,119
1,76,75,1
1,76,0,119
1,81,80,1
1,81,0,119
1,76,89,1
1,76,0,119
1,76,78,1
1,76,0,119
1,74,72,1
1,74,0,119
1,79,64,1
1,79,0,119
1,76,92,1
1,76,0,119
1,72,78,1
1,72,0,119
1,71,69,1
1,71,0,119
1,72,78,1
1,72,0,299
1,60,67,7861
1,60,0,119
1,62,80,1
1,62,0,119
1,64,85,1
1,64,0,119
1,65,77,1
1,65,0,119
1,62,78,1
1,62,0,359
1,67,77,61
1,67,0,59
1,67,82,1
1,67,0,59
1,65,70,1
1,65,0,59
1,64,81,1
1,64,0,59
1,65,74,1
1,65,0,59
1,64,87,1
1,64,0,119
1,62,81,1
1,62,0,119
1,64,78,1
1,64,0,239
1,62,87,1
1,62,0,239
1,60,73,1
1,60,0,119
1,62,84,1
1,62,0,119
1,64,80,1
1,64,0,119
1,65,70,1
1,65,0,119
1,62,80,1
1,62,0,360
1,67,78,60
1,67,0,59
1,67,82,1
1,67,0,59
1,65,70,1
1,65,0,59
1,64,88,1
1,64,0,59
1,65,77,1
1,65,0,59
1,64,90,1
1,64,0,119
1,62,94,1
1,62,0,119
1,60,87,1
1,60,0,239
1,64,88,1
1,64,0,59
1,67,69,61
1,67,0,119
1,69,84,1
1,69,0,239
1,64,78,1
1,64,0,119
1,69,90,1
1,69,0,119
1,67,90,1
1,67,0,239
1,69,87,1
1,69,0,119
1,71,92,1
1,71,0,119
1,72,67,1
1,72,0,119
1,76,70,1
1,76,0,119
1,74,80,1
1,74,0,119
1,71,87,1
1,71,0,119
1,69,88,1
1,69,0,359
1,64,78,1
1,64,0,119
1,69,92,1
1,69,0,239
1,64,87,1
1,64,0,119
1,69,102,1
1,69,0,119
1,67,88,1
1,67,0,239
1,69,85,1
1,69,0,119
1,71,77,1
1,71,0,119
1,72,70,1
1,72,0,119
1,76,64,1
1,76,0,119
1,74,77,1
1,74,0,119
1,71,84,1
1,71,0,119
1,69,78,1
1,69,0,239
1,67,76,1
1,67,0,239
1,60,66,1
1,60,0,119
1,62,78,1
1,62,0,119
1,64,76,1
1,64,0,119
1,65,78,1
1,65,0,119
1,62,78,1
1,62,0,360
1,67,69,60
1,67,0,59
1,67,71,1
1,67,0,59
1,65,66,1
1,65,0,59
1,64,81,1
1,64,0,59
1,65,75,1
1,65,0,59
1,64,81,1
1,64,0,119
1,62,85,1
1,62,0,119
1,64,87,1
1,64,0,239
1,62,87,1
1,62,0,239
1,60,75,1
1,60,0,119
1,62,87,1
1,62,0,119
1,64,85,1
1,64,0,119
1,65,80,1
1,65,0,119
1,62,81,1
1,62,0,360
1,67,70,60
1,67,0,59
1,67,77,1
1,67,0,59
1,65,70,1
1,65,0,59
1,64,82,1
1,64,0,59
1,65,78,1
1,65,0,59
1,64,92,1
1,64,0,119
1,62,90,1
1,62,0,119
1,60,76,1
1,60,0,299
1,60,67,181
1,60,0,119
1,62,80,1
1,62,0,119
1,64,85,1
1,64,0,119
1,65,77,1
1,65,0,119
1,62,78,1
1,62,0,359
1,67,77,61
1,67,0,59
1,67,82,1
1,67,0,59
1,65,70,1
1,65,0,59
1,64,81,1
1,64,0,59
1,65,74,1
1,65,0,59
1,64,87,1
1,64,0,119
1,62,81,1
1,62,0,119
1,64,78,1
1,64,0,239
1,62,87,1
1,62,0,239
1,60,73,1
1,60,0,119
1,62,84,1
1,62,0,119
1,64,80,1
1,64,0,119
1,65,70,1
1,65,0,119
1,62,80,1
1,62,0,360
1,67,78,60
1,67,0,59
1,67,82,1
1,67,0,59
1,65,70,1
1,65,0,59
1,64,88,1
1,64,0,59
1,65,77,1
1,65,0,59
1,64,90,1
1,64,0,119
1,62,94,1
1,62,0,119
1,60,87,1
1,60,0,239
1,64,88,1
1,64,0,59
1,67,69,61
1,67,0,119
1,69,84,1
1,69,0,239
1,64,78,1
1,64,0,119
1,69,90,1
1,69,0,119
1,67,90,1
1,67,0,239
1,69,87,1
1,69,0,119
1,71,92,1
1,71,0,119
1,72,67,1
1,72,0,119
1,76,70,1
1,76,0,119
1,74,80,1
1,74,0,119
1,71,87,1
1,71,0,119
1,69,88,1
1,69,0,359
1,64,78,1
1,64,0,119
1,69,92,1
1,69,0,239
1,64,87,1
1,64,0,119
1,69,102,1
1,69,0,119
1,67,88,1
1,67,0,239
1,69,85,1
1,69,0,119
1,71,77,1
1,71,0,119
1,72,70,1
1,72,0,119
1,76,64,1
1,76,0,119
1,74,77,1
1,74,0,119
1,71,84,1
1,71,0,119
1,69,78,1
1,69,0,239
1,67,76,1
1,67,0,239
1,60,66,1
1,60,0,119
1,62,78,1
1,62,0,119
1,64,76,1
1,64,0,119
1,65,78,1
1,65,0,119
1,62,78,1
1,62,0,360
1,67,69,60
1,67,0,59
1,67,71,1
1,67,0,59
1,65,66,1
1,65,0,59
1,64,81,1
1,64,0,59
1,65,75,1
1,65,0,59
1,64,81,1
1,64,0,119
1,62,85,1
1,62,0,119
1,64,87,1
1,64,0,239
1,62,87,1
1,62,0,239
1,60,75,1
1,60,0,119
1,62,87,1
1,62,0,119
1,64,85,1
1,64,0,119
1,65,80,1
1,65,0,119
1,62,81,1
1,62,0,360
1,67,70,60
1,67,0,59
1,67,77,1
1,67,0,59
1,65,70,1
1,65,0,59
1,64,82,1
1,64,0,59
1,65,78,1
1,65,0,59
1,64,92,1
1,64,0,119
1,62,90,1
1,62,0,119
1,60,76,1
1,60,0,419
2,76,93,4089
2,76,0,89
2,76,88,28
2,76,0,56
2,74,95,2
2,74,0,56
2,79,90,6
2,79,0,121
2,76,89,0
2,76,0,111
2,72,87,4
2,72,0,121
2,69,90,1
2,69,0,166
2,67,94,77
2,67,0,100
2,77,85,16
2,77,0,94
2,77,89,23
2,74,92,63
2,77,0,1
2,74,0,52
2,79,92,7
2,77,90,118
2,79,0,9
2,77,0,109
2,76,95,3
2,76,0,138
2,76,86,40
2,76,0,28
2,79,87,3
2,77,84,27
2,79,0,9
2,76,83,19
2,77,0,3
2,74,90,25
2,76,0,34
2,72,96,32
2,74,0,5
2,71,94,53
2,72,0,4
2,71,0,51
2,76,96,6
2,76,0,99
2,76,94,22
2,74,94,65
2,76,0,3
2,79,96,60
2,74,0,1
2,76,92,107
2,79,0,6
2,81,85,113
2,76,0,2
2,81,0,123
2,76,86,0
2,76,0,85
2,76,87,38
2,76,0,121
2,74,98,1
2,74,0,118
2,79,96,2
2,76,92,183
2,79,0,2
2,72,92,55
2,76,0,2
2,72,0,105
2,71,93,7
2,71,0,112
2,72,92,8
2,72,0,340
2,76,82,141
2,76,0,119
2,76,82,1
2,76,0,55
2,74,80,5
2,74,0,60
2,79,81,0
2,79,0,115
2,76,102,5
2,76,0,109
2,72,94,11
2,72,0,118
2,69,100,2
2,67,85,240
2,69,0,10
2,67,0,109
2,77,87,1
2,77,0,89
2,77,78,31
2,77,0,59
2,74,81,1
2,74,0,60
2,79,78,0
2,79,0,110
2,77,82,10
2,77,0,109
2,76,98,11
2,76,0,114
2,76,80,6
2,76,0,59
2,79,85,1
2,79,0,59
2,76,96,1
2,76,0,114
2,74,94,6
2,74,0,112
2,76,100,8
2,76,0,115
2,76,100,5
2,76,0,59
2,74,98,1
2,74,0,59
2,79,85,1
2,79,0,114
2,76,98,6
2,76,0,111
2,81,98,9
2,81,0,119
2,76,100,1
2,76,0,107
2,76,87,13
2,76,0,116
2,74,96,4
2,74,0,114
2,79,84,6
2,79,0,119
2,76,102,1
2,76,0,119
2,72,104,1
2,72,0,109
2,71,100,11
2,71,0,112
2,72,107,8
2,72,0,261
2,72,82,23742
2,76,87,0
2,72,0,44
2,76,0,4
2,72,70,126
2,76,66,2
2,72,0,25
2,74,70,1
2,77,45,12
2,74,0,11
2,76,0,1
2,77,0,1
2,76,85,1
2,79,89,0
2,79,0,92
2,76,0,2
2,79,77,23
2,76,73,1
2,79,0,23
2,76,0,8
2,77,73,24
2,74,73,1
2,74,0,44
2,77,0,3
2,72,78,12
2,76,80,0
2,72,0,30
2,76,0,3
2,67,81,56
2,76,61,2
2,74,56,1
2,74,0,7
2,76,0,5
2,67,0,3
2,76,78,167
2,84,78,1
2,84,0,13
2,76,0,0
2,76,81,5
2,84,85,0
2,76,0,121
2,83,69,5
2,84,0,9
2,81,60,24
2,83,0,11
2,79,70,15
2,81,0,5
2,77,79,91
2,79,0,2
2,77,0,22
2,77,85,37
2,77,0,42
2,76,79,13
2,76,0,27
2,79,103,108
2,84,83,28
2,79,0,12
2,88,79,14
2,84,0,10
2,91,87,21
2,88,0,4
2,89,90,27
2,91,0,10
2,88,78,19
2,89,0,7
2,86,82,24
2,88,0,8
2,88,81,21
2,86,0,8
2,88,0,19
2,89,89,5
2,88,78,20
2,89,0,9
2,86,65,4
2,88,0,11
2,84,71,4
2,86,0,7
2,86,59,14
2,84,0,6
2,88,84,4
2,86,0,9
2,86,79,59
2,88,0,14
2,84,89,40
2,86,0,7
2,83,95,43
2,84,0,1
2,84,90,47
2,83,0,7
2,84,0,21
2,81,93,1
2,83,92,36
2,81,0,2
2,83,0,53
2,91,83,8
2,79,78,0
2,79,0,40
2,81,73,21
2,84,81,60
2,88,82,57
2,91,0,9
2,84,0,51
2,86,69,9
2,81,0,15
2,88,0,8
2,84,83,36
2,86,0,9
2,86,90,49
2,84,0,9
2,84,78,64
2,86,0,10
2,84,0,25
2,79,88,10
2,84,92,1
2,84,0,45
2,79,0,9
2,79,80,83
2,76,67,1
2,76,0,14
2,79,0,2
2,79,79,46
2,72,72,1
2,74,78,2
2,74,0,9
2,79,0,0
2,72,0,1
2,79,101,234
2,84,101,0
2,88,104,0
2,88,0,50
2,84,0,2
2,79,0,0
2,96,95,199
2,84,83,1
2,84,0,11
2,96,0,1
2,86,83,18
2,98,77,1
2,98,0,5
2,86,0,2
2,88,103,23
2,100,108,0
2,100,0,44
2,88,0,6
2,100,88,99
2,88,94,2
2,88,0,15
2,100,0,0
2,86,89,42
2,98,105,1
2,86,0,17
2,98,0,2
2,96,105,41
2,84,94,0
2,84,0,19
2,96,0,0
2,81,84,36
2,93,99,1
2,93,0,72
2,81,0,4
2,77,88,159
2,89,98,0
2,77,0,13
2,89,0,1
2,79,95,16
2,91,96,0
2,91,0,13
2,79,0,0
2,81,94,16
2,93,100,1
2,81,0,13
2,93,0,1
2,83,92,46
2,95,105,1
2,83,0,11
2,95,0,1
2,96,104,3
2,84,95,0
2,84,0,21
2,96,0,5
2,95,101,93
2,83,94,1
2,83,0,16
2,95,0,0
2,83,92,41
2,95,104,1
2,83,0,20
2,95,0,3
2,86,101,39
2,98,109,0
2,86,0,20
2,98,0,1
2,84,99,8
2,96,107,1
2,96,0,32
2,84,0,5
2,72,103,70
2,74,94,27
2,72,0,2
2,76,89,25
2,74,0,9
2,76,0,8
2,76,83,15
2,77,77,0
2,76,0,18
2,77,0,3
2,79,83,7
2,77,72,2
2,77,0,5
2,81,83,22
2,79,0,7
2,81,0,9
2,79,103,13
2,91,107,3
2,79,0,92
2,91,0,1
2,79,99,58
2,91,104,0
2,91,0,12
2,79,0,0
2,93,103,19
2,81,93,0
2,81,0,10
2,93,0,1
2,95,101,19
2,83,89,0
2,83,0,12
2,95,0,0
2,96,90,19
2,84,82,1
2,84,0,9
2,96,0,1
2,98,107,18
2,86,99,0
2,86,0,11
2,98,0,0
2,88,94,17
2,100,103,1
2,100,0,8
2,88,0,2
2,89,104,17
2,101,107,0
2,89,0,12
2,101,0,1
2,103,105,14
2,91,94,2
2,91,0,12
2,103,0,0
2,105,108,20
2,93,103,0
2,93,0,12
2,105,0,1
2,105,112,48
2,93,107,0
2,93,0,10
2,105,0,1
2,103,108,24
2,91,101,1
2,103,0,50
2,91,0,1
2,88,104,72
2,100,105,0
2,100,0,16
2,88,0,1
2,96,105,114
2,84,95,1
2,84,0,13
2,96,0,0
2,81,101,97
2,79,100,0
2,86,101,0
2,79,0,74
2,81,0,8
2,86,0,26
2,77,100,32
2,81,96,0
2,86,99,0
2,86,0,3
2,81,0,8
2,77,0,0
2,79,107,47
2,74,88,1
2,76,93,0
2,84,88,0
2,83,98,0
2,83,0,2
2,74,0,18
2,76,0,57
2,79,0,6
2,84,0,4
2,74,108,27
2,83,104,0
2,79,89,2
2,74,0,42
2,83,0,2
2,79,0,1
2,84,81,64
2,88,78,0
2,76,84,0
2,79,88,0
2,86,82,1
2,86,0,2
2,76,0,61
2,76,103,6
2,88,0,3
2,79,0,1
2,84,0,1
2,76,0,18
2,72,79,25
2,76,76,4
2,79,71,3
2,72,0,1
2,84,70,1
2,86,77,0
2,76,0,1
2,79,0,2
2,86,0,1
2,84,0,1
2,88,27,48
2,91,64,7
2,88,0,1
2,96,72,1
2,100,80,3
2,100,0,67
2,96,0,3
2,91,0,0
3,48,65,240
3,55,49,60
3,55,0,59
3,60,65,1
3,60,0,59
3,48,0,0
3,55,59,1
3,55,0,59
3,47,58,1
3,55,58,60
3,55,0,59
3,59,60,1
3,59,0,59
3,47,0,0
3,55,68,1
3,55,0,59
3,45,66,1
3,52,35,60
3,52,0,59
3,57,53,1
3,57,0,59
3,45,0,0
3,52,58,1
3,52,0,59
3,43,54,1
3,50,70,60
3,50,0,59
3,55,59,1
3,55,0,59
3,43,0,0
3,50,67,1
3,50,0,59
3,41,56,1
3,48,55,60
3,48,0,59
3,53,66,1
3,53,0,59
3,41,0,0
3,48,61,1
3,48,0,59
3,43,75,1
3,50,60,60
3,50,0,59
3,55,67,1
3,55,0,59
3,43,0,0
3,50,60,1
3,50,0,59
3,48,68,1
3,55,63,60
3,55,0,59
3,60,69,1
3,60,0,59
3,48,0,0
3,55,58,1
3,55,0,59
3,43,81,1
3,50,63,60
3,50,0,59
3,55,78,1
3,55,0,59
3,43,0,0
3,50,70,1
3,50,0,59
3,48,73,1
3,55,70,60
3,55,0,59
3,60,82,1
3,60,0,59
3,48,0,0
3,55,67,1
3,55,0,59
3,47,73,1
3,55,48,60
3,55,0,59
3,59,71,1
3,59,0,59
3,47,0,0
3,55,76,1
3,55,0,59
3,45,73,1
3,52,63,60
3,52,0,59
3,57,74,1
3,57,0,59
3,45,0,0
3,52,67,1
3,52,0,59
3,43,85,1
3,50,65,60
3,50,0,59
3,55,70,1
3,55,0,59
3,43,0,0
3,50,65,1
3,50,0,59
3,41,65,1
3,48,62,60
3,48,0,59
3,53,81,1
3,53,0,59
3,41,0,0
3,48,69,1
3,48,0,59
3,43,82,1
3,50,67,60
3,50,0,59
3,55,75,1
3,55,0,59
3,43,0,0
3,50,71,1
3,50,0,59
3,48,87,1
3,55,70,60
3,55,0,59
3,60,76,1
3,60,0,59
3,48,0,0
3,55,70,1
3,55,0,59
3,48,62,1
3,60,62,0
3,55,64,0
3,55,0,119
3,60,0,0
3,48,0,0
3,48,65,121
3,55,49,60
3,55,0,59
3,60,65,1
3,60,0,59
3,48,0,0
3,55,59,1
3,55,0,59
3,47,58,1
3,55,58,60
3,55,0,59
3,59,60,1
3,59,0,59
3,47,0,0
3,55,68,1
3,55,0,59
3,45,66,1
3,52,35,60
3,52,0,59
3,57,53,1
3,57,0,59
3,45,0,0
3,52,58,1
3,52,0,59
3,43,54,1
3,50,70,60
3,50,0,59
3,55,59,1
3,55,0,59
3,43,0,0
