track,note,velocity,time
1,77,105,13200
1,77,105,128
1,75,105,58
1,75,105,50
1,73,105,3
1,68,105,13
1,70,105,58
1,77,105,38
1,77,105,155
1,75,105,35
1,75,105,33
1,73,105,3
1,73,105,110
1,70,105,5
1,73,105,108
1,68,105,3
1,73,105,58
1,66,105,18
1,73,105,640
1,75,105,108
1,77,105,115
1,75,105,20
1,72,105,78
1,68,105,3
1,78,105,453
1,77,105,5
1,75,105,3
1,73,105,3
1,72,105,23
1,73,105,3
1,77,105,3360
1,77,105,130
1,75,105,35
1,75,105,55
1,73,105,3
1,68,105,3
1,70,105,100
1,77,105,338
1,77,105,3
1,75,105,120
1,75,105,50
1,73,105,38
1,73,105,68
1,70,105,5
1,73,105,193
1,68,105,98
1,73,105,128
1,66,105,20
1,73,105,843
1,75,105,3
1,77,105,50
1,77,105,63
1,75,105,38
1,75,105,90
1,72,105,40
1,68,105,3
1,78,105,608
1,77,105,13
1,75,105,8
1,73,105,3
1,72,105,5
1,73,105,68
1,72,105,3325
1,77,105,3
1,77,105,105
1,77,105,103
1,77,105,120
1,72,105,193
1,72,105,63
1,68,105,3
1,68,105,88
1,65,105,30
1,65,105,115
1,65,105,3
1,68,105,83
1,73,105,63
1,72,105,65
1,70,105,3
1,68,105,18
1,70,105,3
1,73,105,415
1,72,105,35
1,70,105,3
1,68,105,3
1,70,105,3
1,73,105,152
1,75,105,13
1,75,105,140
1,75,105,118
1,73,105,3
1,75,105,68
1,73,105,3
1,70,105,15
1,77,105,103
1,75,105,145
1,73,105,110
1,70,105,130
1,73,105,63
1,78,105,108
1,77,105,240
1,75,105,78
1,73,105,113
1,78,105,90
1,78,105,240
1,77,105,3
1,75,105,115
1,77,105,240
1,77,105,180
1,75,105,45
1,75,105,63
1,73,105,30
1,68,105,15
1,70,105,63
1,77,105,123
1,77,105,185
1,75,105,43
1,75,105,68
1,73,105,3
1,73,105,110
1,70,105,3
1,73,105,135
1,68,105,3
1,73,105,133
1,66,105,13
1,73,105,868
1,75,105,3
1,77,105,8
1,75,105,3
1,72,105,3
1,68,105,3
1,78,105,333
1,77,105,3
1,75,105,25
1,73,105,3
1,72,105,3
1,77,105,3
1,72,105,73
1,70,105,3
1,78,105,795
1,77,105,3
1,75,105,10
1,73,105,3
1,72,105,20
1,73,105,3
1,68,105,843
1,73,105,3
1,75,105,33
1,77,105,1545
1,77,105,128
1,75,105,58
1,75,105,50
1,73,105,3
1,68,105,13
1,70,105,58
1,77,105,38
1,77,105,155
1,75,105,35
1,75,105,33
1,73,105,3
1,73,105,110
1,70,105,5
1,73,105,108
1,68,105,3
1,73,105,58
1,66,105,18
1,73,105,640
1,75,105,108
1,77,105,115
1,75,105,20
1,72,105,78
1,68,105,3
1,78,105,453
1,77,105,5
1,75,105,3
1,73,105,3
1,72,105,23
1,73,105,3
1,72,105,3357
1,77,105,3
1,77,105,105
1,77,105,103
1,77,105,120
1,72,105,193
1,72,105,63
1,68,105,3
1,68,105,88
1,65,105,30
1,65,105,115
1,65,105,3
1,68,105,83
1,73,105,63
1,72,105,65
1,70,105,3
1,68,105,18
1,70,105,3
1,73,105,415
1,72,105,35
1,70,105,3
1,68,105,3
1,70,105,3
1,73,105,152
1,75,105,13
1,75,105,140
1,75,105,118
1,73,105,3
1,75,105,68
1,73,105,3
1,70,105,15
1,77,105,103
1,75,105,145
1,73,105,110
1,70,105,130
1,73,105,63
1,78,105,108
1,77,105,240
1,75,105,78
1,73,105,113
1,78,105,90
1,78,105,240
1,77,105,3
1,75,105,115
1,77,105,240
1,77,105,180
1,75,105,45
1,75,105,63
1,73,105,30
1,68,105,15
1,70,105,63
1,77,105,123
1,77,105,185
1,75,105,43
1,75,105,68
1,73,105,3
1,73,105,110
1,70,105,3
1,73,105,135
1,68,105,3
1,73,105,133
1,66,105,13
1,73,105,868
1,75,105,3
1,77,105,8
1,75,105,3
1,72,105,3
1,68,105,3
1,78,105,333
1,77,105,3
1,75,105,25
1,73,105,3
1,72,105,3
1,77,105,3
1,72,105,73
1,70,105,3
1,78,105,795
1,77,105,3
1,75,105,10
1,73,105,3
1,72,105,20
1,73,105,3
1,68,105,843
1,70,105,3
1,75,105,33
1,68,105,1065
1,70,105,3
1,73,105,43
1,68,105,1035
1,70,105,3
1,75,105,3
1,68,105,1120
1,70,105,3
1,73,105,55
1,69,105,925
1,71,105,40
1,74,105,65
1,71,105,893
1,74,105,10
1,75,105,45
1,71,105,855
1,75,105,58
1,76,105,38
1,78,105,583
1,70,105,250
1,73,105,43
1,70,105,45
1,68,105,303
1,70,105,3
1,73,105,228
1,68,105,95
1,70,105,98
1,68,105,173
1,70,105,20
1,73,105,183
1,70,105,143
1,68,105,243
1,70,105,10
1,73,105,245
1,68,105,85
1,70,105,100
1,68,105,203
1,70,105,3
1,77,105,270
1,73,105,120
1,75,105,25
1,73,105,165
1,75,105,25
1,77,105,218
1,77,105,143
1,75,105,50
1,73,105,135
1,75,105,3
1,77,105,200
1,75,105,83
1,73,105,128
1,75,105,3
1,77,105,200
1,77,105,168
1,75,105,68
1,73,105,133
1,75,105,3
1,73,105,240
1,70,105,240
1,68,105,240
1,70,105,13
1,73,105,273
1,73,105,65
1,70,105,20
1,68,105,183
1,70,105,18
1,73,105,240
1,70,105,45
1,68,105,240
1,70,105,40
1,73,105,240
1,73,105,88
1,70,105,3
1,68,105,155
2,53,82,1680
2,56,84,0
2,61,81,0
2,53,63,113
2,56,50,0
2,61,55,0
2,54,84,183
2,58,81,0
2,61,81,0
2,54,54,5
2,53,72,173
2,56,81,0
2,61,81,0
2,54,79,168
2,58,81,0
2,61,72,0
2,53,85,188
2,56,79,0
2,61,88,0
2,53,61,18
2,54,81,203
2,58,79,0
2,61,74,0
2,54,22,110
2,53,68,175
2,56,81,0
2,61,81,0
2,54,79,205
2,58,79,0
2,61,74,0
2,53,85,153
2,56,81,0
2,61,84,0
2,53,56,108
2,54,81,208
2,58,76,0
2,61,74,0
2,54,40,53
2,53,70,200
2,56,79,0
2,61,79,0
2,54,84,193
2,58,100,0
2,61,72,0
2,53,88,150
2,56,81,0
2,61,81,0
2,53,61,60
2,54,79,185
2,58,79,0
2,61,79,0
2,53,72,198
2,56,79,0
2,61,79,0
2,54,81,140
2,58,76,0
2,61,79,0
2,53,82,173
2,56,79,0
2,61,79,0
2,53,58,15
2,54,79,208
2,58,79,0
2,61,74,0
2,53,82,195
2,56,81,0
2,61,76,0
2,54,79,133
2,58,81,0
2,61,66,0
2,44,88,123
2,44,79,133
2,44,88,133
2,44,81,185
2,44,72,165
2,53,82,155
2,56,84,0
2,61,84,0
2,53,80,18
2,54,81,173
2,58,88,0
2,61,79,0
2,54,41,0
2,53,73,175
2,56,76,0
2,61,79,0
2,54,70,193
2,58,70,0
2,61,70,0
2,53,85,188
2,56,81,0
2,61,84,0
2,53,72,20
2,54,79,178
2,58,79,0
2,61,76,0
2,54,54,55
2,53,82,175
2,56,81,0
2,61,81,0
2,54,84,130
2,58,88,0
2,61,76,0
2,54,93,138
2,58,109,0
2,61,93,0
2,53,91,258
2,56,100,0
2,61,100,0
2,56,53,175
2,51,100,208
2,54,93,0
2,58,100,0
2,51,84,55
2,58,45,0
2,51,88,175
2,56,81,0
2,60,82,0
2,51,55,43
2,51,88,168
2,54,88,0
2,58,100,0
2,61,88,0
2,51,54,0
2,51,93,395
2,56,76,0
2,60,85,0
2,51,31,113
2,51,68,140
2,53,88,185
2,56,84,0
2,61,88,0
2,53,62,28
2,51,88,165
2,56,76,0
2,60,80,0
2,51,53,38
2,56,55,5
2,49,88,165
2,54,79,0
2,58,100,0
2,49,64,75
2,54,45,123
2,51,93,385
2,56,81,0
2,60,72,0
2,51,58,10
2,56,58,240
2,53,85,173
2,56,84,0
2,61,88,0
2,53,62,175
2,56,74,0
2,61,64,0
2,53,88,195
2,56,100,0
2,61,93,0
2,53,58,13
2,37,109,180
2,53,88,0
2,56,88,0
2,61,88,0
2,39,81,10
2,53,42,0
2,42,93,165
2,32,72,120
2,44,100,0
2,32,72,123
2,44,88,0
2,32,79,95
2,44,84,0
2,32,68,43
2,32,81,148
2,44,84,0
2,32,76,173
2,44,93,0
2,53,82,240
2,56,84,0
2,61,84,0
2,53,80,18
2,54,81,173
2,58,88,0
2,61,79,0
2,54,41,0
2,53,73,175
2,56,76,0
2,61,79,0
2,54,70,193
2,58,70,0
2,61,70,0
2,53,85,188
2,56,81,0
2,61,84,0
2,53,72,20
2,54,79,178
2,58,79,0
2,61,76,0
2,54,54,55
2,53,82,175
2,56,81,0
2,61,81,0
2,54,84,130
2,58,88,0
2,61,76,0
2,54,93,138
2,58,109,0
2,61,93,0
2,53,91,258
2,56,100,0
2,61,100,0
2,56,53,175
2,51,100,208
2,54,93,0
2,58,100,0
2,51,84,55
2,58,45,0
2,51,88,175
2,56,81,0
2,60,82,0
2,51,55,43
2,51,88,168
2,54,88,0
2,58,100,0
2,61,88,0
2,51,54,0
2,51,93,395
2,56,76,0
2,60,85,0
2,51,31,113
2,51,68,140
2,53,88,185
2,56,84,0
2,61,88,0
2,53,62,28
2,51,88,165
2,56,76,0
2,60,80,0
2,51,53,38
2,56,55,5
2,49,88,165
2,54,79,0
2,58,100,0
2,49,64,75
2,54,45,123
2,51,93,385
2,56,81,0
2,60,72,0
2,51,58,10
2,56,58,240
2,53,85,173
2,56,84,0
2,61,88,0
2,53,63,175
2,56,50,0
2,61,55,0
2,54,84,183
2,58,81,0
2,61,81,0
2,54,54,5
2,53,72,173
2,56,81,0
2,61,81,0
2,54,79,168
2,58,81,0
2,61,72,0
2,53,85,188
2,56,79,0
2,61,88,0
2,53,61,18
2,54,81,203
2,58,79,0
2,61,74,0
2,54,22,110
2,53,68,175
2,56,81,0
2,61,81,0
2,54,79,205
2,58,79,0
2,61,74,0
2,56,85,153
2,60,81,0
2,63,84,0
2,53,68,5
2,56,62,0
2,60,62,0
2,63,62,0
2,53,58,138
2,56,61,0
2,60,62,0
2,63,55,0
2,53,70,155
2,56,58,0
2,60,63,0
2,63,57,0
2,53,58,133
2,56,59,0
2,60,62,0
2,63,55,0
2,53,62,145
2,56,52,0
2,60,54,0
2,63,57,0
2,53,59,130
2,56,58,0
2,60,61,0
2,63,52,0
2,53,66,160
2,56,53,0
2,60,63,0
2,63,57,0
2,53,68,135
2,56,51,0
2,60,58,0
2,63,59,0
2,53,62,138
2,56,53,0
2,60,58,0
2,63,58,0
2,53,55,135
2,56,54,0
2,60,56,0
2,63,49,0
2,53,70,150
2,56,58,0
2,60,59,0
2,63,63,0
2,53,63,133
2,56,52,0
2,60,63,0
2,63,60,0
2,53,67,153
2,56,52,0
2,60,59,0
2,63,61,0
2,53,72,140
2,56,59,0
2,60,67,0
2,53,64,135
2,56,57,0
2,63,71,0
2,53,46,53
2,56,57,0
2,60,73,0
2,58,67,135
2,61,65,0
2,65,68,0
2,58,75,123
2,61,57,0
2,65,70,0
2,58,73,145
2,61,51,0
2,65,69,0
2,58,81,143
2,61,59,0
2,65,68,0
2,68,79,0
2,58,55,113
2,61,58,0
2,65,58,0
2,68,57,0
2,58,56,133
2,61,59,0
2,65,58,0
2,68,60,0
2,58,84,158
2,61,60,0
2,65,68,0
2,68,77,0
2,58,44,108
2,61,60,0
2,65,66,0
2,58,75,153
2,61,57,0
2,65,69,0
2,58,71,118
2,61,57,0
2,65,68,0
2,58,67,145
2,61,49,0
2,65,66,0
2,58,81,148
2,61,62,0
2,65,75,0
2,68,79,0
2,58,49,113
2,61,53,0
2,65,56,0
2,68,58,0
2,58,58,143
2,61,60,0
2,65,59,0
2,68,61,0
2,58,84,145
2,61,61,0
2,65,72,0
2,68,75,0
2,58,53,125
2,61,60,0
2,65,67,0
2,58,65,185
2,61,61,0
2,63,62,0
2,67,70,0
2,58,69,125
2,61,63,0
2,63,61,0
2,67,61,0
2,58,71,128
2,61,65,0
2,63,61,0
2,67,67,0
2,58,65,105
2,61,61,0
2,63,60,0
2,67,67,0
2,58,63,135
2,61,61,0
2,63,62,0
2,67,63,0
2,58,69,128
2,61,63,0
2,63,61,0
2,67,63,0
2,58,63,140
2,61,63,0
2,63,60,0
2,67,59,0
2,58,63,133
2,61,63,0
2,63,61,0
2,67,59,0
2,58,65,135
2,61,65,0
2,63,62,0
2,67,58,0
2,58,71,98
2,61,65,0
2,63,60,0
2,67,64,0
2,58,57,138
2,61,60,0
2,63,61,0
2,67,56,0
2,58,67,105
2,61,62,0
2,63,59,0
2,67,57,0
2,58,65,118
2,61,62,0
2,63,62,0
2,67,58,0
2,58,69,103
2,61,62,0
2,63,60,0
2,67,61,0
2,58,75,110
2,61,67,0
2,63,65,0
2,67,56,0
2,39,58,108
2,51,67,0
2,54,72,0
2,58,72,0
2,63,72,0
2,54,45,75
2,58,58,0
2,63,43,0
2,39,44,123
2,51,39,0
2,53,69,0
2,58,71,0
2,63,71,0
2,39,58,78
2,51,67,0
2,53,61,0
2,58,65,0
2,63,57,0
2,39,50,85
2,54,71,0
2,58,71,0
2,63,71,0
2,39,58,73
2,51,57,0
2,54,52,0
2,58,69,0
2,63,60,0
2,39,62,148
2,51,67,0
2,55,74,0
2,58,74,0
2,63,74,0
2,39,56,98
2,51,54,0
2,63,63,0
2,32,55,163
2,44,69,0
2,48,72,0
2,51,73,0
2,56,75,0
2,32,55,93
2,48,67,0
2,51,45,0
2,56,40,0
2,32,52,150
2,44,76,0
2,51,79,0
2,57,75,0
2,32,52,68
2,51,47,0
2,32,51,130
2,44,84,0
2,51,79,0
2,58,81,0
2,32,62,33
2,51,48,0
2,58,35,0
2,44,81,180
2,51,81,0
2,59,85,0
2,32,60,63
2,53,82,33
2,56,84,0
2,61,84,0
2,53,80,18
2,54,81,173
2,58,88,0
2,61,79,0
2,54,41,0
2,53,73,175
2,56,76,0
2,61,79,0
2,54,70,193
2,58,70,0
2,61,70,0
2,53,85,188
2,56,81,0
2,61,84,0
2,53,72,20
2,54,79,178
2,58,79,0
2,61,76,0
2,54,54,55
2,53,82,175
2,56,81,0
2,61,81,0
2,54,84,130
2,58,88,0
2,61,76,0
2,54,93,138
2,58,109,0
2,61,93,0
2,53,91,258
2,56,100,0
2,61,100,0
2,56,53,175
2,51,100,208
2,54,93,0
2,58,100,0
2,51,84,55
2,58,45,0
2,51,88,175
2,56,81,0
2,60,82,0
2,51,55,43
2,51,88,168
2,54,88,0
2,58,100,0
2,61,88,0
2,51,54,0
2,51,93,395
2,56,76,0
2,60,85,0
2,51,31,113
2,51,68,140
2,53,88,185
2,56,84,0
2,61,88,0
2,53,62,28
2,51,88,165
2,56,76,0
2,60,80,0
2,51,53,38
2,56,55,5
2,49,88,165
2,54,79,0
2,58,100,0
2,49,64,75
2,54,45,123
2,51,93,385
2,56,81,0
2,60,72,0
2,51,58,10
2,56,58,240
2,53,88,173
2,56,85,0
2,60,84,0
2,53,50,175
2,56,55,0
2,60,63,0
2,53,81,183
2,56,81,0
2,60,84,0
2,53,54,5
2,53,81,173
2,58,72,0
2,61,81,0
2,53,79,168
2,58,72,0
2,61,81,0
2,49,79,188
2,54,85,0
2,58,88,0
2,49,61,18
2,49,79,203
2,54,74,0
2,58,81,0
2,49,22,110
2,51,68,175
2,56,81,0
2,60,81,0
2,51,79,205
2,56,79,0
2,60,74,0
2,53,85,153
2,56,84,0
2,61,88,0
2,53,62,175
2,56,74,0
2,61,64,0
2,53,88,195
2,56,100,0
2,61,93,0
2,53,58,13
2,37,109,180
2,53,88,0
2,56,88,0
2,61,88,0
2,39,81,10
2,53,42,0
2,42,93,165
2,32,72,120
2,44,100,0
2,32,72,123
2,44,88,0
2,32,79,95
2,44,84,0
2,32,68,43
2,32,81,148
2,44,84,0
2,32,76,173
2,44,93,0
2,53,82,240
2,56,84,0
2,61,84,0
2,53,80,18
2,54,81,173
2,58,88,0
2,61,79,0
2,54,41,0
2,53,73,175
2,56,76,0
2,61,79,0
2,54,70,193
2,58,70,0
