track,note,velocity,time
0,36,127,24
0,49,126,0
0,36,79,0
0,67,94,192
0,72,90,0
0,38,126,104
0,67,106,0
0,72,106,0
0,36,127,78
0,67,105,0
0,72,105,0
0,67,113,94
0,72,111,0
0,38,127,20
0,36,127,192
0,36,107,0
0,67,100,24
0,72,101,0
0,38,127,94
0,67,113,0
0,72,117,0
0,48,102,16
0,36,127,64
0,67,107,0
0,72,103,0
0,67,117,92
0,72,113,0
0,38,127,94
0,48,107,60
0,38,127,68
0,36,127,96
0,36,92,0
0,67,103,82
0,72,98,0
0,38,126,52
0,67,122,0
0,72,115,0
0,48,78,116
0,36,127,48
0,67,106,0
0,72,117,0
0,67,113,92
0,72,117,0
0,38,127,44
0,67,113,192
0,72,127,0
0,36,127,198
0,43,90,0
0,62,107,0
0,67,103,0
0,36,127,94
0,43,105,0
0,62,113,0
0,67,102,0
0,36,127,112
0,43,105,0
0,62,105,0
0,67,103,0
0,36,127,76
0,49,127,0
0,43,120,0
0,62,120,0
0,67,120,0
0,36,127,106
0,42,124,0
0,49,126,0
0,36,106,0
0,60,80,192
0,67,97,0
0,72,101,0
0,38,126,74
0,42,127,0
0,36,127,0
0,60,113,0
0,67,105,0
0,72,102,0
0,42,83,0
0,48,86,30
0,36,127,56
0,42,127,0
0,36,127,0
0,60,95,0
0,67,100,0
0,72,100,0
0,42,86,66
0,31,127,0
0,60,106,0
0,67,102,0
0,72,91,0
0,38,127,124
0,42,127,0
0,33,127,0
0,42,89,6
0,36,127,0
0,36,102,0
0,36,127,16
0,42,127,0
0,42,85,12
0,60,117,0
0,67,102,0
0,72,97,0
0,38,127,52
0,42,127,0
0,36,127,0
0,60,118,0
0,67,100,0
0,72,118,0
0,42,85,78
0,48,82,30
0,36,127,50
0,42,127,0
0,36,127,0
0,60,101,0
0,67,97,0
0,72,98,0
0,42,87,8
0,31,127,0
0,60,107,0
0,67,107,0
0,72,98,0
0,23,49,56
0,21,48,2
0,24,76,4
0,26,70,22
0,38,127,10
0,42,127,0
0,33,127,0
0,28,51,6
0,29,49,0
0,31,65,12
0,33,74,10
0,35,72,6
0,36,69,6
0,38,80,2
0,40,76,2
0,42,89,16
0,46,124,0
0,36,127,0
0,41,84,0
0,60,102,0
0,65,81,0
0,69,98,0
0,41,72,12
0,43,69,0
0,45,74,10
0,47,75,2
0,48,81,18
0,50,66,6
0,76,81,16
0,77,88,0
0,84,82,2
0,81,84,2
0,36,127,8
0,42,127,0
0,41,127,0
0,52,45,0
0,42,87,56
0,38,124,10
0,42,127,0
0,42,90,24
0,40,83,0
0,59,93,0
0,64,98,0
0,67,95,0
0,74,90,0
0,76,90,2
0,79,85,2
0,83,94,2
0,36,127,10
0,42,127,0
0,40,127,0
0,42,94,10
0,41,127,0
0,38,124,70
0,42,127,0
0,40,127,0
0,42,93,18
0,46,124,0
0,38,127,0
0,38,77,0
0,50,75,0
0,60,83,0
0,62,84,0
0,64,87,0
0,65,102,0
0,69,77,0
0,77,92,8
0,72,111,2
0,74,83,2
0,81,86,0
0,36,127,134
0,42,127,0
0,42,89,74
0,38,127,22
0,42,127,0
0,79,51,20
0,76,42,8
0,42,91,24
0,71,76,6
0,69,80,4
0,67,72,12
0,65,63,2
0,64,72,20
0,62,74,2
0,60,64,0
0,36,126,2
0,42,127,0
0,59,61,26
0,57,58,10
0,55,63,10
0,53,64,20
0,52,70,20
0,42,90,18
0,50,61,26
0,48,61,20
0,47,55,32
0,45,47,8
0,38,126,10
0,42,127,0
0,43,51,30
0,42,90,86
0,36,127,20
0,42,127,0
0,31,127,0
0,43,86,0
0,59,101,0
0,62,97,0
0,67,103,0
0,42,87,90
0,38,124,54
0,42,127,0
0,42,81,50
0,36,122,40
0,42,127,0
0,42,91,78
0,38,124,124
0,42,127,0
0,42,85,78
0,36,127,30
0,42,127,0
0,29,127,0
0,41,73,0
0,53,79,0
0,57,81,0
0,60,90,0
0,65,81,0
0,42,87,4
0,38,122,0
0,42,127,0
0,42,81,96
0,36,124,130
0,42,127,0
0,31,127,0
0,43,74,0
0,55,74,0
0,59,111,0
0,62,86,0
0,67,100,0
0,42,90,86
0,38,127,14
0,42,127,0
0,42,94,80
0,46,118,0
0,47,91,0
0,36,127,0
0,42,127,0
0,48,105,0
0,42,96,60
0,36,127,0
0,60,101,0
0,67,98,0
0,72,95,0
0,38,127,94
0,42,127,0
0,36,127,0
0,60,107,0
0,67,107,0
0,72,117,0
0,42,86,40
0,43,70,12
0,36,127,22
0,42,127,0
0,36,127,0
0,60,118,0
0,67,103,0
0,72,113,0
0,42,92,80
0,36,127,0
0,60,124,0
0,67,117,0
0,72,127,0
0,38,127,106
0,42,127,0
0,42,93,88
0,36,127,0
0,60,113,0
0,67,117,0
0,72,127,0
0,36,124,28
0,42,127,0
0,36,124,62
0,42,92,0
0,31,127,0
0,31,94,0
0,43,81,0
0,59,106,0
0,62,106,0
0,67,99,0
0,36,124,62
0,38,122,0
0,42,127,0
0,31,127,0
0,31,99,0
0,43,105,0
0,59,98,0
0,62,106,0
0,67,103,0
0,42,93,82
0,36,126,76
0,42,127,0
0,31,127,0
0,31,89,0
0,43,92,0
0,59,118,0
0,62,105,0
0,67,92,0
0,36,127,82
0,49,127,0
0,31,127,0
0,31,105,0
0,43,101,0
0,59,115,0
0,62,106,0
0,67,111,0
0,38,127,162
0,36,127,18
0,42,124,0
0,49,126,0
0,36,111,0
0,64,91,192
0,67,88,0
0,72,95,0
0,38,126,74
0,42,127,0
0,36,127,0
0,64,117,0
0,67,97,0
0,72,117,0
0,42,83,24
0,64,80,0
0,48,93,30
0,36,127,44
0,42,127,0
0,36,127,0
0,64,107,0
0,67,111,0
0,72,109,0
0,42,86,10
0,31,127,0
0,64,118,0
0,67,115,0
0,72,127,0
0,38,127,124
0,42,127,0
0,33,127,0
0,42,89,2
0,36,127,0
0,36,115,0
0,36,127,44
0,42,127,0
0,42,85,48
0,64,102,0
0,67,100,0
0,72,99,0
0,38,127,86
0,42,127,0
0,36,127,0
0,64,122,0
0,67,117,0
0,72,127,0
0,42,85,16
0,31,127,0
0,64,83,0
0,48,101,30
0,36,127,42
0,42,127,0
0,33,127,0
0,64,122,0
0,67,111,0
0,72,122,0
0,42,87,74
0,36,127,0
0,64,124,0
0,67,120,0
0,72,127,0
0,23,49,56
0,21,48,2
0,24,76,4
0,26,70,4
0,38,127,10
0,42,127,0
0,31,127,0
0,28,51,6
0,29,49,10
0,31,65,12
0,33,74,10
0,35,72,6
0,36,69,6
0,38,80,2
0,40,76,2
0,42,89,16
0,46,124,0
0,36,127,0
0,40,98,0
0,41,72,8
0,43,69,8
0,45,74,10
0,47,75,2
0,48,81,30
0,50,66,6
0,76,81,0
0,77,88,0
0,84,82,2
0,81,84,2
0,36,127,8
0,42,127,0
0,41,127,0
0,52,45,0
0,41,101,0
0,60,127,0
0,65,106,0
0,69,122,0
0,42,87,56
0,38,124,36
0,42,127,0
0,42,90,84
0,74,90,18
0,76,90,2
0,79,85,2
0,83,94,2
0,36,127,10
0,42,127,0
0,40,127,0
0,40,118,0
0,59,105,0
0,64,105,0
0,67,117,0
0,42,94,62
0,41,127,0
0,38,124,70
0,42,127,0
0,40,127,0
0,42,93,18
0,46,124,0
0,38,127,0
0,38,105,0
0,60,118,0
0,62,79,0
0,64,97,0
0,65,83,0
0,69,113,0
0,77,92,2
0,72,111,2
0,74,83,2
0,81,86,0
0,36,127,134
0,42,127,0
0,42,89,10
0,38,127,22
0,42,127,0
0,79,51,20
0,76,42,8
0,42,91,24
0,71,76,6
0,69,80,4
0,67,72,12
0,65,63,2
0,64,72,26
0,62,74,2
0,60,64,4
0,36,126,2
0,42,127,0
0,76,74,0
0,77,113,0
0,81,107,0
0,84,127,0
0,88,107,0
0,59,61,26
0,57,58,10
0,55,63,10
0,53,64,20
0,52,70,20
0,42,90,18
0,50,61,26
0,48,61,0
0,47,55,10
0,45,47,8
0,38,126,10
0,42,127,0
0,43,51,30
0,42,90,86
0,36,127,132
0,42,127,0
0,43,127,0
0,43,103,0
0,55,98,0
0,67,117,0
0,69,118,0
0,71,115,0
0,74,98,0
0,42,87,90
0,38,124,132
0,42,127,0
0,42,81,50
0,36,122,126
0,42,127,0
0,31,127,0
0,42,91,78
0,38,124,78
0,42,127,0
0,42,85,78
0,36,127,120
0,42,127,0
0,41,127,0
0,53,83,0
0,65,94,0
0,67,102,0
0,69,83,0
0,72,124,0
0,42,87,82
0,38,122,130
0,42,127,0
0,42,81,96
0,36,124,84
0,42,127,0
0,43,127,0
0,55,99,0
0,67,122,0
0,69,106,0
0,71,127,0
0,74,109,0
0,42,90,86
0,38,127,2
0,42,127,0
0,41,127,0
0,42,94,80
0,46,118,0
0,36,127,16
0,42,127,0
0,36,127,0
0,48,127,0
0,55,113,0
0,64,113,0
0,67,115,0
0,72,127,0
0,42,96,90
0,38,127,124
0,42,127,0
0,42,86,78
0,36,127,0
0,36,127,102
0,42,127,0
0,36,127,0
0,42,92,80
0,38,127,106
0,42,127,0
0,42,93,88
0,36,124,96
0,42,127,0
0,36,127,0
0,36,124,62
0,42,92,0
0,36,124,62
0,38,122,0
0,42,127,0
0,42,93,60
0,36,127,0
0,36,126,76
0,42,127,0
0,36,127,0
0,36,127,82
0,49,127,0
0,38,127,10
0,36,127,18
0,42,124,0
0,49,126,0
0,28,127,0
0,40,99,0
0,62,103,0
0,64,107,0
0,67,118,0
0,71,118,0
0,62,62,66
0,64,62,0
0,67,68,0
0,71,62,0
0,38,126,74
0,42,127,0
0,62,98,0
0,64,98,0
0,67,106,0
0,71,105,0
0,74,96,8
0,76,120,2
0,83,124,2
0,79,73,2
0,42,83,28
0,62,69,0
0,64,70,0
0,67,64,0
0,71,57,0
0,36,127,90
0,42,127,0
0,62,105,0
0,64,102,0
0,67,122,0
0,71,113,0
0,42,86,62
0,38,127,0
0,38,94,0
0,62,68,0
0,64,72,0
0,67,71,0
0,71,66,0
0,74,100,20
0,75,94,0
0,38,127,6
0,42,127,0
0,39,127,0
0,39,100,0
0,62,88,0
0,64,95,0
0,67,94,0
0,71,106,0
0,76,96,20
0,42,89,0
0,40,127,0
0,40,101,0
0,62,113,0
0,64,105,0
0,67,105,0
0,71,105,0
0,36,127,42
0,42,127,0
0,62,73,0
0,64,70,0
0,67,70,0
0,71,72,0
0,42,85,48
0,62,74,0
0,64,74,0
0,67,78,0
0,71,74,0
0,38,127,90
0,42,127,0
0,62,113,0
0,64,126,0
0,67,120,0
0,71,127,0
0,42,85,54
0,62,74,0
0,64,73,0
0,67,74,0
0,71,66,0
0,36,127,86
0,42,127,0
0,62,81,0
0,64,79,0
0,67,79,0
0,71,79,0
0,42,87,76
0,62,127,0
0,64,127,0
0,67,115,0
0,71,115,0
0,38,127,10
0,42,127,0
0,62,118,0
0,64,124,0
0,67,122,0
0,71,120,0
0,42,89,44
0,46,124,0
0,43,111,0
0,67,70,0
0,71,68,0
0,36,127,28
0,42,127,0
0,33,127,0
0,45,111,0
0,64,127,0
0,67,127,0
0,69,122,0
0,72,127,0
0,42,87,12
0,64,71,0
0,67,77,0
0,69,86,0
0,72,64,0
0,38,124,36
0,42,127,0
0,64,124,0
0,67,120,0
0,69,97,0
0,72,124,0
0,76,105,14
0,79,105,2
0,81,113,2
0,84,125,0
0,42,90,8
0,64,74,0
0,67,68,0
0,69,73,0
0,72,56,0
0,36,127,98
0,42,127,0
0,64,122,0
0,67,111,0
0,69,122,0
0,72,122,0
0,42,94,62
0,31,127,0
0,43,91,0
0,64,70,0
0,67,72,0
0,69,77,0
0,72,60,0
0,79,107,2
0,80,60,54
0,38,124,4
0,42,127,0
0,32,127,0
0,44,102,0
0,64,102,0
0,67,90,0
0,69,89,0
0,72,91,0
0,81,111,14
0,42,93,18
0,46,124,0
0,33,127,0
0,45,126,0
0,64,101,0
0,67,107,0
0,69,127,0
0,72,124,0
0,36,127,18
0,42,127,0
0,64,79,0
0,67,72,0
0,69,91,0
0,72,69,0
0,42,89,74
0,36,127,0
0,64,91,0
0,67,78,0
0,69,88,0
0,72,72,0
0,38,127,22
0,42,127,0
0,64,120,0
0,67,115,0
0,69,117,0
0,72,117,0
0,42,91,64
0,33,127,0
0,64,78,0
0,67,65,0
0,69,77,0
0,72,63,0
0,36,126,28
0,42,127,0
0,64,94,0
0,67,76,0
0,69,86,0
0,72,71,0
0,42,90,76
0,64,117,0
0,67,100,0
0,69,111,0
0,72,107,0
0,38,126,20
0,42,127,0
0,64,127,0
0,67,117,0
0,69,117,0
0,72,117,0
0,42,90,86
0,36,90,0
0,64,67,0
0,36,127,36
0,42,127,0
0,38,127,0
0,38,117,0
0,60,117,0
0,62,127,0
0,65,124,0
0,69,106,0
0,42,87,12
0,60,68,0
0,62,72,0
0,65,77,0
0,69,71,0
0,38,124,84
0,42,127,0
0,60,124,0
0,62,99,0
0,65,118,0
0,69,115,0
0,77,113,10
0,74,105,2
0,81,125,2
0,72,125,2
0,42,81,50
0,60,71,0
0,62,75,0
0,65,76,0
0,69,73,0
0,36,122,84
0,42,127,0
0,60,113,0
0,62,113,0
0,65,115,0
0,69,127,0
0,42,91,50
0,36,127,0
0,36,101,0
0,60,75,0
0,62,75,0
0,65,72,0
0,69,76,0
0,72,105,16
0,38,124,50
0,42,127,0
0,37,127,0
0,73,96,0
0,37,105,0
0,60,98,0
0,62,94,0
0,65,95,0
0,69,93,0
0,42,85,28
0,38,127,0
0,38,126,0
0,60,97,0
0,62,113,0
0,65,115,0
0,69,127,0
0,74,90,0
0,36,127,120
0,42,127,0
0,42,87,32
0,69,126,0
0,38,122,130
0,42,127,0
0,62,101,0
0,42,81,96
0,69,109,0
0,36,124,130
0,42,127,0
0,64,122,0
0,42,90,86
0,69,109,0
0,38,127,132
0,42,127,0
0,65,117,0
0,42,94,14
0,46,118,0
0,62,98,130
0,36,127,4
0,42,127,0
0,38,127,0
0,38,107,0
0,50,106,0
0,62,127,0
0,74,115,0
0,64,94,8
0,42,96,6
0,40,127,0
0,40,103,0
0,52,98,0
0,64,113,0
0,76,127,0
0,62,72,10
0,38,127,0
0,42,127,0
0,38,89,0
0,65,105,68
0,42,86,10
0,41,127,0
0,41,106,0
0,53,107,0
0,65,127,0
0,77,127,0
0,36,127,8
0,42,127,0
0,38,121,0
0,42,92,80
0,42,127,0
0,42,111,0
0,54,126,0
0,66,122,0
0,78,127,0
0,66,113,4
0,38,127,2
0,42,127,0
0,38,77,0
0,62,29,10
0,42,93,88
0,43,127,0
0,43,97,0
0,55,109,0
0,67,127,0
0,79,106,0
0,67,101,20
0,36,124,8
0,42,127,0
0,38,110,0
0,36,124,62
0,42,92,0
0,44,127,0
0,44,118,0
0,56,120,0
0,68,127,0
0,80,98,0
0,68,114,0
0,36,124,8
0,38,122,0
0,42,127,0
0,38,106,0
0,42,93,82
0,45,127,0
0,45,115,0
0,57,100,0
0,69,127,0
0,81,122,0
0,69,113,10
0,36,126,4
0,42,127,0
0,38,127,0
0,36,127,82
0,49,127,0
0,46,127,0
0,46,111,0
0,58,117,0
0,70,127,0
0,82,115,0
0,70,122,8
0,38,127,14
0,38,126,0
0,62,51,26
0,47,127,56
0,47,105,0
0,59,111,0
0,71,127,0
0,83,115,0
0,71,111,8
0,36,127,10
0,42,124,0
0,49,126,0
0,36,111,0
0,64,91,192
0,67,88,0
0,72,95,0
0,38,126,74
0,42,127,0
0,36,127,0
0,64,117,0
0,67,97,0
0,72,117,0
0,42,83,24
0,64,80,0
0,48,93,30
0,36,127,44
0,42,127,0
0,36,127,0
0,64,107,0
0,67,111,0
0,72,109,0
0,42,86,10
0,31,127,0
0,64,118,0
0,67,115,0
0,72,127,0
0,38,127,124
0,42,127,0
0,33,127,0
0,42,89,2
0,36,127,0
0,36,115,0
0,36,127,44
0,42,127,0
0,42,85,48
0,64,102,0
0,67,100,0
0,72,99,0
0,38,127,86
0,42,127,0
0,36,127,0
0,64,122,0
