track,note,velocity,time
0,40,66,3516
0,40,110,124
0,47,90,124
0,45,78,124
0,63,108,124
0,68,116,0
0,29,94,0
0,35,110,0
0,42,110,0
0,68,112,0
0,60,102,0
0,53,104,0
0,42,54,0
0,42,74,88
0,68,98,124
0,37,110,0
0,42,110,0
0,63,94,0
0,60,67,0
0,42,54,4
0,35,99,124
0,42,76,0
0,53,102,0
0,29,104,0
0,68,82,124
0,63,80,0
0,42,84,0
0,60,71,0
0,42,58,16
0,42,66,124
0,68,122,124
0,42,110,0
0,60,102,0
0,37,110,0
0,63,116,0
0,42,52,4
0,32,94,64
0,42,72,0
0,65,92,0
0,53,70,0
0,61,96,4
0,34,88,0
0,65,108,0
0,46,98,0
0,42,110,0
0,68,96,0
0,58,86,0
0,68,104,0
0,35,110,0
0,42,50,124
0,72,104,28
0,42,72,0
0,61,102,52
0,58,92,0
0,68,84,0
0,65,108,0
0,42,110,0
0,72,108,0
0,37,110,0
0,42,48,4
0,35,94,124
0,42,76,0
0,34,100,0
0,46,92,0
0,72,104,0
0,60,96,16
0,65,104,0
0,68,106,0
0,61,94,0
0,42,86,0
0,42,52,76
0,42,80,36
0,70,88,0
0,68,98,20
0,65,116,0
0,58,98,0
0,42,110,0
0,61,104,0
0,37,110,0
0,42,54,4
0,68,104,112
0,46,78,0
0,46,90,0
0,34,96,0
0,35,76,0
0,67,98,0
0,58,86,0
0,67,104,0
0,39,102,0
0,51,76,0
0,65,104,0
0,42,110,0
0,35,110,0
0,61,100,0
0,42,54,108
0,42,74,56
0,37,110,124
0,58,98,0
0,67,108,0
0,65,120,0
0,61,116,0
0,42,110,0
0,42,54,0
0,42,76,48
0,51,80,0
0,39,108,0
0,35,99,0
0,56,94,32
0,42,88,0
0,67,98,0
0,61,104,0
0,65,108,0
0,42,42,124
0,42,66,40
0,51,71,0
0,37,110,44
0,61,96,0
0,67,102,0
0,65,112,0
0,42,110,0
0,55,94,0
0,39,98,84
0,42,52,0
0,51,76,64
0,63,92,0
0,37,90,0
0,42,72,0
0,48,84,0
0,67,94,0
0,58,84,0
0,36,106,0
0,67,116,0
0,35,110,0
0,42,110,0
0,63,86,0
0,42,50,124
0,70,96,48
0,42,72,0
0,63,104,44
0,70,106,0
0,37,110,0
0,67,104,0
0,58,98,0
0,42,110,0
0,42,48,8
0,48,86,124
0,42,76,0
0,36,104,0
0,70,104,0
0,35,94,0
0,42,84,20
0,63,94,0
0,67,100,0
0,58,84,0
0,42,52,124
0,42,80,28
0,72,112,0
0,37,110,32
0,58,104,0
0,63,108,0
0,67,116,0
0,42,110,0
0,67,104,124
0,42,54,0
0,46,78,16
0,68,102,0
0,39,92,0
0,35,76,0
0,48,73,0
0,60,98,0
0,56,96,0
0,65,102,0
0,42,110,0
0,35,110,0
0,63,96,0
0,53,82,0
0,65,100,0
0,41,108,0
0,42,54,0
0,42,74,76
0,42,110,124
0,37,110,0
0,56,94,0
0,65,100,0
0,63,102,0
0,60,102,0
0,42,54,40
0,53,71,92
0,41,106,0
0,42,76,0
0,35,99,0
0,42,84,72
0,63,84,0
0,56,71,0
0,60,94,0
0,65,96,0
0,42,58,124
0,42,66,20
0,60,108,124
0,56,102,0
0,42,110,0
0,37,110,0
0,63,106,0
0,65,102,0
0,42,52,0
0,29,84,0
0,32,92,32
0,42,72,0
0,53,88,0
0,63,98,0
0,61,96,0
0,65,106,0
0,42,110,0
0,35,110,0
0,61,106,0
0,34,98,0
0,46,94,0
0,56,84,0
0,42,50,124
0,63,96,16
0,42,72,0
0,42,110,4
0,61,106,0
0,37,110,0
0,65,104,0
0,65,116,0
0,56,100,0
0,42,48,12
0,34,88,116
0,42,76,0
0,35,94,0
0,65,102,0
0,46,73,0
0,42,86,12
0,56,71,0
0,61,90,0
0,65,80,0
0,42,52,44
0,42,80,0
0,61,108,124
0,42,110,0
0,37,110,0
0,65,112,0
0,56,108,0
0,42,54,124
0,46,86,0
0,61,100,0
0,32,78,0
0,35,76,0
0,46,78,0
0,61,92,0
0,65,120,0
0,58,92,0
0,55,98,0
0,31,104,0
0,65,96,0
0,35,110,0
0,42,110,0
0,42,54,124
0,42,74,24
0,67,104,0
0,65,104,124
0,61,116,0
0,68,106,0
0,37,110,0
0,42,110,0
0,55,122,0
0,58,122,0
0,42,54,4
0,42,76,28
0,70,105,0
0,35,99,0
0,51,82,0
0,39,104,0
0,63,96,124
0,61,76,0
0,55,71,0
0,63,90,0
0,42,88,0
0,58,78,0
0,42,42,124
0,42,66,80
0,42,110,80
0,55,102,0
0,63,106,0
0,63,100,0
0,61,104,0
0,58,106,0
0,37,110,0
0,42,52,4
0,27,98,0
0,51,88,0
0,42,72,0
0,30,96,0
0,68,116,0
0,68,106,0
0,68,100,0
0,60,98,0
0,65,106,0
0,56,88,0
0,53,76,0
0,42,110,0
0,35,110,0
0,42,54,0
0,29,108,0
0,42,74,80
0,60,116,116
0,56,106,0
0,68,106,0
0,42,110,0
0,37,110,0
0,65,120,0
0,42,54,0
0,35,99,104
0,42,76,0
0,29,112,0
0,53,80,0
0,56,88,124
0,42,84,0
0,67,104,0
0,63,88,0
0,60,104,0
0,42,58,72
0,42,66,8
0,60,108,124
0,42,110,0
0,65,116,0
0,63,104,0
0,37,110,0
0,56,100,0
0,42,52,12
0,42,72,100
0,29,92,0
0,65,98,0
0,53,78,0
0,65,102,0
0,68,122,0
0,42,110,0
0,61,100,0
0,61,96,0
0,46,100,0
0,34,90,0
0,56,84,0
0,35,110,0
0,42,50,124
0,72,108,48
0,42,72,0
0,65,112,40
0,61,104,0
0,42,110,0
0,37,110,0
0,56,104,0
0,72,108,0
0,42,48,4
0,42,76,108
0,72,104,0
0,46,76,0
0,35,94,0
0,34,90,0
0,60,96,124
0,63,96,0
0,65,96,0
0,56,76,0
0,73,102,0
0,42,86,0
0,42,52,104
0,42,80,8
0,70,120,0
0,42,110,16
0,61,104,0
0,56,112,0
0,65,122,0
0,37,110,0
0,41,106,0
0,42,54,0
0,34,72,0
0,46,78,0
0,68,108,0
0,46,92,0
0,35,76,0
0,51,67,0
0,39,106,0
0,67,106,0
0,55,77,0
0,70,116,0
0,65,80,0
0,42,110,0
0,35,110,0
0,42,54,72
0,61,56,0
0,42,74,84
0,37,110,120
0,55,108,0
0,65,106,0
0,42,110,0
0,61,104,0
0,42,54,12
0,42,76,120
0,39,96,0
0,35,99,0
0,51,84,0
0,42,88,0
0,56,94,0
0,65,112,0
0,61,96,0
0,63,84,0
0,75,100,0
0,42,42,72
0,42,66,4
0,51,80,0
0,65,116,52
0,37,110,0
0,61,108,0
0,55,112,0
0,42,110,0
0,42,52,124
0,63,106,24
0,42,72,0
0,51,80,0
0,37,100,0
0,48,96,0
0,63,106,0
0,67,104,0
0,58,98,0
0,36,106,0
0,72,112,0
0,55,94,0
0,35,110,0
0,42,110,0
0,42,50,124
0,70,100,20
0,42,72,0
0,58,108,40
0,63,102,0
0,70,100,0
0,37,110,0
0,42,110,0
0,55,108,0
0,42,48,0
0,42,76,112
0,35,94,0
0,36,104,0
0,48,86,0
0,70,112,0
0,63,94,124
0,58,86,0
0,42,84,0
0,55,88,0
0,42,52,104
0,72,112,8
0,42,80,0
0,63,108,28
0,58,122,0
0,37,110,0
0,42,110,0
0,55,106,0
0,42,54,120
0,67,108,0
0,68,104,24
0,46,78,0
0,31,96,0
0,48,78,0
0,35,76,0
0,65,109,0
0,65,102,0
0,56,92,0
0,68,104,0
0,53,88,0
0,35,110,0
0,42,110,0
0,60,100,0
0,29,100,0
0,42,54,124
0,42,74,56
0,37,110,104
0,60,108,0
0,65,108,0
0,42,110,0
0,56,104,0
0,42,54,124
0,29,100,72
0,53,94,0
0,42,76,0
0,35,99,0
0,56,94,24
0,60,100,0
0,65,104,0
0,42,84,0
0,42,58,124
0,42,66,4
0,56,104,88
0,42,110,0
0,37,110,0
0,65,112,0
0,60,120,0
0,32,92,0
0,42,52,0
0,63,92,120
0,36,86,0
0,53,69,0
0,42,72,0
0,61,92,0
0,61,96,0
0,34,94,0
0,35,110,0
0,65,104,0
0,73,102,0
0,42,110,0
0,56,92,0
0,61,102,0
0,46,94,0
0,42,50,124
0,42,72,8
0,63,94,0
0,61,106,124
0,42,110,0
0,37,110,0
0,56,116,0
0,65,102,0
0,65,104,0
0,42,48,124
0,46,90,72
0,34,104,0
0,35,94,0
0,65,120,0
0,42,76,0
0,65,88,124
0,56,96,0
0,42,86,0
0,61,82,0
0,42,52,76
0,42,80,4
0,65,112,124
0,42,110,0
0,56,112,0
0,37,110,0
0,61,106,0
0,42,54,4
0,32,77,0
0,35,76,0
0,46,78,0
0,61,106,0
0,49,63,0
0,42,110,0
0,43,96,0
0,35,110,0
0,55,92,0
0,58,96,0
0,77,108,0
0,61,104,0
0,31,102,0
0,65,116,0
0,65,116,0
0,42,54,120
0,67,108,0
0,67,106,0
0,79,98,0
0,42,74,0
0,68,104,8
0,61,122,0
0,55,106,0
0,37,110,0
0,42,110,0
0,58,122,0
0,68,122,124
0,80,120,0
0,42,54,0
0,70,115,28
0,51,98,0
0,42,76,0
0,35,99,0
0,39,104,0
0,63,79,124
0,70,104,0
0,82,106,0
0,42,88,0
0,58,86,0
0,61,94,0
0,55,88,0
0,42,42,88
0,84,84,0
0,72,116,0
0,42,66,0
0,39,104,12
0,55,108,0
0,63,98,0
0,63,120,0
0,37,110,0
0,42,110,0
0,61,120,0
0,58,116,0
0,85,120,16
0,73,116,0
0,42,52,0
0,42,72,60
0,51,77,0
0,35,110,0
0,32,106,0
0,87,104,0
0,75,116,0
0,63,96,0
0,44,73,0
0,49,90,0
0,75,106,0
0,42,110,0
0,56,92,0
0,60,106,0
0,42,54,124
0,42,74,16
0,60,116,124
0,32,104,0
0,42,110,0
0,54,100,0
0,63,104,0
0,56,100,0
0,35,82,0
0,40,110,0
0,42,54,124
0,51,94,36
0,42,76,0
0,60,104,48
0,32,112,0
0,35,110,0
0,63,94,0
0,56,84,0
0,42,84,0
0,42,58,124
0,42,66,8
0,60,106,124
0,63,106,0
0,40,110,0
0,35,84,0
0,32,120,0
0,42,110,0
0,56,112,0
0,54,100,0
0,42,52,124
0,32,79,44
0,42,72,0
0,51,59,0
0,60,104,0
0,42,110,0
0,33,120,0
0,63,92,0
0,75,122,0
0,35,110,0
0,57,96,0
0,42,50,124
0,73,104,20
0,42,72,0
0,57,104,124
0,33,106,0
0,63,104,0
0,42,110,0
0,40,110,0
0,35,82,0
0,54,100,0
0,60,106,0
0,72,108,0
0,42,48,124
0,42,76,44
0,72,108,0
0,35,110,124
0,63,106,0
0,33,104,0
0,42,86,0
0,60,106,0
0,57,98,0
0,42,52,124
0,42,80,32
0,73,122,0
0,33,108,124
0,60,116,0
0,35,90,0
0,63,106,0
0,42,110,0
0,40,110,0
0,57,106,0
0,54,100,0
0,75,122,52
0,42,54,0
0,46,78,24
0,56,100,0
0,61,106,0
0,65,108,0
0,42,110,0
0,75,106,0
0,75,96,0
0,87,104,0
0,35,110,0
0,34,96,0
0,77,104,0
0,89,116,0
0,42,54,0
0,77,94,0
0,85,102,0
0,73,106,0
0,42,74,0
0,73,116,0
0,61,108,124
0,35,92,0
0,42,110,0
0,54,100,0
0,65,108,0
0,56,104,0
0,34,98,0
0,40,110,0
0,42,54,124
0,42,76,44
0,61,102,124
0,56,92,0
0,42,88,0
0,35,110,0
0,65,108,0
0,34,116,0
0,42,42,124
0,42,66,24
0,35,96,124
0,65,108,0
0,42,110,0
0,40,110,0
0,34,108,0
0,54,100,0
0,56,94,0
0,61,102,0
0,42,52,12
0,37,96,0
0,41,98,16
0,42,72,0
0,46,84,0
0,42,110,0
0,73,104,0
0,61,104,0
0,51,82,0
0,35,110,0
0,55,94,0
0,39,104,0
0,65,104,0
0,42,50,124
0,42,72,32
0,72,102,0
0,42,110,112
0,65,96,0
0,35,88,0
0,54,100,0
0,39,106,0
0,40,110,0
0,70,104,0
0,55,106,0
0,61,98,0
0,42,48,52
0,68,116,40
0,42,76,0
0,55,94,124
0,35,110,0
0,42,84,0
0,65,98,0
0,39,104,0
0,61,104,0
0,42,52,24
0,67,109,0
0,67,100,16
0,42,80,0
0,68,98,84
0,65,108,0
0,61,112,0
0,55,108,0
0,39,112,0
0,40,110,0
0,35,99,0
0,54,100,0
0,42,110,0
0,42,54,124
0,46,78,76
0,70,118,0
0,51,77,0
0,42,110,0
0,70,108,0
0,70,102,0
0,82,120,0
0,32,112,0
0,58,86,0
0,35,110,0
0,63,94,0
0,60,108,0
0,56,88,0
0,72,106,0
0,42,54,0
0,84,94,0
0,72,108,0
0,72,108,8
0,42,74,0
0,56,104,104
0,32,122,0
0,54,100,0
0,35,82,0
0,60,108,0
0,42,110,0
0,40,110,0
0,84,100,0
0,72,102,0
0,63,102,0
0,42,54,124
0,42,76,60
0,55,100,124
0,42,84,0
0,63,106,0
0,60,106,0
0,35,110,0
0,32,108,0
0,42,58,124
0,42,66,52
0,35,84,124
0,63,94,0
0,40,110,0
0,32,104,0
0,54,100,0
0,60,104,0
0,55,102,0
0,42,110,0
0,42,52,124
0,36,106,28
0,51,78,0
0,42,72,0
0,37,104,0
0,60,112,0
0,53,106,0
0,42,110,0
0,72,112,0
0,65,106,0
0,35,110,0
0,49,102,0
0,72,69,0
0,49,110,0
0,68,92,0
0,61,96,0
0,56,102,0
0,42,50,124
0,70,96,16
0,42,72,0
0,68,96,20
0,53,86,0
0,42,110,0
0,40,110,0
0,54,100,0
0,42,48,48
0,53,104,124
0,68,122,0
0,60,112,0
0,49,94,0
0,65,122,0
0,56,98,0
0,37,102,0
0,35,84,0
0,42,76,0
0,42,86,124
0,42,52,124
0,53,76,12
0,67,94,0
0,35,88,0
0,42,80,0
0,49,92,20
0,56,96,0
0,68,122,0
0,42,110,0
0,40,110,0
0,54,100,0
0,42,54,40
0,46,78,0
0,35,60,0
0,70,90,0
0,37,108,0
0,49,72,0
0,56,98,0
0,65,112,0
0,72,116,0
0,38,116,0
0,62,84,0
0,42,110,0
0,35,110,0
0,72,76,0
0,60,112,0
0,68,88,0
0,77,102,0
0,50,98,0
0,53,84,0
0,42,54,124
0,42,74,0
0,70,104,0
0,35,90,0
0,54,100,68
0,68,122,0
0,40,110,0
0,42,110,0
0,42,54,8
0,38,112,124
0,53,102,0
0,50,104,0
0,65,116,0
0,56,104,0
0,35,84,0
0,42,76,0
0,68,122,0
0,60,116,0
0,42,88,124
0,42,42,0
0,53,82,8
0,42,66,0
0,35,64,0
0,67,94,0
0,50,96,24
0,42,110,0
0,68,116,0
0,54,100,0
0,40,110,0
0,45,110,32
0,70,96,4
0,43,110,0
0,38,100,0
0,50,88,0
0,49,90,0
0,60,106,0
0,72,102,0
0,51,102,0
0,63,104,0
0,63,92,0
0,56,102,0
0,39,100,0
0,75,102,0
0,72,92,0
0,42,110,0
0,35,110,0
0,42,50,92
0,42,72,124
0,35,76,0
0,70,104,0
0,68,104,0
0,42,110,0
0,54,100,0
0,40,110,0
0,42,48,124
0,39,116,112
0,42,76,0
0,68,112,0
0,63,102,0
0,35,80,0
0,51,92,0
0,60,104,0
0,55,104,0
0,56,104,0
0,42,84,124
0,42,52,124
0,35,66,0
0,42,80,12
0,67,98,0
0,68,122,24
0,54,100,0
0,40,110,0
0,42,110,0
0,42,54,124
0,70,88,48
0,39,84,0
0,46,78,0
0,51,77,0
0,60,108,0
0,53,104,0
0,41,112,0
0,42,110,0
0,74,71,0
0,65,76,0
0,58,104,0
0,65,112,0
0,35,110,0
0,72,94,0
0,56,108,0
0,82,98,0
0,77,100,0
0,68,57,0
0,42,54,124
0,35,90,0
0,42,74,0
0,77,122,0
0,40,110,44
0,72,102,0
0,42,110,0
0,42,54,100
0,58,106,0
0,29,108,0
0,70,92,0
0,53,106,0
0,65,108,0
0,56,104,0
0,35,84,0
0,42,76,0
0,62,122,0
0,42,88,124
0,42,42,124
0,42,66,124
0,35,64,0
0,42,110,0
