track,note,velocity,time
1,36,91,3072
1,36,82,554
1,36,91,162
1,36,82,542
1,36,91,162
1,36,82,554
1,36,91,162
1,36,82,542
1,36,91,162
1,36,82,554
1,36,91,162
1,36,82,542
1,36,91,162
1,36,82,554
1,36,91,162
1,36,82,542
1,36,91,162
1,36,82,554
1,36,91,162
1,36,82,542
1,36,91,162
1,36,82,554
1,36,91,162
1,36,82,542
1,36,91,162
1,36,82,554
1,36,91,162
1,36,82,542
1,36,91,162
1,36,82,554
1,36,91,162
1,36,82,542
1,36,91,162
1,36,82,554
1,36,91,162
1,36,82,542
1,36,91,162
1,36,82,554
1,36,91,162
1,36,82,542
1,36,91,162
1,36,82,554
1,36,91,162
1,36,82,542
1,36,91,162
1,36,82,554
1,36,91,162
1,36,82,542
1,36,91,162
1,36,82,554
1,36,91,162
1,36,82,542
1,36,91,162
1,36,82,554
1,36,91,162
1,36,82,542
1,36,91,162
1,36,82,554
1,36,91,162
1,36,82,542
1,36,91,162
1,36,82,554
1,36,91,162
1,36,82,542
1,36,91,162
1,36,82,554
1,36,91,162
1,36,82,542
1,36,91,162
1,36,82,554
1,36,91,162
1,36,82,542
1,36,91,162
1,36,82,554
1,36,91,162
1,36,82,542
1,36,91,162
1,36,82,554
1,36,91,162
1,36,82,542
1,36,91,162
1,36,82,554
1,36,91,162
1,36,82,542
1,36,91,162
1,36,82,554
1,36,91,162
1,36,82,542
1,36,91,162
1,36,82,554
1,36,91,162
1,36,82,542
1,36,91,162
1,36,82,554
1,36,91,162
1,36,82,542
1,36,91,162
1,36,82,554
1,36,91,162
1,36,82,542
1,36,91,162
1,36,82,554
1,36,91,162
1,36,82,542
1,36,91,162
1,36,82,554
1,36,91,162
1,36,82,542
1,36,91,0
1,36,82,554
1,36,91,162
1,36,82,542
1,36,91,162
1,36,82,554
1,36,91,162
1,36,82,542
1,36,91,162
1,36,82,554
1,36,91,162
1,36,82,542
1,36,91,162
1,36,82,554
1,36,91,162
1,36,82,542
1,36,91,162
1,36,82,554
1,36,91,162
1,36,82,542
1,36,91,162
1,36,82,554
1,36,91,162
1,36,82,542
1,36,91,162
1,36,82,554
1,36,91,162
1,36,82,542
1,36,91,162
1,36,82,554
1,36,91,162
1,36,82,542
1,36,91,162
1,36,82,554
1,36,91,162
1,36,82,542
1,36,91,162
1,36,82,554
1,36,91,162
1,36,82,542
1,36,91,162
1,36,82,554
1,36,91,162
1,36,82,542
1,36,91,162
1,36,82,554
1,36,91,162
1,36,82,542
1,36,91,162
1,36,82,554
1,36,91,162
1,36,82,542
1,36,91,162
1,36,82,554
1,36,91,162
1,36,82,542
1,36,91,162
1,36,82,554
1,36,91,162
1,36,82,542
1,36,91,162
1,36,82,554
1,36,91,162
1,36,82,542
1,36,91,162
1,36,82,554
1,36,91,162
1,36,82,542
1,36,91,162
1,36,82,554
1,36,91,162
1,36,82,542
1,36,91,162
1,36,82,554
1,36,91,162
1,36,82,542
1,36,91,162
1,36,82,554
1,36,91,162
1,36,82,542
1,36,91,162
1,36,82,554
1,36,91,162
1,36,82,542
1,36,91,162
1,36,82,554
1,36,91,162
1,36,82,542
1,36,91,162
1,36,82,554
1,36,91,162
1,36,82,542
1,36,91,162
1,36,82,554
1,36,91,162
1,36,82,542
1,36,91,162
1,36,82,554
1,36,91,162
1,36,82,542
1,36,91,162
1,36,82,554
1,36,91,162
1,36,82,542
1,36,91,162
1,36,82,554
1,36,91,162
1,36,82,542
1,36,91,162
1,36,82,554
1,36,91,162
1,36,82,542
1,36,91,162
1,36,82,554
1,36,91,162
1,36,82,542
1,36,91,162
1,36,82,554
1,36,91,162
1,36,82,542
1,36,91,162
1,36,82,554
1,36,91,162
1,36,82,542
1,36,91,162
1,36,82,554
1,36,91,162
1,36,82,542
1,36,91,162
1,36,82,554
1,36,91,162
1,36,82,542
1,36,91,162
1,36,82,554
1,36,91,162
1,36,82,542
1,36,91,162
1,36,82,554
1,36,91,162
1,36,82,542
1,36,91,162
1,36,82,554
1,36,91,162
1,36,82,542
1,36,91,162
1,36,82,554
1,36,91,162
1,36,82,542
1,36,91,162
1,36,82,554
1,36,91,162
1,36,82,542
1,36,91,162
1,36,82,554
1,36,91,162
1,36,82,542
1,36,91,162
1,36,82,554
1,36,91,162
1,36,82,542
1,36,91,162
1,36,82,554
1,36,91,162
1,36,82,542
1,36,91,162
1,36,82,554
1,36,91,162
1,36,82,542
1,36,91,162
1,36,82,554
1,36,91,162
1,36,82,542
1,36,91,162
1,36,82,554
1,36,91,162
1,36,82,542
1,36,91,162
1,36,82,554
1,36,91,162
1,36,82,542
1,36,91,162
1,36,82,554
1,36,91,162
1,36,82,542
1,36,91,162
1,36,82,554
1,36,91,162
1,36,82,542
1,36,91,162
1,36,82,554
1,36,91,162
2,38,91,3456
2,38,91,716
2,38,91,716
2,38,91,716
2,38,91,716
2,38,91,716
2,38,91,716
2,38,91,716
2,38,91,716
2,38,91,716
2,38,91,716
2,38,91,716
2,38,91,716
2,38,91,716
2,38,91,716
2,38,91,716
2,38,91,716
2,38,91,716
2,38,91,716
2,38,91,716
2,38,91,716
2,38,91,716
2,38,91,716
2,38,91,716
2,38,91,716
2,38,91,716
2,38,91,716
2,38,91,716
2,38,91,716
2,38,91,716
2,38,91,716
2,38,91,716
2,38,91,716
2,38,91,716
2,38,91,716
2,38,91,716
2,38,91,716
2,38,91,716
2,38,91,716
2,38,91,716
2,38,91,716
2,38,91,716
2,38,91,716
2,38,91,716
2,38,91,716
2,38,91,716
2,38,91,716
2,38,91,716
2,38,91,716
2,38,91,716
2,38,91,716
2,38,91,716
2,38,91,716
2,38,91,716
2,38,91,716
2,38,91,716
2,38,91,716
2,38,91,716
2,38,91,716
2,38,91,716
2,38,91,716
2,38,91,716
2,38,91,716
2,38,91,716
2,38,91,716
2,38,91,716
2,38,91,716
2,38,91,716
2,38,91,716
2,38,91,716
2,38,91,716
2,38,91,716
2,38,91,716
2,38,91,716
2,38,91,716
2,38,91,716
2,38,91,716
2,38,91,716
2,38,91,716
2,38,91,716
2,38,91,716
2,38,91,716
2,38,91,716
2,38,91,716
2,38,91,716
2,38,91,716
2,38,91,716
2,38,91,716
2,38,91,716
2,38,91,716
2,38,91,716
2,38,91,716
2,38,91,716
2,38,91,716
2,38,91,716
2,38,91,716
2,38,91,716
2,38,91,716
2,38,91,716
2,38,91,716
2,38,91,716
2,38,91,716
2,38,91,716
2,38,91,716
2,38,91,716
2,38,91,716
2,38,91,716
2,38,91,716
2,38,91,716
2,38,91,716
2,38,91,716
2,38,91,716
2,38,91,716
2,38,91,716
2,38,91,716
2,38,91,716
2,38,91,716
2,38,91,716
2,38,91,716
2,38,91,716
2,38,91,716
2,38,91,716
2,38,91,716
2,38,91,716
2,38,91,716
2,38,91,716
2,38,91,716
2,38,91,716
2,38,91,716
2,38,91,716
2,38,91,716
2,38,91,716
2,38,91,716
2,38,91,716
2,38,91,716
2,38,91,716
2,38,91,716
2,38,91,716
2,38,91,716
2,38,91,716
2,38,91,716
2,38,91,716
2,38,91,716
2,38,91,716
2,38,91,716
2,38,91,716
2,38,91,716
2,38,91,716
2,38,91,716
3,42,100,3072
3,42,60,146
3,42,91,160
3,42,60,150
3,42,91,156
3,42,56,128
3,42,91,154
3,42,56,134
3,42,100,152
3,42,60,146
3,42,91,160
3,42,60,150
3,42,91,156
3,42,56,128
3,42,91,154
3,42,56,134
3,42,100,152
3,42,60,146
3,42,91,160
3,42,60,150
3,42,91,156
3,42,56,128
3,42,91,154
3,42,56,134
3,42,100,152
3,42,60,146
3,42,91,160
3,42,60,150
3,42,91,156
3,42,56,128
3,42,91,154
3,42,56,134
3,42,100,152
3,42,60,146
3,42,91,160
3,42,60,150
3,42,91,156
3,42,56,128
3,42,91,154
3,42,56,134
3,42,100,152
3,42,60,146
3,42,91,160
3,42,60,150
3,42,91,156
3,42,56,128
3,42,91,154
3,42,56,134
3,42,100,152
3,42,60,146
3,42,91,160
3,42,60,150
3,42,91,156
3,42,56,128
3,42,91,154
3,42,56,134
3,42,100,152
3,42,60,146
3,42,91,160
3,42,60,150
3,42,91,156
3,42,56,128
3,42,91,154
3,42,56,134
3,42,100,152
3,42,60,146
3,42,91,160
3,42,60,150
3,42,91,156
3,42,56,128
3,42,91,154
3,42,56,134
3,42,100,152
3,42,60,146
3,42,91,160
3,42,60,150
3,42,91,156
3,42,56,128
3,42,91,154
3,42,56,134
3,42,100,152
3,42,60,146
3,42,91,160
3,42,60,150
3,42,91,156
3,42,56,128
3,42,91,154
3,42,56,134
3,42,100,152
3,42,60,146
3,42,91,160
3,42,60,150
3,42,91,156
3,42,56,128
3,42,91,154
3,42,56,134
3,42,100,152
3,42,60,146
3,42,91,160
3,42,60,150
3,42,91,156
3,42,56,128
3,42,91,154
3,42,56,134
3,42,100,152
3,42,60,146
3,42,91,160
3,42,60,150
3,42,91,156
3,42,56,128
3,42,91,154
3,42,56,134
3,42,100,152
3,42,60,146
3,42,91,160
3,42,60,150
3,42,91,156
3,42,56,128
3,42,91,154
3,42,56,134
3,42,100,152
3,42,60,146
3,42,91,160
3,42,60,150
3,42,91,156
3,42,56,128
3,42,91,154
3,42,56,134
3,42,100,152
3,42,60,146
3,42,91,160
3,42,60,150
3,42,91,156
3,42,56,128
3,42,91,154
3,42,56,134
3,42,100,152
3,42,60,146
3,42,91,160
3,42,60,150
3,42,91,156
3,42,56,128
3,42,91,154
3,42,56,134
3,42,100,152
3,42,60,146
3,42,91,160
3,42,60,150
3,42,91,156
3,42,56,128
3,42,91,154
3,42,56,134
3,42,100,152
3,42,60,146
3,42,91,160
3,42,60,150
3,42,91,156
3,42,56,128
3,42,91,154
3,42,56,134
3,42,100,152
3,42,60,146
3,42,91,160
3,42,60,150
3,42,91,156
3,42,56,128
3,42,91,154
3,42,56,134
3,42,100,152
3,42,60,146
3,42,91,160
3,42,60,150
3,42,91,156
3,42,56,128
3,42,91,154
3,42,56,134
3,42,100,152
3,42,60,146
3,42,91,160
3,42,60,150
3,42,91,156
3,42,56,128
3,42,91,154
3,42,56,134
3,42,100,152
3,42,60,146
3,42,91,160
3,42,60,150
3,42,91,156
3,42,56,128
3,42,91,154
3,42,56,134
3,42,100,152
3,42,60,146
3,42,91,160
3,42,60,150
3,42,91,156
3,42,56,128
3,42,91,154
3,42,56,134
3,42,100,152
3,42,60,146
3,42,91,160
3,42,60,150
3,42,91,156
3,42,56,128
3,42,91,154
3,42,56,134
3,42,100,152
3,42,60,146
3,42,91,160
3,42,60,150
3,42,91,156
3,42,56,128
3,42,91,154
3,42,56,134
3,42,100,152
3,42,60,146
3,42,91,160
3,42,60,150
3,42,91,156
3,42,56,128
3,42,91,154
3,42,56,134
3,42,100,152
3,42,60,146
3,42,91,160
3,42,60,150
3,42,91,156
3,42,56,128
3,42,91,154
3,42,56,134
3,42,100,152
3,42,60,146
3,42,91,160
3,42,60,150
3,42,91,156
3,42,56,128
3,42,91,154
3,42,56,134
3,42,100,152
3,42,60,146
3,42,91,160
3,42,60,150
3,42,91,156
3,42,56,128
3,42,91,154
3,42,56,134
3,42,100,152
3,42,60,146
3,42,91,160
3,42,60,150
3,42,91,156
3,42,56,128
3,42,91,154
3,42,56,134
3,42,100,152
3,42,60,146
3,42,91,160
3,42,60,150
3,42,91,156
3,42,56,128
3,42,91,154
3,42,56,134
3,42,100,152
3,42,60,146
3,42,91,160
3,42,60,150
3,42,91,156
3,42,56,128
3,42,91,154
3,42,56,134
3,42,100,152
3,42,60,146
3,42,91,160
3,42,60,150
3,42,91,156
3,42,56,128
3,42,91,154
3,42,56,134
3,42,100,152
3,42,60,146
3,42,91,160
3,42,60,150
3,42,91,156
3,42,56,128
3,42,91,154
3,42,56,134
3,44,74,536
3,44,74,726
3,44,74,710
3,44,74,726
3,44,74,710
3,44,74,726
3,44,74,710
3,44,74,726
3,44,74,710
3,44,74,726
3,44,74,710
3,44,74,726
3,42,100,326
3,42,60,146
3,42,91,160
3,42,60,150
3,42,91,156
3,42,56,128
3,42,91,154
3,42,56,134
3,42,100,152
3,42,60,146
3,42,91,160
3,42,60,150
3,42,91,156
3,42,56,128
3,42,91,154
3,42,56,134
3,42,100,152
3,42,60,146
3,42,91,160
3,42,60,150
3,42,91,156
3,42,56,128
3,42,91,154
3,42,56,134
3,42,100,152
3,42,60,146
3,42,91,160
3,42,60,150
3,42,91,156
3,42,56,128
3,42,91,154
3,42,56,134
3,42,100,152
3,42,60,146
3,42,91,160
3,42,60,150
3,42,91,156
3,42,56,128
3,42,91,154
3,42,56,134
3,42,100,152
3,42,60,146
3,42,91,160
3,42,60,150
3,42,91,156
3,42,56,128
3,42,91,154
3,42,56,134
3,42,100,152
3,42,60,146
3,42,91,160
3,42,60,150
3,42,91,156
3,42,56,128
3,42,91,154
3,42,56,134
3,42,100,152
3,42,60,146
3,42,91,160
3,42,60,150
3,42,91,156
3,42,56,128
3,42,91,154
3,42,56,134
3,42,100,152
3,42,60,146
3,42,91,160
3,42,60,150
3,42,91,156
3,42,56,128
3,42,91,154
3,42,56,134
3,42,100,152
3,42,60,146
3,42,91,160
3,42,60,150
3,42,91,156
3,42,56,128
3,42,91,154
3,42,56,134
3,42,100,152
3,42,60,146
3,42,91,160
3,42,60,150
3,42,91,156
3,42,56,128
3,42,91,154
3,42,56,134
3,42,100,152
3,42,60,146
3,42,91,160
3,42,60,150
3,42,91,156
3,42,56,128
3,42,91,154
3,42,56,134
3,42,100,152
3,42,60,146
3,42,91,160
3,42,60,150
3,42,91,156
3,42,56,128
3,42,91,154
3,42,56,134
3,42,100,152
3,42,60,146
3,42,91,160
3,42,60,150
3,42,91,156
3,42,56,128
3,42,91,154
3,42,56,134
3,42,100,152
3,42,60,146
3,42,91,160
3,42,60,150
3,42,91,156
3,42,56,128
3,42,91,154
3,42,56,134
3,42,100,152
3,42,60,146
3,42,91,160
3,42,60,150
3,42,91,156
3,42,56,128
3,42,91,154
3,42,56,134
3,42,100,152
3,42,60,146
3,42,91,160
3,42,60,150
3,42,91,156
3,42,56,128
3,42,91,154
3,42,56,134
3,42,100,152
3,42,60,146
3,42,91,160
3,42,60,150
3,42,91,156
3,42,56,128
3,42,91,154
3,42,56,134
3,42,100,152
3,42,60,146
3,42,91,160
3,42,60,150
3,42,91,156
3,42,56,128
3,42,91,154
3,42,56,134
3,42,100,152
3,42,60,146
3,42,91,160
3,42,60,150
3,42,91,156
3,42,56,128
3,42,91,154
3,42,56,134
3,42,100,152
3,42,60,146
3,42,91,160
3,42,60,150
3,42,91,156
3,42,56,128
3,42,91,154
3,42,56,134
3,42,100,152
3,42,60,146
3,42,91,160
3,42,60,150
3,42,91,156
3,42,56,128
3,42,91,154
3,42,56,134
3,42,100,152
3,42,60,146
3,42,91,160
3,42,60,150
3,42,91,156
3,42,56,128
3,42,91,154
3,42,56,134
3,42,100,152
3,42,60,146
3,42,91,160
3,42,60,150
3,42,91,156
3,42,56,128
3,42,91,154
3,42,56,134
3,42,100,152
3,42,60,146
3,42,91,160
3,42,60,150
3,42,91,156
3,42,56,128
3,42,91,154
3,42,56,134
3,42,100,152
3,42,60,146
3,42,91,160
3,42,60,150
3,42,91,156
3,42,56,128
3,42,91,154
3,42,56,134
3,42,100,152
3,42,60,146
3,42,91,160
3,42,60,150
3,42,91,156
3,42,56,128
3,42,91,154
3,42,56,134
3,42,100,152
3,42,60,146
3,42,91,160
3,42,60,150
3,42,91,156
3,42,56,128
3,42,91,154
3,42,56,134
3,42,100,152
3,42,60,146
3,42,91,160
3,42,60,150
3,42,91,156
3,42,56,128
3,42,91,154
3,42,56,134
3,42,100,152
3,42,60,146
3,42,91,160
3,42,60,150
3,42,91,156
3,42,56,128
3,42,91,154
3,42,56,134
3,42,100,152
3,42,60,146
3,42,91,160
3,42,60,150
3,42,91,156
3,42,56,128
3,42,91,154
3,42,56,134
3,42,100,152
3,42,60,146
3,42,91,160
3,42,60,150
