track,note,velocity,time
0,48,85,1024
0,48,76,16
0,45,87,56
0,41,78,60
0,53,84,28
0,56,93,28
0,60,108,4
0,63,99,32
0,56,95,4
0,65,95,0
0,60,97,0
0,63,86,0
0,54,81,0
0,42,111,0
0,36,106,0
0,41,112,0
0,49,95,0
0,54,35,112
0,69,91,0
0,65,97,64
0,56,97,0
0,60,86,0
0,63,76,0
0,54,88,0
0,38,109,0
0,42,104,0
0,54,31,124
0,36,89,0
0,41,100,0
0,69,49,0
0,67,95,8
0,65,101,4
0,56,97,0
0,60,101,0
0,63,71,0
0,54,64,0
0,36,104,0
0,42,114,0
0,36,87,0
0,69,55,0
0,54,39,104
0,96,127,0
0,69,81,0
0,63,95,20
0,63,69,40
0,56,101,0
0,65,106,0
0,60,106,0
0,54,95,0
0,38,106,0
0,42,111,0
0,94,127,0
0,29,94,0
0,54,43,40
0,36,94,0
0,92,121,0
0,69,56,0
0,53,67,12
0,56,88,16
0,58,103,32
0,56,101,0
0,61,82,0
0,65,110,0
0,54,83,0
0,36,111,0
0,42,109,0
0,34,96,0
0,58,97,8
0,61,74,4
0,54,48,48
0,89,124,0
0,69,76,0
0,58,95,8
0,65,108,0
0,56,93,0
0,61,71,0
0,54,95,0
0,38,109,0
0,42,111,0
0,85,115,0
0,54,58,88
0,36,80,0
0,34,89,0
0,82,121,0
0,69,56,0
0,72,101,4
0,56,95,8
0,65,103,0
0,58,90,0
0,61,69,0
0,54,83,0
0,42,111,0
0,36,104,0
0,29,81,0
0,69,52,0
0,54,52,24
0,84,118,0
0,68,88,0
0,69,70,0
0,65,99,4
0,56,93,0
0,58,93,0
0,61,69,0
0,54,97,0
0,38,104,0
0,42,109,0
0,34,98,0
0,85,118,0
0,29,67,0
0,54,49,16
0,34,81,0
0,87,99,0
0,69,56,0
0,55,103,8
0,58,90,24
0,63,82,32
0,55,90,0
0,58,80,0
0,61,68,0
0,54,92,0
0,36,104,0
0,42,114,0
0,39,94,0
0,63,103,16
0,54,49,136
0,69,72,0
0,63,78,52
0,58,80,0
0,61,66,0
0,55,78,0
0,54,92,0
0,38,106,0
0,42,111,0
0,72,97,108
0,54,44,8
0,36,51,0
0,39,85,0
0,69,54,0
0,58,88,60
0,55,88,0
0,61,78,0
0,63,76,0
0,54,79,0
0,42,111,0
0,36,106,0
0,34,77,0
0,69,59,0
0,54,36,92
0,69,83,0
0,65,101,8
0,63,74,32
0,61,82,0
0,55,88,0
0,58,90,0
0,54,103,0
0,42,109,0
0,38,111,0
0,39,89,0
0,34,89,0
0,54,34,20
0,35,87,0
0,84,124,0
0,69,55,0
0,55,78,32
0,58,86,4
0,60,97,16
0,55,90,4
0,58,90,0
0,60,90,0
0,63,70,0
0,54,83,0
0,36,111,0
0,42,104,0
0,36,105,0
0,87,118,0
0,63,97,4
0,54,44,36
0,89,113,0
0,69,68,0
0,55,84,12
0,63,74,0
0,58,82,0
0,60,74,0
0,54,103,0
0,38,93,0
0,42,111,0
0,91,110,0
0,67,95,76
0,54,44,16
0,36,68,0
0,36,96,0
0,91,108,0
0,69,50,0
0,55,84,12
0,63,78,0
0,58,80,0
0,60,78,0
0,54,90,0
0,42,111,0
0,36,111,0
0,43,70,0
0,69,52,0
0,54,45,120
0,69,68,0
0,63,68,4
0,55,95,4
0,58,90,0
0,63,82,0
0,60,84,0
0,54,103,0
0,38,95,0
0,42,114,0
0,36,94,0
0,43,94,0
0,54,48,48
0,36,87,0
0,69,50,0
0,53,95,28
0,56,84,24
0,63,80,12
0,60,99,0
0,56,88,0
0,65,95,0
0,54,92,0
0,36,106,0
0,42,109,0
0,41,96,0
0,68,76,0
0,55,95,0
0,60,106,8
0,54,44,104
0,69,58,0
0,56,90,60
0,65,95,0
0,60,88,0
0,63,80,0
0,54,97,0
0,42,109,0
0,38,97,0
0,54,56,4
0,36,82,0
0,41,96,0
0,69,51,0
0,72,97,0
0,56,93,20
0,60,97,0
0,65,93,0
0,63,72,0
0,54,95,0
0,36,111,0
0,42,109,0
0,36,83,0
0,69,70,0
0,54,51,8
0,63,72,0
0,69,72,0
0,56,93,28
0,60,95,0
0,65,84,0
0,63,71,0
0,54,106,0
0,42,109,0
0,38,109,0
0,41,102,0
0,36,92,0
0,54,43,80
0,29,94,0
0,65,113,0
0,69,57,0
0,53,95,32
0,56,74,8
0,58,99,4
0,56,101,4
0,58,95,0
0,65,113,0
0,61,68,0
0,54,100,0
0,36,117,0
0,42,106,0
0,34,94,0
0,68,97,0
0,61,86,24
0,54,60,28
0,72,97,0
0,69,68,0
0,65,115,24
0,56,95,0
0,58,95,0
0,61,84,0
0,54,103,0
0,38,106,0
0,42,109,0
0,72,104,0
0,54,45,56
0,36,64,0
0,34,87,0
0,72,104,0
0,69,55,0
0,72,108,16
0,65,95,56
0,56,90,0
0,58,88,0
0,61,72,0
0,54,90,0
0,36,106,0
0,42,111,0
0,29,75,0
0,69,58,0
0,54,44,16
0,70,95,0
0,69,70,0
0,68,93,4
0,65,99,52
0,56,88,0
0,61,72,0
0,58,80,0
0,54,100,0
0,38,106,0
0,42,109,0
0,34,98,0
0,29,71,24
0,54,48,0
0,34,92,0
0,68,91,0
0,69,48,0
0,55,103,28
0,58,101,0
0,63,90,4
0,58,95,0
0,61,97,0
0,55,101,0
0,54,97,0
0,36,109,0
0,42,106,0
0,39,100,0
0,67,97,0
0,63,97,12
0,54,60,136
0,69,64,0
0,63,80,52
0,55,95,0
0,58,88,0
0,61,70,0
0,54,103,0
0,38,109,0
0,42,104,0
0,54,52,4
0,36,72,0
0,39,83,0
0,69,54,0
0,70,101,0
0,55,95,52
0,63,82,0
0,58,90,0
0,61,69,0
0,54,97,0
0,36,109,0
0,42,114,0
0,34,83,0
0,69,66,0
0,54,37,4
0,69,72,0
0,67,88,0
0,58,95,0
0,55,93,0
0,63,88,0
0,61,74,0
0,54,100,0
0,42,111,0
0,38,106,0
0,39,92,0
0,54,58,4
0,34,79,0
0,63,113,0
0,69,66,0
0,55,101,8
0,58,80,16
0,55,95,0
0,58,95,0
0,63,84,0
0,60,93,0
0,54,92,0
0,36,109,0
0,42,109,0
0,36,94,0
0,67,97,0
0,60,99,0
0,63,103,20
0,54,52,32
0,70,93,0
0,69,56,0
0,58,90,28
0,55,93,0
0,63,82,0
0,60,82,0
0,54,100,0
0,38,109,0
0,42,106,0
0,70,93,0
0,54,50,76
0,36,76,0
0,36,96,0
0,70,93,0
0,69,53,0
0,55,93,68
0,58,88,0
0,63,84,0
0,60,88,0
0,54,97,0
0,42,104,0
0,36,104,0
0,31,85,0
0,69,64,0
0,54,49,28
0,72,97,0
0,69,81,0
0,58,90,56
0,63,82,0
0,55,93,0
0,60,76,0
0,54,100,0
0,38,106,0
0,42,111,0
0,36,94,0
0,31,71,4
0,67,93,0
0,54,66,12
0,36,98,0
0,68,80,0
0,69,55,0
0,53,90,12
0,56,86,4
0,56,93,8
0,60,95,0
0,65,97,0
0,63,80,0
0,54,97,0
0,36,106,0
0,42,106,0
0,41,102,0
0,65,72,0
0,60,113,16
0,54,47,76
0,69,64,0
0,65,93,68
0,56,86,0
0,60,88,0
0,63,82,0
0,54,100,0
0,38,95,0
0,42,114,0
0,54,49,4
0,36,72,0
0,41,85,0
0,69,56,0
0,63,76,0
0,65,101,4
0,56,88,0
0,60,97,0
0,54,95,0
0,42,111,0
0,36,109,0
0,39,94,0
0,69,54,0
0,54,56,4
0,69,70,0
0,65,103,60
0,56,95,0
0,60,108,0
0,54,103,0
0,38,111,0
0,42,114,0
0,54,39,72
0,39,85,0
0,63,93,0
0,69,72,0
0,53,95,40
0,56,97,16
0,58,99,4
0,58,93,4
0,56,106,0
0,65,110,0
0,61,74,0
0,54,97,0
0,42,111,0
0,36,111,0
0,37,96,0
0,61,93,0
0,61,84,28
0,54,58,24
0,63,82,0
0,69,70,0
0,56,93,60
0,58,82,0
0,65,97,0
0,61,67,0
0,54,103,0
0,38,111,0
0,42,109,0
0,65,97,0
0,54,49,80
0,36,70,0
0,37,87,0
0,65,97,0
0,69,62,0
0,65,99,76
0,61,64,0
0,56,95,0
0,58,88,0
0,54,97,0
0,36,109,0
0,42,111,0
0,34,89,0
0,69,52,0
0,54,62,88
0,69,72,0
0,61,74,0
0,65,90,0
0,58,93,0
0,56,88,0
0,54,106,0
0,38,111,0
0,42,104,0
0,54,42,84
0,34,87,0
0,61,108,0
0,69,68,0
0,55,95,16
0,58,95,8
0,61,95,32
0,61,82,0
0,65,106,0
0,55,99,0
0,58,93,0
0,54,95,0
0,36,114,0
0,42,109,0
0,31,105,0
0,65,108,0
0,65,113,12
0,54,45,20
0,67,95,0
0,69,72,0
0,61,78,76
0,65,99,0
0,55,99,0
0,58,90,0
0,54,106,0
0,38,111,0
0,42,109,0
0,68,93,0
0,54,46,0
0,36,72,0
0,29,94,0
0,70,95,0
0,69,70,0
0,55,86,20
0,58,99,16
0,58,93,32
0,55,97,0
0,61,93,0
0,63,90,0
0,54,90,0
0,42,111,0
0,36,109,0
0,27,96,0
0,63,99,0
0,54,66,24
0,69,70,0
0,48,89,0
0,55,93,16
0,58,93,0
0,63,86,0
0,61,67,0
0,54,97,0
0,38,109,0
0,42,111,0
0,39,102,0
0,63,113,0
0,34,92,4
0,45,89,0
0,54,43,24
0,46,89,0
0,27,94,0
0,69,66,0
0,41,64,0
0,60,106,0
0,56,97,0
0,65,86,0
0,63,88,0
0,54,92,0
0,36,106,0
0,42,114,0
0,29,107,0
0,68,82,0
0,49,87,0
0,53,108,44
0,56,97,0
0,54,45,80
0,69,70,0
0,60,97,20
0,56,95,4
0,65,101,0
0,60,88,0
0,63,76,0
0,54,100,0
0,38,111,0
0,42,109,0
0,63,101,20
0,54,54,80
0,36,84,0
0,36,100,0
0,69,53,0
0,72,95,4
0,56,93,8
0,60,95,0
0,65,95,0
0,63,78,0
0,54,81,0
0,42,111,0
0,36,102,0
0,41,102,0
0,69,62,0
0,63,99,84
0,54,44,12
0,69,83,0
0,65,95,52
0,56,90,0
0,60,95,0
0,63,74,0
0,54,103,0
0,38,104,0
0,42,114,0
0,41,105,0
0,36,94,4
0,54,40,4
0,29,98,0
0,65,111,0
0,69,70,0
0,53,97,16
0,56,93,20
0,58,99,4
0,56,101,0
0,58,97,0
0,61,84,0
0,65,108,0
0,54,90,0
0,36,109,0
0,42,111,0
0,34,98,0
0,68,97,0
0,69,72,0
0,61,95,12
0,54,60,40
0,72,93,0
0,69,64,0
0,56,97,20
0,65,110,0
0,61,90,0
0,58,95,0
0,54,95,0
0,42,109,0
0,38,111,0
0,72,95,0
0,72,110,108
0,54,66,4
0,36,89,0
0,34,96,0
0,72,99,0
0,69,72,0
0,61,84,12
0,65,97,0
0,58,93,0
0,56,90,0
0,54,92,0
0,42,111,0
0,36,106,0
0,29,83,0
0,54,50,0
0,70,101,0
0,68,80,0
0,69,66,0
0,65,106,40
0,58,90,0
0,56,97,0
0,61,76,0
0,54,103,0
0,42,109,0
0,38,114,0
0,34,112,0
0,29,83,0
0,54,48,4
0,46,95,0
0,34,105,0
0,68,84,0
0,69,57,0
0,55,82,24
0,58,90,36
0,58,93,4
0,63,90,0
0,61,90,0
0,55,101,0
0,54,95,0
0,36,106,0
0,42,117,0
0,39,98,0
0,67,78,0
0,63,84,32
0,54,50,116
0,69,68,0
0,55,93,48
0,61,84,0
0,58,88,0
0,63,80,0
0,54,97,0
0,38,109,0
0,42,109,0
0,54,49,32
0,39,92,0
0,72,108,0
0,69,59,0
0,61,80,68
0,55,90,0
0,63,76,0
0,58,76,0
0,54,77,0
0,36,111,0
0,42,109,0
0,34,92,0
0,69,70,0
0,54,50,84
0,69,66,0
0,65,95,12
0,63,93,48
0,58,95,0
0,55,95,0
0,54,100,0
0,38,109,0
0,42,111,0
0,39,92,0
0,27,94,16
0,54,49,72
0,36,102,0
0,34,94,0
0,63,111,0
0,69,70,0
0,55,78,12
0,58,88,8
0,60,97,20
0,55,97,4
0,58,90,0
0,60,95,0
0,63,82,0
0,54,90,0
0,36,109,0
0,42,111,0
0,36,107,0
0,67,97,0
0,63,97,16
0,54,50,8
0,70,93,0
0,69,64,0
0,55,95,32
0,58,93,0
0,63,88,0
0,60,88,0
0,54,97,0
0,38,111,0
0,42,111,0
0,70,97,0
0,54,46,48
0,36,84,0
0,36,96,0
0,70,97,0
0,69,59,0
0,55,95,72
0,58,90,0
0,60,95,0
0,63,86,0
0,54,92,0
0,42,109,0
0,36,109,0
0,31,98,0
0,69,58,0
0,54,42,0
0,72,93,0
0,69,76,0
0,55,99,0
0,58,99,0
0,63,93,0
0,60,90,0
0,54,103,0
0,38,111,0
0,42,109,0
0,36,102,0
0,31,79,4
0,67,78,0
0,54,50,32
0,36,92,0
0,68,72,0
0,69,58,0
0,53,97,20
0,56,72,4
0,56,90,16
0,60,99,0
0,65,97,0
0,54,92,0
0,36,102,0
0,42,111,0
0,41,89,0
0,65,78,0
0,60,95,16
0,54,44,136
0,69,72,0
0,56,82,28
0,60,88,0
0,65,99,0
0,54,100,0
0,42,109,0
0,38,104,0
0,65,88,4
0,60,95,68
0,54,45,8
0,36,76,0
0,41,100,0
0,69,54,0
0,65,99,4
0,56,82,0
0,60,97,0
0,54,77,0
0,36,97,0
0,42,111,0
0,39,98,0
0,63,78,0
0,69,58,0
0,54,56,100
0,69,70,0
0,56,93,60
0,60,106,0
0,65,99,0
0,54,95,0
0,38,106,0
0,42,111,0
0,54,50,80
0,39,87,0
0,63,99,0
0,69,70,0
0,53,90,0
0,56,93,16
0,58,99,20
0,56,95,12
0,58,95,0
0,65,106,0
0,61,68,0
0,54,83,0
0,36,111,0
0,42,114,0
0,37,96,0
0,61,108,0
0,61,80,20
0,54,51,12
0,63,74,0
0,69,64,0
0,65,101,56
0,56,95,0
0,58,95,0
0,61,67,0
0,54,92,0
0,38,106,0
0,42,109,0
0,65,101,0
0,54,43,36
0,36,76,0
0,37,83,0
0,65,95,0
0,69,56,0
0,65,97,72
0,58,84,0
0,56,80,0
0,61,69,0
0,54,81,0
0,42,111,0
0,36,106,0
0,34,89,0
0,69,46,0
0,54,47,4
0,69,62,0
0,65,97,8
0,56,93,0
0,58,90,0
0,61,71,0
0,54,95,0
0,38,114,0
0,42,104,0
0,54,48,100
0,34,79,0
0,61,111,0
0,69,56,0
0,55,68,4
0,58,82,24
0,61,90,16
0,65,110,8
0,58,93,0
0,55,99,0
0,61,82,0
0,54,90,0
0,42,111,0
0,36,111,0
0,31,98,0
0,65,111,0
0,69,44,0
0,65,115,20
0,54,62,16
0,67,97,0
0,69,59,0
0,61,74,80
0,65,99,0
0,58,90,0
0,55,97,0
0,54,95,0
0,38,106,0
0,42,111,0
0,68,99,0
0,54,51,8
0,36,68,0
0,29,89,0
0,70,104,0
0,69,68,0
0,61,88,60
0,58,95,0
0,63,88,0
0,55,95,0
0,54,81,0
0,36,106,0
0,42,111,0
0,27,87,0
0,55,93,4
0,63,82,4
0,61,90,4
0,58,97,0
0,54,58,8
0,69,59,0
0,61,86,64
0,55,95,0
0,58,93,0
0,63,82,0
0,54,100,0
0,38,109,0
0,42,111,0
0,39,96,0
0,63,113,0
0,34,94,0
0,54,48,108
0,46,89,0
0,27,94,0
0,69,56,0
0,56,97,8
0,60,76,0
0,63,80,16
0,60,110,4
0,56,99,0
0,63,80,0
0,54,95,0
0,42,111,0
0,36,109,0
0,32,107,0
0,75,95,0
0,68,93,8
0,54,58,64
0,69,64,0
0,63,86,68
0,60,110,0
0,56,95,0
0,54,97,0
0,38,111,0
0,42,109,0
0,75,122,4
0,54,54,140
0,36,74,0
0,39,92,0
0,69,55,0
0,56,95,4
0,56,106,4
0,63,95,0
0,61,97,0
0,54,92,0
0,36,97,0
0,42,114,0
0,44,96,0
0,69,64,0
0,61,106,0
0,68,106,0
0,87,119,4
0,56,93,8
0,54,53,8
0,69,68,0
0,85,100,0
0,60,110,8
0,56,97,0
0,63,90,0
