track,note,velocity,time
1,42,90,1528
1,61,83,0
1,58,87,0
1,54,71,8
1,61,69,192
1,58,74,0
1,54,67,136
1,42,67,0
1,54,77,164
1,63,83,0
1,58,89,0
1,42,86,4
1,54,68,108
1,61,91,200
1,54,49,184
1,61,75,40
1,56,74,0
1,46,83,4
1,58,78,0
1,53,72,192
1,56,59,28
1,58,72,0
1,61,66,8
1,46,99,144
1,61,72,12
1,58,68,0
1,56,70,0
1,46,95,160
1,63,87,0
1,58,84,0
1,53,82,4
1,56,81,0
1,53,66,112
1,61,77,196
1,53,71,164
1,63,72,32
1,59,79,4
1,56,74,0
1,44,89,8
1,54,61,152
1,59,65,0
1,63,65,4
1,44,78,140
1,54,64,8
1,56,67,0
1,63,70,0
1,59,70,8
1,59,79,124
1,56,77,0
1,53,77,8
1,62,82,0
1,37,79,4
1,53,69,112
1,61,75,32
1,59,67,0
1,56,69,0
1,53,64,192
1,42,75,16
1,58,77,0
1,61,77,0
1,54,58,184
1,61,74,16
1,54,68,136
1,61,67,0
1,42,76,0
1,61,74,136
1,58,77,0
1,54,64,0
1,42,84,0
1,66,83,376
1,58,74,12
1,42,83,4
1,65,73,0
1,61,71,0
1,54,68,156
1,65,76,60
1,58,78,0
1,54,64,192
1,63,78,72
1,58,83,0
1,42,79,8
1,54,60,172
1,58,83,48
1,63,76,0
1,49,70,12
1,54,75,188
1,58,74,4
1,56,81,4
1,46,78,0
1,61,76,0
1,53,65,188
1,58,76,60
1,56,74,4
1,61,72,0
1,53,60,200
1,58,68,60
1,34,70,4
1,61,69,0
1,56,74,0
1,53,55,196
1,46,80,28
1,61,70,4
1,56,70,0
1,58,71,0
1,53,67,140
1,49,78,76
1,61,80,0
1,64,83,4
1,59,83,4
1,56,64,12
1,64,77,72
1,37,65,0
1,59,81,0
1,61,74,0
1,56,64,188
1,61,65,56
1,59,77,4
1,64,73,4
1,56,59,48
1,59,84,88
1,64,82,0
1,61,76,0
1,56,64,44
1,61,72,40
1,46,82,4
1,64,77,0
1,56,72,92
1,61,76,60
1,64,81,4
1,64,71,32
1,56,61,4
1,63,89,4
1,39,86,4
1,55,86,4
1,61,78,4
1,46,68,76
1,55,56,24
1,63,85,16
1,61,83,0
1,51,98,4
1,55,62,180
1,44,82,4
1,63,74,0
1,59,79,4
1,54,68,8
1,59,74,68
1,63,69,4
1,44,77,48
1,59,64,4
1,54,71,0
1,63,69,4
1,59,69,68
1,44,83,0
1,63,76,4
1,54,70,8
1,54,65,40
1,63,76,88
1,59,84,0
1,54,67,176
1,47,77,8
1,59,86,0
1,62,85,0
1,56,83,0
1,54,71,12
1,62,79,84
1,56,75,4
1,59,80,4
1,54,66,60
1,56,30,40
1,59,80,36
1,49,78,0
1,56,78,0
1,62,72,0
1,62,67,20
1,54,43,32
1,56,76,80
1,62,70,0
1,37,69,0
1,59,77,8
1,54,54,4
1,61,76,8
1,42,78,0
1,58,83,0
1,54,66,8
1,54,55,28
1,49,68,80
1,58,76,4
1,61,74,0
1,54,63,4
1,42,86,92
1,62,89,0
1,58,85,0
1,54,78,0
1,62,81,68
1,58,80,0
1,49,66,4
1,54,59,192
1,58,64,20
1,54,83,68
1,63,76,0
1,58,84,0
1,42,85,4
1,54,48,56
1,49,77,56
1,63,78,8
1,58,83,0
1,54,64,192
1,60,86,24
1,63,82,0
1,57,86,4
1,41,90,4
1,53,68,48
1,65,86,56
1,60,84,0
1,57,93,0
1,48,83,0
1,53,68,48
1,46,89,0
1,58,74,0
1,65,69,4
1,61,70,0
1,53,66,16
1,34,70,160
1,56,74,0
1,61,68,0
1,53,64,192
1,56,67,20
1,58,66,0
1,46,77,0
1,61,67,4
1,53,71,188
1,56,73,76
1,58,74,0
1,61,69,8
1,53,56,4
1,58,76,20
1,52,73,0
1,61,74,4
1,56,74,0
1,46,89,4
1,52,65,68
1,61,83,68
1,56,84,0
1,58,86,0
1,52,69,200
1,58,74,12
1,61,72,4
1,39,78,4
1,55,77,0
1,51,51,44
1,58,78,72
1,61,76,4
1,55,81,4
1,51,72,12
1,63,76,44
1,44,68,4
1,59,86,0
1,54,69,16
1,63,68,16
1,59,79,72
1,63,70,0
1,54,57,28
1,63,69,52
1,59,73,0
1,54,70,20
1,63,83,100
1,59,92,0
1,54,65,36
1,59,83,16
1,56,75,4
1,62,77,4
1,47,77,4
1,54,64,40
1,62,81,76
1,56,76,0
1,59,82,4
1,54,72,40
1,49,72,20
1,56,78,4
1,62,73,4
1,59,79,0
1,54,52,0
1,56,69,64
1,62,68,4
1,59,77,0
1,54,66,0
1,58,76,12
1,61,71,4
1,42,83,0
1,54,63,12
1,61,74,80
1,58,78,0
1,49,64,4
1,54,53,180
1,54,70,8
1,58,82,0
1,63,77,0
1,42,78,4
1,54,67,24
1,58,80,60
1,63,74,0
1,49,77,8
1,54,71,184
1,58,76,4
1,46,77,0
1,56,78,4
1,61,74,0
1,53,68,160
1,58,95,76
1,61,87,0
1,56,89,0
1,53,65,196
1,58,74,36
1,61,72,0
1,39,83,0
1,55,76,0
1,58,83,60
1,55,86,4
1,61,80,0
1,51,68,188
1,54,82,8
1,59,91,0
1,63,75,0
1,44,69,4
1,63,67,68
1,59,80,0
1,54,71,0
1,59,77,12
1,49,74,0
1,62,81,4
1,56,83,0
1,53,63,28
1,62,70,60
1,37,72,0
1,56,69,4
1,59,77,0
1,53,67,76
1,58,80,4
1,42,76,0
1,61,68,0
1,54,59,4
1,61,76,80
1,58,74,0
1,49,72,8
1,54,68,184
1,61,76,56
1,58,81,0
1,42,79,8
1,54,89,184
1,58,101,0
1,49,75,8
1,61,91,8
1,61,77,20
1,65,81,4
1,42,84,0
1,58,78,0
1,54,70,16
1,58,84,60
1,61,83,0
1,65,86,4
1,54,64,188
1,58,83,64
1,63,79,0
1,42,85,8
1,54,53,180
1,63,76,80
1,58,83,0
1,54,65,184
1,58,70,160
1,61,70,0
1,56,77,0
1,46,83,4
1,53,68,16
1,61,73,68
1,56,76,0
1,58,74,0
1,53,70,188
1,61,75,44
1,56,77,0
1,46,78,4
1,53,60,216
1,56,78,72
1,61,76,4
1,58,83,0
1,49,84,8
1,58,70,8
1,61,85,0
1,64,86,4
1,59,78,0
1,56,71,24
1,61,70,60
1,64,81,4
1,59,83,0
1,56,54,24
1,64,55,0
1,64,79,60
1,59,83,0
1,61,71,0
1,37,67,4
1,64,59,40
1,56,53,0
1,59,83,16
1,64,78,0
1,61,78,0
1,49,73,4
1,56,64,0
1,61,74,16
1,46,90,0
1,56,83,0
1,58,74,0
1,52,35,92
1,58,78,76
1,61,78,4
1,56,85,0
1,52,64,200
1,58,76,24
1,61,70,4
1,55,75,0
1,39,81,0
1,51,57,56
1,63,70,68
1,58,83,4
1,55,91,4
1,51,68,188
1,59,84,4
1,44,72,0
1,54,70,0
1,51,72,36
1,63,72,52
1,59,81,4
1,54,71,0
1,54,43,24
1,51,65,4
1,63,72,152
1,59,83,0
1,54,68,188
1,63,83,100
1,59,92,0
1,54,61,8
1,62,83,20
1,56,84,0
1,59,86,0
1,47,75,8
1,54,65,48
1,56,68,72
1,59,77,0
1,62,69,4
1,54,57,40
1,56,78,48
1,49,90,4
1,59,82,0
1,62,79,0
1,54,39,48
1,59,77,84
1,62,69,0
1,56,74,0
1,54,52,36
1,61,72,48
1,58,78,4
1,42,81,0
1,54,53,92
1,61,83,68
1,58,87,0
1,54,64,196
1,58,87,16
1,62,86,0
1,42,83,4
1,54,70,52
1,58,93,172
1,54,64,36
1,62,88,8
1,63,82,12
1,58,86,4
1,54,90,4
1,42,91,4
1,54,57,32
1,63,83,48
1,58,91,0
1,54,76,8
1,57,94,40
1,63,84,0
1,53,84,4
1,41,86,4
1,53,77,112
1,65,94,28
1,63,74,192
1,61,74,28
1,46,95,0
1,58,83,0
1,53,70,44
1,58,74,48
1,61,68,0
1,65,74,4
1,53,59,20
1,65,70,20
1,61,68,0
1,56,71,0
1,34,73,0
1,53,59,196
1,61,70,20
1,56,74,0
1,46,74,4
1,65,74,0
1,53,61,192
1,61,77,52
1,46,86,0
1,56,86,4
1,56,82,140
1,61,76,0
1,64,77,4
1,52,65,192
1,61,76,44
1,55,85,4
1,39,83,4
1,51,58,44
1,63,76,48
1,61,77,0
1,55,87,4
1,51,66,192
1,56,83,16
1,59,80,0
1,44,77,4
1,51,70,24
1,59,81,36
1,54,81,0
1,51,66,40
1,54,78,76
1,63,70,4
1,59,82,0
1,51,62,184
1,54,79,56
1,63,77,0
1,59,81,4
1,51,78,4
1,62,78,12
1,54,83,0
1,47,84,0
1,59,83,4
1,54,71,4
1,62,77,64
1,56,74,0
1,59,83,0
1,54,74,0
1,54,44,4
1,59,81,20
1,56,74,0
1,62,75,4
1,49,85,0
1,56,67,76
1,59,77,4
1,54,68,0
1,62,74,0
1,58,90,16
1,42,86,0
1,61,83,0
1,65,86,4
1,54,68,176
1,58,93,56
1,65,93,4
1,61,89,0
1,54,79,8
1,65,66,4
1,58,87,40
1,54,86,4
1,42,86,0
1,63,76,0
1,54,59,20
1,63,83,72
1,58,92,0
1,54,72,188
1,58,82,28
1,56,83,0
1,46,78,0
1,61,77,0
1,61,85,92
1,58,91,0
1,56,92,0
1,61,78,12
1,58,84,0
1,55,81,4
1,39,90,0
1,55,70,8
1,55,89,72
1,64,83,0
1,58,95,0
1,63,79,0
1,51,85,8
1,55,69,80
1,59,81,32
1,63,64,0
1,44,78,4
1,54,55,36
1,63,78,92
1,59,88,0
1,54,56,4
1,49,74,20
1,59,78,0
1,56,74,4
1,53,72,0
1,62,81,4
1,56,82,40
1,59,83,4
1,53,68,188
1,61,68,0
1,42,76,4
1,58,78,0
1,54,51,40
1,58,65,68
1,61,67,4
1,54,59,188
1,61,70,36
1,58,80,8
1,42,72,4
1,54,89,4
1,58,93,180
1,61,93,72
1,61,74,44
1,45,86,0
1,52,80,0
1,57,83,0
1,61,74,4
1,57,85,4
1,33,83,8
1,52,62,180
1,61,76,20
1,57,88,4
1,45,80,4
1,52,66,36
1,61,83,60
1,57,91,0
1,52,69,192
1,56,81,0
1,59,83,4
1,40,84,4
1,52,59,12
1,64,78,60
1,56,66,0
1,52,61,196
1,56,78,40
1,59,41,0
1,64,75,4
1,47,81,4
1,52,87,0
1,54,106,192
1,56,101,156
1,59,69,8
1,56,83,4
1,62,86,4
1,44,74,0
1,54,72,4
1,59,89,44
1,56,85,0
1,54,62,192
1,59,83,0
1,56,76,0
1,61,76,4
1,37,81,0
1,53,68,208
1,56,75,64
1,59,79,4
1,61,71,4
1,49,65,4
1,53,61,20
1,61,72,28
1,57,83,0
1,45,86,4
1,52,58,28
1,61,78,84
1,57,89,0
1,52,57,8
1,39,99,0
1,61,83,0
1,57,91,0
1,51,65,32
1,57,89,84
1,61,78,0
1,60,81,40
1,37,79,0
1,56,86,0
1,53,70,192
1,49,68,76
1,56,70,0
1,60,74,0
1,53,67,196
1,60,75,4
1,56,72,0
1,37,72,4
1,53,96,4
1,56,102,180
1,49,71,4
1,60,90,8
1,54,86,16
1,59,99,0
1,44,84,0
1,56,82,48
1,59,75,0
1,63,78,0
1,54,64,36
1,37,83,4
1,56,84,0
1,62,88,0
1,59,86,0
1,53,66,28
1,59,83,20
1,56,90,0
1,62,86,0
1,49,80,0
1,53,72,12
1,61,70,32
1,65,75,4
1,42,81,0
1,58,77,0
1,54,57,164
1,61,78,52
1,58,85,0
1,65,81,0
1,54,65,180
1,49,71,4
1,63,78,44
1,58,82,0
1,42,76,4
1,54,47,152
1,58,79,68
1,63,74,0
1,49,68,8
1,54,66,184
1,46,80,20
1,56,78,4
1,58,76,0
1,61,74,0
1,61,72,84
1,58,71,0
1,56,74,0
1,53,72,200
1,56,83,20
1,61,76,0
1,46,74,4
1,53,66,196
1,61,77,52
1,56,83,0
1,53,64,4
1,61,66,0
1,59,81,4
1,49,78,0
1,64,76,0
1,56,63,20
1,61,65,60
1,64,74,8
1,59,84,0
1,37,66,8
1,56,69,28
1,61,71,24
1,49,71,4
1,59,72,4
1,64,71,0
1,56,66,36
1,61,82,76
1,59,87,4
1,64,80,0
1,56,67,0
1,61,66,28
1,56,78,0
1,46,80,8
1,52,61,92
1,61,76,84
1,56,84,0
1,52,62,192
1,55,77,76
1,61,72,0
1,39,77,4
1,51,65,140
1,63,75,48
1,61,78,0
1,55,90,4
1,51,65,180
1,59,78,12
1,56,77,0
1,44,70,4
1,54,50,48
1,56,74,64
1,59,77,4
1,54,52,192
1,56,78,48
1,59,79,0
1,54,63,180
1,54,87,44
1,44,86,60
1,56,74,100
1,59,83,108
1,56,81,16
1,62,80,4
1,59,83,0
1,47,79,4
1,54,70,0
1,62,75,84
1,59,79,0
1,56,70,0
1,54,61,188
1,59,82,36
1,62,76,0
1,49,78,0
1,56,79,0
1,54,39,80
1,56,73,84
1,62,74,4
1,59,77,0
1,54,44,204
1,61,72,80
1,58,72,0
1,42,74,4
1,54,61,156
1,58,82,52
1,61,77,4
1,54,75,0
1,49,68,8
1,58,76,20
1,62,77,0
1,42,83,4
1,54,59,28
1,58,67,48
1,62,79,4
1,42,78,96
1,54,67,0
1,42,93,8
1,63,78,0
1,58,83,0
1,54,70,28
1,63,87,72
1,58,86,0
1,54,69,200
1,63,74,40
1,57,86,4
1,41,81,4
1,53,66,88
1,65,86,48
1,63,77,0
1,57,86,4
1,53,71,192
1,46,76,8
1,58,77,4
1,61,76,0
1,53,59,52
1,61,40,48
1,61,67,24
1,56,73,8
1,53,69,196
1,61,69,56
1,58,66,0
1,53,60,212
1,46,77,40
1,61,70,4
1,56,75,0
1,53,62,196
1,56,78,60
1,61,74,0
1,46,85,4
1,61,73,88
1,56,83,0
1,52,61,192
1,55,79,0
1,61,67,0
1,39,84,4
1,51,65,180
1,55,85,72
1,61,74,0
1,51,59,192
1,59,81,0
1,54,76,0
1,44,71,0
1,51,60,96
1,59,79,80
1,54,75,0
1,51,65,4
1,63,68,144
1,59,79,0
1,54,61,16
1,59,86,108
1,63,76,0
1,54,50,40
1,56,78,32
1,59,83,0
1,62,79,4
1,47,79,0
1,54,59,108
1,59,81,84
1,56,76,0
1,62,72,0
1,54,63,40
1,62,75,88
1,59,81,0
1,56,77,0
1,49,77,4
1,54,69,36
1,62,78,84
1,59,85,0
1,56,78,0
1,54,58,20
1,58,82,20
1,61,74,0
1,42,81,4
1,54,65,104
1,58,80,84
1,61,77,0
1,65,81,0
1,54,62,192
1,42,78,20
1,63,76,0
1,58,78,0
1,54,50,192
1,58,78,92
1,63,74,0
1,54,68,4
1,61,71,4
1,58,74,0
1,46,83,4
1,56,77,0
1,56,76,76
1,61,71,0
1,58,78,0
1,39,83,4
1,61,75,0
1,58,77,0
1,55,67,104
1,51,77,88
1,58,77,0
1,61,76,0
1,64,77,0
1,55,63,8
1,44,79,12
1,63,68,0
1,59,72,0
1,54,50,40
1,63,70,112
1,59,77,0
1,54,61,16
1,59,77,16
1,56,74,0
1,49,65,0
1,62,73,4
1,53,71,56
1,59,77,72
1,62,72,0
1,56,74,0
1,37,71,0
1,42,77,36
1,58,74,0
1,61,72,0
1,54,60,12
1,49,67,92
1,61,72,0
1,58,76,0
1,54,64,12
1,58,53,64
1,61,65,0
1,42,68,0
1,54,74,4
1,58,86,116
1,49,73,4
1,54,60,16
1,58,76,28
1,42,83,4
1,61,72,0
1,65,74,0
1,54,59,172
1,65,77,56
1,58,85,0
1,61,81,4
1,54,52,184
1,63,74,24
1,58,79,0
1,42,81,4
1,54,54,188
1,58,77,80
1,63,70,0
1,54,55,4
1,56,79,28
1,61,73,0
1,46,86,0
1,58,75,0
1,61,69,100
1,56,68,0
1,58,69,0
1,53,70,192
1,58,74,88
1,61,73,4
1,56,78,0
1,53,49,220
1,61,76,88
1,58,76,0
1,56,77,4
1,56,78,24
1,59,83,4
1,49,76,0
1,52,58,76
1,59,86,68
1,56,82,0
1,52,51,204
1,37,68,72
1,56,70,0
1,61,68,0
