track,note,velocity,time
1,46,127,480
1,46,0,239
1,41,127,1
1,41,0,119
1,46,127,1
1,46,0,119
1,43,127,1
1,43,0,149
1,34,127,31
1,34,0,59
1,36,127,1
1,36,0,59
1,39,127,1
1,39,0,59
1,41,127,1
1,44,127,60
1,41,0,2
1,44,0,57
1,46,127,1
1,46,0,229
1,41,127,1
1,41,0,119
1,46,127,1
1,46,0,119
1,43,127,1
1,43,0,149
1,34,127,31
1,34,0,59
1,36,127,1
1,36,0,59
1,39,127,1
1,39,0,59
1,41,127,1
1,44,127,60
1,41,0,2
1,44,0,57
1,46,106,1
1,46,0,239
1,41,127,1
1,41,0,119
1,46,127,1
1,46,0,119
1,43,127,1
1,43,0,149
1,34,127,31
1,34,0,59
1,36,127,1
1,36,0,59
1,39,127,1
1,39,0,59
1,41,127,1
1,41,0,56
1,44,127,4
1,44,0,59
1,46,127,1
1,46,0,229
1,41,127,1
1,41,0,119
1,46,127,1
1,46,0,119
1,43,127,1
1,43,0,149
1,34,127,31
1,34,0,59
1,36,127,1
1,36,0,59
1,39,127,1
1,39,0,59
1,41,127,1
1,41,0,56
1,44,127,4
1,44,0,59
1,46,127,1
1,46,0,239
1,41,127,1
1,41,0,119
1,46,127,1
1,46,0,119
1,43,127,1
1,43,0,149
1,34,127,31
1,34,0,59
1,36,127,1
1,36,0,59
1,39,127,1
1,39,0,59
1,41,127,1
1,41,0,56
1,44,127,4
1,44,0,59
1,41,127,1
1,41,0,179
1,43,127,1
1,43,0,59
1,44,127,1
1,44,0,119
1,36,127,61
1,36,0,59
1,37,127,1
1,37,0,119
1,43,127,61
1,43,0,59
1,44,127,1
1,44,0,119
1,45,127,60
1,45,0,59
1,46,127,1
1,46,0,239
1,41,127,1
1,41,0,119
1,46,127,1
1,46,0,119
1,43,127,1
1,43,0,149
1,34,127,31
1,34,0,59
1,36,127,1
1,36,0,59
1,39,127,1
1,39,0,59
1,41,127,1
1,41,0,56
1,44,127,4
1,44,0,59
1,46,127,1
1,46,0,239
1,41,127,1
1,41,0,119
1,46,127,1
1,46,0,119
1,43,127,1
1,43,0,149
1,34,127,31
1,34,0,59
1,36,127,1
1,36,0,59
1,39,127,1
1,39,0,59
1,41,127,1
1,41,0,56
1,44,127,4
1,44,0,59
1,46,127,1
1,46,0,239
1,41,127,1
1,41,0,119
1,46,127,1
1,46,0,119
1,43,127,1
1,43,0,149
1,34,127,31
1,34,0,59
1,36,127,1
1,36,0,59
1,39,127,1
1,39,0,59
1,41,127,1
1,41,0,56
1,44,127,4
1,44,0,59
1,41,127,1
1,41,0,179
1,43,127,1
1,43,0,59
1,44,127,1
1,44,0,119
1,36,127,61
1,36,0,59
1,37,127,1
1,37,0,119
1,43,127,61
1,43,0,59
1,44,127,1
1,44,0,119
1,35,127,61
1,35,0,59
1,36,127,1
1,36,0,119
1,42,127,61
1,42,0,59
1,43,127,1
1,43,0,119
1,35,127,61
1,35,0,59
1,36,127,1
1,36,0,29
1,36,127,91
1,36,0,359
1,34,127,1
1,34,0,44
1,36,127,16
1,36,0,44
1,39,127,16
1,39,0,89
1,39,127,1
1,39,0,8
1,39,127,22
1,39,0,18
1,39,127,42
1,39,0,179
1,38,127,1
1,38,0,29
1,38,127,31
1,38,0,89
1,38,127,31
1,38,0,299
1,36,127,1
1,36,0,44
1,34,127,16
1,34,0,44
1,39,127,16
1,39,0,89
1,39,127,1
1,39,0,8
1,39,127,22
1,39,0,18
1,39,127,42
1,39,0,179
1,38,127,1
1,38,0,29
1,38,127,31
1,38,0,89
1,38,127,31
1,38,0,299
1,49,127,1
1,49,0,149
1,44,127,31
1,44,0,178
1,46,127,2
1,46,0,58
1,49,127,2
1,49,0,58
1,48,127,2
1,48,0,179
1,48,127,1
1,48,0,178
1,51,127,2
1,51,0,58
1,53,127,2
1,53,0,58
1,41,127,2
1,41,0,98
1,48,127,82
1,48,0,178
1,47,127,2
1,47,0,58
1,46,127,2
1,46,0,58
1,48,127,2
1,48,0,208
1,48,127,2
1,48,0,8
1,48,127,22
1,48,0,18
1,48,127,42
1,48,0,58
1,46,127,2
1,46,0,58
1,44,127,2
1,44,0,58
1,46,127,2
1,46,0,239
1,41,127,1
1,41,0,119
1,46,127,1
1,46,0,119
1,43,127,1
1,43,0,149
1,34,127,31
1,34,0,59
1,36,127,1
1,36,0,59
1,39,127,1
1,39,0,59
1,41,127,1
1,44,127,60
1,41,0,2
1,44,0,57
1,46,127,1
1,46,0,229
1,41,127,1
1,41,0,119
1,46,127,1
1,46,0,119
1,43,127,1
1,43,0,149
1,34,127,31
1,34,0,59
1,36,127,1
1,36,0,59
1,39,127,1
1,39,0,59
1,41,127,4
1,41,0,56
1,44,127,1
1,44,0,59
1,46,127,1
1,46,0,239
1,41,127,1
1,41,0,119
1,46,127,1
1,46,0,119
1,43,127,1
1,43,0,149
1,34,127,31
1,34,0,59
1,36,127,1
1,36,0,59
1,39,127,1
1,39,0,59
1,41,127,4
1,41,0,56
1,44,127,1
1,44,0,59
1,41,127,1
1,41,0,179
1,43,127,1
1,43,0,59
1,44,127,1
1,44,0,119
1,36,127,61
1,36,0,59
1,37,127,1
1,37,0,119
1,43,127,61
1,43,0,59
1,44,127,1
1,44,0,119
1,41,127,1
1,41,0,119
1,46,127,1
1,46,0,239
1,41,127,1
1,41,0,119
1,46,127,1
1,46,0,119
1,43,127,1
1,43,0,149
1,34,127,31
1,34,0,59
1,36,127,1
1,36,0,59
1,39,127,1
1,39,0,59
1,41,127,4
1,41,0,56
1,44,127,1
1,44,0,59
1,46,127,1
1,46,0,239
1,41,127,1
1,41,0,119
1,46,127,1
1,46,0,119
1,43,127,1
1,43,0,149
1,34,127,31
1,34,0,59
1,36,127,1
1,36,0,59
1,39,127,1
1,39,0,59
1,41,127,4
1,41,0,56
1,44,127,1
1,44,0,59
1,46,127,1
1,46,0,239
1,41,127,1
1,41,0,119
1,46,127,1
1,46,0,119
1,43,127,1
1,43,0,149
1,34,127,31
1,34,0,59
1,36,127,1
1,36,0,59
1,39,127,1
1,39,0,59
1,41,127,4
1,41,0,56
1,44,127,1
1,44,0,59
1,41,127,1
1,41,0,179
1,43,127,1
1,43,0,59
1,44,127,1
1,44,0,119
1,36,127,61
1,36,0,59
1,37,127,1
1,37,0,119
1,43,127,61
1,43,0,59
1,44,127,1
1,44,0,119
1,35,127,61
1,35,0,59
1,36,127,1
1,36,0,119
1,42,127,61
1,42,0,59
1,43,127,1
1,43,0,119
1,35,127,61
1,35,0,59
1,36,127,1
1,36,0,29
1,36,127,91
1,36,0,359
1,34,127,1
1,34,0,44
1,36,127,16
1,36,0,44
1,39,127,16
1,39,0,89
1,39,127,1
1,39,0,8
1,39,127,22
1,39,0,18
1,39,127,42
1,39,0,179
1,38,127,1
1,38,0,29
1,38,127,31
1,38,0,89
1,38,127,31
1,38,0,299
1,36,127,1
1,36,0,44
1,34,127,16
1,34,0,44
1,43,127,16
1,43,0,89
1,43,127,1
1,43,0,8
1,43,127,22
1,43,0,18
1,43,127,42
1,43,0,179
1,38,127,1
1,38,0,29
1,38,127,31
1,38,0,89
1,38,127,31
1,38,0,299
1,49,127,1
1,49,0,68
1,44,127,112
1,44,0,178
1,46,127,2
1,46,0,58
1,49,127,2
1,49,0,58
1,48,127,2
1,48,0,98
1,43,127,82
1,43,0,178
1,51,127,2
1,51,0,58
1,53,127,2
1,53,0,58
1,41,127,2
1,41,0,98
1,48,127,82
1,48,0,178
1,47,127,2
1,47,0,58
1,46,127,2
1,46,0,58
1,48,127,2
1,48,0,208
1,48,127,2
1,48,0,8
1,48,127,22
1,48,0,18
1,48,127,42
1,48,0,58
1,46,127,2
1,46,0,58
1,44,127,2
1,44,0,58
1,48,127,2
1,48,0,239
1,46,127,1
1,46,0,119
1,44,127,1
1,44,0,119
1,43,127,1
1,43,0,149
1,34,127,31
1,34,0,59
1,36,127,1
1,36,0,59
1,39,127,1
1,39,0,59
1,41,127,4
1,41,0,56
1,44,127,1
1,44,0,59
1,48,127,1
1,48,0,239
1,46,127,1
1,46,0,119
1,44,127,1
1,44,0,119
1,43,127,1
1,43,0,149
1,34,127,31
1,34,0,59
1,36,127,1
1,36,0,59
1,39,127,1
1,39,0,59
1,41,127,4
1,44,127,57
1,41,0,2
1,44,0,57
1,48,127,1
1,48,0,239
1,46,127,1
1,46,0,119
1,44,127,1
1,44,0,119
1,43,127,1
1,43,0,149
1,34,127,31
1,34,0,59
1,36,127,1
1,36,0,59
1,39,127,1
1,39,0,59
1,41,127,4
1,41,0,56
1,44,127,1
1,44,0,59
1,41,127,1
1,41,0,179
1,43,127,1
1,43,0,59
1,44,127,1
1,44,0,119
1,36,127,61
1,36,0,59
1,37,127,1
1,37,0,119
1,43,127,61
1,43,0,59
1,44,127,1
1,44,0,119
1,35,127,61
1,35,0,59
1,36,127,1
1,36,0,119
1,42,127,61
1,42,0,59
1,43,127,1
1,43,0,119
1,35,127,61
1,35,0,59
1,36,127,1
1,36,0,29
1,36,127,91
1,36,0,359
1,39,127,1
1,39,0,104
1,39,127,16
1,39,0,89
1,39,127,1
1,39,0,8
1,39,127,22
1,39,0,18
1,39,127,42
1,39,0,179
1,38,127,1
1,38,0,29
1,38,127,31
1,38,0,89
1,38,127,31
1,38,0,299
1,36,127,1
1,36,0,44
1,34,127,16
1,34,0,44
1,39,127,16
1,39,0,89
1,39,127,1
1,39,0,8
1,39,127,22
1,39,0,18
1,39,127,42
1,39,0,179
1,38,127,1
1,38,0,29
1,38,127,31
1,38,0,89
1,38,127,31
1,38,0,299
1,49,127,1
1,44,127,180
1,49,0,14
1,44,0,164
1,46,127,2
1,46,0,58
1,49,127,2
1,49,0,58
1,48,127,2
1,48,0,98
1,48,127,82
1,48,0,178
1,51,127,2
1,51,0,58
1,53,127,2
1,53,0,58
1,41,127,2
1,41,0,98
1,48,127,82
1,48,0,178
1,47,127,2
1,47,0,58
1,46,127,2
1,46,0,58
1,48,127,2
1,48,0,208
1,48,127,2
1,48,0,8
1,48,127,22
1,48,0,18
1,48,127,42
1,48,0,58
1,46,127,2
1,46,0,58
1,44,127,2
1,44,0,58
1,49,127,0
1,49,0,68
1,44,127,112
1,44,0,178
1,46,127,2
1,46,0,58
1,49,127,2
1,49,0,58
1,48,127,2
1,48,0,98
1,48,127,82
1,48,0,178
1,51,127,2
1,51,0,58
1,53,127,2
1,53,0,58
1,41,127,2
1,41,0,98
1,48,127,82
1,48,0,178
1,47,127,2
1,47,0,58
1,46,127,2
1,46,0,58
1,48,127,2
1,48,0,208
1,48,127,2
1,48,0,8
1,48,127,22
1,48,0,18
1,48,127,42
1,48,0,58
1,46,127,2
1,46,0,58
1,44,127,2
1,44,0,58
1,39,127,2
1,39,0,104
1,39,127,16
1,39,0,89
1,39,127,1
1,39,0,8
1,39,127,22
1,39,0,18
1,39,127,42
1,39,0,179
1,38,127,1
1,38,0,29
1,38,127,31
1,38,0,89
1,38,127,31
1,38,0,299
1,36,127,1
1,36,0,44
1,34,127,16
1,34,0,44
1,39,127,16
1,39,0,89
1,39,127,1
1,39,0,14
1,39,127,16
1,39,0,18
1,39,127,42
1,39,0,179
1,38,127,1
1,38,0,29
1,38,127,31
1,38,0,89
1,38,127,31
1,38,0,299
1,39,127,1
1,39,0,104
1,39,127,16
1,39,0,89
1,39,127,1
1,39,0,8
1,39,127,22
1,39,0,14
1,39,127,46
1,39,0,179
1,38,127,1
1,38,0,29
1,38,127,31
1,38,0,89
1,38,127,31
1,38,0,299
1,36,127,1
1,36,0,44
1,34,127,16
1,34,0,44
1,39,127,16
1,39,0,89
1,39,127,1
1,39,0,8
1,39,127,22
1,39,0,18
1,39,127,42
1,39,0,179
1,38,127,1
1,38,0,29
1,38,127,31
1,38,0,89
1,38,127,31
1,38,0,299
1,39,127,1
1,39,0,119
1,39,127,1
1,39,0,89
1,39,127,1
1,39,0,14
1,39,127,16
1,39,0,18
1,39,127,42
1,39,0,179
1,38,127,1
1,38,0,29
1,38,127,31
1,38,0,89
1,38,127,31
1,38,0,299
1,36,127,1
1,36,0,44
1,34,127,16
1,34,0,44
1,39,127,16
1,39,0,89
1,39,127,1
1,39,0,8
1,39,127,22
1,39,0,18
1,39,127,42
1,39,0,179
1,38,127,1
1,38,0,29
1,38,127,31
1,38,0,89
1,38,127,31
1,38,0,299
1,39,127,1
1,39,0,104
1,39,127,16
1,39,0,89
1,39,127,1
1,39,0,8
1,39,127,22
1,39,0,18
1,39,127,42
1,39,0,179
1,38,127,1
1,38,0,29
1,38,127,31
1,38,0,89
1,38,127,31
1,38,0,299
1,36,127,1
1,36,0,44
1,34,127,16
1,34,0,44
1,39,127,16
1,39,0,89
1,39,127,1
1,39,0,8
1,39,127,22
1,39,0,18
1,39,127,42
1,39,0,179
1,38,127,1
1,38,0,29
1,38,127,31
1,38,0,89
1,38,127,31
1,38,0,299
1,41,127,1
1,41,0,989
2,65,127,27298
2,66,127,10
2,65,0,4
2,66,0,10
2,68,127,5
2,71,127,12
2,68,0,2
2,73,127,2
2,75,127,8
2,71,0,2
2,73,0,4
2,77,127,3
2,75,0,5
2,77,0,54
2,75,127,1
2,72,127,60
2,72,0,29
2,75,0,0
2,70,127,31
2,70,0,59
2,68,127,1
2,68,0,89
2,65,127,31
2,65,0,59
2,63,127,1
2,63,0,59
2,72,127,2
2,75,127,59
2,72,0,0
2,75,0,329
2,70,127,61
2,70,0,14
2,72,127,1
2,72,0,14
2,77,127,1
2,75,127,60
2,77,0,29
2,72,127,31
2,72,0,29
2,75,0,0
2,70,127,37
2,68,127,54
2,70,0,5
2,68,0,84
2,65,127,31
2,65,0,59
2,64,127,1
2,65,127,15
2,64,0,14
2,65,0,60
2,63,127,1
2,63,0,329
2,70,127,91
2,70,0,14
2,72,127,1
2,72,0,14
2,77,127,1
2,75,127,60
2,77,0,29
2,72,127,31
2,72,0,29
2,75,0,0
2,70,127,31
2,70,0,59
2,68,127,1
2,68,0,89
2,65,127,31
2,65,0,59
2,63,127,1
2,63,0,59
2,72,127,1
2,72,0,59
2,75,127,1
2,68,127,300
2,75,0,29
2,68,0,30
2,70,127,1
2,70,0,59
2,72,127,1
2,72,0,59
2,72,127,31
2,72,0,29
2,72,127,31
2,72,0,89
2,72,127,1
2,72,0,59
2,72,127,31
2,72,0,29
2,72,127,31
2,72,0,89
2,72,127,1
2,72,0,239
2,68,127,1
2,68,0,59
2,70,127,1
2,70,0,59
2,72,127,1
2,72,0,59
2,73,127,1
2,73,0,59
2,72,127,1
2,72,0,29
2,73,127,1
2,73,0,29
2,72,127,1
2,72,0,299
2,79,127,376
2,80,127,15
2,79,0,14
2,80,0,15
2,79,127,1
2,79,0,29
2,80,127,1
2,77,127,150
2,80,0,29
2,77,0,480
2,75,127,4411
2,75,0,29
2,77,127,1
2,77,0,14
2,76,127,1
2,76,0,14
2,75,127,1
2,75,0,59
2,72,127,1
2,72,0,59
2,70,127,1
2,70,0,29
2,68,127,31
2,68,0,59
2,65,127,1
2,65,0,59
2,68,127,1
2,68,0,29
2,68,127,31
2,68,0,89
2,68,127,31
2,68,0,239
2,75,127,181
2,75,0,29
2,77,127,1
2,77,0,14
2,76,127,1
2,76,0,14
2,75,127,1
2,75,0,59
2,72,127,1
2,72,0,59
2,70,127,1
2,70,0,29
2,68,127,31
2,68,0,59
2,65,127,1
2,65,0,59
2,68,127,1
2,68,0,29
2,68,127,31
2,68,0,89
2,68,127,31
2,68,0,239
2,75,127,181
2,75,0,29
2,77,127,1
2,77,0,14
2,76,127,1
2,76,0,14
2,75,127,1
2,75,0,59
2,72,127,1
2,72,0,59
2,70,127,1
2,70,0,29
2,68,127,31
2,68,0,59
2,65,127,1
2,65,0,59
2,68,127,1
2,68,0,29
2,68,127,31
2,68,0,89
2,68,127,31
2,68,0,239
2,77,127,181
2,77,0,29
2,75,127,31
2,75,0,29
2,72,127,31
2,72,0,59
2,70,127,1
2,70,0,29
