track,note,velocity,time
0,42,101,0
0,42,101,89
0,42,101,231
0,42,101,231
0,28,90,231
0,36,102,0
0,42,101,0
0,36,102,111
0,42,32,0
0,62,68,111
0,71,68,0
0,67,68,0
0,62,68,0
0,71,68,0
0,67,68,0
0,37,101,0
0,42,101,0
0,54,101,0
0,28,79,74
0,36,102,0
0,42,32,0
0,35,70,21
0,62,68,0
0,71,68,0
0,67,68,0
0,62,68,0
0,71,68,0
0,67,68,0
0,36,102,0
0,42,101,0
0,35,70,69
0,62,68,0
0,71,68,0
0,67,68,0
0,62,68,0
0,71,68,0
0,67,68,0
0,37,101,0
0,42,32,0
0,42,101,111
0,54,101,0
0,32,79,2
0,37,101,0
0,42,32,0
0,33,102,15
0,69,68,0
0,66,68,0
0,61,68,0
0,69,68,0
0,66,68,0
0,61,68,0
0,36,102,0
0,42,101,0
0,33,90,61
0,69,68,0
0,66,68,0
0,61,68,0
0,69,68,0
0,66,68,0
0,61,68,0
0,36,102,0
0,42,32,0
0,37,101,2
0,42,101,0
0,54,101,0
0,33,102,104
0,61,68,0
0,69,68,0
0,66,68,0
0,61,68,0
0,69,68,0
0,66,68,0
0,36,102,0
0,42,32,0
0,42,101,111
0,35,79,63
0,37,101,0
0,42,32,0
0,40,56,23
0,42,101,0
0,54,101,0
0,38,90,6
0,35,70,11
0,36,102,0
0,37,101,0
0,42,32,0
0,28,90,25
0,36,102,0
0,42,101,0
0,36,102,111
0,42,32,0
0,71,68,111
0,62,68,0
0,67,68,0
0,71,68,0
0,62,68,0
0,67,68,0
0,37,101,0
0,42,101,0
0,54,101,0
0,28,79,74
0,36,102,0
0,42,32,0
0,35,70,21
0,62,68,0
0,67,68,0
0,71,68,0
0,62,68,0
0,67,68,0
0,71,68,0
0,36,102,0
0,42,101,0
0,35,70,69
0,71,68,0
0,62,68,0
0,67,68,0
0,71,68,0
0,62,68,0
0,67,68,0
0,37,101,0
0,42,32,0
0,42,101,111
0,54,101,0
0,32,79,5
0,37,101,0
0,42,32,0
0,33,102,15
0,66,68,0
0,69,68,0
0,61,68,0
0,66,68,0
0,69,68,0
0,61,68,0
0,36,102,0
0,42,101,0
0,33,90,78
0,61,68,0
0,66,68,0
0,69,68,0
0,61,68,0
0,66,68,0
0,69,68,0
0,36,102,0
0,42,32,0
0,37,101,111
0,42,101,0
0,54,101,0
0,33,102,96
0,61,68,0
0,69,68,0
0,66,68,0
0,61,68,0
0,69,68,0
0,66,68,0
0,36,102,0
0,42,32,0
0,42,101,111
0,35,79,63
0,37,101,0
0,42,32,0
0,40,56,23
0,42,101,0
0,54,101,0
0,38,90,6
0,35,70,11
0,36,102,0
0,37,101,0
0,42,32,0
0,28,90,0
0,91,64,0
0,88,51,0
0,83,55,0
0,36,102,0
0,42,101,0
0,36,102,111
0,42,32,0
0,62,68,111
0,71,68,0
0,67,68,0
0,62,68,0
0,71,68,0
0,67,68,0
0,37,101,0
0,42,101,0
0,54,101,0
0,28,79,74
0,36,102,0
0,42,32,0
0,35,70,21
0,62,68,0
0,71,68,0
0,67,68,0
0,62,68,0
0,71,68,0
0,67,68,0
0,36,102,0
0,42,101,0
0,35,70,69
0,62,68,0
0,71,68,0
0,67,68,0
0,62,68,0
0,71,68,0
0,67,68,0
0,37,101,0
0,42,32,0
0,42,101,111
0,54,101,0
0,32,79,2
0,37,101,0
0,42,32,0
0,33,102,15
0,69,68,0
0,66,68,0
0,61,68,0
0,69,68,0
0,66,68,0
0,61,68,0
0,90,51,0
0,85,56,0
0,81,56,0
0,36,102,0
0,42,101,0
0,33,90,61
0,69,68,0
0,66,68,0
0,61,68,0
0,69,68,0
0,66,68,0
0,61,68,0
0,36,102,0
0,42,32,0
0,37,101,2
0,42,101,0
0,54,101,0
0,33,102,104
0,61,68,0
0,69,68,0
0,66,68,0
0,61,68,0
0,69,68,0
0,66,68,0
0,36,102,0
0,42,32,0
0,42,101,111
0,35,79,63
0,37,101,0
0,42,32,0
0,40,56,23
0,42,101,0
0,54,101,0
0,38,90,6
0,35,70,11
0,36,102,0
0,37,101,0
0,42,32,0
0,28,90,0
0,88,51,0
0,91,55,0
0,83,48,0
0,36,102,0
0,42,101,0
0,36,102,111
0,42,32,0
0,71,68,111
0,62,68,0
0,67,68,0
0,71,68,0
0,62,68,0
0,67,68,0
0,37,101,0
0,42,101,0
0,54,101,0
0,28,79,74
0,36,102,0
0,42,32,0
0,35,70,21
0,62,68,0
0,67,68,0
0,71,68,0
0,62,68,0
0,67,68,0
0,71,68,0
0,36,102,0
0,42,101,0
0,35,70,69
0,71,68,0
0,62,68,0
0,67,68,0
0,71,68,0
0,62,68,0
0,67,68,0
0,37,101,0
0,42,32,0
0,42,101,111
0,54,101,0
0,32,79,5
0,37,101,0
0,42,32,0
0,33,102,15
0,66,68,0
0,69,68,0
0,61,68,0
0,66,68,0
0,69,68,0
0,61,68,0
0,81,55,0
0,85,55,0
0,90,55,0
0,36,102,0
0,42,101,0
0,33,90,78
0,61,68,0
0,66,68,0
0,69,68,0
0,61,68,0
0,66,68,0
0,69,68,0
0,36,102,0
0,42,32,0
0,37,101,111
0,42,101,0
0,54,101,0
0,33,102,96
0,61,68,0
0,69,68,0
0,66,68,0
0,61,68,0
0,69,68,0
0,66,68,0
0,36,102,0
0,42,32,0
0,42,101,111
0,35,79,63
0,37,101,0
0,42,32,0
0,40,56,23
0,42,101,0
0,54,101,0
0,38,90,6
0,35,70,11
0,36,102,0
0,37,101,0
0,42,32,0
0,28,90,35
0,91,64,0
0,88,51,0
0,83,55,0
0,36,102,0
0,42,101,0
0,36,102,111
0,42,32,0
0,62,68,111
0,71,68,0
0,67,68,0
0,62,68,0
0,71,68,0
0,67,68,0
0,37,101,0
0,42,101,0
0,54,101,0
0,28,79,74
0,36,102,0
0,42,32,0
0,35,70,21
0,62,68,0
0,71,68,0
0,67,68,0
0,62,68,0
0,71,68,0
0,67,68,0
0,36,102,0
0,42,101,0
0,35,70,69
0,62,68,0
0,71,68,0
0,67,68,0
0,62,68,0
0,71,68,0
0,67,68,0
0,37,101,0
0,42,32,0
0,42,101,111
0,54,101,0
0,32,79,2
0,37,101,0
0,42,32,0
0,33,102,15
0,69,68,0
0,66,68,0
0,61,68,0
0,69,68,0
0,66,68,0
0,61,68,0
0,90,51,0
0,85,56,0
0,81,56,0
0,36,102,0
0,42,101,0
0,33,90,61
0,69,68,0
0,66,68,0
0,61,68,0
0,69,68,0
0,66,68,0
0,61,68,0
0,36,102,0
0,42,32,0
0,37,101,2
0,42,101,0
0,54,101,0
0,33,102,104
0,61,68,0
0,69,68,0
0,66,68,0
0,61,68,0
0,69,68,0
0,66,68,0
0,36,102,0
0,42,32,0
0,42,101,111
0,35,79,63
0,37,101,0
0,42,32,0
0,40,56,23
0,42,101,0
0,54,101,0
0,38,90,6
0,35,70,11
0,36,102,0
0,37,101,0
0,42,32,0
0,28,90,0
0,88,51,0
0,91,55,0
0,83,48,0
0,36,102,0
0,42,101,0
0,36,102,111
0,42,32,0
0,71,68,111
0,62,68,0
0,67,68,0
0,71,68,0
0,62,68,0
0,67,68,0
0,37,101,0
0,42,101,0
0,54,101,0
0,28,79,74
0,36,102,0
0,42,32,0
0,35,70,21
0,62,68,0
0,67,68,0
0,71,68,0
0,62,68,0
0,67,68,0
0,71,68,0
0,36,102,0
0,42,101,0
0,35,70,69
0,71,68,0
0,62,68,0
0,67,68,0
0,71,68,0
0,62,68,0
0,67,68,0
0,37,101,0
0,42,32,0
0,42,101,111
0,54,101,0
0,32,79,5
0,37,101,0
0,42,32,0
0,33,102,15
0,66,68,0
0,69,68,0
0,61,68,0
0,66,68,0
0,69,68,0
0,61,68,0
0,81,55,0
0,85,55,0
0,90,55,0
0,36,102,0
0,42,101,0
0,33,90,78
0,61,68,0
0,66,68,0
0,69,68,0
0,61,68,0
0,66,68,0
0,69,68,0
0,36,102,0
0,42,32,0
0,37,101,111
0,42,101,0
0,54,101,0
0,33,102,96
0,61,68,0
0,69,68,0
0,66,68,0
0,61,68,0
0,69,68,0
0,66,68,0
0,36,102,0
0,42,32,0
0,42,101,111
0,35,79,63
0,37,101,0
0,42,32,0
0,40,56,23
0,42,101,0
0,54,101,0
0,38,90,6
0,35,70,11
0,36,102,0
0,37,101,0
0,42,32,0
0,28,79,35
0,91,64,0
0,83,44,0
0,88,51,0
0,36,102,0
0,42,101,0
0,36,102,111
0,42,32,0
0,62,68,111
0,71,68,0
0,67,68,0
0,62,68,0
0,71,68,0
0,67,68,0
0,37,101,0
0,42,101,0
0,54,101,0
0,28,90,79
0,36,102,0
0,42,32,0
0,35,70,25
0,71,68,0
0,62,68,0
0,67,68,0
0,71,68,0
0,62,68,0
0,67,68,0
0,36,102,0
0,42,101,0
0,35,90,77
0,62,68,0
0,71,68,0
0,67,68,0
0,62,68,0
0,71,68,0
0,67,68,0
0,37,101,0
0,42,32,0
0,42,101,111
0,54,101,0
0,35,90,72
0,37,101,0
0,42,32,0
0,28,79,38
0,71,68,0
0,62,68,0
0,67,68,0
0,71,68,0
0,62,68,0
0,67,68,0
0,36,102,0
0,42,101,0
0,28,79,72
0,71,68,0
0,62,68,0
0,67,68,0
0,71,68,0
0,62,68,0
0,67,68,0
0,36,102,0
0,42,32,0
0,37,101,111
0,42,101,0
0,54,101,0
0,35,90,52
0,71,68,0
0,62,68,0
0,67,68,0
0,71,68,0
0,62,68,0
0,67,68,0
0,36,102,0
0,42,32,0
0,42,101,111
0,28,102,16
0,37,101,0
0,42,32,0
0,35,79,25
0,42,101,0
0,54,101,0
0,35,70,44
0,36,102,0
0,37,101,0
0,42,32,0
0,33,90,25
0,61,68,0
0,69,68,0
0,66,68,0
0,61,68,0
0,69,68,0
0,66,68,0
0,81,70,0
0,90,55,0
0,85,64,0
0,36,102,0
0,42,101,151
0,42,101,231
0,42,101,231
0,45,101,111
0,45,101,21
0,45,101,21
0,41,101,21
0,34,90,21
0,64,56,0
0,61,79,0
0,67,79,0
0,70,64,0
0,64,56,0
0,61,79,0
0,67,79,0
0,70,64,0
0,88,56,0
0,91,64,0
0,94,56,0
0,36,102,0
0,34,90,142
0,64,70,0
0,70,64,0
0,67,90,0
0,61,79,0
0,64,70,0
0,70,64,0
0,67,90,0
0,61,79,0
0,88,55,0
0,94,64,0
0,91,70,0
0,36,102,0
0,49,101,0
0,38,32,411
0,38,101,51
0,38,101,51
0,38,101,2
0,38,101,14
0,28,90,0
0,83,44,0
0,91,64,0
0,88,55,0
0,36,102,0
0,42,101,0
0,36,102,111
0,42,32,0
0,71,68,111
0,62,68,0
0,67,68,0
0,71,68,0
0,62,68,0
0,67,68,0
0,37,101,0
0,42,101,0
0,54,101,0
0,28,79,74
0,36,102,0
0,42,32,0
0,35,70,21
0,62,68,0
0,71,68,0
0,67,68,0
0,62,68,0
0,71,68,0
0,67,68,0
0,36,102,0
0,42,101,0
0,35,70,69
0,62,68,0
0,67,68,0
0,71,68,0
0,62,68,0
0,67,68,0
0,71,68,0
0,37,101,0
0,42,32,0
0,42,101,111
0,54,101,0
0,32,79,15
0,37,101,0
0,42,32,0
0,33,102,2
0,61,68,0
0,69,68,0
0,66,68,0
0,61,68,0
0,69,68,0
0,66,68,0
0,81,51,0
0,85,55,0
0,90,55,0
0,36,102,0
0,42,101,0
0,33,90,78
0,66,68,0
0,61,68,0
0,69,68,0
0,66,68,0
0,61,68,0
0,69,68,0
0,36,102,0
0,42,32,0
0,37,101,111
0,42,101,0
0,54,101,0
0,33,102,103
0,66,68,0
0,61,68,0
0,69,68,0
0,66,68,0
0,61,68,0
0,69,68,0
0,36,102,0
0,42,32,0
0,42,101,111
0,35,79,63
0,37,101,0
0,42,32,0
0,40,56,23
0,42,101,0
0,54,101,0
0,38,90,6
0,35,70,11
0,36,102,0
0,37,101,0
0,42,32,0
0,28,90,43
0,91,48,0
0,83,41,0
0,88,51,0
0,36,102,0
0,42,101,0
0,36,102,111
0,42,32,0
0,71,68,111
0,62,68,0
0,67,68,0
0,71,68,0
0,62,68,0
0,67,68,0
0,37,101,0
0,42,101,0
0,54,101,0
0,28,79,68
0,36,102,0
0,42,32,0
0,35,70,10
0,71,68,0
0,62,68,0
0,67,68,0
0,71,68,0
0,62,68,0
0,67,68,0
0,36,102,0
0,42,101,0
0,35,79,72
0,71,68,0
0,62,68,0
0,67,68,0
0,71,68,0
0,62,68,0
0,67,68,0
0,36,102,0
0,37,101,0
0,42,32,0
0,42,101,111
0,54,101,0
0,34,79,29
0,37,101,0
0,42,32,0
0,35,56,63
0,78,55,0
0,86,56,0
0,83,64,0
0,36,102,0
0,42,101,0
0,35,70,70
0,57,70,0
0,66,56,0
0,62,79,0
0,57,70,0
0,66,56,0
0,62,79,0
0,36,102,0
0,42,32,0
0,37,101,111
0,42,101,0
0,54,101,0
0,57,56,38
0,62,79,0
0,66,55,0
0,57,56,0
0,62,79,0
0,66,55,0
0,35,70,39
0,36,102,0
0,42,32,0
0,62,70,54
0,66,56,0
0,57,64,0
0,62,70,0
0,66,56,0
0,57,64,0
0,42,101,0
0,35,70,56
0,36,102,0
0,38,32,0
0,42,32,0
0,57,64,48
0,62,90,0
0,66,64,0
0,57,64,0
0,62,90,0
0,66,64,0
0,38,32,0
0,38,32,51
0,42,101,0
0,54,101,0
0,38,101,14
0,35,70,44
0,57,70,0
0,66,56,0
0,62,79,0
0,57,70,0
0,66,56,0
0,62,79,0
0,36,102,0
0,38,101,0
0,42,32,0
0,38,101,1
0,28,90,0
0,83,55,0
0,88,51,0
0,91,64,0
0,36,102,0
0,42,101,0
0,36,102,111
0,42,32,0
0,62,68,111
0,71,68,0
0,67,68,0
0,62,68,0
0,71,68,0
0,67,68,0
0,37,101,0
0,42,101,0
0,54,101,0
0,28,79,74
0,36,102,0
0,42,32,0
0,35,70,21
0,62,68,0
0,71,68,0
0,67,68,0
0,62,68,0
0,71,68,0
0,67,68,0
0,36,102,0
0,42,101,0
0,35,70,69
0,62,68,0
0,71,68,0
0,67,68,0
0,62,68,0
0,71,68,0
0,67,68,0
0,37,101,0
0,42,32,0
0,42,101,111
0,54,101,0
0,32,79,2
0,37,101,0
0,42,32,0
0,33,102,15
0,69,68,0
0,66,68,0
0,61,68,0
0,69,68,0
0,66,68,0
0,61,68,0
0,90,51,0
0,85,56,0
0,81,56,0
0,36,102,0
0,42,101,0
0,33,90,61
0,69,68,0
0,66,68,0
0,61,68,0
0,69,68,0
0,66,68,0
0,61,68,0
0,36,102,0
0,42,32,0
0,37,101,2
0,42,101,0
0,54,101,0
0,33,102,104
0,61,68,0
0,69,68,0
0,66,68,0
0,61,68,0
0,69,68,0
0,66,68,0
0,36,102,0
0,42,32,0
0,42,101,111
0,35,79,63
0,37,101,0
0,42,32,0
0,40,56,23
0,42,101,0
0,54,101,0
0,38,90,6
0,35,70,11
0,36,102,0
0,37,101,0
0,42,32,0
0,28,90,0
0,88,51,0
0,91,55,0
0,83,48,0
0,36,102,0
0,42,101,0
0,36,102,111
0,42,32,0
0,71,68,111
0,62,68,0
0,67,68,0
0,71,68,0
0,62,68,0
0,67,68,0
0,37,101,0
0,42,101,0
0,54,101,0
0,28,79,74
0,36,102,0
0,42,32,0
0,35,70,21
0,62,68,0
0,67,68,0
0,71,68,0
0,62,68,0
0,67,68,0
0,71,68,0
0,36,102,0
0,42,101,0
0,35,70,69
0,71,68,0
0,62,68,0
0,67,68,0
0,71,68,0
0,62,68,0
0,67,68,0
0,37,101,0
0,42,32,0
0,42,101,111
0,54,101,0
0,32,79,5
0,37,101,0
0,42,32,0
0,33,102,15
0,66,68,0
0,69,68,0
0,61,68,0
0,66,68,0
0,69,68,0
0,61,68,0
0,81,55,0
0,85,55,0
0,90,55,0
0,36,102,0
0,42,101,0
0,33,90,78
0,61,68,0
0,66,68,0
0,69,68,0
0,61,68,0
0,66,68,0
0,69,68,0
0,36,102,0
0,42,32,0
0,37,101,111
0,42,101,0
