track,note,velocity,time
3,62,110,2592
3,62,0,160
3,66,110,32
3,66,0,94
3,62,110,2
3,62,0,160
3,66,110,32
3,66,0,94
3,67,110,2
3,67,0,94
3,69,110,2
3,69,0,94
3,67,110,2
3,67,0,94
3,66,110,2
3,66,0,448
3,69,110,32
3,69,0,94
3,66,110,2
3,66,0,94
3,62,110,2
3,62,0,94
3,66,110,2
3,66,0,94
3,64,110,2
3,64,0,94
3,57,110,2
3,57,0,94
3,64,110,2
3,64,0,94
3,62,110,2
3,62,0,256
3,62,110,32
3,62,0,160
3,66,110,32
3,66,0,94
3,62,110,2
3,62,0,160
3,66,110,32
3,66,0,94
3,67,110,2
3,67,0,94
3,69,110,2
3,69,0,94
3,67,110,2
3,67,0,94
3,66,110,2
3,66,0,448
3,69,110,32
3,69,0,94
3,66,110,2
3,66,0,94
3,62,110,2
3,62,0,94
3,66,110,2
3,66,0,94
3,64,110,0
3,64,0,94
3,57,110,2
3,57,0,94
3,64,110,2
3,64,0,94
3,62,110,2
3,62,0,382
3,69,110,2
3,69,0,94
3,71,110,2
3,71,0,94
3,67,110,0
3,67,0,160
3,66,110,32
3,66,0,190
3,64,110,2
3,64,0,94
3,62,110,2
3,62,0,94
3,66,110,2
3,66,0,160
3,64,110,32
3,64,0,190
3,69,110,2
3,69,0,94
3,71,110,2
3,71,0,94
3,67,110,2
3,67,0,160
3,66,110,32
3,66,0,190
3,64,110,2
3,64,0,94
3,62,110,2
3,62,0,94
3,66,110,2
3,66,0,160
3,64,110,32
3,64,0,190
3,62,110,2
3,62,0,94
3,66,110,2
3,66,0,94
3,59,110,2
3,59,0,160
3,62,110,32
3,62,0,94
3,61,110,2
3,61,0,94
3,62,110,2
3,62,0,94
3,64,110,2
3,64,0,94
3,57,110,2
3,57,0,256
3,62,110,32
3,62,0,160
3,66,110,32
3,66,0,190
3,59,110,2
3,59,0,94
3,62,110,2
3,62,0,94
3,61,110,2
3,61,0,94
3,62,110,2
3,62,0,94
3,64,110,2
3,64,0,94
3,69,110,2
3,69,0,382
3,66,110,2
3,66,0,94
3,71,110,2
3,71,0,94
3,67,110,2
3,67,0,160
3,59,110,32
3,59,0,94
3,66,110,2
3,66,0,94
3,64,110,2
3,64,0,94
3,66,110,2
3,66,0,94
3,62,110,2
3,62,0,382
3,62,110,2
3,62,0,94
3,66,110,2
3,66,0,94
3,59,110,2
3,59,0,160
3,62,110,32
3,62,0,94
3,61,110,2
3,61,0,94
3,62,110,2
3,62,0,94
3,64,110,2
3,64,0,94
3,62,110,2
3,62,0,382
3,62,110,194
3,62,0,160
3,66,110,32
3,66,0,94
3,62,110,2
3,62,0,160
3,66,110,32
3,66,0,94
3,67,110,2
3,67,0,94
3,69,110,2
3,69,0,94
3,67,110,2
3,67,0,94
3,66,110,2
3,66,0,448
3,69,110,32
3,69,0,94
3,66,110,2
3,66,0,94
3,62,110,2
3,62,0,94
3,66,110,2
3,66,0,94
3,64,110,2
3,64,0,94
3,57,110,2
3,57,0,94
3,64,110,2
3,64,0,94
3,62,110,2
3,62,0,256
3,62,110,32
3,62,0,160
3,66,110,32
3,66,0,94
3,62,110,2
3,62,0,160
3,66,110,32
3,66,0,94
3,67,110,2
3,67,0,94
3,69,110,2
3,69,0,94
3,67,110,2
3,67,0,94
3,66,110,2
3,66,0,448
3,69,110,32
3,69,0,94
3,66,110,2
3,66,0,94
3,62,110,2
3,62,0,94
3,66,110,2
3,66,0,94
3,64,110,0
3,64,0,94
3,57,110,2
3,57,0,94
3,64,110,2
3,64,0,94
3,62,110,2
3,62,0,382
3,69,110,2
3,69,0,94
3,71,110,2
3,71,0,94
3,67,110,0
3,67,0,160
3,66,110,32
3,66,0,190
3,64,110,2
3,64,0,94
3,62,110,2
3,62,0,94
3,66,110,2
3,66,0,160
3,64,110,32
3,64,0,190
3,69,110,2
3,69,0,94
3,71,110,2
3,71,0,94
3,67,110,2
3,67,0,160
3,66,110,32
3,66,0,190
3,64,110,2
3,64,0,94
3,62,110,2
3,62,0,94
3,66,110,2
3,66,0,160
3,64,110,32
3,64,0,190
3,62,110,2
3,62,0,94
3,66,110,2
3,66,0,94
3,59,110,2
3,59,0,160
3,62,110,32
3,62,0,94
3,61,110,2
3,61,0,94
3,62,110,2
3,62,0,94
3,64,110,2
3,64,0,94
3,57,110,2
3,57,0,256
3,62,110,32
3,62,0,160
3,66,110,32
3,66,0,190
3,59,110,2
3,59,0,94
3,62,110,2
3,62,0,94
3,61,110,2
3,61,0,94
3,62,110,2
3,62,0,94
3,64,110,2
3,64,0,94
3,69,110,2
3,69,0,382
3,66,110,2
3,66,0,94
3,71,110,2
3,71,0,94
3,67,110,2
3,67,0,160
3,59,110,32
3,59,0,94
3,66,110,2
3,66,0,94
3,64,110,2
3,64,0,94
3,66,110,2
3,66,0,94
3,62,110,2
3,62,0,382
3,62,110,2
3,62,0,94
3,66,110,2
3,66,0,94
3,59,110,2
3,59,0,160
3,62,110,32
3,62,0,94
3,61,110,2
3,61,0,94
3,62,110,2
3,62,0,94
3,64,110,2
3,64,0,94
3,62,110,2
3,62,0,382
3,62,110,194
3,62,0,160
3,66,110,32
3,66,0,94
3,62,110,2
3,62,0,160
3,66,110,32
3,66,0,94
3,67,110,2
3,67,0,94
3,69,110,2
3,69,0,94
3,67,110,2
3,67,0,94
3,66,110,2
3,66,0,448
3,69,110,32
3,69,0,94
3,66,110,2
3,66,0,94
3,62,110,2
3,62,0,94
3,66,110,2
3,66,0,94
3,64,110,2
3,64,0,94
3,57,110,2
3,57,0,94
3,64,110,2
3,64,0,94
3,62,110,2
3,62,0,256
3,62,110,32
3,62,0,160
3,66,110,32
3,66,0,94
3,62,110,2
3,62,0,160
3,66,110,32
3,66,0,94
3,67,110,2
3,67,0,94
3,69,110,2
3,69,0,94
3,67,110,2
3,67,0,94
3,66,110,2
3,66,0,448
3,69,110,32
3,69,0,94
3,66,110,2
3,66,0,94
3,62,110,2
3,62,0,94
3,66,110,2
3,66,0,94
3,64,110,0
3,64,0,94
3,57,110,2
3,57,0,94
3,64,110,2
3,64,0,94
3,62,110,2
3,62,0,382
3,69,110,2
3,69,0,94
3,71,110,2
3,71,0,94
3,67,110,0
3,67,0,160
3,66,110,32
3,66,0,190
3,64,110,2
3,64,0,94
3,62,110,2
3,62,0,94
3,66,110,2
3,66,0,160
3,64,110,32
3,64,0,190
3,69,110,2
3,69,0,94
3,71,110,2
3,71,0,94
3,67,110,2
3,67,0,160
3,66,110,32
3,66,0,190
3,64,110,2
3,64,0,94
3,62,110,2
3,62,0,94
3,66,110,2
3,66,0,160
3,64,110,32
3,64,0,190
3,62,110,2
3,62,0,94
3,66,110,2
3,66,0,94
3,59,110,2
3,59,0,160
3,62,110,32
3,62,0,94
3,61,110,2
3,61,0,94
3,62,110,2
3,62,0,94
3,64,110,2
3,64,0,94
3,57,110,2
3,57,0,256
3,62,110,32
3,62,0,160
3,66,110,32
3,66,0,190
3,59,110,2
3,59,0,94
3,62,110,2
3,62,0,94
3,61,110,2
3,61,0,94
3,62,110,2
3,62,0,94
3,64,110,2
3,64,0,94
3,69,110,2
3,69,0,382
3,66,110,2
3,66,0,94
3,71,110,2
3,71,0,94
3,67,110,2
3,67,0,160
3,59,110,32
3,59,0,94
3,66,110,2
3,66,0,94
3,64,110,2
3,64,0,94
3,66,110,2
3,66,0,94
3,62,110,2
3,62,0,382
3,62,110,2
3,62,0,94
3,66,110,2
3,66,0,94
3,59,110,2
3,59,0,160
3,62,110,32
3,62,0,94
3,61,110,2
3,61,0,94
3,62,110,2
3,62,0,94
3,64,110,2
3,64,0,94
3,62,110,2
3,62,0,382
3,62,110,194
3,62,0,160
3,66,110,32
3,66,0,94
3,62,110,2
3,62,0,160
3,66,110,32
3,66,0,94
3,67,110,2
3,67,0,94
3,69,110,2
3,69,0,94
3,67,110,2
3,67,0,94
3,66,110,2
3,66,0,448
3,69,110,32
3,69,0,94
3,66,110,2
3,66,0,94
3,62,110,2
3,62,0,94
3,66,110,2
3,66,0,94
3,64,110,2
3,64,0,94
3,57,110,2
3,57,0,94
3,64,110,2
3,64,0,94
3,62,110,2
3,62,0,256
3,62,110,32
3,62,0,160
3,66,110,32
3,66,0,94
3,62,110,2
3,62,0,160
3,66,110,32
3,66,0,94
3,67,110,2
3,67,0,94
3,69,110,2
3,69,0,94
3,67,110,2
3,67,0,94
3,66,110,2
3,66,0,448
3,69,110,32
3,69,0,94
3,66,110,2
3,66,0,94
3,62,110,2
3,62,0,94
3,66,110,2
3,66,0,94
3,64,110,0
3,64,0,94
3,57,110,2
3,57,0,94
3,64,110,2
3,64,0,94
3,62,110,2
3,62,0,382
3,69,110,2
3,69,0,94
3,71,110,2
3,71,0,94
3,67,110,0
3,67,0,160
3,66,110,32
3,66,0,190
3,64,110,2
3,64,0,94
3,62,110,2
3,62,0,94
3,66,110,2
3,66,0,160
3,64,110,32
3,64,0,190
3,69,110,2
3,69,0,94
3,71,110,2
3,71,0,94
3,67,110,2
3,67,0,160
3,66,110,32
3,66,0,190
3,64,110,2
3,64,0,94
3,62,110,2
3,62,0,94
3,66,110,2
3,66,0,160
3,64,110,32
3,64,0,190
3,62,110,2
3,62,0,94
3,66,110,2
3,66,0,94
3,59,110,2
3,59,0,160
3,62,110,32
3,62,0,94
3,61,110,2
3,61,0,94
3,62,110,2
3,62,0,94
3,64,110,2
3,64,0,94
3,57,110,2
3,57,0,256
3,62,110,32
3,62,0,160
3,66,110,32
3,66,0,190
3,59,110,2
3,59,0,94
3,62,110,2
3,62,0,94
3,61,110,2
3,61,0,94
3,62,110,2
3,62,0,94
3,64,110,2
3,64,0,94
3,69,110,2
3,69,0,382
3,66,110,2
3,66,0,94
3,71,110,2
3,71,0,94
3,67,110,2
3,67,0,160
3,59,110,32
3,59,0,94
3,66,110,2
3,66,0,94
3,64,110,2
3,64,0,94
3,66,110,2
3,66,0,94
3,62,110,2
3,62,0,382
3,62,110,2
3,62,0,94
3,66,110,2
3,66,0,94
3,59,110,2
3,59,0,160
3,62,110,32
3,62,0,94
3,61,110,2
3,61,0,94
3,62,110,2
3,62,0,94
3,64,110,2
3,64,0,94
3,62,110,2
3,62,0,382
3,62,110,194
3,62,0,160
3,66,110,32
3,66,0,94
3,62,110,2
3,62,0,160
3,66,110,32
3,66,0,94
3,67,110,2
3,67,0,94
3,69,110,2
3,69,0,94
3,67,110,2
3,67,0,94
3,66,110,2
3,66,0,448
3,69,110,32
3,69,0,94
3,66,110,2
3,66,0,94
3,62,110,2
3,62,0,94
3,66,110,2
3,66,0,94
3,64,110,2
3,64,0,94
3,57,110,2
3,57,0,94
3,64,110,2
3,64,0,94
3,62,110,2
3,62,0,256
3,62,110,32
3,62,0,160
3,66,110,32
3,66,0,94
3,62,110,2
3,62,0,160
3,66,110,32
3,66,0,94
3,67,110,2
3,67,0,94
3,69,110,2
3,69,0,94
3,67,110,2
3,67,0,94
3,66,110,2
3,66,0,448
3,69,110,32
3,69,0,94
3,66,110,2
3,66,0,94
3,62,110,2
3,62,0,94
3,66,110,2
3,66,0,94
3,64,110,0
3,64,0,94
3,57,110,2
3,57,0,94
3,64,110,2
3,64,0,94
3,62,110,2
3,62,0,382
3,69,110,2
3,69,0,94
3,71,110,2
3,71,0,94
3,67,110,0
3,67,0,160
3,66,110,32
3,66,0,190
3,64,110,2
3,64,0,94
3,62,110,2
3,62,0,94
3,66,110,2
3,66,0,160
3,64,110,32
3,64,0,190
3,69,110,2
3,69,0,94
3,71,110,2
3,71,0,94
3,67,110,2
3,67,0,160
3,66,110,32
3,66,0,190
3,64,110,2
3,64,0,94
3,62,110,2
3,62,0,94
3,66,110,2
3,66,0,160
3,64,110,32
3,64,0,190
3,62,110,2
3,62,0,94
3,66,110,2
3,66,0,94
3,59,110,2
3,59,0,160
3,62,110,32
3,62,0,94
3,61,110,2
3,61,0,94
3,62,110,2
3,62,0,94
3,64,110,2
3,64,0,94
3,57,110,2
3,57,0,256
3,62,110,32
3,62,0,160
3,66,110,32
3,66,0,190
3,59,110,2
3,59,0,94
3,62,110,2
3,62,0,94
3,61,110,2
3,61,0,94
3,62,110,2
3,62,0,94
3,64,110,2
3,64,0,94
3,69,110,2
3,69,0,382
3,66,110,2
3,66,0,94
3,71,110,2
3,71,0,94
3,67,110,2
3,67,0,160
3,59,110,32
3,59,0,94
3,66,110,2
3,66,0,94
3,64,110,2
3,64,0,94
3,66,110,2
3,66,0,94
3,62,110,2
3,62,0,382
3,62,110,2
3,62,0,94
3,66,110,2
3,66,0,94
3,59,110,2
3,59,0,160
3,62,110,32
3,62,0,94
3,61,110,2
3,61,0,94
3,62,110,2
3,62,0,94
3,64,110,2
3,64,0,94
3,62,110,2
3,62,0,382
3,62,110,194
3,62,0,160
3,66,110,32
3,66,0,94
3,62,110,2
3,62,0,160
3,66,110,32
3,66,0,94
3,67,110,2
3,67,0,94
3,69,110,2
3,69,0,94
3,67,110,2
3,67,0,94
3,66,110,2
3,66,0,448
3,69,110,32
3,69,0,94
3,66,110,2
3,66,0,94
3,62,110,2
3,62,0,94
3,66,110,2
3,66,0,94
3,64,110,2
3,64,0,94
3,57,110,2
3,57,0,94
3,64,110,2
3,64,0,94
3,62,110,2
3,62,0,256
3,62,110,32
3,62,0,160
3,66,110,32
3,66,0,94
3,62,110,2
3,62,0,160
3,66,110,32
3,66,0,94
3,67,110,2
3,67,0,94
3,69,110,2
3,69,0,94
3,67,110,2
3,67,0,94
3,66,110,2
3,66,0,448
3,69,110,32
3,69,0,94
3,66,110,2
3,66,0,94
3,62,110,2
3,62,0,94
3,66,110,2
3,66,0,94
3,64,110,0
3,64,0,94
3,57,110,2
3,57,0,94
3,64,110,2
3,64,0,94
3,62,110,2
3,62,0,382
3,69,110,2
3,69,0,94
3,71,110,2
3,71,0,94
3,67,110,0
3,67,0,160
3,66,110,32
3,66,0,190
3,64,110,2
3,64,0,94
3,62,110,2
3,62,0,94
3,66,110,2
3,66,0,160
3,64,110,32
3,64,0,190
3,69,110,2
3,69,0,94
3,71,110,2
3,71,0,94
3,67,110,2
3,67,0,160
3,66,110,32
3,66,0,190
3,64,110,2
3,64,0,94
3,62,110,2
3,62,0,94
3,66,110,2
3,66,0,160
3,64,110,32
3,64,0,190
3,62,110,2
3,62,0,94
3,66,110,2
3,66,0,94
3,59,110,2
3,59,0,160
3,62,110,32
3,62,0,94
3,61,110,2
3,61,0,94
3,62,110,2
3,62,0,94
3,64,110,2
3,64,0,94
3,57,110,2
3,57,0,256
3,62,110,32
3,62,0,160
3,66,110,32
3,66,0,190
3,59,110,2
3,59,0,94
3,62,110,2
3,62,0,94
3,61,110,2
3,61,0,94
3,62,110,2
3,62,0,94
3,64,110,2
3,64,0,94
3,69,110,2
3,69,0,382
3,66,110,2
3,66,0,94
3,71,110,2
3,71,0,94
3,67,110,2
3,67,0,160
3,59,110,32
3,59,0,94
3,66,110,2
3,66,0,94
3,64,110,2
3,64,0,94
3,66,110,2
3,66,0,94
3,62,110,2
3,62,0,382
3,62,110,2
3,62,0,94
3,66,110,2
3,66,0,94
3,59,110,2
3,59,0,160
3,62,110,32
3,62,0,94
3,61,110,2
3,61,0,94
3,62,110,2
3,62,0,94
3,64,110,2
3,64,0,94
3,62,110,2
3,62,0,528
4,54,110,96
4,54,0,94
4,59,110,2
4,59,0,94
4,47,110,2
4,50,110,0
4,55,110,0
4,47,0,160
4,50,0,0
4,55,0,0
4,55,110,32
4,55,0,94
4,54,110,2
4,54,0,142
4,49,110,2
4,49,0,46
4,54,110,2
4,54,0,94
4,42,110,2
4,47,110,0
4,50,110,0
4,42,0,160
4,47,0,0
4,42,110,128
4,47,110,0
4,50,0,94
4,50,110,2
4,42,0,94
4,47,0,0
4,50,0,0
4,54,110,2
4,54,0,94
4,40,110,2
4,43,110,0
4,47,110,0
4,40,0,160
4,43,0,0
4,47,0,0
4,50,110,32
4,50,0,94
