track,note,velocity,time
3,59,110,2208
3,59,0,94
3,64,110,2
3,64,0,94
3,67,110,2
3,67,0,94
3,64,110,2
3,64,0,94
3,62,110,2
3,62,0,94
3,64,110,2
3,64,0,94
3,66,110,2
3,66,0,94
3,64,110,2
3,64,0,336
3,59,110,144
3,59,0,94
3,64,110,2
3,64,0,94
3,67,110,2
3,67,0,94
3,66,110,2
3,66,0,94
3,62,110,2
3,62,0,94
3,64,110,2
3,64,0,94
3,66,110,2
3,66,0,94
3,64,110,2
3,64,0,160
3,64,110,32
3,64,0,160
3,64,110,128
3,64,0,94
3,62,110,2
3,62,0,94
3,66,110,2
3,66,0,94
3,62,110,2
3,62,0,94
3,60,110,2
3,60,0,94
3,55,110,2
3,55,0,94
3,60,110,2
3,60,0,94
3,62,110,2
3,62,0,256
3,59,110,32
3,59,0,94
3,60,110,2
3,60,0,94
3,62,110,2
3,62,0,94
3,64,110,2
3,64,0,160
3,59,110,32
3,59,0,94
3,62,110,2
3,62,0,160
3,66,110,32
3,66,0,94
3,64,110,2
3,64,0,160
3,64,110,32
3,64,0,160
3,59,110,128
3,59,0,94
3,64,110,2
3,64,0,94
3,67,110,2
3,67,0,94
3,64,110,2
3,64,0,94
3,62,110,2
3,62,0,94
3,64,110,2
3,64,0,94
3,66,110,2
3,66,0,94
3,64,110,2
3,64,0,160
3,64,110,32
3,64,0,160
3,59,110,128
3,59,0,94
3,64,110,2
3,64,0,94
3,66,110,2
3,66,0,94
3,67,110,2
3,67,0,94
3,66,110,2
3,66,0,94
3,62,110,2
3,62,0,94
3,66,110,2
3,66,0,94
3,64,110,2
3,64,0,256
3,64,110,128
3,64,0,94
3,64,110,2
3,64,0,94
3,62,110,2
3,62,0,160
3,62,110,32
3,62,0,94
3,60,110,2
3,60,0,94
3,64,110,2
3,64,0,94
3,67,110,2
3,67,0,94
3,62,110,2
3,62,0,160
3,62,110,32
3,62,0,94
3,59,110,2
3,59,0,94
3,60,110,2
3,60,0,94
3,62,110,2
3,62,0,94
3,64,110,2
3,64,0,160
3,59,110,32
3,59,0,94
3,62,110,2
3,62,0,160
3,66,110,32
3,66,0,94
3,64,110,2
3,64,0,336
3,59,110,144
3,59,0,94
3,64,110,2
3,64,0,94
3,67,110,2
3,67,0,94
3,64,110,2
3,64,0,94
3,62,110,2
3,62,0,94
3,64,110,2
3,64,0,94
3,66,110,2
3,66,0,94
3,64,110,2
3,64,0,336
3,59,110,144
3,59,0,94
3,64,110,2
3,64,0,94
3,67,110,2
3,67,0,94
3,66,110,2
3,66,0,94
3,62,110,2
3,62,0,94
3,64,110,2
3,64,0,94
3,66,110,2
3,66,0,94
3,64,110,2
3,64,0,160
3,64,110,32
3,64,0,160
3,64,110,128
3,64,0,94
3,62,110,2
3,62,0,94
3,66,110,2
3,66,0,94
3,62,110,2
3,62,0,94
3,60,110,2
3,60,0,94
3,55,110,2
3,55,0,94
3,60,110,2
3,60,0,94
3,62,110,2
3,62,0,256
3,59,110,32
3,59,0,94
3,60,110,2
3,60,0,94
3,62,110,2
3,62,0,94
3,64,110,2
3,64,0,160
3,59,110,32
3,59,0,94
3,62,110,2
3,62,0,160
3,66,110,32
3,66,0,94
3,64,110,2
3,64,0,160
3,64,110,32
3,64,0,160
3,59,110,128
3,59,0,94
3,64,110,2
3,64,0,94
3,67,110,2
3,67,0,94
3,64,110,2
3,64,0,94
3,62,110,2
3,62,0,94
3,64,110,2
3,64,0,94
3,66,110,2
3,66,0,94
3,64,110,2
3,64,0,160
3,64,110,32
3,64,0,160
3,59,110,128
3,59,0,94
3,64,110,2
3,64,0,94
3,66,110,2
3,66,0,94
3,67,110,2
3,67,0,94
3,66,110,2
3,66,0,94
3,62,110,2
3,62,0,94
3,66,110,2
3,66,0,94
3,64,110,2
3,64,0,256
3,64,110,128
3,64,0,94
3,64,110,2
3,64,0,94
3,62,110,2
3,62,0,160
3,62,110,32
3,62,0,94
3,60,110,2
3,60,0,94
3,64,110,2
3,64,0,94
3,67,110,2
3,67,0,94
3,62,110,2
3,62,0,160
3,62,110,32
3,62,0,94
3,59,110,2
3,59,0,94
3,60,110,2
3,60,0,94
3,62,110,2
3,62,0,94
3,64,110,2
3,64,0,160
3,59,110,32
3,59,0,94
3,62,110,2
3,62,0,160
3,66,110,32
3,66,0,94
3,64,110,2
3,64,0,336
3,59,110,144
3,59,0,94
3,64,110,2
3,64,0,94
3,67,110,2
3,67,0,94
3,64,110,2
3,64,0,94
3,62,110,2
3,62,0,94
3,64,110,2
3,64,0,94
3,66,110,2
3,66,0,94
3,64,110,2
3,64,0,336
3,59,110,144
3,59,0,94
3,64,110,2
3,64,0,94
3,67,110,2
3,67,0,94
3,66,110,2
3,66,0,94
3,62,110,2
3,62,0,94
3,64,110,2
3,64,0,94
3,66,110,2
3,66,0,94
3,64,110,2
3,64,0,160
3,64,110,32
3,64,0,160
3,64,110,128
3,64,0,94
3,62,110,2
3,62,0,94
3,66,110,2
3,66,0,94
3,62,110,2
3,62,0,94
3,60,110,2
3,60,0,94
3,55,110,2
3,55,0,94
3,60,110,2
3,60,0,94
3,62,110,2
3,62,0,256
3,59,110,32
3,59,0,94
3,60,110,2
3,60,0,94
3,62,110,2
3,62,0,94
3,64,110,2
3,64,0,160
3,59,110,32
3,59,0,94
3,62,110,2
3,62,0,160
3,66,110,32
3,66,0,94
3,64,110,2
3,64,0,160
3,64,110,32
3,64,0,160
3,59,110,128
3,59,0,94
3,64,110,2
3,64,0,94
3,67,110,2
3,67,0,94
3,64,110,2
3,64,0,94
3,62,110,2
3,62,0,94
3,64,110,2
3,64,0,94
3,66,110,2
3,66,0,94
3,64,110,2
3,64,0,160
3,64,110,32
3,64,0,160
3,59,110,128
3,59,0,94
3,64,110,2
3,64,0,94
3,66,110,2
3,66,0,94
3,67,110,2
3,67,0,94
3,66,110,2
3,66,0,94
3,62,110,2
3,62,0,94
3,66,110,2
3,66,0,94
3,64,110,2
3,64,0,256
3,64,110,128
3,64,0,94
3,64,110,2
3,64,0,94
3,62,110,2
3,62,0,160
3,62,110,32
3,62,0,94
3,60,110,2
3,60,0,94
3,64,110,2
3,64,0,94
3,67,110,2
3,67,0,94
3,62,110,2
3,62,0,160
3,62,110,32
3,62,0,94
3,59,110,2
3,59,0,94
3,60,110,2
3,60,0,94
3,62,110,2
3,62,0,94
3,64,110,2
3,64,0,160
3,59,110,32
3,59,0,94
3,62,110,2
3,62,0,160
3,66,110,32
3,66,0,94
3,64,110,2
3,64,0,336
3,59,110,144
3,59,0,94
3,64,110,2
3,64,0,94
3,66,110,2
3,66,0,94
3,64,110,2
3,64,0,94
3,62,110,2
3,62,0,94
3,64,110,2
3,64,0,94
3,66,110,2
3,66,0,94
3,64,110,2
3,64,0,160
3,64,110,32
3,64,0,256
3,62,110,32
3,62,0,94
3,64,110,2
3,64,0,94
3,66,110,2
3,66,0,94
3,67,110,2
3,67,0,94
3,66,110,2
3,66,0,94
3,62,110,2
3,62,0,94
3,66,110,2
3,66,0,94
3,64,110,2
3,64,0,336
3,64,110,144
3,64,0,94
3,62,110,2
3,62,0,94
3,66,110,2
3,66,0,94
3,69,110,2
3,69,0,94
3,60,110,2
3,60,0,94
3,64,110,2
3,64,0,94
3,67,110,2
3,67,0,94
3,62,110,2
3,62,0,160
3,62,110,32
3,62,0,94
3,59,110,2
3,59,0,94
3,60,110,2
3,60,0,94
3,62,110,2
3,62,0,94
3,64,110,2
3,64,0,160
3,59,110,32
3,59,0,94
3,62,110,2
3,62,0,160
3,66,110,32
3,66,0,94
3,64,110,2
3,64,0,256
4,52,110,0
4,55,110,12
4,59,110,12
4,64,110,12
4,64,0,538
4,52,0,0
4,55,0,0
4,59,0,0
4,52,110,2
4,55,110,12
4,59,110,12
4,64,110,12
4,64,0,538
4,52,0,0
4,55,0,0
4,59,0,0
4,52,110,2
4,55,110,12
4,59,110,12
4,64,110,12
4,64,0,538
4,52,0,0
4,55,0,0
4,59,0,0
4,52,110,2
4,55,110,12
4,59,110,12
4,64,110,12
4,64,0,538
4,52,0,0
4,55,0,0
4,59,0,0
4,52,110,2
4,55,110,12
4,59,110,12
4,64,110,12
4,64,0,250
4,52,0,0
4,55,0,0
4,59,0,0
4,50,110,2
4,54,110,12
4,57,110,12
4,62,110,12
4,62,0,250
4,50,0,0
4,54,0,0
4,57,0,0
4,52,110,2
4,55,110,12
4,59,110,12
4,64,110,12
4,64,0,250
4,52,0,0
4,55,0,0
4,59,0,0
4,52,110,2
4,55,110,12
4,59,110,12
4,64,110,12
4,64,0,250
4,52,0,0
4,55,0,0
4,59,0,0
4,52,110,2
4,55,110,12
4,59,110,12
4,64,110,12
4,64,0,250
4,52,0,0
4,55,0,0
4,59,0,0
4,50,110,2
4,54,110,12
4,57,110,12
4,62,110,12
4,62,0,250
4,50,0,0
4,54,0,0
4,57,0,0
4,52,110,2
4,55,110,12
4,59,110,12
4,64,110,12
4,64,0,250
4,52,0,0
4,55,0,0
4,59,0,0
4,52,110,2
4,55,110,12
4,59,110,12
4,64,110,12
4,64,0,250
4,52,0,0
4,55,0,0
4,59,0,0
4,50,110,2
4,54,110,12
4,57,110,12
4,62,110,12
4,62,0,250
4,50,0,0
4,54,0,0
4,57,0,0
4,48,110,2
4,52,110,12
4,55,110,12
4,60,110,12
4,60,0,250
4,48,0,0
4,52,0,0
4,55,0,0
4,50,110,2
4,54,110,12
4,57,110,12
4,62,110,12
4,62,0,250
4,50,0,0
4,54,0,0
4,57,0,0
4,47,110,2
4,50,110,12
4,54,110,12
4,59,110,12
4,59,0,250
4,47,0,0
4,50,0,0
4,54,0,0
4,52,110,2
4,55,110,12
4,59,110,12
4,64,110,12
4,64,0,250
4,52,0,0
4,55,0,0
4,59,0,0
4,50,110,2
4,54,110,12
4,57,110,12
4,62,110,12
4,62,0,250
4,50,0,0
4,54,0,0
4,57,0,0
4,52,110,2
4,55,110,12
4,59,110,12
4,64,110,12
4,64,0,250
4,52,0,0
4,55,0,0
4,59,0,0
4,52,110,2
4,55,110,12
4,59,110,12
4,64,110,12
4,64,0,250
4,52,0,0
4,55,0,0
4,59,0,0
4,52,110,2
4,55,110,12
4,59,110,12
4,64,110,12
4,64,0,250
4,52,0,0
4,55,0,0
4,59,0,0
4,50,110,2
4,54,110,12
4,57,110,12
4,62,110,12
4,62,0,250
4,50,0,0
4,54,0,0
4,57,0,0
4,52,110,2
4,55,110,12
4,59,110,12
4,64,110,12
4,64,0,250
4,52,0,0
4,55,0,0
4,59,0,0
4,52,110,2
4,55,110,12
4,59,110,12
4,64,110,12
4,64,0,250
4,52,0,0
4,55,0,0
4,59,0,0
4,52,110,2
4,55,110,12
4,59,110,12
4,64,110,12
4,64,0,250
4,52,0,0
4,55,0,0
4,59,0,0
4,50,110,2
4,54,110,12
4,57,110,12
4,62,110,12
4,62,0,250
4,50,0,0
4,54,0,0
4,57,0,0
4,52,110,2
4,55,110,12
4,59,110,12
4,64,110,12
4,64,0,250
4,52,0,0
4,55,0,0
4,59,0,0
4,52,110,2
4,55,110,12
4,59,110,12
4,64,110,12
4,64,0,250
4,52,0,0
4,55,0,0
4,59,0,0
4,50,110,2
4,54,110,12
4,57,110,12
4,62,110,12
4,62,0,250
4,50,0,0
4,54,0,0
4,57,0,0
4,48,110,2
4,52,110,12
4,55,110,12
4,60,110,12
4,60,0,250
4,48,0,0
4,52,0,0
4,55,0,0
4,50,110,2
4,54,110,12
4,57,110,12
4,62,110,12
4,62,0,250
4,50,0,0
4,54,0,0
4,57,0,0
4,47,110,2
4,50,110,12
4,54,110,12
4,59,110,12
4,59,0,250
4,47,0,0
4,50,0,0
4,54,0,0
4,52,110,2
4,55,110,12
4,59,110,12
4,64,110,12
4,64,0,250
4,52,0,0
4,55,0,0
4,59,0,0
4,50,110,2
4,54,110,12
4,57,110,12
4,62,110,12
4,62,0,250
4,50,0,0
4,54,0,0
4,57,0,0
4,52,110,2
4,55,110,12
4,59,110,12
4,64,110,12
4,64,0,250
4,52,0,0
4,55,0,0
4,59,0,0
4,52,110,2
4,55,110,12
4,59,110,12
4,64,110,12
4,64,0,250
4,52,0,0
4,55,0,0
4,59,0,0
4,52,110,2
4,55,110,12
4,59,110,12
4,64,110,12
4,64,0,250
4,52,0,0
4,55,0,0
4,59,0,0
4,50,110,2
4,54,110,12
4,57,110,12
4,62,110,12
4,62,0,250
4,50,0,0
4,54,0,0
4,57,0,0
4,52,110,2
4,55,110,12
4,59,110,12
4,64,110,12
4,64,0,250
4,52,0,0
4,55,0,0
4,59,0,0
4,52,110,2
4,55,110,12
4,59,110,12
4,64,110,12
4,64,0,250
4,52,0,0
4,55,0,0
4,59,0,0
4,52,110,2
4,55,110,12
4,59,110,12
4,64,110,12
4,64,0,250
4,52,0,0
4,55,0,0
4,59,0,0
4,50,110,2
4,54,110,12
4,57,110,12
4,62,110,12
4,62,0,250
4,50,0,0
4,54,0,0
4,57,0,0
4,52,110,2
4,55,110,12
4,59,110,12
4,64,110,12
4,64,0,250
4,52,0,0
4,55,0,0
4,59,0,0
4,52,110,2
4,55,110,12
4,59,110,12
4,64,110,12
4,64,0,250
4,52,0,0
4,55,0,0
4,59,0,0
4,50,110,2
4,54,110,12
4,57,110,12
4,62,110,12
4,62,0,250
4,50,0,0
4,54,0,0
4,57,0,0
4,48,110,2
4,52,110,12
4,55,110,12
4,60,110,12
4,60,0,250
4,48,0,0
4,52,0,0
4,55,0,0
4,50,110,2
4,54,110,12
4,57,110,12
4,62,110,12
4,62,0,250
4,50,0,0
4,54,0,0
4,57,0,0
4,47,110,2
4,50,110,12
4,54,110,12
4,59,110,12
4,59,0,250
4,47,0,0
4,50,0,0
4,54,0,0
4,52,110,2
4,55,110,12
4,59,110,12
4,64,110,12
4,64,0,250
4,52,0,0
4,55,0,0
4,59,0,0
4,50,110,2
4,54,110,12
4,57,110,12
4,62,110,12
4,62,0,250
4,50,0,0
4,54,0,0
4,57,0,0
4,52,110,2
4,55,110,12
4,59,110,12
4,64,110,12
4,64,0,250
4,52,0,0
4,55,0,0
4,59,0,0
4,52,110,2
4,55,110,12
4,59,110,12
4,64,110,12
4,64,0,250
4,52,0,0
4,55,0,0
4,59,0,0
4,52,110,2
4,55,110,12
4,59,110,12
4,64,110,12
4,64,0,250
4,52,0,0
4,55,0,0
4,59,0,0
4,50,110,2
4,54,110,12
4,57,110,12
4,62,110,12
4,62,0,250
4,50,0,0
4,54,0,0
4,57,0,0
4,52,110,2
4,55,110,12
4,59,110,12
4,64,110,12
4,64,0,250
4,52,0,0
4,55,0,0
4,59,0,0
4,52,110,2
4,55,110,12
4,59,110,12
4,64,110,12
4,64,0,250
4,52,0,0
4,55,0,0
4,59,0,0
4,52,110,2
4,55,110,12
4,59,110,12
4,64,110,12
4,64,0,250
4,52,0,0
4,55,0,0
4,59,0,0
4,50,110,2
4,54,110,12
4,57,110,12
4,62,110,12
4,62,0,250
4,50,0,0
4,54,0,0
4,57,0,0
4,52,110,2
4,55,110,12
4,59,110,12
4,64,110,12
4,64,0,250
4,52,0,0
4,55,0,0
4,59,0,0
4,52,110,2
4,55,110,12
4,59,110,12
4,64,110,12
4,64,0,250
4,52,0,0
4,55,0,0
4,59,0,0
4,50,110,2
4,54,110,12
4,57,110,12
4,62,110,12
4,62,0,250
4,50,0,0
4,54,0,0
4,57,0,0
4,48,110,2
4,52,110,12
4,55,110,12
4,60,110,12
4,60,0,250
4,48,0,0
4,52,0,0
4,55,0,0
4,50,110,2
4,54,110,12
4,57,110,12
4,62,110,12
4,62,0,250
4,50,0,0
4,54,0,0
4,57,0,0
4,47,110,2
4,50,110,12
4,54,110,12
4,59,110,12
4,59,0,250
4,47,0,0
4,50,0,0
4,54,0,0
4,52,110,2
4,55,110,12
4,59,110,12
4,64,110,12
4,64,0,250
4,52,0,0
4,55,0,0
4,59,0,0
4,50,110,2
4,54,110,12
4,57,110,12
4,62,110,12
