track,note,velocity,time
3,60,110,3072
3,60,110,4
3,61,110,4
3,63,110,4
3,61,110,4
3,60,110,4
3,61,110,4
3,63,110,4
3,61,110,4
3,60,110,4
3,61,110,4
3,63,110,4
3,63,110,64
3,60,110,256
3,63,110,4
3,65,110,4
3,67,110,4
3,65,110,4
3,63,110,4
3,65,110,4
3,67,110,4
3,65,110,4
3,63,110,4
3,65,110,4
3,67,110,4
3,67,110,64
3,63,110,4
3,65,110,4
3,67,110,4
3,68,110,4
3,68,110,4
3,67,110,4
3,65,110,4
3,68,110,4
3,72,110,4
3,71,110,4
3,68,110,4
3,67,110,4
3,63,110,0
3,67,110,4
3,63,110,4
3,65,110,4
3,67,110,4
3,68,110,4
3,65,110,4
3,63,110,4
3,61,110,4
3,68,110,4
3,65,110,4
3,63,110,4
3,61,110,4
3,60,110,4
3,58,110,0
3,56,110,0
3,58,110,0
3,56,110,4
3,60,110,4
3,60,110,4
3,61,110,4
3,63,110,4
3,61,110,4
3,60,110,4
3,61,110,4
3,63,110,4
3,61,110,4
3,60,110,4
3,61,110,4
3,63,110,4
3,63,110,64
3,60,110,256
3,63,110,4
3,65,110,4
3,67,110,4
3,65,110,4
3,63,110,4
3,65,110,4
3,67,110,4
3,65,110,4
3,63,110,4
3,65,110,4
3,67,110,4
3,67,110,64
3,63,110,4
3,65,110,4
3,67,110,4
3,68,110,4
3,68,110,4
3,67,110,4
3,65,110,4
3,68,110,4
3,72,110,4
3,71,110,4
3,68,110,4
3,67,110,4
3,63,110,0
3,67,110,4
3,63,110,4
3,65,110,4
3,67,110,4
3,68,110,4
3,65,110,4
3,63,110,4
3,61,110,4
3,68,110,4
3,65,110,4
3,63,110,4
3,61,110,4
3,60,110,4
3,58,110,0
3,56,110,0
3,58,110,0
3,56,110,4
3,60,110,4
3,60,110,4
3,61,110,4
3,63,110,4
3,61,110,4
3,60,110,4
3,61,110,4
3,63,110,4
3,61,110,4
3,60,110,4
3,61,110,4
3,63,110,4
3,63,110,64
3,60,110,256
3,63,110,4
3,65,110,4
3,67,110,4
3,65,110,4
3,63,110,4
3,65,110,4
3,67,110,4
3,65,110,4
3,63,110,4
3,65,110,4
3,67,110,4
3,67,110,64
3,63,110,4
3,65,110,4
3,67,110,4
3,68,110,4
3,68,110,4
3,67,110,4
3,65,110,4
3,68,110,4
3,72,110,4
3,71,110,4
3,68,110,4
3,67,110,4
3,63,110,0
3,67,110,4
3,63,110,4
3,65,110,4
3,67,110,4
3,68,110,4
3,65,110,4
3,63,110,4
3,61,110,4
3,68,110,4
3,65,110,4
3,63,110,4
3,61,110,4
3,60,110,4
3,58,110,0
3,56,110,0
3,58,110,0
3,56,110,4
3,60,110,4
3,60,110,4
3,61,110,4
3,63,110,4
3,61,110,4
3,60,110,4
3,61,110,4
3,63,110,4
3,61,110,4
3,60,110,4
3,61,110,4
3,63,110,4
3,63,110,64
3,60,110,256
3,63,110,4
3,65,110,4
3,67,110,4
3,65,110,4
3,63,110,4
3,65,110,4
3,67,110,4
3,65,110,4
3,63,110,4
3,65,110,4
3,67,110,4
3,67,110,64
3,63,110,4
3,65,110,4
3,67,110,4
3,68,110,4
3,68,110,4
3,67,110,4
3,65,110,4
3,68,110,4
3,72,110,4
3,71,110,4
3,68,110,4
3,67,110,4
3,63,110,0
3,67,110,4
3,63,110,4
3,65,110,4
3,67,110,4
3,68,110,4
3,65,110,4
3,63,110,4
3,61,110,4
3,68,110,4
3,65,110,4
3,63,110,4
3,61,110,4
3,60,110,4
3,58,110,0
3,56,110,0
3,58,110,0
3,56,110,4
3,60,110,4
3,60,110,4
3,61,110,4
3,63,110,4
3,61,110,4
3,60,110,4
3,61,110,4
3,63,110,4
3,61,110,4
3,60,110,4
3,61,110,4
3,63,110,4
3,63,110,64
3,60,110,256
3,63,110,4
3,65,110,4
3,67,110,4
3,65,110,4
3,63,110,4
3,65,110,4
3,67,110,4
3,65,110,4
3,63,110,4
3,65,110,4
3,67,110,4
3,67,110,64
3,63,110,4
3,65,110,4
3,67,110,4
3,68,110,4
3,68,110,4
3,67,110,4
3,65,110,4
3,68,110,4
3,72,110,4
3,71,110,4
3,68,110,4
3,67,110,4
3,63,110,0
3,67,110,4
3,63,110,4
3,65,110,4
3,67,110,4
3,68,110,4
3,65,110,4
3,63,110,4
3,61,110,4
3,68,110,4
3,65,110,4
3,63,110,4
3,61,110,4
3,60,110,4
3,58,110,0
3,56,110,0
3,58,110,0
3,56,110,4
3,62,110,288
3,62,110,4
3,62,110,4
3,65,110,4
3,63,110,4
3,62,110,4
3,63,110,4
3,65,110,4
3,63,110,4
3,62,110,4
3,63,110,4
3,65,110,4
3,65,110,64
3,62,110,256
3,65,110,4
3,67,110,4
3,69,110,4
3,67,110,4
3,65,110,4
3,67,110,4
3,69,110,4
3,67,110,4
3,65,110,4
3,67,110,4
3,69,110,4
3,69,110,64
3,65,110,4
3,67,110,4
3,69,110,4
3,70,110,4
3,70,110,4
3,69,110,4
3,67,110,4
3,70,110,4
3,74,110,4
3,73,110,4
3,74,110,4
3,69,110,4
3,65,110,0
3,69,110,4
3,65,110,4
3,67,110,4
3,69,110,4
3,70,110,4
3,67,110,4
3,65,110,4
3,63,110,4
3,70,110,4
3,67,110,4
3,65,110,4
3,63,110,4
3,62,110,4
3,60,110,0
3,58,110,0
3,60,110,0
3,58,110,4
3,62,110,4
3,63,110,4
3,65,110,4
3,65,110,4
3,63,110,4
3,62,110,4
3,63,110,4
3,65,110,4
3,63,110,4
3,62,110,4
3,63,110,4
3,65,110,4
3,65,110,64
3,62,110,256
3,65,110,4
3,67,110,4
3,69,110,4
3,67,110,4
3,65,110,4
3,67,110,4
3,69,110,4
3,67,110,4
3,65,110,4
3,67,110,4
3,69,110,4
3,69,110,64
3,65,110,4
3,67,110,4
3,69,110,4
3,70,110,4
3,70,110,4
3,69,110,4
3,67,110,4
3,70,110,4
3,74,110,4
3,73,110,4
3,74,110,4
3,69,110,4
3,65,110,0
3,69,110,4
3,65,110,4
3,67,110,4
3,69,110,4
3,70,110,4
3,67,110,4
3,65,110,4
3,63,110,4
3,70,110,4
3,67,110,4
3,65,110,4
3,63,110,4
3,62,110,4
3,60,110,0
3,58,110,0
3,60,110,0
3,58,110,4
3,62,110,4
3,63,110,4
3,65,110,4
3,65,110,4
3,63,110,4
3,62,110,4
3,63,110,4
3,65,110,4
3,63,110,4
3,62,110,4
3,63,110,4
3,65,110,4
3,65,110,64
3,62,110,256
3,65,110,4
3,67,110,4
3,69,110,4
3,67,110,4
3,65,110,4
3,67,110,4
3,69,110,4
3,67,110,4
3,65,110,4
3,67,110,4
3,69,110,4
3,69,110,64
3,65,110,4
3,67,110,4
3,69,110,4
3,70,110,4
3,70,110,4
3,69,110,4
3,67,110,4
3,70,110,4
3,74,110,4
3,73,110,4
3,74,110,4
3,69,110,4
3,65,110,0
3,69,110,4
3,65,110,4
3,67,110,4
3,69,110,4
3,70,110,4
3,67,110,4
3,65,110,4
3,63,110,4
3,70,110,4
3,67,110,4
3,65,110,4
3,63,110,4
3,62,110,4
3,60,110,0
3,58,110,0
3,60,110,0
3,58,110,4
3,62,110,4
3,63,110,4
3,65,110,4
3,65,110,4
3,63,110,4
3,62,110,4
3,63,110,4
3,65,110,4
3,63,110,4
3,62,110,4
3,63,110,4
3,65,110,4
3,65,110,64
3,62,110,256
3,65,110,4
3,67,110,4
3,69,110,4
3,67,110,4
3,65,110,4
3,67,110,4
3,69,110,4
3,67,110,4
3,65,110,4
3,67,110,4
3,69,110,4
3,69,110,64
3,65,110,4
3,67,110,4
3,69,110,4
3,70,110,4
3,70,110,4
3,69,110,4
3,67,110,4
3,70,110,4
3,74,110,4
3,73,110,4
3,74,110,4
3,69,110,4
3,65,110,0
3,69,110,4
3,65,110,4
3,67,110,4
3,69,110,4
3,70,110,4
3,67,110,4
3,65,110,4
3,63,110,4
3,70,110,4
3,67,110,4
3,65,110,4
3,63,110,4
3,62,110,4
3,60,110,0
3,58,110,0
3,60,110,0
3,58,110,4
4,60,110,0
4,60,110,4
4,61,110,4
4,56,110,4
4,60,110,0
4,63,110,0
4,61,110,4
4,60,110,4
4,61,110,4
4,56,110,4
4,60,110,0
4,63,110,0
4,65,110,4
4,56,110,4
4,63,110,0
4,67,110,0
4,68,110,4
4,60,110,4
4,63,110,0
4,68,110,0
4,70,110,0
4,58,110,64
4,62,110,0
4,68,110,0
4,70,110,0
4,55,110,64
4,58,110,0
4,61,110,0
4,63,110,0
4,56,110,772
4,60,110,0
4,63,110,0
4,55,110,196
4,61,110,0
4,63,110,0
4,56,110,196
4,60,110,0
4,63,110,0
4,55,110,196
4,61,110,0
4,63,110,0
4,56,110,196
4,60,110,0
4,63,110,0
4,56,110,196
4,60,110,0
4,63,110,0
4,56,110,196
4,60,110,0
4,63,110,0
4,59,110,196
4,65,110,0
4,67,110,0
4,60,110,196
4,63,110,0
4,67,110,0
4,59,110,196
4,65,110,0
4,67,110,0
4,60,110,196
4,63,110,0
4,67,110,0
4,59,110,196
4,65,110,0
4,67,110,0
4,60,110,196
4,63,110,0
4,67,110,0
4,60,110,196
4,63,110,0
4,67,110,0
4,60,110,196
4,63,110,0
4,67,110,0
4,60,110,196
4,63,110,0
4,67,110,0
4,59,110,196
4,62,110,0
4,65,110,0
4,68,110,0
4,59,110,196
4,62,110,0
4,65,110,0
4,68,110,0
4,59,110,196
4,62,110,0
4,65,110,0
4,68,110,0
4,59,110,196
4,62,110,0
4,65,110,0
4,68,110,0
4,55,110,196
4,60,110,0
4,63,110,0
4,67,110,0
4,55,110,196
4,60,110,0
4,63,110,0
4,67,110,0
4,55,110,196
4,60,110,0
4,63,110,0
4,55,110,196
4,63,110,0
4,67,110,0
4,56,110,196
4,61,110,0
4,65,110,0
4,56,110,196
4,61,110,0
4,65,110,0
4,56,110,196
4,61,110,0
4,65,110,0
4,56,110,196
4,61,110,0
4,65,110,0
4,56,110,196
4,60,110,0
4,63,110,0
4,56,110,196
4,60,110,0
4,63,110,0
4,55,110,4
4,61,110,0
4,63,110,0
4,56,110,4
4,61,110,0
4,65,110,0
4,55,110,4
4,61,110,0
4,63,110,0
4,56,110,196
4,60,110,0
4,63,110,0
4,56,110,196
4,60,110,0
4,63,110,0
4,56,110,196
4,60,110,0
4,63,110,0
4,55,110,196
4,61,110,0
4,63,110,0
4,56,110,196
4,60,110,0
4,63,110,0
4,55,110,196
4,61,110,0
4,63,110,0
4,56,110,196
4,60,110,0
4,63,110,0
4,55,110,196
4,61,110,0
4,63,110,0
4,56,110,196
4,60,110,0
4,63,110,0
4,56,110,196
4,60,110,0
4,63,110,0
4,56,110,196
4,60,110,0
4,63,110,0
4,59,110,196
4,65,110,0
4,67,110,0
4,60,110,196
4,63,110,0
4,67,110,0
4,59,110,196
4,65,110,0
4,67,110,0
4,60,110,196
4,63,110,0
4,67,110,0
4,59,110,196
4,65,110,0
4,67,110,0
4,60,110,196
4,63,110,0
4,67,110,0
4,60,110,196
4,63,110,0
4,67,110,0
4,60,110,196
4,63,110,0
4,67,110,0
4,60,110,196
4,63,110,0
4,67,110,0
4,59,110,196
4,62,110,0
4,65,110,0
4,68,110,0
4,59,110,196
4,62,110,0
4,65,110,0
4,68,110,0
4,59,110,196
4,62,110,0
4,65,110,0
4,68,110,0
4,59,110,196
4,62,110,0
4,65,110,0
4,68,110,0
4,55,110,196
4,60,110,0
4,63,110,0
4,67,110,0
4,55,110,196
4,60,110,0
4,63,110,0
4,67,110,0
4,55,110,196
4,60,110,0
4,63,110,0
4,55,110,196
4,63,110,0
4,67,110,0
4,56,110,196
4,61,110,0
4,65,110,0
4,56,110,196
4,61,110,0
4,65,110,0
4,56,110,196
4,61,110,0
4,65,110,0
4,56,110,196
4,61,110,0
4,65,110,0
4,56,110,196
4,60,110,0
4,63,110,0
4,56,110,196
4,60,110,0
4,63,110,0
4,55,110,4
4,61,110,0
4,63,110,0
4,56,110,4
4,61,110,0
4,65,110,0
4,55,110,4
4,61,110,0
4,63,110,0
4,56,110,196
4,60,110,0
4,63,110,0
4,56,110,196
4,60,110,0
4,63,110,0
4,56,110,196
4,60,110,0
4,63,110,0
4,55,110,196
4,61,110,0
4,63,110,0
4,56,110,196
4,60,110,0
4,63,110,0
4,55,110,196
4,61,110,0
4,63,110,0
4,56,110,196
4,60,110,0
4,63,110,0
4,55,110,196
4,61,110,0
4,63,110,0
4,56,110,196
4,60,110,0
4,63,110,0
4,56,110,196
4,60,110,0
4,63,110,0
4,56,110,196
4,60,110,0
4,63,110,0
4,59,110,196
4,65,110,0
4,67,110,0
4,60,110,196
4,63,110,0
4,67,110,0
4,59,110,196
4,65,110,0
4,67,110,0
4,60,110,196
4,63,110,0
4,67,110,0
4,59,110,196
4,65,110,0
4,67,110,0
4,60,110,196
4,63,110,0
4,67,110,0
4,60,110,196
4,63,110,0
4,67,110,0
4,60,110,196
4,63,110,0
4,67,110,0
4,60,110,196
4,63,110,0
4,67,110,0
4,59,110,196
4,62,110,0
4,65,110,0
4,68,110,0
4,59,110,196
4,62,110,0
4,65,110,0
4,68,110,0
4,59,110,196
4,62,110,0
4,65,110,0
4,68,110,0
4,59,110,196
4,62,110,0
4,65,110,0
4,68,110,0
4,55,110,196
4,60,110,0
4,63,110,0
4,67,110,0
4,55,110,196
4,60,110,0
4,63,110,0
4,67,110,0
4,55,110,196
4,60,110,0
4,63,110,0
4,55,110,196
4,63,110,0
4,67,110,0
4,56,110,196
4,61,110,0
4,65,110,0
4,56,110,196
4,61,110,0
4,65,110,0
4,56,110,196
4,61,110,0
4,65,110,0
4,56,110,196
4,61,110,0
4,65,110,0
4,56,110,196
4,60,110,0
4,63,110,0
4,56,110,196
4,60,110,0
4,63,110,0
4,55,110,4
4,61,110,0
4,63,110,0
4,56,110,4
4,61,110,0
4,65,110,0
4,55,110,4
4,61,110,0
4,63,110,0
4,56,110,196
4,60,110,0
4,63,110,0
4,56,110,196
4,60,110,0
4,63,110,0
4,56,110,196
4,60,110,0
4,63,110,0
4,55,110,196
4,61,110,0
4,63,110,0
4,56,110,196
4,60,110,0
4,63,110,0
4,55,110,196
4,61,110,0
4,63,110,0
4,56,110,196
4,60,110,0
4,63,110,0
4,55,110,196
4,61,110,0
4,63,110,0
4,56,110,196
4,60,110,0
4,63,110,0
4,56,110,196
4,60,110,0
4,63,110,0
4,56,110,196
4,60,110,0
4,63,110,0
4,59,110,196
4,65,110,0
4,67,110,0
4,60,110,196
4,63,110,0
4,67,110,0
4,59,110,196
4,65,110,0
4,67,110,0
4,60,110,196
4,63,110,0
4,67,110,0
4,59,110,196
4,65,110,0
4,67,110,0
4,60,110,196
4,63,110,0
4,67,110,0
4,60,110,196
4,63,110,0
4,67,110,0
4,60,110,196
4,63,110,0
4,67,110,0
4,60,110,196
4,63,110,0
4,67,110,0
4,59,110,196
4,62,110,0
4,65,110,0
4,68,110,0
4,59,110,196
4,62,110,0
4,65,110,0
4,68,110,0
4,59,110,196
4,62,110,0
4,65,110,0
4,68,110,0
4,59,110,196
4,62,110,0
4,65,110,0
4,68,110,0
4,55,110,196
4,60,110,0
4,63,110,0
4,67,110,0
4,55,110,196
4,60,110,0
4,63,110,0
4,67,110,0
4,55,110,196
4,60,110,0
4,63,110,0
4,55,110,196
4,63,110,0
4,67,110,0
4,56,110,196
4,61,110,0
4,65,110,0
4,56,110,196
4,61,110,0
4,65,110,0
4,56,110,196
4,61,110,0
4,65,110,0
4,56,110,196
4,61,110,0
4,65,110,0
4,56,110,196
4,60,110,0
4,63,110,0
4,56,110,196
4,60,110,0
4,63,110,0
4,55,110,4
4,61,110,0
4,63,110,0
4,56,110,4
4,61,110,0
4,65,110,0
4,55,110,4
4,61,110,0
4,63,110,0
4,56,110,196
4,60,110,0
4,63,110,0
4,56,110,196
4,60,110,0
4,63,110,0
4,56,110,196
4,60,110,0
4,63,110,0
4,55,110,196
4,61,110,0
