track,note,velocity,time
3,66,110,0
3,66,110,4
3,66,110,4
3,66,110,4
3,66,110,4
3,66,110,4
3,62,110,4
3,66,110,4
3,66,110,4
3,68,110,4
3,69,110,4
3,68,110,4
3,68,110,64
3,64,110,288
3,64,110,4
3,64,110,4
3,64,110,4
3,64,110,4
3,64,110,4
3,61,110,4
3,62,110,4
3,64,110,4
3,66,110,4
3,67,110,4
3,66,110,4
3,66,110,64
3,62,110,288
3,62,110,4
3,62,110,4
3,64,110,4
3,66,110,4
3,64,110,4
3,66,110,4
3,64,110,4
3,56,110,4
3,57,110,4
3,59,110,4
3,61,110,4
3,66,110,256
3,66,110,4
3,66,110,4
3,66,110,4
3,66,110,4
3,66,110,4
3,62,110,4
3,66,110,4
3,66,110,4
3,68,110,4
3,69,110,4
3,68,110,4
3,68,110,64
3,64,110,288
3,64,110,4
3,64,110,4
3,64,110,4
3,64,110,4
3,64,110,4
3,61,110,4
3,62,110,4
3,64,110,4
3,66,110,4
3,68,110,4
3,66,110,4
3,66,110,64
3,64,110,288
3,64,110,4
3,64,110,4
3,64,110,4
3,64,110,4
3,64,110,4
3,64,110,4
3,64,110,4
3,64,110,4
3,64,110,4
3,64,110,4
3,64,110,4
3,66,110,256
3,66,110,4
3,66,110,4
3,66,110,4
3,66,110,4
3,66,110,4
3,62,110,4
3,66,110,4
3,66,110,4
3,68,110,4
3,69,110,4
3,68,110,4
3,68,110,64
3,64,110,288
3,64,110,4
3,64,110,4
3,64,110,4
3,64,110,4
3,64,110,4
3,61,110,4
3,62,110,4
3,64,110,4
3,66,110,4
3,67,110,4
3,66,110,4
3,66,110,64
3,62,110,288
3,62,110,4
3,62,110,4
3,64,110,4
3,66,110,4
3,64,110,4
3,66,110,4
3,64,110,4
3,56,110,4
3,57,110,4
3,59,110,4
3,61,110,4
3,66,110,256
3,66,110,4
3,66,110,4
3,66,110,4
3,66,110,4
3,66,110,4
3,62,110,4
3,66,110,4
3,66,110,4
3,68,110,4
3,69,110,4
3,68,110,4
3,68,110,64
3,64,110,288
3,64,110,4
3,64,110,4
3,64,110,4
3,64,110,4
3,64,110,4
3,61,110,4
3,62,110,4
3,64,110,4
3,66,110,4
3,68,110,4
3,66,110,4
3,66,110,64
3,64,110,288
3,64,110,4
3,64,110,4
3,64,110,4
3,64,110,4
3,64,110,4
3,64,110,4
3,64,110,4
3,64,110,4
3,64,110,4
3,64,110,4
3,64,110,4
3,66,110,256
3,66,110,4
3,66,110,4
3,66,110,4
3,66,110,4
3,66,110,4
3,62,110,4
3,66,110,4
3,66,110,4
3,68,110,4
3,69,110,4
3,68,110,4
3,68,110,64
3,64,110,288
3,64,110,4
3,64,110,4
3,64,110,4
3,64,110,4
3,64,110,4
3,61,110,4
3,62,110,4
3,64,110,4
3,66,110,4
3,67,110,4
3,66,110,4
3,66,110,64
3,62,110,288
3,62,110,4
3,62,110,4
3,64,110,4
3,66,110,4
3,64,110,4
3,66,110,4
3,64,110,4
3,56,110,4
3,57,110,4
3,59,110,4
3,61,110,4
3,66,110,256
3,66,110,4
3,66,110,4
3,66,110,4
3,66,110,4
3,66,110,4
3,62,110,4
3,66,110,4
3,66,110,4
3,68,110,4
3,69,110,4
3,68,110,4
3,68,110,64
3,64,110,288
3,64,110,4
3,64,110,4
3,64,110,4
3,64,110,4
3,64,110,4
3,61,110,4
3,62,110,4
3,64,110,4
3,66,110,4
3,68,110,4
3,66,110,4
3,66,110,64
3,64,110,288
3,64,110,4
3,64,110,4
3,64,110,4
3,64,110,4
3,64,110,4
3,64,110,4
3,64,110,4
3,64,110,4
3,64,110,4
3,64,110,4
3,64,110,4
3,66,110,256
3,66,110,4
3,66,110,4
3,66,110,4
3,66,110,4
3,66,110,4
3,62,110,4
3,66,110,4
3,66,110,4
3,68,110,4
3,69,110,4
3,68,110,4
3,68,110,64
3,64,110,288
3,64,110,4
3,64,110,4
3,64,110,4
3,64,110,4
3,64,110,4
3,61,110,4
3,62,110,4
3,64,110,4
3,66,110,4
3,67,110,4
3,66,110,4
3,66,110,64
3,62,110,288
3,62,110,4
3,62,110,4
3,64,110,4
3,66,110,4
3,64,110,4
3,66,110,4
3,64,110,4
3,56,110,4
3,57,110,4
3,59,110,4
3,61,110,4
3,66,110,256
3,66,110,4
3,66,110,4
3,66,110,4
3,66,110,4
3,66,110,4
3,62,110,4
3,66,110,4
3,66,110,4
3,68,110,4
3,69,110,4
3,68,110,4
3,68,110,64
3,64,110,288
3,64,110,4
3,64,110,4
3,64,110,4
3,64,110,4
3,64,110,4
3,61,110,4
3,62,110,4
3,64,110,4
3,66,110,4
3,68,110,4
3,66,110,4
3,66,110,64
3,64,110,288
3,64,110,4
3,64,110,4
3,64,110,4
3,64,110,4
3,64,110,4
3,64,110,4
3,64,110,4
3,64,110,4
3,64,110,4
3,64,110,4
3,64,110,4
3,66,110,256
3,66,110,4
3,66,110,4
3,66,110,4
3,66,110,4
3,66,110,4
3,62,110,4
3,66,110,4
3,66,110,4
3,68,110,4
3,69,110,4
3,68,110,4
3,68,110,64
3,64,110,288
3,64,110,4
3,64,110,4
3,64,110,4
3,64,110,4
3,64,110,4
3,61,110,4
3,62,110,4
3,64,110,4
3,66,110,4
3,67,110,4
3,66,110,4
3,66,110,64
3,62,110,288
3,62,110,4
3,62,110,4
3,64,110,4
3,66,110,4
3,64,110,4
3,66,110,4
3,64,110,4
3,56,110,4
3,57,110,4
3,59,110,4
3,61,110,4
3,66,110,256
3,66,110,4
3,66,110,4
3,66,110,4
3,66,110,4
3,66,110,4
3,62,110,4
3,66,110,4
3,66,110,4
3,68,110,4
3,69,110,4
3,68,110,4
3,68,110,64
3,64,110,288
3,64,110,4
3,64,110,4
3,64,110,4
3,64,110,4
3,64,110,4
3,61,110,4
3,62,110,4
3,64,110,4
3,66,110,4
3,68,110,4
3,66,110,4
3,66,110,64
3,64,110,288
3,64,110,4
3,64,110,4
3,64,110,4
3,64,110,4
3,64,110,4
3,64,110,4
3,64,110,4
3,64,110,4
3,64,110,4
3,64,110,4
3,64,110,4
3,66,110,256
3,66,110,4
3,66,110,4
3,66,110,4
3,66,110,4
3,66,110,4
3,62,110,4
3,66,110,4
3,66,110,4
3,68,110,4
3,69,110,4
3,68,110,4
3,68,110,64
3,64,110,288
3,64,110,4
3,64,110,4
3,64,110,4
3,64,110,4
3,64,110,4
3,61,110,4
3,62,110,4
3,64,110,4
3,66,110,4
3,67,110,4
3,66,110,4
3,66,110,64
3,62,110,288
3,62,110,4
3,62,110,4
3,64,110,4
3,66,110,4
3,64,110,4
3,66,110,4
3,64,110,4
3,56,110,4
3,57,110,4
3,59,110,4
3,61,110,4
3,66,110,256
3,66,110,4
3,66,110,4
3,66,110,4
3,66,110,4
3,66,110,4
3,62,110,4
3,66,110,4
3,66,110,4
3,68,110,4
3,69,110,4
3,68,110,4
3,68,110,64
3,64,110,288
3,64,110,4
3,64,110,4
3,64,110,4
3,64,110,4
3,64,110,4
3,61,110,4
3,62,110,4
3,64,110,4
3,66,110,4
3,68,110,4
3,66,110,4
3,66,110,64
3,64,110,288
3,64,110,4
3,64,110,4
3,64,110,4
3,64,110,4
3,64,110,4
3,64,110,4
3,64,110,4
3,64,110,4
3,64,110,4
3,64,110,4
3,64,110,4
4,57,110,1152
4,62,110,4
4,66,110,4
4,62,110,4
4,57,110,4
4,56,110,196
4,61,110,4
4,64,110,4
4,61,110,4
4,56,110,4
4,55,110,196
4,59,110,4
4,64,110,4
4,59,110,4
4,55,110,4
4,55,110,196
4,59,110,4
4,64,110,4
4,59,110,4
4,55,110,4
4,61,110,196
4,64,110,4
4,70,110,4
4,64,110,4
4,61,110,4
4,62,110,196
4,64,110,4
4,68,110,4
4,64,110,4
4,62,110,4
4,62,110,196
4,64,110,4
4,68,110,4
4,64,110,4
4,62,110,4
4,61,110,4
4,69,110,0
4,57,110,4
4,58,110,4
4,56,110,4
4,59,110,0
4,60,110,4
4,61,110,4
4,54,110,4
4,62,110,0
4,57,110,4
4,62,110,4
4,66,110,4
4,62,110,4
4,57,110,4
4,57,110,196
4,62,110,4
4,66,110,4
4,62,110,4
4,57,110,4
4,56,110,196
4,61,110,4
4,64,110,4
4,61,110,4
4,56,110,4
4,55,110,196
4,59,110,4
4,64,110,4
4,59,110,4
4,55,110,4
4,55,110,196
4,59,110,4
4,64,110,4
4,59,110,4
4,55,110,4
4,61,110,196
4,64,110,4
4,70,110,4
4,64,110,4
4,61,110,4
4,62,110,196
4,64,110,4
4,68,110,4
4,64,110,4
4,62,110,4
4,62,110,196
4,64,110,4
4,68,110,4
4,64,110,4
4,62,110,4
4,61,110,4
4,69,110,0
4,57,110,4
4,58,110,4
4,56,110,4
4,59,110,0
4,60,110,128
4,61,110,4
4,54,110,4
4,62,110,0
4,57,110,4
4,62,110,4
4,66,110,4
4,62,110,4
4,57,110,4
4,57,110,196
4,62,110,4
4,66,110,4
4,62,110,4
4,57,110,4
4,56,110,196
4,61,110,4
4,64,110,4
4,61,110,4
4,56,110,4
4,55,110,196
4,59,110,4
4,64,110,4
4,59,110,4
4,55,110,4
4,55,110,196
4,59,110,4
4,64,110,4
4,59,110,4
4,55,110,4
4,61,110,196
4,64,110,4
4,70,110,4
4,64,110,4
4,61,110,4
4,62,110,196
4,64,110,4
4,68,110,4
4,64,110,4
4,62,110,4
4,62,110,196
4,64,110,4
4,68,110,4
4,64,110,4
4,62,110,4
4,61,110,4
4,69,110,0
4,57,110,4
4,58,110,4
4,56,110,4
4,59,110,0
4,60,110,4
4,61,110,4
4,54,110,4
4,62,110,0
4,57,110,4
4,62,110,4
4,66,110,4
4,62,110,4
4,57,110,4
4,57,110,196
4,62,110,4
4,66,110,4
4,62,110,4
4,57,110,4
4,56,110,196
4,61,110,4
4,64,110,4
4,61,110,4
4,56,110,4
4,55,110,196
4,59,110,4
4,64,110,4
4,59,110,4
4,55,110,4
4,55,110,196
4,59,110,4
4,64,110,4
4,59,110,4
4,55,110,4
4,61,110,196
4,64,110,4
4,70,110,4
4,64,110,4
4,61,110,4
4,62,110,196
4,64,110,4
4,68,110,4
4,64,110,4
4,62,110,4
4,62,110,196
4,64,110,4
4,68,110,4
4,64,110,4
4,62,110,4
4,61,110,4
4,69,110,0
4,57,110,4
4,58,110,4
4,56,110,4
4,59,110,0
4,60,110,128
4,61,110,4
4,54,110,4
4,62,110,0
4,57,110,4
4,62,110,4
4,66,110,4
4,62,110,4
4,57,110,4
4,57,110,196
4,62,110,4
4,66,110,4
4,62,110,4
4,57,110,4
4,56,110,196
4,61,110,4
4,64,110,4
4,61,110,4
4,56,110,4
4,55,110,196
4,59,110,4
4,64,110,4
4,59,110,4
4,55,110,4
4,55,110,196
4,59,110,4
4,64,110,4
4,59,110,4
4,55,110,4
4,61,110,196
4,64,110,4
4,70,110,4
4,64,110,4
4,61,110,4
4,62,110,196
4,64,110,4
4,68,110,4
4,64,110,4
4,62,110,4
4,62,110,196
4,64,110,4
4,68,110,4
4,64,110,4
4,62,110,4
4,61,110,4
4,69,110,0
4,57,110,4
4,58,110,4
4,56,110,4
4,59,110,0
4,60,110,4
4,61,110,4
4,54,110,4
4,62,110,0
4,57,110,4
4,62,110,4
4,66,110,4
4,62,110,4
4,57,110,4
4,57,110,196
4,62,110,4
4,66,110,4
4,62,110,4
4,57,110,4
4,56,110,196
4,61,110,4
4,64,110,4
4,61,110,4
4,56,110,4
4,55,110,196
4,59,110,4
4,64,110,4
4,59,110,4
4,55,110,4
4,55,110,196
4,59,110,4
4,64,110,4
4,59,110,4
4,55,110,4
4,61,110,196
4,64,110,4
4,70,110,4
4,64,110,4
4,61,110,4
4,62,110,196
4,64,110,4
4,68,110,4
4,64,110,4
4,62,110,4
4,62,110,196
4,64,110,4
4,68,110,4
4,64,110,4
4,62,110,4
4,61,110,4
4,69,110,0
4,57,110,4
4,58,110,4
4,56,110,4
4,59,110,0
4,60,110,128
4,61,110,4
4,54,110,4
4,62,110,0
4,57,110,4
4,62,110,4
4,66,110,4
4,62,110,4
4,57,110,4
4,57,110,196
4,62,110,4
4,66,110,4
4,62,110,4
4,57,110,4
4,56,110,196
4,61,110,4
4,64,110,4
4,61,110,4
4,56,110,4
4,55,110,196
4,59,110,4
4,64,110,4
4,59,110,4
4,55,110,4
4,55,110,196
4,59,110,4
4,64,110,4
4,59,110,4
4,55,110,4
4,61,110,196
4,64,110,4
4,70,110,4
4,64,110,4
4,61,110,4
4,62,110,196
4,64,110,4
4,68,110,4
4,64,110,4
4,62,110,4
4,62,110,196
4,64,110,4
4,68,110,4
4,64,110,4
4,62,110,4
4,61,110,4
4,69,110,0
4,57,110,4
4,58,110,4
4,56,110,4
4,59,110,0
4,60,110,4
4,61,110,4
4,54,110,4
4,62,110,0
4,57,110,4
4,62,110,4
4,66,110,4
4,62,110,4
4,57,110,4
4,57,110,196
4,62,110,4
4,66,110,4
4,62,110,4
4,57,110,4
4,56,110,196
4,61,110,4
4,64,110,4
4,61,110,4
4,56,110,4
4,55,110,196
4,59,110,4
4,64,110,4
4,59,110,4
4,55,110,4
4,55,110,196
4,59,110,4
4,64,110,4
4,59,110,4
4,55,110,4
4,61,110,196
4,64,110,4
4,70,110,4
4,64,110,4
4,61,110,4
4,62,110,196
4,64,110,4
4,68,110,4
4,64,110,4
4,62,110,4
4,62,110,196
4,64,110,4
4,68,110,4
4,64,110,4
4,62,110,4
4,61,110,4
4,69,110,0
4,57,110,4
4,58,110,4
4,56,110,4
4,59,110,0
4,60,110,128
4,61,110,4
4,54,110,4
4,62,110,0
4,57,110,4
4,62,110,4
4,66,110,4
4,62,110,4
4,57,110,4
4,57,110,196
4,62,110,4
4,66,110,4
4,62,110,4
4,57,110,4
4,56,110,196
4,61,110,4
4,64,110,4
4,61,110,4
4,56,110,4
4,55,110,196
4,59,110,4
4,64,110,4
4,59,110,4
4,55,110,4
4,55,110,196
4,59,110,4
4,64,110,4
4,59,110,4
4,55,110,4
4,61,110,196
4,64,110,4
4,70,110,4
4,64,110,4
4,61,110,4
4,62,110,196
4,64,110,4
4,68,110,4
4,64,110,4
4,62,110,4
4,62,110,196
4,64,110,4
4,68,110,4
4,64,110,4
4,62,110,4
4,61,110,4
4,69,110,0
4,57,110,4
4,58,110,4
4,56,110,4
4,59,110,0
4,60,110,4
4,61,110,4
4,54,110,4
4,62,110,0
4,57,110,4
4,62,110,4
4,66,110,4
4,62,110,4
4,57,110,4
4,57,110,196
4,62,110,4
4,66,110,4
4,62,110,4
4,57,110,4
4,56,110,196
4,61,110,4
4,64,110,4
4,61,110,4
4,56,110,4
4,55,110,196
4,59,110,4
4,64,110,4
4,59,110,4
4,55,110,4
4,55,110,196
4,59,110,4
4,64,110,4
4,59,110,4
4,55,110,4
4,61,110,196
4,64,110,4
4,70,110,4
4,64,110,4
4,61,110,4
4,62,110,196
4,64,110,4
4,68,110,4
4,64,110,4
4,62,110,4
4,62,110,196
4,64,110,4
4,68,110,4
4,64,110,4
4,62,110,4
4,61,110,4
4,69,110,0
4,57,110,4
4,58,110,4
4,56,110,4
4,59,110,0
4,60,110,128
4,61,110,4
4,54,110,4
4,62,110,0
4,57,110,4
4,62,110,4
4,66,110,4
4,62,110,4
4,57,110,4
4,57,110,196
4,62,110,4
4,66,110,4
4,62,110,4
4,57,110,4
4,56,110,196
4,61,110,4
4,64,110,4
4,61,110,4
4,56,110,4
4,55,110,196
4,59,110,4
4,64,110,4
4,59,110,4
4,55,110,4
4,55,110,196
4,59,110,4
4,64,110,4
4,59,110,4
4,55,110,4
4,61,110,196
4,64,110,4
4,70,110,4
4,64,110,4
4,61,110,4
4,62,110,196
4,64,110,4
4,68,110,4
4,64,110,4
4,62,110,4
4,62,110,196
4,64,110,4
4,68,110,4
4,64,110,4
4,62,110,4
4,61,110,4
4,69,110,0
4,57,110,4
4,58,110,4
4,56,110,4
4,59,110,0
4,60,110,4
4,61,110,4
4,54,110,4
