track,note,velocity,time
3,41,126,19312
3,41,0,97
3,36,110,263
3,36,0,111
3,34,110,252
3,34,0,117
3,36,116,243
3,36,0,112
3,32,126,65
3,32,0,50
3,34,96,10
3,34,0,55
3,36,96,4
3,36,0,56
3,37,116,5
3,37,0,107
3,39,116,127
3,39,0,113
3,32,126,7
3,32,0,133
3,39,126,231
3,39,0,110
3,41,106,9
3,41,0,121
3,43,110,2
3,44,110,120
3,43,0,7
3,44,0,113
3,43,116,175
3,43,0,57
3,41,116,8
3,41,0,130
3,36,116,232
3,36,0,160
3,34,110,187
3,34,0,151
3,36,106,217
3,36,0,156
3,37,126,206
3,37,0,132
3,39,126,107
3,39,0,110
3,32,126,7
3,32,0,145
3,39,126,218
3,39,0,115
3,41,106,5
3,41,0,117
3,43,110,0
3,43,0,115
3,44,116,9
3,44,0,108
3,32,126,3
3,32,0,83
3,41,126,5927
3,41,0,97
3,36,110,263
3,36,0,111
3,34,110,252
3,34,0,117
3,36,116,243
3,36,0,112
3,32,126,65
3,32,0,50
3,34,96,10
3,34,0,55
3,36,96,4
3,36,0,56
3,37,116,5
3,37,0,107
3,39,116,127
3,39,0,113
3,32,126,7
3,32,0,133
3,39,126,231
3,39,0,110
3,41,106,9
3,41,0,121
3,43,110,2
3,44,110,120
3,43,0,7
3,44,0,113
3,43,116,175
3,43,0,57
3,41,116,8
3,41,0,130
3,36,116,232
3,36,0,160
3,34,110,187
3,34,0,151
3,36,106,217
3,36,0,156
3,37,126,206
3,37,0,132
3,39,126,107
3,39,0,110
3,32,126,7
3,32,0,145
3,39,126,218
3,39,0,115
3,41,106,5
3,41,0,117
3,43,110,0
3,43,0,115
3,44,116,9
3,44,0,108
3,32,126,3
3,32,0,83
3,36,100,171
3,36,0,192
3,31,106,42
3,31,0,111
3,36,110,8
3,36,0,155
3,31,110,86
3,31,0,116
3,38,106,4
3,38,0,150
3,31,100,91
3,31,0,112
3,38,110,4
3,38,0,136
3,31,110,109
3,31,0,112
3,36,100,5
3,36,0,126
3,31,110,114
3,31,0,116
3,36,110,2
3,36,0,112
3,31,110,132
3,36,116,119
3,31,0,1
3,36,0,131
3,31,116,110
3,31,0,116
3,36,110,2
3,36,0,130
3,31,100,104
3,31,0,115
3,34,110,7
3,34,0,138
3,41,110,103
3,41,0,117
3,34,96,10
3,34,0,123
3,41,116,110
3,41,0,100
3,36,106,20
3,36,0,133
3,41,106,102
3,41,0,120
3,36,96,2
3,36,0,150
3,41,116,95
3,41,0,116
3,34,88,5
3,34,0,137
3,41,106,100
3,41,0,116
3,34,96,8
3,34,0,121
3,41,116,118
3,41,0,103
3,39,116,14
3,39,0,125
3,46,116,119
3,46,0,115
3,39,116,5
3,39,0,92
3,41,126,269
3,41,0,97
3,36,110,263
3,36,0,111
3,34,110,252
3,34,0,117
3,36,116,243
3,36,0,112
3,32,126,65
3,32,0,50
3,34,96,10
3,34,0,55
3,36,96,4
3,36,0,56
3,37,116,5
3,37,0,107
3,39,116,127
3,39,0,113
3,32,126,7
3,32,0,133
3,39,126,231
3,39,0,110
3,41,106,9
3,41,0,121
3,43,110,2
3,44,110,120
3,43,0,7
3,44,0,113
3,43,116,175
3,43,0,57
3,41,116,8
3,41,0,130
3,36,116,232
3,36,0,160
3,34,110,187
3,34,0,151
3,36,106,217
3,36,0,156
3,37,126,206
3,37,0,132
3,39,126,107
3,39,0,110
3,32,126,7
3,32,0,145
3,39,126,218
3,39,0,115
3,41,106,5
3,41,0,117
3,43,110,0
3,43,0,115
3,44,116,9
3,44,0,108
3,32,126,3
3,32,0,83
4,48,106,590
4,60,30,73
4,63,52,18
4,67,84,18
4,48,0,117
4,43,88,7
4,43,0,113
4,67,0,1
4,63,0,6
4,48,110,0
4,60,0,2
4,60,46,81
4,63,60,24
4,67,78,18
4,48,0,32
4,43,106,83
4,43,0,108
4,48,110,9
4,63,0,7
4,67,0,6
4,60,0,0
4,60,52,77
4,63,64,18
4,67,70,17
4,48,0,18
4,43,100,103
4,43,0,110
4,48,106,8
4,63,0,9
4,67,0,3
4,60,0,2
4,60,50,70
4,63,60,20
4,67,62,16
4,48,0,36
4,43,106,80
4,43,0,87
4,48,116,38
4,63,0,6
4,67,0,1
4,60,0,4
4,60,28,83
4,63,46,15
4,67,78,12
4,48,0,41
4,43,100,77
4,43,0,107
4,67,0,6
4,63,0,0
4,48,116,2
4,60,0,3
4,60,50,83
4,63,64,18
4,67,66,13
4,48,0,26
4,43,106,99
4,63,0,83
4,67,0,7
4,60,0,1
4,43,0,15
4,50,106,11
4,59,32,76
4,62,60,19
4,65,68,15
4,67,80,12
4,50,0,41
4,43,80,75
4,43,0,102
4,50,120,23
4,67,0,2
4,65,0,3
4,62,0,4
4,59,0,1
4,59,50,72
4,62,52,20
4,65,70,11
4,67,80,11
4,50,0,17
4,43,110,93
4,43,0,93
4,65,0,4
4,59,0,2
4,62,0,2
4,67,0,1
4,48,110,16
4,60,48,78
4,63,48,22
4,67,96,18
4,48,0,28
4,43,100,99
4,43,0,103
4,67,0,18
4,48,126,1
4,63,0,3
4,60,0,0
4,60,52,77
4,63,56,19
4,67,74,15
4,48,0,26
4,43,110,101
4,43,0,82
4,67,0,23
4,63,0,3
4,60,0,2
4,48,116,13
4,60,32,84
4,63,78,16
4,67,66,14
4,48,0,12
4,43,106,108
4,43,0,101
4,63,0,18
4,60,0,2
4,67,0,1
4,48,120,0
4,60,32,86
4,63,82,19
4,67,68,13
4,48,0,22
4,43,100,98
4,43,0,91
4,60,0,5
4,67,0,2
4,63,0,7
4,46,110,17
4,58,32,89
4,61,60,15
4,65,78,9
4,46,0,22
4,41,100,104
4,41,0,101
4,61,0,19
4,46,126,2
4,58,0,4
4,65,0,0
4,58,46,78
4,61,52,18
4,65,84,9
4,46,0,13
4,41,116,115
4,41,0,90
4,61,0,6
4,58,0,14
4,65,0,8
4,48,106,3
4,57,48,79
4,60,56,17
4,63,46,11
4,65,78,12
4,48,0,17
4,41,92,103
4,41,0,106
4,65,0,16
4,48,116,0
4,63,0,3
4,60,0,4
4,57,0,3
4,57,44,71
4,60,62,18
4,63,68,6
4,65,88,13
4,48,0,32
4,41,116,86
4,41,0,92
4,63,0,5
4,60,0,2
4,65,0,4
4,57,0,2
4,46,96,17
4,56,30,80
4,58,46,17
4,62,54,9
4,65,84,12
4,46,0,15
4,41,110,100
4,65,0,96
4,41,0,5
4,62,0,3
4,58,0,0
4,56,0,9
4,46,116,11
4,56,30,85
4,58,48,21
4,62,60,9
4,65,84,13
4,46,0,32
4,46,116,88
4,46,0,50
4,56,0,38
4,58,0,2
4,62,0,4
4,65,0,6
4,51,116,20
4,55,36,98
4,58,82,7
4,63,82,15
4,51,0,36
4,55,0,4
4,58,0,0
4,63,0,1
4,55,74,76
4,58,88,0
4,63,110,3
4,46,102,0
4,46,0,31
4,58,0,3
4,63,0,4
4,55,0,2
4,51,116,80
4,55,84,0
4,58,96,0
4,63,110,0
4,58,0,141
4,55,0,1
4,63,0,1
4,51,0,4
4,41,116,218
4,56,30,77
4,60,62,23
4,62,68,3
4,65,70,7
4,56,0,45
4,62,0,10
4,60,0,1
4,41,0,67
4,56,82,2
4,60,78,1
4,62,80,0
4,56,0,16
4,60,0,5
4,62,0,1
4,65,0,18
4,48,100,72
4,60,62,118
4,63,82,1
4,67,110,1
4,63,0,16
4,67,0,5
4,60,0,2
4,60,58,100
4,63,88,1
4,67,110,4
4,48,0,65
4,67,0,37
4,63,0,12
4,46,116,5
4,60,0,1
4,56,30,105
4,62,84,9
4,65,92,5
4,62,0,27
4,56,0,2
4,65,0,3
4,56,68,86
4,62,84,3
4,65,96,0
4,46,0,9
4,56,0,79
4,62,0,14
4,65,0,5
4,48,106,10
4,60,32,90
4,63,48,17
4,67,106,10
4,63,0,31
4,60,0,0
4,67,0,2
4,63,88,90
4,60,78,2
4,67,106,0
4,63,0,38
4,67,0,2
4,60,0,17
4,48,0,3
4,49,126,62
4,61,72,111
4,58,88,0
4,56,64,0
4,65,96,2
4,58,0,14
4,61,0,4
4,56,0,1
4,49,0,5
4,65,0,1
4,51,116,97
4,56,60,0
4,65,92,1
4,58,82,0
4,61,68,0
4,65,0,78
4,61,0,9
4,56,0,17
4,58,0,2
4,51,0,19
4,44,110,2
4,56,30,86
4,60,62,17
4,63,102,7
4,56,0,9
4,60,0,11
4,63,0,8
4,60,84,97
4,56,64,0
4,44,0,1
4,63,110,0
4,60,0,109
4,63,0,2
4,56,0,5
4,51,116,3
4,63,96,121
4,55,74,0
4,61,72,2
4,58,68,0
4,61,0,13
4,58,0,2
4,55,0,3
4,63,0,2
4,63,102,98
4,58,102,0
4,55,84,2
4,61,64,0
4,51,0,9
4,55,0,84
4,63,0,1
4,61,0,1
4,58,0,10
4,44,116,14
4,56,56,105
4,60,70,6
4,63,116,2
4,56,0,17
4,60,0,3
4,63,0,3
4,56,52,90
4,60,80,5
4,63,110,4
4,44,0,17
4,43,106,42
4,60,0,8
4,56,0,14
4,63,0,4
4,43,0,32
4,41,110,3
4,56,26,110
4,60,88,6
4,65,106,4
4,56,0,16
4,60,0,6
4,65,0,3
4,56,78,99
4,60,88,1
4,65,96,1
4,41,0,12
4,60,0,92
4,56,0,1
4,65,0,6
4,48,116,7
4,55,50,105
4,60,74,7
4,63,78,7
4,55,0,17
4,60,0,3
4,63,0,5
4,55,74,95
4,63,110,1
4,60,84,0
4,60,0,21
4,55,0,0
4,63,0,1
4,48,0,30
4,46,110,62
4,56,64,118
4,60,78,2
4,62,78,1
4,65,84,0
4,56,0,15
4,62,0,5
4,60,0,0
4,65,0,3
4,56,78,99
4,65,92,2
4,60,78,0
4,62,80,0
4,46,0,20
4,56,0,75
4,60,0,12
4,62,0,3
4,65,0,7
4,48,110,1
4,60,46,104
4,63,60,13
4,67,96,6
4,60,0,21
4,63,0,1
4,67,0,5
4,60,42,84
4,63,88,3
4,67,106,6
4,48,0,30
4,67,0,11
4,63,0,3
4,60,0,18
4,49,110,52
4,56,48,116
4,58,96,4
4,61,72,0
4,65,88,6
4,58,0,19
4,61,0,7
4,49,0,0
4,56,0,0
4,65,0,9
4,56,56,77
4,58,78,2
4,61,60,0
4,65,88,0
4,51,116,1
4,58,0,85
4,56,0,5
4,61,0,0
4,65,0,7
4,51,0,20
4,44,96,2
4,56,30,108
4,60,74,10
4,63,110,7
4,56,0,13
4,60,0,3
4,63,0,6
4,56,40,89
4,60,80,6
4,63,88,4
4,44,0,5
4,60,0,104
4,63,0,2
4,56,0,7
4,51,116,1
4,58,96,117
4,55,78,0
4,63,96,0
4,61,64,0
4,58,0,17
4,61,0,1
4,55,0,2
4,63,0,2
4,55,92,98
4,63,116,0
4,61,96,0
4,58,110,0
4,58,0,17
4,55,0,3
4,61,0,1
4,63,0,5
4,51,0,14
4,63,102,78
4,60,80,1
4,44,126,0
4,68,116,0
4,63,0,19
4,44,0,2
4,60,0,4
4,68,0,2
4,44,126,92
4,63,126,0
4,68,110,0
4,60,92,1
4,63,0,37
4,68,0,7
4,60,0,1
4,44,0,1
4,48,116,200
4,60,28,94
4,63,46,15
4,67,78,12
4,48,0,41
4,43,100,77
4,43,0,107
4,67,0,6
4,63,0,0
4,48,116,2
4,60,0,3
4,60,50,83
4,63,64,18
4,67,66,13
4,48,0,26
4,43,106,99
4,63,0,83
4,67,0,7
4,60,0,1
4,43,0,15
4,50,106,11
4,59,32,76
4,62,60,19
4,65,68,15
4,67,80,12
4,50,0,41
4,43,80,75
4,43,0,102
4,50,120,23
4,67,0,2
4,65,0,3
4,62,0,4
4,59,0,1
4,59,50,72
4,62,52,20
4,65,70,11
4,67,80,11
4,50,0,17
4,43,110,93
4,43,0,93
4,65,0,4
4,59,0,2
4,62,0,2
4,67,0,1
4,48,110,16
4,60,48,78
4,63,48,22
4,67,96,18
4,48,0,28
4,43,100,99
4,43,0,103
4,67,0,18
4,48,126,1
4,63,0,3
4,60,0,0
4,60,52,77
4,63,56,19
4,67,74,15
4,48,0,26
4,43,110,101
4,43,0,82
4,67,0,23
4,63,0,3
4,60,0,2
4,48,116,13
4,60,32,84
4,63,78,16
4,67,66,14
4,48,0,12
4,43,106,108
4,43,0,101
4,63,0,18
4,60,0,2
4,67,0,1
4,48,120,0
4,60,32,86
4,63,82,19
4,67,68,13
4,48,0,22
4,43,100,98
4,43,0,91
4,60,0,5
4,67,0,2
4,63,0,7
4,46,110,17
4,58,32,89
4,61,60,15
4,65,78,9
4,46,0,22
4,41,100,104
4,41,0,101
4,61,0,19
4,46,126,2
4,58,0,4
4,65,0,0
4,58,46,78
4,61,52,18
4,65,84,9
4,46,0,13
4,41,116,115
4,41,0,90
4,61,0,6
4,58,0,14
4,65,0,8
4,48,106,3
4,57,48,79
4,60,56,17
4,63,46,11
4,65,78,12
4,48,0,17
4,41,92,103
4,41,0,106
4,65,0,16
4,48,116,0
4,63,0,3
4,60,0,4
4,57,0,3
4,57,44,71
4,60,62,18
4,63,68,6
4,65,88,13
4,48,0,32
4,41,116,86
4,41,0,92
4,63,0,5
4,60,0,2
4,65,0,4
4,57,0,2
4,46,96,17
4,56,30,80
4,58,46,17
4,62,54,9
4,65,84,12
4,46,0,15
4,41,110,100
4,65,0,96
4,41,0,5
4,62,0,3
4,58,0,0
4,56,0,9
4,46,116,11
4,56,30,85
4,58,48,21
4,62,60,9
4,65,84,6
4,46,0,39
4,46,116,86
4,46,0,50
4,56,0,40
4,58,0,2
4,65,0,3
4,62,0,1
4,51,116,26
4,55,36,98
4,58,82,7
4,63,82,15
4,51,0,36
4,55,0,4
4,58,0,0
4,63,0,1
4,58,88,76
4,55,74,0
4,63,110,0
4,46,102,3
4,46,0,31
4,58,0,3
4,63,0,1
4,55,0,5
4,51,116,80
4,55,84,0
4,58,96,0
4,63,110,0
4,58,0,141
4,55,0,1
4,63,0,1
4,51,0,4
4,41,116,218
4,56,30,77
4,60,62,23
4,62,68,3
4,65,70,7
4,56,0,45
4,62,0,10
4,60,0,1
4,41,0,67
4,56,82,2
4,62,80,1
4,60,78,0
4,56,0,16
4,60,0,5
4,62,0,1
4,65,0,18
4,48,100,72
4,60,62,118
4,63,82,1
4,67,110,1
4,63,0,16
4,67,0,5
4,60,0,2
4,60,58,100
4,63,88,1
4,67,110,4
4,48,0,65
4,67,0,37
4,63,0,12
4,46,116,5
4,60,0,1
4,62,84,114
4,65,92,5
4,56,40,0
4,62,0,27
4,65,0,5
4,56,0,11
4,56,68,75
4,62,84,3
4,65,96,0
4,46,0,9
4,56,0,79
4,62,0,14
4,65,0,5
4,48,106,10
4,60,32,90
4,63,48,17
4,67,106,10
4,63,0,31
4,60,0,0
4,67,0,2
4,63,88,90
4,67,106,2
4,60,78,0
4,63,0,38
4,67,0,2
4,60,0,17
4,48,0,3
4,49,126,62
4,61,72,111
4,58,88,0
4,56,64,0
4,65,96,2
4,58,0,14
4,61,0,4
4,56,0,1
4,49,0,5
4,65,0,1
4,51,116,97
4,56,60,0
4,58,82,1
4,65,92,0
4,61,68,0
4,65,0,78
4,61,0,9
4,56,0,17
4,58,0,2
4,51,0,19
4,44,110,2
4,56,30,86
4,60,62,17
4,63,102,7
4,56,0,9
4,60,0,11
4,63,0,8
4,56,64,97
4,60,84,0
4,44,0,1
4,63,110,0
4,60,0,109
4,63,0,2
4,56,0,5
4,51,116,3
4,51,0,120
4,41,116,0
4,55,74,1
4,63,96,0
4,58,68,2
4,61,72,0
4,61,0,13
4,58,0,2
4,55,0,3
4,63,0,2
4,41,0,97
4,43,116,0
4,58,102,1
4,63,102,0
4,61,64,2
4,55,84,0
4,55,0,93
4,63,0,1
4,61,0,1
4,58,0,10
4,43,0,12
4,44,116,2
4,56,56,105
4,60,70,6
4,63,116,2
4,56,0,17
4,60,0,3
4,63,0,3
4,56,52,90
4,60,80,5
4,63,110,4
4,44,0,17
4,43,106,42
4,60,0,8
4,56,0,14
4,63,0,4
4,43,0,32
