track,note,velocity,time
3,64,32,1536
3,64,0,384
3,64,86,14482
3,64,0,139
3,64,90,64
3,64,0,242
3,64,78,96
3,64,0,96
3,64,83,58
3,64,0,74
3,64,91,66
3,64,0,164
3,65,86,70
3,65,0,154
3,64,82,66
3,64,0,148
3,64,88,120
3,64,0,324
3,62,77,22
3,62,0,296
3,60,67,740
3,60,0,104
3,60,75,62
3,60,0,128
3,60,86,114
3,60,0,82
3,60,82,42
3,60,0,82
3,60,92,72
3,60,0,196
3,64,87,98
3,64,0,136
3,67,95,100
3,67,0,162
3,67,95,60
3,67,0,178
3,60,87,1492
3,60,0,198
3,65,89,88
3,65,0,124
3,60,72,106
3,60,0,74
3,65,99,4
3,65,0,88
3,67,99,116
3,67,0,118
3,69,92,160
3,69,0,220
3,64,74,14
3,64,0,428
3,62,86,28
3,62,0,312
3,62,101,374
3,62,0,82
3,60,85,152
3,60,0,224
3,62,104,202
3,62,0,94
3,64,82,34
3,64,0,106
3,59,89,124
3,59,0,222
3,60,96,248
3,60,0,100
3,62,78,0
3,62,0,104
3,57,95,60
3,57,0,206
3,64,86,1830
3,64,0,140
3,64,90,64
3,64,0,242
3,64,78,96
3,64,0,96
3,64,83,58
3,64,0,74
3,64,91,66
3,64,0,164
3,65,86,70
3,65,0,154
3,64,82,66
3,64,0,148
3,64,88,120
3,64,0,324
3,62,77,22
3,62,0,296
3,60,67,740
3,60,0,104
3,60,75,62
3,60,0,128
3,60,86,114
3,60,0,82
3,60,82,42
3,60,0,82
3,60,92,72
3,60,0,196
3,64,87,98
3,64,0,136
3,67,95,100
3,67,0,162
3,67,95,60
3,67,0,178
3,60,87,1492
3,60,0,198
3,65,89,88
3,65,0,124
3,60,72,106
3,60,0,74
3,65,99,4
3,65,0,88
3,67,99,116
3,67,0,118
3,69,92,160
3,69,0,220
3,64,74,14
3,64,0,428
3,62,86,28
3,62,0,312
3,62,101,374
3,62,0,82
3,60,85,152
3,60,0,224
3,62,104,202
3,62,0,94
3,64,82,34
3,64,0,106
3,59,89,124
3,59,0,222
3,60,96,248
3,60,0,100
3,62,78,0
3,62,0,104
3,57,95,60
3,57,0,206
3,64,86,1830
3,64,0,140
3,64,90,64
3,64,0,242
3,64,78,96
3,64,0,96
3,64,83,58
3,64,0,74
3,64,91,66
3,64,0,164
3,65,86,70
3,65,0,154
3,64,82,66
3,64,0,148
3,64,88,120
3,64,0,324
3,62,77,22
3,62,0,296
3,60,67,740
3,60,0,104
3,60,75,62
3,60,0,128
3,60,86,114
3,60,0,82
3,60,82,42
3,60,0,82
3,60,92,72
3,60,0,196
3,64,87,98
3,64,0,136
3,67,95,100
3,67,0,162
3,67,95,60
3,67,0,178
3,60,87,1492
3,60,0,198
3,65,89,88
3,65,0,124
3,60,72,106
3,60,0,74
3,65,99,4
3,65,0,88
3,67,99,116
3,67,0,118
3,69,92,160
3,69,0,220
3,64,74,14
3,64,0,428
3,62,86,28
3,62,0,312
3,62,101,374
3,62,0,82
3,60,85,152
3,60,0,224
3,62,104,202
3,62,0,94
3,64,82,34
3,64,0,106
3,59,89,124
3,59,0,222
3,60,96,248
3,60,0,100
3,62,78,0
3,62,0,104
3,57,95,60
3,57,0,206
3,64,86,1830
3,64,0,140
3,64,90,64
3,64,0,242
3,64,78,96
3,64,0,96
3,64,83,58
3,64,0,74
3,64,91,66
3,64,0,164
3,65,86,70
3,65,0,154
3,64,82,66
3,64,0,148
3,64,88,120
3,64,0,324
3,62,77,22
3,62,0,296
3,60,67,740
3,60,0,104
3,60,75,62
3,60,0,128
3,60,86,114
3,60,0,82
3,60,82,42
3,60,0,82
3,60,92,72
3,60,0,196
3,64,87,98
3,64,0,136
3,67,95,100
3,67,0,162
3,67,95,60
3,67,0,178
3,60,87,1492
3,60,0,198
3,65,89,88
3,65,0,124
3,60,72,106
3,60,0,74
3,65,99,4
3,65,0,88
3,67,99,116
3,67,0,118
3,69,92,160
3,69,0,220
3,64,74,14
3,64,0,428
3,62,86,28
3,62,0,312
3,62,101,374
3,62,0,82
3,60,85,152
3,60,0,224
3,62,104,202
3,62,0,94
3,64,82,34
3,64,0,106
3,59,89,124
3,59,0,222
3,60,96,248
3,60,0,100
3,62,78,0
3,62,0,104
3,57,95,60
3,57,0,206
3,64,86,1830
3,64,0,140
3,64,90,64
3,64,0,242
3,64,78,96
3,64,0,96
3,64,83,58
3,64,0,74
3,64,91,66
3,64,0,164
3,65,86,70
3,65,0,154
3,64,82,66
3,64,0,148
3,64,88,120
3,64,0,324
3,62,77,22
3,62,0,296
3,60,67,740
3,60,0,104
3,60,75,62
3,60,0,128
3,60,86,114
3,60,0,82
3,60,82,42
3,60,0,82
3,60,92,72
3,60,0,196
3,64,87,98
3,64,0,136
3,67,95,100
3,67,0,162
3,67,95,60
3,67,0,178
3,60,87,1492
3,60,0,198
3,65,89,88
3,65,0,124
3,60,72,106
3,60,0,74
3,65,99,4
3,65,0,88
3,67,99,116
3,67,0,118
3,69,92,160
3,69,0,220
3,64,74,14
3,64,0,428
3,62,86,28
3,62,0,312
3,62,101,374
3,62,0,82
3,60,85,152
3,60,0,224
3,62,104,202
3,62,0,94
3,64,82,34
3,64,0,106
3,59,89,124
3,59,0,222
3,60,96,248
3,60,0,100
3,62,78,0
3,62,0,104
3,57,95,60
3,57,0,206
3,64,86,1830
3,64,0,140
3,64,90,64
3,64,0,242
3,64,78,96
3,64,0,96
3,64,83,58
3,64,0,74
3,64,91,66
3,64,0,164
3,65,86,70
3,65,0,154
3,64,82,66
3,64,0,148
3,64,88,120
3,64,0,324
3,62,77,22
3,62,0,296
3,60,67,740
3,60,0,104
3,60,75,62
3,60,0,128
3,60,86,114
3,60,0,82
3,60,82,42
3,60,0,82
3,60,92,72
3,60,0,196
3,64,87,98
3,64,0,136
3,67,95,100
3,67,0,162
3,67,95,60
3,67,0,178
3,60,87,1492
3,60,0,198
3,65,89,88
3,65,0,124
3,60,72,106
3,60,0,74
3,65,99,4
3,65,0,88
3,67,99,116
3,67,0,118
3,69,92,160
3,69,0,220
3,64,74,14
3,64,0,428
3,62,86,28
3,62,0,312
3,62,101,374
3,62,0,82
3,60,85,152
3,60,0,224
3,62,104,202
3,62,0,94
3,64,82,34
3,64,0,106
3,59,89,124
3,59,0,222
3,60,96,248
3,60,0,100
3,62,78,0
3,62,0,104
3,57,95,60
3,57,0,206
3,59,82,584
3,59,0,208
3,60,77,64
3,60,0,220
3,62,91,90
3,62,0,164
3,64,87,98
3,64,0,252
4,43,78,15690
4,44,55,100
4,43,0,6
4,45,70,42
4,44,0,32
4,46,43,74
4,45,0,38
4,46,0,90
4,45,68,0
4,44,69,76
4,45,0,26
4,45,61,78
4,44,0,16
4,44,58,38
4,45,0,24
4,45,51,72
4,44,0,24
4,45,0,2
4,43,78,854
4,44,55,100
4,43,0,6
4,45,70,42
4,44,0,32
4,46,43,74
4,45,0,38
4,46,0,90
4,45,68,0
4,44,69,76
4,45,0,26
4,45,61,78
4,44,0,16
4,44,58,38
4,45,0,24
4,45,51,72
4,44,0,24
4,45,0,2
4,43,78,854
4,44,55,100
4,43,0,6
4,45,70,42
4,44,0,32
4,46,43,74
4,45,0,6
4,46,0,90
4,45,68,0
4,44,69,76
4,45,0,26
4,45,61,78
4,44,0,16
4,44,58,38
4,45,0,24
4,45,51,72
4,44,0,24
4,45,0,2
4,43,78,854
4,44,55,100
4,43,0,6
4,45,70,42
4,44,0,32
4,46,43,74
4,45,0,38
4,46,0,90
4,45,68,0
4,44,69,76
4,45,0,26
4,45,61,78
4,44,0,16
4,44,58,38
4,45,0,24
4,45,51,72
4,44,0,24
4,45,0,2
4,43,78,854
4,44,55,100
4,43,0,6
4,45,70,42
4,44,0,32
4,46,43,74
4,45,0,38
4,46,0,90
4,45,68,0
4,44,69,76
4,45,0,26
4,45,61,78
4,44,0,16
4,44,58,38
4,45,0,24
4,45,51,72
4,44,0,24
4,45,0,2
4,43,78,854
4,44,55,100
4,43,0,6
4,45,70,42
4,44,0,32
4,46,43,74
4,45,0,38
4,46,0,90
4,45,68,0
4,44,69,76
4,45,0,26
4,45,61,78
4,44,0,16
4,44,58,38
4,45,0,24
4,45,51,72
4,44,0,24
4,45,0,2
5,52,74,1844
5,55,41,116
5,60,56,128
5,64,97,126
5,60,0,118
5,60,49,8
5,55,0,118
5,55,49,20
5,52,0,118
5,48,70,16
5,55,0,104
5,55,41,12
5,60,0,102
5,60,56,26
5,64,0,102
5,64,97,24
5,60,0,120
5,60,49,6
5,55,0,114
5,55,49,18
5,60,0,130
5,64,0,2
5,55,0,4
5,48,0,4
5,52,74,0
5,55,41,116
5,60,56,128
5,64,97,126
5,60,0,118
5,60,49,8
5,55,0,118
5,55,49,20
5,52,0,118
5,48,70,16
5,55,0,104
5,55,41,12
5,60,0,102
5,60,56,26
5,64,0,102
5,64,97,24
5,60,0,120
5,60,49,6
5,55,0,114
5,55,49,18
5,60,0,130
5,64,0,2
5,55,0,4
5,48,0,4
5,52,74,0
5,56,41,116
5,59,56,128
5,62,97,126
5,59,0,118
5,59,49,8
5,56,0,118
5,56,49,20
5,52,0,118
5,47,70,16
5,56,0,104
5,56,41,12
5,59,0,102
5,59,56,26
5,62,0,102
5,62,97,24
5,59,0,120
5,59,49,6
5,56,0,114
5,56,49,18
5,59,0,130
5,62,0,2
5,56,0,4
5,47,0,4
5,45,74,0
5,57,41,116
5,60,56,128
5,64,97,126
5,60,0,118
5,60,49,8
5,57,0,118
5,57,49,20
5,45,0,118
5,52,70,16
5,57,0,104
5,57,41,12
5,60,0,102
5,60,56,26
5,64,0,102
5,64,97,24
5,60,0,120
5,60,49,6
5,57,0,114
5,57,49,18
5,60,0,130
5,64,0,2
5,57,0,4
5,52,0,4
5,48,74,0
5,58,41,116
5,60,56,128
5,64,97,126
5,60,0,118
5,60,49,8
5,58,0,118
5,58,49,20
5,48,0,118
5,52,70,16
5,58,0,104
5,58,41,12
5,60,0,102
5,60,56,26
5,64,0,102
5,64,97,24
5,60,0,120
5,60,49,6
5,58,0,114
5,58,49,18
5,60,0,130
5,64,0,2
5,58,0,4
5,52,0,4
5,53,74,0
5,57,41,116
5,60,56,128
5,65,97,126
5,60,0,118
5,60,49,8
5,57,0,118
5,57,49,20
5,53,0,118
5,53,70,16
5,57,0,104
5,57,41,12
5,60,0,102
5,60,56,26
5,65,0,102
5,65,97,24
5,60,0,120
5,60,49,6
5,57,0,114
5,57,49,18
5,60,0,130
5,65,0,2
5,57,0,4
5,53,0,4
5,52,74,0
5,56,41,116
5,59,56,128
5,64,97,126
5,59,0,118
5,59,49,8
5,56,0,118
5,56,49,20
5,52,0,118
5,47,70,16
5,56,0,104
5,56,41,12
5,59,0,102
5,59,56,26
5,64,0,102
5,64,97,24
5,59,0,120
5,59,49,6
5,56,0,114
5,56,49,18
5,59,0,130
5,64,0,2
5,56,0,4
5,47,0,4
5,52,74,0
5,57,41,116
5,60,56,128
5,64,97,126
5,60,0,118
5,60,49,8
5,57,0,118
5,57,49,20
5,52,0,118
5,40,70,16
5,57,0,104
5,56,41,12
5,60,0,102
5,59,56,26
5,64,0,102
5,64,97,24
5,59,0,120
5,59,49,6
5,56,0,114
5,56,49,18
5,59,0,130
5,64,0,2
5,56,0,4
5,40,0,4
5,45,74,0
5,57,41,116
5,60,56,128
5,64,97,126
5,60,0,118
5,57,0,126
5,45,0,138
5,64,0,6
5,43,93,18
5,43,0,306
5,45,94,28
5,45,0,178
5,47,87,58
5,47,0,174
5,48,74,16
5,55,41,116
5,60,56,128
5,64,97,126
5,60,0,118
5,60,49,8
5,55,0,118
5,55,49,20
5,48,0,118
5,43,70,16
5,55,0,104
5,55,41,12
5,60,0,102
5,60,56,26
5,64,0,102
5,64,97,24
5,60,0,120
5,60,49,6
5,55,0,114
5,55,49,18
5,60,0,130
5,64,0,2
5,55,0,4
5,43,0,4
5,52,74,0
5,56,41,116
5,59,56,128
5,62,97,126
5,59,0,118
5,59,49,8
5,56,0,118
5,56,49,20
5,52,0,118
5,47,70,16
5,56,0,104
5,56,41,12
5,59,0,102
5,59,56,26
5,62,0,102
5,62,97,24
5,59,0,120
5,59,49,6
5,56,0,114
5,56,49,18
5,59,0,130
5,62,0,2
5,56,0,4
5,47,0,4
5,45,74,0
5,57,41,116
5,60,56,128
5,64,97,126
5,60,0,118
5,60,49,8
5,57,0,118
5,57,49,20
5,45,0,118
5,52,70,16
5,57,0,104
5,57,41,12
5,60,0,102
5,60,56,26
5,64,0,102
5,64,97,24
5,60,0,120
5,60,49,6
5,57,0,114
5,57,49,18
5,60,0,130
5,64,0,2
5,57,0,4
5,52,0,4
5,52,74,0
5,58,41,116
5,60,56,128
5,70,97,126
5,60,0,118
5,60,49,8
5,58,0,118
5,58,49,20
5,52,0,118
5,55,70,16
5,58,0,104
5,58,41,12
5,60,0,102
5,60,56,26
5,70,0,102
5,70,97,24
5,60,0,120
5,60,49,6
5,58,0,114
5,58,49,18
5,60,0,130
5,70,0,2
5,58,0,4
5,55,0,4
5,53,74,0
5,57,41,116
5,60,56,128
5,65,97,126
5,60,0,118
5,60,49,8
5,57,0,118
5,57,49,20
5,53,0,118
5,53,70,16
5,57,0,104
5,57,41,12
5,60,0,102
5,60,56,26
5,65,0,102
5,65,97,24
5,60,0,120
5,60,49,6
5,57,0,114
5,57,49,18
5,60,0,130
5,65,0,2
5,57,0,4
5,53,0,4
5,52,74,0
5,56,41,116
5,59,56,128
5,62,97,126
5,59,0,118
5,59,49,8
5,56,0,118
5,56,49,20
5,52,0,118
5,47,70,16
5,56,0,104
5,56,41,12
5,59,0,102
5,59,56,26
5,62,0,102
5,62,97,24
5,59,0,120
5,59,49,6
5,56,0,114
5,56,49,18
5,59,0,130
5,62,0,2
5,56,0,4
5,47,0,4
5,52,74,0
5,57,41,116
5,60,56,128
5,64,97,126
5,60,0,118
5,60,49,8
5,57,0,118
5,57,49,20
5,52,0,118
5,40,70,16
5,57,0,104
5,56,41,12
5,60,0,102
5,59,56,26
5,64,0,102
5,64,97,24
5,59,0,120
5,59,49,6
5,56,0,114
5,56,49,18
5,59,0,130
5,64,0,2
5,56,0,4
5,40,0,4
5,45,74,0
5,57,41,116
5,60,56,128
5,64,97,126
5,60,0,118
5,57,0,126
5,45,0,138
5,64,0,6
5,43,93,18
5,43,0,306
5,45,94,28
5,45,0,178
5,47,87,58
5,47,0,174
5,48,74,16
5,55,41,116
5,60,56,128
5,64,97,126
5,60,0,118
5,60,49,8
5,55,0,118
5,55,49,20
5,48,0,118
5,43,70,16
5,55,0,104
5,55,41,12
5,60,0,102
5,60,56,26
5,64,0,102
5,64,97,24
5,60,0,120
5,60,49,6
5,55,0,114
5,55,49,18
5,60,0,130
5,64,0,2
5,55,0,4
5,43,0,4
5,52,74,0
5,56,41,116
5,59,56,128
5,62,97,126
5,59,0,118
5,59,49,8
5,56,0,118
5,56,49,20
5,52,0,118
5,47,70,16
5,56,0,104
5,56,41,12
5,59,0,102
5,59,56,26
5,62,0,102
5,62,97,24
5,59,0,120
5,59,49,6
5,56,0,114
5,56,49,18
5,59,0,130
5,62,0,2
5,56,0,4
5,47,0,4
5,45,74,0
5,57,41,116
5,60,56,128
5,64,97,126
5,60,0,118
5,60,49,8
5,57,0,118
5,57,49,20
5,45,0,118
5,52,70,16
5,57,0,104
5,57,41,12
5,60,0,102
5,60,56,26
5,64,0,102
5,64,97,24
5,60,0,120
5,60,49,6
5,57,0,114
5,57,49,18
5,60,0,130
5,64,0,2
5,57,0,4
5,52,0,4
5,52,74,0
5,58,41,116
5,60,56,128
5,70,97,126
5,60,0,118
5,60,49,8
5,58,0,118
5,58,49,20
5,52,0,118
5,55,70,16
5,58,0,104
5,58,41,12
5,60,0,102
5,60,56,26
5,70,0,102
5,70,97,24
5,60,0,120
5,60,49,6
5,58,0,114
5,58,49,18
5,60,0,130
5,70,0,2
5,58,0,4
5,55,0,4
5,53,74,0
5,57,41,116
