track,note,velocity,time
1,62,91,127480
1,55,91,0
1,43,91,6
1,62,73,244
1,57,82,0
1,55,73,0
1,43,48,54
1,57,57,6
1,38,82,88
1,43,100,26
1,62,82,6
1,59,72,0
1,55,73,0
1,43,82,242
1,62,64,0
1,55,91,4
1,42,81,46
1,54,76,0
1,52,82,66
1,38,72,0
1,40,84,28
1,59,82,2
1,55,82,0
1,59,73,58
1,62,91,50
1,55,91,2
1,59,66,766
1,40,64,36
1,57,91,2
1,55,82,0
1,62,91,2
1,59,60,756
1,62,82,46
1,57,73,0
1,54,91,0
1,50,73,10
1,48,73,12
1,60,60,16
1,64,82,4
1,55,82,2
1,55,69,22
1,60,64,4
1,60,60,74
1,64,82,8
1,55,82,0
1,55,64,48
1,43,64,20
1,57,64,4
1,55,73,28
1,64,82,0
1,60,52,0
1,48,73,2
1,55,64,40
1,57,73,82
1,64,82,64
1,55,91,0
1,60,36,4
1,57,73,0
1,47,64,44
1,55,73,0
1,59,60,2
1,62,64,0
1,54,73,38
1,55,73,54
1,62,92,72
1,59,48,2
1,55,82,0
1,54,73,6
1,47,64,38
1,55,82,0
1,45,64,0
1,55,64,12
1,60,82,0
1,52,60,2
1,50,73,176
1,57,73,0
1,54,64,0
1,62,82,2
1,43,73,44
1,62,81,2
1,59,72,0
1,55,73,2
1,55,75,108
1,57,73,26
1,62,64,72
1,55,73,0
1,59,82,2
1,55,64,4
1,43,64,58
1,57,72,4
1,43,73,78
1,62,73,4
1,59,73,0
1,55,73,0
1,55,64,112
1,57,73,62
1,42,82,108
1,66,73,2
1,57,73,2
1,62,64,2
1,59,64,0
1,54,82,0
1,55,73,360
1,57,73,52
1,62,73,36
1,40,73,4
1,66,87,0
1,59,64,0
1,57,64,0
1,55,58,388
1,57,73,34
1,59,73,82
1,62,82,4
1,57,73,4
1,66,80,0
1,55,61,384
1,57,66,56
1,40,64,40
1,59,60,0
1,67,60,0
1,62,60,0
1,40,64,54
1,67,60,4
1,62,82,0
1,59,82,2
1,40,82,76
1,62,100,6
1,59,91,0
1,67,73,0
1,38,100,74
1,57,82,4
1,59,82,0
1,66,82,0
1,62,91,0
1,48,73,1022
1,59,73,4
1,64,73,2
1,62,64,0
1,55,64,394
1,60,73,66
1,64,64,96
1,59,64,6
1,62,73,0
1,55,73,34
1,36,64,36
1,60,82,22
1,64,73,90
1,48,73,4
1,54,73,4
1,60,82,2
1,64,82,144
1,54,91,0
1,60,36,4
1,47,64,44
1,55,73,0
1,59,60,2
1,62,64,0
1,54,64,38
1,55,73,54
1,62,92,72
1,59,48,2
1,55,82,0
1,54,52,6
1,47,64,38
1,55,82,0
1,45,64,0
1,55,64,12
1,60,82,0
1,52,60,2
1,50,73,176
1,57,73,0
1,54,64,0
1,62,82,2
1,45,73,42
1,60,64,2
1,59,64,2
1,64,64,0
1,55,64,0
1,60,73,168
1,59,73,0
1,64,60,2
1,55,64,2
1,45,64,186
1,47,73,92
1,57,56,10
1,62,73,0
1,59,73,4
1,66,82,0
1,50,64,92
1,62,64,0
1,59,56,2
1,57,52,0
1,66,52,0
1,50,73,62
1,66,44,4
1,62,56,2
1,59,40,2
1,57,40,0
1,66,48,70
1,62,56,0
1,57,48,4
1,59,52,2
1,59,52,38
1,60,36,0
1,64,44,2
1,55,48,0
1,45,73,2
1,64,32,110
1,59,52,0
1,55,36,0
1,60,32,0
1,55,56,76
1,60,44,2
1,59,60,0
1,64,44,2
1,64,44,80
1,59,60,0
1,60,60,2
1,55,40,0
1,64,56,72
1,59,52,2
1,60,48,0
1,55,30,2
1,45,73,74
1,64,56,0
1,59,64,2
1,55,60,0
1,60,56,0
1,47,73,82
1,57,52,2
1,66,56,0
1,62,64,0
1,59,52,2
1,57,56,84
1,66,60,0
1,62,56,0
1,59,56,2
1,62,60,58
1,57,56,4
1,66,64,0
1,59,56,0
1,64,74,42
1,67,74,0
1,59,74,0
1,52,91,2
1,50,82,98
1,59,74,0
1,66,83,0
1,57,83,0
1,62,83,0
1,45,73,554
1,59,73,4
1,55,60,0
1,64,64,0
1,60,73,0
1,64,73,258
1,55,60,0
1,59,73,0
1,60,73,0
1,45,73,312
1,47,64,76
1,57,64,6
1,59,73,0
1,62,82,0
1,66,73,0
1,62,91,278
1,67,73,0
1,57,64,4
1,66,64,0
1,59,64,0
1,62,73,16
1,59,82,48
1,47,64,4
1,48,73,40
1,62,73,2
1,64,64,4
1,67,64,0
1,59,64,0
1,67,82,320
1,59,73,0
1,64,82,0
1,62,82,0
1,45,73,134
1,60,82,4
1,55,82,0
1,64,82,0
1,47,64,68
1,57,82,2
1,62,82,0
1,66,73,0
1,48,73,92
1,59,64,2
1,64,73,4
1,67,73,0
1,50,73,86
1,60,82,8
1,67,64,2
1,57,82,0
1,64,73,0
1,50,73,88
1,64,82,6
1,57,91,0
1,67,64,0
1,60,91,0
1,50,73,628
1,60,100,4
1,67,91,0
1,57,91,0
1,64,64,2
1,50,73,74
1,64,82,6
1,57,73,0
1,67,82,0
1,60,82,0
1,50,73,652
1,60,91,4
1,57,91,2
1,64,82,0
1,67,82,0
1,50,91,74
1,60,91,6
1,64,82,0
1,67,82,2
1,57,91,0
1,50,82,654
1,60,91,0
1,64,64,2
1,67,82,0
1,57,73,0
1,50,82,52
1,60,82,0
1,67,82,0
1,57,82,0
1,64,82,0
1,50,73,642
1,60,82,2
1,57,82,2
1,67,73,2
1,64,73,0
1,50,82,52
1,67,91,4
1,60,91,0
1,64,82,2
1,57,91,0
1,57,84,2948
1,58,82,48
1,60,82,84
1,62,73,24
1,67,90,0
1,58,82,0
1,63,82,0
1,67,42,80
1,63,44,0
1,62,50,0
1,58,46,0
1,63,60,316
1,67,60,0
1,62,60,0
1,58,52,0
1,58,82,318
1,67,79,0
1,65,87,0
1,62,82,0
1,67,16,74
1,65,36,0
1,62,56,0
1,58,48,0
1,67,64,320
1,65,73,0
1,62,64,0
1,58,64,0
1,62,73,270
1,67,90,0
1,58,82,0
1,63,82,0
1,67,42,80
1,63,44,0
1,62,50,0
1,58,46,0
1,63,60,316
1,67,60,0
1,62,60,0
1,58,52,0
1,63,82,318
1,58,87,0
1,67,79,0
1,62,82,0
1,63,48,74
1,58,36,0
1,67,16,0
1,62,56,0
1,63,64,320
1,58,73,0
1,67,64,0
1,62,64,0
1,62,73,270
1,69,90,0
1,60,82,0
1,65,82,0
1,62,50,80
1,69,42,0
1,65,44,0
1,60,46,0
1,62,60,316
1,65,60,0
1,69,60,0
1,60,52,0
1,62,82,318
1,65,82,0
1,60,87,0
1,69,79,0
1,62,56,74
1,65,48,0
1,60,36,0
1,69,16,0
1,62,64,320
1,65,64,0
1,60,73,0
1,69,64,0
1,67,82,270
1,70,90,0
1,62,73,0
1,65,82,0
1,67,46,80
1,70,42,0
1,62,50,0
1,65,44,0
1,67,52,316
1,70,60,0
1,62,60,0
1,65,60,0
1,62,82,318
1,65,82,0
1,60,87,0
1,69,79,0
1,62,56,74
1,65,48,0
1,60,36,0
1,69,16,0
1,62,64,320
1,65,64,0
1,60,73,0
1,69,64,0
1,70,82,270
1,62,73,0
1,67,90,0
1,70,46,80
1,67,42,0
1,62,50,0
1,70,52,316
1,67,60,0
1,62,60,0
1,70,82,318
1,67,79,0
1,62,82,0
1,70,48,74
1,67,16,0
1,62,56,0
1,70,64,320
1,67,64,0
1,62,64,0
1,62,73,270
1,67,90,0
1,58,82,0
1,63,82,0
1,67,42,80
1,63,44,0
1,62,50,0
1,58,46,0
1,63,60,316
1,69,60,0
1,62,60,0
1,58,52,0
1,63,82,318
1,58,87,0
1,67,79,0
1,62,82,0
1,63,48,74
1,58,36,0
1,67,16,0
1,62,56,0
1,63,64,320
1,58,73,0
1,67,64,0
1,62,64,0
1,62,73,270
1,69,90,0
1,60,82,0
1,65,82,0
1,62,50,80
1,69,42,0
1,65,44,0
1,60,46,0
1,62,60,316
1,65,60,0
1,69,60,0
1,60,52,0
1,62,82,318
1,65,82,0
1,60,87,0
1,69,79,0
1,62,56,74
1,65,48,0
1,60,36,0
1,69,16,0
1,62,64,320
1,65,64,0
1,60,73,0
1,69,64,0
1,67,82,270
1,70,90,0
1,62,73,0
1,65,82,0
1,67,46,80
1,70,42,0
1,62,50,0
1,65,44,0
1,67,52,316
1,70,60,0
1,62,60,0
1,65,60,0
1,62,82,318
1,65,82,0
1,60,87,0
1,69,79,0
1,62,56,74
1,65,48,0
1,60,36,0
1,69,16,0
1,62,64,320
1,65,64,0
1,60,73,0
1,69,64,0
1,63,82,270
1,58,73,0
1,62,82,0
1,67,90,0
1,63,46,80
1,58,50,0
1,62,44,0
1,67,42,0
1,63,52,316
1,58,60,0
1,62,60,0
1,67,60,0
1,62,82,318
1,67,79,0
1,58,87,0
1,63,82,0
1,62,56,74
1,67,16,0
1,58,36,0
1,63,48,0
1,62,64,320
1,67,64,0
1,58,73,0
1,63,64,0
1,62,82,270
1,65,82,0
1,60,73,0
1,69,90,0
1,62,44,80
1,65,46,0
1,60,50,0
1,69,42,0
1,62,60,316
1,65,52,0
1,60,60,0
1,69,60,0
1,62,87,318
1,67,82,0
1,70,79,0
1,65,82,0
1,62,36,74
1,67,56,0
1,70,16,0
1,65,48,0
1,69,64,320
1,60,73,0
1,65,64,0
1,58,88,270
1,63,79,0
1,67,88,2
1,63,79,106
1,58,70,0
1,67,79,2
1,62,79,654
1,58,79,4
1,65,79,2
1,60,66,0
1,58,70,108
1,62,70,0
1,60,79,4
1,65,79,0
1,58,88,642
1,63,70,4
1,55,88,0
1,62,79,0
1,60,79,110
1,55,88,0
1,65,88,0
1,58,66,0
1,81,73,2932
1,57,91,6
1,82,73,16
1,58,91,24
1,60,91,14
1,84,73,6
1,63,73,58
1,68,90,0
1,59,82,0
1,64,82,0
1,68,42,80
1,64,44,0
1,63,50,0
1,59,46,0
1,64,60,316
1,68,60,0
1,63,60,0
1,59,52,0
1,59,82,318
1,68,79,0
1,66,87,0
1,63,82,0
1,68,16,74
1,66,36,0
1,63,56,0
1,59,48,0
1,68,64,320
1,66,73,0
1,63,64,0
1,59,64,0
1,63,73,270
1,68,90,0
1,59,82,0
1,64,82,0
1,68,42,80
1,64,44,0
1,63,50,0
1,59,46,0
1,64,60,316
1,68,60,0
1,63,60,0
1,59,52,0
1,64,82,318
1,59,87,0
1,68,79,0
1,63,82,0
1,64,48,74
1,59,36,0
1,68,16,0
1,63,56,0
1,64,64,320
1,59,73,0
1,68,64,0
1,63,64,0
1,63,73,270
1,70,90,0
1,61,82,0
1,66,82,0
1,63,50,80
1,70,42,0
1,66,44,0
1,61,46,0
1,63,60,316
1,66,60,0
1,70,60,0
1,61,52,0
1,63,82,318
1,66,82,0
1,61,87,0
1,70,79,0
1,63,56,74
1,66,48,0
1,61,36,0
1,70,16,0
1,63,64,320
1,66,64,0
1,61,73,0
1,70,64,0
1,68,82,270
1,71,90,0
1,63,73,0
1,66,82,0
1,68,46,80
1,71,42,0
1,63,50,0
1,66,44,0
1,68,52,316
1,71,60,0
1,63,60,0
1,66,60,0
1,63,82,318
1,66,82,0
1,61,87,0
1,70,79,0
1,63,56,74
1,66,48,0
1,61,36,0
1,70,16,0
1,63,64,320
1,66,64,0
1,61,73,0
1,70,64,0
1,71,82,270
1,63,73,0
1,68,90,0
1,71,46,80
1,68,42,0
1,63,50,0
1,71,52,316
1,68,60,0
1,63,60,0
1,71,82,318
1,68,79,0
1,63,82,0
1,71,48,74
1,68,16,0
1,63,56,0
1,71,64,320
1,68,64,0
1,63,64,0
1,63,73,270
1,68,90,0
1,59,82,0
1,64,82,0
1,68,42,80
1,64,44,0
1,63,50,0
1,59,46,0
1,64,60,316
1,70,60,0
1,63,60,0
1,59,52,0
1,64,82,318
1,59,87,0
1,68,79,0
1,63,82,0
1,64,48,74
1,59,36,0
1,68,16,0
1,63,56,0
1,64,64,320
1,59,73,0
1,68,64,0
1,63,64,0
1,63,73,270
1,70,90,0
1,61,82,0
1,66,82,0
1,63,50,80
1,70,42,0
1,66,44,0
1,61,46,0
1,63,60,316
1,66,60,0
1,70,60,0
1,61,52,0
1,63,82,318
1,66,82,0
1,61,87,0
1,70,79,0
1,63,56,74
1,66,48,0
1,61,36,0
1,70,16,0
1,63,64,320
1,66,64,0
1,61,73,0
1,70,64,0
1,68,82,270
1,71,90,0
1,63,73,0
1,66,82,0
1,68,46,80
1,71,42,0
1,63,50,0
1,66,44,0
1,68,52,316
1,71,60,0
1,63,60,0
1,66,60,0
1,63,82,318
1,66,82,0
1,61,87,0
1,70,79,0
1,63,56,74
1,66,48,0
1,61,36,0
1,70,16,0
1,64,82,710
1,59,73,0
1,63,82,0
1,68,90,0
1,64,46,80
1,59,50,0
1,63,44,0
1,68,42,0
1,64,52,316
1,59,60,0
1,63,60,0
1,68,60,0
1,63,82,318
1,68,79,0
1,59,87,0
1,64,82,0
1,63,56,74
1,68,16,0
1,59,36,0
1,64,48,0
1,63,64,320
1,68,64,0
1,59,73,0
1,64,64,0
1,63,82,270
1,66,82,0
1,61,73,0
1,70,90,0
1,63,44,80
1,66,46,0
1,61,50,0
1,70,42,0
1,63,60,316
1,66,52,0
1,61,60,0
1,70,60,0
1,63,87,318
1,68,82,0
1,71,79,0
1,66,82,0
1,63,36,74
1,68,56,0
1,71,16,0
1,66,48,0
1,71,64,320
1,63,73,0
1,66,64,0
1,64,82,270
1,59,73,0
1,63,82,0
1,68,90,0
1,64,46,80
1,59,50,0
1,63,44,0
1,68,42,0
1,64,52,316
1,59,60,0
1,63,60,0
1,68,60,0
1,63,82,318
1,68,79,0
1,59,87,0
1,64,82,0
1,63,56,74
1,68,16,0
1,59,36,0
1,64,48,0
1,63,64,320
1,68,64,0
1,59,73,0
1,64,64,0
1,63,82,270
1,66,82,0
1,61,73,0
1,70,90,0
1,63,44,80
1,66,46,0
1,61,50,0
1,70,42,0
1,63,60,316
1,66,52,0
1,61,60,0
1,70,60,0
1,63,87,318
1,68,82,0
1,71,79,0
1,66,82,0
1,63,36,74
1,68,56,0
1,71,16,0
1,66,48,0
1,68,90,320
1,63,82,0
1,59,73,0
1,64,82,0
1,64,46,98
1,59,50,0
1,63,44,0
1,68,42,0
1,68,42,298
1,63,44,0
1,59,50,0
1,64,46,0
1,64,52,316
1,59,60,0
1,63,60,0
1,68,60,0
1,63,82,318
1,68,79,0
1,59,87,0
1,64,82,0
1,63,56,74
1,68,16,0
1,59,36,0
1,64,48,0
1,63,64,320
1,68,64,0
1,59,73,0
1,64,64,0
1,63,82,270
1,66,82,0
1,61,73,0
1,70,90,0
1,63,44,80
1,66,46,0
1,61,50,0
1,70,42,0
1,63,60,316
1,66,52,0
1,61,60,0
1,70,60,0
1,61,87,318
1,66,82,0
1,70,79,0
1,63,82,0
1,61,36,74
1,66,56,0
1,70,16,0
1,63,48,0
1,70,64,320
1,61,73,0
1,63,64,0
1,59,88,270
1,64,79,0
1,68,88,2
1,64,79,106
1,59,70,0
1,68,79,2
1,63,79,654
1,59,79,4
1,66,79,2
1,61,66,0
1,59,70,108
1,63,70,0
1,61,79,4
1,66,79,0
1,59,88,642
1,64,70,4
1,56,88,0
1,63,79,0
1,61,79,110
1,56,88,0
1,66,88,0
1,59,66,0
2,33,100,20324
2,33,104,66
2,38,100,674
2,38,110,112
2,31,60,39440
2,31,64,140
2,33,82,130
2,35,82,348
2,28,82,370
2,28,91,56
2,33,82,370
2,35,82,364
2,38,82,172
2,40,91,28
2,35,82,18
2,38,100,10
2,33,82,580
2,33,73,332
2,35,82,30
2,33,73,344
2,35,82,74
2,36,82,48
2,33,82,364
2,35,73,90
2,36,82,74
2,38,91,48
2,26,60,1914
2,26,64,68
2,39,82,22
2,39,73,138
2,38,73,88
2,36,82,72
2,39,73,344
2,36,82,294
2,38,82,48
2,31,82,724
2,41,91,344
2,41,91,98
2,39,82,648
2,39,73,138
2,38,73,88
2,36,82,72
2,43,64,344
2,36,82,294
2,26,82,34
2,29,73,348
