track,note,velocity,time
3,66,110,2208
3,66,0,94
3,59,110,2
3,59,0,160
3,59,110,32
3,59,0,94
3,61,110,2
3,61,0,160
3,62,110,32
3,62,0,94
3,61,110,2
3,61,0,448
3,59,110,32
3,59,0,94
3,63,110,2
3,63,0,160
3,63,110,32
3,63,0,94
3,64,110,2
3,64,0,160
3,66,110,32
3,66,0,94
3,67,110,2
3,67,0,448
3,71,110,32
3,71,0,94
3,69,110,2
3,69,0,160
3,69,110,32
3,69,0,94
3,67,110,2
3,67,0,160
3,69,110,32
3,69,0,94
3,66,110,2
3,66,0,160
3,64,110,32
3,64,0,94
3,62,110,2
3,62,0,160
3,66,110,32
3,66,0,94
3,67,110,2
3,67,0,160
3,66,110,32
3,66,0,94
3,62,110,2
3,62,0,160
3,66,110,32
3,66,0,94
3,64,110,2
3,64,0,160
3,62,110,32
3,62,0,94
3,61,110,2
3,61,0,160
3,66,110,32
3,66,0,94
3,59,110,2
3,59,0,160
3,59,110,32
3,59,0,94
3,61,110,2
3,61,0,160
3,62,110,32
3,62,0,94
3,61,110,2
3,61,0,448
3,59,110,32
3,59,0,94
3,63,110,2
3,63,0,160
3,63,110,32
3,63,0,94
3,64,110,2
3,64,0,160
3,66,110,32
3,66,0,94
3,67,110,2
3,67,0,448
3,71,110,32
3,71,0,94
3,69,110,2
3,69,0,160
3,67,110,32
3,67,0,94
3,66,110,2
3,66,0,160
3,64,110,32
3,64,0,94
3,62,110,2
3,62,0,256
3,61,110,32
3,61,0,256
3,59,110,32
3,59,0,958
3,66,110,98
3,66,0,94
3,71,110,2
3,71,0,160
3,71,110,32
3,71,0,94
3,71,110,2
3,71,0,160
3,69,110,32
3,69,0,94
3,68,110,2
3,68,0,448
3,64,110,32
3,64,0,94
3,69,110,2
3,69,0,160
3,69,110,32
3,69,0,94
3,69,110,2
3,69,0,160
3,67,110,32
3,67,0,94
3,66,110,2
3,66,0,448
3,62,110,32
3,62,0,94
3,67,110,2
3,67,0,160
3,67,110,32
3,67,0,94
3,66,110,2
3,66,0,448
3,64,110,32
3,64,0,94
3,61,110,2
3,61,0,160
3,66,110,32
3,66,0,94
3,62,110,2
3,62,0,448
3,61,110,32
3,61,0,94
3,59,110,2
3,59,0,382
3,66,110,98
3,66,0,94
3,71,110,2
3,71,0,160
3,73,110,32
3,73,0,94
3,71,110,2
3,71,0,160
3,69,110,32
3,69,0,94
3,68,110,2
3,68,0,448
3,64,110,32
3,64,0,94
3,69,110,2
3,69,0,160
3,71,110,32
3,71,0,94
3,69,110,2
3,69,0,160
3,67,110,32
3,67,0,94
3,66,110,2
3,66,0,448
3,62,110,32
3,62,0,94
3,67,110,2
3,67,0,160
3,71,110,32
3,71,0,94
3,66,110,2
3,66,0,448
3,64,110,32
3,64,0,94
3,62,110,2
3,62,0,160
3,61,110,32
3,61,0,94
3,59,110,2
3,59,0,832
3,66,110,224
3,66,0,94
3,59,110,2
3,59,0,160
3,59,110,32
3,59,0,94
3,61,110,2
3,61,0,160
3,62,110,32
3,62,0,94
3,61,110,2
3,61,0,448
3,59,110,32
3,59,0,94
3,63,110,2
3,63,0,160
3,63,110,32
3,63,0,94
3,64,110,2
3,64,0,160
3,66,110,32
3,66,0,94
3,67,110,2
3,67,0,448
3,71,110,32
3,71,0,94
3,69,110,2
3,69,0,160
3,69,110,32
3,69,0,94
3,67,110,2
3,67,0,160
3,69,110,32
3,69,0,94
3,66,110,2
3,66,0,160
3,64,110,32
3,64,0,94
3,62,110,2
3,62,0,160
3,66,110,32
3,66,0,94
3,67,110,2
3,67,0,160
3,66,110,32
3,66,0,94
3,62,110,2
3,62,0,160
3,66,110,32
3,66,0,94
3,64,110,2
3,64,0,160
3,62,110,32
3,62,0,94
3,61,110,2
3,61,0,160
3,66,110,32
3,66,0,94
3,59,110,2
3,59,0,160
3,59,110,32
3,59,0,94
3,61,110,2
3,61,0,160
3,62,110,32
3,62,0,94
3,61,110,2
3,61,0,448
3,59,110,32
3,59,0,94
3,63,110,2
3,63,0,160
3,63,110,32
3,63,0,94
3,64,110,2
3,64,0,160
3,66,110,32
3,66,0,94
3,67,110,2
3,67,0,448
3,71,110,32
3,71,0,94
3,69,110,2
3,69,0,160
3,67,110,32
3,67,0,94
3,66,110,2
3,66,0,160
3,64,110,32
3,64,0,94
3,62,110,2
3,62,0,256
3,61,110,32
3,61,0,256
3,59,110,32
3,59,0,958
3,66,110,98
3,66,0,94
3,71,110,2
3,71,0,160
3,71,110,32
3,71,0,94
3,71,110,2
3,71,0,160
3,69,110,32
3,69,0,94
3,68,110,2
3,68,0,448
3,64,110,32
3,64,0,94
3,69,110,2
3,69,0,160
3,69,110,32
3,69,0,94
3,69,110,2
3,69,0,160
3,67,110,32
3,67,0,94
3,66,110,2
3,66,0,448
3,62,110,32
3,62,0,94
3,67,110,2
3,67,0,160
3,67,110,32
3,67,0,94
3,66,110,2
3,66,0,448
3,64,110,32
3,64,0,94
3,61,110,2
3,61,0,160
3,66,110,32
3,66,0,94
3,62,110,2
3,62,0,448
3,61,110,32
3,61,0,94
3,59,110,2
3,59,0,382
3,66,110,98
3,66,0,94
3,71,110,2
3,71,0,160
3,73,110,32
3,73,0,94
3,71,110,2
3,71,0,160
3,69,110,32
3,69,0,94
3,68,110,2
3,68,0,448
3,64,110,32
3,64,0,94
3,69,110,2
3,69,0,160
3,71,110,32
3,71,0,94
3,69,110,2
3,69,0,160
3,67,110,32
3,67,0,94
3,66,110,2
3,66,0,448
3,62,110,32
3,62,0,94
3,67,110,2
3,67,0,160
3,71,110,32
3,71,0,94
3,66,110,2
3,66,0,448
3,64,110,32
3,64,0,94
3,62,110,2
3,62,0,160
3,61,110,32
3,61,0,94
3,59,110,2
3,59,0,832
3,66,110,224
3,66,0,94
3,59,110,2
3,59,0,160
3,59,110,32
3,59,0,94
3,61,110,2
3,61,0,160
3,62,110,32
3,62,0,94
3,61,110,2
3,61,0,448
3,59,110,32
3,59,0,94
3,63,110,2
3,63,0,160
3,63,110,32
3,63,0,94
3,64,110,2
3,64,0,160
3,66,110,32
3,66,0,94
3,67,110,2
3,67,0,448
3,71,110,32
3,71,0,94
3,69,110,2
3,69,0,160
3,69,110,32
3,69,0,94
3,67,110,2
3,67,0,160
3,69,110,32
3,69,0,94
3,66,110,2
3,66,0,160
3,64,110,32
3,64,0,94
3,62,110,2
3,62,0,160
3,66,110,32
3,66,0,94
3,67,110,2
3,67,0,160
3,66,110,32
3,66,0,94
3,62,110,2
3,62,0,160
3,66,110,32
3,66,0,94
3,64,110,2
3,64,0,160
3,62,110,32
3,62,0,94
3,61,110,2
3,61,0,160
3,66,110,32
3,66,0,94
3,59,110,2
3,59,0,160
3,59,110,32
3,59,0,94
3,61,110,2
3,61,0,160
3,62,110,32
3,62,0,94
3,61,110,2
3,61,0,448
3,59,110,32
3,59,0,94
3,63,110,2
3,63,0,160
3,63,110,32
3,63,0,94
3,64,110,2
3,64,0,160
3,66,110,32
3,66,0,94
3,67,110,2
3,67,0,448
3,71,110,32
3,71,0,94
3,69,110,2
3,69,0,160
3,67,110,32
3,67,0,94
3,66,110,2
3,66,0,160
3,64,110,32
3,64,0,94
3,62,110,2
3,62,0,256
3,61,110,32
3,61,0,256
3,59,110,32
3,59,0,958
3,66,110,98
3,66,0,94
3,71,110,2
3,71,0,160
3,71,110,32
3,71,0,94
3,71,110,2
3,71,0,160
3,69,110,32
3,69,0,94
3,68,110,2
3,68,0,448
3,64,110,32
3,64,0,94
3,69,110,2
3,69,0,160
3,69,110,32
3,69,0,94
3,69,110,2
3,69,0,160
3,67,110,32
3,67,0,94
3,66,110,2
3,66,0,448
3,62,110,32
3,62,0,94
3,67,110,2
3,67,0,160
3,67,110,32
3,67,0,94
3,66,110,2
3,66,0,448
3,64,110,32
3,64,0,94
3,61,110,2
3,61,0,160
3,66,110,32
3,66,0,94
3,62,110,2
3,62,0,448
3,61,110,32
3,61,0,94
3,59,110,2
3,59,0,382
3,66,110,98
3,66,0,94
3,71,110,2
3,71,0,160
3,73,110,32
3,73,0,94
3,71,110,2
3,71,0,160
3,69,110,32
3,69,0,94
3,68,110,2
3,68,0,448
3,64,110,32
3,64,0,94
3,69,110,2
3,69,0,160
3,71,110,32
3,71,0,94
3,69,110,2
3,69,0,160
3,67,110,32
3,67,0,94
3,66,110,2
3,66,0,448
3,62,110,32
3,62,0,94
3,67,110,2
3,67,0,160
3,71,110,32
3,71,0,94
3,66,110,2
3,66,0,448
3,64,110,32
3,64,0,94
3,62,110,2
3,62,0,160
3,61,110,32
3,61,0,94
3,59,110,2
3,59,0,832
3,66,110,224
3,66,0,94
3,59,110,2
3,59,0,160
3,59,110,32
3,59,0,94
3,61,110,2
3,61,0,160
3,62,110,32
3,62,0,94
3,61,110,2
3,61,0,448
3,59,110,32
3,59,0,94
3,63,110,2
3,63,0,160
3,63,110,32
3,63,0,94
3,64,110,2
3,64,0,160
3,66,110,32
3,66,0,94
3,67,110,2
3,67,0,448
3,71,110,32
3,71,0,94
3,69,110,2
3,69,0,160
3,69,110,32
3,69,0,94
3,67,110,2
3,67,0,160
3,69,110,32
3,69,0,94
3,66,110,2
3,66,0,160
3,64,110,32
3,64,0,94
3,62,110,2
3,62,0,160
3,66,110,32
3,66,0,94
3,67,110,2
3,67,0,160
3,66,110,32
3,66,0,94
3,62,110,2
3,62,0,160
3,66,110,32
3,66,0,94
3,64,110,2
3,64,0,160
3,62,110,32
3,62,0,94
3,61,110,2
3,61,0,160
3,66,110,32
3,66,0,94
3,59,110,2
3,59,0,160
3,59,110,32
3,59,0,94
3,61,110,2
3,61,0,160
3,62,110,32
3,62,0,94
3,61,110,2
3,61,0,448
3,59,110,32
3,59,0,94
3,63,110,2
3,63,0,160
3,63,110,32
3,63,0,94
3,64,110,2
3,64,0,160
3,66,110,32
3,66,0,94
3,67,110,2
3,67,0,448
3,71,110,32
3,71,0,94
3,69,110,2
3,69,0,160
3,67,110,32
3,67,0,94
3,66,110,2
3,66,0,160
3,64,110,32
3,64,0,94
3,62,110,2
3,62,0,256
3,61,110,32
3,61,0,256
3,59,110,32
3,59,0,160
4,59,110,0
4,50,110,192
4,54,110,0
4,54,0,94
4,50,0,0
4,50,110,194
4,54,110,0
4,54,0,94
4,50,0,0
4,50,110,194
4,54,110,0
4,54,0,94
4,50,0,0
4,50,110,194
4,54,110,0
4,54,0,94
4,50,0,0
4,50,110,194
4,54,110,0
4,54,0,94
4,50,0,0
4,50,110,194
4,54,110,0
4,54,0,94
4,50,0,0
4,50,110,194
4,54,110,0
4,54,0,94
4,50,0,0
4,59,0,96
4,59,110,98
4,62,110,0
4,66,110,0
4,66,0,94
4,62,0,0
4,59,0,0
4,59,110,2
4,59,0,160
4,50,110,32
4,54,110,0
4,59,110,0
4,59,0,94
4,54,0,0
4,50,0,0
4,61,110,2
4,61,0,160
4,50,110,32
4,54,110,0
4,62,110,0
4,62,0,94
4,54,0,0
4,50,0,0
4,61,110,2
4,53,110,192
4,56,110,0
4,56,0,94
4,53,0,0
4,61,0,162
4,52,110,32
4,54,110,0
4,59,110,0
4,59,0,94
4,54,0,0
4,52,0,0
4,63,110,2
4,63,0,160
4,54,110,32
4,57,110,0
4,63,110,0
4,63,0,94
4,57,0,0
4,54,0,0
4,64,110,2
4,64,0,160
4,57,110,32
4,63,110,0
4,66,110,0
4,66,0,94
4,63,0,0
4,57,0,0
4,67,110,2
4,59,110,192
4,64,110,0
4,64,0,94
4,59,0,0
4,67,0,162
4,59,110,32
4,64,110,0
4,71,110,0
4,71,0,94
4,64,0,0
4,59,0,0
4,69,110,2
4,69,0,160
4,61,110,32
4,64,110,0
4,69,110,0
4,69,0,94
4,64,0,0
4,61,0,0
4,67,110,2
4,67,0,160
4,61,110,32
4,64,110,0
4,69,110,0
4,69,0,94
4,64,0,0
4,61,0,0
4,66,110,2
4,66,0,160
4,57,110,32
4,64,110,0
4,64,0,94
4,57,0,0
4,62,110,2
4,62,0,160
4,57,110,32
4,62,110,0
4,66,110,0
4,66,0,94
4,62,0,0
4,57,0,0
4,67,110,2
4,67,0,160
4,55,110,32
4,59,110,0
4,66,110,0
4,66,0,94
4,59,0,0
4,55,0,0
4,62,110,2
4,62,0,160
4,55,110,32
4,59,110,0
4,66,110,0
4,66,0,94
4,59,0,0
4,55,0,0
4,64,110,2
4,64,0,160
4,54,110,32
4,58,110,0
4,62,110,0
4,62,0,94
4,58,0,0
4,54,0,0
4,61,110,2
4,61,0,160
4,54,110,32
4,58,110,0
4,66,110,0
4,66,0,94
4,58,0,0
4,54,0,0
4,59,110,2
4,59,0,160
4,50,110,32
4,54,110,0
4,59,110,0
4,59,0,94
4,54,0,0
4,50,0,0
4,61,110,2
4,61,0,160
4,50,110,32
4,54,110,0
4,62,110,0
4,62,0,94
4,54,0,0
4,50,0,0
4,61,110,2
4,53,110,192
4,56,110,0
4,56,0,94
4,53,0,0
4,61,0,162
4,52,110,32
4,54,110,0
4,59,110,0
4,59,0,94
4,54,0,0
4,52,0,0
4,63,110,2
4,63,0,160
4,54,110,32
4,57,110,0
4,63,110,0
4,63,0,94
4,57,0,0
4,54,0,0
4,64,110,2
4,64,0,160
4,57,110,32
4,63,110,0
4,66,110,0
4,66,0,94
4,63,0,0
4,57,0,0
4,67,110,2
4,59,110,192
4,64,110,0
4,64,0,94
4,59,0,0
4,67,0,162
4,59,110,32
4,64,110,0
4,71,110,0
4,71,0,94
4,64,0,0
4,59,0,0
4,69,110,2
4,69,0,160
4,57,110,32
4,61,110,0
4,67,110,0
4,67,0,94
4,61,0,0
4,57,0,0
4,66,110,2
4,66,0,160
4,55,110,32
4,61,110,0
4,64,110,0
4,64,0,94
4,61,0,0
4,55,0,0
4,62,110,2
4,54,110,192
4,57,110,0
4,62,0,64
4,57,0,30
4,54,0,0
4,61,110,2
4,52,110,192
4,58,110,0
4,61,0,64
4,58,0,30
4,52,0,0
4,59,110,2
4,50,110,192
4,54,110,0
4,54,0,94
4,50,0,0
4,50,110,194
4,54,110,0
4,54,0,94
4,50,0,0
4,50,110,194
4,54,110,0
4,54,0,94
4,50,0,0
4,59,0,96
4,59,110,98
4,62,110,0
4,66,110,0
4,66,0,94
4,62,0,0
4,59,0,0
4,71,110,2
4,71,0,160
4,59,110,32
4,63,110,0
4,71,110,0
4,71,0,94
4,63,0,0
4,59,0,0
4,71,110,2
4,71,0,160
4,59,110,32
4,63,110,0
4,69,110,0
4,69,0,94
4,63,0,0
4,59,0,0
4,68,110,2
4,59,110,192
4,62,110,0
4,62,0,94
4,59,0,0
4,68,0,162
4,59,110,32
4,62,110,0
4,64,110,0
4,64,0,94
4,62,0,0
4,59,0,0
4,69,110,2
4,69,0,160
4,57,110,32
4,61,110,0
4,69,110,0
4,69,0,94
4,61,0,0
4,57,0,0
4,69,110,2
4,69,0,160
4,57,110,32
4,61,110,0
4,67,110,0
4,67,0,94
4,61,0,0
4,57,0,0
4,66,110,2
4,54,110,192
4,57,110,0
4,57,0,94
4,54,0,0
4,66,0,162
4,54,110,32
4,57,110,0
4,62,110,0
4,62,0,94
4,57,0,0
4,54,0,0
4,67,110,2
4,67,0,160
4,59,110,32
4,62,110,0
4,67,110,0
4,67,0,94
4,62,0,0
4,59,0,0
4,66,110,2
4,59,110,192
4,62,110,0
4,62,0,94
4,59,0,0
4,66,0,162
4,54,110,32
4,58,110,0
4,64,110,0
4,64,0,94
4,58,0,0
4,54,0,0
4,61,110,2
4,61,0,160
4,54,110,32
4,58,110,0
4,66,110,0
4,66,0,94
4,58,0,0
4,54,0,0
4,62,110,2
4,54,110,192
4,59,110,0
4,59,0,94
4,54,0,0
4,62,0,162
4,50,110,32
4,54,110,0
4,61,110,0
4,61,0,94
4,54,0,0
4,50,0,0
4,59,110,2
4,50,110,192
4,54,110,0
4,54,0,94
4,50,0,0
4,59,0,96
4,59,110,98
4,62,110,0
4,66,110,0
4,66,0,94
