track,note,velocity,time
3,59,100,4032
3,50,100,0
3,59,100,0
3,64,100,0
3,64,100,0
3,66,100,0
3,64,100,0
3,62,100,0
3,66,100,0
3,64,100,0
3,66,100,0
3,67,100,0
3,69,100,0
3,66,100,0
3,71,100,192
3,71,100,0
3,71,100,0
3,69,100,0
3,69,100,0
3,66,100,0
3,62,100,0
3,64,100,0
3,66,100,0
3,64,100,0
3,62,100,0
3,59,100,0
3,57,100,0
3,54,100,0
3,71,100,192
3,71,100,0
3,71,100,0
3,69,100,0
3,69,100,0
3,66,100,0
3,62,100,0
3,64,100,0
3,66,100,0
3,64,100,0
3,62,100,0
3,59,100,0
3,57,100,0
3,59,100,0
3,59,100,192
3,54,100,0
3,59,100,0
3,64,100,0
3,64,100,0
3,66,100,0
3,64,100,0
3,62,100,0
3,66,100,0
3,64,100,0
3,66,100,0
3,67,100,0
3,69,100,0
3,66,100,0
3,71,100,192
3,71,100,0
3,71,100,0
3,69,100,0
3,69,100,0
3,66,100,0
3,62,100,0
3,64,100,0
3,66,100,0
3,64,100,0
3,62,100,0
3,59,100,0
3,57,100,0
3,54,100,0
3,71,100,192
3,71,100,0
3,71,100,0
3,69,100,0
3,69,100,0
3,66,100,0
3,62,100,0
3,64,100,0
3,66,100,0
3,64,100,0
3,62,100,0
3,59,100,0
3,57,100,0
3,59,100,0
3,59,100,192
3,54,100,0
3,59,100,0
3,64,100,0
3,64,100,0
3,66,100,0
3,64,100,0
3,62,100,0
3,66,100,0
3,64,100,0
3,66,100,0
3,67,100,0
3,69,100,0
3,66,100,0
3,71,100,192
3,71,100,0
3,71,100,0
3,69,100,0
3,69,100,0
3,66,100,0
3,62,100,0
3,64,100,0
3,66,100,0
3,64,100,0
3,62,100,0
3,59,100,0
3,57,100,0
3,54,100,0
3,71,100,192
3,71,100,0
3,71,100,0
3,69,100,0
3,69,100,0
3,66,100,0
3,62,100,0
3,64,100,0
3,66,100,0
3,64,100,0
3,62,100,0
3,59,100,0
3,57,100,0
3,59,100,0
3,59,100,192
3,54,100,0
3,59,100,0
3,64,100,0
3,64,100,0
3,66,100,0
3,64,100,0
3,62,100,0
3,66,100,0
3,64,100,0
3,66,100,0
3,67,100,0
3,69,100,0
3,66,100,0
3,71,100,192
3,71,100,0
3,71,100,0
3,69,100,0
3,69,100,0
3,66,100,0
3,62,100,0
3,64,100,0
3,66,100,0
3,64,100,0
3,62,100,0
3,59,100,0
3,57,100,0
3,54,100,0
3,71,100,192
3,71,100,0
3,71,100,0
3,69,100,0
3,69,100,0
3,66,100,0
3,62,100,0
3,64,100,0
3,66,100,0
3,64,100,0
3,62,100,0
3,59,100,0
3,57,100,0
3,59,100,0
3,59,100,192
3,54,100,0
3,59,100,0
3,64,100,0
3,64,100,0
3,66,100,0
3,64,100,0
3,62,100,0
3,66,100,0
3,64,100,0
3,66,100,0
3,67,100,0
3,69,100,0
3,66,100,0
3,71,100,192
3,71,100,0
3,71,100,0
3,69,100,0
3,69,100,0
3,66,100,0
3,62,100,0
3,64,100,0
3,66,100,0
3,64,100,0
3,62,100,0
3,59,100,0
3,57,100,0
3,54,100,0
3,71,100,192
3,71,100,0
3,71,100,0
3,69,100,0
3,69,100,0
3,66,100,0
3,62,100,0
3,64,100,0
3,66,100,0
3,64,100,0
3,62,100,0
3,59,100,0
3,57,100,0
3,59,100,0
3,59,100,192
3,54,100,0
3,59,100,0
3,64,100,0
3,64,100,0
3,66,100,0
3,64,100,0
3,62,100,0
3,66,100,0
3,64,100,0
3,66,100,0
3,67,100,0
3,69,100,0
3,66,100,0
3,71,100,192
3,71,100,0
3,71,100,0
3,69,100,0
3,69,100,0
3,66,100,0
3,62,100,0
3,64,100,0
3,66,100,0
3,64,100,0
3,62,100,0
3,59,100,0
3,57,100,0
3,54,100,0
3,71,100,192
3,71,100,0
3,71,100,0
3,69,100,0
3,69,100,0
3,66,100,0
3,62,100,0
3,64,100,0
3,66,100,0
3,64,100,0
3,62,100,0
3,59,100,0
3,57,100,0
3,59,100,0
3,59,100,192
3,54,100,0
3,59,100,0
3,64,100,0
3,64,100,0
3,66,100,0
3,64,100,0
3,62,100,0
3,66,100,0
3,64,100,0
3,66,100,0
3,67,100,0
3,69,100,0
3,66,100,0
3,71,100,192
3,71,100,0
3,71,100,0
3,69,100,0
3,69,100,0
3,66,100,0
3,62,100,0
3,64,100,0
3,66,100,0
3,64,100,0
3,62,100,0
3,59,100,0
3,57,100,0
3,54,100,0
3,71,100,192
3,71,100,0
3,71,100,0
3,69,100,0
3,69,100,0
3,66,100,0
3,62,100,0
3,64,100,0
3,66,100,0
3,64,100,0
3,62,100,0
3,59,100,0
3,57,100,0
3,59,100,0
3,59,100,192
3,54,100,0
3,59,100,0
3,64,100,0
3,64,100,0
3,66,100,0
3,64,100,0
3,62,100,0
3,66,100,0
3,64,100,0
3,66,100,0
3,67,100,0
3,69,100,0
3,66,100,0
3,71,100,192
3,71,100,0
3,71,100,0
3,69,100,0
3,69,100,0
3,66,100,0
3,62,100,0
3,64,100,0
3,66,100,0
3,64,100,0
3,62,100,0
3,59,100,0
3,57,100,0
3,54,100,0
3,71,100,192
3,71,100,0
3,71,100,0
3,69,100,0
3,69,100,0
3,66,100,0
3,62,100,0
3,64,100,0
3,66,100,0
3,64,100,0
3,62,100,0
3,59,100,0
3,57,100,0
3,59,100,0
3,59,100,192
3,54,100,0
3,59,100,0
3,64,100,0
3,64,100,0
3,66,100,0
3,64,100,0
3,62,100,0
3,66,100,0
3,64,100,0
3,66,100,0
3,67,100,0
3,69,100,0
3,66,100,0
3,71,100,192
3,71,100,0
3,71,100,0
3,69,100,0
3,69,100,0
3,66,100,0
3,62,100,0
3,64,100,0
3,66,100,0
3,64,100,0
3,62,100,0
3,59,100,0
3,57,100,0
3,54,100,0
3,71,100,192
3,71,100,0
3,71,100,0
3,69,100,0
3,69,100,0
3,66,100,0
3,62,100,0
3,64,100,0
3,66,100,0
3,64,100,0
3,62,100,0
3,59,100,0
3,57,100,0
3,59,100,0
3,59,100,192
3,54,100,0
3,59,100,0
3,64,100,0
3,64,100,0
3,66,100,0
3,64,100,0
3,62,100,0
3,66,100,0
3,64,100,0
3,66,100,0
3,67,100,0
3,69,100,0
3,66,100,0
3,71,100,192
3,71,100,0
3,71,100,0
3,69,100,0
3,69,100,0
3,66,100,0
3,62,100,0
3,64,100,0
3,66,100,0
3,64,100,0
3,62,100,0
3,59,100,0
3,57,100,0
3,54,100,0
3,71,100,192
3,71,100,0
3,71,100,0
3,69,100,0
3,69,100,0
3,66,100,0
3,62,100,0
3,64,100,0
3,66,100,0
3,64,100,0
3,62,100,0
3,59,100,0
3,57,100,0
3,59,100,0
3,59,100,192
3,54,100,0
3,59,100,0
3,64,100,0
3,64,100,0
3,66,100,0
3,64,100,0
3,62,100,0
3,66,100,0
3,64,100,0
3,66,100,0
3,67,100,0
3,69,100,0
3,66,100,0
3,71,100,192
3,71,100,0
3,71,100,0
3,69,100,0
3,69,100,0
3,66,100,0
3,62,100,0
3,64,100,0
3,66,100,0
3,64,100,0
3,62,100,0
3,59,100,0
3,57,100,0
3,54,100,0
3,71,100,192
3,71,100,0
3,71,100,0
3,69,100,0
3,69,100,0
3,66,100,0
3,62,100,0
3,64,100,0
3,66,100,0
3,64,100,0
3,62,100,0
3,59,100,0
3,57,100,0
3,59,100,0
4,83,100,0
4,78,100,0
4,71,100,0
4,81,100,0
4,76,100,0
4,69,100,0
4,78,100,0
4,73,100,0
4,66,100,0
4,74,100,0
4,69,100,0
4,62,100,0
4,76,100,0
4,71,100,0
4,64,100,0
4,74,100,0
4,69,100,0
4,62,100,0
4,71,100,0
4,66,100,0
4,62,100,0
4,59,100,0
4,59,100,192
4,54,100,0
4,59,100,0
4,64,100,0
4,55,100,0
4,59,100,0
4,64,100,0
4,66,100,0
4,58,100,0
4,61,100,0
4,64,100,0
4,54,100,0
4,59,100,0
4,62,100,0
4,66,100,0
4,59,100,0
4,62,100,0
4,64,100,0
4,66,100,0
4,61,100,0
4,64,100,0
4,67,100,0
4,69,100,0
4,57,100,0
4,62,100,0
4,66,100,0
4,62,100,192
4,66,100,0
4,71,100,0
4,71,100,0
4,71,100,0
4,69,100,0
4,62,100,0
4,66,100,0
4,69,100,0
4,66,100,0
4,57,100,0
4,62,100,0
4,55,100,0
4,60,100,0
4,64,100,0
4,66,100,0
4,55,100,0
4,60,100,0
4,64,100,0
4,62,100,0
4,62,100,0
4,57,100,0
4,54,100,0
4,71,100,192
4,62,100,0
4,66,100,0
4,71,100,0
4,71,100,0
4,62,100,0
4,66,100,0
4,69,100,0
4,69,100,0
4,57,100,0
4,66,100,0
4,62,100,0
4,55,100,0
4,60,100,0
4,64,100,0
4,66,100,0
4,55,100,0
4,60,100,0
4,64,100,0
4,62,100,0
4,59,100,0
4,57,100,0
4,59,100,0
4,59,100,192
4,54,100,0
4,59,100,0
4,64,100,0
4,55,100,0
4,59,100,0
4,64,100,0
4,66,100,0
4,58,100,0
4,61,100,0
4,64,100,0
4,54,100,0
4,59,100,0
4,62,100,0
4,66,100,0
4,59,100,0
4,62,100,0
4,64,100,0
4,66,100,0
4,61,100,0
4,64,100,0
4,67,100,0
4,69,100,0
4,57,100,0
4,62,100,0
4,66,100,0
4,62,100,192
4,66,100,0
4,71,100,0
4,71,100,0
4,71,100,0
4,69,100,0
4,62,100,0
4,66,100,0
4,69,100,0
4,66,100,0
4,57,100,0
4,62,100,0
4,55,100,0
4,60,100,0
4,64,100,0
4,66,100,0
4,55,100,0
4,60,100,0
4,64,100,0
4,62,100,0
4,62,100,0
4,57,100,0
4,54,100,0
4,71,100,192
4,62,100,0
4,66,100,0
4,71,100,0
4,71,100,0
4,62,100,0
4,66,100,0
4,69,100,0
4,69,100,0
4,57,100,0
4,66,100,0
4,62,100,0
4,55,100,0
4,60,100,0
4,64,100,0
4,66,100,0
4,55,100,0
4,60,100,0
4,64,100,0
4,62,100,0
4,59,100,0
4,57,100,0
4,59,100,0
4,59,100,192
4,54,100,0
4,59,100,0
4,64,100,0
4,55,100,0
4,59,100,0
4,64,100,0
4,66,100,0
4,58,100,0
4,61,100,0
4,64,100,0
4,54,100,0
4,59,100,0
4,62,100,0
4,66,100,0
4,59,100,0
4,62,100,0
4,64,100,0
4,66,100,0
4,61,100,0
4,64,100,0
4,67,100,0
4,69,100,0
4,57,100,0
4,62,100,0
4,66,100,0
4,62,100,192
4,66,100,0
4,71,100,0
4,71,100,0
4,71,100,0
4,69,100,0
4,62,100,0
4,66,100,0
4,69,100,0
4,66,100,0
4,57,100,0
4,62,100,0
4,55,100,0
4,60,100,0
4,64,100,0
4,66,100,0
4,55,100,0
4,60,100,0
4,64,100,0
4,62,100,0
4,62,100,0
4,57,100,0
4,54,100,0
4,71,100,192
4,62,100,0
4,66,100,0
4,71,100,0
4,71,100,0
4,62,100,0
4,66,100,0
4,69,100,0
4,69,100,0
4,57,100,0
4,66,100,0
4,62,100,0
4,55,100,0
4,60,100,0
4,64,100,0
4,66,100,0
4,55,100,0
4,60,100,0
4,64,100,0
4,62,100,0
4,59,100,0
4,57,100,0
4,59,100,0
4,59,100,192
4,54,100,0
4,59,100,0
4,64,100,0
4,55,100,0
4,59,100,0
4,64,100,0
4,66,100,0
4,58,100,0
4,61,100,0
4,64,100,0
4,54,100,0
4,59,100,0
4,62,100,0
4,66,100,0
4,59,100,0
4,62,100,0
4,64,100,0
4,66,100,0
4,61,100,0
4,64,100,0
4,67,100,0
4,69,100,0
4,57,100,0
4,62,100,0
4,66,100,0
4,62,100,192
4,66,100,0
4,71,100,0
4,71,100,0
4,71,100,0
4,69,100,0
4,62,100,0
4,66,100,0
4,69,100,0
4,66,100,0
4,57,100,0
4,62,100,0
4,55,100,0
4,60,100,0
4,64,100,0
4,66,100,0
4,55,100,0
4,60,100,0
4,64,100,0
4,62,100,0
4,62,100,0
4,57,100,0
4,54,100,0
4,71,100,192
4,62,100,0
4,66,100,0
4,71,100,0
4,71,100,0
4,62,100,0
4,66,100,0
4,69,100,0
4,69,100,0
4,57,100,0
4,66,100,0
4,62,100,0
4,55,100,0
4,60,100,0
4,64,100,0
4,66,100,0
4,55,100,0
4,60,100,0
4,64,100,0
4,62,100,0
4,59,100,0
4,57,100,0
4,59,100,0
4,59,100,192
4,54,100,0
4,59,100,0
4,64,100,0
4,55,100,0
4,59,100,0
4,64,100,0
4,66,100,0
4,58,100,0
4,61,100,0
4,64,100,0
4,54,100,0
4,59,100,0
4,62,100,0
4,66,100,0
4,59,100,0
4,62,100,0
4,64,100,0
4,66,100,0
4,61,100,0
4,64,100,0
4,67,100,0
4,69,100,0
4,57,100,0
4,62,100,0
4,66,100,0
4,62,100,192
4,66,100,0
4,71,100,0
4,71,100,0
4,71,100,0
4,69,100,0
4,62,100,0
4,66,100,0
4,69,100,0
4,66,100,0
4,57,100,0
4,62,100,0
4,55,100,0
4,60,100,0
4,64,100,0
4,66,100,0
4,55,100,0
4,60,100,0
4,64,100,0
4,62,100,0
4,62,100,0
4,57,100,0
4,54,100,0
4,71,100,192
4,62,100,0
4,66,100,0
4,71,100,0
4,71,100,0
4,62,100,0
4,66,100,0
4,69,100,0
4,69,100,0
4,57,100,0
4,66,100,0
4,62,100,0
4,55,100,0
4,60,100,0
4,64,100,0
4,66,100,0
4,55,100,0
4,60,100,0
4,64,100,0
4,62,100,0
4,59,100,0
4,57,100,0
4,59,100,0
4,59,100,192
4,54,100,0
4,59,100,0
4,64,100,0
4,55,100,0
4,59,100,0
4,64,100,0
4,66,100,0
4,58,100,0
4,61,100,0
4,64,100,0
4,54,100,0
4,59,100,0
4,62,100,0
4,66,100,0
4,59,100,0
4,62,100,0
4,64,100,0
4,66,100,0
4,61,100,0
4,64,100,0
4,67,100,0
4,69,100,0
4,57,100,0
4,62,100,0
4,66,100,0
4,62,100,192
4,66,100,0
4,71,100,0
4,71,100,0
4,71,100,0
4,69,100,0
4,62,100,0
4,66,100,0
4,69,100,0
4,66,100,0
4,57,100,0
4,62,100,0
4,55,100,0
4,60,100,0
4,64,100,0
4,66,100,0
4,55,100,0
4,60,100,0
4,64,100,0
4,62,100,0
4,62,100,0
4,57,100,0
4,54,100,0
4,71,100,192
4,62,100,0
4,66,100,0
4,71,100,0
4,71,100,0
4,62,100,0
4,66,100,0
4,69,100,0
4,69,100,0
4,57,100,0
4,66,100,0
4,62,100,0
4,55,100,0
4,60,100,0
4,64,100,0
4,66,100,0
4,55,100,0
4,60,100,0
4,64,100,0
4,62,100,0
4,59,100,0
4,57,100,0
4,59,100,0
4,59,100,192
4,54,100,0
4,59,100,0
4,64,100,0
4,55,100,0
4,59,100,0
4,64,100,0
4,66,100,0
4,58,100,0
4,61,100,0
4,64,100,0
4,54,100,0
4,59,100,0
4,62,100,0
4,66,100,0
4,59,100,0
4,62,100,0
4,64,100,0
4,66,100,0
4,61,100,0
4,64,100,0
4,67,100,0
4,69,100,0
4,57,100,0
4,62,100,0
4,66,100,0
4,62,100,192
4,66,100,0
4,71,100,0
4,71,100,0
4,71,100,0
4,69,100,0
4,62,100,0
4,66,100,0
4,69,100,0
4,66,100,0
4,57,100,0
4,62,100,0
4,55,100,0
4,60,100,0
4,64,100,0
4,66,100,0
4,55,100,0
4,60,100,0
4,64,100,0
4,62,100,0
4,62,100,0
4,57,100,0
4,54,100,0
4,71,100,192
4,62,100,0
4,66,100,0
4,71,100,0
4,71,100,0
4,62,100,0
4,66,100,0
4,69,100,0
4,69,100,0
4,57,100,0
4,66,100,0
4,62,100,0
4,55,100,0
4,60,100,0
4,64,100,0
4,66,100,0
4,55,100,0
4,60,100,0
4,64,100,0
4,62,100,0
4,59,100,0
4,57,100,0
4,59,100,0
4,59,100,192
4,54,100,0
4,59,100,0
4,64,100,0
4,55,100,0
4,59,100,0
4,64,100,0
4,66,100,0
4,58,100,0
4,61,100,0
4,64,100,0
4,54,100,0
