track,note,velocity,time
3,59,110,2880
3,59,0,94
3,59,110,2
3,59,0,94
3,62,110,2
3,62,0,94
3,62,110,2
3,62,0,94
3,64,110,2
3,64,0,94
3,64,110,2
3,64,0,94
3,66,110,2
3,66,0,160
3,62,110,32
3,62,0,94
3,64,110,2
3,64,0,94
3,66,110,2
3,66,0,544
3,71,110,32
3,71,0,94
3,71,110,2
3,71,0,94
3,62,110,2
3,62,0,94
3,62,110,2
3,62,0,94
3,64,110,2
3,64,0,94
3,64,110,2
3,64,0,94
3,66,110,2
3,66,0,160
3,62,110,32
3,62,0,94
3,64,110,2
3,64,0,94
3,66,110,2
3,66,0,544
3,62,110,32
3,62,0,94
3,66,110,2
3,66,0,94
3,71,110,2
3,71,0,94
3,71,110,2
3,71,0,94
3,69,110,2
3,69,0,94
3,67,110,2
3,67,0,94
3,66,110,2
3,66,0,94
3,62,110,2
3,62,0,94
3,74,110,2
3,74,0,94
3,73,110,2
3,73,0,94
3,71,110,2
3,71,0,94
3,69,110,2
3,69,0,94
3,66,110,2
3,66,0,94
3,67,110,2
3,67,0,94
3,64,110,2
3,64,0,160
3,64,110,32
3,64,0,94
3,64,110,2
3,64,0,94
3,69,110,2
3,69,0,94
3,67,110,2
3,67,0,94
3,65,110,2
3,65,0,94
3,63,110,2
3,63,0,94
3,62,110,2
3,62,0,94
3,58,110,2
3,58,0,94
3,70,110,2
3,70,0,94
3,69,110,2
3,69,0,94
3,67,110,2
3,67,0,94
3,66,110,2
3,66,0,94
3,61,110,2
3,61,0,94
3,62,110,2
3,62,0,94
3,59,110,2
3,59,0,160
3,59,110,1184
3,59,0,94
3,59,110,2
3,59,0,94
3,62,110,2
3,62,0,94
3,62,110,2
3,62,0,94
3,64,110,2
3,64,0,94
3,64,110,2
3,64,0,94
3,66,110,2
3,66,0,160
3,62,110,32
3,62,0,94
3,64,110,2
3,64,0,94
3,66,110,2
3,66,0,544
3,71,110,32
3,71,0,94
3,71,110,2
3,71,0,94
3,62,110,2
3,62,0,94
3,62,110,2
3,62,0,94
3,64,110,2
3,64,0,94
3,64,110,2
3,64,0,94
3,66,110,2
3,66,0,160
3,62,110,32
3,62,0,94
3,64,110,2
3,64,0,94
3,66,110,2
3,66,0,544
3,62,110,32
3,62,0,94
3,66,110,2
3,66,0,94
3,71,110,2
3,71,0,94
3,71,110,2
3,71,0,94
3,69,110,2
3,69,0,94
3,67,110,2
3,67,0,94
3,66,110,2
3,66,0,94
3,62,110,2
3,62,0,94
3,74,110,2
3,74,0,94
3,73,110,2
3,73,0,94
3,71,110,2
3,71,0,94
3,69,110,2
3,69,0,94
3,66,110,2
3,66,0,94
3,67,110,2
3,67,0,94
3,64,110,2
3,64,0,160
3,64,110,32
3,64,0,94
3,64,110,2
3,64,0,94
3,69,110,2
3,69,0,94
3,67,110,2
3,67,0,94
3,65,110,2
3,65,0,94
3,63,110,2
3,63,0,94
3,62,110,2
3,62,0,94
3,58,110,2
3,58,0,94
3,70,110,2
3,70,0,94
3,69,110,2
3,69,0,94
3,67,110,2
3,67,0,94
3,66,110,2
3,66,0,94
3,61,110,2
3,61,0,94
3,62,110,2
3,62,0,94
3,59,110,2
3,59,0,160
3,59,110,1184
3,59,0,94
3,59,110,2
3,59,0,94
3,62,110,2
3,62,0,94
3,62,110,2
3,62,0,94
3,64,110,2
3,64,0,94
3,64,110,2
3,64,0,94
3,66,110,2
3,66,0,160
3,62,110,32
3,62,0,94
3,64,110,2
3,64,0,94
3,66,110,2
3,66,0,544
3,71,110,32
3,71,0,94
3,71,110,2
3,71,0,94
3,62,110,2
3,62,0,94
3,62,110,2
3,62,0,94
3,64,110,2
3,64,0,94
3,64,110,2
3,64,0,94
3,66,110,2
3,66,0,160
3,62,110,32
3,62,0,94
3,64,110,2
3,64,0,94
3,66,110,2
3,66,0,544
3,62,110,32
3,62,0,94
3,66,110,2
3,66,0,94
3,71,110,2
3,71,0,94
3,71,110,2
3,71,0,94
3,69,110,2
3,69,0,94
3,67,110,2
3,67,0,94
3,66,110,2
3,66,0,94
3,62,110,2
3,62,0,94
3,74,110,2
3,74,0,94
3,73,110,2
3,73,0,94
3,71,110,2
3,71,0,94
3,69,110,2
3,69,0,94
3,66,110,2
3,66,0,94
3,67,110,2
3,67,0,94
3,64,110,2
3,64,0,160
3,64,110,32
3,64,0,94
3,64,110,2
3,64,0,94
3,69,110,2
3,69,0,94
3,67,110,2
3,67,0,94
3,65,110,2
3,65,0,94
3,63,110,2
3,63,0,94
3,62,110,2
3,62,0,94
3,58,110,2
3,58,0,94
3,70,110,2
3,70,0,94
3,69,110,2
3,69,0,94
3,67,110,2
3,67,0,94
3,66,110,2
3,66,0,94
3,61,110,2
3,61,0,94
3,62,110,2
3,62,0,94
3,59,110,2
3,59,0,160
3,59,110,1184
3,59,0,94
3,59,110,2
3,59,0,94
3,62,110,2
3,62,0,94
3,62,110,2
3,62,0,94
3,64,110,2
3,64,0,94
3,64,110,2
3,64,0,94
3,66,110,2
3,66,0,160
3,62,110,32
3,62,0,94
3,64,110,2
3,64,0,94
3,66,110,2
3,66,0,544
3,71,110,32
3,71,0,94
3,71,110,2
3,71,0,94
3,62,110,2
3,62,0,94
3,62,110,2
3,62,0,94
3,64,110,2
3,64,0,94
3,64,110,2
3,64,0,94
3,66,110,2
3,66,0,160
3,62,110,32
3,62,0,94
3,64,110,2
3,64,0,94
3,66,110,2
3,66,0,544
3,62,110,32
3,62,0,94
3,66,110,2
3,66,0,94
3,71,110,2
3,71,0,94
3,71,110,2
3,71,0,94
3,69,110,2
3,69,0,94
3,67,110,2
3,67,0,94
3,66,110,2
3,66,0,94
3,62,110,2
3,62,0,94
3,74,110,2
3,74,0,94
3,73,110,2
3,73,0,94
3,71,110,2
3,71,0,94
3,69,110,2
3,69,0,94
3,66,110,2
3,66,0,94
3,67,110,2
3,67,0,94
3,64,110,2
3,64,0,160
3,64,110,32
3,64,0,94
3,64,110,2
3,64,0,94
3,69,110,2
3,69,0,94
3,67,110,2
3,67,0,94
3,65,110,2
3,65,0,94
3,63,110,2
3,63,0,94
3,62,110,2
3,62,0,94
3,58,110,2
3,58,0,94
3,70,110,2
3,70,0,94
3,69,110,2
3,69,0,94
3,67,110,2
3,67,0,94
3,66,110,2
3,66,0,94
3,61,110,2
3,61,0,94
3,62,110,2
3,62,0,94
3,59,110,2
3,59,0,160
3,59,110,1184
3,59,0,94
3,59,110,2
3,59,0,94
3,62,110,2
3,62,0,94
3,62,110,2
3,62,0,94
3,64,110,2
3,64,0,94
3,64,110,2
3,64,0,94
3,66,110,2
3,66,0,160
3,62,110,32
3,62,0,94
3,64,110,2
3,64,0,94
3,66,110,2
3,66,0,544
3,71,110,32
3,71,0,94
3,71,110,2
3,71,0,94
3,62,110,2
3,62,0,94
3,62,110,2
3,62,0,94
3,64,110,2
3,64,0,94
3,64,110,2
3,64,0,94
3,66,110,2
3,66,0,160
3,62,110,32
3,62,0,94
3,64,110,2
3,64,0,94
3,66,110,2
3,66,0,544
3,62,110,32
3,62,0,94
3,66,110,2
3,66,0,94
3,71,110,2
3,71,0,94
3,71,110,2
3,71,0,94
3,69,110,2
3,69,0,94
3,67,110,2
3,67,0,94
3,66,110,2
3,66,0,94
3,62,110,2
3,62,0,94
3,74,110,2
3,74,0,94
3,73,110,2
3,73,0,94
3,71,110,2
3,71,0,94
3,69,110,2
3,69,0,94
3,66,110,2
3,66,0,94
3,67,110,2
3,67,0,94
3,64,110,2
3,64,0,160
3,64,110,32
3,64,0,94
3,64,110,2
3,64,0,94
3,69,110,2
3,69,0,94
3,67,110,2
3,67,0,94
3,65,110,2
3,65,0,94
3,63,110,2
3,63,0,94
3,62,110,2
3,62,0,94
3,58,110,2
3,58,0,94
3,70,110,2
3,70,0,94
3,69,110,2
3,69,0,94
3,67,110,2
3,67,0,94
3,66,110,2
3,66,0,94
3,61,110,2
3,61,0,94
3,62,110,2
3,62,0,94
3,59,110,2
3,59,0,160
3,59,110,1184
3,59,0,94
3,59,110,2
3,59,0,94
3,62,110,2
3,62,0,94
3,62,110,2
3,62,0,94
3,64,110,2
3,64,0,94
3,64,110,2
3,64,0,94
3,66,110,2
3,66,0,160
3,62,110,32
3,62,0,94
3,64,110,2
3,64,0,94
3,66,110,2
3,66,0,544
3,71,110,32
3,71,0,94
3,71,110,2
3,71,0,94
3,62,110,2
3,62,0,94
3,62,110,2
3,62,0,94
3,64,110,2
3,64,0,94
3,64,110,2
3,64,0,94
3,66,110,2
3,66,0,160
3,62,110,32
3,62,0,94
3,64,110,2
3,64,0,94
3,66,110,2
3,66,0,544
3,62,110,32
3,62,0,94
3,66,110,2
3,66,0,94
3,71,110,2
3,71,0,94
3,71,110,2
3,71,0,94
3,69,110,2
3,69,0,94
3,67,110,2
3,67,0,94
3,66,110,2
3,66,0,94
3,62,110,2
3,62,0,94
3,74,110,2
3,74,0,94
3,73,110,2
3,73,0,94
3,71,110,2
3,71,0,94
3,69,110,2
3,69,0,94
3,66,110,2
3,66,0,94
3,67,110,2
3,67,0,94
3,64,110,2
3,64,0,160
3,64,110,32
3,64,0,94
3,64,110,2
3,64,0,94
3,69,110,2
3,69,0,94
3,67,110,2
3,67,0,94
3,65,110,2
3,65,0,94
3,63,110,2
3,63,0,94
3,62,110,2
3,62,0,94
3,58,110,2
3,58,0,94
3,70,110,2
3,70,0,94
3,69,110,2
3,69,0,94
3,67,110,2
3,67,0,94
3,66,110,2
3,66,0,94
3,61,110,2
3,61,0,94
3,62,110,2
3,62,0,94
3,59,110,2
3,59,0,160
3,59,110,1184
3,59,0,94
3,59,110,2
3,59,0,94
3,62,110,2
3,62,0,94
3,62,110,2
3,62,0,94
3,64,110,2
3,64,0,94
3,64,110,2
3,64,0,94
3,66,110,2
3,66,0,160
3,62,110,32
3,62,0,94
3,64,110,2
3,64,0,94
3,66,110,2
3,66,0,544
3,71,110,32
3,71,0,94
3,71,110,2
3,71,0,94
3,62,110,2
3,62,0,94
3,62,110,2
3,62,0,94
3,64,110,2
3,64,0,94
3,64,110,2
3,64,0,94
3,66,110,2
3,66,0,160
3,62,110,32
3,62,0,94
3,64,110,2
3,64,0,94
3,66,110,2
3,66,0,544
3,62,110,32
3,62,0,94
3,66,110,2
3,66,0,94
3,71,110,2
3,71,0,94
3,71,110,2
3,71,0,94
3,69,110,2
3,69,0,94
3,67,110,2
3,67,0,94
3,66,110,2
3,66,0,94
3,62,110,2
3,62,0,94
3,74,110,2
3,74,0,94
3,73,110,2
3,73,0,94
3,71,110,2
3,71,0,94
3,69,110,2
3,69,0,94
3,66,110,2
3,66,0,94
3,67,110,2
3,67,0,94
3,64,110,2
3,64,0,160
3,64,110,32
3,64,0,94
3,64,110,2
3,64,0,94
3,69,110,2
3,69,0,94
3,67,110,2
3,67,0,94
3,65,110,2
3,65,0,94
3,63,110,2
3,63,0,94
3,62,110,2
3,62,0,94
3,58,110,2
3,58,0,94
3,70,110,2
3,70,0,94
3,69,110,2
3,69,0,94
3,67,110,2
3,67,0,94
3,66,110,2
3,66,0,94
3,61,110,2
3,61,0,94
3,62,110,2
3,62,0,94
3,59,110,2
3,59,0,160
4,71,110,0
4,59,110,96
4,62,110,0
4,59,0,94
4,62,0,0
4,71,0,0
4,69,110,2
4,59,110,96
4,62,110,0
4,59,0,94
4,62,0,0
4,69,0,0
4,67,110,2
4,59,110,96
4,62,110,0
4,59,0,94
4,62,0,0
4,67,0,0
4,66,110,2
4,59,110,96
4,62,110,0
4,59,0,94
4,62,0,0
4,66,0,0
4,59,110,98
4,62,110,0
4,71,110,0
4,59,0,94
4,62,0,0
4,71,0,66
4,59,110,32
4,62,110,0
4,67,110,0
4,59,0,94
4,62,0,0
4,67,0,0
4,66,110,2
4,66,0,94
4,54,110,2
4,59,110,0
4,64,110,0
4,54,0,94
4,59,0,0
4,64,0,0
4,62,110,2
4,62,0,94
4,52,110,2
4,54,110,0
4,61,110,0
4,52,0,94
4,54,0,0
4,61,0,0
4,59,110,98
4,62,110,0
4,71,110,0
4,59,0,94
4,62,0,0
4,71,0,66
4,59,110,32
4,62,110,0
4,67,110,0
4,59,0,94
4,62,0,0
4,67,0,0
4,66,110,2
4,66,0,94
4,54,110,2
4,59,110,0
4,64,110,0
4,54,0,94
4,59,0,0
4,64,0,0
4,62,110,2
4,62,0,94
4,52,110,2
4,54,110,0
4,61,110,0
4,52,0,94
4,54,0,0
4,61,0,0
4,59,110,2
4,59,0,94
4,54,110,2
4,59,110,0
4,62,110,0
4,54,0,94
4,59,0,0
4,62,0,0
4,66,110,2
4,59,110,96
4,62,110,0
4,59,0,94
4,62,0,0
4,66,0,0
4,59,110,98
4,62,110,0
4,59,0,94
4,62,0,0
4,59,110,2
4,59,0,94
4,47,110,2
4,50,110,0
4,59,110,0
4,47,0,94
4,50,0,0
4,59,0,0
4,62,110,2
4,62,0,94
4,54,110,2
4,59,110,0
4,62,110,0
4,54,0,94
4,59,0,0
4,62,0,0
4,64,110,2
4,64,0,94
4,55,110,2
4,61,110,0
4,64,110,0
4,55,0,94
4,61,0,0
4,64,0,0
4,66,110,2
4,57,110,96
4,62,110,0
4,57,0,94
4,62,0,0
4,66,0,0
4,62,110,2
4,62,0,94
4,55,110,2
4,59,110,0
4,64,110,0
4,55,0,94
4,59,0,0
4,64,0,0
4,66,110,2
4,57,110,96
4,62,110,0
4,57,0,94
4,62,0,0
4,57,110,98
4,62,110,0
4,57,0,94
4,62,0,0
4,57,110,98
4,62,110,0
4,57,0,94
4,62,0,0
4,66,0,0
4,71,110,2
4,71,0,94
4,62,110,2
4,66,110,0
4,71,110,0
4,62,0,94
4,66,0,0
4,71,0,0
4,62,110,2
4,62,0,94
4,54,110,2
4,59,110,0
4,62,110,0
4,54,0,94
4,59,0,0
4,62,0,0
4,64,110,2
4,64,0,94
4,55,110,2
4,61,110,0
4,64,110,0
4,55,0,94
4,61,0,0
4,64,0,0
4,66,110,2
4,57,110,96
4,62,110,0
4,57,0,94
4,62,0,0
4,66,0,0
4,62,110,2
4,62,0,94
4,55,110,2
4,59,110,0
4,64,110,0
4,55,0,94
4,59,0,0
4,64,0,0
4,66,110,2
4,57,110,96
4,62,110,0
4,57,0,94
4,62,0,0
4,57,110,98
4,62,110,0
4,57,0,94
4,62,0,0
4,57,110,98
4,62,110,0
4,57,0,94
4,62,0,0
4,66,0,0
4,62,110,2
4,62,0,94
4,57,110,2
4,62,110,0
4,66,110,0
4,57,0,94
4,62,0,0
4,66,0,0
4,71,110,2
4,71,0,94
4,62,110,2
4,66,110,0
4,71,110,0
4,62,0,94
4,66,0,0
4,71,0,0
4,69,110,2
4,69,0,94
4,57,110,2
4,61,110,0
4,67,110,0
4,57,0,94
4,61,0,0
4,67,0,0
4,66,110,2
4,66,0,94
4,54,110,2
4,57,110,0
4,62,110,0
4,54,0,94
4,57,0,0
4,62,0,0
4,74,110,2
4,74,0,94
4,62,110,2
4,66,110,0
4,73,110,0
4,62,0,94
4,66,0,0
4,73,0,0
4,71,110,2
4,71,0,94
4,59,110,2
4,62,110,0
4,69,110,0
4,59,0,94
4,62,0,0
4,69,0,0
4,66,110,2
4,66,0,94
4,59,110,2
4,62,110,0
4,67,110,0
4,59,0,94
4,62,0,0
4,67,0,0
4,64,110,2
4,55,110,96
4,60,110,0
4,55,0,94
4,60,0,0
4,64,0,0
4,64,110,2
4,64,0,94
4,55,110,2
4,60,110,0
4,64,110,0
4,55,0,94
4,60,0,0
4,64,0,0
4,69,110,2
4,69,0,94
4,60,110,2
4,63,110,0
4,67,110,0
4,60,0,94
4,63,0,0
4,67,0,0
4,65,110,2
4,65,0,94
4,57,110,2
4,60,110,0
4,63,110,0
4,57,0,94
4,60,0,0
4,63,0,0
4,62,110,2
4,62,0,94
4,53,110,2
4,58,110,0
4,53,0,94
4,58,0,0
4,70,110,2
4,70,0,94
4,58,110,2
4,62,110,0
4,70,110,0
4,58,0,94
