track,note,velocity,time
4,57,110,18432
4,59,110,64
4,61,110,4
4,66,110,64
4,64,110,4
4,62,110,4
4,61,110,4
4,59,110,4
4,62,110,64
4,61,110,64
4,57,110,64
4,61,110,4
4,59,110,64
4,57,110,256
4,59,110,64
4,61,110,4
4,66,110,64
4,64,110,4
4,62,110,4
4,61,110,4
4,59,110,4
4,61,110,64
4,57,110,4
4,59,110,64
4,57,110,4
4,60,110,0
4,62,110,64
4,64,110,4
4,69,110,64
4,67,110,4
4,65,110,4
4,64,110,4
4,62,110,4
4,65,110,64
4,64,110,64
4,60,110,64
4,64,110,4
4,62,110,64
4,60,110,256
4,62,110,64
4,64,110,4
4,69,110,64
4,67,110,4
4,65,110,4
4,64,110,4
4,62,110,4
4,64,110,64
4,60,110,4
4,62,110,64
4,60,110,4
4,57,110,0
4,59,110,64
4,61,110,4
4,66,110,64
4,64,110,4
4,62,110,4
4,61,110,4
4,59,110,4
4,62,110,64
4,61,110,64
4,57,110,64
4,61,110,4
4,59,110,64
4,57,110,256
4,59,110,64
4,61,110,4
4,66,110,64
4,64,110,4
4,62,110,4
4,61,110,4
4,59,110,4
4,61,110,64
4,57,110,4
4,59,110,64
4,57,110,4
4,60,110,0
4,62,110,64
4,64,110,4
4,69,110,64
4,67,110,4
4,65,110,4
4,64,110,4
4,62,110,4
4,65,110,64
4,64,110,64
4,60,110,64
4,64,110,4
4,62,110,64
4,60,110,256
4,62,110,64
4,64,110,4
4,69,110,64
4,67,110,4
4,65,110,4
4,64,110,4
4,62,110,4
4,64,110,64
4,60,110,4
4,62,110,64
4,60,110,4
4,57,110,0
4,59,110,64
4,61,110,4
4,66,110,64
4,64,110,4
4,62,110,4
4,61,110,4
4,59,110,4
4,62,110,64
4,61,110,64
4,57,110,64
4,61,110,4
4,59,110,64
4,57,110,256
4,59,110,64
4,61,110,4
4,66,110,64
4,64,110,4
4,62,110,4
4,61,110,4
4,59,110,4
4,61,110,64
4,57,110,4
4,59,110,64
4,57,110,4
4,60,110,0
4,62,110,64
4,64,110,4
4,69,110,64
4,67,110,4
4,65,110,4
4,64,110,4
4,62,110,4
4,65,110,64
4,64,110,64
4,60,110,64
4,64,110,4
4,62,110,64
4,60,110,256
4,62,110,64
4,64,110,4
4,69,110,64
4,67,110,4
4,65,110,4
4,64,110,4
4,62,110,4
4,64,110,64
4,60,110,4
4,62,110,64
4,60,110,4
4,57,110,0
4,59,110,64
4,61,110,4
4,66,110,64
4,64,110,4
4,62,110,4
4,61,110,4
4,59,110,4
4,62,110,64
4,61,110,64
4,57,110,64
4,61,110,4
4,59,110,64
4,57,110,256
4,59,110,64
4,61,110,4
4,66,110,64
4,64,110,4
4,62,110,4
4,61,110,4
4,59,110,4
4,61,110,64
4,57,110,4
4,59,110,64
4,57,110,4
4,60,110,0
4,62,110,64
4,64,110,4
4,69,110,64
4,67,110,4
4,65,110,4
4,64,110,4
4,62,110,4
4,65,110,64
4,64,110,64
4,60,110,64
4,64,110,4
4,62,110,64
4,60,110,256
4,62,110,64
4,64,110,4
4,69,110,64
4,67,110,4
4,65,110,4
4,64,110,4
4,62,110,4
4,64,110,64
4,60,110,4
4,62,110,64
4,60,110,4
4,57,110,0
4,59,110,64
4,61,110,4
4,66,110,64
4,64,110,4
4,62,110,4
4,61,110,4
4,59,110,4
4,62,110,64
4,61,110,64
4,57,110,64
4,61,110,4
4,59,110,64
4,57,110,256
4,59,110,64
4,61,110,4
4,66,110,64
4,64,110,4
4,62,110,4
4,61,110,4
4,59,110,4
4,61,110,64
4,57,110,4
4,59,110,64
4,57,110,4
4,57,110,832
4,59,110,64
4,61,110,4
4,66,110,64
4,64,110,4
4,62,110,4
4,61,110,4
4,59,110,4
4,62,110,64
4,61,110,64
4,57,110,64
4,61,110,4
4,59,110,64
4,57,110,256
4,59,110,64
4,61,110,4
4,66,110,64
4,64,110,4
4,62,110,4
4,61,110,4
4,59,110,4
4,61,110,64
4,57,110,4
4,59,110,64
4,57,110,4
4,60,110,832
4,62,110,64
4,64,110,4
4,69,110,64
4,67,110,4
4,65,110,4
4,64,110,4
4,62,110,4
4,65,110,64
4,64,110,64
4,60,110,64
4,64,110,4
4,62,110,64
4,60,110,256
4,62,110,64
4,64,110,4
4,69,110,64
4,67,110,4
4,65,110,4
4,64,110,4
4,62,110,4
4,64,110,64
4,60,110,4
4,62,110,64
4,60,110,4
4,57,110,832
4,59,110,64
4,61,110,4
4,66,110,64
4,64,110,4
4,62,110,4
4,61,110,4
4,59,110,4
4,62,110,64
4,61,110,64
4,57,110,64
4,61,110,4
4,59,110,64
4,57,110,256
4,59,110,64
4,61,110,4
4,66,110,64
4,64,110,4
4,62,110,4
4,61,110,4
4,59,110,4
4,61,110,64
4,57,110,4
4,59,110,64
4,57,110,4
4,60,110,832
4,62,110,64
4,64,110,4
4,69,110,64
4,67,110,4
4,65,110,4
4,64,110,4
4,62,110,4
4,65,110,64
4,64,110,64
4,60,110,64
4,64,110,4
4,62,110,64
4,60,110,256
4,62,110,64
4,64,110,4
4,69,110,64
4,67,110,4
4,65,110,4
4,64,110,4
4,62,110,4
4,64,110,64
4,60,110,4
4,62,110,64
4,60,110,4
4,57,110,832
4,59,110,64
4,61,110,4
4,66,110,64
4,64,110,4
4,62,110,4
4,61,110,4
4,59,110,4
4,62,110,64
4,61,110,64
4,57,110,64
4,61,110,4
4,59,110,64
4,57,110,256
4,59,110,64
4,61,110,4
4,66,110,64
4,64,110,4
4,62,110,4
4,61,110,4
4,59,110,4
4,61,110,64
4,57,110,4
4,59,110,64
4,57,110,4
4,60,110,832
4,62,110,64
4,64,110,4
4,69,110,64
4,67,110,4
4,65,110,4
4,64,110,4
4,62,110,4
4,65,110,64
4,64,110,64
4,60,110,64
4,64,110,4
4,62,110,64
4,60,110,256
4,62,110,64
4,64,110,4
4,69,110,64
4,67,110,4
4,65,110,4
4,64,110,4
4,62,110,4
4,64,110,64
4,60,110,4
4,62,110,64
4,60,110,4
4,57,110,832
4,59,110,64
4,61,110,4
4,66,110,64
4,64,110,4
4,62,110,4
4,61,110,4
4,59,110,4
4,62,110,64
4,61,110,64
4,57,110,64
4,61,110,4
4,59,110,64
4,57,110,256
4,59,110,64
4,61,110,4
4,66,110,64
4,64,110,4
4,62,110,4
4,61,110,4
4,59,110,4
4,61,110,64
4,57,110,4
4,59,110,64
4,57,110,4
4,60,110,832
4,62,110,64
4,64,110,4
4,69,110,64
4,67,110,4
4,65,110,4
4,64,110,4
4,62,110,4
4,65,110,64
4,64,110,64
4,60,110,64
4,64,110,4
4,62,110,64
4,60,110,256
4,62,110,64
4,64,110,4
4,69,110,64
4,67,110,4
4,65,110,4
4,64,110,4
4,62,110,4
4,64,110,64
4,60,110,4
4,62,110,64
4,60,110,4
4,57,110,832
4,59,110,64
4,61,110,4
4,66,110,64
4,64,110,4
4,62,110,4
4,61,110,4
4,59,110,4
4,62,110,64
4,61,110,64
4,57,110,64
4,61,110,4
4,59,110,64
4,57,110,256
4,59,110,64
4,61,110,4
4,66,110,64
4,64,110,4
4,62,110,4
4,61,110,4
4,59,110,4
4,61,110,64
4,57,110,4
4,59,110,64
4,57,110,4
5,49,110,18432
5,57,110,0
5,50,110,64
5,59,110,0
5,52,110,4
5,61,110,0
5,57,110,64
5,66,110,0
5,54,110,4
5,57,110,0
5,64,110,0
5,62,110,4
5,54,110,4
5,57,110,0
5,61,110,0
5,50,110,4
5,54,110,0
5,59,110,0
5,50,110,64
5,54,110,0
5,54,110,4
5,57,110,0
5,62,110,0
5,54,110,64
5,57,110,0
5,54,110,4
5,57,110,0
5,61,110,0
5,54,110,64
5,57,110,0
5,54,110,4
5,57,110,0
5,61,110,0
5,54,110,64
5,57,110,0
5,50,110,4
5,52,110,0
5,56,110,0
5,59,110,0
5,50,110,64
5,52,110,0
5,56,110,0
5,49,110,4
5,57,110,0
5,50,110,64
5,59,110,0
5,52,110,4
5,61,110,0
5,57,110,64
5,66,110,0
5,54,110,4
5,57,110,0
5,64,110,0
5,62,110,4
5,54,110,4
5,57,110,0
5,61,110,0
5,50,110,4
5,54,110,0
5,59,110,0
5,50,110,64
5,54,110,0
5,50,110,4
5,54,110,0
5,50,110,64
5,54,110,0
5,61,110,0
5,50,110,4
5,52,110,0
5,57,110,0
5,50,110,64
5,52,110,0
5,59,110,0
5,49,110,4
5,52,110,0
5,57,110,0
5,59,110,256
5,62,110,0
5,65,110,0
5,67,110,0
5,60,110,0
5,62,110,64
5,55,110,4
5,64,110,0
5,60,110,64
5,69,110,0
5,57,110,4
5,60,110,0
5,67,110,0
5,65,110,4
5,57,110,4
5,60,110,0
5,64,110,0
5,53,110,4
5,57,110,0
5,62,110,0
5,53,110,64
5,57,110,0
5,57,110,4
5,60,110,0
5,65,110,0
5,57,110,64
5,60,110,0
5,57,110,4
5,60,110,0
5,64,110,0
5,57,110,64
5,60,110,0
5,57,110,4
5,60,110,0
5,64,110,0
5,57,110,64
5,60,110,0
5,53,110,4
5,55,110,0
5,59,110,0
5,62,110,0
5,53,110,64
5,55,110,0
5,59,110,0
5,52,110,4
5,60,110,0
5,53,110,64
5,62,110,0
5,55,110,4
5,64,110,0
5,60,110,64
5,69,110,0
5,57,110,4
5,60,110,0
5,67,110,0
5,65,110,4
5,57,110,4
5,60,110,0
5,64,110,0
5,53,110,4
5,57,110,0
5,62,110,0
5,53,110,64
5,57,110,0
5,53,110,4
5,57,110,0
5,53,110,64
5,57,110,0
5,64,110,0
5,53,110,4
5,55,110,0
5,60,110,0
5,53,110,64
5,55,110,0
5,62,110,0
5,52,110,4
5,55,110,0
5,60,110,0
5,56,110,256
5,59,110,0
5,62,110,0
5,64,110,0
5,49,110,0
5,57,110,0
5,50,110,64
5,59,110,0
5,52,110,4
5,61,110,0
5,57,110,64
5,66,110,0
5,54,110,4
5,57,110,0
5,64,110,0
5,62,110,4
5,54,110,4
5,57,110,0
5,61,110,0
5,50,110,4
5,54,110,0
5,59,110,0
5,50,110,64
5,54,110,0
5,54,110,4
5,57,110,0
5,62,110,0
5,54,110,64
5,57,110,0
5,54,110,4
5,57,110,0
5,61,110,0
5,54,110,64
5,57,110,0
5,54,110,4
5,57,110,0
5,61,110,0
5,54,110,64
5,57,110,0
5,50,110,4
5,52,110,0
5,56,110,0
5,59,110,0
5,50,110,64
5,52,110,0
5,56,110,0
5,49,110,4
5,57,110,0
5,50,110,64
5,59,110,0
5,52,110,4
5,61,110,0
5,57,110,64
5,66,110,0
5,54,110,4
5,57,110,0
5,64,110,0
5,62,110,4
5,54,110,4
5,57,110,0
5,61,110,0
5,50,110,4
5,54,110,0
5,59,110,0
5,50,110,64
5,54,110,0
5,50,110,4
5,54,110,0
5,50,110,64
5,54,110,0
5,61,110,0
5,50,110,4
5,52,110,0
5,57,110,0
5,50,110,64
5,52,110,0
5,59,110,0
5,49,110,4
5,52,110,0
5,57,110,0
5,59,110,256
5,62,110,0
5,65,110,0
5,67,110,0
5,60,110,0
5,62,110,64
5,55,110,4
5,64,110,0
5,60,110,64
5,69,110,0
5,57,110,4
5,60,110,0
5,67,110,0
5,65,110,4
5,57,110,4
5,60,110,0
5,64,110,0
5,53,110,4
5,57,110,0
5,62,110,0
5,53,110,64
5,57,110,0
5,57,110,4
5,60,110,0
5,65,110,0
5,57,110,64
5,60,110,0
5,57,110,4
5,60,110,0
5,64,110,0
5,57,110,64
5,60,110,0
5,57,110,4
5,60,110,0
5,64,110,0
5,57,110,64
5,60,110,0
5,53,110,4
5,55,110,0
5,59,110,0
5,62,110,0
5,53,110,64
5,55,110,0
5,59,110,0
5,52,110,4
5,60,110,0
5,53,110,64
5,62,110,0
5,55,110,4
5,64,110,0
5,60,110,64
5,69,110,0
5,57,110,4
5,60,110,0
5,67,110,0
5,65,110,4
5,57,110,4
5,60,110,0
5,64,110,0
5,53,110,4
5,57,110,0
5,62,110,0
5,53,110,64
5,57,110,0
5,53,110,4
5,57,110,0
5,53,110,64
5,57,110,0
5,64,110,0
5,53,110,4
5,55,110,0
5,60,110,0
5,53,110,64
5,55,110,0
5,62,110,0
5,52,110,4
5,55,110,0
5,60,110,0
5,56,110,256
5,59,110,0
5,62,110,0
5,64,110,0
5,49,110,0
5,57,110,0
5,50,110,64
5,59,110,0
5,52,110,4
5,61,110,0
5,57,110,64
5,66,110,0
5,54,110,4
5,57,110,0
5,64,110,0
5,62,110,4
5,54,110,4
5,57,110,0
5,61,110,0
5,50,110,4
5,54,110,0
5,59,110,0
5,50,110,64
5,54,110,0
5,54,110,4
5,57,110,0
5,62,110,0
5,54,110,64
5,57,110,0
5,54,110,4
5,57,110,0
5,61,110,0
5,54,110,64
5,57,110,0
5,54,110,4
5,57,110,0
5,61,110,0
5,54,110,64
5,57,110,0
5,50,110,4
5,52,110,0
5,56,110,0
5,59,110,0
5,50,110,64
5,52,110,0
5,56,110,0
5,49,110,4
5,57,110,0
5,50,110,64
5,59,110,0
5,52,110,4
5,61,110,0
5,57,110,64
5,66,110,0
5,54,110,4
5,57,110,0
5,64,110,0
5,62,110,4
5,54,110,4
5,57,110,0
5,61,110,0
5,50,110,4
5,54,110,0
5,59,110,0
5,50,110,64
5,54,110,0
5,50,110,4
5,54,110,0
5,50,110,64
5,54,110,0
5,61,110,0
5,50,110,4
5,52,110,0
5,57,110,0
5,50,110,64
5,52,110,0
5,59,110,0
5,49,110,4
5,52,110,0
5,57,110,0
5,59,110,256
5,62,110,0
5,65,110,0
5,67,110,0
5,60,110,0
5,62,110,64
5,55,110,4
5,64,110,0
5,60,110,64
5,69,110,0
5,57,110,4
5,60,110,0
5,67,110,0
5,65,110,4
5,57,110,4
5,60,110,0
5,64,110,0
5,53,110,4
5,57,110,0
5,62,110,0
5,53,110,64
5,57,110,0
5,57,110,4
5,60,110,0
5,65,110,0
5,57,110,64
5,60,110,0
5,57,110,4
5,60,110,0
5,64,110,0
5,57,110,64
5,60,110,0
5,57,110,4
5,60,110,0
5,64,110,0
5,57,110,64
5,60,110,0
5,53,110,4
5,55,110,0
5,59,110,0
5,62,110,0
5,53,110,64
5,55,110,0
5,59,110,0
5,52,110,4
5,60,110,0
5,53,110,64
5,62,110,0
5,55,110,4
5,64,110,0
5,60,110,64
5,69,110,0
5,57,110,4
5,60,110,0
5,67,110,0
5,65,110,4
5,57,110,4
5,60,110,0
5,64,110,0
5,53,110,4
5,57,110,0
5,62,110,0
5,53,110,64
5,57,110,0
5,53,110,4
5,57,110,0
5,53,110,64
5,57,110,0
5,64,110,0
5,53,110,4
5,55,110,0
5,60,110,0
5,53,110,64
5,55,110,0
5,62,110,0
5,52,110,4
5,55,110,0
5,60,110,0
5,56,110,256
5,59,110,0
5,62,110,0
5,64,110,0
5,49,110,0
5,57,110,0
5,50,110,64
5,59,110,0
5,52,110,4
5,61,110,0
5,57,110,64
5,66,110,0
5,54,110,4
5,57,110,0
5,64,110,0
5,62,110,4
5,54,110,4
5,57,110,0
5,61,110,0
5,50,110,4
5,54,110,0
5,59,110,0
5,50,110,64
5,54,110,0
5,54,110,4
5,57,110,0
5,62,110,0
5,54,110,64
5,57,110,0
5,54,110,4
5,57,110,0
5,61,110,0
5,54,110,64
5,57,110,0
5,54,110,4
5,57,110,0
5,61,110,0
5,54,110,64
5,57,110,0
5,50,110,4
5,52,110,0
5,56,110,0
5,59,110,0
5,50,110,64
5,52,110,0
5,56,110,0
5,49,110,4
5,57,110,0
5,50,110,64
5,59,110,0
5,52,110,4
5,61,110,0
5,57,110,64
5,66,110,0
5,54,110,4
5,57,110,0
5,64,110,0
5,62,110,4
5,54,110,4
5,57,110,0
5,61,110,0
5,50,110,4
5,54,110,0
5,59,110,0
5,50,110,64
5,54,110,0
5,50,110,4
5,54,110,0
5,50,110,64
5,54,110,0
5,61,110,0
5,50,110,4
5,52,110,0
5,57,110,0
5,50,110,64
5,52,110,0
5,59,110,0
5,49,110,4
5,52,110,0
5,57,110,0
