track,note,velocity,time
3,62,100,9216
3,64,100,0
3,65,100,0
3,67,100,0
3,65,100,0
3,62,100,0
3,64,100,0
3,65,100,0
3,67,100,0
3,65,100,0
3,64,100,0
3,64,100,0
3,65,100,0
3,67,100,0
3,69,100,0
3,67,100,0
3,65,100,0
3,67,100,0
3,69,100,0
3,71,100,0
3,67,100,0
3,67,100,192
3,69,100,0
3,70,100,0
3,72,100,0
3,70,100,0
3,69,100,192
3,57,100,0
3,67,100,0
3,65,100,0
3,64,100,0
3,62,100,0
3,60,100,384
3,62,100,0
3,64,100,0
3,60,100,0
3,55,100,0
3,55,100,0
3,57,100,0
3,59,100,0
3,60,100,0
3,69,100,1152
3,69,100,0
3,69,100,0
3,67,100,0
3,67,100,0
3,67,100,0
3,65,100,0
3,64,100,0
3,65,100,0
3,67,100,0
3,67,100,192
3,69,100,0
3,69,100,0
3,71,100,0
3,72,100,0
3,67,100,0
3,64,100,0
3,62,100,0
3,60,100,0
3,64,100,0
3,62,100,0
3,69,100,192
3,69,100,0
3,69,100,0
3,71,100,0
3,72,100,0
3,74,100,192
3,72,100,0
3,71,100,0
3,69,100,0
3,67,100,0
3,69,100,192
3,67,100,0
3,64,100,0
3,67,100,0
3,65,100,0
3,67,100,0
3,65,100,0
3,64,100,0
3,62,100,0
3,60,100,0
3,62,100,192
3,64,100,0
3,65,100,0
3,67,100,0
3,65,100,0
3,62,100,0
3,64,100,0
3,65,100,0
3,67,100,0
3,65,100,0
3,64,100,0
3,64,100,0
3,65,100,0
3,67,100,0
3,69,100,0
3,67,100,0
3,65,100,0
3,67,100,0
3,69,100,0
3,71,100,0
3,67,100,0
3,67,100,192
3,69,100,0
3,70,100,0
3,72,100,0
3,70,100,0
3,69,100,192
3,57,100,0
3,67,100,0
3,65,100,0
3,64,100,0
3,62,100,0
3,60,100,384
3,62,100,0
3,64,100,0
3,60,100,0
3,55,100,0
3,55,100,0
3,57,100,0
3,59,100,0
3,60,100,0
3,69,100,1152
3,69,100,0
3,69,100,0
3,67,100,0
3,67,100,0
3,67,100,0
3,65,100,0
3,64,100,0
3,65,100,0
3,67,100,0
3,67,100,192
3,69,100,0
3,69,100,0
3,71,100,0
3,72,100,0
3,67,100,0
3,64,100,0
3,62,100,0
3,60,100,0
3,64,100,0
3,62,100,0
3,69,100,192
3,69,100,0
3,69,100,0
3,71,100,0
3,72,100,0
3,74,100,192
3,72,100,0
3,71,100,0
3,69,100,0
3,67,100,0
3,69,100,192
3,67,100,0
3,64,100,0
3,67,100,0
3,65,100,0
3,67,100,0
3,65,100,0
3,64,100,0
3,62,100,0
3,60,100,0
3,62,100,192
3,64,100,0
3,65,100,0
3,67,100,0
3,65,100,0
3,62,100,0
3,64,100,0
3,65,100,0
3,67,100,0
3,65,100,0
3,64,100,0
3,64,100,0
3,65,100,0
3,67,100,0
3,69,100,0
3,67,100,0
3,65,100,0
3,67,100,0
3,69,100,0
3,71,100,0
3,67,100,0
3,67,100,192
3,69,100,0
3,70,100,0
3,72,100,0
3,70,100,0
3,69,100,192
3,57,100,0
3,67,100,0
3,65,100,0
3,64,100,0
3,62,100,0
3,60,100,384
3,62,100,0
3,64,100,0
3,60,100,0
3,55,100,0
3,55,100,0
3,57,100,0
3,59,100,0
3,60,100,0
3,69,100,1152
3,69,100,0
3,69,100,0
3,67,100,0
3,67,100,0
3,67,100,0
3,65,100,0
3,64,100,0
3,65,100,0
3,67,100,0
3,67,100,192
3,69,100,0
3,69,100,0
3,71,100,0
3,72,100,0
3,67,100,0
3,64,100,0
3,62,100,0
3,60,100,0
3,64,100,0
3,62,100,0
3,69,100,192
3,69,100,0
3,69,100,0
3,71,100,0
3,72,100,0
3,74,100,192
3,72,100,0
3,71,100,0
3,69,100,0
3,67,100,0
3,69,100,192
3,67,100,0
3,64,100,0
3,67,100,0
3,65,100,0
3,67,100,0
3,65,100,0
3,64,100,0
3,62,100,0
3,60,100,0
4,57,100,0
4,55,100,0
4,53,100,0
4,52,100,0
4,65,100,0
4,62,100,0
4,64,100,0
4,65,100,0
4,64,100,0
4,60,100,0
4,62,100,0
4,64,100,0
4,62,100,0
4,59,100,0
4,60,100,0
4,62,100,0
4,60,100,0
4,64,100,0
4,65,100,0
4,67,100,0
4,69,100,0
4,65,100,0
4,67,100,0
4,69,100,0
4,67,100,0
4,64,100,0
4,65,100,0
4,67,100,0
4,65,100,0
4,62,100,0
4,64,100,0
4,65,100,0
4,64,100,0
4,69,100,74304
4,68,100,0
4,69,100,0
4,71,100,0
4,72,100,0
4,67,100,0
4,69,100,0
4,65,100,0
4,64,100,0
4,67,100,192
4,65,100,0
4,59,100,0
4,55,100,0
4,72,100,192
4,67,100,0
4,64,100,0
4,60,100,0
5,53,100,0
5,52,100,0
5,50,100,0
5,48,100,0
5,57,100,0
5,53,100,0
5,55,100,0
5,57,100,0
5,55,100,0
5,52,100,0
5,53,100,0
5,55,100,0
5,53,100,0
5,50,100,0
5,52,100,0
5,53,100,0
5,55,100,0
5,52,100,0
5,53,100,0
5,55,100,0
5,53,100,0
5,50,100,0
5,52,100,0
5,53,100,0
5,52,100,0
5,48,100,0
5,50,100,0
5,52,100,0
5,50,100,0
5,43,100,0
5,43,100,0
5,43,100,0
5,48,100,0
6,43,100,9216
6,50,100,0
6,55,100,0
6,59,100,0
6,62,100,0
6,67,100,0
6,43,100,0
6,50,100,0
6,55,100,0
6,59,100,0
6,62,100,0
6,67,100,0
6,43,100,192
6,50,100,0
6,53,100,0
6,59,100,0
6,65,100,0
6,43,100,0
6,50,100,0
6,53,100,0
6,59,100,0
6,65,100,0
6,43,100,192
6,50,100,0
6,53,100,0
6,59,100,0
6,65,100,0
6,43,100,0
6,50,100,0
6,53,100,0
6,59,100,0
6,65,100,0
6,48,100,192
6,55,100,0
6,60,100,0
6,64,100,0
6,48,100,0
6,55,100,0
6,60,100,0
6,64,100,0
6,48,100,192
6,55,100,0
6,60,100,0
6,64,100,0
6,48,100,0
6,55,100,0
6,60,100,0
6,64,100,0
6,43,100,192
6,50,100,0
6,53,100,0
6,59,100,0
6,65,100,0
6,43,100,0
6,50,100,0
6,53,100,0
6,59,100,0
6,65,100,0
6,43,100,192
6,50,100,0
6,53,100,0
6,59,100,0
6,65,100,0
6,43,100,0
6,50,100,0
6,53,100,0
6,59,100,0
6,65,100,0
6,48,100,192
6,55,100,0
6,60,100,0
6,64,100,0
6,48,100,0
6,55,100,0
6,60,100,0
6,64,100,0
6,48,100,192
6,55,100,0
6,60,100,0
6,64,100,0
6,48,100,0
6,55,100,0
6,60,100,0
6,64,100,0
6,47,100,192
6,53,100,0
6,59,100,0
6,62,100,0
6,65,100,0
6,47,100,0
6,53,100,0
6,59,100,0
6,62,100,0
6,65,100,0
6,45,100,192
6,52,100,0
6,57,100,0
6,61,100,0
6,64,100,0
6,45,100,0
6,52,100,0
6,57,100,0
6,61,100,0
6,64,100,0
6,50,100,192
6,54,100,0
6,60,100,0
6,64,100,0
6,50,100,0
6,54,100,0
6,60,100,0
6,64,100,0
6,48,100,192
6,55,100,0
6,60,100,0
6,64,100,0
6,48,100,0
6,55,100,0
6,60,100,0
6,64,100,0
6,43,100,192
6,50,100,0
6,55,100,0
6,59,100,0
6,62,100,0
6,67,100,0
6,43,100,0
6,50,100,0
6,55,100,0
6,59,100,0
6,62,100,0
6,67,100,0
6,48,100,192
6,55,100,0
6,60,100,0
6,64,100,0
6,48,100,0
6,55,100,0
6,60,100,0
6,64,100,0
6,48,100,192
6,55,100,0
6,60,100,0
6,64,100,0
6,48,100,0
6,55,100,0
6,60,100,0
6,64,100,0
6,53,100,192
6,52,100,0
6,50,100,0
6,52,100,0
6,53,100,0
6,52,100,0
6,50,100,0
6,43,100,0
6,41,100,0
6,48,100,0
6,53,100,0
6,57,100,0
6,60,100,0
6,65,100,0
6,41,100,0
6,48,100,0
6,53,100,0
6,57,100,0
6,60,100,0
6,65,100,0
6,41,100,192
6,48,100,0
6,53,100,0
6,57,100,0
6,60,100,0
6,65,100,0
6,41,100,0
6,48,100,0
6,53,100,0
6,57,100,0
6,60,100,0
6,65,100,0
6,41,100,192
6,48,100,0
6,53,100,0
6,57,100,0
6,60,100,0
6,65,100,0
6,41,100,0
6,48,100,0
6,53,100,0
6,57,100,0
6,60,100,0
6,65,100,0
6,45,100,192
6,52,100,0
6,57,100,0
6,61,100,0
6,67,100,0
6,45,100,0
6,52,100,0
6,57,100,0
6,61,100,0
6,67,100,0
6,45,100,192
6,52,100,0
6,57,100,0
6,61,100,0
6,67,100,0
6,45,100,0
6,52,100,0
6,57,100,0
6,61,100,0
6,67,100,0
6,50,100,192
6,57,100,0
6,62,100,0
6,65,100,0
6,50,100,0
6,57,100,0
6,62,100,0
6,65,100,0
6,43,100,192
6,47,100,0
6,50,100,0
6,55,100,0
6,59,100,0
6,65,100,0
6,43,100,0
6,47,100,0
6,50,100,0
6,55,100,0
6,59,100,0
6,65,100,0
6,45,100,192
6,48,100,0
6,52,100,0
6,55,100,0
6,60,100,0
6,45,100,0
6,48,100,0
6,52,100,0
6,55,100,0
6,60,100,0
6,43,100,192
6,50,100,0
6,55,100,0
6,59,100,0
6,62,100,0
6,67,100,0
6,43,100,0
6,50,100,0
6,55,100,0
6,59,100,0
6,62,100,0
6,67,100,0
6,43,100,192
6,50,100,0
6,53,100,0
6,59,100,0
6,65,100,0
6,43,100,0
6,50,100,0
6,53,100,0
6,59,100,0
6,65,100,0
6,43,100,192
6,50,100,0
6,53,100,0
6,59,100,0
6,65,100,0
6,43,100,0
6,50,100,0
6,53,100,0
6,59,100,0
6,65,100,0
6,48,100,192
6,55,100,0
6,60,100,0
6,64,100,0
6,48,100,0
6,55,100,0
6,60,100,0
6,64,100,0
6,48,100,192
6,55,100,0
6,60,100,0
6,64,100,0
6,48,100,0
6,55,100,0
6,60,100,0
6,64,100,0
6,43,100,192
6,50,100,0
6,53,100,0
6,59,100,0
6,65,100,0
6,43,100,0
6,50,100,0
6,53,100,0
6,59,100,0
6,65,100,0
6,43,100,192
6,50,100,0
6,53,100,0
6,59,100,0
6,65,100,0
6,43,100,0
6,50,100,0
6,53,100,0
6,59,100,0
6,65,100,0
6,48,100,192
6,55,100,0
6,60,100,0
6,64,100,0
6,48,100,0
6,55,100,0
6,60,100,0
6,64,100,0
6,48,100,192
6,55,100,0
6,60,100,0
6,64,100,0
6,48,100,0
6,55,100,0
6,60,100,0
6,64,100,0
6,47,100,192
6,53,100,0
6,59,100,0
6,62,100,0
6,65,100,0
6,47,100,0
6,53,100,0
6,59,100,0
6,62,100,0
6,65,100,0
6,45,100,192
6,52,100,0
6,57,100,0
6,61,100,0
6,64,100,0
6,45,100,0
6,52,100,0
6,57,100,0
6,61,100,0
6,64,100,0
6,50,100,192
6,54,100,0
6,60,100,0
6,64,100,0
6,50,100,0
6,54,100,0
6,60,100,0
6,64,100,0
6,48,100,192
6,55,100,0
6,60,100,0
6,64,100,0
6,48,100,0
6,55,100,0
6,60,100,0
6,64,100,0
6,43,100,192
6,50,100,0
6,55,100,0
6,59,100,0
6,62,100,0
6,67,100,0
6,43,100,0
6,50,100,0
6,55,100,0
6,59,100,0
6,62,100,0
6,67,100,0
6,48,100,192
6,55,100,0
6,60,100,0
6,64,100,0
6,48,100,0
6,55,100,0
6,60,100,0
6,64,100,0
6,48,100,192
6,55,100,0
6,60,100,0
6,64,100,0
6,48,100,0
6,55,100,0
6,60,100,0
6,64,100,0
6,53,100,192
6,52,100,0
6,50,100,0
6,52,100,0
6,53,100,0
6,52,100,0
6,50,100,0
6,43,100,0
6,41,100,0
6,48,100,0
6,53,100,0
6,57,100,0
6,60,100,0
6,65,100,0
6,41,100,0
6,48,100,0
6,53,100,0
6,57,100,0
6,60,100,0
6,65,100,0
6,41,100,192
6,48,100,0
6,53,100,0
6,57,100,0
6,60,100,0
6,65,100,0
6,41,100,0
6,48,100,0
6,53,100,0
6,57,100,0
6,60,100,0
6,65,100,0
6,41,100,192
6,48,100,0
6,53,100,0
6,57,100,0
6,60,100,0
6,65,100,0
6,41,100,0
6,48,100,0
6,53,100,0
6,57,100,0
6,60,100,0
6,65,100,0
6,45,100,192
6,52,100,0
6,57,100,0
6,61,100,0
6,67,100,0
6,45,100,0
6,52,100,0
6,57,100,0
6,61,100,0
6,67,100,0
6,45,100,192
6,52,100,0
6,57,100,0
6,61,100,0
6,67,100,0
6,45,100,0
6,52,100,0
6,57,100,0
6,61,100,0
6,67,100,0
6,50,100,192
6,57,100,0
6,62,100,0
6,65,100,0
6,50,100,0
6,57,100,0
6,62,100,0
6,65,100,0
6,43,100,192
6,47,100,0
6,50,100,0
6,55,100,0
6,59,100,0
6,65,100,0
6,43,100,0
6,47,100,0
6,50,100,0
6,55,100,0
6,59,100,0
6,65,100,0
6,45,100,192
6,48,100,0
6,52,100,0
6,55,100,0
6,60,100,0
6,45,100,0
6,48,100,0
6,52,100,0
6,55,100,0
6,60,100,0
6,43,100,192
6,50,100,0
6,55,100,0
6,59,100,0
6,62,100,0
6,67,100,0
6,43,100,0
6,50,100,0
6,55,100,0
6,59,100,0
6,62,100,0
6,67,100,0
6,43,100,192
6,50,100,0
6,53,100,0
6,59,100,0
6,65,100,0
6,43,100,0
6,50,100,0
6,53,100,0
6,59,100,0
6,65,100,0
6,43,100,192
6,50,100,0
6,53,100,0
6,59,100,0
6,65,100,0
6,43,100,0
6,50,100,0
6,53,100,0
6,59,100,0
6,65,100,0
6,48,100,192
6,55,100,0
6,60,100,0
6,64,100,0
6,48,100,0
6,55,100,0
6,60,100,0
6,64,100,0
6,48,100,192
6,55,100,0
6,60,100,0
6,64,100,0
6,48,100,0
6,55,100,0
6,60,100,0
6,64,100,0
6,43,100,192
6,50,100,0
6,53,100,0
6,59,100,0
6,65,100,0
6,43,100,0
6,50,100,0
6,53,100,0
6,59,100,0
6,65,100,0
6,43,100,192
6,50,100,0
6,53,100,0
6,59,100,0
6,65,100,0
6,43,100,0
6,50,100,0
6,53,100,0
6,59,100,0
6,65,100,0
6,48,100,192
6,55,100,0
6,60,100,0
6,64,100,0
6,48,100,0
6,55,100,0
6,60,100,0
6,64,100,0
6,48,100,192
6,55,100,0
6,60,100,0
6,64,100,0
6,48,100,0
6,55,100,0
6,60,100,0
6,64,100,0
6,47,100,192
6,53,100,0
6,59,100,0
6,62,100,0
6,65,100,0
6,47,100,0
6,53,100,0
6,59,100,0
6,62,100,0
6,65,100,0
6,45,100,192
6,52,100,0
6,57,100,0
6,61,100,0
6,64,100,0
6,45,100,0
6,52,100,0
6,57,100,0
6,61,100,0
6,64,100,0
6,50,100,192
6,54,100,0
6,60,100,0
6,64,100,0
6,50,100,0
6,54,100,0
6,60,100,0
6,64,100,0
6,48,100,192
6,55,100,0
6,60,100,0
6,64,100,0
6,48,100,0
6,55,100,0
6,60,100,0
6,64,100,0
6,43,100,192
6,50,100,0
6,55,100,0
6,59,100,0
6,62,100,0
6,67,100,0
6,43,100,0
6,50,100,0
6,55,100,0
6,59,100,0
6,62,100,0
6,67,100,0
6,48,100,192
6,55,100,0
6,60,100,0
6,64,100,0
6,48,100,0
6,55,100,0
6,60,100,0
6,64,100,0
6,48,100,192
6,55,100,0
6,60,100,0
6,64,100,0
6,48,100,0
6,55,100,0
6,60,100,0
6,64,100,0
6,53,100,192
6,52,100,0
6,50,100,0
6,52,100,0
6,53,100,0
6,52,100,0
6,50,100,0
6,43,100,0
6,41,100,0
6,48,100,0
6,53,100,0
6,57,100,0
6,60,100,0
6,65,100,0
6,41,100,0
6,48,100,0
6,53,100,0
6,57,100,0
6,60,100,0
6,65,100,0
6,41,100,192
6,48,100,0
6,53,100,0
6,57,100,0
6,60,100,0
6,65,100,0
6,41,100,0
6,48,100,0
6,53,100,0
6,57,100,0
6,60,100,0
6,65,100,0
6,41,100,192
6,48,100,0
6,53,100,0
6,57,100,0
6,60,100,0
6,65,100,0
6,41,100,0
