track,note,velocity,time
3,65,110,15360
3,65,110,64
3,65,110,8
3,65,110,8
3,60,110,64
3,57,110,64
3,60,110,64
3,53,110,64
3,66,110,448
3,66,110,64
3,66,110,8
3,66,110,8
3,62,110,64
3,57,110,64
3,60,110,64
3,54,110,64
3,67,110,448
3,67,110,64
3,67,110,8
3,67,110,8
3,67,110,64
3,60,110,64
3,60,110,96
3,69,110,96
3,65,110,96
3,70,110,864
3,70,110,64
3,70,110,8
3,70,110,8
3,65,110,64
3,69,110,64
3,69,110,64
3,69,110,64
3,61,110,448
3,67,110,64
3,67,110,64
3,69,110,64
3,67,110,8
3,65,110,8
3,62,110,64
3,65,110,64
3,58,110,448
3,62,110,64
3,65,110,8
3,72,110,8
3,70,110,64
3,69,110,64
3,65,110,64
3,67,110,64
3,65,110,96
3,65,110,864
3,65,110,64
3,65,110,8
3,65,110,8
3,60,110,64
3,57,110,64
3,60,110,64
3,53,110,64
3,66,110,448
3,66,110,64
3,66,110,8
3,66,110,8
3,62,110,64
3,57,110,64
3,60,110,64
3,54,110,64
3,67,110,448
3,67,110,64
3,67,110,8
3,67,110,8
3,67,110,64
3,60,110,64
3,60,110,96
3,69,110,96
3,65,110,96
3,70,110,864
3,70,110,64
3,70,110,8
3,70,110,8
3,65,110,64
3,69,110,64
3,69,110,64
3,69,110,64
3,61,110,448
3,67,110,64
3,67,110,64
3,69,110,64
3,67,110,8
3,65,110,8
3,62,110,64
3,65,110,64
3,58,110,448
3,62,110,64
3,65,110,8
3,72,110,8
3,70,110,64
3,69,110,64
3,65,110,64
3,67,110,64
3,65,110,96
3,65,110,864
3,65,110,64
3,65,110,8
3,65,110,8
3,60,110,64
3,57,110,64
3,60,110,64
3,53,110,64
3,66,110,448
3,66,110,64
3,66,110,8
3,66,110,8
3,62,110,64
3,57,110,64
3,60,110,64
3,54,110,64
3,67,110,448
3,67,110,64
3,67,110,8
3,67,110,8
3,67,110,64
3,60,110,64
3,60,110,96
3,69,110,96
3,65,110,96
3,70,110,864
3,70,110,64
3,70,110,8
3,70,110,8
3,65,110,64
3,69,110,64
3,69,110,64
3,69,110,64
3,61,110,448
3,67,110,64
3,67,110,64
3,69,110,64
3,67,110,8
3,65,110,8
3,62,110,64
3,65,110,64
3,58,110,448
3,62,110,64
3,65,110,8
3,72,110,8
3,70,110,64
3,69,110,64
3,65,110,64
3,67,110,64
3,65,110,96
3,65,110,864
3,65,110,64
3,65,110,8
3,65,110,8
3,60,110,64
3,57,110,64
3,60,110,64
3,53,110,64
3,66,110,448
3,66,110,64
3,66,110,8
3,66,110,8
3,62,110,64
3,57,110,64
3,60,110,64
3,54,110,64
3,67,110,448
3,67,110,64
3,67,110,8
3,67,110,8
3,67,110,64
3,60,110,64
3,60,110,96
3,69,110,96
3,65,110,96
3,70,110,864
3,70,110,64
3,70,110,8
3,70,110,8
3,65,110,64
3,69,110,64
3,69,110,64
3,69,110,64
3,61,110,448
3,67,110,64
3,67,110,64
3,69,110,64
3,67,110,8
3,65,110,8
3,62,110,64
3,65,110,64
3,58,110,448
3,62,110,64
3,65,110,8
3,72,110,8
3,70,110,64
3,69,110,64
3,65,110,64
3,67,110,64
3,65,110,96
3,65,110,864
3,65,110,64
3,65,110,8
3,65,110,8
3,60,110,64
3,57,110,64
3,60,110,64
3,53,110,64
3,66,110,448
3,66,110,64
3,66,110,8
3,66,110,8
3,62,110,64
3,57,110,64
3,60,110,64
3,54,110,64
3,67,110,448
3,67,110,64
3,67,110,8
3,67,110,8
3,67,110,64
3,60,110,64
3,60,110,96
3,69,110,96
3,65,110,96
3,70,110,864
3,70,110,64
3,70,110,8
3,70,110,8
3,65,110,64
3,69,110,64
3,69,110,64
3,69,110,64
3,61,110,448
3,67,110,64
3,67,110,64
3,69,110,64
3,67,110,8
3,65,110,8
3,62,110,64
3,65,110,64
3,58,110,448
3,62,110,64
3,65,110,8
3,72,110,8
3,70,110,64
3,69,110,64
3,65,110,64
3,67,110,64
3,65,110,96
3,65,110,864
3,65,110,64
3,65,110,8
3,65,110,8
3,60,110,64
3,57,110,64
3,60,110,64
3,53,110,64
3,66,110,448
3,66,110,64
3,66,110,8
3,66,110,8
3,62,110,64
3,57,110,64
3,60,110,64
3,54,110,64
3,67,110,448
3,67,110,64
3,67,110,8
3,67,110,8
3,67,110,64
3,60,110,64
3,60,110,96
3,69,110,96
3,65,110,96
3,70,110,864
3,70,110,64
3,70,110,8
3,70,110,8
3,65,110,64
3,69,110,64
3,69,110,64
3,69,110,64
3,61,110,448
3,67,110,64
3,67,110,64
3,69,110,64
3,67,110,8
3,65,110,8
3,62,110,64
3,65,110,64
3,58,110,448
3,62,110,64
3,65,110,8
3,72,110,8
3,70,110,64
3,69,110,64
3,65,110,64
3,67,110,64
3,65,110,96
3,65,110,864
3,65,110,64
3,65,110,8
3,65,110,8
3,60,110,64
3,57,110,64
3,60,110,64
3,53,110,64
3,66,110,448
3,66,110,64
3,66,110,8
3,66,110,8
3,62,110,64
3,57,110,64
3,60,110,64
3,54,110,64
3,67,110,448
3,67,110,64
3,67,110,8
3,67,110,8
3,67,110,64
3,60,110,64
3,60,110,96
3,69,110,96
3,65,110,96
3,70,110,864
3,70,110,64
3,70,110,8
3,70,110,8
3,65,110,64
3,69,110,64
3,69,110,64
3,69,110,64
3,61,110,448
3,67,110,64
3,67,110,64
3,69,110,64
3,67,110,8
3,65,110,8
3,62,110,64
3,65,110,64
3,58,110,448
3,62,110,64
3,65,110,8
3,72,110,8
3,70,110,64
3,69,110,64
3,65,110,64
3,67,110,64
3,65,110,96
3,65,110,864
3,65,110,64
3,65,110,8
3,65,110,8
3,60,110,64
3,57,110,64
3,60,110,64
3,53,110,64
3,66,110,448
3,66,110,64
3,66,110,8
3,66,110,8
3,62,110,64
3,57,110,64
3,60,110,64
3,54,110,64
3,67,110,448
3,67,110,64
3,67,110,8
3,67,110,8
3,67,110,64
3,60,110,64
3,60,110,96
3,69,110,96
3,65,110,96
3,70,110,864
3,70,110,64
3,70,110,8
3,70,110,8
3,65,110,64
3,69,110,64
3,69,110,64
3,69,110,64
3,61,110,448
3,67,110,64
3,67,110,64
3,69,110,64
3,67,110,8
3,65,110,8
3,62,110,64
3,65,110,64
3,58,110,448
3,62,110,64
3,65,110,8
3,72,110,8
3,70,110,64
3,69,110,64
3,65,110,64
3,67,110,64
3,65,110,96
3,65,110,864
3,65,110,64
3,65,110,8
3,65,110,8
3,60,110,64
3,57,110,64
3,60,110,64
3,53,110,64
3,66,110,448
3,66,110,64
3,66,110,8
3,66,110,8
3,62,110,64
3,57,110,64
3,60,110,64
3,54,110,64
3,67,110,448
3,67,110,64
3,67,110,8
3,67,110,8
3,67,110,64
3,60,110,64
3,60,110,96
3,69,110,96
3,65,110,96
3,70,110,864
3,70,110,64
3,70,110,8
3,70,110,8
3,65,110,64
3,69,110,64
3,69,110,64
3,69,110,64
3,61,110,448
3,67,110,64
3,67,110,64
3,69,110,64
3,67,110,8
3,65,110,8
3,62,110,64
3,65,110,64
3,58,110,448
3,62,110,64
3,65,110,8
3,72,110,8
3,70,110,64
3,69,110,64
3,65,110,64
3,67,110,64
3,65,110,96
3,65,110,864
3,65,110,64
3,65,110,8
3,65,110,8
3,60,110,64
3,57,110,64
3,60,110,64
3,53,110,64
3,66,110,448
3,66,110,64
3,66,110,8
3,66,110,8
3,62,110,64
3,57,110,64
3,60,110,64
3,54,110,64
3,67,110,448
3,67,110,64
3,67,110,8
3,67,110,8
3,67,110,64
3,60,110,64
3,60,110,96
3,69,110,96
3,65,110,96
3,70,110,864
3,70,110,64
3,70,110,8
3,70,110,8
3,65,110,64
3,69,110,64
3,69,110,64
3,69,110,64
3,61,110,448
3,67,110,64
3,67,110,64
3,69,110,64
3,67,110,8
3,65,110,8
3,62,110,64
3,65,110,64
3,58,110,448
3,62,110,64
3,65,110,8
3,72,110,8
3,70,110,64
3,69,110,64
3,65,110,64
3,67,110,64
3,65,110,96
3,65,110,864
3,65,110,64
3,65,110,8
3,65,110,8
3,60,110,64
3,57,110,64
3,60,110,64
3,53,110,64
3,66,110,448
3,66,110,64
3,66,110,8
3,66,110,8
3,62,110,64
3,57,110,64
3,60,110,64
3,54,110,64
3,67,110,448
3,67,110,64
3,67,110,8
3,67,110,8
3,67,110,64
3,60,110,64
3,60,110,96
3,69,110,96
3,65,110,96
3,70,110,864
3,70,110,64
3,70,110,8
3,70,110,8
3,65,110,64
3,69,110,64
3,69,110,64
3,69,110,64
3,61,110,448
3,67,110,64
3,67,110,64
3,69,110,64
3,67,110,8
3,65,110,8
3,62,110,64
3,65,110,64
3,58,110,448
3,62,110,64
3,65,110,8
3,72,110,8
3,70,110,64
3,69,110,64
3,65,110,64
3,62,110,64
3,67,110,96
3,69,110,96
3,70,110,480
3,70,110,64
3,70,110,8
3,70,110,8
3,65,110,64
3,69,110,64
3,69,110,64
3,69,110,64
3,61,110,448
3,67,110,64
3,67,110,64
3,69,110,64
3,67,110,8
3,65,110,8
3,62,110,64
3,65,110,64
3,58,110,448
3,62,110,64
3,65,110,8
3,72,110,8
3,70,110,64
3,69,110,64
3,72,110,96
3,67,110,96
3,69,110,96
3,65,110,96
4,45,110,384
4,48,110,0
4,53,110,0
4,45,110,448
4,48,110,0
4,53,110,0
4,45,110,448
4,48,110,0
4,53,110,0
4,45,110,448
4,48,110,0
4,53,110,0
4,45,110,448
4,48,110,0
4,53,110,0
4,45,110,448
4,48,110,0
4,53,110,0
4,45,110,448
4,48,110,0
4,53,110,0
4,45,110,448
4,48,110,0
4,53,110,0
4,45,110,448
4,48,110,0
4,53,110,0
4,45,110,448
4,48,110,0
4,53,110,0
4,45,110,448
4,48,110,0
4,53,110,0
4,45,110,448
4,48,110,0
4,53,110,0
4,45,110,448
4,48,110,0
4,53,110,0
4,45,110,448
4,48,110,0
4,53,110,0
4,45,110,448
4,48,110,0
4,53,110,0
4,45,110,448
4,48,110,0
4,53,110,0
4,45,110,448
4,48,110,0
4,53,110,0
4,45,110,448
4,48,110,0
4,53,110,0
4,45,110,448
4,48,110,0
4,53,110,0
4,46,110,448
4,48,110,0
4,52,110,0
4,53,110,64
4,45,110,64
4,48,110,0
4,53,110,0
4,53,110,8
4,53,110,8
4,45,110,64
4,48,110,0
4,45,110,64
4,45,110,64
4,48,110,0
4,41,110,64
4,45,110,64
4,54,110,64
4,45,110,64
4,50,110,0
4,54,110,0
4,54,110,8
4,54,110,8
4,45,110,64
4,50,110,0
4,45,110,64
4,45,110,64
4,48,110,0
4,42,110,64
4,45,110,64
4,55,110,64
4,46,110,64
4,50,110,0
4,55,110,0
4,55,110,8
4,55,110,8
4,46,110,64
4,50,110,0
4,55,110,0
4,48,110,64
4,43,110,384
4,46,110,0
4,48,110,64
4,43,110,384
4,46,110,0
4,57,110,64
4,45,110,384
4,48,110,0
4,53,110,64
4,45,110,384
4,48,110,0
4,45,110,448
4,48,110,0
4,51,110,448
4,53,110,0
4,58,110,64
4,50,110,64
4,53,110,0
4,58,110,0
4,58,110,8
4,58,110,8
4,49,110,64
4,53,110,0
4,57,110,64
4,48,110,64
4,53,110,0
4,57,110,0
4,57,110,64
4,48,110,64
4,53,110,0
4,49,110,64
4,45,110,64
4,49,110,0
4,55,110,0
4,55,110,64
4,45,110,64
4,49,110,0
4,57,110,0
4,55,110,8
4,53,110,8
4,45,110,64
4,50,110,0
4,53,110,64
4,45,110,64
4,50,110,0
4,46,110,64
4,46,110,64
4,50,110,0
4,53,110,8
4,60,110,8
4,49,110,64
4,53,110,0
4,58,110,0
4,57,110,64
4,48,110,384
4,53,110,0
4,45,110,64
4,50,110,0
4,53,110,0
4,55,110,64
4,46,110,384
4,50,110,0
4,46,110,448
4,48,110,0
4,52,110,0
4,53,110,64
4,45,110,384
4,48,110,0
4,45,110,448
4,48,110,0
4,53,110,64
4,45,110,64
4,48,110,0
4,53,110,0
4,53,110,8
4,53,110,8
4,45,110,64
4,48,110,0
4,45,110,64
4,45,110,64
4,48,110,0
4,41,110,64
4,45,110,64
4,54,110,64
4,45,110,64
4,50,110,0
4,54,110,0
4,54,110,8
4,54,110,8
4,45,110,64
4,50,110,0
4,45,110,64
4,45,110,64
4,48,110,0
4,42,110,64
4,45,110,64
4,55,110,64
4,46,110,64
4,50,110,0
4,55,110,0
4,55,110,8
4,55,110,8
4,46,110,64
4,50,110,0
4,55,110,0
4,48,110,64
4,43,110,384
4,46,110,0
4,48,110,64
4,43,110,384
4,46,110,0
4,57,110,64
4,45,110,384
4,48,110,0
4,53,110,64
4,45,110,384
4,48,110,0
4,45,110,448
4,48,110,0
4,51,110,448
4,53,110,0
4,58,110,64
4,50,110,64
4,53,110,0
4,58,110,0
4,58,110,8
4,58,110,8
4,49,110,64
4,53,110,0
4,57,110,64
4,48,110,64
4,53,110,0
4,57,110,0
4,57,110,64
4,48,110,64
4,53,110,0
4,49,110,64
4,45,110,64
4,49,110,0
4,55,110,0
4,55,110,64
4,45,110,64
4,49,110,0
4,57,110,0
4,55,110,8
4,53,110,8
4,45,110,64
4,50,110,0
4,53,110,64
4,45,110,64
4,50,110,0
4,46,110,64
4,46,110,64
4,50,110,0
4,53,110,8
4,60,110,8
4,49,110,64
4,53,110,0
4,58,110,0
4,57,110,64
4,48,110,384
4,53,110,0
4,45,110,64
4,50,110,0
4,53,110,0
4,55,110,64
4,46,110,384
4,50,110,0
4,46,110,448
4,48,110,0
4,52,110,0
4,53,110,64
4,45,110,384
4,48,110,0
4,45,110,448
4,48,110,0
4,53,110,64
4,45,110,64
4,48,110,0
4,53,110,0
4,53,110,8
4,53,110,8
4,45,110,64
4,48,110,0
4,45,110,64
4,45,110,64
4,48,110,0
4,41,110,64
4,45,110,64
4,54,110,64
4,45,110,64
4,50,110,0
4,54,110,0
4,54,110,8
4,54,110,8
4,45,110,64
4,50,110,0
4,45,110,64
4,45,110,64
4,48,110,0
4,42,110,64
4,45,110,64
4,55,110,64
4,46,110,64
4,50,110,0
4,55,110,0
4,55,110,8
4,55,110,8
4,46,110,64
4,50,110,0
4,55,110,0
4,48,110,64
4,43,110,384
4,46,110,0
4,48,110,64
4,43,110,384
4,46,110,0
4,57,110,64
4,45,110,384
4,48,110,0
4,53,110,64
4,45,110,384
4,48,110,0
4,45,110,448
4,48,110,0
4,51,110,448
4,53,110,0
4,58,110,64
4,50,110,64
4,53,110,0
4,58,110,0
4,58,110,8
4,58,110,8
4,49,110,64
4,53,110,0
4,57,110,64
4,48,110,64
4,53,110,0
4,57,110,0
4,57,110,64
4,48,110,64
4,53,110,0
4,49,110,64
4,45,110,64
4,49,110,0
4,55,110,0
4,55,110,64
4,45,110,64
4,49,110,0
4,57,110,0
4,55,110,8
4,53,110,8
4,45,110,64
4,50,110,0
4,53,110,64
4,45,110,64
4,50,110,0
4,46,110,64
4,46,110,64
4,50,110,0
4,53,110,8
4,60,110,8
4,49,110,64
4,53,110,0
4,58,110,0
4,57,110,64
4,48,110,384
4,53,110,0
4,45,110,64
4,50,110,0
4,53,110,0
4,55,110,64
4,46,110,384
4,50,110,0
4,46,110,448
4,48,110,0
4,52,110,0
4,53,110,64
4,45,110,384
4,48,110,0
4,45,110,448
4,48,110,0
4,53,110,64
4,45,110,64
4,48,110,0
4,53,110,0
4,53,110,8
4,53,110,8
4,45,110,64
4,48,110,0
4,45,110,64
4,45,110,64
4,48,110,0
4,41,110,64
4,45,110,64
4,54,110,64
4,45,110,64
4,50,110,0
4,54,110,0
4,54,110,8
4,54,110,8
4,45,110,64
4,50,110,0
4,45,110,64
4,45,110,64
4,48,110,0
4,42,110,64
4,45,110,64
4,55,110,64
4,46,110,64
4,50,110,0
4,55,110,0
4,55,110,8
4,55,110,8
4,46,110,64
4,50,110,0
4,55,110,0
4,48,110,64
4,43,110,384
4,46,110,0
4,48,110,64
4,43,110,384
4,46,110,0
4,57,110,64
4,45,110,384
4,48,110,0
4,53,110,64
