track,note,velocity,time
3,64,110,2976
3,64,0,94
3,64,110,2
3,64,0,256
3,64,110,32
3,66,110,0
3,64,0,94
3,66,0,0
3,64,110,2
3,64,0,126
3,61,110,2
3,61,0,126
3,64,110,2
3,64,0,126
3,69,110,2
3,69,0,160
3,69,110,32
3,69,0,286
3,61,110,2
3,61,0,94
3,64,110,2
3,64,0,94
3,69,110,2
3,69,0,94
3,69,110,2
3,69,0,336
3,71,110,48
3,71,0,160
3,69,110,32
3,69,0,160
3,59,110,32
3,59,0,528
3,59,110,432
3,59,0,94
3,59,110,2
3,59,0,94
3,59,110,2
3,59,0,94
3,59,110,2
3,59,0,94
3,59,110,2
3,59,0,94
3,59,110,2
3,59,0,94
3,64,110,2
3,64,0,160
3,64,110,32
3,64,0,336
3,68,110,48
3,68,0,94
3,66,110,2
3,66,0,94
3,64,110,2
3,64,0,160
3,59,110,32
3,59,0,160
3,64,110,32
3,64,0,160
3,62,110,32
3,62,0,160
3,61,110,32
3,61,0,528
3,64,110,48
3,64,0,160
3,64,110,32
3,64,0,256
3,66,110,32
3,66,0,94
3,64,110,2
3,64,0,126
3,61,110,2
3,61,0,126
3,64,110,2
3,64,0,126
3,69,110,2
3,69,0,160
3,69,110,32
3,69,0,286
3,61,110,2
3,61,0,94
3,64,110,2
3,64,0,94
3,69,110,2
3,69,0,94
3,69,110,2
3,69,0,336
3,71,110,48
3,71,0,160
3,69,110,32
3,69,0,160
3,66,110,32
3,66,0,528
3,66,110,48
3,66,0,94
3,66,110,2
3,66,0,94
3,65,110,2
3,65,0,160
3,68,110,32
3,68,0,160
3,73,110,32
3,73,0,160
3,71,110,32
3,71,0,160
3,69,110,32
3,69,0,160
3,66,110,32
3,66,0,336
3,69,110,240
3,69,0,126
3,66,110,2
3,66,0,126
3,69,110,2
3,69,0,126
3,68,110,2
3,68,0,126
3,68,110,2
3,68,0,126
3,68,110,2
3,68,0,126
3,69,110,2
3,69,0,478
3,64,110,98
3,64,0,160
3,64,110,32
3,64,0,256
3,64,110,32
3,66,110,0
3,64,0,94
3,66,0,0
3,64,110,2
3,64,0,126
3,61,110,2
3,61,0,126
3,64,110,2
3,64,0,126
3,69,110,2
3,69,0,160
3,69,110,32
3,69,0,286
3,61,110,2
3,61,0,94
3,64,110,2
3,64,0,94
3,69,110,2
3,69,0,94
3,69,110,2
3,69,0,336
3,71,110,48
3,71,0,160
3,69,110,32
3,69,0,160
3,59,110,32
3,59,0,528
3,59,110,432
3,59,0,94
3,59,110,2
3,59,0,94
3,59,110,2
3,59,0,94
3,59,110,2
3,59,0,94
3,59,110,2
3,59,0,94
3,59,110,2
3,59,0,94
3,64,110,2
3,64,0,160
3,64,110,32
3,64,0,336
3,68,110,48
3,68,0,94
3,66,110,2
3,66,0,94
3,64,110,2
3,64,0,160
3,59,110,32
3,59,0,160
3,64,110,32
3,64,0,160
3,62,110,32
3,62,0,160
3,61,110,32
3,61,0,528
3,64,110,48
3,64,0,160
3,64,110,32
3,64,0,256
3,66,110,32
3,66,0,94
3,64,110,2
3,64,0,126
3,61,110,2
3,61,0,126
3,64,110,2
3,64,0,126
3,69,110,2
3,69,0,160
3,69,110,32
3,69,0,286
3,61,110,2
3,61,0,94
3,64,110,2
3,64,0,94
3,69,110,2
3,69,0,94
3,69,110,2
3,69,0,336
3,71,110,48
3,71,0,160
3,69,110,32
3,69,0,160
3,66,110,32
3,66,0,528
3,66,110,48
3,66,0,94
3,66,110,2
3,66,0,94
3,65,110,2
3,65,0,160
3,68,110,32
3,68,0,160
3,73,110,32
3,73,0,160
3,71,110,32
3,71,0,160
3,69,110,32
3,69,0,160
3,66,110,32
3,66,0,336
3,69,110,240
3,69,0,126
3,66,110,2
3,66,0,126
3,69,110,2
3,69,0,126
3,68,110,2
3,68,0,126
3,68,110,2
3,68,0,126
3,68,110,2
3,68,0,126
3,69,110,2
3,69,0,478
3,64,110,98
3,64,0,160
3,64,110,32
3,64,0,256
3,64,110,32
3,66,110,0
3,64,0,94
3,66,0,0
3,64,110,2
3,64,0,126
3,61,110,2
3,61,0,126
3,64,110,2
3,64,0,126
3,69,110,2
3,69,0,160
3,69,110,32
3,69,0,286
3,61,110,2
3,61,0,94
3,64,110,2
3,64,0,94
3,69,110,2
3,69,0,94
3,69,110,2
3,69,0,336
3,71,110,48
3,71,0,160
3,69,110,32
3,69,0,160
3,59,110,32
3,59,0,528
3,59,110,432
3,59,0,94
3,59,110,2
3,59,0,94
3,59,110,2
3,59,0,94
3,59,110,2
3,59,0,94
3,59,110,2
3,59,0,94
3,59,110,2
3,59,0,94
3,64,110,2
3,64,0,160
3,64,110,32
3,64,0,336
3,68,110,48
3,68,0,94
3,66,110,2
3,66,0,94
3,64,110,2
3,64,0,160
3,59,110,32
3,59,0,160
3,64,110,32
3,64,0,160
3,62,110,32
3,62,0,160
3,61,110,32
3,61,0,528
3,64,110,48
3,64,0,160
3,64,110,32
3,64,0,256
3,66,110,32
3,66,0,94
3,64,110,2
3,64,0,126
3,61,110,2
3,61,0,126
3,64,110,2
3,64,0,126
3,69,110,2
3,69,0,160
3,69,110,32
3,69,0,286
3,61,110,2
3,61,0,94
3,64,110,2
3,64,0,94
3,69,110,2
3,69,0,94
3,69,110,2
3,69,0,336
3,71,110,48
3,71,0,160
3,69,110,32
3,69,0,160
3,66,110,32
3,66,0,528
3,66,110,48
3,66,0,94
3,66,110,2
3,66,0,94
3,65,110,2
3,65,0,160
3,68,110,32
3,68,0,160
3,73,110,32
3,73,0,160
3,71,110,32
3,71,0,160
3,69,110,32
3,69,0,160
3,66,110,32
3,66,0,336
3,69,110,240
3,69,0,126
3,66,110,2
3,66,0,126
3,69,110,2
3,69,0,126
3,68,110,2
3,68,0,126
3,68,110,2
3,68,0,126
3,68,110,2
3,68,0,126
3,69,110,2
3,69,0,478
3,69,110,98
3,69,0,160
3,69,110,32
3,69,0,126
3,69,110,2
3,69,0,126
3,69,110,2
3,69,0,126
3,69,110,2
3,69,0,126
3,69,110,2
3,69,0,126
3,69,110,2
3,69,0,126
3,69,110,2
3,69,0,160
3,66,110,32
3,66,0,286
3,66,110,2
3,66,0,94
3,68,110,2
3,68,0,94
3,69,110,2
3,69,0,94
3,73,110,2
3,73,0,160
3,69,110,32
3,69,0,160
3,68,110,32
3,68,0,160
3,66,110,32
3,66,0,160
3,68,110,32
3,68,0,478
3,66,110,2
3,66,0,94
3,61,110,2
3,61,0,94
3,66,110,2
3,66,0,94
3,62,110,2
3,62,0,336
3,64,110,48
3,64,0,126
3,68,110,2
3,68,0,126
3,64,110,2
3,64,0,126
3,61,110,2
3,61,0,160
3,57,110,32
3,57,0,160
3,66,110,32
3,66,0,126
3,68,110,2
3,68,0,126
3,66,110,2
3,66,0,126
3,62,110,2
3,62,0,160
3,62,110,32
3,62,0,160
3,66,110,32
3,66,0,126
3,69,110,2
3,69,0,126
3,68,110,2
3,68,0,126
3,64,110,2
3,64,0,336
3,69,110,48
3,69,0,126
3,71,110,2
3,71,0,126
3,69,110,2
3,69,0,126
3,66,110,2
3,66,0,336
3,68,110,48
3,68,0,126
3,73,110,2
3,73,0,126
3,71,110,2
3,71,0,126
3,69,110,2
3,69,0,160
3,66,110,32
3,66,0,160
3,69,110,32
3,69,0,256
3,69,110,32
3,69,0,94
3,66,110,2
3,66,0,126
3,69,110,2
3,69,0,126
3,73,110,2
3,73,0,126
3,64,110,2
3,64,0,126
3,68,110,2
3,68,0,126
3,71,110,2
3,71,0,126
3,69,110,2
3,69,0,528
4,45,110,0
4,49,110,0
4,52,110,0
4,52,0,94
4,57,110,2
4,45,0,64
4,49,0,0
4,57,0,30
4,61,110,2
4,61,0,94
4,64,110,2
4,64,0,94
4,61,110,2
4,61,0,160
4,45,110,32
4,49,110,0
4,57,110,0
4,45,0,160
4,49,0,0
4,57,0,0
4,45,110,32
4,49,110,0
4,53,110,0
4,53,0,94
4,57,110,2
4,45,0,64
4,49,0,0
4,57,0,30
4,61,110,2
4,61,0,94
4,65,110,2
4,65,0,94
4,61,110,2
4,61,0,160
4,45,110,32
4,49,110,0
4,53,110,0
4,57,110,0
4,45,0,160
4,49,0,0
4,53,0,0
4,57,0,0
4,45,110,32
4,50,110,0
4,54,110,0
4,54,0,94
4,57,110,2
4,45,0,64
4,50,0,0
4,57,0,30
4,62,110,2
4,62,0,94
4,66,110,2
4,66,0,94
4,62,110,2
4,62,0,160
4,50,110,32
4,54,110,0
4,57,110,0
4,50,0,160
4,54,0,0
4,57,0,0
4,50,110,32
4,52,110,0
4,52,0,94
4,54,110,2
4,50,0,64
4,54,0,30
4,56,110,2
4,56,0,94
4,57,110,2
4,57,0,94
4,56,110,2
4,59,110,0
4,59,0,94
4,61,110,2
4,56,0,64
4,61,0,30
4,62,110,2
4,62,0,94
4,64,110,2
4,64,0,94
4,45,110,0
4,49,110,0
4,52,110,0
4,52,0,94
4,57,110,2
4,45,0,64
4,49,0,0
4,57,0,30
4,61,110,2
4,61,0,94
4,64,110,2
4,64,0,94
4,61,110,2
4,61,0,160
4,45,110,32
4,49,110,0
4,57,110,0
4,45,0,160
4,49,0,0
4,57,0,0
4,45,110,32
4,49,110,0
4,53,110,0
4,53,0,94
4,57,110,2
4,45,0,64
4,49,0,0
4,57,0,30
4,61,110,2
4,61,0,94
4,65,110,2
4,65,0,94
4,61,110,2
4,61,0,160
4,45,110,32
4,49,110,0
4,53,110,0
4,57,110,0
4,45,0,160
4,49,0,0
4,53,0,0
4,57,0,0
4,45,110,32
4,50,110,0
4,54,110,0
4,54,0,94
4,57,110,2
4,45,0,64
4,50,0,0
4,57,0,30
4,62,110,2
4,62,0,94
4,66,110,2
4,66,0,94
4,62,110,2
4,62,0,160
4,50,110,32
4,54,110,0
4,57,110,0
4,50,0,160
4,54,0,0
4,57,0,0
4,50,110,32
4,52,110,0
4,52,0,94
4,54,110,2
4,50,0,64
4,54,0,30
4,56,110,2
4,56,0,94
4,57,110,2
4,57,0,94
4,56,110,2
4,59,110,0
4,59,0,94
4,61,110,2
4,56,0,64
4,61,0,30
4,62,110,2
4,62,0,94
4,64,110,2
4,64,0,94
4,52,110,2
4,52,0,256
4,45,110,32
4,49,110,0
4,54,110,0
4,54,0,94
4,52,110,2
4,45,0,64
4,49,0,0
4,52,0,62
4,45,110,2
4,49,110,0
4,49,0,126
4,52,110,2
4,45,0,32
4,52,0,94
4,57,110,2
4,57,0,160
4,49,110,32
4,52,110,0
4,57,110,0
4,49,0,160
4,52,0,0
4,57,0,126
4,49,110,2
4,49,0,94
4,45,110,2
4,49,110,0
4,52,110,0
4,52,0,94
4,57,110,2
4,45,0,64
4,49,0,0
4,57,0,30
4,57,110,2
4,49,110,192
4,53,110,0
4,49,0,160
4,53,0,0
4,57,0,0
4,59,110,32
4,59,0,160
4,49,110,32
4,53,110,0
4,57,110,0
4,49,0,160
4,53,0,0
4,57,0,0
4,47,110,32
4,38,110,192
4,42,110,0
4,38,0,160
4,42,0,0
4,47,0,176
4,38,110,48
4,42,110,0
4,38,0,160
4,42,0,0
4,38,110,224
4,42,110,0
4,47,110,0
4,47,0,94
4,47,110,2
4,38,0,64
4,42,0,0
4,47,0,30
4,47,110,2
4,47,0,94
4,47,110,2
4,47,0,94
4,38,110,2
4,42,110,0
4,47,110,0
4,47,0,94
4,47,110,2
4,38,0,64
4,42,0,0
4,47,0,30
4,52,110,2
4,52,0,160
4,44,110,32
4,47,110,0
4,52,110,0
4,44,0,160
4,47,0,0
4,52,0,176
4,44,110,48
4,47,110,0
4,56,110,0
4,56,0,94
4,54,110,2
4,44,0,64
4,47,0,0
4,54,0,30
4,44,110,2
4,52,110,0
4,52,0,160
4,47,110,32
4,44,0,144
4,47,0,16
4,48,110,32
4,52,110,0
4,52,0,160
4,50,110,32
4,48,0,144
4,50,0,16
4,49,110,32
4,40,110,192
4,45,110,0
4,40,0,160
4,45,0,0
4,49,0,176
4,45,110,48
4,49,110,0
4,52,110,0
4,45,0,160
4,49,0,0
4,52,0,0
4,52,110,32
4,52,0,256
4,45,110,32
4,49,110,0
4,54,110,0
4,54,0,94
4,52,110,2
4,45,0,64
4,49,0,0
4,52,0,62
4,45,110,2
4,49,110,0
4,49,0,126
4,52,110,2
4,45,0,32
4,52,0,94
4,57,110,2
4,57,0,160
4,49,110,32
4,52,110,0
4,57,110,0
4,49,0,160
4,52,0,0
4,57,0,126
4,49,110,2
4,49,0,94
4,45,110,2
4,49,110,0
4,52,110,0
4,52,0,94
4,57,110,2
4,45,0,64
4,49,0,0
4,57,0,30
4,57,110,2
4,49,110,192
4,53,110,0
4,49,0,160
4,53,0,0
4,57,0,0
4,59,110,32
4,59,0,160
4,49,110,32
4,53,110,0
4,57,110,0
4,49,0,160
4,53,0,0
4,57,0,0
4,54,110,32
4,45,110,192
4,50,110,0
4,45,0,160
4,50,0,0
4,54,0,176
4,45,110,48
4,50,110,0
4,54,110,0
4,54,0,94
4,54,110,2
4,45,0,64
4,50,0,0
4,54,0,30
4,53,110,2
4,53,0,160
4,49,110,32
4,53,110,0
4,56,110,0
4,49,0,160
4,53,0,0
4,56,0,0
4,61,110,32
4,61,0,160
4,49,110,32
4,56,110,0
4,59,110,0
4,49,0,160
4,56,0,0
4,59,0,0
4,57,110,32
4,57,0,160
4,45,110,32
4,49,110,0
4,54,110,0
4,45,0,160
4,49,0,0
4,54,0,176
4,45,110,48
4,49,110,0
4,45,0,160
4,49,0,0
4,51,110,32
4,57,110,0
4,57,0,126
4,54,110,2
4,54,0,126
4,57,110,2
4,51,0,80
4,57,0,46
4,50,110,2
4,56,110,0
4,56,0,126
4,56,110,2
4,56,0,126
4,56,110,2
4,50,0,80
4,56,0,46
4,49,110,2
4,52,110,0
4,57,110,0
4,49,0,478
4,52,0,0
4,57,0,0
4,52,110,98
4,52,0,160
4,52,110,32
4,52,0,256
4,45,110,32
4,49,110,0
4,54,110,0
4,54,0,94
4,52,110,2
4,45,0,64
4,49,0,0
4,52,0,62
4,45,110,2
4,49,110,0
4,49,0,126
4,52,110,2
4,45,0,32
4,52,0,94
4,57,110,2
4,57,0,160
4,49,110,32
4,52,110,0
4,57,110,0
4,49,0,160
4,52,0,0
4,57,0,126
4,49,110,2
4,49,0,94
4,45,110,2
4,49,110,0
4,52,110,0
4,52,0,94
4,57,110,2
4,45,0,64
4,49,0,0
4,57,0,30
4,57,110,2
4,49,110,192
4,53,110,0
4,49,0,160
4,53,0,0
4,57,0,0
4,59,110,32
4,59,0,160
4,49,110,32
4,53,110,0
4,57,110,0
4,49,0,160
4,53,0,0
4,57,0,0
4,47,110,32
4,38,110,192
4,42,110,0
4,38,0,160
4,42,0,0
4,47,0,176
4,38,110,48
4,42,110,0
4,38,0,160
4,42,0,0
4,38,110,224
4,42,110,0
4,47,110,0
4,47,0,94
4,47,110,2
4,38,0,64
4,42,0,0
4,47,0,30
4,47,110,2
4,47,0,94
4,47,110,2
4,47,0,94
4,38,110,2
4,42,110,0
4,47,110,0
4,47,0,94
4,47,110,2
4,38,0,64
4,42,0,0
4,47,0,30
4,52,110,2
4,52,0,160
4,44,110,32
4,47,110,0
4,52,110,0
4,44,0,160
4,47,0,0
4,52,0,176
4,44,110,48
4,47,110,0
4,56,110,0
4,56,0,94
4,54,110,2
4,44,0,64
4,47,0,0
4,54,0,30
4,44,110,2
4,52,110,0
4,52,0,160
4,47,110,32
4,44,0,144
4,47,0,16
4,48,110,32
4,52,110,0
4,52,0,160
4,50,110,32
4,48,0,144
4,50,0,16
4,49,110,32
4,40,110,192
4,45,110,0
4,40,0,160
4,45,0,0
4,49,0,176
4,45,110,48
4,49,110,0
4,52,110,0
4,45,0,160
4,49,0,0
4,52,0,0
4,52,110,32
4,52,0,256
4,45,110,32
4,49,110,0
4,54,110,0
4,54,0,94
4,52,110,2
4,45,0,64
4,49,0,0
4,52,0,62
4,45,110,2
4,49,110,0
4,49,0,126
4,52,110,2
