track,note,velocity,time
3,64,110,2304
3,64,0,160
3,64,110,32
3,64,0,94
3,69,110,2
3,69,0,160
3,64,110,32
3,64,0,94
3,62,110,2
3,62,0,160
3,62,110,32
3,62,0,94
3,67,110,2
3,67,0,94
3,67,110,2
3,67,0,94
3,67,110,2
3,67,0,94
3,60,110,2
3,60,0,256
3,59,110,32
3,59,0,160
3,64,110,32
3,64,0,94
3,57,110,2
3,57,0,528
3,60,110,48
3,60,0,160
3,60,110,32
3,60,0,94
3,64,110,2
3,64,0,160
3,60,110,32
3,60,0,94
3,59,110,2
3,59,0,160
3,59,110,32
3,59,0,94
3,62,110,2
3,62,0,94
3,60,110,2
3,60,0,94
3,59,110,2
3,59,0,94
3,57,110,2
3,57,0,256
3,59,110,32
3,59,0,160
3,67,110,32
3,67,0,94
3,64,110,2
3,64,0,544
3,64,110,32
3,64,0,160
3,64,110,32
3,64,0,94
3,69,110,2
3,69,0,160
3,64,110,32
3,64,0,94
3,62,110,2
3,62,0,160
3,62,110,32
3,62,0,94
3,67,110,2
3,67,0,94
3,67,110,2
3,67,0,94
3,67,110,2
3,67,0,94
3,60,110,2
3,60,0,256
3,59,110,32
3,59,0,160
3,64,110,32
3,64,0,94
3,57,110,2
3,57,0,528
3,60,110,48
3,60,0,160
3,60,110,32
3,60,0,94
3,64,110,2
3,64,0,160
3,60,110,32
3,60,0,94
3,59,110,2
3,59,0,160
3,59,110,32
3,59,0,94
3,62,110,2
3,62,0,94
3,60,110,2
3,60,0,94
3,59,110,2
3,59,0,94
3,57,110,2
3,57,0,256
3,59,110,32
3,59,0,160
3,55,110,32
3,55,0,94
3,57,110,2
3,57,0,382
3,57,110,194
3,57,0,256
3,61,110,32
3,61,0,160
3,64,110,32
3,64,0,94
3,57,110,2
3,57,0,160
3,61,110,32
3,61,0,94
3,64,110,2
3,64,0,160
3,69,110,32
3,69,0,94
3,67,110,2
3,67,0,256
3,65,110,32
3,65,0,448
3,67,110,128
3,67,0,94
3,71,110,2
3,71,0,94
3,69,110,2
3,69,0,94
3,67,110,2
3,67,0,256
3,55,110,32
3,55,0,256
3,57,110,32
3,57,0,256
3,59,110,32
3,59,0,256
3,60,110,32
3,60,0,256
3,62,110,32
3,62,0,256
3,64,110,32
3,64,0,382
3,69,110,0
3,69,0,256
3,52,110,32
3,52,0,160
3,57,110,32
3,57,0,94
3,61,110,2
3,61,0,160
3,64,110,32
3,64,0,94
3,62,110,2
3,62,0,160
3,61,110,32
3,61,0,94
3,59,110,2
3,59,0,256
3,57,110,32
3,57,0,544
3,61,110,32
3,61,0,94
3,57,110,2
3,57,0,94
3,61,110,2
3,61,0,94
3,64,110,2
3,64,0,736
3,66,110,32
3,66,0,160
3,64,110,32
3,64,0,160
3,59,110,32
3,59,0,832
3,71,110,320
3,71,0,256
3,54,110,32
3,54,0,160
3,59,110,32
3,59,0,94
3,62,110,2
3,62,0,160
3,66,110,32
3,66,0,94
3,64,110,2
3,64,0,160
3,62,110,32
3,62,0,94
3,61,110,2
3,61,0,256
3,59,110,32
3,59,0,544
3,64,110,32
3,64,0,94
3,68,110,2
3,68,0,94
3,66,110,2
3,66,0,94
3,64,110,2
3,64,0,528
3,66,110,144
3,66,0,336
3,64,110,48
3,64,0,94
3,61,110,2
3,61,0,912
3,69,110,240
3,69,0,256
3,52,110,32
3,52,0,160
3,57,110,32
3,57,0,94
3,61,110,2
3,61,0,160
3,64,110,32
3,64,0,94
3,62,110,2
3,62,0,160
3,61,110,32
3,61,0,94
3,59,110,2
3,59,0,256
3,57,110,32
3,57,0,544
3,61,110,32
3,61,0,160
3,62,110,32
3,62,0,94
3,64,110,2
3,64,0,528
3,69,110,48
3,69,0,160
3,69,110,32
3,69,0,94
3,71,110,2
3,71,0,160
3,69,110,32
3,69,0,94
3,66,110,2
3,66,0,912
3,69,110,240
3,69,0,256
3,68,110,32
3,68,0,160
3,69,110,32
3,69,0,94
3,71,110,2
3,71,0,448
3,69,110,32
3,69,0,94
3,64,110,2
3,64,0,256
3,61,110,32
3,61,0,256
3,69,110,32
3,69,0,256
3,57,110,32
3,57,0,256
3,62,110,32
3,62,0,160
3,62,110,32
3,62,0,160
3,62,110,32
3,62,0,160
3,62,110,32
3,62,0,160
3,59,110,32
3,59,0,160
3,56,110,32
3,56,0,160
3,61,110,32
3,61,0,912
3,69,110,240
3,69,0,256
3,68,110,32
3,68,0,160
3,69,110,32
3,69,0,94
3,71,110,2
3,71,0,448
3,69,110,32
3,69,0,94
3,64,110,2
3,64,0,256
3,61,110,32
3,61,0,256
3,68,110,32
3,68,0,256
3,66,110,32
3,66,0,256
3,62,110,224
3,62,0,94
3,69,110,2
3,69,0,160
3,66,110,32
3,66,0,94
3,68,110,2
3,68,0,160
3,69,110,32
3,69,0,256
3,71,110,32
3,71,0,94
3,69,110,2
3,69,0,1104
3,64,110,0
3,64,0,160
3,64,110,32
3,64,0,94
3,69,110,2
3,69,0,160
3,64,110,32
3,64,0,94
3,62,110,2
3,62,0,160
3,62,110,32
3,62,0,94
3,67,110,2
3,67,0,94
3,67,110,2
3,67,0,94
3,67,110,2
3,67,0,94
3,60,110,2
3,60,0,256
3,59,110,32
3,59,0,160
3,64,110,32
3,64,0,94
3,57,110,2
3,57,0,528
3,60,110,48
3,60,0,160
3,60,110,32
3,60,0,94
3,64,110,2
3,64,0,160
3,60,110,32
3,60,0,94
3,59,110,2
3,59,0,160
3,59,110,32
3,59,0,94
3,62,110,2
3,62,0,94
3,60,110,2
3,60,0,94
3,59,110,2
3,59,0,94
3,57,110,2
3,57,0,256
3,59,110,32
3,59,0,160
3,67,110,32
3,67,0,94
3,64,110,2
3,64,0,544
3,64,110,32
3,64,0,160
3,64,110,32
3,64,0,94
3,69,110,2
3,69,0,160
3,64,110,32
3,64,0,94
3,62,110,2
3,62,0,160
3,62,110,32
3,62,0,94
3,67,110,2
3,67,0,94
3,67,110,2
3,67,0,94
3,67,110,2
3,67,0,94
3,60,110,2
3,60,0,256
3,59,110,32
3,59,0,160
3,64,110,32
3,64,0,94
3,57,110,2
3,57,0,528
3,60,110,48
3,60,0,160
3,60,110,32
3,60,0,94
3,64,110,2
3,64,0,160
3,60,110,32
3,60,0,94
3,59,110,2
3,59,0,160
3,59,110,32
3,59,0,94
3,62,110,2
3,62,0,94
3,60,110,2
3,60,0,94
3,59,110,2
3,59,0,94
3,57,110,2
3,57,0,256
3,59,110,32
3,59,0,160
3,55,110,32
3,55,0,94
3,57,110,2
3,57,0,382
3,57,110,194
3,57,0,256
3,61,110,32
3,61,0,160
3,64,110,32
3,64,0,94
3,57,110,2
3,57,0,160
3,61,110,32
3,61,0,94
3,64,110,2
3,64,0,160
3,69,110,32
3,69,0,94
3,67,110,2
3,67,0,256
3,65,110,32
3,65,0,448
3,67,110,128
3,67,0,94
3,71,110,2
3,71,0,94
3,69,110,2
3,69,0,94
3,67,110,2
3,67,0,256
3,55,110,32
3,55,0,256
3,57,110,32
3,57,0,256
3,59,110,32
3,59,0,256
3,60,110,32
3,60,0,256
3,62,110,32
3,62,0,256
3,64,110,32
3,64,0,382
3,69,110,0
3,69,0,256
3,52,110,32
3,52,0,160
3,57,110,32
3,57,0,94
3,61,110,2
3,61,0,160
3,64,110,32
3,64,0,94
3,62,110,2
3,62,0,160
3,61,110,32
3,61,0,94
3,59,110,2
3,59,0,256
3,57,110,32
3,57,0,544
3,61,110,32
3,61,0,94
3,57,110,2
3,57,0,94
3,61,110,2
3,61,0,94
3,64,110,2
3,64,0,736
3,66,110,32
3,66,0,160
3,64,110,32
3,64,0,160
3,59,110,32
3,59,0,832
3,71,110,320
3,71,0,256
3,54,110,32
3,54,0,160
3,59,110,32
3,59,0,94
3,62,110,2
3,62,0,160
3,66,110,32
3,66,0,94
3,64,110,2
3,64,0,160
3,62,110,32
3,62,0,94
3,61,110,2
3,61,0,256
3,59,110,32
3,59,0,544
3,64,110,32
3,64,0,94
3,68,110,2
3,68,0,94
3,66,110,2
3,66,0,94
3,64,110,2
3,64,0,528
3,66,110,144
3,66,0,336
3,64,110,48
3,64,0,94
3,61,110,2
3,61,0,912
3,69,110,240
3,69,0,256
3,52,110,32
3,52,0,160
3,57,110,32
3,57,0,94
3,61,110,2
3,61,0,160
3,64,110,32
3,64,0,94
3,62,110,2
3,62,0,160
3,61,110,32
3,61,0,94
3,59,110,2
3,59,0,256
3,57,110,32
3,57,0,544
3,61,110,32
3,61,0,160
3,62,110,32
3,62,0,94
3,64,110,2
3,64,0,528
3,69,110,48
3,69,0,160
3,69,110,32
3,69,0,94
3,71,110,2
3,71,0,160
3,69,110,32
3,69,0,94
3,66,110,2
3,66,0,912
3,69,110,240
3,69,0,256
3,68,110,32
3,68,0,160
3,69,110,32
3,69,0,94
3,71,110,2
3,71,0,448
3,69,110,32
3,69,0,94
3,64,110,2
3,64,0,256
3,61,110,32
3,61,0,256
3,69,110,32
3,69,0,256
3,57,110,32
3,57,0,256
3,62,110,32
3,62,0,160
3,62,110,32
3,62,0,160
3,62,110,32
3,62,0,160
3,62,110,32
3,62,0,160
3,59,110,32
3,59,0,160
3,56,110,32
3,56,0,160
3,61,110,32
3,61,0,912
3,69,110,240
3,69,0,256
3,68,110,32
3,68,0,160
3,69,110,32
3,69,0,94
3,71,110,2
3,71,0,448
3,69,110,32
3,69,0,94
3,64,110,2
3,64,0,256
3,61,110,32
3,61,0,256
3,68,110,32
3,68,0,256
3,66,110,32
3,66,0,256
3,62,110,224
3,62,0,94
3,69,110,2
3,69,0,160
3,66,110,32
3,66,0,94
3,68,110,2
3,68,0,160
3,69,110,32
3,69,0,256
3,71,110,32
3,71,0,94
3,69,110,0
3,69,0,670
4,57,110,0
4,60,110,192
4,64,110,0
4,57,0,94
4,60,0,0
4,64,0,0
4,55,110,2
4,60,110,192
4,64,110,0
4,55,0,94
4,60,0,0
4,64,0,0
4,53,110,2
4,60,110,192
4,64,110,0
4,53,0,94
4,60,0,0
4,64,0,0
4,52,110,2
4,60,110,192
4,64,110,0
4,52,0,94
4,60,0,0
4,64,0,0
4,57,110,2
4,60,110,192
4,64,110,0
4,57,0,94
4,60,0,0
4,64,0,0
4,55,110,2
4,60,110,192
4,64,110,0
4,55,0,94
4,60,0,0
4,64,0,0
4,53,110,2
4,60,110,192
4,64,110,0
4,53,0,94
4,60,0,0
4,64,0,0
4,52,110,2
4,60,110,192
4,64,110,0
4,52,0,94
4,60,0,0
4,64,0,0
4,64,110,2
4,64,0,160
4,57,110,32
4,60,110,0
4,64,110,0
4,57,0,94
4,60,0,0
4,64,0,0
4,69,110,2
4,69,0,160
4,57,110,32
4,60,110,0
4,64,110,0
4,57,0,94
4,60,0,0
4,64,0,0
4,62,110,2
4,62,0,160
4,55,110,32
4,59,110,0
4,62,110,0
4,55,0,94
4,59,0,0
4,62,0,0
4,67,110,2
4,67,0,94
4,67,110,2
4,67,0,94
4,55,110,2
4,59,110,0
4,67,110,0
4,55,0,94
4,59,0,0
4,67,0,0
4,60,110,2
4,53,110,192
4,57,110,0
4,53,0,94
4,57,0,0
4,60,0,0
4,59,110,2
4,59,0,160
4,52,110,32
4,56,110,0
4,64,110,0
4,52,0,94
4,56,0,0
4,64,0,0
4,57,110,2
4,48,110,192
4,52,110,0
4,48,0,94
4,52,0,0
4,48,110,194
4,52,110,0
4,57,0,48
4,48,0,46
4,52,0,0
4,60,110,2
4,60,0,160
4,52,110,32
4,57,110,0
4,60,110,0
4,52,0,94
4,57,0,0
4,60,0,0
4,64,110,2
4,64,0,160
4,52,110,32
4,57,110,0
4,60,110,0
4,52,0,94
4,57,0,0
4,60,0,0
4,59,110,2
4,59,0,160
4,50,110,32
4,55,110,0
4,59,110,0
4,50,0,94
4,55,0,0
4,59,0,0
4,62,110,2
4,62,0,94
4,60,110,2
4,60,0,94
4,50,110,2
4,55,110,0
4,59,110,0
4,50,0,94
4,55,0,0
4,59,0,0
4,57,110,2
4,48,110,192
4,53,110,0
4,48,0,94
4,53,0,0
4,57,0,0
4,59,110,2
4,59,0,160
4,55,110,32
4,59,110,0
4,67,110,0
4,55,0,94
4,59,0,0
4,67,0,0
4,64,110,2
4,55,110,192
4,60,110,0
4,55,0,94
4,60,0,0
4,56,110,194
4,59,110,0
4,64,0,48
4,56,0,46
4,59,0,0
4,64,110,2
4,64,0,160
4,57,110,32
4,60,110,0
4,64,110,0
4,57,0,94
4,60,0,0
4,64,0,0
4,69,110,2
4,69,0,160
4,57,110,32
4,60,110,0
4,64,110,0
4,57,0,94
4,60,0,0
4,64,0,0
4,62,110,2
4,62,0,160
4,55,110,32
4,59,110,0
4,62,110,0
4,55,0,94
4,59,0,0
4,62,0,0
4,67,110,2
4,67,0,94
4,67,110,2
4,67,0,94
4,55,110,2
4,59,110,0
4,67,110,0
4,55,0,94
4,59,0,0
4,67,0,0
4,60,110,2
4,53,110,192
4,57,110,0
4,53,0,94
4,57,0,0
4,60,0,0
4,59,110,2
4,59,0,160
4,52,110,32
4,56,110,0
4,64,110,0
4,52,0,94
4,56,0,0
4,64,0,0
4,57,110,2
4,48,110,192
4,52,110,0
4,48,0,94
4,52,0,0
4,48,110,194
4,52,110,0
4,57,0,48
4,48,0,46
4,52,0,0
4,60,110,2
4,60,0,160
4,52,110,32
4,57,110,0
4,60,110,0
4,52,0,94
4,57,0,0
4,60,0,0
4,64,110,2
4,64,0,160
4,52,110,32
4,57,110,0
4,60,110,0
4,52,0,94
4,57,0,0
4,60,0,0
4,59,110,2
4,59,0,160
4,50,110,32
4,55,110,0
4,59,110,0
4,50,0,94
4,55,0,0
4,59,0,0
4,62,110,2
4,62,0,94
4,60,110,2
4,60,0,94
4,50,110,2
4,55,110,0
4,59,110,0
4,50,0,94
4,55,0,0
4,59,0,0
4,57,110,2
4,48,110,192
4,53,110,0
4,48,0,94
4,53,0,0
4,57,0,0
4,59,110,2
4,59,0,160
4,47,110,32
4,52,110,0
4,55,110,0
4,47,0,94
4,52,0,0
4,55,0,0
4,57,110,2
4,48,110,192
4,52,110,0
4,48,0,94
4,52,0,0
4,57,0,66
4,48,110,128
4,52,110,0
4,48,0,94
4,52,0,0
4,57,110,2
4,49,110,192
4,52,110,0
4,49,0,94
4,52,0,0
4,57,0,0
4,61,110,2
4,61,0,160
4,52,110,32
4,57,110,0
4,64,110,0
4,52,0,94
4,57,0,0
4,64,0,0
4,57,110,2
4,57,0,160
4,52,110,32
4,57,110,0
4,61,110,0
4,52,0,94
4,57,0,0
4,61,0,0
4,64,110,2
4,64,0,160
4,61,110,32
4,64,110,0
4,69,110,0
4,61,0,94
4,64,0,0
4,69,0,0
4,67,110,2
4,57,110,192
4,62,110,0
4,57,0,94
4,62,0,0
4,67,0,0
4,65,110,2
4,57,110,192
4,62,110,0
4,57,0,94
4,62,0,0
4,65,0,162
4,57,110,32
4,62,110,0
4,57,0,94
4,62,0,0
4,67,110,2
4,67,0,94
4,71,110,2
4,71,0,94
4,57,110,2
4,62,110,0
4,69,110,0
4,57,0,94
4,62,0,0
4,69,0,0
4,67,110,2
4,59,110,192
4,62,110,0
4,59,0,94
4,62,0,0
4,67,0,0
4,55,110,2
4,47,110,192
4,50,110,0
4,47,0,94
4,50,0,0
4,55,0,0
4,57,110,2
4,47,110,192
4,50,110,0
4,47,0,94
4,50,0,0
4,57,0,0
4,59,110,2
4,50,110,192
4,53,110,0
4,50,0,94
4,53,0,0
4,59,0,0
4,60,110,2
4,52,110,192
4,55,110,0
4,52,0,94
4,55,0,0
4,60,0,0
4,62,110,2
4,53,110,192
4,57,110,0
4,53,0,94
4,57,0,0
4,62,0,0
4,64,110,2
4,56,110,192
4,59,110,0
4,56,0,94
4,59,0,0
4,64,0,66
4,56,110,128
4,59,110,0
4,56,0,94
4,59,0,0
4,69,110,0
4,57,110,192
4,61,110,0
4,57,0,94
4,61,0,0
4,69,0,0
4,52,110,2
4,52,0,160
4,52,110,32
4,57,110,0
