track,note,velocity,time
1,64,43,720
1,64,0,120
1,66,39,0
1,66,0,120
1,64,34,0
1,68,50,0
1,64,0,120
1,59,26,0
1,59,0,120
1,64,31,0
1,64,0,120
1,59,26,0
1,59,0,120
1,68,0,0
1,68,30,0
1,71,46,0
1,68,0,120
1,59,27,0
1,59,0,120
1,71,0,0
1,66,28,0
1,69,43,0
1,66,0,120
1,59,27,0
1,59,0,120
1,69,0,0
1,64,34,0
1,68,50,0
1,64,0,120
1,59,26,0
1,59,0,120
1,68,0,0
1,63,27,0
1,66,41,0
1,63,0,120
1,59,25,0
1,59,0,90
1,66,0,0
1,63,27,30
1,66,41,0
1,63,0,120
1,59,26,0
1,59,0,120
1,66,0,0
1,64,28,0
1,68,43,0
1,64,0,120
1,59,28,0
1,59,0,120
1,68,0,0
1,64,30,0
1,69,46,0
1,64,0,120
1,59,28,0
1,59,0,120
1,69,0,0
1,64,36,0
1,73,54,0
1,64,0,120
1,59,31,0
1,59,0,120
1,73,0,0
1,66,37,0
1,71,47,0
1,66,0,120
1,59,26,0
1,59,0,120
1,71,0,0
1,63,25,0
1,66,38,0
1,63,0,120
1,59,27,0
1,59,0,120
1,66,0,0
1,59,35,0
1,64,35,0
1,68,42,0
1,68,0,480
1,64,0,0
1,59,0,0
1,76,54,240
1,76,0,120
1,78,48,0
1,78,0,120
1,68,63,0
1,80,63,0
1,80,0,480
1,68,0,0
1,71,57,0
1,83,57,0
1,83,0,240
1,71,0,0
1,69,54,0
1,81,54,0
1,81,0,240
1,69,0,0
1,68,63,0
1,80,63,0
1,80,0,240
1,68,0,0
1,66,51,0
1,78,51,0
1,78,0,210
1,66,0,0
1,66,51,30
1,78,51,0
1,78,0,240
1,66,0,0
1,68,58,0
1,80,58,0
1,80,0,240
1,68,0,0
1,69,57,0
1,81,69,0
1,81,0,240
1,69,0,0
1,73,69,0
1,85,69,0
1,85,0,240
1,73,0,0
1,71,56,0
1,83,67,0
1,83,0,240
1,71,0,0
1,87,49,0
1,75,32,0
1,75,0,240
1,87,0,0
1,88,57,0
1,76,35,0
1,76,0,480
1,88,0,0
1,71,47,240
1,71,0,240
1,70,51,0
1,70,0,480
1,76,56,0
1,76,0,480
1,75,51,0
1,75,0,720
1,69,49,0
1,69,0,240
1,68,60,0
1,68,0,480
1,74,64,0
1,74,0,480
1,73,56,0
1,73,0,720
1,73,56,0
1,73,0,240
1,72,58,0
1,72,0,240
1,73,58,0
1,73,0,240
1,69,55,0
1,64,46,0
1,61,46,0
1,61,0,180
1,64,0,0
1,69,0,0
1,68,54,60
1,64,44,0
1,59,44,0
1,59,0,180
1,64,0,0
1,68,0,0
1,68,72,60
1,64,60,0
1,58,60,0
1,68,0,240
1,66,58,0
1,58,0,240
1,64,0,0
1,64,58,0
1,57,58,0
1,66,0,240
1,66,60,0
1,66,0,240
1,57,0,0
1,64,0,0
1,66,49,0
1,63,41,0
1,57,41,0
1,57,0,240
1,63,0,0
1,66,0,0
1,71,38,0
1,63,32,0
1,71,0,240
1,70,46,0
1,70,0,240
1,63,0,0
1,71,40,0
1,63,34,0
1,63,0,240
1,71,0,0
1,64,51,0
1,64,0,480
1,83,47,240
1,71,47,0
1,71,0,240
1,83,0,0
1,82,51,0
1,70,51,0
1,70,0,480
1,82,0,0
1,88,56,0
1,76,56,0
1,76,0,480
1,88,0,0
1,87,51,0
1,75,51,0
1,75,0,720
1,87,0,0
1,81,51,0
1,69,51,0
1,69,0,240
1,81,0,0
1,80,62,0
1,68,62,0
1,68,0,480
1,80,0,0
1,86,59,0
1,74,59,0
1,74,0,480
1,86,0,0
1,85,56,0
1,73,56,0
1,73,0,720
1,85,0,0
1,85,50,0
1,73,50,0
1,73,0,240
1,85,0,0
1,84,59,0
1,72,59,0
1,72,0,240
1,84,0,0
1,85,60,0
1,73,60,0
1,73,0,240
1,85,0,0
1,81,58,0
1,69,58,0
1,69,0,180
1,81,0,0
1,80,57,60
1,68,57,0
1,68,0,180
1,80,0,0
1,80,70,60
1,68,70,0
1,68,0,240
1,80,0,0
1,78,64,0
1,66,64,0
1,66,0,475
1,78,0,0
1,78,53,5
1,66,53,0
1,66,0,228
1,78,0,0
1,78,49,12
1,66,49,0
1,66,0,240
1,78,0,0
1,83,38,0
1,71,38,0
1,71,0,240
1,83,0,0
1,82,46,0
1,70,46,0
1,70,0,240
1,82,0,0
1,83,40,0
1,71,40,0
1,71,0,240
1,83,0,0
1,76,51,0
1,64,51,0
1,64,0,480
1,76,0,0
1,64,43,240
1,64,0,120
1,66,39,0
1,66,0,120
1,64,34,0
1,68,50,0
1,64,0,120
1,59,26,0
1,59,0,120
1,64,31,0
1,64,0,120
1,59,26,0
1,59,0,120
1,68,0,0
1,68,30,0
1,71,46,0
1,68,0,120
1,59,27,0
1,59,0,120
1,71,0,0
1,66,28,0
1,69,43,0
1,66,0,120
1,59,27,0
1,59,0,120
1,69,0,0
1,64,34,0
1,68,50,0
1,64,0,120
1,59,26,0
1,59,0,120
1,68,0,0
1,63,27,0
1,66,41,0
1,63,0,120
1,59,25,0
1,59,0,90
1,66,0,0
1,63,27,30
1,66,41,0
1,63,0,120
1,59,26,0
1,59,0,120
1,66,0,0
1,64,28,0
1,68,43,0
1,64,0,120
1,59,28,0
1,59,0,120
1,68,0,0
1,64,30,0
1,69,46,0
1,64,0,120
1,59,28,0
1,59,0,120
1,69,0,0
1,64,36,0
1,73,54,0
1,64,0,120
1,59,31,0
1,59,0,120
1,73,0,0
1,66,37,0
1,71,47,0
1,66,0,120
1,59,26,0
1,59,0,120
1,71,0,0
1,63,25,0
1,66,38,0
1,63,0,120
1,59,27,0
1,59,0,120
1,66,0,0
1,59,35,0
1,64,35,0
1,68,42,0
1,68,0,240
1,64,0,0
1,59,0,0
1,78,48,210
1,78,0,30
1,76,54,0
1,76,0,120
1,75,48,0
1,75,0,120
1,76,56,0
1,76,0,120
1,78,50,0
1,78,0,90
1,81,50,0
1,81,0,30
1,80,60,0
1,80,0,120
1,78,55,0
1,78,0,120
1,80,49,0
1,80,0,120
1,81,55,0
1,81,0,120
1,71,54,0
1,83,63,0
1,83,0,240
1,71,0,0
1,81,64,0
1,69,54,0
1,69,0,240
1,81,0,0
1,80,70,0
1,68,59,0
1,68,0,240
1,80,0,0
1,66,56,0
1,78,67,0
1,78,0,228
1,66,0,0
1,66,63,12
1,78,75,0
1,78,0,240
1,66,0,0
1,80,68,0
1,68,57,0
1,68,0,240
1,80,0,0
1,69,64,0
1,81,76,0
1,81,0,240
1,69,0,0
1,85,69,0
1,73,58,0
1,73,0,240
1,85,0,0
1,83,80,0
1,71,67,0
1,71,0,240
1,83,0,0
1,75,70,0
1,81,70,0
1,87,83,0
1,87,0,180
1,81,0,0
1,75,0,0
1,76,73,60
1,80,73,0
1,88,88,0
1,88,0,480
1,80,0,0
1,76,0,0
1,64,73,240
1,68,87,0
1,68,0,120
1,64,0,0
1,64,81,120
1,68,96,0
1,68,0,720
1,64,0,0
1,76,34,0
1,68,28,0
1,64,28,0
1,64,0,120
1,68,0,0
1,76,0,0
1,75,39,120
1,68,33,0
1,66,33,0
1,63,33,0
1,63,0,720
1,75,0,0
1,68,0,0
1,66,0,0
1,63,73,0
1,66,73,0
1,68,87,0
1,68,0,120
1,66,0,0
1,63,0,0
1,66,81,120
1,63,81,0
1,68,96,0
1,68,0,720
1,63,0,0
1,66,0,0
1,63,28,0
1,75,34,0
1,68,28,0
1,66,28,0
1,66,0,120
1,63,0,0
1,75,0,0
1,68,0,0
1,76,39,120
1,68,33,0
1,64,33,0
1,64,0,720
1,68,0,0
1,76,0,0
1,64,73,0
1,68,87,0
1,68,0,120
1,64,0,0
1,64,81,120
1,68,96,0
1,68,0,720
1,64,0,0
1,76,34,0
1,68,28,0
1,64,28,0
1,64,0,120
1,68,0,0
1,76,0,0
1,76,39,120
1,66,33,0
1,64,33,0
1,64,0,720
1,66,0,0
1,76,0,0
1,61,73,0
1,64,87,0
1,64,0,120
1,61,0,0
1,59,81,120
1,64,96,0
1,64,0,720
1,59,0,0
1,64,70,0
1,76,85,0
1,71,70,0
1,71,0,120
1,76,0,0
1,64,0,0
1,64,66,120
1,76,78,0
1,73,66,0
1,70,66,0
1,70,0,720
1,64,0,0
1,76,0,0
1,73,0,0
1,76,53,240
1,85,53,0
1,85,0,720
1,76,0,0
1,75,57,0
1,83,57,0
1,83,0,216
1,75,0,0
1,83,62,24
1,75,62,0
1,75,0,240
1,83,0,0
1,73,48,0
1,82,48,0
1,82,0,216
1,73,0,0
1,82,47,24
1,73,47,0
1,73,0,240
1,82,0,0
1,75,39,0
1,83,39,0
1,83,0,240
1,75,0,0
1,76,53,0
1,85,53,0
1,85,0,720
1,76,0,0
1,75,57,0
1,83,57,0
1,83,0,216
1,75,0,0
1,82,62,24
1,73,62,0
1,73,0,240
1,82,0,0
1,85,48,0
1,76,48,0
1,76,0,240
1,85,0,0
1,83,47,0
1,75,47,0
1,75,0,240
1,83,0,0
1,73,39,0
1,82,39,0
1,82,0,240
1,73,0,0
1,83,39,0
1,78,39,0
1,78,0,240
1,83,0,0
1,82,34,0
1,82,0,240
1,80,39,0
1,80,0,240
1,78,35,0
1,78,0,240
1,80,39,0
1,80,0,240
1,78,37,0
1,78,0,240
1,76,39,0
1,76,0,240
1,75,34,0
1,75,0,230
1,75,39,10
1,75,0,720
1,76,38,0
1,76,0,120
1,78,33,0
1,78,0,120
1,73,39,0
1,73,0,240
1,78,39,0
1,78,0,120
1,80,34,0
1,80,0,120
1,78,39,0
1,78,0,120
1,80,35,0
1,80,0,120
1,78,39,0
1,78,0,120
1,80,35,0
1,80,0,120
1,85,53,0
1,88,53,0
1,78,39,0
1,78,0,120
1,80,35,0
1,80,0,120
1,78,39,0
1,78,0,120
1,80,35,0
1,80,0,120
1,78,39,0
1,78,0,120
1,80,37,0
1,80,0,120
1,88,0,0
1,85,0,0
1,87,57,0
1,83,57,0
1,78,43,0
1,78,0,120
1,80,41,0
1,83,0,96
1,87,0,0
1,80,0,24
1,87,62,0
1,83,62,0
1,78,48,0
1,78,0,120
1,80,42,0
1,80,0,120
1,83,0,0
1,87,0,0
1,82,48,0
1,85,48,0
1,78,46,0
1,78,0,120
1,80,40,0
1,85,0,96
1,82,0,0
1,80,0,24
1,85,47,0
1,78,44,0
1,82,47,0
1,78,0,120
1,80,38,0
1,80,0,120
1,82,0,0
1,85,0,0
1,87,39,0
1,83,39,0
1,78,41,0
1,78,0,120
1,80,36,0
1,80,0,120
1,83,0,0
1,87,0,0
1,88,53,0
1,85,53,0
1,78,39,0
1,78,0,120
1,80,36,0
1,80,0,120
1,78,41,0
1,78,0,120
1,80,38,0
1,80,0,120
1,78,43,0
1,78,0,120
1,80,40,0
1,80,0,120
1,85,0,0
1,88,0,0
1,78,46,0
1,87,57,0
1,83,57,0
1,78,0,120
1,80,42,0
1,83,0,96
1,87,0,0
1,80,0,24
1,85,62,0
1,82,62,0
1,82,0,120
1,78,36,0
1,78,0,120
1,85,0,0
1,92,48,0
1,88,48,0
1,88,0,120
1,78,36,0
1,78,0,120
1,92,0,0
1,90,47,0
1,87,47,0
1,87,0,120
1,78,36,0
1,78,0,120
1,90,0,0
1,85,39,0
1,88,39,0
1,85,0,120
1,78,36,0
1,78,0,120
1,88,0,0
1,87,62,0
1,83,62,0
1,83,0,120
1,78,35,0
1,78,0,120
1,87,0,0
1,90,47,0
1,87,47,0
1,87,0,120
1,78,34,0
1,78,0,120
1,90,0,0
1,88,45,0
1,85,45,0
1,85,0,120
1,78,34,0
1,78,0,120
1,88,0,0
1,83,36,0
1,87,36,0
1,83,0,120
1,78,33,0
1,78,0,120
1,87,0,0
1,85,57,0
1,82,57,0
1,82,0,120
1,78,32,0
1,78,0,120
1,85,0,0
1,88,43,0
1,85,43,0
1,85,0,120
1,78,32,0
1,78,0,120
1,88,0,0
1,87,41,0
1,83,41,0
1,83,0,120
1,78,31,0
1,78,0,120
1,87,0,0
1,82,33,0
1,85,33,0
1,82,0,120
1,78,30,0
1,78,0,120
1,85,0,0
1,83,52,0
1,78,29,120
1,78,0,120
1,83,0,0
1,81,39,0
1,72,29,120
1,72,0,120
1,81,0,0
1,80,37,0
1,72,28,120
1,72,0,120
1,80,0,0
1,80,30,0
1,72,27,120
1,72,0,120
1,80,0,0
1,80,39,0
1,72,39,0
1,72,0,120
1,80,0,0
1,68,33,0
1,68,0,120
1,70,34,0
1,70,0,120
1,72,37,0
1,72,0,90
1,75,35,0
1,75,0,30
1,73,39,0
1,73,0,120
1,72,32,0
1,72,0,120
1,73,35,0
1,73,0,120
1,75,32,0
1,75,0,120
1,76,39,0
1,76,0,120
1,72,33,0
1,72,0,120
1,73,35,0
1,73,0,120
1,75,32,0
1,75,0,90
1,78,32,0
1,78,0,30
1,76,41,0
1,76,0,120
1,75,33,0
1,75,0,120
1,76,35,0
1,76,0,120
1,78,32,0
1,78,0,120
1,80,42,0
1,80,0,120
1,78,35,0
1,78,0,120
1,76,35,0
1,76,0,120
1,75,34,0
1,75,0,120
1,76,41,0
1,76,0,120
1,75,35,0
1,75,0,120
1,73,35,0
1,73,0,120
1,80,34,0
1,80,0,120
1,75,40,0
1,75,0,120
1,73,34,0
1,73,0,120
1,71,35,0
1,71,0,120
1,78,35,0
1,78,0,120
1,73,40,0
1,73,0,120
1,71,33,0
1,71,0,120
1,70,35,0
1,70,0,120
1,78,33,0
1,78,0,110
1,78,43,10
1,75,43,0
1,66,36,0
1,66,0,960
1,75,0,0
1,78,0,0
1,64,28,0
1,73,34,0
1,76,34,0
1,76,0,480
1,73,0,0
1,64,0,0
1,63,25,0
1,71,30,0
1,75,30,0
1,75,0,480
1,71,0,0
1,63,0,0
1,68,39,0
1,73,39,0
1,73,0,480
1,68,0,0
1,71,35,0
1,68,29,0
1,68,0,480
1,66,33,0
1,66,0,480
1,71,0,0
1,70,44,0
1,66,37,0
1,70,0,240
1,78,43,0
1,78,0,240
1,66,0,0
1,66,57,0
1,69,57,0
1,78,67,0
1,78,0,960
1,69,0,0
1,66,0,0
1,64,51,0
1,69,51,0
1,76,63,0
1,76,0,480
1,69,0,0
1,64,0,0
1,63,52,0
1,69,52,0
1,75,64,0
1,66,52,0
1,66,0,480
1,63,0,0
1,69,0,0
1,75,0,0
1,69,68,0
1,73,80,0
1,73,0,480
1,69,0,0
1,66,68,0
1,71,81,0
1,63,68,0
1,63,0,960
1,71,0,0
1,66,0,0
1,66,67,0
1,69,80,0
1,63,67,0
1,63,0,480
1,69,0,0
1,66,0,0
1,69,82,0
1,69,0,120
1,75,75,0
1,75,0,120
1,78,80,0
1,78,0,120
1,75,77,0
1,75,0,120
1,81,68,0
1,81,0,120
1,87,59,0
1,87,0,120
1,90,50,0
1,90,0,120
1,87,41,0
1,87,0,120
1,93,54,0
1,93,0,480
1,63,39,120
1,63,0,120
1,64,39,0
1,64,0,120
1,66,41,0
1,66,0,120
1,64,34,0
1,68,50,0
1,64,0,120
1,59,26,0
1,59,0,120
1,64,31,0
1,64,0,120
1,59,26,0
1,59,0,120
1,68,0,0
1,68,30,0
1,71,46,0
1,68,0,120
1,59,27,0
1,59,0,120
1,71,0,0
1,66,28,0
1,69,43,0
1,66,0,120
1,59,27,0
1,59,0,120
1,69,0,0
1,64,34,0
1,68,50,0
1,64,0,120
1,59,26,0
1,59,0,120
1,68,0,0
1,63,27,0
1,66,41,0
1,63,0,120
1,59,25,0
1,59,0,90
1,66,0,0
1,63,27,30
1,66,41,0
1,63,0,120
1,59,26,0
1,59,0,120
1,66,0,0
1,64,28,0
1,68,43,0
1,64,0,120
1,59,28,0
1,59,0,120
1,68,0,0
1,64,30,0
1,69,46,0
1,64,0,120
1,59,28,0
1,59,0,120
1,69,0,0
1,64,36,0
1,73,54,0
1,64,0,120
1,59,31,0
1,59,0,120
1,73,0,0
1,66,37,0
1,71,47,0
1,66,0,120
1,59,26,0
