track,note,velocity,time
0,68,51,0
0,65,48,0
0,72,49,0
0,68,110,0
0,68,110,24
0,68,110,24
0,68,115,24
0,65,98,2
0,60,94,0
0,63,92,48
0,61,51,42
0,65,61,0
0,46,54,0
0,61,88,24
0,70,72,0
0,39,64,0
0,61,51,0
0,55,59,0
0,67,110,0
0,70,71,24
0,67,110,0
0,70,75,26
0,67,110,0
0,70,75,24
0,67,115,0
0,70,60,28
0,63,98,0
0,70,50,28
0,58,94,0
0,68,50,0
0,60,92,0
0,44,53,0
0,55,54,0
0,60,64,0
0,63,60,0
0,43,64,50
0,65,75,0
0,68,62,0
0,41,59,0
0,60,56,0
0,68,51,0
0,72,56,0
0,65,53,0
0,60,103,0
0,68,64,24
0,65,68,0
0,60,103,0
0,68,58,30
0,65,60,0
0,60,103,0
0,68,63,28
0,65,67,0
0,60,108,0
0,68,58,20
0,65,68,0
0,65,108,0
0,63,76,32
0,68,66,0
0,68,108,0
0,68,64,28
0,63,75,0
0,67,110,0
0,56,51,22
0,38,60,0
0,46,53,0
0,58,64,0
0,65,55,0
0,62,67,0
0,68,53,0
0,65,116,24
0,68,62,0
0,62,72,0
0,70,120,0
0,68,62,0
0,62,71,0
0,68,65,0
0,62,65,0
0,70,120,0
0,62,64,24
0,68,63,0
0,70,120,0
0,68,64,26
0,62,72,0
0,68,114,0
0,39,64,42
0,58,58,0
0,63,68,0
0,67,57,0
0,51,60,0
0,70,78,0
0,63,66,0
0,67,108,24
0,70,76,0
0,63,72,0
0,63,104,72
0,70,72,0
0,63,73,0
0,67,100,0
0,70,70,0
0,60,78,0
0,61,46,48
0,68,51,0
0,37,53,0
0,49,50,0
0,65,64,0
0,65,100,2
0,61,59,0
0,68,63,0
0,65,104,0
0,68,62,0
0,61,59,0
0,65,100,18
0,61,60,0
0,68,60,0
0,65,100,28
0,61,69,0
0,68,62,0
0,65,98,28
0,68,62,0
0,56,64,0
0,68,51,48
0,44,51,0
0,56,56,0
0,60,60,0
0,63,66,0
0,63,99,0
0,60,66,0
0,63,98,18
0,56,58,0
0,60,70,0
0,68,63,0
0,56,102,62
0,68,61,0
0,60,66,0
0,56,50,0
0,63,104,2
0,68,61,0
0,56,68,0
0,60,73,0
0,61,51,48
0,37,52,0
0,58,68,0
0,53,63,0
0,58,72,0
0,65,70,0
0,61,89,0
0,65,69,0
0,58,74,0
0,61,102,0
0,58,70,10
0,65,68,0
0,60,100,0
0,56,70,24
0,65,63,0
0,60,98,0
0,65,62,26
0,56,69,0
0,58,70,0
0,60,96,0
0,42,58,48
0,58,64,0
0,60,60,0
0,53,56,0
0,58,59,0
0,65,59,0
0,53,62,0
0,58,96,0
0,42,59,0
0,60,69,0
0,65,64,0
0,58,64,0
0,58,68,0
0,65,72,0
0,53,70,0
0,58,92,0
0,65,69,24
0,58,67,0
0,53,68,0
0,58,92,0
0,60,58,38
0,65,58,0
0,57,52,0
0,53,55,0
0,60,90,0
0,65,64,0
0,41,64,0
0,57,62,0
0,48,58,0
0,81,120,0
0,39,101,0
0,42,77,0
0,65,60,0
0,61,70,0
0,42,57,18
0,65,80,44
0,42,77,2
0,61,82,0
0,42,57,4
0,56,80,0
0,63,76,0
0,36,127,4
0,42,77,0
0,65,70,46
0,42,57,0
0,61,86,0
0,42,77,10
0,55,69,44
0,42,57,2
0,63,84,0
0,42,77,22
0,67,64,26
0,42,57,0
0,65,79,0
0,61,85,0
0,42,77,0
0,55,70,28
0,63,87,0
0,42,57,2
0,46,80,42
0,36,127,4
0,42,77,0
0,48,92,0
0,70,76,0
0,42,57,0
0,46,73,0
0,46,75,16
0,65,71,2
0,42,77,2
0,48,75,0
0,61,87,0
0,68,70,6
0,42,57,4
0,46,87,0
0,67,74,0
0,65,78,0
0,56,80,0
0,81,120,2
0,42,77,0
0,39,101,0
0,61,77,0
0,61,84,20
0,65,77,0
0,56,77,0
0,42,57,2
0,65,66,0
0,42,77,16
0,63,80,46
0,42,57,0
0,60,69,0
0,56,86,0
0,36,127,10
0,42,77,0
0,65,73,46
0,42,57,0
0,61,60,0
0,70,65,0
0,61,89,0
0,42,77,12
0,55,71,46
0,42,57,0
0,63,85,0
0,42,77,22
0,68,71,28
0,68,64,2
0,42,57,0
0,63,70,0
0,65,73,0
0,61,86,0
0,67,73,0
0,42,77,2
0,65,67,28
0,42,57,0
0,55,74,0
0,63,87,0
0,46,80,20
0,36,127,4
0,42,77,0
0,48,92,0
0,42,57,2
0,46,73,0
0,60,65,28
0,46,75,2
0,65,79,2
0,61,85,0
0,68,64,2
0,42,77,0
0,48,75,0
0,42,57,10
0,46,87,0
0,42,77,2
0,39,101,0
0,65,80,0
0,56,80,0
0,61,84,0
0,61,64,2
0,67,78,0
0,81,120,0
0,42,57,0
0,56,85,0
0,61,76,0
0,65,75,0
0,68,68,0
0,42,77,0
0,56,80,26
0,68,63,0
0,42,57,2
0,63,88,0
0,60,76,0
0,36,127,4
0,42,77,0
0,65,73,44
0,58,72,0
0,42,57,0
0,61,84,0
0,42,77,12
0,67,79,0
0,55,71,0
0,42,57,0
0,63,85,0
0,42,77,2
0,65,67,0
0,68,74,26
0,42,57,0
0,65,77,0
0,61,86,0
0,42,77,2
0,55,66,28
0,42,57,2
0,70,70,0
0,63,79,0
0,46,80,18
0,36,127,2
0,42,77,0
0,70,70,0
0,48,92,0
0,55,70,0
0,63,84,0
0,68,74,2
0,42,57,0
0,46,73,0
0,68,58,6
0,46,75,0
0,65,80,4
0,42,77,0
0,48,75,0
0,61,83,0
0,67,61,6
0,42,57,0
0,46,87,0
0,60,77,12
0,65,55,0
0,56,76,0
0,65,69,0
0,81,120,2
0,42,77,0
0,39,98,0
0,61,86,0
0,65,76,14
0,61,71,0
0,42,57,2
0,42,77,22
0,70,85,0
0,56,78,0
0,63,78,0
0,42,57,0
0,70,89,14
0,36,127,2
0,42,77,0
0,65,72,44
0,61,86,0
0,63,65,0
0,42,57,2
0,68,68,14
0,42,77,0
0,67,75,32
0,42,57,2
0,55,65,0
0,63,87,0
0,65,70,0
0,42,77,2
0,65,79,38
0,36,127,0
0,42,57,0
0,61,86,0
0,42,77,6
0,55,68,42
0,63,75,0
0,36,107,2
0,42,57,0
0,46,75,20
0,55,68,2
0,63,83,0
0,36,107,0
0,42,77,0
0,48,76,0
0,42,57,8
0,46,78,0
0,65,80,30
0,46,57,2
0,39,91,0
0,61,87,0
0,56,70,0
0,61,85,2
0,81,120,0
0,42,77,0
0,46,93,0
0,56,70,0
0,65,72,2
0,42,57,44
0,42,77,20
0,65,71,0
0,61,74,0
0,60,115,18
0,42,57,0
0,56,72,0
0,63,76,0
0,82,74,2
0,61,115,0
0,36,127,0
0,42,77,0
0,63,124,46
0,42,57,0
0,65,73,0
0,61,79,0
0,42,77,6
0,38,88,0
0,83,60,0
0,42,57,0
0,65,120,0
0,55,62,0
0,63,80,0
0,39,90,2
0,83,80,0
0,42,77,0
0,42,57,40
0,65,74,0
0,61,80,0
0,63,122,2
0,83,70,0
0,42,77,0
0,58,112,2
0,42,57,0
0,55,68,0
0,63,80,0
0,36,127,0
0,42,77,0
0,65,73,44
0,63,112,2
0,42,57,0
0,61,83,0
0,42,77,46
0,64,76,36
0,43,87,2
0,42,57,0
0,56,73,2
0,60,69,0
0,81,120,2
0,44,74,0
0,42,77,0
0,51,69,0
0,55,73,0
0,60,61,2
0,42,57,16
0,55,68,34
0,42,77,0
0,60,49,0
0,65,120,24
0,42,57,0
0,51,71,0
0,58,73,0
0,82,74,0
0,36,127,0
0,42,77,0
0,63,118,46
0,42,57,0
0,55,85,0
0,60,72,0
0,42,77,2
0,83,60,10
0,61,109,0
0,42,57,0
0,37,79,42
0,83,80,0
0,60,116,0
0,42,77,0
0,49,78,0
0,42,57,4
0,53,65,0
0,83,70,40
0,61,111,0
0,42,77,0
0,61,85,0
0,42,57,0
0,63,84,0
0,56,90,0
0,36,127,28
0,42,77,0
0,65,74,44
0,42,57,2
0,53,68,0
0,61,78,0
0,42,77,46
0,60,70,28
0,33,79,0
0,42,57,0
0,81,120,0
0,34,84,0
0,42,77,0
0,46,77,0
0,42,57,26
0,53,81,0
0,42,77,28
0,61,82,0
0,65,71,44
0,63,64,2
0,72,66,0
0,60,119,0
0,42,57,0
0,82,74,2
0,65,62,0
0,73,67,0
0,61,109,0
0,36,127,0
0,42,77,0
0,56,72,36
0,63,84,0
0,75,64,2
0,67,51,0
0,63,124,0
0,42,57,0
0,42,77,0
0,38,81,0
0,83,60,0
0,68,67,0
0,77,59,0
0,42,57,0
0,65,118,0
0,39,83,0
0,83,80,0
0,42,77,0
0,51,89,0
0,67,54,26
0,75,64,0
0,42,57,0
0,58,76,0
0,63,118,0
0,83,70,0
0,42,77,0
0,67,70,0
0,65,123,40
0,42,57,0
0,65,77,0
0,58,76,0
0,36,127,36
0,42,77,0
0,63,85,16
0,65,56,2
0,73,67,0
0,67,124,0
0,42,57,0
0,42,77,0
0,39,84,24
0,67,124,0
0,42,57,0
0,60,62,2
0,81,120,44
0,53,81,0
0,65,49,0
0,68,68,0
0,72,51,0
0,41,87,0
0,68,114,0
0,42,77,0
0,42,57,0
0,56,72,32
0,67,126,2
0,67,41,0
0,70,57,0
0,42,77,0
0,81,100,10
0,56,72,0
0,65,116,0
0,65,46,0
0,68,66,0
0,42,57,0
0,63,116,0
0,36,127,0
0,42,77,0
0,60,75,42
0,42,57,0
0,67,59,0
0,70,65,0
0,65,110,0
0,81,110,2
0,42,77,0
0,72,51,32
0,68,69,0
0,42,57,0
0,42,77,0
0,42,57,46
0,42,77,22
0,53,71,0
0,68,91,0
0,36,84,0
0,42,57,0
0,55,84,24
0,70,86,0
0,36,92,0
0,36,127,0
0,42,77,0
0,65,52,2
0,42,57,4
0,41,84,4
0,42,77,0
0,56,89,0
0,72,82,0
0,42,57,6
0,65,62,0
0,81,120,0
0,65,55,0
0,73,64,0
0,61,68,0
0,46,88,0
0,42,77,0
0,46,82,0
0,42,57,0
0,65,71,44
0,42,77,0
0,61,85,0
0,68,109,0
0,42,57,2
0,65,125,0
0,56,83,0
0,63,84,0
0,82,74,42
0,36,127,0
0,42,77,0
0,65,79,10
0,42,57,0
0,72,56,0
0,61,86,0
0,61,100,2
0,42,77,0
0,38,73,0
0,83,60,0
0,70,65,0
0,55,64,0
0,61,63,0
0,60,100,0
0,42,57,0
0,55,69,0
0,63,85,0
0,39,88,2
0,83,80,0
0,42,77,0
0,65,79,16
0,42,57,0
0,61,86,0
0,58,124,46
0,83,70,0
0,42,77,0
0,67,50,40
0,60,124,0
0,42,57,0
0,55,71,0
0,63,83,0
0,68,68,0
0,36,127,0
0,42,77,0
0,61,111,0
0,65,79,0
0,70,67,0
0,42,57,0
0,61,80,0
0,42,77,42
0,43,80,2
0,42,57,0
0,64,54,12
0,44,77,32
0,81,120,2
0,60,66,0
0,63,69,0
0,68,67,0
0,44,80,0
0,42,77,0
0,42,57,2
0,51,84,0
0,42,77,46
0,56,78,0
0,63,84,24
0,63,110,2
0,42,57,0
0,56,73,0
0,82,74,28
0,63,115,0
0,36,127,0
0,42,77,0
0,67,59,2
0,42,57,0
0,34,79,0
0,63,121,0
0,42,77,0
0,83,60,0
0,58,60,0
0,64,66,0
0,55,50,0
0,35,70,0
0,64,110,0
0,42,57,0
0,83,80,0
0,36,83,0
0,42,77,0
0,64,65,2
0,64,111,0
0,42,57,0
0,83,70,0
0,42,77,0
0,60,71,34
0,65,121,0
0,58,64,0
0,67,62,0
0,42,57,0
0,52,80,0
0,58,76,0
0,60,71,0
0,36,127,2
0,42,77,0
0,52,84,0
0,58,75,0
0,67,121,0
0,60,56,0
0,72,64,0
0,42,57,0
0,42,77,0
0,60,71,0
0,52,80,0
0,58,65,0
0,40,75,10
0,42,57,0
0,72,67,0
0,65,70,0
0,68,125,0
0,65,48,0
0,68,60,0
0,41,73,0
0,42,77,0
0,41,82,0
0,72,71,2
0,65,68,0
0,68,125,2
0,42,57,0
0,48,66,0
0,65,67,28
0,72,70,0
0,68,125,2
0,42,77,0
0,53,62,0
0,65,72,24
0,72,73,0
0,68,127,0
0,42,57,0
0,56,87,0
0,36,127,46
0,42,77,0
0,68,68,22
0,65,120,2
0,42,57,0
0,60,71,0
0,60,116,2
0,42,77,0
0,60,66,0
0,65,54,0
0,68,58,28
0,60,78,0
0,45,75,2
0,63,118,0
0,42,57,0
0,46,81,32
0,61,48,2
0,58,52,0
0,46,87,0
0,42,77,0
0,53,71,0
0,58,80,0
0,68,61,0
0,65,51,0
0,73,68,0
0,42,57,0
0,61,116,0
0,56,75,22
0,42,77,2
0,67,65,44
0,75,74,0
0,61,83,0
0,42,57,0
0,36,127,6
0,42,77,0
0,77,66,46
0,68,74,0
0,42,57,0
0,42,77,0
0,52,57,26
0,38,82,0
0,67,62,0
0,75,72,0
0,42,57,0
0,51,80,40
0,63,76,0
0,39,89,0
0,58,60,0
0,42,77,0
0,67,125,0
0,70,52,0
0,63,75,0
0,70,65,0
0,42,57,2
0,67,125,0
0,55,63,0
0,63,78,24
0,70,63,0
0,58,70,0
0,42,77,0
0,67,125,0
0,70,67,24
0,42,57,2
0,67,127,0
0,63,77,0
0,63,75,0
0,36,127,0
0,42,77,0
0,63,75,30
0,70,70,2
0,70,56,2
0,63,120,0
0,42,57,0
0,70,70,0
0,63,75,2
0,67,51,2
0,73,69,0
0,58,116,0
0,42,77,0
0,57,72,14
0,68,55,0
0,63,71,2
0,43,78,2
0,60,116,0
0,42,57,0
0,44,84,0
0,44,71,0
0,42,77,0
0,72,55,0
0,56,69,0
0,63,66,0
0,51,76,0
0,42,57,2
0,56,68,0
0,42,77,2
0,65,55,0
0,73,49,0
0,61,80,14
0,53,73,0
0,42,57,0
0,72,55,0
0,63,64,0
0,60,81,34
0,51,78,0
0,36,127,0
0,42,77,0
0,70,64,0
0,42,57,0
0,58,86,0
0,51,76,0
0,43,78,0
0,68,70,0
0,42,77,0
0,42,57,2
0,41,89,38
0,68,60,2
0,60,122,0
0,41,80,0
0,65,37,0
0,60,34,0
0,42,77,0
0,65,69,0
0,68,60,20
0,48,78,2
0,65,63,0
0,60,122,2
0,42,57,0
0,68,58,26
0,65,56,2
0,60,122,2
0,42,77,0
0,53,62,0
0,68,58,26
0,56,85,2
0,65,72,0
0,60,124,2
0,42,57,0
0,36,127,0
0,42,77,0
0,65,68,2
0,68,55,0
0,65,122,2
0,42,57,0
0,57,72,0
0,63,76,36
0,39,84,0
0,67,65,0
0,68,120,0
0,42,77,0
0,68,63,20
0,63,73,2
0,39,85,4
0,65,60,0
0,67,119,0
0,42,57,0
0,38,75,36
0,62,70,0
0,58,60,0
0,38,75,2
0,58,44,0
0,50,49,0
0,42,77,0
0,68,57,28
0,46,78,2
0,65,120,0
0,42,57,0
0,62,67,0
0,58,54,0
0,53,75,22
0,42,77,2
0,58,87,4
0,42,57,0
0,68,55,2
0,65,62,0
0,74,58,0
0,36,127,0
0,42,77,0
0,70,125,0
0,58,66,0
0,62,56,0
0,68,57,24
0,68,65,2
0,77,64,0
0,42,57,0
0,70,123,0
0,58,68,0
0,62,75,0
0,68,63,10
0,58,58,2
0,46,78,2
0,42,77,0
0,70,123,0
0,62,73,0
0,68,56,28
0,57,60,4
0,68,70,0
0,77,66,0
0,38,88,0
0,42,57,0
0,68,115,0
0,62,66,0
0,58,52,2
0,39,89,0
0,42,77,0
0,51,66,0
0,51,88,0
0,70,48,0
0,63,53,2
0,67,120,0
0,42,57,0
0,67,62,0
0,75,66,0
0,70,70,0
0,58,68,0
0,63,68,0
0,58,70,0
0,42,77,46
0,63,73,0
0,65,87,36
0,42,57,2
0,58,75,0
0,36,127,24
0,42,77,0
0,42,57,6
0,67,73,0
0,58,70,0
0,63,124,2
0,63,64,0
0,70,70,0
0,70,67,0
0,42,77,0
0,58,71,0
0,67,73,0
0,58,73,0
0,70,69,0
0,60,76,0
0,67,120,0
0,67,52,0
