track,note,velocity,time
3,60,110,1920
3,64,110,4
3,67,110,4
3,64,110,64
3,60,110,4
3,64,110,4
3,67,110,4
3,72,110,4
3,71,110,96
3,72,110,4
3,67,110,4
3,62,110,64
3,62,110,4
3,67,110,4
3,65,110,4
3,64,110,4
3,60,110,64
3,60,110,64
3,64,110,4
3,67,110,4
3,64,110,64
3,60,110,4
3,64,110,4
3,67,110,4
3,72,110,4
3,71,110,96
3,72,110,4
3,67,110,4
3,62,110,64
3,62,110,4
3,67,110,4
3,65,110,4
3,64,110,4
3,60,110,64
3,60,110,64
3,69,110,4
3,69,110,4
3,69,110,4
3,71,110,4
3,72,110,4
3,74,110,4
3,72,110,4
3,69,110,64
3,69,110,4
3,71,110,4
3,72,110,4
3,71,110,4
3,67,110,64
3,69,110,4
3,71,110,4
3,69,110,4
3,69,110,96
3,67,110,4
3,65,110,4
3,65,110,64
3,62,110,4
3,64,110,4
3,65,110,4
3,67,110,4
3,72,110,64
3,71,110,64
3,72,110,4
3,67,110,4
3,62,110,64
3,62,110,4
3,67,110,4
3,65,110,4
3,64,110,4
3,69,110,96
3,67,110,4
3,65,110,4
3,65,110,64
3,67,110,4
3,69,110,4
3,71,110,4
3,72,110,4
3,76,110,64
3,72,110,64
3,69,110,4
3,67,110,4
3,67,110,64
3,64,110,4
3,65,110,4
3,62,110,4
3,60,110,4
3,60,110,448
3,64,110,4
3,67,110,4
3,64,110,64
3,60,110,4
3,64,110,4
3,67,110,4
3,72,110,4
3,71,110,96
3,72,110,4
3,67,110,4
3,62,110,64
3,62,110,4
3,67,110,4
3,65,110,4
3,64,110,4
3,60,110,64
3,60,110,64
3,64,110,4
3,67,110,4
3,64,110,64
3,60,110,4
3,64,110,4
3,67,110,4
3,72,110,4
3,71,110,96
3,72,110,4
3,67,110,4
3,62,110,64
3,62,110,4
3,67,110,4
3,65,110,4
3,64,110,4
3,60,110,64
3,60,110,64
3,69,110,4
3,69,110,4
3,69,110,4
3,71,110,4
3,72,110,4
3,74,110,4
3,72,110,4
3,69,110,64
3,69,110,4
3,71,110,4
3,72,110,4
3,71,110,4
3,67,110,64
3,69,110,4
3,71,110,4
3,69,110,4
3,69,110,96
3,67,110,4
3,65,110,4
3,65,110,64
3,62,110,4
3,64,110,4
3,65,110,4
3,67,110,4
3,72,110,64
3,71,110,64
3,72,110,4
3,67,110,4
3,62,110,64
3,62,110,4
3,67,110,4
3,65,110,4
3,64,110,4
3,69,110,96
3,67,110,4
3,65,110,4
3,65,110,64
3,67,110,4
3,69,110,4
3,71,110,4
3,72,110,4
3,76,110,64
3,72,110,64
3,69,110,4
3,67,110,4
3,67,110,64
3,64,110,4
3,65,110,4
3,62,110,4
3,60,110,4
3,60,110,448
3,64,110,4
3,67,110,4
3,64,110,64
3,60,110,4
3,64,110,4
3,67,110,4
3,72,110,4
3,71,110,96
3,72,110,4
3,67,110,4
3,62,110,64
3,62,110,4
3,67,110,4
3,65,110,4
3,64,110,4
3,60,110,64
3,60,110,64
3,64,110,4
3,67,110,4
3,64,110,64
3,60,110,4
3,64,110,4
3,67,110,4
3,72,110,4
3,71,110,96
3,72,110,4
3,67,110,4
3,62,110,64
3,62,110,4
3,67,110,4
3,65,110,4
3,64,110,4
3,60,110,64
3,60,110,64
3,69,110,4
3,69,110,4
3,69,110,4
3,71,110,4
3,72,110,4
3,74,110,4
3,72,110,4
3,69,110,64
3,69,110,4
3,71,110,4
3,72,110,4
3,71,110,4
3,67,110,64
3,69,110,4
3,71,110,4
3,69,110,4
3,69,110,96
3,67,110,4
3,65,110,4
3,65,110,64
3,62,110,4
3,64,110,4
3,65,110,4
3,67,110,4
3,72,110,64
3,71,110,64
3,72,110,4
3,67,110,4
3,62,110,64
3,62,110,4
3,67,110,4
3,65,110,4
3,64,110,4
3,69,110,96
3,67,110,4
3,65,110,4
3,65,110,64
3,67,110,4
3,69,110,4
3,71,110,4
3,72,110,4
3,76,110,64
3,72,110,64
3,69,110,4
3,67,110,4
3,67,110,64
3,64,110,4
3,65,110,4
3,62,110,4
3,60,110,4
3,60,110,9856
3,69,110,4
3,69,110,4
3,69,110,4
3,71,110,4
3,72,110,4
3,74,110,4
3,72,110,4
3,69,110,64
3,69,110,4
3,71,110,4
3,72,110,4
3,71,110,4
3,67,110,64
3,69,110,4
3,71,110,4
3,69,110,4
3,69,110,96
3,67,110,4
3,65,110,4
3,65,110,64
3,62,110,4
3,64,110,4
3,65,110,4
3,67,110,4
3,72,110,64
3,71,110,64
3,72,110,4
3,67,110,4
3,62,110,64
3,62,110,4
3,67,110,4
3,65,110,4
3,64,110,4
3,69,110,96
3,67,110,4
3,65,110,4
3,65,110,64
3,67,110,4
3,69,110,4
3,71,110,4
3,72,110,4
3,76,110,64
3,72,110,64
3,69,110,4
3,67,110,4
3,67,110,64
3,64,110,4
3,65,110,4
3,62,110,4
3,60,110,4
4,60,110,384
4,64,110,0
4,67,110,0
4,69,110,0
4,72,110,0
4,60,110,480
4,64,110,0
4,67,110,0
4,69,110,0
4,72,110,0
4,60,110,64
4,64,110,4
4,67,110,4
4,55,110,64
4,64,110,0
4,60,110,4
4,64,110,4
4,67,110,4
4,72,110,4
4,64,110,384
4,67,110,0
4,71,110,64
4,72,110,4
4,67,110,4
4,59,110,64
4,62,110,0
4,62,110,4
4,67,110,4
4,65,110,4
4,64,110,4
4,55,110,64
4,60,110,0
4,60,110,64
4,64,110,4
4,67,110,4
4,55,110,64
4,64,110,0
4,60,110,4
4,64,110,4
4,67,110,4
4,72,110,4
4,64,110,384
4,67,110,0
4,71,110,64
4,72,110,4
4,67,110,4
4,59,110,64
4,62,110,0
4,62,110,4
4,67,110,4
4,65,110,4
4,64,110,4
4,55,110,64
4,60,110,0
4,60,110,64
4,69,110,4
4,69,110,4
4,60,110,4
4,65,110,0
4,69,110,0
4,71,110,4
4,72,110,4
4,74,110,4
4,72,110,4
4,60,110,64
4,65,110,0
4,69,110,0
4,69,110,4
4,71,110,4
4,72,110,4
4,71,110,4
4,59,110,384
4,64,110,0
4,67,110,4
4,62,110,4
4,69,110,0
4,71,110,4
4,69,110,4
4,55,110,384
4,61,110,0
4,64,110,0
4,69,110,64
4,67,110,4
4,65,110,4
4,57,110,64
4,65,110,0
4,62,110,4
4,59,110,4
4,64,110,0
4,65,110,4
4,67,110,4
4,72,110,64
4,71,110,64
4,72,110,4
4,67,110,4
4,60,110,64
4,62,110,0
4,62,110,4
4,67,110,4
4,65,110,4
4,55,110,4
4,60,110,0
4,64,110,0
4,58,110,64
4,60,110,64
4,69,110,0
4,67,110,4
4,65,110,4
4,60,110,64
4,65,110,0
4,67,110,4
4,62,110,4
4,65,110,0
4,69,110,0
4,71,110,4
4,64,110,4
4,67,110,0
4,72,110,0
4,76,110,64
4,60,110,64
4,67,110,0
4,72,110,0
4,69,110,4
4,57,110,4
4,60,110,0
4,67,110,0
4,67,110,64
4,55,110,4
4,64,110,0
4,57,110,4
4,65,110,0
4,59,110,4
4,62,110,0
4,52,110,4
4,60,110,0
4,64,110,64
4,67,110,0
4,69,110,0
4,72,110,0
4,60,110,64
4,64,110,0
4,67,110,0
4,69,110,0
4,72,110,0
4,60,110,64
4,64,110,4
4,67,110,4
4,55,110,64
4,64,110,0
4,60,110,4
4,64,110,4
4,67,110,4
4,72,110,4
4,64,110,384
4,67,110,0
4,71,110,64
4,72,110,4
4,67,110,4
4,59,110,64
4,62,110,0
4,62,110,4
4,67,110,4
4,65,110,4
4,64,110,4
4,55,110,64
4,60,110,0
4,60,110,64
4,64,110,4
4,67,110,4
4,55,110,64
4,64,110,0
4,60,110,4
4,64,110,4
4,67,110,4
4,72,110,4
4,64,110,384
4,67,110,0
4,71,110,64
4,72,110,4
4,67,110,4
4,59,110,64
4,62,110,0
4,62,110,4
4,67,110,4
4,65,110,4
4,64,110,4
4,55,110,64
4,60,110,0
4,60,110,64
4,69,110,4
4,69,110,4
4,60,110,4
4,65,110,0
4,69,110,0
4,71,110,4
4,72,110,4
4,74,110,4
4,72,110,4
4,60,110,64
4,65,110,0
4,69,110,0
4,69,110,4
4,71,110,4
4,72,110,4
4,71,110,4
4,59,110,384
4,64,110,0
4,67,110,4
4,62,110,4
4,69,110,0
4,71,110,4
4,69,110,4
4,55,110,384
4,61,110,0
4,64,110,0
4,69,110,64
4,67,110,4
4,65,110,4
4,57,110,64
4,65,110,0
4,62,110,4
4,59,110,4
4,64,110,0
4,65,110,4
4,67,110,4
4,72,110,64
4,71,110,64
4,72,110,4
4,67,110,4
4,60,110,64
4,62,110,0
4,62,110,4
4,67,110,4
4,65,110,4
4,55,110,4
4,60,110,0
4,64,110,0
4,58,110,64
4,60,110,64
4,69,110,0
4,67,110,4
4,65,110,4
4,60,110,64
4,65,110,0
4,67,110,4
4,62,110,4
4,65,110,0
4,69,110,0
4,71,110,4
4,64,110,4
4,67,110,0
4,72,110,0
4,76,110,64
4,60,110,64
4,67,110,0
4,72,110,0
4,69,110,4
4,57,110,4
4,60,110,0
4,67,110,0
4,67,110,64
4,55,110,4
4,64,110,0
4,57,110,4
4,65,110,0
4,59,110,4
4,62,110,0
4,52,110,4
4,60,110,0
4,64,110,64
4,67,110,0
4,69,110,0
4,72,110,0
4,60,110,64
4,64,110,0
4,67,110,0
4,69,110,0
4,72,110,0
4,60,110,64
4,64,110,4
4,67,110,4
4,55,110,64
4,64,110,0
4,60,110,4
4,64,110,4
4,67,110,4
4,72,110,4
4,64,110,384
4,67,110,0
4,71,110,64
4,72,110,4
4,67,110,4
4,59,110,64
4,62,110,0
4,62,110,4
4,67,110,4
4,65,110,4
4,64,110,4
4,55,110,64
4,60,110,0
4,60,110,64
4,64,110,4
4,67,110,4
4,55,110,64
4,64,110,0
4,60,110,4
4,64,110,4
4,67,110,4
4,72,110,4
4,64,110,384
4,67,110,0
4,71,110,64
4,72,110,4
4,67,110,4
4,59,110,64
4,62,110,0
4,62,110,4
4,67,110,4
4,65,110,4
4,64,110,4
4,55,110,64
4,60,110,0
4,60,110,64
4,69,110,4
4,69,110,4
4,60,110,4
4,65,110,0
4,69,110,0
4,71,110,4
4,72,110,4
4,74,110,4
4,72,110,4
4,60,110,64
4,65,110,0
4,69,110,0
4,69,110,4
4,71,110,4
4,72,110,4
4,71,110,4
4,59,110,384
4,64,110,0
4,67,110,4
4,62,110,4
4,69,110,0
4,71,110,4
4,69,110,4
4,55,110,384
4,61,110,0
4,64,110,0
4,69,110,64
4,67,110,4
4,65,110,4
4,57,110,64
4,65,110,0
4,62,110,4
4,59,110,4
4,64,110,0
4,65,110,4
4,67,110,4
4,72,110,64
4,71,110,64
4,72,110,4
4,67,110,4
4,60,110,64
4,62,110,0
4,62,110,4
4,67,110,4
4,65,110,4
4,55,110,4
4,60,110,0
4,64,110,0
4,58,110,64
4,60,110,64
4,69,110,0
4,67,110,4
4,65,110,4
4,60,110,64
4,65,110,0
4,67,110,4
4,62,110,4
4,65,110,0
4,69,110,0
4,71,110,4
4,64,110,4
4,67,110,0
4,72,110,0
4,76,110,64
4,60,110,64
4,67,110,0
4,72,110,0
4,69,110,4
4,57,110,4
4,60,110,0
4,67,110,0
4,67,110,64
4,55,110,4
4,64,110,0
4,57,110,4
4,65,110,0
4,59,110,4
4,62,110,0
4,52,110,4
4,60,110,0
4,64,110,64
4,67,110,0
4,69,110,0
4,72,110,0
4,60,110,64
4,64,110,0
4,67,110,0
4,69,110,0
4,72,110,0
4,60,110,64
4,64,110,4
4,67,110,4
4,55,110,64
4,60,110,192
4,64,110,4
4,67,110,4
4,72,110,4
4,64,110,384
4,67,110,0
4,71,110,64
4,72,110,4
4,67,110,4
4,62,110,64
4,67,110,4
4,65,110,4
4,64,110,4
4,55,110,64
4,60,110,0
4,60,110,64
4,64,110,4
4,67,110,4
4,55,110,64
4,60,110,192
4,64,110,4
4,67,110,4
4,72,110,4
4,64,110,384
4,67,110,0
4,71,110,64
4,72,110,4
4,67,110,4
4,62,110,64
4,67,110,4
4,65,110,4
4,64,110,4
4,55,110,64
4,60,110,0
4,60,110,64
4,69,110,4
4,69,110,4
4,60,110,4
4,65,110,0
4,69,110,0
4,71,110,4
4,72,110,4
4,74,110,4
4,72,110,4
4,60,110,64
4,65,110,0
4,69,110,0
4,69,110,4
4,71,110,4
4,72,110,4
4,71,110,4
4,59,110,384
4,64,110,0
4,67,110,4
4,62,110,4
4,69,110,0
4,71,110,4
4,69,110,4
4,55,110,384
4,61,110,0
4,64,110,0
4,69,110,64
4,67,110,4
4,65,110,4
4,57,110,64
4,65,110,0
4,62,110,4
4,59,110,4
4,64,110,0
4,65,110,4
4,67,110,4
4,72,110,64
4,71,110,64
4,72,110,4
4,67,110,4
4,60,110,64
4,62,110,0
4,62,110,4
4,67,110,4
4,65,110,4
4,55,110,4
4,60,110,0
4,64,110,0
4,58,110,64
4,60,110,64
4,69,110,0
4,67,110,4
4,65,110,4
4,60,110,64
4,65,110,0
4,67,110,4
4,62,110,4
4,65,110,0
4,69,110,0
4,71,110,4
4,64,110,4
4,67,110,0
4,72,110,0
4,76,110,64
4,60,110,64
4,67,110,0
4,72,110,0
4,69,110,4
4,57,110,4
4,60,110,0
4,67,110,0
4,67,110,64
4,55,110,4
4,64,110,0
4,57,110,4
4,65,110,0
4,59,110,4
4,62,110,0
4,52,110,4
4,55,110,0
4,57,110,0
4,60,110,0
5,48,110,0
5,43,110,448
5,48,110,64
5,43,110,448
5,48,110,64
5,52,110,64
5,43,110,64
5,48,110,64
5,52,110,64
5,43,110,64
5,50,110,64
5,53,110,64
5,43,110,4
5,45,110,4
5,47,110,4
5,48,110,4
5,52,110,64
5,43,110,64
5,48,110,64
5,52,110,64
5,43,110,64
5,48,110,64
5,52,110,64
5,43,110,64
5,50,110,64
5,53,110,64
5,43,110,4
5,45,110,4
5,47,110,4
5,48,110,4
5,48,110,256
5,50,110,4
5,52,110,4
5,53,110,4
5,53,110,448
5,50,110,64
5,50,110,448
5,52,110,64
5,40,110,448
5,45,110,64
5,45,110,256
5,47,110,4
5,49,110,4
5,50,110,4
5,43,110,448
5,48,110,64
5,52,110,448
5,50,110,64
5,43,110,448
5,48,110,64
5,45,110,96
5,55,110,0
5,53,110,64
5,43,110,448
5,48,110,64
5,52,110,448
5,50,110,64
5,43,110,448
5,48,110,64
5,43,110,448
5,48,110,64
5,43,110,448
5,48,110,64
5,52,110,64
5,43,110,64
5,48,110,64
5,52,110,64
5,43,110,64
5,50,110,64
5,53,110,64
5,43,110,4
5,45,110,4
5,47,110,4
5,48,110,4
5,52,110,64
5,43,110,64
5,48,110,64
5,52,110,64
5,43,110,64
5,48,110,64
5,52,110,64
5,43,110,64
5,50,110,64
5,53,110,64
5,43,110,4
5,45,110,4
5,47,110,4
5,48,110,4
5,48,110,256
5,50,110,4
5,52,110,4
5,53,110,4
5,53,110,448
5,50,110,64
5,50,110,448
5,52,110,64
5,40,110,448
5,45,110,64
5,45,110,256
5,47,110,4
5,49,110,4
5,50,110,4
5,43,110,448
5,48,110,64
5,52,110,448
5,50,110,64
5,43,110,448
5,48,110,64
5,45,110,96
5,55,110,0
5,53,110,64
5,43,110,448
5,48,110,64
5,52,110,448
5,50,110,64
5,43,110,448
5,48,110,64
5,43,110,448
5,48,110,64
5,43,110,448
5,48,110,64
5,52,110,64
5,43,110,64
5,48,110,64
5,52,110,64
5,43,110,64
5,50,110,64
5,53,110,64
5,43,110,4
5,45,110,4
5,47,110,4
5,48,110,4
5,52,110,64
5,43,110,64
5,48,110,64
5,52,110,64
5,43,110,64
5,48,110,64
5,52,110,64
5,43,110,64
5,50,110,64
5,53,110,64
5,43,110,4
5,45,110,4
5,47,110,4
5,48,110,4
5,48,110,256
5,50,110,4
5,52,110,4
5,53,110,4
5,53,110,448
5,50,110,64
5,50,110,448
5,52,110,64
5,40,110,448
5,45,110,64
5,45,110,256
5,47,110,4
5,49,110,4
5,50,110,4
5,43,110,448
