track,note,velocity,time
3.0,57.0,110.0,2880.0
3.0,62.0,110.0,4.0
3.0,62.0,110.0,4.0
3.0,66.0,110.0,4.0
3.0,62.0,110.0,4.0
3.0,64.0,110.0,4.0
3.0,64.0,110.0,4.0
3.0,67.0,110.0,4.0
3.0,67.0,110.0,4.0
3.0,66.0,110.0,4.0
3.0,64.0,110.0,4.0
3.0,62.0,110.0,4.0
3.0,64.0,110.0,4.0
3.0,57.0,110.0,256.0
3.0,62.0,110.0,4.0
3.0,62.0,110.0,4.0
3.0,66.0,110.0,4.0
3.0,62.0,110.0,4.0
3.0,64.0,110.0,4.0
3.0,64.0,110.0,4.0
3.0,67.0,110.0,4.0
3.0,67.0,110.0,4.0
3.0,66.0,110.0,4.0
3.0,64.0,110.0,64.0
3.0,64.0,110.0,4.0
3.0,62.0,110.0,4.0
3.0,57.0,110.0,256.0
3.0,62.0,110.0,4.0
3.0,62.0,110.0,4.0
3.0,66.0,110.0,4.0
3.0,62.0,110.0,4.0
3.0,64.0,110.0,4.0
3.0,64.0,110.0,4.0
3.0,67.0,110.0,4.0
3.0,67.0,110.0,4.0
3.0,66.0,110.0,4.0
3.0,64.0,110.0,4.0
3.0,62.0,110.0,4.0
3.0,64.0,110.0,4.0
3.0,57.0,110.0,256.0
3.0,62.0,110.0,4.0
3.0,62.0,110.0,4.0
3.0,66.0,110.0,4.0
3.0,62.0,110.0,4.0
3.0,64.0,110.0,4.0
3.0,64.0,110.0,4.0
3.0,67.0,110.0,4.0
3.0,67.0,110.0,4.0
3.0,66.0,110.0,4.0
3.0,64.0,110.0,64.0
3.0,62.0,110.0,4.0
3.0,62.0,110.0,4.0
3.0,69.0,110.0,256.0
3.0,72.0,110.0,4.0
3.0,72.0,110.0,4.0
3.0,74.0,110.0,4.0
3.0,72.0,110.0,4.0
3.0,71.0,110.0,4.0
3.0,71.0,110.0,4.0
3.0,74.0,110.0,4.0
3.0,73.0,110.0,4.0
3.0,71.0,110.0,4.0
3.0,73.0,110.0,4.0
3.0,71.0,110.0,4.0
3.0,70.0,110.0,4.0
3.0,66.0,110.0,256.0
3.0,69.0,110.0,4.0
3.0,69.0,110.0,4.0
3.0,71.0,110.0,4.0
3.0,69.0,110.0,4.0
3.0,68.0,110.0,4.0
3.0,68.0,110.0,4.0
3.0,71.0,110.0,4.0
3.0,71.0,110.0,4.0
3.0,69.0,110.0,4.0
3.0,69.0,110.0,0.0
3.0,68.0,110.0,0.0
3.0,66.0,110.0,4.0
3.0,68.0,110.0,4.0
3.0,69.0,110.0,4.0
3.0,71.0,110.0,100.0
3.0,72.0,110.0,4.0
3.0,72.0,110.0,4.0
3.0,74.0,110.0,4.0
3.0,72.0,110.0,4.0
3.0,71.0,110.0,4.0
3.0,71.0,110.0,4.0
3.0,74.0,110.0,4.0
3.0,73.0,110.0,4.0
3.0,71.0,110.0,4.0
3.0,73.0,110.0,4.0
3.0,71.0,110.0,4.0
3.0,70.0,110.0,4.0
3.0,66.0,110.0,0.0
3.0,68.0,110.0,0.0
3.0,69.0,110.0,4.0
3.0,69.0,110.0,4.0
3.0,71.0,110.0,4.0
3.0,69.0,110.0,4.0
3.0,68.0,110.0,4.0
3.0,68.0,110.0,4.0
3.0,76.0,110.0,4.0
3.0,67.0,110.0,4.0
3.0,66.0,110.0,4.0
3.0,64.0,110.0,64.0
3.0,62.0,110.0,64.0
3.0,57.0,110.0,352.0
3.0,62.0,110.0,4.0
3.0,62.0,110.0,4.0
3.0,66.0,110.0,4.0
3.0,62.0,110.0,4.0
3.0,64.0,110.0,4.0
3.0,64.0,110.0,4.0
3.0,67.0,110.0,4.0
3.0,67.0,110.0,4.0
3.0,66.0,110.0,4.0
3.0,64.0,110.0,4.0
3.0,62.0,110.0,4.0
3.0,64.0,110.0,4.0
3.0,57.0,110.0,256.0
3.0,62.0,110.0,4.0
3.0,62.0,110.0,4.0
3.0,66.0,110.0,4.0
3.0,62.0,110.0,4.0
3.0,64.0,110.0,4.0
3.0,64.0,110.0,4.0
3.0,67.0,110.0,4.0
3.0,67.0,110.0,4.0
3.0,66.0,110.0,4.0
3.0,64.0,110.0,64.0
3.0,64.0,110.0,4.0
3.0,62.0,110.0,4.0
3.0,57.0,110.0,256.0
3.0,62.0,110.0,4.0
3.0,62.0,110.0,4.0
3.0,66.0,110.0,4.0
3.0,62.0,110.0,4.0
3.0,64.0,110.0,4.0
3.0,64.0,110.0,4.0
3.0,67.0,110.0,4.0
3.0,67.0,110.0,4.0
3.0,66.0,110.0,4.0
3.0,64.0,110.0,4.0
3.0,62.0,110.0,4.0
3.0,64.0,110.0,4.0
3.0,57.0,110.0,256.0
3.0,62.0,110.0,4.0
3.0,62.0,110.0,4.0
3.0,66.0,110.0,4.0
3.0,62.0,110.0,4.0
3.0,64.0,110.0,4.0
3.0,64.0,110.0,4.0
3.0,67.0,110.0,4.0
3.0,67.0,110.0,4.0
3.0,66.0,110.0,4.0
3.0,64.0,110.0,64.0
3.0,62.0,110.0,4.0
3.0,62.0,110.0,4.0
3.0,69.0,110.0,256.0
3.0,72.0,110.0,4.0
3.0,72.0,110.0,4.0
3.0,74.0,110.0,4.0
3.0,72.0,110.0,4.0
3.0,71.0,110.0,4.0
3.0,71.0,110.0,4.0
3.0,74.0,110.0,4.0
3.0,73.0,110.0,4.0
3.0,71.0,110.0,4.0
3.0,73.0,110.0,4.0
3.0,71.0,110.0,4.0
3.0,70.0,110.0,4.0
3.0,66.0,110.0,256.0
3.0,69.0,110.0,4.0
3.0,69.0,110.0,4.0
3.0,71.0,110.0,4.0
3.0,69.0,110.0,4.0
3.0,68.0,110.0,4.0
3.0,68.0,110.0,4.0
3.0,71.0,110.0,4.0
3.0,71.0,110.0,4.0
3.0,69.0,110.0,4.0
3.0,69.0,110.0,0.0
3.0,68.0,110.0,0.0
3.0,66.0,110.0,4.0
3.0,68.0,110.0,4.0
3.0,69.0,110.0,4.0
3.0,71.0,110.0,100.0
3.0,72.0,110.0,4.0
3.0,72.0,110.0,4.0
3.0,74.0,110.0,4.0
3.0,72.0,110.0,4.0
3.0,71.0,110.0,4.0
3.0,71.0,110.0,4.0
3.0,74.0,110.0,4.0
3.0,73.0,110.0,4.0
3.0,71.0,110.0,4.0
3.0,73.0,110.0,4.0
3.0,71.0,110.0,4.0
3.0,70.0,110.0,4.0
3.0,66.0,110.0,0.0
3.0,68.0,110.0,0.0
3.0,69.0,110.0,4.0
3.0,69.0,110.0,4.0
3.0,71.0,110.0,4.0
3.0,69.0,110.0,4.0
3.0,68.0,110.0,4.0
3.0,68.0,110.0,4.0
3.0,76.0,110.0,4.0
3.0,67.0,110.0,4.0
3.0,66.0,110.0,4.0
3.0,64.0,110.0,64.0
3.0,62.0,110.0,64.0
3.0,57.0,110.0,352.0
3.0,62.0,110.0,4.0
3.0,62.0,110.0,4.0
3.0,66.0,110.0,4.0
3.0,62.0,110.0,4.0
3.0,64.0,110.0,4.0
3.0,64.0,110.0,4.0
3.0,67.0,110.0,4.0
3.0,67.0,110.0,4.0
3.0,66.0,110.0,4.0
3.0,64.0,110.0,4.0
3.0,62.0,110.0,4.0
3.0,64.0,110.0,4.0
3.0,57.0,110.0,256.0
3.0,62.0,110.0,4.0
3.0,62.0,110.0,4.0
3.0,66.0,110.0,4.0
3.0,62.0,110.0,4.0
3.0,64.0,110.0,4.0
3.0,64.0,110.0,4.0
3.0,67.0,110.0,4.0
3.0,67.0,110.0,4.0
3.0,66.0,110.0,4.0
3.0,64.0,110.0,64.0
3.0,64.0,110.0,4.0
3.0,62.0,110.0,4.0
3.0,57.0,110.0,256.0
3.0,62.0,110.0,4.0
3.0,62.0,110.0,4.0
3.0,66.0,110.0,4.0
3.0,62.0,110.0,4.0
3.0,64.0,110.0,4.0
3.0,64.0,110.0,4.0
3.0,67.0,110.0,4.0
3.0,67.0,110.0,4.0
3.0,66.0,110.0,4.0
3.0,64.0,110.0,4.0
3.0,62.0,110.0,4.0
3.0,64.0,110.0,4.0
3.0,57.0,110.0,256.0
3.0,62.0,110.0,4.0
3.0,62.0,110.0,4.0
3.0,66.0,110.0,4.0
3.0,62.0,110.0,4.0
3.0,64.0,110.0,4.0
3.0,64.0,110.0,4.0
3.0,67.0,110.0,4.0
3.0,67.0,110.0,4.0
3.0,66.0,110.0,4.0
3.0,64.0,110.0,64.0
3.0,62.0,110.0,4.0
3.0,62.0,110.0,4.0
3.0,69.0,110.0,256.0
3.0,72.0,110.0,4.0
3.0,72.0,110.0,4.0
3.0,74.0,110.0,4.0
3.0,72.0,110.0,4.0
3.0,71.0,110.0,4.0
3.0,71.0,110.0,4.0
3.0,74.0,110.0,4.0
3.0,73.0,110.0,4.0
3.0,71.0,110.0,4.0
3.0,73.0,110.0,4.0
3.0,71.0,110.0,4.0
3.0,70.0,110.0,4.0
3.0,66.0,110.0,256.0
3.0,69.0,110.0,4.0
3.0,69.0,110.0,4.0
3.0,71.0,110.0,4.0
3.0,69.0,110.0,4.0
3.0,68.0,110.0,4.0
3.0,68.0,110.0,4.0
3.0,71.0,110.0,4.0
3.0,71.0,110.0,4.0
3.0,69.0,110.0,4.0
3.0,69.0,110.0,0.0
3.0,68.0,110.0,0.0
3.0,66.0,110.0,4.0
3.0,68.0,110.0,4.0
3.0,69.0,110.0,4.0
3.0,71.0,110.0,100.0
3.0,72.0,110.0,4.0
3.0,72.0,110.0,4.0
3.0,74.0,110.0,4.0
3.0,72.0,110.0,4.0
3.0,71.0,110.0,4.0
3.0,71.0,110.0,4.0
3.0,74.0,110.0,4.0
3.0,73.0,110.0,4.0
3.0,71.0,110.0,4.0
3.0,73.0,110.0,4.0
3.0,71.0,110.0,4.0
3.0,70.0,110.0,4.0
3.0,66.0,110.0,0.0
3.0,68.0,110.0,0.0
3.0,69.0,110.0,4.0
3.0,69.0,110.0,4.0
3.0,71.0,110.0,4.0
3.0,69.0,110.0,4.0
3.0,68.0,110.0,4.0
3.0,68.0,110.0,4.0
3.0,76.0,110.0,4.0
3.0,67.0,110.0,4.0
3.0,66.0,110.0,4.0
3.0,64.0,110.0,64.0
3.0,62.0,110.0,64.0
4.0,45.0,110.0,288.0
4.0,50.0,110.0,4.0
4.0,54.0,110.0,0.0
4.0,45.0,110.0,4.0
4.0,47.0,110.0,292.0
4.0,50.0,110.0,4.0
4.0,54.0,110.0,0.0
4.0,47.0,110.0,4.0
4.0,47.0,110.0,292.0
4.0,52.0,110.0,4.0
4.0,55.0,110.0,0.0
4.0,47.0,110.0,4.0
4.0,45.0,110.0,292.0
4.0,43.0,110.0,4.0
4.0,52.0,110.0,0.0
4.0,45.0,110.0,4.0
4.0,45.0,110.0,292.0
4.0,50.0,110.0,4.0
4.0,54.0,110.0,0.0
4.0,45.0,110.0,4.0
4.0,47.0,110.0,292.0
4.0,52.0,110.0,4.0
4.0,55.0,110.0,0.0
4.0,47.0,110.0,4.0
4.0,47.0,110.0,292.0
4.0,50.0,110.0,4.0
4.0,54.0,110.0,0.0
4.0,47.0,110.0,4.0
4.0,45.0,110.0,292.0
4.0,49.0,110.0,4.0
4.0,52.0,110.0,0.0
4.0,45.0,110.0,4.0
4.0,45.0,110.0,292.0
4.0,50.0,110.0,4.0
4.0,54.0,110.0,0.0
4.0,45.0,110.0,4.0
4.0,47.0,110.0,292.0
4.0,55.0,110.0,4.0
4.0,59.0,110.0,0.0
4.0,47.0,110.0,4.0
4.0,45.0,110.0,292.0
4.0,49.0,110.0,4.0
4.0,52.0,110.0,0.0
4.0,45.0,110.0,4.0
4.0,45.0,110.0,292.0
4.0,50.0,110.0,4.0
4.0,54.0,110.0,0.0
4.0,45.0,110.0,4.0
4.0,45.0,110.0,292.0
4.0,50.0,110.0,4.0
4.0,54.0,110.0,0.0
4.0,45.0,110.0,4.0
4.0,47.0,110.0,292.0
4.0,52.0,110.0,4.0
4.0,55.0,110.0,0.0
4.0,47.0,110.0,4.0
4.0,47.0,110.0,292.0
4.0,50.0,110.0,4.0
4.0,54.0,110.0,0.0
4.0,47.0,110.0,4.0
4.0,45.0,110.0,292.0
4.0,49.0,110.0,4.0
4.0,52.0,110.0,0.0
4.0,45.0,110.0,4.0
4.0,45.0,110.0,292.0
4.0,50.0,110.0,4.0
4.0,54.0,110.0,0.0
4.0,45.0,110.0,4.0
4.0,47.0,110.0,292.0
4.0,52.0,110.0,4.0
4.0,55.0,110.0,0.0
4.0,47.0,110.0,4.0
4.0,45.0,110.0,292.0
4.0,49.0,110.0,4.0
4.0,52.0,110.0,0.0
4.0,45.0,110.0,4.0
4.0,50.0,110.0,292.0
4.0,48.0,110.0,4.0
4.0,54.0,110.0,0.0
4.0,50.0,110.0,4.0
4.0,48.0,110.0,292.0
4.0,54.0,110.0,4.0
4.0,57.0,110.0,0.0
4.0,48.0,110.0,4.0
4.0,47.0,110.0,292.0
4.0,50.0,110.0,4.0
4.0,55.0,110.0,0.0
4.0,47.0,110.0,4.0
4.0,49.0,110.0,292.0
4.0,56.0,110.0,4.0
4.0,59.0,110.0,0.0
4.0,49.0,110.0,4.0
4.0,49.0,110.0,292.0
4.0,52.0,110.0,4.0
4.0,58.0,110.0,0.0
4.0,49.0,110.0,4.0
4.0,47.0,110.0,292.0
4.0,51.0,110.0,4.0
4.0,57.0,110.0,0.0
4.0,47.0,110.0,4.0
4.0,47.0,110.0,292.0
4.0,52.0,110.0,4.0
4.0,56.0,110.0,0.0
4.0,47.0,110.0,4.0
4.0,49.0,110.0,292.0
4.0,54.0,110.0,4.0
4.0,57.0,110.0,0.0
4.0,49.0,110.0,4.0
4.0,47.0,110.0,292.0
4.0,51.0,110.0,4.0
4.0,57.0,110.0,0.0
4.0,47.0,110.0,4.0
4.0,48.0,110.0,292.0
4.0,54.0,110.0,4.0
4.0,57.0,110.0,0.0
4.0,48.0,110.0,4.0
4.0,47.0,110.0,292.0
4.0,50.0,110.0,4.0
4.0,55.0,110.0,0.0
4.0,47.0,110.0,4.0
4.0,49.0,110.0,292.0
4.0,56.0,110.0,4.0
4.0,59.0,110.0,0.0
4.0,49.0,110.0,4.0
4.0,49.0,110.0,292.0
4.0,52.0,110.0,4.0
4.0,58.0,110.0,0.0
4.0,49.0,110.0,4.0
4.0,47.0,110.0,292.0
4.0,51.0,110.0,4.0
4.0,57.0,110.0,0.0
4.0,47.0,110.0,4.0
4.0,47.0,110.0,292.0
4.0,52.0,110.0,4.0
4.0,55.0,110.0,0.0
4.0,47.0,110.0,4.0
4.0,45.0,110.0,292.0
4.0,49.0,110.0,4.0
4.0,52.0,110.0,0.0
4.0,45.0,110.0,4.0
4.0,45.0,110.0,292.0
4.0,50.0,110.0,4.0
4.0,54.0,110.0,0.0
4.0,45.0,110.0,4.0
4.0,45.0,110.0,292.0
4.0,50.0,110.0,4.0
4.0,54.0,110.0,0.0
4.0,45.0,110.0,4.0
4.0,47.0,110.0,292.0
4.0,52.0,110.0,4.0
4.0,55.0,110.0,0.0
4.0,47.0,110.0,4.0
4.0,47.0,110.0,292.0
4.0,50.0,110.0,4.0
4.0,54.0,110.0,0.0
4.0,47.0,110.0,4.0
4.0,45.0,110.0,292.0
4.0,49.0,110.0,4.0
4.0,52.0,110.0,0.0
4.0,45.0,110.0,4.0
4.0,45.0,110.0,292.0
4.0,50.0,110.0,4.0
4.0,54.0,110.0,0.0
4.0,45.0,110.0,4.0
4.0,47.0,110.0,292.0
4.0,55.0,110.0,4.0
4.0,59.0,110.0,0.0
4.0,47.0,110.0,4.0
4.0,45.0,110.0,292.0
4.0,49.0,110.0,4.0
4.0,52.0,110.0,0.0
4.0,45.0,110.0,4.0
4.0,45.0,110.0,292.0
4.0,50.0,110.0,4.0
4.0,54.0,110.0,0.0
4.0,45.0,110.0,4.0
4.0,45.0,110.0,292.0
4.0,50.0,110.0,4.0
4.0,54.0,110.0,0.0
4.0,45.0,110.0,4.0
4.0,47.0,110.0,292.0
4.0,52.0,110.0,4.0
4.0,55.0,110.0,0.0
4.0,47.0,110.0,4.0
4.0,47.0,110.0,292.0
4.0,50.0,110.0,4.0
4.0,54.0,110.0,0.0
4.0,47.0,110.0,4.0
4.0,45.0,110.0,292.0
4.0,49.0,110.0,4.0
4.0,52.0,110.0,0.0
4.0,45.0,110.0,4.0
4.0,45.0,110.0,292.0
4.0,50.0,110.0,4.0
4.0,54.0,110.0,0.0
4.0,45.0,110.0,4.0
4.0,47.0,110.0,292.0
4.0,52.0,110.0,4.0
4.0,55.0,110.0,0.0
4.0,47.0,110.0,4.0
4.0,45.0,110.0,292.0
4.0,49.0,110.0,4.0
4.0,52.0,110.0,0.0
4.0,45.0,110.0,4.0
4.0,50.0,110.0,292.0
4.0,48.0,110.0,4.0
4.0,54.0,110.0,0.0
4.0,50.0,110.0,4.0
4.0,48.0,110.0,292.0
4.0,54.0,110.0,4.0
4.0,57.0,110.0,0.0
4.0,48.0,110.0,4.0
4.0,47.0,110.0,292.0
4.0,50.0,110.0,4.0
4.0,55.0,110.0,0.0
4.0,47.0,110.0,4.0
4.0,49.0,110.0,292.0
4.0,56.0,110.0,4.0
4.0,59.0,110.0,0.0
4.0,49.0,110.0,4.0
4.0,49.0,110.0,292.0
4.0,52.0,110.0,4.0
4.0,58.0,110.0,0.0
4.0,49.0,110.0,4.0
4.0,47.0,110.0,292.0
4.0,51.0,110.0,4.0
4.0,57.0,110.0,0.0
4.0,47.0,110.0,4.0
4.0,47.0,110.0,292.0
4.0,52.0,110.0,4.0
4.0,56.0,110.0,0.0
4.0,47.0,110.0,4.0
4.0,49.0,110.0,292.0
4.0,54.0,110.0,4.0
4.0,57.0,110.0,0.0
4.0,49.0,110.0,4.0
4.0,47.0,110.0,292.0
4.0,51.0,110.0,4.0
4.0,57.0,110.0,0.0
4.0,47.0,110.0,4.0
4.0,48.0,110.0,292.0
4.0,54.0,110.0,4.0
4.0,57.0,110.0,0.0
4.0,48.0,110.0,4.0
4.0,47.0,110.0,292.0
4.0,50.0,110.0,4.0
4.0,55.0,110.0,0.0
4.0,47.0,110.0,4.0
4.0,49.0,110.0,292.0
4.0,56.0,110.0,4.0
4.0,59.0,110.0,0.0
4.0,49.0,110.0,4.0
4.0,49.0,110.0,292.0
4.0,52.0,110.0,4.0
4.0,58.0,110.0,0.0
4.0,49.0,110.0,4.0
4.0,47.0,110.0,292.0
4.0,51.0,110.0,4.0
4.0,57.0,110.0,0.0
4.0,47.0,110.0,4.0
4.0,47.0,110.0,292.0
4.0,52.0,110.0,4.0
4.0,55.0,110.0,0.0
4.0,47.0,110.0,4.0
4.0,45.0,110.0,292.0
4.0,49.0,110.0,4.0
4.0,52.0,110.0,0.0
4.0,45.0,110.0,4.0
4.0,45.0,110.0,292.0
4.0,50.0,110.0,4.0
4.0,54.0,110.0,0.0
4.0,45.0,110.0,4.0
4.0,45.0,110.0,292.0
4.0,50.0,110.0,4.0
4.0,54.0,110.0,0.0
4.0,45.0,110.0,4.0
4.0,47.0,110.0,292.0
4.0,52.0,110.0,4.0
4.0,55.0,110.0,0.0
4.0,47.0,110.0,4.0
4.0,47.0,110.0,292.0
4.0,50.0,110.0,4.0
4.0,54.0,110.0,0.0
4.0,47.0,110.0,4.0
4.0,45.0,110.0,292.0
4.0,49.0,110.0,4.0
4.0,52.0,110.0,0.0
4.0,45.0,110.0,4.0
4.0,45.0,110.0,292.0
4.0,50.0,110.0,4.0
4.0,54.0,110.0,0.0
4.0,45.0,110.0,4.0
4.0,47.0,110.0,292.0
4.0,55.0,110.0,4.0
4.0,59.0,110.0,0.0
4.0,47.0,110.0,4.0
4.0,45.0,110.0,292.0
4.0,49.0,110.0,4.0
4.0,52.0,110.0,0.0
4.0,45.0,110.0,4.0
4.0,45.0,110.0,292.0
4.0,50.0,110.0,4.0
4.0,54.0,110.0,0.0
4.0,45.0,110.0,4.0
4.0,45.0,110.0,292.0
4.0,50.0,110.0,4.0
4.0,54.0,110.0,0.0
4.0,45.0,110.0,4.0
4.0,47.0,110.0,292.0
4.0,52.0,110.0,4.0
4.0,55.0,110.0,0.0
4.0,47.0,110.0,4.0
4.0,47.0,110.0,292.0
4.0,50.0,110.0,4.0
4.0,54.0,110.0,0.0
4.0,47.0,110.0,4.0
4.0,45.0,110.0,292.0
4.0,49.0,110.0,4.0
4.0,52.0,110.0,0.0
4.0,45.0,110.0,4.0
4.0,45.0,110.0,292.0
4.0,50.0,110.0,4.0
4.0,54.0,110.0,0.0
4.0,45.0,110.0,4.0
4.0,47.0,110.0,292.0
4.0,52.0,110.0,4.0
4.0,55.0,110.0,0.0
4.0,47.0,110.0,4.0
4.0,45.0,110.0,292.0
4.0,49.0,110.0,4.0
4.0,52.0,110.0,0.0
4.0,45.0,110.0,4.0
4.0,50.0,110.0,292.0
4.0,48.0,110.0,4.0
4.0,54.0,110.0,0.0
4.0,50.0,110.0,4.0
4.0,48.0,110.0,292.0
4.0,54.0,110.0,4.0
4.0,57.0,110.0,0.0
4.0,48.0,110.0,4.0
4.0,47.0,110.0,292.0
4.0,50.0,110.0,4.0
4.0,55.0,110.0,0.0
4.0,47.0,110.0,4.0
4.0,49.0,110.0,292.0
4.0,56.0,110.0,4.0
4.0,59.0,110.0,0.0
4.0,49.0,110.0,4.0
4.0,49.0,110.0,292.0
4.0,52.0,110.0,4.0
4.0,58.0,110.0,0.0
4.0,49.0,110.0,4.0
4.0,47.0,110.0,292.0
4.0,51.0,110.0,4.0
4.0,57.0,110.0,0.0
4.0,47.0,110.0,4.0
4.0,47.0,110.0,292.0
4.0,52.0,110.0,4.0
4.0,56.0,110.0,0.0
4.0,47.0,110.0,4.0
4.0,49.0,110.0,292.0
4.0,54.0,110.0,4.0
4.0,57.0,110.0,0.0
4.0,49.0,110.0,4.0
4.0,47.0,110.0,292.0
4.0,51.0,110.0,4.0
4.0,57.0,110.0,0.0
4.0,47.0,110.0,4.0
4.0,48.0,110.0,292.0
4.0,54.0,110.0,4.0
4.0,57.0,110.0,0.0
4.0,48.0,110.0,4.0
4.0,47.0,110.0,292.0
4.0,50.0,110.0,4.0
4.0,55.0,110.0,0.0
4.0,47.0,110.0,4.0
4.0,49.0,110.0,292.0
4.0,56.0,110.0,4.0
4.0,59.0,110.0,0.0
4.0,49.0,110.0,4.0
4.0,49.0,110.0,292.0
4.0,52.0,110.0,4.0
4.0,58.0,110.0,0.0
4.0,49.0,110.0,4.0
4.0,47.0,110.0,292.0
4.0,51.0,110.0,4.0
4.0,57.0,110.0,0.0
4.0,47.0,110.0,4.0
4.0,47.0,110.0,292.0
4.0,52.0,110.0,4.0
4.0,55.0,110.0,0.0
4.0,47.0,110.0,4.0
4.0,45.0,110.0,292.0
4.0,43.0,110.0,4.0
4.0,52.0,110.0,0.0
4.0,45.0,110.0,4.0
4.0,42.0,110.0,4.0
4.0,45.0,110.0,0.0
4.0,50.0,110.0,0.0
5.0,38.0,110.0,0.0
5.0,35.0,110.0,448.0
5.0,40.0,110.0,448.0
5.0,33.0,110.0,448.0
5.0,38.0,110.0,448.0
5.0,40.0,110.0,448.0
5.0,35.0,110.0,448.0
5.0,37.0,110.0,448.0
5.0,33.0,110.0,64.0
5.0,38.0,110.0,64.0
5.0,40.0,110.0,448.0
5.0,33.0,110.0,448.0
5.0,33.0,110.0,64.0
5.0,38.0,110.0,64.0
5.0,33.0,110.0,4.0
5.0,35.0,110.0,4.0
5.0,37.0,110.0,4.0
5.0,38.0,110.0,4.0
5.0,40.0,110.0,448.0
5.0,35.0,110.0,448.0
5.0,37.0,110.0,448.0
5.0,33.0,110.0,64.0
5.0,38.0,110.0,64.0
5.0,40.0,110.0,448.0
5.0,33.0,110.0,448.0
5.0,33.0,110.0,64.0
5.0,38.0,110.0,64.0
5.0,38.0,110.0,448.0
5.0,42.0,110.0,64.0
5.0,43.0,110.0,64.0
5.0,40.0,110.0,64.0
5.0,41.0,110.0,64.0
5.0,37.0,110.0,64.0
5.0,42.0,110.0,64.0
5.0,35.0,110.0,96.0
5.0,42.0,110.0,64.0
5.0,40.0,110.0,64.0
5.0,44.0,110.0,64.0
5.0,42.0,110.0,64.0
5.0,40.0,110.0,64.0
5.0,35.0,110.0,64.0
5.0,38.0,110.0,96.0
5.0,42.0,110.0,64.0
5.0,43.0,110.0,64.0
5.0,40.0,110.0,64.0
5.0,41.0,110.0,64.0
5.0,37.0,110.0,64.0
5.0,42.0,110.0,64.0
5.0,35.0,110.0,96.0
5.0,42.0,110.0,64.0
5.0,40.0,110.0,64.0
5.0,40.0,110.0,64.0
5.0,33.0,110.0,64.0
5.0,33.0,110.0,64.0
5.0,38.0,110.0,64.0
5.0,38.0,110.0,448.0
5.0,40.0,110.0,448.0
5.0,35.0,110.0,448.0
5.0,37.0,110.0,448.0
5.0,33.0,110.0,64.0
5.0,38.0,110.0,64.0
5.0,40.0,110.0,448.0
5.0,33.0,110.0,448.0
5.0,33.0,110.0,64.0
5.0,38.0,110.0,64.0
5.0,33.0,110.0,4.0
5.0,35.0,110.0,4.0
5.0,37.0,110.0,4.0
5.0,38.0,110.0,4.0
5.0,40.0,110.0,448.0
5.0,35.0,110.0,448.0
5.0,37.0,110.0,448.0
5.0,33.0,110.0,64.0
5.0,38.0,110.0,64.0
5.0,40.0,110.0,448.0
5.0,33.0,110.0,448.0
5.0,33.0,110.0,64.0
5.0,38.0,110.0,64.0
5.0,38.0,110.0,448.0
5.0,42.0,110.0,64.0
5.0,43.0,110.0,64.0
5.0,40.0,110.0,64.0
5.0,41.0,110.0,64.0
5.0,37.0,110.0,64.0
5.0,42.0,110.0,64.0
5.0,35.0,110.0,96.0
5.0,42.0,110.0,64.0
5.0,40.0,110.0,64.0
5.0,44.0,110.0,64.0
5.0,42.0,110.0,64.0
5.0,40.0,110.0,64.0
5.0,35.0,110.0,64.0
5.0,38.0,110.0,96.0
5.0,42.0,110.0,64.0
5.0,43.0,110.0,64.0
5.0,40.0,110.0,64.0
5.0,41.0,110.0,64.0
5.0,37.0,110.0,64.0
5.0,42.0,110.0,64.0
5.0,35.0,110.0,96.0
5.0,42.0,110.0,64.0
5.0,40.0,110.0,64.0
5.0,40.0,110.0,64.0
5.0,33.0,110.0,64.0
5.0,33.0,110.0,64.0
5.0,38.0,110.0,64.0
5.0,38.0,110.0,448.0
5.0,40.0,110.0,448.0
5.0,35.0,110.0,448.0
5.0,37.0,110.0,448.0
5.0,33.0,110.0,64.0
5.0,38.0,110.0,64.0
5.0,40.0,110.0,448.0
5.0,33.0,110.0,448.0
5.0,33.0,110.0,64.0
5.0,38.0,110.0,64.0
5.0,33.0,110.0,4.0
5.0,35.0,110.0,4.0
5.0,37.0,110.0,4.0
5.0,38.0,110.0,4.0
5.0,40.0,110.0,448.0
5.0,35.0,110.0,448.0
5.0,37.0,110.0,448.0
5.0,33.0,110.0,64.0
5.0,38.0,110.0,64.0
5.0,40.0,110.0,448.0
5.0,33.0,110.0,448.0
5.0,33.0,110.0,64.0
5.0,38.0,110.0,64.0
5.0,38.0,110.0,448.0
5.0,42.0,110.0,64.0
5.0,43.0,110.0,64.0
5.0,40.0,110.0,64.0
5.0,41.0,110.0,64.0
5.0,37.0,110.0,64.0
5.0,42.0,110.0,64.0
5.0,35.0,110.0,96.0
5.0,42.0,110.0,64.0
5.0,40.0,110.0,64.0
5.0,44.0,110.0,64.0
5.0,42.0,110.0,64.0
5.0,40.0,110.0,64.0
5.0,35.0,110.0,64.0
5.0,38.0,110.0,96.0
5.0,42.0,110.0,64.0
5.0,43.0,110.0,64.0
5.0,40.0,110.0,64.0
5.0,41.0,110.0,64.0
5.0,37.0,110.0,64.0
5.0,42.0,110.0,64.0
5.0,35.0,110.0,96.0
5.0,42.0,110.0,64.0
5.0,40.0,110.0,64.0
5.0,40.0,110.0,64.0
5.0,33.0,110.0,64.0
5.0,33.0,110.0,64.0
5.0,38.0,110.0,64.0
0.0,0.0,0.0,0.0
0.0,0.0,0.0,0.0
0.0,0.0,0.0,0.0
0.0,0.0,0.0,0.0
0.0,0.0,0.0,0.0
0.0,0.0,0.0,0.0
0.0,0.0,0.0,0.0
0.0,0.0,0.0,0.0
0.0,0.0,0.0,0.0
0.0,0.0,0.0,0.0
0.0,0.0,0.0,0.0
0.0,0.0,0.0,0.0
0.0,0.0,0.0,0.0
0.0,0.0,0.0,0.0
0.0,0.0,0.0,0.0
0.0,0.0,0.0,0.0
0.0,0.0,0.0,0.0
0.0,0.0,0.0,0.0
0.0,0.0,0.0,0.0
0.0,0.0,0.0,0.0
0.0,0.0,0.0,0.0
0.0,0.0,0.0,0.0
0.0,0.0,0.0,0.0
0.0,0.0,0.0,0.0
0.0,0.0,0.0,0.0
0.0,0.0,0.0,0.0
0.0,0.0,0.0,0.0
0.0,0.0,0.0,0.0
0.0,0.0,0.0,0.0
0.0,0.0,0.0,0.0
0.0,0.0,0.0,0.0
0.0,0.0,0.0,0.0
0.0,0.0,0.0,0.0
0.0,0.0,0.0,0.0
0.0,0.0,0.0,0.0
0.0,0.0,0.0,0.0
0.0,0.0,0.0,0.0
0.0,0.0,0.0,0.0
0.0,0.0,0.0,0.0
0.0,0.0,0.0,0.0
0.0,0.0,0.0,0.0
0.0,0.0,0.0,0.0
0.0,0.0,0.0,0.0
0.0,0.0,0.0,0.0
0.0,0.0,0.0,0.0
0.0,0.0,0.0,0.0
0.0,0.0,0.0,0.0
0.0,0.0,0.0,0.0
0.0,0.0,0.0,0.0
0.0,0.0,0.0,0.0
0.0,0.0,0.0,0.0
0.0,0.0,0.0,0.0
0.0,0.0,0.0,0.0
0.0,0.0,0.0,0.0
0.0,0.0,0.0,0.0
0.0,0.0,0.0,0.0
0.0,0.0,0.0,0.0
0.0,0.0,0.0,0.0
0.0,0.0,0.0,0.0
0.0,0.0,0.0,0.0
0.0,0.0,0.0,0.0
0.0,0.0,0.0,0.0
0.0,0.0,0.0,0.0
0.0,0.0,0.0,0.0
0.0,0.0,0.0,0.0
0.0,0.0,0.0,0.0
0.0,0.0,0.0,0.0
0.0,0.0,0.0,0.0
0.0,0.0,0.0,0.0
0.0,0.0,0.0,0.0
0.0,0.0,0.0,0.0
0.0,0.0,0.0,0.0
0.0,0.0,0.0,0.0
0.0,0.0,0.0,0.0
0.0,0.0,0.0,0.0
0.0,0.0,0.0,0.0
0.0,0.0,0.0,0.0
0.0,0.0,0.0,0.0
0.0,0.0,0.0,0.0
0.0,0.0,0.0,0.0
0.0,0.0,0.0,0.0
0.0,0.0,0.0,0.0
0.0,0.0,0.0,0.0
0.0,0.0,0.0,0.0
0.0,0.0,0.0,0.0
0.0,0.0,0.0,0.0
0.0,0.0,0.0,0.0
0.0,0.0,0.0,0.0
0.0,0.0,0.0,0.0
0.0,0.0,0.0,0.0
0.0,0.0,0.0,0.0
0.0,0.0,0.0,0.0
0.0,0.0,0.0,0.0
0.0,0.0,0.0,0.0
0.0,0.0,0.0,0.0
0.0,0.0,0.0,0.0
0.0,0.0,0.0,0.0
0.0,0.0,0.0,0.0
0.0,0.0,0.0,0.0
0.0,0.0,0.0,0.0
0.0,0.0,0.0,0.0
0.0,0.0,0.0,0.0
0.0,0.0,0.0,0.0
0.0,0.0,0.0,0.0
0.0,0.0,0.0,0.0
0.0,0.0,0.0,0.0
0.0,0.0,0.0,0.0
0.0,0.0,0.0,0.0
0.0,0.0,0.0,0.0
0.0,0.0,0.0,0.0
0.0,0.0,0.0,0.0
0.0,0.0,0.0,0.0
0.0,0.0,0.0,0.0
0.0,0.0,0.0,0.0
0.0,0.0,0.0,0.0
0.0,0.0,0.0,0.0
0.0,0.0,0.0,0.0
0.0,0.0,0.0,0.0
0.0,0.0,0.0,0.0
0.0,0.0,0.0,0.0
0.0,0.0,0.0,0.0
0.0,0.0,0.0,0.0
0.0,0.0,0.0,0.0
0.0,0.0,0.0,0.0
0.0,0.0,0.0,0.0
0.0,0.0,0.0,0.0
