track,note,velocity,time
3,78,110,0
3,78,0,126
3,79,110,2
3,79,0,126
3,81,110,2
3,81,0,126
3,83,110,2
3,83,0,160
3,83,110,32
3,83,0,160
3,81,110,32
3,81,0,160
3,79,110,32
3,79,0,160
3,78,110,32
3,78,0,336
3,76,110,48
3,76,0,126
3,74,110,2
3,74,0,126
3,76,110,2
3,76,0,126
3,78,110,2
3,78,0,928
3,78,110,224
3,78,0,126
3,79,110,2
3,79,0,126
3,81,110,2
3,81,0,126
3,83,110,2
3,83,0,160
3,83,110,32
3,83,0,160
3,81,110,32
3,81,0,160
3,79,110,32
3,79,0,160
3,78,110,32
3,78,0,336
3,76,110,48
3,76,0,126
3,74,110,2
3,74,0,126
3,76,110,2
3,76,0,126
3,78,110,2
3,78,0,928
3,76,110,224
3,76,0,126
3,78,110,2
3,78,0,126
3,79,110,2
3,79,0,126
3,81,110,2
3,81,0,160
3,79,110,32
3,79,0,160
3,78,110,32
3,78,0,160
3,76,110,32
3,76,0,160
3,74,110,32
3,74,0,336
3,73,110,48
3,73,0,126
3,74,110,2
3,74,0,126
3,76,110,2
3,76,0,126
3,78,110,2
3,78,0,160
3,76,110,32
3,76,0,160
3,74,110,32
3,74,0,160
3,73,110,32
3,73,0,160
3,71,110,32
3,71,0,336
3,69,110,48
3,69,0,126
3,67,110,2
3,67,0,126
3,69,110,2
3,69,0,126
3,71,110,2
3,71,0,928
3,78,110,224
3,78,0,126
3,79,110,2
3,79,0,126
3,81,110,2
3,81,0,126
3,83,110,2
3,83,0,160
3,83,110,32
3,83,0,160
3,81,110,32
3,81,0,160
3,79,110,32
3,79,0,160
3,78,110,32
3,78,0,336
3,76,110,48
3,76,0,126
3,74,110,2
3,74,0,126
3,76,110,2
3,76,0,126
3,78,110,2
3,78,0,928
3,78,110,224
3,78,0,126
3,79,110,2
3,79,0,126
3,81,110,2
3,81,0,126
3,83,110,2
3,83,0,160
3,83,110,32
3,83,0,160
3,81,110,32
3,81,0,160
3,79,110,32
3,79,0,160
3,78,110,32
3,78,0,336
3,76,110,48
3,76,0,126
3,74,110,2
3,74,0,126
3,76,110,2
3,76,0,126
3,78,110,2
3,78,0,928
3,76,110,224
3,76,0,126
3,78,110,2
3,78,0,126
3,79,110,2
3,79,0,126
3,81,110,2
3,81,0,160
3,79,110,32
3,79,0,160
3,78,110,32
3,78,0,160
3,76,110,32
3,76,0,160
3,74,110,32
3,74,0,336
3,73,110,48
3,73,0,126
3,74,110,2
3,74,0,126
3,76,110,2
3,76,0,126
3,78,110,2
3,78,0,160
3,76,110,32
3,76,0,160
3,74,110,32
3,74,0,160
3,73,110,32
3,73,0,160
3,71,110,32
3,71,0,336
3,69,110,48
3,69,0,126
3,67,110,2
3,67,0,126
3,69,110,2
3,69,0,126
3,71,110,2
3,71,0,928
3,78,110,224
3,78,0,126
3,79,110,2
3,79,0,126
3,81,110,2
3,81,0,126
3,83,110,2
3,83,0,160
3,83,110,32
3,83,0,160
3,81,110,32
3,81,0,160
3,79,110,32
3,79,0,160
3,78,110,32
3,78,0,336
3,76,110,48
3,76,0,126
3,74,110,2
3,74,0,126
3,76,110,2
3,76,0,126
3,78,110,2
3,78,0,928
3,78,110,224
3,78,0,126
3,79,110,2
3,79,0,126
3,81,110,2
3,81,0,126
3,83,110,2
3,83,0,160
3,83,110,32
3,83,0,160
3,81,110,32
3,81,0,160
3,79,110,32
3,79,0,160
3,78,110,32
3,78,0,336
3,76,110,48
3,76,0,126
3,74,110,2
3,74,0,126
3,76,110,2
3,76,0,126
3,78,110,2
3,78,0,928
3,76,110,224
3,76,0,126
3,78,110,2
3,78,0,126
3,79,110,2
3,79,0,126
3,81,110,2
3,81,0,160
3,79,110,32
3,79,0,160
3,78,110,32
3,78,0,160
3,76,110,32
3,76,0,160
3,74,110,32
3,74,0,336
3,73,110,48
3,73,0,126
3,74,110,2
3,74,0,126
3,76,110,2
3,76,0,126
3,78,110,2
3,78,0,160
3,76,110,32
3,76,0,160
3,74,110,32
3,74,0,160
3,73,110,32
3,73,0,160
3,71,110,32
3,71,0,336
3,69,110,48
3,69,0,126
3,67,110,2
3,67,0,126
3,69,110,2
3,69,0,126
3,71,110,2
3,71,0,928
3,78,110,224
3,78,0,126
3,79,110,2
3,79,0,126
3,81,110,2
3,81,0,126
3,83,110,2
3,83,0,160
3,83,110,32
3,83,0,160
3,81,110,32
3,81,0,160
3,79,110,32
3,79,0,160
3,78,110,32
3,78,0,336
3,76,110,48
3,76,0,126
3,74,110,2
3,74,0,126
3,76,110,2
3,76,0,126
3,78,110,2
3,78,0,928
3,78,110,224
3,78,0,126
3,79,110,2
3,79,0,126
3,81,110,2
3,81,0,126
3,83,110,2
3,83,0,160
3,83,110,32
3,83,0,160
3,81,110,32
3,81,0,160
3,79,110,32
3,79,0,160
3,78,110,32
3,78,0,336
3,76,110,48
3,76,0,126
3,74,110,2
3,74,0,126
3,76,110,2
3,76,0,126
3,78,110,2
3,78,0,928
3,76,110,224
3,76,0,126
3,78,110,2
3,78,0,126
3,79,110,2
3,79,0,126
3,81,110,2
3,81,0,160
3,79,110,32
3,79,0,160
3,78,110,32
3,78,0,160
3,76,110,32
3,76,0,160
3,74,110,32
3,74,0,336
3,73,110,48
3,73,0,126
3,74,110,2
3,74,0,126
3,76,110,2
3,76,0,126
3,78,110,2
3,78,0,160
3,76,110,32
3,76,0,160
3,74,110,32
3,74,0,160
3,73,110,32
3,73,0,160
3,71,110,32
3,71,0,336
3,69,110,48
3,69,0,126
3,67,110,2
3,67,0,126
3,69,110,2
3,69,0,126
3,71,110,2
3,71,0,928
3,78,110,224
3,78,0,126
3,79,110,2
3,79,0,126
3,81,110,2
3,81,0,126
3,83,110,2
3,83,0,160
3,83,110,32
3,83,0,160
3,81,110,32
3,81,0,160
3,79,110,32
3,79,0,160
3,78,110,32
3,78,0,336
3,76,110,48
3,76,0,126
3,74,110,2
3,74,0,126
3,76,110,2
3,76,0,126
3,78,110,2
3,78,0,928
3,78,110,224
3,78,0,126
3,79,110,2
3,79,0,126
3,81,110,2
3,81,0,126
3,83,110,2
3,83,0,160
3,83,110,32
3,83,0,160
3,81,110,32
3,81,0,160
3,79,110,32
3,79,0,160
3,78,110,32
3,78,0,336
3,76,110,48
3,76,0,126
3,74,110,2
3,74,0,126
3,76,110,2
3,76,0,126
3,78,110,2
3,78,0,928
3,76,110,224
3,76,0,126
3,78,110,2
3,78,0,126
3,79,110,2
3,79,0,126
3,81,110,2
3,81,0,160
3,79,110,32
3,79,0,160
3,78,110,32
3,78,0,160
3,76,110,32
3,76,0,160
3,74,110,32
3,74,0,336
3,73,110,48
3,73,0,126
3,74,110,2
3,74,0,126
3,76,110,2
3,76,0,126
3,78,110,2
3,78,0,160
3,76,110,32
3,76,0,160
3,74,110,32
3,74,0,160
3,73,110,32
3,73,0,160
3,71,110,32
3,71,0,336
3,69,110,48
3,69,0,126
3,67,110,2
3,67,0,126
3,69,110,2
3,69,0,126
3,71,110,2
3,71,0,928
3,78,110,224
3,78,0,126
3,79,110,2
3,79,0,126
3,81,110,2
3,81,0,126
3,83,110,2
3,83,0,160
3,83,110,32
3,83,0,160
3,81,110,32
3,81,0,160
3,79,110,32
3,79,0,160
3,78,110,32
3,78,0,336
3,76,110,48
3,76,0,126
3,74,110,2
3,74,0,126
3,76,110,2
3,76,0,126
3,78,110,2
3,78,0,928
3,78,110,224
3,78,0,126
3,79,110,2
3,79,0,126
3,81,110,2
3,81,0,126
3,83,110,2
3,83,0,160
3,83,110,32
3,83,0,160
3,81,110,32
3,81,0,160
3,79,110,32
3,79,0,160
3,78,110,32
3,78,0,336
3,76,110,48
3,76,0,126
3,74,110,2
3,74,0,126
3,76,110,2
3,76,0,126
3,78,110,2
3,78,0,928
3,76,110,224
3,76,0,126
3,78,110,2
3,78,0,126
3,79,110,2
3,79,0,126
3,81,110,2
3,81,0,160
3,79,110,32
3,79,0,160
3,78,110,32
3,78,0,160
3,76,110,32
3,76,0,160
3,74,110,32
3,74,0,336
3,73,110,48
3,73,0,126
3,74,110,2
3,74,0,126
3,76,110,2
3,76,0,126
3,78,110,2
3,78,0,160
3,76,110,32
3,76,0,160
3,74,110,32
3,74,0,160
3,73,110,32
3,73,0,160
3,71,110,32
3,71,0,336
3,69,110,48
3,69,0,126
3,67,110,2
3,67,0,126
3,69,110,2
3,69,0,126
3,71,110,2
3,71,0,928
3,78,110,224
3,78,0,126
3,79,110,2
3,79,0,126
3,81,110,2
3,81,0,126
3,83,110,2
3,83,0,160
3,83,110,32
3,83,0,160
3,81,110,32
3,81,0,160
3,79,110,32
3,79,0,160
3,78,110,32
3,78,0,336
3,76,110,48
3,76,0,126
3,74,110,2
3,74,0,126
3,76,110,2
3,76,0,126
3,78,110,2
3,78,0,928
3,78,110,224
3,78,0,126
3,79,110,2
3,79,0,126
3,81,110,2
3,81,0,126
3,83,110,2
3,83,0,160
3,83,110,32
3,83,0,160
3,81,110,32
3,81,0,160
3,79,110,32
3,79,0,160
3,78,110,32
3,78,0,336
3,76,110,48
3,76,0,126
3,74,110,2
3,74,0,126
3,76,110,2
3,76,0,126
3,78,110,2
3,78,0,928
3,76,110,224
3,76,0,126
3,78,110,2
3,78,0,126
3,79,110,2
3,79,0,126
3,81,110,2
3,81,0,160
3,79,110,32
3,79,0,160
3,78,110,32
3,78,0,160
3,76,110,32
3,76,0,160
3,74,110,32
3,74,0,336
3,73,110,48
3,73,0,126
3,74,110,2
3,74,0,126
3,76,110,2
3,76,0,126
3,78,110,2
3,78,0,160
3,76,110,32
3,76,0,160
3,74,110,32
3,74,0,160
3,73,110,32
3,73,0,160
3,71,110,32
3,71,0,336
3,69,110,48
3,69,0,126
3,67,110,2
3,67,0,126
3,69,110,2
3,69,0,126
3,71,110,2
3,71,0,928
3,78,110,224
3,78,0,126
3,79,110,2
3,79,0,126
3,81,110,2
3,81,0,126
3,83,110,2
3,83,0,160
3,83,110,32
3,83,0,160
3,81,110,32
3,81,0,160
3,79,110,32
3,79,0,160
3,78,110,32
3,78,0,336
3,76,110,48
3,76,0,126
3,74,110,2
3,74,0,126
3,76,110,2
3,76,0,126
3,78,110,2
3,78,0,928
3,78,110,224
3,78,0,126
3,79,110,2
3,79,0,126
3,81,110,2
3,81,0,126
3,83,110,2
3,83,0,160
3,83,110,32
3,83,0,160
3,81,110,32
3,81,0,160
3,79,110,32
3,79,0,160
3,78,110,32
3,78,0,336
3,76,110,48
3,76,0,126
3,74,110,2
3,74,0,126
3,76,110,2
3,76,0,126
3,78,110,2
3,78,0,928
3,76,110,224
3,76,0,126
3,78,110,2
3,78,0,126
3,79,110,2
3,79,0,126
3,81,110,2
3,81,0,160
3,79,110,32
3,79,0,160
3,78,110,32
3,78,0,160
3,76,110,32
3,76,0,160
3,74,110,32
3,74,0,336
3,73,110,48
3,73,0,126
3,74,110,2
3,74,0,126
3,76,110,2
3,76,0,126
3,78,110,2
3,78,0,160
3,76,110,32
3,76,0,160
3,74,110,32
3,74,0,160
3,73,110,32
3,73,0,160
3,71,110,32
3,71,0,336
3,69,110,48
3,69,0,126
3,67,110,2
3,67,0,126
3,69,110,2
3,69,0,126
3,71,110,2
3,71,0,928
3,78,110,224
3,78,0,126
3,79,110,2
3,79,0,126
3,81,110,2
3,81,0,126
3,83,110,2
3,83,0,160
3,83,110,32
3,83,0,160
3,81,110,32
3,81,0,160
3,79,110,32
3,79,0,160
3,78,110,32
3,78,0,336
3,76,110,48
3,76,0,126
3,74,110,2
3,74,0,126
3,76,110,2
3,76,0,126
3,78,110,2
3,78,0,928
3,78,110,224
3,78,0,126
3,79,110,2
3,79,0,126
3,81,110,2
3,81,0,126
3,83,110,2
3,83,0,160
3,83,110,32
3,83,0,160
3,81,110,32
3,81,0,160
3,79,110,32
3,79,0,160
3,78,110,32
3,78,0,336
3,76,110,48
3,76,0,126
3,74,110,2
3,74,0,126
3,76,110,2
3,76,0,126
3,78,110,2
3,78,0,928
3,76,110,224
3,76,0,126
3,78,110,2
3,78,0,126
3,79,110,2
3,79,0,126
3,81,110,2
3,81,0,160
3,79,110,32
3,79,0,160
3,78,110,32
3,78,0,160
3,76,110,32
3,76,0,160
3,74,110,32
3,74,0,336
3,73,110,48
3,73,0,126
3,74,110,2
3,74,0,126
3,76,110,2
3,76,0,126
3,78,110,2
3,78,0,160
3,76,110,32
3,76,0,160
3,74,110,32
3,74,0,160
3,73,110,32
3,73,0,160
3,71,110,32
3,71,0,336
3,69,110,48
3,69,0,126
3,67,110,2
3,67,0,126
3,69,110,2
3,69,0,126
3,71,110,2
3,71,0,928
3,78,110,224
3,78,0,126
3,79,110,2
3,79,0,126
3,81,110,2
3,81,0,126
3,83,110,2
3,83,0,160
3,83,110,32
3,83,0,160
3,81,110,32
3,81,0,160
3,79,110,32
3,79,0,160
3,78,110,32
3,78,0,336
3,76,110,48
3,76,0,126
3,74,110,2
3,74,0,126
3,76,110,2
3,76,0,126
3,78,110,2
3,78,0,928
3,78,110,224
3,78,0,126
3,79,110,2
3,79,0,126
3,81,110,2
3,81,0,126
3,83,110,2
3,83,0,160
3,83,110,32
3,83,0,160
3,81,110,32
3,81,0,160
3,79,110,32
3,79,0,160
3,78,110,32
3,78,0,336
3,76,110,48
3,76,0,126
3,74,110,2
3,74,0,126
3,76,110,2
3,76,0,126
3,78,110,2
3,78,0,928
3,76,110,224
3,76,0,126
3,78,110,2
3,78,0,126
3,79,110,2
3,79,0,126
3,81,110,2
3,81,0,160
3,79,110,32
3,79,0,160
3,78,110,32
3,78,0,160
3,76,110,32
3,76,0,160
3,74,110,32
3,74,0,336
3,73,110,48
3,73,0,126
3,74,110,2
3,74,0,126
3,76,110,2
3,76,0,126
3,78,110,2
3,78,0,160
3,76,110,32
3,76,0,160
3,74,110,32
3,74,0,160
3,73,110,32
3,73,0,160
3,71,110,32
3,71,0,336
3,69,110,48
3,69,0,126
3,67,110,2
3,67,0,126
3,69,110,2
3,69,0,126
3,71,110,2
3,71,0,928
4,62,110,0
4,66,110,0
4,66,0,126
4,67,110,2
4,67,0,126
4,69,110,2
4,62,0,80
4,69,0,46
4,71,110,2
4,71,0,160
4,59,110,32
4,64,110,0
4,71,110,0
4,71,0,160
4,64,0,0
4,59,0,0
4,69,110,32
4,69,0,160
4,57,110,32
4,61,110,0
4,67,110,0
4,67,0,160
4,61,0,0
4,57,0,0
4,66,110,32
4,57,110,192
4,62,110,0
4,62,0,160
4,57,0,0
4,66,0,0
4,64,110,32
4,64,0,126
4,58,110,2
4,62,110,0
4,62,0,126
4,64,110,2
4,58,0,32
4,64,0,94
4,66,110,2
4,59,110,192
4,62,110,0
4,62,0,160
4,59,0,0
4,59,110,224
4,62,110,0
4,62,0,160
4,59,0,0
4,66,0,192
4,59,110,32
4,62,110,0
4,62,0,160
4,59,0,0
4,66,110,32
4,66,0,126
4,59,110,2
4,62,110,0
4,67,110,0
4,67,0,126
4,69,110,2
4,62,0,32
4,59,0,0
4,69,0,94
4,71,110,2
4,71,0,160
4,59,110,32
4,64,110,0
4,71,110,0
4,71,0,160
4,64,0,0
4,59,0,0
4,69,110,32
4,69,0,160
4,57,110,32
4,61,110,0
4,67,110,0
4,67,0,160
4,61,0,0
4,57,0,0
4,66,110,32
4,57,110,192
4,62,110,0
4,62,0,160
4,57,0,0
4,66,0,0
4,64,110,32
4,64,0,126
4,58,110,2
4,62,110,0
4,62,0,126
4,64,110,2
4,58,0,32
4,64,0,94
4,66,110,2
4,59,110,192
4,62,110,0
4,62,0,160
4,59,0,0
4,59,110,224
4,62,110,0
4,62,0,160
4,59,0,0
4,66,0,192
4,59,110,32
4,62,110,0
4,62,0,160
4,59,0,0
4,64,110,32
4,64,0,126
4,59,110,2
4,62,110,0
4,66,110,0
4,66,0,126
4,67,110,2
4,62,0,32
4,59,0,0
4,67,0,94
4,69,110,2
4,69,0,160
4,57,110,32
4,61,110,0
