track,note,velocity,time
3,66,110,2976
3,66,0,94
3,59,110,2
3,59,0,160
3,64,110,32
3,64,0,160
3,62,110,32
3,62,0,256
3,61,110,32
3,61,0,94
3,59,110,2
3,59,0,160
3,66,110,32
3,66,0,160
3,64,110,32
3,64,0,256
3,62,110,32
3,62,0,94
3,61,110,2
3,61,0,160
3,67,110,32
3,67,0,160
3,66,110,32
3,66,0,256
3,64,110,32
3,64,0,94
3,62,110,2
3,62,0,160
3,69,110,32
3,69,0,160
3,67,110,32
3,67,0,256
3,66,110,32
3,66,0,94
3,64,110,2
3,64,0,160
3,71,110,32
3,71,0,160
3,69,110,32
3,69,0,160
3,71,110,32
3,71,0,160
3,66,110,32
3,66,0,160
3,64,110,32
3,64,0,160
3,66,110,32
3,66,0,544
3,69,110,32
3,69,0,160
3,67,110,32
3,67,0,160
3,66,110,32
3,66,0,160
3,64,110,32
3,64,0,336
3,66,110,336
3,66,0,94
3,59,110,2
3,59,0,160
3,64,110,32
3,64,0,160
3,62,110,32
3,62,0,256
3,61,110,32
3,61,0,94
3,59,110,2
3,59,0,160
3,66,110,32
3,66,0,160
3,64,110,32
3,64,0,256
3,62,110,32
3,62,0,94
3,61,110,2
3,61,0,160
3,67,110,32
3,67,0,160
3,66,110,32
3,66,0,256
3,64,110,32
3,64,0,94
3,62,110,2
3,62,0,160
3,69,110,32
3,69,0,160
3,67,110,32
3,67,0,256
3,66,110,32
3,66,0,94
3,64,110,2
3,64,0,160
3,71,110,32
3,71,0,160
3,69,110,32
3,69,0,160
3,71,110,32
3,71,0,160
3,66,110,32
3,66,0,160
3,64,110,32
3,64,0,160
3,66,110,32
3,66,0,544
3,66,110,32
3,66,0,160
3,68,110,32
3,68,0,160
3,70,110,32
3,70,0,160
3,71,110,32
3,71,0,928
3,64,110,32
3,64,0,160
3,66,110,32
3,66,0,160
3,67,110,32
3,67,0,160
3,66,110,32
3,66,0,336
3,64,110,48
3,64,0,160
3,62,110,32
3,62,0,352
3,61,110,32
3,61,0,160
3,66,110,32
3,66,0,160
3,64,110,32
3,64,0,160
3,62,110,32
3,62,0,384
3,61,110,0
3,61,0,160
3,59,110,32
3,59,0,160
3,59,110,32
3,59,0,94
3,61,110,2
3,61,0,94
3,62,110,2
3,62,0,736
3,59,110,32
3,59,0,160
3,61,110,32
3,61,0,160
3,62,110,32
3,62,0,160
3,64,110,32
3,64,0,1104
3,64,110,432
3,64,0,336
3,66,110,48
3,66,0,160
3,67,110,32
3,67,0,160
3,66,110,32
3,66,0,94
3,64,110,2
3,64,0,94
3,62,110,2
3,62,0,736
3,61,110,32
3,61,0,160
3,66,110,32
3,66,0,160
3,64,110,32
3,64,0,160
3,62,110,32
3,62,0,94
3,61,110,2
3,61,0,94
3,59,110,2
3,59,0,528
3,59,110,48
3,59,0,336
3,62,110,48
3,62,0,160
3,66,110,32
3,66,0,352
3,64,110,32
3,64,0,160
3,61,110,32
3,61,0,160
3,57,110,32
3,57,0,160
3,59,110,32
3,59,0,928
3,66,110,512
3,66,0,94
3,59,110,2
3,59,0,160
3,64,110,32
3,64,0,160
3,62,110,32
3,62,0,256
3,61,110,32
3,61,0,94
3,59,110,2
3,59,0,160
3,66,110,32
3,66,0,160
3,64,110,32
3,64,0,256
3,62,110,32
3,62,0,94
3,61,110,2
3,61,0,160
3,67,110,32
3,67,0,160
3,66,110,32
3,66,0,256
3,64,110,32
3,64,0,94
3,62,110,2
3,62,0,160
3,69,110,32
3,69,0,160
3,67,110,32
3,67,0,256
3,66,110,32
3,66,0,94
3,64,110,2
3,64,0,160
3,71,110,32
3,71,0,160
3,69,110,32
3,69,0,160
3,71,110,32
3,71,0,160
3,66,110,32
3,66,0,160
3,64,110,32
3,64,0,160
3,66,110,32
3,66,0,544
3,69,110,32
3,69,0,160
3,67,110,32
3,67,0,160
3,66,110,32
3,66,0,160
3,64,110,32
3,64,0,336
3,66,110,336
3,66,0,94
3,59,110,2
3,59,0,160
3,64,110,32
3,64,0,160
3,62,110,32
3,62,0,256
3,61,110,32
3,61,0,94
3,59,110,2
3,59,0,160
3,66,110,32
3,66,0,160
3,64,110,32
3,64,0,256
3,62,110,32
3,62,0,94
3,61,110,2
3,61,0,160
3,67,110,32
3,67,0,160
3,66,110,32
3,66,0,256
3,64,110,32
3,64,0,94
3,62,110,2
3,62,0,160
3,69,110,32
3,69,0,160
3,67,110,32
3,67,0,256
3,66,110,32
3,66,0,94
3,64,110,2
3,64,0,160
3,71,110,32
3,71,0,160
3,69,110,32
3,69,0,160
3,71,110,32
3,71,0,160
3,66,110,32
3,66,0,160
3,64,110,32
3,64,0,160
3,66,110,32
3,66,0,544
3,66,110,32
3,66,0,160
3,68,110,32
3,68,0,160
3,70,110,32
3,70,0,160
3,71,110,32
3,71,0,928
3,64,110,32
3,64,0,160
3,66,110,32
3,66,0,160
3,67,110,32
3,67,0,160
3,66,110,32
3,66,0,336
3,64,110,48
3,64,0,160
3,62,110,32
3,62,0,352
3,61,110,32
3,61,0,160
3,66,110,32
3,66,0,160
3,64,110,32
3,64,0,160
3,62,110,32
3,62,0,384
3,61,110,0
3,61,0,160
3,59,110,32
3,59,0,160
3,59,110,32
3,59,0,94
3,61,110,2
3,61,0,94
3,62,110,2
3,62,0,736
3,59,110,32
3,59,0,160
3,61,110,32
3,61,0,160
3,62,110,32
3,62,0,160
3,64,110,32
3,64,0,1104
3,64,110,432
3,64,0,336
3,66,110,48
3,66,0,160
3,67,110,32
3,67,0,160
3,66,110,32
3,66,0,94
3,64,110,2
3,64,0,94
3,62,110,2
3,62,0,736
3,61,110,32
3,61,0,160
3,66,110,32
3,66,0,160
3,64,110,32
3,64,0,160
3,62,110,32
3,62,0,94
3,61,110,2
3,61,0,94
3,59,110,2
3,59,0,528
3,59,110,48
3,59,0,336
3,62,110,48
3,62,0,160
3,66,110,32
3,66,0,352
3,64,110,32
3,64,0,160
3,61,110,32
3,61,0,160
3,57,110,32
3,57,0,160
3,59,110,32
3,59,0,928
3,66,110,512
3,66,0,94
3,59,110,2
3,59,0,160
3,64,110,32
3,64,0,160
3,62,110,32
3,62,0,256
3,61,110,32
3,61,0,94
3,59,110,2
3,59,0,160
3,66,110,32
3,66,0,160
3,64,110,32
3,64,0,256
3,62,110,32
3,62,0,94
3,61,110,2
3,61,0,160
3,67,110,32
3,67,0,160
3,66,110,32
3,66,0,256
3,64,110,32
3,64,0,94
3,62,110,2
3,62,0,160
3,69,110,32
3,69,0,160
3,67,110,32
3,67,0,256
3,66,110,32
3,66,0,94
3,64,110,2
3,64,0,160
3,71,110,32
3,71,0,160
3,69,110,32
3,69,0,160
3,71,110,32
3,71,0,160
3,66,110,32
3,66,0,160
3,64,110,32
3,64,0,160
3,66,110,32
3,66,0,544
3,69,110,32
3,69,0,160
3,67,110,32
3,67,0,160
3,66,110,32
3,66,0,160
3,64,110,32
3,64,0,336
3,66,110,336
3,66,0,94
3,59,110,2
3,59,0,160
3,64,110,32
3,64,0,160
3,62,110,32
3,62,0,256
3,61,110,32
3,61,0,94
3,59,110,2
3,59,0,160
3,66,110,32
3,66,0,160
3,64,110,32
3,64,0,256
3,62,110,32
3,62,0,94
3,61,110,2
3,61,0,160
3,67,110,32
3,67,0,160
3,66,110,32
3,66,0,256
3,64,110,32
3,64,0,94
3,62,110,2
3,62,0,160
3,69,110,32
3,69,0,160
3,67,110,32
3,67,0,256
3,66,110,32
3,66,0,94
3,64,110,2
3,64,0,160
3,71,110,32
3,71,0,160
3,69,110,32
3,69,0,160
3,71,110,32
3,71,0,160
3,66,110,32
3,66,0,160
3,64,110,32
3,64,0,160
3,66,110,32
3,66,0,544
3,66,110,32
3,66,0,160
3,68,110,32
3,68,0,160
3,70,110,32
3,70,0,160
3,71,110,32
3,71,0,928
3,64,110,32
3,64,0,160
3,66,110,32
3,66,0,160
3,67,110,32
3,67,0,160
3,66,110,32
3,66,0,336
3,64,110,48
3,64,0,160
3,62,110,32
3,62,0,352
3,61,110,32
3,61,0,160
3,66,110,32
3,66,0,160
3,64,110,32
3,64,0,160
3,62,110,32
3,62,0,384
3,61,110,0
3,61,0,160
3,59,110,32
3,59,0,160
3,59,110,32
3,59,0,94
3,61,110,2
3,61,0,94
3,62,110,2
3,62,0,736
3,59,110,32
3,59,0,160
3,61,110,32
3,61,0,160
3,62,110,32
3,62,0,160
3,64,110,32
3,64,0,1104
3,64,110,432
3,64,0,336
3,66,110,48
3,66,0,160
3,67,110,32
3,67,0,160
3,66,110,32
3,66,0,94
3,64,110,2
3,64,0,94
3,62,110,2
3,62,0,736
3,61,110,32
3,61,0,160
3,66,110,32
3,66,0,160
3,64,110,32
3,64,0,160
3,62,110,32
3,62,0,94
3,61,110,2
3,61,0,94
3,59,110,2
3,59,0,528
3,59,110,48
3,59,0,336
3,62,110,48
3,62,0,160
3,66,110,32
3,66,0,352
3,64,110,32
3,64,0,160
3,61,110,32
3,61,0,160
3,57,110,32
3,57,0,160
3,59,110,32
3,59,0,928
3,66,110,512
3,66,0,94
3,59,110,2
3,59,0,160
3,64,110,32
3,64,0,160
3,62,110,32
3,62,0,256
3,61,110,32
3,61,0,94
3,59,110,2
3,59,0,160
3,66,110,32
3,66,0,160
3,64,110,32
3,64,0,256
3,62,110,32
3,62,0,94
3,61,110,2
3,61,0,160
3,67,110,32
3,67,0,160
3,66,110,32
3,66,0,256
3,64,110,32
3,64,0,94
3,62,110,2
3,62,0,160
3,69,110,32
3,69,0,160
3,67,110,32
3,67,0,256
3,66,110,32
3,66,0,94
3,64,110,2
3,64,0,160
3,71,110,32
3,71,0,160
3,69,110,32
3,69,0,160
3,71,110,32
3,71,0,160
3,66,110,32
3,66,0,160
3,64,110,32
3,64,0,160
3,66,110,32
3,66,0,544
3,69,110,32
3,69,0,160
3,67,110,32
3,67,0,160
3,66,110,32
3,66,0,160
3,64,110,32
3,64,0,336
3,66,110,336
3,66,0,94
3,59,110,2
3,59,0,160
3,64,110,32
3,64,0,160
3,62,110,32
3,62,0,256
3,61,110,32
3,61,0,94
3,59,110,2
3,59,0,160
3,66,110,32
3,66,0,160
3,64,110,32
3,64,0,256
3,62,110,32
3,62,0,94
3,61,110,2
3,61,0,160
3,67,110,32
3,67,0,160
3,66,110,32
3,66,0,256
3,64,110,32
3,64,0,94
3,62,110,2
3,62,0,160
3,69,110,32
3,69,0,160
3,67,110,32
3,67,0,256
3,66,110,32
3,66,0,94
3,64,110,2
3,64,0,160
3,71,110,32
3,71,0,160
3,69,110,32
3,69,0,160
3,71,110,32
3,71,0,160
3,66,110,32
3,66,0,160
3,64,110,32
3,64,0,160
3,66,110,32
3,66,0,544
3,66,110,32
3,66,0,160
3,68,110,32
3,68,0,160
3,70,110,32
3,70,0,160
3,71,110,32
3,71,0,928
3,64,110,32
3,64,0,160
3,66,110,32
3,66,0,160
3,67,110,32
3,67,0,160
3,66,110,32
3,66,0,336
3,64,110,48
3,64,0,160
3,62,110,32
3,62,0,352
3,61,110,32
3,61,0,160
3,66,110,32
3,66,0,160
3,64,110,32
3,64,0,160
3,62,110,32
3,62,0,384
3,61,110,0
3,61,0,160
3,59,110,32
3,59,0,160
3,59,110,32
3,59,0,94
3,61,110,2
3,61,0,94
3,62,110,2
3,62,0,736
3,59,110,32
3,59,0,160
3,61,110,32
3,61,0,160
3,62,110,32
3,62,0,160
3,64,110,32
3,64,0,1104
3,64,110,432
3,64,0,336
3,66,110,48
3,66,0,160
3,67,110,32
3,67,0,160
3,66,110,32
3,66,0,94
3,64,110,2
3,64,0,94
3,62,110,2
3,62,0,736
3,61,110,32
3,61,0,160
3,66,110,32
3,66,0,160
3,64,110,32
3,64,0,160
3,62,110,32
3,62,0,94
3,61,110,2
3,61,0,94
3,59,110,2
3,59,0,528
3,59,110,48
3,59,0,336
3,62,110,48
3,62,0,160
3,66,110,32
3,66,0,352
3,64,110,32
3,64,0,160
3,61,110,32
3,61,0,160
3,57,110,32
3,57,0,160
3,59,110,32
3,59,0,928
4,47,110,0
4,59,110,0
4,50,110,192
4,54,110,0
4,50,0,160
4,54,0,0
4,50,110,224
4,54,110,0
4,50,0,160
4,54,0,0
4,50,110,224
4,54,110,0
4,50,0,160
4,54,0,0
4,50,110,224
4,54,110,0
4,50,0,160
4,54,0,0
4,50,110,224
4,54,110,0
4,50,0,160
4,54,0,0
4,50,110,224
4,54,110,0
4,50,0,160
4,54,0,0
4,50,110,224
4,54,110,0
4,47,0,144
4,59,0,0
4,50,0,16
4,54,0,0
4,50,110,224
4,54,110,0
4,54,110,96
4,50,0,64
4,54,0,0
4,54,0,30
4,47,110,2
4,47,0,160
4,42,110,32
4,47,110,0
4,52,110,0
4,42,0,160
4,47,0,0
4,52,0,0
4,50,110,32
4,40,110,192
4,46,110,0
4,50,0,94
4,49,110,2
4,40,0,64
4,46,0,0
4,49,0,30
4,47,110,2
4,47,0,160
4,47,110,32
4,50,110,0
4,54,110,0
4,47,0,160
4,50,0,0
4,54,0,0
4,52,110,32
4,46,110,192
4,49,110,0
4,52,0,94
4,50,110,2
4,46,0,64
4,49,0,0
4,50,0,30
4,49,110,2
4,49,0,160
4,47,110,32
4,50,110,0
4,55,110,0
4,47,0,160
4,50,0,0
4,55,0,0
4,54,110,32
4,45,110,192
4,49,110,0
4,54,0,94
4,52,110,2
4,45,0,64
4,49,0,0
4,52,0,30
4,50,110,2
4,50,0,160
4,50,110,32
4,54,110,0
4,57,110,0
4,50,0,160
4,54,0,0
4,57,0,0
4,55,110,32
4,47,110,192
4,51,110,0
4,55,0,94
4,54,110,2
4,47,0,64
4,51,0,0
4,54,0,30
4,52,110,2
4,52,0,160
4,52,110,32
4,55,110,0
4,59,110,0
4,52,0,160
4,55,0,0
4,59,0,0
4,57,110,32
4,57,0,160
4,49,110,32
4,52,110,0
4,59,110,0
4,49,0,160
4,52,0,0
4,59,0,0
4,54,110,32
4,54,0,160
4,42,110,32
4,45,110,0
4,52,110,0
4,42,0,160
4,45,0,0
4,52,0,0
4,54,110,32
4,45,110,192
4,50,110,0
4,45,0,160
4,50,0,0
4,45,110,32
4,51,110,0
4,45,0,160
4,51,0,0
4,54,0,0
4,57,110,32
4,57,0,160
4,55,110,32
4,55,0,160
4,54,110,32
4,54,0,160
4,52,110,32
4,52,110,192
4,52,0,144
4,52,0,16
4,46,110,32
4,49,110,0
4,54,110,0
4,46,0,160
4,49,0,0
4,54,0,0
4,46,110,32
4,54,110,96
4,46,0,64
4,54,0,30
4,47,110,2
4,47,0,160
4,42,110,32
4,47,110,0
4,52,110,0
4,42,0,160
4,47,0,0
4,52,0,0
4,50,110,32
4,50,0,256
4,40,110,32
4,46,110,0
4,49,110,0
4,49,0,94
4,47,110,2
4,40,0,64
4,46,0,0
4,47,0,96
4,47,110,32
4,50,110,0
4,54,110,0
4,47,0,160
4,50,0,0
4,54,0,0
4,52,110,32
4,46,110,192
4,49,110,0
4,52,0,94
4,50,110,2
4,46,0,64
4,49,0,0
4,50,0,30
4,49,110,2
4,49,0,160
4,47,110,32
4,50,110,0
4,55,110,0
4,47,0,160
4,50,0,0
4,55,0,0
4,54,110,32
4,45,110,192
4,49,110,0
4,54,0,94
4,52,110,2
4,45,0,64
4,49,0,0
4,52,0,30
4,50,110,2
4,50,0,160
4,50,110,32
4,54,110,0
4,57,110,0
4,50,0,160
4,54,0,0
4,57,0,0
4,55,110,32
4,47,110,192
4,51,110,0
4,55,0,94
4,54,110,2
4,47,0,64
4,51,0,0
4,54,0,30
4,52,110,2
4,52,0,160
4,52,110,32
4,55,110,0
4,59,110,0
4,52,0,160
4,55,0,0
4,59,0,0
4,57,110,32
4,57,0,160
4,49,110,32
4,52,110,0
4,59,110,0
4,49,0,160
4,52,0,0
4,59,0,0
4,54,110,32
4,54,0,160
4,42,110,32
4,45,110,0
4,52,110,0
4,42,0,160
4,45,0,0
4,52,0,0
4,54,110,32
4,45,110,192
4,50,110,0
4,45,0,160
