track,note,velocity,time
3,57,110,3648
3,57,0,94
3,61,110,2
3,61,0,94
3,64,110,2
3,64,0,94
3,57,110,2
3,57,0,94
3,61,110,2
3,61,0,94
3,64,110,2
3,64,0,94
3,62,110,2
3,62,0,94
3,62,110,2
3,62,0,94
3,64,110,2
3,64,0,94
3,64,110,2
3,64,0,160
3,64,110,32
3,64,0,94
3,69,110,2
3,69,0,94
3,64,110,2
3,64,0,94
3,61,110,2
3,61,0,94
3,57,110,2
3,57,0,94
3,61,110,2
3,61,0,94
3,64,110,2
3,64,0,94
3,62,110,2
3,62,0,288
3,64,110,0
3,64,0,160
3,57,110,128
3,57,0,94
3,61,110,2
3,61,0,94
3,64,110,2
3,64,0,94
3,57,110,2
3,57,0,94
3,61,110,2
3,61,0,94
3,64,110,2
3,64,0,94
3,62,110,2
3,62,0,94
3,64,110,2
3,64,0,94
3,64,110,2
3,64,0,94
3,64,110,2
3,64,0,160
3,64,110,32
3,64,0,94
3,69,110,2
3,69,0,94
3,64,110,2
3,64,0,94
3,61,110,2
3,61,0,94
3,57,110,2
3,57,0,94
3,61,110,2
3,61,0,94
3,64,110,2
3,64,0,94
3,62,110,2
3,62,0,288
3,64,110,0
3,64,0,94
3,64,110,2
3,64,0,94
3,66,110,2
3,66,0,94
3,67,110,2
3,67,0,94
3,67,110,2
3,67,0,94
3,67,110,2
3,67,0,94
3,67,110,2
3,67,0,94
3,69,110,2
3,69,0,94
3,67,110,2
3,67,0,94
3,66,110,2
3,66,0,336
3,62,110,48
3,62,0,94
3,64,110,2
3,64,0,94
3,65,110,2
3,65,0,94
3,65,110,2
3,65,0,94
3,65,110,2
3,65,0,94
3,65,110,2
3,65,0,94
3,67,110,2
3,67,0,94
3,65,110,2
3,65,0,94
3,64,110,2
3,64,0,336
3,64,110,48
3,64,0,94
3,66,110,2
3,66,0,94
3,67,110,2
3,67,0,94
3,67,110,2
3,67,0,94
3,67,110,2
3,67,0,94
3,67,110,2
3,67,0,94
3,69,110,2
3,69,0,94
3,67,110,2
3,67,0,94
3,66,110,2
3,66,0,288
3,66,110,0
3,66,0,94
3,62,110,2
3,62,0,94
3,64,110,2
3,64,0,94
3,65,110,2
3,65,0,94
3,65,110,2
3,65,0,94
3,65,110,2
3,65,0,94
3,65,110,2
3,65,0,94
3,67,110,2
3,67,0,94
3,65,110,2
3,65,0,94
3,64,110,2
3,64,0,478
3,57,110,98
3,57,0,94
3,61,110,2
3,61,0,94
3,64,110,2
3,64,0,94
3,57,110,2
3,57,0,94
3,61,110,2
3,61,0,94
3,64,110,2
3,64,0,94
3,62,110,2
3,62,0,94
3,62,110,2
3,62,0,94
3,64,110,2
3,64,0,94
3,64,110,2
3,64,0,160
3,64,110,32
3,64,0,94
3,69,110,2
3,69,0,94
3,64,110,2
3,64,0,94
3,61,110,2
3,61,0,94
3,57,110,2
3,57,0,94
3,61,110,2
3,61,0,94
3,64,110,2
3,64,0,94
3,62,110,2
3,62,0,288
3,64,110,0
3,64,0,160
3,57,110,128
3,57,0,94
3,61,110,2
3,61,0,94
3,64,110,2
3,64,0,94
3,57,110,2
3,57,0,94
3,61,110,2
3,61,0,94
3,64,110,2
3,64,0,94
3,62,110,2
3,62,0,94
3,64,110,2
3,64,0,94
3,64,110,2
3,64,0,94
3,64,110,2
3,64,0,160
3,64,110,32
3,64,0,94
3,69,110,2
3,69,0,94
3,64,110,2
3,64,0,94
3,61,110,2
3,61,0,94
3,57,110,2
3,57,0,94
3,61,110,2
3,61,0,94
3,64,110,2
3,64,0,94
3,62,110,2
3,62,0,288
3,64,110,0
3,64,0,94
3,64,110,2
3,64,0,94
3,66,110,2
3,66,0,94
3,67,110,2
3,67,0,94
3,67,110,2
3,67,0,94
3,67,110,2
3,67,0,94
3,67,110,2
3,67,0,94
3,69,110,2
3,69,0,94
3,67,110,2
3,67,0,94
3,66,110,2
3,66,0,336
3,62,110,48
3,62,0,94
3,64,110,2
3,64,0,94
3,65,110,2
3,65,0,94
3,65,110,2
3,65,0,94
3,65,110,2
3,65,0,94
3,65,110,2
3,65,0,94
3,67,110,2
3,67,0,94
3,65,110,2
3,65,0,94
3,64,110,2
3,64,0,336
3,64,110,48
3,64,0,94
3,66,110,2
3,66,0,94
3,67,110,2
3,67,0,94
3,67,110,2
3,67,0,94
3,67,110,2
3,67,0,94
3,67,110,2
3,67,0,94
3,69,110,2
3,69,0,94
3,67,110,2
3,67,0,94
3,66,110,2
3,66,0,288
3,66,110,0
3,66,0,94
3,62,110,2
3,62,0,94
3,64,110,2
3,64,0,94
3,65,110,2
3,65,0,94
3,65,110,2
3,65,0,94
3,65,110,2
3,65,0,94
3,65,110,2
3,65,0,94
3,67,110,2
3,67,0,94
3,65,110,2
3,65,0,94
3,64,110,2
3,64,0,478
3,57,110,98
3,57,0,94
3,61,110,2
3,61,0,94
3,64,110,2
3,64,0,94
3,57,110,2
3,57,0,94
3,61,110,2
3,61,0,94
3,64,110,2
3,64,0,94
3,62,110,2
3,62,0,94
3,62,110,2
3,62,0,94
3,64,110,2
3,64,0,94
3,64,110,2
3,64,0,160
3,64,110,32
3,64,0,94
3,69,110,2
3,69,0,94
3,64,110,2
3,64,0,94
3,61,110,2
3,61,0,94
3,57,110,2
3,57,0,94
3,61,110,2
3,61,0,94
3,64,110,2
3,64,0,94
3,62,110,2
3,62,0,288
3,64,110,0
3,64,0,160
3,57,110,128
3,57,0,94
3,61,110,2
3,61,0,94
3,64,110,2
3,64,0,94
3,57,110,2
3,57,0,94
3,61,110,2
3,61,0,94
3,64,110,2
3,64,0,94
3,62,110,2
3,62,0,94
3,64,110,2
3,64,0,94
3,64,110,2
3,64,0,94
3,64,110,2
3,64,0,160
3,64,110,32
3,64,0,94
3,69,110,2
3,69,0,94
3,64,110,2
3,64,0,94
3,61,110,2
3,61,0,94
3,57,110,2
3,57,0,94
3,61,110,2
3,61,0,94
3,64,110,2
3,64,0,94
3,62,110,2
3,62,0,288
3,64,110,0
3,64,0,94
3,64,110,2
3,64,0,94
3,66,110,2
3,66,0,94
3,67,110,2
3,67,0,94
3,67,110,2
3,67,0,94
3,67,110,2
3,67,0,94
3,67,110,2
3,67,0,94
3,69,110,2
3,69,0,94
3,67,110,2
3,67,0,94
3,66,110,2
3,66,0,336
3,62,110,48
3,62,0,94
3,64,110,2
3,64,0,94
3,65,110,2
3,65,0,94
3,65,110,2
3,65,0,94
3,65,110,2
3,65,0,94
3,65,110,2
3,65,0,94
3,67,110,2
3,67,0,94
3,65,110,2
3,65,0,94
3,64,110,2
3,64,0,336
3,64,110,48
3,64,0,94
3,66,110,2
3,66,0,94
3,67,110,2
3,67,0,94
3,67,110,2
3,67,0,94
3,67,110,2
3,67,0,94
3,67,110,2
3,67,0,94
3,69,110,2
3,69,0,94
3,67,110,2
3,67,0,94
3,66,110,2
3,66,0,288
3,66,110,0
3,66,0,94
3,62,110,2
3,62,0,94
3,64,110,2
3,64,0,94
3,65,110,2
3,65,0,94
3,65,110,2
3,65,0,94
3,65,110,2
3,65,0,94
3,65,110,2
3,65,0,94
3,67,110,2
3,67,0,94
3,65,110,2
3,65,0,94
3,64,110,2
3,64,0,478
3,57,110,98
3,57,0,94
3,61,110,2
3,61,0,94
3,64,110,2
3,64,0,94
3,57,110,2
3,57,0,94
3,61,110,2
3,61,0,94
3,64,110,2
3,64,0,94
3,62,110,2
3,62,0,94
3,62,110,2
3,62,0,94
3,64,110,2
3,64,0,94
3,64,110,2
3,64,0,160
3,64,110,32
3,64,0,94
3,69,110,2
3,69,0,94
3,64,110,2
3,64,0,94
3,61,110,2
3,61,0,94
3,57,110,2
3,57,0,94
3,61,110,2
3,61,0,94
3,64,110,2
3,64,0,94
3,62,110,2
3,62,0,288
3,64,110,0
3,64,0,160
3,57,110,128
3,57,0,94
3,61,110,2
3,61,0,94
3,64,110,2
3,64,0,94
3,57,110,2
3,57,0,94
3,61,110,2
3,61,0,94
3,64,110,2
3,64,0,94
3,62,110,2
3,62,0,94
3,64,110,2
3,64,0,94
3,64,110,2
3,64,0,94
3,64,110,2
3,64,0,160
3,64,110,32
3,64,0,94
3,69,110,2
3,69,0,94
3,64,110,2
3,64,0,94
3,61,110,2
3,61,0,94
3,57,110,2
3,57,0,94
3,61,110,2
3,61,0,94
3,64,110,2
3,64,0,94
3,62,110,2
3,62,0,288
3,64,110,0
3,64,0,94
3,64,110,2
3,64,0,94
3,66,110,2
3,66,0,94
3,67,110,2
3,67,0,94
3,67,110,2
3,67,0,94
3,67,110,2
3,67,0,94
3,67,110,2
3,67,0,94
3,69,110,2
3,69,0,94
3,67,110,2
3,67,0,94
3,66,110,2
3,66,0,336
3,62,110,48
3,62,0,94
3,64,110,2
3,64,0,94
3,65,110,2
3,65,0,94
3,65,110,2
3,65,0,94
3,65,110,2
3,65,0,94
3,65,110,2
3,65,0,94
3,67,110,2
3,67,0,94
3,65,110,2
3,65,0,94
3,64,110,2
3,64,0,336
3,64,110,48
3,64,0,94
3,66,110,2
3,66,0,94
3,67,110,2
3,67,0,94
3,67,110,2
3,67,0,94
3,67,110,2
3,67,0,94
3,67,110,2
3,67,0,94
3,69,110,2
3,69,0,94
3,67,110,2
3,67,0,94
3,66,110,2
3,66,0,288
3,66,110,0
3,66,0,94
3,62,110,2
3,62,0,94
3,64,110,2
3,64,0,94
3,65,110,2
3,65,0,94
3,65,110,2
3,65,0,94
3,65,110,2
3,65,0,94
3,65,110,2
3,65,0,94
3,67,110,2
3,67,0,94
3,65,110,2
3,65,0,94
3,64,110,2
3,64,0,478
3,57,110,98
3,57,0,94
3,61,110,2
3,61,0,94
3,64,110,2
3,64,0,94
3,57,110,2
3,57,0,94
3,61,110,2
3,61,0,94
3,64,110,2
3,64,0,94
3,62,110,2
3,62,0,94
3,62,110,2
3,62,0,94
3,64,110,2
3,64,0,94
3,64,110,2
3,64,0,160
3,64,110,32
3,64,0,94
3,69,110,2
3,69,0,94
3,64,110,2
3,64,0,94
3,61,110,2
3,61,0,94
3,57,110,2
3,57,0,94
3,61,110,2
3,61,0,94
3,64,110,2
3,64,0,94
3,62,110,2
3,62,0,288
3,64,110,0
3,64,0,160
3,57,110,128
3,57,0,94
3,61,110,2
3,61,0,94
3,64,110,2
3,64,0,94
3,57,110,2
3,57,0,94
3,61,110,2
3,61,0,94
3,64,110,2
3,64,0,94
3,62,110,2
3,62,0,94
3,64,110,2
3,64,0,94
3,64,110,2
3,64,0,94
3,64,110,2
3,64,0,160
3,64,110,32
3,64,0,94
3,69,110,2
3,69,0,94
3,64,110,2
3,64,0,94
3,61,110,2
3,61,0,94
3,57,110,2
3,57,0,94
3,61,110,2
3,61,0,94
3,64,110,2
3,64,0,94
3,62,110,2
3,62,0,288
3,64,110,0
3,64,0,94
3,64,110,2
3,64,0,94
3,66,110,2
3,66,0,94
3,67,110,2
3,67,0,94
3,67,110,2
3,67,0,94
3,67,110,2
3,67,0,94
3,67,110,2
3,67,0,94
3,69,110,2
3,69,0,94
3,67,110,2
3,67,0,94
3,66,110,2
3,66,0,336
3,62,110,48
3,62,0,94
3,64,110,2
3,64,0,94
3,65,110,2
3,65,0,94
3,65,110,2
3,65,0,94
3,65,110,2
3,65,0,94
3,65,110,2
3,65,0,94
3,67,110,2
3,67,0,94
3,65,110,2
3,65,0,94
3,64,110,2
3,64,0,336
3,64,110,48
3,64,0,94
3,66,110,2
3,66,0,94
3,67,110,2
3,67,0,94
3,67,110,2
3,67,0,94
3,67,110,2
3,67,0,94
3,67,110,2
3,67,0,94
3,69,110,2
3,69,0,94
3,67,110,2
3,67,0,94
3,66,110,2
3,66,0,288
3,66,110,0
3,66,0,94
3,62,110,2
3,62,0,94
3,64,110,2
3,64,0,94
3,65,110,2
3,65,0,94
3,65,110,2
3,65,0,94
3,65,110,2
3,65,0,94
3,65,110,2
3,65,0,94
3,67,110,2
3,67,0,94
3,65,110,2
3,65,0,94
3,64,110,2
3,64,0,478
3,57,110,98
3,57,0,94
3,61,110,2
3,61,0,94
3,64,110,2
3,64,0,94
3,57,110,2
3,57,0,94
3,61,110,2
3,61,0,94
3,64,110,2
3,64,0,94
3,62,110,2
3,62,0,94
3,62,110,2
3,62,0,94
3,64,110,2
3,64,0,94
3,64,110,2
3,64,0,160
3,64,110,32
3,64,0,94
3,69,110,2
3,69,0,94
3,64,110,2
3,64,0,94
3,61,110,2
3,61,0,94
3,57,110,2
3,57,0,94
3,61,110,2
3,61,0,94
3,64,110,2
3,64,0,94
3,62,110,2
3,62,0,288
3,64,110,0
3,64,0,160
3,57,110,128
3,57,0,94
3,61,110,2
3,61,0,94
3,64,110,2
3,64,0,94
3,57,110,2
3,57,0,94
3,61,110,2
3,61,0,94
3,64,110,2
3,64,0,94
3,62,110,2
3,62,0,94
3,64,110,2
3,64,0,94
3,64,110,2
3,64,0,94
3,64,110,2
3,64,0,160
3,64,110,32
3,64,0,94
3,69,110,2
3,69,0,94
3,64,110,2
3,64,0,94
3,61,110,2
3,61,0,94
3,57,110,2
3,57,0,94
3,61,110,2
3,61,0,94
3,64,110,2
3,64,0,94
3,62,110,2
3,62,0,288
3,64,110,0
3,64,0,94
3,64,110,2
3,64,0,94
3,66,110,2
3,66,0,94
3,67,110,2
3,67,0,94
3,67,110,2
3,67,0,94
3,67,110,2
3,67,0,94
3,67,110,2
3,67,0,94
3,69,110,2
3,69,0,94
3,67,110,2
3,67,0,94
3,66,110,2
3,66,0,336
3,62,110,48
3,62,0,94
3,64,110,2
3,64,0,94
3,65,110,2
3,65,0,94
3,65,110,2
3,65,0,94
3,65,110,2
3,65,0,94
3,65,110,2
3,65,0,94
3,67,110,2
3,67,0,94
3,65,110,2
3,65,0,94
3,64,110,2
3,64,0,336
3,64,110,48
3,64,0,94
3,66,110,2
3,66,0,94
3,67,110,2
3,67,0,94
3,67,110,2
3,67,0,94
3,67,110,2
3,67,0,94
3,67,110,2
3,67,0,94
3,69,110,2
3,69,0,94
3,67,110,2
3,67,0,94
3,66,110,2
3,66,0,288
3,66,110,0
3,66,0,94
3,62,110,2
3,62,0,94
3,64,110,2
3,64,0,94
3,66,110,2
3,66,0,94
3,64,110,2
3,64,0,94
3,62,110,2
3,62,0,94
3,68,110,2
3,68,0,94
3,66,110,2
3,66,0,94
3,62,110,2
3,62,0,94
3,69,110,2
3,69,0,336
4,62,110,0
4,62,0,94
4,64,110,2
4,64,0,94
4,66,110,2
4,66,0,94
4,64,110,2
4,64,0,94
4,62,110,2
4,62,0,94
4,68,110,2
4,68,0,94
4,66,110,2
4,66,0,94
4,64,110,2
4,64,0,94
4,69,110,2
4,69,0,94
4,64,110,2
4,64,0,94
4,61,110,2
4,61,0,94
4,57,110,2
4,57,0,160
4,45,110,128
4,49,110,0
4,45,0,160
4,49,0,0
4,45,110,32
4,49,110,0
4,52,110,0
4,45,0,94
4,49,0,0
4,52,0,0
4,45,110,2
4,49,110,0
4,52,110,0
4,45,0,160
4,49,0,0
4,52,0,0
4,45,110,32
4,49,110,0
4,52,110,0
4,45,0,94
4,49,0,0
4,52,0,0
4,44,110,2
4,47,110,0
4,50,110,0
4,44,0,160
4,47,0,0
4,50,0,0
4,44,110,32
4,50,110,0
4,52,110,0
4,44,0,94
4,50,0,0
4,52,0,0
4,44,110,2
4,50,110,0
4,52,110,0
4,44,0,160
4,50,0,0
4,52,0,0
4,44,110,32
4,50,110,0
4,52,110,0
4,44,0,94
4,50,0,0
4,52,0,0
4,45,110,2
4,49,110,0
4,45,0,160
4,49,0,0
4,45,110,32
4,49,110,0
4,52,110,0
4,45,0,94
4,49,0,0
4,52,0,0
4,45,110,2
4,49,110,0
4,52,110,0
4,45,0,160
4,49,0,0
4,52,0,0
4,45,110,32
4,49,110,0
4,52,110,0
4,45,0,94
4,49,0,0
4,52,0,0
4,44,110,2
4,47,110,0
4,50,110,0
4,44,0,160
4,47,0,0
4,50,0,0
4,44,110,32
4,50,110,0
