track,note,velocity,time
3,59,110,8640
3,59,0,160
3,62,110,32
3,62,0,160
3,64,110,32
3,64,0,160
3,66,110,32
3,66,0,528
3,59,110,48
3,59,0,160
3,62,110,32
3,62,0,160
3,66,110,32
3,66,0,160
3,71,110,32
3,71,0,528
3,67,110,48
3,67,0,160
3,69,110,32
3,69,0,160
3,71,110,32
3,71,0,160
3,69,110,32
3,69,0,1488
3,72,110,240
3,72,0,160
3,69,110,32
3,69,0,160
3,72,110,32
3,72,0,160
3,71,110,32
3,71,0,528
3,67,110,48
3,67,0,160
3,64,110,32
3,64,0,160
3,67,110,32
3,69,110,0
3,67,0,160
3,69,0,0
3,66,110,32
3,66,0,336
3,62,110,48
3,62,0,160
3,55,110,32
3,55,0,336
3,62,110,48
3,62,0,160
3,61,110,32
3,61,0,1312
3,59,110,416
3,59,0,160
3,62,110,32
3,62,0,160
3,64,110,32
3,64,0,160
3,66,110,32
3,66,0,528
3,59,110,48
3,59,0,160
3,62,110,32
3,62,0,160
3,66,110,32
3,66,0,160
3,71,110,32
3,71,0,528
3,67,110,48
3,67,0,160
3,69,110,32
3,69,0,160
3,71,110,32
3,71,0,160
3,69,110,32
3,69,0,1488
3,72,110,240
3,72,0,160
3,69,110,32
3,69,0,160
3,72,110,32
3,72,0,160
3,71,110,32
3,71,0,528
3,67,110,48
3,67,0,160
3,64,110,32
3,64,0,160
3,67,110,32
3,69,110,0
3,67,0,160
3,69,0,0
3,66,110,32
3,66,0,528
3,61,110,48
3,61,0,160
3,54,110,32
3,54,0,160
3,61,110,32
3,61,0,160
3,59,110,32
3,59,0,1312
3,58,110,416
3,58,0,160
3,66,110,32
3,66,0,160
3,64,110,32
3,64,0,160
3,62,110,32
3,62,0,528
3,64,110,48
3,64,0,160
3,69,110,32
3,69,0,160
3,67,110,32
3,67,0,160
3,66,110,32
3,66,0,528
3,71,110,48
3,71,0,528
3,59,110,48
3,59,0,336
3,71,110,48
3,71,0,160
3,67,110,32
3,67,0,1104
3,64,110,48
3,64,0,160
3,69,110,32
3,69,0,160
3,67,110,32
3,67,0,160
3,66,110,32
3,66,0,528
3,62,110,48
3,71,110,0
3,62,0,160
3,71,0,0
3,67,110,32
3,67,0,160
3,66,110,32
3,66,0,160
3,64,110,32
3,64,0,528
3,66,110,48
3,66,0,160
3,64,110,32
3,64,0,160
3,62,110,32
3,62,0,160
3,61,110,32
3,61,0,1312
3,58,110,416
3,58,0,160
3,66,110,32
3,66,0,160
3,64,110,32
3,64,0,160
3,62,110,32
3,62,0,528
3,64,110,48
3,64,0,160
3,69,110,32
3,69,0,160
3,67,110,32
3,67,0,160
3,66,110,32
3,66,0,528
3,71,110,48
3,71,0,528
3,59,110,48
3,59,0,336
3,71,110,48
3,71,0,160
3,67,110,32
3,67,0,912
3,64,110,240
3,64,0,160
3,69,110,32
3,69,0,160
3,67,110,32
3,67,0,160
3,66,110,32
3,66,0,528
3,71,110,48
3,71,0,160
3,66,110,32
3,66,0,160
3,71,110,32
3,71,0,160
3,64,110,32
3,64,0,528
3,66,110,48
3,66,0,528
3,58,110,48
3,58,0,160
3,56,110,32
3,56,0,160
3,58,110,32
3,58,0,160
3,59,110,32
3,59,0,336
3,59,110,240
3,59,0,160
3,62,110,32
3,62,0,160
3,64,110,32
3,64,0,160
3,66,110,32
3,66,0,528
3,59,110,48
3,59,0,160
3,62,110,32
3,62,0,160
3,66,110,32
3,66,0,160
3,71,110,32
3,71,0,528
3,67,110,48
3,67,0,160
3,69,110,32
3,69,0,160
3,71,110,32
3,71,0,160
3,69,110,32
3,69,0,1488
3,72,110,240
3,72,0,160
3,69,110,32
3,69,0,160
3,72,110,32
3,72,0,160
3,71,110,32
3,71,0,528
3,67,110,48
3,67,0,160
3,64,110,32
3,64,0,160
3,67,110,32
3,69,110,0
3,67,0,160
3,69,0,0
3,66,110,32
3,66,0,336
3,62,110,48
3,62,0,160
3,55,110,32
3,55,0,336
3,62,110,48
3,62,0,160
3,61,110,32
3,61,0,1312
3,59,110,416
3,59,0,160
3,62,110,32
3,62,0,160
3,64,110,32
3,64,0,160
3,66,110,32
3,66,0,528
3,59,110,48
3,59,0,160
3,62,110,32
3,62,0,160
3,66,110,32
3,66,0,160
3,71,110,32
3,71,0,528
3,67,110,48
3,67,0,160
3,69,110,32
3,69,0,160
3,71,110,32
3,71,0,160
3,69,110,32
3,69,0,1488
3,72,110,240
3,72,0,160
3,69,110,32
3,69,0,160
3,72,110,32
3,72,0,160
3,71,110,32
3,71,0,528
3,67,110,48
3,67,0,160
3,64,110,32
3,64,0,160
3,67,110,32
3,69,110,0
3,67,0,160
3,69,0,0
3,66,110,32
3,66,0,528
3,61,110,48
3,61,0,160
3,54,110,32
3,54,0,160
3,61,110,32
3,61,0,160
3,59,110,32
3,59,0,1312
3,58,110,416
3,58,0,160
3,66,110,32
3,66,0,160
3,64,110,32
3,64,0,160
3,62,110,32
3,62,0,528
3,64,110,48
3,64,0,160
3,69,110,32
3,69,0,160
3,67,110,32
3,67,0,160
3,66,110,32
3,66,0,528
3,71,110,48
3,71,0,528
3,59,110,48
3,59,0,336
3,71,110,48
3,71,0,160
3,67,110,32
3,67,0,1104
3,64,110,48
3,64,0,160
3,69,110,32
3,69,0,160
3,67,110,32
3,67,0,160
3,66,110,32
3,66,0,528
3,62,110,48
3,71,110,0
3,62,0,160
3,71,0,0
3,67,110,32
3,67,0,160
3,66,110,32
3,66,0,160
3,64,110,32
3,64,0,528
3,66,110,48
3,66,0,160
3,64,110,32
3,64,0,160
3,62,110,32
3,62,0,160
3,61,110,32
3,61,0,1312
3,58,110,416
3,58,0,160
3,66,110,32
3,66,0,160
3,64,110,32
3,64,0,160
3,62,110,32
3,62,0,528
3,64,110,48
3,64,0,160
3,69,110,32
3,69,0,160
3,67,110,32
3,67,0,160
3,66,110,32
3,66,0,528
3,71,110,48
3,71,0,528
3,59,110,48
3,59,0,336
3,71,110,48
3,71,0,160
3,67,110,32
3,67,0,912
3,64,110,240
3,64,0,160
3,69,110,32
3,69,0,160
3,67,110,32
3,67,0,160
3,66,110,32
3,66,0,528
3,71,110,48
3,71,0,160
3,66,110,32
3,66,0,160
3,71,110,32
3,71,0,160
3,64,110,32
3,64,0,528
3,66,110,48
3,66,0,528
3,58,110,48
3,58,0,160
3,56,110,32
3,56,0,160
3,58,110,32
3,58,0,160
3,59,110,32
3,59,0,336
3,59,110,240
3,59,0,160
3,62,110,32
3,62,0,160
3,64,110,32
3,64,0,160
3,66,110,32
3,66,0,528
3,59,110,48
3,59,0,160
3,62,110,32
3,62,0,160
3,66,110,32
3,66,0,160
3,71,110,32
3,71,0,528
3,67,110,48
3,67,0,160
3,69,110,32
3,69,0,160
3,71,110,32
3,71,0,160
3,69,110,32
3,69,0,1488
3,72,110,240
3,72,0,160
3,69,110,32
3,69,0,160
3,72,110,32
3,72,0,160
3,71,110,32
3,71,0,528
3,67,110,48
3,67,0,160
3,64,110,32
3,64,0,160
3,67,110,32
3,69,110,0
3,67,0,160
3,69,0,0
3,66,110,32
3,66,0,336
3,62,110,48
3,62,0,160
3,55,110,32
3,55,0,336
3,62,110,48
3,62,0,160
3,61,110,32
3,61,0,1312
3,59,110,416
3,59,0,160
3,62,110,32
3,62,0,160
3,64,110,32
3,64,0,160
3,66,110,32
3,66,0,528
3,59,110,48
3,59,0,160
3,62,110,32
3,62,0,160
3,66,110,32
3,66,0,160
3,71,110,32
3,71,0,528
3,67,110,48
3,67,0,160
3,69,110,32
3,69,0,160
3,71,110,32
3,71,0,160
3,69,110,32
3,69,0,1488
3,72,110,240
3,72,0,160
3,69,110,32
3,69,0,160
3,72,110,32
3,72,0,160
3,71,110,32
3,71,0,528
3,67,110,48
3,67,0,160
3,64,110,32
3,64,0,160
3,67,110,32
3,69,110,0
3,67,0,160
3,69,0,0
3,66,110,32
3,66,0,528
3,61,110,48
3,61,0,160
3,54,110,32
3,54,0,160
3,61,110,32
3,61,0,160
3,59,110,32
3,59,0,1312
3,58,110,416
3,58,0,160
3,66,110,32
3,66,0,160
3,64,110,32
3,64,0,160
3,62,110,32
3,62,0,528
3,64,110,48
3,64,0,160
3,69,110,32
3,69,0,160
3,67,110,32
3,67,0,160
3,66,110,32
3,66,0,528
3,71,110,48
3,71,0,528
3,59,110,48
3,59,0,336
3,71,110,48
3,71,0,160
3,67,110,32
3,67,0,1104
3,64,110,48
3,64,0,160
3,69,110,32
3,69,0,160
3,67,110,32
3,67,0,160
3,66,110,32
3,66,0,528
3,62,110,48
3,71,110,0
3,62,0,160
3,71,0,0
3,67,110,32
3,67,0,160
3,66,110,32
3,66,0,160
3,64,110,32
3,64,0,528
3,66,110,48
3,66,0,160
3,64,110,32
3,64,0,160
3,62,110,32
3,62,0,160
3,61,110,32
3,61,0,1312
3,58,110,416
3,58,0,160
3,66,110,32
3,66,0,160
3,64,110,32
3,64,0,160
3,62,110,32
3,62,0,528
3,64,110,48
3,64,0,160
3,69,110,32
3,69,0,160
3,67,110,32
3,67,0,160
3,66,110,32
3,66,0,528
3,71,110,48
3,71,0,528
3,59,110,48
3,59,0,336
3,71,110,48
3,71,0,160
3,67,110,32
3,67,0,912
3,64,110,240
3,64,0,160
3,69,110,32
3,69,0,160
3,67,110,32
3,67,0,160
3,66,110,32
3,66,0,528
3,71,110,48
3,71,0,160
3,66,110,32
3,66,0,160
3,71,110,32
3,71,0,160
3,64,110,32
3,64,0,528
3,66,110,48
3,66,0,528
3,58,110,48
3,58,0,160
3,56,110,32
3,56,0,160
3,58,110,32
3,58,0,160
3,59,110,32
3,59,0,336
3,59,110,240
3,59,0,160
3,62,110,32
3,62,0,160
3,64,110,32
3,64,0,160
3,66,110,32
3,66,0,528
3,59,110,48
3,59,0,160
3,62,110,32
3,62,0,160
3,66,110,32
3,66,0,160
3,71,110,32
3,71,0,528
3,67,110,48
3,67,0,160
3,69,110,32
3,69,0,160
3,71,110,32
3,71,0,160
3,69,110,32
3,69,0,1488
3,72,110,240
3,72,0,160
3,69,110,32
3,69,0,160
3,72,110,32
3,72,0,160
3,71,110,32
3,71,0,528
3,67,110,48
3,67,0,160
3,64,110,32
3,64,0,160
3,67,110,32
3,69,110,0
3,67,0,160
3,69,0,0
3,66,110,32
3,66,0,336
3,62,110,48
3,62,0,160
3,55,110,32
3,55,0,336
3,62,110,48
3,62,0,160
3,61,110,32
3,61,0,1312
3,59,110,416
3,59,0,160
3,62,110,32
3,62,0,160
3,64,110,32
3,64,0,160
3,66,110,32
3,66,0,528
3,59,110,48
3,59,0,160
3,62,110,32
3,62,0,160
3,66,110,32
3,66,0,160
3,71,110,32
3,71,0,528
3,67,110,48
3,67,0,160
3,69,110,32
3,69,0,160
3,71,110,32
3,71,0,160
3,69,110,32
3,69,0,1488
3,72,110,240
3,72,0,160
3,69,110,32
3,69,0,160
3,72,110,32
3,72,0,160
3,71,110,32
3,71,0,528
3,67,110,48
3,67,0,160
3,64,110,32
3,64,0,160
3,67,110,32
3,69,110,0
3,67,0,160
3,69,0,0
3,66,110,32
3,66,0,528
3,61,110,48
3,61,0,160
3,54,110,32
3,54,0,160
3,61,110,32
3,61,0,160
3,59,110,32
3,59,0,1312
3,58,110,416
3,58,0,160
3,66,110,32
3,66,0,160
3,64,110,32
3,64,0,160
3,62,110,32
3,62,0,528
3,64,110,48
3,64,0,160
3,69,110,32
3,69,0,160
3,67,110,32
3,67,0,160
3,66,110,32
3,66,0,528
3,71,110,48
3,71,0,528
3,59,110,48
3,59,0,336
3,71,110,48
3,71,0,160
3,67,110,32
3,67,0,1104
3,64,110,48
3,64,0,160
3,69,110,32
3,69,0,160
3,67,110,32
3,67,0,160
3,66,110,32
3,66,0,528
3,62,110,48
3,71,110,0
3,62,0,160
3,71,0,0
3,67,110,32
3,67,0,160
3,66,110,32
3,66,0,160
3,64,110,32
3,64,0,528
3,66,110,48
3,66,0,160
3,64,110,32
3,64,0,160
3,62,110,32
3,62,0,160
3,61,110,32
3,61,0,1312
3,58,110,416
3,58,0,160
3,66,110,32
3,66,0,160
3,64,110,32
3,64,0,160
3,62,110,32
3,62,0,528
3,64,110,48
3,64,0,160
3,69,110,32
3,69,0,160
3,67,110,32
3,67,0,160
3,66,110,32
3,66,0,528
3,71,110,48
3,71,0,528
3,59,110,48
3,59,0,336
3,71,110,48
3,71,0,160
3,67,110,32
3,67,0,912
3,64,110,240
3,64,0,160
3,69,110,32
3,69,0,160
3,67,110,32
3,67,0,160
3,66,110,32
3,66,0,528
3,71,110,48
3,71,0,160
3,66,110,32
3,66,0,160
3,71,110,32
3,71,0,160
3,64,110,32
3,64,0,528
3,66,110,48
3,66,0,528
3,68,110,48
3,68,0,336
3,70,110,48
3,70,0,160
3,71,110,32
3,71,0,160
4,58,110,0
4,58,0,160
4,66,110,32
4,66,0,160
4,64,110,32
4,64,0,160
4,59,110,32
4,62,110,0
4,62,0,336
4,62,110,48
4,59,0,144
4,62,0,16
4,61,110,32
4,64,110,0
4,64,0,160
4,69,110,32
4,69,0,160
4,67,110,32
4,61,0,144
4,67,0,16
4,62,110,32
4,66,110,0
4,66,0,336
4,66,110,48
4,62,0,144
4,66,0,16
4,63,110,32
4,71,110,0
4,71,0,336
4,71,110,48
4,63,0,144
4,63,110,48
4,71,0,160
4,59,110,32
4,63,0,144
4,59,0,16
4,63,110,32
4,71,110,0
4,63,0,160
4,71,0,0
4,64,110,32
4,67,110,0
4,64,0,912
4,67,0,0
4,64,110,240
4,64,0,160
4,57,110,32
4,61,110,0
4,69,110,0
4,57,0,160
4,61,0,0
4,69,0,0
4,57,110,32
4,61,110,0
4,67,110,0
4,57,0,160
4,61,0,0
4,67,0,0
4,66,110,32
4,57,110,192
4,62,110,0
4,57,0,160
4,62,0,0
4,66,0,0
4,57,110,32
4,62,110,0
4,66,110,0
4,57,0,160
4,62,0,0
4,66,0,0
4,62,110,32
4,62,0,160
4,59,110,32
4,62,110,0
4,67,110,0
4,59,0,160
4,62,0,0
4,67,0,0
4,59,110,32
4,62,110,0
4,66,110,0
4,59,0,160
4,62,0,0
4,66,0,0
4,64,110,32
4,55,110,192
4,60,110,0
4,55,0,160
4,60,0,0
4,55,110,32
4,60,110,0
4,64,0,144
4,55,0,16
4,60,0,0
4,66,110,32
4,54,110,192
4,58,110,0
4,54,0,160
4,58,0,0
4,66,0,0
4,54,110,32
4,58,110,0
4,54,0,160
4,57,0,192
4,52,110,32
4,56,110,0
4,52,0,160
4,56,0,0
4,52,110,32
4,54,110,0
4,58,110,0
4,52,0,160
4,54,0,0
4,58,0,0
4,50,110,32
4,54,110,0
4,59,110,0
4,50,0,160
4,54,0,0
4,59,0,0
4,59,110,416
4,59,0,160
4,62,110,32
4,62,0,160
4,64,110,32
4,64,0,160
4,66,110,32
4,59,110,192
4,62,110,0
4,59,0,160
4,62,0,0
4,59,110,32
4,62,110,0
4,66,0,144
4,59,0,16
4,62,0,0
4,59,110,32
4,59,0,160
4,59,110,32
4,62,110,0
4,59,0,160
4,62,0,0
4,59,110,32
4,62,110,0
4,66,110,0
4,59,0,160
4,62,0,0
4,66,0,0
4,71,110,32
4,59,110,192
4,62,110,0
4,59,0,160
4,62,0,0
4,59,110,32
4,62,110,0
4,71,0,144
4,59,0,16
4,62,0,0
4,67,110,32
4,67,0,160
4,61,110,32
4,64,110,0
4,69,110,0
4,61,0,160
4,64,0,0
4,69,0,0
4,61,110,32
4,64,110,0
4,71,110,0
4,61,0,160
4,64,0,0
4,71,0,0
4,69,110,32
4,62,110,192
4,66,110,0
4,62,0,160
4,66,0,0
4,62,110,32
4,66,110,0
4,62,0,160
4,66,0,0
4,62,110,224
4,66,110,0
4,62,0,160
4,66,0,0
4,62,110,32
4,66,110,0
4,62,0,160
4,66,0,0
4,62,110,224
4,66,110,0
4,62,0,160
4,66,0,0
4,69,0,0
4,62,110,32
4,66,110,0
4,62,0,160
4,66,0,0
4,72,110,32
4,72,0,160
4,60,110,32
4,64,110,0
