track,note,velocity,time
3,59,110,0
3,61,110,4
3,62,110,4
3,62,110,64
3,59,110,64
3,61,110,4
3,62,110,4
3,64,110,4
3,64,110,64
3,61,110,4
3,66,110,4
3,64,110,4
3,62,110,4
3,59,110,64
3,61,110,64
3,58,110,4
3,59,110,64
3,57,110,288
3,62,110,4
3,64,110,4
3,66,110,4
3,66,110,64
3,62,110,64
3,64,110,4
3,66,110,4
3,67,110,4
3,67,110,64
3,64,110,4
3,69,110,4
3,67,110,4
3,66,110,4
3,62,110,64
3,64,110,64
3,57,110,4
3,66,110,64
3,62,110,480
3,66,110,4
3,71,110,4
3,71,110,64
3,69,110,64
3,67,110,4
3,69,110,4
3,66,110,4
3,62,110,64
3,71,110,64
3,69,110,64
3,67,110,4
3,71,110,64
3,66,110,4
3,62,110,4
3,66,110,4
3,64,110,4
3,69,110,480
3,67,110,4
3,66,110,4
3,66,110,64
3,64,110,4
3,62,110,4
3,61,110,4
3,59,110,4
3,59,110,64
3,59,110,64
3,61,110,4
3,62,110,4
3,59,110,4
3,62,110,4
3,55,110,288
3,57,110,4
3,54,110,64
3,69,110,480
3,67,110,4
3,66,110,4
3,66,110,64
3,64,110,4
3,62,110,4
3,61,110,4
3,59,110,4
3,59,110,64
3,59,110,64
3,61,110,4
3,62,110,4
3,59,110,4
3,59,110,4
3,55,110,96
3,57,110,64
3,59,110,64
3,59,110,480
3,61,110,4
3,62,110,4
3,62,110,64
3,59,110,64
3,61,110,4
3,62,110,4
3,64,110,4
3,64,110,64
3,61,110,4
3,66,110,4
3,64,110,4
3,62,110,4
3,59,110,64
3,61,110,64
3,58,110,4
3,59,110,64
3,57,110,288
3,62,110,4
3,64,110,4
3,66,110,4
3,66,110,64
3,62,110,64
3,64,110,4
3,66,110,4
3,67,110,4
3,67,110,64
3,64,110,4
3,69,110,4
3,67,110,4
3,66,110,4
3,62,110,64
3,64,110,64
3,57,110,4
3,66,110,64
3,62,110,480
3,66,110,4
3,71,110,4
3,71,110,64
3,69,110,64
3,67,110,4
3,69,110,4
3,66,110,4
3,62,110,64
3,71,110,64
3,69,110,64
3,67,110,4
3,71,110,64
3,66,110,4
3,62,110,4
3,66,110,4
3,64,110,4
3,69,110,480
3,67,110,4
3,66,110,4
3,66,110,64
3,64,110,4
3,62,110,4
3,61,110,4
3,59,110,4
3,59,110,64
3,59,110,64
3,61,110,4
3,62,110,4
3,59,110,4
3,62,110,4
3,55,110,288
3,57,110,4
3,54,110,64
3,69,110,480
3,67,110,4
3,66,110,4
3,66,110,64
3,64,110,4
3,62,110,4
3,61,110,4
3,59,110,4
3,59,110,64
3,59,110,64
3,61,110,4
3,62,110,4
3,59,110,4
3,59,110,4
3,55,110,96
3,57,110,64
3,59,110,64
3,59,110,480
3,61,110,4
3,62,110,4
3,62,110,64
3,59,110,64
3,61,110,4
3,62,110,4
3,64,110,4
3,64,110,64
3,61,110,4
3,66,110,4
3,64,110,4
3,62,110,4
3,59,110,64
3,61,110,64
3,58,110,4
3,59,110,64
3,57,110,288
3,62,110,4
3,64,110,4
3,66,110,4
3,66,110,64
3,62,110,64
3,64,110,4
3,66,110,4
3,67,110,4
3,67,110,64
3,64,110,4
3,69,110,4
3,67,110,4
3,66,110,4
3,62,110,64
3,64,110,64
3,57,110,4
3,66,110,64
3,62,110,480
3,66,110,4
3,71,110,4
3,71,110,64
3,69,110,64
3,67,110,4
3,69,110,4
3,66,110,4
3,62,110,64
3,71,110,64
3,69,110,64
3,67,110,4
3,71,110,64
3,66,110,4
3,62,110,4
3,66,110,4
3,64,110,4
3,69,110,480
3,67,110,4
3,66,110,4
3,66,110,64
3,64,110,4
3,62,110,4
3,61,110,4
3,59,110,4
3,59,110,64
3,59,110,64
3,61,110,4
3,62,110,4
3,59,110,4
3,62,110,4
3,55,110,288
3,57,110,4
3,54,110,64
3,69,110,480
3,67,110,4
3,66,110,4
3,66,110,64
3,64,110,4
3,62,110,4
3,61,110,4
3,59,110,4
3,59,110,64
3,59,110,64
3,61,110,4
3,62,110,4
3,59,110,4
3,59,110,4
3,55,110,96
3,57,110,64
3,59,110,64
3,59,110,480
3,61,110,4
3,62,110,4
3,62,110,64
3,59,110,64
3,61,110,4
3,62,110,4
3,64,110,4
3,64,110,64
3,61,110,4
3,66,110,4
3,64,110,4
3,62,110,4
3,59,110,64
3,61,110,64
3,58,110,4
3,59,110,64
3,57,110,288
3,62,110,4
3,64,110,4
3,66,110,4
3,66,110,64
3,62,110,64
3,64,110,4
3,66,110,4
3,67,110,4
3,67,110,64
3,64,110,4
3,69,110,4
3,67,110,4
3,66,110,4
3,62,110,64
3,64,110,64
3,57,110,4
3,66,110,64
3,62,110,480
3,66,110,4
3,71,110,4
3,71,110,64
3,69,110,64
3,67,110,4
3,69,110,4
3,66,110,4
3,62,110,64
3,71,110,64
3,69,110,64
3,67,110,4
3,71,110,64
3,66,110,4
3,62,110,4
3,66,110,4
3,64,110,4
3,69,110,480
3,67,110,4
3,66,110,4
3,66,110,64
3,64,110,4
3,62,110,4
3,61,110,4
3,59,110,4
3,59,110,64
3,59,110,64
3,61,110,4
3,62,110,4
3,59,110,4
3,62,110,4
3,55,110,288
3,57,110,4
3,54,110,64
3,69,110,480
3,67,110,4
3,66,110,4
3,66,110,64
3,64,110,4
3,62,110,4
3,61,110,4
3,59,110,4
3,59,110,64
3,59,110,64
3,61,110,4
3,62,110,4
3,59,110,4
3,59,110,4
3,55,110,96
3,57,110,64
3,59,110,64
3,59,110,480
3,61,110,4
3,62,110,4
3,62,110,64
3,59,110,64
3,61,110,4
3,62,110,4
3,64,110,4
3,64,110,64
3,61,110,4
3,66,110,4
3,64,110,4
3,62,110,4
3,59,110,64
3,61,110,64
3,58,110,4
3,59,110,64
3,57,110,288
3,62,110,4
3,64,110,4
3,66,110,4
3,66,110,64
3,62,110,64
3,64,110,4
3,66,110,4
3,67,110,4
3,67,110,64
3,64,110,4
3,69,110,4
3,67,110,4
3,66,110,4
3,62,110,64
3,64,110,64
3,57,110,4
3,66,110,64
3,62,110,480
3,66,110,4
3,71,110,4
3,71,110,64
3,69,110,64
3,67,110,4
3,69,110,4
3,66,110,4
3,62,110,64
3,71,110,64
3,69,110,64
3,67,110,4
3,71,110,64
3,66,110,4
3,62,110,4
3,66,110,4
3,64,110,4
3,69,110,480
3,67,110,4
3,66,110,4
3,66,110,64
3,64,110,4
3,62,110,4
3,61,110,4
3,59,110,4
3,59,110,64
3,59,110,64
3,61,110,4
3,62,110,4
3,59,110,4
3,62,110,4
3,55,110,288
3,57,110,4
3,54,110,64
3,69,110,480
3,67,110,4
3,66,110,4
3,66,110,64
3,64,110,4
3,62,110,4
3,61,110,4
3,59,110,4
3,59,110,64
3,59,110,64
3,61,110,4
3,62,110,4
3,59,110,4
3,59,110,4
3,55,110,96
3,57,110,64
3,59,110,64
4,59,110,0
4,61,110,4
4,62,110,4
4,54,110,64
4,59,110,0
4,62,110,0
4,59,110,64
4,54,110,4
4,59,110,0
4,61,110,0
4,62,110,4
4,64,110,4
4,56,110,64
4,59,110,0
4,64,110,0
4,61,110,4
4,54,110,4
4,57,110,0
4,66,110,0
4,64,110,4
4,62,110,4
4,50,110,64
4,54,110,0
4,59,110,0
4,61,110,64
4,52,110,4
4,54,110,0
4,58,110,0
4,59,110,64
4,50,110,576
4,54,110,0
4,57,110,256
4,55,110,4
4,57,110,0
4,62,110,0
4,64,110,4
4,66,110,4
4,57,110,64
4,62,110,0
4,66,110,0
4,62,110,64
4,57,110,4
4,62,110,0
4,64,110,0
4,66,110,4
4,67,110,4
4,57,110,64
4,61,110,0
4,67,110,0
4,64,110,4
4,57,110,4
4,61,110,0
4,69,110,0
4,67,110,4
4,66,110,4
4,54,110,64
4,57,110,0
4,62,110,0
4,64,110,64
4,55,110,4
4,57,110,0
4,66,110,64
4,57,110,576
4,62,110,0
4,57,110,448
4,60,110,0
4,62,110,0
4,66,110,4
4,71,110,4
4,59,110,64
4,62,110,0
4,71,110,0
4,69,110,64
4,61,110,4
4,64,110,0
4,67,110,0
4,69,110,4
4,66,110,4
4,57,110,64
4,62,110,0
4,71,110,64
4,59,110,384
4,63,110,0
4,69,110,4
4,67,110,4
4,59,110,384
4,64,110,0
4,71,110,4
4,66,110,4
4,59,110,4
4,62,110,0
4,66,110,4
4,64,110,4
4,58,110,384
4,61,110,0
4,61,110,448
4,64,110,0
4,69,110,0
4,67,110,4
4,66,110,4
4,59,110,384
4,62,110,0
4,66,110,4
4,64,110,4
4,54,110,4
4,58,110,0
4,62,110,0
4,61,110,4
4,59,110,4
4,50,110,64
4,54,110,0
4,59,110,0
4,59,110,64
4,61,110,4
4,50,110,4
4,54,110,0
4,62,110,0
4,59,110,4
4,62,110,4
4,55,110,384
4,59,110,0
4,55,110,256
4,52,110,4
4,55,110,0
4,57,110,0
4,54,110,64
4,57,110,384
4,62,110,0
4,57,110,448
4,62,110,0
4,69,110,0
4,67,110,4
4,66,110,4
4,59,110,384
4,62,110,0
4,66,110,4
4,64,110,4
4,54,110,4
4,58,110,0
4,62,110,0
4,61,110,4
4,59,110,4
4,50,110,64
4,54,110,0
4,59,110,0
4,59,110,64
4,61,110,4
4,50,110,4
4,54,110,0
4,62,110,0
4,59,110,4
4,59,110,4
4,50,110,384
4,55,110,0
4,55,110,64
4,49,110,64
4,52,110,0
4,57,110,0
4,50,110,64
4,54,110,0
4,59,110,0
4,50,110,64
4,54,110,0
4,50,110,448
4,54,110,0
4,59,110,0
4,61,110,4
4,62,110,4
4,54,110,64
4,59,110,0
4,62,110,0
4,59,110,64
4,54,110,4
4,59,110,0
4,61,110,0
4,62,110,4
4,64,110,4
4,56,110,64
4,59,110,0
4,64,110,0
4,61,110,4
4,54,110,4
4,57,110,0
4,66,110,0
4,64,110,4
4,62,110,4
4,50,110,64
4,54,110,0
4,59,110,0
4,61,110,64
4,52,110,4
4,54,110,0
4,58,110,0
4,59,110,64
4,50,110,576
4,54,110,0
4,57,110,256
4,55,110,4
4,57,110,0
4,62,110,0
4,64,110,4
4,66,110,4
4,57,110,64
4,62,110,0
4,66,110,0
4,62,110,64
4,57,110,4
4,62,110,0
4,64,110,0
4,66,110,4
4,67,110,4
4,57,110,64
4,61,110,0
4,67,110,0
4,64,110,4
4,57,110,4
4,61,110,0
4,69,110,0
4,67,110,4
4,66,110,4
4,54,110,64
4,57,110,0
4,62,110,0
4,64,110,64
4,55,110,4
4,57,110,0
4,66,110,64
4,57,110,576
4,62,110,0
4,57,110,448
4,60,110,0
4,62,110,0
4,66,110,4
4,71,110,4
4,59,110,64
4,62,110,0
4,71,110,0
4,69,110,64
4,61,110,4
4,64,110,0
4,67,110,0
4,69,110,4
4,66,110,4
4,57,110,64
4,62,110,0
4,71,110,64
4,59,110,384
4,63,110,0
4,69,110,4
4,67,110,4
4,59,110,384
4,64,110,0
4,71,110,4
4,66,110,4
4,59,110,4
4,62,110,0
4,66,110,4
4,64,110,4
4,58,110,384
4,61,110,0
4,61,110,448
4,64,110,0
4,69,110,0
4,67,110,4
4,66,110,4
4,59,110,384
4,62,110,0
4,66,110,4
4,64,110,4
4,54,110,4
4,58,110,0
4,62,110,0
4,61,110,4
4,59,110,4
4,50,110,64
4,54,110,0
4,59,110,0
4,59,110,64
4,61,110,4
4,50,110,4
4,54,110,0
4,62,110,0
4,59,110,4
4,62,110,4
4,55,110,384
4,59,110,0
4,55,110,256
4,52,110,4
4,55,110,0
4,57,110,0
4,54,110,64
4,57,110,384
4,62,110,0
4,57,110,448
4,62,110,0
4,69,110,0
4,67,110,4
4,66,110,4
4,59,110,384
4,62,110,0
4,66,110,4
4,64,110,4
4,54,110,4
4,58,110,0
4,62,110,0
4,61,110,4
4,59,110,4
4,50,110,64
4,54,110,0
4,59,110,0
4,59,110,64
4,61,110,4
4,50,110,4
4,54,110,0
4,62,110,0
4,59,110,4
4,59,110,4
4,50,110,384
4,55,110,0
4,55,110,64
4,49,110,64
4,52,110,0
4,57,110,0
4,50,110,64
4,54,110,0
4,59,110,0
4,50,110,64
4,54,110,0
4,50,110,448
4,54,110,0
4,59,110,0
4,61,110,4
4,62,110,4
4,54,110,64
4,59,110,0
4,62,110,0
4,59,110,64
4,54,110,4
4,59,110,0
4,61,110,0
4,62,110,4
4,64,110,4
4,56,110,64
4,59,110,0
4,64,110,0
4,61,110,4
4,54,110,4
4,57,110,0
4,66,110,0
4,64,110,4
4,62,110,4
4,50,110,64
4,54,110,0
4,59,110,0
4,61,110,64
4,52,110,4
4,54,110,0
4,58,110,0
4,59,110,64
4,50,110,576
4,54,110,0
4,57,110,256
4,55,110,4
4,57,110,0
4,62,110,0
4,64,110,4
4,66,110,4
4,57,110,64
4,62,110,0
4,66,110,0
4,62,110,64
4,57,110,4
4,62,110,0
4,64,110,0
4,66,110,4
4,67,110,4
4,57,110,64
4,61,110,0
4,67,110,0
4,64,110,4
4,57,110,4
4,61,110,0
4,69,110,0
4,67,110,4
4,66,110,4
4,54,110,64
4,57,110,0
4,62,110,0
4,64,110,64
4,55,110,4
4,57,110,0
4,66,110,64
4,57,110,576
4,62,110,0
4,57,110,448
4,60,110,0
4,62,110,0
4,66,110,4
4,71,110,4
4,59,110,64
4,62,110,0
4,71,110,0
4,69,110,64
4,61,110,4
4,64,110,0
4,67,110,0
4,69,110,4
4,66,110,4
4,57,110,64
4,62,110,0
4,71,110,64
4,59,110,384
4,63,110,0
4,69,110,4
4,67,110,4
4,59,110,384
4,64,110,0
4,71,110,4
4,66,110,4
4,59,110,4
4,62,110,0
4,66,110,4
4,64,110,4
4,58,110,384
4,61,110,0
4,61,110,448
4,64,110,0
4,69,110,0
4,67,110,4
4,66,110,4
4,59,110,384
4,62,110,0
4,66,110,4
4,64,110,4
4,54,110,4
4,58,110,0
4,62,110,0
4,61,110,4
4,59,110,4
4,50,110,64
4,54,110,0
4,59,110,0
4,59,110,64
4,61,110,4
4,50,110,4
4,54,110,0
4,62,110,0
4,59,110,4
4,62,110,4
4,55,110,384
4,59,110,0
4,55,110,256
4,52,110,4
4,55,110,0
4,57,110,0
4,54,110,64
4,57,110,384
4,62,110,0
4,57,110,448
4,62,110,0
4,69,110,0
4,67,110,4
4,66,110,4
4,59,110,384
4,62,110,0
4,66,110,4
4,64,110,4
4,54,110,4
4,58,110,0
4,62,110,0
4,61,110,4
4,59,110,4
4,50,110,64
4,54,110,0
4,59,110,0
4,59,110,64
4,61,110,4
4,50,110,4
4,54,110,0
4,62,110,0
4,59,110,4
4,59,110,4
4,50,110,384
4,55,110,0
4,55,110,64
4,49,110,64
4,52,110,0
4,57,110,0
4,50,110,64
4,54,110,0
4,59,110,0
4,50,110,64
4,54,110,0
4,50,110,448
4,54,110,0
4,59,110,0
4,61,110,4
4,62,110,4
4,54,110,64
4,59,110,0
4,62,110,0
4,59,110,64
4,54,110,4
4,59,110,0
4,61,110,0
4,62,110,4
4,64,110,4
4,56,110,64
4,59,110,0
4,64,110,0
4,61,110,4
4,54,110,4
4,57,110,0
4,66,110,0
4,64,110,4
4,62,110,4
4,50,110,64
4,54,110,0
4,59,110,0
4,61,110,64
4,52,110,4
4,54,110,0
4,58,110,0
4,59,110,64
4,50,110,576
4,54,110,0
4,57,110,256
4,55,110,4
4,57,110,0
4,62,110,0
4,64,110,4
4,66,110,4
4,57,110,64
4,62,110,0
4,66,110,0
4,62,110,64
4,57,110,4
4,62,110,0
4,64,110,0
4,66,110,4
4,67,110,4
4,57,110,64
4,61,110,0
4,67,110,0
4,64,110,4
4,57,110,4
4,61,110,0
4,69,110,0
4,67,110,4
4,66,110,4
4,54,110,64
4,57,110,0
4,62,110,0
4,64,110,64
4,55,110,4
4,57,110,0
4,66,110,64
4,57,110,576
4,62,110,0
4,57,110,448
4,60,110,0
4,62,110,0
4,66,110,4
4,71,110,4
4,59,110,64
4,62,110,0
4,71,110,0
4,69,110,64
4,61,110,4
4,64,110,0
