track,note,velocity,time
1,65,50,2408
1,51,60,0
1,63,54,4
1,67,53,0
1,58,48,0
1,70,57,0
1,79,67,4
1,81,72,244
1,84,78,0
1,82,69,380
1,81,66,0
1,82,67,260
1,62,52,52
1,60,46,0
1,58,48,0
1,65,52,0
1,53,50,8
1,46,42,0
1,77,69,0
1,89,72,544
1,84,65,0
1,86,66,0
1,60,61,12
1,65,59,0
1,57,60,0
1,45,59,0
1,72,72,0
1,74,54,144
1,72,53,48
1,62,59,20
1,58,54,0
1,55,57,0
1,43,56,0
1,70,66,0
1,79,70,136
1,81,72,0
1,84,72,12
1,82,69,0
1,81,69,252
1,82,70,244
1,77,61,4
1,65,52,28
1,60,50,0
1,57,51,0
1,50,48,0
1,89,72,0
1,84,62,96
1,89,65,0
1,86,57,124
1,63,64,52
1,55,69,0
1,58,63,0
1,79,81,4
1,57,63,0
1,81,67,4
1,55,63,8
1,79,72,0
1,57,54,60
1,53,63,0
1,65,47,0
1,60,46,0
1,77,74,0
1,57,67,312
1,48,59,0
1,41,55,0
1,58,57,36
1,55,50,0
1,51,58,0
1,70,69,0
1,67,64,4
1,72,60,76
1,69,61,0
1,70,60,16
1,67,61,0
1,57,49,16
1,60,45,0
1,53,54,0
1,65,61,0
1,69,69,0
1,29,63,280
1,41,58,0
1,29,64,212
1,41,54,0
1,62,48,0
1,58,43,0
1,53,39,0
1,46,44,0
1,74,70,0
1,65,61,16
1,65,58,40
1,75,70,152
1,57,40,32
1,53,39,4
1,60,45,0
1,48,41,0
1,75,70,0
1,69,72,244
1,70,74,28
1,72,70,0
1,65,51,28
1,53,45,0
1,58,46,0
1,50,51,4
1,72,65,0
1,70,66,20
1,53,53,276
1,58,60,128
1,65,65,124
1,60,65,32
1,53,52,0
1,45,65,0
1,57,68,32
1,81,55,32
1,62,59,20
1,58,55,0
1,43,50,0
1,53,14,0
1,55,9,0
1,82,74,4
1,74,72,8
1,74,72,40
1,55,53,12
1,82,72,0
1,58,46,20
1,62,53,0
1,82,63,0
1,81,63,252
1,41,59,8
1,81,70,120
1,58,51,16
1,39,46,0
1,51,51,0
1,55,46,0
1,79,72,0
1,77,66,108
1,79,63,36
1,53,56,232
1,55,63,132
1,58,62,56
1,51,62,8
1,70,72,0
1,39,51,8
1,62,67,0
1,60,62,96
1,69,65,0
1,58,60,36
1,67,65,0
1,58,51,16
1,65,54,0
1,41,42,4
1,53,41,0
1,62,45,0
1,77,66,0
1,77,74,36
1,62,56,236
1,41,54,0
1,58,45,0
1,82,72,4
1,53,55,4
1,57,43,0
1,60,49,0
1,82,64,4
1,75,69,48
1,77,61,48
1,79,66,44
1,81,61,40
1,55,53,12
1,58,51,0
1,51,58,0
1,39,50,4
1,82,70,0
1,75,70,160
1,75,58,28
1,55,45,132
1,65,68,128
1,58,63,0
1,63,65,136
1,55,62,0
1,58,65,0
1,53,56,12
1,50,49,0
1,65,56,0
1,38,47,0
1,58,54,4
1,36,50,176
1,63,51,0
1,55,49,0
1,58,49,0
1,75,72,0
1,67,70,4
1,67,62,28
1,75,72,252
1,65,53,44
1,53,44,0
1,38,49,0
1,58,41,4
1,75,73,0
1,74,67,20
1,77,75,12
1,65,67,44
1,55,60,0
1,51,60,0
1,58,56,0
1,39,52,4
1,74,70,20
1,41,54,20
1,57,62,0
1,55,63,0
1,53,60,0
1,60,57,0
1,72,68,0
1,48,50,0
1,53,71,20
1,57,67,8
1,51,72,44
1,54,65,0
1,61,58,0
1,39,60,0
1,58,55,0
1,76,70,196
1,57,62,44
1,60,60,0
1,65,62,0
1,53,65,0
1,41,65,0
1,77,75,4
1,75,78,36
1,53,52,4
1,46,52,0
1,34,52,0
1,62,57,4
1,58,52,0
1,74,79,0
1,65,69,4
1,65,63,36
1,62,58,128
1,53,53,0
1,58,57,0
1,75,72,4
1,60,52,8
1,36,50,0
1,57,54,0
1,53,47,0
1,48,46,0
1,75,69,4
1,69,74,36
1,60,56,28
1,57,56,0
1,53,51,0
1,69,74,0
1,70,74,20
1,72,72,116
1,65,57,20
1,38,52,0
1,50,52,0
1,53,46,0
1,58,47,0
1,72,69,4
1,74,70,56
1,70,72,16
1,53,62,104
1,65,59,0
1,58,57,0
1,38,55,232
1,58,60,68
1,50,60,0
1,53,53,0
1,60,78,224
1,65,68,0
1,62,59,116
1,58,75,52
1,65,60,4
1,38,65,108
1,74,64,52
1,58,52,36
1,62,56,0
1,53,56,0
1,43,59,0
1,82,81,0
1,74,78,84
1,58,65,24
1,62,68,0
1,53,65,0
1,74,70,0
1,43,67,16
1,82,75,0
1,57,58,16
1,41,56,0
1,60,54,0
1,53,56,0
1,82,66,0
1,81,66,0
1,57,65,248
1,53,59,0
1,62,59,0
1,84,78,68
1,41,57,0
1,81,75,36
1,55,65,4
1,58,63,0
1,39,60,0
1,79,75,4
1,46,59,4
1,77,61,20
1,58,65,48
1,51,57,0
1,55,57,0
1,79,74,0
1,53,65,20
1,65,67,0
1,50,57,0
1,38,56,4
1,58,57,0
1,77,79,0
1,53,51,164
1,65,68,68
1,65,78,60
1,58,67,124
1,58,63,60
1,53,53,36
1,58,53,48
1,62,58,0
1,53,45,0
1,41,50,0
1,77,67,96
1,62,68,56
1,58,71,0
1,53,67,0
1,77,72,0
1,82,75,56
1,41,55,44
1,60,60,40
1,53,54,8
1,57,56,0
1,82,78,0
1,75,79,0
1,55,75,124
1,60,72,0
1,57,78,8
1,53,67,8
1,41,65,0
1,75,79,0
1,55,60,8
1,53,60,8
1,58,58,0
1,39,55,0
1,51,58,0
1,82,79,0
1,58,67,128
1,53,62,0
1,55,63,0
1,75,67,212
1,75,65,20
1,55,60,108
1,58,57,0
1,39,46,0
1,65,63,8
1,53,53,0
1,38,53,0
1,50,52,0
1,58,52,8
1,74,67,120
1,79,59,0
1,55,51,40
1,63,57,0
1,36,52,0
1,58,49,0
1,48,49,4
1,75,66,0
1,67,69,8
1,63,50,48
1,58,43,0
1,55,43,0
1,67,67,0
1,75,69,0
1,58,43,8
1,53,49,0
1,65,49,0
1,38,46,0
1,50,46,0
1,77,67,0
1,77,64,24
1,63,58,12
1,51,63,0
1,67,67,4
1,55,62,0
1,39,55,0
1,58,55,0
1,79,82,28
1,53,65,12
1,41,60,0
1,55,68,0
1,58,67,4
1,65,67,0
1,77,75,0
1,48,65,136
1,53,68,128
1,65,78,76
1,58,72,0
1,55,78,0
1,53,72,96
1,58,78,32
1,55,74,0
1,41,72,0
1,48,74,12
1,74,79,8
1,62,66,0
1,75,75,28
1,63,74,0
1,55,78,12
1,60,75,0
1,58,75,0
1,53,75,0
1,77,75,0
1,65,74,0
1,41,78,32
1,65,79,8
1,77,79,0
1,53,78,20
1,62,78,0
1,58,78,0
1,46,71,0
1,34,68,4
1,41,67,56
1,86,81,0
1,87,72,44
1,58,75,116
1,53,63,0
1,46,72,0
1,89,72,4
1,53,75,60
1,65,71,0
1,62,68,0
1,34,71,8
1,58,71,0
1,89,74,0
1,62,65,0
1,74,72,0
1,63,59,4
1,75,69,0
1,58,67,132
1,53,62,0
1,46,62,0
1,65,66,0
1,77,72,0
1,34,68,8
1,77,78,0
1,65,69,0
1,75,78,4
1,63,74,0
1,55,72,48
1,58,72,0
1,46,71,0
1,86,67,36
1,87,69,60
1,55,67,64
1,34,63,0
1,89,72,0
1,46,65,28
1,63,75,0
1,55,72,0
1,58,71,0
1,87,72,0
1,72,78,8
1,60,72,0
1,34,53,8
1,74,72,0
1,62,64,0
1,46,65,88
1,75,72,0
1,55,72,108
1,58,78,48
1,63,69,0
1,75,78,0
1,63,78,12
1,54,71,0
1,58,67,4
1,46,67,0
1,34,62,0
1,78,82,4
1,66,79,0
1,78,74,44
1,66,61,0
1,75,74,0
1,46,59,44
1,54,54,0
1,63,78,0
1,54,79,4
1,58,71,0
1,34,62,0
1,75,78,52
1,78,79,0
1,66,78,0
1,46,78,12
1,77,70,0
1,65,70,0
1,74,82,4
1,54,82,32
1,63,79,8
1,58,75,0
1,75,74,0
1,72,65,0
1,77,81,32
1,65,82,0
1,74,86,4
1,34,47,16
1,53,75,40
1,46,67,0
1,58,78,0
1,62,78,0
1,46,49,32
1,53,46,56
1,62,54,0
1,58,56,4
1,53,75,56
1,65,78,0
1,58,68,0
1,34,71,4
1,63,78,32
1,54,78,0
1,42,75,8
1,30,72,0
1,58,63,0
1,60,61,4
1,63,59,0
1,48,68,0
1,36,63,4
1,72,69,0
1,74,70,12
1,62,67,12
1,58,62,0
1,46,62,8
1,34,58,0
1,74,74,0
1,53,43,48
1,65,61,0
1,65,58,40
1,58,53,108
1,62,58,0
1,53,50,8
1,46,38,0
1,34,35,0
1,74,69,0
1,60,56,28
1,57,59,0
1,45,63,0
1,75,69,0
1,53,46,124
1,69,70,8
1,57,56,40
1,60,54,0
1,69,63,0
1,70,67,60
1,45,44,116
1,53,45,0
1,72,72,0
1,62,59,28
1,58,57,0
1,43,63,0
1,74,79,0
1,55,59,140
1,72,72,28
1,62,68,0
1,58,65,0
1,41,59,0
1,70,75,0
1,67,71,20
1,40,62,0
1,60,56,4
1,55,56,0
1,82,79,0
1,48,50,24
1,55,63,84
1,60,71,120
1,67,75,132
1,81,72,88
1,79,70,8
1,62,60,20
1,53,53,0
1,58,54,0
1,41,57,4
1,77,70,0
1,89,68,48
1,65,57,0
1,62,65,4
1,58,65,0
1,94,74,4
1,70,66,0
1,53,57,204
1,41,50,0
1,89,63,68
1,65,65,0
1,60,56,8
1,39,60,0
1,57,52,0
1,89,69,4
1,65,62,0
1,53,45,28
1,87,65,0
1,63,59,0
1,86,68,8
1,62,61,0
1,65,65,80
1,57,65,0
1,53,63,20
1,39,54,0
1,87,70,0
1,63,66,4
1,55,67,0
1,58,68,0
1,51,65,4
1,39,56,0
1,94,77,0
1,70,70,0
1,55,38,96
1,87,71,8
1,63,66,0
1,55,60,28
1,63,67,0
1,58,65,0
1,87,74,4
1,55,58,124
1,51,65,0
1,39,50,0
1,79,82,0
1,41,49,8
1,48,30,36
1,53,72,0
1,55,67,0
1,58,72,0
1,79,72,4
1,55,75,20
1,58,75,0
1,63,72,0
1,82,74,0
1,70,75,0
1,41,71,40
1,53,78,0
1,55,78,0
1,63,75,0
1,58,72,0
1,82,82,4
1,70,78,0
1,63,72,56
1,55,71,0
1,58,72,0
1,53,78,0
1,41,72,0
1,70,82,4
1,82,86,0
1,53,78,8
1,58,75,0
1,46,75,0
1,62,75,0
1,34,72,4
1,70,82,0
1,82,86,0
1,34,40,12
1,53,75,104
1,62,75,0
1,58,71,0
1,46,71,0
1,63,82,148
1,54,78,0
1,46,79,0
1,34,71,4
1,58,71,0
1,34,67,24
1,54,79,220
1,46,78,0
1,58,34,0
1,74,79,20
1,62,75,0
1,65,54,0
1,50,75,4
1,38,72,0
1,60,63,56
1,72,63,0
1,48,63,0
1,36,63,0
1,65,46,0
1,70,68,28
1,58,68,4
1,46,72,0
1,34,68,0
1,53,75,32
1,65,71,8
1,41,68,0
1,55,67,0
1,58,57,0
1,79,45,328
1,89,57,128
1,82,43,0
1,62,58,16
1,58,47,0
1,46,52,0
1,86,72,0
1,53,51,0
1,77,63,0
1,77,65,40
1,58,60,132
1,62,56,152
1,53,46,0
1,87,65,48
1,60,50,28
1,48,56,0
1,57,49,0
1,87,62,4
1,53,46,96
1,81,64,40
1,65,58,28
1,57,35,0
1,81,64,0
1,82,66,112
1,53,50,20
1,84,66,76
1,58,57,8
1,38,53,0
1,84,69,0
1,53,53,112
1,82,67,12
1,58,60,132
1,65,59,0
1,53,57,220
1,62,67,164
1,65,65,56
1,53,60,0
1,60,72,0
1,53,54,0
1,45,65,0
1,53,62,88
1,82,51,132
1,58,60,24
1,62,60,4
1,43,62,0
1,94,79,0
1,55,53,76
1,86,66,0
1,58,54,24
1,62,57,8
1,86,64,0
1,55,45,4
1,94,70,0
1,82,61,0
1,67,62,40
1,58,54,8
1,94,65,0
1,82,63,0
1,55,52,12
1,81,66,0
1,93,66,0
1,62,56,20
1,41,63,0
1,58,50,0
1,55,56,96
1,93,65,28
1,81,60,0
1,51,58,32
1,39,52,0
1,55,53,0
1,58,51,8
1,91,69,0
1,79,65,0
1,77,65,0
1,89,62,0
1,55,25,8
1,79,65,0
1,91,70,0
1,58,63,76
1,63,62,0
1,39,46,0
1,55,54,0
1,70,71,60
1,62,67,0
1,51,65,0
1,39,63,40
1,69,68,40
1,60,65,0
1,51,71,68
1,58,67,132
1,67,65,0
1,65,62,20
1,53,58,0
1,58,59,0
1,41,56,0
1,53,49,96
1,77,72,0
1,62,60,20
1,58,58,0
1,77,62,0
1,53,42,260
1,82,67,0
1,60,56,0
1,41,57,0
1,57,54,0
1,82,72,0
1,53,62,0
1,75,66,0
1,55,72,56
1,60,67,0
1,57,60,128
1,77,64,0
1,53,57,72
1,79,70,0
1,41,49,16
1,81,69,0
1,58,59,16
1,39,59,0
1,55,53,0
1,82,72,0
1,55,52,64
1,75,63,116
1,58,65,60
1,75,62,4
1,51,57,212
1,55,56,4
1,63,57,204
1,58,55,0
1,58,67,32
1,65,68,0
1,50,60,4
1,38,58,0
1,53,62,60
1,63,56,20
1,36,50,0
1,48,47,0
1,58,52,4
1,55,46,0
1,87,74,0
1,75,67,0
1,67,50,32
1,79,64,0
1,79,64,8
1,67,56,0
1,55,58,108
1,63,57,120
1,58,52,0
1,36,47,0
1,87,74,8
1,75,72,0
1,65,58,36
1,53,47,0
1,50,54,0
1,38,52,4
1,58,49,0
1,87,67,0
1,75,50,0
1,53,13,12
1,86,72,0
1,74,65,0
1,77,67,0
1,89,70,0
1,58,68,12
1,51,65,0
1,55,65,0
1,39,53,0
1,86,72,4
1,74,72,0
1,57,67,8
1,55,63,0
1,53,65,0
1,41,63,0
1,60,63,0
1,84,72,4
1,72,61,0
1,48,65,104
1,53,60,32
1,55,72,40
1,57,75,128
1,60,75,28
1,41,60,0
1,61,79,48
1,51,75,0
1,54,75,0
1,58,67,0
1,39,65,0
1,73,75,4
1,66,75,124
1,54,55,84
1,70,74,0
1,41,51,12
1,75,79,0
1,76,75,88
1,100,75,0
1,48,46,0
1,101,72,0
1,60,67,0
1,57,68,0
1,65,68,0
1,53,71,0
1,77,72,0
1,57,68,28
1,75,78,4
1,99,78,0
1,62,72,28
1,98,75,0
1,53,67,0
1,58,65,0
1,46,72,0
1,34,68,0
1,74,75,4
1,65,62,20
1,89,62,0
1,65,66,12
1,89,66,0
1,53,72,116
1,62,71,0
1,58,65,0
1,34,57,20
1,99,78,0
1,75,78,0
1,53,65,20
1,99,78,0
1,57,67,4
1,60,65,0
1,48,63,0
1,36,62,0
1,75,78,0
1,69,72,48
1,93,72,0
1,60,57,52
1,93,65,0
1,57,63,4
1,53,62,0
1,69,65,0
1,70,64,156
1,94,64,0
1,36,56,36
1,53,63,20
1,70,72,0
1,94,72,0
1,53,62,128
1,65,67,0
1,58,60,0
1,38,67,28
1,84,75,0
1,65,72,20
1,58,63,0
1,53,65,0
1,50,63,4
1,86,67,0
1,82,69,0
1,60,67,160
1,65,65,0
1,60,72,76
1,65,67,0
1,62,86,76
1,65,78,0
1,38,65,8
1,58,72,36
1,62,68,0
1,31,67,0
1,43,68,0
1,82,81,4
1,74,78,0
1,74,81,8
1,70,63,0
1,55,65,40
1,58,63,0
1,62,71,0
1,74,72,0
1,70,64,0
1,31,58,60
1,74,81,0
1,82,74,0
1,53,75,36
1,62,62,0
1,41,68,0
1,57,65,0
1,74,79,4
1,82,72,0
1,81,74,40
1,72,72,0
1,62,72,88
1,57,72,0
1,77,72,56
1,84,75,4
1,41,65,84
1,81,64,0
1,72,63,4
1,55,68,24
1,58,75,0
1,51,68,0
1,39,59,0
1,70,63,0
1,79,74,0
1,46,63,16
1,51,63,64
1,58,68,0
1,55,65,0
1,79,75,0
1,70,65,0
1,53,67,24
1,65,72,0
1,38,65,0
1,58,63,0
1,50,68,0
1,77,81,0
1,70,78,4
1,50,71,180
