track,note,velocity,time
3,60,107,176
3,68,91,4
3,63,105,0
3,63,102,328
3,68,99,0
3,60,99,4
3,60,112,332
3,63,114,0
3,68,102,4
3,63,112,316
3,68,107,4
3,60,116,0
3,63,92,328
3,60,93,0
3,68,100,4
3,68,100,328
3,63,102,0
3,60,91,4
3,60,102,336
3,63,102,4
3,68,99,0
3,63,107,332
3,68,105,0
3,60,109,0
3,60,98,8
3,63,105,0
3,68,107,4
3,63,102,44
3,68,95,0
3,60,92,4
3,61,88,124
3,70,114,188
3,63,114,4
3,61,99,56
3,63,113,4
3,70,89,4
3,60,113,96
3,63,112,48
3,60,84,4
3,68,100,0
3,63,112,308
3,60,84,0
3,68,86,0
3,61,100,136
3,61,116,128
3,70,120,0
3,63,121,0
3,63,112,72
3,70,107,0
3,61,86,4
3,68,116,124
3,63,112,368
3,60,99,4
3,70,105,32
3,61,72,392
3,63,88,0
3,67,98,8
3,72,123,84
3,72,112,52
3,63,102,4
3,68,123,8
3,72,113,68
3,68,116,0
3,64,119,4
3,70,120,96
3,65,70,208
3,61,100,172
3,67,112,36
3,63,112,4
3,68,112,80
3,60,93,348
3,63,102,4
3,63,99,124
3,60,95,4
3,68,102,4
3,68,109,320
3,63,95,0
3,60,112,0
3,61,99,60
3,65,107,0
3,70,112,28
3,70,114,232
3,65,119,4
3,61,106,8
3,58,81,12
3,61,100,292
3,58,92,12
3,70,100,8
3,65,113,4
3,60,107,68
3,72,113,8
3,69,109,4
3,65,89,0
3,72,99,320
3,65,95,0
3,69,100,4
3,63,127,324
3,65,109,200
3,72,109,188
3,60,70,4
3,63,84,0
3,65,93,4
3,69,116,0
3,72,123,0
3,69,120,16
3,65,105,4
3,70,89,36
3,70,107,40
3,61,109,4
3,65,86,4
3,70,99,308
3,65,89,0
3,61,91,4
3,61,102,320
3,70,99,4
3,65,113,4
3,73,107,0
3,70,98,36
3,61,85,4
3,65,106,4
3,69,93,128
3,65,93,4
3,60,84,0
3,63,89,0
3,65,116,60
3,65,127,80
3,70,127,24
3,70,127,136
3,68,127,0
3,65,116,8
3,63,127,120
3,61,127,0
3,60,127,8
3,70,107,904
3,70,102,40
3,61,81,0
3,65,119,4
3,70,95,300
3,65,112,4
3,61,79,0
3,61,86,308
3,70,88,0
3,65,119,4
3,61,84,324
3,70,86,4
3,65,102,0
3,63,116,124
3,63,105,64
3,61,92,0
3,67,119,4
3,63,105,68
3,67,79,0
3,61,89,0
3,63,102,328
3,61,78,4
3,67,102,0
3,63,89,332
3,67,99,4
3,61,82,0
3,68,112,132
3,68,78,44
3,63,86,0
3,60,71,0
3,63,107,320
3,68,99,0
3,60,78,0
3,63,102,528
3,68,119,0
3,72,114,188
3,60,98,24
3,63,105,0
3,68,107,4
3,63,102,44
3,68,95,0
3,60,92,4
3,61,88,124
3,70,114,188
3,63,114,4
3,61,99,56
3,63,113,4
3,70,89,4
3,60,113,96
3,63,112,48
3,60,84,4
3,68,100,0
3,63,112,308
3,60,84,0
3,68,86,0
3,61,100,136
3,61,116,128
3,70,120,0
3,63,121,0
3,63,112,72
3,70,107,0
3,61,86,4
3,68,116,124
3,63,112,368
3,60,99,4
3,70,105,32
3,61,72,392
3,63,88,0
3,67,98,8
3,72,123,84
3,56,95,4
3,63,105,0
3,63,77,20
3,56,102,4
3,60,113,4
3,63,78,16
3,56,100,8
3,60,86,4
3,64,127,28
3,56,123,8
3,64,112,56
3,56,100,0
3,60,112,12
3,70,120,24
3,65,70,208
3,61,100,172
3,67,112,36
3,63,112,4
3,68,112,80
3,63,102,348
3,60,93,4
3,63,99,124
3,60,95,4
3,68,102,4
3,60,112,320
3,63,95,0
3,68,109,0
3,65,107,60
3,61,99,0
3,70,112,28
3,70,114,232
3,65,119,4
3,61,106,8
3,58,81,12
3,61,100,292
3,58,92,12
3,70,100,8
3,65,113,4
3,60,107,68
3,72,113,8
3,69,109,4
3,65,89,0
3,69,100,320
3,65,95,0
3,72,99,4
3,63,127,324
3,65,109,200
3,72,109,188
3,65,93,4
3,63,84,0
3,60,70,4
3,69,116,0
3,72,123,0
3,69,120,16
3,65,105,4
3,70,89,36
3,70,107,40
3,61,109,4
3,65,86,4
3,70,99,308
3,65,89,0
3,61,91,4
3,61,102,320
3,70,99,4
3,65,113,4
3,73,107,0
3,70,98,36
3,61,85,4
3,65,106,4
3,63,89,128
3,65,93,4
3,60,84,0
3,69,93,0
3,65,116,60
3,65,127,80
3,70,127,24
3,70,127,136
3,68,127,0
3,65,116,8
3,63,127,120
3,61,127,0
3,60,127,8
3,70,107,904
3,70,102,40
3,65,119,0
3,61,81,4
3,61,79,300
3,65,112,4
3,70,95,0
3,65,119,308
3,70,88,0
3,61,86,4
3,61,84,324
3,65,102,4
3,70,86,0
3,63,116,124
3,63,105,64
3,67,119,0
3,61,92,4
3,63,105,68
3,61,89,0
3,67,79,0
3,67,102,328
3,61,78,4
3,63,102,0
3,61,82,332
3,67,99,4
3,63,89,0
3,68,112,132
3,68,78,44
3,63,86,0
3,60,71,0
3,63,107,320
3,68,99,0
3,60,78,0
3,63,102,528
3,68,119,0
3,72,114,188
3,63,105,4
3,60,98,0
3,68,107,4
3,63,102,44
3,60,92,0
3,68,95,4
3,61,88,124
3,70,114,188
3,63,114,4
3,61,99,56
3,63,113,4
3,70,89,4
3,60,113,96
3,63,112,48
3,60,84,4
3,68,100,0
3,63,112,308
3,60,84,0
3,68,86,0
3,61,100,136
3,63,121,128
3,70,120,0
3,61,116,0
3,63,112,72
3,61,86,0
3,70,107,4
3,68,116,124
3,63,112,368
3,60,99,4
3,70,105,32
3,61,72,392
3,63,88,0
3,67,98,8
3,72,123,84
3,63,105,4
3,56,95,0
3,63,77,20
3,56,102,4
3,60,113,4
3,63,78,40
3,56,100,8
3,60,86,4
3,64,127,28
3,56,123,8
3,64,112,56
3,56,100,0
3,60,112,12
3,70,120,24
3,65,70,208
3,61,100,172
3,67,112,36
3,63,112,4
3,68,112,80
3,60,93,348
3,63,102,4
3,63,99,124
3,60,95,4
3,68,102,4
3,68,109,320
3,63,95,0
3,60,112,0
3,61,99,60
3,65,107,0
3,70,112,28
3,70,114,232
3,65,119,4
3,61,106,8
3,58,81,12
3,61,100,292
3,58,92,12
3,70,100,8
3,65,113,4
3,60,107,68
3,72,113,8
3,69,109,4
3,65,89,0
3,72,99,320
3,65,95,0
3,69,100,4
3,63,127,324
3,65,109,200
3,72,109,188
3,60,70,4
3,63,84,0
3,65,93,4
3,69,116,0
3,72,123,0
3,69,120,16
3,65,105,4
3,70,89,36
3,70,107,40
3,61,109,4
3,65,86,4
3,70,99,308
3,65,89,0
3,61,91,4
3,61,102,320
3,70,99,4
3,65,113,4
3,73,107,0
3,70,98,36
3,61,85,4
3,65,106,4
3,69,93,128
3,65,93,4
3,60,84,0
3,63,89,0
3,65,116,60
3,65,127,80
3,70,127,24
3,70,127,136
3,68,127,0
3,65,116,8
3,63,127,120
3,61,127,0
3,60,127,8
3,70,107,904
3,70,102,40
3,61,81,0
3,65,119,4
3,70,95,300
3,65,112,4
3,61,79,0
3,61,86,308
3,70,88,0
3,65,119,4
3,61,84,324
3,70,86,4
3,65,102,0
3,63,116,124
3,63,105,64
3,61,92,0
3,67,119,4
3,63,105,68
3,67,79,0
3,61,89,0
3,63,102,328
3,61,78,4
3,67,102,0
3,63,89,332
3,67,99,4
3,61,82,0
3,68,112,132
3,68,78,44
3,63,86,0
3,60,71,0
3,63,107,320
3,68,99,0
3,60,78,0
3,63,102,528
3,68,119,0
3,72,114,188
3,60,98,4
3,63,105,0
3,68,107,4
3,63,102,44
3,68,95,0
3,60,92,4
3,61,88,124
3,70,114,188
3,63,114,4
3,61,99,56
3,63,113,4
3,70,89,4
3,60,113,96
3,60,98,4
3,63,105,0
3,68,107,4
3,63,102,44
3,68,95,0
3,60,92,4
3,61,88,124
3,70,114,188
3,63,114,4
3,61,99,56
3,63,113,4
3,70,89,4
3,60,113,96
3,63,112,48
3,60,84,4
3,68,100,0
3,63,112,308
3,60,84,0
3,68,86,0
3,61,100,136
3,61,116,128
3,70,120,0
3,63,121,0
3,63,112,72
3,70,107,0
3,61,86,4
3,68,116,124
3,63,112,368
3,60,99,4
3,70,105,32
3,61,72,392
3,63,88,0
3,67,98,8
3,72,123,84
3,56,95,4
3,63,105,0
3,63,77,16
3,56,102,4
3,60,113,4
3,63,78,36
3,56,100,8
3,60,86,4
3,64,127,28
3,56,123,8
3,64,112,56
3,56,100,0
3,60,112,12
3,70,120,24
3,65,70,208
3,61,100,172
3,67,112,36
3,63,112,4
3,68,112,80
3,63,102,348
3,60,93,4
3,63,99,124
3,60,95,4
3,68,102,4
3,60,112,320
3,68,109,0
3,63,95,0
3,65,107,60
3,61,99,0
3,70,112,28
3,70,114,232
3,65,119,4
3,61,106,8
3,58,81,12
3,61,100,292
3,58,92,12
3,70,100,8
3,65,113,4
3,60,107,68
3,72,113,8
3,69,109,4
3,65,89,0
3,69,100,320
3,65,95,0
3,72,99,4
3,63,127,324
3,65,109,200
3,72,109,188
3,65,93,4
3,63,84,0
3,60,70,4
3,69,116,0
3,72,123,0
3,69,120,16
3,65,105,4
3,70,89,36
3,70,107,40
3,61,109,4
3,65,86,4
3,70,99,308
3,65,89,0
3,61,91,4
3,61,102,320
3,70,99,4
3,65,113,4
3,73,107,0
3,70,98,36
3,61,85,4
3,65,106,4
3,63,89,128
3,65,93,4
3,60,84,0
3,69,93,0
3,65,116,60
3,70,105,80
3,70,114,20
3,61,100,4
3,65,116,4
3,70,109,320
3,65,112,4
3,61,77,4
3,65,114,316
3,70,105,0
3,61,93,0
3,61,107,64
3,70,113,4
3,65,116,0
3,60,127,156
3,70,107,884
3,70,102,40
3,65,119,0
3,61,81,4
3,61,79,300
3,65,112,4
3,70,95,0
3,65,119,308
3,70,88,0
3,61,86,4
3,61,84,324
3,65,102,4
3,70,86,0
3,63,116,124
3,63,105,64
3,67,119,0
3,61,92,4
3,63,105,68
3,61,89,0
3,67,79,0
3,67,102,328
3,61,78,4
3,63,102,0
3,61,82,332
3,67,99,4
3,63,89,0
3,63,105,132
3,72,109,0
3,68,102,4
3,70,107,64
3,73,102,8
3,63,100,4
3,72,99,28
3,68,95,4
3,63,113,16
4,44,127,508
4,39,121,108
4,44,121,92
4,39,119,112
4,44,119,80
4,39,113,112
4,44,119,96
4,39,127,64
4,44,127,104
4,39,119,96
4,46,127,112
4,39,121,80
4,44,121,96
4,39,111,72
4,46,127,96
4,39,127,36
4,44,127,124
4,39,127,76
4,46,127,132
4,39,125,48
4,44,127,116
4,39,121,56
4,44,127,60
4,44,113,88
4,46,127,104
4,48,127,60
4,49,127,24
4,49,127,76
4,39,127,88
4,39,127,92
4,44,125,52
4,44,125,116
4,39,121,80
4,39,127,56
4,46,127,112
4,46,127,64
4,39,127,84
4,46,127,108
4,48,125,16
4,41,121,56
4,48,127,88
4,41,127,28
4,36,127,104
4,41,121,84
4,48,119,144
4,41,127,64
4,46,127,84
4,41,121,80
4,46,127,64
4,41,127,60
4,36,127,100
4,41,127,112
4,48,125,140
4,41,112,64
4,46,113,68
4,41,127,76
4,46,127,76
4,37,115,72
4,36,127,96
4,41,121,68
4,48,125,52
4,41,87,88
4,46,120,88
4,41,125,68
4,46,119,96
4,49,125,40
4,46,127,136
4,39,125,56
4,46,127,64
4,39,121,64
4,44,127,384
4,43,127,48
4,41,125,88
4,39,125,20
4,39,119,472
4,46,127,112
4,39,121,80
4,44,121,96
4,39,111,72
4,46,127,96
4,39,127,36
4,44,127,124
4,39,127,76
4,46,127,132
4,39,125,48
4,44,127,116
4,39,121,56
4,44,127,60
4,44,113,88
4,46,127,104
4,48,127,60
4,49,127,24
4,49,127,76
4,39,127,88
4,39,127,92
4,44,125,52
4,44,125,116
4,39,121,80
4,39,127,56
4,46,127,112
4,46,127,64
4,39,127,84
4,46,127,108
4,48,125,16
4,41,121,56
4,48,127,88
4,41,127,28
4,36,127,104
4,41,121,84
4,48,119,144
4,41,127,64
4,46,127,84
4,41,121,80
4,46,127,64
4,41,127,60
4,36,127,100
4,41,127,112
4,48,125,140
4,41,112,64
4,46,113,68
4,41,127,76
4,46,127,76
4,37,115,72
4,36,127,96
4,41,121,68
4,48,125,52
4,41,87,88
4,46,120,88
4,41,125,68
4,46,119,96
4,49,125,40
4,46,127,136
4,39,125,56
4,46,127,64
4,39,121,64
4,44,127,384
4,43,127,48
4,41,125,88
4,39,125,20
4,39,119,472
4,46,127,112
4,39,121,80
4,44,121,96
4,39,111,72
4,46,127,96
4,39,127,36
4,44,127,124
4,39,127,76
4,46,127,132
4,39,125,48
4,44,127,116
4,39,121,56
4,44,127,60
4,44,113,88
4,46,127,104
4,48,127,60
4,49,127,24
4,49,127,76
4,39,127,88
4,39,127,92
4,44,125,52
4,44,125,116
4,39,121,80
4,39,127,56
4,46,127,112
4,46,127,64
4,39,127,84
4,46,127,108
4,48,125,16
4,41,121,56
4,48,127,88
4,41,127,28
4,36,127,104
4,41,121,84
4,48,119,144
4,41,127,64
4,46,127,84
4,41,121,80
4,46,127,64
4,41,127,60
4,36,127,100
4,41,127,112
4,48,125,140
4,41,112,64
4,46,113,68
4,41,127,76
4,46,127,76
4,37,115,72
4,36,127,96
4,41,121,68
4,48,125,52
4,41,87,88
4,46,120,88
4,41,125,68
4,46,119,96
4,49,125,40
4,46,127,136
4,39,125,56
4,46,127,64
4,39,121,64
4,44,127,384
4,43,127,48
4,41,125,88
4,39,125,20
4,39,119,472
4,46,127,112
4,39,121,80
4,39,119,476
4,46,127,108
4,39,121,84
4,44,121,92
4,39,111,76
4,46,127,96
4,39,127,36
4,44,127,128
4,39,127,68
4,46,127,128
4,39,125,48
4,44,127,112
4,39,121,64
4,44,127,60
4,44,113,88
4,46,127,104
4,48,127,56
4,49,127,32
4,49,127,68
4,39,127,84
4,39,127,92
4,44,125,52
4,44,125,124
4,39,121,84
4,39,127,56
4,46,127,116
4,46,127,60
4,39,127,84
4,46,127,108
4,48,125,12
4,41,121,64
4,48,127,88
4,41,127,28
4,36,127,108
4,41,121,80
4,48,119,144
4,41,127,68
4,46,127,80
4,41,121,84
4,46,127,68
4,41,127,60
4,36,127,100
4,41,127,104
4,48,125,136
4,41,112,64
4,46,113,64
4,41,127,84
4,46,127,76
4,37,115,68
4,36,127,100
4,41,121,64
4,48,125,48
4,41,87,92
4,46,120,84
4,41,125,72
4,46,119,100
4,49,125,36
4,46,127,136
4,39,125,52
4,46,127,60
4,39,121,64
4,44,127,384
4,39,127,100
4,44,127,16
5,44,62,488
5,60,80,188
5,51,61,0
5,56,86,4
5,39,64,128
5,51,62,188
5,60,71,0
5,56,71,4
5,44,70,112
5,56,71,192
5,60,76,0
5,51,58,0
5,39,64,132
5,56,68,192
5,51,61,0
5,60,67,0
5,44,70,120
5,60,83,192
5,56,73,0
5,51,56,0
5,39,62,108
5,51,61,192
5,56,66,0
5,60,76,0
5,44,66,120
5,60,82,192
5,56,65,0
5,51,57,0
5,39,68,128
5,60,88,12
5,51,65,0
5,56,59,0
5,44,81,120
5,56,72,192
5,60,60,4
5,51,51,0
5,39,77,124
5,51,66,192
5,60,73,4
5,56,75,0
5,46,80,68
5,55,82,188
5,51,61,4
5,61,75,0
5,39,75,92
5,61,73,172
5,55,73,4
5,51,56,4
5,44,68,116
5,56,77,164
5,60,68,4
5,51,52,8
5,39,78,80
5,60,83,184
5,51,66,0
5,56,71,8
5,46,70,96
5,55,62,192
5,58,61,0
5,51,63,0
5,63,68,4
5,39,81,120
5,58,61,12
5,61,77,4
5,55,66,0
5,51,63,8
5,44,86,52
5,51,56,168
5,60,68,4
5,56,77,0
5,39,81,84
5,60,80,180
5,51,65,4
5,56,72,4
5,46,68,72
5,58,62,192
5,55,66,0
5,51,54,4
5,61,66,0
5,46,64,108
5,61,64,164
5,51,55,8
5,58,59,8
5,55,41,20
5,44,62,72
5,51,71,176
