track,note,velocity,time
3,62,110,9216
3,62,110,4
3,62,110,4
3,62,110,4
3,62,110,64
3,62,110,4
3,57,110,64
3,53,110,4
3,57,110,64
3,62,110,4
3,64,110,64
3,65,110,4
3,62,110,256
3,62,110,4
3,62,110,4
3,67,110,4
3,65,110,64
3,64,110,4
3,64,110,64
3,69,110,4
3,67,110,64
3,65,110,4
3,64,110,64
3,62,110,4
3,62,110,256
3,62,110,4
3,62,110,4
3,62,110,4
3,62,110,64
3,62,110,4
3,57,110,64
3,53,110,4
3,57,110,64
3,62,110,4
3,64,110,64
3,65,110,4
3,62,110,256
3,62,110,4
3,62,110,4
3,67,110,4
3,65,110,64
3,64,110,4
3,72,110,64
3,60,110,4
3,59,110,64
3,57,110,4
3,59,110,64
3,60,110,4
3,60,110,64
3,69,110,4
3,69,110,64
3,69,110,4
3,69,110,64
3,69,110,4
3,59,110,64
3,63,110,4
3,66,110,64
3,71,110,4
3,69,110,64
3,67,110,64
3,60,110,256
3,60,110,4
3,60,110,4
3,60,110,4
3,64,110,64
3,69,110,4
3,67,110,64
3,64,110,4
3,62,110,64
3,60,110,4
3,62,110,640
3,60,110,4
3,62,110,832
3,62,110,4
3,62,110,4
3,62,110,4
3,62,110,64
3,62,110,4
3,57,110,64
3,53,110,4
3,57,110,64
3,62,110,4
3,64,110,64
3,65,110,4
3,62,110,256
3,62,110,4
3,62,110,4
3,67,110,4
3,65,110,64
3,64,110,4
3,64,110,64
3,69,110,4
3,67,110,64
3,65,110,4
3,64,110,64
3,62,110,4
3,62,110,256
3,62,110,4
3,62,110,4
3,62,110,4
3,62,110,64
3,62,110,4
3,57,110,64
3,53,110,4
3,57,110,64
3,62,110,4
3,64,110,64
3,65,110,4
3,62,110,256
3,62,110,4
3,62,110,4
3,67,110,4
3,65,110,64
3,64,110,4
3,72,110,64
3,60,110,4
3,59,110,64
3,57,110,4
3,59,110,64
3,60,110,4
3,60,110,64
3,69,110,4
3,69,110,64
3,69,110,4
3,69,110,64
3,69,110,4
3,59,110,64
3,63,110,4
3,66,110,64
3,71,110,4
3,69,110,64
3,67,110,64
3,60,110,256
3,60,110,4
3,60,110,4
3,60,110,4
3,64,110,64
3,69,110,4
3,67,110,64
3,64,110,4
3,62,110,64
3,60,110,4
3,62,110,640
3,60,110,4
3,62,110,832
3,62,110,4
3,62,110,4
3,62,110,4
3,62,110,64
3,62,110,4
3,57,110,64
3,53,110,4
3,57,110,64
3,62,110,4
3,64,110,64
3,65,110,4
3,62,110,256
3,62,110,4
3,62,110,4
3,67,110,4
3,65,110,64
3,64,110,4
3,64,110,64
3,69,110,4
3,67,110,64
3,65,110,4
3,64,110,64
3,62,110,4
3,62,110,256
3,62,110,4
3,62,110,4
3,62,110,4
3,62,110,64
3,62,110,4
3,57,110,64
3,53,110,4
3,57,110,64
3,62,110,4
3,64,110,64
3,65,110,4
3,62,110,256
3,62,110,4
3,62,110,4
3,67,110,4
3,65,110,64
3,64,110,4
3,72,110,64
3,60,110,4
3,59,110,64
3,57,110,4
3,59,110,64
3,60,110,4
3,60,110,64
3,69,110,4
3,69,110,64
3,69,110,4
3,69,110,64
3,69,110,4
3,59,110,64
3,63,110,4
3,66,110,64
3,71,110,4
3,69,110,64
3,67,110,64
3,60,110,256
3,60,110,4
3,60,110,4
3,60,110,4
3,64,110,64
3,69,110,4
3,67,110,64
3,64,110,4
3,62,110,64
3,60,110,4
3,62,110,640
3,60,110,4
3,62,110,832
3,62,110,4
3,62,110,4
3,62,110,4
3,62,110,64
3,62,110,4
3,57,110,64
3,53,110,4
3,57,110,64
3,62,110,4
3,64,110,64
3,65,110,4
3,62,110,256
3,62,110,4
3,62,110,4
3,67,110,4
3,65,110,64
3,64,110,4
3,64,110,64
3,69,110,4
3,67,110,64
3,65,110,4
3,64,110,64
3,62,110,4
3,62,110,256
3,62,110,4
3,62,110,4
3,62,110,4
3,62,110,64
3,62,110,4
3,57,110,64
3,53,110,4
3,57,110,64
3,62,110,4
3,64,110,64
3,65,110,4
3,62,110,256
3,62,110,4
3,62,110,4
3,67,110,4
3,65,110,64
3,64,110,4
3,72,110,64
3,60,110,4
3,59,110,64
3,57,110,4
3,59,110,64
3,60,110,4
3,60,110,64
3,69,110,4
3,69,110,64
3,69,110,4
3,69,110,64
3,69,110,4
3,59,110,64
3,63,110,4
3,66,110,64
3,71,110,4
3,69,110,64
3,67,110,64
3,60,110,256
3,60,110,4
3,60,110,4
3,60,110,4
3,64,110,64
3,69,110,4
3,67,110,64
3,64,110,4
3,62,110,64
3,60,110,4
3,62,110,640
3,60,110,4
3,62,110,832
3,62,110,4
3,62,110,4
3,62,110,4
3,62,110,64
3,62,110,4
3,57,110,64
3,53,110,4
3,57,110,64
3,62,110,4
3,64,110,64
3,65,110,4
3,62,110,256
3,62,110,4
3,62,110,4
3,67,110,4
3,65,110,64
3,64,110,4
3,64,110,64
3,69,110,4
3,67,110,64
3,65,110,4
3,64,110,64
3,62,110,4
3,62,110,256
3,62,110,4
3,62,110,4
3,62,110,4
3,62,110,64
3,62,110,4
3,57,110,64
3,53,110,4
3,57,110,64
3,62,110,4
3,64,110,64
3,65,110,4
3,62,110,256
3,62,110,4
3,62,110,4
3,67,110,4
3,65,110,64
3,64,110,4
3,72,110,64
3,60,110,4
3,59,110,64
3,57,110,4
3,59,110,64
3,60,110,4
3,60,110,64
3,69,110,4
3,69,110,64
3,69,110,4
3,69,110,64
3,69,110,4
3,59,110,64
3,63,110,4
3,66,110,64
3,71,110,4
3,69,110,64
3,67,110,64
3,60,110,256
3,60,110,4
3,60,110,4
3,60,110,4
3,64,110,64
3,69,110,4
3,67,110,64
3,64,110,4
3,62,110,64
3,60,110,4
3,62,110,640
3,60,110,4
3,62,110,832
3,62,110,4
3,62,110,4
3,62,110,4
3,62,110,64
3,62,110,4
3,57,110,64
3,53,110,4
3,57,110,64
3,62,110,4
3,64,110,64
3,65,110,4
3,62,110,256
3,62,110,4
3,62,110,4
3,67,110,4
3,65,110,64
3,64,110,4
3,64,110,64
3,69,110,4
3,67,110,64
3,65,110,4
3,64,110,64
3,62,110,4
3,62,110,256
3,62,110,4
3,62,110,4
3,62,110,4
3,62,110,64
3,62,110,4
3,57,110,64
3,53,110,4
3,57,110,64
3,62,110,4
3,64,110,64
3,65,110,4
3,62,110,256
3,62,110,4
3,62,110,4
3,67,110,4
3,65,110,64
3,64,110,4
3,72,110,64
3,60,110,4
3,59,110,64
3,57,110,4
3,59,110,64
3,60,110,4
3,60,110,64
3,69,110,4
3,69,110,64
3,69,110,4
3,69,110,64
3,69,110,4
3,59,110,64
3,63,110,4
3,66,110,64
3,71,110,4
3,69,110,64
3,67,110,64
3,60,110,256
3,60,110,4
3,60,110,4
3,60,110,4
3,64,110,64
3,69,110,4
3,67,110,64
3,64,110,4
3,62,110,64
3,60,110,4
3,62,110,640
3,60,110,4
3,62,110,832
3,62,110,4
3,62,110,4
3,62,110,4
3,62,110,64
3,62,110,4
3,57,110,64
3,53,110,4
3,57,110,64
3,62,110,4
3,64,110,64
3,65,110,4
3,62,110,256
3,62,110,4
3,62,110,4
3,67,110,4
3,65,110,64
3,64,110,4
3,64,110,64
3,69,110,4
3,67,110,64
3,65,110,4
3,64,110,64
3,62,110,4
3,62,110,256
3,62,110,4
3,62,110,4
3,62,110,4
3,62,110,64
3,62,110,4
3,57,110,64
3,53,110,4
3,57,110,64
3,62,110,4
3,64,110,64
3,65,110,4
3,62,110,256
3,62,110,4
3,62,110,4
3,67,110,4
3,65,110,64
3,64,110,4
3,72,110,64
3,60,110,4
3,59,110,64
3,57,110,4
3,59,110,64
3,60,110,4
3,60,110,64
3,69,110,4
3,69,110,64
3,69,110,4
3,69,110,64
3,69,110,4
3,59,110,64
3,63,110,4
3,66,110,64
3,71,110,4
3,69,110,64
3,67,110,64
3,60,110,256
3,60,110,4
3,60,110,4
3,60,110,4
3,64,110,64
3,69,110,4
3,67,110,64
3,64,110,4
3,62,110,64
3,60,110,4
3,62,110,640
3,60,110,4
3,62,110,832
3,62,110,4
3,62,110,4
3,62,110,4
3,62,110,64
3,62,110,4
3,57,110,64
3,53,110,4
3,57,110,64
3,62,110,4
3,64,110,64
3,65,110,4
3,62,110,256
3,62,110,4
3,62,110,4
3,67,110,4
3,65,110,64
3,64,110,4
3,64,110,64
3,69,110,4
3,67,110,64
3,65,110,4
3,64,110,64
3,62,110,4
3,62,110,256
3,62,110,4
3,62,110,4
3,62,110,4
3,62,110,64
3,62,110,4
3,57,110,64
3,53,110,4
3,57,110,64
3,62,110,4
3,64,110,64
3,65,110,4
3,62,110,256
3,62,110,4
3,62,110,4
3,67,110,4
3,65,110,64
3,64,110,4
3,72,110,64
3,60,110,4
3,59,110,64
3,57,110,4
3,59,110,64
3,60,110,4
3,60,110,64
3,69,110,4
3,69,110,64
3,69,110,4
3,69,110,64
3,69,110,4
3,59,110,64
3,63,110,4
3,66,110,64
3,71,110,4
3,69,110,64
3,67,110,64
3,60,110,256
3,60,110,4
3,60,110,4
3,60,110,4
3,64,110,64
3,69,110,4
3,67,110,64
3,64,110,4
3,62,110,64
3,60,110,4
3,62,110,640
3,60,110,4
3,62,110,832
3,62,110,4
3,62,110,4
3,62,110,4
3,62,110,64
3,62,110,4
3,57,110,64
3,53,110,4
3,57,110,64
3,62,110,4
3,64,110,64
3,65,110,4
3,62,110,256
3,62,110,4
3,62,110,4
3,67,110,4
3,65,110,64
3,64,110,4
3,64,110,64
3,69,110,4
3,67,110,64
3,65,110,4
3,64,110,64
3,62,110,4
3,62,110,256
3,62,110,4
3,62,110,4
3,62,110,4
3,62,110,64
3,62,110,4
3,57,110,64
3,53,110,4
3,57,110,64
3,62,110,4
3,64,110,64
3,65,110,4
3,62,110,256
3,62,110,4
3,62,110,4
3,67,110,4
3,65,110,64
3,64,110,4
3,72,110,64
3,60,110,4
3,59,110,64
3,57,110,4
3,59,110,64
3,60,110,4
3,60,110,64
3,69,110,4
3,69,110,64
3,69,110,4
3,69,110,64
3,69,110,4
3,59,110,64
3,63,110,4
3,66,110,64
3,71,110,4
3,69,110,64
3,67,110,64
3,60,110,256
3,60,110,4
3,60,110,4
3,60,110,4
3,64,110,64
3,69,110,4
3,67,110,64
3,64,110,4
3,62,110,64
3,57,110,4
3,59,110,64
3,64,110,4
3,60,110,64
3,69,110,4
3,69,110,64
3,69,110,4
3,69,110,64
3,69,110,4
3,72,110,64
3,76,110,64
3,71,110,4
3,69,110,64
3,71,110,64
3,67,110,4
3,60,110,256
3,60,110,4
3,60,110,4
3,60,110,4
3,64,110,64
3,69,110,4
3,67,110,64
3,64,110,4
3,62,110,64
3,60,110,4
3,62,110,64
3,60,110,64
4,57,127,2304
4,62,127,0
4,65,127,0
4,57,127,256
4,62,127,0
4,65,127,0
4,57,127,256
4,62,127,0
4,65,127,0
4,57,127,256
4,62,127,0
4,65,127,0
4,57,127,256
4,62,127,0
4,65,127,0
4,57,127,256
4,62,127,0
4,65,127,0
4,57,127,256
4,62,127,0
4,65,127,0
4,57,127,256
4,62,127,0
4,65,127,0
4,57,127,256
4,62,127,0
4,65,127,0
4,57,127,256
4,62,127,0
4,65,127,0
4,57,127,256
4,62,127,0
4,65,127,0
4,57,127,256
4,62,127,0
4,65,127,0
4,53,110,256
4,57,110,0
4,62,110,0
4,62,110,4
4,62,110,4
4,53,110,4
4,57,110,0
4,62,110,0
4,62,110,64
4,53,110,4
4,57,110,0
4,62,110,0
4,53,110,256
4,57,110,0
4,57,110,64
4,53,110,4
4,57,110,64
4,53,110,4
4,57,110,0
4,62,110,0
4,64,110,64
4,57,110,4
4,62,110,0
4,65,110,0
4,57,110,256
4,62,110,0
4,55,110,256
4,59,110,0
4,62,110,0
4,62,110,4
4,62,110,4
4,59,110,4
4,62,110,0
4,67,110,0
4,65,110,64
4,55,110,4
4,60,110,0
4,64,110,0
4,55,110,256
4,60,110,0
4,64,110,64
4,61,110,4
4,64,110,0
4,69,110,0
4,67,110,64
4,55,110,4
4,61,110,0
4,65,110,0
4,64,110,64
4,53,110,4
4,57,110,0
4,62,110,0
4,53,110,256
4,57,110,0
4,53,110,256
4,57,110,0
4,62,110,0
4,62,110,4
4,62,110,4
4,53,110,4
4,57,110,0
4,62,110,0
4,62,110,64
4,53,110,4
4,57,110,0
4,62,110,0
4,53,110,256
4,57,110,0
4,57,110,64
4,53,110,4
4,57,110,64
4,53,110,4
4,57,110,0
4,62,110,0
4,64,110,64
4,57,110,4
4,62,110,0
4,65,110,0
4,57,110,256
4,62,110,0
4,55,110,256
4,59,110,0
4,62,110,0
4,62,110,4
4,62,110,4
4,59,110,4
4,62,110,0
4,67,110,0
4,65,110,64
4,55,110,4
4,60,110,0
4,64,110,0
4,57,110,256
4,60,110,0
4,72,110,64
4,54,110,4
4,57,110,0
4,60,110,0
4,59,110,64
4,53,110,4
4,57,110,0
4,59,110,64
4,52,110,4
4,55,110,0
4,60,110,0
4,52,110,256
4,58,110,0
4,60,110,64
4,60,110,4
4,65,110,0
4,69,110,0
4,69,110,64
4,60,110,4
4,65,110,0
4,69,110,0
4,69,110,64
4,60,110,4
4,65,110,0
4,69,110,0
4,59,110,64
4,63,110,4
4,66,110,64
4,63,110,4
4,66,110,0
4,71,110,0
4,63,110,4
4,66,110,0
4,69,110,0
4,59,110,4
4,64,110,0
4,67,110,0
4,59,110,256
4,64,110,0
4,57,110,256
4,60,110,0
4,60,110,4
4,60,110,4
4,57,110,4
4,60,110,0
4,64,110,64
4,60,110,4
4,64,110,0
4,69,110,0
4,67,110,64
4,57,110,4
4,60,110,0
4,64,110,0
4,62,110,64
4,54,110,4
4,57,110,0
4,60,110,0
4,53,110,256
4,55,110,0
4,59,110,0
4,62,110,64
4,52,110,4
4,55,110,0
4,60,110,0
4,61,110,256
4,64,110,0
4,67,127,0
4,69,127,0
4,53,110,256
4,57,110,0
4,62,110,0
4,62,110,4
4,62,110,4
4,53,110,4
4,57,110,0
4,62,110,0
4,62,110,64
4,53,110,4
4,57,110,0
4,62,110,0
4,53,110,256
4,57,110,0
4,57,110,64
4,53,110,4
4,57,110,64
4,53,110,4
4,57,110,0
4,62,110,0
4,64,110,64
4,57,110,4
4,62,110,0
4,65,110,0
4,57,110,256
4,62,110,0
4,55,110,256
4,59,110,0
4,62,110,0
4,62,110,4
4,62,110,4
4,59,110,4
4,62,110,0
4,67,110,0
4,65,110,64
4,55,110,4
4,60,110,0
4,64,110,0
4,55,110,256
4,60,110,0
4,64,110,64
4,61,110,4
4,64,110,0
4,69,110,0
4,67,110,64
4,55,110,4
4,61,110,0
4,65,110,0
4,64,110,64
4,53,110,4
4,57,110,0
4,62,110,0
4,53,110,256
4,57,110,0
4,53,110,256
4,57,110,0
4,62,110,0
4,62,110,4
4,62,110,4
4,53,110,4
4,57,110,0
4,62,110,0
4,62,110,64
4,53,110,4
4,57,110,0
4,62,110,0
4,53,110,256
4,57,110,0
4,57,110,64
4,53,110,4
4,57,110,64
4,53,110,4
4,57,110,0
4,62,110,0
4,64,110,64
4,57,110,4
4,62,110,0
4,65,110,0
4,57,110,256
4,62,110,0
4,55,110,256
4,59,110,0
4,62,110,0
4,62,110,4
4,62,110,4
4,59,110,4
4,62,110,0
4,67,110,0
4,65,110,64
4,55,110,4
4,60,110,0
4,64,110,0
4,57,110,256
4,60,110,0
4,72,110,64
4,54,110,4
4,57,110,0
4,60,110,0
4,59,110,64
4,53,110,4
4,57,110,0
4,59,110,64
4,52,110,4
4,55,110,0
4,60,110,0
4,52,110,256
4,58,110,0
4,60,110,64
4,60,110,4
4,65,110,0
4,69,110,0
4,69,110,64
4,60,110,4
4,65,110,0
4,69,110,0
4,69,110,64
4,60,110,4
4,65,110,0
4,69,110,0
4,59,110,64
4,63,110,4
4,66,110,64
4,63,110,4
4,66,110,0
4,71,110,0
4,63,110,4
4,66,110,0
4,69,110,0
4,59,110,4
4,64,110,0
