track,note,velocity,time
3,60,1,8640
3,60,1,0
3,60,0,1
3,60,0,0
3,60,1,239
3,60,0,1
3,60,1,239
3,60,0,1
3,60,1,239
3,60,0,1
3,57,127,130
3,57,0,55
3,62,127,69
3,62,0,41
3,62,122,63
3,62,0,45
3,62,127,79
3,62,0,51
3,64,127,65
3,64,0,64
3,66,127,75
3,66,0,50
3,66,127,66
3,66,0,46
3,64,127,69
3,64,0,65
3,66,127,63
3,66,0,49
3,62,127,58
3,62,0,41
3,62,127,87
3,62,0,52
3,61,114,65
3,61,0,91
3,62,122,34
3,62,0,77
3,59,116,36
3,59,0,225
3,57,123,18
3,57,0,45
3,57,108,83
3,57,0,38
3,62,127,69
3,62,0,46
3,62,127,76
3,62,0,39
3,62,127,83
3,62,0,43
3,64,127,80
3,64,0,52
3,66,127,66
3,66,0,50
3,62,126,78
3,62,0,37
3,62,107,82
3,62,0,36
3,66,127,84
3,66,0,48
3,69,127,70
3,69,0,68
3,62,127,50
3,62,0,38
3,66,127,83
3,66,0,54
3,69,127,59
3,69,0,31
3,72,127,98
3,72,0,265
3,62,127,96
3,62,0,41
3,67,127,71
3,67,0,53
3,67,127,65
3,67,0,49
3,67,127,72
3,67,0,79
3,69,127,41
3,69,0,57
3,71,127,76
3,71,0,66
3,73,127,37
3,73,0,43
3,71,80,11
3,71,0,59
3,69,127,23
3,69,0,54
3,67,127,49
3,67,0,92
3,66,127,29
3,66,0,304
3,62,127,58
3,62,0,46
3,69,127,82
3,69,0,194
3,66,127,43
3,66,0,37
3,71,127,76
3,71,0,50
3,64,127,98
3,64,0,39
3,64,127,54
3,64,0,95
3,64,127,32
3,64,0,65
3,66,127,60
3,66,0,91
3,67,127,28
3,67,0,65
3,69,127,39
3,69,0,70
3,67,104,9
3,67,0,38
3,66,87,21
3,66,0,61
3,64,127,58
3,64,0,86
3,62,127,24
3,62,0,132
3,60,1,821
3,60,0,1
3,60,1,239
3,60,0,1
3,60,1,239
3,60,0,1
3,60,1,239
3,60,0,1
3,57,127,127
3,57,0,47
3,62,127,78
3,62,0,43
3,62,122,72
3,62,0,43
3,62,127,77
3,62,0,44
3,64,127,76
3,64,0,63
3,66,127,56
3,66,0,50
3,66,127,76
3,66,0,47
3,64,127,71
3,64,0,61
3,66,127,57
3,66,0,55
3,62,127,69
3,62,0,44
3,62,127,72
3,62,0,56
3,61,120,71
3,61,0,54
3,62,121,52
3,62,0,53
3,59,127,65
3,59,0,211
3,57,127,28
3,57,0,49
3,57,112,91
3,57,0,31
3,62,124,88
3,62,0,37
3,62,122,81
3,62,0,31
3,62,127,89
3,62,0,50
3,64,127,62
3,64,0,64
3,66,127,62
3,66,0,50
3,62,127,67
3,62,0,37
3,62,127,92
3,62,0,41
3,66,127,80
3,66,0,51
3,69,127,56
3,69,0,68
3,62,126,56
3,62,0,39
3,66,127,86
3,66,0,50
3,69,121,64
3,69,0,55
3,72,127,56
3,72,0,264
3,62,127,102
3,62,0,48
3,67,127,62
3,67,0,40
3,67,127,84
3,67,0,60
3,67,127,55
3,67,0,88
3,69,127,40
3,69,0,57
3,71,127,74
3,71,0,68
3,73,127,33
3,73,0,42
3,71,124,25
3,71,0,46
3,69,118,22
3,69,0,58
3,67,127,50
3,67,0,84
3,66,127,26
3,66,0,282
3,62,127,96
3,62,0,56
3,69,127,60
3,69,0,209
3,66,127,28
3,66,0,45
3,71,127,75
3,71,0,45
3,64,127,75
3,64,0,45
3,64,127,79
3,64,0,57
3,64,127,63
3,64,0,72
3,66,127,44
3,66,0,56
3,67,124,17
3,67,0,149
3,69,127,20
3,69,0,37
3,67,72,32
3,67,0,42
3,66,114,22
3,66,0,99
3,64,127,13
3,64,0,96
3,62,127,24
3,62,0,56
3,57,1,896
3,57,0,1
3,57,1,239
3,57,0,1
3,57,1,239
3,57,0,1
3,57,1,239
3,57,0,1
3,57,102,125
3,57,0,38
3,62,127,85
3,62,0,34
3,62,116,80
3,62,0,44
3,62,127,79
3,62,0,50
3,64,126,62
3,64,0,65
3,66,127,63
3,66,0,51
3,66,127,73
3,66,0,52
3,64,127,61
3,64,0,65
3,66,127,65
3,66,0,55
3,62,123,61
3,62,0,45
3,62,127,76
3,62,0,55
3,61,121,71
3,61,0,49
3,62,119,63
3,62,0,58
3,59,100,58
3,59,0,194
3,57,113,35
3,57,0,50
3,57,101,93
3,57,0,35
3,66,127,78
3,66,0,39
3,62,126,75
3,62,0,44
3,62,127,86
3,62,0,46
3,64,127,76
3,64,0,58
3,66,127,60
3,66,0,48
3,62,127,62
3,62,0,44
3,62,127,86
3,62,0,56
3,66,127,60
3,66,0,52
3,69,127,65
3,69,0,64
3,62,124,65
3,62,0,41
3,66,127,73
3,66,0,75
3,69,127,43
3,69,0,62
3,72,127,68
3,72,0,279
3,62,127,85
3,62,0,46
3,67,127,57
3,67,0,47
3,67,127,80
3,67,0,63
3,67,127,61
3,67,0,78
3,69,127,38
3,69,0,55
3,71,127,83
3,71,0,85
3,73,127,5
3,73,0,41
3,71,98,20
3,71,0,58
3,69,105,17
3,69,0,62
3,67,127,50
3,67,0,92
3,66,127,25
3,66,0,294
3,62,127,63
3,62,0,41
3,69,127,76
3,69,0,213
3,66,127,39
3,66,0,74
3,71,127,41
3,71,0,70
3,64,127,63
3,64,0,53
3,64,127,55
3,64,0,57
3,64,115,72
3,64,0,82
3,66,127,31
3,66,0,87
3,67,127,29
3,67,0,78
3,69,110,42
3,69,0,36
3,67,100,25
3,67,0,41
3,66,108,25
3,64,127,118
3,66,0,6
3,64,0,96
3,62,127,16
3,62,0,102
3,56,1,851
3,56,0,1
3,56,1,239
3,56,0,1
3,56,1,239
3,56,0,1
3,56,1,239
3,56,0,1
3,57,127,130
3,57,0,55
3,62,127,69
3,62,0,41
3,62,122,63
3,62,0,45
3,62,127,79
3,62,0,51
3,64,127,65
3,64,0,64
3,66,127,75
3,66,0,50
3,66,127,66
3,66,0,46
3,64,127,69
3,64,0,65
3,66,127,63
3,66,0,49
3,62,127,58
3,62,0,41
3,62,127,87
3,62,0,52
3,61,114,65
3,61,0,91
3,62,122,34
3,62,0,77
3,59,116,36
3,59,0,225
3,57,123,18
3,57,0,45
3,57,108,83
3,57,0,38
3,62,127,69
3,62,0,46
3,62,127,76
3,62,0,39
3,62,127,83
3,62,0,43
3,64,127,80
3,64,0,52
3,66,127,66
3,66,0,50
3,62,126,78
3,62,0,37
3,62,107,82
3,62,0,36
3,66,127,84
3,66,0,48
3,69,127,70
3,69,0,68
3,62,127,50
3,62,0,38
3,66,127,83
3,66,0,54
3,69,127,59
3,69,0,31
3,72,127,98
3,72,0,265
3,62,127,96
3,62,0,41
3,67,127,71
3,67,0,53
3,67,127,65
3,67,0,49
3,67,127,72
3,67,0,79
3,69,127,41
3,69,0,57
3,71,127,76
3,71,0,66
3,73,127,37
3,73,0,43
3,71,80,11
3,71,0,59
3,69,127,23
3,69,0,54
3,67,127,49
3,67,0,92
3,66,127,29
3,66,0,304
3,62,127,58
3,62,0,46
3,69,127,82
3,69,0,194
3,66,127,43
3,66,0,37
3,71,127,76
3,71,0,50
3,64,127,98
3,64,0,39
3,64,127,54
3,64,0,95
3,64,127,32
3,64,0,65
3,66,127,60
3,66,0,91
3,67,127,28
3,67,0,65
3,69,127,39
3,69,0,70
3,67,104,9
3,67,0,38
3,66,87,21
3,66,0,61
3,64,127,58
3,64,0,86
3,62,127,24
3,62,0,132
3,57,1,821
3,57,0,1
3,57,1,239
3,57,0,1
3,57,1,239
3,57,0,1
3,57,1,239
3,57,0,1
3,57,127,127
3,57,0,47
3,62,127,78
3,62,0,43
3,62,122,72
3,62,0,43
3,62,127,77
3,62,0,44
3,64,127,76
3,64,0,63
3,66,127,56
3,66,0,50
3,66,127,76
3,66,0,47
3,64,127,71
3,64,0,61
3,66,127,57
3,66,0,55
3,62,127,69
3,62,0,44
3,62,127,72
3,62,0,56
3,61,120,71
3,61,0,54
3,62,121,52
3,62,0,53
3,59,127,65
3,59,0,211
3,57,127,28
3,57,0,49
3,57,112,91
3,57,0,31
3,62,124,88
3,62,0,37
3,62,122,81
3,62,0,31
3,62,127,89
3,62,0,50
3,64,127,62
3,64,0,64
3,66,127,62
3,66,0,50
3,62,127,67
3,62,0,37
3,62,127,92
3,62,0,41
3,66,127,80
3,66,0,51
3,69,127,56
3,69,0,68
3,62,126,56
3,62,0,39
3,66,127,86
3,66,0,50
3,69,121,64
3,69,0,55
3,72,127,56
3,72,0,264
3,62,127,102
3,62,0,48
3,67,127,62
3,67,0,40
3,67,127,84
3,67,0,60
3,67,127,55
3,67,0,88
3,69,127,40
3,69,0,57
3,71,127,74
3,71,0,68
3,73,127,33
3,73,0,42
3,71,124,25
3,71,0,46
3,69,118,22
3,69,0,58
3,67,127,50
3,67,0,84
3,66,127,26
3,66,0,282
3,62,127,96
3,62,0,56
3,69,127,60
3,69,0,209
3,66,127,28
3,66,0,45
3,71,127,75
3,71,0,45
3,64,127,75
3,64,0,45
3,64,127,79
3,64,0,57
3,64,127,63
3,64,0,72
3,66,127,44
3,66,0,56
3,67,124,17
3,67,0,149
3,69,127,20
3,69,0,37
3,67,72,32
3,67,0,42
3,66,114,22
3,66,0,99
3,64,127,13
3,64,0,96
3,62,127,24
3,62,0,56
3,56,1,896
3,56,0,1
3,56,1,239
3,56,0,1
3,56,1,239
3,56,0,1
3,56,1,239
3,56,0,1
3,57,102,125
3,57,0,38
3,62,127,85
3,62,0,34
3,62,116,80
3,62,0,44
3,62,127,79
3,62,0,50
3,64,126,62
3,64,0,65
3,66,127,63
3,66,0,51
3,66,127,73
3,66,0,52
3,64,127,61
3,64,0,65
3,66,127,65
3,66,0,55
3,62,123,61
3,62,0,45
3,62,127,76
3,62,0,55
3,61,121,71
3,61,0,49
3,62,119,63
3,62,0,58
3,59,100,58
3,59,0,194
3,57,113,35
3,57,0,50
3,57,101,93
3,57,0,35
3,62,127,78
3,62,0,69
3,62,126,45
3,62,0,44
3,62,127,86
3,62,0,46
3,64,127,76
3,64,0,58
3,66,127,60
3,66,0,48
3,62,127,62
3,62,0,44
3,62,127,86
3,62,0,56
3,66,127,60
3,66,0,52
3,69,127,65
3,69,0,64
3,62,124,65
3,62,0,41
3,66,127,73
3,66,0,75
3,69,127,43
3,69,0,62
3,72,127,68
3,72,0,279
3,62,127,85
3,62,0,46
3,67,127,57
3,67,0,47
3,67,127,80
3,67,0,63
3,67,127,61
3,67,0,78
3,69,127,38
3,69,0,55
3,71,127,83
3,71,0,85
3,73,127,5
3,73,0,41
3,71,98,20
3,71,0,58
3,69,105,17
3,69,0,62
3,67,127,50
3,67,0,92
3,66,127,25
3,66,0,294
3,62,127,63
3,62,0,41
3,69,127,76
3,69,0,213
3,66,127,39
3,66,0,74
3,71,127,41
3,71,0,70
3,64,127,63
3,64,0,53
3,64,127,55
3,64,0,57
3,64,115,72
3,64,0,82
3,66,127,31
3,66,0,87
3,67,127,29
3,67,0,78
3,69,110,42
3,69,0,36
3,67,100,25
3,67,0,41
3,66,108,25
3,64,127,118
3,66,0,6
3,64,0,96
3,62,127,16
3,62,0,102
4,33,75,9318
4,33,0,149
4,38,79,6
4,38,0,138
4,45,76,102
4,45,0,150
4,50,76,90
4,50,0,161
4,45,71,79
4,45,0,151
4,38,79,89
4,38,0,134
4,38,63,66
4,45,74,40
4,38,0,4
4,45,0,58
4,45,74,18
4,45,0,69
4,45,81,51
4,45,0,40
4,38,75,0
4,38,0,140
4,38,73,60
4,45,80,40
4,38,0,10
4,45,0,36
4,45,79,34
4,45,0,44
4,38,76,0
4,38,0,78
4,38,79,38
4,38,0,134
4,38,63,66
4,45,74,40
4,38,0,4
4,45,0,58
4,45,74,18
4,45,0,69
4,45,81,51
4,45,0,40
4,38,75,0
4,38,0,140
4,38,73,60
4,45,80,40
4,38,0,10
4,45,0,36
4,45,79,34
4,45,0,44
4,38,76,0
4,38,0,78
4,50,81,38
4,50,0,38
4,50,65,42
4,50,78,40
4,50,0,10
4,50,0,41
4,45,74,69
4,45,0,56
4,38,80,64
4,38,0,87
4,38,74,33
4,38,0,37
4,38,73,43
4,38,0,40
4,45,72,0
4,45,0,62
4,42,74,58
4,42,0,93
4,38,82,27
4,38,0,78
4,43,76,42
4,43,0,144
4,38,74,96
4,38,0,161
4,43,74,79
4,43,0,140
4,33,75,65
4,33,0,234
4,50,83,41
4,50,0,177
4,45,75,23
4,45,0,53
4,45,75,67
4,38,70,40
4,45,0,7
4,38,0,113
4,47,83,0
4,47,0,177
4,42,75,23
4,42,0,53
4,42,75,67
4,35,70,40
4,42,0,7
4,35,0,113
4,40,77,0
4,40,0,213
4,47,74,27
4,47,0,200
4,33,74,40
4,33,0,37
4,33,73,43
4,33,0,40
4,40,72,0
4,40,0,62
4,37,74,58
4,37,0,93
4,33,82,27
4,33,0,78
4,38,90,42
4,38,0,116
4,39,90,124
4,39,0,116
4,40,90,124
4,40,0,116
4,33,90,209
4,33,0,149
4,38,90,6
4,38,0,116
4,39,90,124
4,39,0,116
4,40,90,124
4,40,0,116
4,33,75,209
4,33,0,149
4,38,80,6
4,38,0,194
4,45,73,46
4,45,0,200
4,38,81,40
4,38,0,197
4,45,68,43
4,45,0,194
4,38,80,46
4,38,0,194
4,45,73,46
4,45,0,200
4,38,81,40
4,38,0,197
4,45,68,43
4,45,0,194
4,38,80,46
4,38,0,169
4,45,75,71
4,45,0,151
4,50,74,89
4,50,0,183
4,45,73,57
4,45,0,76
4,38,74,44
4,38,0,64
4,50,83,56
4,50,0,177
4,45,75,23
4,45,0,53
4,45,75,67
4,38,70,40
4,45,0,7
4,38,0,113
4,38,74,0
4,38,0,174
4,38,72,26
4,42,79,40
4,38,0,35
4,42,0,120
4,43,77,85
4,43,0,213
4,50,74,27
4,50,0,200
4,43,74,40
4,43,0,140
4,33,76,65
4,33,0,80
4,33,75,75
4,33,0,87
4,38,72,33
4,38,0,147
4,38,79,93
4,38,0,131
4,47,81,109
4,47,0,38
4,47,65,42
4,45,78,40
4,47,0,10
4,45,0,41
4,42,74,69
4,42,0,56
4,35,80,64
4,35,0,87
4,40,77,33
4,40,0,213
4,47,74,27
4,47,0,200
4,45,82,40
4,45,0,37
4,45,72,43
4,43,86,40
4,45,0,12
4,43,0,50
4,42,72,58
4,42,0,78
4,40,67,42
4,40,0,71
4,38,90,49
4,38,0,116
4,39,90,124
4,39,0,116
4,40,90,124
4,40,0,116
4,33,90,209
4,33,0,149
4,38,90,6
4,38,0,116
4,39,90,124
4,39,0,116
4,40,90,124
4,40,0,116
4,33,75,209
4,33,0,149
4,38,79,6
4,38,0,134
4,38,63,66
4,45,74,40
4,38,0,4
4,45,0,58
4,45,74,18
4,45,0,69
4,45,81,51
4,45,0,40
4,38,75,0
4,38,0,140
4,38,73,60
4,45,80,40
4,38,0,10
4,45,0,36
4,45,79,34
4,45,0,44
4,38,76,0
4,38,0,78
4,38,79,38
4,38,0,134
4,38,63,66
4,45,74,40
4,38,0,4
4,45,0,58
4,45,74,18
4,45,0,69
4,45,81,51
4,45,0,40
4,38,75,0
4,38,0,140
4,38,73,60
4,45,80,40
4,38,0,10
4,45,0,36
4,45,79,34
4,45,0,44
4,38,76,0
4,38,0,78
4,50,81,38
4,50,0,140
4,50,67,60
4,45,72,40
4,50,0,10
4,45,0,132
4,45,78,58
4,45,0,41
4,38,80,0
4,38,0,139
4,38,72,60
4,38,0,37
4,45,74,3
4,45,0,77
4,45,77,43
4,45,0,62
4,50,82,58
4,50,0,37
4,50,72,43
4,50,86,40
4,50,0,12
4,50,0,50
4,47,72,58
4,47,0,78
4,45,67,42
4,45,0,71
4,38,74,49
4,38,0,37
4,38,73,43
4,38,0,40
4,45,72,0
4,45,0,62
4,42,74,58
4,42,0,93
4,38,82,27
4,38,0,78
4,43,76,42
4,43,0,144
4,38,74,96
4,38,0,161
4,43,75,79
4,43,0,201
4,33,72,4
4,33,0,67
