track,note,velocity,time
3,52,65,0
3,47,65,0
3,52,65,4
3,47,65,4
3,49,65,96
3,51,65,96
3,52,70,96
3,47,70,16
3,54,70,12
3,47,70,16
3,54,70,16
3,47,70,16
3,52,70,12
3,47,70,16
3,49,70,8
3,51,70,196
3,52,70,8
3,47,70,16
3,54,70,12
3,47,70,16
3,48,70,12
3,42,70,16
3,47,70,204
3,48,70,8
3,47,70,196
3,45,70,4
3,43,70,8
3,42,70,200
3,52,70,100
3,47,70,16
3,54,70,12
3,47,70,16
3,54,70,16
3,47,70,12
3,52,70,12
3,47,70,16
3,49,70,8
3,51,70,196
3,52,70,8
3,47,70,16
3,54,70,12
3,47,70,16
3,45,70,16
3,38,70,16
3,43,70,16
3,50,70,384
3,55,70,8
3,50,70,12
3,43,70,8
3,50,70,8
3,52,70,4
3,48,70,16
3,38,70,16
3,43,70,16
3,52,70,16
3,45,70,12
3,42,70,16
3,52,70,12
3,54,70,16
3,47,70,16
3,49,70,196
3,51,70,200
3,52,70,8
3,40,70,16
3,52,70,196
3,50,70,200
3,48,70,4
3,42,70,204
3,54,70,0
3,47,70,204
3,48,70,196
3,47,70,196
3,45,70,4
3,43,70,8
3,42,70,200
3,40,70,4
3,47,70,16
3,54,70,12
3,47,70,16
3,54,70,16
3,47,70,12
3,52,70,12
3,47,70,12
3,49,70,8
3,51,70,196
3,52,70,196
3,40,70,16
3,45,70,12
3,50,70,16
3,48,70,16
3,45,70,8
3,47,70,8
3,52,65,8
3,47,65,0
3,52,65,0
3,47,65,4
3,49,65,96
3,51,65,96
3,52,70,100
3,47,70,16
3,54,70,12
3,47,70,16
3,54,70,16
3,47,70,16
3,52,70,12
3,47,70,16
3,49,70,12
3,51,70,200
3,52,70,8
3,47,70,16
3,54,70,12
3,47,70,16
3,48,70,20
3,42,70,16
3,47,70,204
3,48,70,8
3,47,70,200
3,45,70,4
3,43,70,8
3,42,70,196
3,52,70,100
3,47,70,12
3,54,70,12
3,47,70,16
3,54,70,16
3,47,70,16
3,52,70,12
3,47,70,16
3,49,70,12
3,51,70,200
3,52,70,8
3,47,70,16
3,54,70,12
3,47,70,16
3,45,70,16
3,38,70,16
3,43,70,16
3,50,70,384
3,55,70,8
3,50,70,12
3,43,70,8
3,50,70,8
3,52,70,8
3,48,70,16
3,38,70,16
3,43,70,16
3,52,70,16
3,45,70,16
3,42,70,16
3,52,70,16
3,54,70,16
3,47,70,16
3,49,70,196
3,51,70,200
3,52,70,8
3,40,70,12
3,52,70,200
3,50,70,204
3,48,70,8
3,42,70,200
3,54,70,4
3,47,70,204
3,48,70,196
3,47,70,200
3,45,70,4
3,43,70,12
3,42,70,200
3,40,70,8
3,47,70,16
3,54,70,12
3,47,70,16
3,54,70,16
3,47,70,16
3,52,70,12
3,47,70,16
3,49,70,12
3,51,70,200
3,52,70,196
3,40,70,16
3,45,70,12
3,50,70,16
3,48,70,16
3,45,70,8
3,47,70,12
3,52,65,8
3,47,65,0
3,52,65,0
3,47,65,4
3,49,65,96
3,51,65,100
3,52,70,104
3,47,70,16
3,54,70,12
3,47,70,16
3,54,70,20
3,47,70,16
3,52,70,12
3,47,70,16
3,49,70,12
3,51,70,200
3,52,70,8
3,47,70,16
3,54,70,12
3,47,70,20
3,48,70,20
3,42,70,20
3,47,70,208
3,48,70,8
3,47,70,196
3,45,70,4
3,43,70,12
3,42,70,200
3,52,70,100
3,47,70,16
3,54,70,12
3,47,70,12
3,54,70,20
3,47,70,12
3,52,70,12
3,47,70,16
3,49,70,12
3,51,70,200
3,52,70,8
3,47,70,16
3,54,70,12
3,47,70,16
3,45,70,20
3,38,70,20
3,43,70,20
3,50,70,380
3,55,70,8
3,50,70,8
3,43,70,8
3,50,70,8
3,52,70,8
3,48,70,16
3,38,70,16
3,43,70,16
3,52,70,20
3,45,70,16
3,42,70,16
3,52,70,16
3,54,70,16
3,47,70,16
3,49,70,196
3,51,70,196
3,52,70,8
3,40,70,16
3,52,70,200
3,50,70,204
3,48,70,8
3,42,70,204
3,54,70,0
3,47,70,204
3,48,70,200
3,47,70,200
3,45,70,8
3,43,70,12
3,42,70,204
3,40,70,8
3,47,70,16
3,54,70,12
3,47,70,16
3,54,70,16
3,47,70,16
3,52,70,12
3,47,70,16
3,49,70,12
3,51,70,204
3,52,70,196
3,40,70,16
3,45,70,12
3,50,70,20
3,48,70,388
3,45,70,12
3,47,70,12
3,52,65,12
3,47,65,104
3,40,65,100
4,36,50,0
4,44,70,8
4,44,70,296
4,44,70,680
4,44,70,292
4,36,50,288
4,44,70,4
4,44,70,292
4,44,70,676
4,44,70,292
4,36,50,292
4,44,70,4
4,44,70,296
4,44,70,676
4,44,70,296
4,36,50,292
4,44,70,4
4,44,70,296
4,44,70,676
4,44,70,292
4,36,50,292
4,44,70,8
4,44,70,296
4,44,70,676
4,44,70,296
4,36,50,292
4,44,70,4
4,44,70,292
4,44,70,680
4,44,70,296
4,36,50,292
4,44,70,4
4,44,70,292
4,44,70,676
4,44,70,296
4,36,50,292
4,44,70,8
4,44,70,296
4,44,70,676
4,44,70,296
4,36,50,292
4,44,70,4
4,44,70,296
4,44,70,676
4,44,70,292
4,36,50,292
4,44,70,4
4,44,70,296
4,44,70,676
4,44,70,292
4,36,50,292
4,44,70,4
4,44,70,296
4,44,70,676
4,44,70,292
4,36,50,292
4,44,70,4
4,44,70,296
4,44,70,676
4,44,70,292
4,36,50,292
4,44,70,8
4,44,70,292
4,44,70,676
4,44,70,296
4,36,50,292
4,44,70,4
4,44,70,292
4,44,70,680
4,44,70,296
4,36,50,292
4,44,70,8
4,44,70,292
4,44,70,676
4,44,70,296
4,36,50,292
4,44,70,8
4,44,70,296
4,44,70,676
4,44,70,296
4,36,50,292
4,44,70,4
4,44,70,296
4,44,70,680
4,44,70,296
4,36,50,292
4,44,70,8
4,44,70,296
4,44,70,676
4,44,70,292
4,36,50,292
4,44,70,8
4,44,70,300
4,44,70,676
4,44,70,292
4,36,50,292
4,44,70,4
4,44,70,296
4,44,70,676
4,44,70,292
4,36,50,292
4,44,70,8
4,44,70,292
4,44,70,676
4,44,70,292
4,36,50,292
4,44,70,8
4,44,70,292
4,44,70,676
4,44,70,292
4,36,50,292
4,44,70,8
4,44,70,292
4,44,70,684
4,44,70,296
4,36,50,292
4,44,70,4
4,44,70,296
4,44,70,676
4,44,70,296
4,36,50,292
4,44,70,8
4,44,70,296
4,44,70,676
4,44,70,292
4,36,50,292
4,44,70,4
4,44,70,296
4,44,70,680
4,44,70,292
4,36,50,292
4,44,70,4
4,44,70,296
4,44,70,676
4,44,70,292
4,36,50,292
4,44,70,4
4,44,70,296
4,44,70,676
4,44,70,292
4,36,50,292
4,44,70,8
4,44,70,292
4,44,70,676
4,44,70,292
4,36,50,292
4,44,70,4
4,44,70,292
4,44,70,680
4,44,70,296
4,36,50,292
4,44,70,4
4,44,70,292
4,44,70,676
4,44,70,296
4,36,50,292
4,44,70,8
4,44,70,292
4,44,70,680
4,44,70,292
4,36,50,292
4,44,70,4
4,44,70,300
4,36,50,296
4,44,70,4
4,44,70,292
4,44,70,676
4,44,70,292
4,36,50,292
4,44,70,4
4,44,70,292
4,44,70,676
4,44,70,292
4,36,50,292
4,44,70,4
4,44,70,292
4,44,70,676
4,44,70,296
4,36,50,292
4,44,70,8
4,44,70,296
4,44,70,676
4,44,70,296
4,36,50,292
4,44,70,4
4,44,70,296
4,44,70,676
4,44,70,292
4,36,50,292
4,44,70,4
4,44,70,296
4,44,70,680
4,44,70,296
4,36,50,292
4,44,70,4
4,44,70,296
4,44,70,676
4,44,70,296
4,36,50,292
4,44,70,12
4,44,70,296
4,44,70,680
4,44,70,296
4,36,50,296
4,44,70,12
4,44,70,296
4,44,70,680
4,44,70,296
4,36,50,296
4,44,70,8
4,44,70,292
4,44,70,680
4,44,70,296
4,36,50,292
4,44,70,4
4,44,70,292
4,44,70,676
4,44,70,296
4,36,50,292
4,44,70,8
4,44,70,296
4,44,70,676
4,44,70,296
4,36,50,292
4,44,70,4
4,44,70,296
4,44,70,676
4,44,70,292
4,36,50,288
4,44,70,4
4,44,70,296
4,44,70,680
4,44,70,296
4,36,50,292
4,44,70,4
4,44,70,296
4,44,70,676
4,44,70,296
4,36,50,288
4,44,70,4
4,44,70,296
4,44,70,684
4,44,70,296
4,36,50,296
4,44,70,12
4,44,70,296
4,44,70,680
4,44,70,296
4,36,50,296
4,44,70,4
4,44,70,292
4,44,70,680
4,44,70,296
4,36,50,292
4,44,70,12
4,44,70,296
4,44,70,676
4,44,70,292
4,36,50,292
4,44,70,4
4,44,70,300
4,44,70,676
4,44,70,292
4,36,50,296
4,44,70,8
4,44,70,300
4,44,70,680
4,44,70,292
4,36,50,292
4,44,70,4
4,44,70,300
4,44,70,676
4,44,70,292
4,36,50,292
4,44,70,4
4,44,70,292
4,44,70,684
4,44,70,296
4,36,50,292
4,44,70,4
4,44,70,296
4,44,70,680
4,44,70,296
4,36,50,292
4,44,70,4
4,44,70,296
4,44,70,680
4,44,70,296
4,36,50,296
4,44,70,8
4,44,70,296
4,44,70,680
4,44,70,296
4,36,50,292
4,44,70,4
4,44,70,292
4,44,70,676
4,44,70,292
4,36,50,292
4,44,70,8
4,44,70,296
4,44,70,676
4,44,70,296
4,36,50,292
4,44,70,4
4,44,70,296
4,44,70,676
4,44,70,292
4,36,50,288
4,44,70,4
4,44,70,296
4,44,70,680
4,44,70,296
4,36,50,292
4,44,70,4
4,44,70,296
4,44,70,676
4,44,70,296
4,36,50,292
4,44,70,8
4,44,70,296
4,44,70,676
4,44,70,296
4,36,50,292
4,44,70,12
4,44,70,300
4,36,50,292
4,44,70,4
4,44,70,296
4,44,70,676
4,44,70,292
4,36,50,292
4,44,70,4
4,44,70,292
4,44,70,676
4,44,70,292
4,36,50,296
4,44,70,8
4,44,70,296
4,44,70,676
4,44,70,292
4,36,50,296
4,44,70,8
4,44,70,296
4,44,70,680
4,44,70,296
4,36,50,296
4,44,70,8
4,44,70,292
4,44,70,676
4,44,70,292
4,36,50,296
4,44,70,8
4,44,70,292
4,44,70,680
4,44,70,296
4,36,50,296
4,44,70,8
4,44,70,296
4,44,70,676
4,44,70,292
4,36,50,292
4,44,70,8
4,44,70,296
4,44,70,680
4,44,70,300
4,36,50,300
4,44,70,16
4,44,70,300
4,44,70,688
4,44,70,300
4,36,50,296
4,44,70,4
4,44,70,296
4,44,70,680
4,44,70,296
4,36,50,296
4,44,70,8
4,44,70,296
4,44,70,676
4,44,70,292
4,36,50,296
4,44,70,12
4,44,70,296
4,44,70,680
4,44,70,296
4,36,50,296
4,44,70,12
4,44,70,292
4,44,70,676
4,44,70,292
4,36,50,296
4,44,70,8
4,44,70,292
4,44,70,680
4,44,70,296
4,36,50,296
4,44,70,4
4,44,70,296
4,44,70,676
4,44,70,296
4,36,50,288
4,44,70,8
4,44,70,296
4,44,70,680
4,44,70,300
4,36,50,296
4,44,70,12
4,44,70,300
4,44,70,684
4,44,70,300
4,36,50,300
4,44,70,4
4,44,70,296
4,44,70,680
4,44,70,296
4,36,50,292
4,44,70,8
4,44,70,296
4,44,70,684
4,44,70,296
4,36,50,296
4,44,70,8
4,44,70,292
4,44,70,680
4,44,70,300
4,36,50,300
4,44,70,12
4,44,70,296
4,44,70,680
4,44,70,296
4,36,50,300
4,44,70,4
4,44,70,296
4,44,70,684
4,44,70,296
4,36,50,300
4,44,70,4
4,44,70,292
4,44,70,680
4,44,70,296
4,36,50,296
4,44,70,4
4,44,70,296
4,44,70,680
4,44,70,300
4,36,50,292
4,44,70,4
4,44,70,296
4,44,70,680
4,44,70,296
4,36,50,292
4,44,70,8
4,44,70,296
4,44,70,680
4,44,70,296
4,36,50,296
4,44,70,4
4,44,70,296
4,44,70,676
4,44,70,292
4,36,50,296
4,44,70,8
4,44,70,296
4,44,70,680
4,44,70,296
4,36,50,296
4,44,70,8
4,44,70,292
4,44,70,676
4,44,70,292
4,36,50,296
4,44,70,8
4,44,70,292
4,44,70,680
4,44,70,296
4,36,50,296
4,44,70,4
4,44,70,296
4,44,70,676
4,44,70,292
4,36,50,292
4,44,70,8
4,44,70,296
4,44,70,680
4,44,70,296
4,36,50,292
4,44,70,8
4,44,70,304
4,36,56,304
4,44,84,332
4,44,82,336
5,59,65,384
5,64,65,0
5,67,65,0
5,59,65,288
5,64,65,0
5,67,65,4
5,59,65,572
5,64,65,4
5,67,65,0
5,59,65,284
5,64,65,0
5,67,65,4
5,59,65,576
5,64,65,0
5,67,65,4
5,59,65,288
5,64,65,0
5,67,65,4
5,1,65,1052
5,59,36,484
5,64,56,0
5,67,47,0
5,59,50,292
5,64,56,0
5,67,51,0
5,59,51,576
5,64,63,0
5,67,60,4
5,59,60,292
5,64,66,0
5,67,66,0
5,59,62,580
5,63,61,0
5,66,66,0
5,59,63,284
5,63,67,4
5,66,64,0
5,59,58,576
5,63,63,0
5,66,56,4
5,59,61,288
5,63,63,0
5,66,64,4
5,59,58,576
5,63,64,0
5,66,68,0
5,59,61,284
5,63,67,4
5,66,66,0
5,59,63,576
5,63,62,0
5,66,67,4
5,59,60,292
5,63,66,0
5,66,66,0
5,59,57,576
5,64,66,0
5,67,66,0
5,59,60,288
5,64,66,0
5,67,62,0
5,59,62,576
5,64,67,0
5,67,67,4
5,59,64,288
5,64,67,0
5,67,64,4
5,59,57,572
5,64,68,4
5,67,58,0
5,59,56,292
5,64,63,0
5,67,56,0
5,59,58,576
5,64,66,4
5,67,57,0
5,59,60,288
5,64,63,4
5,67,58,0
5,59,64,580
5,63,67,0
5,66,56,0
5,59,58,292
5,63,64,0
5,66,62,0
5,59,58,576
5,63,69,0
5,66,69,4
5,59,58,284
5,63,58,4
5,66,66,0
5,57,60,580
5,60,66,0
5,64,64,0
5,57,64,292
5,60,66,0
5,64,66,0
5,57,66,484
5,60,69,0
5,64,68,0
5,57,69,288
5,60,87,0
5,64,73,0
5,59,64,480
5,63,66,0
5,66,67,4
5,59,66,288
5,63,66,0
5,66,67,4
5,59,66,480
5,63,67,4
5,66,68,0
5,59,57,288
5,63,67,4
5,66,69,0
5,59,55,484
5,64,60,0
5,67,55,0
5,59,58,292
5,64,66,0
5,67,63,0
5,59,58,576
5,64,64,0
5,67,58,4
5,59,64,292
5,64,63,0
5,67,62,0
5,59,57,580
5,63,58,0
5,66,57,0
5,59,57,284
5,63,63,4
5,66,64,0
5,59,61,576
5,63,61,0
5,66,61,4
5,59,58,288
5,63,63,0
5,66,68,4
5,59,53,580
5,63,57,0
5,66,58,0
5,59,47,284
5,63,61,4
5,66,58,0
5,59,63,576
5,63,66,0
5,66,62,4
5,59,57,292
5,63,66,0
5,66,66,0
5,59,51,580
5,64,68,0
5,67,56,0
5,59,61,288
5,64,68,0
5,67,66,0
5,59,62,576
5,64,71,0
5,67,66,4
5,59,61,288
5,64,69,0
5,67,67,4
5,59,61,576
5,64,63,4
5,67,57,0
5,59,67,292
5,64,71,0
5,67,66,0
5,59,57,576
5,64,66,4
5,67,66,0
5,59,60,288
5,64,67,4
5,67,66,0
5,59,56,580
5,63,60,0
5,66,67,0
5,59,43,292
5,63,57,0
5,66,64,0
5,59,64,576
5,63,64,4
5,66,66,0
5,59,66,284
5,63,63,4
5,66,64,0
5,60,69,576
5,64,73,0
5,69,79,0
5,60,69,292
5,64,84,0
5,69,84,0
5,60,79,480
5,62,87,0
5,66,71,0
5,69,82,0
5,60,71,284
5,62,95,4
5,66,71,0
5,69,76,0
5,62,79,476
5,67,84,0
5,71,84,4
5,62,73,288
5,67,82,0
5,71,82,4
5,62,82,484
5,67,82,4
5,71,82,0
5,62,76,288
5,67,84,4
5,71,87,0
5,62,64,484
5,64,68,0
5,68,64,0
5,71,66,0
5,62,82,192
5,64,87,0
5,68,76,0
5,71,82,0
5,60,76,480
5,64,79,0
5,69,73,4
5,60,79,188
5,64,84,4
5,69,82,0
5,60,73,488
5,66,68,0
