track,note,velocity,time
3,64,110,3456
3,64,0,142
3,63,110,2
3,63,0,46
3,64,110,2
3,64,0,160
3,60,110,32
3,60,0,336
3,64,110,48
3,64,0,142
3,63,110,2
3,63,0,46
3,64,110,2
3,64,0,160
3,67,110,32
3,67,0,336
3,72,110,48
3,72,0,126
3,74,110,2
3,74,0,126
3,72,110,2
3,72,0,126
3,64,110,2
3,64,0,336
3,64,110,48
3,64,0,126
3,65,110,2
3,65,0,126
3,67,110,2
3,67,0,126
3,62,110,2
3,62,0,336
3,69,110,48
3,69,0,142
3,71,110,2
3,71,0,46
3,72,110,2
3,72,0,160
3,74,110,32
3,74,0,336
3,67,110,48
3,67,0,126
3,69,110,2
3,69,0,126
3,71,110,2
3,71,0,126
3,72,110,2
3,72,0,336
3,64,110,144
3,64,0,94
3,65,110,2
3,65,0,94
3,69,110,2
3,69,0,94
3,67,110,2
3,67,0,160
3,65,110,32
3,65,0,160
3,64,110,32
3,64,0,160
3,63,110,32
3,63,0,94
3,64,110,2
3,64,0,432
3,64,110,48
3,64,0,142
3,63,110,2
3,63,0,46
3,64,110,2
3,64,0,160
3,60,110,32
3,60,0,336
3,64,110,48
3,64,0,142
3,63,110,2
3,63,0,46
3,64,110,2
3,64,0,160
3,67,110,32
3,67,0,336
3,72,110,48
3,72,0,126
3,74,110,2
3,74,0,126
3,72,110,2
3,72,0,126
3,64,110,2
3,64,0,336
3,64,110,48
3,64,0,126
3,65,110,2
3,65,0,126
3,67,110,2
3,67,0,126
3,62,110,2
3,62,0,336
3,69,110,48
3,69,0,142
3,71,110,2
3,71,0,46
3,72,110,2
3,72,0,160
3,74,110,32
3,74,0,336
3,67,110,48
3,67,0,126
3,69,110,2
3,69,0,126
3,71,110,2
3,71,0,126
3,72,110,2
3,72,0,336
3,64,110,144
3,64,0,94
3,65,110,2
3,65,0,94
3,69,110,2
3,69,0,94
3,67,110,2
3,67,0,160
3,65,110,32
3,65,0,160
3,64,110,32
3,64,0,160
3,62,110,32
3,62,0,160
3,60,110,32
3,60,0,528
3,60,110,48
3,60,0,142
3,61,110,2
3,61,0,46
3,62,110,2
3,62,0,142
3,65,110,2
3,65,0,46
3,62,110,2
3,62,0,94
3,65,110,2
3,65,0,336
3,62,110,48
3,62,0,46
3,61,110,2
3,61,0,46
3,60,110,2
3,60,0,142
3,64,110,2
3,64,0,46
3,60,110,2
3,60,0,94
3,64,110,2
3,64,0,336
3,60,110,48
3,60,0,46
3,61,110,2
3,61,0,46
3,62,110,2
3,62,0,142
3,65,110,2
3,65,0,46
3,62,110,2
3,62,0,94
3,65,110,2
3,65,0,336
3,59,110,48
3,59,0,94
3,60,110,2
3,60,0,478
3,60,110,98
3,60,0,142
3,61,110,2
3,61,0,46
3,62,110,2
3,62,0,142
3,65,110,2
3,65,0,46
3,62,110,2
3,62,0,94
3,65,110,2
3,65,0,336
3,62,110,48
3,62,0,46
3,61,110,2
3,61,0,46
3,60,110,2
3,60,0,142
3,64,110,2
3,64,0,46
3,60,110,2
3,60,0,94
3,64,110,2
3,64,0,336
3,60,110,48
3,60,0,46
3,61,110,2
3,61,0,46
3,62,110,2
3,62,0,142
3,65,110,2
3,65,0,46
3,69,110,2
3,69,0,94
3,65,110,2
3,65,0,336
3,59,110,48
3,59,0,94
3,60,110,2
3,60,0,336
3,64,110,48
3,64,0,142
3,62,110,2
3,62,0,46
3,64,110,2
3,64,0,160
3,60,110,32
3,60,0,336
3,64,110,48
3,64,0,142
3,63,110,2
3,63,0,46
3,64,110,2
3,64,0,160
3,67,110,32
3,67,0,336
3,72,110,48
3,72,0,126
3,74,110,2
3,74,0,126
3,72,110,2
3,72,0,126
3,64,110,2
3,64,0,336
3,64,110,48
3,64,0,126
3,65,110,2
3,65,0,126
3,67,110,2
3,67,0,126
3,62,110,2
3,62,0,336
3,69,110,48
3,69,0,142
3,71,110,2
3,71,0,46
3,72,110,2
3,72,0,160
3,74,110,32
3,74,0,336
3,67,110,48
3,67,0,126
3,69,110,2
3,69,0,126
3,71,110,2
3,71,0,126
3,72,110,2
3,72,0,336
3,64,110,144
3,64,0,94
3,65,110,2
3,65,0,94
3,69,110,2
3,69,0,94
3,67,110,2
3,67,0,160
3,65,110,32
3,65,0,160
3,64,110,32
3,64,0,160
3,63,110,32
3,63,0,94
3,64,110,2
3,64,0,432
3,64,110,48
3,64,0,142
3,63,110,2
3,63,0,46
3,64,110,2
3,64,0,160
3,60,110,32
3,60,0,336
3,64,110,48
3,64,0,142
3,63,110,2
3,63,0,46
3,64,110,2
3,64,0,160
3,67,110,32
3,67,0,336
3,72,110,48
3,72,0,126
3,74,110,2
3,74,0,126
3,72,110,2
3,72,0,126
3,64,110,2
3,64,0,336
3,64,110,48
3,64,0,126
3,65,110,2
3,65,0,126
3,67,110,2
3,67,0,126
3,62,110,2
3,62,0,336
3,69,110,48
3,69,0,142
3,71,110,2
3,71,0,46
3,72,110,2
3,72,0,160
3,74,110,32
3,74,0,336
3,67,110,48
3,67,0,126
3,69,110,2
3,69,0,126
3,71,110,2
3,71,0,126
3,72,110,2
3,72,0,336
3,64,110,144
3,64,0,94
3,65,110,2
3,65,0,94
3,69,110,2
3,69,0,94
3,67,110,2
3,67,0,160
3,65,110,32
3,65,0,160
3,64,110,32
3,64,0,160
3,62,110,32
3,62,0,160
3,60,110,32
3,60,0,528
3,60,110,48
3,60,0,142
3,61,110,2
3,61,0,46
3,62,110,2
3,62,0,142
3,65,110,2
3,65,0,46
3,62,110,2
3,62,0,94
3,65,110,2
3,65,0,336
3,62,110,48
3,62,0,46
3,61,110,2
3,61,0,46
3,60,110,2
3,60,0,142
3,64,110,2
3,64,0,46
3,60,110,2
3,60,0,94
3,64,110,2
3,64,0,336
3,60,110,48
3,60,0,46
3,61,110,2
3,61,0,46
3,62,110,2
3,62,0,142
3,65,110,2
3,65,0,46
3,62,110,2
3,62,0,94
3,65,110,2
3,65,0,336
3,59,110,48
3,59,0,94
3,60,110,2
3,60,0,478
3,60,110,98
3,60,0,142
3,61,110,2
3,61,0,46
3,62,110,2
3,62,0,142
3,65,110,2
3,65,0,46
3,62,110,2
3,62,0,94
3,65,110,2
3,65,0,336
3,62,110,48
3,62,0,46
3,61,110,2
3,61,0,46
3,60,110,2
3,60,0,142
3,64,110,2
3,64,0,46
3,60,110,2
3,60,0,94
3,64,110,2
3,64,0,336
3,60,110,48
3,60,0,46
3,61,110,2
3,61,0,46
3,62,110,2
3,62,0,142
3,65,110,2
3,65,0,46
3,69,110,2
3,69,0,94
3,65,110,2
3,65,0,336
3,59,110,48
3,59,0,94
3,60,110,2
3,60,0,336
3,64,110,48
3,64,0,142
3,62,110,2
3,62,0,46
3,64,110,2
3,64,0,160
3,60,110,32
3,60,0,336
3,64,110,48
3,64,0,142
3,63,110,2
3,63,0,46
3,64,110,2
3,64,0,160
3,67,110,32
3,67,0,336
3,72,110,48
3,72,0,126
3,74,110,2
3,74,0,126
3,72,110,2
3,72,0,126
3,64,110,2
3,64,0,336
3,64,110,48
3,64,0,126
3,65,110,2
3,65,0,126
3,67,110,2
3,67,0,126
3,62,110,2
3,62,0,336
3,69,110,48
3,69,0,142
3,71,110,2
3,71,0,46
3,72,110,2
3,72,0,160
3,74,110,32
3,74,0,336
3,67,110,48
3,67,0,126
3,69,110,2
3,69,0,126
3,71,110,2
3,71,0,126
3,72,110,2
3,72,0,336
3,64,110,144
3,64,0,94
3,65,110,2
3,65,0,94
3,69,110,2
3,69,0,94
3,67,110,2
3,67,0,160
3,65,110,32
3,65,0,160
3,64,110,32
3,64,0,160
3,63,110,32
3,63,0,94
3,64,110,2
3,64,0,432
3,64,110,48
3,64,0,142
3,63,110,2
3,63,0,46
3,64,110,2
3,64,0,160
3,60,110,32
3,60,0,336
3,64,110,48
3,64,0,142
3,63,110,2
3,63,0,46
3,64,110,2
3,64,0,160
3,67,110,32
3,67,0,336
3,72,110,48
3,72,0,126
3,74,110,2
3,74,0,126
3,72,110,2
3,72,0,126
3,64,110,2
3,64,0,336
3,64,110,48
3,64,0,126
3,65,110,2
3,65,0,126
3,67,110,2
3,67,0,126
3,62,110,2
3,62,0,336
3,69,110,48
3,69,0,142
3,71,110,2
3,71,0,46
3,72,110,2
3,72,0,160
3,74,110,32
3,74,0,336
3,67,110,48
3,67,0,126
3,69,110,2
3,69,0,126
3,71,110,2
3,71,0,126
3,72,110,2
3,72,0,336
3,64,110,144
3,64,0,94
3,65,110,2
3,65,0,94
3,69,110,2
3,69,0,94
3,67,110,2
3,67,0,160
3,65,110,32
3,65,0,160
3,64,110,32
3,64,0,160
3,62,110,32
3,62,0,160
3,60,110,32
3,60,0,528
3,60,110,48
3,60,0,142
3,61,110,2
3,61,0,46
3,62,110,2
3,62,0,142
3,65,110,2
3,65,0,46
3,62,110,2
3,62,0,94
3,65,110,2
3,65,0,336
3,62,110,48
3,62,0,46
3,61,110,2
3,61,0,46
3,60,110,2
3,60,0,142
3,64,110,2
3,64,0,46
3,60,110,2
3,60,0,94
3,64,110,2
3,64,0,336
3,60,110,48
3,60,0,46
3,61,110,2
3,61,0,46
3,62,110,2
3,62,0,142
3,65,110,2
3,65,0,46
3,62,110,2
3,62,0,94
3,65,110,2
3,65,0,336
3,59,110,48
3,59,0,94
3,60,110,2
3,60,0,478
3,60,110,98
3,60,0,142
3,61,110,2
3,61,0,46
3,62,110,2
3,62,0,142
3,65,110,2
3,65,0,46
3,62,110,2
3,62,0,94
3,65,110,2
3,65,0,336
3,62,110,48
3,62,0,46
3,61,110,2
3,61,0,46
3,60,110,2
3,60,0,142
3,64,110,2
3,64,0,46
3,60,110,2
3,60,0,94
3,64,110,2
3,64,0,336
3,60,110,48
3,60,0,46
3,61,110,2
3,61,0,46
3,62,110,2
3,62,0,142
3,65,110,2
3,65,0,46
3,69,110,2
3,69,0,94
3,65,110,2
3,65,0,336
3,59,110,48
3,59,0,94
3,60,110,2
3,60,0,528
4,52,110,576
4,55,110,0
4,60,110,0
4,52,0,142
4,55,0,0
4,60,0,0
4,52,110,2
4,55,110,0
4,61,110,0
4,52,0,46
4,55,0,0
4,61,0,0
4,53,110,2
4,57,110,0
4,62,110,0
4,53,0,94
4,57,0,0
4,62,0,0
4,57,110,2
4,60,110,0
4,65,110,0
4,57,0,94
4,60,0,0
4,65,0,0
4,53,110,2
4,57,110,0
4,62,110,0
4,53,0,94
4,57,0,0
4,62,0,0
4,57,127,2
4,60,127,0
4,65,127,0
4,57,0,94
4,60,0,0
4,65,0,0
4,57,110,2
4,60,110,0
4,65,110,0
4,57,0,160
4,60,0,0
4,65,0,0
4,53,110,32
4,57,110,0
4,62,110,0
4,53,0,142
4,57,0,0
4,62,0,0
4,51,110,2
4,54,110,0
4,59,110,0
4,51,0,46
4,54,0,0
4,59,0,0
4,52,110,2
4,55,110,0
4,60,110,0
4,52,0,94
4,55,0,0
4,60,0,0
4,55,110,2
4,60,110,0
4,64,110,0
4,55,0,94
4,60,0,0
4,64,0,0
4,52,110,2
4,55,110,0
4,60,110,0
4,52,0,94
4,55,0,0
4,60,0,0
4,55,110,2
4,60,110,0
4,64,110,0
4,55,0,256
4,60,0,0
4,64,0,0
4,48,110,320
4,53,110,0
4,57,110,0
4,48,0,94
4,53,0,0
4,57,0,0
4,53,110,2
4,57,110,0
4,60,110,0
4,53,0,94
4,57,0,0
4,60,0,0
4,57,110,2
4,60,110,0
4,64,110,0
4,57,0,94
4,60,0,0
4,64,0,0
4,60,110,2
4,64,110,0
4,67,110,0
4,60,0,94
4,64,0,0
4,67,0,0
4,57,110,2
4,60,110,0
4,64,110,0
4,57,0,94
4,60,0,0
4,64,0,0
4,53,110,2
4,57,110,0
4,60,110,0
4,53,0,62
4,57,0,0
4,60,0,0
4,48,110,2
4,53,110,0
4,57,110,0
4,48,0,62
4,53,0,0
4,57,0,0
4,45,110,2
4,48,110,0
4,53,110,0
4,45,0,62
4,48,0,0
4,53,0,0
4,41,110,2
4,44,110,0
4,47,110,0
4,52,110,0
4,41,0,336
4,44,0,0
4,47,0,0
4,52,0,0
4,43,110,432
4,48,110,192
4,52,110,0
4,48,0,160
4,52,0,0
4,48,110,224
4,52,110,0
4,48,0,160
4,52,0,0
4,48,110,224
4,52,110,0
4,48,0,160
4,52,0,0
4,48,110,224
4,52,110,0
4,43,0,144
4,48,0,16
4,52,0,0
4,44,110,32
4,48,110,192
4,52,110,0
4,48,0,160
4,52,0,0
4,48,110,224
4,52,110,0
4,44,0,144
4,48,0,16
4,52,0,0
4,45,110,32
4,48,110,192
4,50,110,0
4,53,110,0
4,48,0,160
4,50,0,0
4,53,0,0
4,48,110,224
4,50,110,0
4,53,110,0
4,45,0,144
4,48,0,16
4,50,0,0
4,53,0,0
4,48,110,224
4,50,110,0
4,53,110,0
4,48,0,160
4,50,0,0
4,53,0,0
4,50,110,224
4,53,110,0
4,50,0,160
4,53,0,0
4,48,110,224
4,52,110,0
4,48,0,160
4,52,0,0
4,48,110,224
4,52,110,0
4,48,0,160
4,52,0,0
4,45,110,32
4,50,110,192
4,53,110,0
4,45,0,144
4,50,0,16
4,53,0,0
4,47,110,32
4,50,110,192
4,53,110,0
4,47,0,144
4,50,0,16
4,53,0,0
4,48,110,32
4,52,110,0
4,48,0,160
4,52,0,0
4,43,110,608
4,48,110,192
4,52,110,0
4,48,0,160
4,52,0,0
4,48,110,224
4,52,110,0
4,48,0,160
4,52,0,0
4,52,110,224
4,55,110,0
4,52,0,160
4,55,0,0
4,48,110,224
4,52,110,0
4,43,0,144
4,48,0,16
4,52,0,0
4,43,110,32
4,48,110,192
4,52,110,0
4,48,0,160
4,52,0,0
4,48,110,224
4,52,110,0
4,43,0,144
4,48,0,16
4,52,0,0
4,45,110,32
4,48,110,192
4,50,110,0
4,53,110,0
4,48,0,160
4,50,0,0
4,53,0,0
4,48,110,224
4,50,110,0
4,53,110,0
4,45,0,144
4,48,0,16
4,50,0,0
4,53,0,0
4,45,110,32
4,48,110,192
4,50,110,0
4,53,110,0
4,48,0,160
4,50,0,0
4,53,0,0
4,48,110,224
4,50,110,0
4,53,110,0
4,45,0,144
4,48,0,16
4,50,0,0
4,53,0,0
4,43,110,32
4,48,110,192
4,52,110,0
4,48,0,160
4,52,0,0
4,48,110,224
4,52,110,0
4,43,0,144
4,48,0,16
4,52,0,0
4,45,110,32
4,50,110,192
4,53,110,0
4,45,0,144
4,50,0,16
4,53,0,0
4,47,110,32
4,50,110,192
4,53,110,0
4,47,0,144
4,50,0,16
4,53,0,0
4,48,110,32
4,52,110,0
4,48,0,160
4,52,0,0
4,48,110,416
4,48,0,142
4,49,110,2
4,49,0,46
4,53,110,2
4,57,110,0
4,62,110,0
4,53,0,142
4,57,0,0
4,62,0,0
4,53,110,2
4,57,110,0
4,65,110,0
4,53,0,46
4,57,0,0
4,65,0,0
4,53,110,2
4,57,110,0
4,62,110,0
4,53,0,94
4,57,0,0
4,62,0,0
4,57,110,2
4,60,110,0
4,65,110,0
4,57,0,336
4,60,0,0
4,65,0,0
4,62,110,48
4,62,0,46
4,61,110,2
4,61,0,46
4,52,110,2
4,55,110,0
4,57,110,0
4,60,110,0
4,52,0,142
4,55,0,0
4,57,0,0
4,60,0,0
4,55,110,2
4,57,110,0
4,60,110,0
4,64,110,0
4,55,0,46
4,57,0,0
4,60,0,0
4,64,0,0
4,52,110,2
4,55,110,0
4,57,110,0
4,60,110,0
4,52,0,94
4,55,0,0
4,57,0,0
4,60,0,0
4,55,110,2
4,57,110,0
4,60,110,0
4,64,110,0
4,55,0,336
4,57,0,0
4,60,0,0
4,64,0,0
4,60,110,48
4,60,0,46
4,61,110,2
4,61,0,46
4,53,110,2
4,57,110,0
4,60,110,0
4,62,110,0
4,53,0,142
4,57,0,0
4,60,0,0
4,62,0,0
4,57,110,2
4,60,110,0
4,62,110,0
4,65,110,0
4,57,0,46
4,60,0,0
4,62,0,0
4,65,0,0
