track,note,velocity,time
1,79,51,1528
1,79,57,54
1,79,54,56
1,79,47,68
1,76,53,6
1,71,41,18
1,74,58,14
1,72,46,12
1,78,59,656
1,78,51,58
1,78,53,64
1,78,47,60
1,74,47,194
1,69,45,18
1,71,48,16
1,71,41,58
1,71,39,60
1,71,45,64
1,71,45,78
1,76,40,10
1,79,51,10
1,78,49,10
1,76,45,8
1,81,52,294
1,81,47,32
1,76,43,10
1,79,46,6
1,78,36,194
1,74,48,6
1,78,52,94
1,76,46,2
1,76,44,70
1,76,35,48
1,79,49,8
1,76,44,4
1,74,53,6
1,67,53,14
1,74,49,4
1,72,45,14
1,72,42,42
1,72,38,44
1,71,36,14
1,71,35,36
1,69,49,2
1,69,39,52
1,69,42,40
1,71,33,12
1,72,35,1014
1,74,31,18
1,76,32,20
1,74,31,252
1,69,44,16
1,74,33,14
1,76,33,20
1,74,37,10
1,72,37,6
1,71,37,8
1,72,38,12
1,67,31,26
1,71,35,756
1,72,34,14
1,74,43,6
1,76,40,10
1,74,36,202
1,76,40,8
1,78,49,190
1,74,46,2
1,79,39,10
1,78,37,6
1,76,37,6
1,74,41,10
1,76,41,0
1,79,40,0
1,76,35,2
1,79,39,300
1,76,47,10
1,72,34,14
1,71,39,4
1,69,48,12
1,71,39,10
1,72,41,4
1,74,54,196
1,74,48,78
1,74,45,62
1,75,44,20
1,75,50,62
1,76,46,20
1,78,42,2
1,79,59,286
1,79,54,56
1,79,54,60
1,79,49,54
1,76,39,12
1,71,39,20
1,74,45,16
1,72,37,26
1,78,38,670
1,78,50,66
1,78,45,66
1,78,39,58
1,74,36,204
1,69,46,24
1,71,38,18
1,71,40,70
1,71,43,56
1,71,47,66
1,71,36,70
1,76,45,192
1,79,42,18
1,78,48,6
1,76,38,2
1,81,54,14
1,76,44,6
1,79,39,16
1,78,48,2
1,74,50,6
1,78,46,4
1,76,45,192
1,79,30,10
1,76,48,2
1,74,45,6
1,67,31,10
1,74,41,178
1,72,35,14
1,71,36,10
1,69,41,8
1,71,34,20
1,72,30,16
1,71,42,94
1,72,34,12
1,71,40,10
1,72,40,12
1,71,38,6
1,72,37,16
1,71,39,8
1,79,35,180
1,78,36,494
1,76,52,0
1,76,38,56
1,78,43,2
1,79,51,12
1,78,42,2
1,79,35,280
1,78,47,0
1,76,41,204
1,74,44,12
1,76,35,10
1,74,32,6
1,79,34,110
1,79,38,38
1,78,41,280
1,78,40,60
1,76,31,14
1,79,48,2
1,81,68,100
1,79,56,8
1,78,44,8
1,74,44,6
1,78,50,0
1,76,42,6
1,79,53,360
1,76,38,6
1,74,38,6
1,67,39,382
1,74,37,2
1,72,47,4
1,71,44,0
1,71,34,28
1,69,44,2
1,71,40,1456
1,72,37,14
1,71,38,88
1,72,33,278
1,71,34,2
1,72,35,2
1,71,40,0
1,72,39,94
1,71,37,8
1,79,39,8
1,79,37,66
1,79,40,78
1,79,39,76
1,76,28,200
1,71,28,32
1,74,33,22
1,72,30,0
1,78,36,682
1,78,34,66
1,78,37,62
1,78,36,58
1,74,36,208
1,69,35,26
1,71,33,20
1,71,39,70
1,71,41,54
1,71,39,60
1,71,45,56
1,76,36,10
1,79,34,12
1,78,38,8
1,76,40,8
1,81,42,14
1,76,38,4
1,79,39,14
1,78,33,14
1,74,38,2
1,78,47,0
1,76,45,4
1,78,40,342
1,79,39,6
1,76,38,14
1,74,36,14
1,67,37,12
1,74,46,194
1,72,52,2
1,71,51,0
1,71,34,48
1,69,28,16
1,71,35,1422
1,72,32,14
1,71,31,6
1,72,30,10
1,71,41,4
1,72,33,10
1,71,35,12
1,72,34,16
1,71,31,16
2,40,69,21492
2,40,54,260
2,40,64,26
2,40,69,62
2,40,68,106
2,33,68,96
2,33,62,254
2,33,61,22
2,33,64,58
2,33,60,92
2,38,67,92
2,38,61,254
2,38,52,22
2,38,67,60
2,38,66,106
2,31,69,4
2,31,49,228
2,31,59,36
2,30,66,20
2,40,70,214
2,40,54,240
2,40,56,26
2,40,64,68
2,40,63,106
2,33,68,0
2,33,61,226
2,33,68,28
2,38,100,282
2,38,100,208
2,38,68,8
2,31,71,6
2,36,67,2
2,36,53,176
2,36,66,28
2,36,66,56
2,36,59,114
2,31,64,4
2,31,43,230
2,31,53,28
2,31,62,46
2,31,57,122
2,36,67,6
2,36,46,216
2,36,63,48
2,31,61,96
2,29,62,2
2,41,50,1330
2,40,44,18
2,41,47,6
2,40,44,12
2,41,49,4
2,40,50,2
2,41,57,0
2,40,59,2
2,41,62,88
2,40,62,96
2,40,62,148
2,40,59,30
2,33,65,108
2,33,57,74
2,35,60,2
2,36,58,102
2,38,57,12
2,38,52,72
2,38,60,48
2,38,57,64
2,31,57,0
2,38,57,328
2,43,53,0
2,38,52,40
2,31,54,34
2,43,52,50
2,42,55,6
2,40,59,98
2,40,50,154
2,40,52,176
2,33,60,10
2,33,56,44
2,33,59,36
2,40,62,4
2,38,57,4
2,38,54,78
2,38,65,38
2,31,64,0
2,36,61,4
2,36,62,100
2,43,55,8
2,36,53,42
2,31,54,36
2,43,59,50
2,31,55,166
2,31,65,8
2,36,53,140
2,31,52,6
2,31,58,46
2,36,56,208
2,36,48,152
2,36,55,32
2,31,64,30
2,29,64,2
2,41,60,10
2,40,52,8
2,41,52,8
2,40,48,10
2,41,50,4
2,40,47,10
2,41,45,6
2,40,43,10
2,41,48,4
2,40,42,12
2,40,65,104
2,40,69,426
2,33,68,122
2,33,58,314
2,33,66,28
2,33,63,110
2,38,66,4
2,38,51,254
2,38,62,40
2,38,60,136
2,31,57,8
2,38,58,238
2,43,56,24
2,38,57,8
2,31,51,58
2,38,51,108
2,40,57,2
2,40,58,318
2,40,57,56
2,40,48,130
2,33,59,2
2,33,40,232
2,33,53,30
2,40,39,12
2,38,46,12
2,38,36,278
2,31,48,6
2,36,49,194
2,36,43,192
2,43,47,12
2,36,50,40
2,31,59,2
2,43,38,52
2,36,46,2
2,31,53,0
2,31,51,274
2,31,42,34
2,31,52,54
2,31,53,116
2,36,48,10
2,36,36,228
2,36,43,54
2,31,48,10
2,29,52,24
2,41,42,0
2,40,48,14
2,41,40,270
2,40,39,8
2,41,40,4
2,40,37,14
2,41,36,14
2,40,39,10
2,41,33,14
2,40,42,8
2,40,62,96
2,40,60,256
2,40,54,154
2,40,50,108
2,33,65,134
2,33,59,408
2,33,54,78
2,38,64,0
2,38,63,416
2,38,53,128
2,31,62,6
2,31,53,296
2,30,57,16
2,28,52,200
3,59,76,11702
3,61,69,68
3,61,67,60
3,62,77,12
3,59,86,2
4,83,48,4606
4,83,53,62
4,83,48,68
4,83,44,68
4,81,35,16
4,81,37,54
4,81,46,36
4,76,40,16
4,81,36,10
4,79,41,24
4,81,36,360
4,83,54,8
4,79,38,10
4,79,42,150
4,76,37,16
4,77,40,8
4,81,38,54
4,80,44,14
4,83,63,5350
4,81,42,10
4,79,39,14
4,78,37,18
4,79,30,12
4,78,28,2932
4,78,34,64
4,79,39,28
4,81,42,28
4,83,63,120
4,83,64,56
4,83,53,54
4,83,64,60
4,81,46,988
4,81,45,60
4,81,47,56
4,81,44,64
4,81,38,58
4,81,56,66
4,79,37,50
4,83,52,46
4,81,61,4
4,79,41,10
4,79,47,56
4,79,33,52
4,79,49,34
4,79,47,40
4,81,47,4
4,81,34,40
4,81,46,72
4,79,40,14
4,83,59,574
4,79,34,10
4,79,60,28
4,77,44,212
4,81,32,14
4,80,41,10
4,81,41,292
4,80,42,4
4,81,39,292
4,80,39,4
4,81,49,104
4,80,39,6
4,81,39,106
4,80,46,0
4,83,36,3414
4,81,39,6
4,81,45,72
4,79,28,20
4,79,34,54
4,81,50,82
4,81,38,60
4,81,49,52
4,79,41,14
4,83,49,4
4,79,26,24
4,79,41,60
4,79,53,38
4,76,45,10
4,77,45,2
4,80,37,22
4,81,43,10
4,80,38,10
4,81,39,276
4,80,39,8
4,81,39,102
4,80,38,0
4,81,41,102
4,80,43,6
4,79,40,14
4,81,50,1714
4,81,36,80
4,81,46,70
4,81,43,78
4,79,46,6
4,83,40,84
4,81,39,18
4,79,38,26
4,79,37,78
4,79,37,68
4,79,34,70
4,79,37,58
4,81,37,8
4,81,38,36
4,81,45,38
4,81,36,48
4,81,37,84
4,81,41,74
4,79,36,30
4,81,34,348
4,83,44,4
4,79,39,16
4,79,44,130
4,76,31,42
4,77,39,0
4,81,37,134
4,80,42,8
4,81,44,2
4,80,32,12
4,81,46,264
4,80,35,4
4,81,43,112
4,80,34,14
4,81,41,0
4,80,37,10
4,79,41,48
4,79,38,250
4,76,32,28
4,74,38,122
4,72,36,14
4,72,35,498
4,78,34,14
4,78,56,250
4,74,38,158
4,69,48,84
4,71,34,78
5,33,66,12288
5,40,64,0
5,42,64,74
5,40,66,68
5,42,67,0
5,42,64,68
5,33,63,8
5,42,63,0
5,40,60,20
5,42,62,48
5,40,63,68
5,42,63,0
5,42,63,70
5,33,67,72
5,42,67,0
5,42,68,72
5,40,65,66
5,42,66,0
5,42,66,74
5,33,66,14
5,42,63,0
5,40,62,18
5,42,66,48
5,40,67,64
5,42,66,0
5,42,72,68
5,33,61,22
5,42,73,0
5,42,69,88
5,40,70,14
5,42,71,0
5,42,67,70
5,33,51,22
5,42,67,0
5,40,58,26
5,42,66,48
5,40,64,68
5,42,65,0
5,42,64,74
5,33,66,74
5,42,66,0
5,42,64,70
5,40,66,68
5,42,67,0
5,42,64,68
5,33,63,8
5,42,63,0
5,40,60,20
5,42,62,48
5,40,63,68
5,42,63,0
5,42,63,70
5,33,67,72
5,42,67,0
5,42,68,72
5,40,65,66
5,42,66,0
5,42,66,74
5,33,66,14
5,42,63,0
5,40,62,18
5,42,66,48
5,40,67,64
5,42,66,0
5,42,72,68
5,33,61,22
5,42,73,0
5,42,69,88
5,40,70,14
5,42,71,0
5,42,67,70
5,33,51,22
5,42,67,0
5,40,58,26
5,42,66,48
5,40,64,68
5,42,65,0
5,42,64,74
5,33,66,74
5,42,66,0
5,42,64,70
5,40,66,68
5,42,67,0
5,42,64,68
5,33,63,8
5,42,63,0
5,40,60,20
5,42,62,48
5,40,63,68
5,42,63,0
5,42,63,70
5,33,67,72
5,42,67,0
5,42,68,72
5,40,65,66
5,42,66,0
5,42,66,74
5,33,66,14
5,42,63,0
5,40,62,18
5,42,66,48
5,40,67,64
5,42,66,0
5,42,72,68
5,33,61,22
5,42,73,0
5,42,69,88
5,40,70,14
5,42,71,0
5,42,67,70
5,33,51,22
5,42,67,0
5,40,58,26
5,42,66,48
5,40,64,68
5,42,65,0
5,42,64,74
5,33,66,74
5,42,66,0
5,42,64,70
5,40,66,68
5,42,67,0
5,42,64,68
5,33,63,8
5,42,63,0
5,40,60,20
5,42,62,48
5,40,63,68
5,42,63,0
5,42,63,70
5,33,67,72
5,42,67,0
5,42,68,72
5,40,65,66
5,42,66,0
5,42,66,74
5,33,66,14
5,42,63,0
5,40,62,18
5,42,66,48
5,40,67,64
5,42,66,0
5,42,72,68
5,33,61,22
5,42,73,0
5,42,69,88
5,40,70,14
5,42,71,0
5,42,67,70
5,33,51,22
5,42,67,0
5,40,58,26
5,42,66,48
5,40,64,68
5,42,65,0
5,42,64,74
5,33,66,74
5,42,66,0
5,42,64,22
5,40,66,68
5,42,67,0
5,42,64,68
5,33,63,8
5,42,63,0
5,40,60,20
5,42,62,48
5,40,63,68
5,42,63,0
5,42,63,70
5,33,67,72
5,42,67,0
5,42,68,72
5,40,65,66
5,42,66,0
5,42,66,74
5,33,66,14
5,42,63,0
5,40,62,18
5,42,66,48
5,40,67,64
5,42,66,0
5,42,72,68
5,33,61,22
5,42,73,0
5,42,69,88
5,40,70,14
5,42,71,0
5,42,67,70
5,33,51,22
5,42,67,0
5,40,58,26
5,42,66,48
5,40,64,68
5,42,65,0
5,42,64,74
5,33,66,74
5,42,66,0
5,42,64,70
5,40,66,68
5,42,67,0
5,42,64,68
5,33,63,8
5,42,63,0
5,40,60,20
5,42,62,48
5,40,63,68
5,42,63,0
5,42,63,70
5,33,67,72
5,42,67,0
5,42,68,10
5,40,65,66
5,42,66,0
5,42,66,74
5,33,66,14
5,42,63,0
5,40,62,18
5,42,66,48
5,40,67,64
5,42,66,0
5,42,72,68
5,33,61,22
5,42,73,0
5,42,69,88
5,40,70,14
5,42,71,0
5,42,67,70
5,33,51,22
5,42,67,0
5,40,58,26
5,42,66,48
5,40,64,68
5,42,65,0
5,42,64,74
5,33,66,74
5,42,66,0
5,42,64,70
5,40,66,68
5,42,67,0
5,42,64,68
5,33,63,8
5,42,63,0
5,40,60,20
5,42,62,48
5,40,63,68
5,42,63,0
5,42,63,70
5,33,67,72
5,42,67,0
5,42,68,72
5,40,65,66
5,42,66,0
5,42,66,74
5,33,66,14
5,42,63,0
5,40,62,18
5,42,66,48
5,40,67,64
5,42,66,0
5,42,72,68
5,33,61,22
5,42,73,0
5,42,69,88
5,40,70,14
5,42,71,0
5,42,67,70
5,33,51,22
5,42,67,0
5,40,58,26
5,42,66,48
5,40,64,68
5,42,65,0
5,42,64,74
5,33,66,74
5,42,66,0
5,42,64,70
5,40,66,68
5,42,67,0
5,42,64,68
5,33,63,8
5,42,63,0
5,40,60,20
5,42,62,48
5,40,63,68
5,42,63,0
5,42,63,70
5,33,67,72
5,42,67,0
5,42,68,72
5,40,65,66
5,42,66,0
5,42,66,74
5,33,66,14
5,42,63,0
5,40,62,18
5,42,66,48
5,40,67,64
5,42,66,0
5,42,72,68
5,33,61,22
5,42,73,0
5,42,69,88
5,40,70,14
5,42,71,0
5,42,67,70
5,33,51,22
5,42,67,0
5,40,58,26
5,42,66,48
5,40,64,68
5,42,65,0
5,42,64,74
5,33,66,74
5,42,66,0
5,42,64,70
5,40,66,68
5,42,67,0
5,42,64,12
5,33,63,8
5,42,63,0
5,40,60,20
5,42,62,48
5,40,63,68
5,42,63,0
5,42,63,70
5,33,67,72
5,42,67,0
5,42,68,10
5,40,65,66
5,42,66,0
5,42,66,74
5,33,66,14
5,42,63,0
5,40,62,18
5,42,66,48
5,40,67,64
5,42,66,0
5,42,72,68
5,33,61,22
5,42,73,0
5,42,69,88
5,40,70,14
5,42,71,0
5,42,67,70
5,33,51,22
5,42,67,0
5,40,58,26
5,42,66,48
5,40,64,68
5,42,65,0
5,42,64,74
5,33,66,74
5,42,66,0
5,42,64,70
5,40,66,68
5,42,67,0
5,42,64,68
5,33,63,8
5,42,63,0
5,40,60,20
5,42,62,48
5,40,63,68
5,42,63,0
5,42,63,70
5,33,67,72
5,42,67,0
5,42,68,72
5,40,65,66
5,42,66,0
5,42,66,74
5,33,66,14
5,42,63,0
5,40,62,18
5,42,66,48
5,40,67,64
5,42,66,0
5,42,72,68
5,33,61,22
5,42,73,0
5,42,69,88
5,40,70,14
5,42,71,0
5,42,67,70
5,33,51,22
5,42,67,0
5,40,58,26
5,42,66,48
5,40,64,68
5,42,65,0
5,42,64,74
5,33,66,74
5,42,66,0
5,42,64,70
5,40,66,50
5,42,67,0
5,42,64,68
5,33,63,8
5,42,63,0
5,40,60,20
5,42,62,48
5,40,63,68
5,42,63,0
5,42,63,70
5,33,67,72
5,42,67,0
5,42,68,72
5,40,65,66
5,42,66,0
5,42,66,74
5,33,66,14
5,42,63,0
5,40,62,18
5,42,66,48
5,40,67,64
5,42,66,0
5,42,72,68
5,33,61,22
5,42,73,0
5,42,69,88
5,40,70,14
5,42,71,0
5,42,67,70
5,33,51,22
5,42,67,0
5,40,58,26
5,42,66,48
5,40,64,68
5,42,65,0
5,42,64,74
5,33,66,74
5,42,66,0
5,42,64,70
5,40,66,68
5,42,67,0
5,42,64,68
5,33,63,8
5,42,63,0
5,40,60,20
5,42,62,48
5,40,63,68
5,42,63,0
5,42,63,70
5,33,67,72
5,42,67,0
5,42,68,72
5,40,65,66
5,42,66,0
5,42,66,74
5,33,66,14
5,42,63,0
5,40,62,18
5,42,66,48
5,40,67,64
5,42,66,0
5,42,72,68
5,33,61,22
