track,note,velocity,time
3,62,100,6144
3,59,100,0
3,62,100,0
3,66,100,0
3,60,100,0
3,57,100,0
3,57,100,0
3,57,100,0
3,62,100,384
3,59,100,0
3,62,100,0
3,66,100,0
3,60,100,0
3,59,100,0
3,57,100,0
3,59,100,0
3,62,100,384
3,59,100,0
3,62,100,0
3,66,100,0
3,60,100,0
3,57,100,0
3,57,100,0
3,57,100,0
3,62,100,384
3,59,100,0
3,62,100,0
3,66,100,0
3,60,100,0
3,59,100,0
3,57,100,0
3,59,100,0
3,64,100,384
3,66,100,0
3,67,100,0
3,69,100,0
3,66,100,0
3,66,100,0
3,64,100,0
3,62,100,0
3,60,100,0
3,62,100,0
3,64,100,0
3,66,100,0
3,62,100,0
3,60,100,0
3,59,100,0
3,62,100,2304
3,59,100,0
3,62,100,0
3,66,100,0
3,60,100,0
3,57,100,0
3,57,100,0
3,57,100,0
3,62,100,384
3,59,100,0
3,62,100,0
3,66,100,0
3,60,100,0
3,59,100,0
3,57,100,0
3,59,100,0
3,62,100,384
3,59,100,0
3,62,100,0
3,66,100,0
3,60,100,0
3,57,100,0
3,57,100,0
3,57,100,0
3,62,100,384
3,59,100,0
3,62,100,0
3,66,100,0
3,60,100,0
3,59,100,0
3,57,100,0
3,59,100,0
3,64,100,384
3,66,100,0
3,67,100,0
3,69,100,0
3,66,100,0
3,66,100,0
3,64,100,0
3,62,100,0
3,60,100,0
3,62,100,0
3,64,100,0
3,66,100,0
3,62,100,0
3,60,100,0
3,59,100,0
3,62,100,2304
3,59,100,0
3,62,100,0
3,66,100,0
3,60,100,0
3,57,100,0
3,57,100,0
3,57,100,0
3,62,100,384
3,59,100,0
3,62,100,0
3,66,100,0
3,60,100,0
3,59,100,0
3,57,100,0
3,59,100,0
3,62,100,384
3,59,100,0
3,62,100,0
3,66,100,0
3,60,100,0
3,57,100,0
3,57,100,0
3,57,100,0
3,62,100,384
3,59,100,0
3,62,100,0
3,66,100,0
3,60,100,0
3,59,100,0
3,57,100,0
3,59,100,0
3,64,100,384
3,66,100,0
3,67,100,0
3,69,100,0
3,66,100,0
3,66,100,0
3,64,100,0
3,62,100,0
3,60,100,0
3,62,100,0
3,64,100,0
3,66,100,0
3,62,100,0
3,60,100,0
3,59,100,0
3,62,100,2304
3,59,100,0
3,62,100,0
3,66,100,0
3,60,100,0
3,57,100,0
3,57,100,0
3,57,100,0
3,62,100,384
3,59,100,0
3,62,100,0
3,66,100,0
3,60,100,0
3,59,100,0
3,57,100,0
3,59,100,0
3,62,100,384
3,59,100,0
3,62,100,0
3,66,100,0
3,60,100,0
3,57,100,0
3,57,100,0
3,57,100,0
3,62,100,384
3,59,100,0
3,62,100,0
3,66,100,0
3,60,100,0
3,59,100,0
3,57,100,0
3,59,100,0
3,64,100,384
3,66,100,0
3,67,100,0
3,69,100,0
3,66,100,0
3,66,100,0
3,64,100,0
3,62,100,0
3,60,100,0
3,62,100,0
3,64,100,0
3,66,100,0
3,62,100,0
3,60,100,0
3,59,100,0
3,62,100,2304
3,59,100,0
3,62,100,0
3,66,100,0
3,60,100,0
3,57,100,0
3,57,100,0
3,57,100,0
3,62,100,384
3,59,100,0
3,62,100,0
3,66,100,0
3,60,100,0
3,59,100,0
3,57,100,0
3,59,100,0
3,62,100,384
3,59,100,0
3,62,100,0
3,66,100,0
3,60,100,0
3,57,100,0
3,57,100,0
3,57,100,0
3,62,100,384
3,59,100,0
3,62,100,0
3,66,100,0
3,60,100,0
3,59,100,0
3,57,100,0
3,59,100,0
3,64,100,384
3,66,100,0
3,67,100,0
3,69,100,0
3,66,100,0
3,66,100,0
3,64,100,0
3,62,100,0
3,60,100,0
3,62,100,0
3,64,100,0
3,66,100,0
3,62,100,0
3,60,100,0
3,59,100,0
3,62,100,2304
3,59,100,0
3,62,100,0
3,66,100,0
3,60,100,0
3,57,100,0
3,57,100,0
3,57,100,0
3,62,100,384
3,59,100,0
3,62,100,0
3,66,100,0
3,60,100,0
3,59,100,0
3,57,100,0
3,59,100,0
3,62,100,384
3,59,100,0
3,62,100,0
3,66,100,0
3,60,100,0
3,57,100,0
3,57,100,0
3,57,100,0
3,62,100,384
3,59,100,0
3,62,100,0
3,66,100,0
3,60,100,0
3,59,100,0
3,57,100,0
3,59,100,0
3,64,100,384
3,66,100,0
3,67,100,0
3,69,100,0
3,66,100,0
3,66,100,0
3,64,100,0
3,62,100,0
3,60,100,0
3,62,100,0
3,64,100,0
3,66,100,0
3,62,100,0
3,60,100,0
3,59,100,0
3,62,100,2304
3,59,100,0
3,62,100,0
3,66,100,0
3,60,100,0
3,57,100,0
3,57,100,0
3,57,100,0
3,62,100,384
3,59,100,0
3,62,100,0
3,66,100,0
3,60,100,0
3,59,100,0
3,57,100,0
3,59,100,0
3,62,100,384
3,59,100,0
3,62,100,0
3,66,100,0
3,60,100,0
3,57,100,0
3,57,100,0
3,57,100,0
3,62,100,384
3,59,100,0
3,62,100,0
3,66,100,0
3,60,100,0
3,59,100,0
3,57,100,0
3,59,100,0
3,64,100,384
3,66,100,0
3,67,100,0
3,69,100,0
3,66,100,0
3,66,100,0
3,64,100,0
3,62,100,0
3,60,100,0
3,62,100,0
3,64,100,0
3,66,100,0
3,62,100,0
3,60,100,0
3,59,100,0
3,62,100,2304
3,59,100,0
3,62,100,0
3,66,100,0
3,60,100,0
3,57,100,0
3,57,100,0
3,57,100,0
3,62,100,384
3,59,100,0
3,62,100,0
3,66,100,0
3,60,100,0
3,59,100,0
3,57,100,0
3,59,100,0
3,62,100,384
3,59,100,0
3,62,100,0
3,66,100,0
3,60,100,0
3,57,100,0
3,57,100,0
3,57,100,0
3,62,100,384
3,59,100,0
3,62,100,0
3,66,100,0
3,60,100,0
3,59,100,0
3,57,100,0
3,59,100,0
3,64,100,384
3,66,100,0
3,67,100,0
3,69,100,0
3,66,100,0
3,66,100,0
3,64,100,0
3,62,100,0
3,60,100,0
3,62,100,0
3,64,100,0
3,66,100,0
3,62,100,0
3,60,100,0
3,59,100,0
3,62,100,2304
3,59,100,0
3,62,100,0
3,66,100,0
3,60,100,0
3,57,100,0
3,57,100,0
3,57,100,0
3,62,100,384
3,59,100,0
3,62,100,0
3,66,100,0
3,60,100,0
3,59,100,0
3,57,100,0
3,59,100,0
3,62,100,384
3,59,100,0
3,62,100,0
3,66,100,0
3,60,100,0
3,57,100,0
3,57,100,0
3,57,100,0
3,62,100,384
3,59,100,0
3,62,100,0
3,66,100,0
3,60,100,0
3,59,100,0
3,57,100,0
3,59,100,0
3,64,100,384
3,66,100,0
3,67,100,0
3,69,100,0
3,66,100,0
3,66,100,0
3,64,100,0
3,62,100,0
3,60,100,0
3,62,100,0
3,64,100,0
3,66,100,0
3,62,100,0
3,60,100,0
3,59,100,0
4,59,100,384
4,62,100,0
4,66,100,0
4,59,100,384
4,62,100,0
4,66,100,0
4,59,100,384
4,62,100,0
4,66,100,0
4,59,100,384
4,62,100,0
4,66,100,0
4,59,100,384
4,62,100,0
4,66,100,0
4,59,100,384
4,62,100,0
4,66,100,0
4,59,100,384
4,62,100,0
4,66,100,0
4,59,100,384
4,62,100,0
4,66,100,0
4,62,100,0
4,59,100,0
4,62,100,0
4,66,100,0
4,60,100,0
4,57,100,0
4,57,100,0
4,57,100,0
4,62,100,384
4,59,100,0
4,62,100,0
4,66,100,0
4,60,100,0
4,54,100,0
4,59,100,0
4,57,100,0
4,59,100,0
4,62,100,384
4,59,100,0
4,62,100,0
4,66,100,0
4,60,100,0
4,57,100,0
4,57,100,0
4,57,100,0
4,62,100,384
4,59,100,0
4,62,100,0
4,66,100,0
4,60,100,0
4,54,100,0
4,59,100,0
4,57,100,0
4,59,100,0
4,64,100,384
4,55,100,384
4,59,100,0
4,66,100,0
4,67,100,0
4,60,100,0
4,64,100,0
4,69,100,0
4,66,100,0
4,57,100,0
4,62,100,0
4,66,100,0
4,64,100,0
4,62,100,0
4,54,100,0
4,60,100,0
4,62,100,0
4,64,100,0
4,66,100,0
4,62,100,0
4,60,100,0
4,59,100,0
4,62,100,768
4,59,100,0
4,62,100,0
4,66,100,0
4,60,100,0
4,57,100,0
4,57,100,0
4,57,100,0
4,62,100,384
4,59,100,0
4,62,100,0
4,66,100,0
4,60,100,0
4,54,100,0
4,59,100,0
4,57,100,0
4,59,100,0
4,62,100,384
4,59,100,0
4,62,100,0
4,66,100,0
4,60,100,0
4,57,100,0
4,57,100,0
4,57,100,0
4,62,100,384
4,59,100,0
4,62,100,0
4,66,100,0
4,60,100,0
4,54,100,0
4,59,100,0
4,57,100,0
4,59,100,0
4,64,100,384
4,55,100,384
4,59,100,0
4,66,100,0
4,67,100,0
4,60,100,0
4,64,100,0
4,69,100,0
4,66,100,0
4,57,100,0
4,62,100,0
4,66,100,0
4,64,100,0
4,62,100,0
4,54,100,0
4,60,100,0
4,62,100,0
4,64,100,0
4,66,100,0
4,62,100,0
4,60,100,0
4,59,100,0
4,62,100,768
4,59,100,0
4,62,100,0
4,66,100,0
4,60,100,0
4,57,100,0
4,57,100,0
4,57,100,0
4,62,100,384
4,59,100,0
4,62,100,0
4,66,100,0
4,60,100,0
4,54,100,0
4,59,100,0
4,57,100,0
4,59,100,0
4,62,100,384
4,59,100,0
4,62,100,0
4,66,100,0
4,60,100,0
4,57,100,0
4,57,100,0
4,57,100,0
4,62,100,384
4,59,100,0
4,62,100,0
4,66,100,0
4,60,100,0
4,54,100,0
4,59,100,0
4,57,100,0
4,59,100,0
4,64,100,384
4,55,100,384
4,59,100,0
4,66,100,0
4,67,100,0
4,60,100,0
4,64,100,0
4,69,100,0
4,66,100,0
4,57,100,0
4,62,100,0
4,66,100,0
4,64,100,0
4,62,100,0
4,54,100,0
4,60,100,0
4,62,100,0
4,64,100,0
4,66,100,0
4,62,100,0
4,60,100,0
4,59,100,0
4,62,100,768
4,59,100,0
4,62,100,0
4,66,100,0
4,60,100,0
4,57,100,0
4,57,100,0
4,57,100,0
4,62,100,384
4,59,100,0
4,62,100,0
4,66,100,0
4,60,100,0
4,54,100,0
4,59,100,0
4,57,100,0
4,59,100,0
4,62,100,384
4,59,100,0
4,62,100,0
4,66,100,0
4,60,100,0
4,57,100,0
4,57,100,0
4,57,100,0
4,62,100,384
4,59,100,0
4,62,100,0
4,66,100,0
4,60,100,0
4,54,100,0
4,59,100,0
4,57,100,0
4,59,100,0
4,64,100,384
4,55,100,384
4,59,100,0
4,66,100,0
4,67,100,0
4,60,100,0
4,64,100,0
4,69,100,0
4,66,100,0
4,57,100,0
4,62,100,0
4,66,100,0
4,64,100,0
4,62,100,0
4,54,100,0
4,60,100,0
4,62,100,0
4,64,100,0
4,66,100,0
4,62,100,0
4,60,100,0
4,59,100,0
4,62,100,768
4,59,100,0
4,62,100,0
4,66,100,0
4,60,100,0
4,57,100,0
4,57,100,0
4,57,100,0
4,62,100,384
4,59,100,0
4,62,100,0
4,66,100,0
4,60,100,0
4,54,100,0
4,59,100,0
4,57,100,0
4,59,100,0
4,62,100,384
4,59,100,0
4,62,100,0
4,66,100,0
4,60,100,0
4,57,100,0
4,57,100,0
4,57,100,0
4,62,100,384
4,59,100,0
4,62,100,0
4,66,100,0
4,60,100,0
4,54,100,0
4,59,100,0
4,57,100,0
4,59,100,0
4,64,100,384
4,55,100,384
4,59,100,0
4,66,100,0
4,67,100,0
4,60,100,0
4,64,100,0
4,69,100,0
4,66,100,0
4,57,100,0
4,62,100,0
4,66,100,0
4,64,100,0
4,62,100,0
4,54,100,0
4,60,100,0
4,62,100,0
4,64,100,0
4,66,100,0
4,62,100,0
4,60,100,0
4,59,100,0
4,62,100,768
4,59,100,0
4,62,100,0
4,66,100,0
4,60,100,0
4,57,100,0
4,57,100,0
4,57,100,0
4,62,100,384
4,59,100,0
4,62,100,0
4,66,100,0
4,60,100,0
4,54,100,0
4,59,100,0
4,57,100,0
4,59,100,0
4,62,100,384
4,59,100,0
4,62,100,0
4,66,100,0
4,60,100,0
4,57,100,0
4,57,100,0
4,57,100,0
4,62,100,384
4,59,100,0
4,62,100,0
4,66,100,0
4,60,100,0
4,54,100,0
4,59,100,0
4,57,100,0
4,59,100,0
4,64,100,384
4,55,100,384
4,59,100,0
4,66,100,0
4,67,100,0
4,60,100,0
4,64,100,0
4,69,100,0
4,66,100,0
4,57,100,0
4,62,100,0
4,66,100,0
4,64,100,0
4,62,100,0
4,54,100,0
4,60,100,0
4,62,100,0
4,64,100,0
4,66,100,0
4,62,100,0
4,60,100,0
4,59,100,0
4,62,100,768
4,59,100,0
4,62,100,0
4,66,100,0
4,60,100,0
4,57,100,0
4,57,100,0
4,57,100,0
4,62,100,384
4,59,100,0
4,62,100,0
4,66,100,0
4,60,100,0
4,54,100,0
4,59,100,0
4,57,100,0
4,59,100,0
4,62,100,384
4,59,100,0
4,62,100,0
4,66,100,0
4,60,100,0
4,57,100,0
4,57,100,0
4,57,100,0
4,62,100,384
4,59,100,0
4,62,100,0
4,66,100,0
4,60,100,0
4,54,100,0
4,59,100,0
4,57,100,0
4,59,100,0
4,64,100,384
4,55,100,384
4,59,100,0
4,66,100,0
4,67,100,0
4,60,100,0
4,64,100,0
4,69,100,0
4,66,100,0
4,57,100,0
4,62,100,0
4,66,100,0
4,64,100,0
4,62,100,0
4,54,100,0
4,60,100,0
4,62,100,0
4,64,100,0
4,66,100,0
4,62,100,0
4,60,100,0
4,59,100,0
4,62,100,768
4,59,100,0
4,62,100,0
4,66,100,0
4,60,100,0
4,57,100,0
4,57,100,0
4,57,100,0
4,62,100,384
4,59,100,0
4,62,100,0
4,66,100,0
4,60,100,0
4,54,100,0
4,59,100,0
4,57,100,0
4,59,100,0
4,62,100,384
4,59,100,0
4,62,100,0
4,66,100,0
4,60,100,0
4,57,100,0
4,57,100,0
4,57,100,0
4,62,100,384
4,59,100,0
4,62,100,0
4,66,100,0
4,60,100,0
4,54,100,0
4,59,100,0
4,57,100,0
4,59,100,0
4,64,100,384
4,55,100,384
4,59,100,0
4,66,100,0
4,67,100,0
4,60,100,0
4,64,100,0
4,69,100,0
4,66,100,0
4,57,100,0
4,62,100,0
4,66,100,0
4,64,100,0
4,62,100,0
4,54,100,0
4,60,100,0
4,62,100,0
4,64,100,0
4,66,100,0
4,62,100,0
4,60,100,0
4,59,100,0
4,62,100,768
4,59,100,0
4,62,100,0
4,66,100,0
4,60,100,0
4,57,100,0
4,57,100,0
4,57,100,0
4,62,100,384
4,59,100,0
4,62,100,0
4,66,100,0
4,60,100,0
4,54,100,0
4,59,100,0
4,57,100,0
4,59,100,0
4,62,100,384
4,59,100,0
4,62,100,0
4,66,100,0
4,60,100,0
4,57,100,0
4,57,100,0
4,57,100,0
4,62,100,384
4,59,100,0
4,62,100,0
4,66,100,0
4,60,100,0
4,54,100,0
4,59,100,0
4,57,100,0
4,59,100,0
4,64,100,384
4,55,100,384
4,59,100,0
4,66,100,0
4,67,100,0
4,60,100,0
4,64,100,0
4,69,100,0
4,66,100,0
4,57,100,0
4,62,100,0
4,66,100,0
4,64,100,0
4,62,100,0
4,54,100,0
4,60,100,0
4,62,100,0
4,64,100,0
4,66,100,0
4,62,100,0
4,60,100,0
4,59,100,0
5,47,100,0
5,42,100,384
5,47,100,384
5,42,100,384
5,47,100,384
5,42,100,384
5,47,100,384
5,42,100,384
5,35,100,384
5,50,100,0
5,54,100,0
5,35,100,0
5,54,100,0
5,59,100,0
5,42,100,0
5,54,100,0
5,48,100,0
5,42,100,0
5,42,100,0
5,54,100,0
5,48,100,0
5,35,100,0
5,54,100,0
5,50,100,0
5,35,100,0
5,59,100,0
5,54,100,0
5,42,100,0
5,42,100,0
5,47,100,0
5,50,100,0
5,54,100,0
5,35,100,0
5,54,100,0
5,50,100,0
5,35,100,0
5,59,100,0
5,54,100,0
5,42,100,0
5,54,100,0
5,48,100,0
5,42,100,0
5,42,100,0
5,54,100,0
5,48,100,0
5,35,100,0
5,54,100,0
5,50,100,0
5,35,100,0
