track,note,velocity,time
3,57,100,9792
3,61,100,0
3,62,100,0
3,64,100,0
3,64,100,0
3,64,100,0
3,64,100,0
3,69,100,0
3,68,100,0
3,66,100,0
3,64,100,0
3,62,100,0
3,64,100,0
3,66,100,0
3,64,100,0
3,57,100,1344
3,61,100,0
3,62,100,0
3,64,100,0
3,64,100,0
3,64,100,0
3,64,100,0
3,69,100,0
3,68,100,0
3,66,100,0
3,64,100,0
3,62,100,0
3,64,100,0
3,66,100,0
3,64,100,0
3,61,100,1344
3,61,100,0
3,62,100,0
3,64,100,0
3,64,100,0
3,66,100,0
3,67,100,0
3,66,100,0
3,64,100,0
3,62,100,0
3,62,100,0
3,66,100,0
3,68,100,0
3,69,100,0
3,61,100,0
3,66,100,1152
3,68,100,0
3,69,100,0
3,61,100,0
3,61,100,0
3,61,100,0
3,61,100,0
3,59,100,0
3,57,100,0
3,54,100,0
3,54,100,0
3,56,100,0
3,57,100,0
3,59,100,0
3,57,100,0
3,57,100,1152
3,61,100,0
3,62,100,0
3,64,100,0
3,64,100,0
3,64,100,0
3,64,100,0
3,69,100,0
3,68,100,0
3,66,100,0
3,64,100,0
3,62,100,0
3,64,100,0
3,66,100,0
3,64,100,0
3,57,100,1344
3,61,100,0
3,62,100,0
3,64,100,0
3,64,100,0
3,64,100,0
3,64,100,0
3,69,100,0
3,68,100,0
3,66,100,0
3,64,100,0
3,62,100,0
3,64,100,0
3,66,100,0
3,64,100,0
3,61,100,1344
3,61,100,0
3,62,100,0
3,64,100,0
3,64,100,0
3,66,100,0
3,67,100,0
3,66,100,0
3,64,100,0
3,62,100,0
3,62,100,0
3,66,100,0
3,68,100,0
3,69,100,0
3,61,100,0
3,66,100,1152
3,68,100,0
3,69,100,0
3,61,100,0
3,61,100,0
3,61,100,0
3,61,100,0
3,59,100,0
3,57,100,0
3,54,100,0
3,54,100,0
3,56,100,0
3,57,100,0
3,59,100,0
3,57,100,0
3,57,100,1152
3,61,100,0
3,62,100,0
3,64,100,0
3,64,100,0
3,64,100,0
3,64,100,0
3,69,100,0
3,68,100,0
3,66,100,0
3,64,100,0
3,62,100,0
3,64,100,0
3,66,100,0
3,64,100,0
3,57,100,1344
3,61,100,0
3,62,100,0
3,64,100,0
3,64,100,0
3,64,100,0
3,64,100,0
3,69,100,0
3,68,100,0
3,66,100,0
3,64,100,0
3,62,100,0
3,64,100,0
3,66,100,0
3,64,100,0
3,61,100,1344
3,61,100,0
3,62,100,0
3,64,100,0
3,64,100,0
3,66,100,0
3,67,100,0
3,66,100,0
3,64,100,0
3,62,100,0
3,62,100,0
3,66,100,0
3,68,100,0
3,69,100,0
3,61,100,0
3,66,100,1152
3,68,100,0
3,69,100,0
3,61,100,0
3,61,100,0
3,61,100,0
3,61,100,0
3,59,100,0
3,57,100,0
3,54,100,0
3,54,100,0
3,56,100,0
3,57,100,0
3,59,100,0
3,57,100,0
3,57,100,1152
3,61,100,0
3,62,100,0
3,64,100,0
3,64,100,0
3,64,100,0
3,64,100,0
3,69,100,0
3,68,100,0
3,66,100,0
3,64,100,0
3,62,100,0
3,64,100,0
3,66,100,0
3,64,100,0
3,57,100,1344
3,61,100,0
3,62,100,0
3,64,100,0
3,64,100,0
3,64,100,0
3,64,100,0
3,69,100,0
3,68,100,0
3,66,100,0
3,64,100,0
3,62,100,0
3,64,100,0
3,66,100,0
3,64,100,0
3,61,100,1344
3,61,100,0
3,62,100,0
3,64,100,0
3,64,100,0
3,66,100,0
3,67,100,0
3,66,100,0
3,64,100,0
3,62,100,0
3,62,100,0
3,66,100,0
3,68,100,0
3,69,100,0
3,61,100,0
3,66,100,1152
3,68,100,0
3,69,100,0
3,61,100,0
3,61,100,0
3,61,100,0
3,61,100,0
3,59,100,0
3,57,100,0
3,54,100,0
3,54,100,0
3,56,100,0
3,57,100,0
3,59,100,0
3,57,100,0
3,57,100,1152
3,61,100,0
3,62,100,0
3,64,100,0
3,64,100,0
3,64,100,0
3,64,100,0
3,69,100,0
3,68,100,0
3,66,100,0
3,64,100,0
3,62,100,0
3,64,100,0
3,66,100,0
3,64,100,0
3,57,100,1344
3,61,100,0
3,62,100,0
3,64,100,0
3,64,100,0
3,64,100,0
3,64,100,0
3,69,100,0
3,68,100,0
3,66,100,0
3,64,100,0
3,62,100,0
3,64,100,0
3,66,100,0
3,64,100,0
3,61,100,1344
3,61,100,0
3,62,100,0
3,64,100,0
3,64,100,0
3,66,100,0
3,67,100,0
3,66,100,0
3,64,100,0
3,62,100,0
3,62,100,0
3,66,100,0
3,68,100,0
3,69,100,0
3,61,100,0
3,66,100,1152
3,68,100,0
3,69,100,0
3,61,100,0
3,61,100,0
3,61,100,0
3,61,100,0
3,59,100,0
3,57,100,0
3,54,100,0
3,54,100,0
3,56,100,0
3,57,100,0
3,59,100,0
3,57,100,0
3,57,100,1152
3,61,100,0
3,62,100,0
3,64,100,0
3,64,100,0
3,64,100,0
3,64,100,0
3,69,100,0
3,68,100,0
3,66,100,0
3,64,100,0
3,62,100,0
3,64,100,0
3,66,100,0
3,64,100,0
3,57,100,1344
3,61,100,0
3,62,100,0
3,64,100,0
3,64,100,0
3,64,100,0
3,64,100,0
3,69,100,0
3,68,100,0
3,66,100,0
3,64,100,0
3,62,100,0
3,64,100,0
3,66,100,0
3,64,100,0
3,61,100,1344
3,61,100,0
3,62,100,0
3,64,100,0
3,64,100,0
3,66,100,0
3,67,100,0
3,66,100,0
3,64,100,0
3,62,100,0
3,62,100,0
3,66,100,0
3,68,100,0
3,69,100,0
3,61,100,0
3,66,100,1152
3,68,100,0
3,69,100,0
3,61,100,0
3,61,100,0
3,61,100,0
3,61,100,0
3,59,100,0
3,57,100,0
3,54,100,0
3,54,100,0
3,56,100,0
3,57,100,0
3,59,100,0
3,57,100,0
3,57,100,1152
3,61,100,0
3,62,100,0
3,64,100,0
3,64,100,0
3,64,100,0
3,64,100,0
3,69,100,0
3,68,100,0
3,66,100,0
3,64,100,0
3,62,100,0
3,64,100,0
3,66,100,0
3,64,100,0
3,57,100,1344
3,61,100,0
3,62,100,0
3,64,100,0
3,64,100,0
3,64,100,0
3,64,100,0
3,69,100,0
3,68,100,0
3,66,100,0
3,64,100,0
3,62,100,0
3,64,100,0
3,66,100,0
3,64,100,0
3,61,100,1344
3,61,100,0
3,62,100,0
3,64,100,0
3,64,100,0
3,66,100,0
3,67,100,0
3,66,100,0
3,64,100,0
3,62,100,0
3,62,100,0
3,66,100,0
3,68,100,0
3,69,100,0
3,61,100,0
3,66,100,1152
3,68,100,0
3,69,100,0
3,61,100,0
3,61,100,0
3,61,100,0
3,61,100,0
3,59,100,0
3,57,100,0
3,54,100,0
3,54,100,0
3,56,100,0
3,57,100,0
3,59,100,0
3,57,100,0
3,57,100,960
3,61,100,0
3,62,100,0
3,64,100,0
3,69,100,768
3,69,100,0
3,69,100,0
3,69,100,0
3,68,100,0
3,66,100,0
3,64,100,64
3,62,100,288
3,64,100,0
3,66,100,0
3,64,100,0
3,57,100,864
3,61,100,0
3,62,100,0
3,64,100,0
3,69,100,768
3,69,100,0
3,69,100,0
3,69,100,0
3,68,100,0
3,66,100,0
3,64,100,64
3,62,100,288
3,64,100,0
3,66,100,0
3,64,100,0
3,64,100,960
3,61,100,0
3,62,100,0
3,64,100,0
3,64,100,0
3,66,100,0
3,67,100,0
3,66,100,0
3,64,100,0
3,62,100,0
3,62,100,0
3,66,100,0
3,68,100,0
3,69,100,0
3,61,100,0
3,66,100,1152
3,68,100,0
3,69,100,0
3,61,100,0
3,61,100,0
3,61,100,0
3,61,100,0
3,59,100,0
3,57,100,0
3,54,100,0
3,54,100,0
3,56,100,0
3,57,100,0
3,59,100,0
3,57,100,0
4,73,100,576
4,73,100,0
4,74,100,0
4,76,100,0
4,76,100,0
4,78,100,0
4,79,100,0
4,78,100,0
4,76,100,0
4,74,100,0
4,74,100,0
4,78,100,0
4,80,100,0
4,81,100,0
4,73,100,0
4,78,100,576
4,80,100,0
4,81,100,0
4,73,100,0
4,73,100,0
4,74,100,0
4,73,100,0
4,71,100,0
4,69,100,0
4,66,100,0
4,68,100,0
4,69,100,0
4,71,100,0
4,69,100,0
4,57,100,1152
4,61,100,0
4,62,100,0
4,64,100,0
4,64,100,0
4,64,100,0
4,64,100,0
4,69,100,0
4,68,100,0
4,66,100,0
4,64,100,0
4,62,100,0
4,64,100,0
4,66,100,0
4,64,100,0
4,57,100,1344
4,61,100,0
4,62,100,0
4,64,100,0
4,64,100,0
4,64,100,0
4,64,100,0
4,69,100,0
4,68,100,0
4,66,100,0
4,64,100,0
4,62,100,0
4,64,100,0
4,66,100,0
4,64,100,0
4,61,100,1344
4,61,100,0
4,62,100,0
4,64,100,0
4,64,100,0
4,66,100,0
4,67,100,0
4,66,100,0
4,64,100,0
4,62,100,0
4,62,100,0
4,66,100,0
4,68,100,0
4,69,100,0
4,61,100,0
4,66,100,1152
4,68,100,0
4,69,100,0
4,61,100,0
4,61,100,0
4,61,100,0
4,61,100,0
4,59,100,0
4,57,100,0
4,54,100,0
4,54,100,0
4,56,100,0
4,57,100,0
4,59,100,0
4,57,100,0
4,57,100,1152
4,61,100,0
4,62,100,0
4,64,100,0
4,64,100,0
4,64,100,0
4,64,100,0
4,69,100,0
4,68,100,0
4,66,100,0
4,64,100,0
4,62,100,0
4,64,100,0
4,66,100,0
4,64,100,0
4,57,100,1344
4,61,100,0
4,62,100,0
4,64,100,0
4,64,100,0
4,64,100,0
4,64,100,0
4,69,100,0
4,68,100,0
4,66,100,0
4,64,100,0
4,62,100,0
4,64,100,0
4,66,100,0
4,64,100,0
4,61,100,1344
4,61,100,0
4,62,100,0
4,64,100,0
4,64,100,0
4,66,100,0
4,67,100,0
4,66,100,0
4,64,100,0
4,62,100,0
4,62,100,0
4,66,100,0
4,68,100,0
4,69,100,0
4,61,100,0
4,66,100,1152
4,68,100,0
4,69,100,0
4,61,100,0
4,61,100,0
4,61,100,0
4,61,100,0
4,59,100,0
4,57,100,0
4,54,100,0
4,54,100,0
4,56,100,0
4,57,100,0
4,59,100,0
4,57,100,0
4,57,100,1152
4,61,100,0
4,62,100,0
4,64,100,0
4,64,100,0
4,64,100,0
4,64,100,0
4,69,100,0
4,68,100,0
4,66,100,0
4,64,100,0
4,62,100,0
4,64,100,0
4,66,100,0
4,64,100,0
4,57,100,1344
4,61,100,0
4,62,100,0
4,64,100,0
4,64,100,0
4,64,100,0
4,64,100,0
4,69,100,0
4,68,100,0
4,66,100,0
4,64,100,0
4,62,100,0
4,64,100,0
4,66,100,0
4,64,100,0
4,61,100,1344
4,61,100,0
4,62,100,0
4,64,100,0
4,64,100,0
4,66,100,0
4,67,100,0
4,66,100,0
4,64,100,0
4,62,100,0
4,62,100,0
4,66,100,0
4,68,100,0
4,69,100,0
4,61,100,0
4,66,100,1152
4,68,100,0
4,69,100,0
4,61,100,0
4,61,100,0
4,61,100,0
4,61,100,0
4,59,100,0
4,57,100,0
4,54,100,0
4,54,100,0
4,56,100,0
4,57,100,0
4,59,100,0
4,57,100,0
4,57,100,1152
4,61,100,0
4,62,100,0
4,64,100,0
4,64,100,0
4,64,100,0
4,64,100,0
4,69,100,0
4,68,100,0
4,66,100,0
4,64,100,0
4,62,100,0
4,64,100,0
4,66,100,0
4,64,100,0
4,57,100,1344
4,61,100,0
4,62,100,0
4,64,100,0
4,64,100,0
4,64,100,0
4,64,100,0
4,69,100,0
4,68,100,0
4,66,100,0
4,64,100,0
4,62,100,0
4,64,100,0
4,66,100,0
4,64,100,0
4,61,100,1344
4,61,100,0
4,62,100,0
4,64,100,0
4,64,100,0
4,66,100,0
4,67,100,0
4,66,100,0
4,64,100,0
4,62,100,0
4,62,100,0
4,66,100,0
4,68,100,0
4,69,100,0
4,61,100,0
4,66,100,1152
4,68,100,0
4,69,100,0
4,61,100,0
4,61,100,0
4,61,100,0
4,61,100,0
4,59,100,0
4,57,100,0
4,54,100,0
4,54,100,0
4,56,100,0
4,57,100,0
4,59,100,0
4,57,100,0
4,57,100,1152
4,61,100,0
4,62,100,0
4,64,100,0
4,64,100,0
4,64,100,0
4,64,100,0
4,69,100,0
4,68,100,0
4,66,100,0
4,64,100,0
4,62,100,0
4,64,100,0
4,66,100,0
4,64,100,0
4,57,100,1344
4,61,100,0
4,62,100,0
4,64,100,0
4,64,100,0
4,64,100,0
4,64,100,0
4,69,100,0
4,68,100,0
4,66,100,0
4,64,100,0
4,62,100,0
4,64,100,0
4,66,100,0
4,64,100,0
4,61,100,1344
4,61,100,0
4,62,100,0
4,64,100,0
4,64,100,0
4,66,100,0
4,67,100,0
4,66,100,0
4,64,100,0
4,62,100,0
4,62,100,0
4,66,100,0
4,68,100,0
4,69,100,0
4,61,100,0
4,66,100,1152
4,68,100,0
4,69,100,0
4,61,100,0
4,61,100,0
4,61,100,0
4,61,100,0
4,59,100,0
4,57,100,0
4,54,100,0
4,54,100,0
4,56,100,0
4,57,100,0
4,59,100,0
4,57,100,0
4,57,100,1152
4,61,100,0
4,62,100,0
4,64,100,0
4,64,100,0
4,64,100,0
4,64,100,0
4,69,100,0
4,68,100,0
4,66,100,0
4,64,100,0
4,62,100,0
4,64,100,0
4,66,100,0
4,64,100,0
4,57,100,1344
4,61,100,0
4,62,100,0
4,64,100,0
4,64,100,0
4,64,100,0
4,64,100,0
4,69,100,0
4,68,100,0
4,66,100,0
4,64,100,0
4,62,100,0
4,64,100,0
4,66,100,0
4,64,100,0
4,61,100,1344
4,61,100,0
4,62,100,0
4,64,100,0
4,64,100,0
4,66,100,0
4,67,100,0
4,66,100,0
4,64,100,0
4,62,100,0
4,62,100,0
4,66,100,0
4,68,100,0
4,69,100,0
4,61,100,0
4,66,100,1152
4,68,100,0
4,69,100,0
4,61,100,0
4,61,100,0
4,61,100,0
4,61,100,0
4,59,100,0
4,57,100,0
4,54,100,0
4,54,100,0
4,56,100,0
4,57,100,0
4,59,100,0
4,57,100,0
4,57,100,1152
4,61,100,0
4,62,100,0
4,64,100,0
4,64,100,0
4,64,100,0
4,64,100,0
4,69,100,0
4,68,100,0
4,66,100,0
4,64,100,0
4,62,100,0
4,64,100,0
4,66,100,0
4,64,100,0
4,57,100,1344
4,61,100,0
4,62,100,0
4,64,100,0
4,64,100,0
4,64,100,0
4,64,100,0
4,69,100,0
4,68,100,0
4,66,100,0
4,64,100,0
4,62,100,0
4,64,100,0
4,66,100,0
4,64,100,0
4,61,100,1344
4,61,100,0
4,62,100,0
4,64,100,0
4,64,100,0
4,66,100,0
4,67,100,0
4,66,100,0
4,64,100,0
4,62,100,0
4,62,100,0
4,66,100,0
4,68,100,0
4,69,100,0
4,61,100,0
4,66,100,1152
4,68,100,0
4,69,100,0
4,61,100,0
4,61,100,0
4,61,100,0
4,61,100,0
4,59,100,0
4,57,100,0
4,54,100,0
4,54,100,0
4,56,100,0
4,57,100,0
4,59,100,0
4,57,100,0
5,71,100,4032
5,64,100,0
5,61,100,0
5,56,100,0
5,71,100,0
5,64,100,0
5,61,100,0
5,56,100,0
5,66,100,576
5,61,100,0
5,57,100,0
5,54,100,0
5,49,100,0
5,66,100,576
5,62,100,0
5,57,100,0
5,54,100,0
5,50,100,0
5,40,100,0
5,47,100,0
5,52,100,0
5,56,100,0
5,59,100,0
5,64,100,0
5,45,100,0
5,61,100,384
5,57,100,0
5,52,100,0
5,40,100,0
5,61,100,384
5,57,100,0
5,52,100,0
5,45,100,2
5,61,100,384
5,57,100,0
5,52,100,0
5,40,100,0
5,61,100,384
5,57,100,0
5,52,100,0
5,45,100,190
5,61,100,382
5,57,100,0
5,52,100,0
5,40,100,0
5,61,100,384
5,57,100,0
5,52,100,0
5,52,100,0
5,66,100,384
5,62,100,0
5,57,100,0
5,40,100,0
5,62,100,384
5,56,100,0
5,52,100,0
5,45,100,0
5,66,100,384
5,61,100,0
5,57,100,0
5,40,100,0
5,66,100,384
5,61,100,0
5,57,100,0
5,45,100,0
5,66,100,384
5,61,100,0
5,57,100,0
5,40,100,0
5,66,100,384
5,61,100,0
