track,note,velocity,time
4,69,110,13056
4,67,110,64
4,66,110,64
4,69,110,96
4,66,110,64
4,62,110,64
4,67,110,96
4,66,110,64
4,64,110,64
4,67,110,96
4,64,110,64
4,57,110,64
4,69,110,480
4,62,110,64
4,62,110,64
4,62,110,64
4,62,110,64
4,62,110,64
4,66,110,64
4,62,110,64
4,66,110,64
4,64,110,64
4,71,110,96
4,69,110,96
4,69,110,448
4,67,110,64
4,66,110,64
4,69,110,96
4,66,110,64
4,62,110,64
4,74,110,96
4,71,110,64
4,69,110,64
4,67,110,64
4,66,110,64
4,64,110,64
4,62,110,480
4,62,110,64
4,64,110,64
4,66,110,64
4,62,110,64
4,59,110,64
4,61,110,96
4,62,110,96
4,69,110,448
4,67,110,64
4,66,110,64
4,69,110,96
4,66,110,64
4,62,110,64
4,67,110,96
4,66,110,64
4,64,110,64
4,67,110,96
4,64,110,64
4,57,110,64
4,69,110,480
4,62,110,64
4,62,110,64
4,62,110,64
4,62,110,64
4,62,110,64
4,66,110,64
4,62,110,64
4,66,110,64
4,64,110,64
4,71,110,96
4,69,110,96
4,69,110,448
4,67,110,64
4,66,110,64
4,69,110,96
4,66,110,64
4,62,110,64
4,74,110,96
4,71,110,64
4,69,110,64
4,67,110,64
4,66,110,64
4,64,110,64
4,62,110,480
4,62,110,64
4,64,110,64
4,66,110,64
4,62,110,64
4,59,110,64
4,61,110,96
4,62,110,96
4,69,110,448
4,67,110,64
4,66,110,64
4,69,110,96
4,66,110,64
4,62,110,64
4,67,110,96
4,66,110,64
4,64,110,64
4,67,110,96
4,64,110,64
4,57,110,64
4,69,110,480
4,62,110,64
4,62,110,64
4,62,110,64
4,62,110,64
4,62,110,64
4,66,110,64
4,62,110,64
4,66,110,64
4,64,110,64
4,71,110,96
4,69,110,96
4,69,110,448
4,67,110,64
4,66,110,64
4,69,110,96
4,66,110,64
4,62,110,64
4,74,110,96
4,71,110,64
4,69,110,64
4,67,110,64
4,66,110,64
4,64,110,64
4,62,110,480
4,62,110,64
4,64,110,64
4,66,110,64
4,62,110,64
4,59,110,64
4,61,110,96
4,62,110,96
4,69,110,448
4,67,110,64
4,66,110,64
4,69,110,96
4,66,110,64
4,62,110,64
4,67,110,96
4,66,110,64
4,64,110,64
4,67,110,96
4,64,110,64
4,57,110,64
4,69,110,480
4,62,110,64
4,62,110,64
4,62,110,64
4,62,110,64
4,62,110,64
4,66,110,64
4,62,110,64
4,66,110,64
4,64,110,64
4,71,110,96
4,69,110,96
4,69,110,448
4,67,110,64
4,66,110,64
4,69,110,96
4,66,110,64
4,62,110,64
4,74,110,96
4,71,110,64
4,69,110,64
4,67,110,64
4,66,110,64
4,64,110,64
4,62,110,480
4,62,110,64
4,64,110,64
4,66,110,64
4,62,110,64
4,59,110,64
4,61,110,96
4,62,110,96
4,69,110,448
4,67,110,64
4,66,110,64
4,69,110,96
4,66,110,64
4,62,110,64
4,67,110,96
4,66,110,64
4,64,110,64
4,67,110,96
4,64,110,64
4,57,110,64
4,69,110,480
4,62,110,64
4,62,110,64
4,62,110,64
4,62,110,64
4,62,110,64
4,66,110,64
4,62,110,64
4,66,110,64
4,64,110,64
4,71,110,96
4,69,110,96
4,69,110,448
4,67,110,64
4,66,110,64
4,69,110,96
4,66,110,64
4,62,110,64
4,74,110,96
4,71,110,64
4,69,110,64
4,67,110,64
4,66,110,64
4,64,110,64
4,62,110,480
4,62,110,64
4,64,110,64
4,66,110,64
4,62,110,64
4,59,110,64
4,61,110,96
4,62,110,96
4,69,110,448
4,67,110,64
4,66,110,64
4,69,110,96
4,66,110,64
4,62,110,64
4,67,110,96
4,66,110,64
4,64,110,64
4,67,110,96
4,64,110,64
4,57,110,64
4,69,110,480
4,62,110,64
4,62,110,64
4,62,110,64
4,62,110,64
4,62,110,64
4,66,110,64
4,62,110,64
4,66,110,64
4,64,110,64
4,71,110,96
4,69,110,96
4,69,110,448
4,67,110,64
4,66,110,64
4,69,110,96
4,66,110,64
4,62,110,64
4,74,110,96
4,71,110,64
4,69,110,64
4,67,110,64
4,66,110,64
4,64,110,64
4,62,110,480
4,62,110,64
4,64,110,64
4,66,110,64
4,62,110,64
4,59,110,64
4,61,110,96
4,62,110,96
4,69,110,448
4,67,110,64
4,66,110,64
4,69,110,96
4,66,110,64
4,62,110,64
4,67,110,96
4,66,110,64
4,64,110,64
4,67,110,96
4,64,110,64
4,57,110,64
4,69,110,480
4,62,110,64
4,62,110,64
4,62,110,64
4,62,110,64
4,62,110,64
4,66,110,64
4,62,110,64
4,66,110,64
4,64,110,64
4,71,110,96
4,69,110,96
4,69,110,448
4,67,110,64
4,66,110,64
4,69,110,96
4,66,110,64
4,62,110,64
4,74,110,96
4,71,110,64
4,69,110,64
4,67,110,64
4,66,110,64
4,64,110,64
4,62,110,480
4,62,110,64
4,64,110,64
4,66,110,64
4,62,110,64
4,59,110,64
4,61,110,96
4,62,110,96
4,69,110,448
4,67,110,64
4,66,110,64
4,69,110,96
4,66,110,64
4,62,110,64
4,67,110,96
4,66,110,64
4,64,110,64
4,67,110,96
4,64,110,64
4,57,110,64
4,69,110,480
4,62,110,64
4,62,110,64
4,62,110,64
4,62,110,64
4,62,110,64
4,66,110,64
4,62,110,64
4,66,110,64
4,64,110,64
4,71,110,96
4,69,110,96
4,69,110,448
4,67,110,64
4,66,110,64
4,69,110,96
4,66,110,64
4,62,110,64
4,74,110,96
4,71,110,64
4,69,110,64
4,67,110,64
4,66,110,64
4,64,110,64
4,62,110,480
4,62,110,64
4,64,110,64
4,66,110,64
4,62,110,64
4,59,110,64
4,61,110,96
4,62,110,96
4,69,110,448
4,67,110,64
4,66,110,64
4,69,110,96
4,66,110,64
4,62,110,64
4,67,110,96
4,66,110,64
4,64,110,64
4,67,110,96
4,64,110,64
4,57,110,64
4,69,110,480
4,62,110,64
4,62,110,64
4,62,110,64
4,62,110,64
4,62,110,64
4,66,110,64
4,62,110,64
4,66,110,64
4,64,110,64
4,71,110,96
4,69,110,96
4,69,110,448
4,67,110,64
4,66,110,64
4,69,110,96
4,66,110,64
4,62,110,64
4,74,110,96
4,71,110,64
4,69,110,64
4,67,110,64
4,66,110,64
4,64,110,64
4,62,110,480
4,62,110,64
4,64,110,64
4,66,110,64
4,62,110,64
4,59,110,64
4,61,110,96
4,62,110,96
4,69,110,448
4,67,110,64
4,66,110,64
4,69,110,96
4,66,110,64
4,62,110,64
4,67,110,96
4,66,110,64
4,64,110,64
4,67,110,96
4,64,110,64
4,57,110,64
4,69,110,480
4,62,110,64
4,62,110,64
4,62,110,64
4,62,110,64
4,62,110,64
4,66,110,64
4,62,110,64
4,66,110,64
4,64,110,64
4,71,110,96
4,69,110,96
4,69,110,448
4,67,110,64
4,66,110,64
4,69,110,96
4,66,110,64
4,62,110,64
4,74,110,96
4,71,110,64
4,69,110,64
4,67,110,64
4,66,110,64
4,64,110,64
4,62,110,480
4,62,110,64
4,64,110,64
4,66,110,64
4,62,110,64
4,59,110,64
4,61,110,96
4,62,110,96
4,69,110,448
4,67,110,64
4,66,110,64
4,69,110,96
4,66,110,64
4,62,110,64
4,67,110,96
4,66,110,64
4,64,110,64
4,67,110,96
4,64,110,64
4,57,110,64
4,69,110,480
4,62,110,64
4,62,110,64
4,62,110,64
4,62,110,64
4,62,110,64
4,66,110,64
4,62,110,64
4,66,110,64
4,64,110,64
4,71,110,96
4,69,110,96
4,69,110,448
4,67,110,64
4,66,110,64
4,69,110,96
4,66,110,64
4,62,110,64
4,74,110,96
4,71,110,64
4,69,110,64
4,67,110,64
4,66,110,64
4,64,110,64
4,62,110,480
4,62,110,64
4,64,110,64
4,66,110,64
4,62,110,64
4,59,110,64
4,61,110,96
4,62,110,96
4,69,110,448
4,67,110,64
4,66,110,64
4,69,110,96
4,66,110,64
4,62,110,64
4,67,110,96
4,66,110,64
4,64,110,64
4,67,110,96
4,64,110,64
4,57,110,64
4,69,110,480
4,62,110,64
4,62,110,64
4,62,110,64
4,62,110,64
4,62,110,64
4,66,110,64
4,62,110,64
4,66,110,64
4,64,110,64
4,71,110,96
4,69,110,96
4,69,110,448
4,67,110,64
4,66,110,64
4,69,110,96
4,66,110,64
4,62,110,64
4,74,110,96
4,71,110,64
4,69,110,64
4,67,110,64
4,66,110,64
4,64,110,64
4,62,110,480
4,62,110,64
4,64,110,64
4,66,110,64
4,62,110,64
4,59,110,64
4,61,110,96
4,62,110,96
4,69,110,448
4,67,110,64
4,66,110,64
4,69,110,96
4,66,110,64
4,62,110,64
4,67,110,96
4,66,110,64
4,64,110,64
4,67,110,96
4,64,110,64
4,57,110,64
4,69,110,480
4,62,110,64
4,62,110,64
4,62,110,64
4,62,110,64
4,62,110,64
4,66,110,64
4,62,110,64
4,66,110,64
4,64,110,64
4,71,110,96
4,69,110,96
4,69,110,448
4,67,110,64
4,66,110,64
4,69,110,96
4,66,110,64
4,62,110,64
4,74,110,96
4,71,110,64
4,69,110,64
4,67,110,64
4,66,110,64
4,64,110,64
4,62,110,480
4,62,110,64
4,64,110,64
4,66,110,64
4,62,110,64
4,59,110,64
4,61,110,96
4,62,110,96
4,69,110,448
4,67,110,64
4,66,110,64
4,69,110,96
4,66,110,64
4,62,110,64
4,67,110,96
4,66,110,64
4,64,110,64
4,67,110,96
4,64,110,64
4,57,110,64
4,69,110,480
4,62,110,64
4,62,110,64
4,62,110,64
4,62,110,64
4,62,110,64
4,66,110,64
4,62,110,64
4,66,110,64
4,64,110,64
4,71,110,96
4,69,110,96
4,69,110,448
4,67,110,64
4,66,110,64
4,69,110,96
4,66,110,64
4,62,110,64
4,74,110,96
4,71,110,64
4,69,110,64
4,67,110,64
4,66,110,64
4,64,110,64
4,62,110,480
4,62,110,64
4,64,110,64
4,66,110,64
4,62,110,64
4,59,110,64
4,64,110,96
4,66,110,96
4,62,110,480
4,62,110,64
4,64,110,64
4,66,110,64
4,62,110,64
4,59,110,64
4,61,110,96
4,62,110,96
5,62,110,0
5,62,110,64
5,66,110,64
5,62,110,64
5,59,110,64
5,64,110,96
5,66,110,96
5,62,110,96
5,62,110,64
5,66,110,64
5,62,110,64
5,59,110,64
5,61,110,96
5,54,110,96
5,57,110,0
5,62,110,0
5,54,110,64
5,57,110,0
5,62,110,0
5,54,110,448
5,57,110,0
5,62,110,0
5,54,110,448
5,57,110,0
5,62,110,0
5,54,110,448
5,57,110,0
5,62,110,0
5,54,110,448
5,57,110,0
5,62,110,0
5,54,110,448
5,57,110,0
5,62,110,0
5,54,110,448
5,57,110,0
5,62,110,0
5,57,110,64
5,57,110,64
5,64,110,0
5,67,110,0
5,66,110,64
5,57,110,384
5,62,110,0
5,69,110,64
5,57,110,64
5,62,110,0
5,66,110,0
5,62,110,64
5,54,110,384
5,59,110,0
5,67,110,64
5,59,110,64
5,62,110,0
5,66,110,0
5,64,110,64
5,55,110,384
5,59,110,0
5,67,110,64
5,55,110,64
5,59,110,0
5,64,110,0
5,55,110,64
5,57,110,0
5,57,110,480
5,61,110,0
5,69,110,0
5,62,110,64
5,54,110,64
5,57,110,0
5,62,110,0
5,62,110,64
5,54,110,64
5,57,110,0
5,62,110,0
5,62,110,64
5,59,110,64
5,62,110,0
5,66,110,0
5,62,110,64
5,59,110,64
5,62,110,0
5,66,110,0
5,64,110,64
5,56,110,384
5,59,110,0
5,71,110,64
5,62,110,384
5,64,110,0
5,69,110,64
5,61,110,64
5,64,110,0
5,69,110,64
5,61,110,64
5,64,110,0
5,67,110,0
5,66,110,64
5,57,110,384
5,62,110,0
5,69,110,64
5,57,110,64
5,62,110,0
5,66,110,0
5,62,110,64
5,54,110,384
5,58,110,0
5,62,110,96
5,66,110,0
5,74,110,0
5,71,110,64
5,59,110,64
5,62,110,0
5,69,110,0
5,67,110,64
5,59,110,64
5,62,110,0
5,66,110,0
5,64,110,64
5,58,110,384
5,61,110,0
5,58,110,448
5,62,110,0
5,62,110,64
5,59,110,64
5,62,110,0
5,64,110,0
5,66,110,64
5,59,110,64
5,62,110,0
5,59,110,64
5,52,110,384
5,55,110,0
5,61,110,64
5,52,110,384
5,55,110,0
5,62,110,64
5,54,110,384
5,57,110,0
5,54,110,448
5,57,110,0
5,54,110,64
5,57,110,0
5,69,110,64
5,57,110,64
5,64,110,0
5,67,110,0
5,66,110,64
5,57,110,384
5,62,110,0
5,69,110,64
5,57,110,64
5,62,110,0
5,66,110,0
5,62,110,64
5,54,110,384
5,59,110,0
5,67,110,64
5,59,110,64
5,62,110,0
5,66,110,0
5,64,110,64
5,55,110,384
5,59,110,0
5,67,110,64
5,55,110,64
5,59,110,0
5,64,110,0
5,55,110,64
5,57,110,0
5,57,110,480
5,61,110,0
5,69,110,0
5,62,110,64
5,54,110,64
5,57,110,0
5,62,110,0
5,62,110,64
5,54,110,64
5,57,110,0
5,62,110,0
5,62,110,64
5,59,110,64
5,62,110,0
5,66,110,0
5,62,110,64
5,59,110,64
5,62,110,0
5,66,110,0
5,64,110,64
5,56,110,384
5,59,110,0
5,71,110,64
5,62,110,384
5,64,110,0
5,69,110,64
5,61,110,64
5,64,110,0
5,69,110,64
5,61,110,64
5,64,110,0
5,67,110,0
5,66,110,64
5,57,110,384
5,62,110,0
5,69,110,64
5,57,110,64
5,62,110,0
5,66,110,0
5,62,110,64
5,54,110,384
5,58,110,0
5,62,110,96
5,66,110,0
5,74,110,0
5,71,110,64
5,59,110,64
5,62,110,0
5,69,110,0
5,67,110,64
5,59,110,64
5,62,110,0
5,66,110,0
5,64,110,64
5,58,110,384
5,61,110,0
5,58,110,448
5,62,110,0
5,62,110,64
5,59,110,64
5,62,110,0
5,64,110,0
5,66,110,64
5,59,110,64
5,62,110,0
5,59,110,64
5,52,110,384
5,55,110,0
5,61,110,64
5,52,110,384
5,55,110,0
5,62,110,64
5,54,110,384
5,57,110,0
5,54,110,448
5,57,110,0
5,54,110,64
5,57,110,0
5,69,110,64
5,57,110,64
5,64,110,0
5,67,110,0
5,66,110,64
5,57,110,384
5,62,110,0
5,69,110,64
5,57,110,64
5,62,110,0
5,66,110,0
5,62,110,64
5,54,110,384
5,59,110,0
5,67,110,64
5,59,110,64
5,62,110,0
5,66,110,0
5,64,110,64
5,55,110,384
5,59,110,0
5,67,110,64
5,55,110,64
5,59,110,0
5,64,110,0
5,55,110,64
5,57,110,0
5,57,110,480
5,61,110,0
5,69,110,0
5,62,110,64
5,54,110,64
5,57,110,0
5,62,110,0
5,62,110,64
5,54,110,64
5,57,110,0
5,62,110,0
5,62,110,64
5,59,110,64
5,62,110,0
5,66,110,0
5,62,110,64
5,59,110,64
5,62,110,0
5,66,110,0
5,64,110,64
5,56,110,384
5,59,110,0
5,71,110,64
5,62,110,384
5,64,110,0
5,69,110,64
5,61,110,64
5,64,110,0
5,69,110,64
5,61,110,64
5,64,110,0
5,67,110,0
5,66,110,64
5,57,110,384
5,62,110,0
5,69,110,64
5,57,110,64
5,62,110,0
5,66,110,0
5,62,110,64
5,54,110,384
5,58,110,0
5,62,110,96
5,66,110,0
5,74,110,0
5,71,110,64
5,59,110,64
5,62,110,0
5,69,110,0
5,67,110,64
5,59,110,64
5,62,110,0
5,66,110,0
5,64,110,64
5,58,110,384
5,61,110,0
5,58,110,448
5,62,110,0
5,62,110,64
5,59,110,64
5,62,110,0
5,64,110,0
5,66,110,64
5,59,110,64
5,62,110,0
5,59,110,64
5,52,110,384
5,55,110,0
5,61,110,64
5,52,110,384
5,55,110,0
5,62,110,64
5,54,110,384
5,57,110,0
5,54,110,448
5,57,110,0
5,54,110,64
5,57,110,0
5,69,110,64
5,57,110,64
5,64,110,0
5,67,110,0
5,66,110,64
5,57,110,384
5,62,110,0
5,69,110,64
5,57,110,64
5,62,110,0
5,66,110,0
5,62,110,64
5,54,110,384
5,59,110,0
5,67,110,64
5,59,110,64
5,62,110,0
5,66,110,0
5,64,110,64
5,55,110,384
5,59,110,0
5,67,110,64
5,55,110,64
5,59,110,0
