track,note,velocity,time
3,67,110,2880
3,67,0,94
3,67,110,2
3,67,0,94
3,68,110,2
3,68,0,94
3,67,110,2
3,67,0,160
3,65,110,32
3,65,0,94
3,63,110,2
3,63,0,160
3,65,110,32
3,65,0,94
3,67,110,2
3,67,0,160
3,63,110,32
3,63,0,94
3,67,110,2
3,67,0,94
3,67,110,2
3,67,0,94
3,68,110,2
3,68,0,94
3,67,110,2
3,67,0,160
3,65,110,32
3,65,0,94
3,63,110,2
3,63,0,160
3,65,110,32
3,65,0,94
3,67,110,2
3,67,0,256
3,67,110,32
3,67,0,94
3,67,110,2
3,67,0,94
3,67,110,2
3,67,0,94
3,67,110,2
3,67,0,160
3,65,110,32
3,65,0,94
3,63,110,2
3,63,0,160
3,65,110,32
3,65,0,94
3,67,110,2
3,67,0,256
3,67,110,32
3,67,0,94
3,68,110,2
3,68,0,94
3,70,110,2
3,70,0,94
3,72,110,2
3,72,0,160
3,72,110,32
3,72,0,94
3,70,110,2
3,70,0,160
3,68,110,32
3,68,0,94
3,67,110,2
3,67,0,160
3,63,110,32
3,63,0,94
3,67,110,2
3,67,0,94
3,67,110,2
3,67,0,94
3,67,110,2
3,67,0,94
3,63,110,2
3,63,0,160
3,67,110,32
3,67,0,94
3,65,110,2
3,65,0,160
3,63,110,32
3,63,0,94
3,62,110,2
3,62,0,1104
3,63,110,336
3,63,0,94
3,63,110,2
3,63,0,94
3,63,110,2
3,63,0,94
3,65,110,2
3,65,0,256
3,67,110,32
3,67,0,94
3,67,110,2
3,67,0,94
3,67,110,2
3,67,0,94
3,60,110,2
3,60,0,160
3,60,110,32
3,60,0,94
3,63,110,2
3,63,0,94
3,63,110,2
3,63,0,94
3,63,110,2
3,63,0,94
3,65,110,2
3,65,0,160
3,65,110,32
3,65,0,94
3,67,110,2
3,67,0,94
3,67,110,2
3,67,0,94
3,67,110,2
3,67,0,94
3,60,110,2
3,60,0,256
3,67,110,608
3,67,0,94
3,67,110,2
3,67,0,94
3,68,110,2
3,68,0,94
3,67,110,2
3,67,0,160
3,65,110,32
3,65,0,94
3,63,110,2
3,63,0,160
3,65,110,32
3,65,0,94
3,67,110,2
3,67,0,160
3,63,110,32
3,63,0,94
3,67,110,2
3,67,0,94
3,67,110,2
3,67,0,94
3,68,110,2
3,68,0,94
3,67,110,2
3,67,0,160
3,65,110,32
3,65,0,94
3,63,110,2
3,63,0,160
3,65,110,32
3,65,0,94
3,67,110,2
3,67,0,256
3,67,110,32
3,67,0,94
3,67,110,2
3,67,0,94
3,67,110,2
3,67,0,94
3,67,110,2
3,67,0,160
3,65,110,32
3,65,0,94
3,63,110,2
3,63,0,160
3,65,110,32
3,65,0,94
3,67,110,2
3,67,0,256
3,67,110,32
3,67,0,94
3,68,110,2
3,68,0,94
3,70,110,2
3,70,0,94
3,72,110,2
3,72,0,160
3,72,110,32
3,72,0,94
3,70,110,2
3,70,0,160
3,68,110,32
3,68,0,94
3,67,110,2
3,67,0,160
3,63,110,32
3,63,0,94
3,67,110,2
3,67,0,94
3,67,110,2
3,67,0,94
3,67,110,2
3,67,0,94
3,63,110,2
3,63,0,160
3,67,110,32
3,67,0,94
3,65,110,2
3,65,0,160
3,63,110,32
3,63,0,94
3,62,110,2
3,62,0,1104
3,63,110,336
3,63,0,94
3,63,110,2
3,63,0,94
3,63,110,2
3,63,0,94
3,65,110,2
3,65,0,256
3,67,110,32
3,67,0,94
3,67,110,2
3,67,0,94
3,67,110,2
3,67,0,94
3,60,110,2
3,60,0,160
3,60,110,32
3,60,0,94
3,63,110,2
3,63,0,94
3,63,110,2
3,63,0,94
3,63,110,2
3,63,0,94
3,65,110,2
3,65,0,160
3,65,110,32
3,65,0,94
3,67,110,2
3,67,0,94
3,67,110,2
3,67,0,94
3,67,110,2
3,67,0,94
3,60,110,2
3,60,0,256
3,67,110,608
3,67,0,94
3,67,110,2
3,67,0,94
3,68,110,2
3,68,0,94
3,67,110,2
3,67,0,160
3,65,110,32
3,65,0,94
3,63,110,2
3,63,0,160
3,65,110,32
3,65,0,94
3,67,110,2
3,67,0,160
3,63,110,32
3,63,0,94
3,67,110,2
3,67,0,94
3,67,110,2
3,67,0,94
3,68,110,2
3,68,0,94
3,67,110,2
3,67,0,160
3,65,110,32
3,65,0,94
3,63,110,2
3,63,0,160
3,65,110,32
3,65,0,94
3,67,110,2
3,67,0,256
3,67,110,32
3,67,0,94
3,67,110,2
3,67,0,94
3,67,110,2
3,67,0,94
3,67,110,2
3,67,0,160
3,65,110,32
3,65,0,94
3,63,110,2
3,63,0,160
3,65,110,32
3,65,0,94
3,67,110,2
3,67,0,256
3,67,110,32
3,67,0,94
3,68,110,2
3,68,0,94
3,70,110,2
3,70,0,94
3,72,110,2
3,72,0,160
3,72,110,32
3,72,0,94
3,70,110,2
3,70,0,160
3,68,110,32
3,68,0,94
3,67,110,2
3,67,0,160
3,63,110,32
3,63,0,94
3,67,110,2
3,67,0,94
3,67,110,2
3,67,0,94
3,67,110,2
3,67,0,94
3,63,110,2
3,63,0,160
3,67,110,32
3,67,0,94
3,65,110,2
3,65,0,160
3,63,110,32
3,63,0,94
3,62,110,2
3,62,0,1104
3,63,110,336
3,63,0,94
3,63,110,2
3,63,0,94
3,63,110,2
3,63,0,94
3,65,110,2
3,65,0,256
3,67,110,32
3,67,0,94
3,67,110,2
3,67,0,94
3,67,110,2
3,67,0,94
3,60,110,2
3,60,0,160
3,60,110,32
3,60,0,94
3,63,110,2
3,63,0,94
3,63,110,2
3,63,0,94
3,63,110,2
3,63,0,94
3,65,110,2
3,65,0,160
3,65,110,32
3,65,0,94
3,67,110,2
3,67,0,94
3,67,110,2
3,67,0,94
3,67,110,2
3,67,0,94
3,60,110,2
3,60,0,256
3,67,110,608
3,67,0,94
3,67,110,2
3,67,0,94
3,68,110,2
3,68,0,94
3,67,110,2
3,67,0,160
3,65,110,32
3,65,0,94
3,63,110,2
3,63,0,160
3,65,110,32
3,65,0,94
3,67,110,2
3,67,0,160
3,63,110,32
3,63,0,94
3,67,110,2
3,67,0,94
3,67,110,2
3,67,0,94
3,68,110,2
3,68,0,94
3,67,110,2
3,67,0,160
3,65,110,32
3,65,0,94
3,63,110,2
3,63,0,160
3,65,110,32
3,65,0,94
3,67,110,2
3,67,0,256
3,67,110,32
3,67,0,94
3,67,110,2
3,67,0,94
3,67,110,2
3,67,0,94
3,67,110,2
3,67,0,160
3,65,110,32
3,65,0,94
3,63,110,2
3,63,0,160
3,65,110,32
3,65,0,94
3,67,110,2
3,67,0,256
3,67,110,32
3,67,0,94
3,68,110,2
3,68,0,94
3,70,110,2
3,70,0,94
3,72,110,2
3,72,0,160
3,72,110,32
3,72,0,94
3,70,110,2
3,70,0,160
3,68,110,32
3,68,0,94
3,67,110,2
3,67,0,160
3,63,110,32
3,63,0,94
3,67,110,2
3,67,0,94
3,67,110,2
3,67,0,94
3,67,110,2
3,67,0,94
3,63,110,2
3,63,0,160
3,67,110,32
3,67,0,94
3,65,110,2
3,65,0,160
3,63,110,32
3,63,0,94
3,62,110,2
3,62,0,1104
3,63,110,336
3,63,0,94
3,63,110,2
3,63,0,94
3,63,110,2
3,63,0,94
3,65,110,2
3,65,0,256
3,67,110,32
3,67,0,94
3,67,110,2
3,67,0,94
3,67,110,2
3,67,0,94
3,60,110,2
3,60,0,160
3,60,110,32
3,60,0,94
3,63,110,2
3,63,0,94
3,63,110,2
3,63,0,94
3,63,110,2
3,63,0,94
3,65,110,2
3,65,0,160
3,65,110,32
3,65,0,94
3,67,110,2
3,67,0,94
3,67,110,2
3,67,0,94
3,67,110,2
3,67,0,94
3,60,110,2
3,60,0,256
3,69,110,608
3,69,0,94
3,69,110,2
3,69,0,94
3,70,110,2
3,70,0,94
3,69,110,2
3,69,0,160
3,67,110,32
3,67,0,94
3,65,110,2
3,65,0,160
3,67,110,32
3,67,0,94
3,69,110,2
3,69,0,160
3,65,110,32
3,65,0,94
3,69,110,2
3,69,0,94
3,69,110,2
3,69,0,94
3,70,110,2
3,70,0,94
3,69,110,2
3,69,0,160
3,67,110,32
3,67,0,94
3,65,110,2
3,65,0,160
3,67,110,32
3,67,0,94
3,69,110,2
3,69,0,256
3,69,110,32
3,69,0,94
3,69,110,2
3,69,0,94
3,70,110,2
3,70,0,94
3,69,110,2
3,69,0,160
3,67,110,32
3,67,0,94
3,65,110,2
3,65,0,160
3,67,110,32
3,67,0,94
3,69,110,2
3,69,0,256
3,69,110,32
3,69,0,94
3,70,110,2
3,70,0,94
3,72,110,2
3,72,0,94
3,74,110,2
3,74,0,160
3,74,110,32
3,74,0,94
3,72,110,2
3,72,0,160
3,70,110,32
3,70,0,94
3,69,110,2
3,69,0,160
3,65,110,32
3,65,0,94
3,69,110,2
3,69,0,94
3,69,110,2
3,69,0,94
3,69,110,2
3,69,0,94
3,65,110,2
3,65,0,160
3,69,110,32
3,69,0,94
3,67,110,2
3,67,0,160
3,65,110,32
3,65,0,94
3,64,110,2
3,64,0,1104
3,65,110,336
3,65,0,94
3,65,110,2
3,65,0,94
3,65,110,2
3,65,0,94
3,67,110,2
3,67,0,256
3,69,110,32
3,69,0,94
3,69,110,2
3,69,0,94
3,69,110,2
3,69,0,94
3,62,110,2
3,62,0,160
3,62,110,32
3,62,0,94
3,65,110,2
3,65,0,94
3,65,110,2
3,65,0,94
3,65,110,2
3,65,0,94
3,67,110,2
3,67,0,160
3,67,110,32
3,67,0,94
3,69,110,2
3,69,0,94
3,69,110,2
3,69,0,94
3,69,110,2
3,69,0,94
3,62,110,2
3,62,0,160
4,55,110,0
4,60,110,0
4,63,110,0
4,63,0,94
4,63,110,2
4,63,0,94
4,63,110,2
4,55,0,64
4,60,0,0
4,63,0,30
4,56,110,2
4,60,110,0
4,65,110,0
4,56,0,256
4,60,0,0
4,65,0,0
4,59,110,32
4,62,110,0
4,67,110,0
4,67,0,94
4,67,110,2
4,67,0,94
4,67,110,2
4,59,0,64
4,62,0,0
4,67,0,30
4,51,110,2
4,55,110,0
4,60,110,0
4,60,0,160
4,60,110,32
4,51,0,64
4,55,0,0
4,60,0,30
4,55,110,2
4,60,110,0
4,63,110,0
4,63,0,94
4,63,110,2
4,63,0,94
4,63,110,2
4,55,0,64
4,60,0,0
4,63,0,30
4,56,110,2
4,60,110,0
4,65,110,0
4,65,0,160
4,65,110,32
4,56,0,64
4,60,0,0
4,65,0,30
4,59,110,2
4,62,110,0
4,67,110,0
4,67,0,94
4,67,110,2
4,67,0,94
4,67,110,2
4,59,0,64
4,62,0,0
4,67,0,30
4,51,110,2
4,55,110,0
4,60,110,0
4,51,0,832
4,55,0,0
4,60,0,0
4,59,110,32
4,62,110,0
4,67,110,0
4,59,0,256
4,62,0,0
4,67,0,0
4,60,110,32
4,63,110,192
4,67,110,0
4,60,0,96
4,63,0,0
4,67,0,0
4,59,110,0
4,63,110,192
4,67,110,0
4,59,0,96
4,63,0,0
4,67,0,0
4,58,110,0
4,63,110,192
4,67,110,0
4,58,0,64
4,63,0,32
4,67,0,0
4,59,110,0
4,63,110,192
4,67,110,0
4,59,0,64
4,63,0,30
4,67,0,0
4,60,110,2
4,63,110,192
4,67,110,0
4,60,0,64
4,63,0,32
4,67,0,0
4,59,110,0
4,63,110,192
4,67,110,0
4,59,0,64
4,63,0,32
4,67,0,0
4,58,110,0
4,63,110,192
4,67,110,0
4,58,0,64
4,63,0,30
4,67,0,0
4,59,110,2
4,63,110,192
4,67,110,0
4,59,0,64
4,63,0,32
4,67,0,0
4,60,110,0
4,63,110,192
4,67,110,0
4,60,0,64
4,63,0,32
4,67,0,0
4,59,110,0
4,63,110,192
4,67,110,0
4,59,0,64
4,63,0,32
4,67,0,0
4,60,110,0
4,63,110,192
4,67,110,0
4,60,0,64
4,63,0,30
4,67,0,0
4,58,110,2
4,63,110,192
4,67,110,0
4,58,0,64
4,63,0,30
4,67,0,0
4,56,110,2
4,60,110,192
4,63,110,0
4,65,110,0
4,56,0,64
4,60,0,30
4,63,0,0
4,65,0,0
4,56,110,2
4,60,110,192
4,62,110,0
4,65,110,0
4,56,0,64
4,60,0,30
4,62,0,0
4,65,0,0
4,55,110,2
4,58,110,192
4,60,110,0
4,63,110,0
4,55,0,64
4,58,0,30
4,60,0,0
4,63,0,0
4,55,110,2
4,58,110,192
4,60,110,0
4,63,110,0
4,55,0,64
4,58,0,30
4,60,0,0
4,63,0,0
4,56,110,2
4,60,110,192
4,65,110,0
4,56,0,64
4,60,0,30
4,65,0,0
4,53,110,2
4,60,110,192
4,65,110,0
4,53,0,64
4,60,0,30
4,65,0,0
4,53,110,2
4,55,110,0
4,59,110,0
4,62,110,0
4,53,0,1104
4,55,0,0
4,58,0,0
4,62,0,0
4,55,110,336
4,60,110,0
4,63,110,0
4,63,0,94
4,63,110,2
4,63,0,94
4,63,110,2
4,55,0,64
4,60,0,0
4,63,0,30
4,56,110,2
4,60,110,0
4,65,110,0
4,56,0,256
4,60,0,0
4,65,0,0
4,59,110,32
4,62,110,0
4,67,110,0
4,67,0,94
4,67,110,2
4,67,0,94
4,67,110,2
4,59,0,64
4,62,0,0
4,67,0,30
4,51,110,2
4,55,110,0
4,60,110,0
4,60,0,160
4,60,110,32
4,51,0,64
4,55,0,0
4,60,0,30
4,55,110,2
4,60,110,0
4,63,110,0
4,63,0,94
4,63,110,2
4,63,0,94
4,63,110,2
4,55,0,64
4,60,0,0
4,63,0,30
4,56,110,2
4,60,110,0
4,65,110,0
4,65,0,160
4,65,110,32
4,56,0,64
4,60,0,0
4,65,0,30
4,59,110,2
4,62,110,0
4,67,110,0
4,67,0,94
4,67,110,2
4,67,0,94
4,67,110,2
4,59,0,64
4,62,0,0
4,67,0,30
4,51,110,2
4,55,110,0
4,60,110,0
4,51,0,832
4,55,0,0
4,60,0,0
4,59,110,32
4,62,110,0
4,67,110,0
4,59,0,256
4,62,0,0
4,67,0,0
4,60,110,32
4,63,110,192
4,67,110,0
4,60,0,96
4,63,0,0
4,67,0,0
4,59,110,0
4,63,110,192
4,67,110,0
4,59,0,96
4,63,0,0
4,67,0,0
4,58,110,0
4,63,110,192
4,67,110,0
4,58,0,64
4,63,0,32
4,67,0,0
4,59,110,0
4,63,110,192
4,67,110,0
4,59,0,64
4,63,0,30
4,67,0,0
4,60,110,2
4,63,110,192
4,67,110,0
4,60,0,64
4,63,0,32
4,67,0,0
4,59,110,0
4,63,110,192
4,67,110,0
4,59,0,64
4,63,0,32
4,67,0,0
4,58,110,0
4,63,110,192
4,67,110,0
4,58,0,64
4,63,0,30
4,67,0,0
4,59,110,2
4,63,110,192
4,67,110,0
4,59,0,64
4,63,0,32
4,67,0,0
4,60,110,0
4,63,110,192
4,67,110,0
4,60,0,64
4,63,0,32
4,67,0,0
4,59,110,0
4,63,110,192
4,67,110,0
4,59,0,64
4,63,0,32
4,67,0,0
4,60,110,0
4,63,110,192
4,67,110,0
4,60,0,64
4,63,0,30
4,67,0,0
4,58,110,2
4,63,110,192
4,67,110,0
4,58,0,64
4,63,0,30
4,67,0,0
4,56,110,2
4,60,110,192
4,63,110,0
4,65,110,0
4,56,0,64
4,60,0,30
4,63,0,0
4,65,0,0
4,56,110,2
4,60,110,192
4,62,110,0
4,65,110,0
4,56,0,64
4,60,0,30
4,62,0,0
4,65,0,0
4,55,110,2
4,58,110,192
4,60,110,0
4,63,110,0
4,55,0,64
4,58,0,30
4,60,0,0
4,63,0,0
4,55,110,2
4,58,110,192
4,60,110,0
4,63,110,0
4,55,0,64
4,58,0,30
4,60,0,0
4,63,0,0
4,56,110,2
4,60,110,192
4,65,110,0
4,56,0,64
4,60,0,30
4,65,0,0
4,53,110,2
4,60,110,192
4,65,110,0
4,53,0,64
4,60,0,30
4,65,0,0
4,53,110,2
4,55,110,0
4,59,110,0
4,62,110,0
4,53,0,1104
4,55,0,0
4,58,0,0
4,62,0,0
4,55,110,336
4,60,110,0
4,63,110,0
4,63,0,94
