track,note,velocity,time
0,36,105,1536
0,39,60,92
0,39,60,92
0,39,60,188
0,36,105,380
0,56,59,188
0,56,59,92
0,39,60,92
0,56,59,92
0,56,59,188
0,36,105,92
0,56,59,92
0,36,105,284
0,56,59,0
0,56,59,188
0,36,105,188
0,56,59,0
0,39,60,188
0,39,60,92
0,39,60,188
0,39,60,188
0,41,84,92
0,36,105,0
0,42,64,0
0,39,60,92
0,42,64,0
0,39,60,92
0,42,64,0
0,41,84,48
0,42,64,0
0,38,84,32
0,39,60,0
0,42,94,0
0,42,94,92
0,41,84,32
0,36,85,0
0,42,94,0
0,42,94,92
0,36,105,32
0,42,64,0
0,42,64,92
0,42,64,92
0,56,59,0
0,42,64,92
0,56,59,0
0,39,60,92
0,42,94,0
0,42,94,92
0,56,59,0
0,38,84,92
0,42,94,0
0,42,94,64
0,56,59,0
0,41,90,92
0,36,105,0
0,42,64,0
0,42,64,8
0,56,59,0
0,42,64,4
0,42,64,0
0,42,94,56
0,56,59,0
0,42,94,32
0,41,84,8
0,36,85,0
0,42,94,0
0,56,59,0
0,42,94,0
0,36,105,92
0,42,64,0
0,56,59,0
0,42,64,92
0,39,60,92
0,42,64,0
0,39,60,92
0,42,64,0
0,42,94,92
0,39,60,92
0,42,94,0
0,36,85,92
0,42,94,0
0,39,60,92
0,42,94,0
0,41,84,92
0,36,105,0
0,42,64,0
0,39,60,92
0,42,64,0
0,39,60,92
0,42,64,0
0,41,84,48
0,42,64,0
0,38,84,32
0,39,60,0
0,42,94,0
0,42,94,92
0,41,84,32
0,36,85,0
0,42,94,0
0,42,94,92
0,36,105,32
0,42,64,0
0,42,64,92
0,42,64,92
0,56,59,0
0,42,64,92
0,56,59,0
0,39,60,92
0,42,94,0
0,42,94,92
0,56,59,0
0,38,84,92
0,42,94,0
0,42,94,64
0,56,59,0
0,41,90,92
0,36,105,0
0,42,64,0
0,42,64,8
0,56,59,0
0,42,64,4
0,42,64,0
0,42,94,56
0,56,59,0
0,42,94,32
0,41,84,8
0,36,85,0
0,42,94,0
0,56,59,0
0,42,94,32
0,36,105,92
0,42,64,0
0,56,59,0
0,36,77,92
0,40,100,0
0,42,64,0
0,41,84,16
0,40,107,0
0,39,60,0
0,42,64,0
0,40,111,92
0,39,60,0
0,42,64,0
0,38,84,48
0,40,115,0
0,42,94,0
0,40,119,92
0,39,60,0
0,42,94,0
0,36,84,48
0,40,123,0
0,42,94,0
0,40,127,92
0,39,60,0
0,42,94,0
0,41,84,48
0,69,64,0
0,65,64,0
0,81,127,0
0,72,122,0
0,69,125,0
0,69,114,0
0,60,109,0
0,65,97,0
0,36,105,0
0,42,64,0
0,49,100,0
0,54,67,0
0,42,64,16
0,42,64,92
0,54,17,0
0,60,93,4
0,41,74,8
0,60,111,0
0,69,116,0
0,65,105,0
0,36,85,0
0,42,64,0
0,65,86,16
0,67,110,8
0,69,116,4
0,38,84,8
0,84,121,0
0,72,122,0
0,77,115,0
0,40,127,0
0,42,94,0
0,54,67,0
0,42,94,4
0,41,83,24
0,36,105,0
0,42,94,0
0,54,17,0
0,42,94,92
0,42,64,48
0,54,67,0
0,42,64,92
0,42,64,92
0,54,17,0
0,56,59,0
0,42,64,92
0,56,59,0
0,38,64,92
0,69,117,0
0,81,117,0
0,40,127,0
0,42,94,0
0,54,67,0
0,42,94,0
0,56,59,0
0,42,94,92
0,54,17,0
0,69,100,48
0,81,100,0
0,42,94,0
0,56,59,0
0,41,84,0
0,67,107,0
0,79,107,0
0,69,110,0
0,60,108,0
0,65,99,0
0,36,105,0
0,42,64,0
0,54,67,0
0,42,64,36
0,56,59,0
0,65,114,0
0,77,114,0
0,42,64,0
0,54,17,0
0,41,74,28
0,69,110,0
0,60,103,0
0,65,98,0
0,36,95,0
0,42,64,0
0,41,74,32
0,40,127,0
0,42,94,0
0,54,67,0
0,56,59,0
0,42,94,0
0,41,84,92
0,67,117,0
0,79,117,0
0,36,85,0
0,42,94,0
0,54,17,0
0,56,59,0
0,42,94,24
0,69,111,92
0,81,111,0
0,69,114,0
0,60,110,0
0,65,99,0
0,36,105,0
0,42,64,0
0,54,67,0
0,56,59,0
0,42,64,36
0,69,119,92
0,81,119,0
0,42,64,0
0,54,17,0
0,69,110,32
0,60,107,0
0,65,97,0
0,42,64,0
0,38,74,44
0,67,119,0
0,79,119,0
0,40,127,0
0,42,94,0
0,54,67,0
0,42,94,0
0,42,94,36
0,54,17,0
0,42,94,92
0,41,84,92
0,81,123,0
0,72,125,0
0,69,125,0
0,69,114,0
0,60,109,0
0,65,97,0
0,36,105,0
0,42,64,0
0,54,67,0
0,42,64,16
0,42,64,92
0,54,17,0
0,60,94,20
0,41,74,20
0,60,111,0
0,69,116,0
0,65,105,0
0,36,85,0
0,42,64,0
0,65,87,0
0,67,108,4
0,69,112,0
0,38,84,0
0,84,121,0
0,72,125,0
0,77,115,0
0,40,127,0
0,42,94,0
0,54,67,0
0,42,94,8
0,41,83,32
0,36,105,0
0,42,94,0
0,54,17,0
0,42,94,92
0,42,64,72
0,54,67,0
0,42,64,92
0,42,64,92
0,54,17,0
0,56,59,0
0,42,64,92
0,56,59,0
0,38,64,8
0,69,117,0
0,81,117,0
0,40,127,0
0,42,94,0
0,54,67,0
0,42,94,0
0,56,59,0
0,42,94,0
0,54,17,0
0,69,95,8
0,81,95,0
0,42,94,0
0,56,59,0
0,41,84,84
0,67,107,0
0,79,107,0
0,69,110,0
0,60,108,0
0,65,99,0
0,36,105,0
0,42,64,0
0,54,67,0
0,42,64,36
0,56,59,0
0,65,114,0
0,77,114,0
0,42,64,0
0,54,17,0
0,41,74,28
0,69,110,0
0,60,103,0
0,65,98,0
0,36,95,0
0,42,64,0
0,41,74,32
0,40,127,0
0,42,94,0
0,54,67,0
0,56,59,0
0,42,94,0
0,41,84,92
0,67,117,0
0,79,117,0
0,36,85,0
0,42,94,0
0,54,17,0
0,56,59,0
0,42,94,24
0,41,84,92
0,69,111,0
0,81,111,0
0,69,114,0
0,60,110,0
0,65,99,0
0,36,105,0
0,42,64,0
0,54,67,0
0,56,59,0
0,42,64,36
0,69,119,0
0,81,119,0
0,42,64,0
0,54,17,0
0,69,110,32
0,60,107,0
0,65,97,0
0,42,64,0
0,40,84,44
0,67,119,0
0,79,119,0
0,40,127,0
0,42,94,0
0,54,67,0
0,42,94,0
0,42,94,0
0,54,17,0
0,42,94,36
0,38,84,92
0,81,124,0
0,72,122,0
0,69,125,0
0,69,109,0
0,60,105,0
0,65,102,0
0,36,105,0
0,42,64,0
0,54,67,0
0,42,64,40
0,42,64,0
0,54,17,0
0,60,92,40
0,38,74,0
0,65,77,0
0,69,108,0
0,60,108,0
0,65,96,0
0,36,95,0
0,42,64,0
0,67,102,12
0,69,92,0
0,36,74,8
0,84,121,0
0,72,122,0
0,77,115,0
0,40,127,0
0,42,94,0
0,54,67,0
0,42,94,0
0,38,84,32
0,36,105,0
0,42,94,0
0,54,17,0
0,42,94,92
0,42,64,32
0,54,67,0
0,42,64,92
0,42,64,92
0,54,17,0
0,56,59,0
0,42,64,92
0,56,59,0
0,36,74,8
0,69,117,0
0,81,117,0
0,40,127,0
0,42,94,0
0,54,67,0
0,42,94,0
0,56,59,0
0,42,94,0
0,54,17,0
0,69,100,8
0,81,100,0
0,42,94,0
0,56,59,0
0,38,84,84
0,67,112,0
0,79,112,0
0,69,107,0
0,65,101,0
0,60,103,0
0,36,105,0
0,42,64,0
0,54,67,0
0,42,64,40
0,56,59,0
0,65,114,0
0,77,114,0
0,42,64,0
0,54,17,0
0,38,74,28
0,69,105,0
0,65,92,0
0,60,90,0
0,36,85,0
0,42,64,0
0,38,84,36
0,40,127,0
0,42,94,0
0,54,67,0
0,56,59,0
0,42,94,32
0,38,74,92
0,67,116,0
0,79,116,0
0,36,85,0
0,42,94,0
0,54,17,0
0,56,59,0
0,42,94,32
0,38,84,92
0,69,112,0
0,81,112,0
0,69,110,0
0,60,107,0
0,65,103,0
0,36,105,0
0,42,64,0
0,54,67,0
0,56,59,0
0,42,64,32
0,69,111,92
0,81,111,0
0,42,64,0
0,54,17,0
0,69,109,0
0,60,105,0
0,65,98,0
0,42,64,0
0,36,84,24
0,67,119,0
0,79,119,0
0,40,127,0
0,42,94,0
0,54,67,0
0,42,94,0
0,42,94,0
0,54,17,0
0,42,94,0
0,34,84,92
0,77,64,0
0,70,64,0
0,72,64,0
0,81,124,0
0,72,122,0
0,69,122,0
0,70,106,0
0,62,107,0
0,65,97,0
0,36,105,0
0,42,64,0
0,54,67,0
0,42,64,20
0,42,64,0
0,54,17,0
0,60,100,48
0,34,74,0
0,70,104,0
0,62,103,0
0,65,98,0
0,36,95,0
0,42,64,0
0,65,94,4
0,67,107,4
0,69,111,0
0,34,74,4
0,84,123,0
0,72,115,0
0,77,106,0
0,74,42,0
0,40,127,0
0,42,94,0
0,54,67,0
0,42,94,0
0,34,84,68
0,36,105,0
0,42,94,0
0,54,17,0
0,42,94,92
0,42,64,32
0,54,67,0
0,42,64,92
0,42,64,92
0,54,17,0
0,56,59,0
0,42,64,92
0,56,59,0
0,40,127,92
0,42,94,0
0,54,67,0
0,42,94,92
0,56,59,0
0,33,74,92
0,65,104,0
0,77,104,0
0,69,57,0
0,42,94,0
0,54,17,0
0,33,74,32
0,65,109,0
0,77,109,0
0,69,81,0
0,42,94,0
0,56,59,0
0,31,84,32
0,65,116,0
0,77,116,0
0,69,85,0
0,70,108,0
0,62,108,0
0,65,98,0
0,36,105,0
0,42,64,0
0,54,67,0
0,42,64,20
0,56,59,0
0,67,109,92
0,79,109,0
0,70,85,0
0,42,64,0
0,54,17,0
0,70,105,24
0,62,103,0
0,65,98,0
0,36,95,0
0,42,64,0
0,33,84,20
0,69,115,0
0,81,115,0
0,72,122,0
0,40,127,0
0,42,94,0
0,54,67,0
0,56,59,0
0,42,94,12
0,67,124,92
0,79,124,0
0,70,123,0
0,36,85,0
0,42,94,0
0,54,17,0
0,56,59,0
0,42,94,4
0,34,84,8
0,70,106,0
0,62,107,0
0,65,99,0
0,36,105,0
0,42,64,0
0,54,67,0
0,56,59,0
0,62,93,8
0,70,89,0
0,65,91,0
0,42,64,0
0,42,64,0
0,54,17,0
0,42,64,8
0,36,84,4
0,65,116,0
0,77,116,0
0,69,115,0
0,70,104,0
0,62,103,0
0,65,90,0
0,40,127,0
0,42,94,0
0,54,67,0
0,70,70,8
0,62,94,0
0,65,80,0
0,42,94,0
0,42,94,16
0,54,17,0
0,42,94,92
0,41,84,32
0,69,64,0
0,65,64,0
0,81,123,0
0,72,122,0
0,69,115,0
0,69,111,0
0,60,108,0
0,65,101,0
0,36,105,0
0,42,64,0
0,54,67,0
0,42,64,24
0,42,64,92
0,54,17,0
0,60,78,44
0,41,74,8
0,69,109,0
0,60,108,0
0,65,105,0
0,36,95,0
0,42,64,0
0,65,91,4
0,67,108,0
0,69,111,4
0,38,74,4
0,84,124,0
0,77,106,0
0,72,125,0
0,40,127,0
0,42,94,0
0,54,67,0
0,42,94,4
0,41,84,32
0,36,105,0
0,42,94,0
0,54,17,0
0,42,94,92
0,42,64,32
0,54,67,0
0,42,64,92
0,42,64,92
0,54,17,0
0,42,64,92
0,38,74,92
0,40,127,0
0,42,94,0
0,43,110,0
0,54,67,0
0,42,94,0
0,42,94,92
0,54,17,0
0,60,85,72
0,42,94,20
0,65,80,0
0,67,111,12
0,69,112,0
0,41,84,8
0,81,115,0
0,72,122,0
0,69,108,0
0,60,109,0
0,65,99,0
0,36,105,0
0,40,127,0
0,54,77,0
0,54,37,0
0,38,84,24
0,67,107,0
0,79,107,0
0,70,67,0
0,40,97,0
0,54,77,0
0,69,105,0
0,60,104,0
0,65,92,0
0,54,37,0
0,36,84,32
0,65,112,0
0,77,112,0
0,69,98,0
0,40,117,0
0,54,77,0
0,54,37,8
0,41,84,72
0,65,123,0
0,77,123,0
0,69,126,0
0,69,116,0
0,65,109,0
0,60,115,0
0,36,105,0
0,40,127,0
0,54,77,0
0,81,101,0
0,72,101,0
0,77,101,0
0,69,98,0
0,81,86,0
0,72,86,0
0,77,86,0
0,69,83,0
0,79,90,0
0,72,89,0
0,76,89,0
0,67,90,0
0,79,75,0
0,72,74,0
0,76,74,0
0,67,75,0
0,36,105,0
0,46,90,0
0,36,84,16
0,36,105,0
0,42,80,0
0,54,37,0
0,42,80,92
0,54,77,0
0,67,62,28
0,42,80,0
0,54,37,0
0,36,74,92
0,33,74,32
0,72,90,0
0,40,127,0
0,42,80,0
0,36,84,116
0,72,69,0
0,36,105,0
0,42,80,0
0,72,74,124
0,42,80,0
0,42,80,188
0,40,127,0
0,42,80,0
0,33,74,4
0,72,64,0
0,42,80,0
0,42,80,8
0,54,77,0
0,36,84,16
0,74,77,0
0,36,105,0
0,42,80,0
0,54,37,0
0,42,80,92
0,54,77,0
0,42,80,8
0,54,37,0
0,72,58,88
0,36,74,0
0,42,80,0
0,36,74,24
0,40,127,0
0,42,80,0
0,36,84,128
0,72,85,0
0,36,85,0
0,42,80,0
0,36,105,128
0,42,80,0
0,75,60,0
0,75,60,0
0,75,60,4
0,42,80,0
0,75,60,0
0,36,74,4
0,74,85,0
0,40,127,0
0,42,80,0
0,43,127,0
0,36,74,116
0,76,74,0
0,42,80,0
0,62,78,16
0,62,63,0
0,36,74,20
0,54,77,0
0,65,78,12
0,65,63,0
0,69,78,0
0,69,63,0
0,38,84,8
0,77,95,0
0,36,105,0
0,42,80,0
0,54,37,0
0,42,80,64
0,54,77,0
0,42,80,32
0,54,37,0
0,38,74,8
0,76,85,8
0,36,74,4
0,40,127,0
0,42,80,0
0,38,84,116
0,77,102,0
0,36,105,0
0,42,80,0
0,42,80,4
0,81,85,84
0,42,80,0
0,40,127,92
0,42,80,0
0,36,74,188
0,74,88,0
0,42,80,0
0,42,80,32
0,54,77,0
0,38,84,16
0,36,105,0
0,42,80,0
0,54,37,0
0,42,80,92
0,54,77,0
0,77,88,4
0,81,108,0
0,65,88,0
0,69,88,0
0,77,73,0
0,81,93,0
0,65,73,0
0,69,73,0
0,42,80,0
0,54,37,0
0,38,74,8
0,42,80,0
0,36,84,4
0,74,78,0
0,77,98,0
0,62,78,0
0,65,78,0
0,74,63,0
0,77,83,0
0,62,63,0
0,65,63,0
0,40,127,0
0,42,80,0
0,70,88,8
0,74,108,0
0,58,88,0
0,62,88,0
0,70,73,0
0,74,93,0
0,58,73,0
0,62,73,0
0,36,85,0
0,42,80,0
0,31,84,8
0,67,78,0
0,70,98,0
0,55,78,0
0,58,78,0
0,67,63,0
0,70,83,0
0,55,63,0
0,58,63,0
0,36,105,0
0,42,80,0
0,70,88,88
0,74,108,0
0,58,88,0
0,62,88,0
0,70,73,0
0,74,93,0
0,58,73,0
0,62,73,0
0,42,80,0
0,34,74,32
0,77,78,0
0,81,98,0
0,65,78,0
0,69,78,0
0,77,63,0
0,81,83,0
0,65,63,0
0,69,63,0
0,40,127,0
0,39,60,0
0,42,80,0
0,43,127,0
0,33,74,0
0,76,88,0
0,79,108,0
0,64,88,0
0,67,88,0
0,76,73,0
0,79,93,0
0,64,73,0
0,67,73,0
0,42,80,0
0,54,77,32
0,36,84,92
0,36,105,0
0,42,80,0
0,54,37,0
0,42,80,48
0,54,77,0
0,67,62,28
0,42,80,4
0,54,37,0
0,36,74,92
0,33,74,0
0,72,90,0
0,40,127,0
0,42,80,0
0,36,84,32
0,72,69,0
0,36,105,0
0,42,80,0
0,72,74,124
0,42,80,0
0,42,80,188
0,40,127,0
0,42,80,0
0,33,74,4
0,72,64,0
0,42,80,0
0,42,80,8
0,54,77,0
0,36,84,16
0,74,77,0
0,36,105,0
0,42,80,0
0,54,37,0
0,42,80,92
0,54,77,0
0,42,80,8
0,54,37,0
0,72,58,60
0,36,74,4
0,42,80,0
0,36,74,24
0,40,127,0
0,42,80,0
0,36,84,128
0,72,85,0
0,36,85,0
0,42,80,0
0,36,105,128
