track,note,velocity,time
4,48,110,352
4,48,0,120
4,43,110,0
4,43,0,120
4,36,110,0
4,36,0,120
4,31,110,0
4,31,0,120
4,36,110,0
4,36,0,120
4,43,110,0
4,43,0,120
4,36,110,0
4,36,0,117
4,33,90,3
4,33,0,60
4,35,90,0
4,35,0,60
4,36,110,0
4,36,0,120
4,43,110,0
4,43,0,120
4,33,110,0
4,33,0,120
4,28,110,0
4,28,0,120
4,43,110,0
4,43,0,120
4,38,110,0
4,38,0,120
4,36,110,0
4,36,0,120
4,31,110,0
4,31,0,120
4,36,110,0
4,36,0,120
4,43,110,0
4,43,0,120
4,33,110,0
4,33,0,120
4,40,110,0
4,40,0,120
4,43,110,0
4,43,0,120
4,38,110,0
4,38,0,120
4,36,110,0
4,36,0,120
4,31,110,0
4,31,0,120
4,36,110,0
4,36,0,120
4,43,110,0
4,43,0,120
4,45,110,0
4,45,0,120
4,40,110,0
4,40,0,120
4,43,110,0
4,43,0,120
4,38,110,0
4,38,0,120
4,36,110,0
4,36,0,120
4,43,110,0
4,43,0,120
4,36,110,0
4,36,0,120
4,31,110,0
4,31,0,120
4,33,110,0
4,33,0,120
4,28,110,0
4,28,0,120
4,43,110,0
4,43,0,120
4,38,110,0
4,38,0,120
4,36,110,0
4,36,0,120
4,31,110,0
4,31,0,120
4,45,110,0
4,45,0,120
4,40,110,0
4,40,0,120
4,33,110,0
4,33,0,57
4,33,90,3
4,33,0,60
4,35,90,0
4,35,0,60
4,37,90,0
4,37,0,60
4,38,110,0
4,38,0,120
4,33,110,0
4,33,0,120
4,31,110,0
4,31,0,120
4,38,110,0
4,38,0,120
4,45,110,0
4,45,0,120
4,40,110,0
4,40,0,120
4,33,110,0
4,33,0,120
4,28,110,0
4,28,0,120
4,38,110,0
4,38,0,120
4,33,110,0
4,33,0,120
4,43,110,0
4,43,0,120
4,38,110,0
4,38,0,120
4,33,110,0
4,33,0,120
4,28,110,0
4,28,0,120
4,33,110,0
4,33,0,57
4,33,90,3
4,33,0,60
4,35,90,0
4,35,0,60
4,37,90,0
4,37,0,60
4,38,110,0
4,38,0,120
4,45,110,0
4,45,0,120
4,43,110,0
4,43,0,120
4,38,110,0
4,38,0,120
4,33,110,0
4,33,0,120
4,28,110,0
4,28,0,120
4,38,110,0
4,38,0,120
4,33,110,0
4,33,0,120
4,31,110,0
4,31,0,120
4,38,110,0
4,38,0,120
4,36,110,0
4,36,0,120
4,43,110,0
4,43,0,120
4,48,110,0
4,48,0,109
4,47,110,11
4,47,0,69
4,45,110,11
4,43,110,40
4,45,0,4
4,43,0,55
4,41,110,1
4,41,0,59
4,40,110,1
4,40,0,59
4,38,110,1
4,38,0,44
4,36,110,16
4,36,0,120
4,43,110,0
4,43,0,120
4,36,110,0
4,36,0,117
4,33,90,3
4,33,0,60
4,35,90,0
4,35,0,60
4,36,110,0
4,36,0,120
4,31,110,0
4,31,0,120
4,33,110,0
4,33,0,120
4,28,110,0
4,28,0,120
4,43,110,0
4,43,0,120
4,38,110,0
4,38,0,120
4,36,110,0
4,36,0,120
4,43,110,0
4,43,0,120
4,48,110,0
4,48,0,120
4,43,110,0
4,43,0,120
4,33,110,0
4,33,0,120
4,40,110,0
4,40,0,120
4,43,110,0
4,43,0,120
4,38,110,0
4,38,0,120
4,48,110,0
4,48,0,120
4,43,110,0
4,43,0,120
4,36,110,0
4,36,0,120
4,43,110,0
4,43,0,120
4,33,110,0
4,33,0,120
4,28,110,0
4,28,0,120
4,43,110,0
4,43,0,120
4,38,110,0
4,38,0,120
4,36,110,0
4,36,0,120
4,31,110,0
4,31,0,120
4,36,110,0
4,36,0,120
4,43,110,0
4,43,0,120
4,45,110,0
4,45,0,120
4,40,110,0
4,40,0,120
4,43,110,0
4,43,0,120
4,38,110,0
4,38,0,120
4,36,110,0
4,36,0,120
4,43,110,0
4,43,0,120
4,33,110,0
4,33,0,120
4,40,110,0
4,40,0,120
4,45,110,0
4,45,0,117
4,35,110,3
4,35,0,60
4,37,90,0
4,37,0,60
4,38,110,0
4,38,0,120
4,45,110,0
4,45,0,120
4,43,110,0
4,43,0,120
4,38,110,0
4,38,0,120
4,45,110,0
4,45,0,120
4,40,110,0
4,40,0,120
4,33,110,0
4,33,0,120
4,40,110,0
4,40,0,120
4,38,110,0
4,38,0,120
4,45,110,0
4,45,0,120
4,43,110,0
4,43,0,120
4,38,110,0
4,38,0,120
4,33,110,0
4,33,0,120
4,28,110,0
4,28,0,120
4,45,110,0
4,45,0,117
4,35,110,3
4,35,0,60
4,37,90,0
4,37,0,60
4,38,110,0
4,38,0,120
4,45,110,0
4,45,0,120
4,43,110,0
4,43,0,120
4,38,110,0
4,38,0,120
4,33,110,0
4,33,0,120
4,40,110,0
4,40,0,120
4,38,110,0
4,38,0,120
4,45,110,0
4,45,0,120
4,43,110,0
4,43,0,120
4,38,110,0
4,38,0,120
4,36,110,0
4,36,0,120
4,31,110,0
4,31,0,120
4,48,110,0
4,48,0,109
4,47,110,11
4,47,0,69
4,45,110,11
4,43,110,40
4,45,0,4
4,43,0,55
4,41,110,1
4,41,0,59
4,40,110,1
4,40,0,59
4,38,110,1
4,38,0,44
4,36,110,16
4,36,0,120
4,43,110,0
4,43,0,120
4,36,110,0
4,36,0,117
4,33,90,3
4,33,0,60
4,35,90,0
4,35,0,60
4,36,110,0
4,36,0,120
4,31,110,0
4,31,0,120
4,33,110,0
4,33,0,120
4,40,110,0
4,40,0,120
4,31,110,0
4,31,0,120
4,38,110,0
4,38,0,120
4,48,110,0
4,48,0,120
4,43,110,0
4,43,0,120
4,36,110,0
4,36,0,120
4,31,110,0
4,31,0,120
4,33,110,0
4,33,0,120
4,40,110,0
4,40,0,120
4,43,110,0
4,43,0,120
4,38,110,0
4,38,0,120
4,36,110,0
4,36,0,120
4,43,110,0
4,43,0,120
4,36,110,0
4,36,0,120
4,31,110,0
4,31,0,120
4,45,110,0
4,45,0,120
4,40,110,0
4,40,0,120
4,31,110,0
4,31,0,120
4,38,110,0
4,38,0,120
4,36,110,0
4,36,0,120
4,31,110,0
4,31,0,120
4,36,110,0
4,36,0,120
4,31,110,0
4,31,0,120
4,33,110,0
4,33,0,120
4,40,110,0
4,40,0,120
4,43,110,0
4,43,0,120
4,38,110,0
4,38,0,120
4,36,110,0
4,36,0,120
4,43,110,0
4,43,0,120
4,33,110,0
4,33,0,120
4,28,110,0
4,28,0,120
4,33,110,0
4,33,0,57
4,38,90,3
4,38,0,120
4,40,90,0
4,40,0,60
4,50,110,0
4,50,0,120
4,45,110,0
4,45,0,120
4,43,110,0
4,43,0,120
4,38,110,0
4,38,0,120
4,33,110,0
4,33,0,120
4,40,110,0
4,40,0,120
4,45,110,0
4,45,0,120
4,40,110,0
4,40,0,120
4,38,110,0
4,38,0,120
4,33,110,0
4,33,0,120
4,43,110,0
4,43,0,120
4,38,110,0
4,38,0,120
4,33,110,0
4,33,0,120
4,40,110,0
4,40,0,120
4,45,110,0
4,45,0,57
4,37,90,3
4,37,0,60
4,38,110,0
4,38,0,60
4,40,90,0
4,40,0,60
4,50,110,0
4,50,0,120
4,45,110,0
4,45,0,120
4,31,110,0
4,31,0,120
4,38,110,0
4,38,0,120
4,33,110,0
4,33,0,120
4,40,110,0
4,40,0,120
4,38,110,0
4,38,0,120
4,33,110,0
4,33,0,120
4,43,110,0
4,43,0,120
4,38,110,0
4,38,0,120
4,36,110,0
4,36,0,120
4,31,110,0
4,31,0,120
4,48,110,0
4,48,0,120
4,43,110,0
4,43,0,120
4,36,110,0
4,36,0,120
4,31,110,0
4,31,0,120
4,36,110,0
4,36,0,120
4,43,110,0
4,43,0,120
4,36,110,0
4,36,0,117
4,33,90,3
4,33,0,60
4,35,90,0
4,35,0,60
4,36,110,0
4,36,0,120
4,43,110,0
4,43,0,120
4,33,110,0
4,33,0,120
4,28,110,0
4,28,0,120
4,43,110,0
4,43,0,120
4,38,110,0
4,38,0,120
4,36,110,0
4,36,0,120
4,31,110,0
4,31,0,120
4,36,110,0
4,36,0,120
4,43,110,0
4,43,0,120
4,33,110,0
4,33,0,120
4,40,110,0
4,40,0,120
4,43,110,0
4,43,0,120
4,38,110,0
4,38,0,120
4,36,110,0
4,36,0,120
4,31,110,0
4,31,0,120
4,36,110,0
4,36,0,120
4,43,110,0
4,43,0,120
4,45,110,0
4,45,0,120
4,40,110,0
4,40,0,120
4,43,110,0
4,43,0,120
4,38,110,0
4,38,0,120
4,36,110,0
4,36,0,120
4,43,110,0
4,43,0,120
4,36,110,0
4,36,0,120
4,31,110,0
4,31,0,120
4,33,110,0
4,33,0,120
4,28,110,0
4,28,0,120
4,43,110,0
4,43,0,120
4,38,110,0
4,38,0,120
4,36,110,0
4,36,0,120
4,31,110,0
4,31,0,120
4,45,110,0
4,45,0,120
4,40,110,0
4,40,0,120
4,33,110,0
4,33,0,57
4,33,90,3
4,33,0,60
4,35,90,0
4,35,0,60
4,37,90,0
4,37,0,60
4,38,110,0
4,38,0,120
4,33,110,0
4,33,0,120
4,31,110,0
4,31,0,120
4,38,110,0
4,38,0,120
4,45,110,0
4,45,0,120
4,40,110,0
4,40,0,120
4,33,110,0
4,33,0,120
4,28,110,0
4,28,0,120
4,38,110,0
4,38,0,120
4,33,110,0
4,33,0,120
4,43,110,0
4,43,0,120
4,38,110,0
4,38,0,120
4,33,110,0
4,33,0,120
4,28,110,0
4,28,0,120
4,33,110,0
4,33,0,57
4,33,90,3
4,33,0,60
4,35,90,0
4,35,0,60
4,37,90,0
4,37,0,60
4,38,110,0
4,38,0,120
4,45,110,0
4,45,0,120
4,43,110,0
4,43,0,120
4,38,110,0
4,38,0,120
4,33,110,0
4,33,0,120
4,28,110,0
4,28,0,120
4,38,110,0
4,38,0,120
4,33,110,0
4,33,0,120
4,31,110,0
4,31,0,120
4,38,110,0
4,38,0,120
4,36,110,0
4,36,0,120
4,43,110,0
4,43,0,120
4,48,110,0
4,48,0,109
4,47,110,11
4,47,0,69
4,45,110,11
4,43,110,40
4,45,0,4
4,43,0,55
4,41,110,1
4,41,0,59
4,40,110,1
4,40,0,59
4,38,110,1
4,38,0,44
4,36,110,16
4,36,0,120
4,43,110,0
4,43,0,120
4,36,110,0
4,36,0,117
4,33,90,3
4,33,0,60
4,35,90,0
4,35,0,60
4,36,110,0
4,36,0,120
4,31,110,0
4,31,0,120
4,33,110,0
4,33,0,120
4,28,110,0
4,28,0,120
4,43,110,0
4,43,0,120
4,38,110,0
4,38,0,120
4,36,110,0
4,36,0,120
4,43,110,0
4,43,0,120
4,48,110,0
4,48,0,120
4,43,110,0
4,43,0,120
4,33,110,0
4,33,0,120
4,40,110,0
4,40,0,120
4,43,110,0
4,43,0,120
4,38,110,0
4,38,0,120
4,48,110,0
4,48,0,120
4,43,110,0
4,43,0,120
4,36,110,0
4,36,0,120
4,43,110,0
4,43,0,120
4,33,110,0
4,33,0,120
4,28,110,0
4,28,0,120
4,43,110,0
4,43,0,120
4,38,110,0
4,38,0,120
4,36,110,0
4,36,0,120
4,31,110,0
4,31,0,120
4,36,110,0
4,36,0,120
4,43,110,0
4,43,0,120
4,45,110,0
4,45,0,120
4,40,110,0
4,40,0,120
4,43,110,0
4,43,0,120
4,38,110,0
4,38,0,120
4,36,110,0
4,36,0,120
4,43,110,0
4,43,0,120
4,33,110,0
4,33,0,120
4,40,110,0
4,40,0,120
4,45,110,0
4,45,0,117
4,35,110,3
4,35,0,60
4,37,90,0
4,37,0,60
4,38,110,0
4,38,0,120
4,45,110,0
4,45,0,120
4,43,110,0
4,43,0,120
4,38,110,0
4,38,0,120
4,45,110,0
4,45,0,120
4,40,110,0
4,40,0,120
4,33,110,0
4,33,0,120
4,40,110,0
4,40,0,120
4,38,110,0
4,38,0,120
4,45,110,0
4,45,0,120
4,43,110,0
4,43,0,120
4,38,110,0
4,38,0,120
4,33,110,0
4,33,0,120
4,28,110,0
4,28,0,120
4,45,110,0
4,45,0,117
4,35,110,3
4,35,0,60
4,37,90,0
4,37,0,60
4,38,110,0
4,38,0,120
4,45,110,0
4,45,0,120
4,43,110,0
4,43,0,120
4,38,110,0
4,38,0,120
4,33,110,0
4,33,0,120
4,40,110,0
4,40,0,120
4,38,110,0
4,38,0,120
4,45,110,0
4,45,0,120
4,43,110,0
4,43,0,120
4,38,110,0
4,38,0,120
4,36,110,0
4,36,0,120
4,31,110,0
4,31,0,120
4,48,110,0
4,48,0,109
4,47,110,11
4,47,0,69
4,45,110,11
4,43,110,40
4,45,0,4
4,43,0,55
4,41,110,1
4,41,0,59
4,40,110,1
4,40,0,59
4,38,110,1
4,38,0,44
4,36,110,16
4,36,0,120
4,43,110,0
4,43,0,120
4,36,110,0
4,36,0,117
4,33,90,3
4,33,0,60
4,35,90,0
4,35,0,60
4,36,110,0
4,36,0,120
4,31,110,0
4,31,0,120
4,33,110,0
4,33,0,120
4,40,110,0
4,40,0,120
4,31,110,0
4,31,0,120
4,38,110,0
4,38,0,120
4,48,110,0
4,48,0,120
4,43,110,0
4,43,0,120
4,36,110,0
4,36,0,120
4,31,110,0
4,31,0,120
4,33,110,0
4,33,0,120
4,40,110,0
4,40,0,120
4,43,110,0
4,43,0,120
4,38,110,0
4,38,0,120
4,36,110,0
4,36,0,120
4,43,110,0
4,43,0,120
4,36,110,0
4,36,0,120
4,31,110,0
4,31,0,120
4,45,110,0
4,45,0,120
4,40,110,0
4,40,0,120
4,31,110,0
4,31,0,120
4,38,110,0
4,38,0,120
4,36,110,0
4,36,0,120
4,31,110,0
4,31,0,120
4,36,110,0
4,36,0,120
4,31,110,0
4,31,0,120
4,33,110,0
4,33,0,120
4,40,110,0
4,40,0,120
4,43,110,0
4,43,0,120
4,38,110,0
4,38,0,120
4,36,110,0
4,36,0,120
4,43,110,0
4,43,0,120
4,33,110,0
4,33,0,120
4,28,110,0
4,28,0,120
4,33,110,0
4,33,0,57
4,38,90,3
4,38,0,120
4,40,90,0
4,40,0,60
4,50,110,0
4,50,0,120
4,45,110,0
4,45,0,120
4,43,110,0
4,43,0,120
4,38,110,0
4,38,0,120
4,33,110,0
4,33,0,120
4,40,110,0
4,40,0,120
4,45,110,0
4,45,0,120
4,40,110,0
4,40,0,120
4,38,110,0
4,38,0,120
4,33,110,0
4,33,0,120
4,43,110,0
4,43,0,120
4,38,110,0
4,38,0,120
4,33,110,0
4,33,0,120
4,40,110,0
4,40,0,120
4,45,110,0
4,45,0,57
4,37,90,3
4,37,0,60
4,38,110,0
4,38,0,60
4,40,90,0
4,40,0,60
4,50,110,0
4,50,0,120
4,45,110,0
4,45,0,120
4,31,110,0
4,31,0,120
4,38,110,0
4,38,0,120
4,33,110,0
4,33,0,120
4,40,110,0
4,40,0,120
4,38,110,0
4,38,0,120
4,33,110,0
4,33,0,120
4,43,110,0
4,43,0,120
4,38,110,0
4,38,0,120
4,36,110,0
4,36,0,120
4,31,110,0
4,31,0,120
4,48,110,0
4,48,0,120
4,43,110,0
4,43,0,120
4,36,110,0
4,36,0,120
4,31,110,0
4,31,0,120
4,36,110,0
4,36,0,120
4,43,110,0
4,43,0,120
4,36,110,0
4,36,0,117
4,33,90,3
4,33,0,60
4,35,90,0
4,35,0,60
4,36,110,0
4,36,0,120
4,43,110,0
4,43,0,120
4,33,110,0
4,33,0,120
4,28,110,0
4,28,0,120
4,43,110,0
4,43,0,120
4,38,110,0
4,38,0,120
4,36,110,0
4,36,0,120
4,31,110,0
4,31,0,120
4,36,110,0
4,36,0,120
4,43,110,0
4,43,0,120
4,33,110,0
4,33,0,120
4,40,110,0
4,40,0,120
4,43,110,0
4,43,0,120
4,38,110,0
4,38,0,120
4,36,110,0
4,36,0,120
4,31,110,0
4,31,0,120
4,36,110,0
4,36,0,120
4,43,110,0
4,43,0,120
4,45,110,0
4,45,0,120
4,40,110,0
4,40,0,120
4,43,110,0
4,43,0,120
4,38,110,0
4,38,0,120
4,36,110,0
4,36,0,120
