track,note,velocity,time
3,62,100,384
3,62,100,0
3,62,100,0
3,62,100,0
3,62,100,0
3,62,100,0
3,64,100,0
3,66,100,0
3,61,100,0
3,66,100,0
3,59,100,0
3,62,100,0
3,62,100,0
3,62,100,0
3,62,100,0
3,62,100,0
3,62,100,0
3,64,100,0
3,66,100,0
3,61,100,0
3,66,100,0
3,62,100,384
3,66,100,0
3,62,100,384
3,66,100,0
3,62,100,384
3,66,100,0
3,62,100,384
3,66,100,0
3,62,100,384
3,66,100,0
3,62,100,384
3,66,100,0
3,62,100,384
3,66,100,0
3,62,100,384
3,66,100,0
3,66,100,0
3,62,100,0
3,64,100,0
3,66,100,0
3,71,100,0
3,64,100,0
3,66,100,0
3,62,100,0
3,64,100,0
3,66,100,0
3,71,100,0
3,64,100,0
3,66,100,0
3,62,100,0
3,64,100,0
3,66,100,0
3,71,100,0
3,64,100,0
3,66,100,0
3,62,100,0
3,64,100,0
3,66,100,0
3,71,100,0
3,64,100,0
3,62,100,384
3,55,100,0
3,59,100,0
3,62,100,0
3,67,100,0
3,61,100,0
3,62,100,0
3,55,100,0
3,59,100,0
3,62,100,0
3,67,100,0
3,61,100,0
3,62,100,0
3,62,100,0
3,64,100,0
3,66,100,0
3,67,100,0
3,69,100,0
3,67,100,0
3,66,100,0
3,64,100,0
3,62,100,0
3,61,100,0
3,59,100,0
3,62,100,0
3,62,100,0
3,62,100,0
3,62,100,0
3,62,100,0
3,62,100,0
3,64,100,0
3,66,100,0
3,61,100,0
3,66,100,0
3,59,100,0
3,62,100,0
3,62,100,0
3,62,100,0
3,62,100,0
3,62,100,0
3,62,100,0
3,64,100,0
3,66,100,0
3,61,100,0
3,66,100,0
3,62,100,0
3,66,100,0
3,62,100,0
3,66,100,0
3,62,100,0
3,66,100,0
3,62,100,0
3,66,100,0
3,62,100,0
3,66,100,0
3,62,100,0
3,66,100,0
3,62,100,0
3,66,100,0
3,62,100,0
3,66,100,0
3,66,100,0
3,62,100,0
3,64,100,0
3,66,100,0
3,71,100,0
3,64,100,0
3,66,100,0
3,62,100,0
3,64,100,0
3,66,100,0
3,71,100,0
3,64,100,0
3,66,100,0
3,62,100,0
3,64,100,0
3,66,100,0
3,71,100,0
3,64,100,0
3,66,100,0
3,62,100,0
3,64,100,0
3,66,100,0
3,71,100,0
3,64,100,0
3,62,100,384
3,55,100,0
3,59,100,0
3,62,100,0
3,67,100,0
3,61,100,0
3,62,100,0
3,55,100,0
3,59,100,0
3,62,100,0
3,67,100,0
3,61,100,0
3,62,100,0
3,62,100,0
3,64,100,0
3,66,100,0
3,67,100,0
3,69,100,0
3,67,100,0
3,66,100,0
3,64,100,0
3,62,100,0
3,61,100,0
3,59,100,0
3,62,100,0
3,62,100,0
3,62,100,0
3,62,100,0
3,62,100,0
3,62,100,0
3,64,100,0
3,66,100,0
3,61,100,0
3,66,100,0
3,59,100,0
3,62,100,0
3,62,100,0
3,62,100,0
3,62,100,0
3,62,100,0
3,62,100,0
3,64,100,0
3,66,100,0
3,61,100,0
3,66,100,0
3,62,100,0
3,66,100,0
3,62,100,0
3,66,100,0
3,62,100,0
3,66,100,0
3,62,100,0
3,66,100,0
3,62,100,0
3,66,100,0
3,62,100,0
3,66,100,0
3,62,100,0
3,66,100,0
3,62,100,0
3,66,100,0
3,66,100,0
3,62,100,0
3,64,100,0
3,66,100,0
3,71,100,0
3,64,100,0
3,66,100,0
3,62,100,0
3,64,100,0
3,66,100,0
3,71,100,0
3,64,100,0
3,66,100,0
3,62,100,0
3,64,100,0
3,66,100,0
3,71,100,0
3,64,100,0
3,66,100,0
3,62,100,0
3,64,100,0
3,66,100,0
3,71,100,0
3,64,100,0
3,62,100,384
3,55,100,0
3,59,100,0
3,62,100,0
3,67,100,0
3,61,100,0
3,62,100,0
3,55,100,0
3,59,100,0
3,62,100,0
3,67,100,0
3,61,100,0
3,62,100,0
3,62,100,0
3,64,100,0
3,66,100,0
3,67,100,0
3,69,100,0
3,67,100,0
3,66,100,0
3,64,100,0
3,62,100,0
3,61,100,0
3,59,100,0
3,62,100,0
3,62,100,0
3,62,100,0
3,62,100,0
3,62,100,0
3,62,100,0
3,64,100,0
3,66,100,0
3,61,100,0
3,66,100,0
3,59,100,0
3,62,100,0
3,62,100,0
3,62,100,0
3,62,100,0
3,62,100,0
3,62,100,0
3,64,100,0
3,66,100,0
3,61,100,0
3,66,100,0
3,62,100,0
3,66,100,0
3,62,100,0
3,66,100,0
3,62,100,0
3,66,100,0
3,62,100,0
3,66,100,0
3,62,100,0
3,66,100,0
3,62,100,0
3,66,100,0
3,62,100,0
3,66,100,0
3,62,100,0
3,66,100,0
3,66,100,0
3,62,100,0
3,64,100,0
3,66,100,0
3,71,100,0
3,64,100,0
3,66,100,0
3,62,100,0
3,64,100,0
3,66,100,0
3,71,100,0
3,64,100,0
3,66,100,0
3,62,100,0
3,64,100,0
3,66,100,0
3,71,100,0
3,64,100,0
3,66,100,0
3,62,100,0
3,64,100,0
3,66,100,0
3,71,100,0
3,64,100,0
3,62,100,384
3,55,100,0
3,59,100,0
3,62,100,0
3,67,100,0
3,61,100,0
3,62,100,0
3,55,100,0
3,59,100,0
3,62,100,0
3,67,100,0
3,61,100,0
3,62,100,0
3,62,100,0
3,64,100,0
3,66,100,0
3,67,100,0
3,69,100,0
3,67,100,0
3,66,100,0
3,64,100,0
3,62,100,0
3,61,100,0
3,59,100,0
3,62,100,0
3,62,100,0
3,62,100,0
3,62,100,0
3,62,100,0
3,62,100,0
3,64,100,0
3,66,100,0
3,61,100,0
3,66,100,0
3,59,100,0
3,62,100,0
3,62,100,0
3,62,100,0
3,62,100,0
3,62,100,0
3,62,100,0
3,64,100,0
3,66,100,0
3,61,100,0
3,66,100,0
3,62,100,0
3,66,100,0
3,62,100,0
3,66,100,0
3,62,100,0
3,66,100,0
3,62,100,0
3,66,100,0
3,62,100,0
3,66,100,0
3,62,100,0
3,66,100,0
3,62,100,0
3,66,100,0
3,62,100,0
3,66,100,0
3,66,100,0
3,62,100,0
3,64,100,0
3,66,100,0
3,71,100,0
3,64,100,0
3,66,100,0
3,62,100,0
3,64,100,0
3,66,100,0
3,71,100,0
3,64,100,0
3,66,100,0
3,62,100,0
3,64,100,0
3,66,100,0
3,71,100,0
3,64,100,0
3,66,100,0
3,62,100,0
3,64,100,0
3,66,100,0
3,71,100,0
3,64,100,0
3,62,100,384
3,55,100,0
3,59,100,0
3,62,100,0
3,67,100,0
3,61,100,0
3,62,100,0
3,55,100,0
3,59,100,0
3,62,100,0
3,67,100,0
3,61,100,0
3,62,100,0
3,62,100,0
3,64,100,0
3,66,100,0
3,67,100,0
3,69,100,0
3,67,100,0
3,66,100,0
3,64,100,0
3,62,100,0
3,61,100,0
3,59,100,0
3,62,100,0
3,62,100,0
3,62,100,0
3,62,100,0
3,62,100,0
3,62,100,0
3,64,100,0
3,66,100,0
3,61,100,0
3,66,100,0
3,59,100,0
3,62,100,0
3,62,100,0
3,62,100,0
3,62,100,0
3,62,100,0
3,62,100,0
3,64,100,0
3,66,100,0
3,61,100,0
3,66,100,0
3,62,100,0
3,66,100,0
3,62,100,0
3,66,100,0
3,62,100,0
3,66,100,0
3,62,100,0
3,66,100,0
3,62,100,0
3,66,100,0
3,62,100,0
3,66,100,0
3,62,100,0
3,66,100,0
3,62,100,0
3,66,100,0
3,66,100,0
3,62,100,0
3,64,100,0
3,66,100,0
3,71,100,0
3,64,100,0
3,66,100,0
3,62,100,0
3,64,100,0
3,66,100,0
3,71,100,0
3,64,100,0
3,66,100,0
3,62,100,0
3,64,100,0
3,66,100,0
3,71,100,0
3,64,100,0
3,66,100,0
3,62,100,0
3,64,100,0
3,66,100,0
3,71,100,0
3,64,100,0
3,62,100,384
3,55,100,0
3,59,100,0
3,62,100,0
3,67,100,0
3,61,100,0
3,62,100,0
3,55,100,0
3,59,100,0
3,62,100,0
3,67,100,0
3,61,100,0
3,62,100,0
3,62,100,0
3,64,100,0
3,66,100,0
3,67,100,0
3,69,100,0
3,67,100,0
3,66,100,0
3,64,100,0
3,62,100,0
3,61,100,0
3,59,100,0
3,62,100,0
3,62,100,0
3,62,100,0
3,62,100,0
3,62,100,0
3,62,100,0
3,64,100,0
3,66,100,0
3,61,100,0
3,66,100,0
3,59,100,0
3,62,100,0
3,62,100,0
3,62,100,0
3,62,100,0
3,62,100,0
3,62,100,0
3,64,100,0
3,66,100,0
3,61,100,0
3,66,100,0
3,62,100,0
3,66,100,0
3,62,100,0
3,66,100,0
3,62,100,0
3,66,100,0
3,62,100,0
3,66,100,0
3,62,100,0
3,66,100,0
3,62,100,0
3,66,100,0
3,62,100,0
3,66,100,0
3,62,100,0
3,66,100,0
3,66,100,0
3,62,100,0
3,64,100,0
3,66,100,0
3,71,100,0
3,64,100,0
3,66,100,0
3,62,100,0
3,64,100,0
3,66,100,0
3,71,100,0
3,64,100,0
3,66,100,0
3,62,100,0
3,64,100,0
3,66,100,0
3,71,100,0
3,64,100,0
3,66,100,0
3,62,100,0
3,64,100,0
3,66,100,0
3,71,100,0
3,64,100,0
3,62,100,384
3,55,100,0
3,59,100,0
3,62,100,0
3,67,100,0
3,61,100,0
3,62,100,0
3,55,100,0
3,59,100,0
3,62,100,0
3,67,100,0
3,61,100,0
3,62,100,0
3,62,100,0
3,64,100,0
3,66,100,0
3,67,100,0
3,69,100,0
3,67,100,0
3,66,100,0
3,64,100,0
3,62,100,0
3,61,100,0
3,59,100,0
3,62,100,0
3,62,100,0
3,62,100,0
3,62,100,0
3,62,100,0
3,62,100,0
3,64,100,0
3,66,100,0
3,61,100,0
3,66,100,0
3,59,100,0
3,62,100,0
3,62,100,0
3,62,100,0
3,62,100,0
3,62,100,0
3,62,100,0
3,64,100,0
3,66,100,0
3,61,100,0
3,66,100,0
3,71,100,0
4,59,100,6144
4,59,100,0
4,62,100,0
4,59,100,0
4,62,100,0
4,59,100,0
4,62,100,0
4,59,100,0
4,62,100,0
4,59,100,0
4,62,100,0
4,59,100,0
4,62,100,0
4,58,100,0
4,61,100,0
4,58,100,0
4,61,100,0
4,59,100,0
4,62,100,0
4,59,100,0
4,62,100,0
4,59,100,0
4,62,100,0
4,59,100,0
4,62,100,0
4,59,100,0
4,62,100,0
4,59,100,0
4,62,100,0
4,58,100,0
4,61,100,0
4,58,100,0
4,61,100,0
4,59,100,0
4,62,100,0
4,59,100,0
4,62,100,0
4,59,100,0
4,62,100,0
4,59,100,0
4,62,100,0
4,59,100,0
4,62,100,0
4,59,100,0
4,62,100,0
4,58,100,0
4,61,100,0
4,58,100,0
4,61,100,0
4,59,100,0
4,62,100,0
4,59,100,0
4,62,100,0
4,59,100,0
4,62,100,0
4,59,100,0
4,62,100,0
4,58,100,0
4,61,100,0
4,58,100,0
4,61,100,0
4,58,100,0
4,61,100,0
4,58,100,0
4,61,100,0
4,55,100,384
4,59,100,0
4,59,100,384
4,55,100,0
4,59,100,384
4,62,100,0
4,54,100,384
4,58,100,0
4,55,100,384
4,59,100,0
4,55,100,384
4,59,100,0
4,59,100,384
4,62,100,0
4,54,100,384
4,58,100,0
4,54,100,384
4,57,100,0
4,54,100,384
4,57,100,0
4,57,100,384
4,62,100,0
4,57,100,384
4,62,100,0
4,58,100,0
4,61,100,0
4,54,100,0
4,58,100,0
4,54,100,384
4,59,100,0
4,54,100,384
4,59,100,0
4,56,100,384
4,59,100,0
4,58,100,384
4,61,100,0
4,54,100,384
4,59,100,0
4,54,100,384
4,59,100,0
4,55,100,384
4,59,100,0
4,58,100,384
4,61,100,0
4,59,100,0
4,71,100,0
4,59,100,0
4,62,100,0
4,59,100,0
4,62,100,0
4,59,100,0
4,62,100,0
4,59,100,0
4,62,100,0
4,59,100,0
4,62,100,0
4,59,100,0
4,62,100,0
4,58,100,0
4,61,100,0
4,58,100,0
4,61,100,0
4,59,100,0
4,62,100,0
4,59,100,0
4,62,100,0
4,59,100,0
4,62,100,0
4,59,100,0
4,62,100,0
4,59,100,0
4,62,100,0
4,59,100,0
4,62,100,0
4,58,100,0
4,61,100,0
4,58,100,0
4,61,100,0
4,59,100,0
4,62,100,0
4,59,100,0
4,62,100,0
4,59,100,0
4,62,100,0
4,59,100,0
4,62,100,0
4,59,100,0
4,62,100,0
4,59,100,0
4,62,100,0
4,58,100,0
4,61,100,0
4,58,100,0
4,61,100,0
4,59,100,0
4,62,100,0
4,59,100,0
4,62,100,0
4,59,100,0
4,62,100,0
4,59,100,0
4,62,100,0
4,58,100,0
4,61,100,0
4,58,100,0
4,61,100,0
4,58,100,0
4,61,100,0
4,58,100,0
4,61,100,0
4,55,100,384
4,59,100,0
4,59,100,384
4,55,100,0
4,59,100,384
4,62,100,0
4,54,100,384
4,58,100,0
4,55,100,384
4,59,100,0
4,55,100,384
4,59,100,0
4,59,100,384
4,62,100,0
4,54,100,384
4,58,100,0
4,54,100,384
4,57,100,0
4,54,100,384
4,57,100,0
4,57,100,384
4,62,100,0
4,57,100,384
4,62,100,0
4,58,100,0
4,61,100,0
4,54,100,0
4,58,100,0
4,54,100,384
4,59,100,0
4,54,100,384
4,59,100,0
4,56,100,384
4,59,100,0
4,58,100,384
4,61,100,0
4,54,100,384
4,59,100,0
4,54,100,384
4,59,100,0
4,55,100,384
4,59,100,0
4,58,100,384
4,61,100,0
4,59,100,0
4,71,100,0
4,59,100,0
4,62,100,0
4,59,100,0
4,62,100,0
4,59,100,0
4,62,100,0
4,59,100,0
4,62,100,0
4,59,100,0
4,62,100,0
4,59,100,0
4,62,100,0
4,58,100,0
4,61,100,0
4,58,100,0
4,61,100,0
4,59,100,0
4,62,100,0
4,59,100,0
4,62,100,0
4,59,100,0
4,62,100,0
4,59,100,0
4,62,100,0
4,59,100,0
4,62,100,0
4,59,100,0
4,62,100,0
4,58,100,0
4,61,100,0
4,58,100,0
4,61,100,0
4,59,100,0
4,62,100,0
4,59,100,0
4,62,100,0
4,59,100,0
4,62,100,0
4,59,100,0
4,62,100,0
4,59,100,0
4,62,100,0
4,59,100,0
4,62,100,0
4,58,100,0
4,61,100,0
4,58,100,0
4,61,100,0
4,59,100,0
4,62,100,0
4,59,100,0
4,62,100,0
4,59,100,0
4,62,100,0
4,59,100,0
4,62,100,0
4,58,100,0
4,61,100,0
4,58,100,0
4,61,100,0
4,58,100,0
4,61,100,0
4,58,100,0
4,61,100,0
4,55,100,384
4,59,100,0
4,59,100,384
4,55,100,0
4,59,100,384
4,62,100,0
4,54,100,384
4,58,100,0
4,55,100,384
4,59,100,0
4,55,100,384
4,59,100,0
4,59,100,384
4,62,100,0
4,54,100,384
4,58,100,0
4,54,100,384
4,57,100,0
4,54,100,384
4,57,100,0
4,57,100,384
4,62,100,0
4,57,100,384
4,62,100,0
4,58,100,0
4,61,100,0
4,54,100,0
4,58,100,0
4,54,100,384
4,59,100,0
4,54,100,384
4,59,100,0
4,56,100,384
4,59,100,0
4,58,100,384
4,61,100,0
4,54,100,384
4,59,100,0
4,54,100,384
4,59,100,0
4,55,100,384
4,59,100,0
4,58,100,384
4,61,100,0
4,59,100,0
4,71,100,0
4,59,100,0
4,62,100,0
4,59,100,0
4,62,100,0
4,59,100,0
4,62,100,0
4,59,100,0
4,62,100,0
4,59,100,0
4,62,100,0
4,59,100,0
4,62,100,0
4,58,100,0
4,61,100,0
4,58,100,0
4,61,100,0
4,59,100,0
4,62,100,0
4,59,100,0
4,62,100,0
4,59,100,0
4,62,100,0
4,59,100,0
4,62,100,0
4,59,100,0
4,62,100,0
4,59,100,0
4,62,100,0
4,58,100,0
4,61,100,0
4,58,100,0
4,61,100,0
4,59,100,0
4,62,100,0
4,59,100,0
4,62,100,0
4,59,100,0
4,62,100,0
4,59,100,0
4,62,100,0
4,59,100,0
4,62,100,0
4,59,100,0
4,62,100,0
4,58,100,0
4,61,100,0
4,58,100,0
4,61,100,0
4,59,100,0
4,62,100,0
4,59,100,0
4,62,100,0
