track,note,velocity,time
3,58,110,4800
3,57,110,4
3,58,110,4
3,60,110,4
3,58,110,4
3,63,110,4
3,65,110,672
3,64,110,4
3,65,110,4
3,67,110,4
3,65,110,4
3,60,110,4
3,63,110,672
3,62,110,4
3,63,110,4
3,65,110,4
3,63,110,4
3,58,110,4
3,57,110,96
3,58,110,4
3,60,110,4
3,59,110,96
3,60,110,4
3,67,110,4
3,65,110,480
3,67,110,64
3,68,110,64
3,60,110,64
3,62,110,64
3,63,110,4
3,68,110,4
3,67,110,4
3,62,110,0
3,67,110,4
3,68,110,672
3,67,110,4
3,68,110,4
3,70,110,4
3,68,110,4
3,62,110,4
3,67,110,672
3,66,110,4
3,67,110,4
3,68,110,4
3,67,110,4
3,60,110,4
3,65,110,672
3,64,110,4
3,65,110,4
3,67,110,4
3,65,110,4
3,59,110,4
3,63,110,672
3,62,110,4
3,63,110,4
3,65,110,4
3,63,110,4
3,60,110,4
3,60,110,96
3,63,110,64
3,60,110,64
3,63,110,64
3,62,110,64
3,63,110,64
3,65,110,64
3,67,110,64
3,60,110,448
3,63,110,64
3,60,110,64
3,63,110,64
3,62,110,64
3,55,110,64
3,62,110,64
3,60,110,64
3,62,110,0
3,58,110,672
3,57,110,4
3,58,110,4
3,60,110,4
3,58,110,4
3,63,110,4
3,65,110,672
3,64,110,4
3,65,110,4
3,67,110,4
3,65,110,4
3,60,110,4
3,63,110,672
3,62,110,4
3,63,110,4
3,65,110,4
3,63,110,4
3,58,110,4
3,57,110,96
3,58,110,4
3,60,110,4
3,59,110,96
3,60,110,4
3,67,110,4
3,65,110,480
3,67,110,64
3,68,110,64
3,60,110,64
3,62,110,64
3,63,110,4
3,68,110,4
3,67,110,4
3,62,110,0
3,67,110,4
3,68,110,672
3,67,110,4
3,68,110,4
3,70,110,4
3,68,110,4
3,62,110,4
3,67,110,672
3,66,110,4
3,67,110,4
3,68,110,4
3,67,110,4
3,60,110,4
3,65,110,672
3,64,110,4
3,65,110,4
3,67,110,4
3,65,110,4
3,59,110,4
3,63,110,672
3,62,110,4
3,63,110,4
3,65,110,4
3,63,110,4
3,60,110,4
3,60,110,96
3,63,110,64
3,60,110,64
3,63,110,64
3,62,110,64
3,63,110,64
3,65,110,64
3,67,110,64
3,60,110,448
3,63,110,64
3,60,110,64
3,63,110,64
3,62,110,64
3,55,110,64
3,62,110,64
3,60,110,64
3,62,110,0
3,58,110,672
3,57,110,4
3,58,110,4
3,60,110,4
3,58,110,4
3,63,110,4
3,65,110,672
3,64,110,4
3,65,110,4
3,67,110,4
3,65,110,4
3,60,110,4
3,63,110,672
3,62,110,4
3,63,110,4
3,65,110,4
3,63,110,4
3,58,110,4
3,57,110,96
3,58,110,4
3,60,110,4
3,59,110,96
3,60,110,4
3,67,110,4
3,65,110,480
3,67,110,64
3,68,110,64
3,60,110,64
3,62,110,64
3,63,110,4
3,68,110,4
3,67,110,4
3,62,110,0
3,67,110,4
3,68,110,672
3,67,110,4
3,68,110,4
3,70,110,4
3,68,110,4
3,62,110,4
3,67,110,672
3,66,110,4
3,67,110,4
3,68,110,4
3,67,110,4
3,60,110,4
3,65,110,672
3,64,110,4
3,65,110,4
3,67,110,4
3,65,110,4
3,59,110,4
3,63,110,672
3,62,110,4
3,63,110,4
3,65,110,4
3,63,110,4
3,60,110,4
3,60,110,96
3,63,110,64
3,60,110,64
3,63,110,64
3,62,110,64
3,63,110,64
3,65,110,64
3,67,110,64
3,60,110,448
3,63,110,64
3,60,110,64
3,63,110,64
3,62,110,64
3,55,110,64
3,62,110,64
3,60,110,64
3,62,110,0
3,58,110,672
3,57,110,4
3,58,110,4
3,60,110,4
3,58,110,4
3,63,110,4
3,65,110,672
3,64,110,4
3,65,110,4
3,67,110,4
3,65,110,4
3,60,110,4
3,63,110,672
3,62,110,4
3,63,110,4
3,65,110,4
3,63,110,4
3,58,110,4
3,57,110,96
3,58,110,4
3,60,110,4
3,59,110,96
3,60,110,4
3,67,110,4
3,65,110,480
3,67,110,64
3,68,110,64
3,60,110,64
3,62,110,64
3,63,110,4
3,68,110,4
3,67,110,4
3,62,110,0
3,67,110,4
3,68,110,672
3,67,110,4
3,68,110,4
3,70,110,4
3,68,110,4
3,62,110,4
3,67,110,672
3,66,110,4
3,67,110,4
3,68,110,4
3,67,110,4
3,60,110,4
3,65,110,672
3,64,110,4
3,65,110,4
3,67,110,4
3,65,110,4
3,59,110,4
3,63,110,672
3,62,110,4
3,63,110,4
3,65,110,4
3,63,110,4
3,60,110,4
3,60,110,96
3,63,110,64
3,60,110,64
3,63,110,64
3,62,110,64
3,63,110,64
3,65,110,64
3,67,110,64
3,60,110,448
3,63,110,64
3,60,110,64
3,63,110,64
3,62,110,64
3,55,110,64
3,62,110,64
3,60,110,64
3,62,110,0
3,58,110,672
3,57,110,4
3,58,110,4
3,60,110,4
3,58,110,4
3,63,110,4
3,65,110,672
3,64,110,4
3,65,110,4
3,67,110,4
3,65,110,4
3,60,110,4
3,63,110,672
3,62,110,4
3,63,110,4
3,65,110,4
3,63,110,4
3,58,110,4
3,57,110,96
3,58,110,4
3,60,110,4
3,59,110,96
3,60,110,4
3,67,110,4
3,65,110,480
3,67,110,64
3,68,110,64
3,60,110,64
3,62,110,64
3,63,110,4
3,68,110,4
3,67,110,4
3,62,110,0
3,67,110,4
3,68,110,672
3,67,110,4
3,68,110,4
3,70,110,4
3,68,110,4
3,62,110,4
3,67,110,672
3,66,110,4
3,67,110,4
3,68,110,4
3,67,110,4
3,60,110,4
3,65,110,672
3,64,110,4
3,65,110,4
3,67,110,4
3,65,110,4
3,59,110,4
3,63,110,672
3,62,110,4
3,63,110,4
3,65,110,4
3,63,110,4
3,60,110,4
3,60,110,96
3,63,110,64
3,60,110,64
3,63,110,64
3,62,110,64
3,63,110,64
3,65,110,64
3,67,110,64
3,56,110,448
3,60,110,64
3,65,110,64
3,63,110,64
3,62,110,64
3,67,110,64
3,65,110,64
3,63,110,64
4,63,110,0
4,67,110,192
4,66,110,0
4,67,110,0
4,62,110,0
4,68,110,0
4,67,110,0
4,60,110,0
4,65,110,0
4,65,110,4
4,64,110,0
4,65,110,0
4,59,110,0
4,67,110,0
4,65,110,0
4,60,110,0
4,63,110,0
4,60,110,4
4,63,110,0
4,59,110,0
4,62,110,0
4,60,110,0
4,63,110,0
4,62,110,0
4,65,110,0
4,63,110,0
4,67,110,0
4,60,110,0
4,63,110,0
4,67,110,0
4,55,110,480
4,58,110,0
4,63,110,0
4,58,110,64
4,63,110,0
4,67,110,0
4,60,110,448
4,63,110,0
4,62,110,0
4,65,110,0
4,63,110,0
4,67,110,0
4,56,110,448
4,60,110,0
4,65,110,0
4,60,110,64
4,65,110,0
4,68,110,0
4,63,110,448
4,67,110,0
4,62,110,0
4,65,110,0
4,60,110,0
4,63,110,0
4,62,110,0
4,65,110,0
4,55,110,388
4,58,110,0
4,63,110,0
4,58,110,64
4,63,110,0
4,67,110,0
4,58,110,448
4,63,110,0
4,67,110,0
4,62,110,64
4,67,110,0
4,70,110,0
4,60,110,64
4,67,110,0
4,72,110,0
4,70,110,0
4,67,110,0
4,55,110,64
4,58,110,0
4,60,110,0
4,64,110,0
4,62,110,0
4,65,110,0
4,64,110,0
4,67,110,0
4,60,110,0
4,65,110,0
4,68,110,0
4,60,110,96
4,65,110,0
4,68,110,0
4,59,110,96
4,65,110,0
4,67,110,0
4,59,110,480
4,65,110,0
4,67,110,0
4,60,110,96
4,60,110,0
4,65,110,0
4,63,110,0
4,62,110,0
4,67,110,384
4,70,110,0
4,65,110,0
4,68,110,0
4,63,110,0
4,67,110,0
4,62,110,0
4,65,110,0
4,62,110,4
4,67,110,0
4,63,110,0
4,62,110,0
4,60,110,0
4,65,110,64
4,68,110,0
4,63,110,0
4,67,110,0
4,62,110,0
4,65,110,0
4,60,110,0
4,63,110,0
4,65,110,0
4,62,110,384
4,60,110,0
4,59,110,0
4,65,110,192
4,68,110,0
4,63,110,0
4,67,110,0
4,62,110,0
4,65,110,0
4,60,110,0
4,63,110,0
4,62,110,0
4,65,110,0
4,60,110,0
4,63,110,0
4,67,110,0
4,60,110,96
4,63,110,0
4,67,110,0
4,68,110,0
4,63,110,0
4,60,110,0
4,59,110,64
4,62,110,0
4,60,110,0
4,63,110,0
4,62,110,0
4,65,110,0
4,65,110,0
4,67,110,0
4,68,110,64
4,70,110,64
4,70,110,64
4,73,110,0
4,64,110,192
4,68,110,64
4,72,110,0
4,64,110,4
4,67,110,64
4,70,110,0
4,60,110,64
4,63,110,0
4,68,110,0
4,60,110,96
4,67,110,0
4,59,110,64
4,65,110,0
4,60,110,64
4,63,110,0
4,59,110,64
4,62,110,0
4,60,110,0
4,63,110,0
4,62,110,0
4,65,110,0
4,63,110,0
4,67,110,0
4,62,110,0
4,65,110,0
4,60,110,64
4,63,110,0
4,62,110,0
4,65,110,0
4,55,110,448
4,58,110,0
4,63,110,0
4,58,110,64
4,63,110,0
4,67,110,0
4,60,110,448
4,63,110,0
4,62,110,0
4,65,110,0
4,63,110,0
4,67,110,0
4,56,110,448
4,60,110,0
4,65,110,0
4,60,110,64
4,65,110,0
4,68,110,0
4,63,110,448
4,67,110,0
4,62,110,0
4,65,110,0
4,60,110,0
4,63,110,0
4,62,110,0
4,65,110,0
4,55,110,388
4,58,110,0
4,63,110,0
4,58,110,64
4,63,110,0
4,67,110,0
4,58,110,448
4,63,110,0
4,67,110,0
4,62,110,64
4,67,110,0
4,70,110,0
4,60,110,64
4,67,110,0
4,72,110,0
4,70,110,0
4,67,110,0
4,55,110,64
4,58,110,0
4,60,110,0
4,64,110,0
4,62,110,0
4,65,110,0
4,64,110,0
4,67,110,0
4,60,110,0
4,65,110,0
4,68,110,0
4,60,110,96
4,65,110,0
4,68,110,0
4,59,110,96
4,65,110,0
4,67,110,0
4,59,110,480
4,65,110,0
4,67,110,0
4,60,110,96
4,60,110,0
4,65,110,0
4,63,110,0
4,62,110,0
4,67,110,384
4,70,110,0
4,65,110,0
4,68,110,0
4,63,110,0
4,67,110,0
4,62,110,0
4,65,110,0
4,62,110,4
4,67,110,0
4,63,110,0
4,62,110,0
4,60,110,0
4,65,110,64
4,68,110,0
4,63,110,0
4,67,110,0
4,62,110,0
4,65,110,0
4,60,110,0
4,63,110,0
4,65,110,0
4,62,110,384
4,60,110,0
4,59,110,0
4,65,110,192
4,68,110,0
4,63,110,0
4,67,110,0
4,62,110,0
4,65,110,0
4,60,110,0
4,63,110,0
4,62,110,0
4,65,110,0
4,60,110,0
4,63,110,0
4,67,110,0
4,60,110,96
4,63,110,0
4,67,110,0
4,68,110,0
4,63,110,0
4,60,110,0
4,59,110,64
4,62,110,0
4,60,110,0
4,63,110,0
4,62,110,0
4,65,110,0
4,65,110,0
4,67,110,0
4,68,110,64
4,70,110,64
4,70,110,64
4,73,110,0
4,64,110,192
4,68,110,64
4,72,110,0
4,64,110,4
4,67,110,64
4,70,110,0
4,60,110,64
4,63,110,0
4,68,110,0
4,60,110,96
4,67,110,0
4,59,110,64
4,65,110,0
4,60,110,64
4,63,110,0
4,59,110,64
4,62,110,0
4,60,110,0
4,63,110,0
4,62,110,0
4,65,110,0
4,63,110,0
4,67,110,0
4,62,110,0
4,65,110,0
4,60,110,64
4,63,110,0
4,62,110,0
4,65,110,0
4,55,110,448
4,58,110,0
4,63,110,0
4,58,110,64
4,63,110,0
4,67,110,0
4,60,110,448
4,63,110,0
4,62,110,0
4,65,110,0
4,63,110,0
4,67,110,0
4,56,110,448
4,60,110,0
4,65,110,0
4,60,110,64
4,65,110,0
4,68,110,0
4,63,110,448
4,67,110,0
4,62,110,0
4,65,110,0
4,60,110,0
4,63,110,0
4,62,110,0
4,65,110,0
4,55,110,388
4,58,110,0
4,63,110,0
4,58,110,64
4,63,110,0
4,67,110,0
4,58,110,448
4,63,110,0
4,67,110,0
4,62,110,64
4,67,110,0
4,70,110,0
4,60,110,64
4,67,110,0
4,72,110,0
4,70,110,0
4,67,110,0
4,55,110,64
4,58,110,0
4,60,110,0
4,64,110,0
4,62,110,0
4,65,110,0
4,64,110,0
4,67,110,0
4,60,110,0
4,65,110,0
4,68,110,0
4,60,110,96
4,65,110,0
4,68,110,0
4,59,110,96
4,65,110,0
4,67,110,0
4,59,110,480
4,65,110,0
4,67,110,0
4,60,110,96
4,60,110,0
4,65,110,0
4,63,110,0
4,62,110,0
4,67,110,384
4,70,110,0
4,65,110,0
4,68,110,0
4,63,110,0
4,67,110,0
4,62,110,0
4,65,110,0
4,62,110,4
4,67,110,0
4,63,110,0
4,62,110,0
4,60,110,0
4,65,110,64
4,68,110,0
4,63,110,0
4,67,110,0
4,62,110,0
4,65,110,0
4,60,110,0
4,63,110,0
4,65,110,0
4,62,110,384
4,60,110,0
4,59,110,0
4,65,110,192
4,68,110,0
4,63,110,0
4,67,110,0
4,62,110,0
4,65,110,0
4,60,110,0
4,63,110,0
4,62,110,0
4,65,110,0
4,60,110,0
4,63,110,0
4,67,110,0
4,60,110,96
4,63,110,0
4,67,110,0
4,68,110,0
4,63,110,0
4,60,110,0
4,59,110,64
4,62,110,0
4,60,110,0
4,63,110,0
4,62,110,0
4,65,110,0
4,65,110,0
4,67,110,0
4,68,110,64
4,70,110,64
4,70,110,64
4,73,110,0
4,64,110,192
4,68,110,64
4,72,110,0
4,64,110,4
4,67,110,64
4,70,110,0
4,60,110,64
4,63,110,0
4,68,110,0
4,60,110,96
4,67,110,0
4,59,110,64
4,65,110,0
4,60,110,64
4,63,110,0
4,59,110,64
4,62,110,0
4,60,110,0
4,63,110,0
4,62,110,0
4,65,110,0
4,63,110,0
4,67,110,0
4,62,110,0
4,65,110,0
4,60,110,64
4,63,110,0
4,62,110,0
4,65,110,0
4,55,110,448
4,58,110,0
4,63,110,0
4,58,110,64
4,63,110,0
4,67,110,0
4,60,110,448
4,63,110,0
4,62,110,0
4,65,110,0
4,63,110,0
4,67,110,0
4,56,110,448
4,60,110,0
4,65,110,0
4,60,110,64
4,65,110,0
4,68,110,0
4,63,110,448
4,67,110,0
4,62,110,0
4,65,110,0
4,60,110,0
4,63,110,0
4,62,110,0
4,65,110,0
4,55,110,388
4,58,110,0
4,63,110,0
4,58,110,64
4,63,110,0
4,67,110,0
4,58,110,448
4,63,110,0
4,67,110,0
4,62,110,64
4,67,110,0
4,70,110,0
4,60,110,64
4,67,110,0
4,72,110,0
4,70,110,0
4,67,110,0
4,55,110,64
4,58,110,0
4,60,110,0
4,64,110,0
4,62,110,0
4,65,110,0
4,64,110,0
4,67,110,0
4,60,110,0
4,65,110,0
4,68,110,0
4,60,110,96
4,65,110,0
4,68,110,0
4,59,110,96
4,65,110,0
4,67,110,0
4,59,110,480
4,65,110,0
4,67,110,0
4,60,110,96
4,60,110,0
4,65,110,0
4,63,110,0
4,62,110,0
4,67,110,384
4,70,110,0
4,65,110,0
4,68,110,0
4,63,110,0
4,67,110,0
4,62,110,0
4,65,110,0
4,62,110,4
4,67,110,0
4,63,110,0
4,62,110,0
4,60,110,0
4,65,110,64
4,68,110,0
4,63,110,0
4,67,110,0
4,62,110,0
4,65,110,0
4,60,110,0
4,63,110,0
4,65,110,0
4,62,110,384
4,60,110,0
4,59,110,0
4,65,110,192
4,68,110,0
4,63,110,0
4,67,110,0
4,62,110,0
4,65,110,0
4,60,110,0
4,63,110,0
4,62,110,0
4,65,110,0
4,60,110,0
4,63,110,0
4,67,110,0
4,60,110,96
4,63,110,0
4,67,110,0
4,68,110,0
4,63,110,0
4,60,110,0
4,59,110,64
4,62,110,0
4,60,110,0
4,63,110,0
4,62,110,0
4,65,110,0
4,65,110,0
4,67,110,0
4,68,110,64
4,70,110,64
4,70,110,64
4,73,110,0
4,64,110,192
4,68,110,64
4,72,110,0
4,64,110,4
4,67,110,64
4,70,110,0
4,60,110,64
4,63,110,0
4,68,110,0
4,60,110,96
4,67,110,0
4,59,110,64
4,65,110,0
