track,note,velocity,time
3,66,110,1536
3,66,0,94
3,69,110,2
3,69,0,142
3,69,110,2
3,69,0,46
3,69,110,2
3,69,0,62
3,69,110,2
3,69,0,62
3,69,110,2
3,69,0,320
3,66,110,32
3,66,0,94
3,71,110,2
3,71,0,142
3,71,110,2
3,71,0,46
3,71,110,2
3,71,0,62
3,71,110,2
3,71,0,62
3,71,110,2
3,71,0,320
3,66,110,32
3,66,0,94
3,71,110,2
3,71,0,142
3,71,110,2
3,71,0,46
3,71,110,2
3,71,0,62
3,71,110,2
3,71,0,62
3,71,110,2
3,71,0,320
3,66,110,32
3,66,0,94
3,69,110,2
3,69,0,142
3,69,110,2
3,69,0,46
3,69,110,2
3,69,0,62
3,69,110,2
3,69,0,62
3,69,110,2
3,69,0,224
3,66,110,128
3,66,0,94
3,69,110,2
3,69,0,142
3,69,110,2
3,69,0,46
3,69,110,2
3,69,0,62
3,69,110,2
3,69,0,62
3,69,110,2
3,69,0,320
3,66,110,32
3,66,0,94
3,71,110,2
3,71,0,142
3,71,110,2
3,71,0,46
3,71,110,2
3,71,0,62
3,71,110,2
3,71,0,62
3,71,110,2
3,71,0,320
3,66,110,32
3,66,0,94
3,71,110,2
3,71,0,142
3,71,110,2
3,71,0,46
3,71,110,2
3,71,0,62
3,71,110,2
3,71,0,62
3,71,110,2
3,71,0,320
3,66,110,32
3,66,0,94
3,69,110,2
3,69,0,142
3,69,110,2
3,69,0,46
3,69,110,2
3,69,0,62
3,69,110,2
3,69,0,62
3,69,110,2
3,69,0,224
3,66,110,128
3,66,0,94
3,68,110,2
3,68,0,142
3,68,110,2
3,68,0,46
3,68,110,2
3,68,0,62
3,68,110,2
3,68,0,62
3,68,110,2
3,68,0,320
3,61,110,32
3,61,0,94
3,66,110,2
3,66,0,142
3,66,110,2
3,66,0,46
3,66,110,2
3,66,0,62
3,66,110,2
3,66,0,62
3,66,110,2
3,66,0,224
3,66,110,1664
3,66,0,94
3,69,110,2
3,69,0,142
3,69,110,2
3,69,0,46
3,69,110,2
3,69,0,62
3,69,110,2
3,69,0,62
3,69,110,2
3,69,0,320
3,66,110,32
3,66,0,94
3,71,110,2
3,71,0,142
3,71,110,2
3,71,0,46
3,71,110,2
3,71,0,62
3,71,110,2
3,71,0,62
3,71,110,2
3,71,0,320
3,66,110,32
3,66,0,94
3,71,110,2
3,71,0,142
3,71,110,2
3,71,0,46
3,71,110,2
3,71,0,62
3,71,110,2
3,71,0,62
3,71,110,2
3,71,0,320
3,66,110,32
3,66,0,94
3,69,110,2
3,69,0,142
3,69,110,2
3,69,0,46
3,69,110,2
3,69,0,62
3,69,110,2
3,69,0,62
3,69,110,2
3,69,0,224
3,66,110,128
3,66,0,94
3,69,110,2
3,69,0,142
3,69,110,2
3,69,0,46
3,69,110,2
3,69,0,62
3,69,110,2
3,69,0,62
3,69,110,2
3,69,0,320
3,66,110,32
3,66,0,94
3,71,110,2
3,71,0,142
3,71,110,2
3,71,0,46
3,71,110,2
3,71,0,62
3,71,110,2
3,71,0,62
3,71,110,2
3,71,0,320
3,66,110,32
3,66,0,94
3,71,110,2
3,71,0,142
3,71,110,2
3,71,0,46
3,71,110,2
3,71,0,62
3,71,110,2
3,71,0,62
3,71,110,2
3,71,0,320
3,66,110,32
3,66,0,94
3,69,110,2
3,69,0,142
3,69,110,2
3,69,0,46
3,69,110,2
3,69,0,62
3,69,110,2
3,69,0,62
3,69,110,2
3,69,0,224
3,66,110,128
3,66,0,94
3,68,110,2
3,68,0,142
3,68,110,2
3,68,0,46
3,68,110,2
3,68,0,62
3,68,110,2
3,68,0,62
3,68,110,2
3,68,0,320
3,61,110,32
3,61,0,94
3,66,110,2
3,66,0,142
3,66,110,2
3,66,0,46
3,66,110,2
3,66,0,62
3,66,110,2
3,66,0,62
3,66,110,2
3,66,0,224
3,66,110,1664
3,66,0,94
3,69,110,2
3,69,0,142
3,69,110,2
3,69,0,46
3,69,110,2
3,69,0,62
3,69,110,2
3,69,0,62
3,69,110,2
3,69,0,320
3,66,110,32
3,66,0,94
3,71,110,2
3,71,0,142
3,71,110,2
3,71,0,46
3,71,110,2
3,71,0,62
3,71,110,2
3,71,0,62
3,71,110,2
3,71,0,320
3,66,110,32
3,66,0,94
3,71,110,2
3,71,0,142
3,71,110,2
3,71,0,46
3,71,110,2
3,71,0,62
3,71,110,2
3,71,0,62
3,71,110,2
3,71,0,320
3,66,110,32
3,66,0,94
3,69,110,2
3,69,0,142
3,69,110,2
3,69,0,46
3,69,110,2
3,69,0,62
3,69,110,2
3,69,0,62
3,69,110,2
3,69,0,224
3,66,110,128
3,66,0,94
3,69,110,2
3,69,0,142
3,69,110,2
3,69,0,46
3,69,110,2
3,69,0,62
3,69,110,2
3,69,0,62
3,69,110,2
3,69,0,320
3,66,110,32
3,66,0,94
3,71,110,2
3,71,0,142
3,71,110,2
3,71,0,46
3,71,110,2
3,71,0,62
3,71,110,2
3,71,0,62
3,71,110,2
3,71,0,320
3,66,110,32
3,66,0,94
3,71,110,2
3,71,0,142
3,71,110,2
3,71,0,46
3,71,110,2
3,71,0,62
3,71,110,2
3,71,0,62
3,71,110,2
3,71,0,320
3,66,110,32
3,66,0,94
3,69,110,2
3,69,0,142
3,69,110,2
3,69,0,46
3,69,110,2
3,69,0,62
3,69,110,2
3,69,0,62
3,69,110,2
3,69,0,224
3,66,110,128
3,66,0,94
3,68,110,2
3,68,0,142
3,68,110,2
3,68,0,46
3,68,110,2
3,68,0,62
3,68,110,2
3,68,0,62
3,68,110,2
3,68,0,320
3,61,110,32
3,61,0,94
3,66,110,2
3,66,0,142
3,66,110,2
3,66,0,46
3,66,110,2
3,66,0,62
3,66,110,2
3,66,0,62
3,66,110,2
3,66,0,224
3,66,110,1664
3,66,0,94
3,69,110,2
3,69,0,142
3,69,110,2
3,69,0,46
3,69,110,2
3,69,0,62
3,69,110,2
3,69,0,62
3,69,110,2
3,69,0,320
3,66,110,32
3,66,0,94
3,71,110,2
3,71,0,142
3,71,110,2
3,71,0,46
3,71,110,2
3,71,0,62
3,71,110,2
3,71,0,62
3,71,110,2
3,71,0,320
3,66,110,32
3,66,0,94
3,71,110,2
3,71,0,142
3,71,110,2
3,71,0,46
3,71,110,2
3,71,0,62
3,71,110,2
3,71,0,62
3,71,110,2
3,71,0,320
3,66,110,32
3,66,0,94
3,69,110,2
3,69,0,142
3,69,110,2
3,69,0,46
3,69,110,2
3,69,0,62
3,69,110,2
3,69,0,62
3,69,110,2
3,69,0,224
3,66,110,128
3,66,0,94
3,69,110,2
3,69,0,142
3,69,110,2
3,69,0,46
3,69,110,2
3,69,0,62
3,69,110,2
3,69,0,62
3,69,110,2
3,69,0,320
3,66,110,32
3,66,0,94
3,71,110,2
3,71,0,142
3,71,110,2
3,71,0,46
3,71,110,2
3,71,0,62
3,71,110,2
3,71,0,62
3,71,110,2
3,71,0,320
3,66,110,32
3,66,0,94
3,71,110,2
3,71,0,142
3,71,110,2
3,71,0,46
3,71,110,2
3,71,0,62
3,71,110,2
3,71,0,62
3,71,110,2
3,71,0,320
3,66,110,32
3,66,0,94
3,69,110,2
3,69,0,142
3,69,110,2
3,69,0,46
3,69,110,2
3,69,0,62
3,69,110,2
3,69,0,62
3,69,110,2
3,69,0,224
3,66,110,128
3,66,0,94
3,68,110,2
3,68,0,142
3,68,110,2
3,68,0,46
3,68,110,2
3,68,0,62
3,68,110,2
3,68,0,62
3,68,110,2
3,68,0,320
3,61,110,32
3,61,0,94
3,66,110,2
3,66,0,142
3,66,110,2
3,66,0,46
3,66,110,2
3,66,0,62
3,66,110,2
3,66,0,62
3,66,110,2
3,66,0,224
3,66,110,1664
3,66,0,94
3,69,110,2
3,69,0,142
3,69,110,2
3,69,0,46
3,69,110,2
3,69,0,62
3,69,110,2
3,69,0,62
3,69,110,2
3,69,0,320
3,66,110,32
3,66,0,94
3,71,110,2
3,71,0,142
3,71,110,2
3,71,0,46
3,71,110,2
3,71,0,62
3,71,110,2
3,71,0,62
3,71,110,2
3,71,0,320
3,66,110,32
3,66,0,94
3,71,110,2
3,71,0,142
3,71,110,2
3,71,0,46
3,71,110,2
3,71,0,62
3,71,110,2
3,71,0,62
3,71,110,2
3,71,0,320
3,66,110,32
3,66,0,94
3,69,110,2
3,69,0,142
3,69,110,2
3,69,0,46
3,69,110,2
3,69,0,62
3,69,110,2
3,69,0,62
3,69,110,2
3,69,0,224
3,66,110,128
3,66,0,94
3,69,110,2
3,69,0,142
3,69,110,2
3,69,0,46
3,69,110,2
3,69,0,62
3,69,110,2
3,69,0,62
3,69,110,2
3,69,0,320
3,66,110,32
3,66,0,94
3,71,110,2
3,71,0,142
3,71,110,2
3,71,0,46
3,71,110,2
3,71,0,62
3,71,110,2
3,71,0,62
3,71,110,2
3,71,0,320
3,66,110,32
3,66,0,94
3,71,110,2
3,71,0,142
3,71,110,2
3,71,0,46
3,71,110,2
3,71,0,62
3,71,110,2
3,71,0,62
3,71,110,2
3,71,0,320
3,66,110,32
3,66,0,94
3,69,110,2
3,69,0,142
3,69,110,2
3,69,0,46
3,69,110,2
3,69,0,62
3,69,110,2
3,69,0,62
3,69,110,2
3,69,0,224
3,66,110,128
3,66,0,94
3,68,110,2
3,68,0,142
3,68,110,2
3,68,0,46
3,68,110,2
3,68,0,62
3,68,110,2
3,68,0,62
3,68,110,2
3,68,0,320
3,61,110,32
3,61,0,94
3,66,110,2
3,66,0,142
3,66,110,2
3,66,0,46
3,66,110,2
3,66,0,62
3,66,110,2
3,66,0,62
3,66,110,2
3,66,0,224
3,66,110,1664
3,66,0,94
3,69,110,2
3,69,0,142
3,69,110,2
3,69,0,46
3,69,110,2
3,69,0,62
3,69,110,2
3,69,0,62
3,69,110,2
3,69,0,320
3,66,110,32
3,66,0,94
3,71,110,2
3,71,0,142
3,71,110,2
3,71,0,46
3,71,110,2
3,71,0,62
3,71,110,2
3,71,0,62
3,71,110,2
3,71,0,320
3,66,110,32
3,66,0,94
3,71,110,2
3,71,0,142
3,71,110,2
3,71,0,46
3,71,110,2
3,71,0,62
3,71,110,2
3,71,0,62
3,71,110,2
3,71,0,320
3,66,110,32
3,66,0,94
3,69,110,2
3,69,0,142
3,69,110,2
3,69,0,46
3,69,110,2
3,69,0,62
3,69,110,2
3,69,0,62
3,69,110,2
3,69,0,224
3,66,110,128
3,66,0,94
3,69,110,2
3,69,0,142
3,69,110,2
3,69,0,46
3,69,110,2
3,69,0,62
3,69,110,2
3,69,0,62
3,69,110,2
3,69,0,320
3,66,110,32
3,66,0,94
3,71,110,2
3,71,0,142
3,71,110,2
3,71,0,46
3,71,110,2
3,71,0,62
3,71,110,2
3,71,0,62
3,71,110,2
3,71,0,320
3,66,110,32
3,66,0,94
3,71,110,2
3,71,0,142
3,71,110,2
3,71,0,46
3,71,110,2
3,71,0,62
3,71,110,2
3,71,0,62
3,71,110,2
3,71,0,320
3,66,110,32
3,66,0,94
3,69,110,2
3,69,0,142
3,69,110,2
3,69,0,46
3,69,110,2
3,69,0,62
3,69,110,2
3,69,0,62
3,69,110,2
3,69,0,224
3,66,110,128
3,66,0,94
3,68,110,2
3,68,0,142
3,68,110,2
3,68,0,46
3,68,110,2
3,68,0,62
3,68,110,2
3,68,0,62
3,68,110,2
3,68,0,320
3,61,110,32
3,61,0,94
3,66,110,2
3,66,0,142
3,66,110,2
3,66,0,46
3,66,110,2
3,66,0,62
3,66,110,2
3,66,0,62
3,66,110,2
3,66,0,224
3,66,110,1664
3,66,0,94
3,69,110,2
3,69,0,142
3,69,110,2
3,69,0,46
3,69,110,2
3,69,0,62
3,69,110,2
3,69,0,62
3,69,110,2
3,69,0,320
3,66,110,32
3,66,0,94
3,71,110,2
3,71,0,142
3,71,110,2
3,71,0,46
3,71,110,2
3,71,0,62
3,71,110,2
3,71,0,62
3,71,110,2
3,71,0,320
3,66,110,32
3,66,0,94
3,71,110,2
3,71,0,142
3,71,110,2
3,71,0,46
3,71,110,2
3,71,0,62
3,71,110,2
3,71,0,62
3,71,110,2
3,71,0,320
3,66,110,32
3,66,0,94
3,69,110,2
3,69,0,142
3,69,110,2
3,69,0,46
3,69,110,2
3,69,0,62
3,69,110,2
3,69,0,62
3,69,110,2
3,69,0,224
3,66,110,128
3,66,0,94
3,69,110,2
3,69,0,142
3,69,110,2
3,69,0,46
3,69,110,2
3,69,0,62
3,69,110,2
3,69,0,62
3,69,110,2
3,69,0,320
3,66,110,32
3,66,0,94
3,71,110,2
3,71,0,142
3,71,110,2
3,71,0,46
3,71,110,2
3,71,0,62
3,71,110,2
3,71,0,62
3,71,110,2
3,71,0,320
3,66,110,32
3,66,0,94
3,71,110,2
3,71,0,142
3,71,110,2
3,71,0,46
3,71,110,2
3,71,0,62
3,71,110,2
3,71,0,62
3,71,110,2
3,71,0,320
3,66,110,32
3,66,0,94
3,69,110,2
3,69,0,142
3,69,110,2
3,69,0,46
3,69,110,2
3,69,0,62
3,69,110,2
3,69,0,62
3,69,110,2
3,69,0,224
3,66,110,128
3,66,0,94
3,68,110,2
3,68,0,142
3,68,110,2
3,68,0,46
3,68,110,2
3,68,0,62
3,68,110,2
3,68,0,62
3,68,110,2
3,68,0,320
3,61,110,32
3,61,0,94
3,66,110,2
3,66,0,142
3,66,110,2
3,66,0,46
3,66,110,2
3,66,0,62
3,66,110,2
3,66,0,62
3,66,110,2
3,66,0,158
3,66,110,50
3,66,0,46
3,66,110,2
3,66,0,142
3,66,110,2
3,66,0,46
3,68,110,2
3,68,0,142
3,68,110,2
3,68,0,46
3,68,110,2
3,68,0,62
3,68,110,2
3,68,0,62
3,68,110,2
3,68,0,320
3,61,110,32
3,61,0,94
3,66,110,2
3,66,0,160
3,66,110,32
3,66,0,160
3,66,110,32
3,66,0,336
4,54,110,0
4,54,0,94
4,57,110,2
4,45,110,192
4,49,110,0
4,57,0,62
4,54,110,2
4,54,0,62
4,57,110,2
4,45,0,32
4,49,0,0
4,57,0,30
4,56,110,2
4,47,110,192
4,49,110,0
4,56,0,62
4,53,110,2
4,53,0,62
4,56,110,2
4,47,0,32
4,49,0,0
4,56,0,30
4,54,110,2
4,54,0,142
4,54,110,2
4,54,0,46
4,54,110,2
4,54,0,94
4,54,110,2
4,54,0,256
4,54,110,128
4,54,0,94
4,57,110,2
4,57,0,142
4,57,110,2
4,57,0,46
4,49,110,2
4,54,110,0
4,57,110,0
4,57,0,62
4,57,110,2
4,57,0,62
4,57,110,2
4,49,0,32
4,54,0,0
4,45,110,224
4,49,110,0
4,57,0,94
4,54,110,2
4,45,0,64
4,49,0,0
4,54,0,30
4,59,110,2
4,59,0,142
4,59,110,2
4,59,0,46
4,50,110,2
4,54,110,0
4,59,110,0
4,59,0,62
4,59,110,2
4,59,0,62
4,59,110,2
4,50,0,32
4,54,0,0
4,47,110,224
4,50,110,0
4,59,0,94
4,54,110,2
4,47,0,64
4,50,0,0
4,54,0,30
4,59,110,2
4,59,0,142
4,59,110,2
4,59,0,46
4,50,110,2
4,54,110,0
4,59,110,0
4,59,0,62
4,59,110,2
4,59,0,62
4,59,110,2
4,50,0,32
4,54,0,0
4,47,110,224
4,50,110,0
4,59,0,94
4,54,110,2
4,47,0,64
4,50,0,0
4,54,0,30
4,57,110,2
4,57,0,142
4,57,110,2
4,57,0,46
4,49,110,2
4,54,110,0
4,57,110,0
4,57,0,62
4,57,110,2
4,57,0,62
4,57,110,2
4,49,0,32
4,54,0,0
4,57,0,192
4,45,110,32
4,49,110,0
4,54,110,96
4,45,0,64
4,49,0,0
4,54,0,30
4,57,110,2
4,57,0,142
4,57,110,2
4,57,0,46
4,49,110,2
4,54,110,0
4,57,110,0
4,57,0,62
4,57,110,2
4,57,0,62
4,57,110,2
4,49,0,32
4,54,0,0
4,45,110,224
4,49,110,0
4,57,0,94
4,54,110,2
4,45,0,64
4,49,0,0
4,54,0,30
4,59,110,2
4,59,0,142
4,59,110,2
4,59,0,46
