track,note,velocity,time
1,79,51,3056
1,79,57,108
1,79,54,112
1,79,47,136
1,76,53,12
1,71,41,36
1,74,58,28
1,72,46,24
1,78,59,1312
1,78,51,116
1,78,53,128
1,78,47,120
1,74,47,388
1,69,45,36
1,71,48,32
1,71,41,116
1,71,39,120
1,71,45,128
1,71,45,156
1,76,40,20
1,79,51,20
1,78,49,20
1,76,45,16
1,81,52,588
1,81,47,64
1,76,43,20
1,79,46,12
1,78,36,388
1,74,48,12
1,78,52,188
1,76,46,4
1,76,44,140
1,76,35,96
1,79,49,16
1,76,44,8
1,74,53,12
1,67,53,28
1,74,49,8
1,72,45,28
1,72,42,84
1,72,38,88
1,71,36,28
1,71,35,72
1,69,49,4
1,69,39,104
1,69,42,80
1,71,33,24
1,72,35,2028
1,74,31,36
1,76,32,40
1,74,31,504
1,69,44,32
1,74,33,28
1,76,33,40
1,74,37,20
1,72,37,12
1,71,37,16
1,72,38,24
1,67,31,52
1,71,35,1512
1,72,34,28
1,74,43,12
1,76,40,20
1,74,36,404
1,76,40,16
1,78,49,380
1,74,46,4
1,79,39,20
1,78,37,12
1,76,37,12
1,74,41,20
1,76,41,0
1,79,40,0
1,76,35,4
1,79,39,600
1,76,47,20
1,72,34,28
1,71,39,8
1,69,48,24
1,71,39,20
1,72,41,8
1,74,54,392
1,74,48,156
1,74,45,124
1,75,44,40
1,75,50,124
1,76,46,40
1,78,42,4
1,79,59,572
1,79,54,112
1,79,54,120
1,79,49,108
1,76,39,24
1,71,39,40
1,74,45,32
1,72,37,52
1,78,38,1340
1,78,50,132
1,78,45,132
1,78,39,116
1,74,36,408
1,69,46,48
1,71,38,36
1,71,40,140
1,71,43,112
1,71,47,132
1,71,36,140
1,76,45,384
1,79,42,36
1,78,48,12
1,76,38,4
1,81,54,28
1,76,44,12
1,79,39,32
1,78,48,4
1,74,50,12
1,78,46,8
1,76,45,384
1,79,30,20
1,76,48,4
1,74,45,12
1,67,31,20
1,74,41,356
1,72,35,28
1,71,36,20
1,69,41,16
1,71,34,40
1,72,30,32
1,71,42,188
1,72,34,24
1,71,40,20
1,72,40,24
1,71,38,12
1,72,37,32
1,71,39,16
1,79,35,360
1,78,36,988
1,76,52,0
1,76,38,112
1,78,43,4
1,79,51,24
1,78,42,4
1,79,35,560
1,78,47,0
1,76,41,408
1,74,44,24
1,76,35,20
1,74,32,12
1,79,34,220
1,79,38,76
1,78,41,560
1,78,40,120
1,76,31,28
1,79,48,4
1,81,68,200
1,79,56,16
1,78,44,16
1,74,44,12
1,78,50,0
1,76,42,12
1,79,53,720
1,76,38,12
1,74,38,12
1,67,39,764
1,74,37,4
1,72,47,8
1,71,44,0
1,71,34,56
1,69,44,4
1,71,40,2912
1,72,37,28
1,71,38,176
1,72,33,556
1,71,34,4
1,72,35,4
1,71,40,0
1,72,39,188
1,71,37,16
1,79,39,16
1,79,37,132
1,79,40,156
1,79,39,152
1,76,28,400
1,71,28,64
1,74,33,44
1,72,30,0
1,78,36,1364
1,78,34,132
1,78,37,124
1,78,36,116
1,74,36,416
1,69,35,52
1,71,33,40
1,71,39,140
1,71,41,108
1,71,39,120
1,71,45,112
1,76,36,20
1,79,34,24
1,78,38,16
1,76,40,16
1,81,42,28
1,76,38,8
1,79,39,28
1,78,33,28
1,74,38,4
1,78,47,0
1,76,45,8
1,78,40,684
1,79,39,12
1,76,38,28
1,74,36,28
1,67,37,24
1,74,46,388
1,72,52,4
1,71,51,0
1,71,34,96
1,69,28,32
1,71,35,2844
1,72,32,28
1,71,31,12
1,72,30,20
1,71,41,8
1,72,33,20
1,71,35,24
1,72,34,32
1,71,31,32
2,40,69,42984
2,40,54,520
2,40,64,52
2,40,69,124
2,40,68,212
2,33,68,192
2,33,62,508
2,33,61,44
2,33,64,116
2,33,60,184
2,38,67,184
2,38,61,508
2,38,52,44
2,38,67,120
2,38,66,212
2,31,69,8
2,31,49,456
2,31,59,72
2,30,66,40
2,40,70,428
2,40,54,480
2,40,56,52
2,40,64,136
2,40,63,212
2,33,68,0
2,33,61,452
2,33,68,56
2,38,100,564
2,38,100,416
2,38,68,16
2,31,71,12
2,36,67,4
2,36,53,352
2,36,66,56
2,36,66,112
2,36,59,228
2,31,64,8
2,31,43,460
2,31,53,56
2,31,62,92
2,31,57,244
2,36,67,12
2,36,46,432
2,36,63,96
2,31,61,192
2,29,62,4
2,41,50,2660
2,40,44,36
2,41,47,12
2,40,44,24
2,41,49,8
2,40,50,4
2,41,57,0
2,40,59,4
2,41,62,176
2,40,62,192
2,40,62,296
2,40,59,60
2,33,65,216
2,33,57,148
2,35,60,4
2,36,58,204
2,38,57,24
2,38,52,144
2,38,60,96
2,38,57,128
2,31,57,0
2,38,57,656
2,43,53,0
2,38,52,80
2,31,54,68
2,43,52,100
2,42,55,12
2,40,59,196
2,40,50,308
2,40,52,352
2,33,60,20
2,33,56,88
2,33,59,72
2,40,62,8
2,38,57,8
2,38,54,156
2,38,65,76
2,31,64,0
2,36,61,8
2,36,62,200
2,43,55,16
2,36,53,84
2,31,54,72
2,43,59,100
2,31,55,332
2,31,65,16
2,36,53,280
2,31,52,12
2,31,58,92
2,36,56,416
2,36,48,304
2,36,55,64
2,31,64,60
2,29,64,4
2,41,60,20
2,40,52,16
2,41,52,16
2,40,48,20
2,41,50,8
2,40,47,20
2,41,45,12
2,40,43,20
2,41,48,8
2,40,42,24
2,40,65,208
2,40,69,852
2,33,68,244
2,33,58,628
2,33,66,56
2,33,63,220
2,38,66,8
2,38,51,508
2,38,62,80
2,38,60,272
2,31,57,16
2,38,58,476
2,43,56,48
2,38,57,16
2,31,51,116
2,38,51,216
2,40,57,4
2,40,58,636
2,40,57,112
2,40,48,260
2,33,59,4
2,33,40,464
2,33,53,60
2,40,39,24
2,38,46,24
2,38,36,556
2,31,48,12
2,36,49,388
2,36,43,384
2,43,47,24
2,36,50,80
2,31,59,4
2,43,38,104
2,36,46,4
2,31,53,0
2,31,51,548
2,31,42,68
2,31,52,108
2,31,53,232
2,36,48,20
2,36,36,456
2,36,43,108
2,31,48,20
2,29,52,48
2,41,42,0
2,40,48,28
2,41,40,540
2,40,39,16
2,41,40,8
2,40,37,28
2,41,36,28
2,40,39,20
2,41,33,28
2,40,42,16
2,40,62,192
2,40,60,512
2,40,54,308
2,40,50,216
2,33,65,268
2,33,59,816
2,33,54,156
2,38,64,0
2,38,63,832
2,38,53,256
2,31,62,12
2,31,53,592
2,30,57,32
2,28,52,400
3,59,76,23404
3,61,69,136
3,61,67,120
3,62,77,24
3,59,86,4
4,83,48,9212
4,83,53,124
4,83,48,136
4,83,44,136
4,81,35,32
4,81,37,108
4,81,46,72
4,76,40,32
4,81,36,20
4,79,41,48
4,81,36,720
4,83,54,16
4,79,38,20
4,79,42,300
4,76,37,32
4,77,40,16
4,81,38,108
4,80,44,28
4,83,63,10700
4,81,42,20
4,79,39,28
4,78,37,36
4,79,30,24
4,78,28,5864
4,78,34,128
4,79,39,56
4,81,42,56
4,83,63,240
4,83,64,112
4,83,53,108
4,83,64,120
4,81,46,1976
4,81,45,120
4,81,47,112
4,81,44,128
4,81,38,116
4,81,56,132
4,79,37,100
4,83,52,92
4,81,61,8
4,79,41,20
4,79,47,112
4,79,33,104
4,79,49,68
4,79,47,80
4,81,47,8
4,81,34,80
4,81,46,144
4,79,40,28
4,83,59,1148
4,79,34,20
4,79,60,56
4,77,44,424
4,81,32,28
4,80,41,20
4,81,41,584
4,80,42,8
4,81,39,584
4,80,39,8
4,81,49,208
4,80,39,12
4,81,39,212
4,80,46,0
4,83,36,6828
4,81,39,12
4,81,45,144
4,79,28,40
4,79,34,108
4,81,50,164
4,81,38,120
4,81,49,104
4,79,41,28
4,83,49,8
4,79,26,48
4,79,41,120
4,79,53,76
4,76,45,20
4,77,45,4
4,80,37,44
4,81,43,20
4,80,38,20
4,81,39,552
4,80,39,16
4,81,39,204
4,80,38,0
4,81,41,204
4,80,43,12
4,79,40,28
4,81,50,3428
4,81,36,160
4,81,46,140
4,81,43,156
4,79,46,12
4,83,40,168
4,81,39,36
4,79,38,52
4,79,37,156
4,79,37,136
4,79,34,140
4,79,37,116
4,81,37,16
4,81,38,72
4,81,45,76
4,81,36,96
4,81,37,168
4,81,41,148
4,79,36,60
4,81,34,696
4,83,44,8
4,79,39,32
4,79,44,260
4,76,31,84
4,77,39,0
4,81,37,268
4,80,42,16
4,81,44,4
4,80,32,24
4,81,46,528
4,80,35,8
4,81,43,224
4,80,34,28
4,81,41,0
4,80,37,20
4,79,41,96
4,79,38,500
4,76,32,56
4,74,38,244
4,72,36,28
4,72,35,996
4,78,34,28
4,78,56,500
4,74,38,316
4,69,48,168
4,71,34,156
5,40,64,24576
5,33,66,0
5,42,64,148
5,40,66,136
5,42,67,0
5,42,64,136
5,33,63,16
5,42,63,0
5,40,60,40
5,42,62,96
5,40,63,136
5,42,63,0
5,42,63,140
5,33,67,144
5,42,67,0
5,42,68,144
5,40,65,132
5,42,66,0
5,42,66,148
5,33,66,28
5,42,63,0
5,40,62,36
5,42,66,96
5,40,67,128
5,42,66,0
5,42,72,136
5,33,61,44
5,42,73,0
5,42,69,176
5,42,71,28
5,40,70,0
5,42,67,140
5,42,67,44
5,33,51,0
5,40,58,52
5,42,66,96
5,42,65,136
5,40,64,0
5,42,64,148
5,33,66,148
5,42,66,0
5,42,64,140
5,40,66,136
5,42,67,0
5,42,64,136
5,33,63,16
5,42,63,0
5,40,60,40
5,42,62,96
5,40,63,136
5,42,63,0
5,42,63,140
5,33,67,144
5,42,67,0
5,42,68,144
5,40,65,132
5,42,66,0
5,42,66,148
5,33,66,28
5,42,63,0
5,40,62,36
5,42,66,96
5,40,67,128
5,42,66,0
5,42,72,136
5,33,61,44
5,42,73,0
5,42,69,176
5,42,71,28
5,40,70,0
5,42,67,140
5,42,67,44
5,33,51,0
5,40,58,52
5,42,66,96
5,42,65,136
5,40,64,0
5,42,64,148
5,33,66,148
5,42,66,0
5,42,64,140
5,40,66,136
5,42,67,0
5,42,64,136
5,33,63,16
5,42,63,0
5,40,60,40
5,42,62,96
5,40,63,136
5,42,63,0
5,42,63,140
5,33,67,144
5,42,67,0
5,42,68,144
5,40,65,132
5,42,66,0
5,42,66,148
5,33,66,28
5,42,63,0
5,40,62,36
5,42,66,96
5,40,67,128
5,42,66,0
5,42,72,136
5,33,61,44
5,42,73,0
5,42,69,176
5,42,71,28
5,40,70,0
5,42,67,140
5,42,67,44
5,33,51,0
5,40,58,52
5,42,66,96
5,42,65,136
5,40,64,0
5,42,64,148
5,33,66,148
5,42,66,0
5,42,64,140
5,40,66,136
5,42,67,0
5,42,64,136
5,33,63,16
5,42,63,0
5,40,60,40
5,42,62,96
5,40,63,136
5,42,63,0
5,42,63,140
5,33,67,144
5,42,67,0
5,42,68,144
5,40,65,132
5,42,66,0
5,42,66,148
5,33,66,28
5,42,63,0
5,40,62,36
5,42,66,96
5,40,67,128
5,42,66,0
5,42,72,136
5,33,61,44
5,42,73,0
5,42,69,176
5,42,71,28
5,40,70,0
5,42,67,140
5,42,67,44
5,33,51,0
5,40,58,52
5,42,66,96
5,42,65,136
5,40,64,0
5,42,64,148
5,33,66,148
5,42,66,0
5,42,64,44
5,40,66,136
5,42,67,0
5,42,64,136
5,33,63,16
5,42,63,0
5,40,60,40
5,42,62,96
5,40,63,136
5,42,63,0
5,42,63,140
5,33,67,144
5,42,67,0
5,42,68,144
5,40,65,132
5,42,66,0
5,42,66,148
5,33,66,28
5,42,63,0
5,40,62,36
5,42,66,96
5,40,67,128
5,42,66,0
5,42,72,136
5,33,61,44
5,42,73,0
5,42,69,176
5,42,71,28
5,40,70,0
5,42,67,140
5,42,67,44
5,33,51,0
5,40,58,52
5,42,66,96
5,42,65,136
5,40,64,0
5,42,64,148
5,33,66,148
5,42,66,0
5,42,64,140
5,40,66,136
5,42,67,0
5,42,64,136
5,33,63,16
5,42,63,0
5,40,60,40
5,42,62,96
5,40,63,136
5,42,63,0
5,42,63,140
5,33,67,144
5,42,67,0
5,42,68,20
5,40,65,132
5,42,66,0
5,42,66,148
5,33,66,28
5,42,63,0
5,40,62,36
5,42,66,96
5,40,67,128
5,42,66,0
5,42,72,136
5,33,61,44
5,42,73,0
5,42,69,176
5,42,71,28
5,40,70,0
5,42,67,140
5,42,67,44
5,33,51,0
5,40,58,52
5,42,66,96
5,42,65,136
5,40,64,0
5,42,64,148
5,33,66,148
5,42,66,0
5,42,64,140
5,40,66,136
5,42,67,0
5,42,64,136
5,33,63,16
5,42,63,0
5,40,60,40
5,42,62,96
5,40,63,136
5,42,63,0
5,42,63,140
5,33,67,144
5,42,67,0
5,42,68,144
5,40,65,132
5,42,66,0
5,42,66,148
5,33,66,28
5,42,63,0
5,40,62,36
5,42,66,96
5,40,67,128
5,42,66,0
5,42,72,136
5,33,61,44
5,42,73,0
5,42,69,176
5,42,71,28
5,40,70,0
5,42,67,140
5,42,67,44
5,33,51,0
5,40,58,52
5,42,66,96
5,42,65,136
5,40,64,0
5,42,64,148
5,33,66,148
5,42,66,0
5,42,64,140
5,40,66,136
5,42,67,0
5,42,64,136
5,33,63,16
5,42,63,0
5,40,60,40
5,42,62,96
5,40,63,136
5,42,63,0
5,42,63,140
5,33,67,144
5,42,67,0
5,42,68,144
5,40,65,132
5,42,66,0
5,42,66,148
5,33,66,28
5,42,63,0
5,40,62,36
5,42,66,96
5,40,67,128
5,42,66,0
5,42,72,136
5,33,61,44
5,42,73,0
5,42,69,176
5,42,71,28
5,40,70,0
5,42,67,140
5,42,67,44
5,33,51,0
5,40,58,52
5,42,66,96
5,42,65,136
5,40,64,0
5,42,64,148
5,33,66,148
5,42,66,0
5,42,64,140
5,40,66,136
5,42,67,0
5,42,64,24
5,33,63,16
5,42,63,0
5,40,60,40
5,42,62,96
5,40,63,136
5,42,63,0
5,42,63,140
5,33,67,144
5,42,67,0
5,42,68,20
5,40,65,132
5,42,66,0
5,42,66,148
5,33,66,28
5,42,63,0
5,40,62,36
5,42,66,96
5,40,67,128
5,42,66,0
5,42,72,136
5,33,61,44
5,42,73,0
5,42,69,176
5,42,71,28
5,40,70,0
5,42,67,140
5,42,67,44
5,33,51,0
5,40,58,52
5,42,66,96
5,42,65,136
5,40,64,0
5,42,64,148
5,33,66,148
5,42,66,0
5,42,64,140
5,40,66,136
5,42,67,0
5,42,64,136
5,33,63,16
5,42,63,0
5,40,60,40
5,42,62,96
5,40,63,136
5,42,63,0
5,42,63,140
5,33,67,144
5,42,67,0
5,42,68,144
5,40,65,132
5,42,66,0
5,42,66,148
5,33,66,28
5,42,63,0
5,40,62,36
5,42,66,96
5,40,67,128
5,42,66,0
5,42,72,136
5,33,61,44
5,42,73,0
5,42,69,176
5,42,71,28
5,40,70,0
5,42,67,140
5,42,67,44
5,33,51,0
5,40,58,52
5,42,66,96
5,42,65,136
5,40,64,0
5,42,64,148
5,33,66,148
5,42,66,0
5,42,64,140
5,40,66,100
5,42,67,0
5,42,64,136
5,33,63,16
5,42,63,0
5,40,60,40
5,42,62,96
5,40,63,136
5,42,63,0
5,42,63,140
5,33,67,144
5,42,67,0
5,42,68,144
5,40,65,132
5,42,66,0
5,42,66,148
5,33,66,28
5,42,63,0
5,40,62,36
5,42,66,96
5,40,67,128
5,42,66,0
5,42,72,136
5,33,61,44
5,42,73,0
5,42,69,176
5,42,71,28
5,40,70,0
5,42,67,140
5,42,67,44
5,33,51,0
5,40,58,52
5,42,66,96
5,42,65,136
5,40,64,0
5,42,64,148
5,33,66,148
5,42,66,0
5,42,64,140
5,40,66,136
5,42,67,0
5,42,64,136
5,33,63,16
5,42,63,0
5,40,60,40
5,42,62,96
5,40,63,136
5,42,63,0
5,42,63,140
5,33,67,144
5,42,67,0
5,42,68,144
5,40,65,132
5,42,66,0
5,42,66,148
5,33,66,28
5,42,63,0
5,40,62,36
5,42,66,96
5,40,67,128
5,42,66,0
5,42,72,136
5,33,61,44
