track,note,velocity,time
3,59,100,8832
3,67,100,0
3,67,100,0
3,66,100,0
3,64,100,0
3,64,100,0
3,67,100,384
3,66,100,0
3,61,100,0
3,64,100,0
3,64,100,0
3,64,100,384
3,66,100,0
3,67,100,0
3,64,100,0
3,67,100,0
3,66,100,0
3,64,100,0
3,66,100,0
3,67,100,0
3,64,100,0
3,64,100,0
3,67,100,0
3,66,100,0
3,64,100,384
3,66,100,0
3,67,100,0
3,64,100,0
3,67,100,0
3,71,100,0
3,69,100,0
3,71,100,0
3,67,100,0
3,66,100,0
3,62,100,0
3,66,100,0
3,64,100,0
3,61,100,384
3,61,100,0
3,62,100,0
3,64,100,0
3,64,100,0
3,64,100,0
3,67,100,0
3,66,100,0
3,64,100,0
3,62,100,0
3,61,100,0
3,66,100,384
3,59,100,0
3,61,100,0
3,62,100,0
3,64,100,0
3,57,100,0
3,59,100,0
3,61,100,0
3,55,100,0
3,57,100,0
3,59,100,0
3,58,100,0
3,59,100,0
3,61,100,0
3,59,100,0
3,61,100,0
3,56,100,0
3,58,100,0
3,59,100,0
3,59,100,0
3,59,100,2688
3,67,100,0
3,67,100,0
3,66,100,0
3,64,100,0
3,64,100,0
3,67,100,384
3,66,100,0
3,61,100,0
3,64,100,0
3,64,100,0
3,64,100,384
3,66,100,0
3,67,100,0
3,64,100,0
3,67,100,0
3,66,100,0
3,64,100,0
3,66,100,0
3,67,100,0
3,64,100,0
3,64,100,0
3,67,100,0
3,66,100,0
3,64,100,384
3,66,100,0
3,67,100,0
3,64,100,0
3,67,100,0
3,71,100,0
3,69,100,0
3,71,100,0
3,67,100,0
3,66,100,0
3,62,100,0
3,66,100,0
3,64,100,0
3,61,100,384
3,61,100,0
3,62,100,0
3,64,100,0
3,64,100,0
3,64,100,0
3,67,100,0
3,66,100,0
3,64,100,0
3,62,100,0
3,61,100,0
3,66,100,384
3,59,100,0
3,61,100,0
3,62,100,0
3,64,100,0
3,57,100,0
3,59,100,0
3,61,100,0
3,55,100,0
3,57,100,0
3,59,100,0
3,58,100,0
3,59,100,0
3,61,100,0
3,59,100,0
3,61,100,0
3,56,100,0
3,58,100,0
3,59,100,0
3,59,100,0
3,59,100,2688
3,67,100,0
3,67,100,0
3,66,100,0
3,64,100,0
3,64,100,0
3,67,100,384
3,66,100,0
3,61,100,0
3,64,100,0
3,64,100,0
3,64,100,384
3,66,100,0
3,67,100,0
3,64,100,0
3,67,100,0
3,66,100,0
3,64,100,0
3,66,100,0
3,67,100,0
3,64,100,0
3,64,100,0
3,67,100,0
3,66,100,0
3,64,100,384
3,66,100,0
3,67,100,0
3,64,100,0
3,67,100,0
3,71,100,0
3,69,100,0
3,71,100,0
3,67,100,0
3,66,100,0
3,62,100,0
3,66,100,0
3,64,100,0
3,61,100,384
3,61,100,0
3,62,100,0
3,64,100,0
3,64,100,0
3,64,100,0
3,67,100,0
3,66,100,0
3,64,100,0
3,62,100,0
3,61,100,0
3,66,100,384
3,59,100,0
3,61,100,0
3,62,100,0
3,64,100,0
3,57,100,0
3,59,100,0
3,61,100,0
3,55,100,0
3,57,100,0
3,59,100,0
3,58,100,0
3,59,100,0
3,61,100,0
3,59,100,0
3,61,100,0
3,56,100,0
3,58,100,0
3,59,100,0
3,59,100,0
3,59,100,2688
3,67,100,0
3,67,100,0
3,66,100,0
3,64,100,0
3,64,100,0
3,67,100,384
3,66,100,0
3,61,100,0
3,64,100,0
3,64,100,0
3,64,100,384
3,66,100,0
3,67,100,0
3,64,100,0
3,67,100,0
3,66,100,0
3,64,100,0
3,66,100,0
3,67,100,0
3,64,100,0
3,64,100,0
3,67,100,0
3,66,100,0
3,64,100,384
3,66,100,0
3,67,100,0
3,64,100,0
3,67,100,0
3,71,100,0
3,69,100,0
3,71,100,0
3,67,100,0
3,66,100,0
3,62,100,0
3,66,100,0
3,64,100,0
3,61,100,384
3,61,100,0
3,62,100,0
3,64,100,0
3,64,100,0
3,64,100,0
3,67,100,0
3,66,100,0
3,64,100,0
3,62,100,0
3,61,100,0
3,66,100,384
3,59,100,0
3,61,100,0
3,62,100,0
3,64,100,0
3,57,100,0
3,59,100,0
3,61,100,0
3,55,100,0
3,57,100,0
3,59,100,0
3,58,100,0
3,59,100,0
3,61,100,0
3,59,100,0
3,61,100,0
3,56,100,0
3,58,100,0
3,59,100,0
3,59,100,0
3,59,100,2688
3,67,100,0
3,67,100,0
3,66,100,0
3,64,100,0
3,64,100,0
3,67,100,384
3,66,100,0
3,61,100,0
3,64,100,0
3,64,100,0
3,64,100,384
3,66,100,0
3,67,100,0
3,64,100,0
3,67,100,0
3,66,100,0
3,64,100,0
3,66,100,0
3,67,100,0
3,64,100,0
3,64,100,0
3,67,100,0
3,66,100,0
3,64,100,384
3,66,100,0
3,67,100,0
3,64,100,0
3,67,100,0
3,71,100,0
3,69,100,0
3,71,100,0
3,67,100,0
3,66,100,0
3,62,100,0
3,66,100,0
3,64,100,0
3,61,100,384
3,61,100,0
3,62,100,0
3,64,100,0
3,64,100,0
3,64,100,0
3,67,100,0
3,66,100,0
3,64,100,0
3,62,100,0
3,61,100,0
3,66,100,384
3,59,100,0
3,61,100,0
3,62,100,0
3,64,100,0
3,57,100,0
3,59,100,0
3,61,100,0
3,55,100,0
3,57,100,0
3,59,100,0
3,58,100,0
3,59,100,0
3,61,100,0
3,59,100,0
3,61,100,0
3,56,100,0
3,58,100,0
3,59,100,0
3,59,100,0
3,59,100,2688
3,67,100,0
3,67,100,0
3,66,100,0
3,64,100,0
3,64,100,0
3,67,100,384
3,66,100,0
3,61,100,0
3,64,100,0
3,64,100,0
3,64,100,384
3,66,100,0
3,67,100,0
3,64,100,0
3,67,100,0
3,66,100,0
3,64,100,0
3,66,100,0
3,67,100,0
3,64,100,0
3,64,100,0
3,67,100,0
3,66,100,0
3,64,100,384
3,66,100,0
3,67,100,0
3,64,100,0
3,67,100,0
3,71,100,0
3,69,100,0
3,71,100,0
3,67,100,0
3,66,100,0
3,62,100,0
3,66,100,0
3,64,100,0
3,61,100,384
3,61,100,0
3,62,100,0
3,64,100,0
3,64,100,0
3,64,100,0
3,67,100,0
3,66,100,0
3,64,100,0
3,62,100,0
3,61,100,0
3,66,100,384
3,59,100,0
3,61,100,0
3,62,100,0
3,64,100,0
3,57,100,0
3,59,100,0
3,61,100,0
3,55,100,0
3,57,100,0
3,59,100,0
3,58,100,0
3,59,100,0
3,61,100,0
3,59,100,0
3,61,100,0
3,56,100,0
3,58,100,0
3,59,100,0
3,59,100,0
4,59,100,0
4,64,100,0
4,67,100,0
4,71,100,0
4,59,100,0
4,64,100,0
4,67,100,0
4,59,100,0
4,64,100,0
4,67,100,0
4,71,100,0
4,59,100,0
4,64,100,0
4,67,100,0
4,59,100,0
4,62,100,0
4,66,100,0
4,71,100,0
4,66,100,0
4,62,100,0
4,59,100,0
4,62,100,0
4,66,100,0
4,71,100,0
4,66,100,0
4,62,100,0
4,59,100,0
4,64,100,0
4,67,100,0
4,71,100,0
4,59,100,0
4,64,100,0
4,67,100,0
4,59,100,0
4,64,100,0
4,67,100,0
4,71,100,0
4,59,100,0
4,64,100,0
4,67,100,0
4,59,100,0
4,62,100,0
4,66,100,0
4,71,100,0
4,66,100,0
4,62,100,0
4,59,100,0
4,62,100,0
4,66,100,0
4,71,100,0
4,59,100,0
4,67,100,0
4,55,100,384
4,59,100,0
4,55,100,0
4,59,100,0
4,67,100,0
4,55,100,384
4,59,100,0
4,55,100,0
4,59,100,0
4,64,100,0
4,55,100,384
4,59,100,0
4,55,100,0
4,59,100,0
4,64,100,0
4,55,100,0
4,59,100,0
4,55,100,0
4,59,100,0
4,67,100,0
4,66,100,0
4,58,100,384
4,54,100,0
4,54,100,0
4,58,100,0
4,61,100,0
4,54,100,384
4,58,100,0
4,54,100,0
4,58,100,0
4,64,100,0
4,54,100,384
4,58,100,0
4,54,100,0
4,58,100,0
4,64,100,0
4,54,100,0
4,58,100,0
4,58,100,0
4,61,100,0
4,64,100,0
4,66,100,0
4,67,100,0
4,55,100,0
4,59,100,0
4,64,100,0
4,59,100,0
4,64,100,0
4,67,100,0
4,66,100,0
4,57,100,0
4,61,100,0
4,64,100,0
4,66,100,0
4,57,100,0
4,61,100,0
4,67,100,0
4,55,100,0
4,59,100,0
4,64,100,0
4,59,100,0
4,67,100,0
4,64,100,0
4,66,100,0
4,57,100,0
4,61,100,0
4,57,100,0
4,61,100,0
4,64,100,0
4,66,100,0
4,67,100,0
4,55,100,0
4,59,100,0
4,64,100,0
4,64,100,0
4,59,100,0
4,67,100,0
4,71,100,0
4,59,100,0
4,64,100,0
4,69,100,0
4,59,100,0
4,64,100,0
4,67,100,0
4,66,100,0
4,54,100,0
4,59,100,0
4,62,100,0
4,54,100,0
4,59,100,0
4,66,100,0
4,64,100,0
4,54,100,384
4,58,100,0
4,54,100,0
4,58,100,0
4,61,100,0
4,54,100,0
4,58,100,0
4,61,100,0
4,54,100,0
4,58,100,0
4,61,100,0
4,64,100,0
4,58,100,0
4,61,100,0
4,64,100,0
4,64,100,0
4,58,100,0
4,61,100,0
4,67,100,0
4,64,100,0
4,64,100,0
4,55,100,384
4,59,100,0
4,55,100,0
4,59,100,0
4,62,100,0
4,61,100,0
4,54,100,0
4,58,100,0
4,54,100,0
4,58,100,0
4,66,100,0
4,59,100,0
4,61,100,0
4,62,100,0
4,64,100,0
4,57,100,0
4,61,100,0
4,61,100,0
4,55,100,0
4,57,100,0
4,59,100,0
4,58,100,0
4,59,100,0
4,54,100,0
4,58,100,0
4,61,100,0
4,52,100,0
4,59,100,0
4,61,100,0
4,56,100,0
4,57,100,0
4,59,100,0
4,64,100,0
4,59,100,0
4,64,100,0
4,67,100,0
4,71,100,0
4,59,100,0
4,64,100,0
4,67,100,0
4,59,100,0
4,64,100,0
4,59,100,0
4,64,100,0
4,67,100,0
4,71,100,0
4,59,100,0
4,64,100,0
4,67,100,0
4,59,100,0
4,62,100,0
4,59,100,0
4,62,100,0
4,66,100,0
4,71,100,0
4,59,100,0
4,62,100,0
4,66,100,0
4,62,100,0
4,59,100,0
4,62,100,0
4,59,100,0
4,62,100,0
4,66,100,0
4,71,100,0
4,59,100,0
4,67,100,0
4,55,100,384
4,59,100,0
4,55,100,0
4,59,100,0
4,67,100,0
4,55,100,384
4,59,100,0
4,55,100,0
4,59,100,0
4,64,100,0
4,55,100,384
4,59,100,0
4,55,100,0
4,59,100,0
4,64,100,0
4,55,100,0
4,59,100,0
4,55,100,0
4,59,100,0
4,67,100,0
4,66,100,0
4,58,100,384
4,54,100,0
4,54,100,0
4,58,100,0
4,61,100,0
4,54,100,384
4,58,100,0
4,54,100,0
4,58,100,0
4,64,100,0
4,54,100,384
4,58,100,0
4,54,100,0
4,58,100,0
4,64,100,0
4,54,100,0
4,58,100,0
4,58,100,0
4,61,100,0
4,64,100,0
4,66,100,0
4,67,100,0
4,55,100,0
4,59,100,0
4,64,100,0
4,59,100,0
4,64,100,0
4,67,100,0
4,66,100,0
4,57,100,0
4,61,100,0
4,64,100,0
4,66,100,0
4,57,100,0
4,61,100,0
4,67,100,0
4,55,100,0
4,59,100,0
4,64,100,0
4,59,100,0
4,67,100,0
4,64,100,0
4,66,100,0
4,57,100,0
4,61,100,0
4,57,100,0
4,61,100,0
4,64,100,0
4,66,100,0
4,67,100,0
4,55,100,0
4,59,100,0
4,64,100,0
4,64,100,0
4,59,100,0
4,67,100,0
4,71,100,0
4,59,100,0
4,64,100,0
4,69,100,0
4,59,100,0
4,64,100,0
4,67,100,0
4,66,100,0
4,54,100,0
4,59,100,0
4,62,100,0
4,54,100,0
4,59,100,0
4,66,100,0
4,64,100,0
4,54,100,384
4,58,100,0
4,54,100,0
4,58,100,0
4,61,100,0
4,54,100,0
4,58,100,0
4,61,100,0
4,54,100,0
4,58,100,0
4,61,100,0
4,64,100,0
4,58,100,0
4,61,100,0
4,64,100,0
4,64,100,0
4,58,100,0
4,61,100,0
4,67,100,0
4,64,100,0
4,64,100,0
4,55,100,384
4,59,100,0
4,55,100,0
4,59,100,0
4,62,100,0
4,61,100,0
4,54,100,0
4,58,100,0
4,54,100,0
4,58,100,0
4,66,100,0
4,59,100,0
4,61,100,0
4,62,100,0
4,64,100,0
4,57,100,0
4,61,100,0
4,61,100,0
4,55,100,0
4,57,100,0
4,59,100,0
4,58,100,0
4,59,100,0
4,54,100,0
4,58,100,0
4,61,100,0
4,52,100,0
4,59,100,0
4,61,100,0
4,56,100,0
4,57,100,0
4,59,100,0
4,64,100,0
4,59,100,0
4,64,100,0
4,67,100,0
4,71,100,0
4,59,100,0
4,64,100,0
4,67,100,0
4,59,100,0
4,64,100,0
4,59,100,0
4,64,100,0
4,67,100,0
4,71,100,0
4,59,100,0
4,64,100,0
4,67,100,0
4,59,100,0
4,62,100,0
4,59,100,0
4,62,100,0
4,66,100,0
4,71,100,0
4,59,100,0
4,62,100,0
4,66,100,0
4,62,100,0
4,59,100,0
4,62,100,0
4,59,100,0
4,62,100,0
4,66,100,0
4,71,100,0
4,59,100,0
4,67,100,0
4,55,100,384
4,59,100,0
4,55,100,0
4,59,100,0
4,67,100,0
4,55,100,384
4,59,100,0
4,55,100,0
4,59,100,0
4,64,100,0
4,55,100,384
4,59,100,0
4,55,100,0
4,59,100,0
4,64,100,0
4,55,100,0
4,59,100,0
4,55,100,0
4,59,100,0
4,67,100,0
4,66,100,0
4,58,100,384
4,54,100,0
4,54,100,0
4,58,100,0
4,61,100,0
4,54,100,384
4,58,100,0
4,54,100,0
4,58,100,0
4,64,100,0
4,54,100,384
4,58,100,0
4,54,100,0
4,58,100,0
4,64,100,0
4,54,100,0
4,58,100,0
4,58,100,0
4,61,100,0
4,64,100,0
4,66,100,0
4,67,100,0
4,55,100,0
4,59,100,0
4,64,100,0
4,59,100,0
4,64,100,0
4,67,100,0
4,66,100,0
4,57,100,0
4,61,100,0
4,64,100,0
4,66,100,0
4,57,100,0
4,61,100,0
4,67,100,0
4,55,100,0
4,59,100,0
4,64,100,0
4,59,100,0
4,67,100,0
4,64,100,0
4,66,100,0
4,57,100,0
4,61,100,0
4,57,100,0
4,61,100,0
4,64,100,0
4,66,100,0
4,67,100,0
4,55,100,0
4,59,100,0
4,64,100,0
4,64,100,0
4,59,100,0
4,67,100,0
4,71,100,0
4,59,100,0
4,64,100,0
4,69,100,0
4,59,100,0
4,64,100,0
4,67,100,0
4,66,100,0
4,54,100,0
4,59,100,0
4,62,100,0
4,54,100,0
4,59,100,0
4,66,100,0
4,64,100,0
4,54,100,384
4,58,100,0
4,54,100,0
4,58,100,0
4,61,100,0
4,54,100,0
4,58,100,0
4,61,100,0
4,54,100,0
4,58,100,0
4,61,100,0
4,64,100,0
4,58,100,0
4,61,100,0
4,64,100,0
4,64,100,0
4,58,100,0
4,61,100,0
4,67,100,0
4,64,100,0
4,64,100,0
4,55,100,384
4,59,100,0
4,55,100,0
4,59,100,0
4,62,100,0
4,61,100,0
4,54,100,0
4,58,100,0
4,54,100,0
4,58,100,0
4,66,100,0
4,59,100,0
4,61,100,0
4,62,100,0
4,64,100,0
4,57,100,0
4,61,100,0
4,61,100,0
4,55,100,0
4,57,100,0
4,59,100,0
4,58,100,0
4,59,100,0
4,54,100,0
4,58,100,0
4,61,100,0
4,52,100,0
4,59,100,0
4,61,100,0
4,56,100,0
4,57,100,0
4,59,100,0
4,64,100,0
4,59,100,0
4,64,100,0
4,67,100,0
4,71,100,0
4,59,100,0
4,64,100,0
4,67,100,0
4,59,100,0
4,64,100,0
4,59,100,0
4,64,100,0
4,67,100,0
4,71,100,0
4,59,100,0
4,64,100,0
4,67,100,0
4,59,100,0
4,62,100,0
4,59,100,0
4,62,100,0
4,66,100,0
4,71,100,0
4,59,100,0
4,62,100,0
4,66,100,0
4,62,100,0
4,59,100,0
4,62,100,0
4,59,100,0
4,62,100,0
4,66,100,0
4,71,100,0
4,59,100,0
4,67,100,0
