track,note,velocity,time
3,54,110,192
3,57,110,4
3,61,110,4
3,61,110,64
3,59,110,4
3,62,110,4
3,61,110,4
3,59,110,4
3,57,110,4
3,57,110,64
3,61,110,4
3,66,110,4
3,64,110,4
3,62,110,64
3,66,110,4
3,64,110,4
3,61,110,4
3,61,110,96
3,65,110,4
3,68,110,4
3,65,110,64
3,68,110,4
3,71,110,4
3,69,110,4
3,68,110,4
3,66,110,4
3,66,110,64
3,69,110,4
3,68,110,4
3,62,110,4
3,64,110,64
3,68,110,4
3,64,110,4
3,61,110,4
3,61,110,96
3,65,110,4
3,68,110,4
3,65,110,64
3,68,110,4
3,71,110,4
3,69,110,4
3,68,110,4
3,66,110,4
3,66,110,256
3,69,110,4
3,66,110,4
3,69,110,4
3,68,110,4
3,63,110,4
3,65,110,4
3,66,110,4
3,54,110,96
3,57,110,4
3,61,110,4
3,61,110,64
3,59,110,4
3,62,110,4
3,61,110,4
3,59,110,4
3,57,110,4
3,57,110,64
3,61,110,4
3,66,110,4
3,64,110,4
3,62,110,64
3,66,110,4
3,64,110,4
3,61,110,4
3,61,110,96
3,65,110,4
3,68,110,4
3,65,110,64
3,68,110,4
3,71,110,4
3,69,110,4
3,68,110,4
3,66,110,4
3,66,110,64
3,69,110,4
3,68,110,4
3,62,110,4
3,64,110,64
3,68,110,4
3,64,110,4
3,61,110,4
3,61,110,96
3,65,110,4
3,68,110,4
3,65,110,64
3,68,110,4
3,71,110,4
3,69,110,4
3,68,110,4
3,66,110,4
3,66,110,256
3,69,110,4
3,66,110,4
3,69,110,4
3,68,110,4
3,63,110,4
3,65,110,4
3,66,110,4
3,54,110,96
3,57,110,4
3,61,110,4
3,61,110,64
3,59,110,4
3,62,110,4
3,61,110,4
3,59,110,4
3,57,110,4
3,57,110,64
3,61,110,4
3,66,110,4
3,64,110,4
3,62,110,64
3,66,110,4
3,64,110,4
3,61,110,4
3,61,110,96
3,65,110,4
3,68,110,4
3,65,110,64
3,68,110,4
3,71,110,4
3,69,110,4
3,68,110,4
3,66,110,4
3,66,110,64
3,69,110,4
3,68,110,4
3,62,110,4
3,64,110,64
3,68,110,4
3,64,110,4
3,61,110,4
3,61,110,96
3,65,110,4
3,68,110,4
3,65,110,64
3,68,110,4
3,71,110,4
3,69,110,4
3,68,110,4
3,66,110,4
3,66,110,256
3,69,110,4
3,66,110,4
3,69,110,4
3,68,110,4
3,63,110,4
3,65,110,4
3,66,110,4
3,54,110,96
3,57,110,4
3,61,110,4
3,61,110,64
3,59,110,4
3,62,110,4
3,61,110,4
3,59,110,4
3,57,110,4
3,57,110,64
3,61,110,4
3,66,110,4
3,64,110,4
3,62,110,64
3,66,110,4
3,64,110,4
3,61,110,4
3,61,110,96
3,65,110,4
3,68,110,4
3,65,110,64
3,68,110,4
3,71,110,4
3,69,110,4
3,68,110,4
3,66,110,4
3,66,110,64
3,69,110,4
3,68,110,4
3,62,110,4
3,64,110,64
3,68,110,4
3,64,110,4
3,61,110,4
3,61,110,96
3,65,110,4
3,68,110,4
3,65,110,64
3,68,110,4
3,71,110,4
3,69,110,4
3,68,110,4
3,66,110,4
3,66,110,256
3,69,110,4
3,66,110,4
3,69,110,4
3,68,110,4
3,63,110,4
3,65,110,4
3,66,110,4
3,54,110,96
3,57,110,4
3,61,110,4
3,61,110,64
3,59,110,4
3,62,110,4
3,61,110,4
3,59,110,4
3,57,110,4
3,57,110,64
3,61,110,4
3,66,110,4
3,64,110,4
3,62,110,64
3,66,110,4
3,64,110,4
3,61,110,4
3,61,110,96
3,65,110,4
3,68,110,4
3,65,110,64
3,68,110,4
3,71,110,4
3,69,110,4
3,68,110,4
3,66,110,4
3,66,110,64
3,69,110,4
3,68,110,4
3,62,110,4
3,64,110,64
3,68,110,4
3,64,110,4
3,61,110,4
3,61,110,96
3,65,110,4
3,68,110,4
3,65,110,64
3,68,110,4
3,71,110,4
3,69,110,4
3,68,110,4
3,66,110,4
3,66,110,256
3,69,110,4
3,66,110,4
3,69,110,4
3,68,110,4
3,63,110,4
3,65,110,4
3,66,110,4
3,54,110,96
3,57,110,4
3,61,110,4
3,61,110,64
3,59,110,4
3,62,110,4
3,61,110,4
3,59,110,4
3,57,110,4
3,57,110,64
3,61,110,4
3,66,110,4
3,64,110,4
3,62,110,64
3,66,110,4
3,64,110,4
3,61,110,4
3,61,110,96
3,65,110,4
3,68,110,4
3,65,110,64
3,68,110,4
3,71,110,4
3,69,110,4
3,68,110,4
3,66,110,4
3,66,110,64
3,69,110,4
3,68,110,4
3,62,110,4
3,64,110,64
3,68,110,4
3,64,110,4
3,61,110,4
3,61,110,96
3,65,110,4
3,68,110,4
3,65,110,64
3,68,110,4
3,71,110,4
3,69,110,4
3,68,110,4
3,66,110,4
3,66,110,256
3,69,110,4
3,66,110,4
3,69,110,4
3,68,110,4
3,63,110,4
3,65,110,4
3,66,110,4
4,54,110,192
4,57,110,4
4,53,110,4
4,61,110,0
4,61,110,64
4,53,110,4
4,59,110,0
4,62,110,4
4,61,110,4
4,56,110,4
4,59,110,0
4,54,110,4
4,57,110,0
4,57,110,64
4,61,110,4
4,62,110,4
4,66,110,0
4,64,110,4
4,59,110,64
4,62,110,0
4,66,110,4
4,64,110,4
4,57,110,4
4,61,110,0
4,61,110,96
4,65,110,4
4,59,110,4
4,68,110,0
4,65,110,64
4,59,110,4
4,68,110,0
4,71,110,4
4,69,110,4
4,59,110,4
4,68,110,0
4,57,110,4
4,66,110,0
4,66,110,64
4,69,110,4
4,68,110,4
4,59,110,4
4,62,110,0
4,56,110,64
4,64,110,0
4,68,110,4
4,64,110,4
4,57,110,4
4,61,110,0
4,61,110,96
4,65,110,4
4,59,110,4
4,68,110,0
4,65,110,64
4,59,110,4
4,68,110,0
4,71,110,4
4,69,110,4
4,59,110,4
4,68,110,0
4,57,110,4
4,66,110,0
4,66,110,256
4,61,110,4
4,69,110,0
4,66,110,4
4,69,110,4
4,59,110,4
4,68,110,0
4,63,110,4
4,65,110,4
4,57,110,4
4,66,110,0
4,54,110,96
4,57,110,4
4,53,110,4
4,61,110,0
4,61,110,64
4,53,110,4
4,59,110,0
4,62,110,4
4,61,110,4
4,56,110,4
4,59,110,0
4,54,110,4
4,57,110,0
4,57,110,64
4,61,110,4
4,62,110,4
4,66,110,0
4,64,110,4
4,59,110,64
4,62,110,0
4,66,110,4
4,64,110,4
4,57,110,4
4,61,110,0
4,61,110,96
4,65,110,4
4,59,110,4
4,68,110,0
4,65,110,64
4,59,110,4
4,68,110,0
4,71,110,4
4,69,110,4
4,59,110,4
4,68,110,0
4,57,110,4
4,66,110,0
4,66,110,64
4,69,110,4
4,68,110,4
4,59,110,4
4,62,110,0
4,56,110,64
4,64,110,0
4,68,110,4
4,64,110,4
4,57,110,4
4,61,110,0
4,61,110,96
4,65,110,4
4,59,110,4
4,68,110,0
4,65,110,64
4,59,110,4
4,68,110,0
4,71,110,4
4,69,110,4
4,59,110,4
4,68,110,0
4,57,110,4
4,66,110,0
4,66,110,256
4,61,110,4
4,69,110,0
4,66,110,4
4,69,110,4
4,59,110,4
4,68,110,0
4,63,110,4
4,65,110,4
4,57,110,4
4,66,110,0
4,54,110,96
4,57,110,4
4,53,110,4
4,61,110,0
4,61,110,64
4,53,110,4
4,59,110,0
4,62,110,4
4,61,110,4
4,56,110,4
4,59,110,0
4,54,110,4
4,57,110,0
4,57,110,64
4,61,110,4
4,62,110,4
4,66,110,0
4,64,110,4
4,59,110,64
4,62,110,0
4,66,110,4
4,64,110,4
4,57,110,4
4,61,110,0
4,61,110,96
4,65,110,4
4,59,110,4
4,68,110,0
4,65,110,64
4,59,110,4
4,68,110,0
4,71,110,4
4,69,110,4
4,59,110,4
4,68,110,0
4,57,110,4
4,66,110,0
4,66,110,64
4,69,110,4
4,68,110,4
4,59,110,4
4,62,110,0
4,56,110,64
4,64,110,0
4,68,110,4
4,64,110,4
4,57,110,4
4,61,110,0
4,61,110,96
4,65,110,4
4,59,110,4
4,68,110,0
4,65,110,64
4,59,110,4
4,68,110,0
4,71,110,4
4,69,110,4
4,59,110,4
4,68,110,0
4,57,110,4
4,66,110,0
4,66,110,256
4,61,110,4
4,69,110,0
4,66,110,4
4,69,110,4
4,59,110,4
4,68,110,0
4,63,110,4
4,65,110,4
4,57,110,4
4,66,110,0
4,54,110,96
4,57,110,4
4,53,110,4
4,61,110,0
4,61,110,64
4,53,110,4
4,59,110,0
4,62,110,4
4,61,110,4
4,56,110,4
4,59,110,0
4,54,110,4
4,57,110,0
4,57,110,64
4,61,110,4
4,62,110,4
4,66,110,0
4,64,110,4
4,59,110,64
4,62,110,0
4,66,110,4
4,64,110,4
4,57,110,4
4,61,110,0
4,61,110,96
4,65,110,4
4,59,110,4
4,68,110,0
4,65,110,64
4,59,110,4
4,68,110,0
4,71,110,4
4,69,110,4
4,59,110,4
4,68,110,0
4,57,110,4
4,66,110,0
4,66,110,64
4,69,110,4
4,68,110,4
4,59,110,4
4,62,110,0
4,56,110,64
4,64,110,0
4,68,110,4
4,64,110,4
4,57,110,4
4,61,110,0
4,61,110,96
4,65,110,4
4,59,110,4
4,68,110,0
4,65,110,64
4,59,110,4
4,68,110,0
4,71,110,4
4,69,110,4
4,59,110,4
4,68,110,0
4,57,110,4
4,66,110,0
4,66,110,256
4,61,110,4
4,69,110,0
4,66,110,4
4,69,110,4
4,59,110,4
4,68,110,0
4,63,110,4
4,65,110,4
4,57,110,4
4,66,110,0
4,54,110,96
4,57,110,4
4,53,110,4
4,61,110,0
4,61,110,64
4,53,110,4
4,59,110,0
4,62,110,4
4,61,110,4
4,56,110,4
4,59,110,0
4,54,110,4
4,57,110,0
4,57,110,64
4,61,110,4
4,62,110,4
4,66,110,0
4,64,110,4
4,59,110,64
4,62,110,0
4,66,110,4
4,64,110,4
4,57,110,4
4,61,110,0
4,61,110,96
4,65,110,4
4,59,110,4
4,68,110,0
4,65,110,64
4,59,110,4
4,68,110,0
4,71,110,4
4,69,110,4
4,59,110,4
4,68,110,0
4,57,110,4
4,66,110,0
4,66,110,64
4,69,110,4
4,68,110,4
4,59,110,4
4,62,110,0
4,56,110,64
4,64,110,0
4,68,110,4
4,64,110,4
4,57,110,4
4,61,110,0
4,61,110,96
4,65,110,4
4,59,110,4
4,68,110,0
4,65,110,64
4,59,110,4
4,68,110,0
4,71,110,4
4,69,110,4
4,59,110,4
4,68,110,0
4,57,110,4
4,66,110,0
4,66,110,256
4,61,110,4
4,69,110,0
4,66,110,4
4,69,110,4
4,59,110,4
4,68,110,0
4,63,110,4
4,65,110,4
4,57,110,4
4,66,110,0
4,54,110,96
4,57,110,4
4,53,110,4
4,61,110,0
4,61,110,64
4,53,110,4
4,59,110,0
4,62,110,4
4,61,110,4
4,56,110,4
4,59,110,0
4,54,110,4
4,57,110,0
4,57,110,64
4,61,110,4
4,62,110,4
4,66,110,0
4,64,110,4
4,59,110,64
4,62,110,0
4,66,110,4
4,64,110,4
4,57,110,4
4,61,110,0
4,61,110,96
4,65,110,4
4,59,110,4
4,68,110,0
4,65,110,64
4,59,110,4
4,68,110,0
4,71,110,4
4,69,110,4
4,59,110,4
4,68,110,0
4,57,110,4
4,66,110,0
4,66,110,64
4,69,110,4
4,68,110,4
4,59,110,4
4,62,110,0
4,56,110,64
4,64,110,0
4,68,110,4
4,64,110,4
4,57,110,4
4,61,110,0
4,61,110,96
4,65,110,4
4,59,110,4
4,68,110,0
4,65,110,64
4,59,110,4
4,68,110,0
4,71,110,4
4,69,110,4
4,59,110,4
4,68,110,0
4,57,110,4
4,66,110,0
4,66,110,256
4,61,110,4
4,69,110,0
4,66,110,4
4,69,110,4
4,59,110,4
4,68,110,0
4,63,110,4
4,65,110,4
4,57,110,4
4,66,110,0
5,49,110,576
5,56,110,4
5,53,110,4
5,49,110,4
5,56,110,4
5,53,110,4
5,42,110,4
5,49,110,4
5,45,110,4
5,42,110,4
5,40,110,388
5,47,110,4
5,44,110,4
5,40,110,4
5,47,110,4
5,44,110,4
5,45,110,4
5,52,110,4
5,49,110,4
5,45,110,4
5,49,110,388
5,56,110,4
5,53,110,4
5,49,110,4
5,56,110,4
5,53,110,4
5,50,110,4
5,57,110,4
5,54,110,4
5,50,110,4
5,47,110,388
5,50,110,4
5,54,110,4
5,40,110,4
5,44,110,4
5,47,110,4
5,45,110,4
5,49,110,4
5,52,110,4
5,45,110,4
5,49,110,388
5,56,110,4
5,53,110,4
5,49,110,4
5,56,110,4
5,53,110,4
5,50,110,4
5,57,110,4
5,54,110,4
5,50,110,4
5,42,110,388
5,45,110,4
5,49,110,4
5,37,110,4
5,41,110,4
5,44,110,4
5,42,110,4
5,45,110,4
5,49,110,4
5,42,110,4
5,49,110,388
5,56,110,4
5,53,110,4
5,49,110,4
5,56,110,4
5,53,110,4
5,42,110,4
5,49,110,4
5,45,110,4
5,42,110,4
5,40,110,388
5,47,110,4
5,44,110,4
5,40,110,4
5,47,110,4
5,44,110,4
5,45,110,4
5,52,110,4
5,49,110,4
5,45,110,4
5,49,110,388
5,56,110,4
5,53,110,4
5,49,110,4
5,56,110,4
5,53,110,4
5,50,110,4
5,57,110,4
5,54,110,4
5,50,110,4
5,47,110,388
5,50,110,4
5,54,110,4
5,40,110,4
5,44,110,4
5,47,110,4
5,45,110,4
5,49,110,4
5,52,110,4
5,45,110,4
5,49,110,388
5,56,110,4
5,53,110,4
5,49,110,4
5,56,110,4
5,53,110,4
5,50,110,4
5,57,110,4
5,54,110,4
5,50,110,4
5,42,110,388
5,45,110,4
5,49,110,4
5,37,110,4
5,41,110,4
5,44,110,4
5,42,110,4
5,45,110,4
5,49,110,4
5,42,110,4
5,49,110,388
5,56,110,4
5,53,110,4
5,49,110,4
5,56,110,4
5,53,110,4
5,42,110,4
5,49,110,4
5,45,110,4
5,42,110,4
5,40,110,388
5,47,110,4
5,44,110,4
5,40,110,4
5,47,110,4
5,44,110,4
5,45,110,4
5,52,110,4
5,49,110,4
5,45,110,4
5,49,110,388
5,56,110,4
5,53,110,4
5,49,110,4
5,56,110,4
5,53,110,4
5,50,110,4
5,57,110,4
5,54,110,4
5,50,110,4
5,47,110,388
5,50,110,4
5,54,110,4
5,40,110,4
5,44,110,4
5,47,110,4
5,45,110,4
5,49,110,4
5,52,110,4
5,45,110,4
5,49,110,388
5,56,110,4
5,53,110,4
5,49,110,4
5,56,110,4
5,53,110,4
5,50,110,4
5,57,110,4
5,54,110,4
5,50,110,4
5,42,110,388
5,45,110,4
5,49,110,4
5,37,110,4
5,41,110,4
5,44,110,4
5,42,110,4
5,45,110,4
5,49,110,4
5,42,110,4
5,49,110,388
5,56,110,4
5,53,110,4
5,49,110,4
5,56,110,4
5,53,110,4
5,42,110,4
5,49,110,4
5,45,110,4
5,42,110,4
5,40,110,388
5,47,110,4
5,44,110,4
5,40,110,4
5,47,110,4
5,44,110,4
5,45,110,4
5,52,110,4
5,49,110,4
5,45,110,4
5,49,110,388
5,56,110,4
5,53,110,4
5,49,110,4
5,56,110,4
5,53,110,4
5,50,110,4
5,57,110,4
5,54,110,4
5,50,110,4
5,47,110,388
5,50,110,4
5,54,110,4
5,40,110,4
5,44,110,4
5,47,110,4
5,45,110,4
5,49,110,4
5,52,110,4
5,45,110,4
5,49,110,388
5,56,110,4
5,53,110,4
5,49,110,4
5,56,110,4
5,53,110,4
5,50,110,4
5,57,110,4
5,54,110,4
5,50,110,4
5,42,110,388
5,45,110,4
5,49,110,4
5,37,110,4
5,41,110,4
5,44,110,4
5,42,110,4
5,45,110,4
5,49,110,4
5,42,110,4
5,49,110,388
5,56,110,4
5,53,110,4
5,49,110,4
5,56,110,4
5,53,110,4
5,42,110,4
5,49,110,4
5,45,110,4
5,42,110,4
5,40,110,388
5,47,110,4
5,44,110,4
5,40,110,4
5,47,110,4
5,44,110,4
5,45,110,4
5,52,110,4
5,49,110,4
5,45,110,4
5,49,110,388
5,56,110,4
