track,note,velocity,time
3,44,76,192
3,44,76,300
3,36,76,104
3,44,76,100
3,44,76,292
3,36,76,104
3,44,76,104
3,44,76,292
3,36,76,100
3,44,76,100
3,44,76,288
3,44,76,292
3,44,76,292
3,36,76,100
3,44,76,100
3,44,76,292
3,36,76,104
3,44,76,100
3,44,76,292
3,36,76,100
3,44,76,100
3,44,76,292
3,36,76,100
3,44,76,100
3,44,76,296
3,36,76,100
3,44,76,104
3,44,76,292
3,36,76,104
3,44,76,100
3,44,76,292
3,36,76,100
3,44,76,100
3,44,76,296
3,36,76,100
3,44,76,100
3,44,76,292
3,36,76,104
3,44,76,100
3,44,76,296
3,36,76,100
3,44,76,100
3,44,76,292
3,36,76,100
3,44,76,100
3,44,76,296
3,36,76,100
3,44,76,104
3,44,76,292
3,36,76,104
3,44,76,100
3,44,76,296
3,36,76,100
3,44,76,100
3,44,76,296
3,36,76,96
3,44,76,104
3,44,76,296
3,36,76,104
3,44,76,100
3,44,76,292
3,36,76,100
3,44,76,100
3,44,76,292
3,36,76,108
3,44,76,108
3,44,76,296
3,36,76,100
3,44,76,100
3,44,76,296
3,36,76,100
3,44,76,100
3,44,76,292
3,36,76,104
3,44,76,104
3,44,76,292
3,36,76,100
3,44,76,108
3,44,76,296
3,36,76,100
3,44,76,100
3,44,76,292
3,36,76,100
3,44,76,104
3,44,76,292
3,36,76,100
3,44,76,100
3,44,76,292
3,36,76,104
3,44,76,100
3,44,76,292
3,36,76,104
3,44,76,100
3,44,76,296
3,36,76,100
3,44,76,104
3,44,76,292
3,36,76,100
3,44,76,100
3,44,76,296
3,36,76,100
3,44,76,100
3,44,76,292
3,36,76,104
3,44,76,100
3,44,76,296
3,36,76,100
3,44,76,100
3,44,76,296
3,36,76,100
3,44,76,100
3,44,76,292
3,37,76,104
3,42,76,0
3,42,76,292
3,42,76,292
3,42,76,292
3,37,76,296
3,42,76,0
3,42,76,292
3,42,76,296
3,42,76,292
3,37,76,292
3,42,76,0
3,42,76,292
3,42,76,292
3,42,76,292
3,37,76,300
3,42,76,0
3,42,76,296
3,42,76,296
3,42,76,296
3,37,76,292
3,42,76,0
3,42,76,292
3,42,76,292
3,42,76,292
3,37,76,292
3,42,76,4
3,42,76,292
3,42,76,296
3,42,76,296
3,37,76,296
3,42,76,0
3,42,76,292
3,42,76,292
3,42,76,292
3,37,76,296
3,42,76,0
3,42,76,296
3,42,76,296
3,42,76,292
3,36,76,296
3,44,76,108
3,44,76,292
3,36,76,100
3,44,76,100
3,44,76,296
3,36,76,100
3,44,76,104
3,44,76,292
3,36,76,100
3,44,76,100
3,44,76,292
3,36,76,100
3,44,76,104
3,44,76,296
3,36,76,100
3,44,76,100
3,44,76,292
3,36,76,104
3,44,76,100
3,44,76,292
3,36,76,100
3,44,76,100
3,44,76,292
3,36,76,104
3,44,76,100
3,44,76,292
3,36,76,100
3,44,76,100
3,44,76,296
3,36,76,100
3,44,76,100
3,44,76,292
3,36,76,100
3,44,76,100
3,44,76,292
3,36,76,104
3,44,76,100
3,44,76,292
3,36,76,100
3,44,76,100
3,44,76,296
3,36,76,100
3,44,76,100
3,44,76,292
3,36,76,100
3,44,76,100
3,44,76,292
3,37,76,104
3,42,76,4
3,42,76,292
3,42,76,296
3,42,76,292
3,37,76,300
3,42,76,0
3,42,76,292
3,42,76,296
3,42,76,292
3,37,76,296
3,42,76,0
3,42,76,292
3,42,76,296
3,42,76,292
3,37,76,300
3,42,76,4
3,42,76,300
3,42,76,292
3,42,76,292
3,37,76,292
3,42,76,4
3,42,76,292
3,42,76,292
3,42,76,300
3,37,76,296
3,42,76,0
3,42,76,292
3,42,76,296
3,42,76,296
3,37,76,300
3,42,76,0
3,42,76,292
3,42,76,296
3,42,76,292
3,37,76,300
3,42,76,0
3,42,76,296
3,42,76,296
3,42,76,288
3,36,76,296
3,44,76,100
3,44,76,296
3,36,76,104
3,44,76,100
3,44,76,296
3,36,76,104
3,44,76,104
3,44,76,292
3,36,76,104
3,44,76,100
3,44,76,292
3,36,76,104
3,44,76,104
3,44,76,292
3,36,76,100
3,44,76,108
3,44,76,292
3,36,76,104
3,44,76,100
3,44,76,296
3,36,76,104
3,44,76,100
3,44,76,292
3,36,76,104
3,44,76,104
3,44,76,292
3,36,76,104
3,44,76,100
3,44,76,296
3,36,76,104
3,44,76,104
3,44,76,292
3,36,76,104
3,44,76,108
3,44,76,296
3,36,76,104
3,44,76,104
3,44,76,296
3,36,76,104
3,44,76,100
3,44,76,296
3,36,76,104
3,44,76,100
3,44,76,292
3,36,76,104
3,44,76,104
3,44,76,292
3,37,76,108
3,42,76,4
3,42,76,292
3,42,76,296
3,42,76,292
3,37,76,300
3,42,76,0
3,42,76,292
3,42,76,296
3,42,76,292
3,37,76,296
3,42,76,0
3,42,76,292
3,42,76,300
3,42,76,292
3,37,76,300
3,42,76,4
3,42,76,300
3,42,76,296
3,42,76,292
3,37,76,292
3,42,76,4
3,42,76,292
3,42,76,296
3,42,76,296
3,37,76,296
3,42,76,4
3,42,76,292
3,42,76,296
3,42,76,292
3,37,76,300
3,42,76,0
3,42,76,292
3,42,76,292
3,42,76,296
3,37,76,300
3,42,76,4
3,42,76,300
3,42,76,296
3,42,76,288
3,36,76,300
3,44,76,100
3,44,76,296
3,36,76,104
3,44,76,100
3,44,76,296
3,36,76,104
3,44,76,100
3,44,76,292
3,36,76,104
3,44,76,100
3,44,76,292
3,36,76,104
3,44,76,104
3,44,76,292
3,36,76,100
3,44,76,108
3,44,76,292
3,36,76,104
3,44,76,104
3,44,76,292
3,36,76,104
3,44,76,100
3,44,76,292
3,36,76,108
3,44,76,104
3,44,76,292
3,36,76,104
3,44,76,100
3,44,76,292
3,36,76,104
3,44,76,100
3,44,76,292
3,36,76,104
3,44,76,108
3,44,76,296
3,36,76,104
3,44,76,108
3,44,76,296
3,36,76,104
3,44,76,100
3,44,76,292
3,36,76,104
3,44,76,100
3,44,76,292
3,36,76,104
3,44,76,104
3,44,76,292
3,37,76,112
3,42,76,0
3,42,76,292
3,42,76,296
3,42,76,292
3,37,76,300
3,42,76,0
3,42,76,292
3,42,76,296
3,42,76,292
3,37,76,296
3,42,76,0
3,42,76,292
3,42,76,300
3,42,76,292
3,37,76,296
3,42,76,4
3,42,76,300
3,42,76,292
3,42,76,288
3,37,76,292
3,42,76,4
3,42,76,292
3,42,76,300
3,42,76,300
3,37,76,296
3,42,76,0
3,42,76,292
3,42,76,296
3,42,76,296
3,37,76,296
3,42,76,0
3,42,76,292
3,42,76,292
3,42,76,296
3,37,76,304
3,42,76,0
3,42,76,296
4,64,119,384
4,65,119,4
4,48,119,4
4,60,119,0
4,64,119,4
4,67,119,0
4,64,119,0
4,49,119,100
4,58,119,0
4,69,119,4
4,64,119,0
4,50,119,100
4,67,119,0
4,65,119,4
4,67,119,4
4,65,119,4
4,43,119,96
4,55,119,0
4,60,119,4
4,64,119,0
4,43,119,188
4,55,119,0
4,59,119,4
4,62,119,0
4,36,119,192
4,55,119,4
4,58,119,0
4,60,119,0
4,62,119,584
4,65,119,0
4,70,119,0
4,60,119,192
4,64,119,0
4,67,119,0
4,60,119,188
4,65,119,4
4,69,119,0
4,60,119,188
4,65,119,4
4,69,119,0
4,62,119,188
4,67,119,0
4,71,119,4
4,62,119,196
4,67,119,0
4,71,119,0
4,64,119,192
4,67,119,0
4,72,119,0
4,64,119,192
4,67,119,0
4,72,119,0
4,62,119,192
4,65,119,0
4,70,119,0
4,60,119,188
4,64,119,4
4,67,119,0
4,60,119,188
4,65,119,4
4,69,119,0
4,60,119,192
4,65,119,0
4,69,119,0
4,62,119,192
4,67,119,0
4,71,119,4
4,62,119,196
4,67,119,0
4,71,119,0
4,64,119,192
4,67,119,0
4,72,119,4
4,64,119,196
4,67,119,0
4,72,119,0
4,62,119,192
4,65,119,0
4,70,119,0
4,60,119,196
4,64,119,0
4,67,119,0
4,60,119,192
4,65,119,4
4,69,119,0
4,60,119,192
4,65,119,0
4,69,119,0
4,62,119,192
4,67,119,0
4,71,119,4
4,62,119,196
4,67,119,0
4,71,119,0
4,64,119,192
4,67,119,0
4,72,119,0
4,64,119,196
4,67,119,0
4,72,119,0
4,62,119,188
4,65,119,4
4,70,119,0
4,60,119,192
4,64,119,4
4,67,119,0
4,60,119,192
4,65,119,0
4,69,119,4
4,59,119,196
4,62,119,0
4,67,119,0
4,57,119,0
4,60,119,0
4,65,119,0
4,55,119,4
4,59,119,4
4,64,119,0
4,53,119,4
4,57,119,0
4,62,119,0
4,52,119,104
4,55,119,0
4,60,119,0
4,52,119,0
4,55,119,4
4,52,119,192
4,55,119,4
4,52,119,0
4,55,119,4
4,60,119,0
4,64,119,0
4,62,119,0
4,65,119,0
4,48,119,4
4,55,119,8
4,60,119,0
4,64,119,0
4,43,119,0
4,48,119,4
4,55,119,4
4,60,119,0
4,64,119,0
4,50,119,0
4,57,119,8
4,62,119,0
4,65,119,0
4,45,119,0
4,50,119,8
4,57,119,0
4,62,119,0
4,65,119,0
4,55,119,0
4,59,119,4
4,62,119,0
4,67,119,4
4,50,119,0
4,59,119,4
4,62,119,0
4,67,119,4
4,48,119,0
4,60,119,4
4,64,119,0
4,67,119,4
4,46,119,4
4,58,119,8
4,62,119,0
4,65,119,0
4,45,119,0
4,57,119,8
4,61,119,0
4,64,119,0
4,67,119,4
4,45,119,0
4,57,119,4
4,61,119,4
4,64,119,0
4,67,119,0
4,50,119,0
4,57,119,8
4,62,119,0
4,65,119,0
4,48,119,0
4,57,119,8
4,62,119,0
4,65,119,0
4,50,119,0
4,57,119,4
4,62,119,0
4,65,119,4
4,43,119,0
4,55,119,4
4,59,119,0
4,62,119,4
4,65,119,0
4,48,119,4
4,55,119,4
4,60,119,0
4,64,119,4
4,43,119,0
4,55,119,0
4,60,119,4
4,64,119,0
4,48,119,0
4,55,119,8
4,60,119,0
4,64,119,0
4,45,119,0
4,57,119,4
4,60,119,4
4,64,119,0
4,50,119,0
4,57,119,4
4,62,119,4
4,65,119,0
4,50,119,0
4,57,119,4
4,62,119,4
4,65,119,0
4,43,119,4
4,59,119,4
4,62,119,0
4,65,119,4
4,67,119,0
4,50,119,0
4,59,119,4
4,65,119,0
4,67,119,4
4,48,119,4
4,60,119,4
4,64,119,4
4,67,119,0
4,55,119,0
4,60,119,8
4,64,119,0
4,67,119,0
4,48,119,0
4,60,119,4
4,64,119,4
4,67,119,0
4,55,119,0
4,60,119,4
4,64,119,0
4,67,119,0
4,53,119,0
4,60,119,4
4,65,119,4
4,69,119,0
4,50,119,4
4,62,119,8
4,65,119,0
4,69,119,0
4,48,119,4
4,60,119,4
4,64,119,0
4,67,119,4
4,43,119,0
4,59,119,4
4,62,119,4
4,65,119,0
4,67,119,0
4,48,119,0
4,60,119,4
4,64,119,4
4,67,119,0
4,60,119,384
4,64,119,0
4,69,119,44
4,59,119,284
4,64,119,48
4,67,119,52
4,71,119,44
4,57,119,284
4,60,119,48
4,64,119,52
4,69,119,44
4,59,119,280
4,64,119,48
4,67,119,52
4,71,119,44
4,57,119,280
4,60,119,48
4,64,119,52
4,69,119,44
4,64,119,284
4,67,119,48
4,40,119,52
4,71,119,0
4,50,119,380
4,60,119,4
4,62,119,0
4,66,119,0
4,69,119,4
4,50,119,0
4,60,119,0
4,62,119,0
4,66,119,4
4,69,119,0
4,43,119,0
4,59,119,0
4,62,119,0
4,67,119,4
4,48,119,200
4,55,119,8
4,60,119,0
4,64,119,0
4,43,119,4
4,48,119,8
4,55,119,0
4,60,119,0
4,64,119,0
4,50,119,0
4,57,119,4
4,62,119,4
4,65,119,0
4,45,119,0
4,57,119,4
4,62,119,4
4,65,119,0
4,43,119,0
4,55,119,4
4,59,119,0
4,62,119,4
4,43,119,0
4,55,119,4
4,59,119,0
4,62,119,4
4,48,119,0
4,55,119,4
4,60,119,0
4,64,119,4
4,46,119,0
4,58,119,8
4,62,119,0
4,65,119,0
4,45,119,4
4,57,119,8
4,61,119,0
4,64,119,0
4,67,119,4
4,45,119,4
4,57,119,0
4,61,119,4
4,64,119,0
4,67,119,0
4,50,119,4
4,57,119,8
4,62,119,0
4,65,119,0
4,50,119,0
4,57,119,4
4,62,119,4
4,65,119,0
4,48,119,0
4,55,119,0
4,60,119,4
4,64,119,0
4,43,119,196
4,55,119,0
4,59,119,0
4,62,119,4
4,36,119,196
4,55,119,0
4,60,119,0
4,64,119,0
4,48,119,392
4,55,119,8
4,60,119,0
4,64,119,0
4,43,119,0
4,48,119,8
4,55,119,0
4,60,119,0
4,64,119,0
4,50,119,0
4,57,119,8
4,62,119,0
4,65,119,0
4,45,119,0
4,50,119,4
4,57,119,4
4,62,119,0
4,65,119,0
4,55,119,4
4,59,119,4
4,62,119,0
4,67,119,4
4,50,119,0
4,59,119,4
4,62,119,0
4,67,119,4
4,48,119,4
4,60,119,4
4,64,119,0
4,67,119,4
4,46,119,0
4,58,119,4
4,62,119,4
4,65,119,0
4,45,119,0
4,57,119,8
4,61,119,0
4,64,119,0
4,67,119,0
4,45,119,4
4,57,119,8
4,61,119,0
4,64,119,0
4,67,119,0
4,50,119,0
4,57,119,4
4,62,119,4
4,65,119,0
4,48,119,0
4,57,119,4
4,62,119,4
4,65,119,0
4,50,119,0
4,57,119,4
4,62,119,0
4,65,119,4
4,43,119,0
4,55,119,4
4,59,119,0
4,62,119,4
4,65,119,0
4,48,119,0
4,55,119,4
4,60,119,0
4,64,119,4
4,43,119,0
4,55,119,4
4,60,119,4
4,64,119,0
4,48,119,0
4,55,119,4
4,60,119,4
4,64,119,0
4,45,119,0
4,57,119,4
4,60,119,0
4,64,119,0
4,50,119,4
4,57,119,4
4,62,119,4
4,65,119,0
4,50,119,4
4,57,119,8
4,62,119,0
4,65,119,0
4,43,119,4
4,59,119,4
4,62,119,0
4,65,119,4
4,67,119,0
4,50,119,0
4,59,119,4
4,65,119,0
4,67,119,4
4,48,119,0
4,60,119,4
4,64,119,4
4,67,119,0
4,55,119,0
4,60,119,8
4,64,119,0
4,67,119,0
4,48,119,0
4,60,119,4
4,64,119,4
4,67,119,0
4,55,119,4
4,60,119,4
4,64,119,0
4,67,119,0
4,53,119,4
4,60,119,8
4,65,119,0
4,69,119,0
4,50,119,4
4,62,119,8
4,65,119,0
4,69,119,0
4,48,119,0
4,60,119,4
4,64,119,0
4,67,119,4
4,43,119,0
4,59,119,4
4,62,119,4
4,65,119,0
4,67,119,0
4,48,119,0
4,60,119,4
4,64,119,4
4,67,119,0
4,60,119,384
4,64,119,0
4,69,119,44
4,59,119,284
4,64,119,48
4,67,119,52
4,71,119,44
4,57,119,284
4,60,119,48
4,64,119,52
4,69,119,44
4,59,119,280
4,64,119,48
4,67,119,52
4,71,119,44
4,57,119,280
4,60,119,48
4,64,119,52
4,69,119,44
4,64,119,284
4,67,119,48
4,40,119,52
4,71,119,0
4,50,119,384
4,60,119,0
4,62,119,0
4,66,119,0
4,69,119,4
4,50,119,0
4,60,119,0
4,62,119,4
4,66,119,0
4,69,119,0
4,43,119,0
4,59,119,0
4,62,119,4
4,67,119,0
4,48,119,196
4,55,119,8
4,60,119,0
4,64,119,0
4,43,119,0
4,48,119,4
4,55,119,4
4,60,119,0
4,64,119,0
4,50,119,0
4,57,119,4
4,62,119,4
4,65,119,0
4,45,119,0
4,57,119,8
4,62,119,0
4,65,119,0
4,43,119,0
4,55,119,4
4,59,119,4
4,62,119,0
4,43,119,0
4,55,119,4
4,59,119,0
4,62,119,4
4,48,119,0
4,55,119,4
4,60,119,0
4,64,119,4
4,46,119,0
4,58,119,8
4,62,119,0
4,65,119,0
4,45,119,0
4,57,119,8
4,61,119,0
4,64,119,0
4,67,119,4
4,45,119,0
4,57,119,4
4,61,119,4
4,64,119,0
4,67,119,0
4,50,119,0
4,57,119,4
4,62,119,4
4,65,119,0
4,50,119,4
4,57,119,8
4,62,119,0
4,65,119,0
4,48,119,4
4,55,119,0
