track,note,velocity,time
1,73,95,11880
1,78,95,0
1,80,91,0
1,82,97,0
1,73,86,144
1,80,97,0
1,77,96,0
1,80,93,12
1,73,86,0
1,82,86,8
1,78,91,0
1,73,86,280
1,80,86,0
1,77,92,0
1,80,81,0
1,75,79,0
1,82,81,0
1,78,82,0
1,80,88,292
1,77,90,0
1,75,83,196
1,73,83,0
1,78,78,0
1,71,84,4
1,78,91,136
1,73,93,0
1,83,94,0
1,78,95,40
1,73,77,0
1,82,103,0
1,80,89,24
1,73,97,0
1,78,97,0
1,78,78,28
1,73,81,0
1,73,91,32
1,78,89,0
1,80,86,0
1,82,91,0
1,82,101,44
1,73,99,0
1,78,103,0
1,80,86,204
1,78,91,16
1,73,85,4
1,73,99,72
1,80,103,4
1,82,103,0
1,78,103,0
1,80,111,424
1,82,111,0
1,73,117,0
1,78,127,4
1,80,95,40
1,73,91,0
1,77,108,12
1,82,103,2824
1,78,97,208
1,75,97,148
1,71,99,0
1,75,98,188
1,82,101,136
1,80,103,152
1,75,101,4584
1,78,111,4
1,80,74,200
1,77,79,12
1,78,97,0
1,82,89,20
1,80,103,160
1,83,112,0
1,82,53,0
1,75,99,4588
1,78,105,0
1,80,82,40
1,77,95,0
1,78,93,32
1,82,103,8
1,80,95,172
1,83,108,0
1,78,97,72
1,82,97,4
1,80,101,200
1,77,101,4
1,71,89,820
1,83,94,0
1,70,74,184
1,82,85,16
1,71,84,168
1,83,87,8
1,73,79,116
1,85,88,20
1,78,91,800
1,73,95,0
1,82,95,0
1,73,95,160
1,80,95,0
1,77,112,0
1,73,81,72
1,82,103,0
1,78,97,8
1,73,82,184
1,80,86,8
1,77,101,0
1,82,93,96
1,75,95,4
1,78,97,0
1,80,95,176
1,77,98,4
1,75,88,76
1,78,85,4
1,71,83,4
1,78,108,176
1,80,86,196
1,82,89,140
1,80,105,4
1,78,89,564
1,73,86,260
1,78,89,4
1,82,88,0
1,73,88,96
1,80,93,0
1,77,110,0
1,73,71,56
1,82,85,0
1,78,89,12
1,77,104,236
1,80,89,0
1,82,81,76
1,78,83,0
1,75,78,0
1,80,85,288
1,77,91,4
1,78,91,40
1,75,75,8
1,71,68,4
1,78,103,72
1,80,91,200
1,82,88,168
1,80,103,76
1,78,91,4
1,78,91,224
1,73,86,0
1,82,85,4
1,82,111,300
1,80,93,200
1,78,93,168
1,78,91,56
1,80,111,440
1,82,111,0
1,73,117,0
1,78,127,4
1,80,95,40
1,73,91,0
1,77,108,12
1,82,103,2824
1,78,97,208
1,75,97,148
1,71,99,0
1,75,98,188
1,82,101,136
1,80,103,152
1,75,101,4584
1,78,111,4
1,80,74,200
1,77,79,12
1,78,97,0
1,82,89,20
1,80,103,160
1,83,112,0
1,82,53,0
1,75,99,4588
1,78,105,0
1,80,82,40
1,77,95,0
1,78,93,32
1,82,103,8
1,80,95,172
1,83,108,0
1,78,97,72
1,82,97,4
1,80,101,200
1,77,101,4
1,71,89,820
1,83,94,0
1,70,74,184
1,82,85,16
1,71,84,168
1,83,87,8
1,73,79,116
1,85,88,20
1,73,95,800
1,78,91,4
1,82,95,4
1,73,95,260
1,80,95,0
1,77,112,0
1,73,81,72
1,82,103,0
1,78,97,8
1,73,82,184
1,80,86,8
1,77,101,0
1,82,93,96
1,75,95,4
1,78,97,0
1,80,95,176
1,77,98,4
1,75,88,76
1,78,85,4
1,71,83,4
1,78,108,176
1,80,86,196
1,82,89,140
1,80,105,4
1,78,89,564
1,73,86,260
1,78,89,4
1,82,88,0
1,73,88,96
1,80,93,0
1,77,110,0
1,73,71,56
1,82,85,0
1,78,89,12
1,77,104,236
1,80,89,0
1,82,81,76
1,78,83,0
1,75,78,0
1,80,85,288
1,77,91,4
1,78,91,40
1,75,75,8
1,71,68,4
1,66,99,60
1,78,103,12
1,68,85,196
1,80,91,4
1,70,91,160
1,82,88,8
1,80,103,72
1,68,103,0
1,66,86,532
1,78,91,4
1,73,86,11704
1,77,101,0
1,78,77,20
1,75,88,0
1,77,74,16
1,80,76,0
1,80,82,44
1,83,88,0
1,82,95,2408
1,73,93,4
1,78,97,0
1,73,83,48
1,82,89,0
1,78,93,0
1,75,86,1908
1,78,95,0
1,80,83,216
1,77,87,0
1,78,88,32
1,82,101,0
1,83,96,168
1,80,88,4
1,82,101,52
1,78,103,0
1,80,101,212
1,77,95,4
1,83,88,668
1,82,81,196
1,83,89,160
1,85,93,156
1,75,95,804
1,80,91,0
1,84,95,0
1,75,95,144
1,82,95,0
1,79,112,0
1,75,81,72
1,84,103,0
1,80,97,8
1,75,82,184
1,82,86,8
1,79,101,0
1,84,93,96
1,77,95,4
1,80,97,0
1,82,95,176
1,79,98,4
1,77,88,76
1,80,85,4
1,73,83,4
1,80,108,176
1,82,86,196
1,84,89,140
1,82,105,4
1,80,89,564
1,75,86,260
1,80,89,4
1,84,88,0
1,75,88,96
1,82,93,0
1,79,110,0
1,75,71,56
1,84,85,0
1,80,89,12
1,79,104,236
1,82,89,0
1,84,81,76
1,80,83,0
1,77,78,0
1,82,85,288
1,79,91,4
1,80,91,40
1,77,75,8
1,73,68,4
1,68,99,60
1,80,103,12
1,70,85,196
1,82,91,4
1,72,91,160
1,84,88,8
1,82,103,72
1,70,103,0
1,68,86,532
1,80,91,4
1,80,100,12472
1,75,100,0
1,84,103,0
1,79,98,168
1,75,84,0
1,82,86,4
1,84,101,4
1,80,103,0
1,75,102,0
1,79,100,220
1,75,89,0
1,82,90,0
1,80,91,16
1,84,98,0
1,75,92,4
1,79,100,172
1,82,95,0
1,80,91,24
1,77,90,4
1,73,85,0
1,80,97,236
1,82,95,196
1,84,98,132
1,82,104,0
1,80,92,24
1,80,90,236
1,84,92,0
1,75,89,4
1,82,91,108
1,75,89,0
1,79,95,0
1,75,86,52
1,84,94,4
1,80,92,0
1,75,90,144
1,82,91,0
1,79,97,0
1,84,96,0
1,75,89,0
1,80,92,4
1,79,96,204
1,82,88,0
1,77,84,0
1,80,90,0
1,73,82,0
1,80,100,144
1,82,89,184
1,84,98,144
1,82,106,176
1,80,94,20
1,80,89,148
1,75,90,0
1,84,92,0
1,75,84,96
1,82,89,0
1,79,95,0
1,80,96,4
1,75,92,0
1,84,94,0
1,82,89,52
1,75,86,0
1,79,90,4
1,80,92,20
1,84,95,0
1,75,94,0
1,82,89,80
1,79,94,0
1,77,86,4
1,80,88,0
1,73,85,0
1,80,95,120
1,82,89,28
1,84,98,68
1,82,104,16
1,80,89,24
1,80,97,0
1,75,99,4
1,84,102,0
1,75,101,144
1,84,108,4
1,82,82,180
1,80,83,40
1,80,93,76
1,75,85,4
2,42,110,4564
2,30,100,0
2,42,101,60
2,30,91,0
2,39,104,0
2,27,94,0
2,42,104,0
2,30,94,0
2,39,102,672
2,27,92,0
2,42,115,148
2,30,105,0
2,42,104,48
2,30,94,0
2,42,110,884
2,30,100,0
2,42,104,52
2,30,94,0
2,39,89,4
2,27,79,0
2,42,108,0
2,30,98,0
2,39,108,648
2,27,98,0
2,42,111,136
2,30,101,0
2,42,105,36
2,30,95,0
2,49,120,12
2,37,110,0
2,42,108,8
2,30,98,0
2,42,100,64
2,30,90,0
2,39,99,0
2,27,89,0
2,42,102,0
2,30,92,0
2,39,105,512
2,27,95,0
2,42,96,0
2,30,86,0
2,42,107,124
2,30,97,0
2,42,102,52
2,30,92,0
2,42,94,36
2,30,84,0
2,42,107,40
2,30,97,0
2,39,105,476
2,27,95,0
2,42,105,204
2,30,95,0
2,42,99,48
2,30,89,0
2,39,96,4
2,27,86,0
2,42,102,12
2,30,92,0
2,39,96,468
2,27,86,0
2,42,94,0
2,30,84,0
2,42,104,116
2,30,94,0
2,42,96,48
2,30,86,0
2,42,99,44
2,30,89,0
2,42,107,276
2,30,97,0
2,41,101,0
2,29,91,0
2,39,93,8
2,27,83,0
2,39,105,120
2,27,95,0
2,39,100,48
2,27,90,0
2,37,95,0
2,25,85,0
2,39,104,0
2,27,94,0
2,37,102,436
2,25,92,0
2,39,107,204
2,27,97,0
2,39,95,64
2,27,85,0
2,39,101,48
2,27,91,0
2,39,105,204
2,27,95,0
2,37,99,20
2,25,89,0
2,34,101,0
2,22,91,0
2,47,99,72
2,35,89,0
2,47,100,48
2,35,90,0
2,44,81,0
2,32,71,0
2,47,93,0
2,35,83,0
2,47,93,624
2,35,83,0
2,47,97,48
2,35,87,0
2,44,105,40
2,32,95,0
2,46,102,20
2,34,92,0
2,44,87,0
2,32,77,0
2,47,92,0
2,35,82,0
2,44,89,0
2,32,79,0
2,49,102,0
2,37,92,0
2,42,105,112
2,30,95,0
2,42,98,44
2,30,88,0
2,39,88,4
2,27,78,0
2,42,101,0
2,30,91,0
2,39,101,424
2,27,91,0
2,42,102,200
2,30,92,0
2,39,96,8
2,27,86,0
2,37,97,0
2,25,87,0
2,42,98,0
2,30,88,0
2,37,104,784
2,25,94,0
2,37,96,56
2,25,86,0
2,34,99,4
2,22,89,0
2,37,100,0
2,25,90,0
2,34,92,692
2,22,82,0
2,37,99,100
2,25,89,0
2,37,93,40
2,25,83,0
2,37,94,36
2,25,84,0
2,37,97,24
2,25,87,0
2,37,102,456
2,25,92,0
2,34,101,124
2,22,91,0
2,37,96,0
2,25,86,0
2,39,104,12
2,27,94,0
2,39,96,52
2,27,86,0
2,39,96,36
2,27,86,0
2,39,98,56
2,27,88,0
2,37,89,652
2,25,79,0
2,39,102,124
2,27,92,0
2,39,95,36
2,27,85,0
2,39,84,24
2,27,74,0
2,32,107,268
2,20,97,0
2,34,107,0
2,22,97,0
2,37,102,112
2,25,92,0
2,37,96,56
2,25,86,0
2,34,91,0
2,22,81,0
2,37,101,0
2,25,91,0
2,34,95,652
2,22,85,0
2,37,102,108
2,25,92,0
2,37,94,48
2,25,84,0
2,37,99,44
2,25,89,0
2,37,99,24
2,25,89,0
2,37,102,452
2,25,92,0
2,34,100,116
2,22,90,0
2,37,99,16
2,25,89,0
2,39,108,44
2,27,98,0
2,39,100,44
2,27,90,0
2,39,96,44
2,27,86,0
2,39,91,28
2,27,81,0
2,37,87,660
2,25,77,0
2,39,105,128
2,27,95,0
2,39,110,76
2,27,100,0
2,37,95,0
2,25,85,0
2,39,111,80
2,27,101,0
2,34,100,16
2,22,90,0
2,32,101,56
2,20,91,0
2,32,95,468
2,20,85,0
2,32,102,48
2,20,92,0
2,34,95,0
2,22,85,0
2,35,98,0
2,23,88,0
2,37,94,0
2,25,84,0
2,34,94,580
2,22,84,0
2,37,102,108
2,25,92,0
2,34,85,20
2,22,75,0
2,37,107,20
2,25,97,0
2,37,96,80
2,25,86,0
2,35,94,0
2,23,84,0
2,34,92,0
2,22,82,0
2,34,89,488
2,22,79,0
2,34,101,56
2,22,91,0
2,32,93,0
2,20,83,0
2,34,95,0
2,22,85,0
2,35,94,0
2,23,84,0
2,35,94,560
2,23,84,0
2,35,96,52
2,23,86,0
2,34,97,0
2,22,87,0
2,32,102,56
2,20,92,0
2,34,104,12
2,22,94,0
2,32,79,0
2,20,69,0
2,39,101,356
2,27,91,0
2,35,104,340
2,23,94,0
2,34,97,0
2,22,87,0
2,35,98,0
2,23,88,0
2,37,98,0
2,25,88,0
2,49,94,4
2,37,84,0
2,42,105,8
2,30,95,0
2,42,100,44
2,30,90,0
2,39,101,8
2,27,91,0
2,42,97,16
2,30,87,0
2,39,102,440
2,27,92,0
2,42,104,244
2,30,94,0
2,42,92,24
2,30,82,0
2,42,97,44
2,30,87,0
2,42,100,24
2,30,90,0
2,39,100,456
2,27,90,0
2,42,102,236
2,30,92,0
2,42,94,40
2,30,84,0
2,39,93,4
2,27,83,0
2,42,107,8
2,30,97,0
2,39,102,476
2,27,92,0
2,42,102,208
2,30,92,0
2,42,92,20
2,30,82,0
2,42,100,48
2,30,90,0
2,42,105,220
2,30,95,0
2,41,101,16
2,29,91,0
2,39,101,148
2,27,91,0
2,39,99,64
2,27,89,0
2,37,94,4
2,25,84,0
2,39,99,4
2,27,89,0
2,37,97,448
2,25,87,0
2,39,105,240
2,27,95,0
2,39,99,52
2,27,89,0
2,39,99,40
2,27,89,0
2,39,100,48
2,27,90,0
2,39,107,76
2,27,97,0
2,39,84,36
2,27,74,0
2,46,99,48
2,34,89,0
2,47,108,8
2,35,98,0
2,47,97,56
2,35,87,0
2,47,83,32
2,35,73,0
2,47,102,128
2,35,92,0
2,47,103,420
2,35,93,0
2,47,107,172
2,35,97,0
2,47,94,40
2,35,84,0
2,47,87,36
2,35,77,0
2,47,100,72
2,35,90,0
2,47,112,96
2,35,102,0
2,49,111,0
2,37,101,0
2,42,104,92
2,30,94,0
2,42,101,44
2,30,91,0
2,39,94,0
2,27,84,0
2,42,102,0
2,30,92,0
2,39,102,436
2,27,92,0
2,42,107,264
2,30,97,0
2,42,96,52
2,30,86,0
2,42,93,36
2,30,83,0
2,42,105,32
2,30,95,0
2,39,100,472
2,27,90,0
2,42,101,132
2,30,91,0
2,42,99,44
2,30,89,0
2,39,95,0
2,27,85,0
2,42,101,12
2,30,91,0
2,39,101,456
2,27,91,0
2,42,102,172
2,30,92,0
2,42,89,48
2,30,79,0
2,42,98,52
2,30,88,0
2,42,95,28
2,30,85,0
2,42,111,96
2,30,101,0
2,41,102,20
2,29,92,0
2,39,101,152
2,27,91,0
2,39,95,64
2,27,85,0
2,37,89,0
2,25,79,0
2,39,101,0
2,27,91,0
2,37,100,440
2,25,90,0
2,39,105,200
2,27,95,0
2,39,92,52
2,27,82,0
2,39,99,48
2,27,89,0
2,39,92,32
2,27,82,0
2,39,111,104
2,27,101,0
2,39,102,56
2,27,92,0
2,46,99,68
2,34,89,0
2,46,99,40
2,34,89,0
2,47,104,48
2,35,94,0
2,47,91,48
2,35,81,0
2,47,95,48
2,35,85,0
2,47,95,24
2,35,85,0
2,47,97,672
2,35,87,0
2,46,99,0
2,34,89,0
2,44,104,0
2,32,94,0
2,46,105,96
2,34,95,0
2,44,89,12
2,32,79,0
2,47,106,28
2,35,96,0
2,49,107,80
2,37,97,0
2,42,102,92
2,30,92,0
2,42,95,60
2,30,85,0
2,39,97,0
2,27,87,0
2,42,102,0
2,30,92,0
2,39,100,428
2,27,90,0
2,42,99,284
2,30,89,0
2,39,98,0
2,27,88,0
2,37,94,0
2,25,84,0
2,42,104,0
2,30,94,0
2,37,99,816
2,25,89,0
2,37,94,64
2,25,84,0
2,34,94,0
2,22,84,0
2,37,100,0
2,25,90,0
2,34,94,640
2,22,84,0
2,37,101,60
2,25,91,0
2,37,99,48
2,25,89,0
2,37,88,28
2,25,78,0
2,37,107,44
2,25,97,0
2,37,95,644
2,25,85,0
2,37,96,48
2,25,86,0
2,39,107,32
2,27,97,0
2,39,98,48
2,27,88,0
2,39,101,40
2,27,91,0
2,39,100,40
2,27,90,0
2,37,91,656
2,25,81,0
2,39,105,100
2,27,95,0
2,39,94,56
2,27,84,0
2,39,96,44
2,27,86,0
2,39,98,76
2,27,88,0
2,37,96,0
2,25,86,0
2,32,95,0
2,20,85,0
2,34,101,16
2,22,91,0
2,37,101,116
2,25,91,0
2,37,97,56
2,25,87,0
2,34,96,0
2,22,86,0
2,37,99,0
2,25,89,0
2,34,94,684
2,22,84,0
2,37,100,84
2,25,90,0
2,37,91,48
2,25,81,0
2,37,104,52
2,25,94,0
2,37,95,40
2,25,85,0
2,37,101,480
2,25,91,0
2,39,100,248
2,27,90,0
2,39,91,60
2,27,81,0
2,39,94,48
2,27,84,0
2,39,101,40
2,27,91,0
2,37,91,664
2,25,81,0
2,39,104,104
2,27,94,0
2,39,94,52
2,27,84,0
2,39,98,40
2,27,88,0
2,37,91,36
2,25,81,0
2,39,108,120
2,27,98,0
2,34,102,0
2,22,92,0
2,32,101,96
2,20,91,0
2,32,101,592
2,20,91,0
2,34,89,0
2,22,79,0
2,35,94,0
2,23,84,0
2,37,93,0
2,25,83,0
2,37,96,804
2,25,86,0
2,35,99,44
2,23,89,0
2,35,92,36
2,23,82,0
2,34,94,0
