track,note,velocity,time
3,71,100,768
3,72,100,0
3,74,100,0
3,71,100,0
3,79,100,0
3,78,100,0
3,76,100,0
3,74,100,0
3,76,100,576
3,74,100,0
3,79,100,0
3,74,100,0
3,72,100,0
3,76,100,0
3,74,100,0
3,71,100,0
3,71,100,0
3,67,100,192
3,69,100,0
3,71,100,0
3,69,100,0
3,67,100,0
3,66,100,0
3,67,100,0
3,69,100,0
3,69,100,384
3,71,100,0
3,72,100,0
3,69,100,0
3,66,100,0
3,67,100,0
3,69,100,0
3,71,100,0
3,67,100,0
3,71,100,192
3,72,100,0
3,74,100,0
3,71,100,0
3,79,100,0
3,78,100,0
3,76,100,0
3,74,100,0
3,76,100,384
3,74,100,0
3,79,100,0
3,74,100,0
3,72,100,0
3,76,100,0
3,74,100,0
3,71,100,0
3,71,100,0
3,67,100,384
3,69,100,0
3,71,100,0
3,69,100,0
3,67,100,0
3,66,100,0
3,67,100,0
3,69,100,0
3,69,100,384
3,71,100,0
3,72,100,0
3,71,100,0
3,69,100,0
3,71,100,0
3,72,100,0
3,74,100,0
3,74,100,0
3,67,100,192
3,67,100,0
3,72,100,0
3,72,100,0
3,72,100,0
3,74,100,0
3,76,100,0
3,74,100,0
3,74,100,0
3,79,100,192
3,76,100,0
3,72,100,0
3,72,100,0
3,72,100,0
3,74,100,0
3,76,100,0
3,74,100,0
3,67,100,192
3,67,100,0
3,72,100,0
3,72,100,0
3,72,100,0
3,74,100,0
3,76,100,0
3,74,100,0
3,74,100,0
3,79,100,192
3,76,100,0
3,72,100,0
3,72,100,0
3,72,100,0
3,74,100,0
3,76,100,0
3,74,100,0
3,71,100,384
3,72,100,0
3,74,100,0
3,71,100,0
3,79,100,0
3,78,100,0
3,76,100,0
3,74,100,0
3,76,100,576
3,74,100,0
3,79,100,0
3,74,100,0
3,72,100,0
3,76,100,0
3,74,100,0
3,71,100,0
3,71,100,0
3,67,100,192
3,69,100,0
3,71,100,0
3,69,100,0
3,67,100,0
3,66,100,0
3,67,100,0
3,69,100,0
3,69,100,384
3,71,100,0
3,72,100,0
3,69,100,0
3,66,100,0
3,67,100,0
3,69,100,0
3,71,100,0
3,67,100,0
3,71,100,192
3,72,100,0
3,74,100,0
3,71,100,0
3,79,100,0
3,78,100,0
3,76,100,0
3,74,100,0
3,76,100,384
3,74,100,0
3,79,100,0
3,74,100,0
3,72,100,0
3,76,100,0
3,74,100,0
3,71,100,0
3,71,100,0
3,67,100,384
3,69,100,0
3,71,100,0
3,69,100,0
3,67,100,0
3,66,100,0
3,67,100,0
3,69,100,0
3,69,100,384
3,71,100,0
3,72,100,0
3,71,100,0
3,69,100,0
3,71,100,0
3,72,100,0
3,74,100,0
3,74,100,0
3,67,100,192
3,67,100,0
3,72,100,0
3,72,100,0
3,72,100,0
3,74,100,0
3,76,100,0
3,74,100,0
3,74,100,0
3,79,100,192
3,76,100,0
3,72,100,0
3,72,100,0
3,72,100,0
3,74,100,0
3,76,100,0
3,74,100,0
3,67,100,192
3,67,100,0
3,72,100,0
3,72,100,0
3,72,100,0
3,74,100,0
3,76,100,0
3,74,100,0
3,74,100,0
3,79,100,192
3,76,100,0
3,72,100,0
3,72,100,0
3,72,100,0
3,74,100,0
3,76,100,0
3,74,100,0
3,71,100,384
3,72,100,0
3,74,100,0
3,71,100,0
3,79,100,0
3,78,100,0
3,76,100,0
3,74,100,0
3,76,100,576
3,74,100,0
3,79,100,0
3,74,100,0
3,72,100,0
3,76,100,0
3,74,100,0
3,71,100,0
3,71,100,0
3,67,100,192
3,69,100,0
3,71,100,0
3,69,100,0
3,67,100,0
3,66,100,0
3,67,100,0
3,69,100,0
3,69,100,384
3,71,100,0
3,72,100,0
3,69,100,0
3,66,100,0
3,67,100,0
3,69,100,0
3,71,100,0
3,67,100,0
3,71,100,192
3,72,100,0
3,74,100,0
3,71,100,0
3,79,100,0
3,78,100,0
3,76,100,0
3,74,100,0
3,76,100,384
3,74,100,0
3,79,100,0
3,74,100,0
3,72,100,0
3,76,100,0
3,74,100,0
3,71,100,0
3,71,100,0
3,67,100,384
3,69,100,0
3,71,100,0
3,69,100,0
3,67,100,0
3,66,100,0
3,67,100,0
3,69,100,0
3,69,100,384
3,71,100,0
3,72,100,0
3,71,100,0
3,69,100,0
3,71,100,0
3,72,100,0
3,74,100,0
3,74,100,0
3,70,100,0
3,70,100,0
3,75,100,0
3,75,100,0
3,75,100,0
3,77,100,0
3,79,100,0
3,77,100,0
3,77,100,0
3,82,100,192
3,79,100,0
3,75,100,0
3,75,100,0
3,75,100,0
3,77,100,0
3,79,100,0
3,77,100,0
3,70,100,192
3,70,100,0
3,75,100,0
3,75,100,0
3,75,100,0
3,77,100,0
3,79,100,0
3,77,100,0
3,77,100,0
3,79,100,384
3,80,100,0
3,82,100,0
3,79,100,0
3,75,100,0
3,77,100,0
3,79,100,0
3,77,100,0
3,74,100,192
3,75,100,0
3,77,100,0
3,74,100,0
3,82,100,0
3,81,100,0
3,79,100,0
3,77,100,0
3,79,100,384
3,77,100,0
3,82,100,0
3,77,100,0
3,75,100,0
3,79,100,0
3,77,100,0
3,74,100,0
3,74,100,0
3,70,100,192
3,72,100,0
3,74,100,0
3,70,100,0
3,70,100,0
3,69,100,0
3,70,100,0
3,72,100,0
3,74,100,384
3,72,100,0
3,70,100,0
3,67,100,0
3,65,100,0
3,67,100,0
3,69,100,0
3,70,100,0
3,65,100,0
3,70,100,0
3,72,100,0
3,74,100,0
3,70,100,0
3,67,100,0
3,69,100,0
3,70,100,0
3,72,100,0
3,74,100,384
3,72,100,0
3,70,100,0
3,67,100,0
3,65,100,0
3,77,100,0
3,75,100,0
3,74,100,0
3,70,100,384
3,72,100,0
3,74,100,0
3,70,100,0
3,67,100,0
3,69,100,0
3,70,100,0
3,72,100,0
3,74,100,192
3,72,100,0
3,70,100,0
3,67,100,0
3,65,100,0
3,67,100,0
3,69,100,0
3,70,100,0
4,43,100,1152
4,50,100,0
4,43,100,0
4,40,100,0
4,45,100,0
4,50,100,0
4,43,100,0
4,50,100,0
4,40,100,0
4,47,100,0
4,45,100,0
4,52,100,0
4,50,100,0
4,45,100,0
4,43,100,0
4,47,100,0
4,43,100,0
4,46,100,0
4,43,100,0
4,40,100,0
4,45,100,0
4,50,100,0
4,43,100,0
4,50,100,0
4,40,100,0
4,47,100,0
4,45,100,0
4,52,100,0
4,50,100,0
4,45,100,0
4,43,100,0
4,50,100,0
4,48,100,0
4,43,100,0
4,43,100,0
4,50,100,0
4,48,100,0
4,43,100,0
4,48,100,0
4,43,100,0
4,48,100,0
4,43,100,0
4,48,100,0
4,43,100,0
4,48,100,0
4,43,100,0
4,50,100,0
4,45,100,0
4,43,100,0
4,50,100,0
4,43,100,0
4,40,100,0
4,45,100,0
4,50,100,0
4,43,100,0
4,50,100,0
4,40,100,0
4,47,100,0
4,45,100,0
4,52,100,0
4,50,100,0
4,45,100,0
4,43,100,0
4,47,100,0
4,43,100,0
4,46,100,0
4,43,100,0
4,40,100,0
4,45,100,0
4,50,100,0
4,43,100,0
4,50,100,0
4,40,100,0
4,47,100,0
4,45,100,0
4,52,100,0
4,50,100,0
4,45,100,0
4,43,100,0
4,50,100,0
4,48,100,0
4,43,100,0
4,43,100,0
4,50,100,0
4,48,100,0
4,43,100,0
4,48,100,0
4,43,100,0
4,48,100,0
4,43,100,0
4,48,100,0
4,43,100,0
4,48,100,0
4,43,100,0
4,50,100,0
4,45,100,0
4,43,100,0
4,50,100,0
4,43,100,0
4,40,100,0
4,45,100,0
4,50,100,0
4,43,100,0
4,50,100,0
4,40,100,0
4,47,100,0
4,45,100,0
4,52,100,0
4,50,100,0
4,45,100,0
4,43,100,0
4,47,100,0
4,43,100,0
4,46,100,0
4,43,100,0
4,40,100,0
4,45,100,0
4,50,100,0
4,43,100,0
4,50,100,0
4,40,100,0
4,47,100,0
4,45,100,0
4,52,100,0
4,50,100,0
4,45,100,0
4,51,100,1152
4,48,100,0
4,46,100,0
4,41,100,0
4,51,100,0
4,48,100,0
4,46,100,0
4,41,100,0
4,46,100,0
4,41,100,0
4,46,100,0
4,41,100,0
4,51,100,0
4,46,100,0
4,41,100,0
4,48,100,0
4,46,100,0
4,41,100,0
4,46,100,0
4,47,100,0
4,48,100,0
4,41,100,0
4,46,100,0
4,41,100,0
4,46,100,0
4,43,100,0
4,48,100,0
4,43,100,0
4,43,100,0
4,41,100,0
4,46,100,0
4,41,100,0
4,46,100,0
4,43,100,0
4,48,100,0
4,43,100,0
4,43,100,0
4,41,100,0
4,46,100,0
4,41,100,0
4,46,100,0
4,43,100,0
4,48,100,0
4,43,100,0
4,43,100,0
4,41,100,0
4,46,100,0
4,41,100,192
4,46,100,192
5,62,100,1536
5,59,100,0
5,55,100,0
5,62,100,384
5,59,100,0
5,55,100,0
5,62,100,384
5,59,100,0
5,55,100,0
5,52,100,384
5,55,100,0
5,59,100,0
5,60,100,384
5,57,100,0
5,52,100,0
5,66,100,384
5,60,100,0
5,57,100,0
5,62,100,384
5,59,100,0
5,55,100,0
5,62,100,384
5,59,100,0
5,55,100,0
5,59,100,384
5,55,100,0
5,52,100,0
5,59,100,384
5,55,100,0
5,52,100,0
5,64,100,384
5,60,100,0
5,57,100,0
5,64,100,384
5,60,100,0
5,57,100,0
5,66,100,384
5,60,100,0
5,57,100,0
5,66,100,384
5,60,100,0
5,57,100,0
5,62,100,384
5,59,100,0
5,55,100,0
5,62,100,384
5,59,100,0
5,55,100,0
5,62,100,384
5,59,100,0
5,55,100,0
5,61,100,384
5,55,100,0
5,52,100,0
5,62,100,384
5,59,100,0
5,55,100,0
5,59,100,384
5,55,100,0
5,52,100,0
5,60,100,384
5,57,100,0
5,52,100,0
5,66,100,384
5,60,100,0
5,57,100,0
5,62,100,384
5,59,100,0
5,55,100,0
5,62,100,384
5,59,100,0
5,55,100,0
5,59,100,384
5,55,100,0
5,52,100,0
5,59,100,384
5,55,100,0
5,52,100,0
5,64,100,384
5,60,100,0
5,57,100,0
5,64,100,384
5,60,100,0
5,57,100,0
5,66,100,384
5,60,100,0
5,57,100,0
5,66,100,384
5,60,100,0
5,57,100,0
5,62,100,384
5,59,100,0
5,55,100,0
5,62,100,384
5,59,100,0
5,55,100,0
5,64,100,384
5,60,100,0
5,55,100,0
5,64,100,384
5,60,100,0
5,55,100,0
5,62,100,384
5,59,100,0
5,55,100,0
5,62,100,384
5,59,100,0
5,55,100,0
5,64,100,384
5,60,100,0
5,55,100,0
5,64,100,384
5,60,100,0
5,55,100,0
5,64,100,384
5,60,100,0
5,55,100,0
5,64,100,384
5,60,100,0
5,55,100,0
5,64,100,384
5,60,100,0
5,55,100,0
5,64,100,384
5,60,100,0
5,55,100,0
5,64,100,384
5,60,100,0
5,55,100,0
5,64,100,384
5,60,100,0
5,55,100,0
5,64,100,384
5,60,100,0
5,55,100,0
5,64,100,384
5,60,100,0
5,55,100,0
5,66,100,384
5,60,100,0
5,57,100,0
5,66,100,384
5,60,100,0
5,57,100,0
5,62,100,384
5,59,100,0
5,55,100,0
5,62,100,384
5,59,100,0
5,55,100,0
5,62,100,384
5,59,100,0
5,55,100,0
5,52,100,384
5,55,100,0
5,59,100,0
5,60,100,384
5,57,100,0
5,52,100,0
5,66,100,384
5,60,100,0
5,57,100,0
5,62,100,384
5,59,100,0
5,55,100,0
5,62,100,384
5,59,100,0
5,55,100,0
5,59,100,384
5,55,100,0
5,52,100,0
5,59,100,384
5,55,100,0
5,52,100,0
5,64,100,384
5,60,100,0
5,57,100,0
5,64,100,384
5,60,100,0
5,57,100,0
5,66,100,384
5,60,100,0
5,57,100,0
5,66,100,384
5,60,100,0
5,57,100,0
5,62,100,384
5,59,100,0
5,55,100,0
5,62,100,384
5,59,100,0
5,55,100,0
5,62,100,384
5,59,100,0
5,55,100,0
5,61,100,384
5,55,100,0
5,52,100,0
5,62,100,384
5,59,100,0
5,55,100,0
5,59,100,384
5,55,100,0
5,52,100,0
5,60,100,384
5,57,100,0
5,52,100,0
5,66,100,384
5,60,100,0
5,57,100,0
5,62,100,384
5,59,100,0
5,55,100,0
5,62,100,384
5,59,100,0
5,55,100,0
5,59,100,384
5,55,100,0
5,52,100,0
5,59,100,384
5,55,100,0
5,52,100,0
5,64,100,384
5,60,100,0
5,57,100,0
5,64,100,384
5,60,100,0
5,57,100,0
5,66,100,384
5,60,100,0
5,57,100,0
5,66,100,384
5,60,100,0
5,57,100,0
5,62,100,384
5,59,100,0
5,55,100,0
5,62,100,384
5,59,100,0
5,55,100,0
5,64,100,384
5,60,100,0
5,55,100,0
5,64,100,384
5,60,100,0
5,55,100,0
5,62,100,384
5,59,100,0
5,55,100,0
5,62,100,384
5,59,100,0
5,55,100,0
5,64,100,384
5,60,100,0
5,55,100,0
5,64,100,384
5,60,100,0
5,55,100,0
5,64,100,384
5,60,100,0
5,55,100,0
5,64,100,384
5,60,100,0
5,55,100,0
5,64,100,384
5,60,100,0
5,55,100,0
5,64,100,384
5,60,100,0
5,55,100,0
5,64,100,384
5,60,100,0
5,55,100,0
5,64,100,384
5,60,100,0
5,55,100,0
5,64,100,384
5,60,100,0
5,55,100,0
5,64,100,384
5,60,100,0
5,55,100,0
5,66,100,384
5,60,100,0
5,57,100,0
5,66,100,384
5,60,100,0
5,57,100,0
5,62,100,384
5,59,100,0
5,55,100,0
5,62,100,384
5,59,100,0
5,55,100,0
5,62,100,384
5,59,100,0
5,55,100,0
5,52,100,384
5,55,100,0
5,59,100,0
5,60,100,384
5,57,100,0
5,52,100,0
5,66,100,384
5,60,100,0
5,57,100,0
5,62,100,384
5,59,100,0
5,55,100,0
5,62,100,384
5,59,100,0
5,55,100,0
5,59,100,384
5,55,100,0
5,52,100,0
5,59,100,384
5,55,100,0
5,52,100,0
5,64,100,384
5,60,100,0
5,57,100,0
5,64,100,384
5,60,100,0
5,57,100,0
5,66,100,384
5,60,100,0
5,57,100,0
5,66,100,384
5,60,100,0
5,57,100,0
5,62,100,384
5,59,100,0
5,55,100,0
5,62,100,384
5,59,100,0
5,55,100,0
5,62,100,384
5,59,100,0
5,55,100,0
5,61,100,384
5,55,100,0
5,52,100,0
5,62,100,384
5,59,100,0
5,55,100,0
5,59,100,384
5,55,100,0
5,52,100,0
5,60,100,384
5,57,100,0
5,52,100,0
5,66,100,384
5,60,100,0
5,57,100,0
5,62,100,384
5,59,100,0
5,55,100,0
5,62,100,384
5,59,100,0
5,55,100,0
5,59,100,384
5,55,100,0
5,52,100,0
5,59,100,384
5,55,100,0
5,52,100,0
5,64,100,384
5,60,100,0
5,57,100,0
5,64,100,384
5,60,100,0
5,57,100,0
5,66,100,384
5,60,100,0
5,57,100,0
5,66,100,384
5,60,100,0
5,57,100,0
5,68,100,0
5,62,100,0
5,58,100,0
5,53,100,0
5,68,100,0
5,62,100,0
5,58,100,0
5,53,100,0
5,68,100,0
5,62,100,0
5,58,100,0
5,53,100,0
5,63,100,384
5,58,100,0
5,55,100,0
5,63,100,384
5,58,100,0
5,55,100,0
5,62,100,384
5,56,100,0
5,53,100,0
5,62,100,384
5,56,100,0
5,53,100,0
5,63,100,384
5,58,100,0
5,55,100,0
5,63,100,384
5,58,100,0
5,55,100,0
5,62,100,384
5,56,100,0
5,53,100,0
5,62,100,384
5,56,100,0
5,53,100,0
5,62,100,384
5,56,100,0
5,53,100,0
5,62,100,384
5,56,100,0
5,53,100,0
5,62,100,384
5,56,100,0
5,53,100,0
5,62,100,384
5,56,100,0
5,53,100,0
5,63,100,384
5,58,100,0
5,55,100,0
5,63,100,384
5,58,100,0
5,55,100,0
5,60,100,384
5,57,100,0
5,53,100,0
5,60,100,384
5,57,100,0
5,53,100,0
5,62,100,384
5,58,100,0
5,53,100,0
5,62,100,384
5,58,100,0
5,53,100,0
5,62,100,384
5,58,100,0
5,53,100,0
5,62,100,384
5,56,100,0
5,53,100,0
5,63,100,384
5,60,100,0
5,55,100,0
