track,note,velocity,time
3,61,110,5760
3,61,110,4
3,66,110,4
3,69,110,96
3,66,110,4
3,68,110,4
3,64,110,4
3,64,110,4
3,66,110,96
3,68,110,4
3,66,110,4
3,69,110,96
3,68,110,4
3,64,110,4
3,59,110,4
3,59,110,4
3,59,110,448
3,59,110,4
3,64,110,4
3,67,110,96
3,64,110,4
3,66,110,4
3,62,110,4
3,62,110,4
3,59,110,96
3,59,110,4
3,64,110,4
3,68,110,64
3,66,110,64
3,62,110,64
3,66,110,4
3,64,110,4
3,61,110,480
3,61,110,4
3,66,110,4
3,69,110,96
3,66,110,4
3,68,110,4
3,64,110,4
3,64,110,4
3,66,110,96
3,68,110,4
3,66,110,4
3,69,110,96
3,68,110,4
3,64,110,4
3,59,110,4
3,59,110,4
3,59,110,448
3,59,110,4
3,64,110,4
3,67,110,96
3,64,110,4
3,66,110,4
3,62,110,4
3,62,110,4
3,59,110,96
3,59,110,4
3,64,110,4
3,67,110,64
3,66,110,64
3,62,110,64
3,66,110,4
3,64,110,4
3,64,0,96
3,61,110,288
3,61,110,4
3,66,110,4
3,69,110,96
3,66,110,4
3,68,110,4
3,64,110,4
3,64,110,4
3,66,110,96
3,68,110,4
3,66,110,4
3,69,110,96
3,68,110,4
3,64,110,4
3,59,110,4
3,59,110,4
3,59,110,448
3,59,110,4
3,64,110,4
3,67,110,96
3,64,110,4
3,66,110,4
3,62,110,4
3,62,110,4
3,59,110,96
3,59,110,4
3,64,110,4
3,68,110,64
3,66,110,64
3,62,110,64
3,66,110,4
3,64,110,4
3,64,0,96
3,61,110,288
3,61,110,4
3,66,110,4
3,69,110,96
3,66,110,4
3,68,110,4
3,64,110,4
3,64,110,4
3,66,110,96
3,68,110,4
3,66,110,4
3,69,110,96
3,68,110,4
3,64,110,4
3,59,110,4
3,59,110,4
3,59,110,448
3,59,110,4
3,64,110,4
3,67,110,96
3,64,110,4
3,66,110,4
3,62,110,4
3,62,110,4
3,59,110,96
3,59,110,4
3,64,110,4
3,68,110,64
3,66,110,64
3,62,110,64
3,66,110,4
3,64,110,4
3,64,0,96
3,61,110,288
3,61,110,4
3,66,110,4
3,69,110,96
3,66,110,4
3,68,110,4
3,64,110,4
3,64,110,4
3,66,110,96
3,68,110,4
3,66,110,4
3,69,110,96
3,68,110,4
3,64,110,4
3,59,110,4
3,59,110,4
3,59,110,448
3,59,110,4
3,64,110,4
3,67,110,96
3,64,110,4
3,66,110,4
3,62,110,4
3,62,110,4
3,59,110,96
3,59,110,4
3,64,110,4
3,68,110,64
3,66,110,64
3,62,110,64
3,66,110,4
3,64,110,4
3,64,0,96
3,61,110,288
3,61,110,4
3,66,110,4
3,69,110,96
3,66,110,4
3,68,110,4
3,64,110,4
3,64,110,4
3,66,110,96
3,68,110,4
3,66,110,4
3,69,110,96
3,68,110,4
3,64,110,4
3,59,110,4
3,59,110,4
3,59,110,448
3,59,110,4
3,64,110,4
3,67,110,96
3,64,110,4
3,66,110,4
3,62,110,4
3,62,110,4
3,59,110,96
3,59,110,4
3,64,110,4
3,68,110,64
3,66,110,64
3,62,110,64
3,66,110,4
3,64,110,4
3,64,0,96
3,61,110,288
3,61,110,4
3,66,110,4
3,69,110,96
3,66,110,4
3,68,110,4
3,64,110,4
3,64,110,4
3,66,110,96
3,68,110,4
3,66,110,4
3,69,110,96
3,68,110,4
3,64,110,4
3,59,110,4
3,59,110,4
3,59,110,448
3,59,110,4
3,64,110,4
3,67,110,96
3,64,110,4
3,66,110,4
3,62,110,4
3,62,110,4
3,59,110,96
3,59,110,4
3,64,110,4
3,68,110,64
3,66,110,64
3,62,110,64
3,66,110,4
3,64,110,4
3,64,0,96
3,61,110,288
3,61,110,4
3,66,110,4
3,69,110,96
3,66,110,4
3,68,110,4
3,64,110,4
3,64,110,4
3,66,110,96
3,68,110,4
3,66,110,4
3,69,110,96
3,68,110,4
3,64,110,4
3,59,110,4
3,59,110,4
3,59,110,448
3,59,110,4
3,64,110,4
3,67,110,96
3,64,110,4
3,66,110,4
3,62,110,4
3,62,110,4
3,59,110,96
3,59,110,4
3,64,110,4
3,68,110,64
3,66,110,64
3,62,110,64
3,66,110,4
3,64,110,4
3,64,0,96
3,61,110,288
3,61,110,4
3,66,110,4
3,69,110,96
3,66,110,4
3,68,110,4
3,64,110,4
3,64,110,4
3,66,110,96
3,68,110,4
3,66,110,4
3,69,110,96
3,68,110,4
3,64,110,4
3,59,110,4
3,59,110,4
3,59,110,448
3,59,110,4
3,64,110,4
3,67,110,96
3,64,110,4
3,66,110,4
3,62,110,4
3,62,110,4
3,59,110,96
3,59,110,4
3,64,110,4
3,68,110,64
3,66,110,64
3,62,110,64
3,66,110,4
3,64,110,4
3,64,0,96
3,61,110,288
3,61,110,4
3,66,110,4
3,69,110,96
3,66,110,4
3,68,110,4
3,64,110,4
3,64,110,4
3,66,110,96
3,68,110,4
3,66,110,4
3,69,110,96
3,68,110,4
3,64,110,4
3,59,110,4
3,59,110,4
3,59,110,448
3,59,110,4
3,64,110,4
3,67,110,96
3,64,110,4
3,66,110,4
3,62,110,4
3,62,110,4
3,59,110,96
3,59,110,4
3,64,110,4
3,68,110,64
3,66,110,64
3,62,110,64
3,66,110,4
3,64,110,4
3,64,0,96
3,61,110,288
3,61,110,4
3,66,110,4
3,69,110,96
3,66,110,4
3,68,110,4
3,64,110,4
3,64,110,4
3,66,110,96
3,68,110,4
3,66,110,4
3,69,110,96
3,68,110,4
3,64,110,4
3,59,110,4
3,59,110,4
3,59,110,448
3,59,110,4
3,64,110,4
3,67,110,96
3,64,110,4
3,66,110,4
3,62,110,4
3,62,110,4
3,59,110,96
3,59,110,4
3,64,110,4
3,68,110,64
3,66,110,64
3,62,110,64
3,66,110,4
3,64,110,4
3,64,0,96
3,61,110,288
3,61,110,4
3,66,110,4
3,69,110,96
3,66,110,4
3,68,110,4
3,64,110,4
3,64,110,4
3,66,110,96
3,68,110,4
3,66,110,4
3,69,110,96
3,68,110,4
3,64,110,4
3,59,110,4
3,59,110,4
3,59,110,448
3,59,110,4
3,64,110,4
3,67,110,96
3,64,110,4
3,66,110,4
3,62,110,4
3,62,110,4
3,59,110,96
3,59,110,4
3,64,110,4
3,68,110,64
3,66,110,64
3,62,110,64
3,66,110,4
3,64,110,4
3,64,0,96
3,61,110,384
3,61,110,4
3,66,110,4
3,69,110,96
3,66,110,4
3,68,110,4
3,64,110,4
3,64,110,4
3,66,110,96
3,68,110,4
3,66,110,4
3,69,110,96
3,68,110,4
3,64,110,4
3,59,110,4
3,59,110,4
3,59,110,448
3,59,110,4
3,64,110,4
3,67,110,96
3,64,110,4
3,66,110,4
3,62,110,4
3,62,110,4
3,59,110,96
3,59,110,4
3,64,110,4
3,68,110,64
3,66,110,64
3,62,110,64
3,66,110,4
3,64,110,4
3,61,110,480
3,61,110,4
3,66,110,4
3,69,110,96
3,66,110,4
3,68,110,4
3,64,110,4
3,64,110,4
3,66,110,96
3,68,110,4
3,66,110,4
3,69,110,96
3,68,110,4
3,64,110,4
3,59,110,4
3,59,110,4
3,59,110,448
3,59,110,4
3,64,110,4
3,67,110,96
3,64,110,4
3,66,110,4
3,62,110,4
3,62,110,4
3,59,110,96
3,59,110,4
3,64,110,4
3,67,110,64
3,66,110,64
3,62,110,64
3,66,110,4
3,64,110,4
3,61,110,480
3,61,110,4
3,66,110,4
3,69,110,96
3,66,110,4
3,68,110,4
3,64,110,4
3,64,110,4
3,66,110,96
3,68,110,4
3,66,110,4
3,69,110,96
3,68,110,4
3,64,110,4
3,59,110,4
3,59,110,4
3,59,110,448
3,59,110,4
3,64,110,4
3,67,110,96
3,64,110,4
3,66,110,4
3,62,110,4
3,62,110,4
3,59,110,96
3,59,110,4
3,64,110,4
3,68,110,64
3,66,110,64
3,62,110,64
3,66,110,4
3,64,110,4
3,61,110,480
3,61,110,4
3,66,110,4
3,69,110,96
3,66,110,4
3,68,110,4
3,64,110,4
3,64,110,4
3,66,110,96
3,68,110,4
3,66,110,4
3,69,110,96
3,68,110,4
3,64,110,4
3,59,110,4
3,59,110,4
3,59,110,448
3,59,110,4
3,64,110,4
3,67,110,96
3,64,110,4
3,66,110,4
3,62,110,4
3,62,110,4
3,59,110,96
3,59,110,4
3,64,110,4
3,67,110,64
3,66,110,64
3,62,110,64
3,66,110,4
3,64,110,4
3,61,110,480
3,61,110,4
3,66,110,4
3,69,110,96
3,66,110,4
3,68,110,4
3,64,110,4
3,64,110,4
3,66,110,96
3,68,110,4
3,66,110,4
3,69,110,96
3,68,110,4
3,64,110,4
3,59,110,4
3,59,110,4
3,59,110,448
3,59,110,4
3,64,110,4
3,67,110,96
3,64,110,4
3,66,110,4
3,62,110,4
3,62,110,4
3,59,110,96
3,59,110,4
3,64,110,4
3,68,110,64
3,66,110,64
3,62,110,64
3,66,110,4
3,64,110,4
4,54,110,0
4,57,110,0
4,61,110,0
4,66,110,0
4,54,110,288
4,57,110,0
4,61,110,0
4,66,110,0
4,54,110,288
4,57,110,0
4,61,110,0
4,66,110,0
4,54,110,288
4,57,110,0
4,61,110,0
4,66,110,0
4,54,110,288
4,57,110,0
4,61,110,0
4,66,110,0
4,54,110,288
4,57,110,0
4,61,110,0
4,66,110,0
4,54,110,288
4,57,110,0
4,61,110,0
4,66,110,0
4,54,110,288
4,57,110,0
4,61,110,0
4,66,110,0
4,54,110,288
4,57,110,0
4,61,110,0
4,66,110,0
4,54,110,288
4,57,110,0
4,61,110,0
4,66,110,0
4,54,110,288
4,57,110,0
4,61,110,0
4,66,110,0
4,54,110,288
4,57,110,0
4,61,110,0
4,66,110,0
4,54,110,288
4,57,110,0
4,61,110,0
4,66,110,0
4,54,110,288
4,57,110,0
4,61,110,0
4,66,110,0
4,54,110,288
4,57,110,0
4,61,110,0
4,66,110,0
4,45,110,288
4,49,110,0
4,45,110,4
4,49,110,0
4,45,110,4
4,49,110,0
4,54,110,0
4,45,110,64
4,49,110,0
4,47,110,64
4,51,110,0
4,57,110,0
4,47,110,64
4,51,110,0
4,54,110,4
4,44,110,4
4,47,110,0
4,56,110,0
4,52,110,4
4,44,110,4
4,47,110,0
4,52,110,0
4,44,110,64
4,47,110,0
4,44,110,64
4,47,110,0
4,54,110,0
4,56,110,4
4,45,110,4
4,49,110,0
4,54,110,0
4,45,110,64
4,49,110,0
4,47,110,64
4,51,110,0
4,57,110,0
4,47,110,64
4,51,110,0
4,56,110,4
4,44,110,4
4,52,110,0
4,47,110,4
4,44,110,4
4,47,110,0
4,44,110,64
4,47,110,0
4,44,110,64
4,47,110,0
4,47,110,4
4,43,110,4
4,47,110,0
4,52,110,0
4,43,110,64
4,47,110,0
4,45,110,64
4,49,110,0
4,55,110,0
4,45,110,64
4,49,110,0
4,52,110,4
4,42,110,4
4,45,110,0
4,54,110,0
4,50,110,4
4,42,110,4
4,45,110,0
4,50,110,0
4,42,110,64
4,45,110,0
4,42,110,64
4,47,110,0
4,47,110,4
4,44,110,4
4,47,110,0
4,52,110,0
4,44,110,64
4,47,110,0
4,56,110,0
4,45,110,64
4,50,110,0
4,54,110,0
4,45,110,64
4,50,110,0
4,54,110,4
4,44,110,4
4,47,110,0
4,52,110,0
4,44,110,64
4,47,110,0
4,47,110,64
4,49,110,0
4,49,110,64
4,49,110,4
4,45,110,4
4,49,110,0
4,54,110,0
4,45,110,64
4,49,110,0
4,47,110,64
4,51,110,0
4,57,110,0
4,47,110,64
4,51,110,0
4,54,110,4
4,44,110,4
4,47,110,0
4,56,110,0
4,52,110,4
4,44,110,4
4,47,110,0
4,52,110,0
4,44,110,64
4,47,110,0
4,44,110,64
4,47,110,0
4,54,110,0
4,56,110,4
4,45,110,4
4,49,110,0
4,54,110,0
4,45,110,64
4,49,110,0
4,47,110,64
4,51,110,0
4,57,110,0
4,47,110,64
4,51,110,0
4,56,110,4
4,44,110,4
4,52,110,0
4,47,110,4
4,44,110,4
4,47,110,0
4,44,110,64
4,47,110,0
4,44,110,64
4,47,110,0
4,47,110,4
4,43,110,4
4,47,110,0
4,52,110,0
4,43,110,64
4,47,110,0
4,45,110,64
4,49,110,0
4,55,110,0
4,45,110,64
4,49,110,0
4,52,110,4
4,42,110,4
4,45,110,0
4,54,110,0
4,50,110,4
4,42,110,4
4,45,110,0
4,50,110,0
4,42,110,64
4,45,110,0
4,42,110,64
4,47,110,0
4,47,110,4
4,44,110,4
4,47,110,0
4,52,110,0
4,44,110,64
4,47,110,0
4,55,110,0
4,45,110,64
4,50,110,0
4,54,110,0
4,45,110,64
4,50,110,0
4,54,110,4
4,44,110,4
4,47,110,0
4,52,110,0
4,44,110,64
4,47,110,0
4,47,110,64
4,49,110,0
4,53,110,0
4,44,110,64
4,47,110,0
4,49,110,0
4,49,110,4
4,45,110,4
4,49,110,0
4,54,110,0
4,45,110,64
4,49,110,0
4,47,110,64
4,51,110,0
4,57,110,0
4,47,110,64
4,51,110,0
4,54,110,4
4,44,110,4
4,47,110,0
4,56,110,0
4,52,110,4
4,44,110,4
4,47,110,0
4,52,110,0
4,44,110,64
4,47,110,0
4,44,110,64
4,47,110,0
4,54,110,0
4,56,110,4
4,45,110,4
4,49,110,0
4,54,110,0
4,45,110,64
4,49,110,0
4,47,110,64
4,51,110,0
4,57,110,0
4,47,110,64
4,51,110,0
4,56,110,4
4,44,110,4
4,52,110,0
4,47,110,4
4,44,110,4
4,47,110,0
4,44,110,64
4,47,110,0
4,44,110,64
4,47,110,0
4,47,110,4
4,43,110,4
4,47,110,0
4,52,110,0
4,43,110,64
4,47,110,0
4,45,110,64
4,49,110,0
4,55,110,0
4,45,110,64
4,49,110,0
4,52,110,4
4,42,110,4
4,45,110,0
4,54,110,0
4,50,110,4
4,42,110,4
4,45,110,0
4,50,110,0
4,42,110,64
4,45,110,0
4,42,110,64
4,47,110,0
4,47,110,4
4,44,110,4
4,47,110,0
4,52,110,0
4,44,110,64
4,47,110,0
4,56,110,0
4,45,110,64
4,50,110,0
4,54,110,0
4,45,110,64
4,50,110,0
4,54,110,4
4,44,110,4
4,47,110,0
4,52,110,0
4,44,110,64
4,47,110,0
4,47,110,64
4,49,110,0
4,53,110,0
4,44,110,64
4,47,110,0
4,49,110,0
4,49,110,4
4,45,110,4
4,49,110,0
4,54,110,0
4,45,110,64
4,49,110,0
4,47,110,64
4,51,110,0
4,57,110,0
4,47,110,64
4,51,110,0
4,54,110,4
4,44,110,4
4,47,110,0
4,56,110,0
4,52,110,4
4,44,110,4
4,47,110,0
4,52,110,0
4,44,110,64
4,47,110,0
4,44,110,64
4,47,110,0
4,54,110,0
4,56,110,4
4,45,110,4
4,49,110,0
4,54,110,0
4,45,110,64
4,49,110,0
4,47,110,64
4,51,110,0
4,57,110,0
4,47,110,64
4,51,110,0
4,56,110,4
4,44,110,4
4,52,110,0
4,47,110,4
4,44,110,4
4,47,110,0
4,44,110,64
4,47,110,0
4,44,110,64
4,47,110,0
4,47,110,4
4,43,110,4
4,47,110,0
4,52,110,0
4,43,110,64
4,47,110,0
4,45,110,64
4,49,110,0
4,55,110,0
4,45,110,64
4,49,110,0
4,52,110,4
4,42,110,4
4,45,110,0
4,54,110,0
4,50,110,4
4,42,110,4
4,45,110,0
4,50,110,0
4,42,110,64
4,45,110,0
4,42,110,64
4,47,110,0
4,47,110,4
4,44,110,4
4,47,110,0
4,52,110,0
4,44,110,64
4,47,110,0
4,56,110,0
4,45,110,64
4,50,110,0
4,54,110,0
4,45,110,64
4,50,110,0
4,54,110,4
4,44,110,4
4,47,110,0
4,52,110,0
4,44,110,64
4,47,110,0
4,47,110,64
4,49,110,0
4,53,110,0
4,44,110,64
4,47,110,0
4,49,110,0
4,49,110,4
4,45,110,4
4,49,110,0
4,54,110,0
4,45,110,64
4,49,110,0
4,47,110,64
4,51,110,0
4,57,110,0
4,47,110,64
4,51,110,0
4,54,110,4
4,44,110,4
4,47,110,0
4,56,110,0
4,52,110,4
4,44,110,4
