track,note,velocity,time
1,61,120,4966
1,66,120,0
1,70,120,0
1,70,0,1502
1,66,0,0
1,61,0,0
1,61,120,34
1,66,120,0
1,70,120,0
1,70,0,1502
1,66,0,0
1,61,0,0
1,61,120,34
1,66,120,0
1,70,120,2
1,70,0,1500
1,66,0,0
1,61,0,0
1,63,120,34
1,66,120,0
1,70,120,0
1,70,0,690
1,66,0,0
1,63,0,0
1,61,120,78
1,66,120,0
1,71,120,0
1,71,0,516
1,66,0,0
1,61,0,0
1,66,120,60
1,71,120,0
1,73,120,0
1,73,0,174
1,71,0,0
1,66,0,0
1,61,120,18
1,66,120,0
1,70,120,0
1,61,0,1112
1,70,0,2
1,66,0,0
1,66,120,228
1,70,120,0
1,70,0,94
1,66,0,0
1,68,120,2
1,65,120,0
1,61,120,0
1,61,0,1620
1,65,0,0
1,68,0,0
1,61,120,14
1,66,120,0
1,70,120,2
1,70,0,718
1,66,0,0
1,61,0,138
1,70,127,6
1,70,0,86
1,66,127,10
1,66,0,86
1,63,127,10
1,63,0,86
1,58,120,10
1,63,120,0
1,66,120,0
1,66,0,174
1,63,0,0
1,58,0,0
1,58,120,18
1,63,120,0
1,66,120,0
1,66,0,174
1,63,0,0
1,58,0,0
1,56,120,18
1,61,120,0
1,65,120,0
1,65,0,1380
1,61,0,0
1,56,0,0
1,58,120,156
1,61,120,0
1,66,120,0
1,66,0,1380
1,61,0,0
1,58,0,0
1,56,120,156
1,63,120,0
1,66,120,0
1,66,0,344
1,63,0,0
1,56,0,0
1,56,120,136
1,61,120,0
1,66,120,0
1,66,0,86
1,61,0,0
1,56,0,0
1,56,120,104
1,61,120,2
1,66,120,0
1,66,0,86
1,61,0,0
1,56,0,0
1,56,120,106
1,61,120,0
1,65,120,0
1,65,0,86
1,61,0,0
1,56,0,0
1,56,120,106
1,61,120,0
1,65,120,0
1,56,0,440
1,65,0,2
1,61,0,0
1,61,120,38
1,66,120,0
1,70,120,0
1,61,0,344
1,70,0,2
1,66,0,0
1,61,120,134
1,65,120,0
1,68,120,0
1,68,0,86
1,65,0,0
1,61,0,0
1,61,120,106
1,65,120,0
1,68,120,0
1,68,0,86
1,65,0,0
1,61,0,0
1,61,120,106
1,66,120,0
1,70,120,0
1,70,0,86
1,66,0,0
1,61,0,0
1,59,120,106
1,63,120,0
1,66,120,0
1,59,0,344
1,66,0,2
1,63,0,0
1,59,120,136
1,63,120,0
1,66,120,0
1,66,0,172
1,63,0,0
1,59,0,0
1,59,120,114
1,61,120,0
1,66,120,2
1,66,0,84
1,61,0,0
1,59,0,0
1,56,120,106
1,61,120,0
1,65,120,0
1,65,0,690
1,61,0,0
1,56,0,0
1,71,127,366
1,71,0,86
1,70,127,10
1,70,0,86
1,71,127,10
1,71,0,86
1,73,127,10
1,73,0,86
1,61,120,394
1,66,120,0
1,70,120,0
1,70,0,1380
1,66,0,0
1,61,0,0
1,61,120,156
1,66,120,0
1,70,120,0
1,70,0,1380
1,66,0,0
1,61,0,0
1,61,120,156
1,66,120,2
1,70,120,0
1,70,0,1378
1,66,0,0
1,61,0,0
1,63,120,156
1,66,120,0
1,70,120,0
1,70,0,690
1,66,0,0
1,63,0,0
1,63,120,78
1,66,120,2
1,71,120,0
1,71,0,514
1,66,0,0
1,63,0,0
1,63,120,60
1,66,120,0
1,71,120,2
1,71,0,172
1,66,0,0
1,63,0,0
1,61,120,18
1,66,120,0
1,70,120,0
1,70,0,1380
1,66,0,0
1,61,0,0
1,61,120,156
1,66,120,2
1,70,120,0
1,70,0,1378
1,66,0,0
1,61,0,0
1,61,120,156
1,66,120,0
1,70,120,0
1,70,0,1380
1,66,0,0
1,61,0,0
1,63,120,156
1,66,120,0
1,70,120,0
1,70,0,690
1,66,0,0
1,63,0,0
1,63,120,78
1,66,120,2
1,70,120,0
1,63,0,342
1,70,0,2
1,66,0,0
1,63,120,38
1,66,120,0
1,71,120,0
1,71,0,346
1,66,0,0
1,63,0,0
1,61,120,38
1,66,120,2
1,70,120,0
1,70,0,688
1,66,0,0
1,61,0,0
1,66,120,78
1,70,120,0
1,73,120,2
1,66,0,342
1,73,0,2
1,70,0,0
1,66,120,228
1,70,120,0
1,70,0,94
1,66,0,0
1,68,120,2
1,65,120,0
1,61,120,0
1,61,0,1620
1,65,0,0
1,68,0,0
1,61,120,14
1,66,120,0
1,70,120,2
1,70,0,718
1,66,0,0
1,61,0,138
1,70,127,6
1,70,0,86
1,66,127,10
1,66,0,86
1,63,127,10
1,63,0,86
1,58,120,10
1,63,120,0
1,66,120,0
1,66,0,174
1,63,0,0
1,58,0,0
1,58,120,18
1,63,120,0
1,66,120,0
1,66,0,174
1,63,0,0
1,58,0,0
1,56,120,18
1,61,120,0
1,65,120,0
1,65,0,1380
1,61,0,0
1,56,0,0
1,58,120,156
1,61,120,0
1,66,120,0
1,66,0,1380
1,61,0,0
1,58,0,0
1,56,120,156
1,63,120,0
1,66,120,0
1,66,0,344
1,63,0,0
1,56,0,0
1,56,120,136
1,61,120,0
1,66,120,0
1,66,0,86
1,61,0,0
1,56,0,0
1,56,120,104
1,61,120,2
1,66,120,0
1,66,0,86
1,61,0,0
1,56,0,0
1,56,120,106
1,61,120,0
1,65,120,0
1,65,0,86
1,61,0,0
1,56,0,0
1,56,120,106
1,61,120,0
1,65,120,0
1,56,0,440
1,65,0,2
1,61,0,0
1,61,120,38
1,66,120,0
1,70,120,0
1,61,0,344
1,70,0,2
1,66,0,0
1,61,120,134
1,65,120,0
1,68,120,0
1,68,0,86
1,65,0,0
1,61,0,0
1,61,120,106
1,65,120,0
1,68,120,0
1,68,0,86
1,65,0,0
1,61,0,0
1,61,120,106
1,66,120,0
1,70,120,0
1,70,0,86
1,66,0,0
1,61,0,0
1,59,120,106
1,63,120,0
1,66,120,0
1,59,0,344
1,66,0,2
1,63,0,0
1,59,120,136
1,63,120,0
1,66,120,0
1,66,0,172
1,63,0,0
1,59,0,0
1,59,120,114
1,61,120,0
1,66,120,2
1,66,0,84
1,61,0,0
1,59,0,0
1,56,120,106
1,61,120,0
1,65,120,0
1,65,0,690
1,61,0,0
1,56,0,0
1,71,127,366
1,71,0,86
1,70,127,10
1,70,0,86
1,71,127,10
1,71,0,86
1,73,127,10
1,73,0,86
1,61,120,394
1,66,120,0
1,70,120,0
1,70,0,1380
1,66,0,0
1,61,0,0
1,61,120,156
1,66,120,0
1,70,120,0
1,70,0,1380
1,66,0,0
1,61,0,0
1,61,120,156
1,66,120,2
1,70,120,0
1,70,0,1378
1,66,0,0
1,61,0,0
1,63,120,156
1,66,120,0
1,70,120,0
1,70,0,690
1,66,0,0
1,63,0,0
1,63,120,78
1,66,120,2
1,71,120,0
1,71,0,514
1,66,0,0
1,63,0,0
1,63,120,60
1,66,120,2
1,71,120,0
1,71,0,172
1,66,0,0
1,63,0,0
1,61,120,18
1,66,120,0
1,70,120,0
1,70,0,1380
1,66,0,0
1,61,0,0
1,61,120,156
1,66,120,2
1,70,120,0
1,70,0,1378
1,66,0,0
1,61,0,0
1,61,120,156
1,66,120,0
1,70,120,0
1,70,0,1380
1,66,0,0
1,61,0,0
1,63,120,156
1,66,120,2
1,70,120,0
1,70,0,688
1,66,0,0
1,63,0,0
1,63,120,78
1,66,120,2
1,70,120,0
1,63,0,342
1,70,0,2
1,66,0,0
1,63,120,38
1,66,120,0
1,71,120,0
1,63,0,344
1,71,0,2
1,66,0,0
1,58,120,38
1,63,120,2
1,66,120,0
1,66,0,688
1,63,0,0
1,58,0,0
1,56,120,846
1,61,120,0
1,65,120,2
1,65,0,688
1,61,0,0
1,56,0,0
1,58,120,846
1,63,120,0
1,66,120,2
1,66,0,688
1,63,0,0
1,58,0,0
1,56,120,846
1,61,120,0
1,65,120,2
1,65,0,688
1,61,0,0
1,56,0,0
1,56,120,846
1,63,120,0
1,66,120,0
1,56,0,344
1,66,0,2
1,63,0,0
1,56,120,134
1,61,120,0
1,66,120,0
1,66,0,86
1,61,0,0
1,56,0,0
1,56,120,106
1,61,120,0
1,66,120,0
1,66,0,86
1,61,0,0
1,56,0,0
1,56,120,106
1,61,120,0
1,65,120,0
1,65,0,86
1,61,0,0
1,56,0,0
1,56,120,106
1,61,120,0
1,65,120,0
1,56,0,440
1,65,0,2
1,61,0,0
1,61,120,38
1,66,120,0
1,70,120,0
1,61,0,344
1,70,0,2
1,66,0,0
1,61,120,134
1,65,120,0
1,68,120,0
1,68,0,86
1,65,0,0
1,61,0,0
1,61,120,106
1,65,120,0
1,68,120,0
1,68,0,86
1,65,0,0
1,61,0,0
1,61,120,106
1,66,120,0
1,70,120,0
1,70,0,86
1,66,0,0
1,61,0,0
1,59,120,106
1,63,120,0
1,66,120,0
1,59,0,344
1,66,0,2
1,63,0,0
1,56,120,136
1,59,120,0
1,63,120,0
1,63,0,172
1,59,0,0
1,56,0,0
1,58,120,114
1,63,120,0
1,66,120,2
1,66,0,84
1,63,0,0
1,58,0,0
1,58,120,106
1,61,120,0
1,65,120,0
1,65,0,690
1,61,0,0
1,58,0,0
1,71,127,366
1,71,0,86
1,70,127,10
1,70,0,86
1,71,127,10
1,71,0,86
1,73,127,10
1,73,0,86
1,56,120,394
1,60,120,0
1,63,120,0
1,63,0,1380
1,60,0,0
1,56,0,0
1,56,120,156
1,60,120,0
1,63,120,0
1,63,0,1380
1,60,0,0
1,56,0,0
1,56,120,156
1,60,120,0
1,63,120,0
1,63,0,1380
1,60,0,0
1,56,0,0
1,56,120,156
1,61,120,0
1,65,120,0
1,65,0,690
1,61,0,0
1,56,0,0
1,56,120,78
1,61,120,2
1,65,120,0
1,56,0,342
1,65,0,2
1,61,0,0
1,56,120,38
1,61,120,0
1,65,120,0
1,65,0,174
1,61,0,0
1,56,0,0
1,58,120,18
1,63,120,2
1,67,120,0
1,67,0,90
1,63,0,0
1,58,0,0
1,60,120,100
1,63,120,0
1,68,120,0
1,68,0,1376
1,63,0,0
1,60,0,2
1,60,120,158
1,63,120,0
1,68,120,0
1,68,0,1380
1,63,0,0
1,60,0,0
1,60,120,156
1,63,120,0
1,68,120,0
1,68,0,1380
1,63,0,0
1,60,0,0
1,56,120,156
1,61,120,0
1,65,120,0
1,65,0,690
1,61,0,0
1,56,0,0
1,56,120,78
1,61,120,2
1,65,120,0
1,56,0,342
1,65,0,2
1,61,0,0
1,58,120,38
1,63,120,0
1,67,120,0
1,58,0,344
1,67,0,2
1,63,0,0
1,63,120,6184
1,68,120,0
1,72,120,0
1,72,0,1378
1,68,0,0
1,63,0,0
1,63,120,158
1,68,120,0
1,72,120,0
1,72,0,1378
1,68,0,0
1,63,0,0
1,63,120,156
1,68,120,2
1,72,120,0
1,72,0,1378
1,68,0,0
1,63,0,0
1,65,120,156
1,68,120,2
1,73,120,0
1,73,0,688
1,68,0,0
1,65,0,0
1,65,120,78
1,70,120,2
1,73,120,0
1,73,0,514
1,70,0,0
1,65,0,0
1,67,120,60
1,70,120,0
1,75,120,2
1,75,0,172
1,70,0,0
1,67,0,0
1,63,120,18
1,68,120,2
1,72,120,0
1,72,0,1378
1,68,0,0
1,63,0,0
1,63,120,156
1,68,120,2
1,72,120,0
1,72,0,1378
1,68,0,0
1,63,0,0
1,63,120,156
1,68,120,2
1,72,120,0
1,72,0,1378
1,68,0,0
1,63,0,0
1,65,120,156
1,68,120,2
1,73,120,0
1,73,0,688
1,68,0,0
1,65,0,0
1,65,120,78
1,70,120,2
1,73,120,0
1,73,0,514
1,70,0,0
1,65,0,0
1,67,120,60
1,70,120,0
1,75,120,2
1,75,0,172
1,70,0,0
1,67,0,0
1,63,120,18
1,68,120,2
1,72,120,0
1,72,0,32
1,68,0,0
1,63,0,0
1,63,120,92
1,68,120,2
1,72,120,0
1,72,0,32
1,68,0,0
1,63,0,0
1,63,120,92
1,68,120,2
1,72,120,0
1,72,0,32
1,68,0,0
1,63,0,0
1,65,120,92
1,68,120,2
1,73,120,0
1,73,0,14
1,68,0,0
1,65,0,0
1,65,120,78
1,70,120,2
1,73,120,0
1,73,0,32
1,70,0,0
1,65,0,0
1,67,120,60
1,70,120,2
1,75,120,0
1,75,0,74
1,70,0,0
1,67,0,0
1,63,120,18
1,68,120,2
1,72,120,0
1,72,0,1378
1,68,0,0
1,63,0,0
1,63,120,156
1,68,120,2
1,72,120,0
1,72,0,1378
1,68,0,0
1,63,0,0
2,42,120,1860
2,42,0,116
2,42,105,28
2,42,0,20
2,39,110,28
2,39,0,86
2,42,105,10
2,42,0,86
2,39,105,298
2,39,0,14
2,42,120,82
2,42,0,256
2,42,105,2
2,42,0,44
2,42,120,436
2,42,0,110
2,42,105,34
2,42,0,20
2,39,105,28
2,39,0,86
2,42,105,10
2,42,0,86
2,39,105,298
2,39,0,14
2,42,115,82
2,42,0,256
2,42,105,2
2,42,0,44
2,54,125,244
2,54,0,2
2,42,115,2
2,42,0,128
2,42,105,16
2,42,0,20
2,39,105,28
2,39,0,86
2,42,105,10
2,42,0,40
2,42,115,440
2,42,0,128
2,42,105,16
2,42,0,120
2,42,105,24
2,42,0,40
2,42,115,442
2,42,0,126
2,42,105,16
2,42,0,20
2,39,105,28
2,39,0,86
2,42,105,10
2,42,0,40
2,42,115,440
2,42,0,128
2,42,105,16
2,42,0,44
2,42,110,196
2,42,0,174
2,41,110,18
2,41,0,174
2,39,115,20
2,39,0,126
2,39,105,16
2,39,0,30
2,37,105,18
2,37,0,86
2,39,105,10
2,39,0,40
2,39,115,440
2,39,0,128
2,39,105,16
2,39,0,44
2,39,115,196
2,39,0,128
2,39,105,16
2,39,0,14
2,46,115,34
2,46,0,128
2,46,105,16
2,46,0,14
2,47,105,34
2,47,0,128
2,47,105,16
2,47,0,128
2,47,105,16
2,47,0,30
2,47,110,354
2,47,0,20
2,46,110,28
2,46,0,20
2,44,105,28
2,44,0,174
2,46,105,18
2,46,0,128
2,44,105,16
2,44,0,14
2,47,105,34
2,47,0,128
2,44,105,16
2,44,0,14
2,49,105,34
2,49,0,174
2,42,115,20
2,42,0,126
2,42,105,16
2,42,0,20
2,39,105,28
2,39,0,86
2,42,105,10
2,42,0,40
2,42,115,440
2,42,0,92
2,39,105,4
2,39,0,92
2,37,105,4
2,37,0,86
2,42,115,10
2,42,0,86
2,37,115,394
2,37,0,128
2,37,105,16
2,37,0,30
2,34,105,18
2,34,0,86
2,37,105,10
2,37,0,30
2,34,115,354
2,34,0,14
2,37,115,82
2,37,0,128
2,37,105,16
2,37,0,128
2,37,105,16
2,37,0,30
2,34,115,354
2,34,0,20
2,37,105,28
2,37,0,20
2,39,120,28
2,39,0,110
2,39,105,34
2,39,0,44
2,37,105,4
2,37,0,86
2,39,105,10
2,39,0,40
2,37,105,344
2,37,0,14
2,39,115,82
2,39,0,128
2,39,105,16
2,39,0,128
2,39,105,16
2,39,0,30
2,32,105,66
2,32,0,174
2,34,105,18
2,34,0,174
2,37,115,18
2,37,0,128
2,37,105,16
2,37,0,36
2,34,105,12
2,34,0,86
2,37,105,10
2,37,0,40
2,34,115,344
2,34,0,20
2,37,115,76
2,37,0,128
2,37,105,16
2,37,0,128
2,37,105,16
2,37,0,40
2,37,115,248
2,37,0,14
2,34,105,82
2,34,0,20
2,37,105,28
2,37,0,20
2,39,120,28
2,39,0,110
2,39,105,34
2,39,0,128
2,39,105,16
2,39,0,40
2,37,115,344
2,37,0,30
2,39,115,66
2,39,0,128
2,39,105,16
2,39,0,128
2,37,105,16
2,37,0,30
2,39,105,2
2,39,0,174
2,34,105,18
2,34,0,174
2,32,115,2
2,32,0,80
2,32,105,256
2,32,0,30
2,32,115,18
2,32,0,86
2,34,105,10
2,34,0,86
2,35,115,8
2,35,0,88
2,37,105,10
2,37,0,86
2,37,105,298
2,37,0,40
2,37,110,56
2,37,0,128
2,34,105,16
2,34,0,14
2,35,110,34
2,35,0,128
2,34,105,16
2,34,0,14
2,34,120,34
2,34,0,70
2,34,110,266
2,34,0,30
2,34,105,18
2,34,0,86
2,32,105,10
2,32,0,86
2,34,105,10
2,34,0,86
