track,note,velocity,time
3,57,110,2688
3,57,110,4
3,62,110,4
3,62,110,4
3,62,110,4
3,64,110,4
3,66,110,4
3,62,110,4
3,69,110,4
3,66,110,4
3,62,110,4
3,59,110,4
3,61,110,4
3,62,110,4
3,64,110,4
3,69,110,64
3,66,110,4
3,62,110,4
3,62,110,4
3,62,110,4
3,64,110,4
3,66,110,4
3,62,110,4
3,69,110,4
3,67,110,4
3,66,110,4
3,69,110,4
3,67,110,4
3,66,110,4
3,64,110,4
3,64,110,64
3,66,110,4
3,67,110,4
3,64,110,4
3,69,110,4
3,67,110,4
3,66,110,4
3,62,110,4
3,66,110,4
3,62,110,4
3,55,110,4
3,57,110,96
3,61,110,4
3,64,110,4
3,62,110,4
3,57,110,196
3,57,110,4
3,62,110,4
3,62,110,4
3,62,110,4
3,64,110,4
3,66,110,4
3,62,110,4
3,69,110,4
3,66,110,4
3,62,110,4
3,59,110,4
3,61,110,4
3,62,110,4
3,64,110,4
3,69,110,64
3,66,110,4
3,62,110,4
3,62,110,4
3,62,110,4
3,64,110,4
3,66,110,4
3,62,110,4
3,69,110,4
3,67,110,4
3,66,110,4
3,69,110,4
3,67,110,4
3,66,110,4
3,64,110,4
3,64,110,64
3,66,110,4
3,67,110,4
3,64,110,4
3,69,110,4
3,67,110,4
3,66,110,4
3,62,110,4
3,66,110,4
3,62,110,4
3,55,110,4
3,57,110,96
3,61,110,4
3,64,110,4
3,62,110,4
3,57,110,196
3,57,110,4
3,62,110,4
3,62,110,4
3,62,110,4
3,64,110,4
3,66,110,4
3,62,110,4
3,69,110,4
3,66,110,4
3,62,110,4
3,59,110,4
3,61,110,4
3,62,110,4
3,64,110,4
3,69,110,64
3,66,110,4
3,62,110,4
3,62,110,4
3,62,110,4
3,64,110,4
3,66,110,4
3,62,110,4
3,69,110,4
3,67,110,4
3,66,110,4
3,69,110,4
3,67,110,4
3,66,110,4
3,64,110,4
3,64,110,64
3,66,110,4
3,67,110,4
3,64,110,4
3,69,110,4
3,67,110,4
3,66,110,4
3,62,110,4
3,66,110,4
3,62,110,4
3,55,110,4
3,57,110,96
3,61,110,4
3,64,110,4
3,62,110,4
3,57,110,196
3,57,110,4
3,62,110,4
3,62,110,4
3,62,110,4
3,64,110,4
3,66,110,4
3,62,110,4
3,69,110,4
3,66,110,4
3,62,110,4
3,59,110,4
3,61,110,4
3,62,110,4
3,64,110,4
3,69,110,64
3,66,110,4
3,62,110,4
3,62,110,4
3,62,110,4
3,64,110,4
3,66,110,4
3,62,110,4
3,69,110,4
3,67,110,4
3,66,110,4
3,69,110,4
3,67,110,4
3,66,110,4
3,64,110,4
3,64,110,64
3,66,110,4
3,67,110,4
3,64,110,4
3,69,110,4
3,67,110,4
3,66,110,4
3,62,110,4
3,66,110,4
3,62,110,4
3,55,110,4
3,57,110,96
3,61,110,4
3,64,110,4
3,62,110,4
3,57,110,196
3,57,110,4
3,62,110,4
3,62,110,4
3,62,110,4
3,64,110,4
3,66,110,4
3,62,110,4
3,69,110,4
3,66,110,4
3,62,110,4
3,59,110,4
3,61,110,4
3,62,110,4
3,64,110,4
3,69,110,64
3,66,110,4
3,62,110,4
3,62,110,4
3,62,110,4
3,64,110,4
3,66,110,4
3,62,110,4
3,69,110,4
3,67,110,4
3,66,110,4
3,69,110,4
3,67,110,4
3,66,110,4
3,64,110,4
3,64,110,64
3,66,110,4
3,67,110,4
3,64,110,4
3,69,110,4
3,67,110,4
3,66,110,4
3,62,110,4
3,66,110,4
3,62,110,4
3,55,110,4
3,57,110,96
3,61,110,4
3,64,110,4
3,62,110,4
3,57,110,196
3,57,110,4
3,62,110,4
3,62,110,4
3,62,110,4
3,64,110,4
3,66,110,4
3,62,110,4
3,69,110,4
3,66,110,4
3,62,110,4
3,59,110,4
3,61,110,4
3,62,110,4
3,64,110,4
3,69,110,64
3,66,110,4
3,62,110,4
3,62,110,4
3,62,110,4
3,64,110,4
3,66,110,4
3,62,110,4
3,69,110,4
3,67,110,4
3,66,110,4
3,69,110,4
3,67,110,4
3,66,110,4
3,64,110,4
3,64,110,64
3,66,110,4
3,67,110,4
3,64,110,4
3,69,110,4
3,67,110,4
3,66,110,4
3,62,110,4
3,66,110,4
3,62,110,4
3,55,110,4
3,57,110,96
3,61,110,4
3,64,110,4
3,62,110,4
3,57,110,196
3,57,110,4
3,62,110,4
3,62,110,4
3,62,110,4
3,64,110,4
3,66,110,4
3,62,110,4
3,69,110,4
3,66,110,4
3,62,110,4
3,59,110,4
3,61,110,4
3,62,110,4
3,64,110,4
3,69,110,64
3,66,110,4
3,62,110,4
3,62,110,4
3,62,110,4
3,64,110,4
3,66,110,4
3,62,110,4
3,69,110,4
3,67,110,4
3,66,110,4
3,69,110,4
3,67,110,4
3,66,110,4
3,64,110,4
3,64,110,64
3,66,110,4
3,67,110,4
3,64,110,4
3,69,110,4
3,67,110,4
3,66,110,4
3,62,110,4
3,66,110,4
3,62,110,4
3,55,110,4
3,57,110,96
3,61,110,4
3,64,110,4
3,62,110,4
3,57,110,196
3,57,110,4
3,62,110,4
3,62,110,4
3,62,110,4
3,64,110,4
3,66,110,4
3,62,110,4
3,69,110,4
3,66,110,4
3,62,110,4
3,59,110,4
3,61,110,4
3,62,110,4
3,64,110,4
3,69,110,64
3,66,110,4
3,62,110,4
3,62,110,4
3,62,110,4
3,64,110,4
3,66,110,4
3,62,110,4
3,69,110,4
3,67,110,4
3,66,110,4
3,69,110,4
3,67,110,4
3,66,110,4
3,64,110,4
3,64,110,64
3,66,110,4
3,67,110,4
3,64,110,4
3,69,110,4
3,67,110,4
3,66,110,4
3,62,110,4
3,66,110,4
3,62,110,4
3,55,110,4
3,57,110,96
3,61,110,4
3,64,110,4
3,62,110,4
3,57,110,196
3,57,110,4
3,62,110,4
3,62,110,4
3,62,110,4
3,64,110,4
3,66,110,4
3,62,110,4
3,69,110,4
3,66,110,4
3,62,110,4
3,59,110,4
3,61,110,4
3,62,110,4
3,64,110,4
3,69,110,64
3,66,110,4
3,62,110,4
3,62,110,4
3,62,110,4
3,64,110,4
3,66,110,4
3,62,110,4
3,69,110,4
3,67,110,4
3,66,110,4
3,69,110,4
3,67,110,4
3,66,110,4
3,64,110,4
3,64,110,64
3,66,110,4
3,67,110,4
3,64,110,4
3,69,110,4
3,67,110,4
3,66,110,4
3,62,110,4
3,66,110,4
3,62,110,4
3,55,110,4
3,57,110,96
3,61,110,4
3,64,110,4
3,62,110,4
3,57,110,196
3,57,110,4
3,62,110,4
3,62,110,4
3,62,110,4
3,64,110,4
3,66,110,4
3,62,110,4
3,69,110,4
3,66,110,4
3,62,110,4
3,59,110,4
3,61,110,4
3,62,110,4
3,64,110,4
3,69,110,64
3,66,110,4
3,62,110,4
3,62,110,4
3,62,110,4
3,64,110,4
3,66,110,4
3,62,110,4
3,69,110,4
3,67,110,4
3,66,110,4
3,69,110,4
3,67,110,4
3,66,110,4
3,64,110,4
3,64,110,64
3,66,110,4
3,67,110,4
3,64,110,4
3,69,110,4
3,67,110,4
3,66,110,4
3,62,110,4
3,66,110,4
3,62,110,4
3,55,110,4
3,57,110,96
3,61,110,4
3,64,110,4
3,62,110,4
4,62,110,0
4,54,110,192
4,57,110,0
4,54,110,196
4,57,110,0
4,54,110,196
4,57,110,0
4,54,110,196
4,57,110,0
4,54,110,196
4,57,110,0
4,54,110,196
4,57,110,0
4,54,110,4
4,57,110,0
4,57,110,4
4,54,110,4
4,57,110,0
4,62,110,4
4,54,110,4
4,57,110,0
4,62,110,0
4,62,110,4
4,54,110,4
4,57,110,0
4,64,110,0
4,66,110,4
4,57,110,4
4,62,110,0
4,69,110,4
4,57,110,4
4,62,110,0
4,66,110,0
4,62,110,4
4,54,110,4
4,59,110,0
4,61,110,4
4,56,110,4
4,59,110,0
4,62,110,0
4,64,110,4
4,55,110,192
4,57,110,0
4,59,110,0
4,69,110,4
4,55,110,4
4,57,110,0
4,66,110,0
4,62,110,4
4,54,110,4
4,57,110,0
4,62,110,0
4,62,110,4
4,54,110,4
4,57,110,0
4,64,110,0
4,66,110,4
4,57,110,4
4,62,110,0
4,69,110,4
4,57,110,4
4,62,110,0
4,67,110,0
4,66,110,4
4,59,110,4
4,63,110,0
4,69,110,0
4,67,110,4
4,57,110,4
4,63,110,0
4,66,110,0
4,64,110,4
4,55,110,192
4,59,110,0
4,64,110,4
4,55,110,4
4,59,110,0
4,66,110,0
4,67,110,4
4,55,110,4
4,61,110,0
4,64,110,0
4,69,110,4
4,55,110,4
4,64,110,0
4,67,110,0
4,66,110,4
4,54,110,4
4,57,110,0
4,62,110,0
4,66,110,4
4,54,110,4
4,59,110,0
4,62,110,0
4,55,110,4
4,47,110,192
4,50,110,0
4,47,110,196
4,50,110,0
4,57,110,4
4,49,110,4
4,52,110,0
4,61,110,0
4,55,110,132
4,61,110,0
4,64,110,0
4,54,110,132
4,57,110,0
4,62,110,0
4,62,110,4
4,74,110,0
4,61,110,4
4,73,110,0
4,59,110,4
4,71,110,0
4,57,110,4
4,69,110,0
4,55,110,4
4,67,110,0
4,54,110,4
4,57,110,0
4,66,110,0
4,52,110,4
4,57,110,0
4,64,110,0
4,62,110,4
4,54,110,4
4,57,110,0
4,62,110,0
4,62,110,4
4,54,110,4
4,57,110,0
4,64,110,0
4,66,110,4
4,57,110,4
4,62,110,0
4,69,110,4
4,57,110,4
4,62,110,0
4,66,110,0
4,62,110,4
4,54,110,4
4,59,110,0
4,61,110,4
4,56,110,4
4,59,110,0
4,62,110,0
4,64,110,4
4,55,110,192
4,57,110,0
4,59,110,0
4,69,110,4
4,55,110,4
4,57,110,0
4,66,110,0
4,62,110,4
4,54,110,4
4,57,110,0
4,62,110,0
4,62,110,4
4,54,110,4
4,57,110,0
4,64,110,0
4,66,110,4
4,57,110,4
4,62,110,0
4,69,110,4
4,57,110,4
4,62,110,0
4,67,110,0
4,66,110,4
4,59,110,4
4,63,110,0
4,69,110,0
4,67,110,4
4,57,110,4
4,63,110,0
4,66,110,0
4,64,110,4
4,55,110,192
4,59,110,0
4,64,110,4
4,55,110,4
4,59,110,0
4,66,110,0
4,67,110,4
4,55,110,4
4,61,110,0
4,64,110,0
4,69,110,4
4,55,110,4
4,64,110,0
4,67,110,0
4,66,110,4
4,54,110,4
4,57,110,0
4,62,110,0
4,66,110,4
4,54,110,4
4,59,110,0
4,62,110,0
4,55,110,4
4,47,110,192
4,50,110,0
4,47,110,196
4,50,110,0
4,57,110,4
4,49,110,4
4,52,110,0
4,61,110,0
4,55,110,132
4,61,110,0
4,64,110,0
4,54,110,132
4,57,110,0
4,62,110,0
4,62,110,4
4,74,110,0
4,61,110,4
4,73,110,0
4,59,110,4
4,71,110,0
4,57,110,4
4,69,110,0
4,55,110,4
4,67,110,0
4,54,110,4
4,57,110,0
4,66,110,0
4,52,110,4
4,57,110,0
4,64,110,0
4,62,110,4
4,54,110,4
4,57,110,0
4,62,110,0
4,62,110,4
4,54,110,4
4,57,110,0
4,64,110,0
4,66,110,4
4,57,110,4
4,62,110,0
4,69,110,4
4,57,110,4
4,62,110,0
4,66,110,0
4,62,110,4
4,54,110,4
4,59,110,0
4,61,110,4
4,56,110,4
4,59,110,0
4,62,110,0
4,64,110,4
4,55,110,192
4,57,110,0
4,59,110,0
4,69,110,4
4,55,110,4
4,57,110,0
4,66,110,0
4,62,110,4
4,54,110,4
4,57,110,0
4,62,110,0
4,62,110,4
4,54,110,4
4,57,110,0
4,64,110,0
4,66,110,4
4,57,110,4
4,62,110,0
4,69,110,4
4,57,110,4
4,62,110,0
4,67,110,0
4,66,110,4
4,59,110,4
4,63,110,0
4,69,110,0
4,67,110,4
4,57,110,4
4,63,110,0
4,66,110,0
4,64,110,4
4,55,110,192
4,59,110,0
4,64,110,4
4,55,110,4
4,59,110,0
4,66,110,0
4,67,110,4
4,55,110,4
4,61,110,0
4,64,110,0
4,69,110,4
4,55,110,4
4,64,110,0
4,67,110,0
4,66,110,4
4,54,110,4
4,57,110,0
4,62,110,0
4,66,110,4
4,54,110,4
4,59,110,0
4,62,110,0
4,55,110,4
4,47,110,192
4,50,110,0
4,47,110,196
4,50,110,0
4,57,110,4
4,49,110,4
4,52,110,0
4,61,110,0
4,55,110,132
4,61,110,0
4,64,110,0
4,54,110,132
4,57,110,0
4,62,110,0
4,62,110,4
4,74,110,0
4,61,110,4
4,73,110,0
4,59,110,4
4,71,110,0
4,57,110,4
4,69,110,0
4,55,110,4
4,67,110,0
4,54,110,4
4,57,110,0
4,66,110,0
4,52,110,4
4,57,110,0
4,64,110,0
4,62,110,4
4,54,110,4
4,57,110,0
4,62,110,0
4,62,110,4
4,54,110,4
4,57,110,0
4,64,110,0
4,66,110,4
4,57,110,4
4,62,110,0
4,69,110,4
4,57,110,4
4,62,110,0
4,66,110,0
4,62,110,4
4,54,110,4
4,59,110,0
4,61,110,4
4,56,110,4
4,59,110,0
4,62,110,0
4,64,110,4
4,55,110,192
4,57,110,0
4,59,110,0
4,69,110,4
4,55,110,4
4,57,110,0
4,66,110,0
4,62,110,4
4,54,110,4
4,57,110,0
4,62,110,0
4,62,110,4
4,54,110,4
4,57,110,0
4,64,110,0
4,66,110,4
4,57,110,4
4,62,110,0
4,69,110,4
4,57,110,4
4,62,110,0
4,67,110,0
4,66,110,4
4,59,110,4
4,63,110,0
4,69,110,0
4,67,110,4
4,57,110,4
4,63,110,0
4,66,110,0
4,64,110,4
4,55,110,192
4,59,110,0
4,64,110,4
4,55,110,4
4,59,110,0
4,66,110,0
4,67,110,4
4,55,110,4
4,61,110,0
4,64,110,0
4,69,110,4
4,55,110,4
4,64,110,0
4,67,110,0
4,66,110,4
4,54,110,4
4,57,110,0
4,62,110,0
4,66,110,4
4,54,110,4
4,59,110,0
4,62,110,0
4,55,110,4
4,47,110,192
4,50,110,0
4,47,110,196
4,50,110,0
4,57,110,4
4,49,110,4
4,52,110,0
4,61,110,0
4,55,110,132
4,61,110,0
4,64,110,0
4,54,110,132
4,57,110,0
4,62,110,0
4,62,110,4
4,74,110,0
4,61,110,4
4,73,110,0
4,59,110,4
4,71,110,0
4,57,110,4
4,69,110,0
4,55,110,4
4,67,110,0
4,54,110,4
4,57,110,0
4,66,110,0
4,52,110,4
4,57,110,0
4,64,110,0
4,62,110,4
4,54,110,4
4,57,110,0
4,62,110,0
4,62,110,4
4,54,110,4
4,57,110,0
4,64,110,0
4,66,110,4
4,57,110,4
4,62,110,0
4,69,110,4
4,57,110,4
4,62,110,0
4,66,110,0
4,62,110,4
4,54,110,4
4,59,110,0
4,61,110,4
4,56,110,4
4,59,110,0
4,62,110,0
4,64,110,4
4,55,110,192
4,57,110,0
4,59,110,0
4,69,110,4
4,55,110,4
4,57,110,0
4,66,110,0
4,62,110,4
4,54,110,4
4,57,110,0
4,62,110,0
4,62,110,4
4,54,110,4
4,57,110,0
4,64,110,0
4,66,110,4
4,57,110,4
4,62,110,0
4,69,110,4
4,57,110,4
4,62,110,0
4,67,110,0
4,66,110,4
4,59,110,4
4,63,110,0
4,69,110,0
4,67,110,4
4,57,110,4
4,63,110,0
4,66,110,0
4,64,110,4
4,55,110,192
4,59,110,0
4,64,110,4
4,55,110,4
4,59,110,0
4,66,110,0
4,67,110,4
4,55,110,4
4,61,110,0
4,64,110,0
4,69,110,4
4,55,110,4
4,64,110,0
4,67,110,0
4,66,110,4
4,54,110,4
4,57,110,0
4,62,110,0
4,66,110,4
4,54,110,4
4,59,110,0
4,62,110,0
4,55,110,4
4,47,110,192
4,50,110,0
4,47,110,196
4,50,110,0
4,57,110,4
4,49,110,4
4,52,110,0
4,61,110,0
4,55,110,132
4,61,110,0
4,64,110,0
4,54,110,132
4,57,110,0
4,62,110,0
4,62,110,4
4,74,110,0
4,61,110,4
4,73,110,0
4,59,110,4
4,71,110,0
4,57,110,4
4,69,110,0
4,55,110,4
4,67,110,0
4,54,110,4
4,57,110,0
4,66,110,0
