track,note,velocity,time
1,52,65,0
1,47,65,0
1,52,65,4
1,47,65,4
1,49,65,96
1,51,65,96
1,52,70,96
1,47,70,16
1,54,70,12
1,47,70,16
1,54,70,16
1,47,70,16
1,52,70,12
1,47,70,16
1,49,70,8
1,51,70,196
1,52,70,8
1,47,70,16
1,54,70,12
1,47,70,16
1,48,70,12
1,42,70,16
1,47,70,204
1,48,70,8
1,47,70,196
1,45,70,4
1,43,70,8
1,42,70,200
1,52,70,100
1,47,70,16
1,54,70,12
1,47,70,16
1,54,70,16
1,47,70,12
1,52,70,12
1,47,70,16
1,49,70,8
1,51,70,196
1,52,70,8
1,47,70,16
1,54,70,12
1,47,70,16
1,45,70,16
1,38,70,16
1,43,70,16
1,50,70,384
1,55,70,8
1,50,70,12
1,43,70,8
1,50,70,8
1,52,70,4
1,48,70,16
1,38,70,16
1,43,70,16
1,52,70,16
1,45,70,12
1,42,70,16
1,52,70,12
1,54,70,16
1,47,70,16
1,49,70,196
1,51,70,200
1,52,70,8
1,40,70,16
1,52,70,196
1,50,70,200
1,48,70,4
1,42,70,204
1,54,70,0
1,47,70,204
1,48,70,196
1,47,70,196
1,45,70,4
1,43,70,8
1,42,70,200
1,40,70,4
1,47,70,16
1,54,70,12
1,47,70,16
1,54,70,16
1,47,70,12
1,52,70,12
1,47,70,12
1,49,70,8
1,51,70,196
1,52,70,196
1,40,70,16
1,45,70,12
1,50,70,16
1,48,70,16
1,45,70,8
1,47,70,8
1,52,65,8
1,47,65,0
1,52,65,0
1,47,65,4
1,49,65,96
1,51,65,96
1,52,70,100
1,47,70,16
1,54,70,12
1,47,70,16
1,54,70,16
1,47,70,16
1,52,70,12
1,47,70,16
1,49,70,12
1,51,70,200
1,52,70,8
1,47,70,16
1,54,70,12
1,47,70,16
1,48,70,20
1,42,70,16
1,47,70,204
1,48,70,8
1,47,70,200
1,45,70,4
1,43,70,8
1,42,70,196
1,52,70,100
1,47,70,12
1,54,70,12
1,47,70,16
1,54,70,16
1,47,70,16
1,52,70,12
1,47,70,16
1,49,70,12
1,51,70,200
1,52,70,8
1,47,70,16
1,54,70,12
1,47,70,16
1,45,70,16
1,38,70,16
1,43,70,16
1,50,70,384
1,55,70,8
1,50,70,12
1,43,70,8
1,50,70,8
1,52,70,8
1,48,70,16
1,38,70,16
1,43,70,16
1,52,70,16
1,45,70,16
1,42,70,16
1,52,70,16
1,54,70,16
1,47,70,16
1,49,70,196
1,51,70,200
1,52,70,8
1,40,70,12
1,52,70,200
1,50,70,204
1,48,70,8
1,42,70,200
1,54,70,4
1,47,70,204
1,48,70,196
1,47,70,200
1,45,70,4
1,43,70,12
1,42,70,200
1,40,70,8
1,47,70,16
1,54,70,12
1,47,70,16
1,54,70,16
1,47,70,16
1,52,70,12
1,47,70,16
1,49,70,12
1,51,70,200
1,52,70,196
1,40,70,16
1,45,70,12
1,50,70,16
1,48,70,16
1,45,70,8
1,47,70,12
1,52,65,8
1,47,65,0
1,52,65,0
1,47,65,4
1,49,65,96
1,51,65,100
1,52,70,104
1,47,70,16
1,54,70,12
1,47,70,16
1,54,70,20
1,47,70,16
1,52,70,12
1,47,70,16
1,49,70,12
1,51,70,200
1,52,70,8
1,47,70,16
1,54,70,12
1,47,70,20
1,48,70,20
1,42,70,20
1,47,70,208
1,48,70,8
1,47,70,196
1,45,70,4
1,43,70,12
1,42,70,200
1,52,70,100
1,47,70,16
1,54,70,12
1,47,70,12
1,54,70,20
1,47,70,12
1,52,70,12
1,47,70,16
1,49,70,12
1,51,70,200
1,52,70,8
1,47,70,16
1,54,70,12
1,47,70,16
1,45,70,20
1,38,70,20
1,43,70,20
1,50,70,380
1,55,70,8
1,50,70,8
1,43,70,8
1,50,70,8
1,52,70,8
1,48,70,16
1,38,70,16
1,43,70,16
1,52,70,20
1,45,70,16
1,42,70,16
1,52,70,16
1,54,70,16
1,47,70,16
1,49,70,196
1,51,70,196
1,52,70,8
1,40,70,16
1,52,70,200
1,50,70,204
1,48,70,8
1,42,70,204
1,54,70,0
1,47,70,204
1,48,70,200
1,47,70,200
1,45,70,8
1,43,70,12
1,42,70,204
1,40,70,8
1,47,70,16
1,54,70,12
1,47,70,16
1,54,70,16
1,47,70,16
1,52,70,12
1,47,70,16
1,49,70,12
1,51,70,204
1,52,70,196
1,40,70,16
1,45,70,12
1,50,70,20
1,48,70,388
1,45,70,12
1,47,70,12
1,52,65,12
1,47,65,104
1,40,65,100
2,36,50,0
2,44,70,8
2,44,70,296
2,44,70,680
2,44,70,292
2,36,50,288
2,44,70,4
2,44,70,292
2,44,70,676
2,44,70,292
2,36,50,292
2,44,70,4
2,44,70,296
2,44,70,676
2,44,70,296
2,36,50,292
2,44,70,4
2,44,70,296
2,44,70,676
2,44,70,292
2,36,50,292
2,44,70,8
2,44,70,296
2,44,70,676
2,44,70,296
2,36,50,292
2,44,70,4
2,44,70,292
2,44,70,680
2,44,70,296
2,36,50,292
2,44,70,4
2,44,70,292
2,44,70,676
2,44,70,296
2,36,50,292
2,44,70,8
2,44,70,296
2,44,70,676
2,44,70,296
2,36,50,292
2,44,70,4
2,44,70,296
2,44,70,676
2,44,70,292
2,36,50,292
2,44,70,4
2,44,70,296
2,44,70,676
2,44,70,292
2,36,50,292
2,44,70,4
2,44,70,296
2,44,70,676
2,44,70,292
2,36,50,292
2,44,70,4
2,44,70,296
2,44,70,676
2,44,70,292
2,36,50,292
2,44,70,8
2,44,70,292
2,44,70,676
2,44,70,296
2,36,50,292
2,44,70,4
2,44,70,292
2,44,70,680
2,44,70,296
2,36,50,292
2,44,70,8
2,44,70,292
2,44,70,676
2,44,70,296
2,36,50,292
2,44,70,8
2,44,70,296
2,44,70,676
2,44,70,296
2,36,50,292
2,44,70,4
2,44,70,296
2,44,70,680
2,44,70,296
2,36,50,292
2,44,70,8
2,44,70,296
2,44,70,676
2,44,70,292
2,36,50,292
2,44,70,8
2,44,70,300
2,44,70,676
2,44,70,292
2,36,50,292
2,44,70,4
2,44,70,296
2,44,70,676
2,44,70,292
2,36,50,292
2,44,70,8
2,44,70,292
2,44,70,676
2,44,70,292
2,36,50,292
2,44,70,8
2,44,70,292
2,44,70,676
2,44,70,292
2,36,50,292
2,44,70,8
2,44,70,292
2,44,70,684
2,44,70,296
2,36,50,292
2,44,70,4
2,44,70,296
2,44,70,676
2,44,70,296
2,36,50,292
2,44,70,8
2,44,70,296
2,44,70,676
2,44,70,292
2,36,50,292
2,44,70,4
2,44,70,296
2,44,70,680
2,44,70,292
2,36,50,292
2,44,70,4
2,44,70,296
2,44,70,676
2,44,70,292
2,36,50,292
2,44,70,4
2,44,70,296
2,44,70,676
2,44,70,292
2,36,50,292
2,44,70,8
2,44,70,292
2,44,70,676
2,44,70,292
2,36,50,292
2,44,70,4
2,44,70,292
2,44,70,680
2,44,70,296
2,36,50,292
2,44,70,4
2,44,70,292
2,44,70,676
2,44,70,296
2,36,50,292
2,44,70,8
2,44,70,292
2,44,70,680
2,44,70,292
2,36,50,292
2,44,70,4
2,44,70,300
2,36,50,296
2,44,70,4
2,44,70,292
2,44,70,676
2,44,70,292
2,36,50,292
2,44,70,4
2,44,70,292
2,44,70,676
2,44,70,292
2,36,50,292
2,44,70,4
2,44,70,292
2,44,70,676
2,44,70,296
2,36,50,292
2,44,70,8
2,44,70,296
2,44,70,676
2,44,70,296
2,36,50,292
2,44,70,4
2,44,70,296
2,44,70,676
2,44,70,292
2,36,50,292
2,44,70,4
2,44,70,296
2,44,70,680
2,44,70,296
2,36,50,292
2,44,70,4
2,44,70,296
2,44,70,676
2,44,70,296
2,36,50,292
2,44,70,12
2,44,70,296
2,44,70,680
2,44,70,296
2,36,50,296
2,44,70,12
2,44,70,296
2,44,70,680
2,44,70,296
2,36,50,296
2,44,70,8
2,44,70,292
2,44,70,680
2,44,70,296
2,36,50,292
2,44,70,4
2,44,70,292
2,44,70,676
2,44,70,296
2,36,50,292
2,44,70,8
2,44,70,296
2,44,70,676
2,44,70,296
2,36,50,292
2,44,70,4
2,44,70,296
2,44,70,676
2,44,70,292
2,36,50,288
2,44,70,4
2,44,70,296
2,44,70,680
2,44,70,296
2,36,50,292
2,44,70,4
2,44,70,296
2,44,70,676
2,44,70,296
2,36,50,288
2,44,70,4
2,44,70,296
2,44,70,684
2,44,70,296
2,36,50,296
2,44,70,12
2,44,70,296
2,44,70,680
2,44,70,296
2,36,50,296
2,44,70,4
2,44,70,292
2,44,70,680
2,44,70,296
2,36,50,292
2,44,70,12
2,44,70,296
2,44,70,676
2,44,70,292
2,36,50,292
2,44,70,4
2,44,70,300
2,44,70,676
2,44,70,292
2,36,50,296
2,44,70,8
2,44,70,300
2,44,70,680
2,44,70,292
2,36,50,292
2,44,70,4
2,44,70,300
2,44,70,676
2,44,70,292
2,36,50,292
2,44,70,4
2,44,70,292
2,44,70,684
2,44,70,296
2,36,50,292
2,44,70,4
2,44,70,296
2,44,70,680
2,44,70,296
2,36,50,292
2,44,70,4
2,44,70,296
2,44,70,680
2,44,70,296
2,36,50,296
2,44,70,8
2,44,70,296
2,44,70,680
2,44,70,296
2,36,50,292
2,44,70,4
2,44,70,292
2,44,70,676
2,44,70,292
2,36,50,292
2,44,70,8
2,44,70,296
2,44,70,676
2,44,70,296
2,36,50,292
2,44,70,4
2,44,70,296
2,44,70,676
2,44,70,292
2,36,50,288
2,44,70,4
2,44,70,296
2,44,70,680
2,44,70,296
2,36,50,292
2,44,70,4
2,44,70,296
2,44,70,676
2,44,70,296
2,36,50,292
2,44,70,8
2,44,70,296
2,44,70,676
2,44,70,296
2,36,50,292
2,44,70,12
2,44,70,300
2,36,50,292
2,44,70,4
2,44,70,296
2,44,70,676
2,44,70,292
2,36,50,292
2,44,70,4
2,44,70,292
2,44,70,676
2,44,70,292
2,36,50,296
2,44,70,8
2,44,70,296
2,44,70,676
2,44,70,292
2,36,50,296
2,44,70,8
2,44,70,296
2,44,70,680
2,44,70,296
2,36,50,296
2,44,70,8
2,44,70,292
2,44,70,676
2,44,70,292
2,36,50,296
2,44,70,8
2,44,70,292
2,44,70,680
2,44,70,296
2,36,50,296
2,44,70,8
2,44,70,296
2,44,70,676
2,44,70,292
2,36,50,292
2,44,70,8
2,44,70,296
2,44,70,680
2,44,70,300
2,36,50,300
2,44,70,16
2,44,70,300
2,44,70,688
2,44,70,300
2,36,50,296
2,44,70,4
2,44,70,296
2,44,70,680
2,44,70,296
2,36,50,296
2,44,70,8
2,44,70,296
2,44,70,676
2,44,70,292
2,36,50,296
2,44,70,12
2,44,70,296
2,44,70,680
2,44,70,296
2,36,50,296
2,44,70,12
2,44,70,292
2,44,70,676
2,44,70,292
2,36,50,296
2,44,70,8
2,44,70,292
2,44,70,680
2,44,70,296
2,36,50,296
2,44,70,4
2,44,70,296
2,44,70,676
2,44,70,296
2,36,50,288
2,44,70,8
2,44,70,296
2,44,70,680
2,44,70,300
2,36,50,296
2,44,70,12
2,44,70,300
2,44,70,684
2,44,70,300
2,36,50,300
2,44,70,4
2,44,70,296
2,44,70,680
2,44,70,296
2,36,50,292
2,44,70,8
2,44,70,296
2,44,70,684
2,44,70,296
2,36,50,296
2,44,70,8
2,44,70,292
2,44,70,680
2,44,70,300
2,36,50,300
2,44,70,12
2,44,70,296
2,44,70,680
2,44,70,296
2,36,50,300
2,44,70,4
2,44,70,296
2,44,70,684
2,44,70,296
2,36,50,300
2,44,70,4
2,44,70,292
2,44,70,680
2,44,70,296
2,36,50,296
2,44,70,4
2,44,70,296
2,44,70,680
2,44,70,300
2,36,50,292
2,44,70,4
2,44,70,296
2,44,70,680
2,44,70,296
2,36,50,292
2,44,70,8
2,44,70,296
2,44,70,680
2,44,70,296
2,36,50,296
2,44,70,4
2,44,70,296
2,44,70,676
2,44,70,292
2,36,50,296
2,44,70,8
2,44,70,296
2,44,70,680
2,44,70,296
2,36,50,296
2,44,70,8
2,44,70,292
2,44,70,676
2,44,70,292
2,36,50,296
2,44,70,8
2,44,70,292
2,44,70,680
2,44,70,296
2,36,50,296
2,44,70,4
2,44,70,296
2,44,70,676
2,44,70,292
2,36,50,292
2,44,70,8
2,44,70,296
2,44,70,680
2,44,70,296
2,36,50,292
2,44,70,8
2,44,70,304
2,36,56,304
2,44,84,332
2,44,82,336
3,59,65,384
3,64,65,0
3,67,65,0
3,59,65,288
3,64,65,0
3,67,65,4
3,59,65,572
3,64,65,4
3,67,65,0
3,59,65,284
3,64,65,0
3,67,65,4
3,59,65,576
3,64,65,0
3,67,65,4
3,59,65,288
3,64,65,0
3,67,65,4
3,1,65,1052
3,59,36,484
3,64,56,0
3,67,47,0
3,59,50,292
3,64,56,0
3,67,51,0
3,59,51,576
3,64,63,0
3,67,60,4
3,59,60,292
3,64,66,0
3,67,66,0
3,59,62,580
3,63,61,0
3,66,66,0
3,59,63,284
3,63,67,4
3,66,64,0
3,59,58,576
3,63,63,0
3,66,56,4
3,59,61,288
3,63,63,0
3,66,64,4
3,59,58,576
3,63,64,0
3,66,68,0
3,59,61,284
3,63,67,4
3,66,66,0
3,59,63,576
3,63,62,0
3,66,67,4
3,59,60,292
3,63,66,0
3,66,66,0
3,59,57,576
3,64,66,0
3,67,66,0
3,59,60,288
3,64,66,0
3,67,62,0
3,59,62,576
3,64,67,0
3,67,67,4
3,59,64,288
3,64,67,0
3,67,64,4
3,59,57,572
3,64,68,4
3,67,58,0
3,59,56,292
3,64,63,0
3,67,56,0
3,59,58,576
3,64,66,4
3,67,57,0
3,59,60,288
3,64,63,4
3,67,58,0
3,59,64,580
3,63,67,0
3,66,56,0
3,59,58,292
3,63,64,0
3,66,62,0
3,59,58,576
3,63,69,0
3,66,69,4
3,59,58,284
3,63,58,4
3,66,66,0
3,57,60,580
3,60,66,0
3,64,64,0
3,57,64,292
3,60,66,0
3,64,66,0
3,57,66,484
3,60,69,0
3,64,68,0
3,57,69,288
3,60,87,0
3,64,73,0
3,59,64,480
3,63,66,0
3,66,67,4
3,59,66,288
3,63,66,0
3,66,67,4
3,59,66,480
3,63,67,4
3,66,68,0
3,59,57,288
3,63,67,4
3,66,69,0
3,59,55,484
3,64,60,0
3,67,55,0
3,59,58,292
3,64,66,0
3,67,63,0
3,59,58,576
3,64,64,0
3,67,58,4
3,59,64,292
3,64,63,0
3,67,62,0
3,59,57,580
3,63,58,0
3,66,57,0
3,59,57,284
3,63,63,4
3,66,64,0
3,59,61,576
3,63,61,0
3,66,61,4
3,59,58,288
3,63,63,0
3,66,68,4
3,59,53,580
3,63,57,0
3,66,58,0
3,59,47,284
3,63,61,4
3,66,58,0
3,59,63,576
3,63,66,0
3,66,62,4
3,59,57,292
3,63,66,0
3,66,66,0
3,59,51,580
3,64,68,0
3,67,56,0
3,59,61,288
3,64,68,0
3,67,66,0
3,59,62,576
3,64,71,0
3,67,66,4
3,59,61,288
3,64,69,0
3,67,67,4
3,59,61,576
3,64,63,4
3,67,57,0
3,59,67,292
3,64,71,0
3,67,66,0
3,59,57,576
3,64,66,4
3,67,66,0
3,59,60,288
3,64,67,4
3,67,66,0
3,59,56,580
3,63,60,0
3,66,67,0
3,59,43,292
3,63,57,0
3,66,64,0
3,59,64,576
3,63,64,4
3,66,66,0
3,59,66,284
3,63,63,4
3,66,64,0
3,60,69,576
3,64,73,0
3,69,79,0
3,60,69,292
3,64,84,0
3,69,84,0
3,60,79,480
3,62,87,0
3,66,71,0
3,69,82,0
3,60,71,284
3,62,95,4
3,66,71,0
3,69,76,0
3,62,79,476
3,67,84,0
3,71,84,4
3,62,73,288
3,67,82,0
3,71,82,4
3,62,82,484
3,67,82,4
3,71,82,0
3,62,76,288
3,67,84,4
3,71,87,0
3,62,64,484
3,64,68,0
3,68,64,0
3,71,66,0
3,62,82,192
3,64,87,0
3,68,76,0
3,71,82,0
3,60,76,480
3,64,79,0
3,69,73,4
3,60,79,188
3,64,84,4
3,69,82,0
3,60,73,488
3,66,68,0
