track,note,velocity,time
4,62,110,4608
4,62,110,64
4,61,110,4
4,61,110,64
4,59,110,4
4,59,110,64
4,61,110,4
4,59,110,4
4,61,110,4
4,62,110,4
4,62,110,64
4,61,110,4
4,62,110,4
4,61,110,4
4,59,110,4
4,66,110,64
4,62,110,256
4,62,110,64
4,66,110,0
4,61,110,4
4,61,110,64
4,66,110,0
4,59,110,4
4,59,110,64
4,61,110,4
4,59,110,4
4,61,110,4
4,62,110,4
4,62,110,64
4,61,110,4
4,62,110,4
4,61,110,4
4,59,110,4
4,66,110,64
4,67,110,256
4,67,110,64
4,66,110,4
4,66,110,64
4,64,110,4
4,64,110,64
4,66,110,4
4,64,110,4
4,66,110,4
4,67,110,4
4,67,110,64
4,66,110,4
4,67,110,4
4,66,110,4
4,64,110,4
4,71,110,64
4,67,110,256
4,67,110,64
4,66,110,4
4,66,110,64
4,64,110,4
4,64,110,64
4,66,110,4
4,64,110,4
4,66,110,4
4,67,110,4
4,71,110,196
4,71,110,4
4,69,110,4
4,67,110,4
4,66,110,4
4,64,110,64
4,62,110,64
4,67,110,64
4,67,110,4
4,66,110,4
4,64,110,4
4,62,110,4
4,61,110,96
4,59,110,96
4,62,110,964
4,62,110,64
4,61,110,4
4,61,110,64
4,59,110,4
4,59,110,64
4,61,110,4
4,59,110,4
4,61,110,4
4,62,110,4
4,62,110,64
4,61,110,4
4,62,110,4
4,61,110,4
4,59,110,4
4,66,110,64
4,62,110,256
4,62,110,64
4,66,110,0
4,61,110,4
4,61,110,64
4,66,110,0
4,59,110,4
4,59,110,64
4,61,110,4
4,59,110,4
4,61,110,4
4,62,110,4
4,62,110,64
4,61,110,4
4,62,110,4
4,61,110,4
4,59,110,4
4,66,110,64
4,67,110,256
4,67,110,64
4,66,110,4
4,66,110,64
4,64,110,4
4,64,110,64
4,66,110,4
4,64,110,4
4,66,110,4
4,67,110,4
4,67,110,64
4,66,110,4
4,67,110,4
4,66,110,4
4,64,110,4
4,71,110,64
4,67,110,256
4,67,110,64
4,66,110,4
4,66,110,64
4,64,110,4
4,64,110,64
4,66,110,4
4,64,110,4
4,66,110,4
4,67,110,4
4,71,110,196
4,71,110,4
4,69,110,4
4,67,110,4
4,66,110,4
4,64,110,64
4,62,110,64
4,67,110,64
4,67,110,4
4,66,110,4
4,64,110,4
4,62,110,4
4,61,110,96
4,59,110,96
4,62,110,964
4,62,110,64
4,61,110,4
4,61,110,64
4,59,110,4
4,59,110,64
4,61,110,4
4,59,110,4
4,61,110,4
4,62,110,4
4,62,110,64
4,61,110,4
4,62,110,4
4,61,110,4
4,59,110,4
4,66,110,64
4,62,110,256
4,62,110,64
4,66,110,0
4,61,110,4
4,61,110,64
4,66,110,0
4,59,110,4
4,59,110,64
4,61,110,4
4,59,110,4
4,61,110,4
4,62,110,4
4,62,110,64
4,61,110,4
4,62,110,4
4,61,110,4
4,59,110,4
4,66,110,64
4,67,110,256
4,67,110,64
4,66,110,4
4,66,110,64
4,64,110,4
4,64,110,64
4,66,110,4
4,64,110,4
4,66,110,4
4,67,110,4
4,67,110,64
4,66,110,4
4,67,110,4
4,66,110,4
4,64,110,4
4,71,110,64
4,67,110,256
4,67,110,64
4,66,110,4
4,66,110,64
4,64,110,4
4,64,110,64
4,66,110,4
4,64,110,4
4,66,110,4
4,67,110,4
4,71,110,196
4,71,110,4
4,69,110,4
4,67,110,4
4,66,110,4
4,64,110,64
4,62,110,64
4,67,110,64
4,67,110,4
4,66,110,4
4,64,110,4
4,62,110,4
4,61,110,96
4,59,110,96
4,62,110,964
4,62,110,64
4,61,110,4
4,61,110,64
4,59,110,4
4,59,110,64
4,61,110,4
4,59,110,4
4,61,110,4
4,62,110,4
4,62,110,64
4,61,110,4
4,62,110,4
4,61,110,4
4,59,110,4
4,66,110,64
4,62,110,256
4,62,110,64
4,66,110,0
4,61,110,4
4,61,110,64
4,66,110,0
4,59,110,4
4,59,110,64
4,61,110,4
4,59,110,4
4,61,110,4
4,62,110,4
4,62,110,64
4,61,110,4
4,62,110,4
4,61,110,4
4,59,110,4
4,66,110,64
4,67,110,256
4,67,110,64
4,66,110,4
4,66,110,64
4,64,110,4
4,64,110,64
4,66,110,4
4,64,110,4
4,66,110,4
4,67,110,4
4,67,110,64
4,66,110,4
4,67,110,4
4,66,110,4
4,64,110,4
4,71,110,64
4,67,110,256
4,67,110,64
4,66,110,4
4,66,110,64
4,64,110,4
4,64,110,64
4,66,110,4
4,64,110,4
4,66,110,4
4,67,110,4
4,71,110,196
4,71,110,4
4,69,110,4
4,67,110,4
4,66,110,4
4,64,110,64
4,62,110,64
4,67,110,64
4,67,110,4
4,66,110,4
4,64,110,4
4,62,110,4
4,61,110,96
4,59,110,96
4,62,110,964
4,62,110,64
4,61,110,4
4,61,110,64
4,59,110,4
4,59,110,64
4,61,110,4
4,59,110,4
4,61,110,4
4,62,110,4
4,62,110,64
4,61,110,4
4,62,110,4
4,61,110,4
4,59,110,4
4,66,110,64
4,62,110,256
4,62,110,64
4,66,110,0
4,61,110,4
4,61,110,64
4,66,110,0
4,59,110,4
4,59,110,64
4,61,110,4
4,59,110,4
4,61,110,4
4,62,110,4
4,62,110,64
4,61,110,4
4,62,110,4
4,61,110,4
4,59,110,4
4,66,110,64
4,67,110,256
4,67,110,64
4,66,110,4
4,66,110,64
4,64,110,4
4,64,110,64
4,66,110,4
4,64,110,4
4,66,110,4
4,67,110,4
4,67,110,64
4,66,110,4
4,67,110,4
4,66,110,4
4,64,110,4
4,71,110,64
4,67,110,256
4,67,110,64
4,66,110,4
4,66,110,64
4,64,110,4
4,64,110,64
4,66,110,4
4,64,110,4
4,66,110,4
4,67,110,4
4,71,110,196
4,71,110,4
4,69,110,4
4,67,110,4
4,66,110,4
4,64,110,64
4,62,110,64
4,67,110,64
4,67,110,4
4,66,110,4
4,64,110,4
4,62,110,4
4,61,110,96
4,59,110,96
4,62,110,964
4,62,110,64
4,61,110,4
4,61,110,64
4,59,110,4
4,59,110,64
4,61,110,4
4,59,110,4
4,61,110,4
4,62,110,4
4,62,110,64
4,61,110,4
4,62,110,4
4,61,110,4
4,59,110,4
4,66,110,64
4,62,110,256
4,62,110,64
4,66,110,0
4,61,110,4
4,61,110,64
4,66,110,0
4,59,110,4
4,59,110,64
4,61,110,4
4,59,110,4
4,61,110,4
4,62,110,4
4,62,110,64
4,61,110,4
4,62,110,4
4,61,110,4
4,59,110,4
4,66,110,64
4,67,110,256
4,67,110,64
4,66,110,4
4,66,110,64
4,64,110,4
4,64,110,64
4,66,110,4
4,64,110,4
4,66,110,4
4,67,110,4
4,67,110,64
4,66,110,4
4,67,110,4
4,66,110,4
4,64,110,4
4,71,110,64
4,67,110,256
4,67,110,64
4,66,110,4
4,66,110,64
4,64,110,4
4,64,110,64
4,66,110,4
4,64,110,4
4,66,110,4
4,67,110,4
4,71,110,196
4,71,110,4
4,69,110,4
4,67,110,4
4,66,110,4
4,64,110,64
4,62,110,64
4,67,110,64
4,67,110,4
4,66,110,4
4,64,110,4
4,62,110,4
4,61,110,96
4,59,110,96
4,62,110,964
4,62,110,64
4,61,110,4
4,61,110,64
4,59,110,4
4,59,110,64
4,61,110,4
4,59,110,4
4,61,110,4
4,62,110,4
4,62,110,64
4,61,110,4
4,62,110,4
4,61,110,4
4,59,110,4
4,66,110,64
4,62,110,256
4,62,110,64
4,66,110,0
4,61,110,4
4,61,110,64
4,66,110,0
4,59,110,4
4,59,110,64
4,61,110,4
4,59,110,4
4,61,110,4
4,62,110,4
4,62,110,64
4,61,110,4
4,62,110,4
4,61,110,4
4,59,110,4
4,66,110,64
4,67,110,256
4,67,110,64
4,66,110,4
4,66,110,64
4,64,110,4
4,64,110,64
4,66,110,4
4,64,110,4
4,66,110,4
4,67,110,4
4,67,110,64
4,66,110,4
4,67,110,4
4,66,110,4
4,64,110,4
4,71,110,64
4,67,110,256
4,67,110,64
4,66,110,4
4,66,110,64
4,64,110,4
4,64,110,64
4,66,110,4
4,64,110,4
4,66,110,4
4,67,110,4
4,71,110,196
4,71,110,4
4,69,110,4
4,67,110,4
4,66,110,4
4,64,110,64
4,62,110,64
4,67,110,64
4,67,110,4
4,66,110,4
4,64,110,4
4,62,110,4
4,61,110,96
4,59,110,96
4,62,110,964
4,62,110,64
4,61,110,4
4,61,110,64
4,59,110,4
4,59,110,64
4,61,110,4
4,59,110,4
4,61,110,4
4,62,110,4
4,62,110,64
4,61,110,4
4,62,110,4
4,61,110,4
4,59,110,4
4,66,110,64
4,62,110,256
4,62,110,64
4,66,110,0
4,61,110,4
4,61,110,64
4,66,110,0
4,59,110,4
4,59,110,64
4,61,110,4
4,59,110,4
4,61,110,4
4,62,110,4
4,62,110,64
4,61,110,4
4,62,110,4
4,61,110,4
4,59,110,4
4,66,110,64
4,67,110,256
4,67,110,64
4,66,110,4
4,66,110,64
4,64,110,4
4,64,110,64
4,66,110,4
4,64,110,4
4,66,110,4
4,67,110,4
4,67,110,64
4,66,110,4
4,67,110,4
4,66,110,4
4,64,110,4
4,71,110,64
4,67,110,256
4,67,110,64
4,66,110,4
4,66,110,64
4,64,110,4
4,64,110,64
4,66,110,4
4,64,110,4
4,66,110,4
4,67,110,4
4,71,110,196
4,71,110,4
4,69,110,4
4,67,110,4
4,66,110,4
4,64,110,64
4,62,110,64
4,67,110,64
4,67,110,4
4,66,110,4
4,64,110,4
4,62,110,4
4,61,110,96
4,59,110,96
4,62,110,964
4,62,110,64
4,61,110,4
4,61,110,64
4,59,110,4
4,59,110,64
4,61,110,4
4,59,110,4
4,61,110,4
4,62,110,4
4,62,110,64
4,61,110,4
4,62,110,4
4,61,110,4
4,59,110,4
4,66,110,64
4,62,110,256
4,62,110,64
4,66,110,0
4,61,110,4
4,61,110,64
4,66,110,0
4,59,110,4
4,59,110,64
4,61,110,4
4,59,110,4
4,61,110,4
4,62,110,4
4,62,110,64
4,61,110,4
4,62,110,4
4,61,110,4
4,59,110,4
4,66,110,64
4,67,110,256
4,67,110,64
4,66,110,4
4,66,110,64
4,64,110,4
4,64,110,64
4,66,110,4
4,64,110,4
4,66,110,4
4,67,110,4
4,67,110,64
4,66,110,4
4,67,110,4
4,66,110,4
4,64,110,4
4,71,110,64
4,67,110,256
4,67,110,64
4,66,110,4
4,66,110,64
4,64,110,4
4,64,110,64
4,66,110,4
4,64,110,4
4,66,110,4
4,67,110,4
4,71,110,196
4,71,110,4
4,69,110,4
4,67,110,4
4,66,110,4
4,64,110,64
4,62,110,64
4,67,110,64
4,67,110,4
4,66,110,4
4,64,110,4
4,62,110,4
4,61,110,96
4,59,110,96
5,59,110,0
5,62,110,0
5,66,110,0
5,71,110,0
5,62,110,64
5,66,110,0
5,62,110,4
5,66,110,0
5,62,110,64
5,66,110,0
5,62,110,4
5,66,110,0
5,62,110,64
5,66,110,0
5,62,110,4
5,66,110,0
5,62,110,64
5,66,110,0
5,62,110,4
5,66,110,0
5,62,110,64
5,66,110,0
5,62,110,4
5,66,110,0
5,62,110,64
5,66,110,0
5,62,110,4
5,66,110,0
5,62,110,64
5,66,110,0
5,62,110,4
5,66,110,0
5,62,110,64
5,66,110,0
5,54,110,4
5,59,110,0
5,62,110,0
5,54,110,64
5,59,110,0
5,62,110,0
5,52,110,4
5,58,110,0
5,61,110,0
5,52,110,64
5,58,110,0
5,61,110,0
5,50,110,4
5,54,110,0
5,59,110,0
5,50,110,64
5,54,110,0
5,59,110,0
5,52,110,4
5,58,110,0
5,61,110,0
5,59,110,4
5,52,110,4
5,58,110,0
5,61,110,0
5,54,110,4
5,59,110,0
5,62,110,0
5,54,110,64
5,59,110,0
5,62,110,0
5,52,110,4
5,58,110,0
5,61,110,0
5,62,110,4
5,52,110,4
5,58,110,0
5,61,110,0
5,50,110,4
5,54,110,0
5,59,110,0
5,50,110,64
5,54,110,0
5,58,110,4
5,64,110,0
5,66,110,0
5,58,110,64
5,64,110,0
5,54,110,4
5,59,110,0
5,62,110,0
5,54,110,64
5,59,110,0
5,62,110,0
5,52,110,4
5,58,110,0
5,61,110,0
5,52,110,64
5,58,110,0
5,61,110,0
5,50,110,4
5,54,110,0
5,59,110,0
5,50,110,64
5,54,110,0
5,59,110,0
5,52,110,4
5,58,110,0
5,61,110,0
5,59,110,4
5,52,110,4
5,58,110,0
5,61,110,0
5,54,110,4
5,59,110,0
5,62,110,0
5,54,110,64
5,59,110,0
5,62,110,0
5,52,110,4
5,58,110,0
5,61,110,0
5,62,110,4
5,52,110,4
5,58,110,0
5,61,110,0
5,50,110,4
5,54,110,0
5,59,110,0
5,50,110,64
5,54,110,0
5,59,110,4
5,63,110,0
5,66,110,0
5,59,110,64
5,63,110,0
5,59,110,4
5,64,110,0
5,67,110,0
5,59,110,64
5,64,110,0
5,67,110,0
5,57,110,4
5,63,110,0
5,66,110,0
5,57,110,64
5,63,110,0
5,66,110,0
5,55,110,4
5,59,110,0
5,64,110,0
5,55,110,64
5,59,110,0
5,64,110,0
5,57,110,4
5,63,110,0
5,66,110,0
5,64,110,4
5,57,110,4
5,63,110,0
5,66,110,0
5,59,110,4
5,64,110,0
5,67,110,0
5,59,110,64
5,64,110,0
5,67,110,0
5,57,110,4
5,63,110,0
5,66,110,0
5,67,110,4
5,57,110,4
5,63,110,0
5,66,110,0
5,55,110,4
5,59,110,0
5,64,110,0
5,55,110,64
5,59,110,0
5,64,110,4
5,67,110,0
5,71,110,0
5,64,110,64
5,67,110,0
5,59,110,4
5,64,110,0
5,67,110,0
5,59,110,64
5,64,110,0
5,67,110,0
5,57,110,4
5,63,110,0
5,66,110,0
5,57,110,64
5,63,110,0
5,66,110,0
5,55,110,4
5,59,110,0
5,64,110,0
5,55,110,64
5,59,110,0
5,64,110,0
5,55,110,4
5,59,110,0
5,66,110,0
5,64,110,4
5,55,110,4
5,59,110,0
5,66,110,0
5,58,110,4
5,61,110,0
5,64,110,0
5,67,110,0
5,58,110,64
5,61,110,0
5,64,110,0
5,58,110,4
5,61,110,0
5,64,110,0
5,58,110,4
5,61,110,0
5,64,110,0
5,58,110,4
5,61,110,0
5,64,110,0
5,58,110,4
5,61,110,0
5,64,110,0
5,71,110,196
5,71,110,4
5,69,110,4
5,67,110,4
5,57,110,4
5,62,110,0
5,66,110,0
5,54,110,64
5,58,110,0
5,61,110,0
5,64,110,0
5,54,110,64
5,59,110,0
5,62,110,0
5,67,110,64
5,59,110,4
5,62,110,0
5,67,110,0
5,66,110,4
5,64,110,4
5,55,110,4
5,59,110,0
5,62,110,0
5,55,110,64
5,59,110,0
5,62,110,0
5,55,110,4
5,59,110,0
5,62,110,0
5,55,110,64
5,59,110,0
5,62,110,0
5,52,110,4
5,58,110,0
5,61,110,0
5,52,110,64
5,58,110,0
5,61,110,0
5,52,110,4
5,58,110,0
5,61,110,0
5,52,110,64
5,58,110,0
5,61,110,0
5,50,110,4
5,54,110,0
5,59,110,0
5,50,110,64
5,54,110,0
5,50,110,4
5,54,110,0
5,50,110,64
5,54,110,0
5,50,110,4
5,54,110,0
5,54,110,4
5,55,110,4
5,56,110,4
5,57,110,4
5,58,110,4
5,54,110,4
5,59,110,0
5,62,110,0
5,54,110,64
5,59,110,0
5,62,110,0
5,52,110,4
5,58,110,0
5,61,110,0
5,52,110,64
5,58,110,0
5,61,110,0
5,50,110,4
5,54,110,0
5,59,110,0
5,50,110,64
5,54,110,0
5,59,110,0
5,52,110,4
5,58,110,0
5,61,110,0
5,59,110,4
5,52,110,4
5,58,110,0
5,61,110,0
5,54,110,4
5,59,110,0
5,62,110,0
5,54,110,64
5,59,110,0
5,62,110,0
5,52,110,4
5,58,110,0
5,61,110,0
5,62,110,4
5,52,110,4
5,58,110,0
5,61,110,0
5,50,110,4
5,54,110,0
5,59,110,0
5,50,110,64
5,54,110,0
5,58,110,4
5,64,110,0
5,66,110,0
5,58,110,64
5,64,110,0
5,54,110,4
5,59,110,0
5,62,110,0
5,54,110,64
