track,note,velocity,time
3,65,110,0
3,65,0,62
3,65,110,2
3,65,0,62
3,65,110,2
3,65,0,62
3,60,110,2
3,60,0,94
3,65,110,2
3,65,0,94
3,67,110,2
3,67,0,160
3,65,110,32
3,65,0,94
3,67,110,2
3,67,0,94
3,69,110,2
3,69,0,160
3,65,110,32
3,65,0,94
3,69,110,2
3,69,0,94
3,70,110,2
3,70,0,336
3,61,110,48
3,61,0,62
3,61,110,2
3,61,0,62
3,61,110,2
3,61,0,62
3,72,110,2
3,72,0,94
3,70,110,2
3,70,0,94
3,69,110,2
3,69,0,160
3,72,110,32
3,72,0,94
3,69,110,2
3,69,0,94
3,55,110,2
3,55,0,126
3,59,110,2
3,59,0,126
3,62,110,2
3,62,0,126
3,65,110,2
3,65,0,160
3,64,110,32
3,64,0,94
3,72,110,2
3,72,0,94
3,65,110,2
3,65,0,94
3,65,110,2
3,65,0,94
3,60,110,2
3,60,0,94
3,65,110,2
3,65,0,94
3,67,110,2
3,67,0,160
3,72,110,32
3,72,0,94
3,70,110,2
3,70,0,94
3,69,110,2
3,69,0,126
3,74,110,2
3,74,0,126
3,72,110,2
3,72,0,126
3,70,110,2
3,70,0,336
3,61,110,48
3,61,0,62
3,61,110,2
3,61,0,62
3,61,110,2
3,61,0,62
3,72,110,2
3,72,0,94
3,70,110,2
3,70,0,94
3,69,110,2
3,69,0,94
3,65,110,2
3,65,0,94
3,69,110,2
3,69,0,94
3,65,110,2
3,65,0,94
3,62,110,2
3,62,0,160
3,64,110,32
3,64,0,160
3,65,110,32
3,65,0,352
3,62,110,2496
3,62,0,160
3,64,110,32
3,64,0,160
3,65,110,32
3,65,0,160
3,67,110,32
3,67,0,336
3,65,110,48
3,65,0,160
3,64,110,32
3,64,0,352
3,57,110,32
3,57,0,160
3,61,110,32
3,61,0,160
3,64,110,32
3,64,0,160
3,67,110,32
3,67,0,336
3,65,110,48
3,65,0,160
3,64,110,32
3,64,0,352
3,57,110,32
3,57,0,160
3,61,110,32
3,61,0,160
3,64,110,32
3,64,0,160
3,67,110,32
3,67,0,336
3,69,110,48
3,69,0,160
3,70,110,32
3,69,0,352
3,72,110,32
3,72,0,160
3,70,110,32
3,70,0,160
3,69,110,32
3,69,0,160
3,67,110,32
3,67,0,336
3,65,110,48
3,65,0,160
3,64,110,32
3,64,0,352
3,69,110,32
3,69,0,160
3,70,110,32
3,70,0,160
3,69,110,32
3,69,0,160
3,64,110,32
3,64,0,336
3,62,110,48
3,62,0,160
3,60,110,32
3,60,0,352
3,57,110,32
3,57,0,160
3,59,110,32
3,59,0,160
3,60,110,32
3,60,0,160
3,64,110,32
3,64,0,336
3,62,110,48
3,62,0,336
3,60,110,48
3,57,110,384
3,57,0,336
3,60,0,0
3,60,110,48
3,60,0,160
3,60,110,32
3,60,0,94
3,60,110,2
3,60,0,94
3,57,110,2
3,57,0,160
3,60,110,32
3,60,0,160
3,64,110,32
3,57,110,192
3,57,0,160
3,64,0,0
3,60,110,32
3,60,0,160
3,64,110,32
3,64,0,160
3,67,110,32
3,67,0,528
3,69,110,48
3,69,0,160
3,64,110,32
3,64,0,336
3,60,110,48
3,60,0,336
3,60,110,48
3,60,0,160
3,60,110,32
3,60,0,94
3,60,110,2
3,60,0,94
3,57,110,2
3,57,0,160
3,60,110,32
3,60,0,160
3,64,110,32
3,64,0,160
3,57,110,32
3,57,0,160
3,60,110,32
3,60,0,160
3,64,110,32
3,64,0,160
3,67,110,32
3,67,0,528
3,64,110,48
3,64,0,160
3,60,110,32
3,60,0,160
3,64,110,32
3,64,0,160
3,65,110,32
3,65,0,160
3,66,110,32
3,66,0,160
3,67,110,32
3,67,0,336
3,65,110,48
3,65,0,160
3,64,110,32
3,64,0,352
3,57,110,32
3,57,0,160
3,61,110,32
3,61,0,160
3,64,110,32
3,64,0,160
3,67,110,32
3,67,0,336
3,65,110,48
3,65,0,160
3,64,110,32
3,64,0,352
3,57,110,32
3,57,0,160
3,61,110,32
3,61,0,160
3,64,110,32
3,64,0,160
3,67,110,32
3,67,0,336
3,69,110,48
3,69,0,160
3,70,110,32
3,69,0,352
3,72,110,32
3,72,0,160
3,70,110,32
3,70,0,160
3,69,110,32
3,69,0,160
3,67,110,32
3,67,0,336
3,65,110,48
3,65,0,160
3,64,110,32
3,64,0,352
3,69,110,32
3,69,0,160
3,70,110,32
3,70,0,160
3,69,110,32
3,69,0,160
3,64,110,32
3,64,0,336
3,62,110,48
3,62,0,160
3,60,110,32
3,60,0,352
3,57,110,32
3,57,0,160
3,59,110,32
3,59,0,160
3,57,110,32
3,57,0,160
3,64,110,32
3,64,0,336
3,62,110,48
3,62,0,160
3,60,110,32
3,60,0,736
3,60,110,224
3,60,0,160
3,60,110,32
3,60,0,94
3,60,110,2
3,60,0,94
3,57,110,2
3,57,0,160
3,60,110,32
3,60,0,160
3,64,110,32
3,64,0,336
3,60,110,48
3,60,0,160
3,64,110,32
3,64,0,160
3,67,110,32
3,67,0,160
3,69,110,32
3,69,0,160
3,72,110,32
3,72,0,160
3,64,110,32
3,64,0,736
3,60,110,224
3,60,0,160
3,60,110,32
3,60,0,94
3,60,110,2
3,60,0,94
3,57,110,2
3,57,0,160
3,60,110,32
3,60,0,160
3,64,110,32
3,64,0,336
3,60,110,48
3,60,0,160
3,64,110,32
3,64,0,160
3,67,110,32
3,67,0,336
3,64,110,48
3,64,0,160
3,62,110,32
3,62,0,160
3,60,110,32
3,60,0,1104
3,60,110,240
3,60,0,160
3,65,110,0
3,65,0,160
3,65,110,32
3,65,0,160
3,60,110,32
3,60,0,160
3,65,110,32
3,65,0,160
3,67,110,32
3,67,0,336
3,65,110,48
3,65,0,160
3,67,110,32
3,67,0,160
3,69,110,32
3,69,0,336
3,65,110,48
3,65,0,160
3,69,110,32
3,69,0,160
3,70,110,32
3,70,0,528
3,61,110,48
3,61,0,160
3,61,110,32
3,61,0,160
3,61,110,32
3,61,0,160
3,72,110,32
3,72,0,160
3,70,110,32
3,70,0,160
3,69,110,32
3,69,0,336
3,72,110,48
3,72,0,160
3,69,110,32
3,69,0,160
3,55,110,32
3,55,0,336
3,59,110,48
3,59,0,160
3,62,110,32
3,62,0,160
3,65,110,32
3,65,0,160
3,64,110,32
3,64,0,160
3,72,110,224
3,72,0,160
3,65,110,32
3,65,0,160
3,65,110,32
3,65,0,160
3,60,110,32
3,60,0,160
3,65,110,32
3,65,0,160
3,67,110,32
3,67,0,336
3,72,110,48
3,72,0,160
3,70,110,32
3,70,0,160
3,69,110,32
3,69,0,336
3,74,110,48
3,74,0,160
3,72,110,32
3,72,0,160
3,70,110,32
3,70,0,528
3,61,110,240
3,61,0,126
3,61,110,2
3,61,0,126
3,61,110,2
3,61,0,126
3,72,110,2
3,72,0,160
3,70,110,32
3,70,0,160
3,69,110,32
3,69,0,126
3,72,110,2
3,72,0,126
3,69,110,2
3,69,0,126
3,59,110,2
3,59,0,126
3,62,110,2
3,62,0,126
3,65,110,2
3,65,0,126
3,69,110,2
3,69,0,336
3,67,110,48
3,67,0,336
3,65,110,48
3,65,0,336
3,64,110,0
3,64,0,160
3,64,110,32
3,64,0,94
3,64,110,2
3,64,0,94
3,64,110,2
3,64,0,160
3,65,110,32
3,65,0,160
3,67,110,32
3,67,0,336
3,64,110,48
3,64,0,336
3,67,110,48
3,67,0,160
3,67,110,32
3,67,0,94
3,67,110,2
3,67,0,94
3,67,110,2
3,67,0,160
3,69,110,32
3,69,0,160
3,70,110,32
3,70,0,336
3,67,110,48
3,67,0,336
3,70,110,48
3,70,0,160
3,70,110,32
3,70,0,94
3,70,110,2
3,70,0,94
3,70,110,2
3,70,0,160
3,74,110,32
3,74,0,160
3,72,110,32
3,72,0,336
3,68,110,48
3,68,0,336
3,69,110,48
3,69,0,1104
3,65,110,432
3,65,0,126
3,69,110,2
3,69,0,126
3,72,110,2
3,72,0,126
3,76,110,2
3,76,0,160
3,74,110,32
3,74,0,160
3,71,110,32
3,71,0,160
3,67,110,32
3,67,0,160
3,64,110,32
3,64,0,336
3,62,110,48
3,62,0,126
3,65,110,2
3,65,0,126
3,69,110,2
3,69,0,126
3,72,110,2
3,72,0,160
3,71,110,32
3,71,0,160
3,67,110,32
3,67,0,160
3,64,110,32
3,64,0,160
3,61,110,32
3,61,0,336
3,60,110,48
3,60,0,160
3,60,110,32
3,60,0,94
3,60,110,2
3,60,0,94
3,60,110,2
3,60,0,544
3,57,110,32
3,57,0,160
3,60,110,32
3,60,0,160
3,62,110,32
3,62,0,160
3,64,110,32
3,64,0,1296
3,60,110,240
3,60,0,160
3,60,110,32
3,60,0,94
3,60,110,2
3,60,0,94
3,60,110,2
3,60,0,544
3,57,110,32
3,57,0,160
3,60,110,32
3,60,0,160
3,62,110,32
3,62,0,160
3,60,110,32
3,60,0,862
3,62,110,98
3,62,0,160
3,64,110,32
3,64,0,160
3,65,110,32
3,65,0,160
3,67,110,32
3,67,0,336
3,65,110,48
3,65,0,160
3,64,110,32
3,64,0,352
3,57,110,32
3,57,0,160
3,61,110,32
3,61,0,160
3,64,110,32
3,64,0,160
3,67,110,32
3,67,0,336
3,65,110,48
3,65,0,160
3,64,110,32
3,64,0,352
3,57,110,32
3,57,0,160
3,61,110,32
3,61,0,160
3,64,110,32
3,64,0,160
3,67,110,32
3,67,0,336
3,69,110,48
3,69,0,160
3,70,110,32
3,69,0,352
3,72,110,32
3,72,0,160
3,70,110,32
3,70,0,160
3,69,110,32
3,69,0,160
3,67,110,32
3,67,0,336
3,65,110,48
3,65,0,160
3,64,110,32
3,64,0,352
3,69,110,32
3,69,0,160
3,70,110,32
3,70,0,160
3,69,110,32
3,69,0,160
3,64,110,32
3,64,0,336
3,62,110,48
3,62,0,160
3,60,110,32
3,60,0,352
3,57,110,32
3,57,0,160
3,59,110,32
3,59,0,160
3,60,110,32
3,60,0,160
3,64,110,32
3,64,0,336
3,62,110,48
3,62,0,336
3,60,110,48
3,57,110,384
3,57,0,336
3,60,0,0
3,60,110,48
3,60,0,160
3,60,110,32
3,60,0,94
3,60,110,2
3,60,0,94
3,57,110,2
3,57,0,160
3,60,110,32
3,60,0,160
3,64,110,32
3,57,110,192
3,57,0,160
3,64,0,0
3,60,110,32
3,60,0,160
3,64,110,32
3,64,0,160
3,67,110,32
3,67,0,528
3,69,110,48
3,69,0,160
3,64,110,32
3,64,0,336
3,60,110,48
3,60,0,336
3,60,110,48
3,60,0,160
3,60,110,32
3,60,0,94
3,60,110,2
3,60,0,94
3,57,110,2
3,57,0,160
3,60,110,32
3,60,0,160
3,64,110,32
3,64,0,160
3,57,110,32
3,57,0,160
3,60,110,32
3,60,0,160
3,64,110,32
3,64,0,160
3,67,110,32
3,67,0,528
3,64,110,48
3,64,0,160
3,60,110,32
3,60,0,160
3,64,110,32
3,64,0,160
3,65,110,32
3,65,0,160
3,66,110,32
3,66,0,160
3,67,110,32
3,67,0,336
3,65,110,48
3,65,0,160
3,64,110,32
3,64,0,352
3,57,110,32
3,57,0,160
3,61,110,32
3,61,0,160
3,64,110,32
3,64,0,160
3,67,110,32
3,67,0,336
3,65,110,48
3,65,0,160
3,64,110,32
3,64,0,352
3,57,110,32
3,57,0,160
3,61,110,32
3,61,0,160
3,64,110,32
3,64,0,160
3,67,110,32
3,67,0,336
3,69,110,48
3,69,0,160
3,70,110,32
3,69,0,352
3,72,110,32
3,72,0,160
3,70,110,32
3,70,0,160
3,69,110,32
3,69,0,160
3,67,110,32
3,67,0,336
3,65,110,48
3,65,0,160
3,64,110,32
3,64,0,352
3,69,110,32
3,69,0,160
3,70,110,32
3,70,0,160
3,69,110,32
3,69,0,160
3,64,110,32
3,64,0,336
3,62,110,48
3,62,0,160
3,60,110,32
3,60,0,352
3,57,110,32
3,57,0,160
3,59,110,32
3,59,0,160
3,57,110,32
3,57,0,160
3,64,110,32
3,64,0,336
3,62,110,48
3,62,0,160
3,60,110,32
3,60,0,736
3,60,110,224
3,60,0,160
3,60,110,32
3,60,0,94
3,60,110,2
3,60,0,94
3,57,110,2
3,57,0,160
3,60,110,32
3,60,0,160
3,64,110,32
3,64,0,336
3,60,110,48
3,60,0,160
3,64,110,32
3,64,0,160
3,67,110,32
3,67,0,160
3,69,110,32
3,69,0,160
3,72,110,32
3,72,0,160
3,64,110,32
3,64,0,736
3,60,110,224
3,60,0,160
3,60,110,32
3,60,0,94
3,60,110,2
3,60,0,94
3,57,110,2
3,57,0,160
3,60,110,32
3,60,0,160
3,64,110,32
3,64,0,336
3,60,110,48
3,60,0,160
3,64,110,32
3,64,0,160
3,67,110,32
3,67,0,336
3,64,110,48
3,64,0,160
3,62,110,32
3,62,0,160
3,60,110,32
3,60,0,1104
3,60,110,240
3,60,0,160
3,65,110,0
3,65,0,160
3,65,110,32
3,65,0,160
3,60,110,32
3,60,0,160
3,65,110,32
3,65,0,160
3,67,110,32
3,67,0,336
3,65,110,48
3,65,0,160
3,67,110,32
3,67,0,160
3,69,110,32
3,69,0,336
3,65,110,48
3,65,0,160
3,69,110,32
3,69,0,160
3,70,110,32
3,70,0,528
3,61,110,48
3,61,0,160
3,61,110,32
3,61,0,160
3,61,110,32
3,61,0,160
3,72,110,32
3,72,0,160
3,70,110,32
3,70,0,160
3,69,110,32
3,69,0,336
3,72,110,48
3,72,0,160
3,69,110,32
3,69,0,160
3,55,110,32
3,55,0,336
3,59,110,48
3,59,0,160
3,62,110,32
3,62,0,160
3,65,110,32
3,65,0,160
3,64,110,32
3,64,0,160
3,72,110,224
3,72,0,160
3,65,110,32
3,65,0,160
3,65,110,32
3,65,0,160
3,60,110,32
3,60,0,160
3,65,110,32
3,65,0,160
3,67,110,32
3,67,0,336
3,72,110,48
3,72,0,160
3,70,110,32
3,70,0,160
3,69,110,32
3,69,0,336
3,74,110,48
3,74,0,160
3,72,110,32
3,72,0,160
3,70,110,32
3,70,0,528
3,61,110,240
3,61,0,126
3,61,110,2
3,61,0,126
3,61,110,2
3,61,0,126
3,72,110,2
3,72,0,160
3,70,110,32
3,70,0,160
3,69,110,32
3,69,0,126
3,72,110,2
3,72,0,126
3,69,110,2
3,69,0,126
3,59,110,2
3,59,0,126
3,62,110,2
3,62,0,126
3,65,110,2
3,65,0,126
3,69,110,2
3,69,0,336
3,67,110,48
3,67,0,336
3,65,110,48
3,65,0,336
3,64,110,0
3,64,0,160
3,64,110,32
3,64,0,94
3,64,110,2
3,64,0,94
3,64,110,2
3,64,0,160
3,65,110,32
3,65,0,160
3,67,110,32
3,67,0,336
3,64,110,48
3,64,0,336
3,67,110,48
3,67,0,160
3,67,110,32
3,67,0,94
3,67,110,2
3,67,0,94
3,67,110,2
3,67,0,160
3,69,110,32
3,69,0,160
3,70,110,32
3,70,0,336
3,67,110,48
3,67,0,336
3,70,110,48
3,70,0,160
3,70,110,32
3,70,0,94
3,70,110,2
3,70,0,94
3,70,110,2
3,70,0,160
3,74,110,32
3,74,0,160
3,72,110,32
3,72,0,336
3,68,110,48
3,68,0,336
3,69,110,48
3,69,0,1104
3,65,110,432
3,65,0,126
3,69,110,2
3,69,0,126
3,72,110,2
3,72,0,126
3,76,110,2
3,76,0,160
3,74,110,32
3,74,0,160
3,71,110,32
3,71,0,160
3,67,110,32
3,67,0,160
3,64,110,32
3,64,0,336
3,62,110,48
3,62,0,126
3,65,110,2
3,65,0,126
3,69,110,2
3,69,0,126
3,72,110,2
3,72,0,160
3,71,110,32
3,71,0,160
3,67,110,32
3,67,0,160
3,64,110,32
3,64,0,160
3,61,110,32
3,61,0,336
3,60,110,48
3,60,0,160
3,60,110,32
3,60,0,94
3,60,110,2
3,60,0,94
3,60,110,2
3,60,0,544
3,57,110,32
3,57,0,160
3,60,110,32
3,60,0,160
3,62,110,32
3,62,0,160
3,64,110,32
3,64,0,1296
3,60,110,240
3,60,0,160
3,60,110,32
3,60,0,94
3,60,110,2
3,60,0,94
3,60,110,2
3,60,0,544
3,57,110,32
3,57,0,160
