track,note,velocity,time
3,66,110,3200
3,66,0,126
3,68,110,2
3,68,0,126
3,69,110,2
3,69,0,126
3,66,110,2
3,66,0,126
3,68,110,2
3,68,0,126
3,69,110,2
3,69,0,256
3,71,110,32
3,71,0,94
3,73,110,2
3,73,0,94
3,71,110,2
3,71,0,94
3,69,110,2
3,69,0,94
3,68,110,2
3,68,0,94
3,66,110,2
3,66,0,336
3,64,110,48
3,64,0,336
3,62,110,176
3,62,0,126
3,64,110,2
3,64,0,126
3,66,110,2
3,66,0,126
3,62,110,2
3,62,0,126
3,64,110,2
3,64,0,126
3,66,110,2
3,66,0,160
3,71,110,32
3,71,0,94
3,69,110,2
3,69,0,94
3,68,110,2
3,68,0,126
3,66,110,2
3,66,0,126
3,64,110,2
3,64,0,126
3,62,110,2
3,62,0,336
3,61,110,48
3,61,0,336
3,59,110,176
3,59,0,126
3,61,110,2
3,61,0,126
3,62,110,2
3,62,0,126
3,64,110,2
3,64,0,126
3,66,110,2
3,66,0,126
3,64,110,2
3,64,0,894
3,59,110,2
3,59,0,126
3,61,110,2
3,61,0,126
3,62,110,2
3,62,0,126
3,64,110,2
3,64,0,126
3,66,110,2
3,66,0,126
3,67,110,2
3,67,0,528
3,66,110,368
3,66,0,126
3,68,110,2
3,68,0,126
3,69,110,2
3,69,0,126
3,66,110,2
3,66,0,126
3,68,110,2
3,68,0,126
3,69,110,2
3,69,0,256
3,71,110,32
3,71,0,94
3,73,110,2
3,73,0,94
3,71,110,2
3,71,0,94
3,69,110,2
3,69,0,94
3,68,110,2
3,68,0,94
3,66,110,2
3,66,0,336
3,64,110,48
3,64,0,336
3,62,110,176
3,62,0,126
3,64,110,2
3,64,0,126
3,66,110,2
3,66,0,126
3,62,110,2
3,62,0,126
3,64,110,2
3,64,0,126
3,66,110,2
3,66,0,256
3,71,110,32
3,71,0,94
3,69,110,2
3,69,0,94
3,68,110,2
3,68,0,94
3,66,110,2
3,66,0,94
3,64,110,2
3,64,0,94
3,62,110,2
3,62,0,336
3,61,110,48
3,61,0,336
3,59,110,176
3,59,0,126
3,61,110,2
3,61,0,126
3,62,110,2
3,62,0,126
3,64,110,2
3,64,0,126
3,66,110,2
3,66,0,126
3,64,110,2
3,64,0,160
3,64,110,32
3,64,0,318
3,61,110,2
3,61,0,126
3,64,110,2
3,64,0,126
3,62,110,2
3,62,0,510
3,54,110,2
3,54,0,126
3,56,110,2
3,56,0,126
3,57,110,2
3,57,0,528
3,66,110,368
3,66,0,126
3,68,110,2
3,68,0,126
3,69,110,2
3,69,0,126
3,66,110,2
3,66,0,126
3,68,110,2
3,68,0,126
3,69,110,2
3,69,0,256
3,71,110,32
3,71,0,94
3,73,110,2
3,73,0,94
3,71,110,2
3,71,0,94
3,69,110,2
3,69,0,94
3,68,110,2
3,68,0,94
3,66,110,2
3,66,0,336
3,64,110,48
3,64,0,336
3,62,110,176
3,62,0,126
3,64,110,2
3,64,0,126
3,66,110,2
3,66,0,126
3,62,110,2
3,62,0,126
3,64,110,2
3,64,0,126
3,66,110,2
3,66,0,160
3,71,110,32
3,71,0,94
3,69,110,2
3,69,0,94
3,68,110,2
3,68,0,126
3,66,110,2
3,66,0,126
3,64,110,2
3,64,0,126
3,62,110,2
3,62,0,336
3,61,110,48
3,61,0,336
3,59,110,176
3,59,0,126
3,61,110,2
3,61,0,126
3,62,110,2
3,62,0,126
3,64,110,2
3,64,0,126
3,66,110,2
3,66,0,126
3,64,110,2
3,64,0,894
3,59,110,2
3,59,0,126
3,61,110,2
3,61,0,126
3,62,110,2
3,62,0,126
3,64,110,2
3,64,0,126
3,66,110,2
3,66,0,126
3,67,110,2
3,67,0,528
3,66,110,368
3,66,0,126
3,68,110,2
3,68,0,126
3,69,110,2
3,69,0,126
3,66,110,2
3,66,0,126
3,68,110,2
3,68,0,126
3,69,110,2
3,69,0,256
3,71,110,32
3,71,0,94
3,73,110,2
3,73,0,94
3,71,110,2
3,71,0,94
3,69,110,2
3,69,0,94
3,68,110,2
3,68,0,94
3,66,110,2
3,66,0,336
3,64,110,48
3,64,0,336
3,62,110,176
3,62,0,126
3,64,110,2
3,64,0,126
3,66,110,2
3,66,0,126
3,62,110,2
3,62,0,126
3,64,110,2
3,64,0,126
3,66,110,2
3,66,0,256
3,71,110,32
3,71,0,94
3,69,110,2
3,69,0,94
3,68,110,2
3,68,0,94
3,66,110,2
3,66,0,94
3,64,110,2
3,64,0,94
3,62,110,2
3,62,0,336
3,61,110,48
3,61,0,336
3,59,110,176
3,59,0,126
3,61,110,2
3,61,0,126
3,62,110,2
3,62,0,126
3,64,110,2
3,64,0,126
3,66,110,2
3,66,0,126
3,64,110,2
3,64,0,160
3,64,110,32
3,64,0,318
3,61,110,2
3,61,0,126
3,64,110,2
3,64,0,126
3,62,110,2
3,62,0,510
3,54,110,2
3,54,0,126
3,56,110,2
3,56,0,126
3,57,110,2
3,57,0,528
3,66,110,368
3,66,0,126
3,68,110,2
3,68,0,126
3,69,110,2
3,69,0,126
3,66,110,2
3,66,0,126
3,68,110,2
3,68,0,126
3,69,110,2
3,69,0,256
3,71,110,32
3,71,0,94
3,73,110,2
3,73,0,94
3,71,110,2
3,71,0,94
3,69,110,2
3,69,0,94
3,68,110,2
3,68,0,94
3,66,110,2
3,66,0,336
3,64,110,48
3,64,0,336
3,62,110,176
3,62,0,126
3,64,110,2
3,64,0,126
3,66,110,2
3,66,0,126
3,62,110,2
3,62,0,126
3,64,110,2
3,64,0,126
3,66,110,2
3,66,0,160
3,71,110,32
3,71,0,94
3,69,110,2
3,69,0,94
3,68,110,2
3,68,0,126
3,66,110,2
3,66,0,126
3,64,110,2
3,64,0,126
3,62,110,2
3,62,0,336
3,61,110,48
3,61,0,336
3,59,110,176
3,59,0,126
3,61,110,2
3,61,0,126
3,62,110,2
3,62,0,126
3,64,110,2
3,64,0,126
3,66,110,2
3,66,0,126
3,64,110,2
3,64,0,894
3,59,110,2
3,59,0,126
3,61,110,2
3,61,0,126
3,62,110,2
3,62,0,126
3,64,110,2
3,64,0,126
3,66,110,2
3,66,0,126
3,67,110,2
3,67,0,528
3,66,110,368
3,66,0,126
3,68,110,2
3,68,0,126
3,69,110,2
3,69,0,126
3,66,110,2
3,66,0,126
3,68,110,2
3,68,0,126
3,69,110,2
3,69,0,256
3,71,110,32
3,71,0,94
3,73,110,2
3,73,0,94
3,71,110,2
3,71,0,94
3,69,110,2
3,69,0,94
3,68,110,2
3,68,0,94
3,66,110,2
3,66,0,336
3,64,110,48
3,64,0,336
3,62,110,176
3,62,0,126
3,64,110,2
3,64,0,126
3,66,110,2
3,66,0,126
3,62,110,2
3,62,0,126
3,64,110,2
3,64,0,126
3,66,110,2
3,66,0,256
3,71,110,32
3,71,0,94
3,69,110,2
3,69,0,94
3,68,110,2
3,68,0,94
3,66,110,2
3,66,0,94
3,64,110,2
3,64,0,94
3,62,110,2
3,62,0,336
3,61,110,48
3,61,0,336
3,59,110,176
3,59,0,126
3,61,110,2
3,61,0,126
3,62,110,2
3,62,0,126
3,64,110,2
3,64,0,126
3,66,110,2
3,66,0,126
3,64,110,2
3,64,0,160
3,64,110,32
3,64,0,318
3,61,110,2
3,61,0,126
3,64,110,2
3,64,0,126
3,62,110,2
3,62,0,510
3,54,110,2
3,54,0,126
3,56,110,2
3,56,0,126
3,57,110,2
3,57,0,528
3,66,110,368
3,66,0,126
3,68,110,2
3,68,0,126
3,69,110,2
3,69,0,126
3,66,110,2
3,66,0,126
3,68,110,2
3,68,0,126
3,69,110,2
3,69,0,256
3,71,110,32
3,71,0,94
3,73,110,2
3,73,0,94
3,71,110,2
3,71,0,94
3,69,110,2
3,69,0,94
3,68,110,2
3,68,0,94
3,66,110,2
3,66,0,336
3,64,110,48
3,64,0,336
3,62,110,176
3,62,0,126
3,64,110,2
3,64,0,126
3,66,110,2
3,66,0,126
3,62,110,2
3,62,0,126
3,64,110,2
3,64,0,126
3,66,110,2
3,66,0,160
3,71,110,32
3,71,0,94
3,69,110,2
3,69,0,94
3,68,110,2
3,68,0,126
3,66,110,2
3,66,0,126
3,64,110,2
3,64,0,126
3,62,110,2
3,62,0,336
3,61,110,48
3,61,0,336
3,59,110,176
3,59,0,126
3,61,110,2
3,61,0,126
3,62,110,2
3,62,0,126
3,64,110,2
3,64,0,126
3,66,110,2
3,66,0,126
3,64,110,2
3,64,0,894
3,59,110,2
3,59,0,126
3,61,110,2
3,61,0,126
3,62,110,2
3,62,0,126
3,64,110,2
3,64,0,126
3,66,110,2
3,66,0,126
3,67,110,2
3,67,0,528
3,66,110,368
3,66,0,126
3,68,110,2
3,68,0,126
3,69,110,2
3,69,0,126
3,66,110,2
3,66,0,126
3,68,110,2
3,68,0,126
3,69,110,2
3,69,0,256
3,71,110,32
3,71,0,94
3,73,110,2
3,73,0,94
3,71,110,2
3,71,0,94
3,69,110,2
3,69,0,94
3,68,110,2
3,68,0,94
3,66,110,2
3,66,0,336
3,64,110,48
3,64,0,336
3,62,110,176
3,62,0,126
3,64,110,2
3,64,0,126
3,66,110,2
3,66,0,126
3,62,110,2
3,62,0,126
3,64,110,2
3,64,0,126
3,66,110,2
3,66,0,256
3,71,110,32
3,71,0,94
3,69,110,2
3,69,0,94
3,68,110,2
3,68,0,94
3,66,110,2
3,66,0,94
3,64,110,2
3,64,0,94
3,62,110,2
3,62,0,336
3,61,110,48
3,61,0,336
3,59,110,176
3,59,0,126
3,61,110,2
3,61,0,126
3,62,110,2
3,62,0,126
3,64,110,2
3,64,0,126
3,66,110,2
3,66,0,126
3,64,110,2
3,64,0,160
3,64,110,32
3,64,0,318
3,61,110,2
3,61,0,126
3,64,110,2
3,64,0,126
3,62,110,2
3,62,0,510
3,54,110,2
3,54,0,126
3,56,110,2
3,56,0,126
3,57,110,2
3,57,0,528
3,66,110,368
3,66,0,126
3,68,110,2
3,68,0,126
3,69,110,2
3,69,0,126
3,66,110,2
3,66,0,126
3,68,110,2
3,68,0,126
3,69,110,2
3,69,0,256
3,71,110,32
3,71,0,94
3,73,110,2
3,73,0,94
3,71,110,2
3,71,0,94
3,69,110,2
3,69,0,94
3,68,110,2
3,68,0,94
3,66,110,2
3,66,0,336
3,64,110,48
3,64,0,336
3,62,110,176
3,62,0,126
3,64,110,2
3,64,0,126
3,66,110,2
3,66,0,126
3,62,110,2
3,62,0,126
3,64,110,2
3,64,0,126
3,66,110,2
3,66,0,160
3,71,110,32
3,71,0,94
3,69,110,2
3,69,0,94
3,68,110,2
3,68,0,126
3,66,110,2
3,66,0,126
3,64,110,2
3,64,0,126
3,62,110,2
3,62,0,336
3,61,110,48
3,61,0,336
3,59,110,176
3,59,0,126
3,61,110,2
3,61,0,126
3,62,110,2
3,62,0,126
3,64,110,2
3,64,0,126
3,66,110,2
3,66,0,126
3,64,110,2
3,64,0,894
3,59,110,2
3,59,0,126
3,61,110,2
3,61,0,126
3,62,110,2
3,62,0,126
3,64,110,2
3,64,0,126
3,66,110,2
3,66,0,126
3,67,110,2
3,67,0,528
3,66,110,368
3,66,0,126
3,68,110,2
3,68,0,126
3,69,110,2
3,69,0,126
3,66,110,2
3,66,0,126
3,68,110,2
3,68,0,126
3,69,110,2
3,69,0,256
3,71,110,32
3,71,0,94
3,73,110,2
3,73,0,94
3,71,110,2
3,71,0,94
3,69,110,2
3,69,0,94
3,68,110,2
3,68,0,94
3,66,110,2
3,66,0,336
3,64,110,48
3,64,0,336
3,62,110,176
3,62,0,126
3,64,110,2
3,64,0,126
3,66,110,2
3,66,0,126
3,62,110,2
3,62,0,126
3,64,110,2
3,64,0,126
3,66,110,2
3,66,0,256
3,71,110,32
3,71,0,94
3,69,110,2
3,69,0,94
3,68,110,2
3,68,0,94
3,66,110,2
3,66,0,94
3,64,110,2
3,64,0,94
3,62,110,2
3,62,0,336
3,61,110,48
3,61,0,336
3,59,110,176
3,59,0,126
3,61,110,2
3,61,0,126
3,62,110,2
3,62,0,126
3,64,110,2
3,64,0,126
3,66,110,2
3,66,0,126
3,64,110,2
3,64,0,160
3,64,110,32
3,64,0,702
3,62,110,2
3,62,0,126
3,64,110,2
3,64,0,126
3,65,110,2
3,65,0,126
3,67,110,2
3,67,0,126
3,69,110,2
3,69,0,126
3,64,110,2
3,64,0,720
3,60,110,176
3,60,0,126
3,62,110,2
3,62,0,126
3,64,110,2
3,64,0,126
3,60,110,2
3,60,0,126
3,62,110,2
3,62,0,126
3,64,110,2
3,64,0,126
3,60,110,2
3,60,0,126
3,62,110,2
3,62,0,126
3,64,110,2
3,64,0,160
3,60,110,32
3,61,0,352
3,62,110,32
3,62,0,160
3,64,110,32
3,64,0,544
4,56,110,96
4,59,110,0
4,56,0,160
4,59,0,0
4,57,110,32
4,61,110,0
4,57,0,94
4,61,0,0
4,59,110,2
4,62,110,0
4,59,0,94
4,62,0,0
4,61,110,2
4,64,110,0
4,61,0,94
4,64,0,0
4,62,110,2
4,66,110,0
4,62,0,94
4,66,0,0
4,61,110,2
4,64,110,0
4,52,110,288
4,57,110,0
4,52,0,160
4,57,0,0
4,61,0,0
4,64,0,0
4,52,110,160
4,58,110,0
4,61,110,0
4,61,0,126
4,64,110,2
4,52,0,32
4,58,0,0
4,64,0,94
4,62,110,2
4,54,110,192
4,59,110,0
4,54,0,160
4,59,0,0
4,62,0,158
4,50,110,2
4,52,110,0
4,59,110,0
4,59,0,126
4,56,110,2
4,50,0,32
4,52,0,0
4,56,0,94
4,49,110,2
4,52,110,0
4,57,110,0
4,49,0,544
4,52,0,0
4,57,0,0
4,45,110,352
4,50,110,0
4,54,110,0
4,54,0,126
4,56,110,2
4,45,0,32
4,50,0,0
4,56,0,94
4,57,110,2
4,57,0,126
4,45,110,2
4,49,110,0
4,54,110,0
4,54,0,126
4,56,110,2
4,45,0,32
4,49,0,0
4,56,0,94
4,57,110,2
4,50,110,192
4,54,110,0
4,57,0,94
4,59,110,2
4,50,0,64
4,54,0,0
4,59,0,30
4,61,110,2
4,61,0,94
4,59,110,2
4,59,0,94
4,50,110,2
4,52,110,0
4,57,110,0
4,57,0,94
4,56,110,2
4,50,0,64
4,52,0,0
4,56,0,30
4,54,110,2
4,48,110,192
4,51,110,0
4,48,0,160
4,51,0,0
4,54,0,0
4,52,110,32
4,46,110,192
4,49,110,0
4,46,0,160
4,49,0,0
4,52,0,0
4,42,110,160
4,47,110,0
4,50,110,0
4,50,0,126
4,52,110,2
4,42,0,32
4,47,0,0
4,52,0,94
4,54,110,2
4,54,0,126
4,42,110,2
4,47,110,0
4,50,110,0
4,50,0,126
4,52,110,2
4,42,0,32
4,47,0,0
4,52,0,94
4,54,110,2
4,54,0,160
4,50,110,32
4,54,110,0
4,59,110,0
4,59,0,94
4,57,110,2
4,50,0,64
4,54,0,0
4,57,0,30
4,56,110,2
4,56,0,126
4,47,110,2
4,50,110,0
4,54,110,0
4,54,0,126
4,52,110,2
4,47,0,32
4,50,0,0
4,52,0,94
4,50,110,2
4,40,110,192
4,46,110,0
4,40,0,160
4,46,0,0
4,50,0,0
4,49,110,32
4,40,110,192
4,46,110,0
4,40,0,160
4,46,0,0
4,49,0,0
4,38,110,160
4,42,110,0
4,47,110,0
4,47,0,126
4,49,110,2
4,38,0,32
4,42,0,0
4,49,0,94
4,50,110,2
4,50,0,126
4,44,110,2
4,50,110,0
4,52,110,0
4,52,0,126
4,54,110,2
4,44,0,32
4,50,0,0
4,54,0,94
4,52,110,2
4,45,110,192
4,49,110,0
4,45,0,160
4,49,0,0
4,45,110,224
4,49,110,0
4,45,0,160
4,49,0,0
4,52,0,158
4,38,110,2
4,42,110,0
4,47,110,0
4,47,0,126
4,49,110,2
4,38,0,32
4,42,0,0
4,49,0,94
4,50,110,2
4,50,0,126
4,44,110,2
4,50,110,0
4,52,110,0
4,52,0,126
4,54,110,2
4,44,0,32
4,50,0,0
4,54,0,94
4,55,110,2
4,45,110,192
4,49,110,0
4,45,0,160
