track,note,velocity,time
3,64,100,3072
3,60,100,0
3,64,100,0
3,60,100,0
3,64,100,0
3,62,100,0
3,64,100,0
3,60,100,0
3,64,100,0
3,60,100,0
3,64,100,0
3,62,100,0
3,57,100,0
3,64,100,0
3,60,100,0
3,64,100,0
3,60,100,0
3,64,100,0
3,62,100,0
3,65,100,0
3,64,100,0
3,62,100,0
3,60,100,0
3,59,100,0
3,57,100,0
3,64,100,384
3,60,100,0
3,64,100,0
3,60,100,0
3,64,100,0
3,62,100,0
3,64,100,0
3,60,100,0
3,64,100,0
3,60,100,0
3,64,100,0
3,62,100,0
3,57,100,0
3,64,100,0
3,60,100,0
3,64,100,0
3,60,100,0
3,64,100,0
3,62,100,0
3,65,100,0
3,64,100,0
3,62,100,0
3,60,100,0
3,59,100,0
3,57,100,0
3,65,100,384
3,65,100,0
3,65,100,0
3,65,100,0
3,65,100,0
3,65,100,0
3,62,100,0
3,65,100,0
3,65,100,0
3,55,100,0
3,59,100,0
3,62,100,0
3,65,100,0
3,62,100,0
3,64,100,0
3,64,100,0
3,64,100,0
3,64,100,0
3,64,100,0
3,64,100,0
3,64,100,0
3,60,100,0
3,64,100,0
3,67,100,0
3,65,100,0
3,64,100,0
3,62,100,0
3,62,100,0
3,62,100,0
3,62,100,0
3,62,100,0
3,62,100,0
3,62,100,0
3,62,100,0
3,64,100,0
3,65,100,0
3,64,100,0
3,62,100,0
3,62,100,0
3,60,100,0
3,57,100,0
3,60,100,0
3,62,100,0
3,64,100,0
3,69,100,0
3,69,100,0
3,69,100,0
3,69,100,0
3,69,100,0
3,67,100,0
3,62,100,0
3,64,100,0
3,65,100,0
3,65,100,0
3,65,100,0
3,65,100,0
3,65,100,0
3,64,100,0
3,56,100,0
3,54,100,0
3,56,100,0
3,57,100,0
3,64,100,1152
3,60,100,0
3,64,100,0
3,60,100,0
3,64,100,0
3,62,100,0
3,64,100,0
3,60,100,0
3,64,100,0
3,60,100,0
3,64,100,0
3,62,100,0
3,57,100,0
3,64,100,0
3,60,100,0
3,64,100,0
3,60,100,0
3,64,100,0
3,62,100,0
3,65,100,0
3,64,100,0
3,62,100,0
3,60,100,0
3,59,100,0
3,57,100,0
3,64,100,384
3,60,100,0
3,64,100,0
3,60,100,0
3,64,100,0
3,62,100,0
3,64,100,0
3,60,100,0
3,64,100,0
3,60,100,0
3,64,100,0
3,62,100,0
3,57,100,0
3,64,100,0
3,60,100,0
3,64,100,0
3,60,100,0
3,64,100,0
3,62,100,0
3,65,100,0
3,64,100,0
3,62,100,0
3,60,100,0
3,59,100,0
3,57,100,0
3,65,100,384
3,65,100,0
3,65,100,0
3,65,100,0
3,65,100,0
3,65,100,0
3,62,100,0
3,65,100,0
3,65,100,0
3,55,100,0
3,59,100,0
3,62,100,0
3,65,100,0
3,62,100,0
3,64,100,0
3,64,100,0
3,64,100,0
3,64,100,0
3,64,100,0
3,64,100,0
3,64,100,0
3,60,100,0
3,64,100,0
3,67,100,0
3,65,100,0
3,64,100,0
3,62,100,0
3,62,100,0
3,62,100,0
3,62,100,0
3,62,100,0
3,62,100,0
3,62,100,0
3,62,100,0
3,64,100,0
3,65,100,0
3,64,100,0
3,62,100,0
3,62,100,0
3,60,100,0
3,57,100,0
3,60,100,0
3,62,100,0
3,64,100,0
3,69,100,0
3,69,100,0
3,69,100,0
3,69,100,0
3,69,100,0
3,67,100,0
3,62,100,0
3,64,100,0
3,65,100,0
3,65,100,0
3,65,100,0
3,65,100,0
3,65,100,0
3,64,100,0
3,56,100,0
3,54,100,0
3,56,100,0
3,57,100,0
3,64,100,1152
3,60,100,0
3,64,100,0
3,60,100,0
3,64,100,0
3,62,100,0
3,64,100,0
3,60,100,0
3,64,100,0
3,60,100,0
3,64,100,0
3,62,100,0
3,57,100,0
3,64,100,0
3,60,100,0
3,64,100,0
3,60,100,0
3,64,100,0
3,62,100,0
3,65,100,0
3,64,100,0
3,62,100,0
3,60,100,0
3,59,100,0
3,57,100,0
3,64,100,384
3,60,100,0
3,64,100,0
3,60,100,0
3,64,100,0
3,62,100,0
3,64,100,0
3,60,100,0
3,64,100,0
3,60,100,0
3,64,100,0
3,62,100,0
3,57,100,0
3,64,100,0
3,60,100,0
3,64,100,0
3,60,100,0
3,64,100,0
3,62,100,0
3,65,100,0
3,64,100,0
3,62,100,0
3,60,100,0
3,59,100,0
3,57,100,0
3,65,100,384
3,65,100,0
3,65,100,0
3,65,100,0
3,65,100,0
3,65,100,0
3,62,100,0
3,65,100,0
3,65,100,0
3,55,100,0
3,59,100,0
3,62,100,0
3,65,100,0
3,62,100,0
3,64,100,0
3,64,100,0
3,64,100,0
3,64,100,0
3,64,100,0
3,64,100,0
3,64,100,0
3,60,100,0
3,64,100,0
3,67,100,0
3,65,100,0
3,64,100,0
3,62,100,0
3,62,100,0
3,62,100,0
3,62,100,0
3,62,100,0
3,62,100,0
3,62,100,0
3,62,100,0
3,64,100,0
3,65,100,0
3,64,100,0
3,62,100,0
3,62,100,0
3,60,100,0
3,57,100,0
3,60,100,0
3,62,100,0
3,64,100,0
3,69,100,0
3,69,100,0
3,69,100,0
3,69,100,0
3,69,100,0
3,67,100,0
3,62,100,0
3,64,100,0
3,65,100,0
3,65,100,0
3,65,100,0
3,65,100,0
3,65,100,0
3,64,100,0
3,56,100,0
3,54,100,0
3,56,100,0
3,57,100,0
3,64,100,1152
3,60,100,0
3,64,100,0
3,60,100,0
3,64,100,0
3,62,100,0
3,64,100,0
3,60,100,0
3,64,100,0
3,60,100,0
3,64,100,0
3,62,100,0
3,57,100,0
3,64,100,0
3,60,100,0
3,64,100,0
3,60,100,0
3,64,100,0
3,62,100,0
3,65,100,0
3,64,100,0
3,62,100,0
3,60,100,0
3,59,100,0
3,57,100,0
3,64,100,384
3,60,100,0
3,64,100,0
3,60,100,0
3,64,100,0
3,62,100,0
3,64,100,0
3,60,100,0
3,64,100,0
3,60,100,0
3,64,100,0
3,62,100,0
3,57,100,0
3,64,100,0
3,60,100,0
3,64,100,0
3,60,100,0
3,64,100,0
3,62,100,0
3,65,100,0
3,64,100,0
3,62,100,0
3,60,100,0
3,59,100,0
3,57,100,0
3,65,100,384
3,65,100,0
3,65,100,0
3,65,100,0
3,65,100,0
3,65,100,0
3,62,100,0
3,65,100,0
3,65,100,0
3,55,100,0
3,59,100,0
3,62,100,0
3,65,100,0
3,62,100,0
3,64,100,0
3,64,100,0
3,64,100,0
3,64,100,0
3,64,100,0
3,64,100,0
3,64,100,0
3,60,100,0
3,64,100,0
3,67,100,0
3,65,100,0
3,64,100,0
3,62,100,0
3,62,100,0
3,62,100,0
3,62,100,0
3,62,100,0
3,62,100,0
3,62,100,0
3,62,100,0
3,64,100,0
3,65,100,0
3,64,100,0
3,62,100,0
3,62,100,0
3,60,100,0
3,57,100,0
3,60,100,0
3,62,100,0
3,64,100,0
3,69,100,0
3,69,100,0
3,69,100,0
3,69,100,0
3,69,100,0
3,67,100,0
3,62,100,0
3,64,100,0
3,65,100,0
3,65,100,0
3,65,100,0
3,65,100,0
3,65,100,0
3,64,100,0
3,56,100,0
3,54,100,0
3,56,100,0
3,57,100,0
3,64,100,1152
3,60,100,0
3,64,100,0
3,60,100,0
3,64,100,0
3,62,100,0
3,64,100,0
3,60,100,0
3,64,100,0
3,60,100,0
3,64,100,0
3,62,100,0
3,57,100,0
3,64,100,0
3,60,100,0
3,64,100,0
3,60,100,0
3,64,100,0
3,62,100,0
3,65,100,0
3,64,100,0
3,62,100,0
3,60,100,0
3,59,100,0
3,57,100,0
3,64,100,384
3,60,100,0
3,64,100,0
3,60,100,0
3,64,100,0
3,62,100,0
3,64,100,0
3,60,100,0
3,64,100,0
3,60,100,0
3,64,100,0
3,62,100,0
3,57,100,0
3,64,100,0
3,60,100,0
3,64,100,0
3,60,100,0
3,64,100,0
3,62,100,0
3,65,100,0
3,64,100,0
3,62,100,0
3,60,100,0
3,59,100,0
3,57,100,0
3,65,100,384
3,65,100,0
3,65,100,0
3,65,100,0
3,65,100,0
3,65,100,0
3,62,100,0
3,65,100,0
3,65,100,0
3,55,100,0
3,59,100,0
3,62,100,0
3,65,100,0
3,62,100,0
3,64,100,0
3,64,100,0
3,64,100,0
3,64,100,0
3,64,100,0
3,64,100,0
3,64,100,0
3,60,100,0
3,64,100,0
3,67,100,0
3,65,100,0
3,64,100,0
3,62,100,0
3,62,100,0
3,62,100,0
3,62,100,0
3,62,100,0
3,62,100,0
3,62,100,0
3,62,100,0
3,64,100,0
3,65,100,0
3,64,100,0
3,62,100,0
3,62,100,0
3,60,100,0
3,57,100,0
3,60,100,0
3,62,100,0
3,64,100,0
3,69,100,0
3,69,100,0
3,69,100,0
3,69,100,0
3,69,100,0
3,67,100,0
3,62,100,0
3,64,100,0
3,65,100,0
3,65,100,0
3,65,100,0
3,65,100,0
3,65,100,0
3,64,100,0
3,56,100,0
3,54,100,0
3,56,100,0
3,57,100,0
3,64,100,1152
3,60,100,0
3,64,100,0
3,60,100,0
3,64,100,0
3,62,100,0
3,64,100,0
3,60,100,0
3,64,100,0
3,60,100,0
3,64,100,0
3,62,100,0
3,57,100,0
3,64,100,0
3,60,100,0
3,64,100,0
3,60,100,0
3,64,100,0
3,62,100,0
3,65,100,0
3,64,100,0
3,62,100,0
3,60,100,0
3,59,100,0
3,57,100,0
3,64,100,384
3,60,100,0
3,64,100,0
3,60,100,0
3,64,100,0
3,62,100,0
3,64,100,0
3,60,100,0
3,64,100,0
3,60,100,0
3,64,100,0
3,62,100,0
3,57,100,0
3,64,100,0
3,60,100,0
3,64,100,0
3,60,100,0
3,64,100,0
3,62,100,0
3,65,100,0
3,64,100,0
3,62,100,0
3,60,100,0
3,59,100,0
3,57,100,0
3,65,100,384
3,65,100,0
3,65,100,0
3,65,100,0
3,65,100,0
3,65,100,0
3,62,100,0
3,65,100,0
3,65,100,0
3,55,100,0
3,59,100,0
3,62,100,0
3,65,100,0
3,62,100,0
3,64,100,0
3,64,100,0
3,64,100,0
3,64,100,0
3,64,100,0
3,64,100,0
3,64,100,0
3,60,100,0
3,64,100,0
3,67,100,0
3,65,100,0
3,64,100,0
3,62,100,0
3,62,100,0
3,62,100,0
3,62,100,0
3,62,100,0
3,62,100,0
3,62,100,0
3,62,100,0
3,64,100,0
3,65,100,0
3,64,100,0
3,62,100,0
3,62,100,0
3,60,100,0
3,57,100,0
3,60,100,0
3,62,100,0
3,64,100,0
3,69,100,0
3,69,100,0
3,69,100,0
3,69,100,0
3,69,100,0
3,67,100,0
3,62,100,0
3,64,100,0
3,65,100,0
3,65,100,0
3,65,100,0
3,65,100,0
3,65,100,0
3,64,100,0
3,56,100,0
3,54,100,0
3,56,100,0
3,57,100,0
4,64,100,0
4,60,100,0
4,57,100,0
4,52,100,0
4,64,100,0
4,60,100,0
4,57,100,0
4,52,100,0
4,64,100,0
4,60,100,0
4,57,100,0
4,52,100,0
4,64,100,0
4,60,100,0
4,57,100,0
4,52,100,0
4,64,100,0
4,60,100,0
4,57,100,0
4,52,100,0
4,64,100,0
4,60,100,0
4,57,100,0
4,52,100,0
4,64,100,0
4,60,100,0
4,57,100,0
4,52,100,0
4,64,100,0
4,60,100,0
4,57,100,0
4,52,100,0
4,64,100,0
4,60,100,0
4,57,100,0
4,52,100,0
4,64,100,0
4,60,100,0
4,57,100,0
4,52,100,0
4,64,100,0
4,60,100,0
4,55,100,0
4,52,100,0
4,62,100,0
4,57,100,0
4,54,100,0
4,50,100,0
4,64,100,0
4,60,100,0
4,57,100,0
4,52,100,0
4,64,100,0
4,60,100,0
4,57,100,0
4,52,100,0
4,64,100,0
4,60,100,0
4,55,100,0
4,52,100,0
4,62,100,0
4,57,100,0
4,54,100,0
4,50,100,0
4,64,100,0
4,60,100,0
4,57,100,0
4,52,100,0
4,64,100,0
4,60,100,0
4,57,100,0
4,52,100,0
4,64,100,0
4,60,100,0
4,55,100,0
4,52,100,0
4,62,100,0
4,57,100,0
4,54,100,0
4,50,100,0
4,64,100,0
4,59,100,0
4,56,100,0
4,52,100,0
4,64,100,0
4,59,100,0
4,56,100,0
4,52,100,0
4,64,100,0
4,60,100,0
4,57,100,0
4,52,100,0
4,64,100,0
4,60,100,0
4,57,100,0
4,52,100,0
4,52,100,0
4,57,100,0
4,60,100,0
4,64,100,0
4,64,100,0
4,60,100,0
4,57,100,0
4,52,100,0
4,60,100,0
4,64,100,0
4,55,100,0
4,52,100,0
4,62,100,0
4,57,100,0
4,54,100,0
4,50,100,0
4,64,100,0
4,60,100,0
4,57,100,0
4,52,100,0
4,52,100,0
4,57,100,0
4,60,100,0
4,64,100,0
4,64,100,0
4,60,100,0
4,55,100,0
4,52,100,0
4,50,100,0
4,57,100,0
4,54,100,0
4,62,100,0
4,64,100,0
4,60,100,0
4,57,100,0
4,52,100,0
4,64,100,0
4,60,100,0
4,57,100,0
4,52,100,0
4,64,100,0
4,60,100,0
4,55,100,0
4,52,100,0
4,50,100,0
4,54,100,0
4,57,100,0
4,62,100,0
4,64,100,0
4,59,100,0
4,56,100,0
4,52,100,0
4,52,100,0
4,56,100,0
4,59,100,0
4,64,100,0
4,64,100,0
4,60,100,0
4,57,100,0
4,52,100,0
4,52,100,0
4,57,100,0
4,60,100,0
4,64,100,0
4,65,100,0
4,62,100,0
4,57,100,0
4,53,100,0
4,53,100,0
4,57,100,0
4,62,100,0
4,65,100,0
4,65,100,0
4,62,100,0
4,57,100,0
4,53,100,0
4,53,100,0
4,57,100,0
4,62,100,0
4,65,100,0
4,55,100,0
4,59,100,0
4,62,100,0
4,65,100,0
4,65,100,0
4,62,100,0
4,59,100,0
4,55,100,0
4,65,100,0
4,62,100,0
4,59,100,0
4,55,100,0
4,55,100,0
4,59,100,0
4,62,100,0
4,65,100,0
4,64,100,0
4,60,100,0
4,55,100,0
4,52,100,0
4,52,100,0
4,55,100,0
4,60,100,0
4,64,100,0
4,55,100,0
4,52,100,0
4,60,100,0
4,64,100,0
4,52,100,0
4,55,100,0
4,60,100,0
4,64,100,0
4,52,100,0
4,55,100,0
4,60,100,0
4,64,100,0
4,52,100,0
4,55,100,0
4,60,100,0
4,64,100,0
4,60,100,0
4,64,100,0
4,55,100,0
4,52,100,0
4,62,100,128
4,64,100,0
4,65,100,0
4,60,100,0
4,64,100,0
4,55,100,0
4,52,100,0
4,66,100,0
4,67,100,0
4,68,100,0
4,59,100,0
4,62,100,0
4,56,100,0
4,52,100,0
4,71,100,0
4,62,100,0
4,59,100,0
4,56,100,0
4,52,100,0
4,62,100,0
4,59,100,0
4,56,100,0
4,52,100,0
4,62,100,0
4,59,100,0
4,56,100,0
4,52,100,0
4,62,100,0
4,59,100,0
4,56,100,0
4,52,100,0
4,62,100,0
4,59,100,0
4,56,100,0
4,52,100,0
4,62,100,0
4,59,100,0
4,56,100,0
4,52,100,0
4,62,100,0
4,59,100,0
4,56,100,0
4,52,100,0
4,64,100,0
4,60,100,0
4,57,100,0
4,52,100,0
4,64,100,0
4,60,100,0
4,57,100,0
4,52,100,0
4,64,100,0
4,60,100,0
4,57,100,0
4,52,100,0
4,65,100,0
4,60,100,0
4,57,100,0
4,53,100,0
4,62,100,0
4,59,100,0
4,55,100,0
4,50,100,0
4,62,100,0
4,59,100,0
4,55,100,0
4,50,100,0
4,60,100,0
4,64,100,0
4,55,100,0
4,52,100,0
4,65,100,0
4,60,100,0
4,57,100,0
4,53,100,0
4,64,100,0
4,62,100,0
4,59,100,0
4,56,100,0
4,64,100,0
4,62,100,0
4,59,100,0
4,56,100,0
4,56,100,0
4,52,100,0
4,50,100,0
4,47,100,0
4,56,100,0
4,52,100,0
4,50,100,0
4,47,100,0
4,57,100,0
4,52,100,0
4,45,100,0
4,48,100,0
4,64,100,0
4,60,100,0
4,57,100,0
4,52,100,0
4,64,100,0
4,60,100,0
4,57,100,0
4,52,100,0
4,52,100,0
4,57,100,0
4,60,100,0
4,64,100,0
4,64,100,0
