track,note,velocity,time
3,65,110,1536
3,65,0,62
3,65,110,2
3,65,0,62
3,65,110,2
3,65,0,62
3,65,110,2
3,65,0,94
3,65,110,2
3,65,0,94
3,65,110,2
3,65,0,94
3,65,110,2
3,65,0,94
3,65,110,2
3,65,0,160
3,65,110,32
3,65,0,62
3,64,110,2
3,64,0,62
3,65,110,2
3,65,0,62
3,69,110,2
3,69,0,94
3,57,110,2
3,57,0,94
3,61,110,2
3,61,0,336
3,62,110,48
3,62,0,62
3,62,110,2
3,62,0,62
3,62,110,2
3,62,0,62
3,62,110,2
3,62,0,94
3,62,110,2
3,62,0,94
3,62,110,2
3,62,0,94
3,62,110,2
3,62,0,94
3,62,110,2
3,62,0,160
3,62,110,32
3,62,0,62
3,57,110,2
3,57,0,62
3,62,110,2
3,62,0,62
3,65,110,2
3,65,0,94
3,62,110,2
3,62,0,94
3,57,110,2
3,57,0,336
3,58,110,48
3,58,0,62
3,58,110,2
3,58,0,62
3,58,110,2
3,58,0,62
3,62,110,2
3,62,0,94
3,65,110,2
3,65,0,94
3,57,110,2
3,57,0,94
3,57,110,2
3,57,0,94
3,57,110,2
3,57,0,94
3,57,110,50
3,57,0,46
3,62,110,2
3,62,0,94
3,57,110,2
3,57,0,94
3,62,110,2
3,62,0,94
3,64,110,2
3,64,0,94
3,65,110,2
3,65,0,336
3,65,110,48
3,65,0,62
3,62,110,2
3,62,0,62
3,64,110,2
3,64,0,62
3,65,110,2
3,65,0,160
3,65,110,32
3,65,0,62
3,62,110,2
3,62,0,62
3,64,110,2
3,64,0,62
3,65,110,2
3,65,0,160
3,65,110,176
3,65,0,46
3,69,110,2
3,69,0,46
3,67,110,2
3,67,0,46
3,65,110,2
3,65,0,46
3,64,110,2
3,64,0,46
3,65,110,2
3,65,0,160
3,65,110,224
3,65,0,62
3,65,110,2
3,65,0,62
3,65,110,2
3,65,0,62
3,65,110,2
3,65,0,94
3,65,110,2
3,65,0,94
3,65,110,2
3,65,0,94
3,65,110,2
3,65,0,94
3,65,110,2
3,65,0,160
3,65,110,32
3,65,0,62
3,64,110,2
3,64,0,62
3,65,110,2
3,65,0,62
3,69,110,2
3,69,0,94
3,57,110,2
3,57,0,94
3,61,110,2
3,61,0,336
3,62,110,48
3,62,0,62
3,62,110,2
3,62,0,62
3,62,110,2
3,62,0,62
3,62,110,2
3,62,0,94
3,62,110,2
3,62,0,94
3,62,110,2
3,62,0,94
3,62,110,2
3,62,0,94
3,62,110,2
3,62,0,160
3,62,110,32
3,62,0,62
3,57,110,2
3,57,0,62
3,62,110,2
3,62,0,62
3,65,110,2
3,65,0,94
3,62,110,2
3,62,0,94
3,57,110,2
3,57,0,336
3,58,110,48
3,58,0,62
3,58,110,2
3,58,0,62
3,58,110,2
3,58,0,62
3,62,110,2
3,62,0,94
3,65,110,2
3,65,0,94
3,57,110,2
3,57,0,94
3,57,110,2
3,57,0,94
3,57,110,2
3,57,0,94
3,57,110,50
3,57,0,46
3,62,110,2
3,62,0,94
3,57,110,2
3,57,0,94
3,62,110,2
3,62,0,94
3,64,110,2
3,64,0,94
3,65,110,2
3,65,0,336
3,65,110,48
3,65,0,62
3,62,110,2
3,62,0,62
3,64,110,2
3,64,0,62
3,65,110,2
3,65,0,160
3,65,110,32
3,65,0,62
3,62,110,2
3,62,0,62
3,64,110,2
3,64,0,62
3,65,110,2
3,65,0,160
3,65,110,176
3,65,0,46
3,69,110,2
3,69,0,46
3,67,110,2
3,67,0,46
3,65,110,2
3,65,0,46
3,64,110,2
3,64,0,46
3,65,110,2
3,65,0,160
3,65,110,224
3,65,0,62
3,65,110,2
3,65,0,62
3,65,110,2
3,65,0,62
3,65,110,2
3,65,0,94
3,65,110,2
3,65,0,94
3,65,110,2
3,65,0,94
3,65,110,2
3,65,0,94
3,65,110,2
3,65,0,160
3,65,110,32
3,65,0,62
3,64,110,2
3,64,0,62
3,65,110,2
3,65,0,62
3,69,110,2
3,69,0,94
3,57,110,2
3,57,0,94
3,61,110,2
3,61,0,336
3,62,110,48
3,62,0,62
3,62,110,2
3,62,0,62
3,62,110,2
3,62,0,62
3,62,110,2
3,62,0,94
3,62,110,2
3,62,0,94
3,62,110,2
3,62,0,94
3,62,110,2
3,62,0,94
3,62,110,2
3,62,0,160
3,62,110,32
3,62,0,62
3,57,110,2
3,57,0,62
3,62,110,2
3,62,0,62
3,65,110,2
3,65,0,94
3,62,110,2
3,62,0,94
3,57,110,2
3,57,0,336
3,58,110,48
3,58,0,62
3,58,110,2
3,58,0,62
3,58,110,2
3,58,0,62
3,62,110,2
3,62,0,94
3,65,110,2
3,65,0,94
3,57,110,2
3,57,0,94
3,57,110,2
3,57,0,94
3,57,110,2
3,57,0,94
3,57,110,50
3,57,0,46
3,62,110,2
3,62,0,94
3,57,110,2
3,57,0,94
3,62,110,2
3,62,0,94
3,64,110,2
3,64,0,94
3,65,110,2
3,65,0,336
3,65,110,48
3,65,0,62
3,62,110,2
3,62,0,62
3,64,110,2
3,64,0,62
3,65,110,2
3,65,0,160
3,65,110,32
3,65,0,62
3,62,110,2
3,62,0,62
3,64,110,2
3,64,0,62
3,65,110,2
3,65,0,160
3,65,110,176
3,65,0,46
3,69,110,2
3,69,0,46
3,67,110,2
3,67,0,46
3,65,110,2
3,65,0,46
3,64,110,2
3,64,0,46
3,65,110,2
3,65,0,160
3,68,110,0
3,68,0,62
3,68,110,2
3,68,0,62
3,68,110,2
3,68,0,62
3,68,110,2
3,68,0,94
3,68,110,2
3,68,0,94
3,68,110,2
3,68,0,94
3,68,110,2
3,68,0,94
3,68,110,2
3,68,0,160
3,68,110,32
3,68,0,62
3,67,110,2
3,67,0,62
3,68,110,2
3,68,0,62
3,72,110,2
3,72,0,94
3,60,110,2
3,60,0,94
3,64,110,2
3,64,0,336
3,65,110,48
3,65,0,62
3,65,110,2
3,65,0,62
3,65,110,2
3,65,0,62
3,65,110,2
3,65,0,94
3,65,110,2
3,65,0,94
3,65,110,2
3,65,0,94
3,65,110,2
3,65,0,94
3,65,110,2
3,65,0,160
3,65,110,32
3,65,0,62
3,60,110,2
3,60,0,62
3,65,110,2
3,65,0,62
3,68,110,2
3,68,0,94
3,65,110,2
3,65,0,94
3,60,110,2
3,60,0,336
3,61,110,48
3,61,0,62
3,61,110,2
3,61,0,62
3,61,110,2
3,61,0,62
3,65,110,2
3,65,0,94
3,68,110,2
3,68,0,94
3,60,110,2
3,60,0,94
3,60,110,2
3,60,0,94
3,60,110,2
3,60,0,94
3,60,110,50
3,60,0,46
3,65,110,2
3,65,0,94
3,60,110,2
3,60,0,94
3,65,110,2
3,65,0,94
3,67,110,2
3,67,0,94
3,68,110,2
3,68,0,336
3,68,110,48
3,68,0,62
3,65,110,2
3,65,0,62
3,67,110,2
3,67,0,62
3,68,110,2
3,68,0,160
3,68,110,32
3,68,0,62
3,65,110,2
3,65,0,62
3,67,110,2
3,67,0,62
3,68,110,2
3,68,0,160
3,68,110,176
3,68,0,46
3,72,110,2
3,72,0,46
3,70,110,2
3,70,0,46
3,68,110,2
3,68,0,46
3,67,110,2
3,67,0,46
3,68,110,2
3,68,0,160
3,68,110,0
3,68,0,62
3,68,110,2
3,68,0,62
3,68,110,2
3,68,0,62
3,68,110,2
3,68,0,94
3,68,110,2
3,68,0,94
3,68,110,2
3,68,0,94
3,68,110,2
3,68,0,94
3,68,110,2
3,68,0,160
3,68,110,32
3,68,0,62
3,67,110,2
3,67,0,62
3,68,110,2
3,68,0,62
3,72,110,2
3,72,0,94
3,60,110,2
3,60,0,94
3,64,110,2
3,64,0,336
3,65,110,48
3,65,0,62
3,65,110,2
3,65,0,62
3,65,110,2
3,65,0,62
3,65,110,2
3,65,0,94
3,65,110,2
3,65,0,94
3,65,110,2
3,65,0,94
3,65,110,2
3,65,0,94
3,65,110,2
3,65,0,160
3,65,110,32
3,65,0,62
3,60,110,2
3,60,0,62
3,65,110,2
3,65,0,62
3,68,110,2
3,68,0,94
3,65,110,2
3,65,0,94
3,60,110,2
3,60,0,336
3,61,110,48
3,61,0,62
3,61,110,2
3,61,0,62
3,61,110,2
3,61,0,62
3,65,110,2
3,65,0,94
3,68,110,2
3,68,0,94
3,60,110,2
3,60,0,94
3,60,110,2
3,60,0,94
3,60,110,2
3,60,0,94
3,60,110,50
3,60,0,46
3,65,110,2
3,65,0,94
3,60,110,2
3,60,0,94
3,65,110,2
3,65,0,94
3,67,110,2
3,67,0,94
3,68,110,2
3,68,0,336
3,68,110,48
3,68,0,62
3,65,110,2
3,65,0,62
3,67,110,2
3,67,0,62
3,68,110,2
3,68,0,160
3,68,110,32
3,68,0,62
3,65,110,2
3,65,0,62
3,67,110,2
3,67,0,62
3,68,110,2
3,68,0,160
3,68,110,176
3,68,0,46
3,72,110,2
3,72,0,46
3,70,110,2
3,70,0,46
3,68,110,2
3,68,0,46
3,67,110,2
3,67,0,46
3,68,110,2
3,68,0,160
3,68,110,0
3,68,0,62
3,68,110,2
3,68,0,62
3,68,110,2
3,68,0,62
3,68,110,2
3,68,0,94
3,68,110,2
3,68,0,94
3,68,110,2
3,68,0,94
3,68,110,2
3,68,0,94
3,68,110,2
3,68,0,160
3,68,110,32
3,68,0,62
3,67,110,2
3,67,0,62
3,68,110,2
3,68,0,62
3,72,110,2
3,72,0,94
3,60,110,2
3,60,0,94
3,64,110,2
3,64,0,336
3,65,110,48
3,65,0,62
3,65,110,2
3,65,0,62
3,65,110,2
3,65,0,62
3,65,110,2
3,65,0,94
3,65,110,2
3,65,0,94
3,65,110,2
3,65,0,94
3,65,110,2
3,65,0,94
3,65,110,2
3,65,0,160
3,65,110,32
3,65,0,62
3,60,110,2
3,60,0,62
3,65,110,2
3,65,0,62
3,68,110,2
3,68,0,94
3,65,110,2
3,65,0,94
3,60,110,2
3,60,0,336
3,61,110,48
3,61,0,62
3,61,110,2
3,61,0,62
3,61,110,2
3,61,0,62
3,65,110,2
3,65,0,94
3,68,110,2
3,68,0,94
3,60,110,2
3,60,0,94
3,60,110,2
3,60,0,94
3,60,110,2
3,60,0,94
3,60,110,50
3,60,0,46
3,65,110,2
3,65,0,94
3,60,110,2
3,60,0,94
3,65,110,2
3,65,0,94
3,67,110,2
3,67,0,94
3,68,110,2
3,68,0,336
3,68,110,48
3,68,0,62
3,65,110,2
3,65,0,62
3,67,110,2
3,67,0,62
3,68,110,2
3,68,0,160
3,68,110,32
3,68,0,62
3,65,110,2
3,65,0,62
3,67,110,2
3,67,0,62
3,68,110,2
3,68,0,160
3,68,110,176
3,68,0,46
3,72,110,2
3,72,0,46
3,70,110,2
3,70,0,46
3,68,110,2
3,68,0,46
3,67,110,2
3,67,0,46
3,68,110,2
3,68,0,160
4,48,110,96
4,53,110,0
4,57,110,0
4,48,0,94
4,53,0,0
4,57,0,0
4,48,110,98
4,53,110,0
4,57,110,0
4,48,0,94
4,53,0,0
4,57,0,0
4,48,110,98
4,53,110,0
4,57,110,0
4,48,0,94
4,53,0,0
4,57,0,0
4,48,110,98
4,53,110,0
4,57,110,0
4,48,0,94
4,53,0,0
4,57,0,0
4,48,110,98
4,53,110,0
4,57,110,0
4,48,0,94
4,53,0,0
4,57,0,0
4,48,110,98
4,53,110,0
4,57,110,0
4,48,0,94
4,53,0,0
4,57,0,0
4,48,110,98
4,53,110,0
4,57,110,0
4,48,0,94
4,53,0,0
4,57,0,0
4,48,110,98
4,53,110,0
4,57,110,0
4,48,0,94
4,53,0,0
4,57,0,0
4,65,110,2
4,65,0,62
4,57,110,2
4,60,110,0
4,65,110,0
4,65,0,62
4,65,110,2
4,57,0,30
4,60,0,0
4,65,0,32
4,65,110,2
4,65,0,94
4,57,110,2
4,60,110,0
4,65,110,0
4,57,0,94
4,60,0,0
4,65,0,0
4,65,110,2
4,65,0,94
4,57,110,2
4,60,110,0
4,65,110,0
4,57,0,94
4,60,0,0
4,65,0,0
4,65,110,2
4,57,110,96
4,60,110,0
4,57,0,94
4,60,0,0
4,65,0,0
4,65,110,2
4,65,0,62
4,57,110,2
4,60,110,0
4,64,110,0
4,64,0,62
4,65,110,2
4,57,0,30
4,60,0,0
4,65,0,32
4,69,110,2
4,69,0,94
4,53,110,2
4,57,110,0
4,53,0,94
4,57,0,0
4,61,110,2
4,52,110,96
4,56,110,0
4,52,0,94
4,56,0,0
4,52,110,98
4,56,110,0
4,61,0,64
4,52,0,30
4,56,0,0
4,62,110,2
4,62,0,62
4,53,110,2
4,57,110,0
4,62,110,0
4,62,0,62
4,62,110,2
4,53,0,30
4,57,0,0
4,62,0,32
4,62,110,2
4,62,0,94
4,53,110,2
4,57,110,0
4,62,110,0
4,53,0,94
4,57,0,0
4,62,0,0
4,62,110,2
4,62,0,94
4,53,110,2
4,57,110,0
4,62,110,0
4,53,0,94
4,57,0,0
4,62,0,0
4,62,110,2
4,53,110,96
4,57,110,0
4,53,0,94
4,57,0,0
4,62,0,0
4,62,110,2
4,62,0,62
4,53,110,2
4,57,110,0
4,57,0,62
4,62,110,2
4,53,0,30
4,62,0,32
4,65,110,2
4,65,0,94
4,53,110,2
4,57,110,0
4,62,110,0
4,53,0,94
4,57,0,0
4,62,0,0
4,57,110,2
4,57,0,94
4,49,110,2
4,52,110,0
4,57,110,0
4,49,0,94
4,52,0,0
4,49,110,98
4,52,110,0
4,57,0,64
4,49,0,30
4,52,0,0
4,58,110,2
4,58,0,62
4,50,110,2
4,53,110,0
4,58,110,0
4,58,0,62
4,58,110,2
4,50,0,30
4,53,0,0
4,58,0,32
4,62,110,2
4,62,0,94
4,53,110,2
4,58,110,0
4,65,110,0
4,53,0,94
4,58,0,0
4,65,0,0
4,57,110,2
4,57,0,94
4,49,110,2
4,52,110,0
4,57,110,0
4,49,0,94
4,52,0,0
4,57,0,0
4,57,110,2
4,57,0,94
4,49,110,2
4,52,110,0
4,57,110,48
4,49,0,46
4,52,0,0
4,57,0,0
4,62,110,2
4,62,0,94
4,53,110,2
4,57,110,0
4,53,0,94
4,57,0,0
4,62,110,2
4,62,0,94
4,53,110,2
4,57,110,0
4,64,110,0
4,53,0,94
4,57,0,0
4,64,0,0
4,65,110,2
4,55,110,96
4,62,110,0
4,55,0,94
4,62,0,0
4,55,110,98
4,62,110,0
4,65,0,64
4,55,0,30
4,62,0,0
4,65,110,2
4,65,0,62
4,55,110,2
4,59,110,0
4,62,110,0
4,62,0,62
4,64,110,2
4,55,0,30
4,59,0,0
4,64,0,32
4,65,110,2
4,55,110,96
4,59,110,0
4,55,0,94
4,59,0,0
4,65,0,0
4,65,110,2
4,65,0,62
4,55,110,2
4,59,110,0
4,62,110,0
4,62,0,62
4,64,110,2
4,55,0,30
4,59,0,0
4,64,0,32
4,65,110,2
4,59,110,96
4,62,110,0
4,59,0,94
4,62,0,0
4,65,0,0
4,58,127,2
4,64,127,0
4,67,127,0
4,58,0,94
4,64,0,0
4,67,0,0
4,56,110,338
4,56,0,46
4,60,110,2
4,60,0,46
4,64,110,2
4,64,0,46
4,68,110,2
4,68,0,46
4,64,110,2
4,64,0,46
4,60,110,2
4,60,0,46
4,56,110,2
4,56,0,46
4,65,110,2
4,65,0,62
4,57,110,2
4,60,110,0
4,65,110,0
4,65,0,62
4,65,110,2
4,57,0,30
4,60,0,0
4,65,0,32
4,65,110,2
4,65,0,94
4,57,110,2
4,60,110,0
4,65,110,0
4,57,0,94
4,60,0,0
4,65,0,0
4,65,110,2
4,65,0,94
4,57,110,2
4,60,110,0
4,65,110,0
4,57,0,94
4,60,0,0
4,65,0,0
4,65,110,2
4,57,110,96
4,60,110,0
4,57,0,94
4,60,0,0
4,65,0,0
4,65,110,2
4,65,0,62
4,57,110,2
4,60,110,0
4,64,110,0
4,64,0,62
4,65,110,2
4,57,0,30
4,60,0,0
4,65,0,32
4,69,110,2
4,69,0,94
4,53,110,2
4,57,110,0
4,53,0,94
4,57,0,0
4,61,110,2
4,52,110,96
4,56,110,0
4,52,0,94
