track,note,velocity,time
3,72,110,8448
3,72,110,64
3,69,110,64
3,65,110,64
3,64,110,64
3,65,110,8
3,67,110,64
3,69,110,64
3,65,110,832
3,70,110,64
3,65,110,832
3,69,110,64
3,72,110,64
3,72,110,8
3,69,110,64
3,65,110,64
3,64,110,64
3,65,110,64
3,67,110,64
3,69,110,64
3,72,110,96
3,67,110,96
3,72,110,96
3,65,110,96
3,72,110,64
3,72,110,8
3,69,110,64
3,65,110,64
3,64,110,64
3,65,110,8
3,67,110,64
3,69,110,64
3,65,110,832
3,70,110,64
3,65,110,832
3,69,110,64
3,72,110,64
3,72,110,8
3,69,110,64
3,65,110,64
3,64,110,64
3,65,110,64
3,67,110,64
3,69,110,64
3,72,127,448
3,67,110,96
3,72,127,448
3,65,110,96
3,72,110,480
3,72,110,64
3,72,110,64
3,72,110,8
3,72,110,64
3,72,110,64
3,72,110,64
3,72,110,64
3,72,110,64
3,72,110,64
3,74,110,96
3,70,110,64
3,69,110,64
3,67,110,8
3,72,110,64
3,72,110,64
3,72,110,64
3,72,110,8
3,72,110,64
3,72,110,64
3,72,110,64
3,72,110,64
3,72,110,64
3,72,110,64
3,74,110,96
3,70,110,64
3,69,110,64
3,67,110,8
3,72,110,64
3,72,110,64
3,72,110,64
3,72,110,8
3,72,110,64
3,72,110,64
3,72,110,64
3,72,110,64
3,72,110,64
3,72,110,64
3,74,110,96
3,70,110,64
3,69,110,64
3,67,110,8
3,72,110,448
3,72,110,64
3,72,110,64
3,60,110,64
3,72,110,64
3,72,110,64
3,69,110,64
3,65,110,64
3,64,110,64
3,65,110,8
3,67,110,64
3,69,110,64
3,65,110,832
3,70,110,64
3,65,110,832
3,69,110,64
3,72,110,64
3,72,110,8
3,69,110,64
3,65,110,64
3,64,110,64
3,65,110,64
3,67,110,64
3,69,110,64
3,72,110,96
3,67,110,96
3,72,110,96
3,65,110,96
3,72,110,64
3,72,110,8
3,69,110,64
3,65,110,64
3,64,110,64
3,65,110,8
3,67,110,64
3,69,110,64
3,65,110,832
3,70,110,64
3,65,110,832
3,69,110,64
3,72,110,64
3,72,110,8
3,69,110,64
3,65,110,64
3,64,110,64
3,65,110,64
3,67,110,64
3,69,110,64
3,72,127,448
3,67,110,96
3,72,127,448
3,65,110,96
3,72,110,480
3,72,110,64
3,72,110,64
3,72,110,8
3,72,110,64
3,72,110,64
3,72,110,64
3,72,110,64
3,72,110,64
3,72,110,64
3,74,110,96
3,70,110,64
3,69,110,64
3,67,110,8
3,72,110,64
3,72,110,64
3,72,110,64
3,72,110,8
3,72,110,64
3,72,110,64
3,72,110,64
3,72,110,64
3,72,110,64
3,72,110,64
3,74,110,96
3,70,110,64
3,69,110,64
3,67,110,8
3,72,110,64
3,72,110,64
3,72,110,64
3,72,110,8
3,72,110,64
3,72,110,64
3,72,110,64
3,72,110,64
3,72,110,64
3,72,110,64
3,74,110,96
3,70,110,64
3,69,110,64
3,67,110,8
3,72,110,448
3,72,110,64
3,72,110,64
3,60,110,64
3,72,110,64
3,72,110,64
3,69,110,64
3,65,110,64
3,64,110,64
3,65,110,8
3,67,110,64
3,69,110,64
3,65,110,832
3,70,110,64
3,65,110,832
3,69,110,64
3,72,110,64
3,72,110,8
3,69,110,64
3,65,110,64
3,64,110,64
3,65,110,64
3,67,110,64
3,69,110,64
3,72,110,96
3,67,110,96
3,72,110,96
3,65,110,96
3,72,110,64
3,72,110,8
3,69,110,64
3,65,110,64
3,64,110,64
3,65,110,8
3,67,110,64
3,69,110,64
3,65,110,832
3,70,110,64
3,65,110,832
3,69,110,64
3,72,110,64
3,72,110,8
3,69,110,64
3,65,110,64
3,64,110,64
3,65,110,64
3,67,110,64
3,69,110,64
3,72,127,448
3,67,110,96
3,72,127,448
3,65,110,96
3,72,110,480
3,72,110,64
3,72,110,64
3,72,110,8
3,72,110,64
3,72,110,64
3,72,110,64
3,72,110,64
3,72,110,64
3,72,110,64
3,74,110,96
3,70,110,64
3,69,110,64
3,67,110,8
3,72,110,64
3,72,110,64
3,72,110,64
3,72,110,8
3,72,110,64
3,72,110,64
3,72,110,64
3,72,110,64
3,72,110,64
3,72,110,64
3,74,110,96
3,70,110,64
3,69,110,64
3,67,110,8
3,72,110,64
3,72,110,64
3,72,110,64
3,72,110,8
3,72,110,64
3,72,110,64
3,72,110,64
3,72,110,64
3,72,110,64
3,72,110,64
3,74,110,96
3,70,110,64
3,69,110,64
3,67,110,8
3,72,110,448
3,72,110,64
3,72,110,64
3,60,110,64
3,72,110,64
3,72,110,64
3,69,110,64
3,65,110,64
3,64,110,64
3,65,110,8
3,67,110,64
3,69,110,64
3,65,110,832
3,70,110,64
3,65,110,832
3,69,110,64
3,72,110,64
3,72,110,8
3,69,110,64
3,65,110,64
3,64,110,64
3,65,110,64
3,67,110,64
3,69,110,64
3,72,110,96
3,67,110,96
3,72,110,96
3,65,110,96
3,72,110,64
3,72,110,8
3,69,110,64
3,65,110,64
3,64,110,64
3,65,110,8
3,67,110,64
3,69,110,64
3,65,110,832
3,70,110,64
3,65,110,832
3,69,110,64
3,72,110,64
3,72,110,8
3,69,110,64
3,65,110,64
3,64,110,64
3,65,110,64
3,67,110,64
3,69,110,64
3,72,127,448
3,67,110,96
3,72,127,448
3,65,110,96
3,72,110,64
3,72,110,64
3,69,110,64
3,65,110,64
3,64,110,64
3,65,110,8
3,67,110,64
3,69,110,64
3,65,110,832
3,70,110,64
3,65,110,832
3,69,110,64
3,72,110,96
3,65,110,96
3,64,110,64
3,65,110,64
3,67,110,64
3,69,110,64
3,72,110,96
3,67,110,96
3,72,110,96
3,65,110,96
3,72,110,64
3,72,110,8
3,69,110,64
3,65,110,64
3,64,110,64
3,65,110,8
3,67,110,64
3,69,110,64
3,65,110,832
3,70,110,64
3,65,110,832
3,69,110,64
3,72,110,96
3,65,110,96
3,64,110,64
3,65,110,64
3,67,110,64
3,69,110,64
3,72,127,448
3,67,110,96
3,72,127,448
3,65,110,96
3,72,110,480
3,72,110,64
3,72,110,64
3,72,110,8
3,72,110,64
3,72,110,64
3,72,110,64
3,72,110,64
3,72,110,64
3,72,110,64
3,74,110,96
3,70,110,64
3,69,110,64
3,67,110,8
3,72,110,64
3,72,110,64
3,72,110,64
3,72,110,8
3,72,110,64
3,72,110,64
3,72,110,64
3,72,110,64
3,72,110,64
3,72,110,64
3,74,110,96
3,70,110,64
3,69,110,64
3,67,110,8
3,72,110,64
3,72,110,64
3,72,110,64
3,72,110,8
3,72,110,64
3,72,110,64
3,72,110,64
3,72,110,64
3,72,110,64
3,72,110,64
3,74,110,96
3,70,110,64
3,69,110,64
3,67,110,8
3,72,110,448
3,72,110,64
3,72,110,64
3,60,110,64
3,72,110,64
3,72,110,64
3,69,110,64
3,65,110,64
3,64,110,64
3,65,110,8
3,67,110,64
3,69,110,64
3,65,110,832
3,70,110,64
3,65,110,832
3,69,110,64
3,72,110,64
3,72,110,8
3,69,110,64
3,65,110,64
3,64,110,64
3,65,110,64
3,67,110,64
3,69,110,64
3,72,110,96
3,67,110,96
3,72,110,96
3,65,110,96
3,72,110,64
3,72,110,8
3,69,110,64
3,65,110,64
3,64,110,64
3,65,110,8
3,67,110,64
3,69,110,64
3,65,110,832
3,70,110,64
3,65,110,832
3,69,110,64
3,72,110,64
3,72,110,8
3,69,110,64
3,65,110,64
3,64,110,64
3,65,110,64
3,67,110,64
3,69,110,64
3,72,127,448
3,67,110,96
3,72,127,448
3,65,110,96
3,72,110,480
3,72,110,64
3,72,110,64
3,72,110,8
3,72,110,64
3,72,110,64
3,72,110,64
3,72,110,64
3,72,110,64
3,72,110,64
3,74,110,96
3,70,110,64
3,69,110,64
3,67,110,8
3,72,110,64
3,72,110,64
3,72,110,64
3,72,110,8
3,72,110,64
3,72,110,64
3,72,110,64
3,72,110,64
3,72,110,64
3,72,110,64
3,74,110,96
3,70,110,64
3,69,110,64
3,67,110,8
3,72,110,64
3,72,110,64
3,72,110,64
3,72,110,8
3,72,110,64
3,72,110,64
3,72,110,64
3,72,110,64
3,72,110,64
3,72,110,64
3,74,110,96
3,70,110,64
3,69,110,64
3,67,110,8
3,72,110,448
3,72,110,64
3,72,110,64
3,60,110,64
3,72,110,64
3,72,110,64
3,69,110,64
3,65,110,64
3,64,110,64
3,65,110,8
3,67,110,64
3,69,110,64
3,65,110,832
3,70,110,64
3,65,110,832
3,69,110,64
3,72,110,64
3,72,110,8
3,69,110,64
3,65,110,64
3,64,110,64
3,65,110,64
3,67,110,64
3,69,110,64
3,72,110,96
3,67,110,96
3,72,110,96
3,65,110,96
3,72,110,64
3,72,110,8
3,69,110,64
3,65,110,64
3,64,110,64
3,65,110,8
3,67,110,64
3,69,110,64
3,65,110,832
3,70,110,64
3,65,110,832
3,69,110,64
3,72,110,64
3,72,110,8
3,69,110,64
3,65,110,64
3,64,110,64
3,65,110,64
3,67,110,64
3,69,110,64
3,72,110,96
3,67,110,96
3,72,110,96
3,77,110,96
4,72,110,0
4,72,110,64
4,72,110,64
4,72,110,8
4,72,110,64
4,72,110,64
4,72,110,64
4,72,110,64
4,72,110,64
4,72,110,64
4,72,110,96
4,70,110,64
4,69,110,64
4,67,110,8
4,76,110,448
4,79,110,0
4,84,110,0
4,76,110,64
4,79,110,0
4,84,110,0
4,76,110,64
4,79,110,0
4,84,110,0
4,64,110,64
4,67,110,0
4,72,110,0
4,72,110,64
4,72,110,64
4,69,110,64
4,57,110,64
4,60,110,384
4,65,110,0
4,60,110,448
4,65,110,0
4,60,110,448
4,65,110,0
4,60,110,448
4,65,110,0
4,58,110,64
4,62,110,384
4,65,110,0
4,62,110,448
4,65,110,0
4,57,110,64
4,60,110,384
4,65,110,0
4,60,110,448
4,65,110,0
4,60,110,448
4,65,110,0
4,60,110,448
4,65,110,0
4,60,110,448
4,65,110,0
4,72,110,0
4,59,110,96
4,62,110,0
4,67,110,0
4,58,110,96
4,64,110,0
4,72,110,0
4,57,110,96
4,60,110,0
4,65,110,0
4,57,110,1216
4,60,110,384
4,65,110,0
4,60,110,448
4,65,110,0
4,60,110,448
4,65,110,0
4,60,110,448
4,65,110,0
4,58,110,64
4,62,110,384
4,65,110,0
4,62,110,448
4,65,110,0
4,57,110,64
4,60,110,384
4,65,110,0
4,60,110,448
4,65,110,0
4,60,110,448
4,65,110,0
4,60,110,448
4,65,110,0
4,60,110,448
4,65,110,0
4,72,110,0
4,59,110,96
4,62,110,0
4,67,110,0
4,58,110,96
4,64,110,0
4,72,110,0
4,57,110,96
4,60,110,0
4,65,110,0
4,84,110,480
4,84,110,64
4,84,110,64
4,84,110,8
4,84,110,64
4,84,110,64
4,84,110,64
4,84,110,64
4,84,110,64
4,84,110,64
4,86,110,96
4,82,110,64
4,81,110,64
4,79,110,8
4,72,110,64
4,72,110,64
4,72,110,64
4,72,110,8
4,72,110,64
4,72,110,64
4,72,110,64
4,72,110,64
4,72,110,64
4,72,110,64
4,74,110,96
4,70,110,64
4,69,110,64
4,67,110,8
4,72,110,64
4,72,110,64
4,72,110,64
4,72,110,8
4,72,110,64
4,72,110,64
4,72,110,64
4,72,110,64
4,72,110,64
4,72,110,64
4,74,110,96
4,70,110,64
4,69,110,64
4,67,110,8
4,76,110,448
4,79,110,0
4,84,110,0
4,76,110,64
4,79,110,0
4,84,110,0
4,76,110,64
4,79,110,0
4,84,110,0
4,60,110,64
4,72,110,64
4,72,110,64
4,69,110,64
4,57,110,64
4,60,110,384
4,65,110,0
4,60,110,448
4,65,110,0
4,60,110,448
4,65,110,0
4,60,110,448
4,65,110,0
4,58,110,64
4,62,110,384
4,65,110,0
4,62,110,448
4,65,110,0
4,57,110,64
4,60,110,384
4,65,110,0
4,60,110,448
4,65,110,0
4,60,110,448
4,65,110,0
4,60,110,448
4,65,110,0
4,60,110,448
4,65,110,0
4,72,110,0
4,59,110,96
4,62,110,0
4,67,110,0
4,58,110,96
4,64,110,0
4,72,110,0
4,57,110,96
4,60,110,0
4,65,110,0
4,57,110,1216
4,60,110,384
4,65,110,0
4,60,110,448
4,65,110,0
4,60,110,448
4,65,110,0
4,60,110,448
4,65,110,0
4,58,110,64
4,62,110,384
4,65,110,0
4,62,110,448
4,65,110,0
4,57,110,64
4,60,110,384
4,65,110,0
4,60,110,448
4,65,110,0
4,60,110,448
4,65,110,0
4,60,110,448
4,65,110,0
4,60,110,448
4,65,110,0
4,72,110,0
4,59,110,96
4,62,110,0
4,67,110,0
4,58,110,96
4,64,110,0
4,72,110,0
4,57,110,96
4,60,110,0
4,65,110,0
4,84,110,480
4,84,110,64
4,84,110,64
4,84,110,8
4,84,110,64
4,84,110,64
4,84,110,64
4,84,110,64
4,84,110,64
4,84,110,64
4,86,110,96
4,82,110,64
4,81,110,64
4,79,110,8
4,72,110,64
4,72,110,64
4,72,110,64
4,72,110,8
4,72,110,64
4,72,110,64
4,72,110,64
4,72,110,64
4,72,110,64
4,72,110,64
4,74,110,96
4,70,110,64
4,69,110,64
4,67,110,8
4,72,110,64
4,72,110,64
4,72,110,64
4,72,110,8
4,72,110,64
4,72,110,64
4,72,110,64
4,72,110,64
4,72,110,64
4,72,110,64
4,74,110,96
4,70,110,64
4,69,110,64
4,67,110,8
4,76,110,448
4,79,110,0
4,84,110,0
4,76,110,64
4,79,110,0
4,84,110,0
4,76,110,64
4,79,110,0
4,84,110,0
4,60,110,64
4,72,110,64
4,72,110,64
4,69,110,64
4,57,110,64
4,60,110,384
4,65,110,0
4,60,110,448
4,65,110,0
4,60,110,448
4,65,110,0
4,60,110,448
4,65,110,0
4,58,110,64
4,62,110,384
4,65,110,0
4,62,110,448
4,65,110,0
4,57,110,64
4,60,110,384
4,65,110,0
4,60,110,448
4,65,110,0
4,60,110,448
4,65,110,0
4,60,110,448
4,65,110,0
4,60,110,448
4,65,110,0
4,72,110,0
4,59,110,96
4,62,110,0
4,67,110,0
4,58,110,96
4,64,110,0
4,72,110,0
4,57,110,96
4,60,110,0
4,65,110,0
4,57,110,1216
4,60,110,384
4,65,110,0
4,60,110,448
4,65,110,0
4,60,110,448
4,65,110,0
4,60,110,448
4,65,110,0
4,58,110,64
4,62,110,384
4,65,110,0
4,62,110,448
4,65,110,0
4,57,110,64
4,60,110,384
4,65,110,0
4,60,110,448
4,65,110,0
4,60,110,448
4,65,110,0
4,60,110,448
4,65,110,0
4,60,110,448
4,65,110,0
4,72,110,0
4,59,110,96
4,62,110,0
4,67,110,0
4,58,110,96
4,64,110,0
4,72,110,0
4,57,110,96
4,60,110,0
4,65,110,0
4,84,110,480
4,84,110,64
4,84,110,64
4,84,110,8
4,84,110,64
4,84,110,64
4,84,110,64
4,84,110,64
4,84,110,64
4,84,110,64
4,86,110,96
4,82,110,64
4,81,110,64
4,79,110,8
4,72,110,64
4,72,110,64
4,72,110,64
4,72,110,8
4,72,110,64
4,72,110,64
4,72,110,64
4,72,110,64
4,72,110,64
4,72,110,64
4,74,110,96
4,70,110,64
4,69,110,64
4,67,110,8
4,72,110,64
4,72,110,64
4,72,110,64
4,72,110,8
4,72,110,64
4,72,110,64
4,72,110,64
4,72,110,64
4,72,110,64
4,72,110,64
4,74,110,96
4,70,110,64
4,69,110,64
4,67,110,8
4,76,110,448
4,79,110,0
4,84,110,0
4,76,110,64
4,79,110,0
4,84,110,0
4,76,110,64
4,79,110,0
4,84,110,0
4,60,110,64
4,72,110,64
4,72,110,64
4,69,110,64
4,57,110,64
4,60,110,384
4,65,110,0
4,60,110,448
4,65,110,0
4,60,110,448
4,65,110,0
4,60,110,448
4,65,110,0
4,58,110,64
4,62,110,384
4,65,110,0
4,62,110,448
4,65,110,0
4,57,110,64
4,60,110,384
4,65,110,0
4,60,110,448
4,65,110,0
4,60,110,448
4,65,110,0
4,60,110,448
4,65,110,0
4,60,110,448
4,65,110,0
4,72,110,0
4,59,110,96
4,62,110,0
4,67,110,0
4,58,110,96
4,64,110,0
4,72,110,0
4,57,110,96
4,60,110,0
