track,note,velocity,time
1,37,89,1442
1,32,89,4
1,32,85,56
1,36,89,72
1,39,82,18
1,32,89,18
1,32,85,56
1,36,89,72
1,39,82,18
1,32,89,18
1,32,85,56
1,36,89,72
1,39,82,18
1,32,89,18
1,32,85,56
1,36,89,72
1,39,82,18
1,37,89,18
1,32,85,56
1,32,89,72
1,34,82,18
1,37,89,18
1,32,85,56
1,32,89,72
1,34,82,18
1,37,89,18
1,32,85,56
1,32,89,72
1,34,82,18
1,37,89,18
1,32,85,56
1,32,89,72
1,34,82,18
1,32,89,18
1,32,85,56
1,36,89,72
1,39,82,18
1,32,89,18
1,32,85,56
1,36,89,72
1,39,82,18
1,32,89,18
1,32,85,56
1,36,89,72
1,39,82,18
1,32,89,18
1,32,85,56
1,36,89,72
1,39,82,18
1,37,89,18
1,32,85,56
1,32,89,72
1,34,82,18
1,37,89,18
1,32,85,56
1,32,89,72
1,34,82,18
1,37,89,18
1,32,85,56
1,32,89,72
1,34,82,18
1,37,89,18
1,32,85,56
1,32,89,72
1,34,82,18
1,37,89,18
1,32,85,56
1,32,89,72
1,34,82,18
1,37,89,18
1,32,85,56
1,32,89,72
1,34,82,18
1,37,89,18
1,32,85,56
1,32,89,72
1,34,82,18
1,37,89,18
1,32,85,56
1,32,89,72
1,34,82,18
1,32,89,18
1,32,85,56
1,36,89,72
1,39,82,18
1,32,89,18
1,32,85,56
1,36,89,72
1,39,82,18
1,32,89,18
1,32,85,56
1,36,89,72
1,39,82,18
1,32,89,18
1,32,85,56
1,36,89,72
1,39,82,18
1,32,89,18
1,32,85,56
1,36,89,72
1,39,82,18
1,32,89,18
1,32,85,56
1,36,89,72
1,39,82,18
1,32,89,18
1,32,85,56
1,36,89,72
1,39,82,18
1,32,89,18
1,32,85,56
1,36,89,72
1,39,82,18
1,37,89,18
1,32,85,56
1,32,89,72
1,34,82,18
1,37,89,18
1,32,85,56
1,32,89,72
1,34,82,18
1,37,89,18
1,32,85,56
1,32,89,72
1,34,82,18
1,37,89,18
1,32,85,56
1,32,89,72
1,34,82,18
1,30,91,18
1,30,87,56
1,34,91,72
1,37,84,18
1,30,91,18
1,30,87,56
1,34,91,72
1,37,84,18
1,30,91,18
1,30,87,56
1,33,91,72
1,37,84,18
1,30,91,18
1,30,87,56
1,33,91,72
1,37,84,18
1,37,91,18
1,32,87,56
1,32,91,72
1,34,84,18
1,37,91,18
1,32,87,56
1,32,91,72
1,34,84,18
1,34,91,18
1,29,87,56
1,29,91,72
1,32,84,18
1,34,91,18
1,29,87,56
1,29,91,72
1,32,84,18
1,30,91,18
1,30,87,56
1,34,91,72
1,37,84,18
1,30,91,18
1,30,87,56
1,34,91,72
1,37,84,18
1,32,91,18
1,32,87,56
1,36,91,72
1,39,84,18
1,32,91,18
1,32,87,56
1,36,91,72
1,39,84,18
1,37,91,18
1,32,87,56
1,32,91,72
1,34,84,18
1,37,91,18
1,32,87,56
1,32,91,72
1,34,84,18
1,37,91,18
1,32,87,56
1,32,91,72
1,34,84,18
1,37,91,18
1,32,87,56
1,32,91,72
1,34,84,18
1,32,96,18
1,32,92,56
1,36,96,72
1,39,89,18
1,32,96,18
1,32,92,56
1,36,96,72
1,39,89,18
1,32,96,18
1,32,92,56
1,36,96,72
1,39,89,18
1,32,96,18
1,32,92,56
1,36,96,72
1,39,89,18
1,37,96,18
1,32,92,56
1,32,96,72
1,34,89,18
1,37,96,18
1,32,92,56
1,32,96,72
1,34,89,18
1,37,96,18
1,32,92,56
1,32,96,72
1,34,89,18
1,37,96,18
1,32,92,56
1,32,96,72
1,34,89,18
1,32,96,18
1,32,92,56
1,36,96,72
1,39,89,18
1,32,96,18
1,32,92,56
1,36,96,72
1,39,89,18
1,32,96,18
1,32,92,56
1,36,96,72
1,39,89,18
1,32,96,18
1,32,92,56
1,36,96,72
1,39,89,18
1,37,96,18
1,32,92,56
1,32,96,72
1,34,89,18
1,37,96,18
1,32,92,56
1,32,96,72
1,34,89,18
1,37,96,18
1,32,92,56
1,32,96,72
1,34,89,18
1,37,96,18
1,32,92,56
1,32,96,72
1,34,89,18
1,32,97,18
1,32,93,56
1,36,97,72
1,39,90,18
1,32,97,18
1,32,93,56
1,36,97,72
1,39,90,18
1,32,97,18
1,32,93,56
1,36,97,72
1,39,90,18
1,32,97,18
1,32,93,56
1,36,97,72
1,39,90,18
1,37,97,18
1,32,93,56
1,32,97,72
1,34,90,18
1,37,97,18
1,32,93,56
1,32,97,72
1,34,90,18
1,37,97,18
1,32,93,56
1,32,97,72
1,34,90,18
1,37,97,18
1,32,93,56
1,32,97,72
1,34,90,18
1,30,97,18
1,30,93,56
1,34,97,72
1,37,90,18
1,30,97,18
1,30,93,56
1,34,97,72
1,37,90,18
1,37,97,18
1,32,93,56
1,32,97,72
1,34,90,18
1,37,97,18
1,32,93,56
1,32,97,72
1,34,90,18
1,32,97,18
1,32,93,56
1,36,97,72
1,39,90,18
1,32,97,18
1,32,93,56
1,36,97,72
1,39,90,18
1,37,97,18
1,32,93,56
1,32,97,72
1,34,90,18
1,37,97,18
1,32,93,56
1,32,97,72
1,34,90,18
1,32,93,18
1,32,89,56
1,36,93,72
1,39,86,18
1,32,93,18
1,32,89,56
1,36,93,72
1,39,86,18
1,32,93,18
1,32,89,56
1,36,93,72
1,39,86,18
1,32,93,18
1,32,89,56
1,36,93,72
1,39,86,18
1,37,93,18
1,32,89,56
1,32,93,72
1,34,86,18
1,37,93,18
1,32,89,56
1,32,93,72
1,34,86,18
1,37,93,18
1,32,89,56
1,32,93,72
1,34,86,18
1,37,93,18
1,32,89,56
1,32,93,72
1,34,86,18
1,32,93,18
1,32,89,56
1,36,93,72
1,39,86,18
1,32,93,18
1,32,89,56
1,36,93,72
1,39,86,18
1,32,93,18
1,32,89,56
1,36,93,72
1,39,86,18
1,32,93,18
1,32,89,56
1,36,93,72
1,39,86,18
1,37,93,18
1,32,89,56
1,32,93,72
1,34,86,18
1,37,93,18
1,32,89,56
1,32,93,72
1,34,86,18
1,37,93,18
1,32,89,56
1,32,93,72
1,34,86,18
1,37,93,18
1,32,89,56
1,32,93,72
1,34,86,18
1,37,91,18
1,32,87,56
1,32,91,72
1,34,84,18
1,37,91,18
1,32,87,56
1,32,91,72
1,34,84,18
1,37,91,18
1,32,87,56
1,32,91,72
1,34,84,18
1,37,91,18
1,32,87,56
1,32,91,72
1,34,84,18
1,32,91,18
1,32,87,56
1,36,91,72
1,39,84,18
1,32,91,18
1,32,87,56
1,36,91,72
1,39,84,18
1,32,91,18
1,32,87,56
1,36,91,72
1,39,84,18
1,32,91,18
1,32,87,56
1,36,91,72
1,39,84,18
1,32,91,18
1,32,87,56
1,36,91,72
1,39,84,18
1,32,91,18
1,32,87,56
1,36,91,72
1,39,84,18
1,32,91,18
1,32,87,56
1,36,91,72
1,39,84,18
1,32,91,18
1,32,87,56
1,36,91,72
1,39,84,18
1,37,91,18
1,32,87,56
1,32,91,72
1,34,84,18
1,37,91,18
1,32,87,56
1,32,91,72
1,34,84,18
1,37,91,18
1,32,87,56
1,32,91,72
1,34,84,18
1,37,91,18
1,32,87,56
1,32,91,72
1,34,84,18
1,30,91,18
1,30,87,56
1,34,91,72
1,37,84,18
1,30,91,18
1,30,87,56
1,34,91,72
1,37,84,18
1,30,91,18
1,30,87,56
1,33,91,72
1,37,84,18
1,30,91,18
1,30,87,56
1,33,91,72
1,37,84,18
1,37,91,18
1,32,87,56
1,32,91,72
1,34,84,18
1,37,91,18
1,32,87,56
1,32,91,72
1,34,84,18
1,34,91,18
1,29,87,56
1,29,91,72
1,32,84,18
1,34,91,18
1,29,87,56
1,29,91,72
1,32,84,18
1,30,91,18
1,30,87,56
1,34,91,72
1,37,84,18
1,30,91,18
1,30,87,56
1,34,91,72
1,37,84,18
1,32,91,18
1,32,87,56
1,36,91,72
1,39,84,18
1,32,91,18
1,32,87,56
1,36,91,72
1,39,84,18
1,37,91,18
1,32,87,56
1,32,91,72
1,34,84,18
1,37,91,18
1,32,87,56
1,32,91,72
1,34,84,18
1,37,91,18
1,32,87,56
1,32,91,72
1,34,84,18
1,37,91,18
1,32,87,56
1,32,91,72
1,34,84,18
1,32,96,18
1,32,92,56
1,36,96,72
1,39,89,18
1,32,96,18
1,32,92,56
1,36,96,72
1,39,89,18
1,32,96,18
1,32,92,56
1,36,96,72
1,39,89,18
1,32,96,18
1,32,92,56
1,36,96,72
1,39,89,18
1,37,96,18
1,32,92,56
1,32,96,72
1,34,89,18
1,37,96,18
1,32,92,56
1,32,96,72
1,34,89,18
1,37,96,18
1,32,92,56
1,32,96,72
1,34,89,18
1,37,96,18
1,32,92,56
1,32,96,72
1,34,89,18
1,32,96,18
1,32,92,56
1,36,96,72
1,39,89,18
1,32,96,18
1,32,92,56
1,36,96,72
1,39,89,18
1,32,96,18
1,32,92,56
1,36,96,72
1,39,89,18
1,32,96,18
1,32,92,56
1,36,96,72
1,39,89,18
1,37,96,18
1,32,92,56
1,32,96,72
1,34,89,18
1,37,96,18
1,32,92,56
1,32,96,72
1,34,89,18
1,37,96,18
1,32,92,56
1,32,96,72
1,34,89,18
1,37,96,18
1,32,92,56
1,32,96,72
1,34,89,18
1,32,98,18
1,32,94,56
1,36,98,72
1,39,91,18
1,32,98,18
1,32,94,56
1,36,98,72
1,39,91,18
1,32,98,18
1,32,94,56
1,36,98,72
1,39,91,18
1,32,98,18
1,32,94,56
1,36,98,72
1,39,91,18
1,37,98,18
1,32,94,56
1,32,98,72
1,34,91,18
1,37,98,18
1,32,94,56
1,32,98,72
1,34,91,18
1,37,98,18
1,32,94,56
1,32,98,72
1,34,91,18
1,37,98,18
1,32,94,56
1,32,98,72
1,34,91,18
1,30,98,18
1,30,94,56
1,34,98,72
1,37,91,18
1,30,98,18
1,30,94,56
1,34,98,72
1,37,91,18
1,37,98,18
1,32,94,56
1,32,98,72
1,34,91,18
1,37,98,18
1,32,94,56
1,32,98,72
1,34,91,18
1,32,98,18
1,32,94,56
1,36,98,72
1,39,91,18
1,32,98,18
1,32,94,56
1,36,98,72
1,39,91,18
1,37,98,18
1,32,94,56
1,32,98,72
1,34,91,18
1,37,98,18
1,32,94,56
1,32,98,72
1,34,91,18
1,38,98,18
1,33,94,56
1,33,98,72
1,35,91,18
1,38,98,18
1,33,94,56
1,33,98,72
1,35,91,18
1,33,102,18
1,33,98,56
1,37,102,72
1,40,95,18
1,33,102,18
1,33,98,56
1,37,102,72
1,40,95,18
1,33,102,18
1,33,98,56
1,37,102,72
1,40,95,18
1,33,102,18
1,33,98,56
1,37,102,72
1,40,95,18
1,38,102,18
1,33,98,56
1,33,102,72
1,35,95,18
1,38,102,18
1,33,98,56
1,33,102,72
1,35,95,18
1,38,102,18
1,33,98,56
1,33,102,72
1,35,95,18
1,38,102,18
1,33,98,56
1,33,102,72
1,35,95,18
1,33,102,18
1,33,98,56
1,37,102,72
1,40,95,18
1,33,102,18
1,33,98,56
1,37,102,72
1,40,95,18
1,33,102,18
1,33,98,56
1,37,102,72
1,40,95,18
1,33,102,18
1,33,98,56
1,37,102,72
1,40,95,18
1,38,102,18
1,33,98,56
1,33,102,72
1,35,95,18
1,38,102,18
1,33,98,56
1,33,102,72
1,35,95,18
1,38,102,18
1,33,98,56
1,33,102,72
1,35,95,18
1,38,102,18
1,33,98,56
1,33,102,72
1,35,95,18
1,33,102,18
1,33,98,56
1,37,102,72
1,40,95,18
1,33,102,18
1,33,98,56
1,37,102,72
1,40,95,18
1,33,102,18
1,33,98,56
1,37,102,72
1,40,95,18
1,33,102,18
1,33,98,56
1,37,102,72
1,40,95,18
1,38,102,18
1,33,98,56
1,33,102,72
1,35,95,18
1,38,102,18
1,33,98,56
1,33,102,72
1,35,95,18
1,38,102,18
1,33,98,56
1,33,102,72
1,35,95,18
1,38,102,18
1,33,98,56
1,33,102,72
1,35,95,18
1,31,102,18
1,31,98,56
1,35,102,72
1,38,95,18
1,31,102,18
1,31,98,56
1,35,102,72
1,38,95,18
1,38,102,18
1,33,98,56
1,33,102,72
1,35,95,18
1,38,102,18
1,33,98,56
1,33,102,72
1,35,95,18
1,33,102,18
1,33,98,56
1,37,102,72
1,40,95,18
1,33,102,18
1,33,98,56
1,37,102,72
1,40,95,18
1,38,102,18
1,33,98,56
1,33,102,72
1,35,95,18
1,38,102,18
1,33,98,56
1,33,102,72
1,35,95,18
1,31,102,18
1,31,98,56
1,35,102,72
1,38,95,18
1,31,102,18
1,31,98,56
1,35,102,72
1,38,95,18
1,38,102,18
1,33,98,56
1,33,102,72
1,35,95,18
1,38,102,18
1,33,98,56
1,33,102,72
1,35,95,18
1,33,102,18
1,33,98,56
1,37,102,72
1,40,95,18
1,33,102,18
1,33,98,56
1,37,102,72
1,40,95,18
1,38,102,18
1,33,98,56
1,33,102,72
1,35,95,18
1,38,102,18
1,33,98,56
1,33,102,72
1,35,95,18
1,33,103,18
1,33,99,56
1,37,103,72
1,40,96,18
1,33,103,18
1,33,99,56
1,37,103,72
1,40,96,18
1,33,103,18
1,33,99,56
1,37,103,72
1,40,96,18
1,33,103,18
1,33,99,56
1,37,103,72
1,40,96,18
1,38,103,18
1,33,99,56
1,33,103,72
1,35,96,18
1,38,103,18
1,33,99,56
1,33,103,72
1,35,96,18
1,38,103,18
1,33,99,56
1,33,103,72
1,35,96,18
1,38,103,18
1,33,99,56
1,33,103,72
1,35,96,18
1,33,103,18
1,33,99,56
1,37,103,72
1,40,96,18
1,33,103,18
1,33,99,56
1,37,103,72
1,40,96,18
1,33,103,18
1,33,99,56
1,37,103,72
1,40,96,18
1,33,103,18
1,33,99,56
1,37,103,72
1,40,96,18
1,38,103,18
1,33,99,56
1,33,103,72
1,35,96,18
1,38,103,18
1,33,99,56
1,33,103,72
1,35,96,18
1,38,103,18
1,33,99,56
1,33,103,72
1,35,96,18
1,38,103,18
1,33,99,56
1,33,103,72
1,33,103,18
1,33,96,18
1,33,96,18
1,38,96,18
2,56,78,2016
2,60,81,0
2,63,81,0
2,56,66,22
2,60,66,0
2,63,66,0
2,56,73,186
2,60,80,0
2,63,79,0
2,56,78,280
2,60,81,0
2,63,81,0
2,56,66,22
2,60,66,0
2,63,66,0
2,56,73,186
2,60,80,0
2,63,79,0
2,56,78,280
2,60,81,0
2,63,81,0
2,56,66,22
2,60,66,0
2,63,66,0
2,56,73,186
2,60,80,0
2,63,79,0
2,56,68,280
2,60,82,0
2,63,79,0
2,56,66,30
2,60,66,0
2,63,66,0
2,56,75,206
2,60,84,0
2,63,83,0
2,56,80,274
2,61,83,0
2,65,83,0
2,56,66,22
2,61,66,0
2,65,66,0
2,56,77,190
2,61,82,0
2,65,84,0
2,56,78,294
2,61,84,0
2,65,81,0
2,56,66,22
2,61,66,0
2,65,66,0
2,56,77,208
2,61,82,0
2,65,82,0
2,56,80,292
2,61,83,0
2,65,83,0
2,56,66,6
2,61,66,0
2,65,66,0
2,56,78,190
2,61,82,0
2,65,80,0
2,56,78,298
2,61,81,0
2,65,82,0
2,56,66,24
2,61,66,0
2,65,66,0
2,56,75,204
2,61,80,0
2,65,80,0
2,56,78,284
2,60,81,0
2,63,81,0
2,56,66,22
2,60,66,0
2,63,66,0
2,56,73,186
2,60,80,0
2,63,79,0
2,56,78,280
2,60,81,0
2,63,81,0
2,56,66,22
2,60,66,0
2,63,66,0
2,56,73,186
2,60,80,0
2,63,79,0
2,56,78,280
2,60,81,0
2,63,81,0
2,56,66,22
2,60,66,0
2,63,66,0
2,56,73,186
2,60,80,0
2,63,79,0
2,56,68,280
2,60,82,0
2,63,79,0
2,56,66,30
2,60,66,0
2,63,66,0
2,56,75,206
2,60,84,0
2,63,83,0
2,56,80,274
2,61,83,0
2,65,83,0
2,56,66,22
2,61,66,0
2,65,66,0
2,56,77,190
2,61,82,0
2,65,84,0
2,56,78,294
2,61,84,0
2,65,81,0
2,56,66,22
2,61,66,0
2,65,66,0
2,56,77,208
