track,note,velocity,time
1,65,127,3263
1,65,0,116
1,67,127,7
1,67,0,60
1,68,112,7
1,68,0,177
1,72,124,4
1,72,0,132
1,73,127,7
1,73,0,7
1,72,127,3
1,72,0,57
1,70,127,10
1,70,0,324
1,63,115,13
1,63,0,48
1,65,97,13
1,65,0,57
1,67,114,6
1,67,0,200
1,70,127,7
1,70,0,172
1,72,127,13
1,70,125,13
1,72,0,0
1,70,0,55
1,68,125,9
1,68,0,40
1,61,127,123
1,61,0,87
1,61,127,13
1,61,0,51
1,63,101,0
1,63,0,55
1,65,108,7
1,65,0,198
1,68,127,7
1,68,0,174
1,70,127,10
1,70,0,13
1,68,127,4
1,68,0,60
1,67,112,7
1,67,0,14
1,68,127,3
1,68,0,48
1,70,123,13
1,70,0,299
1,68,127,4
1,70,125,75
1,68,0,1
1,67,117,17
1,70,0,0
1,68,127,299
1,67,0,5
1,67,127,53
1,68,0,0
1,67,0,0
1,65,127,175
1,65,0,115
1,67,127,7
1,67,0,69
1,68,108,0
1,72,115,189
1,68,0,1
1,72,0,169
1,73,127,1
1,73,0,327
1,72,99,7
1,72,0,83
1,70,92,4
1,70,0,505
1,63,100,41
1,63,0,126
1,65,111,4
1,65,0,63
1,67,119,7
1,67,0,181
1,70,117,10
1,70,0,175
1,72,127,9
1,70,104,318
1,72,0,0
1,70,0,66
1,68,93,1
1,68,0,31
1,61,127,140
1,63,108,124
1,61,0,4
1,63,0,65
1,65,93,4
1,65,0,199
1,68,127,1
1,68,0,187
1,70,127,0
1,68,117,77
1,70,0,4
1,67,119,65
1,68,0,4
1,67,0,317
1,68,121,0
1,68,0,63
1,70,112,4
1,70,0,300
1,68,101,6
1,68,0,63
1,67,103,7
1,67,0,312
1,70,125,7
1,70,0,63
1,72,127,9
1,72,0,43
1,65,118,54
1,67,107,127
1,65,0,13
1,67,0,50
1,69,108,4
1,69,0,106
1,65,106,4
1,65,0,66
1,70,108,4
1,70,0,131
1,69,108,4
1,67,105,66
1,69,0,5
1,67,0,115
1,65,95,3
1,65,0,61
1,67,103,0
1,67,0,113
1,69,101,4
1,69,0,127
1,67,109,4
1,67,0,51
1,69,104,7
1,69,0,55
1,60,120,6
1,60,0,376
1,69,122,16
1,69,0,130
1,70,104,7
1,70,0,69
1,72,108,1
1,72,0,122
1,69,96,4
1,69,0,56
1,74,113,4
1,74,0,122
1,72,108,4
1,72,0,63
1,70,95,4
1,70,0,115
1,69,105,4
1,69,0,75
1,70,112,4
1,70,0,109
1,72,121,4
1,70,79,79
1,72,0,14
1,70,0,105
1,72,114,1
1,72,0,48
1,70,119,3
1,70,0,13
1,69,119,4
1,69,0,76
1,72,127,3
1,72,0,110
1,69,122,3
1,69,0,177
1,69,126,22
1,69,0,60
1,72,126,7
1,72,0,109
1,69,126,7
1,69,0,161
1,69,120,19
1,69,0,61
1,74,126,13
1,74,0,124
1,69,126,7
1,69,0,134
1,67,124,3
1,67,0,119
1,67,109,4
1,67,0,72
1,65,119,4
1,65,0,189
1,65,122,19
1,65,0,96
1,65,124,16
1,65,0,124
1,67,112,0
1,67,0,133
1,69,118,7
1,69,0,99
1,70,106,4
1,70,0,250
1,72,127,13
1,72,0,57
1,74,127,7
1,74,0,50
1,72,127,4
1,72,0,23
1,65,127,118
1,65,0,58
1,65,127,5
1,65,0,116
1,67,127,7
1,67,0,60
1,68,112,7
1,68,0,177
1,72,124,4
1,72,0,132
1,73,127,7
1,73,0,123
1,72,116,2
1,72,0,69
1,70,94,1
1,70,0,571
1,63,112,13
1,63,0,108
1,65,77,13
1,65,0,62
1,67,108,4
1,67,0,191
1,70,114,0
1,70,0,176
1,72,125,9
1,70,100,309
1,72,0,4
1,70,0,59
1,68,114,10
1,68,0,412
1,61,104,104
1,63,99,179
1,61,0,7
1,63,0,66
1,65,94,3
1,65,0,177
1,68,114,1
1,68,0,195
1,70,100,0
1,70,0,308
1,68,106,1
1,68,0,82
1,67,98,3
1,67,0,309
1,68,97,0
1,68,0,73
1,70,100,3
1,68,95,312
1,70,0,4
1,68,0,66
1,67,103,4
1,68,94,234
1,67,0,4
1,67,103,100
1,68,0,4
1,66,94,7
1,67,0,8
1,65,101,3
1,66,0,11
1,65,0,10
1,65,118,6104
1,67,107,127
1,65,0,13
1,67,0,50
1,69,108,4
1,69,0,106
1,65,106,4
1,65,0,66
1,70,108,4
1,70,0,131
1,69,108,4
1,67,105,66
1,69,0,5
1,67,0,115
1,65,95,3
1,65,0,61
1,67,103,0
1,67,0,113
1,69,101,4
1,69,0,127
1,67,109,4
1,67,0,51
1,69,104,7
1,69,0,55
1,60,120,6
1,60,0,376
1,69,122,16
1,69,0,130
1,70,104,7
1,70,0,69
1,72,108,1
1,72,0,122
1,69,96,4
1,69,0,56
1,74,113,4
1,74,0,122
1,72,108,4
1,72,0,63
1,70,95,4
1,70,0,115
1,69,105,4
1,69,0,75
1,70,112,4
1,70,0,109
1,72,121,4
1,70,79,79
1,72,0,14
1,70,0,105
1,72,114,1
1,72,0,48
1,70,119,3
1,70,0,13
1,69,119,4
1,69,0,76
1,72,127,3
1,72,0,110
1,69,122,3
1,69,0,177
1,69,126,22
1,69,0,60
1,72,126,7
1,72,0,109
1,69,126,7
1,69,0,161
1,69,120,19
1,69,0,61
1,74,126,13
1,74,0,124
1,69,126,7
1,69,0,134
1,67,124,3
1,67,0,119
1,67,109,4
1,67,0,72
1,65,119,4
1,65,0,189
1,65,122,19
1,65,0,96
1,65,124,16
1,65,0,124
1,67,112,0
1,67,0,133
1,69,118,7
1,69,0,99
1,70,106,4
1,70,0,250
1,72,127,13
1,72,0,57
1,74,127,7
1,74,0,50
1,72,127,4
1,72,0,23
1,65,127,118
1,65,0,58
1,65,127,5
1,65,0,116
1,67,127,7
1,67,0,60
1,68,112,7
1,68,0,177
1,72,124,4
1,72,0,132
1,73,127,7
1,73,0,123
1,72,116,2
1,72,0,69
1,70,94,1
1,70,0,571
1,63,112,13
1,63,0,108
1,65,77,13
1,65,0,62
1,67,108,4
1,67,0,191
1,70,114,0
1,70,0,176
1,72,125,9
1,70,100,309
1,72,0,4
1,70,0,59
1,68,114,10
1,68,0,412
1,61,104,104
1,63,99,179
1,61,0,7
1,63,0,66
1,65,94,3
1,65,0,177
1,68,114,1
1,68,0,195
1,70,100,0
1,70,0,308
1,68,106,1
1,68,0,82
1,67,98,3
1,67,0,309
1,68,97,0
1,68,0,73
1,70,100,3
1,57,0,129
1,58,0,66
1,68,95,117
1,70,0,4
1,60,0,4
1,68,0,62
1,57,0,2
1,67,103,2
1,62,0,117
1,60,0,72
1,68,94,45
1,67,0,4
1,58,0,74
1,67,103,26
1,68,0,4
1,66,94,7
1,67,0,8
1,65,101,3
1,66,0,11
1,57,0,14
1,58,0,124
1,60,0,74
1,60,0,137
1,65,0,65
1,52,0,24
1,65,127,3
1,60,0,106
1,65,0,10
1,67,127,3
1,62,0,63
1,67,0,0
1,69,127,1
1,69,0,124
1,65,126,4
1,64,0,2
1,65,0,58
1,70,127,4
1,65,0,99
1,70,0,16
1,69,116,13
1,69,0,59
1,67,126,5
1,62,0,83
1,67,0,35
1,65,117,10
1,60,0,40
1,65,0,23
1,67,127,1
1,67,0,123
1,69,115,5
1,64,0,31
1,67,127,33
1,69,0,5
1,62,0,84
1,67,0,20
1,69,121,19
1,64,0,19
1,69,0,38
1,60,127,7
1,62,0,313
1,60,0,61
1,60,0,7
1,69,127,3
1,64,0,91
1,69,0,24
1,70,115,13
1,70,0,63
1,72,125,1
1,69,103,128
1,69,0,64
1,72,0,0
1,74,117,0
1,72,112,96
1,74,0,3
1,72,0,60
1,70,114,1
1,70,0,115
1,69,119,13
1,64,0,21
1,70,119,43
1,69,0,8
1,61,0,17
1,70,0,86
1,64,0,13
1,72,112,4
1,72,0,63
1,70,98,1
1,70,0,121
1,72,112,7
1,72,0,51
1,70,104,13
1,70,0,7
1,69,125,7
1,64,0,7
1,69,0,47
1,72,127,10
1,64,0,86
1,72,0,5
1,72,127,5
1,72,0,2
1,69,127,11
1,69,0,57
1,72,127,7
1,72,0,3
1,72,127,6
1,64,0,10
1,69,127,13
1,69,0,58
1,72,0,0
1,72,127,6
1,72,0,25
1,72,127,10
1,72,0,11
2,46,101,3840
2,46,0,309
2,49,101,11
2,49,0,64
2,53,102,0
2,53,0,177
2,49,89,15
2,49,0,122
2,53,105,6
2,53,0,60
2,39,113,4
2,39,0,310
2,43,107,10
2,46,102,64
2,43,0,3
2,43,95,189
2,46,0,1
2,43,0,116
2,46,97,11
2,46,0,61
2,44,104,3
2,48,100,320
2,44,0,2
2,48,0,62
2,51,92,0
2,51,0,184
2,48,96,8
2,48,0,121
2,51,96,7
2,51,0,60
2,37,107,4
2,37,0,306
2,41,111,14
2,41,0,63
2,44,91,1
2,44,0,183
2,41,104,9
2,44,96,128
2,41,0,9
2,44,0,51
2,34,118,4
2,34,0,315
2,37,96,5
2,37,0,60
2,41,102,4
2,37,104,192
2,41,0,4
2,37,0,109
2,41,97,15
2,41,0,61
2,43,88,3
2,43,0,308
2,46,93,12
2,46,0,60
2,49,87,4
2,46,99,192
2,49,0,5
2,46,0,102
2,43,103,21
2,43,0,60
2,36,121,4
2,36,0,303
2,40,105,17
2,40,0,61
2,43,109,3
2,40,113,192
2,43,0,4
2,40,0,112
2,43,114,12
2,43,0,60
2,41,123,4
2,41,0,94
2,46,108,674
2,49,81,320
2,46,0,11
2,49,0,49
2,53,91,4
2,53,0,184
2,49,88,8
2,49,0,60
2,46,82,4
2,46,0,60
2,41,97,4
2,41,0,60
2,39,98,4
2,43,102,320
2,39,0,13
2,43,0,48
2,46,91,3
2,46,0,191
2,43,98,1
2,43,0,114
2,46,83,14
2,46,0,61
2,44,91,3
2,44,0,316
2,48,100,4
2,48,0,60
2,51,90,4
2,51,0,182
2,48,100,10
2,48,0,117
2,51,92,11
2,51,0,60
2,37,127,4
2,37,0,315
2,41,115,5
2,41,0,64
2,44,90,0
2,44,0,190
2,41,107,2
2,41,0,125
2,44,97,3
2,44,0,60
2,34,120,4
2,34,0,313
2,37,100,7
2,37,0,64
2,41,102,0
2,41,0,189
2,37,99,3
2,37,0,124
2,41,101,4
2,41,0,61
2,43,100,3
2,43,0,307
2,46,104,13
2,43,97,64
2,46,0,6
2,46,94,186
2,43,0,8
2,46,0,52
2,43,95,4
2,43,0,60
2,37,105,4
2,37,0,63
2,36,107,1
2,36,0,307
2,36,103,13
2,36,0,60
2,36,105,4
2,36,0,173
2,36,102,19
2,36,0,60
2,38,102,4
2,38,0,60
2,40,107,4
2,40,0,60
2,41,125,4
2,41,0,305
2,41,118,15
2,41,0,60
2,38,111,4
2,41,107,192
2,38,0,1
2,41,0,61
2,45,105,2
2,45,0,60
2,41,107,4
2,41,0,60
2,43,119,4
2,46,120,256
2,43,0,6
2,46,0,54
2,43,111,4
2,43,0,60
2,36,127,4
2,36,0,192
2,36,104,0
2,36,0,60
2,40,106,4
2,40,0,60
2,43,115,4
2,43,0,60
2,41,127,4
2,41,0,290
2,41,121,30
2,41,0,63
2,38,120,1
2,38,0,250
2,45,125,6
2,45,0,60
2,41,118,4
2,41,0,60
2,43,118,4
2,43,0,178
2,43,105,14
2,43,0,60
2,46,94,4
2,46,0,60
2,43,111,4
2,43,0,60
2,36,115,4
2,36,0,187
2,36,108,5
2,36,0,60
2,40,113,4
2,40,0,60
2,43,107,4
2,43,0,60
2,41,120,4
2,41,0,237
2,41,112,19
2,41,0,60
2,43,112,4
2,43,0,60
2,45,116,4
2,45,0,188
2,45,108,4
2,45,0,60
2,40,102,4
2,40,0,60
2,36,102,4
2,36,0,60
2,38,119,4
2,38,0,237
2,41,108,19
2,41,0,60
2,45,108,4
2,45,0,60
2,38,115,4
2,38,0,188
2,41,113,4
2,41,0,60
2,45,110,4
2,45,0,60
2,41,105,4
2,41,0,60
2,43,117,4
2,43,0,295
2,46,120,25
2,46,0,60
2,50,103,4
2,50,0,188
2,50,100,4
2,50,0,60
2,46,113,4
2,46,0,60
2,43,104,4
2,43,0,60
2,36,116,4
2,36,0,173
2,36,106,19
2,36,0,60
2,40,105,4
2,40,0,60
2,43,107,4
2,43,0,60
2,36,111,4
2,36,0,61
2,40,104,3
2,40,0,60
2,43,111,4
2,43,0,60
2,36,102,4
2,36,0,64
2,40,109,0
2,40,0,60
2,43,114,4
2,43,0,60
2,36,127,4
2,36,0,60
2,46,108,708
2,46,0,303
2,49,99,17
2,49,0,60
2,53,81,4
2,53,0,178
2,49,87,14
2,49,0,60
2,46,85,4
2,46,0,60
2,41,103,4
2,41,0,61
2,39,102,3
2,43,99,320
2,39,0,11
2,43,0,53
2,46,91,0
2,46,0,172
2,43,100,20
2,43,0,61
2,46,83,3
2,46,0,60
2,43,99,4
2,43,0,60
2,44,84,4
2,48,103,320
2,44,0,9
2,48,0,51
2,51,95,4
2,51,0,182
2,48,58,10
2,48,0,60
2,51,85,4
2,51,0,60
2,48,95,4
2,48,0,60
2,37,109,4
2,37,0,318
2,41,107,2
2,41,0,61
2,44,94,3
2,44,0,189
2,41,95,3
2,41,0,60
2,44,94,4
2,44,0,60
2,41,95,4
2,41,0,60
2,34,116,4
2,34,0,313
2,37,103,7
2,37,0,60
2,41,109,4
2,41,0,187
2,37,96,5
2,37,0,60
2,41,107,4
2,41,0,60
2,37,102,4
2,37,0,61
2,36,116,3
2,36,0,314
2,40,99,6
2,40,0,60
2,36,103,4
2,40,106,192
2,36,0,20
2,40,0,40
2,43,100,4
2,43,0,60
2,40,100,4
2,40,0,60
2,41,111,4
2,41,0,320
2,41,104,0
2,41,0,57
2,41,127,7
2,41,0,191
2,48,92,1
2,48,0,60
2,44,91,4
2,44,0,60
2,48,107,4
2,48,0,60
2,41,127,4
2,41,0,60
2,46,108,708
2,49,81,320
2,46,0,11
2,49,0,49
2,53,91,4
2,53,0,184
2,49,88,8
2,49,0,60
2,46,82,4
2,46,0,60
2,41,97,4
2,41,0,60
2,39,98,4
2,43,102,320
2,39,0,13
2,43,0,48
2,46,91,3
2,46,0,191
2,43,98,1
2,43,0,114
2,46,83,14
2,46,0,61
2,44,91,3
2,44,0,316
2,48,100,4
2,48,0,60
2,51,90,4
2,51,0,182
2,48,100,10
2,48,0,117
2,51,92,11
2,51,0,60
2,37,127,4
2,37,0,315
2,41,115,5
2,41,0,64
2,44,90,0
2,44,0,190
2,41,107,2
2,41,0,125
2,44,97,3
2,44,0,60
2,34,120,4
2,34,0,313
2,37,100,7
2,37,0,64
2,41,102,0
2,41,0,189
2,37,99,3
2,37,0,124
2,41,101,4
2,41,0,61
2,43,100,3
2,43,0,307
2,46,104,13
2,43,97,64
2,46,0,6
2,46,94,186
2,43,0,8
2,46,0,52
2,43,95,4
2,43,0,60
2,37,105,4
2,37,0,63
2,36,107,1
2,36,0,307
2,36,103,13
2,36,0,60
2,36,105,4
2,36,0,173
2,36,102,19
2,36,0,60
2,38,102,4
2,38,0,60
2,40,107,4
2,40,0,60
2,41,125,4
2,41,0,305
2,41,118,15
2,41,0,60
2,38,111,4
2,41,107,192
2,38,0,1
2,41,0,61
2,45,105,2
2,45,0,60
2,41,107,4
2,41,0,60
2,43,119,4
2,46,120,256
2,43,0,6
2,46,0,54
2,43,111,4
2,43,0,60
2,36,127,4
2,36,0,192
2,36,104,0
2,36,0,60
2,40,106,4
2,40,0,60
2,43,115,4
2,43,0,60
2,41,127,4
2,41,0,290
2,41,121,30
2,41,0,63
2,38,120,1
2,38,0,250
2,45,125,6
2,45,0,60
2,41,118,4
2,41,0,60
2,43,118,4
2,43,0,178
2,43,105,14
2,43,0,60
2,46,94,4
2,46,0,60
2,43,111,4
2,43,0,60
2,36,115,4
2,36,0,187
2,36,108,5
2,36,0,60
2,40,113,4
2,40,0,60
2,43,107,4
2,43,0,60
2,41,120,4
2,41,0,237
2,41,112,19
2,41,0,60
2,43,112,4
2,43,0,60
2,45,116,4
2,45,0,188
