track,note,velocity,time
0,36,103,406
0,48,31,0
0,53,83,0
0,53,0,4
0,48,0,42
0,43,32,2
0,52,37,16
0,43,0,19
0,48,25,13
0,52,0,21
0,48,0,24
0,43,36,3
0,43,0,36
0,48,35,12
0,53,80,0
0,53,0,4
0,48,0,42
0,43,29,2
0,52,35,16
0,43,0,18
0,48,32,14
0,52,0,11
0,48,0,33
0,43,26,4
0,43,0,32
0,48,33,16
0,53,67,0
0,53,0,4
0,48,0,41
0,43,23,3
0,52,31,16
0,43,0,19
0,48,33,13
0,52,0,17
0,48,0,21
0,43,23,10
0,36,0,26
0,43,0,11
0,36,109,11
0,48,32,0
0,53,73,0
0,53,0,4
0,48,0,34
0,43,26,10
0,52,37,16
0,43,0,22
0,48,29,10
0,52,0,11
0,48,0,30
0,43,25,7
0,43,0,37
0,36,0,3
0,31,109,8
0,48,31,0
0,53,80,0
0,53,0,4
0,48,0,39
0,43,19,5
0,52,37,16
0,43,0,23
0,48,29,9
0,52,0,12
0,48,0,31
0,43,24,5
0,43,0,37
0,48,29,11
0,53,83,0
0,53,0,4
0,48,0,36
0,43,29,8
0,52,31,16
0,31,0,14
0,43,0,11
0,36,109,7
0,48,32,0
0,52,0,18
0,48,0,23
0,43,22,7
0,43,0,39
0,48,30,9
0,53,72,0
0,53,0,4
0,48,0,41
0,43,27,3
0,52,37,16
0,43,0,22
0,48,29,10
0,52,0,13
0,36,0,17
0,48,0,13
0,43,29,5
0,29,96,16
0,43,0,22
0,31,109,10
0,48,27,0
0,53,75,0
0,53,0,4
0,29,0,1
0,48,0,36
0,43,27,7
0,52,40,16
0,43,0,22
0,31,0,9
0,31,96,1
0,48,29,0
0,31,0,1
0,52,0,13
0,48,0,24
0,34,103,10
0,43,34,0
0,43,0,30
0,34,0,9
0,36,103,9
0,48,31,0
0,53,73,0
0,53,0,4
0,48,0,42
0,43,32,2
0,52,37,16
0,43,0,19
0,48,25,13
0,52,0,21
0,48,0,24
0,43,36,3
0,43,0,36
0,48,35,12
0,53,77,0
0,53,0,4
0,48,0,42
0,43,29,2
0,52,35,16
0,43,0,18
0,48,32,14
0,52,0,11
0,48,0,33
0,43,26,4
0,43,0,32
0,48,33,16
0,53,80,0
0,53,0,4
0,48,0,41
0,43,23,3
0,52,31,16
0,43,0,19
0,48,33,13
0,52,0,17
0,48,0,21
0,43,23,10
0,36,0,12
0,43,0,25
0,36,109,11
0,48,32,0
0,53,80,0
0,53,0,4
0,48,0,34
0,43,26,10
0,52,37,16
0,43,0,22
0,48,29,10
0,52,0,11
0,48,0,30
0,43,25,7
0,36,0,34
0,43,0,3
0,31,109,11
0,48,31,0
0,53,80,0
0,53,0,4
0,48,0,39
0,43,19,5
0,52,37,16
0,43,0,23
0,48,29,9
0,52,0,12
0,48,0,31
0,43,24,5
0,43,0,37
0,48,29,11
0,53,80,0
0,53,0,4
0,48,0,36
0,43,29,8
0,52,31,16
0,31,0,14
0,43,0,11
0,36,109,7
0,48,32,0
0,52,0,18
0,48,0,23
0,43,22,7
0,43,0,39
0,48,30,9
0,53,81,0
0,53,0,4
0,48,0,41
0,43,27,3
0,52,37,16
0,43,0,22
0,48,29,10
0,52,0,13
0,36,0,30
0,48,0,0
0,43,29,5
0,67,108,12
0,29,96,4
0,43,0,22
0,67,0,2
0,28,109,8
0,31,109,0
0,40,109,0
0,48,27,0
0,53,81,0
0,28,0,4
0,40,0,0
0,53,0,0
0,67,110,4
0,29,0,3
0,67,0,29
0,48,0,1
0,43,27,7
0,52,40,16
0,67,112,8
0,31,0,9
0,43,0,5
0,31,109,10
0,42,107,0
0,48,29,0
0,42,0,4
0,67,0,2
0,52,0,8
0,48,0,24
0,67,110,6
0,31,0,2
0,34,103,2
0,43,34,0
0,67,0,23
0,43,0,7
0,34,0,6
0,36,103,12
0,36,109,0
0,42,109,0
0,53,83,0
0,55,89,0
0,60,49,0
0,67,75,0
0,36,0,4
0,42,0,0
0,53,0,0
0,67,112,4
0,67,0,31
0,67,112,1
0,42,70,28
0,72,88,0
0,42,0,4
0,67,0,2
0,72,0,27
0,67,112,11
0,74,88,4
0,77,53,0
0,74,0,27
0,67,0,3
0,77,0,8
0,28,109,10
0,40,109,0
0,42,109,0
0,53,80,0
0,75,75,0
0,79,85,0
0,28,0,4
0,40,0,0
0,42,0,0
0,53,0,0
0,79,0,41
0,74,78,3
0,77,40,0
0,75,0,10
0,74,0,23
0,65,112,7
0,77,0,5
0,42,82,3
0,72,91,0
0,42,0,4
0,65,0,22
0,55,0,29
0,65,108,1
0,36,65,8
0,36,0,4
0,65,0,27
0,36,109,1
0,42,104,0
0,53,67,0
0,75,73,0
0,79,59,0
0,36,0,4
0,42,0,0
0,53,0,0
0,72,0,4
0,60,0,4
0,67,0,0
0,65,112,44
0,65,0,26
0,36,109,14
0,42,78,0
0,36,0,4
0,42,0,0
0,65,106,0
0,65,0,20
0,65,105,20
0,65,0,5
0,36,0,10
0,65,108,10
0,28,109,11
0,36,109,0
0,40,109,0
0,42,109,0
0,53,73,0
0,55,89,0
0,60,98,0
0,67,82,0
0,28,0,4
0,40,0,0
0,42,0,0
0,53,0,0
0,65,0,4
0,65,110,20
0,65,0,39
0,42,88,22
0,42,0,4
0,65,108,5
0,65,0,5
0,67,0,4
0,36,59,7
0,65,108,0
0,60,0,2
0,36,0,1
0,36,0,10
0,65,0,7
0,31,109,1
0,36,109,0
0,42,109,0
0,53,69,0
0,53,80,0
0,58,36,0
0,36,0,4
0,42,0,0
0,53,0,0
0,65,110,0
0,79,0,16
0,75,0,6
0,65,0,6
0,65,112,14
0,55,0,14
0,42,59,10
0,72,88,0
0,42,0,4
0,65,0,5
0,65,109,15
0,72,0,16
0,74,82,8
0,77,49,0
0,65,0,11
0,74,0,16
0,65,112,5
0,28,109,16
0,40,109,0
0,42,109,0
0,53,83,0
0,75,82,0
0,79,88,0
0,28,0,4
0,40,0,0
0,42,0,0
0,53,0,0
0,77,0,0
0,65,0,9
0,67,110,31
0,74,82,4
0,77,53,0
0,79,0,2
0,58,0,4
0,53,0,7
0,75,0,6
0,31,0,11
0,67,0,9
0,74,0,4
0,36,109,5
0,42,94,0
0,60,94,0
0,67,82,0
0,72,104,0
0,77,0,1
0,42,0,3
0,60,110,8
0,60,0,30
0,36,65,22
0,36,0,4
0,36,109,28
0,42,107,0
0,53,72,0
0,75,82,0
0,79,55,0
0,36,0,4
0,42,0,0
0,53,0,0
0,67,109,0
0,72,0,2
0,67,0,25
0,67,108,37
0,67,0,23
0,36,109,5
0,42,104,0
0,67,0,2
0,36,0,2
0,42,0,0
0,67,109,4
0,36,0,22
0,60,0,3
0,67,0,5
0,67,110,22
0,29,96,4
0,67,0,22
0,28,109,10
0,31,109,0
0,40,109,0
0,42,109,0
0,53,75,0
0,67,94,0
0,72,104,0
0,28,0,4
0,40,0,0
0,42,0,0
0,53,0,0
0,67,113,0
0,29,0,1
0,67,0,5
0,31,0,7
0,31,96,1
0,42,91,0
0,31,0,1
0,42,0,3
0,65,110,0
0,65,0,8
0,34,103,1
0,67,0,2
0,36,75,5
0,72,0,2
0,36,0,0
0,65,108,4
0,79,0,1
0,34,0,8
0,75,0,6
0,36,103,3
0,36,109,0
0,42,109,0
0,53,73,0
0,55,89,0
0,60,49,0
0,67,75,0
0,65,0,1
0,36,0,3
0,42,0,0
0,53,0,0
0,65,112,9
0,65,0,8
0,65,109,23
0,42,88,16
0,72,75,0
0,42,0,4
0,65,0,11
0,65,110,21
0,72,0,1
0,74,75,11
0,77,46,0
0,65,0,24
0,74,0,6
0,65,106,10
0,28,109,8
0,40,109,0
0,42,109,0
0,53,77,0
0,75,81,0
0,79,67,0
0,28,0,4
0,40,0,0
0,42,0,0
0,53,0,0
0,77,0,0
0,55,0,3
0,65,0,20
0,67,109,13
0,74,82,8
0,77,35,0
0,79,0,1
0,75,0,16
0,74,0,15
0,67,0,4
0,42,82,12
0,72,91,0
0,77,0,3
0,42,0,1
0,60,110,0
0,60,0,29
0,36,49,31
0,36,0,4
0,36,109,28
0,42,109,0
0,53,80,0
0,75,69,0
0,79,82,0
0,36,0,4
0,42,0,0
0,53,0,0
0,70,105,0
0,72,0,1
0,60,0,7
0,67,0,0
0,70,0,32
0,67,104,24
0,67,0,14
0,36,109,14
0,42,91,0
0,36,0,4
0,42,0,0
0,67,110,4
0,67,0,34
0,36,0,18
0,67,105,0
0,67,0,17
0,28,109,2
0,36,109,0
0,40,109,0
0,42,109,0
0,53,80,0
0,55,89,0
0,60,98,0
0,67,82,0
0,28,0,4
0,40,0,0
0,42,0,0
0,53,0,0
0,67,110,0
0,67,0,1
0,42,107,9
0,42,0,4
0,67,110,0
0,67,0,9
0,67,0,4
0,36,52,7
0,60,0,3
0,36,0,1
0,67,110,0
0,36,0,4
0,55,0,3
0,31,109,8
0,36,109,0
0,42,109,0
0,53,69,0
0,53,80,0
0,58,36,0
0,36,0,4
0,42,0,0
0,53,0,0
0,67,0,3
0,79,0,0
0,75,0,2
0,72,108,16
0,42,82,36
0,72,78,0
0,72,0,1
0,42,0,3
0,67,105,8
0,72,0,26
0,67,0,8
0,74,88,2
0,77,53,0
0,67,110,16
0,74,0,11
0,77,0,10
0,67,0,7
0,28,109,4
0,40,109,0
0,42,109,0
0,53,80,0
0,75,75,0
0,79,91,0
0,28,0,4
0,40,0,0
0,42,0,0
0,53,0,0
0,67,110,8
0,74,82,36
0,77,56,0
0,67,0,3
0,79,0,1
0,58,0,2
0,53,0,7
0,67,109,3
0,75,0,5
0,31,0,9
0,67,0,13
0,77,0,2
0,36,109,3
0,42,82,0
0,60,94,0
0,67,82,0
0,72,98,0
0,74,0,2
0,42,0,2
0,67,109,4
0,67,0,32
0,67,109,20
0,36,75,4
0,36,0,4
0,36,109,28
0,42,109,0
0,53,81,0
0,75,46,0
0,79,82,0
0,36,0,4
0,42,0,0
0,53,0,0
0,72,0,3
0,67,0,2
0,60,110,19
0,60,0,41
0,60,110,23
0,36,107,4
0,42,104,0
0,67,0,2
0,36,0,2
0,42,0,0
0,60,0,29
0,36,0,10
0,60,0,3
0,29,96,18
0,60,108,0
0,28,109,32
0,31,109,0
0,40,109,0
0,42,109,0
0,53,81,0
0,67,94,0
0,72,104,0
0,28,0,4
0,40,0,0
0,42,0,0
0,53,0,0
0,29,0,5
0,60,0,14
0,60,105,0
0,31,0,3
0,60,0,3
0,31,109,5
0,42,82,0
0,42,0,3
0,79,0,5
0,31,0,2
0,34,103,2
0,75,0,2
0,67,0,2
0,72,0,7
0,34,0,1
0,60,112,8
0,36,103,2
0,36,109,0
0,42,109,0
0,53,83,0
0,55,89,0
0,60,49,0
0,67,75,0
0,36,0,4
0,42,0,0
0,53,0,0
0,60,0,44
0,60,108,9
0,42,70,20
0,72,88,0
0,42,0,4
0,60,0,27
0,72,0,2
0,74,88,15
0,77,53,0
0,60,110,12
0,74,0,15
0,77,0,11
0,28,109,10
0,40,109,0
0,42,109,0
0,53,80,0
0,75,75,0
0,79,85,0
0,28,0,4
0,40,0,0
0,42,0,0
0,53,0,0
0,60,0,7
0,60,106,33
0,79,0,1
0,74,78,3
0,77,40,0
0,75,0,10
0,74,0,23
0,77,0,12
0,42,82,3
0,72,91,0
0,60,0,1
0,42,0,3
0,60,110,20
0,55,0,31
0,36,65,9
0,36,0,4
0,60,0,5
0,60,109,15
0,36,109,8
0,42,104,0
0,53,67,0
0,75,73,0
0,79,59,0
0,36,0,4
0,42,0,0
0,53,0,0
0,72,0,4
0,60,0,4
0,67,0,0
0,60,0,36
0,60,110,28
0,36,109,20
0,42,78,0
0,36,0,4
0,42,0,0
0,60,0,31
0,60,110,1
0,36,0,14
0,28,109,22
0,36,109,0
0,40,109,0
0,42,109,0
0,53,73,0
0,55,89,0
0,60,98,0
0,67,82,0
0,28,0,1
0,40,0,0
0,42,0,0
0,53,0,0
0,60,0,5
0,42,88,9
0,42,0,4
0,55,105,0
0,55,0,4
0,67,0,5
0,55,106,3
0,36,56,4
0,60,0,3
0,36,0,1
0,36,0,10
0,55,0,4
0,31,109,4
0,36,109,0
0,42,109,0
0,53,69,0
0,53,80,0
0,58,36,0
0,36,0,4
0,42,0,0
0,53,0,0
0,55,109,8
0,79,0,11
0,75,0,6
0,55,0,12
0,55,110,10
0,55,0,18
0,55,0,5
0,42,59,5
0,72,88,0
0,42,0,4
0,55,110,4
0,72,0,32
0,74,82,8
0,77,49,0
0,55,0,17
0,74,0,10
0,55,110,17
0,28,109,4
0,42,109,0
0,53,83,0
0,75,82,0
0,79,88,0
0,28,0,4
0,42,0,0
0,53,0,0
0,77,0,0
0,55,0,37
0,74,82,7
0,77,53,0
0,79,0,2
0,58,0,4
0,60,108,6
0,53,0,1
0,75,0,6
0,31,0,11
0,74,0,13
0,60,0,1
0,36,109,4
0,42,94,0
0,60,94,0
0,67,82,0
0,72,104,0
0,77,0,1
0,42,0,3
0,60,112,4
0,60,0,31
0,60,110,21
0,42,107,36
0,53,72,0
0,75,82,0
0,79,55,0
0,60,0,3
0,42,0,1
0,53,0,0
0,72,0,2
0,60,112,10
0,60,0,39
0,60,110,17
0,42,104,24
0,67,0,2
0,42,0,2
0,60,0,4
0,60,110,12
0,36,0,10
0,60,0,3
0,29,96,31
0,60,0,15
0,28,109,17
0,31,109,0
0,40,109,0
0,42,109,0
0,53,75,0
0,67,94,0
0,72,104,0
0,28,0,4
0,40,0,0
0,42,0,0
0,53,0,0
0,29,0,1
0,67,113,11
0,67,0,3
0,31,0,7
0,31,96,1
0,42,91,0
0,31,0,1
0,42,0,3
0,60,109,8
0,34,103,9
0,67,0,2
0,36,75,5
0,72,0,2
0,36,0,1
0,79,0,5
0,34,0,5
0,75,0,6
0,36,103,3
0,36,109,0
0,42,109,0
0,53,73,0
0,55,89,0
0,60,49,0
0,67,75,0
0,36,0,4
0,42,0,0
0,53,0,0
0,60,0,1
0,67,110,43
0,42,88,4
0,72,75,0
0,42,0,4
0,67,0,31
0,72,0,2
0,74,75,11
0,77,46,0
0,63,107,4
0,74,0,26
0,28,109,18
0,40,109,0
0,42,109,0
0,53,77,0
0,75,81,0
0,79,67,0
0,28,0,4
0,40,0,0
0,42,0,0
0,53,0,0
0,77,0,0
0,63,0,1
0,55,0,2
0,60,108,13
0,74,82,28
0,77,35,0
0,79,0,1
0,75,0,16
0,74,0,15
0,60,0,1
0,42,82,15
0,72,91,0
0,77,0,3
0,42,0,1
0,60,108,8
0,60,0,41
0,36,49,11
0,36,0,4
0,60,108,0
0,60,0,27
0,36,109,1
0,42,109,0
0,53,80,0
0,75,69,0
0,79,82,0
0,36,0,4
0,42,0,0
0,53,0,0
0,72,0,1
0,58,109,7
0,60,0,0
0,67,0,0
0,58,0,35
0,60,105,17
0,60,0,28
0,36,109,4
0,42,91,0
0,36,0,4
0,42,0,0
0,60,109,4
0,60,0,45
0,36,0,7
0,60,105,2
0,60,0,18
0,28,109,3
0,36,109,0
0,40,109,0
0,42,109,0
0,53,80,0
0,55,89,0
0,60,98,0
0,67,82,0
0,28,0,4
0,40,0,0
0,42,0,0
0,53,0,0
0,60,112,8
0,60,0,38
0,42,107,9
0,42,0,4
0,60,110,2
0,60,0,6
0,67,0,3
0,36,49,7
0,60,106,0
0,60,0,3
0,36,0,1
0,36,0,4
0,60,0,3
0,55,0,2
0,31,109,8
0,36,109,0
0,42,109,0
0,53,69,0
0,53,80,0
0,58,36,0
0,36,0,2
0,42,0,0
0,53,0,0
0,60,110,0
0,79,0,3
0,75,0,2
0,60,0,26
0,42,82,26
0,72,78,0
0,42,0,4
0,60,110,0
0,60,0,24
0,72,0,10
0,74,88,10
0,77,53,0
0,60,110,4
0,74,0,23
0,60,0,10
0,77,0,0
0,28,109,11
0,40,109,0
0,42,109,0
0,53,80,0
0,60,112,0
0,75,75,0
0,79,91,0
0,28,0,4
0,40,0,0
0,42,0,0
0,53,0,0
0,60,0,34
0,74,82,10
