track,note,velocity,time
1,58,85,5748
1,62,85,0
1,65,77,0
1,60,80,120
1,63,85,0
1,67,83,0
1,62,80,92
1,55,68,0
1,58,75,0
1,60,90,60
1,56,66,0
1,63,72,0
1,58,79,76
1,55,64,0
1,63,84,0
1,62,77,144
1,58,78,0
1,65,83,0
1,67,81,116
1,60,71,0
1,63,82,0
1,62,83,124
1,58,75,0
1,55,71,0
1,63,91,72
1,60,84,0
1,56,74,0
1,58,77,64
1,63,81,0
1,55,63,4
1,58,85,152
1,62,85,0
1,65,77,4
1,60,80,120
1,63,85,0
1,67,83,0
1,62,80,92
1,55,68,0
1,58,75,0
1,60,90,60
1,56,66,0
1,63,72,0
1,58,79,76
1,55,64,0
1,63,84,0
1,62,77,144
1,58,78,0
1,65,83,0
1,67,81,116
1,60,71,0
1,63,82,0
1,62,83,124
1,58,75,0
1,55,71,0
1,63,91,72
1,60,84,0
1,56,74,0
1,58,77,64
1,63,81,0
1,55,63,4
1,58,85,152
1,62,85,0
1,65,77,4
1,60,80,120
1,63,85,0
1,67,83,0
1,62,80,92
1,55,68,0
1,58,75,0
1,60,90,60
1,56,66,0
1,63,72,0
1,58,79,76
1,55,64,0
1,63,84,0
1,62,77,144
1,58,78,0
1,65,83,0
1,67,81,116
1,60,71,0
1,63,82,0
1,62,83,124
1,58,75,0
1,55,71,0
1,63,91,72
1,60,84,0
1,56,74,0
1,58,77,64
1,63,81,0
1,55,63,4
1,58,85,152
1,62,85,0
1,65,77,4
1,60,80,120
1,63,85,0
1,67,83,0
1,62,80,92
1,55,68,0
1,58,75,0
1,60,90,60
1,56,66,0
1,63,72,0
1,58,79,76
1,55,64,0
1,63,84,0
1,62,77,144
1,58,78,0
1,65,83,0
1,67,81,116
1,60,71,0
1,63,82,0
1,62,83,124
1,58,75,0
1,55,71,0
1,63,91,72
1,60,84,0
1,56,74,0
1,58,77,64
1,63,81,0
1,55,63,4
1,58,85,152
1,62,85,0
1,65,77,4
1,60,80,120
1,63,85,0
1,67,83,0
1,62,80,92
1,55,68,0
1,58,75,0
1,60,90,60
1,56,66,0
1,63,72,0
1,58,79,76
1,55,64,0
1,63,84,0
1,62,77,144
1,58,78,0
1,65,83,0
1,67,81,116
1,60,71,0
1,63,82,0
1,62,83,124
1,58,75,0
1,55,71,0
1,63,91,72
1,60,84,0
1,56,74,0
1,58,77,64
1,63,81,0
1,55,63,4
1,58,85,152
1,62,85,0
1,65,77,4
1,60,80,120
1,63,85,0
1,67,83,0
1,62,80,92
1,55,68,0
1,58,75,0
1,60,90,60
1,56,66,0
1,63,72,0
1,58,79,76
1,55,64,0
1,63,84,0
1,62,77,144
1,58,78,0
1,65,83,0
1,67,81,116
1,60,71,0
1,63,82,0
1,63,83,124
1,58,75,0
1,55,71,0
1,60,84,72
1,51,91,0
1,56,74,0
1,62,92,24
1,58,99,0
1,53,80,0
1,63,97,112
1,60,87,0
1,55,77,0
1,62,85,68
1,58,84,0
1,65,85,4
1,63,89,140
1,58,89,0
1,53,80,0
1,55,79,0
1,59,80,128
1,62,80,0
1,53,75,0
1,55,73,0
1,63,89,208
1,56,71,0
1,55,75,0
1,60,81,0
1,55,79,24
1,62,85,0
1,58,91,0
1,51,91,24
1,56,74,0
1,60,84,0
1,53,80,24
1,58,99,0
1,62,92,0
1,55,77,112
1,63,97,0
1,60,87,0
1,62,85,68
1,58,84,0
1,65,85,4
1,63,89,140
1,67,79,0
1,65,80,0
1,58,89,0
1,65,75,128
1,59,80,0
1,62,80,0
1,55,73,0
1,56,71,208
1,55,75,0
1,63,89,0
1,60,81,0
1,55,79,32
1,62,85,0
1,58,91,0
1,53,91,24
1,56,74,0
1,60,84,0
1,53,80,24
1,58,99,0
1,62,92,0
1,55,77,112
1,63,97,0
1,60,87,0
1,62,85,68
1,58,84,0
1,67,85,4
1,63,89,140
1,58,89,0
1,53,80,0
1,55,79,0
1,59,80,128
1,62,80,0
1,53,75,0
1,55,73,0
1,56,71,208
1,55,75,0
1,63,89,0
1,60,81,0
1,55,79,8
1,62,85,0
1,58,91,0
1,53,91,24
1,56,74,0
1,60,84,0
1,53,80,24
1,58,99,0
1,62,92,0
1,55,77,112
1,63,97,0
1,60,87,0
1,62,85,68
1,58,84,0
1,65,85,4
1,67,79,140
1,65,80,0
1,63,89,0
1,58,89,0
1,65,75,128
1,59,80,0
1,62,80,0
1,55,73,0
1,56,71,208
1,55,75,0
1,63,89,0
1,60,81,0
1,55,79,4
1,62,85,0
1,58,91,0
1,53,91,24
1,56,74,0
1,60,84,0
1,53,80,24
1,58,99,0
1,62,92,0
1,55,77,112
1,63,97,0
1,60,87,0
1,62,85,68
1,58,84,0
1,65,85,4
1,58,85,140
1,62,85,0
1,65,77,0
1,60,80,88
1,63,85,0
1,67,83,0
1,62,80,92
1,55,68,0
1,58,75,0
1,60,90,60
1,56,66,0
1,63,72,0
1,58,79,76
1,55,64,0
1,63,84,0
1,62,77,144
1,58,78,0
1,65,83,0
1,67,81,116
1,60,71,0
1,63,82,0
1,62,83,124
1,58,75,0
1,55,71,0
1,63,91,72
1,60,84,0
1,56,74,0
1,58,77,64
1,63,81,0
1,55,63,4
1,58,85,152
1,62,85,0
1,65,77,4
1,60,80,120
1,63,85,0
1,67,83,0
1,62,80,92
1,55,68,0
1,58,75,0
1,60,90,60
1,56,66,0
1,63,72,0
1,58,79,76
1,55,64,0
1,63,84,0
1,62,77,144
1,58,78,0
1,65,83,0
1,67,81,116
1,60,71,0
1,63,82,0
1,62,83,124
1,58,75,0
1,55,71,0
1,63,91,72
1,60,84,0
1,56,74,0
1,58,77,64
1,63,81,0
1,55,63,4
1,58,85,152
1,62,85,0
1,65,77,4
1,60,80,120
1,63,85,0
1,67,83,0
1,62,80,92
1,55,68,0
1,58,75,0
1,60,90,60
1,56,66,0
1,63,72,0
1,58,79,76
1,55,64,0
1,63,84,0
1,62,77,144
1,58,78,0
1,65,83,0
1,67,81,116
1,60,71,0
1,63,82,0
1,62,83,124
1,58,75,0
1,55,71,0
1,63,91,72
1,60,84,0
1,56,74,0
1,58,77,64
1,63,81,0
1,55,63,4
1,58,85,152
1,62,85,0
1,65,77,4
1,60,80,120
1,63,85,0
1,67,83,0
1,62,80,92
1,55,68,0
1,58,75,0
1,60,90,60
1,56,66,0
1,63,72,0
1,58,79,76
1,55,64,0
1,63,84,0
1,62,77,144
1,58,78,0
1,65,83,0
1,67,81,116
1,60,71,0
1,63,82,0
1,62,83,124
1,58,75,0
1,55,71,0
1,63,91,72
1,60,84,0
1,56,74,0
1,58,77,64
1,63,81,0
1,55,63,4
1,58,85,152
1,62,85,0
1,65,77,4
1,60,80,120
1,63,85,0
1,67,83,0
1,62,80,92
1,55,68,0
1,58,75,0
1,60,90,60
1,56,66,0
1,63,72,0
1,58,79,76
1,55,64,0
1,63,84,0
1,62,77,144
1,58,78,0
1,65,83,0
1,67,81,116
1,60,71,0
1,63,82,0
1,62,83,124
1,58,75,0
1,55,71,0
1,63,91,72
1,60,84,0
1,56,74,0
1,58,77,64
1,63,81,0
1,55,63,4
1,58,85,152
1,62,85,0
1,65,77,4
1,60,80,120
1,63,85,0
1,67,83,0
1,62,80,92
1,55,68,0
1,58,75,0
1,60,90,60
1,56,66,0
1,63,72,0
1,58,79,76
1,55,64,0
1,63,84,0
1,62,77,144
1,58,78,0
1,65,83,0
1,67,81,116
1,60,71,0
1,63,82,0
1,63,83,124
1,58,75,0
1,55,71,0
1,60,84,72
1,51,91,0
1,56,74,0
1,62,92,24
1,58,99,0
1,53,80,0
1,63,97,112
1,60,87,0
1,55,77,0
1,62,85,68
1,58,84,0
1,65,85,4
1,63,89,140
1,58,89,0
1,53,80,0
1,55,79,0
1,59,80,128
1,62,80,0
1,53,75,0
1,55,73,0
1,63,89,208
1,56,71,0
1,55,75,0
1,60,81,0
1,55,79,24
1,62,85,0
1,58,91,0
1,51,91,24
1,56,74,0
1,60,84,0
1,53,80,24
1,58,99,0
1,62,92,0
1,55,77,112
1,63,97,0
1,60,87,0
1,62,85,68
1,58,84,0
1,65,85,4
1,63,89,140
1,67,79,0
1,65,80,0
1,58,89,0
1,65,75,128
1,59,80,0
1,62,80,0
1,55,73,0
1,56,71,208
1,55,75,0
1,63,89,0
1,60,81,0
1,55,79,32
1,62,85,0
1,58,91,0
1,53,91,24
1,56,74,0
1,60,84,0
1,53,80,24
1,58,99,0
1,62,92,0
1,55,77,112
1,63,97,0
1,60,87,0
1,62,85,68
1,58,84,0
1,65,85,4
1,63,89,140
1,58,89,0
1,53,80,0
1,55,79,0
1,59,80,128
1,62,80,0
1,53,75,0
1,55,73,0
1,56,71,208
1,55,75,0
1,63,89,0
1,60,81,0
1,55,79,8
1,62,85,0
1,58,91,0
1,53,91,24
1,56,74,0
1,60,84,0
1,53,80,24
1,58,99,0
1,62,92,0
1,55,77,112
1,63,97,0
1,60,87,0
1,62,85,68
1,58,84,0
1,65,85,4
1,58,85,52
1,62,85,0
1,65,77,4
1,60,80,120
1,63,85,0
1,67,83,0
1,62,80,92
1,55,68,0
1,58,75,0
1,60,90,60
1,56,66,0
1,63,72,0
1,58,79,76
1,55,64,0
1,63,84,0
1,62,77,144
1,58,78,0
1,65,83,0
1,67,81,116
1,60,71,0
1,63,82,0
1,62,83,124
1,58,75,0
1,55,71,0
1,63,91,72
1,60,84,0
1,56,74,0
1,58,77,64
1,63,81,0
1,55,63,4
1,58,85,152
1,62,85,0
1,65,77,4
1,60,80,120
1,63,85,0
1,67,83,0
1,62,80,92
1,55,68,0
1,58,75,0
1,60,90,60
1,56,66,0
1,63,72,0
1,58,79,76
1,55,64,0
1,63,84,0
1,62,77,144
1,58,78,0
1,65,83,0
1,67,81,116
1,60,71,0
1,63,82,0
1,62,83,124
1,58,75,0
1,55,71,0
1,63,91,72
1,60,84,0
1,56,74,0
1,58,77,64
1,63,81,0
1,55,63,4
1,58,85,152
1,62,85,0
1,65,77,4
1,60,80,120
1,63,85,0
1,67,83,0
1,62,80,92
1,55,68,0
1,58,75,0
1,60,90,60
1,56,66,0
1,63,72,0
1,58,79,76
1,55,64,0
1,63,84,0
1,62,77,144
1,58,78,0
1,65,83,0
1,67,81,116
1,60,71,0
1,63,82,0
1,62,83,124
1,58,75,0
1,55,71,0
1,63,91,72
1,60,84,0
1,56,74,0
1,58,77,64
1,63,81,0
1,55,63,4
1,58,85,84
1,62,85,0
1,65,77,4
1,60,80,72
1,63,85,0
1,67,83,0
1,62,80,84
1,55,68,0
1,58,75,0
1,60,90,28
1,56,66,0
1,63,72,0
1,58,79,28
1,55,64,0
1,63,84,0
1,62,77,28
1,58,78,0
1,65,83,0
1,67,81,24
1,60,71,0
1,63,82,0
1,62,83,28
1,58,75,0
1,55,71,0
1,63,91,72
1,60,84,0
1,56,74,0
1,58,77,64
1,63,81,0
1,55,63,4
1,63,85,152
1,58,85,0
1,65,77,4
1,67,77,0
2,34,112,5724
2,36,111,4
2,31,110,4
2,32,108,4
2,27,108,4
2,39,103,20
2,41,107,4
2,39,104,4
2,34,108,4
2,36,109,4
2,31,107,16
2,32,110,4
2,27,109,4
2,39,99,36
2,41,107,4
2,39,105,4
2,34,112,4
2,36,109,4
2,31,108,4
2,32,108,4
2,27,109,4
2,39,101,4
2,41,106,8
2,39,105,4
2,34,109,4
2,36,109,20
2,31,108,4
2,32,110,4
2,27,108,8
2,39,103,4
2,41,108,4
2,39,106,4
2,34,112,12
2,36,111,4
2,31,110,4
2,32,108,4
2,27,108,4
2,39,103,20
2,41,107,4
2,39,104,4
2,34,108,4
2,36,109,4
2,31,107,16
2,32,110,4
2,27,109,4
2,39,99,36
2,41,107,4
2,39,105,4
2,34,112,4
2,36,109,4
2,31,108,4
2,32,108,4
2,27,109,4
2,39,101,4
2,41,106,8
2,39,105,4
2,34,109,4
2,36,109,20
2,31,108,4
2,32,110,4
2,27,108,8
2,39,103,4
2,41,108,4
2,39,106,4
2,34,112,12
2,36,111,4
2,31,110,4
2,32,108,4
2,27,108,4
2,39,103,20
2,41,107,4
2,39,104,4
2,34,108,4
2,36,109,4
2,31,107,16
2,32,110,4
2,27,109,4
2,39,99,36
2,41,107,4
2,39,105,4
2,34,112,4
2,36,109,4
2,31,108,4
2,32,108,4
2,27,109,4
2,39,101,4
2,41,106,8
2,39,105,4
2,34,109,4
2,36,109,20
2,31,108,4
2,29,108,12
2,31,108,8
2,32,110,4
2,34,108,4
2,27,115,4
2,27,107,68
2,27,108,100
2,29,111,0
2,31,112,0
2,43,96,0
2,31,107,0
2,31,105,100
2,43,96,0
2,32,112,4
2,32,100,16
2,32,109,92
2,31,110,0
2,29,111,0
2,31,108,0
2,32,108,0
2,34,114,0
2,39,110,8
2,39,108,52
2,36,100,52
2,39,104,0
2,29,109,0
2,30,105,0
2,31,110,0
2,31,107,8
2,31,105,48
2,31,104,52
2,32,109,32
2,32,103,4
2,32,106,20
2,32,108,72
2,31,108,0
2,29,110,0
2,31,108,0
2,32,109,0
2,34,111,0
2,39,104,0
2,27,109,0
2,27,100,92
2,27,108,84
2,27,108,84
2,29,106,0
2,30,103,0
2,31,109,0
2,31,96,4
2,31,104,52
2,43,97,0
2,31,109,0
2,32,109,0
2,32,103,4
2,32,94,48
2,32,108,84
2,31,108,0
2,29,110,0
2,31,111,0
2,32,110,0
2,34,112,0
2,39,107,104
2,39,94,20
2,39,96,92
2,39,108,64
2,29,104,0
2,30,103,0
2,31,113,0
2,31,95,4
2,31,103,80
2,31,108,76
2,31,105,12
2,32,112,0
2,32,97,4
2,32,103,76
2,32,103,104
2,31,108,0
2,29,108,0
2,31,106,0
2,32,104,0
2,34,110,0
2,34,110,116
2,36,111,32
2,31,110,4
2,32,108,4
2,27,108,4
2,39,103,20
2,41,107,4
2,39,104,4
2,34,108,4
2,36,109,4
2,31,107,16
2,32,110,4
2,27,109,4
2,39,99,36
2,41,107,4
2,39,105,4
2,34,112,4
2,36,109,4
2,31,108,4
2,32,108,4
2,27,109,4
2,39,101,4
2,41,106,8
2,39,105,4
2,34,109,4
2,36,109,20
2,31,108,4
2,32,110,4
2,27,108,8
2,39,103,4
2,41,108,4
2,39,106,4
2,34,112,12
2,36,111,4
2,31,110,4
2,32,108,4
2,27,108,4
2,39,103,20
2,41,107,4
2,39,104,4
2,34,108,4
2,36,109,4
2,31,107,16
2,32,110,4
2,27,109,4
2,39,99,36
2,41,107,4
2,39,105,4
2,34,112,4
2,36,109,4
2,31,108,4
2,32,108,4
2,27,109,4
2,39,101,4
2,41,106,8
2,39,105,4
2,34,109,4
2,36,109,20
2,31,108,4
2,32,110,4
2,27,108,8
2,39,103,4
2,41,108,4
2,39,106,4
2,34,112,12
2,36,111,4
2,31,110,4
2,32,108,4
2,27,108,4
2,39,103,20
2,41,107,4
2,39,104,4
2,34,108,4
2,36,109,4
2,31,107,16
2,32,110,4
2,27,109,4
2,39,99,36
2,41,107,4
2,39,105,4
2,34,112,4
2,36,109,4
2,31,108,4
2,32,108,4
2,27,109,4
2,39,101,4
2,41,106,8
2,39,105,4
2,34,109,4
2,36,109,20
2,31,108,4
2,29,108,12
2,31,108,8
2,32,110,4
2,34,108,4
2,27,115,4
2,36,102,0
2,34,95,0
2,39,99,0
2,39,100,36
2,41,97,0
2,43,101,0
2,31,107,0
2,43,93,0
2,31,98,0
2,43,101,0
2,43,99,72
2,31,101,8
2,32,101,0
2,32,104,64
2,32,103,28
2,32,103,80
2,31,102,0
2,29,106,0
2,31,105,8
2,32,105,16
2,34,105,0
2,27,101,0
2,39,97,0
2,39,101,12
2,39,104,40
2,41,101,0
2,43,95,0
2,31,101,0
2,31,97,52
2,31,103,40
2,31,105,76
2,31,103,84
2,32,104,24
2,32,89,24
2,32,102,92
2,32,101,100
2,32,99,56
2,31,99,4
2,29,109,4
2,31,106,0
2,32,108,0
2,34,101,0
2,39,97,0
2,27,96,0
2,27,102,76
2,27,103,100
2,29,103,0
