track,note,velocity,time
1,72,85,51064
1,84,87,8
1,60,102,6
1,86,98,4
1,74,100,10
1,62,87,6
1,65,113,126
1,89,116,6
1,77,100,6
1,62,113,208
1,74,102,30
1,86,116,0
1,84,116,326
1,60,116,8
1,72,95,0
1,69,95,304
1,81,110,0
1,57,105,20
1,50,122,566
1,38,127,2
1,39,78,14
1,60,116,192
1,72,89,16
1,84,102,8
1,86,107,26
1,62,100,4
1,74,105,0
1,89,119,138
1,65,113,6
1,77,98,4
1,74,105,202
1,86,113,10
1,62,113,28
1,84,119,304
1,72,110,4
1,60,119,12
1,57,110,336
1,81,110,12
1,69,107,4
1,62,107,20736
1,74,102,2
1,72,74,384
1,70,98,3812
1,69,85,752
1,62,102,5446
1,74,102,384
1,72,82,364
1,60,116,21832
1,72,89,16
1,84,102,8
1,86,107,26
1,62,100,4
1,74,105,0
1,89,119,138
1,65,113,6
1,77,98,4
1,74,105,202
1,86,113,10
1,62,113,28
1,84,119,304
1,72,110,4
1,60,119,12
1,57,110,336
1,81,110,12
1,69,107,4
1,60,116,28036
1,72,105,6
1,84,113,6
1,62,113,0
1,86,113,10
1,74,102,6
1,89,122,134
1,77,113,0
1,65,122,6
1,62,127,160
1,74,127,0
1,86,127,4
2,41,127,1548
2,53,127,128
2,53,116,174
2,53,113,144
2,48,122,32
2,53,116,24
2,48,116,12
2,41,127,38
2,53,122,22
2,53,116,154
2,53,113,124
2,48,122,44
2,46,48,16
2,53,102,22
2,48,107,104
2,38,127,60
2,50,122,28
2,50,116,160
2,50,116,124
2,45,127,32
2,50,119,22
2,45,113,88
2,38,119,18
2,50,127,26
2,50,119,164
2,50,105,126
2,45,127,38
2,50,113,8
2,44,127,6
2,43,110,10
2,55,119,208
2,46,51,32
2,55,113,152
2,55,113,126
2,50,119,32
2,55,113,16
2,50,119,12
2,43,127,32
2,45,62,10
2,55,127,18
2,55,119,164
2,55,116,146
2,50,127,36
2,55,105,16
2,50,119,102
2,36,127,60
2,48,127,60
2,48,127,170
2,48,116,128
2,43,127,40
2,48,119,22
2,43,119,76
2,36,127,26
2,39,98,6
2,48,127,10
2,48,119,148
2,36,68,22
2,48,119,122
2,43,127,26
2,48,119,10
2,43,127,4
2,41,127,32
2,53,127,128
2,53,116,174
2,53,113,144
2,48,122,32
2,53,116,24
2,48,116,12
2,41,127,38
2,53,122,22
2,53,116,154
2,53,113,124
2,48,122,44
2,46,48,16
2,53,102,22
2,48,107,104
2,38,127,60
2,50,122,28
2,50,116,160
2,50,116,124
2,45,127,32
2,50,119,22
2,45,113,88
2,38,119,18
2,50,127,26
2,50,119,164
2,50,105,126
2,45,127,38
2,50,113,8
2,44,127,6
2,43,110,10
2,55,119,208
2,46,51,32
2,55,113,152
2,55,113,126
2,50,119,32
2,55,113,16
2,50,119,12
2,43,127,32
2,45,62,10
2,55,127,18
2,55,119,164
2,55,116,146
2,50,127,36
2,55,105,16
2,50,119,102
2,36,127,60
2,48,127,60
2,48,127,170
2,48,116,128
2,43,127,40
2,48,119,22
2,43,119,76
2,36,127,26
2,39,98,6
2,48,127,10
2,48,119,148
2,36,68,22
2,48,119,122
2,43,127,26
2,48,119,10
2,43,127,4
2,41,127,32
2,53,127,128
2,53,116,174
2,53,113,144
2,48,122,32
2,53,116,24
2,48,116,12
2,41,127,38
2,53,122,22
2,53,116,154
2,53,113,124
2,48,122,44
2,46,48,16
2,53,102,22
2,48,107,104
2,38,127,60
2,50,122,28
2,50,116,160
2,50,116,124
2,45,127,32
2,50,119,22
2,45,113,88
2,38,119,18
2,50,127,26
2,50,119,164
2,50,105,126
2,45,127,38
2,50,113,8
2,44,127,6
2,43,110,10
2,55,119,208
2,46,51,32
2,55,113,152
2,55,113,126
2,50,119,32
2,55,113,16
2,50,119,12
2,43,127,32
2,45,62,10
2,55,127,18
2,55,119,164
2,55,116,146
2,50,127,36
2,55,105,16
2,50,119,102
2,36,127,60
2,48,127,60
2,48,127,170
2,48,116,128
2,43,127,40
2,48,119,22
2,43,119,76
2,36,127,26
2,39,98,6
2,48,127,10
2,48,119,148
2,36,68,22
2,48,119,122
2,43,127,26
2,48,119,10
2,43,127,4
2,41,127,32
2,53,127,128
2,53,116,174
2,53,113,144
2,48,122,32
2,53,116,24
2,48,116,12
2,41,127,38
2,53,122,22
2,53,116,154
2,53,113,124
2,48,122,44
2,46,48,16
2,53,102,22
2,48,107,104
2,38,127,60
2,50,122,28
2,50,116,160
2,50,116,124
2,45,127,32
2,50,119,22
2,45,113,88
2,38,119,18
2,50,127,26
2,50,119,164
2,50,105,126
2,45,127,38
2,50,113,8
2,44,127,6
2,43,110,10
2,55,119,208
2,46,51,32
2,55,113,152
2,55,113,126
2,50,119,32
2,55,113,16
2,50,119,12
2,43,127,32
2,45,62,10
2,55,127,18
2,55,119,164
2,55,116,146
2,50,127,36
2,55,105,16
2,50,119,102
2,36,127,60
2,48,127,60
2,48,127,170
2,48,116,128
2,43,127,40
2,48,119,22
2,43,119,76
2,36,127,26
2,39,98,6
2,48,127,10
2,48,119,148
2,36,68,22
2,48,119,122
2,43,127,26
2,48,119,10
2,43,127,4
2,38,122,22
2,38,127,502
2,38,113,40
2,38,127,618
2,38,113,512
2,38,127,58
2,38,127,620
2,38,116,512
2,38,116,44
2,38,127,592
2,38,116,524
2,38,113,36
2,50,105,560
2,50,113,4
2,50,122,12
2,62,85,488
2,62,102,52
2,57,87,416
2,62,113,8
2,50,113,14
2,62,95,4
2,62,107,46
2,57,80,420
2,62,102,96
2,43,119,16
2,43,122,468
2,45,119,0
2,45,113,592
2,46,122,192
2,46,113,596
2,45,100,0
2,45,110,160
2,50,113,10
2,50,113,148
2,43,122,26
2,45,116,254
2,46,119,112
2,48,119,62
2,60,85,330
2,60,102,46
2,55,64,424
2,60,102,96
2,41,113,10
2,43,122,56
2,44,116,20
2,45,122,288
2,52,119,40
2,57,116,0
2,50,127,288
2,62,85,40
2,62,100,56
2,57,74,416
2,62,110,96
2,50,122,4
2,62,85,768
2,62,105,48
2,57,80,414
2,62,102,96
2,43,127,20
2,43,102,608
2,43,105,148
2,43,110,58
2,45,116,288
2,46,116,20
2,47,119,384
2,48,119,32
2,55,85,0
2,60,107,96
2,48,127,10
2,48,110,84
2,46,110,4
2,45,100,10
2,52,87,10
2,57,107,96
2,45,116,10
2,45,105,576
2,57,116,190
2,57,105,56
2,57,113,0
2,57,105,52
2,50,116,218
2,62,100,474
2,62,107,46
2,57,89,408
2,62,116,96
2,50,122,16
2,62,107,298
2,62,110,48
2,57,78,420
2,62,116,96
2,43,127,72
2,43,87,830
2,43,119,154
2,45,102,4
2,46,113,384
2,47,122,360
2,48,119,0
2,60,110,16
2,60,110,0
2,55,82,432
2,60,116,96
2,48,127,4
2,55,110,46
2,60,113,4
2,55,107,14
2,45,122,0
2,52,98,26
2,57,122,96
2,45,122,0
2,57,89,768
2,57,110,46
2,45,110,228
2,45,116,46
2,50,116,186
2,62,102,478
2,62,113,48
2,57,98,404
2,62,113,96
2,50,119,0
2,53,119,254
2,57,122,48
2,53,110,62
2,55,127,52
2,50,98,1344
2,43,107,26
2,45,122,94
2,45,116,116
2,46,122,192
2,46,116,84
2,45,116,26
2,45,113,96
2,50,119,16
2,53,116,288
2,57,110,14
2,43,119,10
2,45,116,960
2,46,113,286
2,48,119,0
2,50,127,960
2,52,116,16
2,53,122,288
2,55,122,20
2,56,107,288
2,57,93,52
2,45,116,768
2,38,122,166
2,38,127,502
2,38,113,40
2,38,127,618
2,38,113,512
2,38,127,58
2,38,127,620
2,38,116,512
2,38,116,44
2,38,127,592
2,38,116,524
2,38,113,36
2,50,105,560
2,50,113,4
2,41,127,16
2,53,127,128
2,53,116,174
2,53,113,144
2,48,122,32
2,53,116,24
2,48,116,12
2,41,127,38
2,53,122,22
2,53,116,154
2,53,113,124
2,48,122,44
2,46,48,16
2,53,102,22
2,48,107,104
2,38,127,60
2,50,122,28
2,50,116,160
2,50,116,124
2,45,127,32
2,50,119,22
2,45,113,88
2,38,119,18
2,50,127,26
2,50,119,164
2,50,105,126
2,45,127,38
2,50,113,8
2,44,127,6
2,43,110,10
2,55,119,208
2,46,51,32
2,55,113,152
2,55,113,126
2,50,119,32
2,55,113,16
2,50,119,12
2,43,127,32
2,45,62,10
2,55,127,18
2,55,119,164
2,55,116,146
2,50,127,36
2,55,105,16
2,50,119,102
2,36,127,60
2,48,127,60
2,48,127,170
2,48,116,128
2,43,127,40
2,48,119,22
2,43,119,76
2,36,127,26
2,39,98,6
2,48,127,10
2,48,119,148
2,36,68,22
2,48,119,122
2,43,127,26
2,48,119,10
2,43,127,4
2,41,127,32
2,53,127,128
2,53,116,174
2,53,113,144
2,48,122,32
2,53,116,24
2,48,116,12
2,41,127,38
2,53,122,22
2,53,116,154
2,53,113,124
2,48,122,44
2,46,48,16
2,53,102,22
2,48,107,104
2,38,127,60
2,50,122,28
2,50,116,160
2,50,116,124
2,45,127,32
2,50,119,22
2,45,113,88
2,38,119,18
2,50,127,26
2,50,119,164
2,50,105,126
2,45,127,38
2,50,113,8
2,44,127,6
2,43,110,10
2,55,119,208
2,46,51,32
2,55,113,152
2,55,113,126
2,50,119,32
2,55,113,16
2,50,119,12
2,43,127,32
2,45,62,10
2,55,127,18
2,55,119,164
2,55,116,146
2,50,127,36
2,55,105,16
2,50,119,102
2,36,127,60
2,48,127,60
2,48,127,170
2,48,116,128
2,43,127,40
2,48,119,22
2,43,119,76
2,36,127,26
2,39,98,6
2,48,127,10
2,48,119,148
2,36,68,22
2,48,119,122
2,43,127,26
2,48,119,10
2,43,127,4
2,38,122,22
2,38,127,502
2,38,113,40
2,38,127,618
2,38,113,512
2,38,127,58
2,38,127,630
2,41,127,506
2,38,119,170
3,53,98,1536
3,60,100,0
3,41,95,0
3,57,100,0
3,64,93,0
3,38,82,58
3,60,91,0
3,50,85,0
3,57,85,0
3,64,91,0
3,62,87,46
3,65,93,0
3,43,89,0
3,55,82,0
3,58,74,0
3,36,85,558
3,62,91,0
3,48,80,0
3,65,87,0
3,58,66,0
3,53,98,260
3,60,100,0
3,41,95,0
3,57,100,0
3,64,93,0
3,38,82,58
3,60,91,0
3,50,85,0
3,57,85,0
3,64,91,0
3,62,87,46
3,65,93,0
3,43,89,0
3,55,82,0
3,58,74,0
3,36,85,558
3,62,91,0
3,48,80,0
3,65,87,0
3,58,66,0
3,53,98,260
3,60,100,0
3,41,95,0
3,57,100,0
3,64,93,0
3,38,82,58
3,60,91,0
3,50,85,0
3,57,85,0
3,64,91,0
3,62,87,46
3,65,93,0
3,43,89,0
3,55,82,0
3,58,74,0
3,36,85,558
3,62,91,0
3,48,80,0
3,65,87,0
3,58,66,0
3,53,98,260
3,60,100,0
3,41,95,0
3,57,100,0
3,64,93,0
3,38,82,58
3,60,91,0
3,50,85,0
3,57,85,0
3,64,91,0
3,62,87,46
3,65,93,0
3,43,89,0
3,55,82,0
3,58,74,0
3,36,85,558
3,62,91,0
3,48,80,0
3,65,87,0
3,58,66,0
3,52,102,260
3,64,95,0
3,53,89,768
3,65,105,0
3,55,98,4
3,67,107,0
3,57,95,0
3,69,107,0
3,55,93,4
3,67,110,0
3,53,100,10
3,65,98,0
3,52,95,20
3,64,102,0
3,53,93,20
3,65,100,0
3,64,89,222
3,57,85,0
3,60,87,0
3,64,87,196
3,57,82,0
3,60,89,0
3,64,89,196
3,57,80,0
3,60,89,0
3,64,82,196
3,60,82,0
3,57,80,0
3,64,95,196
3,57,82,0
3,60,85,0
3,64,91,4
3,60,87,0
3,57,85,0
3,64,89,196
3,57,85,0
3,60,87,0
3,64,87,196
3,57,82,0
3,60,89,0
3,64,89,196
3,57,80,0
3,60,89,0
3,64,82,196
3,60,82,0
3,57,80,0
3,64,95,196
3,57,82,0
3,60,85,0
3,57,85,4
3,64,89,0
3,60,87,0
3,58,85,196
3,62,93,0
3,65,100,0
3,62,89,196
3,58,85,0
3,65,87,0
3,62,89,196
3,58,80,0
3,65,87,0
3,58,80,196
3,62,89,0
3,65,87,0
3,58,85,196
3,62,85,0
3,65,89,0
3,62,95,4
3,58,80,0
3,65,89,0
3,64,85,196
3,67,87,0
3,60,87,0
3,67,80,196
3,60,82,0
3,64,87,0
3,67,80,196
3,60,76,0
3,64,85,0
3,67,85,196
3,64,87,0
3,60,87,0
3,64,85,196
3,60,87,0
3,67,82,0
3,67,87,4
3,60,87,0
3,64,87,0
3,58,78,196
3,65,80,0
3,62,82,0
3,60,82,0
3,58,80,196
3,60,87,0
3,62,78,0
3,65,87,0
3,62,80,196
3,58,78,0
3,65,85,0
3,60,85,0
3,62,80,196
3,65,82,0
3,60,80,0
3,58,60,0
3,62,85,196
3,65,87,0
3,58,72,0
3,60,89,0
3,58,78,4
3,62,87,0
3,60,89,0
3,65,85,0
3,57,85,196
3,64,91,0
3,60,87,0
3,57,80,196
3,60,80,0
3,64,82,0
3,65,85,196
3,57,78,0
3,60,82,0
3,62,87,0
3,65,85,196
3,57,78,0
3,62,91,0
3,60,82,0
3,57,80,196
3,65,87,0
3,62,89,0
3,60,87,0
3,57,72,4
3,62,82,0
3,65,87,0
3,60,80,0
3,58,68,196
3,62,89,0
3,65,85,0
3,62,85,196
3,58,78,0
3,65,78,0
3,58,80,196
3,62,89,0
3,65,85,0
3,62,89,196
3,58,80,0
3,65,89,0
3,58,78,196
3,62,95,0
3,65,82,0
3,62,87,4
3,58,78,0
3,65,87,0
3,58,80,196
3,62,87,0
3,65,85,0
3,58,78,196
3,62,89,0
3,65,85,0
3,62,95,196
3,65,82,0
3,58,80,0
3,62,89,196
3,65,91,0
3,58,82,0
3,58,82,196
3,62,89,0
3,65,87,0
3,64,89,292
3,57,82,0
3,60,87,0
3,60,80,196
3,57,85,0
3,64,87,0
3,57,78,196
3,60,85,0
3,64,82,0
3,57,85,196
3,64,87,0
3,60,82,0
3,60,85,196
3,57,85,0
3,64,89,0
3,64,78,4
3,57,72,0
3,60,82,0
3,55,68,196
3,61,74,0
3,57,70,0
3,64,66,0
3,55,76,196
3,61,76,0
3,57,80,0
3,64,68,0
3,55,63,196
3,61,82,0
3,65,82,0
3,57,78,0
3,55,74,196
3,61,82,0
3,57,78,0
3,65,70,0
3,61,76,196
3,55,62,0
3,65,68,0
3,57,80,0
3,61,66,4
3,55,66,0
3,65,78,0
3,57,80,0
3,65,85,196
3,57,82,0
3,62,87,0
3,60,87,0
3,57,82,196
3,65,85,0
3,60,87,0
3,62,89,0
3,57,82,196
3,60,80,0
3,65,85,0
3,62,87,0
3,60,85,196
3,57,85,0
3,62,87,0
3,65,80,0
3,57,85,196
3,65,85,0
3,62,91,0
3,60,85,0
3,57,80,4
3,65,72,0
3,62,74,0
3,60,72,0
3,60,80,196
3,62,87,0
3,57,82,0
3,65,85,0
3,57,82,196
3,60,85,0
3,65,87,0
3,62,87,0
3,57,82,196
3,62,87,0
3,65,85,0
3,60,89,0
3,57,80,196
3,65,85,0
3,62,85,0
3,60,87,0
3,57,68,196
3,60,82,0
3,65,82,0
3,62,80,0
3,57,80,4
3,60,80,0
3,62,80,0
3,65,82,0
3,62,93,196
3,65,89,0
3,58,82,0
3,58,78,196
3,62,87,0
3,65,82,0
3,58,76,196
3,62,89,0
3,65,89,0
3,58,76,196
3,62,87,0
3,65,82,0
3,58,78,196
3,62,87,0
3,65,80,0
3,58,78,4
3,62,89,0
3,65,89,0
3,62,93,196
3,65,89,0
3,58,82,0
3,58,78,196
3,62,87,0
3,65,82,0
3,58,76,196
3,62,89,0
3,65,89,0
3,58,76,196
3,62,87,0
3,65,82,0
3,58,78,196
3,62,87,0
3,65,80,0
3,58,78,4
3,62,89,0
3,65,89,0
3,62,93,196
3,65,89,0
3,58,82,0
3,58,78,196
3,62,87,0
3,65,82,0
3,58,76,196
3,62,89,0
3,65,89,0
3,58,76,196
3,62,87,0
3,65,82,0
3,58,78,196
3,62,87,0
3,65,80,0
3,58,78,4
