track,note,velocity,time
0,64,63,0
0,64,52,56
0,59,53,2
0,61,45,2
0,45,55,4
0,45,91,12
0,69,67,6
0,52,82,28
0,57,78,20
0,44,63,28
0,42,38,10
0,42,94,4
0,49,81,28
0,54,68,8
0,40,86,26
0,50,45,22
0,57,45,2
0,54,30,2
0,62,48,2
0,38,87,14
0,54,64,112
0,57,77,2
0,62,86,0
0,54,65,18
0,69,67,16
0,56,30,10
0,52,51,4
0,59,46,2
0,64,44,2
0,40,86,6
0,68,64,8
0,47,81,120
0,69,67,2
0,59,86,90
0,69,56,54
0,71,58,20
0,52,66,6
0,59,45,132
0,64,48,2
0,45,46,2
0,61,45,2
0,69,66,0
0,45,85,2
0,52,81,106
0,57,81,28
0,71,57,92
0,73,51,14
0,44,71,34
0,71,46,28
0,73,58,40
0,71,64,68
0,42,33,16
0,42,85,0
0,73,53,16
0,71,57,10
0,49,72,54
0,69,58,24
0,54,66,40
0,40,85,138
0,57,32,4
0,66,36,2
0,61,44,2
0,50,55,2
0,38,80,20
0,57,73,124
0,57,71,80
0,62,86,0
0,54,58,34
0,69,76,8
0,59,32,66
0,68,35,6
0,52,55,8
0,64,44,2
0,40,55,8
0,68,63,0
0,52,82,108
0,69,62,10
0,59,82,14
0,69,51,26
0,52,61,6
0,71,45,6
0,64,28,94
0,59,33,10
0,61,39,2
0,45,55,6
0,45,86,16
0,69,36,0
0,69,62,14
0,52,78,118
0,57,90,32
0,45,78,146
0,45,73,128
0,52,77,162
0,57,70,8
0,59,68,0
0,45,76,192
0,45,58,10
0,57,64,26
0,59,72,34
0,61,61,2
0,47,61,0
0,64,85,32
0,84,91,28
0,64,99,20
0,73,87,0
0,71,92,28
0,69,80,28
0,68,91,22
0,69,78,8
0,64,88,22
0,64,55,28
0,64,85,6
0,66,55,24
0,26,97,2
0,38,85,0
0,69,73,0
0,66,85,18
0,64,56,66
0,66,58,16
0,45,77,12
0,52,83,8
0,54,76,14
0,64,92,124
0,73,82,0
0,71,85,44
0,69,75,26
0,68,71,6
0,81,79,0
0,33,77,6
0,69,68,0
0,38,88,68
0,59,85,0
0,64,85,0
0,62,55,52
0,40,83,16
0,66,75,0
0,59,87,0
0,37,88,8
0,49,72,0
0,59,78,0
0,61,67,0
0,64,82,0
0,68,82,0
0,59,98,0
0,66,63,2
0,68,52,6
0,66,66,0
0,68,57,4
0,66,58,6
0,52,82,8
0,64,62,4
0,57,88,8
0,59,84,32
0,64,92,0
0,73,83,0
0,61,55,62
0,73,52,2
0,59,74,4
0,71,85,0
0,59,83,8
0,69,85,0
0,80,122,0
0,59,103,14
0,68,71,0
0,81,79,0
0,64,51,2
0,76,57,0
0,69,85,60
0,59,69,62
0,62,91,0
0,73,48,8
0,85,55,0
0,59,74,72
0,64,93,0
0,23,103,12
0,47,88,0
0,54,67,0
0,57,86,0
0,59,99,0
0,62,88,0
0,66,80,0
0,83,61,0
0,71,61,12
0,57,94,28
0,59,85,46
0,81,52,104
0,69,46,4
0,40,77,4
0,57,85,0
0,61,90,0
0,64,88,0
0,74,79,164
0,37,127,14
0,52,87,0
0,57,85,0
0,62,93,0
0,66,87,0
0,46,95,4
0,76,55,34
0,59,70,8
0,33,103,24
0,35,127,0
0,44,88,0
0,45,75,0
0,57,70,0
0,61,85,0
0,64,85,0
0,73,66,0
0,44,60,152
0,44,63,168
0,33,93,70
0,35,127,0
0,44,103,0
0,33,98,148
0,35,127,0
0,44,103,0
0,44,95,10
0,37,127,168
0,44,103,0
0,45,77,0
0,57,98,0
0,62,99,0
0,66,86,0
0,71,67,0
0,44,103,4
0,74,55,54
0,59,86,50
0,33,97,14
0,35,127,0
0,44,103,0
0,45,76,0
0,57,62,0
0,64,77,0
0,73,67,8
0,61,78,12
0,44,85,142
0,44,90,168
0,33,106,54
0,35,127,0
0,44,103,0
0,33,101,164
0,35,127,0
0,44,103,0
0,44,96,12
0,32,96,168
0,37,127,0
0,44,103,0
0,71,57,52
0,73,61,24
0,44,100,26
0,71,66,22
0,54,65,10
0,57,86,2
0,69,66,0
0,42,71,0
0,61,71,2
0,30,93,10
0,35,127,0
0,44,101,0
0,44,94,168
0,44,100,168
0,30,101,54
0,35,127,0
0,44,103,0
0,71,55,2
0,73,62,18
0,71,64,48
0,52,83,8
0,56,85,4
0,40,73,6
0,28,94,12
0,35,127,0
0,44,103,0
0,69,56,50
0,44,100,86
0,37,127,168
0,44,103,0
0,44,101,98
0,76,55,36
0,78,55,20
0,57,77,18
0,54,83,6
0,38,83,2
0,50,64,8
0,76,53,2
0,26,91,2
0,35,127,0
0,44,100,0
0,78,62,14
0,44,94,116
0,44,94,0
0,76,53,2
0,26,91,6
0,35,127,0
0,44,103,0
0,78,57,4
0,80,45,4
0,56,54,4
0,59,71,2
0,52,85,2
0,40,78,4
0,28,96,4
0,35,127,0
0,44,103,0
0,78,50,0
0,76,57,26
0,44,90,32
0,37,127,0
0,44,99,0
0,81,79,0
0,28,92,6
0,44,92,0
0,74,71,8
0,30,60,6
0,84,83,0
0,76,62,0
0,57,83,2
0,45,86,2
0,64,52,0
0,73,50,0
0,61,93,2
0,57,45,0
0,57,82,4
0,45,78,2
0,64,93,2
0,33,97,6
0,35,127,0
0,44,103,0
0,61,73,8
0,71,46,8
0,73,46,4
0,71,57,12
0,44,93,0
0,73,55,0
0,44,96,0
0,33,92,6
0,45,66,0
0,35,127,0
0,44,103,0
0,59,77,8
0,56,83,6
0,71,48,10
0,68,32,4
0,64,96,0
0,59,91,2
0,56,86,2
0,33,94,2
0,35,127,0
0,44,103,0
0,81,79,166
0,44,98,2
0,37,127,168
0,44,103,0
0,69,62,6
0,28,92,6
0,44,98,0
0,71,57,8
0,30,86,40
0,73,56,0
0,57,87,2
0,73,42,4
0,61,91,4
0,61,85,0
0,57,80,2
0,45,81,2
0,33,91,2
0,35,127,0
0,44,103,0
0,64,88,0
0,71,58,4
0,73,62,22
0,71,67,8
0,44,95,20
0,69,64,12
0,52,86,54
0,44,90,82
0,57,112,0
0,59,85,26
0,33,91,88
0,35,127,0
0,44,103,0
0,61,93,0
0,52,93,26
0,33,97,14
0,35,127,0
0,44,103,0
0,44,100,168
0,57,85,0
0,71,61,132
0,56,51,8
0,57,65,4
0,32,98,4
0,37,127,0
0,44,103,0
0,71,55,54
0,64,64,12
0,73,58,2
0,44,103,20
0,69,87,0
0,71,56,16
0,73,58,20
0,73,88,12
0,69,58,2
0,54,34,2
0,54,92,0
0,42,94,2
0,54,75,4
0,64,83,2
0,30,98,0
0,54,91,0
0,66,80,0
0,69,87,0
0,35,127,0
0,44,100,0
0,69,55,0
0,44,88,88
0,57,93,0
0,44,96,18
0,61,87,0
0,69,90,62
0,66,75,2
0,30,103,2
0,35,127,0
0,44,99,0
0,54,91,0
0,64,82,0
0,73,70,2
0,71,58,6
0,73,57,12
0,40,85,2
0,52,57,2
0,68,62,0
0,52,85,2
0,56,88,2
0,28,92,2
0,35,127,0
0,44,103,0
0,52,106,0
0,71,64,2
0,73,78,6
0,68,82,2
0,64,78,2
0,69,66,14
0,44,94,74
0,57,88,0
0,37,127,148
0,44,103,0
0,61,86,0
0,28,88,18
0,44,95,0
0,52,97,0
0,76,61,34
0,78,57,16
0,62,88,12
0,66,55,2
0,50,55,2
0,57,90,0
0,62,53,4
0,50,72,2
0,54,72,0
0,69,92,4
0,62,87,0
0,64,85,0
0,50,86,0
0,26,88,4
0,35,127,0
0,44,100,0
0,50,98,0
0,52,76,0
0,66,77,4
0,76,55,6
0,78,64,10
0,44,92,46
0,57,87,0
0,62,76,0
0,44,96,0
0,61,92,0
0,66,61,0
0,26,94,20
0,35,127,0
0,44,99,0
0,50,94,0
0,76,62,2
0,78,69,6
0,80,62,24
0,68,57,6
0,64,57,2
0,52,66,2
0,59,86,6
0,64,90,4
0,52,85,2
0,56,83,2
0,68,96,6
0,71,93,2
0,64,90,2
0,28,103,4
0,35,127,0
0,44,98,0
0,52,99,0
0,78,64,44
0,76,64,48
0,44,89,24
0,56,92,0
0,59,93,60
0,37,127,4
0,46,99,0
0,43,127,118
0,81,79,0
0,81,87,52
0,45,83,4
0,57,86,2
0,52,85,2
0,61,87,6
0,33,103,16
0,36,127,0
0,44,103,0
0,44,93,168
0,37,127,168
0,44,103,0
0,32,99,34
0,36,127,0
0,44,103,0
0,42,86,14
0,54,78,0
0,30,98,2
0,36,127,0
0,44,103,0
0,44,100,168
0,37,127,168
0,44,103,0
0,54,115,0
0,83,64,44
0,28,106,10
0,44,98,0
0,81,67,18
0,62,93,52
0,54,77,2
0,38,91,2
0,57,90,2
0,26,106,10
0,36,127,0
0,44,103,0
0,44,98,168
0,37,127,20
0,44,103,0
0,26,96,60
0,36,127,0
0,44,103,0
0,81,71,2
0,40,85,96
0,64,93,4
0,59,93,2
0,56,82,2
0,28,98,20
0,36,127,0
0,44,103,0
0,80,66,2
0,44,94,168
0,81,63,2
0,37,127,10
0,44,103,0
0,54,115,0
0,81,64,16
0,83,61,8
0,28,99,28
0,46,99,0
0,30,97,6
0,57,81,68
0,61,87,2
0,64,90,2
0,81,63,0
0,45,85,2
0,33,98,6
0,36,127,0
0,44,90,0
0,44,100,168
0,37,127,98
0,44,103,0
0,83,58,68
0,85,47,22
0,32,96,4
0,36,127,0
0,44,103,0
0,83,53,18
0,85,62,38
0,54,82,36
0,42,72,2
0,30,85,16
0,36,127,0
0,44,103,0
0,83,58,6
0,85,52,16
0,83,64,80
0,44,93,20
0,81,48,16
0,37,127,2
0,44,103,0
0,54,115,0
0,28,97,6
0,44,100,0
0,62,93,136
0,57,85,2
0,54,73,2
0,50,82,2
0,26,93,2
0,36,127,0
0,44,103,0
0,44,96,168
0,37,127,24
0,44,103,0
0,81,63,64
0,26,98,8
0,36,127,0
0,44,93,0
0,56,73,130
0,59,87,2
0,64,88,0
0,40,83,4
0,80,68,12
0,28,99,8
0,36,127,0
0,44,99,0
0,44,93,168
0,81,58,2
0,37,127,8
0,46,99,0
0,54,115,0
0,81,57,26
0,83,56,48
0,28,96,16
0,43,124,0
0,30,94,22
0,45,86,68
0,61,93,2
0,52,93,2
0,57,96,2
0,33,96,6
0,36,127,0
0,44,103,0
0,52,96,4
0,61,103,2
0,57,91,2
0,81,69,0
0,45,91,2
0,44,100,168
0,37,127,24
0,44,100,0
0,33,94,96
0,36,127,0
0,44,99,0
0,45,70,0
0,61,68,146
0,52,76,2
0,57,65,2
0,45,74,2
0,33,93,6
0,36,127,0
0,44,103,0
0,62,94,2
0,54,85,6
0,62,94,0
0,44,88,2
0,37,127,66
0,44,103,0
0,54,115,0
0,57,81,4
0,62,91,0
0,54,78,4
0,28,90,8
0,44,99,0
0,30,85,16
0,61,86,70
0,33,97,14
0,36,127,0
0,44,99,0
0,57,80,0
0,45,75,2
0,61,75,0
0,52,83,2
0,44,94,58
0,37,127,14
0,44,98,0
0,33,85,52
0,36,127,0
0,44,95,0
0,40,82,0
0,61,112,6
0,28,101,4
0,36,127,0
0,40,82,0
0,46,100,0
0,61,91,0
0,57,88,2
0,52,90,2
0,40,74,2
0,61,83,2
0,57,79,2
0,52,88,0
0,64,98,2
0,57,92,16
0,60,88,4
0,47,127,0
0,51,77,2
0,57,88,4
0,60,83,0
0,51,75,4
0,45,127,4
0,46,103,4
0,64,70,0
0,62,90,2
0,59,47,4
0,50,88,4
0,56,86,2
0,56,75,2
0,59,78,0
0,50,68,4
0,66,92,4
0,69,106,6
0,84,91,4
0,45,53,16
0,52,63,4
0,61,56,2
0,45,83,4
0,33,98,4
0,36,127,0
0,44,99,0
0,57,90,0
0,61,83,0
0,52,86,2
0,69,117,0
0,57,79,4
0,61,79,2
0,45,79,2
0,52,96,0
0,44,64,2
0,73,125,2
0,37,127,0
0,44,103,0
0,33,96,4
0,36,127,0
0,44,98,0
0,33,97,126
0,36,127,0
0,44,101,0
0,44,89,0
0,73,109,2
0,71,114,16
0,62,90,24
0,62,68,0
0,54,46,4
0,54,97,4
0,62,81,0
0,45,79,4
0,57,85,0
0,54,94,2
0,37,127,2
0,44,103,0
0,71,114,16
0,28,103,40
0,44,87,0
0,30,97,18
0,61,42,12
0,61,59,4
0,52,63,4
0,52,91,0
0,64,65,0
0,57,79,2
0,61,75,2
0,45,69,2
0,52,81,2
0,33,98,2
0,36,127,0
0,44,100,0
0,73,95,4
0,71,91,16
0,69,109,68
0,44,93,44
0,37,127,168
0,44,103,0
0,33,94,140
0,36,127,0
0,44,99,0
0,74,79,46
0,66,73,4
0,69,79,0
0,66,92,0
0,33,96,4
0,36,127,0
0,44,96,0
0,69,83,2
0,73,73,2
0,64,96,6
0,44,55,42
0,59,65,0
0,44,53,2
0,59,93,0
0,56,106,0
0,44,97,0
0,32,97,0
0,37,127,0
0,44,103,0
0,71,114,6
0,46,100,44
0,42,46,0
0,54,53,2
0,57,66,2
0,61,87,0
0,57,87,0
0,42,77,2
0,30,109,2
0,36,127,0
0,44,96,0
0,54,82,0
0,54,69,0
0,69,103,0
0,66,73,0
0,73,76,0
0,64,80,0
0,69,79,0
0,44,95,22
0,37,127,28
0,44,103,0
0,66,106,12
0,30,103,2
0,36,127,0
0,44,98,0
0,68,109,28
0,69,106,4
0,61,67,0
0,52,35,0
0,40,86,0
0,40,51,0
0,56,97,0
0,52,109,0
0,68,79,0
0,64,79,2
0,73,70,0
0,28,106,2
0,36,127,0
0,44,103,0
0,52,64,0
0,68,109,0
0,66,114,72
0,44,89,14
0,64,109,8
0,37,127,2
0,44,103,0
0,52,47,8
0,28,99,4
0,44,90,0
0,56,99,0
0,57,98,20
0,62,56,0
0,57,83,0
0,38,56,2
0,57,62,4
0,62,98,0
0,50,85,0
0,54,86,0
0,50,76,2
0,66,75,2
0,26,98,2
0,36,127,0
0,44,103,0
0,69,80,0
0,62,74,0
0,66,111,2
0,44,88,4
0,37,127,46
0,44,103,0
0,26,97,24
0,36,127,0
0,44,85,0
0,66,101,4
0,59,90,26
0,52,88,2
0,52,40,0
0,64,94,0
0,56,86,2
0,40,62,2
0,68,94,2
0,64,79,2
0,56,67,2
0,80,57,0
0,52,74,2
0,28,101,0
0,36,127,0
0,44,94,0
0,81,79,0
0,64,102,2
0,44,80,40
0,54,55,4
0,42,53,2
0,81,57,0
0,57,62,0
0,69,78,2
0,66,79,0
0,81,79,6
0,66,94,0
0,37,127,18
0,46,103,0
0,83,57,54
0,56,55,10
0,59,57,2
0,44,50,0
0,64,109,0
0,68,85,2
0,71,67,0
0,28,99,2
0,66,86,0
0,69,106,46
0,30,91,10
0,84,91,8
0,52,33,4
0,85,57,16
0,45,86,4
0,52,86,2
0,61,90,2
0,57,86,0
0,61,51,0
0,45,45,2
0,57,37,0
0,33,97,4
0,36,127,0
0,44,96,0
0,73,109,4
0,57,75,0
0,69,81,2
0,73,73,0
0,64,81,0
0,44,94,8
0,37,127,130
0,44,103,0
0,33,88,146
0,36,127,0
0,44,99,0
0,59,56,2
0,83,57,0
0,56,55,0
0,59,87,0
0,56,92,2
0,71,112,0
0,68,78,0
0,71,79,2
0,33,94,2
0,36,127,0
0,44,94,0
0,64,79,0
0,57,63,0
0,69,97,4
0,44,83,40
0,71,121,16
0,73,114,2
0,37,127,6
0,44,103,0
0,57,48,4
0,28,99,16
0,44,89,0
0,30,96,0
0,57,32,8
0,52,85,4
0,57,52,0
0,57,90,2
0,61,82,0
0,61,46,2
0,81,57,0
0,69,80,2
0,73,75,0
0,57,69,0
0,64,75,0
0,71,114,2
0,33,98,2
0,36,127,0
0,44,100,0
0,69,112,30
0,44,68,2
0,57,54,4
0,37,127,2
0,44,103,0
0,73,109,0
0,57,49,0
0,35,98,2
0,36,127,0
0,44,99,0
0,76,125,14
0,36,85,0
0,59,94,0
0,56,85,0
0,59,55,2
0,56,45,0
0,49,56,0
0,80,57,4
0,71,79,0
0,68,78,2
0,36,127,2
0,37,97,0
0,44,103,0
0,78,125,2
0,64,80,0
0,44,87,2
