track,note,velocity,time
17,52,83,0
17,63,86,0
17,59,80,0
17,68,84,0
17,63,0,13
17,68,0,1
17,59,0,2
17,52,0,0
17,63,92,3
17,59,85,0
17,68,96,0
17,52,97,0
17,63,0,9
17,52,0,2
17,68,0,0
17,59,0,2
17,63,92,7
17,52,92,0
17,59,82,0
17,68,96,0
17,52,0,20
17,63,0,4
17,59,0,2
17,68,0,0
17,63,89,17
17,68,92,0
17,52,94,0
17,59,80,0
17,52,0,215
17,63,0,0
17,68,0,1
17,59,0,0
17,52,85,24
17,75,75,0
17,71,94,0
17,68,79,0
17,71,0,41
17,52,0,0
17,75,0,4
17,68,0,1
17,71,94,123
17,68,77,0
17,75,75,0
17,71,0,10
17,68,0,1
17,75,0,3
17,76,72,46
17,68,63,0
17,61,73,0
17,73,62,0
17,61,0,338
17,73,0,26
17,76,0,0
17,68,0,3
17,71,75,109
17,68,51,0
17,52,76,0
17,75,60,0
17,71,0,20
17,68,0,4
17,75,0,2
17,52,0,6
17,68,62,50
17,52,74,0
17,71,88,0
17,75,66,0
17,71,0,12
17,68,0,1
17,52,0,0
17,75,0,4
17,76,69,43
17,73,62,0
17,61,71,0
17,68,64,0
17,61,0,331
17,61,100,29
17,76,0,13
17,68,0,3
17,73,0,2
17,76,85,9
17,61,0,22
17,76,0,21
17,73,79,2
17,73,0,31
17,69,68,14
17,76,69,0
17,73,62,0
17,76,0,343
17,73,0,1
17,69,0,0
17,69,71,9
17,76,70,0
17,73,66,0
17,54,73,0
17,54,0,17
17,73,0,9
17,69,0,0
17,76,0,5
17,76,66,86
17,69,68,0
17,59,78,0
17,73,59,0
17,59,0,34
17,73,0,13
17,69,0,1
17,76,0,9
17,71,66,149
17,59,71,0
17,78,66,0
17,75,64,0
17,75,0,10
17,78,0,0
17,71,0,2
17,59,0,1
17,69,78,133
17,73,73,0
17,76,72,0
17,69,0,10
17,76,0,1
17,73,0,0
17,71,76,4
17,75,64,0
17,68,71,0
17,71,0,411
17,75,0,9
17,68,0,16
17,68,73,44
17,73,75,0
17,61,68,0
17,76,75,0
17,61,0,17
17,73,0,3
17,76,0,1
17,68,0,1
17,61,84,38
17,68,71,0
17,73,71,0
17,76,66,0
17,76,0,11
17,73,0,0
17,61,0,0
17,68,0,2
17,52,74,47
17,71,90,0
17,75,71,0
17,68,73,0
17,52,0,323
17,52,88,30
17,68,0,9
17,71,0,9
17,68,100,3
17,52,0,6
17,75,0,17
17,68,0,3
17,71,92,4
17,71,0,21
17,61,75,39
17,68,71,0
17,76,66,0
17,73,63,0
17,76,0,12
17,68,0,8
17,73,0,1
17,73,109,34
17,73,0,11
17,71,104,49
17,71,0,11
17,61,0,25
17,73,104,24
17,73,0,11
17,76,72,49
17,73,69,0
17,69,72,0
17,76,0,404
17,69,0,1
17,73,0,1
17,69,83,12
17,73,84,0
17,73,0,46
17,69,0,0
17,76,78,14
17,69,80,0
17,73,77,0
17,73,0,11
17,69,0,0
17,76,0,2
17,78,77,62
17,59,76,0
17,71,74,0
17,75,73,0
17,75,0,208
17,78,0,0
17,71,0,1
17,59,0,0
17,57,74,26
17,76,79,0
17,61,68,0
17,73,77,0
17,54,68,0
17,73,0,13
17,76,0,1
17,57,0,4
17,61,0,0
17,54,0,2
17,57,68,30
17,61,58,0
17,76,80,0
17,73,79,0
17,54,58,0
17,73,0,9
17,76,0,2
17,57,0,2
17,61,0,1
17,54,0,1
17,56,46,41
17,57,75,0
17,76,78,0
17,61,71,0
17,73,73,0
17,54,64,0
17,56,0,8
17,73,0,26
17,76,0,3
17,57,0,7
17,54,0,2
17,61,0,1
17,57,75,3
17,76,76,0
17,73,79,0
17,54,63,0
17,61,68,0
17,73,0,1
17,76,0,0
17,57,0,1
17,54,0,0
17,61,0,1
17,57,73,28
17,61,63,0
17,54,62,0
17,73,71,0
17,76,74,0
17,73,0,14
17,61,0,2
17,57,0,0
17,54,0,1
17,76,0,1
17,56,51,2
17,57,72,0
17,61,60,0
17,54,63,0
17,76,74,0
17,73,71,0
17,56,0,9
17,57,0,1
17,61,0,0
17,54,0,1
17,73,0,1
17,76,0,2
17,78,81,95
17,75,77,0
17,75,0,13
17,78,0,2
17,68,92,7
17,71,88,0
17,64,80,0
17,68,0,6
17,64,0,2
17,71,0,2
17,68,86,28
17,73,81,0
17,64,69,0
17,68,0,1
17,73,0,3
17,64,0,2
17,64,76,53
17,68,89,0
17,71,86,0
17,68,0,9
17,64,0,1
17,71,0,2
17,68,86,18
17,73,77,0
17,64,73,0
17,68,0,6
17,73,0,1
17,64,0,1
17,71,120,44
17,71,0,7
17,72,120,29
17,72,0,3
17,74,117,15
17,74,0,2
17,76,117,14
17,76,0,8
17,74,113,3
17,74,0,9
17,72,110,16
17,72,0,13
17,71,123,2
17,71,0,22
17,67,117,8
17,67,0,16
17,74,117,2
17,74,0,10
17,72,107,7
17,72,0,17
17,71,117,6
17,71,0,363
17,68,109,117
17,68,0,13
17,69,99,17
17,69,0,17
17,71,99,14
17,71,0,21
17,73,109,6
17,73,0,81
17,75,114,7
17,75,0,35
17,76,101,3
17,76,0,10
17,78,96,26
17,78,0,20
17,71,76,19
17,75,64,0
17,68,71,0
17,71,0,411
17,75,0,9
17,68,0,16
17,68,73,44
17,73,75,0
17,61,68,0
17,76,75,0
17,61,0,17
17,73,0,3
17,76,0,1
17,68,0,1
17,61,84,38
17,68,71,0
17,73,71,0
17,76,66,0
17,76,0,11
17,73,0,0
17,61,0,0
17,68,0,2
17,52,74,47
17,71,90,0
17,75,71,0
17,68,73,0
17,52,0,323
17,52,88,30
17,68,0,9
17,71,0,9
17,68,100,3
17,52,0,6
17,75,0,17
17,68,0,3
17,71,92,4
17,71,0,21
17,61,75,39
17,68,71,0
17,76,66,0
17,73,63,0
17,76,0,12
17,68,0,8
17,73,0,1
17,73,109,34
17,73,0,11
17,71,104,49
17,71,0,11
17,61,0,25
17,73,104,24
17,73,0,11
17,76,72,49
17,73,69,0
17,69,72,0
17,76,0,404
17,69,0,1
17,73,0,1
17,69,83,12
17,73,84,0
17,73,0,46
17,69,0,0
17,76,78,14
17,69,80,0
17,73,77,0
17,73,0,11
17,69,0,0
17,76,0,2
17,78,77,62
17,59,76,0
17,71,74,0
17,75,73,0
17,75,0,208
17,78,0,0
17,71,0,1
17,59,0,0
17,57,74,26
17,76,79,0
17,61,68,0
17,73,77,0
17,54,68,0
17,73,0,13
17,76,0,1
17,57,0,4
17,61,0,0
17,54,0,2
17,57,68,30
17,61,58,0
17,76,80,0
17,73,79,0
17,54,58,0
17,73,0,9
17,76,0,2
17,57,0,2
17,61,0,1
17,54,0,1
17,56,46,41
17,57,75,0
17,76,78,0
17,61,71,0
17,73,73,0
17,54,64,0
17,56,0,8
17,73,0,26
17,76,0,3
17,57,0,7
17,54,0,2
17,61,0,1
17,57,75,3
17,76,76,0
17,73,79,0
17,54,63,0
17,61,68,0
17,73,0,1
17,76,0,0
17,57,0,1
17,54,0,0
17,61,0,1
17,57,73,28
17,61,63,0
17,54,62,0
17,73,71,0
17,76,74,0
17,73,0,14
17,61,0,2
17,57,0,0
17,54,0,1
17,76,0,1
17,56,51,2
17,57,72,0
17,61,60,0
17,54,63,0
17,76,74,0
17,73,71,0
17,56,0,9
17,57,0,1
17,61,0,0
17,54,0,1
17,73,0,1
17,76,0,2
17,78,81,95
17,75,77,0
17,75,0,13
17,78,0,2
17,68,92,7
17,71,88,0
17,64,80,0
17,68,0,6
17,64,0,2
17,71,0,2
17,68,86,28
17,73,81,0
17,64,69,0
17,68,0,1
17,73,0,3
17,64,0,2
17,64,76,53
17,68,89,0
17,71,86,0
17,68,0,9
17,64,0,1
17,71,0,2
17,68,86,18
17,73,77,0
17,64,73,0
17,68,0,6
17,73,0,1
17,64,0,1
17,71,120,44
17,71,0,7
17,72,120,29
17,72,0,3
17,74,117,15
17,74,0,2
17,76,117,14
17,76,0,8
17,74,113,3
17,74,0,9
17,72,110,16
17,72,0,13
17,71,123,2
17,71,0,22
17,67,117,8
17,67,0,16
17,74,117,2
17,74,0,10
17,72,107,7
17,72,0,17
17,71,117,6
17,71,0,363
17,68,109,117
17,68,0,13
17,69,99,17
17,69,0,17
17,71,99,14
17,71,0,21
17,73,109,6
17,73,0,81
17,75,114,7
17,75,0,35
17,76,101,3
17,76,0,10
17,78,96,26
17,78,0,20
17,71,120,19
17,71,0,7
17,72,120,29
17,72,0,3
17,74,117,15
17,74,0,2
17,76,117,14
17,76,0,8
17,74,113,3
17,74,0,9
17,72,110,16
17,72,0,13
17,71,123,2
17,71,0,22
17,67,117,8
17,67,0,16
17,74,117,2
17,74,0,10
17,72,107,7
17,72,0,17
17,71,117,6
17,71,0,363
17,68,109,117
17,68,0,13
17,69,99,17
17,69,0,17
17,71,99,14
17,71,0,21
17,73,109,6
17,73,0,81
17,75,114,7
17,75,0,35
17,76,101,3
17,76,0,10
17,78,96,26
17,78,0,20
17,59,57,19
17,52,57,0
17,64,52,0
17,71,62,0
17,68,47,0
17,75,54,0
17,71,0,422
17,68,0,2
17,64,0,0
17,52,0,0
17,59,0,1
17,75,0,2
18,52,83,0
18,63,86,0
18,59,80,0
18,68,84,0
18,63,0,13
18,68,0,1
18,59,0,2
18,52,0,0
18,63,92,3
18,59,85,0
18,68,96,0
18,52,97,0
18,63,0,9
18,52,0,2
18,68,0,0
18,59,0,2
18,63,92,7
18,52,92,0
18,59,82,0
18,68,96,0
18,52,0,20
18,63,0,4
18,59,0,2
18,68,0,0
18,63,89,17
18,68,92,0
18,52,94,0
18,59,80,0
18,52,0,215
18,63,0,0
18,68,0,1
18,59,0,0
18,52,85,24
18,75,75,0
18,71,94,0
18,68,79,0
18,71,0,41
18,52,0,0
18,75,0,4
18,68,0,1
18,71,94,123
18,68,77,0
18,75,75,0
18,71,0,10
18,68,0,1
18,75,0,3
18,76,72,46
18,68,63,0
18,61,73,0
18,73,62,0
18,61,0,338
18,73,0,26
18,76,0,0
18,68,0,3
18,71,75,109
18,68,51,0
18,52,76,0
18,75,60,0
18,71,0,20
18,68,0,4
18,75,0,2
18,52,0,6
18,68,62,50
18,52,74,0
18,71,88,0
18,75,66,0
18,71,0,12
18,68,0,1
18,52,0,0
18,75,0,4
18,76,69,43
18,73,62,0
18,61,71,0
18,68,64,0
18,61,0,331
18,61,100,29
18,76,0,13
18,68,0,3
18,73,0,2
18,76,85,9
18,61,0,22
18,76,0,21
18,73,79,2
18,73,0,31
18,69,68,14
18,76,69,0
18,73,62,0
18,76,0,343
18,73,0,1
18,69,0,0
18,69,71,9
18,76,70,0
18,73,66,0
18,54,73,0
18,54,0,17
18,73,0,9
18,69,0,0
18,76,0,5
18,76,66,86
18,69,68,0
18,59,78,0
18,73,59,0
18,59,0,34
18,73,0,13
18,69,0,1
18,76,0,9
18,71,66,149
18,59,71,0
18,78,66,0
18,75,64,0
18,75,0,10
18,78,0,0
18,71,0,2
18,59,0,1
18,69,78,133
18,73,73,0
18,76,72,0
18,69,0,10
18,76,0,1
18,73,0,0
18,71,76,4
18,75,64,0
18,68,71,0
18,71,0,411
18,75,0,9
18,68,0,16
18,68,73,44
18,73,75,0
18,61,68,0
18,76,75,0
18,61,0,17
18,73,0,3
18,76,0,1
18,68,0,1
18,61,84,38
18,68,71,0
18,73,71,0
18,76,66,0
18,76,0,11
18,73,0,0
18,61,0,0
18,68,0,2
18,52,74,47
18,71,90,0
18,75,71,0
18,68,73,0
18,52,0,323
18,52,88,30
18,68,0,9
18,71,0,9
18,68,100,3
18,52,0,6
18,75,0,17
18,68,0,3
18,71,92,4
18,71,0,21
18,61,75,39
18,68,71,0
18,76,66,0
18,73,63,0
18,76,0,12
18,68,0,8
18,73,0,1
18,73,109,34
18,73,0,11
18,71,104,49
18,71,0,11
18,61,0,25
18,73,104,24
18,73,0,11
18,76,72,49
18,73,69,0
18,69,72,0
18,76,0,404
18,69,0,1
18,73,0,1
18,69,83,12
18,73,84,0
18,73,0,46
18,69,0,0
18,76,78,14
18,69,80,0
18,73,77,0
18,73,0,11
18,69,0,0
18,76,0,2
18,78,77,62
18,59,76,0
18,71,74,0
18,75,73,0
18,75,0,208
18,78,0,0
18,71,0,1
18,59,0,0
18,57,74,26
18,76,79,0
18,61,68,0
18,73,77,0
18,54,68,0
18,73,0,13
18,76,0,1
18,57,0,4
18,61,0,0
18,54,0,2
18,57,68,30
18,61,58,0
18,76,80,0
18,73,79,0
18,54,58,0
18,73,0,9
18,76,0,2
18,57,0,2
18,61,0,1
18,54,0,1
18,56,46,41
18,57,75,0
18,76,78,0
18,61,71,0
18,73,73,0
18,54,64,0
18,56,0,8
18,73,0,26
18,76,0,3
18,57,0,7
18,54,0,2
18,61,0,1
18,57,75,3
18,76,76,0
18,73,79,0
18,54,63,0
18,61,68,0
18,73,0,1
18,76,0,0
18,57,0,1
18,54,0,0
18,61,0,1
18,57,73,28
18,61,63,0
18,54,62,0
18,73,71,0
18,76,74,0
18,73,0,14
18,61,0,2
18,57,0,0
18,54,0,1
18,76,0,1
18,56,51,2
18,57,72,0
18,61,60,0
18,54,63,0
18,76,74,0
18,73,71,0
18,56,0,9
18,57,0,1
18,61,0,0
18,54,0,1
18,73,0,1
18,76,0,2
18,78,81,95
18,75,77,0
18,75,0,13
18,78,0,2
18,68,92,7
18,71,88,0
18,64,80,0
18,68,0,6
18,64,0,2
18,71,0,2
18,68,86,28
18,73,81,0
18,64,69,0
18,68,0,1
18,73,0,3
18,64,0,2
18,64,76,53
18,68,89,0
18,71,86,0
18,68,0,9
18,64,0,1
18,71,0,2
18,68,86,18
18,73,77,0
18,64,73,0
18,68,0,6
18,73,0,1
18,64,0,1
18,71,120,44
18,71,0,7
18,72,120,29
18,72,0,3
18,74,117,15
18,74,0,2
18,76,117,14
18,76,0,8
18,74,113,3
18,74,0,9
18,72,110,16
18,72,0,13
18,71,123,2
18,71,0,22
18,67,117,8
18,67,0,16
18,74,117,2
18,74,0,10
18,72,107,7
18,72,0,17
18,71,117,6
18,71,0,363
18,68,109,117
18,68,0,13
18,69,99,17
18,69,0,17
18,71,99,14
18,71,0,21
18,73,109,6
18,73,0,81
18,75,114,7
18,75,0,35
18,76,101,3
18,76,0,10
18,78,96,26
18,78,0,20
18,71,76,19
18,75,64,0
18,68,71,0
18,71,0,411
18,75,0,9
18,68,0,16
18,68,73,44
18,73,75,0
18,61,68,0
18,76,75,0
18,61,0,17
18,73,0,3
18,76,0,1
18,68,0,1
18,61,84,38
18,68,71,0
18,73,71,0
18,76,66,0
18,76,0,11
18,73,0,0
18,61,0,0
18,68,0,2
18,52,74,47
18,71,90,0
18,75,71,0
18,68,73,0
18,52,0,323
18,52,88,30
18,68,0,9
18,71,0,9
18,68,100,3
18,52,0,6
18,75,0,17
18,68,0,3
18,71,92,4
18,71,0,21
18,61,75,39
18,68,71,0
18,76,66,0
18,73,63,0
18,76,0,12
18,68,0,8
18,73,0,1
18,73,109,34
18,73,0,11
18,71,104,49
18,71,0,11
18,61,0,25
18,73,104,24
18,73,0,11
18,76,72,49
18,73,69,0
18,69,72,0
18,76,0,404
18,69,0,1
18,73,0,1
18,69,83,12
18,73,84,0
18,73,0,46
18,69,0,0
18,76,78,14
18,69,80,0
18,73,77,0
18,73,0,11
18,69,0,0
18,76,0,2
18,78,77,62
18,59,76,0
18,71,74,0
18,75,73,0
18,75,0,208
18,78,0,0
18,71,0,1
18,59,0,0
18,57,74,26
18,76,79,0
18,61,68,0
18,73,77,0
18,54,68,0
18,73,0,13
18,76,0,1
18,57,0,4
18,61,0,0
18,54,0,2
18,57,68,30
18,61,58,0
18,76,80,0
18,73,79,0
18,54,58,0
18,73,0,9
18,76,0,2
18,57,0,2
18,61,0,1
18,54,0,1
18,56,46,41
18,57,75,0
18,76,78,0
18,61,71,0
18,73,73,0
18,54,64,0
18,56,0,8
18,73,0,26
18,76,0,3
18,57,0,7
18,54,0,2
18,61,0,1
