track,note,velocity,time
1,68,70,90
1,68,0,30
1,68,70,0
1,68,0,30
1,68,70,30
1,68,0,30
1,68,70,90
1,68,0,30
1,68,70,60
1,68,0,30
1,68,70,60
1,68,0,30
1,68,70,60
1,68,0,30
1,68,70,60
1,68,0,30
1,68,70,90
1,68,0,30
1,68,70,60
1,68,0,30
1,68,70,60
1,68,0,30
1,68,70,60
1,68,0,30
1,68,70,60
1,68,0,30
1,68,70,90
1,68,0,30
1,68,70,60
1,68,0,30
1,68,70,60
1,68,0,30
1,68,70,60
1,68,0,30
1,68,70,60
1,68,0,30
1,68,70,90
1,68,0,30
1,68,70,60
1,68,0,30
1,68,70,60
1,68,0,30
1,68,70,60
1,68,0,30
1,68,70,60
1,68,0,30
1,68,70,90
1,68,0,30
1,68,70,60
1,68,0,30
1,68,70,60
1,68,0,30
1,68,70,60
1,68,0,30
1,68,70,60
1,68,0,30
1,68,70,90
1,68,0,30
1,68,70,60
1,68,0,30
1,68,70,60
1,68,0,30
1,68,70,60
1,68,0,30
1,68,70,60
1,68,0,30
1,68,70,90
1,68,0,30
1,68,70,60
1,68,0,30
1,68,70,60
1,68,0,30
1,68,70,60
1,68,0,30
1,68,70,60
1,68,0,30
1,68,70,90
1,68,0,30
1,68,70,60
1,68,0,30
1,68,70,60
1,68,0,30
1,68,70,60
1,68,0,30
1,68,70,60
1,68,0,30
1,68,70,90
1,68,0,30
1,68,70,60
1,68,0,30
1,68,70,60
1,68,0,30
1,68,70,60
1,68,0,30
1,68,70,60
1,68,0,30
1,68,70,90
1,68,0,30
1,68,70,60
1,68,0,30
1,68,70,60
1,68,0,30
1,68,70,60
1,68,0,30
1,68,70,60
1,68,0,30
1,68,70,90
1,68,0,30
1,68,70,60
1,68,0,30
1,68,70,60
1,68,0,30
1,68,70,60
1,68,0,30
1,68,70,60
1,68,0,30
1,68,70,90
1,68,0,30
1,68,70,60
1,68,0,30
1,68,70,60
1,68,0,30
1,68,70,60
1,68,0,30
1,68,70,60
1,68,0,30
1,68,70,90
1,68,0,30
1,68,70,60
1,68,0,30
1,68,70,60
1,68,0,30
1,68,70,60
1,68,0,30
1,68,70,60
1,68,0,30
1,68,70,90
1,68,0,30
1,68,70,60
1,68,0,30
1,68,70,60
1,68,0,30
1,68,70,60
1,68,0,30
1,68,70,60
1,68,0,30
1,68,70,90
1,68,0,30
1,68,70,60
1,68,0,30
1,68,70,60
1,68,0,30
1,68,70,60
1,68,0,30
1,68,70,60
1,68,0,30
1,68,70,90
1,68,0,30
1,68,70,60
1,68,0,30
1,68,70,60
1,68,0,30
1,68,70,60
1,68,0,30
1,68,70,60
1,68,0,30
1,68,70,90
1,68,0,30
1,68,70,60
1,68,0,30
1,68,70,60
1,68,0,30
1,68,70,60
1,68,0,30
1,68,70,60
1,68,0,30
1,68,70,90
1,68,0,30
1,68,70,60
1,68,0,30
1,68,70,60
1,68,0,30
1,68,70,60
1,68,0,30
1,68,70,60
1,68,0,30
1,68,70,90
1,68,0,30
1,68,70,60
1,68,0,30
1,68,70,60
1,68,0,30
1,68,70,60
1,68,0,30
1,68,70,60
1,68,0,30
1,68,70,90
1,68,0,30
1,68,70,60
1,68,0,30
1,68,70,60
1,68,0,30
1,68,70,60
1,68,0,30
1,68,70,60
1,68,0,30
1,68,70,90
1,68,0,30
1,68,70,60
1,68,0,30
1,68,70,60
1,68,0,30
1,68,70,60
1,68,0,30
1,68,70,60
1,68,0,30
1,68,70,90
1,68,0,30
1,68,70,60
1,68,0,30
1,68,70,60
1,68,0,30
1,68,70,60
1,68,0,30
1,68,70,60
1,68,0,30
1,68,70,90
1,68,0,30
1,68,70,60
1,68,0,30
1,68,70,60
1,68,0,30
1,68,70,60
1,68,0,30
1,68,70,60
1,68,0,30
1,68,70,90
1,68,0,30
1,68,70,60
1,68,0,30
1,68,70,60
1,68,0,30
1,68,70,60
1,68,0,30
1,68,70,60
1,68,0,30
1,68,70,90
1,68,0,30
1,68,70,60
1,68,0,30
1,68,70,60
1,68,0,30
1,68,70,60
1,68,0,30
1,68,70,60
1,68,0,30
1,68,70,90
1,68,0,30
1,68,70,60
1,68,0,30
1,68,70,60
1,68,0,30
1,68,70,60
1,68,0,30
1,68,70,60
1,68,0,30
1,68,70,90
1,68,0,30
1,68,70,60
1,68,0,30
1,68,70,60
1,68,0,30
1,68,70,60
1,68,0,30
1,68,70,60
1,68,0,30
1,68,70,90
1,68,0,30
1,68,70,60
1,68,0,30
1,68,70,60
1,68,0,30
1,68,70,60
1,68,0,30
1,68,70,60
1,68,0,30
1,68,70,90
1,68,0,30
1,68,70,60
1,68,0,30
1,68,70,60
1,68,0,30
1,68,70,60
1,68,0,30
1,68,70,60
1,68,0,30
1,68,70,90
1,68,0,30
1,68,70,60
1,68,0,30
1,68,70,60
1,68,0,30
1,68,70,60
1,68,0,30
1,68,70,60
1,68,0,30
1,68,70,90
1,68,0,30
1,68,70,60
1,68,0,30
1,68,70,60
1,68,0,30
1,68,70,60
1,68,0,30
1,68,70,60
1,68,0,30
1,68,70,90
1,68,0,30
1,68,70,60
1,68,0,30
1,68,70,60
1,68,0,30
1,68,70,60
1,68,0,30
1,68,70,60
1,68,0,30
1,68,70,90
1,68,0,30
1,68,70,60
1,68,0,30
1,68,70,60
1,68,0,30
1,68,70,60
1,68,0,30
1,68,70,60
1,68,0,30
1,68,70,90
1,68,0,30
1,68,70,60
1,68,0,30
1,68,70,60
1,68,0,30
1,68,70,60
1,68,0,30
1,68,70,60
1,68,0,30
1,68,70,90
1,68,0,30
1,68,70,60
1,68,0,30
1,68,70,60
1,68,0,30
1,68,70,60
1,68,0,30
1,68,70,60
1,68,0,30
1,68,70,90
1,68,0,30
1,68,70,60
1,68,0,30
1,68,70,60
1,68,0,30
1,68,70,60
1,68,0,30
1,68,70,60
1,68,0,30
1,68,70,90
1,68,0,30
1,68,70,60
1,68,0,30
1,68,70,60
1,68,0,30
1,68,70,60
1,68,0,30
1,68,70,60
1,68,0,30
1,68,70,90
1,68,0,30
1,68,70,60
1,68,0,30
1,68,70,60
1,68,0,30
1,68,70,60
1,68,0,30
1,68,70,60
1,68,0,30
1,68,70,90
1,68,0,30
1,68,70,60
1,68,0,30
1,68,70,60
1,68,0,30
1,68,70,60
1,68,0,30
1,68,70,60
1,68,0,30
1,68,70,90
1,68,0,30
1,68,70,60
1,68,0,30
1,68,70,60
1,68,0,30
1,68,70,60
1,68,0,30
1,68,70,60
1,68,0,30
1,68,70,90
1,68,0,30
1,68,70,60
1,68,0,30
1,68,70,60
1,68,0,30
1,68,70,60
1,68,0,30
1,68,70,60
1,68,0,30
1,68,70,90
1,68,0,30
1,68,70,60
1,68,0,30
1,68,70,60
1,68,0,30
1,68,70,60
1,68,0,30
1,68,70,60
1,68,0,30
1,68,70,90
1,68,0,30
1,68,70,60
1,68,0,30
1,68,70,60
1,68,0,30
1,68,70,60
1,68,0,30
1,68,70,60
1,68,0,30
1,68,70,90
1,68,0,30
1,68,70,60
1,68,0,30
1,68,70,60
1,68,0,30
1,68,70,60
1,68,0,30
1,68,70,60
1,68,0,30
1,68,70,90
1,68,0,30
1,68,70,60
1,68,0,30
1,68,70,60
1,68,0,30
1,68,70,60
1,68,0,30
1,68,70,60
1,68,0,30
1,68,70,90
1,68,0,30
1,68,70,60
1,68,0,30
1,68,70,60
1,68,0,30
1,68,70,60
1,68,0,30
1,68,70,60
1,68,0,30
1,68,70,90
1,68,0,30
1,68,70,60
1,68,0,30
1,68,70,60
1,68,0,30
1,68,70,60
1,68,0,30
1,68,70,60
1,68,0,30
1,68,70,90
1,68,0,30
1,68,70,60
1,68,0,30
1,68,70,60
1,68,0,30
1,68,70,60
1,68,0,30
1,68,70,60
1,68,0,30
1,68,70,90
1,68,0,30
1,68,70,60
1,68,0,30
1,68,70,60
1,68,0,30
1,68,70,60
1,68,0,30
1,68,70,60
1,68,0,30
1,68,70,90
1,68,0,30
1,68,70,60
1,68,0,30
1,68,70,60
1,68,0,30
1,68,70,60
1,68,0,30
1,68,70,60
1,68,0,30
1,68,70,90
1,68,0,30
1,68,70,60
1,68,0,30
1,68,70,60
1,68,0,30
1,68,70,60
1,68,0,30
1,68,70,60
1,68,0,30
1,68,70,90
1,68,0,30
1,68,70,60
1,68,0,30
1,68,70,60
1,68,0,30
1,68,70,60
1,68,0,30
1,68,70,60
1,68,0,30
1,68,70,90
1,68,0,30
1,68,70,60
1,68,0,30
1,68,70,60
1,68,0,30
1,68,70,60
1,68,0,30
1,68,70,60
1,68,0,30
1,68,70,90
1,68,0,30
1,68,70,60
1,68,0,30
1,68,70,60
1,68,0,30
1,68,70,60
1,68,0,30
1,68,70,60
1,68,0,30
1,68,70,90
1,68,0,30
1,68,70,60
1,68,0,30
1,68,70,60
1,68,0,30
1,68,70,60
1,68,0,30
1,68,70,60
1,68,0,30
1,68,70,90
1,68,0,30
1,68,70,60
1,68,0,30
1,68,70,60
1,68,0,30
1,68,70,60
1,68,0,30
1,68,70,60
1,68,0,30
1,68,70,90
1,68,0,30
1,68,70,60
1,68,0,30
1,68,70,60
1,68,0,30
1,68,70,60
1,68,0,30
1,68,70,60
1,68,0,30
1,68,70,90
1,68,0,30
1,68,70,60
1,68,0,30
1,68,70,60
1,68,0,30
1,68,70,60
1,68,0,30
1,68,70,60
1,68,0,30
1,68,70,90
1,68,0,30
1,68,70,60
1,68,0,30
1,68,70,60
1,68,0,30
1,68,70,60
1,68,0,30
1,68,70,60
1,68,0,30
1,68,70,90
1,68,0,30
1,68,70,60
1,68,0,30
1,68,70,60
1,68,0,30
1,68,70,60
1,68,0,30
1,68,70,60
1,68,0,30
1,68,70,90
1,68,0,30
1,68,70,60
1,68,0,30
1,68,70,60
1,68,0,30
1,68,70,60
1,68,0,30
1,68,70,60
1,68,0,30
1,68,70,90
1,68,0,30
1,68,70,60
1,68,0,30
1,68,70,60
1,68,0,30
1,68,70,60
1,68,0,30
1,68,70,60
1,68,0,30
1,68,70,90
1,68,0,30
1,68,70,60
1,68,0,30
1,68,70,60
1,68,0,30
1,68,70,60
1,68,0,30
1,68,70,60
1,68,0,30
1,68,70,90
1,68,0,30
1,68,70,60
1,68,0,30
1,68,70,60
1,68,0,30
1,68,70,60
1,68,0,30
1,68,70,60
1,68,0,30
1,68,70,90
1,68,0,30
1,68,70,60
1,68,0,30
1,68,70,60
1,68,0,30
1,68,70,60
1,68,0,30
1,68,70,60
1,68,0,30
1,68,70,90
1,68,0,30
1,68,70,60
1,68,0,30
1,68,70,60
1,68,0,30
1,68,70,60
1,68,0,30
1,68,70,60
1,68,0,30
1,68,70,90
1,68,0,30
1,68,70,60
1,68,0,30
1,68,70,60
1,68,0,30
1,68,70,60
1,68,0,30
1,68,70,60
1,68,0,30
1,68,70,90
1,68,0,30
1,68,70,60
1,68,0,30
1,68,70,60
1,68,0,30
1,68,70,60
1,68,0,30
1,68,70,60
1,68,0,30
1,68,70,90
1,68,0,30
1,68,70,60
1,68,0,30
1,68,70,60
1,68,0,30
1,68,70,60
1,68,0,30
1,68,70,60
1,68,0,30
1,68,70,90
1,68,0,30
1,68,70,60
1,68,0,30
1,68,70,60
1,68,0,30
1,68,70,60
1,68,0,30
1,68,70,60
1,68,0,30
1,68,70,90
1,68,0,30
1,68,70,60
1,68,0,30
1,68,70,60
1,68,0,30
1,68,70,60
1,68,0,30
1,68,70,60
1,68,0,30
1,68,70,90
1,68,0,30
1,68,70,60
1,68,0,30
1,68,70,60
1,68,0,30
1,68,70,60
1,68,0,30
1,68,70,60
1,68,0,30
1,68,70,90
1,68,0,30
1,68,70,60
1,68,0,30
1,68,70,60
1,68,0,30
1,68,70,60
1,68,0,30
1,68,70,60
1,68,0,30
1,68,70,90
1,68,0,30
1,68,70,60
1,68,0,30
1,68,70,60
1,68,0,30
1,68,70,60
1,68,0,30
1,68,70,60
1,68,0,30
1,68,70,90
1,68,0,30
1,68,70,60
1,68,0,30
1,68,70,60
1,68,0,30
1,68,70,60
1,68,0,30
1,68,70,60
1,68,0,30
1,68,70,90
1,68,0,30
1,68,70,60
1,68,0,30
1,68,70,60
1,68,0,30
1,68,70,60
1,68,0,30
1,68,70,60
1,68,0,30
1,68,70,90
1,68,0,30
1,68,70,60
1,68,0,30
1,68,70,60
1,68,0,30
1,68,70,60
1,68,0,30
1,68,70,60
1,68,0,30
1,68,70,90
1,68,0,30
1,68,70,60
1,68,0,30
1,68,70,60
1,68,0,30
1,68,70,60
1,68,0,30
1,68,70,60
1,68,0,30
1,68,70,90
1,68,0,30
1,68,70,60
1,68,0,30
1,68,70,60
1,68,0,30
1,68,70,60
1,68,0,30
1,68,70,60
1,68,0,30
1,68,70,90
1,68,0,30
1,68,70,60
1,68,0,30
1,68,70,60
1,68,0,30
1,68,70,60
1,68,0,30
1,68,70,60
1,68,0,30
1,68,70,90
1,68,0,30
1,68,70,60
1,68,0,30
1,68,70,60
1,68,0,30
1,68,70,60
1,68,0,30
1,68,70,60
1,68,0,30
1,68,70,90
1,68,0,30
1,68,70,60
1,68,0,30
1,68,70,60
1,68,0,30
1,68,70,60
1,68,0,30
1,68,70,60
1,68,0,30
1,68,70,90
1,68,0,30
1,68,70,60
1,68,0,30
1,68,70,6
1,68,0,7
1,68,70,7
1,68,0,7
1,68,70,0
1,68,0,7
1,68,70,0
1,68,0,8
1,68,70,0
1,68,0,8
2,87,100,0
2,87,0,60
2,89,100,60
2,89,0,180
2,91,100,180
2,91,0,60
2,89,100,60
2,89,0,60
2,87,100,0
2,87,0,60
2,89,100,60
2,89,0,60
2,87,100,60
2,87,0,60
2,89,100,0
2,89,0,60
2,87,100,0
2,87,0,60
2,89,100,0
2,89,0,60
2,91,100,0
2,91,0,60
2,91,100,60
2,91,0,180
2,75,100,480
2,75,0,60
2,77,100,60
2,77,0,60
2,79,100,300
2,79,0,60
2,77,100,60
2,77,0,60
2,75,100,0
2,75,0,60
2,77,100,60
2,77,0,60
2,75,100,60
2,75,0,60
2,77,100,0
2,77,0,60
2,77,100,60
2,77,0,60
2,79,100,0
2,79,0,60
2,79,100,60
2,79,0,60
2,75,100,600
2,75,0,60
2,77,100,60
2,77,0,60
2,79,100,300
2,79,0,60
2,77,100,60
2,77,0,60
2,75,100,0
2,75,0,60
2,77,100,60
2,77,0,60
2,75,100,60
2,75,0,60
2,77,100,0
2,77,0,60
2,77,100,60
2,77,0,60
2,79,100,0
2,79,0,60
2,79,100,60
2,79,0,60
3,46,100,960
3,51,100,0
3,55,100,8
3,58,100,13
3,63,100,7
3,51,0,692
3,46,0,0
3,55,0,8
3,58,0,13
3,63,0,7
4,68,100,1920
4,68,0,30
4,65,100,0
4,65,0,30
4,63,100,0
4,63,0,30
4,62,100,0
4,62,0,30
4,68,100,0
4,68,0,120
4,63,100,60
4,67,100,0
4,67,0,30
4,63,0,0
4,60,100,30
4,63,100,0
4,63,0,60
4,60,0,0
4,72,100,60
4,72,0,30
4,70,100,0
4,70,0,30
4,68,100,0
4,68,0,30
4,63,100,0
4,60,100,0
4,60,0,30
4,63,0,0
4,63,100,60
4,67,100,0
4,67,0,30
4,63,0,0
4,60,100,30
4,63,100,0
4,63,0,45
4,60,0,0
4,56,100,75
4,60,100,0
4,60,0,30
4,56,0,0
4,55,100,30
4,58,100,0
4,58,0,30
4,55,0,0
4,51,100,30
4,55,100,0
4,58,100,0
4,63,100,0
4,63,0,120
4,51,0,0
4,55,0,0
4,58,0,0
4,63,100,0
4,67,100,0
4,67,0,60
4,63,0,0
4,63,100,0
4,67,100,0
4,67,0,120
4,63,0,0
4,65,100,60
4,68,100,0
4,68,0,30
4,65,0,0
4,63,100,30
4,67,100,0
4,67,0,45
4,63,0,0
4,68,100,15
4,68,0,60
4,67,100,0
4,67,0,15
4,67,100,105
4,68,100,105
4,68,0,15
4,67,0,0
4,67,100,0
4,67,0,15
4,68,100,0
4,68,0,15
4,67,100,0
4,67,0,15
