track,note,velocity,time
1,71,116,27648
1,76,122,20
1,79,122,136
1,74,110,2022
1,74,110,56
1,76,110,20
1,78,110,50
1,74,122,384
1,69,110,338
1,71,113,1030
1,76,125,192
1,79,122,342
1,69,98,1992
1,73,107,0
1,69,104,54
1,73,96,0
1,71,104,192
1,74,98,0
1,73,104,56
1,76,104,0
1,69,98,102
1,73,104,0
1,66,110,132
1,69,100,0
1,64,110,24
1,67,107,0
1,62,107,56
1,66,96,0
1,66,110,484
1,74,113,0
1,66,100,46
1,74,104,0
1,67,107,58
1,76,116,0
1,69,100,72
1,78,116,0
1,69,96,562
1,78,96,0
1,71,104,12
1,79,107,0
1,69,96,26
1,78,96,0
1,67,96,158
1,76,98,0
1,66,96,114
1,74,100,0
1,64,104,116
1,73,102,0
1,64,104,188
1,73,104,0
1,66,100,18
1,74,98,0
1,67,94,74
1,76,98,0
1,66,107,44
1,74,110,0
1,71,116,3840
1,76,122,20
1,79,122,136
1,74,110,2022
1,74,110,56
1,76,110,20
1,78,110,50
1,74,122,384
1,69,110,338
1,71,113,1030
1,76,125,192
1,79,122,342
1,69,98,1992
1,73,107,0
1,69,104,54
1,73,96,0
1,71,104,192
1,74,98,0
1,73,104,56
1,76,104,0
1,69,98,102
1,73,104,0
1,66,110,132
1,69,100,0
1,64,110,24
1,67,107,0
1,62,107,56
1,66,96,0
1,66,110,484
1,74,113,0
1,66,100,46
1,74,104,0
1,67,107,58
1,76,116,0
1,69,100,72
1,78,116,0
1,69,96,562
1,78,96,0
1,71,104,12
1,79,107,0
1,69,96,26
1,78,96,0
1,67,96,158
1,76,98,0
1,66,96,114
1,74,100,0
1,64,104,116
1,73,102,0
1,64,104,188
1,73,104,0
1,66,100,18
1,74,98,0
1,67,94,74
1,76,98,0
1,66,107,44
1,74,110,0
1,76,127,3072
1,76,127,434
1,78,127,352
1,78,127,438
1,76,110,384
1,78,122,176
1,79,125,20
1,79,125,432
1,79,127,432
1,79,125,258
1,78,125,236
1,77,119,192
1,71,127,224
1,76,127,0
1,80,122,0
1,71,122,434
1,76,125,0
1,80,122,0
1,71,125,336
1,76,127,0
1,80,122,0
1,71,122,444
1,76,125,0
1,80,122,0
1,78,100,384
1,76,119,122
1,73,125,88
1,76,122,0
1,81,122,0
1,73,122,64
1,76,113,0
1,81,110,0
1,73,122,212
1,76,122,0
1,81,116,0
1,71,127,660
1,76,127,268
1,71,116,1074
1,76,122,20
1,79,122,136
1,74,110,2022
1,74,110,56
1,76,110,20
1,78,110,50
1,74,122,384
1,69,110,338
1,71,113,1030
1,76,125,192
1,79,122,342
1,69,98,1992
1,73,107,0
1,69,104,54
1,73,96,0
1,71,104,192
1,74,98,0
1,73,104,56
1,76,104,0
1,69,98,102
1,73,104,0
1,66,110,132
1,69,100,0
1,64,110,24
1,67,107,0
1,62,107,56
1,66,96,0
1,66,110,484
1,74,113,0
1,66,100,46
1,74,104,0
1,67,107,58
1,76,116,0
1,69,100,72
1,78,116,0
1,69,96,562
1,78,96,0
1,71,104,12
1,79,107,0
1,69,96,26
1,78,96,0
1,67,96,158
1,76,98,0
1,66,96,114
1,74,100,0
1,64,104,116
1,73,102,0
1,64,104,188
1,73,104,0
1,66,100,18
1,74,98,0
1,67,94,74
1,76,98,0
1,66,107,44
1,74,110,0
1,76,127,3072
1,76,127,434
1,78,127,352
1,78,127,438
1,76,110,384
1,78,122,176
1,79,125,20
1,79,125,432
1,79,127,432
1,79,125,258
1,78,125,236
1,77,119,192
1,71,127,224
1,76,127,0
1,80,122,0
1,71,122,434
1,76,125,0
1,80,122,0
1,71,125,336
1,76,127,0
1,80,122,0
1,71,122,444
1,76,125,0
1,80,122,0
1,78,100,384
1,76,119,122
1,73,125,88
1,76,122,0
1,81,122,0
1,73,122,64
1,76,113,0
1,81,110,0
1,73,122,212
1,76,122,0
1,81,116,0
1,71,127,660
1,76,127,268
1,71,116,1074
1,76,122,20
1,79,122,136
1,74,110,2022
1,74,110,56
1,76,110,20
1,78,110,50
1,74,122,384
1,69,110,338
1,71,113,1030
1,76,125,192
1,79,122,342
1,69,98,1992
1,73,107,0
1,69,104,54
1,73,96,0
1,71,104,192
1,74,98,0
1,73,104,56
1,76,104,0
1,69,98,102
1,73,104,0
1,66,110,132
1,69,100,0
1,64,110,24
1,67,107,0
1,62,107,56
1,66,96,0
1,66,110,484
1,74,113,0
1,66,100,46
1,74,104,0
1,67,107,58
1,76,116,0
1,69,100,72
1,78,116,0
1,69,96,562
1,78,96,0
1,71,104,12
1,79,107,0
1,69,96,26
1,78,96,0
1,67,96,158
1,76,98,0
1,66,96,114
1,74,100,0
1,64,104,116
1,73,102,0
1,64,104,188
1,73,104,0
1,66,100,18
1,74,98,0
1,67,94,74
1,76,98,0
1,66,107,44
1,74,110,0
1,71,97,3072
1,79,97,0
1,69,96,276
1,78,96,0
1,67,96,158
1,76,98,0
1,66,96,114
1,74,100,0
1,64,104,116
1,73,102,0
1,64,104,188
1,73,104,0
1,66,100,18
1,74,98,0
1,67,94,74
1,76,98,0
1,66,107,44
1,74,110,0
1,71,85,3072
1,79,85,0
1,69,96,276
1,78,96,0
1,67,96,158
1,76,98,0
1,66,96,114
1,74,100,0
1,64,104,116
1,73,102,0
1,64,104,188
1,73,104,0
1,66,100,18
1,74,98,0
1,67,94,74
1,76,98,0
1,66,107,44
1,74,110,0
2,64,89,8448
2,59,68,192
2,62,89,172
2,64,86,170
2,59,86,354
2,62,89,184
2,64,86,170
2,59,83,0
2,62,86,192
2,64,86,156
2,59,77,344
2,62,83,156
2,64,83,124
2,62,89,160
2,57,83,176
2,59,86,154
2,62,83,164
2,57,83,364
2,59,86,160
2,62,83,166
2,57,83,344
2,59,86,152
2,62,86,148
2,57,77,350
2,59,86,184
2,62,89,134
2,64,89,26
2,59,68,192
2,62,89,172
2,64,86,170
2,59,86,354
2,62,89,184
2,64,86,170
2,59,83,0
2,62,86,192
2,64,86,156
2,59,77,344
2,62,83,156
2,64,83,124
2,62,89,160
2,57,83,176
2,59,86,154
2,62,83,164
2,57,83,364
2,59,86,160
2,62,83,166
2,57,83,344
2,59,86,152
2,62,86,148
2,57,77,350
2,59,86,184
2,62,89,134
2,64,89,26
2,59,68,192
2,62,89,172
2,64,86,170
2,59,86,354
2,62,89,184
2,64,86,170
2,59,83,0
2,62,86,192
2,64,86,156
2,59,77,344
2,62,83,156
2,64,83,124
2,62,89,160
2,57,83,176
2,59,86,154
2,62,83,164
2,57,83,364
2,59,86,160
2,62,83,166
2,57,83,344
2,59,86,152
2,62,86,148
2,57,77,350
2,59,86,184
2,62,89,134
2,64,68,26
2,59,50,4
2,62,62,192
2,64,60,166
2,59,48,0
2,62,50,192
2,64,66,138
2,59,52,356
2,62,56,180
2,64,56,158
2,59,54,348
2,62,56,170
2,64,50,130
2,62,64,182
2,57,64,178
2,59,62,146
2,62,62,164
2,57,52,348
2,59,60,184
2,62,52,190
2,57,60,324
2,59,48,152
2,62,62,186
2,57,50,352
2,59,62,174
2,62,54,166
2,64,83,162
2,59,62,172
2,62,62,174
2,64,60,162
2,59,58,0
2,62,46,192
2,64,68,150
2,59,60,356
2,62,54,158
2,64,64,160
2,59,52,364
2,62,56,12
2,64,74,192
2,69,74,24
2,64,60,192
2,67,60,176
2,69,62,136
2,64,56,370
2,67,46,184
2,69,56,146
2,64,50,368
2,67,56,172
2,69,54,152
2,64,44,344
2,67,52,146
2,69,60,90
2,62,68,0
2,57,52,192
2,59,64,142
2,62,54,112
2,57,40,376
2,59,64,182
2,62,54,178
2,57,44,350
2,59,56,160
2,62,62,174
2,57,54,344
2,59,68,160
2,62,60,174
2,64,86,12
2,59,71,192
2,62,86,176
2,64,74,170
2,59,66,2
2,62,74,192
2,64,74,154
2,69,62,8
2,64,74,0
2,67,68,192
2,69,74,182
2,64,71,366
2,67,71,166
2,69,80,156
2,62,86,150
2,57,74,180
2,59,86,178
2,62,86,170
2,57,71,368
2,59,86,160
2,62,77,168
2,57,74,366
2,59,80,150
2,62,86,152
2,57,77,354
2,59,74,172
2,62,71,160
2,64,68,20
2,59,50,4
2,62,62,192
2,64,60,166
2,59,48,0
2,62,50,192
2,64,66,138
2,59,52,356
2,62,56,180
2,64,56,158
2,59,54,348
2,62,56,170
2,64,50,130
2,62,64,182
2,57,64,178
2,59,62,146
2,62,62,164
2,57,52,348
2,59,60,184
2,62,52,190
2,57,60,324
2,59,48,152
2,62,62,186
2,57,50,352
2,59,62,174
2,62,54,166
2,64,83,162
2,59,62,172
2,62,62,174
2,64,60,162
2,59,58,0
2,62,46,192
2,64,68,150
2,59,60,356
2,62,54,158
2,64,64,160
2,59,52,364
2,62,56,12
2,64,74,192
2,69,74,24
2,64,60,192
2,67,60,176
2,69,62,136
2,64,56,370
2,67,46,184
2,69,56,146
2,64,50,368
2,67,56,172
2,69,54,152
2,64,44,344
2,67,52,146
2,69,60,90
2,62,68,0
2,57,52,192
2,59,64,142
2,62,54,112
2,57,40,376
2,59,64,182
2,62,54,178
2,57,44,350
2,59,56,160
2,62,62,174
2,57,54,344
2,59,68,160
2,62,60,174
2,64,86,12
2,59,71,192
2,62,86,176
2,64,74,170
2,59,66,2
2,62,74,192
2,64,74,154
2,69,62,8
2,64,74,0
2,67,68,192
2,69,74,182
2,64,71,366
2,67,71,166
2,69,80,156
2,62,86,150
2,57,74,180
2,59,86,178
2,62,86,170
2,57,71,368
2,59,86,160
2,62,77,168
2,57,74,366
2,59,80,150
2,62,86,152
2,57,77,354
2,59,74,172
2,62,71,160
2,67,101,596
2,71,107,0
2,76,107,0
2,73,98,1196
2,78,95,0
2,81,92,0
2,71,104,1004
2,74,107,0
2,79,104,0
2,79,104,892
2,78,101,186
2,77,101,38
2,71,98,918
2,76,101,0
2,80,98,0
2,71,92,694
2,76,104,0
2,80,98,0
2,73,89,238
2,76,89,0
2,81,83,0
2,64,68,2944
2,59,50,4
2,62,62,192
2,64,60,166
2,59,48,0
2,62,50,192
2,64,66,138
2,59,52,356
2,62,56,180
2,64,56,158
2,59,54,348
2,62,56,170
2,64,50,130
2,62,64,182
2,57,64,178
2,59,62,146
2,62,62,164
2,57,52,348
2,59,60,184
2,62,52,190
2,57,60,324
2,59,48,152
2,62,62,186
2,57,50,352
2,59,62,174
2,62,54,166
2,64,83,162
2,59,62,172
2,62,62,174
2,64,60,162
2,59,58,0
2,62,46,192
2,64,68,150
2,59,60,356
2,62,54,158
2,64,64,160
2,59,52,364
2,62,56,12
2,64,74,192
2,69,74,24
2,64,60,192
2,67,60,176
2,69,62,136
2,64,56,370
2,67,46,184
2,69,56,146
2,64,50,368
2,67,56,172
2,69,54,152
2,64,44,344
2,67,52,146
2,69,60,90
2,62,68,0
2,57,52,192
2,59,64,142
2,62,54,112
2,57,40,376
2,59,64,182
2,62,54,178
2,57,44,350
2,59,56,160
2,62,62,174
2,57,54,344
2,59,68,160
2,62,60,174
2,64,86,12
2,59,71,192
2,62,86,176
2,64,74,170
2,59,66,2
2,62,74,192
2,64,74,154
2,69,62,8
2,64,74,0
2,67,68,192
2,69,74,182
2,64,71,366
2,67,71,166
2,69,80,156
2,62,86,150
2,57,74,180
2,59,86,178
2,62,86,170
2,57,71,368
2,59,86,160
2,62,77,168
2,57,74,366
2,59,80,150
2,62,86,152
2,57,77,354
2,59,74,172
2,62,71,160
2,67,101,596
2,71,107,0
2,76,107,0
2,73,98,1196
2,78,95,0
2,81,92,0
2,71,104,1004
2,74,107,0
2,79,104,0
2,79,104,892
2,78,101,186
2,77,101,38
2,71,98,918
2,76,101,0
2,80,98,0
2,71,92,694
2,76,104,0
2,80,98,0
2,73,89,238
2,76,89,0
2,81,83,0
2,64,68,2944
2,59,50,4
2,62,62,192
2,64,60,166
2,59,48,0
2,62,50,192
2,64,66,138
2,59,52,356
2,62,56,180
2,64,56,158
2,59,54,348
2,62,56,170
2,64,50,130
2,62,64,182
2,57,64,178
2,59,62,146
2,62,62,164
2,57,52,348
2,59,60,184
2,62,52,190
2,57,60,324
2,59,48,152
2,62,62,186
2,57,50,352
2,59,62,174
2,62,54,166
2,64,83,162
2,59,62,172
2,62,62,174
2,64,60,162
2,59,58,0
2,62,46,192
2,64,68,150
2,59,60,356
2,62,54,158
2,64,64,160
2,59,52,364
2,62,56,12
2,64,74,192
2,69,74,24
2,64,60,192
2,67,60,176
2,69,62,136
2,64,56,370
2,67,46,184
2,69,56,146
2,64,50,368
2,67,56,172
2,69,54,152
2,64,44,344
2,67,52,146
2,69,60,90
2,62,68,0
2,57,52,192
2,59,64,142
2,62,54,112
2,57,40,376
2,59,64,182
2,62,54,178
2,57,44,350
2,59,56,160
2,62,62,174
2,57,54,344
2,59,68,160
2,62,60,174
2,64,86,12
2,59,71,192
2,62,86,176
2,64,74,170
2,59,66,2
2,62,74,192
2,64,74,154
2,69,62,8
2,64,74,0
2,67,68,192
2,69,74,182
2,64,71,366
2,67,71,166
2,69,80,156
2,62,86,16
2,57,68,188
2,59,86,170
2,62,86,148
2,57,74,336
2,59,83,182
2,62,83,168
2,57,74,364
2,59,80,178
2,62,77,174
2,57,77,326
2,59,83,168
2,62,83,128
2,64,86,166
2,59,71,192
2,62,86,176
2,64,74,170
2,59,66,2
2,62,74,192
2,64,74,154
2,69,62,8
2,64,74,0
2,67,68,192
2,69,74,182
2,64,71,366
2,67,71,166
2,69,80,156
2,62,86,16
2,57,68,188
2,59,86,170
2,62,86,148
2,57,74,336
2,59,83,182
2,62,83,168
2,57,74,364
2,59,80,178
2,62,77,174
2,57,77,326
2,59,83,168
2,62,83,128
2,64,86,166
2,59,71,192
2,62,86,176
2,64,74,170
2,59,66,2
2,62,74,192
2,64,74,154
2,69,62,8
2,64,74,0
2,67,68,192
2,69,74,182
2,64,71,366
2,67,71,166
2,69,80,156
2,62,86,16
2,57,68,188
2,59,86,170
2,62,86,148
2,57,74,336
2,59,83,182
2,62,83,168
2,57,74,364
2,59,80,178
2,62,77,174
2,57,77,326
2,59,83,168
2,62,83,128
2,69,77,166
2,72,80,0
2,77,83,0
2,71,92,20
2,74,92,0
2,79,74,96
2,69,89,124
2,74,92,70
2,78,71,0
3,40,110,2306
3,35,110,192
3,38,110,170
3,40,110,170
3,35,110,340
3,38,110,176
3,40,110,162
3,35,110,346
3,38,110,186
3,40,110,152
3,35,110,346
3,38,110,150
3,40,110,142
3,38,110,184
3,33,110,174
3,35,110,110
3,38,110,144
3,33,110,354
3,35,110,152
3,38,110,142
3,33,110,328
3,35,110,182
3,38,110,142
3,33,110,342
3,35,110,160
3,38,110,152
3,40,110,6
3,35,110,192
3,38,110,170
3,40,110,170
3,35,110,340
3,38,110,176
3,40,110,162
3,35,110,346
3,38,110,186
3,40,110,152
3,35,110,346
3,38,110,150
3,40,110,142
3,38,110,184
3,33,110,174
3,35,110,110
3,38,110,144
3,33,110,354
3,35,110,152
3,38,110,142
3,33,110,328
3,35,110,182
3,38,110,142
3,33,110,342
3,35,110,160
3,38,110,152
3,40,110,6
3,35,110,192
3,38,110,170
3,40,110,170
3,35,110,340
3,38,110,176
3,40,110,162
3,35,110,346
3,38,110,186
3,40,110,152
3,35,110,346
3,38,110,150
3,40,110,142
3,38,110,184
3,33,110,174
3,35,110,110
3,38,110,144
3,33,110,354
3,35,110,152
3,38,110,142
3,33,110,328
3,35,110,182
3,38,110,142
3,33,110,342
3,35,110,160
3,38,110,152
3,40,110,6
3,35,110,192
3,38,110,170
3,40,110,170
3,35,110,340
3,38,110,176
3,40,110,162
3,35,110,346
3,38,110,186
3,40,110,152
3,35,110,346
3,38,110,150
3,40,110,142
3,38,110,184
3,33,110,174
3,35,110,110
3,38,110,144
3,33,110,354
3,35,110,152
3,38,110,142
3,33,110,328
3,35,110,182
3,38,110,142
3,33,110,342
3,35,110,160
3,38,110,152
3,40,110,6
3,35,110,4
3,38,110,192
3,40,110,166
3,35,110,0
3,38,110,192
3,40,110,138
3,35,110,356
3,38,110,180
3,40,110,158
3,35,110,348
