track,note,velocity,time
1,67,127,480
1,67,0,19
1,67,117,30
1,67,0,24
1,67,127,33
1,67,0,24
1,67,127,41
1,62,127,127
1,67,0,13
1,59,127,45
1,62,0,2
1,62,127,65
1,59,0,5
1,60,127,116
1,62,0,8
1,66,127,403
1,60,0,2
1,66,0,28
1,66,110,30
1,66,0,19
1,66,127,38
1,66,0,22
1,66,127,46
1,62,122,116
1,66,0,11
1,57,127,52
1,62,0,1
1,59,127,64
1,57,0,4
1,59,0,420
1,59,127,112
1,59,0,24
1,59,127,32
1,59,0,16
1,59,127,43
1,59,0,64
1,64,108,1
1,64,0,72
1,64,127,44
1,67,113,55
1,64,0,1
1,66,110,66
1,67,0,3
1,64,127,114
1,66,0,12
1,69,113,167
1,64,0,2
1,69,0,32
1,69,108,24
1,69,0,29
1,69,117,28
1,67,127,61
1,69,0,25
1,66,127,92
1,67,0,15
1,66,0,288
1,62,127,0
1,66,127,68
1,62,0,7
1,64,122,113
1,66,0,10
1,64,0,133
1,64,127,38
1,64,0,20
1,64,127,37
1,67,127,67
1,64,0,6
1,64,122,54
1,67,0,7
1,62,127,112
1,64,0,5
1,62,0,236
1,55,122,60
1,62,113,64
1,55,0,5
1,60,127,110
1,62,0,10
1,60,0,122
1,60,117,34
1,60,0,37
1,60,108,29
1,59,122,62
1,60,0,3
1,59,0,84
1,59,127,35
1,57,127,123
1,59,0,10
1,57,0,523
1,57,127,62
1,57,0,29
1,57,127,33
1,59,127,126
1,57,0,4
1,59,0,528
1,59,81,4501
1,60,88,63
1,59,0,9
1,62,86,113
1,60,0,15
1,64,77,52
1,62,0,6
1,62,77,159
1,64,0,7
1,62,0,61
1,57,75,3
1,62,77,116
1,57,0,12
1,64,88,346
1,62,0,7
1,62,86,98
1,64,0,12
1,60,91,108
1,62,0,14
1,59,97,52
1,60,0,6
1,60,94,116
1,59,0,7
1,55,108,67
1,60,0,4
1,55,0,413
1,60,117,59
1,60,0,18
1,60,108,42
1,62,122,118
1,60,0,6
1,64,113,58
1,62,0,9
1,62,101,157
1,64,0,4
1,64,97,64
1,62,0,10
1,66,110,106
1,64,0,10
1,66,0,80
1,66,104,43
1,67,88,54
1,66,0,9
1,66,95,167
1,67,0,15
1,64,86,102
1,66,0,13
1,62,113,46
1,64,0,9
1,64,113,52
1,62,0,6
1,64,0,465
1,67,113,250
1,64,122,66
1,67,0,1
1,60,127,127
1,64,0,4
1,59,122,53
1,60,0,8
1,57,127,155
1,59,0,5
1,59,113,62
1,57,0,7
1,60,122,120
1,59,0,9
1,60,0,345
1,62,127,2
1,62,0,20
1,62,127,39
1,62,0,84
1,62,108,38
1,63,127,64
1,62,0,7
1,63,0,59
1,63,110,47
1,63,0,65
1,64,127,52
1,64,0,80
1,66,127,46
1,66,0,146
1,67,86,43
1,67,0,19
1,67,101,38
1,67,0,20
1,67,113,37
1,67,0,20
1,67,117,42
1,62,91,115
1,67,0,9
1,59,104,53
1,62,0,2
1,62,88,59
1,59,0,8
1,60,97,114
1,62,0,7
1,66,100,408
1,60,0,14
1,66,0,12
1,66,104,38
1,66,0,17
1,66,104,38
1,66,0,18
1,66,110,50
1,62,122,109
1,66,0,9
1,57,122,58
1,62,0,1
1,59,127,62
1,57,0,6
1,59,0,500
1,59,127,28
1,59,0,26
1,59,127,32
1,59,0,22
1,59,122,37
1,59,0,59
1,64,127,3
1,64,0,75
1,64,127,43
1,67,127,57
1,64,0,2
1,66,110,63
1,67,0,11
1,64,127,110
1,66,0,9
1,69,127,169
1,64,0,5
1,69,0,22
1,69,127,35
1,69,0,20
1,69,127,46
1,67,127,65
1,69,0,11
1,66,127,106
1,67,0,10
1,62,117,282
1,66,0,2
1,66,110,60
1,62,0,7
1,64,122,111
1,66,0,7
1,64,0,128
1,64,127,44
1,64,0,19
1,64,127,40
1,67,127,72
1,64,0,6
1,64,117,51
1,67,0,7
1,62,127,111
1,64,0,4
1,55,122,278
1,62,0,11
1,55,0,60
1,62,127,0
1,60,127,127
1,62,0,13
1,60,0,110
1,60,117,51
1,60,0,22
1,60,113,37
1,59,127,70
1,60,0,12
1,59,0,66
1,59,127,37
1,57,127,180
1,59,0,3
1,57,0,460
1,57,127,72
1,57,0,24
1,57,127,40
1,59,127,122
1,57,0,2
1,59,0,934
1,59,81,257
1,60,88,63
1,59,0,9
1,62,86,113
1,60,0,15
1,64,77,52
1,62,0,6
1,62,77,159
1,64,0,7
1,62,0,61
1,57,75,3
1,62,77,116
1,57,0,12
1,64,88,346
1,62,0,7
1,62,86,98
1,64,0,12
1,60,91,108
1,62,0,14
1,59,97,52
1,60,0,6
1,60,94,116
1,59,0,7
1,55,108,67
1,60,0,4
1,55,0,413
1,60,117,59
1,60,0,18
1,60,108,42
1,62,122,118
1,60,0,6
1,64,113,58
1,62,0,9
1,62,101,157
1,64,0,4
1,64,97,64
1,62,0,10
1,66,110,106
1,64,0,10
1,66,0,80
1,66,104,43
1,67,88,54
1,66,0,9
1,66,95,167
1,67,0,15
1,64,86,102
1,66,0,13
1,62,113,46
1,64,0,9
1,64,113,52
1,62,0,6
1,64,0,465
1,67,113,250
1,64,122,66
1,67,0,1
1,60,127,127
1,64,0,4
1,59,122,53
1,60,0,8
1,57,127,155
1,59,0,5
1,59,113,62
1,57,0,7
1,60,122,120
1,59,0,9
1,60,0,345
1,62,127,2
1,62,0,20
1,62,127,39
1,62,0,84
1,62,108,38
1,63,127,64
1,62,0,7
1,63,0,59
1,63,110,47
1,63,0,65
1,64,127,52
1,64,0,80
1,66,127,46
1,66,0,146
1,67,86,43
1,67,0,19
1,67,101,38
1,67,0,20
1,67,113,37
1,67,0,20
1,67,117,42
1,62,91,115
1,67,0,9
1,59,104,53
1,62,0,2
1,62,88,59
1,59,0,8
1,60,97,114
1,62,0,7
1,66,100,408
1,60,0,14
1,66,0,12
1,66,104,38
1,66,0,17
1,66,104,38
1,66,0,18
1,66,110,50
1,62,122,109
1,66,0,9
1,57,122,58
1,62,0,1
1,59,127,62
1,57,0,6
1,59,0,500
1,59,127,28
1,59,0,26
1,59,127,32
1,59,0,22
1,59,122,37
1,59,0,59
1,64,127,3
1,64,0,75
1,64,127,43
1,67,127,57
1,64,0,2
1,66,110,63
1,67,0,11
1,64,127,110
1,66,0,9
1,69,127,169
1,64,0,5
1,69,0,22
1,69,127,35
1,69,0,20
1,69,127,46
1,67,127,65
1,69,0,11
1,66,127,106
1,67,0,10
1,62,117,282
1,66,0,2
1,66,110,60
1,62,0,7
1,64,122,111
1,66,0,7
1,64,0,128
1,64,127,44
1,64,0,19
1,64,127,40
1,67,127,72
1,64,0,6
1,64,117,51
1,67,0,7
1,62,127,111
1,64,0,4
1,55,122,278
1,62,0,11
1,55,0,60
1,62,127,0
1,60,127,127
1,62,0,13
1,60,0,110
1,60,117,51
1,60,0,22
1,60,113,37
1,59,127,70
1,60,0,12
1,59,0,66
1,59,127,37
1,57,127,180
1,59,0,3
1,57,0,460
1,57,127,72
1,57,0,24
1,57,127,40
1,59,127,122
1,57,0,2
1,59,0,934
2,40,97,485
2,33,91,473
2,40,0,7
2,38,97,466
2,33,0,11
2,31,94,472
2,38,0,9
2,31,0,402
2,40,104,77
2,45,101,471
2,40,0,13
2,50,86,459
2,45,0,6
2,48,83,481
2,50,0,7
2,43,86,473
2,48,0,8
2,43,0,407
2,48,91,73
2,53,77,464
2,48,0,11
2,41,81,113
2,53,0,8
2,41,0,571
2,40,86,275
2,40,0,720
2,40,127,9846
2,40,0,66
2,52,113,131
2,40,127,21
2,52,0,9
2,40,0,39
2,40,127,38
2,33,127,171
2,40,0,2
2,33,0,71
2,45,113,122
2,33,127,22
2,45,0,1
2,33,0,41
2,33,127,37
2,33,0,179
2,38,122,2
2,38,0,64
2,50,113,137
2,50,0,24
2,38,108,4
2,38,0,41
2,38,117,34
2,31,127,180
2,38,0,3
2,31,0,85
2,43,122,117
2,43,0,20
2,31,127,2
2,31,0,206
2,40,127,43
2,40,0,56
2,52,108,137
2,40,127,27
2,52,0,2
2,40,0,40
2,40,113,32
2,40,0,187
2,33,127,0
2,33,0,45
2,45,101,168
2,33,127,22
2,45,0,10
2,33,0,17
2,33,127,36
2,33,0,54
2,45,88,1
2,38,117,126
2,45,0,5
2,38,0,193
2,50,83,0
2,38,122,28
2,50,0,3
2,38,0,28
2,38,108,37
2,50,127,64
2,38,0,4
2,36,127,119
2,50,0,6
2,36,0,68
2,48,83,130
2,48,0,20
2,36,127,5
2,36,0,37
2,36,127,36
2,48,127,52
2,36,0,3
2,31,127,120
2,29,108,4
2,29,0,3
2,48,0,5
2,31,0,47
2,43,117,155
2,31,127,21
2,43,0,5
2,31,0,18
2,31,127,48
2,31,0,55
2,43,122,3
2,36,127,117
2,43,0,3
2,36,0,54
2,48,117,152
2,48,0,23
2,36,127,2
2,36,0,28
2,36,127,43
2,36,0,51
2,48,127,3
2,29,127,114
2,48,0,7
2,29,0,53
2,41,117,151
2,29,127,21
2,41,0,7
2,29,0,18
2,29,122,40
2,29,0,57
2,41,117,4
2,29,127,74
2,29,0,15
2,29,127,43
2,41,0,11
2,29,0,29
2,41,122,164
2,41,0,20
2,29,127,0
2,29,0,26
2,29,127,47
2,29,0,44
2,41,127,18
2,29,127,56
2,41,0,42
2,29,0,9
2,40,127,4
2,40,0,973
2,40,127,5763
2,40,0,66
2,52,113,131
2,40,127,21
2,52,0,9
2,40,0,39
2,40,127,38
2,33,127,171
2,40,0,2
2,33,0,71
2,45,113,122
2,33,127,22
2,45,0,1
2,33,0,41
2,33,127,37
2,33,0,179
2,38,122,2
2,38,0,64
2,50,113,137
2,50,0,24
2,38,108,4
2,38,0,41
2,38,117,34
2,31,127,180
2,38,0,3
2,31,0,85
2,43,122,117
2,43,0,20
2,31,127,2
2,31,0,206
2,40,127,43
2,40,0,56
2,52,108,137
2,40,127,27
2,52,0,2
2,40,0,40
2,40,113,32
2,40,0,187
2,33,127,0
2,33,0,45
2,45,101,168
2,33,127,22
2,45,0,10
2,33,0,17
2,33,127,36
2,33,0,54
2,45,88,1
2,38,117,126
2,45,0,5
2,38,0,193
2,50,83,0
2,38,122,28
2,50,0,3
2,38,0,28
2,38,108,37
2,50,127,64
2,38,0,4
2,36,127,119
2,50,0,6
2,36,0,68
2,48,83,130
2,48,0,20
2,36,127,5
2,36,0,37
2,36,127,36
2,48,127,52
2,36,0,3
2,31,127,120
2,29,108,4
2,29,0,3
2,48,0,5
2,31,0,47
2,43,117,155
2,31,127,21
2,43,0,5
2,31,0,18
2,31,127,48
2,31,0,55
2,43,122,3
2,36,127,117
2,43,0,3
2,36,0,54
2,48,117,152
2,48,0,23
2,36,127,2
2,36,0,28
2,36,127,43
2,36,0,51
2,48,127,3
2,29,127,114
2,48,0,7
2,29,0,53
2,41,117,151
2,29,127,21
2,41,0,7
2,29,0,18
2,29,122,40
2,29,0,57
2,41,117,4
2,29,127,74
2,29,0,15
2,29,127,43
2,41,0,11
2,29,0,29
2,41,122,164
2,41,0,20
2,29,127,0
2,29,0,26
2,29,127,47
2,29,0,44
2,41,127,18
2,29,127,56
2,41,0,42
2,29,0,9
2,40,127,4
2,40,0,973
4,59,104,6829
4,59,0,23
4,60,108,44
4,60,0,7
4,62,117,50
4,62,0,26
4,62,104,39
4,60,68,25
4,62,0,3
4,60,0,61
4,59,94,3
4,59,0,39
4,59,108,15980
4,59,0,21
4,60,104,42
4,60,0,13
4,62,117,47
4,62,0,26
4,62,94,4
4,60,86,23
4,62,0,3
4,60,0,54
4,59,86,6
4,59,0,43
5,52,56,480
5,55,73,0
5,64,71,4
5,59,60,0
5,67,73,27
5,71,75,12
5,59,0,372
5,67,0,18
5,71,0,9
5,64,0,1
5,52,0,2
5,55,0,5
5,57,73,25
5,60,68,2
5,64,86,4
5,66,55,465
5,62,67,2
5,69,88,2
5,64,0,7
5,57,0,0
5,60,0,0
5,62,0,423
5,55,73,56
5,62,86,1
5,59,68,2
5,66,0,18
5,69,0,3
5,55,0,388
5,62,0,6
5,59,0,1
5,67,59,48
5,55,51,1
5,71,57,1
5,59,68,0
5,64,55,1
5,52,44,4
5,59,0,430
5,71,0,12
5,64,0,4
5,52,0,1
5,55,0,13
5,67,0,3
5,57,56,15
5,60,49,5
5,64,79,0
5,66,51,475
5,62,73,3
5,69,79,2
5,64,0,3
5,57,0,0
5,60,0,2
5,69,0,462
5,64,83,5
5,67,86,1
5,60,77,1
5,62,0,1
5,66,0,8
5,60,0,473
5,64,0,4
5,59,68,0
5,67,0,3
5,62,77,0
5,55,49,3
5,62,0,469
5,64,61,0
5,55,0,1
5,60,70,1
5,67,61,2
5,59,0,9
5,67,0,358
5,64,0,36
5,72,58,74
5,69,64,1
5,65,48,1
5,60,0,16
5,53,50,92
5,57,83,3
5,60,59,2
5,69,0,644
5,65,0,22
5,72,0,11
5,53,0,71
5,57,0,0
5,60,0,5
5,52,39,75
5,56,53,14
5,64,64,2
5,59,53,3
5,68,71,4
5,71,88,4
5,68,0,909
5,64,0,1
5,71,0,5
5,56,0,2
5,52,0,1
5,59,0,3
5,71,77,28062
5,69,75,52
5,71,0,5
5,67,70,121
5,69,0,12
5,66,71,58
5,67,0,3
5,67,70,156
5,66,0,11
5,66,53,64
5,67,0,5
5,66,0,113
5,64,62,1
5,62,73,122
5,64,0,11
5,64,81,346
5,62,0,2
5,66,55,122
5,64,0,5
5,64,66,107
5,66,0,6
5,66,71,115
5,64,0,7
5,67,88,117
5,66,0,8
5,69,64,112
5,67,0,5
5,67,67,51
5,69,0,4
5,66,55,116
5,67,0,9
5,64,64,50
5,66,0,11
5,66,49,108
5,64,0,7
5,62,51,126
5,66,0,11
5,62,0,585
6,31,100,0
6,31,0,14
6,31,100,106
6,31,0,14
6,31,100,106
6,31,0,14
6,31,100,106
6,31,0,14
6,35,127,6720
6,35,0,239
6,35,127,1
6,35,0,239
6,35,127,1
6,35,0,239
6,35,127,1
6,35,0,239
6,35,127,1
6,35,0,239
6,35,127,1
6,35,0,239
6,35,127,1
6,35,0,239
6,35,127,1
6,35,0,239
6,35,127,1
6,35,0,239
6,35,127,1
6,35,0,239
6,35,127,1
6,35,0,239
6,35,127,1
6,35,0,239
6,35,127,1
6,35,0,239
6,35,127,1
6,35,0,239
6,35,127,1
6,35,0,239
6,35,127,1
6,35,0,239
6,35,127,1
6,35,0,239
6,35,127,1
6,35,0,239
6,35,127,1
6,35,0,239
6,35,127,1
6,35,0,239
6,35,127,1
6,35,0,239
6,35,127,1
6,35,0,239
6,35,127,1
6,35,0,239
6,35,127,1
6,35,0,239
6,35,127,1
6,35,0,239
6,35,127,1
6,35,0,239
6,35,127,1
6,35,0,239
6,35,127,1
6,35,0,239
6,35,127,1
6,35,0,239
6,35,127,1
6,35,0,239
6,35,127,1
6,35,0,239
6,35,127,1
6,35,0,239
6,35,127,1
6,35,0,239
6,35,127,1
6,35,0,239
6,35,127,1
6,35,0,239
6,35,127,1
6,35,0,239
6,35,127,1
6,35,0,239
6,35,127,1
6,35,0,239
6,35,127,1
6,35,0,239
6,35,127,1
6,35,0,239
6,35,127,1
6,35,0,239
6,35,127,1
6,35,0,239
6,35,127,1
6,35,0,239
6,35,127,1
6,35,0,239
6,35,127,1
6,35,0,239
6,35,127,1
6,35,0,239
6,35,127,1
6,35,0,239
6,35,127,1
6,35,0,239
6,35,127,1
6,35,0,239
6,35,127,1
6,35,0,239
6,35,127,1
6,35,0,239
6,35,127,1
6,35,0,239
6,35,127,1
6,35,0,239
6,35,127,1
6,35,0,239
6,35,127,1
6,35,0,239
6,35,127,1
6,35,0,239
6,35,127,1
6,35,0,239
6,35,127,1
6,35,0,239
6,35,127,1
6,35,0,239
6,35,127,1
6,35,0,239
6,35,127,1
6,35,0,239
6,35,127,1
6,35,0,239
6,35,127,1
6,35,0,239
6,35,127,1
6,35,0,239
6,35,127,1
6,35,0,239
6,35,127,1
6,35,0,239
6,35,127,1
6,35,0,239
