track,note,velocity,time
0,40,100,2510
0,38,100,0
0,42,100,0
0,36,100,0
0,42,0,238
0,40,0,0
0,38,0,0
0,35,100,2
0,35,0,238
0,36,0,0
0,38,100,2
0,38,100,0
0,42,100,0
0,36,100,0
0,42,0,238
0,38,0,0
0,38,0,0
0,40,100,2
0,36,0,238
0,38,100,2
0,42,100,0
0,36,100,0
0,42,0,238
0,40,0,0
0,38,0,0
0,35,100,2
0,35,0,238
0,36,0,0
0,38,100,2
0,38,100,0
0,42,100,0
0,36,100,0
0,42,0,238
0,38,0,0
0,38,0,0
0,40,100,2
0,36,0,238
0,38,100,2
0,42,100,0
0,36,100,0
0,42,0,238
0,40,0,0
0,38,0,0
0,35,100,2
0,35,0,238
0,36,0,0
0,38,100,2
0,38,100,0
0,42,100,0
0,36,100,0
0,42,0,238
0,38,0,0
0,38,0,2
0,40,100,0
0,36,0,238
0,38,100,2
0,42,100,0
0,36,100,0
0,42,0,238
0,40,0,0
0,38,0,2
0,35,100,0
0,35,0,238
0,36,0,0
0,38,100,2
0,38,100,0
0,42,100,0
0,36,100,0
0,42,0,238
0,38,0,0
0,38,0,2
0,40,100,0
0,40,0,238
0,36,0,0
0,38,100,2
0,38,100,0
0,42,100,0
0,36,100,0
0,42,0,238
0,38,0,0
0,38,0,0
0,33,100,2
0,33,0,238
0,36,0,0
0,35,100,2
0,38,100,0
0,42,100,0
0,36,100,0
0,42,0,238
0,35,0,0
0,38,0,0
0,38,100,2
0,36,0,238
0,38,100,2
0,42,100,0
0,36,100,0
0,42,0,238
0,38,0,0
0,38,0,0
0,33,100,2
0,33,0,238
0,36,0,0
0,35,100,2
0,38,100,0
0,42,100,0
0,36,100,0
0,42,0,238
0,35,0,0
0,38,0,0
0,38,100,2
0,36,0,238
0,38,100,2
0,42,100,0
0,36,100,0
0,42,0,238
0,38,0,0
0,38,0,0
0,33,100,2
0,33,0,238
0,36,0,0
0,35,100,2
0,40,100,0
0,38,100,0
0,38,0,238
0,35,0,0
0,38,100,2
0,38,100,174
0,40,0,64
0,47,100,1
0,38,0,55
0,47,0,144
0,38,0,40
0,33,100,2
0,45,100,16
0,45,0,126
0,33,0,96
0,35,100,2
0,45,100,0
0,45,0,238
0,35,0,0
0,38,100,2
0,45,100,0
0,45,0,238
0,38,0,0
0,52,100,2
0,40,100,0
0,49,100,0
0,38,100,0
0,36,100,0
0,38,0,238
0,40,0,0
0,52,0,0
0,47,100,2
0,35,100,0
0,35,0,238
0,36,0,0
0,49,0,0
0,47,0,0
0,50,100,2
0,38,100,0
0,38,100,0
0,42,100,0
0,36,100,0
0,42,0,238
0,38,0,0
0,50,0,0
0,38,0,0
0,52,100,2
0,40,100,0
0,36,0,238
0,38,100,2
0,42,100,0
0,36,100,0
0,42,0,238
0,38,0,0
0,52,0,0
0,40,0,0
0,47,100,2
0,35,100,0
0,35,0,238
0,47,0,0
0,36,0,0
0,50,100,2
0,38,100,0
0,38,100,0
0,42,100,0
0,36,100,0
0,42,0,238
0,38,0,0
0,50,0,0
0,38,0,0
0,52,100,2
0,40,100,0
0,36,0,238
0,38,100,2
0,42,100,0
0,36,100,0
0,42,0,238
0,38,0,0
0,52,0,0
0,40,0,0
0,47,100,2
0,35,100,0
0,35,0,238
0,47,0,0
0,36,0,0
0,50,100,2
0,38,100,0
0,38,100,0
0,42,100,0
0,36,100,34
0,42,0,204
0,38,0,0
0,50,0,0
0,38,0,0
0,52,100,2
0,40,100,0
0,38,100,240
0,42,100,0
0,36,100,0
0,36,0,32
0,42,0,206
0,38,0,0
0,52,0,0
0,40,0,0
0,47,100,2
0,35,100,0
0,35,0,238
0,47,0,0
0,36,0,0
0,50,100,2
0,38,100,0
0,38,100,0
0,42,100,0
0,36,100,0
0,42,0,238
0,38,0,0
0,50,0,0
0,38,0,0
0,52,100,2
0,40,100,0
0,40,0,238
0,52,0,0
0,36,0,0
0,50,100,2
0,54,100,0
0,38,100,0
0,38,100,0
0,42,100,0
0,36,100,0
0,42,0,238
0,38,0,0
0,38,0,0
0,50,0,0
0,54,0,0
0,45,100,2
0,33,100,0
0,33,0,238
0,45,0,0
0,36,0,0
0,47,100,2
0,35,100,0
0,42,100,0
0,36,100,0
0,38,100,17
0,42,0,221
0,47,0,0
0,35,0,0
0,50,100,2
0,54,100,0
0,38,100,0
0,38,0,15
0,36,0,223
0,38,100,2
0,42,100,0
0,36,100,0
0,42,0,238
0,38,0,0
0,54,0,0
0,38,0,0
0,50,0,0
0,45,100,2
0,33,100,0
0,33,0,238
0,45,0,0
0,36,0,0
0,47,100,2
0,35,100,0
0,38,100,0
0,42,100,0
0,36,100,0
0,42,0,238
0,38,0,0
0,47,0,0
0,35,0,0
0,50,100,2
0,54,100,0
0,38,100,0
0,36,0,238
0,42,100,2
0,38,100,0
0,36,100,0
0,38,0,238
0,42,0,0
0,50,0,0
0,38,0,0
0,54,0,0
0,45,100,2
0,33,100,0
0,33,0,238
0,45,0,0
0,36,0,0
0,47,100,2
0,35,100,0
0,40,100,0
0,42,64,0
0,42,0,238
0,47,0,0
0,35,0,0
0,40,0,0
0,50,100,2
0,54,100,0
0,38,100,0
0,36,100,240
0,42,64,0
0,42,0,238
0,50,0,0
0,38,0,0
0,54,0,0
0,45,100,2
0,33,100,0
0,36,100,0
0,36,0,149
0,45,0,89
0,33,0,0
0,36,0,2
0,47,100,0
0,35,100,0
0,40,100,0
0,42,64,0
0,42,0,238
0,47,0,0
0,35,0,0
0,40,0,0
0,50,100,2
0,38,100,0
0,38,0,238
0,50,0,0
0,64,100,2
0,52,100,0
0,40,100,0
0,49,100,0
0,40,0,238
0,64,0,0
0,52,0,0
0,59,100,2
0,47,100,0
0,35,100,0
0,35,0,238
0,49,0,0
0,59,0,0
0,47,0,0
0,62,100,2
0,50,100,0
0,38,100,0
0,38,100,0
0,42,100,0
0,36,100,0
0,42,0,238
0,38,0,0
0,38,0,0
0,62,0,0
0,50,0,0
0,64,100,2
0,52,100,0
0,40,100,0
0,36,0,238
0,38,100,2
0,42,100,0
0,36,100,0
0,42,0,238
0,38,0,0
0,64,0,0
0,40,0,0
0,52,0,0
0,59,100,2
0,47,100,0
0,35,100,0
0,35,0,238
0,36,0,0
0,59,0,0
0,47,0,0
0,62,100,2
0,50,100,0
0,38,100,0
0,38,100,0
0,42,100,0
0,36,100,0
0,42,0,238
0,38,0,0
0,38,0,0
0,62,0,0
0,50,0,0
0,64,100,2
0,52,100,0
0,40,100,0
0,36,0,238
0,38,100,2
0,42,100,0
0,36,100,0
0,42,0,238
0,38,0,0
0,64,0,0
0,40,0,0
0,52,0,0
0,59,100,2
0,47,100,0
0,35,100,0
0,35,0,238
0,36,0,0
0,59,0,0
0,47,0,0
0,62,100,2
0,50,100,0
0,38,100,0
0,38,100,0
0,42,100,0
0,36,100,0
0,42,0,238
0,38,0,0
0,38,0,0
0,62,0,0
0,50,0,0
0,64,100,2
0,52,100,0
0,40,100,0
0,36,0,238
0,38,100,2
0,42,100,0
0,36,100,0
0,42,0,238
0,38,0,0
0,64,0,0
0,40,0,0
0,52,0,0
0,59,100,2
0,47,100,0
0,35,100,0
0,35,0,238
0,36,0,0
0,59,0,0
0,47,0,0
0,62,100,2
0,50,100,0
0,38,100,0
0,38,100,0
0,42,100,0
0,36,100,0
0,42,0,238
0,38,0,0
0,38,0,0
0,62,0,0
0,50,0,0
0,64,100,2
0,52,100,0
0,40,100,0
0,40,0,238
0,36,0,0
0,64,0,0
0,52,0,0
0,62,100,2
0,50,100,0
0,54,100,0
0,38,100,0
0,38,100,0
0,36,100,0
0,42,100,0
0,42,0,238
0,50,0,0
0,38,0,0
0,54,0,0
0,62,0,0
0,38,0,0
0,36,0,2
0,57,100,0
0,45,100,0
0,33,100,0
0,36,100,0
0,36,0,238
0,57,0,0
0,45,0,0
0,33,0,0
0,59,100,2
0,47,100,0
0,35,100,0
0,38,100,0
0,42,100,0
0,42,0,238
0,35,0,0
0,59,0,0
0,47,0,0
0,38,0,0
0,62,100,2
0,50,100,0
0,54,100,0
0,38,100,0
0,36,100,17
0,38,100,223
0,42,100,0
0,36,0,15
0,38,0,223
0,50,0,0
0,54,0,0
0,62,0,0
0,42,0,0
0,38,0,0
0,57,100,2
0,45,100,0
0,33,100,0
0,33,0,238
0,45,0,0
0,57,0,0
0,59,100,2
0,47,100,0
0,35,100,0
0,38,100,0
0,42,100,0
0,42,0,238
0,35,0,0
0,59,0,0
0,47,0,0
0,38,0,0
0,62,100,2
0,50,100,0
0,54,100,0
0,38,100,0
0,36,100,240
0,38,100,0
0,42,100,0
0,42,0,238
0,38,0,0
0,50,0,0
0,54,0,0
0,62,0,0
0,38,0,0
0,36,0,2
0,57,100,0
0,45,100,0
0,33,100,0
0,36,100,0
0,36,0,238
0,57,0,0
0,45,0,0
0,33,0,0
0,59,100,2
0,47,100,0
0,35,100,0
0,38,100,0
0,42,100,0
0,42,0,238
0,59,0,0
0,35,0,0
0,47,0,0
0,38,0,2
0,62,100,0
0,50,100,0
0,54,100,0
0,38,100,0
0,36,100,0
0,36,0,238
0,38,100,2
0,38,0,238
0,38,0,0
0,62,0,0
0,50,0,0
0,54,0,0
0,57,100,2
0,45,100,0
0,33,100,0
0,38,100,0
0,38,0,238
0,57,0,0
0,45,0,0
0,33,0,0
0,59,100,2
0,47,100,0
0,35,100,0
0,45,100,0
0,45,0,53
0,45,100,44
0,45,100,10
0,45,0,41
0,45,0,10
0,45,100,55
0,35,0,25
0,59,0,0
0,47,0,0
0,62,100,2
0,50,100,0
0,38,100,0
0,45,0,24
0,76,100,200
0,62,0,14
0,38,0,0
0,50,0,0
0,64,100,2
0,52,100,0
0,40,100,0
0,40,100,0
0,49,100,0
0,38,100,0
0,36,100,0
0,71,100,215
0,38,0,23
0,40,0,0
0,52,0,0
0,64,0,0
0,40,0,0
0,59,100,2
0,47,100,0
0,35,100,0
0,35,100,0
0,76,0,14
0,71,0,193
0,74,100,29
0,47,0,2
0,36,0,0
0,49,0,0
0,59,0,0
0,35,0,0
0,35,0,0
0,62,100,2
0,50,100,0
0,38,100,0
0,38,100,0
0,38,100,0
0,42,100,0
0,36,100,0
0,74,0,187
0,38,0,51
0,38,0,0
0,50,0,0
0,38,0,0
0,62,0,0
0,42,0,0
0,64,100,2
0,52,100,0
0,40,100,0
0,40,100,0
0,76,100,12
0,40,0,226
0,36,0,0
0,38,100,2
0,42,100,0
0,36,100,0
0,42,0,238
0,40,0,0
0,52,0,0
0,64,0,0
0,38,0,0
0,59,100,2
0,47,100,0
0,35,100,0
0,35,100,0
0,76,0,30
0,71,100,7
0,71,0,165
0,35,0,36
0,47,0,0
0,36,0,0
0,59,0,0
0,35,0,0
0,62,100,2
0,50,100,0
0,38,100,0
0,38,100,0
0,38,100,0
0,42,100,0
0,36,100,0
0,74,100,12
0,74,0,200
0,62,0,26
0,42,0,0
0,50,0,0
0,38,0,0
0,38,0,0
0,38,0,0
0,64,100,2
0,52,100,0
0,40,100,0
0,40,100,0
0,76,100,41
0,40,0,197
0,36,0,0
0,38,100,2
0,42,100,0
0,36,100,0
0,42,0,238
0,40,0,0
0,52,0,0
0,64,0,0
0,38,0,0
0,59,100,2
0,47,100,0
0,35,100,0
0,35,100,0
0,71,100,4
0,76,0,32
0,71,0,168
0,74,100,29
0,59,0,5
0,35,0,0
0,47,0,0
0,36,0,0
0,35,0,0
0,62,100,2
0,50,100,0
0,38,100,0
0,38,100,0
0,38,100,0
0,42,100,0
0,36,100,0
0,42,0,238
0,38,0,0
0,62,0,0
0,50,0,0
0,38,0,0
0,38,0,2
0,64,100,0
0,52,100,0
0,40,100,0
0,40,100,0
0,74,0,1
0,76,100,21
0,36,0,216
0,40,0,0
0,38,100,2
0,42,100,0
0,36,100,0
0,42,0,238
0,64,0,0
0,52,0,0
0,40,0,0
0,38,0,2
0,59,100,0
0,47,100,0
0,35,100,0
0,35,100,0
0,71,100,37
0,76,0,10
0,35,0,191
0,59,0,0
0,47,0,0
0,36,0,0
0,35,0,0
0,62,100,2
0,50,100,0
0,38,100,0
0,38,100,0
0,38,100,0
0,42,100,0
0,36,100,0
0,74,100,22
0,71,0,40
0,38,0,176
0,62,0,0
0,50,0,0
0,38,0,0
0,42,0,0
0,38,0,2
0,64,100,0
0,52,100,0
0,40,100,0
0,40,100,0
0,76,100,23
0,74,0,39
0,40,0,176
0,64,0,0
0,52,0,0
0,36,0,0
0,40,0,0
0,76,0,2
0,62,100,0
0,50,100,0
0,54,100,0
0,38,100,0
0,38,100,0
0,38,100,0
0,36,100,0
0,42,100,0
0,74,100,4
0,42,0,234
0,38,0,0
0,38,0,0
0,62,0,0
0,50,0,0
0,54,0,0
0,38,0,0
0,36,0,2
0,57,100,0
0,45,100,0
0,33,100,0
0,33,100,0
0,69,100,29
0,36,100,4
0,74,0,29
0,33,0,176
0,57,0,0
0,33,0,0
0,45,0,0
0,59,100,2
0,47,100,0
0,35,100,0
0,35,100,0
0,38,100,0
0,42,100,0
0,36,0,31
0,71,100,2
0,69,0,8
0,47,0,197
0,35,0,0
0,59,0,0
0,35,0,0
0,42,0,0
0,38,0,0
0,62,100,2
0,50,100,0
0,54,100,0
0,38,100,0
0,38,100,0
0,36,100,0
0,74,100,8
0,71,0,8
0,36,0,222
0,38,0,0
0,38,100,2
0,42,100,0
0,42,0,238
0,38,0,0
0,50,0,0
0,54,0,0
0,62,0,0
0,38,0,0
0,57,100,2
0,45,100,0
0,33,100,0
0,33,100,0
0,74,0,21
0,69,100,0
0,71,100,215
0,33,0,2
0,33,0,0
0,57,0,0
0,45,0,0
0,59,100,2
0,47,100,0
0,35,100,0
0,35,100,0
0,38,100,0
0,42,100,0
0,69,0,38
0,42,0,200
0,35,0,0
0,59,0,0
0,47,0,0
0,35,0,0
0,38,0,0
0,62,100,2
0,50,100,0
0,54,100,0
0,38,100,0
0,38,100,0
0,74,100,22
0,71,0,31
0,38,0,185
0,36,100,2
0,38,100,0
0,42,100,0
0,42,0,238
0,38,0,0
0,50,0,0
0,62,0,0
0,54,0,0
0,38,0,0
0,36,0,2
0,57,100,0
0,45,100,0
0,33,100,0
0,33,100,0
0,36,100,0
0,69,100,12
0,74,0,18
0,33,0,208
0,45,0,0
0,33,0,0
0,57,0,0
0,36,0,0
0,71,100,1
0,59,100,1
0,47,100,0
0,35,100,0
0,35,100,0
0,38,100,0
0,42,100,0
0,69,0,31
0,42,0,207
0,35,0,0
0,59,0,0
0,47,0,0
0,35,0,0
0,38,0,2
0,62,100,0
0,50,100,0
0,54,100,0
0,38,100,0
0,38,100,0
0,36,100,0
0,74,100,26
0,71,0,32
0,36,0,180
0,38,0,0
0,38,100,2
0,38,0,238
0,50,0,0
0,54,0,0
0,62,0,0
0,38,0,0
0,57,100,2
0,45,100,0
0,33,100,0
0,69,100,0
0,33,100,0
0,45,100,4
0,74,0,33
0,45,0,83
0,45,0,118
0,33,0,0
0,57,0,0
0,33,0,0
0,69,0,0
0,59,100,2
0,47,100,0
0,35,100,0
0,71,100,0
0,35,100,0
0,45,100,0
0,45,0,118
0,47,0,120
0,35,0,0
0,59,0,0
0,35,0,0
0,71,0,0
0,62,100,2
0,50,100,0
0,38,100,0
0,74,100,0
0,38,100,0
0,45,100,14
0,45,0,106
0,50,0,118
0,38,0,0
0,62,0,0
0,38,0,0
0,74,0,0
0,64,100,2
0,52,100,0
0,40,100,0
0,49,100,0
0,38,100,0
0,36,100,0
0,76,100,15
0,79,100,2
0,38,0,221
0,40,0,0
0,64,0,0
0,52,0,0
0,59,100,2
0,47,100,0
0,35,100,0
0,35,0,238
0,59,0,0
0,36,0,0
0,49,0,0
0,47,0,0
0,62,100,2
0,50,100,0
0,38,100,0
0,38,100,0
0,36,100,0
0,42,100,17
0,38,0,221
0,50,0,0
0,62,0,0
0,38,0,0
0,64,100,2
0,52,100,0
0,40,100,0
0,42,0,15
0,36,0,223
0,38,100,2
