track,note,velocity,time
0,42,120,1448
0,40,110,0
0,36,125,0
0,31,93,0
0,26,93,80
0,42,120,0
0,40,110,0
0,36,125,0
0,29,93,0
0,31,93,96
0,42,120,96
0,40,110,0
0,36,125,0
0,26,93,0
0,42,120,0
0,40,110,0
0,36,125,0
0,29,93,0
0,31,93,96
0,42,120,96
0,40,110,0
0,36,125,0
0,26,93,0
0,42,120,192
0,40,110,0
0,36,125,0
0,29,93,0
0,31,93,96
0,42,120,96
0,40,110,0
0,36,125,0
0,26,93,96
0,42,120,96
0,40,110,0
0,36,125,0
0,29,93,0
0,31,93,0
0,42,120,0
0,40,110,0
0,36,125,0
0,29,93,0
0,24,93,96
0,42,120,96
0,40,110,0
0,36,125,0
0,26,93,0
0,29,93,0
0,42,120,192
0,40,110,0
0,36,125,0
0,24,93,96
0,42,120,96
0,40,110,0
0,36,125,0
0,26,93,0
0,29,93,96
0,42,120,96
0,40,110,0
0,36,125,0
0,24,93,0
0,42,120,192
0,36,125,0
0,26,93,0
0,40,110,12
0,29,93,84
0,40,110,0
0,42,120,0
0,40,110,0
0,36,125,0
0,40,110,0
0,24,93,0
0,42,120,96
0,40,110,0
0,36,125,0
0,26,93,0
0,40,110,0
0,29,93,0
0,42,120,0
0,40,110,0
0,36,125,0
0,31,93,0
0,55,86,0
0,26,93,0
0,50,86,0
0,42,120,0
0,40,110,0
0,36,125,0
0,29,93,0
0,53,86,0
0,31,93,0
0,55,86,0
0,42,120,96
0,40,110,0
0,36,125,0
0,26,93,0
0,50,86,0
0,42,120,0
0,40,110,0
0,36,125,0
0,29,93,0
0,53,86,0
0,31,93,0
0,55,86,0
0,42,120,96
0,40,110,0
0,36,125,0
0,26,93,0
0,50,86,0
0,42,120,0
0,40,110,0
0,36,125,0
0,29,93,0
0,53,86,0
0,31,93,0
0,55,86,0
0,42,120,96
0,40,110,0
0,36,125,0
0,26,93,0
0,50,86,0
0,42,120,96
0,40,110,0
0,36,125,0
0,29,93,0
0,53,86,0
0,31,93,0
0,55,86,0
0,42,120,0
0,40,110,0
0,36,125,0
0,29,93,0
0,53,86,0
0,24,93,0
0,48,86,0
0,42,120,0
0,40,110,0
0,36,125,0
0,26,93,0
0,50,86,0
0,29,93,0
0,53,86,0
0,42,120,192
0,40,110,0
0,36,125,0
0,24,93,0
0,48,86,0
0,42,120,0
0,40,110,0
0,36,125,0
0,26,93,0
0,50,86,0
0,29,93,0
0,53,86,0
0,42,120,96
0,40,110,0
0,36,125,0
0,24,93,0
0,48,86,0
0,42,120,0
0,36,125,0
0,26,93,0
0,50,86,0
0,40,110,12
0,29,93,0
0,53,86,0
0,40,110,0
0,42,120,0
0,40,110,0
0,36,125,0
0,40,110,0
0,24,93,0
0,48,86,0
0,42,120,96
0,36,125,0
0,26,93,0
0,50,86,0
0,40,110,12
0,40,110,0
0,29,93,0
0,53,86,0
0,42,120,0
0,40,110,0
0,36,125,0
0,31,93,0
0,103,92,0
0,91,94,0
0,55,86,0
0,26,93,0
0,98,92,0
0,86,94,0
0,50,86,0
0,42,120,0
0,40,110,0
0,36,125,0
0,29,93,0
0,101,92,0
0,89,94,0
0,53,86,0
0,31,93,0
0,103,92,0
0,91,94,0
0,55,86,0
0,42,120,96
0,40,110,0
0,36,125,0
0,26,93,0
0,98,92,0
0,86,94,0
0,50,86,0
0,42,120,0
0,40,110,0
0,36,125,0
0,29,93,0
0,101,92,0
0,89,94,0
0,53,86,0
0,31,93,0
0,103,92,0
0,91,94,0
0,55,86,0
0,42,120,96
0,40,110,0
0,36,125,0
0,26,93,0
0,98,92,0
0,86,94,0
0,50,86,0
0,42,120,0
0,40,110,0
0,36,125,0
0,29,93,0
0,101,92,0
0,89,94,0
0,53,86,0
0,31,93,0
0,103,92,0
0,91,94,0
0,55,86,0
0,42,120,96
0,40,110,0
0,36,125,0
0,26,93,0
0,98,92,0
0,86,94,0
0,50,86,0
0,42,120,96
0,40,110,0
0,36,125,0
0,29,93,0
0,101,92,0
0,89,94,0
0,53,86,0
0,31,93,0
0,103,92,0
0,91,94,0
0,55,86,0
0,42,120,0
0,40,110,0
0,36,125,0
0,29,93,0
0,101,92,0
0,89,94,0
0,53,86,0
0,24,93,0
0,96,92,0
0,84,94,0
0,48,86,0
0,42,120,0
0,40,110,0
0,36,125,0
0,26,93,0
0,98,92,0
0,86,94,0
0,50,86,0
0,29,93,0
0,101,92,0
0,89,94,0
0,53,86,0
0,42,120,192
0,40,110,0
0,36,125,0
0,24,93,0
0,96,92,0
0,84,94,0
0,48,86,0
0,42,120,0
0,40,110,0
0,36,125,0
0,26,93,0
0,98,92,0
0,86,94,0
0,50,86,0
0,29,93,0
0,101,92,0
0,89,94,0
0,53,86,0
0,42,120,96
0,40,110,0
0,36,125,0
0,24,93,0
0,96,92,0
0,84,94,0
0,48,86,0
0,42,120,0
0,36,125,0
0,26,93,0
0,98,92,0
0,86,94,0
0,50,86,0
0,40,110,12
0,29,93,0
0,101,92,0
0,89,94,0
0,53,86,0
0,40,110,0
0,42,120,0
0,40,110,0
0,36,125,0
0,40,110,0
0,24,93,0
0,96,92,0
0,84,94,0
0,48,86,0
0,42,120,0
0,36,125,0
0,26,93,0
0,98,92,0
0,86,94,0
0,50,86,0
0,40,110,12
0,40,110,0
0,29,93,0
0,101,92,0
0,89,94,0
0,53,86,0
0,42,120,0
0,40,110,0
0,36,125,0
0,31,93,0
0,67,100,0
0,55,100,0
0,103,92,0
0,67,85,0
0,55,85,0
0,91,94,0
0,55,86,0
0,26,93,0
0,62,100,0
0,50,100,0
0,98,92,0
0,62,85,0
0,50,85,0
0,86,94,0
0,50,86,0
0,42,120,0
0,40,110,0
0,36,125,0
0,29,93,0
0,65,100,0
0,53,100,0
0,101,92,0
0,65,85,0
0,53,85,0
0,89,94,0
0,53,86,0
0,31,93,0
0,67,100,0
0,55,100,0
0,103,92,0
0,67,85,0
0,55,85,0
0,91,94,0
0,55,86,0
0,42,120,96
0,40,110,0
0,36,125,0
0,26,93,0
0,62,100,0
0,50,100,0
0,98,92,0
0,62,85,0
0,50,85,0
0,86,94,0
0,50,86,0
0,42,120,0
0,40,110,0
0,36,125,0
0,29,93,0
0,65,100,0
0,53,100,0
0,101,92,0
0,65,85,0
0,53,85,0
0,89,94,0
0,53,86,0
0,31,93,0
0,67,100,0
0,55,100,0
0,103,92,0
0,67,85,0
0,55,85,0
0,91,94,0
0,55,86,0
0,42,120,96
0,40,110,0
0,36,125,0
0,26,93,0
0,62,100,0
0,50,100,0
0,98,92,0
0,62,85,0
0,50,85,0
0,86,94,0
0,50,86,0
0,42,120,0
0,40,110,0
0,36,125,0
0,29,93,0
0,65,100,0
0,53,100,0
0,101,92,0
0,65,85,0
0,53,85,0
0,89,94,0
0,53,86,0
0,31,93,0
0,67,100,0
0,55,100,0
0,103,92,0
0,67,85,0
0,55,85,0
0,91,94,0
0,55,86,0
0,42,120,96
0,40,110,0
0,36,125,0
0,26,93,0
0,62,100,0
0,50,100,0
0,98,92,0
0,62,85,0
0,50,85,0
0,86,94,0
0,50,86,0
0,42,120,0
0,40,110,0
0,36,125,0
0,29,93,0
0,65,100,0
0,53,100,0
0,101,92,0
0,65,85,0
0,53,85,0
0,89,94,0
0,53,86,0
0,31,93,0
0,67,100,0
0,55,100,0
0,103,92,0
0,67,85,0
0,55,85,0
0,91,94,0
0,55,86,0
0,42,120,0
0,40,110,0
0,36,125,0
0,29,93,0
0,65,100,0
0,53,100,0
0,101,92,0
0,65,85,0
0,53,85,0
0,89,94,0
0,53,86,0
0,24,93,0
0,60,100,0
0,48,100,0
0,96,92,0
0,60,85,0
0,48,85,0
0,84,94,0
0,48,86,0
0,42,120,0
0,40,110,0
0,36,125,0
0,26,93,0
0,62,100,0
0,50,100,0
0,98,92,0
0,62,85,0
0,50,85,0
0,86,94,0
0,50,86,0
0,29,93,0
0,65,100,0
0,53,100,0
0,101,92,0
0,65,85,0
0,53,85,0
0,89,94,0
0,53,86,0
0,42,120,192
0,40,110,0
0,36,125,0
0,24,93,0
0,60,100,0
0,48,100,0
0,96,92,0
0,60,85,0
0,48,85,0
0,84,94,0
0,48,86,0
0,42,120,0
0,40,110,0
0,36,125,0
0,26,93,0
0,62,100,0
0,50,100,0
0,98,92,0
0,62,85,0
0,50,85,0
0,86,94,0
0,50,86,0
0,29,93,0
0,65,100,0
0,53,100,0
0,101,92,0
0,65,85,0
0,53,85,0
0,89,94,0
0,53,86,0
0,42,120,96
0,40,110,0
0,36,125,0
0,24,93,0
0,60,100,0
0,48,100,0
0,96,92,0
0,60,85,0
0,48,85,0
0,84,94,0
0,48,86,0
0,42,120,0
0,36,125,0
0,26,93,0
0,62,100,0
0,50,100,0
0,98,92,0
0,62,85,0
0,50,85,0
0,86,94,0
0,50,86,0
0,40,110,12
0,29,93,0
0,65,100,0
0,53,100,0
0,101,92,0
0,65,85,0
0,53,85,0
0,89,94,0
0,53,86,0
0,42,120,96
0,36,125,0
0,40,110,0
0,24,93,0
0,60,100,0
0,48,100,0
0,96,92,0
0,60,85,0
0,48,85,0
0,84,94,0
0,48,86,0
0,42,120,0
0,36,125,0
0,26,93,0
0,62,100,0
0,50,100,0
0,98,92,0
0,62,85,0
0,50,85,0
0,86,94,0
0,50,86,0
0,40,110,12
0,40,110,0
0,29,93,0
0,65,100,0
0,53,100,0
0,101,92,0
0,65,85,0
0,53,85,0
0,89,94,0
0,53,86,0
0,42,120,0
0,40,110,0
0,36,125,0
0,31,93,0
0,91,92,0
0,79,94,0
0,55,86,0
0,26,93,0
0,86,92,0
0,74,94,0
0,50,86,0
0,42,120,0
0,40,110,0
0,36,125,0
0,29,93,0
0,89,92,0
0,77,94,0
0,53,86,0
0,31,93,0
0,91,92,0
0,79,94,0
0,55,86,0
0,42,120,96
0,40,110,0
0,36,125,0
0,62,127,0
0,26,93,0
0,86,92,0
0,74,94,0
0,67,127,0
0,50,86,0
0,42,120,192
0,40,110,0
0,36,125,0
0,29,93,0
0,89,92,0
0,77,94,0
0,53,86,0
0,31,93,0
0,91,92,0
0,79,94,0
0,70,127,0
0,55,86,0
0,42,120,192
0,40,110,0
0,36,125,0
0,26,93,0
0,86,92,0
0,74,94,0
0,50,86,0
0,42,120,0
0,40,110,0
0,36,125,0
0,29,93,0
0,89,92,0
0,77,94,0
0,53,86,0
0,31,93,0
0,91,92,0
0,79,94,0
0,55,86,0
0,42,120,96
0,40,110,0
0,36,125,0
0,67,100,0
0,26,93,0
0,86,92,0
0,74,94,0
0,50,86,0
0,42,120,192
0,40,110,0
0,36,125,0
0,29,93,0
0,89,92,0
0,77,94,0
0,53,86,0
0,31,93,0
0,91,92,0
0,79,94,0
0,55,86,0
0,42,120,0
0,40,110,0
0,36,125,0
0,29,93,0
0,65,100,0
0,89,92,0
0,77,94,0
0,53,86,0
0,24,93,0
0,84,92,0
0,72,94,0
0,48,86,0
0,42,120,0
0,40,110,0
0,36,125,0
0,26,93,0
0,86,92,0
0,74,94,0
0,50,86,0
0,29,93,0
0,89,92,0
0,77,94,0
0,65,127,0
0,53,86,0
0,42,120,96
0,40,110,0
0,36,125,0
0,65,127,0
0,24,93,0
0,84,92,0
0,72,94,0
0,67,127,0
0,48,86,0
0,42,120,0
0,40,110,0
0,36,125,0
0,26,93,0
0,86,92,0
0,74,94,0
0,50,86,0
0,29,93,96
0,89,92,0
0,77,94,0
0,69,127,0
0,53,86,0
0,42,120,96
0,40,110,0
0,36,125,0
0,24,93,0
0,84,92,0
0,72,94,0
0,65,127,0
0,48,86,0
0,42,120,0
0,36,125,0
0,26,93,0
0,86,92,0
0,74,94,0
0,50,86,0
0,40,110,12
0,29,93,0
0,89,92,0
0,77,94,0
0,60,127,0
0,53,86,0
0,40,110,96
0,42,120,0
0,40,110,0
0,36,125,0
0,65,100,0
0,40,110,0
0,24,93,0
0,84,92,0
0,72,94,0
0,48,86,0
0,42,120,0
0,36,125,0
0,26,93,0
0,86,92,0
0,74,94,0
0,50,86,0
0,40,110,12
0,40,110,0
0,29,93,0
0,89,92,0
0,77,94,0
0,53,86,0
0,42,120,0
0,40,110,0
0,36,125,0
0,31,93,0
0,67,100,0
0,91,92,0
0,79,94,0
0,55,86,0
0,26,93,0
0,86,92,0
0,74,94,0
0,50,86,0
0,42,120,0
0,40,110,0
0,36,125,0
0,29,93,0
0,89,92,0
0,77,94,0
0,53,86,0
0,31,93,0
0,91,92,0
0,79,94,0
0,55,86,0
0,42,120,192
0,40,110,0
0,36,125,0
0,62,127,0
0,26,93,0
0,86,92,0
0,74,94,0
0,50,86,0
0,67,127,96
0,42,120,0
0,40,110,0
0,36,125,0
0,29,93,0
0,89,92,0
0,77,94,0
0,53,86,0
0,31,93,0
0,91,92,0
0,79,94,0
0,70,127,0
0,55,86,0
0,42,120,96
0,36,125,0
0,48,110,0
0,26,93,0
0,86,92,0
0,74,94,0
0,50,86,0
0,48,110,0
0,42,120,0
0,36,125,0
0,29,93,0
0,89,92,0
0,77,94,0
0,53,86,0
0,31,93,0
0,91,92,0
0,79,94,0
0,55,86,0
0,42,120,192
0,36,125,0
0,67,100,0
0,41,110,0
0,26,93,0
0,86,92,0
0,74,94,0
0,50,86,0
0,41,110,0
0,42,120,0
0,36,125,0
0,29,93,0
0,89,92,0
0,77,94,0
0,53,86,0
0,31,93,0
0,91,92,0
0,79,94,0
0,55,86,0
0,42,120,0
0,36,125,0
0,36,93,0
0,67,100,0
0,96,92,0
0,84,94,0
0,60,86,0
0,48,110,0
0,31,93,0
0,91,92,0
0,79,94,0
0,55,86,0
0,48,110,44
0,48,110,48
0,42,120,0
0,36,125,0
0,34,93,0
0,94,92,0
0,82,94,0
0,58,86,0
0,48,110,0
0,36,93,0
0,96,92,0
0,84,94,0
0,64,127,0
0,60,127,0
0,60,86,0
0,42,120,74
0,36,125,0
0,64,127,0
0,60,127,0
0,41,110,0
0,31,93,0
0,91,92,0
0,79,94,0
0,65,127,0
0,62,127,0
0,55,86,0
0,41,110,42
0,41,110,0
0,42,120,0
0,36,125,0
0,34,93,0
0,94,92,0
0,82,94,0
0,58,86,0
0,41,110,0
0,36,93,0
0,96,92,0
0,84,94,0
0,67,127,0
0,64,127,0
0,60,86,0
0,42,120,60
0,40,110,0
0,36,125,0
0,31,93,0
0,91,92,0
0,79,94,0
0,55,86,0
0,42,120,0
0,40,110,0
0,36,125,0
0,34,93,0
0,94,92,0
0,82,94,0
0,60,127,0
0,64,127,0
0,58,86,0
0,36,93,0
0,96,92,0
0,84,94,0
0,60,86,0
0,42,120,96
0,40,110,0
0,36,125,0
0,60,127,0
0,57,127,0
0,31,93,0
0,91,92,0
0,79,94,0
0,55,86,0
0,42,120,0
0,40,110,0
0,36,125,0
0,34,93,0
0,94,92,0
0,82,94,0
0,58,127,0
0,55,127,0
0,58,86,0
0,36,93,0
0,96,92,0
0,84,94,0
0,53,127,0
0,57,127,0
0,60,86,0
0,42,120,0
0,40,110,0
0,36,125,0
0,29,93,0
0,89,92,0
0,77,94,0
0,53,86,0
0,24,93,96
0,84,92,0
0,72,94,0
0,48,86,0
0,42,120,96
0,40,110,0
0,36,125,0
0,26,93,0
0,86,92,0
0,74,94,0
0,50,86,0
0,29,93,0
0,89,92,0
0,77,94,0
0,53,86,0
0,42,120,192
0,40,110,0
0,36,125,0
0,65,127,0
0,57,127,0
0,24,93,0
0,84,92,0
0,72,94,0
0,65,127,0
0,57,127,0
0,48,86,0
0,42,120,0
0,40,110,0
0,36,125,0
0,26,93,0
0,86,92,0
0,74,94,0
0,67,127,0
0,58,127,0
0,50,86,0
0,29,93,0
0,89,92,0
0,77,94,0
0,69,127,0
0,60,127,0
0,53,86,0
0,42,120,192
0,40,110,0
0,36,125,0
0,24,93,0
0,65,100,0
0,84,92,0
0,69,85,0
0,65,85,0
0,60,85,0
0,72,94,0
0,48,86,0
0,42,120,0
0,40,110,0
0,36,125,0
0,26,93,0
