track,note,velocity,time
1,42,70,1904
1,42,0,0
1,42,70,384
1,42,0,0
1,42,70,384
1,42,0,0
1,42,70,384
1,42,0,0
1,51,116,384
1,51,0,0
1,35,104,0
1,35,0,0
1,35,51,256
1,35,0,0
1,42,70,128
1,42,0,0
1,37,116,0
1,37,0,0
1,35,51,256
1,35,0,0
1,42,70,128
1,42,0,0
1,42,70,384
1,42,0,0
1,37,116,0
1,37,0,0
1,35,51,256
1,35,0,0
1,42,70,128
1,42,0,0
1,35,72,0
1,35,0,0
1,35,60,256
1,35,0,0
1,42,70,128
1,42,0,0
1,37,100,0
1,37,0,0
1,35,72,256
1,35,0,0
1,42,70,128
1,42,0,0
1,42,70,384
1,42,0,0
1,37,100,0
1,37,0,0
1,35,24,256
1,35,0,0
1,42,70,128
1,42,0,0
1,35,104,0
1,35,0,0
1,35,39,256
1,35,0,0
1,42,70,128
1,42,0,0
1,37,116,0
1,37,0,0
1,35,72,256
1,35,0,0
1,42,70,128
1,42,0,0
1,42,70,384
1,42,0,0
1,37,116,0
1,37,0,0
1,35,44,256
1,35,0,0
1,42,70,128
1,42,0,0
1,35,87,0
1,35,0,0
1,35,51,256
1,35,0,0
1,42,70,128
1,42,0,0
1,37,116,0
1,37,0,0
1,35,104,256
1,35,0,0
1,42,70,128
1,42,0,0
1,42,70,384
1,42,0,0
1,37,100,0
1,37,0,0
1,35,60,256
1,35,0,0
1,51,116,128
1,51,0,0
1,35,104,0
1,35,0,0
1,35,51,256
1,35,0,0
1,42,70,128
1,42,0,0
1,37,116,0
1,37,0,0
1,35,51,256
1,35,0,0
1,42,70,128
1,42,0,0
1,42,70,384
1,42,0,0
1,37,116,0
1,37,0,0
1,35,51,256
1,35,0,0
1,42,70,128
1,42,0,0
1,35,72,0
1,35,0,0
1,35,60,256
1,35,0,0
1,42,70,128
1,42,0,0
1,37,100,0
1,37,0,0
1,35,72,256
1,35,0,0
1,42,70,128
1,42,0,0
1,42,70,384
1,42,0,0
1,37,100,0
1,37,0,0
1,35,24,256
1,35,0,0
1,42,70,128
1,42,0,0
1,35,104,0
1,35,0,0
1,35,39,256
1,35,0,0
1,42,70,128
1,42,0,0
1,37,116,0
1,37,0,0
1,35,72,256
1,35,0,0
1,42,70,128
1,42,0,0
1,42,70,384
1,42,0,0
1,37,116,0
1,37,0,0
1,35,44,256
1,35,0,0
1,42,70,128
1,42,0,0
1,35,87,0
1,35,0,0
1,35,51,256
1,35,0,0
1,42,70,128
1,42,0,0
1,37,116,0
1,37,0,0
1,35,104,256
1,35,0,0
1,42,70,128
1,42,0,0
1,42,70,384
1,42,0,0
1,37,100,0
1,37,0,0
1,35,60,256
1,35,0,0
1,51,116,128
1,51,0,0
1,35,104,0
1,35,0,0
1,35,51,256
1,35,0,0
1,42,70,128
1,42,0,0
1,37,116,0
1,37,0,0
1,35,51,256
1,35,0,0
1,42,70,128
1,42,0,0
1,42,70,384
1,42,0,0
1,37,116,0
1,37,0,0
1,35,51,256
1,35,0,0
1,42,70,128
1,42,0,0
1,35,72,0
1,35,0,0
1,35,60,256
1,35,0,0
1,42,70,128
1,42,0,0
1,37,100,0
1,37,0,0
1,35,72,256
1,35,0,0
1,42,70,128
1,42,0,0
1,42,70,384
1,42,0,0
1,37,100,0
1,37,0,0
1,35,24,256
1,35,0,0
1,42,70,128
1,42,0,0
1,35,104,0
1,35,0,0
1,35,39,256
1,35,0,0
1,42,70,128
1,42,0,0
1,37,116,0
1,37,0,0
1,35,72,256
1,35,0,0
1,42,70,128
1,42,0,0
1,42,70,384
1,42,0,0
1,37,116,0
1,37,0,0
1,35,44,256
1,35,0,0
1,42,70,128
1,42,0,0
1,35,87,0
1,35,0,0
1,35,51,256
1,35,0,0
1,42,70,128
1,42,0,0
1,37,116,0
1,37,0,0
1,35,104,256
1,35,0,0
1,42,70,128
1,42,0,0
1,42,70,384
1,42,0,0
1,37,100,0
1,37,0,0
1,35,60,256
1,35,0,0
1,51,116,128
1,51,0,0
1,35,104,0
1,35,0,0
1,35,51,256
1,35,0,0
1,42,70,128
1,42,0,0
1,37,116,0
1,37,0,0
1,35,51,256
1,35,0,0
1,42,70,128
1,42,0,0
1,42,70,384
1,42,0,0
1,37,116,0
1,37,0,0
1,35,51,256
1,35,0,0
1,42,70,128
1,42,0,0
1,35,72,0
1,35,0,0
1,35,60,256
1,35,0,0
1,42,70,128
1,42,0,0
1,37,100,0
1,37,0,0
1,35,72,256
1,35,0,0
1,42,70,128
1,42,0,0
1,42,70,384
1,42,0,0
1,37,100,0
1,37,0,0
1,35,24,256
1,35,0,0
1,42,70,128
1,42,0,0
1,35,104,0
1,35,0,0
1,35,39,256
1,35,0,0
1,42,70,128
1,42,0,0
1,37,116,0
1,37,0,0
1,35,72,256
1,35,0,0
1,42,70,128
1,42,0,0
1,42,70,384
1,42,0,0
1,37,116,0
1,37,0,0
1,35,44,256
1,35,0,0
1,42,70,128
1,42,0,0
1,35,87,0
1,35,0,0
1,35,51,256
1,35,0,0
1,42,70,128
1,42,0,0
1,37,116,0
1,37,0,0
1,35,104,256
1,35,0,0
1,42,70,128
1,42,0,0
1,42,70,384
1,42,0,0
1,37,100,0
1,37,0,0
1,35,60,256
1,35,0,0
1,42,70,128
1,42,0,0
1,35,87,0
1,35,0,0
1,35,51,256
1,35,0,0
1,42,70,128
1,42,0,0
1,37,116,0
1,37,0,0
1,35,104,256
1,35,0,0
1,42,70,128
1,42,0,0
1,42,70,384
1,42,0,0
1,37,100,0
1,37,0,0
1,35,60,256
1,35,0,0
1,51,116,128
1,51,0,0
1,35,104,0
1,35,0,0
1,35,51,256
1,35,0,0
1,42,70,128
1,42,0,0
1,37,116,0
1,37,0,0
1,35,51,256
1,35,0,0
1,42,70,128
1,42,0,0
1,42,70,384
1,42,0,0
1,37,116,0
1,37,0,0
1,35,51,256
1,35,0,0
1,42,70,128
1,42,0,0
1,35,72,0
1,35,0,0
1,35,60,256
1,35,0,0
1,42,70,128
1,42,0,0
1,37,100,0
1,37,0,0
1,35,72,256
1,35,0,0
1,42,70,128
1,42,0,0
1,42,70,384
1,42,0,0
1,37,100,0
1,37,0,0
1,35,24,256
1,35,0,0
1,42,70,128
1,42,0,0
1,35,104,0
1,35,0,0
1,35,39,256
1,35,0,0
1,42,70,128
1,42,0,0
1,37,116,0
1,37,0,0
1,35,72,256
1,35,0,0
1,42,70,128
1,42,0,0
1,42,70,384
1,42,0,0
1,37,116,0
1,37,0,0
1,35,44,256
1,35,0,0
1,42,70,128
1,42,0,0
1,35,87,0
1,35,0,0
1,35,51,256
1,35,0,0
1,42,70,128
1,42,0,0
1,37,116,0
1,37,0,0
1,45,93,256
1,45,0,0
1,45,110,128
1,45,0,0
1,57,110,256
1,57,0,0
1,35,102,0
1,35,0,0
1,37,100,128
1,37,0,0
1,51,116,384
1,51,0,0
1,35,104,0
1,35,0,0
1,35,51,256
1,35,0,0
1,42,70,128
1,42,0,0
1,37,116,0
1,37,0,0
1,35,51,256
1,35,0,0
1,42,70,128
1,42,0,0
1,42,70,384
1,42,0,0
1,37,116,0
1,37,0,0
1,35,51,256
1,35,0,0
1,42,70,128
1,42,0,0
1,35,72,0
1,35,0,0
1,35,60,256
1,35,0,0
1,42,70,128
1,42,0,0
1,37,100,0
1,37,0,0
1,35,72,256
1,35,0,0
1,42,70,128
1,42,0,0
1,42,70,384
1,42,0,0
1,37,100,0
1,37,0,0
1,35,24,256
1,35,0,0
1,49,71,128
1,49,0,0
1,35,72,0
1,35,0,0
1,51,61,128
1,51,0,0
1,51,40,128
1,51,0,0
1,35,51,0
1,35,0,0
1,51,71,128
1,51,0,0
1,37,83,0
1,37,0,0
1,51,40,128
1,51,0,0
1,51,44,128
1,51,0,0
1,35,60,0
1,35,0,0
1,51,71,128
1,51,0,0
1,35,104,0
1,35,0,0
1,51,29,128
1,51,0,0
1,51,54,128
1,51,0,0
1,51,83,128
1,51,0,0
1,37,116,0
1,37,0,0
1,51,36,128
1,51,0,0
1,51,44,128
1,51,0,0
1,51,83,128
1,51,0,0
1,35,104,0
1,35,0,0
1,51,48,128
1,51,0,0
1,51,40,128
1,51,0,0
1,51,83,128
1,51,0,0
1,37,116,0
1,37,0,0
1,51,71,128
1,51,0,0
1,35,88,128
1,35,0,0
1,38,124,128
1,38,0,0
1,42,70,384
1,42,0,0
1,42,70,768
1,42,0,0
1,42,70,768
1,42,0,0
1,51,116,384
1,51,0,0
1,35,104,0
1,35,0,0
1,35,51,256
1,35,0,0
1,42,70,128
1,42,0,0
1,37,116,0
1,37,0,0
1,35,51,256
1,35,0,0
1,42,70,128
1,42,0,0
1,42,70,384
1,42,0,0
1,37,116,0
1,37,0,0
1,35,51,256
1,35,0,0
1,42,70,128
1,42,0,0
1,35,72,0
1,35,0,0
1,35,60,256
1,35,0,0
1,42,70,128
1,42,0,0
1,37,100,0
1,37,0,0
1,35,72,256
1,35,0,0
1,42,70,128
1,42,0,0
1,42,70,384
1,42,0,0
1,37,100,0
1,37,0,0
1,35,24,256
1,35,0,0
1,42,70,128
1,42,0,0
1,35,104,0
1,35,0,0
1,35,39,256
1,35,0,0
1,42,70,128
1,42,0,0
1,37,116,0
1,37,0,0
1,35,72,256
1,35,0,0
1,42,70,128
1,42,0,0
1,42,70,384
1,42,0,0
1,37,116,0
1,37,0,0
1,35,44,256
1,35,0,0
1,42,70,128
1,42,0,0
1,35,87,0
1,35,0,0
1,35,51,256
1,35,0,0
1,42,70,128
1,42,0,0
1,37,116,0
1,37,0,0
1,35,104,256
1,35,0,0
1,42,70,128
1,42,0,0
1,42,70,384
1,42,0,0
1,37,100,0
1,37,0,0
1,35,60,256
1,35,0,0
1,51,116,128
1,51,0,0
1,35,104,0
1,35,0,0
1,35,51,256
1,35,0,0
1,42,70,128
1,42,0,0
1,37,116,0
1,37,0,0
1,35,51,256
1,35,0,0
1,42,70,128
1,42,0,0
1,42,70,384
1,42,0,0
1,37,116,0
1,37,0,0
1,35,51,256
1,35,0,0
1,42,70,128
1,42,0,0
1,35,72,0
1,35,0,0
1,35,60,256
1,35,0,0
1,42,70,128
1,42,0,0
1,37,100,0
1,37,0,0
1,35,72,256
1,35,0,0
1,42,70,128
1,42,0,0
1,42,70,384
1,42,0,0
1,37,100,0
1,37,0,0
1,35,24,256
1,35,0,0
1,42,70,128
1,42,0,0
1,35,104,0
1,35,0,0
1,35,39,256
1,35,0,0
1,42,70,128
1,42,0,0
1,37,116,0
1,37,0,0
1,35,72,256
1,35,0,0
1,42,70,128
1,42,0,0
1,42,70,384
1,42,0,0
1,37,116,0
1,37,0,0
1,35,44,256
1,35,0,0
1,42,70,128
1,42,0,0
1,35,87,0
1,35,0,0
1,35,51,256
1,35,0,0
1,42,70,128
1,42,0,0
1,37,116,0
1,37,0,0
1,35,104,256
1,35,0,0
1,42,70,128
1,42,0,0
1,42,70,384
1,42,0,0
1,37,100,0
1,37,0,0
1,35,60,256
1,35,0,0
1,42,70,128
1,42,0,0
1,35,87,0
1,35,0,0
1,35,51,256
1,35,0,0
1,42,70,128
1,42,0,0
1,37,116,0
1,37,0,0
1,35,104,256
1,35,0,0
1,42,70,128
1,42,0,0
1,42,70,384
1,42,0,0
1,37,100,0
1,37,0,0
1,35,60,256
1,35,0,0
1,51,116,128
1,51,0,0
1,35,104,0
1,35,0,0
1,35,51,256
1,35,0,0
1,42,70,128
1,42,0,0
1,37,116,0
1,37,0,0
1,35,51,256
1,35,0,0
1,42,70,128
1,42,0,0
1,42,70,384
1,42,0,0
1,37,116,0
1,37,0,0
1,35,51,256
1,35,0,0
1,42,70,128
1,42,0,0
1,35,72,0
1,35,0,0
1,35,60,256
1,35,0,0
1,42,70,128
1,42,0,0
1,37,100,0
1,37,0,0
1,35,72,256
1,35,0,0
1,42,70,128
1,42,0,0
1,42,70,384
1,42,0,0
1,37,100,0
1,37,0,0
1,35,24,256
1,35,0,0
1,42,70,128
1,42,0,0
1,35,104,0
1,35,0,0
1,35,39,256
1,35,0,0
1,42,70,128
1,42,0,0
1,37,116,0
1,37,0,0
1,35,72,256
1,35,0,0
1,42,70,128
1,42,0,0
1,42,70,384
1,42,0,0
1,37,116,0
1,37,0,0
1,35,44,256
1,35,0,0
1,42,70,128
1,42,0,0
1,35,87,0
1,35,0,0
1,35,51,256
1,35,0,0
1,42,70,128
1,42,0,0
1,37,116,0
1,37,0,0
1,45,93,256
1,45,0,0
1,45,110,128
1,45,0,0
1,57,110,256
1,57,0,0
1,35,102,0
1,35,0,0
1,37,100,128
1,37,0,0
1,51,116,384
1,51,0,0
1,35,104,0
1,35,0,0
1,35,51,256
1,35,0,0
1,42,70,128
1,42,0,0
1,37,116,0
1,37,0,0
1,35,51,256
1,35,0,0
1,42,70,128
1,42,0,0
1,42,70,384
1,42,0,0
1,37,116,0
1,37,0,0
1,35,51,256
1,35,0,0
1,42,70,128
1,42,0,0
1,35,72,0
1,35,0,0
1,35,60,256
1,35,0,0
1,42,70,128
1,42,0,0
1,37,100,0
1,37,0,0
1,35,72,256
1,35,0,0
1,42,70,128
1,42,0,0
1,42,70,384
1,42,0,0
1,37,100,0
1,37,0,0
1,35,24,256
1,35,0,0
1,49,71,128
1,49,0,0
1,35,72,0
1,35,0,0
1,51,61,128
1,51,0,0
1,51,40,128
1,51,0,0
1,35,51,0
1,35,0,0
1,51,71,128
1,51,0,0
1,37,83,0
1,37,0,0
1,51,40,128
1,51,0,0
1,51,44,128
1,51,0,0
1,35,60,0
1,35,0,0
1,51,71,128
1,51,0,0
1,35,104,0
1,35,0,0
1,51,29,128
1,51,0,0
1,51,54,128
1,51,0,0
1,51,83,128
1,51,0,0
1,37,116,0
1,37,0,0
1,51,36,128
1,51,0,0
1,51,44,128
1,51,0,0
1,51,83,128
1,51,0,0
1,35,104,0
1,35,0,0
1,51,48,128
1,51,0,0
1,51,40,128
1,51,0,0
1,51,83,128
1,51,0,0
1,37,116,0
1,37,0,0
1,51,71,128
1,51,0,0
1,35,72,128
1,35,0,0
1,38,124,128
1,38,0,0
1,42,70,384
1,42,0,0
1,42,70,768
1,42,0,0
1,42,70,768
1,42,0,0
1,51,116,384
1,51,0,0
1,35,104,0
1,35,0,0
1,35,51,256
1,35,0,0
1,42,70,128
1,42,0,0
1,37,116,0
1,37,0,0
1,35,51,256
1,35,0,0
1,42,70,128
1,42,0,0
1,42,70,384
1,42,0,0
1,37,116,0
1,37,0,0
1,35,51,256
1,35,0,0
1,42,70,128
1,42,0,0
1,35,72,0
1,35,0,0
1,35,60,256
1,35,0,0
1,42,70,128
1,42,0,0
1,37,100,0
1,37,0,0
1,35,72,256
1,35,0,0
1,42,70,128
1,42,0,0
1,42,70,384
1,42,0,0
1,37,100,0
1,37,0,0
1,35,24,256
1,35,0,0
1,42,70,128
1,42,0,0
1,35,104,0
1,35,0,0
1,35,39,256
1,35,0,0
1,42,70,128
1,42,0,0
1,37,116,0
1,37,0,0
1,35,72,256
1,35,0,0
1,42,70,128
1,42,0,0
1,42,70,384
1,42,0,0
1,37,116,0
1,37,0,0
1,35,44,256
1,35,0,0
1,42,70,128
1,42,0,0
1,35,87,0
1,35,0,0
1,35,51,256
1,35,0,0
1,42,70,128
1,42,0,0
1,37,116,0
1,37,0,0
1,35,104,256
1,35,0,0
1,42,70,128
1,42,0,0
1,42,70,384
1,42,0,0
1,37,100,0
1,37,0,0
1,35,60,256
1,35,0,0
1,51,116,128
1,51,0,0
1,35,104,0
1,35,0,0
1,35,51,256
1,35,0,0
1,42,70,128
1,42,0,0
1,37,116,0
1,37,0,0
1,35,51,256
1,35,0,0
1,42,70,128
1,42,0,0
1,42,70,384
1,42,0,0
1,37,116,0
1,37,0,0
1,35,51,256
1,35,0,0
1,42,70,128
1,42,0,0
1,35,72,0
1,35,0,0
1,35,60,256
1,35,0,0
1,42,70,128
1,42,0,0
1,37,100,0
1,37,0,0
1,35,72,256
1,35,0,0
