track,note,velocity,time
1,75,127,19968
1,70,119,0
1,72,127,0
1,72,127,0
1,72,127,0
1,70,127,192
1,67,119,2128
1,67,127,0
1,70,127,0
1,74,119,0
1,68,127,0
1,70,119,0
1,68,127,0
1,68,127,3264
1,70,119,0
1,70,127,0
1,70,119,0
1,70,119,0
1,70,127,0
1,68,127,0
1,70,119,0
1,70,119,0
1,75,127,0
1,75,119,0
1,72,101,0
1,70,119,0
1,70,127,0
1,72,127,0
1,70,119,0
1,75,127,192
1,72,110,0
1,70,119,0
1,72,119,0
1,70,101,0
1,70,127,0
1,72,127,2304
1,72,110,0
1,77,110,0
1,75,110,0
1,77,101,0
1,75,101,0
1,75,127,0
1,74,127,0
1,74,127,0
1,74,119,0
1,70,101,0
1,72,119,0
1,70,127,192
1,70,119,0
1,70,127,0
1,68,127,0
1,70,119,768
1,75,119,0
1,70,101,0
1,75,127,0
1,72,110,0
1,72,127,0
1,67,127,192
1,72,127,1168
1,72,110,0
1,77,127,192
1,75,127,0
1,74,119,0
1,74,127,0
1,74,119,0
1,70,110,0
1,72,119,0
1,70,127,0
1,72,119,0
1,72,119,0
1,72,127,0
1,72,119,0
1,79,127,0
1,79,127,0
1,77,127,0
1,75,127,0
1,77,127,0
1,79,127,0
1,78,92,0
1,79,127,0
1,78,127,0
1,79,119,0
1,78,127,0
1,79,119,0
1,78,127,0
1,79,119,0
1,77,127,0
1,72,127,0
1,75,127,0
1,79,127,0
1,78,127,0
1,77,119,0
1,77,119,0
1,77,127,0
1,75,119,0
1,75,119,0
1,75,119,0
1,72,127,192
1,65,110,0
1,66,110,192
1,67,101,0
1,70,110,96
1,67,119,0
1,67,127,0
1,70,127,0
1,74,119,0
1,68,127,0
1,70,119,0
1,68,127,0
1,68,127,3264
1,70,119,0
1,70,127,0
1,70,119,0
1,70,119,0
1,70,127,0
1,68,127,0
1,70,119,0
1,70,119,0
1,75,127,0
1,75,119,0
1,72,101,0
1,70,119,0
1,70,127,0
1,72,127,0
1,70,119,0
1,75,127,192
1,72,110,0
1,70,119,0
1,72,119,0
1,70,101,0
1,70,127,0
1,72,127,2320
1,72,110,0
1,77,110,0
1,75,110,0
1,77,101,0
1,75,101,0
1,75,127,0
1,74,127,0
1,74,127,0
1,74,119,0
1,70,101,0
1,72,119,0
1,70,127,192
1,70,119,0
1,70,127,0
1,68,127,0
1,70,119,768
1,75,119,0
1,70,101,0
1,75,127,0
1,72,110,0
1,72,127,0
1,67,127,192
1,72,127,1184
1,72,110,0
1,77,127,192
1,75,127,0
1,74,119,0
1,74,127,0
1,74,119,0
1,70,110,0
1,72,119,0
1,70,127,0
1,72,119,0
1,72,119,0
1,72,127,0
1,72,119,0
1,79,127,0
1,79,127,0
1,77,127,0
1,75,127,0
1,77,127,0
1,79,127,0
1,78,92,0
1,79,127,0
1,78,127,0
1,79,119,0
1,78,127,0
1,79,119,0
1,78,127,0
1,79,119,0
1,77,127,0
1,72,127,0
1,75,127,0
1,79,127,0
1,78,127,0
1,77,119,0
1,77,119,0
1,77,127,0
1,75,119,0
1,75,119,0
1,75,119,0
1,72,127,192
1,65,110,0
1,66,110,192
1,67,101,0
1,70,110,96
1,67,119,0
1,67,127,0
1,70,127,0
1,74,119,0
1,68,127,0
1,70,119,0
1,68,127,0
1,68,127,3408
1,70,119,0
1,70,127,0
1,70,119,0
1,70,119,0
1,70,127,0
1,68,127,0
1,70,119,0
1,70,119,0
1,75,127,0
1,75,119,0
1,72,101,0
1,70,119,0
1,70,127,0
1,72,127,0
1,70,119,0
1,75,127,192
1,72,110,0
1,70,119,0
1,72,119,0
1,70,101,0
1,70,127,0
1,72,127,2320
1,72,110,0
1,77,110,0
1,75,110,0
1,77,101,0
1,75,101,0
1,75,127,0
1,74,127,0
1,74,127,0
1,74,119,0
1,70,101,0
1,72,119,0
1,70,127,192
1,70,119,0
1,70,127,0
1,68,127,0
1,70,119,768
1,75,119,0
1,70,101,0
1,75,127,0
1,72,110,0
1,72,127,0
1,67,127,192
1,72,127,1184
1,72,110,0
1,77,127,192
1,75,127,0
1,74,119,0
1,74,127,0
1,74,119,0
1,70,110,0
1,72,119,0
1,70,127,0
1,72,119,0
1,72,119,0
1,72,127,0
1,72,119,0
1,79,127,0
1,79,127,0
1,77,127,0
1,75,127,0
1,77,127,0
1,79,127,0
1,78,92,0
1,79,127,0
1,78,127,0
1,79,119,0
1,78,127,0
1,79,119,0
1,78,127,0
1,79,119,0
1,77,127,0
1,72,127,0
1,75,127,0
1,79,127,0
1,78,127,0
1,77,119,0
1,77,119,0
1,77,127,0
1,75,119,0
1,75,119,0
1,75,119,0
1,72,127,192
1,65,110,0
1,66,110,192
1,67,101,0
1,70,110,96
2,39,99,2304
2,36,81,32
2,39,99,192
2,44,90,36
2,39,90,0
2,36,77,26
2,39,90,192
2,44,81,46
2,34,90,0
2,36,81,0
2,38,81,0
2,39,81,0
2,36,77,384
2,39,90,190
2,44,81,40
2,39,99,0
2,36,90,30
2,39,99,192
2,44,81,32
2,34,99,0
2,36,90,0
2,38,90,0
2,39,90,0
2,36,77,8
2,39,99,192
2,44,90,36
2,39,108,0
2,36,77,26
2,39,99,192
2,44,99,16
2,34,99,768
2,36,81,0
2,38,90,0
2,39,81,0
2,36,77,384
2,39,90,190
2,44,81,26
2,39,99,0
2,36,90,16
2,39,99,192
2,44,99,36
2,34,108,0
2,36,81,0
2,38,99,0
2,39,108,0
2,39,99,192
2,46,117,0
2,34,81,20
2,36,81,0
2,39,99,0
2,39,90,62
2,46,99,0
2,39,126,480
2,38,99,0
2,34,90,0
2,43,99,0
2,43,90,84
2,38,90,16
2,43,99,8
2,42,90,298
2,41,108,0
2,41,99,62
2,36,108,0
2,35,108,0
2,34,108,0
2,34,90,116
2,46,81,0
2,43,90,576
2,41,90,0
2,38,81,0
2,34,108,0
2,34,99,112
2,34,108,128
2,29,108,4
2,31,81,0
2,32,81,0
2,34,90,0
2,34,108,112
2,34,108,96
2,38,99,14
2,39,117,0
2,39,81,46
2,46,99,8
2,46,99,48
2,41,99,0
2,42,99,0
2,43,99,0
2,38,117,0
2,35,117,16
2,31,108,0
2,33,99,0
2,35,108,0
2,36,117,0
2,43,117,20
2,36,108,0
2,39,117,576
2,38,108,0
2,36,90,0
2,43,108,0
2,38,108,40
2,43,99,0
2,43,99,88
2,42,99,26
2,41,81,20
2,36,90,10
2,35,99,0
2,34,99,0
2,40,108,576
2,39,117,0
2,39,99,48
2,34,90,10
2,39,117,0
2,38,126,238
2,36,108,0
2,36,90,74
2,38,108,20
2,39,99,0
2,41,108,14
2,43,90,24
2,43,108,48
2,43,90,68
2,38,108,8
2,43,99,42
2,42,90,0
2,41,108,4
2,41,107,62
2,41,107,26
2,39,107,26
2,39,112,42
2,39,112,40
2,38,108,16
2,38,112,52
2,38,112,48
2,36,108,192
2,36,108,48
2,36,112,52
2,34,108,0
2,34,112,46
2,34,108,32
2,34,108,42
2,34,117,46
2,34,112,62
2,46,108,32
2,34,117,0
2,39,108,3344
2,39,99,192
2,46,117,0
2,48,81,20
2,46,81,0
2,39,99,0
2,39,90,62
2,34,99,0
2,39,126,304
2,38,99,0
2,34,90,0
2,43,99,0
2,43,90,84
2,38,90,16
2,43,99,8
2,42,90,298
2,41,108,0
2,41,99,62
2,36,108,0
2,35,108,0
2,34,108,0
2,34,90,116
2,34,108,32
2,28,108,26
2,29,108,186
2,31,99,162
2,32,108,0
2,34,108,8
2,34,99,112
2,34,117,128
2,41,81,864
2,46,81,0
2,41,81,8
2,34,90,26
2,34,108,32
2,46,112,48
2,40,112,20
2,46,107,10
2,39,112,0
2,39,107,48
2,46,112,0
2,28,112,16
2,29,112,0
2,30,112,0
2,31,108,0
2,31,107,48
2,34,112,10
2,34,108,72
2,35,112,10
2,35,107,100
2,38,112,4
2,38,112,84
2,36,117,20
2,43,117,20
2,36,108,0
2,36,117,32
2,38,108,0
2,39,90,0
2,43,108,0
2,43,108,32
2,38,99,0
2,43,97,0
2,43,99,32
2,42,99,26
2,41,81,20
2,48,90,10
2,47,99,0
2,46,99,0
2,38,108,576
2,39,117,0
2,39,99,48
2,34,90,10
2,39,117,0
2,38,126,238
2,36,108,0
2,36,90,74
2,38,108,20
2,39,99,0
2,41,108,14
2,43,90,24
2,43,108,48
2,43,90,68
2,38,117,8
2,34,90,26
2,33,90,24
2,31,99,4
2,43,108,30
2,41,108,4
2,41,107,62
2,41,107,26
2,39,107,26
2,39,112,42
2,39,112,40
2,38,108,16
2,38,112,52
2,38,112,48
2,36,108,192
2,36,108,48
2,36,112,52
2,34,108,0
2,34,112,46
2,34,108,32
2,34,108,42
2,34,117,46
2,34,112,62
2,46,108,32
2,34,117,0
2,39,108,3344
2,39,99,192
2,46,117,0
2,34,81,20
2,36,81,0
2,39,99,0
2,39,90,62
2,46,99,0
2,39,126,304
2,38,99,0
2,34,90,0
2,43,99,0
2,43,90,84
2,38,90,16
2,43,99,8
2,42,90,298
2,41,108,0
2,41,99,62
2,36,108,0
2,35,108,0
2,34,108,0
2,34,90,116
2,34,108,32
2,28,108,26
2,29,108,186
2,31,99,162
2,32,108,0
2,34,108,8
2,34,99,112
2,34,117,128
2,41,81,864
2,46,81,0
2,41,81,8
2,34,90,26
2,34,108,32
2,46,112,48
2,40,112,20
2,46,107,10
2,39,112,0
2,39,107,48
2,46,112,0
2,28,112,16
2,29,112,0
2,30,112,0
2,31,108,0
2,31,107,48
2,34,112,10
2,34,108,72
2,35,112,10
2,35,107,100
2,38,112,4
2,38,112,84
2,36,117,20
2,43,117,20
2,36,108,0
2,36,117,32
2,38,108,0
2,39,90,0
2,43,108,0
2,43,108,32
2,38,99,0
2,43,97,0
2,43,99,32
2,42,99,26
2,41,81,20
2,48,90,10
2,47,99,0
2,46,99,0
2,38,108,576
2,39,117,0
2,39,99,48
2,34,90,10
2,39,117,0
2,38,126,238
2,36,108,0
2,36,90,74
2,38,108,20
2,39,99,0
2,41,108,14
2,43,90,24
2,43,108,48
2,43,90,68
2,38,117,8
2,34,90,26
2,33,90,24
2,31,99,4
2,43,108,30
2,41,108,4
2,41,107,62
2,41,107,26
2,39,107,26
2,39,112,42
2,39,112,40
2,38,108,16
2,38,112,52
2,38,112,48
2,36,108,192
2,36,108,48
2,36,112,52
2,34,108,0
2,34,112,46
2,34,108,32
2,34,108,42
2,34,117,46
2,34,112,62
2,46,108,32
2,34,117,0
2,39,99,3344
2,36,81,32
2,39,99,192
2,44,90,36
2,39,90,0
2,36,77,26
2,39,90,192
2,44,81,46
2,34,90,0
2,36,81,0
2,38,81,0
2,39,99,0
2,36,81,32
2,39,99,192
2,44,90,36
2,39,90,0
2,36,77,26
2,39,90,192
2,44,81,46
2,34,90,0
2,36,81,0
2,38,81,0
2,39,99,0
2,36,81,32
2,39,99,192
2,44,90,36
2,39,90,0
2,36,77,26
2,39,90,192
2,44,81,46
2,34,90,0
2,36,81,0
2,38,81,0
2,39,99,0
2,36,81,32
2,39,99,192
2,44,90,36
2,39,90,0
2,36,77,26
2,39,90,192
2,44,81,46
2,34,90,0
2,36,81,0
2,38,81,0
2,39,99,0
2,36,81,32
2,39,99,192
2,44,90,36
2,39,90,0
2,36,77,26
2,39,90,192
2,44,81,46
2,34,90,0
2,36,81,0
2,38,81,0
2,39,99,0
2,36,81,32
2,39,99,192
2,44,90,36
2,39,90,0
2,36,77,26
2,39,90,192
2,44,81,46
2,34,90,0
2,36,81,0
2,38,81,0
2,39,99,0
2,36,81,32
2,39,99,192
2,44,90,36
2,39,90,0
2,36,77,26
2,39,90,192
2,44,117,46
3,70,116,25344
3,68,107,494
3,70,98,24
3,68,116,192
3,70,116,38154
3,68,107,494
3,70,98,24
3,68,116,192
3,70,116,38154
3,68,107,494
3,70,98,24
3,68,116,192
3,62,107,38154
3,63,107,36
3,62,107,14
3,63,107,10
3,70,116,496
3,63,107,238
3,60,98,26
3,60,107,36
3,58,116,14
3,62,107,890
3,63,107,36
3,62,107,14
3,63,107,10
3,70,116,496
3,63,107,238
3,60,98,26
3,60,107,36
3,58,116,14
3,62,107,890
3,63,107,36
3,62,107,14
3,63,107,10
3,70,116,496
3,63,107,238
3,60,98,26
3,60,107,36
3,58,116,14
4,67,116,25344
4,65,107,616
4,67,98,30
4,65,107,0
4,67,116,38324
4,65,107,616
4,67,98,30
4,65,107,0
4,67,116,38324
4,65,107,616
4,67,98,30
4,65,107,0
4,58,107,38324
4,60,107,48
4,58,107,196
4,60,107,88
4,67,107,504
4,63,107,336
4,60,107,16
4,60,107,56
4,58,116,8
4,58,107,752
4,60,107,48
4,58,107,196
4,60,107,88
4,67,107,504
4,63,107,336
4,60,107,16
4,60,107,56
4,58,116,8
4,58,107,752
4,60,107,48
4,58,107,196
4,60,107,88
4,67,107,504
4,63,107,336
4,60,107,16
4,60,107,56
4,58,116,8
5,62,116,25344
5,60,107,522
5,62,98,40
5,60,116,192
5,62,116,38104
5,60,107,522
5,62,98,40
5,60,116,192
5,62,116,38104
5,60,107,522
5,62,98,40
5,60,116,192
5,55,116,38104
5,55,116,174
5,55,116,176
5,55,107,174
5,62,116,462
5,63,116,474
5,60,98,14
5,60,98,48
5,58,107,14
5,55,116,888
5,55,116,174
5,55,116,176
5,55,107,174
5,62,116,462
5,63,116,474
5,60,98,14
5,60,98,48
5,58,107,14
5,55,116,888
5,55,116,174
5,55,116,176
5,55,107,174
5,62,116,462
5,63,116,474
5,60,98,14
5,60,98,48
5,58,107,14
6,70,106,42
6,70,71,90
6,82,88,114
6,82,88,78
6,94,97,154
6,94,97,90
6,70,115,1900
6,72,79,24
6,75,106,64
6,77,97,50
6,77,79,106
6,78,79,48
6,79,75,32
6,84,97,16
6,77,88,136
6,78,79,36
6,79,97,28
6,84,97,0
6,78,106,140
6,77,106,32
6,72,79,16
6,75,97,42
6,70,97,398
6,82,88,88
6,94,106,364
6,82,97,106
6,72,106,2256
6,75,106,52
6,77,106,56
6,77,97,134
6,78,97,36
6,79,106,6
6,78,115,80
6,79,106,42
6,78,124,92
6,77,124,22
6,72,88,30
6,75,88,54
6,55,115,5028
6,62,115,0
6,58,97,0
6,67,97,0
6,55,106,62
6,58,106,0
6,62,106,0
6,67,88,0
6,54,106,320
6,57,88,0
6,61,97,0
6,66,106,0
6,53,67,8
6,60,106,0
6,56,97,0
6,65,79,0
6,77,51,158
6,78,71,32
6,91,97,22
6,84,97,4
6,79,88,2
6,80,97,0
6,87,88,0
6,87,75,20
6,77,88,6
6,84,97,0
6,89,88,0
6,80,79,4
6,65,79,208
6,66,88,2
6,79,75,20
6,67,71,2
6,68,55,4
6,75,59,0
6,72,55,4
6,75,75,16
6,65,97,2
6,68,79,4
6,72,97,4
6,77,88,0
6,61,31,146
6,53,79,64
6,54,79,2
6,56,97,8
6,67,97,0
6,60,97,4
6,63,79,0
6,55,97,0
6,56,79,32
6,60,97,0
6,63,79,0
6,53,97,4
6,65,79,0
6,65,55,256
6,66,79,34
6,68,97,8
6,72,97,2
6,75,97,4
6,79,97,0
6,67,97,0
6,68,75,12
6,72,88,8
6,77,97,2
6,75,75,0
6,65,106,0
6,77,71,268
6,78,79,44
6,91,97,18
6,87,97,0
6,80,88,0
6,84,88,0
6,79,88,6
6,77,97,22
6,87,75,0
6,84,97,0
6,80,79,0
6,89,97,4
6,65,75,250
6,66,75,38
6,67,97,6
6,75,97,4
6,68,97,0
6,79,97,0
6,72,97,2
6,68,88,16
6,75,88,8
6,65,97,0
6,77,106,0
6,72,106,2
6,41,97,288
6,56,88,0
6,63,97,0
6,60,88,4
6,53,88,2
6,56,97,32
6,63,97,6
6,41,88,0
6,60,97,4
6,53,97,0
6,60,88,26
6,53,97,0
6,56,97,2
6,56,88,40
6,60,79,0
6,53,75,4
6,56,79,32
6,59,88,6
6,53,88,0
6,62,75,4
6,55,75,222
6,58,88,0
6,62,97,8
6,65,88,24
6,58,106,56
6,62,97,0
6,55,97,2
6,65,106,0
6,72,75,1462
6,75,88,58
