track,note,velocity,time
3,35,99,1339
3,35,0,1
3,40,102,0
3,40,0,347
3,35,95,4
3,35,0,38
3,38,98,0
3,38,0,47
3,39,103,0
3,39,0,49
3,40,90,0
3,40,0,65
3,40,91,9
3,40,0,13
3,40,91,10
3,40,0,54
3,40,77,17
3,40,0,9
3,40,90,15
3,40,0,50
3,40,84,22
3,40,0,1
3,35,74,0
3,35,0,36
3,38,99,0
3,38,0,47
3,40,92,0
3,40,0,63
3,40,81,10
3,40,0,14
3,40,84,10
3,40,0,63
3,40,74,11
3,40,0,13
3,40,75,10
3,40,0,52
3,40,64,18
3,40,0,20
3,43,79,4
3,43,0,25
3,40,79,0
3,40,0,24
3,38,94,0
3,38,0,47
3,40,91,0
3,40,0,62
3,40,70,10
3,40,0,14
3,40,79,10
3,40,0,63
3,40,69,11
3,40,0,12
3,40,87,11
3,40,0,50
3,40,84,21
3,40,0,1
3,35,83,1
3,35,0,31
3,38,92,0
3,38,0,47
3,40,87,0
3,40,0,64
3,40,74,9
3,40,0,14
3,40,84,10
3,40,0,60
3,40,77,14
3,40,0,12
3,40,90,12
3,40,0,46
3,40,83,24
3,40,0,2
3,35,87,0
3,35,0,34
3,38,88,0
3,38,0,48
3,40,91,0
3,40,0,61
3,40,84,12
3,40,0,12
3,40,85,11
3,40,0,62
3,40,78,13
3,40,0,14
3,40,89,10
3,40,0,46
3,40,74,23
3,40,0,22
3,33,98,3
3,33,0,24
3,35,76,0
3,35,0,26
3,38,89,0
3,38,0,48
3,40,98,1
3,40,0,50
3,40,72,20
3,40,0,11
3,40,91,12
3,40,0,57
3,40,74,17
3,40,0,11
3,40,94,13
3,40,0,44
3,40,92,25
3,40,0,25
3,43,94,0
3,43,0,25
3,40,90,0
3,40,0,22
3,38,82,1
3,38,0,48
3,40,89,0
3,40,0,55
3,40,71,17
3,40,0,10
3,40,99,14
3,40,0,56
3,40,75,18
3,40,0,11
3,40,95,13
3,40,0,42
3,40,96,28
3,40,0,24
3,33,85,0
3,33,0,24
3,35,83,0
3,35,0,25
3,38,95,0
3,38,0,47
3,40,88,1
3,40,0,53
3,40,82,20
3,40,0,11
3,40,95,13
3,40,0,52
3,40,84,18
3,40,0,13
3,40,98,13
3,40,0,47
3,40,96,23
3,40,0,24
3,33,90,0
3,33,0,24
3,35,72,0
3,35,0,23
3,38,92,0
3,38,0,49
3,40,89,0
3,40,0,54
3,40,83,18
3,40,0,11
3,40,91,13
3,40,0,56
3,40,85,16
3,40,0,14
3,40,91,12
3,40,0,44
3,40,94,26
3,40,0,24
3,43,95,0
3,43,0,24
3,40,96,0
3,40,0,23
3,38,85,1
3,38,0,48
3,40,91,0
3,40,0,53
3,40,70,19
3,40,0,9
3,40,99,15
3,40,0,56
3,40,82,17
3,40,0,14
3,40,94,11
3,40,0,50
3,40,84,20
3,40,0,24
3,33,92,0
3,33,0,25
3,35,83,0
3,35,0,25
3,38,85,0
3,38,0,42
3,40,95,4
3,40,0,52
3,40,84,20
3,40,0,12
3,40,94,12
3,40,0,53
3,40,84,19
3,40,0,13
3,40,89,11
3,40,0,49
3,40,101,25
3,40,0,25
3,43,89,0
3,43,0,24
3,40,98,0
3,40,0,21
3,38,94,2
3,38,0,46
3,40,96,0
3,40,0,49
3,40,63,23
3,40,0,11
3,40,94,13
3,40,0,55
3,40,77,18
3,40,0,12
3,40,90,13
3,40,0,41
3,40,89,29
3,40,0,24
3,33,91,0
3,33,0,24
3,35,77,0
3,35,0,24
3,38,96,0
3,38,0,44
3,40,96,3
3,40,0,59
3,40,95,16
3,40,0,17
3,40,89,7
3,40,0,43
3,40,77,26
3,40,0,11
3,40,85,13
3,40,0,54
3,40,89,18
3,40,0,23
3,33,83,0
3,33,0,26
3,35,83,0
3,35,0,24
3,38,84,0
3,38,0,45
3,40,96,3
3,40,0,52
3,40,87,21
3,40,0,13
3,40,89,12
3,40,0,51
3,40,88,19
3,40,0,13
3,40,84,11
3,40,0,45
3,40,95,27
3,40,0,24
3,43,83,0
3,43,0,24
3,40,94,0
3,40,0,24
3,38,69,0
3,38,0,47
3,40,94,0
3,40,0,57
3,40,69,15
3,40,0,11
3,40,90,14
3,40,0,56
3,40,77,17
3,40,0,14
3,40,94,11
3,40,0,45
3,40,84,24
3,40,0,24
3,33,90,0
3,33,0,25
3,35,72,0
3,35,0,22
3,38,84,0
3,38,0,49
3,40,88,0
3,40,0,58
3,40,79,16
3,40,0,13
3,40,92,12
3,40,0,45
3,40,73,25
3,40,0,12
3,40,91,12
3,40,0,49
3,40,89,24
3,40,0,23
3,33,80,0
3,33,0,24
3,35,85,0
3,35,0,24
3,38,91,0
3,38,0,44
3,40,102,4
3,40,0,57
3,40,75,17
3,40,0,12
3,40,91,12
3,40,0,51
3,40,77,20
3,40,0,13
3,40,91,12
3,40,0,48
3,40,85,22
3,40,0,23
3,33,87,1
3,33,0,25
3,35,77,0
3,35,0,23
3,38,83,0
3,38,0,48
3,40,88,0
3,40,0,56
3,40,74,18
3,40,0,12
3,40,95,12
3,40,0,48
3,40,77,22
3,40,0,13
3,40,92,13
3,40,0,52
3,40,88,18
3,40,0,24
3,33,93,0
3,33,0,24
3,35,95,0
3,35,0,26
3,38,101,0
3,38,0,46
3,40,89,0
3,40,0,53
3,40,85,20
3,40,0,14
3,40,96,11
3,40,0,50
3,40,77,22
3,40,0,13
3,40,89,11
3,40,0,47
3,40,89,23
3,40,0,24
3,33,85,0
3,33,0,25
3,35,81,0
3,35,0,25
3,38,91,0
3,38,0,45
3,40,90,0
3,40,0,55
3,40,89,18
3,40,0,12
3,40,89,13
3,40,0,55
3,40,82,18
3,40,0,13
3,40,89,11
3,40,0,45
3,40,89,25
3,40,0,24
3,43,94,0
3,43,0,26
3,40,95,0
3,40,0,22
3,38,84,0
3,38,0,48
3,40,98,0
3,40,0,57
3,40,72,18
3,40,0,13
3,40,92,11
3,40,0,48
3,40,79,23
3,40,0,12
3,40,84,13
3,40,0,41
3,40,96,29
3,40,0,24
3,33,82,0
3,33,0,25
3,35,77,0
3,35,0,25
3,38,94,0
3,38,0,47
3,40,96,0
3,40,0,49
3,40,84,21
3,40,0,13
3,40,90,12
3,40,0,53
3,40,84,19
3,40,0,16
3,40,95,9
3,40,0,47
3,40,89,24
3,40,0,24
3,33,84,0
3,33,0,24
3,35,74,0
3,35,0,23
3,38,91,0
3,38,0,48
3,40,91,0
3,40,0,53
3,40,77,19
3,40,0,12
3,40,85,14
3,40,0,48
3,40,77,22
3,40,0,13
3,40,89,13
3,40,0,50
3,40,84,22
3,40,0,22
3,33,89,0
3,33,0,26
3,35,79,0
3,35,0,24
3,38,82,0
3,38,0,46
3,40,80,0
3,40,0,47
3,40,79,24
3,40,0,12
3,40,92,13
3,40,0,53
3,40,83,19
3,40,0,15
3,40,94,11
3,40,0,46
3,40,90,23
3,40,0,25
3,33,84,0
3,33,0,24
3,35,75,0
3,35,0,24
3,38,88,0
3,38,0,47
3,40,82,0
3,40,0,53
3,40,74,19
3,40,0,14
3,40,84,10
3,40,0,59
3,40,94,16
3,40,0,17
3,40,91,8
3,40,0,39
3,40,78,29
3,40,0,25
3,33,87,0
3,33,0,24
3,35,76,0
3,35,0,24
3,38,88,0
3,38,0,49
3,40,90,0
3,40,0,53
3,40,84,18
3,40,0,14
3,40,83,10
3,40,0,53
3,40,81,19
3,40,0,15
3,40,96,9
3,40,0,45
3,40,81,26
3,40,0,25
3,33,85,0
3,33,0,24
3,35,83,0
3,35,0,26
3,38,94,0
3,38,0,44
3,40,101,2
3,40,0,51
3,40,80,21
3,40,0,14
3,40,91,12
3,40,0,53
3,40,83,19
3,40,0,19
3,40,77,7
3,40,0,42
3,40,87,26
3,40,0,22
3,33,72,3
3,33,0,25
3,35,88,0
3,35,0,25
3,38,96,0
3,38,0,45
3,40,92,0
3,40,0,50
3,40,78,22
3,40,0,10
3,40,96,14
3,40,0,51
3,40,76,21
3,40,0,16
3,40,74,8
3,40,0,51
3,40,88,20
3,40,0,24
3,43,92,0
3,43,0,25
3,40,88,0
3,40,0,23
3,38,79,0
3,38,0,47
3,40,101,1
3,40,0,64
3,40,81,12
3,40,0,10
3,40,95,13
3,40,0,51
3,40,91,21
3,40,0,14
3,40,96,9
3,40,0,46
3,40,85,24
3,40,0,25
3,33,89,0
3,33,0,24
3,35,77,0
3,35,0,24
3,38,99,0
3,38,0,47
3,40,94,0
3,40,0,61
3,40,78,13
3,40,0,10
3,40,89,13
3,40,0,58
3,40,87,16
3,40,0,14
3,40,98,10
3,40,0,49
3,40,88,23
3,40,0,22
3,43,95,0
3,43,0,24
3,40,91,0
3,40,0,26
3,38,85,0
3,38,0,46
3,40,101,0
3,40,0,54
3,40,78,18
3,40,0,10
3,40,102,14
3,40,0,57
3,40,85,17
3,40,0,13
3,40,96,11
3,40,0,43
3,40,87,26
3,40,0,25
3,33,84,0
3,33,0,24
3,35,80,0
3,35,0,23
3,38,90,0
3,38,0,48
3,40,96,0
3,40,0,60
3,40,83,15
3,40,0,11
3,40,92,13
3,40,0,52
3,40,84,18
3,40,0,12
3,40,102,12
3,40,0,49
3,40,84,23
3,40,0,25
3,33,99,0
3,33,0,25
3,35,82,0
3,35,0,22
3,38,104,0
3,38,0,48
3,40,84,0
3,40,0,58
3,40,85,16
3,40,0,13
3,40,98,11
3,40,0,55
3,40,88,17
3,40,0,12
3,40,95,12
3,40,0,45
3,40,90,25
3,40,0,26
3,33,84,0
3,33,0,24
3,35,74,0
3,35,0,22
3,38,70,0
3,38,0,47
3,40,88,0
3,40,0,56
3,40,85,17
3,40,0,13
3,40,92,11
3,40,0,52
3,40,83,21
3,40,0,15
3,40,84,10
3,40,0,47
3,40,89,23
3,40,0,24
3,43,101,0
3,43,0,26
3,40,94,0
3,40,0,24
3,38,81,0
3,38,0,46
3,40,96,0
3,40,0,54
3,40,84,18
3,40,0,12
3,40,88,12
3,40,0,49
3,40,98,22
3,40,0,13
3,40,108,14
3,40,0,52
3,40,85,20
3,40,0,22
3,33,91,0
3,33,0,26
3,35,84,0
3,35,0,24
3,38,104,0
3,38,0,48
3,40,101,0
3,40,0,48
3,40,84,22
3,40,0,13
3,40,91,11
3,40,0,57
3,40,90,17
3,40,0,14
3,40,96,10
3,40,0,43
3,40,90,27
3,40,0,21
3,43,94,2
3,43,0,25
3,40,95,0
3,40,0,24
3,38,90,0
3,38,0,48
3,40,95,0
3,40,0,53
3,40,82,18
3,40,0,12
3,40,85,12
3,40,0,52
3,40,87,21
3,40,0,14
3,40,96,10
3,40,0,50
3,40,98,23
3,40,0,25
3,33,85,0
3,33,0,24
3,35,78,0
3,35,0,24
3,38,102,0
3,38,0,48
3,40,87,0
3,40,0,54
3,40,91,17
3,40,0,11
3,40,92,13
3,40,0,53
3,40,85,18
3,40,0,10
3,40,92,14
3,40,0,53
3,40,91,19
3,40,0,25
3,43,95,0
3,43,0,24
3,40,87,1
3,40,0,22
3,38,87,0
3,38,0,48
3,40,91,0
3,40,0,51
3,40,85,21
3,40,0,10
3,40,101,13
3,40,0,50
3,40,81,23
3,40,0,14
3,40,90,11
3,40,0,48
3,40,92,23
3,40,0,24
3,33,87,0
3,33,0,26
3,35,84,0
3,35,0,22
3,38,85,0
3,38,0,48
3,40,98,0
3,40,0,55
3,40,99,19
3,40,0,10
3,40,94,14
3,40,0,53
3,40,84,18
3,40,0,12
3,40,88,13
3,40,0,47
3,40,92,23
3,40,0,23
3,43,94,1
3,43,0,24
3,40,92,0
3,40,0,24
3,38,84,0
3,38,0,47
3,40,96,0
3,40,0,52
3,40,77,20
3,40,0,10
3,40,95,14
3,40,0,56
3,40,95,17
3,40,0,14
3,40,92,12
3,40,0,46
3,40,99,24
3,40,0,24
3,33,84,0
3,33,0,24
3,35,74,0
3,35,0,24
3,38,104,0
3,38,0,45
3,40,98,2
3,40,0,56
3,40,83,19
3,40,0,9
3,40,92,14
3,40,0,48
3,40,90,24
3,40,0,15
3,40,98,9
3,40,0,48
3,40,80,25
3,40,0,22
3,33,95,0
3,33,0,24
3,35,77,0
3,35,0,24
3,38,102,0
3,38,0,47
3,40,96,0
3,40,0,53
3,40,84,19
3,40,0,12
3,40,90,12
3,40,0,56
3,40,84,19
3,40,0,10
3,40,92,13
3,40,0,50
3,40,85,21
3,40,0,24
3,43,94,0
3,43,0,24
3,40,92,0
3,40,0,26
3,38,84,0
3,38,0,45
3,40,98,1
3,40,0,58
3,40,69,14
3,40,0,14
3,40,98,12
3,40,0,50
3,40,90,21
3,40,0,14
3,40,87,11
3,40,0,47
3,40,89,23
3,40,0,24
3,33,84,0
3,33,0,24
3,35,85,0
3,35,0,27
3,38,80,0
3,38,0,43
3,40,85,3
3,40,0,48
3,40,85,23
3,40,0,12
3,40,88,12
3,40,0,51
3,40,72,21
3,40,0,12
3,40,90,12
3,40,0,49
3,40,91,23
3,40,0,24
3,43,84,0
3,43,0,24
3,40,88,0
3,40,0,24
3,38,87,0
3,38,0,47
3,40,94,0
3,40,0,55
3,40,78,18
3,40,0,11
3,40,91,13
3,40,0,55
3,40,84,19
3,40,0,15
3,40,88,9
3,40,0,49
3,40,89,23
3,40,0,24
3,33,89,0
3,33,0,24
3,35,72,0
3,35,0,25
3,38,94,0
3,38,0,44
3,40,101,3
3,40,0,50
3,40,84,22
3,40,0,13
3,40,98,11
3,40,0,49
3,40,80,23
3,40,0,13
3,40,89,11
3,40,0,45
3,40,89,25
3,40,0,24
3,43,94,0
3,43,0,25
3,40,90,0
3,40,0,23
3,38,84,0
3,38,0,47
3,40,94,2
3,40,0,49
3,40,78,20
3,40,0,11
3,40,87,13
3,40,0,60
3,40,81,13
3,40,0,13
3,40,89,11
3,40,0,54
3,40,87,18
3,40,0,22
3,33,79,3
3,33,0,23
3,35,87,0
3,35,0,24
3,38,96,0
3,38,0,31
3,38,84,18
3,38,0,24
3,40,85,0
3,40,0,17
3,40,92,7
3,40,0,12
3,40,84,12
3,40,0,10
3,40,98,14
3,40,0,47
3,38,85,0
3,38,0,25
3,40,95,0
3,40,0,3
3,38,94,16
3,38,0,18
3,40,92,5
3,40,0,13
3,40,88,11
3,40,0,12
3,40,94,12
3,40,0,10
3,40,95,14
3,40,0,45
3,38,77,1
3,38,0,25
3,40,96,0
3,40,0,4
3,38,92,13
3,38,0,22
3,40,94,2
3,40,0,14
3,40,85,10
3,40,0,11
3,40,90,14
3,40,0,10
3,40,98,13
3,40,0,46
3,38,87,1
3,38,0,25
3,40,99,0
3,40,0,2
3,38,94,17
3,38,0,24
3,40,101,0
3,40,0,13
3,40,98,11
3,40,0,10
3,40,98,15
3,40,0,9
3,40,89,13
3,40,0,49
3,38,87,0
3,38,0,24
3,40,95,0
3,40,0,37
3,40,102,180
3,40,0,59
3,40,99,15
3,40,0,13
3,40,91,9
3,40,0,50
3,40,87,20
3,40,0,10
3,40,92,13
3,40,0,56
3,40,95,17
3,40,0,24
3,33,87,0
3,33,0,24
3,35,82,0
3,35,0,24
3,38,101,0
3,38,0,47
3,40,79,0
3,40,0,64
3,40,88,10
3,40,0,12
3,40,89,11
3,40,0,58
3,40,89,14
3,40,0,13
3,40,92,12
3,40,0,50
3,40,92,22
3,40,0,24
3,33,90,0
3,33,0,26
3,35,87,0
3,35,0,25
3,38,83,0
3,38,0,42
3,40,88,2
3,40,0,57
3,40,89,18
3,40,0,11
3,40,98,12
3,40,0,51
3,40,90,20
3,40,0,13
3,40,91,11
3,40,0,46
3,40,92,25
3,40,0,25
3,33,88,0
3,33,0,26
3,35,77,0
3,35,0,23
3,38,77,0
3,38,0,44
3,40,91,2
3,40,0,57
3,40,90,17
3,40,0,11
3,40,90,13
3,40,0,49
3,40,87,22
3,40,0,11
3,40,89,13
3,40,0,48
3,40,89,23
3,40,0,25
3,43,91,0
3,43,0,24
3,40,83,0
3,40,0,24
3,38,89,0
3,38,0,44
3,40,102,5
3,40,0,59
3,40,99,15
3,40,0,13
