track,note,velocity,time
1,57,114,2480
1,62,120,6
1,65,90,384
1,72,90,0
1,69,91,0
1,74,92,0
1,65,73,44
1,72,80,0
1,69,86,0
1,74,75,0
1,74,87,112
1,65,90,0
1,72,92,0
1,69,98,0
1,72,77,36
1,69,80,0
1,74,66,0
1,65,46,0
1,72,100,124
1,74,102,0
1,69,102,0
1,65,97,0
1,57,112,172
1,62,125,192
1,74,92,316
1,65,90,0
1,69,95,0
1,72,97,0
1,72,90,40
1,74,79,0
1,69,87,0
1,65,62,0
1,65,94,116
1,74,92,0
1,69,102,0
1,72,98,0
1,69,92,44
1,72,80,0
1,65,64,0
1,74,80,0
1,74,97,120
1,72,94,0
1,69,97,0
1,65,87,0
1,55,120,216
1,60,117,190
1,71,97,352
1,67,90,0
1,76,97,0
1,67,77,44
1,71,97,0
1,76,83,0
1,67,88,116
1,71,102,0
1,76,94,0
1,71,108,44
1,67,83,0
1,76,87,0
1,71,110,120
1,67,97,0
1,76,102,0
1,55,117,166
1,60,117,12
1,64,98,368
1,72,108,0
1,67,100,0
1,67,81,36
1,72,79,0
1,64,73,2
1,64,92,116
1,67,97,0
1,72,100,0
1,64,76,44
1,67,85,0
1,72,78,0
1,67,106,120
1,64,104,0
1,72,108,0
1,57,125,182
1,62,120,8
1,72,104,386
1,65,102,0
1,69,104,0
1,74,102,0
1,72,85,36
1,65,70,0
1,69,80,0
1,74,67,0
1,65,92,120
1,72,97,0
1,74,95,0
1,69,98,0
1,72,84,46
1,69,87,0
1,74,79,0
1,65,68,0
1,72,100,122
1,74,100,0
1,65,95,0
1,69,104,0
1,57,122,172
1,62,127,194
1,65,84,352
1,72,104,0
1,74,102,0
1,69,108,0
1,72,81,40
1,65,60,0
1,69,85,0
1,74,66,0
1,72,97,120
1,69,97,0
1,74,95,0
1,65,92,0
1,72,84,40
1,65,62,0
1,69,81,0
1,74,66,0
1,72,102,128
1,74,100,0
1,69,106,0
1,65,97,0
1,55,117,196
1,60,117,0
1,71,108,376
1,76,100,0
1,67,94,0
1,67,70,40
1,71,95,0
1,76,77,0
1,67,90,120
1,71,106,0
1,76,95,0
1,71,102,36
1,67,76,0
1,76,80,0
1,76,102,116
1,71,110,0
1,67,95,0
1,55,120,140
1,60,112,20
1,64,85,340
1,67,84,0
1,72,97,2
1,72,91,36
1,64,74,2
1,67,92,0
1,64,94,110
1,67,98,0
1,72,104,0
1,64,75,38
1,72,88,0
1,67,86,0
1,72,114,124
1,67,94,0
1,64,92,0
1,57,120,96
1,62,125,24
1,65,95,380
1,72,97,0
1,74,98,0
1,69,97,0
1,65,70,36
1,69,85,0
1,74,75,0
1,72,80,4
1,74,87,124
1,65,92,0
1,69,94,0
1,72,92,0
1,65,73,48
1,69,90,0
1,72,85,0
1,74,80,0
1,69,106,128
1,72,98,0
1,65,106,0
1,74,98,0
1,57,122,182
1,62,120,194
1,72,104,324
1,69,97,0
1,65,100,0
1,74,100,0
1,74,69,38
1,65,70,0
1,69,83,0
1,72,80,2
1,74,81,134
1,65,83,0
1,69,97,0
1,72,97,0
1,69,86,52
1,65,73,0
1,72,80,0
1,74,84,0
1,69,102,128
1,72,100,0
1,65,95,0
1,74,98,0
1,55,106,144
1,60,120,196
1,76,104,352
1,71,108,0
1,67,97,0
1,67,65,36
1,71,90,0
1,76,76,0
1,67,95,128
1,76,98,0
1,71,106,0
1,67,72,44
1,71,95,0
1,76,84,0
1,71,114,128
1,76,108,0
1,67,104,0
1,55,120,188
1,60,117,12
1,64,88,368
1,72,102,0
1,67,92,0
1,67,85,44
1,64,74,0
1,72,80,0
1,64,87,136
1,72,98,0
1,67,95,0
1,64,84,48
1,67,95,0
1,72,90,0
1,64,94,116
1,67,87,0
1,72,106,0
1,57,117,152
1,62,125,194
1,65,98,360
1,69,98,0
1,72,100,0
1,74,98,0
1,65,69,44
1,72,77,0
1,69,86,0
1,74,67,0
1,65,88,128
1,72,92,0
1,74,92,0
1,69,100,0
1,65,68,56
1,69,80,0
1,74,73,0
1,72,78,0
1,65,98,120
1,69,106,0
1,72,102,0
1,74,100,0
1,57,120,162
1,62,114,16
1,72,98,352
1,65,97,0
1,69,100,0
1,74,108,0
1,72,77,32
1,74,64,0
1,69,80,0
1,65,64,0
1,74,92,132
1,72,94,0
1,69,95,0
1,65,86,0
1,69,90,52
1,65,73,0
1,74,73,0
1,72,83,0
1,65,100,116
1,69,104,0
1,72,100,0
1,74,100,0
1,55,122,178
1,60,114,0
1,76,108,360
1,67,98,0
1,71,106,0
1,71,92,28
1,76,76,0
1,67,64,2
1,71,106,124
1,67,88,0
1,76,95,0
1,71,100,44
1,67,78,0
1,76,85,0
1,67,92,124
1,71,112,0
1,76,102,0
1,55,120,160
1,60,120,16
1,72,110,356
1,64,100,0
1,67,98,0
1,64,77,48
1,67,87,0
1,72,86,0
1,64,79,124
1,72,90,0
1,67,90,0
1,64,100,8
1,67,106,0
1,72,102,0
1,72,127,76
1,48,100,0
1,71,127,24
1,47,127,0
1,57,117,10
1,60,127,0
1,64,127,0
1,57,59,102
1,64,68,0
1,60,73,0
1,64,114,152
1,57,117,0
1,60,127,0
1,57,61,96
1,64,62,0
1,60,68,0
1,64,94,140
1,57,90,0
1,60,106,0
1,57,65,100
1,64,70,0
1,60,70,0
1,57,106,128
1,64,108,0
1,60,127,0
1,57,73,88
1,60,77,0
1,64,71,2
1,64,114,128
1,55,112,0
1,60,127,0
1,60,79,92
1,64,68,0
1,55,54,2
1,60,117,122
1,64,100,0
1,55,104,2
1,60,69,84
1,64,54,0
1,55,43,4
1,64,106,132
1,55,110,0
1,60,127,0
1,60,85,108
1,55,62,0
1,64,79,0
1,64,108,128
1,55,104,0
1,60,127,0
1,55,61,84
1,64,73,0
1,60,81,0
1,64,110,136
1,57,114,0
1,60,127,0
1,60,81,102
1,64,80,0
1,57,64,2
1,57,114,136
1,64,110,0
1,60,125,0
1,64,73,102
1,60,77,0
1,57,64,4
1,64,120,138
1,57,112,0
1,60,127,0
1,57,76,100
1,64,77,0
1,60,94,0
1,64,117,138
1,57,117,0
1,60,127,0
1,64,84,96
1,57,76,0
1,60,87,0
1,55,108,136
1,64,108,0
1,60,125,0
1,55,64,104
1,64,73,0
1,60,86,2
1,64,110,140
1,55,108,0
1,60,127,0
1,64,80,108
1,60,87,2
1,55,67,0
1,64,106,136
1,55,108,0
1,60,122,0
1,60,88,108
1,64,76,2
1,55,64,0
1,55,104,140
1,64,108,0
1,60,122,0
1,64,76,100
1,60,88,0
1,55,68,0
1,64,112,136
1,57,110,0
1,60,127,0
1,64,70,110
1,60,73,0
1,57,57,2
1,64,112,142
1,57,114,0
1,60,127,0
1,57,64,96
1,60,80,0
1,64,70,0
1,64,110,136
1,60,122,0
1,57,110,0
1,64,77,104
1,57,74,0
1,60,88,0
1,57,112,124
1,60,127,0
1,64,108,0
1,60,80,94
1,57,69,0
1,64,76,0
1,55,102,126
1,64,106,0
1,60,122,0
1,64,64,86
1,60,68,0
1,55,49,2
1,64,106,122
1,55,106,0
1,60,125,0
1,60,66,88
1,55,46,4
1,64,50,0
1,55,104,124
1,60,120,0
1,64,100,0
1,55,83,92
1,64,91,0
1,60,95,0
1,64,100,84
1,55,90,0
1,60,106,0
1,55,69,72
1,60,80,0
1,64,80,0
1,62,110,100
1,59,114,0
1,55,94,0
1,43,80,0
1,55,106,44
1,62,117,0
1,59,112,0
1,59,106,24
1,55,92,0
1,62,98,0
1,43,72,44
1,55,98,0
1,59,120,0
1,62,110,0
1,55,86,120
1,59,127,20
1,62,125,0
1,55,110,0
1,55,106,48
1,59,120,0
1,62,125,0
1,72,94,420
1,65,97,0
1,74,94,0
1,69,98,0
1,65,67,44
1,69,85,0
1,72,87,0
1,74,78,0
1,65,84,116
1,74,86,0
1,72,91,0
1,69,91,0
1,65,80,44
1,72,91,0
1,69,83,0
1,74,75,0
1,65,104,116
1,69,104,0
1,72,102,0
1,74,100,0
1,72,92,452
1,69,90,0
1,65,97,0
1,74,94,0
1,72,80,28
1,69,77,0
1,74,66,0
1,65,97,120
1,74,95,0
1,72,100,0
1,69,98,0
1,72,92,42
1,65,86,0
1,69,94,0
1,74,94,0
1,74,106,102
1,65,100,0
1,72,106,0
1,69,108,0
1,67,71,572
1,76,104,0
1,71,98,0
1,67,73,48
1,71,95,0
1,76,84,0
1,76,95,120
1,67,84,0
1,71,95,0
1,67,81,48
1,71,97,0
1,76,87,0
1,76,106,108
1,67,97,0
1,71,108,0
1,64,98,536
1,67,88,0
1,72,104,0
1,64,72,32
1,67,86,0
1,72,84,0
1,67,86,118
1,72,94,0
1,64,86,2
1,64,86,46
1,67,90,0
1,72,95,0
1,64,98,104
1,67,100,0
1,72,104,0
1,74,98,458
1,69,97,0
1,65,94,2
1,72,98,0
1,72,85,44
1,74,68,0
1,65,66,0
1,69,85,0
1,65,90,120
1,72,94,0
1,74,92,0
1,69,91,0
1,72,94,46
1,74,91,0
1,65,84,2
1,69,94,0
1,65,104,114
1,69,108,0
1,72,102,0
1,74,98,0
1,74,94,464
1,72,102,0
1,65,97,0
1,69,98,0
1,69,88,44
1,65,70,0
1,72,86,0
1,74,76,0
1,65,86,120
1,72,95,0
1,74,91,0
1,69,94,0
1,69,92,52
1,72,92,0
1,65,74,0
1,74,80,0
1,65,102,116
1,72,106,0
1,74,104,0
1,69,110,0
1,67,97,444
1,71,106,0
1,76,98,0
1,71,95,48
1,76,76,0
1,67,70,0
1,67,83,114
1,76,92,0
1,71,100,0
1,71,108,50
1,67,86,0
1,76,90,0
1,76,108,114
1,67,98,0
1,71,110,0
1,72,94,468
1,67,86,0
1,64,79,2
1,72,85,38
1,64,83,2
1,67,91,0
1,64,75,100
1,72,90,0
1,67,87,0
1,67,102,56
1,64,94,0
1,72,98,0
1,67,108,114
1,72,108,0
1,64,98,0
1,65,92,508
1,72,104,0
1,74,97,0
1,69,102,0
1,69,88,42
1,65,70,0
1,72,80,0
1,74,78,0
1,65,79,122
1,69,84,0
1,72,91,0
1,74,86,0
1,65,80,48
1,72,85,0
1,69,84,0
1,74,79,0
1,65,95,122
1,72,95,0
1,69,98,0
1,74,97,0
1,74,98,436
1,72,98,0
1,65,94,0
1,69,97,0
1,65,76,44
1,72,84,0
1,74,83,0
1,69,80,0
1,72,92,112
1,65,87,0
1,69,91,0
1,74,91,0
1,74,80,40
1,72,91,2
1,65,73,2
1,69,92,0
1,65,100,104
1,72,102,0
1,74,102,0
1,69,108,0
1,71,98,524
1,67,94,0
1,76,94,0
1,67,71,40
1,71,94,0
1,76,86,0
1,76,86,108
1,67,81,0
1,71,100,0
1,67,81,56
1,71,102,0
1,76,91,0
1,76,95,104
1,67,95,0
1,71,112,0
1,64,100,628
1,72,110,0
1,67,104,0
1,64,78,44
1,67,91,0
1,72,90,0
1,72,86,104
1,67,91,0
1,64,61,2
1,64,98,48
1,67,102,0
1,72,98,0
1,48,122,112
1,72,127,0
1,71,120,24
1,47,114,0
1,64,95,38
1,60,108,0
1,57,97,0
1,60,68,104
1,57,57,2
1,64,66,0
1,57,98,144
1,64,106,0
1,60,102,0
1,57,61,106
1,64,69,0
1,60,70,0
1,57,73,122
1,60,80,0
1,64,80,0
1,64,79,102
1,57,69,0
1,60,73,0
1,64,106,132
1,57,100,0
1,60,104,0
1,64,81,100
1,57,76,0
1,60,79,0
1,64,94,118
1,60,98,0
1,55,80,0
1,60,68,100
1,64,73,2
1,55,59,0
1,55,102,140
1,60,110,0
1,64,102,2
1,55,68,114
1,64,81,0
1,60,78,0
1,55,98,130
1,64,104,0
1,60,102,0
1,60,65,104
1,64,70,0
1,55,49,4
1,64,106,140
1,55,100,0
1,60,110,0
1,64,78,100
1,55,64,0
1,60,74,0
1,64,108,132
1,57,106,0
1,60,108,0
1,64,71,112
1,57,66,0
1,60,70,0
1,64,108,134
1,57,104,0
1,60,112,0
1,60,70,90
1,64,73,2
1,57,61,2
1,57,88,128
1,60,102,0
1,64,102,2
1,64,74,104
1,57,66,0
1,60,69,0
1,64,108,140
1,57,110,0
1,60,117,0
1,60,74,96
1,64,81,0
1,57,70,2
1,64,100,130
1,55,98,0
1,60,108,0
1,60,73,100
1,55,60,2
1,64,74,0
1,64,104,146
1,55,100,0
1,60,110,0
1,64,70,100
1,55,61,0
1,60,69,0
1,64,102,132
1,55,98,0
1,60,106,0
1,55,56,92
1,64,73,0
1,60,74,0
1,64,108,144
1,60,112,0
1,55,98,0
1,60,71,96
1,64,74,0
1,55,64,2
1,57,102,132
1,64,104,0
1,60,102,0
1,60,75,98
1,64,80,0
1,57,65,2
1,64,110,140
1,57,108,0
1,60,114,0
1,64,75,92
1,60,80,0
1,57,64,2
1,64,108,128
1,57,104,0
1,60,110,0
1,60,80,92
1,57,70,2
1,64,81,0
1,64,114,134
1,57,106,0
1,60,114,0
1,64,68,88
1,60,71,0
1,57,64,2
1,64,108,130
1,55,100,0
1,60,110,0
1,64,68,84
1,55,61,0
1,60,73,0
1,64,110,124
1,55,106,0
1,60,120,0
1,60,70,84
1,55,62,2
1,64,71,0
1,64,92,112
1,55,88,0
1,60,106,0
1,55,65,88
1,64,71,0
1,60,73,0
1,55,104,116
1,64,106,0
1,60,112,0
1,60,80,86
1,64,73,0
1,55,64,2
1,55,85,110
1,62,92,0
1,59,102,0
1,62,81,52
1,59,94,0
1,55,83,0
1,55,87,36
1,59,92,0
1,62,98,0
1,62,95,40
1,59,102,2
1,55,86,0
1,55,83,40
1,59,98,0
1,62,90,0
1,60,102,104
1,57,92,0
1,53,90,0
1,53,75,24
1,57,90,0
1,60,100,0
1,57,90,100
1,53,80,0
1,60,92,0
1,57,100,48
1,53,77,0
1,60,97,0
1,57,104,116
1,60,106,0
1,53,97,0
1,52,104,110
1,55,106,0
1,59,98,0
1,60,114,78
1,53,112,2
1,57,110,0
1,57,98,38
1,53,73,0
1,60,92,0
1,57,98,106
1,53,86,0
1,60,100,0
1,57,100,46
1,53,84,0
1,60,104,0
1,57,102,94
1,53,90,0
1,60,102,0
1,52,108,100
1,55,108,0
1,59,102,0
1,53,102,126
1,57,106,0
1,60,106,0
1,57,94,44
1,53,70,0
1,60,88,0
1,60,100,116
1,57,98,0
1,53,88,0
1,57,98,44
1,60,94,0
1,53,79,0
1,60,100,80
1,57,104,0
1,53,91,0
1,52,83,88
1,55,91,0
1,59,92,0
1,59,91,46
1,55,85,0
1,52,81,0
1,59,85,90
1,52,80,0
1,55,88,0
1,52,90,36
1,59,94,0
1,55,91,0
1,59,95,74
1,52,88,0
1,55,98,0
1,60,97,76
1,57,98,0
1,53,83,0
1,57,98,44
1,60,94,0
1,53,80,2
1,57,98,84
1,60,74,2
1,53,77,0
1,60,98,54
1,53,90,0
1,57,106,0
1,53,100,84
1,57,108,0
1,60,102,0
1,52,91,94
1,55,98,0
1,59,98,0
1,52,80,42
1,59,94,0
1,55,88,0
1,52,65,96
1,55,84,0
1,59,86,0
1,59,102,56
1,55,104,0
1,52,94,0
1,52,88,60
1,55,91,0
1,59,91,0
1,62,114,62
1,57,106,0
1,54,101,0
1,55,102,318
1,62,104,0
1,59,100,0
1,59,90,40
1,62,87,0
1,55,73,0
1,55,95,100
1,62,98,0
1,59,106,0
1,59,98,40
1,62,94,0
1,55,78,0
1,55,98,100
1,62,112,0
1,59,114,0
1,57,100,72
1,61,91,0
1,54,93,0
1,55,94,48
1,62,110,0
1,59,100,0
1,59,104,44
1,62,97,0
1,55,87,0
1,55,79,98
1,62,90,0
1,59,100,0
1,62,102,58
1,59,102,0
1,55,86,0
1,59,104,100
1,62,110,0
1,55,91,0
1,57,110,80
1,54,104,0
1,61,104,0
1,62,106,62
1,55,81,2
1,59,100,0
1,62,97,48
1,59,95,0
1,55,81,0
1,59,114,116
1,62,100,2
1,55,80,2
1,59,95,46
1,62,84,0
1,55,77,0
1,55,92,96
1,62,100,0
1,59,102,0
1,61,73,56
1,57,86,0
1,54,87,2
