track,note,velocity,time
1,45,91,1344
1,52,82,192
1,45,0,163
1,57,78,20
1,52,0,3
1,44,63,189
1,44,0,42
1,42,94,4
1,57,0,55
1,49,81,126
1,49,0,185
1,54,68,7
1,42,0,13
1,40,86,179
1,54,0,22
1,40,0,129
1,38,87,41
1,54,64,112
1,54,0,129
1,57,77,63
1,62,86,0
1,57,0,139
1,62,0,11
1,38,0,25
1,54,65,17
1,54,0,168
1,40,86,24
1,47,81,120
1,59,86,192
1,47,0,21
1,59,0,145
1,52,66,26
1,40,0,44
1,45,85,148
1,52,0,17
1,52,81,106
1,52,0,164
1,57,81,28
1,45,0,14
1,44,71,178
1,44,0,77
1,42,85,15
1,57,0,55
1,49,72,71
1,49,0,146
1,54,66,46
1,42,0,55
1,40,85,137
1,54,0,2
1,40,0,160
1,38,80,30
1,57,73,123
1,57,0,112
1,57,71,80
1,62,86,0
1,38,0,130
1,62,0,6
1,57,0,22
1,54,58,34
1,54,0,102
1,40,55,90
1,52,82,108
1,40,0,179
1,59,82,13
1,52,0,2
1,59,0,185
1,52,61,5
1,52,0,162
1,45,86,17
1,52,78,117
1,52,0,160
1,57,90,32
1,45,0,46
1,45,78,146
1,45,0,65
1,45,73,127
1,57,0,31
1,52,77,161
1,52,0,117
1,45,0,68
1,57,70,7
1,59,68,0
1,45,76,192
1,45,0,64
1,45,58,11
1,57,64,26
1,59,72,34
1,57,0,28
1,61,61,1
1,59,0,14
1,64,85,33
1,61,0,227
1,59,0,3
1,57,0,23
1,64,0,0
1,45,0,13
1,52,86,12637
1,57,112,96
1,52,0,8
1,59,85,88
1,57,0,8
1,61,93,88
1,59,0,31
1,52,93,65
1,61,0,5
1,57,85,283
1,52,0,413
1,57,0,72
1,54,91,3
1,57,93,87
1,61,87,192
1,57,0,57
1,54,0,36
1,54,91,66
1,61,0,45
1,54,0,53
1,52,106,94
1,57,88,88
1,61,86,192
1,52,0,19
1,57,0,12
1,61,0,144
1,52,97,17
1,52,0,86
1,50,98,106
1,52,76,0
1,52,0,10
1,57,87,120
1,61,92,192
1,57,0,38
1,50,0,45
1,61,0,89
1,50,94,20
1,50,0,94
1,52,99,98
1,56,92,152
1,52,0,37
1,59,93,59
1,56,0,56
1,59,0,37
2,64,52,9
2,59,53,2
2,61,45,2
2,45,55,3
2,42,38,10
2,45,0,5
2,61,0,88
2,59,0,0
2,64,0,3
2,42,0,27
2,50,45,105
2,57,45,2
2,54,30,2
2,62,48,2
2,57,0,51
2,50,0,9
2,54,0,2
2,62,0,5
2,56,30,304
2,52,51,5
2,59,46,1
2,64,44,3
2,52,0,69
2,59,0,7
2,56,0,4
2,64,0,0
2,59,45,288
2,64,48,2
2,45,46,2
2,61,45,2
2,42,33,770
2,45,0,12
2,59,0,79
2,64,0,6
2,61,0,1
2,42,0,6
2,57,32,306
2,66,36,2
2,61,44,3
2,50,55,2
2,57,0,65
2,66,0,21
2,50,0,0
2,61,0,4
2,59,32,262
2,68,35,6
2,52,55,7
2,64,44,2
2,64,0,66
2,52,0,2
2,68,0,10
2,59,0,13
2,64,28,242
2,59,33,9
2,61,39,3
2,45,55,5
2,69,36,15
2,69,0,56
2,45,0,7
2,59,0,2
2,61,0,1
2,64,0,0
2,61,55,218
2,73,52,2
2,76,57,198
2,64,51,1
2,73,0,16
2,61,0,2
2,73,48,180
2,85,55,1
2,64,0,1
2,76,0,6
2,83,61,24
2,71,61,12
2,85,0,0
2,73,0,2
2,81,52,650
2,69,46,4
2,71,0,14
2,83,0,8
2,81,0,1581
2,69,0,13
2,64,52,2
2,73,50,1
2,57,45,5
2,71,48,24
2,68,32,15
2,73,0,4
2,73,42,733
2,68,0,19
2,71,0,10
2,71,61,1128
2,56,51,7
2,57,0,17
2,73,0,3
2,69,58,354
2,71,0,15
2,54,34,4
2,56,0,2
2,68,62,747
2,52,57,1
2,69,0,9
2,54,0,8
2,64,0,701
2,66,55,56
2,50,55,2
2,62,53,4
2,52,0,8
2,68,0,8
2,62,0,654
2,68,57,75
2,64,57,6
2,52,66,2
2,50,0,9
2,66,0,10
2,52,0,618
2,64,0,1
2,68,0,3
2,45,53,9369
2,52,63,4
2,61,56,2
2,62,68,1138
2,54,46,4
2,52,0,13
2,61,0,4
2,61,42,336
2,62,0,12
2,52,63,4
2,54,0,6
2,64,65,18
2,64,0,1118
2,59,65,13
2,44,53,9
2,61,0,15
2,45,0,1
2,42,46,363
2,54,53,3
2,57,66,6
2,59,0,2
2,44,0,2
2,52,0,17
2,61,67,739
2,52,35,3
2,40,51,7
2,57,0,3
2,42,0,18
2,62,56,731
2,61,0,7
2,38,56,2
2,57,62,5
2,40,0,2
2,52,0,2
2,57,0,697
2,62,0,35
2,52,40,27
2,40,62,11
2,56,67,5
2,80,57,0
2,38,0,6
2,54,0,18
2,54,55,255
2,81,57,1
2,42,53,1
2,57,62,2
2,56,0,2
2,40,0,3
2,80,0,1
2,52,0,22
2,83,57,238
2,56,55,9
2,59,57,2
2,42,0,2
2,44,50,6
2,81,0,0
2,57,0,6
2,54,0,5
2,59,0,130
2,52,33,11
2,56,0,2
2,85,57,17
2,83,0,20
2,61,51,5
2,45,45,2
2,57,37,1
2,44,0,4
2,57,0,683
2,59,56,62
2,83,57,1
2,56,55,1
2,85,0,27
2,61,0,4
2,59,0,717
2,57,52,20
2,61,46,7
2,81,57,3
2,83,0,22
2,56,0,59
2,59,55,677
2,57,0,4
2,56,45,5
2,49,56,2
2,80,57,4
2,45,0,5
2,61,0,1
2,81,0,22
2,56,0,647
2,59,0,36
2,61,44,1
2,54,43,28
2,57,38,4
2,52,0,3
2,78,57,5
2,42,36,9
2,80,0,17
2,49,0,3
2,54,0,673
2,40,48,60
2,52,42,7
2,76,57,3
2,57,0,0
2,56,65,1
2,42,0,3
2,78,0,8
2,52,0,641
2,56,0,11
2,62,57,93
2,57,46,1
2,78,57,1
2,54,44,3
2,38,28,2
2,50,21,2
2,40,0,5
2,61,0,6
2,76,0,18
2,38,0,656
2,54,0,28
2,50,0,15
2,62,0,7
2,40,41,19
2,64,55,2
2,59,61,7
2,80,57,6
2,56,51,2
2,57,0,20
2,78,0,4
2,81,57,742
2,61,51,5
2,45,55,5
2,40,0,2
2,80,0,4
2,57,53,3
2,56,0,5
2,59,0,1
2,81,0,1127
2,45,0,42
2,61,0,27
2,64,0,14
2,57,0,0
2,68,61,4157
2,52,51,3
2,64,57,3
2,66,52,297
2,54,55,2
2,69,65,2
2,52,0,2
2,68,0,1
2,64,0,22
2,69,0,228
2,68,57,3
2,56,52,8
2,54,0,4
2,71,47,4
2,66,0,36
2,68,0,41
2,71,0,9
2,56,0,15
2,57,46,65
2,69,39,3
2,64,35,4
2,73,45,5
2,69,0,112
2,64,0,12
2,73,0,4
2,57,0,6
2,71,39,242
2,68,48,7
2,59,55,2
2,64,29,0
2,71,0,680
2,59,0,36
2,69,50,12
2,73,50,5
2,68,0,5
2,57,50,42
2,69,0,191
2,73,0,60
2,57,0,54
2,71,56,44
2,68,50,4
2,61,42,7
2,61,0,89
2,68,0,19
2,71,0,2
2,64,0,3
2,54,37,269
2,66,41,1
2,73,38,3
2,69,57,2
2,64,35,2
2,66,0,95
2,54,0,21
2,69,0,5
2,64,0,7
2,73,0,6
2,52,56,263
2,64,40,2
2,68,55,2
2,73,38,1
2,68,0,73
2,64,0,77
2,52,0,6
2,73,0,6
2,50,63,49
2,66,48,2
2,69,61,2
2,64,40,3
2,69,0,119
2,50,0,0
2,66,0,23
2,64,0,15
2,64,32,212
2,68,52,6
2,52,58,2
2,71,46,10
2,71,0,1437
2,68,0,28
2,52,0,2
2,64,0,8
2,66,65,1573
2,47,66,2
2,61,66,2
2,63,67,1
2,44,73,748
2,47,0,14
2,63,0,109
2,61,0,3
2,66,0,8
2,44,0,11
2,64,66,240
2,68,62,2
2,59,57,1
2,52,60,4
2,40,53,1
2,40,0,69
2,64,0,2
2,59,0,13
2,52,0,4
2,68,0,7
2,66,57,249
2,70,58,2
2,61,51,2
2,54,45,1
2,66,0,55
2,70,0,4
2,61,0,12
2,54,0,11
2,66,58,267
2,61,63,2
2,47,61,1
2,63,65,2
2,44,52,770
2,47,0,4
2,63,0,62
2,61,0,6
2,66,0,1
2,44,0,24
2,68,62,161
2,61,57,1
2,49,58,2
2,59,56,3
2,64,68,1
2,64,0,94
2,68,0,5
2,61,0,6
2,59,0,1
2,49,0,3
2,66,66,216
2,59,67,2
2,61,63,2
2,42,56,2
2,59,0,306
2,58,68,69
2,63,66,382
2,47,65,7
2,58,0,2
2,42,0,16
2,44,58,747
2,47,0,14
2,63,0,57
2,61,0,2
2,66,0,2
2,44,0,36
2,68,58,173
2,59,53,3
2,52,63,2
2,64,66,2
2,64,0,92
2,59,0,0
2,68,0,11
2,52,0,5
2,70,48,266
2,61,50,8
2,54,51,2
2,66,62,2
2,82,58,5
2,83,58,275
2,82,0,14
2,54,0,117
2,85,58,150
2,83,0,18
2,66,0,152
2,61,0,12
2,83,58,11
2,66,63,1
2,63,51,3
2,61,56,1
2,85,0,6
2,47,67,2
2,70,0,112
2,61,0,644
2,47,0,2
2,59,68,1
2,44,55,2
2,85,58,194
2,83,0,12
2,87,58,194
2,85,0,20
2,83,58,153
2,87,0,9
2,63,0,30
2,44,0,1
2,66,0,6
2,59,0,59
2,88,58,86
2,49,63,5
2,68,65,5
2,64,71,2
2,61,66,1
2,59,55,3
2,83,0,5
2,49,0,278
2,64,0,56
2,68,0,8
2,61,0,30
2,66,70,3
2,63,72,1
2,88,0,171
2,85,58,10
2,66,0,81
2,63,0,22
2,68,71,16
2,59,71,2
2,64,72,1
2,85,0,1
2,90,58,18
2,59,0,295
2,59,0,15
2,68,0,4
2,66,56,6
2,64,0,8
2,70,56,6
2,61,72,18
2,85,58,21
2,90,0,32
2,59,76,335
2,87,73,1
2,47,74,1
2,54,76,1
2,70,0,1
2,63,70,1
2,66,0,0
2,61,0,1
2,85,0,11
2,47,0,743
2,56,74,12
2,44,78,2
2,54,0,21
2,90,73,361
2,87,0,22
2,95,63,348
2,40,65,7
2,44,0,2
2,52,74,5
2,90,0,1
2,52,0,699
2,59,0,1
2,63,0,40
2,56,0,5
2,40,0,9
2,85,67,13
2,58,65,4
2,42,63,4
2,54,66,5
2,95,0,16
2,56,66,167
2,59,66,5
2,44,86,2
2,54,0,3
2,58,0,8
2,42,0,8
2,59,0,152
2,58,73,11
2,94,57,5
2,61,71,5
2,46,68,1
2,44,0,12
2,56,0,8
2,85,0,1
2,58,0,325
2,61,0,1
2,47,72,20
2,54,43,1
2,90,57,5
2,59,78,0
2,63,67,4
2,46,0,10
2,94,0,38
2,47,0,695
2,44,51,8
2,56,67,5
2,54,0,16
2,87,64,392
2,90,0,16
2,83,53,167
2,87,0,34
2,40,62,152
2,44,0,6
2,52,63,4
2,80,63,2
2,83,0,12
2,52,0,594
2,59,0,9
2,63,0,107
2,56,0,23
2,42,53,13
2,58,68,4
2,54,66,2
2,66,55,2
2,40,0,2
2,80,0,1
2,56,66,256
2,44,58,4
2,59,67,3
2,58,0,2
2,42,0,5
2,68,53,3
2,54,0,12
2,66,0,4
2,68,0,257
2,70,52,3
2,59,0,15
2,46,57,1
2,61,63,2
2,58,61,1
2,44,0,9
2,56,0,14
2,61,0,1270
2,46,0,2
2,58,0,1
2,70,0,88
2,68,61,10
2,52,42,0
2,40,34,2
2,59,51,1
2,40,0,0
2,52,0,1
2,59,0,131
2,68,0,17
2,51,37,924
2,66,37,3
2,61,41,3
2,63,41,2
2,63,0,115
2,61,0,0
2,51,0,1
2,66,0,2
2,42,37,857
2,54,45,5
2,56,44,4
2,64,44,1
2,59,44,2
2,56,0,94
2,64,0,1
2,59,0,2
2,54,0,0
2,42,0,3
2,66,46,1
2,61,43,30
2,54,44,10
2,58,39,7
2,54,0,66
2,66,0,0
2,61,0,6
2,58,0,1
2,66,37,7
2,61,38,8
2,47,46,2
2,63,35,9
2,61,0,38
2,66,0,0
2,47,0,2
2,63,0,1
3,64,99,19
3,73,87,0
3,73,0,87
3,64,0,6
3,71,92,99
3,71,0,62
3,69,80,34
3,69,0,75
3,68,91,21
3,68,0,88
3,69,78,8
3,69,0,75
3,64,88,21
3,64,0,38
3,64,85,126
3,38,85,26
3,69,73,0
3,66,85,18
3,64,0,16
3,45,77,136
3,38,0,2
3,45,0,182
3,52,83,8
3,52,0,159
3,66,0,2
3,69,0,18
3,54,76,13
3,64,92,192
3,73,82,0
3,64,0,86
3,73,0,12
3,71,85,94
3,54,0,5
3,71,0,65
3,69,75,26
3,69,0,91
3,68,71,5
3,68,0,90
3,69,68,6
3,69,0,29
3,64,85,67
3,64,0,80
3,66,75,16
3,66,0,54
3,49,72,42
3,59,78,0
3,61,67,0
3,64,82,0
3,68,82,0
3,49,0,73
3,52,82,222
3,52,0,178
3,57,88,14
3,59,0,14
3,64,0,5
3,61,0,2
3,68,0,19
3,64,92,152
3,73,83,0
3,64,0,123
3,73,0,1
3,71,85,68
3,57,0,51
3,71,0,37
3,69,85,8
3,69,0,83
3,68,71,13
3,69,85,96
3,68,0,14
3,69,0,20
3,62,91,62
3,64,93,96
3,62,0,14
3,64,0,70
3,47,88,12
3,54,67,0
3,57,86,0
3,62,88,0
3,66,80,0
3,62,0,60
3,66,0,13
3,57,0,79
3,54,0,67
3,57,94,27
3,47,0,106
3,57,0,41
3,59,85,45
3,59,0,66
3,40,77,126
3,57,85,0
3,61,90,0
3,64,88,0
3,64,0,112
3,61,0,13
3,57,0,17
3,52,87,178
3,57,85,0
3,62,93,0
3,66,87,0
3,40,0,2
3,62,0,113
3,66,0,9
3,52,0,6
3,57,0,26
3,59,70,131
3,45,75,23
3,57,70,0
3,61,85,0
3,64,85,0
3,59,0,29
3,61,0,170
3,45,0,8
3,64,0,3
3,57,0,20
3,45,77,181
3,57,98,0
3,62,99,0
3,66,86,0
3,62,0,85
3,66,0,11
3,57,0,17
3,45,0,10
3,59,86,155
3,45,76,14
3,57,62,0
3,64,77,0
3,61,78,20
3,59,0,24
3,61,0,1449
3,64,0,3
3,45,0,1
3,57,0,23
3,57,82,3068
3,45,78,2
3,64,93,2
3,61,73,17
3,45,0,82
3,45,66,104
3,57,0,12
3,64,0,5
3,61,0,13
3,64,96,155
3,59,91,2
3,56,86,2
3,45,0,213
3,56,0,284
3,59,0,6
3,64,0,9
3,61,85,253
3,57,80,2
3,45,81,2
3,64,88,2
3,45,0,152
3,57,0,320
3,61,0,10
3,64,0,14
3,57,65,501
3,64,64,94
3,57,0,9
3,64,0,74
3,69,87,19
3,73,88,91
3,69,0,2
3,54,75,93
3,64,83,4
3,69,87,2
3,66,80,1
3,69,0,55
3,66,0,13
3,64,0,7
3,73,0,6
3,54,0,7
3,69,90,100
3,66,75,2
3,64,82,1
3,73,70,2
3,66,0,43
3,69,0,19
3,64,0,10
3,73,0,61
3,73,78,65
3,68,82,3
3,64,78,2
3,68,0,190
3,73,0,1
3,64,0,6
3,69,92,320
3,62,87,2
3,64,85,1
3,50,86,2
3,66,77,5
3,64,0,31
3,50,0,142
3,62,0,26
3,62,76,63
3,69,0,0
3,66,0,7
3,62,0,75
3,66,61,97
3,66,0,68
3,68,96,137
3,71,93,2
3,64,90,1
3,71,0,250
3,68,0,26
3,64,0,18
3,52,96,6510
3,61,103,2
3,57,91,2
3,45,91,4
3,45,0,108
3,45,70,107
3,57,0,8
3,61,0,2
3,52,0,11
3,45,0,14
3,61,68,146
3,52,76,2
3,57,65,1
3,45,74,2
3,52,0,46
3,61,0,16
3,54,85,5
3,62,94,1
3,62,0,110
3,57,0,10
3,54,0,8
3,62,91,70
3,57,81,1
3,54,78,3
3,54,0,161
3,62,0,0
3,57,0,1
3,45,0,14
3,57,80,201
3,45,75,3
3,61,75,1
3,52,83,2
3,45,0,578
3,57,0,4
3,52,0,5
3,61,0,3
3,40,74,44
3,61,83,5
3,57,79,2
3,52,88,2
3,57,0,92
3,61,0,2
