track,note,velocity,time
1,35,99,6695
1,35,0,5
1,40,102,0
1,40,0,1735
1,35,95,20
1,35,0,190
1,38,98,0
1,38,0,235
1,39,103,0
1,39,0,245
1,40,90,0
1,40,0,325
1,40,91,45
1,40,0,65
1,40,91,50
1,40,0,270
1,40,77,85
1,40,0,45
1,40,90,75
1,40,0,250
1,40,84,110
1,40,0,5
1,35,74,0
1,35,0,180
1,38,99,0
1,38,0,235
1,40,92,0
1,40,0,315
1,40,81,50
1,40,0,70
1,40,84,50
1,40,0,315
1,40,74,55
1,40,0,65
1,40,75,50
1,40,0,260
1,40,64,90
1,40,0,100
1,43,79,20
1,43,0,125
1,40,79,0
1,40,0,120
1,38,94,0
1,38,0,235
1,40,91,0
1,40,0,310
1,40,70,50
1,40,0,70
1,40,79,50
1,40,0,315
1,40,69,55
1,40,0,60
1,40,87,55
1,40,0,250
1,40,84,105
1,40,0,5
1,35,83,5
1,35,0,155
1,38,92,0
1,38,0,235
1,40,87,0
1,40,0,320
1,40,74,45
1,40,0,70
1,40,84,50
1,40,0,300
1,40,77,70
1,40,0,60
1,40,90,60
1,40,0,230
1,40,83,120
1,40,0,10
1,35,87,0
1,35,0,170
1,38,88,0
1,38,0,240
1,40,91,0
1,40,0,305
1,40,84,60
1,40,0,60
1,40,85,55
1,40,0,310
1,40,78,65
1,40,0,70
1,40,89,50
1,40,0,230
1,40,74,115
1,40,0,110
1,33,98,15
1,33,0,120
1,35,76,0
1,35,0,130
1,38,89,0
1,38,0,240
1,40,98,5
1,40,0,250
1,40,72,100
1,40,0,55
1,40,91,60
1,40,0,285
1,40,74,85
1,40,0,55
1,40,94,65
1,40,0,220
1,40,92,125
1,40,0,125
1,43,94,0
1,43,0,125
1,40,90,0
1,40,0,110
1,38,82,5
1,38,0,240
1,40,89,0
1,40,0,275
1,40,71,85
1,40,0,50
1,40,99,70
1,40,0,280
1,40,75,90
1,40,0,55
1,40,95,65
1,40,0,210
1,40,96,140
1,40,0,120
1,33,85,0
1,33,0,120
1,35,83,0
1,35,0,125
1,38,95,0
1,38,0,235
1,40,88,5
1,40,0,265
1,40,82,100
1,40,0,55
1,40,95,65
1,40,0,260
1,40,84,90
1,40,0,65
1,40,98,65
1,40,0,235
1,40,96,115
1,40,0,120
1,33,90,0
1,33,0,120
1,35,72,0
1,35,0,115
1,38,92,0
1,38,0,245
1,40,89,0
1,40,0,270
1,40,83,90
1,40,0,55
1,40,91,65
1,40,0,280
1,40,85,80
1,40,0,70
1,40,91,60
1,40,0,220
1,40,94,130
1,40,0,120
1,43,95,0
1,43,0,120
1,40,96,0
1,40,0,115
1,38,85,5
1,38,0,240
1,40,91,0
1,40,0,265
1,40,70,95
1,40,0,45
1,40,99,75
1,40,0,280
1,40,82,85
1,40,0,70
1,40,94,55
1,40,0,250
1,40,84,100
1,40,0,120
1,33,92,0
1,33,0,125
1,35,83,0
1,35,0,125
1,38,85,0
1,38,0,210
1,40,95,20
1,40,0,260
1,40,84,100
1,40,0,60
1,40,94,60
1,40,0,265
1,40,84,95
1,40,0,65
1,40,89,55
1,40,0,245
1,40,101,125
1,40,0,125
1,43,89,0
1,43,0,120
1,40,98,0
1,40,0,105
1,38,94,10
1,38,0,230
1,40,96,0
1,40,0,245
1,40,63,115
1,40,0,55
1,40,94,65
1,40,0,275
1,40,77,90
1,40,0,60
1,40,90,65
1,40,0,205
1,40,89,145
1,40,0,120
1,33,91,0
1,33,0,120
1,35,77,0
1,35,0,120
1,38,96,0
1,38,0,220
1,40,96,15
1,40,0,295
1,40,95,80
1,40,0,85
1,40,89,35
1,40,0,215
1,40,77,130
1,40,0,55
1,40,85,65
1,40,0,270
1,40,89,90
1,40,0,115
1,33,83,0
1,33,0,130
1,35,83,0
1,35,0,120
1,38,84,0
1,38,0,225
1,40,96,15
1,40,0,260
1,40,87,105
1,40,0,65
1,40,89,60
1,40,0,255
1,40,88,95
1,40,0,65
1,40,84,55
1,40,0,225
1,40,95,135
1,40,0,120
1,43,83,0
1,43,0,120
1,40,94,0
1,40,0,120
1,38,69,0
1,38,0,235
1,40,94,0
1,40,0,285
1,40,69,75
1,40,0,55
1,40,90,70
1,40,0,280
1,40,77,85
1,40,0,70
1,40,94,55
1,40,0,225
1,40,84,120
1,40,0,120
1,33,90,0
1,33,0,125
1,35,72,0
1,35,0,110
1,38,84,0
1,38,0,245
1,40,88,0
1,40,0,290
1,40,79,80
1,40,0,65
1,40,92,60
1,40,0,225
1,40,73,125
1,40,0,60
1,40,91,60
1,40,0,245
1,40,89,120
1,40,0,115
1,33,80,0
1,33,0,120
1,35,85,0
1,35,0,120
1,38,91,0
1,38,0,220
1,40,102,20
1,40,0,285
1,40,75,85
1,40,0,60
1,40,91,60
1,40,0,255
1,40,77,100
1,40,0,65
1,40,91,60
1,40,0,240
1,40,85,110
1,40,0,115
1,33,87,5
1,33,0,125
1,35,77,0
1,35,0,115
1,38,83,0
1,38,0,240
1,40,88,0
1,40,0,280
1,40,74,90
1,40,0,60
1,40,95,60
1,40,0,240
1,40,77,110
1,40,0,65
1,40,92,65
1,40,0,260
1,40,88,90
1,40,0,120
1,33,93,0
1,33,0,120
1,35,95,0
1,35,0,130
1,38,101,0
1,38,0,230
1,40,89,0
1,40,0,265
1,40,85,100
1,40,0,70
1,40,96,55
1,40,0,250
1,40,77,110
1,40,0,65
1,40,89,55
1,40,0,235
1,40,89,115
1,40,0,120
1,33,85,0
1,33,0,125
1,35,81,0
1,35,0,125
1,38,91,0
1,38,0,225
1,40,90,0
1,40,0,275
1,40,89,90
1,40,0,60
1,40,89,65
1,40,0,275
1,40,82,90
1,40,0,65
1,40,89,55
1,40,0,225
1,40,89,125
1,40,0,120
1,43,94,0
1,43,0,130
1,40,95,0
1,40,0,110
1,38,84,0
1,38,0,240
1,40,98,0
1,40,0,285
1,40,72,90
1,40,0,65
1,40,92,55
1,40,0,240
1,40,79,115
1,40,0,60
1,40,84,65
1,40,0,205
1,40,96,145
1,40,0,120
1,33,82,0
1,33,0,125
1,35,77,0
1,35,0,125
1,38,94,0
1,38,0,235
1,40,96,0
1,40,0,245
1,40,84,105
1,40,0,65
1,40,90,60
1,40,0,265
1,40,84,95
1,40,0,80
1,40,95,45
1,40,0,235
1,40,89,120
1,40,0,120
1,33,84,0
1,33,0,120
1,35,74,0
1,35,0,115
1,38,91,0
1,38,0,240
1,40,91,0
1,40,0,265
1,40,77,95
1,40,0,60
1,40,85,70
1,40,0,240
1,40,77,110
1,40,0,65
1,40,89,65
1,40,0,250
1,40,84,110
1,40,0,110
1,33,89,0
1,33,0,130
1,35,79,0
1,35,0,120
1,38,82,0
1,38,0,230
1,40,80,0
1,40,0,235
1,40,79,120
1,40,0,60
1,40,92,65
1,40,0,265
1,40,83,95
1,40,0,75
1,40,94,55
1,40,0,230
1,40,90,115
1,40,0,125
1,33,84,0
1,33,0,120
1,35,75,0
1,35,0,120
1,38,88,0
1,38,0,235
1,40,82,0
1,40,0,265
1,40,74,95
1,40,0,70
1,40,84,50
1,40,0,295
1,40,94,80
1,40,0,85
1,40,91,40
1,40,0,195
1,40,78,145
1,40,0,125
1,33,87,0
1,33,0,120
1,35,76,0
1,35,0,120
1,38,88,0
1,38,0,245
1,40,90,0
1,40,0,265
1,40,84,90
1,40,0,70
1,40,83,50
1,40,0,265
1,40,81,95
1,40,0,75
1,40,96,45
1,40,0,225
1,40,81,130
1,40,0,125
1,33,85,0
1,33,0,120
1,35,83,0
1,35,0,130
1,38,94,0
1,38,0,220
1,40,101,10
1,40,0,255
1,40,80,105
1,40,0,70
1,40,91,60
1,40,0,265
1,40,83,95
1,40,0,95
1,40,77,35
1,40,0,210
1,40,87,130
1,40,0,110
1,33,72,15
1,33,0,125
1,35,88,0
1,35,0,125
1,38,96,0
1,38,0,225
1,40,92,0
1,40,0,250
1,40,78,110
1,40,0,50
1,40,96,70
1,40,0,255
1,40,76,105
1,40,0,80
1,40,74,40
1,40,0,255
1,40,88,100
1,40,0,120
1,43,92,0
1,43,0,125
1,40,88,0
1,40,0,115
1,38,79,0
1,38,0,235
1,40,101,5
1,40,0,320
1,40,81,60
1,40,0,50
1,40,95,65
1,40,0,255
1,40,91,105
1,40,0,70
1,40,96,45
1,40,0,230
1,40,85,120
1,40,0,125
1,33,89,0
1,33,0,120
1,35,77,0
1,35,0,120
1,38,99,0
1,38,0,235
1,40,94,0
1,40,0,305
1,40,78,65
1,40,0,50
1,40,89,65
1,40,0,290
1,40,87,80
1,40,0,70
1,40,98,50
1,40,0,245
1,40,88,115
1,40,0,110
1,43,95,0
1,43,0,120
1,40,91,0
1,40,0,130
1,38,85,0
1,38,0,230
1,40,101,0
1,40,0,270
1,40,78,90
1,40,0,50
1,40,102,70
1,40,0,285
1,40,85,85
1,40,0,65
1,40,96,55
1,40,0,215
1,40,87,130
1,40,0,125
1,33,84,0
1,33,0,120
1,35,80,0
1,35,0,115
1,38,90,0
1,38,0,240
1,40,96,0
1,40,0,300
1,40,83,75
1,40,0,55
1,40,92,65
1,40,0,260
1,40,84,90
1,40,0,60
1,40,102,60
1,40,0,245
1,40,84,115
1,40,0,125
1,33,99,0
1,33,0,125
1,35,82,0
1,35,0,110
1,38,104,0
1,38,0,240
1,40,84,0
1,40,0,290
1,40,85,80
1,40,0,65
1,40,98,55
1,40,0,275
1,40,88,85
1,40,0,60
1,40,95,60
1,40,0,225
1,40,90,125
1,40,0,130
1,33,84,0
1,33,0,120
1,35,74,0
1,35,0,110
1,38,70,0
1,38,0,235
1,40,88,0
1,40,0,280
1,40,85,85
1,40,0,65
1,40,92,55
1,40,0,260
1,40,83,105
1,40,0,75
1,40,84,50
1,40,0,235
1,40,89,115
1,40,0,120
1,43,101,0
1,43,0,130
1,40,94,0
1,40,0,120
1,38,81,0
1,38,0,230
1,40,96,0
1,40,0,270
1,40,84,90
1,40,0,60
1,40,88,60
1,40,0,245
1,40,98,110
1,40,0,65
1,40,108,70
1,40,0,260
1,40,85,100
1,40,0,110
1,33,91,0
1,33,0,130
1,35,84,0
1,35,0,120
1,38,104,0
1,38,0,240
1,40,101,0
1,40,0,240
1,40,84,110
1,40,0,65
1,40,91,55
1,40,0,285
1,40,90,85
1,40,0,70
1,40,96,50
1,40,0,215
1,40,90,135
1,40,0,105
1,43,94,10
1,43,0,125
1,40,95,0
1,40,0,120
1,38,90,0
1,38,0,240
1,40,95,0
1,40,0,265
1,40,82,90
1,40,0,60
1,40,85,60
1,40,0,260
1,40,87,105
1,40,0,70
1,40,96,50
1,40,0,250
1,40,98,115
1,40,0,125
1,33,85,0
1,33,0,120
1,35,78,0
1,35,0,120
1,38,102,0
1,38,0,240
1,40,87,0
1,40,0,270
1,40,91,85
1,40,0,55
1,40,92,65
1,40,0,265
1,40,85,90
1,40,0,50
1,40,92,70
1,40,0,265
1,40,91,95
1,40,0,125
1,43,95,0
1,43,0,120
1,40,87,5
1,40,0,110
1,38,87,0
1,38,0,240
1,40,91,0
1,40,0,255
1,40,85,105
1,40,0,50
1,40,101,65
1,40,0,250
1,40,81,115
1,40,0,70
1,40,90,55
1,40,0,240
1,40,92,115
1,40,0,120
1,33,87,0
1,33,0,130
1,35,84,0
1,35,0,110
1,38,85,0
1,38,0,240
1,40,98,0
1,40,0,275
1,40,99,95
1,40,0,50
1,40,94,70
1,40,0,265
1,40,84,90
1,40,0,60
1,40,88,65
1,40,0,235
1,40,92,115
1,40,0,115
1,43,94,5
1,43,0,120
1,40,92,0
1,40,0,120
1,38,84,0
1,38,0,235
1,40,96,0
1,40,0,260
1,40,77,100
1,40,0,50
1,40,95,70
1,40,0,280
1,40,95,85
1,40,0,70
1,40,92,60
1,40,0,230
1,40,99,120
1,40,0,120
1,33,84,0
1,33,0,120
1,35,74,0
1,35,0,120
1,38,104,0
1,38,0,225
1,40,98,10
1,40,0,280
1,40,83,95
1,40,0,45
1,40,92,70
1,40,0,240
1,40,90,120
1,40,0,75
1,40,98,45
1,40,0,240
1,40,80,125
1,40,0,110
1,33,95,0
1,33,0,120
1,35,77,0
1,35,0,120
1,38,102,0
1,38,0,235
1,40,96,0
1,40,0,265
1,40,84,95
1,40,0,60
1,40,90,60
1,40,0,280
1,40,84,95
1,40,0,50
1,40,92,65
1,40,0,250
1,40,85,105
1,40,0,120
1,43,94,0
1,43,0,120
1,40,92,0
1,40,0,130
1,38,84,0
1,38,0,225
1,40,98,5
1,40,0,290
1,40,69,70
1,40,0,70
1,40,98,60
1,40,0,250
1,40,90,105
1,40,0,70
1,40,87,55
1,40,0,235
1,40,89,115
1,40,0,120
1,33,84,0
1,33,0,120
1,35,85,0
1,35,0,135
1,38,80,0
1,38,0,215
1,40,85,15
1,40,0,240
1,40,85,115
1,40,0,60
1,40,88,60
1,40,0,255
1,40,72,105
1,40,0,60
1,40,90,60
1,40,0,245
1,40,91,115
1,40,0,120
1,43,84,0
1,43,0,120
1,40,88,0
1,40,0,120
1,38,87,0
1,38,0,235
1,40,94,0
1,40,0,275
1,40,78,90
1,40,0,55
1,40,91,65
1,40,0,275
1,40,84,95
1,40,0,75
1,40,88,45
1,40,0,245
1,40,89,115
1,40,0,120
1,33,89,0
1,33,0,120
1,35,72,0
1,35,0,125
1,38,94,0
1,38,0,220
1,40,101,15
1,40,0,250
1,40,84,110
1,40,0,65
1,40,98,55
1,40,0,245
1,40,80,115
1,40,0,65
1,40,89,55
1,40,0,225
1,40,89,125
1,40,0,120
1,43,94,0
1,43,0,125
1,40,90,0
1,40,0,115
1,38,84,0
1,38,0,235
1,40,94,10
1,40,0,245
1,40,78,100
1,40,0,55
1,40,87,65
1,40,0,300
1,40,81,65
1,40,0,65
1,40,89,55
1,40,0,270
1,40,87,90
1,40,0,110
1,33,79,15
1,33,0,115
1,35,87,0
1,35,0,120
1,38,96,0
1,38,0,155
1,38,84,90
1,38,0,120
1,40,85,0
1,40,0,85
1,40,92,35
1,40,0,60
1,40,84,60
1,40,0,50
1,40,98,70
1,40,0,235
1,38,85,0
1,38,0,125
1,40,95,0
1,40,0,15
1,38,94,80
1,38,0,90
1,40,92,25
1,40,0,65
1,40,88,55
1,40,0,60
1,40,94,60
1,40,0,50
1,40,95,70
1,40,0,225
1,38,77,5
1,38,0,125
1,40,96,0
1,40,0,20
1,38,92,65
1,38,0,110
1,40,94,10
1,40,0,70
1,40,85,50
1,40,0,55
1,40,90,70
1,40,0,50
1,40,98,65
1,40,0,230
1,38,87,5
1,38,0,125
1,40,99,0
1,40,0,10
1,38,94,85
1,38,0,120
1,40,101,0
1,40,0,65
1,40,98,55
1,40,0,50
1,40,98,75
1,40,0,45
1,40,89,65
1,40,0,245
1,38,87,0
1,38,0,120
1,40,95,0
1,40,0,185
1,40,102,900
1,40,0,295
1,40,99,75
1,40,0,65
1,40,91,45
1,40,0,250
1,40,87,100
1,40,0,50
1,40,92,65
1,40,0,280
1,40,95,85
1,40,0,120
1,33,87,0
1,33,0,120
1,35,82,0
1,35,0,120
1,38,101,0
1,38,0,235
1,40,79,0
1,40,0,320
1,40,88,50
1,40,0,60
1,40,89,55
1,40,0,290
1,40,89,70
1,40,0,65
1,40,92,60
1,40,0,250
1,40,92,110
1,40,0,120
1,33,90,0
1,33,0,130
1,35,87,0
1,35,0,125
1,38,83,0
1,38,0,210
1,40,88,10
1,40,0,285
1,40,89,90
1,40,0,55
1,40,98,60
1,40,0,255
1,40,90,100
1,40,0,65
1,40,91,55
1,40,0,230
1,40,92,125
1,40,0,125
1,33,88,0
1,33,0,130
1,35,77,0
1,35,0,115
1,38,77,0
1,38,0,220
1,40,91,10
1,40,0,285
1,40,90,85
1,40,0,55
1,40,90,65
1,40,0,245
1,40,87,110
1,40,0,55
1,40,89,65
1,40,0,240
1,40,89,115
1,40,0,125
1,43,91,0
1,43,0,120
1,40,83,0
1,40,0,120
1,38,89,0
1,38,0,220
1,40,102,25
1,40,0,295
1,40,99,75
1,40,0,65
