track,note,velocity,time
1,52,89,188
1,59,68,32
1,64,77,8
1,68,74,7
1,68,0,43
1,71,65,7
1,52,0,16
1,64,0,2
1,59,0,12
1,71,0,4
1,54,73,4
1,61,53,7
1,66,56,2
1,70,62,7
1,61,0,120
1,54,0,2
1,66,0,6
1,70,0,0
1,47,101,5
1,54,53,30
1,59,70,11
1,63,71,9
1,63,0,36
1,66,70,9
1,47,0,14
1,54,0,8
1,59,0,8
1,66,0,5
1,49,75,4
1,56,51,4
1,61,44,5
1,65,68,5
1,49,0,99
1,61,0,12
1,65,0,4
1,56,0,4
1,52,93,17
1,59,58,35
1,64,72,12
1,68,70,10
1,68,0,34
1,64,0,3
1,71,64,11
1,52,0,27
1,71,0,5
1,59,0,1
1,54,53,7
1,66,68,8
1,61,52,0
1,70,59,7
1,54,0,113
1,61,0,8
1,66,0,2
1,70,0,12
1,47,97,0
1,54,56,29
1,59,56,13
1,63,66,7
1,63,0,36
1,66,67,8
1,47,0,8
1,59,0,25
1,54,0,1
1,66,0,1
1,49,65,4
1,56,51,5
1,61,22,7
1,65,67,2
1,56,0,110
1,49,0,4
1,61,0,0
1,65,0,4
1,61,94,27
1,66,93,0
1,68,103,1
1,68,0,24
1,70,59,0
1,70,0,44
1,66,0,2
1,70,73,0
1,66,60,1
1,61,0,20
1,61,67,1
1,66,0,1
1,66,73,1
1,54,11,43
1,61,0,1
1,66,0,1
1,61,84,0
1,70,0,1
1,66,93,0
1,70,95,1
1,61,0,25
1,70,0,10
1,68,36,13
1,68,0,18
1,66,0,2
1,68,73,0
1,66,53,2
1,66,0,22
1,59,64,0
1,66,81,1
1,68,0,1
1,68,66,1
1,68,0,40
1,59,0,2
1,66,0,1
1,59,96,0
1,66,93,1
1,68,97,1
1,59,0,45
1,59,37,1
1,66,0,1
1,68,0,1
1,66,64,0
1,68,45,1
1,68,0,18
1,68,73,3
1,54,0,19
1,59,0,3
1,68,0,0
1,66,0,1
1,59,95,1
1,54,75,0
1,66,91,1
1,68,97,0
1,68,0,20
1,70,77,1
1,59,0,2
1,61,64,0
1,66,0,23
1,66,70,1
1,70,0,1
1,70,49,1
1,70,0,20
1,70,64,3
1,66,0,1
1,66,46,1
1,61,0,3
1,66,0,19
1,66,58,1
1,70,0,2
1,70,22,1
1,70,0,41
1,66,0,2
1,61,92,1
1,66,95,1
1,70,89,1
1,70,0,43
1,61,0,1
1,59,33,1
1,66,0,1
1,66,68,1
1,68,41,4
1,68,0,15
1,66,0,3
1,68,78,0
1,66,71,1
1,59,0,21
1,66,0,1
1,59,64,1
1,66,77,0
1,68,0,1
1,68,67,1
1,68,0,43
1,54,0,1
1,59,0,1
1,54,66,0
1,66,0,1
1,59,97,0
1,66,93,1
1,68,93,1
1,66,0,45
1,66,66,1
1,68,0,1
1,68,64,1
1,68,0,21
1,66,0,1
1,68,80,0
1,66,63,1
1,68,0,20
1,59,0,1
1,66,0,1
1,66,94,2
1,70,97,1
1,61,74,0
1,66,0,47
1,70,0,1
1,66,48,0
1,70,39,1
1,70,0,20
1,70,82,2
1,66,0,1
1,66,68,1
1,61,0,18
1,66,0,2
1,70,0,2
1,66,83,0
1,61,58,0
1,70,80,1
1,61,0,45
1,54,0,0
1,66,0,1
1,70,0,0
1,54,56,0
1,61,93,0
1,66,92,1
1,70,99,1
1,66,0,47
1,66,57,1
1,70,0,1
1,61,0,1
1,66,0,21
1,68,77,0
1,66,68,1
1,66,0,21
1,59,56,1
1,66,86,0
1,68,0,1
1,68,89,1
1,54,0,45
1,66,0,1
1,59,0,0
1,54,60,0
1,68,0,1
1,59,92,0
1,66,93,0
1,68,97,1
1,59,0,46
1,66,0,1
1,59,59,0
1,66,73,1
1,68,0,1
1,68,56,1
1,68,0,19
1,68,75,2
1,54,0,22
1,54,75,1
1,66,0,1
1,59,0,0
1,68,0,1
1,59,95,0
1,66,91,0
1,68,94,1
1,68,0,22
1,70,62,1
1,61,62,0
1,59,0,1
1,61,0,21
1,66,0,1
1,66,64,1
1,70,0,1
1,70,66,1
1,70,0,20
1,70,84,2
1,66,0,1
1,66,73,1
1,61,56,22
1,66,0,1
1,70,0,1
1,66,85,0
1,70,68,1
1,54,0,44
1,61,0,1
1,54,56,0
1,61,95,1
1,66,0,1
1,70,0,1
1,66,93,0
1,70,100,1
1,70,0,42
1,61,0,0
1,68,58,6
1,68,0,20
1,68,90,2
1,66,0,1
1,66,80,1
1,59,53,2
1,59,0,13
1,66,0,5
1,59,87,0
1,66,91,1
1,59,0,46
1,66,0,1
1,59,89,0
1,68,0,1
1,66,94,0
1,68,97,1
1,59,0,45
1,66,0,1
1,59,44,0
1,66,76,1
1,68,0,1
1,68,73,1
1,68,0,21
1,68,78,1
1,66,0,1
1,66,66,1
1,54,0,20
1,59,0,1
1,54,60,0
1,59,97,1
1,68,0,1
1,66,0,0
1,66,91,1
1,68,98,0
1,68,0,26
1,70,65,0
1,59,0,1
1,61,60,0
1,61,0,17
1,66,0,2
1,61,36,0
1,66,60,1
1,70,0,1
1,70,56,1
1,70,0,21
1,66,0,4
1,70,80,0
1,66,67,1
1,61,0,18
1,61,49,2
1,66,0,1
1,66,76,1
1,70,0,1
1,70,72,1
1,54,0,42
1,61,0,1
1,54,66,0
1,61,93,1
1,66,0,1
1,70,0,1
1,66,94,0
1,70,98,1
1,70,0,47
1,61,0,11
1,68,81,12
1,66,0,1
1,66,68,1
1,59,63,20
1,66,0,1
1,66,90,1
1,68,0,1
1,68,94,1
1,59,0,43
1,66,0,1
1,59,88,0
1,68,0,1
1,66,92,0
1,68,97,1
1,59,0,43
1,59,45,2
1,66,0,1
1,66,80,1
1,68,0,1
1,68,75,1
1,68,0,21
1,68,86,1
1,66,0,1
1,66,73,1
1,59,0,17
1,66,0,3
1,59,83,0
1,68,0,1
1,66,93,0
1,68,98,1
1,68,0,23
1,70,70,0
1,59,0,4
1,66,0,19
1,61,39,0
1,66,69,1
1,70,0,1
1,70,63,1
1,70,0,22
1,70,77,1
1,66,0,2
1,66,68,1
1,61,0,17
1,66,0,3
1,61,78,0
1,66,87,1
1,70,0,1
1,70,68,1
1,61,0,44
1,66,0,1
1,61,94,0
1,70,0,2
1,66,91,0
1,70,99,1
1,66,0,46
1,66,58,1
1,70,0,2
1,61,0,2
1,66,0,20
1,68,85,0
1,66,72,1
1,66,0,22
1,59,70,0
1,68,0,1
1,66,89,0
1,68,80,1
1,66,0,45
1,59,0,0
1,68,0,1
1,59,89,0
1,66,94,0
1,68,99,1
1,66,0,45
1,66,75,1
1,68,0,2
1,68,73,1
1,68,0,20
1,68,90,1
1,66,0,2
1,66,71,1
1,59,0,19
1,66,0,1
1,59,88,0
1,66,93,1
1,68,0,1
1,68,95,1
1,68,0,24
1,70,59,0
1,59,0,3
1,66,0,17
1,66,58,1
1,70,0,2
1,70,57,1
1,70,0,20
1,70,82,2
1,66,0,1
1,66,59,1
1,66,0,20
1,61,59,0
1,66,71,1
1,70,0,1
1,70,50,1
1,70,0,43
1,54,0,0
1,54,70,1
1,61,0,1
1,66,0,1
1,61,94,0
1,66,94,1
1,70,97,1
1,66,0,46
1,66,41,1
1,70,0,1
1,61,0,3
1,66,0,19
1,66,64,1
1,68,75,2
1,66,0,20
1,68,0,1
1,66,91,0
1,68,88,1
1,59,67,2
1,59,0,44
1,54,0,0
1,66,0,1
1,54,67,0
1,59,96,1
1,66,94,0
1,68,0,1
1,68,98,1
1,59,0,45
1,59,57,1
1,66,0,1
1,66,71,1
1,68,0,1
1,68,68,1
1,68,0,19
1,68,79,4
1,59,0,19
1,54,0,0
1,54,66,1
1,66,0,1
1,59,91,0
1,68,0,1
1,66,94,0
1,68,97,1
1,68,0,27
1,70,37,0
1,61,46,0
1,59,0,1
1,66,0,17
1,70,0,2
1,66,44,0
1,70,63,1
1,70,0,19
1,70,71,7
1,61,0,9
1,66,0,10
1,66,84,1
1,70,0,1
1,61,67,0
1,70,70,1
1,54,0,44
1,61,0,1
1,54,66,0
1,66,0,1
1,61,94,0
1,70,0,1
1,66,94,0
1,70,97,1
1,70,0,47
1,61,0,1
1,66,0,1
1,59,20,0
1,66,64,1
1,68,57,3
1,68,0,13
1,66,0,5
1,66,71,1
1,68,77,2
1,59,0,17
1,66,0,3
1,68,0,1
1,66,91,0
1,59,74,1
1,68,89,0
1,54,0,44
1,59,0,1
1,54,49,0
1,66,0,1
1,59,90,0
1,68,0,1
1,66,93,0
1,68,97,1
1,66,0,44
1,59,0,0
1,66,33,1
1,68,0,3
1,68,78,1
1,68,0,19
1,68,77,1
1,54,0,21
1,54,48,1
1,66,0,2
1,66,93,1
1,68,0,1
1,59,90,0
1,68,95,1
1,68,0,14
1,59,0,2
1,70,58,1
1,61,66,2
1,66,0,25
1,66,66,1
1,70,0,1
1,70,66,1
1,70,0,24
1,70,86,1
1,66,0,2
1,66,74,1
1,61,0,16
1,66,0,1
1,61,72,1
1,70,0,1
1,66,89,1
1,70,89,0
1,61,0,46
1,61,91,1
1,66,0,1
1,70,0,2
1,66,89,0
1,70,98,1
1,61,0,36
1,70,0,2
1,66,0,7
1,59,43,1
1,66,70,0
1,68,60,3
1,68,0,19
1,68,75,2
1,59,0,20
1,59,76,2
1,66,0,1
1,68,0,1
1,66,92,0
1,68,93,1
1,54,0,43
1,59,0,1
1,54,66,0
1,66,0,1
1,59,97,0
1,66,91,1
1,68,0,1
1,68,99,1
1,68,0,48
1,68,62,1
1,68,0,19
1,68,77,2
1,68,0,21
1,66,0,1
1,59,0,0
1,66,94,3
1,70,97,0
1,61,69,0
1,70,0,46
1,70,52,1
1,70,0,20
1,70,77,2
1,66,0,1
1,66,59,1
1,61,0,19
1,66,0,3
1,61,63,0
1,66,86,1
1,70,0,1
1,70,85,1
1,54,0,43
1,61,0,2
1,54,70,0
1,66,0,1
1,61,95,0
1,70,0,1
1,66,91,0
1,70,97,1
1,61,0,44
1,66,0,1
1,66,58,1
1,70,0,2
1,68,11,3
1,68,0,16
1,68,95,2
1,66,0,1
1,66,84,1
1,59,58,2
1,66,0,19
1,66,82,1
1,68,0,1
1,68,84,1
1,54,0,43
1,59,0,1
1,54,58,0
1,66,0,1
1,59,95,1
1,66,92,0
1,68,0,1
1,68,98,1
1,66,0,45
1,59,0,0
1,59,56,1
1,66,77,0
1,68,0,2
1,68,76,1
1,68,0,39
1,59,0,1
1,54,0,3
1,54,43,1
1,66,0,1
1,61,89,0
1,66,92,1
1,70,91,2
1,70,0,68
1,70,94,1
1,66,0,1
1,66,87,1
1,61,0,16
1,66,0,4
1,61,64,0
1,70,0,2
1,66,84,0
1,70,63,1
1,61,0,46
1,70,0,1
1,66,0,0
1,61,92,0
1,66,93,1
1,70,97,0
1,61,0,37
1,70,0,1
1,66,0,8
1,59,41,1
1,66,77,0
1,68,68,2
1,68,0,20
1,68,87,2
1,66,0,1
1,66,79,1
1,59,0,2
1,59,51,1
1,59,0,15
1,66,0,3
1,59,84,1
1,66,93,0
1,68,0,1
1,68,90,1
1,54,0,43
1,54,33,1
1,59,0,1
1,66,0,1
1,59,95,0
1,68,0,1
1,66,93,0
1,68,93,1
1,68,0,62
1,59,0,2
1,68,82,7
1,66,0,21
1,61,84,1
1,68,0,1
1,66,93,0
1,70,97,1
1,70,0,69
1,66,0,2
1,70,87,0
1,66,71,1
1,54,0,18
1,61,0,2
1,54,44,0
1,66,0,1
1,61,73,0
1,70,0,1
1,66,86,1
1,70,76,0
1,54,0,45
1,54,60,1
1,61,0,1
1,66,0,1
1,61,93,0
1,70,0,1
1,66,93,0
1,70,97,2
1,61,0,30
1,70,0,1
1,59,62,14
1,66,0,1
1,66,75,1
1,68,62,2
1,68,0,15
1,66,0,7
1,66,64,1
1,68,70,1
1,59,0,1
1,59,28,1
1,54,0,14
1,59,0,1
1,54,44,1
1,66,0,1
1,68,0,3
1,68,75,1
1,59,79,0
1,66,89,2
1,54,0,42
1,54,51,1
1,59,0,1
1,66,0,1
1,68,0,0
1,59,95,0
1,66,93,1
1,68,98,0
1,59,0,46
1,66,0,2
1,66,80,1
1,68,0,1
1,59,66,1
1,68,68,0
1,68,0,17
1,68,85,2
1,54,0,19
1,54,52,2
1,59,0,2
1,66,0,1
1,59,95,0
1,68,0,1
1,66,92,1
1,68,90,0
1,68,0,19
1,59,0,0
1,70,36,1
1,61,62,0
1,66,0,26
1,66,86,1
1,70,0,1
1,70,73,3
1,70,0,17
1,70,71,6
1,61,0,17
1,66,0,2
1,70,0,1
1,66,93,0
1,61,83,1
1,70,97,0
1,54,0,45
1,54,62,1
1,61,0,1
1,66,0,1
1,61,95,0
1,70,0,2
1,66,87,0
1,70,98,1
1,70,0,35
1,61,0,0
1,68,69,14
1,68,0,17
1,68,87,2
1,66,0,1
1,66,75,1
1,59,43,3
1,59,0,12
1,66,0,5
1,66,91,1
1,68,0,1
1,68,98,1
1,59,76,2
1,54,0,40
1,59,0,2
1,54,64,0
1,66,0,1
1,59,97,1
1,66,92,0
1,68,0,1
1,68,97,1
1,59,0,44
1,66,0,1
1,59,75,1
1,66,93,0
1,68,0,1
1,68,98,1
1,68,0,36
1,59,0,3
1,54,0,6
1,66,0,1
1,54,64,0
1,66,87,1
1,70,95,0
1,61,90,2
1,70,0,344
1,54,0,21
1,66,0,0
1,61,0,0
1,61,31,16
1,70,44,3
1,54,101,0
1,49,94,0
1,66,91,0
1,49,0,43
1,61,0,1
1,66,0,1
1,61,62,0
1,49,98,0
1,54,0,1
1,54,98,1
1,70,0,2
1,66,89,0
1,70,50,1
1,70,0,45
1,49,0,1
1,66,0,3
1,54,0,2
1,61,0,2
1,52,78,85
1,56,97,1
1,59,99,2
1,64,97,1
1,68,70,3
1,64,0,41
1,56,0,0
1,68,0,1
1,56,98,0
1,59,0,1
1,59,99,1
1,64,95,2
1,59,0,44
1,64,0,5
1,56,0,3
1,52,0,0
1,59,64,88
1,51,95,1
1,54,99,1
1,63,98,3
1,71,97,0
1,71,0,34
1,51,0,8
1,63,0,1
1,54,0,1
1,51,97,0
1,63,98,0
1,59,0,1
1,54,103,0
1,59,97,2
1,71,83,5
1,71,0,37
1,63,0,1
1,59,0,1
1,51,0,2
1,54,0,5
1,49,94,89
1,54,99,2
1,61,93,1
1,70,98,2
1,66,89,1
1,66,0,42
1,54,0,1
1,70,0,1
1,61,0,0
1,54,102,0
1,70,34,1
1,61,93,0
1,66,90,2
1,66,0,41
1,70,0,1
1,49,0,2
1,54,0,6
1,61,0,0
1,54,87,89
1,61,95,3
1,66,91,1
1,70,99,0
1,66,0,42
1,54,0,1
1,49,58,0
1,70,0,1
1,54,100,0
1,61,0,1
1,61,94,1
1,66,87,1
1,70,93,0
1,70,0,44
1,61,0,0
1,66,0,5
1,49,0,1
1,54,0,1
1,56,98,92
1,52,95,1
1,59,97,0
1,64,88,2
1,68,99,1
1,52,0,43
1,64,0,1
1,56,0,0
1,68,0,0
1,52,99,0
1,59,0,1
1,59,99,1
1,56,95,1
1,68,98,1
1,64,89,0
1,68,0,42
1,64,0,1
1,59,0,1
1,52,0,4
1,56,0,3
1,47,46,87
1,51,99,1
1,63,95,1
1,54,96,1
1,59,99,0
1,71,71,2
1,71,0,44
1,63,0,2
1,54,0,0
1,59,0,2
1,54,99,0
1,59,91,1
1,63,99,0
1,71,98,1
1,71,0,38
1,59,0,1
1,63,0,0
1,51,0,4
1,54,0,0
1,47,0,3
1,66,95,94
1,54,99,0
1,70,99,0
1,61,103,1
1,49,77,2
1,49,0,41
1,66,0,1
1,49,78,0
1,54,0,1
1,54,97,1
1,61,0,1
1,61,95,1
1,70,0,1
1,66,89,0
1,70,51,1
1,70,0,39
1,61,0,6
1,49,0,1
1,66,0,1
1,54,0,2
1,49,64,88
1,54,99,2
1,61,91,2
1,66,88,0
1,70,97,2
1,70,0,29
1,49,0,15
1,66,0,1
1,49,90,0
1,54,0,1
1,54,99,1
1,61,0,1
1,61,91,1
1,66,87,0
