track,note,velocity,time
1,60,127,13656
1,62,127,176
1,62,127,340
1,60,127,324
1,62,127,176
1,64,127,8
1,62,127,8
1,60,127,4
1,60,127,80
1,60,127,88
1,62,127,16
1,62,127,152
1,60,127,196
1,62,127,164
1,64,127,16
1,64,127,20
1,62,127,740
1,60,127,312
1,60,127,48
1,64,127,1276
1,69,127,24
1,67,127,8
1,69,127,176
1,67,127,192
1,64,127,372
1,62,127,168
1,64,112,704
1,69,127,12
1,67,127,16
1,69,127,0
1,67,127,16
1,69,127,188
1,72,127,12
1,69,127,388
1,67,127,328
1,64,127,0
1,62,127,204
1,57,127,204
1,60,127,196
1,64,127,384
1,69,127,56
1,67,127,8
1,69,127,12
1,67,119,16
1,69,127,180
1,67,127,12
1,62,127,392
1,60,127,176
1,64,127,40
1,64,127,56
1,62,127,204
1,62,127,52
1,59,127,76
1,57,127,200
1,55,127,180
1,55,127,36
1,64,127,520
1,60,127,232
1,62,127,132
1,60,127,5816
1,62,127,40
1,62,127,124
1,60,127,0
1,62,127,8
1,64,127,216
1,64,127,108
1,62,127,20
1,60,127,20
1,60,127,88
1,60,127,468
1,62,127,44
1,62,127,1192
1,60,127,12
1,62,127,4
1,64,127,76
1,62,127,72
1,60,127,48
1,60,127,88
1,64,127,1436
1,69,127,24
1,67,127,4
1,69,127,180
1,67,127,176
1,64,127,412
1,62,127,160
1,64,127,532
1,72,127,168
1,67,127,172
1,69,127,168
1,67,127,184
1,69,127,184
1,72,127,12
1,69,127,384
1,67,127,252
1,64,127,236
1,62,127,192
1,64,127,516
1,69,127,12
1,67,127,16
1,69,127,196
1,67,127,156
1,69,127,172
1,67,127,24
1,64,127,0
1,62,127,180
1,64,127,128
1,64,127,88
1,62,127,204
1,62,127,60
1,59,127,36
1,57,127,184
1,55,127,196
1,55,127,64
1,64,127,1492
1,62,127,176
1,60,127,164
1,64,127,924
1,62,127,88
1,60,127,152
1,64,127,224
1,64,127,112
1,64,127,76
1,64,127,76
1,62,127,12
1,64,127,96
1,62,127,76
1,64,127,92
1,64,127,56
1,62,127,20
1,64,127,20
1,62,127,84
1,64,127,88
1,62,127,16
1,64,127,100
1,62,127,8
1,64,127,100
1,62,127,4
1,64,127,108
1,62,127,4
1,64,127,96
1,62,127,8
1,64,127,100
1,60,127,20
1,62,127,24
1,66,127,1568
1,64,127,176
1,62,127,164
1,66,127,924
1,64,127,68
1,62,127,16
1,66,127,196
1,66,127,140
1,66,127,76
1,66,127,76
1,64,127,12
1,66,127,96
1,64,127,76
1,66,127,92
1,66,127,56
1,64,127,20
1,66,127,20
1,64,127,84
1,66,127,88
1,64,127,16
1,66,127,100
1,64,127,8
1,66,127,100
1,64,127,4
1,66,127,108
1,64,127,4
1,66,127,96
1,64,127,8
1,66,127,100
1,62,127,20
1,64,127,24
1,68,127,1572
1,66,127,188
1,64,127,148
1,73,127,468
1,71,127,4
1,68,127,192
1,64,127,28
1,68,127,248
1,68,127,52
1,68,127,52
1,68,127,60
1,66,127,12
1,68,127,116
1,66,127,0
1,68,127,100
1,68,127,72
1,66,127,28
1,68,127,28
1,66,127,8
1,68,127,20
1,66,127,16
1,68,127,8
1,66,127,16
1,68,127,24
1,66,104,28
1,68,127,12
1,66,127,4
1,68,127,20
1,66,127,12
1,68,127,48
1,64,127,16
1,66,127,52
1,60,127,1500
1,62,127,8
1,62,127,136
1,60,127,4
1,62,127,176
1,64,127,20
1,62,127,52
1,60,127,20
1,60,127,100
1,60,127,484
1,62,127,28
1,60,127,704
1,62,127,24
1,60,127,16
1,62,127,52
1,64,127,48
1,64,127,44
1,62,127,84
1,60,127,36
1,60,127,80
1,64,127,1664
1,62,127,176
1,60,127,164
1,64,127,924
1,62,127,88
1,60,127,152
1,64,127,224
1,64,127,112
1,64,127,76
1,64,127,76
1,62,127,12
1,64,127,96
1,62,127,76
1,64,127,92
1,64,127,56
1,62,127,20
1,64,127,20
1,62,127,84
1,64,127,88
1,62,127,16
1,64,127,100
1,62,127,8
1,64,127,100
1,62,127,4
1,64,127,108
1,62,127,4
1,64,127,96
1,62,127,8
1,64,127,100
1,60,127,20
1,62,127,24
1,66,127,1568
1,64,127,176
1,62,127,164
1,66,127,924
1,64,127,68
1,62,127,16
1,66,127,196
1,66,127,140
1,66,127,76
1,66,127,76
1,64,127,12
1,66,127,96
1,64,127,76
1,66,127,92
1,66,127,56
1,64,127,20
1,66,127,20
1,64,127,84
1,66,127,88
1,64,127,16
1,66,127,100
1,64,127,8
1,66,127,100
1,64,127,4
1,66,127,108
1,64,127,4
1,66,127,96
1,64,127,8
1,66,127,100
1,62,127,20
1,64,127,24
1,68,127,1572
1,66,127,188
1,64,127,148
1,73,127,468
1,71,127,4
1,68,127,192
1,64,127,28
1,68,127,248
1,68,127,52
1,68,127,52
1,68,127,60
1,66,127,12
1,68,127,116
1,66,127,0
1,68,127,100
1,68,127,72
1,66,127,28
1,68,127,28
1,66,127,8
1,68,127,20
1,66,127,16
1,68,127,8
1,66,127,16
1,68,127,24
1,66,104,28
1,68,127,12
1,66,127,4
1,68,127,20
1,66,127,12
1,68,127,48
1,64,127,16
1,66,127,52
1,70,127,60
1,68,127,52
1,66,127,20
1,75,127,16
1,73,127,4
1,70,127,16
1,66,127,28
1,70,127,52
1,70,127,44
1,70,127,40
1,70,127,44
1,68,127,4
1,70,127,56
1,68,127,0
1,70,127,28
1,68,127,12
1,66,127,28
1,68,127,28
1,66,127,8
1,68,127,20
1,66,127,16
1,68,127,8
1,66,127,16
1,68,127,16
1,66,104,0
1,70,127,12
1,68,127,0
1,70,127,20
1,68,127,12
1,70,127,48
1,66,127,16
1,68,127,12
2,45,95,1316
2,50,106,12
2,69,98,396
2,65,83,0
2,74,80,4
2,74,83,32
2,69,86,0
2,65,73,4
2,74,76,120
2,69,74,4
2,65,46,4
2,69,94,40
2,74,94,4
2,65,78,4
2,74,102,132
2,69,107,0
2,65,100,4
2,45,103,364
2,50,106,96
2,69,93,372
2,65,92,0
2,74,66,0
2,65,86,44
2,69,91,0
2,74,77,0
2,74,87,148
2,69,102,0
2,65,99,0
2,65,90,52
2,69,94,0
2,74,92,0
2,74,99,144
2,69,110,0
2,65,111,0
2,43,106,384
2,48,104,0
2,64,95,384
2,67,107,0
2,72,88,0
2,72,93,40
2,67,104,0
2,64,93,0
2,64,92,140
2,72,92,0
2,67,103,0
2,64,80,40
2,72,97,0
2,67,95,0
2,67,115,136
2,64,111,0
2,72,108,0
2,43,111,384
2,48,113,116
2,64,103,344
2,67,111,0
2,72,100,0
2,72,102,36
2,64,88,0
2,67,98,0
2,67,92,132
2,64,82,0
2,72,91,0
2,72,93,40
2,67,103,0
2,64,83,0
2,64,102,132
2,67,107,0
2,72,106,0
2,45,106,184
2,50,106,0
2,69,98,396
2,65,83,0
2,74,80,4
2,74,83,32
2,69,86,0
2,65,73,4
2,74,76,120
2,69,74,4
2,65,46,4
2,69,94,40
2,74,94,4
2,65,78,4
2,74,102,132
2,69,107,0
2,65,100,4
2,45,103,96
2,50,106,96
2,69,93,372
2,65,92,0
2,74,66,0
2,65,86,44
2,69,91,0
2,74,77,0
2,74,87,148
2,69,102,0
2,65,99,0
2,65,90,52
2,69,94,0
2,74,92,0
2,74,99,144
2,69,110,0
2,65,111,0
2,43,106,384
2,48,104,0
2,64,95,384
2,67,107,0
2,72,88,0
2,72,93,40
2,67,104,0
2,64,93,0
2,64,92,140
2,72,92,0
2,67,103,0
2,64,80,40
2,72,97,0
2,67,95,0
2,67,115,136
2,64,111,0
2,72,108,0
2,43,111,384
2,48,113,116
2,64,103,344
2,67,111,0
2,72,100,0
2,72,102,36
2,64,88,0
2,67,98,0
2,67,92,132
2,64,82,0
2,72,91,0
2,72,93,40
2,67,103,0
2,64,83,0
2,64,102,132
2,67,107,0
2,72,106,0
2,45,106,184
2,50,106,0
2,69,98,396
2,65,83,0
2,74,80,4
2,74,83,32
2,69,86,0
2,65,73,4
2,74,76,120
2,69,74,4
2,65,46,4
2,69,94,40
2,74,94,4
2,65,78,4
2,74,102,132
2,69,107,0
2,65,100,4
2,45,103,364
2,50,106,96
2,69,93,372
2,65,92,0
2,74,66,0
2,65,86,44
2,69,91,0
2,74,77,0
2,74,87,148
2,69,102,0
2,65,99,0
2,65,90,52
2,69,94,0
2,74,92,0
2,74,99,144
2,69,110,0
2,65,111,0
2,43,106,384
2,48,104,0
2,64,95,384
2,67,107,0
2,72,88,0
2,72,93,40
2,67,104,0
2,64,93,0
2,64,92,140
2,72,92,0
2,67,103,0
2,64,80,40
2,72,97,0
2,67,95,0
2,67,115,136
2,64,111,0
2,72,108,0
2,43,111,384
2,48,113,116
2,64,103,344
2,67,111,0
2,72,100,0
2,72,102,36
2,64,88,0
2,67,98,0
2,67,92,132
2,64,82,0
2,72,91,0
2,72,93,40
2,67,103,0
2,64,83,0
2,64,102,132
2,67,107,0
2,72,106,0
2,45,106,184
2,50,106,0
2,69,98,396
2,65,83,0
2,74,80,4
2,74,83,32
2,69,86,0
2,65,73,4
2,74,76,120
2,69,74,4
2,65,46,4
2,69,94,40
2,74,94,4
2,65,78,4
2,74,102,132
2,69,107,0
2,65,100,4
2,45,103,364
2,50,106,96
2,69,93,372
2,65,92,0
2,74,66,0
2,65,86,44
2,69,91,0
2,74,77,0
2,74,87,148
2,69,102,0
2,65,99,0
2,65,90,52
2,69,94,0
2,74,92,0
2,74,99,144
2,69,110,0
2,65,111,0
2,43,106,384
2,48,104,0
2,64,95,384
2,67,107,0
2,72,88,0
2,72,93,40
2,67,104,0
2,64,93,0
2,64,92,140
2,72,92,0
2,67,103,0
2,64,80,40
2,72,97,0
2,67,95,0
2,67,115,136
2,64,111,0
2,72,108,0
2,43,111,384
2,48,113,116
2,64,103,344
2,67,111,0
2,72,100,0
2,72,102,36
2,64,88,0
2,67,98,0
2,67,92,132
2,64,82,0
2,72,91,0
2,72,93,40
2,67,103,0
2,64,83,0
2,64,102,132
2,67,107,0
2,72,106,0
2,71,100,0
2,65,100,0
2,62,100,0
2,64,117,0
2,69,110,0
2,60,113,0
2,45,100,0
2,69,110,108
2,64,110,20
2,60,110,0
2,69,109,112
2,64,110,0
2,60,110,0
2,60,100,108
2,64,100,0
2,69,100,0
2,69,100,0
2,64,100,0
2,60,100,0
2,33,100,0
2,60,110,124
2,69,106,0
2,64,105,20
2,69,100,112
2,60,100,0
2,64,100,20
2,64,100,116
2,60,100,0
2,69,100,4
2,72,100,0
2,48,100,0
2,67,100,12
2,64,100,0
2,67,100,116
2,64,100,4
2,72,100,4
2,67,100,120
2,64,100,4
2,72,100,4
2,67,100,120
2,72,100,4
2,64,100,4
2,36,100,0
2,67,100,0
2,72,100,4
2,64,100,4
2,67,100,128
2,72,100,0
2,64,100,0
2,72,100,136
2,64,100,0
2,67,100,0
2,67,100,128
2,72,100,0
2,64,100,0
2,64,117,0
2,69,110,0
2,60,113,0
2,45,108,0
2,69,110,108
2,64,110,20
2,60,110,0
2,69,109,112
2,64,110,0
2,60,110,0
2,60,100,108
2,64,100,0
2,69,100,0
2,69,100,0
2,64,100,0
2,60,100,0
2,33,109,0
2,60,110,124
2,69,106,0
2,64,105,20
2,69,100,112
2,60,100,0
2,64,100,20
2,64,100,116
2,60,100,0
2,69,100,4
2,72,100,0
2,48,109,0
2,67,100,12
2,64,100,0
2,67,100,116
2,64,100,4
2,72,100,4
2,67,100,120
2,64,100,4
2,72,100,4
2,67,100,120
2,72,100,4
2,64,100,4
2,36,108,0
2,67,100,0
2,72,100,4
2,64,100,4
2,67,100,128
2,72,100,0
2,64,100,0
2,72,100,136
2,64,100,0
2,67,100,0
2,67,100,128
2,72,100,0
2,64,100,0
2,64,117,0
2,69,110,0
2,60,113,0
2,45,109,0
2,69,110,108
2,64,110,20
2,60,110,0
2,69,109,112
2,64,110,0
2,60,110,0
2,60,100,108
2,64,100,0
2,69,100,0
2,69,100,0
2,64,100,0
2,60,100,0
2,33,108,0
2,60,110,124
2,69,106,0
2,64,105,20
2,69,100,112
2,60,100,0
2,64,100,20
2,64,100,116
2,60,100,0
2,69,100,4
2,72,100,0
2,48,108,0
2,67,100,12
2,64,100,0
2,67,100,116
2,64,100,4
2,72,100,4
2,67,100,120
2,64,100,4
2,72,100,4
2,67,100,120
2,72,100,4
2,64,100,4
2,36,108,0
2,67,100,0
2,72,100,4
2,64,100,4
2,67,100,128
2,72,100,0
2,64,100,0
2,72,100,136
2,64,100,0
2,67,100,0
2,67,100,128
2,72,100,0
2,64,100,0
2,43,110,0
2,67,102,0
2,62,104,4
2,71,108,0
2,62,87,112
2,67,80,0
2,71,87,4
2,67,84,128
2,71,91,4
2,62,68,8
2,67,74,108
2,71,83,8
2,62,68,4
2,67,76,124
2,71,93,8
2,62,72,0
2,67,67,116
2,71,82,8
2,62,68,4
2,67,67,112
2,71,81,8
2,62,68,8
2,67,67,108
2,71,74,4
2,62,69,16
2,65,72,96
2,69,90,0
2,38,110,0
2,62,100,8
2,62,76,88
2,65,80,0
2,69,83,0
2,72,84,0
2,72,79,112
2,69,80,0
2,65,84,0
2,62,72,0
2,62,87,128
2,65,87,0
2,69,90,0
2,72,91,0
2,72,94,128
2,69,95,0
2,65,98,0
2,62,87,0
2,62,94,124
2,65,99,0
2,69,99,0
2,72,97,0
2,72,103,132
2,69,99,0
2,65,99,0
2,62,97,0
2,65,108,112
2,72,98,4
2,69,107,0
2,62,102,4
2,45,105,0
2,50,106,0
2,69,98,396
2,65,83,0
2,74,80,4
2,74,83,32
2,69,86,0
2,65,73,4
2,74,76,120
2,69,74,4
2,65,46,4
2,69,94,40
2,74,94,4
2,65,78,4
2,74,102,132
2,69,107,0
2,65,100,4
2,45,103,364
2,50,106,96
2,69,93,372
2,65,92,0
2,74,66,0
2,65,86,44
2,69,91,0
2,74,77,0
2,74,87,148
2,69,102,0
2,65,99,0
2,65,90,52
2,69,94,0
2,74,92,0
2,74,99,144
2,69,110,0
2,65,111,0
2,43,106,384
2,48,104,0
2,64,95,384
2,67,107,0
2,72,88,0
2,72,93,40
2,67,104,0
2,64,93,0
2,64,92,140
2,72,92,0
2,67,103,0
2,64,80,40
2,72,97,0
2,67,95,0
2,67,115,136
2,64,111,0
2,72,108,0
2,43,111,384
2,48,113,116
2,64,103,344
2,67,111,0
2,72,100,0
2,72,102,36
2,64,88,0
2,67,98,0
2,67,92,132
2,64,82,0
2,72,91,0
2,72,93,40
2,67,103,0
2,64,83,0
2,64,102,132
2,67,107,0
2,72,106,0
2,45,106,184
2,50,106,0
2,69,98,396
2,65,83,0
2,74,80,4
2,74,83,32
2,69,86,0
2,65,73,4
2,74,76,120
2,69,74,4
2,65,46,4
2,69,94,40
2,74,94,4
2,65,78,4
2,74,102,132
2,69,107,0
2,65,100,4
2,45,103,364
2,50,106,96
2,69,93,372
2,65,92,0
2,74,66,0
2,65,86,44
2,69,91,0
2,74,77,0
2,74,87,148
2,69,102,0
2,65,99,0
2,65,90,52
2,69,94,0
2,74,92,0
2,74,99,144
2,69,110,0
2,65,111,0
2,43,106,384
2,48,104,0
2,64,95,384
2,67,107,0
2,72,88,0
2,72,93,40
2,67,104,0
2,64,93,0
2,64,92,140
2,72,92,0
2,67,103,0
2,64,80,40
2,72,97,0
2,67,95,0
2,67,115,136
2,64,111,0
2,72,108,0
2,43,111,384
2,48,113,116
2,64,103,344
2,67,111,0
2,72,100,0
2,72,102,36
2,64,88,0
2,67,98,0
2,67,92,132
2,64,82,0
2,72,91,0
2,72,93,40
2,67,103,0
2,64,83,0
2,64,102,132
2,67,107,0
2,72,106,0
2,45,106,184
2,50,106,0
2,69,98,396
2,65,83,0
2,74,80,4
2,74,83,32
2,69,86,0
2,65,73,4
2,74,76,120
2,69,74,4
2,65,46,4
2,69,94,40
2,74,94,4
2,65,78,4
2,74,102,132
2,69,107,0
2,65,100,4
2,45,103,364
2,50,106,96
2,69,93,372
2,65,92,0
2,74,66,0
2,65,86,44
