track,note,velocity,time
0,36,109,229
0,42,126,0
0,42,0,1
0,36,0,0
0,36,103,48
0,36,0,1
0,40,115,47
0,42,113,0
0,42,0,1
0,40,0,0
0,36,109,47
0,36,0,1
0,42,100,46
0,42,0,1
0,36,103,48
0,36,0,1
0,40,117,47
0,42,123,0
0,42,0,1
0,40,0,0
0,36,86,46
0,36,0,1
0,42,105,48
0,36,113,0
0,36,0,1
0,42,0,0
0,36,103,47
0,36,0,1
0,40,119,45
0,42,123,0
0,42,0,1
0,40,0,0
0,36,99,48
0,36,0,1
0,42,107,46
0,42,0,1
0,36,107,47
0,36,0,1
0,33,98,46
0,33,99,0
0,40,123,0
0,40,0,1
0,57,102,1
0,57,0,1
0,36,88,45
0,36,0,1
0,50,91,0
0,57,94,13
0,49,127,0
0,33,0,1
0,33,0,0
0,50,84,1
0,36,115,0
0,36,0,1
0,38,102,0
0,49,92,0
0,38,103,0
0,49,0,1
0,57,110,1
0,62,117,0
0,66,93,1
0,62,115,3
0,36,95,4
0,36,0,1
0,38,0,15
0,38,0,0
0,62,0,7
0,49,0,2
0,66,0,0
0,57,0,0
0,40,114,0
0,40,0,1
0,50,127,0
0,57,114,0
0,38,96,1
0,42,113,0
0,38,97,0
0,42,0,1
0,66,97,0
0,62,120,0
0,38,0,12
0,38,0,0
0,66,0,1
0,50,0,2
0,33,63,0
0,33,64,0
0,36,110,1
0,36,0,1
0,62,0,1
0,57,0,0
0,50,124,1
0,66,122,0
0,57,115,0
0,62,116,0
0,50,0,1
0,50,88,1
0,33,0,24
0,50,0,0
0,33,0,0
0,38,96,0
0,38,97,0
0,42,100,1
0,42,0,1
0,50,127,0
0,38,0,10
0,38,0,0
0,66,0,8
0,62,0,3
0,57,0,1
0,50,0,0
0,62,112,0
0,66,116,0
0,36,103,1
0,36,0,1
0,38,98,0
0,57,101,0
0,38,99,0
0,52,127,1
0,50,0,2
0,62,0,3
0,57,0,1
0,50,77,0
0,57,109,1
0,62,118,1
0,40,117,0
0,40,0,1
0,66,0,0
0,42,123,0
0,42,0,1
0,62,0,0
0,66,110,0
0,57,0,6
0,50,0,9
0,66,0,2
0,52,0,0
0,52,127,0
0,38,0,1
0,38,0,0
0,62,0,2
0,66,106,0
0,33,62,1
0,62,106,0
0,36,88,0
0,33,63,0
0,36,0,1
0,62,0,5
0,57,0,2
0,66,0,1
0,53,87,3
0,50,0,2
0,57,99,1
0,33,0,4
0,33,0,0
0,38,98,3
0,53,90,0
0,38,99,0
0,57,105,2
0,42,105,0
0,36,113,0
0,36,0,1
0,42,0,0
0,60,116,0
0,64,83,0
0,60,109,1
0,64,113,4
0,64,0,5
0,36,96,9
0,36,0,1
0,38,0,24
0,38,0,0
0,57,0,6
0,53,0,1
0,60,0,1
0,53,89,0
0,40,112,0
0,42,123,0
0,42,0,1
0,40,0,0
0,57,113,0
0,38,92,1
0,60,116,0
0,38,93,0
0,64,96,1
0,38,0,3
0,38,0,0
0,33,46,0
0,33,47,0
0,64,0,3
0,36,103,0
0,36,0,1
0,57,0,0
0,60,0,0
0,64,120,0
0,57,113,1
0,60,114,0
0,33,0,2
0,33,0,0
0,38,95,3
0,42,107,0
0,38,96,0
0,42,0,1
0,38,0,1
0,38,0,0
0,64,0,4
0,60,0,0
0,38,98,1
0,64,120,0
0,36,112,0
0,38,99,0
0,36,0,1
0,60,116,1
0,57,0,20
0,53,0,1
0,60,0,2
0,53,85,0
0,64,0,2
0,57,114,0
0,40,119,0
0,42,123,0
0,42,0,1
0,40,0,0
0,64,96,0
0,60,116,0
0,64,0,16
0,57,0,3
0,60,0,2
0,53,0,0
0,64,0,20
0,38,0,1
0,38,0,0
0,53,0,1
0,33,60,2
0,33,61,0
0,64,96,1
0,36,103,1
0,36,0,1
0,57,0,11
0,64,0,5
0,52,0,4
0,60,0,0
0,55,79,11
0,59,100,7
0,33,0,3
0,33,0,0
0,50,62,2
0,54,127,1
0,38,95,0
0,55,110,0
0,38,96,0
0,62,113,0
0,36,109,0
0,42,126,0
0,42,0,1
0,36,0,0
0,67,116,1
0,62,118,1
0,36,103,5
0,36,0,1
0,38,0,4
0,38,0,0
0,62,0,15
0,50,0,2
0,50,83,1
0,67,0,1
0,55,0,0
0,38,96,0
0,38,97,0
0,55,114,1
0,62,118,1
0,67,101,0
0,40,115,0
0,42,113,0
0,42,0,1
0,54,0,0
0,40,0,0
0,55,127,1
0,38,0,14
0,38,0,0
0,55,0,1
0,33,61,0
0,33,62,0
0,67,0,1
0,55,110,0
0,62,0,1
0,67,118,0
0,36,109,0
0,36,0,1
0,62,118,0
0,50,0,1
0,50,53,1
0,33,0,39
0,33,0,0
0,55,0,1
0,55,127,1
0,38,98,1
0,38,99,0
0,42,100,2
0,42,0,1
0,38,0,31
0,38,0,0
0,67,0,10
0,55,0,3
0,62,0,1
0,38,104,1
0,38,105,0
0,57,127,1
0,62,109,0
0,67,119,0
0,36,103,1
0,36,0,1
0,62,0,43
0,55,0,1
0,67,0,2
0,62,118,0
0,55,112,0
0,42,123,1
0,40,117,0
0,40,0,1
0,42,0,0
0,67,112,0
0,55,0,3
0,59,0,1
0,62,0,3
0,57,0,33
0,38,0,2
0,38,0,0
0,67,0,1
0,33,56,2
0,33,57,0
0,62,0,1
0,36,86,0
0,36,0,1
0,62,108,0
0,67,114,1
0,50,127,2
0,67,0,25
0,55,0,7
0,50,79,1
0,50,0,3
0,33,0,4
0,33,0,0
0,62,0,2
0,50,89,0
0,38,95,1
0,57,96,0
0,38,96,0
0,62,118,2
0,42,105,0
0,36,113,0
0,36,0,1
0,42,0,0
0,57,114,0
0,66,104,1
0,62,111,2
0,38,0,36
0,38,0,0
0,38,85,7
0,38,86,0
0,36,103,1
0,36,0,1
0,38,0,30
0,38,0,0
0,62,0,15
0,38,90,0
0,40,119,0
0,42,123,0
0,38,91,0
0,42,0,1
0,40,0,0
0,66,0,0
0,57,0,0
0,57,110,1
0,62,117,1
0,66,102,0
0,66,0,41
0,38,0,0
0,38,0,0
0,33,71,3
0,33,72,0
0,57,0,3
0,62,0,0
0,36,99,0
0,36,0,1
0,66,119,0
0,62,116,0
0,57,111,0
0,33,0,41
0,33,0,0
0,42,111,3
0,42,112,0
0,42,107,1
0,42,0,1
0,66,0,39
0,42,0,5
0,42,0,0
0,62,0,2
0,57,0,1
0,43,85,0
0,62,114,0
0,36,107,0
0,43,86,0
0,36,0,1
0,66,120,1
0,57,94,1
0,50,0,37
0,57,0,7
0,66,0,1
0,62,0,0
0,57,105,0
0,40,123,0
0,40,0,1
0,62,116,0
0,42,123,1
0,42,0,1
0,66,116,0
0,62,0,13
0,57,0,3
0,50,0,9
0,43,0,14
0,43,0,0
0,48,127,2
0,45,85,0
0,45,86,0
0,66,0,1
0,36,88,0
0,36,0,1
0,62,0,2
0,62,100,1
0,66,109,0
0,57,0,1
0,50,86,3
0,57,100,2
0,45,0,1
0,62,0,0
0,45,0,0
0,66,0,2
0,38,96,1
0,36,115,0
0,38,97,0
0,36,0,1
0,42,126,0
0,42,0,1
0,62,119,0
0,66,106,1
0,57,101,0
0,62,113,1
0,48,0,19
0,53,127,0
0,36,95,2
0,36,0,1
0,38,0,7
0,38,0,0
0,53,0,1
0,57,0,2
0,55,127,0
0,62,0,2
0,50,0,0
0,38,102,0
0,40,114,0
0,38,103,0
0,40,0,1
0,66,0,1
0,57,117,0
0,50,83,0
0,42,113,0
0,42,0,1
0,66,115,0
0,62,121,0
0,38,0,2
0,38,0,0
0,33,60,3
0,33,61,0
0,36,110,1
0,36,0,1
0,66,0,1
0,62,0,1
0,66,119,0
0,57,0,1
0,62,116,0
0,57,105,1
0,33,0,39
0,33,0,0
0,55,0,1
0,38,90,0
0,38,91,0
0,60,127,1
0,42,100,1
0,42,0,1
0,38,0,21
0,38,0,0
0,66,0,9
0,60,0,5
0,62,0,1
0,62,127,0
0,57,0,1
0,38,96,1
0,62,112,0
0,36,103,0
0,38,97,0
0,36,0,1
0,66,118,0
0,57,90,0
0,50,0,25
0,57,0,1
0,62,0,0
0,66,0,2
0,50,83,0
0,57,117,0
0,62,0,2
0,66,112,0
0,62,116,0
0,40,117,0
0,40,0,1
0,42,123,0
0,42,0,1
0,57,0,0
0,50,0,3
0,66,0,14
0,38,0,4
0,38,0,0
0,62,0,2
0,66,103,0
0,33,68,0
0,62,102,0
0,36,88,0
0,33,69,0
0,36,0,1
0,62,0,2
0,57,0,4
0,66,0,0
0,53,90,2
0,57,109,2
0,50,0,6
0,60,115,1
0,33,0,1
0,33,0,0
0,53,90,2
0,38,86,1
0,60,118,0
0,57,55,0
0,38,87,0
0,64,100,1
0,36,113,1
0,42,105,0
0,42,0,1
0,36,0,0
0,64,113,0
0,36,96,46
0,36,0,1
0,38,0,20
0,38,0,0
0,57,0,17
0,60,0,5
0,53,0,1
0,53,96,1
0,64,0,1
0,38,90,1
0,60,117,0
0,64,94,0
0,42,123,0
0,40,112,0
0,38,91,0
0,40,0,1
0,42,0,0
0,57,118,0
0,38,0,43
0,38,0,0
0,33,62,3
0,33,63,0
0,64,0,1
0,64,120,1
0,60,0,1
0,57,0,0
0,36,103,0
0,36,0,1
0,53,0,0
0,57,116,0
0,60,118,0
0,53,90,1
0,33,0,40
0,33,0,0
0,38,86,3
0,38,87,0
0,42,107,1
0,42,0,1
0,62,0,20
0,38,0,10
0,38,0,0
0,64,0,11
0,63,127,1
0,60,0,1
0,57,0,0
0,64,119,0
0,38,85,1
0,60,116,0
0,36,112,0
0,38,86,0
0,36,0,1
0,57,99,1
0,63,0,3
0,60,127,1
0,60,0,2
0,53,0,0
0,57,127,2
0,57,0,1
0,60,0,0
0,53,84,0
0,57,116,0
0,64,0,1
0,42,123,0
0,40,119,0
0,40,0,1
0,42,0,0
0,64,97,0
0,60,119,0
0,64,0,3
0,60,0,3
0,57,0,2
0,53,0,6
0,53,0,13
0,60,127,2
0,38,0,1
0,38,0,0
0,64,0,0
0,57,0,0
0,33,59,3
0,33,60,0
0,64,107,1
0,36,103,1
0,36,0,1
0,60,0,0
0,60,84,1
0,57,0,2
0,60,0,5
0,55,85,12
0,64,0,2
0,60,0,6
0,60,127,1
0,33,0,1
0,33,0,0
0,59,100,0
0,50,93,0
0,38,88,1
0,55,122,0
0,38,89,0
0,42,126,1
0,36,109,0
0,36,0,1
0,42,0,0
0,62,118,1
0,62,114,0
0,67,105,1
0,36,103,6
0,36,0,1
0,38,0,2
0,38,0,0
0,62,0,5
0,67,0,2
0,55,0,1
0,62,118,1
0,55,116,0
0,38,92,1
0,40,115,0
0,42,113,0
0,38,93,0
0,42,0,1
0,40,0,0
0,67,106,0
0,38,0,42
0,60,0,0
0,38,0,0
0,33,59,0
0,33,60,0
0,67,0,1
0,60,127,0
0,62,0,1
0,36,109,0
0,36,0,1
0,55,0,0
0,62,116,0
0,67,118,0
0,55,114,1
0,60,0,2
0,33,0,11
0,33,0,0
0,55,127,0
0,38,92,0
0,38,93,0
0,42,100,1
0,42,0,1
0,38,0,5
0,38,0,0
0,55,0,6
0,67,0,3
0,54,127,0
0,62,0,4
0,38,95,1
0,67,117,0
0,38,96,0
0,62,114,1
0,36,103,1
0,36,0,1
0,55,0,1
0,62,0,1
0,67,0,2
0,55,119,3
0,62,116,1
0,67,110,0
0,40,117,3
0,42,123,0
0,42,0,1
0,40,0,0
0,55,0,6
0,62,0,4
0,59,0,1
0,54,0,9
0,67,0,0
0,38,0,1
0,38,0,0
0,50,127,1
0,62,0,1
0,67,109,0
0,33,64,1
0,62,98,0
0,33,65,0
0,36,86,1
0,36,0,1
0,50,81,6
0,67,0,6
0,57,99,2
0,55,0,1
0,50,0,2
0,62,0,0
0,33,0,1
0,33,0,0
0,45,63,0
0,50,99,0
0,62,117,0
0,57,113,0
0,38,74,0
0,38,75,0
0,66,110,0
0,62,115,0
0,36,113,1
0,42,105,0
0,42,0,1
0,36,0,0
0,38,0,28
0,38,0,0
0,38,77,11
0,38,78,0
0,36,103,2
0,36,0,1
0,38,0,16
0,38,0,0
0,62,0,24
0,66,0,2
0,57,0,0
0,57,114,2
0,62,120,0
0,38,96,1
0,66,114,0
0,46,123,0
0,38,97,0
0,46,0,1
0,38,0,43
0,38,0,0
0,33,65,3
0,33,66,0
0,66,0,2
0,57,0,2
0,62,0,0
0,66,117,0
0,50,0,1
0,57,113,0
0,62,110,0
0,50,77,1
0,40,58,19
0,40,0,1
0,40,77,12
0,40,0,1
0,33,0,6
0,33,0,0
0,38,93,3
0,38,94,0
0,36,107,2
0,40,122,0
0,40,0,1
0,36,0,0
0,40,88,22
0,40,0,1
0,62,0,22
0,66,0,0
0,66,116,1
0,45,100,2
0,45,0,1
0,62,112,0
0,45,111,21
0,45,0,1
0,57,0,18
0,38,0,1
0,38,0,0
0,62,0,2
0,66,0,1
0,33,77,0
0,57,116,0
0,62,120,0
0,33,78,0
0,43,125,1
0,43,0,1
0,66,112,0
0,57,0,18
0,62,0,1
0,43,127,4
0,43,0,1
0,41,115,22
0,41,0,1
0,36,88,0
0,36,0,1
0,66,0,0
0,50,0,1
0,62,0,0
0,62,110,1
0,66,110,1
0,41,127,19
0,41,0,1
0,50,83,9
0,57,102,9
0,50,0,1
0,50,0,0
0,33,0,2
0,66,0,0
0,33,0,0
0,62,0,0
0,57,0,3
0,38,84,0
0,50,101,0
0,36,115,0
0,38,85,0
0,36,0,1
0,57,118,0
0,62,116,0
0,57,22,0
0,50,23,0
0,62,22,0
0,62,90,0
0,57,91,0
0,50,88,0
0,62,115,0
0,49,92,0
0,49,0,1
0,66,109,1
0,36,95,45
0,36,0,1
0,62,0,17
0,38,0,5
0,38,0,0
0,57,0,1
0,50,0,10
0,57,0,8
0,50,0,2
0,62,0,2
0,66,0,0
0,50,101,1
0,57,119,0
0,57,0,1
0,50,0,0
0,62,0,0
0,38,88,0
0,62,120,0
0,62,80,0
0,57,96,0
0,50,71,0
0,40,114,0
0,38,89,0
0,40,0,1
0,66,109,0
0,57,23,0
0,62,19,0
0,50,18,0
0,42,113,1
0,42,0,1
0,38,0,41
0,38,0,0
0,33,49,3
0,33,50,0
0,36,110,1
0,36,0,1
0,66,0,1
0,62,0,1
0,62,114,1
0,66,120,0
0,57,0,17
0,62,0,1
0,50,0,8
0,33,0,15
0,33,0,0
0,62,0,3
0,50,0,0
0,57,0,0
0,38,84,0
0,62,79,0
0,57,98,0
0,50,78,0
0,38,85,0
0,50,20,1
0,62,19,0
0,57,24,0
0,42,100,0
0,42,0,1
0,38,0,23
0,38,0,0
0,62,0,0
0,66,0,15
0,62,0,2
0,66,118,4
0,57,0,1
0,62,114,0
0,50,0,1
0,62,0,0
0,38,88,0
0,57,95,0
0,62,80,0
0,52,100,0
0,36,103,0
0,38,89,0
0,36,0,1
0,57,0,0
0,50,0,0
0,59,25,0
0,62,19,0
0,52,26,0
0,57,0,1
0,59,104,0
0,50,0,40
0,62,0,0
0,57,0,0
0,66,0,3
0,50,94,0
0,57,114,1
0,62,120,0
0,66,107,1
0,40,117,2
0,40,0,1
0,42,123,0
0,42,0,1
0,62,0,1
0,62,0,13
0,57,0,4
0,66,0,22
0,59,0,1
0,38,0,1
0,38,0,0
0,62,0,2
0,66,117,0
0,62,96,0
0,62,0,1
0,50,0,0
0,52,0,0
0,33,64,0
0,62,110,0
0,60,110,0
0,53,107,0
0,36,88,0
0,33,65,0
0,36,0,1
0,52,0,0
0,59,0,0
0,53,27,0
0,62,23,0
0,62,0,13
0,66,0,7
0,57,0,0
0,53,86,12
0,50,0,5
0,33,0,7
0,33,0,0
0,57,103,0
0,45,0,1
0,57,107,1
0,60,100,0
0,53,99,0
0,72,118,0
0,38,86,1
0,38,87,0
0,62,0,1
0,64,72,0
0,60,29,0
0,42,105,1
0,36,113,0
0,36,0,1
0,42,0,0
0,60,113,3
0,64,112,7
0,36,96,36
0,36,0,1
0,38,0,20
0,38,0,0
0,72,0,13
0,60,0,7
