track,note,velocity,time
1,59,107,2037
1,59,0,101
1,57,98,19
1,57,0,54
1,55,98,6
1,55,0,84
1,54,76,36
1,54,0,56
1,52,80,4
1,52,0,359
1,55,93,61
1,55,0,24
1,55,93,36
1,55,0,59
1,52,72,1
1,52,0,37
1,55,102,23
1,52,80,60
1,55,0,3
1,52,0,34
1,55,89,23
1,52,64,60
1,55,0,9
1,52,0,28
1,57,89,23
1,57,0,56
1,59,93,4
1,59,0,39
1,59,98,81
1,59,0,287
1,57,102,73
1,57,0,40
1,57,98,80
1,57,0,22
1,57,93,38
1,57,0,55
1,55,89,5
1,55,0,52
1,57,93,8
1,57,0,50
1,55,89,10
1,55,0,40
1,57,102,20
1,57,0,46
1,59,98,14
1,59,0,39
1,59,113,81
1,59,0,255
1,64,107,285
1,64,0,57
1,62,102,33
1,62,0,70
1,64,85,20
1,64,0,48
1,62,98,12
1,62,0,110
1,59,107,10
1,59,0,349
1,59,113,251
1,59,0,109
1,57,89,11
1,57,0,50
1,55,85,10
1,55,0,100
1,54,76,20
1,54,0,56
1,52,80,4
1,52,0,359
1,55,93,61
1,55,0,24
1,55,93,36
1,55,0,59
1,52,72,1
1,52,0,37
1,55,102,23
1,52,80,60
1,55,0,3
1,52,0,34
1,55,89,23
1,52,64,60
1,55,0,9
1,52,0,28
1,57,89,23
1,57,0,56
1,59,93,4
1,59,0,39
1,59,98,81
1,59,0,287
1,57,102,73
1,57,0,40
1,57,98,80
1,57,0,22
1,57,93,38
1,57,0,55
1,55,89,5
1,55,0,52
1,57,93,8
1,57,0,50
1,55,89,10
1,55,0,40
1,57,102,20
1,57,0,46
1,59,98,14
1,59,0,39
1,59,113,81
1,59,0,255
1,64,107,285
1,64,0,57
1,62,102,33
1,62,0,70
1,64,85,20
1,64,0,48
1,67,107,12
1,67,0,91
1,64,113,25
1,64,0,31
1,62,98,89
1,62,0,21
1,59,89,17
1,59,0,58
1,57,64,2
1,57,0,57
1,55,72,3
1,55,0,198
1,54,93,102
1,54,0,36
1,54,72,24
1,54,0,44
1,54,98,76
1,54,0,213
1,47,98,27
1,47,0,55
1,54,76,5
1,54,0,39
1,54,76,21
1,54,0,39
1,54,107,81
1,54,0,206
1,47,85,34
1,47,0,48
1,54,89,12
1,54,0,37
1,54,80,23
1,54,0,43
1,54,107,77
1,54,0,288
1,59,107,252
1,59,0,101
1,57,98,19
1,57,0,54
1,55,98,6
1,55,0,84
1,54,76,36
1,54,0,56
1,52,80,4
1,52,0,359
1,55,93,61
1,55,0,24
1,55,93,36
1,55,0,59
1,52,72,1
1,52,0,37
1,55,102,23
1,52,80,60
1,55,0,3
1,52,0,34
1,55,89,23
1,52,64,60
1,55,0,9
1,52,0,28
1,57,89,23
1,57,0,56
1,59,93,4
1,59,0,39
1,59,98,81
1,59,0,287
1,57,102,73
1,57,0,40
1,57,98,80
1,57,0,22
1,57,93,38
1,57,0,55
1,55,89,5
1,55,0,52
1,57,93,8
1,57,0,50
1,55,89,10
1,55,0,40
1,57,102,20
1,57,0,46
1,59,98,14
1,59,0,39
1,59,113,81
1,59,0,255
1,64,107,285
1,64,0,57
1,62,102,33
1,62,0,70
1,64,85,20
1,64,0,48
1,67,113,12
1,67,0,39
1,67,113,25
1,67,0,25
1,66,107,10
1,66,0,102
1,67,102,18
1,67,0,39
1,66,102,22
1,66,0,59
1,67,80,1
1,66,107,60
1,67,0,14
1,66,0,46
1,64,102,0
1,64,0,297
1,67,107,63
1,64,89,17
1,67,0,7
1,64,0,44
1,62,93,9
1,62,0,59
1,59,102,1
1,59,0,60
1,57,98,0
1,57,0,49
1,55,113,11
1,55,0,104
1,57,80,16
1,59,113,60
1,57,0,2
1,59,0,45
1,59,107,73
1,59,0,258
1,57,113,102
1,57,0,53
1,57,107,67
1,57,0,29
1,57,107,31
1,57,0,55
1,55,98,5
1,57,102,60
1,55,0,1
1,57,0,57
1,55,107,2
1,55,0,53
1,57,93,7
1,59,113,60
1,57,0,8
1,59,0,44
1,59,113,68
1,59,0,188
1,64,113,232
1,64,0,69
1,64,113,51
1,64,0,56
1,62,107,4
1,62,0,57
1,64,107,3
1,64,0,91
1,67,119,29
1,67,0,277
1,69,98,23
1,69,0,71
1,71,107,49
1,71,0,114
1,74,102,6
1,74,0,55
1,71,98,5
1,69,93,60
1,71,0,4
1,69,0,56
1,67,102,0
1,67,0,131
1,54,93,109
1,54,0,36
1,54,72,24
1,54,0,44
1,54,98,76
1,54,0,213
1,47,98,27
1,47,0,55
1,54,76,5
1,54,0,39
1,54,76,21
1,54,0,39
1,54,107,81
1,54,0,206
1,47,85,34
1,47,0,48
1,54,89,12
1,54,0,37
1,54,80,23
1,54,0,43
1,54,107,77
1,54,0,288
1,59,107,252
1,59,0,101
1,57,98,19
1,57,0,54
1,55,98,6
1,55,0,60
1,54,93,60
1,52,93,60
1,54,0,3
1,52,0,345
1,64,119,1632
1,62,107,180
1,64,0,3
1,64,89,57
1,62,0,1
1,62,107,59
1,64,0,6
1,62,0,161
1,59,107,13
1,59,0,423
1,57,93,57
1,57,0,20
1,57,89,40
1,57,0,52
1,55,93,8
1,55,0,56
1,57,102,4
1,57,0,103
1,59,102,17
1,59,0,91
1,59,93,29
1,59,0,22
1,59,107,38
1,59,0,292
1,64,107,188
1,64,0,174
1,62,102,6
1,64,85,60
1,62,0,5
1,64,0,50
1,62,89,5
1,62,0,160
1,59,107,20
1,59,0,290
1,57,89,190
1,57,0,22
1,57,93,38
1,57,0,54
1,55,89,6
1,57,93,60
1,55,0,3
1,57,0,69
1,59,93,48
1,59,0,409
1,64,107,251
1,64,0,211
1,62,93,29
1,62,0,30
1,64,89,0
1,64,0,27
1,67,102,3
1,67,0,160
1,64,107,20
1,64,0,294
1,59,127,186
1,59,0,38
1,57,102,82
1,57,0,47
1,55,98,13
1,55,0,53
1,57,85,7
1,57,0,46
1,59,93,14
1,59,0,130
1,59,102,50
1,59,0,303
1,64,113,177
1,64,0,175
1,62,113,5
1,62,0,60
1,64,76,0
1,64,0,60
1,62,107,0
1,62,0,119
1,59,98,61
1,59,0,292
1,57,107,188
1,57,0,19
1,57,102,41
1,57,0,52
1,55,98,8
1,55,0,43
1,57,107,17
1,57,0,89
1,59,113,31
1,59,0,315
1,54,93,165
1,54,0,36
1,54,72,24
1,54,0,44
1,54,98,76
1,54,0,213
1,47,98,27
1,47,0,55
1,54,76,5
1,54,0,39
1,54,76,21
1,54,0,39
1,54,107,81
1,54,0,206
1,47,85,34
1,47,0,48
1,54,89,12
1,54,0,37
1,54,80,23
1,54,0,43
1,54,107,77
1,54,0,288
1,59,107,252
1,59,0,101
1,57,98,19
1,57,0,54
1,55,98,6
1,55,0,60
1,54,107,60
1,54,0,52
1,52,93,68
1,52,0,274
1,59,89,86
1,57,85,60
1,59,0,1
1,57,0,51
1,55,98,8
1,55,0,42
1,57,93,18
1,57,0,57
1,55,102,3
1,55,0,54
1,54,107,6
1,54,0,58
1,52,107,2
1,52,0,51
1,55,98,9
1,55,0,58
1,57,89,2
1,57,0,51
1,57,93,69
1,57,0,259
1,59,113,101
1,59,0,54
1,59,102,66
1,57,93,60
1,59,0,7
1,57,0,46
1,55,93,7
1,55,0,99
1,52,102,21
1,52,0,58
1,54,102,62
1,55,93,60
1,54,0,4
1,55,0,39
1,57,102,17
1,57,0,56
1,57,98,64
1,57,0,55
1,59,89,5
1,59,0,38
1,60,107,22
1,60,0,158
1,62,98,142
1,62,0,53
1,62,107,67
1,62,0,56
1,64,93,4
1,64,0,49
1,62,119,11
1,62,0,117
1,59,89,3
1,59,0,46
1,60,76,14
1,60,0,54
1,59,98,6
1,57,93,120
1,59,0,4
1,57,0,48
1,59,64,8
1,59,0,56
1,57,68,4
1,55,102,0
1,57,0,56
1,55,0,3
1,54,98,61
1,54,0,239
1,54,93,3961
1,54,0,36
1,54,72,24
1,54,0,44
1,54,98,76
1,54,0,213
1,47,98,27
1,47,0,55
1,54,76,5
1,54,0,39
1,54,76,21
1,54,0,39
1,54,107,81
1,54,0,206
1,47,85,34
1,47,0,48
1,54,89,12
1,54,0,37
1,54,80,23
1,54,0,43
1,54,107,77
1,54,0,288
1,59,107,252
1,59,0,101
1,57,98,19
1,57,0,54
1,55,98,6
1,55,0,84
1,54,76,36
1,54,0,56
1,52,80,4
1,52,0,359
1,55,93,61
1,55,0,24
1,55,93,36
1,55,0,59
1,52,72,1
1,52,0,37
1,55,102,23
1,52,80,60
1,55,0,3
1,52,0,34
1,55,89,23
1,52,64,60
1,55,0,9
1,52,0,28
1,57,89,23
1,57,0,56
1,59,93,4
1,59,0,39
1,59,98,81
1,59,0,287
1,57,102,73
1,57,0,40
1,57,98,80
1,57,0,22
1,57,93,38
1,57,0,55
1,55,89,5
1,55,0,52
1,57,93,8
1,57,0,50
1,55,89,10
1,55,0,40
1,57,102,20
1,57,0,46
1,59,98,14
1,59,0,39
1,59,113,81
1,59,0,255
1,64,107,285
1,64,0,57
1,62,102,33
1,62,0,70
1,64,85,20
1,64,0,48
1,67,113,12
1,67,0,39
1,67,113,25
1,67,0,25
1,66,107,10
1,66,0,102
1,67,102,18
1,67,0,39
1,66,102,22
1,66,0,59
1,67,80,1
1,66,107,60
1,67,0,14
1,66,0,46
1,64,102,0
1,64,0,297
1,67,107,63
1,64,89,17
1,67,0,7
1,64,0,44
1,62,93,9
1,62,0,59
1,59,102,1
1,59,0,60
1,57,98,0
1,57,0,49
1,55,113,11
1,55,0,104
1,57,80,16
1,59,113,60
1,57,0,2
1,59,0,45
1,59,107,73
1,59,0,258
1,57,113,102
1,57,0,53
1,57,107,67
1,57,0,29
1,57,107,31
1,57,0,55
1,55,98,5
1,57,102,60
1,55,0,1
1,57,0,57
1,55,107,2
1,55,0,53
1,57,93,7
1,59,113,60
1,57,0,8
1,59,0,44
1,59,113,68
1,59,0,188
1,64,113,232
1,64,0,69
1,64,113,51
1,64,0,56
1,62,107,4
1,62,0,57
1,64,107,3
1,64,0,91
1,67,119,29
1,67,0,277
1,69,98,23
1,69,0,71
1,71,107,49
1,71,0,114
1,74,102,6
1,74,0,55
1,71,98,5
1,69,93,60
1,71,0,4
1,69,0,56
1,67,102,0
1,67,0,131
1,54,93,109
1,54,0,36
1,54,72,24
1,54,0,44
1,54,98,76
1,54,0,213
1,47,98,27
1,47,0,55
1,54,76,5
1,54,0,39
1,54,76,21
1,54,0,39
1,54,107,81
1,54,0,206
1,47,85,34
1,47,0,48
1,54,89,12
1,54,0,37
1,54,80,23
1,54,0,43
1,54,107,77
1,54,0,288
1,59,107,492
1,59,0,477
1,63,107,3
1,63,0,496
1,67,113,224
1,67,0,184
1,66,89,56
1,66,0,58
1,67,80,2
1,66,113,60
1,67,0,4
1,66,0,49
1,64,107,7
1,64,0,193
1,67,113,47
1,67,0,34
1,64,98,86
1,64,0,52
1,62,93,8
1,62,0,50
1,59,113,10
1,59,0,52
1,57,93,8
1,57,0,58
1,55,98,2
1,55,0,60
1,52,107,0
1,52,0,60
1,55,102,0
1,55,0,41
1,57,113,19
1,57,0,62
1,57,113,58
1,57,0,67
1,59,119,53
1,59,0,39
1,59,113,21
1,59,0,75
1,52,113,225
1,52,0,62
2,48,107,353
2,48,0,175
2,47,98,5
2,47,0,83
2,48,93,217
2,48,0,163
2,47,102,17
2,47,0,64
2,48,102,236
2,47,102,180
2,48,0,1
2,47,0,27
2,44,89,92
2,42,89,60
2,44,0,20
2,42,0,32
2,39,89,8
2,39,0,54
2,35,107,6
2,35,0,52
2,35,107,68
2,35,0,291
2,28,107,69
2,28,0,152
2,40,107,28
2,40,0,49
2,33,113,11
2,33,0,33
2,33,102,27
2,33,0,83
2,31,89,37
2,31,0,175
2,43,93,5
2,31,89,120
2,43,0,13
2,31,0,20
2,43,93,27
2,43,0,99
2,31,102,21
2,31,0,47
2,42,98,13
2,42,0,116
2,42,98,64
2,42,0,73
2,42,89,47
2,42,0,60
2,39,98,0
2,39,0,51
2,35,102,9
2,35,0,203
2,47,102,37
2,47,0,53
2,48,93,7
2,48,0,56
2,47,85,4
2,47,0,56
2,35,93,4
2,35,0,58
2,30,113,62
2,30,0,119
2,42,107,1
2,42,0,105
2,30,113,15
2,30,0,47
2,31,107,13
2,31,0,49
2,32,102,11
2,32,0,43
2,33,113,17
2,33,0,96
2,33,102,24
2,33,0,110
2,45,102,10
2,33,98,120
2,45,0,9
2,40,93,51
2,33,0,2
2,40,0,74
2,43,93,44
2,43,0,104
2,43,102,16
2,43,0,83
2,38,76,7
2,31,102,30
2,38,0,3
2,31,0,56
2,43,98,1
2,31,93,60
2,43,0,33
2,31,0,20
2,43,98,7
2,43,0,31
2,36,102,29
2,36,0,32
2,35,107,88
2,35,0,261
2,28,107,99
2,28,0,152
2,40,107,28
2,40,0,49
2,33,113,11
2,33,0,33
2,33,102,27
2,33,0,83
2,31,89,37
2,31,0,175
2,43,93,5
2,31,89,120
2,43,0,13
2,31,0,20
2,43,93,27
2,43,0,99
2,31,102,21
2,31,0,47
2,42,98,13
2,42,0,116
2,42,98,64
2,42,0,73
2,42,89,47
2,42,0,60
2,39,98,0
2,39,0,51
2,35,102,9
2,35,0,203
2,47,102,37
2,47,0,53
2,48,93,7
2,48,0,56
2,47,85,4
2,47,0,56
2,35,93,4
2,35,0,58
2,30,113,62
2,30,0,119
2,42,107,1
2,42,0,105
2,30,113,15
2,30,0,47
2,31,107,13
2,31,0,49
2,32,102,11
2,32,0,43
2,33,113,17
2,33,0,96
2,33,102,24
2,33,0,110
2,45,102,10
2,33,98,120
2,45,0,9
2,40,93,51
2,33,0,2
2,40,0,74
2,43,93,44
2,43,0,104
2,43,102,16
2,43,0,83
2,38,76,7
2,31,102,30
2,38,0,3
2,31,0,56
2,43,98,1
2,31,93,60
2,43,0,33
2,31,0,20
2,50,102,7
2,43,98,0
2,43,0,9
2,50,0,5
2,43,93,76
2,43,0,21
2,43,93,61
2,43,0,56
2,38,72,4
2,31,98,60
2,38,0,1
2,31,0,59
2,43,107,0
2,43,0,58
2,31,107,2
2,31,0,34
2,48,107,26
2,48,0,175
2,47,98,5
2,47,0,83
2,48,93,217
2,48,0,163
2,47,102,17
2,47,0,64
2,48,102,236
2,47,102,180
2,48,0,1
2,47,0,27
2,44,89,92
2,42,89,60
2,44,0,20
2,42,0,32
2,39,89,8
2,39,0,54
2,35,107,6
2,35,0,52
2,35,107,68
2,35,0,291
2,28,107,69
2,28,0,152
2,40,107,28
2,40,0,49
2,33,113,11
2,33,0,33
2,33,102,27
2,33,0,83
2,31,89,37
2,31,0,175
2,43,93,5
2,31,89,120
2,43,0,13
2,31,0,20
2,43,93,27
2,43,0,99
2,31,102,21
2,31,0,47
2,42,98,13
2,42,0,116
2,42,98,64
2,42,0,73
2,42,89,47
2,42,0,60
2,39,98,0
2,39,0,51
2,35,102,9
2,35,0,203
2,47,102,37
2,47,0,53
2,48,93,7
2,48,0,56
2,47,85,4
2,47,0,56
2,35,93,4
2,35,0,58
2,30,113,62
2,30,0,119
2,42,107,1
2,42,0,105
2,30,113,15
2,30,0,47
2,31,107,13
2,31,0,49
2,32,102,11
2,32,0,43
2,33,113,17
2,33,0,96
2,33,102,24
2,33,0,110
2,45,102,10
2,33,98,120
2,45,0,9
2,40,93,51
2,33,0,2
2,40,0,74
2,43,93,44
2,43,0,104
2,43,102,16
2,43,0,83
2,38,76,7
2,31,102,30
2,38,0,3
2,31,0,56
2,43,98,1
2,31,93,60
2,43,0,33
2,31,0,20
2,43,98,7
2,43,0,31
2,36,102,29
2,36,0,32
2,35,107,88
2,35,0,261
2,28,107,99
2,28,0,152
2,40,107,28
2,40,0,49
2,33,113,11
2,33,0,33
2,33,102,27
2,33,0,83
2,31,89,37
2,31,0,175
2,43,93,5
2,31,89,120
2,43,0,13
2,31,0,20
2,43,93,27
2,43,0,99
2,31,102,21
2,31,0,47
2,42,98,13
2,42,0,116
2,42,98,64
2,42,0,73
