track,note,velocity,time
1,63,101,2807
1,63,0,37
1,63,93,26
1,63,0,27
1,64,103,31
1,64,0,34
1,63,101,24
1,63,0,38
1,61,84,21
1,61,0,96
1,63,93,17
1,63,0,42
1,64,87,19
1,64,0,17
1,66,93,14
1,66,0,120
1,64,93,30
1,64,0,44
1,63,77,20
1,63,0,21
1,59,93,19
1,59,0,118
1,62,103,22
1,62,0,56
1,59,93,4
1,59,0,14
1,62,99,16
1,62,0,94
1,61,101,3
1,59,99,120
1,61,0,2
1,61,93,107
1,59,0,5
1,61,0,190
1,56,93,51
1,56,0,24
1,59,96,40
1,59,0,29
1,62,103,27
1,62,0,27
1,66,100,34
1,66,0,25
1,64,96,39
1,64,0,54
1,63,84,115
1,63,0,45
1,63,77,18
1,63,0,36
1,64,87,25
1,64,0,39
1,63,93,20
1,63,0,44
1,61,101,15
1,61,0,98
1,63,101,23
1,63,0,32
1,64,84,22
1,64,0,27
1,66,93,10
1,66,0,68
1,64,90,76
1,64,0,41
1,63,101,20
1,63,0,23
1,59,93,12
1,59,0,112
1,62,99,27
1,59,90,65
1,62,0,1
1,59,0,14
1,62,103,17
1,62,0,88
1,61,99,9
1,59,94,125
1,61,0,21
1,59,0,90
1,61,93,7
1,61,0,155
1,62,99,736
1,62,0,42
1,62,93,17
1,62,0,36
1,62,96,24
1,62,0,35
1,62,93,24
1,62,0,30
1,65,107,29
1,65,0,37
1,67,68,20
1,67,0,40
1,69,90,21
1,69,0,99
1,67,103,24
1,67,0,238
1,62,93,253
1,62,0,34
1,62,87,22
1,62,0,26
1,62,84,31
1,62,0,29
1,62,87,30
1,62,0,25
1,65,90,34
1,65,0,41
1,67,99,19
1,67,0,26
1,69,99,31
1,69,0,110
1,67,103,12
1,67,0,342
1,62,96,146
1,62,0,24
1,62,87,30
1,62,0,25
1,62,93,33
1,62,0,25
1,62,90,34
1,62,0,23
1,65,96,35
1,65,0,45
1,67,96,18
1,67,0,22
1,69,103,37
1,69,0,110
1,67,99,11
1,67,0,368
1,67,99,111
1,67,0,61
1,65,96,3
1,65,0,50
1,62,87,6
1,62,0,30
1,67,103,33
1,67,0,106
1,65,100,11
1,65,0,181
1,63,93,491
1,63,0,33
1,63,77,26
1,63,0,31
1,64,99,28
1,64,0,44
1,63,93,16
1,63,0,16
1,61,109,47
1,61,0,86
1,63,109,25
1,63,0,28
1,64,90,32
1,64,0,25
1,66,84,6
1,66,0,108
1,64,96,40
1,64,0,37
1,63,84,19
1,63,0,14
1,59,93,27
1,59,0,108
1,62,103,31
1,62,0,51
1,59,87,16
1,59,0,12
1,62,93,19
1,62,0,79
1,61,96,8
1,61,0,101
1,59,96,21
1,59,0,93
1,61,93,23
1,61,0,179
1,71,87,67
1,71,0,34
1,71,96,27
1,71,0,26
1,71,99,28
1,71,0,25
1,69,99,37
1,69,0,32
1,66,96,28
1,66,0,98
1,63,93,88
1,63,0,36
1,63,84,22
1,63,0,36
1,64,90,24
1,64,0,53
1,63,93,4
1,63,0,49
1,61,93,12
1,61,0,94
1,63,93,18
1,63,0,47
1,64,90,17
1,64,0,24
1,66,93,10
1,66,0,115
1,64,93,36
1,64,0,45
1,63,84,15
1,63,0,17
1,59,87,13
1,59,0,117
1,62,99,33
1,62,0,54
1,59,74,6
1,59,0,12
1,62,93,15
1,62,0,87
1,61,101,6
1,61,0,122
1,59,90,0
1,59,0,105
1,61,93,16
1,61,0,139
1,62,96,756
1,62,0,29
1,62,90,26
1,62,0,28
1,62,96,33
1,62,0,33
1,62,87,26
1,62,0,27
1,65,96,35
1,65,0,42
1,67,99,18
1,67,0,25
1,69,107,33
1,69,0,98
1,67,103,25
1,67,0,261
1,62,96,223
1,62,0,26
1,62,84,31
1,62,0,24
1,62,90,33
1,62,0,30
1,62,74,27
1,62,0,32
1,65,87,28
1,65,0,47
1,67,96,15
1,67,0,27
1,69,90,31
1,69,0,110
1,67,93,12
1,67,0,235
1,62,90,256
1,62,0,25
1,62,87,27
1,62,0,26
1,62,87,34
1,62,0,24
1,62,84,33
1,62,0,22
1,65,90,39
1,65,0,39
1,67,99,21
1,67,0,23
1,69,99,38
1,69,0,110
1,67,96,7
1,67,0,366
1,67,99,122
1,67,0,55
1,65,96,5
1,65,0,50
1,62,90,5
1,67,102,64
1,62,0,1
1,67,0,113
1,65,103,9
1,65,0,146
1,63,93,4344
1,63,0,43
1,63,84,23
1,63,0,33
1,64,81,29
1,64,0,46
1,63,93,13
1,63,0,40
1,61,101,18
1,61,0,103
1,63,101,15
1,63,0,26
1,64,81,32
1,64,0,42
1,66,84,18
1,66,0,41
1,66,84,21
1,66,0,35
1,66,90,22
1,66,0,53
1,66,84,10
1,66,0,48
1,62,84,15
1,62,0,38
1,59,87,21
1,59,0,40
1,62,99,21
1,62,0,54
1,59,81,4
1,59,0,15
1,62,99,21
1,62,0,81
1,61,93,9
1,61,0,108
1,59,96,11
1,59,0,110
1,61,93,15
1,61,0,168
1,71,93,69
1,71,0,29
1,71,93,29
1,71,0,33
1,71,90,25
1,71,0,30
1,69,93,28
1,66,93,33
1,69,0,6
1,66,0,142
1,63,101,63
1,63,0,39
1,63,84,23
1,63,0,34
1,64,90,25
1,64,0,43
1,63,93,12
1,63,0,34
1,61,101,24
1,61,0,34
1,61,84,24
1,61,0,36
1,63,93,23
1,63,0,29
1,64,84,29
1,64,0,38
1,66,88,32
1,66,0,44
1,66,93,16
1,64,96,60
1,66,0,4
1,64,0,29
1,63,93,22
1,63,0,19
1,59,96,16
1,59,0,114
1,62,99,26
1,59,93,65
1,62,0,2
1,59,0,14
1,62,99,17
1,62,0,81
1,61,101,9
1,59,96,118
1,61,0,5
1,61,84,126
1,59,0,2
1,61,0,123
1,62,99,762
1,62,0,34
1,62,81,24
1,62,0,35
1,62,96,28
1,62,0,29
1,62,93,29
1,62,0,22
1,65,96,39
1,65,0,44
1,67,93,14
1,67,0,26
1,69,93,34
1,69,0,91
1,67,103,34
1,67,0,254
1,62,96,227
1,62,0,36
1,62,81,23
1,62,0,31
1,62,90,28
1,62,0,31
1,62,87,28
1,62,0,27
1,65,99,35
1,65,0,32
1,67,90,26
1,67,0,30
1,69,96,32
1,69,0,97
1,67,103,21
1,67,0,234
1,62,96,253
1,62,0,27
1,62,81,29
1,62,0,31
1,62,87,29
1,62,0,27
1,62,87,31
1,62,0,21
1,65,99,38
1,65,0,37
1,67,96,25
1,67,0,22
1,69,103,37
1,69,0,93
1,67,103,25
1,67,0,403
1,67,103,78
1,67,0,60
1,65,84,3
1,65,0,55
1,62,81,2
1,62,0,32
1,67,103,28
1,67,0,109
1,65,103,8
1,65,0,165
1,62,93,504
1,62,0,39
1,62,87,20
1,62,0,35
1,62,87,22
1,62,0,30
1,62,93,29
1,62,0,24
1,65,99,34
1,65,0,39
1,67,103,21
1,67,0,24
1,69,99,35
1,69,0,93
1,67,99,30
1,67,0,266
1,62,96,213
1,62,0,35
1,62,84,27
1,62,0,25
1,62,90,32
1,62,0,26
1,62,90,35
1,62,0,20
1,65,103,40
1,65,0,39
1,67,96,21
1,67,0,25
1,69,103,35
1,69,0,94
1,67,96,27
1,67,0,250
1,62,96,234
1,62,0,27
1,62,90,33
1,62,0,27
1,62,90,29
1,62,0,29
1,62,93,33
1,62,0,19
1,65,96,40
1,65,0,34
1,67,99,23
1,67,0,25
1,69,99,35
1,69,0,114
1,67,103,7
1,67,0,251
1,62,96,231
1,62,0,33
1,62,81,27
1,62,0,29
1,62,90,30
1,62,0,29
1,62,84,30
1,62,0,21
1,65,96,39
1,65,0,39
1,67,93,21
1,67,0,24
1,69,96,34
1,69,0,90
1,67,96,33
1,67,0,16
1,62,99,6
1,62,0,5
1,62,79,3
1,62,0,26
1,62,90,27
1,62,0,26
1,62,90,21
1,62,0,11
1,65,96,13
1,65,0,18
1,67,99,6
1,67,0,26
1,69,99,1
1,69,0,20
1,67,99,19
1,67,0,10
1,62,93,4
1,62,0,10
1,62,84,0
1,62,0,25
1,62,84,26
1,62,0,23
1,62,84,22
1,62,0,12
1,65,99,14
1,65,0,21
1,67,90,6
1,67,0,25
1,69,96,32
1,69,0,14
1,67,96,9
1,67,0,4
1,62,93,9
1,62,0,9
1,62,84,3
1,62,0,27
1,62,84,29
1,62,0,26
1,62,87,23
1,62,0,11
1,65,96,14
1,65,0,21
1,67,93,7
1,67,0,26
1,69,93,2
1,69,0,3
1,67,96,19
1,67,0,20
1,62,93,7
1,62,0,5
1,62,87,2
1,62,0,26
1,62,90,28
1,62,0,28
1,62,84,21
1,62,0,15
1,65,99,16
1,65,0,20
1,67,93,7
1,67,0,2
1,69,93,2
1,69,0,26
1,67,96,24
1,67,0,16
2,35,103,400
2,35,0,40
2,35,103,20
2,35,0,39
2,35,99,21
2,35,0,40
2,35,99,20
2,35,0,40
2,33,100,20
2,33,0,42
2,33,104,18
2,33,0,39
2,33,103,21
2,33,0,39
2,33,103,21
2,33,0,38
2,32,105,22
2,32,0,42
2,32,103,18
2,32,0,31
2,32,104,29
2,32,0,36
2,32,105,24
2,32,0,27
2,31,99,33
2,31,0,43
2,31,104,17
2,31,0,42
2,31,106,18
2,31,0,42
2,31,104,18
2,31,0,35
2,30,99,25
2,30,0,44
2,30,102,16
2,30,0,40
2,30,103,20
2,30,0,42
2,30,103,18
2,30,0,39
2,30,105,21
2,30,0,42
2,30,103,18
2,30,0,44
2,30,101,16
2,30,0,31
2,30,99,29
2,30,0,17
2,40,105,43
2,40,0,36
2,40,103,24
2,40,0,30
2,37,102,30
2,37,0,34
2,38,104,26
2,38,0,148
2,35,99,632
2,35,0,32
2,35,103,28
2,35,0,33
2,35,106,27
2,35,0,37
2,35,103,23
2,35,0,35
2,33,105,25
2,33,0,44
2,33,98,16
2,33,0,42
2,33,101,18
2,33,0,44
2,33,106,16
2,33,0,36
2,32,99,24
2,32,0,41
2,32,105,19
2,32,0,37
2,32,97,23
2,32,0,44
2,32,105,16
2,32,0,32
2,31,99,28
2,31,0,42
2,31,103,18
2,31,0,40
2,31,104,20
2,31,0,45
2,31,105,15
2,31,0,34
2,30,105,26
2,30,0,39
2,30,104,21
2,30,0,40
2,30,105,20
2,30,0,42
2,30,103,18
2,30,0,39
2,30,104,21
2,30,0,43
2,30,102,17
2,30,0,36
2,30,100,24
2,30,0,38
2,29,102,22
2,29,0,31
2,28,104,29
2,28,0,171
2,35,103,309
2,35,0,40
2,35,103,20
2,35,0,39
2,35,99,21
2,35,0,40
2,35,99,20
2,35,0,40
2,33,100,20
2,33,0,42
2,33,104,18
2,33,0,39
2,33,103,21
2,33,0,39
2,33,103,21
2,33,0,38
2,32,105,22
2,32,0,42
2,32,103,18
2,32,0,31
2,32,104,29
2,32,0,36
2,32,105,24
2,32,0,27
2,31,99,33
2,31,0,43
2,31,104,17
2,31,0,42
2,31,106,18
2,31,0,42
2,31,104,18
2,31,0,35
2,30,99,25
2,30,0,44
2,30,102,16
2,30,0,40
2,30,103,20
2,30,0,42
2,30,103,18
2,30,0,39
2,30,105,21
2,30,0,42
2,30,103,18
2,30,0,44
2,30,101,16
2,30,0,31
2,30,99,29
2,30,0,17
2,40,105,43
2,40,0,36
2,40,103,24
2,40,0,30
2,37,102,30
2,37,0,34
2,38,104,26
2,38,0,148
2,43,105,392
2,43,0,40
2,43,103,20
2,43,0,30
2,43,99,30
2,43,0,30
2,43,97,30
2,43,0,30
2,41,102,30
2,41,0,44
2,41,96,16
2,41,0,44
2,41,97,16
2,41,0,46
2,41,99,14
2,41,0,40
2,36,97,20
2,36,0,38
2,36,97,22
2,36,0,41
2,36,98,19
2,36,0,37
2,36,97,23
2,36,0,26
2,41,104,34
2,41,0,95
2,42,103,25
2,42,0,75
2,43,105,45
2,43,0,41
2,43,101,19
2,43,0,42
2,43,100,18
2,43,0,43
2,43,99,17
2,43,0,45
2,41,105,15
2,41,0,40
2,41,103,20
2,41,0,46
2,41,101,14
2,41,0,40
2,41,104,20
2,41,0,40
2,36,97,20
2,36,0,38
2,36,97,22
2,36,0,45
2,36,101,15
2,36,0,36
2,36,100,24
2,36,0,27
2,41,98,33
2,41,0,98
2,42,95,22
2,42,0,72
2,43,101,48
2,43,0,37
2,43,97,23
2,43,0,44
2,43,99,16
2,43,0,39
2,43,98,21
2,43,0,36
2,41,105,24
2,41,0,36
2,41,97,24
2,41,0,36
2,41,101,24
2,41,0,40
2,41,98,20
2,41,0,33
2,36,103,27
2,36,0,48
2,36,105,12
2,36,0,39
2,36,102,21
2,36,0,64
2,36,100,26
2,36,0,11
2,36,101,19
2,36,0,47
2,38,98,13
2,38,0,36
2,40,103,24
2,40,0,36
2,41,97,24
2,41,0,30
2,43,104,30
2,41,96,60
2,43,0,13
2,41,0,30
2,38,99,17
2,38,0,21
2,41,105,39
2,41,0,232
2,40,99,68
2,40,0,54
2,43,102,6
2,45,101,60
2,43,0,3
2,45,0,21
2,33,105,36
2,33,0,156
2,34,103,24
2,34,0,97
2,35,99,23
2,35,0,32
2,35,103,28
2,35,0,33
2,35,106,27
2,35,0,37
2,35,103,23
2,35,0,35
2,33,105,25
2,33,0,44
2,33,98,16
2,33,0,42
2,33,101,18
2,33,0,44
2,33,106,16
2,33,0,36
2,32,99,24
2,32,0,41
2,32,105,19
2,32,0,37
2,32,97,23
2,32,0,44
2,32,105,16
2,32,0,32
2,31,99,28
2,31,0,42
2,31,103,18
2,31,0,40
2,31,104,20
2,31,0,45
2,31,105,15
2,31,0,34
2,30,105,26
2,30,0,39
2,30,104,21
2,30,0,40
2,30,105,20
2,30,0,42
2,30,103,18
2,30,0,39
2,30,104,21
2,30,0,43
2,30,102,17
2,30,0,36
2,30,100,24
2,30,0,38
2,29,102,22
2,29,0,31
2,28,104,29
2,28,0,171
2,35,103,309
2,35,0,40
2,35,103,20
2,35,0,39
2,35,99,21
2,35,0,40
2,35,99,20
2,35,0,40
2,33,100,20
2,33,0,42
2,33,104,18
2,33,0,39
2,33,103,21
2,33,0,39
2,33,103,21
2,33,0,38
2,32,105,22
2,32,0,42
2,32,103,18
2,32,0,31
2,32,104,29
2,32,0,36
2,32,105,24
2,32,0,27
2,31,99,33
2,31,0,43
2,31,104,17
2,31,0,42
2,31,106,18
2,31,0,42
2,31,104,18
2,31,0,35
2,30,99,25
2,30,0,44
2,30,102,16
2,30,0,40
2,30,103,20
2,30,0,42
2,30,103,18
2,30,0,39
2,30,105,21
2,30,0,42
2,30,103,18
2,30,0,44
2,30,101,16
2,30,0,31
2,30,99,29
2,30,0,17
2,40,105,43
2,40,0,36
2,40,103,24
2,40,0,30
2,37,102,30
2,37,0,34
2,38,104,26
2,38,0,148
2,43,105,392
2,43,0,40
2,43,103,20
2,43,0,30
2,43,99,30
2,43,0,30
2,43,97,30
2,43,0,30
2,41,102,30
2,41,0,44
2,41,96,16
2,41,0,44
2,41,97,16
2,41,0,46
2,41,99,14
2,41,0,40
2,36,97,20
2,36,0,38
2,36,97,22
2,36,0,41
2,36,98,19
2,36,0,37
2,36,97,23
2,36,0,26
2,41,104,34
2,41,0,95
2,42,103,25
2,42,0,75
2,43,105,45
2,43,0,41
2,43,101,19
2,43,0,42
2,43,100,18
2,43,0,43
2,43,99,17
2,43,0,45
2,41,105,15
2,41,0,40
2,41,103,20
2,41,0,46
2,41,101,14
2,41,0,40
2,41,104,20
2,41,0,40
2,36,97,20
2,36,0,38
2,36,97,22
2,36,0,45
2,36,101,15
2,36,0,36
2,36,100,24
2,36,0,27
2,41,98,33
2,41,0,98
2,42,95,22
2,42,0,72
2,43,101,48
2,43,0,37
2,43,97,23
2,43,0,44
2,43,99,16
2,43,0,39
2,43,98,21
2,43,0,36
2,41,105,24
2,41,0,36
2,41,97,24
2,41,0,36
2,41,101,24
2,41,0,40
2,41,98,20
2,41,0,33
2,36,103,27
2,36,0,48
2,36,105,12
2,36,0,39
2,36,102,21
2,36,0,64
2,36,100,26
2,36,0,11
2,36,101,19
2,36,0,47
