track,note,velocity,time
1,50,127,0
1,50,0,59
1,63,127,1
1,51,127,0
1,51,0,59
1,63,0,0
1,55,127,1
1,64,127,0
1,64,0,59
1,55,0,0
1,64,127,1
1,60,127,0
1,60,0,119
1,64,0,0
1,62,127,1
1,58,127,0
1,58,0,59
1,62,0,0
1,60,127,1
1,55,127,0
1,55,0,59
1,60,0,0
1,67,127,1
1,75,127,0
1,75,0,119
1,67,0,0
1,70,127,1
1,55,127,0
1,55,0,59
1,70,0,0
1,67,127,1
1,51,127,0
1,51,0,59
1,67,0,0
1,58,127,1
1,75,127,0
1,75,0,119
1,58,0,0
1,70,127,1
1,55,127,0
1,55,0,59
1,70,0,0
1,75,127,1
1,58,127,0
1,58,0,59
1,75,0,0
1,62,100,1021
1,50,100,0
1,50,0,59
1,62,0,0
1,63,127,1
1,51,127,0
1,51,0,59
1,63,0,0
1,64,127,1
1,52,127,0
1,52,0,59
1,64,0,0
1,64,127,1
1,60,127,0
1,60,0,119
1,64,0,0
1,62,127,1
1,58,127,0
1,58,0,59
1,62,0,0
1,60,127,1
1,55,127,0
1,55,0,59
1,60,0,0
1,67,127,1
1,75,127,0
1,75,0,119
1,67,0,0
1,70,127,1
1,55,127,0
1,55,0,59
1,70,0,0
1,67,127,1
1,51,127,0
1,51,0,59
1,67,0,0
1,58,127,1
1,75,127,0
1,75,0,119
1,58,0,0
1,70,127,1
1,55,127,0
1,55,0,59
1,70,0,0
1,75,127,1
1,58,127,0
1,58,0,59
1,75,0,0
1,59,126,781
1,55,126,0
1,55,0,59
1,59,0,0
1,59,127,1
1,55,127,0
1,55,0,59
1,59,0,0
1,58,127,1
1,54,127,0
1,54,0,59
1,58,0,0
1,58,127,1
1,54,127,0
1,54,0,59
1,58,0,0
1,57,127,1
1,53,127,0
1,53,0,59
1,57,0,0
1,36,127,1861
1,60,127,0
1,60,0,59
1,36,0,0
1,40,127,1
1,64,127,0
1,64,0,59
1,40,0,0
1,43,127,1
1,67,127,0
1,67,0,59
1,43,0,0
1,34,127,1
1,58,127,0
1,58,0,119
1,34,0,0
1,34,127,1
1,58,127,0
1,58,0,59
1,34,0,0
1,33,127,1
1,57,127,0
1,57,0,59
1,33,0,0
1,36,127,1
1,60,127,0
1,60,0,59
1,36,0,0
1,41,127,1
1,65,127,0
1,65,0,29
1,39,127,1
1,63,127,0
1,41,0,29
1,36,127,1
1,60,127,0
1,63,0,29
1,39,0,0
1,36,0,30
1,60,0,0
1,36,127,1
1,60,127,0
1,60,0,59
1,36,0,0
1,36,127,1
1,60,127,0
1,60,0,29
1,36,0,0
1,36,127,271
1,60,127,0
1,60,0,59
1,36,0,0
1,40,125,1
1,64,125,0
1,64,0,59
1,40,0,0
1,43,127,1
1,67,127,0
1,67,0,59
1,43,0,0
1,34,127,1
1,58,127,0
1,58,0,119
1,34,0,0
1,34,127,1
1,58,127,0
1,58,0,59
1,34,0,0
1,33,127,1
1,57,127,0
1,57,0,59
1,33,0,0
1,36,127,1
1,60,127,0
1,60,0,59
1,36,0,0
1,41,127,1
1,65,127,0
1,65,0,29
1,39,127,1
1,63,127,0
1,41,0,29
1,36,127,1
1,60,127,0
1,63,0,29
1,39,0,0
1,36,0,30
1,60,0,0
1,36,127,1
1,60,127,0
1,60,0,59
1,36,0,0
1,36,127,1
1,60,127,0
1,60,0,59
1,36,0,0
1,36,127,1
1,60,127,0
1,60,0,59
1,36,0,0
1,36,127,1
1,60,127,0
1,60,0,59
1,36,0,0
1,36,127,1
1,60,127,0
1,60,0,59
1,36,0,0
1,36,101,1
1,60,101,0
1,60,0,539
1,36,0,0
1,62,126,2402
1,50,126,0
1,50,0,59
1,62,0,0
1,63,127,1
1,51,127,0
1,51,0,59
1,63,0,0
1,64,127,1
1,52,127,0
1,52,0,59
1,64,0,0
1,64,127,1
1,60,127,0
1,60,0,119
1,64,0,0
1,62,127,1
1,58,127,0
1,58,0,59
1,62,0,0
1,60,127,1
1,55,127,0
1,55,0,59
1,60,0,0
1,67,126,1
1,75,126,0
1,75,0,119
1,67,0,0
1,70,125,1
1,55,125,0
1,55,0,59
1,70,0,0
1,67,125,1
1,51,125,0
1,51,0,59
1,67,0,0
1,58,125,1
1,75,125,0
1,75,0,119
1,58,0,0
1,70,126,1
1,55,126,0
1,55,0,59
1,70,0,0
1,75,127,1
1,58,127,0
1,58,0,59
1,75,0,0
1,62,100,1021
1,50,100,0
1,50,0,59
1,62,0,0
1,63,127,1
1,51,127,0
1,51,0,59
1,63,0,0
1,64,127,1
1,52,127,0
1,52,0,59
1,64,0,0
1,64,127,1
1,60,127,0
1,60,0,119
1,64,0,0
1,62,127,1
1,58,127,0
1,58,0,59
1,62,0,0
1,60,127,1
1,55,127,0
1,55,0,59
1,60,0,0
1,67,127,1
1,75,127,0
1,75,0,119
1,67,0,0
1,70,127,1
1,55,127,0
1,55,0,59
1,70,0,0
1,67,127,1
1,51,127,0
1,51,0,59
1,67,0,0
1,58,127,1
1,75,127,0
1,75,0,119
1,58,0,0
1,70,127,1
1,55,127,0
1,55,0,59
1,70,0,0
1,75,127,1
1,58,127,0
1,58,0,59
1,75,0,0
1,59,126,781
1,55,126,0
1,55,0,59
1,59,0,0
1,59,127,1
1,55,127,0
1,55,0,59
1,59,0,0
1,58,127,1
1,54,127,0
1,54,0,59
1,58,0,0
1,58,126,1
1,54,126,0
1,54,0,59
1,58,0,0
1,57,127,1
1,53,127,0
1,53,0,59
1,57,0,0
1,36,125,1861
1,60,125,0
1,60,0,59
1,36,0,0
1,40,127,1
1,64,127,0
1,64,0,59
1,40,0,0
1,43,127,1
1,67,127,0
1,67,0,59
1,43,0,0
1,34,127,1
1,58,127,0
1,58,0,119
1,34,0,0
1,34,127,1
1,58,127,0
1,58,0,59
1,34,0,0
1,33,127,1
1,57,127,0
1,57,0,59
1,33,0,0
1,36,127,1
1,60,127,0
1,60,0,59
1,36,0,0
1,41,127,1
1,65,127,0
1,65,0,29
1,41,0,0
1,39,127,1
1,63,127,0
1,63,0,29
1,39,0,0
1,36,127,1
1,60,127,0
1,60,0,59
1,36,0,0
1,36,127,1
1,60,127,0
1,60,0,59
1,36,0,0
1,36,127,1
1,60,127,0
1,60,0,29
1,36,0,0
1,36,124,271
1,60,124,0
1,60,0,59
1,36,0,0
1,40,126,1
1,64,126,0
1,64,0,59
1,40,0,0
1,43,127,1
1,67,127,0
1,67,0,59
1,43,0,0
1,34,127,1
1,58,127,0
1,58,0,119
1,34,0,0
1,34,127,1
1,58,127,0
1,58,0,59
1,34,0,0
1,33,127,1
1,57,127,0
1,57,0,59
1,33,0,0
1,36,126,1
1,60,126,0
1,60,0,59
1,36,0,0
1,41,127,1
1,65,127,0
1,65,0,29
1,41,0,0
1,39,127,1
1,63,127,0
1,63,0,29
1,39,0,0
1,36,127,1
1,60,127,0
1,60,0,59
1,36,0,0
1,36,127,1
1,60,127,0
1,60,0,59
1,36,0,0
1,36,127,1
1,60,127,0
1,60,0,59
1,36,0,0
1,36,127,1
1,60,127,0
1,60,0,59
1,36,0,0
1,36,127,1
1,60,127,0
1,60,0,59
1,36,0,0
1,36,127,1
1,60,127,0
1,60,0,59
1,36,0,0
1,36,127,1
1,60,127,0
1,60,0,59
1,36,0,0
1,50,127,0
1,62,127,0
1,62,0,479
1,50,0,0
1,48,127,1
1,60,127,0
1,60,0,59
1,48,0,0
1,47,127,1
1,59,127,0
1,59,0,59
1,47,0,0
1,48,127,1
1,60,127,0
1,60,0,59
1,48,0,0
1,47,127,1
1,59,127,0
1,59,0,59
1,47,0,0
1,48,127,1
1,60,127,0
1,60,0,59
1,48,0,0
1,47,127,1
1,59,127,0
1,59,0,59
1,47,0,0
1,48,127,1
1,60,127,0
1,60,0,59
1,48,0,0
1,50,127,1
1,62,127,0
1,62,0,59
1,50,0,0
1,53,127,1
1,65,127,0
1,53,0,449
1,65,0,15
1,74,100,16
1,62,100,0
1,57,127,60
1,69,127,0
1,62,0,14
1,74,0,0
1,57,0,45
1,69,0,0
1,55,127,1
1,67,127,0
1,67,0,59
1,55,0,0
1,53,127,1
1,65,127,0
1,65,0,59
1,53,0,0
1,55,127,1
1,67,127,0
1,67,0,59
1,55,0,0
1,53,127,1
1,65,127,0
1,65,0,59
1,53,0,0
1,55,127,1
1,67,127,0
1,67,0,59
1,55,0,0
1,53,127,1
1,65,127,0
1,65,0,59
1,53,0,0
1,55,127,1
1,67,127,0
1,67,0,479
1,55,0,0
1,69,123,1
1,57,123,0
1,57,0,14
1,69,0,0
1,65,125,1
1,77,125,0
1,77,0,59
1,65,0,0
1,65,127,1
1,77,127,0
1,77,0,44
1,65,0,0
1,62,127,1
1,74,127,0
1,74,0,44
1,62,0,0
1,60,127,1
1,72,127,0
1,72,0,29
1,60,0,0
1,69,127,1
1,57,127,0
1,57,0,44
1,69,0,0
1,72,127,1
1,57,127,0
1,57,0,44
1,72,0,0
1,62,127,1
1,74,127,0
1,57,127,30
1,72,127,0
1,74,0,14
1,62,0,0
1,57,0,30
1,72,0,0
1,60,127,1
1,72,127,0
1,72,0,44
1,60,0,0
1,69,127,1
1,57,127,0
1,57,0,29
1,69,0,0
1,60,127,1
1,72,127,0
1,72,0,44
1,60,0,0
1,77,127,1
1,89,127,0
1,89,0,59
1,77,0,0
1,77,127,1
1,89,127,0
1,89,0,29
1,77,0,0
1,74,127,1
1,86,127,0
1,86,0,29
1,74,0,0
1,72,127,1
1,84,127,0
1,84,0,59
1,72,0,0
1,69,127,1
1,81,127,0
1,81,0,59
1,69,0,0
1,72,127,1
1,84,127,0
1,84,0,14
1,72,0,0
1,69,127,1
1,81,127,0
1,81,0,29
1,69,0,0
1,74,127,1
1,86,127,0
1,86,0,74
1,74,0,0
1,72,127,1
1,84,127,0
1,74,127,30
1,86,127,0
1,84,0,14
1,72,0,0
1,74,0,45
1,86,0,0
1,74,127,1
1,86,127,0
1,86,0,29
1,74,0,0
1,77,127,1
1,89,127,0
1,89,0,44
1,77,0,0
1,74,127,1
1,86,127,0
1,77,127,15
1,89,127,0
1,86,0,14
1,74,0,0
1,77,0,15
1,89,0,0
1,74,127,1
1,86,127,0
1,86,0,29
1,74,0,0
1,77,127,1
1,89,127,0
1,89,0,29
1,77,0,0
1,74,127,1
1,86,127,0
1,86,0,29
1,74,0,0
1,77,127,1
1,89,127,0
1,89,0,29
1,77,0,0
1,77,127,1
1,89,127,0
1,89,0,29
1,77,0,0
1,79,127,1
1,91,127,0
1,91,0,29
1,79,0,0
1,93,127,1
1,81,127,0
1,84,127,15
1,96,127,0
1,81,0,14
1,93,0,0
1,84,0,285
1,96,0,0
1,36,127,856
1,60,127,0
1,60,0,59
1,36,0,0
1,40,127,1
1,64,127,0
1,64,0,59
1,40,0,0
1,43,127,1
1,67,127,0
1,67,0,59
1,43,0,0
1,34,127,1
1,58,127,0
1,58,0,119
1,34,0,0
1,34,127,1
1,58,127,0
1,58,0,59
1,34,0,0
1,33,127,1
1,57,127,0
1,57,0,59
1,33,0,0
1,36,126,1
1,60,126,0
1,60,0,59
1,36,0,0
1,41,125,1
1,65,125,0
1,65,0,29
1,39,125,1
1,63,125,0
1,41,0,29
1,36,124,1
1,60,124,0
1,63,0,29
1,39,0,0
1,36,0,30
1,60,0,0
1,36,124,1
1,60,124,0
1,60,0,59
1,36,0,0
1,36,124,1
1,60,124,0
1,60,0,29
1,36,0,0
1,36,126,271
1,60,126,0
1,60,0,59
1,36,0,0
1,40,127,1
1,64,127,0
1,64,0,59
1,40,0,0
1,43,127,1
1,67,127,0
1,67,0,59
1,43,0,0
1,34,127,1
1,58,127,0
1,58,0,119
1,34,0,0
1,34,127,1
1,58,127,0
1,58,0,59
1,34,0,0
1,33,127,1
1,57,127,0
1,57,0,59
1,33,0,0
1,36,127,1
1,60,127,0
1,60,0,59
1,36,0,0
1,41,127,1
1,65,127,0
1,65,0,29
1,39,127,1
1,63,127,0
1,41,0,29
1,36,127,1
1,60,127,0
1,63,0,29
1,39,0,0
1,36,0,30
1,60,0,0
1,36,127,1
1,60,127,0
1,60,0,59
1,36,0,0
1,36,127,1
1,60,127,0
1,60,0,59
1,36,0,0
1,36,127,1
1,60,127,0
1,60,0,59
1,36,0,0
1,36,127,1
1,60,127,0
1,60,0,59
1,36,0,0
1,36,127,1
1,60,127,0
1,60,0,59
1,36,0,0
1,36,127,1
1,60,127,0
1,60,0,329
1,36,0,0
1,62,127,2612
1,50,127,0
1,50,0,59
1,62,0,0
1,63,127,1
1,51,127,0
1,51,0,59
1,63,0,0
1,64,127,1
1,52,127,0
1,52,0,59
1,64,0,0
1,64,127,1
1,60,127,0
1,60,0,119
1,64,0,0
1,62,127,1
1,58,127,0
1,58,0,59
1,62,0,0
1,60,127,1
1,55,127,0
1,55,0,59
1,60,0,0
1,67,127,1
1,75,127,0
1,75,0,119
1,67,0,0
1,70,127,1
1,55,127,0
1,55,0,59
1,70,0,0
1,67,127,1
1,51,127,0
1,51,0,59
1,67,0,0
1,58,127,1
1,75,127,0
1,75,0,119
1,58,0,0
1,70,127,1
1,55,127,0
1,55,0,59
1,70,0,0
1,75,127,1
1,58,127,0
1,58,0,59
1,75,0,0
1,62,125,1021
1,50,125,0
1,50,0,59
1,62,0,0
1,63,127,1
1,51,127,0
1,51,0,59
1,63,0,0
1,64,127,1
1,52,127,0
1,52,0,59
1,64,0,0
1,64,127,1
1,60,127,0
1,60,0,119
1,64,0,0
1,62,127,1
1,58,127,0
1,58,0,59
1,62,0,0
1,60,127,1
1,55,127,0
1,55,0,59
1,60,0,0
1,67,127,1
1,75,127,0
1,75,0,119
1,67,0,0
1,70,127,1
1,55,127,0
1,55,0,59
1,70,0,0
1,67,127,1
1,51,127,0
1,51,0,59
1,67,0,0
1,58,127,1
1,75,127,0
1,75,0,119
1,58,0,0
1,70,127,1
1,55,127,0
1,55,0,59
1,70,0,0
1,75,126,1
1,58,126,0
1,58,0,59
1,75,0,0
1,59,125,781
1,55,125,0
1,55,0,59
1,59,0,0
1,59,127,1
1,55,127,0
1,55,0,59
1,59,0,0
1,58,127,1
1,54,127,0
1,54,0,59
1,58,0,0
1,58,127,1
1,54,127,0
1,54,0,59
1,58,0,0
1,57,127,1
1,53,127,0
1,53,0,59
1,57,0,0
1,36,124,1861
1,60,124,0
1,60,0,59
1,36,0,0
1,40,125,1
1,64,125,0
1,64,0,59
1,40,0,0
1,43,124,1
1,67,124,0
1,67,0,59
1,43,0,0
1,34,125,1
1,58,125,0
1,58,0,119
1,34,0,0
1,34,125,1
1,58,125,0
1,58,0,59
1,34,0,0
1,33,125,1
1,57,125,0
1,57,0,59
1,33,0,0
1,36,125,1
1,60,125,0
1,60,0,59
1,36,0,0
1,41,125,1
1,65,125,0
1,65,0,29
1,41,0,0
1,39,125,1
1,63,125,0
1,63,0,29
1,39,0,0
1,36,125,1
1,60,125,0
1,60,0,59
1,36,0,0
1,36,125,1
1,60,125,0
1,60,0,59
1,36,0,0
1,36,125,1
1,60,125,0
1,60,0,29
1,36,0,0
1,36,127,271
1,60,127,0
1,60,0,59
1,36,0,0
1,40,127,1
1,64,127,0
1,64,0,59
1,40,0,0
1,43,127,1
1,67,127,0
1,67,0,59
1,43,0,0
1,34,127,1
1,58,127,0
1,58,0,119
1,34,0,0
1,34,127,1
1,58,127,0
1,58,0,59
1,34,0,0
1,33,127,1
1,57,127,0
1,57,0,59
1,33,0,0
1,36,127,1
1,60,127,0
1,60,0,59
1,36,0,0
1,41,127,1
1,65,127,0
1,65,0,29
1,41,0,0
1,39,127,1
1,63,127,0
1,63,0,29
1,39,0,0
1,36,127,1
1,60,127,0
1,60,0,59
1,36,0,0
1,36,127,1
1,60,127,0
1,60,0,59
1,36,0,0
1,36,127,1
1,60,127,0
1,60,0,59
1,36,0,0
1,36,127,1
1,60,127,0
1,60,0,59
1,36,0,0
1,36,127,1
1,60,127,0
1,60,0,59
1,36,0,0
1,36,127,1
1,60,127,0
