track,note,velocity,time
0,60,70,768
0,64,76,0
0,69,73,0
0,52,98,398
0,86,82,0
0,55,99,2
0,57,104,50
0,86,82,96
0,60,103,50
0,59,91,2
0,59,105,24
0,86,82,0
0,55,102,2
0,57,98,2
0,45,70,96
0,33,106,0
0,86,82,0
0,57,102,46
0,55,81,0
0,60,78,0
0,55,87,46
0,60,82,0
0,86,82,0
0,55,81,38
0,60,77,0
0,40,69,6
0,28,101,0
0,86,82,0
0,50,79,132
0,55,76,0
0,43,68,20
0,31,101,0
0,86,82,0
0,53,75,188
0,59,83,0
0,58,51,50
0,45,68,12
0,33,106,0
0,86,82,0
0,55,77,188
0,60,78,0
0,52,102,192
0,86,82,0
0,55,97,2
0,57,98,118
0,86,82,34
0,60,99,14
0,28,100,32
0,59,102,16
0,31,101,0
0,86,82,0
0,55,101,2
0,32,103,0
0,57,103,2
0,45,72,6
0,33,100,0
0,86,82,0
0,55,77,188
0,60,82,0
0,45,71,14
0,86,82,0
0,55,75,14
0,60,84,0
0,40,77,0
0,28,107,0
0,86,82,0
0,50,78,188
0,55,79,0
0,43,73,4
0,31,105,0
0,86,82,0
0,53,75,188
0,59,82,0
0,58,48,20
0,45,74,14
0,33,101,0
0,86,82,0
0,55,88,188
0,60,75,0
0,57,95,192
0,86,82,0
0,57,100,16
0,60,102,84
0,86,82,2
0,64,95,6
0,33,105,30
0,62,104,2
0,36,103,0
0,86,82,0
0,64,99,10
0,62,100,10
0,38,104,0
0,52,68,6
0,40,106,0
0,86,82,0
0,62,85,14
0,67,83,0
0,52,69,12
0,86,82,0
0,60,103,38
0,62,96,14
0,62,85,0
0,67,77,0
0,43,105,0
0,60,103,18
0,52,67,0
0,86,82,0
0,57,95,2
0,62,77,0
0,67,75,0
0,47,106,0
0,57,100,18
0,52,69,0
0,86,82,0
0,55,96,8
0,62,80,0
0,67,83,0
0,40,104,0
0,57,104,4
0,39,105,0
0,50,75,4
0,38,100,0
0,86,82,0
0,60,75,8
0,65,85,0
0,60,98,14
0,50,71,0
0,86,82,0
0,62,95,12
0,60,102,16
0,60,79,0
0,65,87,0
0,50,70,20
0,86,82,0
0,60,80,6
0,65,85,0
0,55,97,2
0,50,77,0
0,31,106,0
0,86,82,0
0,57,96,2
0,60,79,6
0,65,88,0
0,32,102,0
0,55,100,30
0,57,101,2
0,45,76,0
0,33,101,0
0,86,82,0
0,55,86,188
0,60,86,0
0,45,77,18
0,86,82,0
0,55,85,26
0,60,77,0
0,40,76,20
0,28,105,0
0,86,82,0
0,50,79,188
0,55,76,0
0,43,75,4
0,31,107,0
0,86,82,0
0,58,47,184
0,53,81,4
0,59,85,0
0,45,72,6
0,33,103,0
0,86,82,0
0,55,84,188
0,60,82,0
0,52,97,192
0,86,82,0
0,55,97,36
0,57,97,20
0,86,82,0
0,60,95,16
0,40,102,126
0,28,103,0
0,59,99,10
0,43,101,0
0,31,106,0
0,86,82,0
0,57,100,6
0,44,102,0
0,32,107,0
0,45,71,10
0,57,73,0
0,72,63,0
0,76,60,0
0,45,101,0
0,45,72,0
0,33,107,0
0,86,82,0
0,36,103,0
0,42,74,0
0,42,44,92
0,57,97,20
0,55,86,0
0,60,87,0
0,42,69,0
0,42,44,92
0,60,71,18
0,76,63,0
0,81,59,0
0,86,82,0
0,37,127,0
0,42,74,0
0,42,44,30
0,42,70,24
0,42,39,90
0,40,71,0
0,59,73,0
0,79,60,0
0,83,63,0
0,40,105,0
0,40,76,0
0,28,100,0
0,86,82,0
0,36,98,0
0,42,74,0
0,42,44,80
0,50,86,92
0,55,76,0
0,42,70,0
0,36,99,92
0,42,39,0
0,43,74,2
0,55,74,0
0,74,59,0
0,79,62,0
0,43,105,0
0,43,76,0
0,31,107,0
0,86,82,0
0,37,127,0
0,42,74,0
0,42,44,92
0,53,82,92
0,59,85,0
0,42,74,0
0,42,40,92
0,45,74,2
0,57,75,0
0,72,60,0
0,76,63,0
0,45,101,0
0,45,69,0
0,33,101,0
0,86,82,0
0,36,99,0
0,42,74,0
0,42,44,92
0,55,80,92
0,60,85,0
0,42,69,0
0,42,44,92
0,52,100,92
0,86,82,0
0,37,127,0
0,42,74,0
0,55,102,26
0,42,44,0
0,42,70,92
0,42,39,92
0,57,100,24
0,86,82,0
0,42,74,0
0,60,104,20
0,36,97,0
0,42,44,0
0,42,70,20
0,40,101,92
0,28,102,0
0,36,102,0
0,42,39,0
0,59,98,6
0,43,105,0
0,31,101,0
0,86,82,0
0,37,127,0
0,42,74,0
0,42,44,6
0,44,108,6
0,32,104,0
0,42,74,0
0,42,40,92
0,45,75,8
0,57,74,0
0,55,95,0
0,72,60,0
0,76,62,0
0,45,106,0
0,45,69,0
0,33,103,0
0,86,82,0
0,36,99,0
0,42,74,0
0,42,44,92
0,57,104,14
0,55,76,0
0,60,84,0
0,42,69,0
0,42,44,92
0,60,74,8
0,76,59,0
0,81,60,0
0,86,82,0
0,37,125,0
0,42,74,0
0,42,44,92
0,42,70,28
0,42,39,22
0,40,74,2
0,59,72,0
0,79,60,0
0,83,59,0
0,40,107,0
0,40,75,0
0,28,103,0
0,86,82,0
0,36,99,0
0,42,74,0
0,42,44,20
0,50,82,92
0,55,81,0
0,42,70,0
0,36,103,92
0,42,39,0
0,43,72,2
0,55,75,0
0,74,60,0
0,79,63,0
0,43,103,0
0,43,73,0
0,31,103,0
0,86,82,0
0,37,127,0
0,42,74,0
0,42,44,92
0,53,79,92
0,59,85,0
0,42,74,0
0,42,40,8
0,45,74,2
0,57,71,0
0,72,61,0
0,76,59,0
0,45,103,0
0,45,69,0
0,33,101,0
0,86,82,0
0,36,99,0
0,42,74,0
0,42,44,92
0,55,86,92
0,60,75,0
0,42,69,0
0,42,44,92
0,57,103,92
0,86,82,0
0,37,125,0
0,42,74,0
0,57,103,20
0,42,44,0
0,42,70,92
0,60,103,84
0,42,39,0
0,86,82,0
0,42,74,0
0,64,101,10
0,36,96,0
0,42,44,0
0,33,101,4
0,42,70,0
0,36,100,92
0,42,39,0
0,62,98,2
0,36,105,0
0,86,82,0
0,37,127,0
0,42,74,0
0,64,103,14
0,42,44,0
0,62,95,2
0,38,106,0
0,42,74,0
0,42,40,16
0,40,74,6
0,59,74,0
0,74,59,0
0,79,62,0
0,52,77,0
0,40,100,0
0,86,82,0
0,36,96,0
0,42,74,0
0,42,44,72
0,62,82,92
0,67,79,0
0,42,69,0
0,42,44,10
0,52,70,16
0,86,82,0
0,37,125,0
0,42,74,0
0,60,99,92
0,42,44,0
0,62,96,2
0,62,78,0
0,67,86,0
0,43,101,0
0,42,70,0
0,60,102,26
0,42,39,0
0,52,70,10
0,86,82,0
0,36,103,0
0,42,74,0
0,42,44,92
0,57,97,4
0,62,83,0
0,67,82,0
0,47,102,0
0,42,70,0
0,55,97,6
0,36,102,0
0,42,39,0
0,52,71,8
0,86,82,0
0,37,127,0
0,42,74,0
0,42,44,92
0,57,98,14
0,62,83,0
0,67,79,0
0,40,107,0
0,42,74,0
0,52,84,2
0,39,100,0
0,42,40,0
0,38,71,16
0,57,72,0
0,57,98,0
0,72,63,0
0,77,59,0
0,50,70,0
0,38,106,0
0,86,82,0
0,36,103,0
0,42,74,0
0,42,44,92
0,60,86,92
0,65,84,0
0,42,69,0
0,42,44,92
0,60,103,16
0,50,69,0
0,38,104,0
0,86,82,0
0,37,127,0
0,42,74,0
0,62,103,20
0,42,44,0
0,60,95,18
0,60,87,0
0,65,88,0
0,42,70,0
0,42,39,92
0,50,68,14
0,86,82,0
0,36,103,0
0,42,74,0
0,42,44,6
0,40,105,2
0,60,75,0
0,65,85,0
0,28,107,0
0,42,70,0
0,36,103,20
0,42,39,0
0,55,103,2
0,43,100,0
0,50,75,0
0,31,101,0
0,86,82,0
0,37,127,0
0,42,74,0
0,57,96,20
0,42,44,0
0,44,106,2
0,60,82,0
0,65,79,0
0,32,107,0
0,42,74,0
0,55,102,48
0,42,40,0
0,45,75,2
0,60,73,0
0,57,100,0
0,69,63,0
0,76,62,0
0,45,108,0
0,45,75,0
0,33,103,0
0,36,103,0
0,42,74,0
0,42,44,10
0,55,84,92
0,60,79,0
0,64,87,0
0,42,69,0
0,64,77,92
0,42,44,0
0,37,127,92
0,42,74,0
0,42,44,14
0,55,87,8
0,60,84,0
0,62,93,0
0,42,70,0
0,42,39,40
0,40,74,8
0,59,74,0
0,67,62,0
0,74,60,0
0,40,103,0
0,40,70,0
0,28,102,0
0,36,105,0
0,42,74,0
0,42,44,92
0,50,81,92
0,55,78,0
0,64,83,0
0,42,70,0
0,64,74,92
0,42,39,0
0,43,72,0
0,59,72,0
0,67,62,0
0,74,63,0
0,43,104,0
0,43,74,0
0,31,102,0
0,37,124,0
0,42,74,0
0,42,44,92
0,53,80,92
0,59,85,0
0,62,92,0
0,42,74,0
0,42,40,6
0,45,74,14
0,60,71,0
0,69,63,0
0,76,61,0
0,45,104,0
0,45,69,0
0,33,106,0
0,36,98,0
0,42,74,0
0,42,44,92
0,55,87,92
0,60,75,0
0,64,82,0
0,36,105,0
0,42,69,0
0,52,101,92
0,64,76,0
0,36,98,0
0,42,44,0
0,55,104,20
0,37,125,0
0,42,74,0
0,57,102,10
0,42,44,0
0,62,92,92
0,42,70,0
0,55,98,18
0,42,39,0
0,57,98,0
0,36,99,0
0,42,74,0
0,42,44,0
0,55,96,0
0,64,87,0
0,36,100,0
0,42,70,0
0,57,95,0
0,64,89,0
0,36,97,0
0,42,39,0
0,37,127,0
0,42,74,0
0,55,97,0
0,42,44,0
0,57,102,0
0,62,92,0
0,42,74,0
0,42,40,0
0,55,98,0
0,36,106,0
0,42,74,0
0,57,100,2
0,42,44,0
0,64,76,92
0,36,105,0
0,42,69,0
0,55,100,24
0,64,80,0
0,36,107,0
0,42,44,0
0,57,98,2
0,37,127,0
0,42,74,0
0,42,44,92
0,55,102,10
0,62,90,0
0,42,70,0
0,57,97,2
0,42,39,0
0,36,109,92
0,42,74,0
0,55,96,22
0,42,44,0
0,57,97,36
0,64,79,0
0,42,70,0
0,64,84,92
0,36,107,0
0,42,39,0
0,55,104,28
0,37,127,0
0,42,74,0
0,57,95,8
0,42,44,0
0,62,90,92
0,42,74,0
0,55,97,42
0,42,40,0
0,57,103,4
0,36,106,0
0,42,74,0
0,42,44,12
0,55,95,16
0,64,87,0
0,36,108,0
0,42,69,0
0,57,95,8
0,64,88,0
0,36,103,0
0,42,44,0
0,37,125,92
0,42,74,0
0,55,104,10
0,42,44,0
0,57,95,50
0,62,96,0
0,42,70,0
0,42,39,92
0,55,99,24
0,36,104,0
0,42,74,0
0,57,104,2
0,42,44,0
0,64,84,92
0,36,103,0
0,42,70,0
0,55,98,14
0,64,80,0
0,36,107,0
0,42,39,0
0,60,98,10
0,37,123,0
0,42,74,0
0,42,44,10
0,57,99,8
0,62,94,0
0,42,74,0
0,57,95,26
0,42,40,0
0,36,105,92
0,42,74,0
0,55,99,2
0,42,44,0
0,57,103,28
0,64,92,0
0,42,69,0
0,64,84,92
0,36,108,0
0,42,44,0
0,55,101,16
0,37,127,0
0,42,74,0
0,57,95,2
0,42,44,0
0,62,87,92
0,42,70,0
0,55,100,24
0,42,39,0
0,57,102,36
0,36,109,0
0,42,74,0
0,42,44,92
0,55,95,10
0,64,86,0
0,36,104,0
0,42,70,0
0,57,96,6
0,64,82,0
0,36,104,0
0,42,39,0
0,37,123,92
0,42,74,0
0,55,99,2
0,42,44,0
0,57,98,42
0,62,90,0
0,42,74,0
0,42,40,22
0,55,96,4
0,36,103,0
0,42,74,0
0,57,95,2
0,42,44,0
0,64,92,92
0,36,109,0
0,42,69,0
0,55,100,36
0,64,80,0
0,36,103,0
0,42,44,0
0,57,103,8
0,37,127,0
0,42,74,0
0,42,44,44
0,55,97,2
0,62,94,0
0,42,70,0
0,57,95,16
0,42,39,0
0,36,105,92
0,42,74,0
0,55,102,44
0,42,44,0
0,57,98,6
0,64,88,0
0,42,70,0
0,64,82,92
0,36,103,0
0,42,39,0
0,55,103,16
0,37,124,0
0,42,74,0
0,57,103,28
0,42,44,0
0,62,94,92
0,42,74,0
0,55,96,36
0,42,40,0
0,60,97,42
0,36,106,0
0,42,74,0
0,42,44,92
0,64,90,56
0,36,101,0
0,42,69,0
0,64,104,16
0,64,86,0
0,36,107,0
0,42,44,0
0,37,127,10
0,42,74,0
0,62,103,10
0,42,44,0
0,64,102,2
0,62,88,0
0,42,70,0
0,64,97,32
0,42,39,0
0,67,95,22
0,36,102,0
0,42,74,0
0,42,44,92
0,64,97,2
0,64,94,0
0,42,70,0
0,64,90,40
0,36,109,0
0,42,39,0
0,62,98,92
0,37,127,0
0,42,74,0
0,42,44,92
0,60,99,18
0,62,99,0
0,42,74,0
0,62,101,6
0,42,40,0
0,36,102,92
0,42,74,0
0,60,97,2
0,42,44,0
0,64,96,92
0,42,69,0
0,57,98,8
0,64,89,0
0,36,106,0
0,42,44,0
0,64,96,34
0,37,125,0
0,42,74,0
0,62,98,22
0,42,44,0
0,62,93,8
0,42,70,0
0,62,104,12
0,42,39,0
0,36,101,50
0,42,74,0
0,60,104,22
0,42,44,0
0,64,92,92
0,42,70,0
0,64,94,26
0,36,108,0
0,42,39,0
0,57,96,2
0,37,127,0
0,42,74,0
0,42,44,12
0,57,96,92
0,62,96,0
0,42,74,0
0,42,40,92
0,45,84,92
0,52,97,0
0,60,99,0
0,45,75,0
0,33,103,0
0,86,82,0
0,36,105,0
0,42,74,0
0,42,44,92
0,57,104,32
0,55,84,0
0,60,79,0
0,42,69,0
0,42,44,92
0,86,82,92
0,37,127,0
0,42,74,0
0,42,44,52
0,57,103,22
0,55,87,0
0,60,84,0
0,42,70,0
0,52,93,2
0,42,39,0
0,55,98,2
0,40,86,0
0,55,90,0
0,59,91,0
0,40,70,0
0,28,101,0
0,86,82,0
0,36,101,0
0,42,74,0
0,42,44,92
0,55,99,60
0,50,81,0
0,55,78,0
0,42,70,0
0,52,88,2
0,42,39,0
0,55,95,0
0,43,87,0
0,43,74,0
0,31,105,0
0,86,82,0
0,37,127,0
0,42,74,0
0,42,44,92
0,53,80,10
0,59,85,0
0,42,74,0
0,58,52,28
0,42,40,4
0,45,96,8
0,52,97,0
0,60,93,0
0,45,69,0
0,33,102,0
0,86,82,0
0,42,74,0
0,36,106,62
0,42,44,0
0,55,87,92
0,60,75,0
0,42,69,0
0,36,110,92
0,42,44,0
0,52,95,92
0,86,82,0
0,37,127,0
0,42,74,0
0,55,103,2
0,42,44,0
0,42,70,92
0,57,104,78
0,42,39,0
0,86,82,8
0,42,74,0
0,60,96,2
0,36,102,0
0,42,44,0
0,42,70,10
0,28,104,92
0,36,106,0
0,42,39,0
0,59,101,2
0,31,102,0
0,86,82,0
0,37,124,0
0,42,74,0
0,42,44,92
0,55,99,2
0,32,106,0
0,42,74,0
0,42,40,24
0,45,71,18
0,57,73,0
0,72,63,0
0,76,60,0
0,45,105,0
0,45,76,0
0,33,106,0
0,86,82,0
0,36,97,0
0,42,74,0
0,42,44,92
0,57,100,20
0,55,77,0
0,60,84,0
0,42,69,0
0,42,44,92
0,60,71,18
0,76,63,0
0,81,59,0
0,86,82,0
0,37,127,0
0,42,74,0
0,42,44,92
0,55,84,10
0,60,85,0
0,42,70,0
0,42,39,26
0,40,71,8
0,59,73,0
0,79,60,0
0,83,63,0
0,40,106,0
0,40,77,0
0,28,102,0
0,86,82,0
0,36,96,0
0,42,74,0
0,42,44,48
0,50,88,92
0,55,78,0
0,36,101,0
0,42,70,0
0,36,97,92
0,42,39,0
0,43,74,4
0,55,74,0
0,74,59,0
0,79,62,0
0,43,102,0
0,43,69,0
0,31,105,0
0,86,82,0
0,37,127,0
0,42,74,0
0,42,44,92
0,53,76,92
0,59,85,0
0,42,74,0
0,42,40,92
0,45,74,6
0,57,75,0
0,72,60,0
0,76,63,0
0,45,108,0
0,45,76,0
0,33,100,0
0,86,82,0
0,36,104,0
0,42,74,0
