track,note,velocity,time
1,64,120,13360
1,64,120,4
1,64,120,4
1,64,120,4
1,64,120,4
1,64,120,4
1,62,120,4
1,61,120,4
1,59,120,4
1,64,120,1924
1,64,120,4
1,64,120,4
1,64,120,4
1,64,120,4
1,64,120,4
1,64,120,4
1,62,120,4
1,61,120,4
1,59,120,4
1,64,120,3844
1,64,120,4
1,64,120,4
1,60,120,4
1,64,120,4
1,67,120,4
1,67,120,4
1,67,120,4
1,67,120,4
1,64,120,4
1,64,120,4
1,62,120,4
1,64,120,4
1,59,120,4
1,64,120,4
1,61,120,4
1,64,120,4
1,64,120,4
1,64,120,4
1,60,120,4
1,64,120,4
1,67,120,4
1,64,120,964
1,64,120,4
1,64,120,4
1,59,120,4
1,62,120,4
1,64,120,4
1,64,120,0
1,64,120,4
1,64,120,4
1,64,120,4
1,64,120,4
1,64,120,4
1,62,120,4
1,61,120,4
1,59,120,4
1,64,120,1924
1,64,120,4
1,64,120,4
1,64,120,4
1,64,120,4
1,64,120,4
1,64,120,4
1,62,120,4
1,61,120,4
1,59,120,4
1,64,120,3844
1,64,120,4
1,64,120,4
1,60,120,4
1,64,120,4
1,67,120,4
1,67,120,4
1,67,120,4
1,67,120,4
1,64,120,4
1,64,120,4
1,62,120,4
1,64,120,4
1,59,120,4
1,64,120,4
1,61,120,4
1,64,120,4
1,64,120,4
1,64,120,4
1,60,120,4
1,64,120,4
1,67,120,4
1,64,120,964
1,64,120,4
1,64,120,4
1,59,120,4
1,62,120,4
1,64,120,4
1,76,120,1444
1,74,120,4
1,76,120,4
1,76,120,4
1,74,120,4
1,71,120,4
1,69,120,4
1,67,120,4
1,71,120,4
1,71,120,4
1,69,120,4
1,67,120,4
1,64,120,4
1,62,120,4
1,64,120,4
1,64,120,4
1,62,120,4
1,59,120,4
1,57,120,4
1,55,120,4
1,59,120,4
1,59,120,4
1,57,120,4
1,59,120,4
1,64,120,4
1,62,120,4
1,64,120,4
1,64,120,4
1,62,120,4
1,59,120,4
1,57,120,4
1,55,120,4
1,59,120,4
1,59,120,4
1,57,120,4
1,59,120,4
1,64,120,4
1,62,120,4
1,64,120,4
1,64,113,5
1,62,109,5
1,59,102,5
1,57,98,5
1,55,94,5
1,59,90,5
1,59,83,5
1,57,79,5
1,59,72,5
1,64,68,5
1,62,64,5
1,64,60,5
1,64,53,5
1,62,49,5
1,59,42,5
1,57,38,5
1,55,34,5
1,59,30,5
1,59,23,5
1,57,19,5
1,59,12,5
1,64,8,5
1,62,4,5
2,52,110,1920
2,64,110,4
2,64,110,4
2,62,110,4
2,62,110,4
2,59,110,4
2,79,125,240
2,76,125,4
2,74,125,4
2,71,125,4
2,69,125,4
2,67,125,4
2,64,125,4
2,62,125,4
2,55,110,4
2,59,110,0
2,64,110,0
2,64,110,2
2,64,110,4
2,55,110,0
2,59,110,4
2,64,110,4
2,64,110,4
2,55,110,0
2,59,110,4
2,64,110,4
2,55,110,0
2,64,110,4
2,55,110,0
2,62,110,4
2,59,110,0
2,61,110,4
2,57,110,0
2,59,110,4
2,55,110,0
2,79,125,240
2,76,125,4
2,74,125,4
2,71,125,4
2,69,125,4
2,67,125,4
2,64,125,4
2,62,125,4
2,64,110,4
2,59,110,0
2,55,110,0
2,64,110,2
2,64,110,4
2,55,110,0
2,59,110,4
2,64,110,4
2,64,110,4
2,55,110,0
2,64,110,4
2,59,110,0
2,64,110,4
2,55,110,0
2,64,110,4
2,55,110,0
2,62,110,4
2,59,110,0
2,61,110,4
2,57,110,0
2,59,110,4
2,55,110,0
2,79,125,240
2,76,125,4
2,74,125,4
2,71,125,4
2,69,125,4
2,67,125,4
2,64,125,4
2,62,125,4
2,64,110,4
2,59,110,0
2,55,110,0
2,59,110,2
2,61,110,0
2,66,110,0
2,64,110,0
2,60,110,0
2,64,110,0
2,60,110,0
2,64,110,0
2,60,110,0
2,64,110,0
2,60,110,0
2,64,110,4
2,60,110,0
2,64,110,4
2,60,110,0
2,60,110,4
2,57,110,0
2,64,110,4
2,60,110,0
2,67,110,4
2,64,110,0
2,60,110,0
2,67,110,4
2,64,110,0
2,60,110,0
2,67,110,4
2,64,110,0
2,60,110,0
2,67,110,4
2,64,110,0
2,60,110,0
2,64,110,4
2,59,110,0
2,64,110,4
2,59,110,0
2,62,110,4
2,57,110,0
2,64,110,4
2,59,110,0
2,59,110,4
2,55,110,0
2,64,110,4
2,59,110,0
2,55,110,0
2,61,110,4
2,64,110,4
2,60,110,0
2,64,110,4
2,60,110,0
2,64,110,4
2,60,110,0
2,60,110,4
2,57,110,0
2,64,110,4
2,60,110,0
2,67,110,4
2,64,110,0
2,60,110,0
2,64,110,964
2,59,110,0
2,64,110,4
2,59,110,0
2,64,110,4
2,59,110,0
2,59,110,4
2,62,110,4
2,57,110,0
2,64,110,4
2,59,110,0
2,52,110,4
2,64,110,4
2,64,110,4
2,62,110,4
2,62,110,4
2,59,110,4
2,79,125,240
2,76,125,4
2,74,125,4
2,71,125,4
2,69,125,4
2,67,125,4
2,64,125,4
2,62,125,4
2,64,110,4
2,59,110,0
2,55,110,0
2,64,110,2
2,64,110,4
2,55,110,0
2,59,110,4
2,64,110,4
2,64,110,4
2,55,110,0
2,59,110,4
2,64,110,4
2,55,110,0
2,64,110,4
2,55,110,0
2,62,110,4
2,59,110,0
2,61,110,4
2,57,110,0
2,59,110,4
2,55,110,0
2,79,125,240
2,76,125,4
2,74,125,4
2,71,125,4
2,69,125,4
2,67,125,4
2,64,125,4
2,62,125,4
2,64,110,4
2,59,110,0
2,55,110,0
2,64,110,2
2,64,110,4
2,55,110,0
2,59,110,4
2,64,110,4
2,64,110,4
2,55,110,0
2,64,110,4
2,59,110,0
2,64,110,4
2,55,110,0
2,64,110,4
2,55,110,0
2,62,110,4
2,59,110,0
2,61,110,4
2,57,110,0
2,59,110,4
2,55,110,0
2,79,125,240
2,76,125,4
2,74,125,4
2,71,125,4
2,69,125,4
2,67,125,4
2,64,125,4
2,62,125,4
2,64,110,4
2,59,110,0
2,55,110,0
2,66,110,5
2,61,110,0
2,59,110,0
2,64,110,0
2,60,110,0
2,64,110,4
2,60,110,0
2,64,110,4
2,60,110,0
2,60,110,4
2,57,110,0
2,64,110,4
2,60,110,0
2,67,110,4
2,64,110,0
2,60,110,0
2,67,110,4
2,64,110,0
2,60,110,0
2,67,110,4
2,64,110,0
2,60,110,0
2,67,110,4
2,64,110,0
2,60,110,0
2,64,110,4
2,59,110,0
2,64,110,4
2,59,110,0
2,62,110,4
2,57,110,0
2,64,110,4
2,59,110,0
2,59,110,4
2,55,110,0
2,64,110,4
2,59,110,0
2,55,110,0
2,61,110,4
2,64,110,4
2,60,110,0
2,64,110,4
2,60,110,0
2,64,110,4
2,60,110,0
2,60,110,4
2,57,110,0
2,64,110,4
2,60,110,0
2,67,110,4
2,64,110,0
2,60,110,0
2,64,110,964
2,59,110,0
2,64,110,4
2,59,110,0
2,64,110,4
2,59,110,0
2,59,110,4
2,62,110,4
2,57,110,0
2,64,110,4
2,59,110,0
2,76,110,1444
2,71,110,0
2,74,110,4
2,69,110,0
2,76,110,4
2,71,110,0
2,76,110,4
2,71,110,0
2,74,110,4
2,69,110,0
2,71,110,4
2,66,110,0
2,69,110,4
2,64,110,0
2,67,110,4
2,62,110,0
2,71,110,4
2,66,110,0
2,71,110,4
2,66,110,0
2,69,110,4
2,64,110,0
2,67,110,4
2,62,110,0
2,64,110,4
2,59,110,0
2,62,110,4
2,57,110,0
2,64,110,4
2,59,110,0
2,64,110,4
2,62,110,4
2,59,110,4
2,57,110,4
2,55,110,4
2,59,110,4
2,59,110,4
2,57,110,4
2,59,110,4
2,64,110,4
2,62,110,4
2,64,110,4
2,57,110,0
2,64,110,4
2,62,110,4
2,59,110,4
2,57,110,4
2,55,110,4
2,59,110,4
2,59,110,4
2,57,110,4
2,59,110,4
2,64,110,4
2,62,110,4
2,64,110,4
2,59,110,0
2,64,104,5
2,62,100,5
2,59,93,5
2,57,90,5
2,55,86,5
2,59,83,5
2,59,76,5
2,57,73,5
2,59,66,5
2,64,62,5
2,62,59,5
2,64,55,5
2,57,55,0
2,64,49,5
2,62,45,5
2,59,38,5
2,57,35,5
2,55,31,5
2,59,28,5
2,59,21,5
2,57,18,5
2,59,11,5
2,64,7,5
2,62,4,5
3,40,125,5680
3,52,125,4
3,52,125,4
3,50,125,4
3,50,125,4
3,47,125,4
3,40,125,4
3,52,125,4
3,52,125,4
3,50,125,4
3,50,125,4
3,47,125,4
3,40,125,4
3,52,125,4
3,52,125,4
3,50,125,4
3,50,125,4
3,47,125,4
3,40,125,4
3,52,125,4
3,52,125,4
3,50,125,4
3,50,125,4
3,47,125,4
3,40,125,4
3,35,125,484
3,40,125,484
3,47,125,244
3,35,125,4
3,40,125,4
3,52,125,4
3,52,125,4
3,50,125,4
3,50,125,4
3,47,125,4
3,40,125,4
3,52,125,4
3,52,125,4
3,50,125,4
3,50,125,4
3,47,125,4
3,40,125,4
3,35,125,484
3,40,125,484
3,47,125,244
3,35,125,4
3,40,125,4
3,52,125,4
3,52,125,4
3,50,125,4
3,50,125,4
3,47,125,4
3,40,125,4
3,52,125,4
3,52,125,4
3,50,125,4
3,50,125,4
3,47,125,4
3,40,125,4
3,59,125,484
3,67,125,0
3,45,125,0
3,45,125,0
3,52,125,4
3,57,125,4
3,52,125,4
3,45,125,4
3,52,125,4
3,57,125,4
3,52,125,4
3,45,125,4
3,40,125,4
3,47,125,4
3,52,125,4
3,47,125,4
3,40,125,4
3,47,125,4
3,52,125,4
3,47,125,4
3,40,125,4
3,45,125,4
3,52,125,4
3,57,125,4
3,52,125,4
3,45,125,4
3,52,125,4
3,57,125,4
3,52,125,4
3,45,125,4
3,52,125,4
3,47,125,0
3,40,125,0
3,40,125,4
3,52,125,4
3,52,125,4
3,50,125,4
3,50,125,4
3,47,125,4
3,40,125,4
3,52,125,4
3,52,125,4
3,50,125,4
3,50,125,4
3,47,125,4
3,40,125,4
3,52,125,4
3,52,125,4
3,50,125,4
3,50,125,4
3,47,125,4
3,40,125,4
3,52,125,4
3,52,125,4
3,50,125,4
3,50,125,4
3,47,125,4
3,40,125,4
3,35,125,484
3,40,125,484
3,47,125,244
3,35,125,4
3,40,125,4
3,52,125,4
3,52,125,4
3,50,125,4
3,50,125,4
3,47,125,4
3,40,125,4
3,52,125,4
3,52,125,4
3,50,125,4
3,50,125,4
3,47,125,4
3,40,125,4
3,35,125,484
3,40,125,484
3,47,125,244
3,35,125,4
3,40,125,4
3,52,125,4
3,52,125,4
3,50,125,4
3,50,125,4
3,47,125,4
3,40,125,4
3,52,125,4
3,52,125,4
3,50,125,4
3,50,125,4
3,47,125,4
3,40,125,4
3,67,125,484
3,59,125,0
3,45,125,0
3,52,125,4
3,57,125,4
3,52,125,4
3,45,125,4
3,52,125,4
3,57,125,4
3,52,125,4
3,45,125,4
3,40,125,4
3,47,125,4
3,52,125,4
3,47,125,4
3,40,125,4
3,47,125,4
3,52,125,4
3,47,125,4
3,40,125,4
3,45,125,4
3,52,125,4
3,57,125,4
3,52,125,4
3,45,125,4
3,52,125,4
3,57,125,4
3,52,125,4
3,45,125,4
3,52,125,4
3,47,125,0
3,40,125,0
3,40,125,4
3,52,125,4
3,52,125,4
3,50,125,4
3,50,125,4
3,47,125,4
3,40,125,4
3,52,125,4
3,52,125,4
3,50,125,4
3,50,125,4
3,47,125,4
3,40,125,4
3,52,125,4
3,47,125,484
3,40,125,4
3,52,125,4
3,47,125,484
3,40,125,4
3,52,125,4
3,47,125,484
3,40,125,4
3,52,125,4
3,47,125,484
3,40,125,4
3,52,125,4
3,47,125,484
3,40,125,4
3,52,125,4
3,47,125,484
3,40,110,4
3,52,104,5
3,47,90,485
3,40,83,5
3,52,76,5
3,47,62,485
3,40,55,5
3,52,49,5
3,47,35,485
3,40,28,5
3,52,21,5
3,47,7,485
4,40,87,5680
4,46,63,104
4,47,70,80
4,51,80,68
4,52,82,124
4,46,49,156
4,47,68,4
4,38,57,48
4,40,87,148
4,40,74,176
4,40,85,140
4,35,80,128
4,35,74,72
4,40,80,128
4,40,85,104
4,35,72,92
4,28,80,68
4,40,89,64
4,40,93,316
4,40,76,156
4,46,100,160
4,47,89,4
4,47,74,152
4,52,82,164
4,52,87,108
4,47,93,152
4,47,89,200
4,40,72,288
4,40,82,180
4,47,82,120
4,47,72,236
4,40,76,144
4,40,58,160
4,47,78,160
4,47,98,176
4,40,87,324
4,46,80,96
4,47,74,96
4,51,70,64
4,52,80,132
4,46,70,16
4,47,66,52
4,47,87,164
4,40,93,288
4,40,76,156
4,46,100,160
4,47,89,4
4,47,74,152
4,52,82,164
4,52,87,108
4,47,93,152
4,47,89,200
4,40,97,288
4,33,93,1456
4,33,76,156
4,39,100,160
4,40,89,4
4,40,74,152
4,45,82,164
4,45,87,108
4,40,93,152
4,40,89,200
4,40,93,304
4,40,76,156
4,46,100,160
4,47,89,4
4,47,74,152
4,52,82,164
4,52,87,108
4,47,93,152
4,47,89,200
4,33,72,288
4,33,82,180
4,40,82,120
4,40,72,236
4,33,76,144
4,33,58,160
4,40,78,160
4,40,98,176
4,40,97,324
4,40,82,3372
4,40,74,80
4,40,82,240
4,47,82,16
4,47,93,184
4,40,74,216
4,40,85,140
4,35,80,128
4,35,74,72
4,40,80,128
4,40,85,104
4,35,72,92
4,28,80,68
4,40,89,64
4,40,87,300
4,40,72,152
4,47,64,132
4,47,78,208
4,52,85,136
4,52,70,152
4,47,82,164
4,40,85,0
4,40,87,344
4,40,72,152
4,47,64,132
4,47,78,208
4,52,85,136
4,52,70,152
4,47,82,164
4,40,85,0
4,40,87,344
4,46,63,104
4,47,70,80
4,51,80,68
4,52,82,124
4,46,49,156
4,47,68,4
4,40,57,48
4,40,87,148
4,40,87,176
4,46,80,96
4,47,74,96
4,51,70,64
4,52,80,132
4,46,70,16
4,47,66,52
4,47,87,164
4,40,97,272
4,33,87,1440
4,33,72,152
4,40,64,132
4,40,78,208
4,45,85,136
4,45,70,152
4,40,82,164
4,33,85,0
4,40,87,344
4,40,72,152
4,47,64,132
4,47,78,208
4,52,85,136
4,52,70,152
4,47,82,164
4,40,85,0
4,33,87,344
4,39,80,96
4,40,74,96
4,44,70,64
4,45,80,132
4,39,70,16
4,40,66,52
4,40,87,164
4,40,97,272
4,40,93,1456
4,40,76,156
4,46,100,160
4,47,89,4
4,47,74,152
4,52,82,164
4,52,87,108
4,47,93,152
4,47,89,200
4,40,87,288
4,40,72,152
4,47,64,132
4,47,78,208
4,52,85,136
4,52,70,152
4,47,82,164
4,40,85,0
4,40,72,344
4,40,82,180
4,47,82,120
4,47,72,236
4,40,76,144
4,40,58,160
4,47,78,160
4,47,98,176
4,40,74,324
4,40,85,140
4,35,80,128
4,35,74,72
4,40,80,128
4,40,85,104
4,35,72,92
4,28,80,68
4,40,80,64
4,40,82,300
4,46,82,105
4,47,79,80
4,51,71,70
4,52,68,125
4,46,60,160
4,47,57,5
4,40,51,50
4,40,48,150
4,40,45,180
4,46,37,105
4,47,34,80
4,51,26,70
4,52,23,125
4,46,15,160
4,47,12,5
4,36,6,50
4,42,3,150
5,64,93,5680
5,55,93,0
5,59,93,0
5,64,97,500
5,55,97,0
5,59,97,0
5,64,100,524
5,55,100,0
5,59,100,0
5,64,89,516
5,55,89,0
5,59,89,0
5,52,70,332
5,51,67,0
5,64,102,200
5,55,102,0
5,59,102,0
5,52,71,68
5,64,97,240
5,55,97,0
5,59,97,0
5,64,100,552
5,55,100,0
5,71,100,0
5,64,83,204
5,55,83,0
5,71,83,0
5,64,104,284
5,55,104,0
5,71,104,0
5,64,97,480
5,55,97,0
5,71,97,0
5,64,95,220
5,55,95,0
5,71,95,0
5,52,74,28
5,64,102,28
5,55,102,0
5,71,102,0
5,64,93,340
5,55,93,0
5,71,93,0
5,64,97,500
5,55,97,0
5,71,97,0
5,64,100,524
5,55,100,0
5,71,100,0
5,64,89,516
