track,note,velocity,time
1,61,110,1344
1,61,0,96
1,60,110,0
1,60,0,48
1,61,110,0
1,61,0,384
1,61,110,240
1,61,0,96
1,60,110,0
1,60,0,48
1,63,110,0
1,63,0,384
1,63,110,336
1,63,0,48
1,65,110,0
1,65,0,48
1,66,110,0
1,66,0,96
1,66,110,0
1,66,0,48
1,66,110,0
1,66,0,96
1,66,110,0
1,66,0,96
1,66,110,0
1,66,0,96
1,65,110,0
1,65,0,96
1,61,110,0
1,61,0,94
1,58,110,50
1,58,0,96
1,61,110,0
1,61,0,160
1,65,110,32
1,65,0,144
1,63,110,0
1,63,0,160
1,61,110,80
1,61,0,94
1,60,110,2
1,60,0,46
1,61,110,2
1,61,0,384
1,61,110,240
1,61,0,94
1,65,110,2
1,65,0,94
1,66,110,2
1,66,0,48
1,65,110,0
1,65,0,48
1,63,110,0
1,63,0,160
1,70,110,320
1,70,0,94
1,68,110,2
1,68,0,94
1,63,110,2
1,63,0,94
1,61,110,2
1,61,0,46
1,61,110,2
1,61,0,94
1,58,110,2
1,58,0,46
1,61,110,2
1,61,0,94
1,63,110,2
1,63,0,94
1,70,110,98
1,70,0,94
1,68,110,2
1,68,0,94
1,65,110,2
1,65,0,94
1,61,110,2
1,61,0,46
1,61,110,2
1,61,0,94
1,63,110,2
1,63,0,94
1,65,110,2
1,65,0,46
1,63,110,2
1,63,0,46
1,65,110,2
1,65,0,160
1,63,110,272
1,63,0,48
1,63,110,0
1,63,0,144
1,63,110,0
1,63,0,48
1,63,110,0
1,63,0,144
1,63,110,0
1,63,0,48
1,66,110,0
1,66,0,192
1,65,110,0
1,65,0,46
1,61,110,2
1,61,0,96
1,61,110,0
1,61,0,96
1,61,110,0
1,61,0,96
1,61,110,0
1,61,0,96
1,63,110,0
1,63,0,160
1,70,110,320
1,70,0,94
1,70,110,2
1,70,0,94
1,70,110,2
1,70,0,94
1,70,110,2
1,70,0,94
1,70,110,2
1,70,0,94
1,70,110,2
1,70,0,94
1,72,110,2
1,72,0,46
1,68,110,2
1,68,0,94
1,68,110,2
1,68,0,46
1,70,110,2
1,70,0,160
1,61,110,320
1,61,0,94
1,60,110,2
1,60,0,46
1,61,110,2
1,61,0,142
1,61,110,98
1,61,0,94
1,60,110,2
1,60,0,46
1,61,110,2
1,61,0,142
1,61,110,98
1,61,0,94
1,60,110,2
1,60,0,46
1,61,110,2
1,61,0,142
1,61,110,98
1,61,0,94
1,63,110,2
1,63,0,46
1,65,110,2
1,65,0,142
1,63,110,2
1,63,0,46
1,61,110,2
1,61,0,94
1,60,110,2
1,60,0,46
1,58,110,2
1,58,0,94
1,58,110,2
1,58,0,94
1,56,110,2
1,56,0,46
1,56,110,2
1,56,0,46
1,58,110,2
1,58,0,160
1,56,110,272
1,56,0,94
1,56,110,2
1,56,0,208
1,63,110,32
1,63,0,94
1,63,110,2
1,63,0,94
1,61,110,194
1,61,0,94
1,60,110,2
1,60,0,46
1,61,110,2
1,61,0,142
1,61,110,98
1,61,0,94
1,60,110,2
1,60,0,46
1,61,110,2
1,61,0,142
1,61,110,98
1,61,0,94
1,61,110,2
1,61,0,46
1,70,110,2
1,70,0,142
1,68,110,2
1,68,0,94
1,68,110,2
1,68,0,94
1,68,110,2
1,68,0,46
1,73,110,2
1,73,0,334
1,61,110,2
1,61,0,94
1,66,110,2
1,66,0,94
1,66,110,2
1,66,0,46
1,68,110,2
1,68,0,94
1,68,110,2
1,68,0,46
1,70,110,2
1,70,0,160
1,61,110,224
1,61,0,94
1,64,110,2
1,64,0,94
1,64,110,2
1,64,0,46
1,66,110,2
1,66,0,94
1,66,110,2
1,66,0,46
1,68,110,2
1,68,0,160
1,61,110,128
1,61,0,46
1,61,110,2
1,61,0,94
1,60,110,2
1,60,0,46
1,63,110,2
1,63,0,46
1,61,110,2
1,61,0,336
1,61,110,960
1,61,0,96
1,60,110,0
1,60,0,48
1,61,110,0
1,61,0,384
1,61,110,240
1,61,0,96
1,60,110,0
1,60,0,48
1,63,110,0
1,63,0,384
1,63,110,336
1,63,0,48
1,65,110,0
1,65,0,48
1,66,110,0
1,66,0,96
1,66,110,0
1,66,0,48
1,66,110,0
1,66,0,96
1,66,110,0
1,66,0,96
1,66,110,0
1,66,0,96
1,65,110,0
1,65,0,96
1,61,110,0
1,61,0,94
1,58,110,50
1,58,0,96
1,61,110,0
1,61,0,160
1,65,110,32
1,65,0,144
1,63,110,0
1,63,0,160
1,61,110,80
1,61,0,94
1,60,110,2
1,60,0,46
1,61,110,2
1,61,0,384
1,61,110,240
1,61,0,94
1,65,110,2
1,65,0,94
1,66,110,2
1,66,0,48
1,65,110,0
1,65,0,48
1,63,110,0
1,63,0,160
1,70,110,320
1,70,0,94
1,68,110,2
1,68,0,94
1,63,110,2
1,63,0,94
1,61,110,2
1,61,0,46
1,61,110,2
1,61,0,94
1,58,110,2
1,58,0,46
1,61,110,2
1,61,0,94
1,63,110,2
1,63,0,94
1,70,110,98
1,70,0,94
1,68,110,2
1,68,0,94
1,65,110,2
1,65,0,94
1,61,110,2
1,61,0,46
1,61,110,2
1,61,0,94
1,63,110,2
1,63,0,94
1,65,110,2
1,65,0,46
1,63,110,2
1,63,0,46
1,65,110,2
1,65,0,160
1,63,110,272
1,63,0,48
1,63,110,0
1,63,0,144
1,63,110,0
1,63,0,48
1,63,110,0
1,63,0,144
1,63,110,0
1,63,0,48
1,66,110,0
1,66,0,192
1,65,110,0
1,65,0,46
1,61,110,2
1,61,0,96
1,61,110,0
1,61,0,96
1,61,110,0
1,61,0,96
1,61,110,0
1,61,0,96
1,63,110,0
1,63,0,160
1,70,110,320
1,70,0,94
1,70,110,2
1,70,0,94
1,70,110,2
1,70,0,94
1,70,110,2
1,70,0,94
1,70,110,2
1,70,0,94
1,70,110,2
1,70,0,94
1,72,110,2
1,72,0,46
1,68,110,2
1,68,0,94
1,68,110,2
1,68,0,46
1,70,110,2
1,70,0,160
1,61,110,320
1,61,0,94
1,60,110,2
1,60,0,46
1,61,110,2
1,61,0,142
1,61,110,98
1,61,0,94
1,60,110,2
1,60,0,46
1,61,110,2
1,61,0,142
1,61,110,98
1,61,0,94
1,60,110,2
1,60,0,46
1,61,110,2
1,61,0,142
1,61,110,98
1,61,0,94
1,63,110,2
1,63,0,46
1,65,110,2
1,65,0,142
1,63,110,2
1,63,0,46
1,61,110,2
1,61,0,94
1,60,110,2
1,60,0,46
1,58,110,2
1,58,0,94
1,58,110,2
1,58,0,94
1,56,110,2
1,56,0,46
1,56,110,2
1,56,0,46
1,58,110,2
1,58,0,160
1,56,110,272
1,56,0,94
1,56,110,2
1,56,0,208
1,63,110,32
1,63,0,94
1,63,110,2
1,63,0,94
1,61,110,194
1,61,0,94
1,60,110,2
1,60,0,46
1,61,110,2
1,61,0,142
1,61,110,98
1,61,0,94
1,60,110,2
1,60,0,46
1,61,110,2
1,61,0,142
1,61,110,98
1,61,0,94
1,61,110,2
1,61,0,46
1,70,110,2
1,70,0,142
1,68,110,2
1,68,0,94
1,68,110,2
1,68,0,94
1,68,110,2
1,68,0,46
1,73,110,2
1,73,0,334
1,61,110,2
1,61,0,94
1,66,110,2
1,66,0,94
1,66,110,2
1,66,0,46
1,68,110,2
1,68,0,94
1,68,110,2
1,68,0,46
1,70,110,2
1,70,0,160
1,61,110,128
1,61,0,46
1,61,110,2
1,61,0,94
1,60,110,2
1,60,0,46
1,63,110,2
1,63,0,46
1,61,110,2
1,61,0,336
1,70,110,192
1,70,0,94
1,68,110,2
1,68,0,94
1,66,110,2
1,66,0,94
1,65,110,2
1,65,0,46
1,65,110,2
1,65,0,94
1,68,110,2
1,68,0,142
1,68,110,2
1,68,0,94
1,61,110,2
1,61,0,46
1,61,110,2
1,61,0,46
1,61,110,2
1,61,0,46
1,63,110,2
1,63,0,46
1,65,110,2
1,65,0,94
1,68,110,290
1,68,0,94
1,68,110,2
1,68,0,94
1,61,110,2
1,61,0,46
1,61,110,2
1,61,0,46
1,61,110,2
1,61,0,46
1,63,110,2
1,63,0,46
1,65,110,2
1,65,0,94
1,61,110,290
1,61,0,94
1,66,110,2
1,66,0,160
1,65,110,32
1,65,0,160
1,66,110,32
1,66,0,160
1,73,110,32
1,73,0,46
1,68,110,2
1,68,0,142
1,70,110,194
1,70,0,94
1,68,110,2
1,68,0,94
1,66,110,2
1,66,0,94
1,65,110,2
1,65,0,46
1,65,110,2
1,65,0,94
1,68,110,2
1,68,0,142
1,68,110,2
1,68,0,94
1,68,110,2
1,68,0,46
1,68,110,2
1,68,0,46
1,68,110,2
1,68,0,46
1,66,110,2
1,66,0,46
1,70,110,2
1,70,0,94
1,66,110,2
1,66,0,94
1,68,110,146
1,68,0,46
1,70,110,2
1,70,0,94
1,73,110,2
1,73,0,256
1,70,110,32
1,70,0,160
1,68,110,176
1,68,0,46
1,68,110,2
1,68,0,94
1,77,110,2
1,77,0,94
1,77,110,2
1,77,0,94
1,77,110,2
1,77,0,94
1,73,110,2
1,73,0,46
1,73,110,2
1,73,0,46
1,73,110,2
1,73,0,336
1,70,110,624
1,70,0,46
1,74,110,2
1,74,0,46
1,75,110,2
1,63,110,96
1,63,0,94
1,75,0,66
1,63,110,32
1,63,0,94
1,62,110,2
1,62,0,46
1,63,110,2
1,63,0,142
1,63,110,98
1,63,0,94
1,62,110,2
1,62,0,46
1,63,110,2
1,63,0,142
1,63,110,98
1,63,0,94
1,65,110,2
1,65,0,46
1,67,110,2
1,67,0,142
1,65,110,2
1,65,0,46
1,63,110,2
1,63,0,94
1,62,110,2
1,62,0,46
1,60,110,2
1,60,0,94
1,60,110,2
1,60,0,94
1,58,110,2
1,58,0,46
1,58,110,2
1,58,0,46
1,60,110,2
1,60,0,160
1,58,110,272
1,58,0,94
1,58,110,2
1,58,0,208
1,65,110,32
1,65,0,94
1,65,110,2
1,65,0,94
1,63,110,194
1,63,0,94
1,62,110,2
1,62,0,46
1,63,110,2
1,63,0,142
1,63,110,98
1,63,0,94
1,62,110,2
1,62,0,46
1,63,110,2
1,63,0,142
1,63,110,98
1,63,0,94
1,63,110,2
1,63,0,46
1,72,110,2
1,72,0,142
1,70,110,2
1,70,0,94
1,70,110,2
1,70,0,94
1,70,110,2
1,70,0,46
1,75,110,2
1,75,0,334
1,63,110,2
1,63,0,94
1,68,110,2
1,68,0,94
1,68,110,2
1,68,0,46
1,70,110,2
1,70,0,94
1,70,110,2
1,70,0,46
1,72,110,2
1,72,0,160
1,63,110,224
1,63,0,94
1,66,110,2
1,66,0,94
1,66,110,2
1,66,0,46
1,68,110,2
1,68,0,94
1,68,110,2
1,68,0,46
1,70,110,2
1,70,0,160
1,72,110,128
1,72,0,160
1,68,110,32
1,68,0,94
1,68,110,2
1,68,0,46
1,70,110,2
1,70,0,94
1,70,110,2
1,70,0,46
1,72,110,2
1,72,0,160
1,63,110,224
1,63,0,94
1,66,110,2
1,66,0,94
1,66,110,2
1,66,0,46
1,68,110,2
1,68,0,94
1,68,110,2
1,68,0,46
1,70,110,2
1,70,0,160
1,63,110,128
1,63,0,46
1,63,110,2
1,63,0,94
1,62,110,2
1,62,0,46
1,65,110,2
1,65,0,46
1,63,110,2
1,63,0,336
2,66,110,0
2,66,0,528
2,66,110,144
2,66,0,46
2,68,110,2
2,68,0,46
2,69,110,2
2,69,0,256
2,68,110,32
2,68,0,336
2,53,110,144
2,53,0,94
2,56,110,2
2,56,0,94
2,61,110,2
2,61,0,94
2,53,110,2
2,53,0,336
2,56,110,144
2,56,0,94
2,60,110,2
2,60,0,94
2,63,110,2
2,63,0,94
2,58,110,2
2,58,0,94
2,56,110,2
2,56,0,94
2,56,110,242
2,56,0,46
2,58,110,2
2,58,0,94
2,63,110,2
2,63,0,94
2,66,110,2
2,66,0,142
2,58,110,2
2,58,0,46
2,56,110,2
2,56,0,94
2,61,110,2
2,61,0,94
2,65,110,2
2,65,0,94
2,61,110,2
2,61,0,94
2,53,110,2
2,53,0,94
2,56,110,2
2,56,0,94
2,61,110,2
2,61,0,142
2,58,110,2
2,58,0,46
2,56,110,2
2,56,0,94
2,60,110,2
2,60,0,94
2,63,110,2
2,63,0,142
2,56,110,2
2,56,0,46
2,53,110,2
2,53,0,94
2,56,110,2
2,56,0,94
2,61,110,2
2,61,0,94
2,53,110,2
2,53,0,336
2,56,110,144
2,56,0,94
2,60,110,2
2,60,0,94
2,63,110,2
2,63,0,94
2,58,110,2
2,58,0,94
2,56,110,2
2,56,0,94
2,56,110,242
2,56,0,46
2,58,110,2
2,58,0,94
2,63,110,2
2,63,0,94
2,66,110,2
2,66,0,142
2,58,110,2
2,58,0,46
2,56,110,2
2,56,0,94
2,61,110,2
2,61,0,94
2,65,110,2
2,65,0,94
2,61,110,2
2,61,0,94
2,53,110,2
2,53,0,94
2,56,110,2
2,56,0,94
2,61,110,2
2,61,0,142
2,58,110,2
2,58,0,46
2,56,110,2
2,56,0,94
2,60,110,2
2,60,0,94
2,63,110,2
2,63,0,94
2,63,110,2
2,63,0,46
2,65,110,2
2,65,0,46
2,66,110,2
2,66,0,94
2,60,110,2
2,60,0,48
2,60,110,0
2,60,0,144
2,60,110,0
2,60,0,48
2,60,110,0
2,60,0,144
2,60,110,0
2,60,0,48
2,63,110,0
2,63,0,192
2,61,110,0
2,61,0,46
2,58,110,2
2,58,0,96
2,58,110,0
2,58,0,96
2,58,110,0
2,58,0,96
2,58,110,0
2,58,0,96
2,60,110,0
2,60,0,160
2,56,110,80
2,56,0,46
2,66,110,2
2,66,0,46
2,65,110,2
2,65,0,46
2,66,110,2
2,66,0,160
2,66,110,32
2,66,0,160
2,66,110,32
2,66,0,160
2,66,110,32
2,66,0,160
2,68,110,32
2,68,0,48
2,61,110,720
2,61,0,336
2,63,110,48
2,63,0,336
2,65,110,48
2,65,0,336
2,66,110,48
2,66,0,336
2,68,110,48
2,68,0,336
2,63,110,432
2,63,0,336
2,61,110,432
2,61,0,336
2,63,110,48
2,63,0,336
2,65,110,48
2,65,0,336
2,66,110,48
2,66,0,336
2,66,110,48
2,66,0,336
2,64,110,432
2,64,0,336
2,63,110,48
2,63,0,336
2,66,110,48
2,66,0,528
2,66,110,144
2,66,0,46
2,68,110,2
2,68,0,46
2,69,110,2
2,69,0,256
2,68,110,32
2,68,0,336
2,53,110,144
2,53,0,94
2,56,110,2
2,56,0,94
2,61,110,2
2,61,0,94
2,53,110,2
2,53,0,336
2,56,110,144
2,56,0,94
2,60,110,2
2,60,0,94
2,63,110,2
2,63,0,94
2,58,110,2
2,58,0,94
2,56,110,2
2,56,0,94
2,56,110,242
2,56,0,46
2,58,110,2
2,58,0,94
2,63,110,2
2,63,0,94
2,66,110,2
2,66,0,142
2,58,110,2
2,58,0,46
2,56,110,2
2,56,0,94
2,61,110,2
2,61,0,94
2,65,110,2
2,65,0,94
2,61,110,2
2,61,0,94
2,53,110,2
2,53,0,94
2,56,110,2
2,56,0,94
2,61,110,2
2,61,0,142
2,58,110,2
2,58,0,46
2,56,110,2
2,56,0,94
2,60,110,2
2,60,0,94
2,63,110,2
2,63,0,142
2,56,110,2
2,56,0,46
2,53,110,2
2,53,0,94
2,56,110,2
2,56,0,94
2,61,110,2
2,61,0,94
2,53,110,2
2,53,0,336
2,56,110,144
2,56,0,94
2,60,110,2
2,60,0,94
2,63,110,2
2,63,0,94
2,58,110,2
2,58,0,94
2,56,110,2
2,56,0,94
2,56,110,242
2,56,0,46
2,58,110,2
2,58,0,94
2,63,110,2
2,63,0,94
2,66,110,2
2,66,0,142
2,58,110,2
2,58,0,46
2,56,110,2
2,56,0,94
2,61,110,2
2,61,0,94
2,65,110,2
2,65,0,94
2,61,110,2
2,61,0,94
2,53,110,2
2,53,0,94
2,56,110,2
2,56,0,94
2,61,110,2
2,61,0,142
2,58,110,2
2,58,0,46
2,56,110,2
2,56,0,94
2,60,110,2
2,60,0,94
2,63,110,2
2,63,0,94
2,63,110,2
2,63,0,46
