track,note,velocity,time
1,79,127,960
1,79,0,94
1,79,127,2
1,79,0,94
1,80,127,2
1,80,0,94
1,82,127,2
1,82,0,94
1,75,127,98
1,75,0,190
1,79,127,2
1,79,0,94
1,79,127,2
1,79,0,94
1,75,127,2
1,75,0,94
1,79,127,2
1,79,0,160
1,77,127,32
1,77,0,94
1,75,127,2
1,75,0,94
1,79,127,194
1,79,0,94
1,79,127,2
1,79,0,94
1,80,127,2
1,80,0,94
1,82,127,2
1,82,0,94
1,75,127,98
1,75,0,190
1,79,127,2
1,79,0,94
1,79,127,2
1,79,0,94
1,75,127,2
1,75,0,94
1,79,127,2
1,79,0,160
1,77,127,32
1,77,0,94
1,75,127,2
1,75,0,94
1,79,127,194
1,79,0,94
1,79,127,2
1,79,0,94
1,80,127,2
1,80,0,94
1,82,127,2
1,82,0,94
1,75,127,98
1,75,0,190
1,79,127,2
1,79,0,94
1,79,127,2
1,79,0,94
1,75,127,2
1,75,0,94
1,79,127,2
1,79,0,160
1,77,127,32
1,77,0,94
1,75,127,2
1,75,0,94
1,79,127,194
1,79,0,94
1,79,127,2
1,79,0,94
1,80,127,2
1,80,0,94
1,82,127,2
1,82,0,94
1,75,127,98
1,75,0,190
1,79,127,2
1,79,0,94
1,79,127,2
1,79,0,94
1,75,127,2
1,75,0,94
1,79,127,2
1,79,0,160
1,77,127,32
1,77,0,94
1,75,127,2
1,75,0,94
1,82,127,2
1,82,0,160
1,79,127,32
1,79,0,160
1,77,127,32
1,77,0,94
1,75,127,2
1,75,0,94
1,77,127,2
1,77,0,160
1,72,127,32
1,72,0,94
1,75,127,2
1,75,0,94
1,75,127,2
1,75,0,94
1,72,127,2
1,72,0,94
1,77,127,2
1,77,0,160
1,72,127,32
1,72,0,94
1,72,127,2
1,72,0,190
1,70,127,2
1,70,0,256
1,70,127,1088
1,70,0,94
1,82,127,2
1,82,0,94
1,82,127,2
1,82,0,94
1,79,127,2
1,79,0,94
1,77,127,2
1,77,0,94
1,77,127,2
1,77,0,94
1,75,127,2
1,75,0,94
1,75,127,2
1,75,0,94
1,75,127,2
1,75,0,94
1,79,127,2
1,79,0,94
1,77,127,2
1,77,0,94
1,77,127,2
1,77,0,94
1,75,127,2
1,75,0,94
1,77,127,2
1,77,0,160
1,75,127,32
1,75,0,94
1,77,127,2
1,77,0,190
1,72,127,2
1,75,127,0
1,72,0,94
1,75,0,0
1,70,127,2
1,70,0,336
1,79,127,1200
1,79,0,94
1,75,127,2
1,75,0,190
1,79,127,2
1,79,0,94
1,75,127,2
1,75,0,160
1,79,127,224
1,79,0,94
1,79,127,2
1,79,0,190
1,77,127,2
1,77,0,94
1,75,127,2
1,75,0,160
1,79,127,224
1,79,0,94
1,75,127,2
1,75,0,190
1,79,127,2
1,79,0,94
1,75,127,2
1,75,0,160
1,77,127,128
1,77,0,94
1,79,127,98
1,79,0,190
1,77,127,2
1,77,0,94
1,75,127,2
1,75,0,94
1,72,127,2
1,72,0,94
1,79,127,194
1,79,0,94
1,75,127,2
1,75,0,190
1,72,127,2
1,72,0,94
1,79,127,2
1,79,0,94
1,75,127,2
1,75,0,190
1,75,127,2
1,75,0,94
1,75,127,2
1,75,0,94
1,75,127,2
1,75,0,94
1,77,127,2
1,77,0,94
1,79,127,2
1,79,0,94
1,82,127,98
1,82,0,256
1,79,127,32
1,79,0,94
1,84,127,2
1,84,0,94
1,82,127,2
1,82,0,160
1,79,127,32
1,79,0,160
1,75,127,32
1,75,0,94
1,75,127,2
1,75,0,94
1,77,127,2
1,77,0,94
1,72,127,2
1,72,0,94
1,80,127,2
1,80,0,94
1,79,127,2
1,79,0,94
1,80,127,2
1,80,0,94
1,79,127,2
1,79,0,94
1,82,127,2
1,82,0,94
1,79,127,2
1,79,0,94
1,79,127,98
1,79,0,94
1,77,127,2
1,77,0,94
1,75,127,2
1,75,0,94
1,79,127,2
1,79,0,94
1,75,127,2
1,75,0,190
1,75,127,2
1,75,0,94
1,80,127,98
1,80,0,190
1,79,127,2
1,79,0,94
1,80,127,2
1,80,0,94
1,79,127,2
1,79,0,94
1,82,127,2
1,82,0,94
1,79,127,2
1,79,0,94
1,79,127,98
1,79,0,94
1,77,127,2
1,77,0,94
1,75,127,2
1,75,0,94
1,79,127,2
1,79,0,94
1,75,127,2
1,75,0,190
1,75,127,2
1,75,0,94
1,80,127,194
1,80,0,94
1,79,127,2
1,79,0,94
1,80,127,2
1,80,0,94
1,79,127,2
1,79,0,94
1,82,127,2
1,82,0,94
1,79,127,2
1,79,0,94
1,79,127,2
1,79,0,94
1,79,127,2
1,79,0,94
1,77,127,2
1,77,0,94
1,75,127,2
1,75,0,94
1,75,127,2
1,75,0,160
1,79,127,128
1,79,0,94
1,79,127,2
1,79,0,94
1,82,127,2
1,82,0,94
1,77,127,2
1,77,0,94
1,75,127,2
1,75,0,94
1,77,127,2
1,77,0,94
1,72,127,2
1,75,127,0
1,72,0,94
1,75,0,0
1,79,127,98
1,79,0,94
1,79,127,2
1,79,0,94
1,79,127,2
1,79,0,94
1,77,127,2
1,77,0,94
1,75,127,2
1,75,0,94
1,75,127,2
1,75,0,94
1,75,127,2
1,75,0,94
1,84,127,2
1,84,0,160
1,84,127,32
1,84,0,160
1,84,127,32
1,84,0,160
1,82,127,32
1,82,0,94
1,82,127,2
1,82,0,256
1,79,127,32
1,79,0,94
1,79,127,2
1,79,0,94
1,80,127,2
1,80,0,94
1,82,127,2
1,82,0,94
1,75,127,98
1,75,0,190
1,79,127,2
1,79,0,94
1,79,127,2
1,79,0,94
1,75,127,2
1,75,0,94
1,79,127,2
1,79,0,160
1,77,127,32
1,77,0,94
1,75,127,2
1,75,0,94
1,79,127,194
1,79,0,94
1,79,127,2
1,79,0,94
1,80,127,2
1,80,0,94
1,82,127,2
1,82,0,94
1,75,127,98
1,75,0,190
1,79,127,2
1,79,0,94
1,79,127,2
1,79,0,94
1,75,127,2
1,75,0,94
1,79,127,2
1,79,0,160
1,77,127,32
1,77,0,94
1,75,127,2
1,75,0,94
1,82,127,2
1,82,0,160
1,79,127,32
1,79,0,160
1,77,127,32
1,77,0,94
1,75,127,2
1,75,0,94
1,77,127,2
1,77,0,160
1,72,127,32
1,72,0,94
1,75,127,2
1,75,0,94
1,75,127,2
1,75,0,94
1,72,127,2
1,72,0,94
1,77,127,2
1,77,0,160
1,72,127,32
1,72,0,94
1,72,127,2
1,72,0,190
1,70,127,2
1,70,0,256
1,70,127,1088
1,70,0,94
1,82,127,2
1,82,0,94
1,82,127,2
1,82,0,94
1,79,127,2
1,79,0,94
1,77,127,2
1,77,0,94
1,77,127,2
1,77,0,94
1,75,127,2
1,75,0,94
1,75,127,2
1,75,0,94
1,75,127,2
1,75,0,94
1,79,127,2
1,79,0,94
1,77,127,2
1,77,0,94
1,77,127,2
1,77,0,94
1,75,127,2
1,75,0,94
1,77,127,2
1,77,0,160
1,75,127,32
1,75,0,94
1,77,127,2
1,77,0,190
1,72,127,2
1,75,127,0
1,72,0,94
1,75,0,0
1,70,127,2
1,70,0,336
1,79,127,1200
1,79,0,94
1,75,127,2
1,75,0,190
1,79,127,2
1,79,0,94
1,75,127,2
1,75,0,160
1,79,127,224
1,79,0,94
1,79,127,2
1,79,0,190
1,77,127,2
1,77,0,94
1,75,127,2
1,75,0,160
1,79,127,224
1,79,0,94
1,75,127,2
1,75,0,190
1,79,127,2
1,79,0,94
1,75,127,2
1,75,0,160
1,77,127,128
1,77,0,94
1,79,127,98
1,79,0,190
1,77,127,2
1,77,0,94
1,75,127,2
1,75,0,94
1,72,127,2
1,72,0,94
1,79,127,194
1,79,0,94
1,75,127,2
1,75,0,190
1,72,127,2
1,72,0,94
1,79,127,2
1,79,0,94
1,75,127,2
1,75,0,190
1,75,127,2
1,75,0,94
1,75,127,2
1,75,0,94
1,75,127,2
1,75,0,94
1,77,127,2
1,77,0,94
1,79,127,2
1,79,0,94
1,82,127,98
1,82,0,256
1,79,127,32
1,79,0,94
1,84,127,2
1,84,0,94
1,82,127,2
1,82,0,160
1,79,127,32
1,79,0,160
1,75,127,32
1,75,0,94
1,75,127,2
1,75,0,94
1,77,127,2
1,77,0,94
1,72,127,2
1,72,0,94
1,80,127,2
1,80,0,94
1,79,127,2
1,79,0,94
1,80,127,2
1,80,0,94
1,79,127,2
1,79,0,94
1,82,127,2
1,82,0,94
1,79,127,2
1,79,0,94
1,79,127,98
1,79,0,94
1,77,127,2
1,77,0,94
1,75,127,2
1,75,0,94
1,79,127,2
1,79,0,94
1,75,127,2
1,75,0,190
1,75,127,2
1,75,0,94
1,80,127,98
1,80,0,190
1,79,127,2
1,79,0,94
1,80,127,2
1,80,0,94
1,79,127,2
1,79,0,94
1,82,127,2
1,82,0,94
1,79,127,2
1,79,0,94
1,79,127,98
1,79,0,94
1,77,127,2
1,77,0,94
1,75,127,2
1,75,0,94
1,79,127,2
1,79,0,94
1,75,127,2
1,75,0,190
1,75,127,2
1,75,0,94
1,80,127,194
1,80,0,94
1,79,127,2
1,79,0,94
1,80,127,2
1,80,0,94
1,79,127,2
1,79,0,94
1,82,127,2
1,82,0,94
1,79,127,2
1,79,0,94
1,79,127,2
1,79,0,94
1,79,127,2
1,79,0,94
1,77,127,2
1,77,0,94
1,75,127,2
1,75,0,94
1,75,127,2
1,75,0,160
1,79,127,128
1,79,0,94
1,79,127,2
1,79,0,94
1,82,127,2
1,82,0,94
1,77,127,2
1,77,0,94
1,75,127,2
1,75,0,94
1,77,127,2
1,77,0,94
1,72,127,2
1,75,127,0
1,72,0,94
1,75,0,0
1,79,127,98
1,79,0,94
1,79,127,2
1,79,0,94
1,79,127,2
1,79,0,94
1,77,127,2
1,77,0,94
1,75,127,2
1,75,0,94
1,75,127,2
1,75,0,94
1,75,127,2
1,75,0,94
1,84,127,2
1,84,0,160
1,84,127,32
1,84,0,160
1,84,127,32
1,84,0,160
1,82,127,32
1,82,0,94
1,82,127,2
1,82,0,256
1,79,127,32
1,79,0,94
1,79,127,2
1,79,0,94
1,80,127,2
1,80,0,94
1,82,127,2
1,82,0,94
1,75,127,98
1,75,0,190
1,79,127,2
1,79,0,94
1,79,127,2
1,79,0,94
1,75,127,2
1,75,0,94
1,79,127,2
1,79,0,160
1,77,127,32
1,77,0,94
1,75,127,2
1,75,0,94
1,79,127,194
1,79,0,94
1,79,127,2
1,79,0,94
1,80,127,2
1,80,0,94
1,82,127,2
1,82,0,94
1,75,127,98
1,75,0,190
1,79,127,2
1,79,0,94
1,79,127,2
1,79,0,94
1,75,127,2
1,75,0,94
1,79,127,2
1,79,0,160
1,77,127,32
1,77,0,94
1,75,127,2
1,75,0,94
1,89,127,7106
1,89,0,94
1,87,127,2
1,87,0,94
1,87,127,2
1,87,0,94
1,84,127,2
1,84,0,94
1,84,127,2
1,84,0,94
1,82,127,2
1,82,0,10
1,79,127,2
1,79,0,82
1,79,127,866
1,79,0,190
1,82,127,2
1,82,0,190
1,84,127,2
1,84,0,94
1,84,127,98
1,84,0,94
1,79,127,962
1,79,0,160
1,82,127,32
1,82,0,160
1,84,127,32
1,84,0,94
1,79,127,2
1,82,127,0
1,79,0,94
1,82,0,0
1,75,127,2
1,79,127,0
1,84,127,0
1,75,0,94
1,79,0,0
1,84,0,0
1,75,127,2
1,79,127,0
1,84,127,0
1,75,0,94
1,79,0,0
1,84,0,0
1,75,127,2
1,79,127,0
1,84,127,0
1,75,0,94
1,79,0,0
1,84,0,0
1,75,127,2
1,79,127,0
1,83,127,0
1,75,0,94
1,79,0,0
1,83,0,0
1,75,127,2
1,79,127,0
1,83,127,0
1,75,0,10
1,79,0,0
1,83,0,0
1,75,127,2
1,79,127,0
1,83,127,0
1,75,0,82
1,79,0,0
1,83,0,0
1,75,127,2
1,79,127,0
1,83,127,0
1,75,0,94
1,79,0,0
1,83,0,0
1,75,127,2
1,79,127,0
1,82,127,0
1,75,0,94
1,79,0,0
1,82,0,0
1,75,127,2
1,79,127,0
1,82,127,0
1,75,0,10
1,79,0,0
1,82,0,0
1,75,127,2
1,79,127,0
1,82,127,0
1,75,0,82
1,79,0,0
1,82,0,0
1,75,127,2
1,79,127,0
1,82,127,0
1,75,0,94
1,79,0,0
1,82,0,0
1,75,127,2
1,79,127,0
1,82,127,0
1,75,0,94
1,79,0,0
1,82,0,0
1,75,127,2
1,79,127,0
1,82,127,0
1,75,0,10
1,79,0,0
1,82,0,0
1,75,127,2
1,79,127,0
1,82,127,0
1,75,0,82
1,79,0,0
1,82,0,0
1,79,127,2
1,83,127,0
1,86,127,0
1,79,0,352
1,83,0,0
1,86,0,0
1,79,127,32
1,79,0,94
1,82,127,2
1,82,0,10
1,84,127,2
1,84,0,82
1,87,127,2
1,87,0,94
1,89,127,2
1,89,0,94
1,87,127,2
1,87,0,10
1,84,127,2
1,84,0,82
1,82,127,2
1,82,0,10
1,79,127,2
1,79,0,82
1,77,127,2
1,77,0,10
1,75,127,2
1,75,0,244
1,84,127,32
1,84,0,160
1,84,127,224
1,84,0,160
1,84,127,224
1,84,0,160
1,84,127,32
1,84,0,160
1,84,127,32
1,84,0,160
1,82,127,32
1,82,0,94
1,82,127,2
1,82,0,256
1,87,127,32
1,87,0,256
1,85,127,32
1,85,0,94
1,82,127,2
1,82,0,94
1,85,127,2
1,85,0,190
1,82,127,2
1,82,0,94
1,80,127,98
1,80,0,190
1,79,127,2
1,79,0,94
1,80,127,2
1,80,0,94
1,79,127,2
1,79,0,94
1,82,127,2
1,82,0,94
1,79,127,2
1,79,0,94
1,87,127,2
1,87,0,94
1,82,127,2
1,82,0,94
1,82,127,2
1,82,0,94
1,85,127,2
1,85,0,94
1,80,127,98
1,80,0,190
1,78,127,2
1,78,0,94
1,80,127,2
1,80,0,94
1,78,127,2
1,78,0,94
1,80,127,2
1,80,0,94
1,79,127,2
1,79,0,94
1,80,127,2
1,80,0,94
1,79,127,2
1,79,0,94
1,82,127,2
1,82,0,94
1,79,127,2
1,79,0,94
1,79,127,2
1,79,0,94
1,84,127,2
1,84,0,94
1,77,127,2
1,77,0,94
1,75,127,2
1,75,0,94
1,77,127,2
1,77,0,94
1,72,127,2
1,75,127,0
1,72,0,94
1,75,0,0
1,79,127,98
1,79,0,94
1,79,127,2
1,79,0,94
1,79,127,2
1,79,0,94
1,84,127,2
1,84,0,94
1,82,127,2
1,82,0,94
1,79,127,2
1,79,0,160
1,79,127,128
1,79,0,94
1,79,127,2
1,79,0,94
1,79,127,2
1,79,0,94
1,79,127,2
1,79,0,94
1,79,127,2
1,79,0,94
1,77,127,2
1,77,0,94
1,75,127,2
1,75,0,94
1,79,127,2
1,79,0,160
1,79,127,32
1,79,0,160
1,80,127,32
1,80,0,94
1,79,127,2
1,79,0,94
1,80,127,2
1,80,0,94
1,79,127,2
1,79,0,94
1,82,127,2
1,82,0,94
1,79,127,2
1,79,0,94
1,82,127,98
1,82,0,190
1,80,127,2
1,80,0,94
1,82,127,2
1,82,0,94
1,85,127,2
1,85,0,94
1,82,127,2
1,82,0,94
1,80,127,2
1,80,0,94
1,80,127,98
1,80,0,190
1,79,127,2
1,79,0,94
1,80,127,2
1,80,0,94
1,79,127,2
1,79,0,94
1,82,127,2
1,82,0,94
1,79,127,2
1,79,0,94
1,79,127,98
1,79,0,94
1,77,127,2
1,77,0,94
1,75,127,2
1,75,0,94
1,79,127,2
1,79,0,94
1,75,127,2
1,75,0,190
1,75,127,2
1,75,0,94
1,80,127,194
1,80,0,94
1,79,127,2
1,79,0,94
1,80,127,2
1,80,0,94
1,79,127,2
1,79,0,94
1,82,127,2
1,82,0,94
1,79,127,2
1,79,0,94
1,79,127,2
1,79,0,94
1,84,127,2
1,84,0,94
1,77,127,2
1,77,0,94
1,75,127,2
1,75,0,94
1,77,127,2
1,77,0,94
1,72,127,2
1,75,127,0
1,72,0,94
1,75,0,0
1,79,127,98
1,79,0,94
1,79,127,2
1,79,0,94
1,79,127,2
1,79,0,94
