track,note,velocity,time
0,36,70,592
0,40,48,0
0,49,70,0
0,60,91,0
0,41,73,8
0,53,64,18
0,60,64,4
0,40,56,258
0,60,91,0
0,40,32,46
0,60,60,0
0,40,24,56
0,60,64,0
0,40,64,38
0,60,82,0
0,40,72,286
0,60,82,0
0,40,40,36
0,60,60,0
0,40,32,72
0,60,73,0
0,36,70,36
0,40,56,0
0,60,73,0
0,41,73,8
0,53,64,0
0,60,73,6
0,40,56,264
0,60,73,0
0,40,32,44
0,60,60,0
0,40,24,70
0,60,73,0
0,40,64,30
0,60,73,0
0,40,40,296
0,60,91,0
0,40,32,46
0,60,60,0
0,40,24,72
0,60,73,0
0,36,70,26
0,40,48,0
0,57,70,0
0,60,91,0
0,60,64,2
0,53,82,2
0,41,82,4
0,40,56,242
0,60,82,0
0,40,32,46
0,60,64,0
0,40,24,64
0,60,64,0
0,40,64,44
0,60,82,0
0,40,48,314
0,60,91,0
0,40,40,50
0,60,64,0
0,40,32,56
0,60,82,0
0,36,70,34
0,40,56,0
0,60,82,0
0,41,64,6
0,60,60,2
0,53,73,2
0,40,56,276
0,60,91,0
0,40,32,50
0,60,60,0
0,40,24,70
0,60,64,0
0,40,64,50
0,60,64,0
0,40,40,304
0,60,91,0
0,41,73,4
0,60,60,8
0,53,73,6
0,40,48,32
0,60,60,0
0,40,40,60
0,60,64,0
0,36,70,32
0,40,64,0
0,49,70,0
0,60,82,0
0,41,82,4
0,60,64,6
0,53,73,2
0,40,56,288
0,60,91,0
0,40,32,50
0,60,48,0
0,40,24,50
0,60,73,0
0,40,64,50
0,60,73,0
0,40,72,310
0,60,91,0
0,40,40,64
0,60,56,0
0,40,32,44
0,60,82,0
0,36,70,44
0,40,56,0
0,60,73,0
0,41,82,2
0,53,73,16
0,60,56,6
0,40,56,288
0,60,82,0
0,40,32,56
0,60,60,0
0,40,24,42
0,60,82,0
0,40,64,44
0,60,73,0
0,40,40,312
0,60,82,0
0,40,32,62
0,60,60,0
0,40,24,50
0,60,82,0
0,36,70,46
0,40,48,0
0,57,70,0
0,60,73,0
0,41,91,12
0,60,60,14
0,53,73,4
0,40,56,266
0,60,82,0
0,40,32,62
0,60,64,0
0,40,24,60
0,60,91,0
0,40,64,40
0,60,73,0
0,40,48,306
0,60,91,0
0,40,40,60
0,60,60,0
0,40,32,50
0,60,82,0
0,36,70,40
0,40,56,0
0,60,91,0
0,41,73,6
0,60,73,18
0,53,82,4
0,65,100,648
0,40,40,4
0,40,56,140
0,65,91,2
0,40,72,94
0,69,91,12
0,36,70,96
0,40,48,0
0,41,73,0
0,49,70,0
0,57,82,0
0,60,91,0
0,65,73,0
0,60,60,2
0,53,82,2
0,53,73,0
0,41,82,6
0,41,54,12
0,69,91,4
0,40,56,190
0,40,32,96
0,40,24,96
0,40,64,96
0,40,72,352
0,40,40,96
0,40,32,96
0,57,82,84
0,60,82,0
0,65,73,0
0,53,73,8
0,60,64,0
0,41,64,2
0,36,70,2
0,40,56,0
0,53,91,14
0,41,82,4
0,40,56,190
0,40,32,96
0,40,24,44
0,41,54,56
0,40,64,22
0,65,100,10
0,40,48,96
0,40,36,52
0,65,100,2
0,40,64,94
0,40,32,60
0,69,91,0
0,40,24,96
0,46,52,34
0,65,73,22
0,62,82,2
0,36,70,4
0,40,48,0
0,57,70,0
0,58,91,0
0,58,73,6
0,53,56,4
0,46,73,2
0,58,56,2
0,70,82,6
0,46,82,2
0,40,56,214
0,40,32,96
0,40,24,96
0,41,54,36
0,53,82,24
0,41,73,2
0,57,64,0
0,69,91,0
0,60,91,2
0,60,60,0
0,65,73,0
0,53,56,6
0,40,64,4
0,41,73,0
0,40,48,226
0,40,40,96
0,40,32,96
0,53,60,78
0,60,56,0
0,41,73,4
0,53,82,4
0,41,82,6
0,65,64,0
0,57,64,2
0,60,82,0
0,36,70,2
0,40,56,0
0,40,56,240
0,40,32,96
0,40,24,96
0,45,54,66
0,40,64,18
0,65,100,30
0,65,100,102
0,48,54,32
0,40,40,14
0,40,48,62
0,65,100,6
0,40,40,90
0,43,54,38
0,55,64,8
0,58,73,0
0,62,64,2
0,43,91,2
0,55,82,0
0,36,70,4
0,40,64,0
0,49,70,0
0,43,64,4
0,55,56,0
0,62,60,2
0,67,82,14
0,40,56,230
0,40,32,96
0,40,24,96
0,40,64,96
0,40,72,352
0,40,40,96
0,40,32,96
0,36,70,68
0,40,56,0
0,43,58,0
0,62,82,4
0,65,64,2
0,58,73,2
0,55,91,2
0,43,82,4
0,43,73,8
0,55,56,2
0,62,60,4
0,69,91,150
0,40,56,2
0,40,32,96
0,67,91,36
0,40,24,60
0,40,64,56
0,65,91,6
0,40,48,96
0,40,32,96
0,40,56,96
0,67,91,4
0,40,32,96
0,40,24,96
0,41,54,58
0,41,64,12
0,64,73,10
0,67,73,2
0,60,91,4
0,64,60,8
0,36,70,2
0,40,48,0
0,57,70,0
0,60,82,2
0,41,64,2
0,57,73,2
0,69,91,0
0,53,52,22
0,64,52,0
0,60,60,6
0,57,52,2
0,40,56,228
0,40,32,96
0,40,24,96
0,40,64,96
0,40,48,352
0,40,40,96
0,40,32,96
0,62,91,74
0,65,82,0
0,60,73,6
0,41,52,6
0,41,82,2
0,36,70,8
0,40,56,0
0,60,73,4
0,62,73,0
0,57,64,4
0,57,56,22
0,41,73,4
0,62,48,4
0,60,56,4
0,40,40,288
0,65,100,18
0,40,56,24
0,65,100,4
0,40,72,68
0,69,100,28
0,41,58,16
0,53,91,26
0,41,91,4
0,36,70,6
0,40,48,0
0,49,70,0
0,65,64,12
0,57,64,2
0,60,82,0
0,69,91,4
0,41,64,4
0,53,60,0
0,60,56,6
0,40,56,244
0,40,32,96
0,40,24,96
0,40,64,96
0,40,72,352
0,40,40,96
0,40,32,96
0,41,58,72
0,57,73,20
0,65,64,0
0,60,82,2
0,36,70,2
0,40,56,0
0,41,73,10
0,41,64,2
0,53,91,0
0,60,64,0
0,53,64,2
0,40,56,244
0,40,32,96
0,40,24,62
0,65,100,78
0,40,64,18
0,40,48,96
0,40,36,70
0,65,100,8
0,40,64,96
0,40,32,26
0,69,73,20
0,40,24,96
0,46,54,22
0,65,64,32
0,58,60,2
0,62,64,2
0,36,70,4
0,40,48,0
0,57,70,0
0,70,91,2
0,58,82,10
0,58,56,0
0,46,73,2
0,53,52,0
0,46,82,8
0,40,56,222
0,40,32,96
0,40,24,2
0,69,91,40
0,57,64,10
0,65,73,0
0,60,60,2
0,41,54,2
0,60,73,2
0,40,64,4
0,41,73,2
0,53,60,0
0,53,82,14
0,41,73,6
0,40,48,222
0,40,40,96
0,40,32,96
0,36,70,96
0,40,56,0
0,53,91,2
0,57,60,0
0,65,64,0
0,60,73,6
0,41,82,2
0,41,64,8
0,53,60,8
0,60,52,2
0,40,56,100
0,40,32,96
0,40,24,96
0,41,52,84
0,40,64,12
0,65,100,340
0,40,40,12
0,40,48,22
0,65,91,18
0,40,40,78
0,43,52,40
0,55,73,30
0,58,64,2
0,58,73,0
0,62,73,0
0,36,70,4
0,40,64,0
0,49,70,0
0,62,73,0
0,67,82,0
0,43,91,8
0,43,73,14
0,62,56,0
0,55,56,2
0,40,56,198
0,40,32,96
0,40,24,96
0,40,64,96
0,40,72,352
0,40,40,96
0,40,32,96
0,62,56,64
0,55,52,12
0,58,60,2
0,43,52,6
0,58,60,10
0,36,70,2
0,40,56,0
0,43,73,2
0,55,56,0
0,55,64,10
0,60,60,0
0,48,73,2
0,69,100,226
0,40,56,4
0,40,32,12
0,67,82,28
0,40,24,68
0,40,64,82
0,65,100,4
0,40,48,96
0,40,32,16
0,40,56,96
0,67,91,2
0,40,32,96
0,40,24,20
0,41,50,60
0,53,82,24
0,41,73,8
0,36,70,4
0,40,48,0
0,57,70,0
0,69,91,2
0,57,64,10
0,60,73,0
0,65,64,0
0,41,64,8
0,60,60,4
0,53,60,6
0,57,56,0
0,40,56,236
0,40,32,96
0,40,24,96
0,40,64,96
0,65,64,18
0,57,60,2
0,60,73,2
0,40,48,268
0,40,40,96
0,40,32,96
0,41,58,64
0,36,70,32
0,40,56,0
0,41,73,0
0,53,91,6
0,65,64,0
0,41,82,4
0,57,64,0
0,60,82,0
0,53,73,4
0,60,56,0
0,57,60,4
0,40,40,562
0,65,81,0
0,40,56,34
0,65,86,0
0,40,72,58
0,74,81,0
0,62,56,26
0,70,64,4
0,36,70,20
0,42,72,0
0,74,81,0
0,65,93,6
0,55,80,2
0,62,93,0
0,58,93,4
0,31,86,8
0,42,40,88
0,42,48,62
0,33,86,56
0,40,80,16
0,42,64,0
0,42,56,96
0,42,48,0
0,34,86,82
0,36,70,14
0,42,64,0
0,42,48,96
0,42,40,62
0,55,80,14
0,65,84,8
0,58,84,2
0,62,84,0
0,38,86,2
0,40,80,14
0,42,72,0
0,42,48,94
0,36,64,96
0,42,64,0
0,36,86,30
0,64,60,8
0,36,70,2
0,42,64,0
0,72,56,0
0,55,80,4
0,58,93,8
0,64,84,0
0,60,84,2
0,42,48,96
0,42,32,96
0,64,81,26
0,31,86,54
0,40,80,10
0,42,80,0
0,42,64,96
0,42,40,96
0,64,86,32
0,36,86,60
0,36,70,4
0,42,64,0
0,42,32,96
0,42,56,96
0,72,86,30
0,34,86,44
0,40,80,20
0,42,72,0
0,42,48,96
0,42,48,4
0,72,75,8
0,60,73,38
0,69,64,4
0,33,86,10
0,36,70,12
0,42,72,0
0,60,93,16
0,67,84,2
0,64,84,4
0,57,76,2
0,55,68,2
0,42,40,62
0,42,48,96
0,36,86,0
0,40,80,10
0,42,64,0
0,42,56,96
0,42,48,96
0,40,86,94
0,36,70,2
0,42,64,0
0,42,48,96
0,42,40,36
0,60,93,16
0,64,93,2
0,55,76,2
0,57,76,4
0,67,84,6
0,36,86,30
0,40,80,0
0,42,72,0
0,42,48,96
0,36,64,96
0,42,64,0
0,60,56,4
0,38,86,6
0,65,73,2
0,36,70,2
0,42,64,0
0,57,80,20
0,65,84,0
0,60,93,2
0,62,93,2
0,42,48,96
0,42,32,96
0,33,86,82
0,40,80,14
0,42,80,0
0,42,64,96
0,42,40,96
0,38,86,42
0,36,70,8
0,42,64,0
0,65,86,0
0,42,32,96
0,42,56,20
0,65,86,0
0,57,93,16
0,65,80,4
0,60,84,2
0,62,93,0
0,33,86,2
0,40,80,24
0,42,72,0
0,42,48,86
0,70,86,0
0,42,48,8
0,62,60,62
0,31,86,6
0,65,93,2
0,67,64,0
0,36,70,10
0,42,72,0
0,55,80,0
0,70,73,0
0,62,93,10
0,58,93,4
0,42,40,96
0,42,48,54
0,34,86,86
0,40,80,10
0,42,64,0
0,42,56,96
0,42,48,16
0,60,64,18
0,64,73,0
0,36,86,10
0,36,70,6
0,42,64,0
0,64,76,28
0,55,76,0
0,58,84,2
0,60,84,2
0,42,48,92
0,42,40,96
0,31,86,88
0,40,80,8
0,42,72,0
0,69,86,0
0,42,48,96
0,70,77,32
0,36,64,64
0,42,64,0
0,64,64,46
0,72,60,4
0,36,70,6
0,42,64,0
0,72,81,0
0,36,86,2
0,42,48,96
0,42,32,96
0,34,86,80
0,40,80,16
0,42,80,0
0,42,64,96
0,42,40,0
0,33,86,24
0,64,60,22
0,67,64,4
0,36,70,2
0,42,64,0
0,42,32,96
0,42,56,12
0,55,80,22
0,58,84,2
0,60,84,0
0,64,93,0
0,31,86,20
0,40,80,12
0,42,72,0
0,70,81,0
0,42,48,96
0,42,48,46
0,29,86,64
0,64,64,2
0,69,64,0
0,53,80,2
0,57,93,0
0,36,70,2
0,42,72,0
0,72,77,0
0,60,84,2
0,42,40,96
0,42,48,96
0,33,86,78
0,40,80,18
0,42,64,0
0,42,56,96
0,42,48,2
0,36,86,94
0,36,70,2
0,42,64,0
0,42,48,96
0,42,40,32
0,60,93,0
0,57,93,2
0,65,80,0
0,38,86,8
0,40,80,12
0,42,72,0
0,42,48,96
0,36,64,4
0,42,64,0
0,41,86,66
0,65,60,8
0,69,60,0
0,36,70,6
0,42,64,0
0,57,93,2
0,60,93,0
0,65,93,4
0,42,48,32
0,42,32,86
0,41,86,80
0,40,80,16
0,42,80,0
0,65,90,0
0,42,64,96
0,42,40,0
0,29,86,78
0,36,70,6
0,42,64,0
0,65,86,0
0,42,32,96
0,42,56,96
0,29,86,76
0,40,80,18
0,42,72,0
0,73,81,0
0,42,48,96
0,42,48,2
0,61,73,86
0,65,73,2
0,36,70,8
0,42,72,0
0,73,81,0
0,58,84,10
0,34,86,6
0,56,80,4
0,65,84,0
0,61,84,2
0,42,40,96
0,42,48,96
0,34,86,94
0,40,80,2
0,42,64,0
0,42,56,96
0,42,48,96
0,36,70,2
0,42,64,0
0,37,86,2
0,42,48,96
0,42,40,96
0,65,93,0
0,56,93,0
0,58,93,0
0,61,84,2
0,41,86,34
0,40,80,8
0,42,72,0
0,42,48,96
0,36,64,96
0,42,64,0
0,36,70,56
0,42,64,0
0,39,86,2
0,67,60,2
0,61,60,4
0,55,80,6
0,58,84,4
0,63,84,6
0,61,84,4
0,42,48,96
0,42,32,36
0,37,86,88
0,40,80,8
0,42,80,0
0,63,90,0
0,42,64,96
0,42,40,96
0,36,86,72
0,36,70,14
0,42,64,0
0,63,86,0
0,42,32,96
0,42,56,24
0,34,86,64
0,40,80,30
0,42,72,0
0,72,86,0
0,42,48,96
0,42,48,10
0,60,64,68
0,67,64,8
0,56,84,8
0,60,93,6
0,63,80,0
0,67,102,0
0,32,86,4
0,36,70,2
0,42,72,0
0,72,77,0
0,42,40,94
0,42,48,96
0,36,86,82
0,40,80,14
0,42,64,0
0,42,56,96
0,42,48,96
0,39,86,90
0,36,70,6
0,42,64,0
0,42,48,96
0,42,40,22
0,63,80,6
0,56,93,6
0,67,93,0
0,60,93,2
0,36,86,52
0,40,80,6
0,42,72,0
0,42,48,96
0,36,64,24
0,42,64,0
0,39,86,12
0,37,86,50
0,36,70,12
0,42,64,0
0,65,64,4
0,60,60,4
0,61,80,16
0,72,80,0
0,65,93,4
0,68,80,2
0,42,48,86
0,42,32,96
0,37,86,86
0,40,80,10
0,42,80,0
0,65,86,0
0,42,64,96
0,42,40,96
0,32,86,82
0,36,70,6
0,42,64,0
0,65,86,0
0,42,32,20
0,42,56,96
0,32,86,74
0,40,80,8
0,42,72,0
0,70,86,0
0,42,48,42
0,42,48,96
0,70,73,76
0,61,56,6
0,36,70,2
0,42,72,0
0,70,86,0
0,65,93,10
0,58,102,2
0,61,93,0
0,34,86,2
0,42,40,62
0,42,48,96
0,34,86,94
0,40,80,2
0,42,64,0
0,42,56,96
0,42,48,96
0,36,70,96
0,42,64,0
0,34,86,20
0,42,48,96
0,58,80,56
0,65,84,0
0,61,80,4
0,42,40,6
0,34,86,6
0,40,80,4
0,42,72,0
0,42,48,96
0,36,64,96
0,42,64,0
0,61,64,4
0,65,84,2
0,58,84,2
0,61,84,4
0,65,64,0
0,34,86,4
0,36,70,0
0,42,64,0
0,42,48,96
0,42,32,96
0,40,80,60
0,42,80,0
0,34,86,2
0,42,64,96
0,42,40,96
0,35,86,30
0,36,70,8
0,42,64,0
0,68,86,0
0,65,60,14
0,68,64,0
0,65,84,8
0,59,102,4
0,42,32,34
0,42,56,0
0,35,86,74
0,40,80,22
0,42,72,0
0,42,48,96
0,42,48,6
0,65,64,58
0,67,60,2
0,36,70,12
0,42,72,0
0,67,81,0
0,36,86,8
0,60,93,6
0,65,111,0
0,67,111,4
0,42,40,50
0,42,48,96
0,40,80,96
0,42,64,0
0,36,86,4
0,42,56,96
0,42,48,96
0,31,86,86
0,36,70,10
0,42,64,0
0,42,48,96
0,42,40,96
0,31,86,22
0,40,80,0
0,42,72,0
0,40,56,96
0,42,48,0
0,36,64,96
0,40,40,0
0,42,64,0
0,64,73,52
0,67,73,0
0,36,70,4
0,36,86,0
0,40,80,0
0,42,64,0
0,64,84,0
0,58,76,6
0,60,93,0
0,42,80,192
0,42,64,352
0,65,100,4
0,65,100,106
