track,note,velocity,time
1,58,74,0
1,61,86,4
1,63,86,4
1,63,90,4
1,63,93,4
1,61,83,4
1,61,83,4
1,58,83,4
1,58,83,4
1,61,86,4
1,63,86,4
1,63,90,4
1,63,86,4
1,65,86,4
1,61,93,4
1,58,86,4
1,58,83,4
1,61,80,4
1,61,81,4
1,59,86,4
1,59,90,4
1,58,86,4
1,58,89,4
1,56,80,4
1,56,83,4
1,54,80,4
1,58,86,4
1,58,101,4
1,58,113,4
1,56,97,4
1,54,109,4
1,58,93,4
1,58,101,4
1,63,105,4
1,63,109,4
1,66,93,4
1,66,93,4
1,63,95,4
1,63,90,4
1,66,90,4
1,66,86,4
1,58,83,4
1,63,86,4
1,61,83,4
1,58,71,4
1,56,59,4
1,58,80,4
1,61,80,4
1,70,105,0
1,73,90,4
1,75,113,4
1,75,101,4
1,75,109,4
1,73,105,4
1,73,105,4
1,70,109,4
1,70,109,4
1,73,105,4
1,75,113,4
1,75,93,4
1,75,109,4
1,77,101,4
1,73,113,4
1,70,105,4
1,70,105,4
1,73,113,4
1,73,109,4
1,71,97,4
1,71,105,4
1,70,109,4
1,70,118,4
1,68,109,4
1,68,113,4
1,66,105,4
1,70,109,4
1,70,113,196
1,70,109,4
1,68,109,4
1,66,109,4
1,70,113,4
1,70,113,4
1,75,113,4
1,75,113,4
1,78,105,4
1,78,109,4
1,75,105,4
1,82,83,4
1,80,109,4
1,75,109,4
1,75,105,4
1,78,93,4
1,75,109,4
1,73,105,4
1,70,109,4
1,68,86,4
1,70,97,4
1,73,86,4
1,70,109,4
1,70,113,4
1,68,93,4
1,68,109,4
1,66,97,4
1,66,105,4
1,63,109,4
1,66,97,4
1,68,113,4
1,66,90,4
1,63,105,4
1,70,109,4
1,73,93,4
1,71,101,4
1,70,101,4
1,68,101,4
1,68,97,4
1,63,93,4
1,73,93,4
1,71,113,4
1,70,113,4
1,68,101,4
1,73,109,4
1,71,113,4
1,82,101,0
1,82,109,4
1,80,113,4
1,80,113,4
1,78,109,4
1,78,109,4
1,75,109,4
1,78,109,4
1,80,122,4
1,78,109,4
1,75,109,4
1,75,109,4
1,85,109,4
1,83,113,4
1,82,105,4
1,80,105,4
1,80,109,4
1,75,97,4
1,85,101,4
1,83,101,4
1,82,109,4
1,80,109,4
1,85,113,4
1,83,109,4
1,58,83,0
1,61,83,4
1,63,83,4
1,63,93,4
1,63,105,4
1,61,74,4
1,61,101,4
1,58,101,4
1,58,101,4
1,61,80,4
1,63,109,4
1,63,105,4
1,63,109,4
1,65,90,4
1,61,105,4
1,58,101,4
1,58,101,4
1,61,105,4
1,61,118,4
1,59,97,4
1,59,101,4
1,58,101,4
1,58,109,4
1,56,105,4
1,56,109,4
1,54,101,4
1,58,97,4
1,58,105,4
1,58,109,4
1,56,105,4
1,54,105,4
1,58,105,4
1,58,101,4
1,63,109,4
1,63,109,4
1,66,106,4
1,66,107,4
1,63,109,4
1,70,111,4
1,68,103,4
1,63,101,4
1,63,103,4
1,66,107,4
1,63,103,4
1,61,101,4
1,58,101,4
1,56,103,4
1,58,105,4
1,61,97,4
1,85,80,0
1,85,90,4
1,83,105,4
1,82,93,4
1,83,93,4
1,85,105,4
1,82,101,4
1,80,109,4
1,80,109,4
1,78,105,4
1,78,90,4
1,75,101,4
1,78,93,4
1,80,109,4
1,78,109,4
1,75,113,4
1,82,109,4
1,85,109,4
1,83,105,4
1,82,113,4
1,80,109,4
1,80,101,4
1,75,97,4
1,85,101,4
1,83,109,4
1,82,109,4
1,80,109,4
1,85,113,4
1,83,113,4
1,85,113,4
1,87,109,4
1,85,105,4
1,83,80,4
1,82,97,4
1,83,93,4
1,85,105,4
1,82,105,4
1,80,105,4
1,80,109,4
1,78,90,4
1,78,93,4
1,75,101,4
1,78,90,4
1,80,109,4
1,78,105,4
1,75,93,4
1,82,109,4
1,85,105,4
1,83,101,4
1,82,105,4
1,80,109,4
1,80,97,4
1,75,93,4
1,85,97,4
1,83,101,4
1,82,97,4
1,80,93,4
1,85,86,4
1,83,101,4
1,82,109,4
1,80,83,4
1,78,77,80
1,75,80,4
1,80,83,10
1,78,113,48
1,80,90,8
1,82,97,0
1,80,77,0
1,78,83,0
1,75,81,0
1,78,87,0
1,80,87,14
1,82,97,0
1,85,90,48
1,82,93,0
1,87,93,10
1,85,88,4
1,82,87,4
1,85,90,4
1,87,91,8
1,87,118,196
1,85,101,4
1,83,105,4
1,82,93,4
1,83,93,4
1,85,105,4
1,82,101,4
1,80,109,4
1,80,109,4
1,78,105,4
1,78,90,4
1,75,101,4
1,78,93,4
1,80,109,4
1,78,109,4
1,75,113,4
1,82,109,4
1,85,109,4
1,83,105,4
1,82,113,4
1,80,109,4
1,80,101,4
1,75,97,4
1,85,101,4
1,83,109,4
1,82,109,4
1,80,109,4
1,85,113,4
1,83,113,4
1,85,113,4
1,87,80,0
1,85,113,0
1,83,93,4
1,82,93,4
1,83,93,4
1,85,93,4
1,82,105,4
1,80,90,4
1,80,109,4
1,78,90,4
1,78,93,4
1,75,101,4
1,78,90,4
1,80,109,4
1,78,105,4
1,75,93,4
1,82,109,4
1,85,105,4
1,83,101,4
1,82,105,4
1,80,109,4
1,80,97,4
1,75,93,4
1,85,97,4
1,83,101,4
1,82,97,4
1,80,93,4
1,85,86,4
1,83,101,4
2,54,86,960
2,80,86,0
2,70,86,0
2,73,93,0
2,42,86,0
2,80,86,4
2,70,83,0
2,73,90,0
2,73,86,196
2,70,80,0
2,78,86,0
2,78,86,196
2,70,86,0
2,73,90,0
2,80,90,196
2,73,93,0
2,70,86,0
2,80,90,196
2,73,93,0
2,70,86,0
2,73,90,196
2,70,80,0
2,78,86,0
2,73,93,196
2,70,80,0
2,78,86,0
2,80,93,8
2,70,83,0
2,42,83,0
2,54,83,0
2,73,93,0
2,80,86,196
2,73,93,0
2,70,83,0
2,73,86,196
2,78,83,0
2,70,77,0
2,70,83,196
2,73,86,0
2,78,86,0
2,80,86,196
2,73,93,0
2,70,77,0
2,58,83,0
2,46,86,0
2,80,86,196
2,70,83,0
2,73,93,0
2,73,83,196
2,70,90,0
2,78,90,0
2,73,86,196
2,70,90,0
2,78,93,0
2,44,83,196
2,80,93,0
2,68,83,0
2,56,80,0
2,71,93,0
2,75,86,0
2,80,93,196
2,68,83,0
2,71,93,0
2,75,86,0
2,71,83,196
2,68,63,0
2,78,77,0
2,75,83,0
2,68,83,196
2,78,83,0
2,71,90,0
2,75,86,0
2,73,90,196
2,77,90,0
2,70,77,0
2,46,83,0
2,58,77,0
2,73,93,196
2,70,83,0
2,77,90,0
2,74,97,196
2,58,77,0
2,46,83,0
2,70,93,0
2,77,93,0
2,74,97,4
2,70,86,0
2,77,90,0
2,46,83,4
2,70,83,4
2,78,90,0
2,75,93,0
2,51,68,0
2,39,93,0
2,70,101,4
2,78,93,0
2,75,86,0
2,39,86,4
2,78,93,4
2,49,86,0
2,70,93,0
2,37,90,0
2,75,93,0
2,78,86,4
2,70,90,0
2,75,93,0
2,37,74,4
2,75,86,4
2,78,90,0
2,70,90,0
2,48,83,0
2,36,83,0
2,70,93,4
2,75,93,0
2,78,86,0
2,36,93,4
2,70,93,4
2,75,93,0
2,78,93,0
2,48,90,0
2,36,105,0
2,78,90,4
2,70,101,0
2,75,74,0
2,36,101,4
2,42,90,4
2,54,86,0
2,70,86,0
2,73,86,0
2,80,93,0
2,73,97,196
2,80,97,0
2,70,101,0
2,78,93,10
2,42,74,0
2,73,93,0
2,54,101,0
2,70,86,0
2,70,86,196
2,78,93,0
2,73,86,0
2,73,86,0
2,70,83,0
2,78,86,0
2,49,77,0
2,37,80,0
2,78,86,4
2,70,77,0
2,73,93,0
2,37,71,4
2,77,97,192
2,68,86,0
2,73,93,0
2,49,74,0
2,68,83,196
2,77,93,0
2,73,90,0
2,80,93,196
2,70,83,0
2,42,83,0
2,54,83,0
2,73,93,0
2,80,86,196
2,73,93,0
2,70,83,0
2,73,86,196
2,78,83,0
2,70,77,0
2,70,83,196
2,73,86,0
2,78,86,0
2,80,86,196
2,73,93,0
2,70,77,0
2,58,83,0
2,46,86,0
2,80,86,196
2,70,83,0
2,73,93,0
2,73,83,196
2,70,90,0
2,78,90,0
2,73,86,196
2,70,90,0
2,78,93,0
2,44,83,196
2,80,93,0
2,68,83,0
2,56,80,0
2,71,93,0
2,75,86,0
2,80,93,196
2,68,83,0
2,71,93,0
2,75,86,0
2,71,83,196
2,68,63,0
2,78,77,0
2,75,83,0
2,68,83,196
2,78,83,0
2,71,90,0
2,75,86,0
2,73,90,196
2,77,90,0
2,70,77,0
2,46,83,0
2,58,77,0
2,70,83,196
2,73,93,0
2,77,90,0
2,58,77,196
2,46,83,0
2,70,93,0
2,74,97,0
2,77,93,0
2,74,97,4
2,70,86,0
2,77,90,0
2,46,83,4
2,70,83,4
2,78,90,0
2,75,93,0
2,51,68,0
2,39,93,0
2,78,93,4
2,75,86,0
2,70,101,0
2,39,86,4
2,78,93,4
2,49,86,0
2,70,93,0
2,37,90,0
2,75,93,0
2,78,86,4
2,70,90,0
2,75,93,0
2,37,74,4
2,75,86,4
2,78,90,0
2,70,90,0
2,48,83,0
2,36,83,0
2,78,86,4
2,75,93,0
2,70,93,0
2,36,93,4
2,48,90,4
2,36,105,0
2,78,90,4
2,70,101,0
2,75,74,0
2,36,101,4
2,54,86,4
2,42,90,0
2,70,66,0
2,73,86,0
2,80,93,0
2,73,97,196
2,80,97,0
2,70,101,0
2,78,93,10
2,42,74,0
2,73,93,0
2,54,101,0
2,70,86,0
2,70,86,196
2,78,93,0
2,73,86,0
2,42,83,4
2,73,86,0
2,70,83,0
2,78,86,0
2,49,77,0
2,37,80,0
2,78,86,0
2,70,77,0
2,73,93,0
2,37,71,4
2,77,97,192
2,68,86,0
2,73,93,0
2,49,74,0
2,68,83,196
2,77,93,0
2,73,90,0
2,54,101,4
2,42,90,0
2,73,97,4
2,78,93,0
2,70,97,0
2,42,105,4
2,73,105,4
2,78,101,0
2,54,105,0
2,42,90,0
2,70,109,0
2,70,109,4
2,73,105,4
2,78,97,0
2,70,105,0
2,42,83,4
2,39,93,4
2,63,83,0
2,51,105,0
2,66,90,0
2,70,77,0
2,63,86,4
2,66,77,4
2,70,93,0
2,75,101,0
2,39,97,192
2,51,66,4
2,39,97,0
2,63,109,192
2,66,93,0
2,66,93,4
2,70,93,0
2,63,93,0
2,75,105,0
2,39,93,4
2,75,86,4
2,44,93,0
2,63,105,0
2,68,93,0
2,71,93,0
2,56,101,0
2,75,93,4
2,71,97,0
2,68,93,0
2,63,83,0
2,44,101,4
2,56,113,4
2,63,101,4
2,68,77,4
2,68,80,0
2,63,86,0
2,71,93,0
2,75,93,0
2,44,86,4
2,49,83,4
2,37,86,0
2,73,86,0
2,68,86,0
2,65,77,0
2,68,97,196
2,65,83,0
2,73,105,0
2,68,105,4
2,73,86,0
2,77,80,4
2,80,101,0
2,68,46,4
2,73,80,0
2,77,77,4
2,85,105,0
2,73,83,4
2,77,83,0
2,70,93,4
2,73,93,0
2,54,101,0
2,42,93,0
2,66,90,0
2,78,101,0
2,70,105,4
2,78,93,0
2,73,93,0
2,66,105,0
2,42,86,4
2,54,101,192
2,66,105,0
2,78,105,0
2,70,109,0
2,73,105,0
2,73,105,4
2,70,105,0
2,66,101,0
2,78,97,0
2,42,77,4
2,66,86,4
2,39,93,0
2,75,93,0
2,63,93,0
2,70,90,0
2,51,105,0
2,75,101,4
2,63,101,0
2,66,101,0
2,70,101,0
2,39,105,4
2,66,97,4
2,63,90,0
2,70,93,0
2,75,93,0
2,51,109,0
2,39,86,0
2,63,61,4
2,66,83,0
2,66,93,4
2,70,109,0
2,75,97,0
2,63,101,0
2,39,83,4
2,44,83,4
2,56,93,0
2,75,80,0
2,63,80,0
2,68,93,0
2,71,86,0
2,75,90,4
2,68,90,0
2,63,105,0
2,71,83,0
2,44,77,192
2,56,105,4
2,63,105,4
2,68,93,4
2,75,90,0
2,71,93,0
2,63,93,0
2,44,86,4
2,65,66,4
2,68,74,0
2,37,74,0
2,49,63,0
2,73,74,0
2,73,86,4
2,68,59,0
2,37,31,4
2,80,86,4
2,68,93,0
2,37,86,0
2,73,93,0
2,77,93,0
2,49,105,0
2,80,93,772
2,70,83,0
2,42,83,0
2,54,83,0
2,73,93,0
2,80,86,196
2,73,93,0
2,70,83,0
2,73,86,196
2,78,83,0
2,70,77,0
2,70,83,196
2,73,86,0
2,78,86,0
2,80,86,196
2,73,93,0
2,70,77,0
2,58,83,0
2,46,86,0
2,80,86,196
2,70,83,0
2,73,93,0
2,73,83,196
2,70,90,0
2,78,90,0
2,73,86,196
2,70,90,0
2,78,93,0
2,44,83,196
2,80,93,0
2,68,83,0
2,56,80,0
2,71,93,0
2,75,86,0
2,80,93,196
2,68,83,0
2,71,93,0
2,75,86,0
2,71,83,196
2,68,63,0
2,78,77,0
2,75,83,0
2,68,83,196
2,78,83,0
2,71,90,0
2,75,86,0
2,73,90,196
2,77,90,0
2,70,77,0
2,46,83,0
2,58,77,0
2,70,83,196
2,73,93,0
2,77,90,0
2,74,97,196
2,77,93,0
2,58,77,0
2,46,83,0
2,70,93,0
2,74,97,4
2,70,86,0
2,77,90,0
2,46,83,4
2,70,83,4
2,78,90,0
2,75,93,0
2,51,68,0
2,39,93,0
2,70,101,4
2,78,93,0
2,75,86,0
2,78,93,196
2,49,86,0
2,70,93,0
2,37,90,0
2,75,93,0
2,78,86,4
2,70,90,0
2,75,93,0
2,75,86,196
2,78,90,0
2,70,90,0
2,48,83,0
2,36,83,0
2,78,86,4
2,75,90,0
2,70,90,0
2,78,90,196
2,75,90,0
2,70,86,0
2,78,90,0
2,70,101,0
2,75,74,0
2,42,90,52
2,54,86,0
2,70,86,0
2,73,86,0
2,80,93,0
2,73,97,196
2,80,97,0
2,70,101,0
2,78,93,10
2,73,93,0
2,70,86,0
2,70,86,196
2,78,93,0
2,73,86,0
2,73,86,0
2,70,83,0
2,78,86,0
2,49,77,0
2,37,80,0
2,78,86,4
2,70,77,0
2,73,93,0
2,77,97,196
2,68,86,0
2,73,93,0
2,49,74,0
2,68,83,196
2,77,93,0
2,73,90,0
2,54,101,196
2,42,90,0
2,78,93,4
2,73,97,0
2,70,97,0
2,42,105,4
2,73,105,4
2,78,101,0
2,54,105,0
2,42,90,0
2,70,109,0
2,70,109,4
2,73,105,4
2,78,97,0
2,70,105,0
2,42,83,4
2,39,93,4
2,63,83,0
2,51,105,0
2,66,90,0
2,70,77,0
2,63,86,4
2,66,77,4
2,70,93,0
2,75,101,0
2,39,97,192
2,51,66,4
2,39,97,0
2,63,109,192
2,66,93,0
2,66,93,4
2,70,93,0
2,63,93,0
2,75,105,0
2,39,93,4
2,75,86,4
2,44,93,0
2,63,105,0
2,68,93,0
2,71,93,0
2,56,101,0
2,75,93,4
2,71,97,0
2,68,93,0
2,63,83,0
2,44,101,4
2,56,113,4
2,63,101,4
2,68,77,4
2,68,80,0
2,63,86,0
2,71,93,0
2,75,93,0
2,44,86,4
2,49,83,4
2,37,86,0
2,73,86,0
2,68,86,0
2,65,77,0
2,68,97,196
2,65,83,0
2,73,105,0
2,68,105,4
2,73,86,0
2,77,80,4
2,80,101,0
2,68,46,4
2,73,80,0
2,77,77,4
2,85,105,0
2,73,83,4
2,77,83,0
2,70,93,4
2,73,93,0
2,54,101,0
2,42,93,0
2,66,90,0
2,78,101,0
2,70,105,4
2,78,93,0
2,73,93,0
2,66,105,0
2,42,86,4
2,54,101,192
2,66,105,0
2,78,105,0
2,70,109,0
2,73,105,0
2,73,105,4
2,70,105,0
2,66,101,0
2,78,97,0
2,42,77,4
2,66,86,4
2,39,93,0
2,75,93,0
2,63,93,0
2,70,90,0
2,51,105,0
2,75,101,4
2,63,101,0
2,66,101,0
2,70,101,0
2,39,105,4
2,66,97,4
2,63,90,0
2,70,93,0
2,75,93,0
2,51,109,0
2,39,86,0
