track,note,velocity,time
0,42,100,0
0,42,0,119
0,42,100,0
0,42,0,40
0,42,100,0
0,42,0,120
0,42,100,0
0,42,0,120
0,48,100,0
0,60,100,0
0,63,100,0
0,67,100,0
0,70,100,0
0,74,100,0
0,48,100,0
0,48,100,0
0,51,100,0
0,55,100,0
0,58,100,0
0,62,100,0
0,36,100,0
0,42,100,0
0,42,0,10
0,42,100,0
0,55,100,8
0,42,0,2
0,67,100,0
0,67,100,0
0,38,100,0
0,42,100,0
0,42,0,10
0,36,0,0
0,48,0,0
0,48,0,0
0,48,100,0
0,48,100,0
0,36,100,0
0,42,100,0
0,42,0,10
0,58,0,0
0,48,0,0
0,36,0,0
0,60,0,0
0,48,0,0
0,62,0,0
0,38,0,0
0,51,0,0
0,67,0,0
0,48,0,0
0,55,0,0
0,74,0,0
0,63,0,0
0,70,0,0
0,43,100,0
0,64,100,0
0,67,100,0
0,72,100,0
0,43,100,0
0,52,100,0
0,55,100,0
0,60,100,0
0,36,100,0
0,42,100,0
0,42,0,20
0,42,100,0
0,42,0,10
0,38,100,0
0,42,100,0
0,42,0,10
0,43,0,0
0,43,0,0
0,48,100,0
0,48,100,0
0,42,100,0
0,42,0,10
0,67,0,0
0,52,0,0
0,64,0,0
0,60,0,0
0,55,0,0
0,72,0,0
0,38,0,0
0,36,0,0
0,64,100,0
0,67,100,0
0,71,100,0
0,72,100,0
0,52,100,0
0,55,100,0
0,59,100,0
0,60,100,0
0,36,100,0
0,42,100,0
0,42,0,10
0,48,0,0
0,48,0,0
0,48,100,0
0,48,100,0
0,42,100,0
0,42,0,10
0,38,100,0
0,42,100,0
0,42,0,10
0,36,0,0
0,48,0,0
0,48,0,0
0,43,100,0
0,43,100,0
0,36,100,0
0,42,100,0
0,42,0,10
0,36,0,0
0,59,0,0
0,38,0,0
0,67,0,0
0,60,0,0
0,52,0,0
0,72,0,0
0,71,0,0
0,55,0,0
0,43,0,0
0,64,0,0
0,43,0,0
0,48,100,0
0,64,100,0
0,67,100,0
0,69,100,0
0,72,100,0
0,48,100,0
0,52,100,0
0,55,100,0
0,57,100,0
0,60,100,0
0,36,100,0
0,42,100,0
0,55,0,18
0,42,0,2
0,69,100,0
0,69,100,0
0,57,100,0
0,42,100,0
0,67,0,2
0,67,0,0
0,42,0,10
0,69,0,0
0,57,0,0
0,48,0,0
0,48,0,0
0,69,0,0
0,48,100,0
0,48,100,0
0,72,100,0
0,72,100,0
0,60,100,0
0,38,100,0
0,42,100,0
0,42,0,20
0,60,0,0
0,48,0,0
0,72,0,0
0,48,0,0
0,72,0,0
0,50,100,0
0,50,100,0
0,67,100,0
0,67,100,0
0,55,100,0
0,72,100,0
0,42,100,0
0,72,0,20
0,72,0,10
0,36,0,0
0,42,0,0
0,57,0,0
0,38,0,0
0,69,0,0
0,64,0,0
0,55,0,0
0,60,0,0
0,67,0,0
0,52,0,0
0,65,100,0
0,69,100,0
0,72,100,0
0,74,100,0
0,53,100,0
0,57,100,0
0,60,100,0
0,62,100,0
0,36,100,0
0,42,100,0
0,55,0,4
0,67,0,6
0,42,0,0
0,67,0,0
0,60,100,0
0,62,100,0
0,50,100,0
0,42,100,0
0,42,0,20
0,60,0,0
0,50,0,0
0,62,0,0
0,65,100,0
0,65,100,0
0,53,100,0
0,38,100,0
0,42,100,0
0,50,0,10
0,50,0,0
0,42,0,10
0,36,0,0
0,65,0,0
0,65,0,0
0,53,0,0
0,50,100,0
0,50,100,0
0,67,100,0
0,67,100,0
0,55,100,0
0,36,100,0
0,42,100,0
0,42,0,30
0,36,0,0
0,50,0,0
0,38,0,0
0,50,0,0
0,50,100,0
0,50,100,0
0,36,100,0
0,42,100,0
0,42,0,10
0,42,100,0
0,42,0,20
0,38,100,0
0,42,100,0
0,42,0,10
0,50,0,0
0,50,0,0
0,42,100,0
0,43,100,4
0,43,100,0
0,42,0,10
0,60,0,0
0,57,0,0
0,38,0,0
0,72,0,0
0,69,0,0
0,74,0,0
0,62,0,0
0,36,0,0
0,65,100,0
0,67,100,0
0,71,100,0
0,74,100,0
0,53,100,0
0,55,100,0
0,59,100,0
0,62,100,0
0,36,100,0
0,42,100,0
0,65,0,2
0,53,0,0
0,42,0,10
0,43,100,0
0,43,100,0
0,42,100,0
0,43,0,4
0,43,0,0
0,42,0,10
0,38,100,0
0,42,100,0
0,42,0,10
0,36,0,0
0,43,0,0
0,43,0,0
0,43,100,0
0,43,100,0
0,36,100,0
0,42,100,0
0,42,0,20
0,36,0,0
0,38,0,0
0,65,0,0
0,59,0,0
0,67,0,0
0,74,0,0
0,55,0,0
0,71,0,0
0,62,0,0
0,53,0,0
0,55,100,0
0,59,100,0
0,62,100,0
0,65,100,0
0,69,100,0
0,43,100,0
0,47,100,0
0,50,100,0
0,53,100,0
0,57,100,0
0,36,100,0
0,38,100,0
0,55,0,2
0,67,0,0
0,67,0,0
0,43,0,6
0,76,100,4
0,76,0,10
0,57,0,10
0,47,0,0
0,55,0,0
0,69,0,0
0,53,0,0
0,65,0,0
0,36,0,0
0,62,0,0
0,50,0,0
0,43,0,0
0,38,0,0
0,59,0,0
0,48,100,0
0,72,100,0
0,64,100,0
0,67,100,0
0,71,100,0
0,74,100,0
0,48,100,0
0,60,100,0
0,52,100,0
0,55,100,0
0,59,100,0
0,62,100,0
0,36,100,0
0,42,100,0
0,43,0,2
0,42,0,30
0,42,100,0
0,42,0,60
0,38,100,0
0,42,100,0
0,42,0,60
0,62,0,0
0,55,0,0
0,74,0,0
0,72,0,0
0,60,0,0
0,64,0,0
0,67,0,0
0,48,0,0
0,71,0,0
0,59,0,0
0,52,0,0
0,48,0,0
0,36,0,0
0,48,100,0
0,64,100,0
0,67,100,0
0,71,100,0
0,72,100,0
0,74,100,0
0,48,100,0
0,62,100,0
0,36,100,0
0,42,100,0
0,42,0,60
0,48,0,0
0,64,0,0
0,67,0,0
0,38,0,0
0,71,0,0
0,48,0,0
0,62,0,0
0,74,0,0
0,72,0,0
0,36,0,0
0,48,100,0
0,67,100,0
0,48,100,0
0,55,100,0
0,36,100,0
0,42,100,0
0,51,100,0
0,72,100,2
0,64,100,0
0,60,100,0
0,42,0,58
0,42,100,0
0,42,0,60
0,67,0,0
0,55,0,0
0,64,100,0
0,67,100,0
0,72,100,0
0,52,100,0
0,55,100,0
0,60,100,0
0,38,100,0
0,42,100,0
0,60,0,2
0,72,0,0
0,64,0,0
0,48,0,58
0,67,0,0
0,52,0,0
0,48,0,0
0,64,0,0
0,72,0,0
0,60,0,0
0,55,0,0
0,42,0,0
0,55,100,0
0,71,100,0
0,55,100,0
0,59,100,0
0,42,100,0
0,42,0,60
0,38,0,0
0,51,0,0
0,36,0,0
0,36,100,0
0,42,100,0
0,42,0,60
0,42,100,0
0,42,0,60
0,71,0,0
0,59,0,0
0,55,0,0
0,55,0,0
0,55,100,0
0,64,100,0
0,67,100,0
0,69,100,0
0,72,100,0
0,55,100,0
0,52,100,0
0,55,100,0
0,57,100,0
0,60,100,0
0,38,100,0
0,42,100,0
0,42,0,60
0,55,0,0
0,57,0,0
0,52,0,0
0,64,0,0
0,67,0,0
0,55,0,0
0,69,0,0
0,72,0,0
0,55,0,0
0,36,0,0
0,60,0,0
0,48,100,0
0,64,100,0
0,67,100,0
0,69,100,0
0,72,100,0
0,48,100,0
0,52,100,0
0,55,100,0
0,57,100,0
0,60,100,0
0,36,100,0
0,42,100,0
0,42,0,60
0,36,0,0
0,38,0,0
0,36,100,0
0,42,100,0
0,48,0,54
0,48,0,0
0,42,0,6
0,52,100,0
0,52,100,0
0,42,100,0
0,76,100,30
0,76,0,30
0,42,0,0
0,38,100,0
0,42,100,0
0,57,0,59
0,55,0,0
0,67,0,0
0,52,0,0
0,60,0,0
0,64,0,0
0,69,0,0
0,72,0,0
0,52,0,1
0,52,0,0
0,42,0,0
0,55,100,0
0,57,100,0
0,60,100,0
0,64,100,0
0,67,100,0
0,55,100,0
0,45,100,0
0,48,100,0
0,52,100,0
0,55,100,0
0,42,100,0
0,42,0,60
0,64,0,0
0,36,0,0
0,55,0,0
0,55,0,0
0,57,0,0
0,38,0,0
0,60,0,0
0,52,0,0
0,45,0,0
0,67,0,0
0,55,0,0
0,48,0,0
0,50,100,0
0,64,100,0
0,50,100,0
0,52,100,0
0,36,100,0
0,42,100,0
0,42,0,60
0,42,100,0
0,42,0,60
0,38,100,0
0,42,100,0
0,42,0,60
0,64,0,0
0,52,0,0
0,50,0,0
0,50,0,0
0,36,0,0
0,50,100,0
0,72,100,0
0,65,100,0
0,74,100,0
0,50,100,0
0,60,100,0
0,53,100,0
0,62,100,0
0,36,100,0
0,42,100,0
0,42,0,60
0,53,0,0
0,72,0,0
0,65,0,0
0,38,0,0
0,74,0,0
0,50,0,0
0,62,0,0
0,60,0,0
0,50,0,0
0,36,0,0
0,50,100,0
0,65,100,0
0,72,100,0
0,74,100,0
0,50,100,0
0,53,100,0
0,60,100,0
0,62,100,0
0,36,100,0
0,42,100,0
0,42,0,60
0,42,100,0
0,42,0,60
0,60,0,0
0,62,0,0
0,72,0,0
0,74,0,0
0,65,0,0
0,53,0,0
0,62,100,0
0,50,100,0
0,38,100,0
0,42,100,0
0,42,0,60
0,62,0,0
0,50,0,0
0,50,0,0
0,50,0,0
0,50,100,0
0,61,100,0
0,50,100,0
0,49,100,0
0,42,100,0
0,42,0,60
0,36,0,0
0,38,0,0
0,36,100,0
0,42,100,0
0,42,0,60
0,42,100,0
0,42,0,60
0,50,0,0
0,49,0,0
0,61,0,0
0,50,0,0
0,53,100,0
0,60,100,0
0,53,100,0
0,48,100,0
0,38,100,0
0,42,100,0
0,42,0,60
0,53,0,0
0,53,0,0
0,60,0,0
0,36,0,0
0,48,0,0
0,57,100,0
0,65,100,0
0,69,100,0
0,74,100,0
0,57,100,0
0,53,100,0
0,57,100,0
0,62,100,0
0,36,100,0
0,42,100,0
0,42,0,60
0,36,0,0
0,38,0,0
0,36,100,0
0,42,100,0
0,57,0,54
0,57,0,0
0,42,0,6
0,53,100,0
0,53,100,0
0,42,100,0
0,42,0,60
0,38,100,0
0,42,100,0
0,69,0,50
0,57,0,0
0,62,0,2
0,74,0,0
0,65,0,0
0,53,0,0
0,53,0,8
0,42,0,0
0,53,0,0
0,57,100,0
0,67,100,0
0,57,100,0
0,55,100,0
0,42,100,0
0,42,0,60
0,57,0,0
0,38,0,0
0,57,0,0
0,36,0,0
0,55,0,0
0,67,0,0
0,55,100,0
0,65,100,0
0,67,100,0
0,71,100,0
0,76,100,0
0,55,100,0
0,53,100,0
0,55,100,0
0,59,100,0
0,64,100,0
0,36,100,0
0,42,100,0
0,42,0,60
0,42,100,0
0,42,0,60
0,76,0,0
0,53,0,0
0,67,0,0
0,71,0,0
0,55,0,0
0,65,0,0
0,64,0,0
0,59,0,0
0,67,100,0
0,71,100,0
0,65,100,0
0,74,100,0
0,62,100,0
0,38,100,0
0,42,100,0
0,42,0,60
0,36,0,0
0,62,0,0
0,67,0,0
0,71,0,0
0,55,0,0
0,74,0,0
0,55,0,0
0,65,0,0
0,55,100,0
0,67,100,0
0,71,100,0
0,65,100,0
0,74,100,0
0,55,100,0
0,55,100,0
0,59,100,0
0,53,100,0
0,62,100,0
0,36,100,0
0,42,100,0
0,42,0,60
0,55,0,0
0,38,0,0
0,36,0,0
0,55,0,0
0,55,100,0
0,55,100,0
0,36,100,0
0,42,100,0
0,42,0,60
0,42,100,0
0,42,0,60
0,74,0,0
0,62,0,0
0,55,0,0
0,67,0,0
0,65,100,0
0,69,100,0
0,72,100,0
0,74,100,0
0,62,100,0
0,38,100,0
0,42,100,0
0,59,0,2
0,71,0,0
0,53,0,0
0,65,0,0
0,74,0,58
0,72,0,0
0,69,0,0
0,65,0,0
0,42,0,0
0,62,0,0
0,55,0,0
0,55,0,0
0,50,100,0
0,65,100,0
0,69,100,0
0,72,100,0
0,74,100,0
0,50,100,0
0,53,100,0
0,57,100,0
0,60,100,0
0,62,100,0
0,42,100,0
0,42,0,60
0,50,0,0
0,36,0,0
0,50,0,0
0,38,0,0
0,55,100,0
0,55,100,0
0,36,100,0
0,42,100,0
0,42,0,60
0,55,0,0
0,55,0,0
0,55,100,0
0,55,100,0
0,42,100,0
0,42,0,60
0,38,100,0
0,42,100,0
0,57,0,56
0,69,0,0
0,65,0,2
0,62,0,0
0,53,0,0
0,74,0,0
0,55,0,2
0,72,0,0
0,42,0,0
0,55,0,0
0,60,0,0
0,36,0,0
0,50,100,0
0,62,100,0
0,65,100,0
0,67,100,0
0,71,100,0
0,50,100,0
0,59,100,0
0,36,100,0
0,42,100,0
0,42,0,60
0,62,0,0
0,65,0,0
0,36,0,0
0,71,0,0
0,38,0,0
0,59,0,0
0,67,0,0
0,62,100,0
0,65,100,0
0,67,100,0
0,71,100,0
0,50,100,0
0,53,100,0
0,55,100,0
0,59,100,0
0,36,100,0
0,42,100,0
0,42,0,60
0,50,0,0
0,50,0,0
0,55,100,0
0,55,100,0
0,42,100,0
0,42,0,60
0,62,0,0
0,55,0,0
0,65,0,0
0,53,0,0
0,59,0,0
0,71,0,0
0,50,0,0
0,67,0,0
0,62,100,0
0,65,100,0
0,67,100,0
0,71,100,0
0,59,100,0
0,38,100,0
0,42,100,0
0,42,0,60
0,55,0,0
0,59,0,0
0,62,0,0
0,65,0,0
0,55,0,0
0,71,0,0
0,67,0,0
0,62,100,0
0,65,100,0
0,67,100,0
0,71,100,0
0,50,100,0
0,53,100,0
0,55,100,0
0,59,100,0
0,42,100,0
0,50,100,4
0,50,100,0
0,42,0,56
0,38,0,0
0,36,0,0
0,48,100,0
0,48,100,0
0,36,100,0
0,42,100,0
0,50,0,4
0,50,0,0
0,42,0,56
0,42,100,0
0,42,0,60
0,64,100,0
0,67,100,0
0,72,100,0
0,60,100,0
0,38,100,0
0,42,100,0
0,55,0,2
0,65,0,0
0,53,0,0
0,50,0,0
0,67,0,0
0,62,0,0
0,59,0,0
0,71,0,0
0,72,0,58
0,36,0,0
0,48,0,0
0,64,0,0
0,67,0,0
0,60,0,0
0,42,0,0
0,48,0,0
0,48,100,0
0,64,100,0
0,67,100,0
0,72,100,0
0,48,100,0
0,52,100,0
0,55,100,0
0,60,100,0
0,36,100,0
0,42,100,0
0,42,0,60
0,38,0,0
0,36,0,0
0,48,0,0
0,48,0,0
0,48,100,0
0,48,100,0
0,36,100,0
0,42,100,0
0,42,0,60
0,42,100,0
0,42,0,60
0,38,100,0
0,42,100,0
0,60,0,56
0,72,0,0
0,48,0,4
0,42,0,0
0,48,0,0
0,55,100,0
0,65,100,0
0,69,100,0
0,72,100,0
0,55,100,0
0,60,100,0
0,42,100,0
0,67,0,2
0,52,0,0
0,55,0,0
0,64,0,0
0,38,0,58
0,69,0,0
0,65,0,0
0,55,0,0
0,42,0,0
0,55,0,0
0,60,0,0
0,72,0,0
0,36,0,0
0,48,100,0
0,64,100,0
0,67,100,0
0,71,100,0
0,72,100,0
0,48,100,0
0,52,100,0
0,55,100,0
0,59,100,0
0,60,100,0
0,36,100,0
0,42,100,0
0,42,0,60
0,42,100,0
0,42,0,60
0,48,0,0
0,59,0,0
0,67,0,0
0,71,0,0
0,52,0,0
0,72,0,0
0,60,0,0
0,55,0,0
0,48,0,0
0,64,0,0
0,48,100,0
0,64,100,0
0,67,100,0
0,71,100,0
0,72,100,0
0,48,100,0
0,60,100,0
0,38,100,0
0,42,100,0
0,42,0,60
0,64,0,0
0,60,0,0
0,67,0,0
0,71,0,0
0,48,0,0
0,48,0,0
0,36,0,0
0,72,0,0
0,48,100,0
0,64,100,0
0,67,100,0
0,69,100,0
0,72,100,0
0,48,100,0
0,52,100,0
0,55,100,0
0,57,100,0
0,60,100,0
0,36,100,0
0,42,100,0
0,42,0,60
0,36,0,0
0,38,0,0
0,36,100,0
0,42,100,0
0,72,100,30
0,72,0,30
0,42,0,0
0,42,100,0
0,42,0,60
0,55,100,0
