track,note,velocity,time
0,76,86,0
0,72,87,0
0,67,86,0
0,48,72,0
0,64,85,0
0,48,84,0
0,72,85,0
0,60,99,0
0,67,85,0
0,36,88,0
0,38,70,96
0,38,0,13
0,38,70,19
0,38,0,13
0,38,70,19
0,38,0,13
0,38,70,19
0,38,0,13
0,60,0,165
0,56,72,1
0,63,83,0
0,32,84,0
0,68,85,0
0,63,93,0
0,72,85,0
0,44,84,0
0,56,84,0
0,72,88,0
0,75,86,0
0,67,0,0
0,36,0,0
0,72,0,0
0,76,0,0
0,48,0,0
0,67,0,0
0,48,0,0
0,72,0,0
0,64,0,0
0,68,86,1
0,38,70,95
0,38,0,13
0,38,70,19
0,38,0,13
0,38,70,19
0,38,0,13
0,38,70,19
0,38,0,13
0,38,70,51
0,38,0,13
0,38,70,51
0,38,0,13
0,44,0,32
0,63,0,2
0,65,93,0
0,48,73,0
0,53,85,0
0,41,84,0
0,77,86,0
0,72,87,0
0,65,84,0
0,29,84,0
0,77,84,0
0,72,87,0
0,69,87,0
0,56,0,0
0,68,0,0
0,72,0,0
0,56,0,0
0,72,0,0
0,63,0,0
0,75,0,0
0,32,0,0
0,68,0,0
0,69,86,1
0,38,70,95
0,38,0,13
0,38,70,19
0,38,0,13
0,38,70,19
0,38,0,13
0,38,70,19
0,38,0,13
0,38,70,51
0,38,0,13
0,38,70,19
0,38,0,13
0,38,70,51
0,38,0,13
0,41,0,15
0,65,0,1
0,77,86,1
0,73,86,0
0,41,74,0
0,77,86,0
0,49,85,0
0,25,88,0
0,73,86,0
0,68,85,0
0,37,76,0
0,61,107,0
0,48,0,0
0,72,0,0
0,77,0,0
0,69,0,0
0,72,0,0
0,65,0,0
0,29,0,0
0,53,0,0
0,69,0,0
0,77,0,0
0,68,86,1
0,38,70,95
0,38,0,13
0,38,70,19
0,38,0,13
0,38,70,19
0,38,0,13
0,38,70,19
0,38,0,13
0,38,70,51
0,38,0,13
0,38,70,19
0,38,0,13
0,38,70,19
0,68,0,10
0,77,0,2
0,38,0,1
0,73,0,3
0,37,0,13
0,72,88,2
0,49,86,1
0,38,70,0
0,35,86,0
0,79,96,0
0,67,100,0
0,25,93,0
0,79,99,0
0,67,88,0
0,76,86,0
0,25,0,0
0,68,0,0
0,49,0,0
0,77,0,0
0,73,0,0
0,41,0,0
0,49,0,13
0,38,0,0
0,35,0,0
0,25,0,6
0,72,0,12
0,60,64,1
0,59,70,0
0,60,70,0
0,72,96,0
0,62,70,0
0,60,90,0
0,49,54,0
0,55,67,0
0,52,64,0
0,79,0,0
0,76,0,0
0,67,0,0
0,67,0,0
0,61,0,1
0,72,92,2
0,79,0,5
0,74,76,3
0,72,92,3
0,72,0,0
0,74,0,5
0,62,0,0
0,60,0,0
0,55,0,4
0,71,81,13
0,59,0,2
0,49,0,0
0,60,0,0
0,72,0,3
0,52,0,3
0,60,0,0
0,69,79,4
0,72,0,0
0,71,0,3
0,67,80,8
0,69,0,3
0,66,81,6
0,67,0,3
0,64,76,7
0,66,0,4
0,64,0,11
0,55,68,3
0,60,68,0
0,52,71,0
0,38,54,0
0,62,64,0
0,60,70,0
0,62,0,10
0,38,0,3
0,60,0,0
0,55,0,2
0,52,0,2
0,60,0,1
0,60,67,14
0,38,54,0
0,62,63,0
0,55,63,0
0,60,69,0
0,52,70,0
0,62,0,10
0,60,0,3
0,38,0,0
0,55,0,4
0,38,70,15
0,55,62,0
0,60,70,0
0,62,68,0
0,60,0,11
0,52,0,0
0,38,0,2
0,62,0,1
0,60,0,0
0,55,0,6
0,60,72,12
0,38,86,0
0,55,67,0
0,62,73,0
0,52,72,0
0,60,74,0
0,38,0,13
0,52,0,5
0,60,0,0
0,60,0,3
0,62,0,1
0,55,0,5
0,55,67,69
0,62,68,0
0,60,68,0
0,52,69,0
0,38,54,0
0,60,70,0
0,52,0,12
0,38,0,1
0,60,0,0
0,62,0,1
0,60,0,0
0,55,0,2
0,52,71,16
0,55,70,0
0,38,54,0
0,60,70,0
0,60,74,0
0,62,72,0
0,60,0,13
0,38,0,0
0,62,0,1
0,60,0,1
0,55,0,1
0,52,0,1
0,52,71,15
0,60,74,0
0,60,72,0
0,62,73,0
0,38,70,0
0,55,68,0
0,60,0,12
0,38,0,1
0,62,0,0
0,52,0,1
0,60,0,0
0,55,0,1
0,55,73,17
0,60,74,0
0,60,79,0
0,38,70,0
0,62,75,0
0,52,73,0
0,38,0,13
0,60,0,6
0,60,0,0
0,52,0,0
0,62,0,2
0,55,0,2
0,62,72,73
0,38,54,0
0,60,73,0
0,55,70,0
0,52,74,0
0,60,73,0
0,38,0,13
0,60,0,1
0,55,0,0
0,62,0,0
0,60,0,0
0,52,0,0
0,55,70,18
0,52,73,0
0,38,54,0
0,62,73,0
0,60,75,0
0,60,73,0
0,60,0,13
0,38,0,0
0,62,0,1
0,60,0,0
0,52,0,1
0,55,0,1
0,60,77,16
0,52,73,0
0,60,76,0
0,62,76,0
0,38,70,0
0,55,68,0
0,55,0,12
0,52,0,0
0,38,0,1
0,60,0,1
0,60,0,0
0,62,0,3
0,65,97,12
0,62,86,0
0,65,84,3
0,62,85,0
0,67,92,0
0,65,86,0
0,59,70,0
0,49,54,0
0,60,92,0
0,62,95,0
0,38,86,0
0,65,0,0
0,65,99,2
0,38,0,11
0,62,88,19
0,62,0,0
0,49,0,6
0,59,0,0
0,67,0,28
0,60,0,15
0,62,0,0
0,62,0,1
0,65,0,3
0,65,0,1
0,65,0,2
0,64,92,7
0,64,80,0
0,60,83,1
0,67,90,0
0,79,96,0
0,38,86,0
0,67,98,0
0,67,95,0
0,67,85,0
0,35,86,0
0,65,61,0
0,62,84,0
0,62,0,0
0,67,0,1
0,60,81,1
0,60,0,0
0,65,0,2
0,38,0,9
0,79,84,7
0,79,0,0
0,67,0,2
0,78,72,14
0,62,0,2
0,35,0,0
0,76,80,7
0,67,0,1
0,67,0,1
0,64,0,1
0,78,0,0
0,74,77,6
0,76,0,3
0,79,0,1
0,60,0,2
0,64,0,2
0,72,78,1
0,74,0,3
0,71,76,6
0,72,0,3
0,69,72,7
0,71,0,2
0,69,0,8
0,62,70,4
0,36,89,0
0,55,67,0
0,38,54,0
0,60,71,0
0,52,66,0
0,49,54,0
0,60,71,0
0,38,0,13
0,52,0,7
0,60,0,1
0,60,0,2
0,55,0,0
0,62,0,0
0,49,0,15
0,57,86,32
0,48,79,7
0,60,78,5
0,64,85,5
0,57,0,3
0,38,54,6
0,62,67,0
0,60,102,0
0,60,69,0
0,55,65,0
0,60,70,0
0,52,69,0
0,67,94,3
0,60,0,10
0,38,0,0
0,60,0,1
0,55,0,1
0,62,0,0
0,60,0,1
0,52,0,0
0,60,73,16
0,55,67,0
0,52,72,0
0,62,71,0
0,61,86,0
0,38,54,0
0,60,70,0
0,38,0,13
0,62,0,2
0,60,0,0
0,52,0,1
0,60,0,1
0,61,0,9
0,60,69,6
0,60,86,0
0,38,70,0
0,52,71,0
0,60,74,0
0,62,71,0
0,52,0,13
0,38,0,0
0,60,0,0
0,60,0,3
0,60,0,0
0,62,0,1
0,55,0,0
0,60,72,15
0,52,72,0
0,62,76,0
0,55,69,0
0,38,86,0
0,60,78,0
0,38,0,13
0,52,0,6
0,60,0,1
0,60,0,1
0,62,0,1
0,55,0,3
0,62,69,71
0,60,70,0
0,55,68,0
0,60,70,0
0,52,70,0
0,60,102,0
0,38,54,0
0,62,0,11
0,60,0,2
0,38,0,0
0,60,0,1
0,55,0,1
0,52,0,1
0,60,0,0
0,62,69,16
0,60,72,0
0,38,54,0
0,61,70,0
0,55,66,0
0,60,70,0
0,52,72,0
0,38,0,13
0,60,0,0
0,62,0,0
0,55,0,1
0,60,0,2
0,52,0,2
0,61,0,8
0,60,86,6
0,62,72,0
0,38,70,0
0,55,65,0
0,60,74,0
0,52,71,0
0,60,70,0
0,60,0,13
0,38,0,0
0,60,0,0
0,62,0,1
0,60,0,1
0,52,0,1
0,55,0,1
0,62,74,15
0,55,69,0
0,52,60,0
0,60,64,0
0,38,54,0
0,60,76,0
0,36,0,0
0,38,0,13
0,52,0,6
0,60,0,0
0,60,0,3
0,62,0,2
0,55,0,2
0,60,0,55
0,64,0,4
0,48,0,6
0,67,0,1
0,60,70,4
0,62,72,0
0,60,56,0
0,38,70,0
0,52,52,0
0,60,72,0
0,55,68,0
0,38,0,13
0,62,0,0
0,60,0,0
0,60,0,2
0,55,0,0
0,60,0,2
0,52,0,0
0,52,56,15
0,62,74,0
0,60,76,0
0,55,68,0
0,61,54,0
0,38,70,0
0,60,55,0
0,38,0,13
0,61,0,0
0,60,0,2
0,55,0,1
0,62,0,0
0,52,0,1
0,60,0,0
0,59,77,13
0,52,53,2
0,60,74,0
0,60,70,0
0,38,70,0
0,60,59,0
0,62,72,0
0,55,67,0
0,55,66,8
0,50,64,3
0,60,0,0
0,60,80,1
0,38,0,1
0,60,0,0
0,55,0,2
0,62,0,0
0,52,0,1
0,60,0,1
0,59,0,9
0,65,87,3
0,38,86,3
0,31,89,0
0,52,76,0
0,61,54,0
0,59,74,0
0,55,72,0
0,60,76,0
0,62,70,0
0,62,0,8
0,32,82,1
0,59,0,3
0,61,0,1
0,38,0,0
0,55,0,4
0,60,0,2
0,32,0,0
0,52,0,2
0,60,70,11
0,55,69,0
0,38,86,0
0,59,63,0
0,59,70,0
0,62,72,0
0,53,62,0
0,59,0,12
0,38,0,1
0,60,0,0
0,59,0,1
0,62,0,0
0,53,0,0
0,55,0,3
0,59,70,15
0,55,68,0
0,62,72,0
0,61,54,0
0,38,86,0
0,53,31,0
0,59,56,0
0,38,0,13
0,61,0,0
0,59,0,0
0,62,0,3
0,53,0,1
0,59,0,0
0,55,0,0
0,59,73,15
0,38,86,0
0,60,70,0
0,55,71,0
0,62,74,0
0,53,66,0
0,60,59,0
0,59,60,0
0,59,0,12
0,60,0,1
0,60,0,0
0,38,0,0
0,53,0,1
0,62,0,0
0,55,0,3
0,59,0,0
0,60,0,4
0,65,0,3
0,50,0,6
0,55,0,1
0,59,71,1
0,59,51,0
0,62,73,0
0,55,69,0
0,61,54,0
0,53,52,0
0,38,86,0
0,59,0,12
0,38,0,1
0,61,0,0
0,62,0,1
0,55,0,2
0,53,0,0
0,59,0,3
0,59,75,13
0,53,53,0
0,60,70,0
0,55,73,0
0,62,74,0
0,59,67,0
0,38,86,0
0,60,65,8
0,38,0,5
0,60,0,0
0,59,0,4
0,62,0,2
0,55,0,2
0,64,75,2
0,53,0,0
0,59,0,7
0,60,72,2
0,60,76,0
0,60,54,0
0,55,70,0
0,38,54,0
0,36,89,0
0,52,68,0
0,31,0,0
0,67,72,2
0,72,72,9
0,38,0,2
0,60,0,0
0,60,0,2
0,52,0,2
0,60,0,1
0,55,0,5
0,60,54,73
0,38,54,0
0,60,69,0
0,52,70,0
0,60,72,0
0,55,69,0
0,60,0,11
0,52,0,1
0,38,0,1
0,60,0,0
0,60,0,1
0,55,0,1
0,55,68,17
0,52,73,0
0,60,70,0
0,60,54,0
0,60,72,0
0,38,54,0
0,60,0,12
0,60,0,0
0,52,0,0
0,60,0,1
0,38,0,0
0,55,0,3
0,60,73,16
0,60,54,0
0,52,72,0
0,55,66,0
0,38,70,0
0,60,68,0
0,60,0,12
0,52,0,0
0,60,0,1
0,38,0,0
0,55,0,2
0,60,0,0
0,60,77,17
0,38,70,0
0,60,73,0
0,52,74,0
0,55,72,0
0,38,0,13
0,52,0,2
0,60,0,2
0,60,0,0
0,55,0,4
0,52,72,75
0,55,70,0
0,38,54,0
0,60,69,0
0,60,73,0
0,61,54,0
0,60,0,10
0,52,0,0
0,60,0,1
0,55,0,0
0,38,0,2
0,61,0,0
0,52,75,19
0,60,73,0
0,61,54,0
0,38,54,0
0,60,72,0
0,55,70,0
0,60,0,10
0,55,0,3
0,61,0,0
0,38,0,0
0,52,0,0
0,60,0,1
0,38,54,18
0,55,69,0
0,60,71,0
0,61,54,0
0,60,74,0
0,52,72,0
0,52,0,12
0,61,0,1
0,38,0,0
0,60,0,0
0,60,0,1
0,55,0,0
0,52,74,18
0,38,54,0
0,60,77,0
0,60,73,0
0,55,72,0
0,61,70,0
0,61,0,13
0,38,0,0
0,60,0,4
0,60,0,0
0,52,0,0
0,55,0,4
0,60,76,75
0,55,72,0
0,60,73,0
0,52,75,0
0,38,54,0
0,60,54,0
0,60,0,11
0,52,0,1
0,38,0,1
0,60,0,0
0,60,0,0
0,55,0,2
0,38,54,17
0,60,76,0
0,55,70,0
0,60,74,0
0,52,76,0
0,60,54,0
0,60,0,12
0,60,0,1
0,60,0,0
0,55,0,0
0,52,0,0
0,38,0,0
0,60,54,19
0,52,74,0
0,60,77,0
0,55,71,0
0,38,54,0
0,60,73,0
0,36,0,0
0,60,0,12
0,52,0,0
0,38,0,1
0,55,0,0
0,60,0,0
0,60,0,0
0,60,0,7
0,72,0,4
0,67,0,2
0,64,0,2
0,60,74,4
0,61,54,0
0,52,77,0
0,60,78,0
0,38,54,0
0,55,73,0
0,31,90,0
0,60,0,11
0,52,0,0
0,60,0,2
0,38,0,0
0,61,0,0
0,55,0,1
0,61,54,18
0,52,76,0
0,55,71,0
0,60,75,0
0,60,76,0
0,38,54,0
0,38,0,13
0,52,0,0
0,61,0,0
0,60,0,0
0,60,0,1
0,55,0,2
0,55,64,16
0,38,54,0
0,60,75,0
0,52,75,0
0,60,77,0
0,61,54,0
0,31,0,6
0,38,0,7
0,61,0,0
0,52,0,1
0,60,0,0
0,60,0,2
0,55,0,1
0,55,71,15
0,60,54,0
0,52,76,0
0,31,90,0
0,60,78,0
0,38,70,0
0,60,76,0
0,52,0,12
0,38,0,1
0,60,0,0
0,60,0,1
0,55,0,1
0,60,0,0
0,55,72,17
0,60,76,0
0,60,54,0
0,52,76,0
0,60,77,0
0,38,70,0
0,60,0,11
0,52,0,0
0,55,0,1
0,60,0,1
0,38,0,0
0,60,0,1
0,31,0,13
0,55,74,5
0,52,78,0
0,60,82,0
0,60,54,0
0,38,70,0
0,60,82,0
0,38,0,13
0,60,0,0
0,60,0,2
0,52,0,1
0,60,0,2
0,55,0,0
0,62,68,8
0,65,64,1
0,53,76,5
0,60,54,0
0,56,83,0
0,38,54,0
0,60,83,0
0,62,76,0
0,53,74,0
0,29,89,0
0,68,73,3
0,72,73,3
0,38,0,7
0,60,0,0
0,56,0,1
0,53,0,4
0,60,0,0
0,53,0,1
0,62,0,1
0,38,54,76
0,60,73,0
0,60,54,0
0,62,76,0
0,53,72,0
0,53,70,0
0,56,74,0
0,60,0,11
0,60,0,2
0,56,0,0
0,38,0,0
0,62,0,1
0,53,0,0
0,53,0,2
0,68,0,15
0,53,73,1
0,62,72,0
0,56,81,0
0,53,70,0
0,60,72,0
0,38,54,0
0,60,54,0
0,72,0,0
0,62,0,4
0,65,0,0
0,60,0,4
0,56,0,2
0,62,0,2
0,38,0,1
0,60,0,0
0,53,0,1
0,53,0,2
0,53,58,16
0,56,70,0
0,53,68,0
0,60,54,0
0,38,70,0
0,62,70,0
0,53,0,5
0,62,0,6
0,56,0,1
0,60,0,1
0,38,0,0
0,53,0,3
0,60,67,1
0,64,73,6
0,29,0,4
0,60,79,5
0,60,77,0
0,38,70,0
0,36,89,0
0,55,80,0
0,52,83,0
0,67,70,1
0,72,69,7
0,38,0,5
0,52,0,4
0,60,0,1
0,55,0,1
0,60,0,2
0,60,76,75
0,61,54,0
0,60,74,0
0,55,73,0
0,52,79,0
0,38,54,0
0,60,0,12
0,55,0,1
0,38,0,0
0,60,0,0
0,52,0,0
0,61,0,0
0,60,73,19
0,61,54,0
0,52,78,0
0,38,54,0
0,60,79,0
0,55,73,0
0,55,0,13
0,61,0,0
0,60,0,0
0,38,0,0
0,60,0,1
0,52,0,1
0,52,76,17
0,61,54,0
0,38,54,0
0,60,75,0
0,55,73,0
0,60,76,0
0,55,0,12
0,38,0,1
0,61,0,0
0,60,0,1
0,52,0,0
