track,note,velocity,time
1,46,75,178
1,45,77,14
1,43,75,2
1,38,63,28
1,39,78,2
1,46,73,2
1,48,73,8
1,41,70,8
1,46,75,28
1,45,77,14
1,43,75,2
1,38,63,28
1,39,78,2
1,46,73,2
1,48,73,8
1,41,70,8
1,43,70,22
1,45,70,6
1,46,90,4
1,46,86,68
1,45,76,2
1,46,56,14
1,45,80,2
1,43,79,2
1,43,83,64
1,50,79,192
1,45,79,2
1,38,86,152
1,39,90,38
1,39,86,68
1,46,90,2
1,46,86,68
1,39,90,2
1,39,86,68
1,41,90,2
1,43,86,24
1,45,80,8
1,46,90,4
1,46,86,68
1,45,76,64
1,46,56,14
1,45,80,26
1,43,79,76
1,43,83,64
1,50,79,80
1,45,79,24
1,38,86,152
1,39,90,38
1,39,86,68
1,46,90,68
1,46,86,68
1,39,90,64
1,41,86,64
1,45,80,32
1,46,90,28
1,43,51,24
1,41,56,18
1,48,90,54
1,48,86,68
1,43,76,64
1,43,80,78
1,38,79,76
1,50,83,64
1,50,79,80
1,38,86,24
1,36,90,38
1,48,86,68
1,43,90,68
1,43,86,68
1,38,90,64
1,38,80,90
1,41,90,28
1,41,56,24
1,46,90,76
1,46,86,68
1,45,76,64
1,46,56,14
1,45,80,26
1,43,79,76
1,46,83,64
1,38,79,80
1,38,83,64
1,39,90,80
1,39,86,68
1,46,90,68
1,46,86,68
1,39,90,64
1,41,86,64
1,45,80,32
1,46,90,28
1,41,56,120
1,46,90,54
1,46,86,68
1,45,76,2
1,46,56,14
1,45,80,2
1,43,79,2
1,43,83,64
1,50,79,192
1,45,79,2
1,38,86,152
1,39,90,38
1,39,86,68
1,46,90,2
1,46,86,68
1,36,90,2
1,36,86,68
1,41,90,2
1,43,86,24
1,45,80,8
1,46,90,4
1,46,86,68
1,45,76,64
1,46,56,14
1,45,80,26
1,43,79,76
1,43,83,64
1,50,79,80
1,45,79,24
1,38,86,152
1,39,90,38
1,39,86,68
1,46,90,68
1,46,86,68
1,39,90,64
1,41,86,64
1,45,80,32
1,46,90,28
1,41,56,24
1,48,90,76
1,48,86,68
1,43,76,64
1,43,80,78
1,38,79,76
1,48,90,64
1,48,86,68
1,43,90,68
1,43,86,68
1,38,90,64
1,46,90,72
1,46,86,68
1,45,76,64
1,46,56,14
1,45,80,26
1,43,79,76
1,43,83,64
1,50,79,80
1,45,79,24
1,38,86,152
1,39,90,38
1,39,86,68
1,46,90,68
1,46,86,68
1,39,90,64
1,41,86,64
1,46,84,32
1,46,56,24
1,48,90,54
1,48,86,68
1,47,76,64
1,48,56,14
1,47,80,26
1,45,79,76
1,47,83,64
1,40,79,40
1,43,83,46
1,41,90,40
1,41,86,68
1,48,90,68
1,48,86,68
1,41,90,64
1,41,86,64
1,43,84,32
1,43,56,24
1,48,90,54
1,48,86,68
1,47,76,64
1,47,80,60
1,45,79,76
1,48,83,64
1,40,79,80
1,43,83,22
1,40,83,12
1,41,90,52
1,43,86,68
1,36,90,68
1,36,86,68
1,41,90,64
1,43,86,42
1,48,90,32
1,43,56,120
1,48,90,54
1,43,86,14
1,48,86,22
1,47,76,64
1,47,80,60
1,45,79,76
1,48,83,64
1,40,79,80
1,43,83,22
1,40,83,12
1,41,90,52
1,43,86,68
1,36,90,68
1,36,86,68
1,38,90,64
1,38,56,120
1,43,90,54
1,43,56,120
1,48,90,54
1,43,86,14
1,48,86,22
1,47,76,64
1,47,80,60
1,45,79,76
1,48,83,64
1,40,79,80
1,43,83,22
1,40,83,12
1,41,90,52
1,43,86,68
1,36,90,68
1,36,86,68
1,38,90,64
1,38,56,120
1,43,90,54
1,43,56,120
1,48,90,54
1,43,86,14
1,48,86,22
1,47,76,64
1,47,80,60
1,45,79,76
1,48,83,64
1,40,79,80
1,43,83,22
1,40,83,12
1,41,90,52
1,43,86,68
1,36,90,68
1,36,86,68
1,38,90,64
1,38,56,120
1,43,90,54
1,43,56,120
1,36,90,54
2,58,110,162
2,70,98,0
2,74,110,0
2,65,101,196
2,70,110,34
2,74,108,182
2,57,111,4
2,69,98,0
2,72,111,0
2,65,109,198
2,69,112,42
2,72,111,188
2,55,111,38
2,67,98,0
2,70,111,0
2,62,109,188
2,67,110,4
2,70,110,194
2,53,111,34
2,65,98,0
2,69,111,0
2,62,105,28
2,65,111,4
2,69,110,192
2,51,109,14
2,63,98,0
2,67,109,0
2,58,101,16
2,63,111,124
2,67,110,12
2,46,109,4
2,62,98,0
2,65,109,0
2,58,110,194
2,62,110,26
2,65,110,192
2,55,97,34
2,64,111,0
2,60,107,160
2,70,112,34
2,48,96,6
2,64,106,180
2,53,96,184
2,69,109,2
2,65,109,160
2,69,109,26
2,65,85,4
2,72,109,190
2,58,108,2
2,70,96,0
2,74,108,0
2,65,99,192
2,70,108,34
2,74,106,182
2,57,109,4
2,69,96,0
2,72,109,0
2,65,107,198
2,69,110,42
2,72,109,188
2,55,109,38
2,67,96,0
2,70,109,0
2,62,107,188
2,67,108,4
2,70,108,194
2,53,109,34
2,65,96,0
2,69,109,0
2,62,103,28
2,65,109,4
2,69,108,192
2,51,107,14
2,63,96,0
2,67,107,0
2,58,99,16
2,63,109,124
2,65,108,12
2,67,108,6
2,46,107,4
2,62,96,0
2,65,107,0
2,58,108,194
2,62,108,26
2,65,108,192
2,55,95,34
2,64,109,0
2,60,105,160
2,70,110,34
2,48,94,6
2,69,89,174
2,67,89,76
2,69,107,8
2,53,94,6
2,65,107,186
2,69,107,26
2,65,83,4
2,72,107,190
2,58,102,2
2,70,90,0
2,74,102,0
2,65,93,192
2,70,102,34
2,72,100,182
2,74,93,4
2,57,103,4
2,69,90,0
2,72,103,0
2,65,101,198
2,69,104,42
2,72,103,188
2,55,103,38
2,67,90,0
2,70,103,0
2,62,101,188
2,67,102,4
2,69,102,194
2,70,92,6
2,53,103,4
2,65,90,0
2,69,103,0
2,67,97,194
2,65,103,4
2,69,102,12
2,51,101,14
2,63,90,0
2,67,101,0
2,58,93,16
2,63,103,124
2,65,102,12
2,67,102,6
2,46,101,4
2,62,90,0
2,65,101,0
2,58,102,194
2,62,102,26
2,65,102,192
2,51,89,34
2,55,81,0
2,63,103,0
2,58,99,160
2,63,103,30
2,70,104,4
2,69,83,174
2,67,83,62
2,69,101,8
2,53,88,6
2,65,101,192
2,69,101,26
2,65,77,4
2,72,101,190
2,58,103,2
2,70,91,0
2,74,103,0
2,65,94,192
2,70,103,34
2,72,101,182
2,74,94,4
2,57,104,4
2,69,91,0
2,72,104,0
2,65,102,198
2,69,105,42
2,72,104,188
2,55,104,38
2,67,91,0
2,70,104,0
2,62,102,188
2,67,103,4
2,69,103,194
2,70,93,6
2,53,104,4
2,65,91,0
2,69,104,0
2,67,98,194
2,65,104,4
2,77,103,12
2,63,102,14
2,75,91,0
2,79,102,0
2,70,94,16
2,75,104,124
2,77,103,12
2,79,103,6
2,58,102,4
2,74,91,0
2,77,102,0
2,70,103,194
2,74,103,26
2,77,103,192
2,70,90,34
2,75,82,0
2,79,104,0
2,79,101,12
2,67,100,160
2,65,104,30
2,72,104,0
2,77,104,0
2,81,104,10
2,82,101,54
2,81,90,2
2,82,95,22
2,81,85,2
2,57,61,2
2,79,82,0
2,81,87,76
2,74,102,26
2,65,89,0
2,58,89,2
2,82,104,12
2,70,69,2
2,74,73,28
2,70,59,196
2,48,99,0
2,67,87,0
2,72,99,0
2,63,90,188
2,67,99,34
2,72,97,182
2,46,100,4
2,67,87,0
2,74,100,0
2,79,100,0
2,70,98,198
2,74,101,64
2,70,100,92
2,50,92,10
2,69,87,0
2,74,100,0
2,65,98,194
2,69,99,4
2,74,99,94
2,53,100,4
2,74,87,0
2,81,100,0
2,77,94,194
2,69,100,4
2,77,100,0
2,74,99,12
2,48,99,8
2,67,87,0
2,72,99,0
2,63,90,196
2,67,99,34
2,72,97,182
2,46,100,4
2,67,87,0
2,74,100,0
2,79,100,0
2,70,98,198
2,74,101,64
2,70,100,92
2,50,92,10
2,69,87,0
2,74,100,0
2,65,98,194
2,69,96,4
2,72,99,94
2,74,92,6
2,53,100,4
2,69,87,0
2,72,87,0
2,60,82,194
2,65,91,188
2,69,85,24
2,58,99,12
2,70,87,0
2,74,99,0
2,65,90,196
2,70,99,34
2,72,97,182
2,74,90,4
2,57,100,4
2,69,87,0
2,72,100,0
2,65,98,198
2,69,101,42
2,72,100,188
2,55,100,38
2,67,87,0
2,70,100,0
2,62,98,188
2,67,99,4
2,69,99,194
2,70,89,6
2,53,100,4
2,65,87,0
2,69,100,0
2,67,94,194
2,65,100,4
2,77,99,12
2,63,98,14
2,75,87,0
2,79,98,0
2,70,90,16
2,75,100,124
2,77,99,12
2,79,99,6
2,58,98,4
2,74,87,0
2,77,98,0
2,70,99,194
2,74,99,26
2,77,99,192
2,70,86,34
2,75,78,0
2,79,100,0
2,79,97,12
2,67,96,160
2,65,100,30
2,72,100,0
2,77,100,0
2,81,100,10
2,82,97,54
2,81,86,2
2,82,91,22
2,81,81,2
2,57,57,2
2,79,78,0
2,81,83,76
2,74,98,26
2,65,85,0
2,58,85,2
2,82,100,12
2,70,55,526
2,58,98,6
2,62,98,0
2,70,86,0
2,65,89,196
2,74,98,34
2,72,96,0
2,70,89,4
2,57,99,4
2,69,86,0
2,72,99,0
2,65,97,198
2,69,100,42
2,70,100,4
2,72,99,0
2,55,99,38
2,67,86,0
2,70,99,0
2,62,97,188
2,67,98,4
2,69,98,14
2,70,88,6
2,53,99,4
2,65,86,0
2,69,99,0
2,62,93,194
2,65,99,4
2,69,98,12
2,51,97,14
2,63,86,0
2,67,97,0
2,58,89,16
2,63,99,124
2,65,98,12
2,67,98,6
2,46,97,4
2,62,86,0
2,65,97,0
2,58,98,194
2,62,98,26
2,65,98,192
2,48,85,34
2,55,77,0
2,64,99,0
2,67,95,160
2,60,99,30
2,70,100,4
2,69,79,174
2,67,79,76
2,69,97,0
2,53,84,6
2,65,97,192
2,69,97,26
2,65,73,4
2,72,97,190
2,58,98,2
2,62,98,0
2,70,86,0
2,65,89,192
2,74,98,34
2,72,96,0
2,70,89,4
2,57,99,4
2,69,86,0
2,72,99,0
2,65,97,198
2,69,100,42
2,70,100,4
2,72,99,0
2,55,99,38
2,67,86,0
2,70,99,0
2,62,97,188
2,67,98,4
2,69,98,14
2,70,88,6
2,53,99,4
2,65,86,0
2,69,99,0
2,62,93,194
2,65,99,4
2,69,98,12
2,51,97,14
2,63,86,0
2,67,97,0
2,58,89,16
2,63,99,124
2,65,98,12
2,67,98,6
2,46,97,4
2,62,86,0
2,65,97,0
2,58,98,194
2,62,98,26
2,65,98,192
2,58,86,34
2,63,78,0
2,79,97,12
2,67,96,160
2,65,100,30
2,72,100,0
2,77,100,0
2,81,100,10
2,82,97,54
2,81,86,2
2,82,91,22
2,81,81,2
2,57,57,2
2,79,78,0
2,81,83,76
2,74,98,26
2,65,85,0
2,58,85,2
2,82,100,12
2,70,65,2
2,74,69,28
2,70,55,196
2,48,99,0
2,67,87,0
2,72,99,0
2,63,90,188
2,67,99,34
2,72,97,182
2,46,100,4
2,67,87,0
2,74,100,0
2,79,100,0
2,70,98,198
2,74,101,64
2,70,100,92
2,50,82,8
2,65,86,12
2,69,94,22
2,74,94,26
2,48,99,30
2,67,87,0
2,72,99,0
2,63,90,196
2,67,99,34
2,72,97,182
2,46,100,4
2,67,87,0
2,74,100,0
2,79,100,0
2,70,98,198
2,74,101,64
2,70,100,92
2,50,82,8
2,65,86,12
2,69,94,22
2,74,94,26
2,58,99,30
2,70,87,0
2,74,99,0
2,65,90,196
2,70,99,34
2,72,97,182
2,74,90,4
2,57,100,4
2,69,87,0
2,72,100,0
2,65,98,198
2,69,101,42
2,72,100,188
2,55,100,38
2,67,87,0
2,70,100,0
2,62,98,188
2,67,99,4
2,69,99,194
2,70,89,6
2,53,100,4
2,65,87,0
2,69,100,0
2,65,94,28
2,62,100,4
2,65,99,12
2,51,87,14
2,67,98,0
2,58,90,16
2,63,100,124
2,65,99,12
2,67,99,6
2,58,98,4
2,62,87,0
2,65,98,0
2,70,99,194
2,74,99,154
2,77,99,192
2,70,86,26
2,75,78,0
2,79,100,0
2,79,97,12
2,67,96,160
2,65,100,8
2,72,100,0
2,77,100,0
2,81,100,10
2,82,97,54
2,81,86,2
2,82,91,22
2,81,81,2
2,57,57,2
2,79,78,0
2,81,83,76
2,74,98,26
2,65,85,0
2,58,85,2
2,82,100,12
2,70,65,2
2,74,69,28
2,70,55,196
2,60,99,0
2,67,99,0
2,72,87,0
2,76,99,0
2,74,97,32
2,76,90,6
2,59,100,4
2,71,87,0
2,74,100,0
2,67,98,6
2,74,88,62
2,57,100,28
2,69,87,0
2,72,100,0
2,64,98,2
2,74,100,6
2,72,100,10
2,71,99,14
2,72,89,10
2,64,100,2
2,55,100,2
2,67,87,0
2,71,100,0
2,64,99,12
2,65,100,12
2,53,87,2
2,69,98,0
2,60,90,2
2,67,99,12
2,69,99,6
2,60,98,4
2,64,87,0
2,67,98,0
2,69,82,28
2,60,71,2
2,65,75,0
2,53,73,2
2,72,75,20
2,71,70,8
2,67,73,4
2,65,71,2
2,69,68,0
2,71,81,6
2,55,68,8
2,59,66,0
2,67,77,2
2,72,75,12
2,71,74,42
2,60,99,10
2,67,99,0
2,72,87,0
2,76,99,0
2,74,97,32
2,76,90,6
2,59,100,4
2,71,87,0
2,74,100,0
2,67,98,6
2,74,88,62
2,57,100,28
2,69,87,0
2,72,100,0
2,64,98,2
2,74,100,6
2,72,100,10
2,71,99,14
2,72,89,10
2,64,100,2
2,55,100,2
2,67,87,0
2,71,100,0
2,64,99,12
2,65,100,12
2,53,87,2
2,69,98,0
2,60,90,2
2,67,99,12
2,69,99,6
2,60,98,4
2,64,87,0
2,67,98,0
2,65,82,28
2,53,75,2
2,69,97,12
2,55,100,4
2,62,100,0
2,67,100,0
2,71,100,2
2,72,97,54
2,71,86,2
2,72,91,22
2,71,81,2
2,59,57,2
2,69,78,0
2,71,83,76
2,64,98,26
2,60,85,0
2,72,100,14
2,60,55,646
2,60,99,10
2,67,99,0
2,72,87,0
2,76,99,0
2,74,97,32
2,76,90,6
2,59,100,4
2,71,87,0
2,74,100,0
2,67,98,6
2,74,88,62
2,57,100,28
2,69,87,0
2,72,100,0
2,64,98,2
2,74,100,6
2,72,100,10
2,71,99,14
2,72,89,10
2,64,100,2
2,55,100,2
2,67,87,0
2,71,100,0
2,64,99,12
2,65,100,12
2,53,87,2
2,69,98,0
2,60,90,2
2,67,99,12
2,69,99,6
2,60,98,4
2,64,87,0
2,67,98,0
2,66,82,28
2,57,75,2
2,62,73,2
2,72,75,206
2,71,70,2
2,67,73,4
2,66,71,2
2,69,68,0
2,71,81,170
2,55,68,8
2,59,66,0
2,67,77,2
2,72,75,12
2,71,74,42
2,60,99,10
2,67,99,0
2,72,87,0
2,76,99,0
2,74,97,32
2,76,90,6
2,59,100,4
2,71,87,0
2,74,100,0
2,67,98,6
2,74,88,62
2,57,100,28
2,69,87,0
2,72,100,0
2,64,98,2
2,74,100,6
2,72,100,10
2,71,99,14
2,72,89,10
2,64,100,2
2,55,100,2
2,67,87,0
2,71,100,0
2,64,99,12
2,65,100,12
2,53,87,2
2,69,98,0
2,60,90,2
2,67,99,12
2,69,99,6
2,60,98,4
2,64,87,0
2,67,98,0
2,66,82,28
2,57,75,2
2,62,73,2
2,72,75,206
2,71,70,2
2,67,73,4
2,66,71,2
2,69,68,0
2,71,81,170
2,55,68,8
2,59,66,0
2,67,77,2
2,72,75,12
2,71,74,42
2,60,99,10
2,67,99,0
2,72,87,0
2,76,99,0
2,74,97,32
2,76,90,6
2,59,100,4
2,71,87,0
2,74,100,0
2,67,98,6
2,74,88,62
2,57,100,28
2,69,87,0
2,72,100,0
2,64,98,2
2,74,100,6
2,72,100,10
2,71,99,14
2,72,89,10
2,64,100,2
2,55,100,2
2,67,87,0
2,71,100,0
2,64,99,12
2,65,100,12
