track,note,velocity,time
1,29,127,3072
1,36,127,592
1,36,127,644
1,36,127,252
1,29,127,280
1,29,127,216
1,34,127,196
1,38,127,0
1,41,127,100
1,34,127,48
1,38,127,4
1,41,127,72
1,29,127,0
1,33,127,56
1,36,127,44
1,29,127,20
1,33,127,44
1,36,127,80
1,36,127,84
1,40,127,8
1,43,127,80
1,36,127,188
1,40,127,60
1,43,127,48
1,29,127,184
1,36,127,48
1,33,127,8
1,31,127,44
1,33,127,188
1,34,127,20
1,34,127,60
1,38,127,0
1,41,127,100
1,34,127,48
1,38,127,4
1,41,127,72
1,29,127,0
1,33,127,56
1,36,127,44
1,29,127,20
1,33,127,44
1,36,127,80
1,36,127,84
1,40,127,8
1,43,127,80
1,36,127,188
1,40,127,60
1,43,127,48
1,29,127,0
1,36,127,28
1,33,127,124
1,29,127,60
1,29,127,220
1,29,127,184
1,33,127,380
1,36,127,44
1,29,127,52
1,33,127,40
1,36,127,76
1,34,127,60
1,38,127,8
1,41,127,28
1,34,127,36
1,38,127,8
1,41,127,72
1,36,127,44
1,40,127,20
1,43,127,72
1,36,127,48
1,40,127,380
1,43,127,132
1,29,127,184
1,33,127,40
1,36,127,84
1,29,127,48
1,36,127,12
1,33,127,184
1,36,127,8
1,29,127,16
1,33,127,0
1,36,127,92
1,29,127,52
1,33,127,20
1,36,127,108
1,36,127,72
1,40,127,388
1,43,127,104
1,36,127,0
1,40,127,380
1,43,127,84
1,31,127,184
1,35,127,36
1,38,127,32
1,31,127,16
1,35,127,24
1,38,127,12
1,36,127,40
1,40,127,388
1,43,127,88
1,36,127,24
1,46,127,200
1,45,127,176
1,43,127,4
1,29,127,52
1,33,127,40
1,36,127,44
1,29,127,64
1,33,127,40
1,36,127,60
1,34,127,40
1,38,127,36
1,41,127,72
1,34,127,56
1,38,127,8
1,41,127,72
1,36,127,32
1,40,127,12
1,43,127,60
1,36,127,68
1,40,127,4
1,43,127,128
1,29,127,52
1,33,127,36
1,36,127,56
1,29,127,36
1,39,127,16
1,38,127,24
1,33,127,200
1,34,127,76
1,38,127,12
1,41,127,96
1,36,127,56
1,40,127,20
1,43,127,96
1,29,127,20
1,33,127,12
1,36,127,56
1,29,127,48
1,33,127,384
1,36,127,92
1,36,127,92
1,40,127,0
1,43,127,68
1,36,127,28
1,40,127,380
1,43,127,124
1,29,127,52
1,33,127,384
1,36,127,64
1,29,127,0
1,36,127,4
1,33,127,12
1,36,127,200
1,29,127,60
1,33,127,64
1,36,127,24
1,34,127,44
1,38,127,300
1,41,127,40
1,36,127,184
1,40,127,268
1,43,127,128
1,29,127,184
1,36,127,168
1,33,127,168
1,31,127,8
1,29,127,40
1,33,127,44
1,36,127,40
1,34,127,184
1,38,127,244
1,41,127,28
1,36,127,184
1,40,127,252
1,43,127,20
1,29,127,0
1,36,127,200
1,33,127,16
1,36,127,4
1,29,127,68
1,36,127,156
1,41,127,68
1,36,127,16
1,36,127,68
1,31,127,384
1,36,127,116
1,31,127,44
1,36,127,100
1,31,127,36
1,36,127,56
1,31,127,0
1,41,127,56
1,36,127,388
1,29,127,16
1,29,127,96
1,31,127,184
1,33,127,180
1,34,127,24
1,29,127,124
1,34,127,180
1,29,127,84
1,41,127,208
1,36,127,108
1,41,127,136
1,36,127,28
1,41,127,104
1,31,127,148
1,38,127,124
1,36,127,76
1,31,127,0
1,31,127,168
1,38,127,68
1,36,127,68
1,34,127,200
1,33,127,92
1,31,127,88
1,29,127,64
1,33,127,380
1,36,127,44
1,29,127,52
1,33,127,40
1,36,127,76
1,34,127,60
1,38,127,8
1,41,127,28
1,34,127,36
1,38,127,8
1,41,127,72
1,36,127,44
1,40,127,20
1,43,127,72
1,36,127,48
1,40,127,380
1,43,127,132
1,29,127,184
1,33,127,40
1,36,127,84
1,29,127,48
1,36,127,12
1,33,127,184
1,36,127,8
1,29,127,16
1,33,127,0
1,36,127,92
1,29,127,52
1,33,127,20
1,36,127,108
1,36,127,72
1,40,127,388
1,43,127,104
1,36,127,0
1,40,127,380
1,43,127,84
1,31,127,184
1,35,127,36
1,38,127,32
1,31,127,16
1,35,127,24
1,38,127,12
1,36,127,40
1,40,127,388
1,43,127,88
1,36,127,24
1,46,127,200
1,45,127,176
1,43,127,4
1,29,127,52
1,33,127,40
1,36,127,44
1,29,127,64
1,33,127,40
1,36,127,60
1,34,127,40
1,38,127,36
1,41,127,72
1,34,127,56
1,38,127,8
1,41,127,72
1,36,127,32
1,40,127,12
1,43,127,60
1,36,127,68
1,40,127,4
1,43,127,128
1,29,127,52
1,33,127,36
1,36,127,56
1,29,127,36
1,39,127,16
1,38,127,24
1,33,127,200
1,34,127,76
1,38,127,12
1,41,127,96
1,36,127,56
1,40,127,20
1,43,127,96
1,29,127,20
1,33,127,12
1,36,127,56
1,29,127,48
1,33,127,384
1,36,127,92
1,36,127,92
1,40,127,0
1,43,127,68
1,36,127,28
1,40,127,380
1,43,127,124
1,29,127,52
1,33,127,384
1,36,127,64
1,29,127,0
1,36,127,4
1,33,127,12
1,36,127,200
1,29,127,60
1,33,127,64
1,36,127,24
1,34,127,44
1,38,127,300
1,41,127,40
1,36,127,184
1,40,127,268
1,43,127,128
1,29,127,184
1,36,127,168
1,33,127,168
1,31,127,8
1,29,127,40
1,33,127,44
1,36,127,40
1,34,127,184
1,38,127,244
1,41,127,28
1,36,127,184
1,40,127,252
1,43,127,20
1,29,127,0
1,36,127,200
1,33,127,16
1,36,127,4
1,29,127,68
1,36,127,156
1,41,127,68
1,36,127,16
1,36,127,68
1,31,127,384
1,36,127,116
1,31,127,44
1,36,127,100
1,31,127,36
1,36,127,56
1,31,127,0
1,41,127,56
1,36,127,388
1,29,127,16
1,29,127,96
1,31,127,184
1,33,127,180
1,34,127,24
1,29,127,124
1,34,127,180
1,29,127,84
1,41,127,208
1,36,127,108
1,41,127,136
1,36,127,28
1,41,127,104
1,31,127,148
1,38,127,124
1,36,127,76
1,31,127,0
1,31,127,168
1,38,127,68
1,36,127,68
1,34,127,200
1,33,127,92
1,31,127,88
1,29,127,64
1,33,127,380
1,36,127,44
1,29,127,52
1,33,127,40
1,36,127,76
1,34,127,60
1,38,127,8
1,41,127,28
1,34,127,36
1,38,127,8
1,41,127,72
1,36,127,44
1,40,127,20
1,43,127,72
1,36,127,48
1,40,127,380
1,43,127,132
1,29,127,184
1,33,127,40
1,36,127,84
1,29,127,48
1,36,127,12
1,33,127,184
1,36,127,8
1,29,127,16
1,33,127,0
1,36,127,92
1,29,127,52
1,33,127,20
1,36,127,108
1,36,127,72
1,40,127,388
1,43,127,104
1,36,127,0
1,40,127,380
1,43,127,84
1,31,127,184
1,35,127,36
1,38,127,32
1,31,127,16
1,35,127,24
1,38,127,12
1,36,127,40
1,40,127,388
1,43,127,88
1,36,127,24
1,46,127,200
1,45,127,176
1,43,127,4
1,29,127,52
1,33,127,40
1,36,127,44
1,29,127,64
1,33,127,40
1,36,127,60
1,34,127,40
1,38,127,36
1,41,127,72
1,34,127,56
1,38,127,8
1,41,127,72
1,36,127,32
1,40,127,12
1,43,127,60
1,36,127,68
1,40,127,4
1,43,127,128
1,29,127,52
1,33,127,36
1,36,127,56
1,29,127,36
1,39,127,16
1,38,127,24
1,33,127,200
1,34,127,76
1,38,127,12
1,41,127,96
1,36,127,56
1,40,127,20
1,43,127,96
1,29,127,20
1,33,127,12
1,36,127,56
1,29,127,48
1,33,127,384
1,36,127,92
1,36,127,92
1,40,127,0
1,43,127,68
1,36,127,28
1,40,127,380
1,43,127,124
1,29,127,52
1,33,127,384
1,36,127,64
1,29,127,0
1,36,127,4
1,33,127,12
1,36,127,200
1,29,127,60
1,33,127,64
1,36,127,24
1,34,127,44
1,38,127,300
1,41,127,40
1,36,127,184
1,40,127,268
1,43,127,128
1,29,127,184
1,36,127,168
1,33,127,168
1,31,127,8
1,29,127,40
1,33,127,44
1,36,127,40
1,34,127,184
1,38,127,244
1,41,127,28
1,36,127,184
1,40,127,252
1,43,127,20
1,29,127,0
1,36,127,200
1,33,127,16
1,36,127,4
1,29,127,72
1,33,127,380
1,36,127,44
1,29,127,52
1,33,127,40
1,36,127,76
1,34,127,60
1,38,127,8
1,41,127,28
1,34,127,36
1,38,127,8
1,41,127,72
1,36,127,44
1,40,127,20
1,43,127,72
1,36,127,48
1,40,127,380
1,43,127,132
1,29,127,184
1,33,127,40
1,36,127,84
1,29,127,48
1,36,127,12
1,33,127,184
1,36,127,8
1,29,127,16
1,33,127,0
1,36,127,92
1,29,127,52
1,33,127,20
1,36,127,108
1,36,127,72
1,40,127,388
1,43,127,104
1,36,127,0
1,40,127,380
1,43,127,84
1,31,127,184
1,35,127,36
1,38,127,32
1,31,127,16
1,35,127,24
1,38,127,12
1,36,127,40
1,40,127,388
1,43,127,88
1,36,127,24
1,46,127,200
1,45,127,176
1,43,127,4
1,29,127,52
1,33,127,40
1,36,127,44
1,29,127,64
1,33,127,40
1,36,127,60
1,34,127,40
1,38,127,36
1,41,127,72
1,34,127,56
1,38,127,8
1,41,127,72
1,36,127,32
1,40,127,12
1,43,127,60
1,36,127,68
1,40,127,4
1,43,127,128
1,29,127,52
1,33,127,36
1,36,127,56
1,29,127,36
1,39,127,16
1,38,127,24
1,33,127,200
1,34,127,76
1,38,127,12
1,41,127,96
1,36,127,56
1,40,127,20
1,43,127,96
1,29,127,20
1,33,127,12
1,36,127,56
1,29,127,48
1,33,127,384
1,36,127,92
1,36,127,92
1,40,127,0
1,43,127,68
1,36,127,28
1,40,127,380
1,43,127,124
1,29,127,52
1,33,127,384
1,36,127,64
1,29,127,0
1,36,127,4
1,33,127,12
1,36,127,200
1,29,127,60
1,33,127,64
1,36,127,24
1,34,127,44
1,38,127,300
1,41,127,40
1,36,127,184
1,40,127,268
1,43,127,128
1,29,127,184
1,36,127,168
1,33,127,168
1,31,127,8
1,29,127,40
1,33,127,44
1,36,127,40
1,34,127,184
1,38,127,244
1,41,127,28
1,36,127,184
1,40,127,252
1,43,127,20
1,29,127,0
1,36,127,200
1,33,127,16
1,36,127,4
1,29,127,68
1,33,127,64
1,36,127,24
1,34,127,44
1,38,127,300
1,41,127,40
1,36,127,184
1,40,127,268
1,43,127,128
1,29,127,184
1,36,127,168
1,33,127,168
1,31,127,8
1,29,127,40
1,33,127,44
1,36,127,40
1,34,127,184
1,38,127,244
1,41,127,28
1,36,127,4
1,40,127,296
1,43,127,20
1,41,127,12
1,29,127,500
1,29,127,140
2,41,124,3072
2,53,124,0
2,57,124,456
2,45,124,0
2,48,124,116
2,60,124,0
2,50,124,488
2,62,124,0
2,60,124,128
2,48,124,8
2,46,124,144
2,58,124,0
2,45,124,128
2,57,124,4
2,43,124,140
2,55,124,4
2,53,124,124
2,41,124,0
3,74,114,6728
3,77,118,68
3,72,119,608
3,77,115,64
3,76,118,748
3,79,114,68
3,75,110,1248
3,72,104,0
3,70,117,200
3,74,118,56
3,74,112,92
3,70,125,28
3,74,125,112
3,77,116,4
3,69,116,556
3,72,113,60
3,72,119,112
3,69,114,16
3,72,114,92
3,77,116,8
3,72,115,548
3,76,112,44
3,76,116,108
3,72,119,24
3,76,125,116
3,82,114,120
3,82,121,56
3,81,119,100
3,79,125,40
3,77,119,116
3,77,127,476
3,77,127,68
3,77,127,48
3,76,113,11848
3,67,101,0
3,76,111,144
3,67,101,4
3,76,112,60
3,67,101,0
3,76,110,120
3,67,101,0
3,76,108,56
3,67,101,4
3,76,113,120
3,67,101,0
3,69,95,532
3,72,99,148
3,69,99,28
3,72,94,44
3,69,96,136
3,70,109,1084
3,70,104,60
3,74,107,44
3,77,106,56
3,76,89,404
3,72,92,136
3,76,95,116
3,76,94,44
3,76,86,132
3,72,92,336
3,74,86,144
3,77,109,12
3,72,108,0
3,77,107,56
3,72,108,0
3,77,109,60
3,72,113,0
3,74,97,724
3,65,82,28
3,64,74,128
3,72,105,368
3,69,85,52
3,65,91,108
3,72,71,72
3,69,73,0
3,69,102,2064
3,72,104,136
3,69,105,124
3,72,110,0
3,77,110,0
3,72,109,52
3,69,108,0
3,77,112,0
3,72,117,148
3,69,119,0
3,77,119,0
3,77,118,40
3,72,118,0
3,69,120,0
3,72,125,340
3,69,125,0
3,77,114,332
3,72,110,4
3,70,89,332
3,74,108,4
3,76,127,16
3,72,125,0
3,72,121,920
3,69,127,4
3,72,125,56
3,69,117,0
3,72,113,44
3,69,121,0
3,72,125,52
3,77,119,4
3,72,119,240
3,69,123,0
3,77,114,336
3,72,107,0
3,70,86,332
3,74,119,4
3,72,111,36
3,76,111,4
3,77,125,916
3,72,127,0
3,69,127,4
3,72,125,52
3,69,125,0
3,77,119,4
3,72,127,36
3,77,127,8
3,69,127,0
3,72,113,2832
3,60,83,0
3,72,103,68
3,60,83,0
3,76,103,40
3,64,83,0
3,67,83,36
3,79,102,0
3,65,84,2680
3,77,104,0
3,65,84,60
3,77,104,0
3,69,84,48
3,81,104,4
3,84,104,40
3,72,84,0
3,67,111,5756
3,72,109,0
3,76,101,4
3,67,105,60
3,72,105,4
3,76,109,0
3,67,102,48
3,76,105,4
3,72,102,0
3,65,95,524
3,69,95,0
3,72,101,140
3,69,99,0
3,65,105,100
3,69,99,0
3,72,97,28
3,69,101,0
3,69,100,112
3,65,90,4
3,70,109,1068
3,70,109,72
3,74,111,52
3,77,109,60
3,69,112,2164
3,72,112,4
3,77,112,0
3,69,115,60
3,72,114,0
3,77,110,0
3,77,107,72
3,72,109,0
3,69,115,0
3,72,112,68
3,69,116,0
3,69,112,144
3,72,112,0
3,77,112,0
3,72,113,68
3,77,111,0
3,69,114,0
3,72,109,3040
3,76,108,0
3,67,107,0
3,72,107,68
3,67,108,0
3,76,108,0
3,72,109,44
3,76,109,4
3,67,107,0
3,72,111,2260
3,76,110,0
3,67,107,0
3,72,111,160
3,76,111,0
3,67,112,0
3,72,107,68
3,76,109,0
3,67,108,0
3,72,107,136
3,76,107,0
3,67,107,0
3,72,107,64
3,76,107,4
3,67,107,0
3,72,107,140
3,76,107,0
3,67,111,4
3,69,95,532
3,72,99,148
3,69,99,28
3,72,94,44
3,69,96,136
3,70,109,1084
3,70,104,60
3,74,107,44
3,77,106,56
3,76,89,404
3,72,92,136
3,76,95,116
3,76,94,44
3,76,86,132
3,72,92,336
3,74,86,144
3,77,109,12
3,72,108,0
3,77,107,56
3,72,108,0
3,77,109,60
3,72,113,0
3,74,94,724
3,65,89,28
3,64,76,128
3,72,102,368
3,69,81,52
3,65,95,108
3,72,92,72
3,69,94,0
3,76,96,144
3,72,96,0
3,74,94,0
3,70,99,0
3,72,93,16
3,69,84,0
3,70,98,16
3,67,99,0
3,69,98,12
3,65,99,0
3,69,119,8
3,72,119,132
3,69,116,108
3,77,113,0
3,72,113,0
3,69,107,56
3,72,112,0
3,77,109,0
3,69,116,156
3,72,116,0
3,77,110,0
3,77,110,48
3,72,114,0
3,69,118,0
3,72,125,328
3,69,125,0
3,77,114,332
3,72,110,4
3,70,89,332
3,74,108,4
3,76,127,16
3,72,125,0
3,72,121,920
3,69,127,4
3,72,125,56
3,69,117,0
3,72,113,44
3,69,121,0
3,72,125,52
3,77,119,4
3,72,119,240
3,69,123,0
3,77,114,336
3,72,107,0
3,70,86,332
3,74,119,4
3,72,111,36
3,76,111,4
3,77,125,916
3,72,127,0
3,69,127,4
3,72,125,52
3,69,125,0
3,77,119,4
3,72,127,36
3,77,127,8
3,69,127,0
3,72,113,2832
3,60,83,0
3,72,103,68
3,60,83,0
3,76,103,40
3,64,83,0
3,67,83,36
3,79,102,0
3,65,84,2680
3,77,104,0
3,65,84,60
3,77,104,0
3,69,84,48
3,81,104,4
3,84,104,40
3,72,84,0
3,67,111,5756
3,72,109,0
3,76,101,4
3,67,105,60
3,72,105,4
3,76,109,0
3,67,102,48
3,76,105,4
3,72,102,0
3,65,95,524
3,69,95,0
3,72,101,140
3,69,99,0
3,65,105,100
3,69,99,0
3,72,97,28
3,69,101,0
3,69,100,112
