track,note,velocity,time
1,46,95,2296
1,41,95,256
1,46,95,256
1,41,95,256
1,41,95,256
1,36,95,256
1,41,95,256
1,36,95,256
1,43,95,256
1,36,95,256
1,43,95,256
1,36,95,256
1,41,95,256
1,36,95,256
1,41,95,256
1,41,95,256
1,43,95,0
1,45,95,0
1,46,95,0
1,41,95,256
1,46,95,256
1,41,95,256
1,41,95,256
1,36,95,256
1,41,95,256
1,36,95,256
1,43,95,256
1,36,95,256
1,43,95,256
1,36,95,256
1,43,95,256
1,36,95,256
1,38,95,0
1,40,95,0
1,41,95,0
1,36,95,640
1,36,95,256
1,38,95,256
1,40,95,256
1,41,95,256
1,36,95,256
1,41,95,256
1,36,95,256
1,41,95,256
1,36,95,256
1,41,95,256
1,36,95,256
1,38,95,0
1,40,95,0
1,41,95,0
1,36,95,256
1,41,95,256
1,36,95,256
1,43,95,256
1,36,95,256
1,43,95,256
1,36,95,1024
1,43,95,256
1,36,95,256
1,43,95,256
1,36,95,256
1,43,95,256
1,36,95,256
1,43,95,256
1,36,95,256
1,43,95,256
1,36,95,256
1,41,95,256
1,36,95,256
1,41,95,256
1,41,95,256
1,43,95,64
1,45,95,0
1,46,95,64
1,41,95,256
1,46,95,256
1,41,95,256
1,41,95,256
1,36,95,256
1,41,95,256
1,36,95,256
1,43,95,256
1,38,95,256
1,43,95,256
1,38,95,256
1,36,95,256
1,43,95,256
1,36,95,256
1,36,95,256
1,38,95,0
1,40,95,0
1,41,95,0
1,36,95,256
1,41,95,256
1,36,95,256
1,41,95,256
1,39,95,256
1,38,95,256
1,45,95,256
1,43,95,256
1,38,95,256
1,36,95,256
1,40,95,256
1,41,95,256
1,41,95,640
1,41,95,256
1,42,95,128
1,43,95,0
1,38,95,256
1,43,95,256
1,43,95,256
1,45,95,0
1,47,95,0
1,48,95,0
1,43,95,256
1,48,95,256
1,43,95,256
1,43,95,256
1,38,95,256
1,43,95,256
1,38,95,256
1,43,95,256
1,38,95,256
1,43,95,256
1,38,95,256
1,48,95,256
1,43,95,256
1,48,95,256
1,36,95,256
1,38,95,0
1,40,95,0
1,41,95,0
1,36,95,256
1,41,95,256
1,36,95,256
1,41,95,256
1,36,95,256
1,48,95,256
1,43,95,256
1,43,95,256
1,38,95,192
1,43,95,320
1,38,95,256
1,43,95,256
1,38,95,256
1,36,95,256
1,43,95,256
1,48,95,256
1,43,95,256
1,48,95,256
1,48,95,256
1,48,95,256
1,43,95,256
1,36,95,256
1,38,95,384
1,40,95,0
1,41,95,0
1,36,95,256
1,41,95,256
1,36,95,256
1,41,95,256
1,36,95,256
1,41,95,256
1,36,95,256
1,38,95,0
1,40,95,0
1,41,95,0
1,36,95,256
1,41,95,256
1,36,95,256
1,43,95,256
1,36,95,256
1,43,95,256
1,36,95,1024
1,43,95,256
1,36,95,256
1,43,95,256
1,36,95,256
1,43,95,256
1,36,95,256
1,43,95,256
1,36,95,256
1,43,95,256
1,36,95,256
1,41,95,256
1,36,95,256
1,41,95,256
1,41,95,256
1,43,95,64
1,45,95,0
1,46,95,64
1,41,95,256
1,46,95,256
1,41,95,256
1,41,95,256
1,36,95,256
1,41,95,256
1,36,95,256
1,43,95,256
1,38,95,256
1,43,95,256
1,38,95,256
1,36,95,256
1,43,95,256
1,36,95,256
1,36,95,256
1,38,95,0
1,40,95,0
1,41,95,0
1,36,95,256
1,41,95,256
1,36,95,256
1,41,95,256
1,39,95,256
1,38,95,256
1,45,95,256
1,43,95,256
1,38,95,256
1,36,95,256
1,40,95,256
1,41,95,256
1,41,95,640
1,41,95,256
1,42,95,128
1,43,95,0
1,38,95,256
1,43,95,256
1,43,95,256
1,45,95,0
1,47,95,0
1,48,95,0
1,43,95,256
1,48,95,256
1,43,95,256
1,43,95,256
1,38,95,256
1,43,95,256
1,38,95,256
1,43,95,256
1,38,95,256
1,43,95,256
1,38,95,256
1,48,95,256
1,43,95,256
1,48,95,256
1,36,95,256
1,38,95,0
1,40,95,0
1,41,95,0
1,36,95,256
1,41,95,256
1,36,95,256
1,41,95,256
1,36,95,256
1,48,95,256
1,43,95,256
1,43,95,256
1,38,95,192
1,43,95,320
1,38,95,256
1,43,95,256
1,38,95,256
1,36,95,256
1,43,95,256
1,48,95,256
1,43,95,256
1,48,95,256
1,48,95,256
1,48,95,256
1,43,95,256
1,36,95,256
1,38,95,384
1,40,95,0
1,41,95,0
1,36,95,256
1,41,95,256
1,36,95,256
1,41,95,256
1,36,95,256
1,41,95,256
1,36,95,256
1,38,95,0
1,40,95,0
1,41,95,0
1,36,95,256
1,41,95,256
1,36,95,256
1,43,95,256
1,36,95,256
1,43,95,256
1,36,95,1024
1,43,95,256
1,36,95,256
1,43,95,256
1,36,95,256
1,43,95,256
1,36,95,256
1,43,95,256
1,36,95,256
1,43,95,256
1,36,95,256
1,41,95,256
1,36,95,256
1,41,95,256
1,41,95,256
1,43,95,64
1,45,95,0
1,46,95,64
1,41,95,256
1,46,95,256
1,41,95,256
1,41,95,256
1,36,95,256
1,41,95,256
1,36,95,256
1,43,95,256
1,38,95,256
1,43,95,256
1,38,95,256
1,36,95,256
1,43,95,256
1,36,95,256
1,36,95,256
1,38,95,0
1,40,95,0
1,41,95,0
1,36,95,256
1,41,95,256
1,36,95,256
1,41,95,256
1,39,95,256
1,38,95,256
1,45,95,256
1,43,95,256
1,38,95,256
1,36,95,256
1,40,95,256
1,41,95,256
1,36,95,256
1,41,95,256
1,41,95,1024
1,46,95,256
1,41,95,256
1,41,95,256
1,36,95,256
1,41,95,256
1,36,95,256
1,43,95,256
1,36,95,256
1,43,95,256
1,36,95,256
1,41,95,256
1,36,95,256
1,41,95,256
1,41,95,256
1,43,95,0
1,45,95,0
1,41,95,384
1,46,95,256
1,41,95,256
1,41,95,256
1,36,95,256
1,41,95,256
1,36,95,256
1,43,95,256
1,36,95,256
1,43,95,256
1,36,95,256
1,43,95,256
1,36,95,256
1,38,95,0
1,40,95,0
1,41,95,0
1,36,95,640
1,36,95,256
1,38,95,256
1,40,95,256
1,41,95,256
1,36,95,256
1,41,95,256
1,36,95,256
1,41,95,256
1,36,95,256
1,41,95,256
1,36,95,256
1,38,95,0
1,40,95,0
1,41,95,0
1,36,95,256
1,41,95,256
1,36,95,256
1,43,95,256
1,36,95,256
1,43,95,256
1,36,95,1024
1,43,95,256
1,36,95,256
1,43,95,256
1,36,95,256
1,43,95,256
1,36,95,256
1,43,95,256
1,36,95,256
1,43,95,256
1,36,95,256
1,41,95,256
1,36,95,256
1,41,95,256
1,41,95,256
1,43,95,64
1,45,95,0
1,46,95,64
1,41,95,256
1,46,95,256
1,41,95,256
1,41,95,256
1,36,95,256
1,41,95,256
1,36,95,256
1,43,95,256
1,38,95,256
1,43,95,256
1,38,95,256
1,36,95,256
1,43,95,256
1,36,95,256
1,36,95,256
1,38,95,0
1,40,95,0
1,41,95,0
1,36,95,256
1,41,95,256
1,36,95,256
1,41,95,256
1,39,95,256
1,38,95,256
1,45,95,256
1,38,95,640
1,36,95,256
1,40,95,256
1,41,95,256
1,40,95,256
1,38,95,256
1,36,95,256
1,38,95,640
1,36,95,256
1,40,95,256
1,41,95,256
1,40,95,256
1,38,95,256
1,36,95,256
1,38,95,640
1,36,95,256
1,40,95,256
1,41,95,256
1,36,95,256
1,41,95,256
1,41,95,256
2,82,70,3016
2,77,70,80
2,82,70,80
2,86,70,80
2,82,70,80
2,86,70,64
2,86,70,96
2,89,70,0
2,89,70,0
2,91,70,0
2,86,70,0
2,89,70,0
2,89,70,0
2,91,70,0
2,86,70,0
2,89,70,0
2,89,70,0
2,91,70,0
2,86,70,0
2,89,70,0
2,89,70,0
2,91,70,0
2,86,70,0
2,89,70,0
2,89,70,0
2,91,70,0
2,81,70,288
2,77,70,80
2,81,70,80
2,84,70,80
2,81,70,80
2,84,70,80
2,84,70,80
2,89,70,0
2,89,70,0
2,91,70,0
2,84,70,0
2,89,70,0
2,89,70,0
2,91,70,0
2,84,70,0
2,89,70,0
2,89,70,0
2,91,70,0
2,84,70,0
2,89,70,0
2,89,70,0
2,91,70,0
2,84,70,0
2,89,70,0
2,89,70,0
2,91,70,0
2,82,70,3360
2,77,70,80
2,82,70,80
2,86,70,80
2,82,70,80
2,86,70,80
2,86,70,80
2,89,70,0
2,89,70,0
2,91,70,0
2,86,70,0
2,89,70,0
2,89,70,0
2,91,70,0
2,86,70,0
2,89,70,0
2,89,70,0
2,91,70,0
2,86,70,0
2,89,70,0
2,89,70,0
2,91,70,0
2,86,70,0
2,89,70,0
2,89,70,0
2,91,70,0
2,81,70,288
2,77,70,80
2,81,70,80
2,84,70,80
2,81,70,80
2,84,70,80
2,84,70,80
2,89,70,0
2,89,70,0
2,91,70,0
2,84,70,0
2,89,70,0
2,89,70,0
2,91,70,0
2,84,70,0
2,89,70,0
2,89,70,0
2,91,70,0
2,84,70,0
2,89,70,0
2,89,70,0
2,91,70,0
2,84,70,0
2,89,70,0
2,89,70,0
2,91,70,0
2,84,70,2976
2,86,70,0
2,86,70,0
2,89,70,0
2,84,70,0
2,86,70,0
2,86,70,0
2,89,70,0
2,84,70,0
2,86,70,0
2,86,70,0
2,89,70,0
2,84,70,0
2,86,70,0
2,86,70,0
2,89,70,0
2,84,70,0
2,86,70,0
2,86,70,0
2,89,70,0
2,84,70,0
2,86,70,0
2,86,70,0
2,89,70,0
2,84,70,0
2,86,70,0
2,86,70,0
2,89,70,0
2,84,70,0
2,86,70,0
2,86,70,0
2,89,70,0
2,84,70,0
2,86,70,0
2,86,70,0
2,89,70,0
2,84,70,0
2,86,70,0
2,86,70,0
2,89,70,0
2,84,70,0
2,86,70,0
2,86,70,0
2,89,70,0
2,84,70,0
2,86,70,0
2,86,70,0
2,89,70,0
2,84,70,0
2,86,70,0
2,86,70,0
2,89,70,0
2,84,70,0
2,86,70,0
2,86,70,0
2,89,70,0
2,81,70,192
2,84,70,0
2,81,70,208
2,84,70,0
2,81,70,80
2,84,70,0
2,79,70,208
2,82,70,0
2,77,70,80
2,81,70,0
2,77,70,208
2,81,70,0
2,77,70,80
2,81,70,0
2,76,70,208
2,80,70,0
2,77,70,80
2,81,70,0
2,76,70,208
2,80,70,0
2,77,70,80
2,81,70,0
2,79,70,208
2,82,70,0
2,81,70,80
2,84,70,208
2,77,70,80
2,81,70,0
2,81,70,0
2,84,70,0
2,77,70,0
2,81,70,0
2,81,70,0
2,84,70,0
2,77,70,0
2,81,70,0
2,81,70,0
2,84,70,0
2,77,70,0
2,81,70,0
2,81,70,0
2,84,70,0
2,81,70,384
2,81,70,208
2,84,70,80
2,84,70,208
2,81,70,80
2,84,70,0
2,84,70,0
2,89,70,0
2,81,70,0
2,84,70,0
2,84,70,0
2,89,70,0
2,81,70,0
2,84,70,0
2,84,70,0
2,89,70,0
2,81,70,0
2,84,70,0
2,84,70,0
2,89,70,0
2,79,70,384
2,79,70,208
2,84,70,80
2,79,70,80
2,84,70,80
2,79,70,80
2,84,70,0
2,84,70,0
2,88,70,0
2,79,70,0
2,84,70,0
2,84,70,0
2,88,70,0
2,79,70,0
2,84,70,0
2,84,70,0
2,88,70,0
2,79,70,0
2,84,70,0
2,84,70,0
2,88,70,0
2,82,70,0
2,82,70,208
2,82,70,80
2,81,70,208
2,79,70,80
2,79,70,208
2,79,70,80
2,78,70,208
2,79,70,80
2,78,70,208
2,79,70,80
2,81,70,208
2,82,70,80
2,82,70,192
2,82,70,96
2,86,70,0
2,86,70,0
2,88,70,0
2,82,70,0
2,86,70,0
2,86,70,0
2,88,70,0
2,82,70,0
2,86,70,0
2,86,70,0
2,88,70,0
2,82,70,0
2,86,70,0
2,86,70,0
2,88,70,0
2,79,70,384
2,78,70,80
2,79,70,80
2,84,70,80
2,82,70,336
2,84,70,0
2,84,70,0
2,88,70,0
2,82,70,0
2,84,70,0
2,84,70,0
2,88,70,0
2,82,70,0
2,84,70,0
2,84,70,0
2,88,70,0
2,82,70,0
2,84,70,0
2,84,70,0
2,88,70,0
2,81,70,384
2,77,70,80
2,81,70,80
2,84,70,80
2,81,70,80
2,84,70,80
2,84,70,80
2,88,70,0
2,88,70,0
2,89,70,0
2,84,70,0
2,88,70,0
2,88,70,0
2,89,70,0
2,84,70,0
2,88,70,0
2,88,70,0
2,89,70,0
2,84,70,0
2,88,70,0
2,88,70,0
2,89,70,0
2,82,70,1056
2,86,70,0
2,81,70,0
2,85,70,0
2,82,70,0
2,86,70,0
2,81,70,1392
2,84,70,0
2,80,70,0
2,83,70,0
2,81,70,0
2,84,70,0
2,84,70,3024
2,86,70,0
2,86,70,0
2,88,70,0
2,84,70,0
2,86,70,0
2,86,70,0
2,88,70,0
2,84,70,0
2,86,70,0
2,86,70,0
2,88,70,0
2,84,70,0
2,86,70,0
2,86,70,0
2,88,70,0
2,84,70,0
2,84,70,208
2,84,70,80
2,82,70,208
2,81,70,80
2,81,70,208
2,81,70,80
2,79,70,208
2,81,70,80
2,81,70,208
2,81,70,80
2,82,70,208
2,84,70,80
2,84,70,208
2,84,70,80
2,79,70,720
2,78,70,80
2,79,70,80
2,84,70,80
2,83,70,80
2,84,70,80
2,88,70,80
2,87,70,80
2,88,70,80
2,89,70,80
2,89,70,336
2,89,70,80
2,89,70,80
2,89,70,80
2,89,70,80
2,89,70,80
2,89,70,80
2,90,70,208
2,91,70,80
2,91,70,336
2,91,70,80
2,91,70,80
2,91,70,80
2,91,70,80
2,91,70,80
2,91,70,80
2,83,70,2896
2,86,70,0
2,83,70,80
2,86,70,0
2,84,70,2896
2,88,70,0
2,84,70,80
2,88,70,0
2,88,70,2896
2,91,70,0
2,88,70,80
2,91,70,0
2,79,70,1104
2,74,70,80
2,79,70,80
2,83,70,80
2,79,70,1104
2,76,70,80
2,79,70,80
2,84,70,80
2,81,70,3408
2,84,70,0
2,81,70,208
2,84,70,0
2,81,70,80
2,84,70,0
2,79,70,208
2,82,70,0
2,77,70,80
2,81,70,0
2,77,70,208
2,81,70,0
2,77,70,80
2,81,70,0
2,76,70,208
2,80,70,0
2,77,70,80
2,81,70,0
2,76,70,208
2,80,70,0
2,77,70,80
2,81,70,0
2,79,70,208
2,82,70,0
2,81,70,80
2,84,70,208
2,77,70,80
2,81,70,0
2,81,70,0
2,84,70,0
2,77,70,0
2,81,70,0
2,81,70,0
2,84,70,0
2,77,70,0
2,81,70,0
2,81,70,0
2,84,70,0
2,77,70,0
2,81,70,0
2,81,70,0
2,84,70,0
2,81,70,384
2,81,70,208
2,84,70,80
2,84,70,208
2,81,70,80
2,84,70,0
2,84,70,0
2,89,70,0
2,81,70,0
2,84,70,0
2,84,70,0
2,89,70,0
2,81,70,0
2,84,70,0
2,84,70,0
2,89,70,0
2,81,70,0
2,84,70,0
2,84,70,0
2,89,70,0
2,79,70,384
2,79,70,208
2,84,70,80
2,79,70,80
2,84,70,80
2,79,70,80
2,84,70,0
2,84,70,0
2,88,70,0
2,79,70,0
2,84,70,0
2,84,70,0
2,88,70,0
2,79,70,0
2,84,70,0
2,84,70,0
2,88,70,0
2,79,70,0
2,84,70,0
2,84,70,0
2,88,70,0
2,82,70,0
2,82,70,208
2,82,70,80
2,81,70,208
2,79,70,80
2,79,70,208
2,79,70,80
2,78,70,208
2,79,70,80
2,78,70,208
2,79,70,80
2,81,70,208
2,82,70,80
2,82,70,208
2,82,70,80
2,86,70,0
2,86,70,0
2,88,70,0
2,82,70,0
2,86,70,0
2,86,70,0
2,88,70,0
2,82,70,0
2,86,70,0
2,86,70,0
2,88,70,0
2,82,70,0
2,86,70,0
2,86,70,0
2,88,70,0
2,79,70,384
2,78,70,80
2,79,70,80
2,84,70,80
2,82,70,336
2,84,70,0
2,84,70,0
2,88,70,0
2,82,70,0
2,84,70,0
2,84,70,0
2,88,70,0
2,82,70,0
2,84,70,0
2,84,70,0
2,88,70,0
2,82,70,0
2,84,70,0
2,84,70,0
2,88,70,0
2,81,70,384
2,77,70,80
2,81,70,80
2,84,70,80
2,81,70,80
