track,note,velocity,time
2,35,125,1912
2,35,125,360
2,35,125,360
2,35,125,360
2,35,125,360
2,35,125,360
2,35,125,360
2,35,125,360
2,35,125,360
2,35,125,360
2,35,125,360
2,35,125,360
2,35,125,360
2,35,125,360
2,35,125,360
2,35,125,360
2,35,125,360
2,35,125,360
2,35,125,360
2,35,125,360
2,35,125,360
2,35,125,360
2,35,125,360
2,35,125,360
2,35,125,360
2,35,125,360
2,35,125,360
2,35,125,360
2,35,125,360
2,35,125,360
2,35,125,360
2,35,125,360
2,35,125,1896
2,35,125,360
2,35,125,360
2,35,125,360
2,35,125,360
2,35,125,360
2,35,125,360
2,35,125,360
2,35,125,360
2,35,125,360
2,35,125,360
2,35,125,360
2,35,125,360
2,35,125,360
2,35,125,360
2,35,125,360
2,35,125,360
2,35,125,360
2,35,125,360
2,35,125,360
2,35,125,360
2,35,125,360
2,35,125,360
2,35,125,360
2,35,125,360
2,35,125,360
2,35,125,360
2,35,125,360
2,35,125,360
2,35,125,360
2,35,125,360
2,35,125,360
2,35,125,360
2,35,125,360
2,35,125,360
2,35,125,360
2,35,125,360
2,35,125,360
2,35,125,360
2,35,125,360
2,35,125,360
2,35,125,360
2,35,125,360
2,35,125,360
2,35,125,360
2,35,125,360
2,35,125,360
2,35,125,360
2,35,125,360
2,35,125,360
2,35,125,360
2,35,125,360
2,35,125,360
2,35,125,360
2,35,125,360
2,35,125,360
2,35,125,360
2,35,125,360
2,35,125,360
2,35,125,360
2,35,125,360
2,35,125,360
2,35,125,360
2,35,125,360
2,35,125,360
2,35,125,360
2,35,125,360
2,35,125,360
2,35,125,360
2,35,125,360
2,35,125,360
2,35,125,360
2,35,125,360
2,35,125,360
2,35,125,360
2,35,125,360
2,35,125,360
2,35,125,360
2,35,125,360
2,35,125,360
2,35,125,360
2,35,125,360
2,35,125,360
2,35,125,360
2,35,125,360
2,35,125,360
2,35,125,360
2,35,125,360
2,35,125,360
2,35,125,360
2,35,125,360
2,35,125,360
2,35,125,360
2,35,125,360
2,35,125,360
2,35,125,360
2,35,125,360
2,35,125,360
2,35,125,360
2,35,125,360
2,35,125,360
2,35,125,360
2,35,125,360
2,35,125,360
2,35,125,360
2,35,125,360
2,35,125,360
2,35,125,360
2,35,125,360
2,35,125,360
2,35,125,360
2,35,125,360
2,35,125,360
2,35,125,360
2,35,125,360
2,35,125,360
2,35,125,360
2,35,125,360
2,35,125,360
2,35,125,360
2,35,125,360
2,35,125,360
2,35,125,360
2,35,125,360
2,35,125,360
2,35,125,360
2,35,125,360
2,35,125,360
2,35,125,360
2,35,125,360
2,35,125,360
2,35,125,360
2,35,125,360
2,35,125,360
2,35,125,360
2,35,125,360
2,35,125,360
2,35,125,360
2,35,125,360
2,35,125,360
2,35,125,360
2,35,125,360
2,35,125,360
2,35,125,360
2,35,125,360
2,35,125,360
2,35,125,360
2,35,125,360
2,35,125,360
2,35,125,360
2,35,125,360
2,35,125,360
2,35,125,360
2,35,125,360
2,35,125,360
2,35,125,360
2,35,125,360
2,35,125,360
2,35,125,360
2,35,125,360
2,35,125,360
2,35,125,360
2,35,125,360
2,35,125,360
2,35,125,360
2,35,125,360
2,35,125,360
2,35,125,360
2,35,125,360
2,35,125,360
2,35,125,360
2,35,125,360
2,35,125,360
2,35,125,360
2,35,125,360
2,35,125,360
2,35,125,360
2,35,125,360
2,35,125,360
2,35,125,360
2,35,125,360
2,35,125,360
2,35,125,360
2,35,125,360
2,35,125,360
2,35,125,360
2,35,125,360
2,35,125,360
2,35,125,360
2,35,125,360
2,35,125,360
2,35,125,360
2,35,125,360
2,35,125,360
2,35,125,360
2,35,125,360
2,35,125,360
2,35,125,360
2,35,125,360
2,35,125,360
2,35,125,360
2,35,125,360
2,35,125,360
2,35,125,360
2,35,125,360
2,35,125,360
2,35,125,360
2,35,125,360
2,35,125,360
2,35,125,360
2,35,125,360
2,35,125,360
2,35,125,360
2,35,125,360
2,35,125,360
2,35,125,360
2,35,125,360
2,35,125,360
2,35,125,360
2,35,125,360
2,35,125,360
2,35,125,360
2,35,125,360
2,35,125,360
2,35,125,360
2,35,125,360
2,35,125,360
2,35,125,360
2,35,125,360
2,35,125,360
2,35,125,360
2,35,125,360
2,35,125,360
2,35,125,360
2,35,125,360
2,35,125,360
2,35,125,360
2,35,125,360
2,35,125,360
2,35,125,360
2,35,125,360
2,35,125,360
2,35,125,360
2,35,125,360
2,35,125,360
2,35,125,360
2,35,125,360
2,35,125,360
2,35,125,360
2,35,125,360
2,35,125,360
2,35,125,360
2,35,125,360
2,35,125,360
2,35,125,360
2,35,125,360
2,35,125,360
2,35,125,360
2,35,125,360
2,35,125,360
2,35,125,360
2,35,125,360
2,35,125,360
2,35,125,360
2,35,125,360
2,35,125,360
2,35,125,360
2,35,125,360
2,35,125,360
2,35,125,360
2,35,125,360
2,35,125,360
2,35,125,360
2,35,125,360
2,35,125,360
2,35,125,360
2,35,125,360
2,35,125,360
2,35,125,360
2,35,125,360
2,35,125,360
2,35,125,360
2,35,125,360
2,35,125,360
2,35,125,360
2,35,125,360
2,35,125,360
2,35,125,360
2,35,125,360
2,35,125,360
2,35,125,360
2,35,125,360
2,35,125,360
2,35,125,360
2,35,125,360
2,35,125,360
2,35,125,360
2,35,125,360
2,35,125,360
2,35,125,360
2,35,125,360
2,35,125,360
2,35,125,360
2,35,125,360
2,35,125,360
2,35,125,360
2,35,125,360
2,35,125,360
2,35,125,360
2,35,125,360
2,35,125,360
2,35,125,360
2,35,125,1896
2,35,125,360
2,35,125,360
2,35,125,360
2,35,125,360
2,35,125,360
2,35,125,360
2,35,125,360
2,35,125,360
2,35,125,360
2,35,125,360
2,35,125,360
2,35,125,360
2,35,125,360
2,35,125,360
2,35,125,360
2,35,125,360
2,35,125,360
2,35,125,360
2,35,125,360
2,35,125,360
2,35,125,360
2,35,125,360
2,35,125,360
2,35,125,360
2,35,125,360
2,35,125,360
2,35,125,360
2,35,125,360
2,35,125,360
2,35,125,360
2,35,125,360
2,35,125,360
2,35,125,360
2,35,125,360
2,35,125,360
2,35,125,360
2,35,125,360
2,35,125,360
2,35,125,360
2,35,125,360
2,35,125,360
2,35,125,360
2,35,125,360
2,35,125,360
2,35,125,360
2,35,125,360
2,35,125,360
2,35,125,360
2,35,125,360
2,35,125,360
2,35,125,360
2,35,125,360
2,35,125,360
2,35,125,360
2,35,125,360
2,35,125,360
2,35,125,360
2,35,125,360
2,35,125,360
2,35,125,360
2,35,125,360
2,35,125,360
2,35,125,360
2,35,125,360
2,35,125,360
2,35,125,360
2,35,125,360
2,35,125,360
2,35,125,360
2,35,125,360
2,35,125,360
2,35,125,360
2,35,125,360
2,35,125,360
2,35,125,360
2,35,125,360
2,35,125,360
2,35,125,360
2,35,125,360
3,40,105,2164
3,40,105,360
3,40,105,360
3,40,105,360
3,40,105,360
3,40,105,360
3,40,105,360
3,40,105,360
3,40,105,360
3,40,105,360
3,40,105,360
3,40,105,360
3,40,105,360
3,40,105,360
3,40,105,360
3,40,105,360
3,40,105,360
3,40,105,360
3,40,105,360
3,40,105,360
3,40,105,360
3,40,105,360
3,40,105,360
3,40,105,360
3,40,105,360
3,40,105,360
3,40,105,360
3,40,105,360
3,40,105,360
3,40,105,360
3,40,105,2664
3,40,105,360
3,40,105,360
3,40,105,104
3,40,105,104
3,40,105,104
3,40,105,360
3,40,105,360
3,40,105,360
3,40,105,104
3,40,105,104
3,40,105,104
3,40,105,360
3,40,105,360
3,40,105,360
3,40,105,360
3,40,105,360
3,40,105,360
3,40,105,360
3,40,105,360
3,40,105,360
3,40,105,360
3,40,105,360
3,40,105,360
3,40,105,360
3,40,105,360
3,40,105,360
3,40,105,104
3,40,105,104
3,40,105,104
3,40,105,360
3,40,105,360
3,40,105,360
3,40,105,360
3,40,105,360
3,40,105,360
3,40,105,360
3,40,105,104
3,40,105,104
3,40,105,104
3,40,105,360
3,40,105,360
3,40,105,360
3,40,105,360
3,40,105,360
3,40,105,360
3,40,105,360
3,40,105,104
3,40,105,232
3,40,105,360
3,40,105,360
3,40,105,360
3,40,105,360
3,40,105,360
3,40,105,360
3,40,105,360
3,40,105,104
3,40,105,104
3,40,105,104
3,40,105,360
3,40,105,360
3,40,105,360
3,40,105,360
3,40,105,360
3,40,105,360
3,40,105,360
3,40,105,104
3,40,105,104
3,40,105,104
3,40,105,360
3,40,105,360
3,40,105,360
3,40,105,360
3,40,105,360
3,40,105,360
3,40,105,360
3,40,105,360
3,40,105,104
3,40,105,232
3,40,105,360
3,40,105,360
3,40,105,104
3,40,105,104
3,40,105,104
3,40,105,360
3,40,105,360
3,40,105,360
3,40,105,360
3,40,105,360
3,40,105,360
3,40,105,360
3,40,105,104
3,40,105,104
3,40,105,104
3,40,105,360
3,40,105,360
3,40,105,360
3,40,105,360
3,40,105,360
3,40,105,360
3,40,105,360
3,40,105,104
3,40,105,104
3,40,105,104
3,40,105,360
3,40,105,360
3,40,105,360
3,40,105,360
3,40,105,360
3,40,105,360
3,40,105,360
3,40,105,104
3,40,105,232
3,40,105,360
3,40,105,360
3,40,105,360
3,40,105,360
3,40,105,360
3,40,105,360
3,40,105,360
3,40,105,104
3,40,105,104
3,40,105,104
3,40,105,360
3,40,105,360
3,40,105,360
3,40,105,360
3,40,105,360
3,40,105,360
3,40,105,360
3,40,105,104
3,40,105,104
3,40,105,104
3,40,105,360
3,40,105,360
3,40,105,360
3,40,105,104
3,40,105,104
3,40,105,104
3,40,105,360
3,40,105,360
3,40,105,360
3,40,105,104
3,40,105,104
3,40,105,104
3,40,105,360
3,40,105,360
3,40,105,360
3,40,105,360
3,40,105,360
3,40,105,360
3,40,105,360
3,40,105,360
3,40,105,360
3,40,105,360
3,40,105,360
3,40,105,360
3,40,105,360
3,40,105,360
3,40,105,360
3,40,105,104
3,40,105,104
3,40,105,104
3,40,105,360
3,40,105,360
3,40,105,360
3,40,105,360
3,40,105,360
3,40,105,360
3,40,105,360
3,40,105,104
3,40,105,104
3,40,105,104
3,40,105,360
3,40,105,360
3,40,105,360
3,40,105,360
3,40,105,360
3,40,105,360
3,40,105,360
3,40,105,104
3,40,105,232
3,40,105,360
3,40,105,360
3,40,105,360
3,40,105,360
3,40,105,360
3,40,105,360
3,40,105,360
3,40,105,104
3,40,105,104
3,40,105,104
3,40,105,360
3,40,105,360
3,40,105,360
3,40,105,360
3,40,105,360
3,40,105,360
3,40,105,360
3,40,105,104
3,40,105,104
3,40,105,104
3,40,105,360
3,40,105,360
3,40,105,360
3,40,105,360
3,40,105,360
3,40,105,360
3,40,105,360
3,40,105,360
3,40,105,104
3,40,105,232
3,40,105,360
3,40,105,360
3,40,105,104
3,40,105,104
3,40,105,104
3,40,105,360
3,40,105,360
3,40,105,360
3,40,105,360
3,40,105,360
3,40,105,360
3,40,105,360
3,40,105,104
3,40,105,104
3,40,105,104
3,40,105,360
3,40,105,360
3,40,105,360
3,40,105,360
3,40,105,360
3,40,105,360
3,40,105,360
3,40,105,104
3,40,105,104
3,40,105,104
3,40,105,360
3,40,105,360
3,40,105,360
3,40,105,360
3,40,105,360
3,40,105,360
3,40,105,360
3,40,105,104
3,40,105,232
3,40,105,360
3,40,105,360
3,40,105,360
3,40,105,360
3,40,105,360
3,40,105,360
3,40,105,360
3,40,105,104
3,40,105,104
3,40,105,104
3,40,105,360
3,40,105,360
3,40,105,360
3,40,105,360
3,40,105,360
3,40,105,360
3,40,105,360
3,40,105,104
3,40,105,104
3,40,105,104
3,40,105,360
3,40,105,360
3,40,105,360
3,40,105,104
3,40,105,104
3,40,105,104
3,40,105,360
3,40,105,360
3,40,105,360
3,40,105,104
3,40,105,104
3,40,105,104
3,40,105,360
3,40,105,360
3,40,105,360
3,40,105,360
3,40,105,360
3,40,105,360
3,40,105,360
3,40,105,360
3,40,105,360
3,40,105,360
3,40,105,360
3,40,105,360
3,40,105,360
3,40,105,360
3,40,105,360
3,40,105,104
3,40,105,104
3,40,105,104
3,40,105,360
3,40,105,360
3,40,105,360
3,40,105,360
3,40,105,360
3,40,105,360
3,40,105,360
3,40,105,104
3,40,105,104
3,40,105,104
3,40,105,360
3,40,105,360
3,40,105,360
3,40,105,360
3,40,105,360
3,40,105,360
3,40,105,360
3,40,105,104
3,40,105,616
3,40,105,360
3,40,105,360
3,40,105,360
3,40,105,360
3,40,105,360
3,40,105,360
3,40,105,104
3,40,105,104
3,40,105,104
3,40,105,360
3,40,105,360
3,40,105,360
3,40,105,360
3,40,105,360
3,40,105,360
3,40,105,360
3,40,105,104
3,40,105,104
3,40,105,104
3,40,105,360
3,40,105,360
3,40,105,360
3,40,105,360
3,40,105,360
3,40,105,360
3,40,105,360
3,40,105,360
3,40,105,104
3,40,105,232
3,40,105,360
3,40,105,360
3,40,105,360
3,40,105,360
3,40,105,360
3,40,105,360
3,40,105,360
3,40,105,360
3,40,105,360
3,40,105,360
3,40,105,360
3,40,105,360
3,40,105,360
3,40,105,360
3,40,105,360
3,40,105,360
3,40,105,360
3,40,105,360
3,40,105,360
3,40,105,360
3,40,105,360
3,40,105,360
3,40,105,360
3,40,105,360
3,40,105,360
3,40,105,360
3,40,105,360
3,40,105,360
3,40,105,360
3,40,105,2664
3,40,105,360
3,40,105,360
3,40,105,104
3,40,105,104
3,40,105,104
3,40,105,360
3,40,105,360
3,40,105,360
3,40,105,104
3,40,105,104
3,40,105,104
3,40,105,360
3,40,105,360
3,40,105,360
3,40,105,360
3,40,105,360
3,40,105,360
3,40,105,360
3,40,105,360
3,40,105,360
3,40,105,360
3,40,105,360
3,40,105,360
3,40,105,360
3,40,105,360
3,40,105,360
3,40,105,104
3,40,105,104
3,40,105,104
3,40,105,360
3,40,105,360
3,40,105,360
3,40,105,360
3,40,105,360
3,40,105,360
3,40,105,360
3,40,105,104
3,40,105,104
3,40,105,104
3,40,105,360
3,40,105,360
3,40,105,360
3,40,105,360
3,40,105,360
3,40,105,360
3,40,105,360
3,40,105,104
3,40,105,232
3,40,105,360
3,40,105,360
3,40,105,360
3,40,105,360
3,40,105,360
3,40,105,360
3,40,105,360
3,40,105,104
3,40,105,104
3,40,105,104
3,40,105,360
3,40,105,360
3,40,105,360
3,40,105,360
3,40,105,360
3,40,105,360
3,40,105,360
3,40,105,104
3,40,105,104
3,40,105,104
3,40,105,360
3,40,105,360
3,40,105,360
3,40,105,360
3,40,105,360
3,40,105,360
3,40,105,360
3,40,105,360
3,40,105,104
3,40,105,232
3,40,105,360
3,40,105,360
3,40,105,360
3,40,105,360
3,40,105,360
3,40,105,360
3,40,105,360
3,40,105,104
3,40,105,232
3,40,105,360
3,40,105,360
3,40,105,360
3,40,105,360
3,40,105,360
3,40,105,360
4,59,80,1904
4,59,80,360
4,59,80,360
4,59,80,744
4,59,80,360
4,59,80,360
4,59,80,3816
4,59,80,360
4,59,80,360
4,59,80,744
4,59,80,360
4,59,80,360
4,59,80,5352
4,59,80,39528
4,59,80,1896
4,59,80,39528
4,59,80,1896
4,59,80,24552
4,59,80,360
4,59,80,360
4,59,80,744
4,59,80,360
4,59,80,360
4,59,80,3816
4,59,80,360
4,59,80,360
4,59,80,744
4,59,80,360
4,59,80,360
4,59,80,5352
4,59,80,30306
5,42,60,16748
5,42,60,104
5,42,60,104
5,42,60,104
5,42,60,1128
5,42,60,104
5,42,60,104
5,42,60,104
5,42,60,4200
5,42,60,104
5,42,60,104
5,42,60,104
5,42,60,1128
5,42,60,104
5,42,60,104
5,42,60,104
5,42,60,1128
5,42,60,104
5,42,60,104
5,42,60,104
5,42,60,1128
5,42,60,104
5,42,60,104
5,42,60,104
5,42,60,1128
5,42,60,104
5,42,60,104
5,42,60,104
5,42,60,1128
5,42,60,104
5,42,60,1384
5,42,60,104
5,42,60,104
5,42,60,104
5,42,60,1128
5,42,60,104
5,42,60,104
5,42,60,104
5,42,60,1128
5,42,60,104
5,42,60,104
5,42,60,104
5,42,60,1128
5,42,60,104
5,42,60,104
5,42,60,104
5,42,60,1128
5,42,60,104
