track,note,velocity,time
1,36,99,864
1,36,90,41
1,36,86,41
1,36,90,34
1,36,85,41
1,36,86,39
1,36,86,45
1,36,86,42
1,36,78,49
1,36,86,47
1,36,88,38
1,36,86,43
1,36,83,42
1,36,86,40
1,36,81,33
1,36,86,41
1,36,76,42
1,36,88,42
1,36,90,37
1,36,90,39
1,36,79,35
1,36,88,41
1,36,85,38
1,36,85,46
1,36,85,43
1,36,88,41
1,36,86,42
1,36,88,42
1,36,88,37
1,36,88,41
1,38,93,39
1,40,95,5
1,33,90,17
1,33,81,35
1,33,78,32
1,33,81,27
1,33,88,34
1,36,93,27
1,38,93,4
1,40,93,17
1,33,83,26
1,33,86,37
1,33,88,30
1,33,86,40
1,33,81,49
1,36,83,16
1,38,88,5
1,40,97,19
1,33,90,27
1,33,81,35
1,33,78,32
1,33,81,27
1,33,88,34
1,36,93,20
1,38,93,4
1,40,93,17
1,33,83,26
1,33,86,37
1,33,88,30
1,33,86,40
1,33,81,49
1,36,83,16
1,38,88,5
1,40,97,19
1,29,93,27
1,29,92,291
1,29,92,18
1,29,92,18
1,29,92,18
1,29,92,291
1,29,92,18
1,29,91,18
1,31,91,18
1,31,92,292
1,31,93,18
1,31,91,18
1,31,91,18
1,31,92,292
1,31,92,18
1,31,91,18
1,29,91,18
1,29,92,293
1,29,94,18
1,29,92,18
1,29,93,18
1,29,93,291
1,29,92,18
1,29,92,18
1,31,93,18
1,43,86,293
1,31,94,3
1,31,91,293
1,31,91,18
1,31,92,18
1,36,101,18
1,36,92,41
1,36,88,41
1,36,92,34
1,36,87,41
1,36,88,39
1,36,88,45
1,36,88,42
1,36,80,49
1,36,88,47
1,36,90,38
1,36,88,43
1,36,85,42
1,36,88,40
1,36,83,33
1,36,88,41
1,36,78,42
1,36,90,42
1,36,92,37
1,36,92,39
1,36,81,35
1,36,90,41
1,36,87,38
1,36,87,46
1,36,87,43
1,36,90,41
1,36,88,42
1,36,90,42
1,36,90,37
1,36,90,41
1,38,95,39
1,40,97,5
1,33,92,17
1,33,83,35
1,33,80,32
1,33,83,27
1,33,90,34
1,36,95,27
1,38,95,4
1,40,95,17
1,33,85,26
1,33,88,37
1,33,90,30
1,33,88,40
1,33,83,49
1,36,85,16
1,38,90,5
1,40,99,19
1,33,92,27
1,33,83,35
1,33,80,32
1,33,83,27
1,33,90,34
1,36,95,20
1,38,95,4
1,40,95,17
1,33,85,26
1,33,88,37
1,33,90,30
1,33,88,40
1,33,83,49
1,36,85,16
1,38,90,5
1,40,99,19
1,29,94,27
1,29,93,291
1,29,93,18
1,29,93,18
1,29,93,18
1,29,93,291
1,29,93,18
1,29,92,18
1,31,92,18
1,31,93,292
1,31,94,18
1,31,92,18
1,31,92,18
1,31,93,292
1,31,93,18
1,31,92,18
1,29,92,18
1,29,93,293
1,29,95,18
1,29,93,18
1,29,94,18
1,29,94,291
1,29,93,18
1,29,93,18
1,31,94,18
1,31,81,293
1,43,87,1
1,31,95,3
1,31,92,293
1,31,92,18
1,31,87,18
1,29,102,18
1,29,100,28
1,29,100,30
1,29,95,39
1,29,109,69
1,31,102,24
1,31,100,28
1,31,100,30
1,31,95,39
1,31,109,69
1,29,102,0
1,29,100,28
1,29,100,30
1,29,95,39
1,29,109,69
1,31,102,1
1,31,100,28
1,31,100,30
1,31,95,39
1,31,109,69
1,29,102,24
1,29,86,40
1,29,99,45
1,29,100,26
1,29,97,40
1,29,100,43
1,29,100,43
1,29,100,48
1,31,99,25
1,31,102,43
1,31,100,47
1,31,93,49
1,31,97,47
1,31,99,47
1,31,100,37
1,31,97,39
1,36,106,31
1,35,109,12
1,33,109,12
1,31,109,12
1,33,109,12
1,36,108,12
1,40,109,12
1,29,103,104
1,29,87,40
1,29,100,45
1,29,101,26
1,29,98,40
1,29,101,43
1,29,101,43
1,29,101,48
1,31,100,25
1,31,103,43
1,31,101,47
1,31,94,49
1,31,98,47
1,31,100,47
1,31,101,37
1,31,98,39
1,36,106,31
1,35,109,13
1,33,108,13
1,31,106,13
1,33,109,13
1,36,108,13
1,38,108,13
1,40,104,13
1,29,103,13
1,29,87,40
1,29,100,45
1,29,101,26
1,29,98,40
1,29,101,43
1,29,101,43
1,29,101,48
1,31,100,25
1,31,103,43
1,31,101,47
1,31,94,49
1,31,98,47
1,31,100,47
1,31,101,37
1,31,98,39
1,36,91,31
1,36,91,29
1,40,103,29
1,36,94,14
1,41,96,20
1,42,91,3
1,43,103,3
1,33,103,7
1,33,107,39
1,40,100,23
1,33,98,11
1,45,105,12
1,40,100,4
1,33,96,33
1,29,103,1
1,29,87,40
1,29,100,45
1,29,101,26
1,29,98,40
1,29,101,43
1,29,101,43
1,29,101,48
1,31,100,25
1,31,103,43
1,31,101,47
1,31,94,49
1,31,98,47
1,31,100,47
1,31,101,37
1,31,98,39
1,36,102,31
1,36,93,41
1,36,89,41
1,36,93,34
1,36,88,41
1,36,89,39
1,36,89,45
1,36,89,42
1,36,81,49
1,36,89,47
1,36,91,38
1,36,89,43
1,36,86,42
1,36,89,40
1,36,84,33
1,36,89,41
1,36,79,42
1,36,91,42
1,36,93,37
1,36,93,39
1,36,82,35
1,36,91,41
1,36,88,38
1,36,88,46
1,36,88,43
1,36,91,41
1,36,89,42
1,36,91,42
1,36,91,37
1,36,91,41
1,38,96,39
1,40,98,5
1,33,93,17
1,33,84,35
1,33,81,32
1,33,84,27
1,33,91,34
1,36,96,27
1,38,96,4
1,40,96,17
1,33,86,26
1,33,89,37
1,33,91,30
1,33,89,40
1,33,84,49
1,36,86,16
1,38,91,5
1,40,100,19
1,33,93,27
1,33,84,35
1,33,81,32
1,33,84,27
1,33,91,34
1,36,96,20
1,38,96,4
1,40,96,17
1,33,86,26
1,33,89,37
1,33,91,30
1,33,89,40
1,33,84,49
1,36,86,16
1,38,91,5
1,40,100,19
1,29,96,27
1,29,95,291
1,29,95,18
1,29,95,18
1,29,95,18
1,29,95,291
1,29,95,18
1,29,94,18
1,31,94,18
1,31,95,292
1,31,96,18
1,31,94,18
1,31,94,18
1,31,95,292
1,31,95,18
1,31,94,18
1,29,94,18
1,29,95,293
1,29,97,18
1,29,95,18
1,29,96,18
1,29,96,291
1,29,95,18
1,29,95,18
1,31,96,18
1,31,83,293
1,43,89,18
1,31,97,3
1,31,94,293
1,31,94,18
1,31,89,18
1,29,103,18
1,29,101,28
1,29,101,30
1,29,96,39
1,29,110,69
1,31,103,24
1,31,101,28
1,31,101,30
1,31,96,39
1,31,110,69
1,29,103,0
1,29,101,28
1,29,101,30
1,29,96,39
1,29,110,69
1,31,103,1
1,31,101,28
1,31,101,30
1,31,96,39
1,31,110,69
1,29,103,24
1,29,87,40
1,29,100,45
1,29,101,26
1,29,98,40
1,29,101,43
1,29,101,43
1,29,101,48
1,31,100,25
1,31,103,43
1,31,101,47
1,31,94,49
1,31,98,47
1,31,100,47
1,31,101,37
1,31,98,39
1,34,102,31
1,34,102,31
1,34,101,32
1,34,101,38
1,33,99,41
1,34,94,4
1,34,101,35
1,34,104,36
1,34,102,38
1,34,101,41
1,34,101,40
1,34,102,41
1,33,103,36
1,34,100,4
1,34,102,23
1,34,101,40
1,29,98,21
1,29,98,26
1,29,100,32
1,29,100,27
1,29,101,35
1,29,100,29
1,29,100,29
1,29,98,33
1,29,101,35
1,29,99,38
1,29,102,36
1,29,99,31
1,29,99,29
1,29,100,34
1,29,100,33
1,29,98,36
1,34,102,35
1,34,102,31
1,38,101,32
1,39,101,16
1,41,99,10
1,39,94,4
1,38,101,14
1,34,102,4
1,34,102,31
1,38,101,32
1,39,101,16
1,41,99,10
1,39,94,4
1,38,101,14
1,29,98,4
1,29,98,26
1,29,100,32
1,29,100,27
1,29,101,35
1,29,100,29
1,29,100,29
1,29,98,33
1,29,101,35
1,29,99,38
1,29,102,36
1,29,99,31
1,29,99,29
1,29,100,34
1,29,100,33
1,29,98,36
1,34,102,35
1,34,102,31
1,34,101,32
1,34,101,38
1,33,99,41
1,34,94,4
1,34,101,35
1,34,104,36
1,34,102,38
1,34,101,41
1,34,101,40
1,34,102,41
1,33,103,36
1,34,100,4
1,34,102,23
1,34,101,40
1,29,98,21
1,29,98,26
1,29,100,32
1,29,100,27
1,29,101,35
1,29,100,29
1,29,100,29
1,29,98,33
1,29,101,35
1,29,99,38
1,29,102,36
1,29,99,31
1,29,99,29
1,29,100,34
1,29,100,33
1,29,98,36
1,38,105,35
1,38,89,40
1,38,102,45
1,38,103,26
1,38,100,40
1,38,103,43
1,38,103,43
1,38,103,48
1,38,102,25
1,38,105,43
1,38,103,47
1,38,96,49
1,38,100,47
1,38,102,47
1,38,103,37
1,38,100,39
1,31,105,31
1,31,89,40
1,31,102,45
1,31,103,26
1,31,100,40
1,31,103,43
1,31,103,43
1,31,103,48
1,31,102,25
1,31,105,43
1,31,103,47
1,31,96,49
1,31,100,47
1,31,102,47
1,31,103,37
1,31,100,39
1,36,110,31
1,35,113,12
1,33,113,12
1,31,113,12
1,33,113,12
1,36,112,12
1,40,113,12
1,45,112,12
1,29,107,12
1,29,104,19
1,29,105,26
1,29,102,40
1,29,105,43
1,29,105,43
1,29,105,48
1,31,104,25
1,31,107,43
1,31,105,47
1,31,98,49
1,31,102,47
1,31,104,47
1,31,105,37
1,31,102,39
1,36,110,31
1,38,113,13
1,40,112,13
1,43,110,13
1,33,113,13
1,36,112,13
1,40,112,13
1,45,108,13
1,29,107,13
1,29,91,40
1,29,104,45
1,29,105,26
1,29,102,40
1,29,105,43
1,29,105,43
1,29,105,48
1,31,104,25
1,31,107,43
1,31,105,47
1,31,98,49
1,31,102,47
1,31,104,47
1,31,105,37
1,31,102,39
1,36,95,31
1,36,95,29
1,40,107,29
1,36,98,14
1,41,100,20
1,36,95,3
1,43,107,3
1,33,107,7
1,33,111,39
1,40,104,23
1,33,102,11
1,45,109,12
1,40,104,4
1,33,100,33
1,29,107,1
1,29,91,40
1,29,104,45
1,29,105,26
1,29,102,40
1,29,105,43
1,29,105,43
1,29,105,48
1,31,104,25
1,31,107,43
1,31,105,47
1,31,98,49
1,31,102,47
1,31,104,47
1,31,105,37
1,31,102,39
1,40,107,31
1,40,91,40
1,40,104,45
1,40,105,26
1,40,102,40
1,40,105,43
1,40,105,43
1,40,105,48
1,33,104,25
1,33,107,43
1,33,105,47
1,33,98,49
1,33,102,47
1,33,104,47
1,33,105,37
1,33,102,39
1,29,107,31
1,29,104,19
1,29,105,26
1,29,102,40
1,29,105,43
1,29,105,43
1,29,105,48
1,31,104,25
1,31,107,43
1,31,105,47
1,31,98,49
1,31,102,47
1,31,104,47
1,31,105,37
1,31,102,39
1,36,110,31
1,35,113,12
1,33,113,12
1,31,113,12
1,33,113,12
1,36,112,12
1,40,113,12
1,45,112,12
1,29,107,12
1,29,104,19
1,29,105,26
1,29,102,40
1,29,105,43
1,29,105,43
1,29,105,48
1,31,104,25
1,31,107,43
1,31,105,47
1,31,98,49
1,31,102,47
1,31,104,47
1,31,105,37
1,31,102,39
1,36,95,31
1,36,95,29
1,40,107,29
1,36,98,14
1,41,100,20
1,36,95,3
1,43,107,3
1,33,107,7
1,33,111,39
1,40,104,23
1,33,102,11
1,45,109,12
1,40,104,4
1,33,100,33
1,29,107,1
1,29,91,40
1,29,104,45
1,29,105,26
1,29,102,40
1,29,105,43
1,29,105,43
1,29,105,48
1,31,104,25
1,31,107,43
1,31,105,47
1,31,98,49
1,31,102,47
1,31,104,47
1,31,105,37
1,31,102,39
1,36,112,31
1,35,115,12
1,33,115,12
1,31,115,12
1,33,115,12
1,36,114,12
1,40,115,12
1,45,114,12
1,29,109,12
1,29,106,19
1,29,107,26
1,29,104,40
1,29,107,43
1,29,107,43
1,29,107,48
1,31,106,25
1,31,109,43
1,31,107,47
1,31,100,49
1,31,104,47
1,31,106,47
1,31,107,37
1,31,104,39
1,36,97,31
1,36,97,29
1,40,109,29
1,36,100,14
1,41,102,20
1,36,97,3
1,43,109,3
1,33,109,7
1,33,113,39
1,40,106,23
1,33,104,11
1,45,111,12
1,40,106,4
1,33,102,33
1,29,109,1
1,29,93,40
1,29,106,45
1,29,107,26
1,29,104,40
1,29,107,43
1,29,107,43
1,29,107,48
1,31,106,25
1,31,109,43
1,31,107,47
1,31,100,49
1,31,104,47
1,31,106,47
1,31,107,37
1,31,104,39
1,36,113,31
1,35,116,12
1,33,116,12
1,31,116,12
1,33,116,12
1,36,115,12
1,40,116,12
1,45,115,12
1,29,110,12
1,29,107,19
1,29,108,26
1,29,105,40
1,29,108,43
1,29,108,43
1,29,108,48
1,31,107,25
1,31,110,43
1,31,108,47
1,31,101,49
1,31,105,47
1,31,107,47
1,31,108,37
1,31,105,39
1,36,98,31
1,36,98,29
1,40,110,29
1,36,101,14
1,41,103,20
1,36,98,3
1,43,110,3
1,33,110,7
1,33,114,39
1,40,107,23
1,33,105,11
1,45,112,12
1,40,107,4
1,33,103,33
1,29,110,1
1,29,94,40
1,29,107,45
1,29,108,26
1,29,105,40
1,29,108,43
1,29,108,43
1,29,108,48
1,31,107,25
1,31,110,43
1,31,108,47
1,31,101,49
1,31,105,47
1,31,107,47
1,31,108,37
1,31,105,39
1,36,114,31
1,35,117,12
1,33,117,12
1,31,117,12
1,33,117,12
1,36,116,12
1,40,117,12
1,45,116,12
1,29,111,12
1,29,108,19
1,29,109,26
1,29,106,40
1,29,109,43
1,29,109,43
1,29,109,48
1,31,108,25
1,31,111,43
1,31,109,47
1,31,102,49
1,31,106,47
1,31,108,47
1,31,109,37
1,31,106,39
1,36,99,31
1,36,99,29
1,40,111,29
1,36,102,14
1,41,104,20
1,36,99,3
1,43,111,3
1,33,111,7
1,33,115,39
1,40,108,23
1,33,106,11
1,45,113,12
1,40,108,4
1,33,104,33
1,29,111,1
1,29,95,40
1,29,108,45
1,29,109,26
1,29,106,40
1,29,109,43
1,29,109,43
1,29,109,48
1,31,108,25
1,31,111,43
1,31,109,47
1,31,102,49
1,31,106,47
1,31,108,47
1,31,109,37
1,31,106,39
1,36,115,31
1,35,118,12
1,33,118,12
1,31,118,12
1,33,118,12
1,36,117,12
1,40,118,12
1,45,117,12
1,29,112,12
1,29,109,19
1,29,110,26
1,29,107,40
1,29,110,43
1,29,110,43
1,29,110,48
1,31,109,25
1,31,112,43
1,31,110,47
1,31,103,49
1,31,107,47
1,31,109,47
1,31,110,37
1,31,107,39
1,36,100,31
1,36,100,29
1,40,112,29
1,36,103,14
1,41,105,20
1,36,100,3
1,43,112,3
1,33,112,7
1,33,116,39
1,40,109,23
1,33,107,11
1,45,114,12
1,40,109,4
1,33,105,33
1,29,112,1
1,29,96,40
1,29,109,45
1,29,110,26
1,29,107,40
1,29,110,43
1,29,110,43
1,29,110,48
1,31,109,25
1,31,112,43
1,31,110,47
1,31,103,49
1,31,107,47
1,31,109,47
1,31,110,37
1,31,107,39
1,36,109,31
2,43,80,557
2,50,104,106
2,43,0,1
2,43,104,1
2,55,100,0
2,50,0,6
2,43,0,2
2,55,0,0
2,55,87,0
2,48,87,3
2,55,0,144
2,48,0,13
2,48,87,32
2,55,88,0
2,60,88,3
2,55,0,221
2,48,0,4
2,60,0,20
2,48,88,40
2,55,87,1
2,60,87,0
2,48,0,113
2,55,0,3
2,60,0,21
2,60,87,53
2,48,87,2
2,55,87,2
2,60,0,236
2,55,0,4
2,48,0,5
2,48,87,39
2,60,87,1
2,55,87,2
2,48,0,222
2,55,0,2
2,60,0,46
2,60,87,17
2,55,87,1
2,48,87,1
2,48,0,118
2,55,0,1
2,60,0,31
2,48,87,39
2,55,86,3
2,60,86,0
2,48,0,243
2,55,0,1
2,60,0,0
2,55,88,40
2,48,88,1
2,60,88,2
2,48,0,236
2,55,0,0
2,60,0,3
2,60,87,47
2,55,87,1
2,48,87,2
2,48,0,155
2,60,0,2
2,55,0,1
2,48,87,30
2,60,88,2
2,55,88,2
2,60,0,230
2,48,0,1
2,55,0,1
2,48,87,54
