track,note,velocity,time
1,55,97,282
1,60,115,16
1,24,76,16
1,36,127,0
1,64,121,0
1,42,64,0
1,35,96,0
1,48,80,94
1,44,89,0
1,36,64,2
1,42,56,0
1,37,92,0
1,48,87,2
1,44,89,0
1,36,54,2
1,42,53,0
1,48,106,2
1,44,89,0
1,42,61,7
1,37,95,0
1,64,64,36
1,55,64,0
1,60,64,0
1,65,115,2
1,57,109,0
1,60,109,0
1,48,62,0
1,44,89,0
1,24,42,16
1,24,76,2
1,36,97,0
1,60,120,0
1,57,120,0
1,65,120,0
1,42,64,0
1,35,96,0
1,55,94,2
1,64,94,0
1,60,94,0
1,48,73,48
1,44,89,0
1,42,56,94
1,37,95,0
1,48,90,2
1,44,89,0
1,42,53,94
1,35,96,0
1,55,66,18
1,60,66,0
1,64,66,0
1,48,73,26
1,44,89,0
1,57,97,18
1,60,109,16
1,65,121,16
1,42,61,0
1,37,91,0
1,60,98,2
1,57,92,0
1,65,98,0
1,44,89,0
1,48,78,0
1,55,109,0
1,64,115,0
1,60,115,0
1,24,42,16
1,67,121,16
1,24,76,8
1,36,127,0
1,42,64,0
1,35,96,0
1,48,72,40
1,44,89,0
1,42,56,94
1,37,93,0
1,36,95,2
1,44,89,0
1,42,53,94
1,35,96,0
1,48,68,94
1,44,89,0
1,42,61,94
1,37,94,0
1,55,73,2
1,60,73,0
1,64,73,0
1,60,32,18
1,48,62,0
1,57,115,0
1,65,104,0
1,44,89,0
1,24,42,14
1,57,94,0
1,60,106,2
1,72,106,0
1,24,76,8
1,36,86,0
1,65,127,0
1,42,64,0
1,35,96,0
1,55,98,2
1,64,86,0
1,48,70,48
1,44,89,0
1,60,115,2
1,55,115,0
1,64,115,0
1,42,56,48
1,37,89,0
1,48,60,64
1,44,89,0
1,42,53,94
1,35,96,0
1,64,115,11
1,60,121,0
1,55,109,0
1,48,62,40
1,44,86,0
1,57,97,11
1,60,109,16
1,65,116,16
1,42,79,0
1,37,94,0
1,42,90,26
1,48,62,22
1,60,92,0
1,57,104,0
1,65,109,0
1,46,82,0
1,55,115,0
1,64,127,0
1,60,115,0
1,24,42,16
1,84,94,2
1,24,85,8
1,36,107,0
1,42,64,0
1,35,96,0
1,44,89,39
1,42,56,76
1,37,95,0
1,48,70,22
1,67,101,16
1,64,115,32
1,67,115,0
1,60,98,0
1,44,89,0
1,67,91,2
1,67,92,1
1,62,98,0
1,64,92,0
1,59,70,0
1,24,37,16
1,28,80,2
1,67,121,0
1,40,103,0
1,42,53,0
1,35,96,0
1,67,106,2
1,44,89,0
1,52,66,2
1,42,61,0
1,37,97,0
1,55,103,46
1,28,55,24
1,62,82,0
1,44,89,0
1,29,85,3
1,41,107,0
1,65,107,0
1,60,107,0
1,57,107,0
1,42,64,0
1,35,96,0
1,44,89,76
1,53,60,94
1,42,56,0
1,37,93,0
1,65,122,12
1,69,72,0
1,60,74,0
1,65,74,0
1,44,89,0
1,65,104,2
1,67,109,8
1,64,109,0
1,60,109,0
1,29,40,16
1,31,75,2
1,64,109,0
1,43,89,0
1,42,53,0
1,35,96,0
1,48,58,2
1,44,89,0
1,55,60,22
1,64,60,0
1,60,60,0
1,42,61,0
1,37,88,0
1,55,106,1
1,48,106,0
1,31,45,24
1,60,86,0
1,44,89,0
1,24,85,8
1,64,109,0
1,60,109,0
1,55,103,0
1,36,86,0
1,42,64,0
1,35,96,0
1,48,46,80
1,44,89,0
1,55,70,6
1,42,56,0
1,37,93,0
1,48,80,2
1,67,127,3
1,55,70,32
1,64,70,0
1,60,70,0
1,44,89,0
1,67,110,3
1,67,109,8
1,40,109,0
1,62,109,0
1,59,109,0
1,24,34,4
1,28,77,8
1,67,119,0
1,42,53,0
1,35,96,0
1,67,106,2
1,52,70,0
1,44,89,0
1,42,61,2
1,37,95,0
1,64,77,46
1,55,77,0
1,59,77,0
1,28,42,23
1,44,89,0
1,29,85,8
1,60,103,0
1,57,109,0
1,41,80,0
1,65,98,0
1,42,64,0
1,35,96,0
1,53,58,80
1,44,89,0
1,57,85,11
1,65,85,0
1,60,85,0
1,42,56,0
1,37,96,0
1,65,116,62
1,53,70,3
1,44,89,0
1,65,96,0
1,55,98,8
1,64,92,0
1,60,98,0
1,29,36,8
1,24,75,2
1,64,116,0
1,36,97,0
1,42,53,0
1,35,96,0
1,48,64,2
1,44,86,0
1,55,115,15
1,64,121,0
1,42,79,0
1,37,94,0
1,48,70,46
1,42,90,2
1,31,69,0
1,55,72,0
1,62,103,0
1,46,82,0
1,52,113,0
1,57,113,0
1,60,113,0
1,33,85,16
1,45,98,0
1,42,64,0
1,35,96,0
1,52,68,30
1,44,89,0
1,57,72,7
1,60,72,0
1,42,56,0
1,37,90,0
1,60,110,46
1,52,109,0
1,60,104,2
1,60,98,0
1,57,80,0
1,44,89,0
1,59,126,2
1,62,109,0
1,59,86,0
1,55,103,0
1,33,36,12
1,28,71,8
1,40,107,0
1,42,53,0
1,35,96,0
1,55,106,2
1,52,58,48
1,44,89,0
1,59,64,15
1,55,66,0
1,62,72,0
1,42,61,0
1,37,94,0
1,52,80,0
1,28,50,2
1,28,74,8
1,55,60,0
1,44,89,0
1,59,23,0
1,29,85,12
1,64,112,0
1,60,112,0
1,57,112,0
1,41,112,0
1,42,64,0
1,35,96,0
1,53,62,84
1,44,89,0
1,64,92,10
1,60,98,0
1,57,103,0
1,42,56,0
1,37,94,0
1,29,42,16
1,57,116,0
1,29,69,8
1,53,56,0
1,44,89,0
1,55,90,2
1,67,103,0
1,43,72,0
1,55,103,0
1,64,109,0
1,60,115,0
1,31,75,25
1,55,113,0
1,42,53,0
1,35,96,0
1,44,89,94
1,55,103,33
1,42,61,0
1,37,90,0
1,31,57,4
1,60,84,0
1,44,89,0
1,24,85,12
1,64,109,0
1,60,109,0
1,55,92,0
1,36,86,0
1,42,64,0
1,35,96,0
1,48,56,80
1,44,89,0
1,55,66,8
1,64,68,0
1,60,72,0
1,42,56,0
1,37,97,0
1,48,74,0
1,24,42,4
1,67,116,0
1,24,69,8
1,55,80,0
1,64,10,0
1,44,89,0
1,67,96,2
1,67,105,0
1,40,105,0
1,64,105,0
1,62,105,0
1,59,105,0
1,28,80,2
1,67,118,0
1,42,53,0
1,35,96,0
1,67,96,2
1,52,58,0
1,44,89,0
1,59,79,4
1,55,79,0
1,64,79,0
1,62,79,0
1,42,61,0
1,37,97,0
1,28,42,0
1,28,62,4
1,52,80,0
1,44,89,0
1,29,85,3
1,65,96,0
1,53,96,0
1,60,96,0
1,57,96,0
1,41,96,0
1,42,64,0
1,35,96,0
1,65,104,72
1,48,54,0
1,44,89,0
1,29,49,16
1,31,73,2
1,64,84,0
1,65,107,0
1,59,107,0
1,55,107,0
1,43,107,0
1,42,56,0
1,37,90,0
1,50,64,3
1,44,89,0
1,60,104,2
1,60,98,0
1,55,103,0
1,64,86,0
1,24,85,0
1,36,80,0
1,42,53,0
1,35,96,0
1,48,68,2
1,44,86,0
1,55,109,17
1,42,79,0
1,37,95,0
1,64,102,3
1,42,90,24
1,48,64,22
1,46,82,0
1,67,100,82
1,64,100,0
1,24,93,0
1,64,108,0
1,67,108,0
1,60,108,0
1,48,108,0
1,36,108,0
1,42,64,0
1,35,96,0
1,44,89,72
1,42,56,94
1,37,96,0
1,48,71,44
1,67,101,0
1,64,116,22
1,67,116,0
1,60,99,0
1,44,89,0
1,67,91,2
1,67,93,1
1,62,99,0
1,64,93,0
1,59,71,0
1,24,45,16
1,28,88,2
1,67,121,0
1,40,95,0
1,42,53,0
1,35,96,0
1,67,106,2
1,44,89,0
1,52,67,2
1,42,61,0
1,37,88,0
1,55,93,46
1,28,63,24
1,62,99,0
1,44,89,0
1,65,100,1
1,60,100,0
1,29,93,3
1,41,108,0
1,65,108,0
1,60,108,0
1,57,108,0
1,42,64,0
1,35,96,0
1,44,89,76
1,55,99,46
1,65,122,2
1,53,61,0
1,42,56,0
1,37,91,0
1,65,123,0
1,69,73,0
1,60,75,0
1,65,75,0
1,44,89,0
1,64,104,2
1,67,110,0
1,64,110,0
1,60,110,0
1,29,48,16
1,64,100,3
1,31,83,8
1,43,90,0
1,42,53,0
1,35,96,0
1,48,59,50
1,44,89,0
1,55,84,22
1,64,84,0
1,60,84,0
1,42,61,0
1,37,89,0
1,55,82,1
1,48,82,0
1,31,53,24
1,57,108,0
1,65,108,0
1,60,108,0
1,44,89,0
1,67,100,3
1,24,93,2
1,55,104,0
1,60,110,0
1,64,110,0
1,36,87,0
1,42,64,0
1,35,96,0
1,48,47,80
1,44,89,0
1,55,71,6
1,42,56,0
1,37,88,0
1,48,81,2
1,67,127,3
1,55,71,32
1,64,71,0
1,60,71,0
1,44,89,0
1,67,110,3
1,67,110,8
1,40,110,0
1,62,110,0
1,59,110,0
1,24,42,4
1,28,85,8
1,67,116,0
1,42,53,0
1,35,96,0
1,67,106,2
1,52,71,0
1,44,89,0
1,42,61,2
1,37,93,0
1,52,95,46
1,55,95,0
1,59,95,0
1,28,50,23
1,44,89,0
1,60,100,3
1,65,100,0
1,29,93,8
1,60,104,0
1,57,110,0
1,41,81,0
1,65,99,0
1,42,64,0
1,35,96,0
1,53,59,80
1,44,89,0
1,65,121,11
1,57,86,0
1,65,86,0
1,60,86,0
1,42,56,0
1,37,96,0
1,65,96,2
1,53,71,0
1,44,89,0
1,64,116,2
1,55,99,0
1,64,93,0
1,60,99,0
1,29,44,8
1,64,100,3
1,24,83,8
1,36,98,0
1,42,53,0
1,35,96,0
1,48,65,50
1,44,86,0
1,24,50,16
1,36,91,8
1,55,116,0
1,64,122,0
1,42,79,0
1,37,88,0
1,48,71,0
1,42,90,2
1,35,79,22
1,55,73,0
1,62,104,0
1,46,82,0
1,35,71,0
1,52,113,0
1,57,113,0
1,60,113,0
1,33,93,32
1,45,99,0
1,42,64,0
1,35,96,0
1,52,69,46
1,44,89,0
1,57,73,7
1,60,73,0
1,42,56,0
1,37,89,0
1,60,110,46
1,52,110,0
1,60,104,2
1,60,99,0
1,57,81,0
1,44,89,0
1,59,126,2
1,62,110,0
1,59,87,0
1,55,104,0
1,33,44,12
1,59,100,3
1,28,79,8
1,40,108,0
1,42,53,0
1,35,96,0
1,55,106,2
1,52,59,48
1,44,89,0
1,59,65,15
1,55,67,0
1,62,73,0
1,42,61,0
1,37,89,0
1,52,81,0
1,28,58,2
1,28,82,8
1,55,61,0
1,44,89,0
1,59,24,0
1,35,50,16
1,60,100,3
1,65,100,0
1,29,93,12
1,64,113,0
1,60,113,0
1,57,113,0
1,41,113,0
1,42,64,0
1,35,96,0
1,53,63,84
1,44,89,0
1,64,93,10
1,60,99,0
1,57,104,0
1,42,56,0
1,37,95,0
1,29,50,16
1,57,126,0
1,29,77,8
1,53,57,0
1,44,89,0
1,55,96,2
1,67,104,0
1,43,73,0
1,55,104,0
1,64,110,0
1,60,116,0
1,67,100,3
1,31,83,12
1,55,118,0
1,42,53,0
1,35,96,0
1,48,121,0
1,64,121,0
1,60,115,0
1,55,98,0
1,44,89,0
1,61,91,3
1,62,115,0
1,50,115,0
1,65,109,0
1,57,104,0
1,42,61,0
1,37,92,0
1,31,65,24
1,62,98,0
1,50,80,0
1,57,98,0
1,65,104,0
1,44,89,0
1,48,115,0
1,64,109,0
1,55,98,0
1,60,109,0
1,64,100,3
1,24,93,12
1,36,87,0
1,42,64,0
1,35,96,0
1,44,89,2
1,55,67,22
1,64,69,0
1,60,73,0
1,42,56,0
1,37,89,0
1,48,75,0
1,24,50,4
1,67,116,0
1,24,77,8
1,55,81,0
1,64,11,0
1,44,89,0
1,67,96,2
1,67,106,0
1,40,106,0
1,64,106,0
1,62,106,0
1,59,106,0
1,28,88,2
1,67,118,0
1,42,53,0
1,35,96,0
1,67,96,2
1,52,59,0
1,44,89,0
1,59,63,4
1,55,67,0
1,64,65,0
1,62,71,0
1,42,61,0
1,37,97,0
1,28,50,16
1,28,70,4
1,52,81,0
1,44,89,0
1,35,42,16
1,60,100,3
1,65,100,0
1,29,93,3
1,65,104,0
1,65,115,0
1,53,115,0
1,60,115,0
1,57,115,0
1,41,115,0
1,42,64,0
1,35,96,0
1,48,55,72
1,44,89,0
1,29,57,16
1,31,81,2
1,64,84,0
1,67,108,0
1,59,108,0
1,55,108,0
1,43,108,0
1,42,56,0
1,37,89,0
1,50,65,3
1,44,89,0
1,60,104,2
1,60,99,0
1,55,104,0
1,64,87,0
1,64,100,3
1,24,93,0
1,36,81,0
1,42,53,0
1,35,96,0
1,48,69,2
1,44,86,0
1,55,110,17
1,42,79,0
1,37,90,0
1,64,103,3
1,42,90,0
1,24,72,22
1,48,65,0
1,46,82,0
1,35,47,0
1,67,100,3
1,64,100,0
1,24,101,3
1,64,108,0
1,67,108,0
1,60,108,0
1,48,108,0
1,36,108,0
1,42,64,0
1,35,96,0
1,67,127,40
1,44,89,32
1,67,104,2
1,67,123,2
1,42,56,0
1,37,93,0
1,48,71,44
1,67,101,0
1,64,116,22
1,67,116,0
1,60,99,0
1,44,89,0
1,67,91,2
1,67,93,1
1,62,99,0
1,64,93,0
1,59,71,0
1,24,53,16
1,28,96,2
1,67,121,0
1,40,95,0
1,42,53,0
1,35,96,0
1,67,106,2
1,44,89,0
1,52,67,2
1,42,61,0
1,37,95,0
1,55,93,46
1,28,71,24
1,62,99,0
1,44,89,0
1,35,50,3
1,65,100,1
1,60,100,0
1,29,101,3
1,41,108,0
1,65,108,0
1,60,108,0
1,57,108,0
1,42,64,0
1,35,96,0
1,65,121,44
1,44,89,32
1,65,96,2
1,65,122,2
1,53,61,0
1,42,56,0
1,37,94,0
1,65,106,2
1,69,73,0
1,60,75,0
1,65,75,0
1,44,89,0
1,65,91,2
1,67,110,8
1,64,110,0
1,60,110,0
1,29,56,16
1,64,100,3
1,31,91,2
1,64,104,0
1,43,90,0
1,42,53,0
1,35,96,0
1,48,59,94
1,44,89,0
1,55,84,22
1,64,84,0
1,60,84,0
1,42,61,0
1,37,91,0
1,67,90,38
1,55,72,2
1,55,82,1
1,48,82,0
1,69,101,2
1,57,96,4
1,31,61,4
1,57,108,0
1,65,108,0
1,60,108,0
1,44,89,0
1,67,100,2
1,72,87,2
1,57,90,4
1,24,101,2
1,55,104,0
1,60,110,0
1,64,110,0
1,36,87,0
1,42,64,0
1,35,96,0
1,67,127,46
1,55,113,0
1,48,47,4
1,44,89,0
1,67,104,2
1,67,123,2
1,55,71,0
1,42,56,0
1,37,91,0
1,48,81,2
1,67,101,2
1,55,71,32
1,64,71,0
1,60,71,0
1,44,89,0
1,67,91,2
1,67,110,8
1,40,110,0
1,62,110,0
1,59,110,0
1,24,50,4
1,28,93,2
1,67,121,0
1,42,53,0
1,35,96,0
1,67,106,2
1,52,71,0
1,44,89,0
1,42,61,2
1,37,88,0
1,52,95,46
1,55,95,0
1,59,95,0
1,28,58,23
1,44,89,0
1,35,42,14
1,60,100,3
1,65,100,0
1,69,92,2
1,29,101,8
1,60,104,0
1,57,110,0
1,41,81,0
1,65,99,0
1,42,64,0
1,35,96,0
1,65,121,12
1,53,59,32
1,44,89,0
1,65,96,2
1,67,89,3
1,65,122,2
1,57,86,0
1,65,86,0
1,60,86,0
1,42,56,0
1,37,95,0
1,65,106,2
1,53,71,3
1,44,89,0
1,64,91,0
1,63,88,1
1,55,99,8
1,64,93,0
1,60,99,0
1,29,52,8
1,64,100,3
1,24,91,2
1,64,104,0
1,36,98,0
1,42,53,0
1,35,96,0
1,62,94,7
1,60,70,4
1,48,65,8
1,44,86,0
1,24,58,16
1,36,99,8
1,55,116,0
1,64,122,0
1,42,79,0
1,37,90,0
1,48,71,0
1,42,90,2
1,35,87,22
1,55,73,0
1,62,104,0
1,46,82,0
1,35,47,0
1,52,113,0
1,57,113,0
1,60,113,0
1,55,113,28
1,33,101,4
1,45,99,0
1,42,64,0
1,35,96,0
1,60,127,14
1,52,69,32
1,44,89,0
1,60,104,1
1,60,123,2
1,57,73,0
