track,note,velocity,time
0,57,113,427
0,57,0,112
0,52,67,248
0,52,0,112
0,60,104,8
0,60,0,112
0,52,47,248
0,52,0,112
0,56,96,8
0,59,104,0
0,56,0,112
0,59,0,0
0,52,73,248
0,52,0,112
0,56,96,8
0,62,102,0
0,56,0,112
0,62,0,0
0,52,61,248
0,52,0,112
0,57,102,8
0,57,0,112
0,52,92,248
0,52,0,112
0,52,94,8
0,60,107,0
0,52,0,112
0,60,0,0
0,52,58,248
0,52,0,112
0,59,102,8
0,59,0,112
0,52,74,248
0,52,0,112
0,56,100,8
0,62,89,0
0,56,0,112
0,62,0,0
0,33,119,128
0,52,71,120
0,52,0,112
0,81,123,3
0,57,104,5
0,63,123,0
0,70,72,0
0,82,45,0
0,63,0,7
0,70,0,0
0,82,0,0
0,57,0,105
0,57,50,8
0,60,79,0
0,64,82,0
0,60,59,0
0,60,0,7
0,57,0,38
0,60,0,17
0,33,0,13
0,57,56,45
0,60,65,0
0,61,66,0
0,62,123,0
0,70,58,0
0,82,59,0
0,61,0,7
0,62,0,0
0,70,0,0
0,82,0,0
0,57,0,80
0,60,0,15
0,41,122,18
0,52,66,0
0,69,68,0
0,64,0,0
0,69,0,7
0,41,0,90
0,52,0,15
0,40,92,2
0,52,109,0
0,60,102,0
0,70,85,0
0,82,57,0
0,70,0,7
0,82,0,0
0,52,0,69
0,60,0,0
0,57,54,8
0,60,67,0
0,64,68,0
0,60,66,0
0,62,96,0
0,40,0,7
0,60,0,0
0,62,0,0
0,64,0,58
0,60,0,5
0,57,0,2
0,35,104,48
0,61,80,0
0,63,121,0
0,70,58,0
0,82,57,0
0,61,0,7
0,63,0,0
0,70,0,0
0,82,0,0
0,52,59,113
0,63,123,0
0,69,71,0
0,63,0,7
0,69,0,0
0,52,0,105
0,56,59,8
0,59,94,0
0,70,78,0
0,82,59,0
0,70,0,7
0,82,0,0
0,81,0,93
0,56,0,12
0,59,0,0
0,56,58,8
0,59,65,0
0,64,85,0
0,62,81,0
0,62,0,7
0,59,0,30
0,56,0,18
0,64,0,22
0,56,49,34
0,59,79,0
0,64,94,0
0,60,79,0
0,62,123,0
0,70,67,0
0,82,49,0
0,60,0,7
0,62,0,0
0,70,0,0
0,82,0,0
0,35,0,23
0,59,0,37
0,56,0,5
0,64,0,10
0,41,109,38
0,52,58,0
0,64,123,0
0,69,76,0
0,64,0,7
0,69,0,0
0,41,0,85
0,52,0,20
0,40,92,8
0,56,78,0
0,62,94,0
0,64,119,0
0,70,72,0
0,82,72,0
0,64,0,7
0,70,0,0
0,82,0,0
0,56,0,105
0,62,0,0
0,56,44,8
0,59,61,0
0,64,82,0
0,60,71,0
0,62,99,0
0,60,0,7
0,62,0,0
0,40,0,8
0,59,0,70
0,56,0,5
0,40,85,30
0,61,75,0
0,63,103,0
0,70,69,0
0,82,66,0
0,61,0,7
0,63,0,0
0,70,0,0
0,82,0,0
0,64,0,8
0,52,66,105
0,63,123,0
0,69,76,0
0,63,0,7
0,69,0,0
0,40,0,78
0,52,0,27
0,33,104,8
0,57,87,0
0,70,78,0
0,82,72,0
0,70,0,7
0,82,0,0
0,57,0,105
0,57,52,8
0,60,76,0
0,64,82,0
0,60,51,0
0,62,89,0
0,60,0,7
0,62,0,0
0,57,0,50
0,60,0,3
0,64,0,12
0,33,0,38
0,57,44,10
0,60,69,0
0,64,73,0
0,60,66,0
0,62,123,0
0,70,41,0
0,82,67,0
0,60,0,7
0,62,0,0
0,70,0,0
0,82,0,0
0,57,0,78
0,60,0,17
0,41,99,18
0,52,61,0
0,69,79,0
0,69,0,7
0,64,0,28
0,41,0,72
0,52,0,5
0,40,94,8
0,52,107,0
0,60,99,0
0,70,75,0
0,82,51,0
0,70,0,7
0,82,0,0
0,52,0,105
0,60,0,0
0,57,47,8
0,60,81,0
0,64,73,0
0,60,65,0
0,62,85,0
0,60,0,7
0,62,0,0
0,40,0,30
0,57,0,38
0,60,0,12
0,64,0,23
0,35,99,10
0,61,69,0
0,63,118,0
0,70,67,0
0,82,47,0
0,61,0,7
0,63,0,0
0,70,0,0
0,82,0,0
0,52,56,113
0,63,123,0
0,69,71,0
0,63,0,7
0,69,0,0
0,52,0,105
0,56,85,8
0,59,92,0
0,70,80,0
0,82,47,0
0,70,0,7
0,82,0,0
0,56,0,105
0,59,0,0
0,56,27,8
0,59,46,0
0,64,79,0
0,62,107,0
0,62,0,7
0,59,0,10
0,56,0,28
0,64,0,2
0,56,62,73
0,59,85,0
0,64,87,0
0,60,73,0
0,62,123,0
0,70,62,0
0,82,51,0
0,60,0,7
0,62,0,0
0,70,0,0
0,82,0,0
0,35,0,10
0,59,0,40
0,56,0,8
0,64,0,15
0,41,104,40
0,52,78,0
0,64,116,0
0,69,73,0
0,64,0,7
0,69,0,0
0,41,0,85
0,52,0,20
0,40,82,8
0,56,83,0
0,62,89,0
0,64,119,0
0,70,88,0
0,82,56,0
0,64,0,7
0,70,0,0
0,82,0,0
0,56,0,105
0,62,0,0
0,56,52,8
0,59,73,0
0,64,102,0
0,60,61,0
0,62,99,0
0,60,0,7
0,62,0,0
0,40,0,38
0,56,0,10
0,59,0,7
0,68,111,35
0,65,123,5
0,65,0,7
0,40,113,11
0,69,107,0
0,61,67,0
0,63,107,0
0,70,57,0
0,82,71,0
0,61,0,7
0,63,0,0
0,70,0,0
0,82,0,0
0,68,0,10
0,64,0,5
0,69,0,60
0,69,38,28
0,52,68,10
0,63,123,0
0,69,73,0
0,63,0,7
0,69,0,0
0,69,0,30
0,40,0,23
0,52,0,52
0,69,116,3
0,33,109,5
0,57,113,0
0,70,88,0
0,82,44,0
0,70,0,7
0,82,0,0
0,57,0,105
0,57,40,8
0,64,68,0
0,60,60,0
0,62,99,0
0,60,0,7
0,62,0,0
0,57,0,30
0,64,0,25
0,57,59,58
0,60,92,0
0,64,82,0
0,60,69,0
0,62,123,0
0,70,67,0
0,82,61,0
0,60,0,7
0,62,0,0
0,70,0,0
0,82,0,0
0,33,0,23
0,57,0,67
0,60,0,10
0,41,87,13
0,52,67,0
0,69,68,0
0,69,0,7
0,64,0,15
0,41,0,70
0,52,0,20
0,40,92,8
0,60,104,0
0,70,83,0
0,82,57,0
0,70,0,7
0,82,0,0
0,60,0,41
0,57,52,8
0,60,67,0
0,64,65,0
0,60,56,0
0,62,92,0
0,60,0,7
0,62,0,0
0,40,0,15
0,57,0,78
0,60,0,7
0,64,0,8
0,35,113,5
0,61,62,0
0,63,103,0
0,70,69,0
0,82,55,0
0,61,0,7
0,63,0,0
0,70,0,0
0,82,0,0
0,52,47,113
0,63,123,0
0,69,54,0
0,63,0,7
0,69,0,0
0,52,0,105
0,56,96,8
0,59,104,0
0,70,90,0
0,82,53,0
0,70,0,7
0,82,0,0
0,56,0,105
0,59,0,0
0,56,51,8
0,59,64,0
0,62,87,0
0,62,0,7
0,59,0,30
0,56,0,15
0,56,61,68
0,59,82,0
0,64,36,0
0,60,79,0
0,62,113,0
0,70,52,0
0,82,64,0
0,60,0,7
0,62,0,0
0,70,0,0
0,82,0,0
0,69,0,13
0,35,0,0
0,59,0,30
0,56,0,15
0,64,0,32
0,41,94,20
0,52,73,0
0,52,51,0
0,64,107,0
0,69,66,0
0,64,0,7
0,69,0,0
0,52,0,50
0,41,0,45
0,52,0,10
0,40,87,8
0,56,96,0
0,62,102,0
0,64,116,0
0,70,83,0
0,82,51,0
0,64,0,7
0,70,0,0
0,82,0,0
0,56,0,105
0,62,0,0
0,56,64,8
0,59,79,0
0,64,89,0
0,60,58,0
0,62,96,0
0,60,0,7
0,62,0,0
0,40,0,18
0,59,0,32
0,56,0,5
0,64,0,40
0,33,96,18
0,61,75,0
0,63,75,0
0,70,53,0
0,82,43,0
0,61,0,7
0,63,0,0
0,70,0,0
0,82,0,0
0,52,61,113
0,63,118,0
0,69,69,0
0,63,0,7
0,69,0,0
0,33,0,23
0,52,0,82
0,33,99,8
0,57,102,0
0,63,123,0
0,70,92,0
0,82,64,0
0,63,0,7
0,70,0,0
0,82,0,0
0,57,0,105
0,60,50,8
0,64,51,0
0,60,69,0
0,62,62,0
0,60,0,7
0,62,0,0
0,60,0,45
0,64,0,15
0,33,0,40
0,40,69,13
0,57,65,0
0,60,87,0
0,64,82,0
0,60,69,0
0,62,123,0
0,70,55,0
0,82,46,0
0,60,0,7
0,62,0,0
0,70,0,0
0,82,0,0
0,40,0,58
0,57,0,25
0,41,74,30
0,52,92,0
0,62,107,0
0,69,64,0
0,60,0,0
0,62,0,7
0,69,0,0
0,64,0,15
0,52,0,90
0,40,104,8
0,52,94,0
0,60,107,0
0,70,88,0
0,82,67,0
0,70,0,7
0,82,0,0
0,41,0,38
0,52,0,67
0,60,0,0
0,57,53,8
0,60,76,0
0,64,73,0
0,62,92,0
0,62,0,7
0,40,0,45
0,57,0,38
0,60,0,7
0,64,0,8
0,35,113,15
0,52,44,0
0,61,75,0
0,63,107,0
0,70,55,0
0,82,48,0
0,61,0,7
0,63,0,0
0,70,0,0
0,82,0,0
0,52,0,43
0,52,58,70
0,63,123,0
0,69,58,0
0,63,0,7
0,69,0,0
0,52,0,105
0,59,102,8
0,70,80,0
0,82,53,0
0,70,0,7
0,82,0,0
0,59,0,105
0,56,49,8
0,59,51,0
0,64,62,0
0,60,79,0
0,62,94,0
0,60,0,7
0,62,0,0
0,59,0,25
0,56,0,20
0,64,0,0
0,60,116,3
0,60,0,7
0,56,58,58
0,59,87,0
0,64,92,0
0,60,76,0
0,62,102,0
0,70,59,0
0,82,57,0
0,60,0,7
0,62,0,0
0,70,0,0
0,82,0,0
0,35,0,8
0,59,0,90
0,56,0,2
0,41,102,13
0,52,74,0
0,64,104,0
0,69,68,0
0,64,0,7
0,64,0,0
0,69,0,0
0,41,0,88
0,52,0,17
0,40,96,8
0,56,100,0
0,62,89,0
0,64,94,0
0,70,90,0
0,82,45,0
0,64,0,7
0,70,0,0
0,82,0,0
0,56,0,105
0,62,0,0
0,56,51,8
0,59,67,0
0,64,87,0
0,60,78,0
0,62,87,0
0,60,0,7
0,62,0,0
0,40,0,58
0,59,0,22
0,56,0,18
0,33,94,15
0,61,71,0
0,63,92,0
0,70,57,0
0,82,52,0
0,61,0,7
0,63,0,0
0,70,0,0
0,82,0,0
0,64,0,13
0,33,0,92
0,52,71,8
0,63,123,0
0,69,62,0
0,63,0,7
0,69,0,0
0,52,0,105
0,33,87,8
0,57,104,0
0,70,72,0
0,82,38,0
0,70,0,7
0,82,0,0
0,57,0,105
0,40,76,8
0,57,44,0
0,60,57,0
0,64,58,0
0,60,73,0
0,62,89,0
0,60,0,7
0,62,0,0
0,33,0,53
0,57,0,2
0,60,0,8
0,64,0,7
0,57,52,43
0,60,76,0
0,64,78,0
0,60,76,0
0,62,123,0
0,70,54,0
0,82,57,0
0,60,0,7
0,62,0,0
0,70,0,0
0,82,0,0
0,40,0,13
0,57,0,70
0,60,0,5
0,41,85,25
0,52,66,0
0,69,69,0
0,69,0,7
0,64,0,13
0,41,0,67
0,52,0,25
0,40,94,8
0,52,109,0
0,60,102,0
0,70,90,0
0,82,57,0
0,70,0,7
0,82,0,0
0,52,0,105
0,60,0,0
0,57,43,8
0,60,54,0
0,64,66,0
0,60,78,0
0,62,96,0
0,60,0,7
0,62,0,0
0,40,0,40
0,57,0,55
0,60,0,15
0,35,109,3
0,61,64,0
0,63,115,0
0,70,62,0
0,82,45,0
0,61,0,7
0,63,0,0
0,70,0,0
0,82,0,0
0,64,0,3
0,52,59,110
0,63,123,0
0,69,71,0
0,63,0,7
0,69,0,0
0,74,1,105
0,52,0,0
0,71,123,0
0,56,59,0
0,59,94,0
0,70,80,0
0,82,69,0
0,74,1,5
0,74,123,0
0,71,1,0
0,70,0,2
0,82,0,0
0,56,0,105
0,59,0,0
0,56,43,8
0,59,50,0
0,64,68,0
0,62,96,0
0,62,0,7
0,71,0,3
0,74,0,22
0,74,0,0
0,59,0,5
0,56,0,15
0,64,0,15
0,56,57,53
0,59,81,0
0,64,92,0
0,60,68,0
0,62,116,0
0,70,72,0
0,82,61,0
0,60,0,7
0,62,0,0
0,70,0,0
0,82,0,0
0,35,0,8
0,59,0,62
0,56,0,15
0,64,0,10
0,41,94,18
0,71,123,0
0,52,58,0
0,64,119,0
0,69,69,0
0,64,0,3
0,69,0,0
0,74,1,3
0,74,123,0
0,41,0,85
0,52,0,17
0,40,87,8
0,56,78,0
0,62,94,0
0,64,113,0
0,70,66,0
0,82,62,0
0,64,0,7
0,70,0,0
0,82,0,0
0,74,0,13
0,74,0,0
0,71,0,2
0,74,0,70
0,77,1,3
0,74,123,17
0,56,0,0
0,62,0,0
0,71,0,3
0,74,1,2
0,56,38,0
0,59,50,0
0,64,68,0
0,60,58,0
0,62,102,0
0,77,1,7
0,77,123,0
0,60,0,0
0,62,0,0
0,59,0,28
0,56,0,12
0,64,0,18
0,40,0,5
0,33,104,50
0,56,58,0
0,59,89,0
0,64,94,0
0,61,61,0
0,63,96,0
0,70,62,0
0,82,52,0
0,61,0,7
0,63,0,0
0,70,0,0
0,82,0,0
0,74,0,2
0,77,0,25
0,77,0,0
0,56,0,33
0,59,0,3
0,64,0,20
0,77,0,10
0,76,1,2
0,74,0,0
0,72,1,3
0,33,0,1
0,52,66,3
0,63,123,0
0,69,69,0
0,76,1,2
0,76,123,0
0,72,123,0
0,63,0,5
0,69,0,0
0,65,123,90
0,65,0,7
0,66,111,1
0,52,0,7
0,72,0,0
0,66,0,0
0,33,87,8
0,57,87,0
0,70,80,0
0,82,48,0
0,70,0,7
0,82,0,0
0,76,0,5
0,76,0,0
0,57,0,100
0,57,39,8
0,60,67,0
0,64,54,0
0,62,96,0
0,62,0,7
0,57,0,40
0,60,0,15
0,57,51,58
0,60,56,0
0,60,71,0
0,62,123,0
0,70,66,0
0,82,56,0
0,60,0,7
0,62,0,0
0,70,0,0
0,82,0,0
0,33,0,20
0,72,1,7
0,72,123,0
0,57,0,3
0,41,78,10
0,52,61,0
0,69,71,0
0,64,0,0
0,76,0,4
0,72,1,3
0,69,0,0
0,72,0,5
0,60,0,0
0,69,1,3
0,69,123,10
0,41,0,75
0,52,0,12
0,40,96,8
0,52,107,0
0,60,99,0
0,70,74,0
0,82,39,0
0,70,0,7
0,82,0,0
0,69,0,20
0,72,0,2
0,72,0,0
0,52,0,83
0,60,0,0
0,72,119,3
0,57,39,5
0,60,57,0
0,64,54,0
0,60,61,0
0,62,92,0
0,60,0,3
0,62,0,0
0,72,0,2
0,76,1,1
0,76,123,0
0,69,0,0
0,72,1,2
0,76,1,0
0,40,0,50
0,57,0,0
0,60,0,0
0,35,116,58
0,57,55,0
0,60,79,0
0,61,66,0
0,63,118,0
0,70,53,0
0,82,57,0
0,61,0,7
0,63,0,0
0,70,0,0
0,82,0,0
0,72,0,8
0,76,0,10
0,76,0,0
0,71,123,75
0,57,0,5
0,64,0,5
0,60,0,7
0,52,56,3
0,63,121,0
0,69,64,0
0,76,0,3
0,63,0,0
0,69,0,0
0,72,0,2
0,74,1,1
0,74,123,0
0,74,1,0
0,71,1,2
0,71,0,93
0,52,0,7
0,56,85,8
0,59,92,0
0,70,80,0
0,82,54,0
0,70,0,7
0,82,0,0
0,74,0,5
0,74,0,0
0,56,0,100
0,59,0,0
0,56,51,8
0,59,65,0
0,64,54,0
0,60,65,0
0,62,102,0
0,60,0,7
0,62,0,0
0,59,0,38
0,56,0,2
0,64,0,28
0,56,54,45
0,59,76,0
0,64,37,0
0,60,74,0
0,62,113,0
0,70,59,0
0,82,57,0
0,60,0,7
0,62,0,0
0,70,0,0
0,82,0,0
0,35,0,3
0,56,0,62
0,59,0,5
0,64,0,0
0,74,1,5
0,74,123,0
0,71,123,13
0,41,85,10
0,52,78,0
0,64,119,0
0,69,68,0
0,64,0,7
0,69,0,0
0,74,0,72
0,74,0,0
0,41,0,21
0,71,0,4
0,52,0,0
0,77,1,3
0,77,123,0
