track,note,velocity,time
0,45,117,427
0,69,127,0
0,72,73,0
0,69,103,0
0,60,85,0
0,69,78,0
0,63,127,0
0,70,127,0
0,73,127,0
0,63,0,7
0,70,0,0
0,73,0,0
0,69,0,93
0,72,0,0
0,64,82,27
0,60,0,0
0,69,0,5
0,69,0,23
0,69,127,65
0,72,73,0
0,45,0,2
0,64,0,7
0,52,117,11
0,62,127,0
0,70,68,0
0,62,0,7
0,70,0,0
0,69,0,85
0,72,0,0
0,52,0,23
0,40,113,5
0,60,123,0
0,61,125,0
0,69,103,0
0,61,0,7
0,69,0,0
0,69,73,8
0,68,127,105
0,71,73,0
0,64,86,0
0,60,65,0
0,69,48,0
0,70,125,0
0,73,119,0
0,70,0,7
0,73,0,0
0,60,0,8
0,69,0,32
0,60,0,10
0,69,0,8
0,60,106,55
0,60,0,7
0,64,0,63
0,40,0,7
0,68,0,40
0,71,0,0
0,47,126,3
0,59,45,0
0,68,100,0
0,63,127,0
0,70,79,0
0,63,0,7
0,70,0,0
0,59,0,35
0,62,82,38
0,68,0,0
0,68,127,40
0,63,127,0
0,69,91,0
0,71,127,5
0,74,73,0
0,63,0,2
0,69,0,0
0,62,0,105
0,70,115,8
0,73,115,0
0,70,0,7
0,73,0,0
0,68,0,43
0,65,120,62
0,59,86,8
0,61,107,0
0,61,0,7
0,47,0,108
0,40,123,5
0,62,126,0
0,70,122,0
0,73,115,0
0,62,0,7
0,70,0,0
0,73,0,0
0,59,0,13
0,65,0,4
0,40,0,78
0,62,91,13
0,40,111,5
0,64,111,0
0,59,65,0
0,64,127,0
0,69,120,0
0,64,0,7
0,69,0,0
0,59,0,88
0,71,0,17
0,74,0,0
0,64,120,8
0,70,127,0
0,73,107,0
0,64,0,7
0,70,0,0
0,73,0,0
0,62,0,18
0,64,0,25
0,63,87,55
0,71,96,15
0,60,120,0
0,60,0,7
0,40,0,88
0,47,113,25
0,56,78,0
0,64,126,0
0,63,115,0
0,70,107,0
0,73,76,0
0,75,104,0
0,63,0,7
0,70,0,0
0,73,0,0
0,75,0,0
0,63,0,13
0,71,0,10
0,64,117,80
0,68,119,10
0,63,127,0
0,69,123,0
0,63,0,7
0,69,0,0
0,56,0,18
0,64,0,15
0,71,127,55
0,74,73,0
0,64,0,17
0,70,127,8
0,73,127,0
0,68,0,5
0,70,0,2
0,73,0,0
0,71,0,75
0,74,0,0
0,59,111,38
0,61,125,0
0,61,0,7
0,71,127,85
0,74,73,0
0,64,80,28
0,62,126,0
0,70,87,0
0,75,73,0
0,59,0,7
0,62,0,0
0,70,0,0
0,75,0,0
0,71,0,82
0,74,0,0
0,68,70,6
0,47,0,20
0,40,113,5
0,68,127,0
0,56,63,0
0,62,70,0
0,64,98,0
0,69,106,0
0,69,0,7
0,64,0,15
0,68,0,38
0,40,0,2
0,62,0,20
0,64,0,15
0,68,0,13
0,56,0,2
0,69,127,3
0,72,73,0
0,40,127,5
0,71,86,0
0,71,103,0
0,70,127,0
0,73,127,0
0,75,66,0
0,70,0,7
0,73,0,0
0,75,0,0
0,60,113,113
0,60,0,7
0,71,0,30
0,71,0,0
0,40,0,45
0,45,108,38
0,57,75,0
0,60,91,0
0,64,100,0
0,63,111,0
0,70,87,0
0,63,0,7
0,70,0,0
0,69,0,40
0,72,0,0
0,69,69,30
0,57,0,25
0,69,103,18
0,63,127,0
0,69,103,0
0,63,0,7
0,69,0,0
0,72,126,3
0,76,72,0
0,60,0,2
0,64,0,13
0,70,111,95
0,73,127,0
0,75,55,0
0,69,0,7
0,70,0,0
0,73,0,0
0,75,0,0
0,69,0,45
0,64,85,58
0,60,127,10
0,61,125,0
0,61,0,7
0,45,0,65
0,64,0,40
0,52,111,8
0,62,123,0
0,70,94,0
0,62,0,7
0,70,0,0
0,60,0,50
0,72,0,50
0,76,0,0
0,52,0,8
0,40,127,5
0,64,123,0
0,57,59,0
0,60,73,0
0,64,62,0
0,64,127,0
0,69,100,0
0,75,68,0
0,60,62,7
0,64,0,0
0,69,0,0
0,75,0,0
0,60,0,55
0,57,0,5
0,64,0,5
0,57,44,48
0,60,51,0
0,64,111,0
0,70,127,0
0,73,127,0
0,64,0,7
0,70,0,0
0,73,0,0
0,60,0,2
0,60,0,31
0,57,0,2
0,64,0,13
0,69,86,65
0,60,111,0
0,60,0,7
0,64,82,3
0,40,0,100
0,45,117,10
0,57,69,0
0,60,91,0
0,64,96,0
0,63,115,0
0,70,82,0
0,75,71,0
0,63,0,7
0,70,0,0
0,75,0,0
0,64,0,8
0,69,0,37
0,57,0,33
0,60,0,25
0,64,126,10
0,63,125,0
0,69,103,0
0,63,0,7
0,69,0,0
0,64,0,15
0,69,127,83
0,72,73,0
0,70,125,15
0,73,127,0
0,70,0,7
0,73,0,0
0,64,0,28
0,69,0,52
0,72,0,0
0,60,103,33
0,61,127,0
0,64,78,7
0,61,0,0
0,69,127,93
0,72,73,0
0,45,0,15
0,52,111,5
0,62,120,0
0,70,82,0
0,75,78,0
0,62,0,7
0,70,0,0
0,75,0,0
0,64,0,25
0,60,0,33
0,60,77,22
0,52,0,3
0,69,0,7
0,72,0,0
0,40,120,23
0,69,83,0
0,57,67,0
0,60,73,0
0,64,89,0
0,69,108,0
0,69,0,7
0,60,0,60
0,57,0,10
0,60,0,8
0,64,0,7
0,68,127,13
0,71,73,0
0,64,93,2
0,64,126,13
0,70,100,0
0,73,125,0
0,75,58,0
0,70,0,7
0,73,0,0
0,75,0,0
0,69,0,45
0,60,106,68
0,60,0,7
0,64,0,50
0,64,0,2
0,40,0,23
0,47,127,38
0,59,106,0
0,68,89,0
0,63,115,0
0,70,96,0
0,68,0,2
0,71,0,0
0,63,0,5
0,70,0,0
0,62,91,90
0,71,127,18
0,74,73,0
0,68,127,5
0,63,127,0
0,69,108,0
0,63,0,7
0,69,0,0
0,59,0,10
0,68,0,23
0,70,127,80
0,73,127,0
0,75,82,0
0,62,0,7
0,70,0,0
0,73,0,0
0,75,0,0
0,68,0,43
0,59,113,70
0,65,117,0
0,61,122,0
0,61,0,7
0,47,0,98
0,52,86,15
0,62,111,0
0,70,96,0
0,62,0,7
0,70,0,0
0,59,0,23
0,65,0,5
0,62,96,75
0,52,0,2
0,40,111,8
0,62,117,0
0,59,89,0
0,68,87,0
0,64,126,0
0,69,106,0
0,75,71,0
0,64,0,7
0,69,0,0
0,75,0,0
0,68,0,85
0,64,108,28
0,70,122,0
0,73,115,0
0,64,0,7
0,70,0,0
0,73,0,0
0,59,0,15
0,71,0,8
0,74,0,0
0,62,0,22
0,62,0,0
0,63,76,60
0,68,119,8
0,60,103,0
0,60,0,7
0,68,0,100
0,40,0,8
0,47,126,5
0,64,93,0
0,56,73,0
0,62,75,0
0,64,108,0
0,63,115,0
0,70,92,0
0,75,82,0
0,63,0,7
0,70,0,0
0,75,0,0
0,62,0,20
0,63,0,7
0,56,0,46
0,64,0,22
0,64,113,8
0,64,0,5
0,63,119,5
0,63,127,0
0,69,103,0
0,63,0,7
0,69,0,0
0,63,0,95
0,71,127,8
0,74,73,0
0,62,126,10
0,70,111,0
0,73,125,0
0,70,0,7
0,73,0,0
0,64,0,58
0,71,0,40
0,74,0,0
0,61,125,15
0,61,0,7
0,47,0,93
0,71,127,10
0,74,73,0
0,52,117,10
0,62,113,0
0,70,96,0
0,75,68,0
0,62,0,7
0,70,0,0
0,75,0,0
0,62,0,20
0,52,0,58
0,68,127,22
0,71,0,0
0,74,0,0
0,40,126,13
0,64,96,0
0,56,82,0
0,64,106,0
0,69,113,0
0,69,0,7
0,68,0,50
0,56,0,55
0,64,0,3
0,69,127,2
0,72,73,0
0,64,0,0
0,60,108,3
0,64,78,0
0,71,85,0
0,70,127,0
0,73,127,0
0,75,70,0
0,64,0,2
0,70,0,5
0,73,0,0
0,75,0,0
0,60,0,88
0,60,98,25
0,60,0,7
0,71,0,13
0,69,0,69
0,72,0,0
0,40,0,21
0,45,117,10
0,57,71,0
0,60,98,0
0,64,98,0
0,63,115,0
0,70,94,0
0,63,0,7
0,70,0,0
0,57,0,90
0,72,127,8
0,76,73,0
0,69,67,0
0,64,103,15
0,63,127,0
0,69,111,0
0,60,0,7
0,63,0,0
0,69,0,0
0,64,0,23
0,70,122,90
0,73,122,0
0,75,62,0
0,70,0,7
0,73,0,0
0,75,0,0
0,69,0,48
0,64,0,10
0,64,96,52
0,60,117,3
0,61,107,0
0,61,0,7
0,45,0,83
0,52,106,30
0,62,111,0
0,70,92,0
0,62,0,7
0,70,0,0
0,64,0,2
0,60,0,31
0,52,0,52
0,60,75,5
0,40,127,23
0,64,103,0
0,57,68,0
0,60,96,0
0,64,89,0
0,64,126,0
0,69,106,0
0,75,87,0
0,64,0,7
0,69,0,0
0,75,0,0
0,60,0,90
0,57,0,3
0,70,119,20
0,73,122,0
0,64,0,7
0,70,0,0
0,73,0,0
0,60,0,10
0,72,0,30
0,76,0,0
0,64,0,0
0,64,73,43
0,69,82,30
0,60,106,0
0,60,0,7
0,64,0,28
0,40,0,57
0,69,86,25
0,45,123,3
0,57,57,0
0,60,82,0
0,64,85,0
0,63,96,0
0,70,111,0
0,75,68,0
0,64,120,2
0,63,0,5
0,70,0,0
0,75,0,0
0,69,0,10
0,60,0,50
0,57,0,5
0,64,0,12
0,64,113,36
0,57,44,0
0,60,64,0
0,63,125,0
0,69,106,0
0,63,0,7
0,69,0,0
0,69,0,32
0,57,0,53
0,60,0,10
0,64,0,5
0,70,127,13
0,73,125,0
0,70,0,7
0,73,0,0
0,64,0,48
0,71,127,65
0,75,73,0
0,60,98,0
0,61,125,0
0,61,0,7
0,60,42,8
0,72,127,22
0,76,73,0
0,71,0,38
0,75,0,0
0,60,0,37
0,45,0,3
0,52,108,5
0,62,117,0
0,70,87,0
0,75,79,0
0,62,0,7
0,70,0,0
0,75,0,0
0,72,0,15
0,76,0,0
0,60,0,13
0,64,69,55
0,71,127,5
0,74,73,0
0,52,0,17
0,45,126,8
0,69,77,0
0,57,80,0
0,60,78,0
0,64,91,0
0,69,113,0
0,69,0,7
0,64,0,15
0,71,0,48
0,74,0,0
0,57,0,10
0,60,0,5
0,64,0,32
0,64,96,3
0,70,119,0
0,73,125,0
0,75,82,0
0,60,36,7
0,70,0,0
0,73,0,0
0,75,0,0
0,69,0,8
0,69,117,10
0,72,63,0
0,60,0,12
0,60,120,83
0,60,0,7
0,69,0,15
0,72,0,0
0,45,0,60
0,64,0,8
0,67,120,10
0,71,66,0
0,38,127,20
0,57,89,0
0,62,71,0
0,65,85,0
0,63,119,0
0,70,92,0
0,63,0,7
0,70,0,0
0,67,0,83
0,71,0,0
0,57,0,7
0,62,0,13
0,65,80,7
0,63,127,3
0,69,108,0
0,65,127,5
0,69,73,0
0,63,0,2
0,69,0,0
0,65,0,10
0,65,0,47
0,70,125,56
0,73,119,0
0,75,70,0
0,65,0,2
0,69,0,0
0,70,0,5
0,73,0,0
0,75,0,0
0,62,43,103
0,62,123,10
0,61,127,0
0,64,127,2
0,67,73,0
0,61,0,5
0,62,0,38
0,64,0,74
0,67,0,0
0,62,103,1
0,70,94,0
0,62,0,7
0,70,0,0
0,62,0,50
0,62,46,45
0,62,127,5
0,65,73,0
0,38,0,8
0,41,89,5
0,45,67,0
0,65,126,0
0,57,82,0
0,62,85,0
0,65,77,0
0,69,108,0
0,75,94,0
0,69,0,7
0,75,0,0
0,45,0,15
0,62,0,55
0,65,0,25
0,57,0,13
0,62,0,0
0,70,127,5
0,73,122,0
0,70,0,7
0,73,0,0
0,62,0,52
0,65,0,0
0,65,0,18
0,62,98,43
0,65,120,0
0,60,120,0
0,60,0,7
0,41,0,28
0,65,0,45
0,62,70,32
0,40,117,8
0,56,92,0
0,59,100,0
0,64,108,0
0,63,127,0
0,70,100,0
0,75,73,0
0,63,0,7
0,70,0,0
0,75,0,0
0,62,0,33
0,59,0,37
0,56,0,5
0,62,0,7
0,64,0,18
0,64,96,13
0,63,122,0
0,69,103,0
0,63,104,5
0,63,0,2
0,69,0,0
0,70,125,113
0,73,122,0
0,70,0,7
0,73,0,0
0,64,111,3
0,63,0,0
0,64,0,35
0,69,127,42
0,72,73,0
0,59,86,33
0,61,125,0
0,61,0,7
0,71,127,8
0,74,73,0
0,69,0,32
0,72,0,0
0,64,0,70
0,71,0,0
0,74,0,0
0,62,113,3
0,70,94,0
0,75,70,0
0,62,0,7
0,70,0,0
0,75,0,0
0,59,0,5
0,69,120,55
0,72,66,0
0,40,0,48
0,68,89,2
0,44,127,3
0,68,127,0
0,56,84,0
0,59,86,0
0,64,93,0
0,69,113,0
0,69,0,7
0,59,0,15
0,69,0,7
0,72,0,0
0,56,0,16
0,68,0,27
0,64,0,8
0,68,0,5
0,68,127,30
0,71,73,0
0,64,123,5
0,71,93,0
0,56,55,0
0,59,86,0
0,64,60,0
0,70,125,0
0,73,127,0
0,75,76,0
0,70,0,7
0,73,0,0
0,75,0,0
0,59,0,63
0,56,0,30
0,68,0,5
0,71,0,0
0,64,0,7
0,60,103,8
0,60,0,7
0,71,0,20
0,44,0,8
0,65,127,62
0,69,73,0
0,45,127,23
0,57,55,0
0,60,100,0
0,64,78,0
0,63,94,0
0,70,107,0
0,63,0,7
0,70,0,0
0,64,0,8
0,65,0,62
0,69,0,0
0,57,0,5
0,64,127,35
0,67,73,0
0,62,120,3
0,63,127,0
0,69,111,0
0,63,0,7
0,69,0,0
0,60,0,13
0,64,0,17
0,70,125,83
0,73,127,0
0,75,92,0
0,64,0,7
0,67,0,0
0,70,0,0
0,73,0,0
0,75,0,0
0,62,0,58
0,69,73,10
0,60,89,45
0,61,127,0
0,61,0,7
0,62,126,8
0,65,72,0
0,69,0,65
0,45,0,35
0,52,127,5
0,62,106,0
0,70,111,0
0,62,0,7
0,70,0,0
0,62,0,10
0,65,0,0
0,60,0,35
0,52,0,28
0,60,100,10
0,40,126,30
0,69,77,0
0,57,58,0
0,60,66,0
0,64,73,0
0,64,123,0
0,69,106,0
0,75,70,0
0,60,127,5
0,64,73,0
0,64,0,2
0,69,0,0
0,75,0,0
0,57,0,93
0,64,100,20
0,70,127,0
0,73,125,0
0,60,0,0
0,64,0,7
0,70,0,0
0,73,0,0
0,64,0,10
0,60,0,18
0,69,0,30
0,60,0,17
0,64,0,0
0,64,89,38
0,64,86,0
0,60,111,0
0,60,0,7
0,40,0,108
0,45,120,5
0,57,62,0
0,60,89,0
0,64,85,0
0,63,107,0
0,70,96,0
0,75,92,0
0,63,0,7
0,70,0,0
0,75,0,0
0,64,0,5
0,64,0,40
0,60,0,20
0,57,0,3
0,60,85,45
0,57,28,0
0,60,51,0
0,63,125,0
0,69,111,0
0,69,83,7
0,63,0,0
0,69,0,0
0,57,0,80
0,60,0,10
0,64,0,13
0,60,0,5
0,69,83,5
0,70,127,0
0,73,127,0
0,70,0,7
0,73,0,0
0,71,127,100
0,75,73,0
0,61,127,13
0,61,0,7
0,72,117,13
0,76,63,0
0,69,0,14
0,69,0,21
0,71,0,4
0,76,0,1
0,75,0,59
0,64,86,1
0,62,117,0
0,70,104,0
0,75,75,0
0,72,0,0
0,62,0,7
0,70,0,0
0,75,0,0
0,45,0,55
0,71,127,25
0,74,73,0
0,60,82,3
0,52,113,30
0,60,83,0
0,57,61,0
0,60,73,0
0,64,85,0
0,69,111,0
0,69,0,7
0,64,0,3
0,60,0,40
0,71,0,7
0,74,0,0
0,57,0,30
0,64,0,10
0,52,0,15
0,60,0,0
0,45,113,8
0,69,86,0
0,70,127,0
0,73,125,0
0,75,84,0
0,64,82,2
0,69,98,3
0,72,44,0
0,60,0,2
0,70,0,0
0,73,0,0
0,75,0,0
0,60,108,113
0,60,0,7
0,69,0,8
0,72,0,0
0,64,0,24
0,69,0,23
0,45,0,28
0,67,103,2
0,71,49,0
0,38,127,28
0,57,69,0
0,62,83,0
0,65,89,0
0,63,115,0
0,70,100,0
0,63,0,7
0,70,0,0
0,67,0,65
0,71,0,0
