track,note,velocity,time
0,36,112,8
0,36,108,0
0,36,108,192
0,36,106,0
0,36,111,12
0,36,108,0
0,36,105,296
0,36,106,0
0,36,111,176
0,36,105,0
0,36,107,12
0,36,102,0
0,60,105,88
0,72,101,0
0,42,86,4
0,36,112,0
0,41,105,0
0,60,97,0
0,69,99,0
0,65,103,0
0,60,64,0
0,53,65,0
0,57,63,0
0,72,97,0
0,84,104,0
0,42,75,16
0,36,110,92
0,41,103,0
0,53,65,0
0,57,61,0
0,60,69,0
0,38,113,12
0,42,87,0
0,41,108,0
0,57,69,0
0,53,60,0
0,60,68,0
0,74,97,0
0,86,101,0
0,42,75,20
0,36,111,32
0,42,90,0
0,36,102,0
0,60,99,0
0,67,104,0
0,64,97,0
0,55,61,0
0,60,60,0
0,52,61,0
0,72,102,0
0,84,100,0
0,42,79,20
0,36,112,92
0,36,107,0
0,55,65,0
0,60,64,0
0,52,65,0
0,38,111,12
0,42,82,0
0,36,107,0
0,60,67,0
0,52,61,0
0,55,67,0
0,42,77,20
0,60,99,0
0,72,109,0
0,42,85,4
0,36,107,0
0,41,105,0
0,63,96,0
0,60,96,0
0,69,97,0
0,63,60,0
0,60,69,0
0,57,68,0
0,72,96,0
0,84,100,0
0,42,82,20
0,36,105,92
0,41,105,0
0,57,64,0
0,63,61,0
0,60,65,0
0,38,113,12
0,42,85,0
0,41,102,0
0,57,64,0
0,63,69,0
0,60,69,0
0,74,100,0
0,86,104,0
0,42,75,20
0,36,105,32
0,42,82,0
0,46,103,0
0,70,101,0
0,62,98,0
0,65,95,0
0,53,60,0
0,62,69,0
0,58,64,0
0,72,104,0
0,84,107,0
0,70,104,12
0,82,104,0
0,42,75,12
0,36,113,92
0,46,105,0
0,53,65,0
0,58,64,0
0,62,67,0
0,65,103,0
0,77,100,0
0,38,104,12
0,42,88,0
0,46,103,0
0,62,61,0
0,58,62,0
0,53,69,0
0,42,80,20
0,42,82,96
0,36,105,0
0,46,109,0
0,70,95,0
0,61,96,0
0,65,103,0
0,58,67,0
0,53,60,0
0,61,67,0
0,70,101,0
0,82,103,0
0,42,79,20
0,36,104,92
0,46,105,0
0,53,63,0
0,58,64,0
0,61,66,0
0,38,108,12
0,42,82,0
0,46,107,0
0,65,96,0
0,72,97,0
0,61,95,0
0,61,65,0
0,58,60,0
0,53,60,0
0,72,101,0
0,84,101,0
0,42,82,20
0,36,107,24
0,42,84,0
0,41,104,0
0,60,98,0
0,65,102,0
0,69,104,0
0,57,66,0
0,53,63,0
0,60,68,0
0,69,102,0
0,81,105,0
0,42,73,20
0,36,112,92
0,41,107,0
0,53,69,0
0,57,62,0
0,60,67,0
0,38,104,12
0,42,90,0
0,41,108,0
0,57,99,0
0,60,103,0
0,65,97,0
0,57,69,0
0,53,65,0
0,60,67,0
0,65,99,0
0,77,105,0
0,42,77,20
0,42,81,4
0,36,107,0
0,36,106,0
0,53,99,0
0,60,102,0
0,58,104,0
0,53,66,0
0,58,66,0
0,60,69,0
0,53,99,0
0,60,105,0
0,72,109,0
0,42,81,20
0,36,111,92
0,36,109,0
0,53,65,0
0,58,63,0
0,60,61,0
0,38,109,12
0,42,86,0
0,36,106,0
0,52,101,0
0,58,97,0
0,60,104,0
0,52,69,0
0,60,67,0
0,58,68,0
0,52,101,0
0,42,82,20
0,36,112,24
0,42,82,0
0,36,107,0
0,50,101,0
0,58,101,0
0,60,98,0
0,53,60,0
0,60,62,0
0,58,61,0
0,50,100,0
0,42,80,20
0,36,105,92
0,36,104,0
0,53,62,0
0,58,68,0
0,60,69,0
0,38,111,12
0,42,84,0
0,36,102,0
0,52,95,0
0,60,96,0
0,58,101,0
0,52,61,0
0,60,60,0
0,58,64,0
0,52,97,0
0,42,78,20
0,60,102,0
0,72,107,0
0,42,81,4
0,36,109,0
0,41,107,0
0,60,101,0
0,69,100,0
0,65,100,0
0,60,67,0
0,53,69,0
0,57,61,0
0,72,99,0
0,84,107,0
0,42,73,20
0,36,111,92
0,41,104,0
0,53,65,0
0,57,69,0
0,60,63,0
0,38,105,12
0,42,86,0
0,41,109,0
0,57,69,0
0,53,68,0
0,60,67,0
0,74,97,0
0,86,102,0
0,42,79,20
0,36,107,32
0,42,90,0
0,36,108,0
0,60,102,0
0,67,95,0
0,64,98,0
0,55,68,0
0,60,61,0
0,52,64,0
0,72,103,0
0,84,109,0
0,42,73,20
0,36,104,92
0,36,103,0
0,55,63,0
0,60,67,0
0,52,61,0
0,38,104,12
0,42,84,0
0,36,104,0
0,60,64,0
0,52,63,0
0,55,64,0
0,42,79,20
0,60,96,0
0,72,105,0
0,42,88,4
0,36,108,0
0,41,102,0
0,63,95,0
0,60,102,0
0,69,97,0
0,63,69,0
0,60,66,0
0,57,65,0
0,72,104,0
0,84,100,0
0,42,81,20
0,36,106,92
0,41,108,0
0,57,67,0
0,63,69,0
0,60,60,0
0,38,113,12
0,42,87,0
0,41,105,0
0,57,64,0
0,63,60,0
0,60,66,0
0,74,103,0
0,86,106,0
0,42,78,20
0,36,111,32
0,42,89,0
0,46,109,0
0,70,103,0
0,62,99,0
0,65,104,0
0,53,64,0
0,62,68,0
0,58,66,0
0,72,103,0
0,84,106,0
0,70,102,12
0,82,107,0
0,42,74,12
0,36,106,92
0,46,109,0
0,53,67,0
0,58,62,0
0,62,62,0
0,65,104,0
0,77,109,0
0,38,105,12
0,42,89,0
0,46,107,0
0,62,67,0
0,58,61,0
0,53,60,0
0,42,75,20
0,42,81,32
0,36,113,0
0,46,107,0
0,70,96,0
0,61,97,0
0,65,101,0
0,58,63,0
0,53,68,0
0,61,62,0
0,70,103,0
0,82,103,0
0,42,75,20
0,36,105,92
0,46,108,0
0,53,67,0
0,58,60,0
0,61,63,0
0,38,110,12
0,42,86,0
0,46,104,0
0,65,102,0
0,72,97,0
0,61,98,0
0,61,66,0
0,58,61,0
0,53,63,0
0,72,105,0
0,84,109,0
0,42,73,20
0,36,108,4
0,42,81,0
0,41,105,0
0,60,103,0
0,65,98,0
0,69,102,0
0,57,66,0
0,53,63,0
0,60,60,0
0,69,102,0
0,81,107,0
0,42,77,20
0,36,107,92
0,41,108,0
0,53,64,0
0,57,61,0
0,60,61,0
0,38,113,12
0,42,90,0
0,41,103,0
0,57,97,0
0,60,100,0
0,65,100,0
0,57,69,0
0,53,67,0
0,60,65,0
0,65,98,0
0,77,108,0
0,42,75,20
0,42,86,24
0,36,105,0
0,36,107,0
0,53,98,0
0,60,99,0
0,58,95,0
0,53,66,0
0,58,63,0
0,60,69,0
0,53,100,0
0,60,102,0
0,72,105,0
0,42,73,20
0,36,105,92
0,36,109,0
0,53,67,0
0,58,68,0
0,60,64,0
0,38,113,12
0,42,87,0
0,36,106,0
0,52,102,0
0,58,101,0
0,60,97,0
0,52,65,0
0,60,65,0
0,58,65,0
0,52,101,0
0,42,79,20
0,36,104,24
0,42,82,0
0,36,106,0
0,50,103,0
0,58,104,0
0,60,99,0
0,53,68,0
0,60,67,0
0,58,68,0
0,50,103,0
0,91,115,4
0,89,115,8
0,88,115,24
0,86,115,12
0,84,115,8
0,83,115,12
0,42,73,8
0,81,115,24
0,36,109,16
0,36,107,0
0,79,115,0
0,53,69,0
0,58,62,0
0,60,65,0
0,77,115,12
0,76,115,4
0,38,105,8
0,42,88,0
0,36,103,0
0,52,99,0
0,60,95,0
0,58,101,0
0,52,62,0
0,60,60,0
0,58,65,0
0,52,98,0
0,74,115,8
0,72,115,4
0,71,115,8
0,69,115,8
0,67,115,8
0,42,79,4
0,65,115,12
0,64,115,16
0,62,115,12
0,49,104,0
0,42,85,0
0,36,105,0
0,36,105,0
0,64,95,0
0,67,104,0
0,60,95,0
0,72,44,0
0,67,49,0
0,64,48,0
0,79,97,0
0,64,46,12
0,67,42,0
0,72,46,0
0,42,76,12
0,69,104,0
0,64,103,0
0,60,96,0
0,72,49,0
0,67,43,0
0,64,45,0
0,36,107,12
0,36,106,0
0,72,44,0
0,67,44,0
0,64,41,0
0,38,110,12
0,42,85,0
0,36,106,0
0,67,98,0
0,64,99,0
0,60,103,0
0,64,48,0
0,72,46,0
0,67,48,0
0,81,100,0
0,81,100,0
0,67,44,12
0,60,48,0
0,64,48,0
0,42,79,12
0,69,98,0
0,64,103,0
0,60,98,0
0,67,47,0
0,72,48,0
0,67,95,12
0,64,103,0
0,60,97,0
0,67,45,0
0,64,48,0
0,72,47,0
0,36,110,12
0,42,89,0
0,36,103,0
0,67,45,0
0,64,44,0
0,72,48,0
0,79,103,0
0,79,105,0
0,64,104,12
0,60,98,0
0,67,99,0
0,52,92,0
0,60,41,0
0,72,49,0
0,67,47,0
0,42,74,12
0,69,101,0
0,64,104,0
0,60,102,0
0,57,93,0
0,60,43,0
0,67,44,0
0,64,43,0
0,36,108,12
0,36,108,0
0,52,90,0
0,67,43,0
0,72,42,0
0,64,41,0
0,38,111,12
0,42,85,0
0,43,107,0
0,67,95,0
0,64,100,0
0,60,97,0
0,55,88,0
0,72,42,0
0,67,43,0
0,64,44,0
0,57,93,12
0,67,50,0
0,64,46,0
0,72,46,0
0,42,73,12
0,41,106,0
0,69,99,0
0,64,100,0
0,60,96,0
0,60,46,0
0,67,46,0
0,64,47,0
0,67,50,12
0,64,50,0
0,72,43,0
0,42,84,12
0,36,104,0
0,40,106,0
0,67,99,0
0,59,99,0
0,64,96,0
0,67,44,0
0,71,41,0
0,64,48,0
0,79,97,0
0,67,49,12
0,71,49,0
0,64,41,0
0,42,74,12
0,69,102,0
0,64,96,0
0,59,100,0
0,71,47,0
0,67,44,0
0,64,48,0
0,36,113,12
0,40,106,0
0,59,48,0
0,64,44,0
0,67,43,0
0,38,109,12
0,42,84,0
0,40,104,0
0,67,101,0
0,59,104,0
0,64,102,0
0,67,45,0
0,71,45,0
0,64,48,0
0,81,101,0
0,81,101,0
0,71,44,12
0,67,47,0
0,64,43,0
0,42,78,12
0,64,99,0
0,59,100,0
0,69,104,0
0,67,42,0
0,71,48,0
0,64,48,0
0,59,102,12
0,67,95,0
0,64,95,0
0,76,50,0
0,67,45,0
0,71,44,0
0,36,107,12
0,42,84,0
0,40,109,0
0,64,47,0
0,67,43,0
0,71,46,0
0,79,104,0
0,79,105,0
0,67,125,4
0,59,97,8
0,64,96,0
0,67,102,0
0,52,86,0
0,59,43,0
0,67,41,0
0,64,48,0
0,69,120,4
0,42,76,8
0,69,101,0
0,64,95,0
0,59,96,0
0,57,89,0
0,64,46,0
0,71,46,0
0,67,124,4
0,36,106,8
0,40,108,0
0,59,49,0
0,67,45,0
0,64,45,0
0,72,120,4
0,38,108,8
0,42,88,0
0,40,108,0
0,64,103,0
0,59,101,0
0,67,96,0
0,55,90,0
0,64,44,0
0,67,45,0
0,71,50,0
0,71,47,12
0,67,42,0
0,64,50,0
0,69,124,4
0,42,79,4
0,43,103,0
0,64,102,0
0,69,99,0
0,59,99,0
0,57,90,0
0,67,45,0
0,71,44,0
0,67,45,12
0,64,50,0
0,71,42,0
0,42,84,12
0,36,109,0
0,41,109,0
0,67,95,0
0,60,101,0
0,65,101,0
0,65,50,0
0,72,44,0
0,69,44,0
0,79,96,0
0,69,44,12
0,65,50,0
0,72,48,0
0,42,80,12
0,69,96,0
0,60,96,0
0,65,98,0
0,60,44,0
0,65,48,0
0,69,46,0
0,36,106,12
0,41,102,0
0,65,46,0
0,72,49,0
0,69,50,0
0,38,112,12
0,42,86,0
0,41,107,0
0,65,102,0
0,67,102,0
0,60,104,0
0,69,47,0
0,72,44,0
0,65,45,0
0,81,103,0
0,81,104,0
0,72,48,12
0,69,43,0
0,65,41,0
0,42,78,12
0,69,96,0
0,60,98,0
0,65,104,0
0,65,43,0
0,60,42,0
0,69,43,0
0,67,100,12
0,60,101,0
0,65,99,0
0,65,41,0
0,69,46,0
0,72,49,0
0,36,110,12
0,42,81,0
0,41,103,0
0,72,45,0
0,69,44,0
0,65,46,0
0,79,97,0
0,79,108,0
0,67,99,12
0,65,96,0
0,60,104,0
0,69,45,0
0,65,41,0
0,42,78,12
0,69,99,0
0,65,98,0
0,60,102,0
0,72,45,0
0,69,44,0
0,65,44,0
0,36,110,12
0,41,104,0
0,60,46,0
0,65,48,0
0,69,47,0
0,38,111,12
0,42,82,0
0,41,104,0
0,65,102,0
0,67,100,0
0,60,98,0
0,69,49,0
0,72,49,0
0,65,49,0
0,72,50,12
0,69,44,0
0,65,44,0
0,42,79,12
0,38,106,0
0,69,95,0
0,65,97,0
0,60,102,0
0,65,49,0
0,69,48,0
0,76,100,0
0,76,109,0
0,69,45,12
0,65,50,0
0,72,47,0
0,77,101,0
0,77,103,0
0,42,86,12
0,36,109,0
0,36,108,0
0,64,100,0
0,67,99,0
0,60,99,0
0,67,46,0
0,64,46,0
0,72,47,0
0,79,104,0
0,79,100,0
0,67,42,12
0,64,42,0
0,72,43,0
0,79,98,0
0,79,101,0
0,42,77,12
0,69,95,0
0,64,97,0
0,60,97,0
0,60,41,0
0,67,48,0
0,64,41,0
0,36,112,12
0,36,109,0
0,64,43,0
0,67,50,0
0,72,43,0
0,79,103,0
0,79,109,0
0,38,105,12
0,42,83,0
0,36,104,0
0,67,104,0
0,64,98,0
0,60,97,0
0,67,42,0
0,72,41,0
0,64,46,0
0,64,41,12
0,60,46,0
0,67,47,0
0,42,74,4
0,40,103,0
0,69,99,0
0,64,104,0
0,60,100,0
0,69,43,0
0,64,49,0
0,60,42,0
0,76,103,0
0,76,104,0
0,62,97,12
0,67,100,0
0,59,101,0
0,67,48,0
0,64,41,0
0,72,50,0
0,77,97,0
0,77,107,0
0,36,108,12
0,42,89,0
0,43,107,0
0,62,45,0
0,67,43,0
0,71,46,0
0,79,99,0
0,79,106,0
0,67,104,12
0,62,96,0
0,59,99,0
0,71,46,0
0,62,49,0
0,79,105,0
0,79,107,0
0,42,75,12
0,69,97,0
0,62,102,0
0,59,100,0
0,62,41,0
0,71,48,0
0,67,41,0
0,36,107,12
0,43,105,0
0,67,45,0
0,62,48,0
0,59,46,0
0,79,96,0
0,79,104,0
0,38,105,12
0,42,87,0
0,43,106,0
0,62,100,0
0,67,100,0
0,59,97,0
0,67,41,0
0,62,49,0
0,71,47,0
0,67,44,12
0,62,45,0
0,71,41,0
0,42,79,12
0,69,99,0
0,62,97,0
0,59,103,0
0,74,49,0
0,71,46,0
0,67,44,0
0,62,41,12
0,67,43,0
0,71,43,0
0,42,89,12
0,36,106,0
0,36,106,0
0,64,103,0
0,67,102,0
0,60,102,0
0,72,42,0
0,67,45,0
0,64,47,0
0,79,101,0
0,64,48,12
0,67,50,0
0,72,43,0
0,42,80,12
0,69,100,0
0,64,102,0
0,60,100,0
0,72,41,0
0,67,48,0
0,64,49,0
0,36,107,12
0,36,109,0
0,72,48,0
0,67,43,0
0,64,50,0
0,38,108,12
0,42,87,0
0,36,105,0
0,67,101,0
0,64,96,0
0,60,96,0
0,64,41,0
0,72,46,0
0,67,49,0
0,81,101,0
0,81,109,0
0,67,43,12
0,60,44,0
0,64,42,0
0,42,79,12
0,69,98,0
0,64,102,0
0,60,102,0
0,67,49,0
0,72,47,0
0,67,96,12
0,64,96,0
0,60,100,0
0,67,43,0
0,64,50,0
0,72,47,0
0,36,108,12
0,42,85,0
0,36,105,0
0,67,44,0
0,64,48,0
0,72,44,0
0,79,100,0
0,79,104,0
0,64,104,12
0,60,104,0
0,67,104,0
0,52,92,0
0,60,43,0
0,72,43,0
0,67,49,0
0,42,82,12
0,69,99,0
0,64,97,0
0,60,101,0
0,57,90,0
0,60,49,0
0,67,41,0
0,64,42,0
0,36,113,12
0,36,103,0
0,52,92,0
0,67,46,0
0,72,42,0
0,64,49,0
0,38,105,12
0,42,82,0
0,43,105,0
0,67,102,0
0,64,99,0
0,60,98,0
0,55,92,0
0,72,49,0
0,67,46,0
0,64,45,0
0,57,93,12
0,67,50,0
0,64,42,0
0,72,45,0
0,42,76,12
0,41,102,0
0,69,103,0
0,64,104,0
