track,note,velocity,time
1,60,110,672
1,60,0,96
1,72,110,0
1,72,0,192
1,74,110,0
1,74,0,192
1,72,110,0
1,72,0,96
1,60,110,192
1,60,0,96
1,72,110,0
1,72,0,192
1,74,110,0
1,74,0,192
1,72,110,0
1,72,0,48
1,70,110,0
1,70,0,144
1,65,110,0
1,65,0,192
1,70,110,0
1,70,0,192
1,72,110,0
1,72,0,192
1,69,110,0
1,69,0,192
1,65,110,0
1,65,0,192
1,58,110,0
1,60,110,0
1,58,0,768
1,60,0,0
1,72,110,0
1,76,110,0
1,79,110,0
1,72,0,96
1,76,0,0
1,79,0,0
1,72,110,96
1,76,110,0
1,81,110,0
1,72,0,192
1,76,0,0
1,81,0,0
1,79,110,0
1,79,0,192
1,71,110,192
1,76,110,0
1,79,110,0
1,71,0,96
1,76,0,0
1,79,0,0
1,71,110,96
1,76,110,0
1,81,110,0
1,71,0,192
1,76,0,0
1,81,0,0
1,71,110,0
1,76,110,0
1,79,110,0
1,71,0,192
1,76,0,0
1,79,0,0
1,69,110,192
1,72,110,0
1,77,110,0
1,69,0,96
1,72,0,0
1,77,0,0
1,69,110,96
1,72,110,0
1,81,110,0
1,69,0,192
1,72,0,0
1,81,0,0
1,79,110,0
1,79,0,192
1,76,110,96
1,76,0,48
1,77,110,0
1,77,0,48
1,79,110,0
1,79,0,48
1,79,110,0
1,79,0,96
1,79,110,0
1,79,0,144
1,76,110,0
1,76,0,48
1,77,110,0
1,77,0,48
1,79,110,0
1,79,0,48
1,79,110,0
1,79,0,96
1,79,110,0
1,79,0,240
1,72,110,0
1,76,110,0
1,79,110,0
1,72,0,96
1,76,0,0
1,79,0,0
1,72,110,96
1,76,110,0
1,81,110,0
1,72,0,192
1,76,0,0
1,81,0,0
1,79,110,0
1,79,0,192
1,71,110,192
1,76,110,0
1,79,110,0
1,71,0,96
1,76,0,0
1,79,0,0
1,71,110,96
1,76,110,0
1,81,110,0
1,71,0,192
1,76,0,0
1,81,0,0
1,71,110,0
1,76,110,0
1,79,110,0
1,71,0,96
1,76,0,0
1,79,0,0
1,69,110,288
1,72,110,0
1,77,110,0
1,69,0,96
1,72,0,0
1,77,0,0
1,69,110,96
1,72,110,0
1,81,110,0
1,69,0,192
1,72,0,0
1,81,0,0
1,79,110,0
1,79,0,96
1,76,110,192
1,76,0,48
1,77,110,0
1,77,0,48
1,79,110,0
1,79,0,48
1,79,110,0
1,79,0,96
1,79,110,0
1,79,0,144
1,76,110,0
1,76,0,48
1,77,110,0
1,77,0,48
1,79,110,0
1,79,0,48
1,79,110,0
1,79,0,96
1,79,110,0
1,79,0,240
1,64,110,0
1,67,110,0
1,64,0,384
1,67,0,0
1,67,110,0
1,72,110,0
1,67,0,384
1,72,0,0
1,71,110,0
1,76,110,0
1,71,0,768
1,76,0,0
1,72,110,0
1,77,110,0
1,72,0,384
1,77,0,0
1,72,110,0
1,72,0,384
1,72,110,0
1,76,110,0
1,72,0,384
1,76,0,0
1,71,110,0
1,74,110,0
1,71,0,384
1,74,0,0
1,64,110,0
1,67,110,0
1,64,0,384
1,67,0,0
1,64,110,0
1,67,110,0
1,64,0,288
1,67,0,0
1,59,110,0
1,64,110,0
1,59,0,864
1,64,0,0
1,72,110,0
1,77,110,0
1,72,0,768
1,77,0,0
1,79,110,96
1,79,0,96
1,76,110,0
1,76,0,48
1,72,110,0
1,72,0,48
1,69,110,0
1,69,0,96
1,67,110,0
1,67,0,192
1,81,110,672
1,81,0,96
1,79,110,0
1,79,0,48
1,81,110,0
1,81,0,144
1,81,110,480
1,81,0,96
1,79,110,0
1,79,0,48
1,81,110,0
1,81,0,144
1,69,110,0
1,69,0,768
1,79,110,96
1,79,0,96
1,76,110,0
1,76,0,48
1,72,110,0
1,72,0,48
1,69,110,0
1,69,0,96
1,67,110,0
1,67,0,192
1,64,110,192
1,67,110,0
1,64,0,384
1,67,0,0
1,67,110,0
1,72,110,0
1,67,0,384
1,72,0,0
1,71,110,0
1,76,110,0
1,71,0,384
1,76,0,0
1,76,110,0
1,79,110,0
1,76,0,384
1,79,0,0
1,72,110,0
1,77,110,0
1,72,0,768
1,77,0,0
1,72,110,0
1,76,110,0
1,72,0,384
1,76,0,0
1,71,110,0
1,74,110,0
1,71,0,384
1,74,0,0
1,66,110,0
1,78,110,0
1,66,0,768
1,78,0,0
1,67,110,0
1,79,110,0
1,67,0,1440
1,79,0,0
1,71,110,0
1,71,0,96
1,67,110,0
1,79,110,0
1,67,0,288
1,79,0,0
1,73,110,0
1,73,0,480
1,66,110,0
1,78,110,0
1,66,0,768
1,78,0,0
1,67,110,0
1,79,110,0
1,67,0,1440
1,79,0,0
1,71,110,0
1,71,0,96
1,67,110,0
1,79,110,0
1,67,0,288
1,79,0,0
1,73,110,0
1,73,0,480
1,72,110,0
1,76,110,0
1,79,110,0
1,72,0,96
1,76,0,0
1,79,0,0
1,72,110,96
1,76,110,0
1,81,110,0
1,72,0,192
1,76,0,0
1,81,0,0
1,79,110,0
1,79,0,192
1,71,110,192
1,76,110,0
1,79,110,0
1,71,0,96
1,76,0,0
1,79,0,0
1,71,110,96
1,76,110,0
1,81,110,0
1,71,0,192
1,76,0,0
1,81,0,0
1,71,110,0
1,76,110,0
1,79,110,0
1,71,0,192
1,76,0,0
1,79,0,0
1,69,110,192
1,72,110,0
1,77,110,0
1,69,0,96
1,72,0,0
1,77,0,0
1,69,110,96
1,72,110,0
1,81,110,0
1,69,0,192
1,72,0,0
1,81,0,0
1,79,110,0
1,79,0,192
1,76,110,96
1,76,0,48
1,77,110,0
1,77,0,48
1,79,110,0
1,79,0,48
1,79,110,0
1,79,0,96
1,79,110,0
1,79,0,144
1,76,110,0
1,76,0,48
1,77,110,0
1,77,0,48
1,79,110,0
1,79,0,48
1,79,110,0
1,79,0,96
1,79,110,0
1,79,0,240
1,72,110,0
1,76,110,0
1,79,110,0
1,72,0,96
1,76,0,0
1,79,0,0
1,72,110,96
1,76,110,0
1,81,110,0
1,72,0,192
1,76,0,0
1,81,0,0
1,79,110,0
1,79,0,192
1,71,110,192
1,76,110,0
1,79,110,0
1,71,0,96
1,76,0,0
1,79,0,0
1,71,110,96
1,76,110,0
1,81,110,0
1,71,0,192
1,76,0,0
1,81,0,0
1,71,110,0
1,76,110,0
1,79,110,0
1,71,0,192
1,76,0,0
1,79,0,0
1,69,110,192
1,72,110,0
1,77,110,0
1,69,0,96
1,72,0,0
1,77,0,0
1,69,110,96
1,72,110,0
1,81,110,0
1,69,0,192
1,72,0,0
1,81,0,0
1,79,110,0
1,79,0,192
1,76,110,96
1,76,0,48
1,77,110,0
1,77,0,48
1,79,110,0
1,79,0,48
1,79,110,0
1,79,0,96
1,79,110,0
1,79,0,144
1,76,110,0
1,76,0,48
1,77,110,0
1,77,0,48
1,79,110,0
1,79,0,48
1,79,110,0
1,79,0,96
1,79,110,0
1,79,0,240
1,64,110,0
1,67,110,0
1,64,0,384
1,67,0,0
1,67,110,0
1,72,110,0
1,67,0,384
1,72,0,0
1,71,110,0
1,76,110,0
1,71,0,768
1,76,0,0
1,72,110,0
1,77,110,0
1,72,0,384
1,77,0,0
1,72,110,0
1,72,0,384
1,72,110,0
1,76,110,0
1,72,0,384
1,76,0,0
1,71,110,0
1,74,110,0
1,71,0,384
1,74,0,0
1,81,110,480
1,81,0,96
1,79,110,0
1,79,0,48
1,81,110,0
1,81,0,144
1,81,110,480
1,81,0,96
1,79,110,0
1,79,0,48
1,81,110,0
1,81,0,144
1,69,110,0
1,69,0,768
1,79,110,96
1,79,0,96
1,76,110,0
1,76,0,48
1,72,110,0
1,72,0,48
1,69,110,0
1,69,0,96
1,67,110,0
1,67,0,192
1,64,110,192
1,67,110,0
1,64,0,384
1,67,0,0
1,67,110,0
1,72,110,0
1,67,0,384
1,72,0,0
1,71,110,0
1,76,110,0
1,71,0,384
1,76,0,0
1,76,110,0
1,79,110,0
1,76,0,384
1,79,0,0
1,72,110,0
1,77,110,0
1,72,0,768
1,77,0,0
1,72,110,0
1,76,110,0
1,72,0,384
1,76,0,0
1,71,110,0
1,74,110,0
1,71,0,384
1,74,0,0
1,66,110,0
1,78,110,0
1,66,0,768
1,78,0,0
1,67,110,0
1,79,110,0
1,67,0,1440
1,79,0,0
1,71,110,0
1,71,0,96
1,67,110,0
1,79,110,0
1,67,0,288
1,79,0,0
1,73,110,0
1,73,0,480
1,66,110,0
1,78,110,0
1,66,0,768
1,78,0,0
1,67,110,0
1,79,110,0
1,67,0,1440
1,79,0,0
1,71,110,0
1,71,0,96
1,67,110,0
1,79,110,0
1,67,0,288
1,79,0,0
1,73,110,0
1,73,0,480
1,73,110,3840
1,73,0,384
1,74,110,0
1,74,0,384
1,76,110,0
1,76,0,384
1,78,110,0
1,78,0,384
1,79,110,0
1,79,0,384
1,81,110,0
1,81,0,384
1,83,110,0
1,83,0,384
1,85,110,0
1,85,0,384
1,83,110,0
1,83,0,768
1,74,110,768
1,74,0,768
1,81,110,0
1,81,0,768
2,36,110,0
2,36,0,142
2,36,110,2
2,36,0,46
2,36,110,2
2,36,0,94
2,36,110,98
2,36,0,142
2,36,110,2
2,36,0,46
2,36,110,2
2,36,0,94
2,41,110,98
2,41,0,142
2,41,110,2
2,41,0,46
2,41,110,2
2,41,0,160
2,36,110,32
2,36,0,142
2,36,110,2
2,36,0,46
2,36,110,2
2,36,0,160
2,41,110,32
2,41,0,142
2,41,110,2
2,41,0,46
2,41,110,2
2,41,0,160
2,46,110,32
2,46,0,142
2,46,110,2
2,46,0,46
2,46,110,2
2,46,0,160
2,46,110,32
2,46,0,142
2,46,110,2
2,46,0,46
2,46,110,2
2,46,0,160
2,41,110,32
2,41,0,142
2,41,110,2
2,41,0,46
2,41,110,2
2,41,0,160
2,36,110,32
2,36,0,142
2,36,110,2
2,36,0,46
2,36,110,2
2,36,0,160
2,36,110,32
2,36,0,142
2,36,110,2
2,36,0,46
2,36,110,2
2,36,0,160
2,36,110,32
2,36,0,142
2,36,110,2
2,36,0,46
2,36,110,2
2,36,0,160
2,36,110,32
2,36,0,142
2,36,110,2
2,36,0,46
2,36,110,2
2,36,0,160
2,40,110,32
2,40,0,142
2,40,110,2
2,40,0,46
2,40,110,2
2,40,0,160
2,40,110,32
2,40,0,142
2,40,110,2
2,40,0,46
2,40,110,2
2,40,0,160
2,41,110,32
2,41,0,142
2,41,110,2
2,41,0,46
2,41,110,2
2,41,0,160
2,41,110,32
2,41,0,142
2,41,110,2
2,41,0,46
2,41,110,2
2,41,0,160
2,36,110,32
2,36,0,160
2,36,110,32
2,36,0,160
2,43,110,32
2,43,0,160
2,43,110,32
2,43,0,160
2,36,110,32
2,36,0,142
2,36,110,2
2,36,0,46
2,36,110,2
2,36,0,160
2,36,110,32
2,36,0,142
2,36,110,2
2,36,0,46
2,36,110,2
2,36,0,160
2,40,110,32
2,40,0,142
2,40,110,2
2,40,0,46
2,40,110,2
2,40,0,160
2,40,110,32
2,40,0,142
2,40,110,2
2,40,0,46
2,40,110,2
2,40,0,160
2,41,110,32
2,41,0,142
2,41,110,2
2,41,0,46
2,41,110,2
2,41,0,160
2,41,110,32
2,41,0,142
2,41,110,2
2,41,0,46
2,41,110,2
2,41,0,160
2,36,110,32
2,36,0,160
2,36,110,32
2,36,0,160
2,43,110,32
2,43,0,160
2,43,110,32
2,43,0,160
2,36,110,32
2,36,0,142
2,36,110,2
2,36,0,46
2,36,110,2
2,36,0,160
2,36,110,32
2,36,0,160
2,36,110,32
2,36,0,160
2,40,110,32
2,40,0,142
2,40,110,2
2,40,0,46
2,40,110,2
2,40,0,160
2,40,110,32
2,40,0,142
2,40,110,2
2,40,0,46
2,40,110,2
2,40,0,160
2,41,110,32
2,41,0,160
2,41,110,32
2,41,0,160
2,41,110,32
2,41,0,160
2,41,110,32
2,41,0,160
2,36,110,32
2,36,0,160
2,36,110,32
2,36,0,160
2,43,110,32
2,43,0,142
2,43,110,2
2,43,0,46
2,43,110,2
2,43,0,160
2,36,110,32
2,36,0,142
2,36,110,2
2,36,0,46
2,36,110,2
2,36,0,160
2,36,110,32
2,36,0,160
2,36,110,32
2,36,0,160
2,40,110,32
2,40,0,142
2,40,110,2
2,40,0,46
2,40,110,2
2,40,0,160
2,40,110,32
2,40,0,142
2,40,110,2
2,40,0,46
2,40,110,2
2,40,0,160
2,41,110,32
2,41,0,160
2,41,110,32
2,41,0,160
2,41,110,32
2,41,0,160
2,41,110,32
2,41,0,160
2,36,110,32
2,36,0,160
2,36,110,32
2,36,0,160
2,43,110,32
2,43,0,142
2,43,110,2
2,43,0,46
2,43,110,2
2,43,0,160
2,36,110,32
2,36,0,142
2,36,110,2
2,36,0,46
2,36,110,2
2,36,0,160
2,36,110,32
2,36,0,142
2,36,110,2
2,36,0,46
2,36,110,2
2,36,0,160
2,40,110,32
2,40,0,142
2,40,110,2
2,40,0,46
2,40,110,2
2,40,0,160
2,40,110,32
2,40,0,142
2,40,110,2
2,40,0,46
2,40,110,2
2,40,0,160
2,41,110,32
2,41,0,160
2,41,110,32
2,41,0,160
2,41,110,32
2,41,0,160
2,41,110,32
2,41,0,160
2,36,110,32
2,36,0,142
2,36,110,2
2,36,0,46
2,36,110,2
2,36,0,160
2,43,110,32
2,43,0,160
2,43,110,32
2,43,0,160
2,36,110,32
2,36,0,142
2,36,110,2
2,36,0,46
2,36,110,2
2,36,0,160
2,36,110,32
2,36,0,142
2,36,110,2
2,36,0,46
2,36,110,2
2,36,0,160
2,40,110,32
2,40,0,142
2,40,110,2
2,40,0,46
2,40,110,2
2,40,0,160
2,40,110,32
2,40,0,142
2,40,110,2
2,40,0,46
2,40,110,2
2,40,0,160
2,41,110,32
2,41,0,142
2,41,110,2
2,41,0,46
2,41,110,2
2,41,0,160
2,41,110,32
2,41,0,142
2,41,110,2
2,41,0,46
2,41,110,2
2,41,0,160
2,36,110,32
2,36,0,142
2,36,110,2
2,36,0,46
2,36,110,2
2,36,0,160
2,41,110,32
2,41,0,142
2,41,110,2
2,41,0,46
2,41,110,2
2,41,0,160
2,43,110,32
2,43,0,160
2,43,110,32
2,43,0,160
2,43,110,32
2,43,0,160
2,43,110,32
2,43,0,160
2,38,110,0
2,38,0,160
2,45,110,32
2,45,0,160
2,50,110,32
2,50,0,94
2,47,110,2
2,47,0,94
2,45,110,2
2,45,0,94
2,47,110,2
2,47,0,94
2,45,110,2
2,45,0,160
2,40,110,32
2,40,0,160
2,45,110,32
2,45,0,160
2,33,110,32
2,33,0,160
2,40,110,32
2,40,0,94
2,35,110,2
2,35,0,94
2,38,110,2
2,38,0,94
2,40,110,2
2,40,0,256
2,40,110,32
2,40,0,94
2,43,110,2
2,43,0,190
2,38,110,2
2,38,0,94
2,43,110,2
2,43,0,94
2,45,110,2
2,45,0,190
2,40,110,2
2,40,0,94
2,41,110,2
2,41,0,94
2,42,110,2
2,42,0,94
2,38,110,2
2,38,0,160
2,45,110,32
2,45,0,160
2,50,110,32
2,50,0,94
2,47,110,2
2,47,0,94
2,45,110,2
2,45,0,94
2,47,110,2
2,47,0,94
2,45,110,2
2,45,0,160
2,40,110,32
2,40,0,160
2,45,110,32
2,45,0,160
2,33,110,32
2,33,0,160
2,40,110,32
2,40,0,94
2,35,110,2
2,35,0,94
2,38,110,2
2,38,0,94
2,40,110,2
2,40,0,256
2,40,110,32
2,40,0,94
2,43,110,2
2,43,0,190
2,38,110,2
2,38,0,94
2,43,110,2
2,43,0,94
2,45,110,2
2,45,0,190
2,40,110,2
2,40,0,94
2,41,110,2
2,41,0,94
2,42,110,2
2,42,0,94
2,33,110,0
2,33,0,160
2,33,110,32
2,33,0,160
2,33,110,32
2,33,0,160
2,33,110,32
2,33,0,160
2,33,110,32
2,33,0,160
2,33,110,32
2,33,0,160
2,33,110,32
2,33,0,160
2,33,110,32
2,33,0,160
2,36,110,0
2,36,0,142
2,36,110,2
2,36,0,46
2,36,110,2
2,36,0,160
