track,note,velocity,time
1,35,117,12934
1,47,105,22
1,47,97,44
1,35,117,26
1,47,105,6
1,47,97,48
1,35,117,22
1,47,105,2
1,47,97,44
1,35,117,22
1,47,105,38
1,47,97,46
1,31,117,28
1,43,105,22
1,43,97,44
1,31,117,26
1,43,105,6
1,43,97,48
1,33,117,22
1,45,105,2
1,45,97,44
1,33,117,22
1,45,105,38
1,45,97,46
1,35,117,28
1,47,105,22
1,47,97,44
1,35,117,26
1,47,105,6
1,47,97,48
1,35,117,22
1,47,105,2
1,47,97,44
1,35,117,22
1,47,105,38
1,47,97,46
1,31,117,28
1,43,105,22
1,43,97,44
1,31,117,26
1,43,105,6
1,43,97,48
1,33,117,22
1,45,105,2
1,45,97,44
1,33,117,22
1,45,105,38
1,45,97,46
1,35,117,28
1,47,105,22
1,47,97,44
1,35,117,26
1,47,105,6
1,47,97,48
1,35,117,22
1,47,105,2
1,47,97,44
1,35,117,22
1,47,105,38
1,47,97,46
1,31,117,28
1,43,105,22
1,43,97,44
1,31,117,26
1,43,105,6
1,43,97,48
1,33,117,22
1,45,105,2
1,45,97,44
1,33,117,22
1,45,105,38
1,45,97,46
1,35,117,28
1,47,105,22
1,47,97,44
1,35,117,26
1,47,105,6
1,47,97,48
1,35,117,22
1,47,105,2
1,47,97,44
1,35,117,22
1,47,105,38
1,47,97,46
1,31,117,28
1,43,105,22
1,43,97,44
1,31,117,26
1,43,105,6
1,43,97,48
1,33,117,22
1,45,105,2
1,45,97,44
1,33,117,22
1,45,105,38
1,45,97,46
1,35,113,28
1,47,101,22
1,47,93,44
1,35,113,26
1,47,101,6
1,47,93,48
1,35,113,22
1,47,101,2
1,47,93,44
1,35,113,22
1,47,101,38
1,47,93,46
1,31,113,28
1,43,101,22
1,43,93,44
1,31,113,26
1,43,101,6
1,43,93,48
1,33,113,22
1,45,101,2
1,45,93,44
1,33,113,22
1,45,101,38
1,45,93,46
1,35,113,28
1,47,101,22
1,47,93,44
1,35,113,26
1,47,101,6
1,47,93,48
1,35,113,22
1,47,101,2
1,47,93,44
1,35,113,22
1,47,101,38
1,47,93,46
1,31,113,28
1,43,101,22
1,43,93,44
1,31,113,26
1,43,101,6
1,43,93,48
1,33,113,22
1,45,101,2
1,45,93,44
1,33,113,22
1,45,101,38
1,45,93,46
1,35,113,28
1,47,101,22
1,47,93,44
1,35,113,26
1,47,101,6
1,47,93,48
1,35,113,22
1,47,101,2
1,47,93,44
1,35,113,22
1,47,101,38
1,47,93,46
1,31,113,28
1,43,101,22
1,43,93,44
1,31,113,26
1,43,101,6
1,43,93,48
1,33,113,22
1,45,101,2
1,45,93,44
1,33,113,22
1,45,101,38
1,45,93,46
1,35,113,28
1,47,101,22
1,47,93,44
1,35,113,26
1,47,101,6
1,47,93,48
1,35,113,22
1,47,101,2
1,47,93,44
1,35,113,22
1,47,101,38
1,47,93,46
1,31,113,28
1,43,101,22
1,43,93,44
1,31,113,26
1,43,101,6
1,43,93,48
1,33,113,22
1,45,101,2
1,45,93,44
1,33,113,22
1,45,101,38
1,45,93,46
1,35,117,28
1,47,105,22
1,47,97,44
1,35,117,26
1,47,105,6
1,47,97,48
1,35,117,22
1,47,105,2
1,47,97,44
1,35,117,22
1,47,105,38
1,47,97,46
1,31,117,28
1,43,105,22
1,43,97,44
1,31,117,26
1,43,105,6
1,43,97,48
1,33,117,22
1,45,105,2
1,45,97,44
1,33,117,22
1,45,105,38
1,45,97,46
1,35,117,28
1,47,105,22
1,47,97,44
1,35,117,26
1,47,105,6
1,47,97,48
1,35,117,22
1,47,105,2
1,47,97,44
1,35,117,22
1,47,105,38
1,47,97,46
1,31,117,28
1,43,105,22
1,43,97,44
1,31,117,26
1,43,105,6
1,43,97,48
1,33,117,22
1,45,105,2
1,45,97,44
1,33,117,22
1,45,105,38
1,45,97,46
1,35,117,28
1,47,105,22
1,47,97,44
1,35,117,26
1,47,105,6
1,47,97,48
1,35,117,22
1,47,105,2
1,47,97,44
1,35,117,22
1,47,105,38
1,47,97,46
1,31,117,28
1,43,105,22
1,43,97,44
1,31,117,26
1,43,105,6
1,43,97,48
1,33,117,22
1,45,105,2
1,45,97,44
1,33,117,22
1,45,105,38
1,45,97,46
1,35,117,28
1,47,105,22
1,47,97,44
1,35,117,26
1,47,105,6
1,47,97,48
1,35,117,22
1,47,105,2
1,47,97,44
1,35,117,22
1,47,105,38
1,47,97,46
1,31,117,28
1,43,105,22
1,43,97,44
1,31,117,26
1,43,105,6
1,43,97,48
1,33,117,22
1,45,105,2
1,45,97,44
1,33,117,22
1,45,105,38
1,45,97,46
1,35,117,28
1,47,105,22
1,47,97,44
1,35,117,26
1,47,105,6
1,47,97,48
1,35,117,22
1,47,105,2
1,47,97,44
1,35,117,22
1,47,105,38
1,47,97,46
1,31,117,28
1,43,105,22
1,43,97,44
1,31,117,26
1,43,105,6
1,43,97,48
1,33,117,22
1,45,105,2
1,45,97,44
1,33,117,22
1,45,105,38
1,45,97,46
1,35,117,28
1,47,105,22
1,47,97,44
1,35,117,26
1,47,105,6
1,47,97,48
1,35,117,22
1,47,105,2
1,47,97,44
1,35,117,22
1,47,105,38
1,47,97,46
1,31,117,28
1,43,105,22
1,43,97,44
1,31,117,26
1,43,105,6
1,43,97,48
1,33,117,22
1,45,105,2
1,45,97,44
1,33,117,22
1,45,105,38
1,45,97,46
1,35,117,28
1,47,105,22
1,47,97,44
1,35,117,26
1,47,105,6
1,47,97,48
1,35,117,22
1,47,105,2
1,47,97,44
1,35,117,22
1,47,105,38
1,47,97,46
1,31,117,28
1,43,105,22
1,43,97,44
1,31,117,26
1,43,105,6
1,43,97,48
1,33,117,22
1,45,105,2
1,45,97,44
1,33,117,22
1,45,105,38
1,45,97,46
1,35,117,28
1,47,105,22
1,47,97,44
1,35,117,26
1,47,105,6
1,47,97,48
1,35,117,22
1,47,105,2
1,47,97,44
1,35,117,22
1,47,105,38
1,47,97,46
1,31,117,28
1,43,105,22
1,43,97,44
1,31,117,26
1,43,105,6
1,43,97,48
1,33,117,22
1,45,105,2
1,45,97,44
1,33,117,22
1,45,105,38
1,45,97,46
1,35,117,28
1,47,105,22
1,47,97,44
1,35,117,26
1,47,105,6
1,47,97,48
1,35,117,22
1,47,105,2
1,47,97,44
1,35,117,22
1,47,105,38
1,47,97,46
1,31,117,28
1,43,105,22
1,43,97,44
1,31,117,26
1,43,105,6
1,43,97,48
1,33,117,22
1,45,105,2
1,45,97,44
1,33,117,22
1,45,105,38
1,45,97,46
1,35,85,28
1,47,85,26
1,35,85,26
1,47,85,26
1,35,85,26
1,47,85,26
1,35,85,26
1,47,85,26
1,35,85,26
1,47,85,26
1,35,85,26
1,47,85,26
1,35,85,26
1,47,85,26
1,35,85,26
1,47,85,26
1,35,117,26
1,47,105,22
1,47,97,44
1,35,117,26
1,47,105,6
1,47,97,48
1,35,117,22
1,47,105,2
1,47,97,44
1,35,117,22
1,47,105,38
1,47,97,46
1,31,117,28
1,43,105,22
1,43,97,44
1,31,117,26
1,43,105,6
1,43,97,48
1,33,117,22
1,45,105,2
1,45,97,44
1,33,117,22
1,45,105,38
1,45,97,46
1,35,117,28
1,47,105,22
1,47,97,44
1,35,117,26
1,47,105,6
1,47,97,48
1,35,117,22
1,47,105,2
1,47,97,44
1,35,117,22
1,47,105,38
1,47,97,46
1,31,117,28
1,43,105,22
1,43,97,44
1,31,117,26
1,43,105,6
1,43,97,48
1,33,117,22
1,45,105,2
1,45,97,44
1,33,117,22
1,45,105,38
1,45,97,46
1,35,113,28
1,47,101,22
1,47,93,44
1,35,113,26
1,47,101,6
1,47,93,48
1,35,113,22
1,47,101,2
1,47,93,44
1,35,113,22
1,47,101,38
1,47,93,46
1,31,113,28
1,43,101,22
1,43,93,44
1,31,113,26
1,43,101,6
1,43,93,48
1,33,113,22
1,45,101,2
1,45,93,44
1,33,113,22
1,45,101,38
1,45,93,46
1,35,113,28
1,47,101,22
1,47,93,44
1,35,113,26
1,47,101,6
1,47,93,48
1,35,113,22
1,47,101,2
1,47,93,44
1,35,113,22
1,47,101,38
1,47,93,46
1,31,113,28
1,43,101,22
1,43,93,44
1,31,113,26
1,43,101,6
1,43,93,48
1,33,113,22
1,45,101,2
1,45,93,44
1,33,113,22
1,45,101,38
1,45,93,46
1,35,113,28
1,47,101,22
1,47,93,44
1,35,113,26
1,47,101,6
1,47,93,48
1,35,113,22
1,47,101,2
1,47,93,44
1,35,113,22
1,47,101,38
1,47,93,46
1,31,113,28
1,43,101,22
1,43,93,44
1,31,113,26
1,43,101,6
1,43,93,48
1,33,113,22
1,45,101,2
1,45,93,44
1,33,113,22
1,45,101,38
1,45,93,46
1,35,113,28
1,47,101,22
1,47,93,44
1,35,113,26
1,47,101,6
1,47,93,48
1,35,113,22
1,47,101,2
1,47,93,44
1,35,113,22
1,47,101,38
1,47,93,46
1,31,113,28
1,43,101,22
1,43,93,44
1,31,113,26
1,43,101,6
1,43,93,48
1,33,113,22
1,45,101,2
1,45,93,44
1,33,113,22
1,45,101,38
1,45,93,46
1,35,117,28
1,47,105,22
1,47,97,44
1,35,117,26
1,47,105,6
1,47,97,48
1,35,117,22
1,47,105,2
1,47,97,44
1,35,117,22
1,47,105,38
1,47,97,46
1,31,117,28
1,43,105,22
1,43,97,44
1,31,117,26
1,43,105,6
1,43,97,48
1,33,117,22
1,45,105,2
1,45,97,44
1,33,117,22
1,45,105,38
1,45,97,46
1,35,117,28
1,47,105,22
1,47,97,44
1,35,117,26
1,47,105,6
1,47,97,48
1,35,117,22
1,47,105,2
1,47,97,44
1,35,117,22
1,47,105,38
1,47,97,46
1,31,117,28
1,43,105,22
1,43,97,44
1,31,117,26
1,43,105,6
1,43,97,48
1,33,117,22
1,45,105,2
1,45,97,44
1,33,117,22
1,45,105,38
1,45,97,46
1,35,117,28
1,47,105,22
1,47,97,44
1,35,117,26
1,47,105,6
1,47,97,48
1,35,117,22
1,47,105,2
1,47,97,44
1,35,117,22
1,47,105,38
1,47,97,46
1,31,117,28
1,43,105,22
1,43,97,44
1,31,117,26
1,43,105,6
1,43,97,48
1,33,117,22
1,45,105,2
1,45,97,44
1,33,117,22
1,45,105,38
1,45,97,46
1,35,117,28
1,47,105,22
1,47,97,44
1,35,117,26
1,47,105,6
1,47,97,48
1,35,117,22
1,47,105,2
1,47,97,44
1,35,117,22
1,47,105,38
1,47,97,46
1,31,117,28
1,43,105,22
1,43,97,44
1,31,117,26
1,43,105,6
1,43,97,48
1,33,117,22
1,45,105,2
1,45,97,44
1,33,117,22
1,45,105,38
1,45,97,46
1,35,117,28
1,47,105,22
1,47,97,44
1,35,117,26
1,47,105,6
1,47,97,48
1,35,117,22
1,47,105,2
1,47,97,44
1,35,117,22
1,47,105,38
1,47,97,46
1,31,117,28
1,43,105,22
1,43,97,44
1,31,117,26
1,43,105,6
1,43,97,48
1,33,117,22
1,45,105,2
1,45,97,44
1,33,117,22
1,45,105,38
1,45,97,46
1,35,117,28
1,47,105,22
1,47,97,44
1,35,117,26
1,47,105,6
1,47,97,48
1,35,117,22
1,47,105,2
1,47,97,44
1,35,117,22
1,47,105,38
1,47,97,46
1,31,117,28
1,43,105,22
1,43,97,44
1,31,117,26
1,43,105,6
1,43,97,48
1,33,117,22
1,45,105,2
1,45,97,44
1,33,117,22
1,45,105,38
1,45,97,46
1,35,117,28
1,47,105,22
1,47,97,44
1,35,117,26
1,47,105,6
1,47,97,48
1,35,117,22
1,47,105,2
1,47,97,44
1,35,117,22
1,47,105,38
1,47,97,46
1,31,117,28
1,43,105,22
1,43,97,44
1,31,117,26
1,43,105,6
1,43,97,48
1,33,117,22
1,45,105,2
1,45,97,44
1,33,117,22
1,45,105,38
1,45,97,46
1,35,117,28
1,47,105,22
1,47,97,44
1,35,117,26
1,47,105,6
1,47,97,48
1,35,117,22
1,47,105,2
1,47,97,44
1,35,117,22
1,47,105,38
1,47,97,46
1,31,117,28
1,43,105,22
1,43,97,44
1,31,117,26
1,43,105,6
1,43,97,48
1,33,117,22
1,45,105,2
1,45,97,44
1,33,117,22
1,45,105,38
1,45,97,46
1,35,105,28
1,47,93,22
1,47,85,44
1,35,105,26
1,47,93,6
1,47,85,48
1,35,105,22
1,47,93,2
1,47,85,44
1,35,105,22
1,47,93,38
1,47,85,46
1,35,105,28
1,47,93,22
1,47,85,44
1,35,105,26
1,47,93,6
1,47,85,48
1,35,105,22
1,47,93,2
1,47,85,44
1,35,105,22
1,47,93,38
1,47,85,46
1,35,105,28
1,47,93,22
1,47,85,44
1,35,105,26
1,47,93,6
1,47,85,48
1,35,105,22
1,47,93,2
1,47,85,44
1,35,105,22
1,47,93,38
1,47,85,46
1,35,105,28
1,47,93,22
1,47,85,44
1,35,105,26
1,47,93,6
1,47,85,48
1,35,105,22
1,47,93,2
1,47,85,44
1,35,105,22
1,47,93,38
1,47,85,46
1,35,105,28
1,47,93,22
1,47,85,44
1,35,105,26
1,47,93,6
1,47,85,48
1,35,105,22
1,47,93,2
1,47,85,44
1,35,105,22
1,47,93,38
1,47,85,46
1,31,105,28
1,43,93,22
1,43,85,44
1,31,105,26
1,43,93,6
1,43,85,48
1,33,105,22
1,45,93,2
1,45,85,44
1,33,105,22
1,45,93,38
1,45,85,46
1,35,105,28
1,47,93,22
1,47,85,44
1,35,105,26
1,47,93,6
1,47,85,48
1,35,105,22
1,47,93,2
1,47,85,44
1,35,105,22
1,47,93,38
1,47,85,46
1,31,105,28
1,43,93,22
1,43,85,44
1,31,105,26
1,43,93,6
1,43,85,48
1,33,105,22
1,45,93,2
1,45,85,44
1,33,105,22
1,45,93,38
1,45,85,46
1,35,120,28
1,47,108,22
1,47,100,44
1,35,120,26
1,47,108,6
1,47,100,48
1,35,120,22
1,47,108,2
1,47,100,44
1,35,120,22
1,47,108,38
1,47,100,46
1,31,120,28
1,43,108,22
1,43,100,44
1,31,120,26
1,43,108,6
1,43,100,48
1,33,120,22
1,45,108,2
1,45,100,44
1,33,120,22
1,45,108,38
1,45,100,46
1,35,120,28
1,47,108,22
1,47,100,44
1,35,120,26
1,47,108,6
1,47,100,48
1,35,120,22
1,47,108,2
1,47,100,44
1,35,120,22
1,47,108,38
1,47,100,46
1,31,120,28
1,43,108,22
1,43,100,44
1,31,120,26
1,43,108,6
1,43,100,48
1,33,120,22
1,45,108,2
1,45,100,44
1,33,120,22
1,45,108,38
1,45,100,46
1,35,120,28
1,47,108,22
1,47,100,44
1,35,120,26
1,47,108,6
1,47,100,48
1,35,120,22
1,47,108,2
1,47,100,44
1,35,120,22
1,47,108,38
1,47,100,46
1,31,120,28
1,43,108,22
1,43,100,44
1,31,120,26
1,43,108,6
1,43,100,48
1,33,120,22
1,45,108,2
1,45,100,44
1,33,120,22
1,45,108,38
1,45,100,46
1,35,120,28
1,47,108,22
1,47,100,44
1,35,120,26
1,47,108,6
1,47,100,48
1,35,120,22
1,47,108,2
1,47,100,44
1,35,120,22
1,47,108,38
1,47,100,46
1,31,120,28
1,43,108,22
1,43,100,44
1,31,120,26
1,43,108,6
1,43,100,48
1,33,120,22
1,45,108,2
1,45,100,44
1,33,120,22
1,45,108,38
1,45,100,46
1,35,121,28
1,47,109,22
1,47,101,44
1,35,121,26
1,47,109,6
1,47,101,48
1,35,121,22
1,47,109,2
1,47,101,44
1,35,121,22
1,47,109,38
1,47,101,46
1,31,121,28
1,43,109,22
1,43,101,44
1,31,121,26
1,43,109,6
1,43,101,48
1,33,121,22
1,45,109,2
1,45,101,44
1,33,121,22
1,45,109,38
1,45,101,46
1,35,121,28
1,47,109,22
1,47,101,44
1,35,121,26
1,47,109,6
1,47,101,48
1,35,121,22
1,47,109,2
1,47,101,44
1,35,121,22
1,47,109,38
1,47,101,46
1,31,121,28
1,43,109,22
1,43,101,44
1,31,121,26
1,43,109,6
1,43,101,48
1,33,121,22
1,45,109,2
1,45,101,44
1,33,121,22
1,45,109,38
1,45,101,46
