track,note,velocity,time
1,64,103,1774
1,59,113,0
1,64,110,332
1,59,117,0
1,59,117,564
1,64,117,0
1,64,111,326
1,59,117,0
1,64,104,536
1,59,110,0
1,64,101,310
1,59,115,0
1,64,103,578
1,59,113,0
1,64,100,322
1,59,106,0
1,64,101,548
1,59,110,0
1,64,98,326
1,59,108,0
1,64,101,604
1,59,106,0
1,64,101,342
1,59,105,0
1,64,97,372
1,59,104,0
1,64,102,348
1,59,108,0
1,64,99,560
1,59,110,0
1,64,100,290
1,59,108,0
1,64,102,532
1,57,106,0
1,57,104,298
1,64,104,0
1,64,104,552
1,57,104,0
1,57,102,330
1,64,103,0
1,59,102,488
1,64,98,0
1,64,97,320
1,59,110,0
1,64,95,556
1,59,104,0
1,59,103,314
1,64,97,0
1,66,109,536
1,59,104,0
1,66,102,306
1,59,97,0
1,64,101,560
1,57,98,0
1,64,98,322
1,57,96,2
1,64,95,516
1,59,99,0
1,64,96,310
1,59,103,0
1,59,110,500
1,66,116,0
1,64,99,304
1,59,103,0
1,59,101,322
1,64,94,0
1,64,96,580
1,59,102,0
1,64,91,356
1,59,99,0
1,64,88,508
1,59,97,0
1,64,89,334
1,59,101,0
1,59,103,516
1,64,94,0
1,64,90,358
1,59,104,0
1,64,98,464
1,57,101,0
1,64,100,322
1,57,98,0
1,64,100,464
1,57,99,0
1,57,105,326
1,64,101,0
1,64,98,388
1,59,103,0
1,64,97,302
1,59,97,0
1,64,96,556
1,59,101,0
1,64,96,318
1,59,101,0
1,59,103,448
1,66,106,0
1,59,99,298
1,66,108,0
1,64,102,512
1,57,101,0
1,64,98,318
1,57,100,0
1,64,97,552
1,59,102,2
1,64,96,302
1,59,102,0
1,64,98,532
1,59,104,0
1,59,103,296
1,64,94,2
1,66,108,246
1,59,110,2
1,57,117,112
1,64,113,0
1,56,117,76
1,64,110,0
1,66,117,38
1,59,117,0
1,64,115,98
1,57,117,2
1,56,117,36
1,64,113,0
1,59,117,22
1,66,114,2
1,61,117,652
1,56,117,0
1,61,117,366
1,54,117,0
1,54,117,76
1,61,117,0
1,66,116,174
1,59,115,0
1,59,113,90
1,66,117,2
1,64,100,292
1,59,108,0
1,59,108,342
1,64,98,0
1,64,99,584
1,59,106,0
1,64,94,332
1,59,103,0
1,59,101,648
1,64,94,0
1,64,91,336
1,59,99,0
1,59,100,540
1,64,100,0
1,59,99,356
1,64,94,0
1,64,104,596
1,57,100,0
1,64,99,318
1,57,101,0
1,64,99,384
1,57,97,0
1,57,100,326
1,64,97,0
1,64,96,430
1,59,100,0
1,64,95,322
1,59,102,0
1,64,94,548
1,59,101,0
1,64,94,366
1,59,101,0
1,59,99,464
1,66,107,2
1,66,103,334
1,59,94,0
1,57,98,632
1,64,96,2
1,57,100,354
1,64,101,2
1,59,103,548
1,64,94,2
1,59,103,326
1,64,98,2
1,64,95,536
1,59,103,0
1,59,97,314
1,64,90,2
1,64,89,540
1,59,94,0
1,64,89,362
1,59,94,0
1,59,89,548
1,64,83,2
1,64,87,366
1,59,89,0
1,64,85,600
1,59,89,0
1,59,94,354
1,64,86,2
1,64,85,548
1,59,92,0
1,64,88,362
1,59,88,0
1,64,90,544
1,57,92,0
1,64,91,366
1,57,91,0
1,57,95,598
1,64,96,0
1,57,93,362
1,64,94,0
1,64,93,556
1,59,97,0
1,64,91,374
1,59,97,0
1,59,97,600
1,64,91,2
1,64,92,366
1,59,97,0
1,59,96,564
1,66,103,2
1,66,107,368
1,59,98,0
1,57,96,620
1,64,98,2
1,64,96,368
1,57,91,2
1,64,94,570
1,59,97,0
1,64,91,356
1,59,94,0
1,59,96,616
1,64,93,2
1,64,88,378
1,59,95,0
1,66,101,308
1,59,100,2
1,57,115,84
1,64,104,2
1,64,106,18
1,56,117,0
1,66,112,20
1,59,115,0
1,64,117,102
1,57,117,0
1,64,108,66
1,56,117,0
1,59,117,42
1,66,114,2
1,56,117,130
1,61,117,2
1,61,117,314
1,54,117,0
1,61,117,98
1,54,117,0
1,59,113,222
1,66,114,2
1,59,110,76
1,66,117,2
1,64,97,368
1,59,102,0
1,64,96,390
1,59,101,0
1,64,90,644
1,59,97,0
1,64,90,366
1,59,100,0
1,64,91,568
1,59,98,0
1,64,89,356
1,59,95,0
1,64,94,496
1,59,98,0
1,64,91,334
1,59,101,0
1,64,97,552
1,57,96,0
1,57,94,338
1,64,93,0
1,57,94,552
1,64,95,0
1,64,94,354
1,57,89,0
1,59,98,460
1,64,93,0
1,64,94,322
1,59,98,0
1,64,92,592
1,59,99,0
1,64,90,346
1,59,99,0
1,66,106,524
1,59,97,2
1,66,106,358
1,59,97,0
1,57,98,564
1,64,96,2
1,64,96,332
1,57,95,0
1,59,99,540
1,64,92,0
1,64,90,316
1,59,97,0
1,64,94,516
1,59,101,0
1,59,96,344
1,64,93,2
1,66,106,548
1,59,98,2
1,66,106,348
1,59,96,2
1,64,94,540
1,57,94,0
1,64,91,350
1,57,95,2
1,64,91,492
1,59,96,0
1,64,92,378
1,59,98,0
1,64,89,518
1,59,94,0
1,64,90,358
1,59,97,0
1,57,98,572
1,64,98,2
1,64,101,384
1,57,100,0
1,57,97,600
1,64,99,2
1,57,99,374
1,64,98,2
1,59,101,596
1,64,97,2
1,64,94,362
1,59,101,0
1,59,98,620
1,64,95,2
1,64,94,366
1,59,103,0
1,60,69,254
1,59,97,412
1,66,106,0
1,59,98,342
1,66,107,0
1,57,101,592
1,64,98,0
1,64,98,354
1,57,99,0
1,64,94,576
1,59,101,0
1,64,93,342
1,59,99,0
1,64,95,752
1,59,94,0
1,64,90,322
1,59,97,0
1,59,100,638
1,66,103,2
1,59,103,358
1,66,103,0
1,57,99,564
1,64,100,2
1,57,106,326
1,64,99,0
1,59,100,558
1,64,96,2
1,64,95,334
1,59,102,0
1,57,106,460
1,62,108,0
1,62,108,108
1,57,106,2
1,64,104,274
1,57,113,2
1,64,115,116
1,57,115,0
1,52,106,216
1,59,108,0
2,59,29,75488
2,61,29,30
2,59,29,104
2,61,29,10
2,59,29,28
2,68,29,130
2,68,29,148
2,66,29,36
2,64,29,40
2,59,29,0
2,61,29,130
2,59,29,236
2,61,29,14
2,59,29,54
2,61,29,98
2,59,29,40
2,68,29,8
2,68,29,132
2,66,29,50
2,64,29,40
2,59,29,20
2,61,29,130
2,73,29,0
2,73,29,100
2,71,29,130
2,71,29,0
2,69,29,96
2,69,29,170
2,73,29,10
2,73,29,88
2,71,29,66
2,71,29,16
2,69,29,28
2,68,29,8
2,76,29,28
2,68,29,384
2,66,29,46
2,74,29,40
2,68,29,0
2,76,29,20
2,68,29,384
2,66,29,46
2,71,29,12
2,71,29,84
2,68,29,6
2,66,29,40
2,71,29,130
2,68,29,382
2,66,29,24
2,68,29,132
2,69,29,118
2,69,29,96
2,66,29,6
2,64,29,40
2,69,29,130
2,64,29,8
2,66,29,130
2,64,29,32
2,68,29,14
2,68,29,88
2,68,29,78
2,68,29,64
2,68,29,76
2,68,29,70
2,68,29,64
2,68,29,64
2,68,29,70
2,68,29,72
2,68,29,76
2,68,29,80
2,66,29,26
2,64,29,24
2,61,29,14
2,64,29,60
2,61,29,0
2,64,29,64
2,66,29,128
2,64,29,64
2,66,29,130
2,69,29,0
2,61,29,8
2,64,29,148
2,66,29,118
2,64,29,16
2,66,29,6
2,69,29,8
2,64,29,12
2,64,29,64
2,61,29,46
2,59,29,106
2,61,29,0
2,59,29,32
2,61,29,12
2,64,29,0
2,64,29,76
2,61,29,130
2,62,29,11176
2,69,29,2
2,69,29,118
2,62,29,0
2,64,29,280
2,57,29,0
2,57,29,118
2,64,29,0
2,59,29,158
2,52,29,0
3,47,127,1508
3,40,120,0
3,47,6,144
3,40,120,0
3,40,118,58
3,49,6,0
3,40,113,108
3,47,115,2
3,40,112,62
3,47,122,2
3,40,122,132
3,47,6,2
3,40,118,48
3,49,6,0
3,40,108,80
3,47,117,2
3,40,115,58
3,47,122,2
3,40,120,152
3,47,125,2
3,40,118,50
3,49,10,0
3,40,108,100
3,47,120,2
3,40,117,70
3,47,2,2
3,40,120,140
3,47,122,2
3,40,115,50
3,49,10,0
3,47,115,56
3,40,113,0
3,40,115,62
3,47,2,2
3,40,117,140
3,47,118,2
3,40,117,62
3,49,10,0
3,40,111,120
3,47,112,2
3,47,122,58
3,40,117,0
3,40,115,136
3,47,118,2
3,40,125,58
3,49,6,0
3,47,115,108
3,40,110,0
3,40,120,70
3,47,2,2
3,40,117,136
3,47,117,2
3,40,118,58
3,49,6,0
3,47,115,140
3,40,113,2
3,40,113,62
3,47,122,2
3,47,125,154
3,40,118,0
3,40,118,50
3,49,10,0
3,40,113,62
3,47,120,0
3,47,127,48
3,40,117,0
3,40,108,160
3,47,117,2
3,40,115,50
3,49,23,0
3,40,108,36
3,47,117,2
3,47,127,66
3,40,115,0
3,40,111,156
3,47,120,2
3,49,10,58
3,40,112,0
3,40,105,64
3,47,117,0
3,40,115,62
3,47,127,2
3,40,115,148
3,47,118,2
3,40,118,58
3,49,10,0
3,40,110,56
3,47,117,2
3,47,125,62
3,40,115,0
3,40,113,162
3,47,117,0
3,49,10,58
3,40,115,0
3,40,106,36
3,47,108,2
3,47,120,62
3,40,117,2
3,40,111,148
3,47,111,2
3,40,115,50
3,49,6,0
3,40,108,48
3,47,110,2
3,40,112,58
3,47,118,2
3,47,117,150
3,40,112,0
3,40,113,58
3,49,10,0
3,47,111,68
3,40,108,2
3,47,122,64
3,40,115,0
3,47,115,148
3,40,117,2
3,49,16,58
3,40,117,0
3,40,111,36
3,47,113,2
3,40,117,62
3,47,120,2
3,47,118,168
3,40,115,0
3,40,118,58
3,49,6,0
3,40,127,144
3,47,120,2
3,45,127,26
3,52,111,2
3,52,122,144
3,45,113,2
3,54,6,54
3,45,122,0
3,45,112,124
3,52,125,2
3,45,113,58
3,52,127,2
3,45,113,132
3,52,120,0
3,54,126,50
3,45,120,0
3,45,111,28
3,52,112,2
3,52,120,58
3,45,120,2
3,45,115,136
3,52,113,2
3,45,122,62
3,54,6,0
3,52,109,54
3,45,106,0
3,45,117,50
3,52,125,2
3,45,115,132
3,52,115,2
3,45,115,26
3,54,126,0
3,45,111,50
3,52,112,2
3,40,107,46
3,47,2,2
3,40,111,140
3,47,118,2
3,49,6,50
3,40,115,0
3,47,117,50
3,40,118,0
3,40,118,62
3,47,125,2
3,40,115,128
3,47,113,2
3,40,112,50
3,49,2,0
3,40,108,16
3,47,111,2
3,40,122,70
3,47,118,2
3,47,117,148
3,40,117,0
3,40,117,58
3,49,6,0
3,47,115,48
3,40,115,2
3,40,120,62
3,47,122,2
3,40,122,148
3,47,117,2
3,40,115,48
3,49,126,0
3,47,117,24
3,40,115,0
3,47,122,78
3,54,2,2
3,47,117,164
3,54,6,2
3,47,120,46
3,56,126,0
3,47,111,48
3,54,114,2
3,47,112,0
3,54,6,0
3,47,118,0
3,47,117,140
3,54,2,2
3,56,126,62
3,47,118,0
3,47,113,60
3,54,2,0
3,52,122,6
3,45,117,2
3,45,2,130
3,52,113,2
3,45,120,46
3,54,6,0
3,45,109,36
3,52,118,2
3,52,2,62
3,45,117,0
3,45,117,140
3,52,127,2
3,45,113,58
3,54,2,0
3,52,115,116
3,45,110,0
3,47,125,4
3,40,106,0
3,40,112,132
3,47,112,2
3,40,120,50
3,49,23,0
3,47,120,92
3,40,112,2
3,47,120,58
3,40,120,0
3,40,127,152
3,47,112,2
3,40,112,46
3,49,10,0
3,47,120,30
3,40,120,0
3,40,117,46
3,47,127,2
3,47,120,162
3,54,116,0
3,47,120,66
3,54,123,0
3,54,121,114
3,47,112,0
3,54,2,66
3,47,2,0
3,54,119,102
3,47,115,0
3,54,2,78
3,47,2,0
3,47,120,126
3,54,119,0
3,47,122,4
3,40,120,0
3,40,113,142
3,47,117,2
3,49,16,46
3,40,111,0
3,40,108,44
3,47,117,2
3,40,113,58
3,47,125,2
3,47,120,138
3,40,122,0
3,49,10,50
3,40,111,0
3,40,115,44
3,47,120,2
3,47,125,62
3,40,112,0
3,40,118,160
3,47,122,2
3,49,16,62
3,40,117,0
3,40,113,48
3,47,118,2
3,40,113,70
3,47,122,2
3,40,118,148
3,47,122,2
3,49,6,60
3,40,117,0
3,40,118,60
3,47,120,2
3,47,2,70
3,40,118,0
3,40,122,136
3,47,118,2
3,49,16,58
3,40,111,0
3,47,117,40
3,40,117,0
3,40,111,58
3,47,6,2
3,40,109,152
3,47,118,2
3,40,120,50
3,49,10,0
3,47,115,40
3,40,122,2
3,47,120,58
3,40,125,2
3,47,118,160
3,40,125,0
3,40,120,58
3,49,6,0
3,47,117,36
3,40,120,0
3,40,118,62
3,47,125,2
3,40,125,160
3,47,117,2
3,40,120,46
3,49,2,0
3,40,125,28
3,47,111,2
3,52,108,50
3,45,122,2
3,45,113,148
3,52,112,0
3,45,117,38
3,54,2,0
3,45,110,52
3,52,120,2
3,45,118,62
3,52,125,2
3,45,118,160
3,52,120,2
3,54,10,58
3,45,115,0
3,45,112,40
3,52,112,2
3,45,117,74
3,52,127,2
3,52,118,148
3,45,118,0
3,45,117,62
3,54,126,0
3,52,118,72
3,45,117,2
3,52,118,62
3,45,120,0
3,52,120,150
3,45,118,2
3,45,111,50
3,54,123,0
3,52,112,16
3,45,101,2
3,47,122,48
3,40,103,0
3,47,115,156
3,40,117,0
3,40,122,60
3,49,6,0
3,40,115,52
3,47,105,2
3,47,118,70
3,40,127,0
3,47,115,148
3,40,118,2
3,40,125,62
3,49,10,0
3,47,117,44
3,40,117,0
3,40,120,62
3,47,122,2
3,40,117,148
3,47,120,2
3,40,113,62
3,49,10,0
3,40,113,28
3,47,113,2
3,47,122,58
3,40,122,0
3,40,115,152
3,47,118,2
3,49,6,50
3,40,118,0
3,47,117,30
3,40,120,0
3,54,117,30
3,47,122,2
3,47,110,140
3,54,117,2
3,56,121,46
3,47,125,0
3,54,115,102
3,47,117,2
3,54,121,58
3,47,115,0
3,54,116,132
3,47,117,2
3,56,121,46
3,47,120,0
3,47,117,58
3,54,114,0
3,45,120,14
3,52,106,2
3,45,112,148
3,52,115,2
3,45,113,46
3,54,10,0
3,52,117,72
3,45,108,2
3,52,125,58
3,45,113,2
3,45,120,130
3,52,122,0
3,45,120,46
3,54,2,0
3,52,110,62
3,45,111,0
3,40,103,50
3,47,2,2
3,40,115,124
3,47,120,2
3,40,112,62
3,49,10,0
3,40,117,60
3,47,115,2
3,40,125,62
3,47,120,2
3,40,122,142
3,47,120,0
3,40,118,56
3,49,6,0
3,40,108,60
3,47,120,2
3,40,115,50
3,47,113,0
3,47,115,136
3,40,118,2
3,40,117,58
3,49,2,0
3,40,109,40
3,47,112,2
3,40,115,62
3,47,117,2
3,40,117,140
3,47,120,2
3,40,127,58
3,47,115,0
3,47,115,140
3,40,125,0
3,47,122,66
3,54,6,2
3,47,106,112
3,54,104,2
3,47,118,50
3,54,10,0
3,54,107,88
3,47,108,0
3,47,115,58
3,54,2,2
3,47,110,100
3,54,106,2
3,47,120,60
3,54,6,0
3,54,105,88
3,47,109,2
3,54,6,50
3,47,113,2
3,54,113,116
3,47,112,0
3,47,120,58
3,54,10,0
3,54,119,96
3,47,115,2
3,52,10,42
3,45,2,2
3,52,127,54
3,44,23,0
3,47,10,10
3,54,6,2
3,54,113,110
3,47,107,0
3,54,6,58
3,47,117,0
3,54,113,108
3,47,113,2
3,54,10,58
3,47,118,2
3,47,110,116
3,54,115,2
3,54,6,70
3,47,117,0
3,54,113,120
3,47,111,2
3,47,117,50
3,54,2,2
3,54,117,134
3,47,108,0
3,54,10,70
3,47,117,0
3,54,121,110
3,47,118,2
3,52,127,30
3,45,115,2
3,52,125,60
3,44,16,0
3,47,2,6
3,54,6,2
3,54,119,106
3,47,112,0
3,54,10,58
3,47,118,0
3,47,109,122
3,54,113,2
3,47,115,50
3,54,6,0
3,47,115,96
3,54,114,2
3,47,118,70
3,54,10,0
3,47,104,100
3,54,111,2
