track,note,velocity,time
1,67,59,1536
1,72,59,44
1,69,59,384
1,69,59,164
1,72,59,1152
1,71,59,16
1,67,59,32
1,72,59,48
1,69,59,384
1,69,59,84
1,72,59,16
1,71,59,384
1,67,59,504
1,67,59,66
1,67,59,80
1,69,59,26
1,71,59,24
1,71,59,76
1,69,59,40
1,72,59,374
1,72,59,88
1,74,59,24
1,71,59,66
1,69,59,266
1,67,59,274
1,67,59,452
1,67,59,90
1,67,59,44
1,69,59,146
1,71,59,70
1,69,59,28
1,72,59,652
1,72,59,138
1,74,59,186
1,71,59,2
1,69,59,26
1,67,59,192
1,67,59,478
1,72,59,4
1,72,59,122
1,69,59,38
1,72,59,122
1,69,59,126
1,72,59,108
1,72,59,160
1,69,59,44
1,72,59,128
1,71,59,166
1,72,59,304
1,72,59,94
1,71,59,274
1,69,59,248
1,71,59,0
1,69,59,24
1,67,59,384
1,65,59,0
1,65,59,100
1,69,59,14
1,67,59,14
1,67,59,676
1,67,59,136
1,67,59,42
1,69,59,78
1,71,59,92
1,71,59,114
1,69,59,152
1,72,59,146
1,72,59,140
1,74,59,28
1,71,59,60
1,69,59,98
1,67,59,32
1,67,59,318
1,67,59,120
1,67,59,100
1,69,59,122
1,71,59,148
1,69,59,64
1,72,59,292
1,72,59,116
1,71,59,226
1,69,59,76
1,67,59,114
1,67,59,300
1,72,59,4
1,72,59,150
1,69,59,30
1,72,59,128
1,69,59,132
1,72,59,86
1,72,59,172
1,69,59,14
1,72,59,128
1,71,59,162
1,72,59,340
1,72,59,72
1,71,59,242
1,69,59,26
1,71,59,384
1,69,59,0
1,67,59,24
1,65,59,42
1,64,59,88
1,65,59,384
1,67,59,382
1,69,59,484
1,69,59,54
1,69,59,52
1,71,59,120
1,69,59,386
1,69,59,30
1,69,59,134
1,69,59,100
1,69,59,42
1,71,59,132
1,69,59,304
1,69,59,118
1,69,59,114
1,71,59,54
1,71,59,100
1,71,59,140
1,67,59,514
1,69,59,50
1,69,59,80
1,72,59,108
1,69,59,20
1,71,59,38
1,64,59,8
1,67,59,512
1,67,59,172
1,67,59,110
1,67,59,4
1,69,59,42
1,71,59,82
1,69,59,52
1,72,59,98
1,72,59,164
1,74,59,134
1,72,59,20
1,71,59,32
1,69,59,56
1,67,59,34
1,67,59,130
1,67,59,104
1,67,59,128
1,67,59,14
1,69,59,84
1,71,59,98
1,69,59,102
1,72,59,112
1,72,59,116
1,72,59,184
1,74,59,54
1,71,59,90
1,69,59,128
1,67,59,56
1,67,59,302
1,72,59,0
1,72,59,150
1,69,59,22
1,72,59,102
1,69,59,52
1,72,59,36
1,72,59,128
1,69,59,40
1,72,59,128
1,71,59,48
1,72,59,398
1,72,59,512
1,71,59,356
1,69,59,180
1,71,59,384
1,69,59,24
1,67,59,10
1,65,59,32
1,65,59,104
1,69,59,20
1,69,59,76
1,67,59,50
1,72,59,392
1,72,59,32
1,71,59,384
1,69,59,2
1,71,59,384
1,69,59,26
1,67,59,384
1,65,59,6
1,64,59,52
1,65,59,10
1,67,59,14
1,76,59,256
1,76,59,512
1,74,59,366
1,74,59,98
1,72,59,42
1,74,59,384
1,76,59,6
1,77,59,384
1,76,59,50
1,72,59,12
1,74,59,14
1,67,59,1152
1,79,59,362
1,81,59,1534
1,81,59,60
1,84,59,20
1,83,59,24
1,84,59,86
1,86,59,30
1,84,59,8
1,84,59,42
1,84,59,86
1,83,59,0
2,48,77,1536
2,43,77,768
2,48,77,374
2,45,77,358
2,45,77,82
2,40,77,128
2,45,77,378
2,41,77,378
2,41,77,138
2,36,77,16
2,41,77,6
2,43,77,384
2,43,77,188
2,45,77,130
2,47,77,4
2,48,77,0
2,48,77,160
2,43,77,128
2,48,77,372
2,45,77,14
2,45,77,172
2,40,77,128
2,45,77,372
2,41,77,0
2,41,77,182
2,36,77,128
2,41,77,32
2,43,77,384
2,41,77,372
2,40,77,378
2,38,77,10
2,48,77,36
2,48,77,182
2,43,77,128
2,48,77,8
2,45,77,12
2,45,77,166
2,40,77,0
2,45,77,384
2,41,77,14
2,41,77,174
2,36,77,128
2,41,77,28
2,43,77,22
2,43,77,164
2,45,77,130
2,47,77,378
2,48,77,20
2,48,77,170
2,43,77,132
2,48,77,366
2,45,77,0
2,45,77,204
2,40,77,126
2,45,77,10
2,41,77,4
2,41,77,172
2,36,77,128
2,41,77,374
2,43,77,14
2,43,77,178
2,45,77,130
2,47,77,378
2,48,77,10
2,48,77,174
2,43,77,130
2,48,77,6
2,45,77,12
2,45,77,170
2,40,77,128
2,45,77,376
2,41,77,16
2,41,77,172
2,36,77,128
2,41,77,14
2,43,77,10
2,43,77,188
2,43,77,150
2,45,77,128
2,47,77,252
2,48,77,122
2,43,77,4426
2,41,77,384
2,40,77,378
2,38,77,344
2,48,77,38
2,48,77,172
2,43,77,130
2,48,77,2
2,45,77,384
2,45,77,202
2,40,77,128
2,45,77,6
2,41,77,384
2,41,77,166
2,36,77,130
2,41,77,378
2,43,77,28
2,41,77,384
2,40,77,10
2,38,77,44
2,48,77,8
2,48,77,182
2,43,77,128
2,48,77,12
2,45,77,384
2,45,77,156
2,40,77,128
2,45,77,376
2,41,77,382
2,41,77,178
2,36,77,128
2,41,77,378
2,43,77,38
2,43,77,174
2,43,77,168
2,45,77,128
2,47,77,6
2,48,77,128
2,48,77,170
2,43,77,128
2,48,77,374
2,45,77,22
2,45,77,178
2,40,77,128
2,45,77,0
2,41,77,2
2,41,77,176
2,36,77,128
2,41,77,374
2,43,77,20
2,43,77,170
2,43,77,244
2,45,77,128
2,47,77,240
2,48,77,106
2,43,77,5432
2,45,77,128
2,43,77,242
2,41,77,110
2,45,77,88
2,48,77,34
2,43,77,4
2,47,77,100
2,50,77,20
2,41,77,384
2,45,77,50
2,48,77,512
2,43,77,378
2,47,77,108
2,50,77,18
2,41,77,0
2,45,77,52
2,48,77,510
2,43,77,378
2,47,77,92
2,50,77,6
2,41,77,384
2,45,77,58
2,48,77,0
2,43,77,0
2,41,77,384
2,40,77,362
2,38,77,346
2,48,77,32
2,48,77,172
2,43,77,128
2,48,77,374
2,45,77,370
2,45,77,166
2,40,77,0
2,45,77,384
2,41,77,366
2,41,77,170
2,36,77,130
2,41,77,380
2,43,77,380
2,43,77,176
2,45,77,128
2,47,77,376
2,48,77,44
2,48,77,178
2,43,77,128
2,48,77,374
2,45,77,0
2,45,77,174
2,40,77,130
2,45,77,374
2,41,77,10
2,41,77,180
2,36,77,128
2,41,77,380
2,43,77,54
2,43,77,178
2,43,77,170
2,45,77,128
2,47,77,244
2,48,77,126
2,48,77,186
2,43,77,128
2,48,77,2
2,45,77,10
2,45,77,178
2,40,77,128
2,45,77,374
2,41,77,6
2,41,77,178
2,36,77,130
2,41,77,374
2,43,77,10
2,43,77,180
2,43,77,202
2,45,77,128
2,47,77,242
2,48,77,122
2,43,77,5410
2,45,77,128
2,47,77,246
2,48,77,106
2,48,77,200
2,43,77,128
2,48,77,8
2,45,77,32
2,45,77,174
2,40,77,128
2,45,77,372
2,41,77,20
2,41,77,174
2,36,77,128
2,41,77,374
2,43,77,2
2,41,77,384
2,40,77,378
2,38,77,366
2,48,77,374
2,48,77,166
2,43,77,130
2,48,77,378
2,45,77,16
2,45,77,182
2,40,77,128
2,45,77,10
2,41,77,384
2,41,77,186
2,36,77,128
2,41,77,374
2,43,77,372
2,43,77,194
2,38,77,128
2,43,77,374
2,48,77,40
2,48,77,196
2,43,77,128
2,48,77,372
2,45,77,16
2,45,77,184
2,40,77,128
2,45,77,372
2,41,77,8
2,41,77,184
2,36,77,128
2,41,77,372
2,43,77,4
2,41,77,384
2,40,77,16
2,38,77,46
2,48,77,384
2,48,77,180
2,43,77,128
2,48,77,22
2,45,77,384
2,45,77,174
2,40,77,130
2,45,77,374
2,41,77,360
2,41,77,178
2,36,77,128
2,41,77,14
2,43,77,384
2,41,77,4
2,40,77,20
2,38,77,82
2,36,77,22
3,72,56,1536
3,76,56,0
3,67,56,0
3,72,56,162
3,67,56,0
3,76,56,0
3,76,56,1188
3,69,56,0
3,72,56,0
3,72,56,164
3,76,56,0
3,69,56,0
3,69,56,1192
3,77,56,0
3,72,56,0
3,77,56,164
3,69,56,0
3,72,56,0
3,74,56,1192
3,71,56,0
3,79,56,0
3,79,56,164
3,71,56,0
3,74,56,0
3,76,56,1186
3,72,56,0
3,67,56,0
3,72,56,164
3,76,56,0
3,67,56,0
3,69,56,1190
3,72,56,0
3,76,56,0
3,72,56,164
3,76,56,0
3,69,56,0
3,69,56,1192
3,77,56,0
3,72,56,0
3,69,56,164
3,72,56,0
3,77,56,0
3,74,56,1192
3,79,56,0
3,71,56,0
3,79,56,166
3,74,56,0
3,71,56,0
3,67,56,1190
3,72,56,0
3,76,56,0
3,67,56,164
3,72,56,0
3,76,56,0
3,69,56,1194
3,72,56,0
3,76,56,0
3,69,56,164
3,72,56,0
3,76,56,0
3,72,56,1190
3,77,56,0
3,69,56,0
3,77,56,168
3,72,56,0
3,69,56,0
3,71,56,1188
3,79,56,0
3,74,56,0
3,79,56,168
3,71,56,0
3,74,56,0
3,72,56,1188
3,76,56,0
3,67,56,0
3,72,56,168
3,76,56,0
3,67,56,0
3,69,56,1190
3,72,56,0
3,76,56,0
3,72,56,164
3,76,56,0
3,69,56,0
3,77,56,1190
3,72,56,0
3,69,56,0
3,72,56,166
3,77,56,0
3,69,56,0
3,74,56,1188
3,79,56,0
3,71,56,0
3,79,56,164
3,71,56,0
3,74,56,0
3,67,56,1188
3,72,56,0
3,76,56,0
3,72,56,168
3,76,56,0
3,67,56,0
3,76,56,1190
3,72,56,0
3,69,56,0
3,69,56,166
3,72,56,0
3,76,56,0
3,69,56,1192
3,77,56,0
3,72,56,0
3,77,56,166
3,72,56,0
3,69,56,0
3,71,56,1188
3,79,56,0
3,74,56,0
3,79,56,164
3,71,56,0
3,74,56,0
3,72,56,1190
3,67,56,0
3,76,56,0
3,76,56,6056
3,72,56,0
3,67,56,0
3,76,56,164
3,72,56,0
3,67,56,0
3,72,56,1190
3,76,56,0
3,69,56,0
3,76,56,166
3,69,56,0
3,72,56,0
3,72,56,1190
3,77,56,0
3,69,56,0
3,77,56,164
3,72,56,0
3,69,56,0
3,74,56,1190
3,79,56,0
3,71,56,0
3,79,56,164
3,71,56,0
3,74,56,0
3,67,56,1188
3,76,56,0
3,72,56,0
3,72,56,164
3,67,56,0
3,76,56,0
3,76,56,1192
3,72,56,0
3,69,56,0
3,76,56,168
3,72,56,0
3,69,56,0
3,72,56,1194
3,77,56,0
3,69,56,0
3,72,56,168
3,77,56,0
3,69,56,0
3,74,56,1190
3,79,56,0
3,71,56,0
3,79,56,166
3,74,56,0
3,71,56,0
3,67,56,1192
3,72,56,0
3,76,56,0
3,72,56,166
3,67,56,0
3,76,56,0
3,76,56,1190
3,72,56,0
3,69,56,0
3,72,56,166
3,76,56,0
3,69,56,0
3,72,56,1192
3,77,56,0
3,69,56,0
3,77,56,166
3,72,56,0
3,69,56,0
3,74,56,1192
3,71,56,0
3,79,56,0
3,79,56,166
3,74,56,0
3,71,56,0
3,76,56,1192
3,72,56,0
3,67,56,0
3,69,56,6058
3,72,56,0
3,77,56,0
3,77,56,164
3,69,56,0
3,72,56,0
3,74,56,1188
3,79,56,0
3,71,56,0
3,79,56,166
3,71,56,0
3,74,56,0
3,69,56,1194
3,77,56,0
3,72,56,0
3,72,56,166
3,77,56,0
3,69,56,0
3,71,56,1188
3,79,56,0
3,74,56,0
3,79,56,170
3,74,56,0
3,71,56,0
3,72,56,1194
3,77,56,0
3,69,56,0
3,77,56,168
3,69,56,0
3,72,56,0
3,74,56,1192
3,79,56,0
3,71,56,0
3,79,56,166
3,74,56,0
3,71,56,0
3,72,56,1192
3,77,56,0
3,69,56,0
3,77,56,164
3,72,56,0
3,69,56,0
3,74,56,1188
3,79,56,0
3,71,56,0
3,74,56,166
3,79,56,0
3,71,56,0
3,76,56,1192
3,72,56,0
3,67,56,0
3,76,56,160
3,72,56,0
3,67,56,0
3,72,56,1184
3,76,56,0
3,69,56,0
3,76,56,172
3,72,56,0
3,69,56,0
3,72,56,1192
3,77,56,0
3,69,56,0
3,77,56,166
3,69,56,0
3,72,56,0
3,71,56,1190
3,79,56,0
3,74,56,0
3,79,56,168
3,74,56,0
3,71,56,0
3,67,56,1192
3,72,56,0
3,76,56,0
3,72,56,168
3,67,56,0
3,76,56,0
3,72,56,1192
3,76,56,0
3,69,56,0
3,72,56,168
3,76,56,0
3,69,56,0
3,72,56,1192
3,77,56,0
3,69,56,0
3,72,56,168
3,77,56,0
3,69,56,0
3,71,56,1194
3,79,56,0
3,74,56,0
3,74,56,168
3,79,56,0
3,71,56,0
3,67,56,1194
3,76,56,0
3,72,56,0
3,76,56,166
3,72,56,0
3,67,56,0
3,72,56,1192
3,76,56,0
3,69,56,0
3,72,56,168
3,69,56,0
3,76,56,0
3,72,56,1194
3,77,56,0
3,69,56,0
3,69,56,168
3,77,56,0
3,72,56,0
3,74,56,1190
3,79,56,0
3,71,56,0
3,71,56,166
3,79,56,0
3,74,56,0
3,72,56,1190
3,67,56,0
3,76,56,0
3,76,56,6052
3,67,56,0
3,72,56,0
3,67,56,164
3,72,56,0
3,76,56,0
3,69,56,1188
3,76,56,0
3,72,56,0
3,76,56,164
3,72,56,0
3,69,56,0
3,69,56,1188
3,77,56,0
3,72,56,0
3,77,56,166
3,69,56,0
3,72,56,0
3,74,56,1192
3,79,56,0
3,71,56,0
3,79,56,166
3,71,56,0
3,74,56,0
3,72,56,1188
3,76,56,0
3,67,56,0
3,76,56,166
3,67,56,0
3,72,56,0
3,76,56,1188
3,72,56,0
3,69,56,0
3,72,56,166
3,76,56,0
3,69,56,0
3,69,56,1192
3,77,56,0
3,72,56,0
3,77,56,166
3,69,56,0
3,72,56,0
3,74,56,1190
3,79,56,0
3,71,56,0
3,79,56,166
3,74,56,0
3,71,56,0
3,72,56,1192
3,76,56,0
3,67,56,0
3,72,56,164
3,67,56,0
3,76,56,0
3,76,56,1188
3,72,56,0
3,69,56,0
3,72,56,170
3,69,56,0
3,76,56,0
3,69,56,1188
3,72,56,0
3,77,56,0
3,72,56,168
3,77,56,0
3,69,56,0
3,74,56,1188
3,79,56,0
3,71,56,0
3,71,56,166
3,79,56,0
3,74,56,0
3,72,56,1192
3,76,56,0
3,67,56,0
3,76,56,168
3,72,56,0
3,67,56,0
3,72,56,1192
3,76,56,0
3,69,56,0
3,72,56,172
3,76,56,0
3,69,56,0
3,69,56,1192
3,72,56,0
3,77,56,0
3,72,56,166
3,69,56,0
3,77,56,0
3,74,56,1190
3,79,56,0
3,71,56,0
3,79,56,168
3,74,56,0
3,71,56,0
3,72,56,1196
3,76,56,0
3,67,56,0
4,64,64,1920
4,67,64,0
4,60,64,0
4,60,64,176
4,64,64,0
4,67,64,0
4,60,64,426
4,64,64,0
4,67,64,0
4,69,64,658
4,60,64,0
4,64,64,0
4,60,64,182
4,64,64,0
4,69,64,0
4,64,64,436
4,60,64,0
4,69,64,0
4,65,64,684
4,69,64,0
4,60,64,0
4,65,64,174
4,69,64,0
4,60,64,0
4,60,64,430
4,65,64,0
4,69,64,0
4,67,64,680
4,71,64,0
4,62,64,0
4,67,64,172
4,62,64,0
4,71,64,0
4,62,64,438
4,67,64,0
4,71,64,0
4,60,64,686
4,64,64,0
4,67,64,0
4,64,64,170
4,67,64,0
4,60,64,0
4,60,64,438
4,64,64,0
4,67,64,0
4,64,64,676
4,69,64,0
4,60,64,0
4,69,64,172
4,64,64,0
4,60,64,0
4,69,64,430
4,60,64,0
4,64,64,0
4,60,64,680
4,69,64,0
4,65,64,0
4,60,64,176
4,69,64,0
4,65,64,0
4,60,64,422
4,65,64,0
4,69,64,0
4,62,64,674
4,67,64,0
4,71,64,0
4,62,64,166
4,67,64,0
4,71,64,0
4,62,64,430
4,67,64,0
4,71,64,0
4,64,64,690
4,67,64,0
4,60,64,0
4,60,64,190
4,67,64,0
4,64,64,0
4,60,64,430
4,64,64,0
4,67,64,0
4,60,64,690
4,64,64,0
4,69,64,0
