track,note,velocity,time
2,60,71,3072
2,67,76,0
2,76,89,0
2,79,102,0
2,86,105,352
2,63,68,58
2,72,71,0
2,75,90,0
2,79,84,0
2,84,92,0
2,72,88,184
2,75,86,0
2,79,96,0
2,62,70,31
2,69,85,0
2,72,88,0
2,77,93,0
2,81,99,188
2,84,101,0
2,55,69,34
2,65,67,0
2,74,91,0
2,77,93,0
2,83,99,0
2,71,79,236
2,74,93,0
2,77,96,0
2,60,59,54
2,60,87,0
2,67,97,0
2,76,98,0
2,76,112,0
2,88,117,0
2,79,108,258
2,91,114,0
2,53,88,23
2,60,89,0
2,77,106,0
2,89,115,0
2,55,103,45
2,62,102,0
2,74,107,126
2,86,111,0
2,48,81,11
2,76,94,0
2,67,58,165
2,60,53,192
2,72,90,0
2,60,29,1
2,76,95,0
2,62,82,159
2,74,94,0
2,67,81,8
2,65,72,23
2,77,99,0
2,74,94,143
2,60,81,60
2,67,83,0
2,72,73,0
2,76,84,0
2,67,81,0
2,72,79,0
2,76,70,0
2,67,69,0
2,72,73,0
2,76,64,0
2,67,65,0
2,71,73,0
2,74,85,0
2,67,69,0
2,60,66,0
2,72,67,0
2,76,65,0
2,67,68,0
2,72,65,0
2,76,59,0
2,67,73,0
2,72,69,0
2,76,67,0
2,67,62,0
2,71,62,0
2,74,71,0
2,67,67,192
2,60,60,0
2,72,74,0
2,76,70,0
2,67,64,0
2,72,60,0
2,76,48,0
2,67,56,0
2,72,62,0
2,76,66,0
2,67,68,0
2,71,62,0
2,74,66,0
2,67,67,0
2,60,70,0
2,72,67,0
2,76,64,0
2,67,69,0
2,72,54,0
2,76,54,0
2,67,75,0
2,72,59,0
2,76,62,0
2,67,66,0
2,71,66,0
2,74,80,0
2,67,63,0
2,53,69,0
2,69,82,0
2,72,79,0
2,65,53,0
2,69,67,0
2,72,67,0
2,65,63,0
2,69,65,0
2,72,62,0
2,65,60,0
2,69,73,0
2,72,67,0
2,65,75,0
2,53,76,0
2,69,83,0
2,72,74,0
2,65,60,0
2,69,69,0
2,72,59,0
2,65,67,0
2,69,72,0
2,72,63,0
2,65,67,0
2,69,73,0
2,72,70,0
2,65,58,0
2,60,77,0
2,72,69,0
2,76,77,0
2,67,73,0
2,72,54,0
2,76,56,0
2,67,67,0
2,72,63,0
2,76,62,0
2,67,65,192
2,71,63,0
2,74,72,0
2,67,77,0
2,60,72,0
2,72,74,0
2,76,76,0
2,67,62,0
2,72,73,0
2,76,65,0
2,67,64,0
2,72,66,0
2,76,64,0
2,67,60,192
2,55,79,0
2,71,74,0
2,74,85,0
2,67,64,192
2,53,79,0
2,69,83,0
2,72,90,0
2,65,62,0
2,69,89,0
2,72,81,0
2,65,68,0
2,69,85,0
2,72,73,0
2,65,64,0
2,69,81,0
2,72,59,0
2,65,63,0
2,53,63,0
2,69,85,0
2,72,71,0
2,65,66,0
2,69,77,0
2,72,63,0
2,65,69,0
2,69,81,0
2,72,67,0
2,65,72,0
2,69,75,0
2,72,64,0
2,65,71,0
2,48,69,0
2,67,73,0
2,72,82,0
2,64,68,0
2,67,61,0
2,72,69,0
2,64,64,0
2,67,63,0
2,72,66,0
2,64,66,0
2,67,65,0
2,71,75,0
2,62,73,0
2,48,64,0
2,67,81,0
2,72,80,0
2,64,69,0
2,67,73,0
2,72,62,0
2,64,80,0
2,67,65,0
2,72,66,0
2,64,72,0
2,67,72,0
2,71,76,0
2,64,70,0
2,57,77,0
2,69,87,0
2,72,79,0
2,64,72,0
2,69,74,0
2,72,62,0
2,64,70,0
2,69,65,0
2,72,62,0
2,64,68,0
2,69,81,0
2,72,74,0
2,64,76,0
2,57,75,0
2,69,84,0
2,72,71,0
2,64,60,0
2,69,79,0
2,72,61,0
2,64,69,0
2,69,81,0
2,72,69,0
2,64,52,0
2,69,102,0
2,72,68,0
2,64,77,0
2,50,69,0
2,69,89,0
2,76,84,0
2,65,77,0
2,69,78,0
2,76,75,0
2,65,73,0
2,69,78,0
2,74,86,0
2,65,63,0
2,69,80,0
2,74,83,0
2,65,78,0
2,50,55,0
2,69,73,0
2,73,77,0
2,65,66,0
2,69,72,0
2,73,63,0
2,65,73,0
2,69,82,0
2,74,77,0
2,65,64,0
2,69,74,0
2,74,79,0
2,65,65,0
2,59,109,0
2,71,113,0
2,74,117,0
2,67,95,0
2,71,115,0
2,74,117,0
2,67,95,0
2,71,117,0
2,74,117,0
2,67,78,0
2,71,111,0
2,74,117,0
2,67,83,0
2,55,111,0
2,71,117,0
2,74,117,0
2,67,80,0
2,71,105,0
2,74,112,0
2,67,94,0
2,53,96,0
2,71,106,0
2,74,117,0
2,67,85,0
2,71,115,0
2,74,117,0
2,67,88,0
2,52,87,0
2,67,109,0
2,74,115,0
2,64,79,0
2,67,105,0
2,72,109,0
2,64,76,0
2,57,98,0
2,67,108,0
2,71,102,0
2,64,79,0
2,67,110,0
2,72,107,0
2,64,86,0
2,50,89,0
2,65,93,0
2,69,95,0
2,72,95,0
2,62,73,0
2,65,90,0
2,69,97,0
2,72,95,0
2,62,82,0
2,55,97,0
2,65,95,0
2,69,100,0
2,72,98,0
2,62,79,0
2,65,89,0
2,69,100,0
2,72,99,0
2,62,97,0
2,48,97,0
2,72,100,0
2,76,102,0
2,67,84,192
2,72,97,171
2,76,95,0
2,67,79,8
2,71,94,190
2,74,101,0
2,67,81,175
2,71,99,179
2,74,103,0
2,67,84,173
2,72,93,162
2,76,95,0
2,67,71,1
2,72,92,11
2,76,94,0
2,67,80,1
2,72,88,192
2,76,85,0
2,67,83,3
2,72,93,185
2,76,96,0
2,67,93,0
2,48,65,0
2,62,64,0
2,64,69,0
2,67,66,0
2,60,51,22
2,62,46,101
2,64,55,0
2,67,61,0
2,60,54,41
2,64,63,89
2,67,60,0
2,60,51,14
2,64,73,49
2,67,68,0
2,60,61,16
2,48,65,98
2,64,67,0
2,67,74,0
2,60,61,6
2,64,90,192
2,67,86,0
2,60,69,173
2,64,61,45
2,67,56,0
2,60,62,10
2,64,76,98
2,67,72,0
2,60,62,4
2,48,79,130
2,62,65,0
2,64,78,0
2,67,74,0
2,60,62,1
2,64,81,70
2,67,79,0
2,60,56,14
2,64,67,75
2,67,64,0
2,60,58,192
2,52,89,76
2,60,29,0
2,64,84,0
2,67,81,0
2,60,61,139
2,53,74,88
2,60,62,0
2,65,66,0
2,69,76,0
2,60,48,3
2,65,59,126
2,69,73,0
2,60,60,159
2,60,47,35
2,65,72,0
2,69,98,0
2,60,76,103
2,52,84,53
2,60,77,0
2,64,95,0
2,67,95,0
2,60,84,13
2,50,83,35
2,62,74,0
2,65,79,0
2,69,85,0
2,62,49,94
2,65,66,94
2,69,76,0
2,62,61,187
2,65,69,83
2,69,74,0
2,62,60,192
2,62,40,96
2,65,72,0
2,69,84,0
2,62,63,131
2,50,67,106
2,62,66,0
2,65,69,0
2,69,80,0
2,62,49,65
2,62,46,109
2,65,57,0
2,69,72,0
2,62,53,105
2,62,59,122
2,65,64,0
2,69,72,0
2,62,58,95
2,62,68,134
2,65,63,0
2,69,81,0
2,62,62,120
2,60,78,137
2,62,79,0
2,65,72,0
2,69,83,0
2,62,58,18
2,62,56,83
2,65,62,0
2,69,58,0
2,62,63,71
2,62,65,106
2,65,63,0
2,69,76,0
2,62,59,87
2,65,77,101
2,69,83,0
2,62,67,6
2,43,71,136
2,59,81,0
2,67,85,0
2,59,58,70
2,62,86,99
2,67,75,192
2,55,81,10
2,59,73,0
2,62,81,0
2,67,85,0
2,59,71,134
2,53,89,50
2,59,80,0
2,62,78,0
2,67,88,0
2,59,71,19
2,52,79,15
2,59,69,0
2,64,81,0
2,67,85,0
2,59,66,9
2,64,68,88
2,67,71,0
2,59,57,192
2,59,60,131
2,64,68,0
2,67,65,0
2,59,59,5
2,59,58,101
2,64,66,0
2,67,68,0
2,59,68,134
2,45,53,86
2,60,59,0
2,64,60,0
2,69,81,0
2,60,57,16
2,60,61,97
2,64,68,0
2,69,79,0
2,60,59,111
2,60,69,69
2,64,75,0
2,69,82,0
2,60,55,106
2,57,63,116
2,60,67,0
2,64,77,0
2,69,91,0
2,57,69,117
2,60,67,0
2,50,80,85
2,60,73,0
2,65,69,0
2,69,80,0
2,60,55,23
2,60,76,81
2,65,73,0
2,69,85,0
2,60,64,105
2,43,83,99
2,60,77,0
2,65,70,0
2,69,87,0
2,60,60,66
2,55,52,107
2,60,76,0
2,65,69,0
2,69,90,0
2,55,51,7
2,60,62,0
2,48,67,101
2,60,76,0
2,64,73,0
2,67,79,0
2,60,65,70
2,55,82,2
2,62,86,0
2,64,88,0
2,67,92,0
2,48,70,5
2,60,80,0
2,55,90,6
2,59,94,0
2,67,95,0
2,59,71,78
2,59,83,41
2,62,85,0
2,67,93,0
2,43,98,159
2,48,65,36
2,62,64,0
2,64,69,0
2,67,66,0
2,60,51,22
2,62,46,101
2,64,55,0
2,67,61,0
2,60,54,41
2,64,63,89
2,67,60,0
2,60,51,14
2,64,73,49
2,67,68,0
2,60,61,16
2,48,65,98
2,64,67,0
2,67,74,0
2,60,61,6
2,64,90,192
2,67,86,0
2,60,69,173
2,64,61,45
2,67,56,0
2,60,62,10
2,64,76,98
2,67,72,0
2,60,62,4
2,48,79,130
2,62,65,0
2,64,78,0
2,67,74,0
2,60,62,1
2,64,81,70
2,67,79,0
2,60,56,14
2,64,67,75
2,67,64,0
2,60,58,192
2,52,89,76
2,60,29,0
2,64,84,0
2,67,81,0
2,60,61,139
2,53,74,88
2,60,62,0
2,65,66,0
2,69,76,0
2,60,48,3
2,65,59,126
2,69,73,0
2,60,60,159
2,60,47,35
2,65,72,0
2,69,98,0
2,60,76,103
2,52,84,53
2,60,77,0
2,64,95,0
2,67,95,0
2,60,84,13
2,50,83,35
2,62,74,0
2,65,79,0
2,69,85,0
2,62,49,94
2,65,66,94
2,69,76,0
2,62,61,187
2,65,69,83
2,69,74,0
2,62,60,192
2,62,40,96
2,65,72,0
2,69,84,0
2,62,63,131
2,50,67,106
2,62,66,0
2,65,69,0
2,69,80,0
2,62,49,65
2,62,46,109
2,65,57,0
2,69,72,0
2,62,53,105
2,62,59,122
2,65,64,0
2,69,72,0
2,62,58,95
2,62,68,134
2,65,63,0
2,69,81,0
2,62,62,120
2,60,78,137
2,62,79,0
2,65,72,0
2,69,83,0
2,62,58,18
2,62,56,83
2,65,62,0
2,69,58,0
2,62,63,71
2,62,65,106
2,65,63,0
2,69,76,0
2,62,59,87
2,65,77,101
2,69,83,0
2,62,67,6
2,43,71,136
2,59,81,0
2,67,85,0
2,59,58,70
2,62,86,99
2,67,75,192
2,55,81,10
2,59,73,0
2,62,81,0
2,67,85,0
2,59,71,134
2,53,89,50
2,59,80,0
2,62,78,0
2,67,88,0
2,59,71,19
2,52,79,15
2,59,69,0
2,64,81,0
2,67,85,0
2,59,66,9
2,64,68,88
2,67,71,0
2,59,57,192
2,59,60,131
2,64,68,0
2,67,65,0
2,59,59,5
2,59,58,101
2,64,66,0
2,67,68,0
2,59,68,134
2,45,53,86
2,60,59,0
2,64,60,0
2,69,81,0
2,60,57,16
2,60,61,97
2,64,68,0
2,69,79,0
2,60,59,111
2,60,69,69
2,64,75,0
2,69,82,0
2,60,55,106
2,57,63,116
2,60,67,0
2,64,77,0
2,69,91,0
2,57,69,117
2,60,67,0
2,50,80,85
2,60,73,0
2,65,69,0
2,69,80,0
2,60,55,23
2,60,76,81
2,65,73,0
2,69,85,0
2,60,64,105
2,43,83,99
2,60,77,0
2,65,70,0
2,69,87,0
2,60,60,66
2,55,52,107
2,60,76,0
2,65,69,0
2,69,90,0
2,55,51,7
2,60,62,0
2,60,71,101
2,67,76,0
2,76,89,0
2,79,102,0
2,86,105,352
2,63,68,58
2,72,71,0
2,75,90,0
2,79,84,0
2,84,92,0
2,72,88,184
2,75,86,0
2,79,96,0
2,62,70,31
2,69,85,0
2,72,88,0
2,77,93,0
2,81,99,188
2,84,101,0
2,55,69,34
2,65,67,0
2,74,91,0
2,77,93,0
2,83,99,0
2,71,79,236
2,74,93,0
2,77,96,0
2,60,59,54
2,60,87,0
2,67,97,0
2,76,98,0
2,76,112,0
2,88,117,0
2,79,108,258
2,91,114,0
2,53,88,23
2,60,89,0
2,77,106,0
2,89,115,0
2,55,103,45
2,62,102,0
2,74,107,126
2,86,111,0
2,88,115,16
2,76,103,1
2,60,87,5
2,60,55,51
2,67,53,56
2,72,67,48
2,76,54,17
2,79,61,33
2,84,94,40
3,79,115,8829
3,79,115,0
3,88,98,0
3,88,95,118
3,88,87,61
3,86,87,192
3,84,75,16
3,86,77,7
3,88,83,192
3,88,72,264
3,88,78,62
3,88,86,11
3,88,83,26
3,86,85,27
3,84,77,61
3,86,94,1
3,88,95,12
3,88,99,161
3,89,87,5
3,91,74,29
3,84,74,192
3,84,83,27
3,84,72,48
3,81,84,5
3,79,75,4
3,86,98,192
3,88,85,183
3,88,77,24
3,88,97,166
3,89,96,192
3,91,83,0
3,84,72,192
3,84,87,70
3,84,83,57
3,84,82,14
3,81,100,7
3,79,76,25
3,86,98,192
3,88,80,183
3,88,81,34
3,88,96,126
3,89,94,192
3,91,95,34
3,84,79,192
3,84,80,57
3,84,88,6
3,81,90,180
3,79,79,0
3,86,96,192
3,88,91,6
3,86,114,1536
3,86,112,23
3,84,111,192
3,83,93,48
3,83,87,121
3,83,79,43
3,83,97,39
3,83,77,47
3,83,75,16
3,83,66,63
3,83,70,37
3,83,83,28
3,83,96,23
3,83,95,26
3,83,112,17
3,84,110,12
3,86,118,165
3,91,104,178
3,84,93,8
3,84,94,30
3,88,95,9
3,86,104,2
3,84,94,17
3,84,85,28
3,88,103,879
3,84,80,15
3,91,82,96
3,88,97,159
3,88,83,100
3,89,99,192
3,89,93,77
3,91,76,192
3,91,72,51
3,84,65,7
3,84,77,87
3,88,87,43
3,88,91,50
3,89,98,192
3,89,107,38
3,91,86,23
3,91,81,77
3,84,83,192
3,84,73,62
3,83,79,192
3,81,96,9
3,88,96,363
3,89,93,63
3,89,101,15
3,89,103,174
3,89,115,58
3,91,95,28
3,91,84,66
3,93,89,192
3,93,103,29
3,91,89,3
3,91,89,40
3,89,97,9
3,89,79,51
3,88,91,18
3,88,70,63
3,86,92,192
3,86,85,48
3,84,82,10
3,84,76,36
3,86,96,96
3,83,91,42
3,91,79,312
3,84,74,33
3,84,78,49
3,88,87,82
3,86,93,192
3,88,78,9
3,84,92,3
3,84,94,193
3,84,82,44
3,88,79,23
3,86,97,192
3,84,80,35
3,84,78,35
3,88,103,768
3,84,80,15
3,91,82,96
3,88,97,159
3,88,83,100
3,89,99,192
3,89,93,77
3,91,76,192
3,91,72,51
3,84,65,7
3,84,77,87
3,88,87,43
3,88,91,50
3,89,98,192
3,89,107,38
3,91,86,23
3,91,81,77
3,84,83,192
3,84,73,62
3,83,79,192
3,81,96,9
3,88,96,363
3,89,93,63
3,89,101,15
3,89,103,174
3,89,115,58
3,91,95,28
3,91,84,66
3,93,89,192
3,93,103,29
3,91,89,3
3,91,89,40
3,89,97,9
3,89,79,51
3,88,91,18
3,88,70,63
3,86,92,192
3,86,85,48
3,84,82,10
3,84,76,36
3,86,96,96
3,83,91,42
3,91,79,312
3,84,74,33
3,84,78,49
3,88,87,82
3,86,93,192
3,88,78,9
3,84,92,3
3,84,94,193
3,84,82,44
3,88,79,23
3,86,97,192
3,84,80,35
3,84,106,35
4,64,96,3072
4,67,92,0
4,60,85,0
4,63,83,28
4,60,87,0
4,67,100,0
4,60,77,29
4,62,88,0
4,57,93,0
4,65,85,0
4,55,91,4
4,59,82,0
4,62,85,0
4,65,53,0
4,55,91,7
4,48,88,0
4,60,90,0
4,64,94,0
4,52,82,6
4,64,96,0
4,60,88,0
4,67,91,0
4,60,93,21
4,65,87,0
4,50,74,0
4,57,90,0
4,59,85,5
4,43,98,0
4,55,87,0
4,55,56,36
4,62,85,0
4,55,85,9
4,64,82,0
4,60,81,0
4,62,79,27
