track,note,velocity,time
1,40,63,10332
1,52,63,4
1,40,63,4
1,52,63,0
1,40,63,0
1,52,63,4
1,40,63,0
1,54,63,4
1,35,63,0
1,47,63,4
1,35,63,0
1,47,63,0
1,35,63,0
1,47,63,4
1,35,63,0
1,54,63,0
1,33,63,0
1,45,63,0
1,33,63,4
1,45,63,0
1,33,63,0
1,45,63,0
1,33,63,4
1,45,63,0
1,33,63,4
1,45,63,0
1,33,63,0
1,45,63,4
1,33,63,0
1,45,63,0
1,35,63,0
1,47,63,4
1,40,63,4
1,52,63,0
1,40,63,0
1,52,63,4
1,40,63,0
1,52,63,0
1,40,63,4
1,54,63,4
1,35,63,0
1,47,63,4
1,35,63,4
1,47,63,0
1,35,63,0
1,47,63,0
1,35,63,4
1,54,63,4
1,33,63,0
1,45,63,0
1,33,63,0
1,45,63,0
1,33,63,0
1,45,63,0
1,33,63,0
1,45,63,4
1,33,63,4
1,45,63,0
1,33,63,4
1,45,63,0
1,33,63,0
1,45,63,0
1,35,63,4
1,47,63,4
1,40,56,0
1,52,56,0
1,40,56,0
1,52,56,0
1,40,56,0
1,52,56,0
1,40,56,0
1,52,56,0
1,35,56,4
1,47,56,0
1,35,56,0
1,47,56,0
1,35,56,0
1,47,56,0
1,35,56,0
1,47,56,0
1,33,56,4
1,45,56,0
1,33,56,0
1,45,56,0
1,33,56,4
1,45,56,0
1,33,56,0
1,45,56,0
1,31,56,4
1,43,56,0
1,31,56,4
1,43,56,0
1,31,56,0
1,43,56,0
1,33,56,0
1,45,56,0
1,40,56,4
1,52,56,0
1,40,56,0
1,52,56,0
1,40,56,0
1,52,56,0
1,40,56,0
1,52,56,0
1,35,56,4
1,47,56,0
1,35,56,0
1,47,56,0
1,35,56,0
1,47,56,0
1,35,56,0
1,47,56,0
1,33,56,4
1,45,56,0
1,33,56,0
1,45,56,0
1,33,56,0
1,45,56,0
1,33,56,4
1,45,56,0
1,31,56,4
1,43,56,0
1,31,56,8
1,43,56,4
1,31,56,0
1,43,56,0
1,33,56,0
1,45,56,0
1,40,56,4
1,52,56,0
1,40,56,0
1,52,56,0
1,40,56,0
1,52,56,0
1,40,56,0
1,52,56,0
1,35,56,4
1,47,56,0
1,35,56,0
1,47,56,0
1,35,56,0
1,47,56,0
1,35,56,0
1,47,56,0
1,33,56,4
1,45,56,0
1,33,56,0
1,45,56,0
1,33,56,0
1,45,56,0
1,33,56,0
1,45,56,0
1,31,56,4
1,43,56,0
1,31,56,0
1,43,56,0
1,31,56,0
1,43,56,0
1,33,56,0
1,45,56,0
1,40,56,4
1,52,56,0
1,40,56,0
1,52,56,0
1,40,56,0
1,52,56,0
1,40,56,0
1,52,56,0
1,35,56,4
1,47,56,0
1,35,56,0
1,47,56,0
1,35,56,0
1,47,56,0
1,35,56,0
1,47,56,0
1,33,56,4
1,45,56,0
1,33,56,0
1,45,56,0
1,33,56,0
1,45,56,0
1,33,56,0
1,45,56,0
1,31,56,4
1,43,56,0
1,31,56,4
1,43,56,0
1,31,56,0
1,43,56,0
1,33,56,0
1,45,56,0
1,40,63,4
1,52,63,0
1,40,63,0
1,52,63,0
1,40,63,0
1,52,63,0
1,40,63,4
1,54,63,4
1,35,63,4
1,47,63,4
1,35,63,4
1,47,63,0
1,35,63,0
1,47,63,0
1,35,63,0
1,54,63,4
1,33,63,0
1,45,63,4
1,33,63,0
1,45,63,0
1,33,63,0
1,45,63,0
1,33,63,0
1,45,63,0
1,33,63,4
1,45,63,0
1,33,63,0
1,45,63,0
1,33,63,0
1,45,63,0
1,35,63,4
1,47,63,0
1,40,63,0
1,52,63,0
1,40,63,4
1,52,63,4
1,40,63,0
1,52,63,4
1,40,63,0
1,54,63,0
1,35,63,4
1,47,63,4
1,35,63,0
1,47,63,0
1,35,63,0
1,47,63,4
1,35,63,0
1,54,63,0
1,33,63,0
1,45,63,0
1,33,63,4
1,45,63,0
1,33,63,0
1,45,63,0
1,33,63,0
1,45,63,0
1,33,63,4
1,45,63,0
1,33,63,0
1,45,63,0
1,33,63,0
1,45,63,0
1,35,63,0
1,47,63,4
1,40,63,0
1,52,63,0
1,40,63,4
1,52,63,0
1,40,63,0
1,52,63,0
1,40,63,0
1,54,63,0
1,35,63,4
1,47,63,4
1,35,63,4
1,47,63,0
1,35,63,0
1,47,63,0
1,35,63,0
1,54,63,4
1,33,63,0
1,45,63,4
1,33,63,0
1,45,63,0
1,33,63,0
1,45,63,0
1,33,63,0
1,45,63,4
1,33,63,8
1,45,63,4
1,33,63,4
1,45,63,0
1,33,63,0
1,45,63,0
1,35,63,4
1,47,63,0
1,40,63,0
1,52,63,4
1,40,63,0
1,52,63,4
1,40,63,0
1,52,63,0
1,40,63,4
1,54,63,0
1,35,63,4
1,47,63,4
1,35,63,0
1,47,63,4
1,35,63,0
1,47,63,4
1,35,63,4
1,54,63,4
1,33,63,0
1,45,63,0
1,33,63,0
1,45,63,0
1,33,63,0
1,45,63,4
1,33,63,0
1,45,63,0
1,33,63,4
1,45,63,4
1,33,63,0
1,45,63,0
1,33,63,0
1,45,63,0
1,35,63,0
1,47,63,4
1,40,56,0
1,52,56,0
1,40,56,0
1,52,56,0
1,40,56,0
1,52,56,0
1,40,56,0
1,52,56,0
1,35,56,4
1,47,56,4
1,35,56,0
1,47,56,0
1,35,56,0
1,47,56,0
1,35,56,0
1,47,56,0
1,33,56,0
1,45,56,0
1,33,56,4
1,45,56,4
1,33,56,0
1,45,56,0
1,33,56,0
1,45,56,0
1,31,56,4
1,43,56,0
1,31,56,8
1,43,56,0
1,31,56,4
1,43,56,0
1,33,56,4
1,45,56,0
1,40,56,0
1,52,56,0
1,40,56,0
1,52,56,0
1,40,56,0
1,52,56,0
1,40,56,0
1,52,56,0
1,35,56,4
1,47,56,0
1,35,56,0
1,47,56,0
1,35,56,4
1,47,56,0
1,35,56,4
1,47,56,0
1,33,56,0
1,45,56,0
1,33,56,0
1,45,56,0
1,33,56,0
1,45,56,0
1,33,56,0
1,45,56,4
1,31,56,4
1,43,56,0
1,31,56,0
1,43,56,0
1,31,56,0
1,43,56,0
1,33,56,0
1,45,56,0
1,40,56,0
1,52,56,0
1,40,56,0
1,52,56,0
1,40,56,0
1,52,56,4
1,40,56,0
1,52,56,0
1,35,56,4
1,47,56,4
1,35,56,0
1,47,56,0
1,35,56,0
1,47,56,0
1,35,56,0
1,47,56,0
1,33,56,0
1,45,56,0
1,33,56,0
1,45,56,4
1,33,56,0
1,45,56,0
1,33,56,4
1,45,56,0
1,31,56,4
1,43,56,4
1,31,56,0
1,43,56,0
1,31,56,0
1,43,56,0
1,33,56,0
1,45,56,0
1,40,56,0
1,52,56,0
1,40,56,0
1,52,56,4
1,40,56,0
1,52,56,0
1,40,56,0
1,52,56,4
1,35,56,4
1,47,56,0
1,35,56,4
1,47,56,0
1,35,56,4
1,47,56,4
1,35,56,4
1,47,56,0
1,33,56,4
1,45,56,4
1,33,56,0
1,45,56,0
1,33,56,0
1,45,56,0
1,33,56,0
1,45,56,0
1,31,56,4
1,43,56,0
1,31,56,4
1,43,56,0
1,31,56,0
1,43,56,0
1,33,56,0
1,45,56,0
1,40,63,0
1,52,63,0
1,40,63,0
1,52,63,4
1,40,63,0
1,52,63,4
1,40,63,4
1,54,63,0
1,35,63,4
1,47,63,0
1,35,63,0
1,47,63,4
1,35,63,0
1,47,63,4
1,35,63,0
1,54,63,0
1,33,63,0
1,45,63,4
1,33,63,4
1,45,63,0
1,33,63,0
1,45,63,0
1,33,63,0
1,45,63,0
1,33,63,4
1,45,63,0
1,33,63,0
1,45,63,0
1,33,63,0
1,45,63,0
1,35,63,0
1,47,63,0
1,40,63,4
1,52,63,0
1,40,63,0
1,52,63,0
1,40,63,0
1,52,63,0
1,40,63,0
1,54,63,0
1,35,63,4
1,47,63,4
1,35,63,4
1,47,63,0
1,35,63,0
1,47,63,0
1,35,63,0
1,54,63,4
1,33,63,0
1,45,63,0
1,33,63,0
1,45,63,0
1,33,63,0
1,45,63,0
1,33,63,0
1,45,63,4
1,33,63,4
1,45,63,0
1,33,63,4
1,45,63,0
1,33,63,0
1,45,63,0
1,35,63,4
1,47,63,0
1,40,63,0
1,52,63,4
1,40,63,0
1,52,63,4
1,40,63,0
1,52,63,0
1,40,63,4
1,54,63,0
1,35,63,4
1,47,63,4
1,35,63,0
1,47,63,4
1,35,63,0
1,47,63,4
1,35,63,4
1,54,63,0
1,33,63,0
1,45,63,0
1,33,63,0
1,45,63,0
1,33,63,0
1,45,63,0
1,33,63,0
1,45,63,0
1,33,63,4
1,45,63,4
1,33,63,0
1,45,63,0
1,33,63,0
1,45,63,0
1,35,63,0
1,47,63,4
1,40,63,0
1,52,63,0
1,40,63,0
1,52,63,0
1,40,63,0
1,52,63,0
1,40,63,4
1,54,63,0
1,35,63,4
1,47,63,0
1,35,63,4
1,47,63,0
1,35,63,0
1,47,63,0
1,35,63,0
1,54,63,0
1,33,63,0
1,45,63,0
1,33,63,0
1,45,63,4
1,33,63,4
1,45,63,0
1,33,63,4
1,45,63,0
1,33,63,4
1,45,63,0
1,33,63,4
1,45,63,0
1,33,63,0
1,45,63,0
1,35,63,0
1,47,63,0
1,40,63,0
1,52,63,4
1,40,63,4
1,52,63,4
1,40,63,0
1,52,63,0
1,40,63,4
1,54,63,0
1,35,63,4
1,47,63,0
1,35,63,4
1,47,63,0
1,35,63,0
1,47,63,0
1,35,63,4
1,54,63,0
1,33,63,0
1,45,63,4
1,33,63,0
1,45,63,0
1,33,63,0
1,45,63,0
1,33,63,4
1,45,63,0
1,33,63,4
1,45,63,4
1,33,63,0
1,45,63,0
1,33,63,0
1,45,63,0
1,35,63,0
1,47,63,0
1,40,63,0
1,52,63,0
1,40,63,0
1,52,63,0
1,40,63,0
1,52,63,4
1,40,63,0
1,54,63,0
1,35,63,4
1,47,63,0
1,35,63,0
1,47,63,0
1,35,63,0
1,47,63,4
1,35,63,0
1,54,63,0
1,33,63,0
1,45,63,0
1,33,63,0
1,45,63,4
1,33,63,0
1,45,63,0
1,33,63,0
1,45,63,0
1,33,63,4
1,45,63,0
1,33,63,0
1,45,63,0
1,33,63,0
1,45,63,0
1,35,63,0
1,47,63,0
1,40,63,0
1,52,63,0
1,40,63,0
1,52,63,0
1,40,63,0
1,52,63,0
1,40,63,4
1,54,63,4
1,35,63,0
1,47,63,4
1,35,63,0
1,47,63,0
1,35,63,0
1,47,63,0
1,35,63,0
1,54,63,4
1,33,63,0
1,45,63,4
1,33,63,0
1,45,63,4
1,33,63,4
1,45,63,0
1,33,63,0
1,45,63,4
1,33,63,4
1,45,63,0
1,33,63,4
1,45,63,4
1,33,63,0
1,45,63,0
1,35,63,4
1,47,63,0
1,40,63,0
1,52,63,0
1,40,63,0
1,52,63,4
1,40,63,0
1,52,63,4
1,40,63,0
1,54,63,4
1,35,63,8
1,47,63,0
1,35,63,0
1,47,63,0
1,35,63,0
1,47,63,4
1,35,63,0
1,54,63,0
1,33,63,0
1,45,63,0
1,33,63,0
1,45,63,0
1,33,63,0
1,45,63,0
1,33,63,0
1,45,63,0
1,33,63,4
1,45,63,0
1,33,63,0
1,45,63,0
1,33,63,0
1,45,63,0
1,35,63,0
1,47,63,4
1,40,63,0
1,52,63,0
1,40,63,0
1,52,63,0
1,40,63,0
1,52,63,0
1,40,63,0
1,54,63,0
1,35,63,4
1,47,63,0
1,35,63,0
1,47,63,0
1,35,63,0
1,47,63,0
1,35,63,0
1,54,63,4
1,33,63,0
1,45,63,0
1,33,63,4
1,45,63,4
1,33,63,0
1,45,63,0
1,33,63,0
1,45,63,4
1,33,63,4
1,45,63,4
1,33,63,4
1,45,63,0
1,33,63,0
1,45,63,0
1,35,63,0
1,47,63,0
1,40,63,0
1,52,63,4
1,40,63,0
1,52,63,4
1,40,63,0
1,52,63,0
1,40,63,0
1,54,63,0
1,35,63,4
1,47,63,4
1,35,63,0
1,47,63,4
1,35,63,0
1,47,63,0
1,35,63,4
1,54,63,4
1,33,63,0
1,45,63,0
1,33,63,4
1,45,63,0
1,33,63,0
1,45,63,0
1,33,63,0
1,45,63,0
1,33,63,4
1,45,63,4
1,33,63,0
1,45,63,0
1,33,63,4
1,45,63,0
1,35,63,0
1,47,63,4
1,40,63,0
1,52,63,0
1,40,63,0
1,52,63,4
1,40,63,4
1,52,63,0
1,40,63,0
1,54,63,0
1,35,63,4
1,47,63,0
1,35,63,0
1,47,63,0
1,35,63,0
1,47,63,0
1,35,63,0
1,54,63,4
1,33,63,0
1,45,63,0
1,33,63,0
1,45,63,0
1,33,63,0
1,45,63,0
1,33,63,0
1,45,63,0
1,33,63,4
1,45,63,4
1,33,63,4
1,45,63,0
1,33,63,0
1,45,63,0
1,35,63,0
1,47,63,4
1,40,63,0
1,52,63,4
1,40,63,4
1,52,63,4
1,40,63,0
1,52,63,0
1,40,63,0
1,54,63,0
1,35,63,0
1,47,63,4
1,35,63,4
1,47,63,0
1,35,63,0
1,47,63,4
1,35,63,4
1,54,63,4
1,33,63,0
1,45,63,4
1,33,63,0
1,45,63,0
1,33,63,0
1,45,63,0
1,33,63,0
1,45,63,0
1,33,63,4
1,45,63,4
1,33,63,0
1,45,63,0
1,33,63,0
1,45,63,0
1,35,63,0
1,47,63,0
1,40,63,0
1,52,63,4
1,40,63,4
1,52,63,4
1,40,63,0
1,52,63,4
1,40,63,0
1,54,63,0
1,35,63,4
1,47,63,0
1,35,63,0
1,47,63,0
1,35,63,0
1,47,63,4
1,35,63,0
1,54,63,0
1,33,63,0
1,45,63,0
1,33,63,0
1,45,63,0
1,33,63,0
1,45,63,0
1,33,63,0
1,45,63,0
1,33,63,4
1,45,63,4
1,33,63,4
1,45,63,0
1,33,63,0
1,45,63,0
1,35,63,0
1,47,63,4
1,40,63,4
1,52,63,0
1,40,63,0
1,52,63,4
1,40,63,0
1,52,63,0
1,40,63,0
1,54,63,0
1,35,63,4
1,47,63,4
1,35,63,0
1,47,63,4
1,35,63,0
1,47,63,0
1,35,63,0
1,54,63,4
1,33,63,0
1,45,63,0
1,33,63,0
1,45,63,4
1,33,63,0
1,45,63,0
1,33,63,0
1,45,63,0
1,33,63,4
1,45,63,0
1,33,63,0
1,45,63,4
1,33,63,0
1,45,63,0
1,35,63,4
1,47,63,0
1,40,63,0
1,52,63,4
1,40,63,0
1,52,63,4
1,40,63,0
1,52,63,4
1,40,63,0
1,54,63,0
1,35,63,4
1,47,63,4
1,35,63,0
1,47,63,4
1,35,63,0
1,47,63,4
1,35,63,0
1,54,63,0
1,33,63,0
1,45,63,0
1,33,63,4
1,45,63,0
1,33,63,0
1,45,63,0
1,33,63,4
1,45,63,0
1,33,63,4
1,45,63,0
1,33,63,4
1,45,63,0
1,33,63,4
1,45,63,0
1,35,63,0
1,47,63,0
1,40,63,0
1,52,63,0
1,40,63,0
1,52,63,0
1,40,63,0
1,52,63,0
1,40,63,0
1,54,63,0
1,35,63,4
1,47,63,0
1,35,63,0
1,47,63,0
1,35,63,0
1,47,63,0
1,35,63,4
1,54,63,4
1,33,63,0
1,45,63,4
1,33,63,4
1,45,63,4
1,33,63,0
1,45,63,4
1,33,63,0
1,45,63,4
1,33,63,4
1,45,63,4
1,33,63,4
1,45,63,0
1,33,63,0
1,45,63,0
1,35,63,0
1,47,63,0
1,40,63,0
1,38,67,16
1,40,70,8
2,71,94,10316
2,71,82,100
2,71,94,0
2,71,82,96
2,78,89,4
2,78,89,100
2,78,82,100
2,76,89,0
2,76,82,96
2,74,89,4
2,74,82,100
2,71,94,4
2,71,82,100
2,71,94,0
2,71,81,92
2,78,88,4
2,78,88,100
2,78,81,100
2,76,88,0
2,76,81,96
2,74,88,4
2,73,94,104
2,73,81,96
2,73,94,0
2,73,81,96
2,73,88,8
2,73,88,100
2,73,81,100
2,74,87,0
2,74,80,92
2,76,87,4
2,73,94,100
2,73,80,100
2,73,94,0
2,73,80,96
2,76,87,4
2,76,87,100
