track,note,velocity,time
2,36,84,3064
2,36,84,1494
2,36,84,1494
2,36,84,1878
2,36,84,342
2,36,84,342
2,36,84,342
2,36,84,342
2,36,84,342
2,36,84,342
2,36,84,342
2,36,84,342
2,36,84,342
2,36,84,342
2,36,84,342
2,36,84,342
2,36,84,342
2,36,84,342
2,36,84,342
2,36,84,342
2,36,84,342
2,36,84,342
2,36,84,342
2,36,84,342
2,36,84,342
2,36,84,342
2,36,84,342
2,36,84,342
2,36,84,342
2,36,84,342
2,36,84,342
2,36,84,342
2,36,84,342
2,36,84,342
2,36,84,342
2,36,84,342
2,36,84,342
2,36,84,342
2,36,84,342
2,36,84,342
2,36,84,342
2,36,84,342
2,36,84,342
2,36,84,342
2,36,84,342
2,36,84,342
2,36,84,342
2,36,84,342
2,36,84,342
2,36,84,342
2,36,84,342
2,36,84,342
2,36,84,342
2,36,84,342
2,36,84,342
2,36,84,342
2,36,84,342
2,36,84,342
2,36,84,342
2,36,84,342
2,36,84,342
2,36,84,342
2,36,84,342
2,36,84,342
2,36,84,342
2,36,84,342
2,36,84,342
2,36,84,342
2,36,84,342
2,36,84,342
2,36,84,342
2,36,84,342
2,36,84,1110
2,36,84,1494
2,36,84,1494
2,36,84,1494
2,36,84,1878
2,36,84,342
2,36,84,342
2,36,84,342
2,36,84,342
2,36,84,342
2,36,84,342
2,36,84,342
2,36,84,342
2,36,84,342
2,36,84,342
2,36,84,342
2,36,84,342
2,36,84,342
2,36,84,342
2,36,84,342
2,36,84,342
2,36,84,342
2,36,84,342
2,36,84,342
2,36,84,342
2,36,84,342
2,36,84,342
2,36,84,342
2,36,84,342
2,36,84,342
2,36,84,342
2,36,84,342
2,36,84,342
2,36,84,342
2,36,84,342
2,36,84,342
2,36,84,342
2,36,84,342
2,36,84,342
2,36,84,342
2,36,84,342
2,36,84,342
2,36,84,342
2,36,84,342
2,36,84,342
2,36,84,342
2,36,84,342
2,36,84,342
2,36,84,342
2,36,84,342
2,36,84,342
2,36,84,342
2,36,84,342
2,36,84,342
2,36,84,342
2,36,84,342
2,36,84,342
2,36,84,342
2,36,84,342
2,36,84,342
2,36,84,342
2,36,84,342
2,36,84,342
2,36,84,342
2,36,84,342
2,36,84,342
2,36,84,342
2,36,84,342
2,36,84,342
2,36,84,342
2,36,84,342
2,36,84,342
2,36,84,342
2,36,84,1110
2,36,84,1494
2,36,84,1494
2,36,84,1494
2,36,84,1878
2,36,84,342
2,36,84,342
2,36,84,342
2,36,84,342
2,36,84,342
2,36,84,342
2,36,84,342
2,36,84,342
2,36,84,342
2,36,84,342
2,36,84,342
2,36,84,342
2,36,84,342
2,36,84,342
2,36,84,342
2,36,84,342
2,36,84,342
2,36,84,342
2,36,84,342
2,36,84,342
2,36,84,342
2,36,84,342
2,36,84,342
2,36,84,342
2,36,84,342
2,36,84,342
2,36,84,342
2,36,84,342
2,36,84,342
2,36,84,342
2,36,84,342
2,36,84,342
2,36,84,342
2,36,84,342
2,36,84,342
2,36,84,342
2,36,84,342
2,36,84,342
2,36,84,342
2,36,84,342
2,36,84,342
2,36,84,342
2,36,84,342
2,36,84,342
2,36,84,342
2,36,84,342
2,36,84,342
2,36,84,342
2,36,84,342
2,36,84,342
2,36,84,342
2,36,84,342
2,36,84,342
2,36,84,342
2,36,84,342
2,36,84,342
2,36,84,342
2,36,84,342
2,36,84,342
2,36,84,342
2,36,84,342
2,36,84,342
2,36,84,342
2,36,84,342
2,36,84,342
2,36,84,342
2,36,84,342
2,36,84,342
2,36,84,342
2,36,84,342
2,36,84,342
2,36,84,1494
2,36,84,1494
2,36,84,1494
2,36,84,1878
2,36,84,342
2,36,84,342
2,36,84,342
2,36,84,342
2,36,84,342
2,36,84,342
2,36,84,342
2,36,84,342
2,36,84,342
2,36,84,342
2,36,84,342
2,36,84,342
2,36,84,342
2,36,84,342
2,36,84,342
2,36,84,342
2,36,84,342
2,36,84,342
2,36,84,342
2,36,84,342
2,36,84,342
2,36,84,342
2,36,84,342
2,36,84,342
2,36,84,342
2,36,84,342
2,36,84,342
2,36,84,342
2,36,84,342
2,36,84,342
2,36,84,342
2,36,84,342
2,36,84,342
2,36,84,342
2,36,84,342
2,36,84,342
2,36,84,342
2,36,84,342
2,36,84,342
2,36,84,342
2,36,84,342
2,36,84,342
2,36,84,342
2,36,84,342
2,36,84,342
2,36,84,342
2,36,84,342
2,36,84,342
2,36,84,342
2,36,84,342
2,36,84,342
2,36,84,342
2,36,84,342
2,36,84,342
2,36,84,342
2,36,84,342
2,36,84,342
2,36,84,342
2,36,84,342
2,36,84,342
2,36,84,342
2,36,84,342
2,36,84,342
2,36,84,342
2,36,84,342
2,36,84,342
2,36,84,342
2,36,84,342
2,36,84,342
2,36,84,342
2,36,84,342
2,36,84,342
2,36,84,342
2,36,84,342
2,36,84,342
2,36,84,342
2,36,84,342
2,36,84,342
2,36,84,342
3,38,75,7476
3,38,57,156
3,38,77,60
3,38,45,60
3,38,75,60
3,38,86,444
3,38,86,716
3,38,86,708
3,38,86,716
3,38,86,708
3,38,86,716
3,38,86,708
3,38,86,716
3,38,86,708
3,38,86,716
3,38,86,708
3,38,56,236
3,38,86,44
3,38,79,140
3,38,86,140
3,38,86,708
3,38,86,716
3,38,86,708
3,38,86,716
3,38,86,708
3,38,86,716
3,38,86,708
3,38,86,716
3,38,86,708
3,38,86,716
3,38,86,708
3,38,86,716
3,38,86,708
3,38,86,716
3,38,86,708
3,38,86,716
3,38,86,708
3,38,86,716
3,38,86,708
3,38,86,716
3,38,75,8964
3,38,57,156
3,38,77,60
3,38,45,60
3,38,75,60
3,38,86,444
3,38,86,716
3,38,86,708
3,38,86,716
3,38,86,708
3,38,86,716
3,38,86,708
3,38,86,716
3,38,86,708
3,38,86,716
3,38,86,708
3,38,56,236
3,38,86,44
3,38,79,140
3,38,86,140
3,38,86,708
3,38,86,716
3,38,86,708
3,38,86,716
3,38,86,708
3,38,86,716
3,38,86,708
3,38,86,716
3,38,86,708
3,38,86,716
3,38,86,708
3,38,86,716
3,38,86,708
3,38,86,716
3,38,86,708
3,38,86,716
3,38,86,708
3,38,86,716
3,38,86,708
3,38,86,716
3,38,75,8964
3,38,57,156
3,38,77,60
3,38,45,60
3,38,75,60
3,38,86,444
3,38,86,716
3,38,86,708
3,38,86,716
3,38,86,708
3,38,86,716
3,38,86,708
3,38,86,716
3,38,86,708
3,38,86,716
3,38,86,708
3,38,56,236
3,38,86,44
3,38,79,140
3,38,86,140
3,38,86,708
3,38,86,716
3,38,86,708
3,38,86,716
3,38,86,708
3,38,86,716
3,38,86,708
3,38,86,716
3,38,86,708
3,38,86,716
3,38,86,708
3,38,86,716
3,38,86,708
3,38,86,716
3,38,86,708
3,38,86,716
3,38,86,708
3,38,86,716
3,38,86,708
3,38,86,716
3,38,75,8964
3,38,57,156
3,38,77,60
3,38,45,60
3,38,75,60
3,38,86,444
3,38,86,716
3,38,86,708
3,38,86,716
3,38,86,708
3,38,86,716
3,38,86,708
3,38,86,716
3,38,86,708
3,38,86,716
3,38,86,708
3,38,86,716
3,38,86,708
3,38,86,716
3,38,86,708
3,38,67,332
3,38,79,132
3,38,86,132
3,38,86,708
3,38,86,716
3,38,86,708
3,38,86,716
3,38,86,708
3,38,86,716
3,38,86,708
3,38,86,716
3,38,75,5892
3,38,57,156
3,38,77,60
3,38,45,60
3,38,75,60
3,38,86,444
3,38,86,716
3,38,86,708
3,38,86,716
3,38,86,708
3,38,86,716
3,38,86,708
3,38,86,716
4,42,100,1904
4,42,37,144
4,42,73,44
4,42,100,36
4,42,36,148
4,42,73,30
4,42,100,36
4,42,40,156
4,42,73,32
4,42,100,34
4,42,43,148
4,42,73,26
4,42,100,36
4,42,37,144
4,42,73,44
4,42,100,36
4,42,36,148
4,42,73,30
4,42,100,36
4,42,40,156
4,42,73,32
4,42,100,34
4,42,40,148
4,42,73,26
4,42,100,36
4,42,37,144
4,42,73,44
4,42,100,36
4,42,36,148
4,42,73,30
4,42,100,36
4,42,40,156
4,42,73,32
4,42,100,34
4,42,43,148
4,42,73,26
4,42,100,36
4,42,37,144
4,42,73,44
4,42,100,36
4,42,36,148
4,42,73,30
4,42,100,36
4,42,100,732
4,42,37,144
4,42,73,44
4,42,100,36
4,42,36,148
4,42,73,30
4,42,100,36
4,42,40,156
4,42,73,32
4,42,100,34
4,42,43,148
4,42,73,26
4,42,100,36
4,42,37,144
4,42,73,44
4,42,100,36
4,42,36,148
4,42,73,30
4,42,100,36
4,42,40,156
4,42,73,32
4,42,100,34
4,42,40,148
4,42,73,26
4,42,100,36
4,42,37,144
4,42,73,44
4,42,100,36
4,42,36,148
4,42,73,30
4,42,100,36
4,42,40,156
4,42,73,32
4,42,100,34
4,42,43,148
4,42,73,26
4,42,100,36
4,42,37,144
4,42,73,44
4,42,100,36
4,42,36,148
4,42,73,30
4,42,100,36
4,42,40,156
4,42,73,32
4,42,100,34
4,42,40,148
4,42,73,26
4,42,100,36
4,42,37,144
4,42,73,44
4,42,100,36
4,42,36,148
4,42,73,30
4,42,100,36
4,42,40,156
4,42,73,32
4,42,100,34
4,42,43,148
4,42,73,26
4,42,100,36
4,42,37,144
4,42,73,44
4,42,100,36
4,42,36,148
4,42,73,30
4,42,100,36
4,42,40,156
4,42,73,32
4,42,100,34
4,46,90,148
4,42,100,122
4,42,37,144
4,42,73,44
4,42,100,36
4,42,36,148
4,42,73,30
4,42,100,36
4,42,40,156
4,42,73,32
4,42,100,34
4,42,43,148
4,42,73,26
4,42,100,36
4,42,37,144
4,42,73,44
4,42,100,36
4,42,36,148
4,42,73,30
4,42,100,36
4,42,40,156
4,42,73,32
4,42,100,34
4,42,40,148
4,42,73,26
4,42,100,36
4,42,37,144
4,42,73,44
4,42,100,36
4,42,36,148
4,42,73,30
4,42,100,36
4,42,40,156
4,42,73,32
4,42,100,34
4,42,43,148
4,42,73,26
4,42,100,36
4,42,37,144
4,42,73,44
4,42,100,36
4,42,36,148
4,42,73,30
4,42,100,36
4,42,40,156
4,42,73,32
4,42,100,34
4,42,40,148
4,42,73,26
4,42,100,36
4,46,87,144
4,42,100,140
4,46,86,148
4,42,100,126
4,46,90,156
4,42,100,128
4,46,93,148
4,42,100,122
4,46,87,144
4,42,100,140
4,46,86,148
4,42,100,126
4,46,90,156
4,42,100,128
4,46,90,148
4,42,100,122
4,46,87,144
4,42,100,140
4,46,86,148
4,42,100,126
4,46,90,156
4,42,100,128
4,46,93,148
4,42,100,122
4,46,87,144
4,42,100,140
4,46,86,148
4,42,100,126
4,46,90,156
4,42,100,128
4,46,90,148
4,42,100,122
4,46,87,144
4,42,100,140
4,46,86,148
4,42,100,126
4,46,90,156
4,42,100,128
4,46,93,148
4,42,100,122
4,46,87,144
4,42,100,140
4,46,86,148
4,42,100,126
4,46,90,156
4,42,100,128
4,46,90,148
4,42,100,122
4,42,37,144
4,42,73,44
4,42,100,36
4,42,36,148
4,42,73,30
4,42,100,36
4,42,40,156
4,42,73,32
4,42,100,34
4,46,87,148
4,42,100,122
4,42,37,144
4,42,73,44
4,42,100,36
4,42,36,148
4,42,73,30
4,42,100,36
4,42,40,156
4,42,73,32
4,42,100,34
4,42,40,148
4,42,73,26
4,42,100,36
4,42,37,144
4,42,73,44
4,42,100,36
4,42,36,148
4,42,73,30
4,42,100,36
4,42,40,156
4,42,73,32
4,42,100,34
4,42,43,148
4,42,73,26
4,42,100,36
4,42,37,144
4,42,73,44
4,42,100,36
4,42,36,148
4,42,73,30
4,42,100,36
4,42,40,156
4,42,73,32
4,42,100,34
4,42,40,148
4,42,73,26
4,42,100,36
4,42,37,144
4,42,73,44
4,42,100,36
4,42,36,148
4,42,73,30
4,42,100,36
4,42,40,156
4,42,73,32
4,42,100,34
4,42,43,148
4,42,73,26
4,42,100,36
4,42,37,144
4,42,73,44
4,42,100,36
4,42,36,148
4,42,73,30
4,42,100,36
4,42,100,732
4,42,37,144
4,42,73,44
4,42,100,36
4,42,36,148
4,42,73,30
4,42,100,36
4,42,40,156
4,42,73,32
4,42,100,34
4,42,43,148
4,42,73,26
4,42,100,36
4,42,37,144
4,42,73,44
4,42,100,36
4,42,36,148
4,42,73,30
4,42,100,36
4,42,40,156
4,42,73,32
4,42,100,34
4,42,40,148
4,42,73,26
4,42,100,36
4,42,37,144
4,42,73,44
4,42,100,36
4,42,36,148
4,42,73,30
4,42,100,36
4,42,40,156
4,42,73,32
4,42,100,34
4,42,43,148
4,42,73,26
4,42,100,36
4,42,37,144
4,42,73,44
4,42,100,36
4,42,36,148
4,42,73,30
4,42,100,36
4,42,40,156
4,42,73,32
4,42,100,34
4,42,40,148
4,42,73,26
4,42,100,36
4,42,37,144
4,42,73,44
4,42,100,36
4,42,36,148
4,42,73,30
4,42,100,36
4,42,40,156
4,42,73,32
4,42,100,34
4,42,43,148
4,42,73,26
4,42,100,36
4,42,37,144
4,42,73,44
4,42,100,36
4,42,36,148
4,42,73,30
4,42,100,36
4,42,40,156
4,42,73,32
4,42,100,34
4,46,90,148
4,42,100,122
4,42,37,144
4,42,73,44
4,42,100,36
4,42,36,148
4,42,73,30
4,42,100,36
4,42,40,156
4,42,73,32
4,42,100,34
4,42,43,148
4,42,73,26
4,42,100,36
4,42,37,144
4,42,73,44
4,42,100,36
4,42,36,148
4,42,73,30
4,42,100,36
4,42,40,156
4,42,73,32
4,42,100,34
4,42,40,148
4,42,73,26
4,42,100,36
4,42,37,144
4,42,73,44
4,42,100,36
4,42,36,148
4,42,73,30
4,42,100,36
4,42,40,156
4,42,73,32
4,42,100,34
4,42,43,148
4,42,73,26
4,42,100,36
4,42,37,144
4,42,73,44
4,42,100,36
4,42,36,148
4,42,73,30
4,42,100,36
4,42,40,156
4,42,73,32
4,42,100,34
4,46,84,148
4,42,100,122
4,46,87,144
4,42,100,140
4,46,86,148
4,42,100,126
4,46,90,156
4,42,100,128
4,46,93,148
4,42,100,122
4,46,87,144
4,42,100,140
4,46,86,148
4,42,100,126
4,46,90,156
4,42,100,128
4,46,90,148
4,42,100,122
4,46,87,144
4,42,100,140
4,46,86,148
4,42,100,126
4,46,90,156
4,42,100,128
4,46,93,148
4,42,100,122
4,46,87,144
4,42,100,140
4,46,86,148
4,42,100,126
4,46,90,156
4,42,100,128
4,46,90,148
4,42,100,122
4,46,87,144
4,42,100,140
4,46,86,148
4,42,100,126
4,46,90,156
4,42,100,128
4,46,93,148
4,42,100,122
4,46,87,144
4,42,100,140
4,46,86,148
4,42,100,126
4,46,90,156
4,42,100,128
4,46,90,148
4,42,100,122
4,42,37,144
4,42,73,44
4,42,100,36
4,42,36,148
4,42,73,30
4,42,100,36
4,42,40,156
4,42,73,32
4,42,100,34
4,46,87,148
4,42,100,122
4,42,37,144
4,42,73,44
4,42,100,36
4,42,36,148
4,42,73,30
4,42,100,36
4,42,40,156
4,42,73,32
4,42,100,34
4,42,40,148
4,42,73,26
4,42,100,36
4,42,37,144
4,42,73,44
4,42,100,36
4,42,36,148
4,42,73,30
4,42,100,36
4,42,40,156
4,42,73,32
4,42,100,34
4,42,43,148
4,42,73,26
4,42,100,36
4,42,37,144
4,42,73,44
4,42,100,36
4,42,36,148
4,42,73,30
4,42,100,36
4,42,40,156
4,42,73,32
4,42,100,34
4,42,40,148
4,42,73,26
4,42,100,36
4,42,37,144
4,42,73,44
4,42,100,36
4,42,36,148
4,42,73,30
4,42,100,36
4,42,40,156
4,42,73,32
4,42,100,34
4,42,43,148
4,42,73,26
4,42,100,36
4,42,37,144
4,42,73,44
4,42,100,36
4,42,36,148
4,42,73,30
4,42,100,36
4,42,100,732
4,42,37,144
4,42,73,44
4,42,100,36
4,42,36,148
4,42,73,30
4,42,100,36
4,42,40,156
4,42,73,32
4,42,100,34
4,42,43,148
4,42,73,26
4,42,100,36
4,42,37,144
4,42,73,44
4,42,100,36
4,42,36,148
4,42,73,30
4,42,100,36
4,42,40,156
4,42,73,32
4,42,100,34
4,42,40,148
4,42,73,26
