track,note,velocity,time
0,43,79,118
0,59,74,0
0,62,80,0
0,66,74,0
0,35,122,2
0,51,83,0
0,31,104,0
0,50,77,0
0,59,81,0
0,62,75,0
0,66,77,0
0,43,78,82
0,59,78,0
0,62,83,0
0,66,78,0
0,35,120,6
0,51,92,0
0,31,104,0
0,59,76,0
0,62,80,0
0,66,74,0
0,37,127,188
0,43,77,20
0,59,76,0
0,62,79,0
0,66,75,0
0,35,124,12
0,51,86,0
0,31,110,0
0,59,76,0
0,62,77,0
0,66,74,0
0,43,82,28
0,59,80,0
0,62,83,0
0,66,79,0
0,35,122,4
0,51,83,0
0,31,105,0
0,59,76,0
0,62,77,0
0,66,80,0
0,37,119,48
0,59,80,28
0,62,78,0
0,66,78,0
0,35,124,4
0,51,83,0
0,31,113,0
0,59,76,0
0,62,82,0
0,66,80,0
0,50,83,0
0,60,78,0
0,64,77,0
0,67,76,0
0,35,123,4
0,51,89,0
0,38,105,0
0,52,81,0
0,60,80,0
0,64,75,0
0,67,79,0
0,37,118,40
0,69,79,0
0,72,81,0
0,60,80,2
0,64,76,0
0,69,83,0
0,69,82,2
0,74,83,0
0,35,121,4
0,38,107,0
0,78,76,0
0,81,80,0
0,60,77,106
0,64,78,0
0,67,82,0
0,37,120,12
0,76,79,4
0,79,81,0
0,43,75,0
0,59,81,0
0,62,82,0
0,66,80,0
0,35,120,4
0,51,89,0
0,31,109,0
0,54,80,0
0,59,75,0
0,62,76,0
0,66,82,0
0,74,78,0
0,78,74,0
0,35,123,88
0,51,88,0
0,31,113,0
0,43,81,0
0,59,82,0
0,62,80,0
0,66,80,0
0,59,79,0
0,62,77,0
0,66,82,0
0,37,120,188
0,43,74,0
0,59,78,0
0,62,77,0
0,66,82,0
0,35,120,4
0,51,90,0
0,31,107,0
0,59,82,0
0,62,82,0
0,66,79,0
0,71,77,0
0,74,82,0
0,35,121,32
0,51,86,0
0,31,112,0
0,59,80,0
0,62,78,0
0,66,74,0
0,43,81,2
0,59,79,0
0,62,78,0
0,66,76,0
0,37,119,4
0,74,83,0
0,78,82,0
0,59,75,26
0,62,74,0
0,66,79,0
0,35,126,6
0,51,85,0
0,31,107,0
0,59,79,0
0,62,77,0
0,66,82,0
0,35,118,4
0,51,83,0
0,38,105,0
0,50,75,0
0,60,80,0
0,64,80,0
0,67,75,0
0,55,76,0
0,60,75,0
0,64,82,0
0,67,76,0
0,72,82,0
0,76,82,0
0,37,119,312
0,50,103,0
0,69,74,10
0,50,98,1
0,72,77,32
0,76,78,0
0,35,122,4
0,50,100,0
0,38,105,0
0,38,78,0
0,79,74,0
0,50,103,24
0,47,107,188
0,47,105,188
0,43,104,92
0,43,102,92
0,31,110,4
0,64,127,0
0,55,75,2
0,59,78,18
0,62,126,2
0,66,81,186
0,51,86,6
0,74,80,188
0,47,81,6
0,35,107,12
0,57,74,188
0,69,81,192
0,51,86,4
0,35,104,128
0,72,79,0
0,48,74,16
0,36,106,0
0,59,80,116
0,67,83,192
0,51,92,4
0,62,119,124
0,71,77,66
0,64,127,20
0,36,108,20
0,67,125,0
0,48,77,14
0,64,80,0
0,66,119,70
0,51,87,128
0,67,82,0
0,64,123,20
0,71,77,52
0,62,119,20
0,52,83,16
0,52,110,0
0,59,124,0
0,62,77,116
0,51,84,196
0,67,81,0
0,71,78,184
0,50,76,20
0,50,104,4
0,59,81,188
0,51,90,196
0,67,80,2
0,69,75,186
0,48,80,12
0,48,112,0
0,59,76,300
0,67,78,0
0,51,83,12
0,57,122,124
0,64,79,60
0,59,123,20
0,47,81,16
0,57,79,0
0,47,110,4
0,62,124,0
0,69,80,20
0,59,124,0
0,59,80,16
0,67,82,0
0,51,86,4
0,63,119,84
0,71,74,20
0,47,104,4
0,59,127,20
0,52,75,16
0,40,109,0
0,66,120,0
0,64,78,122
0,67,83,188
0,51,89,2
0,71,80,14
0,40,110,6
0,67,123,0
0,66,119,22
0,38,109,18
0,50,79,0
0,64,121,0
0,64,76,166
0,67,82,200
0,51,84,4
0,71,83,28
0,38,110,4
0,36,113,20
0,48,78,0
0,60,76,188
0,64,74,16
0,51,91,4
0,48,79,16
0,67,79,0
0,57,122,4
0,59,126,28
0,38,109,0
0,57,123,0
0,50,82,2
0,67,82,0
0,69,81,0
0,66,81,12
0,37,124,6
0,38,105,0
0,55,120,18
0,43,75,8
0,55,81,0
0,59,75,0
0,62,80,0
0,66,75,0
0,35,127,12
0,51,89,0
0,31,108,0
0,55,80,0
0,59,83,0
0,62,77,0
0,66,76,0
0,59,120,0
0,55,75,84
0,59,75,0
0,62,74,0
0,66,80,0
0,35,124,4
0,51,84,0
0,31,109,0
0,59,77,0
0,62,82,0
0,66,78,0
0,35,124,32
0,51,89,0
0,31,109,0
0,43,81,0
0,55,80,0
0,59,83,0
0,62,81,0
0,66,76,0
0,59,79,0
0,62,82,0
0,66,83,0
0,43,79,16
0,55,80,0
0,59,83,0
0,62,74,0
0,66,75,0
0,35,124,4
0,51,83,0
0,31,112,0
0,59,83,0
0,62,80,0
0,66,74,0
0,35,125,32
0,51,90,0
0,31,107,0
0,59,79,0
0,62,80,0
0,66,79,0
0,55,80,2
0,59,76,0
0,62,82,0
0,66,76,0
0,50,83,2
0,57,83,0
0,60,80,0
0,64,81,0
0,67,74,0
0,35,119,2
0,51,86,0
0,38,111,0
0,50,82,0
0,60,77,0
0,64,75,0
0,67,81,0
0,66,78,312
0,69,75,0
0,55,78,106
0,60,83,0
0,64,78,0
0,69,82,0
0,67,83,4
0,71,82,0
0,38,83,0
0,35,124,4
0,50,98,0
0,38,108,0
0,69,77,0
0,72,77,0
0,50,106,92
0,72,79,4
0,76,83,0
0,47,105,24
0,64,74,4
0,67,80,0
0,69,79,0
0,72,74,0
0,76,78,0
0,79,81,0
0,47,99,96
0,43,107,4
0,78,76,0
0,81,78,0
0,55,119,0
0,59,121,4
0,43,76,0
0,59,82,0
0,62,77,0
0,66,74,0
0,35,127,4
0,42,66,0
0,31,107,0
0,55,75,0
0,74,74,0
0,78,77,0
0,64,120,0
0,42,61,20
0,31,110,0
0,62,120,0
0,38,120,188
0,42,65,0
0,76,78,0
0,84,74,0
0,35,121,4
0,42,67,0
0,31,110,0
0,74,78,0
0,83,81,0
0,47,82,26
0,57,77,0
0,62,77,0
0,66,78,0
0,35,125,4
0,42,65,0
0,35,110,0
0,54,80,0
0,72,83,0
0,81,76,0
0,42,67,4
0,35,110,0
0,71,75,0
0,79,83,0
0,38,125,4
0,42,60,0
0,69,76,0
0,78,76,0
0,35,118,4
0,42,61,0
0,35,105,0
0,67,81,0
0,76,76,0
0,48,75,0
0,55,82,0
0,60,74,0
0,64,82,0
0,35,120,4
0,42,66,0
0,36,110,0
0,52,81,0
0,59,81,0
0,60,75,0
0,64,78,0
0,76,81,0
0,42,59,32
0,36,106,0
0,38,120,188
0,42,61,0
0,62,127,64
0,35,127,24
0,42,66,0
0,36,112,0
0,64,119,16
0,59,77,0
0,35,118,4
0,42,66,0
0,36,105,0
0,57,78,0
0,67,125,0
0,42,59,4
0,36,108,0
0,55,75,2
0,66,126,44
0,38,120,4
0,42,60,0
0,55,77,0
0,64,123,52
0,35,121,4
0,42,67,0
0,36,105,0
0,62,121,8
0,35,124,4
0,42,63,0
0,40,111,0
0,52,82,0
0,59,78,0
0,62,74,0
0,66,80,0
0,52,74,0
0,59,119,0
0,42,65,120
0,72,79,0
0,81,75,0
0,38,124,4
0,42,61,0
0,71,79,0
0,79,75,0
0,35,118,4
0,42,59,0
0,40,110,0
0,69,83,0
0,78,74,0
0,35,120,4
0,42,62,0
0,38,108,0
0,50,74,0
0,50,82,0
0,67,76,0
0,76,79,0
0,42,61,4
0,66,80,0
0,74,83,0
0,55,79,0
0,59,78,0
0,62,77,0
0,38,125,4
0,42,66,0
0,38,113,0
0,64,82,0
0,72,76,0
0,35,121,4
0,42,64,0
0,38,107,0
0,62,75,0
0,71,80,0
0,35,118,4
0,42,62,0
0,36,105,0
0,48,81,0
0,52,75,0
0,67,81,0
0,48,77,2
0,55,79,0
0,60,80,0
0,64,80,0
0,42,58,188
0,38,126,188
0,42,62,0
0,57,125,124
0,35,125,32
0,42,61,0
0,36,104,0
0,59,125,0
0,47,75,20
0,59,81,0
0,64,77,0
0,66,82,0
0,35,120,4
0,42,61,0
0,35,104,0
0,47,82,0
0,54,77,0
0,69,83,0
0,62,127,0
0,42,59,20
0,59,126,0
0,59,79,0
0,63,83,0
0,66,77,0
0,38,124,4
0,42,59,0
0,35,111,0
0,57,83,0
0,71,80,0
0,63,126,52
0,35,124,4
0,42,67,0
0,42,107,0
0,59,121,12
0,52,82,0
0,59,77,0
0,64,76,0
0,67,79,0
0,35,126,4
0,42,65,0
0,40,107,0
0,52,80,0
0,55,80,0
0,71,82,0
0,66,124,0
0,42,58,32
0,40,111,0
0,38,120,188
0,42,63,0
0,67,126,48
0,35,121,32
0,42,59,0
0,40,106,0
0,66,122,8
0,50,74,2
0,59,78,0
0,62,75,0
0,67,74,0
0,35,123,2
0,42,63,0
0,38,108,0
0,50,76,0
0,64,121,0
0,42,62,4
0,38,108,0
0,54,81,0
0,69,74,0
0,38,119,4
0,42,65,0
0,55,77,0
0,71,80,0
0,35,121,4
0,42,61,0
0,38,108,0
0,54,82,0
0,69,75,0
0,38,118,92
0,48,78,0
0,55,76,0
0,59,82,0
0,60,83,0
0,64,77,0
0,35,120,4
0,38,118,0
0,51,90,0
0,36,110,0
0,48,78,0
0,55,76,0
0,59,74,0
0,64,81,0
0,79,79,0
0,57,120,308
0,59,120,20
0,57,127,0
0,55,126,20
0,43,80,6
0,55,83,0
0,59,77,0
0,62,76,0
0,66,76,0
0,35,126,6
0,38,123,0
0,51,83,0
0,31,111,0
0,55,80,0
0,59,79,0
0,62,77,0
0,66,80,0
0,78,74,0
0,59,121,0
0,35,119,88
0,38,118,0
0,51,92,0
0,31,106,0
0,55,80,0
0,59,83,0
0,62,75,0
0,66,76,0
0,59,74,0
0,62,82,0
0,66,81,0
0,78,75,0
0,55,80,96
0,59,76,0
0,62,82,0
0,66,78,0
0,35,125,4
0,38,124,0
0,51,89,0
0,31,105,0
0,59,78,0
0,62,76,0
0,66,82,0
0,78,74,0
0,35,122,4
0,38,122,0
0,51,87,0
0,31,104,0
0,55,79,0
0,59,78,0
0,62,75,0
0,66,76,0
0,59,76,0
0,62,78,0
0,66,82,0
0,78,82,0
0,55,81,0
0,59,74,0
0,62,80,0
0,66,82,0
0,35,118,4
0,38,126,0
0,51,85,0
0,31,110,0
0,59,77,0
0,62,81,0
0,66,78,0
0,78,76,0
0,50,78,0
0,57,83,0
0,60,78,0
0,62,81,0
0,65,81,0
0,35,121,4
0,38,127,0
0,51,91,0
0,38,106,0
0,50,74,0
0,57,75,0
0,60,78,0
0,62,79,0
0,65,79,0
0,77,80,0
0,43,74,18
0,59,77,0
0,62,81,0
0,65,75,0
0,67,75,0
0,35,126,4
0,51,85,0
0,43,108,0
0,55,74,0
0,59,74,0
0,62,77,0
0,65,82,0
0,67,80,0
0,79,75,0
0,38,123,188
0,67,119,0
0,38,123,24
0,43,75,20
0,31,107,12
0,38,126,26
0,45,79,0
0,55,77,0
0,59,74,0
0,62,78,0
0,65,76,0
0,35,120,4
0,51,88,0
0,33,104,0
0,53,81,0
0,62,77,0
0,65,81,0
0,71,75,0
0,77,75,0
0,38,124,92
0,47,82,20
0,38,125,4
0,35,106,0
0,38,120,92
0,35,122,4
0,42,60,0
0,36,105,0
0,48,77,0
0,59,77,0
0,60,79,0
0,64,74,0
0,67,81,0
0,52,75,0
0,64,82,0
0,67,81,0
0,72,78,0
0,76,74,0
0,76,78,0
0,42,66,164
0,38,123,188
0,42,64,0
0,35,127,20
0,42,66,0
0,36,111,0
0,67,121,0
0,67,127,11
0,35,125,11
0,42,66,0
0,36,113,0
0,67,121,0
0,67,127,11
0,42,61,11
0,67,119,0
0,67,126,11
0,47,76,5
0,57,75,0
0,62,82,0
0,66,75,0
0,69,77,0
0,38,121,4
0,42,66,0
0,35,104,0
0,47,75,0
0,62,83,0
0,66,77,0
0,71,78,0
0,74,77,0
0,67,124,0
0,35,119,20
0,42,64,0
0,66,123,0
0,72,81,4
0,45,77,4
0,55,81,0
0,57,78,0
0,60,74,0
0,64,80,0
0,35,123,0
0,42,60,0
0,33,106,0
0,45,79,0
0,60,79,0
0,64,82,0
0,69,74,0
0,66,126,0
0,64,127,11
0,42,66,11
0,64,125,0
0,38,125,188
0,42,66,0
0,35,122,188
0,42,66,0
0,71,81,0
0,74,79,0
0,57,79,0
0,60,80,0
0,64,82,0
0,67,81,0
0,35,122,4
0,42,58,0
0,81,79,0
0,84,82,0
0,42,67,4
0,51,92,0
0,33,113,0
0,79,75,0
0,83,82,0
0,60,81,0
0,64,83,0
0,67,74,0
0,69,81,0
0,38,122,4
0,42,59,0
0,78,81,0
0,81,81,0
0,51,84,32
0,35,119,4
0,42,61,0
0,33,109,0
0,76,74,0
0,79,78,0
0,47,74,2
0,59,81,0
0,62,81,0
0,66,75,0
0,69,76,0
0,35,123,2
0,42,59,0
0,35,104,0
0,47,83,0
0,62,76,0
0,66,79,0
0,69,83,0
0,78,78,0
0,81,74,0
0,83,78,4
0,42,63,96
0,66,119,0
0,38,127,120
0,42,66,0
0,74,83,8
0,35,119,12
0,42,62,0
0,35,111,0
0,66,119,0
0,35,125,20
0,42,61,0
0,35,110,0
0,66,126,0
0,47,76,16
0,62,81,0
0,66,77,0
0,69,82,0
0,42,62,4
0,66,122,0
0,38,121,20
0,42,63,0
0,62,79,0
0,66,76,0
0,69,83,0
0,74,74,0
0,66,119,0
0,66,124,16
0,47,79,12
0,35,120,4
0,42,58,0
0,35,107,0
0,64,120,0
0,62,121,4
0,40,79,0
0,35,121,4
0,42,63,0
0,28,111,0
0,52,77,0
0,64,74,0
0,69,83,0
0,71,78,0
0,62,81,12
0,64,82,16
0,42,61,4
0,66,127,0
0,69,74,20
0,38,127,100
0,42,64,0
0,74,82,0
0,78,82,0
0,71,83,2
0,74,77,2
0,35,127,2
0,42,59,0
0,74,75,0
0,76,81,0
0,62,77,6
0,64,78,0
0,68,82,0
0,71,82,0
0,74,83,0
0,35,123,4
0,42,65,0
0,68,79,0
0,78,80,0
0,81,83,0
0,42,66,4
0,51,88,0
0,28,104,0
0,76,77,0
0,80,76,0
0,62,77,14
0,38,120,4
0,42,58,0
0,74,76,0
0,78,81,0
0,64,80,28
0,69,81,0
0,35,122,4
0,42,59,0
0,51,91,0
0,28,109,0
0,74,79,0
0,76,74,0
0,45,77,0
0,57,82,0
0,35,121,4
0,42,67,0
0,33,106,0
0,57,78,0
0,57,83,0
0,60,80,0
0,64,83,0
0,67,77,0
0,72,80,0
0,76,74,0
0,60,82,22
0,42,62,98
0,64,80,0
0,69,74,86
0,38,127,102
0,42,66,0
0,64,127,92
0,72,78,7
0,35,122,4
0,42,63,0
0,33,113,0
0,64,126,0
0,69,76,12
0,64,127,11
0,44,80,0
0,56,74,0
0,35,127,4
0,42,65,0
0,32,109,0
0,56,82,0
0,56,74,0
0,64,121,0
0,60,75,20
0,42,62,20
0,64,121,0
0,64,74,2
0,68,78,7
0,64,122,4
0,38,118,96
0,42,59,0
0,64,126,20
0,72,83,5
0,35,123,4
0,42,65,0
0,32,109,0
0,64,124,0
0,68,77,7
0,62,125,8
0,35,119,4
0,42,62,0
0,31,107,0
0,43,77,0
0,55,76,0
0,55,76,0
0,55,80,0
0,62,125,0
0,60,76,20
0,64,75,8
0,42,65,12
0,59,127,0
0,67,74,7
0,60,127,4
0,38,124,96
0,42,65,0
0,72,77,20
0,35,118,4
0,42,63,0
0,31,107,0
0,67,82,2
0,35,127,4
0,42,67,0
0,30,106,0
0,42,79,0
0,50,78,0
0,54,75,0
0,54,82,0
0,57,74,0
0,60,77,0
0,62,76,0
0,54,80,86
0,57,76,98
0,42,60,4
0,60,76,20
0,38,126,96
