track,note,velocity,time
0,62,102,0
0,65,114,0
0,69,95,0
0,74,63,0
0,77,63,0
0,81,63,0
0,70,85,0
0,74,85,30
0,62,91,15
0,65,91,0
0,69,91,0
0,77,85,0
0,74,61,0
0,77,61,0
0,81,61,0
0,62,102,15
0,65,114,0
0,69,95,0
0,62,59,15
0,65,59,0
0,69,59,0
0,74,63,0
0,77,63,0
0,81,63,0
0,62,67,15
0,65,67,0
0,69,67,0
0,64,104,15
0,69,102,0
0,72,100,0
0,76,61,0
0,81,61,0
0,84,61,0
0,77,88,0
0,64,104,0
0,69,102,0
0,72,100,0
0,76,66,0
0,81,66,0
0,84,66,0
0,64,59,0
0,69,59,0
0,72,59,0
0,77,91,0
0,64,67,0
0,69,67,0
0,72,67,0
0,64,104,0
0,69,102,0
0,72,100,0
0,76,66,0
0,81,66,0
0,84,66,0
0,77,91,0
0,64,51,30
0,69,51,0
0,72,51,0
0,77,91,0
0,76,66,0
0,81,66,0
0,84,66,0
0,64,67,25
0,69,67,0
0,72,67,0
0,60,105,0
0,63,104,0
0,67,102,0
0,72,66,0
0,75,66,0
0,79,66,0
0,68,91,0
0,72,88,40
0,60,82,15
0,63,82,0
0,67,82,0
0,75,91,0
0,72,69,0
0,75,69,0
0,79,69,0
0,60,105,5
0,63,104,0
0,67,102,0
0,60,59,15
0,63,59,0
0,67,59,0
0,72,69,0
0,75,69,0
0,79,69,0
0,60,67,15
0,63,67,0
0,67,67,0
0,62,97,15
0,67,112,0
0,70,102,0
0,74,62,0
0,79,67,0
0,83,30,0
0,75,93,0
0,62,97,0
0,67,112,0
0,70,102,0
0,74,69,0
0,79,69,0
0,82,69,0
0,62,59,0
0,67,59,0
0,70,59,0
0,75,93,0
0,62,67,0
0,67,67,0
0,70,67,0
0,62,97,0
0,67,112,0
0,70,102,0
0,74,72,0
0,79,72,0
0,82,72,0
0,75,93,0
0,62,54,30
0,67,54,0
0,70,54,0
0,75,93,0
0,74,75,0
0,79,75,0
0,82,75,0
0,62,67,15
0,67,67,0
0,70,67,0
0,62,102,0
0,65,114,0
0,69,95,0
0,74,63,0
0,77,63,0
0,81,63,0
0,70,85,0
0,74,85,30
0,62,91,15
0,65,91,0
0,69,91,0
0,77,85,0
0,74,61,0
0,77,61,0
0,81,61,0
0,62,102,15
0,65,114,0
0,69,95,0
0,62,59,15
0,65,59,0
0,69,59,0
0,74,63,0
0,77,63,0
0,81,63,0
0,62,67,15
0,65,67,0
0,69,67,0
0,64,104,15
0,69,102,0
0,72,100,0
0,76,61,0
0,81,61,0
0,84,61,0
0,77,88,0
0,64,104,120
0,69,102,0
0,72,100,0
0,76,66,0
0,81,66,0
0,84,66,0
0,64,59,15
0,69,59,0
0,72,59,0
0,77,91,0
0,64,67,15
0,69,67,0
0,72,67,0
0,64,104,0
0,69,102,0
0,72,100,0
0,76,66,0
0,81,66,0
0,84,66,0
0,77,91,0
0,64,51,30
0,69,51,0
0,72,51,0
0,77,91,0
0,76,66,0
0,81,66,0
0,84,66,0
0,64,67,25
0,69,67,0
0,72,67,0
0,60,105,0
0,63,104,0
0,67,102,0
0,72,66,0
0,75,66,0
0,79,66,0
0,68,91,0
0,72,88,40
0,60,82,15
0,63,82,0
0,67,82,0
0,75,91,0
0,72,69,0
0,75,69,0
0,79,69,0
0,60,105,5
0,63,104,0
0,67,102,0
0,60,59,15
0,63,59,0
0,67,59,0
0,72,69,0
0,75,69,0
0,79,69,0
0,60,67,15
0,63,67,0
0,67,67,0
0,40,50,80
0,62,97,15
0,67,112,0
0,70,102,0
0,40,50,0
0,75,93,0
0,74,62,0
0,79,67,0
0,83,30,0
0,40,52,20
0,40,57,0
0,40,127,0
0,62,97,60
0,67,112,0
0,70,102,0
0,74,69,0
0,79,69,0
0,82,69,0
0,62,59,15
0,67,59,0
0,70,59,0
0,48,127,0
0,75,93,0
0,62,67,0
0,67,67,0
0,70,67,0
0,62,97,0
0,67,112,0
0,70,102,0
0,40,127,0
0,74,72,0
0,79,72,0
0,82,72,0
0,40,100,0
0,75,93,0
0,62,54,30
0,67,54,0
0,70,54,0
0,75,93,0
0,48,127,0
0,74,75,0
0,79,75,0
0,82,75,0
0,62,67,15
0,67,67,0
0,70,67,0
0,62,102,0
0,65,114,0
0,69,95,0
0,74,63,0
0,77,63,0
0,81,63,0
0,81,53,0
0,49,100,0
0,35,127,0
0,36,110,0
0,70,85,0
0,74,85,0
0,81,53,0
0,42,100,0
0,36,110,15
0,62,91,0
0,65,91,0
0,69,91,0
0,35,100,0
0,77,85,0
0,74,61,0
0,77,61,0
0,81,61,0
0,62,102,0
0,65,114,0
0,69,95,0
0,81,53,0
0,42,100,0
0,40,127,0
0,38,110,15
0,62,59,0
0,65,59,0
0,69,59,0
0,74,63,0
0,77,63,0
0,81,63,0
0,39,110,0
0,62,67,0
0,65,67,0
0,69,67,0
0,81,53,0
0,42,100,0
0,40,110,0
0,64,104,0
0,69,102,0
0,72,100,0
0,35,127,0
0,77,88,0
0,76,61,0
0,81,61,0
0,84,61,0
0,81,53,0
0,42,100,0
0,41,110,60
0,64,104,0
0,69,102,0
0,72,100,0
0,40,70,0
0,76,66,0
0,81,66,0
0,84,66,0
0,42,110,0
0,64,59,0
0,69,59,0
0,72,59,0
0,81,53,0
0,35,100,0
0,46,100,0
0,77,91,0
0,43,110,0
0,64,67,0
0,69,67,0
0,72,67,0
0,64,104,0
0,69,102,0
0,72,100,0
0,81,53,0
0,40,127,0
0,42,100,0
0,76,66,0
0,81,66,0
0,84,66,0
0,77,91,0
0,48,110,0
0,64,51,30
0,69,51,0
0,72,51,0
0,77,91,0
0,81,53,0
0,42,100,0
0,76,66,0
0,81,66,0
0,84,66,0
0,43,110,25
0,64,67,0
0,69,67,0
0,72,67,0
0,60,105,0
0,63,104,0
0,67,102,0
0,46,110,0
0,72,66,0
0,75,66,0
0,79,66,0
0,81,53,0
0,35,127,0
0,42,100,0
0,40,70,0
0,68,91,0
0,72,88,40
0,81,53,0
0,42,100,0
0,48,110,0
0,60,82,0
0,63,82,0
0,67,82,0
0,35,100,0
0,75,91,0
0,72,69,0
0,75,69,0
0,79,69,0
0,60,105,0
0,63,104,0
0,67,102,0
0,81,53,0
0,40,127,0
0,42,100,0
0,60,59,15
0,63,59,0
0,67,59,0
0,72,69,0
0,75,69,0
0,79,69,0
0,60,67,15
0,63,67,0
0,67,67,0
0,81,53,0
0,42,100,0
0,62,97,15
0,67,112,0
0,70,102,0
0,35,100,0
0,75,93,0
0,74,62,0
0,79,67,0
0,83,30,0
0,41,119,0
0,81,53,0
0,35,100,0
0,42,100,0
0,62,97,0
0,67,112,0
0,70,102,0
0,74,69,0
0,79,69,0
0,82,69,0
0,39,116,0
0,62,59,0
0,67,59,0
0,70,59,0
0,81,53,0
0,35,100,0
0,46,100,0
0,75,93,0
0,36,116,0
0,62,67,0
0,67,67,0
0,70,67,0
0,41,119,0
0,62,97,0
0,67,112,0
0,70,102,0
0,81,53,0
0,40,127,0
0,42,100,0
0,74,72,0
0,79,72,0
0,82,72,0
0,39,115,0
0,75,93,0
0,62,54,30
0,67,54,0
0,70,54,0
0,75,93,0
0,81,53,0
0,42,100,0
0,74,75,0
0,79,75,0
0,82,75,0
0,62,67,15
0,67,67,0
0,70,67,0
0,62,102,0
0,65,114,0
0,69,95,0
0,74,63,0
0,77,63,0
0,81,63,0
0,81,53,0
0,42,100,0
0,35,127,0
0,48,110,0
0,70,85,0
0,47,110,0
0,74,85,0
0,81,53,0
0,42,100,0
0,46,110,0
0,62,91,0
0,65,91,0
0,69,91,0
0,35,100,0
0,77,85,0
0,74,61,0
0,77,61,0
0,81,61,0
0,62,102,0
0,65,114,0
0,69,95,0
0,81,53,0
0,42,100,0
0,40,127,0
0,55,110,15
0,62,59,0
0,65,59,0
0,69,59,0
0,74,63,0
0,77,63,0
0,81,63,0
0,53,110,0
0,62,67,0
0,65,67,0
0,69,67,0
0,81,53,0
0,42,100,0
0,52,110,0
0,64,104,0
0,69,102,0
0,72,100,0
0,35,127,0
0,77,88,0
0,76,61,0
0,81,61,0
0,84,61,0
0,81,53,0
0,42,100,0
0,64,104,60
0,69,102,0
0,72,100,0
0,40,70,0
0,76,66,0
0,81,66,0
0,84,66,0
0,46,110,15
0,64,59,0
0,69,59,0
0,72,59,0
0,81,53,0
0,35,100,0
0,46,100,0
0,77,91,0
0,48,110,0
0,64,67,0
0,69,67,0
0,72,67,0
0,51,110,0
0,64,104,0
0,69,102,0
0,72,100,0
0,81,53,0
0,40,127,0
0,42,100,0
0,76,66,0
0,81,66,0
0,84,66,0
0,48,110,0
0,77,91,0
0,64,51,0
0,69,51,0
0,72,51,0
0,77,91,0
0,81,53,0
0,42,100,0
0,76,66,0
0,81,66,0
0,84,66,0
0,46,110,25
0,64,67,0
0,69,67,0
0,72,67,0
0,60,105,0
0,63,104,0
0,67,102,0
0,72,66,0
0,75,66,0
0,79,66,0
0,81,53,0
0,35,127,0
0,42,100,0
0,34,64,0
0,40,70,0
0,68,91,0
0,41,110,0
0,72,88,0
0,81,53,0
0,42,100,0
0,43,110,0
0,60,82,0
0,63,82,0
0,67,82,0
0,35,100,0
0,75,91,0
0,72,69,0
0,75,69,0
0,79,69,0
0,46,110,0
0,60,105,0
0,63,104,0
0,67,102,0
0,81,53,0
0,40,127,0
0,42,100,0
0,43,110,0
0,60,59,0
0,63,59,0
0,67,59,0
0,72,69,0
0,75,69,0
0,79,69,0
0,60,67,15
0,63,67,0
0,67,67,0
0,81,53,0
0,42,100,0
0,41,110,15
0,62,97,0
0,67,112,0
0,70,102,0
0,70,127,0
0,67,127,0
0,60,127,0
0,56,127,0
0,62,127,0
0,82,127,0
0,35,100,0
0,75,93,0
0,74,62,0
0,79,67,0
0,83,30,0
0,81,53,0
0,35,100,0
0,42,100,0
0,62,97,60
0,67,112,0
0,70,102,0
0,70,127,0
0,67,127,0
0,60,127,0
0,56,127,0
0,62,127,0
0,82,127,0
0,74,69,0
0,79,69,0
0,82,69,0
0,33,110,0
0,62,59,0
0,67,59,0
0,70,59,0
0,81,53,0
0,35,100,0
0,46,100,0
0,75,93,0
0,33,110,0
0,62,67,0
0,67,67,0
0,70,67,0
0,34,110,0
0,62,97,0
0,67,112,0
0,70,102,0
0,81,53,0
0,40,127,0
0,42,100,0
0,74,72,0
0,79,72,0
0,82,72,0
0,34,110,0
0,75,93,0
0,84,75,40
0,72,95,0
0,35,110,0
0,62,54,0
0,67,54,0
0,70,54,0
0,87,75,0
0,75,95,0
0,75,93,0
0,81,53,0
0,42,100,0
0,74,75,0
0,79,75,0
0,82,75,0
0,91,75,0
0,79,95,0
0,35,110,15
0,62,67,0
0,67,67,0
0,70,67,0
0,94,75,0
0,82,95,0
0,62,102,0
0,65,114,0
0,69,95,0
0,36,123,0
0,81,127,0
0,57,117,0
0,69,117,0
0,69,127,0
0,96,75,0
0,84,95,0
0,81,53,0
0,49,100,0
0,35,127,0
0,58,88,0
0,69,88,0
0,65,88,0
0,62,88,0
0,81,53,120
0,42,100,0
0,62,91,15
0,65,91,0
0,69,91,0
0,35,100,0
0,28,121,15
0,62,102,0
0,65,114,0
0,69,95,0
0,65,127,0
0,77,127,0
0,53,117,0
0,65,117,0
0,81,53,0
0,42,100,0
0,40,127,0
0,62,59,15
0,65,59,0
0,69,59,0
0,62,67,0
0,65,67,0
0,69,67,0
0,81,53,0
0,42,100,0
0,29,117,15
0,64,104,0
0,69,102,0
0,72,100,0
0,74,127,0
0,50,117,0
0,62,117,0
0,62,127,0
0,35,127,0
0,58,88,0
0,64,88,0
0,81,53,0
0,42,100,0
0,29,117,60
0,64,104,0
0,69,102,0
0,72,100,0
0,40,70,0
0,31,117,15
0,64,59,0
0,69,59,0
0,72,59,0
0,81,53,0
0,35,100,0
0,46,100,0
0,64,67,15
0,69,67,0
0,72,67,0
0,36,116,15
0,64,104,0
0,69,102,0
0,72,100,0
0,65,127,0
0,81,127,0
0,57,117,0
0,69,117,0
0,81,53,0
0,40,127,0
0,42,100,0
0,35,116,55
0,64,51,0
0,69,51,0
0,72,51,0
0,77,127,0
0,53,117,0
0,65,117,0
0,62,127,0
0,81,53,0
0,42,100,0
0,64,67,0
0,69,67,0
0,72,67,0
0,63,127,0
0,79,127,0
0,60,117,0
0,70,117,0
0,60,105,0
0,63,104,0
0,67,102,0
0,34,122,0
0,81,53,0
0,35,127,0
0,42,100,0
0,63,88,0
0,60,88,0
0,56,88,0
0,67,88,0
0,40,70,0
0,81,53,0
0,42,100,0
0,60,82,15
0,63,82,0
0,67,82,0
0,35,100,0
0,29,116,15
0,60,105,0
0,63,104,0
0,67,102,0
0,81,53,0
0,40,127,0
0,42,100,0
0,60,59,15
0,63,59,0
0,67,59,0
0,60,67,15
0,63,67,0
0,67,67,0
0,81,53,0
0,42,100,0
0,34,119,15
0,62,97,0
0,67,112,0
0,70,102,0
0,79,127,0
0,55,117,0
0,67,117,0
0,67,127,0
0,35,100,0
0,62,91,0
0,56,91,0
0,72,127,0
0,84,127,0
0,60,117,0
0,72,117,0
0,81,53,0
0,35,100,0
0,42,100,0
0,34,115,0
0,62,97,0
0,67,112,0
0,70,102,0
0,82,127,0
0,58,117,0
0,70,117,0
0,70,127,0
0,29,113,0
0,62,59,0
0,67,59,0
0,70,59,0
0,81,53,0
0,35,100,0
0,46,100,0
0,62,67,15
0,67,67,0
0,70,67,0
0,62,127,0
0,74,127,0
0,50,117,0
0,62,117,0
0,34,122,0
0,62,97,0
0,67,112,0
0,70,102,0
0,81,53,0
0,40,127,0
0,42,100,0
0,77,127,0
0,53,117,0
0,65,117,0
0,65,127,0
0,35,116,70
0,62,54,0
0,67,54,0
0,70,54,0
0,81,53,0
0,42,100,0
0,62,67,0
0,67,67,0
0,70,67,0
0,65,127,0
0,81,127,0
0,57,117,0
0,69,117,0
0,62,102,0
0,65,114,0
0,69,95,0
0,36,113,0
0,81,53,0
0,42,100,0
0,35,127,0
0,58,88,0
0,69,88,0
0,65,88,0
0,62,88,0
0,79,127,0
0,55,117,0
0,67,117,0
0,64,127,0
0,65,127,0
0,81,127,0
0,57,117,0
0,69,117,0
0,81,53,0
0,42,100,0
0,62,91,0
0,65,91,0
0,69,91,0
0,35,100,0
0,31,116,15
0,62,102,0
0,65,114,0
0,69,95,0
0,81,53,0
0,42,100,0
0,40,127,0
0,62,59,15
0,65,59,0
0,69,59,0
0,55,117,0
0,67,117,0
0,79,127,0
0,64,127,0
0,62,67,0
0,65,67,0
0,69,67,0
0,62,127,0
0,53,117,0
0,65,117,0
0,77,127,0
0,81,53,0
0,42,100,0
0,36,117,0
0,64,104,0
0,69,102,0
0,72,100,0
0,55,117,0
0,67,117,0
0,79,127,0
0,64,127,0
0,35,127,0
0,58,88,0
0,64,88,0
0,81,53,0
0,42,100,0
0,36,113,60
0,64,104,0
0,69,102,0
0,72,100,0
0,40,70,0
0,31,113,15
0,64,59,0
0,69,59,0
0,72,59,0
0,81,53,0
0,35,100,0
0,46,100,0
0,64,67,15
0,69,67,0
0,72,67,0
0,36,113,15
0,64,104,0
0,69,102,0
0,72,100,0
0,72,127,0
0,84,127,0
0,60,117,0
0,72,117,0
0,81,53,0
0,40,127,0
0,42,100,0
0,35,110,55
0,64,51,0
0,69,51,0
0,72,51,0
0,56,117,0
0,68,117,0
0,80,127,0
0,68,127,0
0,81,53,0
0,42,100,0
0,64,67,0
0,69,67,0
0,72,67,0
0,63,127,0
0,79,127,0
0,55,117,0
0,67,117,0
0,60,105,0
0,63,104,0
0,67,102,0
0,34,115,0
0,81,53,0
0,35,127,0
0,42,100,0
0,63,88,0
0,60,88,0
0,56,88,0
0,67,88,0
0,77,127,0
0,53,117,0
0,65,117,0
0,62,127,0
0,40,70,0
0,63,127,0
0,55,117,0
0,67,117,0
0,79,127,0
0,81,53,0
0,42,100,0
0,60,82,0
0,63,82,0
0,67,82,0
0,35,100,0
