track,note,velocity,time
0,31,103,574
0,60,59,0
0,67,41,0
0,79,92,0
0,79,93,0
0,55,67,0
0,58,60,0
0,67,85,0
0,35,127,0
0,57,59,0
0,55,71,0
0,44,43,94
0,54,83,0
0,63,63,0
0,85,43,0
0,33,94,30
0,62,78,0
0,69,45,0
0,81,93,0
0,81,92,0
0,57,65,0
0,60,63,0
0,69,86,0
0,39,89,0
0,40,81,0
0,49,59,0
0,57,78,0
0,44,44,79
0,54,72,0
0,85,56,0
0,64,79,0
0,34,103,10
0,63,79,0
0,70,44,0
0,82,99,0
0,82,99,0
0,58,68,0
0,61,59,0
0,70,101,0
0,35,126,0
0,57,54,0
0,58,85,0
0,44,47,64
0,54,77,0
0,64,68,0
0,85,61,0
0,35,99,27
0,64,83,0
0,69,58,0
0,83,104,0
0,83,105,0
0,59,68,0
0,62,66,0
0,69,89,0
0,39,94,0
0,40,80,0
0,49,56,0
0,59,87,0
0,44,53,152
0,54,77,0
0,85,61,0
0,36,102,5
0,65,74,0
0,67,65,0
0,84,99,0
0,84,102,0
0,60,63,0
0,63,67,0
0,67,90,0
0,35,127,0
0,57,57,0
0,63,50,0
0,58,82,0
0,63,61,0
0,67,64,0
0,62,95,5
0,62,94,35
0,85,72,0
0,42,39,100
0,54,80,0
0,85,59,100
0,39,89,100
0,40,81,0
0,42,72,0
0,85,22,0
0,42,35,220
0,54,73,0
0,63,23,0
0,85,62,0
0,64,87,100
0,63,75,20
0,67,86,0
0,35,127,0
0,42,65,0
0,85,77,0
0,85,59,20
0,42,32,59
0,54,72,0
0,64,87,0
0,63,86,100
0,67,75,0
0,85,44,0
0,39,95,58
0,40,81,0
0,42,77,0
0,75,73,0
0,76,63,100
0,42,38,100
0,54,72,0
0,63,29,0
0,85,66,0
0,36,95,100
0,60,68,0
0,72,83,0
0,48,68,0
0,58,74,0
0,63,75,0
0,35,120,0
0,42,38,0
0,58,70,0
0,63,53,0
0,67,61,0
0,62,99,15
0,85,75,0
0,36,110,100
0,60,68,0
0,72,84,0
0,48,71,0
0,58,77,0
0,63,78,0
0,35,127,0
0,62,99,0
0,85,33,0
0,58,70,0
0,63,56,0
0,67,53,0
0,42,39,7
0,54,87,0
0,85,42,100
0,39,88,100
0,40,80,0
0,42,73,0
0,85,34,100
0,67,43,100
0,42,34,0
0,54,79,0
0,63,30,0
0,85,63,0
0,64,106,58
0,63,82,22
0,67,80,0
0,35,126,0
0,42,64,0
0,85,68,0
0,85,73,7
0,42,33,80
0,54,76,0
0,64,99,0
0,75,26,0
0,85,14,0
0,63,79,58
0,67,77,0
0,72,88,0
0,85,69,0
0,39,95,55
0,40,81,0
0,42,77,0
0,75,61,0
0,76,66,100
0,42,38,100
0,54,78,0
0,85,54,0
0,36,110,100
0,84,111,0
0,75,70,0
0,84,109,0
0,58,80,0
0,67,102,0
0,35,126,0
0,42,38,0
0,63,39,0
0,85,59,0
0,58,91,0
0,63,68,0
0,67,68,0
0,62,94,15
0,62,95,100
0,42,39,100
0,54,77,0
0,85,58,0
0,85,22,100
0,39,88,100
0,40,80,0
0,42,72,0
0,85,29,100
0,42,35,100
0,54,77,0
0,63,24,0
0,85,63,0
0,64,86,100
0,63,66,4
0,67,69,0
0,72,76,0
0,35,127,0
0,42,65,0
0,85,72,0
0,85,68,9
0,42,32,99
0,54,80,0
0,64,106,0
0,63,77,70
0,67,77,0
0,72,86,0
0,85,59,0
0,39,94,67
0,40,80,0
0,42,77,0
0,75,67,0
0,76,49,56
0,42,38,100
0,54,74,0
0,63,40,0
0,85,75,0
0,36,85,100
0,62,64,0
0,85,62,0
0,60,53,0
0,31,103,45
0,60,65,0
0,67,51,0
0,79,100,0
0,77,73,0
0,55,50,0
0,58,75,0
0,67,93,0
0,35,127,0
0,57,59,0
0,62,94,0
0,55,82,0
0,62,95,100
0,85,72,0
0,42,38,72
0,54,81,0
0,85,59,100
0,33,94,23
0,62,64,0
0,69,54,0
0,81,99,0
0,74,76,0
0,57,54,0
0,60,85,0
0,69,93,0
0,39,89,0
0,40,81,0
0,42,73,0
0,49,59,0
0,85,22,0
0,57,79,0
0,42,35,69
0,54,72,0
0,63,23,0
0,85,63,0
0,64,87,0
0,34,102,18
0,63,76,0
0,70,56,0
0,82,103,0
0,75,80,0
0,58,61,0
0,61,84,0
0,70,98,0
0,35,126,0
0,42,64,0
0,57,54,0
0,85,77,0
0,58,83,0
0,85,58,100
0,42,32,90
0,54,73,0
0,64,87,0
0,85,45,100
0,35,99,27
0,64,83,0
0,69,49,0
0,83,106,0
0,76,91,0
0,59,71,0
0,62,88,0
0,69,96,0
0,39,95,0
0,40,81,0
0,42,77,0
0,49,57,0
0,75,72,0
0,59,84,0
0,76,63,100
0,42,39,13
0,54,73,0
0,63,29,0
0,85,66,0
0,36,103,5
0,65,83,0
0,67,45,0
0,84,98,0
0,77,91,0
0,60,82,0
0,63,89,0
0,67,91,0
0,35,126,0
0,42,38,0
0,57,57,0
0,58,83,0
0,63,62,0
0,67,58,0
0,62,95,5
0,62,94,60
0,85,72,0
0,42,38,100
0,54,80,0
0,85,59,100
0,39,88,100
0,40,80,0
0,42,73,0
0,85,23,0
0,42,34,220
0,54,73,0
0,63,22,0
0,85,62,0
0,36,84,100
0,64,86,0
0,50,94,20
0,63,82,0
0,67,80,0
0,35,127,0
0,42,65,0
0,85,76,0
0,48,41,20
0,85,59,0
0,51,106,35
0,42,33,0
0,54,72,0
0,64,86,0
0,63,79,58
0,67,77,0
0,72,88,0
0,85,45,0
0,52,99,55
0,39,94,0
0,40,80,0
0,42,76,0
0,75,73,0
0,76,62,100
0,42,39,20
0,54,72,0
0,63,28,0
0,85,66,0
0,36,95,47
0,60,68,0
0,72,84,0
0,48,69,0
0,58,74,0
0,60,81,0
0,35,121,0
0,42,38,0
0,58,71,0
0,63,53,0
0,67,60,0
0,62,98,15
0,85,74,0
0,36,106,100
0,60,69,0
0,72,84,0
0,48,70,0
0,58,77,0
0,60,80,0
0,35,126,0
0,62,99,0
0,85,33,0
0,58,70,0
0,63,57,0
0,67,53,0
0,42,38,7
0,54,87,0
0,85,42,100
0,39,89,100
0,40,81,0
0,42,73,0
0,85,35,100
0,67,42,100
0,42,35,0
0,54,79,0
0,63,31,0
0,85,63,0
0,64,107,58
0,63,83,22
0,67,80,0
0,35,126,0
0,42,64,0
0,85,68,0
0,85,73,7
0,42,32,80
0,54,76,0
0,64,99,0
0,75,26,0
0,85,14,0
0,63,79,58
0,67,77,0
0,72,88,0
0,85,68,0
0,39,95,55
0,40,81,0
0,42,77,0
0,75,60,0
0,76,67,100
0,42,39,100
0,54,78,0
0,85,54,0
0,36,111,100
0,84,111,0
0,72,101,0
0,84,92,0
0,63,79,0
0,63,76,0
0,35,127,0
0,42,38,0
0,63,39,0
0,85,59,0
0,58,90,0
0,63,68,0
0,67,69,0
0,62,95,15
0,62,94,100
0,42,38,100
0,54,77,0
0,85,59,0
0,85,22,100
0,39,88,100
0,40,80,0
0,42,73,0
0,85,28,100
0,42,34,100
0,54,77,0
0,63,24,0
0,85,63,0
0,64,86,100
0,63,67,4
0,67,68,0
0,72,76,0
0,35,126,0
0,42,65,0
0,85,73,0
0,85,68,9
0,42,33,60
0,54,80,0
0,64,106,0
0,63,77,70
0,67,77,0
0,72,86,0
0,85,58,0
0,36,102,67
0,62,70,0
0,70,70,0
0,79,79,0
0,48,42,0
0,55,70,0
0,63,67,0
0,39,94,0
0,40,80,0
0,42,76,0
0,75,67,0
0,36,68,0
0,58,87,0
0,62,87,0
0,67,84,0
0,75,53,0
0,82,60,0
0,91,65,0
0,76,48,100
0,37,108,0
0,63,89,0
0,72,89,0
0,80,89,0
0,49,59,0
0,56,84,0
0,65,78,0
0,35,127,0
0,49,72,0
0,54,74,0
0,63,40,0
0,85,75,0
0,37,77,0
0,60,82,0
0,63,86,0
0,68,95,0
0,84,55,10
0,92,66,0
0,77,55,10
0,62,64,90
0,85,62,0
0,62,95,100
0,62,94,13
0,85,73,0
0,42,39,29
0,54,81,0
0,85,59,13
0,39,89,20
0,40,81,0
0,42,72,0
0,85,22,0
0,42,34,13
0,54,72,0
0,63,23,0
0,85,63,0
0,64,87,17
0,35,127,9
0,42,65,0
0,85,76,0
0,85,58,13
0,42,33,20
0,54,73,0
0,64,86,0
0,85,45,9
0,39,94,20
0,40,80,0
0,42,76,0
0,75,73,0
0,76,62,9
0,35,126,9
0,42,38,0
0,54,73,0
0,63,28,0
0,85,67,0
0,84,110,937
0,84,94,0
0,60,89,0
0,72,109,0
0,82,90,0
0,82,83,0
0,58,59,0
0,70,89,0
0,79,85,49
0,79,76,0
0,67,84,0
0,77,80,60
0,77,72,0
0,65,79,0
0,46,121,60
0,78,105,0
0,78,97,0
0,66,104,0
0,77,91,0
0,77,83,0
0,65,88,0
0,75,84,13
0,75,72,0
0,63,79,0
0,35,103,0
0,36,111,0
0,63,68,0
0,67,83,0
0,72,75,0
0,72,85,0
0,72,66,0
0,60,75,0
0,55,77,0
0,55,55,0
0,58,76,0
0,63,58,0
0,35,102,30
0,44,86,0
0,70,35,0
0,48,104,0
0,63,72,0
0,67,80,0
0,72,81,0
0,48,85,0
0,36,90,30
0,36,70,0
0,54,80,0
0,62,71,0
0,70,24,0
0,60,54,100
0,70,37,0
0,34,99,0
0,78,106,0
0,78,107,0
0,66,106,0
0,66,90,0
0,46,81,0
0,39,89,0
0,40,81,0
0,44,99,0
0,70,49,0
0,77,86,30
0,77,87,0
0,65,87,0
0,65,74,0
0,33,97,0
0,60,53,0
0,45,77,0
0,54,73,0
0,64,67,0
0,70,36,0
0,64,65,70
0,70,51,0
0,31,96,0
0,63,81,0
0,67,78,0
0,72,79,0
0,75,115,0
0,75,114,0
0,63,114,0
0,63,87,0
0,43,76,0
0,35,120,0
0,44,86,0
0,70,48,0
0,72,99,0
0,72,98,0
0,60,98,0
0,60,85,0
0,54,72,30
0,62,77,0
0,70,40,0
0,63,76,58
0,67,74,0
0,72,87,0
0,70,49,0
0,74,90,30
0,74,91,0
0,58,91,0
0,67,86,0
0,39,95,0
0,40,81,0
0,44,106,0
0,70,39,0
0,55,65,0
0,63,67,3
0,58,74,9
0,54,72,220
0,64,64,0
0,70,38,0
0,29,96,0
0,65,71,0
0,69,66,0
0,74,76,0
0,72,76,0
0,72,86,0
0,57,77,0
0,65,76,0
0,41,79,0
0,64,65,0
0,70,50,0
0,53,50,0
0,57,73,0
0,62,64,0
0,35,127,27
0,44,87,0
0,70,35,0
0,41,99,0
0,65,77,0
0,69,77,0
0,74,86,0
0,53,78,0
0,29,98,0
0,41,78,0
0,54,81,0
0,62,70,0
0,70,25,0
0,63,38,100
0,70,36,0
0,39,87,24
0,71,95,0
0,71,95,0
0,56,94,0
0,64,83,0
0,51,69,0
0,39,88,0
0,40,80,0
0,44,103,0
0,70,48,0
0,65,41,30
0,72,105,0
0,72,105,0
0,57,104,0
0,65,100,0
0,38,103,4
0,50,85,0
0,54,73,0
0,64,66,0
0,70,37,0
0,64,64,100
0,70,50,0
0,36,98,0
0,65,80,0
0,69,79,0
0,74,65,0
0,48,80,0
0,35,121,0
0,44,102,0
0,70,49,0
0,50,80,30
0,54,72,0
0,62,77,0
0,70,41,0
0,65,76,10
0,69,75,0
0,74,86,0
0,70,48,0
0,70,98,55
0,70,98,0
0,58,99,0
0,58,99,0
0,51,81,0
0,39,95,0
0,40,81,0
0,44,106,0
0,70,39,0
0,74,62,42
0,72,72,0
0,72,73,0
0,60,73,0
0,60,73,0
0,65,55,5
0,54,72,27
0,64,65,0
0,70,38,0
0,29,103,78
0,63,75,0
0,67,74,0
0,72,76,0
0,75,99,0
0,75,98,0
0,63,98,0
0,63,98,0
0,41,77,0
0,64,65,0
0,70,50,0
0,35,102,14
0,44,107,0
0,70,35,0
0,63,59,0
0,60,63,8
0,56,60,7
0,41,100,23
0,63,69,0
0,67,79,0
0,72,78,0
0,70,84,0
0,70,84,0
0,58,84,0
0,58,85,0
0,53,74,0
0,29,104,0
0,72,97,0
0,72,97,0
0,60,97,0
0,60,96,0
0,41,78,0
0,54,81,0
0,62,70,0
0,70,25,0
0,70,36,2
0,36,101,0
0,48,75,0
0,39,88,0
0,40,80,0
0,44,99,0
0,70,48,0
0,37,103,7
0,63,58,0
0,66,63,0
0,72,58,0
0,70,103,0
0,70,103,0
0,58,102,0
0,58,102,0
0,49,76,0
0,54,73,0
0,64,66,0
0,70,37,0
0,64,64,30
0,70,51,0
0,38,104,4
0,62,65,0
0,66,67,0
0,72,58,0
0,50,79,0
0,35,120,0
0,44,98,0
0,70,48,0
0,54,79,0
0,60,70,0
0,65,70,0
0,54,72,30
0,62,76,0
0,70,40,0
0,72,63,8
0,70,49,30
0,59,66,30
0,63,70,0
0,70,77,0
0,66,106,0
0,66,106,0
0,54,107,0
0,62,67,0
0,39,94,0
0,40,80,0
0,44,98,0
0,70,38,0
0,53,81,0
0,59,69,0
0,63,70,0
0,65,63,25
0,65,62,0
0,53,63,0
0,60,65,0
0,63,66,8
0,63,67,0
0,51,66,0
0,58,84,0
0,54,72,0
0,64,65,0
0,70,39,0
0,36,102,10
0,60,71,0
0,63,76,0
0,70,58,0
0,65,82,0
0,65,83,0
0,53,83,0
0,60,82,0
0,36,57,0
0,64,65,0
0,70,51,0
0,55,72,0
0,58,81,0
0,63,73,0
0,35,127,12
0,44,95,0
0,70,34,0
0,48,101,18
0,60,77,0
0,63,91,0
0,70,68,0
0,48,70,0
0,36,97,8
0,63,87,0
0,63,86,0
0,51,86,0
0,58,81,0
0,36,67,0
0,54,81,0
0,62,71,0
0,70,25,0
0,70,36,0
0,34,100,35
0,39,89,0
0,40,81,0
0,44,98,0
0,70,48,0
0,33,98,0
0,75,76,0
0,54,72,0
0,64,66,0
0,70,37,0
0,70,59,11
0,64,64,52
0,70,51,0
0,51,98,87
0,31,95,0
0,70,78,0
0,75,99,0
0,35,121,0
0,44,99,0
0,70,48,0
0,67,63,7
0,53,98,3
0,70,60,0
0,70,63,0
0,75,76,0
0,51,99,0
0,54,73,0
0,62,77,0
0,70,40,0
0,59,82,0
0,65,84,0
0,70,67,0
0,67,56,13
0,70,61,25
0,75,87,0
0,70,49,0
0,67,60,12
0,48,111,13
0,39,95,0
0,40,81,0
0,44,107,0
0,70,39,0
0,69,68,77
0,74,87,0
0,59,86,0
0,65,87,0
0,68,71,0
0,65,69,25
0,46,102,0
0,54,73,0
0,64,65,0
0,70,38,0
0,36,90,30
0,67,74,0
0,72,80,0
0,36,70,0
0,64,64,0
0,70,50,0
0,58,80,0
0,63,59,0
0,67,66,0
0,63,77,5
0,35,102,19
0,44,94,0
0,70,35,0
0,48,105,0
0,60,62,0
0,48,85,0
0,36,97,30
0,66,85,0
0,66,88,0
0,54,78,0
0,54,79,0
0,36,71,0
0,54,80,0
0,62,70,0
0,70,24,0
0,70,37,42
0,34,98,0
0,46,80,0
0,39,88,0
0,40,80,0
0,44,99,0
0,70,49,0
0,65,80,100
0,65,89,0
0,53,77,0
0,53,76,0
0,33,97,0
0,45,76,0
0,54,73,0
0,64,67,0
0,70,36,0
0,60,53,100
0,64,65,0
0,70,51,0
0,31,96,0
0,63,81,0
0,67,78,0
0,72,79,0
0,63,88,0
0,63,90,0
0,51,91,0
0,51,90,0
0,43,77,0
0,35,120,0
0,44,102,0
0,70,48,0
0,54,72,2
0,62,76,0
0,70,40,0
0,63,76,58
0,67,74,0
0,72,87,0
0,70,49,0
0,70,89,55
0,67,75,0
0,67,66,0
0,63,87,0
0,39,94,0
0,40,80,0
0,44,102,0
0,70,39,0
0,58,76,0
0,63,85,0
0,67,69,0
0,54,72,0
0,64,64,0
0,70,38,0
0,29,96,60
0,65,71,0
0,69,66,0
0,74,76,0
0,69,87,0
0,65,73,0
0,65,62,0
0,62,86,0
0,67,73,0
0,41,78,0
0,64,65,0
0,70,50,0
0,57,74,0
0,62,66,0
0,65,67,0
