track,note,velocity,time
1,31,118,916
1,42,94,12
1,31,122,32
1,31,112,252
1,42,97,12
1,30,127,40
1,33,113,32
1,34,118,88
1,35,125,96
1,35,122,44
1,31,112,4
1,31,118,24
1,42,94,12
1,31,122,32
1,31,112,252
1,42,97,12
1,30,127,40
1,24,113,32
1,25,118,88
1,26,125,96
1,26,122,44
1,31,112,4
1,31,118,24
1,42,94,12
1,31,122,32
1,31,112,252
1,42,97,12
1,30,127,40
1,33,113,32
1,34,118,88
1,35,125,96
1,35,122,44
1,35,127,124
1,33,127,4
1,33,116,72
1,30,127,40
1,30,127,108
1,31,127,28
1,31,127,80
1,32,127,8
1,33,127,88
1,33,127,40
1,30,127,12
1,30,127,108
1,31,127,28
1,31,127,80
1,34,127,8
1,33,127,56
1,31,109,8
1,31,118,16
1,38,118,16
1,43,125,32
1,40,113,220
1,41,118,16
1,42,125,56
1,33,113,140
1,34,118,16
1,35,125,56
1,35,125,200
1,30,106,200
1,31,113,8
1,31,113,24
1,38,118,24
1,43,125,32
1,40,113,220
1,41,118,16
1,42,125,56
1,42,113,140
1,43,118,16
1,45,125,56
1,45,125,200
1,30,106,200
1,31,113,8
1,31,113,24
1,38,118,24
1,43,125,32
1,40,113,220
1,41,118,16
1,42,125,56
1,37,113,140
1,36,118,16
1,35,125,56
1,35,125,200
1,35,113,200
1,33,127,168
1,33,109,72
1,30,127,40
1,30,127,108
1,31,127,28
1,31,127,80
1,32,127,8
1,33,127,88
1,33,127,40
1,30,127,12
1,30,127,108
1,31,127,28
1,31,127,80
1,34,127,8
1,33,127,56
1,31,127,8
1,30,127,604
1,30,116,124
1,33,121,80
1,35,127,56
1,35,116,8
1,28,109,560
1,28,127,72
1,28,97,24
1,29,127,48
1,30,109,24
1,31,127,48
1,30,127,604
1,30,116,124
1,33,121,80
1,35,127,56
1,30,116,8
1,40,109,568
1,40,127,44
1,41,96,24
1,42,110,48
1,45,119,24
1,31,127,48
1,31,118,48
1,30,127,496
1,30,116,124
1,33,121,80
1,35,127,56
1,35,116,8
1,30,109,568
1,30,127,44
1,30,97,24
1,33,127,48
1,38,109,24
1,36,127,48
1,36,127,88
1,36,127,44
1,30,125,236
1,35,127,224
1,28,109,28
1,30,127,48
1,33,127,152
1,35,127,44
1,38,127,44
1,31,127,44
1,30,127,604
1,30,116,124
1,33,121,80
1,35,127,56
1,35,116,8
1,28,109,560
1,28,127,72
1,28,97,24
1,29,127,48
1,30,109,24
1,31,127,48
1,30,127,604
1,30,116,124
1,33,121,80
1,35,127,56
1,35,116,8
1,47,109,8
1,42,96,4
1,38,110,4
1,31,127,24
1,30,127,624
1,30,116,124
1,33,121,80
1,35,127,56
1,23,116,216
1,23,97,8
1,28,127,144
1,31,109,24
1,33,127,48
1,33,112,72
1,40,127,40
1,45,127,32
1,40,127,28
1,33,127,8
1,35,127,8
1,37,127,32
1,38,127,32
1,38,127,32
1,31,118,40
1,31,127,16
1,38,127,16
1,43,127,32
1,40,122,220
1,41,127,16
1,42,127,56
1,33,122,140
1,34,127,16
1,35,127,56
1,35,127,200
1,30,115,200
1,31,122,8
1,31,122,24
1,38,127,24
1,43,127,32
1,40,122,220
1,41,127,16
1,42,127,56
1,43,122,140
1,44,127,16
1,45,127,56
1,45,127,200
1,30,115,200
1,31,122,8
1,31,122,24
1,38,127,24
1,43,127,32
1,40,122,220
1,41,127,16
1,42,127,56
1,37,122,140
1,36,127,16
1,35,127,56
1,35,127,200
1,35,122,200
1,33,127,168
1,30,127,72
1,30,127,72
1,31,127,28
1,31,127,80
1,32,127,8
1,33,127,88
1,33,127,40
1,30,127,108
1,30,127,28
1,31,127,28
1,31,127,80
1,33,127,8
1,31,127,56
1,30,127,604
1,30,118,124
1,33,122,80
1,35,127,56
1,35,118,8
1,28,110,560
1,28,127,72
1,28,99,24
1,29,127,48
1,30,110,24
1,31,127,48
1,30,127,604
1,30,118,124
1,33,122,80
1,35,127,56
1,30,118,8
1,40,110,568
1,40,127,44
1,41,97,24
1,42,112,48
1,45,121,24
1,31,127,48
1,31,119,48
1,30,127,496
1,30,118,124
1,33,122,80
1,35,127,56
1,35,118,8
1,30,110,568
1,30,127,44
1,30,99,24
1,33,127,48
1,38,110,24
1,36,127,48
1,36,127,88
1,36,127,44
1,30,127,236
1,35,127,224
1,28,110,28
1,30,127,48
1,33,127,152
1,35,127,44
1,38,127,44
1,31,127,428
1,30,127,220
1,35,127,412
1,40,127,8
1,40,119,72
1,42,119,40
1,45,119,40
1,47,112,40
1,28,127,96
1,28,102,24
1,29,127,48
1,30,113,24
1,31,127,48
1,30,127,604
1,30,121,124
1,33,125,80
1,35,127,56
1,26,121,8
1,28,115,88
1,30,102,64
1,30,102,24
1,28,115,24
1,30,102,72
1,33,115,24
1,31,127,44
1,31,115,120
1,31,112,80
1,43,122,184
1,42,127,80
1,42,112,28
1,35,127,280
1,35,127,44
1,35,127,104
1,35,127,56
1,35,127,56
1,35,127,56
1,34,127,56
1,33,127,56
1,31,118,56
1,31,127,220
1,31,127,60
1,34,122,28
1,35,127,16
1,36,127,56
1,36,127,256
1,36,127,216
1,33,116,56
1,34,116,40
1,35,119,40
1,30,127,220
1,35,127,60
1,30,124,28
1,29,127,16
1,28,127,56
1,28,127,256
1,28,127,112
1,30,110,108
1,31,127,32
1,31,127,160
1,31,127,216
1,31,119,248
1,30,122,16
1,30,127,220
1,30,127,60
1,30,127,28
1,28,127,16
1,30,127,56
1,33,127,44
1,33,124,72
1,40,127,40
1,45,127,32
1,40,127,28
1,33,127,8
1,34,127,8
1,35,127,8
1,35,127,40
1,35,127,152
1,35,127,200
1,35,127,200
1,31,121,32
1,31,127,16
1,38,127,16
1,43,127,32
1,40,125,220
1,41,127,16
1,42,127,56
1,33,125,140
1,34,127,16
1,35,127,56
1,35,127,200
1,30,118,200
1,31,125,8
1,31,125,24
1,38,127,24
1,43,127,32
1,40,125,220
1,41,127,16
1,42,127,56
1,43,125,140
1,44,127,16
1,45,127,56
1,45,127,200
1,30,118,200
1,31,125,8
1,31,125,24
1,38,127,24
1,43,127,32
1,40,125,220
1,41,127,16
1,42,127,56
1,37,125,140
1,36,127,16
1,35,127,56
1,35,127,200
1,35,125,200
1,33,127,168
1,30,127,72
1,30,127,72
1,31,127,28
1,31,127,80
1,32,127,8
1,33,127,88
1,33,127,40
1,30,127,108
1,30,127,28
1,31,127,28
1,31,127,80
1,34,127,8
1,33,127,80
1,31,121,8
1,31,127,16
1,38,127,16
1,43,127,32
1,40,125,220
1,41,127,16
1,42,127,56
1,33,125,140
1,34,127,16
1,35,127,56
1,35,127,200
1,30,118,200
1,31,125,8
1,31,125,24
1,38,127,24
1,43,127,32
1,40,125,220
1,41,127,16
1,42,127,56
1,43,125,140
1,44,127,16
1,45,127,56
1,45,127,200
1,30,118,200
1,31,125,8
1,31,125,24
1,38,127,24
1,43,127,32
1,40,125,220
1,41,127,16
1,42,127,56
1,37,125,140
1,36,127,16
1,35,127,56
1,35,127,200
1,35,125,200
1,33,127,168
1,30,127,72
1,30,127,72
1,31,127,28
1,31,127,80
1,32,127,8
1,33,127,88
1,33,127,40
1,30,127,108
1,30,127,28
1,31,127,28
1,31,127,80
1,34,127,8
1,33,127,80
1,31,127,8
1,30,127,604
1,30,119,124
1,33,124,80
1,35,127,56
1,35,119,8
1,28,112,560
1,28,127,72
1,28,100,24
1,29,127,48
1,30,112,24
1,31,127,48
1,30,127,604
1,30,119,124
1,33,124,80
1,35,127,56
1,35,119,8
1,45,125,760
1,45,105,264
1,43,127,28
1,31,127,8
1,30,127,408
1,30,119,124
1,33,124,80
1,35,127,56
1,35,119,8
1,35,127,376
1,35,119,176
1,35,97,56
1,35,122,56
1,33,127,48
1,38,121,48
1,36,127,48
1,36,127,88
1,36,127,44
1,30,127,236
1,35,127,224
1,40,127,28
1,40,99,104
1,41,127,44
1,42,127,44
1,28,100,8
1,29,127,48
1,30,118,24
1,31,116,48
1,31,125,220
1,31,127,60
1,34,121,28
1,35,125,16
1,36,127,56
1,36,127,256
1,36,127,216
1,33,115,56
1,34,115,40
1,35,118,40
1,30,127,220
1,35,127,60
1,30,122,28
1,29,127,16
1,28,127,56
1,28,127,256
1,28,127,112
1,30,109,108
1,31,127,32
1,31,127,160
1,31,127,216
1,31,118,248
1,30,121,16
1,30,127,220
1,30,127,60
1,30,127,28
1,28,127,16
1,30,127,56
1,33,127,44
1,33,122,72
1,40,127,40
1,45,127,32
1,40,127,28
1,33,127,8
1,34,125,8
1,35,127,8
1,35,127,40
1,35,127,152
1,35,127,200
1,35,127,200
1,31,118,32
1,31,127,16
1,38,127,16
1,43,127,32
1,40,122,220
1,41,127,16
1,42,127,56
1,33,122,140
1,34,127,16
1,35,127,56
1,35,127,200
1,30,115,200
1,31,122,8
1,31,122,24
1,38,127,24
1,43,127,32
1,40,122,220
1,41,127,16
1,42,127,56
1,43,122,140
1,44,127,16
1,45,127,56
1,45,127,200
1,30,115,200
1,31,124,32
1,31,124,24
1,38,127,24
1,43,127,32
1,40,124,220
1,41,127,16
1,42,127,56
1,37,124,140
1,36,127,16
1,35,127,56
1,35,127,200
1,35,124,200
1,33,127,168
1,30,127,72
1,30,127,72
1,31,127,28
1,31,127,80
1,32,127,8
1,33,127,88
1,33,127,40
1,30,127,108
1,30,127,28
1,31,127,28
1,31,127,80
1,34,127,8
1,33,127,80
1,31,121,8
1,31,127,16
1,38,127,16
1,43,127,32
1,40,125,220
1,41,127,16
1,42,127,56
1,33,125,140
1,34,127,16
1,35,127,56
1,35,127,200
1,30,118,200
1,31,125,8
1,31,125,24
1,38,127,24
1,43,127,32
1,40,125,220
1,41,127,16
1,42,127,56
1,43,125,140
1,44,127,16
1,45,127,56
1,45,127,200
1,30,118,200
1,31,125,8
1,31,125,24
1,38,127,24
1,43,127,32
1,40,125,220
1,41,127,16
1,42,127,56
1,37,125,140
1,36,127,16
1,35,127,56
1,35,127,200
1,35,125,200
1,33,127,168
1,30,127,72
1,30,127,72
1,31,127,28
1,31,127,80
1,32,127,8
1,33,127,88
1,33,127,40
1,30,127,108
1,30,127,28
1,31,127,28
1,31,127,80
1,33,127,8
1,38,127,80
2,66,93,824
2,55,91,0
2,59,90,0
2,62,91,0
2,54,90,212
2,57,91,0
2,61,92,0
2,64,93,0
2,54,109,32
2,62,116,0
2,57,104,8
2,59,110,0
2,59,96,96
2,54,98,0
2,57,96,0
2,62,107,0
2,66,93,64
2,55,91,0
2,59,90,0
2,62,91,0
2,54,90,212
2,57,91,0
2,61,92,0
2,64,93,0
2,57,99,32
2,67,101,0
2,60,97,8
2,64,97,0
2,64,84,48
2,57,91,0
2,60,86,0
2,69,96,0
2,66,93,64
2,55,91,0
2,59,90,0
2,62,91,0
2,54,90,212
2,57,91,0
2,61,92,0
2,64,93,0
2,54,99,32
2,63,101,0
2,57,97,8
2,59,97,0
2,59,84,48
2,54,91,0
2,57,86,0
2,63,96,0
2,66,93,64
2,55,91,0
2,59,90,0
2,62,91,0
2,59,90,64
2,62,91,0
2,66,92,0
2,69,93,0
2,55,92,80
2,66,94,0
2,59,94,8
2,62,90,0
2,70,103,40
2,66,103,0
2,58,104,8
2,62,98,0
2,70,105,16
2,58,103,4
2,62,100,0
2,66,104,0
2,66,93,388
2,55,91,0
2,59,90,0
2,62,91,0
2,54,90,212
2,57,91,0
2,61,92,0
2,64,93,0
2,54,103,32
2,62,109,0
2,57,104,8
2,59,102,0
2,59,96,96
2,54,98,0
2,57,96,0
2,62,107,0
2,66,93,64
2,55,91,0
2,59,90,0
2,62,91,0
2,54,90,212
2,57,91,0
2,61,92,0
2,64,93,0
2,57,99,32
2,67,101,0
2,60,97,8
2,64,97,0
2,64,84,48
2,57,91,0
2,60,86,0
2,69,96,0
2,66,93,64
2,55,91,0
2,59,90,0
2,62,91,0
2,54,90,212
2,57,91,0
2,61,92,0
2,64,93,0
2,54,99,32
2,63,101,0
2,57,97,8
2,59,97,0
2,59,84,48
2,54,91,0
2,57,86,0
2,63,96,0
2,66,93,64
2,55,91,0
2,59,90,0
2,62,91,0
2,59,90,64
2,62,91,0
2,66,92,0
2,69,93,0
2,55,92,80
2,66,94,0
2,59,94,8
2,62,90,0
2,70,118,40
2,66,111,0
2,50,105,8
2,62,105,0
2,70,109,116
2,50,109,4
2,62,106,0
2,66,105,0
2,66,99,484
2,55,93,0
2,59,92,0
2,62,93,0
2,64,102,616
2,54,93,0
2,58,92,0
2,62,93,0
2,57,93,428
2,61,94,0
2,62,94,0
2,66,98,0
2,66,100,44
2,55,93,0
2,59,92,0
2,62,93,0
2,69,101,616
2,54,93,0
2,58,92,0
2,64,93,0
2,57,93,436
2,61,94,0
2,62,94,0
2,66,102,0
2,66,99,44
2,55,93,0
2,59,92,0
2,62,93,0
2,64,102,616
2,54,93,0
2,58,92,0
2,62,93,0
2,57,93,428
2,61,94,0
2,62,94,0
2,66,98,0
2,67,100,44
2,59,93,0
2,60,92,0
2,64,93,0
2,69,101,40
2,54,93,0
2,58,92,0
2,64,93,0
2,57,93,244
2,61,94,0
2,62,94,0
2,66,102,0
2,66,99,44
2,55,93,0
2,59,92,0
2,62,93,0
2,64,102,616
2,54,93,0
2,58,92,0
2,62,93,0
2,57,93,428
2,61,94,0
2,62,94,0
2,66,98,0
2,66,100,44
2,55,93,0
2,59,92,0
2,62,93,0
2,69,101,616
2,54,93,0
2,58,92,0
2,64,93,0
2,57,93,436
2,61,94,0
2,62,94,0
2,66,102,0
2,66,99,44
2,55,93,0
2,59,92,0
2,62,93,0
2,64,102,616
2,54,93,0
2,58,92,0
2,62,93,0
2,57,93,428
2,61,94,0
2,62,94,0
2,66,98,0
2,67,100,44
2,60,92,0
2,71,93,0
2,64,93,0
2,67,93,232
2,57,88,0
2,60,86,0
2,64,88,0
2,59,93,148
2,63,94,0
2,67,94,0
2,74,102,0
2,59,81,28
2,71,94,24
2,59,91,0
2,63,92,0
2,66,93,0
2,66,99,24
2,55,97,0
2,59,96,0
2,62,97,0
2,54,96,212
2,57,97,0
2,61,98,0
2,64,99,0
2,54,109,32
2,62,115,0
2,57,110,8
2,59,108,0
2,59,102,96
2,54,104,0
2,57,102,0
2,62,113,0
2,66,99,64
2,55,97,0
2,59,96,0
2,62,97,0
2,54,96,212
2,57,97,0
2,61,98,0
2,64,99,0
2,57,105,32
2,67,107,0
2,60,103,8
2,64,103,0
2,64,90,48
2,57,97,0
2,60,92,0
2,69,102,0
2,66,99,64
2,55,97,0
2,59,96,0
2,62,97,0
2,54,96,212
2,57,97,0
2,61,98,0
2,64,99,0
2,54,105,32
2,63,107,0
2,57,103,8
2,59,103,0
2,59,90,48
2,54,97,0
2,57,92,0
2,63,102,0
2,66,99,64
2,55,97,0
2,59,96,0
2,62,97,0
2,59,96,64
2,62,97,0
2,66,98,0
2,69,99,0
2,45,98,80
2,55,98,0
2,66,100,0
2,59,100,8
2,62,96,0
2,66,100,44
2,55,94,0
2,59,93,0
2,62,94,0
2,64,103,616
2,54,94,0
2,58,93,0
2,62,94,0
2,57,94,428
2,61,95,0
2,62,95,0
2,66,99,0
2,66,101,44
2,55,94,0
2,59,93,0
2,62,94,0
2,69,102,616
2,54,94,0
2,58,93,0
2,64,94,0
2,54,94,436
2,59,95,0
2,61,95,0
2,64,103,0
2,66,100,44
2,55,94,0
2,59,93,0
2,62,94,0
2,64,103,616
2,54,94,0
2,58,93,0
2,62,94,0
2,57,94,428
2,61,95,0
2,62,95,0
2,66,99,0
2,67,101,44
2,59,94,0
2,60,93,0
2,64,94,0
2,69,102,40
2,54,94,0
2,58,93,0
2,64,94,0
2,57,94,244
2,61,95,0
2,62,95,0
2,66,103,0
2,66,101,428
2,55,95,0
2,59,94,0
2,62,95,0
2,69,104,212
2,54,95,0
2,58,94,0
2,62,95,0
2,57,95,408
2,61,96,0
2,62,96,0
2,66,100,0
2,66,103,44
2,55,96,0
2,59,95,0
