track,note,velocity,time
0,35,123,384
0,35,0,4
0,35,122,44
0,35,0,4
0,40,82,38
0,40,0,4
0,31,102,2
0,40,107,0
0,50,85,0
0,54,51,0
0,55,61,0
0,55,88,0
0,59,57,0
0,59,97,0
0,62,59,0
0,62,56,0
0,74,62,0
0,86,63,0
0,40,0,4
0,54,0,0
0,62,0,0
0,50,0,64
0,55,0,0
0,55,0,4
0,59,0,0
0,59,0,0
0,62,0,0
0,86,0,4
0,74,0,1
0,31,0,9
0,40,83,4
0,40,0,4
0,32,100,2
0,40,107,0
0,50,80,0
0,54,52,0
0,55,57,0
0,55,91,0
0,59,58,0
0,59,89,0
0,62,60,0
0,74,58,0
0,86,58,0
0,40,0,4
0,54,0,0
0,50,0,65
0,55,0,0
0,86,0,0
0,55,0,1
0,59,0,0
0,59,0,0
0,62,0,0
0,74,0,0
0,32,0,16
0,33,101,10
0,35,125,0
0,64,42,0
0,35,0,4
0,64,0,0
0,33,0,82
0,38,107,10
0,40,106,0
0,49,71,0
0,53,86,0
0,57,57,0
0,57,85,0
0,60,58,0
0,60,94,0
0,62,55,0
0,64,63,0
0,76,62,0
0,88,56,0
0,40,0,4
0,49,0,0
0,62,0,0
0,35,120,92
0,42,40,0
0,54,48,0
0,35,0,4
0,42,0,0
0,54,0,0
0,76,0,20
0,88,0,1
0,38,0,61
0,36,96,10
0,42,69,0
0,54,28,0
0,57,69,0
0,63,38,0
0,69,66,0
0,69,94,0
0,42,0,4
0,54,0,0
0,63,0,0
0,57,0,21
0,69,0,0
0,69,0,0
0,63,46,27
0,63,0,4
0,36,0,30
0,35,127,10
0,38,106,0
0,40,102,0
0,42,70,0
0,54,45,0
0,60,79,0
0,72,78,0
0,72,108,0
0,35,0,4
0,40,0,0
0,42,0,0
0,54,0,0
0,60,0,22
0,72,0,0
0,72,0,0
0,42,70,53
0,54,27,0
0,57,65,0
0,62,53,0
0,69,67,0
0,69,97,0
0,42,0,4
0,54,0,0
0,62,0,0
0,57,0,20
0,69,0,0
0,69,0,0
0,38,0,26
0,38,96,10
0,35,123,36
0,42,37,0
0,54,50,0
0,60,75,0
0,72,78,0
0,72,109,0
0,38,0,2
0,35,0,2
0,42,0,0
0,54,0,0
0,60,0,24
0,72,0,0
0,72,0,0
0,36,94,32
0,36,0,26
0,38,105,10
0,42,70,0
0,54,27,0
0,57,52,0
0,63,41,0
0,69,54,0
0,69,77,0
0,42,0,4
0,54,0,0
0,63,0,0
0,57,0,20
0,69,0,0
0,69,0,0
0,63,52,28
0,63,0,4
0,35,125,40
0,42,76,0
0,54,49,0
0,60,74,0
0,72,71,0
0,72,103,0
0,35,0,4
0,40,101,0
0,42,0,0
0,54,0,0
0,40,0,4
0,60,0,25
0,72,0,0
0,72,0,0
0,38,0,53
0,36,95,10
0,42,68,0
0,54,25,0
0,62,67,0
0,62,55,0
0,74,65,0
0,74,93,0
0,42,0,4
0,54,0,0
0,62,0,0
0,62,0,14
0,74,0,0
0,74,0,0
0,64,71,30
0,76,68,0
0,76,99,0
0,36,0,38
0,35,127,10
0,38,107,0
0,42,41,0
0,54,45,0
0,35,0,4
0,42,0,0
0,54,0,0
0,64,0,64
0,76,0,0
0,76,0,0
0,42,68,28
0,54,28,0
0,63,42,0
0,64,73,0
0,76,70,0
0,76,106,0
0,42,0,4
0,54,0,0
0,63,0,0
0,64,0,19
0,76,0,0
0,76,0,0
0,63,52,29
0,63,0,4
0,38,0,22
0,35,120,18
0,38,107,0
0,40,101,0
0,42,74,0
0,54,52,0
0,35,0,4
0,40,0,0
0,42,0,0
0,54,0,0
0,53,0,74
0,57,0,0
0,57,0,2
0,60,0,0
0,60,0,0
0,64,0,0
0,42,70,16
0,54,26,0
0,62,57,0
0,42,0,4
0,54,0,0
0,62,0,0
0,38,0,74
0,31,104,18
0,35,126,0
0,42,39,0
0,50,86,0
0,54,46,0
0,55,60,0
0,55,85,0
0,59,57,0
0,59,93,0
0,62,59,0
0,74,58,0
0,86,58,0
0,72,107,3
0,35,0,1
0,42,0,0
0,54,0,0
0,50,0,64
0,55,0,0
0,55,0,4
0,59,0,0
0,59,0,0
0,62,0,0
0,74,0,13
0,86,0,0
0,31,0,1
0,33,103,10
0,42,71,0
0,50,80,0
0,54,25,0
0,55,63,0
0,55,91,0
0,59,59,0
0,59,92,0
0,62,60,0
0,63,35,0
0,79,62,0
0,91,59,0
0,72,0,1
0,42,0,3
0,54,0,0
0,63,0,0
0,74,89,1
0,63,47,47
0,63,0,4
0,79,0,6
0,91,0,4
0,50,0,3
0,55,0,0
0,55,0,1
0,59,0,0
0,59,0,0
0,62,0,0
0,74,0,22
0,35,122,4
0,40,103,0
0,42,71,0
0,54,52,0
0,35,0,4
0,40,0,0
0,42,0,0
0,54,0,0
0,33,0,82
0,35,101,10
0,38,105,0
0,46,62,0
0,53,87,0
0,54,27,0
0,57,60,0
0,57,88,0
0,60,58,0
0,60,94,0
0,62,52,0
0,64,61,0
0,76,62,0
0,88,62,0
0,74,104,3
0,35,0,1
0,46,0,0
0,54,0,0
0,62,0,0
0,35,125,1
0,42,39,0
0,54,49,0
0,35,0,4
0,42,0,0
0,54,0,0
0,76,0,16
0,88,0,1
0,38,0,61
0,36,95,10
0,42,65,0
0,54,29,0
0,63,38,0
0,64,70,0
0,76,74,0
0,76,102,0
0,42,0,4
0,54,0,0
0,63,0,0
0,64,0,40
0,76,0,0
0,76,0,0
0,65,42,4
0,74,0,0
0,77,45,0
0,77,71,0
0,63,46,4
0,72,86,0
0,63,0,4
0,36,0,30
0,72,0,1
0,65,0,5
0,77,0,0
0,77,0,0
0,69,115,2
0,35,121,2
0,38,108,0
0,40,107,0
0,42,76,0
0,54,47,0
0,64,57,0
0,76,60,0
0,76,91,0
0,35,0,4
0,40,0,0
0,42,0,0
0,54,0,0
0,64,0,40
0,76,0,0
0,76,0,0
0,60,47,4
0,72,47,0
0,72,80,0
0,60,0,44
0,72,0,0
0,72,0,0
0,42,67,4
0,54,29,0
0,57,63,0
0,62,50,0
0,69,57,0
0,69,93,0
0,42,0,4
0,54,0,0
0,62,0,0
0,57,0,16
0,69,0,0
0,69,0,0
0,69,0,19
0,38,0,11
0,38,94,10
0,35,123,36
0,42,39,0
0,54,50,0
0,64,70,0
0,76,74,0
0,76,102,0
0,38,0,2
0,35,0,2
0,42,0,0
0,54,0,0
0,64,0,40
0,76,0,0
0,76,0,0
0,65,43,4
0,77,48,0
0,77,76,0
0,36,91,12
0,36,0,26
0,65,0,6
0,77,0,0
0,77,0,0
0,38,107,4
0,42,65,0
0,54,27,0
0,63,38,0
0,64,57,0
0,76,57,0
0,76,83,0
0,42,0,4
0,54,0,0
0,63,0,0
0,64,0,40
0,76,0,0
0,76,0,0
0,60,49,4
0,72,43,0
0,72,76,0
0,63,45,4
0,63,0,4
0,60,0,36
0,72,0,0
0,72,0,0
0,35,120,4
0,40,105,0
0,42,71,0
0,54,51,0
0,57,64,0
0,69,62,0
0,69,98,0
0,35,0,4
0,40,0,0
0,42,0,0
0,54,0,0
0,57,0,27
0,69,0,0
0,69,0,0
0,38,0,55
0,36,96,10
0,42,65,0
0,54,28,0
0,60,68,0
0,62,52,0
0,72,71,0
0,72,103,0
0,42,0,4
0,54,0,0
0,62,0,0
0,60,0,40
0,72,0,0
0,72,0,0
0,57,63,4
0,69,62,0
0,69,98,0
0,36,0,30
0,35,125,18
0,38,108,0
0,42,36,0
0,54,52,0
0,35,0,4
0,42,0,0
0,54,0,0
0,57,0,88
0,69,0,0
0,69,0,0
0,42,72,4
0,54,32,0
0,55,64,0
0,63,38,0
0,67,65,0
0,67,96,0
0,42,0,4
0,54,0,0
0,63,0,0
0,63,46,48
0,63,0,4
0,55,0,10
0,67,0,0
0,67,0,0
0,38,0,12
0,35,124,18
0,38,107,0
0,40,101,0
0,42,70,0
0,54,50,0
0,35,0,4
0,40,0,0
0,42,0,0
0,54,0,0
0,53,0,74
0,57,0,0
0,57,0,2
0,60,0,0
0,60,0,0
0,64,0,0
0,42,67,16
0,54,31,0
0,62,50,0
0,42,0,3
0,54,0,0
0,62,0,0
0,79,98,1
0,38,0,18
0,38,94,10
0,38,0,8
0,31,101,28
0,35,123,0
0,42,42,0
0,50,82,0
0,54,48,0
0,55,56,0
0,55,88,0
0,59,62,0
0,59,97,0
0,62,59,0
0,74,56,0
0,86,61,0
0,35,0,4
0,42,0,0
0,54,0,0
0,79,0,16
0,50,0,48
0,55,0,0
0,55,0,4
0,59,0,0
0,59,0,0
0,62,0,0
0,86,0,4
0,74,0,1
0,31,0,9
0,32,103,10
0,42,70,0
0,50,78,0
0,54,32,0
0,55,58,0
0,55,87,0
0,59,63,0
0,59,91,0
0,62,57,0
0,63,37,0
0,74,57,0
0,86,60,0
0,77,96,1
0,42,0,3
0,54,0,0
0,63,0,0
0,63,47,48
0,63,0,4
0,50,0,13
0,55,0,0
0,86,0,0
0,55,0,1
0,59,0,0
0,59,0,0
0,62,0,0
0,74,0,0
0,32,0,16
0,33,96,10
0,35,125,0
0,40,100,0
0,42,71,0
0,54,46,0
0,35,0,4
0,40,0,0
0,42,0,0
0,54,0,0
0,77,0,6
0,33,0,76
0,76,63,10
0,88,57,0
0,35,103,0
0,38,106,0
0,46,61,0
0,53,84,0
0,54,29,0
0,57,58,0
0,57,85,0
0,60,56,0
0,60,96,0
0,62,50,0
0,64,63,0
0,76,93,2
0,35,0,2
0,46,0,0
0,54,0,0
0,62,0,0
0,35,127,92
0,42,39,0
0,54,45,0
0,35,0,1
0,42,0,0
0,54,0,0
0,76,0,13
0,88,0,1
0,38,0,61
0,36,91,10
0,42,72,0
0,54,28,0
0,57,70,0
0,63,38,0
0,69,65,0
0,69,94,0
0,42,0,4
0,54,0,0
0,63,0,0
0,57,0,21
0,69,0,0
0,69,0,0
0,63,51,27
0,63,0,4
0,36,0,30
0,35,127,10
0,38,103,0
0,40,105,0
0,42,76,0
0,54,47,0
0,60,75,0
0,72,73,0
0,72,107,0
0,35,0,4
0,40,0,0
0,42,0,0
0,54,0,0
0,60,0,22
0,72,0,0
0,72,0,0
0,42,71,51
0,54,26,0
0,57,67,0
0,62,51,0
0,69,63,0
0,69,91,0
0,42,0,4
0,54,0,0
0,62,0,0
0,57,0,20
0,69,0,0
0,69,0,0
0,38,0,26
0,38,92,10
0,35,126,36
0,42,39,0
0,54,50,0
0,60,75,0
0,72,76,0
0,72,106,0
0,38,0,2
0,35,0,2
0,42,0,0
0,54,0,0
0,60,0,3
0,72,0,0
0,72,0,0
0,76,0,4
0,42,34,20
0,42,0,4
0,36,91,4
0,36,0,26
0,38,108,10
0,42,71,0
0,54,26,0
0,57,54,0
0,63,39,0
0,69,48,0
0,69,81,0
0,42,0,4
0,54,0,0
0,63,0,0
0,57,0,20
0,69,0,0
0,69,0,0
0,63,47,28
0,63,0,4
0,35,122,40
0,40,106,0
0,42,74,0
0,54,49,0
0,60,72,0
0,72,76,0
0,72,102,0
0,35,0,4
0,40,0,0
0,42,0,0
0,54,0,0
0,60,0,29
0,72,0,0
0,72,0,0
0,38,0,53
0,36,96,10
0,42,66,0
0,54,25,0
0,62,64,0
0,62,51,0
0,74,63,0
0,74,93,0
0,42,0,4
0,54,0,0
0,62,0,0
0,62,0,14
0,74,0,0
0,74,0,0
0,64,70,30
0,76,71,0
0,76,102,0
0,36,0,38
0,35,124,10
0,38,105,0
0,42,36,0
0,54,47,0
0,35,0,4
0,42,0,0
0,54,0,0
0,64,0,64
0,76,0,0
0,76,0,0
0,42,66,28
0,54,29,0
0,63,36,0
0,64,70,0
0,76,73,0
0,76,102,0
0,42,0,4
0,54,0,0
0,63,0,0
0,64,0,19
0,76,0,0
0,76,0,0
0,63,46,29
0,63,0,4
0,38,0,22
0,35,120,18
0,38,101,0
0,40,106,0
0,42,70,0
0,54,52,0
0,35,0,4
0,40,0,0
0,42,0,0
0,54,0,0
0,53,0,74
0,57,0,0
0,57,0,2
0,60,0,0
0,60,0,0
0,64,0,0
0,67,75,14
0,42,67,2
0,54,27,0
0,62,54,0
0,42,0,4
0,54,0,0
0,62,0,0
0,67,0,56
0,38,0,18
0,31,104,18
0,35,121,0
0,42,39,0
0,50,85,0
0,54,49,0
0,55,64,0
0,55,86,0
0,59,59,0
0,59,94,0
0,62,56,0
0,74,57,0
0,86,59,0
0,35,0,0
0,42,0,0
0,54,0,0
0,71,94,1
0,50,0,63
0,55,0,0
0,55,0,4
0,59,0,0
0,59,0,0
0,62,0,0
0,74,0,13
0,86,0,0
0,31,0,1
0,33,96,10
0,35,105,0
0,42,67,0
0,50,78,0
0,54,30,0
0,55,56,0
0,55,90,0
0,59,56,0
0,59,93,0
0,62,62,0
0,63,38,0
0,79,56,0
0,91,60,0
0,35,0,4
0,42,0,0
0,54,0,0
0,63,0,0
0,63,45,43
0,63,0,4
0,79,0,6
0,91,0,4
0,50,0,3
0,55,0,0
0,55,0,1
0,59,0,0
0,59,0,0
0,62,0,0
0,71,0,22
0,40,106,0
0,42,76,0
0,54,50,0
0,69,88,2
0,40,0,2
0,42,0,0
0,54,0,0
0,33,0,82
0,35,106,10
0,38,105,0
0,46,61,0
0,53,86,0
0,54,32,0
0,57,61,0
0,57,84,0
0,60,59,0
0,60,100,0
0,62,57,0
0,64,62,0
0,76,57,0
0,88,61,0
0,35,0,4
0,46,0,0
0,54,0,0
0,62,0,0
0,35,124,85
0,42,42,0
0,54,47,0
0,35,0,4
0,42,0,0
0,54,0,0
0,76,0,20
0,88,0,1
0,38,0,61
0,69,0,4
0,72,81,3
0,36,92,3
0,42,71,0
0,54,27,0
0,63,38,0
0,64,70,0
0,76,69,0
0,76,100,0
0,42,0,4
0,54,0,0
0,63,0,0
0,64,0,40
0,76,0,0
0,76,0,0
0,65,42,4
0,77,42,0
0,77,74,0
0,63,52,4
0,63,0,4
0,36,0,30
0,65,0,6
0,77,0,0
0,77,0,0
0,35,123,4
0,38,101,0
0,40,104,0
0,42,72,0
0,54,52,0
0,64,62,0
0,76,56,0
0,76,87,0
0,35,0,4
0,40,0,0
0,42,0,0
0,54,0,0
0,64,0,40
0,76,0,0
0,76,0,0
0,60,49,4
0,72,47,0
0,72,80,0
0,60,0,44
0,72,0,0
0,72,0,0
0,72,0,1
0,42,72,3
0,54,30,0
0,57,58,0
0,62,55,0
0,69,57,0
0,69,91,0
0,42,0,4
0,54,0,0
0,62,0,0
0,57,0,16
0,69,0,0
0,69,0,0
0,38,0,30
0,38,96,10
0,35,122,36
0,42,39,0
0,54,45,0
0,64,67,0
0,76,67,0
0,76,97,0
0,38,0,2
0,35,0,2
0,42,0,0
0,54,0,0
0,64,0,40
0,76,0,0
0,76,0,0
0,42,33,4
0,65,48,0
0,77,42,0
0,77,78,0
0,42,0,4
0,36,93,8
0,36,0,26
0,65,0,6
0,77,0,0
0,77,0,0
0,38,107,4
0,42,68,0
0,54,30,0
0,63,42,0
0,64,55,0
0,76,60,0
0,76,85,0
0,42,0,4
0,54,0,0
0,63,0,0
0,64,0,40
0,76,0,0
0,76,0,0
0,60,48,4
0,72,50,0
0,72,76,0
0,63,51,4
0,63,0,4
0,60,0,36
0,72,0,0
0,72,0,0
0,35,120,4
0,40,102,0
0,42,76,0
0,54,48,0
0,57,66,0
0,69,64,0
0,69,93,0
0,35,0,4
0,40,0,0
0,42,0,0
0,54,0,0
0,57,0,27
0,69,0,0
0,69,0,0
0,38,0,55
0,36,94,10
0,42,68,0
0,54,31,0
0,62,55,0
0,69,73,0
0,81,68,0
0,81,103,0
0,42,0,4
0,54,0,0
0,62,0,0
0,69,0,40
0,81,0,0
0,81,0,0
0,42,33,4
0,64,67,0
0,76,64,0
0,76,96,0
0,42,0,4
0,36,0,26
0,35,125,18
0,38,106,0
0,42,36,0
0,54,47,0
0,35,0,4
0,42,0,0
0,54,0,0
0,64,0,88
0,76,0,0
0,76,0,0
0,42,70,4
0,54,31,0
0,62,68,0
