track,note,velocity,time
0,43,80,0
0,66,91,0
0,62,77,0
0,59,77,0
0,31,80,0
0,31,57,0
0,43,57,0
0,81,75,0
0,69,75,0
0,81,75,0
0,69,75,0
0,31,75,0
0,43,75,0
0,31,92,0
0,43,92,0
0,69,71,120
0,81,75,0
0,69,75,0
0,81,75,0
0,69,75,0
0,31,71,0
0,43,71,0
0,31,92,0
0,43,92,0
0,61,91,10
0,64,85,0
0,57,102,0
0,42,88,0
0,30,88,0
0,81,75,0
0,69,75,0
0,33,75,35
0,45,75,0
0,81,75,0
0,69,75,0
0,81,75,0
0,69,75,0
0,46,75,0
0,34,75,0
0,54,98,0
0,62,85,0
0,57,90,0
0,47,107,0
0,35,107,0
0,69,71,120
0,81,75,0
0,69,75,0
0,81,75,0
0,69,75,0
0,47,98,0
0,35,98,0
0,81,75,0
0,69,75,0
0,54,98,0
0,62,102,0
0,57,95,0
0,42,67,0
0,30,67,0
0,59,85,0
0,62,81,0
0,66,91,0
0,43,71,0
0,31,71,0
0,43,67,0
0,31,67,0
0,81,75,0
0,69,75,0
0,81,75,0
0,69,75,0
0,43,75,0
0,31,75,0
0,43,98,0
0,31,98,0
0,69,71,120
0,81,75,0
0,69,75,0
0,81,75,0
0,69,75,0
0,43,52,0
0,31,52,0
0,31,75,0
0,43,75,0
0,81,75,10
0,69,75,0
0,42,96,0
0,30,96,0
0,61,106,0
0,57,85,0
0,64,85,0
0,81,75,138
0,69,75,0
0,36,64,0
0,24,64,0
0,81,75,0
0,69,75,0
0,37,75,0
0,25,75,0
0,67,102,0
0,60,108,0
0,64,108,0
0,38,103,0
0,26,103,0
0,69,71,120
0,81,75,0
0,69,75,0
0,81,75,0
0,69,75,0
0,38,80,0
0,26,80,0
0,81,75,0
0,69,75,0
0,64,74,0
0,60,77,0
0,69,62,0
0,66,98,0
0,38,85,0
0,26,85,0
0,43,80,7
0,66,91,0
0,62,77,0
0,59,77,0
0,31,80,0
0,55,105,0
0,35,127,0
0,81,75,149
0,69,75,0
0,42,50,0
0,31,57,0
0,43,57,0
0,81,75,0
0,69,75,0
0,31,75,0
0,43,75,0
0,42,105,0
0,40,105,0
0,42,50,0
0,31,92,0
0,43,92,0
0,69,71,70
0,81,75,0
0,69,75,0
0,42,105,0
0,35,127,0
0,81,75,0
0,69,75,0
0,42,50,0
0,31,71,0
0,43,71,0
0,31,92,0
0,43,92,0
0,42,105,0
0,40,105,0
0,81,75,10
0,69,75,0
0,42,50,0
0,61,91,0
0,64,85,0
0,57,102,0
0,42,88,0
0,30,88,0
0,42,105,0
0,35,127,0
0,81,75,42
0,69,75,0
0,42,50,0
0,33,75,0
0,45,75,0
0,81,75,0
0,69,75,0
0,46,75,0
0,34,75,0
0,42,105,0
0,40,105,0
0,42,50,0
0,63,95,0
0,54,98,0
0,57,90,0
0,47,107,0
0,35,107,0
0,69,71,70
0,81,75,0
0,69,75,0
0,42,105,0
0,35,127,0
0,81,75,0
0,69,75,0
0,42,50,0
0,47,98,0
0,35,98,0
0,42,85,0
0,81,75,0
0,69,75,0
0,71,113,0
0,83,113,0
0,63,102,0
0,54,98,0
0,57,95,0
0,42,105,0
0,40,105,0
0,69,113,0
0,81,113,0
0,42,50,0
0,42,67,0
0,30,67,0
0,33,85,0
0,45,85,0
0,49,67,0
0,35,127,0
0,62,65,0
0,67,65,0
0,71,65,0
0,33,85,50
0,69,75,0
0,81,75,0
0,66,117,0
0,78,117,0
0,42,50,0
0,55,52,0
0,62,54,0
0,59,56,0
0,30,81,0
0,69,75,0
0,81,75,0
0,55,95,0
0,62,77,0
0,59,85,0
0,42,105,0
0,40,105,0
0,30,85,0
0,64,117,0
0,76,117,0
0,42,50,0
0,45,81,0
0,69,71,58
0,31,85,0
0,69,75,0
0,81,75,0
0,62,57,0
0,55,56,0
0,59,56,0
0,42,105,0
0,35,127,0
0,31,85,0
0,69,75,0
0,81,75,0
0,69,117,0
0,81,117,0
0,42,50,0
0,59,90,0
0,55,90,0
0,62,90,0
0,32,85,0
0,45,64,0
0,42,105,0
0,40,105,0
0,33,80,5
0,69,75,0
0,81,75,0
0,66,117,0
0,78,117,0
0,42,50,0
0,62,94,0
0,55,94,0
0,59,94,0
0,45,65,0
0,42,105,0
0,35,127,0
0,33,81,32
0,69,75,0
0,81,75,0
0,62,117,0
0,74,117,0
0,42,50,0
0,45,85,0
0,30,80,0
0,69,75,0
0,81,75,0
0,59,85,0
0,55,85,0
0,62,85,0
0,42,105,0
0,40,105,0
0,30,80,0
0,40,28,0
0,42,50,0
0,45,85,0
0,40,46,10
0,69,71,10
0,40,63,0
0,40,81,10
0,31,80,0
0,67,75,0
0,73,75,0
0,78,75,0
0,81,75,0
0,61,117,0
0,67,117,0
0,77,117,0
0,82,117,0
0,42,105,0
0,35,127,0
0,58,98,0
0,61,91,0
0,65,90,0
0,55,108,0
0,40,105,70
0,31,80,0
0,67,75,0
0,73,75,0
0,78,75,0
0,81,75,0
0,61,117,0
0,67,117,0
0,77,117,0
0,82,117,0
0,40,50,0
0,42,50,0
0,61,85,0
0,55,108,0
0,65,95,0
0,58,98,0
0,33,77,0
0,42,105,0
0,40,105,0
0,40,80,70
0,32,81,9
0,66,117,0
0,78,117,0
0,40,50,0
0,42,50,0
0,31,123,23
0,49,67,0
0,35,127,0
0,66,74,0
0,78,57,0
0,43,80,0
0,66,91,0
0,62,77,0
0,59,77,0
0,31,80,0
0,31,117,65
0,50,117,0
0,62,102,0
0,74,102,0
0,31,57,0
0,43,57,0
0,42,50,0
0,38,109,24
0,42,105,0
0,40,105,0
0,31,75,0
0,43,75,0
0,43,108,47
0,52,117,0
0,31,92,0
0,43,92,0
0,42,50,0
0,42,105,23
0,35,127,0
0,40,90,190
0,57,117,0
0,42,50,0
0,31,71,0
0,43,71,0
0,41,90,8
0,31,92,0
0,43,92,0
0,42,105,0
0,40,105,0
0,42,90,10
0,54,117,0
0,42,50,0
0,61,91,0
0,64,85,0
0,57,102,0
0,42,88,0
0,30,88,0
0,42,105,5
0,35,127,0
0,33,95,2
0,50,117,0
0,59,111,0
0,71,111,0
0,42,50,0
0,71,74,0
0,83,57,0
0,33,75,0
0,45,75,0
0,69,74,0
0,81,57,0
0,34,98,0
0,71,74,0
0,83,57,0
0,42,105,0
0,40,105,0
0,46,75,0
0,34,75,0
0,35,95,10
0,47,117,0
0,62,117,0
0,74,117,0
0,54,98,0
0,62,85,0
0,57,90,0
0,47,107,0
0,35,107,0
0,42,50,0
0,74,74,0
0,86,57,0
0,42,105,69
0,35,127,0
0,35,109,0
0,59,117,0
0,64,117,0
0,76,117,0
0,42,50,0
0,78,74,0
0,90,57,0
0,47,98,0
0,35,98,0
0,54,98,15
0,62,102,0
0,57,95,0
0,76,74,0
0,88,57,0
0,42,105,0
0,40,105,0
0,30,98,8
0,57,117,0
0,66,117,0
0,78,117,0
0,42,50,0
0,78,74,0
0,90,57,0
0,42,67,0
0,30,67,0
0,31,113,32
0,59,85,0
0,62,81,0
0,66,91,0
0,43,71,0
0,31,71,0
0,42,105,0
0,35,127,0
0,31,113,37
0,50,117,0
0,62,117,0
0,74,117,0
0,42,50,0
0,43,67,0
0,31,67,0
0,38,95,22
0,43,75,0
0,31,75,0
0,42,105,0
0,40,105,0
0,43,104,48
0,52,117,0
0,42,50,0
0,43,98,0
0,31,98,0
0,42,105,2
0,35,127,0
0,40,90,190
0,57,117,0
0,42,50,0
0,43,52,0
0,31,52,0
0,41,95,8
0,31,75,0
0,43,75,0
0,42,105,0
0,40,105,0
0,42,94,10
0,54,117,0
0,66,117,0
0,78,117,0
0,42,50,0
0,42,96,0
0,30,96,0
0,61,106,0
0,57,85,0
0,64,85,0
0,42,105,190
0,35,127,0
0,43,90,0
0,50,117,0
0,67,117,0
0,79,117,0
0,42,50,0
0,79,65,0
0,91,65,0
0,36,64,0
0,24,64,0
0,44,85,0
0,66,117,0
0,78,117,0
0,37,75,0
0,25,75,0
0,81,65,0
0,93,65,0
0,42,105,0
0,40,105,0
0,45,90,0
0,47,117,0
0,64,117,0
0,76,117,0
0,42,50,0
0,81,74,0
0,93,57,0
0,67,102,0
0,60,108,0
0,64,108,0
0,38,103,0
0,26,103,0
0,62,117,0
0,74,117,0
0,42,105,0
0,35,127,0
0,45,108,10
0,59,117,0
0,42,50,0
0,38,80,0
0,26,80,0
0,69,117,0
0,81,107,0
0,64,74,0
0,60,77,0
0,69,62,0
0,66,98,0
0,42,105,0
0,40,105,0
0,86,65,0
0,98,65,0
0,30,98,10
0,57,117,0
0,66,117,0
0,78,117,0
0,83,74,0
0,95,57,0
0,42,50,0
0,38,85,0
0,26,85,0
0,31,109,7
0,43,80,0
0,66,91,0
0,62,77,0
0,59,77,0
0,31,80,0
0,42,105,0
0,35,127,0
0,31,109,50
0,50,117,0
0,62,117,0
0,74,117,0
0,42,50,0
0,31,57,0
0,43,57,0
0,38,90,35
0,31,75,0
0,43,75,0
0,42,105,0
0,40,105,0
0,43,113,33
0,52,117,0
0,42,50,0
0,31,92,0
0,43,92,0
0,42,105,35
0,35,127,0
0,40,95,190
0,57,117,0
0,42,50,0
0,31,71,0
0,43,71,0
0,41,94,13
0,31,92,0
0,43,92,0
0,42,105,0
0,40,105,0
0,42,106,10
0,54,117,0
0,42,50,0
0,61,91,0
0,64,85,0
0,57,102,0
0,42,88,0
0,30,88,0
0,42,105,0
0,35,127,0
0,85,68,0
0,97,68,0
0,37,106,42
0,50,117,0
0,59,117,0
0,71,117,0
0,86,69,0
0,98,69,0
0,42,50,0
0,33,75,0
0,45,75,0
0,36,95,9
0,46,75,0
0,34,75,0
0,42,105,0
0,40,105,0
0,88,69,0
0,100,69,0
0,35,102,10
0,47,117,0
0,62,117,0
0,74,117,0
0,90,70,0
0,102,70,0
0,42,50,0
0,63,95,0
0,54,98,0
0,57,90,0
0,47,107,0
0,35,107,0
0,42,105,43
0,35,127,0
0,35,108,153
0,59,117,0
0,57,117,0
0,69,117,0
0,42,50,0
0,47,98,0
0,35,98,0
0,59,117,62
0,71,117,0
0,62,117,0
0,74,117,0
0,63,102,0
0,54,98,0
0,57,95,0
0,42,105,0
0,40,105,0
0,64,117,45
0,76,117,0
0,35,108,0
0,57,117,0
0,62,117,0
0,74,117,0
0,42,50,0
0,42,67,0
0,30,67,0
0,33,113,32
0,45,85,0
0,42,105,0
0,35,127,0
0,62,65,0
0,67,65,0
0,71,65,0
0,33,113,109
0,57,106,0
0,42,50,0
0,55,52,0
0,62,54,0
0,59,56,0
0,59,106,0
0,30,106,0
0,62,106,0
0,55,95,0
0,62,77,0
0,59,85,0
0,42,105,0
0,40,105,0
0,62,106,0
0,30,104,0
0,59,106,0
0,42,50,0
0,45,81,0
0,57,106,0
0,31,109,0
0,62,57,0
0,55,56,0
0,59,56,0
0,42,105,0
0,35,127,0
0,31,109,107
0,62,106,0
0,42,50,0
0,59,90,0
0,55,90,0
0,62,90,0
0,64,106,0
0,32,106,0
0,62,106,0
0,45,64,0
0,42,105,0
0,40,105,0
0,33,108,37
0,42,50,0
0,62,94,0
0,55,94,0
0,59,94,0
0,45,65,120
0,42,105,0
0,35,127,0
0,33,109,104
0,57,106,0
0,42,50,0
0,45,85,0
0,59,106,0
0,30,113,0
0,62,106,0
0,59,85,0
0,55,85,0
0,62,85,0
0,42,105,0
0,40,105,0
0,62,106,0
0,30,106,0
0,59,106,0
0,40,28,0
0,42,50,0
0,45,85,0
0,40,46,10
0,57,106,0
0,40,63,0
0,40,81,10
0,31,109,0
0,62,106,0
0,64,102,0
0,69,102,0
0,73,102,0
0,77,102,0
0,42,105,0
0,35,127,0
0,58,98,0
0,61,91,0
0,65,90,0
0,55,108,0
0,62,106,0
0,40,105,0
0,40,50,0
0,42,50,0
0,61,85,0
0,55,108,0
0,65,95,0
0,58,98,0
0,31,113,0
0,59,106,0
0,64,103,0
0,69,103,0
0,73,103,0
0,77,103,0
0,57,106,0
0,42,105,0
0,40,105,0
0,33,113,0
0,62,106,0
0,40,80,0
0,62,106,0
0,32,113,0
0,59,106,0
0,40,50,0
0,42,50,0
0,57,106,0
0,31,113,0
0,42,105,0
0,35,105,0
0,43,119,0
0,59,109,0
0,66,109,0
0,62,109,0
0,46,50,70
0,59,100,15
0,42,80,0
0,62,100,55
0,42,105,0
0,40,105,0
0,59,100,10
0,42,50,0
0,42,50,70
0,30,125,70
0,62,100,0
0,42,105,0
0,35,105,0
0,58,113,0
0,42,123,0
0,69,113,0
0,62,113,0
0,64,113,0
0,46,50,70
0,62,100,23
0,42,80,0
0,33,95,70
0,34,106,0
0,42,105,0
0,40,105,0
0,35,108,10
0,64,100,0
0,42,50,0
0,35,105,0
0,47,119,0
0,62,109,0
0,57,109,0
0,66,109,0
0,61,109,0
0,42,50,70
0,42,105,70
0,46,50,0
0,35,113,70
0,62,100,0
0,42,80,0
0,35,105,0
0,42,105,120
0,40,105,0
0,42,50,20
0,42,50,70
0,35,121,70
0,42,105,0
0,35,105,0
0,35,113,47
0,46,50,0
0,28,113,14
0,42,80,0
0,29,123,15
0,42,105,0
0,40,105,0
0,30,106,10
0,54,100,0
0,42,50,0
0,42,50,70
0,31,113,63
0,66,100,0
0,42,105,0
0,35,105,0
0,43,119,0
0,59,109,0
0,66,109,0
0,62,109,0
0,46,50,70
0,67,100,15
0,42,80,0
0,66,100,69
0,42,105,0
0,40,105,0
0,54,100,10
0,42,50,0
0,42,50,70
0,30,125,68
0,64,100,0
0,42,105,0
0,35,105,0
0,58,113,0
0,42,123,0
0,69,113,0
0,62,113,0
0,64,113,0
0,46,50,14
0,64,100,23
0,42,80,0
0,33,95,70
0,34,106,0
0,62,100,0
0,42,105,0
0,40,105,0
0,35,108,10
0,42,50,0
0,35,105,0
0,47,119,0
0,62,109,0
0,57,109,0
0,66,109,0
0,61,109,0
0,42,50,70
0,42,105,70
0,46,50,0
0,35,113,70
0,42,80,0
0,35,105,0
0,42,105,120
0,40,105,0
0,42,50,190
0,42,50,70
0,35,121,70
0,42,105,0
0,35,105,0
0,35,113,47
0,46,50,0
0,40,99,14
0,42,80,0
0,42,94,15
0,42,105,0
0,40,105,0
0,45,90,10
0,42,50,0
0,42,50,70
0,31,113,70
0,42,105,0
0,35,105,0
0,43,119,0
0,59,109,0
0,66,109,0
0,62,109,0
0,46,50,70
0,59,100,15
0,42,80,0
0,62,100,55
0,42,105,0
0,40,105,0
0,59,100,10
0,42,50,0
0,42,50,70
0,30,125,70
0,62,100,0
0,42,105,0
0,35,105,0
0,58,113,0
0,42,123,0
0,69,113,0
0,62,113,0
0,64,113,0
0,46,50,70
0,62,100,23
0,42,80,0
0,33,95,70
0,34,106,0
0,42,105,0
0,40,105,0
0,35,108,10
0,64,100,0
0,42,50,0
0,35,105,0
0,47,119,0
0,62,109,0
0,57,109,0
0,66,109,0
0,61,109,0
0,42,50,70
0,42,105,70
0,46,50,0
0,35,113,70
0,62,100,0
0,42,80,0
0,35,105,0
0,42,105,20
0,40,105,0
0,42,50,190
0,42,50,70
0,35,121,70
0,42,105,0
0,35,105,0
0,35,113,47
0,46,50,0
0,28,113,14
0,42,80,0
0,29,123,15
0,54,100,0
0,42,105,0
0,40,105,0
0,30,106,10
0,54,100,0
0,42,50,0
0,42,50,70
0,36,121,63
0,67,100,0
0,42,105,0
0,35,105,0
0,48,104,0
0,59,104,0
0,64,104,0
0,67,104,0
0,62,104,0
0,46,50,70
0,48,104,70
0,67,100,0
0,42,80,0
0,36,117,80
0,69,100,0
0,42,105,0
0,40,105,0
0,48,99,13
0,71,100,0
0,42,50,0
0,42,50,70
0,69,100,10
0,42,105,0
0,35,105,0
0,46,50,14
0,30,123,70
0,67,100,0
0,42,80,0
0,42,109,0
0,58,109,0
0,62,109,0
0,64,109,0
0,69,109,0
0,66,100,10
0,42,105,0
0,40,105,0
0,42,50,0
0,35,105,0
0,47,113,0
0,62,113,0
0,57,113,0
0,66,113,0
