track,note,velocity,time
0,34,97,33
0,35,109,0
0,42,61,0
0,46,102,0
0,54,59,0
0,57,61,0
0,60,96,0
0,60,88,0
0,63,96,0
0,63,88,0
0,67,106,0
0,79,88,0
0,63,102,3
0,35,0,1
0,42,0,0
0,54,0,0
0,57,0,0
0,60,90,0
0,67,92,1
0,42,32,91
0,54,19,0
0,42,0,4
0,54,0,0
0,35,73,48
0,42,25,0
0,35,0,4
0,42,0,0
0,40,85,40
0,42,61,0
0,54,59,0
0,40,0,4
0,42,0,0
0,54,0,0
0,34,0,77
0,35,97,15
0,42,32,0
0,54,19,0
0,35,0,4
0,42,0,0
0,54,0,0
0,67,0,4
0,60,0,2
0,46,0,10
0,63,0,3
0,60,0,15
0,63,0,0
0,67,0,0
0,40,73,14
0,42,25,0
0,40,0,4
0,42,0,0
0,60,0,26
0,63,0,0
0,79,0,0
0,63,99,9
0,60,94,1
0,67,95,0
0,34,95,4
0,35,109,0
0,42,61,0
0,46,95,0
0,54,59,0
0,57,61,0
0,60,99,0
0,60,84,0
0,63,99,0
0,63,84,0
0,67,106,0
0,79,84,0
0,35,0,4
0,42,0,0
0,54,0,0
0,57,0,0
0,46,0,30
0,34,0,28
0,54,19,34
0,54,0,4
0,63,0,14
0,60,0,1
0,67,0,0
0,60,0,11
0,63,0,0
0,67,0,0
0,79,0,0
0,60,0,10
0,63,0,0
0,62,97,11
0,33,93,1
0,35,105,0
0,42,58,0
0,45,81,0
0,49,58,0
0,59,81,0
0,59,91,0
0,59,88,0
0,62,91,0
0,62,88,0
0,66,98,0
0,78,88,0
0,66,88,1
0,35,0,3
0,42,0,0
0,49,0,0
0,66,0,13
0,45,0,2
0,59,0,0
0,62,0,7
0,33,0,15
0,54,59,3
0,54,0,4
0,59,0,6
0,62,0,0
0,66,0,0
0,59,0,47
0,62,0,0
0,78,0,0
0,32,94,39
0,35,105,0
0,42,55,0
0,54,19,0
0,57,55,0
0,58,116,0
0,58,88,0
0,61,116,0
0,61,88,0
0,65,123,0
0,77,88,0
0,44,87,1
0,61,99,2
0,35,0,1
0,42,0,0
0,54,0,0
0,57,0,0
0,58,87,2
0,65,95,0
0,44,65,0
0,54,59,0
0,44,0,4
0,54,0,0
0,40,49,36
0,40,0,4
0,40,95,0
0,54,19,0
0,40,0,4
0,54,0,0
0,35,93,4
0,35,0,4
0,40,49,12
0,40,0,4
0,77,0,5
0,40,99,0
0,44,73,0
0,54,59,0
0,75,88,0
0,40,0,4
0,44,0,0
0,54,0,0
0,35,89,4
0,35,0,4
0,54,19,0
0,54,0,4
0,48,59,0
0,35,61,4
0,48,0,0
0,35,0,4
0,48,72,0
0,48,0,4
0,75,0,17
0,35,81,0
0,44,73,0
0,48,102,0
0,54,59,0
0,70,89,0
0,35,0,4
0,44,0,0
0,48,0,0
0,54,0,0
0,48,59,0
0,40,93,4
0,48,0,0
0,40,0,4
0,48,41,0
0,54,19,0
0,48,0,4
0,54,0,0
0,45,72,44
0,35,69,4
0,45,0,0
0,35,0,4
0,58,0,37
0,61,0,0
0,70,0,0
0,58,0,1
0,61,0,0
0,65,0,0
0,40,93,2
0,44,73,0
0,45,41,0
0,54,59,0
0,75,87,0
0,40,0,4
0,44,0,0
0,45,0,0
0,54,0,0
0,45,59,44
0,45,0,4
0,35,89,44
0,54,19,0
0,35,0,4
0,54,0,0
0,44,0,13
0,65,0,3
0,58,0,2
0,61,0,2
0,32,0,2
0,40,89,26
0,40,0,4
0,75,0,37
0,63,99,2
0,34,97,1
0,35,109,0
0,42,61,0
0,46,102,0
0,54,59,0
0,57,61,0
0,60,92,0
0,60,99,0
0,60,88,0
0,63,99,0
0,63,88,0
0,67,99,0
0,67,98,0
0,72,99,0
0,79,88,0
0,35,0,4
0,42,0,0
0,54,0,0
0,57,0,0
0,42,32,92
0,54,19,0
0,42,0,4
0,54,0,0
0,35,73,48
0,42,25,0
0,35,0,4
0,42,0,0
0,40,85,40
0,42,61,0
0,54,59,0
0,40,0,4
0,42,0,0
0,54,0,0
0,34,0,77
0,35,97,15
0,42,32,0
0,45,90,0
0,54,19,0
0,35,0,4
0,42,0,0
0,45,0,0
0,54,0,0
0,46,0,16
0,60,0,18
0,63,0,0
0,67,0,0
0,72,0,0
0,67,0,4
0,45,59,6
0,42,25,4
0,45,0,0
0,60,0,1
0,63,0,0
0,42,0,3
0,60,0,26
0,63,0,0
0,79,0,0
0,63,99,13
0,34,95,1
0,35,109,0
0,42,61,0
0,46,95,0
0,54,59,0
0,57,61,0
0,60,87,0
0,60,99,0
0,60,84,0
0,63,99,0
0,63,84,0
0,67,98,0
0,72,99,0
0,79,84,0
0,67,88,1
0,35,0,3
0,42,0,0
0,54,0,0
0,57,0,0
0,46,0,30
0,34,0,28
0,54,19,34
0,54,0,4
0,63,0,19
0,60,0,1
0,67,0,1
0,60,0,5
0,60,0,0
0,63,0,0
0,63,0,0
0,67,0,0
0,72,0,0
0,79,0,0
0,33,93,22
0,35,105,0
0,42,58,0
0,45,81,0
0,49,58,0
0,59,93,0
0,59,88,0
0,62,93,0
0,62,88,0
0,66,92,0
0,71,93,0
0,78,88,0
0,62,92,3
0,35,0,1
0,42,0,0
0,49,0,0
0,59,87,0
0,66,90,0
0,45,0,15
0,66,0,4
0,62,0,5
0,59,0,2
0,33,0,11
0,54,59,3
0,54,0,4
0,59,0,6
0,62,0,0
0,66,0,0
0,71,0,0
0,59,0,47
0,62,0,0
0,78,0,0
0,32,94,39
0,35,105,0
0,42,55,0
0,54,19,0
0,57,55,0
0,58,116,0
0,58,89,0
0,61,116,0
0,61,89,0
0,65,115,0
0,70,116,0
0,77,89,0
0,44,87,1
0,35,0,3
0,42,0,0
0,54,0,0
0,57,0,0
0,61,95,3
0,58,88,1
0,65,97,0
0,44,65,0
0,54,59,0
0,44,0,4
0,54,0,0
0,54,19,0
0,54,0,4
0,32,0,2
0,46,104,6
0,34,58,4
0,35,93,0
0,46,0,0
0,35,0,4
0,34,0,0
0,49,119,4
0,37,89,0
0,44,73,0
0,54,59,0
0,44,0,4
0,54,0,0
0,49,0,1
0,51,119,3
0,35,89,4
0,35,0,4
0,51,0,1
0,53,113,3
0,37,0,17
0,41,78,0
0,54,19,0
0,54,0,4
0,53,0,1
0,51,119,3
0,41,0,17
0,39,89,0
0,51,0,8
0,44,73,0
0,54,59,0
0,39,0,4
0,44,0,0
0,54,0,0
0,58,0,3
0,58,119,4
0,46,72,0
0,61,0,7
0,58,0,14
0,61,121,4
0,46,0,13
0,49,88,0
0,54,19,0
0,54,0,4
0,61,0,21
0,62,122,3
0,49,0,17
0,50,77,3
0,35,89,4
0,35,0,4
0,62,0,14
0,63,124,6
0,50,0,14
0,58,0,4
0,61,0,0
0,65,0,0
0,70,0,0
0,40,93,2
0,44,73,0
0,51,81,0
0,54,59,0
0,40,0,4
0,44,0,0
0,54,0,0
0,63,0,88
0,40,93,4
0,54,19,0
0,40,0,4
0,54,0,0
0,51,0,1
0,65,0,1
0,61,0,2
0,58,0,3
0,44,0,6
0,77,0,1
0,40,85,34
0,40,0,4
0,63,95,39
0,34,97,1
0,35,109,0
0,42,61,0
0,46,102,0
0,54,59,0
0,57,61,0
0,60,90,0
0,60,87,0
0,60,88,0
0,63,87,0
0,63,88,0
0,67,97,0
0,67,87,0
0,72,99,0
0,79,111,0
0,79,88,0
0,35,0,4
0,42,0,0
0,54,0,0
0,57,0,0
0,42,32,92
0,54,19,0
0,42,0,4
0,54,0,0
0,35,73,48
0,42,25,0
0,35,0,4
0,42,0,0
0,40,85,40
0,42,61,0
0,54,59,0
0,40,0,4
0,42,0,0
0,54,0,0
0,34,0,77
0,35,97,15
0,42,32,0
0,45,90,0
0,54,19,0
0,35,0,4
0,42,0,0
0,45,0,0
0,54,0,0
0,46,0,16
0,60,0,18
0,63,0,0
0,67,0,0
0,72,0,0
0,79,0,0
0,67,0,9
0,45,59,1
0,63,0,0
0,60,0,3
0,42,25,1
0,45,0,0
0,42,0,4
0,60,0,26
0,63,0,0
0,79,0,0
0,34,95,14
0,35,109,0
0,42,61,0
0,46,95,0
0,54,59,0
0,57,61,0
0,60,90,0
0,60,87,0
0,60,84,0
0,63,99,0
0,63,87,0
0,63,84,0
0,67,92,0
0,67,87,0
0,72,99,0
0,79,111,0
0,79,84,0
0,35,0,4
0,42,0,0
0,54,0,0
0,57,0,0
0,46,0,30
0,34,0,28
0,54,19,34
0,54,0,4
0,60,0,20
0,63,0,0
0,67,0,0
0,60,0,6
0,60,0,0
0,63,0,0
0,63,0,0
0,67,0,0
0,72,0,0
0,79,0,0
0,79,0,0
0,33,93,22
0,35,105,0
0,42,58,0
0,45,81,0
0,49,58,0
0,59,81,0
0,59,88,0
0,62,81,0
0,62,88,0
0,66,81,0
0,71,93,0
0,78,105,0
0,78,88,0
0,62,97,1
0,66,94,1
0,59,87,1
0,35,0,1
0,42,0,0
0,49,0,0
0,45,0,15
0,62,0,7
0,59,0,4
0,66,0,0
0,33,0,11
0,54,59,3
0,54,0,4
0,59,0,6
0,62,0,0
0,66,0,0
0,71,0,0
0,78,0,0
0,59,0,47
0,62,0,0
0,78,0,0
0,32,94,39
0,35,105,0
0,42,55,0
0,54,19,0
0,57,55,0
0,58,104,0
0,58,84,0
0,61,104,0
0,61,84,0
0,65,104,0
0,70,116,0
0,77,127,0
0,77,84,0
0,44,87,1
0,61,95,2
0,35,0,1
0,42,0,0
0,54,0,0
0,57,0,0
0,58,83,1
0,65,99,0
0,44,65,0
0,54,59,0
0,44,0,4
0,54,0,0
0,54,19,0
0,54,0,4
0,35,93,4
0,35,0,4
0,77,0,21
0,44,73,0
0,54,59,0
0,65,65,0
0,75,89,0
0,44,0,4
0,54,0,0
0,65,0,0
0,65,41,0
0,35,89,4
0,65,0,0
0,35,0,4
0,65,47,12
0,65,0,4
0,54,19,0
0,65,90,0
0,54,0,4
0,65,0,0
0,75,0,10
0,44,73,0
0,54,59,0
0,65,72,0
0,70,87,0
0,44,0,4
0,54,0,0
0,65,0,0
0,54,19,0
0,54,0,4
0,65,43,44
0,35,89,4
0,65,0,0
0,35,0,4
0,58,0,37
0,61,0,0
0,70,0,0
0,58,0,1
0,61,0,0
0,65,0,0
0,70,0,0
0,77,0,0
0,44,73,2
0,54,59,0
0,65,74,0
0,75,86,0
0,44,0,4
0,54,0,0
0,65,0,0
0,65,61,44
0,65,0,4
0,35,97,44
0,54,19,0
0,65,80,0
0,35,0,4
0,54,0,0
0,65,0,0
0,65,0,2
0,61,0,6
0,58,0,2
0,44,0,3
0,32,0,9
0,65,61,22
0,65,0,4
0,66,59,34
0,66,0,4
0,75,0,3
0,63,95,2
0,34,97,1
0,35,109,0
0,42,61,0
0,46,102,0
0,54,59,0
0,57,61,0
0,60,90,0
0,60,99,0
0,60,88,0
0,63,99,0
0,63,88,0
0,65,80,0
0,67,97,0
0,67,87,0
0,72,99,0
0,79,111,0
0,79,88,0
0,35,0,4
0,42,0,0
0,54,0,0
0,57,0,0
0,65,0,0
0,42,32,92
0,54,19,0
0,42,0,4
0,54,0,0
0,35,73,48
0,42,25,0
0,35,0,4
0,42,0,0
0,40,95,40
0,42,61,0
0,54,59,0
0,40,0,4
0,42,0,0
0,54,0,0
0,40,77,28
0,40,0,4
0,45,41,28
0,45,0,4
0,34,0,13
0,35,101,15
0,42,32,0
0,45,96,0
0,54,19,0
0,35,0,4
0,42,0,0
0,45,0,0
0,54,0,0
0,46,0,16
0,45,65,12
0,45,0,4
0,60,0,2
0,63,0,0
0,67,0,0
0,72,0,0
0,79,0,0
0,67,0,9
0,63,0,1
0,60,0,3
0,42,25,1
0,42,0,4
0,45,41,8
0,45,0,4
0,60,0,14
0,63,0,0
0,79,0,0
0,34,95,14
0,35,109,0
0,41,65,0
0,42,61,0
0,46,95,0
0,54,59,0
0,57,61,0
0,60,90,0
0,60,99,0
0,60,84,0
0,63,99,0
0,63,99,0
0,63,84,0
0,67,92,0
0,67,87,0
0,72,99,0
0,79,111,0
0,79,84,0
0,35,0,4
0,41,0,0
0,42,0,0
0,54,0,0
0,57,0,0
0,46,0,30
0,34,0,28
0,40,85,34
0,54,19,0
0,40,0,4
0,54,0,0
0,60,0,4
0,63,0,0
0,67,0,0
0,60,0,22
0,60,0,0
0,63,0,0
0,63,0,0
0,67,0,0
0,72,0,0
0,79,0,0
0,79,0,0
0,35,93,22
0,35,105,0
0,42,58,0
0,47,81,0
0,49,58,0
0,59,90,0
0,59,93,0
0,59,88,0
0,62,94,0
0,62,93,0
0,62,88,0
0,66,81,0
0,71,93,0
0,78,105,0
0,83,88,0
0,66,92,1
0,35,0,3
0,42,0,0
0,49,0,0
0,47,0,15
0,66,0,3
0,62,0,2
0,59,0,5
0,35,0,12
0,54,59,3
0,54,0,4
0,59,0,6
0,62,0,0
0,66,0,0
0,71,0,0
0,78,0,0
0,59,0,47
0,62,0,0
0,83,0,0
0,62,112,24
0,36,97,0
0,58,112,0
0,77,127,0
0,35,107,0
0,40,65,0
0,42,55,0
0,54,19,0
0,57,55,0
0,58,86,0
0,62,86,0
0,65,108,0
0,70,114,0
0,84,86,0
0,48,87,1
0,62,97,2
0,65,95,0
0,35,0,1
0,40,0,0
0,42,0,0
0,54,0,0
0,57,0,0
0,58,90,0
0,44,65,72
0,54,59,0
0,44,0,4
0,54,0,0
0,54,19,92
0,54,0,4
0,44,73,92
0,54,59,0
0,44,0,4
0,54,0,0
0,54,19,92
0,54,0,4
0,44,73,92
0,54,59,0
0,44,0,4
0,54,0,0
0,54,19,92
0,54,0,4
0,44,73,92
0,54,59,0
0,44,0,4
0,54,0,0
0,54,19,0
0,54,0,4
0,70,99,4
0,74,99,8
0,77,108,9
0,81,111,8
0,44,65,16
0,54,59,0
0,44,0,4
0,54,0,0
0,54,19,0
0,54,0,4
0,44,73,0
0,54,59,0
0,44,0,4
0,54,0,0
0,54,19,0
0,54,0,4
0,36,0,10
0,58,0,12
0,62,0,0
0,65,0,0
0,70,0,0
0,77,0,0
0,48,75,2
0,44,73,0
0,54,59,0
0,44,0,0
0,54,0,0
0,35,93,0
0,54,19,0
0,35,0,4
0,54,0,0
0,58,0,23
0,62,0,0
0,84,0,0
0,67,57,16
0,69,57,31
0,40,95,2
0,44,73,0
0,54,59,0
0,40,0,4
0,44,0,0
0,54,0,0
0,67,0,5
0,62,0,9
0,70,62,6
0,69,0,2
0,72,60,3
0,40,67,5
0,70,0,0
0,40,0,2
0,72,0,7
0,74,59,0
0,76,59,1
0,74,0,2
0,35,93,3
0,46,47,0
0,54,19,0
0,35,0,3
0,46,0,0
0,54,0,0
0,48,0,1
0,76,0,1
0,77,58,3
0,58,0,1
0,65,0,4
0,77,0,2
0,79,59,1
0,70,0,24
0,81,0,0
0,81,58,0
0,74,0,2
0,77,0,1
0,79,0,5
0,48,0,5
0,29,102,1
0,35,111,0
0,42,55,0
0,49,65,0
0,54,30,0
0,58,94,0
0,70,94,0
0,79,65,2
0,82,65,0
0,58,110,1
0,62,112,0
0,67,108,0
0,35,0,1
0,42,0,0
0,49,0,0
0,54,0,0
0,81,0,15
0,54,23,33
0,54,0,4
0,40,29,40
0,42,53,0
0,51,49,0
0,54,46,0
0,40,0,4
0,42,0,0
0,51,0,0
0,54,0,0
0,29,0,38
0,27,99,10
0,35,91,0
0,48,99,0
0,54,25,0
0,60,106,0
0,35,0,4
0,54,0,0
0,48,0,8
0,60,0,0
0,40,97,32
0,42,61,0
0,54,28,0
0,55,114,0
0,67,121,0
0,40,0,4
0,42,0,0
0,54,0,0
0,55,0,28
0,67,0,0
0,54,23,20
0,55,104,0
0,67,111,0
0,54,0,4
0,27,0,24
0,55,0,2
0,67,0,0
0,40,19,14
0,42,53,0
0,51,49,0
0,54,44,0
0,40,0,4
0,42,0,0
0,51,0,0
0,54,0,0
0,35,91,48
0,54,25,0
0,55,116,0
0,67,123,0
0,35,0,4
0,54,0,0
0,58,0,9
