track,note,velocity,time
1,38,86,2672
1,52,86,0
1,57,97,0
1,61,86,0
1,38,80,116
1,62,88,34
1,54,89,0
1,57,99,0
1,42,79,192
1,45,69,184
1,52,79,88
1,50,94,178
1,45,80,32
1,38,82,192
1,38,69,114
1,42,68,22
1,45,78,192
1,52,67,78
1,50,83,180
1,45,78,20
1,61,89,66
1,52,92,0
1,57,99,0
1,35,66,0
1,35,72,94
1,62,90,46
1,54,75,0
1,59,88,0
1,38,70,192
1,42,69,182
1,49,75,66
1,47,60,182
1,42,77,0
1,35,62,8
1,35,68,114
1,38,67,10
1,42,79,192
1,49,59,74
1,47,68,190
1,42,81,20
1,62,79,6
1,54,79,0
1,59,88,0
1,40,68,0
1,40,74,106
1,64,86,72
1,55,79,0
1,59,88,0
1,43,80,192
1,47,58,188
1,54,71,0
1,52,66,192
1,47,70,8
1,40,58,0
1,40,59,104
1,43,59,6
1,47,64,192
1,54,66,74
1,52,59,164
1,47,67,362
1,62,85,16
1,59,86,0
1,55,74,0
1,36,70,0
1,36,67,86
1,60,94,54
1,55,80,0
1,64,92,0
1,40,66,192
1,43,57,188
1,48,64,74
1,48,64,98
1,43,67,12
1,66,89,76
1,62,97,0
1,57,83,0
1,33,74,0
1,33,69,98
1,57,82,64
1,64,88,0
1,61,86,0
1,37,63,6
1,40,66,14
1,45,66,96
1,45,70,92
1,33,75,4
1,38,86,8
1,52,86,0
1,57,97,0
1,61,86,0
1,38,80,116
1,62,88,34
1,54,89,0
1,57,99,0
1,42,79,192
1,45,69,184
1,52,79,88
1,50,94,178
1,45,80,32
1,38,82,192
1,38,69,114
1,42,68,22
1,45,78,192
1,52,67,78
1,50,83,180
1,45,78,20
1,61,89,66
1,52,92,0
1,57,99,0
1,35,66,0
1,35,72,94
1,62,90,46
1,54,75,0
1,59,88,0
1,38,70,192
1,42,69,182
1,49,75,66
1,47,60,182
1,42,77,0
1,35,62,8
1,35,68,114
1,38,67,10
1,42,79,192
1,49,59,74
1,47,68,190
1,42,81,20
1,62,79,6
1,54,79,0
1,59,88,0
1,40,68,0
1,40,74,106
1,64,86,72
1,55,79,0
1,59,88,0
1,43,80,192
1,47,58,188
1,54,71,0
1,52,66,192
1,47,70,8
1,40,58,0
1,40,59,104
1,43,59,6
1,47,64,192
1,54,66,74
1,52,59,164
1,47,67,362
1,62,85,16
1,59,86,0
1,55,74,0
1,36,70,0
1,36,67,86
1,60,94,54
1,55,80,0
1,64,92,0
1,40,66,192
1,43,57,188
1,48,64,74
1,48,64,98
1,43,67,12
1,66,89,76
1,62,97,0
1,57,83,0
1,33,74,0
1,33,69,98
1,57,82,64
1,64,88,0
1,61,86,0
1,37,63,6
1,40,66,14
1,45,66,96
1,57,120,86
1,69,111,0
1,45,70,32
1,69,111,192
1,57,113,0
1,33,75,4
1,62,90,8
1,66,96,0
1,57,86,0
1,38,94,0
1,57,90,94
1,66,96,0
1,62,97,0
1,50,97,0
1,57,83,92
1,62,97,0
1,66,96,0
1,57,82,66
1,62,92,0
1,66,100,0
1,57,85,110
1,62,86,0
1,66,92,0
1,71,90,672
1,66,86,0
1,59,66,0
1,71,75,28
1,59,66,0
1,66,77,0
1,71,90,52
1,59,75,0
1,66,89,0
1,59,82,0
1,66,96,0
1,71,92,0
1,35,80,0
1,47,86,0
1,54,75,364
1,62,69,0
1,57,85,0
1,59,90,6
1,35,73,776
1,47,85,0
1,71,110,192
1,64,107,0
1,62,99,12
1,71,107,38
1,64,107,0
1,62,110,0
1,66,92,82
1,62,94,0
1,57,85,0
1,50,120,1056
1,62,110,72
1,59,92,0
1,67,99,0
1,57,69,32
1,62,73,0
1,66,92,0
1,67,82,36
1,62,71,0
1,59,58,0
1,57,67,44
1,66,86,0
1,62,80,0
1,50,110,4
1,71,97,96
1,64,120,0
1,62,92,192
1,50,101,20
1,71,107,96
1,64,117,0
1,62,101,192
1,71,99,46
1,64,110,0
1,47,82,96
1,71,83,60
1,62,92,0
1,47,79,576
1,62,83,134
1,66,59,26
1,65,117,0
1,69,101,0
1,62,73,28
1,35,72,0
1,64,99,0
1,69,79,0
1,47,72,96
1,62,99,0
1,59,76,68
1,71,88,0
1,66,86,0
1,47,31,0
1,74,88,96
1,62,94,0
1,69,99,0
1,35,60,192
1,47,62,64
1,52,35,1150
1,64,72,96
1,59,74,0
1,52,47,152
1,64,72,38
1,59,66,0
1,52,24,152
1,52,79,430
1,64,78,64
1,59,90,0
1,52,78,168
1,38,83,112
1,36,94,0
1,48,85,0
1,48,41,8
1,55,59,64
1,60,74,0
1,62,66,66
1,72,92,0
1,60,86,0
1,48,92,152
1,72,79,68
1,60,83,0
1,67,85,0
1,48,51,14
1,61,52,122
1,57,51,0
1,45,62,0
1,48,50,0
1,69,72,40
1,64,75,0
1,57,86,116
1,52,76,0
1,61,75,0
1,50,94,180
1,57,75,34
1,62,71,4
1,54,60,2
1,57,72,32
1,54,62,2
1,62,74,0
1,50,97,82
1,47,79,0
1,57,80,8
1,61,54,2
1,52,79,4
1,62,66,22
1,59,66,0
1,54,54,6
1,62,68,6
1,59,76,4
1,54,66,0
1,47,63,74
1,62,73,4
1,55,62,0
1,59,71,4
1,40,67,6
1,52,54,1058
1,55,64,10
1,62,71,0
1,59,66,0
1,55,62,80
1,52,71,8
1,62,76,26
1,57,66,4
1,66,73,0
1,45,65,10
1,61,68,56
1,57,65,2
1,64,78,2
1,62,90,356
1,66,96,0
1,57,86,0
1,38,94,0
1,57,90,94
1,66,96,0
1,62,97,0
1,50,97,0
1,57,83,92
1,62,97,0
1,66,96,0
1,57,82,66
1,62,92,0
1,66,100,0
1,57,85,110
1,62,86,0
1,66,92,0
1,71,90,672
1,66,86,0
1,59,66,0
1,71,75,28
1,59,66,0
1,66,77,0
1,71,90,52
1,59,75,0
1,66,89,0
1,59,82,0
1,66,96,0
1,71,92,0
1,35,80,0
1,47,86,0
1,54,75,364
1,62,69,0
1,57,85,0
1,59,90,6
1,35,73,776
1,47,85,0
1,71,110,192
1,64,107,0
1,62,99,12
1,71,107,38
1,64,107,0
1,62,110,0
1,66,92,82
1,62,94,0
1,57,85,0
1,50,120,1056
1,62,110,72
1,59,92,0
1,67,99,0
1,57,69,32
1,62,73,0
1,66,92,0
1,67,82,36
1,62,71,0
1,59,58,0
1,57,67,44
1,66,86,0
1,62,80,0
1,50,110,4
1,71,97,96
1,64,120,0
1,62,92,192
1,50,101,20
1,71,107,96
1,64,117,0
1,62,101,192
1,71,99,46
1,64,110,0
1,47,82,96
1,71,83,60
1,62,92,0
1,47,79,576
1,62,83,134
1,66,59,26
1,65,117,0
1,69,101,0
1,62,73,28
1,35,72,0
1,64,99,0
1,69,79,0
1,47,72,96
1,62,99,0
1,59,76,68
1,71,88,0
1,66,86,0
1,47,31,0
1,74,88,96
1,62,94,0
1,69,99,0
1,35,60,192
1,47,62,64
1,52,35,1150
1,64,72,96
1,59,74,0
1,52,47,152
1,64,72,38
1,59,66,0
1,52,24,152
1,52,79,430
1,64,78,64
1,59,90,0
1,52,78,168
1,38,83,112
1,36,94,0
1,48,85,0
1,48,41,8
1,55,59,64
1,60,74,0
1,62,66,66
1,72,92,0
1,60,86,0
1,48,92,152
1,72,79,68
1,60,83,0
1,67,85,0
1,48,51,14
1,61,52,122
1,57,51,0
1,45,62,0
1,48,50,0
1,69,72,40
1,64,75,0
1,57,86,116
1,52,76,0
1,61,75,0
1,50,94,180
1,57,75,34
1,62,71,4
1,54,60,2
1,57,72,32
1,54,62,2
1,62,74,0
1,50,97,82
1,47,79,0
1,57,80,8
1,61,54,2
1,52,79,4
1,62,66,22
1,59,66,0
1,54,54,6
1,62,68,6
1,59,76,4
1,54,66,0
1,47,63,74
1,62,73,4
1,55,62,0
1,59,71,4
1,40,67,6
1,52,54,1058
1,55,64,10
1,62,71,0
1,59,66,0
1,55,62,80
1,52,71,8
1,62,76,26
1,57,66,4
1,66,73,0
1,45,65,10
1,61,68,56
1,57,65,2
1,64,78,2
1,103,83,114
1,101,69,44
1,100,62,18
1,98,64,18
1,96,58,18
1,95,60,16
1,93,53,14
1,91,56,12
1,89,55,10
1,88,53,12
1,86,57,2
1,84,50,14
1,83,53,12
1,81,49,14
1,79,53,12
1,77,47,16
1,76,49,4
1,59,85,136
1,62,79,0
1,55,76,0
1,64,86,42
1,55,73,0
1,60,85,0
1,48,57,288
1,48,47,134
1,57,16,38
1,69,41,0
1,48,37,42
1,69,50,24
1,57,43,0
1,48,18,192
1,48,40,148
1,48,25,26
1,48,31,150
1,48,46,128
1,55,75,34
1,64,78,0
1,60,88,0
1,62,66,26
1,55,66,0
1,59,62,0
1,62,80,64
1,59,83,0
1,55,80,0
1,45,65,0
1,55,73,54
1,60,85,0
1,64,82,0
1,45,33,46
1,45,25,116
1,69,78,68
1,57,69,0
1,45,18,96
1,69,68,16
1,57,71,0
1,57,90,56
1,69,85,0
1,57,76,74
1,69,74,0
1,57,79,52
1,69,83,0
1,45,33,96
1,69,71,116
1,57,74,0
1,45,14,72
1,45,25,10
1,55,62,614
1,64,66,0
1,60,72,0
1,55,52,46
1,55,85,34
1,60,92,0
1,64,82,0
1,65,86,66
1,62,117,0
1,57,85,0
1,72,39,62
1,84,53,0
1,74,88,30
1,86,92,0
1,84,60,62
1,72,63,0
1,74,83,56
1,86,79,0
1,74,70,110
1,86,64,0
1,79,74,72
1,84,86,0
1,72,79,0
1,86,86,50
1,74,80,0
1,81,88,0
1,84,66,50
1,79,68,0
1,72,64,0
1,86,92,38
1,81,86,0
1,74,85,0
1,86,48,82
1,74,62,0
1,81,66,0
1,84,82,70
1,72,83,0
1,79,88,0
1,86,83,70
1,81,83,0
1,74,80,0
1,46,75,384
1,65,79,0
1,57,85,0
1,60,94,0
1,65,85,14
1,58,81,0
1,62,104,0
1,46,40,102
1,46,37,112
1,58,51,60
1,65,58,0
1,62,83,0
1,46,44,114
1,58,77,36
1,62,104,0
1,65,71,0
1,62,74,54
1,58,42,0
1,65,48,0
1,43,75,56
1,67,70,0
1,59,70,0
1,62,92,0
1,55,13,106
1,55,34,2
1,55,53,48
1,84,79,16
1,72,80,0
1,55,36,142
1,72,79,16
1,84,78,0
1,84,43,106
1,72,45,0
1,60,110,0
1,84,94,66
1,72,90,0
1,60,92,62
1,55,29,0
1,72,90,6
1,84,86,0
1,53,104,90
1,62,117,0
1,58,100,0
1,63,109,46
1,55,99,0
1,58,86,0
1,53,101,304
1,58,100,0
1,62,117,0
1,55,94,36
1,63,109,0
1,58,86,0
1,55,101,474
1,58,92,0
1,63,119,0
1,60,97,48
1,63,104,0
1,56,96,0
1,64,117,830
1,59,107,0
1,55,107,0
1,69,90,62
1,57,101,0
1,69,94,206
1,57,110,0
1,57,94,42
1,69,88,0
1,62,110,1760
1,57,94,0
1,66,96,0
1,59,54,36
1,54,51,0
1,62,68,0
1,67,60,42
1,64,62,0
1,59,55,0
1,54,64,54
1,59,57,0
1,62,64,0
1,66,86,16
1,62,94,0
1,57,86,0
1,64,88,32
1,61,86,0
1,57,83,0
1,62,59,66
1,57,57,0
1,66,56,0
1,59,45,36
1,54,51,0
1,62,68,0
1,67,60,42
1,64,62,0
1,59,55,0
1,54,64,54
1,59,57,0
1,62,64,0
1,57,83,16
1,61,86,0
1,64,88,0
1,57,92,12738
1,60,110,0
1,65,97,0
1,65,92,54
1,62,97,0
1,57,86,0
1,62,97,36
1,55,92,0
1,65,83,0
1,58,92,0
1,53,94,60
1,58,86,0
1,62,85,0
1,64,94,24
1,60,94,0
1,55,79,0
1,65,99,36
1,57,92,0
1,60,99,0
1,57,79,44
1,62,90,0
1,60,85,0
1,65,75,0
1,65,73,54
1,55,90,0
1,58,86,0
1,62,85,0
1,58,89,36
1,65,75,0
1,62,83,0
1,60,90,24
1,55,75,0
1,64,80,0
1,57,92,120
1,60,110,0
1,65,97,0
1,65,92,0
1,62,97,0
1,57,86,0
1,62,97,0
1,55,92,0
1,65,83,0
1,58,92,0
1,53,94,0
1,58,86,0
1,62,85,0
1,64,94,0
1,60,94,0
1,55,79,0
1,65,99,0
1,57,92,0
1,60,99,0
1,57,79,0
1,62,90,0
1,60,85,0
1,65,75,0
1,65,73,0
1,55,90,0
1,58,86,0
1,62,85,0
1,58,89,0
1,65,75,0
1,62,83,0
1,60,90,0
1,55,75,0
1,64,80,0
2,38,113,2652
2,38,99,100
2,42,96,288
2,45,97,4
2,52,86,6
2,50,113,0
2,50,110,36
2,45,97,2
2,42,86,192
2,38,90,10
2,38,101,60
2,42,86,2
2,45,88,192
2,52,79,6
2,50,107,0
2,50,104,30
2,45,101,288
2,42,92,8
2,35,92,6
2,35,92,62
2,38,99,288
2,42,86,174
2,49,96,2
2,47,82,0
2,47,99,4
2,42,100,10
2,38,88,22
2,35,92,2
2,35,97,58
2,38,94,4
2,42,77,192
2,49,96,88
2,47,72,0
2,47,88,28
2,42,89,288
2,38,90,12
2,40,101,96
2,40,94,84
2,43,94,288
2,39,35,186
2,47,76,0
2,54,92,82
2,52,76,0
2,52,94,12
2,47,92,288
2,43,83,4
2,40,101,96
2,40,104,62
2,43,94,288
2,39,40,166
2,47,94,0
2,54,86,62
2,52,71,0
2,52,101,10
2,47,92,0
2,43,79,8
2,36,92,96
2,36,90,54
2,40,90,288
2,43,88,0
2,48,104,96
2,48,94,72
2,43,99,288
2,40,97,6
2,33,97,2
2,33,94,62
2,37,96,288
2,40,88,170
2,45,104,94
2,45,99,60
2,40,110,288
2,37,109,16
2,38,113,14
2,38,99,100
2,42,96,288
2,45,97,4
2,52,86,6
2,50,113,0
2,50,110,36
2,45,97,2
2,42,86,192
2,38,90,10
2,38,101,60
2,42,86,2
2,45,88,192
2,52,79,6
2,50,107,0
2,50,104,30
2,45,101,288
2,42,92,8
2,35,92,6
2,35,92,62
2,38,99,288
2,42,86,174
2,49,96,2
2,47,82,0
2,47,99,4
2,42,100,10
2,38,88,22
2,35,92,2
2,35,97,58
2,38,94,4
2,42,77,192
2,49,96,88
2,47,72,0
2,47,88,28
2,42,89,288
2,38,90,12
2,40,101,96
2,40,94,84
2,43,94,288
2,39,35,186
2,47,76,0
2,54,92,82
2,52,76,0
2,52,94,12
2,47,92,288
2,43,83,4
2,40,101,96
2,40,104,62
2,43,94,288
2,39,40,166
2,47,94,0
2,54,86,62
2,52,71,0
2,52,101,10
2,47,92,0
2,43,79,8
2,36,92,96
2,36,90,54
2,40,90,288
2,43,88,0
2,48,104,96
2,48,94,72
2,43,99,288
2,40,97,6
2,33,97,2
2,33,94,62
2,37,96,288
2,40,88,170
2,45,104,94
2,45,99,60
2,40,110,288
2,37,109,16
2,38,110,14
2,38,110,76
2,38,110,106
2,33,110,96
2,30,110,0
2,35,110,10
2,38,110,12
2,38,110,72
2,38,110,86
2,33,110,38
2,35,110,2
2,33,110,14
2,38,110,12
2,38,110,82
2,38,110,90
2,33,110,4
2,35,110,96
2,38,110,18
2,38,110,88
2,38,110,100
2,33,110,32
2,35,110,96
2,33,110,8
2,35,110,96
2,35,110,72
2,35,110,82
2,30,110,2
2,33,110,96
2,35,110,8
2,35,110,76
2,35,110,78
2,30,110,6
2,33,110,14
2,30,110,96
2,35,110,12
2,35,110,74
2,35,110,80
2,30,110,96
2,33,110,90
2,35,110,8
2,35,110,90
2,35,110,88
2,30,110,192
2,33,110,94
2,35,110,66
2,38,110,8
2,38,110,84
2,38,110,94
2,33,110,96
2,35,110,86
2,38,110,86
2,38,110,94
2,38,110,90
2,33,110,8
2,35,110,2
2,33,110,96
2,38,110,2
2,38,110,82
2,38,110,86
2,33,110,2
2,35,110,96
2,38,110,2
2,38,110,100
2,38,110,98
2,33,110,14
2,35,110,8
2,33,110,96
2,35,110,12
2,35,110,82
2,35,110,86
2,30,110,96
2,33,110,86
2,35,110,4
2,35,110,86
2,35,110,90
2,30,110,16
2,33,110,0
2,30,110,96
2,35,110,6
2,35,110,92
2,35,110,102
2,30,110,96
2,33,110,88
