track,note,velocity,time
0,41,121,956
0,42,123,20
0,46,106,0
0,46,115,0
0,57,112,0
0,60,102,0
0,65,111,0
0,46,81,0
0,60,94,0
0,57,92,0
0,46,81,0
0,42,122,16
0,46,122,48
0,46,80,0
0,46,77,0
0,42,120,48
0,46,72,0
0,46,79,0
0,42,124,16
0,42,119,4
0,46,118,0
0,58,110,0
0,62,112,0
0,65,108,0
0,46,73,0
0,62,107,0
0,58,90,0
0,46,74,0
0,42,119,16
0,42,116,48
0,46,112,0
0,58,118,0
0,62,118,0
0,65,112,0
0,46,81,0
0,58,99,0
0,62,107,0
0,46,67,0
0,42,123,16
0,42,109,48
0,46,77,0
0,48,122,0
0,46,109,4
0,58,105,0
0,62,111,0
0,65,104,0
0,46,62,0
0,46,125,0
0,42,121,16
0,42,117,48
0,46,70,0
0,46,79,0
0,42,110,16
0,42,124,28
0,53,109,0
0,46,71,0
0,46,80,0
0,42,114,16
0,42,116,4
0,46,112,0
0,57,112,0
0,60,118,0
0,65,100,0
0,46,65,0
0,60,99,0
0,57,100,0
0,70,113,0
0,46,66,0
0,70,119,0
0,42,105,16
0,46,121,4
0,46,73,0
0,46,113,8
0,57,113,0
0,60,116,0
0,65,110,0
0,46,79,0
0,60,102,0
0,57,99,0
0,70,120,0
0,42,122,4
0,46,75,0
0,46,79,0
0,70,121,0
0,42,107,16
0,42,106,12
0,46,109,0
0,58,114,0
0,62,116,0
0,65,119,0
0,46,68,0
0,62,109,0
0,58,96,0
0,46,74,0
0,72,111,0
0,42,113,16
0,42,119,48
0,46,64,0
0,46,64,0
0,70,125,0
0,42,121,16
0,42,120,48
0,46,71,0
0,46,64,0
0,77,127,0
0,42,116,16
0,42,114,20
0,46,80,0
0,79,115,0
0,46,68,0
0,82,118,0
0,42,120,16
0,42,107,0
0,46,109,0
0,46,77,0
0,48,124,4
0,46,69,0
0,42,109,16
0,42,117,12
0,43,112,0
0,43,115,0
0,55,101,0
0,57,106,0
0,60,105,0
0,46,79,0
0,60,94,0
0,57,93,0
0,46,68,0
0,42,121,16
0,46,124,48
0,46,80,0
0,46,63,0
0,42,107,48
0,46,81,0
0,46,68,0
0,42,114,16
0,42,112,4
0,43,101,0
0,55,110,0
0,58,104,0
0,62,115,0
0,46,72,0
0,62,100,0
0,58,109,0
0,46,79,0
0,42,108,16
0,42,117,48
0,43,101,0
0,55,113,0
0,58,111,0
0,62,110,0
0,46,68,0
0,58,90,0
0,62,90,0
0,46,75,0
0,42,121,16
0,42,111,8
0,46,67,0
0,43,116,28
0,55,108,0
0,58,117,0
0,62,111,0
0,46,76,0
0,42,124,16
0,42,122,48
0,46,66,0
0,46,66,0
0,42,106,16
0,42,119,28
0,55,119,0
0,46,76,0
0,46,71,0
0,42,112,16
0,40,121,8
0,42,120,0
0,43,120,0
0,43,102,0
0,55,114,0
0,57,101,0
0,60,114,0
0,46,77,0
0,72,75,0
0,60,98,0
0,57,104,0
0,70,76,16
0,43,105,12
0,46,78,0
0,40,118,16
0,42,115,0
0,72,78,12
0,46,105,4
0,46,81,0
0,74,80,0
0,72,81,16
0,43,113,8
0,43,116,0
0,55,113,0
0,57,108,0
0,60,101,0
0,46,74,0
0,60,102,0
0,57,105,0
0,74,83,12
0,40,124,48
0,42,107,0
0,46,68,0
0,75,85,0
0,74,86,16
0,46,63,0
0,40,109,16
0,42,121,0
0,75,88,12
0,42,111,20
0,43,109,0
0,43,117,0
0,55,101,0
0,58,115,0
0,62,119,0
0,46,76,0
0,77,90,0
0,62,91,0
0,58,103,0
0,60,115,0
0,75,91,16
0,46,74,0
0,42,124,16
0,77,93,12
0,40,113,28
0,42,118,0
0,46,72,0
0,79,95,0
0,58,127,0
0,77,97,16
0,31,122,4
0,46,65,0
0,55,126,0
0,40,117,16
0,42,105,0
0,79,98,12
0,42,109,12
0,33,116,0
0,46,71,0
0,81,100,0
0,79,102,16
0,34,123,12
0,46,62,0
0,77,114,0
0,42,106,16
0,81,103,12
0,40,108,12
0,40,121,12
0,42,124,0
0,36,116,0
0,46,72,0
0,82,105,0
0,79,127,0
0,81,107,44
0,34,124,4
0,46,67,0
0,82,127,0
0,40,116,16
0,42,115,0
0,82,108,12
0,40,122,12
0,42,109,0
0,31,111,0
0,46,68,0
0,84,110,0
0,82,112,16
0,34,109,0
0,46,68,0
0,82,127,0
0,40,111,16
0,42,122,0
0,84,114,12
0,36,119,4
0,42,113,0
0,69,70,0
0,70,75,0
0,36,119,0
0,55,117,0
0,58,112,0
0,62,115,0
0,46,67,0
0,87,115,0
0,58,107,0
0,46,79,0
0,69,68,16
0,70,88,0
0,42,111,48
0,69,98,0
0,70,85,0
0,46,69,0
0,48,112,20
0,46,74,0
0,36,108,16
0,69,78,0
0,70,74,0
0,40,111,48
0,42,122,0
0,69,76,0
0,70,89,0
0,48,105,0
0,46,68,0
0,46,77,0
0,69,75,16
0,54,89,0
0,42,105,48
0,69,86,0
0,54,80,0
0,70,89,0
0,55,115,0
0,60,111,0
0,63,108,0
0,46,68,0
0,58,103,0
0,36,111,8
0,46,78,0
0,36,119,16
0,69,64,0
0,54,85,0
0,42,120,4
0,69,79,0
0,54,79,0
0,70,74,0
0,36,105,0
0,55,119,0
0,60,101,0
0,63,105,0
0,46,75,0
0,63,103,0
0,46,76,0
0,69,66,16
0,70,91,0
0,36,111,48
0,42,112,0
0,69,90,0
0,70,86,0
0,46,65,0
0,48,107,20
0,46,80,0
0,69,61,16
0,70,83,0
0,40,106,4
0,42,122,0
0,69,65,0
0,70,81,0
0,48,112,0
0,46,79,0
0,62,93,0
0,43,117,12
0,46,81,0
0,69,71,16
0,46,111,0
0,69,85,0
0,70,93,0
0,39,113,0
0,46,66,0
0,43,112,12
0,46,78,0
0,69,64,16
0,36,117,4
0,42,106,0
0,69,67,0
0,70,81,0
0,36,112,0
0,55,114,0
0,58,100,0
0,62,108,0
0,46,75,0
0,58,90,0
0,46,71,0
0,69,65,16
0,70,93,0
0,42,106,48
0,69,85,0
0,70,91,0
0,46,73,0
0,48,106,20
0,46,78,0
0,36,110,16
0,69,68,0
0,70,88,0
0,40,123,0
0,42,112,0
0,69,63,0
0,70,90,0
0,48,116,0
0,46,70,0
0,86,120,0
0,46,78,0
0,69,69,16
0,54,83,0
0,42,111,20
0,69,86,0
0,54,90,0
0,70,75,0
0,55,104,0
0,60,110,0
0,63,107,0
0,46,70,0
0,36,123,48
0,46,66,0
0,36,107,16
0,69,61,0
0,54,81,0
0,42,114,12
0,69,74,0
0,54,76,0
0,70,83,0
0,24,115,0
0,46,67,0
0,82,120,0
0,46,66,0
0,69,73,16
0,70,85,0
0,36,107,20
0,42,107,0
0,69,89,0
0,70,93,0
0,26,119,0
0,46,64,0
0,46,64,0
0,69,66,16
0,70,79,0
0,40,108,4
0,42,124,0
0,69,61,0
0,70,80,0
0,28,109,0
0,55,100,0
0,60,103,0
0,63,108,0
0,46,62,0
0,79,121,0
0,55,101,0
0,46,75,0
0,69,69,16
0,46,106,8
0,69,87,0
0,70,78,0
0,29,113,0
0,46,80,0
0,46,72,0
0,69,71,16
0,36,121,4
0,42,124,0
0,69,67,0
0,70,74,0
0,32,121,0
0,56,110,0
0,60,116,0
0,63,110,0
0,46,78,0
0,89,121,0
0,56,103,0
0,70,117,0
0,46,67,0
0,87,120,0
0,70,127,0
0,69,68,16
0,70,89,0
0,42,123,8
0,69,92,0
0,70,81,0
0,46,75,0
0,86,118,0
0,32,111,8
0,46,79,0
0,84,117,0
0,70,127,0
0,36,119,16
0,69,79,0
0,70,88,0
0,40,105,8
0,42,111,0
0,69,80,0
0,70,78,0
0,46,77,0
0,87,115,0
0,46,70,0
0,86,114,0
0,70,127,0
0,69,69,16
0,54,90,0
0,42,112,8
0,69,98,0
0,54,84,0
0,70,83,0
0,32,116,0
0,46,79,0
0,84,112,0
0,46,69,0
0,82,111,0
0,72,119,0
0,36,107,16
0,69,63,0
0,54,86,0
0,42,105,0
0,69,64,0
0,54,88,0
0,70,82,0
0,56,108,0
0,60,119,0
0,63,113,0
0,46,75,0
0,86,109,0
0,46,67,0
0,84,108,0
0,69,77,16
0,70,80,0
0,36,124,4
0,42,115,0
0,69,94,0
0,70,83,0
0,29,121,0
0,46,79,0
0,82,106,0
0,70,115,0
0,32,114,8
0,46,63,0
0,81,105,0
0,69,68,16
0,70,80,0
0,40,121,4
0,42,113,0
0,69,76,0
0,70,89,0
0,36,116,0
0,46,71,0
0,84,103,0
0,55,92,0
0,34,111,0
0,46,68,0
0,82,102,0
0,69,75,16
0,46,112,8
0,69,84,0
0,70,87,0
0,32,115,0
0,46,76,0
0,81,100,0
0,31,105,8
0,46,79,0
0,79,99,0
0,69,73,16
0,36,105,4
0,42,117,0
0,69,63,0
0,70,91,0
0,29,124,0
0,41,116,0
0,46,72,0
0,82,97,0
0,53,99,0
0,41,114,8
0,60,118,0
0,63,106,0
0,65,107,0
0,46,78,0
0,81,96,0
0,65,116,0
0,77,124,0
0,69,73,16
0,70,83,0
0,42,124,8
0,69,100,0
0,70,81,0
0,46,74,0
0,79,94,0
0,29,109,8
0,41,113,0
0,46,62,0
0,77,93,0
0,36,109,16
0,69,74,0
0,70,91,0
0,40,112,8
0,42,105,0
0,69,78,0
0,70,74,0
0,41,123,0
0,60,117,0
0,63,117,0
0,65,102,0
0,46,65,0
0,79,91,0
0,65,119,0
0,77,127,0
0,46,69,0
0,77,90,0
0,69,61,16
0,54,85,0
0,42,108,8
0,69,84,0
0,54,86,0
0,70,83,0
0,29,119,0
0,41,101,0
0,46,66,0
0,75,88,0
0,46,70,0
0,74,87,0
0,36,118,16
0,69,70,0
0,54,76,0
0,42,110,8
0,69,61,0
0,54,81,0
0,70,83,0
0,29,120,0
0,41,106,0
0,46,81,0
0,75,85,0
0,60,114,8
0,63,100,0
0,65,101,0
0,46,64,0
0,74,84,0
0,69,67,16
0,70,77,0
0,36,113,8
0,42,116,0
0,69,100,0
0,70,80,0
0,41,115,0
0,46,76,0
0,72,82,0
0,65,127,0
0,77,127,0
0,29,107,8
0,41,104,0
0,46,80,0
0,70,81,0
0,65,127,0
0,77,116,0
0,69,67,16
0,70,78,0
0,40,113,8
0,42,120,0
0,69,77,0
0,70,82,0
0,41,106,0
0,60,113,0
0,63,100,0
0,65,106,0
0,46,71,0
0,72,79,0
0,67,127,0
0,79,126,0
0,38,109,8
0,46,77,0
0,70,78,0
0,70,127,0
0,82,127,0
0,69,76,16
0,46,124,8
0,69,102,0
0,70,81,0
0,29,110,0
0,46,72,0
0,69,76,0
0,33,124,8
0,46,81,0
0,67,75,0
0,67,121,0
0,79,127,0
0,69,69,16
0,36,122,4
0,42,120,0
0,69,66,0
0,70,92,0
0,34,118,0
0,53,100,0
0,58,109,0
0,62,119,0
0,46,64,0
0,58,97,0
0,65,73,0
0,70,117,0
0,82,115,0
0,60,123,0
0,46,67,0
0,58,96,0
0,69,72,16
0,70,82,0
0,42,111,28
0,69,91,0
0,70,83,0
0,46,64,0
0,62,126,0
0,34,122,20
0,46,68,0
0,58,84,0
0,36,105,16
0,69,78,0
0,70,75,0
0,40,109,12
0,42,118,0
0,69,69,0
0,70,77,0
0,46,68,0
0,62,113,0
0,46,70,0
0,69,72,16
0,54,81,0
0,42,106,28
0,69,86,0
0,54,81,0
0,70,83,0
0,46,80,0
0,60,121,0
0,34,117,4
0,46,71,0
0,53,90,0
0,62,127,0
0,36,115,16
0,69,61,0
0,54,88,0
0,42,108,4
0,69,62,0
0,54,83,0
0,70,77,0
0,34,114,0
0,46,80,0
0,55,82,0
0,46,80,0
0,58,85,0
0,69,73,16
0,70,78,0
0,36,124,48
0,42,123,0
0,69,85,0
0,70,88,0
0,46,75,0
0,58,98,0
0,46,74,0
0,55,80,0
0,69,63,16
0,70,84,0
0,40,120,4
0,42,112,0
0,69,70,0
0,70,74,0
0,29,115,0
0,46,64,0
0,60,96,0
0,31,122,4
0,46,72,0
0,60,92,0
0,69,63,16
0,46,124,0
0,69,85,0
0,70,82,0
0,34,107,0
0,46,64,0
0,58,94,0
0,31,117,12
0,46,75,0
0,55,97,0
0,69,76,16
0,36,123,12
0,42,115,0
0,69,69,0
0,70,78,0
0,34,115,0
0,53,109,0
0,57,109,0
0,60,112,0
0,46,79,0
0,58,85,0
0,46,74,0
0,58,87,0
0,69,62,16
0,70,93,0
0,42,115,8
0,69,87,0
0,70,76,0
0,46,72,0
0,34,119,20
0,53,104,0
0,57,101,0
0,60,113,0
0,46,74,0
0,58,91,0
0,36,122,16
0,69,76,0
0,70,75,0
0,40,120,12
0,42,123,0
0,69,65,0
0,70,86,0
0,46,73,0
0,46,81,0
0,69,69,16
0,54,92,0
0,42,105,48
0,69,87,0
0,54,93,0
0,70,74,0
0,53,101,0
0,58,109,0
0,62,119,0
0,46,62,0
0,34,122,48
0,46,66,0
0,53,84,0
0,36,109,16
0,69,75,0
0,54,78,0
0,42,113,4
0,69,79,0
0,54,79,0
0,70,76,0
0,34,107,0
0,46,65,0
0,55,94,0
0,31,111,4
0,46,71,0
0,58,85,0
0,69,64,16
0,70,85,0
0,36,106,12
0,42,113,0
0,69,85,0
0,70,92,0
0,34,124,0
0,46,73,0
0,58,88,0
0,46,79,0
0,55,98,0
0,69,75,16
0,70,92,0
0,40,119,4
0,42,115,0
0,69,63,0
0,70,79,0
0,36,116,0
0,46,63,0
0,60,89,0
0,34,111,12
0,46,78,0
0,60,82,0
0,69,65,16
0,46,115,0
0,69,97,0
0,70,92,0
0,31,109,0
0,53,105,0
0,46,80,0
0,58,91,0
0,29,119,12
0,46,73,0
0,55,79,0
0,60,127,0
0,69,69,16
0,36,114,4
0,42,123,0
0,69,63,0
0,70,86,0
0,31,119,0
0,55,109,0
0,58,104,0
0,62,107,0
0,46,75,0
0,58,85,0
0,62,115,0
0,46,73,0
0,58,83,0
0,69,75,16
0,70,82,0
0,42,110,28
0,69,91,0
0,70,88,0
0,46,62,0
0,62,126,0
0,31,111,20
0,46,71,0
0,58,88,0
0,36,108,16
0,69,72,0
0,70,89,0
0,40,107,12
0,42,124,0
0,69,77,0
0,70,80,0
0,46,64,0
0,62,121,0
0,46,63,0
0,69,79,16
0,54,74,0
0,42,113,28
0,69,87,0
0,54,86,0
0,70,85,0
0,46,69,0
0,62,118,0
0,31,112,4
0,46,65,0
0,53,93,0
0,60,114,0
0,36,111,16
0,69,73,0
0,54,84,0
0,42,110,4
0,69,67,0
0,54,78,0
0,70,92,0
0,46,62,0
0,55,96,0
0,31,107,4
0,46,70,0
0,58,84,0
0,58,126,0
0,69,70,16
0,70,80,0
0,36,115,12
0,42,117,0
0,69,97,0
0,70,75,0
0,29,115,0
0,46,80,0
0,58,92,0
0,31,113,12
0,46,64,0
0,55,96,0
0,69,61,16
0,70,91,0
0,40,108,4
0,42,105,0
0,69,62,0
0,70,91,0
0,34,110,0
0,46,79,0
0,60,98,0
0,31,107,12
0,46,77,0
0,60,90,0
0,69,72,16
0,46,124,0
0,69,103,0
0,70,93,0
0,29,114,0
0,46,66,0
0,58,81,0
0,31,123,12
0,46,64,0
0,55,89,0
0,69,67,16
0,36,121,4
0,42,109,0
0,69,80,0
0,70,77,0
0,31,117,0
0,55,113,0
0,58,117,0
0,60,113,0
0,46,68,0
0,58,83,0
0,46,73,0
0,58,91,0
0,69,67,16
0,70,77,0
0,42,124,48
0,69,103,0
0,70,90,0
0,46,73,0
0,31,115,20
0,58,105,0
0,60,105,0
0,65,118,0
0,46,64,0
0,58,89,0
0,36,124,16
0,69,70,0
0,70,74,0
0,40,111,12
0,42,111,0
0,69,77,0
0,70,78,0
0,46,77,0
0,46,76,0
0,69,69,16
0,54,80,0
0,42,108,48
0,69,89,0
0,54,85,0
0,70,85,0
0,55,107,0
0,58,114,0
0,62,105,0
0,46,73,0
0,31,116,48
0,46,73,0
0,53,89,0
0,36,107,16
0,69,72,0
0,54,82,0
0,42,115,4
0,69,62,0
