track,note,velocity,time
2,61,110,3168
2,61,110,2
2,61,110,2
2,61,110,2
2,61,110,2
2,61,110,2
2,63,110,2
2,65,110,2
2,68,110,2
2,61,110,98
2,61,110,2
2,61,110,2
2,61,110,2
2,63,110,2
2,65,110,2
2,68,110,2
2,70,110,2
2,72,110,0
2,70,110,0
2,68,110,0
2,70,110,2
2,68,110,2
2,68,110,32
2,65,110,0
2,63,110,0
2,65,110,0
2,61,110,674
2,61,110,2
2,61,110,2
2,61,110,2
2,63,110,2
2,65,110,2
2,68,110,2
2,61,110,98
2,61,110,2
2,61,110,2
2,63,110,2
2,65,110,2
2,68,110,0
2,70,110,2
2,72,110,2
2,70,110,2
2,70,110,32
2,68,110,2
2,61,110,32
2,65,110,0
2,63,110,2
2,65,110,0
2,58,110,242
2,56,110,0
2,56,110,2
2,58,110,48
2,60,110,2
2,61,110,2
2,65,110,2
2,66,110,2
2,66,110,32
2,66,110,32
2,65,110,0
2,65,110,2
2,65,110,2
2,63,110,0
2,63,110,2
2,65,110,0
2,66,110,386
2,66,110,2
2,66,110,2
2,66,110,2
2,66,110,2
2,68,110,0
2,66,110,2
2,68,110,2
2,66,110,2
2,65,110,0
2,63,110,2
2,65,110,2
2,63,110,2
2,61,110,0
2,63,110,0
2,66,110,32
2,66,110,2
2,66,110,2
2,66,110,2
2,66,110,2
2,66,110,2
2,66,110,2
2,65,110,2
2,63,110,2
2,65,110,2
2,63,110,0
2,65,110,0
2,61,110,290
2,61,110,2
2,66,110,2
2,66,110,2
2,66,110,2
2,68,110,2
2,70,110,2
2,70,110,2
2,70,110,2
2,70,110,2
2,69,110,2
2,69,110,2
2,69,110,2
2,70,110,2
2,72,110,2
2,73,110,0
2,72,110,0
2,70,110,0
2,73,110,98
2,70,110,192
2,70,110,2
2,68,110,2
2,68,110,2
2,68,110,2
2,68,110,2
2,70,110,2
2,70,110,0
2,68,110,2
2,70,110,2
2,61,110,146
2,66,110,2
2,66,110,2
2,66,110,2
2,66,110,2
2,66,110,2
2,68,110,2
2,70,110,2
2,70,110,2
2,70,110,80
2,69,110,2
2,69,110,2
2,69,110,2
2,69,110,2
2,70,110,2
2,72,110,2
2,73,110,2
2,72,110,2
2,73,110,2
2,70,110,2
2,65,110,146
2,73,110,2
2,70,110,192
2,70,110,2
2,68,110,2
2,68,110,2
2,66,110,2
2,66,110,2
2,65,110,0
2,63,110,0
2,61,110,0
2,58,110,2
2,61,110,2
2,66,110,2
2,65,110,32
2,63,110,0
2,61,110,0
2,61,110,2
2,58,110,0
2,65,110,0
2,63,110,0
2,65,110,0
2,58,110,386
2,56,110,2
2,61,110,2
2,61,110,2448
2,61,110,2
2,61,110,2
2,60,110,2
2,60,110,2
2,58,110,2
2,60,110,2
2,58,110,2
2,56,110,2
2,61,110,50
2,61,110,2
2,61,110,2
2,61,110,2
2,60,110,2
2,58,110,2
2,56,110,0
2,56,110,50
2,63,110,2
2,60,110,0
2,60,110,2
2,56,110,32
2,58,110,32
2,60,110,2
2,60,110,2
2,56,110,2
2,53,110,2
2,58,110,128
2,56,110,2
2,61,110,128
2,61,110,2
2,61,110,2
2,60,110,2
2,60,110,2
2,58,110,2
2,60,110,2
2,58,110,2
2,56,110,2
2,61,110,98
2,61,110,2
2,61,110,2
2,60,110,2
2,58,110,2
2,60,110,2
2,56,110,50
2,68,110,2
2,68,110,2
2,65,110,2
2,63,110,0
2,61,110,2
2,61,110,2
2,61,110,2
2,60,110,2
2,60,110,2
2,60,110,2
2,61,110,2
2,60,110,2
2,68,110,32
2,66,110,2
2,65,110,2
2,65,110,2
2,66,110,2
2,68,110,2
2,58,110,48
2,60,110,2
2,61,110,2
2,65,110,2
2,66,110,2
2,66,110,32
2,66,110,32
2,65,110,0
2,65,110,2
2,65,110,2
2,63,110,0
2,63,110,2
2,65,110,0
2,66,110,386
2,66,110,2
2,66,110,2
2,66,110,2
2,66,110,2
2,68,110,0
2,66,110,2
2,68,110,2
2,66,110,2
2,65,110,0
2,63,110,2
2,65,110,2
2,63,110,2
2,61,110,0
2,63,110,0
2,66,110,32
2,66,110,2
2,66,110,2
2,66,110,2
2,66,110,2
2,66,110,2
2,66,110,2
2,66,110,2
2,65,110,2
2,63,110,2
2,65,110,2
2,63,110,0
2,65,110,0
2,61,110,338
2,66,110,2
2,66,110,2
2,66,110,2
2,66,110,2
2,68,110,2
2,70,110,2
2,70,110,2
2,70,110,2
2,70,110,2
2,69,110,2
2,69,110,2
2,69,110,2
2,70,110,2
2,72,110,2
2,72,110,0
2,73,110,0
2,72,110,0
2,70,110,0
2,73,110,98
2,70,110,192
2,70,110,2
2,68,110,2
2,68,110,2
2,68,110,2
2,68,110,2
2,70,110,2
2,70,110,0
2,68,110,2
2,70,110,2
2,61,110,146
2,66,110,2
2,66,110,2
2,66,110,2
2,68,110,2
2,70,110,2
2,70,110,242
2,69,110,2
2,69,110,2
2,69,110,2
2,69,110,2
2,70,110,2
2,72,110,2
2,73,110,2
2,72,110,2
2,73,110,2
2,70,110,2
2,65,110,146
2,73,110,2
2,70,110,192
2,70,110,2
2,68,110,2
2,68,110,2
2,66,110,2
2,66,110,2
2,65,110,0
2,63,110,0
2,61,110,0
2,58,110,2
2,61,110,2
2,66,110,2
2,65,110,32
2,63,110,0
2,61,110,0
2,61,110,2
2,58,110,0
2,65,110,0
2,63,110,0
2,65,110,0
2,58,110,386
2,56,110,2
2,61,110,2
2,70,110,1584
2,69,110,32
2,65,110,2
2,70,110,2
2,72,110,32
2,70,110,32
2,73,110,98
2,70,110,192
2,70,110,2
2,68,110,2
2,68,110,2
2,68,110,2
2,68,110,2
2,70,110,2
2,70,110,0
2,68,110,2
2,70,110,2
2,61,110,146
2,66,110,2
2,66,110,2
2,66,110,2
2,66,110,2
2,66,110,2
2,68,110,2
2,70,110,2
2,70,110,2
2,70,110,80
2,69,110,2
2,69,110,2
2,69,110,2
2,69,110,2
2,70,110,2
2,72,110,2
2,73,110,2
2,72,110,2
2,73,110,2
2,70,110,2
2,65,110,146
2,73,110,2
2,70,110,192
2,70,110,2
2,68,110,2
2,68,110,2
2,66,110,2
2,66,110,2
2,65,110,0
2,63,110,0
2,61,110,0
2,58,110,2
2,61,110,2
2,66,110,2
2,65,110,32
2,63,110,0
2,61,110,0
2,61,110,2
2,58,110,0
2,65,110,0
2,63,110,0
2,65,110,0
2,58,110,258
2,61,110,2
2,66,110,2
2,68,110,32
2,66,110,2
2,68,110,2
2,70,110,2
2,68,110,0
2,73,110,0
2,72,110,0
2,70,110,0
2,68,110,0
2,65,110,0
2,70,110,0
2,73,110,240
2,72,110,2
2,73,110,2
2,71,110,0
2,75,110,0
2,75,110,0
2,77,110,0
2,77,110,0
2,73,110,2
2,77,110,0
3,80,110,0
3,79,110,0
3,75,110,0
3,70,110,0
3,68,110,0
3,70,110,0
3,75,110,0
3,79,110,0
3,80,110,0
3,79,110,0
3,75,110,0
3,70,110,0
3,68,110,0
3,70,110,0
3,75,110,0
3,79,110,0
3,80,110,0
3,79,110,0
3,75,110,0
3,70,110,0
3,68,110,0
3,70,110,0
3,75,110,0
3,79,110,0
3,80,110,0
3,79,110,0
3,75,110,0
3,70,110,0
3,68,110,0
3,65,110,0
3,68,110,0
3,73,110,2
3,73,110,2
3,73,110,2
3,73,110,2
3,73,110,2
3,65,110,2
3,68,110,0
3,73,110,0
3,65,110,2
3,68,110,0
3,75,110,0
3,68,110,2
3,73,110,0
3,77,110,0
3,73,110,2
3,77,110,0
3,80,110,0
3,65,110,2
3,68,110,0
3,73,110,0
3,65,110,2
3,68,110,0
3,73,110,0
3,73,110,2
3,73,110,2
3,75,110,2
3,68,110,2
3,73,110,0
3,77,110,0
3,73,110,2
3,77,110,0
3,80,110,0
3,72,110,2
3,75,110,0
3,82,110,0
3,84,110,2
3,82,110,2
3,80,110,2
3,73,110,2
3,77,110,0
3,82,110,0
3,80,110,2
3,73,110,32
3,77,110,0
3,80,110,0
3,77,110,2
3,68,110,2
3,72,110,0
3,75,110,0
3,77,110,2
3,68,110,48
3,70,110,2
3,72,110,2
3,65,110,2
3,68,110,0
3,73,110,0
3,73,110,2
3,73,110,2
3,73,110,2
3,65,110,2
3,68,110,0
3,73,110,0
3,65,110,2
3,68,110,0
3,75,110,0
3,68,110,2
3,73,110,0
3,77,110,0
3,73,110,2
3,77,110,0
3,80,110,0
3,73,110,2
3,73,110,2
3,65,110,2
3,68,110,0
3,73,110,0
3,65,110,2
3,68,110,0
3,75,110,0
3,68,110,2
3,73,110,0
3,77,110,0
3,80,110,2
3,72,110,2
3,75,110,0
3,82,110,0
3,75,110,2
3,80,110,0
3,84,110,0
3,72,110,2
3,75,110,0
3,82,110,0
3,72,110,32
3,75,110,0
3,82,110,0
3,73,110,2
3,77,110,0
3,80,110,0
3,65,110,32
3,70,110,0
3,73,110,0
3,77,110,2
3,66,110,2
3,72,110,0
3,75,110,0
3,66,110,0
3,72,110,0
3,75,110,0
3,66,110,2
3,72,110,0
3,77,110,0
3,70,110,2
3,68,110,2
3,58,110,2
3,61,110,0
3,66,110,0
3,68,110,0
3,61,110,48
3,66,110,0
3,70,110,0
3,72,110,2
3,66,110,2
3,70,110,0
3,73,110,0
3,77,110,2
3,70,110,2
3,73,110,0
3,78,110,0
3,70,110,32
3,73,110,0
3,78,110,0
3,70,110,32
3,73,110,0
3,78,110,0
3,77,110,2
3,70,110,2
3,73,110,0
3,77,110,0
3,70,110,2
3,73,110,0
3,77,110,0
3,68,110,2
3,72,110,0
3,75,110,0
3,68,110,2
3,72,110,0
3,75,110,0
3,68,110,32
3,72,110,0
3,77,110,0
3,68,110,32
3,80,110,0
3,70,110,2
3,82,110,0
3,73,110,2
3,85,110,0
3,80,110,2
3,92,110,0
3,70,110,2
3,73,110,0
3,78,110,0
3,90,110,0
3,70,110,2
3,73,110,0
3,78,110,0
3,70,110,2
3,73,110,0
3,78,110,0
3,70,110,2
3,73,110,0
3,78,110,0
3,70,110,2
3,73,110,0
3,78,110,0
3,80,110,2
3,70,110,2
3,73,110,0
3,78,110,0
3,70,110,2
3,73,110,0
3,80,110,0
3,68,110,2
3,72,110,0
3,78,110,0
3,77,110,2
3,68,110,2
3,72,110,0
3,75,110,0
3,68,110,2
3,72,110,0
3,77,110,0
3,68,110,2
3,72,110,0
3,75,110,0
3,73,110,2
3,68,110,2
3,72,110,0
3,75,110,0
3,70,110,32
3,73,110,0
3,78,110,0
3,70,110,2
3,73,110,0
3,78,110,0
3,70,110,2
3,73,110,0
3,78,110,0
3,78,110,2
3,78,110,2
3,78,110,2
3,70,110,2
3,73,110,0
3,78,110,0
3,70,110,2
3,73,110,0
3,77,110,0
3,66,110,2
3,70,110,0
3,75,110,0
3,77,110,2
3,68,110,2
3,72,110,0
3,75,110,0
3,77,110,2
3,80,110,2
3,92,110,0
3,78,110,2
3,90,110,0
3,77,110,2
3,89,110,0
3,73,110,2
3,75,110,0
3,87,110,0
3,73,110,2
3,85,110,0
3,70,110,2
3,73,110,0
3,78,110,0
3,70,110,2
3,73,110,0
3,78,110,0
3,70,110,2
3,73,110,0
3,78,110,0
3,70,110,2
3,73,110,0
3,80,110,0
3,73,110,2
3,78,110,0
3,82,110,0
3,73,110,2
3,78,110,0
3,82,110,0
3,73,110,2
3,78,110,0
3,82,110,0
3,73,110,2
3,78,110,0
3,82,110,0
3,72,110,2
3,75,110,0
3,81,110,0
3,72,110,2
3,75,110,0
3,81,110,0
3,72,110,2
3,75,110,0
3,81,110,0
3,72,110,2
3,75,110,0
3,82,110,0
3,75,110,2
3,81,110,0
3,84,110,0
3,85,110,2
3,84,110,2
3,73,110,2
3,77,110,0
3,82,110,0
3,77,110,98
3,82,110,0
3,85,110,0
3,73,110,48
3,77,110,0
3,82,110,0
3,73,110,2
3,77,110,0
3,82,110,0
3,82,110,50
3,72,110,2
3,75,110,0
3,82,110,0
3,80,110,2
3,80,110,2
3,80,110,2
3,80,110,2
3,72,110,2
3,75,110,0
3,82,110,0
3,80,110,2
3,82,110,2
3,73,110,2
3,70,110,2
3,73,110,0
3,78,110,0
3,78,110,2
3,78,110,2
3,78,110,2
3,70,110,2
3,73,110,0
3,78,110,0
3,70,110,2
3,73,110,0
3,80,110,0
3,73,110,2
3,78,110,0
3,82,110,0
3,73,110,2
3,78,110,0
3,82,110,0
3,82,110,2
3,72,110,2
3,75,110,0
3,81,110,0
3,81,110,2
3,81,110,2
3,72,110,2
3,75,110,0
3,81,110,0
3,72,110,2
3,75,110,0
3,82,110,0
3,75,110,2
3,81,110,0
3,84,110,0
3,85,110,2
3,84,110,2
3,85,110,2
3,82,110,2
3,73,110,48
3,77,110,0
3,77,110,50
3,77,110,2
3,82,110,0
3,85,110,0
3,73,110,48
3,77,110,0
3,82,110,0
3,73,110,2
3,77,110,0
3,82,110,0
3,82,110,50
3,72,110,2
3,75,110,0
3,82,110,0
3,80,110,2
3,80,110,2
3,78,110,2
3,68,110,2
3,78,110,0
3,77,110,2
3,75,110,2
3,73,110,2
3,68,110,32
3,70,110,2
3,73,110,2
3,70,110,2
3,73,110,0
3,78,110,0
3,66,110,32
3,70,110,0
3,77,110,0
3,75,110,2
3,73,110,2
3,66,110,2
3,70,110,0
3,73,110,0
3,70,110,32
3,77,110,2
3,68,110,2
3,73,110,0
3,75,110,0
3,77,110,2
3,70,110,32
3,68,110,2
3,65,110,2
3,68,110,0
3,73,110,0
3,61,110,32
3,56,110,32
3,61,110,0
3,65,110,0
3,68,110,32
3,56,110,2
3,56,110,98
3,61,110,2
3,63,110,2
3,56,110,2
3,61,110,0
3,65,110,0
3,68,110,2
3,60,110,2
3,63,110,0
3,70,110,0
3,72,110,2
3,63,110,2
3,68,110,0
3,72,110,0
3,68,110,32
3,56,110,2
3,61,110,0
3,65,110,0
3,56,110,2
3,61,110,2
3,63,110,2
3,65,110,2
3,54,110,2
3,56,110,0
3,61,110,0
3,54,110,2
3,54,110,2
3,56,110,0
3,61,110,0
3,54,110,32
3,56,110,0
3,60,110,0
3,65,110,48
3,68,110,0
3,73,110,2
3,73,110,2
3,73,110,2
3,73,110,2
3,73,110,2
3,65,110,2
3,68,110,0
3,73,110,0
3,65,110,2
3,68,110,0
3,75,110,0
3,68,110,2
3,73,110,0
3,77,110,0
3,73,110,2
3,77,110,0
3,80,110,0
3,65,110,2
3,68,110,0
3,73,110,0
3,65,110,2
3,68,110,0
3,73,110,0
3,73,110,2
3,73,110,2
3,75,110,2
3,68,110,2
3,73,110,0
3,77,110,0
3,73,110,2
3,77,110,0
3,80,110,0
3,72,110,2
3,75,110,0
3,82,110,0
3,84,110,2
3,82,110,2
3,80,110,2
3,73,110,2
3,77,110,0
3,82,110,0
3,80,110,2
3,73,110,32
3,77,110,0
3,80,110,0
3,77,110,2
3,68,110,2
3,72,110,0
3,75,110,0
3,77,110,2
3,68,110,48
3,70,110,2
3,72,110,2
3,65,110,2
3,68,110,0
3,73,110,0
3,73,110,2
3,73,110,2
3,73,110,2
3,65,110,2
3,68,110,0
3,73,110,0
3,65,110,2
3,68,110,0
3,75,110,0
3,68,110,2
3,73,110,0
3,77,110,0
3,73,110,2
3,77,110,0
3,80,110,0
3,73,110,2
3,73,110,2
3,65,110,2
3,68,110,0
3,73,110,0
3,65,110,2
3,68,110,0
3,75,110,0
3,68,110,2
3,73,110,0
3,77,110,0
3,80,110,2
3,72,110,2
3,75,110,0
3,82,110,0
3,75,110,2
3,80,110,0
3,84,110,0
3,72,110,2
3,75,110,0
3,82,110,0
3,72,110,32
3,75,110,0
3,82,110,0
3,73,110,2
3,77,110,0
3,80,110,0
3,65,110,32
3,70,110,0
3,73,110,0
3,77,110,2
3,66,110,2
3,72,110,0
3,75,110,0
3,66,110,0
3,72,110,0
3,75,110,0
3,66,110,2
3,72,110,0
3,77,110,0
3,70,110,2
3,68,110,2
3,58,110,2
3,61,110,0
3,66,110,0
3,68,110,0
3,61,110,48
