track,note,velocity,time
1,52,111,4
1,40,105,0
1,91,77,57342
1,88,77,0
1,84,77,0
1,89,77,222
1,92,77,0
1,85,77,0
1,93,77,222
1,86,77,0
1,90,77,0
1,87,77,222
1,91,77,0
1,94,77,0
1,95,77,14
1,88,77,0
1,92,77,0
1,74,57,72398
1,78,57,0
1,78,55,334
1,74,55,0
1,76,54,142
1,79,54,0
1,74,52,46
1,78,52,0
1,74,40,2174
1,78,40,0
1,78,38,238
1,74,38,0
1,78,36,242
1,81,36,0
1,78,35,46
1,74,35,0
1,76,22,2158
1,73,22,0
1,73,20,222
1,76,20,0
1,74,18,222
1,78,18,0
1,73,17,30
1,76,17,0
1,86,97,1758
1,88,97,14
1,86,67,16526
1,85,67,96
1,83,67,78
1,79,67,50
1,86,67,82
1,85,67,96
1,83,67,62
1,79,67,46
1,83,67,2
1,83,67,94
1,85,67,30
1,83,67,14
1,86,67,0
1,85,67,96
1,83,67,62
1,78,67,62
1,86,67,96
1,85,67,96
1,83,67,78
1,78,67,46
1,83,67,2
1,83,67,94
1,85,67,14
1,83,67,18
1,86,67,0
1,85,67,96
1,83,67,78
1,79,67,62
1,86,67,78
1,85,67,96
1,83,67,94
1,79,67,14
1,83,67,2
1,83,67,110
1,85,67,14
1,83,67,2
1,91,67,0
1,90,67,92
1,88,67,46
1,83,67,62
1,91,67,34
1,90,67,92
1,88,67,62
1,83,67,46
1,88,67,98
1,90,67,2
1,88,67,96
1,86,67,12190
1,85,67,96
1,83,67,78
1,79,66,46
1,86,60,82
1,85,60,92
1,83,59,62
1,79,59,46
1,83,59,2
1,83,58,94
1,85,57,30
1,83,57,14
1,86,53,0
1,85,53,96
1,83,52,62
1,78,52,62
1,86,46,96
1,85,46,96
1,83,45,78
1,78,45,46
1,83,44,2
1,83,43,98
1,85,43,14
1,83,43,18
1,86,39,0
1,85,39,96
1,83,38,78
1,79,38,62
1,86,32,78
1,85,31,96
1,83,31,94
1,79,31,14
1,83,30,2
1,83,29,110
1,85,29,18
1,83,28,2
1,91,25,0
1,90,24,92
1,88,24,46
1,83,23,62
1,91,18,30
1,90,17,96
1,88,17,62
1,83,16,46
1,88,16,98
1,90,15,78
1,88,15,94
2,74,69,6340
2,71,93,0
2,76,75,0
2,78,65,0
2,79,83,96
2,79,73,160
2,78,77,96
2,79,83,96
2,79,77,112
2,78,79,528
2,76,79,0
2,71,85,0
2,74,77,0
2,79,79,96
2,79,87,144
2,78,91,112
2,79,75,96
2,79,83,80
2,66,71,308
2,69,75,0
2,74,73,0
2,69,71,160
2,74,97,0
2,66,73,0
2,76,87,16
2,71,87,0
2,68,75,0
2,81,87,21748
2,78,73,0
2,86,87,0
2,81,85,72
2,86,111,0
2,78,111,0
2,83,97,188
2,80,111,0
2,88,97,0
2,71,95,592
2,66,71,0
2,62,63,0
2,71,103,144
2,66,91,0
2,62,77,0
2,69,61,32
2,66,73,144
2,69,75,0
2,62,63,0
2,66,87,144
2,69,91,0
2,62,69,0
2,71,71,32
2,71,95,112
2,62,69,0
2,66,83,0
2,62,91,304
2,66,101,0
2,69,97,0
2,71,87,96
2,71,95,128
2,62,73,0
2,66,87,0
2,66,107,224
2,62,91,0
2,69,97,0
2,71,87,16
2,71,91,128
2,66,87,0
2,62,69,0
2,66,93,592
2,62,91,0
2,69,97,0
2,71,87,4
2,71,93,116
2,62,77,0
2,66,85,0
2,62,79,224
2,66,99,0
2,69,83,0
2,71,101,96
2,71,91,112
2,62,69,0
2,66,87,32
2,62,87,160
2,69,99,0
2,66,105,0
2,71,69,16
2,71,91,128
2,62,71,0
2,66,75,0
2,69,97,224
2,62,87,0
2,66,105,0
2,71,83,16
2,71,85,208
2,66,95,0
2,62,69,0
2,69,87,896
2,64,95,0
2,61,77,0
2,69,81,208
2,73,85,0
2,64,71,0
2,74,67,20
2,74,87,144
2,69,87,0
2,64,87,0
2,73,91,224
2,64,69,0
2,69,85,0
2,74,81,96
2,74,95,112
2,69,83,0
2,64,81,0
2,69,87,224
2,64,87,0
2,73,91,0
2,74,87,16
2,74,93,128
2,69,93,0
2,64,91,0
2,64,105,608
2,73,91,0
2,69,91,0
2,74,97,32
2,74,101,112
2,69,91,0
2,64,95,0
2,74,113,1376
2,66,113,0
2,69,113,0
2,76,105,0
2,71,107,0
2,68,125,0
2,66,113,944
2,62,107,0
2,69,105,0
2,66,111,304
2,62,111,0
2,69,105,0
2,62,101,176
2,66,107,0
2,69,101,0
2,67,107,144
2,60,101,0
2,64,105,0
2,66,113,116
2,62,101,0
2,69,105,0
2,71,105,176
2,74,111,0
2,67,111,0
2,64,103,20
2,67,111,224
2,64,107,0
2,71,101,0
2,74,103,0
2,74,107,224
2,71,103,16
2,64,105,0
2,67,113,0
2,69,105,240
2,62,107,0
2,66,111,0
2,69,95,112
2,62,103,0
2,66,107,0
2,60,103,80
2,67,113,0
2,64,105,0
2,66,115,80
2,62,99,0
2,69,105,0
2,72,119,192
2,76,107,0
2,69,85,0
2,67,79,16
2,76,105,224
2,69,107,16
2,72,111,0
2,76,105,240
2,69,107,0
2,72,113,0
2,62,113,240
2,69,107,0
2,65,105,0
2,62,111,144
2,69,103,0
2,65,99,0
2,62,105,240
2,69,103,0
2,65,105,0
2,67,99,224
2,63,85,0
2,70,87,0
2,71,95,1968
2,66,71,0
2,62,63,0
2,71,103,144
2,66,91,0
2,62,77,0
2,69,61,32
2,66,73,144
2,69,75,0
2,62,63,0
2,66,87,144
2,69,91,0
2,62,69,0
2,71,71,32
2,71,95,116
2,62,69,0
2,66,83,0
2,62,91,308
2,66,101,0
2,69,97,0
2,71,87,92
2,71,95,128
2,62,73,0
2,66,87,0
2,66,107,224
2,62,91,0
2,69,97,0
2,71,87,16
2,71,91,128
2,66,87,0
2,62,69,0
2,66,93,592
2,62,91,4
2,69,97,0
2,71,87,0
2,71,93,112
2,62,77,0
2,66,85,0
2,62,79,224
2,66,99,0
2,69,83,0
2,71,101,96
2,71,91,112
2,62,69,0
2,66,87,32
2,62,87,160
2,69,99,0
2,66,105,0
2,71,69,16
2,71,91,128
2,62,71,0
2,66,75,0
2,69,97,224
2,62,87,0
2,66,105,0
2,71,83,16
2,71,85,208
2,66,95,0
2,62,69,0
2,69,87,896
2,64,95,0
2,61,77,0
2,69,81,208
2,73,85,0
2,64,71,0
2,74,67,16
2,74,87,144
2,69,87,0
2,64,87,0
2,73,91,224
2,64,69,0
2,69,85,0
2,74,81,96
2,74,95,112
2,69,83,0
2,64,81,0
2,69,87,224
2,64,87,0
2,73,91,0
2,74,87,16
2,74,93,128
2,69,93,0
2,64,91,0
2,64,105,608
2,73,91,0
2,69,91,0
2,74,97,32
2,74,101,112
2,69,91,0
2,64,95,0
2,66,77,32096
2,71,69,0
2,62,77,0
2,74,59,16
2,78,63,0
2,83,67,0
2,62,91,48
2,66,71,0
2,71,65,0
2,83,101,4
2,78,101,0
2,74,91,0
2,71,83,800
2,66,75,0
2,74,63,48
2,83,63,0
2,78,63,0
2,62,81,48
2,66,69,0
2,71,65,0
2,83,93,48
2,78,91,0
2,74,93,0
2,66,91,52
2,71,85,0
2,62,91,0
2,83,99,32
2,78,107,0
2,74,107,0
2,71,103,32
2,66,101,0
2,62,101,0
2,62,69,880
2,69,59,0
2,66,55,0
2,66,73,144
2,62,83,0
2,69,63,0
2,78,87,48
2,74,75,0
2,81,73,0
2,66,105,36
2,69,85,0
2,62,97,0
2,78,111,36
2,81,103,0
2,74,105,0
2,66,91,800
2,69,75,0
2,62,77,0
2,78,77,48
2,74,71,0
2,81,77,0
2,69,73,32
2,66,83,4
2,62,83,0
2,81,85,48
2,78,91,0
2,74,83,0
2,69,95,48
2,66,107,0
2,62,103,0
2,74,111,36
2,78,111,0
2,81,93,0
2,67,81,1232
2,61,79,0
2,64,69,0
2,79,57,48
2,76,57,0
2,61,69,0
2,64,69,4
2,67,57,0
2,76,93,48
2,79,83,0
2,73,67,0
2,67,103,32
2,61,107,0
2,64,107,0
2,61,65,1088
2,64,69,0
2,67,59,0
2,76,73,64
2,73,49,0
2,67,71,0
2,61,85,0
2,64,87,0
2,76,93,32
2,73,67,0
2,79,85,0
2,67,97,36
2,61,103,0
2,64,105,0
2,73,105,32
2,76,111,0
2,79,97,0
2,62,81,976
2,66,71,0
2,69,65,0
2,78,65,48
2,81,67,0
2,74,63,0
2,69,63,32
2,66,85,0
2,62,91,0
2,81,105,20
2,78,115,0
2,74,113,0
2,66,113,1984
2,62,107,0
2,69,105,0
2,66,111,304
2,62,111,0
2,69,105,0
2,62,101,176
2,66,107,0
2,69,101,0
2,67,107,144
2,60,101,0
2,64,105,0
2,66,113,112
2,62,101,0
2,69,105,0
2,71,105,176
2,74,111,0
2,67,111,0
2,64,103,20
2,67,111,224
2,64,107,0
2,71,101,0
2,74,103,0
2,74,107,224
2,71,103,16
2,64,105,0
2,67,113,0
2,69,105,240
2,62,107,0
2,66,111,0
2,69,95,112
2,62,103,0
2,66,107,0
2,60,103,80
2,67,113,0
2,64,105,0
2,66,115,80
2,62,99,0
2,69,105,0
2,72,119,192
2,76,107,0
2,69,85,0
2,67,79,16
2,76,105,224
2,69,107,16
2,72,111,0
2,76,105,240
2,69,107,0
2,72,113,0
2,62,113,240
2,69,107,0
2,65,105,0
2,62,111,144
2,69,103,0
2,65,99,0
2,62,105,240
2,69,103,0
2,65,105,0
2,67,99,224
2,63,85,0
2,70,87,0
2,71,95,20404
2,66,71,0
2,62,63,0
2,71,103,144
2,66,91,0
2,62,77,0
2,69,61,32
2,66,73,144
2,69,75,0
2,62,63,0
2,66,87,144
2,69,91,0
2,62,69,0
2,71,71,36
2,71,95,116
2,62,69,0
2,66,83,0
2,62,91,304
2,66,101,0
2,69,97,4
2,71,87,92
2,71,95,128
2,62,73,0
2,66,87,0
2,66,107,224
2,62,91,0
2,69,97,0
2,71,87,16
2,71,91,128
2,66,87,0
2,62,69,0
2,66,93,596
2,62,91,0
2,69,97,0
2,71,87,0
2,71,93,112
2,62,77,0
2,66,85,0
2,62,79,224
2,66,99,0
2,69,83,0
2,71,101,96
2,71,91,116
2,62,69,0
2,66,87,32
2,62,87,160
2,69,99,0
2,66,105,0
2,71,69,16
2,71,91,128
2,62,71,0
2,66,75,0
2,69,97,224
2,62,87,0
2,66,105,0
2,71,83,16
2,71,85,208
2,66,95,0
2,62,69,0
2,69,87,896
2,64,95,0
2,61,77,0
2,69,81,208
2,73,85,0
2,64,71,0
2,74,67,16
2,74,87,144
2,69,87,0
2,64,87,0
2,73,91,224
2,64,69,0
2,69,85,0
2,74,81,96
2,74,95,112
2,69,83,0
2,64,81,0
2,69,87,224
2,64,87,0
2,73,91,0
2,74,87,16
2,74,93,128
2,69,93,0
2,64,91,0
2,64,105,608
2,73,91,0
2,69,91,0
2,74,97,32
2,74,101,112
2,69,91,0
2,64,95,0
2,71,95,6560
2,66,71,0
2,62,63,0
2,71,103,144
2,66,91,0
2,62,77,0
2,69,61,32
2,66,73,144
2,69,75,0
2,62,63,0
2,66,87,144
2,69,91,0
2,62,69,0
2,71,71,32
2,71,95,112
2,62,69,0
2,66,83,0
2,62,91,308
2,66,101,0
2,69,97,0
2,71,87,92
2,71,95,128
2,62,73,0
2,66,87,0
2,66,107,224
2,62,91,0
2,69,97,0
2,71,87,16
2,71,91,128
2,66,87,0
2,62,69,0
2,66,93,596
2,62,91,0
2,69,97,0
2,71,87,4
2,71,93,112
2,62,77,0
2,66,85,0
2,62,79,224
2,66,99,0
2,69,83,0
2,71,101,96
2,71,91,112
2,62,69,0
2,66,87,32
2,62,87,160
2,69,99,0
2,66,105,0
2,71,69,16
2,71,91,128
2,62,71,0
2,66,75,0
2,69,97,224
2,62,87,0
2,66,105,0
2,71,83,16
2,71,85,208
2,66,95,0
2,62,69,0
2,69,87,900
2,64,95,0
2,61,77,0
2,69,81,208
2,73,85,0
2,64,71,0
2,74,67,16
2,74,87,144
2,69,87,0
2,64,87,0
2,73,91,224
2,64,69,0
2,69,85,0
2,74,81,96
2,74,95,112
2,69,83,0
2,64,81,0
2,69,87,228
2,64,87,0
2,73,91,0
2,74,87,16
2,74,93,128
2,69,93,0
2,64,91,0
2,64,105,608
2,73,91,0
2,69,91,0
2,74,97,32
2,74,101,112
2,69,91,0
2,64,95,0
2,71,95,3488
2,66,71,0
2,62,63,0
2,71,103,144
2,66,91,0
2,62,77,0
2,69,61,36
2,66,73,144
2,69,75,0
2,62,63,0
2,66,87,144
2,69,91,0
2,62,69,0
2,71,71,32
2,71,95,112
2,62,69,0
2,66,83,0
2,62,91,304
2,66,101,0
2,69,97,0
2,71,87,96
2,71,95,128
2,62,73,0
2,66,87,0
2,66,107,224
2,62,91,0
2,69,97,0
2,71,87,16
2,71,91,128
2,66,87,0
2,62,69,0
2,66,93,596
2,62,91,0
2,69,97,0
2,71,87,4
2,71,93,112
2,62,77,0
2,66,85,0
2,62,79,224
2,66,99,0
2,69,83,0
2,71,101,96
2,71,91,112
2,62,69,0
2,66,87,32
2,62,87,160
2,69,99,0
2,66,105,0
2,71,69,16
2,71,91,128
2,62,71,0
2,66,75,0
2,69,97,224
2,62,87,0
2,66,105,0
2,71,83,16
2,71,85,208
2,66,95,0
2,62,69,0
2,69,87,896
2,64,95,0
2,61,77,0
2,69,81,208
2,73,85,0
2,64,71,0
2,74,67,16
2,74,87,144
2,69,87,0
2,64,87,0
2,73,91,224
2,64,69,0
2,69,85,0
2,74,81,96
2,74,95,112
2,69,83,0
2,64,81,0
2,69,87,224
2,64,87,0
2,73,91,0
2,74,87,16
2,74,93,128
2,69,93,0
2,64,91,0
2,64,105,608
2,73,91,0
2,69,91,0
2,74,97,32
2,74,101,112
2,69,91,0
2,64,95,0
2,71,73,3488
2,66,73,0
2,62,73,0
2,71,73,144
2,66,73,0
2,62,73,0
2,69,72,32
2,66,71,144
2,69,71,0
2,62,71,0
2,66,70,144
2,69,70,0
2,62,70,0
2,71,70,32
2,71,69,112
2,62,69,0
2,66,69,4
2,62,67,308
2,66,67,0
2,69,67,0
2,71,66,92
2,71,65,128
2,62,65,0
2,66,65,0
2,66,64,224
2,62,64,0
2,69,64,0
2,71,64,16
2,71,63,128
2,66,63,0
2,62,63,0
2,66,59,596
2,62,59,0
2,69,59,0
2,71,59,0
2,71,58,112
2,62,58,0
2,66,58,0
2,62,57,224
2,66,57,0
2,69,57,0
2,71,56,96
2,71,55,116
2,62,55,0
2,66,55,32
2,62,54,160
2,69,54,0
2,66,54,0
2,71,53,16
2,71,52,128
2,62,52,0
2,66,52,0
2,69,51,228
2,62,51,0
2,66,51,0
2,71,50,16
2,71,49,208
2,66,49,0
2,62,49,0
2,69,44,900
2,64,44,0
2,61,44,0
2,69,42,208
2,73,42,0
2,64,42,0
2,74,42,20
2,74,41,144
2,69,41,0
2,64,41,0
2,73,40,224
2,64,40,0
2,69,40,0
2,74,39,96
2,74,38,112
2,69,38,0
2,64,38,0
2,69,37,224
2,64,37,0
2,73,37,0
2,74,36,16
2,74,35,128
2,69,35,0
2,64,35,0
2,64,32,608
2,73,32,0
2,69,32,0
2,74,32,32
2,74,31,112
2,69,31,0
2,64,31,0
3,40,116,0
3,40,88,94
3,47,124,94
3,40,86,46
3,40,124,94
3,40,100,94
3,40,104,94
3,74,104,96
3,45,100,30
3,47,100,96
3,50,96,14
3,40,96,14
3,40,90,110
3,47,114,62
3,40,102,62
3,40,102,110
3,40,102,110
3,40,104,110
3,45,102,96
3,47,102,94
3,50,104,2
3,52,100,14
3,40,116,14
3,40,88,94
3,47,124,98
3,40,86,46
3,40,124,94
3,40,100,94
3,40,104,94
3,74,104,96
3,45,100,30
3,47,100,96
3,50,96,14
3,40,96,14
3,40,90,110
3,47,114,66
3,40,102,62
3,40,102,110
3,40,102,110
3,40,104,110
3,45,102,96
3,47,102,94
3,50,104,78
3,52,100,14
3,40,116,18
3,40,88,94
3,47,124,98
3,40,86,46
3,40,124,94
3,40,100,94
3,40,104,94
