track,note,velocity,time
1,36,91,9216
1,36,91,752
1,36,91,752
1,36,91,752
1,36,82,560
1,36,91,176
1,36,91,752
1,36,91,752
1,36,91,752
1,36,91,752
1,36,91,752
1,36,91,752
1,36,91,752
1,36,91,752
1,36,91,752
1,36,91,752
1,36,91,752
1,36,91,752
1,36,91,752
1,36,91,752
1,36,91,752
1,36,91,752
1,36,91,752
1,36,91,752
1,36,91,752
1,36,91,752
1,36,91,752
1,36,91,752
1,36,91,752
1,36,91,176
1,36,91,368
1,36,91,176
1,36,91,752
1,36,91,752
1,36,91,752
1,36,91,752
1,36,91,752
1,36,91,752
1,36,91,752
1,36,91,752
1,36,91,752
1,36,91,752
1,36,91,752
1,36,91,752
1,36,91,656
1,36,91,272
1,36,91,272
1,36,91,272
1,36,91,368
1,36,91,368
1,36,91,368
1,36,91,368
1,36,91,368
1,36,91,368
1,36,91,368
1,36,91,0
1,36,91,368
1,36,91,368
1,36,91,368
1,36,91,368
1,36,91,368
1,36,91,368
1,36,91,368
1,36,91,368
1,36,91,368
1,36,91,368
1,36,91,368
1,36,91,368
1,36,91,368
1,36,91,368
1,36,91,368
1,36,91,368
1,36,91,368
1,36,91,368
1,36,91,368
1,36,91,368
1,36,91,368
1,36,91,368
1,36,91,368
1,36,91,368
1,36,91,752
1,36,91,752
1,36,91,752
1,36,91,752
1,36,91,752
1,36,91,752
1,36,91,752
1,36,91,752
1,36,91,752
1,36,91,752
1,36,91,752
1,36,91,752
1,36,91,752
1,36,91,752
1,36,91,752
1,36,68,176
1,36,91,368
1,36,91,176
1,36,91,752
1,36,91,752
1,36,91,752
1,36,91,752
1,36,91,752
1,36,91,752
1,36,91,752
1,36,91,752
1,36,91,752
1,36,91,752
1,36,91,752
1,36,91,752
1,36,91,656
1,36,91,272
1,36,91,272
1,36,91,272
1,36,91,368
1,36,91,368
1,36,91,368
1,36,91,368
1,36,91,368
1,36,91,368
1,36,91,368
1,36,91,368
1,36,91,368
1,36,91,368
1,36,91,368
1,36,91,368
1,36,91,368
1,36,91,368
1,36,91,368
1,36,91,368
1,36,91,368
1,36,91,368
1,36,91,368
1,36,91,368
1,36,91,368
1,36,91,368
1,36,91,368
1,36,91,368
1,36,91,368
1,36,65,272
1,36,91,80
1,36,91,368
1,36,91,368
1,36,91,368
1,36,91,368
1,36,91,368
1,36,91,368
1,36,91,752
1,36,91,752
1,36,91,752
1,36,91,752
1,36,91,368
1,36,91,368
1,36,91,368
1,36,91,368
1,36,91,368
1,36,91,368
1,36,91,368
1,36,91,368
1,36,91,368
1,36,91,368
1,36,91,368
1,36,91,368
1,36,91,368
1,36,91,368
1,36,91,368
1,36,91,368
1,36,91,368
1,36,91,368
1,36,91,368
1,36,91,368
1,36,91,752
1,36,91,752
1,36,91,752
1,36,91,752
1,36,91,752
1,36,91,752
1,36,91,176
1,36,91,368
1,36,91,176
1,36,91,560
1,36,91,176
1,36,91,752
1,36,91,752
1,36,91,752
1,36,91,752
1,36,91,752
1,36,91,752
1,36,91,752
1,36,91,560
1,36,91,176
1,36,91,752
1,36,91,752
1,36,91,752
1,36,91,752
1,36,91,752
1,36,91,752
1,36,91,752
1,36,70,176
1,36,91,80
1,36,91,272
1,36,91,176
1,36,91,752
1,36,91,752
1,36,91,752
1,36,91,752
1,36,91,752
1,36,91,752
1,36,91,752
1,36,91,176
1,36,91,368
1,36,91,176
1,36,91,752
1,36,91,752
1,36,91,752
1,36,91,752
1,36,91,752
1,36,91,752
1,36,91,752
1,36,91,176
1,36,91,368
1,36,91,176
1,36,91,752
1,36,91,752
1,36,91,752
1,36,91,752
1,36,91,752
1,36,91,752
1,36,91,752
1,36,91,272
1,36,91,272
1,36,91,176
1,36,91,752
1,36,91,752
1,36,91,752
1,36,91,752
1,36,91,656
1,36,91,272
1,36,91,272
1,36,91,272
1,36,91,368
1,36,91,368
1,36,91,368
1,36,91,368
1,36,91,368
1,36,91,368
1,36,91,368
1,36,91,368
1,36,91,368
1,36,91,368
1,36,91,368
1,36,91,368
1,36,91,368
1,36,91,368
1,36,91,368
1,36,91,368
1,36,91,368
1,36,91,368
1,36,91,368
1,36,91,368
1,36,91,368
1,36,91,368
1,36,91,272
1,36,91,80
1,36,91,272
1,36,91,80
1,36,91,368
1,36,65,272
1,36,91,80
1,36,91,368
1,36,91,368
1,36,91,368
1,36,91,368
1,36,91,368
1,36,91,368
1,36,91,368
1,36,91,368
1,36,91,368
1,36,91,368
1,36,91,368
1,36,91,368
1,36,91,368
1,36,91,368
1,36,91,368
1,36,91,368
1,36,91,368
1,36,91,368
1,36,91,368
1,36,91,368
1,36,91,368
1,36,91,368
1,36,91,368
1,36,91,368
1,36,91,368
1,36,91,368
1,36,91,368
1,36,91,368
1,36,91,272
1,36,91,80
1,36,91,272
1,36,91,80
1,36,91,368
1,36,65,272
1,36,91,80
1,36,91,368
1,36,91,368
1,36,91,368
1,36,91,368
1,36,91,368
1,36,91,368
1,36,91,368
1,36,91,368
1,36,91,368
1,36,91,368
1,36,91,368
1,36,91,368
1,36,91,368
1,36,91,368
1,36,91,368
1,36,91,368
1,36,91,368
1,36,91,368
1,36,91,368
1,36,91,368
1,36,91,368
1,36,91,368
1,36,91,368
1,36,91,368
1,36,91,368
1,36,91,368
1,36,91,368
1,36,91,368
1,36,91,272
1,36,91,80
1,36,91,272
1,36,91,80
1,36,91,368
1,36,65,272
1,36,91,80
1,36,91,368
1,36,91,368
1,36,91,368
1,36,91,368
1,36,91,368
2,40,82,9600
2,40,82,720
2,40,82,720
2,40,82,720
2,40,82,720
2,40,82,720
2,40,82,720
2,40,82,720
2,40,82,720
2,40,82,720
2,40,82,720
2,40,82,720
2,40,82,720
2,40,82,720
2,40,82,720
2,40,82,720
2,40,82,720
2,40,82,720
2,40,82,720
2,40,82,720
2,40,82,720
2,40,82,720
2,40,82,720
2,40,82,720
2,40,82,720
2,40,82,720
2,40,82,720
2,40,82,720
2,40,82,720
2,40,82,720
2,40,82,720
2,40,82,720
2,40,82,720
2,40,82,720
2,40,82,720
2,40,82,720
2,40,82,720
2,40,82,720
2,40,82,720
2,40,82,720
2,40,82,720
2,40,82,336
2,40,82,1104
2,40,82,720
2,40,82,720
2,40,82,720
2,40,82,720
2,40,82,720
2,40,82,720
2,40,82,720
2,40,82,720
2,40,82,720
2,40,82,720
2,40,82,720
2,40,82,720
2,40,82,720
2,40,82,720
2,40,101,720
2,40,82,720
2,40,82,720
2,40,82,720
2,40,82,720
2,40,82,720
2,40,82,720
2,40,82,720
2,40,82,720
2,40,82,720
2,40,82,720
2,40,82,720
2,40,82,720
2,40,82,720
2,40,82,720
2,40,82,720
2,40,82,720
2,40,82,720
2,40,82,720
2,40,82,720
2,40,82,720
2,40,82,720
2,40,82,720
2,40,82,720
2,40,82,720
2,40,82,720
2,40,82,720
2,40,82,720
2,40,82,720
2,40,82,720
2,40,82,336
2,40,82,1104
2,40,82,720
2,40,82,720
2,40,82,720
2,40,82,720
2,40,82,720
2,40,82,720
2,40,82,720
2,40,82,720
2,40,82,720
2,40,82,720
2,40,82,720
2,40,82,720
2,40,82,720
2,40,82,720
2,40,82,720
2,40,82,720
2,40,82,720
2,40,82,720
2,40,82,720
2,40,82,720
2,40,82,720
2,40,82,720
2,40,82,720
2,40,82,720
2,40,82,720
2,40,82,720
2,40,82,720
2,40,82,720
2,40,82,720
2,40,82,720
2,40,82,720
2,40,82,720
2,40,82,720
2,40,82,720
2,40,82,720
2,40,82,720
2,40,102,720
2,40,82,720
2,40,82,720
2,40,82,720
2,40,82,720
2,40,82,720
2,40,82,720
2,40,82,720
2,40,82,720
2,40,82,720
2,40,82,720
2,40,82,720
2,40,82,720
2,40,82,720
2,40,55,432
2,40,82,240
2,40,82,720
2,40,82,720
2,40,82,720
2,40,82,720
2,40,82,720
2,40,82,720
2,40,82,720
2,40,82,720
2,40,82,720
2,40,82,720
2,40,82,720
2,40,82,720
2,40,82,720
2,40,82,720
2,40,82,720
2,40,82,720
2,40,82,720
2,40,82,720
2,40,82,720
2,40,82,720
2,40,82,720
2,40,82,720
2,40,82,720
2,40,82,720
2,40,82,720
2,40,82,720
2,40,82,720
2,40,82,720
2,40,82,720
2,40,82,720
2,40,82,720
2,40,82,336
2,40,82,336
2,40,82,720
2,40,82,720
2,40,82,720
2,40,82,720
2,40,82,720
2,40,82,720
2,40,82,720
2,40,82,720
2,40,82,720
2,40,82,720
2,40,82,720
2,40,82,720
2,40,82,720
2,40,82,720
2,40,82,720
2,40,82,720
2,40,82,720
2,40,82,720
2,40,82,720
2,40,82,720
2,40,82,720
2,40,82,720
2,40,82,720
2,40,82,720
2,40,82,720
2,40,82,720
2,40,82,720
2,40,82,720
2,40,82,720
2,40,82,720
2,40,82,720
2,40,82,720
2,40,82,720
2,40,82,720
2,40,82,720
2,40,82,720
2,40,82,720
2,40,82,720
2,40,82,720
2,40,82,720
2,40,82,720
2,40,82,720
2,40,82,720
2,40,82,720
2,40,82,720
2,40,82,720
2,40,82,720
2,40,82,720
3,42,82,9216
3,42,49,120
3,42,67,24
3,42,82,24
3,42,49,120
3,42,67,24
3,42,82,24
3,42,49,120
3,42,67,24
3,42,82,24
3,42,49,120
3,42,67,24
3,42,82,24
3,42,49,120
3,42,67,24
3,42,82,24
3,42,49,120
3,42,67,24
3,42,82,24
3,42,49,120
3,42,67,24
3,42,82,24
3,42,49,120
3,42,67,24
3,42,49,216
3,42,67,24
3,42,82,24
3,42,49,120
3,42,67,24
3,42,82,24
3,42,49,120
3,42,67,24
3,42,82,24
3,42,49,120
3,42,67,24
3,42,82,24
3,42,49,120
3,42,67,24
3,42,82,24
3,42,49,120
3,42,67,24
3,42,82,24
3,42,49,120
3,42,67,24
3,42,82,24
3,42,49,120
3,42,67,24
3,42,82,24
3,42,49,120
3,42,67,24
3,42,82,24
3,42,49,120
3,42,67,24
3,42,82,24
3,42,49,120
3,42,67,24
3,42,82,24
3,42,49,120
3,42,67,24
3,42,82,24
3,42,49,120
3,42,67,24
3,42,82,24
3,42,49,120
3,42,67,24
3,42,82,24
3,42,49,120
3,42,67,24
3,42,82,24
3,42,49,120
3,42,67,24
3,42,49,216
3,42,67,24
3,42,82,24
3,42,49,120
3,42,67,24
3,42,82,24
3,42,49,120
3,42,67,24
3,42,82,24
3,42,49,120
3,42,67,24
3,42,82,24
3,42,49,120
3,42,67,24
3,42,82,24
3,42,49,120
3,42,67,24
3,42,82,24
3,42,49,120
3,42,67,24
3,42,82,24
3,42,49,120
3,42,67,24
3,42,82,24
3,42,49,120
3,42,67,24
3,42,82,24
3,42,49,120
3,42,67,24
3,42,82,24
3,42,49,120
3,42,67,24
3,42,82,24
3,42,49,120
3,42,67,24
3,42,82,24
3,42,49,120
3,42,67,24
3,42,82,24
3,42,49,120
3,42,67,24
3,42,82,24
3,42,49,120
3,42,67,24
3,42,82,24
3,42,49,120
3,42,67,24
3,42,82,24
3,42,49,120
3,42,67,24
3,42,82,24
3,42,49,120
3,42,67,24
3,42,82,24
3,42,49,120
3,42,67,24
3,42,82,24
3,42,49,120
3,42,67,24
3,42,82,24
3,42,49,120
3,42,67,24
3,42,82,24
3,42,49,120
3,42,67,24
3,42,82,24
3,42,49,120
3,42,67,24
3,42,82,24
3,42,49,120
3,42,67,24
3,42,82,24
3,42,49,120
3,42,67,24
3,42,82,24
3,42,49,120
3,42,67,24
3,42,82,24
3,42,49,120
3,42,67,24
3,42,82,24
3,42,49,120
3,46,67,24
3,42,82,24
3,42,49,120
3,42,67,24
3,42,82,24
3,42,49,120
3,42,67,24
3,42,82,24
3,42,49,120
3,42,67,24
3,42,82,24
3,42,49,120
3,42,67,24
3,42,49,216
3,42,67,24
3,42,82,24
3,42,49,120
3,42,67,24
3,42,82,24
3,42,49,120
3,42,67,24
3,42,82,24
3,42,49,120
3,42,67,24
3,42,82,24
3,42,49,120
3,42,67,24
3,42,82,24
3,42,49,120
3,42,67,24
3,42,82,24
3,42,49,120
3,42,67,24
3,42,82,24
3,42,49,120
3,42,67,24
3,42,82,24
3,42,49,120
3,42,67,24
3,42,82,24
3,42,49,120
3,42,67,24
3,42,82,24
3,42,49,120
3,42,67,24
3,42,82,24
3,42,49,120
3,42,67,24
3,42,82,24
3,42,49,120
3,42,67,24
3,42,82,24
3,42,49,120
3,42,67,24
3,42,82,24
3,42,49,120
3,42,67,24
3,42,82,24
3,42,49,120
3,42,67,24
3,42,82,24
3,42,49,120
3,42,67,24
3,42,82,24
3,42,49,120
3,42,67,24
3,42,82,24
3,42,49,120
3,42,67,24
3,42,82,24
3,42,49,120
3,42,67,24
3,42,82,24
3,42,49,120
3,42,67,24
3,42,82,24
3,42,49,120
3,42,67,24
3,42,82,24
3,42,49,120
3,42,67,24
3,42,82,24
3,42,49,120
3,42,67,24
3,42,82,24
3,42,49,120
3,42,67,24
3,42,82,24
3,42,49,120
3,42,67,24
3,42,82,24
3,42,82,1080
3,42,67,24
3,42,59,24
3,42,82,120
3,42,77,120
3,42,82,120
3,46,67,24
3,44,77,24
3,42,82,120
3,46,67,24
3,44,79,24
3,42,82,120
3,46,67,24
3,44,79,24
3,42,82,120
3,46,67,24
3,44,77,24
3,42,82,120
3,46,67,24
3,44,77,24
3,42,82,120
3,46,67,24
3,44,79,24
3,42,82,120
3,46,67,24
3,44,79,24
3,42,82,120
3,46,67,24
3,44,77,24
3,42,82,120
3,46,67,24
3,44,77,24
3,42,82,120
3,46,67,24
3,44,79,24
3,42,82,120
3,46,67,24
3,44,79,24
3,42,82,120
3,46,67,24
3,44,77,24
3,42,82,120
3,46,67,24
3,44,77,24
3,46,67,216
3,44,79,24
3,42,82,120
3,46,67,24
3,44,79,24
3,42,82,120
3,46,67,24
3,44,77,24
3,42,82,120
3,46,67,24
3,44,77,24
3,42,82,120
3,46,67,24
3,44,79,24
3,42,82,120
3,46,67,24
3,44,79,24
3,42,82,120
3,46,67,24
3,44,77,24
3,42,82,120
3,46,67,24
3,44,77,24
3,42,82,120
3,46,67,24
3,44,79,24
3,42,82,120
3,46,67,24
3,44,79,24
3,42,82,120
3,46,67,24
3,44,77,24
3,42,82,120
3,46,67,24
3,44,77,24
3,42,82,120
3,46,67,24
3,44,79,24
3,42,82,120
3,46,67,24
3,44,79,24
3,42,82,120
3,46,67,24
3,44,77,24
3,42,82,888
3,42,78,120
3,42,82,120
3,42,49,120
3,42,67,24
3,42,82,24
3,42,84,120
3,42,82,120
3,42,49,120
3,42,67,24
3,42,82,24
3,42,49,120
3,42,67,24
3,42,82,24
3,42,49,120
3,42,67,24
3,42,82,24
3,42,49,120
3,42,67,24
3,42,82,24
3,42,49,120
3,42,67,24
3,42,82,24
3,42,49,120
3,42,67,24
3,42,82,24
3,42,49,120
3,42,67,24
3,42,82,24
3,42,49,120
3,42,67,24
3,42,82,24
3,42,49,120
3,42,67,24
3,42,82,24
3,42,49,120
3,42,67,24
3,42,82,24
3,42,49,120
3,42,67,24
3,42,82,24
3,42,49,120
3,42,67,24
3,42,82,24
3,42,49,120
3,42,67,24
3,42,82,24
3,42,49,120
3,42,67,24
3,42,82,24
3,42,49,120
3,42,67,24
3,42,82,24
3,42,49,120
3,42,67,24
3,42,82,24
3,42,49,120
3,42,67,24
3,42,82,24
3,42,49,120
3,42,67,24
3,42,82,24
3,42,49,120
3,42,67,24
3,42,82,24
3,42,49,120
3,42,67,24
3,42,82,24
3,42,49,120
3,42,67,24
3,42,82,24
3,42,49,120
3,42,67,24
3,42,82,24
3,42,49,120
3,42,67,24
3,42,82,24
3,42,49,120
3,42,67,24
3,42,82,24
3,42,49,120
3,42,67,24
3,42,82,24
3,42,49,120
3,42,67,24
3,42,82,24
3,42,49,120
3,42,67,24
3,42,82,24
3,42,49,120
3,42,67,24
3,42,82,24
3,42,49,120
3,42,67,24
3,42,82,24
3,42,49,120
3,42,67,24
3,42,82,24
3,42,49,120
3,42,67,24
3,42,82,24
3,42,49,120
