track,note,velocity,time
1,36,91,3072
1,36,91,338
1,36,91,332
1,36,91,338
1,36,91,332
1,36,91,338
1,36,91,332
1,36,91,338
1,36,91,332
1,36,91,338
1,36,91,332
1,36,91,338
1,36,91,332
1,36,91,338
1,36,91,332
1,36,91,338
1,36,91,332
1,36,91,338
1,36,91,332
1,36,91,338
1,36,91,140
1,36,91,140
1,36,91,338
1,36,91,332
1,36,91,338
1,36,91,332
1,36,91,338
1,36,91,332
1,36,91,338
1,36,91,332
1,36,91,338
1,36,91,332
1,36,91,338
1,36,91,332
1,36,91,338
1,36,91,332
1,36,91,338
1,36,91,332
1,36,91,338
1,36,91,332
1,36,91,338
1,36,91,332
1,36,91,338
1,36,91,332
1,36,91,338
1,36,91,332
1,36,91,338
1,36,91,332
1,36,91,338
1,36,91,332
1,36,91,338
1,36,91,332
1,36,91,338
1,36,91,332
1,36,91,338
1,36,91,332
1,36,91,338
1,36,91,332
1,36,91,338
1,36,91,332
1,36,91,338
1,36,91,332
1,36,91,338
1,36,91,332
1,36,91,338
1,36,91,332
1,36,91,338
1,36,91,332
1,36,91,338
1,36,91,332
1,36,91,338
1,36,91,332
1,36,91,338
1,36,91,332
1,36,91,338
1,36,91,332
1,36,91,338
1,36,91,332
1,36,91,338
1,36,91,332
1,36,91,338
1,36,91,332
1,36,91,338
1,36,91,332
1,36,91,338
1,36,91,332
1,36,91,338
1,36,91,332
1,36,91,338
1,36,91,332
1,36,91,338
1,36,91,332
1,36,91,338
1,36,91,332
1,36,91,338
1,36,91,332
1,36,91,338
1,36,91,332
1,36,91,146
1,36,91,146
1,36,91,332
1,36,91,146
1,36,91,146
1,36,91,332
1,36,91,338
1,36,91,332
1,36,91,338
1,36,91,332
1,36,91,338
1,36,91,332
1,36,91,338
1,36,91,0
1,36,91,338
1,36,91,332
1,36,91,338
1,36,91,332
1,36,91,338
1,36,91,332
1,36,91,146
1,36,91,140
1,36,91,332
1,36,91,338
1,36,91,332
1,36,91,338
1,36,91,332
1,36,91,338
1,36,91,332
1,36,91,338
1,36,91,332
1,36,91,338
1,36,91,332
1,36,91,338
1,36,91,332
1,36,91,338
1,36,91,332
1,36,91,338
1,36,91,332
1,36,91,338
1,36,91,332
1,36,91,338
1,36,91,332
1,36,91,338
1,36,91,332
1,36,91,338
1,36,91,332
1,36,91,338
1,36,91,332
1,36,91,338
1,36,91,332
1,36,91,338
1,36,91,332
1,36,91,338
1,36,91,332
1,36,91,338
1,36,91,332
1,36,91,338
1,36,91,332
1,36,91,338
1,36,91,332
1,36,91,338
1,36,91,332
1,36,91,338
1,36,91,332
1,36,91,338
1,36,91,332
1,36,91,338
1,36,91,332
1,36,91,338
1,36,91,332
1,36,91,338
1,36,91,332
1,36,91,338
1,36,91,332
1,36,91,338
1,36,91,332
1,36,91,338
1,36,91,332
1,36,91,338
1,36,91,332
1,36,91,338
1,36,91,332
1,36,91,338
1,36,91,332
1,36,91,338
1,36,91,332
1,36,91,338
1,36,91,332
1,36,91,338
1,36,91,332
1,36,91,338
1,36,91,332
1,36,91,338
1,36,91,332
1,36,91,338
1,36,91,332
1,36,91,338
1,36,91,332
1,36,91,338
1,36,91,332
1,36,91,338
1,36,91,332
1,36,91,338
1,36,91,332
1,36,91,338
1,36,91,332
1,36,91,338
1,36,91,332
1,36,91,338
1,36,91,332
1,36,91,338
1,36,91,332
1,36,91,338
1,36,91,332
1,36,91,338
1,36,91,332
1,36,91,338
1,36,91,332
1,36,91,338
1,36,91,332
1,36,91,338
1,36,91,332
1,36,91,338
1,36,91,332
1,36,91,338
1,36,91,332
1,36,91,338
1,36,91,332
1,36,91,338
1,36,91,332
1,36,91,338
1,36,91,332
1,36,91,338
1,36,91,332
1,36,91,338
1,36,91,332
1,36,91,338
1,36,91,332
1,36,91,338
1,36,91,332
1,36,91,338
1,36,91,332
1,36,91,338
1,36,91,332
1,36,91,338
1,36,91,332
1,36,91,338
1,36,91,332
1,36,91,338
1,36,91,332
1,36,91,338
1,36,91,332
1,36,91,338
1,36,91,332
1,36,91,338
1,36,91,332
1,36,91,338
1,36,91,332
1,36,91,338
1,36,91,332
1,36,91,338
1,36,91,332
1,36,91,338
1,36,91,332
1,36,91,338
1,36,91,332
1,36,91,338
1,36,91,332
1,36,91,338
1,36,91,332
1,36,91,338
1,36,91,332
1,36,91,338
1,36,91,332
1,36,91,338
1,36,91,332
1,36,91,338
1,36,91,332
1,36,91,338
1,36,91,332
1,36,91,338
1,36,91,332
1,36,91,338
1,36,91,332
1,36,91,338
1,36,91,332
1,36,91,338
1,36,91,332
1,36,91,146
1,36,91,140
1,36,91,332
1,36,91,338
1,36,91,332
1,36,91,338
1,36,91,332
1,36,91,338
1,36,91,332
1,36,91,338
1,36,91,332
1,36,91,338
1,36,91,332
1,36,91,338
1,36,91,332
1,36,91,338
1,36,91,332
1,36,91,338
1,36,91,332
1,36,91,338
1,36,91,332
1,36,91,338
1,36,91,332
1,36,91,338
1,36,91,332
1,36,91,338
1,36,91,332
1,36,91,338
1,36,91,332
1,36,91,338
1,36,91,332
1,36,91,338
1,36,91,332
1,36,91,338
1,36,91,332
1,36,91,338
1,36,91,332
1,36,91,338
1,36,91,332
1,36,91,338
1,36,91,332
1,36,91,338
1,36,91,332
1,36,91,338
1,36,91,332
1,36,91,338
1,36,91,332
1,36,91,338
1,36,91,332
1,36,91,338
1,36,91,332
1,36,91,338
1,36,91,332
1,36,91,338
1,36,91,332
1,36,91,338
1,36,91,332
1,36,91,338
1,36,91,140
1,36,91,140
1,36,91,338
1,36,91,332
1,36,91,338
1,36,91,332
1,36,91,338
1,36,91,332
1,36,91,338
1,36,91,332
1,36,91,338
1,36,91,332
1,36,91,338
1,36,91,332
1,36,91,338
1,36,91,332
1,36,91,338
1,36,91,332
1,36,91,338
1,36,91,332
1,36,91,338
1,36,91,332
1,36,91,338
1,36,91,332
1,36,91,338
1,36,91,332
1,36,91,338
1,36,91,332
1,36,91,338
1,36,91,332
1,36,91,338
1,36,91,332
1,36,91,338
1,36,91,332
1,36,91,338
1,36,91,332
1,36,91,338
1,36,91,332
1,36,91,338
1,36,91,332
1,36,91,338
1,36,91,332
1,36,91,338
1,36,91,332
1,36,91,338
1,36,91,332
1,36,91,338
1,36,91,332
1,36,91,338
2,40,91,4224
2,40,91,126
2,40,91,510
2,40,91,702
2,40,91,702
2,40,91,702
2,40,91,702
2,40,91,702
2,40,91,702
2,40,91,702
2,40,91,702
2,40,91,702
2,40,91,702
2,40,91,702
2,40,91,702
2,40,91,702
2,40,91,702
2,40,91,702
2,40,91,702
2,40,91,702
2,40,91,702
2,40,91,702
2,40,91,702
2,40,91,702
2,40,91,702
2,40,91,702
2,40,91,702
2,40,91,702
2,40,91,702
2,40,91,702
2,40,91,702
2,40,91,702
2,40,91,702
2,40,91,702
2,40,91,702
2,40,91,702
2,40,91,702
2,40,91,702
2,40,91,702
2,40,91,702
2,40,91,702
2,40,91,702
2,40,91,702
2,40,91,702
2,40,91,702
2,40,91,702
2,40,91,702
2,40,91,702
2,40,91,702
2,40,91,702
2,40,91,126
2,40,91,510
2,40,91,702
2,40,91,702
2,40,91,702
2,40,91,702
2,40,91,702
2,40,91,702
2,40,91,702
2,40,91,222
2,40,91,414
2,40,91,702
2,40,91,702
2,40,91,702
2,40,91,702
2,40,91,702
2,40,91,702
2,40,91,318
2,40,91,126
2,40,91,126
2,40,91,126
2,40,91,510
2,40,91,702
2,40,91,702
2,40,91,702
2,40,91,702
2,40,91,702
2,40,91,702
2,40,91,702
2,40,91,702
2,40,91,702
2,40,91,702
2,40,91,702
2,40,91,702
2,40,91,702
2,40,91,702
2,40,91,702
2,40,91,702
2,40,91,702
2,40,91,702
2,40,91,702
2,40,91,702
2,40,91,702
2,40,91,702
2,40,91,702
2,40,91,702
2,40,91,702
2,40,91,702
2,40,91,702
2,40,81,222
2,40,91,414
2,40,91,702
2,40,91,702
2,40,91,702
2,40,91,702
2,40,91,702
2,40,91,702
2,40,91,702
2,40,64,126
2,40,81,30
2,40,91,414
2,40,91,702
2,40,91,702
2,40,91,702
2,40,91,702
2,40,91,702
2,40,91,702
2,40,91,702
2,40,91,702
2,40,91,702
2,40,91,702
2,40,91,318
2,40,91,126
2,40,91,126
2,40,91,126
2,40,91,1278
2,40,91,1470
2,40,91,1470
2,40,91,702
2,40,91,702
2,40,91,126
2,40,91,1278
2,40,91,1470
2,40,91,1470
2,40,91,702
2,40,91,702
2,40,91,126
2,40,91,510
2,40,91,702
2,40,91,702
2,40,91,702
2,40,91,702
2,40,91,702
2,40,91,702
2,40,91,702
2,40,75,126
2,40,84,30
2,40,91,414
2,40,91,702
2,40,91,702
2,40,91,702
2,40,91,702
2,40,91,702
2,40,91,702
2,40,78,414
2,40,91,222
2,40,93,126
2,40,91,510
2,40,91,702
2,40,91,702
2,40,91,702
2,40,91,702
2,40,91,702
2,40,91,702
2,40,91,510
2,40,91,126
2,40,91,126
2,40,91,510
2,40,91,702
2,40,91,702
2,40,91,702
2,40,91,702
2,40,91,702
2,40,91,510
2,40,91,510
2,40,55,222
2,40,91,222
2,40,91,510
2,40,91,702
2,40,91,702
2,40,91,702
2,40,91,702
2,40,91,702
2,40,91,702
2,40,91,702
2,40,91,702
2,40,91,702
2,40,91,702
2,40,91,702
2,40,91,702
2,40,91,702
2,40,91,702
2,40,91,318
2,40,69,126
2,40,75,30
2,40,91,30
2,40,87,30
2,40,87,30
2,40,91,510
2,40,91,702
2,40,91,702
2,40,91,702
2,40,91,702
2,40,91,702
2,40,91,702
2,40,75,702
2,40,91,126
2,40,91,510
2,40,91,702
2,40,91,702
2,40,75,702
2,40,91,126
2,40,91,510
2,40,91,702
2,40,91,702
2,40,91,318
2,40,69,126
2,40,75,30
2,40,91,30
2,40,87,126
3,42,100,3072
3,42,52,50
3,42,75,42
3,42,22,60
3,42,100,46
3,42,52,34
3,42,78,50
3,42,22,62
3,42,100,46
3,42,49,40
3,42,78,46
3,42,22,60
3,42,52,520
3,42,75,42
3,42,22,60
3,42,100,46
3,42,31,34
3,42,87,50
3,42,22,62
3,42,100,46
3,42,49,40
3,42,78,46
3,42,22,60
3,42,100,46
3,42,55,54
3,42,75,42
3,42,22,68
3,42,100,46
3,42,52,50
3,42,75,42
3,42,22,60
3,42,100,46
3,42,31,34
3,42,87,50
3,42,22,62
3,42,100,46
3,42,49,40
3,42,78,46
3,42,22,60
3,42,100,46
3,42,55,54
3,42,75,42
3,42,22,68
3,42,100,46
3,42,52,50
3,42,75,42
3,42,22,60
3,42,100,46
3,42,31,34
3,42,87,50
3,42,22,62
3,42,100,46
3,42,49,40
3,42,78,46
3,42,22,60
3,42,100,46
3,42,55,54
3,42,75,42
3,42,22,68
3,42,100,46
3,42,52,50
3,42,75,42
3,42,22,60
3,42,100,46
3,42,31,34
3,42,87,50
3,42,22,62
3,42,100,46
3,42,49,40
3,42,78,46
3,42,22,60
3,42,100,46
3,42,55,54
3,42,75,42
3,42,22,68
3,42,100,46
3,42,52,50
3,42,75,42
3,42,22,60
3,42,100,46
3,42,31,34
3,42,87,50
3,42,22,62
3,42,100,46
3,42,49,40
3,42,78,46
3,42,22,60
3,42,100,46
3,42,55,54
3,42,75,42
3,42,22,68
3,42,100,46
3,42,52,50
3,42,75,42
3,42,22,60
3,42,100,46
3,42,31,34
3,42,87,50
3,42,22,62
3,42,100,46
3,42,49,40
3,42,78,46
3,42,22,60
3,42,100,46
3,42,55,54
3,42,75,42
3,42,22,68
3,42,52,136
3,42,75,42
3,42,22,60
3,42,100,46
3,42,31,34
3,42,87,50
3,42,22,62
3,42,100,46
3,42,49,40
3,42,78,46
3,42,22,60
3,42,100,46
3,42,55,54
3,42,75,42
3,42,22,68
3,42,100,46
3,42,52,50
3,42,75,42
3,42,22,60
3,42,100,46
3,42,31,34
3,42,87,50
3,42,22,62
3,42,100,46
3,42,49,40
3,42,78,46
3,42,22,60
3,42,100,46
3,42,55,54
3,42,75,42
3,42,22,68
3,42,100,46
3,42,52,50
3,42,75,42
3,42,22,60
3,42,100,46
3,42,31,34
3,42,87,50
3,42,22,62
3,42,100,46
3,42,49,40
3,42,78,46
3,42,22,60
3,42,100,46
3,42,55,54
3,42,75,42
3,42,22,68
3,42,100,46
3,42,52,50
3,42,75,42
3,42,22,60
3,42,100,46
3,42,31,34
3,42,87,50
3,42,22,62
3,42,100,46
3,42,49,40
3,42,78,46
3,42,22,60
3,42,100,46
3,42,55,54
3,42,75,42
3,42,22,68
3,42,100,46
3,42,52,50
3,42,75,42
3,42,22,60
3,42,100,46
3,42,31,34
3,42,87,50
3,42,22,62
3,42,100,46
3,42,49,40
3,42,78,46
3,42,22,60
3,42,100,46
3,42,55,54
3,42,75,42
3,42,22,68
3,42,100,46
3,42,52,50
3,42,75,42
3,42,22,60
3,42,100,46
3,42,31,34
3,42,87,50
3,42,22,62
3,42,100,46
3,42,49,40
3,42,78,46
3,42,22,60
3,42,100,46
3,42,55,54
3,42,75,42
3,42,22,68
3,42,100,46
3,42,52,50
3,42,75,42
3,42,22,60
3,42,100,46
3,42,31,34
3,42,87,50
3,42,22,62
3,42,100,46
3,42,49,40
3,42,78,46
3,42,22,60
3,42,100,46
3,42,55,54
3,42,75,42
3,42,22,68
3,42,100,46
3,42,52,50
3,42,75,42
3,42,22,60
3,42,100,46
3,42,31,34
3,42,87,50
3,42,22,62
3,42,100,46
3,42,49,40
3,42,78,46
3,42,22,60
3,42,100,46
3,42,55,54
3,42,75,42
3,42,22,68
3,42,52,136
3,42,75,42
3,42,22,60
3,42,100,46
3,42,31,34
3,42,87,50
3,42,22,62
3,42,100,46
3,42,49,40
3,42,78,46
3,42,22,60
3,42,100,46
3,42,55,54
3,42,75,42
3,42,22,68
3,42,100,46
3,42,52,50
3,42,75,42
3,42,22,60
3,42,100,46
3,42,31,34
3,42,87,50
3,42,22,62
3,42,100,46
3,42,49,40
3,42,78,46
3,42,22,60
3,42,100,46
3,42,55,54
3,42,75,42
3,42,22,68
3,42,100,46
3,42,52,50
3,42,75,42
3,42,22,60
3,42,100,46
3,42,31,34
3,42,87,50
3,42,22,62
3,42,100,46
3,42,49,40
3,42,78,46
3,42,22,60
3,42,100,46
3,42,55,54
3,42,75,42
3,42,22,68
3,42,100,46
3,42,52,50
3,42,75,42
3,42,22,60
3,42,100,46
3,42,31,34
3,42,87,50
3,42,22,62
3,42,100,46
3,42,49,40
3,42,78,46
3,42,22,60
3,42,100,46
3,42,55,54
3,42,75,42
3,42,22,68
3,42,100,46
3,42,52,50
3,42,75,42
3,42,22,60
3,42,100,46
3,42,31,34
3,42,87,50
3,42,22,62
3,42,100,46
3,42,49,40
3,42,78,46
3,42,22,60
3,42,100,46
3,42,55,54
3,42,75,42
3,42,22,68
3,42,100,46
3,42,52,50
3,42,75,42
3,42,22,60
3,42,100,46
3,42,31,34
3,42,87,50
3,42,22,62
3,42,100,46
3,42,49,40
3,42,78,46
3,42,22,60
3,42,100,46
3,42,55,54
3,46,75,42
3,42,100,166
3,42,52,50
3,42,75,42
3,42,22,60
3,42,100,46
3,42,31,34
3,42,87,50
3,42,22,62
3,42,100,46
3,42,49,40
3,42,78,46
3,42,22,60
3,42,100,46
3,42,55,54
3,42,75,42
3,42,22,68
3,42,100,46
3,42,52,50
3,42,75,42
3,42,22,60
3,42,100,46
3,42,31,34
3,42,87,50
3,42,22,62
3,42,100,46
3,42,49,40
3,42,78,46
3,42,22,60
3,42,100,46
3,42,55,54
3,42,75,42
3,42,22,68
3,42,100,46
3,42,52,50
3,42,75,42
3,42,22,60
3,42,100,46
3,42,31,34
3,42,87,50
3,42,22,62
3,42,100,46
3,42,49,40
3,42,78,46
3,42,22,60
3,42,100,46
3,42,55,54
3,42,75,42
3,42,22,68
3,42,100,46
3,42,52,50
3,42,75,42
3,42,22,60
3,42,100,46
3,42,31,34
3,42,87,50
3,42,22,62
3,42,100,46
3,42,49,40
