track,note,velocity,time
1,40,102,382
1,42,102,112
1,44,102,132
1,45,102,0
1,47,102,44
1,48,102,12
1,48,102,182
1,47,102,2
1,43,102,12
1,40,102,52
1,36,102,24
1,50,102,386
1,50,102,296
1,49,102,20
1,45,102,0
1,42,102,14
1,38,102,32
1,40,102,578
1,40,102,108
1,52,102,60
1,40,102,12
1,40,102,176
1,40,102,664
1,42,102,186
1,44,102,186
1,45,102,4
1,47,102,44
1,48,102,32
1,48,102,196
1,47,102,12
1,43,102,32
1,40,102,32
1,36,102,52
1,50,102,456
1,50,102,252
1,49,102,24
1,45,102,0
1,42,102,52
1,38,102,52
1,40,102,608
1,40,102,92
1,52,102,80
1,40,102,14
1,40,102,184
1,49,102,664
1,49,102,156
1,49,102,162
1,47,102,650
1,49,102,8
1,50,102,0
1,50,102,118
1,50,102,0
1,50,102,656
1,49,102,96
1,47,102,0
1,47,102,0
1,47,102,0
1,49,102,660
1,50,102,20
1,52,102,20
1,52,102,110
1,52,102,168
1,52,102,0
1,51,102,96
1,49,102,28
1,49,102,146
1,49,102,160
1,47,102,658
1,49,102,4
1,50,102,18
1,50,102,148
1,50,102,152
1,50,102,660
1,49,102,96
1,47,102,0
1,47,102,134
1,47,102,0
1,49,102,656
1,50,102,12
1,52,102,0
1,52,102,0
1,52,102,0
1,52,102,576
1,51,102,96
1,49,102,0
1,49,102,136
1,49,102,176
1,47,102,660
1,49,102,8
1,50,102,0
1,50,102,118
1,50,102,0
1,50,102,648
1,49,102,96
1,47,102,64
1,47,102,0
1,47,102,0
1,49,102,652
1,50,102,12
1,52,102,0
1,52,102,0
1,52,102,0
1,52,102,648
1,51,102,96
1,49,102,2
1,49,102,160
1,49,102,124
1,47,102,640
1,49,102,0
1,50,102,12
1,50,102,130
1,50,102,160
1,50,102,660
1,49,102,96
1,47,102,0
1,47,102,126
1,47,102,0
1,49,102,648
1,50,102,24
1,52,102,0
1,52,102,104
1,52,102,104
1,52,102,40
1,52,102,0
1,40,102,656
1,42,102,112
1,44,102,132
1,45,102,0
1,47,102,44
1,48,102,10
1,48,102,180
1,47,102,0
1,43,102,12
1,40,102,52
1,36,102,24
1,50,102,388
1,50,102,296
1,49,102,20
1,45,102,96
1,42,102,14
1,38,102,32
1,40,102,580
1,40,102,108
1,52,102,60
1,40,102,14
1,40,102,176
1,40,102,664
1,42,102,184
1,44,102,184
1,45,102,4
1,47,102,44
1,48,102,30
1,48,102,196
1,47,102,12
1,43,102,32
1,40,102,32
1,36,102,52
1,50,102,456
1,50,102,252
1,49,102,24
1,45,102,0
1,42,102,52
1,38,102,52
1,40,102,608
1,40,102,92
1,52,102,80
1,40,102,12
1,40,102,184
1,40,102,664
1,42,102,112
1,44,102,132
1,45,102,0
1,47,102,42
1,48,102,10
1,48,102,182
1,47,102,0
1,43,102,12
1,40,102,52
1,36,102,24
1,50,102,388
1,50,102,296
1,49,102,20
1,45,102,0
1,42,102,16
1,38,102,32
1,40,102,578
1,40,102,108
1,52,102,60
1,40,102,12
1,40,102,176
1,40,102,664
1,42,102,184
1,44,102,184
1,45,102,4
1,47,102,44
1,48,102,30
1,48,102,196
1,47,102,12
1,43,102,32
1,40,102,32
1,36,102,52
1,50,102,456
1,50,102,252
1,49,102,24
1,45,102,0
1,42,102,52
1,38,102,52
1,40,102,608
1,40,102,92
1,52,102,80
1,40,102,10
1,40,102,184
1,49,102,664
1,49,102,156
1,49,102,160
1,47,102,648
1,49,102,8
1,50,102,0
1,50,102,118
1,50,102,0
1,50,102,656
1,49,102,96
1,47,102,0
1,47,102,0
1,47,102,0
1,49,102,660
1,50,102,20
1,52,102,20
1,52,102,112
1,52,102,168
1,52,102,0
1,51,102,96
1,49,102,28
1,49,102,148
1,49,102,160
1,47,102,660
1,49,102,4
1,50,102,20
1,50,102,148
1,50,102,152
1,50,102,660
1,49,102,96
1,47,102,0
1,47,102,136
1,47,102,0
1,49,102,656
1,50,102,12
1,52,102,0
1,52,102,0
1,52,102,0
1,52,102,576
1,51,102,96
1,49,102,0
1,49,102,134
1,49,102,176
1,47,102,660
1,49,102,8
1,50,102,0
1,50,102,120
1,50,102,0
1,50,102,648
1,49,102,94
1,47,102,64
1,47,102,0
1,47,102,0
1,49,102,652
1,50,102,12
1,52,102,0
1,52,102,0
1,52,102,0
1,52,102,648
1,51,102,98
1,49,102,4
1,49,102,158
1,49,102,124
1,47,102,640
1,49,102,0
1,50,102,12
1,50,102,130
1,50,102,160
1,50,102,660
1,49,102,96
1,47,102,0
1,47,102,126
1,47,102,0
1,49,102,648
1,50,102,24
1,52,102,0
1,52,102,104
1,52,102,104
1,52,102,40
1,52,102,0
1,40,102,654
1,42,102,112
1,44,102,132
1,45,102,0
1,47,102,44
1,48,102,12
1,48,102,180
1,47,102,0
1,43,102,12
1,40,102,52
1,36,102,24
1,50,102,386
1,50,102,296
1,49,102,20
1,45,102,96
1,42,102,14
1,38,102,32
1,40,102,580
1,40,102,108
1,52,102,60
1,40,102,12
1,40,102,176
1,40,102,664
1,42,102,184
1,44,102,184
1,45,102,2
1,47,102,42
1,48,102,32
1,48,102,198
1,47,102,12
1,43,102,32
1,40,102,32
1,36,102,52
1,50,102,456
1,50,102,252
1,49,102,24
1,45,102,0
1,42,102,52
1,38,102,52
1,40,102,608
1,40,102,92
1,52,102,80
1,40,102,12
1,40,102,184
1,40,102,664
1,42,102,112
1,44,102,132
1,45,102,0
1,47,102,44
1,48,102,10
1,48,102,180
1,47,102,2
1,43,102,12
1,40,102,52
1,36,102,22
1,50,102,388
1,50,102,296
1,49,102,20
1,45,102,96
1,42,102,16
1,38,102,32
1,40,102,580
1,40,102,108
1,52,102,60
1,40,102,12
1,40,102,174
1,40,102,664
1,42,102,184
1,44,102,184
1,45,102,2
1,47,102,42
1,48,102,32
1,48,102,194
1,47,102,12
1,43,102,32
1,40,102,32
1,36,102,52
1,50,102,456
1,50,102,252
1,49,102,24
1,45,102,0
1,42,102,52
1,38,102,52
1,40,102,608
1,40,102,92
1,52,102,80
1,40,102,12
1,40,102,184
1,40,102,664
1,42,102,112
1,44,102,132
1,45,102,0
1,47,102,44
1,48,102,12
1,48,102,182
1,47,102,0
1,43,102,10
1,40,102,52
1,36,102,24
1,50,102,388
1,50,102,296
1,49,102,20
1,45,102,96
1,42,102,14
1,38,102,32
1,40,102,580
1,40,102,108
1,52,102,60
1,40,102,10
1,40,102,176
1,40,102,664
1,42,102,184
1,44,102,184
1,45,102,2
1,47,102,44
1,48,102,32
1,48,102,196
1,47,102,12
1,43,102,30
1,40,102,32
1,36,102,52
1,50,102,456
1,50,102,252
1,49,102,24
1,45,102,0
1,42,102,52
1,38,102,52
1,40,102,608
1,40,102,92
1,52,102,80
1,40,102,12
1,40,102,184
1,40,102,664
1,42,102,112
1,44,102,132
1,45,102,0
1,47,102,44
1,48,102,12
1,48,102,180
1,47,102,0
1,43,102,10
1,40,102,50
1,36,102,24
1,50,102,388
1,50,102,298
1,49,102,20
1,45,102,96
1,42,102,16
1,38,102,32
1,40,102,580
1,40,102,110
1,52,102,62
1,40,102,12
1,40,102,176
1,40,102,664
1,42,102,184
1,44,102,184
1,45,102,4
1,47,102,44
1,48,102,32
1,48,102,196
1,47,102,14
1,43,102,32
1,40,102,34
1,36,102,52
1,50,102,456
1,50,102,252
1,49,102,24
1,45,102,0
1,42,102,52
1,38,102,52
1,40,102,608
1,40,102,94
1,52,102,80
1,40,102,12
1,40,102,184
1,40,102,666
1,42,102,112
1,44,102,132
1,45,102,0
1,47,102,44
1,48,102,12
1,48,102,182
1,47,102,0
1,43,102,10
1,40,102,52
1,36,102,24
1,50,102,388
1,50,102,296
1,49,102,20
1,45,102,0
1,42,102,16
1,38,102,30
1,40,102,578
1,40,102,108
1,52,102,60
1,40,102,10
1,40,102,176
1,40,102,664
1,42,102,184
1,44,102,184
1,45,102,2
1,47,102,44
1,48,102,30
1,48,102,196
1,47,102,0
1,43,102,12
1,40,102,52
1,36,102,24
1,50,102,386
1,50,102,296
1,49,102,20
1,45,102,96
1,42,102,16
1,38,102,32
2,59,109,382
2,64,109,0
2,68,99,0
2,61,115,56
2,64,114,0
2,69,114,0
2,64,109,108
2,68,112,0
2,66,112,44
2,69,113,0
2,68,100,52
2,71,113,0
2,64,109,68
2,67,118,0
2,72,123,0
2,62,118,14
2,67,115,0
2,71,109,0
2,62,115,80
2,66,109,0
2,69,118,0
2,57,112,64
2,62,114,0
2,66,94,0
2,59,109,84
2,64,104,0
2,68,96,0
2,59,109,746
2,64,109,0
2,68,99,0
2,61,115,56
2,64,114,0
2,69,114,0
2,64,109,110
2,68,112,0
2,66,112,44
2,69,113,0
2,68,100,52
2,71,113,0
2,64,109,68
2,67,118,0
2,72,123,0
2,62,118,16
2,67,115,0
2,71,109,0
2,62,115,82
2,66,109,0
2,69,118,0
2,57,112,64
2,62,114,0
2,66,94,0
2,59,109,84
2,64,104,0
2,68,96,0
2,68,115,0
2,69,106,176
2,71,120,124
2,76,120,190
2,80,86,10768
2,81,92,180
2,83,94,160
2,88,104,140
2,59,109,1536
2,64,109,0
2,68,99,0
2,61,115,56
2,64,114,0
2,69,114,0
2,64,109,108
2,68,112,0
2,66,112,44
2,69,113,0
2,68,100,52
2,71,113,0
2,64,109,68
2,67,118,0
2,72,123,0
2,62,115,16
2,67,112,0
2,71,106,0
2,62,112,80
2,66,106,0
2,69,115,0
2,57,109,64
2,62,111,0
2,66,91,0
2,59,106,84
2,64,101,0
2,68,93,0
2,59,106,744
2,64,106,0
2,68,96,0
2,61,112,56
2,64,111,0
2,69,111,0
2,64,106,108
2,68,109,0
2,66,109,44
2,69,110,0
2,68,97,52
2,71,110,0
2,64,106,68
2,67,115,0
2,72,120,0
2,62,115,16
2,67,112,0
2,71,106,0
2,62,112,80
2,66,106,0
2,69,115,0
2,57,109,64
2,62,111,0
2,66,91,0
2,59,106,84
2,64,101,0
2,68,93,0
2,59,109,8
2,64,109,0
2,68,99,0
2,61,115,56
2,64,114,0
2,69,114,0
2,64,109,108
2,68,112,0
2,66,112,44
2,69,113,0
2,68,100,52
2,71,113,0
2,64,109,68
2,67,118,0
2,72,123,0
2,62,115,16
2,67,112,0
2,71,106,0
2,62,112,80
2,66,106,0
2,69,115,0
2,57,109,64
2,62,111,0
2,66,91,0
2,59,106,84
2,64,101,0
2,68,93,0
2,59,106,746
2,64,106,0
2,68,96,0
2,61,112,56
2,64,111,0
2,69,111,0
2,64,106,108
2,68,109,0
2,66,109,44
2,69,110,0
2,68,97,52
2,71,110,0
2,64,106,66
2,67,115,0
2,72,120,0
2,62,115,16
2,67,112,0
2,71,106,0
2,62,112,80
2,66,106,0
2,69,115,0
2,57,109,64
2,62,111,0
2,66,91,0
2,59,106,84
2,64,101,0
2,68,93,0
2,80,91,396
2,81,81,170
2,83,97,124
2,88,88,188
2,68,94,10094
2,80,91,2
2,81,104,176
2,69,99,20
2,83,99,160
2,71,101,8
2,88,109,134
2,76,106,6
2,59,109,1536
2,64,109,0
2,68,99,0
2,61,115,56
2,64,114,0
2,69,114,0
2,64,109,108
2,68,112,0
2,66,112,42
2,69,113,0
2,68,100,52
2,71,113,0
2,64,109,68
2,67,118,0
2,72,123,0
2,62,115,16
2,67,112,0
2,71,106,0
2,62,112,80
2,66,106,0
2,69,115,0
2,57,109,64
2,62,111,0
2,66,91,0
2,59,106,84
2,64,101,0
2,68,93,0
2,59,106,744
2,64,106,0
2,68,96,0
2,61,112,56
2,64,111,0
2,69,111,0
2,64,106,108
2,68,109,0
2,66,109,44
2,69,110,0
2,68,97,50
2,71,110,0
2,64,106,68
2,67,115,0
2,72,120,0
2,62,115,16
2,67,112,0
2,71,106,0
2,62,112,80
2,66,106,0
2,69,115,0
2,57,109,64
2,62,111,0
2,66,91,0
2,59,106,86
2,64,101,0
2,68,93,0
2,59,109,8
2,64,109,0
2,68,99,0
2,61,115,54
2,64,114,0
2,69,114,0
2,64,109,108
2,68,112,0
2,66,112,44
2,69,113,0
2,68,100,52
2,71,113,0
2,64,109,68
2,67,118,0
2,72,123,0
2,62,115,14
2,67,112,0
2,71,106,0
2,62,112,80
2,66,106,0
2,69,115,0
2,57,109,64
2,62,111,0
2,66,91,0
2,59,106,84
2,64,101,0
2,68,93,0
2,59,106,746
2,64,106,0
2,68,96,0
2,61,112,56
2,64,111,0
2,69,111,0
2,64,106,108
2,68,109,0
2,66,109,44
2,69,110,0
2,68,97,52
2,71,110,0
2,64,106,68
2,67,115,0
2,72,120,0
2,62,115,16
2,67,112,0
2,71,106,0
2,62,112,80
2,66,106,0
2,69,115,0
2,57,109,64
2,62,111,0
2,66,91,0
2,59,106,84
2,64,101,0
2,68,93,0
2,80,91,396
2,81,81,168
2,83,97,124
2,88,88,188
2,59,109,8
2,64,109,0
2,68,99,0
2,61,115,56
2,64,114,0
2,69,114,0
2,64,109,22
2,68,112,0
2,66,112,44
2,69,113,0
2,68,100,52
2,71,113,0
2,64,109,68
2,67,118,0
2,72,123,0
2,62,115,16
2,67,112,0
2,71,106,0
2,62,112,80
2,66,106,0
2,69,115,0
2,57,109,64
2,62,111,0
2,66,91,0
2,59,106,84
2,64,101,0
2,68,93,0
2,59,106,742
2,64,106,0
2,68,96,0
2,61,112,56
2,64,111,0
2,69,111,0
2,64,106,108
2,68,109,0
2,66,109,44
2,69,110,0
2,68,97,52
2,71,110,0
2,64,106,68
2,67,115,0
2,72,120,0
2,62,115,16
2,67,112,0
2,71,106,0
2,62,112,80
2,66,106,0
2,69,115,0
2,57,109,64
2,62,111,0
2,66,91,0
2,59,106,84
2,64,101,0
2,68,93,0
2,80,91,396
2,81,81,168
2,83,97,124
2,88,88,188
2,59,109,8
2,64,109,0
2,68,99,0
2,61,115,56
2,64,114,0
2,69,114,0
2,64,109,24
2,68,112,0
2,66,112,44
2,69,113,0
2,68,100,52
2,71,113,0
2,64,109,68
2,67,118,0
2,72,123,0
2,62,115,14
2,67,112,0
2,71,106,0
2,62,112,82
2,66,106,0
2,69,115,0
2,57,109,64
2,62,111,0
2,66,91,0
2,59,106,86
2,64,101,0
2,68,93,0
2,59,106,746
2,64,106,0
2,68,96,0
2,61,112,56
2,64,111,0
2,69,111,0
2,64,106,108
2,68,109,0
2,66,109,44
2,69,110,0
2,68,97,52
2,71,110,0
2,64,106,68
2,67,115,0
2,72,120,0
2,62,115,16
2,67,112,0
2,71,106,0
2,62,112,80
2,66,106,0
2,69,115,0
2,57,109,64
2,62,111,0
2,66,91,0
2,59,106,84
2,64,101,0
2,68,93,0
2,80,91,394
2,81,81,168
2,83,97,126
2,88,88,186
2,59,109,8
2,64,109,0
2,68,99,0
2,61,115,56
2,64,114,0
2,69,114,0
2,64,109,24
2,68,112,0
2,66,112,44
2,69,113,0
2,68,100,52
2,71,113,0
2,64,109,68
2,67,118,0
2,72,123,0
2,62,118,16
2,67,115,0
2,71,109,0
2,62,115,80
2,66,109,0
2,69,118,0
2,57,112,64
2,62,114,0
2,66,94,0
2,59,109,84
2,64,104,0
2,68,96,0
2,59,109,744
2,64,109,0
2,68,99,0
2,61,115,56
2,64,114,0
2,69,114,0
2,64,109,108
2,68,112,0
2,66,112,44
2,69,113,0
2,68,100,52
2,71,113,0
2,64,109,68
2,67,118,0
2,72,123,0
2,62,118,16
2,67,115,0
2,71,109,0
2,62,115,80
2,66,109,0
2,69,118,0
2,57,112,64
2,62,114,0
2,66,94,0
2,59,91,274
2,64,91,0
2,68,81,0
3,72,90,1726
3,76,90,0
3,79,90,14
3,74,90,164
3,78,90,0
3,81,90,0
3,64,90,0
3,68,90,0
3,71,90,0
3,76,90,0
3,72,90,80
3,76,90,0
3,79,90,0
3,74,90,152
3,78,90,0
3,81,90,0
3,64,90,0
3,68,90,0
3,71,90,0
3,76,90,0
3,92,79,12
3,93,79,96
3,95,79,82
3,100,74,190
3,64,73,26
3,68,66,0
3,71,70,0
3,73,67,0
3,66,77,100
