track,note,velocity,time
1,28,91,8432
1,28,70,116
1,28,90,70
1,38,93,56
1,40,66,16
1,28,61,2
1,28,95,70
1,28,91,62
1,28,70,116
1,28,90,70
1,38,93,56
1,40,66,16
1,28,61,2
1,28,92,70
1,33,91,62
1,33,70,116
1,33,90,70
1,42,93,56
1,43,66,16
1,33,61,2
1,33,95,70
1,31,91,62
1,31,70,116
1,31,90,70
1,41,93,56
1,42,66,16
1,31,61,2
1,31,92,70
1,28,91,62
1,28,70,116
1,28,90,70
1,38,93,56
1,40,66,16
1,28,61,2
1,28,95,70
1,50,93,62
1,52,66,16
1,28,70,2
1,28,90,70
1,38,93,56
1,40,66,16
1,28,61,2
1,28,92,70
1,33,91,62
1,33,70,116
1,33,90,70
1,42,93,56
1,43,66,16
1,33,61,2
1,33,95,70
1,31,91,62
1,31,70,116
1,31,90,70
1,41,93,56
1,42,66,16
1,31,61,2
1,31,92,70
1,28,91,62
1,28,70,116
1,28,90,70
1,38,93,56
1,40,66,16
1,28,61,2
1,28,95,70
1,28,91,62
1,28,70,116
1,28,90,70
1,38,93,56
1,40,66,16
1,28,61,2
1,28,92,70
1,33,91,62
1,33,70,116
1,33,90,70
1,42,93,56
1,43,66,16
1,33,61,2
1,33,95,70
1,31,91,62
1,31,70,116
1,31,90,70
1,41,93,56
1,42,66,16
1,31,61,2
1,31,92,70
1,28,91,62
1,28,70,116
1,28,90,70
1,38,93,56
1,40,66,16
1,28,61,2
1,28,95,70
1,50,93,62
1,52,66,16
1,28,70,2
1,28,90,70
1,38,93,56
1,40,66,16
1,28,61,2
1,28,92,70
1,33,91,62
1,33,70,116
1,33,90,70
1,42,93,56
1,43,66,16
1,33,61,2
1,33,95,70
1,31,91,62
1,31,70,116
1,31,90,70
1,41,93,56
1,42,66,16
1,31,61,2
1,31,92,70
1,28,91,62
1,28,70,116
1,28,90,70
1,38,93,56
1,40,66,16
1,28,61,2
1,28,95,70
1,28,91,62
1,28,70,116
1,28,90,70
1,38,93,56
1,40,66,16
1,28,61,2
1,28,92,70
1,33,91,62
1,33,70,116
1,33,90,70
1,42,93,56
1,43,66,16
1,33,61,2
1,33,95,70
1,31,91,62
1,31,70,116
1,31,90,70
1,41,93,56
1,42,66,16
1,31,61,2
1,31,92,70
1,28,91,62
1,28,70,116
1,28,90,70
1,38,93,56
1,40,66,16
1,28,61,2
1,28,95,70
1,50,93,62
1,52,66,16
1,28,70,2
1,28,90,70
1,38,93,56
1,40,66,16
1,28,61,2
1,28,92,70
1,33,91,62
1,33,70,116
1,33,90,70
1,42,93,56
1,43,66,16
1,33,61,2
1,33,95,70
1,31,91,62
1,31,70,116
1,31,90,70
1,41,93,56
1,42,66,16
1,31,61,2
1,31,92,70
1,28,91,62
1,28,70,116
1,28,90,70
1,38,93,56
1,40,66,16
1,28,61,2
1,28,95,70
1,28,91,62
1,28,70,116
1,28,90,70
1,38,93,56
1,40,66,16
1,28,61,2
1,28,92,70
1,33,91,62
1,33,70,116
1,33,90,70
1,42,93,56
1,43,66,16
1,33,61,2
1,33,95,70
1,31,91,62
1,31,70,116
1,31,90,70
1,41,93,56
1,42,66,16
1,31,61,2
1,31,92,70
1,28,91,62
1,28,70,116
1,28,90,70
1,38,93,56
1,40,66,16
1,28,61,2
1,28,95,70
1,50,93,62
1,52,66,16
1,28,70,2
1,28,90,70
1,38,93,56
1,40,66,16
1,28,61,2
1,28,92,70
1,33,91,62
1,33,70,116
1,33,90,70
1,42,93,56
1,43,66,16
1,33,61,2
1,33,95,70
1,31,91,62
1,31,70,116
1,31,90,70
1,41,93,56
1,42,66,16
1,31,61,2
1,31,92,70
1,28,91,62
1,28,70,116
1,28,90,70
1,38,93,56
1,40,66,16
1,28,61,2
1,28,95,70
1,28,91,62
1,28,70,116
1,28,90,70
1,38,93,56
1,40,66,16
1,28,61,2
1,28,92,70
1,33,91,62
1,33,70,116
1,33,90,70
1,42,93,56
1,43,66,16
1,33,61,2
1,33,95,70
1,31,91,62
1,31,70,116
1,31,90,70
1,41,93,56
1,42,66,16
1,31,61,2
1,31,92,70
1,28,91,62
1,28,70,116
1,28,90,70
1,38,93,56
1,40,66,16
1,28,61,2
1,28,95,70
1,28,91,62
1,28,70,116
1,28,90,70
1,38,93,56
1,40,66,16
1,28,61,2
1,28,92,70
1,33,91,62
1,33,70,116
1,33,90,70
1,42,93,56
1,43,66,16
1,33,61,2
1,33,95,70
1,31,91,62
1,31,70,116
1,31,90,70
1,41,93,56
1,42,66,16
1,31,61,2
1,31,92,70
1,28,91,62
1,28,70,116
1,28,90,70
1,38,93,56
1,40,66,16
1,28,61,2
1,28,95,70
1,28,91,62
1,28,70,116
1,28,90,70
1,38,93,56
1,40,66,16
1,28,61,2
1,28,92,70
1,33,91,62
1,33,70,116
1,33,90,70
1,42,93,56
1,43,66,16
1,33,61,2
1,33,95,70
1,31,91,62
1,31,70,116
1,31,90,70
1,41,93,56
1,42,66,16
1,31,61,2
1,31,92,70
1,28,91,62
1,28,70,116
1,28,90,70
1,38,93,56
1,40,66,16
1,28,61,2
1,28,95,70
1,28,91,62
1,28,70,116
1,28,90,70
1,38,93,56
1,40,66,16
1,28,61,2
1,28,92,70
1,28,91,1598
1,28,70,116
1,28,90,70
1,38,93,56
1,40,66,16
1,28,61,2
1,28,95,70
1,28,91,62
1,28,70,116
1,28,90,70
1,38,93,56
1,40,66,16
1,28,61,2
1,28,92,70
1,33,91,62
1,33,70,116
1,33,90,70
1,42,93,56
1,43,66,16
1,33,61,2
1,33,95,70
1,31,91,62
1,31,70,116
1,31,90,70
1,41,93,56
1,42,66,16
1,31,61,2
1,31,92,70
1,28,91,62
1,28,70,116
1,28,90,70
1,38,93,56
1,40,66,16
1,28,61,2
1,28,95,70
1,50,93,62
1,52,66,16
1,28,70,2
1,28,90,70
1,38,93,56
1,40,66,16
1,28,61,2
1,28,92,70
1,33,91,62
1,33,70,116
1,33,90,70
1,42,93,56
1,43,66,16
1,33,61,2
1,33,95,70
1,31,91,62
1,31,70,116
1,31,90,70
1,41,93,56
1,42,66,16
1,31,61,2
1,31,92,70
1,28,91,62
1,28,70,116
1,28,90,70
1,38,93,56
1,40,66,16
1,28,61,2
1,28,95,70
1,28,91,62
1,28,70,116
1,28,90,70
1,38,93,56
1,40,66,16
1,28,61,2
1,28,92,70
1,33,91,62
1,33,70,116
1,33,90,70
1,42,93,56
1,43,66,16
1,33,61,2
1,33,95,70
1,31,91,62
1,31,70,116
1,31,90,70
1,41,93,56
1,42,66,16
1,31,61,2
1,31,92,70
1,28,91,62
1,28,70,116
1,28,90,70
1,38,93,56
1,40,66,16
1,28,61,2
1,28,95,70
1,50,93,62
1,52,66,16
1,28,70,2
1,28,90,70
1,38,93,56
1,40,66,16
1,28,61,2
1,28,92,70
1,33,91,62
1,33,70,116
1,33,90,70
1,42,93,56
1,43,66,16
1,33,61,2
1,33,95,70
1,31,91,62
1,31,70,116
1,31,90,70
1,41,93,56
1,42,66,16
1,31,61,2
1,31,92,70
1,28,91,62
1,28,70,116
1,28,90,70
1,38,93,56
1,40,66,16
1,28,61,2
1,28,95,70
1,28,91,62
1,28,70,116
1,28,90,70
1,38,93,56
1,40,66,16
1,28,61,2
1,28,92,70
1,33,91,62
1,33,70,116
1,33,90,70
1,42,93,56
1,43,66,16
1,33,61,2
1,33,95,70
1,31,91,62
1,31,70,116
1,31,90,70
1,41,93,56
1,42,66,16
1,31,61,2
1,31,92,70
1,28,91,62
1,28,70,116
1,28,90,70
1,38,93,56
1,40,66,16
1,28,61,2
1,28,95,70
1,50,93,62
1,52,66,16
1,28,70,2
1,28,90,70
1,38,93,56
1,40,66,16
1,28,61,2
1,28,92,70
1,33,91,62
1,33,70,116
1,33,90,70
1,42,93,56
1,43,66,16
1,33,61,2
1,33,95,70
1,31,91,62
1,31,70,116
1,31,90,70
1,41,93,56
1,42,66,16
1,31,61,2
1,31,92,70
1,28,91,62
1,28,70,116
1,28,90,70
1,38,93,56
1,40,66,16
1,28,61,2
1,28,95,70
1,28,91,62
1,28,70,116
1,28,90,70
1,38,93,56
1,40,66,16
1,28,61,2
1,28,92,70
1,33,91,62
1,33,70,116
1,33,90,70
1,42,93,56
1,43,66,16
1,33,61,2
1,33,95,70
1,31,91,62
1,31,70,116
1,31,90,70
1,41,93,56
1,42,66,16
1,31,61,2
1,31,92,70
1,28,91,62
1,28,70,116
1,28,90,70
1,38,93,56
1,40,66,16
1,28,61,2
1,28,95,70
1,50,93,62
1,52,66,16
1,28,70,2
1,28,90,70
1,38,93,56
1,40,66,16
1,28,61,2
1,28,92,70
1,33,91,62
1,33,70,116
1,33,90,70
1,42,93,56
1,43,66,16
1,33,61,2
1,33,95,70
1,31,91,62
1,31,70,116
1,31,90,70
1,41,93,56
1,42,66,16
1,31,61,2
1,31,92,70
1,28,91,62
1,28,70,116
1,28,90,70
1,38,93,56
1,40,66,16
1,28,61,2
1,28,95,70
1,28,91,62
1,28,70,116
1,28,90,70
1,38,93,56
1,40,66,16
1,28,61,2
1,28,92,70
1,33,91,62
1,33,70,116
1,33,90,70
1,42,93,56
1,43,66,16
1,33,61,2
1,33,95,70
1,31,91,62
1,31,70,116
1,31,90,70
1,41,93,56
1,42,66,16
1,31,61,2
1,31,92,70
1,28,91,62
1,28,70,116
1,28,90,70
1,38,93,56
1,40,66,16
1,28,61,2
1,28,95,70
1,28,91,62
1,28,70,116
1,28,90,70
1,38,93,56
1,40,66,16
1,28,61,2
1,28,92,70
1,33,91,62
1,33,70,116
1,33,90,70
1,42,93,56
1,43,66,16
1,33,61,2
1,33,95,70
1,31,91,62
1,31,70,116
1,31,90,70
1,41,93,56
1,42,66,16
1,31,61,2
1,31,92,70
1,35,91,62
1,35,52,40
1,35,69,74
1,38,91,68
1,38,70,40
1,40,91,170
1,52,70,192
1,40,52,20
1,40,69,74
1,33,91,68
1,45,65,0
1,31,91,130
1,43,65,0
1,38,91,322
1,37,31,334
1,36,31,28
1,35,46,34
1,33,46,18
1,35,91,34
1,35,52,40
1,35,69,74
1,38,91,68
1,38,70,40
1,40,91,170
1,52,70,192
1,40,52,20
1,40,69,74
1,33,91,68
1,45,65,0
1,31,91,130
1,43,65,0
1,38,91,322
1,37,31,334
1,36,31,28
1,35,46,34
1,33,46,18
1,35,91,34
1,35,52,40
1,35,69,74
1,38,91,68
1,38,70,40
1,40,91,170
1,52,70,192
1,40,52,20
1,40,69,74
1,33,91,68
1,45,65,0
1,31,91,130
1,43,65,0
1,38,91,322
1,37,31,334
1,36,31,28
1,35,46,34
1,33,46,18
1,35,91,34
1,35,52,40
1,35,69,74
1,38,91,68
1,38,70,40
1,40,91,170
1,52,70,192
1,40,52,20
1,40,69,74
1,33,91,68
1,45,65,0
1,31,91,130
1,43,65,0
1,38,91,322
1,37,31,334
1,36,31,28
1,35,46,34
1,33,46,18
1,28,91,34
1,28,70,116
1,28,90,70
1,38,93,56
1,40,66,16
1,28,61,2
1,28,95,70
1,28,91,62
1,28,70,116
1,28,90,70
1,38,93,56
1,40,66,16
1,28,61,2
1,28,92,70
1,33,91,62
1,33,70,116
1,33,90,70
1,42,93,56
1,43,66,16
1,33,61,2
1,33,95,70
1,31,91,62
1,31,70,116
1,31,90,70
1,41,93,56
1,42,66,16
1,31,61,2
1,31,92,70
1,28,91,62
1,28,70,116
1,28,90,70
1,38,93,56
1,40,66,16
1,28,61,2
1,28,95,70
1,50,93,62
1,52,66,16
1,28,70,2
1,28,90,70
1,38,93,56
1,40,66,16
1,28,61,2
1,28,92,70
1,33,91,62
1,33,70,116
1,33,90,70
1,42,93,56
1,43,66,16
1,33,61,2
1,33,95,70
1,31,91,62
1,31,70,116
1,31,90,70
1,41,93,56
1,42,66,16
1,31,61,2
1,31,92,70
1,28,91,62
1,28,70,116
1,28,90,70
1,38,93,56
1,40,66,16
1,28,61,2
1,28,95,70
1,28,91,62
1,28,70,116
1,28,90,70
1,38,93,56
1,40,66,16
1,28,61,2
1,28,92,70
1,33,91,62
1,33,70,116
1,33,90,70
1,42,93,56
1,43,66,16
1,33,61,2
1,33,95,70
1,31,91,62
1,31,70,116
1,31,90,70
1,41,93,56
1,42,66,16
1,31,61,2
1,31,92,70
1,28,91,62
1,28,70,116
1,28,90,70
1,38,93,56
1,40,66,16
1,28,61,2
1,28,95,70
1,50,93,62
1,52,66,16
1,28,70,2
1,28,90,70
1,38,93,56
1,40,66,16
1,28,61,2
1,28,92,70
1,33,91,62
1,33,70,116
1,33,90,70
1,42,93,56
1,43,66,16
1,33,61,2
1,33,95,70
1,31,91,62
1,31,70,116
1,31,90,70
1,41,93,56
1,42,66,16
1,31,61,2
1,31,92,70
1,56,100,62
1,54,79,92
1,52,61,74
1,50,69,70
1,40,81,62
1,50,91,58
1,40,61,8
1,50,91,70
1,40,91,16
1,47,74,58
1,50,73,62
1,52,82,30
1,38,93,96
1,40,66,16
1,28,61,2
1,28,92,70
1,50,98,62
1,50,82,18
1,47,91,18
1,50,100,30
1,47,91,110
1,45,93,116
1,43,69,90
1,40,100,28
1,31,72,96
1,41,93,56
1,42,66,16
1,31,61,2
1,31,92,70
1,56,100,62
1,54,79,92
1,52,61,74
1,50,69,70
1,40,81,62
1,50,91,58
1,40,61,8
1,50,91,70
1,40,91,16
1,47,74,58
1,50,73,62
1,52,82,30
1,38,93,96
1,40,66,16
1,28,61,2
1,28,92,70
1,50,98,62
1,50,82,18
1,47,91,18
1,50,100,30
1,47,91,110
1,45,93,116
1,43,69,90
1,40,100,28
1,31,72,96
1,41,93,56
1,42,66,16
1,31,61,2
1,31,92,70
1,56,100,62
1,54,79,92
1,52,61,74
1,50,69,70
1,40,81,62
1,50,91,58
1,40,61,8
1,50,91,70
1,40,91,16
1,47,74,58
1,50,73,62
1,52,82,30
1,38,93,96
1,40,66,16
1,28,61,2
1,28,92,70
1,50,98,62
1,50,82,18
1,47,91,18
1,50,100,30
1,47,91,110
1,45,93,116
1,43,69,90
1,40,100,28
1,31,72,96
1,41,93,56
1,42,66,16
1,31,61,2
1,31,92,70
1,56,100,62
1,54,79,92
1,52,61,74
1,50,69,70
1,40,81,62
1,50,91,58
1,40,61,8
1,50,91,70
1,40,91,16
1,47,74,58
1,50,73,62
1,52,82,30
1,38,93,96
1,40,66,16
1,28,61,2
1,28,92,70
1,50,98,62
1,50,82,18
1,47,91,18
1,50,100,30
1,47,91,110
1,45,93,116
1,43,69,90
1,40,100,28
1,31,72,96
1,41,93,56
1,42,66,16
1,31,61,2
1,31,92,70
1,28,91,62
1,28,70,116
1,28,90,70
1,38,93,56
1,40,66,16
1,28,61,2
1,28,95,70
1,28,91,62
1,28,70,116
1,28,90,70
1,38,93,56
1,40,66,16
1,28,61,2
1,28,92,70
1,33,91,62
1,33,70,116
1,33,90,70
1,42,93,56
1,43,66,16
1,33,61,2
1,33,95,70
1,31,91,62
1,31,70,116
1,31,90,70
1,41,93,56
1,42,66,16
1,31,61,2
1,31,92,70
1,28,91,62
1,28,70,116
1,28,90,70
1,38,93,56
1,40,66,16
1,28,61,2
1,28,95,70
1,50,93,62
1,52,66,16
1,28,70,2
1,28,90,70
1,38,93,56
1,40,66,16
1,28,61,2
1,28,92,70
1,33,91,62
1,33,70,116
1,33,90,70
1,42,93,56
1,43,66,16
1,33,61,2
1,33,95,70
1,31,91,62
1,31,70,116
1,31,90,70
1,41,93,56
1,42,66,16
1,31,61,2
1,31,92,70
1,28,91,62
1,28,70,116
1,28,90,70
1,38,93,56
1,40,66,16
1,28,61,2
1,28,95,70
1,28,91,62
1,28,70,116
1,28,90,70
1,38,93,56
1,40,66,16
1,28,61,2
1,28,92,70
1,33,91,62
1,33,70,116
1,33,90,70
1,42,93,56
1,43,66,16
1,33,61,2
1,33,95,70
1,31,91,62
1,31,70,116
1,31,90,70
1,41,93,56
1,42,66,16
1,31,61,2
1,31,92,70
1,28,91,62
1,28,70,116
1,28,90,70
