track,note,velocity,time
1,64,73,4396
1,68,63,0
1,59,73,0
1,61,73,0
1,68,64,244
1,59,73,4
1,64,72,0
1,61,62,0
1,68,62,236
1,59,73,4
1,61,62,0
1,64,64,0
1,68,59,244
1,61,64,4
1,59,64,0
1,64,69,0
1,61,64,244
1,68,69,0
1,64,64,0
1,59,64,4
1,63,66,16
1,66,67,0
1,59,64,0
1,61,64,0
1,63,67,144
1,66,63,0
1,59,73,0
1,61,73,0
1,66,64,244
1,59,73,4
1,63,72,0
1,61,62,0
1,66,62,236
1,59,73,4
1,61,62,0
1,63,64,0
1,59,61,252
1,68,52,24
1,64,73,0
1,61,73,0
1,59,64,8
1,61,64,0
1,66,74,0
1,63,64,0
1,64,73,340
1,66,63,0
1,58,73,0
1,61,73,0
1,66,64,244
1,58,73,4
1,64,72,0
1,61,62,0
1,66,62,236
1,58,73,4
1,61,62,0
1,64,64,0
1,66,59,244
1,61,64,4
1,58,64,0
1,64,69,0
1,61,64,244
1,66,69,0
1,64,64,0
1,58,64,4
1,64,73,152
1,59,73,0
1,56,64,0
1,58,68,32
1,66,75,0
1,61,73,4
1,64,73,1012
1,68,63,0
1,59,73,0
1,61,73,0
1,68,64,244
1,59,73,4
1,64,72,0
1,61,62,0
1,68,62,236
1,59,73,4
1,61,62,0
1,64,64,0
1,68,59,244
1,61,64,4
1,59,64,0
1,64,69,0
1,61,64,244
1,68,69,0
1,64,64,0
1,59,64,4
1,63,66,16
1,66,67,0
1,59,64,0
1,61,64,0
1,63,67,144
1,66,63,0
1,59,73,0
1,61,73,0
1,66,64,244
1,59,73,4
1,63,72,0
1,61,62,0
1,66,62,236
1,59,73,4
1,61,62,0
1,63,64,0
1,59,61,252
1,68,52,24
1,64,73,0
1,61,73,0
1,59,64,8
1,61,64,0
1,66,74,0
1,63,64,0
1,64,73,340
1,66,63,0
1,58,73,0
1,61,73,0
1,66,64,244
1,58,73,4
1,64,72,0
1,61,62,0
1,66,62,236
1,58,73,4
1,61,62,0
1,64,64,0
1,66,59,244
1,61,64,4
1,58,64,0
1,64,69,0
1,61,64,244
1,66,69,0
1,64,64,0
1,58,64,4
1,64,73,152
1,59,73,0
1,56,64,0
1,58,68,32
1,66,75,0
1,61,73,4
1,64,73,1012
1,68,63,0
1,59,73,0
1,61,73,0
1,68,64,244
1,59,73,4
1,64,72,0
1,61,62,0
1,68,62,236
1,59,73,4
1,61,62,0
1,64,64,0
1,68,59,244
1,61,64,4
1,59,64,0
1,64,69,0
1,61,64,244
1,68,69,0
1,64,64,0
1,59,64,4
1,63,66,16
1,66,67,0
1,59,64,0
1,61,64,0
1,63,67,144
1,66,63,0
1,59,73,0
1,61,73,0
1,66,64,244
1,59,73,4
1,63,72,0
1,61,62,0
1,66,62,236
1,59,73,4
1,61,62,0
1,63,64,0
1,59,61,252
1,68,52,24
1,64,73,0
1,61,73,0
1,59,64,8
1,61,64,0
1,66,74,0
1,63,64,0
1,64,73,340
1,66,63,0
1,58,73,0
1,61,73,0
1,66,64,244
1,58,73,4
1,64,72,0
1,61,62,0
1,66,62,236
1,58,73,4
1,61,62,0
1,64,64,0
1,66,59,244
1,61,64,4
1,58,64,0
1,64,69,0
1,61,64,244
1,66,69,0
1,64,64,0
1,58,64,4
1,64,73,152
1,59,73,0
1,56,64,0
1,58,68,32
1,66,75,0
1,61,73,4
1,64,73,1012
1,68,63,0
1,59,73,0
1,61,73,0
1,68,64,244
1,59,73,4
1,64,72,0
1,61,62,0
1,68,62,236
1,59,73,4
1,61,62,0
1,64,64,0
1,68,59,244
1,61,64,4
1,59,64,0
1,64,69,0
1,61,64,244
1,68,69,0
1,64,64,0
1,59,64,4
1,63,66,16
1,66,67,0
1,59,64,0
1,61,64,0
1,63,67,144
1,66,63,0
1,59,73,0
1,61,73,0
1,66,64,244
1,59,73,4
1,63,72,0
1,61,62,0
1,66,62,236
1,59,73,4
1,61,62,0
1,63,64,0
1,59,61,252
1,68,52,24
1,64,73,0
1,61,73,0
1,59,64,8
1,61,64,0
1,66,74,0
1,63,64,0
1,64,73,340
1,66,63,0
1,58,73,0
1,61,73,0
1,66,64,244
1,58,73,4
1,64,72,0
1,61,62,0
1,66,62,236
1,58,73,4
1,61,62,0
1,64,64,0
1,66,59,244
1,61,64,4
1,58,64,0
1,64,69,0
1,61,64,244
1,66,69,0
1,64,64,0
1,58,64,4
1,64,73,152
1,59,73,0
1,56,64,0
1,58,68,32
1,66,75,0
1,61,73,4
1,64,73,1012
1,68,63,0
1,59,73,0
1,61,73,0
1,68,64,244
1,59,73,4
1,64,72,0
1,61,62,0
1,68,62,236
1,59,73,4
1,61,62,0
1,64,64,0
1,68,59,244
1,61,64,4
1,59,64,0
1,64,69,0
1,61,64,244
1,68,69,0
1,64,64,0
1,59,64,4
1,63,66,16
1,66,67,0
1,59,64,0
1,61,64,0
1,63,67,144
1,66,63,0
1,59,73,0
1,61,73,0
1,66,64,244
1,59,73,4
1,63,72,0
1,61,62,0
1,66,62,236
1,59,73,4
1,61,62,0
1,63,64,0
1,59,61,252
1,68,52,24
1,64,73,0
1,61,73,0
1,59,64,8
1,61,64,0
1,66,74,0
1,63,64,0
1,64,73,340
1,66,63,0
1,58,73,0
1,61,73,0
1,66,64,244
1,58,73,4
1,64,72,0
1,61,62,0
1,66,62,236
1,58,73,4
1,61,62,0
1,64,64,0
1,66,59,244
1,61,64,4
1,58,64,0
1,64,69,0
1,61,64,244
1,66,69,0
1,64,64,0
1,58,64,4
1,64,73,152
1,59,73,0
1,56,64,0
1,58,68,32
1,66,75,0
1,61,73,4
1,64,73,1012
1,68,63,0
1,59,73,0
1,61,73,0
1,68,64,244
1,59,73,4
1,64,72,0
1,61,62,0
1,68,62,236
1,59,73,4
1,61,62,0
1,64,64,0
1,68,59,244
1,61,64,4
1,59,64,0
1,64,69,0
1,61,64,244
1,68,69,0
1,64,64,0
1,59,64,4
1,63,66,16
1,66,67,0
1,59,64,0
1,61,64,0
1,63,67,144
1,66,63,0
1,59,73,0
1,61,73,0
1,66,64,244
1,59,73,4
1,63,72,0
1,61,62,0
1,66,62,236
1,59,73,4
1,61,62,0
1,63,64,0
1,59,61,252
1,68,52,24
1,64,73,0
1,61,73,0
1,59,64,8
1,61,64,0
1,66,74,0
1,63,64,0
1,64,73,340
1,66,63,0
1,58,73,0
1,61,73,0
1,66,64,244
1,58,73,4
1,64,72,0
1,61,62,0
1,66,62,236
1,58,73,4
1,61,62,0
1,64,64,0
1,66,59,244
1,61,64,4
1,58,64,0
1,64,69,0
1,61,64,244
1,66,69,0
1,64,64,0
1,58,64,4
1,64,73,152
1,59,73,0
1,56,64,0
1,58,68,32
1,66,75,0
1,61,73,4
1,67,71,824
1,62,73,0
1,64,60,4
1,59,73,0
1,62,64,28
1,59,64,4
1,67,63,0
1,64,60,4
1,59,73,332
1,67,64,0
1,64,64,4
1,62,60,0
1,64,64,432
1,61,73,0
1,59,70,0
1,69,73,4
1,62,73,12
1,67,71,0
1,59,73,4
1,64,60,0
1,62,64,28
1,67,63,4
1,59,64,0
1,64,60,4
1,59,70,332
1,64,68,0
1,61,64,0
1,69,73,4
1,59,64,108
1,64,60,0
1,69,52,4
1,61,64,0
1,63,73,156
1,68,71,0
1,59,73,4
1,64,60,0
1,63,64,28
1,68,63,4
1,59,64,0
1,64,60,4
1,59,73,236
1,68,64,0
1,64,64,4
1,63,60,0
1,67,71,2468
1,62,73,0
1,64,60,4
1,59,73,0
1,62,64,28
1,59,64,4
1,67,63,0
1,64,60,4
1,59,73,332
1,67,64,0
1,64,64,4
1,62,60,0
1,64,64,432
1,61,73,0
1,59,70,0
1,69,73,4
1,62,73,12
1,67,71,0
1,59,73,4
1,64,60,0
1,62,64,28
1,67,63,4
1,59,64,0
1,64,60,4
1,59,70,332
1,64,68,0
1,61,64,0
1,69,73,4
1,59,64,108
1,64,60,0
1,69,52,4
1,61,64,0
1,63,73,156
1,68,71,0
1,59,73,4
1,64,60,0
1,63,64,28
1,68,63,4
1,59,64,0
1,64,60,4
1,59,73,236
1,68,64,0
1,64,64,4
1,63,60,0
1,64,73,2656
1,68,63,0
1,59,73,0
1,61,73,0
1,68,64,244
1,59,73,4
1,64,72,0
1,61,62,0
1,68,62,236
1,59,73,4
1,61,62,0
1,64,64,0
1,68,59,244
1,61,64,4
1,59,64,0
1,64,69,0
1,61,64,244
1,68,69,0
1,64,64,0
1,59,64,4
1,63,66,16
1,66,67,0
1,59,64,0
1,61,64,0
1,63,67,144
1,66,63,0
1,59,73,0
1,61,73,0
1,66,64,244
1,59,73,4
1,63,72,0
1,61,62,0
1,66,62,236
1,59,73,4
1,61,62,0
1,63,64,0
1,59,61,252
1,68,52,24
1,64,73,0
1,61,73,0
1,59,64,8
1,61,64,0
1,66,74,0
1,63,64,0
1,64,73,340
1,66,63,0
1,58,73,0
1,61,73,0
1,66,64,244
1,58,73,4
1,64,72,0
1,61,62,0
1,66,62,236
1,58,73,4
1,61,62,0
1,64,64,0
1,66,59,244
1,61,64,4
1,58,64,0
1,64,69,0
1,61,64,244
1,66,69,0
1,64,64,0
1,58,64,4
1,64,73,152
1,59,73,0
1,56,64,0
1,58,68,32
1,66,75,0
1,61,73,4
1,64,73,1012
1,68,63,0
1,59,73,0
1,61,73,0
1,68,64,244
1,59,73,4
1,64,72,0
1,61,62,0
1,68,62,236
1,59,73,4
1,61,62,0
1,64,64,0
1,68,59,244
1,61,64,4
1,59,64,0
1,64,69,0
1,61,64,244
1,68,69,0
1,64,64,0
1,59,64,4
1,63,66,16
1,66,67,0
1,59,64,0
1,61,64,0
1,63,67,144
1,66,63,0
1,59,73,0
1,61,73,0
1,66,64,244
1,59,73,4
1,63,72,0
1,61,62,0
1,66,62,236
1,59,73,4
1,61,62,0
1,63,64,0
1,59,61,252
1,68,52,24
1,64,73,0
1,61,73,0
1,59,64,8
1,61,64,0
1,66,74,0
1,63,64,0
1,67,71,3224
1,62,73,0
1,64,60,4
1,59,73,0
1,62,64,28
1,59,64,4
1,67,63,0
1,64,60,4
1,59,73,332
1,67,64,0
1,64,64,4
1,62,60,0
1,64,64,432
1,61,73,0
1,59,70,0
1,69,73,4
1,62,73,12
1,67,71,0
1,59,73,4
1,64,60,0
1,62,64,28
1,67,63,4
1,59,64,0
1,64,60,4
1,59,70,332
1,64,68,0
1,61,64,0
1,69,73,4
1,59,64,108
1,64,60,0
1,69,52,4
1,61,64,0
1,63,73,156
1,68,71,0
1,59,73,4
1,64,60,0
1,63,64,28
1,68,63,4
1,59,64,0
1,64,60,4
1,59,73,236
1,68,64,0
1,64,64,4
1,63,60,0
1,67,71,2468
1,62,73,0
1,64,60,4
1,59,73,0
1,62,64,28
1,59,64,4
1,67,63,0
1,64,60,4
1,59,73,332
1,67,64,0
1,64,64,4
1,62,60,0
1,64,64,432
1,61,73,0
1,59,70,0
1,69,73,4
1,62,73,12
1,67,71,0
1,59,73,4
1,64,60,0
1,62,64,28
1,67,63,4
1,59,64,0
1,64,60,4
1,59,70,332
1,64,68,0
1,61,64,0
1,69,73,4
1,59,64,108
1,64,60,0
1,69,52,4
1,61,64,0
1,63,73,156
1,68,71,0
1,59,73,4
1,64,60,0
1,63,64,28
1,68,63,4
1,59,64,0
1,64,60,4
1,59,73,236
1,68,64,0
1,64,64,4
1,63,60,0
1,59,73,33188
1,57,73,0
1,62,65,0
1,66,69,0
1,66,73,100
1,58,64,0
1,61,64,4
1,56,73,4
1,58,52,136
1,61,64,0
1,66,62,4
1,56,52,0
1,66,74,140
1,57,73,4
1,62,65,0
1,59,73,0
1,58,64,108
1,61,66,0
1,56,64,4
1,66,73,0
1,56,73,128
1,66,64,0
1,58,60,4
1,61,73,4
1,66,69,160
1,62,65,0
1,57,73,0
1,59,73,0
1,58,64,100
1,66,73,0
1,61,64,4
1,56,73,4
1,61,64,136
1,58,52,0
1,56,52,4
1,66,62,0
1,66,74,140
1,57,73,4
1,59,73,0
1,62,65,0
1,58,64,108
1,54,64,0
1,59,76,136
1,56,75,0
1,61,83,148
1,58,82,0
1,56,73,4
1,66,64,0
1,58,60,4
1,61,73,4
1,59,73,160
1,57,73,0
1,62,65,0
1,66,69,0
1,66,73,100
1,58,64,0
1,61,64,4
1,56,73,4
1,58,52,136
1,61,64,0
1,66,62,4
1,56,52,0
1,66,74,140
1,57,73,4
1,62,65,0
1,59,73,0
1,58,64,108
1,61,66,0
1,56,64,4
1,66,73,0
1,56,73,128
1,66,64,0
1,58,60,4
1,61,73,4
1,66,69,160
1,62,65,0
1,57,73,0
1,59,73,0
1,58,64,52
1,66,73,0
1,61,64,4
1,56,73,4
1,66,78,56
1,60,69,0
1,57,73,0
1,64,73,4824
1,66,63,0
1,58,73,0
1,61,73,0
1,66,64,244
1,58,73,4
1,64,72,0
1,61,62,0
1,66,62,236
1,58,73,4
1,61,62,0
1,64,64,0
1,66,59,244
1,61,64,4
1,58,64,0
1,64,69,0
1,61,64,244
1,66,69,0
1,64,64,0
1,58,64,4
1,64,73,152
1,59,73,0
1,56,64,0
1,58,68,32
1,66,75,0
1,61,73,4
1,64,73,1012
1,68,63,0
1,59,73,0
1,61,73,0
1,68,64,244
1,59,73,4
1,64,72,0
1,61,62,0
1,68,62,236
1,59,73,4
1,61,62,0
1,64,64,0
1,68,59,244
1,61,64,4
1,59,64,0
1,64,69,0
1,61,64,244
1,68,69,0
1,64,64,0
1,59,64,4
1,63,66,16
1,66,67,0
1,59,64,0
1,61,64,0
1,63,67,144
1,66,63,0
1,59,73,0
1,61,73,0
1,66,64,244
1,59,73,4
1,63,72,0
1,61,62,0
1,66,62,236
1,59,73,4
1,61,62,0
1,63,64,0
1,59,61,252
1,68,52,24
1,64,73,0
1,61,73,0
1,59,64,8
1,61,64,0
1,66,74,0
1,63,64,0
1,64,73,340
1,66,63,0
1,58,73,0
1,61,73,0
1,66,64,244
1,58,73,4
1,64,72,0
1,61,62,0
1,66,62,236
1,58,73,4
1,61,62,0
1,64,64,0
1,66,59,244
1,61,64,4
1,58,64,0
1,64,69,0
1,61,64,244
1,66,69,0
1,64,64,0
1,58,64,4
1,64,73,152
1,59,73,0
1,56,64,0
1,58,68,32
1,66,75,0
1,61,73,4
1,64,73,1012
1,68,63,0
1,59,73,0
1,61,73,0
1,68,64,244
1,59,73,4
1,64,72,0
1,61,62,0
1,68,62,236
1,59,73,4
1,61,62,0
1,64,64,0
1,68,59,244
1,61,64,4
1,59,64,0
1,64,69,0
1,61,64,244
1,68,69,0
1,64,64,0
1,59,64,4
1,63,66,16
1,66,67,0
1,59,64,0
1,61,64,0
1,63,67,144
1,66,63,0
1,59,73,0
1,61,73,0
1,66,64,244
1,59,73,4
1,63,72,0
1,61,62,0
1,66,62,236
1,59,73,4
1,61,62,0
1,63,64,0
1,59,61,252
1,68,52,24
1,64,73,0
1,61,73,0
1,59,64,8
1,61,64,0
1,66,74,0
1,63,64,0
1,64,73,340
1,66,63,0
1,58,73,0
1,61,73,0
1,66,64,244
1,58,73,4
1,64,72,0
1,61,62,0
1,66,62,236
1,58,73,4
1,61,62,0
1,64,64,0
1,66,59,244
1,61,64,4
1,58,64,0
1,64,69,0
1,61,64,244
1,66,69,0
1,64,64,0
1,58,64,4
1,64,73,152
1,59,73,0
1,56,64,0
1,58,68,32
1,66,75,0
1,61,73,4
1,64,73,1012
1,68,63,0
1,59,73,0
1,61,73,0
1,68,64,244
1,59,73,4
1,64,72,0
1,61,62,0
1,68,62,236
1,59,73,4
1,61,62,0
1,64,64,0
1,68,59,244
1,61,64,4
1,59,64,0
1,64,69,0
1,61,64,244
1,68,69,0
1,64,64,0
1,59,64,4
1,63,66,16
1,66,67,0
1,59,64,0
1,61,64,0
1,63,67,144
1,66,63,0
1,59,73,0
1,61,73,0
1,66,64,244
1,59,73,4
1,63,72,0
1,61,62,0
1,66,62,236
1,59,73,4
1,61,62,0
1,63,64,0
1,59,61,252
1,68,52,24
1,64,73,0
