track,note,velocity,time
1,72,82,2862
1,65,82,0
1,69,82,0
1,62,82,0
1,67,100,114
1,74,91,0
1,62,82,0
1,71,82,0
1,74,82,80
1,65,82,0
1,70,90,0
1,67,82,0
1,67,100,114
1,69,91,0
1,76,88,0
1,72,82,0
1,69,82,104
1,74,82,0
1,72,82,0
1,77,82,0
1,76,91,58
1,64,73,0
1,67,82,0
1,72,82,0
1,72,76,44
1,67,77,0
1,76,82,0
1,64,91,0
1,74,82,90
1,71,82,0
1,67,73,0
1,62,91,0
1,72,91,42
1,60,73,2
1,74,91,44
1,62,82,4
1,64,91,44
1,67,73,0
1,72,82,0
1,76,82,0
1,62,91,32
1,67,73,2
1,71,82,0
1,74,86,2
1,62,91,30
1,67,73,2
1,71,82,0
1,74,86,2
1,91,91,58
1,79,73,2
1,89,91,44
1,77,82,4
1,76,91,40
1,64,86,2
1,60,82,0
1,88,91,2
1,53,91,0
1,57,73,0
1,84,91,158
1,72,82,4
1,81,92,44
1,69,76,0
1,62,86,28
1,59,82,2
1,52,91,2
1,55,73,0
1,74,84,0
1,86,91,0
1,65,86,776
1,62,82,2
1,57,91,2
1,60,73,0
1,84,92,0
1,72,82,0
1,88,93,62
1,76,73,0
1,84,90,58
1,72,82,0
1,81,89,78
1,69,82,0
1,67,86,224
1,62,82,2
1,86,91,0
1,56,91,2
1,60,73,0
1,74,82,0
1,33,127,14230
1,21,127,0
1,64,82,10754
1,72,82,0
1,67,73,0
1,76,84,0
1,64,82,44
1,76,82,0
1,72,82,0
1,67,82,0
1,64,82,10
1,76,60,0
1,72,82,0
1,67,82,0
1,64,91,222
1,76,82,0
1,72,91,0
1,67,88,0
1,74,82,38
1,71,82,0
1,67,73,0
1,62,91,0
1,72,91,42
1,60,73,2
1,74,91,44
1,62,82,4
1,64,91,44
1,67,73,0
1,72,82,0
1,76,82,0
1,62,91,32
1,67,73,2
1,71,82,0
1,74,86,2
1,62,91,30
1,67,73,2
1,71,82,0
1,74,86,2
1,79,91,58
1,67,73,2
1,77,91,44
1,65,82,4
1,76,84,44
1,69,73,0
1,65,91,0
1,72,82,0
1,69,82,44
1,72,82,0
1,65,82,0
1,76,82,0
1,65,64,10
1,69,82,0
1,72,82,0
1,76,60,0
1,69,88,222
1,65,81,0
1,72,91,0
1,76,82,0
1,71,82,18
1,64,91,0
1,67,73,0
1,74,84,0
1,74,82,44
1,64,82,0
1,71,82,0
1,67,82,0
1,74,60,10
1,71,82,0
1,67,82,0
1,64,64,0
1,74,82,222
1,71,91,0
1,64,81,0
1,67,88,0
1,65,86,14
1,62,82,2
1,69,91,2
1,72,73,0
1,67,86,224
1,62,82,2
1,56,91,2
1,60,73,0
1,64,82,24660
1,72,82,0
1,67,73,0
1,76,84,0
1,64,82,44
1,76,82,0
1,72,82,0
1,67,82,0
1,64,82,10
1,76,60,0
1,72,82,0
1,67,82,0
1,64,91,222
1,76,82,0
1,72,91,0
1,67,88,0
1,74,82,38
1,71,82,0
1,67,73,0
1,62,91,0
1,72,91,42
1,60,73,2
1,74,91,44
1,62,82,4
1,64,91,44
1,67,73,0
1,72,82,0
1,76,82,0
1,62,91,32
1,67,73,2
1,71,82,0
1,74,86,2
1,62,91,30
1,67,73,2
1,71,82,0
1,74,86,2
1,79,91,58
1,67,73,2
1,77,91,44
1,65,82,4
1,76,84,44
1,69,73,0
1,65,91,0
1,72,82,0
1,69,82,44
1,72,82,0
1,65,82,0
1,76,82,0
1,65,64,10
1,69,82,0
1,72,82,0
1,76,60,0
1,69,88,222
1,65,81,0
1,72,91,0
1,76,82,0
1,71,82,18
1,64,91,0
1,67,73,0
1,74,84,0
1,74,82,44
1,64,82,0
1,71,82,0
1,67,82,0
1,74,60,10
1,71,82,0
1,67,82,0
1,64,64,0
1,74,82,222
1,71,91,0
1,64,81,0
1,67,88,0
1,65,86,14
1,62,82,2
1,69,91,2
1,72,73,0
1,67,86,224
1,62,82,2
1,56,91,2
1,60,73,0
1,64,82,30804
1,72,82,0
1,67,73,0
1,76,84,0
1,64,82,44
1,76,82,0
1,72,82,0
1,67,82,0
1,64,82,10
1,76,60,0
1,72,82,0
1,67,82,0
1,64,91,222
1,76,82,0
1,72,91,0
1,67,88,0
1,74,82,38
1,71,82,0
1,67,73,0
1,62,91,0
1,72,91,42
1,60,73,2
1,74,91,44
1,62,82,4
1,64,91,44
1,67,73,0
1,72,82,0
1,76,82,0
1,62,91,32
1,67,73,2
1,71,82,0
1,74,86,2
1,62,91,30
1,67,73,2
1,71,82,0
1,74,86,2
1,79,91,58
1,67,73,2
1,77,91,44
1,65,82,4
1,76,84,44
1,69,73,0
1,65,91,0
1,72,82,0
1,69,82,44
1,72,82,0
1,65,82,0
1,76,82,0
1,65,64,10
1,69,82,0
1,72,82,0
1,76,60,0
1,69,88,222
1,65,81,0
1,72,91,0
1,76,82,0
1,71,82,18
1,64,91,0
1,67,73,0
1,74,84,0
1,74,82,44
1,64,82,0
1,71,82,0
1,67,82,0
1,74,60,10
1,71,82,0
1,67,82,0
1,64,64,0
1,74,82,222
1,71,91,0
1,64,81,0
1,67,88,0
1,65,86,14
1,62,82,2
1,69,91,2
1,72,73,0
1,67,86,224
1,62,82,2
1,56,91,2
1,60,73,0
1,76,84,84
1,67,73,0
1,72,82,0
1,64,82,0
1,64,82,44
1,76,82,0
1,72,82,0
1,67,82,0
1,64,82,10
1,76,60,0
1,72,82,0
1,67,82,0
1,64,91,222
1,76,82,0
1,72,91,0
1,67,88,0
1,74,82,38
1,71,82,0
1,67,73,0
1,62,91,0
1,72,91,42
1,60,73,2
1,74,91,44
1,62,82,4
1,64,91,44
1,67,73,0
1,72,82,0
1,76,82,0
1,62,91,32
1,67,73,2
1,71,82,0
1,74,86,2
1,62,91,30
1,67,73,2
1,71,82,0
1,74,86,2
1,79,91,58
1,67,73,2
1,77,91,44
1,65,82,4
1,76,84,44
1,69,73,0
1,65,91,0
1,72,82,0
1,69,82,44
1,72,82,0
1,65,82,0
1,76,82,0
1,65,64,10
1,69,82,0
1,72,82,0
1,76,60,0
1,69,88,222
1,65,81,0
1,72,91,0
1,76,82,0
1,71,82,18
1,64,91,0
1,67,73,0
1,74,84,0
1,74,82,44
1,64,82,0
1,71,82,0
1,67,82,0
1,74,60,10
1,71,82,0
1,67,82,0
1,64,64,0
1,74,82,222
1,71,91,0
1,64,81,0
1,67,88,0
1,65,86,14
1,62,82,2
1,69,91,2
1,72,73,0
1,67,86,224
1,62,82,2
1,56,91,2
1,60,73,0
2,38,100,2844
2,36,100,144
2,34,100,178
2,33,100,144
2,31,100,178
2,29,100,144
2,29,100,78
2,29,100,94
2,29,100,92
2,29,100,72
2,31,100,190
2,43,100,28
2,31,100,132
2,31,100,94
2,31,100,92
2,31,100,72
2,35,100,190
2,36,100,36
2,36,100,58
2,36,100,88
2,40,100,70
2,28,100,22
2,28,100,42
2,28,100,50
2,38,100,36
2,38,100,78
2,38,100,94
2,38,100,92
2,38,100,72
2,38,100,190
2,33,100,38
2,33,100,70
2,33,100,94
2,33,100,92
2,33,100,72
2,33,100,36
2,35,73,100
2,38,100,22
2,40,73,12
2,38,100,22
2,38,100,70
2,38,100,94
2,38,100,92
2,38,100,72
2,38,100,36
2,34,100,252
2,45,100,42
2,43,82,96
2,40,96,26
2,39,100,30
2,38,82,6
2,36,96,26
2,33,100,30
2,33,100,14
2,45,100,78
2,38,100,132
2,40,78,2
2,43,100,14
2,40,73,48
2,33,100,14
2,38,90,190
2,38,100,24
2,50,100,192
2,38,100,132
2,36,70,2
2,36,93,72
2,36,100,72
2,38,100,14
2,29,100,32
2,31,100,192
2,33,100,188
2,45,100,78
2,38,100,132
2,40,78,2
2,43,100,24
2,40,73,50
2,45,100,14
2,38,91,190
2,38,100,34
2,50,100,192
2,38,100,132
2,36,70,2
2,36,93,72
2,36,100,72
2,38,100,14
2,29,100,32
2,31,100,192
2,33,100,188
2,45,100,78
2,38,100,132
2,40,78,2
2,43,100,18
2,40,73,48
2,45,100,14
2,38,100,190
2,50,100,26
2,38,100,132
2,36,70,2
2,36,93,72
2,36,100,72
2,38,100,14
2,29,100,32
2,31,100,192
2,33,100,188
2,45,100,78
2,38,100,132
2,40,78,2
2,43,100,28
2,40,73,52
2,48,89,16
2,45,100,4
2,38,100,90
2,50,100,46
2,38,100,132
2,36,70,2
2,36,93,72
2,36,100,72
2,38,100,14
2,29,93,56
2,29,100,72
2,31,100,192
2,33,100,188
2,45,100,78
2,38,100,132
2,40,78,2
2,43,100,34
2,40,73,48
2,48,90,20
2,45,100,22
2,38,100,88
2,50,100,26
2,38,100,132
2,36,70,2
2,36,93,72
2,36,100,72
2,38,100,14
2,29,93,54
2,29,100,72
2,31,100,192
2,33,100,188
2,45,100,78
2,38,100,132
2,40,78,2
2,43,100,28
2,40,73,48
2,48,89,26
2,45,100,4
2,38,100,90
2,50,100,46
2,38,100,132
2,36,70,2
2,36,93,72
2,36,100,72
2,38,100,14
2,29,93,56
2,36,100,72
2,38,100,152
2,37,69,40
2,36,69,24
2,35,52,0
2,34,44,14
2,33,37,18
2,32,37,16
2,31,37,18
2,31,100,50
2,43,100,36
2,31,100,28
2,43,81,194
2,31,93,72
2,31,100,72
2,43,100,14
2,38,100,192
2,40,81,94
2,31,100,14
2,43,100,36
2,31,100,28
2,43,81,194
2,43,91,72
2,45,82,36
2,43,100,14
2,40,91,34
2,38,91,32
2,36,73,28
2,31,100,8
2,43,100,36
2,31,100,28
2,43,81,194
2,31,93,72
2,35,100,72
2,35,100,14
2,36,91,34
2,38,91,32
2,39,73,28
2,40,100,8
2,40,66,26
2,40,98,58
2,44,69,126
2,45,98,20
2,44,81,70
2,56,100,188
2,28,100,24
2,29,100,32
2,29,100,78
2,29,100,94
2,29,100,92
2,29,100,72
2,31,100,190
2,43,100,28
2,31,100,132
2,31,100,94
2,31,100,92
2,31,100,72
2,35,100,190
2,36,100,36
2,36,100,58
2,36,100,88
2,40,100,70
2,28,100,22
2,28,100,42
2,28,100,50
2,38,100,36
2,38,100,78
2,38,100,94
2,38,100,92
2,38,100,72
2,38,100,190
2,33,100,38
2,33,100,70
2,33,100,94
2,33,100,92
2,33,100,72
2,33,100,36
2,35,73,100
2,38,100,22
2,40,73,12
2,38,100,22
2,38,100,70
2,38,100,94
2,38,100,92
2,38,100,72
2,38,100,36
2,34,100,252
2,48,108,426
2,47,78,40
2,46,75,14
2,45,66,0
2,44,64,4
2,43,62,24
2,42,61,12
2,41,49,4
2,33,100,110
2,45,100,78
2,38,100,132
2,40,78,2
2,43,100,14
2,40,73,48
2,33,100,14
2,38,90,190
2,38,100,24
2,50,100,192
2,38,100,132
2,36,70,2
2,36,93,72
2,36,100,72
2,38,100,14
2,29,100,32
2,31,100,192
2,33,100,188
2,45,100,78
2,38,100,132
2,40,78,2
2,43,100,24
2,40,73,50
2,45,100,14
2,38,91,190
2,38,100,34
2,50,100,192
2,38,100,132
2,36,70,2
2,36,93,72
2,36,100,72
2,38,100,14
2,29,100,32
2,31,100,192
2,33,100,188
2,45,100,78
2,38,100,132
2,40,78,2
2,43,100,18
2,40,73,48
2,45,100,14
2,38,100,190
2,50,100,26
2,38,100,132
2,36,70,2
2,36,93,72
2,36,100,72
2,38,100,14
2,29,100,32
2,31,100,192
2,33,100,188
2,45,100,78
2,38,100,132
2,40,78,2
2,43,100,28
2,40,73,52
2,48,89,16
2,45,100,4
2,38,100,90
2,50,100,46
2,38,100,132
2,36,70,2
2,36,93,72
2,36,100,72
2,38,100,14
2,29,93,56
2,29,100,72
2,31,100,192
2,33,100,188
2,45,100,78
2,38,100,132
2,40,78,2
2,43,100,34
2,40,73,48
2,48,90,20
2,45,100,22
2,38,100,88
2,50,100,26
2,38,100,132
2,36,70,2
2,36,93,72
2,36,100,72
2,38,100,14
2,29,93,54
2,29,100,72
2,31,100,192
2,33,100,188
2,45,100,78
2,38,100,132
2,40,78,2
2,43,100,28
2,40,73,48
2,48,89,26
2,45,100,4
2,38,100,90
2,50,100,46
2,38,100,132
2,36,70,2
2,36,93,72
2,36,100,72
2,38,100,14
2,29,93,56
2,36,100,72
2,38,100,152
2,37,69,40
2,36,69,24
2,35,52,0
2,34,44,14
2,33,37,18
2,32,37,16
2,31,37,18
2,31,100,50
2,43,100,36
2,31,100,28
2,43,81,194
2,31,93,72
2,31,100,72
2,43,100,14
2,38,100,192
2,40,81,94
2,31,100,14
2,43,100,36
2,31,100,28
2,43,81,194
2,43,91,72
2,45,82,36
2,43,100,14
2,40,91,34
2,38,91,32
2,36,73,28
2,31,100,8
2,43,100,36
2,31,100,28
2,43,81,194
2,31,93,72
2,35,100,72
2,35,100,14
2,36,91,34
2,38,91,32
2,39,73,28
2,40,100,8
2,40,66,26
2,40,98,58
2,44,69,126
2,45,98,20
2,44,81,70
2,56,100,188
2,28,100,24
2,29,100,32
2,29,100,78
2,29,100,94
2,29,100,92
2,29,100,72
2,31,100,190
2,43,100,28
2,31,100,132
2,31,100,94
2,31,100,92
2,31,100,72
2,35,100,190
2,36,100,36
2,36,100,58
2,36,100,88
2,40,100,70
2,28,100,22
2,28,100,42
2,28,100,50
2,38,100,36
2,38,100,78
2,38,100,94
2,38,100,92
2,38,100,72
2,38,100,190
2,33,100,38
2,33,100,70
2,33,100,94
2,33,100,92
2,33,100,72
2,33,100,36
2,35,73,100
2,38,100,22
2,40,73,12
2,38,100,22
2,38,100,70
2,38,100,94
2,38,100,92
2,38,100,72
2,38,100,36
2,34,100,252
2,48,108,426
2,47,78,40
2,46,75,14
2,45,66,0
2,44,64,4
2,43,62,24
2,42,61,12
2,41,49,4
2,33,100,110
2,45,100,78
2,38,100,132
2,40,78,2
2,43,100,18
2,40,73,48
2,45,100,14
2,38,100,190
2,50,100,26
2,38,100,132
2,36,70,2
2,36,93,72
2,36,100,72
2,38,100,14
2,29,100,32
2,31,100,192
2,33,100,188
2,45,100,78
2,38,100,132
2,40,78,2
2,43,100,28
2,40,73,52
2,48,89,16
2,45,100,4
2,38,100,90
2,50,100,46
2,38,100,132
2,36,70,2
2,36,93,72
2,36,100,72
2,38,100,14
2,29,93,56
2,29,100,72
2,31,100,192
2,33,100,188
2,45,100,78
2,38,100,132
2,40,78,2
2,43,100,18
2,40,73,48
2,45,100,14
2,38,100,190
2,50,100,26
2,38,100,132
2,36,70,2
2,36,93,72
2,36,100,72
2,38,100,14
2,29,100,32
2,31,100,192
2,33,100,188
2,45,100,78
2,38,100,132
2,40,78,2
2,43,100,28
2,40,73,52
2,48,89,16
2,45,100,4
2,34,100,90
2,41,100,46
2,46,100,192
2,48,100,14
2,46,100,40
2,34,100,12
2,36,100,192
2,38,100,56
2,33,100,58
2,31,100,12
2,33,78,2
2,36,100,18
2,38,73,28
2,36,100,14
2,33,100,10
2,31,100,16
2,29,100,36
2,29,100,204
2,31,100,18
2,29,100,24
2,38,100,170
2,33,100,58
2,31,100,12
2,33,78,2
2,36,100,18
2,38,73,28
2,36,100,14
2,33,100,10
2,31,100,16
2,29,100,78
2,33,100,12
2,33,100,18
2,33,100,60
2,36,100,20
2,35,100,26
2,36,100,12
2,37,100,18
2,38,100,18
2,33,100,58
2,31,100,12
2,33,78,2
2,36,100,18
2,38,73,28
2,36,100,14
2,33,100,10
2,31,100,16
2,29,100,38
2,29,100,204
2,31,100,18
2,29,100,24
2,38,100,170
2,38,100,38
2,40,100,18
2,40,100,24
2,40,100,16
2,41,100,10
2,36,100,18
2,41,100,22
2,43,100,18
2,45,100,30
2,31,100,48
2,31,100,140
2,38,90,34
2,39,81,32
2,40,100,34
2,28,100,8
2,28,100,146
2,40,100,20
2,28,100,68
2,29,100,50
2,29,100,78
2,29,100,94
2,29,100,92
2,29,100,72
2,31,100,190
2,43,100,28
2,31,100,132
2,31,100,94
2,31,100,92
2,31,100,72
2,35,100,190
2,36,100,36
2,36,100,58
2,36,100,88
2,40,100,70
2,28,100,22
2,28,100,42
