track,note,velocity,time
0,71,120,96
0,71,110,0
0,69,117,0
0,69,111,0
0,71,117,48
0,71,112,0
0,72,118,28
0,72,115,0
0,71,117,0
0,71,111,0
0,69,120,8
0,69,120,0
0,67,113,20
0,67,119,0
0,66,119,576
0,66,110,0
0,67,114,48
0,67,113,0
0,69,110,20
0,69,121,0
0,66,113,0
0,66,119,0
0,62,110,192
0,62,111,0
0,66,116,184
0,66,115,0
0,67,115,48
0,67,112,0
0,69,113,28
0,69,111,0
0,66,117,192
0,66,120,0
0,62,121,0
0,62,110,0
0,66,91,184
0,66,96,0
0,67,96,48
0,67,98,0
0,69,90,8
0,69,94,0
0,66,92,192
0,66,96,0
0,62,99,10
0,62,90,0
0,66,75,172
0,66,76,0
0,67,70,48
0,67,71,0
0,69,77,20
0,69,70,0
0,66,70,0
0,66,79,0
0,62,78,20
0,62,77,0
0,66,57,184
0,66,50,0
0,67,59,48
0,67,59,0
0,69,58,96
0,69,58,0
0,66,55,172
0,66,52,0
0,62,57,34
0,62,58,0
0,71,121,22
0,71,119,0
0,28,99,384
0,39,99,0
0,69,110,0
0,69,115,0
0,71,119,48
0,71,115,0
0,60,99,28
0,72,116,0
0,72,118,0
0,60,99,92
0,61,99,0
0,71,113,0
0,71,118,0
0,61,99,92
0,28,99,8
0,39,99,0
0,69,111,0
0,69,119,0
0,67,118,20
0,67,113,0
0,28,99,384
0,39,99,0
0,66,118,188
0,66,116,0
0,67,121,48
0,67,116,0
0,69,112,20
0,69,117,0
0,66,118,0
0,66,110,0
0,28,99,192
0,39,99,0
0,62,119,0
0,62,117,0
0,66,112,184
0,66,114,0
0,67,112,48
0,67,111,0
0,50,85,28
0,69,110,0
0,69,120,0
0,50,53,16
0,50,77,40
0,66,111,0
0,66,114,0
0,50,65,28
0,28,119,10
0,39,119,0
0,50,73,0
0,62,119,0
0,62,111,0
0,50,75,28
0,50,74,48
0,66,95,0
0,66,95,0
0,50,79,24
0,67,97,0
0,67,94,0
0,60,99,0
0,50,86,0
0,69,95,0
0,69,94,0
0,60,99,16
0,50,72,0
0,61,99,72
0,50,86,0
0,66,93,0
0,66,90,0
0,61,99,12
0,50,88,0
0,28,119,10
0,39,119,0
0,50,88,0
0,62,94,0
0,62,94,0
0,50,85,28
0,50,88,60
0,66,79,0
0,66,76,0
0,50,89,28
0,67,78,0
0,67,77,0
0,50,97,20
0,60,83,0
0,69,72,0
0,69,74,0
0,50,95,4
0,62,76,0
0,50,94,0
0,50,83,0
0,66,70,0
0,66,79,0
0,50,86,4
0,60,81,0
0,28,119,18
0,39,119,0
0,50,102,0
0,62,81,0
0,62,77,0
0,62,75,0
0,50,99,28
0,50,101,0
0,36,117,0
0,50,121,0
0,60,85,0
0,66,58,0
0,66,51,0
0,36,116,24
0,50,115,0
0,62,85,0
0,67,55,0
0,67,57,0
0,38,115,48
0,50,110,0
0,60,83,0
0,69,56,0
0,69,52,0
0,38,114,12
0,50,121,0
0,62,99,0
0,47,119,16
0,36,115,0
0,50,121,0
0,50,94,0
0,66,55,0
0,66,59,0
0,50,117,24
0,60,103,0
0,43,119,18
0,36,119,0
0,28,119,0
0,39,119,0
0,50,120,0
0,62,104,0
0,62,56,0
0,62,59,0
0,50,112,8
0,50,94,0
0,38,113,52
0,50,110,0
0,60,103,0
0,38,113,24
0,50,116,0
0,62,104,0
0,36,115,16
0,49,105,0
0,31,117,0
0,43,78,0
0,50,78,0
0,55,70,0
0,71,112,0
0,79,113,0
0,83,115,0
0,71,121,0
0,69,111,0
0,69,111,0
0,71,116,48
0,71,112,0
0,36,118,8
0,57,119,0
0,29,120,0
0,41,85,0
0,48,85,0
0,53,85,0
0,72,114,0
0,81,114,0
0,84,113,0
0,72,110,0
0,71,114,0
0,71,117,0
0,69,111,8
0,69,114,0
0,49,105,0
0,36,115,0
0,36,112,0
0,48,87,0
0,55,87,0
0,60,87,0
0,67,113,0
0,72,113,0
0,84,118,0
0,67,117,0
0,66,113,572
0,66,113,0
0,67,121,4
0,67,112,0
0,36,118,20
0,57,119,0
0,38,115,0
0,50,87,0
0,57,87,0
0,62,87,0
0,69,113,0
0,74,120,0
0,86,119,0
0,69,111,0
0,66,121,0
0,66,117,0
0,62,113,192
0,62,112,0
0,38,112,0
0,36,113,0
0,48,78,0
0,66,113,0
0,66,119,0
0,38,112,24
0,48,73,0
0,67,121,0
0,67,116,0
0,49,92,24
0,36,118,0
0,48,95,0
0,69,113,0
0,69,117,0
0,38,120,188
0,50,95,0
0,66,120,0
0,66,111,0
0,42,94,18
0,38,113,0
0,38,112,0
0,50,95,0
0,62,119,0
0,62,119,0
0,42,54,6
0,36,113,0
0,48,95,0
0,66,96,0
0,66,93,0
0,67,91,48
0,67,90,0
0,42,98,8
0,36,117,0
0,38,116,0
0,50,95,0
0,69,90,0
0,69,90,0
0,42,62,52
0,66,93,0
0,66,90,0
0,42,98,18
0,38,114,0
0,62,96,0
0,62,97,0
0,42,60,172
0,36,121,0
0,48,95,0
0,66,74,0
0,66,79,0
0,67,77,48
0,67,72,0
0,36,117,16
0,42,98,0
0,38,117,0
0,50,95,0
0,69,76,0
0,69,77,0
0,42,71,0
0,66,79,0
0,66,70,0
0,42,86,18
0,38,113,0
0,42,121,0
0,54,95,0
0,62,73,0
0,62,77,0
0,42,81,4
0,38,113,0
0,50,95,0
0,66,53,0
0,66,58,0
0,67,53,48
0,67,52,0
0,36,116,12
0,42,94,0
0,43,112,0
0,55,91,0
0,69,54,0
0,69,53,0
0,42,102,6
0,42,111,0
0,54,95,0
0,66,52,0
0,66,55,0
0,42,102,12
0,38,114,0
0,38,120,0
0,50,95,0
0,62,50,0
0,62,59,0
0,42,94,92
0,42,83,92
0,42,91,92
0,36,119,6
0,49,105,0
0,31,116,0
0,43,78,0
0,50,78,0
0,55,70,0
0,71,119,0
0,79,119,0
0,83,113,0
0,71,120,0
0,69,111,0
0,69,113,0
0,71,115,48
0,71,113,0
0,36,116,8
0,57,119,0
0,29,121,0
0,41,85,0
0,48,85,0
0,53,85,0
0,72,121,0
0,81,112,0
0,84,113,0
0,72,112,0
0,71,117,0
0,71,115,0
0,69,110,8
0,69,114,0
0,49,105,0
0,36,119,0
0,36,112,0
0,48,87,0
0,55,87,0
0,60,87,0
0,67,117,0
0,72,110,0
0,84,113,0
0,67,113,0
0,66,113,572
0,66,110,0
0,67,114,4
0,67,117,0
0,36,118,20
0,57,119,0
0,38,112,0
0,38,116,0
0,50,87,0
0,57,87,0
0,62,87,0
0,69,113,0
0,74,121,0
0,86,117,0
0,69,116,0
0,38,114,92
0,38,114,0
0,66,110,0
0,66,112,0
0,38,113,92
0,62,113,92
0,62,114,0
0,38,113,0
0,36,114,0
0,48,78,0
0,66,110,0
0,66,111,0
0,48,73,24
0,67,112,0
0,67,110,0
0,49,92,24
0,36,116,0
0,48,95,0
0,69,110,0
0,69,117,0
0,38,120,12
0,50,95,0
0,66,118,0
0,66,121,0
0,42,94,18
0,38,113,0
0,38,112,0
0,50,95,0
0,62,110,0
0,62,120,0
0,42,54,8
0,36,117,0
0,48,95,0
0,66,91,0
0,66,90,0
0,67,96,48
0,67,99,0
0,42,98,8
0,36,115,0
0,38,113,0
0,50,95,0
0,69,91,0
0,69,92,0
0,42,62,20
0,66,93,0
0,66,90,0
0,42,98,18
0,38,115,0
0,62,92,0
0,62,98,0
0,42,60,172
0,36,114,0
0,48,95,0
0,66,73,0
0,66,70,0
0,67,78,48
0,67,70,0
0,36,118,16
0,42,98,0
0,38,115,0
0,50,95,0
0,69,77,0
0,69,75,0
0,42,71,0
0,66,72,0
0,66,71,0
0,42,86,18
0,38,113,0
0,42,116,0
0,54,95,0
0,62,72,0
0,62,73,0
0,42,81,4
0,38,118,0
0,50,95,0
0,66,53,0
0,66,56,0
0,67,57,48
0,67,54,0
0,36,117,12
0,42,94,0
0,43,112,0
0,55,95,0
0,69,55,0
0,69,58,0
0,42,102,4
0,42,116,0
0,54,95,0
0,66,59,0
0,66,58,0
0,42,102,4
0,38,115,0
0,38,113,0
0,50,95,0
0,62,54,0
0,62,58,0
0,49,59,4
0,38,112,0
0,48,95,0
0,36,118,20
0,42,98,16
0,36,117,0
0,42,66,6
0,38,112,0
0,50,113,0
0,53,112,0
0,60,92,0
0,50,95,0
0,38,115,100
0,42,111,0
0,28,99,0
0,39,99,0
0,38,110,0
0,50,114,0
0,53,120,0
0,60,116,0
0,50,95,0
0,42,48,4
0,36,116,0
0,50,114,0
0,53,117,0
0,60,118,0
0,48,95,0
0,42,94,20
0,36,118,0
0,60,99,0
0,38,113,0
0,50,110,0
0,53,110,0
0,60,111,0
0,50,95,0
0,60,99,92
0,42,58,32
0,61,99,0
0,61,99,44
0,50,113,0
0,53,116,0
0,59,120,0
0,38,115,20
0,42,98,0
0,28,99,0
0,39,99,0
0,42,64,188
0,36,117,0
0,50,113,0
0,53,110,0
0,59,121,0
0,48,95,0
0,42,98,20
0,36,119,0
0,38,119,0
0,50,115,0
0,53,113,0
0,59,116,0
0,50,95,0
0,42,62,32
0,50,110,0
0,53,118,0
0,57,111,0
0,38,115,48
0,42,102,0
0,28,99,0
0,39,99,0
0,41,117,0
0,53,95,0
0,42,60,4
0,38,115,0
0,50,92,0
0,53,121,0
0,55,121,0
0,50,95,0
0,36,115,32
0,42,94,0
0,43,113,0
0,50,110,0
0,53,103,0
0,54,83,0
0,55,118,0
0,55,91,0
0,42,75,0
0,41,115,0
0,53,120,0
0,53,95,0
0,42,95,4
0,38,112,0
0,28,99,0
0,39,99,0
0,38,120,0
0,50,121,0
0,50,95,0
0,36,115,4
0,42,91,0
0,36,120,0
0,48,118,0
0,53,119,0
0,48,82,0
0,42,98,188
0,36,116,0
0,42,66,6
0,38,112,0
0,50,118,0
0,53,115,0
0,60,91,0
0,50,95,0
0,38,113,100
0,42,111,0
0,28,99,0
0,39,99,0
0,38,114,0
0,50,121,0
0,53,112,0
0,60,116,0
0,50,95,0
0,42,48,4
0,36,118,0
0,50,121,0
0,53,111,0
0,60,115,0
0,48,95,0
0,42,94,20
0,36,115,0
0,60,99,0
0,38,116,0
0,50,112,0
0,53,117,0
0,60,114,0
0,50,95,0
0,60,99,92
0,42,58,32
0,61,99,0
0,61,99,44
0,50,119,0
0,53,110,0
0,59,120,0
0,38,112,20
0,42,98,0
0,28,99,0
0,39,99,0
0,42,64,188
0,36,116,0
0,50,120,0
0,53,115,0
0,59,117,0
0,48,95,0
0,42,98,20
0,36,119,0
0,38,111,0
0,50,115,0
0,53,119,0
0,59,111,0
0,50,95,0
0,42,62,32
0,50,118,0
0,53,113,0
0,57,112,0
0,38,112,48
0,42,102,0
0,28,99,0
0,39,99,0
0,41,120,0
0,53,95,0
0,42,60,4
0,38,111,0
0,50,98,0
0,53,115,0
0,55,116,0
0,50,95,0
0,36,116,32
0,42,94,0
0,43,121,0
0,50,114,0
0,53,100,0
0,54,82,0
0,55,120,0
0,55,91,0
0,42,75,0
0,41,116,0
0,53,116,0
0,53,95,0
0,64,121,0
0,42,95,8
0,38,112,0
0,28,99,0
0,39,99,0
0,38,110,0
0,50,115,0
0,50,95,0
0,62,120,0
0,36,117,4
0,42,91,0
0,36,119,0
0,48,120,0
0,53,121,0
0,48,95,0
0,62,119,0
0,42,98,188
0,36,119,0
0,42,66,6
0,38,112,0
0,50,115,0
0,53,118,0
0,60,98,0
0,50,95,0
0,38,114,100
0,42,111,0
0,28,99,0
0,39,99,0
0,38,115,0
0,50,117,0
0,53,119,0
0,60,120,0
0,50,95,0
0,42,48,4
0,36,111,0
0,50,120,0
0,53,121,0
0,60,113,0
0,48,95,0
0,42,94,20
0,36,118,0
0,60,99,0
0,38,113,0
0,50,117,0
0,53,115,0
0,60,110,0
0,50,95,0
0,60,99,4
0,42,58,32
0,61,99,0
0,61,99,44
0,50,115,0
0,53,114,0
0,59,120,0
0,38,115,20
0,42,98,0
0,28,99,0
0,39,99,0
0,42,64,188
0,36,117,0
0,50,121,0
0,53,110,0
0,59,116,0
0,48,95,0
0,42,98,20
0,36,119,0
0,38,118,0
0,50,113,0
0,53,113,0
0,59,115,0
0,50,95,0
0,42,62,32
0,50,121,0
0,53,114,0
0,57,112,0
0,38,114,48
0,42,102,0
0,28,99,0
0,39,99,0
0,41,121,0
0,53,95,0
0,42,60,4
0,38,112,0
0,50,91,0
0,53,113,0
0,55,111,0
0,50,95,0
0,36,116,32
0,42,94,0
0,43,115,0
0,50,113,0
0,53,108,0
0,54,84,0
0,55,115,0
0,55,91,0
0,42,75,0
0,41,117,0
0,53,115,0
0,53,95,0
0,64,118,0
0,42,95,8
0,38,112,0
0,28,99,0
0,39,99,0
0,38,119,0
0,50,110,0
0,50,95,0
0,62,114,0
0,36,118,4
0,42,91,0
0,36,117,0
0,48,116,0
0,53,111,0
0,48,82,0
0,62,114,0
0,42,98,188
0,36,118,0
0,42,66,6
0,38,112,0
0,50,121,0
0,53,114,0
0,60,90,0
0,50,95,0
0,38,113,100
0,42,111,0
0,28,99,0
0,39,99,0
0,38,117,0
0,50,118,0
0,53,115,0
0,60,113,0
0,50,95,0
0,42,48,4
0,36,115,0
0,50,118,0
0,53,114,0
0,60,116,0
0,48,95,0
0,42,94,20
0,36,115,0
0,60,99,0
0,38,119,0
0,50,111,0
0,53,120,0
0,60,113,0
0,50,95,0
0,60,99,4
0,42,58,32
0,61,99,0
0,61,99,44
0,50,120,0
0,53,110,0
0,59,114,0
0,38,112,20
0,42,98,0
0,28,99,0
0,39,99,0
0,42,64,188
0,36,117,0
0,50,114,0
0,53,120,0
0,59,115,0
0,48,95,0
0,42,98,20
0,36,116,0
0,38,120,0
0,50,113,0
0,53,121,0
0,59,110,0
0,50,95,0
0,42,62,32
0,50,113,0
0,53,111,0
0,57,120,0
0,38,115,48
0,42,102,0
0,28,99,0
0,39,99,0
0,41,115,0
0,53,95,0
0,36,117,4
0,42,60,0
0,38,111,0
0,50,97,0
0,53,120,0
0,55,112,0
0,50,95,0
0,38,114,32
0,36,119,0
0,43,110,0
0,50,119,0
0,53,103,0
0,54,88,0
0,55,112,0
0,55,91,0
0,38,115,32
0,36,102,0
0,41,112,0
0,53,118,0
0,53,95,0
0,49,71,8
0,38,115,0
0,28,99,0
0,39,99,0
0,38,115,0
0,50,113,0
0,50,95,0
0,36,117,4
0,46,81,0
0,36,118,0
0,48,117,0
0,53,114,0
0,48,95,0
0,42,98,188
0,36,119,0
0,42,66,6
0,38,113,0
0,50,118,0
0,53,121,0
0,60,99,0
0,50,95,0
0,38,114,100
0,42,111,0
0,28,99,0
0,39,99,0
0,38,114,0
0,50,115,0
0,53,119,0
0,60,116,0
0,50,95,0
0,57,119,0
0,42,48,4
0,36,112,0
0,50,112,0
0,53,110,0
0,60,115,0
0,48,95,0
0,42,94,20
0,36,119,0
0,60,99,0
0,38,116,0
0,50,121,0
0,53,119,0
0,60,112,0
0,50,95,0
0,60,114,0
0,60,99,92
0,42,58,32
0,61,99,0
0,61,99,44
0,50,119,0
0,53,118,0
0,59,121,0
0,38,115,20
0,42,98,0
0,28,99,0
0,39,99,0
0,62,114,0
0,42,64,164
0,36,118,0
0,50,121,0
0,53,121,0
0,59,118,0
0,48,95,0
0,42,98,20
0,36,118,0
0,38,114,0
0,50,116,0
0,53,118,0
0,59,117,0
0,50,95,0
0,64,113,0
0,42,62,32
0,50,113,0
0,53,119,0
0,57,120,0
0,38,115,48
0,42,102,0
0,28,99,0
0,39,99,0
0,41,113,0
0,53,95,0
0,42,60,6
0,38,120,0
0,50,92,0
0,53,118,0
0,55,114,0
0,50,95,0
0,62,120,0
0,36,119,32
0,42,94,0
0,43,119,0
0,50,110,0
0,53,103,0
0,54,84,0
0,55,114,0
0,55,91,0
0,60,111,32
0,42,75,0
0,41,110,0
0,53,113,0
0,53,95,0
0,57,116,0
0,42,95,8
0,38,112,0
0,28,99,0
0,39,99,0
0,38,116,0
0,50,118,0
