track,note,velocity,time
0,40,88,852
0,44,82,0
0,52,61,0
0,52,82,0
0,52,82,0
0,56,61,0
0,56,82,0
0,59,82,0
0,64,70,0
0,64,100,0
0,68,82,0
0,68,91,0
0,68,82,0
0,38,88,6
0,45,73,0
0,50,53,0
0,50,64,0
0,50,91,0
0,57,53,0
0,57,91,0
0,62,70,0
0,62,73,0
0,66,73,0
0,69,64,0
0,69,91,0
0,69,100,0
0,40,88,26
0,48,74,0
0,48,73,0
0,48,82,0
0,48,81,0
0,55,74,0
0,55,82,0
0,55,82,0
0,60,86,0
0,64,77,0
0,67,73,0
0,69,77,0
0,69,100,0
0,69,100,0
0,40,88,36
0,52,70,0
0,52,73,0
0,52,82,0
0,56,70,0
0,56,82,0
0,56,77,0
0,59,77,0
0,64,70,0
0,64,91,0
0,68,73,0
0,68,91,0
0,68,77,0
0,38,88,6
0,50,70,0
0,50,64,0
0,50,91,0
0,57,70,0
0,57,91,0
0,57,73,0
0,62,70,0
0,62,100,0
0,69,64,0
0,69,73,0
0,69,77,0
0,40,88,28
0,49,70,0
0,49,82,0
0,49,82,0
0,52,82,0
0,57,70,0
0,57,82,0
0,57,82,0
0,64,70,0
0,64,91,0
0,69,82,0
0,69,82,0
0,61,91,40
0,48,82,6
0,55,73,0
0,60,73,0
0,67,92,0
0,67,73,0
0,67,73,0
0,79,82,0
0,66,101,56
0,78,91,0
0,64,92,160
0,76,82,0
0,43,73,8
0,55,101,0
0,67,91,0
0,31,92,26
0,36,61,0
0,43,88,0
0,46,19,0
0,50,42,0
0,57,72,0
0,62,60,0
0,43,88,4
0,31,92,20
0,43,88,0
0,46,25,0
0,54,53,0
0,31,92,4
0,43,88,0
0,31,92,22
0,40,87,0
0,43,88,0
0,46,28,0
0,31,92,20
0,43,88,0
0,46,28,0
0,54,57,0
0,31,92,40
0,43,88,0
0,31,92,18
0,36,78,0
0,43,88,0
0,46,25,0
0,43,88,56
0,31,92,42
0,43,88,0
0,46,17,0
0,54,40,0
0,31,92,40
0,43,88,0
0,31,92,34
0,40,83,0
0,43,88,0
0,46,45,0
0,31,92,44
0,43,88,0
0,46,28,0
0,54,53,0
0,31,92,30
0,43,88,0
0,70,63,0
0,31,92,26
0,36,61,0
0,43,88,0
0,46,26,0
0,43,88,56
0,31,92,38
0,43,88,0
0,46,21,0
0,54,40,0
0,31,92,52
0,43,88,0
0,31,92,36
0,40,83,0
0,43,88,0
0,46,53,0
0,31,92,52
0,43,88,0
0,46,28,0
0,54,61,0
0,31,92,50
0,43,88,0
0,31,92,32
0,36,65,0
0,43,88,0
0,46,29,0
0,43,88,56
0,31,92,34
0,43,88,0
0,46,21,0
0,54,35,0
0,31,92,40
0,43,88,0
0,31,92,22
0,40,83,0
0,43,88,0
0,46,49,0
0,31,92,48
0,36,49,0
0,43,88,0
0,46,26,0
0,54,45,0
0,31,92,46
0,43,88,0
0,70,71,0
0,31,92,26
0,36,78,0
0,43,88,0
0,46,29,0
0,50,100,0
0,55,100,0
0,57,85,0
0,59,100,0
0,43,88,42
0,31,92,32
0,43,88,0
0,46,45,0
0,54,53,0
0,62,100,0
0,67,100,0
0,31,92,30
0,43,88,0
0,62,100,0
0,67,100,0
0,35,92,26
0,40,83,0
0,43,88,0
0,46,29,0
0,50,88,18
0,55,88,0
0,35,92,24
0,43,88,0
0,46,28,0
0,54,57,0
0,62,54,0
0,67,54,0
0,35,92,40
0,43,88,0
0,59,54,0
0,36,65,36
0,38,92,0
0,43,88,0
0,46,29,0
0,62,54,0
0,67,54,0
0,43,88,54
0,38,92,40
0,43,88,0
0,46,25,0
0,54,40,0
0,62,54,0
0,62,100,0
0,67,54,0
0,67,100,0
0,38,92,42
0,43,88,0
0,40,83,28
0,43,92,0
0,43,88,0
0,46,49,0
0,50,88,48
0,55,88,0
0,43,92,24
0,43,88,0
0,46,25,0
0,50,100,0
0,54,53,0
0,55,100,0
0,59,100,0
0,62,54,0
0,67,54,0
0,43,92,0
0,43,88,0
0,70,63,0
0,35,92,22
0,35,88,0
0,36,61,0
0,46,26,0
0,51,100,0
0,54,100,0
0,59,100,0
0,35,88,6
0,35,92,58
0,35,88,0
0,46,24,0
0,54,40,0
0,59,100,0
0,66,100,0
0,35,92,34
0,35,88,0
0,59,100,0
0,66,100,0
0,35,88,18
0,39,92,0
0,40,79,0
0,46,53,0
0,47,88,22
0,54,88,0
0,35,88,24
0,39,92,0
0,46,27,0
0,54,61,0
0,63,54,0
0,66,54,0
0,35,88,36
0,39,92,0
0,59,54,0
0,35,88,34
0,36,61,0
0,42,92,0
0,46,33,0
0,63,54,0
0,66,54,0
0,35,88,4
0,35,88,42
0,42,92,0
0,46,21,0
0,54,35,0
0,59,100,0
0,63,54,0
0,66,54,0
0,66,100,0
0,35,88,42
0,42,92,0
0,35,88,36
0,40,79,0
0,46,45,0
0,47,92,0
0,47,88,38
0,51,100,0
0,54,100,0
0,54,88,0
0,59,100,0
0,35,88,24
0,46,28,0
0,47,92,0
0,54,45,0
0,63,54,0
0,66,54,0
0,35,88,26
0,47,92,0
0,70,71,0
0,28,92,24
0,36,69,0
0,40,88,0
0,46,19,0
0,52,100,0
0,55,100,0
0,59,100,0
0,40,88,10
0,28,92,58
0,40,88,0
0,46,13,0
0,54,53,0
0,59,100,0
0,64,100,0
0,28,92,42
0,40,88,0
0,59,100,0
0,64,100,0
0,31,92,24
0,40,87,0
0,46,28,0
0,52,88,10
0,59,88,0
0,31,92,24
0,40,88,0
0,46,28,0
0,54,57,0
0,64,54,0
0,67,54,0
0,31,92,42
0,40,88,0
0,59,54,0
0,35,92,34
0,36,65,0
0,40,88,0
0,46,25,0
0,64,54,0
0,67,54,0
0,40,88,6
0,35,92,48
0,40,88,0
0,46,17,0
0,54,40,0
0,59,100,0
0,64,54,0
0,64,100,0
0,67,54,0
0,35,92,36
0,40,88,0
0,40,83,34
0,40,92,0
0,40,88,0
0,46,45,0
0,59,88,56
0,64,88,0
0,40,92,24
0,40,88,0
0,46,28,0
0,52,100,0
0,54,53,0
0,55,100,0
0,59,100,0
0,64,54,0
0,67,54,0
0,40,92,38
0,40,88,0
0,70,63,0
0,36,69,34
0,36,92,0
0,36,88,0
0,46,26,0
0,52,100,0
0,55,100,0
0,60,100,0
0,36,88,6
0,36,92,62
0,36,88,0
0,46,21,0
0,54,40,0
0,55,100,0
0,60,100,0
0,36,92,40
0,36,88,0
0,55,100,0
0,60,100,0
0,36,88,22
0,40,87,0
0,40,92,0
0,46,53,0
0,55,88,16
0,60,88,0
0,36,88,50
0,40,92,0
0,46,28,0
0,54,61,0
0,55,100,0
0,60,54,0
0,60,100,0
0,64,54,0
0,36,88,40
0,40,92,0
0,55,54,0
0,36,65,38
0,36,88,0
0,43,92,0
0,46,29,0
0,60,54,0
0,64,54,0
0,36,88,12
0,36,88,56
0,36,88,0
0,43,92,0
0,46,21,0
0,54,35,0
0,60,54,0
0,64,54,0
0,64,88,0
0,67,88,0
0,36,88,42
0,43,92,0
0,36,88,34
0,40,79,0
0,46,49,0
0,48,92,0
0,64,54,0
0,60,88,52
0,64,88,0
0,36,88,42
0,46,26,0
0,48,92,0
0,54,45,0
0,55,100,0
0,60,100,0
0,64,54,0
0,67,54,0
0,36,88,30
0,48,92,0
0,70,71,0
0,31,92,34
0,36,65,0
0,43,88,0
0,46,29,0
0,50,100,0
0,55,100,0
0,57,68,0
0,59,100,0
0,43,88,42
0,31,92,28
0,43,88,0
0,46,45,0
0,54,53,0
0,62,100,0
0,67,100,0
0,31,92,30
0,43,88,0
0,62,100,0
0,67,100,0
0,35,92,26
0,40,87,0
0,43,88,0
0,46,29,0
0,50,88,18
0,55,88,0
0,35,92,24
0,43,88,0
0,46,28,0
0,54,57,0
0,62,54,0
0,67,54,0
0,35,92,40
0,36,69,0
0,43,88,0
0,59,54,0
0,36,57,36
0,38,92,0
0,43,88,0
0,46,29,0
0,62,54,0
0,67,107,0
0,67,54,0
0,43,88,56
0,38,92,20
0,43,88,0
0,46,25,0
0,54,40,0
0,62,54,0
0,62,100,0
0,67,54,0
0,67,100,0
0,38,92,42
0,43,88,0
0,40,87,28
0,43,92,0
0,43,88,0
0,46,49,0
0,69,107,0
0,50,88,48
0,55,88,0
0,43,92,20
0,43,88,0
0,46,25,0
0,50,100,0
0,54,53,0
0,55,100,0
0,59,100,0
0,62,54,0
0,67,54,0
0,43,92,12
0,43,88,0
0,70,63,0
0,35,92,22
0,35,88,0
0,36,65,0
0,46,26,0
0,51,100,0
0,54,100,0
0,59,100,0
0,66,107,0
0,35,88,6
0,35,92,58
0,35,88,0
0,46,24,0
0,54,40,0
0,59,100,0
0,66,100,0
0,35,92,36
0,35,88,0
0,59,100,0
0,66,100,0
0,35,88,20
0,39,92,0
0,40,87,0
0,46,53,0
0,47,88,22
0,54,88,0
0,35,88,24
0,39,92,0
0,46,27,0
0,54,61,0
0,63,54,0
0,66,54,0
0,71,107,0
0,35,88,38
0,36,61,0
0,39,92,0
0,59,54,0
0,35,88,34
0,36,41,0
0,42,92,0
0,46,33,0
0,63,54,0
0,66,54,0
0,35,88,4
0,35,88,44
0,42,92,0
0,46,21,0
0,54,35,0
0,59,100,0
0,63,54,0
0,66,54,0
0,66,100,0
0,69,107,0
0,35,88,42
0,42,92,0
0,35,88,22
0,40,87,0
0,46,45,0
0,47,92,0
0,47,88,38
0,51,100,0
0,54,100,0
0,54,88,0
0,59,100,0
0,35,88,24
0,46,28,0
0,47,92,0
0,54,45,0
0,63,54,0
0,66,54,0
0,67,107,0
0,35,88,26
0,47,92,0
0,70,71,0
0,28,92,24
0,36,61,0
0,40,88,0
0,46,19,0
0,52,100,0
0,55,100,0
0,59,100,0
0,40,88,10
0,28,92,58
0,40,88,0
0,46,13,0
0,54,53,0
0,59,100,0
0,64,100,0
0,28,92,42
0,40,88,0
0,59,100,0
0,64,100,0
0,31,92,24
0,40,83,0
0,46,28,0
0,52,88,10
0,59,88,0
0,31,92,24
0,40,88,0
0,46,28,0
0,54,57,0
0,64,54,0
0,67,54,0
0,31,92,42
0,40,88,0
0,59,54,0
0,35,92,34
0,36,61,0
0,40,88,0
0,46,25,0
0,64,54,0
0,67,54,0
0,40,88,6
0,35,92,46
0,40,88,0
0,46,17,0
0,48,40,0
0,54,40,0
0,59,100,0
0,64,54,0
0,64,100,0
0,67,54,0
0,69,107,0
0,35,92,36
0,40,88,0
0,48,68,0
0,40,105,26
0,40,92,0
0,40,88,0
0,46,45,0
0,59,88,54
0,64,88,0
0,40,92,24
0,40,88,0
0,46,28,0
0,52,100,0
0,54,53,0
0,55,100,0
0,59,100,0
0,64,54,0
0,67,54,0
0,71,107,0
0,36,61,36
0,40,92,0
0,40,88,0
0,70,63,0
0,36,65,34
0,36,92,0
0,36,88,0
0,46,26,0
0,52,100,0
0,55,100,0
0,60,100,0
0,72,107,0
0,36,88,8
0,36,92,62
0,36,88,0
0,46,21,0
0,54,40,0
0,55,100,0
0,60,100,0
0,36,92,40
0,36,88,0
0,55,100,0
0,60,100,0
0,36,88,20
0,40,75,0
0,40,92,0
0,46,53,0
0,67,107,0
0,55,88,16
0,60,88,0
0,36,88,50
0,40,92,0
0,46,28,0
0,54,61,0
0,55,100,0
0,60,54,0
0,60,100,0
0,64,54,0
0,72,107,0
0,36,61,40
0,36,88,0
0,40,92,0
0,55,54,0
0,36,69,38
0,36,88,0
0,43,92,0
0,46,29,0
0,60,54,0
0,64,54,0
0,36,88,12
0,36,88,56
0,36,88,0
0,43,92,0
0,46,21,0
0,54,35,0
0,60,54,0
0,64,54,0
0,64,88,0
0,67,88,0
0,74,107,0
0,36,88,42
0,43,92,0
0,36,88,36
0,40,71,0
0,46,49,0
0,48,92,0
0,64,54,0
0,36,69,52
0,60,88,0
0,64,88,0
0,36,88,42
0,46,26,0
0,48,92,0
0,54,45,0
0,55,100,0
0,60,100,0
0,64,54,0
0,67,54,0
0,71,107,0
0,36,88,30
0,48,92,0
0,70,71,0
0,31,92,36
0,36,69,0
0,43,88,0
0,46,29,0
0,50,100,0
0,55,100,0
0,59,100,0
0,43,88,40
0,31,92,30
0,43,88,0
0,46,45,0
0,54,53,0
0,62,100,0
0,67,100,0
0,31,92,30
0,43,88,0
0,62,100,0
0,67,100,0
0,35,92,26
0,40,79,0
0,43,88,0
0,46,29,0
0,50,88,18
0,55,88,0
0,35,92,24
0,43,88,0
0,46,28,0
0,54,57,0
0,62,54,0
0,67,54,0
0,35,92,40
0,36,69,0
0,43,88,0
0,59,54,0
0,36,65,36
0,38,92,0
0,43,88,0
0,46,29,0
0,62,54,0
0,67,54,0
0,71,107,0
0,43,88,58
0,38,92,10
0,43,88,0
0,46,25,0
0,54,40,0
0,62,54,0
0,62,100,0
0,67,54,0
0,67,100,0
0,38,92,40
0,43,88,0
0,40,79,28
0,43,92,0
0,43,88,0
0,46,49,0
0,74,107,0
0,50,88,48
0,55,88,0
0,43,92,24
0,43,88,0
0,46,25,0
0,50,100,0
0,54,53,0
0,55,100,0
0,59,100,0
0,62,54,0
0,67,54,0
0,43,92,12
0,43,88,0
0,70,63,0
0,35,92,22
0,35,88,0
0,36,61,0
0,46,26,0
0,51,100,0
0,54,100,0
0,59,100,0
0,75,107,0
0,35,88,6
0,35,92,58
0,35,88,0
0,46,24,0
0,54,40,0
0,59,100,0
0,66,100,0
0,35,92,8
0,35,88,0
0,59,100,0
0,66,100,0
0,35,88,20
0,39,92,0
0,40,75,0
0,46,53,0
0,71,107,0
0,47,88,22
0,54,88,0
0,35,88,24
0,39,92,0
0,46,27,0
0,54,61,0
0,63,54,0
0,66,54,0
0,69,107,0
0,35,88,38
0,36,61,0
0,39,92,0
0,59,54,0
0,35,88,34
0,36,65,0
0,42,92,0
0,46,33,0
0,63,54,0
0,66,54,0
0,35,88,4
0,35,88,42
0,42,92,0
0,46,21,0
0,54,35,0
0,59,100,0
0,63,54,0
0,66,54,0
0,66,100,0
0,71,107,0
0,35,88,40
0,42,92,0
0,35,88,36
0,40,83,0
0,46,45,0
0,47,92,0
0,47,88,38
0,51,100,0
0,54,100,0
0,54,88,0
0,59,100,0
0,35,88,24
0,46,28,0
0,47,92,0
0,54,45,0
0,63,54,0
0,66,54,0
0,67,107,0
0,35,88,26
0,47,92,0
0,70,71,0
0,28,92,24
0,36,69,0
0,40,88,0
0,46,19,0
0,52,100,0
0,55,100,0
0,59,100,0
0,40,88,10
0,28,92,58
0,40,88,0
0,46,13,0
0,54,53,0
0,59,100,0
0,64,100,0
0,28,92,42
0,40,88,0
0,59,100,0
0,64,100,0
0,31,92,26
0,40,83,0
0,46,28,0
0,52,88,10
0,59,88,0
0,31,92,24
0,40,88,0
0,46,28,0
0,54,57,0
0,64,54,0
0,67,54,0
0,31,92,42
0,36,53,0
0,40,88,0
0,59,54,0
0,35,92,34
0,36,61,0
0,40,88,0
0,46,25,0
0,64,54,0
0,67,54,0
0,40,88,6
0,35,92,48
0,40,88,0
0,46,17,0
0,54,40,0
0,59,100,0
0,64,54,0
0,64,100,0
0,67,54,0
0,69,107,0
0,35,92,36
0,40,88,0
0,40,87,34
0,40,92,0
0,40,88,0
0,46,45,0
0,59,88,56
0,64,88,0
0,71,107,0
0,40,92,22
0,40,88,0
0,46,28,0
0,52,100,0
0,54,53,0
0,55,100,0
0,59,100,0
0,64,54,0
0,67,54,0
0,40,92,0
0,40,88,0
0,70,63,0
0,36,69,34
0,36,92,0
0,36,88,0
0,46,26,0
0,52,100,0
0,55,100,0
0,60,100,0
0,72,107,0
0,36,88,6
0,36,92,62
0,36,88,0
0,46,21,0
0,54,40,0
0,55,100,0
0,60,100,0
0,36,92,40
0,36,88,0
0,55,100,0
0,60,100,0
0,67,107,0
0,36,88,22
0,40,83,0
0,40,92,0
0,46,53,0
0,55,88,16
0,60,88,0
0,36,88,50
0,40,92,0
0,46,28,0
0,54,61,0
0,55,100,0
0,60,54,0
0,60,100,0
