track,note,velocity,time
1,74,82,4360
1,74,88,104
1,73,71,488
1,74,73,196
1,76,79,220
1,74,72,428
1,67,90,28
1,69,92,244
1,67,88,12
1,66,100,480
1,66,95,144
1,65,80,12
1,66,106,240
1,72,92,192
1,72,86,68
1,74,79,492
1,72,92,228
1,71,88,212
1,69,103,440
1,67,80,8
1,66,86,244
1,67,90,12
1,62,77,4060
1,62,66,64
1,67,67,24
1,69,79,240
1,70,71,196
1,70,64,124
1,62,64,4
1,67,67,240
1,69,73,224
1,70,54,196
1,62,72,196
1,63,59,240
1,63,65,132
1,65,73,484
1,63,69,204
1,62,76,216
1,62,62,508
1,62,62,88
1,67,64,236
1,69,71,212
1,70,60,204
1,70,71,120
1,62,62,12
1,67,66,240
1,69,73,228
1,70,77,208
1,70,77,124
1,69,80,244
1,69,80,132
1,72,76,484
1,70,77,216
1,70,73,84
1,72,72,116
1,70,53,16
1,69,57,124
1,62,64,812
1,62,73,84
1,67,66,240
1,69,74,220
1,70,63,192
1,70,65,184
1,62,65,244
1,67,68,12
1,69,63,360
1,70,58,104
1,70,64,120
1,67,76,248
1,67,86,144
1,67,71,84
1,65,70,244
1,63,106,224
1,72,73,212
1,72,77,72
1,72,77,196
1,70,71,52
1,69,73,244
1,70,60,240
1,67,66,424
1,67,62,216
1,69,63,92
1,69,74,40
1,72,66,116
1,70,67,244
1,70,60,84
1,69,76,228
1,71,106,1300
1,71,82,64
1,70,63,484
1,71,77,188
1,72,73,208
1,71,90,448
1,67,62,460
1,69,86,192
1,67,84,244
1,66,106,436
1,66,83,108
1,65,80,244
1,66,95,208
1,62,57,32
1,62,73,84
1,72,88,252
1,72,77,116
1,71,73,484
1,72,72,216
1,74,69,236
1,72,67,424
1,72,74,124
1,74,69,244
1,72,67,212
1,71,80,448
1,71,80,96
1,70,56,244
1,71,79,228
1,62,64,112
1,62,77,136
1,62,80,108
1,64,76,20
1,64,79,120
1,66,60,244
1,66,75,64
1,67,84,484
1,67,84,92
1,64,71,4
1,72,90,32
1,64,86,288
1,64,82,76
1,66,80,0
1,66,71,124
1,67,82,4
1,67,80,96
1,71,84,8
1,71,77,140
1,71,73,84
1,71,76,96
1,72,64,236
1,71,70,96
1,69,79,100
1,62,86,688
1,64,77,472
1,64,72,160
1,66,63,244
1,66,71,64
1,67,76,484
1,67,80,172
1,74,74,20
1,74,80,88
1,72,77,476
1,72,74,140
1,67,74,24
1,67,90,104
1,67,79,160
1,67,74,80
1,69,80,244
1,71,79,240
1,71,76,136
1,72,71,236
1,71,70,192
1,69,84,200
1,62,72,20
1,72,71,68
1,71,72,236
1,69,72,184
1,67,80,236
1,62,66,4300
1,67,67,20
1,69,79,244
1,70,71,204
1,70,64,124
1,62,64,4
1,67,67,240
1,69,73,212
1,70,54,204
1,62,72,196
1,63,59,240
1,63,65,132
1,65,73,484
1,63,69,204
1,62,76,216
1,62,62,496
1,62,62,88
1,67,64,236
1,69,71,216
1,70,60,204
1,70,71,124
1,62,62,12
1,67,66,244
1,69,73,228
1,70,77,204
1,70,77,120
1,69,80,248
1,69,80,128
1,72,76,484
1,70,77,212
1,70,73,80
1,72,72,120
1,70,53,20
1,69,57,124
1,62,64,816
1,62,73,84
1,67,66,240
1,69,74,220
1,70,63,196
1,70,65,180
1,62,65,248
1,67,68,16
1,69,63,360
1,70,58,104
1,70,64,120
1,67,76,248
1,67,86,140
1,67,71,84
1,65,70,244
1,63,106,224
1,72,73,212
1,72,77,72
1,72,77,200
1,70,71,56
1,69,73,240
1,70,60,240
1,67,66,424
1,67,62,216
1,69,63,92
1,69,74,40
1,72,66,120
1,70,67,244
1,70,60,80
1,69,76,232
1,71,106,1292
1,71,82,64
1,70,63,484
1,71,77,192
1,72,73,208
1,71,90,444
1,67,62,460
1,69,86,188
1,67,84,248
1,66,106,436
1,66,83,104
1,65,80,244
1,66,95,208
1,62,57,32
1,62,73,84
1,72,88,252
1,72,77,116
1,71,73,484
1,72,72,220
1,74,69,236
1,72,67,428
1,72,74,120
1,74,69,244
1,72,67,212
1,71,80,452
1,71,80,96
1,70,56,244
1,71,79,228
1,62,64,112
1,62,77,144
1,62,80,108
1,64,76,20
1,64,79,112
1,66,60,244
1,66,75,64
1,67,84,484
1,67,84,92
1,64,71,4
1,72,90,36
1,64,86,284
1,64,82,72
1,66,80,4
1,66,71,124
1,67,82,4
1,67,80,100
1,71,84,12
1,71,77,140
1,71,73,84
1,71,76,108
1,72,64,236
1,71,70,100
1,69,79,100
1,62,86,688
1,64,77,468
1,64,72,160
1,66,63,248
1,66,71,64
1,67,76,484
1,67,80,172
1,74,74,24
1,74,80,88
1,72,77,476
1,72,74,140
1,67,74,20
1,67,90,108
1,67,79,160
1,67,74,84
1,69,80,244
1,71,79,240
1,71,76,140
1,72,71,236
1,71,70,192
1,69,84,204
1,62,72,24
1,72,71,68
1,71,72,236
1,69,72,184
1,67,80,236
1,72,106,1404
1,72,82,68
1,71,63,484
1,72,77,188
1,73,73,208
1,72,90,444
1,68,62,456
1,70,86,188
1,68,84,248
1,67,106,440
1,67,83,108
1,66,80,244
1,67,95,212
1,63,57,32
1,63,73,88
1,73,88,248
1,73,77,112
1,72,73,484
1,73,72,216
1,75,69,236
1,73,67,424
1,73,74,120
1,75,69,244
1,73,67,212
1,72,80,448
1,72,80,96
1,71,56,244
1,72,79,228
1,63,64,116
1,63,77,136
1,63,80,104
1,65,76,20
1,65,79,120
1,67,60,248
1,67,75,64
1,68,84,484
1,68,84,92
1,65,71,4
1,73,90,32
1,65,86,288
1,65,82,68
1,67,80,0
1,67,71,120
1,68,82,4
1,68,80,104
1,72,84,8
1,72,77,140
1,72,73,80
1,72,76,108
1,73,64,232
1,72,70,96
1,70,79,100
1,63,86,696
1,65,77,472
1,65,72,160
1,67,63,244
1,67,71,64
1,68,76,480
1,68,80,172
1,75,74,20
1,75,80,88
1,73,77,476
1,73,74,140
1,68,74,24
1,68,90,104
1,68,79,160
1,68,74,84
1,70,80,240
1,72,79,244
1,72,76,136
1,73,71,236
1,72,70,196
1,70,84,200
1,63,72,20
1,73,71,68
1,72,72,236
1,70,72,184
1,44,95,220
1,51,76,196
1,56,73,240
1,72,79,244
1,68,77,244
1,63,70,240
1,44,90,20
1,51,71,240
1,56,70,124
1,75,79,240
1,72,76,204
1,68,71,244
1,44,90,0
1,51,71,212
1,56,64,20
1,72,80,244
1,68,77,240
1,63,71,244
1,44,67,124
1,68,77,0
1,60,58,4
1,56,62,0
2,31,103,4352
2,35,82,176
2,38,92,240
2,40,72,704
2,38,76,228
2,35,73,220
2,38,73,220
2,42,80,204
2,45,82,240
2,38,80,24
2,33,90,720
2,45,92,944
2,40,72,220
2,38,74,220
2,34,71,944
2,33,82,228
2,31,103,224
2,38,95,248
2,43,82,240
2,34,83,220
2,33,84,244
2,31,100,212
2,38,100,260
2,43,97,20
2,38,97,100
2,31,113,184
2,31,92,224
2,31,106,104
2,31,90,140
2,36,86,244
2,36,79,164
2,31,100,240
2,31,109,256
2,31,100,224
2,31,109,180
2,33,106,480
2,33,86,204
2,38,97,144
2,39,100,160
2,38,77,244
2,31,109,104
2,31,100,260
2,31,100,160
2,31,103,648
2,31,92,200
2,35,80,4
2,36,103,240
2,36,113,452
2,36,90,152
2,33,76,240
2,31,92,228
2,31,86,256
2,33,90,240
2,33,86,236
2,38,95,4
2,33,90,216
2,38,95,28
2,38,90,84
2,40,90,240
2,42,83,232
2,43,80,0
2,45,103,244
2,31,95,64
2,35,92,204
2,38,79,240
2,35,76,700
2,38,64,444
2,38,77,32
2,42,83,228
2,45,80,244
2,42,80,684
2,38,82,4
2,33,84,40
2,40,80,172
2,38,84,244
2,35,79,168
2,38,68,480
2,31,88,0
2,35,90,224
2,38,82,244
2,40,90,204
2,38,73,240
2,35,82,212
2,31,84,20
2,35,84,200
2,38,86,244
2,35,74,692
2,38,73,436
2,33,90,224
2,36,74,224
2,40,74,240
2,36,92,696
2,40,74,448
2,33,100,4
2,37,100,244
2,40,88,240
2,37,95,700
2,40,79,12
2,38,106,244
2,33,88,180
2,38,86,244
2,38,84,264
2,38,74,184
2,38,88,60
2,38,82,60
2,31,92,68
2,35,86,200
2,38,79,20
2,35,86,208
2,38,77,480
2,36,103,24
2,31,80,264
2,36,117,244
2,36,103,188
2,31,86,236
2,36,88,4
2,31,103,240
2,31,86,232
2,38,95,244
2,35,79,680
2,38,71,200
2,35,76,232
2,31,95,0
2,38,95,152
2,43,95,240
2,34,83,124
2,33,84,240
2,31,100,224
2,38,103,1172
2,43,97,236
2,38,113,264
2,31,113,224
2,31,92,224
2,31,106,104
2,31,90,144
2,36,86,244
2,36,79,164
2,31,100,240
2,31,109,256
2,31,100,220
2,31,109,180
2,33,106,476
2,33,86,200
2,38,97,144
2,39,100,164
2,38,77,244
2,31,109,100
2,31,100,264
2,31,100,160
2,31,103,644
2,31,92,200
2,35,80,0
2,36,103,244
2,36,113,456
2,36,90,152
2,33,76,244
2,31,92,228
2,31,86,252
2,33,90,244
2,33,86,236
2,38,95,0
2,33,90,220
2,38,95,24
2,38,90,80
2,40,90,244
2,42,83,228
2,43,80,0
2,45,103,244
2,31,95,60
2,35,92,208
2,38,79,240
2,35,76,700
2,38,64,444
2,38,77,32
2,42,83,228
2,45,80,240
2,42,80,688
2,38,82,4
2,33,84,40
2,40,80,180
2,38,84,240
2,35,79,164
2,38,68,484
2,31,88,0
2,35,90,224
2,38,82,240
2,40,90,204
2,38,73,236
2,35,82,212
2,31,84,20
2,35,84,192
2,38,86,244
2,35,74,692
2,38,73,436
2,33,90,224
2,36,74,220
2,40,74,244
2,36,92,700
2,40,74,448
2,33,100,4
2,37,100,244
2,40,88,240
2,37,95,700
2,40,79,12
2,38,106,240
2,33,88,180
2,38,86,244
2,38,84,264
2,38,74,184
2,38,88,60
2,38,82,60
2,31,92,68
2,35,86,204
2,38,79,24
2,35,86,208
2,38,77,480
2,36,103,20
2,31,80,264
2,36,117,240
2,36,103,188
2,31,86,240
2,36,88,0
2,31,103,244
2,31,86,236
2,38,95,244
2,35,79,684
2,38,71,204
2,35,76,236
2,31,109,0
2,38,97,216
2,39,61,240
2,39,95,92
2,41,80,4
2,43,79,240
2,44,90,232
2,46,112,212
2,32,95,104
2,36,92,204
2,39,79,240
2,36,76,696
2,39,64,452
2,39,77,32
2,43,83,228
2,46,80,244
2,43,80,684
2,39,82,4
2,34,84,44
2,41,80,180
2,39,84,244
2,36,79,164
2,39,68,484
2,32,88,4
2,36,90,224
2,39,82,244
2,41,90,208
2,39,73,236
2,36,82,212
2,32,84,20
2,36,84,200
2,39,86,244
2,36,74,696
2,39,73,448
2,34,90,220
2,37,74,224
2,41,74,240
2,37,92,696
2,41,74,444
2,34,100,0
2,38,100,244
2,41,88,240
2,38,95,704
2,41,79,12
2,39,106,244
2,34,88,180
2,39,86,240
2,39,84,260
2,39,74,184
2,39,88,60
2,39,82,60
2,32,92,72
2,36,86,204
2,39,79,20
2,36,86,208
2,39,77,480
2,37,103,24
2,32,80,264
2,37,117,244
2,37,103,188
2,32,86,236
2,37,88,0
2,32,103,240
2,32,86,232
2,39,95,244
2,36,79,688
2,39,71,212
2,36,76,236
2,32,103,4
2,36,109,188
2,39,88,4
2,36,106,24
2,39,92,484
2,32,97,216
2,39,95,1188
2,44,97,220
3,55,58,4352
3,43,53,4
3,50,55,192
3,38,69,4
3,45,69,184
3,57,70,0
3,38,72,20
3,50,70,4
3,55,77,4
3,43,67,4
3,79,30,12176
3,55,30,0
3,43,22,0
3,83,35,2904
3,86,40,964
3,79,45,36
3,84,42,0
3,48,44,0
3,75,42,4
3,63,36,216
3,67,52,0
3,48,54,4
3,72,56,0
3,36,52,4
3,43,54,216
3,70,57,4
3,62,53,0
3,55,50,4
3,61,47,136
3,69,49,0
3,64,52,4
3,45,32,4
3,57,53,0
3,66,48,52
3,62,71,4
3,38,50,4
3,50,50,4
3,50,79,184
3,74,65,0
3,76,70,244
3,52,60,0
3,54,67,216
3,78,64,4
3,55,73,164
3,79,79,4
3,81,76,184
3,57,70,4
3,55,63,44
3,43,72,0
3,74,73,4
3,71,77,0
3,71,69,144
3,74,70,0
3,70,55,484
3,73,60,0
3,74,68,4
3,71,69,4
3,76,59,212
3,72,62,4
3,74,60,424
3,71,76,0
3,64,62,196
3,67,72,4
3,66,49,4
3,69,69,0
3,67,76,216
3,38,64,0
3,50,62,4
3,64,69,0
3,66,64,416
3,62,71,4
3,66,61,124
3,62,65,0
3,65,61,244
3,61,49,0
3,66,61,228
3,62,62,4
3,45,50,324
3,69,72,0
3,72,66,4
3,57,53,4
3,72,63,28
3,69,80,4
3,68,57,484
3,71,73,0
3,72,62,36
3,69,73,0
3,69,56,24
3,38,60,4
3,50,55,0
3,74,90,4
3,72,74,104
3,69,80,80
3,72,84,0
3,74,66,4
3,43,61,116
3,69,80,0
3,55,54,4
3,72,71,0
3,71,76,436
3,67,65,4
3,71,74,120
3,67,68,4
3,66,58,240
3,70,63,4
3,67,74,204
3,71,80,0
3,62,69,44
3,59,53,244
3,64,46,32
3,45,49,4
3,72,53,0
3,57,54,4
3,69,43,0
3,61,46,100
3,45,63,4
3,57,56,0
3,66,50,32
3,50,65,4
3,62,62,0
3,69,64,384
3,67,65,0
3,81,74,0
3,88,82,204
3,76,69,0
3,74,72,4
3,86,79,0
3,62,100,180
3,50,74,0
3,52,76,244
3,64,77,0
3,54,73,232
3,66,80,0
3,55,70,176
3,67,90,0
3,69,70,20
3,57,69,4
3,71,82,152
3,67,82,4
3,43,68,0
3,62,72,4
3,55,67,0
3,72,53,4
3,48,60,0
3,64,64,4
3,63,56,1424
3,43,45,144
3,71,51,0
3,62,51,4
3,55,44,0
3,66,50,12
3,69,65,4
3,50,70,0
3,58,42,236
3,62,52,0
3,67,55,4
3,43,53,0
3,55,47,4
3,79,30,14428
3,55,30,4
3,43,22,0
3,83,35,2900
3,86,40,968
3,79,45,36
3,84,42,0
3,48,44,4
3,75,42,0
3,63,36,216
3,67,52,0
3,48,54,4
3,72,56,0
3,36,52,0
3,43,54,216
3,70,57,0
3,62,53,4
3,55,50,0
3,61,47,136
3,69,49,0
3,64,52,4
3,45,32,4
3,57,53,0
3,66,48,64
3,62,71,0
3,38,50,8
3,50,50,0
3,50,79,184
3,74,65,0
3,76,70,240
3,52,60,4
3,54,67,224
3,78,64,0
3,55,73,156
3,79,79,4
3,81,76,184
3,57,70,0
3,55,63,44
3,43,72,0
3,74,73,4
3,71,77,0
3,71,69,140
3,74,70,4
3,70,55,480
3,73,60,4
3,74,68,4
3,71,69,0
3,76,59,220
3,72,62,4
3,74,60,424
3,71,76,0
3,64,62,196
3,67,72,0
3,66,49,4
3,69,69,4
3,67,76,224
3,38,64,0
3,50,62,4
3,64,69,0
3,66,64,420
3,62,71,4
3,66,61,120
3,62,65,4
3,65,61,240
3,61,49,4
3,66,61,228
3,62,62,0
3,45,50,320
3,69,72,0
3,72,66,4
3,57,53,4
3,72,63,32
3,69,80,4
3,68,57,480
3,71,73,4
3,72,62,32
3,69,73,4
3,69,56,24
3,38,60,0
3,50,55,4
3,74,90,0
3,72,74,100
3,69,80,80
3,72,84,0
3,74,66,4
3,43,61,116
3,69,80,0
3,55,54,0
3,72,71,4
3,71,76,436
3,67,65,0
3,71,74,120
3,67,68,4
3,66,58,240
3,70,63,4
3,67,74,204
3,71,80,0
3,62,69,44
3,59,53,240
3,64,46,32
3,45,49,0
3,72,53,4
3,57,54,0
3,69,43,4
3,61,46,104
3,45,63,4
3,57,56,0
3,66,50,32
3,50,65,0
3,62,62,4
3,69,64,388
3,67,65,0
3,81,74,0
3,88,82,204
3,76,69,4
3,74,72,4
3,86,79,0
3,62,100,180
3,50,74,4
3,52,76,244
3,64,77,0
3,54,73,228
3,66,80,4
3,55,70,176
3,67,90,4
3,69,70,20
3,57,69,4
3,71,82,156
3,67,82,4
3,43,68,0
3,62,72,4
3,55,67,0
