track,note,velocity,time
1,47,82,155514
1,48,65,6
1,50,71,66
1,52,71,16
1,53,74,18
1,55,86,18
1,57,68,0
1,59,64,22
1,60,74,18
1,62,68,18
1,64,64,0
1,65,74,20
1,67,78,2
1,69,82,22
1,71,82,2
1,72,96,0
1,74,82,6
1,76,82,6
1,77,86,4
1,79,90,6
1,81,74,6
1,83,86,10
1,84,96,6
1,86,90,8
1,88,96,8
1,89,96,8
1,91,96,6
1,93,96,8
1,95,90,8
1,96,90,4
1,98,85,8
1,100,90,6
1,101,96,6
1,103,110,10
1,55,94,24496
1,60,70,28
1,65,94,26
1,57,98,34
1,62,76,36
1,67,90,20
1,58,98,20
1,63,72,32
1,68,98,34
1,67,127,24
1,63,90,22
1,58,81,40
1,55,106,30
1,60,84,18
1,65,103,24
1,57,90,28
1,67,127,16
1,61,95,124
1,55,94,310
1,60,70,28
1,65,94,26
1,57,98,34
1,62,76,36
1,67,90,20
1,58,98,20
1,63,72,32
1,68,98,34
1,67,127,24
1,63,90,22
1,58,81,40
1,55,111,18
1,63,126,26
1,57,100,4
1,60,90,210
1,65,76,14
1,70,98,20
1,62,88,112
1,67,84,30
1,75,112,10
1,81,116,6
1,63,98,36
1,68,72,30
1,73,112,52
1,62,78,18
1,72,98,36
1,72,126,124
1,66,106,0
1,55,94,30
1,60,70,28
1,65,94,26
1,57,98,34
1,62,76,36
1,67,90,20
1,58,98,20
1,63,72,32
1,68,98,34
1,67,108,24
1,63,90,22
1,58,81,40
1,55,111,18
1,63,126,36
1,57,100,4
1,60,90,42
1,65,76,14
1,70,98,20
1,62,88,112
1,67,84,30
1,81,100,4
1,75,112,6
1,63,98,36
1,68,72,30
1,73,112,52
1,62,78,18
1,72,98,36
1,72,120,16
1,66,106,6
1,67,94,408
1,72,70,28
1,77,94,26
1,69,98,34
1,74,76,36
1,79,90,20
1,70,98,20
1,75,72,32
1,80,98,34
1,79,108,24
1,75,90,22
1,70,81,40
2,28,100,26738
2,29,92,128
2,30,81,16
2,31,92,132
2,31,81,142
2,31,88,44
2,31,78,136
2,31,90,54
2,31,78,160
2,31,87,40
2,31,81,128
2,31,93,42
2,31,78,120
2,31,93,50
2,31,78,114
2,31,93,52
2,31,78,126
2,31,93,38
2,31,75,126
2,31,95,50
2,31,78,120
2,31,95,56
2,31,75,110
2,31,93,52
2,31,84,114
2,31,95,50
2,31,84,110
2,31,95,40
2,31,78,106
2,31,95,40
2,31,75,108
2,31,95,46
2,31,84,108
2,31,95,46
2,31,81,118
2,31,98,40
2,31,81,112
2,31,93,52
2,31,81,106
2,31,95,44
2,31,81,108
2,31,95,54
2,31,78,114
2,31,93,62
2,31,78,104
2,31,87,60
2,30,69,40
2,29,84,40
2,28,96,24
2,28,78,142
2,28,92,64
2,28,81,90
2,33,98,126
2,33,78,120
2,33,95,50
2,33,81,104
2,38,93,0
2,38,78,102
2,38,95,50
2,38,87,96
2,31,93,128
2,31,78,102
2,31,95,52
2,31,87,96
2,43,84,128
2,41,78,242
2,43,92,128
2,41,68,8
2,38,92,130
2,38,81,140
2,38,88,42
2,38,78,130
2,38,90,58
2,38,78,130
2,38,87,42
2,38,81,126
2,38,93,40
2,38,78,130
2,38,93,34
2,38,78,114
2,43,84,20
2,41,78,0
2,43,92,130
2,41,68,8
2,38,95,128
2,38,78,122
2,38,95,54
2,38,75,110
2,38,93,52
2,38,84,114
2,38,95,48
2,38,78,114
2,38,95,36
2,38,78,110
2,38,95,38
2,38,75,126
2,43,84,22
2,41,78,2
2,43,92,130
2,41,68,8
2,36,95,128
2,36,78,122
2,36,95,54
2,36,75,110
2,36,93,52
2,36,84,114
2,36,95,48
2,36,78,114
2,36,95,36
2,36,78,110
2,36,95,38
2,36,75,110
2,43,84,42
2,41,78,0
2,43,92,130
2,41,68,250
2,38,95,0
2,38,78,122
2,38,95,54
2,38,75,110
2,38,93,52
2,33,61,6
2,33,75,44
2,35,95,48
2,35,78,4
2,38,95,16
2,38,78,110
2,33,95,38
2,33,75,110
2,35,95,42
2,35,78,80
2,36,95,54
2,36,75,78
2,38,87,50
2,38,78,130
2,38,87,40
2,38,81,128
2,38,93,42
2,38,78,120
2,38,93,50
2,38,78,114
2,38,93,50
2,38,78,128
2,38,93,38
2,38,75,128
2,43,100,54
2,41,84,8
2,43,80,128
2,41,68,236
2,38,93,2
2,38,84,114
2,38,95,48
2,38,84,112
2,38,95,38
2,38,78,110
2,38,95,38
2,38,75,110
2,38,95,44
2,38,78,108
2,38,87,40
2,38,81,128
2,43,80,48
2,41,80,16
2,43,78,132
2,41,68,218
2,36,93,120
2,36,78,130
2,36,93,34
2,36,75,132
2,36,95,50
2,36,78,122
2,36,95,54
2,36,75,110
2,36,93,52
2,36,84,114
2,36,95,48
2,36,84,112
2,43,88,38
2,41,70,266
2,43,88,128
2,41,68,202
2,38,95,114
2,38,78,108
2,38,87,40
2,38,81,128
2,38,93,42
2,33,78,116
2,35,93,18
2,36,78,34
2,38,93,16
2,38,78,126
2,36,93,38
2,36,75,132
2,35,95,50
2,35,78,122
2,33,95,54
2,33,75,110
2,31,95,28
2,31,81,108
2,31,88,44
2,31,78,136
2,31,90,54
2,31,78,160
2,31,87,40
2,31,81,128
2,38,93,38
2,38,72,134
2,38,93,38
2,38,78,118
2,38,93,46
2,38,78,132
2,38,93,36
2,38,75,128
2,41,95,50
2,41,78,120
2,41,95,56
2,41,75,110
2,41,93,52
2,41,84,114
2,41,95,50
2,41,84,112
2,36,95,38
2,36,78,110
2,36,95,36
2,36,75,112
2,36,95,44
2,36,84,108
2,36,95,44
2,36,81,120
2,39,98,38
2,39,81,116
2,39,93,52
2,39,81,106
2,39,95,40
2,39,81,108
2,39,95,56
2,39,78,114
2,31,93,40
2,31,78,100
2,31,87,44
2,30,69,40
2,29,84,40
2,28,96,24
2,28,78,132
2,28,92,48
2,28,81,92
2,33,98,0
2,33,78,126
2,33,95,46
2,33,81,98
2,33,93,42
2,33,78,104
2,35,95,40
2,36,87,34
2,38,93,128
2,38,78,102
2,36,95,48
2,36,87,100
2,35,95,8
2,35,87,98
2,33,95,10
2,33,87,98
2,31,92,10
2,31,81,140
2,31,88,44
2,31,78,136
2,31,90,54
2,31,78,160
2,31,87,40
2,35,66,0
2,36,75,22
2,38,93,6
2,38,72,134
2,38,93,38
2,38,78,130
2,38,93,50
2,38,78,132
2,38,93,36
2,38,75,128
2,41,95,50
2,41,78,120
2,41,95,56
2,41,75,110
2,41,93,52
2,41,84,114
2,33,95,50
2,35,84,38
2,36,95,28
2,36,78,110
2,36,95,36
2,36,75,112
2,36,95,44
2,36,84,108
2,36,95,44
2,36,81,120
2,39,98,38
2,39,81,116
2,39,93,52
2,39,81,106
2,39,95,40
2,39,81,108
2,39,95,56
2,39,78,114
2,31,93,40
2,31,78,100
2,31,87,44
2,30,69,40
2,29,84,40
2,28,96,24
2,28,78,132
2,28,92,48
2,28,81,92
2,33,98,0
2,33,78,126
2,33,95,46
2,33,81,98
2,38,93,42
2,38,78,104
2,38,95,40
2,38,87,118
2,31,93,8
2,31,78,102
2,31,95,48
2,31,78,98
2,43,88,44
2,41,78,14
2,43,84,126
2,41,70,240
2,38,92,6
2,38,81,140
2,38,88,42
2,38,78,130
2,38,90,58
2,38,78,130
2,38,87,42
2,38,81,126
2,38,93,40
2,38,78,130
2,38,93,34
2,38,78,114
2,43,84,20
2,41,78,0
2,43,92,130
2,41,68,8
2,38,95,128
2,38,78,122
2,38,95,54
2,38,75,110
2,38,93,52
2,38,84,114
2,38,95,48
2,38,78,114
2,38,95,36
2,38,78,110
2,38,95,38
2,38,75,126
2,43,84,22
2,41,78,2
2,43,92,130
2,41,68,8
2,36,95,128
2,36,78,122
2,36,95,54
2,36,75,110
2,36,93,52
2,36,84,114
2,36,95,48
2,36,78,114
2,36,95,36
2,36,78,110
2,36,95,38
2,36,75,110
2,43,84,42
2,41,78,0
2,43,92,130
2,41,68,250
2,38,95,0
2,38,78,122
2,38,95,54
2,38,75,110
2,38,93,52
2,33,61,6
2,33,75,44
2,35,95,48
2,35,78,4
2,38,95,16
2,38,78,110
2,38,95,38
2,38,75,110
2,38,95,42
2,33,78,80
2,35,95,42
2,38,75,24
2,31,93,38
2,35,78,74
2,38,78,68
2,43,93,42
2,42,93,86
2,38,74,68
2,42,78,72
2,41,84,26
2,36,66,2
2,29,84,54
2,28,90,8
2,36,84,1146
2,31,106,8
2,30,96,54
2,36,88,14
2,29,96,18
2,28,96,32
2,28,78,84
2,31,92,28
2,31,81,138
2,31,88,44
2,31,78,136
2,31,90,54
2,31,78,160
2,31,87,40
2,31,81,128
2,31,93,38
2,31,72,134
2,31,93,38
2,31,78,118
2,31,93,46
2,31,78,132
2,31,93,36
2,31,75,128
2,31,95,50
2,31,78,120
2,31,95,56
2,31,75,110
2,31,93,52
2,31,84,114
2,31,95,50
2,31,84,112
2,31,95,38
2,31,78,110
2,31,95,36
2,31,75,112
2,31,95,44
2,31,84,108
2,31,95,44
2,31,81,120
2,31,98,38
2,31,81,116
2,31,93,52
2,31,81,106
2,31,95,40
2,31,81,108
2,31,95,56
2,31,78,114
2,31,93,40
2,31,78,100
2,31,87,44
2,31,84,114
2,31,96,24
2,31,78,132
2,31,92,48
2,31,81,92
2,31,98,36
2,31,78,126
2,31,95,42
2,31,81,102
2,31,93,42
2,31,78,104
2,31,95,40
2,31,87,90
2,31,93,32
2,31,78,102
2,28,89,44
2,40,78,120
2,29,84,216
2,41,74,76
2,30,82,232
2,42,75,90
2,31,92,252
2,31,81,140
2,31,88,44
2,31,78,136
2,31,90,54
2,28,69,160
2,29,87,8
2,30,81,10
2,31,93,12
2,31,72,134
2,31,93,38
2,31,78,118
2,31,93,46
2,28,78,132
2,29,93,4
2,30,75,0
2,31,95,8
2,31,78,136
2,31,95,56
2,31,75,110
2,31,93,52
2,28,84,114
2,29,95,4
2,30,84,16
2,31,95,18
2,31,78,110
2,31,95,36
2,28,75,112
2,29,95,44
2,29,84,108
2,30,95,44
2,30,81,120
2,31,98,38
2,31,81,120
2,31,88,44
2,31,78,136
2,31,90,54
2,28,69,160
2,29,87,8
2,30,81,10
2,31,93,12
2,31,72,134
2,31,93,38
2,31,78,118
2,31,93,46
2,28,78,132
2,29,93,4
2,30,75,0
2,31,95,8
2,31,78,136
2,31,95,56
2,31,75,110
2,31,93,52
2,28,84,114
2,29,95,4
2,30,84,16
2,31,95,18
2,31,78,110
2,28,92,38
2,40,66,124
2,29,62,234
2,41,74,92
2,30,82,224
2,42,68,0
2,31,98,266
2,31,81,120
2,31,88,44
2,31,78,136
2,31,90,54
2,28,69,160
2,29,87,8
2,30,81,10
2,31,93,12
2,31,72,134
2,31,93,38
2,31,78,118
2,31,93,46
2,28,78,132
2,29,93,4
2,30,75,0
2,31,95,8
2,31,78,136
2,31,95,56
2,31,75,110
2,31,93,52
2,28,84,114
2,29,95,4
2,30,84,16
2,31,95,18
2,31,78,110
2,31,84,288
2,32,64,2
2,44,68,126
2,44,48,80
2,31,98,84
2,31,81,120
2,31,88,44
2,31,78,136
2,31,90,54
2,28,69,160
2,29,87,8
2,30,81,10
2,31,93,12
2,31,72,134
2,31,93,38
2,31,78,118
2,31,93,46
2,28,78,132
2,29,93,4
2,30,75,0
2,31,95,8
2,31,78,136
2,31,95,56
2,31,75,110
2,31,93,52
2,28,84,114
2,29,95,4
2,30,84,16
2,31,95,18
2,31,78,110
2,28,92,38
2,40,66,124
2,29,62,234
2,41,74,92
2,32,82,224
2,44,68,0
2,31,98,266
2,31,81,120
2,31,88,44
2,31,78,136
2,31,90,54
2,28,69,160
2,29,87,8
2,30,81,10
2,31,93,12
2,31,72,134
2,31,93,38
2,31,78,118
2,31,93,46
2,28,78,132
2,29,93,4
2,30,75,0
2,31,95,8
2,31,78,136
2,31,95,56
2,31,75,110
2,31,93,52
2,28,84,114
2,29,95,4
2,30,84,16
2,31,95,18
2,31,78,110
2,31,95,36
2,31,75,112
2,31,95,44
2,31,84,108
2,29,95,44
2,30,81,120
2,31,98,38
2,31,81,120
2,31,88,44
2,31,78,136
2,31,90,54
2,28,69,160
2,29,87,8
2,30,81,10
2,31,93,12
2,31,72,134
2,31,93,38
2,31,78,118
2,31,93,46
2,28,78,132
2,29,93,4
2,30,75,0
2,31,95,8
2,31,78,136
2,31,95,56
2,31,75,110
2,31,93,52
2,46,82,122
2,34,38,116
2,46,68,112
2,46,82,20
2,34,58,22
2,46,84,108
2,46,88,98
2,46,82,20
2,32,69,102
2,44,84,64
2,44,81,132
2,31,93,22
2,31,81,114
2,31,88,44
2,31,78,136
2,31,90,54
2,28,69,160
2,29,87,8
2,30,81,10
2,31,93,12
2,31,72,134
2,31,93,38
2,31,78,118
2,31,93,46
2,28,78,132
2,29,93,4
2,30,75,0
2,31,95,8
2,31,78,136
2,31,95,56
2,31,75,110
2,31,93,52
2,28,84,114
2,29,95,4
2,30,84,16
2,31,95,18
2,31,58,34
2,31,78,58
2,34,95,36
2,34,75,54
2,33,95,44
2,33,84,108
2,32,95,44
2,32,81,120
2,31,98,38
2,31,81,120
2,31,88,44
2,31,78,136
2,31,90,54
2,31,69,160
2,31,87,38
2,31,81,34
2,31,93,38
2,31,72,134
2,31,93,38
2,31,78,118
2,31,93,46
2,28,78,132
2,29,93,4
2,30,75,0
2,31,95,8
2,31,78,136
2,31,95,56
2,31,75,110
2,31,93,52
2,31,84,114
2,31,95,36
2,31,84,46
2,31,95,36
2,46,81,122
2,34,68,92
2,46,68,58
2,29,78,38
2,29,74,68
2,30,96,2
2,30,82,62
2,31,98,12
2,31,81,120
2,31,88,44
2,31,78,136
2,31,90,54
2,28,69,160
2,29,87,8
2,30,81,10
2,31,93,12
2,31,72,134
2,31,93,38
2,31,78,118
2,31,93,46
2,28,78,132
2,29,93,4
2,30,75,0
2,31,95,8
2,31,78,136
2,31,95,56
2,31,75,110
2,31,93,52
2,28,84,114
2,29,95,4
2,30,84,16
2,31,95,18
2,31,78,110
2,31,95,36
2,31,75,112
2,31,95,44
2,28,84,108
2,29,95,44
2,30,81,48
2,31,98,38
2,31,81,120
2,31,88,44
2,31,78,136
2,31,90,54
2,31,69,160
2,31,87,24
2,31,81,52
2,31,93,32
2,31,72,134
2,31,93,38
2,31,78,118
2,31,93,46
2,28,78,132
2,29,93,4
2,30,75,0
2,31,95,8
2,31,78,136
2,31,95,56
2,31,75,110
2,31,93,52
2,31,84,114
2,31,95,26
2,31,84,54
2,31,95,28
2,31,78,110
2,31,95,36
2,31,75,112
2,31,95,44
2,31,84,108
2,31,95,44
2,31,81,120
2,33,98,38
2,33,81,120
2,33,88,44
2,33,78,136
2,33,90,54
2,33,69,160
2,33,87,24
2,33,81,52
2,33,93,32
2,33,72,134
2,33,93,38
2,33,78,118
2,33,93,46
2,33,78,132
2,33,93,26
2,30,75,0
2,31,95,8
2,31,78,136
2,31,95,56
2,31,75,110
2,31,93,52
2,31,84,114
2,31,95,26
2,31,84,54
2,31,95,28
2,31,78,110
2,31,95,36
2,31,75,112
2,31,95,44
2,31,84,108
2,31,95,44
2,31,81,120
2,34,98,38
2,34,81,120
2,34,88,44
2,34,78,136
2,34,90,54
2,34,69,142
2,34,87,30
2,34,81,94
2,34,93,26
2,34,72,134
2,46,78,38
2,42,95,12
2,31,95,766
2,31,78,136
2,31,95,56
2,31,75,110
2,31,93,52
2,31,84,114
2,31,95,44
2,31,84,110
2,29,95,32
2,31,93,0
2,29,81,18
2,31,78,0
2,29,72,18
2,31,75,0
2,55,74,23060
2,55,64,36
2,55,62,20
2,55,72,12
2,55,69,10
2,55,74,16
2,55,64,10
2,55,69,26
2,55,66,12
2,55,84,18
2,31,95,26
2,31,81,122
2,31,88,44
2,31,78,136
2,31,90,52
2,31,78,160
2,31,87,42
2,31,81,126
2,38,93,40
2,38,72,132
2,38,93,40
2,38,78,120
2,38,93,44
2,38,78,132
2,38,93,36
2,38,75,122
