track,note,velocity,time
4,38,112,1532
4,38,0,172
4,33,112,24
4,33,0,188
4,38,112,4
4,38,0,160
4,33,112,32
4,33,0,148
4,35,112,44
4,35,0,168
4,30,112,24
4,30,0,160
4,35,112,32
4,35,0,140
4,35,112,52
4,35,0,168
4,33,112,24
4,33,0,160
4,28,112,32
4,28,0,168
4,33,112,24
4,33,0,160
4,28,112,32
4,28,0,44
4,33,112,52
4,33,0,60
4,43,112,36
4,43,0,136
4,43,112,56
4,43,0,32
4,40,112,64
4,40,0,44
4,38,112,48
4,38,0,172
4,33,112,24
4,33,0,168
4,38,112,24
4,38,0,152
4,33,112,36
4,33,0,172
4,38,112,20
4,38,0,176
4,33,112,16
4,33,0,172
4,38,112,20
4,38,0,156
4,33,112,40
4,33,0,52
4,42,112,44
4,42,0,52
4,35,112,44
4,35,0,160
4,42,112,32
4,42,0,148
4,35,112,44
4,35,0,128
4,35,112,64
4,35,0,140
4,33,112,52
4,33,0,168
4,40,112,24
4,40,0,164
4,33,112,28
4,33,0,164
4,40,112,28
4,40,0,48
4,33,112,48
4,33,0,48
4,31,112,48
4,31,0,168
4,42,112,20
4,42,0,52
4,40,112,52
4,40,0,40
4,38,112,52
4,38,0,160
4,33,112,32
4,33,0,160
4,38,112,32
4,38,0,148
4,33,112,44
4,33,0,180
4,38,112,12
4,38,0,148
4,42,112,44
4,42,0,64
4,45,112,32
4,45,0,48
4,33,112,48
4,33,0,152
4,40,112,40
4,40,0,152
4,33,112,40
4,33,0,180
4,40,112,12
4,40,0,152
4,35,112,40
4,35,0,160
4,42,112,32
4,42,0,168
4,35,112,24
4,35,0,152
4,35,112,40
4,35,0,44
4,42,112,52
4,42,0,52
4,43,112,44
4,43,0,160
4,38,112,32
4,38,0,180
4,43,112,12
4,43,0,124
4,43,112,68
4,43,0,44
4,40,112,56
4,40,0,68
4,38,112,24
4,38,0,160
4,33,112,32
4,33,0,168
4,38,112,24
4,38,0,168
4,42,112,24
4,42,0,52
4,43,112,44
4,43,0,60
4,45,112,36
4,45,0,160
4,40,112,32
4,40,0,180
4,45,112,12
4,45,0,152
4,40,112,40
4,40,0,52
4,42,112,44
4,42,0,52
4,43,112,44
4,43,0,160
4,38,112,32
4,38,0,160
4,43,112,32
4,43,0,180
4,42,112,12
4,42,0,52
4,40,112,44
4,40,0,72
4,38,112,20
4,38,0,144
4,33,112,52
4,33,0,168
4,38,112,24
4,38,0,168
4,33,112,24
4,33,0,152
4,38,112,40
4,38,0,152
4,33,112,40
4,33,0,160
4,38,112,32
4,38,0,188
4,33,112,4
4,33,0,160
4,35,112,32
4,35,0,160
4,42,112,32
4,42,0,168
4,35,112,24
4,35,0,152
4,38,112,40
4,38,0,68
4,35,112,28
4,35,0,44
4,33,112,52
4,33,0,160
4,40,112,32
4,40,0,160
4,33,112,28
4,33,0,168
4,40,112,28
4,40,0,52
4,33,112,48
4,33,0,40
4,31,112,52
4,31,0,160
4,42,112,32
4,42,0,44
4,40,112,52
4,40,0,44
4,38,112,52
4,38,0,168
4,33,112,24
4,33,0,160
4,38,112,32
4,38,0,180
4,33,112,12
4,33,0,140
4,38,112,52
4,38,0,152
4,33,112,36
4,33,0,164
4,38,112,32
4,38,0,148
4,33,112,40
4,33,0,52
4,42,112,48
4,42,0,52
4,35,112,44
4,35,0,188
4,42,112,4
4,42,0,152
4,35,112,36
4,35,0,172
4,42,112,24
4,42,0,48
4,35,112,48
4,35,0,44
4,33,112,52
4,33,0,168
4,40,112,24
4,40,0,160
4,33,112,32
4,33,0,168
4,40,112,24
4,40,0,52
4,33,112,44
4,33,0,44
4,31,112,48
4,42,112,196
4,31,0,4
4,42,0,44
4,40,112,44
4,40,0,48
4,38,112,52
4,38,0,180
4,33,112,12
4,33,0,160
4,38,112,32
4,38,0,152
4,33,112,40
4,33,0,148
4,38,112,40
4,38,0,168
4,42,112,28
4,42,0,52
4,43,112,44
4,43,0,72
4,45,112,24
4,45,0,148
4,40,112,44
4,40,0,164
4,45,112,28
4,45,0,132
4,30,112,56
4,30,0,44
4,33,112,56
4,33,0,48
4,35,112,48
4,35,0,160
4,42,112,32
4,42,0,160
4,35,112,32
4,35,0,164
4,42,112,28
4,42,0,52
4,45,112,44
4,45,0,44
4,43,112,52
4,43,0,160
4,38,112,32
4,38,0,168
4,43,112,24
4,43,0,128
4,43,112,64
4,43,0,32
4,40,112,64
4,40,0,24
4,38,112,72
4,38,0,180
4,33,112,12
4,33,0,152
4,38,112,40
4,38,0,164
4,42,112,28
4,42,0,44
4,43,112,56
4,43,0,48
4,45,112,44
4,45,0,160
4,40,112,32
4,40,0,168
4,45,112,24
4,45,0,160
4,40,112,32
4,40,0,64
4,45,112,32
4,45,0,32
4,43,112,64
4,43,0,168
4,38,112,24
4,38,0,160
4,43,112,32
4,43,0,168
4,42,112,24
4,42,0,52
4,40,112,44
4,40,0,44
4,38,112,48
4,38,0,152
4,33,112,44
4,33,0,160
4,38,112,32
4,38,0,168
4,33,112,24
4,33,0,48
4,34,112,48
4,34,0,44
4,35,112,52
4,35,0,164
4,42,112,28
4,42,0,52
4,35,112,44
4,35,0,44
4,33,112,52
4,33,0,124
4,33,112,68
4,33,0,160
4,38,112,32
4,38,0,164
4,45,112,28
4,45,0,164
4,38,112,28
4,38,0,180
4,40,112,8
4,40,0,52
4,42,112,48
4,42,0,52
4,43,112,40
4,43,0,140
4,43,112,56
4,43,0,140
4,38,112,52
4,38,0,120
4,38,112,72
4,38,0,64
4,42,112,32
4,42,0,12
4,45,112,32
4,45,0,12
4,33,112,40
4,33,0,140
4,40,112,52
4,40,0,168
4,45,112,24
4,45,0,148
4,33,112,44
4,33,0,32
4,34,112,64
4,34,0,44
4,35,112,52
4,35,0,128
4,35,112,64
4,35,0,152
4,36,112,40
4,36,0,172
4,40,112,20
4,40,0,44
4,43,112,52
4,43,0,24
4,43,112,72
4,43,0,152
4,42,112,40
4,42,0,44
4,40,112,52
4,40,0,44
4,38,112,48
4,38,0,136
4,38,112,60
4,38,0,148
4,45,112,44
4,45,0,148
4,40,112,44
4,40,0,168
4,45,112,20
4,45,0,164
4,40,112,32
4,40,0,12
4,40,112,84
4,40,0,60
4,45,112,36
4,45,0,152
4,40,112,36
4,40,0,152
4,45,112,44
4,38,112,384
4,45,0,20
4,38,0,128
4,33,112,44
4,33,0,180
4,38,112,12
4,38,0,148
4,42,112,44
4,42,0,60
4,45,112,36
4,45,0,44
4,33,112,52
4,33,0,148
4,40,112,44
4,40,0,152
4,33,112,40
4,33,0,180
4,40,112,12
4,40,0,152
4,35,112,40
4,35,0,160
4,42,112,32
4,42,0,168
4,35,112,24
4,35,0,152
4,35,112,40
4,35,0,44
4,42,112,52
4,42,0,52
4,43,112,44
4,43,0,160
4,38,112,32
4,38,0,180
4,43,112,12
4,43,0,124
4,43,112,68
4,43,0,44
4,40,112,52
4,40,0,72
4,38,112,24
4,38,0,160
4,33,112,32
4,33,0,172
4,38,112,20
4,38,0,164
4,42,112,28
4,42,0,52
4,43,112,48
4,43,0,56
4,45,112,36
4,45,0,160
4,40,112,32
4,40,0,180
4,45,112,12
4,45,0,152
4,40,112,40
4,40,0,52
4,42,112,44
4,42,0,56
4,43,112,44
4,43,0,152
4,38,112,36
4,38,0,160
4,43,112,32
4,43,0,180
4,42,112,12
4,42,0,52
4,40,112,44
4,40,0,72
4,38,112,24
4,38,0,140
4,33,112,52
4,33,0,168
4,38,112,20
4,38,0,172
4,33,112,24
4,33,0,152
4,38,112,40
4,38,0,152
4,33,112,40
4,33,0,180
4,38,112,12
4,38,0,148
4,42,112,44
4,42,0,64
4,45,112,32
4,45,0,48
4,33,112,48
4,33,0,152
4,40,112,40
4,40,0,152
4,33,112,40
4,33,0,180
4,40,112,8
4,40,0,156
4,35,112,40
4,35,0,160
4,42,112,32
4,42,0,168
4,35,112,24
4,35,0,152
4,35,112,40
4,35,0,44
4,42,112,52
4,42,0,52
4,43,112,44
4,43,0,160
4,38,112,32
4,38,0,180
4,43,112,12
4,43,0,124
4,43,112,64
4,43,0,48
4,40,112,52
4,40,0,72
4,38,112,24
4,38,0,160
4,33,112,32
4,33,0,168
4,38,112,20
4,38,0,168
4,42,112,28
4,42,0,52
4,43,112,44
4,43,0,60
4,45,112,36
4,45,0,164
4,40,112,28
4,40,0,176
4,45,112,16
4,45,0,152
4,40,112,40
4,40,0,52
4,42,112,48
4,42,0,52
4,43,112,40
4,43,0,156
4,38,112,36
4,38,0,164
4,43,112,28
4,43,0,180
4,42,112,12
4,42,0,52
4,40,112,44
4,40,0,72
4,38,112,20
4,38,0,144
4,33,112,52
4,33,0,168
4,38,112,24
4,38,0,44
4,38,112,52
4,38,0,44
4,37,112,52
4,37,0,44
4,35,112,56
4,35,0,36
4,33,112,56
4,33,0,156
4,40,112,36
4,40,0,168
4,45,112,24
4,45,0,44
4,33,112,52
4,33,0,32
4,35,112,64
4,35,0,52
4,37,112,44
4,37,0,44
4,38,112,52
4,38,0,180
4,45,112,12
4,45,0,152
4,38,112,40
4,38,0,24
4,38,112,72
4,38,0,24
4,37,112,72
4,37,0,40
4,35,112,56
4,35,0,48
4,33,112,48
4,33,0,152
4,40,112,40
4,40,0,160
4,33,112,32
4,33,0,12
4,33,112,84
4,33,0,32
4,35,112,64
4,35,0,44
4,37,112,52
4,37,0,32
4,38,112,64
4,38,0,164
4,33,112,28
4,33,0,168
4,38,112,24
4,38,0,44
4,33,112,52
4,33,0,20
4,38,109,76
4,38,0,128
5,81,127,14776
5,81,0,24
5,78,127,16
5,78,0,524
5,78,127,44
5,78,0,416
5,74,127,28
5,78,127,0
5,78,0,48
5,74,0,0
5,73,127,0
5,76,127,0
5,76,0,96
5,73,0,0
5,72,127,0
5,75,127,0
5,75,0,96
5,72,0,0
5,71,127,0
5,74,127,0
5,74,0,360
5,71,0,0
5,74,127,24
5,74,0,768
5,69,127,0
5,69,0,568
5,74,127,8
5,69,127,96
5,74,0,12
5,69,0,364
5,74,127,100
5,74,0,4
5,73,127,40
5,73,0,444
5,74,127,80
5,74,0,88
5,76,127,4
5,78,127,100
5,76,0,4
5,78,0,528
5,78,127,44
5,74,127,36
5,78,0,4
5,76,127,28
5,74,0,16
5,76,0,496
5,78,127,64
5,78,0,56
5,74,127,0
5,74,0,488
5,76,127,72
5,76,0,4
5,81,127,0
5,81,0,64
5,81,127,24
5,81,0,4
5,83,127,56
5,86,127,112
5,83,0,4
5,86,0,456
5,78,127,104
5,74,127,28
5,78,0,4
5,76,127,32
5,74,0,8
5,76,0,360
5,78,127,56
5,78,0,56
5,74,127,0
5,74,0,508
5,74,127,64
5,74,0,96
5,76,127,0
5,74,127,48
5,76,0,16
5,74,0,712
5,86,127,1432
5,86,0,40
5,83,127,0
5,83,0,612
5,81,127,148
5,81,0,168
5,81,127,24
5,81,0,320
5,81,127,64
5,81,0,24
5,78,127,0
5,78,0,428
5,83,127,144
5,83,0,64
5,86,127,16
5,85,127,768
5,86,0,8
5,85,0,1256
5,78,127,272
5,78,0,532
5,78,127,44
5,74,127,36
5,78,0,4
5,76,127,24
5,74,0,16
5,76,0,496
5,78,127,64
5,78,0,56
5,74,127,0
5,74,0,488
5,76,127,72
5,81,127,4
5,76,0,4
5,81,0,56
5,81,127,32
5,81,0,4
5,83,127,56
5,86,127,112
5,83,0,4
5,86,0,460
5,78,127,104
5,78,0,32
5,74,127,0
5,76,127,32
5,74,0,8
5,76,0,360
5,78,127,56
5,78,0,60
5,74,127,0
5,74,0,508
5,74,127,64
5,74,0,96
5,76,127,0
5,74,127,44
5,76,0,20
5,74,0,708
5,78,127,284
5,78,0,232
5,78,127,272
5,78,0,8
5,74,127,0
5,74,0,272
5,78,127,236
5,78,0,72
5,74,127,4
5,74,0,452
5,83,127,116
5,83,0,72
5,86,127,8
5,86,0,488
5,78,127,856
5,78,0,280
5,83,127,256
5,79,127,68
5,83,0,4
5,79,0,460
5,78,127,872
5,78,0,36
5,74,127,0
5,74,0,40
5,76,127,4
5,76,0,464
5,78,127,112
5,78,0,64
5,74,127,0
5,74,0,436
5,78,127,136
5,78,0,40
5,74,127,0
5,74,0,40
5,74,127,8
5,74,0,312
5,78,127,120
5,78,0,8
6,62,82,1620
6,57,70,0
6,66,71,0
6,66,0,132
6,57,0,4
6,62,0,0
6,57,73,56
6,62,82,0
6,66,74,0
6,66,0,136
6,62,0,4
6,57,0,4
6,66,68,44
6,57,69,4
6,62,75,0
6,62,0,144
6,57,0,0
6,66,0,0
6,57,67,48
6,62,77,0
6,66,71,0
6,66,0,128
6,62,0,8
6,57,0,0
6,62,78,56
6,59,67,0
6,66,65,0
6,62,0,144
6,66,0,8
6,59,0,0
6,62,76,40
6,59,63,0
6,66,67,0
6,62,0,156
6,66,0,4
6,59,0,0
6,59,61,32
6,62,74,0
6,66,66,0
6,62,0,148
6,66,0,4
6,59,0,0
6,59,63,40
6,62,74,0
6,66,66,0
6,66,0,136
6,62,0,0
6,59,0,4
6,61,75,52
6,57,71,0
6,64,77,0
6,64,0,152
6,61,0,4
6,57,0,4
6,61,79,32
6,57,77,0
6,64,81,0
6,57,0,152
6,64,0,8
6,61,0,0
6,57,75,32
6,61,78,0
6,64,81,0
6,64,0,144
6,57,0,0
6,61,0,4
6,57,72,44
6,61,77,0
6,64,73,0
6,64,0,128
6,57,0,0
6,61,0,8
6,59,65,56
6,62,80,0
6,67,80,0
6,67,0,144
6,62,0,0
6,59,0,4
6,62,77,44
6,59,69,0
6,67,79,0
6,59,0,144
6,62,0,0
6,67,0,8
6,57,70,36
6,62,74,4
6,66,72,0
6,66,0,144
6,57,0,0
6,62,0,4
6,57,70,44
6,62,74,0
6,66,71,0
6,66,0,160
6,62,0,8
6,57,0,0
6,62,82,24
6,57,73,0
6,66,76,0
6,66,0,152
6,62,0,0
6,57,0,8
6,57,70,32
6,62,74,0
6,66,71,0
6,66,0,160
6,57,0,4
6,62,0,4
6,57,73,24
6,62,74,0
6,66,76,0
6,66,0,152
6,62,0,8
6,57,0,0
6,57,72,32
6,62,79,0
6,66,74,0
6,66,0,164
6,62,0,0
6,57,0,4
6,62,77,24
6,57,74,0
6,66,74,0
6,66,0,152
6,62,0,4
6,57,0,4
6,62,80,32
6,57,74,0
6,66,77,0
6,66,0,160
6,57,0,0
6,62,0,0
6,59,75,32
6,62,79,0
6,66,71,0
6,66,0,160
6,62,0,0
6,59,0,0
6,66,71,28
6,59,66,4
6,62,76,0
6,66,0,156
6,62,0,4
6,59,0,0
6,62,82,28
6,59,71,4
6,66,72,0
6,66,0,160
6,59,0,0
6,62,0,0
6,62,78,28
6,59,71,4
6,66,74,0
6,66,0,136
6,59,0,0
6,62,0,0
6,61,70,56
6,57,69,0
6,64,74,0
6,64,0,168
6,57,0,4
6,61,0,4
6,61,77,12
6,57,71,4
6,64,77,0
6,64,0,152
6,61,0,4
6,57,0,4
6,61,73,32
6,57,71,0
6,64,73,0
6,64,0,152
6,61,0,0
6,57,0,8
6,57,71,28
6,61,78,4
6,64,76,0
6,57,0,112
6,64,0,8
6,61,0,0
6,59,65,72
6,62,75,0
6,67,78,0
6,67,0,152
6,62,0,0
6,59,0,0
6,59,68,40
6,62,75,0
6,67,73,0
6,59,0,128
6,62,0,8
6,67,0,4
6,62,73,48
6,57,71,4
6,66,73,0
6,66,0,160
6,57,0,0
6,62,0,0
6,57,72,32
6,62,81,0
6,66,75,0
6,66,0,160
6,62,0,0
6,57,0,0
6,62,78,28
6,57,73,4
6,66,73,0
6,57,0,152
6,66,0,4
6,62,0,4
6,62,82,32
6,57,81,0
6,66,79,0
6,66,0,152
6,57,0,0
6,62,0,0
6,57,76,40
6,62,78,0
6,66,77,0
6,66,0,152
6,62,0,0
6,57,0,0
6,66,75,36
6,57,71,4
6,62,79,0
6,66,0,144
6,62,0,8
6,57,0,0
6,61,79,40
6,57,72,0
6,64,75,0
6,64,0,152
6,57,0,4
6,61,0,0
