track,note,velocity,time
0,72,127,1372
0,64,90,8
0,79,90,4
0,79,86,24
0,74,127,0
0,65,90,8
0,55,127,32
0,60,127,0
0,64,127,0
0,67,102,4
0,72,112,4
0,76,112,4
0,36,127,4
0,76,127,0
0,67,88,4
0,55,102,4
0,60,112,0
0,79,92,4
0,64,112,0
0,67,90,4
0,79,86,12
0,76,127,12
0,72,127,28
0,79,90,4
0,64,83,20
0,55,127,32
0,62,127,0
0,60,127,0
0,67,86,4
0,74,114,0
0,77,92,4
0,72,123,0
0,31,123,8
0,74,127,0
0,67,87,0
0,55,86,4
0,62,114,4
0,60,123,4
0,59,127,12
0,62,127,0
0,55,127,0
0,71,87,4
0,74,98,0
0,67,87,4
0,59,87,12
0,62,98,4
0,55,87,0
0,76,127,4
0,69,87,8
0,79,90,8
0,77,90,28
0,74,127,8
0,67,83,12
0,60,127,4
0,57,127,0
0,64,127,0
0,72,109,0
0,69,109,4
0,76,107,0
0,33,112,4
0,60,109,4
0,57,109,4
0,64,107,0
0,76,92,4
0,72,127,12
0,64,87,4
0,60,127,8
0,64,127,0
0,55,127,0
0,72,101,0
0,76,96,0
0,67,114,4
0,36,111,4
0,76,127,4
0,64,81,0
0,60,101,4
0,64,96,0
0,79,88,4
0,55,114,0
0,79,127,68
0,67,83,0
0,76,81,16
0,57,127,12
0,65,127,0
0,60,127,0
0,69,105,4
0,77,116,0
0,81,127,4
0,77,92,0
0,72,116,0
0,72,92,4
0,29,116,4
0,57,105,4
0,65,116,4
0,60,116,0
0,72,87,4
0,81,127,4
0,77,92,8
0,81,127,96
0,72,85,16
0,77,92,4
0,79,127,40
0,76,77,0
0,67,85,12
0,60,127,16
0,64,127,0
0,55,127,4
0,72,101,8
0,76,104,0
0,67,101,0
0,36,116,4
0,60,101,4
0,64,104,4
0,55,101,0
0,79,88,56
0,76,127,16
0,67,92,4
0,76,127,0
0,79,76,4
0,67,78,0
0,74,127,8
0,65,64,8
0,76,70,24
0,72,127,4
0,64,74,4
0,76,72,32
0,74,127,52
0,79,81,0
0,67,90,12
0,59,127,12
0,55,127,0
0,62,127,0
0,71,109,4
0,67,111,0
0,74,109,0
0,31,111,12
0,59,109,4
0,55,111,4
0,62,109,4
0,76,127,8
0,79,90,4
0,67,94,4
0,67,78,4
0,76,127,4
0,79,92,12
0,74,127,44
0,65,78,8
0,79,83,4
0,57,127,16
0,60,127,0
0,65,127,4
0,72,127,0
0,77,92,0
0,69,76,4
0,69,105,0
0,72,105,0
0,77,111,4
0,29,114,4
0,57,105,4
0,60,105,4
0,65,111,4
0,69,87,4
0,77,92,12
0,72,127,12
0,77,90,72
0,74,127,16
0,69,85,4
0,74,127,4
0,67,88,4
0,77,88,4
0,55,127,4
0,64,127,0
0,60,127,0
0,67,97,4
0,76,91,4
0,72,93,0
0,36,121,4
0,55,97,4
0,64,91,4
0,60,93,0
0,72,127,40
0,76,88,4
0,64,88,12
0,48,25,8
0,55,31,0
0,60,35,188
0,64,41,200
0,43,46,44
0,55,50,132
0,60,56,80
0,64,60,160
0,48,65,16
0,55,70,196
0,60,75,188
0,64,80,192
0,43,85,20
0,55,89,136
0,60,95,0
0,64,100,4
0,48,114,0
0,55,93,16
0,60,94,4
0,42,76,4
0,64,101,4
0,43,119,12
0,55,111,4
0,60,96,0
0,42,76,0
0,64,105,0
0,48,114,0
0,55,93,136
0,60,94,188
0,42,76,8
0,64,101,180
0,43,119,32
0,67,127,4
0,55,111,128
0,60,96,60
0,42,76,4
0,67,127,4
0,64,105,0
0,69,127,0
0,48,121,4
0,55,109,64
0,60,94,8
0,42,76,8
0,67,127,16
0,64,109,4
0,43,127,84
0,60,97,120
0,55,114,24
0,42,76,8
0,64,114,8
0,60,90,8
0,45,127,76
0,57,113,196
0,60,95,184
0,42,76,8
0,64,98,0
0,69,127,20
0,52,119,0
0,57,113,88
0,67,127,60
0,60,96,8
0,42,76,4
0,64,102,20
0,69,127,8
0,45,127,76
0,57,110,104
0,60,95,176
0,72,127,4
0,42,76,0
0,64,105,180
0,52,121,4
0,64,102,4
0,60,93,8
0,45,121,0
0,42,76,0
0,57,109,108
0,60,90,16
0,43,119,0
0,55,102,104
0,59,94,184
0,42,76,12
0,62,109,184
0,50,123,72
0,74,127,4
0,55,106,40
0,74,127,8
0,59,92,80
0,42,76,4
0,62,106,4
0,76,127,8
0,43,119,8
0,55,101,12
0,59,93,184
0,42,76,8
0,62,103,72
0,74,127,24
0,50,118,16
0,59,92,128
0,55,110,76
0,42,76,4
0,62,110,0
0,60,91,8
0,69,127,8
0,41,119,0
0,53,113,80
0,57,104,188
0,42,76,4
0,60,105,96
0,69,127,12
0,48,119,60
0,53,113,156
0,67,127,8
0,57,96,136
0,42,76,12
0,60,100,144
0,67,127,16
0,60,91,4
0,48,118,80
0,55,104,192
0,72,127,84
0,60,93,0
0,42,76,8
0,64,88,184
0,43,121,64
0,55,111,16
0,60,98,12
0,42,76,0
0,64,91,12
0,48,114,16
0,55,109,24
0,31,116,152
0,60,103,0
0,42,75,4
0,64,97,168
0,33,109,72
0,43,123,0
0,60,93,20
0,52,113,16
0,55,113,4
0,60,113,4
0,64,113,4
0,55,106,120
0,35,111,4
0,46,47,4
0,52,127,4
0,55,127,4
0,60,127,4
0,64,127,4
0,64,102,112
0,36,114,52
0,48,118,0
0,42,74,8
0,35,109,4
0,55,109,96
0,42,35,20
0,60,97,52
0,42,108,8
0,52,127,4
0,55,127,4
0,60,127,0
0,64,127,8
0,36,102,104
0,64,91,0
0,35,65,8
0,42,35,8
0,43,123,80
0,31,116,4
0,67,127,4
0,42,77,0
0,35,108,0
0,55,106,132
0,42,34,16
0,60,93,36
0,67,127,4
0,42,107,4
0,52,127,4
0,55,127,4
0,60,127,4
0,64,127,4
0,64,94,40
0,42,36,24
0,36,116,20
0,69,127,0
0,48,114,0
0,42,74,4
0,35,108,0
0,55,100,36
0,42,38,16
0,60,87,4
0,42,107,8
0,52,127,4
0,55,127,4
0,60,127,4
0,64,127,4
0,67,127,108
0,64,93,4
0,35,65,4
0,42,36,8
0,43,121,124
0,35,123,4
0,42,74,0
0,35,107,4
0,64,101,56
0,42,38,16
0,60,97,32
0,42,108,4
0,52,127,8
0,55,127,0
0,60,127,4
0,64,127,8
0,55,106,36
0,60,101,8
0,42,38,4
0,69,127,8
0,45,121,12
0,33,118,4
0,42,75,8
0,35,108,4
0,57,110,72
0,42,34,20
0,60,101,88
0,69,127,4
0,42,107,0
0,52,127,4
0,57,127,4
0,60,127,4
0,64,127,0
0,33,105,4
0,64,98,0
0,35,65,8
0,42,37,8
0,52,114,80
0,40,118,8
0,42,76,4
0,35,107,0
0,72,127,4
0,57,104,16
0,74,127,4
0,42,38,8
0,60,93,12
0,42,107,8
0,52,127,4
0,57,127,4
0,60,127,4
0,64,127,4
0,76,127,64
0,64,98,0
0,42,38,20
0,45,113,140
0,33,112,8
0,42,74,4
0,35,109,4
0,57,106,0
0,42,35,16
0,60,96,0
0,42,108,8
0,52,127,4
0,57,127,4
0,60,127,4
0,64,127,0
0,64,104,8
0,35,65,8
0,42,35,4
0,52,115,4
0,32,112,8
0,42,77,0
0,35,108,4
0,60,101,8
0,42,34,8
0,57,110,32
0,42,107,8
0,52,127,4
0,57,127,4
0,60,127,4
0,64,127,4
0,64,93,8
0,60,111,0
0,42,36,4
0,74,127,48
0,31,118,20
0,43,119,0
0,42,74,4
0,35,108,0
0,55,101,48
0,42,38,24
0,59,95,52
0,42,107,4
0,50,127,8
0,55,127,4
0,74,127,4
0,59,127,0
0,67,127,4
0,31,109,64
0,62,104,0
0,35,65,4
0,42,36,4
0,50,113,60
0,38,116,4
0,74,127,4
0,42,74,0
0,35,107,4
0,55,104,140
0,42,38,12
0,74,127,48
0,59,93,4
0,42,108,8
0,50,127,8
0,55,127,0
0,59,127,4
0,67,127,8
0,62,105,8
0,76,127,4
0,42,38,0
0,43,111,56
0,31,118,8
0,42,75,0
0,35,108,4
0,55,110,160
0,42,34,0
0,59,94,8
0,42,107,4
0,50,127,4
0,55,127,4
0,59,127,4
0,67,127,0
0,62,111,8
0,74,127,4
0,35,65,0
0,42,37,4
0,50,113,60
0,30,122,4
0,42,76,4
0,35,107,0
0,62,109,124
0,42,38,8
0,59,97,0
0,42,113,4
0,42,107,8
0,50,127,4
0,55,127,4
0,59,127,4
0,67,127,4
0,55,110,4
0,69,127,4
0,60,105,0
0,46,38,4
0,41,118,12
0,29,116,4
0,42,74,4
0,35,108,0
0,53,111,148
0,42,38,24
0,57,103,32
0,72,127,4
0,42,107,0
0,53,127,4
0,57,127,4
0,60,127,4
0,65,127,4
0,29,97,116
0,60,103,0
0,35,65,4
0,42,36,4
0,72,127,88
0,48,121,4
0,36,118,4
0,42,74,8
0,35,107,4
0,53,104,28
0,74,127,8
0,42,38,12
0,57,98,24
0,29,118,4
0,53,127,4
0,42,108,0
0,57,127,4
0,60,127,4
0,65,127,8
0,60,101,12
0,72,127,4
0,42,38,16
0,60,107,0
0,36,121,28
0,48,118,4
0,42,75,4
0,35,108,4
0,55,94,8
0,42,34,8
0,60,100,16
0,31,118,4
0,42,107,4
0,52,127,4
0,55,127,4
0,60,127,4
0,64,127,4
0,64,102,84
0,35,65,4
0,42,37,8
0,64,90,28
0,43,121,4
0,33,112,4
0,72,127,4
0,42,76,0
0,35,107,0
0,79,90,4
0,60,97,120
0,52,113,12
0,55,113,4
0,60,113,4
0,42,38,0
0,64,113,4
0,79,86,16
0,74,127,8
0,35,109,12
0,55,104,0
0,46,47,4
0,38,107,0
0,52,121,4
0,55,121,4
0,60,121,4
0,64,121,4
0,65,90,4
0,67,88,0
0,79,92,8
0,64,104,0
0,76,127,8
0,60,127,56
0,64,127,0
0,55,127,4
0,36,118,4
0,48,123,0
0,49,57,8
0,35,105,4
0,55,106,92
0,42,38,16
0,60,95,84
0,42,75,12
0,38,104,0
0,52,127,4
0,55,127,4
0,60,127,4
0,64,127,4
0,64,102,4
0,42,36,16
0,35,112,20
0,43,118,0
0,42,74,0
0,35,108,0
0,55,109,0
0,42,38,0
0,60,95,12
0,42,78,8
0,38,102,0
0,52,127,4
0,55,127,4
0,60,127,4
0,64,127,0
0,64,97,28
0,42,38,0
0,48,121,48
0,33,109,4
0,42,75,0
0,35,105,0
0,55,106,44
0,42,34,20
0,60,94,12
0,42,77,0
0,38,104,0
0,52,127,4
0,55,127,4
0,60,127,4
0,64,127,4
0,67,90,20
0,79,86,8
0,64,100,4
0,76,127,8
0,42,37,0
0,43,123,12
0,31,112,8
0,42,76,0
0,35,106,4
0,60,93,4
0,52,113,4
0,55,113,4
0,60,113,0
0,42,38,0
0,64,113,4
0,55,104,12
0,36,89,4
0,72,127,4
0,42,74,0
0,38,102,0
0,52,127,4
0,55,127,4
0,79,90,4
0,60,127,4
0,64,127,4
0,64,83,4
0,77,92,12
0,64,105,4
0,74,127,4
0,67,87,8
0,42,38,0
0,60,104,0
0,59,127,4
0,55,127,0
0,62,127,4
0,31,109,4
0,43,114,0
0,42,78,4
0,35,109,4
0,55,106,136
0,42,34,24
0,59,95,0
0,42,75,12
0,38,102,0
0,50,127,4
0,55,127,4
0,59,127,4
0,67,127,4
0,62,109,112
0,42,38,12
0,50,115,0
0,38,112,4
0,42,77,0
0,35,107,4
0,55,109,0
0,42,35,16
0,59,97,8
0,42,75,4
0,50,127,4
0,38,104,0
0,55,127,4
0,59,127,4
0,67,127,4
0,62,110,8
0,42,35,12
0,43,115,32
0,31,109,4
0,42,74,4
0,35,107,4
0,55,113,20
0,42,35,16
0,59,98,48
0,42,78,4
0,38,101,4
0,50,127,4
0,55,127,4
0,59,127,4
0,67,127,0
0,76,127,16
0,69,87,8
0,62,110,4
0,42,35,8
0,79,90,4
0,38,102,4
0,50,119,0
0,42,77,0
0,35,106,4
0,62,113,124
0,50,113,8
0,55,113,4
0,59,113,4
0,42,34,0
0,67,113,4
0,59,97,32
0,31,107,4
0,42,77,0
0,67,83,4
0,38,103,0
0,50,127,4
0,74,127,4
0,55,127,4
0,77,90,4
0,59,127,4
0,67,127,4
0,64,87,8
0,55,115,8
0,72,127,4
0,76,92,0
0,60,105,12
0,42,36,4
0,60,127,44
0,64,127,0
0,57,127,4
0,45,115,8
0,33,107,4
0,42,74,4
0,35,107,4
0,57,119,136
0,42,38,20
0,60,94,64
0,42,75,4
0,38,100,4
0,52,127,4
0,57,127,4
0,60,127,4
0,64,127,4
0,64,102,88
0,42,36,12
0,40,111,16
0,52,111,0
0,42,74,4
0,35,105,4
0,57,113,4
0,42,38,12
0,60,93,8
0,52,127,8
0,42,78,0
0,38,103,0
0,57,127,4
0,60,127,4
0,64,127,4
0,64,100,4
0,42,38,16
0,33,116,20
0,45,115,0
0,42,75,4
0,35,108,0
0,57,106,8
0,42,34,24
0,60,101,8
0,42,77,4
0,38,100,0
0,52,127,4
0,57,127,4
0,60,127,4
0,64,127,4
0,64,103,8
0,76,127,4
0,64,81,4
0,79,88,0
0,42,37,0
0,52,121,8
0,31,118,4
0,42,76,4
0,35,105,0
0,60,98,140
0,52,113,8
0,57,113,4
0,60,113,4
0,42,38,0
0,64,113,4
0,57,111,40
0,79,127,4
0,67,83,0
0,42,74,0
0,52,119,4
0,38,104,0
0,57,119,4
0,60,119,4
0,64,119,4
0,76,81,4
0,64,105,8
0,81,127,8
0,77,92,4
0,42,38,4
0,60,105,0
0,72,92,4
0,57,127,12
0,60,127,0
0,65,127,4
0,29,116,8
0,41,119,0
0,42,78,4
0,35,108,4
0,53,110,140
0,42,34,20
0,57,102,4
0,42,75,8
0,38,103,0
0,53,127,4
0,57,127,4
0,60,127,4
0,65,127,4
0,60,104,60
0,42,38,16
0,48,123,0
0,36,112,4
0,42,77,4
0,35,108,0
0,53,113,104
0,42,35,16
0,57,106,0
0,42,75,4
0,38,103,4
0,53,127,4
0,57,127,4
0,60,127,0
0,65,127,4
0,60,110,8
0,42,35,12
0,41,113,16
0,29,109,0
0,42,74,4
0,35,106,4
0,53,110,8
0,42,35,0
0,57,101,24
0,42,78,4
0,38,104,4
0,53,127,4
0,57,127,4
0,60,127,4
0,65,127,4
0,60,106,0
0,72,87,8
0,42,35,4
0,81,127,4
0,77,92,8
0,48,114,0
0,31,109,4
0,42,77,0
0,35,108,0
0,57,96,24
0,38,72,8
0,53,113,4
0,57,113,4
0,60,113,4
0,65,113,0
0,42,34,0
0,53,111,64
0,33,105,4
0,81,127,0
0,46,47,0
0,53,127,4
0,38,102,0
0,57,127,4
0,60,127,4
0,72,85,4
0,77,92,4
0,65,127,4
0,60,103,4
0,79,127,4
0,76,77,0
0,67,85,4
0,60,112,0
0,60,127,56
0,64,127,0
0,55,127,4
0,36,104,8
0,48,121,0
0,42,74,8
0,35,105,4
0,55,111,136
0,42,38,20
0,79,88,48
0,76,127,16
0,67,92,4
0,60,89,0
0,42,75,0
0,38,103,4
0,52,127,4
0,55,127,4
0,60,127,4
0,64,127,0
0,64,82,40
0,42,36,20
0,43,114,76
0,35,114,4
0,42,74,4
0,35,109,0
0,55,102,4
0,42,38,0
0,60,97,12
0,52,127,0
0,42,78,0
0,55,127,4
0,38,101,0
0,60,127,4
0,64,127,4
0,64,98,4
0,42,38,16
0,33,111,20
0,48,123,0
0,42,75,4
0,35,106,4
0,55,110,0
0,42,34,16
0,60,94,24
0,42,77,4
0,38,103,4
0,52,127,4
0,55,127,4
0,60,127,4
0,64,127,4
0,64,101,12
0,42,37,8
0,76,127,0
0,79,76,0
0,67,78,4
0,43,119,20
0,31,111,4
0,42,76,4
0,35,109,4
0,64,102,0
0,52,113,12
0,55,113,0
0,65,64,4
0,42,38,0
0,60,113,4
0,64,113,4
0,74,127,8
0,76,70,4
0,64,74,16
0,60,92,8
0,36,109,4
0,42,74,4
0,52,127,4
0,38,101,0
0,55,127,4
0,72,127,4
0,60,127,4
0,76,72,4
0,64,127,0
0,55,115,8
0,79,81,4
