track,note,velocity,time
1,72,74,5877
1,72,0,120
1,72,74,0
1,72,0,118
1,71,74,2
1,71,0,118
1,69,74,2
1,69,0,118
1,72,74,2
1,72,0,358
1,71,74,2
1,71,0,358
1,69,74,242
1,69,0,58
1,69,74,2
1,69,0,58
1,69,74,2
1,69,0,118
1,71,74,2
1,71,0,118
1,72,74,2
1,69,74,108
1,72,0,10
1,67,74,2
1,69,0,8
1,67,0,110
1,64,74,2
1,64,0,750
1,67,74,90
1,67,0,58
1,67,74,2
1,67,0,58
1,67,74,2
1,67,0,118
1,69,74,2
1,69,0,118
1,71,74,2
1,71,0,120
1,72,74,0
1,72,0,358
1,71,74,2
1,71,0,358
1,69,74,242
1,69,0,58
1,69,74,2
1,69,0,58
1,69,74,2
1,69,0,118
1,71,74,2
1,71,0,118
1,72,74,2
1,72,0,118
1,71,74,2
1,71,0,838
1,72,74,122
1,72,0,58
1,72,74,2
1,72,0,58
1,72,74,2
1,72,0,118
1,71,74,2
1,71,0,118
1,69,74,2
1,69,0,118
1,72,74,2
1,72,0,358
1,71,74,2
1,71,0,570
1,69,74,30
1,69,0,58
1,69,74,2
1,69,0,58
1,69,74,2
1,69,0,118
1,71,74,2
1,71,0,118
1,72,74,2
1,69,74,108
1,72,0,10
1,67,74,2
1,69,0,8
1,67,0,110
1,64,74,2
1,64,0,718
1,67,74,122
1,67,0,106
1,67,74,14
1,67,0,120
1,69,74,0
1,69,0,120
1,71,74,0
1,71,0,120
1,72,74,0
1,72,0,360
1,71,74,0
1,71,0,360
1,69,74,240
1,69,0,118
1,71,74,2
1,71,0,118
1,72,74,2
1,72,0,150
1,74,74,30
1,74,0,60
1,72,74,0
1,72,0,838
1,84,99,1325
1,84,0,120
1,84,99,0
1,84,0,118
1,83,99,2
1,83,0,118
1,81,99,2
1,81,0,118
1,84,99,2
1,84,0,358
1,83,99,2
1,83,0,358
1,81,99,242
1,81,0,58
1,81,99,2
1,81,0,58
1,81,99,2
1,81,0,118
1,83,99,2
1,83,0,118
1,84,99,2
1,81,99,108
1,84,0,10
1,79,99,2
1,81,0,8
1,79,0,110
1,76,99,2
1,76,0,750
1,79,99,90
1,79,0,58
1,79,99,2
1,79,0,58
1,79,99,2
1,79,0,118
1,81,99,2
1,81,0,118
1,83,99,2
1,83,0,120
1,84,99,0
1,84,0,358
1,83,99,2
1,83,0,358
1,81,99,242
1,81,0,58
1,81,99,2
1,81,0,58
1,81,99,2
1,81,0,118
1,83,99,2
1,83,0,118
1,84,99,2
1,84,0,118
1,83,99,2
1,83,0,838
1,84,99,122
1,84,0,58
1,84,99,2
1,84,0,58
1,84,99,2
1,84,0,118
1,83,99,2
1,83,0,118
1,81,99,2
1,81,0,118
1,84,99,2
1,84,0,358
1,83,99,2
1,83,0,570
1,81,99,30
1,81,0,58
1,81,99,2
1,81,0,58
1,81,99,2
1,81,0,118
1,83,99,2
1,83,0,118
1,84,99,2
1,81,99,108
1,84,0,10
1,79,99,2
1,81,0,8
1,79,0,110
1,76,99,2
1,76,0,718
1,79,99,122
1,79,0,106
1,79,99,14
1,79,0,120
1,81,99,0
1,81,0,120
1,83,99,0
1,83,0,120
1,84,99,0
1,84,0,360
1,83,99,0
1,83,0,360
1,81,99,240
1,81,0,118
1,83,99,2
1,83,0,118
1,84,99,2
1,84,0,150
1,86,99,30
1,86,0,60
1,84,99,0
1,84,0,838
1,86,99,1562
1,86,0,120
1,86,99,0
1,86,0,118
1,85,99,2
1,85,0,118
1,83,99,2
1,83,0,118
1,86,99,2
1,86,0,358
1,85,99,2
1,85,0,358
1,83,99,242
1,83,0,58
1,83,99,2
1,83,0,58
1,83,99,2
1,83,0,118
1,85,99,2
1,85,0,118
1,86,99,2
1,83,99,108
1,86,0,10
1,81,99,2
1,83,0,8
1,81,0,110
1,78,99,2
1,78,0,750
1,81,99,90
1,81,0,58
1,81,99,2
1,81,0,58
1,81,99,2
1,81,0,118
1,83,99,2
1,83,0,118
1,85,99,2
1,85,0,120
1,86,99,0
1,86,0,358
1,85,99,2
1,85,0,358
1,83,99,242
1,83,0,58
1,83,99,2
1,83,0,58
1,83,99,2
1,83,0,118
1,85,99,2
1,85,0,118
1,86,99,2
1,86,0,118
1,85,99,2
1,85,0,838
1,86,99,122
1,86,0,58
1,86,99,2
1,86,0,58
1,86,99,2
1,86,0,118
1,85,99,2
1,85,0,118
1,83,99,2
1,83,0,118
1,86,99,2
1,86,0,358
1,88,99,2
1,88,0,570
1,83,99,30
1,83,0,58
1,83,99,2
1,83,0,58
1,83,99,2
1,83,0,118
1,85,99,2
1,85,0,118
1,86,99,2
1,83,99,108
1,86,0,10
1,81,99,2
1,83,0,8
1,81,0,110
1,78,99,2
1,78,0,718
1,81,99,122
1,81,0,106
1,81,99,14
1,81,0,120
1,83,99,0
1,83,0,120
1,85,99,0
1,85,0,120
1,86,99,0
1,86,0,360
1,85,99,0
1,85,0,360
1,83,99,240
1,83,0,118
1,85,99,2
1,85,0,118
1,86,99,2
1,86,0,150
1,88,99,30
1,88,0,60
1,86,99,0
1,86,0,838
2,84,89,12057
2,84,0,180
2,86,89,0
2,86,0,60
2,88,89,0
2,88,0,120
2,83,89,0
2,83,0,180
2,84,89,0
2,84,0,60
2,86,89,0
2,86,0,120
2,81,89,0
2,81,0,120
2,76,89,0
2,76,0,120
2,77,89,1920
2,77,0,180
2,79,89,0
2,79,0,60
2,81,89,0
2,81,0,120
2,83,89,0
2,83,0,180
2,84,89,0
2,84,0,60
2,86,89,0
2,86,0,120
2,81,89,0
2,81,0,90
2,81,89,150
2,81,0,118
2,83,89,2
2,83,0,118
2,84,89,2
2,84,0,150
2,86,89,30
2,86,0,60
2,84,89,0
2,84,0,720
3,41,109,19312
3,41,0,260
3,43,109,10
3,43,0,260
3,45,109,10
3,45,0,260
3,41,109,10
3,41,0,260
3,48,109,10
3,48,0,245
3,47,109,10
3,47,0,245
3,45,109,10
3,45,0,245
3,43,109,10
3,43,0,245
3,41,109,10
3,41,0,260
3,40,109,10
3,40,0,260
3,38,109,10
3,38,0,260
3,41,109,10
3,41,0,260
3,43,109,10
3,43,0,275
3,41,109,10
3,41,0,260
3,43,109,10
3,43,0,260
3,45,109,10
3,45,0,260
3,41,109,10
3,41,0,260
3,48,109,10
3,48,0,245
3,47,109,10
3,47,0,245
3,45,109,10
3,45,0,245
3,43,109,10
3,43,0,245
3,41,109,10
3,41,0,260
3,40,109,10
3,40,0,260
3,38,109,10
3,38,0,260
3,41,109,10
3,41,0,260
3,48,118,10
3,48,0,360
3,43,109,2520
3,43,0,260
3,45,109,10
3,45,0,260
3,47,109,10
3,47,0,260
3,43,109,10
3,43,0,260
3,50,109,10
3,50,0,245
3,49,109,10
3,49,0,245
3,47,109,10
3,47,0,245
3,45,109,10
3,45,0,245
3,43,109,10
3,43,0,260
3,42,109,10
3,42,0,260
3,40,109,10
3,40,0,260
3,43,109,10
3,43,0,260
3,45,109,10
3,45,0,275
3,43,109,10
3,43,0,260
3,45,109,10
3,45,0,260
3,47,109,10
3,47,0,260
3,43,109,10
3,43,0,260
3,50,109,10
3,50,0,245
3,49,109,10
3,49,0,245
3,47,109,10
3,47,0,245
3,45,109,10
3,45,0,245
3,43,109,10
3,43,0,260
3,42,109,10
3,42,0,260
3,40,109,10
3,40,0,260
3,43,109,10
3,43,0,260
3,50,118,10
3,50,0,360
3,38,84,2640
3,38,0,600
4,48,99,3462
4,52,89,5
4,52,0,60
4,55,91,0
4,55,0,30
4,52,85,30
4,60,88,60
4,48,0,60
4,55,87,0
4,52,0,20
4,60,0,25
4,55,0,10
4,48,99,0
4,53,89,5
4,53,0,60
4,55,91,0
4,55,0,30
4,52,85,30
4,60,88,60
4,48,0,60
4,55,87,0
4,52,0,20
4,60,0,25
4,55,0,10
4,48,99,0
4,52,89,5
4,52,0,60
4,55,91,0
4,55,0,30
4,52,85,30
4,60,88,60
4,48,0,60
4,55,87,0
4,52,0,20
4,60,0,25
4,55,0,10
4,48,99,0
4,53,89,5
4,53,0,60
4,55,91,0
4,55,0,30
4,52,85,30
4,60,88,60
4,48,0,60
4,55,87,0
4,52,0,20
4,60,0,25
4,55,0,10
4,48,99,0
4,52,89,5
4,52,0,60
4,55,91,0
4,55,0,30
4,52,85,30
4,60,88,60
4,48,0,60
4,55,87,0
4,52,0,20
4,60,0,25
4,55,0,10
4,48,99,0
4,53,89,5
4,53,0,60
4,55,91,0
4,55,0,30
4,52,85,30
4,60,88,60
4,48,0,60
4,55,87,0
4,52,0,20
4,60,0,25
4,55,0,10
4,48,99,0
4,52,89,5
4,52,0,60
4,55,91,0
4,55,0,30
4,52,85,30
4,60,88,60
4,48,0,60
4,55,87,0
4,52,0,20
4,60,0,25
4,55,0,10
4,48,99,0
4,53,89,5
4,53,0,60
4,55,91,0
4,55,0,30
4,52,85,30
4,60,88,60
4,48,0,60
4,55,87,0
4,52,0,20
4,60,0,25
4,55,0,10
4,41,99,0
4,53,89,5
4,53,0,60
4,57,91,0
4,53,85,60
4,60,88,60
4,57,0,5
4,57,87,55
4,41,0,15
4,53,0,5
4,60,0,25
4,57,0,10
4,43,99,0
4,50,89,5
4,55,91,60
4,50,0,15
4,50,85,45
4,59,88,60
4,55,0,5
4,55,87,55
4,43,0,15
4,50,0,5
4,59,0,25
4,55,0,10
4,45,99,0
4,52,89,5
4,57,91,60
4,52,0,15
4,52,85,45
4,60,88,60
4,57,0,5
4,57,87,55
4,45,0,15
4,52,0,5
4,60,0,25
4,57,0,10
4,41,99,0
4,53,89,5
4,53,0,60
4,57,91,0
4,53,85,60
4,60,88,60
4,57,0,5
4,57,87,55
4,41,0,15
4,53,0,5
4,60,0,25
4,57,0,10
4,48,99,0
4,52,89,5
4,55,91,60
4,52,0,15
4,52,85,45
4,60,88,60
4,55,0,5
4,48,0,55
4,55,87,0
4,52,0,20
4,60,0,25
4,55,0,10
4,47,99,0
4,52,89,5
4,55,91,60
4,52,0,15
4,52,85,45
4,60,88,60
4,55,0,5
4,47,0,55
4,55,87,0
4,52,0,20
4,60,0,25
4,55,0,10
4,45,99,0
4,52,89,5
4,55,91,60
4,52,0,15
4,52,85,45
4,60,88,60
4,55,0,5
4,45,0,55
4,55,87,0
4,52,0,20
4,60,0,25
4,55,0,10
4,43,99,0
4,52,89,5
4,55,91,60
4,52,0,15
4,52,85,45
4,60,88,60
4,55,0,5
4,43,0,55
4,55,87,0
4,52,0,20
4,60,0,25
4,55,0,10
4,53,99,0
4,57,89,5
4,57,0,60
4,60,91,0
4,57,85,60
4,65,88,60
4,60,0,5
4,60,87,55
4,53,0,15
4,57,0,5
4,65,0,25
4,60,0,10
4,52,99,0
4,55,89,5
4,55,0,60
4,59,91,0
4,55,85,60
4,64,88,60
4,59,0,5
4,59,87,55
4,52,0,15
4,55,0,5
4,64,0,25
4,59,0,10
4,50,99,0
4,53,89,5
4,53,0,60
4,57,91,0
4,53,85,60
4,62,88,60
4,57,0,5
4,57,87,55
4,50,0,15
4,53,0,5
4,62,0,25
4,57,0,10
4,41,99,0
4,53,89,5
4,53,0,60
4,57,91,0
4,53,85,60
4,60,88,60
4,57,0,5
4,57,87,55
4,41,0,15
4,53,0,5
4,60,0,25
4,57,0,10
4,43,99,0
4,50,89,5
4,55,91,60
4,50,0,15
4,50,85,45
4,59,88,60
4,55,0,5
4,55,87,55
4,43,0,15
4,50,0,5
4,59,0,25
4,55,0,10
4,43,99,0
4,50,89,5
4,55,91,60
4,50,0,15
4,50,85,45
4,60,88,60
4,55,0,5
4,55,87,55
4,43,0,15
4,50,0,5
4,60,0,10
4,55,0,10
4,43,99,0
4,50,89,5
4,55,91,60
4,50,0,15
4,50,85,45
4,59,88,60
4,55,0,5
4,55,87,55
4,43,0,15
4,50,0,5
4,59,0,25
4,55,0,10
4,43,99,0
4,50,89,5
4,55,91,60
4,50,0,15
4,50,85,45
4,60,88,60
4,55,0,5
4,55,87,55
4,43,0,15
4,50,0,5
4,60,0,25
4,55,0,10
4,41,99,0
4,53,89,5
4,53,0,60
4,57,91,0
4,53,85,60
4,60,88,60
4,57,0,5
4,57,87,55
4,41,0,15
4,53,0,5
4,60,0,25
4,57,0,10
4,43,99,0
4,50,89,5
4,55,91,60
4,50,0,15
4,50,85,45
4,59,88,60
4,55,0,5
4,55,87,55
4,43,0,15
4,50,0,5
4,59,0,25
4,55,0,10
4,45,99,0
4,52,89,5
4,57,91,60
4,52,0,15
4,52,85,45
4,60,88,60
4,57,0,5
4,57,87,55
4,45,0,15
4,52,0,5
4,60,0,25
4,57,0,10
4,41,99,0
4,53,89,5
4,53,0,60
4,57,91,0
4,53,85,60
4,60,88,60
4,57,0,5
4,57,87,55
4,41,0,15
4,53,0,5
4,60,0,25
4,57,0,10
4,48,99,0
4,52,89,5
4,55,91,60
4,52,0,15
4,52,85,45
4,60,88,60
4,55,0,5
4,48,0,55
4,55,87,0
4,52,0,20
4,60,0,25
4,55,0,10
4,47,99,0
4,52,89,5
4,55,91,60
4,52,0,15
4,52,85,45
4,60,88,60
4,55,0,5
4,47,0,55
4,55,87,0
4,52,0,20
4,60,0,25
4,55,0,10
4,45,99,0
4,52,89,5
4,55,91,60
4,52,0,15
4,52,85,45
4,60,88,60
4,55,0,5
4,45,0,55
4,55,87,0
4,52,0,20
4,60,0,25
4,55,0,10
4,43,99,0
4,52,89,5
4,55,91,60
4,52,0,15
4,52,85,45
4,60,88,60
4,55,0,5
4,43,0,55
4,55,87,0
4,52,0,20
4,60,0,25
4,55,0,10
4,53,99,0
4,57,89,5
4,57,0,60
4,60,91,0
4,57,85,60
4,65,88,60
4,60,0,5
4,60,87,55
4,53,0,15
4,57,0,5
4,65,0,25
4,60,0,10
4,52,99,0
4,55,89,5
4,55,0,60
4,59,91,0
4,55,85,60
4,64,88,60
4,59,0,5
4,59,87,55
4,52,0,15
4,55,0,5
4,64,0,25
4,59,0,10
4,50,99,0
4,53,89,5
4,53,0,60
4,57,91,0
4,53,85,60
4,62,88,60
4,57,0,5
4,57,87,55
4,50,0,15
4,53,0,5
4,62,0,25
4,57,0,10
4,41,99,0
4,53,89,5
4,53,0,60
4,57,91,0
4,53,85,60
4,60,88,60
4,57,0,5
4,57,87,55
4,41,0,15
4,53,0,5
4,60,0,25
4,57,0,10
4,48,99,0
4,52,89,5
4,52,0,60
4,55,91,0
4,55,0,30
4,52,85,30
4,60,88,60
4,48,0,60
4,55,87,0
4,52,0,20
4,60,0,25
4,55,0,10
4,48,99,0
4,53,89,5
4,53,0,60
4,55,91,0
4,55,0,30
4,52,85,30
4,60,88,60
4,48,0,60
4,55,87,0
4,52,0,20
4,60,0,25
4,55,0,10
4,48,99,0
4,52,89,5
4,52,0,60
4,55,91,0
4,55,0,30
4,52,85,30
4,60,88,60
4,48,0,60
4,55,87,0
4,52,0,20
4,60,0,25
4,55,0,10
4,48,99,0
4,53,89,5
4,53,0,60
4,55,91,0
4,55,0,30
4,52,85,30
4,60,88,60
4,48,0,60
4,55,87,0
4,52,0,20
4,60,0,25
4,55,0,10
4,48,99,0
4,52,89,5
4,52,0,60
4,55,91,0
4,55,0,30
4,52,85,30
4,60,88,60
4,48,0,60
4,55,87,0
4,52,0,20
4,60,0,25
4,55,0,10
4,48,99,0
4,53,89,5
4,53,0,60
4,55,91,0
4,55,0,30
4,52,85,30
4,60,88,60
4,48,0,60
4,55,87,0
4,52,0,20
4,60,0,25
4,55,0,10
4,48,99,0
4,52,89,5
4,52,0,60
4,55,91,0
4,55,0,30
4,52,85,30
4,60,88,60
4,48,0,60
4,55,87,0
4,52,0,20
4,60,0,25
4,55,0,10
4,48,99,0
4,53,89,5
4,53,0,60
4,55,91,0
4,55,0,30
4,52,85,30
4,60,88,60
4,48,0,60
4,55,87,0
4,52,0,20
4,60,0,25
4,55,0,10
4,41,99,0
4,53,89,5
4,53,0,60
4,57,91,0
4,53,85,60
4,60,88,60
4,57,0,5
4,57,87,55
