track,note,velocity,time
0,42,100,143
0,42,70,93
0,42,70,93
0,42,100,93
0,42,70,93
0,74,87,93
0,74,86,48
0,73,95,95
0,71,93,88
0,31,106,79
0,62,51,1
0,62,51,0
0,67,60,1
0,67,60,0
0,59,42,1
0,59,42,0
0,55,48,1
0,55,48,1
0,51,75,3
0,74,94,0
0,55,77,1
0,62,70,59
0,59,81,15
0,69,68,78
0,61,51,1
0,69,68,0
0,64,63,1
0,61,51,0
0,64,63,1
0,57,54,1
0,57,54,1
0,73,95,0
0,33,104,0
0,57,66,3
0,64,71,7
0,61,69,96
0,51,61,0
0,35,106,1
0,62,51,3
0,62,51,0
0,66,76,3
0,71,66,0
0,66,76,0
0,71,66,1
0,51,70,0
0,59,73,0
0,62,86,1
0,30,100,1
0,59,69,4
0,71,89,2
0,71,75,32
0,67,64,8
0,67,64,0
0,55,65,3
0,55,65,0
0,31,100,1
0,71,79,3
0,55,71,4
0,62,71,62
0,73,90,1
0,37,88,1
0,74,100,0
0,59,59,5
0,57,64,5
0,57,64,1
0,66,64,1
0,66,64,0
0,51,77,2
0,50,67,1
0,69,83,0
0,38,96,0
0,57,72,8
0,66,78,1
0,50,71,95
0,61,66,77
0,61,66,0
0,37,94,1
0,49,78,1
0,57,80,5
0,37,102,26
0,51,67,3
0,49,75,1
0,59,68,69
0,59,68,0
0,47,78,1
0,51,71,0
0,35,102,1
0,57,74,3
0,47,66,97
0,69,74,2
0,69,74,27
0,57,64,23
0,57,64,0
0,69,76,2
0,45,75,1
0,33,102,1
0,71,94,13
0,57,78,3
0,51,81,0
0,33,108,35
0,59,57,9
0,73,87,1
0,59,72,79
0,59,72,0
0,67,85,1
0,67,85,0
0,55,70,1
0,55,70,0
0,31,117,1
0,74,99,1
0,55,75,2
0,51,68,0
0,62,70,7
0,59,77,11
0,66,70,75
0,66,70,0
0,61,61,1
0,61,61,0
0,57,60,2
0,57,60,1
0,73,88,0
0,54,75,1
0,30,102,1
0,61,69,37
0,51,68,77
0,57,73,0
0,55,76,0
0,55,76,0
0,28,115,1
0,67,87,1
0,64,51,0
0,67,87,0
0,64,51,1
0,51,80,0
0,52,81,1
0,59,86,0
0,30,100,1
0,71,85,4
0,55,74,1
0,71,78,19
0,62,72,16
0,62,72,0
0,59,63,1
0,59,63,0
0,31,117,1
0,71,75,4
0,55,79,2
0,62,73,6
0,73,90,1
0,31,117,12
0,74,96,8
0,59,66,0
0,61,60,84
0,61,60,0
0,69,74,1
0,64,47,0
0,69,74,0
0,57,60,0
0,64,47,0
0,33,102,1
0,57,60,0
0,73,87,0
0,51,77,0
0,57,71,0
0,64,68,4
0,61,68,5
0,67,74,75
0,67,74,0
0,33,102,1
0,57,69,3
0,67,71,35
0,64,72,1
0,33,93,1
0,51,71,2
0,57,74,2
0,74,87,136
0,74,93,29
0,74,94,5
0,73,90,19
0,30,102,77
0,71,82,8
0,67,61,0
0,67,61,0
0,62,54,0
0,62,54,1
0,31,112,1
0,59,49,0
0,59,49,0
0,55,54,2
0,55,54,0
0,51,75,2
0,74,87,1
0,55,78,0
0,62,75,42
0,59,70,50
0,61,58,81
0,61,58,1
0,69,70,2
0,69,70,0
0,57,52,1
0,57,52,0
0,64,60,0
0,64,60,0
0,33,104,1
0,73,87,0
0,57,80,0
0,64,68,8
0,51,72,4
0,61,81,2
0,62,52,91
0,62,52,0
0,35,104,1
0,59,76,1
0,51,75,0
0,71,72,1
0,66,68,0
0,71,72,0
0,66,68,0
0,62,82,25
0,30,102,1
0,59,73,0
0,71,88,2
0,71,81,32
0,55,63,8
0,55,63,0
0,31,121,1
0,71,81,4
0,55,60,3
0,67,70,0
0,67,70,0
0,73,86,0
0,62,72,1
0,37,96,1
0,74,96,2
0,59,66,6
0,38,115,1
0,66,68,4
0,66,68,0
0,57,62,1
0,57,62,0
0,51,73,0
0,69,87,2
0,50,63,0
0,57,80,1
0,66,83,0
0,50,78,93
0,61,66,70
0,61,66,0
0,37,102,1
0,49,65,1
0,57,72,7
0,49,65,96
0,59,58,71
0,59,58,0
0,35,104,1
0,47,76,0
0,51,83,1
0,57,65,9
0,35,117,24
0,47,74,0
0,69,81,0
0,33,100,1
0,57,76,2
0,57,76,0
0,69,83,0
0,45,87,2
0,71,87,35
0,51,70,0
0,57,64,1
0,30,102,1
0,51,82,8
0,73,86,2
0,55,55,13
0,55,55,0
0,67,72,1
0,67,72,0
0,59,60,0
0,59,60,0
0,31,117,1
0,51,77,1
0,55,59,1
0,74,92,1
0,62,64,21
0,59,71,70
0,66,74,81
0,66,74,0
0,57,68,0
0,57,68,0
0,30,104,1
0,61,60,0
0,61,60,1
0,54,74,2
0,73,91,0
0,51,68,1
0,61,87,39
0,51,78,73
0,57,82,1
0,28,106,0
0,59,48,4
0,67,74,1
0,59,48,0
0,67,74,0
0,64,41,1
0,64,41,0
0,52,68,4
0,51,74,0
0,59,72,23
0,71,86,1
0,55,83,1
0,28,106,9
0,67,51,62
0,67,51,0
0,69,74,12
0,69,74,0
0,61,60,1
0,61,60,0
0,57,70,1
0,57,70,0
0,31,104,1
0,73,93,1
0,51,73,1
0,57,74,1
0,67,76,1
0,33,102,0
0,74,107,27
0,33,110,51
0,76,94,2
0,26,115,1
0,51,71,0
0,66,63,1
0,74,87,0
0,36,48,0
0,62,57,1
0,57,60,0
0,66,63,0
0,62,57,0
0,57,60,0
0,50,67,0
0,66,69,0
0,57,75,8
0,50,70,4
0,67,87,2
0,51,73,0
0,67,63,0
0,67,63,1
0,57,62,7
0,26,106,4
0,50,65,3
0,36,50,2
0,26,121,2
0,50,75,0
0,66,76,1
0,51,90,0
0,36,62,1
0,66,32,0
0,66,32,0
0,57,71,4
0,50,75,9
0,51,90,1
0,74,91,2
0,50,85,0
0,67,63,1
0,67,63,0
0,67,81,1
0,26,108,26
0,73,102,4
0,30,106,1
0,36,38,14
0,71,97,0
0,31,115,1
0,51,86,0
0,36,58,1
0,74,87,0
0,55,70,1
0,71,69,1
0,51,67,33
0,62,77,1
0,51,63,93
0,55,62,2
0,69,68,10
0,69,68,0
0,61,51,1
0,61,51,0
0,64,63,1
0,64,63,0
0,57,54,0
0,57,54,0
0,33,104,1
0,37,46,3
0,51,71,1
0,57,78,1
0,73,81,0
0,69,51,0
0,64,72,1
0,57,76,93
0,36,46,1
0,62,51,14
0,62,51,0
0,66,76,3
0,71,66,0
0,66,76,1
0,71,66,0
0,35,106,1
0,36,60,5
0,51,82,1
0,59,78,1
0,51,68,4
0,62,70,2
0,30,100,1
0,51,67,2
0,71,97,1
0,59,71,0
0,71,83,29
0,67,64,5
0,67,64,1
0,55,65,3
0,55,65,0
0,31,98,1
0,51,76,0
0,71,90,1
0,37,65,0
0,67,86,2
0,55,81,2
0,73,97,34
0,69,87,3
0,37,96,1
0,74,95,3
0,71,86,1
0,57,64,6
0,57,64,0
0,66,64,1
0,66,64,0
0,38,102,1
0,51,79,0
0,36,50,2
0,50,71,2
0,66,74,1
0,69,67,0
0,51,61,0
0,66,56,1
0,62,81,3
0,57,65,1
0,51,62,2
0,51,68,43
0,50,68,1
0,76,65,1
0,61,66,72
0,61,66,0
0,37,87,3
0,49,70,3
0,37,60,3
0,51,88,0
0,57,64,4
0,74,69,2
0,73,70,9
0,49,74,6
0,37,96,1
0,71,71,3
0,73,72,9
0,59,68,1
0,59,68,0
0,35,96,1
0,36,67,1
0,51,78,1
0,47,72,1
0,71,73,1
0,57,66,17
0,51,68,1
0,69,64,0
0,51,67,8
0,66,69,1
0,69,88,5
0,51,81,0
0,47,70,2
0,64,74,2
0,69,87,5
0,62,79,4
0,33,102,1
0,57,64,5
0,57,64,0
0,51,90,0
0,37,67,2
0,66,83,0
0,57,84,1
0,45,68,0
0,69,80,0
0,62,85,1
0,71,92,0
0,67,87,1
0,57,61,0
0,67,94,1
0,66,88,1
0,30,115,1
0,73,94,1
0,64,82,1
0,69,66,0
0,62,76,1
0,59,72,0
0,59,72,0
0,67,85,2
0,67,85,0
0,55,70,1
0,55,70,0
0,31,115,1
0,36,71,0
0,55,78,1
0,71,87,0
0,74,90,1
0,51,88,0
0,71,70,0
0,62,52,31
0,55,68,5
0,76,64,4
0,78,74,10
0,66,70,24
0,66,70,0
0,61,61,1
0,61,61,0
0,57,60,1
0,57,60,0
0,73,81,1
0,54,86,0
0,37,69,1
0,30,91,1
0,81,84,1
0,69,45,1
0,61,70,17
0,76,57,4
0,54,78,5
0,36,60,0
0,78,71,1
0,55,76,0
0,55,76,0
0,28,104,1
0,67,87,0
0,67,87,0
0,64,51,1
0,64,51,0
0,36,65,3
0,51,81,0
0,52,81,0
0,79,85,0
0,59,72,11
0,74,89,29
0,30,92,1
0,51,68,6
0,52,71,1
0,71,85,0
0,67,73,1
0,71,82,1
0,71,76,5
0,67,78,1
0,69,75,3
0,31,117,1
0,62,72,5
0,59,63,1
0,62,72,0
0,59,63,0
0,37,58,0
0,71,87,1
0,51,79,1
0,67,76,1
0,67,68,0
0,55,73,2
0,51,62,0
0,73,92,2
0,69,66,1
0,69,66,2
0,51,80,17
0,71,81,2
0,74,89,0
0,71,69,2
0,61,60,8
0,61,60,0
0,69,74,0
0,33,108,1
0,64,47,0
0,69,74,0
0,64,47,0
0,57,60,1
0,57,60,0
0,69,72,0
0,76,90,0
0,51,87,0
0,57,77,1
0,73,69,0
0,36,67,0
0,61,57,2
0,64,64,0
0,51,63,2
0,64,65,9
0,57,76,5
0,69,74,4
0,51,63,2
0,71,82,10
0,67,74,22
0,67,74,1
0,31,117,0
0,57,77,1
0,37,50,3
0,73,91,1
0,51,74,1
0,69,65,9
0,67,89,6
0,51,66,1
0,71,66,0
0,73,79,5
0,31,108,22
0,51,71,2
0,64,78,1
0,76,92,3
0,73,78,10
0,33,102,1
0,36,73,0
0,57,78,1
0,51,84,0
0,69,60,1
0,74,86,40
0,74,76,2
0,71,76,0
0,74,81,6
0,71,76,1
0,74,75,1
0,51,73,4
0,74,83,0
0,74,74,1
0,71,83,2
0,41,58,0
0,41,54,1
0,73,73,1
0,73,106,0
0,69,76,0
0,36,44,14
0,30,102,1
0,71,85,0
0,71,72,0
0,67,61,0
0,67,61,11
0,67,61,0
0,62,54,1
0,62,54,0
0,59,49,2
0,59,49,0
0,55,54,1
0,55,54,0
0,74,94,1
0,71,74,0
0,55,63,0
0,36,85,0
0,31,112,1
0,71,71,0
0,51,111,0
0,62,74,8
0,51,75,3
0,51,73,43
0,55,78,5
0,51,74,0
0,61,58,49
0,61,58,0
0,69,70,2
0,69,70,0
0,57,52,1
0,33,104,1
0,57,52,0
0,64,60,0
0,64,60,0
0,37,93,0
0,73,89,1
0,69,78,0
0,51,109,0
0,57,71,0
0,69,81,0
0,51,62,15
0,64,78,1
0,57,79,93
0,36,60,0
0,51,64,1
0,35,112,1
0,62,52,0
0,62,52,1
0,36,67,1
0,51,92,1
0,59,82,0
0,71,72,1
0,66,68,0
0,71,72,0
0,66,56,0
0,66,68,1
0,51,66,41
0,62,76,1
0,51,66,86
0,59,75,0
0,74,81,0
0,30,106,1
0,71,72,0
0,74,78,9
0,71,73,0
0,55,63,12
0,55,63,1
0,31,100,1
0,37,71,1
0,51,98,1
0,74,87,0
0,67,70,0
0,67,70,0
0,67,68,0
0,71,81,0
0,55,76,1
0,51,72,16
0,62,65,1
0,73,105,0
0,69,72,1
0,69,72,1
0,71,88,2
0,51,76,0
0,67,77,1
0,59,76,1
0,25,93,1
0,71,76,1
0,26,106,6
0,66,68,3
0,66,68,0
0,57,62,1
0,57,62,0
0,66,87,1
0,50,70,2
0,69,69,1
0,69,68,0
0,36,82,3
0,51,109,0
0,66,81,7
0,62,83,0
0,66,63,1
0,51,73,0
0,57,74,2
0,26,94,8
0,50,86,9
0,51,81,3
0,76,92,1
0,61,66,79
0,61,66,1
0,49,86,0
0,37,96,3
0,51,98,1
0,38,108,1
0,37,98,0
0,57,73,7
0,51,73,2
0,74,78,0
0,73,74,9
0,49,65,6
0,36,58,1
0,51,75,2
0,37,95,0
0,71,71,1
0,73,67,9
0,59,58,3
0,59,58,0
0,35,119,0
0,47,80,1
0,36,80,0
0,51,105,1
0,71,64,1
0,57,72,9
0,51,61,3
0,69,78,1
0,51,61,6
0,66,81,1
0,47,76,5
0,35,115,2
0,51,113,0
0,69,86,2
0,66,69,0
0,64,83,1
0,62,86,10
0,57,76,0
0,57,76,0
0,33,119,1
0,69,85,2
0,66,84,0
0,45,83,1
0,51,120,0
0,37,90,1
0,57,89,0
0,62,89,1
0,71,99,5
0,67,83,1
0,57,75,1
0,67,74,1
0,51,66,0
0,66,72,1
0,37,43,0
0,30,102,1
0,69,88,7
0,73,100,1
0,51,72,1
0,64,69,1
0,36,56,3
0,62,66,1
0,55,55,24
0,55,55,0
0,67,72,1
0,67,72,0
0,59,60,1
0,59,60,0
0,31,117,1
0,36,87,0
0,55,76,1
0,51,111,0
0,71,88,1
0,74,92,0
0,71,64,2
0,51,68,33
0,62,82,2
0,51,63,2
0,74,59,0
0,55,81,3
0,51,84,1
0,76,65,0
0,78,70,8
0,66,74,3
0,57,68,1
0,66,74,0
0,57,68,1
0,61,60,1
0,61,60,0
0,30,100,0
0,73,92,1
0,37,99,1
0,51,109,1
0,81,76,1
0,54,68,0
0,69,74,1
0,61,74,4
0,51,77,1
0,76,68,2
0,30,106,4
0,54,78,5
0,51,88,0
0,78,69,1
0,59,48,11
0,59,48,0
0,67,74,1
0,64,41,0
0,67,74,0
0,64,41,1
0,52,86,1
0,51,107,0
0,36,75,0
0,28,117,0
0,79,71,0
0,59,78,5
0,51,70,1
0,51,70,27
0,74,76,0
0,31,117,1
0,52,78,0
0,71,89,1
0,67,78,1
0,51,105,1
0,71,64,1
0,67,52,9
0,67,51,24
0,67,51,1
0,33,112,1
0,69,74,3
0,69,74,0
0,61,60,1
0,61,60,0
0,57,70,0
0,57,70,0
0,37,82,0
0,73,89,1
0,51,122,0
0,69,62,0
0,57,75,0
0,69,69,2
0,51,81,16
0,74,112,1
0,71,90,0
0,71,70,3
0,33,115,4
0,51,90,6
0,73,78,2
0,76,94,42
0,73,77,2
0,36,71,1
0,51,127,1
0,66,63,0
0,62,57,0
0,57,60,0
0,78,87,0
0,50,68,0
0,26,121,1
0,66,63,0
0,62,57,0
0,57,60,0
0,74,80,1
0,66,74,0
0,51,63,11
0,69,77,1
0,57,69,0
0,51,72,8
0,74,74,2
0,50,71,4
0,51,87,0
0,33,112,1
0,76,71,0
0,78,67,8
0,51,82,4
0,67,92,1
0,38,71,1
0,38,110,1
0,79,87,0
0,67,63,1
0,67,63,0
0,51,57,2
0,57,77,0
0,74,77,4
0,71,73,9
0,33,104,1
0,36,65,1
0,50,78,1
0,51,76,0
0,69,68,1
0,67,64,9
0,66,86,0
0,36,87,0
0,26,115,1
0,51,119,0
0,50,68,1
0,66,32,0
0,66,32,0
0,66,76,0
0,57,69,8
0,69,85,5
0,74,89,5
0,26,119,24
0,86,63,1
0,48,93,3
0,74,46,1
0,50,70,0
0,74,87,0
0,76,94,0
0,33,104,1
0,48,93,7
0,78,68,0
0,86,76,16
0,74,61,1
0,47,107,0
0,38,106,1
0,74,92,0
0,67,63,0
0,81,51,0
0,67,83,0
0,67,63,1
0,85,72,4
0,73,57,1
0,73,99,11
0,45,102,0
0,45,107,2
0,83,74,66
0,71,60,1
0,33,90,1
0,71,86,1
0,41,99,5
0,86,66,4
0,74,49,0
0,36,82,0
0,51,116,0
0,31,98,1
0,55,83,0
0,74,102,0
0,71,78,0
0,55,52,20
0,59,72,23
0,62,70,32
0,62,85,2
0,51,60,2
0,67,60,40
0,51,58,0
0,31,119,31
0,71,70,10
0,55,92,0
0,51,119,1
0,74,76,0
0,33,117,1
0,69,68,3
0,61,51,1
0,64,63,1
0,57,54,1
0,85,60,5
0,38,102,2
0,51,102,0
0,73,51,1
0,57,78,0
0,73,88,1
0,57,86,1
0,69,76,0
0,61,63,35
