track,note,velocity,time
0,42,92,804
0,42,0,16
0,42,92,176
0,42,0,16
0,42,88,176
0,42,0,16
0,42,96,176
0,42,0,16
0,42,110,176
0,42,0,6
0,42,110,42
0,42,0,6
0,46,110,42
0,46,0,6
0,42,110,90
0,42,0,6
0,42,110,42
0,42,0,6
0,46,110,42
0,46,0,6
0,42,110,90
0,42,0,6
0,42,110,42
0,42,0,6
0,46,110,42
0,46,0,6
0,42,110,90
0,42,0,6
0,42,110,42
0,42,0,6
0,46,110,42
0,46,0,6
0,42,110,90
0,42,0,4
0,42,110,44
0,42,0,6
0,46,110,42
0,46,0,6
0,42,110,90
0,42,0,6
0,42,110,42
0,42,0,6
0,46,110,42
0,46,0,6
0,42,110,90
0,42,0,6
0,42,110,42
0,42,0,6
0,46,110,42
0,46,0,6
0,42,110,90
0,42,0,6
0,42,110,42
0,42,0,6
0,49,126,42
0,84,102,0
0,84,90,1
0,38,115,0
0,35,126,0
0,96,90,0
0,72,105,2
0,36,110,1
0,76,60,0
0,79,60,0
0,84,60,0
0,72,60,0
0,35,0,2
0,38,0,0
0,49,0,0
0,72,0,35
0,84,0,5
0,36,0,35
0,96,0,5
0,84,0,0
0,72,0,2
0,76,0,0
0,79,0,1
0,84,0,0
0,31,110,103
0,31,0,81
0,33,110,15
0,33,0,80
0,36,110,16
0,36,0,80
0,31,110,112
0,31,0,81
0,33,110,15
0,33,0,81
0,36,110,15
0,36,0,80
0,31,110,112
0,31,0,81
0,33,110,15
0,33,0,81
0,36,110,15
0,36,0,80
0,39,110,16
0,39,0,81
0,38,115,15
0,40,110,1
0,38,0,5
0,40,0,75
0,43,110,15
0,38,115,0
0,38,0,6
0,38,115,42
0,38,0,6
0,43,0,27
0,45,110,15
0,38,115,0
0,38,0,6
0,45,0,75
0,49,126,15
0,64,80,1
0,57,80,0
0,35,113,0
0,60,80,0
0,42,110,0
0,53,80,2
0,29,110,1
0,42,0,2
0,49,0,0
0,35,0,0
0,42,110,42
0,42,0,6
0,29,0,27
0,46,110,15
0,29,110,1
0,46,0,5
0,29,0,75
0,42,110,15
0,35,113,0
0,24,110,1
0,38,107,0
0,38,0,5
0,35,0,0
0,42,0,0
0,42,110,42
0,42,0,6
0,24,0,27
0,26,110,15
0,46,110,0
0,64,81,1
0,46,0,5
0,64,0,37
0,26,0,38
0,35,113,15
0,42,110,0
0,64,81,1
0,29,110,0
0,42,0,5
0,35,0,0
0,42,110,42
0,42,0,6
0,29,0,27
0,64,0,5
0,46,110,10
0,29,110,0
0,62,81,1
0,46,0,5
0,29,0,75
0,62,0,5
0,35,113,10
0,42,110,0
0,38,107,1
0,24,110,0
0,64,81,0
0,38,0,5
0,42,0,0
0,35,0,0
0,42,110,42
0,42,0,6
0,24,0,27
0,64,0,5
0,46,110,10
0,26,110,0
0,60,81,1
0,46,0,5
0,26,0,75
0,35,113,15
0,42,110,0
0,29,110,1
0,42,0,5
0,35,0,0
0,42,110,42
0,42,0,6
0,29,0,27
0,46,110,15
0,29,110,0
0,46,0,6
0,60,0,22
0,29,0,53
0,42,110,15
0,60,81,1
0,24,110,0
0,38,107,0
0,35,113,0
0,35,0,5
0,38,0,0
0,42,0,0
0,42,110,42
0,42,0,6
0,24,0,27
0,26,110,15
0,46,110,0
0,46,0,6
0,26,0,75
0,42,110,15
0,35,113,0
0,29,110,1
0,35,0,5
0,42,0,0
0,42,110,42
0,42,0,6
0,60,0,22
0,29,0,5
0,29,110,15
0,46,110,0
0,57,81,1
0,46,0,5
0,29,0,75
0,42,110,15
0,35,113,0
0,24,110,1
0,38,107,0
0,38,0,5
0,35,0,0
0,42,0,0
0,42,110,42
0,42,0,6
0,57,0,27
0,24,0,0
0,46,110,15
0,26,110,1
0,62,81,0
0,46,0,5
0,57,0,51
0,60,0,0
0,53,0,0
0,64,0,2
0,26,0,22
0,35,113,15
0,42,110,0
0,62,80,1
0,59,80,0
0,55,80,0
0,64,80,0
0,31,110,2
0,42,0,3
0,35,0,0
0,42,110,42
0,42,0,6
0,31,0,27
0,46,110,15
0,31,110,1
0,46,0,5
0,31,0,75
0,42,110,15
0,38,107,1
0,26,110,0
0,35,113,0
0,35,0,5
0,38,0,0
0,42,0,0
0,42,110,42
0,42,0,6
0,26,0,27
0,46,110,15
0,28,110,1
0,46,0,5
0,28,0,75
0,42,110,15
0,31,110,1
0,35,113,0
0,35,0,5
0,42,0,0
0,42,110,42
0,42,0,6
0,31,0,27
0,46,110,15
0,31,110,1
0,46,0,5
0,31,0,75
0,42,110,15
0,35,113,1
0,38,107,0
0,26,110,0
0,38,0,5
0,35,0,0
0,42,0,0
0,62,0,24
0,42,110,18
0,42,0,6
0,26,0,27
0,46,110,15
0,28,110,0
0,64,81,1
0,46,0,5
0,28,0,75
0,64,0,5
0,35,113,10
0,42,110,0
0,31,110,1
0,35,0,3
0,42,0,2
0,42,110,42
0,42,0,6
0,31,0,27
0,46,110,15
0,64,81,1
0,31,110,0
0,46,0,5
0,31,0,75
0,42,110,15
0,35,113,0
0,26,110,1
0,38,107,0
0,38,0,5
0,35,0,0
0,42,0,0
0,42,110,42
0,42,0,6
0,64,0,27
0,26,0,0
0,46,110,15
0,60,81,1
0,28,110,0
0,46,0,5
0,28,0,75
0,60,0,5
0,42,110,10
0,35,113,0
0,31,110,1
0,62,81,0
0,35,0,5
0,42,0,0
0,42,110,42
0,42,0,6
0,31,0,27
0,62,0,5
0,31,110,10
0,46,110,0
0,60,81,1
0,46,0,5
0,31,0,75
0,60,0,5
0,35,113,10
0,42,110,0
0,38,107,1
0,26,110,0
0,57,81,0
0,38,0,5
0,42,0,0
0,35,0,0
0,42,110,42
0,42,0,6
0,26,0,27
0,46,110,15
0,28,110,1
0,46,0,5
0,55,0,51
0,62,0,0
0,59,0,0
0,64,0,2
0,28,0,22
0,57,0,0
0,42,110,15
0,53,80,1
0,35,113,0
0,64,80,0
0,57,80,0
0,60,80,0
0,29,110,2
0,35,0,3
0,42,0,0
0,42,110,42
0,42,0,6
0,29,0,27
0,46,110,15
0,29,110,1
0,46,0,5
0,29,0,75
0,35,113,15
0,42,110,0
0,38,107,1
0,24,110,0
0,38,0,5
0,42,0,0
0,35,0,0
0,42,110,42
0,42,0,6
0,24,0,27
0,26,110,15
0,46,110,0
0,64,81,1
0,46,0,5
0,64,0,37
0,26,0,38
0,35,113,15
0,42,110,0
0,29,110,1
0,64,81,0
0,42,0,5
0,35,0,0
0,42,110,42
0,42,0,6
0,29,0,27
0,64,0,5
0,29,110,10
0,46,110,0
0,62,81,1
0,46,0,5
0,29,0,75
0,62,0,5
0,42,110,10
0,38,107,0
0,35,113,0
0,24,110,1
0,64,81,0
0,35,0,5
0,38,0,0
0,42,0,0
0,42,110,42
0,42,0,6
0,24,0,27
0,64,0,5
0,26,110,10
0,46,110,0
0,60,81,1
0,46,0,5
0,26,0,74
0,35,113,16
0,42,110,0
0,29,110,1
0,42,0,5
0,35,0,0
0,42,110,42
0,42,0,6
0,29,0,27
0,46,110,15
0,29,110,0
0,46,0,6
0,60,0,24
0,29,0,51
0,42,110,15
0,35,113,0
0,60,81,1
0,24,110,0
0,38,107,0
0,38,0,5
0,35,0,0
0,42,0,0
0,42,110,42
0,42,0,6
0,24,0,27
0,26,110,15
0,46,110,0
0,46,0,6
0,26,0,75
0,42,110,15
0,35,113,0
0,29,110,1
0,35,0,5
0,42,0,0
0,42,110,42
0,42,0,6
0,60,0,22
0,29,0,5
0,46,110,15
0,29,110,1
0,57,81,0
0,46,0,5
0,29,0,75
0,42,110,15
0,35,113,0
0,38,107,0
0,24,110,1
0,38,0,5
0,35,0,0
0,42,0,0
0,42,110,42
0,42,0,6
0,57,0,27
0,24,0,0
0,46,110,15
0,26,110,0
0,62,81,1
0,46,0,5
0,53,0,51
0,57,0,0
0,60,0,2
0,64,0,0
0,26,0,22
0,42,110,15
0,35,113,0
0,31,110,1
0,62,80,0
0,60,80,0
0,55,80,0
0,35,0,5
0,42,0,0
0,42,110,42
0,42,0,6
0,31,0,27
0,46,110,15
0,31,110,1
0,46,0,5
0,31,0,75
0,35,113,15
0,42,110,0
0,26,110,1
0,38,107,0
0,38,0,5
0,42,0,0
0,35,0,0
0,42,110,42
0,42,0,6
0,26,0,27
0,46,110,15
0,28,110,1
0,46,0,5
0,28,0,75
0,42,110,15
0,35,113,0
0,31,110,1
0,35,0,5
0,42,0,0
0,42,110,42
0,42,0,6
0,31,0,27
0,46,110,15
0,31,110,1
0,46,0,5
0,31,0,75
0,35,113,15
0,42,110,0
0,26,110,1
0,38,107,0
0,38,0,5
0,42,0,0
0,35,0,0
0,42,110,42
0,42,0,6
0,26,0,27
0,28,110,15
0,46,110,0
0,46,0,6
0,55,0,51
0,60,0,0
0,62,0,0
0,62,0,21
0,28,0,3
0,42,110,15
0,35,113,0
0,67,80,1
0,62,80,0
0,55,80,0
0,59,80,0
0,31,110,2
0,35,0,3
0,42,0,0
0,42,110,42
0,42,0,6
0,31,0,27
0,46,110,15
0,31,110,1
0,46,0,5
0,31,0,75
0,35,113,15
0,42,110,0
0,26,110,1
0,38,107,0
0,38,0,5
0,42,0,0
0,35,0,0
0,42,110,42
0,42,0,6
0,26,0,27
0,46,110,15
0,28,110,1
0,46,0,5
0,28,0,75
0,42,110,15
0,35,113,0
0,64,81,1
0,31,110,0
0,35,0,5
0,42,0,0
0,42,110,42
0,42,0,6
0,31,0,27
0,31,110,15
0,46,110,0
0,46,0,6
0,64,0,74
0,31,0,1
0,35,113,15
0,42,110,0
0,38,107,0
0,65,81,1
0,26,110,0
0,38,0,5
0,42,0,0
0,35,0,0
0,42,110,42
0,42,0,6
0,26,0,27
0,46,110,15
0,28,110,0
0,46,0,6
0,59,0,51
0,62,0,0
0,55,0,0
0,67,0,2
0,65,0,21
0,28,0,1
0,63,95,15
0,49,126,0
0,42,110,1
0,35,113,0
0,67,95,0
0,67,80,0
0,64,80,2
0,60,80,0
0,67,81,1
0,36,110,0
0,35,0,2
0,42,0,0
0,63,0,0
0,49,0,0
0,42,110,42
0,42,0,6
0,36,0,27
0,63,97,15
0,46,110,0
0,36,110,1
0,46,0,5
0,63,0,0
0,67,0,29
0,36,0,46
0,42,110,15
0,35,113,0
0,64,93,0
0,38,107,1
0,67,81,0
0,31,110,0
0,38,0,5
0,64,0,0
0,35,0,0
0,42,0,0
0,42,110,42
0,42,0,6
0,31,0,27
0,46,110,15
0,64,97,0
0,33,110,1
0,64,0,5
0,46,0,0
0,67,0,29
0,64,97,13
0,64,0,6
0,33,0,27
0,63,97,15
0,42,110,0
0,35,113,0
0,67,81,1
0,36,110,0
0,35,0,5
0,42,0,0
0,63,0,0
0,67,0,37
0,42,110,5
0,42,0,6
0,36,0,27
0,46,110,15
0,63,97,0
0,67,81,1
0,36,110,0
0,63,0,5
0,46,0,0
0,36,0,75
0,42,110,15
0,64,97,0
0,38,107,1
0,35,113,0
0,31,110,0
0,35,0,5
0,38,0,0
0,64,0,0
0,42,0,0
0,67,0,29
0,42,110,13
0,42,0,6
0,31,0,26
0,64,97,16
0,46,110,0
0,33,110,1
0,67,81,0
0,46,0,5
0,64,0,0
0,64,97,42
0,64,0,6
0,33,0,27
0,42,110,15
0,63,97,0
0,36,110,1
0,35,113,0
0,35,0,5
0,63,0,0
0,42,0,0
0,67,0,29
0,42,110,13
0,42,0,6
0,36,0,27
0,46,110,15
0,63,97,0
0,36,110,1
0,67,81,0
0,63,0,5
0,46,0,0
0,36,0,75
0,64,97,15
0,42,110,0
0,38,107,1
0,31,110,0
0,35,113,0
0,35,0,5
0,38,0,0
0,42,0,0
0,64,0,0
0,67,0,29
0,42,110,13
0,42,0,6
0,31,0,27
0,64,97,15
0,46,110,0
0,67,81,1
0,33,110,0
0,46,0,5
0,64,0,0
0,64,97,42
0,64,0,6
0,67,0,2
0,67,0,19
0,33,0,6
0,42,110,15
0,63,97,0
0,72,95,1
0,35,113,0
0,72,80,0
0,36,110,0
0,35,0,5
0,42,0,0
0,63,0,0
0,67,0,27
0,42,110,15
0,42,0,6
0,36,0,27
0,46,110,15
0,63,97,0
0,36,110,1
0,67,81,0
0,63,0,5
0,46,0,0
0,36,0,75
0,67,0,5
0,64,97,10
0,42,110,0
0,35,113,1
0,31,110,0
0,69,81,0
0,38,107,0
0,38,0,5
0,35,0,0
0,42,0,0
0,64,0,0
0,42,110,42
0,42,0,6
0,31,0,27
0,46,110,15
0,64,97,0
0,33,110,1
0,64,0,5
0,46,0,0
0,64,97,42
0,64,0,6
0,64,0,2
0,72,0,0
0,60,0,1
0,72,0,19
0,69,0,5
0,33,0,0
0,63,97,15
0,42,110,0
0,35,113,1
0,67,80,0
0,70,80,0
0,70,95,0
0,65,80,2
0,62,80,0
0,70,81,1
0,36,110,0
0,35,0,2
0,63,0,0
0,42,0,0
0,42,110,42
0,42,0,6
0,36,0,27
0,63,97,15
0,36,110,1
0,46,110,0
0,46,0,5
0,63,0,0
0,36,0,75
0,70,0,0
0,42,110,15
0,64,97,0
0,31,110,1
0,35,113,0
0,38,107,0
0,69,81,2
0,38,0,3
0,35,0,0
0,64,0,0
0,42,0,0
0,42,110,42
0,42,0,6
0,31,0,26
0,64,97,16
0,46,110,1
0,33,110,0
0,46,0,5
0,64,0,0
0,64,97,42
0,64,0,6
0,69,0,26
0,33,0,1
0,63,97,15
0,42,110,0
0,67,81,1
0,36,110,0
0,35,113,0
0,35,0,5
0,42,0,0
0,63,0,0
0,42,110,42
0,42,0,6
0,36,0,27
0,46,110,15
0,63,97,0
0,36,110,1
0,63,0,5
0,46,0,0
0,67,0,74
0,36,0,1
0,42,110,15
0,64,97,0
0,31,110,1
0,35,113,0
0,38,107,0
0,65,81,0
0,38,0,5
0,35,0,0
0,64,0,0
0,42,0,0
0,42,110,42
0,42,0,6
0,31,0,27
0,65,0,5
0,46,110,10
0,64,97,0
0,67,81,1
0,33,110,0
0,64,0,5
0,46,0,0
0,64,97,42
0,64,0,6
0,33,0,27
0,70,0,13
0,63,97,2
0,42,110,0
0,67,95,1
0,36,110,0
0,35,113,0
0,35,0,5
0,42,0,0
0,63,0,0
0,42,110,42
0,42,0,6
0,36,0,27
0,63,97,15
0,46,110,0
0,36,110,1
0,46,0,5
0,63,0,0
0,36,0,75
0,67,0,5
0,64,97,10
0,42,110,0
0,69,95,1
0,35,113,0
0,38,107,0
0,31,110,0
0,38,0,5
0,35,0,0
0,42,0,0
0,64,0,0
0,67,0,24
0,42,110,18
0,42,0,6
0,31,0,27
0,64,97,15
0,46,110,0
0,33,110,1
0,46,0,5
0,64,0,0
0,64,97,42
0,64,0,6
0,33,0,27
0,69,0,5
0,63,97,10
0,42,110,0
0,35,113,0
0,36,110,1
0,70,95,0
0,64,81,2
0,35,0,3
0,42,0,0
0,63,0,0
0,42,110,42
0,42,0,6
0,36,0,26
0,63,97,16
0,46,110,0
0,36,110,1
0,46,0,5
0,63,0,0
0,64,0,74
0,36,0,1
0,70,0,5
0,64,97,10
0,42,110,0
0,38,107,1
0,35,113,0
0,74,95,0
0,31,110,0
0,65,81,2
0,35,0,3
0,38,0,0
0,42,0,0
0,64,0,0
0,42,110,42
0,42,0,6
0,31,0,27
0,64,97,15
0,46,110,0
0,33,110,1
0,46,0,5
0,64,0,0
0,64,97,42
0,64,0,6
0,70,0,3
0,65,0,0
0,62,0,0
0,67,0,0
0,33,0,24
0,65,0,0
0,74,0,5
0,63,97,10
0,42,110,0
0,72,95,1
0,72,80,0
0,67,80,0
0,35,113,0
0,64,80,2
0,36,110,1
0,67,81,0
0,35,0,2
0,63,0,0
0,42,0,0
0,42,110,42
0,42,0,6
0,36,0,27
0,46,110,15
0,63,97,0
0,36,110,1
0,63,0,5
0,46,0,0
0,67,0,30
0,36,0,45
0,42,110,15
0,64,97,0
0,35,113,1
0,67,81,0
0,31,110,0
0,38,107,0
0,38,0,5
0,35,0,0
0,64,0,0
0,42,0,0
