track,note,velocity,time
0,33,115,42
0,33,112,0
0,40,92,0
0,45,121,0
0,57,114,0
0,57,115,0
0,59,95,0
0,72,114,0
0,72,115,0
0,72,118,0
0,40,0,4
0,59,0,0
0,57,0,38
0,57,0,0
0,72,0,0
0,72,0,0
0,72,0,0
0,33,0,5
0,33,0,0
0,45,0,0
0,35,110,42
0,35,107,0
0,40,90,0
0,47,116,0
0,59,109,0
0,59,110,0
0,59,93,0
0,71,109,0
0,71,110,0
0,71,113,0
0,40,0,4
0,59,0,0
0,59,0,58
0,59,0,0
0,71,0,0
0,71,0,0
0,71,0,0
0,35,0,18
0,47,0,0
0,35,0,48
0,36,111,14
0,36,108,0
0,40,90,0
0,48,117,0
0,59,93,0
0,60,110,0
0,60,111,0
0,67,110,0
0,67,111,0
0,67,114,0
0,40,0,4
0,59,0,0
0,36,0,139
0,48,0,0
0,60,0,8
0,60,0,0
0,67,0,0
0,67,0,0
0,67,0,0
0,36,0,40
0,38,107,1
0,38,104,0
0,40,83,0
0,50,113,0
0,59,86,0
0,60,106,0
0,60,107,0
0,64,106,0
0,64,107,0
0,64,110,0
0,40,0,4
0,59,0,0
0,60,0,58
0,60,0,0
0,64,0,0
0,64,0,0
0,64,0,0
0,38,0,4
0,38,0,0
0,50,0,0
0,40,112,30
0,40,109,0
0,40,94,0
0,52,118,0
0,59,97,0
0,60,111,0
0,60,112,0
0,67,111,0
0,67,112,0
0,67,115,0
0,40,0,4
0,59,0,0
0,60,0,107
0,60,0,0
0,67,0,0
0,67,0,0
0,67,0,0
0,40,0,32
0,52,0,0
0,40,0,48
0,38,117,1
0,38,114,0
0,40,90,0
0,50,123,0
0,59,93,0
0,60,116,0
0,60,117,0
0,67,116,0
0,67,120,0
0,69,117,0
0,69,120,0
0,40,0,4
0,59,0,0
0,50,0,43
0,38,0,19
0,60,0,11
0,60,0,0
0,67,0,0
0,67,0,0
0,69,0,0
0,69,0,0
0,38,0,66
0,38,115,49
0,38,112,0
0,40,94,0
0,50,121,0
0,59,97,0
0,60,114,0
0,60,103,0
0,67,114,0
0,67,115,0
0,67,105,0
0,69,103,0
0,40,0,4
0,59,0,0
0,60,0,89
0,67,0,0
0,38,0,2
0,50,0,0
0,67,0,11
0,60,0,35
0,67,0,0
0,69,0,0
0,38,0,2
0,38,111,1
0,38,108,0
0,40,78,0
0,50,117,0
0,59,81,0
0,60,110,0
0,60,107,0
0,67,110,0
0,67,111,0
0,67,103,0
0,69,101,0
0,40,0,4
0,59,0,0
0,60,0,29
0,67,0,0
0,67,0,0
0,69,0,7
0,60,0,2
0,67,0,3
0,38,0,2
0,38,0,0
0,50,0,0
0,38,114,1
0,38,111,0
0,40,89,0
0,50,120,0
0,59,92,0
0,60,113,0
0,60,114,0
0,67,113,0
0,67,114,0
0,67,114,0
0,69,104,0
0,40,0,4
0,59,0,0
0,67,0,29
0,60,0,5
0,60,0,0
0,67,0,0
0,67,0,0
0,69,0,0
0,38,0,30
0,38,0,0
0,50,0,0
0,38,113,28
0,38,110,0
0,40,90,0
0,50,119,0
0,59,93,0
0,60,112,0
0,60,113,0
0,67,112,0
0,67,113,0
0,67,116,0
0,69,108,0
0,40,0,4
0,59,0,0
0,60,0,73
0,60,0,0
0,67,0,0
0,67,0,0
0,67,0,0
0,69,0,0
0,38,0,18
0,50,0,0
0,38,0,48
0,38,114,1
0,38,111,0
0,40,89,0
0,50,120,0
0,59,92,0
0,60,113,0
0,60,114,0
0,67,113,0
0,67,114,0
0,67,117,0
0,69,106,0
0,40,0,4
0,59,0,0
0,60,0,29
0,60,0,0
0,67,0,0
0,67,0,0
0,67,0,0
0,69,0,0
0,38,0,14
0,38,0,0
0,50,0,0
0,38,113,1
0,38,110,0
0,40,85,0
0,50,119,0
0,59,88,0
0,60,112,0
0,60,113,0
0,67,112,0
0,67,113,0
0,67,116,0
0,69,105,0
0,40,0,4
0,59,0,0
0,60,0,34
0,60,0,0
0,67,0,0
0,67,0,0
0,67,0,0
0,69,0,0
0,38,0,42
0,38,0,0
0,50,0,0
0,35,97,16
0,40,97,0
0,42,56,0
0,43,115,0
0,43,112,0
0,55,121,0
0,57,60,0
0,59,73,0
0,59,114,0
0,59,118,0
0,62,75,0
0,62,71,0
0,62,119,0
0,67,73,0
0,67,71,0
0,67,114,0
0,67,115,0
0,67,120,0
0,71,71,0
0,35,0,4
0,40,0,0
0,42,0,0
0,57,0,0
0,62,0,37
0,59,0,1
0,67,0,7
0,43,0,14
0,55,0,0
0,59,0,0
0,67,0,0
0,67,0,0
0,62,0,10
0,59,0,1
0,67,0,2
0,42,74,20
0,42,0,4
0,43,0,11
0,62,0,13
0,67,0,0
0,71,0,4
0,40,57,16
0,43,104,0
0,62,62,0
0,67,75,0
0,71,60,0
0,40,0,4
0,62,0,39
0,67,0,0
0,43,0,4
0,40,104,1
0,43,104,0
0,46,64,0
0,59,74,0
0,62,78,0
0,67,79,0
0,71,0,1
0,40,0,3
0,46,0,0
0,40,57,92
0,42,61,0
0,59,0,0
0,62,0,0
0,62,65,0
0,67,0,0
0,67,73,0
0,71,60,0
0,40,0,4
0,42,0,0
0,67,0,33
0,71,0,1
0,62,0,1
0,43,0,8
0,43,70,1
0,59,57,0
0,62,56,0
0,67,53,0
0,43,0,47
0,35,97,1
0,42,51,0
0,43,105,0
0,35,0,4
0,42,0,0
0,43,0,43
0,43,87,1
0,62,65,0
0,67,73,0
0,71,59,0
0,67,0,26
0,59,0,6
0,62,0,0
0,67,0,0
0,71,0,1
0,62,0,2
0,43,0,12
0,42,74,1
0,43,111,0
0,59,76,0
0,62,76,0
0,67,78,0
0,42,0,4
0,59,0,55
0,62,0,0
0,67,0,0
0,43,0,36
0,38,107,1
0,40,94,0
0,46,64,0
0,62,60,0
0,67,71,0
0,71,55,0
0,40,0,4
0,46,0,0
0,67,0,28
0,71,0,0
0,62,0,1
0,38,0,55
0,42,100,8
0,42,60,0
0,42,0,4
0,40,47,44
0,40,0,4
0,42,0,32
0,35,97,12
0,40,59,0
0,42,56,0
0,43,115,0
0,62,71,0
0,67,87,0
0,71,63,0
0,35,0,4
0,40,0,0
0,42,0,0
0,40,59,44
0,40,0,4
0,40,47,44
0,42,74,0
0,40,0,4
0,42,0,0
0,62,0,2
0,67,0,5
0,71,0,6
0,62,60,31
0,67,69,0
0,71,56,0
0,43,0,15
0,67,0,21
0,71,0,0
0,62,0,8
0,38,109,4
0,40,104,0
0,46,64,0
0,50,125,0
0,59,77,0
0,62,78,0
0,62,125,0
0,67,78,0
0,40,0,4
0,46,0,0
0,42,61,92
0,62,65,0
0,67,71,0
0,71,60,0
0,42,0,4
0,67,0,19
0,59,0,9
0,62,0,0
0,67,0,0
0,62,0,7
0,71,0,0
0,59,51,9
0,62,51,0
0,67,51,0
0,38,0,15
0,50,0,32
0,62,0,0
0,35,97,1
0,42,51,0
0,43,95,0
0,55,124,0
0,67,124,0
0,35,0,4
0,42,0,0
0,43,0,43
0,43,78,1
0,59,0,0
0,62,0,0
0,62,66,0
0,67,0,0
0,67,73,0
0,71,60,0
0,67,0,32
0,71,0,2
0,62,0,6
0,43,0,7
0,43,111,1
0,46,64,0
0,59,75,0
0,62,75,0
0,67,76,0
0,46,0,4
0,59,0,55
0,62,0,0
0,67,0,0
0,43,0,36
0,55,0,0
0,67,0,0
0,38,107,1
0,40,103,0
0,42,74,0
0,57,122,0
0,62,65,0
0,67,75,0
0,69,122,0
0,71,62,0
0,40,0,4
0,42,0,0
0,67,0,23
0,62,0,6
0,71,0,0
0,40,89,15
0,40,0,4
0,38,0,36
0,42,100,8
0,42,60,0
0,47,76,0
0,42,0,4
0,47,0,0
0,57,0,67
0,69,0,0
0,42,0,13
0,35,97,12
0,43,115,0
0,55,69,0
0,57,121,0
0,62,71,0
0,67,71,0
0,69,121,0
0,71,71,0
0,35,0,4
0,55,0,0
0,42,74,92
0,42,0,4
0,62,0,24
0,67,0,0
0,71,0,4
0,62,62,16
0,67,75,0
0,71,60,0
0,43,0,15
0,62,0,28
0,67,0,0
0,38,109,5
0,40,104,0
0,46,64,0
0,59,74,0
0,62,78,0
0,67,79,0
0,71,0,1
0,40,0,3
0,46,0,0
0,42,61,92
0,59,0,0
0,62,0,0
0,62,65,0
0,67,0,0
0,67,73,0
0,71,60,0
0,42,0,4
0,67,0,33
0,71,0,1
0,62,0,1
0,59,57,9
0,62,56,0
0,67,53,0
0,38,0,15
0,57,0,1
0,69,0,0
0,35,97,1
0,42,51,0
0,43,96,0
0,59,116,0
0,71,116,0
0,35,0,4
0,42,0,0
0,43,0,5
0,43,85,1
0,62,65,0
0,67,73,0
0,71,59,0
0,67,0,21
0,59,0,6
0,62,0,0
0,67,0,0
0,71,0,1
0,62,0,2
0,43,0,12
0,42,74,1
0,43,96,0
0,59,76,0
0,62,76,0
0,67,78,0
0,42,0,4
0,59,0,55
0,62,0,0
0,67,0,0
0,43,0,36
0,38,107,1
0,40,103,0
0,46,64,0
0,62,60,0
0,67,71,0
0,71,55,0
0,40,0,4
0,46,0,0
0,67,0,28
0,71,0,0
0,62,0,1
0,38,0,55
0,42,100,8
0,42,60,0
0,59,121,0
0,62,120,0
0,42,0,4
0,62,0,31
0,59,0,1
0,59,121,12
0,62,120,0
0,59,0,23
0,62,0,3
0,42,0,10
0,35,97,12
0,42,56,0
0,43,115,0
0,59,122,0
0,62,71,0
0,62,122,0
0,67,87,0
0,71,63,0
0,35,0,4
0,42,0,0
0,59,0,38
0,62,0,4
0,42,74,50
0,42,0,4
0,62,0,2
0,67,0,5
0,71,0,6
0,62,60,31
0,67,69,0
0,71,56,0
0,43,0,15
0,59,0,6
0,71,0,0
0,67,0,15
0,71,0,0
0,62,0,8
0,38,109,4
0,40,104,0
0,46,64,0
0,50,117,0
0,59,77,0
0,62,78,0
0,62,117,0
0,67,78,0
0,40,0,4
0,46,0,0
0,42,61,92
0,62,65,0
0,67,71,0
0,71,60,0
0,42,0,4
0,67,0,19
0,59,0,9
0,62,0,0
0,67,0,0
0,62,0,7
0,71,0,0
0,59,51,9
0,62,51,0
0,67,51,0
0,38,0,15
0,50,0,32
0,62,0,0
0,35,97,1
0,42,51,0
0,43,99,0
0,55,125,0
0,67,125,0
0,35,0,4
0,42,0,0
0,43,0,43
0,55,0,0
0,67,0,0
0,43,76,1
0,59,0,0
0,62,0,0
0,62,66,0
0,67,0,0
0,67,73,0
0,71,60,0
0,67,0,32
0,71,0,2
0,62,0,6
0,43,0,7
0,42,74,1
0,43,111,0
0,57,122,0
0,59,75,0
0,62,75,0
0,67,76,0
0,69,122,0
0,42,0,4
0,59,0,55
0,62,0,0
0,67,0,0
0,43,0,36
0,38,107,1
0,40,103,0
0,46,64,0
0,62,65,0
0,67,75,0
0,71,62,0
0,40,0,4
0,46,0,0
0,67,0,23
0,62,0,6
0,71,0,0
0,57,0,4
0,69,0,0
0,38,0,51
0,42,100,8
0,42,60,0
0,58,101,0
0,70,106,0
0,42,0,4
0,42,0,80
0,35,97,12
0,42,56,0
0,43,115,0
0,62,71,0
0,67,71,0
0,70,71,0
0,35,0,4
0,42,0,0
0,42,74,92
0,42,0,4
0,62,0,24
0,67,0,0
0,70,0,4
0,62,62,16
0,67,75,0
0,70,60,0
0,43,0,15
0,62,0,28
0,67,0,0
0,38,109,5
0,40,104,0
0,46,64,0
0,62,79,0
0,65,77,0
0,67,76,0
0,70,80,0
0,70,0,1
0,40,0,3
0,46,0,0
0,42,61,92
0,58,117,0
0,62,0,0
0,62,65,0
0,62,115,0
0,65,0,0
0,67,73,0
0,70,60,0
0,42,0,4
0,58,0,27
0,67,0,6
0,62,0,1
0,70,0,0
0,62,0,1
0,67,0,5
0,58,119,4
0,62,55,0
0,62,117,0
0,65,62,0
0,38,0,15
0,62,0,19
0,58,0,3
0,35,97,11
0,42,51,0
0,43,105,0
0,58,124,0
0,62,124,0
0,35,0,4
0,42,0,0
0,70,0,16
0,62,0,21
0,58,0,3
0,43,0,3
0,43,87,1
0,62,0,0
0,62,65,0
0,65,0,0
0,67,73,0
0,70,59,0
0,67,0,26
0,70,0,7
0,62,0,2
0,43,0,12
0,42,74,1
0,43,111,0
0,62,77,0
0,65,75,0
0,67,74,0
0,70,79,0
0,42,0,4
0,67,0,53
0,65,0,1
0,62,0,10
0,70,0,0
0,43,0,27
0,40,103,1
0,46,64,0
0,50,107,0
0,58,115,0
0,62,60,0
0,62,115,0
0,67,71,0
0,70,55,0
0,40,0,4
0,46,0,0
0,67,0,28
0,70,0,0
0,62,0,1
0,62,0,52
0,58,0,1
0,50,0,2
0,42,60,8
0,49,100,0
0,58,95,0
0,60,99,0
0,64,99,0
0,42,0,4
0,49,0,80
0,35,97,12
0,42,56,0
0,48,115,0
0,64,71,0
0,68,87,0
0,73,63,0
0,35,0,4
0,42,0,0
0,58,0,53
0,70,0,0
0,48,0,38
0,42,74,1
0,43,115,0
0,42,0,4
0,64,0,2
0,68,0,5
0,73,0,6
0,64,60,31
0,68,69,0
0,73,56,0
0,68,0,36
0,73,0,0
0,64,0,8
0,43,0,3
0,36,109,1
0,40,104,0
0,46,64,0
0,48,125,0
0,60,125,0
0,64,78,0
0,67,77,0
0,70,79,0
0,73,75,0
0,40,0,4
0,46,0,0
0,42,61,92
0,64,0,0
0,64,65,0
0,67,0,0
0,68,71,0
0,73,60,0
0,42,0,4
0,68,0,19
0,64,0,16
0,73,0,0
0,36,0,8
0,43,111,1
0,64,61,0
0,67,57,0
0,43,0,47
0,48,0,0
0,60,0,0
0,35,97,1
0,42,51,0
0,48,107,0
0,53,124,0
0,65,124,0
0,35,0,4
0,42,0,0
0,73,0,3
0,70,0,2
0,64,66,39
0,68,73,0
0,73,60,0
0,68,0,32
0,73,0,2
0,48,0,6
0,64,0,0
0,64,0,4
0,67,0,0
0,42,74,4
0,43,100,0
0,63,77,0
0,66,76,0
0,70,79,0
0,73,76,0
0,42,0,4
0,43,0,80
0,70,0,2
0,53,0,9
0,65,0,0
0,73,0,0
0,36,109,1
0,40,103,0
0,46,64,0
0,55,122,0
0,64,65,0
0,67,122,0
0,68,75,0
0,73,62,0
0,63,0,3
0,66,0,0
0,40,0,1
0,46,0,0
0,68,0,23
0,64,0,6
0,73,0,0
0,42,60,63
0,42,0,4
0,55,0,67
0,67,0,0
0,36,0,3
0,58,0,21
0,60,0,0
0,64,0,0
0,35,97,1
0,41,115,0
0,42,56,0
0,55,121,0
0,57,92,0
0,60,94,0
0,64,92,0
0,65,71,0
0,67,121,0
0,69,71,0
0,72,71,0
0,35,0,4
0,42,0,0
0,42,74,92
0,42,0,4
0,65,0,24
0,69,0,0
0,72,0,4
0,65,62,16
0,69,75,0
0,72,60,0
0,41,0,15
0,65,0,28
0,69,0,0
0,40,104,5
0,41,115,0
0,46,64,0
0,65,77,0
0,69,76,0
0,72,74,0
0,72,0,1
0,40,0,3
0,46,0,0
0,42,61,92
0,65,0,0
0,65,65,0
0,69,0,0
0,69,73,0
0,72,60,0
0,42,0,4
0,69,0,33
0,72,0,1
0,65,0,1
0,65,52,9
0,69,52,0
0,41,0,15
0,72,0,13
0,55,0,1
0,67,0,0
0,35,97,1
0,41,115,0
0,42,51,0
0,57,116,0
0,69,116,0
0,35,0,4
0,42,0,0
0,65,65,6
0,69,73,0
0,72,59,0
0,69,0,21
0,41,0,6
0,69,0,0
0,72,0,1
0,65,0,2
0,65,0,10
0,41,106,3
0,42,74,0
0,65,79,0
0,69,79,0
0,72,79,0
0,42,0,4
0,65,0,23
0,69,0,1
0,72,0,24
0,41,0,28
0,36,115,16
0,40,103,0
0,46,64,0
0,65,60,0
0,69,71,0
0,72,55,0
0,40,0,4
0,46,0,0
0,57,0,12
0,60,0,0
0,64,0,0
0,69,0,16
0,72,0,0
0,65,0,1
0,36,0,47
0,40,106,16
0,42,60,0
0,57,112,0
0,60,114,0
0,64,113,0
0,42,0,4
0,57,0,22
0,60,0,0
