track,note,velocity,time
0,28,127,276
0,40,106,0
0,40,0,309
0,35,76,27
0,40,86,120
0,35,0,17
0,40,0,172
0,32,36,27
0,32,0,93
0,35,50,3
0,35,0,45
0,38,58,3
0,38,0,45
0,41,65,3
0,41,0,21
0,44,57,3
0,44,0,21
0,47,61,3
0,47,0,21
0,50,64,3
0,50,0,21
0,53,67,3
0,53,0,21
0,56,70,3
0,56,0,21
0,59,73,3
0,59,0,21
0,62,77,3
0,62,0,21
0,65,80,3
0,65,0,21
0,68,83,3
0,68,0,21
0,71,86,3
0,71,0,21
0,74,89,3
0,74,0,21
0,77,93,3
0,77,0,21
0,80,96,3
0,80,0,21
0,83,99,3
0,83,0,21
0,86,105,27
0,86,0,45
0,89,114,19
0,89,0,45
0,92,98,19
0,92,0,53
0,95,102,3
0,95,0,69
0,98,106,3
0,98,0,125
0,101,109,3
0,101,0,157
0,98,56,3
0,98,0,77
0,95,48,3
0,95,0,45
0,92,37,3
0,89,42,32
0,92,0,13
0,86,46,19
0,89,0,13
0,83,50,19
0,86,0,13
0,80,54,19
0,83,0,13
0,77,59,19
0,80,0,13
0,74,63,19
0,77,0,13
0,71,67,19
0,74,0,13
0,68,72,19
0,71,0,17
0,65,78,15
0,68,0,29
0,65,0,16
0,62,85,3
0,62,0,45
0,59,89,3
0,56,93,48
0,59,0,1
0,56,0,60
0,53,104,11
0,28,0,101
0,64,82,228
0,64,0,28
0,69,104,16
0,53,0,8
0,33,64,3
0,33,112,0
0,45,64,0
0,49,27,0
0,52,25,0
0,52,55,0
0,57,56,0
0,57,25,0
0,57,55,0
0,60,64,0
0,61,71,0
0,64,64,0
0,64,25,0
0,64,55,0
0,55,52,5
0,61,64,0
0,49,48,20
0,61,58,0
0,55,44,20
0,61,51,0
0,69,0,7
0,49,39,13
0,61,44,0
0,55,35,20
0,61,37,0
0,69,89,1
0,49,31,20
0,61,39,0
0,61,39,0
0,55,26,2
0,61,34,0
0,61,34,0
0,69,0,3
0,49,22,3
0,61,28,0
0,72,96,1
0,69,89,2
0,55,18,3
0,61,24,0
0,69,0,10
0,49,13,2
0,61,28,0
0,72,0,13
0,69,85,2
0,55,13,5
0,61,33,0
0,69,96,6
0,49,12,14
0,61,37,0
0,69,0,7
0,69,0,3
0,67,75,6
0,55,11,4
0,61,42,0
0,67,0,16
0,49,11,4
0,61,42,0
0,69,104,1
0,64,71,6
0,55,10,3
0,61,42,0
0,64,0,18
0,49,10,2
0,60,80,12
0,55,10,8
0,49,10,20
0,55,10,20
0,49,10,20
0,55,10,20
0,69,0,1
0,60,0,8
0,49,10,11
0,55,10,20
0,49,13,20
0,71,104,2
0,55,16,14
0,49,19,20
0,71,0,17
0,55,22,3
0,72,96,3
0,49,25,20
0,55,28,3
0,72,0,2
0,64,0,8
0,49,31,4
0,57,0,2
0,57,0,0
0,57,0,2
0,60,0,1
0,71,104,1
0,55,33,3
0,45,0,2
0,52,0,1
0,52,0,0
0,33,0,6
0,38,64,6
0,38,95,0
0,49,42,0
0,50,25,0
0,50,55,0
0,53,56,0
0,57,49,0
0,57,25,0
0,57,55,0
0,62,56,0
0,65,25,0
0,65,55,0
0,64,0,3
0,64,0,0
0,33,0,12
0,55,39,1
0,49,36,9
0,71,0,17
0,55,33,3
0,69,82,3
0,49,30,17
0,69,0,18
0,55,27,2
0,49,24,20
0,55,21,5
0,60,75,2
0,49,21,12
0,60,0,6
0,55,21,8
0,49,21,20
0,55,21,20
0,49,21,1
0,64,90,1
0,55,21,19
0,49,20,14
0,55,20,12
0,49,20,5
0,55,20,0
0,49,20,6
0,55,19,6
0,64,0,3
0,62,71,9
0,49,19,8
0,69,76,13
0,55,19,7
0,62,0,2
0,60,56,1
0,49,19,11
0,69,0,9
0,55,19,11
0,38,0,1
0,38,59,14
0,49,18,0
0,69,82,1
0,55,22,19
0,49,26,20
0,69,0,1
0,69,82,15
0,55,30,5
0,49,34,20
0,60,0,1
0,69,0,1
0,55,38,1
0,49,43,1
0,38,0,3
0,53,0,1
0,69,104,10
0,62,0,2
0,55,47,4
0,57,0,4
0,38,0,7
0,50,0,3
0,50,0,0
0,57,0,0
0,57,0,0
0,65,0,0
0,65,0,0
0,31,56,3
0,31,90,0
0,43,64,0
0,43,26,0
0,43,56,0
0,49,27,0
0,55,56,0
0,55,26,0
0,55,56,0
0,59,64,0
0,62,64,0
0,62,26,0
0,62,56,0
0,55,52,20
0,49,48,20
0,55,44,20
0,69,0,1
0,67,76,6
0,49,39,14
0,55,35,20
0,67,0,1
0,49,31,20
0,67,76,9
0,55,26,11
0,67,0,2
0,49,22,2
0,64,63,1
0,55,18,4
0,67,82,8
0,49,13,11
0,55,13,4
0,67,0,2
0,64,0,12
0,67,71,4
0,49,12,2
0,55,11,3
0,69,89,3
0,67,0,3
0,49,11,4
0,55,10,10
0,67,85,2
0,49,10,18
0,55,10,20
0,67,0,4
0,64,36,19
0,49,10,1
0,69,0,6
0,64,0,13
0,55,10,1
0,67,75,10
0,49,10,10
0,55,10,20
0,67,0,3
0,49,10,20
0,69,63,9
0,55,10,11
0,67,76,1
0,49,13,20
0,67,0,5
0,55,16,7
0,69,0,6
0,49,19,14
0,67,76,11
0,55,22,9
0,49,25,8
0,55,28,20
0,67,0,2
0,55,0,1
0,55,0,0
0,49,31,8
0,65,82,5
0,55,0,4
0,55,33,2
0,62,0,1
0,69,59,0
0,43,0,7
0,43,0,0
0,59,0,2
0,43,0,2
0,31,0,6
0,31,0,0
0,36,56,1
0,36,100,0
0,49,46,0
0,55,42,0
0,59,26,0
0,59,56,0
0,60,56,0
0,60,26,0
0,60,56,0
0,64,56,0
0,64,26,0
0,64,56,0
0,62,0,3
0,62,0,0
0,55,44,3
0,65,0,2
0,69,0,3
0,49,43,8
0,71,49,4
0,64,70,7
0,55,41,13
0,49,39,20
0,64,0,3
0,71,0,2
0,67,56,1
0,55,37,17
0,49,35,20
0,67,0,4
0,69,56,6
0,55,33,14
0,49,32,17
0,64,75,15
0,69,0,0
0,55,30,5
0,49,28,20
0,64,0,14
0,55,26,6
0,67,71,8
0,49,24,12
0,55,22,20
0,67,0,10
0,62,49,7
0,49,21,3
0,55,19,6
0,49,18,20
0,62,0,12
0,55,19,8
0,64,49,0
0,49,20,20
0,55,21,20
0,64,0,16
0,49,21,4
0,55,22,20
0,64,104,2
0,60,33,17
0,49,23,1
0,55,24,20
0,64,0,2
0,60,0,16
0,49,24,4
0,55,25,20
0,64,104,4
0,49,26,20
0,64,0,5
0,55,27,15
0,64,104,0
0,49,28,5
0,55,28,5
0,64,0,1
0,49,29,12
0,64,0,2
0,55,0,1
0,60,0,6
0,55,30,1
0,65,104,2
0,36,0,7
0,59,0,2
0,59,0,0
0,60,0,0
0,60,0,0
0,64,0,0
0,64,0,0
0,29,56,1
0,29,100,0
0,41,56,0
0,49,40,0
0,53,56,0
0,53,27,0
0,53,57,0
0,57,56,0
0,57,27,0
0,57,57,0
0,60,25,0
0,60,27,0
0,60,57,0
0,64,27,0
0,64,57,0
0,60,0,1
0,60,0,0
0,64,0,0
0,64,0,0
0,36,0,2
0,55,39,18
0,49,38,17
0,55,36,18
0,49,35,20
0,65,0,1
0,64,82,1
0,55,34,18
0,64,0,11
0,49,33,9
0,55,31,20
0,64,104,2
0,49,30,18
0,64,0,14
0,55,29,6
0,72,63,1
0,64,82,18
0,49,28,1
0,72,0,16
0,55,26,4
0,64,0,5
0,49,25,15
0,64,104,12
0,55,24,8
0,76,85,3
0,49,23,20
0,55,21,20
0,76,0,3
0,49,20,20
0,79,85,9
0,55,19,11
0,64,0,3
0,79,0,16
0,49,18,4
0,55,16,20
0,49,15,5
0,81,90,4
0,64,76,8
0,55,16,0
0,49,17,2
0,64,0,3
0,55,17,1
0,81,0,1
0,49,18,12
0,64,76,4
0,55,19,6
0,81,90,3
0,49,19,4
0,64,0,2
0,55,20,13
0,64,76,0
0,49,21,7
0,55,22,15
0,57,0,5
0,57,0,0
0,64,0,6
0,49,22,7
0,53,0,1
0,60,0,12
0,55,23,2
0,41,0,1
0,64,104,3
0,29,0,3
0,35,56,4
0,35,117,0
0,49,28,0
0,53,42,0
0,59,56,0
0,59,28,0
0,59,58,0
0,62,49,0
0,62,28,0
0,62,58,0
0,65,28,0
0,65,58,0
0,29,0,2
0,55,27,8
0,49,26,16
0,55,26,15
0,81,0,2
0,64,0,13
0,49,25,7
0,62,82,5
0,79,80,11
0,55,25,4
0,49,24,20
0,62,0,1
0,79,0,9
0,55,24,10
0,62,70,4
0,49,23,16
0,55,23,13
0,62,0,8
0,49,22,2
0,64,96,1
0,81,90,5
0,55,22,11
0,64,0,5
0,49,21,6
0,64,70,15
0,55,20,4
0,49,20,20
0,81,0,14
0,55,19,6
0,49,21,5
0,79,75,1
0,55,22,20
0,64,0,1
0,49,23,7
0,55,23,20
0,49,24,20
0,55,24,20
0,49,25,20
0,55,25,20
0,64,82,7
0,49,26,13
0,55,27,20
0,64,0,3
0,65,76,4
0,62,0,4
0,62,0,0
0,53,0,1
0,53,0,0
0,35,0,2
0,79,0,4
0,59,0,4
0,59,0,0
0,49,27,1
0,65,0,12
0,55,28,0
0,62,76,1
0,49,28,9
0,53,0,5
0,62,0,4
0,55,29,0
0,64,89,1
0,49,30,9
0,59,0,8
0,62,0,2
0,57,0,1
0,55,30,2
0,65,0,4
0,65,0,0
0,26,85,2
0,28,42,0
0,28,77,0
0,40,36,0
0,49,34,0
0,52,42,0
0,57,56,0
0,57,28,0
0,57,58,0
0,59,56,0
0,59,28,0
0,59,58,0
0,64,28,0
0,64,58,0
0,35,0,2
0,55,33,20
0,49,32,17
0,26,0,13
0,64,0,2
0,55,32,5
0,49,31,20
0,55,30,20
0,49,29,20
0,55,28,20
0,49,28,20
0,55,27,5
0,49,26,13
0,64,80,9
0,55,25,1
0,49,24,20
0,64,0,15
0,55,24,1
0,62,59,3
0,49,23,0
0,55,22,20
0,62,0,7
0,60,49,8
0,49,21,5
0,55,21,20
0,60,0,6
0,57,67,3
0,49,20,11
0,55,19,20
0,49,18,20
0,55,18,19
0,49,19,20
0,64,96,3
0,55,21,3
0,28,0,9
0,35,112,3
0,49,22,0
0,64,0,14
0,57,0,1
0,55,23,3
0,49,24,13
0,64,82,11
0,55,25,9
0,49,26,20
0,64,0,0
0,55,27,7
0,64,76,4
0,49,28,0
0,28,0,1
0,40,0,0
0,52,0,1
0,57,0,4
0,59,0,1
0,64,124,1
0,57,0,1
0,57,0,0
0,55,30,0
0,64,0,2
0,28,64,15
0,40,64,0
0,40,100,0
0,49,31,0
0,52,36,0
0,56,64,0
0,56,29,0
0,56,59,0
0,59,64,0
0,71,71,0
0,83,56,0
0,35,0,4
0,64,0,1
0,68,104,1
0,55,40,2
0,67,96,18
0,49,39,2
0,55,38,20
0,67,0,1
0,49,37,11
0,68,0,12
0,55,36,8
0,67,90,13
0,49,35,7
0,68,104,3
0,55,34,17
0,67,0,17
0,49,32,3
0,68,0,1
0,55,31,19
0,68,104,10
0,64,84,1
0,49,30,9
0,64,0,17
0,55,29,3
0,62,79,1
0,68,0,14
0,49,28,5
0,69,104,1
0,62,0,16
0,55,27,3
0,60,72,4
0,69,0,17
0,49,26,3
0,60,0,3
0,55,25,17
0,62,66,0
0,71,104,3
0,49,24,20
0,62,0,8
0,60,60,9
0,55,23,3
0,49,22,20
0,60,0,4
0,57,54,10
0,55,21,10
0,57,0,18
0,49,19,2
0,55,47,11
0,71,0,5
0,55,18,1
0,69,104,9
0,55,0,2
0,49,17,9
0,57,40,10
0,55,21,10
0,69,0,10
0,49,28,10
0,57,0,7
0,55,32,9
0,55,35,4
0,69,104,8
0,49,41,12
0,55,0,3
0,40,0,7
0,52,25,10
0,55,48,0
0,49,54,20
0,52,0,4
0,69,0,5
0,55,61,15
0,56,0,4
0,56,0,0
0,67,104,1
0,49,67,19
0,59,0,1
0,59,0,0
0,28,0,1
0,64,0,5
0,64,0,0
0,40,0,2
0,56,0,1
0,52,0,3
0,59,0,1
0,55,74,6
0,33,109,3
0,35,124,0
0,42,51,0
0,45,71,0
0,45,61,0
0,64,52,0
0,72,109,0
0,67,0,2
0,84,102,2
0,71,0,4
0,83,0,3
0,72,0,12
0,84,0,0
0,69,104,1
0,45,0,8
0,42,51,8
0,33,0,1
0,45,0,1
0,33,102,37
0,45,71,0
0,45,70,0
0,46,79,0
0,61,33,0
0,69,76,0
0,72,70,0
0,76,75,0
0,76,0,21
0,72,0,4
0,69,0,5
0,69,0,2
0,45,0,13
0,44,114,15
0,33,0,5
0,45,0,13
0,35,124,10
0,38,112,0
0,42,51,0
0,33,109,44
0,42,51,0
0,45,59,0
0,45,53,0
0,64,42,0
0,69,70,0
0,72,80,0
0,76,85,0
0,76,0,24
0,69,0,4
0,72,0,2
0,45,0,10
0,46,73,4
0,45,0,6
0,33,0,35
0,64,39,3
0,69,42,0
0,72,62,0
0,76,32,0
0,44,106,12
0,69,0,25
0,72,0,0
0,76,0,0
0,33,101,3
0,35,124,0
0,42,51,0
0,45,67,0
0,45,53,0
0,64,33,0
0,69,74,0
0,72,94,0
0,76,94,0
0,69,0,11
0,72,0,0
0,76,0,0
0,42,51,33
0,33,0,13
0,33,109,31
0,46,76,0
0,61,56,0
0,69,89,0
0,69,0,38
0,69,32,6
0,72,42,0
0,76,52,0
0,44,110,16
0,45,0,24
0,69,0,1
0,72,0,0
0,76,0,0
0,45,0,1
0,33,0,1
0,35,124,1
0,36,102,0
0,38,112,0
0,42,51,0
0,48,71,0
0,48,70,0
0,69,76,0
0,72,70,0
0,76,96,0
0,69,96,1
0,76,0,15
0,69,0,9
0,72,0,2
0,42,51,18
0,69,60,0
0,72,70,0
0,76,90,0
0,69,0,14
0,69,0,3
0,72,0,0
0,76,0,0
0,36,0,20
0,48,0,1
0,46,81,6
0,48,0,0
0,49,67,0
0,49,57,0
0,69,89,3
0,69,0,33
0,69,104,12
0,44,102,15
0,49,0,11
0,35,124,4
0,38,102,0
0,42,51,0
0,50,67,0
0,50,53,0
0,64,63,0
0,49,0,6
0,50,0,31
0,38,0,2
0,50,0,4
0,42,51,1
0,69,0,13
0,38,96,3
0,46,79,0
0,50,63,0
0,50,61,0
0,61,63,0
0,65,76,0
0,69,70,0
0,74,75,0
0,74,0,21
0,69,0,4
0,65,0,5
0,50,0,15
0,50,0,12
0,44,114,3
0,35,124,28
0,38,108,0
0,42,51,0
0,38,0,1
0,38,102,44
0,42,51,0
0,50,67,0
0,50,35,0
0,64,39,0
0,65,70,0
0,69,80,0
0,74,85,0
0,74,0,24
0,65,0,4
0,69,0,2
0,50,0,6
0,46,73,8
0,50,0,19
0,64,39,25
0,65,42,0
0,69,62,0
0,74,32,0
0,44,106,12
0,38,0,1
0,65,0,25
0,69,0,0
0,74,0,0
0,35,124,3
0,38,101,0
0,42,51,0
0,50,71,0
0,50,46,0
0,64,39,0
0,65,74,0
0,69,94,0
0,74,94,0
0,65,0,11
0,69,0,0
0,74,0,0
0,38,0,26
0,42,51,7
0,69,104,1
0,38,102,9
0,46,76,0
0,48,59,0
0,48,61,0
0,61,52,0
0,50,0,5
0,50,0,4
0,65,32,29
0,69,42,0
0,74,52,0
0,69,0,2
0,44,110,4
0,38,0,21
0,65,0,4
0,69,0,0
0,74,0,0
0,35,124,3
0,38,112,0
0,41,90,0
0,42,51,0
0,47,63,0
0,47,46,0
0,65,76,0
0,69,70,0
0,74,96,0
0,69,104,1
0,48,0,7
0,48,0,3
0,74,0,5
0,65,0,9
0,69,0,2
0,42,51,18
0,65,60,0
0,69,70,0
0,74,90,0
0,69,0,4
0,65,0,17
0,69,0,0
0,74,0,0
0,41,0,13
0,47,0,2
0,47,0,0
0,69,96,6
0,42,85,6
0,45,49,0
0,45,49,0
0,46,81,0
0,69,0,27
0,69,82,18
0,44,102,15
0,45,0,7
0,45,0,6
0,42,0,10
0,35,124,5
0,42,51,0
0,43,52,0
