track,note,velocity,time
1,28,94,1136
1,40,99,0
1,47,117,4
1,52,99,4
1,35,87,60
1,28,92,52
1,40,105,0
1,44,88,20
1,47,86,132
1,50,84,84
1,53,83,36
1,56,5,76
1,59,60,52
1,62,52,104
1,65,65,16
1,68,70,8
1,71,72,76
1,74,68,60
1,77,83,16
1,80,84,4
1,83,87,56
1,86,67,80
1,89,64,40
1,92,84,20
1,95,74,56
1,98,76,68
1,101,105,76
1,100,13,8
1,98,74,356
1,95,72,176
1,92,90,124
1,89,84,80
1,86,62,16
1,83,41,104
1,80,48,56
1,77,34,96
1,74,46,84
1,71,60,96
1,68,88,108
1,65,83,104
1,62,62,96
1,59,60,0
1,56,48,76
1,53,90,60
2,33,115,7260
2,26,110,64
2,31,110,64
2,36,115,48
2,29,110,100
2,35,115,20
2,28,110,44
2,28,115,32
2,33,120,28
2,33,114,96
2,33,111,180
2,33,114,188
2,33,115,72
2,35,120,48
2,36,111,56
2,38,109,60
2,26,114,40
2,26,117,176
2,26,114,160
2,26,117,72
2,28,120,48
2,29,111,60
2,31,109,40
2,31,120,56
2,31,104,180
2,31,104,184
2,43,106,20
2,33,89,32
2,35,117,52
2,36,109,48
2,24,109,40
2,24,109,180
2,24,109,148
2,36,111,36
2,26,96,12
2,28,90,0
2,28,114,20
2,29,109,40
2,29,114,36
2,29,114,132
2,29,111,160
2,29,106,28
2,31,114,16
2,33,104,48
2,35,114,52
2,35,120,52
2,35,111,204
2,35,102,164
2,35,83,24
2,38,124,20
2,39,103,56
2,40,111,60
2,28,109,60
2,28,111,196
2,28,106,128
2,35,111,52
2,38,99,52
2,39,107,60
2,40,99,56
2,28,109,76
2,28,106,200
2,28,106,152
2,35,120,64
2,38,104,40
2,40,102,64
2,33,120,96
2,33,114,96
2,33,111,180
2,33,114,188
2,33,115,72
2,35,120,48
2,36,111,56
2,38,109,60
2,26,114,40
2,26,117,176
2,26,114,160
2,26,117,72
2,28,120,48
2,29,111,60
2,31,109,40
2,31,120,56
2,31,104,180
2,31,104,184
2,43,106,20
2,33,89,32
2,35,117,52
2,36,109,48
2,24,109,40
2,24,109,180
2,24,109,148
2,36,111,36
2,26,96,12
2,28,90,0
2,28,114,20
2,29,109,40
2,29,114,36
2,29,114,132
2,29,111,160
2,29,106,28
2,31,114,16
2,33,104,48
2,35,114,52
2,35,120,52
2,35,111,204
2,35,102,164
2,35,83,24
2,38,124,20
2,39,103,56
2,40,111,60
2,28,109,60
2,28,111,196
2,28,106,128
2,35,111,52
2,38,99,52
2,39,107,60
2,40,99,56
2,28,109,76
2,28,106,200
2,28,106,152
2,35,120,64
2,38,104,40
2,40,102,64
2,33,120,96
2,33,114,96
2,33,111,180
2,33,114,188
2,33,115,72
2,35,120,48
2,36,111,56
2,38,109,60
2,26,114,40
2,26,117,176
2,26,114,160
2,26,117,72
2,28,120,48
2,29,111,60
2,31,109,40
2,31,120,56
2,31,104,180
2,31,104,184
2,43,106,20
2,33,89,32
2,35,117,52
2,36,109,48
2,24,109,40
2,24,109,180
2,24,109,148
2,36,111,36
2,26,96,12
2,28,90,0
2,28,114,20
2,29,109,40
2,29,114,36
2,29,114,132
2,29,111,160
2,29,106,28
2,31,114,16
2,33,104,48
2,35,114,52
2,35,120,52
2,35,111,204
2,35,102,164
2,35,83,24
2,38,124,20
2,39,103,56
2,40,111,60
2,28,109,60
2,28,111,196
2,28,106,128
2,35,111,52
2,38,99,52
2,39,107,60
2,40,99,56
2,28,109,76
2,28,106,200
2,28,106,152
2,35,120,64
2,38,104,40
2,40,102,64
2,33,120,96
2,33,114,96
2,33,111,180
2,33,114,188
2,33,115,72
2,35,120,48
2,36,111,56
2,38,109,60
2,26,114,40
2,26,117,176
2,26,114,160
2,26,117,72
2,28,120,48
2,29,111,60
2,31,109,40
2,31,120,56
2,31,104,180
2,31,104,184
2,43,106,20
2,33,89,32
2,35,117,52
2,36,109,48
2,24,109,40
2,24,109,180
2,24,109,148
2,36,111,36
2,26,96,12
2,28,90,0
2,28,114,20
2,29,109,40
2,29,114,36
2,29,114,132
2,29,111,160
2,29,106,28
2,31,114,16
2,33,104,48
2,35,114,52
2,35,120,52
2,35,111,204
2,35,102,164
2,35,83,24
2,38,124,20
2,39,103,56
2,40,111,60
2,28,109,60
2,28,111,196
2,28,106,128
2,35,111,52
2,38,99,52
2,39,107,60
2,40,99,56
2,28,109,76
2,28,106,200
2,28,106,152
2,35,120,64
2,38,104,40
2,40,102,64
2,33,120,96
2,33,114,96
2,33,111,180
2,33,114,188
2,33,115,72
2,35,120,48
2,36,111,56
2,38,109,60
2,26,114,40
2,26,117,176
2,26,114,160
2,26,117,72
2,28,120,48
2,29,111,60
2,31,109,40
2,31,120,56
2,31,104,180
2,31,104,184
2,43,106,20
2,33,89,32
2,35,117,52
2,36,109,48
2,24,109,40
2,24,109,180
2,24,109,148
2,36,111,36
2,26,96,12
2,28,90,0
2,28,114,20
2,29,109,40
2,29,114,36
2,29,114,132
2,29,111,160
2,29,106,28
2,31,114,16
2,33,104,48
2,35,114,52
2,35,120,52
2,35,111,204
2,35,102,164
2,35,83,24
2,38,124,20
2,39,103,56
2,40,111,60
2,28,109,60
2,28,111,196
2,28,106,128
2,35,111,52
2,38,99,52
2,39,107,60
2,40,99,56
2,28,109,76
2,28,106,200
2,28,106,152
2,35,120,64
2,38,104,40
2,40,102,64
2,33,120,96
2,33,114,96
2,33,111,180
2,33,114,188
2,33,115,72
2,35,120,48
2,36,111,56
2,38,109,60
2,26,114,40
2,26,117,176
2,26,114,160
2,26,117,72
2,28,120,48
2,29,111,60
2,31,109,40
2,31,120,56
2,31,104,180
2,31,104,184
2,43,106,20
2,33,89,32
2,35,117,52
2,36,109,48
2,24,109,40
2,24,109,180
2,24,109,148
2,36,111,36
2,26,96,12
2,28,90,0
2,28,114,20
2,29,109,40
2,29,114,36
2,29,114,132
2,29,111,160
2,29,106,28
2,31,114,16
2,33,104,48
2,35,114,52
2,35,120,52
2,35,111,204
2,35,102,164
2,35,83,24
2,38,124,20
2,39,103,56
2,40,111,60
2,28,109,60
2,28,111,196
2,28,106,128
2,35,111,52
2,38,99,52
2,39,107,60
2,40,99,56
2,28,109,76
2,28,106,200
2,28,106,152
2,35,120,64
2,38,104,40
2,40,102,64
2,33,120,96
2,33,114,96
2,33,111,180
2,33,114,188
2,33,115,72
2,35,120,48
2,36,111,56
2,38,109,60
2,26,114,40
2,26,117,176
2,26,114,160
2,26,117,72
2,28,120,48
2,29,111,60
2,31,109,40
2,31,120,56
2,31,104,180
2,31,104,184
2,43,106,20
2,33,89,32
2,35,117,52
2,36,109,48
2,24,109,40
2,24,109,180
2,24,109,148
2,36,111,36
2,26,96,12
2,28,90,0
2,28,114,20
2,29,109,40
2,29,114,36
2,29,114,132
2,29,111,160
2,29,106,28
2,31,114,16
2,33,104,48
2,35,114,52
2,35,120,52
2,35,111,204
2,35,102,164
2,35,83,24
2,38,124,20
2,39,103,56
2,40,111,60
2,28,109,60
2,28,111,196
2,28,106,128
2,35,111,52
2,38,99,52
2,39,107,60
2,40,99,56
2,28,109,76
2,28,106,200
2,28,106,152
2,35,120,64
2,38,104,40
2,40,102,64
2,33,115,96
2,26,110,64
2,31,110,64
2,36,115,48
2,29,110,100
2,35,115,20
2,28,110,44
2,28,115,32
2,33,120,28
2,33,114,96
2,33,111,180
2,33,114,188
2,33,115,72
2,35,120,48
2,36,111,56
2,38,109,60
2,26,114,40
2,26,117,176
2,26,114,160
2,26,117,72
2,28,120,48
2,29,111,60
2,31,109,40
2,31,120,56
2,31,104,180
2,31,104,184
2,43,106,20
2,33,89,32
2,35,117,52
2,36,109,48
2,24,109,40
2,24,109,180
2,24,109,148
2,36,111,36
2,26,96,12
2,28,90,0
2,28,114,20
2,29,109,40
2,29,114,36
2,29,114,132
2,29,111,160
2,29,106,28
2,31,114,16
2,33,104,48
2,35,114,52
2,35,120,52
2,35,111,204
2,35,102,164
2,35,83,24
2,38,124,20
2,39,103,56
2,40,111,60
2,28,109,60
2,28,111,196
2,28,106,128
2,35,111,52
2,38,99,52
2,39,107,60
2,40,99,56
2,28,109,76
2,28,106,200
2,28,106,152
2,35,120,64
2,38,104,40
2,40,102,64
2,33,120,96
2,33,114,96
2,33,111,180
2,33,114,188
2,33,115,72
2,35,120,48
2,36,111,56
2,38,109,60
2,26,114,40
2,26,117,176
2,26,114,160
2,26,117,72
2,28,120,48
2,29,111,60
2,31,109,40
2,31,120,56
2,31,104,180
2,31,104,184
2,43,106,20
2,33,89,32
2,35,117,52
2,36,109,48
2,24,109,40
2,24,109,180
2,24,109,148
2,36,111,36
2,26,96,12
2,28,90,0
2,28,114,20
2,29,109,40
2,29,114,36
2,29,114,132
2,29,111,160
2,29,106,28
2,31,114,16
2,33,104,48
2,35,114,52
2,35,120,52
2,35,111,204
2,35,102,164
2,35,83,24
2,38,124,20
2,39,103,56
2,40,111,60
2,28,109,60
2,28,111,196
2,28,106,128
2,35,111,52
2,38,99,52
2,39,107,60
2,40,99,56
2,28,109,76
2,28,106,200
2,28,106,152
2,35,120,64
2,38,104,40
2,40,102,64
2,33,120,96
2,33,114,96
2,33,111,180
2,33,114,188
3,33,100,143752
3,45,100,0
3,57,110,0
4,69,114,7220
4,69,84,20
4,69,88,44
4,69,71,16
4,69,80,60
4,69,82,0
4,72,111,28
4,71,99,36
4,69,60,44
4,71,74,8
4,69,70,24
4,69,97,32
4,60,40,304
4,69,88,16
4,69,70,40
4,69,89,68
4,67,59,32
4,67,89,56
4,67,83,64
4,60,55,28
4,67,87,20
4,69,62,8
4,67,68,60
4,59,64,8
4,59,66,40
4,67,92,0
4,65,82,56
4,57,81,8
4,65,83,60
4,57,81,8
4,64,62,32
4,55,74,4
4,64,70,56
4,55,81,4
4,60,53,12
4,65,92,60
4,65,104,68
4,65,97,48
4,65,44,24
4,65,65,44
4,64,83,52
4,62,60,64
4,64,70,12
4,62,70,12
4,62,72,48
4,62,84,40
4,62,55,60
4,64,66,4
4,62,55,20
4,64,79,44
4,64,96,36
4,64,99,76
4,64,92,64
4,64,66,44
4,64,87,36
4,64,102,56
4,62,63,68
4,68,103,8
4,62,52,24
4,68,93,84
4,69,96,48
4,69,109,80
4,71,81,32
4,69,84,36
4,69,109,12
4,69,111,44
4,69,90,24
4,67,104,72
4,72,99,0
4,68,43,12
4,69,77,4
4,67,87,28
4,69,99,52
4,65,66,256
4,60,66,4
4,65,50,248
4,60,56,4
4,60,53,204
4,60,54,4
4,69,114,24
4,69,70,88
4,67,99,72
4,69,75,16
4,67,89,28
4,67,87,36
4,67,94,84
4,67,86,64
4,69,75,32
4,67,62,16
4,67,106,56
4,65,99,72
4,64,78,76
4,62,70,4
4,65,73,4
4,64,72,8
4,64,89,72
4,60,64,8
4,65,114,52
4,65,90,40
4,65,99,92
4,65,84,68
4,65,111,96
4,62,89,84
4,64,62,20
4,64,106,56
4,62,73,24
4,62,75,48
4,62,102,108
4,62,97,108
4,64,86,40
4,62,60,16
4,64,94,48
4,64,97,48
4,64,111,96
4,64,92,92
4,64,87,88
4,64,81,88
4,62,77,104
4,68,99,4
4,62,70,28
4,68,107,100
4,62,75,80
4,69,96,0
4,62,60,72
4,69,102,16
4,71,70,16
4,69,87,36
4,69,104,52
4,69,104,80
4,71,97,100
4,72,70,52
4,69,89,48
4,69,84,68
4,67,59,84
4,65,51,8
4,69,120,76
4,67,96,72
4,67,96,88
4,69,81,28
4,65,72,196
4,60,66,4
4,69,58,64
4,69,82,44
4,69,109,108
4,67,99,108
4,69,66,40
4,67,54,32
4,67,87,40
4,67,89,100
4,67,109,84
4,69,83,40
4,67,72,36
4,67,111,56
4,65,106,104
4,64,92,100
4,65,66,16
4,64,77,24
4,64,92,64
4,60,64,324
4,65,120,56
4,65,79,32
4,65,104,104
4,65,86,116
4,64,83,80
4,65,66,16
4,64,70,44
4,62,92,116
4,64,61,28
4,62,76,16
4,62,97,56
4,62,104,120
4,62,106,128
4,64,76,40
4,60,66,16
4,64,104,48
4,64,78,40
4,64,87,116
4,64,92,108
4,64,78,60
4,64,83,56
4,64,97,116
4,62,70,124
4,68,99,4
4,62,59,60
4,68,50,4
4,62,73,104
4,68,96,4
4,69,102,40
4,62,63,68
4,69,111,12
4,71,64,16
4,69,82,32
4,69,96,48
4,69,104,56
4,71,89,92
4,72,60,28
4,69,94,116
4,64,57,24
4,69,120,56
4,67,94,104
4,67,102,92
4,68,54,8
4,69,63,8
4,72,54,92
4,69,62,4
4,72,86,48
4,69,87,4
4,69,99,88
4,72,96,0
4,69,92,68
4,72,92,4
4,67,58,60
4,71,63,4
4,71,89,72
4,67,72,4
4,71,92,80
4,67,76,4
4,67,94,72
4,72,87,4
4,69,63,8
4,67,66,64
4,71,66,0
4,71,84,48
4,67,92,4
4,69,89,88
4,65,89,4
4,69,92,92
4,65,99,4
4,64,66,92
4,67,83,0
4,67,89,80
4,64,73,4
4,60,63,232
4,65,114,52
4,65,94,52
4,65,109,104
4,65,94,92
4,65,92,80
4,65,65,84
4,64,67,4
4,62,83,104
4,63,41,56
4,64,63,8
4,62,68,28
4,62,104,52
4,62,109,104
4,62,97,112
4,64,57,40
4,62,66,20
4,64,99,60
4,64,96,40
4,64,97,100
4,64,86,88
4,64,60,40
4,64,87,44
4,64,120,88
4,66,62,16
4,62,72,96
4,68,107,8
4,62,68,12
4,68,112,96
4,69,114,84
4,69,111,108
4,68,72,8
4,71,87,32
4,69,59,28
4,69,109,28
4,69,96,72
4,69,87,56
4,72,60,10308
4,81,127,100
4,79,73,80
4,72,73,96
4,79,99,16
4,81,73,12
4,79,71,24
4,72,58,4
4,81,104,48
4,72,63,72
4,79,82,4
4,72,66,60
4,81,97,4
4,79,59,20
4,72,23,16
4,81,96,56
4,79,76,68
4,72,60,4
4,74,77,84
4,81,102,4
4,74,61,60
4,79,66,4
4,81,82,76
4,74,72,4
4,79,66,76
4,74,56,8
4,74,51,48
4,81,65,4
4,79,32,312
4,74,22,72
4,81,55,0
4,79,66,40
4,81,44,12
4,72,74,88
4,81,111,0
4,79,86,56
4,71,84,4
4,71,75,60
4,79,96,4
4,71,72,72
4,79,96,0
4,72,83,68
4,81,109,0
4,71,60,40
4,79,63,4
4,71,83,48
4,79,104,0
4,69,84,76
4,77,102,0
4,69,83,76
4,77,96,4
4,67,62,88
4,76,63,0
4,76,82,72
4,67,78,4
4,67,59,252
4,77,120,48
4,77,96,40
4,77,109,96
4,77,81,72
4,77,89,100
4,74,81,68
4,79,77,4
4,76,56,56
4,74,86,64
4,79,81,0
4,75,34,8
4,76,59,16
4,74,82,24
4,74,104,48
4,74,104,84
4,74,99,84
4,76,60,48
4,74,81,320
4,76,80,44
4,76,90,48
4,76,96,68
4,76,75,64
4,76,102,88
4,76,94,80
4,74,87,56
4,80,82,12
4,74,63,12
4,74,70,48
4,80,103,4
4,81,109,84
4,74,59,40
4,81,120,20
4,83,76,28
4,81,82,40
4,74,56,4
4,81,109,68
4,81,104,100
4,81,99,72
4,81,127,204
4,83,104,68
4,84,94,72
4,81,99,92
4,86,94,0
4,82,39,28
4,83,78,4
4,81,79,40
4,81,82,56
4,81,82,64
4,81,70,72
4,72,57,20
4,72,83,56
4,81,86,4
4,81,104,44
4,72,78,4
4,81,109,84
4,72,90,4
4,71,70,72
4,79,70,0
4,79,68,68
4,71,64,8
4,79,86,72
4,71,73,8
4,72,86,68
4,81,106,0
4,71,52,32
4,79,66,4
4,79,97,48
4,71,82,8
4,79,96,56
4,71,83,4
4,72,86,84
4,81,111,0
4,79,65,60
4,71,66,4
4,71,87,80
4,79,89,0
4,79,92,92
4,71,90,4
4,72,87,64
4,81,106,4
4,71,49,8
4,79,71,20
4,72,82,68
4,79,92,0
4,72,71,80
4,79,78,0
4,79,80,320
4,74,70,4
4,75,52,16
4,77,57,12
4,77,78,24
4,77,96,80
4,77,99,44
4,77,82,84
4,77,90,80
