track,note,velocity,time
1,29,91,96
1,34,85,102
1,39,87,1348
1,34,84,1348
1,39,86,1348
1,39,79,32
1,46,89,632
1,46,89,46
1,37,84,488
1,39,78,114
1,39,88,140
1,39,83,4
1,34,85,74
1,39,86,2
1,44,88,890
1,44,83,4
1,39,85,74
1,44,86,2
1,37,84,506
1,32,78,92
1,37,88,140
1,37,83,4
1,32,85,74
1,37,86,2
1,44,80,698
1,41,74,2
1,42,88,2
1,42,83,98
1,34,84,576
1,36,88,92
1,36,83,84
1,39,84,576
1,41,88,92
1,41,83,180
1,51,78,194
1,52,75,2
1,53,83,2
1,29,82,92
1,29,78,2
1,36,80,2
1,34,89,24
1,46,84,4
1,46,87,258
1,41,84,128
1,34,89,66
1,37,85,174
1,38,79,108
1,39,89,108
1,51,84,4
1,51,87,258
1,46,84,128
1,39,89,66
1,39,84,4
1,42,85,74
1,43,79,108
1,44,89,108
1,32,87,100
1,32,84,26
1,34,85,74
1,36,79,92
1,37,89,140
1,49,84,4
1,49,87,258
1,44,84,128
1,37,89,66
1,37,84,4
1,39,85,74
1,41,79,108
1,42,89,108
1,42,84,4
1,42,87,258
1,42,84,128
1,42,89,66
1,34,85,100
1,35,85,92
1,36,89,92
1,36,84,4
1,36,87,258
1,36,84,128
1,36,89,66
1,39,85,100
1,40,85,92
1,41,89,92
1,41,84,4
1,41,87,210
1,29,80,128
1,29,89,76
1,36,85,4
1,39,85,24
1,40,85,24
1,41,89,24
1,41,84,4
1,41,87,210
1,39,80,128
1,41,89,2
1,29,80,4
1,29,89,76
1,33,85,4
1,34,90,4
1,46,88,196
1,41,85,128
1,46,90,66
1,37,86,120
1,38,80,106
1,39,90,104
1,39,85,4
1,46,85,172
1,51,88,106
1,46,90,54
1,39,86,26
1,44,90,74
1,39,86,100
1,32,88,74
1,32,85,26
1,34,86,74
1,36,80,92
1,37,90,140
1,37,85,4
1,37,88,210
1,44,83,128
1,44,90,74
1,47,85,24
1,48,79,2
1,49,86,2
1,42,90,44
1,42,85,4
1,42,85,360
1,42,90,66
1,37,86,292
1,36,90,92
1,36,88,196
1,48,81,128
1,48,90,74
1,48,86,100
1,42,86,2
1,41,90,2
1,41,85,4
1,41,88,210
1,39,81,128
1,41,90,14
1,48,86,4
1,51,86,2
1,52,86,2
1,53,90,2
1,53,85,4
1,63,79,210
1,64,76,2
1,65,81,2
1,34,88,2
1,39,90,1348
1,34,87,1348
1,39,89,1348
1,39,82,32
1,46,91,632
1,46,91,46
1,37,86,488
1,39,80,114
1,39,90,140
1,39,85,4
1,34,87,74
1,39,88,2
1,44,90,890
1,44,85,4
1,39,87,74
1,44,88,2
1,37,86,506
1,32,80,92
1,37,90,140
1,37,85,4
1,32,87,74
1,37,88,2
1,44,82,698
1,41,76,2
1,42,90,2
1,42,85,98
1,34,86,576
1,36,90,92
1,36,85,84
1,39,86,576
1,41,90,92
1,41,85,180
1,51,80,194
1,52,77,2
1,53,85,2
1,29,84,92
1,29,80,2
1,36,82,2
1,32,91,24
1,36,92,18
1,37,90,12
1,39,89,8
1,40,93,8
1,42,90,8
1,44,91,8
1,39,90,84
1,44,91,114
1,42,90,98
1,44,90,86
1,42,91,98
1,40,91,94
1,40,90,144
1,39,90,46
1,37,91,44
1,37,90,126
1,39,91,52
1,40,90,172
1,42,90,172
1,32,92,172
1,32,92,102
1,27,85,70
1,32,87,60
1,32,90,110
1,39,90,4
1,32,89,14
1,36,92,66
1,36,92,102
1,31,85,70
1,36,87,60
1,36,90,110
1,31,90,4
1,36,89,14
1,37,92,66
1,37,92,102
1,32,85,70
1,37,87,60
1,37,90,110
1,36,90,4
1,34,92,30
1,34,92,102
1,34,85,70
1,39,87,60
1,39,90,110
1,39,90,4
1,46,90,30
1,44,92,30
1,44,92,102
1,39,85,70
1,44,87,60
1,44,90,110
1,39,90,4
1,37,89,58
1,36,92,66
1,36,92,102
1,31,85,70
1,36,87,60
1,36,90,40
1,36,90,10
1,36,89,60
1,37,92,66
1,37,92,102
1,32,85,70
1,37,87,60
1,37,90,110
1,36,90,4
1,34,92,30
1,34,92,102
1,36,85,2
1,37,85,16
1,39,87,16
1,39,90,110
1,39,90,4
1,34,90,30
1,44,92,30
1,43,92,28
1,43,90,26
1,41,92,66
1,36,86,70
1,41,88,60
1,41,90,110
1,39,90,4
1,41,90,14
1,39,92,66
1,39,92,102
1,39,86,70
1,39,88,60
1,39,90,110
1,39,90,24
1,34,92,66
1,34,92,102
1,34,86,70
1,39,88,60
1,34,90,24
1,39,90,30
1,32,92,30
1,32,92,102
1,27,86,70
1,32,88,60
1,32,90,110
1,39,90,4
1,37,90,58
1,36,92,66
1,36,92,102
1,31,86,70
1,36,88,60
1,36,90,40
1,36,88,10
1,31,90,40
1,36,90,22
1,37,92,66
1,37,90,44
1,37,88,88
1,37,90,110
1,36,90,24
1,34,92,48
1,34,92,102
1,36,86,2
1,37,86,16
1,39,88,16
1,46,85,72
1,39,86,30
1,44,93,18
1,39,91,84
1,44,93,114
1,42,92,98
1,44,92,86
1,42,93,98
1,40,93,94
1,40,92,144
1,39,92,46
1,37,93,44
1,37,92,126
1,39,93,52
1,40,92,172
1,42,92,172
1,32,94,172
1,39,94,102
1,44,89,2
1,44,82,14
1,44,71,10
1,44,84,8
1,44,92,16
1,32,91,14
1,36,94,66
1,36,94,40
1,43,94,38
1,46,85,70
1,47,82,2
1,48,88,2
1,36,91,14
1,37,94,66
1,37,94,24
1,44,86,24
1,49,88,32
1,44,86,4
1,44,86,54
1,37,92,16
1,41,92,30
1,34,94,30
1,34,94,102
1,34,87,70
1,39,89,60
1,41,92,110
1,43,92,4
1,46,92,30
1,44,94,30
1,44,94,34
1,39,78,72
1,39,87,8
1,44,78,24
1,44,88,8
1,44,80,38
1,44,89,8
1,39,92,26
1,39,91,58
1,36,94,66
1,36,94,34
1,39,78,40
1,39,87,8
1,43,78,24
1,48,89,2
1,43,92,38
1,36,92,10
1,36,86,16
1,37,94,66
1,37,94,34
1,41,78,40
1,41,87,8
1,44,78,24
1,49,89,2
1,51,92,26
1,53,92,24
1,34,94,4
1,34,94,102
1,36,87,2
1,37,87,16
1,39,89,16
1,39,92,110
1,39,92,4
1,34,92,30
1,44,94,30
1,43,94,28
1,43,92,26
1,41,94,66
1,36,88,70
1,41,90,60
1,41,92,110
1,39,92,4
1,41,92,14
1,39,94,66
1,39,94,102
1,39,88,70
1,39,90,60
1,39,92,110
1,39,92,24
1,34,94,66
1,34,94,102
1,34,88,70
1,39,90,60
1,34,92,24
1,39,92,30
1,32,94,30
1,32,94,34
1,39,79,72
1,39,88,8
1,44,79,24
1,44,89,8
1,44,81,38
1,44,89,8
1,39,92,26
1,39,92,58
1,36,94,66
1,36,94,34
1,39,79,40
1,39,88,8
1,43,79,24
1,48,90,2
1,43,92,38
1,36,92,10
1,36,87,16
1,37,94,66
1,37,94,34
1,44,88,34
1,49,90,4
1,44,88,26
1,37,90,30
1,34,94,32
1,34,94,102
1,36,88,2
1,37,88,16
1,39,90,16
1,39,92,110
1,39,92,4
1,32,96,24
1,32,97,120
1,32,95,120
1,36,95,56
1,39,97,56
1,42,96,56
1,42,96,108
1,42,97,120
1,42,97,120
1,41,97,26
1,39,96,44
1,37,96,46
1,37,96,118
1,37,96,118
1,37,96,118
1,37,96,38
1,37,96,38
1,37,96,118
1,39,96,128
1,32,96,128
1,32,97,120
1,32,95,120
1,36,95,56
1,39,97,56
1,42,96,56
1,42,96,108
1,42,97,120
1,42,97,120
1,41,97,26
1,39,96,44
1,37,96,46
1,37,96,118
1,37,96,118
1,37,96,118
1,37,96,38
1,37,96,38
1,42,96,118
1,41,96,128
1,44,93,128
2,53,57,96
2,57,56,22
2,60,58,22
2,63,58,22
2,69,57,22
2,61,58,20
2,65,65,34
2,70,72,26
2,73,77,14
2,82,95,2
2,58,86,2
2,77,86,0
2,61,58,0
2,67,65,22
2,70,72,2
2,73,77,22
2,51,86,12
2,79,86,0
2,82,94,14
2,61,58,46
2,65,65,34
2,70,72,26
2,73,77,14
2,58,86,4
2,77,86,0
2,82,95,20
2,63,58,0
2,68,65,22
2,70,72,6
2,73,77,22
2,51,86,12
2,75,86,0
2,82,94,16
2,61,77,10
2,70,76,0
2,58,76,4
2,65,77,2
2,66,77,156
2,58,76,6
2,63,77,0
2,61,77,4
2,66,76,262
2,56,77,2
2,63,77,2
2,60,77,2
2,61,77,106
2,56,77,6
2,60,77,4
2,65,75,2
2,58,77,130
2,54,77,2
2,61,77,0
2,65,77,2
2,58,77,102
2,60,77,0
2,63,74,6
2,54,73,8
2,58,78,254
2,60,78,0
2,63,78,0
2,53,75,2
2,57,76,144
2,60,77,4
2,53,77,2
2,65,77,0
2,61,79,138
2,70,78,0
2,58,78,4
2,65,79,2
2,66,79,156
2,58,78,6
2,63,79,0
2,61,79,4
2,66,78,262
2,56,79,2
2,63,79,2
2,60,79,2
2,61,79,106
2,56,79,6
2,60,79,4
2,65,77,2
2,58,79,130
2,54,79,2
2,61,79,0
2,65,79,2
2,58,79,102
2,60,79,0
2,63,76,6
2,54,75,8
2,58,80,254
2,60,80,0
2,63,80,0
2,53,77,2
2,57,78,144
2,60,79,4
2,53,79,2
2,65,79,0
2,61,81,138
2,70,80,0
2,58,80,4
2,65,81,2
2,66,81,156
2,58,80,6
2,63,81,0
2,61,81,4
2,66,80,262
2,56,81,2
2,63,81,2
2,60,81,2
2,61,81,106
2,56,81,6
2,60,81,4
2,65,79,2
2,58,81,130
2,54,81,2
2,61,81,0
2,65,81,2
2,58,81,102
2,60,81,0
2,63,78,6
2,54,77,8
2,58,82,254
2,60,82,0
2,63,82,0
2,53,79,2
2,57,80,144
2,60,81,4
2,53,81,2
2,65,81,0
2,61,64,1570
2,67,71,38
2,70,78,20
2,73,83,22
2,51,92,12
2,79,92,0
2,82,100,14
2,61,64,46
2,65,71,34
2,70,78,26
2,73,83,14
2,58,92,4
2,77,92,0
2,82,101,20
2,63,64,0
2,68,71,22
2,70,78,6
2,73,83,22
2,51,92,12
2,75,92,0
2,82,100,16
2,61,81,10
2,70,80,0
2,58,80,4
2,65,81,2
2,66,81,156
2,58,80,6
2,63,81,0
2,61,81,4
2,66,80,262
2,56,81,2
2,63,81,2
2,60,81,2
2,61,81,106
2,56,81,6
2,60,81,4
2,65,79,2
2,58,81,130
2,54,81,2
2,61,81,0
2,65,81,2
2,58,81,102
2,60,81,0
2,63,78,6
2,54,77,8
2,58,82,254
2,60,82,0
2,63,82,0
2,53,79,2
2,57,80,144
2,60,81,4
2,53,81,2
2,65,81,0
2,56,87,138
2,60,85,0
2,63,89,0
2,60,84,52
2,63,89,2
2,55,82,4
2,53,59,44
2,61,88,2
2,56,89,2
2,58,87,50
2,63,86,2
2,55,59,4
2,56,59,62
2,59,87,2
2,64,88,0
2,61,87,46
2,66,89,2
2,58,59,2
2,60,59,54
2,63,83,0
2,68,84,0
2,61,81,100
2,58,59,2
2,66,83,0
2,56,59,184
2,59,86,0
2,64,85,0
2,56,84,110
2,52,59,2
2,61,81,0
2,61,81,218
2,52,61,2
2,56,80,0
2,54,59,74
2,63,85,0
2,58,83,2
2,59,84,156
2,56,59,2
2,64,83,0
2,66,67,8
2,68,70,56
2,70,71,6
2,73,76,12
2,75,77,16
2,58,59,8
2,61,82,0
2,66,83,2
2,78,91,10
2,60,82,152
2,68,81,0
2,56,81,4
2,63,82,2
2,67,82,156
2,55,81,6
2,63,82,0
2,60,82,4
2,56,81,262
2,53,82,2
2,65,82,2
2,61,82,2
2,61,82,106
2,56,82,6
2,58,82,4
2,65,80,2
2,63,82,16
2,58,82,6
2,61,82,4
2,67,80,2
2,60,82,24
2,68,81,0
2,56,81,4
2,63,82,2
2,67,82,156
2,55,81,6
2,63,82,0
2,60,82,4
2,56,81,262
2,53,82,2
2,65,82,2
2,61,82,2
2,61,82,106
2,56,82,6
2,58,82,4
2,65,80,2
2,63,82,16
2,58,82,6
2,61,82,4
2,67,80,2
2,60,83,24
2,68,82,0
2,63,83,6
2,67,83,44
2,63,83,6
2,60,83,4
2,56,82,8
2,65,83,4
2,60,83,2
2,56,82,116
2,63,83,4
2,60,83,2
2,61,83,146
2,56,83,6
2,65,81,6
2,63,83,16
2,58,83,6
2,67,81,6
2,60,83,24
2,68,82,0
2,56,82,4
2,63,83,2
2,67,83,156
2,55,82,6
2,63,83,0
2,60,83,4
2,56,82,262
2,53,83,2
2,65,83,2
2,61,83,2
2,61,83,106
2,56,83,6
2,58,83,4
2,65,81,2
2,63,83,16
2,58,83,6
2,61,83,4
2,67,81,2
2,60,62,26
2,63,86,0
2,68,87,0
2,61,84,100
2,58,62,2
2,66,86,0
2,56,62,184
2,59,89,0
2,64,88,0
2,56,87,110
2,52,62,2
2,61,84,0
2,61,84,218
2,52,64,2
2,56,83,0
2,54,62,74
2,63,88,0
2,58,86,2
2,59,87,156
2,56,62,2
2,64,86,0
2,66,70,8
2,68,73,56
2,70,74,6
2,73,79,12
2,75,80,16
2,58,62,8
2,61,85,0
2,66,86,2
2,78,94,10
2,60,86,152
2,68,85,0
2,56,85,4
2,63,86,2
2,67,86,156
2,55,85,6
2,63,86,0
2,60,86,4
2,56,85,262
2,53,86,2
2,65,86,2
2,61,86,2
2,61,86,106
2,56,86,6
2,58,86,4
2,65,84,2
2,63,86,16
2,58,86,6
2,61,86,4
2,67,84,2
2,60,86,24
2,68,85,0
2,56,85,4
2,63,86,2
2,67,86,156
2,55,85,6
2,63,86,0
2,60,86,4
2,56,85,262
2,53,86,2
2,65,86,2
2,61,86,2
2,61,86,106
2,56,86,6
2,58,86,4
2,65,84,2
2,63,86,16
2,58,86,6
2,61,86,4
2,67,84,2
2,60,87,24
2,68,86,0
2,63,87,6
2,67,87,44
2,63,87,6
2,60,87,4
2,56,86,8
2,65,87,4
2,60,87,2
2,56,86,116
2,63,87,4
2,60,87,2
2,61,87,146
2,56,87,6
2,65,85,6
2,63,87,16
2,58,87,6
2,67,85,6
2,60,87,24
2,68,86,0
2,56,86,4
2,63,87,2
2,67,87,156
2,55,86,6
2,63,87,0
2,60,87,4
2,56,86,262
2,53,87,2
2,65,87,2
2,61,87,2
2,61,87,106
2,56,87,6
2,58,87,4
2,65,85,2
2,63,87,16
2,58,87,6
2,61,87,4
2,67,85,2
2,60,67,26
2,63,91,0
2,68,92,0
2,61,89,100
2,58,67,2
2,66,91,0
2,56,67,184
2,61,94,0
2,65,93,0
2,61,92,56
2,56,67,2
2,65,89,0
2,61,93,28
2,65,90,0
2,56,91,2
2,58,95,156
2,63,97,2
2,67,92,0
2,60,67,170
2,63,91,0
2,68,92,0
2,61,89,100
2,58,67,2
2,66,91,0
2,56,67,184
2,61,94,0
2,65,93,0
2,61,92,56
2,56,67,2
2,65,89,0
2,66,93,28
2,70,90,0
2,61,91,2
2,61,95,156
2,65,97,2
2,68,92,0
2,60,92,168
2,56,67,2
2,63,89,0
2,68,89,0
3,70,114,14
3,72,121,18
3,73,114,2
3,72,124,2
3,70,117,2
3,70,92,34
3,70,114,12
3,70,110,28
3,70,114,18
3,70,114,34
3,68,110,2
3,68,107,40
3,68,96,28
3,70,121,14
3,68,110,2
3,68,103,26
3,66,110,6
3,66,110,72
3,65,117,2
3,65,110,20
3,65,121,4
3,65,117,26
3,65,117,24
3,66,110,10
3,65,121,2
3,65,103,34
3,66,114,2
3,65,117,16
3,65,110,40
3,65,103,32
3,63,107,2
3,63,100,20
3,65,114,2
3,63,107,164
3,63,110,26
3,65,110,16
3,65,114,2
3,65,100,32
3,65,110,4
3,69,114,2
3,69,110,42
3,69,107,32
3,70,107,2
3,72,110,2
3,69,110,2
3,69,110,22
3,70,114,2
3,70,120,16
3,70,120,2
3,70,116,20
3,70,116,4
3,70,120,24
3,70,116,474
3,70,109,16
3,70,109,22
3,70,109,14
3,68,116,2
3,68,99,24
3,70,121,22
3,68,109,0
3,68,109,42
3,70,122,22
3,68,109,2
