track,note,velocity,time
1,69,107,22264
1,71,101,108
1,72,99,20
1,74,101,140
1,72,99,136
1,71,81,184
1,69,82,160
1,67,87,212
1,69,99,52
1,67,86,132
1,69,99,96
1,71,92,44
1,71,105,32
1,69,92,1088
1,69,95,180
1,67,77,4
1,69,93,12
1,71,103,28
1,72,99,20
1,74,89,80
1,72,97,16
1,71,83,188
1,69,78,0
1,67,92,212
1,67,90,112
1,69,87,412
1,67,83,304
1,69,105,28
1,71,107,232
1,71,101,8
1,71,101,120
1,72,103,164
1,72,95,164
1,74,89,8
1,72,85,380
1,76,66,56
1,74,93,0
1,72,85,0
1,70,89,0
1,70,97,4
1,70,109,188
1,69,85,0
1,70,101,0
1,72,89,12
1,74,89,360
1,72,86,0
1,70,90,140
1,70,107,224
1,69,71,0
1,70,97,404
1,72,86,352
1,74,81,12
1,72,86,48
1,74,93,216
1,77,105,0
1,79,101,12
1,77,80,32
1,79,103,12
1,77,73,364
1,74,82,12
1,72,99,4
1,74,89,0
1,72,89,192
1,70,97,180
1,69,86,0
1,67,93,200
1,70,99,256
1,69,93,28
1,70,121,464
1,72,80,192
1,70,107,180
1,69,90,0
1,67,86,196
1,65,95,172
1,67,101,264
1,65,93,392
1,62,93,232
1,60,74,196
1,72,95,400
1,74,80,36
1,72,89,188
1,70,99,168
1,69,78,192
1,67,92,168
1,70,109,232
1,69,71,20
1,70,107,112
1,69,93,20
1,70,105,116
1,69,80,12
1,72,85,208
1,70,95,4
1,69,83,196
1,67,85,16
1,69,92,104
1,67,87,16
1,69,93,140
1,67,83,384
1,70,109,284
1,69,86,496
1,67,85,180
1,65,93,8
1,67,87,140
1,65,90,16
1,67,89,124
1,65,93,384
1,69,86,268
1,67,89,20
1,65,89,196
1,64,82,32
1,62,85,8
1,60,81,392
1,62,99,240
1,65,97,300
1,67,107,4
1,65,95,0
1,67,107,12
1,65,93,344
1,62,99,16
1,69,111,172
1,71,93,364
1,72,86,164
1,74,101,328
1,72,99,136
1,71,81,184
1,69,82,160
1,67,87,212
1,69,99,52
1,67,86,132
1,69,99,96
1,71,92,44
1,71,105,32
1,69,92,1088
1,69,95,180
1,67,77,4
1,69,93,12
1,71,103,28
1,72,99,20
1,74,89,80
1,72,97,16
1,71,83,188
1,69,78,0
1,67,92,212
1,67,90,112
1,69,87,412
1,67,83,304
1,69,105,28
1,71,107,232
1,71,101,8
1,71,101,120
1,72,103,164
1,72,95,164
1,74,89,8
1,72,85,376
1,76,66,52
1,74,93,0
1,72,85,0
1,70,89,0
1,70,97,4
1,70,109,188
1,69,85,0
1,70,101,0
1,72,89,12
1,74,89,360
1,72,86,0
1,70,90,140
1,70,107,224
1,69,71,0
1,70,97,404
1,72,86,352
1,74,81,12
1,72,86,48
1,74,93,216
1,77,105,0
1,79,101,12
1,77,80,32
1,79,103,12
1,77,73,364
1,74,82,12
1,72,86,28
1,74,93,216
1,77,105,0
1,79,101,12
1,77,80,32
1,79,103,12
1,77,73,364
1,74,82,12
2,51,83,1564
2,51,60,1408
2,51,65,196
2,51,51,188
2,51,44,192
2,51,66,120
2,51,44,160
2,51,64,120
2,51,55,140
2,51,32,132
2,51,53,172
2,51,48,188
2,51,57,160
2,51,47,152
2,51,67,120
2,51,45,176
2,51,42,208
2,51,49,196
2,51,44,200
2,51,45,208
2,51,48,160
2,51,55,116
2,51,47,184
2,51,41,180
2,51,56,128
2,36,103,1072
2,44,117,384
2,36,95,180
2,36,99,132
2,40,119,16
2,36,105,384
2,44,121,376
2,36,90,184
2,36,103,112
2,40,117,388
2,36,101,340
2,44,123,340
2,36,90,172
2,36,101,136
2,40,121,376
2,36,99,348
2,44,121,360
2,36,89,152
2,36,97,132
2,40,115,384
2,36,103,336
2,44,117,360
2,36,95,180
2,36,99,132
2,40,119,16
2,36,105,384
2,44,121,376
2,36,90,184
2,36,103,112
2,40,117,388
2,36,101,340
2,44,123,340
2,36,90,172
2,36,101,136
2,40,121,376
2,36,99,348
2,44,121,360
2,36,89,152
2,36,97,132
2,40,115,384
2,36,103,336
2,44,117,360
2,36,95,180
2,36,99,132
2,40,119,16
2,36,105,384
2,44,121,376
2,36,90,184
2,36,103,112
2,40,117,388
2,36,101,340
2,44,123,340
2,36,90,172
2,36,101,136
2,40,121,376
2,36,99,348
2,44,121,360
2,36,89,152
2,36,97,132
2,40,115,384
2,36,103,336
2,44,117,360
2,36,95,180
2,36,99,132
2,40,119,16
2,36,105,384
2,44,121,376
2,36,90,184
2,36,103,112
2,40,117,388
2,36,101,340
2,44,123,340
2,36,90,172
2,36,101,136
2,40,121,376
2,36,101,348
2,44,123,360
2,36,90,172
2,36,101,136
2,40,121,376
2,40,95,28
2,36,103,128
2,44,117,384
2,36,95,180
2,36,99,132
2,40,119,16
2,36,105,384
2,44,121,376
2,36,90,184
2,36,103,112
2,40,117,388
2,36,101,340
2,44,123,340
2,36,90,172
2,36,101,136
2,40,121,376
2,36,99,348
2,44,121,360
2,36,89,152
2,36,97,132
2,40,115,384
2,36,103,336
2,44,117,360
2,36,95,180
2,36,99,132
2,40,119,16
2,36,105,384
2,44,121,376
2,36,90,184
2,36,103,112
2,40,117,388
2,36,101,340
2,44,123,340
2,36,90,172
2,36,101,136
2,40,121,376
2,36,99,348
2,44,121,360
2,36,89,152
2,36,97,132
2,40,115,384
2,36,103,336
2,44,117,360
2,36,95,180
2,36,99,132
2,40,119,16
2,36,105,384
2,44,121,376
2,36,90,184
2,36,103,112
2,40,117,388
2,36,101,340
2,44,123,340
2,36,90,172
2,36,101,136
2,40,121,376
2,36,99,348
2,44,121,360
2,36,89,152
2,36,97,132
2,40,115,384
2,36,103,336
2,44,117,360
2,36,95,180
2,36,99,132
2,40,119,16
2,36,105,384
2,44,121,0
2,36,90,0
2,36,103,188
2,45,117,188
2,43,101,4
2,40,117,4
2,36,101,0
2,81,73,0
2,85,111,0
2,44,123,0
2,81,45,0
2,36,90,0
2,81,66,0
2,36,101,0
2,85,107,0
2,81,59,0
2,40,121,0
2,81,60,8
2,85,105,0
2,36,99,0
2,81,49,0
2,81,52,8
2,44,121,0
2,85,103,4
2,36,89,0
2,81,55,4
2,36,97,0
2,81,53,4
2,85,105,0
2,40,115,0
2,81,55,0
2,81,56,8
2,36,103,0
2,85,105,200
2,44,117,180
2,81,80,4
2,36,95,0
2,81,58,4
2,36,99,4
2,85,101,0
2,81,62,0
2,40,119,0
2,81,54,0
2,85,101,0
2,36,105,0
2,81,62,0
2,81,58,0
2,85,93,0
2,44,121,0
2,36,90,4
2,81,53,0
2,36,103,112
2,81,48,4
2,85,101,0
2,81,48,0
2,40,117,4
2,81,59,8
2,85,103,188
2,36,101,4
2,81,53,8
2,44,123,8
2,81,53,0
2,85,107,0
2,36,90,8
2,81,54,4
2,36,101,4
2,81,57,12
2,40,121,180
2,85,103,4
2,81,50,4
2,36,99,4
2,81,51,4
2,85,107,0
2,81,56,4
2,44,121,4
2,36,89,8
2,81,50,0
2,85,101,128
2,36,97,0
2,81,60,0
2,40,115,4
2,81,50,0
2,85,103,140
2,81,47,4
2,36,103,4
2,81,56,12
2,44,117,0
2,85,105,0
2,36,95,0
2,81,59,0
2,36,99,4
2,81,48,8
2,85,109,180
2,40,119,0
2,81,57,8
2,81,55,4
2,36,105,184
2,85,97,0
2,81,61,4
2,44,121,0
2,81,55,0
2,36,90,184
2,85,105,0
2,36,103,112
2,81,59,0
2,81,57,12
2,40,117,180
2,85,107,0
2,81,60,0
2,36,101,4
2,81,56,0
2,85,103,0
2,81,65,0
2,44,123,8
2,81,50,8
2,36,90,4
2,85,107,128
2,36,101,4
2,81,52,4
2,40,121,0
2,81,55,12
2,85,105,152
2,36,99,4
2,81,58,0
2,81,55,12
2,85,101,180
2,44,121,0
2,81,47,4
2,36,89,4
2,36,97,4
2,81,53,4
2,85,105,184
2,81,55,0
2,40,115,4
2,81,49,12
2,36,103,180
2,85,101,0
2,81,54,4
2,44,117,0
2,81,51,0
2,36,95,180
2,85,105,0
2,81,54,0
2,36,99,4
2,81,53,12
2,40,119,16
2,85,103,0
2,81,56,4
2,36,105,0
2,81,52,0
2,85,101,0
2,44,121,0
2,81,62,0
2,36,90,0
2,81,56,8
2,36,103,112
2,85,97,0
2,81,66,12
2,40,117,0
2,81,54,4
2,85,105,4
2,81,61,0
2,36,101,4
2,81,64,8
2,85,103,0
2,44,123,4
2,81,59,8
2,36,90,4
2,36,101,4
2,81,53,0
2,85,101,184
2,40,121,0
2,81,56,4
2,81,60,4
2,85,103,0
2,36,99,4
2,81,58,4
2,44,121,8
2,81,55,4
2,85,107,144
2,36,89,0
2,36,97,4
2,81,68,0
2,81,56,12
2,40,115,184
2,85,105,0
2,81,63,4
2,36,103,0
2,81,60,12
2,85,109,172
2,44,117,0
2,81,70,4
2,36,95,0
2,85,90,16
2,36,99,132
2,81,83,0
2,85,107,8
2,40,119,16
2,81,87,0
2,81,80,4
2,85,117,184
2,36,105,0
2,44,121,200
2,36,90,184
2,36,103,112
2,40,117,388
2,81,71,336
2,36,101,4
2,85,103,192
2,44,123,8
2,81,54,4
2,36,90,8
2,81,57,4
2,36,101,4
2,85,105,0
2,40,121,0
2,81,51,4
2,81,59,12
2,85,107,180
2,36,99,4
2,81,63,4
2,44,121,8
2,81,55,0
2,85,111,140
2,36,89,4
2,81,69,8
2,36,97,4
2,81,60,4
2,85,111,0
2,40,115,4
2,81,72,4
2,36,103,0
2,85,109,4
2,81,71,176
2,44,117,16
2,85,101,0
2,36,95,16
2,85,66,0
2,36,99,20
2,81,78,8
2,85,111,0
2,40,119,16
2,81,77,0
2,81,80,4
2,85,119,184
2,36,105,0
2,44,121,200
2,36,103,884
2,44,117,384
2,36,95,180
2,36,99,132
2,40,119,16
2,36,105,384
2,44,121,376
2,36,90,184
2,36,103,112
2,40,117,388
2,36,101,340
2,44,123,340
2,36,90,172
2,36,101,136
2,40,121,376
2,36,99,348
2,44,121,360
2,36,89,152
2,36,97,132
2,40,115,384
2,36,103,336
2,44,117,360
2,36,95,180
2,36,99,132
2,40,119,16
2,36,105,384
2,44,121,376
2,36,90,184
2,36,103,112
2,40,117,388
2,36,101,340
2,44,123,340
2,36,90,172
2,36,101,136
2,40,121,376
2,36,99,348
2,44,121,360
2,36,89,152
2,36,97,132
2,40,115,384
2,36,103,336
2,44,117,360
2,36,95,180
2,36,99,132
2,40,119,16
2,36,105,384
2,44,121,376
2,36,90,184
2,36,103,112
2,40,117,388
2,36,101,340
2,44,123,340
2,36,90,172
2,36,101,136
2,40,121,376
2,36,99,348
2,44,121,360
2,36,89,152
2,36,97,132
2,40,115,384
2,36,103,336
2,44,117,360
2,36,95,180
2,36,99,132
2,40,119,16
2,36,105,384
2,44,121,376
2,36,90,184
2,36,103,112
2,40,117,388
2,36,101,340
2,44,123,340
2,36,90,172
2,36,101,136
2,40,121,376
2,36,101,348
2,44,123,360
2,36,90,172
2,36,101,136
2,40,121,376
2,40,95,28
2,36,103,128
2,44,117,384
2,36,95,180
2,36,99,132
2,40,119,16
2,36,105,384
2,44,121,376
2,36,90,184
2,36,103,112
2,40,117,388
2,36,101,340
2,44,123,340
2,36,90,172
2,36,101,136
2,40,121,376
2,36,99,348
2,44,121,360
2,36,89,152
2,36,97,132
2,40,115,384
2,36,103,336
2,44,117,360
2,36,95,180
2,36,99,132
2,40,119,16
2,36,105,384
2,44,121,376
2,36,90,184
2,36,103,112
2,40,117,388
2,36,101,340
2,44,123,340
2,36,90,172
2,36,101,136
2,40,121,376
2,36,99,348
2,44,121,360
2,36,89,152
2,36,97,132
2,40,115,384
2,36,103,336
2,44,117,360
2,36,95,180
2,36,99,132
2,40,119,16
2,36,105,384
2,44,121,376
2,36,90,184
2,36,103,112
2,40,117,388
2,36,101,340
2,44,123,340
2,36,90,172
2,36,101,136
2,40,121,376
2,36,99,348
2,44,121,360
2,36,89,152
2,36,97,132
2,40,115,384
2,36,103,336
2,44,117,360
2,36,95,180
2,36,99,132
2,40,119,16
2,36,105,384
2,44,121,376
2,36,90,184
2,36,103,112
2,40,117,388
2,36,101,340
2,44,123,340
2,36,90,172
2,36,101,136
2,40,121,376
2,36,99,348
2,44,121,360
2,36,89,152
2,36,97,132
2,40,115,384
2,36,103,336
2,44,117,360
2,36,95,180
2,36,99,132
2,40,119,16
2,36,105,384
2,44,121,376
2,36,90,184
2,36,103,112
2,40,117,388
2,36,101,340
2,44,123,340
2,36,90,172
2,36,101,136
2,40,121,376
2,36,99,348
2,44,121,360
2,36,89,152
2,36,97,132
2,40,115,384
2,36,103,336
2,44,117,360
2,36,95,180
2,36,99,132
2,40,119,16
3,45,92,2128
3,45,74,208
3,45,62,232
3,48,81,116
3,50,75,80
3,48,76,144
3,50,81,100
3,48,80,136
3,45,78,404
3,45,71,168
3,45,76,192
3,45,53,236
3,48,77,92
3,52,89,24
3,50,74,0
3,48,87,164
3,50,95,12
3,48,85,0
3,45,85,16
3,45,87,168
3,45,82,216
3,45,58,244
3,48,83,120
3,50,90,160
3,48,80,268
3,50,89,48
3,48,82,372
3,45,83,20
3,45,82,160
3,45,71,212
3,45,70,216
3,48,83,92
3,52,83,24
3,50,75,108
3,48,86,176
3,50,90,0
3,48,80,328
3,45,83,28
4,40,92,2128
4,40,74,208
4,40,62,232
4,43,81,116
4,45,75,80
4,43,76,144
4,45,81,100
4,43,80,136
4,40,78,404
4,40,71,168
4,40,76,192
4,40,53,236
4,43,77,92
4,47,89,24
4,45,74,0
4,43,87,164
4,45,95,12
4,43,85,0
4,40,85,16
4,40,87,168
4,40,82,216
4,40,58,244
4,43,83,120
4,45,90,160
4,43,80,268
4,45,89,48
4,43,84,372
4,40,85,20
4,40,78,160
4,40,69,212
4,40,76,216
4,43,79,92
4,47,79,24
4,45,79,108
4,43,86,176
4,45,90,0
4,43,80,328
4,40,83,28
4,38,99,824
4,38,89,148
4,38,92,128
4,38,105,168
4,31,83,20
4,31,81,164
4,31,90,108
4,31,70,148
4,33,92,196
4,33,85,152
4,33,92,96
4,40,99,16
4,33,93,12
4,33,87,156
4,33,97,104
4,36,89,124
4,38,86,192
4,38,89,120
4,38,97,124
4,38,101,184
4,31,92,16
4,31,76,160
4,31,90,136
4,31,64,160
4,33,99,196
4,33,82,168
4,33,90,112
4,40,97,48
4,33,97,196
4,33,92,168
4,33,99,120
4,36,95,80
4,38,90,192
4,38,93,140
4,38,93,132
4,38,95,188
4,31,92,196
4,31,85,196
4,31,83,116
4,31,87,192
4,33,85,192
4,33,86,180
4,33,89,140
4,31,86,148
4,33,90,0
4,33,89,96
4,33,103,220
4,31,97,572
4,29,85,380
4,29,93,176
4,29,95,108
4,29,87,140
4,31,93,188
4,31,92,176
4,31,90,100
4,31,97,212
4,36,119,204
4,34,115,2768
4,34,95,172
4,34,92,140
4,34,95,120
4,34,75,180
4,34,97,148
4,29,70,60
4,31,72,0
4,34,97,96
4,34,92,160
4,34,103,100
4,34,99,148
4,34,101,96
4,34,90,204
4,34,99,112
4,36,86,20
4,38,92,16
4,38,81,140
4,38,99,144
4,38,107,96
4,38,95,152
4,38,99,128
4,38,89,168
4,31,87,196
4,31,74,136
4,31,86,128
4,31,85,192
4,31,72,180
4,31,90,128
4,31,90,152
4,31,87,208
4,31,92,96
4,31,121,200
4,38,109,1332
4,38,92,160
4,38,90,128
4,33,77,28
4,38,103,56
4,38,95,88
4,38,95,152
4,33,83,576
4,38,111,180
4,38,103,104
4,38,107,140
4,33,85,380
4,38,119,44
4,36,99,1344
4,36,75,116
4,36,72,96
4,36,61,112
4,41,92,196
4,41,75,128
4,41,78,120
4,41,105,164
4,36,86,196
4,36,58,144
4,36,68,116
4,36,62,120
4,41,89,200
4,41,70,156
4,41,74,128
4,41,105,156
4,36,77,196
4,36,60,160
4,36,73,112
4,36,66,140
4,41,93,192
4,41,77,184
4,41,81,116
4,41,99,152
4,38,73,44
4,38,67,132
4,40,89,4
4,40,60,180
4,41,87,196
