track,note,velocity,time
0,69,112,592
0,64,100,0
0,69,110,0
0,64,98,0
0,66,101,1
0,66,103,0
0,71,94,6
0,71,96,0
0,64,0,2
0,64,0,0
0,69,0,2
0,69,0,0
0,64,91,37
0,64,93,0
0,69,99,2
0,69,101,0
0,66,0,1
0,66,0,0
0,71,0,4
0,71,0,0
0,64,0,18
0,64,0,0
0,69,0,6
0,69,0,0
0,64,105,16
0,64,107,0
0,59,112,2
0,59,110,0
0,61,97,2
0,61,99,0
0,66,84,4
0,66,86,0
0,59,0,4
0,59,0,0
0,64,0,0
0,64,0,0
0,66,0,36
0,66,0,0
0,64,99,0
0,64,101,0
0,59,93,1
0,59,91,0
0,61,0,7
0,61,0,0
0,59,0,14
0,59,0,0
0,64,0,4
0,64,0,0
0,59,98,20
0,59,100,0
0,57,107,2
0,57,105,0
0,61,86,1
0,61,84,0
0,59,0,8
0,59,0,0
0,57,0,39
0,57,0,0
0,59,95,0
0,54,100,0
0,54,98,0
0,59,97,0
0,61,0,3
0,61,0,0
0,40,127,2
0,40,0,1
0,59,0,20
0,59,0,0
0,40,127,3
0,40,0,1
0,54,0,2
0,54,0,0
0,52,115,20
0,52,114,0
0,36,127,1
0,47,127,0
0,47,0,1
0,36,0,0
0,54,121,12
0,54,119,0
0,52,0,2
0,52,0,0
0,54,0,15
0,54,0,0
0,52,112,0
0,52,116,0
0,52,0,15
0,52,0,0
0,49,105,2
0,49,107,0
0,59,117,26
0,71,119,0
0,59,126,0
0,71,115,0
0,59,0,14
0,33,84,1
0,61,117,0
0,49,0,1
0,59,0,0
0,49,0,0
0,71,0,0
0,71,0,1
0,73,126,0
0,52,110,0
0,52,112,0
0,73,116,1
0,61,127,0
0,45,97,1
0,57,97,0
0,36,127,1
0,33,127,0
0,42,127,0
0,59,97,0
0,42,0,1
0,36,0,0
0,61,97,0
0,54,85,18
0,54,83,0
0,52,0,4
0,52,0,0
0,54,0,20
0,54,0,0
0,57,97,0
0,57,95,0
0,35,111,1
0,64,127,0
0,61,0,1
0,61,0,0
0,64,122,0
0,35,94,0
0,33,0,1
0,73,0,0
0,63,112,0
0,76,127,1
0,42,89,0
0,76,121,0
0,42,0,1
0,73,0,0
0,64,88,0
0,57,0,1
0,63,0,0
0,33,0,1
0,61,0,4
0,35,0,6
0,64,0,4
0,35,0,2
0,76,0,2
0,76,0,1
0,57,0,1
0,64,0,0
0,57,0,0
0,64,0,1
0,36,127,20
0,57,110,1
0,57,108,0
0,45,0,1
0,59,0,0
0,36,86,1
0,40,127,1
0,40,0,1
0,57,70,0
0,42,127,0
0,42,0,1
0,36,0,12
0,57,0,1
0,36,0,8
0,61,98,24
0,37,127,0
0,69,98,0
0,66,98,0
0,57,98,0
0,64,98,0
0,49,98,0
0,37,98,1
0,36,127,0
0,36,0,1
0,42,86,1
0,42,0,1
0,57,0,2
0,57,0,0
0,57,102,20
0,57,100,0
0,57,0,14
0,57,0,0
0,36,127,10
0,36,0,1
0,42,99,0
0,42,0,1
0,57,109,22
0,57,111,0
0,57,0,6
0,64,0,4
0,57,0,4
0,57,0,0
0,42,91,9
0,42,0,1
0,61,0,2
0,69,0,16
0,66,0,4
0,54,113,0
0,54,111,0
0,54,0,16
0,54,0,0
0,49,0,5
0,57,74,3
0,42,127,1
0,40,127,0
0,40,0,1
0,37,0,0
0,42,0,0
0,57,111,0
0,57,113,0
0,57,0,18
0,37,0,23
0,57,0,0
0,57,0,0
0,35,127,2
0,57,97,3
0,62,93,0
0,57,95,0
0,69,93,0
0,73,93,0
0,66,93,0
0,47,93,2
0,42,99,1
0,36,127,0
0,35,107,0
0,36,0,1
0,42,0,0
0,57,0,11
0,57,0,0
0,57,113,9
0,57,111,0
0,57,0,20
0,57,0,0
0,52,103,4
0,52,101,0
0,42,107,2
0,42,0,1
0,52,0,17
0,69,0,0
0,35,0,0
0,52,0,0
0,62,0,0
0,54,100,1
0,54,98,0
0,66,0,3
0,54,0,16
0,54,0,0
0,57,110,4
0,57,112,0
0,35,127,1
0,36,127,4
0,36,0,1
0,42,104,1
0,42,0,1
0,57,0,21
0,57,0,0
0,47,0,13
0,35,0,6
0,73,0,0
0,57,122,1
0,57,124,0
0,69,90,1
0,62,78,0
0,66,84,1
0,42,127,1
0,40,127,1
0,40,0,1
0,42,127,1
0,42,0,1
0,57,0,8
0,57,0,0
0,57,103,9
0,57,101,0
0,66,0,3
0,69,0,3
0,57,0,13
0,35,0,0
0,57,0,0
0,62,0,2
0,42,0,2
0,59,111,0
0,59,109,0
0,35,105,1
0,50,76,1
0,36,127,3
0,36,0,1
0,42,109,1
0,42,0,1
0,50,0,0
0,59,0,12
0,59,0,0
0,57,93,4
0,57,91,0
0,57,0,12
0,57,0,0
0,35,0,10
0,72,127,1
0,60,127,1
0,60,127,0
0,59,103,0
0,59,101,0
0,72,123,1
0,62,98,2
0,61,94,0
0,61,92,0
0,40,127,1
0,38,84,0
0,66,98,0
0,69,98,0
0,52,98,0
0,42,111,2
0,36,127,0
0,36,0,1
0,42,0,0
0,59,0,4
0,59,0,0
0,72,0,5
0,60,0,5
0,60,0,2
0,72,0,1
0,71,127,0
0,59,125,1
0,71,112,2
0,59,115,0
0,61,0,1
0,61,0,0
0,40,0,3
0,71,0,9
0,59,0,0
0,66,0,4
0,71,0,1
0,59,0,1
0,57,122,0
0,69,111,1
0,69,112,0
0,38,0,1
0,57,115,2
0,59,100,1
0,40,106,0
0,59,102,0
0,42,109,2
0,42,0,1
0,36,127,0
0,36,0,1
0,62,0,8
0,40,0,1
0,54,109,3
0,54,103,1
0,59,0,1
0,57,0,0
0,59,0,0
0,57,0,0
0,69,0,2
0,66,98,0
0,69,0,1
0,66,117,0
0,40,107,1
0,40,0,11
0,54,0,4
0,69,0,0
0,66,0,0
0,54,0,1
0,66,0,3
0,59,127,4
0,40,94,1
0,71,127,0
0,71,127,1
0,57,110,1
0,57,112,0
0,42,127,0
0,59,127,0
0,42,127,2
0,42,0,1
0,71,86,0
0,40,127,0
0,66,86,0
0,62,86,0
0,40,0,1
0,42,0,7
0,52,0,7
0,40,123,4
0,71,0,5
0,66,0,1
0,40,0,5
0,62,0,2
0,59,0,9
0,57,122,0
0,57,0,1
0,57,0,0
0,71,0,0
0,59,0,0
0,37,127,1
0,69,117,0
0,59,101,1
0,59,103,0
0,71,0,1
0,52,76,0
0,57,127,0
0,69,121,0
0,42,105,3
0,42,0,1
0,52,0,8
0,37,0,1
0,57,0,7
0,57,0,1
0,35,127,0
0,54,105,0
0,69,0,1
0,57,92,0
0,57,94,0
0,59,0,1
0,59,0,0
0,69,0,2
0,54,112,0
0,66,99,0
0,66,115,1
0,35,0,11
0,66,0,1
0,54,0,0
0,54,0,2
0,57,0,3
0,57,0,0
0,66,127,1
0,33,127,2
0,66,0,1
0,40,0,0
0,59,90,0
0,66,127,0
0,52,102,1
0,52,100,0
0,61,98,1
0,57,98,0
0,33,88,0
0,45,98,0
0,78,127,0
0,42,103,1
0,42,0,1
0,36,127,1
0,36,0,1
0,73,127,1
0,78,117,0
0,52,0,11
0,52,0,0
0,54,99,4
0,54,97,0
0,33,0,9
0,57,0,3
0,54,0,8
0,54,0,0
0,33,0,2
0,69,127,2
0,78,0,1
0,66,0,0
0,35,65,0
0,57,100,0
0,35,123,0
0,57,98,0
0,81,127,1
0,61,0,2
0,66,0,0
0,81,125,0
0,42,101,1
0,42,0,1
0,78,0,0
0,64,93,0
0,69,127,0
0,76,127,2
0,81,0,8
0,57,0,2
0,57,0,0
0,73,0,0
0,35,0,1
0,69,0,7
0,81,0,0
0,57,69,0
0,57,67,0
0,69,0,2
0,35,0,1
0,64,0,1
0,57,0,7
0,57,0,0
0,59,0,1
0,76,0,0
0,45,0,10
0,36,127,0
0,57,114,4
0,36,80,0
0,57,57,0
0,57,116,0
0,42,127,1
0,42,0,1
0,40,127,1
0,40,0,1
0,57,0,4
0,36,0,6
0,36,0,15
0,37,127,17
0,69,98,1
0,37,98,0
0,49,98,1
0,61,98,0
0,64,98,0
0,57,98,0
0,42,92,2
0,36,127,0
0,36,0,1
0,42,0,0
0,57,0,6
0,57,0,0
0,57,96,17
0,57,98,0
0,57,0,20
0,57,0,0
0,42,127,3
0,42,0,1
0,36,127,1
0,36,0,1
0,54,105,19
0,54,103,0
0,57,0,9
0,54,0,8
0,54,0,0
0,57,97,7
0,57,95,0
0,42,91,1
0,42,0,1
0,61,0,15
0,64,0,4
0,69,0,8
0,49,0,4
0,57,0,0
0,57,0,0
0,57,112,16
0,57,110,0
0,42,127,1
0,40,127,0
0,40,0,1
0,42,0,0
0,57,60,0
0,37,0,9
0,57,0,3
0,57,0,13
0,57,0,0
0,37,0,2
0,54,80,2
0,54,82,0
0,35,127,2
0,47,93,1
0,66,93,0
0,62,93,0
0,73,93,0
0,69,93,0
0,42,107,1
0,35,94,0
0,42,0,1
0,36,127,0
0,36,0,1
0,54,0,11
0,54,0,0
0,57,94,7
0,57,92,0
0,57,0,21
0,57,0,0
0,52,88,4
0,52,90,0
0,42,115,2
0,42,0,1
0,52,0,17
0,52,0,0
0,54,89,2
0,54,87,0
0,54,0,16
0,54,0,0
0,35,0,3
0,47,125,1
0,57,112,5
0,57,110,0
0,42,96,3
0,42,0,1
0,36,127,0
0,36,0,1
0,47,0,14
0,57,0,11
0,57,0,0
0,47,0,16
0,35,120,1
0,57,107,1
0,57,109,0
0,40,127,4
0,42,127,0
0,42,0,1
0,40,0,0
0,35,0,6
0,57,0,2
0,57,0,0
0,57,100,10
0,57,98,0
0,57,0,18
0,57,0,0
0,69,0,2
0,66,0,0
0,62,0,1
0,35,0,4
0,47,123,0
0,59,111,0
0,59,113,0
0,45,92,3
0,36,127,1
0,36,0,1
0,42,98,0
0,42,0,1
0,59,0,11
0,59,0,0
0,73,0,2
0,57,83,4
0,57,85,0
0,45,0,4
0,47,82,2
0,57,0,7
0,57,0,0
0,47,0,10
0,47,0,1
0,59,94,1
0,59,92,0
0,28,111,0
0,61,98,2
0,61,100,0
0,40,92,1
0,36,127,1
0,36,0,1
0,69,92,0
0,66,92,0
0,42,115,0
0,62,97,0
0,42,0,1
0,59,0,2
0,59,0,0
0,61,0,27
0,61,0,0
0,30,117,13
0,28,0,1
0,59,100,0
0,59,98,0
0,36,127,3
0,42,100,0
0,42,0,1
0,36,0,0
0,59,0,18
0,59,0,0
0,30,0,24
0,69,0,0
0,57,107,1
0,57,109,0
0,66,0,1
0,31,117,0
0,40,127,3
0,40,0,1
0,42,127,0
0,52,84,0
0,42,0,1
0,28,93,0
0,62,0,16
0,40,0,17
0,31,0,7
0,57,0,1
0,57,0,0
0,32,115,2
0,59,109,1
0,59,111,0
0,42,101,2
0,42,0,1
0,59,0,20
0,59,0,0
0,59,116,2
0,61,103,1
0,61,101,0
0,71,115,1
0,59,127,0
0,71,127,0
0,28,0,10
0,52,0,4
0,59,0,4
0,59,0,0
0,71,0,0
0,71,0,0
0,61,127,0
0,33,84,1
0,61,127,0
0,73,127,0
0,33,125,1
0,32,0,1
0,73,122,0
0,61,94,1
0,45,75,0
0,59,102,0
0,52,94,1
0,42,126,0
0,52,96,0
0,42,0,1
0,61,0,0
0,61,0,0
0,36,127,1
0,36,0,1
0,33,0,14
0,52,0,3
0,52,0,0
0,54,85,3
0,54,87,0
0,33,0,8
0,54,0,9
0,54,0,0
0,61,0,4
0,76,126,0
0,61,0,1
0,35,86,1
0,64,127,0
0,61,0,1
0,73,0,0
0,57,109,0
0,64,88,0
0,64,127,0
0,57,107,0
0,35,127,0
0,76,127,0
0,73,0,1
0,42,91,0
0,42,0,1
0,35,0,16
0,76,0,0
0,57,0,1
0,57,0,0
0,35,0,1
0,64,0,0
0,64,0,4
0,64,0,0
0,76,0,5
0,59,0,3
0,45,0,6
0,36,127,7
0,57,59,3
0,36,84,0
0,57,117,1
0,42,127,0
0,57,119,0
0,40,127,0
0,40,0,1
0,42,0,0
0,57,0,11
0,36,0,2
0,36,0,10
0,57,0,20
0,57,0,0
0,37,101,2
0,37,123,0
0,49,101,1
0,69,101,0
0,61,101,0
0,42,95,0
0,57,101,0
0,64,101,0
0,66,101,0
0,42,0,1
0,36,127,0
0,36,0,1
0,57,93,24
0,57,95,0
0,57,0,22
0,57,0,0
0,42,123,0
0,42,0,1
0,36,127,1
0,36,0,1
0,57,105,24
0,57,107,0
0,57,0,5
0,57,0,12
0,57,0,0
0,42,102,4
0,42,0,1
0,64,0,15
0,61,0,4
0,54,95,4
0,54,93,0
0,69,0,5
0,66,0,4
0,54,0,7
0,54,0,0
0,57,84,7
0,57,124,1
0,57,126,0
0,42,127,0
0,42,0,1
0,49,0,0
0,40,127,0
0,40,0,1
0,37,0,1
0,57,0,16
0,37,0,13
0,57,0,8
0,57,0,0
0,35,113,6
0,57,95,1
0,57,97,0
0,35,102,0
0,66,98,1
0,73,98,0
0,69,98,0
0,62,98,0
0,47,98,0
0,42,91,1
0,42,0,1
0,36,127,0
0,36,0,1
0,57,0,9
0,57,0,0
0,57,89,9
0,57,91,0
0,57,0,19
0,57,0,0
0,52,84,5
0,52,86,0
0,52,104,1
0,42,115,3
0,42,0,1
0,35,0,12
0,52,0,2
0,52,0,0
0,69,0,0
0,62,0,4
0,66,0,1
0,54,95,1
0,52,0,2
0,54,94,0
0,54,96,0
0,54,0,16
0,54,0,0
0,47,115,5
0,57,109,1
0,57,111,0
0,42,84,2
0,42,0,1
0,36,127,0
0,36,0,1
0,54,0,2
0,57,0,20
0,57,0,0
0,47,0,18
0,73,0,2
0,57,119,3
0,57,117,0
0,66,78,1
0,54,95,0
0,69,90,0
0,62,78,0
0,42,127,1
0,40,127,0
0,40,0,1
0,42,0,0
0,47,0,1
0,57,0,13
0,57,0,0
0,66,0,4
0,69,0,0
0,57,99,4
0,57,97,0
0,35,0,2
0,62,0,6
0,57,0,10
0,57,0,0
0,59,100,4
0,59,102,0
0,47,97,0
0,50,65,1
0,54,0,1
0,36,127,1
0,42,94,0
0,42,0,1
0,36,0,0
0,50,0,5
0,59,0,9
0,59,0,0
0,57,91,5
0,57,89,0
0,57,0,11
0,57,0,0
0,60,127,11
0,60,127,0
0,72,127,2
0,59,105,0
0,52,113,0
0,59,107,0
0,47,0,2
0,62,97,0
0,72,127,0
0,52,97,0
0,69,97,0
0,66,97,1
0,61,119,0
0,61,121,0
0,42,118,1
0,36,127,0
0,36,0,1
0,42,0,0
0,59,0,6
0,59,0,0
0,72,0,9
0,60,0,3
0,72,0,0
0,71,126,2
0,71,113,0
0,59,127,1
0,60,0,1
0,59,127,0
0,61,0,10
0,61,0,0
0,66,0,2
0,71,0,2
0,69,98,2
0,59,0,1
0,71,0,4
0,57,116,0
0,69,127,0
0,59,0,3
0,42,87,0
0,59,111,0
0,59,113,0
0,57,119,0
0,42,0,1
0,36,127,0
0,36,0,1
0,62,0,5
0,69,0,1
0,57,0,2
0,54,109,0
0,66,107,0
0,66,123,1
0,54,100,0
0,69,0,1
0,59,0,0
0,59,0,0
0,57,0,2
0,54,0,3
0,66,0,7
0,66,0,2
0,69,0,4
0,54,97,2
0,71,127,1
0,54,0,1
0,66,86,0
0,71,127,0
0,59,127,0
0,62,84,0
0,71,94,0
0,28,84,0
0,59,127,0
0,52,0,1
0,57,107,0
0,57,109,0
0,40,127,0
0,40,0,1
0,42,127,0
0,42,0,1
0,52,0,16
0,71,0,5
0,66,0,0
0,62,0,12
0,59,0,8
0,59,0,1
0,59,105,0
0,57,127,0
0,59,103,0
0,71,0,2
0,57,0,0
0,71,0,0
0,57,0,0
0,69,126,0
0,52,77,0
0,69,127,0
0,57,119,1
0,42,91,3
0,42,0,1
0,52,0,7
0,57,0,9
0,57,0,1
0,59,0,0
0,59,0,0
0,69,0,1
0,69,0,1
0,66,127,0
0,57,87,1
0,57,85,0
0,54,94,0
0,54,112,1
0,66,127,0
0,28,0,1
0,54,0,1
0,40,109,1
0,66,0,9
