track,note,velocity,time
1,83,127,284
1,79,120,0
1,88,122,0
1,76,127,0
1,79,0,71
1,79,104,1
1,79,0,21
1,83,0,0
1,83,123,3
1,79,88,0
1,79,0,45
1,83,0,0
1,88,0,0
1,88,111,1
1,79,101,0
1,83,93,1
1,76,0,30
1,83,0,8
1,79,0,1
1,88,0,0
1,81,114,8
1,86,120,0
1,74,101,1
1,78,98,0
1,81,0,83
1,86,0,2
1,74,0,5
1,78,0,3
1,81,125,3
1,88,125,0
1,76,107,0
1,78,100,1
1,88,0,43
1,74,103,4
1,86,116,1
1,81,0,33
1,76,0,3
1,78,0,8
1,74,0,1
1,86,0,3
1,88,116,0
1,83,120,0
1,76,109,0
1,79,105,0
1,79,0,88
1,79,103,8
1,79,0,45
1,88,0,0
1,76,0,1
1,79,123,1
1,88,109,0
1,76,99,1
1,83,0,26
1,76,0,11
1,88,0,4
1,79,0,0
1,81,114,6
1,78,103,0
1,86,114,1
1,74,93,0
1,74,0,85
1,86,0,0
1,78,0,2
1,72,85,8
1,78,101,0
1,84,115,0
1,71,93,47
1,83,125,1
1,84,0,2
1,81,0,20
1,78,0,18
1,83,0,0
1,71,0,1
1,72,0,3
1,76,126,4
1,85,126,1
1,81,126,0
1,73,126,0
1,73,0,85
1,85,0,4
1,81,0,1
1,71,103,5
1,83,127,0
1,81,120,0
1,81,0,36
1,71,0,6
1,73,117,4
1,85,117,1
1,81,117,0
1,83,0,39
1,76,0,3
1,81,0,0
1,73,0,2
1,85,0,2
1,75,101,2
1,83,127,1
1,78,101,0
1,87,107,0
1,78,0,78
1,87,0,10
1,75,0,0
1,85,111,9
1,73,98,0
1,78,93,0
1,83,0,8
1,85,0,33
1,73,0,4
1,75,98,2
1,87,111,0
1,87,0,34
1,78,0,3
1,75,0,9
1,83,127,2
1,88,123,0
1,76,127,0
1,81,123,0
1,83,0,169
1,81,0,4
1,76,0,5
1,88,0,4
1,88,125,9
1,76,103,0
1,83,127,1
1,80,127,0
1,80,0,90
1,83,0,0
1,76,0,1
1,88,0,0
1,88,123,4
1,78,99,1
1,83,123,0
1,76,102,0
1,76,0,86
1,83,0,2
1,78,0,2
1,88,0,3
1,76,102,3
1,83,127,1
1,88,127,0
1,80,103,0
1,83,0,261
1,76,0,31
1,80,0,21
1,88,0,1
1,76,122,207
1,79,99,8
1,76,0,4
1,81,127,2
1,79,0,5
1,83,127,2
1,81,0,3
1,88,127,2
1,83,0,2
1,91,127,4
1,88,0,2
1,93,127,5
1,91,0,1
1,95,127,4
1,93,0,3
1,98,127,0
1,95,0,5
1,100,127,2
1,98,0,3
1,98,127,3
1,95,127,8
1,98,0,1
1,93,127,7
1,95,0,1
1,100,0,5
1,93,0,1
1,91,122,0
1,90,122,6
1,91,0,1
1,90,0,6
1,88,127,1
1,88,0,11
1,93,127,0
1,93,0,8
1,91,127,0
1,90,119,7
1,91,0,1
1,88,127,7
1,90,0,1
1,86,122,6
1,88,0,1
1,86,0,8
1,83,122,0
1,86,127,7
1,86,0,7
1,88,127,0
1,83,0,7
1,90,127,0
1,88,0,1
1,90,0,9
1,91,125,3
1,90,122,8
1,91,0,2
1,88,122,5
1,90,0,2
1,88,0,6
1,86,120,0
1,83,127,6
1,86,0,1
1,81,127,7
1,83,0,2
1,79,120,4
1,81,0,1
1,79,0,7
1,76,127,0
1,74,127,7
1,76,0,1
1,74,0,5
1,76,127,1
1,76,0,19
1,83,98,3819
1,86,90,11
1,88,97,10
1,86,0,9
1,93,96,1
1,88,0,6
1,86,89,12
1,93,0,183
1,83,0,2
1,86,0,8
1,83,98,7438
1,86,90,11
1,88,97,10
1,86,0,9
1,93,96,1
1,88,0,6
1,86,89,12
1,93,0,183
1,83,0,2
1,86,0,8
1,79,115,18426
1,82,94,8
1,79,0,4
1,84,122,2
1,82,0,5
1,86,127,2
1,84,0,3
1,91,120,2
1,86,0,2
1,94,120,4
1,91,0,2
1,96,127,5
1,94,0,1
1,98,127,4
1,96,0,3
1,101,124,0
1,98,0,5
1,103,127,2
1,101,0,3
1,101,127,3
1,98,127,8
1,101,0,1
1,96,120,7
1,98,0,1
1,103,0,5
1,96,0,1
1,94,115,0
1,93,115,6
1,94,0,1
1,93,0,6
1,91,127,1
1,91,0,11
1,96,127,0
1,96,0,8
1,94,124,0
1,93,111,7
1,94,0,1
1,91,122,7
1,93,0,1
1,89,115,6
1,91,0,1
1,89,0,8
1,86,115,0
1,89,126,7
1,89,0,7
1,91,127,0
1,86,0,7
1,93,124,0
1,91,0,1
1,93,0,9
1,94,117,3
1,93,115,8
1,94,0,2
1,91,115,5
1,93,0,2
1,91,0,6
1,89,113,0
1,86,127,6
1,89,0,1
1,84,127,7
1,86,0,2
1,82,113,4
1,84,0,1
1,82,0,7
1,79,120,0
1,77,124,7
1,79,0,1
1,77,0,5
1,79,127,1
1,79,0,35
2,40,88,279
2,35,105,189
2,40,0,6
2,36,97,187
2,35,0,3
2,36,0,186
2,31,90,1
2,33,82,193
2,31,0,6
2,35,96,190
2,33,0,7
2,28,89,182
2,35,0,3
2,28,0,156
2,28,89,35
2,28,0,185
2,54,81,4
2,56,95,3
2,54,0,13
2,28,87,89
2,56,0,187
2,28,0,64
2,40,94,1
2,40,0,28
2,38,96,18
2,35,86,24
2,38,0,5
2,33,80,19
2,35,0,3
2,35,94,22
2,33,0,1
2,35,0,33
2,33,82,36
2,33,0,20
2,35,83,4
2,35,0,25
2,38,90,0
2,38,0,26
2,33,87,22
2,33,0,21
2,35,94,3
2,35,0,31
2,40,101,43
2,40,0,25
2,38,93,23
2,35,87,22
2,38,0,3
2,33,79,22
2,35,0,1
2,33,0,21
2,35,93,1
2,35,0,30
2,33,85,41
2,33,0,21
2,35,87,4
2,38,92,24
2,35,0,1
2,38,0,26
2,33,84,22
2,33,0,17
2,35,87,7
2,35,0,34
2,40,96,37
2,40,0,27
2,38,94,21
2,35,87,24
2,38,0,3
2,33,85,21
2,35,0,1
2,33,0,20
2,35,97,3
2,47,79,26
2,35,0,2
2,47,0,27
2,33,83,17
2,33,0,20
2,35,86,4
2,38,87,24
2,35,0,2
2,38,0,28
2,33,83,18
2,35,110,26
2,33,0,2
2,35,0,20
2,35,78,3
2,35,0,16
2,47,94,7
2,47,0,24
2,40,94,1
2,40,0,39
2,38,94,8
2,35,87,24
2,38,0,3
2,35,0,18
2,33,83,3
2,33,0,18
2,35,91,5
2,35,0,26
2,33,80,45
2,33,0,19
2,35,90,4
2,35,0,21
2,38,91,4
2,38,0,25
2,33,84,25
2,33,0,17
2,35,83,4
2,47,83,24
2,35,0,1
2,47,0,16
2,47,82,7
2,47,0,23
2,40,94,1
2,40,0,39
2,38,93,9
2,38,0,23
2,35,83,1
2,35,0,23
2,33,85,1
2,33,0,20
2,35,94,4
2,35,0,33
2,33,81,39
2,33,0,22
2,35,87,2
2,35,0,25
2,38,91,0
2,38,0,21
2,33,91,27
2,33,0,21
2,35,91,3
2,47,90,26
2,35,0,16
2,47,0,7
2,40,91,23
2,40,0,39
2,38,95,9
2,38,0,21
2,35,84,2
2,35,0,24
2,33,84,1
2,33,0,22
2,35,91,2
2,35,0,44
2,33,80,27
2,33,0,24
2,35,87,0
2,38,91,25
2,35,0,2
2,38,0,22
2,33,92,24
2,33,0,21
2,35,90,3
2,35,0,23
2,47,85,3
2,47,0,22
2,40,94,24
2,40,0,35
2,38,94,13
2,38,0,23
2,35,83,1
2,35,0,25
2,33,90,0
2,33,0,18
2,35,85,5
2,35,0,33
2,33,83,39
2,33,0,21
2,35,89,2
2,38,94,25
2,35,0,3
2,38,0,25
2,33,84,20
2,33,0,23
2,35,95,1
2,35,0,34
2,40,99,38
2,40,0,35
2,38,102,13
2,35,92,24
2,38,0,1
2,33,102,25
2,35,0,2
2,33,0,15
2,35,98,5
2,35,0,35
2,33,95,39
2,33,0,21
2,35,104,1
2,38,94,26
2,35,0,1
2,38,0,34
2,33,90,13
2,33,0,19
2,35,100,3
2,35,0,23
2,30,87,0
2,30,0,25
2,35,104,0
2,28,104,24
2,35,0,2
2,28,0,17
2,33,100,6
2,33,0,26
2,45,97,45
2,45,0,19
2,33,86,4
2,33,0,53
2,34,86,19
2,35,94,24
2,34,0,2
2,47,91,23
2,35,0,7
2,47,0,16
2,35,105,24
2,35,0,13
2,35,97,11
2,35,0,43
2,35,97,29
2,35,0,24
2,36,101,3
2,48,90,22
2,36,0,7
2,48,0,20
2,36,106,22
2,36,0,11
2,36,90,12
2,36,0,38
2,36,113,34
2,36,0,23
2,38,99,1
2,50,94,24
2,38,0,3
2,50,0,16
2,38,94,29
2,38,0,23
2,50,86,1
2,38,96,48
2,50,0,1
2,38,0,46
2,36,90,0
2,48,92,25
2,36,0,11
2,48,0,18
2,36,99,19
2,36,0,11
2,36,97,12
2,36,0,41
2,36,97,31
2,36,0,24
2,38,85,1
2,50,89,23
2,38,0,5
2,50,0,23
2,38,106,19
2,38,0,8
2,38,95,17
2,38,0,54
2,35,99,21
2,35,0,21
2,40,87,1
2,52,91,24
2,40,0,3
2,52,0,21
2,40,106,23
2,40,0,14
2,40,101,10
2,40,0,10
2,40,110,14
2,40,0,41
2,35,95,6
2,35,0,22
2,40,105,2
2,52,85,25
2,40,0,4
2,52,0,23
2,40,113,21
2,40,0,12
2,40,105,12
2,40,0,43
2,40,101,30
2,40,0,24
2,33,80,2
2,45,103,25
2,33,0,13
2,45,0,5
2,33,94,29
2,33,0,13
2,33,106,11
2,33,0,35
2,34,91,35
2,34,0,25
2,35,97,1
2,47,94,24
2,35,0,1
2,47,0,21
2,35,101,23
2,35,0,12
2,35,99,12
2,35,0,31
2,35,97,17
2,35,0,42
2,36,101,6
2,48,86,24
2,36,0,12
2,48,0,15
2,36,106,21
2,36,0,9
2,36,118,15
2,36,0,38
2,33,89,34
2,33,0,24
2,38,99,1
2,50,94,24
2,38,0,7
2,50,0,8
2,38,101,32
2,38,0,12
2,38,96,13
2,38,0,42
2,37,91,5
2,37,0,46
2,36,96,2
2,48,86,25
2,36,0,7
2,48,0,15
2,36,95,25
2,36,0,13
2,36,103,11
2,36,0,43
2,36,110,30
2,36,0,22
2,38,95,2
2,50,91,24
2,38,0,3
2,50,0,22
2,38,99,22
2,38,0,12
2,38,120,12
2,38,0,33
2,38,106,16
2,38,0,42
2,35,103,5
2,47,94,25
2,35,0,10
2,47,0,13
2,35,97,25
2,35,0,13
2,35,96,11
2,35,0,36
2,33,89,35
2,33,0,24
2,35,120,1
2,47,90,25
2,35,0,3
2,47,0,26
2,35,103,17
2,35,0,12
2,35,106,12
2,35,0,30
2,35,101,14
2,35,0,21
2,38,87,3
2,38,0,21
2,40,96,8
2,40,0,19
2,40,92,4
2,40,0,28
2,35,107,20
2,35,0,15
2,35,107,9
2,35,0,47
2,40,97,27
2,40,0,17
2,42,85,5
2,42,0,14
2,42,96,10
2,42,0,30
2,42,85,17
2,42,0,14
2,42,85,11
2,42,0,46
2,38,92,28
2,38,0,19
2,43,105,4
2,43,0,16
2,43,93,8
2,43,0,32
2,38,99,15
2,38,0,17
2,38,97,7
2,38,0,36
2,43,94,35
2,43,0,15
2,43,93,10
2,43,0,16
2,43,96,8
2,43,0,23
2,43,90,24
2,43,0,15
2,43,94,10
2,43,0,22
2,42,94,2
2,42,0,72
2,40,93,0
2,40,0,21
2,40,96,7
2,40,0,24
2,35,97,24
2,35,0,12
2,35,110,9
2,35,0,41
2,40,94,31
2,40,0,20
2,42,94,3
2,42,0,18
2,42,91,6
2,42,0,24
2,38,90,24
2,38,0,16
2,38,110,8
2,38,0,41
2,38,103,31
2,38,0,18
2,43,94,6
2,43,0,15
2,43,95,9
2,43,0,24
2,38,84,22
2,38,0,16
2,38,105,9
2,38,0,46
2,43,87,27
2,43,0,16
2,43,101,8
2,43,0,42
2,45,94,30
2,47,99,26
2,45,0,2
2,42,89,21
2,47,0,1
2,42,0,70
2,40,94,2
2,40,0,20
2,40,97,6
2,40,0,22
2,35,94,24
2,35,0,12
2,35,113,10
2,35,0,46
2,40,94,27
2,40,0,18
2,42,94,5
2,42,0,13
2,42,89,12
2,42,0,31
2,38,94,16
2,38,0,17
2,38,107,7
2,38,0,39
2,38,91,35
2,38,0,15
2,43,103,9
2,43,0,13
2,43,86,11
2,43,0,23
2,43,95,23
2,43,0,15
2,43,94,9
2,43,0,48
2,38,92,27
2,38,0,18
2,43,97,3
2,43,0,15
2,43,83,11
2,43,0,22
2,43,92,24
2,43,0,12
2,43,95,12
2,43,0,16
2,33,113,8
2,33,0,71
2,35,127,1
2,35,0,52
2,35,101,20
2,35,0,16
2,35,110,8
2,35,0,54
2,35,115,22
2,35,0,13
2,35,127,7
2,35,0,57
2,35,113,18
2,35,0,17
2,35,120,6
2,35,0,14
2,40,94,7
2,42,80,24
2,40,0,4
2,49,88,18
2,42,0,4
2,47,115,23
2,49,0,3
2,47,0,65
2,39,91,4
2,39,0,20
2,35,105,4
2,35,0,60
2,35,95,13
2,35,0,15
2,35,127,9
2,35,0,49
2,35,107,24
2,35,0,12
2,35,118,10
2,35,0,64
2,40,118,8
2,40,0,27
2,38,96,22
2,35,86,24
2,38,0,5
2,33,80,19
2,35,0,3
2,35,94,22
2,33,0,1
2,35,0,33
2,33,82,36
2,33,0,20
2,35,83,4
2,35,0,25
2,38,90,0
2,38,0,26
2,33,87,22
2,33,0,21
2,35,94,3
2,35,0,31
2,40,101,43
2,40,0,25
2,38,93,23
2,35,87,22
2,38,0,3
2,33,79,22
2,35,0,1
2,33,0,21
2,35,93,1
2,35,0,30
2,33,85,41
2,33,0,21
2,35,87,4
2,38,92,24
2,35,0,1
2,38,0,26
2,33,84,22
2,33,0,17
2,35,87,7
2,35,0,34
2,40,96,37
2,40,0,27
2,38,94,21
2,35,87,24
2,38,0,3
2,33,85,21
2,35,0,1
2,33,0,20
2,35,97,3
2,47,79,26
2,35,0,2
2,47,0,27
2,33,83,17
2,33,0,20
2,35,86,4
2,38,87,24
2,35,0,2
2,38,0,28
2,33,83,18
2,35,110,26
2,33,0,2
2,35,0,20
2,35,78,3
2,35,0,16
2,47,94,7
2,47,0,24
2,40,94,1
2,40,0,39
2,38,94,8
2,35,87,24
2,38,0,3
2,35,0,18
2,33,83,3
2,33,0,18
2,35,91,5
2,35,0,26
2,33,80,45
2,33,0,19
2,35,90,4
2,35,0,21
2,38,91,4
2,38,0,25
2,33,84,25
2,33,0,17
2,35,83,4
2,35,0,25
2,35,83,25
2,35,0,25
2,33,113,23
2,33,0,26
2,45,97,45
2,45,0,19
2,33,86,4
2,33,0,53
2,34,86,19
2,35,94,24
2,34,0,2
2,47,91,23
2,35,0,7
2,47,0,16
2,35,105,24
2,35,0,13
2,35,97,11
2,35,0,43
2,35,97,29
2,35,0,24
2,36,101,3
2,48,90,22
2,36,0,7
2,48,0,20
2,36,106,22
2,36,0,11
2,36,90,12
2,36,0,38
2,36,113,34
2,36,0,23
2,38,99,1
2,50,94,24
2,38,0,3
2,50,0,16
2,38,94,29
2,38,0,23
2,50,86,1
2,38,96,48
2,50,0,1
2,38,0,46
2,36,90,0
2,48,92,25
2,36,0,11
2,48,0,18
2,36,99,19
2,36,0,11
2,36,97,12
2,36,0,41
2,36,97,31
2,36,0,24
2,38,85,1
2,50,89,23
2,38,0,5
2,50,0,23
2,38,106,19
2,38,0,8
2,38,95,17
2,38,0,54
2,35,99,21
2,35,0,21
2,40,87,1
2,52,91,24
2,40,0,3
2,52,0,21
2,40,106,23
2,40,0,14
2,40,101,10
2,40,0,10
2,40,110,14
2,40,0,41
2,35,95,6
2,35,0,22
2,40,105,2
2,52,85,25
2,40,0,4
2,52,0,23
2,40,113,21
2,40,0,12
2,40,105,12
2,40,0,43
2,40,101,30
2,40,0,24
2,33,80,2
2,45,103,25
2,33,0,13
2,45,0,5
2,33,94,29
2,33,0,13
2,33,106,11
2,33,0,35
2,34,91,35
2,34,0,25
2,35,97,1
2,47,94,24
