track,note,velocity,time
0,64,78,592
0,69,90,0
0,69,112,0
0,64,100,0
0,66,103,1
0,66,81,0
0,71,74,6
0,71,96,0
0,64,0,2
0,64,0,0
0,69,0,2
0,69,0,0
0,64,71,37
0,64,93,0
0,69,101,2
0,69,79,0
0,66,0,1
0,66,0,0
0,71,0,4
0,71,0,0
0,64,0,18
0,64,0,0
0,69,0,6
0,69,0,0
0,64,107,16
0,64,85,0
0,59,90,2
0,59,112,0
0,61,99,2
0,61,77,0
0,66,86,4
0,66,64,0
0,59,0,4
0,59,0,0
0,64,0,0
0,64,0,0
0,66,0,36
0,66,0,0
0,64,101,0
0,64,79,0
0,59,93,1
0,59,71,0
0,61,0,7
0,61,0,0
0,59,0,14
0,59,0,0
0,64,0,4
0,64,0,0
0,59,100,20
0,59,78,0
0,57,107,2
0,57,85,0
0,61,86,1
0,61,64,0
0,59,0,8
0,59,0,0
0,57,0,39
0,57,0,0
0,54,100,0
0,54,78,0
0,59,97,0
0,59,75,0
0,61,0,3
0,61,0,0
0,40,100,2
0,40,0,1
0,59,0,20
0,59,0,0
0,40,78,3
0,40,0,1
0,54,0,2
0,54,0,0
0,52,94,20
0,52,115,0
0,47,108,1
0,36,100,0
0,36,0,1
0,47,0,0
0,54,121,12
0,54,99,0
0,52,0,2
0,52,0,0
0,54,0,15
0,54,0,0
0,52,116,0
0,52,92,0
0,52,0,15
0,52,0,0
0,49,107,2
0,49,85,0
0,59,96,26
0,71,89,0
0,59,87,0
0,71,85,1
0,59,0,14
0,61,87,1
0,33,84,0
0,49,0,1
0,59,0,0
0,49,0,0
0,71,0,0
0,71,0,1
0,73,96,0
0,52,90,0
0,52,112,0
0,61,103,1
0,73,86,0
0,57,97,1
0,45,97,0
0,42,86,1
0,33,107,0
0,36,111,0
0,59,97,0
0,36,0,1
0,42,0,0
0,61,97,0
0,54,63,18
0,54,85,0
0,52,0,4
0,52,0,0
0,54,0,20
0,54,0,0
0,57,97,0
0,57,75,0
0,35,81,1
0,64,109,0
0,61,0,1
0,61,0,0
0,64,92,0
0,35,94,0
0,33,0,1
0,73,0,0
0,63,82,0
0,76,97,1
0,42,39,0
0,76,91,0
0,42,0,1
0,73,0,0
0,64,88,0
0,57,0,1
0,63,0,0
0,33,0,1
0,61,0,4
0,35,0,6
0,64,0,4
0,35,0,2
0,76,0,2
0,76,0,1
0,64,0,1
0,57,0,0
0,57,0,0
0,64,0,1
0,36,98,20
0,57,110,1
0,57,88,0
0,45,0,1
0,59,0,0
0,36,86,1
0,40,105,1
0,40,0,1
0,42,98,0
0,57,70,0
0,42,0,1
0,36,0,12
0,57,0,1
0,36,0,8
0,66,98,24
0,37,107,0
0,69,98,0
0,64,98,0
0,61,98,0
0,57,98,0
0,49,98,0
0,36,99,1
0,37,98,0
0,36,0,1
0,42,36,1
0,42,0,1
0,57,0,2
0,57,0,0
0,57,80,20
0,57,102,0
0,57,0,14
0,57,0,0
0,36,110,10
0,36,0,1
0,42,49,0
0,42,0,1
0,57,89,22
0,57,111,0
0,57,0,6
0,64,0,4
0,57,0,4
0,57,0,0
0,42,41,9
0,42,0,1
0,61,0,2
0,69,0,16
0,66,0,4
0,54,113,0
0,54,91,0
0,54,0,16
0,54,0,0
0,49,0,5
0,57,74,3
0,42,90,1
0,40,100,0
0,40,0,1
0,37,0,0
0,42,0,0
0,57,113,0
0,57,91,0
0,57,0,18
0,37,0,23
0,57,0,0
0,57,0,0
0,35,104,2
0,57,75,3
0,69,93,0
0,66,93,0
0,73,93,0
0,62,93,0
0,57,97,0
0,47,93,2
0,35,107,1
0,42,49,0
0,36,110,0
0,36,0,1
0,42,0,0
0,57,0,11
0,57,0,0
0,57,113,9
0,57,91,0
0,57,0,20
0,57,0,0
0,52,103,4
0,52,81,0
0,42,57,2
0,42,0,1
0,52,0,17
0,35,0,0
0,52,0,0
0,62,0,0
0,69,0,0
0,54,78,1
0,54,100,0
0,66,0,3
0,54,0,16
0,54,0,0
0,57,90,4
0,57,112,0
0,35,104,1
0,36,102,4
0,36,0,1
0,42,54,1
0,42,0,1
0,57,0,21
0,57,0,0
0,47,0,13
0,73,0,6
0,35,0,0
0,57,102,1
0,57,124,0
0,69,90,1
0,62,78,0
0,66,84,1
0,42,107,1
0,40,105,1
0,40,0,1
0,42,95,1
0,42,0,1
0,57,0,8
0,57,0,0
0,57,81,9
0,57,103,0
0,66,0,3
0,69,0,3
0,57,0,13
0,35,0,0
0,57,0,0
0,62,0,2
0,42,0,2
0,59,89,0
0,59,111,0
0,35,75,1
0,50,76,1
0,36,96,3
0,36,0,1
0,42,59,1
0,42,0,1
0,50,0,0
0,59,0,12
0,59,0,0
0,57,71,4
0,57,93,0
0,57,0,12
0,57,0,0
0,35,0,10
0,72,114,1
0,59,81,1
0,60,99,0
0,59,103,0
0,60,98,0
0,72,93,1
0,61,94,2
0,61,72,0
0,62,98,0
0,38,84,1
0,40,104,0
0,66,98,0
0,52,98,0
0,69,98,0
0,42,61,2
0,36,105,0
0,36,0,1
0,42,0,0
0,59,0,4
0,59,0,0
0,72,0,5
0,60,0,5
0,60,0,2
0,72,0,1
0,71,103,0
0,59,95,1
0,71,82,2
0,59,85,0
0,61,0,1
0,61,0,0
0,40,0,3
0,71,0,9
0,59,0,0
0,66,0,4
0,71,0,1
0,59,0,1
0,57,92,0
0,69,82,1
0,69,81,0
0,38,0,1
0,57,85,2
0,59,80,1
0,40,76,0
0,59,102,0
0,42,59,2
0,42,0,1
0,36,100,0
0,36,0,1
0,62,0,8
0,40,0,1
0,54,79,3
0,54,73,1
0,59,0,1
0,57,0,0
0,59,0,0
0,57,0,0
0,69,0,2
0,66,68,0
0,69,0,1
0,66,87,0
0,40,77,1
0,40,0,11
0,54,0,4
0,69,0,0
0,66,0,0
0,54,0,1
0,66,0,3
0,59,108,4
0,71,114,1
0,40,94,0
0,71,100,1
0,57,112,1
0,57,90,0
0,59,118,0
0,42,107,0
0,42,100,2
0,42,0,1
0,66,86,0
0,40,108,0
0,62,86,0
0,71,86,0
0,40,0,1
0,42,0,7
0,52,0,7
0,40,93,4
0,71,0,5
0,66,0,1
0,40,0,5
0,62,0,2
0,59,0,9
0,57,92,0
0,57,0,1
0,59,0,0
0,71,0,0
0,57,0,0
0,37,107,1
0,69,87,0
0,59,81,1
0,59,103,0
0,71,0,1
0,57,103,0
0,69,91,0
0,52,76,0
0,42,55,3
0,42,0,1
0,52,0,8
0,37,0,1
0,57,0,7
0,57,0,1
0,54,75,0
0,35,100,0
0,69,0,1
0,57,94,0
0,57,72,0
0,59,0,1
0,59,0,0
0,69,0,2
0,66,69,0
0,54,82,0
0,66,85,1
0,35,0,11
0,66,0,1
0,54,0,0
0,54,0,2
0,57,0,3
0,57,0,0
0,66,102,1
0,33,107,2
0,66,0,1
0,40,0,0
0,59,90,0
0,66,97,0
0,52,102,1
0,52,80,0
0,45,98,1
0,57,98,0
0,61,98,0
0,78,105,0
0,33,88,0
0,42,53,1
0,42,0,1
0,36,110,1
0,36,0,1
0,73,105,1
0,78,87,0
0,52,0,11
0,52,0,0
0,54,77,4
0,54,99,0
0,33,0,9
0,57,0,3
0,54,0,8
0,54,0,0
0,33,0,2
0,69,101,2
0,66,0,1
0,78,0,0
0,35,65,0
0,57,78,0
0,57,100,0
0,35,93,0
0,81,103,1
0,61,0,2
0,66,0,0
0,81,95,0
0,42,51,1
0,42,0,1
0,78,0,0
0,64,93,0
0,69,120,0
0,76,100,2
0,81,0,8
0,57,0,2
0,57,0,0
0,73,0,0
0,35,0,1
0,69,0,7
0,81,0,0
0,57,47,0
0,57,69,0
0,69,0,2
0,35,0,1
0,64,0,1
0,57,0,7
0,57,0,0
0,59,0,1
0,76,0,0
0,45,0,10
0,36,107,0
0,57,116,4
0,57,94,0
0,57,57,0
0,36,80,0
0,42,98,1
0,42,0,1
0,40,105,1
0,40,0,1
0,57,0,4
0,36,0,6
0,36,0,15
0,37,107,17
0,37,98,1
0,69,98,0
0,64,98,1
0,61,98,0
0,57,98,0
0,49,98,0
0,42,42,2
0,36,108,0
0,36,0,1
0,42,0,0
0,57,0,6
0,57,0,0
0,57,76,17
0,57,98,0
0,57,0,20
0,57,0,0
0,42,86,3
0,42,0,1
0,36,110,1
0,36,0,1
0,54,105,19
0,54,83,0
0,57,0,9
0,54,0,8
0,54,0,0
0,57,97,7
0,57,75,0
0,42,41,1
0,42,0,1
0,61,0,15
0,64,0,4
0,69,0,8
0,57,0,4
0,57,0,0
0,49,0,0
0,57,90,16
0,57,112,0
0,40,108,1
0,42,99,0
0,42,0,1
0,40,0,0
0,57,60,0
0,37,0,9
0,57,0,3
0,57,0,13
0,57,0,0
0,37,0,2
0,54,60,2
0,54,82,0
0,35,104,2
0,62,93,1
0,69,93,0
0,47,93,0
0,73,93,0
0,66,93,0
0,35,94,1
0,42,57,0
0,42,0,1
0,36,110,0
0,36,0,1
0,54,0,11
0,54,0,0
0,57,94,7
0,57,72,0
0,57,0,21
0,57,0,0
0,52,68,4
0,52,90,0
0,42,65,2
0,42,0,1
0,52,0,17
0,52,0,0
0,54,67,2
0,54,89,0
0,54,0,16
0,54,0,0
0,35,0,3
0,47,95,1
0,57,90,5
0,57,112,0
0,42,46,3
0,42,0,1
0,36,109,0
0,36,0,1
0,47,0,14
0,57,0,11
0,57,0,0
0,47,0,16
0,35,90,1
0,57,109,1
0,57,87,0
0,42,100,4
0,40,102,0
0,40,0,1
0,42,0,0
0,35,0,6
0,57,0,2
0,57,0,0
0,57,100,10
0,57,78,0
0,57,0,18
0,57,0,0
0,69,0,2
0,66,0,0
0,62,0,1
0,35,0,4
0,59,113,0
0,59,91,0
0,47,93,0
0,45,92,3
0,36,96,1
0,36,0,1
0,42,48,0
0,42,0,1
0,59,0,11
0,59,0,0
0,73,0,2
0,57,63,4
0,57,85,0
0,45,0,4
0,47,82,2
0,57,0,7
0,57,0,0
0,47,0,10
0,47,0,1
0,59,94,1
0,28,81,0
0,59,72,0
0,61,78,2
0,61,100,0
0,40,92,1
0,36,108,1
0,36,0,1
0,69,92,0
0,62,97,0
0,42,65,0
0,66,92,0
0,42,0,1
0,59,0,2
0,59,0,0
0,61,0,27
0,61,0,0
0,30,87,13
0,28,0,1
0,59,78,0
0,59,100,0
0,42,50,3
0,36,110,0
0,36,0,1
0,42,0,0
0,59,0,18
0,59,0,0
0,30,0,24
0,69,0,0
0,57,87,1
0,57,109,0
0,66,0,1
0,31,87,0
0,40,109,3
0,40,0,1
0,42,100,0
0,52,84,0
0,42,0,1
0,28,93,0
0,62,0,16
0,40,0,17
0,31,0,7
0,57,0,1
0,57,0,0
0,32,85,2
0,59,111,1
0,59,89,0
0,42,51,2
0,42,0,1
0,59,0,20
0,59,0,0
0,59,86,2
0,61,81,1
0,61,103,0
0,71,85,1
0,59,105,0
0,71,118,0
0,28,0,10
0,52,0,4
0,59,0,4
0,59,0,0
0,71,0,0
0,71,0,0
0,61,113,0
0,33,84,1
0,73,124,0
0,61,115,0
0,33,95,1
0,32,0,1
0,73,92,0
0,59,102,1
0,61,94,0
0,45,75,0
0,42,76,1
0,52,96,0
0,52,74,0
0,42,0,1
0,61,0,0
0,61,0,0
0,36,112,1
0,36,0,1
0,33,0,14
0,52,0,3
0,52,0,0
0,54,87,3
0,54,65,0
0,33,0,8
0,54,0,9
0,54,0,0
0,61,0,4
0,76,96,0
0,61,0,1
0,64,115,1
0,35,86,0
0,73,0,1
0,61,0,0
0,57,87,0
0,64,88,0
0,57,109,0
0,64,106,0
0,76,114,0
0,35,100,0
0,73,0,1
0,42,41,0
0,42,0,1
0,76,0,16
0,35,0,0
0,57,0,1
0,57,0,0
0,64,0,1
0,35,0,0
0,64,0,4
0,64,0,0
0,76,0,5
0,59,0,3
0,45,0,6
0,36,104,7
0,36,84,3
0,57,59,0
0,57,97,1
0,40,102,0
0,57,119,0
0,42,98,0
0,42,0,1
0,40,0,0
0,57,0,11
0,36,0,2
0,36,0,10
0,57,0,20
0,57,0,0
0,37,93,2
0,37,101,0
0,69,101,1
0,49,101,0
0,66,101,0
0,64,101,0
0,42,45,0
0,57,101,0
0,61,101,0
0,42,0,1
0,36,100,0
0,36,0,1
0,57,73,24
0,57,95,0
0,57,0,22
0,57,0,0
0,42,73,0
0,42,0,1
0,36,110,1
0,36,0,1
0,57,85,24
0,57,107,0
0,57,0,5
0,57,0,12
0,57,0,0
0,42,52,4
0,42,0,1
0,64,0,15
0,61,0,4
0,54,73,4
0,54,95,0
0,69,0,5
0,66,0,4
0,54,0,7
0,54,0,0
0,57,84,7
0,57,104,1
0,42,100,0
0,57,126,0
0,42,0,1
0,49,0,0
0,40,105,0
0,40,0,1
0,37,0,1
0,57,0,16
0,37,0,13
0,57,0,8
0,57,0,0
0,35,83,6
0,57,97,1
0,57,75,0
0,35,102,0
0,73,98,1
0,47,98,0
0,62,98,0
0,69,98,0
0,66,98,0
0,42,41,1
0,42,0,1
0,36,110,0
0,36,0,1
0,57,0,9
0,57,0,0
0,57,69,9
0,57,91,0
0,57,0,19
0,57,0,0
0,52,64,5
0,52,86,0
0,52,74,1
0,42,65,3
0,42,0,1
0,35,0,12
0,52,0,2
0,69,0,0
0,52,0,0
0,62,0,4
0,66,0,1
0,54,65,1
0,52,0,2
0,54,96,0
0,54,74,0
0,54,0,16
0,54,0,0
0,47,85,5
0,57,111,1
0,57,89,0
0,42,34,2
0,42,0,1
0,36,109,0
0,36,0,1
0,54,0,2
0,57,0,20
0,57,0,0
0,47,0,18
0,73,0,2
0,57,119,3
0,57,97,0
0,54,65,1
0,62,78,0
0,66,78,0
0,69,90,0
0,42,98,1
0,40,109,0
0,40,0,1
0,42,0,0
0,47,0,1
0,57,0,13
0,57,0,0
0,69,0,4
0,66,0,0
0,57,77,4
0,57,99,0
0,35,0,2
0,62,0,6
0,57,0,10
0,57,0,0
0,59,102,4
0,47,67,0
0,59,80,0
0,50,65,1
0,54,0,1
0,36,92,1
0,42,44,0
0,42,0,1
0,36,0,0
0,50,0,5
0,59,0,9
0,59,0,0
0,57,69,5
0,57,91,0
0,57,0,11
0,57,0,0
0,60,103,11
0,60,102,0
0,59,107,2
0,72,103,0
0,59,85,0
0,52,83,0
0,47,0,2
0,69,97,0
0,72,114,0
0,52,97,0
0,62,97,0
0,61,99,1
0,66,97,0
0,61,121,0
0,36,109,1
0,42,68,0
0,42,0,1
0,36,0,0
0,59,0,6
0,59,0,0
0,72,0,9
0,60,0,3
0,72,0,0
0,71,83,2
0,71,96,0
0,59,103,1
0,60,0,1
0,59,105,0
0,61,0,10
0,61,0,0
0,66,0,2
0,71,0,2
0,69,68,2
0,59,0,1
0,71,0,4
0,69,97,0
0,57,86,0
0,59,0,3
0,57,89,0
0,59,91,0
0,42,37,0
0,59,113,0
0,42,0,1
0,36,108,0
0,36,0,1
0,62,0,5
0,69,0,1
0,57,0,2
0,66,77,0
0,54,79,0
0,66,93,1
0,54,70,0
0,59,0,1
0,59,0,0
0,69,0,0
0,57,0,2
0,54,0,3
0,66,0,7
0,66,0,2
0,69,0,4
0,54,67,2
0,71,118,1
0,54,0,1
0,59,118,0
0,59,108,0
0,71,118,0
0,71,94,0
0,62,84,0
0,28,84,0
0,66,86,0
0,52,0,1
0,57,87,0
0,40,108,0
0,57,109,0
0,40,0,1
0,42,98,0
0,42,0,1
0,52,0,16
0,66,0,5
0,71,0,0
0,62,0,12
0,59,0,8
0,59,0,1
0,57,98,0
0,59,105,0
0,59,83,0
0,71,0,2
0,57,0,0
0,71,0,0
0,57,0,0
0,52,77,0
0,69,103,0
0,69,96,0
0,57,89,1
0,42,41,3
0,42,0,1
0,52,0,7
0,57,0,9
0,59,0,1
0,59,0,0
0,57,0,0
0,69,0,1
0,69,0,1
0,66,100,0
0,57,65,1
0,57,87,0
0,54,64,0
0,66,118,1
0,54,82,0
0,28,0,1
0,54,0,1
0,40,79,1
0,66,0,9
