track,note,velocity,time
0,46,84,569
0,46,0,1
0,40,47,48
0,42,82,0
0,52,42,0
0,28,114,0
0,40,118,0
0,28,42,0
0,36,95,0
0,36,0,1
0,42,0,0
0,28,84,0
0,40,85,0
0,42,38,21
0,42,0,1
0,42,65,23
0,42,0,1
0,42,36,23
0,42,0,1
0,42,101,24
0,42,0,1
0,28,0,21
0,40,0,2
0,40,0,14
0,28,0,2
0,31,98,7
0,43,78,0
0,43,116,0
0,40,0,1
0,52,0,0
0,28,0,0
0,31,69,0
0,31,41,0
0,55,41,0
0,36,78,0
0,43,44,0
0,36,0,1
0,42,41,0
0,42,0,1
0,43,0,10
0,31,0,1
0,43,0,0
0,31,0,2
0,43,0,33
0,55,0,0
0,31,0,0
0,45,38,0
0,45,76,0
0,57,45,0
0,33,45,0
0,36,108,0
0,36,0,1
0,45,127,0
0,33,79,0
0,42,93,0
0,33,120,0
0,42,0,1
0,42,42,47
0,42,0,1
0,33,0,26
0,45,0,2
0,33,0,5
0,45,0,1
0,57,0,12
0,45,0,0
0,33,0,0
0,43,47,0
0,31,42,0
0,55,42,0
0,42,93,0
0,42,0,1
0,43,79,0
0,31,79,0
0,31,110,0
0,43,120,0
0,46,99,47
0,46,0,1
0,43,0,28
0,31,0,2
0,43,0,1
0,31,0,0
0,55,0,16
0,43,0,0
0,31,0,0
0,30,31,0
0,42,43,0
0,42,82,0
0,54,31,0
0,42,0,1
0,30,114,0
0,42,111,0
0,30,78,0
0,42,78,0
0,42,38,22
0,42,0,1
0,42,65,23
0,42,0,1
0,42,36,23
0,42,0,1
0,42,101,24
0,42,0,1
0,42,0,2
0,30,0,9
0,42,0,1
0,30,0,1
0,47,91,33
0,35,112,0
0,47,120,0
0,35,90,0
0,54,0,1
0,30,0,0
0,42,0,0
0,36,63,0
0,59,35,0
0,35,35,0
0,47,33,0
0,36,0,1
0,42,41,0
0,42,0,1
0,36,110,46
0,36,0,1
0,42,93,0
0,42,0,1
0,35,0,45
0,33,100,0
0,59,0,1
0,47,0,0
0,35,0,0
0,35,0,0
0,45,30,0
0,57,31,0
0,33,31,0
0,47,0,1
0,33,74,0
0,45,105,0
0,45,74,0
0,42,42,0
0,42,0,1
0,47,0,1
0,45,0,12
0,33,0,2
0,33,0,0
0,45,0,3
0,33,0,28
0,45,0,0
0,57,0,0
0,35,88,0
0,35,42,0
0,47,42,0
0,42,93,0
0,59,42,0
0,47,87,0
0,42,0,1
0,47,124,0
0,35,114,0
0,46,99,47
0,46,0,1
0,35,0,15
0,47,0,1
0,35,0,6
0,47,0,1
0,47,0,24
0,59,0,0
0,35,0,0
0,52,42,0
0,40,118,0
0,28,42,0
0,28,114,0
0,42,82,0
0,40,47,0
0,42,0,1
0,28,80,0
0,40,88,0
0,42,38,22
0,42,0,1
0,42,65,23
0,42,0,1
0,42,36,23
0,42,0,1
0,42,101,24
0,42,0,1
0,28,0,21
0,40,0,2
0,40,0,14
0,28,0,2
0,43,116,7
0,43,72,0
0,31,98,0
0,52,0,1
0,28,0,0
0,40,0,0
0,43,44,0
0,36,80,0
0,55,41,0
0,31,72,0
0,31,41,0
0,36,0,1
0,42,41,0
0,42,0,1
0,43,0,10
0,43,0,1
0,31,0,0
0,31,0,2
0,31,0,33
0,55,0,0
0,43,0,0
0,33,45,0
0,36,110,0
0,45,38,0
0,45,80,0
0,57,45,0
0,36,0,1
0,42,93,0
0,33,120,0
0,33,80,0
0,45,127,0
0,42,0,1
0,42,42,47
0,42,0,1
0,33,0,26
0,45,0,2
0,33,0,5
0,45,0,1
0,33,0,12
0,45,0,0
0,57,0,0
0,31,42,0
0,42,93,0
0,55,42,0
0,43,47,0
0,42,0,1
0,43,120,0
0,31,110,0
0,31,79,0
0,43,79,0
0,46,99,47
0,46,0,1
0,43,0,28
0,31,0,2
0,31,0,1
0,43,0,0
0,43,0,16
0,31,0,0
0,55,0,0
0,42,82,0
0,30,31,0
0,54,31,0
0,42,43,0
0,42,0,1
0,42,78,0
0,42,111,0
0,30,78,0
0,30,114,0
0,42,38,22
0,42,0,1
0,42,65,23
0,42,0,1
0,42,36,23
0,42,0,1
0,61,72,24
0,42,101,0
0,42,0,1
0,42,0,2
0,30,0,9
0,42,0,1
0,30,0,1
0,61,0,33
0,35,90,0
0,47,91,0
0,35,112,0
0,47,120,0
0,42,0,1
0,30,0,0
0,54,0,0
0,36,85,0
0,59,35,0
0,47,33,0
0,35,35,0
0,36,0,1
0,42,41,0
0,42,0,1
0,59,59,5
0,36,110,41
0,36,0,1
0,42,93,0
0,42,0,1
0,35,0,45
0,33,100,0
0,35,0,1
0,47,0,0
0,59,0,0
0,35,0,0
0,57,31,0
0,67,106,0
0,45,30,0
0,33,31,0
0,47,0,1
0,45,105,0
0,42,42,0
0,33,74,0
0,45,74,0
0,42,0,1
0,47,0,1
0,67,0,11
0,45,0,1
0,33,0,2
0,33,0,0
0,45,0,3
0,33,0,28
0,57,0,0
0,45,0,0
0,47,87,0
0,59,42,0
0,42,93,0
0,47,42,0
0,35,88,0
0,35,42,0
0,71,100,0
0,42,0,1
0,35,114,0
0,47,124,0
0,71,0,23
0,46,99,24
0,74,98,0
0,46,0,1
0,74,0,14
0,35,0,1
0,47,0,1
0,35,0,6
0,47,0,1
0,47,0,24
0,35,0,0
0,59,0,0
0,28,42,0
0,78,119,0
0,40,47,0
0,42,82,0
0,52,42,0
0,28,114,0
0,40,118,0
0,42,0,1
0,28,80,0
0,40,88,0
0,42,38,22
0,42,0,1
0,78,0,13
0,77,95,1
0,76,58,8
0,42,65,1
0,42,0,1
0,77,0,9
0,75,68,2
0,76,0,6
0,74,73,1
0,75,0,4
0,42,36,1
0,42,0,1
0,73,70,0
0,74,0,2
0,73,0,5
0,72,55,0
0,72,0,5
0,42,101,12
0,42,0,1
0,28,0,21
0,40,0,2
0,40,0,14
0,28,0,2
0,43,116,7
0,43,72,0
0,31,98,0
0,40,0,1
0,52,0,0
0,28,0,0
0,43,44,0
0,55,41,0
0,31,72,0
0,36,85,0
0,31,41,0
0,36,0,1
0,42,41,0
0,42,0,1
0,43,0,10
0,31,0,1
0,43,0,0
0,31,0,2
0,43,0,33
0,31,0,0
0,55,0,0
0,57,45,0
0,45,80,0
0,36,89,0
0,45,38,0
0,33,45,0
0,36,0,1
0,45,127,0
0,42,93,0
0,33,80,0
0,33,120,0
0,42,0,1
0,42,42,47
0,42,0,1
0,33,0,26
0,45,0,2
0,33,0,5
0,45,0,1
0,45,0,12
0,57,0,0
0,33,0,0
0,43,47,0
0,31,42,0
0,42,93,0
0,55,42,0
0,42,0,1
0,43,120,0
0,43,79,0
0,31,110,0
0,31,79,0
0,46,99,47
0,46,0,1
0,43,0,28
0,31,0,2
0,31,0,1
0,43,0,0
0,55,0,16
0,31,0,0
0,43,0,0
0,42,82,0
0,54,31,0
0,90,60,0
0,42,43,0
0,30,31,0
0,42,0,1
0,30,78,0
0,42,78,0
0,30,114,0
0,42,111,0
0,83,53,2
0,59,0,3
0,42,38,17
0,42,0,1
0,42,65,23
0,42,0,1
0,42,36,23
0,42,0,1
0,42,101,24
0,42,0,1
0,42,0,2
0,30,0,9
0,42,0,1
0,30,0,1
0,47,120,33
0,35,112,0
0,47,91,0
0,35,90,0
0,54,0,1
0,42,0,0
0,30,0,0
0,35,35,0
0,36,54,0
0,47,33,0
0,59,35,0
0,36,0,1
0,42,41,0
0,42,0,1
0,36,108,46
0,36,0,1
0,42,93,0
0,42,0,1
0,35,0,45
0,33,100,0
0,59,0,1
0,47,0,0
0,35,0,0
0,35,0,0
0,45,30,0
0,57,31,0
0,33,31,0
0,47,0,1
0,45,105,0
0,45,74,0
0,33,74,0
0,42,42,0
0,42,0,1
0,47,0,1
0,45,0,12
0,33,0,2
0,33,0,0
0,45,0,3
0,45,0,28
0,33,0,0
0,57,0,0
0,47,87,0
0,35,88,0
0,35,42,0
0,47,42,0
0,42,93,0
0,59,42,0
0,42,0,1
0,47,124,0
0,35,114,0
0,46,99,47
0,46,0,1
0,35,0,15
0,47,0,1
0,35,0,6
0,47,0,1
0,95,56,22
0,59,0,2
0,35,0,0
0,47,0,0
0,28,114,0
0,40,47,0
0,52,42,0
0,28,42,0
0,40,118,0
0,42,82,0
0,42,0,1
0,40,88,0
0,28,80,0
0,42,38,22
0,42,0,1
0,42,65,23
0,42,0,1
0,42,36,23
0,42,0,1
0,42,101,24
0,42,0,1
0,28,0,21
0,40,0,2
0,40,0,14
0,28,0,2
0,43,116,7
0,31,98,0
0,43,72,0
0,52,0,1
0,40,0,0
0,28,0,0
0,43,44,0
0,55,41,0
0,31,41,0
0,31,72,0
0,36,70,0
0,36,0,1
0,42,41,0
0,42,0,1
0,43,0,10
0,31,0,1
0,43,0,0
0,31,0,2
0,43,0,33
0,31,0,0
0,55,0,0
0,33,45,0
0,45,80,0
0,57,45,0
0,45,38,0
0,36,108,0
0,36,0,1
0,33,120,0
0,45,127,0
0,42,93,0
0,33,80,0
0,42,0,1
0,42,42,47
0,42,0,1
0,33,0,26
0,45,0,2
0,33,0,5
0,45,0,1
0,57,0,12
0,33,0,0
0,45,0,0
0,43,47,0
0,55,42,0
0,42,93,0
0,31,42,0
0,42,0,1
0,43,79,0
0,43,120,0
0,31,79,0
0,31,110,0
0,46,99,47
0,46,0,1
0,43,0,28
0,31,0,2
0,43,0,1
0,31,0,0
0,31,0,16
0,43,0,0
0,55,0,0
0,42,43,0
0,30,31,0
0,42,82,0
0,54,31,0
0,42,0,1
0,30,114,0
0,30,78,0
0,42,111,0
0,42,78,0
0,80,103,0
0,42,38,3
0,42,0,1
0,42,65,3
0,42,0,1
0,42,36,3
0,42,0,1
0,42,101,4
0,42,0,1
0,42,0,2
0,30,0,4
0,42,0,1
0,30,0,1
0,47,91,3
0,35,90,0
0,47,120,0
0,35,112,0
0,42,0,1
0,30,0,0
0,54,0,0
0,47,33,0
0,35,35,0
0,36,81,0
0,59,35,0
0,36,0,1
0,42,41,0
0,42,0,1
0,36,75,0
0,36,0,1
0,42,93,0
0,42,0,1
0,35,0,3
0,33,100,0
0,47,0,1
0,35,0,0
0,35,0,0
0,59,0,0
0,57,31,0
0,45,30,0
0,33,31,0
0,47,0,1
0,45,105,0
0,33,74,0
0,42,42,0
0,45,74,0
0,42,0,1
0,47,0,1
0,45,0,3
0,33,0,1
0,33,0,0
0,45,0,3
0,40,56,4
0,40,0,1
0,76,105,3
0,45,0,1
0,57,0,0
0,33,0,0
0,42,93,0
0,40,83,0
0,64,47,0
0,52,42,0
0,47,87,0
0,35,88,0
0,40,0,1
0,42,0,0
0,47,124,0
0,35,114,0
0,46,99,4
0,47,91,0
0,47,0,1
0,46,0,0
0,76,0,2
0,35,0,4
0,47,0,1
0,35,0,3
0,47,0,1
0,90,0,11
0,83,0,6
0,80,0,0
0,95,0,1
0,52,0,4
0,64,0,0
0,66,69,0
0,83,110,0
0,79,106,0
0,59,97,0
0,36,110,0
0,88,104,0
0,28,108,0
0,54,69,0
0,62,96,0
0,28,104,0
0,55,100,0
0,43,89,0
0,49,96,0
0,78,112,0
0,49,0,1
0,43,0,0
0,36,0,0
0,40,110,0
0,42,37,46
0,42,0,1
0,83,0,24
0,79,0,3
0,88,0,0
0,42,110,20
0,42,0,1
0,54,0,0
0,66,0,0
0,50,69,0
0,40,95,0
0,39,110,0
0,60,77,0
0,62,50,0
0,60,0,1
0,39,0,0
0,40,0,0
0,74,93,0
0,78,0,1
0,28,0,14
0,62,0,2
0,59,0,2
0,55,0,0
0,40,0,0
0,28,0,13
0,74,0,13
0,50,0,1
0,62,0,0
0,31,88,0
0,59,86,0
0,55,94,0
0,62,78,0
0,31,114,0
0,43,100,0
0,42,44,1
0,36,91,0
0,50,50,0
0,62,54,0
0,36,0,1
0,42,0,0
0,74,97,0
0,55,0,10
0,62,0,0
0,59,0,0
0,31,0,6
0,43,0,0
0,31,0,5
0,42,95,25
0,71,104,0
0,59,87,0
0,55,102,0
0,59,106,0
0,62,87,0
0,42,0,1
0,74,0,0
0,50,0,0
0,62,0,0
0,57,45,0
0,36,110,0
0,33,45,0
0,45,38,0
0,33,112,0
0,45,117,0
0,36,0,1
0,33,108,0
0,71,0,45
0,42,39,1
0,42,0,1
0,59,0,1
0,62,98,0
0,74,97,0
0,62,0,29
0,59,0,0
0,55,0,0
0,33,0,2
0,33,0,4
0,45,0,2
0,62,0,2
0,74,0,4
0,31,102,3
0,64,94,0
0,42,110,0
0,42,0,1
0,33,0,0
0,57,0,0
0,45,0,0
0,31,100,0
0,36,110,0
0,43,112,0
0,60,77,0
0,55,42,0
0,43,47,0
0,31,42,0
0,40,110,0
0,39,110,0
0,39,0,1
0,40,0,0
0,60,0,0
0,36,0,0
0,62,87,0
0,59,93,0
0,55,104,0
0,76,88,0
0,64,0,45
0,76,0,2
0,78,95,1
0,42,42,0
0,66,99,0
0,42,0,1
0,55,0,4
0,59,0,3
0,62,0,3
0,31,0,16
0,31,0,1
0,43,0,2
0,78,0,3
0,31,0,14
0,55,0,0
0,43,0,0
0,42,43,0
0,54,31,0
0,36,110,0
0,30,31,0
0,42,96,0
0,42,0,1
0,66,0,0
0,36,0,0
0,61,95,0
0,64,97,0
0,42,99,0
0,57,94,0
0,30,97,0
0,30,107,0
0,42,37,46
0,42,0,1
0,62,102,1
0,74,98,0
0,74,0,26
0,62,0,11
0,42,110,9
0,42,0,1
0,39,110,0
0,60,77,0
0,40,95,0
0,40,0,1
0,39,0,0
0,60,0,0
0,61,0,10
0,30,0,1
0,64,0,0
0,57,0,0
0,42,0,3
0,30,0,8
0,42,0,25
0,54,0,0
0,30,0,0
0,62,110,0
0,47,110,0
0,57,97,0
0,36,91,0
0,59,35,0
0,35,35,0
0,66,99,0
0,35,98,0
0,57,104,0
0,42,44,0
0,47,33,0
0,42,0,1
0,36,0,0
0,69,93,0
0,35,102,0
0,42,95,46
0,42,0,1
0,36,110,0
0,36,0,1
0,62,0,22
0,66,0,3
0,57,0,4
0,57,0,10
0,47,0,0
0,35,0,6
0,35,0,1
0,45,97,0
0,33,100,0
0,71,84,0
0,42,39,0
0,64,87,0
0,33,87,0
0,57,84,0
0,59,94,0
0,61,88,0
0,42,0,1
0,69,0,0
0,35,0,0
0,59,0,0
0,47,0,0
0,33,31,0
0,57,31,0
0,45,30,0
0,64,0,14
0,61,0,0
0,45,0,1
0,57,0,1
0,33,0,0
0,33,0,2
0,59,0,22
0,71,0,4
0,35,97,3
0,66,107,0
0,74,101,0
0,42,110,0
0,57,100,0
0,62,118,0
0,35,106,0
0,74,103,0
0,62,111,0
0,42,0,1
0,45,0,0
0,33,0,0
0,57,0,0
0,62,58,0
0,39,110,0
0,40,110,0
0,50,58,0
0,47,120,0
0,60,77,0
0,36,110,0
0,36,0,1
0,39,0,0
0,60,0,0
0,40,0,0
0,74,0,40
0,62,0,2
0,74,78,4
0,62,0,1
0,50,0,0
0,76,87,0
0,52,44,0
0,64,44,0
0,74,0,1
0,62,79,0
0,42,42,0
0,42,0,1
0,57,0,26
0,62,0,0
0,66,0,0
0,74,0,2
0,47,0,8
0,35,0,0
0,62,0,2
0,76,0,4
0,35,0,1
0,52,0,3
0,64,0,0
0,62,96,0
0,66,63,0
0,36,110,0
0,42,96,0
0,59,97,0
0,54,58,0
0,78,106,0
0,28,104,0
0,55,100,0
0,42,0,1
0,36,0,0
0,43,86,0
0,40,110,0
0,28,98,0
0,43,0,1
0,78,0,44
0,42,37,1
0,74,78,0
0,42,0,1
0,66,0,0
0,54,0,0
0,50,58,0
0,62,35,0
0,74,0,44
0,62,0,3
0,50,0,0
0,59,117,0
0,74,101,0
0,42,110,0
0,42,0,1
0,50,58,0
0,62,58,0
0,83,127,0
0,39,110,0
0,60,77,0
0,40,95,0
0,40,0,1
0,60,0,0
0,39,0,0
0,28,0,15
0,62,0,2
0,40,0,2
0,59,0,0
0,55,0,0
0,28,0,11
0,83,0,13
