track,note,velocity,time
1,74,55,3468
1,76,55,96
1,77,55,180
1,77,55,0
1,65,55,192
1,70,55,180
1,72,55,72
1,72,55,0
1,72,55,0
1,72,55,0
1,69,55,192
1,73,55,84
1,73,55,0
1,73,55,0
1,76,55,96
1,74,55,192
1,74,55,180
1,76,55,96
1,77,55,180
1,77,55,0
1,65,55,192
1,70,55,180
1,72,55,84
1,72,55,0
1,74,55,96
1,72,55,180
1,69,55,96
1,73,55,84
1,73,55,0
1,76,55,288
1,77,55,264
1,76,55,24
1,74,55,24
1,74,55,180
1,76,55,96
1,77,55,180
1,77,55,0
1,79,55,192
1,79,55,0
1,72,55,180
1,74,55,192
1,76,55,180
1,76,55,0
1,77,55,192
1,77,55,0
1,70,55,180
1,72,55,192
1,74,55,180
1,74,55,0
1,81,55,192
1,81,55,0
1,79,55,84
1,77,55,60
1,79,55,84
1,76,55,468
1,79,55,180
1,76,55,192
1,76,55,180
1,79,55,96
1,79,55,0
1,72,55,96
1,76,55,180
1,76,55,0
1,74,55,180
1,74,55,0
1,74,55,2844
1,74,55,0
1,76,55,96
1,77,55,180
1,77,55,0
1,70,55,384
1,70,55,0
1,72,55,84
1,72,55,0
1,72,55,0
1,72,55,0
1,72,55,0
1,73,55,372
1,73,55,0
1,73,55,0
1,76,55,192
1,74,55,180
1,74,55,2868
1,76,55,192
1,77,55,180
1,77,55,0
1,79,55,192
1,79,55,0
1,72,55,180
1,72,55,0
1,74,55,96
1,76,55,84
1,76,55,0
1,77,55,384
1,77,55,0
1,70,55,180
1,72,55,192
1,74,55,180
1,74,55,0
1,81,55,192
1,81,55,0
1,77,55,192
1,79,55,180
1,76,55,372
1,79,55,180
1,76,55,192
1,76,55,180
1,79,55,96
1,79,55,0
1,72,55,96
1,76,55,180
1,76,55,0
1,74,55,180
1,74,55,0
1,74,55,2904
1,76,55,96
1,77,55,180
1,77,55,0
1,70,55,480
1,70,55,0
1,72,55,180
1,72,55,12
1,72,55,12
1,69,55,0
1,73,55,180
1,73,55,0
1,76,55,96
1,76,55,0
1,74,55,192
1,74,55,180
1,74,55,0
1,76,55,96
1,77,55,84
1,77,55,0
1,65,55,192
1,65,40,12
1,70,55,24
1,70,55,0
1,72,55,192
1,74,55,84
1,72,55,276
1,69,55,276
1,73,55,84
1,73,55,0
1,76,55,96
1,77,55,84
1,74,55,84
1,74,55,180
1,76,55,96
1,77,55,180
1,77,55,0
1,79,55,96
1,79,55,0
1,72,55,180
1,72,55,0
1,74,55,96
1,76,55,180
1,76,55,0
1,77,55,384
1,77,55,0
1,70,55,180
1,72,55,192
1,74,55,180
1,74,55,0
1,81,55,192
1,81,55,0
1,77,55,288
1,79,55,180
1,76,55,372
1,79,55,180
1,76,55,192
1,76,55,0
1,79,55,96
1,79,55,0
1,72,55,96
1,76,55,84
1,74,55,96
1,74,55,0
1,74,55,0
2,67,55,0
2,67,55,0
2,67,55,24
2,67,55,12
2,79,55,0
2,78,55,192
2,76,55,180
2,69,55,0
2,71,55,0
2,72,55,0
2,62,55,0
2,67,55,0
2,60,55,0
2,67,55,0
2,59,55,0
2,67,55,0
2,67,55,0
2,60,55,0
2,67,55,0
2,60,55,0
2,62,55,384
2,64,55,0
2,65,55,0
2,62,55,0
2,65,55,0
2,62,55,0
2,53,55,0
2,58,55,0
2,60,55,84
2,57,55,0
2,60,55,0
2,60,55,0
2,60,55,0
2,57,55,0
2,61,55,0
2,61,55,0
2,61,55,0
2,61,55,0
2,64,55,0
2,61,55,0
2,62,55,0
2,62,55,0
2,62,55,192
2,64,55,0
2,65,55,0
2,62,55,0
2,65,55,0
2,62,55,0
2,53,55,0
2,58,55,0
2,60,55,96
2,57,55,0
2,60,55,0
2,62,55,0
2,60,55,192
2,57,55,0
2,61,55,0
2,61,55,0
2,64,55,0
2,61,55,0
2,65,55,276
2,64,55,36
2,62,55,0
2,62,55,0
2,64,55,0
2,65,55,0
2,62,55,0
2,65,55,0
2,60,55,0
2,67,55,0
2,67,55,0
2,59,55,0
2,60,55,192
2,62,55,0
2,64,55,0
2,60,55,0
2,64,55,0
2,60,55,0
2,64,55,0
2,60,55,0
2,65,55,0
2,62,55,0
2,65,55,0
2,57,55,0
2,58,55,192
2,60,55,0
2,62,55,0
2,62,55,0
2,62,55,0
2,69,55,0
2,65,55,0
2,69,55,0
2,65,55,0
2,67,55,84
2,65,55,0
2,67,55,0
2,64,55,0
2,67,55,0
2,64,55,0
2,64,55,0
2,60,55,0
2,67,55,192
2,64,55,0
2,64,55,0
2,60,55,0
2,64,55,192
2,60,55,0
2,67,55,0
2,67,55,0
2,60,55,0
2,60,55,0
2,64,55,0
2,60,55,0
2,60,55,0
2,59,55,0
2,64,55,0
2,62,55,0
2,59,55,0
2,62,55,0
2,65,55,288
2,65,55,0
2,65,55,0
2,74,55,0
2,72,55,0
2,72,55,0
2,81,55,0
2,79,55,0
2,71,55,0
2,69,55,0
2,77,55,0
2,67,55,0
2,76,55,0
2,65,55,0
2,65,55,0
2,74,55,0
2,69,55,0
2,69,55,0
2,77,55,12
2,72,55,0
2,81,55,0
2,71,55,0
2,79,55,0
2,69,55,0
2,77,55,0
2,67,55,0
2,76,55,0
2,65,55,0
2,65,55,0
2,74,55,0
2,62,55,0
2,62,55,0
2,64,55,0
2,62,55,0
2,65,55,0
2,65,55,0
2,62,55,0
2,58,55,0
2,58,55,0
2,60,55,96
2,57,55,0
2,60,55,0
2,60,55,0
2,60,55,0
2,57,55,0
2,61,55,180
2,61,55,0
2,61,55,0
2,64,55,0
2,61,55,0
2,62,55,0
2,69,55,0
2,74,55,0
2,77,55,0
2,70,55,0
2,74,55,0
2,79,55,0
2,81,55,660
2,72,55,0
2,79,55,36
2,70,55,0
2,69,55,0
2,74,55,0
2,76,55,0
2,73,55,0
2,76,55,0
2,69,55,0
2,62,55,192
2,64,55,0
2,65,55,0
2,62,55,0
2,65,55,0
2,60,55,0
2,65,55,0
2,60,55,0
2,67,55,0
2,67,55,0
2,59,55,0
2,60,55,192
2,60,55,0
2,62,55,0
2,64,55,0
2,60,55,0
2,64,55,0
2,60,55,0
2,64,55,0
2,60,55,0
2,65,55,0
2,57,55,0
2,65,55,0
2,57,55,0
2,58,55,192
2,60,55,0
2,62,55,0
2,62,55,0
2,62,55,0
2,69,55,0
2,65,55,0
2,69,55,0
2,65,55,0
2,65,55,0
2,67,55,0
2,64,55,0
2,64,55,0
2,60,55,0
2,67,55,192
2,64,55,0
2,64,55,0
2,60,55,0
2,64,55,0
2,60,55,0
2,67,55,0
2,67,55,0
2,60,55,0
2,60,55,0
2,64,55,0
2,60,55,0
2,60,55,0
2,64,55,0
2,59,55,0
2,64,55,0
2,62,55,0
2,62,55,0
2,59,55,0
2,65,55,288
2,65,55,0
2,65,55,0
2,74,55,0
2,72,55,0
2,81,55,0
2,77,55,0
2,74,55,0
2,83,55,0
2,76,55,0
2,84,55,0
2,77,55,0
2,86,55,0
2,81,55,0
2,89,55,0
2,79,55,0
2,72,55,0
2,81,55,0
2,74,55,0
2,83,55,0
2,76,55,0
2,77,55,0
2,76,55,0
2,67,55,0
2,65,55,0
2,74,55,0
2,62,55,0
2,64,55,0
2,65,55,0
2,62,55,0
2,65,55,0
2,62,55,0
2,65,55,0
2,62,55,0
2,58,55,0
2,58,55,0
2,60,55,192
2,57,55,0
2,60,55,0
2,57,55,0
2,60,55,0
2,57,55,0
2,57,55,0
2,61,55,192
2,61,55,0
2,64,55,0
2,61,55,0
2,64,55,0
2,61,55,0
2,62,55,0
2,62,55,0
2,62,55,0
2,64,55,0
2,65,55,0
2,65,55,0
2,62,55,0
2,53,40,180
2,53,55,12
2,58,55,24
2,58,55,0
2,60,55,0
2,62,55,0
2,57,55,0
2,60,55,0
2,57,55,0
2,57,55,0
2,61,55,0
2,61,55,0
2,64,55,0
2,61,55,0
2,65,55,0
2,62,55,0
2,62,55,0
2,64,55,0
2,65,55,0
2,62,55,0
2,65,55,0
2,60,55,0
2,67,55,0
2,67,55,0
2,59,55,0
2,67,55,0
2,60,55,192
2,60,55,0
2,62,55,0
2,64,55,0
2,60,55,0
2,64,55,0
2,60,55,0
2,64,55,0
2,60,55,0
2,65,55,0
2,57,55,0
2,65,55,0
2,57,55,0
2,65,55,0
2,57,55,0
2,58,55,192
2,60,55,0
2,62,55,0
2,62,55,0
2,62,55,0
2,69,55,0
2,65,55,0
2,69,55,0
2,65,55,0
2,69,55,0
2,65,55,0
2,65,55,0
2,67,55,0
2,64,55,0
2,64,55,0
2,64,55,0
2,60,55,0
2,67,55,192
2,64,55,0
2,64,55,0
2,60,55,0
2,60,55,0
2,64,55,0
2,67,55,0
2,67,55,0
2,60,55,0
2,60,55,0
2,59,55,12
2,64,55,96
2,62,55,0
2,59,55,0
2,62,55,0
2,60,55,0
2,57,55,0
2,59,55,0
2,59,55,0
2,55,55,0
2,59,55,0
2,55,55,0
2,65,55,180
2,69,55,0
2,74,55,0
2,67,55,276
2,76,55,0
2,65,55,36
2,74,55,0
2,64,55,0
2,67,55,0
2,72,55,0
2,65,55,0
2,69,55,0
2,74,55,0
3,52,55,12
3,59,40,96
3,64,55,0
3,59,40,0
3,52,55,0
3,59,40,96
3,64,55,0
3,59,40,0
3,52,55,0
3,59,40,96
3,64,55,0
3,59,40,0
3,52,55,0
3,59,40,96
3,52,55,0
3,47,40,0
3,45,55,0
3,52,40,96
3,57,55,0
3,52,40,0
3,45,55,0
3,52,40,96
3,57,55,0
3,52,40,0
3,45,55,0
3,52,40,96
3,57,55,0
3,52,40,0
3,45,55,0
3,52,40,96
3,57,55,0
3,52,40,0
3,50,55,0
3,57,40,96
3,62,55,0
3,57,40,0
3,50,55,0
3,57,40,96
3,50,55,0
3,45,40,0
3,46,55,0
3,53,40,96
3,46,55,0
3,41,55,0
3,46,55,0
3,50,40,96
3,53,55,0
3,50,40,0
3,45,55,0
3,52,40,96
3,55,55,0
3,45,55,0
3,52,40,96
3,55,55,0
3,52,40,0
3,45,55,0
3,52,40,96
3,57,55,0
3,52,40,0
3,45,55,0
3,52,40,96
3,57,55,0
3,52,40,0
3,50,55,0
3,45,40,96
3,53,55,0
3,45,40,0
3,50,55,0
3,57,40,96
3,50,55,0
3,45,55,0
3,46,55,0
3,53,40,96
3,46,55,0
3,41,40,0
3,46,55,0
3,50,40,96
3,53,55,0
3,50,40,0
3,45,55,0
3,52,40,96
3,55,55,0
3,45,55,0
3,52,40,96
3,55,55,0
3,52,40,0
3,45,55,0
3,52,40,96
3,57,55,0
3,52,40,0
3,45,55,0
3,52,40,96
3,57,55,0
3,50,55,0
3,45,40,96
3,53,55,0
3,45,40,0
3,50,55,0
3,57,40,96
3,50,55,0
3,45,40,0
3,43,55,0
3,55,40,96
3,50,55,0
3,53,40,0
3,43,55,0
3,55,40,96
3,50,55,0
3,53,40,0
3,48,55,0
3,55,40,96
3,52,55,0
3,55,40,0
3,48,55,0
3,55,40,96
3,48,55,0
3,43,40,0
3,41,55,0
3,48,40,96
3,53,55,0
3,48,40,0
3,41,55,0
3,48,40,96
3,53,55,0
3,48,40,0
3,46,55,0
3,53,40,96
3,46,55,72
3,41,40,0
3,46,55,96
3,53,40,84
3,46,55,72
3,53,40,84
3,50,55,0
3,57,40,96
3,62,55,0
3,57,40,96
3,50,55,0
3,57,40,96
3,50,55,0
3,57,40,0
3,48,55,0
3,55,40,96
3,60,55,0
3,55,40,0
3,48,55,0
3,55,40,96
3,48,55,0
3,55,40,0
3,45,55,0
3,52,40,96
3,57,55,0
3,52,40,0
3,45,55,0
3,52,40,96
3,57,55,0
3,52,40,0
3,45,55,0
3,52,40,96
3,57,55,0
3,52,40,0
3,45,55,0
3,52,40,96
3,57,55,0
3,52,40,0
3,43,55,0
3,50,40,96
3,55,55,0
3,50,40,0
3,43,55,0
3,50,40,96
3,55,55,0
3,50,40,0
3,43,55,0
3,50,40,96
3,55,55,0
3,50,40,0
3,43,55,0
3,50,40,96
3,57,55,0
3,55,40,0
3,50,55,0
3,53,40,96
3,57,55,0
3,62,40,0
3,50,55,0
3,57,55,96
3,62,55,72
3,57,40,0
3,50,55,0
3,57,40,96
3,62,55,0
3,57,40,0
3,50,55,0
3,57,40,96
3,62,55,0
3,57,40,0
3,50,55,96
3,57,40,84
3,62,55,0
3,57,40,0
3,50,55,0
3,57,40,96
3,62,55,0
3,57,40,0
3,50,55,0
3,57,40,96
3,62,55,0
3,57,40,0
3,50,55,0
3,57,40,96
3,62,55,0
3,57,40,96
3,50,55,0
3,57,40,96
3,50,55,0
3,45,40,0
3,50,55,0
3,57,40,96
3,50,55,0
3,45,40,0
3,46,55,0
3,53,40,96
3,46,55,0
3,41,40,0
3,46,55,0
3,50,40,96
3,53,55,0
3,50,40,0
3,45,55,0
3,52,40,96
3,55,55,0
3,52,40,0
3,45,55,0
3,52,40,96
3,55,55,0
3,52,40,0
3,45,55,0
3,52,40,96
3,55,55,0
3,52,40,0
3,45,55,0
3,52,40,96
3,55,55,0
3,52,40,0
3,50,55,0
3,45,40,96
3,53,55,0
3,45,40,0
3,50,55,0
3,57,40,96
3,62,55,0
3,57,40,0
3,46,55,0
3,53,40,96
3,58,55,0
3,53,40,0
3,46,55,0
3,53,40,96
3,58,55,0
3,53,40,0
3,45,55,0
3,52,40,96
3,55,55,0
3,52,40,0
3,45,55,0
3,52,40,96
3,55,55,0
3,52,40,0
3,45,55,0
3,52,40,96
3,55,55,0
3,52,40,0
3,45,55,0
3,52,40,96
3,55,55,0
3,52,40,0
3,50,55,0
3,45,40,96
3,50,55,0
3,45,40,0
3,50,55,0
3,57,40,96
3,50,55,0
3,45,40,0
3,43,55,0
3,55,40,96
3,50,55,0
3,55,40,0
3,43,55,0
3,55,40,96
3,50,55,0
3,55,40,0
3,48,55,0
3,55,40,96
3,52,55,0
3,55,40,0
3,48,55,0
3,55,40,96
3,48,55,0
3,43,40,0
3,41,55,0
3,48,40,96
3,53,55,0
3,48,40,0
3,41,55,0
3,48,40,96
3,53,55,0
3,48,40,0
3,46,55,0
3,53,40,96
3,46,55,0
3,41,40,0
3,46,55,0
3,53,40,96
3,46,55,0
3,53,40,0
3,50,55,0
3,57,40,96
3,62,55,0
3,57,40,0
3,50,55,0
3,57,40,96
3,50,55,0
3,57,40,0
3,48,55,0
3,55,40,96
3,60,55,0
3,55,55,0
3,48,55,0
3,55,40,96
3,48,55,0
3,55,40,0
3,45,55,0
3,52,40,96
3,57,55,0
3,52,40,0
3,45,55,0
3,52,40,96
3,57,55,0
3,52,40,0
3,45,55,0
3,52,40,96
3,57,55,0
3,52,40,0
3,45,55,0
3,52,40,96
3,57,55,0
3,52,40,0
3,43,55,0
3,50,40,96
3,55,55,0
3,50,40,0
3,43,55,0
3,50,40,96
3,55,55,0
3,50,40,0
3,43,55,12
3,50,40,84
3,55,55,0
3,50,40,0
3,43,55,0
3,50,40,96
3,57,55,0
3,55,40,0
3,50,55,0
3,53,40,96
3,57,55,0
3,62,40,0
3,50,55,0
3,57,40,96
3,62,55,0
3,57,40,0
3,50,55,0
3,57,40,96
3,62,55,0
3,57,40,0
3,50,55,0
3,57,40,96
3,62,55,0
3,57,40,0
3,50,55,0
3,57,40,96
3,62,55,0
3,57,40,0
3,50,55,0
3,57,40,96
3,62,55,0
3,57,40,0
3,50,55,0
3,57,40,96
3,62,55,0
3,57,40,0
3,50,55,0
3,57,40,96
3,62,55,0
3,57,40,0
3,50,55,0
3,57,40,96
3,62,55,0
3,57,40,0
3,50,55,0
3,57,40,96
3,50,55,0
3,45,40,0
3,46,55,0
3,53,40,96
3,46,55,0
3,41,40,0
3,46,55,0
3,50,40,96
3,53,55,0
3,50,40,0
3,45,55,0
3,52,40,96
3,55,55,0
3,52,40,0
3,57,55,0
3,45,40,12
3,55,55,0
3,52,40,96
3,45,55,0
3,52,40,96
3,55,55,0
3,52,40,0
3,45,55,0
3,52,40,96
3,57,55,0
3,52,40,0
