track,note,velocity,time
1,88,122,1136
1,79,120,0
1,83,127,0
1,76,127,0
1,79,104,4
1,83,123,12
1,79,88,0
1,88,111,4
1,79,101,0
1,83,93,4
1,81,114,32
1,86,120,0
1,78,98,4
1,74,101,0
1,88,125,12
1,81,125,0
1,76,107,0
1,78,100,4
1,74,103,16
1,86,116,4
1,88,116,0
1,76,109,0
1,79,105,0
1,83,120,0
1,79,103,32
1,88,109,4
1,79,123,0
1,76,99,4
1,81,114,24
1,78,103,0
1,86,114,4
1,74,93,0
1,72,85,32
1,84,115,0
1,78,101,0
1,71,93,188
1,83,125,4
1,76,126,16
1,85,126,4
1,73,126,0
1,81,126,0
1,71,103,20
1,83,127,0
1,81,120,0
1,73,117,16
1,81,117,4
1,85,117,0
1,75,101,8
1,87,107,4
1,78,101,0
1,83,127,0
1,73,98,36
1,85,111,0
1,78,93,0
1,75,98,8
1,87,111,0
1,76,127,8
1,88,123,0
1,81,123,0
1,83,127,0
1,76,103,36
1,88,125,0
1,83,127,4
1,80,127,0
1,88,123,16
1,76,102,4
1,83,123,0
1,78,99,0
1,76,102,12
1,88,127,4
1,80,103,0
1,83,127,0
1,76,122,828
1,79,99,32
1,81,127,8
1,83,127,8
1,88,127,8
1,91,127,16
1,93,127,20
1,95,127,16
1,98,127,0
1,100,127,8
1,98,127,12
1,95,127,32
1,93,127,28
1,91,122,0
1,90,122,24
1,88,127,4
1,93,127,0
1,91,127,0
1,90,119,28
1,88,127,28
1,86,122,24
1,83,122,0
1,86,127,28
1,88,127,0
1,90,127,0
1,91,125,12
1,90,122,32
1,88,122,20
1,86,120,0
1,83,127,24
1,81,127,28
1,79,120,16
1,76,127,0
1,74,127,28
1,76,127,4
1,83,98,15276
1,86,90,44
1,88,97,40
1,93,96,4
1,86,89,48
1,83,98,29752
1,86,90,44
1,88,97,40
1,93,96,4
1,86,89,48
1,79,115,73704
1,82,94,32
1,84,122,8
1,86,127,8
1,91,120,8
1,94,120,16
1,96,127,20
1,98,127,16
1,101,124,0
1,103,127,8
1,101,127,12
1,98,127,32
1,96,120,28
1,94,115,0
1,93,115,24
1,91,127,4
1,96,127,0
1,94,124,0
1,93,111,28
1,91,122,28
1,89,115,24
1,86,115,0
1,89,126,28
1,91,127,0
1,93,124,0
1,94,117,12
1,93,115,32
1,91,115,20
1,89,113,0
1,86,127,24
1,84,127,28
1,82,113,16
1,79,120,0
1,77,124,28
1,79,127,4
2,40,88,1116
2,35,105,756
2,36,97,748
2,31,90,4
2,33,82,772
2,35,96,760
2,28,89,728
2,28,89,140
2,54,81,16
2,56,95,12
2,28,87,356
2,40,94,4
2,38,96,72
2,35,86,96
2,33,80,76
2,35,94,88
2,33,82,144
2,35,83,16
2,38,90,0
2,33,87,88
2,35,94,12
2,40,101,172
2,38,93,92
2,35,87,88
2,33,79,88
2,35,93,4
2,33,85,164
2,35,87,16
2,38,92,96
2,33,84,88
2,35,87,28
2,40,96,148
2,38,94,84
2,35,87,96
2,33,85,84
2,35,97,12
2,47,79,104
2,33,83,68
2,35,86,16
2,38,87,96
2,33,83,72
2,35,110,104
2,35,78,12
2,47,94,28
2,40,94,4
2,38,94,32
2,35,87,96
2,33,83,12
2,35,91,20
2,33,80,180
2,35,90,16
2,38,91,16
2,33,84,100
2,35,83,16
2,47,83,96
2,47,82,28
2,40,94,4
2,38,93,36
2,35,83,4
2,33,85,4
2,35,94,16
2,33,81,156
2,35,87,8
2,38,91,0
2,33,91,108
2,35,91,12
2,47,90,104
2,40,91,92
2,38,95,36
2,35,84,8
2,33,84,4
2,35,91,8
2,33,80,108
2,35,87,0
2,38,91,100
2,33,92,96
2,35,90,12
2,47,85,12
2,40,94,96
2,38,94,52
2,35,83,4
2,33,90,0
2,35,85,20
2,33,83,156
2,35,89,8
2,38,94,100
2,33,84,80
2,35,95,4
2,40,99,152
2,38,102,52
2,35,92,96
2,33,102,100
2,35,98,20
2,33,95,156
2,35,104,4
2,38,94,104
2,33,90,52
2,35,100,12
2,30,87,0
2,35,104,0
2,28,104,96
2,33,100,24
2,45,97,180
2,33,86,16
2,34,86,76
2,35,94,96
2,47,91,92
2,35,105,96
2,35,97,44
2,35,97,116
2,36,101,12
2,48,90,88
2,36,106,88
2,36,90,48
2,36,113,136
2,38,99,4
2,50,94,96
2,38,94,116
2,50,86,4
2,38,96,192
2,36,90,0
2,48,92,100
2,36,99,76
2,36,97,48
2,36,97,124
2,38,85,4
2,50,89,92
2,38,106,76
2,38,95,68
2,35,99,84
2,40,87,4
2,52,91,96
2,40,106,92
2,40,101,40
2,40,110,56
2,35,95,24
2,40,105,8
2,52,85,100
2,40,113,84
2,40,105,48
2,40,101,120
2,33,80,8
2,45,103,100
2,33,94,116
2,33,106,44
2,34,91,140
2,35,97,4
2,47,94,96
2,35,101,92
2,35,99,48
2,35,97,68
2,36,101,24
2,48,86,96
2,36,106,84
2,36,118,60
2,33,89,136
2,38,99,4
2,50,94,96
2,38,101,128
2,38,96,52
2,37,91,20
2,36,96,8
2,48,86,100
2,36,95,100
2,36,103,44
2,36,110,120
2,38,95,8
2,50,91,96
2,38,99,88
2,38,120,48
2,38,106,64
2,35,103,20
2,47,94,100
2,35,97,100
2,35,96,44
2,33,89,140
2,35,120,4
2,47,90,100
2,35,103,68
2,35,106,48
2,35,101,56
2,38,87,12
2,40,96,32
2,40,92,16
2,35,107,80
2,35,107,36
2,40,97,108
2,42,85,20
2,42,96,40
2,42,85,68
2,42,85,44
2,38,92,112
2,43,105,16
2,43,93,32
2,38,99,60
2,38,97,28
2,43,94,140
2,43,93,40
2,43,96,32
2,43,90,96
2,43,94,40
2,42,94,8
2,40,93,0
2,40,96,28
2,35,97,96
2,35,110,36
2,40,94,124
2,42,94,12
2,42,91,24
2,38,90,96
2,38,110,32
2,38,103,124
2,43,94,24
2,43,95,36
2,38,84,88
2,38,105,36
2,43,87,108
2,43,101,32
2,45,94,120
2,47,99,104
2,42,89,84
2,40,94,8
2,40,97,24
2,35,94,96
2,35,113,40
2,40,94,108
2,42,94,20
2,42,89,48
2,38,94,64
2,38,107,28
2,38,91,140
2,43,103,36
2,43,86,44
2,43,95,92
2,43,94,36
2,38,92,108
2,43,97,12
2,43,83,44
2,43,92,96
2,43,95,48
2,33,113,32
2,35,127,4
2,35,101,80
2,35,110,32
2,35,115,88
2,35,127,28
2,35,113,72
2,35,120,24
2,40,94,28
2,42,80,96
2,49,88,72
2,47,115,92
2,39,91,16
2,35,105,16
2,35,95,52
2,35,127,36
2,35,107,96
2,35,118,40
2,40,118,32
2,38,96,88
2,35,86,96
2,33,80,76
2,35,94,88
2,33,82,144
2,35,83,16
2,38,90,0
2,33,87,88
2,35,94,12
2,40,101,172
2,38,93,92
2,35,87,88
2,33,79,88
2,35,93,4
2,33,85,164
2,35,87,16
2,38,92,96
2,33,84,88
2,35,87,28
2,40,96,148
2,38,94,84
2,35,87,96
2,33,85,84
2,35,97,12
2,47,79,104
2,33,83,68
2,35,86,16
2,38,87,96
2,33,83,72
2,35,110,104
2,35,78,12
2,47,94,28
2,40,94,4
2,38,94,32
2,35,87,96
2,33,83,12
2,35,91,20
2,33,80,180
2,35,90,16
2,38,91,16
2,33,84,100
2,35,83,16
2,35,83,100
2,33,113,92
2,45,97,180
2,33,86,16
2,34,86,76
2,35,94,96
2,47,91,92
2,35,105,96
2,35,97,44
2,35,97,116
2,36,101,12
2,48,90,88
2,36,106,88
2,36,90,48
2,36,113,136
2,38,99,4
2,50,94,96
2,38,94,116
2,50,86,4
2,38,96,192
2,36,90,0
2,48,92,100
2,36,99,76
2,36,97,48
2,36,97,124
2,38,85,4
2,50,89,92
2,38,106,76
2,38,95,68
2,35,99,84
2,40,87,4
2,52,91,96
2,40,106,92
2,40,101,40
2,40,110,56
2,35,95,24
2,40,105,8
2,52,85,100
2,40,113,84
2,40,105,48
2,40,101,120
2,33,80,8
2,45,103,100
2,33,94,116
2,33,106,44
2,34,91,140
2,35,97,4
2,47,94,96
2,35,101,92
2,35,99,48
2,35,97,68
2,36,101,24
2,48,86,96
2,36,106,84
2,36,118,60
2,33,89,136
2,38,99,4
2,50,94,96
2,38,101,128
2,38,96,52
2,37,91,20
2,36,96,8
2,48,86,100
2,36,95,100
2,36,103,44
2,36,110,120
2,38,95,8
2,50,91,96
2,38,99,88
2,38,120,48
2,38,106,64
2,35,103,20
2,47,94,100
2,35,97,100
2,35,96,44
2,33,89,140
2,35,120,4
2,47,90,100
2,35,103,68
2,35,106,48
2,35,101,56
2,38,87,12
2,40,96,32
2,40,92,16
2,35,107,80
2,35,107,36
2,40,97,108
2,42,85,20
2,42,96,40
2,42,85,68
2,42,85,44
2,38,92,112
2,43,105,16
2,43,93,32
2,38,99,60
2,38,97,28
2,43,94,140
2,43,93,40
2,43,96,32
2,43,90,96
2,43,94,40
2,42,94,8
2,40,93,0
2,40,96,28
2,35,97,96
2,35,110,36
2,40,94,124
2,42,94,12
2,42,91,24
2,38,90,96
2,38,110,32
2,38,103,124
2,43,94,24
2,43,95,36
2,38,84,88
2,38,105,36
2,43,87,108
2,43,101,32
2,45,94,120
2,47,99,104
2,42,89,84
2,40,94,8
2,40,97,24
2,35,94,96
2,35,113,40
2,40,94,108
2,42,94,20
2,42,89,48
2,38,94,64
2,38,107,28
2,38,91,140
2,43,103,36
2,43,86,44
2,43,95,92
2,43,94,36
2,38,92,108
2,43,97,12
2,43,83,44
2,43,92,96
2,43,95,48
2,33,113,32
2,35,127,4
2,35,101,80
2,35,110,32
2,35,115,88
2,35,127,28
2,35,113,72
2,35,120,24
2,40,94,28
2,42,80,96
2,49,88,72
2,47,115,92
2,39,91,16
2,35,105,16
2,35,95,52
2,35,127,36
2,35,107,96
2,35,118,40
2,35,118,32
2,40,110,104
2,40,87,28
2,35,97,84
2,40,105,28
2,47,99,156
2,45,87,16
2,40,90,136
2,45,91,36
2,33,95,128
2,38,97,40
2,38,107,40
2,50,92,96
2,38,96,36
2,38,103,96
2,43,95,20
2,43,99,36
2,43,94,96
2,43,94,40
2,36,97,104
2,35,73,24
2,35,115,40
2,47,105,80
2,35,95,0
2,35,97,112
2,36,110,8
2,48,94,16
2,36,88,84
2,36,97,48
2,35,94,16
2,33,96,20
2,33,103,20
2,33,103,112
2,45,96,28
2,33,97,92
2,34,89,12
2,34,95,36
2,34,81,88
2,46,89,0
2,34,99,120
2,35,94,8
2,47,105,4
2,35,87,100
2,35,116,68
2,33,87,116
2,35,97,4
2,47,95,96
2,35,85,112
2,35,107,32
2,35,114,80
2,40,82,40
2,47,93,0
2,40,85,96
2,40,106,36
2,42,88,28
2,43,94,28
2,45,85,36
2,45,113,32
2,40,94,92
2,33,96,36
2,33,97,68
2,38,76,32
2,38,115,36
2,38,94,100
2,38,103,40
2,40,88,20
2,42,89,4
2,43,92,8
2,43,103,28
2,43,85,76
2,43,97,40
2,43,99,52
2,35,97,40
2,35,103,48
2,35,89,64
2,35,113,56
2,35,105,108
2,36,96,12
2,36,105,36
2,36,87,80
2,36,113,52
2,48,96,52
2,43,78,96
2,45,86,20
2,33,101,20
2,33,92,64
2,33,94,48
2,33,95,96
2,34,87,8
2,34,85,36
2,34,95,68
2,34,118,40
2,34,103,96
2,35,106,4
2,35,92,40
2,35,106,104
2,35,118,60
2,42,97,32
2,40,113,772
2,38,105,8
2,38,107,108
2,38,110,124
2,31,113,100
2,43,94,100
2,31,89,72
2,31,101,40
2,31,90,128
2,36,106,8
2,48,86,96
2,36,85,84
2,35,91,0
2,36,92,44
2,39,107,8
2,40,95,0
2,41,92,12
2,53,87,96
2,41,99,88
2,41,113,28
2,41,89,120
2,34,127,16
2,46,81,100
2,34,88,92
2,34,107,52
2,34,118,80
2,38,107,36
2,50,85,4
2,38,105,64
2,38,115,56
2,38,96,116
2,39,107,8
2,51,81,104
2,39,118,68
2,39,97,40
2,39,107,56
2,36,103,16
2,48,96,104
2,36,94,92
2,36,113,44
2,36,97,72
2,37,113,60
2,49,79,96
2,37,120,56
2,37,110,48
2,37,127,80
2,38,103,48
2,50,96,96
2,38,115,68
2,38,110,48
2,38,107,76
2,36,105,28
2,48,91,100
2,36,124,56
2,36,107,36
2,36,113,64
2,34,118,36
2,46,84,100
2,34,127,88
2,34,94,36
2,34,127,92
2,39,97,36
2,38,127,104
2,31,97,24
2,43,88,108
2,31,94,72
2,31,110,40
2,31,93,100
2,36,106,4
2,48,87,96
2,36,106,84
2,36,105,40
2,39,105,40
2,40,99,8
2,41,110,12
2,53,85,4
2,41,105,112
2,41,103,28
2,41,107,140
2,34,110,0
2,46,91,108
2,34,113,96
2,34,92,44
2,34,127,92
2,38,113,32
2,50,92,96
2,38,97,68
2,38,105,44
2,38,106,92
2,39,127,16
2,51,83,0
2,39,110,88
2,39,107,48
2,39,96,84
2,36,107,16
2,48,87,96
2,36,107,100
2,36,105,32
2,36,96,104
2,37,127,8
2,49,86,8
2,37,124,80
2,37,120,48
2,37,124,64
2,38,115,48
2,50,94,104
2,38,97,92
2,38,96,32
2,36,86,184
2,48,94,104
2,36,101,80
2,36,103,36
2,36,113,68
2,34,81,48
2,46,93,96
2,34,127,52
2,34,96,36
2,34,113,80
2,39,103,80
2,38,127,144
2,31,101,0
2,43,94,108
2,31,88,104
2,31,107,40
2,31,96,104
2,36,113,0
2,48,91,84
2,36,106,52
2,36,105,44
2,39,90,16
2,40,101,12
2,41,101,8
2,53,90,96
2,41,87,60
2,41,113,32
2,41,105,120
2,34,127,24
2,46,81,92
2,34,120,80
2,34,94,40
2,34,127,92
2,38,110,36
2,50,95,96
2,38,95,84
2,38,107,44
2,38,105,96
2,39,127,12
2,51,83,4
2,39,127,64
2,39,107,48
2,39,105,64
2,36,107,20
2,48,92,100
2,36,107,56
2,36,103,40
2,36,94,56
2,37,124,28
2,49,87,96
2,37,127,76
2,37,110,40
2,37,127,64
2,38,107,52
2,50,97,100
2,38,105,128
2,38,87,16
2,38,127,92
2,36,105,24
2,48,90,100
2,36,120,76
2,36,107,36
2,36,115,64
2,34,127,40
2,46,99,100
2,34,127,80
2,34,95,36
2,34,127,84
2,39,113,76
2,38,115,96
2,31,105,28
2,43,95,96
2,31,103,128
2,31,110,32
2,31,103,100
2,36,94,0
2,48,90,96
2,36,105,64
2,36,120,48
2,39,95,16
2,40,101,8
2,41,120,0
2,53,93,100
2,41,101,60
2,41,118,28
2,41,107,96
2,34,120,16
2,46,96,96
2,34,101,76
2,34,103,40
2,34,127,68
2,38,105,16
2,50,96,92
2,38,95,52
2,38,113,40
2,38,118,92
2,39,127,0
2,51,88,100
2,39,97,52
2,39,105,32
2,39,96,64
2,36,110,12
2,48,94,0
2,36,113,72
2,36,103,36
2,36,118,64
2,37,124,48
2,49,90,96
2,37,85,88
2,37,127,36
2,37,127,64
2,38,113,32
2,50,94,100
2,38,124,68
2,38,127,44
2,38,105,72
2,36,115,24
2,48,87,104
2,36,127,80
2,36,118,40
2,36,115,60
2,34,110,40
2,46,87,100
2,34,118,88
2,34,105,40
2,34,118,88
2,39,127,96
2,38,113,160
2,43,101,56
2,41,87,60
2,38,89,8
2,36,87,0
2,38,94,24
2,36,83,88
2,38,101,24
2,41,95,16
2,36,81,112
2,38,127,24
2,43,127,4
3,59,110,11180
3,66,110,0
3,59,120,2796
3,66,108,0
3,59,121,1400
3,66,102,4
3,59,96,1424
3,66,96,0
3,59,91,1412
3,66,98,0
3,59,103,1424
3,66,103,4
3,64,62,480
3,60,56,0
3,55,56,0
3,64,81,8
3,55,62,0
3,60,65,0
3,64,81,112
3,55,56,0
3,60,56,8
3,60,53,4
3,55,56,0
3,64,61,0
3,55,65,0
3,60,61,0
3,64,77,8
3,64,65,120
3,60,58,0
3,55,61,0
3,66,68,16
3,61,59,8
3,57,60,0
3,66,79,4
3,61,65,0
3,57,68,0
3,66,59,128
3,57,55,0
3,61,46,0
3,66,60,32
3,61,59,0
3,57,65,0
3,66,81,4
3,61,69,0
