track,note,velocity,time
0,64,88,214
0,59,94,0
0,76,127,0
0,67,94,0
0,62,95,0
0,67,60,0
0,71,61,0
0,83,127,0
0,88,122,0
0,79,120,0
0,40,88,0
0,71,86,0
0,36,80,0
0,36,0,1
0,51,83,0
0,51,0,1
0,79,0,2
0,79,104,1
0,79,0,3
0,83,0,0
0,79,88,3
0,83,123,0
0,83,0,2
0,88,0,0
0,79,0,0
0,88,111,1
0,79,101,0
0,83,93,1
0,76,0,28
0,83,0,8
0,79,0,1
0,88,0,0
0,69,65,6
0,66,58,0
0,35,105,1
0,71,0,1
0,62,0,0
0,59,0,0
0,67,0,0
0,81,114,0
0,86,120,0
0,64,0,1
0,67,0,0
0,74,101,0
0,66,84,0
0,78,98,0
0,62,91,0
0,59,101,0
0,57,94,0
0,36,75,1
0,36,0,1
0,40,0,2
0,53,67,0
0,53,0,1
0,81,0,1
0,86,0,1
0,74,0,3
0,78,0,3
0,88,125,3
0,76,107,0
0,81,125,0
0,78,100,1
0,88,0,28
0,71,0,3
0,74,103,1
0,86,116,1
0,81,0,33
0,76,0,3
0,78,0,8
0,74,0,1
0,57,0,0
0,67,64,0
0,64,58,0
0,59,0,1
0,62,0,0
0,36,97,0
0,66,0,1
0,62,91,0
0,55,90,0
0,59,91,0
0,64,90,0
0,69,0,1
0,86,0,0
0,66,0,0
0,76,89,0
0,83,120,0
0,79,105,0
0,76,109,0
0,88,116,0
0,35,0,1
0,36,72,0
0,36,0,1
0,53,65,0
0,53,0,1
0,79,0,27
0,79,103,1
0,76,0,42
0,79,0,2
0,88,0,0
0,76,0,1
0,74,89,0
0,79,123,1
0,88,109,0
0,76,99,1
0,72,84,22
0,74,0,3
0,83,0,1
0,76,0,11
0,88,0,4
0,79,0,0
0,36,0,2
0,64,0,0
0,31,90,1
0,62,56,1
0,66,54,0
0,62,0,1
0,59,0,0
0,71,86,0
0,64,0,1
0,55,0,0
0,78,103,0
0,57,90,0
0,62,94,0
0,81,114,0
0,54,83,0
0,59,90,0
0,74,93,1
0,86,114,0
0,72,0,1
0,67,0,0
0,36,71,0
0,36,0,1
0,46,64,1
0,51,67,0
0,51,0,1
0,46,0,0
0,86,0,5
0,74,0,0
0,78,0,2
0,84,115,8
0,72,85,0
0,78,101,0
0,71,93,47
0,83,125,1
0,84,0,2
0,71,0,17
0,81,0,3
0,83,0,18
0,78,0,0
0,71,0,1
0,72,0,3
0,66,0,2
0,33,82,0
0,64,65,0
0,61,59,0
0,57,0,1
0,59,0,0
0,62,0,1
0,62,0,0
0,54,0,0
0,61,97,0
0,52,95,0
0,57,91,0
0,59,94,0
0,73,80,0
0,76,126,0
0,81,126,1
0,85,126,0
0,73,126,0
0,36,71,1
0,53,60,0
0,53,0,1
0,36,0,0
0,31,0,1
0,73,0,2
0,85,0,2
0,81,0,1
0,71,103,1
0,81,120,0
0,83,127,0
0,53,64,1
0,53,0,1
0,81,0,31
0,71,0,6
0,73,117,4
0,81,117,1
0,85,117,0
0,73,0,1
0,71,82,1
0,71,0,19
0,73,92,3
0,73,0,13
0,83,0,2
0,76,0,3
0,81,0,0
0,73,0,2
0,85,0,2
0,59,0,2
0,61,0,0
0,75,101,0
0,57,0,1
0,52,0,0
0,63,91,0
0,59,93,0
0,78,101,0
0,83,127,0
0,87,107,0
0,61,90,0
0,66,59,0
0,54,91,0
0,73,86,1
0,35,96,1
0,63,58,0
0,64,0,1
0,36,71,2
0,36,0,1
0,33,0,3
0,61,0,7
0,78,0,62
0,87,0,10
0,75,0,0
0,73,98,9
0,85,111,0
0,78,93,0
0,51,88,1
0,51,0,1
0,83,0,6
0,85,0,33
0,73,0,4
0,75,98,2
0,87,111,0
0,73,0,8
0,87,0,20
0,78,0,3
0,75,0,9
0,59,0,1
0,28,89,0
0,54,0,1
0,63,0,0
0,61,0,0
0,59,94,0
0,81,123,0
0,64,99,0
0,57,96,0
0,76,127,0
0,52,98,0
0,88,123,0
0,71,95,0
0,83,127,0
0,69,65,0
0,63,0,1
0,36,71,0
0,36,0,1
0,35,0,0
0,55,53,1
0,51,73,0
0,51,0,1
0,55,0,0
0,51,71,38
0,51,0,1
0,28,0,12
0,83,0,11
0,53,57,0
0,53,0,1
0,81,0,3
0,76,0,5
0,88,0,4
0,68,60,8
0,66,0,1
0,88,125,0
0,64,60,0
0,76,103,0
0,57,0,1
0,69,0,0
0,56,92,0
0,83,127,0
0,80,127,0
0,28,89,1
0,36,65,0
0,36,0,1
0,51,56,0
0,51,0,1
0,83,0,87
0,80,0,0
0,76,0,1
0,88,0,0
0,66,58,4
0,88,123,0
0,56,0,1
0,83,123,0
0,76,102,0
0,54,97,0
0,78,99,0
0,68,0,2
0,51,83,1
0,51,0,1
0,76,0,82
0,83,0,2
0,28,0,2
0,78,0,0
0,88,0,3
0,54,81,0
0,51,64,1
0,51,0,1
0,54,0,0
0,76,102,0
0,56,94,0
0,56,95,1
0,46,63,0
0,80,103,0
0,88,127,0
0,83,127,0
0,46,0,1
0,68,58,0
0,36,77,0
0,36,0,1
0,66,0,9
0,54,0,2
0,28,87,89
0,71,0,61
0,83,0,6
0,79,74,14
0,79,70,0
0,67,67,0
0,67,76,0
0,56,0,2
0,76,0,3
0,78,76,2
0,79,0,1
0,79,0,1
0,78,63,0
0,66,67,1
0,66,63,0
0,64,0,2
0,67,0,1
0,68,0,0
0,67,0,0
0,79,77,8
0,79,79,0
0,67,80,1
0,67,87,0
0,80,0,3
0,81,77,0
0,88,0,1
0,78,0,2
0,66,0,0
0,78,0,1
0,66,0,2
0,69,74,3
0,69,69,0
0,81,83,0
0,79,0,3
0,83,78,0
0,67,0,1
0,67,0,1
0,81,0,2
0,79,0,0
0,71,71,5
0,71,81,0
0,83,89,3
0,69,0,1
0,69,0,3
0,81,0,0
0,83,0,0
0,79,69,2
0,67,69,1
0,79,96,2
0,67,73,0
0,71,0,2
0,71,0,0
0,28,0,3
0,83,0,0
0,60,59,0
0,62,69,0
0,81,78,0
0,62,0,1
0,60,0,0
0,46,112,1
0,46,0,1
0,69,79,0
0,64,121,0
0,69,78,0
0,40,94,0
0,59,127,0
0,81,112,2
0,79,0,1
0,67,0,1
0,67,0,0
0,79,0,2
0,83,73,3
0,81,0,2
0,71,91,0
0,71,73,0
0,88,89,1
0,83,116,0
0,69,0,1
0,69,0,0
0,81,0,3
0,88,0,1
0,88,89,1
0,83,0,2
0,88,112,0
0,71,0,1
0,76,88,0
0,56,0,1
0,64,0,0
0,59,0,0
0,52,0,0
0,71,0,0
0,60,61,0
0,62,62,0
0,88,127,0
0,36,127,0
0,36,0,1
0,62,0,0
0,60,0,0
0,76,122,0
0,42,58,0
0,42,0,1
0,83,0,0
0,59,0,1
0,40,0,2
0,75,62,0
0,64,0,1
0,88,0,0
0,75,0,8
0,76,0,4
0,76,0,0
0,88,0,3
0,74,59,1
0,44,54,1
0,38,96,0
0,62,117,0
0,44,0,1
0,88,0,1
0,73,56,1
0,74,0,5
0,73,0,4
0,62,0,1
0,72,51,7
0,42,55,4
0,35,86,0
0,42,0,1
0,59,126,0
0,72,0,3
0,38,0,1
0,59,0,18
0,60,72,1
0,33,80,0
0,62,80,0
0,62,0,1
0,60,0,0
0,42,54,1
0,42,0,1
0,35,0,0
0,35,94,22
0,59,127,0
0,33,0,1
0,62,51,0
0,42,97,0
0,36,105,0
0,60,53,0
0,60,0,1
0,42,0,0
0,62,0,0
0,36,0,0
0,52,105,16
0,59,0,3
0,44,64,3
0,44,0,1
0,50,96,5
0,52,0,2
0,35,0,2
0,50,0,5
0,48,96,0
0,76,122,3
0,48,0,4
0,47,95,0
0,42,54,1
0,42,0,1
0,79,99,2
0,45,95,2
0,47,0,2
0,76,0,0
0,76,50,0
0,81,127,2
0,79,0,5
0,43,95,1
0,79,40,0
0,45,0,1
0,83,127,0
0,81,0,3
0,76,0,0
0,81,54,2
0,88,127,0
0,83,0,2
0,57,111,0
0,33,82,0
0,41,95,0
0,60,66,1
0,62,80,0
0,62,0,1
0,60,0,0
0,43,0,0
0,42,52,0
0,42,0,1
0,79,0,0
0,91,127,1
0,83,60,1
0,88,0,1
0,81,0,2
0,40,90,1
0,88,51,1
0,41,0,1
0,93,127,0
0,91,0,1
0,83,0,0
0,91,51,4
0,95,127,0
0,38,99,1
0,88,0,1
0,40,0,1
0,93,0,0
0,98,127,0
0,33,0,1
0,93,56,3
0,91,0,1
0,95,0,0
0,59,117,0
0,35,83,0
0,36,99,1
0,100,127,1
0,38,0,1
0,36,105,0
0,42,95,0
0,62,53,0
0,60,54,0
0,60,0,1
0,36,0,0
0,62,0,0
0,42,0,0
0,95,58,0
0,98,0,1
0,57,0,1
0,93,0,1
0,98,54,0
0,98,127,1
0,35,100,2
0,95,0,2
0,36,0,0
0,100,61,2
0,95,127,2
0,98,0,1
0,98,0,0
0,33,96,1
0,35,0,2
0,98,56,0
0,59,0,3
0,93,127,1
0,35,0,1
0,95,0,0
0,66,115,0
0,38,90,0
0,44,70,2
0,44,0,1
0,62,127,0
0,95,62,0
0,98,0,1
0,31,96,0
0,33,0,1
0,100,0,0
0,93,0,1
0,91,122,0
0,93,51,5
0,95,0,1
0,90,122,0
0,91,0,1
0,31,0,0
0,100,0,4
0,93,0,1
0,91,50,0
0,90,0,1
0,88,127,1
0,62,0,2
0,62,66,2
0,60,58,0
0,90,50,0
0,42,59,0
0,42,0,1
0,60,0,0
0,91,0,0
0,62,0,0
0,38,0,1
0,90,0,5
0,88,0,0
0,93,127,0
0,66,0,1
0,88,58,0
0,93,0,7
0,91,127,0
0,88,0,4
0,93,60,0
0,90,119,3
0,91,0,1
0,57,111,0
0,33,87,1
0,42,54,1
0,42,0,1
0,93,0,1
0,91,54,0
0,88,127,3
0,90,0,1
0,90,49,3
0,91,0,1
0,86,122,2
0,88,0,1
0,88,54,4
0,90,0,1
0,33,0,2
0,86,0,1
0,83,122,0
0,57,0,2
0,60,58,0
0,35,94,0
0,62,64,0
0,62,0,1
0,60,0,0
0,86,50,0
0,88,0,1
0,42,97,0
0,36,104,0
0,36,0,1
0,42,0,0
0,59,121,0
0,86,127,2
0,86,0,5
0,83,50,0
0,86,0,2
0,88,127,0
0,86,55,5
0,83,0,2
0,90,127,0
0,88,0,1
0,59,0,4
0,86,0,0
0,88,62,0
0,79,71,2
0,44,56,0
0,74,74,0
0,44,0,1
0,90,0,2
0,83,0,2
0,35,0,0
0,90,54,0
0,88,0,1
0,91,125,0
0,90,122,8
0,90,0,1
0,91,0,1
0,91,51,2
0,74,0,3
0,88,122,0
0,79,0,1
0,90,0,1
0,42,54,0
0,42,0,1
0,90,50,2
0,91,0,2
0,88,0,1
0,86,120,0
0,88,50,4
0,90,0,2
0,83,127,0
0,86,0,1
0,88,0,5
0,86,49,0
0,81,127,2
0,76,122,1
0,83,0,1
0,60,63,1
0,62,74,0
0,62,0,1
0,60,0,0
0,83,58,0
0,64,127,0
0,86,0,1
0,76,115,0
0,46,109,0
0,59,120,0
0,40,101,0
0,46,0,1
0,79,120,0
0,76,75,0
0,81,82,0
0,81,0,1
0,81,57,5
0,79,0,2
0,83,0,0
0,76,127,0
0,79,49,4
0,81,0,1
0,74,127,2
0,76,0,1
0,79,0,4
0,76,51,0
0,74,0,1
0,76,127,1
0,60,58,1
0,62,64,0
0,36,103,0
0,42,77,0
0,42,0,1
0,64,0,0
0,60,0,0
0,40,0,0
0,36,0,0
0,62,0,0
0,76,0,1
0,81,0,0
0,76,0,2
0,74,49,0
0,76,0,1
0,76,0,0
0,59,0,3
0,74,0,2
0,76,48,1
0,76,0,7
0,38,93,6
0,62,117,0
0,44,74,1
0,44,0,1
0,62,0,20
0,76,0,0
0,42,59,0
0,35,87,0
0,42,0,1
0,59,112,0
0,38,0,2
0,59,0,18
0,62,83,3
0,42,56,0
0,42,0,1
0,62,0,0
0,60,72,0
0,33,79,0
0,60,0,1
0,35,0,0
0,33,0,21
0,59,124,0
0,35,93,1
0,42,102,1
0,42,0,1
0,36,105,0
0,60,54,0
0,81,76,0
0,76,70,0
0,62,62,0
0,62,0,1
0,36,0,0
0,60,0,0
0,59,0,21
0,54,118,0
0,44,59,1
0,44,0,1
0,35,0,3
0,81,0,12
0,42,52,6
0,79,62,0
0,42,0,1
0,54,0,0
0,74,70,0
0,76,0,6
0,79,0,8
0,74,0,1
0,57,113,7
0,33,85,0
0,62,80,1
0,60,69,0
0,42,54,0
0,42,0,1
0,62,0,0
0,60,0,0
0,33,0,19
0,59,120,3
0,35,87,1
0,76,70,0
0,60,55,0
0,81,75,0
0,62,60,0
0,62,0,1
0,60,0,0
0,42,109,1
0,36,105,0
0,36,0,1
0,57,0,0
0,42,0,0
0,81,0,13
0,76,0,1
0,59,0,3
0,38,92,4
0,76,57,0
0,81,70,0
0,35,0,1
0,44,69,0
0,44,0,1
0,66,110,0
0,59,110,0
0,66,114,1
0,62,125,0
0,55,117,1
0,81,0,18
0,42,57,2
0,79,68,0
0,62,79,0
0,60,66,0
0,60,0,1
0,62,0,0
0,62,0,0
0,42,0,0
0,74,72,0
0,55,0,1
0,66,0,0
0,66,0,1
0,38,0,0
0,76,0,1
0,59,0,1
0,79,0,1
0,74,0,2
0,33,84,0
0,57,113,0
0,42,55,1
0,42,0,1
0,33,0,9
0,57,0,1
0,60,68,0
0,62,80,0
0,62,0,1
0,60,0,0
0,35,87,0
0,81,76,0
0,76,71,0
0,36,104,1
0,42,86,0
0,42,0,1
0,36,0,0
0,59,122,0
0,81,0,20
0,44,64,1
0,44,0,1
0,59,0,1
0,79,63,0
0,74,67,0
0,54,114,2
0,76,0,6
0,35,0,1
0,74,0,12
0,79,0,0
0,42,70,1
0,42,0,1
0,54,0,2
0,76,124,18
0,60,66,3
0,76,117,0
0,40,96,0
0,62,79,0
0,62,0,1
0,60,0,0
0,81,74,0
0,76,69,0
0,46,115,1
0,46,0,1
0,64,127,0
0,59,127,0
0,81,0,16
0,76,0,3
0,59,0,2
0,36,103,0
0,36,0,1
0,62,63,1
0,42,72,0
0,60,57,0
0,60,0,1
0,62,0,0
0,40,0,0
0,42,0,0
0,64,0,1
0,76,0,1
0,76,0,4
0,38,94,15
0,44,67,2
0,44,0,1
0,62,117,0
0,62,0,19
0,35,87,2
0,42,58,2
0,42,0,1
0,38,0,0
0,59,111,0
0,59,0,18
0,62,86,3
0,33,85,0
0,60,69,0
0,60,0,1
0,35,0,0
0,62,0,0
0,42,54,1
0,42,0,1
0,33,0,18
0,81,71,3
0,62,60,0
0,76,80,0
0,35,97,0
0,62,0,1
0,60,55,0
0,60,0,1
0,42,109,0
0,36,109,0
0,36,0,1
0,42,0,0
0,59,123,0
0,76,0,13
0,44,61,8
0,44,0,1
0,59,0,0
0,76,68,0
0,47,108,0
0,47,79,1
0,35,0,2
0,45,110,6
0,47,0,2
0,45,0,9
0,81,0,1
0,43,110,1
0,42,54,1
0,42,0,1
0,79,68,0
0,74,69,1
0,41,109,2
0,43,0,2
0,47,0,1
0,76,0,0
0,40,103,4
0,41,0,2
0,40,0,6
0,38,97,0
0,57,111,2
0,60,69,2
0,62,80,0
0,62,0,1
0,60,0,0
0,33,83,0
0,42,55,1
0,42,0,1
0,79,0,0
0,36,99,0
0,38,0,1
0,74,0,1
0,35,101,5
0,36,0,1
0,35,0,6
0,33,97,0
0,33,0,4
0,57,0,1
0,59,117,1
0,33,0,1
0,60,58,1
0,35,86,0
0,31,91,0
0,62,60,0
0,62,0,1
0,60,0,0
0,76,71,1
0,81,83,0
0,36,85,0
0,42,90,0
0,42,0,1
0,36,0,0
0,31,0,4
0,29,93,1
0,29,0,7
0,59,0,2
0,54,115,0
0,28,80,1
0,54,117,2
0,54,0,2
0,54,0,1
0,28,0,0
0,66,114,0
0,55,119,0
0,55,115,0
0,62,127,0
0,38,87,1
0,35,0,2
0,44,62,0
0,44,0,1
0,81,0,14
0,76,0,6
0,42,53,1
0,62,70,0
0,60,60,0
