track,note,velocity,time
1,67,70,3084
1,67,70,24
1,65,70,24
1,64,70,24
1,65,70,24
1,67,70,24
1,60,70,24
1,62,70,24
1,64,70,24
1,67,70,24
1,67,70,24
1,71,70,24
1,71,70,24
1,72,70,24
1,72,70,24
1,72,70,24
1,72,70,24
1,76,70,24
1,65,70,24
1,67,70,24
1,65,70,24
1,64,70,24
1,65,70,24
1,67,70,24
1,67,70,24
1,67,70,24
1,65,70,24
1,67,70,24
1,62,70,24
1,67,70,120
1,67,70,24
1,67,70,24
1,65,70,24
1,64,70,24
1,65,70,24
1,67,70,24
1,60,70,24
1,62,70,24
1,64,70,24
1,67,70,24
1,67,70,24
1,71,70,24
1,71,70,24
1,72,70,24
1,72,70,24
1,72,70,24
1,72,70,24
1,76,70,24
1,65,70,24
1,67,70,24
1,65,70,24
1,64,70,24
1,65,70,24
1,67,70,24
1,67,70,24
1,67,70,24
1,65,70,24
1,67,70,24
1,62,70,24
1,76,70,120
1,76,70,24
1,76,70,24
1,74,70,24
1,76,70,24
1,77,70,24
1,76,70,24
1,67,70,24
1,72,70,24
1,77,70,24
1,76,70,24
1,67,70,24
1,72,70,24
1,77,70,24
1,76,70,24
1,67,70,24
1,72,70,24
1,71,70,24
1,72,70,24
1,71,70,24
1,69,70,24
1,67,70,24
1,60,70,24
1,60,70,24
1,67,70,24
1,67,70,24
1,65,70,0
1,65,70,24
1,64,70,0
1,64,70,24
1,60,70,24
1,60,70,24
1,64,70,24
1,62,70,0
1,60,70,24
1,67,70,24
1,67,70,24
1,65,70,24
1,64,70,24
1,65,70,24
1,67,70,24
1,60,70,24
1,62,70,24
1,64,70,24
1,67,70,24
1,67,70,24
1,71,70,24
1,71,70,24
1,72,70,24
1,72,70,24
1,72,70,24
1,72,70,24
1,76,70,24
1,65,70,24
1,67,70,24
1,65,70,24
1,64,70,24
1,65,70,24
1,67,70,24
1,67,70,24
1,67,70,24
1,65,70,24
1,67,70,24
1,62,70,24
1,67,70,120
1,67,70,24
1,67,70,24
1,65,70,24
1,64,70,24
1,65,70,24
1,67,70,24
1,60,70,24
1,62,70,24
1,64,70,24
1,67,70,24
1,67,70,24
1,71,70,24
1,71,70,24
1,72,70,24
1,72,70,24
1,72,70,24
1,72,70,24
1,76,70,24
1,65,70,24
1,67,70,24
1,65,70,24
1,64,70,24
1,65,70,24
1,67,70,24
1,67,70,24
1,67,70,24
1,65,70,24
1,67,70,24
1,62,70,24
1,76,70,120
1,76,70,24
1,76,70,24
1,74,70,24
1,76,70,24
1,77,70,24
1,76,70,24
1,67,70,24
1,72,70,24
1,77,70,24
1,76,70,24
1,67,70,24
1,72,70,24
1,77,70,24
1,76,70,24
1,67,70,24
1,72,70,24
1,71,70,24
1,72,70,24
1,71,70,24
1,69,70,24
1,67,70,24
1,60,70,24
1,60,70,24
1,67,70,24
1,67,70,24
1,65,70,0
1,65,70,24
1,64,70,0
1,64,70,24
1,60,70,24
1,60,70,24
1,64,70,24
1,62,70,0
1,60,70,24
2,64,50,3084
2,67,50,0
2,64,50,24
2,67,50,0
2,65,50,24
2,62,50,0
2,64,50,24
2,60,50,0
2,62,50,24
2,65,50,0
2,64,50,24
2,67,50,0
2,60,50,24
2,62,50,24
2,60,50,24
2,64,50,0
2,64,50,24
2,67,50,0
2,64,50,24
2,67,50,0
2,64,50,24
2,71,50,0
2,65,50,24
2,71,50,0
2,72,50,24
2,72,50,24
2,64,50,0
2,72,50,24
2,72,50,24
2,64,50,0
2,76,50,24
2,65,50,24
2,62,50,0
2,67,50,24
2,64,50,0
2,65,50,24
2,60,50,0
2,64,50,24
2,65,50,24
2,67,50,24
2,67,50,24
2,67,50,24
2,65,50,24
2,67,50,24
2,62,50,24
2,64,50,24
2,67,50,0
2,64,50,12
2,67,50,0
2,67,50,24
2,64,50,0
2,65,50,24
2,62,50,0
2,64,50,24
2,60,50,0
2,62,50,24
2,65,50,0
2,64,50,24
2,67,50,0
2,60,50,24
2,62,50,24
2,60,50,24
2,64,50,0
2,64,50,24
2,67,50,0
2,64,50,24
2,67,50,0
2,64,50,24
2,71,50,0
2,65,50,24
2,71,50,0
2,72,50,24
2,72,50,24
2,64,50,0
2,72,50,24
2,72,50,24
2,64,50,0
2,76,50,24
2,65,50,24
2,62,50,0
2,67,50,24
2,64,50,0
2,65,50,24
2,60,50,0
2,64,50,24
2,65,50,24
2,67,50,24
2,67,50,24
2,67,50,24
2,65,50,24
2,67,50,24
2,62,50,24
2,64,50,24
2,76,50,96
2,76,50,24
2,76,50,24
2,74,50,24
2,76,50,24
2,77,50,24
2,65,50,0
2,76,50,24
2,67,50,24
2,64,50,0
2,72,50,24
2,77,50,24
2,65,50,0
2,76,50,24
2,67,50,24
2,64,50,0
2,72,50,24
2,77,50,24
2,65,50,0
2,76,50,24
2,67,50,24
2,64,50,0
2,72,50,24
2,71,50,24
2,62,50,0
2,72,50,24
2,64,50,0
2,71,50,24
2,62,50,0
2,69,50,24
2,60,50,0
2,67,50,24
2,60,50,0
2,60,50,24
2,60,50,24
2,67,50,24
2,67,50,24
2,65,50,24
2,65,50,24
2,64,50,24
2,64,50,24
2,60,50,24
2,60,50,24
2,64,50,24
2,62,50,24
2,60,50,24
2,64,50,24
2,67,50,0
2,64,50,24
2,67,50,0
2,65,50,24
2,62,50,0
2,64,50,24
2,60,50,0
2,62,50,24
2,65,50,0
2,64,50,24
2,67,50,0
2,60,50,24
2,62,50,24
2,60,50,24
2,64,50,0
2,64,50,24
2,67,50,0
2,64,50,24
2,67,50,0
2,64,50,24
2,71,50,0
2,65,50,24
2,71,50,0
2,72,50,24
2,72,50,24
2,64,50,0
2,72,50,24
2,72,50,24
2,64,50,0
2,76,50,24
2,65,50,24
2,62,50,0
2,67,50,24
2,64,50,0
2,65,50,24
2,60,50,0
2,64,50,24
2,65,50,24
2,67,50,24
2,67,50,24
2,67,50,24
2,65,50,24
2,67,50,24
2,62,50,24
2,64,50,24
2,67,50,0
2,64,50,12
2,67,50,0
2,67,50,24
2,64,50,0
2,65,50,24
2,62,50,0
2,64,50,24
2,60,50,0
2,62,50,24
2,65,50,0
2,64,50,24
2,67,50,0
2,60,50,24
2,62,50,24
2,60,50,24
2,64,50,0
2,64,50,24
2,67,50,0
2,64,50,24
2,67,50,0
2,64,50,24
2,71,50,0
2,65,50,24
2,71,50,0
2,72,50,24
2,72,50,24
2,64,50,0
2,72,50,24
2,72,50,24
2,64,50,0
2,76,50,24
2,65,50,24
2,62,50,0
2,67,50,24
2,64,50,0
2,65,50,24
2,60,50,0
2,64,50,24
2,65,50,24
2,67,50,24
2,67,50,24
2,67,50,24
2,65,50,24
2,67,50,24
2,62,50,24
2,64,50,24
2,76,50,96
2,76,50,24
2,76,50,24
2,74,50,24
2,76,50,24
2,77,50,24
2,65,50,0
2,76,50,24
2,67,50,24
2,64,50,0
2,72,50,24
2,77,50,24
2,65,50,0
2,76,50,24
2,67,50,24
2,64,50,0
2,72,50,24
2,77,50,24
2,65,50,0
2,76,50,24
2,67,50,24
2,64,50,0
2,72,50,24
2,71,50,24
2,62,50,0
2,72,50,24
2,64,50,0
2,71,50,24
2,62,50,0
2,69,50,24
2,60,50,0
2,67,50,24
2,60,50,0
2,60,50,24
2,60,50,24
2,67,50,24
2,67,50,24
2,65,50,24
2,65,50,24
2,64,50,24
2,64,50,24
2,60,50,24
2,60,50,24
2,64,50,24
2,62,50,24
2,60,50,24
3,55,50,3084
3,48,50,0
3,48,50,24
3,55,50,0
3,55,50,24
3,48,50,0
3,48,50,24
3,57,50,0
3,48,50,24
3,52,50,0
3,55,50,0
3,48,50,24
3,55,50,0
3,48,50,24
3,59,50,0
3,48,50,24
3,55,50,0
3,48,50,24
3,57,50,0
3,48,50,24
3,55,50,0
3,48,50,24
3,55,50,0
3,55,50,24
3,48,50,0
3,48,50,24
3,55,50,0
3,48,50,24
3,57,50,0
3,53,50,24
3,52,50,24
3,50,50,24
3,55,50,24
3,59,50,0
3,55,50,24
3,59,50,0
3,55,50,24
3,59,50,0
3,55,50,24
3,59,50,0
3,53,50,24
3,57,50,0
3,55,50,24
3,59,50,0
3,55,50,12
3,48,50,0
3,48,50,24
3,55,50,0
3,55,50,24
3,48,50,0
3,48,50,24
3,57,50,0
3,48,50,24
3,52,50,0
3,55,50,0
3,48,50,24
3,55,50,0
3,48,50,24
3,59,50,0
3,48,50,24
3,55,50,0
3,48,50,24
3,57,50,0
3,48,50,24
3,55,50,0
3,48,50,24
3,55,50,0
3,55,50,24
3,48,50,0
3,48,50,24
3,55,50,0
3,48,50,24
3,57,50,0
3,53,50,24
3,52,50,24
3,50,50,24
3,55,50,24
3,59,50,0
3,55,50,24
3,59,50,0
3,55,50,24
3,59,50,0
3,55,50,24
3,59,50,0
3,53,50,24
3,57,50,0
3,55,50,24
3,59,50,0
3,48,50,24
3,55,50,0
3,48,50,24
3,57,50,0
3,48,50,24
3,55,50,0
3,48,50,24
3,57,50,0
3,48,50,24
3,55,50,0
3,48,50,24
3,57,50,0
3,48,50,24
3,55,50,0
3,43,50,24
3,55,50,24
3,53,50,24
3,52,50,24
3,55,50,0
3,55,50,24
3,52,50,0
3,52,50,24
3,55,50,0
3,48,50,216
3,57,50,0
3,57,50,24
3,53,50,0
3,48,50,24
3,55,50,24
3,52,50,24
3,55,50,24
3,48,50,24
3,57,50,24
3,53,50,24
3,57,50,24
3,48,50,24
3,55,50,24
3,52,50,24
3,55,50,24
3,48,50,24
3,53,50,24
3,57,50,0
3,48,50,24
3,55,50,24
3,52,50,24
3,55,50,24
3,48,50,24
3,57,50,24
3,53,50,24
3,57,50,24
3,48,50,24
3,55,50,24
3,52,50,24
3,55,50,24
3,48,50,24
3,57,50,24
3,53,50,24
3,57,50,24
3,55,50,24
3,48,50,0
3,48,50,24
3,55,50,0
3,55,50,24
3,48,50,0
3,48,50,24
3,57,50,0
3,48,50,24
3,52,50,0
3,55,50,0
3,48,50,24
3,55,50,0
3,48,50,24
3,59,50,0
3,48,50,24
3,55,50,0
3,48,50,24
3,57,50,0
3,48,50,24
3,55,50,0
3,48,50,24
3,55,50,0
3,55,50,24
3,48,50,0
3,48,50,24
3,55,50,0
3,48,50,24
3,57,50,0
3,53,50,24
3,52,50,24
3,50,50,24
3,55,50,24
3,59,50,0
3,55,50,24
3,59,50,0
3,55,50,24
3,59,50,0
3,55,50,24
3,59,50,0
3,53,50,24
3,57,50,0
3,55,50,24
3,59,50,0
3,55,50,12
3,48,50,0
3,48,50,24
3,55,50,0
3,55,50,24
3,48,50,0
3,48,50,24
3,57,50,0
3,48,50,24
3,52,50,0
3,55,50,0
3,48,50,24
3,55,50,0
3,48,50,24
3,59,50,0
3,48,50,24
3,55,50,0
3,48,50,24
3,57,50,0
3,48,50,24
3,55,50,0
3,48,50,24
3,55,50,0
3,55,50,24
3,48,50,0
3,48,50,24
3,55,50,0
3,48,50,24
3,57,50,0
3,53,50,24
3,52,50,24
3,50,50,24
3,55,50,24
3,59,50,0
3,55,50,24
3,59,50,0
3,55,50,24
3,59,50,0
3,55,50,24
3,59,50,0
3,53,50,24
3,57,50,0
3,55,50,24
3,59,50,0
3,48,50,24
3,55,50,0
3,48,50,24
3,57,50,0
3,48,50,24
3,55,50,0
3,48,50,24
3,57,50,0
3,48,50,24
3,55,50,0
3,48,50,24
3,57,50,0
3,48,50,24
3,55,50,0
3,43,50,24
3,55,50,24
3,53,50,24
3,52,50,24
3,55,50,0
3,55,50,24
3,52,50,0
3,52,50,24
3,55,50,0
3,48,50,216
3,57,50,0
3,57,50,24
3,53,50,0
3,48,50,24
3,55,50,24
3,52,50,24
3,55,50,24
3,48,50,24
3,57,50,24
3,53,50,24
3,57,50,24
3,48,50,24
3,55,50,24
3,52,50,24
3,55,50,24
3,48,50,24
3,53,50,24
3,57,50,0
3,48,50,24
3,55,50,24
3,52,50,24
3,55,50,24
3,48,50,24
3,57,50,24
3,53,50,24
3,57,50,24
3,48,50,24
3,55,50,24
3,52,50,24
3,55,50,24
3,48,50,24
3,57,50,24
3,53,50,24
3,57,50,24
4,67,45,12
4,64,45,24
4,60,45,24
4,67,45,24
4,65,45,24
4,60,45,24
4,57,45,24
4,65,45,24
4,64,45,24
4,60,45,24
4,55,45,24
4,64,45,24
4,65,45,24
4,60,45,24
4,57,45,24
4,65,45,24
4,67,45,24
4,64,45,24
4,60,45,24
4,67,45,24
4,65,45,24
4,60,45,24
4,57,45,24
4,65,45,24
4,64,45,24
4,60,45,24
4,55,45,24
4,64,45,24
4,65,45,24
4,60,45,24
4,57,45,24
4,65,45,24
4,55,45,5400
4,59,45,0
4,55,45,24
4,59,45,0
4,55,45,24
4,59,45,0
4,55,45,24
4,59,45,0
4,53,45,24
4,57,45,0
4,55,45,24
4,59,45,0
4,55,45,5400
4,59,45,0
4,55,45,24
4,59,45,0
4,55,45,24
4,59,45,0
4,55,45,24
4,59,45,0
4,53,45,24
4,57,45,0
4,55,45,24
4,59,45,0
4,55,45,13848
4,59,45,0
4,55,45,24
4,59,45,0
4,55,45,24
4,59,45,0
4,55,45,24
4,59,45,0
4,53,45,24
4,57,45,0
4,55,45,24
4,59,45,0
4,55,45,5400
4,59,45,0
4,55,45,24
4,59,45,0
4,55,45,24
4,59,45,0
4,55,45,24
4,59,45,0
4,53,45,24
4,57,45,0
4,55,45,24
4,59,45,0
4,67,45,8472
4,64,45,24
4,60,45,24
4,67,45,24
4,65,45,24
4,60,45,24
4,57,45,24
4,65,45,24
4,64,45,24
4,60,45,24
4,55,45,24
4,64,45,24
4,65,45,24
4,60,45,24
4,57,45,24
4,65,45,24
4,67,45,24
4,64,45,24
4,60,45,24
4,67,45,24
4,65,45,24
4,60,45,24
4,57,45,24
4,65,45,24
4,64,45,24
4,60,45,24
4,55,45,24
4,64,45,24
4,65,45,24
4,60,45,24
4,57,45,24
4,65,45,24
4,67,45,24
4,64,45,24
4,60,45,24
4,67,45,24
4,65,45,24
4,60,45,24
4,57,45,24
4,65,45,24
4,64,45,24
4,60,45,24
4,55,45,24
4,64,45,24
4,65,45,24
4,60,45,24
4,57,45,24
4,65,45,24
4,67,45,12
5,48,45,12
5,48,45,24
5,48,45,24
5,48,45,24
5,43,45,5400
5,43,45,24
5,43,45,24
5,43,45,24
5,45,45,24
5,43,45,24
5,43,45,5400
5,43,45,24
5,43,45,24
5,43,45,24
5,45,45,24
5,43,45,24
5,43,45,13848
5,43,45,24
5,43,45,24
5,43,45,24
5,45,45,24
5,43,45,24
5,43,45,5400
5,43,45,24
5,43,45,24
5,43,45,24
5,45,45,24
5,43,45,24
5,48,45,8472
5,48,45,24
5,48,45,24
5,48,45,24
5,48,45,24
5,48,45,24
5,55,45,24
6,71,60,12
6,68,60,24
6,71,60,24
6,68,60,24
6,71,60,24
6,68,60,24
6,71,60,24
6,68,60,24
6,71,60,24
6,68,60,24
6,71,60,24
6,68,60,24
6,71,60,24
6,68,60,24
6,71,60,24
6,68,60,24
6,71,60,24
6,68,60,24
6,71,60,24
6,68,60,24
6,71,60,24
6,68,60,24
6,71,60,24
6,68,60,24
6,71,60,24
6,68,60,24
6,71,60,24
6,68,60,24
6,71,60,24
6,68,60,24
6,71,60,24
6,68,60,24
6,67,60,24
6,62,60,0
6,62,60,120
6,70,60,0
6,62,60,24
6,70,60,0
6,62,60,24
6,67,60,0
6,62,60,120
6,70,60,0
6,62,60,24
6,70,60,0
6,70,60,12
6,62,60,0
6,70,60,36
6,62,60,0
6,70,60,24
6,62,60,0
6,66,60,0
6,70,60,120
6,62,60,0
6,66,60,0
6,62,60,120
6,70,60,0
6,62,60,24
6,70,60,0
6,67,60,24
6,62,60,0
6,62,60,120
6,70,60,0
6,62,60,24
6,70,60,0
6,62,60,24
6,67,60,0
6,62,60,120
6,70,60,0
6,62,60,24
6,70,60,0
6,70,60,12
6,62,60,0
6,70,60,36
6,62,60,0
6,70,60,24
6,62,60,0
6,66,60,0
6,70,60,120
