track,note,velocity,time
0,41,115,382
0,41,82,0
0,57,115,1
0,55,82,0
0,69,99,1
0,67,115,0
0,65,115,0
0,60,115,0
0,60,82,0
0,69,82,0
0,81,50,96
0,77,82,0
0,77,105,23
0,76,95,2
0,77,100,2
0,45,85,1
0,45,82,0
0,53,82,0
0,60,82,0
0,69,82,0
0,72,55,0
0,69,70,0
0,65,70,0
0,72,85,2
0,69,110,2
0,53,85,24
0,53,85,1
0,65,70,2
0,74,115,24
0,77,93,1
0,74,89,3
0,72,86,5
0,65,82,3
0,46,82,0
0,70,99,1
0,46,100,0
0,60,65,0
0,53,85,24
0,57,95,24
0,60,95,24
0,72,105,2
0,70,75,2
0,72,115,2
0,65,75,0
0,77,68,0
0,48,82,0
0,55,75,0
0,62,75,0
0,70,72,0
0,69,99,0
0,58,85,0
0,48,85,0
0,65,80,0
0,41,125,0
0,48,100,0
0,74,105,2
0,65,100,2
0,72,72,1
0,77,87,0
0,70,99,0
0,74,67,0
0,79,82,0
0,76,72,0
0,81,87,0
0,70,80,4
0,77,77,0
0,82,92,0
0,78,82,0
0,83,97,0
0,79,82,0
0,84,97,0
0,80,77,0
0,85,92,0
0,81,77,0
0,86,92,0
0,69,80,0
0,82,77,0
0,87,92,0
0,83,75,0
0,88,90,0
0,41,82,2
0,60,82,0
0,41,90,0
0,57,95,0
0,57,127,0
0,60,105,0
0,69,70,0
0,89,93,0
0,69,82,0
0,41,110,0
0,48,110,0
0,53,110,0
0,57,110,0
0,43,90,1
0,58,100,0
0,58,127,0
0,62,125,0
0,43,75,0
0,62,82,0
0,70,82,0
0,70,70,0
0,43,105,0
0,50,105,0
0,55,105,0
0,58,105,0
0,65,105,1
0,89,127,0
0,64,95,1
0,88,125,0
0,65,100,1
0,89,120,0
0,53,82,1
0,45,100,1
0,60,95,0
0,57,120,0
0,65,115,0
0,45,100,0
0,48,100,0
0,57,100,0
0,60,100,0
0,72,70,0
0,60,82,0
0,69,82,1
0,72,75,4
0,84,115,1
0,81,125,4
0,55,80,1
0,53,100,0
0,57,100,1
0,96,125,0
0,60,120,2
0,93,127,0
0,62,100,2
0,89,115,0
0,46,72,0
0,62,72,0
0,72,72,0
0,46,95,0
0,74,50,0
0,57,70,0
0,46,105,0
0,58,105,0
0,62,105,0
0,46,95,1
0,69,90,1
0,81,120,0
0,70,80,1
0,82,125,0
0,58,127,1
0,69,105,0
0,58,65,0
0,62,61,0
0,69,61,0
0,41,95,0
0,43,95,0
0,69,80,0
0,65,70,0
0,62,70,0
0,58,60,0
0,84,120,0
0,86,120,1
0,79,100,1
0,62,80,0
0,53,127,0
0,58,127,0
0,65,110,0
0,46,65,0
0,62,61,0
0,65,61,0
0,36,100,0
0,65,75,0
0,62,65,0
0,58,60,0
0,55,55,0
0,58,95,0
0,60,70,4
0,62,85,0
0,69,86,2
0,57,105,1
0,55,79,0
0,60,79,0
0,69,79,0
0,41,115,0
0,55,100,0
0,65,90,0
0,60,90,0
0,57,90,0
0,53,70,0
0,57,70,0
0,60,70,0
0,65,70,0
0,77,50,0
0,41,100,0
0,48,110,0
0,57,95,0
0,60,100,0
0,77,70,0
0,60,69,2
0,65,95,0
0,61,90,0
0,58,90,0
0,58,110,0
0,65,95,0
0,73,105,0
0,41,79,0
0,58,79,0
0,61,79,0
0,70,79,0
0,41,110,0
0,72,89,0
0,72,86,1
0,70,86,2
0,65,70,3
0,61,70,0
0,58,70,0
0,65,78,3
0,67,69,4
0,69,85,0
0,65,90,0
0,60,78,0
0,57,85,0
0,67,75,0
0,69,75,0
0,72,70,0
0,41,79,0
0,55,79,0
0,60,79,0
0,69,79,0
0,41,100,0
0,60,59,98
0,60,69,1
0,60,100,0
0,55,100,0
0,49,90,0
0,73,70,0
0,45,79,0
0,55,79,0
0,61,79,0
0,72,79,0
0,45,105,0
0,69,91,0
0,70,102,1
0,72,103,4
0,74,95,0
0,58,99,1
0,55,99,0
0,49,95,0
0,45,79,0
0,53,79,0
0,61,79,0
0,70,79,0
0,72,80,4
0,70,80,1
0,69,80,1
0,69,90,1
0,62,110,0
0,38,105,0
0,57,85,0
0,53,85,0
0,50,85,0
0,38,79,0
0,48,79,0
0,57,79,0
0,65,79,0
0,67,69,4
0,65,69,1
0,62,105,24
0,74,86,18
0,76,100,0
0,57,75,2
0,65,80,21
0,64,125,0
0,67,91,2
0,57,95,0
0,69,85,1
0,65,110,0
0,46,102,1
0,46,79,0
0,53,79,0
0,60,79,0
0,62,85,0
0,57,75,2
0,46,95,1
0,65,91,24
0,67,95,1
0,67,69,0
0,55,100,9
0,60,115,0
0,67,91,0
0,67,105,0
0,39,79,0
0,55,79,0
0,62,79,0
0,65,79,0
0,39,105,0
0,69,85,0
0,55,80,1
0,67,80,0
0,65,95,1
0,67,69,0
0,65,69,1
0,67,80,4
0,67,85,0
0,58,115,1
0,69,91,0
0,65,105,1
0,48,79,0
0,55,79,0
0,58,79,0
0,65,79,0
0,67,85,3
0,72,91,0
0,64,85,2
0,72,69,0
0,67,85,1
0,69,69,0
0,64,88,1
0,64,105,0
0,48,79,0
0,64,79,0
0,48,95,0
0,58,95,0
0,73,61,9
0,74,94,0
0,48,95,0
0,72,86,0
0,72,80,3
0,60,90,1
0,57,78,0
0,55,88,0
0,69,105,0
0,41,79,0
0,55,79,0
0,60,79,0
0,69,79,0
0,41,105,0
0,48,105,0
0,69,80,0
0,53,65,2
0,48,85,1
0,60,65,1
0,41,95,0
0,61,93,0
0,73,105,1
0,65,94,0
0,61,94,0
0,58,94,0
0,72,90,0
0,41,105,0
0,70,93,0
0,73,96,1
0,77,100,2
0,72,75,0
0,70,91,0
0,85,103,24
0,89,107,1
0,75,100,4
0,65,78,0
0,63,83,0
0,67,91,2
0,72,97,0
0,69,90,0
0,84,96,0
0,81,99,0
0,79,98,1
0,77,95,4
0,72,92,1
0,72,105,1
0,69,105,0
0,41,105,0
0,69,65,0
0,65,75,0
0,69,84,0
0,60,75,5
0,43,127,7
0,58,110,0
0,55,105,0
0,44,127,6
0,59,105,0
0,56,105,0
0,60,60,8
0,69,105,0
0,72,105,0
0,45,79,0
0,55,79,0
0,60,79,0
0,72,79,0
0,45,108,0
0,60,93,0
0,57,93,0
0,69,86,0
0,70,102,3
0,72,102,4
0,74,102,0
0,45,79,1
0,53,79,0
0,60,79,0
0,70,79,0
0,58,85,0
0,53,80,0
0,72,69,1
0,70,80,9
0,69,105,0
0,65,105,0
0,38,90,0
0,38,79,0
0,50,79,0
0,60,79,0
0,65,79,0
0,69,79,0
0,57,75,0
0,53,75,0
0,50,75,0
0,69,91,0
0,67,65,1
0,62,85,0
0,65,60,0
0,70,82,0
0,72,89,0
0,57,70,1
0,65,79,0
0,65,86,17
0,64,101,1
0,57,85,2
0,65,78,1
0,65,105,23
0,67,85,0
0,46,102,1
0,46,79,0
0,57,79,0
0,62,79,0
0,65,79,0
0,67,65,0
0,57,70,2
0,64,90,2
0,57,75,2
0,62,105,2
0,65,80,2
0,57,60,0
0,67,86,1
0,60,85,0
0,58,65,0
0,48,90,0
0,48,79,0
0,55,79,0
0,58,79,0
0,53,65,0
0,69,86,0
0,67,80,3
0,67,69,9
0,60,60,1
0,58,80,0
0,53,70,0
0,65,69,0
0,67,91,8
0,36,105,1
0,67,80,0
0,70,105,1
0,48,79,0
0,55,79,0
0,58,79,0
0,58,95,0
0,55,105,0
0,52,115,0
0,36,127,0
0,48,105,0
0,69,80,0
0,72,86,1
0,73,75,20
0,74,90,0
0,48,112,1
0,48,108,0
0,70,105,0
0,48,79,0
0,55,79,0
0,58,79,0
0,60,110,0
0,48,110,0
0,67,125,2
0,45,108,23
0,69,78,0
0,67,70,1
0,42,61,0
0,35,112,0
0,34,127,0
0,62,110,0
0,69,110,0
0,77,90,0
0,46,93,0
0,50,93,0
0,65,93,0
0,46,125,0
0,65,107,0
0,62,97,0
0,57,105,0
0,53,85,0
0,65,85,0
0,42,51,13
0,42,42,7
0,35,98,0
0,34,110,0
0,53,95,0
0,65,95,0
0,42,33,13
0,42,33,23
0,37,108,0
0,53,95,0
0,65,95,0
0,42,42,2
0,48,125,0
0,48,75,0
0,60,75,0
0,42,51,6
0,50,105,0
0,50,85,0
0,62,85,0
0,42,61,5
0,35,98,0
0,53,120,0
0,53,95,0
0,65,95,0
0,53,113,4
0,42,42,0
0,35,112,0
0,60,105,0
0,65,105,0
0,69,105,0
0,45,93,0
0,48,93,0
0,53,93,0
0,45,125,0
0,33,125,0
0,60,103,0
0,65,110,1
0,42,33,1
0,48,110,0
0,33,110,0
0,55,95,0
0,67,95,0
0,42,61,8
0,50,120,0
0,57,95,0
0,69,95,0
0,42,61,5
0,57,95,0
0,69,95,0
0,42,42,0
0,37,108,0
0,60,105,0
0,65,105,0
0,45,93,0
0,50,93,0
0,53,93,0
0,50,127,0
0,65,110,0
0,60,105,0
0,57,110,0
0,38,125,0
0,53,100,0
0,42,61,0
0,38,110,0
0,48,105,0
0,42,51,11
0,50,100,0
0,42,61,13
0,60,80,0
0,48,127,0
0,42,61,0
0,35,112,0
0,62,105,0
0,65,105,0
0,43,93,0
0,46,93,0
0,53,93,0
0,43,125,0
0,62,97,0
0,58,93,0
0,55,90,0
0,53,105,0
0,31,120,0
0,65,102,0
0,53,110,0
0,42,51,0
0,31,110,0
0,65,80,0
0,42,42,8
0,35,98,0
0,53,110,0
0,65,86,0
0,42,33,13
0,42,33,2
0,37,108,0
0,53,110,0
0,65,91,0
0,42,42,0
0,67,86,0
0,42,51,23
0,69,95,0
0,42,61,3
0,35,98,0
0,53,110,0
0,69,80,0
0,45,93,0
0,42,42,0
0,35,112,0
0,60,105,0
0,65,105,0
0,41,120,0
0,60,100,0
0,57,90,0
0,55,87,0
0,53,97,0
0,29,127,0
0,48,93,0
0,42,33,4
0,48,105,0
0,42,61,7
0,50,115,0
0,42,61,13
0,47,93,1
0,61,60,0
0,64,100,1
0,52,93,0
0,71,127,0
0,38,122,0
0,49,93,0
0,57,125,1
0,47,125,0
0,71,120,0
0,68,120,0
0,64,120,0
0,61,120,0
0,35,127,0
0,56,93,0
0,64,100,0
0,71,100,0
0,59,120,0
0,56,93,0
0,59,75,0
0,42,61,0
0,35,112,0
0,51,93,0
0,71,95,0
0,40,127,0
0,40,125,0
0,63,105,0
0,59,70,0
0,63,95,0
0,56,90,0
0,71,127,0
0,71,115,0
0,68,110,0
0,63,110,0
0,59,110,0
0,47,93,1
0,42,51,3
0,40,105,0
0,42,42,7
0,35,98,0
0,59,75,0
0,71,95,0
0,42,33,11
0,42,33,15
0,38,108,0
0,59,75,0
0,71,95,0
0,42,42,6
0,54,75,0
0,66,95,0
0,42,51,6
0,35,110,0
0,56,75,0
0,68,95,0
0,42,61,5
0,35,98,0
0,40,110,0
0,59,75,0
0,71,95,0
0,54,93,0
0,63,110,0
0,59,110,0
0,42,42,0
0,35,112,0
0,39,125,0
0,66,75,0
0,59,90,0
0,39,115,0
0,51,93,0
0,66,110,0
0,71,110,1
0,47,93,1
0,42,33,1
0,54,110,0
0,61,75,0
0,73,95,0
0,39,105,0
0,42,61,6
0,56,115,0
0,63,75,0
0,75,95,0
0,42,61,1
0,59,115,0
0,63,75,0
0,75,95,0
0,42,42,0
0,38,122,0
0,75,125,0
0,44,120,0
0,63,70,0
0,71,110,0
0,66,110,0
0,63,110,0
0,59,110,0
0,44,93,0
0,47,93,0
0,54,93,0
0,32,110,0
0,42,61,3
0,54,110,0
0,42,51,7
0,35,98,0
0,39,105,0
0,56,110,0
0,42,61,2
0,68,102,0
0,38,105,0
0,54,100,0
0,44,93,0
0,42,42,0
0,35,112,0
0,64,90,0
0,71,90,0
0,56,100,0
0,37,127,0
0,61,70,0
0,59,85,0
0,68,115,0
0,64,115,0
0,61,115,0
0,59,115,0
0,64,125,0
0,71,106,0
0,37,127,0
0,47,93,0
0,52,93,2
0,42,61,3
0,68,85,0
0,42,33,7
0,71,103,0
0,42,51,11
0,68,85,0
0,42,51,8
0,38,122,0
0,71,103,0
0,42,61,0
0,73,106,0
0,42,33,5
0,75,103,0
0,42,61,1
0,75,102,0
0,46,93,1
0,46,73,0
0,35,112,0
0,51,93,0
0,94,127,0
0,59,105,0
0,35,125,0
0,63,100,0
0,70,80,0
0,51,127,0
0,54,127,0
0,59,100,0
0,61,110,0
0,63,120,0
0,66,105,0
0,63,105,0
0,70,105,0
0,63,127,1
0,73,127,0
0,54,93,0
0,70,93,7
0,42,61,15
0,78,93,0
0,106,116,62
0,104,115,1
0,102,114,1
0,99,113,1
0,59,112,1
0,97,111,1
0,94,110,1
0,92,108,1
0,90,106,1
0,87,105,1
0,58,95,1
0,85,103,0
0,82,101,1
0,80,100,1
0,78,98,1
0,75,96,1
0,47,92,1
0,73,95,0
0,54,90,1
0,47,102,0
0,70,93,1
0,68,92,0
0,104,127,0
0,45,62,1
0,102,127,1
0,99,127,1
0,97,127,0
0,94,127,1
0,92,127,1
0,90,127,1
0,45,92,0
0,54,105,0
0,87,127,0
0,85,127,2
0,82,127,1
0,80,123,1
0,78,121,1
0,75,116,1
0,73,112,1
0,51,90,1
0,70,108,1
0,68,102,1
0,66,97,1
0,63,93,1
0,61,87,1
0,41,72,1
0,54,90,0
0,58,86,0
0,75,102,0
0,56,86,1
0,54,86,1
0,51,86,1
0,49,86,1
0,55,95,1
0,56,95,6
0,57,95,1
0,42,61,0
0,35,112,0
0,49,65,0
0,63,90,0
0,60,90,0
0,58,127,0
0,63,127,0
0,36,127,0
0,67,103,0
0,63,107,0
0,58,90,0
0,60,95,0
0,63,95,0
0,75,120,0
0,58,70,0
0,70,110,0
0,42,51,0
0,36,120,0
0,62,120,0
0,62,75,0
0,42,42,0
0,35,98,0
0,42,33,23
0,63,120,0
0,63,85,0
0,42,33,1
0,38,108,0
0,70,107,0
0,67,100,0
0,63,97,0
0,42,42,12
0,74,92,0
0,74,120,1
0,42,51,2
0,42,61,11
0,35,98,0
0,27,100,0
0,70,75,0
0,70,110,0
0,42,42,0
0,35,112,0
0,56,127,0
0,63,127,0
0,65,95,0
0,68,95,0
0,68,115,0
0,65,110,0
0,63,110,0
0,29,127,0
0,70,95,0
0,58,95,0
0,42,33,3
0,70,95,0
0,58,95,0
0,42,61,10
0,70,95,0
0,58,95,0
0,42,61,10
0,68,105,0
0,56,105,0
0,42,42,23
0,38,122,0
0,42,61,23
0,35,98,0
0,29,110,0
0,42,51,3
0,36,120,0
0,60,95,0
0,48,95,0
0,42,61,6
0,35,112,0
0,35,110,0
0,61,95,0
0,49,95,0
0,77,96,1
0,73,96,1
0,70,96,1
0,42,61,0
0,35,112,0
0,65,90,0
0,61,90,0
0,56,127,0
0,61,127,0
0,68,110,0
0,65,105,0
0,61,100,0
0,60,90,0
0,34,127,0
0,42,51,3
0,60,105,0
0,60,115,0
0,42,42,3
0,35,98,0
0,42,33,23
0,61,105,0
0,61,120,0
0,42,33,3
0,38,108,0
0,68,100,0
0,65,105,0
0,61,110,0
0,42,42,12
0,72,120,1
0,72,120,0
0,42,51,2
0,42,61,8
0,35,98,0
0,34,100,0
0,68,100,0
0,68,115,0
0,42,42,1
0,35,112,0
0,72,95,0
0,68,110,0
0,65,100,0
0,61,105,0
0,39,127,0
0,65,95,0
0,68,95,0
0,72,95,0
0,42,33,3
0,39,95,0
0,72,95,0
0,65,95,0
0,68,95,0
0,42,61,6
0,68,95,0
0,65,95,0
0,72,95,0
0,42,61,11
0,70,95,0
0,63,95,0
0,67,95,0
0,42,42,0
0,38,122,0
0,63,90,0
0,61,127,0
0,67,127,0
0,70,95,0
0,68,110,0
0,65,105,0
0,61,103,0
0,42,61,23
0,35,98,0
0,30,110,0
0,42,51,3
0,68,95,0
0,61,95,0
0,65,95,0
0,42,61,8
0,35,112,0
0,31,100,0
0,70,85,0
0,63,85,0
0,66,85,0
0,42,61,0
0,35,112,0
0,63,105,0
0,66,105,0
0,63,90,0
0,66,90,0
