track,note,velocity,time
1,62,99,2660
1,55,110,0
1,45,68,0
1,33,68,4
1,62,104,120
1,55,104,0
1,45,66,0
1,61,99,108
1,55,99,4
1,61,81,128
1,55,94,4
1,62,99,8
1,53,99,0
1,26,54,32
1,60,99,52
1,65,110,0
1,57,114,0
1,38,72,0
1,55,85,32
1,59,81,8
1,64,81,0
1,38,70,48
1,65,99,4
1,60,85,4
1,57,94,0
1,26,52,24
1,53,88,176
1,62,104,0
1,57,104,4
1,38,88,0
1,64,85,16
1,55,85,0
1,59,88,8
1,53,78,28
1,62,78,0
1,57,81,4
1,38,75,0
1,65,104,48
1,60,99,4
1,57,114,0
1,26,66,4
1,57,104,56
1,65,85,0
1,38,75,4
1,60,99,0
1,55,88,4
1,64,81,4
1,59,94,0
1,65,99,44
1,60,99,0
1,57,104,0
1,38,72,4
1,28,68,20
1,62,94,40
1,53,85,0
1,57,99,4
1,40,88,0
1,55,99,4
1,64,99,0
1,29,78,0
1,59,104,8
1,41,72,44
1,31,78,56
1,43,72,0
1,53,94,0
1,57,104,4
1,58,94,4
1,62,104,0
1,58,81,0
1,62,99,0
1,57,104,12
1,53,94,0
1,31,68,192
1,53,81,36
1,57,99,132
1,58,94,0
1,55,110,84
1,62,104,8
1,62,110,156
1,55,114,0
1,55,94,8
1,45,94,8
1,55,104,116
1,61,104,0
1,61,85,136
1,55,110,4
1,53,99,28
1,62,104,4
1,64,99,2684
1,55,104,4
1,59,110,4
1,62,110,220
1,58,99,4
1,53,110,0
1,57,114,0
1,53,51,28
1,62,88,160
1,58,85,0
1,57,99,4
1,43,64,16
1,53,78,0
1,62,104,136
1,55,104,0
1,55,99,180
1,62,104,0
1,55,88,8
1,55,94,112
1,61,94,0
1,55,99,160
1,61,94,0
1,53,99,4
1,62,94,0
1,60,88,92
1,65,94,4
1,57,94,0
1,59,66,28
1,64,70,0
1,55,78,0
1,65,81,4
1,57,88,4
1,60,78,0
1,62,81,208
1,57,85,0
1,53,66,4
1,64,88,4
1,55,81,0
1,59,85,0
1,62,72,0
1,57,75,4
1,53,63,0
1,65,85,64
1,60,81,0
1,57,81,4
1,60,72,60
1,57,88,0
1,65,78,4
1,64,72,20
1,55,72,0
1,59,75,0
1,57,81,0
1,65,88,0
1,60,88,4
1,62,88,252
1,53,75,0
1,57,94,0
1,55,88,4
1,64,85,4
1,59,99,0
1,62,85,224
1,58,85,0
1,53,85,4
1,57,88,0
1,62,70,224
1,55,58,0
1,62,81,128
1,55,88,0
1,61,81,128
1,55,88,0
1,61,78,136
1,55,75,0
1,53,78,12
1,62,88,4
1,62,99,6348
1,65,99,4
1,57,94,4
1,55,70,20
1,64,78,4
1,60,72,4
1,57,94,4
1,65,88,0
1,62,88,4
1,62,99,196
1,57,88,8
1,53,75,0
1,64,78,40
1,59,85,4
1,55,85,0
1,62,75,4
1,53,63,12
1,57,54,4
1,62,88,56
1,65,88,0
1,57,88,4
1,57,72,84
1,62,81,0
1,65,88,4
1,55,81,12
1,64,78,0
1,60,81,4
1,65,94,44
1,57,94,0
1,62,94,4
1,62,85,240
1,53,85,0
1,57,88,0
1,64,88,32
1,59,88,0
1,55,88,4
1,57,63,24
1,62,81,116
1,58,85,0
1,53,75,4
1,58,72,48
1,62,85,0
1,60,78,12
1,57,78,8
1,62,94,44
1,58,85,4
1,60,78,84
1,57,94,4
1,53,57,12
1,62,88,28
1,58,85,4
1,53,54,68
1,64,88,136
1,62,104,0
1,57,94,4
1,62,88,148
1,64,88,0
1,57,94,8
1,57,94,156
1,61,85,0
1,65,99,0
1,61,81,152
1,65,88,0
1,57,85,4
1,65,68,28
1,62,99,0
1,57,104,4
1,62,94,168
1,65,99,0
1,57,104,12
1,64,70,28
1,55,78,0
1,60,75,0
1,65,88,36
1,62,88,8
1,57,88,0
1,62,94,212
1,57,94,8
1,53,75,4
1,64,88,8
1,55,78,4
1,59,85,0
1,62,81,4
1,57,72,12
1,53,75,4
1,65,88,56
1,62,99,4
1,57,85,0
1,57,78,72
1,62,81,0
1,65,94,4
1,64,72,32
1,55,78,4
1,60,81,0
1,65,94,0
1,62,94,8
1,57,99,0
1,62,94,256
1,57,88,4
1,53,72,8
1,64,88,16
1,59,85,4
1,55,94,0
1,57,56,16
1,58,85,120
1,62,94,4
1,53,78,8
1,58,85,52
1,53,81,4
1,62,94,0
1,60,72,20
1,57,75,8
1,62,94,16
1,58,85,12
1,53,78,4
1,60,81,188
1,57,94,0
1,53,70,12
1,62,88,20
1,58,94,4
1,53,70,8
1,64,85,156
1,62,99,0
1,57,99,12
1,64,88,160
1,62,88,0
1,57,94,8
1,65,88,152
1,61,85,0
1,57,88,0
1,61,81,140
1,57,94,4
1,65,94,0
1,65,72,40
1,57,88,4
1,62,99,0
1,65,99,156
1,62,99,4
1,57,94,8
1,64,75,12
1,55,75,0
1,60,72,0
1,65,88,8
1,62,94,0
1,57,99,8
1,62,88,184
1,57,94,0
1,53,81,0
1,64,85,12
1,59,88,8
1,55,85,0
1,53,72,32
1,62,70,0
1,57,70,4
1,62,88,100
1,65,88,0
1,57,85,8
1,57,88,92
1,62,88,0
1,65,85,4
1,55,81,28
1,64,72,4
1,60,81,0
1,57,99,4
1,62,81,0
1,65,104,0
1,62,88,196
1,53,75,12
1,57,75,0
1,64,88,4
1,59,88,4
1,55,94,8
1,57,51,24
1,58,85,140
1,62,88,0
1,53,81,8
1,58,78,56
1,62,81,4
1,60,75,44
1,57,78,8
1,62,94,68
1,53,70,4
1,58,85,0
1,60,81,232
1,57,94,4
1,53,66,0
1,62,94,44
1,58,94,4
1,53,66,20
1,62,104,148
1,64,88,4
1,57,85,4
1,64,85,168
1,62,94,0
1,57,99,4
1,65,88,172
1,61,81,0
1,57,94,8
1,65,94,132
1,61,78,8
1,57,94,8
1,65,81,48
1,57,94,0
1,62,94,0
1,65,99,196
1,57,104,4
1,62,99,0
1,55,81,8
1,64,75,4
1,60,64,12
1,65,94,12
1,62,78,12
1,57,85,4
1,62,85,212
1,57,78,0
1,53,68,0
1,64,85,48
1,55,81,0
1,59,81,0
1,57,70,48
1,62,70,4
1,53,66,0
1,65,94,100
1,62,85,0
1,57,81,4
1,65,88,108
1,62,94,0
1,57,94,4
1,55,85,20
1,64,72,4
1,60,72,0
1,62,88,4
1,57,94,0
1,65,88,0
1,62,85,264
1,57,81,0
1,53,72,4
1,64,85,12
1,59,88,4
1,55,85,0
1,58,85,184
1,53,81,0
1,62,88,0
1,53,51,48
1,58,72,0
1,62,81,4
1,60,78,28
1,57,85,4
1,62,99,52
1,58,85,4
1,53,61,12
1,53,66,136
1,60,85,0
1,57,88,0
1,62,94,40
1,58,85,8
1,53,64,20
1,64,88,136
1,62,94,0
1,57,99,8
1,64,85,184
1,62,88,0
1,57,104,4
1,57,88,108
1,61,81,0
1,65,94,0
1,61,81,156
1,57,99,0
1,65,88,4
1,65,85,36
1,57,99,4
1,62,94,4
1,60,88,216
1,65,94,4
1,57,94,0
1,59,66,28
1,64,70,0
1,55,78,0
1,65,81,4
1,57,88,4
1,60,78,0
1,62,81,208
1,57,85,0
1,53,66,4
1,64,88,4
1,55,81,0
1,59,85,0
1,62,72,0
1,57,75,4
1,53,63,0
1,65,85,64
1,60,81,0
1,57,81,4
1,60,72,60
1,57,88,0
1,65,78,4
1,64,72,20
1,55,72,0
1,59,75,0
1,57,81,0
1,65,88,0
1,60,88,4
1,62,88,252
1,53,75,0
1,57,94,0
1,55,88,4
1,64,85,4
1,59,99,0
1,62,85,224
1,58,85,0
1,53,85,4
1,57,88,0
1,62,70,224
1,55,58,0
1,62,81,128
1,55,88,0
1,61,81,128
1,55,88,0
1,61,78,136
1,55,75,0
1,53,78,12
1,62,88,4
1,62,99,6348
1,65,99,4
1,57,94,4
1,55,70,20
1,64,78,4
1,60,72,4
1,57,94,4
1,65,88,0
1,62,88,4
1,62,99,196
1,57,88,8
1,53,75,0
1,64,78,40
1,59,85,4
1,55,85,0
1,62,75,4
1,53,63,12
1,57,54,4
1,62,88,56
1,65,88,0
1,57,88,4
1,57,72,84
1,62,81,0
1,65,88,4
1,55,81,12
1,64,78,0
1,60,81,4
1,65,94,44
1,57,94,0
1,62,94,4
1,62,85,240
1,53,85,0
1,57,88,0
1,64,88,32
1,59,88,0
1,55,88,4
1,57,63,24
1,62,81,116
1,58,85,0
1,53,75,4
1,58,72,48
1,62,85,0
1,60,78,12
1,57,78,8
1,62,94,44
1,58,85,4
1,60,78,84
1,57,94,4
1,53,57,12
1,62,88,28
1,58,85,4
1,53,54,68
1,64,88,136
1,62,104,0
1,57,94,4
1,62,88,148
1,64,88,0
1,57,94,8
1,57,94,156
1,61,85,0
1,65,99,0
1,61,81,152
1,65,88,0
1,57,85,4
1,65,68,28
1,62,99,0
1,57,104,4
1,62,94,168
1,65,99,0
1,57,104,12
1,64,70,28
1,55,78,0
1,60,75,0
1,65,88,36
1,62,88,8
1,57,88,0
1,62,94,212
1,57,94,8
1,53,75,4
1,64,88,8
1,55,78,4
1,59,85,0
1,62,81,4
1,57,72,12
1,53,75,4
1,65,88,56
1,62,99,4
1,57,85,0
1,57,78,72
1,62,81,0
1,65,94,4
1,64,72,32
1,55,78,4
1,60,81,0
1,65,94,0
1,62,94,8
1,57,99,0
1,62,94,256
1,57,88,4
1,53,72,8
1,64,88,16
1,59,85,4
1,55,94,0
1,57,56,16
1,58,85,120
1,62,94,4
1,53,78,8
1,58,85,52
1,53,81,4
1,62,94,0
1,60,72,20
1,57,75,8
1,62,94,16
1,58,85,12
1,53,78,4
1,60,81,188
1,57,94,0
1,53,70,12
1,62,88,20
1,58,94,4
1,53,70,8
1,64,85,156
1,62,99,0
1,57,99,12
1,64,88,160
1,62,88,0
1,57,94,8
1,57,88,152
1,61,85,0
1,65,88,0
1,61,81,140
1,57,94,4
1,65,94,0
1,65,72,40
1,57,88,4
1,62,99,0
1,65,99,156
1,62,99,4
1,57,94,8
1,64,75,12
1,55,75,0
1,60,72,0
1,65,88,8
1,62,94,0
1,57,99,8
1,62,88,184
1,57,94,0
1,53,81,0
1,64,85,12
1,59,88,8
1,55,85,0
1,53,72,32
1,62,70,0
1,57,70,4
1,62,88,100
1,65,88,0
1,57,85,8
1,57,88,92
1,62,88,0
1,65,85,4
1,55,81,28
1,64,72,4
1,60,81,0
1,57,99,4
1,62,81,0
1,65,104,0
1,62,88,196
1,53,75,12
1,57,75,0
1,64,88,4
1,59,88,4
1,55,94,8
1,57,51,24
1,58,85,140
1,62,88,0
1,53,81,8
1,58,78,56
1,62,81,4
1,60,75,44
1,57,78,8
1,62,94,68
1,53,70,4
1,58,85,0
1,60,81,232
1,57,94,4
1,53,66,0
1,62,94,44
1,58,94,4
1,53,66,20
1,62,104,148
1,64,88,4
1,57,85,4
1,64,85,168
1,62,94,0
1,57,99,4
1,60,81,172
1,65,88,0
1,57,94,8
1,65,94,132
1,60,78,8
1,57,94,8
1,65,81,48
1,57,94,0
1,62,94,0
1,58,81,4
1,65,88,4
1,62,88,0
1,65,60,32
1,62,61,0
1,67,94,144
1,64,94,0
1,58,81,4
1,62,63,764
1,62,70,4
1,60,70,160
1,57,75,0
1,67,99,0
1,64,88,0
1,60,53,124
1,65,88,180
1,62,85,0
1,60,52,384
1,57,53,4
1,62,68,76
1,58,85,148
1,62,78,0
1,65,85,0
1,55,64,772
1,58,61,140
1,58,72,208
1,65,104,0
1,62,94,0
1,72,88,160
1,64,104,12
1,67,94,0
1,74,88,12
1,64,81,28
1,60,70,0
1,76,104,4
1,60,70,0
1,57,75,0
1,67,85,0
1,64,81,0
1,72,94,20
1,62,94,176
1,65,94,0
1,60,70,0
1,60,72,32
1,62,75,64
1,58,78,112
1,65,99,0
1,62,88,0
1,55,75,0
1,58,68,96
1,58,85,220
1,62,99,0
1,65,99,0
1,64,99,32
1,67,85,0
1,72,94,0
1,74,85,40
1,62,60,16
1,76,88,40
1,64,85,64
1,67,88,0
1,60,81,0
1,57,88,0
1,72,94,32
1,65,99,276
1,62,88,4
1,60,60,0
1,55,78,256
1,58,81,0
1,62,94,0
1,65,88,0
1,62,85,112
1,65,99,0
1,58,70,4
1,62,46,36
1,62,94,140
1,64,85,0
1,58,78,4
1,55,60,4
1,61,85,104
1,65,99,0
1,57,70,52
1,57,104,168
1,62,99,0
1,65,88,4
1,60,72,16
1,62,85,208
1,65,88,4
1,57,85,0
1,69,99,768
1,62,53,32
1,62,94,56
1,58,94,0
1,65,99,0
1,62,57,8
1,61,81,352
1,69,88,0
1,67,88,0
1,64,81,0
1,57,75,0
1,61,53,112
1,67,70,0
1,57,68,0
1,64,70,0
1,69,68,0
1,67,75,116
1,61,81,0
1,69,81,0
1,57,88,0
1,64,75,0
1,64,85,460
1,57,94,0
1,67,81,0
1,69,85,4
1,61,78,0
1,64,94,120
1,57,81,0
1,67,94,0
1,69,99,0
1,61,85,0
1,60,88,464
1,65,94,4
1,57,94,0
1,59,66,28
1,64,70,0
1,55,78,0
1,65,81,4
1,57,88,4
1,60,78,0
1,62,81,208
1,57,85,0
1,53,66,4
1,64,88,4
1,55,81,0
1,59,85,0
1,62,72,0
1,57,75,4
1,53,63,0
1,65,85,64
1,60,81,0
1,57,81,4
1,60,72,60
1,57,88,0
1,65,78,4
1,64,72,20
1,55,72,0
1,59,75,0
1,57,81,0
1,65,88,0
1,60,88,4
1,62,88,252
1,53,75,0
1,57,94,0
1,55,88,4
1,64,85,4
1,59,99,0
1,62,85,224
1,58,85,0
1,53,85,4
1,57,88,0
1,62,70,224
1,55,58,0
1,62,81,128
1,55,88,0
1,61,81,128
1,55,88,0
1,61,78,136
1,55,75,0
1,53,78,12
1,62,88,4
1,60,88,200
1,65,94,4
1,57,94,0
1,59,66,28
1,64,70,0
1,55,78,0
1,65,81,4
1,57,88,4
1,60,78,0
1,62,81,208
1,57,85,0
1,53,66,4
1,64,88,4
1,55,81,0
1,59,85,0
1,62,72,0
1,57,75,4
1,53,63,0
1,65,85,64
1,60,81,0
1,57,81,4
1,60,72,60
1,57,88,0
1,65,78,4
1,64,72,20
1,55,72,0
1,59,75,0
1,57,81,0
1,65,88,0
1,60,88,4
1,62,88,252
1,53,75,0
1,57,94,0
1,55,88,4
1,64,85,4
1,59,99,0
1,62,85,224
1,58,85,0
1,53,85,4
1,57,88,0
1,62,70,224
1,55,58,0
1,62,81,128
1,55,88,0
1,61,81,128
1,55,88,0
1,61,78,136
1,55,75,0
1,53,78,12
1,62,88,4
1,65,99,200
1,62,99,4
1,57,94,8
1,64,75,12
1,55,75,0
1,60,72,0
1,65,88,8
1,62,94,0
1,57,99,8
1,62,88,184
1,57,94,0
1,53,81,0
1,64,85,12
1,59,88,8
1,55,85,0
1,53,72,32
1,62,70,0
1,57,70,4
1,62,88,100
1,65,88,0
1,57,85,8
1,57,88,92
1,62,88,0
1,65,85,4
1,55,81,28
1,64,72,4
1,60,81,0
1,57,99,4
1,62,81,0
1,65,104,0
1,62,88,196
1,53,75,12
1,57,75,0
1,64,88,4
1,59,88,4
1,55,94,8
1,57,51,24
1,58,85,140
1,62,88,0
1,53,81,8
1,58,78,56
1,62,81,4
1,60,75,44
1,57,78,8
1,62,94,68
1,53,70,4
1,58,85,0
1,60,81,232
1,57,94,4
1,53,66,0
1,62,94,44
1,58,94,4
1,53,66,20
1,62,104,148
1,64,88,4
1,57,85,4
1,64,85,168
1,62,94,0
1,57,99,4
1,65,88,172
1,61,81,0
1,57,94,8
1,65,94,132
1,61,78,8
1,57,94,8
1,65,81,48
1,57,94,0
1,62,94,0
1,65,99,196
1,57,104,4
1,62,99,0
1,55,81,8
1,64,75,4
1,60,64,12
1,65,94,12
1,62,78,12
1,57,85,4
1,62,85,212
1,57,78,0
1,53,68,0
1,64,85,48
1,55,81,0
1,59,81,0
1,57,70,48
1,62,70,4
1,53,66,0
1,65,94,100
1,62,85,0
1,57,81,4
1,65,88,108
1,62,94,0
1,57,94,4
