track,note,velocity,time
1,41,61,2676
1,53,61,0
1,48,61,0
1,57,76,0
1,60,73,0
1,77,126,472
1,76,94,96
1,77,124,4
1,53,61,24
1,45,61,0
1,72,94,8
1,60,84,0
1,57,94,0
1,72,101,12
1,69,95,4
1,53,51,12
1,53,50,4
1,65,88,12
1,74,112,96
1,53,70,4
1,60,81,0
1,46,75,0
1,53,66,52
1,57,80,96
1,58,72,96
1,72,91,184
1,70,96,96
1,72,102,4
1,48,67,0
1,55,74,0
1,58,68,0
1,62,68,0
1,65,66,4
1,74,94,8
1,65,96,8
1,70,106,192
1,69,95,192
1,53,73,8
1,41,73,0
1,48,73,0
1,57,73,0
1,60,73,0
1,58,74,20
1,50,74,0
1,53,74,0
1,55,74,0
1,43,74,0
1,77,127,28
1,76,104,92
1,77,127,4
1,45,74,12
1,60,74,0
1,57,74,0
1,53,74,0
1,53,122,4
1,57,122,4
1,60,121,4
1,62,119,96
1,46,81,4
1,57,71,0
1,53,70,0
1,69,94,480
1,70,84,100
1,72,99,96
1,58,63,4
1,69,63,0
1,62,63,0
1,65,63,0
1,43,63,0
1,48,64,0
1,62,64,0
1,58,64,0
1,70,65,0
1,65,64,4
1,41,84,12
1,60,84,0
1,57,84,0
1,53,84,0
1,65,84,0
1,69,62,0
1,58,83,28
1,63,83,0
1,65,83,0
1,61,83,0
1,41,83,0
1,53,83,0
1,65,86,0
1,57,86,0
1,60,86,0
1,41,86,0
1,53,86,0
1,60,95,12
1,55,95,0
1,45,95,0
1,49,95,0
1,58,96,4
1,53,93,4
1,50,84,388
1,57,84,0
1,65,84,0
1,64,84,0
1,60,84,0
1,62,103,280
1,64,101,4
1,65,84,4
1,57,87,4
1,62,86,0
1,53,80,0
1,46,77,0
1,57,69,4
1,46,65,4
1,67,98,196
1,60,95,96
1,55,78,0
1,39,82,4
1,46,89,0
1,55,102,4
1,65,110,96
1,60,115,4
1,48,83,0
1,58,74,4
1,55,90,0
1,53,81,0
1,53,66,24
1,53,62,4
1,52,60,96
1,36,71,0
1,64,106,0
1,52,84,4
1,55,61,172
1,57,88,24
1,55,88,0
1,41,80,0
1,48,80,0
1,60,88,0
1,53,70,4
1,53,92,8
1,61,85,0
1,65,98,0
1,41,92,0
1,58,85,0
1,57,90,24
1,55,91,0
1,60,92,0
1,48,80,0
1,41,91,0
1,31,109,16
1,43,109,4
1,53,109,0
1,58,109,0
1,59,109,0
1,32,109,0
1,44,109,4
1,54,109,0
1,60,99,12
1,45,99,0
1,33,99,0
1,55,99,0
1,58,93,380
1,53,94,4
1,64,81,384
1,57,86,0
1,60,87,0
1,65,76,0
1,50,90,0
1,38,102,0
1,62,98,280
1,64,91,12
1,65,94,184
1,62,98,0
1,57,87,4
1,34,93,0
1,46,110,0
1,64,104,276
1,62,95,4
1,60,102,192
1,48,67,0
1,53,79,0
1,58,67,0
1,55,86,0
1,36,78,0
1,48,67,4
1,48,64,4
1,58,52,0
1,55,70,0
1,53,68,0
1,36,62,4
1,36,98,4
1,52,100,0
1,48,108,0
1,67,127,360
1,58,85,92
1,46,89,0
1,57,85,0
1,53,92,0
1,62,90,0
1,53,96,24
1,45,87,0
1,60,90,0
1,57,85,0
1,65,98,0
1,50,96,8
1,65,100,0
1,57,100,0
1,62,88,0
1,60,98,0
1,58,94,4
1,43,96,0
1,62,104,0
1,55,104,0
1,50,102,0
1,53,104,0
1,41,96,4
1,48,98,0
1,55,102,0
1,60,107,0
1,57,104,0
1,68,103,72
1,71,112,0
1,57,117,0
1,61,117,0
1,64,115,0
1,47,117,0
1,63,103,12
1,66,103,0
1,68,106,0
1,59,107,0
1,52,90,4
1,66,91,12
1,61,100,0
1,59,98,0
1,63,94,0
1,51,85,0
1,63,94,16
1,56,103,0
1,59,102,0
1,66,94,0
1,51,100,0
1,44,91,0
1,61,89,16
1,49,103,4
1,56,97,0
1,59,92,0
1,64,104,0
1,63,94,44
1,61,94,0
1,47,102,0
1,58,91,0
1,59,96,0
1,54,97,0
1,70,85,92
1,66,75,100
1,63,83,4
1,61,79,4
1,59,62,4
1,58,72,4
1,54,64,4
1,51,62,96
1,60,104,104
1,55,102,4
1,58,95,0
1,63,110,0
1,63,113,12
1,60,108,0
1,65,97,0
1,56,97,0
1,61,95,16
1,58,85,0
1,65,104,0
1,56,101,0
1,65,98,16
1,61,95,4
1,56,107,0
1,63,99,12
1,61,101,0
1,67,100,0
1,58,97,0
1,56,107,24
1,63,97,0
1,66,93,0
1,59,98,0
1,63,95,28
1,66,95,0
1,59,106,0
1,54,107,0
1,61,95,28
1,59,95,0
1,65,98,0
1,56,99,0
1,61,93,4
1,58,87,0
1,65,95,0
1,54,104,0
1,56,107,768
1,63,99,0
1,66,107,0
1,59,108,0
1,61,104,8
1,65,97,0
1,56,110,4
1,58,101,0
1,63,87,4
1,60,108,0
1,58,97,0
1,55,108,0
1,67,108,0
1,63,104,16
1,60,104,0
1,65,95,0
1,56,97,0
1,61,97,28
1,65,92,0
1,56,99,0
1,58,87,0
1,65,98,24
1,61,104,0
1,56,107,0
1,63,99,8
1,61,104,0
1,67,100,0
1,58,95,0
1,66,95,12
1,63,97,0
1,59,106,4
1,56,107,0
1,59,98,8
1,63,99,0
1,66,99,0
1,54,110,0
1,61,93,16
1,59,97,0
1,65,95,0
1,56,107,0
1,61,81,4
1,54,85,0
1,58,74,0
1,65,83,0
1,54,71,16
1,59,75,0
1,56,67,0
1,64,73,0
1,62,71,24
1,65,59,0
1,48,64,0
1,58,59,0
1,61,63,4
1,64,60,0
1,58,41,0
1,41,68,12
1,48,64,0
1,53,64,0
1,55,66,0
1,57,70,0
1,60,81,0
1,63,87,8
1,56,95,0
1,58,75,0
1,41,81,0
1,53,92,0
1,57,80,8
1,55,80,0
1,53,78,0
1,41,79,0
1,48,83,0
1,60,83,8
1,45,73,640
1,49,99,60
1,55,95,40
1,60,106,0
1,65,106,0
1,58,87,4
1,53,102,0
1,57,81,4
1,50,77,0
1,65,73,0
1,64,80,0
1,60,86,0
1,58,87,4
1,46,71,0
1,53,80,0
1,62,91,0
1,65,86,0
1,57,92,0
1,69,108,280
1,65,88,4
1,58,81,4
1,46,81,0
1,62,87,0
1,65,86,0
1,55,85,0
1,39,78,0
1,53,66,136
1,55,73,4
1,58,95,44
1,55,110,8
1,48,95,0
1,36,90,0
1,53,108,8
1,60,100,4
1,58,60,4
1,64,89,276
1,36,100,12
1,64,95,8
1,36,97,4
1,48,90,0
1,41,60,0
1,48,78,0
1,65,80,0
1,60,94,0
1,57,84,0
1,55,68,0
1,55,67,4
1,60,110,4
1,62,122,96
1,64,104,96
1,65,95,4
1,63,87,0
1,51,61,0
1,58,87,0
1,56,91,0
1,41,72,0
1,67,104,484
1,69,81,184
1,60,80,0
1,41,72,0
1,48,69,0
1,65,79,4
1,57,72,4
1,55,60,0
1,60,65,4
1,57,60,4
1,41,57,4
1,43,102,36
1,53,104,0
1,58,99,0
1,62,114,0
1,54,101,132
1,44,87,0
1,59,110,0
1,63,93,0
1,60,84,136
1,55,98,0
1,49,77,0
1,65,88,0
1,45,88,4
1,58,68,8
1,53,81,0
1,57,65,8
1,60,67,0
1,64,68,0
1,50,69,0
1,65,61,0
1,58,75,8
1,62,87,0
1,57,80,0
1,46,67,0
1,53,78,0
1,65,85,0
1,58,78,4
1,65,77,0
1,62,87,0
1,55,92,0
1,48,77,0
1,58,67,4
1,55,76,0
1,60,78,0
1,64,80,0
1,58,89,4
1,72,104,0
1,64,98,0
1,48,90,0
1,58,79,92
1,62,85,0
1,65,81,0
1,46,84,4
1,57,83,0
1,60,88,24
1,57,90,0
1,65,88,0
1,45,91,4
1,65,80,4
1,50,86,0
1,60,81,0
1,57,90,0
1,62,88,0
1,62,74,0
1,43,92,0
1,58,82,0
1,55,88,4
1,65,78,0
1,53,83,0
1,57,80,0
1,55,85,0
1,41,88,0
1,60,86,0
1,47,106,4
1,57,97,0
1,61,99,0
1,65,100,4
1,46,97,4
1,57,85,0
1,62,92,0
1,65,80,0
1,58,84,0
1,60,94,20
1,65,84,0
1,45,77,0
1,57,97,0
1,57,88,12
1,60,83,0
1,62,90,0
1,65,80,0
1,50,86,0
1,62,80,4
1,65,79,0
1,43,91,0
1,58,82,0
1,55,98,0
1,41,80,4
1,53,86,0
1,55,86,0
1,57,81,0
1,60,85,0
1,66,74,4
1,61,99,0
1,69,95,0
1,64,98,0
1,47,102,0
1,57,98,0
1,52,94,4
1,63,101,0
1,66,95,0
1,68,99,0
1,59,112,0
1,59,87,4
1,66,110,0
1,63,99,0
1,51,99,0
1,44,91,36
1,66,74,0
1,59,90,0
1,56,113,0
1,63,68,0
1,49,107,0
1,61,93,0
1,56,104,4
1,59,100,0
1,64,104,0
1,63,97,20
1,54,104,0
1,47,102,0
1,59,97,0
1,58,89,4
1,48,114,8
1,55,120,0
1,58,97,0
1,60,104,0
1,63,104,0
1,56,107,0
1,63,95,0
1,48,84,0
1,53,106,0
1,60,106,0
1,41,91,0
1,46,91,16
1,61,120,32
1,56,120,0
1,58,120,0
1,65,120,0
1,63,79,24
1,58,66,0
1,55,70,0
1,60,75,0
1,46,74,40
1,61,119,76
1,56,119,0
1,58,119,4
1,65,119,0
1,46,79,4
1,58,67,80
1,63,78,0
1,60,84,0
1,55,80,0
1,58,110,32
1,56,110,0
1,61,110,0
1,65,110,0
1,39,77,32
1,61,72,100
1,58,72,0
1,65,72,0
1,56,72,0
1,51,72,0
1,39,52,4
1,61,68,4
1,63,68,0
1,58,68,0
1,39,68,0
1,55,68,0
1,51,68,0
1,63,71,32
1,61,67,4
1,55,70,0
1,58,64,0
1,51,93,4
1,44,101,20
1,63,120,64
1,56,120,0
1,54,120,0
1,59,120,0
1,61,78,28
1,58,67,0
1,56,65,0
1,53,78,0
1,44,75,36
1,63,122,84
1,54,122,0
1,56,122,0
1,59,122,0
1,44,61,12
1,56,97,80
1,58,91,4
1,61,97,0
1,53,95,4
1,56,110,28
1,63,110,0
1,54,110,0
1,59,110,0
1,37,79,20
1,63,73,92
1,59,73,0
1,56,73,0
1,54,73,0
1,49,73,0
1,37,67,4
1,61,77,8
1,59,77,0
1,56,77,0
1,53,77,0
1,37,77,0
1,49,77,0
1,61,92,4
1,58,92,0
1,42,92,0
1,65,92,0
1,49,92,0
1,56,92,0
1,56,96,4
1,58,96,0
1,61,96,0
1,65,96,0
1,44,96,8
1,63,96,0
1,56,96,0
1,51,96,0
1,54,96,0
1,59,96,0
1,61,96,0
1,58,96,0
1,46,96,0
1,65,96,0
1,56,96,0
1,48,87,12
1,58,61,4
1,67,78,0
1,60,80,0
1,63,47,4
1,63,119,0
1,58,119,0
1,67,119,0
1,60,119,0
1,65,74,36
1,57,75,0
1,60,73,0
1,62,83,0
1,48,77,32
1,63,121,76
1,58,121,0
1,67,121,0
1,60,121,0
1,48,62,92
1,65,92,72
1,60,95,0
1,57,100,0
1,62,102,4
1,60,114,36
1,58,114,0
1,67,114,0
1,63,114,0
1,41,80,16
1,56,66,92
1,53,68,4
1,65,58,0
1,63,44,0
1,60,66,0
1,63,70,4
1,65,70,0
1,56,70,0
1,60,70,0
1,53,91,152
1,63,72,4
1,56,72,0
1,65,72,0
1,60,72,0
1,53,73,4
1,46,113,36
1,58,121,92
1,61,121,0
1,56,122,4
1,65,122,0
1,63,70,32
1,58,53,0
1,55,68,4
1,60,76,0
1,46,70,32
1,61,119,80
1,58,119,0
1,65,119,0
1,56,119,0
1,46,101,12
1,58,71,60
1,63,74,0
1,55,87,0
1,60,76,8
1,56,112,36
1,58,112,0
1,65,112,0
1,61,112,0
1,39,89,36
1,61,83,92
1,58,83,0
1,65,83,0
1,56,83,0
1,51,83,0
1,39,74,4
1,61,85,8
1,63,85,4
1,58,85,0
1,39,85,0
1,55,85,0
1,51,85,0
1,63,75,32
1,58,71,0
1,61,68,0
1,55,73,0
1,51,95,4
1,44,107,28
1,63,123,96
1,56,123,0
1,54,123,0
1,59,123,0
1,61,77,32
1,56,65,0
1,58,63,0
1,53,79,4
1,44,87,24
1,63,122,72
1,56,122,0
1,54,122,0
1,59,122,0
1,44,73,0
1,56,89,52
1,61,85,0
1,58,70,4
1,53,92,0
1,56,112,28
1,54,112,0
1,63,112,0
1,59,112,0
1,37,84,28
1,63,72,92
1,56,72,0
1,59,72,0
1,54,72,0
1,49,73,4
1,37,68,4
1,37,76,8
1,61,76,0
1,59,76,0
1,56,76,0
1,49,76,0
1,53,76,0
1,58,74,8
1,65,74,0
1,42,74,0
1,56,74,0
1,49,74,0
1,61,74,0
1,61,82,4
1,65,95,0
1,58,89,0
1,56,107,0
1,49,67,4
1,63,96,8
1,56,96,0
1,54,96,0
1,44,96,0
1,51,96,0
1,59,96,0
1,61,102,4
1,58,102,0
1,65,102,0
1,56,102,0
1,46,102,0
1,63,108,4
1,58,108,0
1,59,108,0
1,47,108,0
1,54,108,0
1,61,117,0
1,49,117,0
1,59,117,0
1,64,117,0
1,56,117,0
1,51,122,0
1,61,122,4
1,58,122,0
1,63,122,0
1,66,122,0
1,41,90,96
1,60,109,96
1,68,109,0
1,63,109,4
1,65,109,0
1,67,69,36
1,63,78,4
1,58,75,0
1,53,70,4
1,68,111,96
1,63,111,0
1,60,111,0
1,65,111,0
1,41,94,8
1,67,91,88
1,63,87,0
1,58,104,4
1,63,99,24
1,68,99,0
1,65,99,0
1,60,99,0
1,46,62,320
1,61,73,100
1,58,73,0
1,68,73,0
1,65,73,0
1,46,74,44
1,68,69,48
1,58,69,0
1,65,69,4
1,61,69,0
1,46,69,84
1,39,76,72
1,63,110,92
1,58,110,0
1,66,110,0
1,61,110,4
1,61,81,28
1,65,76,0
1,56,85,0
1,51,95,40
1,66,109,56
1,61,109,0
1,58,109,0
1,63,109,0
1,39,91,20
1,68,89,92
1,60,89,0
1,63,88,4
1,51,88,4
1,61,91,8
1,58,91,0
1,66,91,0
1,44,85,8
1,66,68,96
1,61,68,0
1,58,68,0
1,44,67,92
1,56,67,52
1,66,67,0
1,60,67,0
1,63,67,0
1,44,66,40
1,66,66,48
1,56,66,0
1,60,66,0
1,63,66,0
1,44,66,0
1,37,68,76
1,64,112,92
1,68,112,0
1,59,112,0
1,66,65,24
1,63,65,0
1,58,65,0
1,49,69,16
1,64,110,96
1,59,104,0
1,68,99,0
1,37,87,0
1,63,88,96
1,66,88,0
1,58,88,0
1,49,108,20
1,64,108,0
1,68,110,0
1,59,110,0
1,42,81,16
1,64,81,96
1,59,81,0
1,68,81,0
1,42,80,56
1,66,80,40
1,58,80,0
1,61,80,0
1,42,80,124
1,63,85,8
1,58,85,0
1,54,85,0
1,59,85,0
1,47,85,4
1,63,72,32
1,58,79,0
1,59,92,4
1,54,91,0
1,61,101,132
1,56,110,0
1,64,110,0
1,59,108,0
1,37,107,0
1,49,116,0
1,39,91,20
1,61,113,4
1,58,97,0
1,66,107,0
1,63,107,0
1,51,113,0
1,41,86,8
1,65,117,8
1,60,117,0
1,68,117,0
1,63,117,0
1,67,81,16
1,58,104,0
1,63,71,0
1,41,88,40
1,68,119,96
1,65,119,0
1,63,119,0
1,60,119,0
1,53,80,4
1,41,65,0
1,58,95,88
1,67,85,0
1,63,74,0
1,68,110,32
1,65,110,0
1,63,110,0
1,60,110,0
1,46,107,20
1,46,99,56
1,46,82,168
1,68,116,164
1,58,123,0
1,61,119,0
1,65,127,0
1,46,119,0
1,66,123,92
1,61,119,0
1,58,116,0
1,39,89,4
1,51,107,0
1,66,119,92
1,58,107,0
1,61,113,0
1,56,107,40
1,61,95,0
1,65,106,0
1,39,85,36
1,58,119,72
1,66,127,0
1,61,127,0
1,39,85,20
1,61,110,8
1,68,107,0
1,65,106,0
1,51,104,8
1,66,95,32
1,58,107,0
1,61,104,0
1,44,78,0
1,58,85,112
1,61,89,0
1,66,97,0
1,44,107,144
1,61,97,72
1,66,107,0
1,58,97,0
1,44,101,8
1,66,127,72
1,61,123,0
