track,note,velocity,time
0,40,127,214
0,59,104,0
0,62,85,0
0,40,0,19
0,62,0,3
0,40,127,3
0,59,0,1
0,62,71,3
0,59,85,3
0,40,0,5
0,44,127,5
0,61,82,5
0,59,0,2
0,57,94,0
0,62,0,1
0,61,0,29
0,44,0,3
0,57,0,0
0,47,127,9
0,59,79,4
0,55,82,2
0,59,0,28
0,55,0,2
0,47,0,5
0,49,127,6
0,61,84,2
0,57,85,3
0,57,0,25
0,47,127,2
0,49,0,2
0,61,0,1
0,47,0,8
0,52,127,7
0,59,84,1
0,55,78,2
0,59,0,23
0,52,0,0
0,52,127,1
0,55,0,5
0,52,0,8
0,49,127,6
0,61,84,3
0,57,88,3
0,57,0,29
0,61,0,6
0,49,0,1
0,47,127,9
0,59,84,2
0,55,78,1
0,59,0,28
0,47,0,6
0,55,0,8
0,49,127,2
0,61,91,0
0,57,93,3
0,49,0,26
0,52,127,1
0,61,0,3
0,55,78,2
0,59,80,0
0,57,0,2
0,52,0,4
0,59,0,3
0,55,0,2
0,55,127,3
0,62,87,2
0,59,83,2
0,62,0,19
0,55,0,3
0,59,0,1
0,55,124,3
0,62,91,4
0,59,80,1
0,61,76,1
0,59,0,1
0,57,79,2
0,62,0,4
0,55,0,20
0,61,0,9
0,57,0,3
0,55,77,3
0,52,127,0
0,59,84,1
0,59,0,28
0,55,0,7
0,52,0,4
0,49,127,8
0,61,88,0
0,57,85,3
0,61,0,23
0,47,125,2
0,49,0,4
0,57,0,2
0,47,0,12
0,50,127,2
0,55,75,1
0,59,85,0
0,59,0,25
0,50,0,1
0,50,121,3
0,55,0,2
0,50,0,9
0,49,127,6
0,61,83,3
0,57,87,1
0,49,0,28
0,61,0,1
0,57,0,9
0,47,127,7
0,59,83,3
0,55,81,0
0,59,0,23
0,47,0,18
0,55,0,1
0,57,87,2
0,61,93,1
0,49,127,0
0,57,0,28
0,61,0,1
0,49,0,3
0,55,75,0
0,47,127,0
0,59,80,5
0,55,0,7
0,59,0,2
0,47,0,2
0,59,87,2
0,28,106,2
0,40,127,0
0,62,86,1
0,62,0,17
0,59,0,1
0,40,0,1
0,59,90,5
0,62,84,2
0,40,126,2
0,40,0,10
0,28,0,1
0,59,0,2
0,61,74,4
0,57,75,1
0,44,127,0
0,32,110,1
0,62,0,3
0,57,0,25
0,44,0,6
0,61,0,1
0,32,0,4
0,55,79,4
0,47,127,0
0,59,82,1
0,35,122,7
0,59,0,17
0,55,0,10
0,47,0,6
0,35,0,3
0,61,94,4
0,49,127,0
0,57,84,1
0,37,110,1
0,37,0,25
0,57,0,3
0,49,0,0
0,47,122,1
0,61,0,2
0,35,102,3
0,47,0,4
0,35,0,8
0,52,127,0
0,55,73,2
0,59,83,1
0,40,108,3
0,52,0,18
0,59,0,2
0,52,118,1
0,40,0,6
0,55,0,6
0,52,0,2
0,49,127,5
0,61,83,2
0,57,87,3
0,37,114,1
0,61,0,25
0,49,0,11
0,57,0,5
0,37,0,1
0,47,127,1
0,55,79,1
0,59,81,4
0,35,115,1
0,59,0,18
0,47,0,9
0,55,0,12
0,35,0,0
0,49,127,2
0,37,108,1
0,61,92,0
0,57,91,0
0,57,0,28
0,61,0,0
0,37,0,1
0,49,0,1
0,52,127,0
0,59,80,2
0,55,81,1
0,35,99,1
0,59,0,8
0,52,0,3
0,55,0,0
0,55,127,3
0,35,0,1
0,59,85,0
0,38,106,1
0,62,90,0
0,62,0,19
0,59,0,4
0,55,0,1
0,55,126,3
0,38,0,2
0,62,88,1
0,59,87,1
0,55,0,8
0,54,127,6
0,37,109,1
0,61,79,1
0,59,0,1
0,57,81,2
0,62,0,1
0,57,0,26
0,61,0,1
0,54,0,5
0,37,0,1
0,52,127,7
0,59,83,3
0,55,84,0
0,35,109,2
0,59,0,22
0,52,0,13
0,55,0,0
0,35,0,3
0,61,81,5
0,57,87,0
0,49,127,0
0,37,109,4
0,57,0,17
0,37,0,3
0,49,0,4
0,47,127,5
0,61,0,6
0,47,0,4
0,42,90,6
0,57,111,2
0,36,127,0
0,45,119,0
0,45,127,0
0,57,90,0
0,42,0,9
0,58,93,0
0,46,127,3
0,45,0,1
0,57,0,1
0,45,0,1
0,57,0,0
0,58,84,4
0,46,103,0
0,58,0,4
0,57,104,0
0,40,127,1
0,46,0,3
0,36,0,0
0,57,85,2
0,45,123,0
0,58,0,2
0,45,114,0
0,46,0,3
0,57,0,6
0,55,83,1
0,55,99,1
0,45,0,1
0,43,112,0
0,57,0,1
0,40,0,1
0,42,105,1
0,43,123,0
0,45,0,1
0,40,115,2
0,42,0,9
0,40,0,5
0,55,0,5
0,50,90,3
0,43,0,1
0,55,0,1
0,40,127,1
0,38,102,1
0,43,0,2
0,50,74,1
0,38,127,1
0,38,0,10
0,50,0,1
0,52,127,2
0,50,0,1
0,40,127,0
0,79,127,0
0,79,127,0
0,42,101,0
0,40,0,1
0,74,127,0
0,68,127,0
0,74,127,0
0,52,81,0
0,79,116,0
0,40,127,0
0,68,120,0
0,38,0,1
0,52,120,0
0,40,113,0
0,40,126,1
0,42,0,13
0,40,0,4
0,79,0,4
0,68,0,0
0,79,0,0
0,52,0,0
0,74,0,0
0,68,0,0
0,40,0,1
0,74,0,0
0,79,0,0
0,52,0,0
0,52,0,1
0,40,127,1
0,40,0,1
0,52,113,0
0,52,90,0
0,68,127,1
0,40,0,2
0,40,127,0
0,52,127,0
0,79,127,0
0,40,127,1
0,74,127,0
0,79,127,0
0,79,127,1
0,74,127,1
0,68,127,0
0,40,106,1
0,74,0,10
0,68,0,0
0,52,0,1
0,40,0,0
0,68,0,0
0,79,0,1
0,42,92,0
0,79,0,1
0,40,0,0
0,74,0,0
0,52,0,0
0,52,0,2
0,79,0,0
0,40,127,1
0,40,0,1
0,40,0,7
0,42,0,1
0,40,0,9
0,40,127,7
0,62,98,17
0,42,125,3
0,67,127,1
0,40,0,1
0,49,106,0
0,40,127,1
0,28,127,0
0,36,127,1
0,42,0,16
0,49,0,1
0,62,0,4
0,40,0,0
0,67,0,1
0,62,91,0
0,67,88,1
0,67,0,23
0,62,0,0
0,62,99,1
0,67,100,0
0,42,127,1
0,69,94,0
0,67,0,22
0,62,0,0
0,62,100,1
0,67,99,0
0,42,0,5
0,36,0,13
0,69,0,1
0,62,0,1
0,76,127,0
0,67,0,1
0,74,127,1
0,62,127,0
0,86,127,0
0,55,127,0
0,67,127,1
0,40,127,0
0,40,127,0
0,59,127,1
0,76,127,0
0,52,127,0
0,56,127,0
0,56,127,0
0,76,127,1
0,88,127,2
0,86,0,4
0,55,0,1
0,74,0,3
0,62,104,13
0,67,117,0
0,40,0,5
0,67,0,11
0,28,0,4
0,42,127,2
0,69,101,2
0,62,0,1
0,42,0,1
0,28,111,1
0,62,101,1
0,36,127,0
0,67,97,0
0,69,0,1
0,36,0,3
0,52,0,2
0,28,0,0
0,59,0,4
0,67,0,1
0,56,0,0
0,42,127,1
0,36,127,0
0,28,127,0
0,62,0,1
0,42,0,1
0,40,127,1
0,28,0,1
0,56,0,3
0,40,0,1
0,28,127,0
0,69,102,0
0,40,121,0
0,42,127,1
0,61,127,1
0,59,127,0
0,66,127,0
0,40,0,8
0,66,0,14
0,67,0,2
0,61,0,0
0,67,115,0
0,40,127,0
0,62,116,1
0,88,0,2
0,42,0,0
0,69,0,3
0,36,0,0
0,62,0,3
0,76,0,1
0,59,0,3
0,76,0,2
0,28,0,3
0,76,0,1
0,40,0,0
0,40,127,2
0,66,119,2
0,31,122,0
0,50,127,0
0,61,119,0
0,67,0,1
0,75,117,3
0,62,0,2
0,75,123,4
0,74,118,5
0,75,0,2
0,40,0,0
0,31,0,1
0,75,0,5
0,38,117,0
0,50,0,1
0,47,127,0
0,73,113,1
0,74,123,0
0,59,106,1
0,74,0,2
0,66,0,7
0,73,121,1
0,74,0,1
0,73,0,0
0,72,113,0
0,47,0,4
0,61,0,3
0,69,98,1
0,42,127,2
0,45,127,1
0,71,118,0
0,73,0,1
0,72,0,0
0,72,121,0
0,66,125,0
0,61,117,0
0,70,114,6
0,71,0,2
0,42,0,0
0,71,115,4
0,72,0,2
0,45,0,4
0,70,0,0
0,61,0,1
0,69,105,1
0,43,127,1
0,66,0,1
0,70,113,0
0,71,0,2
0,42,107,0
0,67,123,1
0,62,123,0
0,69,0,3
0,69,0,0
0,68,117,1
0,40,0,3
0,42,0,2
0,69,111,1
0,70,0,1
0,43,0,1
0,68,0,3
0,38,0,4
0,40,103,0
0,28,127,0
0,59,0,1
0,36,127,0
0,67,127,0
0,62,101,0
0,40,127,2
0,69,0,1
0,42,127,0
0,67,0,4
0,62,0,0
0,40,0,9
0,42,0,5
0,62,0,2
0,62,112,1
0,52,127,0
0,67,0,1
0,67,92,1
0,36,0,15
0,52,0,4
0,62,0,1
0,67,0,0
0,50,127,2
0,69,105,0
0,55,82,1
0,67,102,0
0,62,108,1
0,42,127,1
0,55,0,8
0,40,0,2
0,50,0,8
0,69,0,2
0,47,125,1
0,52,88,0
0,42,0,1
0,62,0,0
0,67,0,1
0,62,103,0
0,67,104,1
0,47,0,12
0,52,0,5
0,67,0,3
0,62,0,0
0,55,127,1
0,40,127,0
0,58,120,2
0,55,105,0
0,64,96,0
0,40,0,15
0,59,90,1
0,58,0,1
0,62,106,1
0,67,114,0
0,55,0,1
0,28,0,12
0,64,0,2
0,55,0,1
0,67,0,0
0,42,116,1
0,62,0,2
0,69,104,0
0,52,127,1
0,59,0,1
0,52,84,0
0,42,0,11
0,69,0,6
0,42,100,3
0,52,0,1
0,36,127,0
0,28,111,0
0,55,93,1
0,50,127,0
0,62,113,2
0,67,113,0
0,52,0,1
0,36,0,8
0,42,0,1
0,28,0,1
0,55,0,3
0,62,0,5
0,67,0,0
0,50,0,1
0,47,126,1
0,28,127,0
0,36,127,0
0,42,127,1
0,52,96,1
0,47,0,10
0,52,0,3
0,42,0,6
0,52,127,2
0,28,0,2
0,52,127,2
0,52,0,9
0,36,0,2
0,52,0,6
0,59,109,3
0,50,127,0
0,28,117,0
0,61,107,0
0,69,105,0
0,66,95,1
0,42,127,2
0,50,0,13
0,69,0,5
0,61,0,0
0,66,0,3
0,47,120,0
0,42,0,4
0,62,104,0
0,67,102,0
0,47,0,7
0,59,0,11
0,62,0,1
0,40,127,1
0,52,127,0
0,67,0,1
0,52,102,0
0,69,127,0
0,64,125,0
0,28,0,5
0,52,0,10
0,40,0,4
0,52,0,1
0,50,127,3
0,52,123,2
0,28,127,1
0,52,0,13
0,69,0,0
0,64,0,3
0,50,0,1
0,47,126,4
0,69,104,1
0,42,127,0
0,59,104,1
0,66,117,0
0,61,125,0
0,28,0,6
0,42,0,6
0,47,0,6
0,61,0,1
0,69,0,1
0,66,0,1
0,43,127,1
0,67,105,2
0,28,103,1
0,62,105,0
0,43,0,14
0,28,0,4
0,59,0,1
0,67,0,1
0,62,0,0
0,67,127,1
0,40,127,0
0,62,108,0
0,28,127,1
0,36,127,0
0,42,127,0
0,40,111,1
0,42,0,14
0,40,0,2
0,62,0,5
0,67,0,1
0,67,96,1
0,52,127,0
0,62,86,1
0,52,0,17
0,62,0,2
0,67,0,2
0,55,89,1
0,50,120,0
0,67,110,0
0,42,127,1
0,62,96,0
0,69,104,1
0,36,0,3
0,55,0,11
0,42,0,3
0,67,0,4
0,40,0,0
0,50,0,1
0,47,123,0
0,62,0,1
0,67,96,0
0,62,104,1
0,52,101,2
0,69,0,2
0,47,0,8
0,62,0,7
0,67,0,0
0,52,127,3
0,40,127,1
0,55,105,2
0,58,127,0
0,64,98,0
0,40,0,17
0,52,0,2
0,52,0,2
0,58,0,1
0,50,126,0
0,67,104,1
0,62,101,1
0,59,81,0
0,55,0,14
0,62,0,3
0,67,0,1
0,28,0,0
0,50,0,2
0,47,126,2
0,69,104,0
0,42,113,0
0,64,0,1
0,52,93,3
0,59,0,2
0,42,0,1
0,47,0,12
0,36,127,4
0,55,127,0
0,69,0,1
0,52,0,0
0,42,105,0
0,28,126,2
0,62,93,0
0,67,125,0
0,55,105,1
0,42,0,5
0,36,0,2
0,28,0,9
0,67,0,2
0,55,0,1
0,28,127,2
0,42,127,0
0,36,127,0
0,52,104,3
0,62,0,1
0,55,0,1
0,42,0,14
0,52,0,0
0,40,127,7
0,52,107,1
0,36,0,10
0,40,0,7
0,28,0,2
0,52,0,1
0,69,107,0
0,40,106,1
0,42,127,1
0,61,117,2
0,40,126,0
0,66,125,0
0,59,101,0
0,40,0,9
0,66,0,9
0,61,0,1
0,69,0,0
0,42,0,3
0,67,97,1
0,40,127,1
0,62,100,1
0,40,0,1
0,59,0,11
0,40,0,1
0,67,0,6
0,62,0,0
0,52,94,0
0,50,127,1
0,43,119,0
0,40,127,0
0,61,127,0
0,66,127,0
0,40,0,16
0,52,0,1
0,43,0,1
0,50,112,6
0,50,0,1
0,47,127,0
0,52,89,1
0,52,0,17
0,47,0,3
0,66,0,1
0,61,0,0
0,42,127,1
0,45,125,1
0,69,104,0
0,66,120,2
0,59,105,0
0,61,123,0
0,42,0,1
0,61,0,1
0,66,0,2
0,45,0,1
0,69,0,1
0,43,126,1
0,67,103,1
0,62,104,0
0,43,0,6
0,59,0,1
0,28,103,3
0,36,127,0
0,42,127,1
0,67,0,1
0,67,127,0
0,62,112,1
0,40,127,0
0,40,123,0
0,62,0,1
0,50,0,4
0,40,0,9
0,42,0,1
0,36,0,6
0,62,0,0
0,52,127,1
0,67,0,1
0,62,106,0
0,67,101,1
0,52,0,19
0,67,0,2
0,62,0,1
0,50,127,0
0,67,99,0
0,42,127,0
0,55,97,1
0,62,97,1
0,69,104,0
0,55,0,3
0,40,0,7
0,50,0,3
0,47,123,2
0,67,0,1
0,62,0,0
0,62,110,1
0,67,104,0
0,52,101,0
0,42,0,3
0,69,0,2
0,47,0,12
0,67,0,2
0,40,127,2
0,55,127,0
0,62,0,1
0,64,101,2
0,58,127,1
0,55,107,0
0,40,0,1
0,52,0,1
0,58,0,1
0,59,102,1
0,62,110,1
0,67,114,0
0,55,0,2
0,62,0,1
0,55,0,2
0,28,0,0
0,64,0,1
0,52,126,3
0,42,125,0
0,67,0,1
0,52,100,1
0,69,105,0
0,59,0,1
0,42,0,11
0,52,0,4
0,28,119,5
0,59,115,1
0,64,106,0
0,36,127,0
0,50,125,0
0,52,0,1
0,69,0,0
0,67,122,1
0,62,112,0
0,36,0,9
0,28,0,3
0,50,0,6
0,36,127,3
0,28,127,1
0,42,127,0
0,47,124,0
0,67,0,3
0,62,0,0
0,47,0,12
0,42,0,1
0,36,0,3
0,62,119,4
0,64,127,0
0,52,127,1
0,28,0,13
0,62,0,1
0,64,0,1
0,52,0,7
0,62,116,1
0,64,112,0
0,69,107,0
0,50,126,0
0,40,124,1
0,42,127,0
0,64,0,13
0,59,0,0
0,62,0,1
0,50,0,4
0,40,0,4
0,62,118,1
0,64,126,0
0,47,126,1
0,42,0,1
0,69,0,4
0,64,0,2
0,64,0,6
0,47,0,0
0,62,0,1
0,43,113,9
0,52,127,0
0,62,127,0
0,64,127,0
0,83,127,1
0,64,111,0
0,76,127,0
0,86,127,0
0,69,111,0
0,88,127,0
0,40,127,0
0,64,0,13
0,40,0,2
0,62,0,0
0,43,0,1
0,52,0,3
0,64,0,2
0,69,0,1
0,64,127,1
0,50,127,0
0,52,118,0
0,62,127,0
0,64,116,1
0,69,117,1
0,64,0,14
0,62,0,2
0,69,0,2
0,50,0,0
0,64,0,3
0,76,0,1
0,83,0,0
0,88,0,0
0,86,0,0
0,69,101,0
0,62,127,0
0,47,127,0
0,64,127,0
0,62,112,1
0,42,127,0
0,67,113,1
0,42,0,1
0,62,0,1
0,64,0,1
0,47,0,1
0,69,0,4
0,64,127,2
0,62,127,0
0,43,127,1
0,42,98,1
0,67,0,2
0,62,0,3
0,64,0,1
0,42,0,0
0,62,0,1
0,43,0,1
0,40,127,3
0,67,114,3
0,67,127,0
0,52,105,0
0,28,127,1
