track,note,velocity,time
0,69,95,4
0,60,127,0
0,65,127,0
0,68,127,0
0,49,127,0
0,61,127,0
0,72,127,0
0,60,127,0
0,68,106,0
0,80,107,0
0,68,94,8
0,80,80,0
0,69,54,20
0,60,127,0
0,68,94,0
0,80,89,0
0,68,64,36
0,80,76,0
0,69,100,80
0,60,127,0
0,60,127,0
0,68,106,0
0,80,106,0
0,69,63,16
0,48,127,4
0,70,127,0
0,60,127,0
0,63,127,0
0,67,127,0
0,58,127,0
0,68,106,0
0,80,107,0
0,60,127,80
0,69,98,0
0,69,67,20
0,56,127,0
0,56,127,0
0,68,104,0
0,80,107,0
0,46,127,4
0,61,127,0
0,65,127,0
0,68,127,0
0,69,101,52
0,60,127,4
0,80,106,0
0,68,106,0
0,68,61,12
0,80,99,0
0,69,65,12
0,48,127,4
0,58,127,0
0,63,127,0
0,67,127,0
0,68,89,0
0,80,94,0
0,80,89,24
0,60,127,72
0,69,98,0
0,58,127,0
0,68,104,0
0,80,107,0
0,68,80,16
0,80,89,0
0,69,69,4
0,39,127,0
0,58,127,0
0,68,106,0
0,80,64,0
0,68,72,28
0,80,69,0
0,69,92,32
0,60,127,0
0,40,127,0
0,58,127,0
0,68,106,0
0,80,107,0
0,69,65,0
0,80,106,0
0,56,127,4
0,41,127,0
0,60,127,0
0,63,127,0
0,68,127,0
0,55,127,0
0,68,106,0
0,80,80,24
0,60,127,80
0,69,92,0
0,68,89,0
0,68,84,8
0,80,104,4
0,69,65,44
0,68,106,0
0,41,127,4
0,56,127,0
0,80,107,0
0,69,92,28
0,44,127,0
0,56,127,0
0,60,127,0
0,68,104,0
0,80,106,0
0,60,127,4
0,63,127,0
0,68,127,0
0,69,69,24
0,61,127,0
0,46,124,0
0,68,89,0
0,80,84,0
0,80,59,24
0,69,102,36
0,60,127,0
0,49,127,0
0,72,127,0
0,61,127,0
0,65,127,0
0,68,127,0
0,60,127,0
0,68,99,0
0,80,94,0
0,68,76,8
0,80,84,0
0,69,65,12
0,60,127,0
0,68,99,0
0,80,80,0
0,68,76,28
0,80,61,0
0,69,95,0
0,60,127,0
0,60,127,0
0,68,107,0
0,80,107,0
0,69,69,0
0,68,106,0
0,80,106,0
0,70,127,4
0,48,127,0
0,60,127,0
0,63,127,0
0,67,127,0
0,58,127,0
0,60,127,8
0,69,88,0
0,80,61,0
0,80,80,8
0,68,64,4
0,69,72,12
0,46,127,0
0,61,127,0
0,56,127,0
0,65,127,0
0,68,127,0
0,56,127,0
0,68,107,0
0,80,107,0
0,60,127,36
0,69,98,0
0,68,107,0
0,80,107,0
0,69,67,4
0,58,127,0
0,63,127,0
0,67,127,0
0,56,127,0
0,68,76,0
0,80,80,0
0,48,127,4
0,68,76,4
0,80,64,0
0,69,98,52
0,60,127,0
0,58,127,0
0,68,89,0
0,80,94,0
0,68,99,12
0,80,89,0
0,69,67,16
0,39,127,0
0,58,127,0
0,68,106,0
0,80,106,0
0,69,95,8
0,60,127,0
0,51,127,0
0,58,127,0
0,63,127,0
0,67,127,0
0,58,127,0
0,68,107,0
0,80,107,0
0,69,67,20
0,41,127,0
0,60,127,0
0,68,127,0
0,55,127,0
0,80,89,0
0,68,99,0
0,56,127,4
0,63,127,0
0,68,69,32
0,80,80,0
0,69,95,68
0,60,127,4
0,68,94,0
0,80,99,0
0,68,104,12
0,80,106,0
0,69,67,32
0,56,127,0
0,56,127,0
0,68,106,0
0,80,106,0
0,53,127,28
0,69,95,32
0,60,127,4
0,56,127,0
0,60,127,0
0,63,127,0
0,68,127,0
0,68,104,0
0,80,107,0
0,68,106,0
0,80,104,0
0,69,69,0
0,53,127,4
0,68,99,0
0,80,104,0
0,68,107,20
0,80,104,0
0,36,127,52
0,42,102,0
0,69,76,0
0,68,106,0
0,80,89,0
0,60,127,4
0,65,127,0
0,68,127,0
0,72,119,0
0,49,121,0
0,61,121,0
0,60,127,0
0,68,84,24
0,80,84,0
0,42,60,28
0,69,65,0
0,60,127,0
0,68,76,0
0,42,104,12
0,60,127,0
0,69,72,0
0,60,127,0
0,68,107,0
0,80,104,0
0,42,77,40
0,69,72,0
0,67,127,0
0,48,124,0
0,60,127,0
0,63,127,0
0,70,127,0
0,58,127,0
0,68,104,0
0,80,106,0
0,36,127,36
0,42,104,0
0,69,63,0
0,68,59,0
0,80,53,0
0,60,127,0
0,68,94,28
0,80,89,0
0,42,71,16
0,69,67,4
0,56,127,0
0,68,106,0
0,80,106,0
0,46,127,4
0,56,121,0
0,61,127,0
0,65,127,0
0,68,127,0
0,42,100,92
0,60,127,0
0,69,63,0
0,68,107,0
0,80,107,0
0,42,62,20
0,69,65,0
0,63,127,0
0,67,127,0
0,48,125,0
0,58,119,0
0,68,99,0
0,80,72,0
0,68,94,12
0,80,89,0
0,36,127,64
0,42,100,0
0,69,72,0
0,68,104,0
0,80,72,0
0,60,127,0
0,58,127,0
0,68,104,20
0,80,94,0
0,42,66,0
0,69,67,0
0,58,127,4
0,68,104,0
0,80,99,0
0,42,100,32
0,69,69,4
0,39,127,0
0,58,127,0
0,68,104,0
0,80,107,0
0,60,127,4
0,55,127,0
0,58,127,0
0,63,127,0
0,42,64,24
0,61,127,0
0,69,67,0
0,55,127,0
0,68,94,0
0,68,94,20
0,80,80,0
0,36,127,56
0,42,109,4
0,69,69,0
0,60,127,0
0,65,124,0
0,41,127,0
0,56,110,0
0,60,127,0
0,68,69,0
0,80,94,20
0,68,104,4
0,42,73,24
0,69,65,4
0,56,127,0
0,68,104,0
0,80,106,0
0,42,109,52
0,69,72,0
0,68,106,0
0,80,107,0
0,59,127,0
0,71,127,0
0,60,127,4
0,59,127,24
0,71,127,0
0,42,75,0
0,69,61,0
0,68,104,0
0,58,127,0
0,70,127,0
0,68,84,20
0,80,76,0
0,56,127,0
0,68,127,0
0,36,127,20
0,42,109,4
0,69,72,0
0,58,116,0
0,66,120,0
0,68,106,0
0,80,104,0
0,80,27,0
0,58,127,0
0,70,127,0
0,44,127,3
0,49,98,0
0,60,127,0
0,44,127,0
0,61,127,0
0,63,127,0
0,56,127,0
0,68,107,0
0,80,104,0
0,68,127,0
0,44,127,16
0,42,71,0
0,69,69,0
0,56,127,0
0,68,49,0
0,38,127,0
0,42,114,0
0,69,69,0
0,68,106,0
0,80,104,0
0,71,127,0
0,83,127,0
0,54,127,4
0,60,127,0
0,83,127,20
0,56,127,4
0,71,127,0
0,56,127,0
0,42,75,0
0,69,72,0
0,68,55,0
0,70,127,0
0,82,127,0
0,68,106,0
0,68,29,0
0,80,106,0
0,68,127,0
0,80,127,0
0,36,127,0
0,44,127,0
0,42,114,0
0,69,74,0
0,56,127,0
0,68,84,0
0,80,64,0
0,70,127,0
0,82,127,0
0,60,127,4
0,68,127,20
0,68,80,0
0,80,127,0
0,44,127,0
0,42,77,0
0,69,69,0
0,68,106,0
0,80,107,0
0,56,127,12
0,38,127,32
0,42,109,0
0,69,67,0
0,59,127,0
0,71,127,0
0,68,106,0
0,80,106,0
0,54,127,4
0,60,127,0
0,71,127,24
0,59,127,4
0,56,127,4
0,42,79,0
0,69,63,0
0,58,127,0
0,70,127,0
0,56,127,0
0,61,127,4
0,56,127,0
0,68,127,0
0,80,84,0
0,68,84,0
0,36,127,20
0,44,127,0
0,42,114,0
0,69,69,0
0,60,127,0
0,58,127,0
0,70,127,0
0,80,89,0
0,56,127,0
0,68,127,0
0,68,107,0
0,80,106,0
0,44,127,32
0,42,79,0
0,69,67,0
0,56,127,0
0,54,127,0
0,38,127,0
0,42,104,0
0,69,69,0
0,68,107,0
0,80,106,0
0,60,127,4
0,56,127,20
0,42,73,28
0,56,127,0
0,69,67,0
0,80,69,0
0,68,94,0
0,80,84,0
0,44,127,0
0,36,127,0
0,42,109,0
0,69,67,0
0,60,127,0
0,56,127,0
0,80,57,0
0,68,106,0
0,80,104,0
0,44,127,0
0,42,73,0
0,69,63,0
0,68,107,0
0,80,107,0
0,54,127,0
0,38,127,0
0,42,109,0
0,69,69,0
0,68,104,0
0,80,104,0
0,60,127,4
0,42,73,36
0,69,69,0
0,56,127,0
0,68,127,0
0,68,127,0
0,75,127,0
0,80,127,0
0,44,127,4
0,58,126,0
0,61,127,0
0,63,127,0
0,68,127,0
0,54,127,0
0,58,127,0
0,68,127,0
0,56,127,4
0,49,126,0
0,61,127,0
0,68,80,0
0,80,72,0
0,36,127,32
0,44,127,0
0,42,114,0
0,69,69,0
0,60,127,0
0,68,80,0
0,80,80,0
0,68,107,0
0,80,106,0
0,42,77,40
0,44,127,4
0,69,69,0
0,56,127,0
0,54,127,0
0,38,127,0
0,42,109,0
0,69,72,0
0,68,104,0
0,80,107,0
0,60,127,4
0,56,127,16
0,56,127,28
0,42,81,0
0,69,72,0
0,80,61,0
0,68,84,4
0,44,127,12
0,36,127,0
0,42,109,0
0,60,127,0
0,69,69,0
0,56,127,0
0,68,99,0
0,80,104,0
0,44,127,28
0,42,86,0
0,69,67,0
0,68,84,0
0,56,127,16
0,54,127,0
0,38,127,0
0,42,109,0
0,69,69,0
0,60,127,0
0,68,104,0
0,80,104,0
0,42,75,40
0,56,127,4
0,69,76,0
0,61,127,0
0,56,127,0
0,68,57,12
0,80,49,0
0,44,127,0
0,36,127,0
0,42,109,0
0,60,127,0
0,69,76,0
0,80,80,0
0,68,106,0
0,80,104,0
0,42,81,24
0,44,127,4
0,69,72,0
0,56,127,0
0,68,22,0
0,54,127,0
0,38,127,0
0,42,104,0
0,69,69,0
0,60,127,0
0,68,94,0
0,80,106,0
0,56,127,32
0,56,127,0
0,42,75,0
0,69,74,0
0,68,24,0
0,80,59,0
0,61,127,4
0,68,127,12
0,80,127,0
0,56,127,8
0,36,127,20
0,58,127,4
0,42,109,0
0,69,95,0
0,56,127,0
0,68,127,0
0,80,127,0
0,56,127,0
0,68,66,0
0,80,106,0
0,68,127,0
0,80,127,0
0,68,127,0
0,44,127,4
0,60,127,0
0,44,127,0
0,56,127,0
0,61,127,0
0,63,127,0
0,68,127,0
0,65,101,52
0,68,109,8
0,42,96,4
0,70,117,100
0,36,127,92
0,42,102,4
0,69,76,0
0,49,127,0
0,65,127,0
0,60,127,0
0,60,127,0
0,37,127,3
0,49,127,0
0,60,127,0
0,56,127,0
0,61,127,0
0,72,113,8
0,37,127,0
0,42,60,0
0,69,65,0
0,60,127,0
0,72,99,20
0,38,127,4
0,42,104,0
0,69,72,0
0,60,127,0
0,60,127,0
0,75,80,0
0,80,94,0
0,75,69,32
0,80,80,0
0,42,77,36
0,36,127,0
0,69,72,0
0,58,127,0
0,48,127,0
0,55,127,0
0,63,127,0
0,58,127,0
0,75,61,0
0,80,80,0
0,75,31,0
0,80,66,0
0,36,127,48
0,42,104,0
0,60,127,0
0,69,63,0
0,75,84,0
0,82,104,0
0,42,71,0
0,69,67,0
0,56,127,0
0,75,80,0
0,80,99,0
0,34,127,4
0,62,127,0
0,53,127,0
0,56,127,0
0,61,127,0
0,38,127,12
0,42,100,0
0,60,127,0
0,69,63,0
0,68,119,12
0,42,62,60
0,34,127,4
0,69,65,0
0,61,127,0
0,55,127,0
0,58,127,0
0,63,127,0
0,48,127,0
0,70,119,8
0,36,127,16
0,36,127,4
0,42,100,0
0,60,127,0
0,69,72,0
0,58,127,0
0,72,103,4
0,42,66,20
0,27,127,4
0,69,67,0
0,58,127,0
0,75,119,8
0,28,127,8
0,38,127,0
0,42,100,0
0,69,69,0
0,60,127,0
0,58,127,0
0,77,103,12
0,42,64,8
0,69,67,0
0,41,127,0
0,53,127,0
0,56,127,0
0,63,127,0
0,55,127,0
0,68,89,12
0,29,127,116
0,36,127,0
0,42,109,0
0,60,127,0
0,69,69,0
0,42,73,12
0,69,65,0
0,56,127,0
0,38,127,52
0,32,127,4
0,42,109,0
0,60,127,0
0,69,72,0
0,70,115,16
0,34,127,20
0,42,75,0
0,61,127,0
0,69,61,0
0,72,109,8
0,37,127,0
0,36,127,0
0,42,109,0
0,69,72,0
0,60,127,0
0,65,127,0
0,49,127,0
0,56,127,0
0,61,127,0
0,60,127,0
0,37,127,0
0,42,71,0
0,69,69,0
0,60,127,0
0,72,115,20
0,38,127,0
0,42,114,0
0,69,69,0
0,75,76,0
0,80,106,0
0,60,127,0
0,60,127,0
0,75,66,0
0,80,80,0
0,42,75,40
0,36,127,0
0,69,72,0
0,63,127,0
0,48,127,0
0,55,127,0
0,58,127,0
0,58,127,0
0,75,57,0
0,80,76,0
0,75,64,0
0,80,80,0
0,36,127,36
0,42,114,0
0,60,127,0
0,69,74,0
0,75,84,0
0,82,104,0
0,42,77,0
0,69,69,0
0,56,127,0
0,75,80,0
0,80,99,0
0,34,127,4
0,46,127,0
0,53,127,0
0,56,127,0
0,61,127,0
0,38,127,60
0,42,109,0
0,60,127,0
0,69,67,0
0,68,117,8
0,42,79,20
0,69,63,0
0,48,127,0
0,55,127,0
0,58,127,0
0,63,127,0
0,34,127,4
0,70,89,0
0,61,127,0
0,36,127,24
0,36,127,0
0,42,114,0
0,69,69,0
0,60,127,0
0,58,127,0
0,72,103,4
0,27,127,4
0,42,79,0
0,69,67,0
0,58,127,0
0,75,117,8
0,28,127,16
0,38,127,0
0,42,104,0
0,69,69,0
0,58,127,0
0,60,127,4
0,77,93,4
0,42,73,12
0,69,67,0
0,56,127,0
0,60,127,0
0,55,127,0
0,68,93,4
0,41,127,0
0,53,127,0
0,36,127,116
0,29,127,4
0,42,109,0
0,60,127,0
0,69,67,0
0,42,73,36
0,69,63,4
0,56,127,0
0,38,127,16
0,32,127,0
0,42,109,0
0,60,127,0
0,69,69,0
0,70,119,24
0,34,127,4
0,42,73,0
0,61,127,0
0,69,69,0
0,37,127,0
0,36,127,0
0,42,102,0
0,69,76,0
0,49,127,0
0,56,127,0
0,61,127,0
0,65,127,0
0,60,127,0
0,49,127,0
0,60,127,0
0,72,113,24
0,37,127,0
0,42,60,0
0,69,65,0
0,60,127,0
0,72,105,24
0,38,127,4
0,42,104,0
0,69,72,0
0,60,127,0
0,60,127,0
0,75,76,0
0,80,94,0
0,75,61,0
0,80,72,0
0,42,77,0
0,69,72,0
0,63,127,0
0,58,127,0
0,75,37,0
0,80,69,0
0,36,127,4
0,48,127,0
0,55,127,0
0,58,127,0
0,75,61,0
0,80,72,0
0,36,127,40
0,42,104,0
0,60,127,0
0,69,63,0
0,75,76,0
0,82,84,0
0,34,127,0
0,42,71,0
0,69,67,0
0,62,127,0
0,53,127,0
0,56,127,0
0,61,127,0
0,56,127,0
0,75,80,0
0,80,89,0
0,68,123,52
0,38,127,0
0,42,100,4
0,60,127,0
0,69,63,0
0,42,62,60
0,69,65,4
0,48,127,0
0,55,127,0
0,58,127,0
0,64,127,0
0,34,127,4
0,70,86,0
0,61,127,0
0,72,83,104
0,36,127,0
0,42,100,0
0,69,72,0
0,36,127,4
0,60,127,0
0,58,127,0
0,39,127,20
0,75,119,0
0,42,66,0
0,69,67,0
0,58,127,0
0,40,127,20
0,38,127,0
0,42,100,0
0,69,69,0
0,64,127,0
0,55,127,0
0,58,127,0
0,58,127,0
0,77,97,4
0,60,127,0
0,42,64,48
0,69,67,0
0,55,127,0
0,70,107,12
0,36,127,40
0,42,109,0
0,69,69,0
0,41,127,4
0,60,127,0
0,56,127,0
0,65,127,0
0,53,127,0
0,60,127,0
0,42,73,8
0,69,65,4
0,56,127,0
0,34,127,20
0,38,127,0
0,42,109,0
0,60,127,0
0,69,72,0
0,68,109,4
0,61,127,4
0,44,127,12
0,56,127,4
0,42,75,8
0,69,61,0
0,56,127,0
0,68,127,0
0,61,127,0
0,63,127,0
0,33,127,4
0,61,127,0
0,68,127,0
0,75,127,0
0,80,127,0
0,70,117,8
0,36,127,76
0,42,109,0
0,69,72,0
0,66,127,0
0,73,127,0
0,44,127,0
0,68,69,0
0,80,72,0
0,32,127,4
0,60,127,0
0,56,127,0
0,63,127,0
0,70,127,0
0,68,103,0
0,32,127,20
0,42,71,0
