track,note,velocity,time
1,74,100,26304
1,74,100,0
1,74,100,0
1,74,100,24
1,74,100,24
1,74,100,24
1,74,100,24
1,74,100,24
1,74,100,24
1,74,100,24
1,74,100,24
1,74,100,24
1,74,100,24
1,74,100,24
1,74,100,24
1,74,100,24
1,74,100,24
1,74,100,72
1,74,100,24
1,74,100,24
1,74,100,24
1,74,100,24
1,74,100,24
1,74,100,24
1,74,100,24
1,74,100,24
1,74,100,24
1,83,100,36
1,83,100,24
1,81,100,24
1,79,100,24
1,86,100,24
1,84,100,24
1,83,100,24
1,79,100,24
1,74,100,24
1,74,100,24
1,74,100,24
1,72,100,24
1,72,100,24
1,71,100,96
1,79,100,24
1,79,100,24
1,74,100,24
1,74,100,24
1,72,100,24
1,72,100,24
1,67,100,0
1,72,100,24
1,71,100,96
1,71,100,24
1,72,100,24
1,72,100,24
1,72,100,24
1,74,100,24
1,71,100,24
1,71,100,24
1,71,100,72
1,71,100,24
1,72,100,24
1,72,100,24
1,72,100,24
1,74,100,24
1,71,100,24
1,71,100,24
1,71,100,72
1,71,100,24
1,72,100,24
1,72,100,24
1,72,100,24
1,74,100,24
1,71,100,24
1,71,100,24
1,71,100,72
1,71,100,24
1,72,100,24
1,72,100,24
1,72,100,24
1,74,100,24
1,74,100,24
1,74,100,24
1,79,100,72
1,81,100,24
1,83,100,24
1,86,100,24
1,83,100,24
1,81,100,24
1,79,100,24
1,72,100,24
1,74,100,24
1,83,100,24
1,81,100,24
1,79,100,24
1,79,100,24
1,74,100,24
1,74,100,24
1,74,100,24
1,74,100,24
1,79,100,60
1,81,100,24
1,83,100,24
1,86,100,24
1,83,100,24
1,81,100,24
1,79,100,24
1,72,100,24
1,74,100,24
1,83,100,24
1,81,100,24
1,79,100,24
1,79,100,24
1,74,100,24
1,74,100,24
1,74,100,24
1,74,100,24
1,67,100,60
1,69,100,24
1,59,100,24
1,62,100,24
1,59,100,24
1,57,100,24
1,55,100,24
1,60,100,24
1,62,100,24
1,71,100,24
1,69,100,24
1,67,100,24
1,67,100,24
1,62,100,24
1,62,100,24
1,62,100,24
1,62,100,24
2,74,64,0
2,74,64,24
2,74,64,24
2,71,64,0
2,66,64,0
2,74,64,24
2,74,64,24
2,74,64,24
2,74,64,24
2,74,64,24
2,74,64,24
2,74,64,24
2,74,64,24
2,72,64,0
2,67,64,0
2,74,64,24
2,74,64,24
2,74,64,24
2,74,64,24
2,74,64,24
2,74,64,24
2,74,64,24
2,71,64,0
2,66,64,0
2,74,64,24
2,74,64,24
2,74,64,24
2,74,64,24
2,72,64,0
2,67,64,0
2,74,64,24
2,74,64,24
2,74,64,24
2,83,64,24
2,71,64,0
2,83,64,24
2,81,64,24
2,79,64,24
2,86,64,24
2,78,64,0
2,72,64,0
2,84,64,24
2,83,64,24
2,79,64,24
2,71,64,0
2,74,64,24
2,74,64,24
2,74,64,24
2,72,64,24
2,72,64,24
2,71,64,24
2,79,64,24
2,79,64,24
2,71,64,0
2,74,64,24
2,74,64,24
2,72,64,24
2,72,64,24
2,67,64,0
2,72,64,24
2,67,64,0
2,71,64,96
2,71,64,24
2,72,64,24
2,67,64,0
2,72,64,24
2,72,64,24
2,74,64,24
2,71,64,24
2,67,64,0
2,71,64,24
2,67,64,24
2,67,64,24
2,67,64,24
2,67,64,24
2,71,64,24
2,71,64,24
2,72,64,24
2,67,64,0
2,72,64,24
2,72,64,24
2,74,64,24
2,71,64,24
2,67,64,0
2,71,64,24
2,67,64,24
2,67,64,24
2,67,64,24
2,67,64,24
2,71,64,24
2,71,64,24
2,72,64,24
2,67,64,0
2,72,64,24
2,72,64,24
2,74,64,24
2,71,64,24
2,67,64,0
2,71,64,24
2,67,64,24
2,67,64,24
2,67,64,24
2,67,64,24
2,71,64,24
2,71,64,24
2,72,64,24
2,67,64,0
2,72,64,24
2,72,64,24
2,74,64,24
2,74,64,24
2,72,64,0
2,74,64,24
2,79,64,24
2,81,64,24
2,83,64,24
2,74,64,0
2,86,64,24
2,83,64,24
2,81,64,24
2,79,64,24
2,72,64,24
2,74,64,192
2,83,64,24
2,81,64,24
2,71,64,0
2,79,64,24
2,79,64,24
2,72,64,0
2,74,64,24
2,74,64,24
2,74,64,24
2,74,64,24
2,71,64,0
2,66,64,0
2,74,64,24
2,74,64,24
2,74,64,24
2,74,64,24
2,72,64,0
2,67,64,0
2,74,64,24
2,74,64,24
2,74,64,24
2,74,64,24
2,71,64,0
2,66,64,0
2,74,64,24
2,74,64,24
2,74,64,24
2,74,64,24
2,72,64,0
2,67,64,0
2,74,64,24
2,74,64,0
2,74,64,24
2,74,64,24
2,71,64,0
2,66,64,0
2,74,64,24
2,74,64,24
2,74,64,24
2,74,64,24
2,74,64,24
2,74,64,24
2,74,64,24
2,72,64,24
2,67,64,0
2,74,64,0
2,74,64,24
2,74,64,24
2,74,64,24
2,74,64,24
2,74,64,24
2,74,64,24
2,74,64,24
2,71,64,0
2,66,64,0
2,74,64,24
2,74,64,24
2,74,64,24
2,74,64,24
2,72,64,0
2,67,64,0
2,74,64,24
2,74,64,24
2,74,64,24
2,83,64,24
2,71,64,0
2,83,64,24
2,81,64,24
2,79,64,24
2,86,64,24
2,78,64,0
2,72,64,0
2,84,64,24
2,83,64,24
2,79,64,24
2,71,64,0
2,74,64,24
2,74,64,24
2,74,64,24
2,72,64,24
2,72,64,24
2,71,64,24
2,79,64,24
2,71,64,12
2,79,64,0
2,74,64,12
2,74,64,24
2,72,64,24
2,72,64,24
2,67,64,0
2,72,64,24
2,67,64,0
2,71,64,96
2,71,64,24
2,72,64,24
2,67,64,0
2,72,64,24
2,72,64,24
2,74,64,24
2,71,64,24
2,67,64,0
2,71,64,24
2,67,64,24
2,67,64,24
2,67,64,24
2,67,64,24
2,71,64,24
2,71,64,24
2,72,64,24
2,67,64,0
2,72,64,24
2,72,64,24
2,74,64,24
2,71,64,24
2,67,64,0
2,71,64,24
2,67,64,24
2,67,64,24
2,67,64,24
2,67,64,24
2,71,64,24
2,71,64,24
2,72,64,24
2,67,64,0
2,72,64,24
2,72,64,24
2,74,64,24
2,71,64,24
2,67,64,0
2,71,64,24
2,67,64,24
2,67,64,24
2,67,64,24
2,67,64,24
2,71,64,24
2,71,64,24
2,72,64,24
2,67,64,0
2,72,64,24
2,72,64,24
2,74,64,24
2,74,64,24
2,72,64,0
2,74,64,24
2,79,64,24
2,81,64,24
2,83,64,24
2,74,64,0
2,86,64,24
2,83,64,24
2,81,64,24
2,79,64,24
2,72,64,24
2,74,64,192
2,83,64,24
2,81,64,24
2,71,64,0
2,79,64,24
2,79,64,24
2,72,64,0
2,74,64,24
2,74,64,24
2,74,64,24
2,74,64,24
2,71,64,0
2,66,64,0
2,74,64,24
2,74,64,24
2,74,64,24
2,74,64,24
2,72,64,0
2,67,64,0
2,74,64,24
2,74,64,24
2,74,64,24
2,74,64,24
2,71,64,0
2,66,64,0
2,74,64,24
2,74,64,24
2,74,64,24
2,74,64,24
2,72,64,0
2,67,64,0
2,74,64,24
2,74,64,0
2,74,64,24
2,74,64,24
2,71,64,0
2,66,64,0
2,74,64,24
2,74,64,24
2,74,64,24
2,74,64,24
2,74,64,24
2,74,64,24
2,74,64,24
2,74,64,24
2,72,64,0
2,67,64,0
2,74,64,24
2,74,64,24
2,74,64,24
2,74,64,24
2,74,64,24
2,74,64,24
2,74,64,24
2,71,64,0
2,66,64,0
2,74,64,24
2,74,64,24
2,74,64,24
2,74,64,24
2,72,64,0
2,67,64,0
2,74,64,24
2,74,64,24
2,74,64,24
2,83,64,24
2,71,64,0
2,83,64,24
2,81,64,24
2,79,64,24
2,86,64,24
2,78,64,0
2,72,64,0
2,84,64,24
2,83,64,24
2,79,64,24
2,71,64,0
2,74,64,24
2,74,64,24
2,74,64,24
2,72,64,24
2,72,64,24
2,71,64,24
2,79,64,24
2,79,64,24
2,71,64,0
2,74,64,24
2,74,64,24
2,72,64,24
2,72,64,24
2,67,64,0
2,72,64,24
2,67,64,0
2,71,64,96
2,71,64,24
2,72,64,24
2,67,64,0
2,72,64,24
2,72,64,24
2,74,64,24
2,71,64,24
2,67,64,0
2,71,64,24
2,67,64,24
2,67,64,24
2,67,64,24
2,67,64,24
2,71,64,24
2,71,64,24
2,72,64,24
2,67,64,0
2,72,64,24
2,72,64,24
2,74,64,24
2,71,64,24
2,67,64,0
2,71,64,24
2,67,64,24
2,67,64,24
2,67,64,24
2,67,64,24
2,71,64,24
2,71,64,24
2,72,64,24
2,67,64,0
2,72,64,24
2,72,64,24
2,74,64,24
2,71,64,24
2,67,64,0
2,71,64,24
2,67,64,24
2,67,64,24
2,67,64,24
2,67,64,24
2,71,64,24
2,71,64,24
2,72,64,24
2,67,64,0
2,72,64,24
2,72,64,24
2,74,64,24
2,74,64,24
2,72,64,0
2,74,64,24
2,79,64,24
2,81,64,24
2,83,64,24
2,74,64,0
2,86,64,24
2,83,64,24
2,81,64,24
2,79,64,24
2,72,64,24
2,74,64,192
2,83,64,24
2,81,64,24
2,71,64,0
2,79,64,24
2,79,64,24
2,72,64,0
2,74,64,24
2,74,64,24
2,74,64,24
2,74,64,24
2,71,64,0
2,66,64,0
2,74,64,24
2,74,64,24
2,74,64,24
2,74,64,24
2,72,64,0
2,67,64,0
2,74,64,24
2,74,64,24
2,74,64,24
2,74,64,24
2,71,64,0
2,66,64,0
2,74,64,24
2,74,64,24
2,74,64,24
2,74,64,24
2,72,64,0
2,67,64,0
2,74,64,24
2,79,64,48
2,81,64,24
2,83,64,24
2,74,64,0
2,86,64,24
2,83,64,24
2,81,64,24
2,79,64,24
2,72,64,24
2,74,64,192
2,83,64,24
2,81,64,24
2,71,64,0
2,79,64,24
2,79,64,24
2,72,64,0
2,74,64,24
2,74,64,24
2,74,64,24
2,74,64,24
2,71,64,0
2,66,64,0
2,74,64,24
2,74,64,24
2,74,64,24
2,74,64,24
2,72,64,0
2,67,64,0
2,74,64,24
2,74,64,24
2,74,64,24
2,74,64,24
2,71,64,0
2,66,64,0
2,74,64,24
2,74,64,24
2,74,64,24
2,74,64,24
2,72,64,0
2,67,64,0
2,74,64,24
2,79,64,48
2,81,64,24
2,83,64,24
2,74,64,0
2,86,64,24
2,83,64,24
2,81,64,24
2,79,64,24
2,72,64,24
2,74,64,192
2,83,64,24
2,81,64,24
2,71,64,0
2,79,64,24
2,79,64,24
2,72,64,0
2,74,64,24
2,74,64,24
2,74,64,24
2,74,64,24
2,71,64,0
2,66,64,0
2,74,64,24
2,74,64,24
2,74,64,24
2,74,64,24
2,72,64,0
2,67,64,0
2,74,64,24
2,74,64,24
2,74,64,24
2,74,64,24
2,71,64,0
2,66,64,0
2,74,64,24
2,74,64,24
2,74,64,24
2,74,64,24
2,72,64,0
2,67,64,0
2,74,64,24
3,43,64,192
3,43,64,36
3,43,64,12
3,43,64,36
3,43,64,24
3,43,64,12
3,43,64,36
3,43,64,12
3,50,64,0
3,38,64,36
3,50,64,0
3,43,64,12
3,54,64,0
3,43,64,36
3,55,64,0
3,43,64,12
3,54,64,0
3,43,64,36
3,52,64,0
3,43,64,36
3,52,64,0
3,43,64,24
3,52,64,0
3,43,64,36
3,50,64,0
3,43,64,24
3,52,64,0
3,43,64,12
3,50,64,0
3,50,64,24
3,43,64,0
3,43,64,24
3,52,64,0
3,43,64,24
3,50,64,0
3,50,64,24
3,43,64,0
3,43,64,24
3,52,64,0
3,43,64,24
3,50,64,0
3,43,64,24
3,50,64,0
3,43,64,24
3,52,64,0
3,45,64,36
3,54,64,0
3,60,64,24
3,50,64,0
3,43,64,12
3,47,64,0
3,43,64,24
3,52,64,0
3,57,64,0
3,43,64,24
3,52,64,0
3,57,64,0
3,43,64,24
3,54,64,0
3,43,64,24
3,54,64,0
3,43,64,24
3,55,64,0
3,43,64,24
3,43,64,24
3,43,64,24
3,43,64,216
3,43,64,36
3,43,64,12
3,43,64,36
3,43,64,24
3,43,64,12
3,43,64,36
3,43,64,12
3,50,64,0
3,38,64,36
3,50,64,0
3,43,64,12
3,54,64,0
3,43,64,36
3,55,64,0
3,43,64,12
3,54,64,0
3,43,64,36
3,52,64,0
3,43,64,36
3,52,64,0
3,43,64,24
3,52,64,0
3,43,64,36
3,50,64,0
3,43,64,24
3,52,64,0
3,43,64,12
3,50,64,0
3,50,64,24
3,43,64,0
3,43,64,24
3,52,64,0
3,43,64,24
3,50,64,0
3,50,64,24
3,43,64,0
3,43,64,24
3,52,64,0
3,43,64,24
3,50,64,0
3,43,64,24
3,50,64,0
3,43,64,24
3,52,64,0
3,45,64,36
3,54,64,0
3,60,64,24
3,50,64,0
3,43,64,12
3,47,64,0
3,43,64,24
3,52,64,0
3,57,64,0
3,43,64,24
3,52,64,0
3,57,64,0
3,43,64,24
3,54,64,0
3,43,64,24
3,54,64,0
3,43,64,24
3,55,64,0
3,43,64,24
3,43,64,24
3,43,64,24
3,43,64,216
3,43,64,36
3,43,64,12
3,43,64,36
3,43,64,24
3,43,64,12
3,43,64,36
3,43,64,12
3,50,64,0
3,38,64,36
3,50,64,0
3,43,64,12
3,54,64,0
3,43,64,36
3,55,64,0
3,43,64,12
3,54,64,0
3,43,64,36
3,52,64,0
3,43,64,36
3,52,64,0
3,43,64,24
3,52,64,0
3,43,64,36
3,50,64,0
3,43,64,24
3,52,64,0
3,43,64,12
3,50,64,0
3,50,64,24
3,43,64,0
3,43,64,24
3,52,64,0
3,43,64,24
3,50,64,0
3,50,64,24
3,43,64,0
3,43,64,24
3,52,64,0
3,43,64,24
3,50,64,0
3,43,64,24
3,50,64,0
3,43,64,24
3,52,64,0
3,45,64,36
3,54,64,0
3,60,64,24
3,50,64,0
3,43,64,12
3,47,64,0
3,43,64,24
3,52,64,0
3,57,64,0
3,43,64,24
3,52,64,0
3,57,64,0
3,43,64,24
3,54,64,0
3,43,64,24
3,54,64,0
3,43,64,24
3,55,64,0
3,43,64,24
3,43,64,24
3,43,64,24
3,60,64,36
3,50,64,0
3,43,64,12
3,47,64,0
3,43,64,24
3,52,64,0
3,57,64,0
3,43,64,24
3,52,64,0
3,57,64,0
3,43,64,24
3,54,64,0
3,43,64,24
3,54,64,0
3,43,64,24
3,55,64,0
3,43,64,24
3,43,64,24
3,43,64,24
3,60,64,36
3,50,64,0
3,43,64,12
3,47,64,0
3,43,64,24
3,52,64,0
3,57,64,0
3,43,64,24
3,52,64,0
3,57,64,0
3,43,64,24
3,54,64,0
3,43,64,24
3,54,64,0
3,43,64,24
3,55,64,0
3,43,64,24
3,43,64,24
3,43,64,24
4,74,64,0
4,74,64,24
4,74,64,24
4,74,64,24
4,74,64,24
4,74,64,24
4,74,64,24
4,74,64,24
4,74,64,24
4,74,64,24
4,74,64,24
4,74,64,24
4,74,64,24
4,74,64,24
4,74,64,24
4,74,64,72
4,74,64,24
4,74,64,24
4,74,64,24
4,74,64,24
4,74,64,24
4,74,64,24
4,74,64,24
4,74,64,24
4,74,64,24
4,83,64,36
4,83,64,24
4,81,64,24
4,79,64,24
4,86,64,24
4,84,64,24
4,83,64,24
4,79,64,24
4,74,64,24
4,74,64,24
4,74,64,24
4,72,64,24
4,72,64,24
4,71,64,96
4,79,64,24
4,79,64,24
4,74,64,24
4,74,64,24
4,72,64,24
4,72,64,24
4,67,64,0
4,72,64,24
4,71,64,96
4,71,64,24
4,72,64,24
4,72,64,24
4,72,64,24
4,74,64,24
4,71,64,24
4,71,64,24
4,71,64,72
4,71,64,24
4,72,64,24
4,72,64,24
4,72,64,24
4,74,64,24
4,71,64,24
4,71,64,24
4,71,64,72
4,71,64,24
4,72,64,24
4,72,64,24
4,72,64,24
4,74,64,24
4,71,64,24
4,71,64,24
4,71,64,72
4,71,64,24
4,72,64,24
4,72,64,24
4,72,64,24
4,74,64,24
4,74,64,24
4,74,64,24
4,79,64,72
4,81,64,24
4,83,64,24
4,86,64,24
4,83,64,24
4,81,64,24
4,79,64,24
4,72,64,24
4,74,64,24
