track,note,velocity,time
0,58,97,237
0,62,97,0
0,54,59,0
0,67,32,2
0,74,88,0
0,79,86,0
0,58,99,24
0,62,95,0
0,69,72,0
0,58,108,36
0,62,110,0
0,54,45,0
0,74,69,1
0,79,80,0
0,57,103,28
0,60,112,0
0,69,53,0
0,54,62,35
0,74,65,1
0,79,68,0
0,55,95,33
0,58,105,0
0,69,54,0
0,54,68,32
0,74,78,1
0,79,80,0
0,55,97,28
0,58,115,0
0,69,55,0
0,54,80,1
0,62,32,0
0,72,69,0
0,77,74,0
0,57,95,17
0,60,103,0
0,69,64,0
0,72,52,1
0,57,110,36
0,60,110,0
0,54,66,0
0,72,86,1
0,77,78,0
0,53,112,26
0,57,117,0
0,69,53,0
0,54,78,47
0,67,32,1
0,74,76,0
0,79,62,0
0,55,92,26
0,58,108,0
0,69,72,0
0,54,78,47
0,74,86,1
0,79,82,0
0,69,63,29
0,58,108,36
0,62,105,0
0,54,87,0
0,67,37,1
0,74,80,0
0,79,84,0
0,58,97,25
0,62,108,0
0,69,70,0
0,58,95,35
0,62,105,0
0,54,82,0
0,74,86,1
0,79,80,0
0,57,110,29
0,60,115,0
0,69,68,0
0,54,80,33
0,74,58,1
0,79,68,0
0,55,99,31
0,58,110,0
0,69,66,0
0,54,80,31
0,74,90,1
0,79,86,0
0,55,110,30
0,58,117,0
0,69,66,0
0,54,80,2
0,62,51,1
0,72,80,0
0,77,69,0
0,57,99,24
0,60,105,0
0,69,70,0
0,57,110,37
0,60,115,0
0,54,85,0
0,72,92,1
0,77,82,0
0,53,95,30
0,57,108,0
0,69,72,0
0,54,87,4
0,55,49,1
0,74,82,0
0,79,80,0
0,55,99,27
0,58,112,0
0,69,68,0
0,54,87,47
0,48,90,1
0,74,95,0
0,79,88,0
0,46,85,5
0,43,85,2
0,69,70,1
0,39,85,11
0,38,85,2
0,58,95,11
0,62,108,0
0,36,85,0
0,54,59,0
0,67,53,1
0,74,84,0
0,79,84,0
0,55,75,0
0,27,104,6
0,58,95,28
0,62,95,0
0,69,72,0
0,79,58,1
0,53,93,0
0,58,101,0
0,58,108,22
0,62,112,0
0,54,45,0
0,74,78,1
0,79,80,0
0,55,91,0
0,53,105,7
0,58,108,0
0,57,108,8
0,60,112,0
0,69,53,0
0,27,98,1
0,36,89,18
0,54,62,0
0,74,86,1
0,79,82,0
0,53,89,0
0,58,95,0
0,27,101,1
0,55,99,32
0,58,110,0
0,69,54,0
0,53,93,11
0,58,103,0
0,54,68,10
0,74,92,1
0,79,92,0
0,55,110,5
0,58,115,0
0,69,55,0
0,63,54,1
0,53,71,0
0,58,89,0
0,58,91,16
0,26,87,1
0,36,91,1
0,54,80,0
0,62,80,1
0,72,97,0
0,77,76,0
0,55,87,0
0,57,103,18
0,60,105,0
0,69,64,0
0,53,105,1
0,58,101,0
0,57,110,29
0,60,115,0
0,54,66,0
0,72,95,1
0,77,88,0
0,53,101,7
0,58,99,0
0,26,90,9
0,53,103,0
0,57,115,0
0,69,53,0
0,55,86,1
0,36,100,8
0,54,78,0
0,67,82,1
0,74,82,0
0,79,92,0
0,53,99,0
0,58,85,0
0,62,112,0
0,31,92,1
0,55,105,9
0,58,117,0
0,69,72,0
0,53,110,25
0,62,116,0
0,54,78,7
0,38,119,0
0,61,127,0
0,74,97,0
0,79,97,0
0,61,127,0
0,55,127,0
0,61,127,5
0,61,127,0
0,38,105,0
0,69,63,21
0,60,127,1
0,60,127,0
0,38,66,0
0,53,116,0
0,60,127,0
0,38,87,1
0,58,127,1
0,58,127,0
0,36,85,1
0,42,100,0
0,60,127,1
0,63,101,0
0,68,108,0
0,70,101,0
0,60,127,0
0,63,101,0
0,68,108,0
0,70,101,0
0,49,105,3
0,34,101,0
0,58,127,0
0,58,127,0
0,34,98,22
0,56,105,0
0,42,76,0
0,44,92,3
0,40,116,0
0,42,107,0
0,73,127,1
0,73,127,0
0,56,105,10
0,73,110,2
0,73,110,0
0,46,95,9
0,42,59,2
0,72,126,1
0,72,126,0
0,70,108,1
0,70,108,0
0,56,108,9
0,36,89,0
0,42,102,0
0,72,127,1
0,72,127,0
0,34,83,0
0,70,127,0
0,70,127,0
0,34,98,21
0,42,66,1
0,56,108,23
0,44,104,1
0,40,122,2
0,42,93,0
0,46,90,45
0,56,103,2
0,42,64,0
0,56,90,11
0,36,91,9
0,42,105,0
0,34,95,1
0,34,85,27
0,56,112,2
0,42,62,0
0,44,107,14
0,40,127,2
0,42,105,0
0,56,103,23
0,46,85,6
0,42,85,3
0,56,112,3
0,36,100,0
0,42,102,0
0,34,83,0
0,56,61,5
0,34,92,17
0,42,85,0
0,56,103,23
0,44,104,1
0,40,122,0
0,42,98,0
0,46,85,46
0,56,112,1
0,42,72,0
0,56,66,2
0,36,85,5
0,42,100,0
0,34,92,1
0,67,95,0
0,68,85,0
0,70,78,0
0,77,121,0
0,82,121,0
0,67,95,0
0,68,85,0
0,70,78,0
0,77,121,0
0,82,121,0
0,34,85,28
0,56,112,0
0,42,72,0
0,44,107,5
0,40,122,3
0,42,107,0
0,56,110,23
0,46,87,5
0,42,78,2
0,56,112,1
0,36,89,0
0,42,95,0
0,34,90,0
0,58,88,3
0,34,90,9
0,42,78,0
0,58,105,23
0,44,107,6
0,40,119,0
0,42,107,0
0,46,85,43
0,56,115,4
0,42,63,0
0,34,95,2
0,36,91,0
0,42,100,0
0,34,95,26
0,56,88,1
0,42,68,0
0,44,104,3
0,40,127,2
0,42,102,0
0,56,103,23
0,46,92,4
0,42,76,3
0,34,112,10
0,56,110,0
0,36,100,0
0,42,113,0
0,58,127,1
0,67,121,0
0,68,126,0
0,70,127,0
0,77,112,0
0,82,119,0
0,58,127,0
0,67,121,0
0,68,126,0
0,70,127,0
0,77,112,0
0,82,119,0
0,67,98,22
0,70,91,10
0,72,91,11
0,39,90,4
0,62,103,0
0,36,82,0
0,42,100,0
0,56,115,0
0,51,66,1
0,62,82,0
0,65,89,0
0,67,68,0
0,70,82,0
0,74,98,0
0,39,90,4
0,62,88,0
0,36,89,0
0,42,76,0
0,74,98,1
0,40,116,24
0,42,107,0
0,56,115,0
0,38,90,42
0,60,95,0
0,36,70,0
0,42,59,0
0,50,80,1
0,60,80,0
0,64,82,0
0,65,68,0
0,69,89,0
0,42,102,30
0,56,115,0
0,36,90,6
0,58,95,0
0,36,68,0
0,42,66,0
0,70,91,1
0,40,122,24
0,42,93,0
0,56,109,0
0,72,66,1
0,58,92,25
0,42,64,0
0,41,74,1
0,53,80,0
0,55,82,0
0,57,70,0
0,60,87,0
0,74,98,0
0,34,87,23
0,60,95,0
0,36,82,0
0,42,105,0
0,56,115,0
0,34,92,0
0,60,97,0
0,36,68,0
0,42,62,0
0,77,66,0
0,29,92,2
0,60,97,0
0,40,127,0
0,42,105,0
0,56,112,0
0,79,75,1
0,57,101,20
0,36,70,0
0,42,85,0
0,43,66,1
0,53,87,0
0,57,85,0
0,58,76,0
0,62,87,0
0,72,91,0
0,31,92,21
0,42,102,0
0,56,109,0
0,58,108,7
0,42,85,0
0,31,87,18
0,40,122,0
0,42,98,0
0,56,112,0
0,74,98,1
0,34,65,28
0,57,69,0
0,42,72,0
0,74,98,1
0,39,87,18
0,62,95,0
0,36,68,0
0,42,100,0
0,56,115,0
0,74,98,1
0,39,87,26
0,62,95,0
0,36,66,0
0,42,72,0
0,51,62,1
0,62,46,0
0,67,51,0
0,70,78,0
0,62,95,30
0,40,122,0
0,42,107,0
0,56,103,0
0,38,90,35
0,60,73,0
0,36,59,0
0,42,78,0
0,50,64,1
0,60,53,0
0,64,68,0
0,65,55,0
0,69,74,0
0,42,95,1
0,56,112,0
0,36,98,6
0,58,82,0
0,36,76,0
0,42,78,0
0,70,91,1
0,40,119,0
0,42,107,0
0,56,120,0
0,72,86,1
0,58,88,22
0,42,63,0
0,74,98,1
0,34,85,35
0,60,92,0
0,36,80,0
0,42,100,0
0,56,112,0
0,41,66,1
0,53,64,0
0,55,68,0
0,57,57,0
0,60,87,0
0,34,90,23
0,60,101,0
0,36,70,0
0,42,76,0
0,77,75,1
0,29,95,2
0,60,112,0
0,40,116,0
0,42,107,0
0,56,112,0
0,79,86,1
0,36,80,13
0,42,59,0
0,43,37,1
0,53,47,0
0,57,89,0
0,58,68,0
0,62,82,0
0,72,75,0
0,31,92,1
0,57,99,0
0,42,102,0
0,56,109,0
0,42,66,29
0,43,62,1
0,53,74,0
0,57,54,0
0,58,64,0
0,62,82,0
0,31,90,1
0,58,95,0
0,40,122,0
0,42,93,0
0,56,109,0
0,74,75,1
0,34,67,0
0,57,67,0
0,42,64,0
0,74,86,1
0,39,87,18
0,62,110,0
0,36,78,0
0,42,105,0
0,56,115,0
0,74,98,1
0,39,87,7
0,62,103,0
0,36,68,0
0,42,62,0
0,51,64,1
0,62,53,0
0,65,48,0
0,67,52,0
0,70,78,0
0,74,80,0
0,39,87,21
0,62,80,0
0,40,127,0
0,42,105,0
0,56,115,0
0,38,76,3
0,60,97,0
0,36,72,0
0,42,85,0
0,50,57,1
0,60,55,0
0,64,72,0
0,65,59,0
0,69,85,0
0,42,102,10
0,56,106,0
0,36,90,42
0,58,92,0
0,36,80,0
0,42,85,0
0,70,91,1
0,40,122,0
0,42,98,0
0,56,112,0
0,72,91,1
0,58,92,21
0,42,72,0
0,74,104,1
0,38,87,37
0,60,99,0
0,36,76,0
0,42,100,0
0,56,109,0
0,41,62,1
0,53,60,0
0,55,62,0
0,57,59,0
0,60,85,0
0,38,80,20
0,60,92,0
0,36,68,0
0,42,72,0
0,77,98,1
0,41,90,7
0,60,110,0
0,40,122,0
0,42,107,0
0,56,115,0
0,79,86,1
0,57,99,17
0,36,82,0
0,42,78,0
0,43,58,1
0,53,58,0
0,57,66,0
0,58,63,0
0,62,68,0
0,72,86,0
0,43,92,38
0,42,95,0
0,56,115,0
0,58,105,8
0,42,78,0
0,40,119,0
0,42,107,0
0,56,112,0
0,70,98,1
0,42,63,11
0,46,68,1
0,56,63,0
0,60,87,0
0,63,80,0
0,72,91,0
0,34,70,18
0,46,86,0
0,36,80,0
0,42,100,0
0,56,112,0
0,51,91,1
0,63,102,0
0,51,91,0
0,63,102,0
0,34,90,26
0,46,97,0
0,36,63,0
0,42,76,0
0,70,75,0
0,44,92,1
0,56,92,0
0,40,116,0
0,42,107,0
0,56,112,0
0,46,85,0
0,58,92,0
0,36,68,0
0,42,59,0
0,34,83,0
0,46,76,0
0,42,102,0
0,56,115,0
0,67,98,1
0,67,98,0
0,34,85,27
0,46,76,0
0,42,66,0
0,44,90,6
0,56,105,0
0,40,122,0
0,42,93,0
0,56,112,0
0,46,87,47
0,58,84,0
0,42,64,0
0,34,92,25
0,46,97,0
0,36,63,0
0,42,105,0
0,56,103,0
0,70,110,1
0,70,110,0
0,34,83,6
0,46,82,0
0,36,70,0
0,42,62,0
0,56,74,1
0,60,78,0
0,63,85,0
0,44,90,3
0,56,99,0
0,40,127,0
0,42,105,0
0,56,103,0
0,56,66,23
0,60,61,0
0,63,93,0
0,46,87,10
0,58,80,0
0,36,64,0
0,42,85,0
0,46,98,1
0,34,104,4
0,46,73,0
0,36,70,0
0,42,102,0
0,56,115,0
0,56,102,1
0,60,102,0
0,63,107,0
0,75,107,0
0,75,107,0
0,36,105,1
0,42,85,0
0,74,98,1
0,36,98,18
0,40,80,17
0,34,104,3
0,40,122,0
0,42,98,0
0,72,86,1
0,70,113,0
0,82,113,0
0,70,113,0
0,82,113,0
0,70,91,4
0,39,95,2
0,62,110,0
0,36,62,0
0,42,100,0
0,49,94,0
0,56,115,0
0,51,57,1
0,62,72,0
0,65,70,0
0,67,64,0
0,70,78,0
0,74,91,0
0,39,87,25
0,62,95,0
0,36,66,0
0,42,72,0
0,74,104,1
0,62,99,12
0,40,122,0
0,42,107,0
0,56,115,0
0,38,85,3
0,60,95,0
0,36,68,0
0,42,78,0
0,50,68,1
0,60,72,0
0,64,68,0
0,65,54,0
0,69,80,0
0,42,95,6
0,56,115,0
0,36,87,47
0,58,110,0
0,36,72,0
0,42,78,0
0,70,111,1
0,40,119,1
0,42,107,0
0,56,109,0
0,72,75,1
0,58,95,26
0,42,63,0
0,74,104,1
0,34,78,37
0,60,99,0
0,36,68,0
0,42,100,0
0,56,115,0
0,34,92,17
0,60,97,0
0,36,72,0
0,42,76,0
0,41,58,1
0,53,56,0
0,55,66,0
0,60,82,0
0,77,104,0
0,29,90,1
0,60,110,0
0,40,116,0
0,42,107,0
0,56,112,0
0,79,86,1
0,57,103,21
0,36,78,0
0,42,59,0
0,43,55,1
0,53,68,0
0,57,68,0
0,58,60,0
0,62,74,0
0,72,86,0
0,31,90,3
0,42,102,0
0,56,109,0
0,58,103,9
0,42,66,0
0,31,83,28
0,40,122,0
0,42,93,0
0,56,112,0
0,74,86,1
0,34,72,22
0,57,70,0
0,42,64,0
0,74,98,1
0,58,92,13
0,75,66,1
0,39,87,3
0,62,84,0
0,36,68,0
0,42,105,0
0,56,115,0
0,39,87,26
0,62,101,0
0,36,66,0
0,42,62,0
0,51,63,1
0,62,51,0
0,70,80,0
0,74,98,0
0,62,99,11
0,40,127,0
0,42,105,0
0,56,103,0
0,38,90,35
0,60,103,0
0,36,78,0
0,42,85,0
0,42,102,7
0,56,112,0
0,50,61,1
0,60,43,0
0,64,70,0
0,65,60,0
0,69,80,0
0,36,87,46
0,58,101,0
0,36,72,0
0,42,85,0
0,70,91,1
0,40,122,2
0,42,98,0
0,56,120,0
0,50,47,1
0,60,78,0
0,64,72,0
0,65,52,0
0,69,87,0
0,72,66,0
0,58,97,19
0,42,72,0
0,74,111,1
0,34,83,36
0,60,92,0
0,36,61,0
0,42,100,0
0,56,112,0
0,34,90,23
0,60,103,0
0,36,72,0
0,42,72,0
0,53,68,1
0,55,85,0
0,57,58,0
0,60,87,0
0,77,91,0
0,29,90,7
0,60,115,0
0,40,122,0
0,42,107,0
0,56,112,0
0,79,91,1
0,57,99,3
0,36,80,17
0,42,78,0
0,43,60,1
0,53,76,0
0,57,78,0
0,58,70,0
0,62,87,0
0,72,91,0
0,31,87,5
0,42,95,0
0,56,109,0
0,58,95,5
0,42,78,0
0,31,85,10
0,40,119,0
0,42,107,0
0,56,109,0
0,74,111,1
0,34,57,26
0,57,66,0
0,42,63,0
0,74,91,1
0,39,87,19
0,62,74,0
0,64,67,0
0,36,72,0
0,42,100,0
0,56,115,0
0,51,64,1
0,62,57,0
0,65,63,0
0,67,68,0
0,70,70,0
0,74,91,0
0,39,83,25
0,62,105,0
0,36,76,0
0,42,76,0
0,39,90,3
0,62,103,0
0,40,116,0
0,42,107,0
0,56,115,0
0,38,78,5
0,60,97,0
0,36,82,0
0,42,59,0
0,50,78,1
0,60,70,0
0,64,72,0
0,65,57,0
0,69,82,0
0,42,102,11
0,56,106,0
0,60,10,1
0,36,83,42
0,58,95,0
0,36,80,0
0,42,66,0
0,70,91,0
0,40,122,8
0,42,93,0
0,56,112,0
0,72,86,0
0,58,84,21
0,42,64,0
0,41,63,1
0,53,64,0
0,55,66,0
0,57,61,0
0,60,78,0
0,74,111,0
0,38,90,2
0,60,99,0
0,36,80,0
0,42,105,0
0,56,109,0
0,38,72,0
0,60,99,0
0,36,78,0
0,42,62,0
0,53,30,1
0,77,98,0
0,41,90,3
0,60,105,0
0,40,127,0
0,42,105,0
0,56,115,0
0,79,91,1
0,57,110,12
0,36,85,0
0,42,85,0
0,43,63,1
0,53,76,0
0,57,82,0
0,58,70,0
0,62,82,0
0,72,98,0
0,43,92,0
0,42,102,0
0,56,115,0
0,58,110,1
0,42,85,0
0,41,85,12
0,40,122,0
0,42,98,0
0,56,112,0
0,70,98,1
0,42,72,10
0,72,91,1
0,34,83,14
0,46,108,0
0,36,80,0
0,42,100,0
0,56,112,0
0,46,78,1
0,56,76,0
0,60,98,0
0,63,82,0
0,34,67,29
0,46,76,0
0,36,68,0
0,42,72,0
0,70,80,1
