track,note,velocity,time
1,68,54,2660
1,65,70,0
1,61,60,0
1,77,70,0
1,63,61,0
1,73,55,192
1,77,65,4
1,72,55,200
1,77,58,4
1,73,54,4
1,77,66,8
1,72,54,8
1,77,63,8
1,73,55,16
1,68,68,24
1,78,68,0
1,66,68,0
1,59,68,0
1,63,68,4
1,73,53,188
1,78,61,8
1,71,57,192
1,78,68,4
1,73,53,8
1,78,54,4
1,71,59,80
1,78,58,8
1,73,54,8
1,58,68,24
1,66,65,0
1,68,61,0
1,78,65,0
1,75,70,0
1,63,57,0
1,73,58,188
1,75,64,8
1,78,52,0
1,70,58,196
1,75,63,8
1,78,49,0
1,73,57,4
1,78,54,4
1,75,60,4
1,70,56,32
1,75,59,4
1,78,50,0
1,73,57,32
1,78,67,24
1,57,67,0
1,75,67,0
1,66,67,0
1,68,67,0
1,63,67,4
1,73,50,180
1,78,62,4
1,75,66,0
1,69,59,192
1,78,59,8
1,75,65,0
1,73,53,8
1,75,65,4
1,78,60,0
1,69,61,8
1,78,57,4
1,75,58,4
1,73,55,4
1,75,55,0
1,72,77,4
1,68,58,0
1,65,68,4
1,72,62,48
1,68,52,4
1,61,66,100
1,75,37,56
1,68,54,4
1,65,54,0
1,72,69,0
1,68,54,84
1,65,54,0
1,72,64,4
1,75,33,4
1,61,61,136
1,75,57,52
1,72,71,0
1,68,58,0
1,65,65,4
1,61,53,188
1,75,48,40
1,68,56,4
1,65,53,0
1,72,69,0
1,72,66,124
1,75,48,0
1,68,55,0
1,65,57,0
1,61,52,144
1,71,73,72
1,65,63,0
1,68,57,0
1,75,52,4
1,68,54,36
1,71,69,0
1,61,53,8
1,75,54,52
1,68,58,4
1,71,77,0
1,65,63,0
1,71,68,100
1,65,59,0
1,68,47,0
1,75,54,0
1,61,46,144
1,75,55,60
1,68,52,0
1,65,57,0
1,71,53,4
1,75,70,60
1,71,70,0
1,68,70,0
1,65,70,4
1,61,55,192
1,75,59,72
1,68,55,0
1,71,75,0
1,65,62,0
1,61,55,112
1,73,59,48
1,66,57,4
1,70,65,0
1,75,58,0
1,70,60,36
1,61,55,0
1,73,57,64
1,75,53,0
1,70,61,4
1,66,59,0
1,70,57,144
1,73,57,0
1,66,59,0
1,61,53,156
1,73,60,68
1,70,75,0
1,66,63,0
1,75,47,8
1,75,44,20
1,70,48,0
1,61,54,0
1,73,57,60
1,70,56,0
1,66,57,0
1,75,62,0
1,70,55,124
1,73,58,0
1,66,59,0
1,75,53,4
1,61,53,140
1,73,58,60
1,75,59,0
1,69,75,4
1,66,56,4
1,73,53,20
1,69,64,0
1,75,54,4
1,61,56,8
1,73,52,52
1,75,57,4
1,69,71,0
1,66,57,0
1,73,57,104
1,69,68,0
1,75,54,4
1,66,57,0
1,61,54,152
1,75,62,56
1,73,61,0
1,69,69,0
1,66,61,4
1,61,59,28
1,64,77,16
1,61,68,4
1,57,67,4
1,54,61,0
1,63,56,132
1,56,71,0
1,53,69,0
1,60,68,0
1,56,41,32
1,60,65,0
1,63,52,52
1,56,61,0
1,60,67,4
1,53,57,0
1,49,53,28
1,53,53,72
1,56,59,0
1,63,47,0
1,60,69,0
1,49,47,124
1,63,58,52
1,56,64,0
1,53,61,0
1,60,69,0
1,49,53,192
1,63,54,16
1,53,55,4
1,56,64,0
1,60,71,0
1,63,52,104
1,56,62,4
1,60,70,0
1,53,61,0
1,49,48,32
1,63,73,28
1,59,73,0
1,56,73,0
1,53,73,0
1,56,53,32
1,59,71,0
1,63,40,4
1,49,47,4
1,63,62,8
1,53,68,4
1,59,84,0
1,56,66,0
1,59,71,92
1,53,65,0
1,63,54,0
1,56,57,0
1,49,52,104
1,56,66,56
1,59,80,0
1,53,71,0
1,63,62,0
1,59,63,48
1,56,53,0
1,53,54,0
1,63,47,0
1,56,55,128
1,59,69,0
1,53,54,4
1,63,53,0
1,49,52,28
1,61,70,36
1,58,58,0
1,54,56,0
1,63,59,0
1,61,52,24
1,58,61,0
1,63,60,0
1,49,55,16
1,61,68,88
1,63,61,4
1,58,69,0
1,54,60,0
1,61,66,104
1,58,64,0
1,54,57,4
1,63,60,0
1,49,55,132
1,63,70,52
1,61,68,0
1,58,70,0
1,54,64,0
1,61,54,48
1,58,68,4
1,54,59,0
1,63,58,4
1,49,57,8
1,61,61,72
1,58,61,0
1,63,60,0
1,54,57,8
1,49,57,52
1,61,62,48
1,54,57,4
1,57,75,0
1,63,56,0
1,61,43,16
1,63,54,0
1,57,68,0
1,49,54,96
1,63,64,44
1,57,79,0
1,61,66,0
1,54,58,0
1,63,61,116
1,57,71,0
1,61,60,0
1,54,59,4
1,49,70,48
1,63,61,52
1,57,68,4
1,61,59,0
1,54,54,4
1,63,66,108
1,57,77,0
1,61,63,0
1,54,59,4
1,49,49,56
1,64,77,64
1,61,59,0
1,57,79,0
1,54,58,4
1,65,63,32
1,56,61,0
1,60,77,4
1,63,68,0
1,60,67,20
1,56,50,4
1,65,54,0
1,63,57,4
1,49,48,8
1,60,80,64
1,65,64,0
1,56,62,4
1,63,70,4
1,60,68,48
1,63,62,0
1,65,66,0
1,56,61,0
1,49,50,16
1,49,60,68
1,63,62,88
1,53,67,0
1,56,68,4
1,60,68,4
1,63,59,84
1,56,66,0
1,53,61,4
1,60,73,0
1,49,77,192
1,63,56,64
1,56,66,0
1,53,61,0
1,60,70,0
1,49,50,0
1,49,53,64
1,63,62,84
1,56,68,0
1,53,68,0
1,59,81,4
1,56,57,32
1,53,53,0
1,59,70,0
1,49,56,0
1,63,57,84
1,56,68,0
1,53,67,0
1,59,80,0
1,63,58,0
1,53,63,4
1,56,65,0
1,59,81,0
1,49,53,24
1,49,54,60
1,63,61,80
1,56,62,4
1,53,65,0
1,59,81,4
1,53,68,0
1,63,60,0
1,56,67,0
1,59,84,4
1,49,55,200
1,63,52,0
1,56,67,0
1,53,70,0
1,59,84,0
1,49,59,100
1,63,60,92
1,61,67,0
1,54,61,0
1,58,65,0
1,61,59,20
1,58,57,8
1,63,55,0
1,49,63,0
1,63,63,80
1,58,68,0
1,54,59,4
1,61,67,0
1,61,63,36
1,58,66,4
1,54,56,0
1,63,57,0
1,49,6,116
1,63,65,96
1,54,80,0
1,58,89,0
1,61,71,0
1,63,67,120
1,58,68,0
1,61,66,0
1,54,59,0
1,49,84,192
1,63,68,72
1,58,70,4
1,54,60,0
1,61,67,0
1,49,52,88
1,49,55,32
1,63,68,92
1,57,84,4
1,54,59,0
1,61,68,0
1,63,55,36
1,57,68,4
1,61,61,4
1,54,53,0
1,49,73,0
1,63,62,68
1,54,57,4
1,57,77,0
1,61,61,4
1,63,64,88
1,57,80,4
1,61,66,4
1,54,60,0
1,49,57,96
1,63,65,80
1,54,59,4
1,57,79,0
1,61,67,4
1,57,84,104
1,63,68,0
1,54,61,4
1,61,68,4
1,49,81,16
1,64,80,48
1,57,87,0
1,54,68,0
1,61,68,0
1,49,69,92
1,56,66,40
1,65,70,0
1,63,71,4
1,60,81,0
1,63,66,28
1,60,69,0
1,49,81,4
1,65,64,84
1,60,73,0
1,56,60,0
1,63,68,4
1,63,67,60
1,65,65,0
1,60,73,0
1,56,59,4
1,49,60,0
1,49,69,92
1,60,80,44
1,65,69,0
1,56,63,0
1,63,67,0
1,65,63,48
1,60,79,0
1,56,58,4
1,63,68,4
1,49,80,184
1,65,62,12
1,56,63,0
1,63,68,0
1,60,75,0
1,49,49,4
1,49,52,72
1,63,62,28
1,53,71,0
1,59,84,4
1,56,68,0
1,56,55,32
1,59,58,12
1,49,54,0
1,63,58,12
1,56,68,4
1,59,81,0
1,53,67,0
1,49,48,0
1,63,57,48
1,53,68,0
1,56,69,0
1,59,81,0
1,49,53,12
1,49,48,60
1,63,75,88
1,56,84,0
1,53,80,0
1,59,89,0
1,63,62,112
1,56,67,0
1,53,68,0
1,59,81,0
1,49,80,200
1,63,52,0
1,56,68,8
1,53,69,0
1,59,77,0
1,49,46,0
1,49,52,64
1,58,73,16
1,63,65,0
1,54,64,0
1,61,67,0
1,61,62,20
1,58,58,0
1,49,70,8
1,63,61,12
1,58,64,0
1,61,68,0
1,54,60,0
1,49,38,28
1,58,63,72
1,63,59,0
1,61,61,4
1,54,56,0
1,49,58,132
1,63,62,32
1,54,79,0
1,58,80,0
1,61,61,0
1,54,62,100
1,63,63,4
1,58,66,0
1,61,68,0
1,49,71,0
1,54,60,24
1,58,65,0
1,63,62,0
1,61,63,0
1,49,51,4
1,49,68,76
1,63,64,36
1,57,79,0
1,54,62,0
1,61,66,4
1,63,50,24
1,57,73,0
1,54,37,0
1,61,59,0
1,49,81,0
1,63,58,44
1,57,77,0
1,54,55,0
1,61,61,0
1,57,81,112
1,63,61,0
1,54,58,0
1,61,63,0
1,49,29,56
1,49,57,80
1,57,80,32
1,63,68,0
1,54,61,0
1,61,73,0
1,63,63,88
1,57,77,0
1,54,58,0
1,61,69,8
1,49,80,28
1,61,66,56
1,64,77,0
1,57,81,0
1,54,59,0
1,49,53,92
1,49,66,88
1,65,68,56
1,60,77,0
1,56,60,0
1,63,70,0
1,63,64,28
1,60,67,0
1,49,75,0
1,65,64,40
1,60,75,0
1,63,68,0
1,56,63,4
1,63,69,88
1,60,77,0
1,65,65,0
1,56,63,0
1,49,53,96
1,65,63,44
1,60,79,0
1,56,65,0
1,63,68,4
1,65,65,104
1,60,80,0
1,56,66,0
1,63,77,0
1,49,63,192
1,65,63,44
1,56,63,4
1,60,73,0
1,63,71,4
1,49,47,80
1,65,69,40
1,59,89,4
1,56,63,0
1,63,65,0
1,59,67,28
1,49,65,8
1,65,67,16
1,59,84,0
1,63,68,0
1,56,57,4
1,63,63,84
1,59,87,0
1,65,59,0
1,56,56,0
1,49,53,16
1,49,60,80
1,65,66,36
1,59,89,0
1,56,65,0
1,63,69,8
1,65,63,80
1,59,87,0
1,56,62,0
1,63,73,4
1,49,64,188
1,56,61,16
1,65,61,0
1,59,80,0
1,63,68,4
1,49,47,0
1,49,54,76
1,63,65,28
1,58,68,0
1,54,71,4
1,61,65,0
1,61,57,32
1,58,53,0
1,49,70,12
1,63,61,20
1,58,64,8
1,54,58,4
1,61,63,0
1,49,50,4
1,63,62,68
1,58,68,0
1,54,65,0
1,61,69,4
1,49,50,60
1,63,61,24
1,54,77,0
1,58,92,0
1,61,68,0
1,58,63,96
1,54,62,0
1,63,65,0
1,61,69,0
1,49,61,0
1,63,68,20
1,54,65,0
1,58,69,0
1,61,69,0
1,49,58,28
1,63,67,32
1,54,64,4
1,57,84,0
1,61,67,4
1,57,66,32
1,63,52,4
1,49,67,8
1,57,77,16
1,63,63,0
1,54,59,0
1,61,67,0
1,49,54,0
1,63,65,68
1,57,81,0
1,54,60,4
1,61,68,0
1,49,70,120
1,63,64,56
1,57,79,0
1,61,65,0
1,54,61,0
1,63,68,108
1,57,80,4
1,54,58,4
1,61,67,4
1,49,73,20
1,57,81,72
1,64,79,0
1,54,62,0
1,61,68,0
1,49,53,0
1,49,58,80
1,63,68,32
1,65,73,0
1,60,77,8
1,56,62,0
1,60,69,32
1,63,66,0
1,49,70,0
1,60,79,48
1,65,62,0
1,56,64,0
1,63,70,4
1,49,52,16
1,65,60,72
1,60,73,0
1,56,59,8
1,63,61,4
1,49,57,16
1,49,66,84
1,65,64,40
1,63,75,4
1,56,67,0
1,60,79,0
1,60,80,80
1,65,67,0
1,56,63,0
1,63,73,0
1,49,69,0
1,65,64,24
1,63,73,0
1,60,79,0
1,56,64,0
1,49,57,96
1,65,66,40
1,56,63,0
1,59,84,0
1,63,64,0
1,56,52,32
1,59,75,0
1,63,57,0
1,65,61,0
1,49,77,8
1,63,66,40
1,59,77,0
1,56,56,4
1,65,62,4
1,65,68,112
1,59,87,0
1,56,61,0
1,63,63,0
1,49,57,16
1,49,55,76
1,65,63,32
1,56,62,0
1,59,84,0
1,63,66,0
1,65,68,100
1,59,87,0
1,56,63,0
1,63,68,0
1,49,77,0
1,65,60,40
1,56,61,0
1,59,84,0
1,63,66,0
1,49,59,76
1,54,58,44
1,58,70,0
1,63,59,4
1,61,63,4
1,61,41,20
1,58,55,8
1,49,68,4
1,58,62,36
1,63,61,0
1,54,60,0
1,61,63,8
1,63,65,92
1,58,69,0
1,54,61,0
1,61,66,8
1,49,64,96
1,63,65,48
1,54,65,0
1,58,68,0
1,61,67,4
1,58,75,96
1,54,68,0
1,63,61,0
1,61,71,0
1,49,59,0
1,58,68,40
1,63,58,0
1,54,62,0
1,61,68,0
1,49,64,48
1,63,62,60
1,57,80,0
1,54,59,0
1,61,63,4
1,57,67,28
1,63,54,0
1,49,68,0
1,63,62,56
1,57,79,0
1,54,59,0
1,61,68,0
1,49,61,0
1,63,61,64
1,57,79,4
1,54,54,0
1,61,62,0
1,49,58,20
1,49,65,76
1,63,62,64
1,57,80,0
1,54,59,4
1,61,65,0
1,63,64,108
1,57,81,0
1,54,61,0
1,61,67,8
1,49,66,52
1,64,80,64
1,57,81,0
1,54,59,0
1,61,64,0
1,49,73,96
1,63,62,24
1,60,73,4
1,65,73,0
1,56,61,0
1,53,57,0
1,53,53,132
1,65,65,52
1,60,66,0
1,63,57,0
1,56,59,4
1,53,50,16
1,56,55,64
1,60,67,0
1,63,55,0
1,63,77,148
1,65,69,0
1,60,73,0
1,56,64,0
1,53,57,96
1,56,45,16
1,60,54,44
1,65,73,48
1,60,70,0
1,63,62,0
1,56,57,4
1,65,53,28
1,60,68,0
1,63,56,4
1,53,68,0
1,56,52,48
1,65,68,36
1,63,61,0
1,56,62,0
1,59,81,4
1,53,65,0
1,65,70,80
1,59,84,0
1,56,58,4
1,53,53,16
1,63,67,72
1,59,80,4
1,56,55,0
1,53,54,28
1,65,73,80
1,59,84,4
1,56,61,0
1,63,53,0
1,53,54,96
1,56,55,48
1,59,53,56
1,56,59,52
1,59,69,0
1,65,67,0
1,63,69,0
1,59,64,20
1,56,47,0
1,63,61,4
1,53,61,0
1,56,50,52
1,65,70,16
1,61,69,4
1,58,68,0
1,56,57,0
1,53,59,32
1,65,69,64
1,56,55,4
1,58,65,0
1,61,63,4
1,53,52,40
1,63,65,88
1,58,58,4
1,56,52,4
1,53,57,44
1,65,62,64
1,56,58,4
1,61,62,0
1,58,62,4
1,53,55,88
1,56,49,8
1,58,54,92
1,65,71,52
1,58,67,0
1,56,57,0
1,61,64,4
1,58,57,32
1,61,56,4
1,53,61,12
1,56,57,24
1,56,43,24
1,63,71,0
1,53,62,0
1,60,73,0
1,53,54,128
1,63,57,56
1,60,59,0
1,56,52,4
1,60,67,144
1,63,59,0
1,56,48,0
1,63,66,144
1,60,70,0
1,56,55,0
1,53,53,92
1,63,54,28
1,60,58,0
1,56,55,0
1,53,61,0
1,63,63,56
1,60,68,0
1,56,57,0
1,63,62,16
1,60,66,0
1,56,42,0
1,53,57,8
1,63,57,52
1,60,52,4
1,56,52,4
1,65,60,44
1,61,58,4
1,58,64,0
1,56,57,0
1,53,56,0
1,65,66,68
1,58,59,0
1,61,64,4
1,56,56,0
1,63,65,120
1,58,57,0
1,56,53,4
1,53,53,44
1,65,53,60
1,61,61,4
1,58,60,4
1,56,54,0
1,53,53,88
1,56,50,0
1,58,63,60
1,65,68,56
1,58,64,0
1,61,58,0
1,56,49,4
1,56,53,36
1,58,68,0
1,53,63,20
1,56,61,48
1,63,69,28
1,60,81,0
1,56,57,4
1,53,54,0
1,53,63,0
1,60,68,72
1,63,59,0
1,56,55,4
1,60,69,140
1,63,55,4
1,56,52,4
1,63,62,148
1,60,79,0
1,56,59,4
1,53,57,92
1,56,49,4
1,60,61,28
1,60,79,44
1,63,68,0
1,56,59,0
1,63,64,40
1,53,59,4
1,56,55,4
1,56,41,24
1,65,65,0
1,61,63,0
1,58,66,0
1,53,63,12
1,65,68,64
1,58,66,4
1,56,61,0
1,61,61,8
1,65,73,148
1,56,57,0
1,58,65,0
1,61,58,8
1,56,59,144
1,65,68,0
1,61,64,0
1,58,66,0
