track,note,velocity,time
1,38,73,441
1,38,0,25
1,31,82,8
1,31,0,86
1,70,87,148
1,74,88,2
1,65,88,1
1,69,88,2
1,65,0,46
1,69,0,6
1,74,0,4
1,70,0,2
1,70,54,14
1,69,54,3
1,74,54,0
1,65,54,3
1,65,0,19
1,69,0,2
1,70,0,2
1,74,0,2
1,74,34,84
1,69,33,2
1,65,33,1
1,70,33,0
1,65,0,16
1,69,0,4
1,70,0,4
1,74,0,1
1,38,74,218
1,38,0,15
1,65,74,23
1,74,74,2
1,70,74,0
1,69,74,0
1,65,0,58
1,74,0,2
1,70,0,0
1,69,0,0
1,43,64,15
1,43,0,15
1,72,84,28
1,64,84,2
1,67,84,1
1,69,84,1
1,67,0,46
1,69,0,4
1,72,0,3
1,64,0,1
1,72,53,16
1,64,54,3
1,67,54,1
1,69,54,0
1,38,81,4
1,72,0,8
1,64,0,3
1,69,0,1
1,67,0,0
1,38,0,20
1,31,87,4
1,31,0,52
1,38,64,155
1,38,0,13
1,74,89,25
1,70,88,0
1,69,89,0
1,65,88,0
1,65,0,49
1,74,0,6
1,69,0,1
1,70,0,0
1,69,64,15
1,74,64,3
1,70,45,2
1,65,64,0
1,65,0,16
1,70,0,0
1,69,0,10
1,74,0,3
1,70,50,83
1,74,50,1
1,65,50,2
1,69,50,1
1,65,0,17
1,69,0,4
1,70,0,2
1,74,0,1
1,43,65,183
1,43,0,21
1,45,89,21
1,76,89,0
1,67,89,0
1,72,89,1
1,67,0,76
1,72,0,3
1,76,0,8
1,45,0,11
1,46,90,21
1,77,89,0
1,69,89,0
1,74,89,2
1,46,0,90
1,69,0,2
1,74,0,5
1,77,0,6
1,31,82,18
1,31,0,86
1,70,87,154
1,74,88,2
1,65,88,1
1,69,88,2
1,65,0,46
1,69,0,6
1,74,0,4
1,70,0,2
1,70,54,14
1,69,54,3
1,74,54,0
1,65,54,3
1,65,0,19
1,69,0,2
1,70,0,2
1,74,0,2
1,74,34,84
1,69,33,2
1,65,33,1
1,70,33,0
1,65,0,16
1,69,0,4
1,70,0,4
1,74,0,1
1,38,74,218
1,38,0,15
1,65,74,23
1,74,74,2
1,70,74,0
1,69,74,0
1,65,0,58
1,74,0,2
1,70,0,0
1,69,0,0
1,43,64,15
1,43,0,15
1,72,84,28
1,64,84,2
1,67,84,1
1,69,84,1
1,67,0,46
1,69,0,4
1,72,0,3
1,64,0,1
1,72,53,16
1,64,54,3
1,67,54,1
1,69,54,0
1,38,81,4
1,72,0,8
1,64,0,3
1,69,0,1
1,67,0,0
1,38,0,20
1,31,87,4
1,31,0,52
1,38,64,155
1,38,0,13
1,74,89,25
1,70,88,0
1,69,89,0
1,65,88,0
1,65,0,49
1,74,0,6
1,69,0,1
1,70,0,0
1,69,64,15
1,74,64,3
1,70,45,2
1,65,64,0
1,65,0,16
1,70,0,0
1,69,0,10
1,74,0,3
1,70,49,83
1,74,50,1
1,65,49,2
1,69,50,1
1,65,0,17
1,69,0,4
1,70,0,2
1,74,0,1
1,43,65,195
1,43,0,21
1,45,89,21
1,76,89,0
1,67,89,0
1,72,89,1
1,67,0,76
1,72,0,3
1,76,0,8
1,45,0,11
1,46,90,21
1,77,89,0
1,69,89,0
1,74,89,2
1,46,0,90
1,69,0,2
1,74,0,5
1,77,0,6
1,70,41,258
1,74,41,2
1,65,41,1
1,69,41,2
1,65,0,46
1,69,0,6
1,74,0,4
1,70,0,2
1,70,54,14
1,69,54,3
1,74,54,0
1,65,54,3
1,65,0,19
1,69,0,2
1,70,0,2
1,74,0,2
1,74,64,84
1,69,64,2
1,70,64,1
1,65,64,2
1,65,0,16
1,69,0,2
1,70,0,4
1,74,0,1
1,74,64,252
1,70,64,2
1,65,64,2
1,69,64,2
1,70,0,20
1,69,0,3
1,65,0,2
1,74,0,3
1,72,64,89
1,64,64,3
1,67,64,1
1,69,64,1
1,67,0,46
1,69,0,4
1,72,0,2
1,64,0,2
1,72,64,16
1,64,64,3
1,67,64,1
1,69,64,0
1,38,64,4
1,38,0,32
1,31,58,4
1,67,0,8
1,64,0,2
1,69,0,1
1,72,0,4
1,31,0,37
1,70,40,187
1,69,40,1
1,74,40,2
1,65,40,3
1,65,0,49
1,69,0,2
1,74,0,1
1,70,0,5
1,69,64,14
1,74,64,3
1,70,45,2
1,65,64,0
1,65,0,16
1,70,0,0
1,69,0,10
1,74,0,3
1,70,64,83
1,74,64,1
1,65,64,2
1,69,64,1
1,65,0,17
1,69,0,4
1,70,0,2
1,74,0,1
1,76,41,260
1,45,64,2
1,67,41,0
1,72,41,1
1,67,0,76
1,72,0,3
1,76,0,6
1,45,0,13
1,77,64,17
1,46,64,4
1,69,41,0
1,74,41,2
1,46,0,90
1,69,0,2
1,74,0,5
1,77,0,2
1,31,64,28
1,31,0,48
1,70,41,186
1,74,41,2
1,65,41,1
1,69,41,2
1,65,0,46
1,69,0,6
1,74,0,4
1,70,0,2
1,70,54,14
1,69,54,3
1,74,54,0
1,65,54,3
1,65,0,19
1,69,0,2
1,70,0,2
1,74,0,2
1,74,64,84
1,69,64,2
1,70,64,1
1,65,64,2
1,65,0,16
1,69,0,2
1,70,0,4
1,74,0,1
1,38,64,218
1,38,0,15
1,74,64,19
1,70,64,2
1,65,64,2
1,69,64,2
1,70,0,20
1,69,0,3
1,65,0,2
1,74,0,3
1,72,64,89
1,64,64,3
1,67,64,1
1,69,64,1
1,67,0,46
1,69,0,4
1,72,0,2
1,64,0,2
1,72,64,16
1,64,64,3
1,67,64,1
1,69,64,0
1,38,64,4
1,38,0,32
1,31,58,4
1,67,0,8
1,64,0,2
1,69,0,1
1,72,0,4
1,31,0,37
1,70,40,187
1,69,40,1
1,74,40,2
1,65,40,3
1,65,0,49
1,69,0,2
1,74,0,1
1,70,0,5
1,69,64,14
1,74,64,3
1,70,45,2
1,65,64,0
1,65,0,16
1,70,0,0
1,69,0,10
1,74,0,3
1,70,64,83
1,74,64,1
1,65,64,2
1,69,64,1
1,65,0,17
1,69,0,4
1,70,0,2
1,74,0,1
1,76,82,260
1,67,82,2
1,45,82,1
1,72,82,0
1,67,0,76
1,72,0,3
1,76,0,6
1,45,0,14
1,77,87,20
1,46,80,0
1,69,86,0
1,74,86,2
1,46,0,90
1,69,0,2
1,74,0,5
1,77,0,6
1,65,64,18
1,62,64,0
1,58,64,0
1,55,64,0
1,39,64,0
1,62,0,404
1,58,0,8
1,65,0,3
1,55,0,5
1,39,0,2
1,46,64,58
1,58,64,3
1,62,64,2
1,57,64,2
1,65,64,3
1,46,0,362
1,57,0,18
1,58,0,1
1,62,0,4
1,65,0,4
1,39,64,82
1,58,64,3
1,62,64,1
1,65,64,3
1,55,64,4
1,58,0,415
1,65,0,5
1,39,0,1
1,62,0,1
1,55,0,2
1,46,64,42
1,57,64,4
1,58,64,0
1,62,64,6
1,65,64,0
1,46,0,379
1,57,0,1
1,62,0,2
1,58,0,7
1,65,0,1
1,39,64,80
1,65,64,1
1,55,64,3
1,58,64,1
1,62,64,3
1,62,0,139
1,58,0,9
1,65,0,7
1,39,0,3
1,55,0,2
1,38,64,74
1,54,64,2
1,60,64,1
1,57,64,4
1,65,64,1
1,57,0,147
1,60,0,8
1,65,0,5
1,54,0,4
1,38,0,6
1,43,64,53
1,58,64,4
1,55,64,3
1,62,64,1
1,65,64,4
1,43,0,124
1,58,0,42
1,62,0,6
1,65,0,3
1,55,0,2
1,44,64,52
1,54,64,4
1,60,64,3
1,62,64,1
1,65,64,5
1,44,0,180
1,54,0,9
1,60,0,7
1,62,0,2
1,65,0,5
1,43,64,39
1,43,0,65
1,70,64,171
1,65,86,3
1,69,86,1
1,74,86,2
1,65,0,57
1,69,0,1
1,70,0,5
1,74,0,1
1,69,64,10
1,70,64,1
1,74,64,4
1,65,64,1
1,65,0,17
1,69,0,2
1,70,0,4
1,74,0,3
1,70,48,80
1,65,50,2
1,69,49,1
1,74,46,2
1,65,0,16
1,69,0,2
1,74,0,4
1,70,0,2
1,60,64,248
1,55,64,3
1,64,64,2
1,45,64,3
1,45,0,90
1,55,0,6
1,64,0,3
1,60,0,5
1,46,64,16
1,57,64,4
1,62,64,0
1,65,64,4
1,46,0,91
1,57,0,6
1,62,0,2
1,65,0,4
1,65,64,0
1,62,64,0
1,58,64,0
1,55,64,0
1,39,64,0
1,62,0,404
1,58,0,8
1,65,0,3
1,55,0,5
1,39,0,2
1,46,64,58
1,58,64,3
1,62,64,2
1,57,64,2
1,65,64,3
1,46,0,362
1,57,0,18
1,58,0,1
1,62,0,4
1,65,0,4
1,39,64,82
1,58,64,3
1,62,64,1
1,65,64,3
1,55,64,4
1,58,0,415
1,65,0,5
1,39,0,1
1,62,0,1
1,55,0,2
1,46,64,42
1,57,64,4
1,58,64,0
1,62,64,6
1,65,64,0
1,46,0,379
1,57,0,1
1,62,0,2
1,58,0,7
1,65,0,1
1,39,64,80
1,65,64,1
1,55,64,3
1,58,64,1
1,62,64,3
1,62,0,139
1,58,0,9
1,65,0,7
1,39,0,3
1,55,0,2
1,38,64,74
1,54,64,2
1,60,64,1
1,57,64,4
1,65,64,1
1,57,0,147
1,60,0,8
1,65,0,5
1,54,0,4
1,38,0,6
1,43,64,53
1,58,64,4
1,55,64,3
1,62,64,1
1,65,64,4
1,43,0,124
1,58,0,42
1,62,0,6
1,65,0,3
1,55,0,2
1,44,64,52
1,54,64,4
1,60,64,3
1,62,64,1
1,65,64,5
1,44,0,180
1,54,0,9
1,60,0,7
1,62,0,2
1,65,0,5
1,43,64,39
1,43,0,65
1,70,64,43
1,65,64,3
1,70,0,50
1,65,0,6
1,67,64,66
1,62,64,2
1,67,0,67
1,62,0,9
1,65,64,42
1,60,64,1
1,60,0,48
1,65,0,9
1,67,64,26
1,62,64,3
1,62,0,201
1,67,0,5
1,58,64,68
1,62,64,2
1,43,64,3
1,50,64,1
1,50,0,71
1,43,0,7
1,62,0,5
1,58,0,0
1,46,64,29
1,53,64,1
1,58,64,4
1,62,64,1
1,58,0,97
1,46,0,2
1,53,0,2
1,62,0,6
1,48,77,8
1,36,77,0
1,70,64,439
1,75,64,0
1,79,64,0
1,79,0,66
1,70,0,0
1,75,0,0
1,77,64,42
1,74,64,0
1,69,64,0
1,77,0,49
1,74,0,15
1,69,0,3
1,75,64,53
1,72,64,0
1,67,64,0
1,75,0,68
1,72,0,9
1,67,0,6
1,36,0,25
1,74,64,12
1,70,64,0
1,65,64,0
1,48,0,5
1,70,0,41
1,74,0,11
1,65,0,8
1,77,64,55
1,74,64,0
1,70,64,0
1,50,74,0
1,43,76,1
1,70,0,246
1,77,0,1
1,74,0,0
1,50,0,16
1,43,0,1
1,74,86,26
1,69,86,0
1,77,86,1
1,70,86,0
1,69,0,55
1,74,0,4
1,77,0,0
1,70,0,0
1,77,50,23
1,69,50,3
1,70,50,5
1,74,50,0
1,69,0,28
1,70,0,1
1,74,0,2
1,77,0,2
1,38,65,85
1,38,0,27
1,57,64,60
1,58,64,29
1,57,0,7
1,50,77,25
1,43,77,1
1,57,64,1
1,58,0,10
1,50,0,70
1,43,0,0
1,46,77,39
1,53,77,3
1,57,0,10
1,53,0,52
1,46,0,8
1,48,74,49
1,36,74,0
1,70,64,440
1,67,64,0
1,63,64,0
1,67,0,100
1,70,0,0
1,63,0,7
1,69,64,53
1,65,64,0
1,62,64,0
1,69,0,77
1,65,0,6
1,62,0,10
1,67,64,27
1,63,64,0
1,60,64,0
1,67,0,68
1,60,0,1
1,63,0,23
1,65,64,28
1,62,64,0
1,58,64,0
1,36,0,52
1,62,0,8
1,65,0,6
1,48,0,4
1,58,0,0
1,69,75,50
1,65,76,0
1,62,75,0
1,60,75,0
1,50,75,0
1,38,75,0
1,62,0,250
1,60,0,8
1,65,0,3
1,69,0,3
1,50,0,61
1,38,0,3
1,77,92,32
1,72,92,0
1,69,92,0
1,67,92,0
1,69,0,57
1,67,0,5
1,72,0,0
1,77,0,9
1,72,64,8
1,77,64,1
1,69,64,1
1,67,64,0
1,69,0,16
1,67,0,2
1,72,0,5
1,77,0,6
1,38,64,246
1,50,64,4
1,57,64,4
1,60,64,2
1,65,64,1
1,60,0,81
1,57,0,0
1,65,0,8
1,65,64,28
1,60,64,3
1,69,64,0
1,50,0,81
1,38,0,5
1,60,0,3
1,65,0,4
1,69,0,5
1,36,74,0
1,48,73,0
1,67,64,440
1,63,64,0
1,58,64,0
1,67,0,81
1,63,0,9
1,58,0,0
1,65,64,70
1,62,64,0
1,57,64,0
1,57,0,73
1,65,0,8
1,62,0,2
1,55,64,37
1,60,64,0
1,63,64,0
1,63,0,67
1,55,0,3
1,60,0,0
1,53,64,50
1,58,64,0
1,62,64,0
1,36,0,2
1,48,0,11
1,53,0,36
1,58,0,6
1,62,0,5
1,65,64,20
1,62,64,0
1,58,74,0
1,57,72,0
1,46,73,0
1,58,0,225
1,57,0,5
1,65,0,3
1,62,0,2
1,46,0,19
1,77,86,146
1,74,86,0
1,70,86,0
1,69,86,0
1,74,0,56
1,70,0,4
1,77,0,1
1,69,0,5
1,77,59,13
1,74,59,0
1,70,58,0
1,69,59,1
1,77,0,31
1,74,0,2
1,69,0,1
1,70,0,2
1,65,76,603
1,65,0,164
1,63,82,36
1,63,0,127
1,62,82,34
1,62,0,149
1,60,85,50
1,60,0,48
1,58,87,72
1,58,0,38
1,57,86,3
1,57,0,110
1,67,64,130
1,58,70,0
1,67,0,119
1,58,0,6
1,69,64,74
1,60,64,0
1,69,0,118
1,60,0,8
1,70,64,35
1,62,64,0
1,70,0,124
1,62,0,5
1,69,64,70
1,60,64,0
1,69,0,29
1,60,0,1
1,65,64,90
1,57,64,0
1,57,0,26
1,65,0,1
1,58,64,14
1,67,64,0
1,67,0,120
1,58,0,0
1,60,30,0
1,55,30,0
1,53,30,0
1,74,88,239
1,69,88,0
1,65,87,0
1,70,88,1
1,65,0,38
1,69,0,1
1,70,0,3
1,74,0,11
1,74,54,26
1,70,53,0
1,69,54,0
1,65,54,1
1,65,0,15
1,69,0,4
1,70,0,6
1,74,0,6
1,53,0,9
1,55,0,0
1,60,0,0
1,69,40,79
1,65,40,0
1,74,37,0
1,70,64,6
1,69,0,10
1,65,0,1
1,74,0,6
1,70,0,3
1,74,64,257
1,65,64,3
1,69,64,2
1,70,64,2
1,69,0,43
1,65,0,0
1,70,0,4
1,74,0,2
1,64,64,61
1,67,64,2
1,72,64,2
1,69,64,3
1,67,0,51
1,64,0,4
1,69,0,2
1,72,0,1
1,69,64,9
1,72,64,1
1,64,64,5
1,67,64,1
1,64,0,18
1,67,0,2
1,69,0,1
1,72,0,5
1,43,78,14
1,43,0,50
1,65,64,188
1,69,64,2
1,70,64,2
1,74,64,2
1,69,0,16
1,70,0,1
1,74,0,5
1,65,0,1
1,69,64,11
1,70,64,1
1,74,64,3
1,65,64,4
1,65,0,13
1,69,0,4
1,70,0,4
1,74,0,2
1,65,64,74
1,69,64,1
1,70,64,1
1,74,64,2
1,65,0,16
1,69,0,2
1,70,0,4
1,74,0,1
1,76,77,268
1,72,78,0
1,67,77,0
1,57,77,0
1,45,77,0
1,45,0,88
1,67,0,4
1,72,0,0
1,57,0,3
1,76,0,2
1,77,77,24
1,74,79,0
1,69,78,0
1,46,80,0
1,58,80,2
1,58,0,107
1,69,0,0
1,77,0,1
1,74,0,2
1,46,0,7
1,74,88,240
1,69,88,0
1,65,87,0
1,70,88,1
1,65,0,38
1,69,0,1
1,70,0,3
1,74,0,11
1,74,54,26
1,70,53,0
1,69,54,0
1,65,54,1
1,65,0,15
1,69,0,4
1,70,0,6
1,74,0,6
1,69,40,88
1,65,40,0
1,74,37,0
1,70,64,6
1,69,0,10
1,65,0,1
1,74,0,6
1,70,0,3
1,74,64,257
1,65,64,3
1,69,64,2
1,70,64,2
1,69,0,43
1,65,0,0
1,70,0,4
1,74,0,2
1,64,64,61
1,67,64,2
1,72,64,2
1,69,64,3
1,67,0,51
1,64,0,4
