track,note,velocity,time
1,63,75,2892
1,65,75,0
1,65,75,48
1,65,75,36
1,67,75,0
1,68,75,0
1,67,75,0
1,65,75,0
1,63,75,24
1,63,75,0
1,63,75,12
1,63,75,12
1,55,75,0
1,63,75,216
1,63,75,12
1,65,75,0
1,65,75,60
1,65,75,12
1,67,75,0
1,68,75,0
1,67,75,0
1,65,75,12
1,63,75,24
1,63,75,0
1,63,75,12
1,55,75,0
1,63,75,216
1,63,75,12
1,65,75,0
1,65,75,48
1,65,75,48
1,67,75,0
1,63,75,0
1,63,75,12
1,63,75,12
1,63,75,12
1,67,75,0
1,67,75,0
1,67,75,12
1,67,75,12
1,70,75,0
1,67,75,0
1,65,75,0
1,65,75,12
1,63,75,0
1,63,75,0
1,60,75,0
1,60,75,12
1,56,75,0
1,56,75,0
1,58,75,0
1,60,75,0
1,63,75,24
1,53,75,0
1,55,75,0
1,63,75,216
1,65,75,0
1,63,75,0
1,65,75,0
1,63,75,24
1,65,75,24
1,63,75,24
1,65,75,24
1,63,75,24
1,63,75,60
1,70,75,0
1,68,75,0
1,67,75,0
1,63,75,0
1,67,75,216
1,67,75,12
1,63,75,0
1,63,75,60
1,63,75,12
1,61,75,0
1,61,75,0
1,63,75,0
1,63,75,12
1,63,75,12
1,53,75,0
1,55,60,108
1,63,75,216
1,65,75,0
1,63,75,0
1,65,75,0
1,63,75,24
1,65,75,24
1,63,75,24
1,65,75,24
1,63,75,24
1,63,75,12
1,70,75,192
1,68,75,0
1,67,75,0
1,63,75,0
1,67,75,216
1,67,75,12
1,63,75,0
1,63,75,12
1,63,75,0
1,61,75,0
1,61,75,0
1,63,75,192
1,63,75,12
1,63,75,12
1,53,75,0
1,55,60,0
1,63,75,216
1,65,75,0
1,65,75,60
1,65,75,36
1,67,75,0
1,68,75,0
1,67,75,0
1,65,75,0
1,63,75,24
1,63,75,0
1,63,75,12
1,63,75,12
1,55,60,0
1,63,75,216
1,63,75,12
1,65,75,96
1,65,75,84
1,65,75,36
1,67,75,0
1,68,75,0
1,67,75,0
1,65,75,0
1,63,75,24
1,63,75,0
1,63,75,12
1,63,75,12
1,55,75,192
1,63,75,216
1,63,75,12
1,65,75,96
1,65,75,0
1,65,75,12
1,67,75,0
1,63,75,0
1,63,75,12
1,63,75,12
1,63,75,12
1,67,75,0
1,70,75,384
1,67,75,180
1,65,75,0
1,65,75,12
1,63,75,0
1,63,75,0
1,60,75,0
1,60,75,12
1,56,75,0
1,56,75,0
1,58,75,0
1,60,75,0
1,63,75,24
1,53,75,96
1,55,60,0
1,63,75,216
1,65,75,0
1,63,75,0
1,65,75,96
1,63,75,24
1,65,75,24
1,63,75,24
1,65,75,24
1,63,75,0
1,63,75,60
1,70,75,192
1,68,75,0
1,67,75,0
1,63,75,0
1,67,75,216
1,67,75,12
1,63,75,0
1,63,75,12
1,63,75,12
1,61,75,0
1,61,75,0
1,63,75,0
1,63,75,12
1,63,75,12
1,53,75,0
1,55,60,0
1,63,75,216
1,65,75,0
1,63,75,0
1,65,75,0
1,63,75,24
1,65,75,24
1,63,75,24
1,65,75,24
1,63,75,0
1,63,75,12
1,70,75,0
1,68,75,0
1,67,75,0
1,63,75,0
1,67,75,216
1,67,75,12
1,63,75,192
1,63,75,12
1,63,75,12
1,61,75,0
1,61,75,0
1,63,75,0
1,63,75,108
1,63,75,12
1,53,75,0
1,55,60,0
1,67,75,120
1,67,75,12
1,63,75,0
1,63,75,12
1,63,75,0
1,61,75,0
1,61,75,0
1,70,60,12
1,58,75,24
1,58,75,12
1,53,75,0
1,55,75,0
1,55,75,12
1,51,75,0
1,53,75,96
1,56,75,0
1,57,75,216
1,58,60,0
2,55,75,108
2,63,75,0
2,58,75,0
2,56,75,0
2,56,75,12
2,58,75,0
2,63,75,0
2,63,75,12
2,58,75,0
2,56,75,0
2,55,75,12
2,58,75,0
2,63,75,0
2,56,75,120
2,58,75,0
2,60,75,0
2,63,75,0
2,63,75,12
2,60,75,0
2,58,75,0
2,58,75,12
2,60,75,0
2,63,75,0
2,56,75,12
2,60,75,0
2,63,75,0
2,55,75,120
2,63,75,24
2,58,75,0
2,56,75,0
2,56,75,12
2,58,75,0
2,63,75,0
2,63,75,12
2,58,75,0
2,56,75,0
2,55,75,0
2,58,75,0
2,63,75,0
2,55,75,120
2,63,75,0
2,58,75,0
2,56,75,0
2,56,75,12
2,58,75,0
2,63,75,0
2,63,75,12
2,58,75,0
2,56,75,0
2,55,75,12
2,58,75,0
2,63,75,0
2,65,75,24
2,62,75,0
2,58,75,0
2,65,75,12
2,65,75,12
2,65,75,12
2,67,75,0
2,68,75,0
2,63,75,0
2,60,75,0
2,67,75,0
2,62,75,0
2,58,75,0
2,65,75,24
2,63,75,0
2,63,75,0
2,60,75,192
2,56,75,0
2,56,75,12
2,60,75,0
2,63,75,0
2,55,75,0
2,58,75,0
2,63,75,11
2,58,75,0
2,55,75,0
2,55,75,0
2,55,75,11
2,63,75,12
2,58,75,0
2,55,75,0
2,63,75,12
2,65,75,0
2,62,75,0
2,58,75,0
2,65,75,12
2,65,75,12
2,65,75,12
2,67,75,0
2,68,75,0
2,63,75,0
2,60,75,0
2,67,75,0
2,62,75,0
2,58,75,0
2,65,75,0
2,63,75,0
2,63,75,0
2,60,75,180
2,56,75,0
2,56,75,12
2,60,75,0
2,63,75,0
2,55,75,0
2,58,75,0
2,63,75,11
2,58,75,0
2,55,75,0
2,55,75,0
2,55,75,11
2,63,75,12
2,58,75,0
2,55,75,0
2,63,75,12
2,65,75,0
2,61,75,0
2,56,75,0
2,65,75,12
2,65,75,12
2,65,75,12
2,67,75,0
2,63,75,0
2,60,75,0
2,56,75,0
2,63,75,12
2,60,75,12
2,63,75,0
2,63,75,12
2,67,75,0
2,63,75,0
2,67,75,12
2,67,75,12
2,67,75,12
2,70,75,96
2,67,75,0
2,65,75,0
2,61,75,0
2,56,75,0
2,65,75,12
2,56,75,0
2,61,75,0
2,63,75,0
2,63,75,0
2,60,75,0
2,56,75,0
2,60,75,12
2,56,75,0
2,60,75,12
2,56,75,0
2,60,75,12
2,56,75,0
2,56,75,12
2,56,75,0
2,58,75,0
2,55,75,0
2,51,75,0
2,51,75,12
2,53,75,0
2,55,75,0
2,55,75,12
2,55,75,11
2,63,75,12
2,58,75,0
2,55,75,0
2,65,75,0
2,63,75,0
2,56,75,0
2,61,75,0
2,65,75,0
2,65,75,12
2,63,75,0
2,65,75,0
2,63,75,0
2,65,75,0
2,61,75,0
2,56,75,0
2,63,75,0
2,63,75,12
2,70,75,0
2,63,75,0
2,58,75,0
2,68,75,0
2,60,75,0
2,63,75,0
2,68,75,12
2,63,75,0
2,60,75,0
2,67,75,0
2,60,75,0
2,56,75,0
2,63,75,0
2,58,75,0
2,55,75,0
2,63,75,11
2,58,75,0
2,55,75,0
2,67,75,12
2,58,75,0
2,63,75,0
2,67,75,12
2,63,75,0
2,58,75,0
2,56,75,0
2,63,75,12
2,63,75,12
2,61,75,0
2,61,75,0
2,58,75,0
2,56,75,0
2,63,75,0
2,63,75,12
2,63,75,12
2,63,75,12
2,53,75,12
2,55,75,0
2,55,75,12
2,55,75,11
2,63,75,12
2,55,75,0
2,58,75,0
2,65,75,0
2,63,75,0
2,56,75,0
2,61,75,0
2,65,75,0
2,65,75,12
2,63,75,0
2,65,75,0
2,63,75,0
2,65,75,0
2,61,75,0
2,56,75,0
2,63,75,0
2,63,75,12
2,70,75,0
2,63,75,0
2,60,75,0
2,68,75,0
2,60,75,0
2,63,75,0
2,68,75,12
2,63,75,0
2,60,75,0
2,67,75,0
2,60,75,0
2,56,75,0
2,63,75,0
2,58,75,0
2,55,75,0
2,63,75,11
2,55,75,0
2,58,75,0
2,67,75,12
2,58,75,0
2,63,75,0
2,67,75,12
2,63,75,0
2,58,75,0
2,56,75,0
2,63,75,12
2,63,75,12
2,61,75,0
2,61,75,0
2,58,75,0
2,56,75,0
2,63,75,0
2,63,75,12
2,63,75,12
2,63,75,12
2,53,75,0
2,55,75,0
2,55,75,12
2,55,75,11
2,63,75,216
2,55,75,0
2,58,75,0
2,65,75,0
2,62,75,0
2,58,75,0
2,65,75,12
2,65,75,12
2,65,75,12
2,67,75,0
2,68,75,0
2,63,75,0
2,60,75,0
2,67,75,0
2,62,75,0
2,58,75,0
2,65,75,0
2,63,75,0
2,63,75,0
2,60,75,192
2,56,75,0
2,56,75,12
2,60,75,0
2,63,75,0
2,55,75,0
2,58,75,0
2,63,75,11
2,58,75,0
2,55,75,0
2,55,75,12
2,55,75,11
2,63,75,12
2,58,75,0
2,55,75,0
2,63,75,12
2,65,75,0
2,62,75,0
2,58,75,0
2,65,75,12
2,65,75,12
2,65,75,12
2,67,75,0
2,68,75,0
2,63,75,0
2,60,75,0
2,67,75,0
2,62,75,0
2,58,75,0
2,65,75,0
2,63,75,0
2,63,75,0
2,60,75,192
2,56,75,0
2,56,75,12
2,60,75,0
2,63,75,0
2,55,75,0
2,58,75,0
2,63,75,11
2,58,75,0
2,55,75,0
2,55,75,12
2,55,75,11
2,63,75,12
2,58,75,0
2,55,75,0
2,63,75,12
2,65,75,0
2,61,75,0
2,56,75,0
2,65,75,12
2,65,75,0
2,65,75,12
2,67,75,0
2,63,75,0
2,60,75,0
2,56,75,0
2,63,75,12
2,60,75,12
2,63,75,0
2,63,75,12
2,67,75,0
2,63,75,0
2,67,75,12
2,70,75,24
2,67,75,0
2,65,75,0
2,61,75,0
2,56,75,0
2,65,75,12
2,56,75,0
2,61,75,0
2,63,75,0
2,63,75,0
2,60,75,0
2,56,75,0
2,60,75,0
2,56,75,0
2,60,75,12
2,56,75,0
2,60,75,12
2,56,75,0
2,56,75,12
2,56,75,0
2,58,75,0
2,55,75,0
2,51,75,0
2,51,75,12
2,53,75,0
2,55,75,0
2,55,75,12
2,55,75,11
2,63,75,12
2,58,75,0
2,55,75,0
2,65,75,0
2,63,75,0
2,56,75,0
2,61,75,0
2,65,75,0
2,65,75,12
2,63,75,0
2,65,75,0
2,63,75,0
2,65,75,0
2,61,75,0
2,56,75,0
2,63,75,0
2,63,75,12
2,70,75,0
2,63,75,0
2,58,75,0
2,68,75,0
2,60,75,0
2,63,75,0
2,68,75,12
2,63,75,0
2,60,75,0
2,67,75,12
2,60,75,0
2,56,75,0
2,63,75,0
2,58,75,0
2,55,75,0
2,63,75,11
2,58,75,0
2,55,75,0
2,67,75,12
2,58,75,0
2,63,75,0
2,67,75,12
2,63,75,0
2,58,75,0
2,56,75,0
2,63,75,12
2,63,75,12
2,61,75,0
2,61,75,0
2,58,75,0
2,56,75,0
2,63,75,0
2,63,75,12
2,63,75,12
2,63,75,12
2,53,75,0
2,55,75,0
2,55,75,12
2,55,75,11
2,63,75,12
2,55,75,0
2,58,75,0
2,65,75,0
2,63,75,0
2,56,75,0
2,61,75,0
2,65,75,0
2,65,75,12
2,63,75,0
2,65,75,0
2,63,75,0
2,65,75,0
2,61,75,0
2,56,75,0
2,63,75,0
2,63,75,12
2,70,75,0
2,63,75,0
2,60,75,0
2,68,75,0
2,60,75,0
2,63,75,0
2,68,75,12
2,63,75,0
2,60,75,0
2,67,75,0
2,60,75,0
2,56,75,0
2,63,75,0
2,58,75,0
2,55,75,0
2,63,75,11
2,55,75,0
2,58,75,0
2,67,75,12
2,58,75,0
2,63,75,0
2,67,75,12
2,63,75,0
2,58,75,0
2,56,75,0
2,63,75,12
2,63,75,12
2,61,75,0
2,61,75,0
2,58,75,0
2,56,75,0
2,63,75,0
2,63,75,12
2,63,75,12
2,63,75,12
2,53,75,0
2,55,75,0
2,55,75,12
2,67,75,120
2,63,75,0
2,58,75,0
2,67,75,12
2,63,75,0
2,58,75,0
2,56,75,0
2,63,75,12
2,63,75,12
2,61,75,0
2,61,75,0
2,58,75,0
2,56,75,0
2,70,75,0
2,63,75,0
2,68,75,0
2,70,75,11
2,68,75,0
2,63,75,0
2,63,75,11
2,68,75,0
2,70,75,0
2,58,75,12
2,56,75,0
2,58,75,12
2,56,75,0
2,53,75,0
2,55,75,0
2,55,75,12
2,51,75,0
2,46,75,0
2,53,75,0
2,53,75,0
2,50,75,0
2,56,75,0
2,53,75,0
2,49,75,0
2,49,75,12
2,53,75,0
2,54,75,0
2,51,75,0
2,57,75,0
2,58,75,0
2,55,75,0
2,58,75,12
2,55,75,0
2,58,75,11
2,51,75,0
2,55,75,0
2,58,75,11
2,55,75,0
2,51,75,0
2,58,75,11
2,55,75,0
2,51,75,0
3,39,75,12
3,44,75,24
3,39,75,24
3,39,75,24
3,46,75,216
3,46,75,24
3,44,75,24
3,46,75,24
3,41,75,24
3,39,75,216
3,46,75,24
3,51,75,24
3,46,75,24
3,39,75,24
3,46,75,24
3,51,75,24
3,51,75,12
3,46,75,216
3,46,75,24
3,44,75,24
3,46,75,24
3,41,75,24
3,39,75,216
3,46,75,24
3,51,75,24
3,46,75,24
3,39,75,24
3,46,75,24
3,51,75,24
3,51,75,12
3,39,75,216
3,51,75,0
3,51,75,24
3,39,75,0
3,44,75,24
3,51,75,0
3,51,75,24
3,44,75,0
3,39,75,24
3,51,75,0
3,43,75,24
3,46,75,24
3,51,75,24
3,39,75,24
3,44,75,24
3,51,75,0
3,44,75,24
3,51,75,0
3,51,75,24
3,46,75,24
3,39,75,24
3,39,75,216
3,46,75,24
3,51,75,24
3,46,75,24
3,39,75,24
3,46,75,24
3,51,75,24
3,51,75,12
3,46,75,216
3,34,75,24
3,46,75,24
3,39,75,24
3,51,75,24
3,44,75,12
3,56,75,0
3,51,75,24
3,44,75,24
3,39,75,24
3,46,75,24
3,51,75,0
3,51,75,12
3,46,75,24
3,39,75,24
3,51,75,24
3,39,75,24
3,51,75,24
3,39,75,24
3,51,75,24
3,39,75,24
3,46,75,24
3,51,75,24
3,46,75,24
3,39,75,24
3,51,75,24
3,46,75,24
3,34,75,24
3,46,75,24
3,39,75,24
3,51,75,24
3,44,75,24
3,56,75,0
3,51,75,24
3,44,75,24
3,39,75,24
3,46,75,24
3,51,75,24
3,51,75,12
3,46,75,24
3,39,75,24
3,51,75,24
3,39,75,24
3,51,75,24
3,39,75,24
3,51,75,24
3,39,75,24
3,46,75,24
3,51,75,24
3,46,75,24
3,39,75,24
3,46,75,24
3,51,75,24
3,51,75,12
3,46,75,216
3,46,75,24
3,44,75,24
3,46,75,24
3,41,75,24
3,39,75,216
3,46,75,24
3,51,75,24
3,46,75,24
3,39,75,24
3,46,75,24
3,51,75,24
3,51,75,12
3,46,75,216
3,46,75,24
3,44,75,24
3,46,75,24
3,41,75,24
3,39,75,216
3,46,75,24
3,51,75,24
3,46,75,24
3,39,75,24
3,46,75,24
3,51,75,24
3,51,75,12
3,39,75,216
3,51,75,0
3,51,75,24
3,39,75,0
3,44,75,24
3,51,75,0
3,51,75,24
3,44,75,0
3,39,75,24
3,51,75,0
3,43,75,24
3,46,75,24
3,51,75,24
3,39,75,24
3,44,75,24
3,51,75,0
3,44,75,24
3,51,75,0
3,51,75,24
3,46,75,24
3,39,75,24
3,39,75,216
3,46,75,24
3,51,75,24
3,46,75,24
3,39,75,24
3,46,75,24
3,51,75,24
3,51,75,12
3,46,75,216
3,34,75,24
3,46,75,24
3,39,75,24
3,51,75,24
3,44,75,12
3,56,75,0
3,51,75,24
3,44,75,24
3,39,75,24
3,46,75,24
3,51,75,0
3,51,75,12
3,46,75,24
3,39,75,24
3,51,75,24
3,39,75,24
3,51,75,24
3,39,75,24
3,51,75,24
3,39,75,24
3,46,75,24
3,51,75,24
3,46,75,24
3,39,75,24
3,51,75,24
3,46,75,24
3,34,75,24
3,46,75,24
3,39,75,24
3,51,75,24
3,44,75,24
3,56,75,0
3,51,75,24
3,44,75,24
3,39,75,24
3,46,75,24
3,51,75,24
3,51,75,12
3,46,75,24
3,39,75,24
3,51,75,24
3,39,75,24
3,51,75,24
3,39,75,24
3,51,75,24
3,39,75,24
3,46,75,24
3,51,75,24
