track,note,velocity,time
1,34,127,0
1,34,127,96
1,29,127,1152
1,34,127,0
1,34,127,96
1,29,127,1152
1,34,127,0
1,34,127,96
1,29,127,1152
1,34,127,0
1,34,127,96
1,29,127,384
1,32,127,0
1,32,127,96
1,29,127,384
1,30,127,0
1,30,127,96
1,29,127,1152
1,30,127,0
1,30,127,96
1,29,127,1152
1,30,127,0
1,30,127,96
1,29,127,1152
1,30,127,0
1,30,127,96
1,29,127,384
1,33,127,0
1,33,127,96
1,29,127,384
1,34,127,0
1,34,127,96
1,29,127,1152
1,34,127,0
1,34,127,96
1,29,127,1152
1,34,127,0
1,34,127,96
1,29,127,1152
1,34,127,0
1,34,127,96
1,29,127,384
1,32,127,0
1,32,127,96
1,29,127,384
1,30,127,0
1,30,127,96
1,29,127,1152
1,30,127,0
1,30,127,96
1,29,127,1152
1,30,127,0
1,30,127,96
1,29,127,1152
1,30,127,0
1,30,127,96
1,29,127,384
1,33,127,0
1,33,127,96
1,29,127,384
1,34,127,0
1,34,127,96
1,29,127,1152
1,34,127,0
1,34,127,96
1,29,127,1152
1,34,127,0
1,34,127,96
1,29,127,1152
1,34,127,0
1,34,127,96
1,29,127,384
1,32,127,0
1,32,127,96
1,29,127,384
1,30,127,0
1,30,127,96
1,29,127,1152
1,30,127,0
1,30,127,96
1,29,127,1152
1,30,127,0
1,30,127,96
1,29,127,1152
1,30,127,0
1,30,127,96
1,29,127,384
1,33,127,0
1,33,127,96
1,29,127,384
1,34,127,0
1,34,127,96
1,29,127,1152
1,34,127,0
1,34,127,96
1,29,127,1152
1,34,127,0
1,34,127,96
1,29,127,1152
1,34,127,0
1,34,127,96
1,29,127,384
1,32,127,0
1,32,127,96
1,29,127,384
1,30,127,0
1,30,127,96
1,29,127,1152
1,30,127,0
1,30,127,96
1,29,127,1152
1,30,127,0
1,30,127,96
1,29,127,1152
1,30,127,0
1,30,127,96
1,29,127,384
1,33,127,0
1,33,127,96
1,29,127,384
1,34,127,0
1,34,127,96
1,29,127,1152
1,34,127,0
1,34,127,96
1,29,127,1152
1,34,127,0
1,34,127,96
1,29,127,1152
1,34,127,0
1,34,127,96
1,29,127,384
1,32,127,0
1,32,127,96
1,29,127,384
1,30,127,0
1,30,127,96
1,29,127,1152
1,30,127,0
1,30,127,96
1,29,127,1152
1,30,127,0
1,30,127,96
1,29,127,1152
1,30,127,0
1,30,127,96
1,29,127,384
1,33,127,0
1,33,127,96
1,29,127,384
1,34,127,0
1,34,127,96
1,29,127,1152
1,34,127,0
1,34,127,96
1,29,127,1152
1,34,127,0
1,34,127,96
1,29,127,1152
1,34,127,0
1,34,127,96
1,29,127,384
1,32,127,0
1,32,127,96
1,29,127,384
1,30,127,0
1,30,127,96
1,29,127,1152
1,30,127,0
1,30,127,96
1,29,127,1152
1,30,127,0
1,30,127,96
1,29,127,1152
1,30,127,0
1,30,127,96
1,29,127,384
1,33,127,0
1,33,127,96
1,29,127,384
1,34,127,0
1,34,127,96
1,29,127,1152
1,34,127,0
1,34,127,96
1,29,127,1152
1,34,127,0
1,34,127,96
1,29,127,1152
1,34,127,0
1,34,127,96
1,29,127,384
1,32,127,0
1,32,127,96
1,29,127,384
1,30,127,0
1,30,127,96
1,29,127,1152
1,30,127,0
1,30,127,96
1,29,127,1152
1,30,127,0
1,30,127,96
1,29,127,1152
1,30,127,0
1,30,127,96
1,29,127,384
1,33,127,0
1,33,127,96
1,29,127,384
1,34,127,0
1,34,127,96
1,29,127,1152
1,34,127,0
1,34,127,96
1,29,127,1152
1,34,127,0
1,34,127,96
1,29,127,1152
1,34,127,0
1,34,127,96
1,29,127,384
1,32,127,0
1,32,127,96
1,29,127,384
1,30,127,0
1,30,127,96
1,29,127,1152
1,30,127,0
1,30,127,96
1,29,127,1152
1,30,127,0
1,30,127,96
1,29,127,1152
1,30,127,0
1,30,127,96
1,29,127,384
1,33,127,0
1,33,127,96
1,29,127,384
1,34,127,0
1,34,127,96
1,29,127,1152
1,34,127,0
1,34,127,96
1,29,127,1152
1,34,127,0
1,34,127,96
1,29,127,1152
1,34,127,0
1,34,127,96
1,29,127,384
1,32,127,0
1,32,127,96
1,29,127,384
1,30,127,0
1,30,127,96
1,29,127,1152
1,30,127,0
1,30,127,96
1,29,127,1152
1,30,127,0
1,30,127,96
1,29,127,1152
1,30,127,0
1,30,127,96
1,29,127,384
1,33,127,0
1,33,127,96
1,29,127,384
1,34,127,0
1,34,127,96
1,29,127,1152
1,34,127,0
1,34,127,96
1,29,127,1152
1,34,127,0
1,34,127,96
1,29,127,1152
1,34,127,0
1,34,127,96
1,29,127,384
1,32,127,0
1,32,127,96
1,29,127,384
1,30,127,0
1,30,127,96
1,29,127,1152
1,30,127,0
1,30,127,96
1,29,127,1152
1,30,127,0
1,30,127,96
1,29,127,2688
1,34,127,0
1,34,127,96
1,29,127,1152
1,34,127,0
1,34,127,96
1,29,127,1152
1,34,127,0
1,34,127,96
1,29,127,1152
1,34,127,0
1,34,127,96
1,29,127,384
1,32,127,0
1,32,127,96
1,29,127,384
1,30,127,0
1,30,127,96
1,29,127,1152
1,30,127,0
1,30,127,96
1,29,127,1152
1,30,127,0
1,30,127,96
1,29,127,1152
1,30,127,0
1,30,127,96
1,29,127,384
1,33,127,0
1,33,127,96
1,29,127,384
1,34,127,0
1,34,127,96
1,29,127,1152
1,34,127,0
1,34,127,96
1,29,127,1152
1,34,127,0
1,34,127,96
1,29,127,1152
1,34,127,0
1,34,127,96
2,68,109,192
2,60,115,72
2,67,127,114
2,58,109,124
2,68,109,766
2,60,115,72
2,67,127,114
2,68,109,480
2,60,109,77
2,67,127,113
2,58,115,125
2,68,115,747
2,60,115,100
2,67,127,123
2,63,115,291
2,60,109,125
2,65,127,131
2,65,127,261
2,56,80,77
2,63,104,85
2,55,127,67
2,65,127,194
2,56,98,114
2,63,127,115
2,65,127,266
2,56,78,98
2,63,115,141
2,55,109,83
2,65,127,199
2,56,104,103
2,63,109,114
2,67,127,156
2,63,78,102
2,65,127,123
2,68,121,190
2,60,104,98
2,67,127,108
2,58,104,108
2,68,115,311
2,60,109,68
2,67,127,105
2,68,115,576
2,60,104,55
2,67,109,97
2,58,115,100
2,68,109,322
2,60,115,96
2,67,127,120
2,63,109,171
2,60,104,61
2,65,127,103
2,65,127,164
2,56,80,77
2,63,104,85
2,55,127,67
2,65,127,194
2,56,98,114
2,63,127,115
2,65,127,266
2,56,78,98
2,63,115,141
2,55,109,83
2,65,127,199
2,56,104,103
2,63,109,114
2,67,127,156
2,63,78,102
2,65,127,123
2,68,121,190
2,60,104,98
2,67,127,108
2,58,104,108
2,68,115,311
2,60,109,68
2,67,127,105
2,68,115,576
2,60,104,55
2,67,109,97
2,58,115,100
2,68,109,322
2,60,115,96
2,67,127,120
2,63,109,171
2,60,104,61
2,65,127,103
2,65,127,164
2,56,80,77
2,63,104,85
2,55,127,67
2,65,127,194
2,56,98,114
2,63,127,115
2,65,127,266
2,56,78,98
2,63,115,141
2,55,109,83
2,65,127,199
2,56,104,103
2,63,109,114
2,67,127,156
2,63,78,102
2,65,127,123
2,68,121,190
2,60,104,98
2,67,127,108
2,58,104,108
2,68,115,311
2,60,109,68
2,67,127,105
2,68,115,576
2,60,104,55
2,67,109,97
2,58,115,100
2,68,109,322
2,60,115,96
2,67,127,120
2,63,109,171
2,60,104,61
2,65,127,103
2,65,127,164
2,56,80,77
2,63,104,85
2,55,127,67
2,65,127,194
2,56,98,114
2,63,127,115
2,68,121,192
2,60,104,98
2,67,127,108
2,58,104,108
2,68,115,311
2,60,109,68
2,67,127,105
2,68,115,576
2,60,104,55
2,67,109,97
2,58,115,100
2,68,109,322
2,60,115,96
2,67,127,120
2,63,109,171
2,60,104,61
2,65,127,103
2,65,127,164
2,56,80,77
2,63,104,85
2,55,127,67
2,65,127,194
2,56,98,114
2,63,127,115
2,65,127,266
2,56,78,98
2,63,115,141
2,55,109,83
2,65,127,199
2,56,104,103
2,63,109,114
2,67,127,156
2,63,78,102
2,65,127,123
2,68,121,190
2,60,104,98
2,67,127,108
2,58,104,108
2,68,115,311
2,60,109,68
2,67,127,105
2,68,115,576
2,60,104,55
2,67,109,97
2,58,115,100
2,68,109,322
2,60,115,96
2,67,127,120
2,63,109,171
2,60,104,61
2,65,127,103
2,65,127,164
2,56,80,77
2,63,104,85
2,55,127,67
2,65,127,194
2,56,98,114
2,63,127,115
2,65,127,266
2,56,78,98
2,63,115,141
2,55,109,83
2,65,127,199
2,56,104,103
2,63,109,114
2,67,127,156
2,63,78,102
2,65,127,123
2,68,121,190
2,60,104,98
2,67,127,108
2,58,104,108
2,68,115,311
2,60,109,68
2,67,127,105
2,68,115,576
2,60,104,55
2,67,109,97
2,58,115,100
2,68,109,322
2,60,115,96
2,67,127,120
2,63,109,171
2,60,104,61
2,65,127,103
2,65,127,164
2,56,80,77
2,63,104,85
2,55,127,67
2,65,127,194
2,56,98,114
2,63,127,115
2,65,127,266
2,56,78,98
2,63,115,141
2,55,109,83
2,65,127,199
2,56,104,103
2,63,109,114
2,67,127,156
2,63,78,102
2,65,127,123
2,68,121,190
2,60,104,98
2,67,127,108
2,58,104,108
2,68,115,311
2,60,109,68
2,67,127,105
2,68,115,576
2,60,104,55
2,67,109,97
2,58,115,100
2,68,109,322
2,60,115,96
2,67,127,120
2,63,109,171
2,60,104,61
2,65,127,103
2,65,127,164
2,56,80,77
2,63,104,85
2,55,127,67
2,65,127,194
2,56,98,114
2,63,127,115
2,65,127,266
2,56,78,98
2,63,115,141
2,55,109,83
2,65,127,199
2,56,104,103
2,63,109,114
2,67,127,156
2,63,78,102
2,65,127,123
2,68,121,190
2,60,104,98
2,67,127,108
2,58,104,108
2,68,115,311
2,60,109,68
2,67,127,105
2,68,115,576
2,60,104,55
2,67,109,97
2,58,115,100
2,68,109,322
2,60,115,96
2,67,127,120
2,63,109,171
2,60,104,61
2,65,127,103
2,65,127,164
2,56,80,77
2,63,104,85
2,55,127,67
2,65,127,194
2,56,98,114
2,63,127,115
2,65,127,266
2,56,78,98
2,63,115,141
2,55,109,83
2,65,127,199
2,56,104,103
2,63,109,114
2,67,127,156
2,63,78,102
2,65,127,123
2,68,121,190
2,60,104,98
2,67,127,108
2,58,104,108
2,68,115,311
2,60,109,68
2,67,127,105
2,68,115,576
2,60,104,55
2,67,109,97
2,58,115,100
2,68,109,322
2,60,115,96
2,67,127,120
2,63,109,171
2,60,104,61
2,65,127,103
2,65,127,164
2,56,80,77
2,63,104,85
2,55,127,67
2,65,127,194
2,56,98,114
2,63,127,115
2,65,127,266
2,56,78,98
2,63,115,141
2,55,109,83
2,65,127,199
2,56,104,103
2,63,109,114
2,67,127,156
2,63,78,102
2,65,127,123
2,68,121,190
2,60,104,98
2,67,127,108
2,58,104,108
2,68,115,311
2,60,109,68
2,67,127,105
2,68,115,576
2,60,104,55
2,67,109,97
2,58,115,100
2,68,109,322
2,60,115,96
2,67,127,120
2,63,109,171
2,60,104,61
2,65,127,103
2,65,127,164
2,56,80,77
2,63,104,85
2,55,127,67
2,65,127,194
2,56,98,114
2,63,127,115
2,65,127,266
2,56,78,98
2,63,115,141
2,55,109,83
2,65,127,199
2,56,104,103
2,63,109,114
2,67,127,156
2,63,78,102
2,65,127,123
3,34,127,0
3,34,127,63
3,29,127,1122
3,34,127,20
3,34,127,77
3,29,127,1123
3,34,127,21
3,34,127,71
3,29,127,1121
3,34,127,20
3,34,127,86
3,29,127,354
3,32,127,9
3,32,127,69
3,29,127,357
3,30,127,7
3,30,127,72
3,29,127,1114
3,30,127,23
3,30,127,74
3,29,127,1113
3,30,127,24
3,30,127,83
3,29,127,1114
3,30,127,33
3,30,127,71
3,29,127,333
3,33,127,9
3,33,127,83
3,29,127,347
3,34,127,0
3,34,127,84
3,29,127,1118
3,34,127,17
3,34,127,84
3,29,127,1122
3,34,127,12
3,34,127,77
3,29,127,1119
3,34,127,19
3,34,127,73
3,29,127,362
3,32,127,25
3,32,127,82
3,29,127,348
3,30,127,32
3,30,127,77
3,29,127,1104
3,30,127,27
3,30,127,77
3,29,127,1089
3,30,127,27
3,30,127,84
3,29,127,1115
3,30,127,30
3,30,127,79
3,29,127,342
3,33,127,29
3,33,127,92
3,29,127,352
3,34,127,0
3,34,127,84
3,29,127,1118
3,34,127,17
3,34,127,84
3,29,127,1122
3,34,127,12
3,34,127,77
3,29,127,1119
3,34,127,19
3,34,127,73
3,29,127,362
3,32,127,25
3,32,127,82
3,29,127,348
3,30,127,32
3,30,127,77
3,29,127,1104
3,30,127,27
3,30,127,77
3,29,127,1089
3,30,127,27
3,30,127,84
3,29,127,1115
3,30,127,30
3,30,127,79
3,29,127,342
3,33,127,29
3,33,127,92
3,29,127,352
3,34,127,0
3,34,127,84
3,29,127,1118
3,34,127,17
3,34,127,84
3,29,127,1122
3,34,127,12
3,34,127,77
3,29,127,1119
3,34,127,19
3,34,127,73
3,29,127,362
3,32,127,25
3,32,127,82
3,29,127,348
3,30,127,32
3,30,127,77
3,29,127,1104
3,30,127,27
3,30,127,77
3,29,127,1089
3,30,127,27
3,30,127,84
3,29,127,1115
3,30,127,30
3,30,127,79
3,29,127,342
3,33,127,29
3,33,127,92
3,29,127,352
3,34,127,0
3,34,127,84
3,29,127,1118
3,34,127,17
3,34,127,84
3,29,127,1122
3,34,127,12
3,34,127,77
3,29,127,1119
3,34,127,19
3,34,127,73
3,29,127,362
3,32,127,25
3,32,127,82
3,29,127,348
3,30,127,32
3,30,127,77
3,29,127,1104
3,30,127,27
3,30,127,77
3,29,127,1089
3,30,127,27
3,30,127,84
3,29,127,1115
3,30,127,30
3,30,127,79
3,29,127,342
3,33,127,29
3,33,127,92
3,29,127,352
3,34,127,0
3,34,127,84
3,29,127,1118
3,34,127,17
3,34,127,84
3,29,127,1122
3,34,127,12
3,34,127,77
3,29,127,1119
3,34,127,19
3,34,127,73
3,29,127,362
3,32,127,25
3,32,127,82
3,29,127,348
3,30,127,32
3,30,127,77
3,29,127,1104
3,30,127,27
3,30,127,77
3,29,127,1089
3,30,127,27
3,30,127,84
3,29,127,1115
3,30,127,30
3,30,127,79
3,29,127,342
3,33,127,29
3,33,127,92
3,29,127,352
3,34,127,0
3,34,127,84
3,29,127,1118
3,34,127,17
3,34,127,84
3,29,127,1122
3,34,127,12
3,34,127,77
3,29,127,1119
3,34,127,19
3,34,127,73
3,29,127,362
3,32,127,25
3,32,127,82
3,29,127,348
3,30,127,32
3,30,127,77
3,29,127,1104
3,30,127,27
3,30,127,77
3,29,127,1089
3,30,127,27
3,30,127,84
3,29,127,1115
3,30,127,30
3,30,127,79
3,29,127,342
3,33,127,29
3,33,127,92
3,29,127,352
3,34,127,0
3,34,127,84
3,29,127,1118
3,34,127,17
3,34,127,84
3,29,127,1122
3,34,127,12
3,34,127,77
3,29,127,1119
3,34,127,19
3,34,127,73
3,29,127,362
3,32,127,25
3,32,127,82
3,29,127,348
3,30,127,32
3,30,127,77
3,29,127,1104
3,30,127,27
3,30,127,77
3,29,127,1089
3,30,127,27
3,30,127,84
3,29,127,1115
3,30,127,30
3,30,127,79
3,29,127,342
3,33,127,29
3,33,127,92
3,29,127,352
3,34,127,0
3,34,127,84
3,29,127,1118
3,34,127,17
3,34,127,84
3,29,127,1122
3,34,127,12
3,34,127,77
3,29,127,1119
3,34,127,19
3,34,127,73
3,29,127,362
3,32,127,25
3,32,127,82
3,29,127,348
3,30,127,32
3,30,127,77
3,29,127,1104
3,30,127,27
3,30,127,77
3,29,127,1089
3,30,127,27
3,30,127,84
3,29,127,1115
3,30,127,30
3,30,127,79
3,29,127,342
3,33,127,29
3,33,127,92
3,29,127,352
3,34,127,0
3,34,127,84
3,29,127,1118
3,34,127,17
3,34,127,84
3,29,127,1122
3,34,127,12
3,34,127,77
3,29,127,1119
3,34,127,19
3,34,127,73
3,29,127,362
3,32,127,25
3,32,127,82
3,29,127,348
3,30,127,32
3,30,127,77
3,29,127,1104
3,30,127,27
3,30,127,77
3,29,127,1089
3,30,127,27
3,30,127,84
3,29,127,1115
3,30,127,30
3,30,127,79
3,29,127,342
3,33,127,29
3,33,127,92
3,29,127,352
3,34,127,0
