track,note,velocity,time
0,38,34,22
0,38,49,162
0,38,73,66
0,38,84,50
0,60,64,154
0,67,64,0
0,58,64,2
0,48,90,14
0,52,99,8
0,36,88,4
0,55,111,4
0,60,114,8
0,55,100,2
0,64,102,6
0,36,66,8
0,42,57,2
0,55,75,4
0,55,100,16
0,42,49,2
0,48,96,4
0,52,111,4
0,55,125,4
0,51,100,4
0,38,60,0
0,42,61,0
0,60,111,0
0,64,127,6
0,28,88,6
0,60,127,0
0,64,127,0
0,64,101,16
0,72,83,0
0,76,66,2
0,55,102,62
0,52,96,10
0,48,99,8
0,52,100,0
0,42,53,4
0,48,90,6
0,52,108,8
0,55,100,0
0,36,66,2
0,31,88,2
0,42,61,0
0,55,105,2
0,60,102,10
0,64,78,10
0,60,40,4
0,55,96,6
0,55,100,2
0,42,61,0
0,52,93,6
0,48,93,6
0,51,100,2
0,38,60,2
0,42,61,0
0,48,99,0
0,62,92,4
0,33,88,0
0,52,127,0
0,70,92,0
0,74,83,2
0,58,127,2
0,62,127,0
0,55,127,2
0,60,127,4
0,64,127,6
0,52,100,66
0,42,69,2
0,60,57,0
0,55,102,10
0,58,127,2
0,62,127,2
0,52,105,6
0,48,105,8
0,70,83,0
0,62,83,0
0,74,83,0
0,55,100,16
0,36,66,0
0,42,57,0
0,48,96,6
0,52,114,6
0,36,88,0
0,55,127,0
0,60,123,0
0,64,105,8
0,55,100,100
0,42,61,4
0,55,96,8
0,52,84,6
0,48,75,4
0,51,100,82
0,38,60,2
0,42,73,2
0,33,88,4
0,48,99,0
0,60,127,0
0,64,127,0
0,52,117,0
0,76,83,0
0,64,92,2
0,72,92,0
0,55,127,2
0,60,111,0
0,64,117,0
0,52,100,80
0,42,61,2
0,60,32,10
0,55,102,14
0,52,81,4
0,48,81,8
0,31,88,8
0,55,100,6
0,36,66,4
0,42,61,0
0,52,87,6
0,55,105,0
0,60,114,6
0,64,105,8
0,55,100,100
0,42,61,2
0,55,99,8
0,52,93,2
0,48,96,6
0,28,88,62
0,51,100,0
0,38,60,2
0,42,69,2
0,62,101,0
0,48,93,6
0,58,127,0
0,62,127,0
0,70,92,2
0,74,83,2
0,52,127,0
0,55,127,0
0,60,127,0
0,64,125,6
0,52,100,36
0,31,88,2
0,36,66,0
0,46,67,0
0,55,72,12
0,58,127,0
0,62,127,2
0,74,83,12
0,48,72,2
0,70,74,0
0,62,92,2
0,48,72,4
0,55,100,2
0,36,66,4
0,42,57,0
0,52,99,2
0,36,88,2
0,55,123,4
0,60,120,8
0,64,111,8
0,55,100,100
0,42,49,2
0,55,99,8
0,52,81,8
0,48,81,6
0,51,100,22
0,38,60,2
0,42,61,2
0,28,88,4
0,48,117,0
0,60,127,2
0,64,127,2
0,52,127,0
0,76,74,4
0,55,127,0
0,72,92,0
0,64,101,2
0,60,114,0
0,64,127,8
0,52,100,78
0,42,53,4
0,55,60,18
0,48,62,6
0,55,100,0
0,36,66,4
0,42,61,0
0,48,84,2
0,31,88,6
0,52,108,4
0,55,127,6
0,60,127,8
0,64,96,6
0,55,100,102
0,42,61,2
0,55,68,4
0,62,101,62
0,51,100,2
0,38,60,0
0,42,61,2
0,48,87,4
0,70,101,0
0,33,88,2
0,58,127,2
0,74,92,0
0,52,123,0
0,62,127,0
0,55,127,0
0,60,114,0
0,64,127,2
0,52,100,58
0,42,69,2
0,55,99,12
0,58,127,0
0,62,127,0
0,52,93,10
0,70,83,0
0,74,83,0
0,62,83,2
0,48,108,2
0,48,96,0
0,55,100,2
0,36,66,4
0,42,57,0
0,52,127,0
0,55,127,8
0,36,88,2
0,60,127,6
0,64,127,10
0,55,100,102
0,42,61,2
0,48,75,2
0,48,68,2
0,51,100,4
0,38,60,0
0,52,99,0
0,42,73,2
0,55,99,4
0,72,92,0
0,76,92,0
0,60,127,4
0,64,101,0
0,60,99,0
0,64,127,0
0,33,88,2
0,64,99,4
0,55,40,68
0,52,100,10
0,42,61,4
0,52,60,2
0,48,93,10
0,48,99,0
0,55,100,4
0,36,66,2
0,52,125,0
0,31,88,0
0,42,61,0
0,55,108,6
0,60,111,10
0,64,96,6
0,60,60,4
0,55,100,0
0,42,61,2
0,55,111,6
0,52,93,0
0,48,87,8
0,28,88,76
0,51,100,0
0,38,60,2
0,42,69,2
0,48,117,0
0,62,101,2
0,70,101,0
0,74,92,0
0,52,127,0
0,58,127,0
0,62,127,2
0,55,117,0
0,60,127,0
0,64,123,2
0,31,88,42
0,52,100,4
0,36,66,2
0,46,67,2
0,55,64,6
0,74,83,0
0,58,127,4
0,62,127,0
0,62,101,0
0,52,32,2
0,70,92,2
0,48,62,8
0,36,88,52
0,55,100,0
0,57,48,0
0,48,70,2
0,36,66,4
0,48,118,2
0,52,92,2
0,55,92,2
0,60,88,4
0,64,92,0
0,55,100,110
0,42,49,2
0,52,104,4
0,48,64,4
0,51,100,0
0,55,104,0
0,38,60,2
0,42,61,2
0,52,88,0
0,60,127,2
0,64,127,0
0,55,92,0
0,40,88,0
0,60,90,0
0,64,76,4
0,52,100,86
0,60,104,0
0,42,53,2
0,60,127,6
0,64,127,0
0,64,73,2
0,60,88,10
0,55,92,10
0,52,92,6
0,48,76,6
0,55,100,78
0,64,113,0
0,36,66,2
0,42,61,2
0,43,88,0
0,52,43,8
0,55,19,0
0,60,40,10
0,64,31,4
0,55,100,6
0,62,104,0
0,42,61,2
0,64,58,6
0,60,73,8
0,55,92,0
0,52,88,0
0,48,92,6
0,51,100,40
0,60,113,0
0,38,60,4
0,42,61,0
0,58,127,4
0,62,127,0
0,45,88,4
0,52,67,0
0,55,92,6
0,60,82,4
0,64,92,6
0,52,100,12
0,57,113,0
0,42,69,2
0,60,43,18
0,43,88,10
0,55,73,0
0,52,92,6
0,48,61,8
0,54,113,46
0,55,100,0
0,36,66,4
0,42,57,0
0,48,46,4
0,52,92,0
0,46,88,2
0,55,92,0
0,60,88,10
0,64,82,8
0,55,100,102
0,55,113,0
0,42,61,0
0,51,100,70
0,38,60,0
0,42,73,0
0,48,27,2
0,52,73,0
0,45,88,2
0,55,92,4
0,60,76,0
0,64,92,4
0,52,100,104
0,42,61,2
0,64,73,8
0,60,82,8
0,55,90,10
0,52,85,2
0,48,70,6
0,55,100,44
0,36,66,4
0,42,61,0
0,52,43,4
0,55,67,0
0,43,88,6
0,60,79,0
0,64,82,4
0,55,100,0
0,42,61,2
0,64,52,4
0,60,61,0
0,55,73,8
0,52,73,0
0,48,55,4
0,51,100,74
0,38,60,2
0,42,69,2
0,40,88,4
0,52,82,0
0,55,92,0
0,60,82,2
0,64,85,2
0,52,100,30
0,36,66,2
0,46,67,2
0,64,82,2
0,43,88,10
0,60,90,0
0,55,85,8
0,52,85,0
0,48,67,4
0,48,49,2
0,48,118,0
0,55,100,0
0,36,66,4
0,42,57,0
0,52,92,0
0,36,88,4
0,55,92,2
0,60,92,0
0,64,92,8
0,55,100,102
0,42,49,2
0,52,113,2
0,34,88,0
0,51,100,2
0,55,113,0
0,38,60,2
0,42,61,2
0,52,88,0
0,60,127,2
0,64,127,0
0,55,92,0
0,60,85,2
0,64,76,6
0,52,100,86
0,60,104,0
0,42,53,2
0,55,73,4
0,60,127,2
0,64,127,0
0,52,61,6
0,48,55,8
0,33,88,44
0,55,100,2
0,64,118,0
0,36,66,4
0,42,61,0
0,48,58,0
0,52,88,0
0,55,90,10
0,60,70,4
0,64,73,8
0,55,100,102
0,62,104,0
0,42,61,2
0,48,15,2
0,51,100,6
0,60,109,0
0,38,60,0
0,52,70,0
0,42,61,2
0,55,92,0
0,58,127,0
0,62,127,0
0,32,88,4
0,60,92,0
0,64,85,8
0,52,100,22
0,57,113,0
0,64,76,2
0,42,69,2
0,60,85,6
0,32,88,10
0,55,88,0
0,52,85,6
0,48,55,6
0,55,100,2
0,55,113,0
0,52,58,2
0,36,66,0
0,42,57,0
0,31,88,2
0,55,70,0
0,60,92,0
0,64,88,8
0,55,100,100
0,42,61,2
0,48,70,6
0,51,100,0
0,38,60,0
0,42,73,2
0,34,88,2
0,52,92,0
0,55,92,0
0,60,92,0
0,64,90,2
0,52,100,104
0,42,61,4
0,64,79,4
0,60,92,10
0,55,92,10
0,52,76,4
0,48,73,8
0,55,100,2
0,35,88,2
0,48,46,0
0,36,66,0
0,42,61,0
0,52,90,0
0,55,92,0
0,60,92,0
0,64,92,8
0,55,100,4
0,42,61,2
0,64,73,4
0,60,73,8
0,55,90,0
0,52,92,2
0,48,70,6
0,56,100,4
0,57,118,0
0,38,60,2
0,48,55,0
0,42,69,0
0,52,92,0
0,55,92,0
0,36,88,4
0,60,92,0
0,64,92,2
0,51,113,0
0,57,100,0
0,36,66,4
0,46,67,0
0,64,70,4
0,30,88,6
0,60,76,2
0,55,88,10
0,52,73,0
0,48,64,6
0,49,64,20
0,60,100,0
0,36,66,4
0,29,88,0
0,53,85,0
0,57,92,0
0,63,90,0
0,65,92,10
0,60,100,102
0,42,49,2
0,56,100,4
0,57,76,0
0,38,60,2
0,42,61,0
0,48,61,0
0,65,127,4
0,69,127,0
0,33,88,0
0,53,92,0
0,57,92,0
0,63,92,0
0,65,92,0
0,57,100,86
0,42,53,4
0,65,127,4
0,69,127,0
0,65,92,18
0,63,92,0
0,57,92,10
0,53,92,8
0,48,70,6
0,48,43,6
0,60,100,0
0,36,66,0
0,42,61,2
0,36,88,4
0,53,92,0
0,57,92,0
0,63,85,0
0,65,92,0
0,60,100,102
0,42,61,2
0,48,52,6
0,56,100,2
0,38,60,2
0,42,61,2
0,53,92,0
0,63,127,2
0,67,127,0
0,38,88,2
0,57,92,0
0,63,79,0
0,65,79,6
0,57,100,26
0,57,113,0
0,42,69,2
0,36,88,4
0,63,64,2
0,57,88,12
0,53,79,10
0,48,76,6
0,41,31,4
0,48,49,4
0,39,88,4
0,51,118,0
0,53,92,0
0,60,100,0
0,36,66,4
0,42,57,0
0,57,92,0
0,63,73,10
0,65,92,10
0,48,100,102
0,60,100,0
0,42,61,0
0,48,61,6
0,53,92,0
0,38,88,6
0,56,100,0
0,38,60,0
0,42,73,0
0,57,92,0
0,63,92,2
0,65,92,6
0,57,100,102
0,42,61,2
0,65,70,4
0,63,92,10
0,57,92,10
0,53,73,4
0,48,64,6
0,48,40,4
0,60,100,6
0,36,66,2
0,42,61,2
0,53,92,0
0,36,88,6
0,57,92,0
0,63,92,0
0,65,92,0
0,60,100,20
0,42,61,2
0,33,88,2
0,63,49,6
0,57,73,8
0,53,67,0
0,48,88,8
0,41,61,8
0,51,100,0
0,38,60,2
0,42,69,2
0,48,67,0
0,34,88,8
0,53,92,0
0,57,92,0
0,63,76,0
0,65,92,6
0,52,100,20
0,65,49,0
0,36,66,2
0,35,88,2
0,46,67,0
0,63,73,8
0,57,79,10
0,53,92,0
0,48,73,6
0,41,58,8
0,48,82,6
0,48,118,2
0,55,100,0
0,36,66,4
0,42,57,0
0,52,92,2
0,55,92,6
0,36,88,0
0,60,70,2
0,64,92,6
0,55,100,100
0,42,49,2
0,52,104,4
0,40,88,0
0,51,100,4
0,55,118,0
0,48,61,2
0,38,60,0
0,42,61,0
0,60,127,4
0,64,127,0
0,52,85,2
0,55,92,0
0,60,92,0
0,64,76,6
0,52,100,84
0,60,109,0
0,42,53,2
0,60,127,6
0,64,127,0
0,64,76,4
0,60,92,12
0,55,92,2
0,52,92,10
0,48,92,8
0,55,100,0
0,64,113,0
0,43,88,2
0,36,66,2
0,42,61,0
0,48,70,2
0,55,92,8
0,60,70,0
0,64,88,8
0,55,100,10
0,62,104,0
0,42,61,2
0,48,52,6
0,51,100,2
0,60,113,0
0,38,60,2
0,42,61,2
0,52,90,0
0,58,127,2
0,62,127,0
0,45,88,4
0,55,85,0
0,60,92,0
0,64,92,8
0,52,100,30
0,57,113,0
0,64,88,0
0,42,69,2
0,60,82,10
0,43,88,10
0,55,92,0
0,52,88,0
0,48,73,8
0,48,79,8
0,54,113,0
0,55,100,0
0,36,66,4
0,42,57,0
0,52,92,0
0,46,88,6
0,55,92,0
0,60,88,0
0,64,92,8
0,55,100,102
0,55,113,0
0,42,61,2
0,51,100,6
0,38,60,2
0,42,73,0
0,48,92,0
0,45,88,2
0,52,92,0
0,55,92,0
0,60,92,0
0,64,82,2
0,52,100,104
0,42,61,2
0,64,92,2
0,60,88,12
0,55,92,12
0,52,90,6
0,48,70,8
0,55,100,4
0,36,66,0
0,42,61,0
0,48,92,0
0,52,92,0
0,43,88,2
0,55,92,0
0,60,64,8
0,64,92,4
0,55,100,0
0,42,61,2
0,60,49,4
0,40,88,2
0,55,79,0
0,52,82,0
0,48,79,4
0,48,55,4
0,58,100,2
0,38,60,2
0,42,69,2
0,52,85,0
0,55,92,0
0,60,85,0
0,41,88,2
0,64,92,6
0,38,48,26
0,55,122,0
0,59,100,0
0,36,66,2
0,60,22,0
0,55,79,10
0,42,88,4
0,52,92,6
0,48,73,0
0,38,32,6
0,47,52,4
0,57,48,0
0,62,100,0
0,62,113,0
0,36,66,4
0,50,61,0
0,55,92,6
0,31,88,0
0,59,61,8
0,67,85,6
0,62,100,102
0,42,49,2
0,58,100,4
0,62,113,0
0,38,60,2
0,42,61,2
0,47,88,0
0,67,127,2
0,71,127,0
0,35,88,4
0,50,92,0
0,55,92,0
0,59,92,0
0,67,92,2
0,59,100,86
0,42,53,2
0,67,127,6
0,71,127,0
0,67,82,4
0,59,88,4
0,55,82,2
0,50,92,8
0,47,73,8
0,59,113,4
0,62,100,0
0,36,66,4
0,42,61,0
0,47,70,0
0,38,88,0
0,50,92,0
0,55,92,0
0,59,92,0
0,67,92,8
0,55,113,6
0,62,100,0
0,42,61,2
0,56,100,8
0,38,60,2
0,40,88,0
0,42,61,0
0,47,92,0
0,50,92,8
0,55,92,0
0,59,76,0
0,67,92,4
0,55,113,30
0,57,100,0
0,42,69,2
0,67,67,6
0,38,88,4
0,59,92,8
0,55,92,0
0,50,79,10
0,47,67,10
0,48,61,0
0,49,48,6
0,60,100,0
0,60,118,0
0,36,66,0
0,53,67,0
0,29,88,2
0,57,92,0
0,63,64,0
0,65,85,8
0,60,100,100
0,42,61,2
0,41,31,38
0,48,92,0
0,56,100,0
0,60,118,0
0,38,60,2
0,42,73,2
0,53,90,0
0,65,127,0
0,69,127,0
0,33,88,6
0,57,92,0
0,63,85,2
0,65,88,6
0,57,100,86
0,42,61,4
0,65,127,4
0,69,127,0
0,65,90,8
0,63,92,12
0,57,88,4
0,53,85,8
0,48,67,8
0,58,118,2
0,60,100,0
0,36,66,2
0,42,61,2
0,48,49,0
0,36,88,6
0,57,92,0
0,63,67,0
0,65,92,10
0,60,104,4
0,58,94,96
0,60,100,0
0,42,61,0
0,65,64,6
0,63,61,8
0,57,82,2
0,53,67,10
0,48,58,6
0,55,104,8
0,51,100,2
0,53,109,0
0,38,60,0
0,42,69,2
0,48,61,0
0,38,88,4
0,53,64,0
0,57,92,0
0,63,58,0
0,65,92,8
0,51,118,16
0,52,100,0
0,36,66,2
0,46,67,0
0,65,70,8
0,36,88,10
0,63,88,0
0,57,92,0
0,53,73,8
0,48,85,10
0,41,33,6
0,54,118,38
0,55,100,0
0,57,48,0
0,36,66,0
0,48,76,0
0,36,88,4
0,52,82,0
0,58,90,0
0,60,58,0
0,64,92,10
0,55,100,102
0,42,49,2
0,51,100,0
0,54,113,0
0,38,60,2
0,42,61,2
0,48,61,0
0,60,127,2
0,64,127,0
0,40,88,6
0,52,90,0
0,58,79,6
0,60,82,0
0,64,88,4
0,52,100,86
0,64,79,0
0,42,53,4
0,60,127,4
0,64,127,0
0,60,79,4
0,58,70,12
0,52,76,0
0,48,67,8
0,53,118,74
0,55,100,0
0,36,66,2
0,42,61,0
0,43,88,4
0,48,46,0
0,52,79,0
0,58,92,0
0,60,88,0
0,64,92,10
0,54,104,0
0,53,98,16
0,55,100,0
0,42,61,2
0,51,113,8
0,48,100,6
0,51,100,0
0,38,60,2
0,42,61,0
