track,note,velocity,time
0,60,119,1308
0,60,119,32
0,69,101,0
0,53,102,0
0,60,112,0
0,64,102,0
0,69,116,0
0,29,123,0
0,59,79,0
0,62,106,38
0,67,112,0
0,72,122,0
0,69,111,34
0,57,98,4
0,55,97,2
0,44,80,258
0,44,79,66
0,51,104,0
0,61,100,0
0,67,103,0
0,70,107,0
0,39,108,0
0,61,95,38
0,65,114,18
0,60,103,12
0,55,104,4
0,67,101,260
0,44,79,18
0,67,120,74
0,69,116,0
0,69,118,20
0,44,94,48
0,72,113,0
0,72,127,20
0,74,101,0
0,50,110,0
0,60,106,0
0,63,108,0
0,68,114,0
0,38,115,0
0,59,86,0
0,74,123,48
0,68,99,24
0,74,119,2
0,63,95,20
0,60,96,34
0,54,86,2
0,44,86,6
0,72,105,0
0,50,100,0
0,60,107,0
0,64,105,0
0,69,115,0
0,59,86,0
0,72,117,68
0,69,96,14
0,64,93,20
0,72,103,0
0,44,79,142
0,33,107,50
0,44,85,12
0,38,114,162
0,44,66,402
0,72,104,0
0,44,99,50
0,72,127,2
0,69,111,0
0,33,110,0
0,68,99,54
0,62,112,54
0,69,111,0
0,69,117,0
0,55,106,0
0,58,109,0
0,62,105,0
0,65,105,0
0,31,102,0
0,58,85,0
0,65,108,0
0,59,83,0
0,69,104,14
0,57,98,20
0,44,94,24
0,62,109,8
0,62,114,0
0,62,112,0
0,62,119,8
0,31,113,168
0,44,85,10
0,38,105,194
0,44,101,374
0,72,108,0
0,31,114,102
0,72,127,106
0,44,94,0
0,69,116,0
0,38,114,0
0,61,101,224
0,65,111,20
0,69,112,2
0,58,80,14
0,69,104,0
0,46,111,0
0,57,109,0
0,61,113,0
0,65,102,0
0,34,93,0
0,59,88,0
0,69,110,0
0,44,90,4
0,57,95,6
0,44,92,344
0,61,111,0
0,61,91,352
0,61,103,0
0,56,95,172
0,44,101,20
0,51,119,0
0,55,119,0
0,61,102,0
0,63,119,0
0,39,107,0
0,55,103,0
0,44,92,30
0,44,90,56
0,46,90,12
0,69,109,0
0,68,104,114
0,69,103,30
0,67,102,0
0,34,96,0
0,44,90,0
0,67,120,38
0,60,113,36
0,64,112,0
0,67,117,0
0,57,102,0
0,60,112,0
0,64,115,0
0,67,115,0
0,33,108,0
0,59,75,0
0,67,106,0
0,57,81,18
0,44,101,90
0,60,108,0
0,60,115,86
0,62,113,138
0,62,110,0
0,33,112,256
0,64,118,4
0,44,92,38
0,37,102,0
0,64,115,32
0,67,117,22
0,67,113,0
0,50,105,0
0,57,118,0
0,60,104,0
0,65,104,0
0,38,107,0
0,59,60,0
0,61,97,52
0,64,115,0
0,65,110,2
0,58,100,0
0,67,110,0
0,44,94,18
0,65,119,0
0,40,112,0
0,69,111,20
0,65,101,20
0,60,101,2
0,62,88,22
0,69,113,0
0,41,106,0
0,59,65,0
0,74,119,10
0,74,119,0
0,32,104,0
0,44,90,0
0,46,88,132
0,72,114,0
0,72,119,0
0,55,118,0
0,58,101,0
0,62,107,0
0,65,114,0
0,31,113,0
0,59,81,0
0,33,105,380
0,59,79,0
0,44,85,6
0,46,79,0
0,59,62,14
0,34,102,156
0,59,64,0
0,69,113,36
0,65,118,2
0,72,117,0
0,62,108,2
0,58,85,20
0,31,112,50
0,44,101,56
0,70,104,0
0,37,105,0
0,59,65,0
0,70,123,88
0,72,116,2
0,72,104,0
0,48,116,0
0,58,102,0
0,60,118,0
0,64,102,0
0,36,108,0
0,59,86,0
0,52,103,0
0,64,102,20
0,44,88,270
0,70,106,10
0,70,115,0
0,69,104,0
0,59,81,0
0,69,111,2
0,34,95,54
0,44,71,100
0,67,117,0
0,39,89,4
0,67,119,18
0,44,94,24
0,69,105,0
0,52,117,0
0,55,108,0
0,58,108,0
0,62,107,0
0,40,114,0
0,59,81,0
0,69,104,34
0,66,100,8
0,69,117,0
0,58,97,18
0,62,116,2
0,52,108,36
0,34,101,42
0,44,83,0
0,45,113,0
0,55,108,0
0,58,108,0
0,61,114,0
0,64,119,0
0,33,108,0
0,65,111,48
0,61,105,18
0,55,106,20
0,57,102,0
0,64,118,0
0,37,102,0
0,44,79,14
0,64,122,194
0,67,105,0
0,50,106,0
0,57,103,0
0,60,117,0
0,65,114,0
0,38,111,0
0,59,73,0
0,67,115,0
0,64,103,8
0,60,99,0
0,53,79,38
0,44,86,178
0,65,116,36
0,65,118,0
0,32,96,0
0,59,87,36
0,62,99,0
0,64,117,0
0,43,109,0
0,59,101,0
0,62,113,0
0,67,117,0
0,31,114,0
0,64,116,8
0,44,97,56
0,62,116,46
0,62,108,6
0,30,108,48
0,58,85,108
0,67,110,0
0,43,114,0
0,58,119,0
0,62,114,0
0,65,102,0
0,67,101,0
0,31,114,0
0,59,73,0
0,67,112,20
0,33,110,76
0,44,99,6
0,34,102,126
0,55,111,122
0,31,107,28
0,44,62,36
0,56,94,40
0,37,97,10
0,44,82,18
0,57,97,256
0,48,101,0
0,58,113,0
0,60,105,0
0,64,112,0
0,67,112,0
0,36,111,0
0,44,68,0
0,44,79,76
0,44,73,254
0,44,71,104
0,60,109,186
0,72,112,0
0,44,85,20
0,30,121,4
0,58,85,12
0,52,94,22
0,44,74,78
0,44,86,28
0,60,119,0
0,60,124,4
0,46,99,212
0,69,114,0
0,53,103,0
0,60,101,0
0,64,112,0
0,69,112,0
0,29,110,0
0,59,62,0
0,69,108,2
0,69,122,28
0,55,90,10
0,57,91,0
0,44,85,278
0,36,114,24
0,44,79,28
0,55,94,186
0,60,100,36
0,70,93,54
0,65,94,38
0,51,117,0
0,61,110,0
0,67,104,0
0,70,117,0
0,39,104,0
0,59,70,0
0,75,104,66
0,67,108,26
0,44,79,18
0,67,120,2
0,69,119,14
0,69,108,0
0,72,125,74
0,44,94,20
0,72,111,0
0,39,121,0
0,74,126,26
0,70,104,12
0,65,114,2
0,74,124,18
0,74,114,0
0,50,115,0
0,60,119,0
0,63,115,0
0,68,119,0
0,38,116,0
0,59,77,0
0,60,106,10
0,54,87,18
0,75,98,36
0,44,86,14
0,74,116,74
0,38,117,52
0,72,118,0
0,50,112,0
0,60,100,0
0,64,118,0
0,69,101,0
0,33,103,0
0,68,97,0
0,59,73,0
0,63,88,2
0,72,121,0
0,72,108,56
0,44,79,186
0,44,85,124
0,38,119,14
0,33,107,8
0,44,66,18
0,72,101,0
0,38,106,0
0,71,122,52
0,44,99,56
0,69,103,0
0,32,99,0
0,72,127,4
0,72,120,42
0,65,111,12
0,69,107,0
0,58,88,20
0,57,100,2
0,62,101,0
0,69,107,0
0,55,117,0
0,58,103,0
0,62,115,0
0,65,106,0
0,31,110,0
0,59,75,0
0,69,116,4
0,44,94,6
0,62,118,0
0,33,106,0
0,69,110,34
0,62,104,54
0,62,104,0
0,34,92,0
0,33,113,8
0,44,85,10
0,69,114,232
0,74,112,2
0,31,106,12
0,59,68,0
0,44,101,370
0,33,107,6
0,72,115,0
0,34,94,0
0,59,51,0
0,44,94,42
0,72,126,2
0,69,114,0
0,33,114,0
0,69,112,38
0,69,117,0
0,46,113,0
0,57,118,0
0,61,107,0
0,65,107,0
0,34,99,0
0,59,81,0
0,57,102,0
0,65,115,0
0,58,88,2
0,69,112,2
0,44,90,0
0,61,93,2
0,44,92,184
0,61,103,0
0,36,115,0
0,59,79,0
0,59,68,78
0,61,101,90
0,61,111,0
0,37,102,0
0,59,60,0
0,69,109,142
0,57,103,2
0,61,89,2
0,65,109,0
0,58,79,20
0,44,101,50
0,28,118,4
0,59,88,0
0,59,81,66
0,61,100,84
0,65,112,2
0,70,102,0
0,58,93,20
0,55,104,18
0,51,103,0
0,55,105,0
0,61,103,0
0,63,116,0
0,27,97,0
0,59,59,0
0,59,88,374
0,44,92,2
0,59,81,218
0,44,90,8
0,46,90,12
0,69,105,0
0,34,102,0
0,59,60,0
0,68,113,146
0,67,110,0
0,44,90,0
0,59,77,0
0,69,102,0
0,64,112,36
0,67,122,14
0,60,101,8
0,67,106,0
0,67,113,0
0,45,119,0
0,55,105,0
0,60,103,0
0,64,111,0
0,33,114,0
0,59,83,0
0,57,97,14
0,55,101,20
0,44,101,336
0,60,100,0
0,60,116,142
0,62,116,118
0,62,105,0
0,59,44,0
0,44,92,16
0,64,117,26
0,64,117,0
0,37,127,0
0,62,109,106
0,65,108,20
0,57,95,2
0,60,103,0
0,65,116,2
0,65,102,0
0,50,101,0
0,53,117,0
0,57,100,0
0,60,114,0
0,62,116,0
0,38,108,0
0,59,81,0
0,53,103,2
0,61,99,122
0,64,114,0
0,67,112,0
0,58,86,2
0,44,94,4
0,67,119,0
0,40,114,0
0,59,81,0
0,55,104,0
0,67,122,44
0,59,71,66
0,62,113,56
0,65,111,6
0,60,108,18
0,69,114,2
0,69,106,0
0,41,108,0
0,59,59,0
0,69,122,30
0,57,94,8
0,72,107,0
0,34,92,0
0,59,79,0
0,44,90,2
0,72,125,90
0,46,88,118
0,76,116,0
0,47,118,0
0,57,107,0
0,62,107,0
0,65,106,0
0,35,114,0
0,59,91,0
0,76,124,2
0,59,83,380
0,44,85,6
0,46,79,186
0,59,70,20
0,73,110,52
0,76,121,0
0,69,120,20
0,65,121,2
0,59,109,18
0,64,101,18
0,59,56,46
0,44,101,70
0,35,114,20
0,59,81,0
0,59,73,220
0,46,116,0
0,56,112,0
0,62,101,0
0,65,115,0
0,34,116,0
0,59,65,0
0,56,89,0
0,62,106,0
0,67,103,6
0,72,113,2
0,44,88,354
0,59,83,14
0,59,79,220
0,59,56,56
0,75,103,4
0,44,71,92
0,74,121,6
0,74,107,0
0,34,117,0
0,59,79,0
0,44,94,108
0,55,104,62
0,72,107,0
0,45,114,0
0,55,117,0
0,60,119,0
0,64,110,0
0,33,118,0
0,59,91,0
0,64,107,2
0,60,102,0
0,72,118,2
0,72,120,22
0,69,100,0
0,37,123,0
0,69,107,22
0,44,83,24
0,61,103,34
0,64,117,8
0,58,106,2
0,67,117,0
0,67,119,0
0,50,117,0
0,57,100,0
0,60,102,0
0,65,115,0
0,38,114,0
0,59,79,0
0,67,116,14
0,65,115,40
0,62,112,20
0,60,109,2
0,65,110,0
0,32,102,0
0,44,79,14
0,65,109,22
0,68,90,86
0,69,107,84
0,58,93,20
0,62,108,0
0,69,108,0
0,69,104,0
0,43,104,0
0,58,102,0
0,62,112,0
0,65,108,0
0,31,112,0
0,59,75,0
0,53,101,10
0,44,86,80
0,69,115,22
0,69,106,0
0,37,108,0
0,59,86,0
0,62,106,2
0,48,103,0
0,58,106,0
0,60,116,0
0,64,118,0
0,36,114,0
0,58,89,0
0,52,95,36
0,62,102,0
0,28,110,0
0,62,117,2
0,44,97,22
0,65,115,0
0,41,118,0
0,53,108,0
0,57,118,0
0,60,114,0
0,62,112,0
0,29,116,0
0,59,75,0
0,65,106,18
0,65,112,14
0,57,96,4
0,55,95,38
0,44,99,312
0,44,62,282
0,44,82,106
0,44,68,266
0,58,83,2
0,62,105,2
0,65,107,0
0,53,98,20
0,43,106,0
0,53,109,0
0,58,116,0
0,62,101,0
0,31,112,0
0,44,79,0
0,44,73,6
0,44,71,106
0,44,85,8
0,61,92,60
0,63,86,20
0,58,88,18
0,48,108,0
0,52,111,0
0,55,107,0
0,58,111,0
0,60,101,0
0,36,116,0
0,44,74,0
0,52,100,6
0,44,86,4
0,46,99,32
0,29,127,42
0,57,93,14
0,60,97,18
0,62,106,86
0,64,104,140
0,44,85,102
0,36,119,122
0,41,110,86
0,41,127,18
0,44,79,12
0,39,123,86
0,61,84,52
0,65,99,2
0,55,100,0
0,44,79,302
0,41,114,120
0,43,118,52
0,44,94,202
0,44,86,466
0,38,121,2
0,54,90,62
0,60,94,14
0,63,81,0
0,40,116,38
0,68,85,50
0,72,110,122
0,42,114,0
0,44,79,240
0,44,85,124
0,42,121,324
0,44,121,88
0,46,117,18
0,44,66,76
0,46,125,8
0,44,105,36
0,44,99,170
0,42,111,0
0,81,106,148
0,77,92,70
0,74,104,54
0,70,84,38
0,69,88,52
0,43,119,14
0,44,94,340
0,45,110,68
0,46,102,172
0,44,85,330
0,46,121,352
0,44,101,42
0,50,123,20
0,49,99,14
0,50,119,20
0,44,94,354
0,46,104,20
0,81,109,142
0,77,101,20
0,73,92,24
0,49,127,64
0,44,90,34
0,70,85,40
0,69,86,18
0,48,120,36
0,44,92,36
0,49,123,14
0,46,119,56
0,44,101,44
0,41,119,8
0,43,126,124
0,67,89,76
0,42,99,36
0,44,92,38
0,43,124,32
0,44,90,16
0,46,90,12
0,39,111,8
0,44,90,74
0,37,127,14
0,36,117,122
0,72,109,10
0,71,94,2
0,79,105,2
0,67,97,2
0,76,100,0
0,44,101,46
0,38,113,216
0,40,122,36
0,44,92,352
0,37,106,122
0,38,120,36
0,73,92,340
0,79,108,0
0,70,89,0
0,76,103,2
0,44,94,16
0,41,118,2
0,67,103,0
0,45,116,20
0,74,108,46
0,72,111,2
0,77,112,0
0,65,94,20
0,48,119,68
0,44,90,54
0,46,88,14
0,46,114,108
0,42,112,38
0,44,85,40
0,46,79,186
0,45,108,106
0,66,93,8
0,69,106,2
0,72,112,0
0,62,100,20
0,58,78,2
0,43,120,90
0,44,101,12
0,38,127,10
0,41,114,106
0,44,88,58
0,39,104,12
0,40,112,20
0,70,88,36
0,52,101,38
0,36,115,20
0,34,99,4
0,44,71,0
0,44,94,238
0,33,117,60
0,66,94,30
0,62,103,18
0,69,112,0
0,58,85,2
0,44,83,2
0,34,102,54
0,40,110,90
0,66,99,4
0,70,100,0
0,61,96,2
0,55,100,36
0,44,79,2
0,38,112,104
0,64,116,4
0,67,106,2
0,61,84,18
0,53,94,18
0,44,86,146
0,40,114,88
0,41,116,128
0,59,99,22
0,64,100,2
0,44,97,250
0,62,96,134
0,58,83,4
0,43,124,220
0,44,99,50
0,45,114,20
0,46,101,20
0,44,62,318
0,44,82,100
0,48,127,10
0,61,85,30
0,52,90,0
0,44,68,20
0,44,79,28
0,48,127,92
0,44,73,6
0,49,127,96
0,44,71,8
0,51,125,106
0,44,85,20
0,44,74,18
0,49,127,108
0,44,86,102
0,48,114,106
0,46,99,24
0,60,92,96
0,53,127,8
0,57,86,4
0,55,91,20
0,52,123,70
0,44,85,102
0,53,118,88
0,48,127,0
0,45,112,18
0,44,79,14
0,55,89,96
0,60,101,2
0,70,97,36
0,51,127,20
0,65,98,48
0,75,94,36
0,49,110,70
0,44,79,44
0,51,127,90
0,46,111,52
0,43,121,54
0,44,94,30
0,65,92,136
0,48,127,18
0,54,85,2
0,70,97,20
0,74,116,0
0,44,86,118
0,48,126,50
0,68,92,54
0,72,115,18
0,44,106,114
0,70,92,62
0,74,108,2
0,44,79,14
0,46,117,10
0,44,85,114
0,42,102,4
0,44,108,20
0,40,116,56
0,44,66,78
0,62,103,96
0,42,116,8
0,58,93,12
0,57,103,18
0,38,114,36
0,40,122,22
0,44,99,40
0,69,103,54
0,43,115,2
0,64,108,0
0,44,94,100
0,45,116,200
0,46,110,36
0,45,114,72
0,43,118,54
0,44,85,2
0,50,124,156
0,65,110,22
0,49,111,86
0,44,101,48
0,50,116,104
0,46,110,8
0,44,94,74
0,43,115,10
0,69,107,130
0,65,101,86
0,61,90,50
0,60,95,86
0,49,112,2
0,44,90,18
0,57,92,48
0,44,92,84
0,45,120,0
0,48,126,104
0,46,104,150
0,56,95,202
0,44,101,4
0,41,115,2
0,43,126,172
0,65,108,20
0,61,87,2
0,70,93,0
0,55,100,56
0,44,92,104
0,42,102,14
0,43,114,90
0,44,90,112
0,46,90,12
0,37,91,22
0,44,90,44
0,34,114,18
0,33,115,136
0,64,112,4
0,60,104,2
0,67,105,0
0,55,104,54
0,44,101,70
0,35,114,232
0,36,123,4
0,44,92,322
0,37,107,136
0,38,123,52
0,40,123,20
0,44,94,0
0,77,112,110
0,74,112,2
0,41,118,8
0,60,101,10
0,64,96,0
0,53,101,20
0,44,90,154
0,40,122,164
0,46,88,50
0,41,114,118
0,73,95,6
0,76,113,0
