track,note,velocity,time
1,69,117,1908
1,66,125,1
1,66,0,156
1,69,0,14
1,68,125,22
1,71,109,0
1,68,0,133
1,71,0,4
1,69,109,54
1,73,107,1
1,73,0,228
1,69,0,1
1,69,107,59
1,73,113,0
1,69,0,56
1,73,0,1
1,64,97,39
1,71,111,0
1,64,0,61
1,71,0,25
1,69,93,9
1,61,117,1
1,61,0,55
1,69,0,3
1,59,97,37
1,68,125,1
1,59,0,57
1,68,0,5
1,57,105,34
1,66,119,0
1,57,0,55
1,66,0,5
1,56,109,36
1,64,103,0
1,56,0,151
1,64,0,3
1,66,111,37
1,63,119,1
1,63,0,77
1,66,0,5
1,64,98,14
1,68,111,0
1,64,0,78
1,66,100,17
1,68,0,0
1,63,121,1
1,63,0,287
1,66,0,2
1,69,109,95
1,73,111,0
1,73,0,234
1,69,0,1
1,73,109,52
1,69,105,1
1,69,0,52
1,73,0,2
1,64,101,41
1,71,113,1
1,64,0,63
1,71,0,21
1,61,117,12
1,69,82,0
1,61,0,58
1,69,0,2
1,59,98,35
1,68,121,1
1,59,0,63
1,68,0,5
1,57,107,28
1,66,107,0
1,57,0,64
1,66,0,1
1,56,103,30
1,64,78,1
1,64,0,146
1,56,0,5
1,63,113,41
1,66,119,0
1,63,0,76
1,66,0,2
1,64,91,18
1,68,109,0
1,64,0,77
1,68,0,7
1,63,121,12
1,66,98,0
1,63,0,328
1,66,0,4
1,66,121,52
1,69,113,0
1,69,0,337
1,66,0,6
1,62,97,41
1,66,119,0
1,69,100,0
1,62,0,327
1,69,0,0
1,66,0,13
1,61,117,44
1,64,113,0
1,69,101,0
1,61,0,335
1,69,0,5
1,64,0,3
1,64,107,40
1,68,103,1
1,71,97,0
1,68,0,321
1,71,0,7
1,64,0,12
1,69,98,43
1,73,105,1
1,69,0,238
1,73,0,2
1,69,109,48
1,73,109,0
1,73,0,60
1,69,0,1
1,64,103,34
1,71,105,1
1,64,0,59
1,71,0,33
1,69,94,3
1,61,119,1
1,61,0,60
1,69,0,0
1,59,93,36
1,68,117,0
1,59,0,59
1,68,0,5
1,57,109,32
1,66,91,0
1,57,0,57
1,66,0,7
1,56,113,32
1,64,90,0
1,64,0,160
1,56,0,3
1,63,115,28
1,66,111,1
1,63,0,82
1,64,95,14
1,68,111,0
1,66,0,6
1,64,0,82
1,63,121,8
1,66,88,0
1,68,0,8
1,63,0,160
1,66,0,16
1,64,100,7
1,64,0,92
1,63,115,4
1,63,0,92
1,61,119,5
1,61,0,812
1,68,117,52
1,68,0,90
1,64,100,6
1,64,0,86
1,63,119,10
1,63,0,89
1,61,100,6
1,61,0,333
1,64,101,52
1,68,98,0
1,61,89,768
1,68,0,541
1,61,0,13
1,64,0,3
1,61,103,19
1,64,105,0
1,68,111,0
1,61,0,157
1,68,0,11
1,64,0,10
1,59,95,13
1,63,113,1
1,66,97,0
1,66,0,1392
1,63,0,8
1,59,0,7
1,59,93,33
1,63,123,0
1,66,98,0
1,59,0,66
1,66,0,19
1,63,0,2
1,57,107,9
1,61,103,0
1,64,90,0
1,57,0,1462
1,61,0,5
1,64,0,7
1,56,101,62
1,60,103,0
1,63,105,0
1,60,0,1285
1,56,0,3
1,63,0,6
1,63,121,50
1,66,119,0
1,63,0,87
1,68,117,8
1,64,111,1
1,66,0,8
1,64,0,78
1,68,0,6
1,61,107,4
1,66,107,0
1,69,95,0
1,61,0,344
1,66,0,10
1,69,0,1
1,59,101,28
1,64,109,1
1,68,113,0
1,68,0,329
1,59,0,19
1,64,0,4
1,66,105,31
1,57,93,1
1,62,103,0
1,57,0,525
1,62,0,5
1,66,0,2
1,64,109,43
1,68,109,1
1,64,0,55
1,68,0,31
1,66,121,10
1,69,105,0
1,66,0,64
1,69,0,9
1,62,100,23
1,66,94,0
1,71,91,0
1,62,0,338
1,71,0,23
1,66,0,1
1,61,117,22
1,64,97,0
1,69,95,0
1,61,0,328
1,64,0,13
1,69,0,8
1,59,103,35
1,64,111,0
1,68,109,0
1,64,0,444
1,68,0,0
1,59,0,1
1,64,127,35
1,68,127,0
1,64,0,78
1,68,0,4
1,66,127,14
1,69,127,0
1,66,0,79
1,69,0,4
1,68,119,12
1,71,125,0
1,68,0,78
1,71,0,2
1,69,109,16
1,73,107,1
1,73,0,228
1,69,0,1
1,69,107,59
1,73,113,0
1,69,0,56
1,73,0,1
1,64,97,39
1,71,111,0
1,64,0,61
1,71,0,25
1,69,93,9
1,61,117,1
1,61,0,55
1,69,0,3
1,59,97,38
1,68,125,0
1,59,0,57
1,68,0,5
1,57,105,34
1,66,119,0
1,57,0,56
1,66,0,4
1,56,109,36
1,64,103,0
1,56,0,151
1,64,0,3
1,66,111,37
1,63,119,1
1,63,0,77
1,66,0,5
1,64,98,14
1,68,111,0
1,64,0,78
1,68,0,17
1,63,121,1
1,66,100,0
1,63,0,288
1,66,0,1
1,69,109,95
1,73,111,0
1,73,0,234
1,69,0,1
1,73,109,52
1,69,105,1
1,69,0,52
1,73,0,2
1,64,101,41
1,71,113,1
1,64,0,63
1,71,0,21
1,61,117,12
1,69,82,0
1,61,0,58
1,69,0,2
1,59,98,36
1,68,121,0
1,59,0,63
1,68,0,5
1,57,107,28
1,66,107,0
1,57,0,64
1,66,0,1
1,56,103,30
1,64,78,1
1,64,0,146
1,56,0,5
1,63,113,41
1,66,119,0
1,63,0,76
1,66,0,2
1,64,91,18
1,68,109,0
1,64,0,76
1,68,0,8
1,66,98,11
1,63,121,1
1,63,0,327
1,66,0,5
1,66,121,52
1,69,113,0
1,69,0,337
1,66,0,6
1,62,97,41
1,66,119,0
1,69,100,0
1,62,0,327
1,69,0,0
1,66,0,13
1,61,117,44
1,64,113,0
1,69,101,0
1,61,0,335
1,69,0,5
1,64,0,3
1,64,107,41
1,68,103,0
1,71,97,0
1,68,0,321
1,71,0,7
1,64,0,9
1,69,98,46
1,73,105,1
1,69,0,238
1,73,0,2
1,69,109,48
1,73,109,0
1,73,0,60
1,69,0,1
1,64,103,34
1,71,105,1
1,64,0,59
1,71,0,34
1,69,94,2
1,61,119,1
1,61,0,60
1,69,0,0
1,59,93,36
1,68,117,0
1,59,0,58
1,68,0,8
1,57,109,30
1,66,91,0
1,57,0,57
1,66,0,7
1,56,113,32
1,64,90,0
1,64,0,266
1,56,0,14
1,64,95,8
1,68,111,0
1,64,0,88
1,63,121,8
1,66,88,0
1,68,0,8
1,63,0,160
1,66,0,16
1,64,100,7
1,64,0,92
1,63,115,5
1,63,0,91
1,61,119,5
1,61,0,813
1,68,117,51
1,68,0,90
1,64,100,6
1,64,0,86
1,63,119,10
1,63,0,89
1,61,100,6
1,61,0,333
1,64,101,52
1,68,98,0
1,61,89,768
1,68,0,541
1,61,0,13
1,64,0,3
1,61,103,19
1,64,105,0
1,68,111,0
1,61,0,157
1,68,0,11
1,64,0,10
1,59,95,13
1,63,113,1
1,66,97,0
1,66,0,1393
1,63,0,7
1,59,0,8
1,59,93,32
1,63,123,0
1,66,98,0
1,59,0,66
1,66,0,18
1,63,0,3
1,57,107,9
1,61,103,0
1,64,90,0
1,57,0,1462
1,61,0,5
1,64,0,7
1,56,101,61
1,60,103,1
1,63,105,0
1,60,0,1285
1,56,0,3
1,63,0,6
1,63,121,50
1,66,119,0
1,63,0,87
1,68,117,8
1,64,111,1
1,66,0,8
1,64,0,78
1,68,0,6
1,61,107,4
1,66,107,0
1,69,95,0
1,61,0,344
1,66,0,10
1,69,0,1
1,59,101,28
1,64,109,1
1,68,113,0
1,68,0,329
1,59,0,19
1,64,0,5
1,66,105,30
1,57,93,1
1,62,103,0
1,57,0,525
1,62,0,5
1,66,0,3
1,64,109,43
1,68,109,0
1,64,0,55
1,68,0,31
1,66,121,10
1,69,105,0
1,66,0,63
1,69,0,10
1,62,100,23
1,66,94,0
1,71,91,0
1,62,0,338
1,71,0,23
1,66,0,1
1,61,117,22
1,64,97,0
1,69,95,0
1,61,0,328
1,64,0,13
1,69,0,7
1,59,103,36
1,64,111,0
1,68,109,0
1,59,0,444
1,64,0,0
1,68,0,0
1,64,127,36
1,68,127,0
1,64,0,79
1,68,0,4
1,66,127,13
1,69,127,0
1,66,0,79
1,69,0,4
1,68,119,13
1,71,125,0
1,68,0,76
1,71,0,3
1,69,109,16
1,73,107,1
1,69,0,229
1,73,0,0
1,69,107,59
1,73,113,0
1,69,0,55
1,73,0,2
1,64,97,39
1,71,111,0
1,64,0,61
1,71,0,25
1,69,93,9
1,61,117,1
1,61,0,55
1,69,0,3
1,59,97,38
1,68,125,0
1,59,0,57
1,68,0,5
1,57,105,34
1,66,119,0
1,57,0,56
1,66,0,5
1,56,109,35
1,64,103,0
1,56,0,151
1,64,0,3
1,66,111,37
1,63,119,1
1,63,0,77
1,66,0,4
1,64,98,15
1,68,111,0
1,64,0,78
1,68,0,17
1,63,121,1
1,66,100,0
1,63,0,287
1,66,0,2
1,69,109,95
1,73,111,0
1,69,0,235
1,73,0,0
1,73,109,52
1,69,105,1
1,69,0,52
1,73,0,1
1,64,101,43
1,71,113,0
1,64,0,63
1,71,0,21
1,61,117,12
1,69,82,0
1,61,0,59
1,69,0,1
1,59,98,36
1,68,121,0
1,59,0,63
1,68,0,5
1,57,107,28
1,66,107,0
1,57,0,64
1,66,0,1
1,56,103,30
1,64,78,1
1,64,0,146
1,56,0,4
1,63,113,42
1,66,119,0
1,63,0,76
1,66,0,2
1,64,91,18
1,68,109,0
1,64,0,77
1,68,0,7
1,66,98,11
1,63,121,1
1,63,0,327
1,66,0,5
1,66,121,52
1,69,113,0
1,69,0,337
1,66,0,6
1,62,97,41
1,66,119,0
1,69,100,0
1,62,0,327
1,69,0,0
1,66,0,13
1,61,117,44
1,64,113,0
1,69,101,0
1,61,0,335
1,69,0,5
1,64,0,3
1,64,107,41
1,68,103,0
1,71,97,0
1,68,0,320
1,71,0,8
1,64,0,9
1,69,98,46
1,73,105,1
1,69,0,238
1,73,0,2
1,69,109,48
1,73,109,0
1,73,0,61
1,69,0,1
1,64,103,33
1,71,105,1
1,64,0,59
1,71,0,34
1,69,94,2
1,61,119,1
1,61,0,60
1,69,0,1
1,59,93,35
1,68,117,0
1,59,0,58
1,68,0,8
1,57,109,30
1,66,91,0
1,57,0,57
1,66,0,7
1,56,113,32
1,64,90,0
1,64,0,266
1,56,0,14
1,64,95,8
1,68,111,0
1,64,0,88
1,63,121,8
1,66,88,0
1,68,0,8
1,63,0,160
1,66,0,16
1,64,100,7
1,64,0,92
1,63,115,5
1,63,0,91
1,61,119,5
1,61,0,813
1,68,117,51
1,68,0,90
1,64,100,6
1,64,0,86
1,63,119,10
1,63,0,89
1,61,100,6
1,61,0,238
1,66,109,95
1,61,102,1
1,69,85,0
1,61,0,18
1,66,0,1
1,69,0,1
1,61,102,8
1,66,105,0
1,69,91,0
1,61,0,18
1,66,0,1
1,69,0,1
1,64,95,171
1,61,105,1
1,69,91,0
1,61,0,20
1,69,0,1
1,64,0,2
1,61,105,169
1,64,98,0
1,69,88,0
1,61,0,20
1,64,0,4
1,69,0,0
1,59,85,168
1,64,91,0
1,68,91,0
1,59,0,20
1,64,0,0
1,68,0,3
1,59,95,168
1,64,98,1
1,68,102,0
1,59,0,20
1,64,0,1
1,68,0,2
1,59,91,169
1,63,117,0
1,66,113,0
1,59,0,22
1,63,0,0
1,66,0,0
1,66,126,169
1,59,102,1
1,63,127,0
1,59,0,74
1,63,0,20
1,61,98,2
1,69,72,0
1,61,0,18
1,69,0,6
1,66,0,12
1,61,113,60
1,66,105,0
1,69,95,0
1,66,0,17
1,69,0,1
1,61,0,1
1,61,113,173
1,66,109,0
1,69,98,0
1,69,0,16
1,66,0,2
1,61,0,1
1,61,109,173
1,64,98,0
1,69,95,0
1,61,0,18
1,69,0,0
1,64,0,2
1,61,109,172
1,64,98,0
1,69,98,0
1,61,0,17
1,64,0,3
1,69,0,0
1,59,95,171
1,64,95,1
1,68,98,0
1,64,0,15
1,59,0,1
1,68,0,0
1,59,91,172
1,64,98,0
1,68,102,0
1,64,0,18
1,59,0,1
1,68,0,1
1,63,113,171
1,59,95,1
1,66,109,0
1,63,0,19
1,66,0,1
1,59,0,1
1,59,105,171
1,63,127,0
1,66,122,0
1,59,0,72
1,66,0,4
1,63,0,2
1,57,98,18
1,61,102,0
1,66,102,0
1,57,0,80
1,61,0,0
1,66,0,0
1,61,113,8
1,57,102,1
1,66,105,0
1,57,0,183
1,61,0,0
1,66,0,0
1,62,105,9
1,66,113,0
1,69,102,0
1,62,0,182
1,66,0,1
1,69,0,0
1,62,105,9
1,66,109,0
1,69,85,0
1,62,0,183
1,66,0,0
1,69,0,0
1,61,113,9
1,64,91,0
1,69,98,0
1,61,0,183
1,64,0,0
1,69,0,0
1,61,117,9
1,64,98,0
1,69,88,0
1,61,0,183
1,64,0,0
1,69,0,0
1,64,95,8
1,59,91,1
1,68,102,0
1,59,0,183
1,64,0,0
1,68,0,0
1,59,102,9
1,64,109,0
1,68,117,0
1,68,0,27
1,59,0,1
1,64,0,0
1,69,69,146
1,61,95,1
1,66,95,0
1,61,0,18
1,66,0,2
1,69,0,5
1,61,109,167
1,66,109,0
1,69,85,0
1,69,0,13
1,61,0,3
1,66,0,1
1,69,91,167
1,61,109,1
1,64,95,0
1,61,0,20
1,69,0,0
1,64,0,1
1,61,113,1
1,64,91,0
1,69,95,0
1,64,0,15
1,61,0,2
1,69,0,3
1,59,88,167
1,64,91,0
1,68,105,0
1,59,0,21
1,64,0,1
1,68,0,0
1,59,88,170
1,64,95,0
1,68,109,0
1,59,0,22
1,64,0,0
1,68,0,0
1,59,95,170
1,63,113,0
1,66,102,0
1,63,0,20
1,59,0,3
1,66,0,0
1,66,113,168
1,59,102,1
1,63,122,0
1,59,0,34
1,63,0,1
1,66,0,1
1,69,109,60
1,73,107,0
1,69,0,132
1,73,0,1
1,69,107,58
1,73,113,1
1,69,0,56
1,73,0,1
1,64,97,38
1,71,111,1
1,64,0,61
1,71,0,25
1,69,93,9
1,61,117,1
1,61,0,54
1,69,0,3
1,59,97,39
1,68,125,0
1,59,0,58
1,68,0,3
1,57,105,35
1,66,119,0
1,57,0,56
1,66,0,5
1,64,103,34
1,56,109,1
1,56,0,150
1,64,0,3
1,63,119,39
1,66,111,0
1,63,0,78
1,66,0,4
1,64,98,14
1,68,111,0
1,64,0,79
1,68,0,16
1,63,121,1
1,66,100,0
1,63,0,288
1,66,0,2
1,69,109,94
1,73,111,0
1,69,0,235
1,73,0,0
1,69,105,53
1,73,109,0
1,69,0,52
1,73,0,1
1,64,101,43
1,71,113,0
1,64,0,63
1,71,0,21
1,61,117,12
1,69,82,0
1,61,0,59
1,69,0,1
1,59,98,35
1,68,121,1
1,59,0,64
1,68,0,4
1,66,107,27
1,57,107,1
1,57,0,64
1,66,0,0
1,56,103,32
1,64,78,0
1,64,0,146
1,56,0,5
1,66,119,40
1,63,113,1
1,63,0,76
1,66,0,2
1,64,91,17
1,68,109,1
1,64,0,76
1,68,0,8
1,63,121,12
1,66,98,0
1,63,0,328
1,66,0,4
1,69,113,51
1,66,121,1
1,69,0,336
1,66,0,8
1,69,100,39
1,62,97,1
1,66,119,0
1,62,0,327
1,69,0,0
1,66,0,13
1,61,117,44
1,64,113,0
1,69,101,0
1,61,0,336
1,69,0,4
1,64,0,2
1,64,107,42
1,68,103,0
1,71,97,0
1,68,0,320
1,71,0,8
1,64,0,10
1,69,98,46
1,73,105,0
1,69,0,237
1,73,0,3
1,69,109,47
1,73,109,1
1,73,0,60
1,69,0,2
1,64,103,34
1,71,105,0
1,64,0,58
1,71,0,35
1,61,119,3
1,69,94,0
1,61,0,60
1,69,0,0
1,59,93,36
1,68,117,0
1,59,0,59
1,68,0,6
1,66,91,30
1,57,109,1
1,57,0,57
1,66,0,8
1,64,90,30
1,56,113,1
1,64,0,266
1,56,0,13
1,64,95,9
1,68,111,0
1,64,0,89
1,66,88,6
1,63,121,1
1,68,0,8
