track,note,velocity,time
0,40,58,88
0,42,127,0
0,45,84,0
0,56,75,0
0,64,74,0
0,81,127,0
0,56,71,12
0,40,74,4
0,42,127,0
0,47,87,0
0,56,17,0
0,83,127,0
0,56,83,112
0,42,127,4
0,48,85,0
0,60,100,0
0,84,127,0
0,56,60,96
0,40,105,8
0,62,96,0
0,40,90,4
0,42,127,0
0,52,88,0
0,56,71,0
0,64,100,0
0,88,127,0
0,40,55,56
0,35,127,8
0,67,84,0
0,29,127,4
0,35,127,0
0,42,127,0
0,56,68,0
0,57,83,0
0,57,93,0
0,60,93,0
0,64,88,0
0,67,86,0
0,72,127,0
0,79,127,0
0,91,127,0
0,42,127,40
0,56,70,40
0,40,127,18
0,42,127,0
0,71,127,0
0,42,127,24
0,56,70,0
0,79,126,0
0,29,80,72
0,35,103,0
0,29,127,30
0,35,84,0
0,42,127,0
0,69,127,0
0,29,103,26
0,29,127,34
0,35,127,0
0,46,127,0
0,65,90,0
0,77,123,0
0,89,127,0
0,23,113,14
0,40,127,0
0,42,127,0
0,64,86,0
0,67,127,0
0,76,127,0
0,88,127,0
0,24,111,36
0,35,126,0
0,42,127,0
0,56,87,0
0,56,62,0
0,59,93,0
0,62,99,0
0,62,100,0
0,65,71,0
0,72,127,0
0,84,127,0
0,26,93,30
0,35,127,0
0,42,127,0
0,56,70,0
0,64,127,0
0,26,127,8
0,42,127,0
0,67,127,0
0,74,127,0
0,86,127,0
0,56,70,72
0,26,126,28
0,40,127,0
0,42,127,0
0,69,127,0
0,76,126,0
0,88,127,0
0,28,127,98
0,42,127,0
0,52,80,0
0,56,80,0
0,56,70,0
0,59,80,0
0,62,126,0
0,64,97,0
0,74,127,0
0,86,127,0
0,35,120,84
0,35,91,36
0,42,127,0
0,60,99,0
0,28,93,0
0,28,126,30
0,35,127,0
0,46,127,0
0,60,127,0
0,62,79,0
0,72,127,0
0,84,127,0
0,40,127,16
0,42,127,0
0,64,71,0
0,86,127,0
0,28,127,102
0,35,127,0
0,42,127,0
0,52,107,0
0,56,70,0
0,57,106,0
0,60,59,0
0,60,88,0
0,64,86,0
0,88,127,0
0,26,117,36
0,35,127,0
0,42,127,0
0,56,70,0
0,42,127,60
0,64,127,0
0,56,70,94
0,40,127,24
0,42,127,0
0,42,127,18
0,50,83,0
0,54,91,0
0,56,70,0
0,57,76,0
0,57,100,0
0,62,97,0
0,69,100,0
0,86,127,0
0,26,83,82
0,35,126,0
0,26,126,24
0,35,86,0
0,42,127,0
0,62,127,0
0,26,103,36
0,26,126,28
0,35,126,0
0,46,127,0
0,26,103,16
0,40,127,0
0,42,127,0
0,60,127,0
0,31,127,4
0,35,123,0
0,42,127,0
0,56,58,0
0,57,117,0
0,60,117,0
0,64,127,0
0,64,127,0
0,64,117,0
0,67,127,0
0,67,117,0
0,79,127,0
0,91,127,0
0,35,127,56
0,42,127,0
0,56,68,0
0,30,127,30
0,40,127,0
0,42,127,0
0,50,71,0
0,54,76,0
0,57,76,0
0,60,76,0
0,66,127,0
0,66,115,0
0,67,127,0
0,78,122,0
0,90,122,0
0,56,68,42
0,29,98,16
0,40,127,0
0,42,127,0
0,65,127,0
0,65,127,0
0,65,106,0
0,77,96,0
0,89,126,0
0,28,127,48
0,28,102,0
0,42,127,0
0,50,80,0
0,52,100,0
0,56,95,0
0,56,70,0
0,59,80,0
0,64,127,0
0,65,127,0
0,76,127,0
0,88,127,0
0,28,77,14
0,35,120,0
0,28,101,28
0,35,85,0
0,42,127,0
0,65,127,0
0,28,77,52
0,24,127,26
0,28,95,0
0,35,127,0
0,46,127,0
0,60,127,0
0,65,127,0
0,72,127,0
0,84,127,0
0,28,77,14
0,26,127,24
0,28,101,0
0,40,127,0
0,42,127,0
0,62,127,0
0,64,127,0
0,74,127,0
0,86,127,0
0,28,77,20
0,28,127,24
0,28,102,0
0,35,126,0
0,42,127,0
0,50,103,0
0,52,107,0
0,56,107,0
0,56,68,0
0,59,73,0
0,62,127,0
0,64,127,0
0,67,127,0
0,79,127,0
0,91,127,0
0,28,77,4
0,29,127,36
0,35,127,0
0,42,127,0
0,53,113,0
0,56,32,0
0,57,108,0
0,57,93,0
0,60,103,0
0,64,106,0
0,42,127,40
0,64,127,0
0,76,111,0
0,53,111,30
0,56,34,8
0,29,127,18
0,40,127,0
0,42,127,0
0,57,104,0
0,60,111,0
0,76,108,0
0,42,127,24
0,53,111,0
0,56,34,0
0,76,123,0
0,57,101,40
0,60,111,0
0,29,108,8
0,35,103,0
0,29,127,4
0,35,84,0
0,42,127,0
0,74,86,0
0,53,111,6
0,29,103,8
0,29,127,18
0,35,127,0
0,46,127,0
0,60,111,0
0,64,95,0
0,72,113,0
0,40,127,30
0,42,127,0
0,57,111,0
0,60,111,0
0,72,126,0
0,29,127,28
0,35,126,0
0,42,127,0
0,52,111,0
0,56,26,0
0,57,98,0
0,59,113,0
0,62,106,0
0,69,82,0
0,28,127,8
0,35,127,0
0,42,127,0
0,56,34,0
0,72,127,0
0,42,127,2
0,74,80,0
0,56,34,88
0,28,127,28
0,40,127,0
0,42,127,0
0,76,111,0
0,42,127,68
0,52,108,0
0,56,122,0
0,56,34,0
0,59,108,0
0,62,106,0
0,74,111,0
0,28,89,84
0,35,120,0
0,28,127,28
0,35,91,0
0,42,127,0
0,59,111,0
0,64,110,0
0,28,98,36
0,28,127,26
0,35,127,0
0,46,127,0
0,40,127,16
0,42,127,0
0,59,111,0
0,64,110,0
0,28,127,10
0,35,127,0
0,42,127,0
0,52,100,0
0,55,108,0
0,56,34,0
0,57,104,0
0,57,126,0
0,60,107,0
0,60,103,0
0,72,127,0
0,33,127,16
0,35,127,0
0,42,127,0
0,56,34,0
0,76,113,0
0,42,127,92
0,76,117,0
0,52,92,2
0,56,34,8
0,33,127,24
0,40,127,0
0,42,127,0
0,57,107,0
0,60,111,0
0,76,108,0
0,42,127,42
0,52,101,0
0,56,34,0
0,76,111,0
0,57,111,50
0,60,111,0
0,33,69,8
0,35,126,0
0,33,127,24
0,35,86,0
0,42,127,0
0,74,91,0
0,52,111,10
0,33,80,8
0,33,127,20
0,35,126,0
0,46,127,0
0,60,111,0
0,64,101,0
0,72,108,0
0,40,127,16
0,42,127,0
0,57,111,0
0,60,111,0
0,72,108,0
0,33,127,28
0,35,123,0
0,42,127,0
0,50,106,0
0,53,120,0
0,56,22,0
0,58,125,0
0,62,117,0
0,69,93,0
0,31,120,16
0,35,127,0
0,42,127,0
0,56,32,0
0,74,108,0
0,28,127,30
0,42,127,0
0,69,108,0
0,56,32,36
0,28,127,24
0,31,127,0
0,40,127,0
0,42,127,0
0,69,71,0
0,42,127,72
0,48,109,0
0,53,102,0
0,56,34,0
0,58,112,0
0,60,112,0
0,69,96,0
0,28,127,2
0,31,126,0
0,35,120,0
0,24,111,2
0,35,85,0
0,42,127,0
0,57,111,0
0,62,111,0
0,67,111,0
0,24,120,52
0,24,96,12
0,35,127,0
0,46,127,0
0,28,127,34
0,40,127,0
0,42,127,0
0,57,111,0
0,62,111,0
0,28,111,34
0,24,127,4
0,35,126,0
0,42,127,0
0,48,98,0
0,56,32,0
0,60,111,0
0,45,94,18
0,47,98,0
0,43,98,24
0,29,127,24
0,35,127,0
0,41,98,0
0,42,127,0
0,53,117,0
0,56,32,0
0,57,120,0
0,57,93,0
0,60,108,0
0,64,108,0
0,42,127,40
0,76,127,0
0,53,110,8
0,56,34,8
0,29,127,18
0,40,127,0
0,42,127,0
0,57,111,0
0,60,111,0
0,76,120,0
0,42,127,24
0,53,111,0
0,56,34,0
0,76,108,0
0,57,111,40
0,60,111,0
0,29,71,8
0,35,103,0
0,29,127,26
0,35,84,0
0,42,127,0
0,74,93,0
0,53,111,10
0,29,93,8
0,29,127,24
0,35,127,0
0,46,127,0
0,60,111,0
0,62,95,0
0,64,110,0
0,72,108,0
0,40,127,30
0,42,127,0
0,57,111,0
0,60,111,0
0,72,117,0
0,29,127,46
0,35,126,0
0,42,127,0
0,52,113,0
0,56,26,0
0,57,117,0
0,59,127,0
0,62,106,0
0,69,100,0
0,28,120,36
0,35,127,0
0,42,127,0
0,56,34,0
0,72,127,0
0,42,127,28
0,74,98,0
0,56,34,34
0,28,127,28
0,40,127,0
0,42,127,0
0,76,126,0
0,42,127,14
0,56,34,0
0,74,111,0
0,28,69,84
0,35,120,0
0,28,127,36
0,35,91,0
0,42,127,0
0,59,111,0
0,64,101,0
0,28,80,44
0,28,127,28
0,35,127,0
0,46,127,0
0,72,127,0
0,40,127,16
0,42,127,0
0,59,111,0
0,64,107,0
0,74,127,0
0,28,127,36
0,35,127,0
0,42,127,0
0,56,34,0
0,57,111,0
0,60,111,0
0,76,127,0
0,35,127,26
0,42,127,0
0,50,100,0
0,55,100,0
0,56,34,0
0,57,111,0
0,60,86,0
0,26,113,58
0,42,127,0
0,72,127,0
0,56,34,14
0,26,126,24
0,40,127,0
0,42,127,0
0,74,126,0
0,42,127,42
0,50,98,0
0,54,127,0
0,56,34,0
0,57,111,0
0,60,96,0
0,76,113,0
0,35,126,60
0,35,86,36
0,42,127,0
0,26,120,72
0,35,126,0
0,46,127,0
0,57,111,0
0,60,111,0
0,72,123,0
0,38,111,0
0,40,127,0
0,42,127,0
0,72,117,0
0,26,127,6
0,35,123,0
0,42,127,0
0,55,113,0
0,56,22,0
0,57,120,0
0,60,127,0
0,64,100,0
0,77,120,0
0,35,127,86
0,42,127,0
0,56,32,0
0,57,80,52
0,31,127,18
0,40,127,0
0,42,127,0
0,57,111,0
0,76,89,0
0,56,32,36
0,30,127,18
0,40,127,0
0,42,127,0
0,57,111,0
0,76,120,0
0,28,102,22
0,29,127,0
0,42,127,0
0,54,111,0
0,56,34,0
0,57,111,0
0,57,117,0
0,60,113,0
0,64,93,0
0,76,123,0
0,28,77,22
0,35,120,0
0,28,101,28
0,35,85,0
0,42,127,0
0,57,111,0
0,72,111,0
0,28,77,52
0,26,127,26
0,28,95,0
0,35,127,0
0,46,127,0
0,52,111,0
0,52,117,0
0,56,100,0
0,57,117,0
0,59,100,0
0,62,113,0
0,28,77,44
0,28,127,12
0,28,101,0
0,40,127,0
0,42,127,0
0,50,111,0
0,60,123,0
0,28,77,34
0,28,127,0
0,28,102,0
0,35,126,0
0,42,127,0
0,48,111,0
0,64,113,0
0,72,127,0
0,56,32,0
0,28,77,32
0,29,127,36
0,35,127,0
0,42,127,0
0,53,113,0
0,56,32,0
0,57,108,0
0,57,93,0
0,60,103,0
0,64,127,0
0,64,106,0
0,79,127,0
0,42,127,40
0,45,123,44
0,56,34,10
0,29,127,18
0,40,127,0
0,42,127,0
0,48,127,0
0,77,127,0
0,42,127,10
0,45,82,0
0,56,34,0
0,76,127,0
0,48,127,26
0,29,108,32
0,35,103,0
0,29,127,22
0,35,84,0
0,42,127,0
0,76,127,0
0,45,126,6
0,29,103,12
0,29,127,18
0,35,127,0
0,46,127,0
0,52,127,0
0,40,127,18
0,42,127,0
0,74,127,0
0,29,127,20
0,35,126,0
0,42,127,0
0,52,111,0
0,56,26,0
0,57,98,0
0,59,113,0
0,62,113,0
0,62,127,0
0,62,106,0
0,72,127,0
0,28,127,8
0,35,127,0
0,42,127,0
0,56,34,0
0,72,127,0
0,42,127,2
0,74,127,0
0,45,80,56
0,56,34,16
0,28,127,28
0,40,127,0
0,42,127,0
0,48,127,0
0,76,127,0
0,42,127,68
0,45,98,0
0,52,108,0
0,56,122,0
0,56,34,0
0,59,108,0
0,62,106,0
0,77,127,0
0,48,127,52
0,28,89,32
0,35,120,0
0,28,127,2
0,35,91,0
0,42,127,0
0,76,127,0
0,28,98,36
0,28,127,26
0,35,127,0
0,46,127,0
0,50,127,0
0,57,117,0
0,40,127,16
0,42,127,0
0,60,120,0
0,72,127,0
0,72,127,0
0,28,127,6
0,35,127,0
0,42,127,0
0,52,100,0
0,55,108,0
0,56,34,0
0,57,126,0
0,60,127,0
0,60,103,0
0,64,120,0
0,76,127,0
0,76,127,0
0,33,127,16
0,35,127,0
0,42,127,0
0,56,34,0
0,42,127,92
0,69,127,0
0,45,117,62
0,56,34,8
0,33,127,24
0,40,127,0
0,42,127,0
0,48,127,0
0,42,127,42
0,45,93,0
0,56,34,0
0,72,127,0
0,48,127,50
0,33,69,32
0,35,126,0
0,33,127,34
0,35,86,0
0,42,127,0
0,45,100,10
0,33,80,16
0,33,127,26
0,35,126,0
0,46,127,0
0,50,127,0
0,40,127,16
0,42,127,0
0,69,96,0
0,69,126,0
0,72,127,0
0,33,127,40
0,35,123,0
0,42,127,0
0,50,106,0
0,53,120,0
0,56,22,0
0,58,125,0
0,62,117,0
0,67,103,0
0,67,126,0
0,74,127,0
0,31,120,16
0,35,127,0
0,42,127,0
0,56,32,0
0,69,127,0
0,48,127,80
0,28,127,4
0,42,127,0
0,69,127,0
0,56,32,72
0,48,85,6
0,48,127,18
0,28,127,2
0,31,127,0
0,40,127,0
0,42,127,0
0,62,127,0
0,62,127,0
0,67,126,0
0,42,127,36
0,48,109,0
0,53,102,0
0,56,34,0
0,58,112,0
0,60,111,0
0,60,127,0
0,60,112,0
0,48,127,8
0,31,126,64
0,35,120,0
0,48,123,4
0,24,111,20
0,35,85,0
0,42,127,0
0,52,127,8
0,24,120,52
0,24,96,12
0,35,127,0
0,46,127,0
0,57,123,0
0,62,127,0
0,76,127,0
0,52,127,4
0,50,127,6
0,28,127,6
0,40,127,0
0,42,127,0
0,60,123,0
0,64,120,0
0,81,126,0
0,28,127,8
0,48,127,28
0,24,127,4
0,35,126,0
0,42,127,0
0,45,98,0
0,56,32,0
0,64,127,0
0,67,123,0
0,79,127,0
0,43,68,24
0,29,127,4
0,35,127,0
0,42,127,0
0,53,117,0
0,56,32,0
0,57,120,0
0,57,93,0
0,60,108,0
0,64,108,0
0,42,127,40
0,79,127,0
0,45,123,0
0,56,34,10
0,29,127,18
0,40,127,0
0,42,127,0
0,48,127,0
0,77,127,0
0,42,127,22
0,45,82,0
0,56,34,0
0,76,126,0
0,48,127,26
0,29,71,32
0,35,103,0
0,29,127,26
0,35,84,0
0,42,127,0
0,76,127,0
0,45,126,10
0,29,93,12
0,29,127,32
0,35,127,0
0,46,127,0
0,52,127,0
0,74,93,0
0,40,127,30
0,42,127,0
0,74,120,0
0,29,127,0
0,35,126,0
0,42,127,0
0,52,113,0
0,56,26,0
0,57,117,0
0,59,127,0
0,62,113,0
0,62,127,0
0,62,106,0
0,72,127,0
0,28,120,36
0,35,127,0
0,42,127,0
0,56,34,0
0,72,127,0
0,42,127,84
0,74,117,0
0,45,80,18
0,56,34,16
0,28,127,28
0,40,127,0
0,42,127,0
0,48,127,0
0,76,127,0
0,42,127,14
0,45,98,0
0,56,34,0
0,77,127,0
0,48,127,52
0,28,69,32
0,35,120,0
0,28,127,20
0,35,91,0
0,42,127,0
0,76,126,0
0,28,80,6
0,28,127,28
0,35,127,0
0,46,127,0
0,50,127,0
0,72,127,0
0,40,127,16
0,42,127,0
0,74,127,0
0,62,108,28
0,28,127,68
0,35,127,0
0,42,127,0
0,56,34,0
0,60,100,0
0,60,127,0
0,76,127,0
0,35,127,18
0,42,127,0
0,50,100,0
0,55,100,0
0,56,34,0
0,57,111,0
0,60,86,0
0,26,113,92
0,42,127,0
0,48,127,0
0,72,127,0
0,48,72,62
0,56,34,0
0,26,126,24
0,40,127,0
0,42,127,0
0,48,127,0
0,74,127,0
0,45,91,18
0,42,127,34
0,50,98,0
0,54,127,0
0,56,34,0
0,57,111,0
0,60,96,0
0,76,127,0
0,48,127,4
0,35,126,60
0,50,108,8
0,35,86,20
0,42,127,0
0,48,127,16
0,26,120,116
0,35,126,0
0,46,127,0
0,72,127,0
0,48,127,4
0,48,89,44
0,38,111,0
0,40,127,0
0,42,127,0
0,72,127,0
0,48,127,2
0,72,108,20
0,45,111,12
0,26,127,6
0,35,123,0
0,42,127,0
0,55,113,0
0,56,22,0
0,57,120,0
0,60,127,0
