track,note,velocity,time
0,62,107,1643
0,65,102,0
0,58,92,0
0,54,108,0
0,54,72,30
0,58,96,30
0,62,96,0
0,65,96,0
0,82,110,0
0,54,84,0
0,54,72,18
0,82,110,30
0,54,112,0
0,54,76,25
0,58,96,32
0,62,96,0
0,65,96,0
0,82,104,0
0,54,88,0
0,54,76,17
0,67,119,0
0,79,104,0
0,54,112,0
0,54,76,14
0,58,98,21
0,62,98,0
0,67,98,0
0,79,110,0
0,54,88,0
0,54,76,15
0,79,110,21
0,54,110,0
0,54,74,31
0,62,96,31
0,67,96,0
0,58,96,0
0,75,110,0
0,54,86,0
0,54,74,13
0,60,92,16
0,67,119,0
0,63,97,0
0,54,112,0
0,54,76,34
0,60,98,34
0,63,98,0
0,67,98,0
0,79,121,0
0,54,88,0
0,54,76,21
0,79,121,3
0,54,112,0
0,54,76,22
0,60,102,22
0,67,102,0
0,63,102,0
0,77,110,0
0,54,88,0
0,54,76,14
0,65,97,0
0,69,107,0
0,54,110,0
0,54,74,30
0,57,100,30
0,65,100,0
0,60,100,0
0,54,86,0
0,67,127,4
0,54,74,20
0,54,112,8
0,67,127,3
0,54,76,18
0,57,82,31
0,60,97,0
0,65,92,0
0,54,88,0
0,65,116,4
0,54,76,6
0,62,107,0
0,65,102,0
0,58,92,0
0,54,108,0
0,54,72,30
0,58,96,30
0,62,96,0
0,65,96,0
0,82,104,0
0,54,84,0
0,54,72,18
0,82,104,30
0,54,112,0
0,54,76,28
0,58,96,32
0,62,96,0
0,65,96,0
0,82,104,0
0,54,88,0
0,54,76,17
0,67,119,0
0,79,110,0
0,54,112,0
0,54,76,21
0,58,98,21
0,62,98,0
0,67,98,0
0,79,110,0
0,54,88,0
0,54,76,16
0,79,116,21
0,54,110,0
0,54,74,31
0,62,96,31
0,67,96,0
0,58,96,0
0,79,116,0
0,54,86,0
0,54,74,13
0,60,92,16
0,67,119,0
0,63,97,0
0,54,112,0
0,54,76,34
0,60,98,34
0,63,98,0
0,67,98,0
0,79,116,0
0,54,88,0
0,54,76,21
0,79,110,34
0,54,112,0
0,54,76,22
0,60,102,22
0,67,102,0
0,63,102,0
0,82,113,0
0,54,88,0
0,54,76,14
0,65,97,0
0,69,107,0
0,81,116,0
0,54,110,0
0,54,74,30
0,57,100,5
0,65,100,0
0,60,100,0
0,54,86,0
0,54,74,20
0,79,110,1
0,67,116,0
0,54,112,2
0,54,76,31
0,57,82,31
0,60,97,0
0,65,92,0
0,54,88,0
0,70,100,2
0,77,94,2
0,54,76,6
0,62,107,0
0,65,102,0
0,58,92,0
0,54,108,0
0,69,122,5
0,54,72,30
0,58,96,1
0,62,96,0
0,65,96,0
0,82,110,0
0,54,84,0
0,54,72,18
0,82,110,30
0,54,112,0
0,67,116,2
0,54,76,25
0,58,96,32
0,62,96,0
0,65,96,0
0,82,104,0
0,54,88,0
0,65,100,8
0,54,76,17
0,67,119,0
0,79,104,0
0,54,112,0
0,54,76,14
0,58,98,21
0,62,98,0
0,67,98,0
0,79,110,0
0,54,88,0
0,54,76,15
0,79,110,21
0,54,110,0
0,39,127,11
0,54,74,7
0,62,96,31
0,67,96,0
0,58,96,0
0,75,110,0
0,54,86,0
0,54,74,13
0,60,92,16
0,67,119,0
0,63,97,0
0,54,112,0
0,54,76,34
0,60,98,34
0,63,98,0
0,67,98,0
0,79,121,0
0,54,88,0
0,54,76,21
0,79,121,3
0,54,112,0
0,54,76,22
0,60,102,22
0,67,102,0
0,63,102,0
0,77,110,0
0,54,88,0
0,54,76,14
0,65,97,0
0,69,107,0
0,54,110,0
0,54,74,30
0,57,100,30
0,65,100,0
0,60,100,0
0,54,86,0
0,54,74,20
0,74,116,8
0,39,124,0
0,54,112,0
0,54,76,4
0,57,82,31
0,60,97,0
0,65,92,0
0,54,88,0
0,75,116,14
0,54,76,6
0,62,107,0
0,65,102,0
0,58,92,0
0,77,116,0
0,54,108,0
0,54,72,30
0,58,96,30
0,62,96,0
0,65,96,0
0,54,84,0
0,54,72,18
0,74,110,2
0,54,112,0
0,54,76,32
0,58,96,0
0,62,96,0
0,65,96,0
0,54,88,0
0,79,116,6
0,54,76,17
0,67,119,0
0,77,121,0
0,54,112,0
0,54,76,21
0,58,98,21
0,62,98,0
0,67,98,0
0,54,88,0
0,54,76,21
0,54,110,21
0,39,127,11
0,54,74,7
0,62,96,31
0,67,96,0
0,58,96,0
0,54,86,0
0,77,116,6
0,54,74,13
0,60,92,16
0,67,119,0
0,63,97,0
0,54,112,0
0,54,76,34
0,60,98,34
0,63,98,0
0,67,98,0
0,77,116,0
0,54,88,0
0,54,76,21
0,54,112,3
0,74,116,1
0,54,76,22
0,79,116,14
0,60,102,8
0,67,102,0
0,63,102,0
0,65,122,0
0,69,122,0
0,54,88,0
0,54,76,14
0,62,122,1
0,77,104,1
0,67,122,165
0,57,100,8
0,65,100,0
0,60,100,0
0,65,122,2
0,40,90,116
0,39,124,0
0,65,110,2
0,62,122,3
0,67,122,92
0,57,82,4
0,60,97,0
0,65,92,0
0,22,81,102
0,34,121,0
0,62,107,0
0,65,102,0
0,58,92,0
0,82,110,0
0,49,125,0
0,36,127,0
0,54,108,0
0,42,102,0
0,65,110,6
0,54,72,30
0,58,96,9
0,62,96,0
0,65,96,0
0,82,110,0
0,54,84,0
0,42,97,0
0,69,102,0
0,62,116,4
0,65,116,0
0,58,116,0
0,22,70,10
0,34,110,0
0,54,72,0
0,36,69,2
0,34,81,0
0,46,121,0
0,82,110,0
0,39,124,0
0,40,97,0
0,54,112,0
0,42,102,0
0,62,116,4
0,58,116,0
0,65,116,0
0,54,76,15
0,58,96,10
0,62,96,0
0,65,96,0
0,82,104,0
0,36,106,0
0,54,88,0
0,42,102,0
0,69,97,0
0,62,122,4
0,58,110,0
0,65,122,0
0,34,82,17
0,46,122,0
0,54,76,0
0,31,83,0
0,43,123,0
0,67,119,0
0,79,104,0
0,91,108,0
0,54,112,0
0,42,100,0
0,67,116,4
0,55,110,0
0,58,116,0
0,62,116,0
0,31,76,1
0,43,116,0
0,54,76,0
0,31,76,21
0,43,116,0
0,58,98,0
0,62,98,0
0,67,98,0
0,79,110,0
0,36,118,0
0,54,88,0
0,46,127,0
0,69,102,0
0,67,110,4
0,55,116,0
0,58,116,0
0,62,116,0
0,54,76,1
0,31,82,21
0,43,122,0
0,79,110,0
0,39,124,0
0,40,97,0
0,54,110,0
0,42,97,0
0,67,116,4
0,55,116,0
0,58,116,0
0,62,116,0
0,54,74,15
0,31,70,25
0,43,110,0
0,62,96,0
0,67,96,0
0,58,96,0
0,75,110,0
0,36,119,0
0,54,86,0
0,42,95,0
0,69,102,0
0,67,122,4
0,51,116,0
0,63,116,0
0,58,116,0
0,54,74,13
0,36,71,15
0,24,87,2
0,36,127,0
0,60,92,0
0,67,119,0
0,63,97,0
0,87,106,0
0,36,127,0
0,54,112,0
0,42,102,0
0,54,76,34
0,60,98,13
0,63,98,0
0,67,98,0
0,79,121,0
0,54,88,0
0,42,102,0
0,69,102,0
0,63,122,4
0,55,127,0
0,24,73,1
0,36,113,0
0,54,76,0
0,36,69,24
0,36,81,3
0,48,121,0
0,79,121,0
0,87,105,0
0,39,124,0
0,40,97,0
0,54,112,0
0,42,102,0
0,63,122,0
0,55,127,0
0,54,76,15
0,60,102,9
0,67,102,0
0,63,102,0
0,77,110,0
0,36,106,0
0,54,88,0
0,42,102,0
0,69,102,0
0,65,110,4
0,53,116,0
0,36,76,13
0,48,116,0
0,54,76,0
0,29,82,0
0,41,122,0
0,65,97,0
0,69,107,0
0,89,110,0
0,54,110,0
0,42,102,0
0,29,73,30
0,41,113,0
0,54,74,0
0,29,73,30
0,41,113,0
0,57,100,0
0,65,100,0
0,60,100,0
0,41,122,0
0,36,118,0
0,54,86,0
0,46,127,0
0,69,102,0
0,54,74,15
0,43,116,27
0,29,87,3
0,41,127,0
0,89,116,0
0,39,124,0
0,40,97,0
0,54,112,0
0,42,95,0
0,54,76,15
0,29,76,31
0,41,116,0
0,57,82,0
0,60,97,0
0,65,92,0
0,36,119,0
0,54,88,0
0,42,97,0
0,69,102,0
0,45,116,1
0,54,76,6
0,36,71,24
0,22,81,0
0,34,121,0
0,62,107,0
0,65,102,0
0,58,92,0
0,82,104,0
0,36,127,0
0,54,108,0
0,42,102,0
0,46,122,8
0,54,72,30
0,58,96,9
0,62,96,0
0,65,96,0
0,82,104,0
0,54,84,0
0,42,97,0
0,69,102,0
0,62,116,4
0,65,116,0
0,58,110,0
0,22,70,12
0,34,110,0
0,54,72,0
0,36,69,2
0,34,81,0
0,46,121,0
0,82,104,0
0,39,124,0
0,40,97,0
0,54,112,0
0,42,102,0
0,62,116,4
0,65,116,0
0,58,110,0
0,54,76,15
0,58,96,10
0,62,96,0
0,65,96,0
0,82,104,0
0,36,106,0
0,54,88,0
0,42,102,0
0,69,97,0
0,62,122,4
0,65,122,0
0,58,110,0
0,34,82,17
0,46,122,0
0,54,76,0
0,31,83,0
0,43,123,0
0,67,119,0
0,79,110,0
0,79,104,0
0,54,112,0
0,42,100,0
0,58,116,4
0,62,116,0
0,67,116,0
0,55,116,0
0,31,76,1
0,43,116,0
0,54,76,0
0,31,76,21
0,43,116,0
0,58,98,0
0,62,98,0
0,67,98,0
0,79,110,0
0,36,118,0
0,54,88,0
0,46,127,0
0,69,102,0
0,58,116,4
0,62,116,0
0,67,110,0
0,55,116,0
0,54,76,1
0,31,82,21
0,43,122,0
0,79,116,0
0,39,124,0
0,40,97,0
0,54,110,0
0,42,97,0
0,58,116,4
0,62,116,0
0,67,116,0
0,55,122,0
0,54,74,15
0,31,70,25
0,43,110,0
0,62,96,0
0,67,96,0
0,58,96,0
0,79,116,0
0,36,119,0
0,54,86,0
0,42,95,0
0,69,102,0
0,55,122,4
0,63,116,0
0,58,116,0
0,67,122,0
0,54,74,13
0,36,71,15
0,24,87,10
0,36,127,0
0,60,92,0
0,67,119,0
0,63,97,0
0,79,106,0
0,36,127,0
0,54,112,0
0,42,102,0
0,54,76,34
0,60,98,13
0,63,98,0
0,67,98,0
0,79,116,0
0,54,88,0
0,42,102,0
0,69,102,0
0,63,116,4
0,55,122,0
0,24,73,1
0,36,113,0
0,54,76,0
0,36,69,18
0,36,81,34
0,48,121,0
0,79,110,0
0,39,124,0
0,40,97,0
0,54,112,0
0,42,102,0
0,63,110,0
0,55,116,0
0,54,76,15
0,60,102,9
0,67,102,0
0,63,102,0
0,82,113,0
0,36,106,0
0,54,88,0
0,42,102,0
0,69,102,0
0,63,116,4
0,58,119,0
0,36,76,13
0,48,116,0
0,54,76,0
0,29,82,0
0,41,122,0
0,65,97,0
0,69,107,0
0,81,116,0
0,81,100,0
0,54,110,0
0,42,102,0
0,65,116,4
0,57,122,0
0,29,73,30
0,41,113,0
0,54,74,0
0,29,73,1
0,41,113,0
0,57,100,0
0,65,100,0
0,60,100,0
0,36,118,0
0,54,86,0
0,46,127,0
0,69,102,0
0,54,74,15
0,79,110,1
0,29,87,2
0,41,127,0
0,39,124,0
0,40,97,0
0,54,112,0
0,42,95,0
0,65,110,4
0,55,116,0
0,54,76,15
0,29,76,31
0,41,116,0
0,57,82,0
0,60,97,0
0,65,92,0
0,36,119,0
0,54,88,0
0,42,97,0
0,69,102,0
0,77,94,4
0,65,100,0
0,53,100,0
0,54,76,6
0,36,71,24
0,22,81,0
0,34,121,0
0,62,107,0
0,65,102,0
0,58,92,0
0,82,100,0
0,36,127,0
0,54,108,0
0,42,102,0
0,54,72,30
0,58,96,9
0,62,96,0
0,65,96,0
0,82,110,0
0,54,84,0
0,42,97,0
0,69,102,0
0,65,116,4
0,62,116,0
0,58,116,0
0,22,70,10
0,34,110,0
0,54,72,0
0,36,69,2
0,34,81,0
0,46,121,0
0,82,110,0
0,39,124,0
0,40,97,0
0,54,112,0
0,42,102,0
0,65,116,4
0,62,116,0
0,58,116,0
0,54,76,15
0,58,96,10
0,62,96,0
0,65,96,0
0,82,104,0
0,36,106,0
0,54,88,0
0,42,102,0
0,69,97,0
0,65,122,4
0,62,122,0
0,58,110,0
0,34,82,17
0,46,122,0
0,54,76,0
0,31,83,0
0,43,123,0
0,67,119,0
0,79,104,0
0,91,100,0
0,54,112,0
0,42,100,0
0,67,116,4
0,58,116,0
0,62,116,0
0,55,110,0
0,31,76,1
0,43,116,0
0,54,76,0
0,31,76,21
0,43,116,0
0,58,98,0
0,62,98,0
0,67,98,0
0,79,110,0
0,36,118,0
0,54,88,0
0,46,127,0
0,69,102,0
0,67,110,4
0,58,116,0
0,62,116,0
0,55,116,0
0,54,76,1
0,31,82,21
0,43,122,0
0,79,110,0
0,39,124,0
0,40,97,0
0,54,110,0
0,42,97,0
0,67,116,4
0,58,116,0
0,62,116,0
0,55,116,0
0,54,74,15
0,31,70,25
0,43,110,0
0,62,96,0
0,67,96,0
0,58,96,0
0,75,110,0
0,36,119,0
0,54,86,0
0,42,95,0
0,69,102,0
0,67,122,4
0,63,116,0
0,58,116,0
0,51,116,0
0,54,74,13
0,36,71,15
0,24,87,10
0,36,127,0
0,60,92,0
0,67,119,0
0,63,97,0
0,91,98,0
0,36,127,0
0,54,112,0
0,42,102,0
0,54,76,34
0,60,98,13
0,63,98,0
0,67,98,0
0,79,121,0
0,54,88,0
0,42,102,0
0,69,102,0
0,63,122,4
0,55,127,0
0,24,73,1
0,36,113,0
0,54,76,0
0,36,69,24
0,36,81,3
0,48,121,0
0,79,121,0
0,39,124,0
0,40,97,0
0,54,112,0
0,42,102,0
0,63,122,0
0,55,127,0
0,54,76,15
0,60,102,9
0,67,102,0
0,63,102,0
0,77,110,0
0,36,106,0
0,54,88,0
0,42,102,0
0,69,102,0
0,65,110,4
0,53,116,0
0,36,76,13
0,48,116,0
0,54,76,0
0,29,82,0
0,41,122,0
0,65,97,0
0,69,107,0
0,89,100,0
0,54,110,0
0,42,102,0
0,29,73,30
0,41,113,0
0,54,74,0
0,29,73,30
0,41,113,0
0,57,100,0
0,65,100,0
0,60,100,0
0,36,118,0
0,54,86,0
0,46,127,0
0,69,102,0
0,54,74,15
0,29,87,30
0,41,127,0
0,74,116,0
0,39,124,0
0,40,97,0
0,54,112,0
0,42,95,0
0,50,122,4
0,54,76,15
0,29,76,31
0,41,116,0
0,57,82,0
0,60,97,0
0,65,92,0
0,36,119,0
0,54,88,0
0,42,97,0
0,69,102,0
0,51,122,4
0,75,116,10
0,54,76,6
0,36,71,24
0,22,81,0
0,34,121,0
0,62,107,0
0,65,102,0
0,58,92,0
0,77,116,0
0,89,105,0
0,36,127,0
0,54,108,0
0,42,102,0
0,62,116,2
0,65,110,0
0,58,100,0
0,53,122,0
0,54,72,30
0,58,96,9
0,62,96,0
0,65,96,0
0,54,84,0
0,42,97,0
0,69,102,0
0,22,70,18
0,34,110,0
0,54,72,0
0,36,69,2
0,34,81,0
0,46,121,0
0,74,110,0
0,39,124,0
0,40,97,0
0,54,112,0
0,42,102,0
0,65,100,4
0,62,110,0
0,58,95,0
0,50,116,0
0,54,76,15
0,58,96,0
0,62,96,0
0,65,96,0
0,36,106,0
0,54,88,0
0,42,102,0
0,69,97,0
0,55,122,4
0,62,100,0
0,65,78,0
0,58,95,0
0,79,116,2
0,34,82,17
0,46,122,0
0,54,76,0
0,31,83,0
0,43,123,0
0,67,119,0
0,77,121,0
0,54,112,0
0,42,100,0
0,58,100,4
0,62,110,0
0,67,116,0
0,53,127,0
0,31,76,21
0,43,116,0
0,54,76,0
0,31,76,21
0,43,116,0
0,58,98,0
0,62,98,0
0,67,98,0
0,36,118,0
0,54,88,0
0,46,127,0
0,69,102,0
0,54,76,13
0,31,82,21
0,43,122,0
0,39,124,0
0,40,97,0
0,54,110,0
0,42,97,0
0,54,74,15
0,31,70,31
0,43,110,0
0,62,96,0
0,67,96,0
0,58,96,0
0,36,119,0
0,54,86,0
0,42,95,0
0,69,102,0
0,63,110,4
0,58,105,0
0,67,116,0
