track,note,velocity,time
2,28,106,5909
2,28,0,958
2,28,114,2
2,28,0,382
2,40,83,2
2,40,0,382
2,28,99,2
2,28,0,382
2,52,71,2
2,40,77,192
2,52,0,6
2,40,0,368
2,40,82,10
2,40,0,190
2,28,91,2
2,28,0,670
2,28,97,2
2,28,0,94
2,40,87,2
2,40,0,1438
2,28,107,98
2,28,0,382
2,40,84,2
2,40,0,382
2,28,99,2
2,28,0,382
2,40,86,2
2,40,0,382
2,28,104,2
2,40,87,192
2,28,0,94
2,40,0,96
2,28,107,2
2,28,0,94
2,28,95,2
2,28,0,94
2,40,86,2
2,40,0,190
2,28,95,2
2,28,0,382
2,40,73,2
2,40,0,382
2,28,108,2
2,28,0,382
2,40,81,2
2,40,0,94
2,28,89,2
2,28,0,94
2,40,81,2
2,40,0,94
2,40,73,2
2,40,0,94
2,28,94,2
2,28,0,382
2,40,92,2
2,40,0,382
2,28,97,2
2,28,0,382
2,40,95,2
2,40,0,286
2,40,79,2
2,40,0,94
2,28,90,2
2,28,0,190
2,40,78,2
2,40,0,190
2,28,91,2
2,28,0,190
2,40,79,2
2,40,0,94
2,40,77,2
2,40,0,94
2,28,95,2
2,28,0,286
2,40,79,98
2,40,0,1150
2,28,120,3074
2,28,0,766
2,28,109,2
2,28,0,766
2,28,109,2
2,28,0,286
2,28,90,2
2,28,0,94
2,40,104,2
2,40,0,382
2,28,120,2
2,28,0,286
2,28,90,2
2,28,0,94
2,40,96,2
2,40,0,286
2,40,83,2
2,40,0,94
2,28,112,2
2,28,0,286
2,28,109,2
2,28,0,94
2,40,102,2
2,40,0,377
2,28,104,7
2,28,0,382
2,40,101,2
2,40,0,382
2,28,98,2
2,28,0,286
2,40,95,2
2,40,0,94
2,40,92,2
2,40,0,286
2,40,102,2
2,40,0,94
2,28,102,2
2,28,0,345
2,40,85,39
2,40,0,286
2,40,77,2
2,40,0,94
2,40,99,2
2,40,0,286
2,40,96,98
2,40,0,286
2,28,105,2
2,28,0,94
2,40,99,2
2,40,0,286
2,40,96,2
2,40,0,94
2,40,89,2
2,40,0,382
2,28,123,2
2,28,0,286
2,28,109,2
2,28,0,94
2,40,115,2
2,40,0,382
2,28,120,2
2,28,0,282
2,28,110,6
2,28,0,94
2,40,115,2
2,40,0,382
2,28,115,2
2,28,0,766
2,28,122,2
2,28,0,766
2,28,119,2
2,28,0,286
2,28,103,2
2,28,0,94
2,40,104,2
2,40,0,382
2,28,120,2
2,28,0,286
2,28,113,2
2,28,0,62
2,40,96,34
2,40,0,286
2,40,83,2
2,40,0,94
2,28,112,2
2,28,0,286
2,28,102,2
2,28,0,94
2,40,102,2
2,40,0,382
2,28,115,2
2,28,0,382
2,40,117,2
2,40,0,382
2,28,98,2
2,28,0,286
2,40,95,2
2,40,0,94
2,40,92,2
2,40,0,286
2,40,90,2
2,40,0,94
2,28,117,2
2,28,0,286
2,40,85,98
2,40,0,286
2,40,77,2
2,40,0,94
2,40,99,2
2,40,0,286
2,28,114,98
2,28,0,286
2,28,104,2
2,28,0,94
2,40,99,2
2,40,0,286
2,40,96,2
2,40,0,94
2,40,89,2
2,40,0,382
2,28,116,2
2,28,0,286
2,28,109,2
2,28,0,94
2,40,95,2
2,40,0,382
2,28,113,2
2,28,0,286
2,28,116,2
2,28,0,94
2,40,106,2
2,40,0,382
2,28,114,2
2,28,0,250
2,28,109,38
2,28,0,81
2,28,117,15
2,28,0,335
2,28,119,49
2,28,0,250
2,28,101,38
2,28,0,79
2,28,110,17
2,28,0,337
2,28,115,47
2,28,0,250
2,28,108,38
2,28,0,82
2,40,109,14
2,40,0,250
2,40,94,38
2,40,0,87
2,28,117,9
2,28,0,252
2,28,97,36
2,28,0,81
2,28,109,15
2,28,0,250
2,28,92,38
2,28,0,81
2,28,110,15
2,28,0,250
2,28,99,38
2,28,0,81
2,28,116,15
2,28,0,254
2,28,96,34
2,28,0,87
2,40,102,9
2,40,0,250
2,40,99,38
2,40,0,92
2,28,105,4
2,28,0,250
2,28,99,38
2,28,0,82
2,28,111,14
2,28,0,250
2,28,94,38
2,28,0,82
2,28,92,14
2,28,0,250
2,28,102,38
2,28,0,81
2,28,118,15
2,28,0,250
2,28,109,38
2,28,0,87
2,40,96,9
2,40,0,342
2,28,115,42
2,28,0,686
2,40,102,82
2,40,0,692
2,28,117,76
2,28,0,252
2,28,109,36
2,28,0,81
2,28,94,15
2,28,0,337
2,28,114,47
2,28,0,254
2,28,102,34
2,28,0,81
2,28,119,15
2,28,0,250
2,28,96,38
2,28,0,82
2,28,114,14
2,28,0,250
2,28,109,38
2,28,0,81
2,28,117,15
2,28,0,335
2,28,119,49
2,28,0,250
2,28,101,38
2,28,0,79
2,28,110,17
2,28,0,337
2,28,115,47
2,28,0,250
2,28,108,38
2,28,0,82
2,40,109,14
2,40,0,250
2,40,94,38
2,40,0,87
2,28,117,9
2,28,0,252
2,28,97,36
2,28,0,81
2,28,109,15
2,28,0,250
2,28,92,38
2,28,0,81
2,28,110,15
2,28,0,250
2,28,99,38
2,28,0,81
2,28,116,15
2,28,0,254
2,28,96,34
2,28,0,87
2,40,102,9
2,40,0,250
2,40,99,38
2,40,0,92
2,28,105,4
2,28,0,250
2,28,99,38
2,28,0,82
2,28,111,14
2,28,0,250
2,28,94,38
2,28,0,82
2,28,92,14
2,28,0,250
2,28,102,38
2,28,0,81
2,28,118,15
2,28,0,250
2,28,109,38
2,28,0,87
2,40,96,9
2,40,0,342
2,28,115,42
2,28,0,686
2,40,102,82
2,40,0,692
2,28,117,76
2,28,0,252
2,28,109,36
2,28,0,81
2,28,94,15
2,28,0,337
2,28,114,47
2,28,0,254
2,28,102,34
2,28,0,81
2,28,119,15
2,28,0,250
2,28,96,38
2,28,0,82
2,28,114,14
2,28,0,250
2,28,102,38
2,28,0,87
2,40,111,9
2,40,0,250
2,40,83,38
2,40,0,82
2,40,96,14
2,40,0,250
2,40,97,38
2,40,0,87
2,28,111,9
2,28,0,250
2,28,104,38
2,28,0,81
2,28,109,15
2,28,0,250
2,28,89,38
2,28,0,81
2,28,109,15
2,28,0,178
2,28,97,110
2,28,0,81
2,28,106,15
2,28,0,250
2,28,108,38
2,28,0,79
2,28,90,17
2,28,0,250
2,28,89,38
2,28,0,79
2,28,102,17
2,28,0,250
2,28,89,38
2,28,0,79
2,28,109,17
2,28,0,249
2,28,96,39
2,28,0,78
2,28,109,18
2,28,0,250
2,28,83,38
2,28,0,78
2,28,101,18
2,28,0,249
2,28,99,39
2,28,0,79
2,28,106,17
2,28,0,250
2,28,109,38
2,28,0,81
2,28,117,15
2,28,0,335
2,28,104,49
2,28,0,250
2,28,96,38
2,28,0,79
2,28,102,17
2,28,0,337
2,28,90,47
2,28,0,250
2,28,108,38
2,28,0,82
2,40,117,14
2,40,0,250
2,40,94,38
2,40,0,87
2,28,92,9
2,28,0,782
3,56,54,341
3,68,56,0
3,56,0,382
3,68,0,0
3,57,63,2
3,69,43,0
3,57,0,382
3,69,0,0
3,56,63,2
3,59,40,0
3,68,42,0
3,56,0,382
3,68,0,0
3,57,44,2
3,69,53,0
3,57,0,382
3,69,0,0
3,56,55,2
3,68,45,0
3,56,0,382
3,68,0,0
3,57,49,2
3,69,55,0
3,57,0,382
3,69,0,0
3,56,31,2
3,68,34,0
3,56,0,382
3,68,0,0
3,57,51,2
3,69,44,0
3,57,0,382
3,59,0,0
3,69,0,0
3,56,89,2
3,59,51,0
3,68,52,0
3,56,0,766
3,59,0,0
3,68,0,0
3,57,60,2
3,61,53,0
3,69,57,0
3,57,0,382
3,61,0,0
3,69,0,0
3,56,75,2
3,59,57,0
3,68,67,0
3,56,0,382
3,59,0,0
3,68,0,0
3,57,69,2
3,61,43,0
3,69,57,0
3,57,0,766
3,61,0,0
3,69,0,0
3,56,71,2
3,59,59,0
3,68,54,0
3,56,0,382
3,68,0,0
3,57,55,2
3,69,59,0
3,57,0,382
3,59,0,0
3,69,0,0
3,56,85,2
3,59,55,0
3,68,65,0
3,56,0,766
3,59,0,0
3,68,0,0
3,57,67,2
3,61,55,0
3,69,58,0
3,57,0,382
3,61,0,0
3,69,0,0
3,56,75,2
3,59,54,0
3,68,43,0
3,56,0,382
3,59,0,0
3,68,0,0
3,57,60,2
3,61,40,0
3,69,63,0
3,57,0,766
3,61,0,0
3,69,0,0
3,56,80,2
3,59,57,0
3,68,70,0
3,56,0,382
3,68,0,0
3,57,49,2
3,69,59,0
3,57,0,382
3,59,0,0
3,69,0,0
3,57,57,2
3,61,37,0
3,69,57,0
3,57,0,1534
3,61,0,0
3,69,0,0
3,56,67,2
3,59,69,0
3,68,67,0
3,56,0,382
3,68,0,0
3,57,78,2
3,69,59,0
3,57,0,382
3,69,0,0
3,56,80,2
3,68,78,0
3,56,0,382
3,68,0,0
3,57,85,2
3,69,94,0
3,57,0,122
3,59,0,0
3,69,0,0
3,56,89,2
3,59,51,0
3,68,52,0
3,56,0,766
3,59,0,0
3,68,0,0
3,57,60,2
3,61,62,0
3,69,67,0
3,57,0,382
3,61,0,0
3,69,0,0
3,56,75,2
3,59,57,0
3,68,67,0
3,56,0,382
3,59,0,0
3,68,0,0
3,57,69,2
3,61,43,0
3,69,57,0
3,57,0,766
3,61,0,0
3,69,0,0
3,56,71,2
3,59,59,0
3,68,54,0
3,56,0,382
3,68,0,0
3,57,55,2
3,69,59,0
3,57,0,382
3,59,0,0
3,69,0,0
3,56,85,2
3,59,55,0
3,68,65,0
3,56,0,766
3,59,0,0
3,68,0,0
3,57,67,2
3,61,55,0
3,69,58,0
3,57,0,382
3,61,0,0
3,69,0,0
3,56,75,2
3,59,54,0
3,68,43,0
3,56,0,382
3,59,0,0
3,68,0,0
3,57,60,2
3,61,40,0
3,69,63,0
3,57,0,766
3,61,0,0
3,69,0,0
3,56,80,2
3,59,57,0
3,68,70,0
3,56,0,382
3,68,0,0
3,57,49,2
3,69,59,0
3,57,0,382
3,59,0,0
3,69,0,0
3,57,57,2
3,61,37,0
3,69,57,0
3,57,0,1534
3,61,0,0
3,69,0,0
3,56,67,2
3,59,69,0
3,68,67,0
3,56,0,382
3,68,0,0
3,57,78,2
3,69,59,0
3,57,0,382
3,69,0,0
3,56,80,2
3,68,78,0
3,56,0,382
3,68,0,0
3,57,66,2
3,69,74,0
3,57,0,382
3,59,0,0
3,69,0,0
3,56,93,2
3,59,54,0
3,68,55,0
3,56,0,766
3,59,0,0
3,68,0,0
3,57,65,2
3,61,56,0
3,69,62,0
3,57,0,382
3,61,0,0
3,69,0,0
3,56,79,2
3,59,58,0
3,68,70,0
3,56,0,382
3,59,0,0
3,68,0,0
3,57,72,2
3,61,46,0
3,69,62,0
3,57,0,766
3,61,0,0
3,69,0,0
3,56,77,2
3,59,64,0
3,68,57,0
3,56,0,382
3,68,0,0
3,57,57,2
3,69,64,0
3,57,0,382
3,59,0,0
3,69,0,0
3,56,91,2
3,59,57,0
3,68,69,0
3,56,0,766
3,59,0,0
3,68,0,0
3,57,71,2
3,61,58,0
3,69,64,0
3,57,0,382
3,61,0,0
3,69,0,0
3,56,80,2
3,59,57,0
3,68,46,0
3,56,0,382
3,59,0,0
3,68,0,0
3,57,65,2
3,61,43,0
3,69,67,0
3,57,0,766
3,61,0,0
3,69,0,0
3,56,87,2
3,59,60,0
3,68,76,0
3,56,0,766
3,59,0,0
3,68,0,0
3,57,63,2
3,61,40,0
3,69,63,0
3,69,0,1529
3,57,0,1
3,61,0,0
3,56,60,6
3,59,52,0
3,68,47,0
3,76,84,0
3,56,0,30
3,68,0,0
3,57,77,2
3,69,57,0
3,57,0,382
3,69,0,0
3,56,62,2
3,68,50,0
3,56,0,382
3,68,0,0
3,57,46,2
3,69,64,0
3,57,0,382
3,59,0,0
3,69,0,0
3,56,93,2
3,59,66,0
3,68,74,0
3,56,0,766
3,59,0,0
3,68,0,0
3,57,65,2
3,61,56,0
3,69,62,0
3,57,0,382
3,61,0,0
3,69,0,0
3,56,79,2
3,59,58,0
3,68,70,0
3,56,0,382
3,59,0,0
3,68,0,0
3,57,72,2
3,61,46,0
3,69,62,0
3,57,0,766
3,61,0,0
3,69,0,0
3,56,77,2
3,59,64,0
3,68,57,0
3,56,0,382
3,59,0,0
3,68,0,0
3,57,57,2
3,69,64,0
3,57,0,382
3,69,0,0
3,56,91,2
3,59,57,0
3,68,69,0
3,56,0,766
3,59,0,0
3,68,0,0
3,57,71,2
3,61,58,0
3,69,64,0
3,57,0,382
3,61,0,0
3,69,0,0
3,56,80,2
3,59,57,0
3,68,46,0
3,56,0,382
3,59,0,0
3,68,0,0
3,57,65,2
3,61,43,0
3,69,67,0
3,57,0,766
3,61,0,0
3,69,0,0
3,56,87,2
3,59,60,0
3,68,76,0
3,56,0,766
3,59,0,0
3,68,0,0
3,57,63,2
3,61,40,0
3,69,63,0
3,76,0,1529
3,57,0,5
3,61,0,0
3,69,0,0
3,56,58,2
3,59,60,0
3,68,47,0
3,76,64,0
3,56,0,150
3,68,0,0
3,57,85,2
3,69,66,0
3,57,0,382
3,69,0,0
3,56,62,2
3,68,58,0
3,56,0,382
3,68,0,0
3,57,46,2
3,69,64,0
3,57,0,382
3,59,0,0
3,69,0,0
3,56,101,2
3,59,80,0
3,68,80,0
3,68,0,762
3,56,0,4
3,59,0,0
3,57,65,2
3,61,56,0
3,69,61,0
3,57,0,382
3,61,0,0
3,69,0,0
3,56,79,2
3,59,58,0
3,68,70,0
3,56,0,382
3,59,0,0
3,68,0,0
3,57,72,2
3,61,46,0
3,69,62,0
3,57,0,766
3,61,0,0
3,69,0,0
3,56,77,2
3,59,64,0
3,68,57,0
3,56,0,382
3,68,0,0
3,57,57,2
3,69,64,0
3,57,0,382
3,59,0,0
3,69,0,0
3,56,91,2
3,59,57,0
3,68,69,0
3,56,0,766
3,59,0,0
3,68,0,0
3,57,71,2
3,61,58,0
3,69,64,0
3,57,0,382
3,61,0,0
3,69,0,0
3,56,80,2
3,59,57,0
3,68,46,0
3,56,0,382
3,59,0,0
3,68,0,0
3,57,65,2
3,61,43,0
3,69,67,0
3,57,0,766
3,61,0,0
3,69,0,0
3,56,87,2
3,59,60,0
3,68,76,0
3,56,0,766
3,59,0,0
3,68,0,0
3,57,63,2
3,61,40,0
3,69,63,0
3,76,0,1527
3,57,0,7
3,61,0,0
3,69,0,0
3,56,58,2
3,59,60,0
3,68,47,0
3,76,64,0
3,56,0,150
3,68,0,0
3,57,85,2
3,69,66,0
3,57,0,382
3,69,0,0
3,56,62,2
3,68,58,0
3,56,0,382
3,68,0,0
3,57,46,2
3,69,64,0
3,57,0,382
3,59,0,0
3,69,0,0
3,56,93,2
3,59,54,0
3,68,55,0
3,56,0,766
3,59,0,0
3,68,0,0
3,57,65,2
3,61,56,0
3,69,62,0
3,57,0,382
3,61,0,0
3,69,0,0
3,56,79,2
3,59,58,0
3,68,70,0
3,56,0,382
3,59,0,0
3,68,0,0
3,57,72,2
3,61,46,0
3,69,62,0
3,57,0,766
3,61,0,0
3,69,0,0
3,56,77,2
3,59,64,0
3,68,57,0
3,56,0,382
3,68,0,0
3,57,57,2
3,69,64,0
3,57,0,382
3,59,0,0
3,69,0,0
3,56,91,2
3,59,57,0
3,68,69,0
3,56,0,766
3,59,0,0
3,68,0,0
3,57,71,2
3,61,58,0
3,69,64,0
3,57,0,382
3,61,0,0
3,69,0,0
3,56,80,2
3,59,57,0
3,68,46,0
3,56,0,382
3,59,0,0
3,68,0,0
3,57,65,2
3,61,43,0
3,69,67,0
3,57,0,766
3,61,0,0
3,69,0,0
3,56,87,2
3,59,60,0
3,68,76,0
3,56,0,766
3,59,0,0
3,68,0,0
3,57,63,2
3,61,40,0
3,69,63,0
3,76,0,1527
3,57,0,7
3,61,0,0
3,69,0,0
3,56,70,2
3,59,73,0
3,68,59,0
3,76,77,0
3,56,0,150
3,68,0,0
3,57,85,2
3,69,66,0
3,57,0,382
3,69,0,0
3,56,62,2
3,68,58,0
