track,note,velocity,time
1,60,110,3372
1,60,110,24
1,62,110,24
1,62,110,24
1,62,110,24
1,64,110,24
1,64,110,24
1,64,110,504
1,64,110,24
1,64,110,24
1,64,110,24
1,66,110,24
1,67,110,24
1,67,110,24
1,67,110,24
1,67,110,24
1,65,110,24
1,67,110,24
1,70,110,24
1,67,110,24
1,65,110,24
1,65,110,24
1,67,110,0
1,67,110,24
1,67,110,216
1,65,110,24
1,70,110,24
1,67,110,24
1,65,110,24
1,65,110,24
1,67,110,0
1,60,110,504
1,60,110,24
1,62,110,24
1,62,110,24
1,62,110,24
1,64,110,24
1,64,110,24
1,62,110,216
1,64,110,24
1,64,110,24
1,64,110,24
1,66,110,24
1,67,110,24
1,67,110,24
1,67,110,216
1,65,110,24
1,67,110,24
1,70,110,24
1,67,110,24
1,66,110,0
1,66,110,312
1,64,110,24
1,62,110,24
1,60,110,24
1,59,110,0
1,55,110,0
1,55,110,24
1,55,110,24
1,55,110,24
1,64,110,216
1,62,110,24
1,64,110,24
1,62,110,24
1,64,110,24
1,62,110,24
1,67,110,24
1,62,110,24
1,64,110,24
1,62,110,24
1,66,110,24
1,64,110,0
1,64,110,24
1,62,110,0
1,60,110,12
1,59,110,0
1,55,110,24
1,55,110,24
1,55,110,24
1,55,110,24
1,72,110,984
1,72,110,24
1,72,110,24
1,74,110,24
1,74,110,24
1,76,110,24
1,72,110,24
1,76,110,24
1,76,110,24
1,76,110,24
1,72,110,408
1,74,110,24
1,72,110,12
1,72,110,12
1,76,110,12
1,74,110,0
1,74,110,24
1,74,110,216
1,74,110,24
1,74,110,24
1,79,110,0
1,79,110,24
1,77,110,24
1,82,110,24
1,79,110,24
1,77,110,24
1,77,110,24
1,77,110,24
1,79,110,0
1,60,110,1848
1,60,110,24
1,62,110,24
1,62,110,24
1,62,110,24
1,64,110,24
1,64,110,24
1,64,110,504
1,64,110,24
1,64,110,24
1,64,110,24
1,66,110,24
1,67,110,24
1,67,110,24
1,67,110,24
1,67,110,24
1,65,110,24
1,67,110,24
1,70,110,24
1,67,110,24
1,65,110,24
1,65,110,24
1,67,110,0
1,67,110,24
1,67,110,216
1,65,110,24
1,70,110,24
1,67,110,24
1,65,110,24
1,65,110,24
1,67,110,0
1,60,110,504
1,60,110,24
1,62,110,24
1,62,110,24
1,62,110,24
1,64,110,24
1,64,110,24
1,62,110,216
1,64,110,24
1,64,110,24
1,64,110,24
1,66,110,24
1,67,110,24
1,67,110,24
1,67,110,216
1,65,110,24
1,67,110,24
1,70,110,24
1,67,110,24
1,66,110,0
1,66,110,312
1,64,110,24
1,62,110,24
1,60,110,24
1,59,110,0
1,55,110,0
1,55,110,24
1,55,110,24
1,55,110,24
1,64,110,216
1,62,110,24
1,64,110,24
1,62,110,24
1,64,110,24
1,62,110,24
1,67,110,24
1,62,110,24
1,64,110,24
1,62,110,24
1,66,110,24
1,64,110,0
1,64,110,24
1,62,110,0
1,60,110,12
1,59,110,0
1,55,110,24
1,55,110,24
1,55,110,24
1,55,110,24
1,72,110,984
1,72,110,24
1,72,110,24
1,74,110,24
1,74,110,24
1,76,110,24
1,72,110,24
1,76,110,24
1,76,110,24
1,76,110,24
1,72,110,408
1,74,110,24
1,72,110,12
1,72,110,12
1,76,110,12
1,74,110,0
1,74,110,24
1,74,110,216
1,74,110,24
1,74,110,24
1,79,110,0
1,79,110,24
1,77,110,24
1,82,110,24
1,79,110,24
1,77,110,24
1,77,110,24
1,77,110,24
1,79,110,0
1,60,110,17976
1,60,110,24
1,62,110,24
1,62,110,24
1,62,110,24
1,64,110,24
1,64,110,24
1,64,110,504
1,64,110,24
1,64,110,24
1,64,110,24
1,66,110,24
1,67,110,24
1,67,110,24
1,67,110,24
1,67,110,24
1,65,110,24
1,67,110,24
1,70,110,24
1,67,110,24
1,65,110,24
1,65,110,24
1,67,110,0
1,67,110,24
1,67,110,216
1,65,110,24
1,70,110,24
1,67,110,24
1,65,110,24
1,65,110,24
1,67,110,0
1,60,110,504
1,60,110,24
1,62,110,24
1,62,110,24
1,62,110,24
1,64,110,24
1,64,110,24
1,62,110,216
1,64,110,24
1,64,110,24
1,64,110,24
1,66,110,24
1,67,110,24
1,67,110,24
1,67,110,216
1,65,110,24
1,67,110,24
1,70,110,24
1,67,110,24
1,66,110,0
1,66,110,312
1,64,110,24
1,62,110,24
1,60,110,24
1,59,110,0
1,55,110,0
1,55,110,24
1,55,110,24
1,55,110,24
1,64,110,216
1,62,110,24
1,64,110,24
1,62,110,24
1,64,110,24
1,62,110,24
1,67,110,24
1,62,110,24
1,64,110,24
1,62,110,24
1,66,110,24
1,64,110,0
1,64,110,24
1,62,110,0
1,60,110,12
1,59,110,0
1,55,110,24
1,55,110,24
1,55,110,24
1,55,110,24
1,64,110,984
1,62,110,24
1,64,110,24
1,62,110,24
1,64,110,24
1,62,110,24
1,67,110,24
1,62,110,24
1,64,110,24
1,62,110,24
1,66,110,24
1,64,110,0
1,64,110,24
1,62,110,0
1,60,110,12
1,59,110,0
1,55,110,24
1,55,110,24
1,55,110,24
1,55,110,24
2,62,60,1836
2,55,60,0
2,58,60,0
2,65,60,0
2,55,60,0
2,62,60,0
2,62,60,96
2,67,60,0
2,62,60,120
2,62,60,108
2,67,60,108
2,60,60,0
2,60,60,24
2,59,60,24
2,67,60,0
2,60,60,24
2,67,60,24
2,60,60,0
2,55,60,24
2,60,60,0
2,62,60,24
2,62,60,24
2,62,60,24
2,55,60,0
2,55,60,24
2,64,60,0
2,64,60,24
2,55,60,504
2,64,60,0
2,64,60,24
2,64,60,24
2,64,60,24
2,55,60,0
2,64,60,12
2,55,60,0
2,66,60,24
2,57,60,0
2,67,60,24
2,59,60,0
2,55,60,0
2,67,60,24
2,60,60,0
2,55,60,0
2,64,60,24
2,60,60,0
2,55,60,0
2,67,60,24
2,67,60,24
2,59,60,0
2,65,60,24
2,57,60,0
2,65,60,12
2,57,60,0
2,67,60,24
2,70,60,24
2,62,60,0
2,70,60,0
2,62,60,0
2,67,60,24
2,59,60,0
2,65,60,24
2,57,60,0
2,65,60,24
2,57,60,0
2,67,60,0
2,59,60,0
2,67,60,24
2,59,60,0
2,67,60,216
2,58,60,0
2,65,60,24
2,57,60,0
2,65,60,12
2,57,60,0
2,70,60,24
2,62,60,0
2,67,60,24
2,62,60,0
2,65,60,24
2,60,60,0
2,65,60,24
2,59,60,0
2,67,60,0
2,67,60,12
2,59,60,0
2,59,60,24
2,62,60,0
2,59,60,24
2,62,60,0
2,59,60,24
2,62,60,0
2,60,60,24
2,64,60,0
2,60,60,24
2,60,60,24
2,55,60,0
2,62,60,24
2,62,60,24
2,62,60,24
2,55,60,0
2,64,60,24
2,55,60,0
2,64,60,24
2,64,60,12
2,64,60,12
2,55,60,0
2,62,60,216
2,55,60,0
2,64,60,24
2,64,60,24
2,64,60,24
2,55,60,0
2,66,60,24
2,57,60,0
2,67,60,24
2,55,60,0
2,59,60,0
2,67,60,0
2,59,60,0
2,55,60,0
2,67,60,24
2,60,60,0
2,67,60,12
2,60,60,0
2,67,60,216
2,59,60,0
2,65,60,24
2,57,60,0
2,67,60,24
2,59,60,0
2,70,60,24
2,62,60,0
2,70,60,12
2,62,60,0
2,67,60,24
2,59,60,0
2,66,60,0
2,57,60,0
2,66,60,0
2,57,60,0
2,66,60,312
2,57,60,0
2,64,60,24
2,62,60,24
2,60,60,24
2,59,60,0
2,55,60,0
2,55,60,24
2,55,60,24
2,55,60,24
2,55,60,0
2,64,60,216
2,55,60,0
2,62,60,24
2,53,60,0
2,62,60,12
2,53,60,0
2,64,60,12
2,55,60,12
2,62,60,24
2,53,60,0
2,64,60,24
2,55,60,0
2,62,60,24
2,53,60,0
2,67,60,24
2,55,60,0
2,64,60,0
2,67,60,12
2,64,60,0
2,55,60,0
2,62,60,24
2,64,60,24
2,62,60,24
2,66,60,24
2,62,60,0
2,57,60,0
2,64,60,0
2,64,60,24
2,60,60,0
2,55,60,0
2,62,60,0
2,60,60,12
2,59,60,0
2,59,60,12
2,55,60,0
2,55,60,12
2,55,60,24
2,55,60,24
2,60,60,24
2,64,60,0
2,60,60,24
2,64,60,0
2,59,60,24
2,62,60,0
2,55,60,24
2,60,60,0
2,64,60,0
2,55,60,24
2,60,60,0
2,60,60,24
2,60,60,24
2,55,60,0
2,62,60,24
2,62,60,24
2,55,60,0
2,55,60,0
2,62,60,0
2,64,60,24
2,60,60,24
2,55,60,0
2,55,60,24
2,64,60,0
2,64,60,24
2,64,60,24
2,60,60,408
2,55,60,0
2,62,60,24
2,60,60,12
2,60,60,12
2,64,60,12
2,55,60,0
2,62,60,0
2,62,60,24
2,62,60,216
2,62,60,24
2,62,60,24
2,67,60,24
2,67,60,0
2,67,60,24
2,59,60,0
2,65,60,24
2,57,60,0
2,65,60,12
2,57,60,0
2,70,60,24
2,62,60,0
2,67,60,24
2,59,60,0
2,65,60,24
2,57,60,0
2,57,60,24
2,65,60,0
2,65,60,12
2,57,60,0
2,65,60,24
2,57,60,0
2,67,60,0
2,59,60,0
2,79,60,504
2,74,60,24
2,72,60,24
2,70,60,24
2,67,60,24
2,62,60,24
2,65,60,24
2,67,60,12
2,70,60,12
2,70,60,12
2,67,60,24
2,59,60,24
2,67,60,0
2,60,60,24
2,67,60,24
2,60,60,0
2,55,60,24
2,60,60,0
2,62,60,24
2,62,60,24
2,62,60,24
2,55,60,0
2,55,60,24
2,64,60,0
2,64,60,24
2,55,60,504
2,64,60,0
2,64,60,24
2,64,60,24
2,64,60,24
2,55,60,0
2,64,60,12
2,55,60,0
2,66,60,24
2,57,60,0
2,67,60,24
2,59,60,0
2,55,60,0
2,67,60,24
2,60,60,0
2,55,60,0
2,64,60,24
2,60,60,0
2,55,60,0
2,67,60,24
2,67,60,24
2,59,60,0
2,65,60,24
2,57,60,0
2,65,60,12
2,57,60,0
2,67,60,24
2,70,60,24
2,62,60,0
2,70,60,0
2,62,60,0
2,67,60,24
2,59,60,0
2,65,60,24
2,57,60,0
2,65,60,24
2,57,60,0
2,67,60,0
2,59,60,0
2,67,60,24
2,59,60,0
2,67,60,216
2,58,60,0
2,65,60,24
2,57,60,0
2,65,60,12
2,57,60,0
2,70,60,24
2,62,60,0
2,67,60,24
2,62,60,0
2,65,60,24
2,60,60,0
2,65,60,24
2,59,60,0
2,67,60,0
2,67,60,12
2,59,60,0
2,59,60,24
2,62,60,0
2,59,60,24
2,62,60,0
2,59,60,24
2,62,60,0
2,60,60,24
2,64,60,0
2,60,60,24
2,60,60,24
2,55,60,0
2,62,60,24
2,62,60,24
2,62,60,24
2,55,60,0
2,64,60,24
2,55,60,0
2,64,60,24
2,64,60,12
2,64,60,12
2,55,60,0
2,62,60,216
2,55,60,0
2,64,60,24
2,64,60,24
2,64,60,24
2,55,60,0
2,66,60,24
2,57,60,0
2,67,60,24
2,55,60,0
2,59,60,0
2,67,60,0
2,59,60,0
2,55,60,0
2,67,60,24
2,60,60,0
2,67,60,12
2,60,60,0
2,67,60,216
2,59,60,0
2,65,60,24
2,57,60,0
2,67,60,24
2,59,60,0
2,70,60,24
2,62,60,0
2,70,60,12
2,62,60,0
2,67,60,24
2,59,60,0
2,66,60,0
2,57,60,0
2,66,60,0
2,57,60,0
2,66,60,312
2,57,60,0
2,64,60,24
2,62,60,24
2,60,60,24
2,59,60,0
2,55,60,0
2,55,60,24
2,55,60,24
2,55,60,24
2,55,60,0
2,64,60,216
2,55,60,0
2,62,60,24
2,53,60,0
2,62,60,12
2,53,60,0
2,64,60,12
2,55,60,12
2,62,60,24
2,53,60,0
2,64,60,24
2,55,60,0
2,62,60,24
2,53,60,0
2,67,60,24
2,55,60,0
2,64,60,0
2,67,60,12
2,64,60,0
2,55,60,0
2,62,60,24
2,64,60,24
2,62,60,24
2,66,60,24
2,62,60,0
2,57,60,0
2,64,60,0
2,64,60,24
2,60,60,0
2,55,60,0
2,62,60,0
2,60,60,12
2,59,60,0
2,59,60,12
2,55,60,0
2,55,60,12
2,55,60,24
2,55,60,24
2,60,60,24
2,64,60,0
2,60,60,24
2,64,60,0
2,59,60,24
2,62,60,0
2,55,60,24
2,60,60,0
2,64,60,0
2,55,60,24
2,60,60,0
2,60,60,24
2,60,60,24
2,55,60,0
2,62,60,24
2,62,60,24
2,55,60,0
2,55,60,0
2,62,60,0
2,64,60,24
2,60,60,24
2,55,60,0
2,55,60,24
2,64,60,0
2,64,60,24
2,64,60,24
2,60,60,408
2,55,60,0
2,62,60,24
2,60,60,12
2,60,60,12
2,64,60,12
2,55,60,0
2,62,60,0
2,62,60,24
2,62,60,216
2,62,60,24
2,62,60,24
2,67,60,24
2,67,60,0
2,67,60,24
2,59,60,0
2,65,60,24
2,57,60,0
2,65,60,12
2,57,60,0
2,70,60,24
2,62,60,0
2,67,60,24
2,59,60,0
2,65,60,24
2,57,60,0
2,57,60,24
2,65,60,0
2,65,60,12
2,57,60,0
2,65,60,24
2,57,60,0
2,67,60,0
2,59,60,0
2,64,60,14040
2,55,60,0
2,62,60,24
2,53,60,0
2,62,60,12
2,53,60,0
2,64,60,12
2,55,60,12
2,62,60,24
2,53,60,0
2,64,60,24
2,55,60,0
2,62,60,24
2,53,60,0
2,67,60,24
2,55,60,0
2,64,60,0
2,67,60,12
2,64,60,0
2,55,60,0
2,62,60,24
2,64,60,24
2,62,60,24
2,66,60,24
2,62,60,0
2,57,60,0
2,64,60,24
2,60,60,0
2,55,60,0
2,60,60,12
2,59,60,0
2,59,60,12
2,55,60,0
2,55,60,12
2,55,60,24
2,55,60,24
2,60,60,24
2,64,60,0
2,60,60,24
2,64,60,0
2,59,60,24
2,62,60,0
2,55,60,24
2,60,60,0
2,64,60,0
2,59,60,12
2,64,60,0
2,60,60,24
2,60,60,24
2,64,60,0
2,55,60,24
2,60,60,0
2,62,60,24
2,62,60,24
2,62,60,24
2,55,60,0
2,55,60,24
2,64,60,0
2,64,60,24
2,55,60,504
2,64,60,0
2,64,60,24
2,64,60,24
2,64,60,24
2,55,60,0
2,64,60,12
2,55,60,0
2,66,60,24
2,57,60,0
2,67,60,24
2,59,60,0
2,55,60,0
2,67,60,24
2,60,60,0
2,55,60,0
2,64,60,24
2,60,60,0
2,55,60,0
2,67,60,24
2,67,60,24
2,59,60,0
2,65,60,24
2,57,60,0
2,65,60,12
2,57,60,0
2,67,60,24
2,70,60,24
2,62,60,0
2,70,60,0
2,62,60,0
2,67,60,24
2,59,60,0
2,65,60,24
2,57,60,0
2,65,60,24
2,57,60,0
2,67,60,0
2,59,60,0
2,67,60,24
2,59,60,0
2,67,60,216
2,58,60,0
2,65,60,24
2,57,60,0
2,65,60,12
2,57,60,0
2,70,60,24
2,62,60,0
2,67,60,24
2,62,60,0
2,65,60,24
2,60,60,0
2,65,60,24
2,59,60,0
2,67,60,0
2,67,60,12
2,59,60,0
2,59,60,24
2,62,60,0
2,59,60,24
2,62,60,0
2,59,60,24
2,62,60,0
2,60,60,24
2,64,60,0
2,60,60,24
2,60,60,24
2,55,60,0
2,62,60,24
2,62,60,24
2,62,60,24
2,55,60,0
2,64,60,24
2,55,60,0
2,64,60,24
2,64,60,12
2,64,60,12
2,55,60,0
2,62,60,216
2,55,60,0
2,64,60,24
2,64,60,24
2,64,60,24
2,55,60,0
2,66,60,24
2,57,60,0
2,67,60,24
2,55,60,0
2,59,60,0
2,67,60,0
2,59,60,0
2,55,60,0
2,67,60,24
2,60,60,0
2,67,60,12
2,60,60,0
2,67,60,216
2,59,60,0
2,65,60,24
2,57,60,0
2,67,60,24
2,59,60,0
2,70,60,24
2,62,60,0
2,70,60,12
2,62,60,0
2,67,60,24
2,59,60,0
2,66,60,0
2,57,60,0
2,66,60,0
2,57,60,0
2,66,60,312
2,57,60,0
2,64,60,24
2,62,60,24
2,60,60,24
2,59,60,0
2,55,60,0
2,55,60,24
2,55,60,24
2,55,60,24
2,55,60,0
2,64,60,216
2,55,60,0
2,62,60,24
