track,note,velocity,time
1,26,127,1800
1,26,0,119
1,26,127,1
1,26,0,119
1,26,127,1
1,26,0,59
1,26,127,1
1,26,0,29
1,26,127,1
1,26,0,29
1,26,127,1
1,26,0,29
1,29,127,1
1,29,0,29
1,29,127,1
1,29,0,59
1,29,127,1
1,29,0,59
1,29,127,1
1,29,0,29
1,29,127,1
1,29,0,29
1,31,127,1
1,31,0,29
1,31,127,1
1,31,0,29
1,31,127,1
1,31,0,59
1,31,127,1
1,31,0,59
1,31,127,1
1,31,0,29
1,31,127,1
1,31,0,29
1,32,127,1
1,32,0,29
1,32,127,1
1,32,0,29
1,32,127,1
1,32,0,59
1,31,127,1
1,31,0,29
1,29,127,1
1,29,0,89
1,26,127,1
1,26,0,119
1,26,127,1
1,26,0,59
1,26,127,1
1,26,0,29
1,26,127,1
1,26,0,29
1,26,127,1
1,26,0,29
1,29,127,1
1,29,0,29
1,29,127,1
1,29,0,59
1,29,127,1
1,29,0,59
1,29,127,1
1,29,0,29
1,29,127,1
1,29,0,29
1,31,127,1
1,31,0,29
1,31,127,1
1,31,0,29
1,31,127,1
1,31,0,59
1,31,127,1
1,31,0,59
1,31,127,1
1,31,0,29
1,31,127,1
1,31,0,29
1,32,127,1
1,32,0,29
1,32,127,1
1,32,0,29
1,32,127,1
1,32,0,59
1,31,127,1
1,31,0,29
1,29,127,1
1,29,0,89
1,26,127,1
1,26,0,119
1,26,127,1
1,26,0,59
1,26,127,1
1,26,0,29
1,26,127,1
1,26,0,29
1,26,127,1
1,26,0,29
1,29,127,1
1,29,0,29
1,29,127,1
1,29,0,59
1,29,127,1
1,29,0,59
1,29,127,1
1,29,0,29
1,29,127,1
1,29,0,29
1,31,127,1
1,31,0,29
1,31,127,1
1,31,0,29
1,31,127,1
1,31,0,59
1,31,127,1
1,31,0,59
1,31,127,1
1,31,0,29
1,31,127,1
1,31,0,29
1,32,127,1
1,32,0,29
1,32,127,1
1,32,0,29
1,32,127,1
1,32,0,59
1,31,127,1
1,31,0,29
1,29,127,1
1,29,0,89
1,26,127,1
1,26,0,119
1,26,127,1
1,26,0,59
1,26,127,1
1,26,0,29
1,26,127,1
1,26,0,29
1,26,127,1
1,26,0,29
1,29,127,1
1,29,0,29
1,29,127,1
1,29,0,59
1,29,127,1
1,29,0,59
1,29,127,1
1,29,0,29
1,29,127,1
1,29,0,29
1,31,127,1
1,31,0,29
1,31,127,1
1,31,0,29
1,31,127,1
1,31,0,59
1,31,127,1
1,31,0,59
1,31,127,1
1,31,0,29
1,31,127,1
1,31,0,29
1,32,127,1
1,32,0,29
1,32,127,1
1,32,0,29
1,32,127,1
1,32,0,59
1,31,127,1
1,31,0,29
1,29,127,1
1,29,0,89
1,26,127,1
1,26,0,119
1,26,127,1
1,26,0,59
1,26,127,61
1,26,0,29
1,29,127,1
1,29,0,29
1,29,127,1
1,29,0,59
1,29,127,1
1,29,0,59
1,31,127,61
1,31,0,2
1,31,127,28
1,31,0,29
1,31,127,1
1,31,0,59
1,31,127,1
1,31,0,59
1,31,127,1
1,31,0,59
1,32,127,1
1,32,0,59
1,32,127,1
1,32,0,29
1,32,127,1
1,32,0,29
1,31,127,1
1,31,0,29
1,29,127,1
1,29,0,89
1,26,127,1
1,26,0,119
1,26,127,1
1,26,0,59
1,26,127,61
1,26,0,29
1,29,127,1
1,29,0,29
1,29,127,1
1,29,0,59
1,29,127,1
1,29,0,59
1,31,127,61
1,31,0,2
1,31,127,28
1,31,0,29
1,31,127,1
1,31,0,59
1,31,127,1
1,31,0,59
1,31,127,1
1,31,0,59
1,32,127,1
1,32,0,59
1,32,127,1
1,32,0,29
1,32,127,1
1,32,0,29
1,31,127,1
1,31,0,29
1,29,127,1
1,29,0,89
1,26,127,1
1,26,0,119
1,26,127,1
1,26,0,59
1,26,127,61
1,26,0,29
1,29,127,1
1,29,0,29
1,29,127,1
1,29,0,59
1,29,127,1
1,29,0,59
1,31,127,61
1,31,0,2
1,31,127,28
1,31,0,29
1,31,127,1
1,31,0,59
1,31,127,1
1,31,0,59
1,31,127,1
1,31,0,59
1,32,127,1
1,32,0,59
1,32,127,1
1,32,0,29
1,32,127,1
1,32,0,29
1,31,127,1
1,31,0,29
1,29,127,1
1,29,0,89
1,26,127,1
1,26,0,119
1,26,127,1
1,26,0,59
1,26,127,61
1,26,0,29
1,29,127,1
1,29,0,29
1,29,127,1
1,29,0,59
1,29,127,1
1,29,0,59
1,31,127,61
1,31,0,2
1,31,127,28
1,31,0,29
1,31,127,1
1,31,0,59
1,31,127,1
1,31,0,59
1,31,127,1
1,31,0,59
1,32,127,1
1,32,0,59
1,32,127,1
1,32,0,29
1,32,127,1
1,32,0,29
1,31,127,1
1,31,0,29
1,29,127,1
1,29,0,89
1,26,127,1
1,26,0,119
1,26,127,1
1,26,0,59
1,26,127,61
1,26,0,29
1,29,127,1
1,29,0,29
1,29,127,1
1,29,0,59
1,29,127,1
1,29,0,59
1,31,127,61
1,31,0,2
1,31,127,28
1,31,0,29
1,31,127,1
1,31,0,59
1,31,127,1
1,31,0,59
1,31,127,1
1,31,0,59
1,32,127,1
1,32,0,59
1,32,127,1
1,32,0,29
1,32,127,1
1,32,0,29
1,31,127,1
1,31,0,29
1,29,127,1
1,29,0,89
1,26,127,1
1,26,0,119
1,26,127,1
1,26,0,59
1,26,127,61
1,26,0,29
1,29,127,1
1,29,0,29
1,29,127,1
1,29,0,59
1,29,127,1
1,29,0,59
1,31,127,61
1,31,0,2
1,31,127,28
1,31,0,29
1,31,127,1
1,31,0,59
1,31,127,1
1,31,0,59
1,31,127,1
1,31,0,59
1,32,127,1
1,32,0,59
1,32,127,1
1,32,0,29
1,32,127,1
1,32,0,29
1,31,127,1
1,31,0,29
1,29,127,1
1,29,0,89
1,26,127,1
1,26,0,119
1,26,127,1
1,26,0,59
1,26,127,61
1,26,0,29
1,29,127,1
1,29,0,29
1,29,127,1
1,29,0,59
1,29,127,1
1,29,0,59
1,31,127,61
1,31,0,2
1,31,127,28
1,31,0,29
1,31,127,1
1,31,0,59
1,31,127,1
1,31,0,59
1,31,127,1
1,31,0,59
1,32,127,1
1,32,0,59
1,32,127,1
1,32,0,29
1,32,127,1
1,32,0,29
1,31,127,1
1,31,0,29
1,29,127,1
1,29,0,89
1,26,127,1
1,26,0,119
1,26,127,1
1,26,0,59
1,26,127,61
1,26,0,29
1,29,127,1
1,29,0,29
1,29,127,1
1,29,0,59
1,29,127,1
1,29,0,59
1,31,127,61
1,31,0,2
1,31,127,28
1,31,0,29
1,31,127,1
1,31,0,59
1,31,127,1
1,31,0,59
1,31,127,1
1,31,0,59
1,32,127,1
1,32,0,59
1,32,127,1
1,32,0,29
1,32,127,1
1,32,0,29
1,31,127,1
1,31,0,29
1,29,127,1
1,29,0,89
1,26,127,1921
1,26,0,119
1,26,127,1
1,26,0,59
1,26,127,1
1,26,0,29
1,26,127,1
1,26,0,29
1,26,127,1
1,26,0,29
1,29,127,1
1,29,0,29
1,29,127,1
1,29,0,59
1,29,127,1
1,29,0,59
1,29,127,1
1,29,0,29
1,29,127,1
1,29,0,29
1,31,127,1
1,31,0,29
1,31,127,1
1,31,0,29
1,31,127,1
1,31,0,59
1,31,127,1
1,31,0,59
1,31,127,1
1,31,0,29
1,31,127,1
1,31,0,29
1,32,127,1
1,32,0,29
1,32,127,1
1,32,0,29
1,32,127,1
1,32,0,59
1,31,127,1
1,31,0,29
1,29,127,1
1,29,0,89
1,26,127,1
1,26,0,119
1,26,127,1
1,26,0,59
1,26,127,1
1,26,0,29
1,26,127,1
1,26,0,29
1,26,127,1
1,26,0,29
1,29,127,1
1,29,0,29
1,29,127,1
1,29,0,59
1,29,127,1
1,29,0,59
1,29,127,1
1,29,0,29
1,29,127,1
1,29,0,29
1,31,127,1
1,31,0,29
1,31,127,1
1,31,0,29
1,31,127,1
1,31,0,59
1,31,127,1
1,31,0,59
1,31,127,1
1,31,0,29
1,31,127,1
1,31,0,29
1,32,127,1
1,32,0,29
1,32,127,1
1,32,0,29
1,32,127,1
1,32,0,59
1,31,127,1
1,31,0,29
1,29,127,1
1,29,0,89
1,26,127,1
1,26,0,119
1,26,127,1
1,26,0,59
1,26,127,61
1,26,0,29
1,29,127,1
1,29,0,29
1,29,127,1
1,29,0,59
1,29,127,1
1,29,0,59
1,31,127,61
1,31,0,2
1,31,127,28
1,31,0,29
1,31,127,1
1,31,0,59
1,31,127,1
1,31,0,59
1,31,127,1
1,31,0,59
1,32,127,1
1,32,0,59
1,32,127,1
1,32,0,29
1,32,127,1
1,32,0,29
1,31,127,1
1,31,0,29
1,29,127,1
1,29,0,89
1,26,127,1
1,26,0,119
1,26,127,1
1,26,0,59
1,26,127,61
1,26,0,29
1,29,127,1
1,29,0,29
1,29,127,1
1,29,0,59
1,29,127,1
1,29,0,59
1,31,127,61
1,31,0,2
1,31,127,28
1,31,0,29
1,31,127,1
1,31,0,59
1,31,127,1
1,31,0,59
1,31,127,1
1,31,0,59
1,32,127,1
1,32,0,59
1,32,127,1
1,32,0,29
1,32,127,1
1,32,0,29
1,31,127,1
1,31,0,29
1,29,127,1
1,29,0,89
1,26,127,1
1,26,0,119
1,26,127,1
1,26,0,59
1,26,127,61
1,26,0,29
1,29,127,1
1,29,0,29
1,29,127,1
1,29,0,59
1,29,127,1
1,29,0,59
1,31,127,61
1,31,0,2
1,31,127,28
1,31,0,29
1,31,127,1
1,31,0,59
1,31,127,1
1,31,0,59
1,31,127,1
1,31,0,59
1,32,127,1
1,32,0,59
1,32,127,1
1,32,0,29
1,32,127,1
1,32,0,29
1,31,127,1
1,31,0,29
1,29,127,1
1,29,0,89
1,26,127,1
1,26,0,119
1,26,127,1
1,26,0,59
1,26,127,61
1,26,0,29
1,29,127,1
1,29,0,29
1,29,127,1
1,29,0,59
1,29,127,1
1,29,0,59
1,31,127,61
1,31,0,2
1,31,127,28
1,31,0,29
1,31,127,1
1,31,0,59
1,31,127,1
1,31,0,59
1,31,127,1
1,31,0,59
1,32,127,1
1,32,0,59
1,32,127,1
1,32,0,29
1,32,127,1
1,32,0,29
1,31,127,1
1,31,0,29
1,29,127,1
1,29,0,89
1,26,127,1
1,26,0,119
1,26,127,1
1,26,0,59
1,26,127,61
1,26,0,29
1,29,127,1
1,29,0,29
1,29,127,1
1,29,0,59
1,29,127,1
1,29,0,59
1,31,127,61
1,31,0,2
1,31,127,28
1,31,0,29
1,31,127,1
1,31,0,59
1,31,127,1
1,31,0,59
1,31,127,1
1,31,0,59
1,32,127,1
1,32,0,59
1,32,127,1
1,32,0,29
1,32,127,1
1,32,0,29
1,31,127,1
1,31,0,29
1,29,127,1
1,29,0,89
1,26,127,1
1,26,0,119
1,26,127,1
1,26,0,59
1,26,127,61
1,26,0,29
1,29,127,1
1,29,0,29
1,29,127,1
1,29,0,59
1,29,127,1
1,29,0,59
1,31,127,61
1,31,0,2
1,31,127,28
1,31,0,29
1,31,127,1
1,31,0,59
1,31,127,1
1,31,0,59
1,31,127,1
1,31,0,59
1,32,127,1
1,32,0,59
1,32,127,1
1,32,0,29
1,32,127,1
1,32,0,29
1,31,127,1
1,31,0,29
1,29,127,1
1,29,0,89
1,26,127,1
1,26,0,119
1,26,127,1
1,26,0,59
1,26,127,61
1,26,0,29
1,29,127,1
1,29,0,29
1,29,127,1
1,29,0,59
1,29,127,1
1,29,0,59
1,31,127,61
1,31,0,2
1,31,127,28
1,31,0,29
1,31,127,1
1,31,0,59
1,31,127,1
1,31,0,59
1,31,127,1
1,31,0,59
1,32,127,1
1,32,0,59
1,32,127,1
1,32,0,29
1,32,127,1
1,32,0,29
1,31,127,1
1,31,0,29
1,29,127,1
1,29,0,89
1,26,127,1
1,26,0,119
1,26,127,1
1,26,0,59
1,26,127,61
1,26,0,29
1,29,127,1
1,29,0,29
1,29,127,1
1,29,0,59
1,29,127,1
1,29,0,59
1,31,127,61
1,31,0,2
1,31,127,28
1,31,0,29
1,31,127,1
1,31,0,59
1,31,127,1
1,31,0,59
1,31,127,1
1,31,0,59
1,32,127,1
1,32,0,59
1,32,127,1
1,32,0,29
1,32,127,1
1,32,0,29
1,31,127,1
1,31,0,29
1,29,127,1
1,29,0,89
1,26,127,3841
1,26,0,959
1,26,127,1
1,26,0,959
1,38,127,1
1,38,0,29
1,38,127,1
1,38,0,29
1,38,127,1
1,38,0,29
1,38,127,1
1,38,0,29
1,38,127,1
1,38,0,29
1,38,127,31
1,38,0,29
1,38,127,1
1,38,0,29
1,38,127,1
1,38,0,29
1,38,127,1
1,38,0,29
1,38,127,1
1,38,0,29
1,38,127,151
1,38,0,29
1,38,127,1
1,38,0,29
1,38,127,1
1,38,0,29
1,38,127,1
1,38,0,29
1,38,127,1
1,38,0,29
1,38,127,31
1,38,0,29
1,38,127,1
1,38,0,29
1,38,127,1
1,38,0,29
1,38,127,1
1,38,0,29
1,38,127,1
1,38,0,29
1,38,127,151
1,38,0,29
1,38,127,1
1,38,0,29
1,38,127,1
1,38,0,29
1,38,127,1
1,38,0,29
1,38,127,1
1,38,0,29
1,38,127,31
1,38,0,29
1,38,127,1
1,38,0,29
1,38,127,1
1,38,0,29
1,38,127,1
1,38,0,29
1,38,127,1
1,38,0,29
1,38,127,151
1,38,0,29
1,38,127,1
1,38,0,29
1,38,127,1
1,38,0,29
1,38,127,1
1,38,0,29
1,38,127,1
1,38,0,29
1,38,127,31
1,38,0,29
1,38,127,1
1,38,0,29
1,38,127,1
1,38,0,29
1,38,127,1
1,38,0,29
1,38,127,1
1,38,0,29
1,38,127,151
1,38,0,29
1,38,127,1
1,38,0,29
1,38,127,1
1,38,0,29
1,38,127,1
1,38,0,29
1,38,127,1
1,38,0,59
1,40,127,1
1,40,0,29
1,40,127,1
1,40,0,29
1,40,127,1
1,40,0,29
1,40,127,1
1,40,0,29
1,40,127,1
1,40,0,59
1,40,127,1
1,40,0,29
1,40,127,1
1,40,0,29
1,40,127,1
1,40,0,59
1,41,127,1
1,41,0,29
1,41,127,1
1,41,0,29
1,41,127,1
1,41,0,29
1,41,127,1
1,41,0,29
1,41,127,1
1,41,0,59
1,40,127,1
1,40,0,29
1,40,127,1
1,40,0,29
1,40,127,1
1,40,0,29
1,40,127,1
1,40,0,29
1,40,127,1
1,40,0,59
1,36,127,1
1,36,0,29
1,36,127,1
1,36,0,29
1,36,127,1
1,36,0,59
1,38,127,1
1,38,0,29
1,38,127,1
1,38,0,29
1,38,127,1
1,38,0,29
1,38,127,1
1,38,0,29
1,38,127,1
1,38,0,59
1,40,127,1
1,40,0,29
1,40,127,1
1,40,0,29
1,40,127,1
1,40,0,29
1,40,127,1
1,40,0,29
1,40,127,1
1,40,0,59
1,40,127,1
1,40,0,29
1,40,127,1
1,40,0,29
1,40,127,1
1,40,0,59
1,41,127,1
1,41,0,29
1,41,127,1
1,41,0,29
1,41,127,1
1,41,0,29
1,41,127,1
1,41,0,29
1,41,127,1
1,41,0,59
1,40,127,1
1,40,0,29
1,40,127,1
1,40,0,29
1,40,127,1
1,40,0,29
1,40,127,1
1,40,0,29
1,40,127,1
1,40,0,59
1,36,127,1
1,36,0,29
1,36,127,1
1,36,0,29
1,36,127,1
1,36,0,59
1,38,127,1
1,38,0,29
1,38,127,1
1,38,0,29
1,38,127,1
1,38,0,29
1,38,127,1
1,38,0,29
1,38,127,1
1,38,0,59
1,40,127,1
1,40,0,29
1,40,127,1
1,40,0,29
1,40,127,1
1,40,0,29
1,40,127,1
1,40,0,29
1,40,127,1
1,40,0,59
1,40,127,1
1,40,0,29
1,40,127,1
1,40,0,29
1,40,127,1
1,40,0,59
1,41,127,1
1,41,0,29
1,41,127,1
1,41,0,29
1,41,127,1
1,41,0,29
1,41,127,1
1,41,0,29
1,41,127,1
1,41,0,59
1,40,127,1
1,40,0,29
1,40,127,1
1,40,0,29
1,40,127,1
1,40,0,29
1,40,127,1
1,40,0,29
1,40,127,1
1,40,0,59
