track,note,velocity,time
1,46,120,128998
1,46,0,59
1,48,120,61
1,48,0,59
1,46,120,61
1,46,0,59
1,48,120,61
1,48,0,59
1,46,120,61
1,46,0,59
1,46,120,1381
1,46,0,59
1,48,120,61
1,48,0,59
1,46,120,61
1,46,0,59
1,48,120,61
1,48,0,59
1,51,120,61
1,51,0,59
1,46,120,1381
1,46,0,59
1,48,120,61
1,48,0,59
1,46,120,61
1,46,0,59
1,48,120,61
1,48,0,59
1,46,120,61
1,46,0,59
1,46,120,1381
1,46,0,59
1,48,120,61
1,48,0,59
1,46,120,61
1,46,0,59
1,48,120,61
1,48,0,59
1,51,120,61
1,51,0,59
1,46,120,12901
1,46,0,59
1,48,120,61
1,48,0,59
1,46,120,61
1,46,0,59
1,48,120,61
1,48,0,59
1,46,120,61
1,46,0,59
1,46,120,1381
1,46,0,59
1,48,120,61
1,48,0,59
1,46,120,61
1,46,0,59
1,48,120,61
1,48,0,59
1,51,120,61
1,51,0,59
1,46,120,1381
1,46,0,59
1,48,120,61
1,48,0,59
1,46,120,61
1,46,0,59
1,48,120,61
1,48,0,59
1,46,120,61
1,46,0,59
1,46,120,1381
1,46,0,59
1,48,120,61
1,48,0,59
1,46,120,61
1,46,0,59
1,48,120,61
1,48,0,59
1,51,120,61
1,51,0,59
1,46,120,1381
1,46,0,59
1,48,120,61
1,48,0,59
1,46,120,61
1,46,0,59
1,48,120,61
1,48,0,59
1,46,120,61
1,46,0,59
1,46,120,1381
1,46,0,59
1,48,120,61
1,48,0,59
1,46,120,61
1,46,0,59
1,48,120,61
1,48,0,59
1,51,120,61
1,51,0,59
2,36,118,0
2,36,0,88
2,48,127,32
2,48,0,58
2,36,127,62
2,36,0,71
2,48,127,49
2,48,0,71
2,36,127,49
2,36,0,79
2,48,127,41
2,48,0,56
2,36,127,64
2,36,0,74
2,48,125,46
2,48,0,73
2,36,127,47
2,36,0,79
2,48,127,41
2,48,0,65
2,36,127,55
2,36,0,70
2,48,127,50
2,48,0,80
2,36,127,40
2,36,0,85
2,48,127,35
2,48,0,83
2,36,127,37
2,36,0,76
2,48,127,44
2,48,0,93
2,36,127,27
2,36,0,79
2,48,127,41
2,48,0,65
2,36,127,55
2,36,0,70
2,48,127,50
2,48,0,80
2,36,127,40
2,36,0,85
2,48,127,35
2,48,0,83
2,36,127,37
2,36,0,76
2,48,127,44
2,48,0,93
2,36,127,27
2,36,0,79
2,48,127,41
2,48,0,65
2,36,127,55
2,36,0,70
2,48,127,50
2,48,0,80
2,36,127,40
2,36,0,85
2,48,127,35
2,48,0,83
2,36,127,37
2,36,0,76
2,48,127,44
2,48,0,93
2,36,127,27
2,36,0,76
2,48,127,44
2,48,0,79
2,36,127,41
2,36,0,78
2,48,127,42
2,48,0,84
2,36,127,36
2,36,0,71
2,48,127,49
2,48,0,80
2,36,127,40
2,36,0,80
2,48,127,40
2,48,0,94
2,36,127,26
2,36,0,79
2,48,127,41
2,48,0,93
2,36,127,27
2,36,0,79
2,48,127,41
2,48,0,94
2,36,127,26
2,36,0,77
2,48,127,43
2,48,0,109
2,36,127,11
2,36,0,81
2,48,127,39
2,48,0,92
2,36,127,28
2,36,0,73
2,48,127,47
2,48,0,103
2,36,127,17
2,36,0,79
2,48,127,41
2,48,0,100
2,36,127,20
2,36,0,77
2,48,127,43
2,48,0,91
2,36,127,29
2,36,0,73
2,48,127,47
2,48,0,104
2,36,127,16
2,36,0,81
2,48,127,39
2,48,0,92
2,36,127,28
2,36,0,75
2,48,127,45
2,48,0,99
2,36,127,21
2,36,0,71
2,48,127,49
2,48,0,82
2,36,127,38
2,36,0,68
2,48,127,52
2,48,0,102
2,36,127,18
2,36,0,76
2,48,127,44
2,48,0,93
2,36,127,27
2,36,0,84
2,48,127,36
2,48,0,100
2,36,127,20
2,36,0,81
2,48,127,39
2,48,0,109
2,36,127,11
2,36,0,76
2,48,127,44
2,48,0,102
2,36,127,18
2,36,0,74
2,48,127,46
2,48,0,100
2,36,127,20
2,36,0,76
2,48,127,44
2,48,0,95
2,36,127,25
2,36,0,76
2,48,127,44
2,48,0,89
2,36,127,31
2,36,0,75
2,48,127,45
2,48,0,108
2,36,127,12
2,36,0,70
2,48,127,50
2,48,0,94
2,36,127,26
2,36,0,75
2,48,127,45
2,48,0,94
2,36,127,26
2,36,0,73
2,48,127,47
2,48,0,89
2,36,127,31
2,36,0,73
2,48,127,47
2,48,0,101
2,36,127,19
2,36,0,85
2,48,127,35
2,48,0,104
2,36,127,16
2,36,0,85
2,48,127,35
2,48,0,103
2,36,127,17
2,36,0,85
2,48,127,35
2,48,0,111
2,36,127,9
2,36,0,97
2,48,127,23
2,48,0,112
2,36,127,8
2,36,0,83
2,48,127,37
2,48,0,101
2,36,127,19
2,36,0,77
2,48,127,43
2,48,0,103
2,36,127,17
2,36,0,78
2,48,127,42
2,48,0,96
2,36,127,24
2,36,0,76
2,48,127,44
2,48,0,94
2,36,127,26
2,36,0,76
2,48,127,44
2,48,0,98
2,36,127,22
2,36,0,80
2,48,127,40
2,48,0,92
2,36,127,28
2,36,0,101
2,48,127,19
2,48,0,81
2,36,127,39
2,36,0,98
2,48,127,22
2,48,0,104
2,36,127,16
2,36,0,102
2,48,127,18
2,48,0,94
2,36,127,26
2,36,0,89
2,48,127,31
2,48,0,93
2,36,127,27
2,36,0,78
2,48,127,42
2,48,0,95
2,36,127,25
2,36,0,90
2,48,127,30
2,48,0,99
2,36,127,21
2,36,0,83
2,48,127,37
2,48,0,94
2,36,127,26
2,36,0,90
2,48,127,30
2,48,0,86
2,36,127,34
2,36,0,81
2,48,127,39
2,48,0,78
2,36,127,42
2,36,0,84
2,48,127,36
2,48,0,82
2,36,127,38
2,31,127,0
2,31,127,0
2,31,0,1
2,36,0,9
2,31,0,57
2,43,127,53
2,43,0,61
2,31,127,59
2,31,0,58
2,43,127,62
2,43,0,58
2,31,127,62
2,31,0,58
2,43,127,62
2,43,0,61
2,31,127,59
2,31,0,59
2,43,127,61
2,43,0,62
2,31,127,58
2,31,0,66
2,43,127,54
2,43,0,61
2,31,127,59
2,31,0,67
2,43,127,53
2,43,0,68
2,31,127,52
2,31,0,62
2,43,127,58
2,43,0,73
2,31,127,47
2,31,0,65
2,43,127,55
2,43,0,70
2,31,127,50
2,31,0,61
2,43,127,59
2,43,0,69
2,31,127,51
2,31,0,60
2,43,127,60
2,43,0,68
2,31,127,52
2,31,0,62
2,43,127,58
2,43,0,64
2,31,127,56
2,31,0,63
2,43,127,57
2,43,0,65
2,31,127,55
2,31,0,61
2,43,127,59
2,43,0,66
2,31,127,54
2,31,0,71
2,43,127,49
2,43,0,76
2,31,127,44
2,31,0,89
2,43,127,31
2,43,0,78
2,31,127,42
2,31,0,94
2,43,127,26
2,43,0,60
2,31,127,60
2,31,0,85
2,43,127,35
2,43,0,64
2,31,127,56
2,31,0,76
2,43,127,44
2,43,0,74
2,29,127,46
2,29,0,92
2,41,127,28
2,41,0,70
2,29,127,50
2,29,0,102
2,41,127,18
2,41,0,98
2,28,127,22
2,28,0,92
2,40,127,28
2,40,0,76
2,28,127,44
2,28,0,100
2,40,127,20
2,40,0,87
2,26,127,33
2,26,0,93
2,38,127,27
2,38,0,74
2,26,127,46
2,26,0,66
2,38,127,54
2,38,0,58
2,36,127,62
2,36,0,70
2,48,127,50
2,48,0,51
2,36,127,69
2,36,0,73
2,48,127,47
2,48,0,72
2,36,127,48
2,36,0,63
2,48,127,57
2,48,0,70
2,36,127,50
2,36,0,58
2,48,127,62
2,48,0,56
2,36,127,64
2,36,0,66
2,48,127,54
2,48,0,63
2,36,127,57
2,36,0,68
2,48,127,52
2,48,0,61
2,36,127,59
2,36,0,71
2,48,127,49
2,48,0,61
2,36,127,59
2,36,0,79
2,48,127,41
2,48,0,61
2,36,127,59
2,36,0,73
2,48,127,47
2,48,0,58
2,36,127,62
2,36,0,69
2,48,127,51
2,48,0,61
2,36,127,59
2,36,0,70
2,48,127,50
2,48,0,59
2,36,127,61
2,36,0,62
2,48,127,58
2,48,0,51
2,36,127,69
2,36,0,73
2,48,127,47
2,48,0,58
2,36,127,62
2,36,0,61
2,48,127,59
2,48,0,54
2,36,127,66
2,36,0,64
2,48,127,56
2,48,0,57
2,36,127,63
2,36,0,66
2,48,127,54
2,48,0,56
2,36,127,64
2,36,127,0
2,36,0,18
2,36,0,52
2,48,127,50
2,48,0,51
2,36,127,69
2,36,0,73
2,48,127,47
2,48,0,72
2,36,127,48
2,36,0,63
2,48,127,57
2,48,0,70
2,36,127,50
2,36,0,58
2,48,127,62
2,48,0,56
2,36,127,64
2,36,0,66
2,48,127,54
2,48,0,63
2,36,127,57
2,36,0,68
2,48,127,52
2,48,0,61
2,36,127,59
2,36,0,71
2,48,127,49
2,48,0,61
2,36,127,59
2,36,0,79
2,48,127,41
2,48,0,61
2,36,127,59
2,36,0,73
2,48,127,47
2,48,0,58
2,36,127,62
2,36,0,69
2,48,127,51
2,48,0,61
2,36,127,59
2,36,0,70
2,48,127,50
2,48,0,59
2,36,127,61
2,36,0,62
2,48,127,58
2,48,0,51
2,36,127,69
2,36,0,73
2,48,127,47
2,48,0,58
2,36,127,62
2,36,0,61
2,48,127,59
2,48,0,54
2,36,127,66
2,36,0,64
2,48,127,56
2,48,0,57
2,36,127,63
2,36,0,66
2,48,127,54
2,48,0,56
2,36,127,64
2,31,127,0
2,36,0,18
2,31,0,67
2,43,127,35
2,43,0,64
2,31,127,56
2,31,0,76
2,43,127,44
2,43,0,74
2,29,127,46
2,29,0,92
2,41,127,28
2,41,0,70
2,29,127,50
2,29,0,102
2,41,127,18
2,41,0,98
2,28,127,22
2,28,0,92
2,40,127,28
2,40,0,76
2,28,127,44
2,28,0,100
2,40,127,20
2,40,0,87
2,26,127,33
2,26,0,93
2,38,127,27
2,38,0,74
2,26,127,46
2,26,0,66
2,38,127,54
2,38,0,58
2,36,100,7622
2,36,0,60
2,36,127,60
2,36,0,43
2,36,127,77
2,36,0,48
2,31,127,72
2,31,0,46
2,31,127,74
2,31,0,51
2,34,123,69
2,34,0,36
2,34,126,84
2,34,0,45
2,35,127,75
2,35,0,42
2,35,127,78
2,35,0,44
2,36,127,76
2,36,0,47
2,36,127,73
2,36,0,52
2,31,127,68
2,31,0,46
2,31,127,74
2,31,0,45
2,34,126,75
2,34,0,40
2,34,126,80
2,34,0,49
2,35,127,71
2,35,0,164
2,36,127,76
2,36,0,43
2,36,127,77
2,36,0,48
2,31,127,72
2,31,0,46
2,31,127,74
2,31,0,51
2,34,123,69
2,34,0,36
2,34,126,84
2,34,0,45
2,35,127,75
2,35,0,42
2,35,127,78
2,35,0,44
2,36,127,76
2,36,0,47
2,36,127,73
2,36,0,52
2,31,127,68
2,31,0,46
2,31,127,74
2,31,0,45
2,34,126,75
2,34,0,40
2,34,126,80
2,34,0,49
2,35,127,71
2,35,0,164
2,36,127,76
2,36,0,43
2,36,127,77
2,36,0,48
2,31,127,72
2,31,0,46
2,31,127,74
2,31,0,51
2,34,123,69
2,34,0,36
2,34,126,84
2,34,0,45
2,35,127,75
2,35,0,42
2,35,127,78
2,35,0,44
2,36,127,76
2,36,0,47
2,36,127,73
2,36,0,52
2,31,127,68
2,31,0,46
2,31,127,74
2,31,0,45
2,34,126,75
2,34,0,40
2,34,126,80
2,34,0,49
2,35,127,71
2,35,0,164
2,36,127,76
2,36,0,43
2,36,127,77
2,36,0,48
2,31,127,72
2,31,0,46
2,31,127,74
2,31,0,51
2,34,123,69
2,34,0,36
2,34,126,84
2,34,0,45
2,35,127,75
2,35,0,42
2,35,127,78
2,35,0,44
2,36,127,76
2,36,0,47
2,36,127,73
2,36,0,52
2,31,127,68
2,31,0,46
2,31,127,74
2,31,0,45
2,34,126,75
2,34,0,40
2,34,126,80
2,34,0,49
2,35,127,71
2,35,0,164
2,36,127,76
2,36,0,43
2,36,127,77
2,36,0,48
2,31,127,72
2,31,0,46
2,31,127,74
2,31,0,51
2,34,123,69
2,34,0,36
2,34,126,84
2,34,0,45
2,35,127,75
2,35,0,42
2,35,127,78
2,35,0,44
2,36,127,76
2,36,0,47
2,36,127,73
2,36,0,52
2,31,127,68
2,31,0,46
2,31,127,74
2,31,0,45
2,34,126,75
2,34,0,40
2,34,126,80
2,34,0,49
2,35,127,71
2,35,0,164
2,36,127,76
2,36,0,44
2,36,127,76
2,36,0,47
2,31,127,73
2,31,0,46
2,31,127,74
2,31,0,43
2,31,118,77
2,34,88,0
2,31,0,19
2,34,0,25
2,34,123,76
2,34,0,39
2,35,127,81
2,35,0,42
2,35,127,78
2,35,0,43
2,36,127,77
2,36,0,46
2,36,127,74
2,36,0,51
2,31,127,69
2,31,0,44
2,31,127,76
2,31,0,47
2,34,126,73
2,34,0,40
2,34,127,80
2,34,0,45
2,35,127,75
2,35,0,140
2,36,127,100
2,36,0,42
2,36,127,78
2,36,0,43
2,31,127,77
2,31,0,44
2,31,127,76
2,31,0,49
2,34,127,71
2,34,0,39
2,34,126,81
2,34,0,42
2,35,127,78
2,35,0,42
2,35,127,78
2,35,0,46
2,36,127,74
2,36,0,46
2,36,127,74
2,36,0,48
2,31,127,72
2,31,0,45
2,31,127,75
2,31,0,49
2,34,126,71
2,34,0,42
2,34,123,78
2,34,0,48
2,35,127,72
2,35,0,139
2,36,127,101
2,36,0,43
2,36,127,77
2,36,0,49
2,31,127,71
2,31,0,48
2,31,127,72
2,31,0,48
2,34,127,72
2,34,0,39
2,34,126,81
2,34,0,49
2,35,127,71
2,35,0,44
2,35,127,76
2,35,0,49
2,36,127,71
2,36,0,46
2,36,127,74
2,36,0,54
2,31,127,66
2,31,0,43
2,31,127,77
2,31,0,51
2,34,126,69
2,34,0,37
2,34,123,83
2,34,0,49
2,35,127,71
2,35,0,122
2,36,127,118
2,36,0,42
2,36,127,78
2,36,0,47
2,31,127,73
2,31,0,54
2,31,127,66
2,31,0,53
2,34,121,67
2,34,0,47
2,34,123,73
2,34,0,48
2,35,127,72
2,35,0,50
2,35,127,70
2,35,0,43
2,36,127,77
2,36,0,45
2,36,127,75
2,36,0,45
2,31,127,75
2,31,0,47
2,31,127,73
2,31,0,50
2,34,126,70
2,34,0,39
2,34,121,81
2,34,0,51
2,35,127,69
2,35,0,134
2,36,127,106
2,36,0,42
2,36,127,78
2,36,0,48
2,31,127,72
2,31,0,50
2,31,127,70
2,31,0,49
2,34,126,71
2,34,0,40
2,34,126,80
2,34,0,42
2,35,127,78
2,35,0,40
2,35,127,80
2,35,0,49
2,36,127,71
2,36,0,48
2,36,127,72
2,36,0,46
2,31,127,74
2,31,0,45
2,31,127,75
2,31,0,46
2,34,126,74
2,34,0,40
2,34,123,80
2,34,0,55
2,35,127,65
2,35,0,140
2,36,127,100
2,36,0,45
2,36,127,75
2,36,0,51
2,31,127,69
2,31,0,53
2,31,127,67
2,31,0,51
2,34,126,69
2,34,0,39
2,34,121,81
2,34,0,47
2,35,127,73
2,35,0,46
2,35,127,74
2,35,0,49
2,36,127,71
2,36,0,49
2,36,127,71
2,36,0,48
2,31,127,72
2,31,0,49
2,31,127,71
2,31,0,49
2,34,121,71
2,34,0,41
2,34,123,79
2,34,0,49
2,35,127,71
2,35,0,142
2,36,127,98
2,36,0,47
2,36,127,73
2,36,0,48
2,31,127,72
2,31,0,44
2,31,127,76
2,31,0,51
2,34,123,69
2,34,0,41
2,34,121,79
2,34,0,51
2,35,127,69
2,35,0,43
2,35,127,77
2,35,0,50
2,36,127,70
2,36,0,46
2,36,127,74
2,36,0,48
2,31,127,72
2,31,0,49
2,31,127,71
2,31,0,47
2,34,126,73
2,34,0,43
2,34,126,77
2,34,0,50
2,35,127,70
2,35,0,170
2,36,127,70
2,36,0,60
2,41,127,0
2,29,80,0
2,29,0,60
2,41,0,0
2,41,127,60
2,29,80,0
2,29,0,60
2,41,0,0
2,29,80,60
2,41,127,0
2,41,0,60
2,29,0,0
2,41,127,60
2,29,80,0
