track,note,velocity,time
1,31,87,744
1,38,84,18
1,38,89,272
1,38,100,216
1,31,75,2
1,31,66,92
1,38,83,86
1,31,76,98
1,31,57,108
1,38,83,102
1,38,83,58
1,31,75,104
1,31,66,92
1,38,83,86
1,31,76,98
1,31,57,108
1,38,83,102
1,38,83,58
1,31,75,104
1,31,66,92
1,38,83,86
1,31,76,98
1,31,57,108
1,38,83,102
1,38,83,58
1,38,87,104
1,38,61,92
1,33,68,86
1,38,76,98
1,38,57,108
1,33,68,102
1,33,68,58
1,33,75,104
1,33,66,92
1,40,83,86
1,33,76,98
1,33,57,108
1,40,83,102
1,40,83,58
1,33,75,104
1,33,66,92
1,40,83,86
1,38,76,98
1,38,57,108
1,33,83,102
1,38,83,58
1,31,75,104
1,31,66,92
1,38,83,86
1,31,76,98
1,31,57,108
1,38,83,102
1,38,83,58
1,31,75,104
1,31,66,92
1,38,83,86
1,31,76,98
1,31,57,108
1,38,83,102
1,38,83,58
1,31,75,104
1,31,66,92
1,38,83,86
1,31,76,98
1,31,57,108
1,38,83,102
1,38,83,58
1,36,64,104
1,36,69,116
1,31,60,26
1,31,59,92
1,36,71,54
1,36,71,78
1,31,61,50
1,31,64,74
1,33,81,96
1,33,65,108
1,28,91,26
1,28,77,110
1,33,72,48
1,33,66,108
1,28,67,18
1,33,64,22
1,31,62,44
1,31,58,108
1,38,78,34
1,38,62,76
1,31,64,24
1,31,52,124
1,38,74,26
1,38,69,74
1,38,87,174
1,38,69,114
1,33,66,24
1,33,64,130
1,38,67,64
1,38,72,124
1,33,76,42
1,38,82,2
1,31,60,2
1,31,58,140
1,38,80,26
1,38,84,146
1,31,67,18
1,38,91,2208
1,43,91,96
1,38,105,2
1,38,93,192
1,33,89,2
1,36,83,96
1,38,93,96
1,38,89,96
1,33,82,2
1,36,86,96
1,38,91,2
1,38,87,96
1,33,81,2
1,36,81,2
1,38,84,2
1,38,74,96
1,33,89,2
1,38,89,2
1,31,74,2
1,31,66,96
1,35,82,96
1,38,83,2
1,31,83,2
1,31,54,192
1,35,81,96
1,38,86,2
1,31,89,2
1,31,53,192
1,35,80,96
1,38,91,2
1,31,84,2
1,31,60,192
1,35,77,96
1,38,86,2
1,38,82,30
1,38,82,192
1,33,84,2
1,36,84,2
1,38,87,2
1,38,86,192
1,33,77,2
1,36,78,2
1,38,87,2
1,38,84,192
1,33,82,2
1,36,80,2
1,38,87,2
1,38,77,192
1,33,82,96
1,38,84,2
1,31,85,2
1,31,60,192
1,35,86,96
1,38,86,2
1,31,73,2
1,38,91,2208
1,43,91,96
1,38,105,2
1,38,93,192
1,33,89,2
1,36,83,96
1,38,93,96
1,38,89,96
1,33,82,2
1,36,86,96
1,38,91,2
1,38,87,96
1,33,81,2
1,36,81,2
1,38,84,2
1,38,74,96
1,33,89,2
1,38,89,2
1,31,74,2
1,31,66,96
1,35,82,96
1,38,83,2
1,31,83,2
1,31,54,192
1,35,81,96
1,38,86,2
1,36,104,2
1,36,91,100
1,39,98,26
1,43,84,16
1,36,82,4
1,36,73,100
1,39,79,2
1,43,86,20
1,31,91,24
1,31,74,108
1,35,89,42
1,38,89,2
1,31,73,6
1,31,80,108
1,35,78,42
1,38,86,14
1,38,86,120
1,38,84,102
1,33,89,24
1,36,78,14
1,38,91,2
1,38,86,126
1,33,86,26
1,38,89,22
1,31,85,22
1,31,70,86
1,38,89,26
1,31,95,28
1,31,73,108
1,38,81,34
1,38,93,74
1,31,75,96
1,31,66,92
1,38,83,86
1,31,76,98
1,31,57,108
1,38,83,102
1,38,83,58
1,31,75,104
1,31,66,92
1,38,83,86
1,31,76,98
1,31,57,108
1,38,83,102
1,38,83,58
1,38,87,104
1,38,61,92
1,33,68,86
1,38,76,98
1,38,57,108
1,33,68,102
1,33,68,58
1,33,75,104
1,33,66,92
1,40,83,86
1,33,76,98
1,33,57,108
1,40,83,102
1,40,83,58
1,33,75,104
1,33,66,92
1,40,83,86
1,38,76,98
1,38,57,108
1,33,83,102
1,38,83,58
1,31,75,104
1,31,66,92
1,38,83,86
1,31,76,98
1,31,57,108
1,38,83,102
1,38,83,58
1,31,75,104
1,31,66,92
1,38,83,86
1,31,76,98
1,31,57,108
1,38,83,102
1,38,83,58
1,31,75,104
1,31,66,92
1,38,83,86
1,31,76,98
1,31,57,108
1,38,83,102
1,38,83,58
1,36,64,104
1,36,69,116
1,31,60,26
1,31,59,92
1,36,71,54
1,36,71,78
1,31,61,50
1,31,64,74
1,33,81,96
1,33,65,108
1,28,91,26
1,28,77,110
1,33,72,48
1,33,66,108
1,28,67,18
1,33,64,22
1,31,62,44
1,31,58,108
1,38,78,34
1,38,62,76
1,31,64,24
1,31,52,124
1,38,74,26
1,38,69,74
1,38,87,174
1,38,69,114
1,33,66,24
1,33,64,130
1,38,67,64
1,38,72,124
1,33,76,42
1,38,82,2
1,31,60,2
1,31,58,140
1,38,80,26
1,38,84,146
1,31,67,18
1,38,91,2208
1,43,91,96
1,38,105,2
1,38,93,192
1,33,89,2
1,36,83,96
1,38,93,96
1,38,89,96
1,33,82,2
1,36,86,96
1,38,91,2
1,38,87,96
1,33,81,2
1,36,81,2
1,38,84,2
1,38,74,96
1,33,89,2
1,38,89,2
1,31,74,2
1,31,66,96
1,35,82,96
1,38,83,2
1,31,83,2
1,31,54,192
1,35,81,96
1,38,86,2
1,31,89,2
1,31,53,192
1,35,80,96
1,38,91,2
1,31,84,2
1,31,60,192
1,35,77,96
1,38,86,2
1,38,82,30
1,38,82,192
1,33,84,2
1,36,84,2
1,38,87,2
1,38,86,192
1,33,77,2
1,36,78,2
1,38,87,2
1,38,84,192
1,33,82,2
1,36,80,2
1,38,87,2
1,38,77,192
1,33,82,96
1,38,84,2
1,31,85,2
1,31,60,192
1,35,86,96
1,38,86,2
1,31,73,2
1,38,91,2208
1,43,91,96
1,38,105,2
1,38,93,192
1,33,89,2
1,36,83,96
1,38,93,96
1,38,89,96
1,33,82,2
1,36,86,96
1,38,91,2
1,38,87,96
1,33,81,2
1,36,81,2
1,38,84,2
1,38,74,96
1,33,89,2
1,38,89,2
1,31,74,2
1,31,66,96
1,35,82,96
1,38,83,2
1,31,83,2
1,31,54,192
1,35,81,96
1,38,86,2
1,36,104,2
1,36,91,100
1,39,98,26
1,43,84,16
1,36,82,4
1,36,73,100
1,39,79,2
1,43,86,20
1,31,91,24
1,31,74,108
1,35,89,42
1,38,89,2
1,31,73,6
1,31,80,108
1,35,78,42
1,38,86,14
1,38,86,120
1,38,84,102
1,33,89,24
1,36,78,14
1,38,91,2
1,38,86,126
1,33,86,26
1,38,89,22
1,31,85,22
1,31,70,86
1,38,89,26
1,31,67,28
1,38,91,2208
1,43,91,96
1,38,105,2
1,38,93,192
1,33,89,2
1,36,83,96
1,38,93,96
1,38,89,96
1,33,82,2
1,36,86,96
1,38,91,2
1,38,87,232
1,33,81,2
1,36,81,2
1,38,84,2
1,38,74,96
1,33,89,2
1,38,89,2
1,31,74,2
1,31,66,96
1,35,82,96
1,38,83,2
1,31,83,2
1,31,54,192
1,35,81,96
1,38,86,2
1,36,104,2
1,36,91,100
1,39,98,26
1,43,84,16
1,36,82,4
1,36,73,100
1,39,79,2
1,43,86,20
1,31,91,24
1,31,74,108
1,35,89,42
1,38,89,2
1,31,73,6
1,31,80,108
1,35,78,42
1,38,86,14
1,38,86,120
1,38,84,102
1,33,89,24
1,36,78,14
1,38,91,2
1,38,86,126
1,33,86,26
1,38,89,22
1,31,85,22
1,31,70,86
1,38,89,26
1,31,67,28
1,38,91,2208
1,43,91,96
1,38,105,2
1,38,93,192
1,33,89,2
1,36,83,96
1,38,93,96
1,38,89,96
1,33,82,2
1,36,86,96
1,38,91,2
1,38,87,96
1,33,81,2
1,36,81,2
1,38,84,2
1,38,74,96
1,33,89,2
1,38,89,2
1,31,74,2
1,31,66,96
1,35,82,96
1,38,83,2
1,31,83,2
1,31,54,192
1,35,81,96
1,38,86,2
1,31,89,2
1,31,53,192
1,35,80,96
1,38,91,2
1,31,84,2
1,31,60,192
1,35,77,96
1,38,86,2
1,38,82,30
1,38,82,192
1,33,84,2
1,36,84,2
1,38,87,2
1,38,86,192
1,33,77,2
1,36,78,2
1,38,87,2
1,38,84,192
1,33,82,2
1,36,80,2
1,38,87,2
1,38,77,192
1,33,82,96
1,38,84,2
1,31,85,2
1,31,60,192
1,35,86,96
1,38,86,2
1,31,73,2
2,59,57,700
2,67,63,0
2,60,63,1116
2,69,65,4
2,62,63,374
2,71,66,0
2,71,52,52
2,62,72,8
2,64,58,552
2,72,62,2
2,62,61,172
2,71,62,16
2,60,55,686
2,69,57,8
2,60,67,66
2,69,55,8
2,60,66,58
2,69,49,10
2,60,62,74
2,69,56,24
2,62,60,362
2,71,62,22
2,64,54,354
2,72,62,6
2,62,59,6
2,71,63,16
2,60,67,558
2,66,56,8
2,59,53,30
2,62,52,8
2,67,53,8
2,60,88,9176
2,64,70,0
2,67,88,0
2,62,81,6
2,66,64,0
2,69,87,0
2,62,75,66
2,66,77,0
2,69,93,0
2,60,87,7702
2,64,78,0
2,67,72,0
2,72,83,0
2,76,79,0
2,59,74,86
2,62,73,0
2,71,75,0
2,74,73,0
2,59,77,38
2,62,76,0
2,67,63,0
2,71,72,0
2,74,74,0
2,62,60,5782
2,71,71,0
2,62,63,72
2,71,72,0
2,60,45,0
2,69,69,0
2,60,56,216
2,69,81,0
2,59,62,0
2,68,70,0
2,60,55,382
2,69,74,0
2,62,58,4
2,71,73,0
2,60,56,14
2,69,71,0
2,59,58,376
2,68,65,0
2,60,53,4
2,69,73,0
2,59,56,6
2,67,71,0
2,58,51,0
2,66,65,0
2,59,55,18
2,67,67,0
2,60,55,384
2,69,73,0
2,59,56,342
2,67,65,0
2,57,49,342
2,66,55,0
2,55,47,34
2,64,67,0
2,55,47,78
2,64,64,0
2,54,44,24
2,62,60,0
2,60,59,146
2,64,65,0
2,59,60,768
2,62,59,0
2,55,64,392
2,59,72,0
2,67,60,0
2,71,81,0
2,55,54,88
2,59,61,0
2,67,54,0
2,71,79,0
2,55,58,82
2,59,75,0
2,67,60,0
2,71,74,0
2,57,55,6
2,60,60,0
2,69,69,0
2,72,64,0
2,59,61,4
2,62,54,0
2,71,75,0
2,74,61,0
2,59,72,396
2,62,72,0
2,71,70,0
2,74,72,0
2,59,72,102
2,62,70,0
2,71,66,0
2,74,74,0
2,59,72,98
2,62,75,0
2,71,70,0
2,74,72,0
2,60,66,12
2,64,70,0
2,72,68,0
2,76,75,0
2,59,68,0
2,62,77,0
2,71,69,0
2,74,72,0
2,57,46,16
2,60,72,0
2,69,69,0
2,72,65,0
2,57,77,84
2,60,72,0
2,69,65,0
2,72,74,0
2,57,69,1332
2,60,81,0
2,69,62,0
2,72,75,0
2,57,70,84
2,60,69,0
2,69,64,0
2,72,72,0
2,57,77,82
2,60,74,0
2,69,74,0
2,72,70,0
2,59,60,0
2,62,61,0
2,71,77,0
2,74,58,0
2,60,69,0
2,64,64,0
2,72,61,0
2,76,65,0
2,60,74,310
2,64,75,0
2,72,61,0
2,76,83,0
2,60,74,82
2,64,70,0
2,72,59,0
2,76,75,0
2,60,68,86
2,64,66,0
2,72,60,0
2,76,70,0
2,62,65,30
2,66,60,0
2,74,59,0
2,78,52,0
2,60,62,48
2,64,69,0
2,72,69,0
2,76,70,0
2,59,64,6
2,62,77,0
2,71,74,0
2,74,75,0
2,59,77,70
2,62,74,0
2,71,72,0
2,74,68,0
2,59,62,764
2,62,70,0
2,67,81,0
2,71,65,0
2,59,70,110
2,62,72,0
2,67,69,0
2,71,69,0
2,59,75,102
2,62,75,0
2,67,61,0
2,71,69,0
2,59,75,76
2,62,79,0
2,67,69,0
2,71,65,0
2,59,77,90
2,62,79,0
2,67,64,0
2,71,68,0
2,59,59,84
2,62,64,0
2,67,56,0
2,71,56,0
2,59,74,78
2,62,79,0
2,67,61,0
2,71,62,0
2,59,83,82
2,62,77,0
2,67,61,0
2,71,68,0
2,59,65,70
2,62,60,0
2,67,66,0
2,71,72,0
2,59,74,78
2,62,79,0
2,67,72,0
2,71,81,0
2,59,75,84
2,62,74,0
2,67,72,0
2,71,79,0
2,59,56,106
2,62,56,0
2,67,74,0
2,71,79,0
2,60,65,12
2,66,60,0
2,69,61,0
2,72,64,0
2,60,57,1198
2,66,58,0
2,69,70,0
2,72,57,0
2,60,61,110
2,66,58,0
2,69,79,0
2,72,68,0
2,60,75,96
2,66,83,0
2,69,75,0
2,72,68,0
2,60,74,92
2,66,65,0
2,69,70,0
2,72,61,0
2,60,69,56
2,66,54,0
2,69,72,0
2,72,62,0
2,60,70,116
2,66,67,0
2,69,75,0
2,72,70,0
2,60,66,96
2,66,57,0
2,69,74,0
2,72,64,0
2,60,75,82
2,66,63,0
2,69,70,0
2,72,61,0
2,60,64,88
2,66,58,0
2,69,70,0
2,72,62,0
2,59,61,40
2,62,62,0
2,67,69,0
2,71,79,0
2,55,64,368
2,59,72,0
2,67,60,0
2,71,81,0
2,55,54,88
2,59,61,0
2,67,54,0
2,71,79,0
2,55,58,82
2,59,75,0
2,67,60,0
2,71,74,0
2,57,55,6
2,60,60,0
2,69,69,0
2,72,64,0
2,59,61,4
2,62,54,0
2,71,75,0
2,74,61,0
2,59,72,396
2,62,72,0
2,71,70,0
2,74,72,0
2,59,72,102
2,62,70,0
2,71,66,0
2,74,74,0
2,59,72,98
2,62,75,0
2,71,70,0
2,74,72,0
2,60,66,12
2,64,70,0
2,72,68,0
2,76,75,0
2,59,68,0
2,62,77,0
2,71,69,0
2,74,72,0
2,57,46,16
2,60,72,0
2,69,69,0
2,72,65,0
2,57,77,84
2,60,72,0
2,69,65,0
2,72,74,0
2,57,69,1332
2,60,81,0
2,69,62,0
2,72,75,0
2,57,70,84
2,60,69,0
2,69,64,0
2,72,72,0
2,57,77,82
2,60,74,0
2,69,74,0
2,72,70,0
2,59,60,0
2,62,61,0
2,71,77,0
2,74,58,0
2,60,69,0
2,64,64,0
2,72,61,0
2,76,65,0
2,60,74,310
2,64,75,0
2,72,61,0
2,76,83,0
2,60,74,82
2,64,70,0
2,72,59,0
2,76,75,0
2,60,68,86
2,64,66,0
2,72,60,0
2,76,70,0
2,62,65,30
2,66,60,0
2,74,59,0
2,78,52,0
2,60,62,48
2,64,69,0
2,72,69,0
2,76,70,0
2,59,64,6
2,62,77,0
2,71,74,0
2,74,75,0
2,59,77,70
2,62,74,0
2,71,72,0
2,74,68,0
2,59,62,764
2,62,70,0
2,67,81,0
2,71,65,0
2,63,72,110
2,72,74,0
2,79,91,0
2,75,95,10
2,79,84,50
2,72,80,14
2,75,79,10
2,63,74,4
2,79,86,84
2,75,84,2
2,63,69,12
2,72,80,0
2,75,79,52
2,79,93,14
2,63,66,22
2,72,80,8
2,63,72,82
2,75,89,16
2,72,81,36
2,79,86,22
2,62,76,0
2,74,91,4
2,77,91,14
2,67,72,46
2,72,87,0
2,60,78,4
2,75,86,8
2,67,73,38
2,59,64,4
2,71,89,14
2,74,93,6
2,67,82,16
2,76,97,1490
2,72,87,8
2,64,78,10
2,67,74,6
2,66,72,14
2,69,86,0
2,74,100,6
2,62,87,2
2,74,102,50
2,69,82,2
2,62,78,16
2,66,75,14
2,69,87,148
2,78,84,12
2,66,69,14
2,74,76,4
2,69,72,2
2,72,67,0
2,81,78,2
2,74,82,6
2,79,72,102
2,67,66,4
2,71,72,8
2,74,82,0
2,60,88,9164
2,64,70,0
2,67,88,0
2,62,81,6
2,66,64,0
2,69,87,0
2,62,75,66
2,66,77,0
2,69,93,0
2,60,87,7702
2,64,78,0
2,67,72,0
2,72,83,0
2,76,79,0
2,59,74,86
2,62,73,0
2,71,75,0
2,74,73,0
2,59,77,38
2,62,76,0
2,67,63,0
2,71,72,0
2,74,74,0
2,62,60,5782
2,71,71,0
2,62,63,72
2,71,72,0
2,60,45,0
2,69,69,0
2,60,56,216
2,69,81,0
2,59,62,0
2,68,70,0
