track,note,velocity,time
1,65,124,23056
1,67,113,392
1,68,101,508
1,67,103,16
1,65,98,16
1,65,113,176
1,67,103,16
1,68,100,0
1,67,104,36
1,65,103,12
1,68,116,180
1,68,107,148
1,70,120,152
1,72,94,76
1,72,108,280
1,65,116,1144
1,67,103,380
1,68,94,12
1,67,94,32
1,65,95,32
1,65,116,220
1,67,101,44
1,68,84,0
1,67,83,28
1,65,92,372
1,68,120,228
1,68,112,232
1,70,127,228
1,72,93,60
1,72,111,236
1,68,116,644
1,73,105,36
1,73,116,120
1,73,103,276
1,75,112,48
1,73,116,32
1,72,113,52
1,72,111,132
1,72,99,192
1,73,120,192
1,72,104,88
1,68,120,136
1,68,109,136
1,68,109,192
1,73,120,208
1,72,111,32
1,70,124,164
1,72,95,52
1,72,113,372
1,72,124,192
1,72,111,192
1,72,113,208
1,73,116,108
1,75,109,16
1,73,127,16
1,72,113,32
1,75,107,120
1,75,109,148
1,75,105,172
1,75,112,204
1,73,116,100
1,72,104,44
1,70,116,52
1,70,112,600
1,70,109,164
1,70,112,188
1,70,116,208
1,72,103,76
1,73,109,28
1,72,113,60
1,70,112,4
1,70,116,296
1,70,112,164
1,70,109,204
1,70,116,236
1,72,97,60
1,73,107,108
1,72,108,136
1,72,104,1124
1,72,116,176
1,72,120,176
1,72,113,196
1,73,124,104
1,75,112,44
1,73,127,72
1,72,124,88
1,75,120,548
1,75,116,168
1,75,112,136
1,75,116,148
1,73,124,88
1,72,106,20
1,73,116,12
1,68,124,400
1,73,120,220
1,73,116,192
1,73,116,144
1,75,109,16
1,73,120,36
1,72,108,28
1,72,104,148
1,73,107,12
1,72,113,48
1,63,112,264
1,63,102,252
1,72,111,204
1,70,112,88
1,68,120,112
1,65,127,9768
1,65,104,132
1,65,99,180
1,65,111,176
1,67,104,124
1,68,112,212
1,67,97,64
1,65,108,20
1,68,112,260
1,68,109,180
1,70,120,120
1,70,105,88
1,72,104,128
1,65,111,944
1,67,97,100
1,68,91,44
1,67,101,76
1,65,101,368
1,65,113,192
1,67,108,16
1,68,94,32
1,67,96,16
1,65,99,16
1,68,120,176
1,68,120,248
1,70,127,164
1,70,100,216
1,72,94,64
1,73,127,720
1,73,120,120
1,73,116,128
1,75,120,32
1,73,124,32
1,72,111,12
1,72,113,168
1,73,105,12
1,72,103,32
1,68,120,368
1,68,107,216
1,73,127,168
1,72,113,88
1,70,120,220
1,72,104,32
1,72,116,564
1,72,120,176
1,72,111,120
1,72,116,136
1,73,127,88
1,75,124,104
1,73,112,48
1,72,113,48
1,75,120,328
1,75,112,160
1,75,112,60
1,75,112,120
1,73,116,108
1,72,104,132
1,70,112,104
1,70,124,280
1,70,116,152
1,70,109,192
1,70,120,252
1,72,116,144
1,73,116,176
1,72,116,72
1,70,112,116
1,70,124,328
1,70,112,168
1,70,116,192
1,70,124,208
1,72,116,148
1,73,116,220
1,72,104,76
1,72,113,1008
1,72,116,116
1,72,113,148
1,72,113,136
1,73,120,64
1,75,112,116
1,73,124,44
1,72,116,36
1,75,112,240
1,75,112,132
1,75,107,120
1,75,116,196
1,73,116,44
1,72,111,372
1,73,112,36
1,68,112,224
1,73,124,380
1,73,120,172
1,75,116,160
1,73,127,120
1,72,124,200
1,72,124,168
1,72,120,188
1,73,120,164
1,72,116,120
1,63,120,324
1,63,116,236
1,72,108,208
1,70,89,24
1,70,112,124
1,68,127,136
1,68,124,2668
1,65,116,16
1,65,113,168
1,65,113,208
1,68,72,24
1,67,103,48
1,68,116,180
1,67,106,60
1,64,93,32
1,68,124,568
1,65,101,16
1,65,101,160
1,65,113,236
1,67,104,32
1,68,107,148
1,67,111,64
1,65,111,160
1,68,120,80
1,68,109,116
1,68,105,136
1,68,112,196
1,70,109,12
1,68,109,44
1,68,109,120
1,63,120,48
1,68,127,840
1,68,116,132
1,68,124,148
1,68,127,192
1,70,127,116
1,68,127,132
1,67,127,224
1,72,116,76
1,72,106,408
1,72,101,120
1,72,106,132
1,72,106,180
1,73,105,116
1,75,105,104
1,73,109,32
1,72,108,32
1,75,109,252
1,75,105,132
1,75,97,144
1,75,99,164
1,73,95,28
1,72,101,88
1,70,102,64
1,70,107,292
1,70,99,144
1,70,107,160
1,70,105,208
1,72,101,116
1,73,105,116
1,72,98,72
1,70,103,72
1,70,105,252
1,70,97,144
1,70,100,172
1,70,107,192
1,72,99,12
1,73,99,404
1,72,96,32
1,72,111,1044
1,72,98,120
1,72,104,220
1,72,106,188
1,73,109,44
1,75,120,148
1,73,120,28
1,72,111,20
1,75,112,204
1,75,107,136
1,75,105,148
1,75,120,188
1,73,112,64
1,72,116,32
1,73,102,48
1,68,116,36
1,73,109,412
1,73,109,104
1,75,120,48
1,73,120,76
1,72,116,48
1,72,108,144
1,72,103,204
1,73,116,184
1,72,104,76
1,63,120,312
1,63,102,220
1,72,103,20
1,70,109,148
1,68,120,104
1,68,102,236
1,73,109,52
1,73,105,116
1,75,100,32
1,73,116,84
1,72,103,48
1,72,104,152
1,72,96,48
1,73,109,76
1,72,111,60
1,63,120,272
1,63,127,228
1,72,108,168
1,70,124,296
1,68,112,108
2,41,127,11524
2,36,127,36
2,41,127,20
2,36,127,1916
2,39,127,372
2,36,127,232
2,36,127,240
2,41,127,168
2,36,127,152
2,29,127,32
2,36,127,200
2,41,127,236
2,36,127,160
2,29,127,208
2,36,127,1152
2,32,127,44
2,39,127,120
2,32,127,36
2,39,127,16
2,27,127,112
2,29,127,68
2,36,127,268
2,41,127,108
2,36,127,32
2,32,127,52
2,39,127,164
2,32,127,96
2,27,127,56
2,32,127,140
2,34,127,68
2,29,127,20
2,34,127,768
2,29,127,0
2,36,127,252
2,37,127,204
2,34,127,12
2,39,127,1152
2,34,127,1144
2,39,127,40
2,36,127,40
2,31,127,4
2,36,127,16
2,32,127,384
2,27,127,212
2,32,127,260
2,27,127,80
2,29,127,56
2,31,127,52
2,32,127,80
2,27,127,40
2,32,127,72
2,27,127,24
2,34,127,228
2,27,127,44
2,34,127,200
2,39,127,32
2,27,127,4
2,29,127,56
2,31,127,36
2,27,127,52
2,34,127,1152
2,32,127,168
2,32,127,0
2,31,127,16
2,29,127,36
2,27,127,80
2,29,127,52
2,31,127,68
2,32,127,96
2,27,127,232
2,32,127,172
2,27,127,80
2,29,127,44
2,31,127,72
2,32,127,104
2,27,127,48
2,32,127,172
2,37,127,16
2,36,127,8
2,34,127,196
2,32,127,40
2,34,127,384
2,36,127,36
2,37,127,384
2,25,127,1148
2,27,127,356
2,28,127,64
2,32,127,384
2,27,127,152
2,39,127,268
2,27,127,20
2,29,127,384
2,31,127,36
2,32,127,108
2,27,127,12
2,32,127,272
2,27,127,116
2,39,127,236
2,36,127,164
2,41,127,108
2,36,127,252
2,29,127,140
2,36,127,220
2,41,127,208
2,36,127,304
2,29,127,308
2,36,127,196
2,32,127,36
2,39,127,136
2,32,127,180
2,27,127,80
2,29,127,388
2,36,127,180
2,41,127,96
2,36,127,180
2,32,127,124
2,39,127,1152
2,32,127,20
2,27,127,204
2,32,127,8
2,34,127,384
2,41,127,44
2,34,127,64
2,29,127,384
2,36,127,188
2,41,127,768
2,37,127,352
2,34,127,20
2,39,127,24
2,27,127,8
2,34,127,112
2,36,127,8
2,31,127,1152
2,36,127,368
2,34,127,344
2,32,127,24
2,27,127,188
2,32,127,148
2,27,127,252
2,29,127,28
2,31,127,68
2,32,127,124
2,27,127,32
2,32,127,8
2,27,127,24
2,34,127,32
2,39,127,1152
2,34,127,104
2,27,127,8
2,27,127,260
2,29,127,384
2,31,127,24
2,27,127,40
2,34,127,1152
2,32,127,184
2,31,127,60
2,29,127,32
2,27,127,384
2,29,127,336
2,31,127,372
2,32,127,4
2,27,127,188
2,32,127,120
2,27,127,92
2,29,127,384
2,31,127,64
2,32,127,168
2,27,127,76
2,32,127,260
2,37,127,28
2,36,127,52
2,34,127,196
2,32,127,12
2,34,127,384
2,36,127,8
2,37,127,12
2,25,127,20
2,27,127,384
2,28,127,68
2,32,127,384
2,32,127,196
2,31,127,40
2,29,127,56
2,27,127,384
2,39,127,32
2,27,127,768
2,32,127,372
2,27,127,148
2,32,127,192
2,39,127,32
2,41,127,32
2,36,127,88
2,41,127,20
2,36,127,384
2,31,127,44
2,41,127,192
2,36,127,156
2,41,127,8
2,36,127,384
2,31,127,1140
2,37,127,220
2,37,127,124
2,32,127,24
2,27,127,64
2,32,127,116
2,34,127,100
2,29,127,36
2,34,127,768
2,36,127,64
2,31,127,1152
2,36,127,104
2,31,127,1152
2,36,127,320
2,34,127,348
2,32,127,20
2,27,127,100
2,32,127,108
2,27,127,32
2,29,127,384
2,31,127,56
2,32,127,112
2,27,127,28
2,32,127,8
2,27,127,8
2,34,127,1152
2,39,127,1124
2,34,127,12
2,27,127,1152
2,27,127,204
2,29,127,384
2,31,127,12
2,27,127,24
2,27,127,148
2,39,127,12
2,27,127,24
2,32,127,384
2,31,127,92
2,29,127,196
2,27,127,380
2,29,127,8
2,31,127,32
2,32,127,148
2,27,127,172
2,32,127,228
2,27,127,316
2,29,127,16
2,31,127,56
2,32,127,96
2,27,127,464
2,32,127,132
2,37,127,12
2,36,127,20
2,34,127,384
2,32,127,12
2,37,127,384
2,25,127,40
2,27,127,292
2,28,127,36
2,32,127,12
2,27,127,24
2,32,127,764
2,39,127,68
2,27,127,20
2,29,127,384
2,31,127,56
2,32,127,124
2,27,127,16
2,32,127,208
2,37,127,384
2,32,127,1148
2,32,127,200
2,27,127,64
2,32,127,56
2,27,127,28
2,34,127,156
2,39,127,16
2,27,127,20
2,29,127,12
2,31,127,48
2,32,127,124
2,27,127,172
2,32,127,184
2,27,127,20
2,32,127,172
2,36,127,140
2,36,127,152
2,29,127,44
3,72,84,2276
3,65,84,0
3,68,84,4
3,70,84,40
3,73,84,0
3,72,84,192
3,75,84,4
3,73,84,12
3,70,84,0
3,72,84,44
3,68,84,20
3,70,84,100
3,63,84,0
3,67,84,4
3,68,84,72
3,72,84,0
3,63,84,4
3,73,84,44
3,70,84,0
3,70,84,84
3,63,84,0
3,67,84,4
3,72,84,24
3,68,84,24
3,70,84,24
3,64,84,4
3,67,84,24
3,68,84,24
3,65,84,0
3,73,84,12
3,70,84,4
3,75,84,140
3,72,84,0
3,73,84,32
3,70,84,0
3,72,84,68
3,68,84,28
3,70,84,40
3,67,84,20
3,63,84,0
3,58,84,84
3,60,84,20
3,64,84,0
3,65,84,168
3,56,84,0
3,60,84,36
3,63,84,136
3,56,84,4
3,60,84,0
3,55,84,128
3,58,84,4
3,60,84,136
3,56,84,0
3,58,84,184
3,55,84,0
3,56,84,28
3,60,84,0
3,65,84,0
3,63,84,112
3,56,84,0
3,60,84,28
3,58,84,180
3,55,84,4
3,56,84,152
3,60,84,0
3,65,84,68
3,61,84,4
3,58,84,28
3,63,84,1108
3,61,84,388
3,56,84,160
3,60,84,0
3,61,84,2300
3,58,84,1148
3,55,84,68
3,58,84,0
3,63,84,4
3,64,84,12
3,60,84,20
3,63,84,144
3,56,84,4
3,60,84,0
3,61,84,28
3,58,84,4
3,60,84,12
3,63,84,4
3,61,84,192
3,58,84,28
3,63,84,16
3,60,84,0
3,56,84,0
3,61,84,44
3,58,84,4
3,56,84,28
3,60,84,8
3,58,84,28
3,63,84,4
3,55,84,0
3,51,84,44
3,61,84,3000
3,63,84,100
3,60,84,4
3,56,84,0
3,58,84,48
3,61,84,0
3,63,84,36
3,60,84,4
3,61,84,0
3,58,84,28
3,56,84,20
3,60,84,0
3,63,84,744
3,61,84,136
3,53,84,4
3,56,84,0
3,52,84,88
3,61,84,24
3,56,84,4
3,60,84,56
3,56,84,0
3,51,84,4
3,63,84,268
3,63,84,8
3,63,84,728
3,72,84,124
3,63,84,4
3,61,84,72
3,70,84,20
3,60,84,44
3,68,84,32
3,63,84,0
3,61,84,196
3,58,84,4
3,63,84,44
3,60,84,0
3,58,84,16
3,61,84,24
3,60,84,44
3,56,84,4
3,58,84,176
3,67,84,0
3,63,84,4
3,67,84,112
3,58,84,4
3,64,84,0
3,56,84,112
3,60,84,0
3,65,84,28
3,63,84,192
3,56,84,0
3,60,84,0
3,58,84,196
3,55,84,4
3,56,84,32
3,60,84,0
3,55,84,124
3,58,84,0
3,63,84,8
3,65,84,100
3,56,84,4
3,60,84,24
3,60,84,188
3,63,84,0
3,56,84,4
3,55,84,144
3,63,84,0
3,58,84,4
3,60,84,144
3,56,84,4
3,61,84,168
3,58,84,4
3,65,84,0
3,63,84,1136
3,61,84,404
3,65,84,108
3,60,84,20
3,56,84,0
3,65,84,180
3,61,84,4
3,56,84,0
3,58,84,1172
3,63,84,96
3,58,84,0
3,55,84,4
3,58,84,56
3,64,84,4
3,60,84,0
3,55,84,0
3,63,84,268
3,60,84,0
3,56,84,0
3,61,84,56
3,58,84,4
3,63,84,44
3,60,84,0
3,61,84,32
3,58,84,4
3,60,84,0
3,56,84,4
3,63,84,0
3,61,84,44
3,58,84,4
3,56,84,48
3,60,84,4
3,58,84,16
3,63,84,0
3,55,84,0
3,61,84,1080
3,63,84,168
3,60,84,4
3,56,84,0
3,61,84,72
3,58,84,24
3,63,84,16
3,60,84,4
3,61,84,16
3,58,84,28
3,63,84,12
3,60,84,0
3,56,84,40
3,53,84,280
3,61,84,0
3,56,84,4
3,61,84,128
3,52,84,4
3,56,84,0
3,51,84,96
3,56,84,4
3,60,84,0
3,61,84,1168
3,60,84,60
3,51,84,152
3,63,84,24
3,72,84,488
3,61,84,72
3,70,84,0
3,60,84,36
3,68,84,0
3,63,84,4
3,56,84,3408
3,65,84,68
3,56,84,4
3,60,84,0
3,64,84,100
3,60,84,4
3,58,84,0
3,55,84,32
3,65,84,28
3,60,84,0
3,56,84,4
3,64,84,140
3,58,84,4
3,60,84,0
3,55,84,0
3,65,84,248
3,56,84,0
3,61,84,0
3,63,84,96
3,60,84,4
3,65,84,164
3,58,84,20
3,56,84,4
3,61,84,0
3,58,84,128
3,60,84,0
3,55,84,0
3,64,84,0
3,67,84,176
3,63,84,100
3,60,84,0
3,56,84,4
3,61,84,40
3,58,84,20
3,63,84,12
3,60,84,4
3,61,84,28
3,58,84,4
3,63,84,16
3,56,84,4
3,60,84,28
3,63,84,12
3,58,84,4
3,55,84,0
3,60,84,44
3,56,84,4
3,61,84,68
3,58,84,0
3,63,84,32
3,60,84,4
3,61,84,28
3,58,84,28
3,60,84,16
3,56,84,4
3,63,84,712
3,65,84,84
3,61,84,0
3,56,84,4
3,64,84,60
3,56,84,24
3,61,84,4
3,63,84,40
3,60,84,24
3,56,84,4
3,58,84,232
3,55,84,4
3,63,84,228
3,72,84,20
3,70,84,128
3,61,84,4
3,68,84,76
3,60,84,0
3,63,84,388
3,60,84,176
3,68,84,44
3,61,84,4
3,65,84,0
3,68,84,20
3,60,84,4
3,63,84,0
3,51,84,164
3,63,84,0
3,51,84,16
3,63,84,0
3,51,84,1092
3,63,84,20
3,72,84,144
3,63,84,24
3,70,84,168
3,61,84,0
3,68,84,104
3,56,84,4
3,60,84,0
3,63,84,1528
3,58,84,56
3,64,84,24
3,67,84,4
3,60,84,1100
3,53,84,72
3,56,84,0
3,60,84,4
3,65,84,0
4,70,86,13408
4,82,82,4
4,80,77,28
4,68,78,20
4,67,84,56
4,79,75,4
4,65,77,84
4,77,73,4
4,53,87,6336
4,56,88,204
4,60,77,172
4,65,80,292
4,60,79,400
4,56,83,0
4,53,101,96
4,56,97,384
4,60,70,380
4,65,64,0
4,60,65,28
4,56,54,12
4,65,79,4296
4,67,72,172
4,68,84,36
4,70,73,96
4,67,77,8
4,68,71,164
4,72,75,4
4,70,77,140
4,68,80,8
4,67,79,60
4,65,69,16
4,65,69,212
4,67,72,200
4,68,82,44
4,70,71,84
4,67,78,4
4,72,68,112
4,68,69,4
4,65,59,916
4,70,74,0
4,73,77,24
4,65,64,1652
4,68,74,20
4,72,72,4
4,65,72,1652
4,68,72,0
4,73,77,4
4,61,61,648
4,65,73,4
4,70,72,20
4,70,63,748
4,67,75,4
