track,note,velocity,time
0,1,1,0
0,1,1,0
0,1,1,0
0,1,1,0
0,44,85,0
0,51,91,40
0,60,81,44
0,56,118,28
0,44,94,0
0,63,101,4
0,56,94,8
0,60,94,0
0,63,94,0
0,68,106,4
0,56,127,72
0,60,127,0
0,56,127,16
0,60,123,0
0,60,94,0
0,56,94,0
0,60,127,0
0,58,122,4
0,61,121,0
0,44,82,0
0,61,127,0
0,61,94,0
0,58,94,0
0,61,127,4
0,58,127,0
0,51,91,12
0,60,75,60
0,56,114,0
0,63,96,0
0,68,103,4
0,63,121,4
0,60,127,0
0,63,127,0
0,60,127,4
0,63,127,0
0,63,94,12
0,60,94,0
0,56,94,16
0,60,127,8
0,60,127,0
0,56,124,0
0,60,116,0
0,56,127,8
0,63,127,52
0,60,125,4
0,63,126,0
0,56,127,8
0,60,127,0
0,68,120,28
0,60,120,0
0,63,127,4
0,60,127,0
0,68,127,8
0,68,114,24
0,72,118,0
0,68,94,4
0,68,127,0
0,72,127,0
0,72,127,12
0,68,94,24
0,72,94,4
0,68,122,8
0,72,123,0
0,68,127,0
0,72,127,0
0,72,127,8
0,70,109,4
0,67,107,0
0,67,127,4
0,70,127,0
0,67,94,4
0,70,94,0
0,70,127,12
0,70,119,40
0,67,122,0
0,67,127,8
0,70,127,0
0,70,127,24
0,68,94,4
0,65,94,0
0,65,112,0
0,68,119,0
0,65,127,0
0,68,127,4
0,68,127,0
0,65,113,52
0,68,118,0
0,68,127,8
0,68,127,0
0,65,127,4
0,68,110,60
0,65,102,0
0,68,127,8
0,68,127,4
0,65,127,8
0,63,94,12
0,67,94,0
0,67,120,8
0,67,127,4
0,63,122,8
0,67,127,0
0,63,127,0
0,63,94,20
0,60,94,4
0,63,127,0
0,60,118,0
0,63,127,0
0,63,127,4
0,60,127,4
0,39,86,0
0,46,84,28
0,61,84,20
0,58,81,0
0,51,106,16
0,63,90,0
0,67,102,0
0,58,124,4
0,61,126,0
0,61,127,4
0,61,127,4
0,58,127,0
0,61,94,4
0,63,94,0
0,58,94,4
0,55,94,0
0,58,127,12
0,58,127,12
0,55,127,0
0,58,127,4
0,55,120,0
0,60,127,8
0,56,127,4
0,60,116,0
0,56,127,8
0,60,127,0
0,61,127,20
0,61,127,0
0,58,127,0
0,61,122,4
0,58,127,0
0,55,125,4
0,58,127,4
0,55,127,4
0,58,119,0
0,58,127,12
0,55,127,16
0,58,127,0
0,58,127,4
0,61,126,0
0,61,127,8
0,61,127,40
0,61,127,12
0,61,114,8
0,67,118,0
0,67,127,4
0,67,127,4
0,67,94,20
0,70,118,12
0,67,118,0
0,70,127,16
0,67,127,0
0,70,127,4
0,67,127,56
0,70,127,0
0,70,94,8
0,67,94,0
0,70,127,12
0,67,122,0
0,70,116,0
0,68,127,0
0,65,127,0
0,68,127,0
0,65,94,0
0,68,94,0
0,65,108,20
0,68,111,0
0,39,85,36
0,46,86,16
0,58,69,40
0,68,127,12
0,61,85,0
0,65,114,12
0,68,120,0
0,63,85,4
0,67,88,0
0,51,101,0
0,65,127,0
0,68,127,0
0,63,127,4
0,67,127,0
0,63,115,0
0,67,117,0
0,67,127,4
0,67,94,16
0,63,94,0
0,63,115,56
0,67,122,0
0,63,127,4
0,67,127,0
0,67,127,4
0,67,117,68
0,63,115,0
0,63,127,8
0,67,127,4
0,67,127,8
0,61,94,8
0,65,94,0
0,61,122,0
0,65,120,0
0,65,127,0
0,61,127,0
0,65,127,0
0,63,94,4
0,60,94,0
0,63,127,8
0,60,127,8
0,60,116,4
0,63,118,0
0,63,127,8
0,44,84,44
0,51,81,0
0,56,94,8
0,56,127,8
0,60,127,0
0,56,119,12
0,60,83,0
0,63,95,0
0,68,97,4
0,60,127,4
0,60,116,4
0,56,106,8
0,60,127,80
0,56,127,12
0,60,125,0
0,56,127,0
0,60,127,8
0,58,127,4
0,58,113,4
0,61,119,0
0,61,127,8
0,61,127,0
0,44,89,40
0,51,93,16
0,63,127,4
0,63,127,8
0,60,127,0
0,63,116,4
0,60,117,0
0,56,118,0
0,60,84,4
0,63,95,12
0,68,103,0
0,60,127,4
0,56,127,4
0,60,127,0
0,56,127,4
0,60,123,12
0,63,127,20
0,60,127,0
0,63,127,16
0,60,118,4
0,63,120,0
0,68,127,40
0,63,127,0
0,60,127,0
0,68,120,12
0,68,127,8
0,60,113,0
0,68,94,4
0,72,127,4
0,68,122,4
0,72,125,0
0,68,127,8
0,72,127,0
0,75,127,44
0,75,116,68
0,72,125,0
0,72,94,4
0,75,94,0
0,75,127,12
0,75,127,4
0,72,127,0
0,73,94,0
0,70,94,0
0,73,127,4
0,70,127,0
0,73,127,8
0,73,115,0
0,70,124,0
0,44,91,36
0,51,91,4
0,60,77,36
0,70,127,8
0,73,127,0
0,63,93,4
0,68,90,0
0,73,127,16
0,70,127,0
0,73,127,4
0,56,106,4
0,68,94,8
0,72,94,0
0,72,127,4
0,68,127,0
0,72,127,0
0,68,112,4
0,72,116,0
0,72,127,52
0,68,115,16
0,72,127,0
0,72,127,0
0,68,127,4
0,72,127,0
0,68,127,0
0,72,127,0
0,68,110,8
0,72,116,0
0,44,87,4
0,51,83,40
0,60,79,4
0,63,90,0
0,70,94,0
0,73,94,0
0,70,127,4
0,73,127,0
0,73,127,4
0,70,126,4
0,73,119,0
0,56,99,0
0,66,91,0
0,72,94,0
0,75,94,0
0,75,110,4
0,66,127,0
0,75,127,4
0,72,113,0
0,72,127,8
0,49,82,48
0,73,127,0
0,61,96,0
0,65,95,0
0,68,94,0
0,56,110,0
0,73,116,4
0,65,94,0
0,68,94,0
0,73,94,0
0,61,94,4
0,65,118,4
0,73,127,4
0,65,127,12
0,70,127,76
0,70,127,4
0,65,116,8
0,61,127,12
0,70,127,8
0,65,114,4
0,72,111,0
0,63,127,4
0,72,127,8
0,72,127,0
0,49,82,8
0,61,86,16
0,56,97,0
0,68,87,0
0,65,91,0
0,73,127,4
0,65,113,8
0,65,127,0
0,73,127,0
0,73,127,16
0,73,127,64
0,73,116,4
0,65,115,0
0,73,127,4
0,49,86,16
0,61,82,28
0,64,94,20
0,64,127,4
0,75,127,8
0,64,88,4
0,56,103,0
0,75,112,8
0,64,107,0
0,68,95,4
0,75,127,4
0,73,127,12
0,73,114,4
0,73,127,8
0,51,82,8
0,72,94,16
0,60,68,0
0,72,127,4
0,63,94,8
0,63,127,0
0,63,115,8
0,72,120,0
0,56,106,0
0,60,94,0
0,72,127,4
0,63,103,12
0,68,101,0
0,72,127,80
0,73,94,4
0,65,94,0
0,65,127,4
0,73,127,0
0,73,127,4
0,65,127,0
0,73,127,0
0,72,127,4
0,63,127,4
0,72,118,4
0,72,94,0
0,63,94,0
0,72,127,8
0,63,122,0
0,39,68,0
0,46,93,28
0,63,127,20
0,72,123,0
0,72,127,8
0,58,88,4
0,61,94,0
0,67,100,0
0,63,91,4
0,72,127,0
0,63,127,0
0,51,103,20
0,70,127,24
0,61,94,0
0,70,94,4
0,61,126,4
0,70,119,0
0,61,127,0
0,70,127,0
0,70,127,52
0,61,127,8
0,70,127,0
0,70,127,8
0,61,127,0
0,70,127,44
0,61,124,4
0,70,120,8
0,61,127,4
0,70,127,0
0,60,94,4
0,68,94,0
0,60,117,4
0,68,120,4
0,68,127,4
0,60,127,4
0,68,127,0
0,58,127,8
0,67,127,4
0,67,127,4
0,58,127,4
0,67,116,0
0,58,94,0
0,67,94,0
0,44,72,32
0,51,86,12
0,68,124,16
0,60,123,0
0,36,127,4
0,42,66,0
0,68,127,4
0,70,44,0
0,32,127,0
0,60,127,0
0,68,127,0
0,60,80,4
0,63,88,0
0,68,94,0
0,68,91,0
0,56,106,0
0,58,94,8
0,70,22,16
0,42,13,36
0,70,5,0
0,60,94,20
0,63,94,0
0,54,71,48
0,42,46,0
0,60,88,0
0,70,41,4
0,63,95,0
0,68,90,0
0,56,103,0
0,75,127,4
0,51,86,20
0,70,16,0
0,56,69,80
0,68,58,0
0,51,68,0
0,60,57,0
0,63,65,0
0,42,25,12
0,70,30,0
0,51,85,52
0,56,90,0
0,63,79,4
0,68,85,0
0,38,127,12
0,42,56,0
0,70,45,0
0,60,75,12
0,72,127,4
0,70,22,0
0,56,65,56
0,63,67,0
0,51,69,0
0,68,68,20
0,60,59,0
0,36,127,4
0,42,26,0
0,70,39,0
0,56,94,24
0,63,78,0
0,56,91,0
0,51,83,0
0,68,83,4
0,60,73,0
0,36,127,16
0,42,46,0
0,70,36,4
0,27,127,0
0,68,127,12
0,70,19,48
0,42,23,44
0,48,83,0
0,70,30,0
0,54,67,56
0,42,53,0
0,29,127,0
0,45,78,4
0,70,38,0
0,63,90,0
0,56,96,0
0,60,86,0
0,51,78,0
0,68,88,0
0,63,127,8
0,70,18,48
0,42,22,24
0,60,51,0
0,56,55,0
0,48,87,4
0,70,26,0
0,68,63,0
0,63,48,0
0,51,44,0
0,56,127,24
0,60,127,0
0,60,94,4
0,38,127,4
0,42,45,0
0,45,83,4
0,70,32,0
0,31,127,0
0,56,88,0
0,51,83,0
0,68,88,0
0,63,84,0
0,60,79,0
0,60,127,8
0,56,94,0
0,56,127,8
0,60,127,0
0,45,75,0
0,70,26,0
0,61,94,8
0,58,94,0
0,61,127,0
0,58,126,8
0,42,20,0
0,56,68,0
0,61,121,4
0,41,71,0
0,70,30,0
0,63,64,0
0,68,65,0
0,60,62,0
0,51,67,0
0,58,127,0
0,61,127,0
0,36,127,20
0,42,49,0
0,49,69,4
0,70,37,0
0,32,127,0
0,56,90,0
0,51,83,0
0,68,85,0
0,63,83,0
0,60,81,0
0,63,127,4
0,60,117,0
0,63,119,0
0,63,94,4
0,56,94,0
0,60,94,0
0,60,127,16
0,63,127,0
0,70,21,8
0,42,21,24
0,70,1,0
0,56,127,20
0,54,68,0
0,42,43,0
0,63,88,0
0,60,127,4
0,70,35,0
0,56,95,0
0,68,88,0
0,60,82,0
0,51,80,0
0,60,114,0
0,60,127,12
0,56,127,0
0,70,10,12
0,42,21,88
0,51,64,0
0,56,61,0
0,68,60,0
0,70,24,4
0,63,58,0
0,60,55,0
0,63,127,8
0,60,127,0
0,63,127,0
0,38,127,4
0,42,53,0
0,70,38,4
0,56,89,0
0,63,90,0
0,68,89,0
0,60,83,0
0,51,84,0
0,60,127,12
0,63,127,0
0,70,21,12
0,68,127,48
0,60,120,4
0,68,126,0
0,60,127,0
0,68,127,4
0,36,127,4
0,42,24,0
0,27,127,0
0,70,36,0
0,56,73,0
0,68,59,0
0,60,56,0
0,63,59,0
0,51,65,0
0,68,94,16
0,72,127,0
0,36,127,8
0,42,54,0
0,68,126,4
0,72,127,0
0,70,38,0
0,32,127,0
0,56,91,0
0,63,91,0
0,68,94,0
0,60,83,0
0,51,84,0
0,68,127,4
0,72,127,0
0,70,21,52
0,42,42,28
0,70,19,0
0,54,78,60
0,42,52,0
0,63,91,0
0,56,97,0
0,70,41,4
0,68,91,0
0,60,88,0
0,51,80,0
0,70,12,8
0,42,42,36
0,63,47,0
0,56,64,0
0,70,22,4
0,68,66,0
0,60,58,0
0,51,65,0
0,68,94,36
0,38,127,8
0,42,57,0
0,56,91,0
0,70,26,4
0,63,94,0
0,68,91,0
0,60,86,0
0,51,85,0
0,72,127,0
0,68,127,0
0,72,94,0
0,72,127,8
0,68,127,4
0,72,127,0
0,70,14,16
0,67,113,20
0,70,108,0
0,70,94,0
0,70,127,0
0,70,127,0
0,67,127,4
0,42,40,4
0,56,73,0
0,67,94,0
0,70,45,4
0,63,70,0
0,68,71,0
0,60,63,0
0,51,70,0
0,36,127,52
0,42,56,0
0,67,127,4
0,70,122,0
0,70,41,0
0,32,127,0
0,56,91,0
0,63,91,0
0,51,85,0
0,68,91,0
0,60,82,0
0,67,127,4
0,70,127,0
0,70,127,4
0,70,21,24
0,68,94,4
0,65,94,8
0,68,127,0
0,42,35,8
0,70,22,0
0,65,127,0
0,65,110,4
0,68,112,0
0,68,127,0
0,54,82,40
0,42,60,0
0,51,79,0
0,56,99,0
0,65,114,4
0,68,119,0
0,70,26,0
0,63,96,0
0,60,88,0
0,68,89,0
0,68,127,8
0,65,127,0
0,68,127,0
0,70,15,0
0,65,108,32
0,68,116,0
0,42,23,0
0,68,127,4
0,70,22,0
0,60,60,0
0,63,59,0
0,68,71,0
0,56,71,0
0,51,56,0
0,68,127,4
0,65,127,0
0,38,127,0
0,42,64,0
0,70,26,4
0,36,127,0
0,56,90,0
0,63,91,0
0,68,90,0
0,60,86,0
0,51,84,0
0,67,127,4
0,63,124,0
0,67,127,0
0,63,94,4
0,67,94,0
0,67,127,4
0,63,127,0
0,70,18,8
0,60,127,12
0,63,127,0
0,60,114,0
0,63,127,0
0,60,94,0
0,63,127,4
0,36,127,0
0,42,35,0
0,70,39,4
0,56,74,0
0,68,82,0
0,51,79,0
0,60,76,0
0,63,78,0
0,61,127,4
0,58,127,4
0,61,127,0
0,36,127,0
0,42,62,0
0,70,36,4
0,39,127,0
0,67,88,0
0,55,89,0
0,61,84,0
0,58,88,0
0,51,73,0
0,63,86,0
0,61,126,4
0,58,127,0
0,63,94,0
0,61,94,0
0,58,94,4
0,55,94,16
0,70,26,12
0,42,37,72
0,70,22,0
0,54,75,60
0,42,62,0
0,51,99,0
0,58,96,0
0,70,34,4
0,67,97,0
0,61,85,0
0,63,76,0
0,70,20,8
0,42,38,0
0,61,58,0
0,58,60,0
0,70,34,4
0,63,60,0
0,51,77,0
0,67,67,0
0,55,127,48
0,58,127,0
0,58,127,8
0,38,127,4
0,42,66,0
0,58,127,4
0,70,39,0
0,67,97,0
0,61,89,0
0,58,93,0
0,63,83,0
0,51,93,0
0,55,127,8
0,70,24,8
0,56,124,12
0,60,127,0
0,60,113,4
0,42,23,8
0,34,127,0
0,70,42,0
0,51,76,0
0,67,67,0
0,58,65,0
0,61,78,0
0,63,76,0
0,60,127,0
0,56,127,0
0,61,127,0
0,61,121,4
0,58,127,0
0,36,127,4
0,42,57,0
0,70,44,4
0,27,127,0
0,67,91,0
0,58,89,0
0,61,86,0
0,51,96,0
0,63,82,0
0,61,127,4
0,58,127,0
0,70,30,24
0,42,20,52
0,70,24,0
0,55,123,4
0,58,121,4
0,54,82,0
0,42,63,0
0,58,127,4
0,70,41,0
0,51,94,0
0,63,78,0
0,58,88,0
0,61,78,0
0,67,86,0
0,55,127,0
0,58,127,0
0,70,26,60
0,42,38,0
0,63,70,0
0,58,64,0
0,70,26,4
0,67,73,0
0,61,70,0
0,51,71,0
0,61,127,44
0,61,121,4
0,58,127,4
0,38,127,0
0,42,56,0
0,70,36,4
0,67,93,0
0,61,82,0
0,58,85,0
0,63,78,0
0,51,94,0
0,61,127,4
0,58,127,0
0,70,27,8
0,61,120,52
0,67,122,0
0,67,127,4
0,61,127,0
0,67,127,4
0,36,127,12
0,42,30,0
0,34,127,0
0,70,47,0
0,51,85,0
0,61,76,0
0,67,82,0
0,58,69,0
0,63,69,0
0,67,94,28
0,36,127,8
0,42,55,0
0,70,127,4
0,70,38,0
0,39,127,0
0,51,96,0
0,67,98,0
0,58,93,0
0,61,89,0
0,63,82,0
0,70,127,0
0,70,118,4
0,67,127,0
0,67,122,8
0,70,28,64
0,42,34,48
0,70,34,0
0,54,75,72
0,42,55,0
0,67,98,0
0,70,37,4
0,63,86,0
0,58,99,0
0,61,91,0
0,51,101,0
0,70,24,60
0,42,25,4
0,51,78,0
0,61,67,0
0,70,33,4
0,63,67,0
0,58,67,0
0,67,69,0
0,58,94,52
0,70,94,0
0,67,94,0
0,38,127,4
0,42,54,0
0,67,127,0
0,70,127,0
0,67,127,4
0,70,122,0
0,70,41,0
0,61,96,0
0,63,93,0
0,58,97,0
0,67,107,0
0,51,93,0
0,70,127,12
0,70,26,0
0,68,127,12
0,42,35,0
0,34,127,0
0,65,94,0
0,68,122,4
0,70,44,0
0,51,79,0
0,67,84,0
0,61,81,0
0,58,76,0
0,63,76,0
0,68,94,0
0,65,115,4
