track,note,velocity,time
1,67,95,7662
1,58,95,4
1,63,95,12
1,65,95,12
1,68,95,2
1,58,95,16
1,58,95,30
1,63,95,0
1,67,95,0
1,58,95,254
1,63,95,0
1,67,95,0
1,65,95,30
1,68,95,0
1,58,95,14
1,58,95,28
1,67,95,0
1,63,95,2
1,67,95,456
1,63,95,18
1,63,95,44
1,67,95,0
1,68,95,28
1,65,95,16
1,67,95,28
1,70,95,16
1,67,95,44
1,70,95,0
1,65,95,28
1,68,95,0
1,67,95,28
1,63,95,4
1,63,95,30
1,67,95,0
1,65,95,578
1,62,95,12
1,62,95,156
1,65,95,0
1,65,95,30
1,68,95,0
1,65,95,28
1,68,95,0
1,65,95,28
1,68,95,0
1,67,95,356
1,70,95,12
1,68,95,156
1,72,95,16
1,68,95,44
1,72,95,0
1,67,95,24
1,70,95,0
1,65,95,28
1,68,95,0
1,65,95,44
1,68,95,12
1,67,95,88
1,63,95,16
1,63,95,316
1,73,95,0
1,73,95,44
1,63,95,12
1,63,95,60
1,73,95,0
1,68,95,40
1,72,95,0
1,68,95,46
1,72,95,0
1,67,95,28
1,70,95,0
1,68,95,12
1,67,95,12
1,70,95,0
1,67,95,78
1,70,95,0
1,67,95,28
1,70,95,0
1,67,95,28
1,70,95,0
1,65,95,46
1,68,95,0
1,65,95,28
1,62,95,16
1,62,95,28
1,68,95,0
1,62,95,46
1,72,95,0
1,70,95,76
1,62,95,76
1,63,95,398
1,63,95,478
1,67,95,0
1,63,95,48
1,67,95,4
1,68,95,28
1,65,95,12
1,67,95,12
1,70,95,0
1,67,95,44
1,70,95,0
1,68,95,12
1,65,95,4
1,63,95,12
1,65,95,0
1,67,95,0
1,67,95,44
1,63,95,2
1,62,95,590
1,65,95,0
1,65,95,480
1,68,95,0
1,65,95,44
1,68,95,0
1,67,95,368
1,70,95,0
1,68,95,156
1,72,95,20
1,72,95,28
1,68,95,4
1,67,95,12
1,70,95,0
1,65,95,12
1,68,95,0
1,65,95,48
1,68,95,12
1,67,95,76
1,63,95,16
1,63,95,348
1,73,95,0
1,63,95,28
1,73,95,0
1,73,95,44
1,63,95,4
1,68,95,28
1,72,95,0
1,72,95,62
1,68,95,16
1,67,95,42
1,70,95,0
1,68,95,16
1,67,95,28
1,68,95,0
1,67,95,40
1,70,95,4
1,70,95,48
1,67,95,4
1,67,95,28
1,70,95,0
1,67,95,44
1,70,95,0
1,65,95,46
1,68,95,0
1,62,95,32
1,65,95,0
1,62,95,28
1,68,95,0
1,62,95,30
1,72,95,0
1,70,95,44
1,62,95,76
1,63,95,380
1,67,95,332
1,70,95,16
1,73,95,300
1,70,95,192
1,75,95,0
1,63,95,140
1,72,95,340
1,68,95,2
1,72,95,30
1,68,95,8
1,70,95,548
1,74,95,0
1,72,95,12
1,74,95,0
1,75,95,0
1,70,95,540
1,74,95,0
1,68,95,28
1,72,95,0
1,72,95,60
1,75,95,0
1,74,95,560
1,70,95,2
1,72,95,12
1,68,95,16
1,70,95,208
1,67,95,18
1,67,95,60
1,70,95,0
1,65,95,30
1,68,95,0
1,65,95,28
1,68,95,0
1,67,95,0
1,63,95,28
1,62,95,12
1,65,95,0
1,68,95,58
1,72,95,0
1,67,95,28
1,70,95,0
1,67,95,28
1,70,95,0
1,65,95,12
1,68,95,0
1,67,95,12
1,63,95,16
1,63,95,76
1,68,95,370
1,72,95,0
1,72,95,16
1,68,95,14
1,74,95,514
1,70,95,8
1,72,95,12
1,75,95,0
1,74,95,596
1,70,95,12
1,72,95,28
1,68,95,16
1,72,95,44
1,75,95,0
1,70,95,576
1,74,95,0
1,68,95,14
1,72,95,0
1,73,95,4
1,67,95,314
1,70,95,0
1,70,95,44
1,67,95,16
1,65,95,44
1,68,95,0
1,68,95,44
1,65,95,16
1,65,95,44
1,75,95,0
1,74,95,42
1,70,95,18
1,70,95,44
1,74,95,0
1,70,95,32
1,77,95,4
1,67,95,46
1,70,95,0
1,75,95,0
1,63,95,1772
1,67,95,0
1,63,95,44
1,67,95,0
1,68,95,28
1,65,95,16
1,67,95,12
1,70,95,16
1,67,95,44
1,70,95,0
1,68,95,12
1,65,95,12
1,66,95,12
1,67,95,0
1,63,95,16
1,67,95,30
1,63,95,18
1,62,95,558
1,65,95,0
1,65,95,364
1,68,95,0
1,65,95,44
1,68,95,0
1,67,95,368
1,70,95,0
1,68,95,158
1,72,95,28
1,68,95,44
1,72,95,0
1,67,95,12
1,70,95,0
1,68,95,12
1,65,95,16
1,68,95,44
1,65,95,8
1,67,95,72
1,63,95,16
1,63,95,28
1,73,95,0
1,73,95,44
1,73,95,60
1,68,95,12
1,72,95,4
1,68,95,44
1,72,95,0
1,70,95,12
1,67,95,0
1,65,95,44
1,68,95,0
1,70,95,60
1,67,95,4
1,70,95,44
1,67,95,2
1,67,95,28
1,70,95,2
1,67,95,44
1,70,95,0
1,65,95,46
1,68,95,0
1,62,95,32
1,65,95,0
1,68,95,12
1,62,95,30
1,72,95,0
1,70,95,56
1,62,95,60
1,63,95,556
1,67,95,396
1,73,95,352
1,73,95,44
1,75,95,0
1,63,95,316
1,63,95,32
1,68,95,236
1,72,95,0
1,68,95,28
1,72,95,0
1,74,95,560
1,70,95,4
1,72,95,328
1,75,95,16
1,70,95,586
1,74,95,0
1,72,95,56
1,68,95,4
1,72,95,44
1,75,95,0
1,74,95,592
1,70,95,2
1,72,95,0
1,68,95,18
1,73,95,0
1,67,95,336
1,70,95,0
1,67,95,44
1,70,95,0
1,68,95,28
1,65,95,2
1,65,95,28
1,68,95,0
1,67,95,30
1,63,95,14
1,62,95,28
1,65,95,0
1,68,95,44
1,72,95,0
1,67,95,12
1,70,95,4
1,68,95,14
1,67,95,34
1,70,95,0
1,65,95,28
1,68,95,0
1,67,95,58
1,63,95,12
1,63,95,204
1,68,95,352
1,72,95,0
1,68,95,28
1,72,95,0
1,70,95,544
1,74,95,0
1,72,95,12
1,75,95,0
1,70,95,12
1,74,95,0
1,72,95,2
1,68,95,44
1,72,95,0
1,72,95,42
1,75,95,0
1,70,95,592
1,74,95,0
1,68,95,12
1,72,95,0
1,67,95,28
1,66,95,2
1,70,95,0
1,67,95,60
1,70,95,0
1,65,95,14
1,68,95,0
1,65,95,44
1,68,95,0
1,65,95,28
1,75,95,4
1,70,95,28
1,73,95,0
1,74,95,2
1,70,95,44
1,74,95,0
1,77,95,512
1,67,95,12
1,75,95,2
1,67,95,94
1,73,95,92
1,75,95,28
1,63,95,140
1,61,95,16
1,68,95,270
1,72,95,0
1,68,95,24
1,72,95,0
1,74,95,532
1,70,95,12
1,72,95,40
1,75,95,0
1,74,95,592
1,70,95,2
1,72,95,28
1,68,95,16
1,72,95,44
1,75,95,4
1,70,95,604
1,74,95,0
1,68,95,12
1,72,95,0
1,67,95,352
1,70,95,0
1,67,95,44
1,70,95,0
1,65,95,30
1,68,95,0
1,65,95,28
1,68,95,0
1,67,95,16
1,63,95,14
1,62,95,28
1,65,95,0
1,72,95,44
1,68,95,4
1,67,95,14
1,70,95,0
1,68,95,16
1,67,95,44
1,70,95,0
1,65,95,28
1,68,95,0
1,67,95,46
1,63,95,8
1,63,95,252
1,68,95,352
1,72,95,0
1,68,95,30
1,72,95,0
1,70,95,544
1,74,95,0
1,72,95,12
1,75,95,12
1,70,95,612
1,74,95,4
1,68,95,28
1,72,95,0
1,72,95,28
1,75,95,12
1,74,95,600
1,70,95,12
1,72,95,0
1,68,95,12
1,67,95,352
1,70,95,0
1,67,95,60
1,70,95,0
1,68,95,12
1,65,95,2
1,65,95,28
1,68,95,4
1,65,95,44
1,75,95,0
1,74,95,224
1,65,95,42
1,74,95,0
1,77,95,528
1,75,95,12
1,67,95,16
1,67,95,76
1,70,95,0
1,65,95,14
1,68,95,0
1,65,95,44
1,68,95,16
1,65,95,40
1,75,95,8
1,70,95,216
1,73,95,0
1,74,95,2
1,70,95,30
1,74,95,0
1,70,95,44
1,77,95,0
1,67,95,4
1,75,95,0
2,39,107,1658
2,51,107,852
2,48,107,12
2,46,107,12
2,39,107,104
2,51,107,124
2,55,107,106
2,53,107,8
2,51,107,8
2,44,107,104
2,56,107,124
2,53,107,12
2,51,107,104
2,41,107,104
2,46,107,208
2,46,107,106
2,58,107,104
2,57,107,8
2,58,107,10
2,39,107,104
2,39,107,208
2,39,107,12
2,34,107,16
2,39,107,10
2,39,107,236
2,43,107,204
2,46,107,204
2,48,107,12
2,46,107,12
2,39,107,40
2,39,107,208
2,39,107,12
2,39,107,16
2,39,107,240
2,43,107,204
2,46,107,204
2,48,107,12
2,46,107,12
2,39,107,12
2,39,107,208
2,39,107,12
2,39,107,216
2,43,107,204
2,46,107,204
2,48,107,12
2,46,107,12
2,34,107,40
2,34,107,208
2,38,107,204
2,41,107,12
2,46,107,12
2,44,107,204
2,41,107,204
2,38,107,204
2,41,107,204
2,34,107,12
2,34,107,208
2,38,107,200
2,41,107,12
2,46,107,12
2,44,107,204
2,41,107,204
2,38,107,204
2,41,107,204
2,39,107,40
2,39,107,208
2,39,107,12
2,39,107,216
2,43,107,204
2,46,107,204
2,48,107,12
2,46,107,12
2,39,107,12
2,39,107,208
2,39,107,12
2,48,107,24
2,32,107,228
2,36,107,204
2,39,107,204
2,41,107,12
2,39,107,12
2,32,107,12
2,32,107,208
2,32,107,12
2,34,107,24
2,39,107,228
2,43,107,204
2,46,107,204
2,48,107,12
2,46,107,12
2,39,107,12
2,39,107,208
2,39,107,12
2,44,107,244
2,41,107,204
2,38,107,204
2,41,107,204
2,34,107,12
2,34,107,208
2,38,107,204
2,41,107,8
2,46,107,12
2,39,107,232
2,43,107,204
2,46,107,204
2,48,107,12
2,46,107,12
2,51,107,1356
2,39,107,12
2,39,107,210
2,39,107,12
2,39,107,216
2,43,107,204
2,46,107,204
2,48,107,12
2,46,107,12
2,34,107,24
2,34,107,208
2,38,107,204
2,41,107,12
2,46,107,12
2,44,107,204
2,41,107,204
2,38,107,204
2,41,107,204
2,34,107,12
2,34,107,208
2,38,107,204
2,41,107,12
2,46,107,12
2,44,107,204
2,41,107,204
2,38,107,204
2,41,107,204
2,39,107,40
2,39,107,208
2,39,107,12
2,39,107,216
2,43,107,204
2,46,107,204
2,48,107,12
2,46,107,12
2,39,107,12
2,39,107,208
2,39,107,12
2,32,107,244
2,36,107,204
2,39,107,204
2,41,107,12
2,39,107,12
2,32,107,12
2,32,107,208
2,32,107,12
2,34,107,24
2,39,107,4
2,39,107,200
2,43,107,204
2,46,107,204
2,48,107,12
2,46,107,12
2,39,107,12
2,39,107,208
2,39,107,12
2,44,107,244
2,41,107,204
2,38,107,204
2,41,107,204
2,34,107,12
2,34,107,208
2,38,107,204
2,41,107,10
2,46,107,12
2,55,107,8
2,39,107,228
2,43,107,204
2,46,107,204
2,48,107,12
2,46,107,12
2,51,107,204
2,46,107,104
2,51,107,104
2,43,107,12
2,46,107,104
2,42,107,8
2,43,107,8
2,32,107,104
2,44,107,12
2,44,107,8
2,32,107,8
2,44,107,12
2,44,107,10
2,32,107,10
2,44,107,12
2,44,107,10
2,32,107,8
2,44,107,12
2,44,107,8
2,32,107,8
2,44,107,12
2,44,107,8
2,32,107,8
2,44,107,14
2,44,107,8
2,32,107,10
2,44,107,12
2,44,107,10
2,32,107,8
2,44,107,14
2,44,107,10
2,32,107,10
2,44,107,12
2,44,107,8
2,32,107,8
2,44,107,12
2,44,107,10
2,32,107,10
2,44,107,12
2,44,107,8
2,32,107,8
2,44,107,12
2,44,107,8
2,46,107,10
2,39,107,36
2,51,107,12
2,51,107,8
2,39,107,10
2,51,107,14
2,51,107,8
2,39,107,8
2,51,107,12
2,51,107,8
2,39,107,10
2,51,107,14
2,51,107,10
2,34,107,52
2,46,107,12
2,46,107,8
2,34,107,8
2,46,107,12
2,46,107,8
2,34,107,10
2,46,107,12
2,46,107,10
2,34,107,8
2,50,107,12
2,50,107,8
2,34,107,8
2,46,107,12
2,46,107,8
2,34,107,10
2,46,107,12
2,46,107,10
2,34,107,8
2,46,107,12
2,46,107,8
2,34,107,8
2,48,107,14
2,48,107,8
2,39,107,20
2,51,107,12
2,51,107,8
2,39,107,8
2,51,107,12
2,51,107,8
2,39,107,8
2,51,107,12
2,51,107,8
2,39,107,8
2,51,107,12
2,51,107,8
2,39,107,10
2,51,107,12
2,51,107,8
2,39,107,10
2,51,107,12
2,51,107,10
2,39,107,8
2,51,107,12
2,51,107,8
2,39,107,8
2,51,107,14
2,51,107,10
2,48,107,8
2,32,107,36
2,44,107,12
2,44,107,8
2,32,107,8
2,44,107,12
2,44,107,8
2,32,107,8
2,44,107,14
2,44,107,8
2,32,107,8
2,44,107,12
2,44,107,8
2,32,107,10
2,44,107,12
2,44,107,8
2,32,107,8
2,44,107,12
2,44,107,8
2,32,107,8
2,44,107,12
2,44,107,8
2,32,107,8
2,44,107,14
2,44,107,12
2,32,107,10
2,44,107,14
2,44,107,10
2,32,107,8
2,44,107,12
2,44,107,8
2,32,107,8
2,44,107,12
2,44,107,8
2,32,107,8
2,44,107,12
2,44,107,8
2,55,107,10
2,51,107,4
2,39,107,10
2,51,107,12
2,51,107,8
2,39,107,8
2,51,107,12
2,51,107,8
2,39,107,8
2,51,107,12
2,51,107,8
2,39,107,8
2,51,107,14
2,51,107,10
2,53,107,8
2,41,107,10
2,53,107,12
2,53,107,8
2,41,107,8
2,53,107,12
2,53,107,8
2,41,107,8
2,53,107,12
2,53,107,8
2,41,107,8
2,53,107,12
2,53,107,8
2,34,107,42
2,46,107,12
2,46,107,8
2,34,107,8
2,46,107,12
2,46,107,8
2,34,107,8
2,46,107,14
2,46,107,8
2,34,107,10
2,48,107,14
2,48,107,10
2,46,107,8
2,39,107,26
2,51,107,12
2,51,107,8
2,39,107,8
2,51,107,12
2,51,107,10
2,39,107,10
2,51,107,12
2,51,107,10
2,39,107,8
2,51,107,14
2,51,107,10
2,39,107,8
2,51,107,1268
2,39,107,40
2,39,107,208
2,39,107,12
2,39,107,218
2,43,107,204
2,46,107,204
2,48,107,12
2,46,107,12
2,34,107,12
2,34,107,208
2,38,107,204
2,41,107,10
2,46,107,12
2,44,107,204
2,41,107,204
2,38,107,204
2,41,107,204
2,34,107,42
2,34,107,208
2,38,107,204
2,41,107,14
2,46,107,12
2,44,107,204
2,41,107,204
2,38,107,204
2,41,107,204
2,34,107,12
2,39,107,36
2,39,107,208
2,39,107,12
2,39,107,216
2,43,107,204
2,46,107,204
2,48,107,12
2,46,107,12
2,39,107,12
2,39,107,210
2,39,107,12
2,32,107,244
2,36,107,204
2,39,107,204
2,41,107,12
2,39,107,12
2,32,107,12
2,32,107,208
2,32,107,12
2,34,107,24
2,39,107,228
2,43,107,204
2,46,107,204
2,48,107,12
2,46,107,12
2,39,107,24
2,39,107,210
2,39,107,12
2,34,107,24
2,44,107,228
2,41,107,204
2,38,107,204
2,41,107,204
2,34,107,12
2,34,107,208
2,38,107,204
2,41,107,12
2,46,107,12
2,39,107,232
2,43,107,204
2,46,107,204
2,48,107,12
2,46,107,12
2,51,107,204
2,46,107,104
2,48,107,104
2,43,107,12
2,46,107,104
2,41,107,8
2,43,107,8
2,32,107,104
2,44,107,12
2,44,107,8
2,32,107,8
2,44,107,12
2,44,107,8
2,32,107,8
2,44,107,12
2,44,107,8
2,32,107,10
2,44,107,14
2,44,107,8
2,32,107,8
2,44,107,12
2,44,107,8
2,32,107,8
2,44,107,12
2,44,107,8
2,32,107,8
2,44,107,12
2,44,107,8
2,32,107,8
2,44,107,14
2,44,107,12
2,32,107,8
2,44,107,14
2,44,107,8
2,32,107,8
2,44,107,14
2,44,107,8
2,32,107,10
2,44,107,12
2,44,107,8
2,32,107,8
2,44,107,14
2,44,107,10
2,39,107,42
2,51,107,12
2,51,107,8
2,39,107,8
2,51,107,12
2,51,107,8
2,39,107,8
2,51,107,14
2,51,107,8
2,39,107,8
2,51,107,14
2,51,107,12
2,46,107,8
2,34,107,36
2,46,107,12
