track,note,velocity,time
1,60,127,7300
1,60,127,108
1,69,127,0
1,60,127,108
1,69,127,0
1,70,127,144
1,62,127,20
1,60,127,240
1,69,127,0
1,64,127,12
1,72,127,0
1,70,127,20
1,62,127,0
1,69,127,20
1,60,127,4
1,70,127,232
1,62,127,20
1,60,127,12
1,69,127,0
1,60,127,1252
1,67,127,404
1,58,127,0
1,67,127,136
1,58,127,0
1,70,127,156
1,62,127,0
1,69,127,120
1,60,127,0
1,65,127,8
1,57,127,0
1,60,127,1064
1,69,127,88
1,60,127,0
1,69,127,92
1,60,127,0
1,62,127,144
1,70,127,16
1,60,127,20
1,69,127,12
1,72,127,8
1,64,127,0
1,70,127,28
1,62,127,16
1,69,127,24
1,60,127,12
1,62,127,16
1,70,127,16
1,60,127,24
1,69,127,0
1,60,127,1168
1,58,127,384
1,67,127,12
1,58,127,140
1,67,127,12
1,69,127,176
1,60,127,0
1,65,127,8
1,57,127,0
1,65,127,2140
1,70,127,760
1,72,127,48
1,74,127,408
1,74,127,132
1,74,127,96
1,72,127,116
1,74,127,352
1,70,127,404
1,72,127,368
1,69,127,4
1,69,127,292
1,67,127,8
1,65,127,392
1,69,127,412
1,69,127,224
1,65,127,8
1,64,127,32
1,64,127,116
1,65,127,8
1,66,127,148
1,67,127,148
1,60,127,380
1,60,127,124
1,69,127,0
1,60,127,116
1,69,127,20
1,70,127,148
1,62,127,0
1,60,127,236
1,69,127,16
1,64,127,8
1,72,127,0
1,70,127,20
1,62,127,0
1,69,127,16
1,60,127,20
1,62,127,16
1,70,127,0
1,60,127,8
1,69,127,4
1,60,127,1404
1,67,127,392
1,58,127,8
1,58,127,208
1,67,127,0
1,69,127,1528
1,60,127,0
1,65,127,748
1,57,127,0
1,60,127,616
1,65,127,376
1,69,127,388
1,62,127,56
1,70,127,0
1,60,127,108
1,69,127,0
1,57,127,184
1,65,127,16
1,58,127,40
1,67,127,16
1,60,127,44
1,69,127,16
1,62,127,20
1,70,127,0
1,60,127,20
1,69,127,0
1,57,127,8
1,65,127,0
1,69,127,12
1,60,127,0
1,58,127,32
1,67,127,0
1,60,127,268
1,64,127,376
1,67,127,376
1,64,127,12
1,72,127,0
1,64,127,108
1,72,127,0
1,64,127,136
1,72,127,4
1,64,127,128
1,72,127,16
1,65,127,20
1,74,127,0
1,70,127,364
1,62,127,0
1,64,127,16
1,72,127,0
1,69,127,20
1,65,127,16
1,60,127,376
1,65,127,400
1,69,127,260
1,62,127,48
1,70,127,12
1,60,127,120
1,69,127,0
1,65,127,8
1,57,127,0
1,58,127,40
1,67,127,16
1,60,127,52
1,69,127,4
1,62,127,8
1,70,127,4
1,69,127,8
1,60,127,0
1,57,127,8
1,65,127,0
1,60,127,20
1,69,127,0
1,67,127,8
1,58,127,4
1,60,127,220
1,64,127,388
1,67,127,348
1,64,127,20
1,72,127,0
1,64,127,132
1,72,127,0
1,62,127,164
1,70,127,0
1,58,127,108
1,64,127,16
1,57,127,60
1,65,127,0
1,65,127,26288
1,70,127,760
1,72,127,8
1,74,127,8
1,74,127,108
1,74,127,124
1,72,127,8
1,74,127,372
1,70,127,400
1,72,127,8
1,69,127,388
1,69,127,312
1,67,127,8
1,65,127,364
1,69,127,372
1,69,127,212
1,65,127,8
1,64,127,8
1,64,127,116
1,65,127,24
1,66,127,152
1,67,127,156
1,60,127,272
1,69,127,120
1,60,127,0
1,60,127,108
1,69,127,0
1,70,127,132
1,62,127,0
1,60,127,20
1,69,127,16
1,64,127,20
1,72,127,0
1,70,127,8
1,62,127,16
1,69,127,32
1,60,127,0
1,62,127,8
1,70,127,0
1,60,127,12
1,69,127,16
1,60,127,740
1,58,127,0
1,67,127,12
1,67,127,120
1,58,127,0
1,69,127,204
1,60,127,0
1,65,127,120
1,57,127,0
1,60,127,880
1,67,127,136
1,58,127,16
1,67,127,124
1,58,127,4
1,70,127,108
1,62,127,12
1,60,127,60
1,69,127,0
1,57,127,88
1,65,127,0
2,29,127,1540
2,29,127,204
2,36,127,128
2,24,127,340
2,29,127,16
2,29,127,224
2,36,127,128
2,36,127,80
2,24,127,128
2,29,127,16
2,29,127,204
2,36,127,132
2,24,127,360
2,29,127,48
2,29,127,220
2,36,127,132
2,36,127,100
2,24,127,384
2,29,127,108
2,29,127,176
2,36,127,132
2,24,127,352
2,29,127,336
2,29,127,208
2,36,127,0
2,24,127,380
2,29,127,0
2,29,127,208
2,36,127,132
2,24,127,344
2,29,127,12
2,29,127,216
2,36,127,132
2,29,127,328
2,36,127,12
2,36,127,156
2,43,127,0
2,31,127,384
2,36,127,20
2,36,127,192
2,43,127,132
2,43,127,92
2,36,127,132
2,29,127,372
2,29,127,204
2,36,127,132
2,24,127,372
2,29,127,48
2,29,127,1244
2,29,127,196
2,36,127,128
2,24,127,368
2,29,127,28
2,29,127,212
2,36,127,128
2,24,127,360
2,29,127,0
2,29,127,196
2,36,127,128
2,24,127,344
2,29,127,16
2,29,127,224
2,36,127,128
2,29,127,340
2,36,127,380
2,36,127,192
2,43,127,128
2,31,127,4
2,36,127,20
2,36,127,216
2,43,127,0
2,43,127,124
2,36,127,128
2,29,127,0
2,29,127,192
2,36,127,132
2,33,127,12
2,29,127,388
2,34,127,1184
2,34,127,196
2,41,127,132
2,29,127,360
2,34,127,8
2,34,127,216
2,41,127,128
2,34,127,0
2,41,127,384
2,41,127,148
2,36,127,12
2,36,127,204
2,41,127,132
2,36,127,380
2,33,127,380
2,29,127,372
2,26,127,56
2,26,127,212
2,33,127,20
2,33,127,196
2,31,127,16
2,35,127,384
2,38,127,360
2,43,127,24
2,36,127,0
2,36,127,0
2,36,127,128
2,31,127,132
2,36,127,0
2,36,127,228
2,34,127,132
2,33,127,168
2,31,127,164
2,29,127,220
2,29,127,256
2,36,127,128
2,24,127,376
2,29,127,12
2,29,127,224
2,36,127,128
2,24,127,376
2,29,127,12
2,29,127,260
2,36,127,128
2,24,127,368
2,29,127,36
2,29,127,204
2,36,127,132
2,36,127,100
2,29,127,128
2,36,127,12
2,36,127,180
2,43,127,132
2,31,127,368
2,36,127,40
2,36,127,196
2,43,127,132
2,43,127,120
2,36,127,4
2,29,127,388
2,41,127,20
2,36,127,128
2,33,127,8
2,29,127,388
2,29,127,1152
2,29,127,96
2,36,127,132
2,24,127,348
2,29,127,28
2,36,127,324
2,29,127,384
2,36,127,40
2,43,127,172
2,31,127,384
2,36,127,0
2,36,127,172
2,43,127,132
2,31,127,356
2,36,127,8
2,43,127,40
2,31,127,384
2,36,127,20
2,36,127,136
2,43,127,132
2,36,127,44
2,29,127,388
2,41,127,56
2,38,127,132
2,36,127,4
2,29,127,16
2,29,127,1116
2,36,127,200
2,24,127,4
2,29,127,36
2,36,127,232
2,29,127,380
2,36,127,32
2,36,127,188
2,43,127,0
2,31,127,32
2,36,127,0
2,43,127,308
2,31,127,380
2,36,127,16
2,36,127,228
2,43,127,0
2,31,127,24
2,36,127,20
2,43,127,48
2,36,127,28
2,29,127,4
2,41,127,380
2,36,127,380
2,33,127,376
2,29,127,24
2,29,127,1060
2,29,127,204
2,36,127,132
2,24,127,360
2,29,127,24
2,36,127,108
2,24,127,20
2,29,127,40
2,29,127,220
2,36,127,132
2,24,127,376
2,29,127,36
2,29,127,272
2,36,127,132
2,36,127,116
2,29,127,0
2,36,127,28
2,43,127,48
2,31,127,380
2,36,127,28
2,36,127,204
2,43,127,16
2,36,127,8
2,29,127,32
2,29,127,216
2,36,127,0
2,24,127,380
2,29,127,36
2,41,127,384
2,36,127,372
2,33,127,376
2,29,127,8
2,29,127,268
2,36,127,128
2,24,127,372
2,29,127,16
2,36,127,240
2,24,127,380
2,29,127,16
2,29,127,248
2,36,127,132
2,24,127,344
2,29,127,16
2,29,127,240
2,36,127,132
2,29,127,368
2,36,127,24
2,36,127,172
2,43,127,128
2,31,127,384
2,36,127,28
2,36,127,240
2,43,127,128
2,43,127,124
2,36,127,8
2,29,127,388
2,41,127,380
2,36,127,0
2,33,127,384
2,29,127,8
2,34,127,1280
2,34,127,220
2,41,127,132
2,29,127,356
2,34,127,348
2,34,127,200
2,41,127,16
2,41,127,140
2,34,127,132
2,41,127,16
2,41,127,164
2,36,127,12
2,36,127,200
2,41,127,12
2,36,127,28
2,33,127,16
2,29,127,36
2,26,127,96
2,26,127,184
2,33,127,124
2,33,127,168
2,31,127,28
2,35,127,380
2,38,127,4
2,43,127,12
2,36,127,8
2,36,127,0
2,36,127,208
2,31,127,40
2,36,127,8
2,36,127,224
2,34,127,132
2,33,127,196
2,31,127,168
2,29,127,164
2,29,127,204
2,36,127,20
2,24,127,380
2,29,127,8
2,36,127,120
2,24,127,380
2,29,127,8
2,29,127,252
2,36,127,128
2,36,127,140
2,24,127,132
2,29,127,380
2,36,127,64
2,29,127,16
2,36,127,8
2,36,127,168
2,43,127,128
2,31,127,380
2,36,127,12
2,43,127,24
2,36,127,8
2,29,127,8
2,41,127,36
2,36,127,128
2,33,127,348
2,29,127,296
2,36,127,1132
2,29,127,48
3,60,43,1144
3,69,43,376
3,65,43,12
3,65,43,68
3,69,43,0
3,70,43,1156
3,62,43,0
3,69,43,16
3,60,43,0
3,72,43,128
3,64,43,0
3,70,43,228
3,62,43,0
3,69,43,8
3,60,43,20
3,62,43,220
3,70,43,4
3,69,43,16
3,60,43,20
3,65,43,0
3,60,43,224
3,69,43,376
3,65,43,0
3,65,43,60
3,69,43,4
3,70,43,4
3,62,43,12
3,69,43,16
3,60,43,0
3,72,43,140
3,64,43,0
3,70,43,8
3,62,43,16
3,69,43,20
3,60,43,0
3,62,43,200
3,70,43,12
3,60,43,20
3,69,43,0
3,65,43,20
3,60,43,120
3,58,43,288
3,64,43,12
3,67,43,0
3,64,43,68
3,67,43,0
3,62,43,20
3,70,43,0
3,69,43,560
3,60,43,12
3,65,43,204
3,57,43,0
3,60,43,800
3,69,43,380
3,65,43,0
3,70,43,1904
3,62,43,4
3,69,43,216
3,60,43,16
3,72,43,100
3,64,43,0
3,62,43,4
3,70,43,20
3,60,43,8
3,69,43,4
3,62,43,216
3,70,43,0
3,69,43,36
3,60,43,0
3,65,43,0
3,60,43,96
3,58,43,264
3,64,43,12
3,67,43,0
3,69,43,8
3,60,43,0
3,57,43,728
3,65,43,16
3,65,43,1256
3,62,43,0
3,70,43,4
3,65,43,56
3,69,43,12
3,60,43,0
3,58,43,0
3,60,43,0
3,67,43,4
3,64,43,24
3,57,43,8
3,65,43,4
3,60,43,0
3,62,43,1524
3,55,43,1524
3,59,43,16
3,60,43,76
3,64,43,0
3,67,43,0
3,66,43,80
3,63,43,0
3,69,43,4
3,60,43,0
3,64,43,132
3,60,43,0
3,67,43,0
3,70,43,4
3,69,43,224
3,65,43,0
3,70,43,68
3,62,43,0
3,60,43,28
3,69,43,0
3,64,43,0
3,72,43,0
3,70,43,236
3,62,43,0
3,60,43,28
3,69,43,0
3,62,43,236
3,70,43,0
3,69,43,40
3,60,43,0
3,65,43,0
3,60,43,116
3,58,43,328
3,64,43,16
3,67,43,0
3,69,43,168
3,60,43,16
3,65,43,688
3,57,43,0
3,60,43,204
3,65,43,380
3,69,43,384
3,70,43,76
3,65,43,0
3,62,43,0
3,69,43,84
3,60,43,0
3,58,43,416
3,67,43,36
3,64,43,8
3,57,43,8
3,65,43,16
3,60,43,252
3,65,43,392
3,69,43,388
3,62,43,20
3,65,43,8
3,70,43,0
3,60,43,8
3,69,43,16
3,58,43,88
3,65,43,116
3,58,43,232
3,64,43,132
3,67,43,32
3,57,43,160
3,65,43,0
3,60,43,908
3,65,43,352
3,69,43,0
3,70,43,1900
3,62,43,0
3,69,43,8
3,60,43,4
3,72,43,0
3,64,43,16
3,62,43,184
3,70,43,16
3,60,43,4
3,69,43,0
3,62,43,192
3,70,43,16
3,69,43,36
3,60,43,0
3,65,43,4
3,60,43,124
3,58,43,252
3,64,43,16
3,67,43,0
3,70,43,8
3,62,43,0
3,60,43,736
3,69,43,12
3,65,43,552
3,57,43,12
3,60,43,56
3,69,43,0
3,65,43,16
3,70,43,1912
3,62,43,0
3,69,43,8
3,60,43,16
3,64,43,120
3,72,43,0
3,62,43,208
3,70,43,12
3,60,43,12
3,69,43,0
3,70,43,208
3,62,43,0
3,69,43,36
3,60,43,16
3,65,43,4
3,60,43,148
3,58,43,256
3,64,43,16
3,67,43,0
3,69,43,84
3,60,43,12
3,65,43,740
3,57,43,12
3,70,43,1188
3,62,43,16
3,65,43,0
3,60,43,48
3,69,43,0
3,65,43,4
3,58,43,8
3,64,43,0
3,67,43,0
3,57,43,8
3,65,43,16
3,62,43,1508
3,59,43,1520
3,55,43,0
3,60,43,28
3,64,43,0
3,67,43,4
3,69,43,120
3,66,43,0
3,63,43,4
3,60,43,112
3,64,43,0
3,70,43,0
3,67,43,28
3,60,43,20
3,69,43,236
3,65,43,0
3,62,43,20
3,70,43,0
3,60,43,8
3,69,43,16
3,72,43,124
3,64,43,0
3,70,43,240
3,62,43,4
3,69,43,20
3,60,43,0
3,70,43,236
3,62,43,0
3,69,43,28
3,60,43,16
3,65,43,20
3,60,43,140
3,58,43,308
3,64,43,16
3,67,43,0
3,69,43,124
3,60,43,0
3,57,43,716
3,65,43,0
3,60,43,148
3,58,43,764
3,64,43,0
3,67,43,4
3,70,43,68
3,62,43,0
3,60,43,40
3,69,43,12
3,57,43,360
3,65,43,0
4,60,103,1152
4,69,106,12
4,60,98,0
4,69,106,72
4,60,103,0
4,70,119,200
4,62,115,0
4,60,86,24
4,69,108,0
4,72,115,20
4,64,111,4
4,62,101,16
4,70,104,0
4,69,115,20
4,60,101,0
4,62,106,12
4,70,102,0
4,69,108,40
4,60,111,0
4,48,127,12644
4,50,111,256
4,48,119,112
4,46,107,0
4,45,119,8
4,43,103,252
4,41,124,104
4,53,124,10228
4,48,111,256
4,53,124,4
4,51,115,12
4,50,111,4
4,48,108,256
4,46,127,0
4,60,115,9620
4,58,89,0
4,57,99,224
4,55,111,232
4,53,93,200
4,57,94,35264
4,60,96,0
4,53,94,0
4,65,108,256
4,60,94,0
4,69,108,0
4,69,108,60
4,60,99,0
4,65,106,0
4,67,98,248
4,70,95,0
4,62,103,0
4,69,90,68
4,60,88,4
4,65,92,0
4,69,99,52
4,72,101,0
4,64,93,0
4,70,95,88
4,67,94,0
4,62,89,0
4,69,106,56
4,65,108,0
4,60,93,0
4,62,88,88
4,70,98,4
4,67,94,0
4,65,101,56
4,69,99,0
4,60,93,0
4,57,111,1112
4,60,96,0
4,67,96,8
4,58,107,0
4,64,93,0
4,67,115,100
4,58,119,0
4,64,103,0
4,67,101,16
4,62,106,0
4,70,97,0
4,69,106,156
4,60,94,0
4,65,103,0
4,57,92,248
4,60,96,0
4,65,101,0
4,53,98,248
4,57,98,0
4,60,94,0
4,65,101,168
4,60,93,0
4,69,103,4
4,60,90,60
4,65,103,0
4,69,103,4
4,62,96,340
4,70,95,0
4,67,101,0
4,69,91,84
4,60,89,4
4,65,91,0
4,69,98,40
4,64,91,0
4,72,96,4
4,70,88,80
4,67,92,4
4,62,89,0
4,65,103,44
4,69,99,0
4,60,94,0
4,67,99,96
4,70,102,4
4,62,89,0
4,60,89,56
4,69,101,4
4,65,94,0
4,57,94,8
4,60,94,0
4,58,111,232
4,64,106,0
4,67,78,0
4,65,91,0
4,64,94,108
4,67,93,0
4,58,127,0
4,60,106,72
4,69,111,0
4,67,98,220
4,62,101,0
4,58,107,0
4,65,98,100
4,60,96,0
4,57,92,0
4,53,124,552
4,48,124,20
4,53,124,8
4,51,119,256
4,50,124,0
4,48,101,8
4,46,115,4
4,60,124,9700
4,58,104,132
4,57,108,220
4,55,99,200
4,53,96,184
4,60,105,10468
4,58,94,8
4,67,88,0
4,58,108,136
4,67,91,12
4,62,95,100
4,70,97,0
4,60,89,56
4,69,90,0
4,65,87,8
4,57,82,0
4,65,74,0
4,62,71,4
4,69,81,0
4,74,77,4
4,69,81,0
4,65,76,0
4,72,82,0
5,84,107,1152
5,84,107,156
5,93,107,0
