track,note,velocity,time
1,69,52,2292
1,57,40,0
1,66,45,0
1,62,48,4
1,50,37,4
1,78,75,340
1,79,68,144
1,81,69,136
1,71,57,96
1,83,66,0
1,76,63,0
1,57,52,0
1,49,43,12
1,81,65,216
1,69,61,0
1,49,56,8
1,81,68,152
1,69,63,4
1,74,65,0
1,59,53,8
1,47,53,8
1,79,68,240
1,67,62,0
1,47,56,52
1,73,65,164
1,78,67,0
1,69,57,0
1,57,53,8
1,45,53,0
1,76,70,104
1,67,65,8
1,74,72,88
1,66,57,4
1,73,72,112
1,64,70,0
1,40,55,20
1,42,56,8
1,74,70,132
1,62,59,4
1,71,61,0
1,67,58,0
1,43,53,8
1,55,68,368
1,62,63,20
1,67,66,24
1,76,75,0
1,52,52,28
1,74,66,4
1,67,56,8
1,57,50,0
1,71,57,0
1,45,43,20
1,73,53,144
1,69,50,0
1,64,47,4
1,67,42,16
1,50,46,124
1,57,52,52
1,66,48,8
1,69,56,40
1,76,64,36
1,74,53,128
1,74,62,68
1,69,54,0
1,57,49,32
1,69,51,160
1,64,50,0
1,66,42,0
1,64,54,12
1,57,45,0
1,49,40,16
1,69,56,328
1,76,66,0
1,64,53,12
1,57,45,8
1,54,37,0
1,47,48,12
1,74,55,132
1,76,73,76
1,78,57,28
1,74,54,16
1,57,46,0
1,62,46,156
1,62,37,192
1,64,62,80
1,69,57,4
1,66,53,16
1,64,53,20
1,62,62,40
1,47,59,36
1,52,55,168
1,40,47,16
1,78,73,0
1,69,61,0
1,67,50,88
1,76,56,0
1,76,64,40
1,67,50,20
1,74,53,8
1,52,45,96
1,76,60,8
1,63,50,120
1,67,49,8
1,59,48,0
1,62,68,88
1,67,60,308
1,52,64,24
1,78,73,164
1,69,61,4
1,55,38,16
1,45,47,0
1,76,69,192
1,67,58,12
1,76,70,64
1,67,59,0
1,74,57,20
1,45,42,16
1,76,64,108
1,67,48,8
1,33,42,8
1,45,47,200
1,62,49,156
1,52,39,0
1,55,42,0
1,59,46,0
1,61,56,16
1,45,49,60
1,50,48,188
1,38,46,0
1,76,69,4
1,69,60,0
1,66,61,16
1,74,50,76
1,74,67,40
1,69,56,12
1,54,38,8
1,69,67,88
1,64,52,144
1,57,42,8
1,66,51,4
1,62,48,0
1,57,53,136
1,50,40,8
1,49,42,16
1,64,52,4
1,37,52,4
1,57,62,104
1,69,68,116
1,54,65,28
1,47,55,64
1,35,66,0
1,76,74,136
1,64,67,4
1,69,55,0
1,74,64,104
1,76,75,104
1,59,56,8
1,66,57,12
1,69,57,0
1,78,69,96
1,54,40,8
1,74,57,4
1,69,53,152
1,66,49,0
1,62,48,0
1,54,54,156
1,57,61,136
1,47,61,0
1,59,73,28
1,62,72,152
1,52,66,80
1,40,58,8
1,78,75,36
1,69,66,0
1,76,71,88
1,67,53,8
1,76,75,0
1,67,63,0
1,52,48,140
1,74,66,144
1,76,71,56
1,59,51,0
1,63,59,132
1,67,56,4
1,59,57,28
1,67,55,44
1,62,48,28
1,74,53,60
1,52,56,0
1,45,59,120
1,78,70,28
1,69,64,0
1,55,56,100
1,59,51,8
1,62,47,76
1,76,68,32
1,67,61,8
1,76,66,32
1,74,53,8
1,45,44,92
1,67,45,8
1,76,56,0
1,73,50,0
1,33,42,16
1,45,40,224
1,52,51,20
1,57,69,132
1,59,64,0
1,62,68,144
1,49,61,0
1,42,56,40
1,69,66,12
1,76,72,0
1,49,43,20
1,57,51,288
1,64,53,20
1,78,68,88
1,49,48,8
1,69,62,44
1,74,64,4
1,47,53,112
1,54,54,172
1,59,53,152
1,69,55,96
1,62,48,8
1,54,55,12
1,71,65,48
1,67,63,0
1,40,47,4
1,73,65,8
1,47,46,16
1,74,72,28
1,67,67,4
1,55,61,144
1,67,64,68
1,76,70,32
1,47,63,8
1,69,75,68
1,78,81,0
1,45,64,16
1,76,75,100
1,67,63,16
1,52,53,12
1,62,65,156
1,59,59,16
1,67,72,100
1,52,56,112
1,61,68,12
1,55,61,0
1,45,49,0
1,45,38,104
1,73,59,76
1,76,64,40
1,33,54,12
1,83,73,8
1,81,75,84
1,50,63,188
1,38,63,4
1,78,67,0
1,69,59,4
1,74,62,0
1,57,53,76
1,74,65,8
1,69,61,0
1,78,75,0
1,54,53,0
1,69,63,72
1,78,75,0
1,74,63,8
1,62,57,8
1,83,73,32
1,57,53,16
1,61,59,72
1,69,66,0
1,81,73,0
1,76,67,0
1,49,63,4
1,57,53,0
1,57,66,12
1,78,75,152
1,69,56,4
1,64,43,8
1,76,72,12
1,57,50,20
1,47,66,164
1,74,71,108
1,67,60,8
1,55,50,4
1,71,63,144
1,62,59,32
1,74,71,68
1,79,73,144
1,55,62,40
1,81,74,48
1,45,66,64
1,76,68,20
1,81,71,0
1,78,69,8
1,76,66,20
1,74,70,48
1,57,61,48
1,62,48,300
1,69,62,0
1,66,56,12
1,57,50,8
1,66,66,108
1,50,60,0
1,45,61,0
1,59,61,52
1,50,54,0
1,43,53,0
1,50,51,28
1,67,53,136
1,71,68,104
1,59,57,0
1,73,71,172
1,50,56,84
1,74,68,48
1,42,46,72
1,62,60,8
1,74,71,0
1,69,65,0
1,69,67,96
1,50,48,0
1,57,64,196
1,62,60,136
1,71,72,20
1,50,57,0
1,74,73,0
1,78,75,84
1,69,66,0
1,40,57,12
1,76,71,24
1,67,53,0
1,47,43,12
1,76,73,28
1,67,58,0
1,55,64,0
1,67,63,144
1,74,71,52
1,47,44,8
1,76,74,20
1,40,63,68
1,67,68,0
1,69,64,48
1,42,63,4
1,71,69,4
1,43,63,0
1,67,65,88
1,71,70,4
1,62,64,0
1,43,53,4
1,31,53,0
1,69,65,8
1,73,70,0
1,64,59,8
1,45,44,0
1,33,56,0
1,78,75,144
1,74,69,12
1,69,66,0
1,50,62,4
1,38,62,4
1,78,68,92
1,57,59,0
1,78,72,84
1,74,66,0
1,69,66,4
1,66,50,0
1,83,72,128
1,57,60,8
1,49,57,116
1,37,57,0
1,69,56,4
1,76,61,36
1,81,73,16
1,57,61,0
1,78,73,136
1,74,64,4
1,69,59,8
1,64,55,8
1,76,70,36
1,57,43,8
1,47,60,176
1,35,60,0
1,67,57,40
1,55,57,68
1,74,71,68
1,67,56,20
1,71,65,60
1,62,61,48
1,74,71,40
1,67,54,8
1,79,71,164
1,55,59,8
1,81,73,76
1,45,59,40
1,33,59,0
1,81,72,40
1,76,72,0
1,78,61,12
1,76,63,68
1,74,67,12
1,69,75,68
1,54,49,16
1,62,48,136
1,61,57,4
1,64,75,144
1,66,50,20
1,54,42,4
1,62,67,136
1,43,64,124
1,59,61,20
1,50,56,20
1,69,72,124
1,59,57,128
1,71,70,40
1,67,62,8
1,73,73,140
1,50,56,72
1,74,75,40
1,42,66,20
1,62,50,28
1,69,61,20
1,74,72,16
1,69,66,96
1,50,46,8
1,57,66,268
1,69,57,116
1,71,68,8
1,50,53,0
1,74,67,20
1,78,75,4
1,69,64,0
1,40,65,0
1,76,67,40
1,67,56,8
1,47,57,12
1,76,75,60
1,67,62,20
1,55,64,0
1,67,67,128
1,74,72,56
1,47,50,12
1,76,77,132
1,40,66,0
1,47,65,96
1,55,70,28
1,62,70,144
1,61,72,76
1,45,48,0
1,52,46,4
1,55,51,0
1,64,73,136
1,66,75,12
1,62,68,0
1,57,67,0
1,50,56,0
1,38,50,8
1,57,43,24
1,66,75,40
1,50,49,12
1,67,72,100
1,69,75,136
1,71,72,204
1,59,61,0
1,64,66,8
1,49,48,0
1,37,43,4
1,69,72,108
1,57,66,8
1,37,48,44
1,69,72,140
1,62,69,0
1,57,61,8
1,47,50,8
1,35,46,0
1,67,72,176
1,55,66,0
1,35,52,28
1,66,75,0
1,61,64,0
1,45,53,4
1,57,59,4
1,33,49,0
1,64,73,116
1,55,67,0
1,62,75,12
1,54,67,8
1,61,73,68
1,28,60,4
1,30,59,36
1,62,73,132
1,59,68,4
1,31,56,8
1,55,57,4
1,43,61,452
1,55,47,16
1,59,72,144
1,64,77,32
1,59,64,104
1,62,69,0
1,55,59,4
1,33,48,0
1,45,48,0
1,61,61,204
1,57,56,8
1,55,50,0
1,45,45,0
1,38,43,8
1,76,76,0
1,69,68,4
1,26,42,0
1,66,57,4
1,57,53,188
1,54,49,8
1,69,61,92
1,74,75,0
1,62,44,8
1,69,71,68
1,57,51,12
1,64,69,68
1,69,71,12
1,66,64,0
1,50,60,20
1,57,62,0
1,62,70,56
1,66,65,20
1,64,62,152
1,57,51,0
1,37,61,4
1,49,63,56
1,57,62,36
1,47,68,56
1,76,75,4
1,35,65,0
1,69,67,0
1,66,62,0
1,47,49,140
1,74,68,88
1,69,64,116
1,76,75,8
1,66,65,0
1,57,56,0
1,54,53,8
1,78,75,84
1,47,59,0
1,76,77,28
1,81,71,0
1,78,65,12
1,62,59,76
1,54,48,12
1,74,66,52
1,69,43,36
1,69,64,56
1,64,69,0
1,66,61,28
1,54,58,100
1,62,70,88
1,57,68,148
1,42,62,136
1,47,64,0
1,40,65,8
1,66,68,28
1,78,77,8
1,52,61,0
1,76,73,104
1,67,56,0
1,76,75,88
1,67,64,8
1,62,52,12
1,59,45,16
1,52,53,20
1,74,70,0
1,76,76,64
1,67,63,4
1,40,66,56
1,47,63,80
1,55,63,12
1,62,63,128
1,67,65,0
1,55,65,144
1,55,38,48
1,57,67,100
1,59,67,160
1,45,69,4
1,78,77,196
1,69,70,8
1,73,55,0
1,52,63,12
1,76,73,56
1,67,63,4
1,67,63,80
1,76,75,0
1,59,55,12
1,67,55,108
1,52,61,36
1,74,73,12
1,76,75,36
1,74,52,4
1,67,59,8
1,71,63,0
1,33,67,48
1,45,60,8
1,55,60,60
1,59,64,84
1,62,62,0
1,45,63,8
1,55,57,4
1,61,56,0
1,52,48,8
1,47,63,12
1,62,60,0
1,49,64,4
1,64,60,0
1,55,62,0
1,50,63,184
1,76,75,0
1,38,65,8
1,66,63,0
1,69,59,0
1,57,60,156
1,54,49,8
1,74,74,68
1,69,63,8
1,62,67,48
1,76,73,140
1,64,63,4
1,69,61,0
1,81,74,0
1,78,75,24
1,66,67,0
1,57,59,0
1,74,63,100
1,69,53,8
1,74,68,88
1,69,59,0
1,50,59,8
1,62,59,28
1,57,63,56
1,50,63,12
1,62,34,48
1,64,71,0
1,49,63,8
1,57,59,0
1,69,73,136
1,49,62,56
1,47,68,0
1,76,75,20
1,69,68,8
1,66,61,4
1,57,52,184
1,54,53,0
1,74,70,36
1,62,63,156
1,76,73,68
1,69,67,0
1,66,58,12
1,78,73,68
1,57,51,12
1,74,73,48
1,66,59,12
1,69,61,0
1,35,64,40
1,47,59,12
1,54,59,80
1,57,65,100
1,62,63,8
1,54,63,28
1,64,65,128
1,69,64,8
1,66,60,0
1,57,57,28
1,47,64,48
1,52,60,4
1,40,63,16
1,78,75,0
1,69,63,0
1,52,59,68
1,76,74,144
1,67,64,4
1,62,60,0
1,59,49,16
1,76,75,80
1,67,63,16
1,52,59,76
1,74,71,8
1,76,75,68
1,67,63,8
1,40,65,0
1,47,61,24
1,52,59,128
1,62,61,136
1,57,63,0
1,59,61,0
1,57,60,24
1,62,68,0
1,59,56,0
1,47,57,48
1,55,63,0
1,45,64,100
1,33,66,156
1,78,78,48
1,69,67,0
1,66,67,0
1,45,67,4
1,55,60,304
1,52,60,4
1,81,77,160
1,69,71,0
1,45,58,0
1,71,68,24
1,83,78,4
1,33,71,60
1,67,68,8
1,78,75,8
1,73,61,8
1,76,78,120
1,64,67,8
1,45,63,12
1,55,56,0
1,52,45,8
1,69,73,128
1,71,73,80
1,45,56,0
1,74,73,8
1,64,64,12
1,42,65,8
1,69,62,20
1,76,76,28
1,57,53,188
1,54,51,8
1,57,53,56
1,61,62,12
1,78,73,84
1,54,55,0
1,69,59,8
1,57,43,0
1,74,72,28
1,69,64,12
1,47,63,8
1,54,59,0
1,69,34,76
1,81,62,80
1,74,55,0
1,57,48,16
1,69,61,60
1,54,62,72
1,62,69,96
1,69,61,0
1,57,51,40
1,47,66,36
1,67,63,16
1,71,73,0
1,40,63,8
1,73,73,20
1,52,59,8
1,74,75,60
1,71,67,0
1,67,66,0
1,59,60,136
1,55,57,0
1,67,59,0
1,76,78,104
1,52,46,8
1,69,63,20
1,78,75,0
1,33,72,28
1,76,78,104
1,67,73,8
1,45,59,12
1,62,67,164
1,59,56,12
1,55,57,0
1,52,56,4
1,67,72,148
1,62,60,8
1,59,64,0
1,55,55,8
1,33,60,12
1,61,70,4
1,57,68,4
1,55,62,0
1,45,72,116
1,83,76,280
1,57,63,4
1,71,68,8
1,64,61,0
1,76,69,0
1,67,61,8
1,76,75,0
1,81,75,4
1,69,63,4
1,64,62,0
1,61,55,12
1,78,78,292
1,69,75,0
1,74,75,4
1,50,67,4
1,38,60,0
1,78,75,92
1,74,70,0
1,57,64,4
1,69,64,8
1,54,55,8
1,78,75,88
1,74,68,4
1,69,66,0
1,57,55,4
1,62,57,8
1,74,56,40
1,83,76,0
1,78,72,12
1,57,65,0
1,54,52,16
1,37,69,164
1,69,68,8
1,76,69,20
1,81,77,12
1,49,69,0
1,78,77,208
1,69,68,16
1,61,52,0
1,57,50,0
1,52,47,12
1,76,75,92
1,49,56,4
1,35,63,16
1,67,63,68
1,74,77,112
1,67,65,12
1,55,60,0
1,47,60,0
1,50,50,0
1,71,71,16
1,55,55,48
1,74,75,0
1,59,59,8
1,67,61,8
1,50,39,0
1,67,71,28
1,79,75,12
1,50,40,0
1,55,57,0
1,47,53,8
1,69,63,32
1,81,75,0
1,76,71,0
1,81,70,8
1,33,65,4
1,78,68,12
1,76,60,20
1,74,62,16
1,69,70,92
1,64,70,0
1,45,50,12
1,66,55,28
1,57,63,0
1,54,63,32
1,62,70,76
1,57,64,0
1,45,63,88
1,57,58,8
1,55,67,76
1,31,65,8
1,59,67,0
1,43,56,76
1,71,75,148
1,67,65,8
1,62,62,16
1,55,59,140
1,73,75,136
1,43,43,20
1,74,76,24
1,62,63,64
1,74,76,4
1,69,75,4
1,42,61,36
1,30,63,0
1,62,54,12
1,62,64,96
1,69,66,8
1,66,55,0
1,42,46,12
1,62,50,28
1,69,70,0
1,57,63,8
1,66,60,8
1,54,63,20
1,71,73,64
1,67,65,0
1,42,53,12
1,74,75,56
1,78,77,16
1,40,60,0
1,52,63,0
1,69,68,4
1,76,71,144
1,67,60,8
1,59,55,4
1,55,51,4
1,52,53,0
1,76,76,72
1,67,65,0
1,59,56,108
1,62,63,4
1,55,48,4
1,67,59,136
1,52,52,100
1,74,75,8
1,76,77,40
1,67,65,20
1,40,63,8
1,69,68,80
1,42,63,8
1,71,70,4
1,43,65,0
1,71,72,144
1,67,63,8
1,62,65,0
1,55,56,4
1,43,57,4
1,57,59,16
1,64,68,0
1,69,66,0
1,73,70,8
1,45,57,0
1,33,59,0
1,78,75,20
1,74,65,0
1,69,63,0
1,50,62,0
1,38,65,0
1,78,77,80
1,69,65,8
1,57,65,0
1,74,66,0
1,54,53,8
1,78,75,84
1,74,63,0
1,69,63,0
1,57,60,4
1,62,59,0
1,83,75,68
1,78,67,0
1,71,69,0
1,57,66,8
1,54,60,8
1,81,75,148
1,69,72,8
1,37,68,0
1,76,73,4
1,49,62,220
1,57,63,4
1,52,61,16
1,78,78,64
1,69,73,0
1,61,56,4
1,57,53,8
1,52,48,8
1,76,77,68
1,49,55,20
1,35,69,36
1,74,77,84
1,67,68,4
1,55,63,104
1,47,56,0
1,50,48,8
1,71,75,28
1,73,75,8
1,59,55,8
1,55,53,0
1,50,43,8
1,79,73,0
1,74,63,8
1,83,73,80
1,74,65,8
1,50,53,64
1,55,52,0
1,47,50,12
1,74,46,8
1,33,69,28
1,81,73,32
1,69,65,8
1,78,73,0
1,54,61,0
1,69,51,28
1,74,68,80
1,68,65,0
1,69,68,8
1,57,48,12
1,66,68,24
1,54,42,8
1,62,52,4
1,57,55,76
1,59,68,12
1,50,51,8
1,43,63,8
1,55,60,0
1,50,46,76
