track,note,velocity,time
1,52,100,1808
1,56,112,0
1,59,112,0
1,57,100,0
1,61,112,0
1,64,112,0
1,50,112,0
1,54,112,0
1,57,125,0
1,52,112,0
1,56,112,0
1,59,112,0
1,57,112,0
1,61,112,0
1,64,125,0
1,45,112,3072
1,49,127,0
1,52,127,0
1,52,112,0
1,56,127,0
1,59,124,0
1,45,112,0
1,49,127,0
1,52,124,0
1,52,124,0
1,56,124,0
1,59,124,0
1,45,124,0
1,49,127,0
1,52,124,0
1,50,124,0
1,54,124,0
1,57,124,0
1,50,32,0
1,45,124,0
1,49,127,0
1,52,127,0
1,52,112,0
1,56,124,0
1,59,127,0
1,45,101,0
1,49,127,0
1,52,127,0
1,64,100,1296
1,68,100,0
1,71,112,0
1,57,68,0
1,61,77,0
1,64,112,0
1,64,88,0
1,68,77,0
1,71,100,0
1,62,60,0
1,66,100,0
1,69,60,0
1,69,32,1248
1,57,100,216
1,61,100,0
1,64,100,0
1,64,112,0
1,68,100,0
1,71,112,0
1,57,100,0
1,61,125,0
1,64,112,0
1,62,88,2688
1,66,112,0
1,69,88,0
1,64,112,0
1,68,100,0
1,71,88,0
1,57,100,0
1,61,125,0
1,64,112,0
1,45,112,0
1,49,127,0
1,52,127,0
1,52,112,0
1,56,127,0
1,59,124,0
1,45,112,0
1,49,127,0
1,52,124,0
1,52,124,0
1,56,124,0
1,59,124,0
1,45,124,0
1,49,127,0
1,52,124,0
1,50,124,0
1,54,124,0
1,57,124,0
1,45,124,0
1,49,127,0
1,52,127,0
1,52,112,0
1,56,124,0
1,59,127,0
1,45,101,0
1,49,127,0
1,52,127,0
1,64,100,1296
1,68,100,0
1,71,112,0
1,57,68,0
1,61,77,0
1,64,112,0
1,64,88,0
1,68,77,0
1,71,100,0
1,62,60,0
1,66,100,0
1,69,60,0
1,57,100,0
1,61,100,0
1,64,100,0
1,64,112,0
1,68,100,0
1,71,112,0
1,57,100,0
1,61,125,0
1,64,112,0
1,62,88,2688
1,66,112,0
1,69,88,0
1,64,112,0
1,68,100,0
1,71,88,0
1,57,100,0
1,61,125,0
1,64,112,0
1,52,112,0
1,56,125,0
1,59,125,0
1,57,100,0
1,61,113,0
1,64,100,0
1,62,88,0
1,66,100,0
1,69,100,0
1,52,100,0
1,56,88,0
1,59,32,0
1,59,88,96
1,56,32,1056
1,57,100,0
1,61,113,0
1,64,115,0
1,65,100,1536
1,69,100,0
1,72,112,0
1,58,68,0
1,62,77,0
1,65,112,0
1,65,88,0
1,72,100,0
1,63,60,0
1,67,100,0
1,70,60,0
1,67,32,1248
1,58,100,0
1,62,100,0
1,65,100,0
1,65,112,0
1,69,100,0
1,72,112,0
1,58,100,0
1,62,125,0
1,65,112,0
1,63,88,2688
1,67,100,0
1,70,100,0
1,53,100,0
1,57,88,0
1,60,32,0
1,60,88,96
1,58,100,0
1,62,113,0
1,65,115,0
1,63,88,0
1,67,100,0
1,70,100,0
1,53,100,0
1,57,88,0
1,60,32,0
1,60,88,96
1,58,100,0
1,62,113,0
1,65,115,0
2,28,117,1808
2,32,117,73
2,35,117,28
2,28,117,28
2,32,117,62
2,35,117,29
2,28,117,11
2,32,117,66
2,35,117,13
2,28,117,192
2,28,117,92
2,32,117,64
2,35,117,18
2,33,117,192
2,37,117,91
2,40,117,28
2,33,117,192
2,37,117,83
2,40,117,7
2,33,117,8
2,37,117,101
2,40,117,0
2,33,117,192
2,33,117,120
2,37,117,64
2,40,117,124
2,26,117,21
2,30,117,110
2,33,117,64
2,26,117,16
2,26,117,144
2,30,117,64
2,33,117,16
2,28,117,192
2,32,117,96
2,35,117,16
2,28,117,6
2,28,117,110
2,32,117,64
2,35,117,2
2,33,117,80
2,37,117,91
2,40,117,4
2,33,117,7
2,33,117,108
2,37,117,64
2,40,117,10
2,33,117,192
2,33,117,319
2,37,117,55
2,40,117,12
2,33,117,18
2,33,117,117
2,37,117,0
2,40,117,23
2,33,117,21
2,37,117,98
2,40,117,15
2,33,117,192
2,37,117,135
2,40,117,192
2,33,117,180
2,37,117,95
2,40,117,192
2,33,117,191
2,33,117,92
2,37,117,96
2,40,117,10
2,28,117,28
2,32,117,80
2,35,117,18
2,28,117,192
2,32,117,84
2,35,117,6
2,28,117,7
2,32,117,106
2,35,117,13
2,28,117,192
2,32,117,102
2,35,117,25
2,28,117,192
2,32,117,67
2,35,117,12
2,28,117,192
2,32,117,98
2,35,117,16
2,28,117,3
2,32,117,117
2,35,117,11
2,28,117,192
2,28,117,65
2,32,117,96
2,35,117,45
2,33,117,24
2,37,117,89
2,40,117,18
2,33,117,192
2,37,117,32
2,40,117,192
2,28,117,14
2,32,117,89
2,35,117,9
2,28,117,192
2,28,117,101
2,32,117,96
2,35,117,9
2,33,117,192
2,37,117,100
2,40,117,12
2,33,117,192
2,37,117,131
2,40,117,192
2,33,117,184
2,37,117,112
2,40,117,5
2,33,117,192
2,37,117,135
2,40,117,192
2,38,117,1
2,42,117,93
2,45,117,192
2,38,117,179
2,42,117,88
2,45,117,192
2,38,117,5
2,42,117,71
2,45,117,2
2,38,117,192
2,38,117,44
2,42,117,96
2,45,117,8
2,33,117,2
2,37,117,125
2,40,117,192
2,33,117,6
2,37,117,153
2,40,117,6
2,28,117,9
2,32,117,105
2,35,117,13
2,28,117,192
2,28,117,102
2,32,117,96
2,35,117,12
2,33,117,192
2,37,117,115
2,40,117,15
2,33,117,192
2,33,117,89
2,37,117,96
2,40,117,27
2,33,117,3
2,28,117,1342
2,32,117,125
2,35,117,17
2,28,117,10
2,32,117,124
2,35,117,192
2,28,117,33
2,32,117,128
2,35,117,25
2,28,117,192
2,28,117,91
2,32,117,96
2,35,117,15
2,33,117,192
2,37,117,128
2,40,117,9
2,33,117,20
2,37,117,136
2,40,117,6
2,33,117,192
2,37,117,152
2,40,117,192
2,33,117,24
2,33,117,94
2,37,117,96
2,40,117,8
2,28,117,23
2,32,117,119
2,35,117,29
2,28,117,26
2,32,117,108
2,35,117,4
2,38,117,28
2,42,117,95
2,45,117,192
2,38,117,170
2,42,117,97
2,45,117,192
2,33,117,172
2,37,117,124
2,40,117,7
2,33,117,4
2,37,117,151
2,40,117,1
2,33,117,6
2,37,117,144
2,40,117,8
2,33,117,192
2,33,117,166
2,37,117,96
2,40,117,17
2,28,117,60
2,32,117,148
2,35,117,7
2,28,117,15
2,32,117,135
2,35,117,19
2,28,117,6
2,32,117,147
2,35,117,192
2,28,117,189
2,28,117,77
2,32,117,96
2,35,117,18
2,33,117,1
2,37,117,124
2,40,117,15
2,33,117,192
2,37,117,147
2,40,117,32
2,33,117,192
2,37,117,130
2,40,117,25
2,33,117,192
2,33,117,122
2,37,117,96
2,40,117,8
2,38,117,39
2,42,117,101
2,45,117,21
2,38,117,17
2,38,117,93
2,42,117,96
2,45,117,8
2,28,117,40
2,32,117,126
2,35,117,16
2,28,117,16
2,28,117,99
2,32,117,96
2,35,117,20
2,33,117,15
2,37,117,134
2,40,117,22
2,33,117,192
2,33,117,85
2,37,117,96
2,40,117,18
2,33,117,192
2,37,117,194
2,40,117,33
2,33,117,7
2,33,117,95
2,37,117,96
2,40,117,17
2,33,117,13
2,37,117,98
2,40,117,15
2,33,117,192
2,37,117,135
2,40,117,192
2,33,117,180
2,37,117,95
2,40,117,192
2,33,117,191
2,33,117,92
2,37,117,96
2,40,117,10
2,28,117,28
2,32,117,80
2,35,117,18
2,28,117,192
2,32,117,84
2,35,117,6
2,28,117,7
2,32,117,106
2,35,117,13
2,28,117,192
2,32,117,102
2,35,117,25
2,28,117,192
2,32,117,67
2,35,117,12
2,28,117,192
2,32,117,98
2,35,117,16
2,28,117,3
2,32,117,117
2,35,117,11
2,28,117,192
2,28,117,65
2,32,117,96
2,35,117,45
2,33,117,24
2,37,117,89
2,40,117,18
2,33,117,192
2,37,117,32
2,40,117,192
2,28,117,14
2,32,117,89
2,35,117,9
2,28,117,192
2,28,117,101
2,32,117,96
2,35,117,9
2,33,117,192
2,37,117,100
2,40,117,12
2,33,117,192
2,37,117,131
2,40,117,192
2,33,117,184
2,37,117,112
2,40,117,5
2,33,117,192
2,37,117,135
2,40,117,192
2,38,117,1
2,42,117,93
2,45,117,192
2,38,117,179
2,42,117,88
2,45,117,192
2,38,117,5
2,42,117,71
2,45,117,2
2,38,117,192
2,38,117,44
2,42,117,96
2,45,117,8
2,33,117,2
2,37,117,125
2,40,117,192
2,33,117,6
2,37,117,153
2,40,117,6
2,28,117,9
2,32,117,105
2,35,117,13
2,28,117,192
2,28,117,102
2,32,117,96
2,35,117,12
2,33,117,192
2,37,117,115
2,40,117,15
2,33,117,192
2,33,117,89
2,37,117,96
2,40,117,27
2,33,117,3
2,28,117,1342
2,32,117,125
2,35,117,17
2,28,117,10
2,32,117,124
2,35,117,192
2,28,117,33
2,32,117,128
2,35,117,25
2,28,117,192
2,28,117,91
2,32,117,96
2,35,117,15
2,33,117,192
2,37,117,128
2,40,117,9
2,33,117,20
2,37,117,136
2,40,117,6
2,33,117,192
2,37,117,152
2,40,117,192
2,33,117,24
2,33,117,94
2,37,117,96
2,40,117,8
2,28,117,23
2,32,117,119
2,35,117,29
2,28,117,26
2,32,117,108
2,35,117,4
2,38,117,28
2,42,117,95
2,45,117,192
2,38,117,170
2,42,117,97
2,45,117,192
2,33,117,172
2,37,117,124
2,40,117,7
2,33,117,4
2,37,117,151
2,40,117,1
2,33,117,6
2,37,117,144
2,40,117,8
2,33,117,192
2,33,117,166
2,37,117,96
2,40,117,17
2,28,117,60
2,32,117,148
2,35,117,7
2,28,117,15
2,32,117,135
2,35,117,19
2,28,117,6
2,32,117,147
2,35,117,192
2,28,117,189
2,28,117,77
2,32,117,96
2,35,117,18
2,33,117,1
2,37,117,124
2,40,117,15
2,33,117,192
2,37,117,147
2,40,117,32
2,33,117,192
2,37,117,130
2,40,117,25
2,33,117,192
2,33,117,122
2,37,117,96
2,40,117,8
2,38,117,39
2,42,117,101
2,45,117,21
2,38,117,17
2,38,117,93
2,42,117,96
2,45,117,8
2,28,117,40
2,32,117,126
2,35,117,16
2,28,117,16
2,28,117,99
2,32,117,96
2,35,117,20
2,33,117,15
2,37,117,134
2,40,117,22
2,33,117,192
2,33,117,85
2,37,117,96
2,40,117,18
2,33,117,192
2,37,117,194
2,40,117,33
2,33,117,7
2,33,117,95
2,37,117,96
2,40,117,17
2,28,117,13
2,32,117,121
2,35,117,11
2,28,117,0
2,32,117,124
2,35,117,10
2,28,117,192
2,32,117,132
2,35,117,11
2,28,117,192
2,28,117,94
2,32,117,96
2,35,117,15
2,33,117,192
2,37,117,131
2,40,117,17
2,33,117,0
2,37,117,120
2,40,117,18
2,33,117,192
2,37,117,144
2,40,117,12
2,33,117,192
2,33,117,91
2,37,117,5
2,40,117,96
2,38,117,23
2,42,117,106
2,45,117,10
2,38,117,14
2,42,117,127
2,45,117,8
2,28,117,18
2,32,117,127
2,35,117,23
2,28,117,192
2,32,117,151
2,35,117,15
2,33,117,192
2,37,117,133
2,40,117,3
2,33,117,192
2,33,117,121
2,37,117,96
2,40,117,13
2,34,117,192
2,29,117,1323
2,33,117,125
2,36,117,17
2,29,117,10
2,33,117,124
2,36,117,192
2,29,117,33
2,33,117,128
2,36,117,25
2,29,117,192
2,29,117,91
2,33,117,96
2,36,117,15
2,34,117,192
2,38,117,128
2,41,117,9
2,34,117,20
2,38,117,136
2,41,117,6
2,34,117,192
2,38,117,152
2,41,117,192
2,34,117,24
2,34,117,94
2,38,117,96
2,41,117,8
2,29,117,23
2,33,117,119
2,36,117,29
2,29,117,26
2,33,117,108
2,36,117,4
2,39,117,28
2,43,117,95
2,46,117,192
2,39,117,170
2,43,117,97
2,46,117,192
2,34,117,172
2,38,117,124
2,41,117,7
2,34,117,4
2,38,117,151
2,41,117,1
2,34,117,6
2,38,117,144
2,41,117,8
2,34,117,192
2,34,117,166
2,38,117,96
2,41,117,17
2,29,117,60
2,33,117,148
2,36,117,7
2,29,117,15
2,33,117,135
2,36,117,19
2,29,117,6
2,33,117,147
2,36,117,192
2,29,117,189
2,29,117,77
2,33,117,96
2,36,117,18
2,34,117,1
2,38,117,124
2,41,117,15
2,34,117,192
2,38,117,147
2,41,117,32
2,34,117,192
2,38,117,130
2,41,117,25
2,34,117,192
2,34,117,122
2,38,117,96
2,41,117,8
2,39,117,39
2,43,117,101
2,46,117,21
2,39,117,17
2,39,117,93
2,43,117,96
2,46,117,8
2,29,117,40
2,33,117,126
2,36,117,16
2,29,117,16
2,29,117,99
2,33,117,96
2,36,117,20
2,34,117,15
2,38,117,134
2,41,117,22
2,34,117,192
2,34,117,85
2,38,117,96
2,41,117,25
2,34,117,192
2,34,117,122
2,38,117,96
2,41,117,25
2,34,117,192
2,34,117,122
2,38,117,96
2,41,117,8
2,39,117,39
2,43,117,101
2,46,117,21
2,39,117,17
2,39,117,93
2,43,117,96
2,46,117,8
2,29,117,40
2,33,117,126
2,36,117,16
2,29,117,16
2,29,117,99
2,33,117,96
2,36,117,20
2,34,117,15
2,38,117,134
2,41,117,22
2,34,117,192
2,34,117,85
2,38,117,96
2,41,117,18
2,34,117,192
3,64,112,13912
3,61,112,4
3,64,125,20
3,64,125,46
3,64,112,91
3,66,112,15
3,64,125,41
3,62,100,68
3,61,125,23
3,61,125,53
3,59,112,3
3,59,125,75
3,62,100,503
3,62,100,59
3,59,112,23
3,62,112,215
3,64,125,49
3,62,100,93
3,61,125,16
3,59,112,20
3,61,125,26
3,62,125,122
3,61,125,9
3,59,112,10
3,64,125,95
3,64,112,64
3,64,125,148
3,61,125,28
3,64,125,116
3,66,125,139
3,64,112,26
3,62,100,81
3,61,112,77
3,62,112,126
3,57,100,114
3,62,100,17
3,64,125,186
3,66,125,190
3,66,125,300
3,64,125,49
3,62,112,76
3,61,125,45
3,61,112,90
3,64,125,36
3,61,125,212
3,59,125,51
3,59,125,288
3,64,125,43
3,56,100,61
3,57,112,54
3,61,112,184
3,61,112,131
3,64,127,18
3,69,127,11
3,69,127,92
3,69,127,73
3,69,127,83
3,69,127,62
3,68,114,33
3,71,127,0
3,68,127,71
3,68,127,115
3,69,127,9
3,71,127,72
3,69,127,192
3,68,127,176
3,66,127,30
3,66,127,49
3,64,127,0
3,61,127,153
3,61,127,124
3,64,127,192
3,69,125,2
3,69,114,93
3,69,114,82
3,69,127,70
3,69,127,53
3,68,127,65
3,71,127,85
3,69,127,288
3,68,127,28
3,66,127,120
3,69,127,108
3,62,127,35
3,64,127,56
3,61,127,619
3,61,127,137
3,64,127,15
3,69,127,4
3,69,127,92
3,69,127,58
3,69,127,70
3,69,127,88
3,68,125,13
3,71,127,34
3,68,127,384
3,68,127,122
3,69,127,11
3,71,127,42
3,71,127,48
3,69,127,46
3,68,127,20
3,66,127,34
3,64,127,576
3,64,127,72
3,61,127,376
3,64,127,75
3,69,127,60
3,69,127,85
3,66,114,160
3,66,127,102
3,69,127,32
3,69,127,87
3,68,127,384
3,66,127,42
3,68,127,54
3,69,127,57
3,64,125,1372
3,61,125,192
3,64,125,141
3,64,125,46
3,64,112,91
3,66,112,15
3,64,125,41
3,62,100,68
3,61,125,23
3,61,125,53
3,59,112,3
3,59,125,75
3,62,100,503
3,62,100,59
3,59,112,23
3,62,112,215
3,64,125,49
3,62,100,93
3,61,125,16
3,59,112,20
3,61,125,26
3,62,125,122
3,61,125,9
3,59,112,10
3,64,125,95
3,64,112,64
3,64,125,148
3,61,125,28
3,64,125,116
3,66,125,139
3,64,112,26
3,62,100,81
3,61,112,77
3,62,112,126
3,57,100,114
3,62,100,17
3,64,125,186
3,66,125,190
3,66,125,300
3,64,125,49
3,62,112,76
3,61,125,45
3,61,112,90
3,64,125,36
3,61,125,212
3,59,125,51
3,59,125,288
3,64,125,43
3,56,100,61
3,57,112,54
3,61,112,184
3,61,112,131
3,64,127,18
3,69,127,11
3,69,127,92
3,69,127,73
3,69,127,83
3,69,127,62
3,68,114,33
3,71,127,0
3,68,127,71
