track,note,velocity,time
1,61,127,0
1,61,127,68
1,61,127,128
1,66,127,56
1,66,127,176
1,66,127,104
1,63,127,24
1,61,127,24
1,61,127,176
1,61,127,140
1,65,127,116
1,65,127,216
1,65,127,116
1,63,127,20
1,61,127,12
1,61,127,124
1,61,127,72
1,61,127,116
1,65,127,8
1,65,127,152
1,65,127,112
1,63,127,24
1,61,127,16
1,65,127,380
1,65,127,132
1,65,127,44
1,65,127,104
1,63,127,20
1,61,127,12
1,66,127,12
1,66,127,240
1,66,127,124
1,63,127,16
1,61,127,8
1,61,127,752
1,61,127,104
1,66,127,8
1,66,127,196
1,66,127,84
1,63,127,0
1,61,127,24
1,61,127,176
1,61,127,56
1,61,127,104
1,65,127,12
1,65,127,216
1,65,127,120
1,63,127,20
1,61,127,8
1,61,127,176
1,61,127,68
1,61,127,112
1,71,127,40
1,71,127,72
1,71,127,124
1,71,127,56
1,71,127,88
1,70,127,20
1,70,127,60
1,71,127,28
1,70,127,28
1,68,127,56
1,66,127,12
1,66,127,316
1,66,127,48
1,66,127,104
1,66,127,40
1,66,127,88
1,66,127,52
1,66,127,100
1,66,127,68
1,66,127,80
1,66,127,52
1,66,127,88
1,75,127,28
1,75,127,80
1,75,127,48
1,75,127,84
1,75,127,64
1,71,127,12
1,66,127,888
1,66,127,60
1,66,127,116
1,66,127,52
1,66,127,92
1,66,127,52
1,66,127,84
1,75,127,32
1,75,127,72
1,75,127,60
1,75,127,64
1,75,127,120
1,73,127,8
1,71,127,28
1,73,127,24
1,70,127,80
1,70,127,1296
1,70,127,64
1,71,127,44
1,73,127,200
1,73,127,72
1,73,127,76
1,73,127,80
1,73,127,104
1,68,127,104
1,71,127,872
1,71,127,64
1,73,127,68
1,75,127,52
1,75,127,72
1,75,127,48
1,75,127,56
1,75,127,88
1,75,127,108
1,70,127,76
1,66,127,1012
1,66,127,64
1,66,127,104
1,66,127,56
1,66,127,92
1,66,127,48
1,66,127,104
1,66,127,64
1,66,127,112
1,66,127,76
1,66,127,84
1,75,127,8
1,75,127,92
1,75,127,48
1,75,127,92
1,75,127,52
1,71,127,144
1,66,127,1112
1,66,127,76
1,66,127,92
1,66,127,52
1,66,127,64
1,66,127,56
1,66,127,92
1,75,127,28
1,75,127,116
1,75,127,52
1,75,127,80
1,75,127,32
1,75,127,96
1,73,127,104
1,71,127,36
1,73,127,4
1,70,127,104
1,70,127,1444
1,70,127,52
1,71,127,24
1,73,127,20
1,73,127,96
1,73,127,116
1,73,127,60
1,73,127,112
1,73,127,100
1,68,127,120
1,61,127,1300
1,61,127,56
1,61,127,108
1,70,127,8
1,70,127,112
1,71,127,84
1,70,127,56
1,68,127,56
1,66,127,32
1,61,127,1648
1,61,127,72
1,66,127,32
1,66,127,92
1,66,127,72
1,66,127,64
1,63,127,24
1,61,127,8
1,61,127,624
1,61,127,92
1,65,127,24
1,65,127,92
1,65,127,44
1,65,127,104
1,63,127,20
1,61,127,24
1,61,127,260
1,61,127,52
1,61,127,104
1,65,127,20
1,65,127,112
1,65,127,144
1,63,127,24
1,61,127,8
1,61,127,76
1,65,127,136
1,65,127,88
1,65,127,72
1,65,127,144
1,63,127,52
1,61,127,4
1,66,127,396
1,66,127,152
1,66,127,64
1,66,127,96
1,63,127,40
1,61,127,20
1,61,127,976
1,61,127,60
1,66,127,8
1,66,127,112
1,66,127,32
1,66,127,64
1,63,127,12
1,61,127,8
1,61,127,568
1,61,127,36
1,61,127,124
1,65,127,120
1,65,127,72
1,65,127,52
1,65,127,84
1,63,127,20
1,61,127,8
1,61,127,180
1,61,127,48
1,61,127,120
1,71,127,32
1,71,127,72
1,71,127,132
1,71,127,64
1,71,127,76
1,70,127,40
1,70,127,144
1,71,127,84
1,70,127,12
1,68,127,12
1,66,127,20
1,66,127,932
1,66,127,72
1,66,127,92
1,66,127,64
1,66,127,92
1,66,127,60
1,66,127,92
1,66,127,64
1,66,127,84
1,66,127,52
1,66,127,108
1,75,127,16
1,75,127,92
1,75,127,60
1,75,127,92
1,75,127,44
1,71,127,52
1,66,127,1444
1,66,127,60
1,66,127,92
1,66,127,76
1,66,127,64
1,66,127,124
1,75,127,8
1,75,127,80
1,75,127,44
1,75,127,80
1,75,127,52
1,75,127,32
1,73,127,128
1,71,127,20
1,73,127,8
1,70,127,20
1,70,127,1472
1,70,127,60
1,71,127,32
1,73,127,8
1,73,127,100
1,73,127,92
1,73,127,64
1,73,127,116
1,73,127,128
1,68,127,20
1,71,127,744
1,71,127,84
1,73,127,72
1,75,127,96
1,75,127,92
1,75,127,124
1,75,127,64
1,75,127,96
1,75,127,96
1,70,127,48
1,66,127,240
1,66,127,40
1,66,127,104
1,66,127,44
1,66,127,84
1,66,127,72
1,66,127,108
1,66,127,44
1,66,127,80
1,66,127,64
1,66,127,52
1,75,127,24
1,75,127,88
1,75,127,52
1,75,127,104
1,75,127,52
1,71,127,88
1,66,127,1356
1,66,127,52
1,66,127,116
1,66,127,52
1,66,127,60
1,66,127,200
1,75,127,20
1,75,127,76
1,75,127,52
1,75,127,116
1,75,127,72
1,73,127,16
1,71,127,20
1,73,127,12
1,70,127,84
1,70,127,1704
1,70,127,64
1,71,127,24
1,73,127,20
1,73,127,124
1,73,127,176
1,73,127,96
1,73,127,140
1,73,127,136
1,68,127,52
1,61,127,1516
1,61,127,76
1,61,127,72
1,61,127,160
1,70,127,24
1,70,127,84
1,71,127,20
1,70,127,20
1,68,127,32
1,66,127,8
1,66,127,220
1,66,127,40
1,66,127,64
1,66,127,72
1,66,127,84
1,66,127,64
1,66,127,92
1,66,127,76
1,66,127,76
1,66,127,64
1,66,127,84
1,75,127,32
1,75,127,88
1,75,127,68
1,75,127,80
1,75,127,64
1,71,127,24
1,66,127,1220
1,66,127,72
1,66,127,92
1,66,127,76
1,66,127,60
1,66,127,212
1,75,127,24
1,75,127,64
1,75,127,124
1,75,127,52
1,75,127,92
1,73,127,128
1,71,127,20
1,73,127,16
1,70,127,124
1,70,127,1700
1,70,127,56
1,71,127,32
1,73,127,8
1,73,127,124
1,73,127,132
1,73,127,80
1,73,127,116
1,73,127,140
1,68,127,164
1,71,127,1316
1,71,127,48
1,73,127,32
1,75,127,20
1,75,127,80
1,75,127,84
1,75,127,52
1,75,127,72
1,75,127,84
1,70,127,156
1,66,127,128
1,66,127,52
1,66,127,128
1,66,127,56
1,66,127,112
1,66,127,52
1,66,127,92
1,66,127,280
1,66,127,44
1,66,127,108
1,75,127,24
1,75,127,80
1,75,127,40
1,75,127,96
1,75,127,44
1,71,127,76
1,66,127,1356
1,66,127,44
1,66,127,96
1,66,127,44
1,66,127,60
1,66,127,136
1,75,127,24
1,75,127,84
1,75,127,48
1,75,127,108
1,75,127,52
1,75,127,96
1,73,127,116
1,71,127,36
1,73,127,12
1,70,127,44
1,70,127,1612
1,70,127,76
1,71,127,44
1,73,127,12
1,73,127,124
1,73,127,116
1,73,127,128
1,73,127,132
1,68,127,156
1,61,127,1568
1,61,127,40
1,61,127,92
1,61,127,172
1,70,127,12
1,70,127,84
1,71,127,32
1,70,127,8
1,68,127,384
1,66,127,40
2,35,127,3076
2,35,127,208
2,30,127,128
2,32,127,372
2,30,127,16
2,35,127,132
2,35,127,216
2,30,127,128
2,30,127,80
2,32,127,132
2,30,127,4
2,37,127,20
2,37,127,172
2,32,127,132
2,34,127,60
2,32,127,40
2,37,127,32
2,37,127,192
2,32,127,132
2,32,127,120
2,37,127,8
2,37,127,68
2,42,127,20
2,42,127,180
2,37,127,132
2,37,127,80
2,39,127,24
2,37,127,384
2,37,127,144
2,35,127,12
2,35,127,112
2,34,127,12
2,34,127,124
2,32,127,132
2,32,127,104
2,42,127,20
2,42,127,184
2,37,127,8
2,39,127,68
2,37,127,12
2,42,127,40
2,42,127,204
2,37,127,12
2,37,127,92
2,42,127,132
2,42,127,84
2,37,127,20
2,37,127,172
2,46,127,4
2,44,127,0
2,37,127,36
2,37,127,204
2,46,127,132
2,46,127,92
2,44,127,132
2,44,127,92
2,37,127,0
2,37,127,216
2,46,127,12
2,44,127,384
2,37,127,32
2,37,127,184
2,46,127,0
2,44,127,384
2,42,127,20
2,42,127,236
2,37,127,12
2,37,127,112
2,39,127,8
2,37,127,4
2,37,127,164
2,35,127,132
2,35,127,124
2,34,127,132
2,34,127,176
2,32,127,132
2,32,127,100
2,42,127,132
2,42,127,148
2,37,127,0
2,39,127,76
2,37,127,12
2,42,127,32
2,42,127,160
2,37,127,132
2,37,127,76
2,42,127,132
2,42,127,68
2,37,127,132
2,37,127,212
2,32,127,20
2,34,127,68
2,32,127,8
2,37,127,32
2,37,127,192
2,32,127,12
2,32,127,116
2,34,127,132
2,32,127,36
2,37,127,20
2,37,127,176
2,46,127,4
2,44,127,32
2,37,127,24
2,37,127,184
2,46,127,0
2,46,127,112
2,44,127,12
2,42,127,116
2,39,127,48
2,37,127,384
2,34,127,12
2,30,127,36
2,30,127,1156
2,35,127,1016
2,35,127,244
2,30,127,128
2,32,127,380
2,30,127,16
2,35,127,8
2,35,127,180
2,30,127,8
2,30,127,92
2,32,127,132
2,30,127,4
2,35,127,8
2,35,127,204
2,30,127,128
2,32,127,28
2,30,127,12
2,35,127,12
2,35,127,212
2,30,127,8
2,30,127,132
2,32,127,132
2,35,127,24
2,42,127,24
2,42,127,160
2,37,127,128
2,39,127,20
2,37,127,20
2,42,127,28
2,42,127,172
2,37,127,128
2,37,127,80
2,39,127,4
2,37,127,28
2,42,127,16
2,42,127,128
2,37,127,128
2,39,127,384
2,37,127,4
2,42,127,28
2,42,127,160
2,37,127,16
2,37,127,60
2,42,127,128
2,42,127,80
2,37,127,8
2,37,127,192
2,32,127,8
2,34,127,16
2,32,127,20
2,37,127,4
2,37,127,180
2,32,127,16
2,32,127,112
2,34,127,128
2,32,127,16
2,37,127,8
2,37,127,4
2,37,127,632
2,32,127,128
2,34,127,40
2,32,127,8
2,37,127,16
2,37,127,172
2,32,127,4
2,32,127,116
2,34,127,128
2,37,127,16
2,42,127,128
2,42,127,192
2,37,127,128
2,37,127,108
2,39,127,128
2,37,127,40
2,30,127,128
2,30,127,136
2,30,127,232
2,30,127,48
2,30,127,128
2,30,127,240
2,30,127,60
2,30,127,136
2,30,127,252
2,30,127,60
2,30,127,132
2,30,127,60
2,30,127,112
2,35,127,52
2,35,127,172
2,30,127,20
2,30,127,104
2,32,127,128
2,30,127,4
2,35,127,12
2,35,127,216
2,30,127,128
2,30,127,124
2,32,127,128
2,30,127,40
2,35,127,128
2,35,127,204
2,30,127,0
2,30,127,148
2,32,127,128
2,30,127,16
2,35,127,8
2,35,127,216
2,30,127,20
2,30,127,136
2,32,127,128
2,35,127,40
2,42,127,36
2,42,127,152
2,37,127,128
2,37,127,144
2,39,127,16
2,37,127,20
2,42,127,28
2,42,127,224
2,37,127,128
2,37,127,104
2,39,127,16
2,37,127,28
2,42,127,28
2,42,127,180
2,37,127,20
2,37,127,84
2,39,127,16
2,37,127,32
2,42,127,28
2,42,127,204
2,37,127,8
2,37,127,144
2,42,127,8
2,37,127,8
2,32,127,12
2,32,127,204
2,27,127,128
2,27,127,112
2,27,127,172
2,32,127,16
2,32,127,140
2,32,127,28
2,30,127,72
2,35,127,28
2,35,127,220
2,30,127,16
2,30,127,124
2,32,127,12
2,30,127,4
2,37,127,4
2,37,127,224
2,32,127,128
2,32,127,136
2,37,127,4
2,42,127,28
2,42,127,204
2,37,127,128
2,37,127,112
2,39,127,8
2,37,127,8
2,37,127,144
2,35,127,8
2,35,127,124
2,34,127,128
2,34,127,132
2,32,127,8
2,32,127,80
2,42,127,16
2,42,127,184
2,37,127,128
2,39,127,20
2,37,127,20
2,42,127,20
2,42,127,204
2,37,127,16
2,37,127,116
2,39,127,8
2,37,127,20
2,37,127,212
2,46,127,128
2,44,127,380
2,37,127,12
2,37,127,196
2,46,127,128
2,46,127,100
2,44,127,128
2,37,127,24
2,37,127,192
2,46,127,128
2,44,127,0
2,37,127,32
2,37,127,184
2,46,127,128
2,46,127,92
2,44,127,8
2,42,127,28
2,42,127,224
2,37,127,8
2,37,127,112
2,39,127,128
2,37,127,8
2,37,127,132
2,35,127,128
2,35,127,112
2,34,127,128
2,34,127,136
2,32,127,8
2,32,127,100
2,42,127,4
2,42,127,136
2,37,127,8
2,39,127,12
2,37,127,8
2,42,127,4
2,42,127,204
2,37,127,8
2,37,127,116
2,39,127,128
2,42,127,28
2,37,127,128
2,37,127,192
2,32,127,8
2,32,127,92
2,34,127,8
2,32,127,40
2,37,127,8
2,37,127,164
2,32,127,128
2,32,127,124
2,34,127,8
2,37,127,0
2,37,127,188
2,46,127,128
2,44,127,0
2,37,127,8
2,37,127,216
2,46,127,128
2,46,127,72
2,44,127,8
2,42,127,104
2,39,127,152
2,37,127,140
2,34,127,8
2,30,127,4
2,30,127,1228
2,35,127,1120
2,35,127,224
2,30,127,16
2,30,127,72
2,32,127,128
2,30,127,16
2,35,127,128
2,35,127,200
2,30,127,128
2,32,127,372
2,30,127,232
2,35,127,124
2,35,127,192
2,30,127,20
2,32,127,384
2,30,127,228
2,35,127,116
2,35,127,200
2,30,127,20
2,30,127,92
2,32,127,128
2,35,127,28
2,42,127,44
2,42,127,152
2,37,127,128
2,39,127,12
2,37,127,20
2,42,127,28
2,42,127,184
2,37,127,128
2,37,127,80
2,39,127,128
2,37,127,8
2,42,127,16
2,42,127,192
2,37,127,128
2,39,127,0
2,37,127,0
2,42,127,28
2,42,127,160
2,37,127,128
2,37,127,60
2,42,127,128
2,37,127,364
2,37,127,200
2,32,127,8
2,34,127,0
2,32,127,28
2,37,127,128
2,37,127,212
2,32,127,8
2,32,127,104
2,34,127,128
2,32,127,16
2,37,127,128
2,37,127,192
2,32,127,4
2,34,127,4
2,32,127,28
2,37,127,16
2,37,127,140
2,32,127,28
2,32,127,116
2,34,127,8
2,37,127,4
2,42,127,128
2,42,127,156
2,37,127,128
2,39,127,372
2,37,127,244
2,42,127,120
2,30,127,16
2,30,127,248
2,30,127,60
2,30,127,104
2,30,127,240
2,30,127,48
2,30,127,104
2,30,127,52
2,30,127,104
2,30,127,40
2,30,127,124
2,30,127,36
2,30,127,112
2,35,127,8
2,35,127,192
2,30,127,16
2,32,127,0
2,30,127,16
2,35,127,28
2,35,127,212
2,30,127,8
2,32,127,384
2,30,127,8
2,35,127,8
2,35,127,200
2,30,127,4
2,32,127,384
2,30,127,0
2,35,127,4
2,35,127,204
2,30,127,128
2,30,127,104
2,32,127,128
2,35,127,232
2,42,127,32
2,42,127,160
2,37,127,128
2,39,127,0
2,37,127,8
2,42,127,28
2,42,127,152
2,37,127,128
2,37,127,124
2,39,127,128
2,37,127,8
2,42,127,12
2,42,127,184
2,37,127,128
2,39,127,24
2,37,127,0
2,42,127,4
2,42,127,200
2,37,127,0
2,37,127,100
2,42,127,128
2,37,127,252
2,32,127,0
2,32,127,196
2,27,127,8
2,27,127,80
2,30,127,128
2,27,127,8
2,32,127,16
2,32,127,216
2,27,127,128
2,34,127,20
2,35,127,28
2,35,127,200
2,30,127,128
2,30,127,92
2,35,127,4
2,37,127,96
2,37,127,212
2,32,127,128
2,32,127,80
2,34,127,128
2,37,127,28
2,42,127,128
2,42,127,200
2,37,127,128
2,37,127,136
2,37,127,156
2,30,127,8
2,30,127,76
2,30,127,252
2,30,127,28
2,30,127,92
2,30,127,232
2,30,127,16
2,30,127,104
2,30,127,36
2,30,127,88
2,30,127,28
2,30,127,104
2,42,127,128
2,30,127,4
2,42,127,8
2,35,127,128
2,35,127,288
2,30,127,128
2,32,127,360
2,30,127,4
2,35,127,128
2,35,127,200
2,30,127,8
2,30,127,68
2,32,127,128
2,30,127,220
2,35,127,12
2,35,127,204
2,30,127,128
2,32,127,380
2,30,127,244
2,35,127,4
2,35,127,212
2,30,127,8
2,30,127,80
2,32,127,128
2,35,127,220
2,42,127,12
2,42,127,160
2,37,127,128
2,39,127,8
2,37,127,8
2,42,127,36
2,42,127,200
