track,note,velocity,time
0,64,95,672
0,68,102,0
0,71,95,0
0,70,85,2
0,63,89,4
0,66,95,0
0,69,83,0
0,35,91,0
0,54,78,0
0,57,71,0
0,59,89,0
0,63,81,0
0,42,73,0
0,35,127,0
0,69,54,0
0,69,54,0
0,35,99,0
0,42,73,0
0,65,106,0
0,69,54,0
0,42,73,0
0,65,111,0
0,69,54,0
0,39,88,0
0,35,126,0
0,40,126,0
0,42,73,0
0,66,124,0
0,69,54,0
0,69,54,0
0,42,90,0
0,54,80,0
0,57,80,0
0,59,85,0
0,63,81,0
0,42,73,0
0,65,119,0
0,69,54,0
0,69,54,0
0,35,93,0
0,35,127,0
0,42,73,0
0,69,54,0
0,69,54,0
0,35,94,0
0,42,73,0
0,69,54,0
0,69,54,0
0,39,93,0
0,54,71,0
0,57,82,0
0,59,78,0
0,63,88,0
0,35,127,0
0,40,126,0
0,42,73,0
0,69,54,0
0,69,54,0
0,42,86,0
0,42,73,0
0,69,54,0
0,69,54,0
0,35,98,0
0,54,83,0
0,57,80,0
0,59,88,0
0,63,88,0
0,35,127,0
0,42,73,0
0,69,54,0
0,69,54,0
0,35,93,0
0,42,73,0
0,69,54,0
0,42,73,0
0,69,54,0
0,39,87,0
0,35,127,0
0,40,124,0
0,42,73,0
0,69,54,0
0,69,54,0
0,42,82,0
0,54,77,0
0,57,80,0
0,59,90,0
0,63,81,0
0,42,73,0
0,69,54,0
0,69,54,0
0,66,81,0
0,69,87,0
0,73,84,0
0,35,93,0
0,35,127,0
0,42,73,0
0,69,54,0
0,69,54,0
0,35,91,0
0,42,73,0
0,69,54,0
0,69,54,0
0,39,91,0
0,54,82,0
0,57,86,0
0,59,82,0
0,63,84,0
0,35,127,0
0,40,126,0
0,42,73,0
0,69,54,0
0,69,54,0
0,72,83,0
0,42,91,0
0,42,73,0
0,69,54,0
0,69,54,0
0,64,80,0
0,68,96,0
0,71,96,0
0,28,95,0
0,56,76,0
0,59,81,0
0,64,81,0
0,35,126,0
0,42,73,0
0,69,54,0
0,69,54,0
0,28,100,0
0,42,73,0
0,65,115,0
0,69,54,0
0,42,73,0
0,65,118,0
0,69,54,0
0,32,98,0
0,35,127,0
0,40,122,0
0,42,73,0
0,66,124,0
0,69,54,0
0,69,54,0
0,35,91,0
0,56,84,0
0,59,88,0
0,64,85,0
0,42,73,0
0,65,114,0
0,69,54,0
0,69,54,0
0,28,99,0
0,35,124,0
0,42,73,0
0,69,54,0
0,69,54,0
0,28,99,0
0,42,73,0
0,69,54,0
0,69,54,0
0,32,93,0
0,56,73,0
0,59,77,0
0,64,80,0
0,35,127,0
0,40,127,0
0,42,73,0
0,69,54,0
0,69,54,0
0,35,86,0
0,42,73,0
0,69,54,0
0,69,54,0
0,28,99,0
0,56,86,0
0,59,76,0
0,64,81,0
0,35,127,0
0,42,73,0
0,69,54,0
0,69,54,0
0,28,91,0
0,42,73,0
0,69,54,0
0,42,73,0
0,69,54,0
0,32,86,0
0,35,127,0
0,40,124,0
0,42,73,0
0,69,54,0
0,69,54,0
0,35,86,0
0,56,83,0
0,59,92,0
0,64,86,0
0,42,73,0
0,69,54,0
0,69,54,0
0,64,89,0
0,68,98,0
0,71,95,0
0,28,93,0
0,35,127,0
0,42,73,0
0,69,54,0
0,69,54,0
0,28,91,0
0,42,73,0
0,69,54,0
0,69,54,0
0,32,84,0
0,56,84,0
0,59,90,0
0,64,81,0
0,35,127,0
0,40,126,0
0,42,73,0
0,69,54,0
0,69,54,0
0,70,91,0
0,35,79,0
0,42,73,0
0,69,54,0
0,69,54,0
0,63,89,0
0,66,83,0
0,69,84,0
0,35,96,0
0,54,83,0
0,57,77,0
0,59,82,0
0,63,81,0
0,35,127,0
0,42,73,0
0,69,54,0
0,69,54,0
0,35,90,0
0,42,73,0
0,65,102,0
0,69,54,0
0,42,73,0
0,65,111,0
0,69,54,0
0,39,88,0
0,35,127,0
0,40,124,0
0,42,73,0
0,66,124,0
0,69,54,0
0,69,54,0
0,42,80,0
0,54,74,0
0,57,76,0
0,59,81,0
0,63,73,0
0,42,73,0
0,65,120,0
0,69,54,0
0,69,54,0
0,35,91,0
0,35,127,0
0,42,73,0
0,69,54,0
0,69,54,0
0,35,93,0
0,42,73,0
0,69,54,0
0,69,54,0
0,39,86,0
0,54,76,0
0,57,78,0
0,59,76,0
0,63,74,0
0,35,127,0
0,40,127,0
0,42,73,0
0,69,54,0
0,69,54,0
0,42,83,0
0,42,73,0
0,69,54,0
0,69,54,0
0,63,85,0
0,66,100,0
0,71,91,0
0,35,93,0
0,54,81,0
0,57,73,0
0,59,70,0
0,63,80,0
0,35,127,0
0,42,73,0
0,69,54,0
0,69,54,0
0,35,87,0
0,42,73,0
0,69,54,0
0,42,73,0
0,69,54,0
0,69,76,0
0,39,88,0
0,35,124,0
0,40,126,0
0,42,73,0
0,69,54,0
0,69,54,0
0,42,82,0
0,54,75,0
0,57,74,0
0,59,80,0
0,63,80,0
0,42,73,0
0,69,54,0
0,69,54,0
0,52,100,0
0,54,104,0
0,57,89,0
0,61,83,0
0,35,88,0
0,35,127,0
0,42,73,0
0,69,54,0
0,69,54,0
0,35,90,0
0,42,73,0
0,69,54,0
0,69,54,0
0,54,93,0
0,57,76,0
0,59,75,0
0,63,81,0
0,39,87,0
0,54,78,0
0,57,74,0
0,59,78,0
0,63,78,0
0,35,127,0
0,40,126,0
0,42,73,0
0,69,54,0
0,69,54,0
0,42,86,0
0,42,73,0
0,69,54,0
0,69,54,0
0,56,104,0
0,59,85,0
0,64,96,0
0,28,95,0
0,56,78,0
0,59,85,0
0,64,78,0
0,35,127,0
0,42,73,0
0,69,54,0
0,69,54,0
0,28,87,0
0,42,73,0
0,69,54,0
0,42,73,0
0,69,54,0
0,32,88,0
0,35,127,0
0,40,127,0
0,42,73,0
0,69,54,0
0,69,54,0
0,35,80,0
0,56,86,0
0,59,94,0
0,64,84,0
0,42,73,0
0,69,54,0
0,69,54,0
0,28,95,0
0,35,127,0
0,42,73,0
0,69,54,0
0,69,54,0
0,28,92,0
0,71,95,0
0,42,73,0
0,69,54,0
0,69,54,0
0,32,86,0
0,76,80,0
0,56,81,0
0,59,74,0
0,64,81,0
0,35,127,0
0,40,122,0
0,42,73,0
0,69,54,0
0,69,54,0
0,35,74,0
0,42,73,0
0,69,54,0
0,69,54,0
0,28,98,0
0,71,77,0
0,56,92,0
0,59,77,0
0,64,84,0
0,35,127,0
0,42,73,0
0,69,54,0
0,69,54,0
0,28,93,0
0,42,73,0
0,69,54,0
0,93,116,0
0,42,73,0
0,69,54,0
0,32,87,0
0,68,74,0
0,35,127,0
0,40,127,0
0,42,73,0
0,69,54,0
0,93,123,0
0,69,54,0
0,35,79,0
0,56,89,0
0,59,100,0
0,64,84,0
0,42,73,0
0,69,54,0
0,69,54,0
0,93,105,0
0,28,95,0
0,64,72,0
0,35,127,0
0,42,73,0
0,69,54,0
0,91,123,0
0,69,54,0
0,28,98,0
0,42,73,0
0,69,54,0
0,91,127,0
0,69,54,0
0,32,83,0
0,59,83,0
0,56,96,0
0,59,85,0
0,64,85,0
0,35,127,0
0,40,127,0
0,42,73,0
0,69,54,0
0,91,125,0
0,69,54,0
0,35,91,0
0,42,73,0
0,69,54,0
0,91,120,0
0,69,54,0
0,91,114,0
0,28,95,0
0,68,114,0
0,56,103,0
0,59,89,0
0,64,88,0
0,69,54,0
0,35,127,0
0,42,73,0
0,55,127,0
0,89,127,0
0,28,98,4
0,67,110,0
0,42,73,0
0,32,92,10
0,68,110,0
0,35,127,0
0,40,127,0
0,42,73,0
0,35,91,2
0,56,89,0
0,59,116,0
0,64,88,0
0,42,73,0
0,42,73,0
0,64,113,0
0,35,127,0
0,42,73,0
0,28,98,96
0,42,73,0
0,32,94,18
0,68,117,0
0,56,94,0
0,59,116,0
0,64,85,0
0,35,127,0
0,40,127,0
0,42,73,0
0,35,85,14
0,56,69,0
0,59,82,0
0,64,76,0
0,42,73,0
0,56,60,0
0,59,78,0
0,64,60,0
0,28,96,0
0,67,115,0
0,56,64,0
0,59,86,0
0,64,65,0
0,35,127,0
0,42,73,0
0,28,92,96
0,42,73,0
0,32,91,12
0,68,107,0
0,35,124,0
0,40,124,0
0,42,73,0
0,35,93,2
0,64,102,0
0,56,56,0
0,59,89,0
0,64,77,0
0,42,73,0
0,42,73,0
0,35,127,0
0,42,73,0
0,28,100,96
0,42,73,0
0,32,90,26
0,64,113,0
0,56,88,0
0,59,88,0
0,64,77,0
0,35,124,0
0,40,124,0
0,42,73,0
0,35,85,4
0,66,118,0
0,56,74,0
0,59,85,0
0,64,66,0
0,42,73,0
0,56,80,0
0,59,86,0
0,64,64,0
0,28,92,2
0,68,110,0
0,56,76,0
0,59,100,0
0,64,77,0
0,35,124,0
0,42,73,0
0,28,93,96
0,42,73,0
0,32,88,8
0,68,108,0
0,35,124,0
0,40,124,0
0,42,73,0
0,35,87,96
0,56,81,0
0,59,88,0
0,64,88,0
0,42,73,0
0,42,73,0
0,71,107,0
0,35,127,0
0,42,73,0
0,28,100,96
0,42,73,0
0,32,92,18
0,70,113,0
0,56,74,0
0,59,88,0
0,64,83,0
0,35,124,0
0,40,120,0
0,42,73,0
0,35,87,2
0,69,110,0
0,56,81,0
0,59,85,0
0,64,73,0
0,42,73,0
0,56,72,0
0,59,94,0
0,64,76,0
0,35,86,24
0,54,77,0
0,57,84,0
0,59,89,0
0,63,75,0
0,35,120,0
0,42,73,0
0,35,96,28
0,42,73,0
0,39,90,96
0,35,124,0
0,40,116,0
0,42,73,0
0,42,94,96
0,54,83,0
0,57,82,0
0,59,82,0
0,63,83,0
0,42,73,0
0,42,73,0
0,35,127,0
0,42,73,0
0,35,96,96
0,42,73,0
0,39,95,96
0,54,78,0
0,57,85,0
0,59,82,0
0,63,80,0
0,35,127,0
0,40,115,0
0,42,73,0
0,42,86,96
0,54,77,0
0,57,82,0
0,59,78,0
0,63,70,0
0,46,73,0
0,54,64,0
0,57,76,0
0,59,80,0
0,63,55,0
0,35,99,8
0,66,118,0
0,54,46,0
0,57,74,0
0,59,61,0
0,63,75,0
0,35,126,0
0,42,73,0
0,35,91,2
0,65,110,0
0,42,73,0
0,39,95,0
0,66,112,0
0,35,124,0
0,40,116,0
0,42,73,0
0,42,90,96
0,54,71,0
0,57,94,0
0,59,89,0
0,63,86,0
0,42,73,0
0,42,73,0
0,63,109,0
0,35,126,0
0,42,73,0
0,35,98,96
0,42,73,0
0,39,95,60
0,66,113,0
0,54,80,0
0,57,81,0
0,59,82,0
0,63,78,0
0,35,126,0
0,40,118,0
0,42,73,0
0,42,91,0
0,54,73,0
0,57,78,0
0,59,71,0
0,63,78,0
0,42,73,0
0,54,58,0
0,57,84,0
0,59,72,0
0,63,63,0
0,35,98,8
0,65,113,0
0,54,58,0
0,57,78,0
0,59,70,0
0,63,78,0
0,35,124,0
0,42,73,0
0,35,95,96
0,42,73,0
0,39,94,14
0,66,111,0
0,35,124,0
0,40,120,0
0,42,73,0
0,42,91,0
0,63,112,0
0,54,70,0
0,57,82,0
0,59,76,0
0,63,89,0
0,42,73,0
0,42,73,0
0,35,124,0
0,42,73,0
0,35,96,96
0,42,73,0
0,39,91,96
0,63,110,0
0,54,78,0
0,57,84,0
0,59,84,0
0,63,77,0
0,35,126,0
0,40,124,0
0,42,73,0
0,42,85,6
0,64,108,0
0,54,77,0
0,57,74,0
0,59,77,0
0,63,69,0
0,42,73,0
0,54,53,0
0,57,67,0
0,59,80,0
0,63,35,0
0,35,98,2
0,66,107,0
0,54,60,0
0,57,82,0
0,59,72,0
0,63,63,0
0,35,124,0
0,42,73,0
0,35,90,96
0,42,73,0
0,39,87,4
0,66,108,0
0,35,127,0
0,40,115,0
0,42,73,0
0,42,86,4
0,54,74,0
0,57,71,0
0,59,86,0
0,63,85,0
0,42,73,0
0,42,73,0
0,69,109,0
0,35,127,0
0,42,73,0
0,35,98,96
0,42,73,0
0,39,92,14
0,69,112,0
0,54,74,0
0,57,88,0
0,59,78,0
0,63,81,0
0,35,124,0
0,40,116,0
0,42,73,0
0,42,83,8
0,68,109,0
0,54,77,0
0,57,65,0
0,59,78,0
0,63,62,0
0,42,73,0
0,54,66,0
0,57,78,0
0,59,78,0
0,63,66,0
0,28,90,28
0,56,100,0
0,59,92,0
0,64,88,0
0,35,127,0
0,42,73,0
0,28,88,92
0,42,73,0
0,32,91,2
0,64,94,0
0,35,127,0
0,40,124,0
0,42,73,0
0,35,87,0
0,56,84,0
0,59,92,0
0,64,89,0
0,42,73,0
0,42,73,0
0,68,86,0
0,35,127,0
0,42,73,0
0,28,98,96
0,40,127,0
0,42,73,0
0,32,95,12
0,56,81,0
0,59,92,0
0,64,85,0
0,71,90,0
0,35,126,0
0,40,121,0
0,42,73,0
0,35,87,6
0,56,75,0
0,59,80,0
0,64,73,0
0,42,73,0
0,91,121,0
0,56,76,0
0,59,81,0
0,64,67,0
0,28,104,14
0,68,118,0
0,56,84,0
0,59,84,0
0,64,84,0
0,56,80,0
0,59,90,0
0,64,77,0
0,76,82,0
0,35,124,0
0,55,116,0
0,89,112,0
0,28,91,4
0,67,109,0
0,42,73,0
0,32,91,4
0,68,106,0
0,35,126,0
0,40,127,0
0,42,73,0
0,35,98,8
0,56,83,0
0,59,100,0
0,64,81,0
0,42,73,0
0,42,73,0
0,64,109,0
0,35,127,0
0,42,73,0
0,28,102,96
0,42,73,0
0,32,96,16
0,68,112,0
0,56,82,0
0,59,101,0
0,64,80,0
0,35,127,0
0,40,124,0
0,42,73,0
0,35,88,12
0,56,76,0
0,59,88,0
0,64,72,0
0,42,73,0
0,56,70,0
0,59,85,0
0,64,67,0
0,28,99,14
0,67,113,0
0,56,70,0
0,59,90,0
0,64,74,0
0,35,126,0
0,42,73,0
0,28,96,96
0,42,73,0
0,32,93,6
0,68,104,0
0,35,127,0
0,40,122,0
0,42,73,0
0,35,91,2
0,64,107,0
0,56,84,0
0,59,94,0
0,64,85,0
0,42,73,0
0,42,73,0
0,35,127,0
0,42,73,0
0,28,95,44
0,42,73,0
0,32,90,46
0,64,113,0
0,56,82,0
0,59,100,0
0,64,77,0
0,35,127,0
0,40,127,0
0,42,73,0
0,35,85,2
0,66,104,0
0,56,78,0
0,59,81,0
0,64,61,0
0,42,73,0
0,56,72,0
0,59,76,0
0,64,69,0
0,28,93,2
0,68,107,0
0,56,69,0
0,59,80,0
0,64,84,0
0,35,124,0
0,42,73,0
0,28,98,96
0,42,73,0
0,32,92,26
0,68,104,0
0,35,127,0
0,40,124,0
0,42,73,0
0,35,87,96
0,56,86,0
0,59,88,0
0,64,69,0
0,42,73,0
0,42,73,0
0,69,104,0
0,35,124,0
0,42,73,0
0,28,96,96
0,42,73,0
0,32,86,26
0,71,113,0
0,56,84,0
0,59,90,0
0,64,72,0
0,35,127,0
0,40,124,0
0,42,73,0
0,35,84,6
0,73,104,0
0,56,81,0
0,59,86,0
0,64,69,0
0,42,73,0
0,56,70,0
0,59,86,0
0,64,69,0
0,33,96,20
0,57,84,0
0,61,84,0
0,64,84,0
0,57,84,0
0,61,96,0
0,64,88,0
0,35,124,0
0,42,73,0
0,33,86,24
0,42,73,0
0,37,87,32
0,64,86,0
0,35,126,0
0,40,124,0
0,42,73,0
0,40,86,2
0,57,89,0
0,61,83,0
0,64,98,0
0,42,73,0
0,42,73,0
0,69,90,0
0,35,124,0
0,42,73,0
0,33,91,96
0,42,73,0
0,37,102,18
0,57,81,0
0,61,77,0
0,64,82,0
0,73,88,0
0,35,127,0
0,40,124,0
0,42,73,0
0,40,86,0
0,57,62,0
0,61,86,0
0,64,61,0
0,46,73,0
0,57,67,0
0,61,85,0
0,64,61,0
0,33,90,0
0,76,116,0
0,57,90,0
0,61,105,0
0,64,81,0
0,76,89,0
0,35,127,0
0,42,73,0
0,33,91,88
0,42,73,0
0,37,91,20
0,76,116,0
0,35,127,0
0,40,116,0
