track,note,velocity,time
0,60,11,43
0,64,28,0
0,67,11,0
0,79,21,0
0,91,50,0
0,64,62,24
0,60,39,0
0,64,59,0
0,88,44,0
0,72,63,6
0,72,48,0
0,96,59,0
0,71,49,2
0,71,60,0
0,95,40,0
0,72,58,6
0,72,54,0
0,96,69,0
0,67,51,10
0,67,36,0
0,91,53,0
0,72,55,192
0,72,63,0
0,96,59,0
0,71,56,2
0,71,45,0
0,95,50,0
0,72,68,14
0,72,60,0
0,96,73,0
0,57,46,138
0,60,28,0
0,64,50,0
0,64,71,6
0,57,37,0
0,64,63,0
0,88,39,0
0,72,57,10
0,96,58,0
0,72,64,2
0,71,48,10
0,95,58,0
0,71,29,6
0,72,80,18
0,96,69,0
0,72,35,2
0,54,41,46
0,60,49,3
0,54,22,12
0,57,57,0
0,60,63,0
0,64,39,0
0,81,50,0
0,93,52,0
0,76,81,14
0,93,43,0
0,64,33,9
0,69,46,3
0,76,86,26
0,50,28,0
0,53,27,0
0,57,44,0
0,60,19,0
0,76,57,0
0,76,62,0
0,100,75,0
0,50,24,29
0,53,25,0
0,57,49,0
0,60,23,0
0,72,47,0
0,84,30,0
0,74,63,10
0,74,41,0
0,74,62,0
0,98,80,0
0,74,66,34
0,74,61,0
0,74,61,0
0,98,72,0
0,72,87,2
0,72,47,0
0,72,66,0
0,96,88,0
0,72,78,38
0,72,54,0
0,72,66,0
0,96,90,0
0,43,17,30
0,55,17,0
0,60,55,0
0,67,34,0
0,76,69,6
0,43,23,0
0,50,54,0
0,53,48,0
0,76,53,0
0,76,57,0
0,100,65,0
0,74,24,22
0,74,50,0
0,74,58,0
0,98,59,0
0,74,64,50
0,74,67,0
0,74,68,0
0,98,72,0
0,48,94,88
0,72,65,14
0,72,68,0
0,72,64,0
0,96,58,0
0,72,59,34
0,72,64,0
0,72,59,0
0,96,80,0
0,71,68,2
0,71,63,0
0,71,56,0
0,95,65,0
0,36,25,38
0,43,52,0
0,48,17,0
0,52,39,0
0,55,59,0
0,60,41,0
0,72,73,2
0,48,57,0
0,72,71,0
0,72,89,0
0,96,80,0
0,64,37,55
0,55,43,62
0,64,15,158
0,60,27,146
0,55,98,12
0,65,115,13
0,72,74,0
0,64,103,4
0,74,53,6
0,76,48,2
0,77,72,8
0,64,97,6
0,79,45,2
0,81,15,2
0,83,44,6
0,84,40,2
0,86,59,24
0,88,40,2
0,64,88,3
0,36,78,4
0,48,73,0
0,60,94,0
0,64,64,0
0,89,32,2
0,91,39,31
0,55,66,18
0,60,75,38
0,64,56,0
0,55,67,10
0,60,58,98
0,64,50,0
0,65,106,21
0,55,56,12
0,60,58,42
0,64,62,0
0,65,113,16
0,55,45,130
0,67,107,62
0,60,54,56
0,64,49,0
0,64,91,0
0,55,49,134
0,60,45,31
0,64,53,0
0,55,36,134
0,60,49,138
0,64,63,0
0,64,105,31
0,55,39,1
0,60,36,42
0,64,58,0
0,64,100,6
0,62,99,18
0,43,75,3
0,59,63,0
0,62,44,0
0,62,97,13
0,55,43,22
0,59,61,27
0,62,32,0
0,55,40,26
0,59,69,22
0,62,40,0
0,64,110,31
0,55,34,1
0,64,97,36
0,59,59,18
0,62,44,0
0,55,45,10
0,62,65,6
0,62,101,0
0,59,69,14
0,62,45,0
0,55,64,14
0,59,66,14
0,62,34,0
0,55,58,26
0,59,59,10
0,62,28,0
0,65,109,10
0,55,35,12
0,59,53,14
0,62,21,0
0,65,120,42
0,55,36,26
0,64,107,24
0,64,100,28
0,48,57,23
0,60,73,0
0,64,57,0
0,55,41,22
0,60,55,26
0,64,61,0
0,55,50,14
0,60,59,26
0,64,60,0
0,67,116,4
0,55,43,10
0,40,71,58
0,60,55,0
0,67,49,0
0,67,113,67
0,55,74,104
0,69,102,42
0,65,103,0
0,41,59,2
0,60,74,0
0,65,49,0
0,57,45,30
0,60,58,50
0,65,25,0
0,57,42,62
0,60,62,130
0,65,36,0
0,57,48,33
0,64,115,4
0,64,114,88
0,60,66,6
0,65,37,0
0,60,84,2
0,57,57,33
0,62,111,20
0,43,61,3
0,59,67,0
0,62,27,0
0,62,103,12
0,55,55,18
0,59,38,143
0,62,37,0
0,55,31,14
0,59,56,30
0,62,39,0
0,55,41,14
0,64,100,2
0,64,111,16
0,59,41,6
0,62,25,0
0,55,32,10
0,65,101,2
0,62,101,24
0,59,51,6
0,62,37,0
0,55,36,18
0,59,61,19
0,62,47,0
0,55,37,22
0,59,49,94
0,62,40,0
0,55,38,29
0,42,103,0
0,65,112,0
0,35,66,40
0,65,115,4
0,47,56,0
0,59,40,0
0,62,69,0
0,46,121,0
0,64,121,24
0,55,58,4
0,36,18,2
0,43,24,0
0,48,16,0
0,52,15,0
0,55,36,0
0,60,51,0
0,36,105,2
0,64,112,2
0,48,72,2
0,60,62,0
0,64,73,0
0,36,123,0
0,42,116,0
0,62,66,41
0,60,82,4
0,55,49,26
0,42,116,0
0,60,54,80
0,64,56,0
0,42,117,0
0,36,116,54
0,55,61,4
0,36,119,0
0,42,115,0
0,36,117,106
0,60,76,4
0,64,59,0
0,36,120,0
0,42,118,0
0,65,116,14
0,55,47,13
0,42,122,0
0,60,74,30
0,64,59,0
0,37,116,0
0,42,125,0
0,54,119,0
0,65,112,48
0,55,55,18
0,67,108,26
0,64,101,34
0,36,112,12
0,60,75,4
0,64,61,0
0,36,122,0
0,42,124,0
0,55,55,122
0,42,122,0
0,60,63,118
0,64,57,0
0,42,119,0
0,36,100,86
0,55,49,4
0,36,114,0
0,42,118,0
0,36,120,102
0,60,77,4
0,64,75,0
0,36,125,0
0,42,122,0
0,64,123,37
0,55,49,8
0,42,119,0
0,60,66,20
0,64,66,0
0,37,119,0
0,42,121,0
0,54,122,0
0,64,109,26
0,55,67,20
0,62,95,22
0,62,104,14
0,43,41,4
0,55,39,0
0,59,56,0
0,62,42,0
0,43,107,7
0,43,68,4
0,59,74,0
0,62,68,0
0,36,113,0
0,42,117,0
0,55,54,18
0,42,117,0
0,59,51,126
0,62,69,0
0,42,117,0
0,43,87,94
0,55,63,4
0,36,115,0
0,42,114,0
0,43,82,110
0,59,72,4
0,62,69,0
0,36,119,0
0,42,120,0
0,55,56,5
0,42,122,0
0,64,112,19
0,59,76,129
0,62,46,0
0,37,116,0
0,42,120,0
0,54,118,0
0,64,118,14
0,55,59,22
0,62,88,24
0,62,106,18
0,43,86,12
0,59,76,4
0,62,62,0
0,36,125,0
0,42,120,0
0,55,58,130
0,42,123,0
0,59,77,146
0,62,65,0
0,42,119,0
0,43,103,90
0,55,49,4
0,36,121,0
0,42,113,0
0,43,98,94
0,59,67,4
0,62,63,0
0,36,123,0
0,42,123,0
0,65,109,27
0,55,56,27
0,42,116,0
0,65,29,27
0,59,62,23
0,62,53,0
0,37,117,0
0,42,120,0
0,54,112,0
0,65,111,36
0,55,97,60
0,64,106,24
0,36,15,2
0,48,16,0
0,55,21,0
0,60,54,0
0,64,39,0
0,36,89,6
0,48,57,3
0,60,56,0
0,64,58,0
0,36,121,0
0,42,118,0
0,64,114,10
0,62,73,39
0,60,75,6
0,55,52,4
0,42,117,0
0,60,52,122
0,64,66,0
0,42,116,0
0,36,99,26
0,55,54,4
0,36,120,0
0,42,116,0
0,36,104,3
0,60,81,4
0,64,72,0
0,36,120,0
0,42,116,0
0,67,117,23
0,55,54,22
0,42,126,0
0,40,26,14
0,52,49,0
0,55,28,0
0,60,58,0
0,67,34,0
0,40,109,3
0,40,71,4
0,60,68,0
0,67,79,0
0,37,122,0
0,42,120,0
0,54,121,0
0,67,110,28
0,55,69,20
0,69,95,6
0,65,101,22
0,41,26,2
0,53,25,0
0,57,33,0
0,60,51,0
0,65,47,0
0,41,104,11
0,41,63,4
0,60,56,0
0,65,46,0
0,36,115,0
0,42,117,0
0,57,74,3
0,42,122,0
0,60,61,9
0,65,33,0
0,42,123,0
0,41,103,22
0,57,52,4
0,36,115,0
0,42,118,0
0,69,29,70
0,81,51,0
0,41,83,20
0,60,75,4
0,65,59,0
0,36,117,0
0,42,122,0
0,64,115,90
0,57,43,18
0,42,115,0
0,60,51,54
0,65,55,0
0,37,118,0
0,42,120,0
0,54,112,0
0,64,113,4
0,40,71,10
0,57,72,4
0,62,114,18
0,41,111,18
0,43,46,11
0,55,33,0
0,62,32,0
0,67,49,0
0,71,41,0
0,79,53,0
0,43,97,2
0,43,57,4
0,59,80,0
0,62,49,0
0,36,112,0
0,42,120,0
0,62,116,2
0,55,70,10
0,42,123,0
0,59,74,66
0,62,46,0
0,42,119,0
0,43,106,2
0,55,86,4
0,36,82,0
0,42,121,0
0,38,39,14
0,38,45,10
0,38,71,26
0,38,77,10
0,60,39,2
0,65,58,0
0,69,46,0
0,43,107,3
0,60,116,0
0,53,76,4
0,57,72,0
0,60,80,0
0,36,107,0
0,45,90,0
0,36,86,19
0,45,85,0
0,62,43,19
0,67,52,0
0,71,53,0
0,62,118,2
0,43,81,18
0,59,67,4
0,62,45,0
0,36,35,0
0,45,103,0
0,35,61,22
0,55,56,4
0,41,123,0
0,69,26,0
0,71,50,6
0,72,53,6
0,74,66,2
0,76,71,2
0,77,49,0
0,79,69,2
0,81,57,6
0,48,41,9
0,60,20,0
0,64,31,0
0,67,49,0
0,72,61,0
0,83,71,2
0,64,118,1
0,36,98,2
0,72,83,4
0,76,66,0
0,36,114,0
0,42,119,0
0,49,111,0
0,84,74,2
0,42,72,42
0,42,48,10
0,67,76,4
0,42,56,90
0,38,103,58
0,42,111,0
0,76,62,4
0,72,63,2
0,42,67,10
0,36,115,14
0,36,127,4
0,42,57,0
0,67,44,4
0,42,53,2
0,67,56,68
0,36,111,4
0,62,122,0
0,74,85,0
0,36,118,4
0,42,119,0
0,42,69,31
0,42,60,26
0,64,114,42
0,76,81,0
0,42,59,4
0,47,28,3
0,59,42,0
0,62,47,0
0,67,51,0
0,71,55,0
0,35,65,20
0,38,117,4
0,42,116,0
0,42,74,90
0,67,118,19
0,79,102,6
0,42,54,0
0,42,57,70
0,45,33,3
0,57,50,0
0,64,36,0
0,69,53,0
0,72,46,0
0,33,96,20
0,69,58,4
0,72,82,0
0,36,120,0
0,42,119,0
0,60,116,12
0,42,73,67
0,42,54,17
0,42,56,90
0,76,53,23
0,84,92,0
0,72,117,0
0,38,109,0
0,42,117,0
0,42,70,0
0,33,119,7
0,36,115,4
0,42,50,0
0,42,53,14
0,33,102,86
0,74,87,0
0,83,68,4
0,36,117,0
0,42,125,0
0,71,108,6
0,42,77,42
0,42,55,90
0,42,63,90
0,67,108,86
0,71,67,4
0,28,93,0
0,38,117,0
0,42,122,0
0,79,64,4
0,28,120,3
0,42,72,0
0,62,117,18
0,24,99,18
0,36,119,4
0,42,60,0
0,64,118,16
0,42,58,32
0,38,61,2
0,50,36,0
0,57,33,0
0,60,38,0
0,65,53,0
0,69,41,0
0,26,104,20
0,65,119,0
0,65,88,0
0,69,36,4
0,77,56,0
0,36,124,0
0,42,120,0
0,72,87,4
0,42,69,19
0,42,58,90
0,65,114,46
0,42,55,8
0,69,58,90
0,72,66,0
0,77,71,0
0,38,109,0
0,42,117,0
0,42,78,2
0,65,109,40
0,26,90,30
0,36,119,4
0,42,51,0
0,42,56,90
0,26,91,30
0,76,75,0
0,64,111,4
0,36,117,0
0,42,120,0
0,42,76,54
0,42,59,90
0,65,115,38
0,28,120,14
0,42,54,4
0,77,85,4
0,38,124,19
0,42,123,0
0,42,73,19
0,67,118,4
0,29,100,38
0,79,77,0
0,42,56,4
0,42,55,70
0,43,47,2
0,55,32,0
0,59,21,0
0,62,43,0
0,67,40,0
0,62,111,1
0,31,87,15
0,71,70,4
0,74,57,0
0,36,123,0
0,42,118,0
0,42,70,35
0,67,87,14
0,42,60,4
0,42,55,35
0,71,83,58
0,38,98,4
0,42,115,0
0,71,71,4
0,74,62,0
0,42,75,23
0,31,104,26
0,67,45,4
0,36,116,0
0,42,55,0
0,42,52,10
0,31,96,86
0,72,92,4
0,36,124,0
0,42,117,0
0,72,85,6
0,42,65,34
0,67,47,86
0,42,57,4
0,42,56,38
0,28,88,90
0,38,118,0
0,42,122,0
0,71,65,2
0,74,68,0
0,74,86,0
0,28,118,26
0,42,72,0
0,26,87,14
0,67,78,0
0,60,119,2
0,42,58,2
0,46,118,0
0,28,73,30
0,41,39,6
0,53,32,0
0,60,19,0
0,65,44,0
0,69,48,0
0,69,116,7
0,29,100,4
0,69,68,4
0,72,92,0
0,77,64,0
0,36,116,0
0,42,115,0
0,42,72,79
0,42,54,17
0,42,53,85
0,38,104,5
0,42,117,0
0,42,66,11
0,71,117,4
0,29,83,2
0,36,121,2
0,42,59,0
0,72,116,36
0,42,58,38
0,43,52,16
0,55,16,0
0,62,42,0
0,67,79,0
0,71,57,0
0,71,67,3
0,79,69,0
0,31,115,4
0,71,116,0
0,74,73,0
0,36,121,4
0,42,117,0
0,42,72,73
0,42,61,43
0,72,68,27
0,81,76,4
0,42,50,0
0,38,117,55
0,42,125,0
0,42,69,2
0,69,116,10
0,74,70,7
0,83,71,4
0,33,98,6
0,42,49,4
0,31,103,18
0,42,63,4
0,48,83,6
0,60,56,0
0,72,55,0
0,76,67,0
0,36,96,10
0,67,117,2
0,72,71,0
0,76,81,0
0,79,73,0
0,36,126,0
0,42,119,0
0,42,73,90
0,42,52,2
0,42,53,15
0,47,37,2
0,59,18,0
0,72,55,0
0,76,79,0
0,79,65,0
0,35,95,20
0,38,106,4
0,42,122,0
0,42,75,20
0,64,114,2
0,36,117,26
0,42,52,0
0,62,105,34
0,42,59,40
0,45,58,2
0,57,44,0
0,72,65,0
0,76,56,0
0,81,48,0
0,84,73,0
0,33,96,3
0,60,86,0
0,69,42,0
0,72,80,0
0,76,54,0
0,36,120,4
0,42,121,0
0,42,73,90
0,42,56,90
0,42,56,87
0,28,84,17
0,38,117,0
0,42,121,0
0,28,119,90
0,42,70,0
0,62,115,9
0,24,104,7
0,36,117,4
0,42,55,0
0,64,122,24
0,42,48,12
0,50,62,6
0,62,40,0
0,69,45,0
0,72,74,0
0,77,45,0
0,26,94,14
0,69,60,4
0,72,77,0
0,77,81,0
0,36,124,0
0,42,121,0
0,65,118,4
0,42,76,86
0,42,61,55
0,65,121,36
0,42,53,4
0,69,49,10
0,77,53,0
0,38,103,80
0,42,120,0
0,42,74,42
0,26,87,30
0,65,116,0
0,36,121,4
0,42,58,0
0,69,72,6
0,77,70,4
0,42,60,34
0,65,110,3
0,26,91,4
0,36,114,4
0,42,125,0
0,69,59,4
0,77,61,2
0,42,70,46
0,42,52,17
0,76,73,10
0,28,91,4
0,67,63,0
0,42,56,4
0,64,112,2
0,38,118,54
0,42,121,0
0,42,70,18
0,60,113,28
0,67,72,10
0,72,96,0
0,29,119,8
0,42,55,4
0,42,56,78
0,43,44,2
0,55,31,0
0,67,29,0
0,71,52,0
0,74,25,0
0,62,119,17
0,31,107,2
0,71,71,4
0,74,58,0
0,36,120,0
0,42,115,0
0,42,68,90
0,67,52,37
0,42,51,4
0,42,57,2
0,71,82,7
0,74,62,0
0,38,103,8
0,42,119,0
0,42,76,7
0,31,82,59
0,67,84,0
0,36,114,4
0,42,52,0
0,42,55,6
0,65,36,1
0,69,54,0
0,72,56,0
0,60,115,16
0,31,105,4
0,69,66,0
0,72,70,0
0,36,121,4
0,42,118,0
0,42,69,67
0,65,66,19
0,42,124,0
0,46,111,0
0,31,47,2
0,36,73,4
0,67,36,3
0,71,67,0
0,74,52,0
0,31,67,18
0,38,90,3
0,42,105,0
0,45,86,0
0,48,109,0
0,71,90,4
0,74,84,0
0,62,118,6
0,33,117,14
0,38,105,4
0,42,99,0
0,48,95,0
0,31,104,34
0,67,95,0
0,42,53,4
0,67,17,0
0,69,9,30
0,71,69,22
0,72,67,22
0,42,58,8
0,74,75,2
0,76,92,6
0,77,67,6
0,79,77,2
0,81,77,2
0,48,69,2
0,60,23,0
0,67,43,0
0,72,82,0
0,76,76,0
0,83,63,2
