track,note,velocity,time
1.0,79.0,47.0,768.0
1.0,79.0,47.0,2.0
1.0,79.0,47.0,2.0
1.0,79.0,47.0,2.0
1.0,88.0,47.0,0.0
1.0,86.0,47.0,4.0
1.0,83.0,47.0,4.0
1.0,79.0,47.0,4.0
1.0,79.0,47.0,2.0
1.0,79.0,47.0,2.0
1.0,79.0,47.0,2.0
1.0,79.0,47.0,2.0
1.0,88.0,47.0,4.0
1.0,86.0,47.0,4.0
1.0,86.0,47.0,8.0
1.0,84.0,47.0,2.0
1.0,83.0,47.0,2.0
1.0,81.0,47.0,2.0
1.0,79.0,47.0,2.0
1.0,83.0,47.0,4.0
1.0,76.0,47.0,4.0
1.0,76.0,47.0,2.0
1.0,74.0,47.0,2.0
1.0,79.0,47.0,4.0
1.0,81.0,47.0,2.0
1.0,83.0,47.0,2.0
1.0,84.0,47.0,2.0
1.0,83.0,47.0,2.0
1.0,81.0,47.0,4.0
1.0,79.0,47.0,4.0
1.0,79.0,47.0,20.0
1.0,79.0,47.0,2.0
1.0,79.0,47.0,2.0
1.0,79.0,47.0,2.0
1.0,79.0,47.0,2.0
1.0,88.0,47.0,4.0
1.0,86.0,47.0,4.0
1.0,83.0,47.0,4.0
1.0,79.0,47.0,4.0
1.0,79.0,47.0,2.0
1.0,79.0,47.0,2.0
1.0,79.0,47.0,2.0
1.0,79.0,47.0,2.0
1.0,88.0,47.0,4.0
1.0,86.0,47.0,4.0
1.0,86.0,47.0,8.0
1.0,84.0,47.0,2.0
1.0,83.0,47.0,2.0
1.0,81.0,47.0,2.0
1.0,79.0,47.0,2.0
1.0,83.0,47.0,4.0
1.0,76.0,47.0,4.0
1.0,76.0,47.0,2.0
1.0,74.0,47.0,2.0
1.0,79.0,47.0,4.0
1.0,81.0,47.0,2.0
1.0,83.0,47.0,2.0
1.0,84.0,47.0,2.0
1.0,83.0,47.0,2.0
1.0,81.0,47.0,4.0
1.0,79.0,47.0,4.0
2.0,74.0,47.0,6528.0
2.0,67.0,47.0,0.0
2.0,71.0,47.0,2.0
2.0,64.0,47.0,0.0
2.0,67.0,47.0,2.0
2.0,60.0,47.0,0.0
2.0,59.0,47.0,2.0
2.0,67.0,47.0,0.0
2.0,67.0,47.0,2.0
2.0,60.0,47.0,0.0
2.0,69.0,47.0,2.0
2.0,62.0,47.0,0.0
2.0,67.0,47.0,2.0
2.0,74.0,47.0,0.0
2.0,71.0,47.0,2.0
2.0,64.0,47.0,0.0
2.0,60.0,47.0,2.0
2.0,67.0,47.0,0.0
2.0,69.0,47.0,2.0
2.0,62.0,47.0,0.0
2.0,67.0,47.0,196.0
2.0,74.0,47.0,0.0
2.0,64.0,47.0,2.0
2.0,71.0,47.0,0.0
2.0,60.0,47.0,4.0
2.0,67.0,47.0,0.0
2.0,69.0,47.0,2.0
2.0,62.0,47.0,0.0
2.0,59.0,47.0,4.0
2.0,67.0,47.0,0.0
2.0,67.0,47.0,2.0
2.0,60.0,47.0,0.0
2.0,69.0,47.0,2.0
2.0,62.0,47.0,0.0
2.0,64.0,47.0,2.0
2.0,71.0,47.0,0.0
2.0,79.0,47.0,390.0
2.0,81.0,47.0,1.0
2.0,83.0,47.0,1.0
2.0,84.0,47.0,1.0
2.0,83.0,47.0,1.0
2.0,79.0,47.0,2.0
2.0,81.0,47.0,1.0
2.0,83.0,47.0,1.0
2.0,81.0,47.0,1.0
2.0,81.0,47.0,1.0
2.0,81.0,47.0,2.0
2.0,79.0,47.0,1.0
2.0,78.0,47.0,1.0
2.0,79.0,47.0,1.0
2.0,78.0,47.0,1.0
2.0,78.0,47.0,2.0
2.0,81.0,47.0,2.0
2.0,79.0,47.0,1.0
2.0,79.0,47.0,1.0
2.0,77.0,47.0,3.0
2.0,76.0,47.0,1.0
2.0,77.0,47.0,1.0
2.0,76.0,47.0,1.0
2.0,76.0,47.0,2.0
2.0,76.0,47.0,2.0
2.0,77.0,47.0,3.0
2.0,74.0,47.0,1.0
2.0,76.0,47.0,1.0
2.0,72.0,47.0,1.0
2.0,72.0,47.0,3.0
2.0,72.0,47.0,2.0
2.0,72.0,47.0,1.0
2.0,74.0,47.0,3.0
2.0,69.0,47.0,1.0
2.0,72.0,47.0,1.0
2.0,71.0,47.0,1.0
2.0,71.0,47.0,98.0
2.0,74.0,47.0,1.0
2.0,79.0,47.0,1.0
2.0,78.0,47.0,1.0
2.0,74.0,47.0,1.0
2.0,86.0,47.0,1.0
2.0,81.0,47.0,2.0
2.0,83.0,47.0,1.0
2.0,84.0,47.0,1.0
2.0,72.0,47.0,3.0
2.0,76.0,47.0,1.0
2.0,79.0,47.0,1.0
2.0,78.0,47.0,1.0
2.0,74.0,47.0,1.0
2.0,86.0,47.0,1.0
2.0,81.0,47.0,2.0
2.0,79.0,47.0,1.0
2.0,79.0,47.0,1.0
2.0,71.0,47.0,2.0
2.0,74.0,47.0,0.0
2.0,79.0,47.0,4.0
2.0,69.0,47.0,0.0
2.0,78.0,47.0,1.0
2.0,74.0,47.0,1.0
2.0,69.0,47.0,1.0
2.0,79.0,47.0,3.0
2.0,76.0,47.0,1.0
2.0,72.0,47.0,1.0
2.0,79.0,47.0,4.0
2.0,78.0,47.0,1.0
2.0,74.0,47.0,1.0
2.0,69.0,47.0,1.0
2.0,79.0,65.0,98.0
2.0,91.0,65.0,0.0
2.0,79.0,65.0,1.0
2.0,79.0,65.0,1.0
2.0,91.0,65.0,97.0
2.0,79.0,65.0,0.0
2.0,91.0,65.0,97.0
2.0,79.0,65.0,0.0
2.0,86.0,65.0,0.0
2.0,83.0,65.0,192.0
2.0,79.0,65.0,99.0
2.0,79.0,65.0,1.0
2.0,79.0,65.0,1.0
2.0,91.0,65.0,0.0
2.0,79.0,65.0,1.0
2.0,91.0,65.0,0.0
2.0,91.0,65.0,1.0
2.0,79.0,65.0,0.0
2.0,91.0,65.0,97.0
2.0,88.0,65.0,0.0
2.0,79.0,65.0,0.0
2.0,86.0,65.0,1.0
2.0,79.0,65.0,1.0
2.0,91.0,65.0,0.0
2.0,86.0,65.0,0.0
2.0,78.0,65.0,97.0
2.0,86.0,65.0,2.0
2.0,83.0,36.0,5.0
2.0,84.0,65.0,0.0
2.0,83.0,65.0,1.0
2.0,81.0,65.0,1.0
2.0,79.0,65.0,1.0
2.0,83.0,65.0,2.0
2.0,76.0,65.0,97.0
2.0,72.0,65.0,0.0
2.0,72.0,65.0,1.0
2.0,76.0,65.0,0.0
2.0,69.0,65.0,1.0
2.0,74.0,65.0,0.0
2.0,79.0,65.0,97.0
2.0,81.0,65.0,1.0
2.0,79.0,65.0,1.0
2.0,83.0,65.0,0.0
2.0,84.0,65.0,1.0
2.0,83.0,65.0,1.0
2.0,74.0,65.0,97.0
2.0,81.0,65.0,0.0
2.0,72.0,65.0,97.0
2.0,79.0,65.0,0.0
2.0,79.0,65.0,3.0
2.0,79.0,65.0,1.0
2.0,74.0,65.0,0.0
2.0,78.0,65.0,1.0
2.0,79.0,65.0,1.0
2.0,71.0,65.0,0.0
2.0,74.0,65.0,0.0
2.0,71.0,65.0,3.0
2.0,74.0,65.0,96.0
2.0,79.0,65.0,1.0
2.0,78.0,65.0,3.0
2.0,74.0,65.0,96.0
2.0,69.0,65.0,2.0
2.0,74.0,65.0,194.0
2.0,79.0,65.0,1.0
2.0,76.0,65.0,96.0
2.0,72.0,65.0,1.0
2.0,79.0,65.0,2.0
2.0,86.0,65.0,1.0
2.0,79.0,65.0,1.0
2.0,91.0,65.0,0.0
2.0,90.0,65.0,97.0
2.0,78.0,65.0,0.0
2.0,74.0,65.0,97.0
2.0,79.0,65.0,1.0
2.0,81.0,65.0,7.0
2.0,79.0,65.0,0.0
2.0,69.0,47.0,12.0
2.0,71.0,65.0,78.0
2.0,83.0,65.0,0.0
2.0,71.0,47.0,1.0
2.0,74.0,47.0,0.0
2.0,79.0,65.0,0.0
2.0,67.0,47.0,0.0
2.0,91.0,65.0,2.0
2.0,90.0,65.0,1.0
2.0,86.0,65.0,1.0
2.0,81.0,65.0,1.0
2.0,91.0,65.0,288.0
2.0,88.0,65.0,4.0
2.0,84.0,65.0,1.0
2.0,79.0,65.0,194.0
2.0,78.0,65.0,96.0
2.0,74.0,65.0,2.0
2.0,69.0,63.0,1.0
3.0,64.0,47.0,11142.0
3.0,71.0,47.0,2.0
3.0,79.0,47.0,2.0
3.0,64.0,47.0,8.0
3.0,71.0,47.0,2.0
3.0,79.0,47.0,2.0
3.0,71.0,47.0,6.0
3.0,61.0,47.0,2.0
3.0,69.0,47.0,2.0
3.0,76.0,47.0,2.0
3.0,69.0,47.0,6.0
3.0,62.0,47.0,2.0
3.0,69.0,47.0,2.0
3.0,74.0,47.0,2.0
3.0,69.0,47.0,6.0
3.0,59.0,47.0,2.0
3.0,67.0,47.0,2.0
3.0,71.0,47.0,2.0
3.0,59.0,47.0,6.0
3.0,60.0,47.0,2.0
3.0,67.0,47.0,2.0
3.0,72.0,47.0,2.0
3.0,67.0,47.0,6.0
3.0,56.0,47.0,2.0
3.0,64.0,47.0,2.0
3.0,71.0,47.0,2.0
3.0,64.0,47.0,6.0
3.0,57.0,47.0,2.0
3.0,64.0,47.0,2.0
3.0,69.0,47.0,2.0
3.0,64.0,47.0,6.0
3.0,54.0,47.0,2.0
3.0,62.0,47.0,2.0
3.0,69.0,47.0,2.0
3.0,62.0,47.0,4.0
3.0,55.0,47.0,4.0
3.0,62.0,47.0,2.0
3.0,67.0,47.0,2.0
3.0,67.0,47.0,0.0
3.0,62.0,47.0,0.0
3.0,55.0,47.0,4.0
3.0,62.0,47.0,0.0
3.0,57.0,47.0,0.0
3.0,66.0,47.0,2.0
3.0,69.0,47.0,2.0
3.0,55.0,47.0,8.0
3.0,60.0,47.0,0.0
3.0,64.0,47.0,2.0
3.0,67.0,47.0,2.0
3.0,57.0,47.0,8.0
3.0,55.0,47.0,0.0
3.0,62.0,47.0,2.0
3.0,66.0,47.0,2.0
3.0,62.0,47.0,6.0
3.0,55.0,47.0,2.0
3.0,62.0,47.0,2.0
3.0,67.0,47.0,2.0
3.0,62.0,47.0,6.0
3.0,55.0,47.0,2.0
3.0,62.0,47.0,2.0
3.0,66.0,47.0,2.0
3.0,62.0,47.0,6.0
3.0,55.0,47.0,2.0
3.0,64.0,47.0,2.0
3.0,67.0,47.0,2.0
3.0,64.0,47.0,6.0
3.0,55.0,47.0,2.0
3.0,62.0,47.0,2.0
3.0,66.0,47.0,2.0
3.0,62.0,47.0,6.0
3.0,55.0,47.0,2.0
3.0,62.0,47.0,2.0
3.0,67.0,47.0,2.0
3.0,74.0,47.0,0.0
3.0,71.0,47.0,0.0
3.0,62.0,47.0,6.0
3.0,55.0,47.0,2.0
3.0,62.0,47.0,2.0
3.0,74.0,47.0,2.0
3.0,69.0,47.0,0.0
3.0,66.0,47.0,0.0
3.0,62.0,47.0,6.0
3.0,55.0,47.0,2.0
3.0,64.0,47.0,2.0
3.0,67.0,47.0,2.0
3.0,76.0,47.0,0.0
3.0,72.0,47.0,0.0
3.0,64.0,47.0,6.0
3.0,55.0,47.0,2.0
3.0,62.0,47.0,2.0
3.0,69.0,47.0,2.0
3.0,66.0,47.0,0.0
3.0,74.0,47.0,0.0
3.0,62.0,47.0,6.0
3.0,55.0,47.0,2.0
3.0,62.0,47.0,2.0
3.0,67.0,47.0,2.0
3.0,60.0,47.0,8.0
3.0,67.0,47.0,0.0
3.0,62.0,47.0,4.0
3.0,69.0,47.0,0.0
3.0,62.0,47.0,8.0
3.0,71.0,47.0,0.0
3.0,69.0,47.0,8.0
3.0,62.0,47.0,0.0
3.0,72.0,47.0,4.0
3.0,64.0,47.0,0.0
3.0,74.0,47.0,14.0
3.0,62.0,47.0,0.0
3.0,55.0,47.0,186.0
3.0,62.0,47.0,2.0
3.0,67.0,47.0,2.0
3.0,55.0,47.0,8.0
3.0,62.0,47.0,2.0
3.0,66.0,47.0,2.0
3.0,55.0,47.0,8.0
3.0,64.0,47.0,2.0
3.0,67.0,47.0,2.0
3.0,55.0,47.0,8.0
3.0,62.0,47.0,2.0
3.0,66.0,47.0,2.0
3.0,55.0,47.0,8.0
3.0,62.0,47.0,2.0
3.0,67.0,47.0,2.0
3.0,62.0,47.0,6.0
3.0,55.0,47.0,2.0
3.0,62.0,47.0,2.0
3.0,66.0,47.0,2.0
3.0,62.0,47.0,6.0
3.0,55.0,47.0,2.0
3.0,64.0,47.0,2.0
3.0,67.0,47.0,2.0
3.0,64.0,47.0,6.0
3.0,55.0,47.0,2.0
3.0,62.0,47.0,2.0
3.0,66.0,47.0,2.0
3.0,50.0,47.0,4.0
3.0,38.0,47.0,0.0
3.0,55.0,47.0,4.0
3.0,43.0,47.0,0.0
3.0,62.0,47.0,2.0
3.0,71.0,47.0,2.0
3.0,74.0,47.0,0.0
3.0,43.0,47.0,8.0
3.0,55.0,47.0,0.0
3.0,62.0,47.0,2.0
3.0,66.0,47.0,2.0
3.0,69.0,47.0,0.0
3.0,50.0,47.0,4.0
3.0,38.0,47.0,0.0
3.0,55.0,47.0,4.0
3.0,43.0,47.0,0.0
3.0,60.0,47.0,2.0
3.0,72.0,47.0,2.0
3.0,67.0,47.0,0.0
3.0,55.0,47.0,8.0
3.0,43.0,47.0,0.0
3.0,59.0,47.0,2.0
3.0,66.0,47.0,2.0
3.0,69.0,47.0,0.0
3.0,38.0,47.0,4.0
3.0,50.0,47.0,0.0
3.0,55.0,47.0,4.0
3.0,43.0,47.0,0.0
3.0,59.0,47.0,2.0
3.0,71.0,47.0,2.0
3.0,67.0,47.0,0.0
3.0,55.0,47.0,8.0
3.0,48.0,47.0,0.0
3.0,60.0,47.0,0.0
3.0,62.0,47.0,4.0
3.0,57.0,47.0,0.0
3.0,50.0,47.0,0.0
3.0,43.0,47.0,8.0
3.0,55.0,47.0,0.0
3.0,50.0,47.0,0.0
3.0,55.0,47.0,8.0
3.0,43.0,47.0,0.0
3.0,59.0,47.0,2.0
3.0,55.0,47.0,2.0
3.0,48.0,47.0,0.0
3.0,60.0,47.0,0.0
3.0,59.0,47.0,6.0
3.0,50.0,47.0,2.0
3.0,57.0,47.0,0.0
3.0,43.0,47.0,4.0
3.0,55.0,47.0,0.0
3.0,59.0,47.0,2.0
3.0,67.0,47.0,2.0
3.0,57.0,47.0,8.0
3.0,55.0,47.0,0.0
3.0,62.0,47.0,96.0
3.0,66.0,47.0,49.0
3.0,55.0,47.0,337.0
3.0,60.0,47.0,0.0
3.0,64.0,47.0,51.0
3.0,67.0,47.0,49.0
3.0,55.0,47.0,337.0
3.0,57.0,47.0,0.0
3.0,62.0,47.0,51.0
3.0,66.0,47.0,49.0
3.0,52.0,47.0,337.0
3.0,59.0,47.0,51.0
3.0,64.0,47.0,49.0
3.0,59.0,47.0,2.0
3.0,49.0,47.0,96.0
3.0,57.0,47.0,49.0
3.0,64.0,47.0,49.0
3.0,57.0,47.0,2.0
3.0,50.0,47.0,96.0
3.0,57.0,47.0,49.0
3.0,62.0,47.0,49.0
3.0,57.0,47.0,2.0
3.0,47.0,47.0,96.0
3.0,55.0,47.0,49.0
3.0,62.0,47.0,49.0
3.0,47.0,47.0,49.0
3.0,48.0,47.0,49.0
3.0,55.0,47.0,96.0
3.0,60.0,47.0,49.0
3.0,48.0,47.0,49.0
3.0,44.0,47.0,49.0
3.0,52.0,47.0,96.0
3.0,59.0,47.0,49.0
3.0,52.0,47.0,2.0
3.0,45.0,47.0,96.0
3.0,52.0,47.0,49.0
3.0,57.0,47.0,49.0
3.0,52.0,47.0,2.0
3.0,42.0,47.0,96.0
3.0,50.0,47.0,49.0
3.0,57.0,47.0,49.0
3.0,50.0,47.0,49.0
3.0,43.0,47.0,49.0
3.0,55.0,47.0,0.0
3.0,59.0,47.0,96.0
3.0,67.0,47.0,49.0
3.0,71.0,47.0,0.0
3.0,55.0,47.0,337.0
3.0,62.0,47.0,51.0
3.0,69.0,47.0,49.0
3.0,66.0,47.0,0.0
3.0,43.0,47.0,337.0
3.0,55.0,47.0,0.0
3.0,60.0,47.0,51.0
3.0,67.0,47.0,49.0
3.0,55.0,47.0,337.0
3.0,62.0,47.0,51.0
3.0,66.0,47.0,49.0
3.0,62.0,47.0,2.0
3.0,55.0,47.0,96.0
3.0,43.0,47.0,0.0
3.0,59.0,47.0,49.0
3.0,67.0,47.0,49.0
3.0,55.0,47.0,337.0
3.0,62.0,47.0,51.0
3.0,66.0,47.0,49.0
3.0,55.0,47.0,337.0
3.0,43.0,47.0,0.0
3.0,60.0,47.0,51.0
3.0,64.0,47.0,49.0
3.0,67.0,47.0,0.0
3.0,55.0,47.0,337.0
3.0,62.0,47.0,51.0
3.0,66.0,47.0,49.0
3.0,62.0,47.0,2.0
3.0,43.0,47.0,96.0
3.0,50.0,47.0,49.0
3.0,62.0,47.0,49.0
3.0,55.0,47.0,0.0
4.0,79.0,48.0,20688.0
4.0,79.0,52.0,1.0
4.0,79.0,64.0,1.0
4.0,79.0,56.0,1.0
4.0,88.0,56.0,4.0
4.0,86.0,73.0,2.0
4.0,83.0,30.0,2.0
4.0,79.0,64.0,2.0
4.0,79.0,73.0,1.0
4.0,79.0,60.0,1.0
4.0,79.0,64.0,1.0
4.0,79.0,64.0,1.0
4.0,88.0,73.0,2.0
4.0,86.0,73.0,2.0
4.0,86.0,60.0,4.0
4.0,84.0,56.0,1.0
4.0,83.0,56.0,95.0
4.0,81.0,60.0,1.0
4.0,79.0,48.0,1.0
4.0,83.0,48.0,2.0
4.0,76.0,64.0,2.0
4.0,76.0,64.0,1.0
4.0,74.0,64.0,1.0
4.0,79.0,64.0,1.0
4.0,81.0,64.0,1.0
4.0,83.0,64.0,1.0
4.0,84.0,52.0,1.0
4.0,83.0,64.0,1.0
4.0,81.0,64.0,2.0
4.0,79.0,52.0,2.0
4.0,79.0,56.0,4.0
4.0,78.0,36.0,1.0
4.0,79.0,73.0,1.0
4.0,86.0,56.0,26.0
4.0,91.0,73.0,1.0
4.0,90.0,73.0,2.0
4.0,86.0,73.0,2.0
4.0,81.0,60.0,1.0
4.0,79.0,60.0,1.0
5.0,71.0,32.0,16656.0
5.0,67.0,32.0,0.0
5.0,62.0,32.0,6.0
5.0,66.0,32.0,1.0
5.0,69.0,32.0,0.0
5.0,64.0,32.0,2.0
5.0,72.0,32.0,0.0
5.0,67.0,32.0,0.0
5.0,66.0,31.0,2.0
5.0,62.0,31.0,0.0
5.0,69.0,31.0,0.0
5.0,71.0,31.0,2.0
5.0,67.0,31.0,0.0
5.0,62.0,31.0,0.0
5.0,69.0,31.0,2.0
5.0,66.0,31.0,0.0
5.0,72.0,30.0,2.0
5.0,64.0,30.0,0.0
5.0,67.0,30.0,0.0
5.0,62.0,30.0,2.0
5.0,66.0,30.0,0.0
5.0,69.0,30.0,0.0
5.0,69.0,70.0,0.0
5.0,66.0,70.0,0.0
5.0,67.0,70.0,2.0
5.0,64.0,70.0,0.0
5.0,66.0,70.0,2.0
5.0,69.0,70.0,0.0
5.0,71.0,70.0,2.0
5.0,67.0,70.0,0.0
5.0,69.0,70.0,2.0
5.0,73.0,70.0,0.0
5.0,69.0,70.0,2.0
5.0,66.0,70.0,0.0
5.0,67.0,70.0,2.0
5.0,71.0,70.0,0.0
5.0,64.0,70.0,2.0
5.0,67.0,70.0,0.0
5.0,69.0,70.0,4.0
5.0,60.0,70.0,0.0
5.0,66.0,70.0,2.0
5.0,71.0,70.0,2.0
5.0,67.0,70.0,0.0
5.0,66.0,70.0,2.0
5.0,69.0,70.0,0.0
5.0,64.0,70.0,2.0
5.0,67.0,70.0,0.0
5.0,66.0,70.0,2.0
5.0,69.0,70.0,0.0
5.0,67.0,70.0,2.0
5.0,71.0,70.0,0.0
5.0,66.0,70.0,2.0
5.0,69.0,70.0,0.0
5.0,67.0,70.0,2.0
5.0,64.0,70.0,0.0
5.0,69.0,70.0,2.0
5.0,66.0,70.0,0.0
5.0,67.0,70.0,2.0
5.0,71.0,70.0,0.0
6.0,79.0,75.0,28225.0
6.0,67.0,75.0,0.0
6.0,67.0,75.0,0.0
6.0,79.0,75.0,0.0
6.0,79.0,75.0,2.0
6.0,67.0,75.0,6.0
6.0,67.0,75.0,94.0
6.0,79.0,75.0,0.0
6.0,79.0,75.0,1.0
6.0,67.0,75.0,0.0
6.0,79.0,75.0,1.0
6.0,67.0,75.0,0.0
6.0,79.0,75.0,1.0
6.0,67.0,75.0,0.0
6.0,76.0,75.0,97.0
6.0,88.0,75.0,0.0
6.0,74.0,75.0,97.0
6.0,86.0,75.0,0.0
6.0,83.0,75.0,97.0
6.0,71.0,75.0,0.0
6.0,67.0,75.0,97.0
6.0,79.0,75.0,0.0
6.0,67.0,75.0,1.0
6.0,79.0,75.0,0.0
6.0,79.0,75.0,1.0
6.0,67.0,75.0,0.0
6.0,67.0,75.0,1.0
6.0,79.0,75.0,0.0
6.0,67.0,75.0,1.0
6.0,79.0,75.0,0.0
6.0,88.0,75.0,97.0
6.0,76.0,75.0,0.0
6.0,74.0,75.0,1.0
6.0,86.0,75.0,0.0
6.0,86.0,75.0,1.0
6.0,74.0,75.0,0.0
6.0,86.0,75.0,4.0
6.0,74.0,75.0,0.0
6.0,72.0,75.0,1.0
6.0,84.0,75.0,0.0
6.0,83.0,75.0,1.0
6.0,71.0,75.0,0.0
6.0,81.0,75.0,1.0
6.0,69.0,75.0,0.0
6.0,79.0,75.0,1.0
6.0,67.0,75.0,0.0
6.0,71.0,75.0,97.0
6.0,83.0,75.0,0.0
6.0,76.0,75.0,97.0
6.0,64.0,75.0,0.0
6.0,64.0,75.0,1.0
6.0,76.0,75.0,0.0
6.0,74.0,75.0,1.0
6.0,62.0,75.0,0.0
6.0,67.0,75.0,97.0
6.0,79.0,75.0,0.0
6.0,81.0,75.0,1.0
6.0,69.0,75.0,0.0
6.0,83.0,75.0,1.0
6.0,71.0,75.0,0.0
6.0,72.0,75.0,1.0
6.0,84.0,75.0,0.0
6.0,71.0,75.0,1.0
6.0,83.0,75.0,0.0
6.0,69.0,75.0,97.0
6.0,81.0,75.0,0.0
6.0,67.0,75.0,97.0
6.0,79.0,75.0,0.0
6.0,67.0,75.0,98.0
6.0,79.0,75.0,0.0
6.0,79.0,75.0,1.0
6.0,67.0,75.0,0.0
6.0,66.0,75.0,1.0
6.0,78.0,75.0,0.0
6.0,79.0,75.0,1.0
6.0,67.0,75.0,0.0
6.0,78.0,78.0,6.0
6.0,74.0,64.0,2.0
6.0,69.0,69.0,2.0
6.0,74.0,62.0,6.0
6.0,79.0,61.0,2.0
6.0,76.0,70.0,2.0
6.0,72.0,79.0,2.0
6.0,79.0,77.0,288.0
6.0,78.0,75.0,2.0
6.0,74.0,68.0,96.0
6.0,69.0,67.0,2.0
6.0,74.0,70.0,192.0
6.0,71.0,65.0,98.0
6.0,83.0,72.0,12.0
6.0,72.0,68.0,2.0
6.0,84.0,86.0,0.0
6.0,71.0,69.0,2.0
6.0,83.0,79.0,0.0
6.0,71.0,69.0,51.0
6.0,83.0,77.0,0.0
6.0,79.0,82.0,2.0
6.0,67.0,54.0,0.0
6.0,69.0,68.0,1.0
6.0,81.0,78.0,0.0
6.0,83.0,90.0,1.0
6.0,71.0,86.0,0.0
6.0,69.0,72.0,2.0
6.0,81.0,81.0,0.0
6.0,81.0,93.0,49.0
6.0,69.0,58.0,0.0
6.0,69.0,58.0,51.0
6.0,81.0,85.0,0.0
6.0,67.0,48.0,2.0
6.0,79.0,83.0,0.0
6.0,78.0,87.0,49.0
6.0,66.0,70.0,0.0
6.0,79.0,82.0,4.0
6.0,67.0,64.0,0.0
6.0,66.0,68.0,2.0
6.0,78.0,86.0,0.0
6.0,66.0,66.0,3.0
6.0,78.0,83.0,0.0
6.0,81.0,83.0,2.0
6.0,69.0,38.0,0.0
6.0,79.0,75.0,2.0
6.0,67.0,67.0,0.0
6.0,67.0,54.0,0.0
6.0,79.0,80.0,0.0
6.0,74.0,83.0,2.0
6.0,79.0,78.0,0.0
6.0,67.0,65.0,0.0
6.0,74.0,43.0,1.0
6.0,77.0,69.0,0.0
6.0,65.0,52.0,0.0
6.0,72.0,37.0,1.0
6.0,76.0,86.0,0.0
6.0,64.0,62.0,0.0
6.0,77.0,76.0,2.0
6.0,65.0,56.0,0.0
6.0,72.0,72.0,2.0
6.0,76.0,90.0,0.0
6.0,64.0,59.0,0.0
6.0,72.0,66.0,51.0
6.0,64.0,47.0,0.0
6.0,76.0,81.0,0.0
6.0,64.0,59.0,51.0
6.0,72.0,75.0,0.0
6.0,76.0,87.0,0.0
6.0,77.0,80.0,6.0
6.0,65.0,71.0,0.0
6.0,74.0,83.0,2.0
6.0,62.0,50.0,0.0
6.0,64.0,22.0,2.0
6.0,76.0,91.0,0.0
6.0,72.0,88.0,2.0
6.0,60.0,56.0,0.0
6.0,71.0,59.0,3.0
6.0,69.0,92.0,102.0
6.0,60.0,64.0,7.0
6.0,72.0,74.0,0.0
6.0,72.0,81.0,0.0
6.0,84.0,81.0,3.0
6.0,74.0,69.0,282.0
6.0,86.0,69.0,0.0
6.0,81.0,69.0,2.0
6.0,69.0,69.0,0.0
6.0,84.0,69.0,2.0
6.0,72.0,69.0,0.0
6.0,81.0,81.0,11.0
6.0,79.0,81.0,87.0
6.0,79.0,81.0,2.0
6.0,74.0,81.0,2.0
6.0,79.0,81.0,2.0
6.0,81.0,75.0,2.0
6.0,78.0,70.0,0.0
6.0,74.0,75.0,2.0
6.0,86.0,86.0,96.0
6.0,81.0,86.0,4.0
6.0,83.0,71.0,2.0
6.0,76.0,82.0,49.0
6.0,84.0,77.0,0.0
6.0,76.0,86.0,6.0
6.0,72.0,80.0,2.0
6.0,79.0,80.0,2.0
6.0,78.0,82.0,2.0
6.0,74.0,86.0,2.0
6.0,86.0,85.0,96.0
6.0,81.0,66.0,4.0
6.0,79.0,66.0,2.0
6.0,79.0,66.0,49.0
6.0,71.0,64.0,4.0
6.0,74.0,79.0,0.0
6.0,79.0,78.0,149.0
6.0,78.0,70.0,2.0
6.0,74.0,76.0,2.0
6.0,69.0,81.0,2.0
6.0,79.0,81.0,53.0
6.0,76.0,87.0,2.0
6.0,72.0,88.0,2.0
6.0,79.0,76.0,102.0
6.0,78.0,69.0,2.0
6.0,74.0,65.0,96.0
6.0,69.0,68.0,2.0
6.0,79.0,87.0,53.0
6.0,71.0,61.0,4.0
6.0,74.0,81.0,6.0
0.0,0.0,0.0,0.0
0.0,0.0,0.0,0.0
0.0,0.0,0.0,0.0
0.0,0.0,0.0,0.0
0.0,0.0,0.0,0.0
0.0,0.0,0.0,0.0
0.0,0.0,0.0,0.0
0.0,0.0,0.0,0.0
0.0,0.0,0.0,0.0
0.0,0.0,0.0,0.0
0.0,0.0,0.0,0.0
0.0,0.0,0.0,0.0
0.0,0.0,0.0,0.0
0.0,0.0,0.0,0.0
0.0,0.0,0.0,0.0
0.0,0.0,0.0,0.0
0.0,0.0,0.0,0.0
0.0,0.0,0.0,0.0
0.0,0.0,0.0,0.0
0.0,0.0,0.0,0.0
0.0,0.0,0.0,0.0
0.0,0.0,0.0,0.0
0.0,0.0,0.0,0.0
0.0,0.0,0.0,0.0
0.0,0.0,0.0,0.0
0.0,0.0,0.0,0.0
0.0,0.0,0.0,0.0
0.0,0.0,0.0,0.0
0.0,0.0,0.0,0.0
0.0,0.0,0.0,0.0
0.0,0.0,0.0,0.0
0.0,0.0,0.0,0.0
0.0,0.0,0.0,0.0
0.0,0.0,0.0,0.0
0.0,0.0,0.0,0.0
0.0,0.0,0.0,0.0
0.0,0.0,0.0,0.0
0.0,0.0,0.0,0.0
0.0,0.0,0.0,0.0
0.0,0.0,0.0,0.0
0.0,0.0,0.0,0.0
0.0,0.0,0.0,0.0
0.0,0.0,0.0,0.0
0.0,0.0,0.0,0.0
0.0,0.0,0.0,0.0
0.0,0.0,0.0,0.0
0.0,0.0,0.0,0.0
0.0,0.0,0.0,0.0
0.0,0.0,0.0,0.0
0.0,0.0,0.0,0.0
0.0,0.0,0.0,0.0
0.0,0.0,0.0,0.0
0.0,0.0,0.0,0.0
0.0,0.0,0.0,0.0
0.0,0.0,0.0,0.0
0.0,0.0,0.0,0.0
0.0,0.0,0.0,0.0
0.0,0.0,0.0,0.0
0.0,0.0,0.0,0.0
0.0,0.0,0.0,0.0
0.0,0.0,0.0,0.0
0.0,0.0,0.0,0.0
0.0,0.0,0.0,0.0
0.0,0.0,0.0,0.0
0.0,0.0,0.0,0.0
0.0,0.0,0.0,0.0
0.0,0.0,0.0,0.0
0.0,0.0,0.0,0.0
0.0,0.0,0.0,0.0
0.0,0.0,0.0,0.0
0.0,0.0,0.0,0.0
0.0,0.0,0.0,0.0
0.0,0.0,0.0,0.0
0.0,0.0,0.0,0.0
0.0,0.0,0.0,0.0
0.0,0.0,0.0,0.0
0.0,0.0,0.0,0.0
0.0,0.0,0.0,0.0
0.0,0.0,0.0,0.0
0.0,0.0,0.0,0.0
0.0,0.0,0.0,0.0
0.0,0.0,0.0,0.0
0.0,0.0,0.0,0.0
0.0,0.0,0.0,0.0
0.0,0.0,0.0,0.0
0.0,0.0,0.0,0.0
0.0,0.0,0.0,0.0
0.0,0.0,0.0,0.0
0.0,0.0,0.0,0.0
0.0,0.0,0.0,0.0
0.0,0.0,0.0,0.0
0.0,0.0,0.0,0.0
0.0,0.0,0.0,0.0
0.0,0.0,0.0,0.0
0.0,0.0,0.0,0.0
0.0,0.0,0.0,0.0
0.0,0.0,0.0,0.0
0.0,0.0,0.0,0.0
0.0,0.0,0.0,0.0
0.0,0.0,0.0,0.0
0.0,0.0,0.0,0.0
0.0,0.0,0.0,0.0
0.0,0.0,0.0,0.0
0.0,0.0,0.0,0.0
0.0,0.0,0.0,0.0
0.0,0.0,0.0,0.0
0.0,0.0,0.0,0.0
0.0,0.0,0.0,0.0
0.0,0.0,0.0,0.0
0.0,0.0,0.0,0.0
0.0,0.0,0.0,0.0
0.0,0.0,0.0,0.0
0.0,0.0,0.0,0.0
0.0,0.0,0.0,0.0
0.0,0.0,0.0,0.0
0.0,0.0,0.0,0.0
0.0,0.0,0.0,0.0
0.0,0.0,0.0,0.0
0.0,0.0,0.0,0.0
0.0,0.0,0.0,0.0
0.0,0.0,0.0,0.0
0.0,0.0,0.0,0.0
0.0,0.0,0.0,0.0
0.0,0.0,0.0,0.0
0.0,0.0,0.0,0.0
0.0,0.0,0.0,0.0
0.0,0.0,0.0,0.0
0.0,0.0,0.0,0.0
0.0,0.0,0.0,0.0
0.0,0.0,0.0,0.0
0.0,0.0,0.0,0.0
0.0,0.0,0.0,0.0
0.0,0.0,0.0,0.0
0.0,0.0,0.0,0.0
0.0,0.0,0.0,0.0
0.0,0.0,0.0,0.0
0.0,0.0,0.0,0.0
0.0,0.0,0.0,0.0
0.0,0.0,0.0,0.0
0.0,0.0,0.0,0.0
0.0,0.0,0.0,0.0
0.0,0.0,0.0,0.0
0.0,0.0,0.0,0.0
0.0,0.0,0.0,0.0
0.0,0.0,0.0,0.0
0.0,0.0,0.0,0.0
0.0,0.0,0.0,0.0
0.0,0.0,0.0,0.0
0.0,0.0,0.0,0.0
0.0,0.0,0.0,0.0
0.0,0.0,0.0,0.0
0.0,0.0,0.0,0.0
0.0,0.0,0.0,0.0
0.0,0.0,0.0,0.0
0.0,0.0,0.0,0.0
0.0,0.0,0.0,0.0
0.0,0.0,0.0,0.0
0.0,0.0,0.0,0.0
0.0,0.0,0.0,0.0
0.0,0.0,0.0,0.0
0.0,0.0,0.0,0.0
0.0,0.0,0.0,0.0
0.0,0.0,0.0,0.0
0.0,0.0,0.0,0.0
0.0,0.0,0.0,0.0
0.0,0.0,0.0,0.0
0.0,0.0,0.0,0.0
0.0,0.0,0.0,0.0
0.0,0.0,0.0,0.0
0.0,0.0,0.0,0.0
0.0,0.0,0.0,0.0
