track,note,velocity,time
0,59,127,42
0,59,127,45
0,47,96,4
0,71,79,11
0,52,100,11
0,56,96,5
0,76,85,2
0,59,102,19
0,80,85,3
0,64,113,16
0,83,91,1
0,59,0,48
0,59,123,27
0,59,0,199
0,68,119,126
0,68,0,77
0,68,119,40
0,68,0,107
0,68,123,28
0,83,0,63
0,71,0,11
0,80,0,1
0,76,0,10
0,68,0,90
0,66,119,160
0,68,77,1
0,52,0,2
0,47,0,2
0,73,85,14
0,49,79,2
0,66,0,14
0,76,90,6
0,56,84,12
0,80,89,10
0,61,88,0
0,64,95,14
0,69,127,9
0,68,95,17
0,68,123,252
0,69,0,5
0,68,0,313
0,73,0,137
0,76,0,0
0,68,0,3
0,80,0,14
0,66,114,129
0,49,0,79
0,61,0,11
0,66,0,11
0,56,0,8
0,69,82,5
0,64,0,1
0,64,127,8
0,52,77,0
0,73,85,10
0,57,83,0
0,68,0,2
0,76,91,16
0,61,88,1
0,81,93,17
0,64,97,4
0,69,94,17
0,64,0,49
0,64,127,59
0,64,0,125
0,64,127,161
0,64,0,147
0,66,119,56
0,66,0,148
0,64,127,7
0,64,0,177
0,76,0,32
0,69,0,3
0,73,0,8
0,81,0,4
0,63,123,161
0,57,0,4
0,52,0,14
0,61,0,11
0,64,0,9
0,47,78,17
0,69,0,0
0,52,84,19
0,71,78,11
0,59,89,4
0,63,0,4
0,76,80,3
0,40,103,4
0,64,95,4
0,40,103,2
0,64,90,0
0,44,105,0
0,80,84,2
0,44,0,2
0,64,127,1
0,83,88,13
0,68,100,4
0,88,94,11
0,64,0,0
0,40,0,30
0,40,0,6
0,40,100,70
0,64,87,5
0,40,100,1
0,64,0,29
0,40,0,9
0,35,113,4
0,40,0,2
0,59,97,3
0,35,113,1
0,59,0,37
0,35,0,3
0,35,0,6
0,64,0,32
0,40,110,106
0,40,110,6
0,64,95,0
0,64,0,33
0,40,0,16
0,40,0,6
0,40,103,84
0,64,79,5
0,40,103,1
0,64,0,27
0,40,0,11
0,35,106,4
0,40,0,2
0,59,97,3
0,35,106,1
0,59,0,36
0,35,0,12
0,35,0,6
0,40,100,132
0,64,95,5
0,40,100,1
0,70,102,0
0,70,0,4
0,52,0,27
0,64,0,0
0,70,98,17
0,40,0,4
0,70,0,0
0,59,0,3
0,40,0,3
0,68,0,0
0,47,0,2
0,64,0,2
0,83,0,14
0,71,0,2
0,76,0,4
0,80,0,3
0,88,0,6
0,70,90,4
0,70,0,4
0,40,97,39
0,70,102,5
0,40,97,1
0,64,80,0
0,70,0,3
0,64,0,28
0,40,0,9
0,35,100,2
0,40,0,4
0,70,98,1
0,35,100,1
0,59,97,0
0,70,0,3
0,59,0,34
0,35,0,8
0,70,83,2
0,35,0,4
0,70,0,0
0,70,98,44
0,70,0,4
0,70,102,44
0,70,0,4
0,40,92,40
0,70,98,4
0,64,92,1
0,40,92,1
0,70,0,2
0,64,0,29
0,70,98,15
0,40,0,4
0,70,0,0
0,40,0,6
0,70,94,38
0,70,0,4
0,40,92,39
0,64,86,5
0,70,98,0
0,40,92,1
0,70,0,3
0,64,0,25
0,40,0,7
0,40,0,6
0,35,103,2
0,70,90,4
0,59,94,1
0,35,103,1
0,70,0,2
0,59,0,34
0,35,0,8
0,70,98,3
0,35,0,3
0,70,0,1
0,70,94,43
0,40,75,2
0,70,0,2
0,40,0,2
0,70,102,42
0,40,76,2
0,70,0,2
0,40,0,2
0,40,92,37
0,40,92,6
0,56,104,0
0,80,92,0
0,52,81,0
0,56,78,0
0,59,77,0
0,64,84,0
0,35,97,0
0,42,80,0
0,70,102,0
0,35,0,4
0,42,0,0
0,70,0,0
0,70,98,44
0,40,0,3
0,70,0,1
0,40,0,5
0,42,63,38
0,70,90,0
0,59,68,1
0,64,84,0
0,68,69,0
0,40,73,0
0,42,0,3
0,70,0,0
0,40,0,1
0,64,0,20
0,59,0,2
0,59,0,2
0,68,0,0
0,64,0,1
0,52,0,2
0,56,0,0
0,40,86,11
0,52,68,5
0,56,63,0
0,59,73,0
0,40,65,0
0,70,102,0
0,40,86,1
0,64,73,0
0,64,86,0
0,59,73,1
0,68,71,0
0,40,0,2
0,70,0,0
0,64,0,23
0,68,0,0
0,59,0,1
0,40,0,4
0,59,0,1
0,56,0,1
0,64,0,0
0,52,0,3
0,40,0,1
0,35,97,5
0,56,74,5
0,59,73,0
0,42,69,0
0,70,98,0
0,35,97,1
0,52,71,0
0,35,84,0
0,64,81,1
0,42,0,2
0,70,0,0
0,35,0,1
0,70,83,43
0,70,0,4
0,35,0,1
0,35,0,6
0,56,0,30
0,80,0,0
0,78,80,7
0,42,69,0
0,70,98,0
0,54,96,1
0,59,66,0
0,64,77,0
0,68,63,0
0,40,73,0
0,42,0,3
0,70,0,0
0,40,0,1
0,59,0,29
0,64,0,1
0,68,0,2
0,70,102,11
0,70,0,4
0,64,0,22
0,52,0,3
0,56,0,2
0,59,0,1
0,40,88,11
0,54,0,4
0,42,59,1
0,70,98,0
0,40,88,1
0,78,0,0
0,52,81,0
0,56,61,0
0,35,93,0
0,59,80,1
0,64,86,0
0,81,97,1
0,57,86,1
0,42,0,0
0,70,0,0
0,35,0,1
0,70,98,43
0,40,0,4
0,70,0,0
0,40,0,6
0,81,0,34
0,57,0,2
0,40,76,2
0,42,54,0
0,70,94,0
0,56,96,1
0,80,89,0
0,64,77,1
0,68,63,0
0,59,64,1
0,40,0,1
0,42,0,0
0,70,0,0
0,64,0,21
0,64,0,2
0,59,0,2
0,68,0,0
0,52,0,1
0,56,0,2
0,59,0,3
0,40,95,7
0,40,95,6
0,52,75,0
0,56,69,0
0,40,73,0
0,70,98,0
0,59,71,1
0,64,77,0
0,59,61,1
0,64,84,0
0,68,59,1
0,40,0,1
0,70,0,0
0,59,0,25
0,68,0,0
0,64,0,1
0,56,0,2
0,59,0,0
0,64,0,1
0,40,0,0
0,52,0,1
0,40,0,5
0,35,97,3
0,35,97,6
0,35,84,0
0,42,61,0
0,70,90,0
0,52,69,1
0,56,66,0
0,59,71,0
0,64,77,0
0,35,0,3
0,42,0,0
0,70,0,0
0,64,0,29
0,59,0,2
0,56,0,1
0,52,0,1
0,35,0,9
0,56,63,2
0,59,68,0
0,52,69,1
0,64,75,0
0,59,49,0
0,64,47,0
0,68,43,0
0,70,98,0
0,35,0,3
0,70,0,1
0,68,0,11
0,64,0,1
0,59,0,5
0,64,0,9
0,59,0,3
0,52,0,1
0,56,0,0
0,80,0,6
0,56,0,4
0,54,85,3
0,78,89,0
0,56,66,0
0,59,75,0
0,42,55,0
0,70,94,0
0,52,79,1
0,64,79,0
0,59,77,0
0,64,95,0
0,68,81,0
0,40,77,0
0,42,0,3
0,70,0,0
0,40,0,1
0,68,0,15
0,64,0,5
0,59,0,2
0,70,102,21
0,70,0,4
0,56,0,27
0,64,0,0
0,59,0,2
0,52,0,1
0,40,97,9
0,78,0,2
0,54,0,2
0,56,66,1
0,42,61,0
0,40,97,1
0,56,89,0
0,52,73,0
0,35,90,0
0,70,102,0
0,80,82,1
0,59,86,0
0,64,73,0
0,42,0,2
0,35,0,1
0,70,0,0
0,40,0,38
0,40,0,6
0,70,98,0
0,70,0,4
0,40,70,43
0,42,59,0
0,70,90,0
0,64,86,1
0,59,64,1
0,68,57,0
0,40,0,2
0,42,0,0
0,70,0,0
0,68,0,16
0,59,0,5
0,59,0,0
0,64,0,0
0,56,0,3
0,52,0,2
0,64,0,3
0,40,95,10
0,52,73,5
0,56,66,0
0,64,68,0
0,40,73,0
0,70,102,0
0,40,95,1
0,59,84,0
0,59,75,1
0,64,92,0
0,68,85,0
0,40,0,2
0,70,0,0
0,68,0,21
0,64,0,1
0,52,0,2
0,59,0,1
0,56,0,5
0,64,0,0
0,40,0,1
0,59,0,3
0,40,0,3
0,35,90,2
0,52,73,5
0,56,63,0
0,42,62,0
0,70,98,0
0,35,90,1
0,64,65,0
0,35,84,0
0,59,77,1
0,42,0,2
0,70,0,0
0,35,0,1
0,70,83,43
0,35,0,4
0,70,0,0
0,35,0,6
0,80,0,32
0,56,0,1
0,78,85,4
0,54,89,1
0,40,73,0
0,42,65,0
0,70,98,0
0,64,86,2
0,59,71,1
0,68,63,0
0,40,0,1
0,42,0,0
0,70,0,0
0,68,0,27
0,59,0,4
0,64,0,0
0,70,102,13
0,70,0,4
0,52,0,19
0,59,0,1
0,56,0,1
0,64,0,2
0,78,0,13
0,54,0,1
0,40,90,1
0,57,90,5
0,40,90,1
0,81,103,0
0,56,59,0
0,59,84,0
0,35,90,0
0,42,62,0
0,70,98,0
0,52,73,1
0,64,71,0
0,35,0,3
0,42,0,0
0,70,0,0
0,40,0,44
0,70,98,0
0,70,0,4
0,40,0,2
0,81,0,37
0,57,0,2
0,56,77,2
0,80,89,1
0,40,68,0
0,42,73,0
0,70,94,0
0,59,62,2
0,64,69,0
0,68,49,1
0,40,0,1
0,42,0,0
0,70,0,0
0,68,0,18
0,64,0,1
0,59,0,1
0,52,0,1
0,64,0,1
0,56,0,3
0,59,0,1
0,40,100,13
0,52,68,5
0,56,66,0
0,59,75,0
0,64,66,0
0,40,65,0
0,70,98,0
0,40,100,1
0,59,69,2
0,64,84,0
0,68,71,0
0,40,0,1
0,70,0,0
0,68,0,18
0,64,0,1
0,59,0,3
0,59,0,5
0,64,0,2
0,56,0,2
0,52,0,1
0,40,0,3
0,35,90,4
0,40,0,2
0,52,77,3
0,56,63,0
0,59,73,0
0,42,73,0
0,70,90,0
0,35,90,1
0,64,73,0
0,35,82,0
0,42,0,3
0,70,0,0
0,35,0,1
0,59,0,30
0,52,0,1
0,56,0,1
0,64,0,1
0,59,71,9
0,52,66,1
0,56,63,0
0,64,69,0
0,64,73,1
0,59,58,0
0,68,45,0
0,70,98,0
0,35,0,4
0,70,0,0
0,35,0,6
0,68,0,5
0,64,0,2
0,59,0,1
0,59,0,12
0,56,0,2
0,52,0,1
0,64,0,1
0,52,84,13
0,56,66,0
0,59,71,0
0,59,79,0
0,64,95,0
0,68,78,0
0,42,63,0
0,70,94,0
0,57,109,1
0,64,65,0
0,40,75,0
0,42,0,3
0,70,0,0
0,40,0,1
0,68,0,13
0,59,0,5
0,64,0,1
0,70,102,24
0,70,0,4
0,56,0,16
0,80,0,0
0,57,0,1
0,59,0,11
0,52,0,1
0,56,0,2
0,64,0,0
0,40,95,8
0,59,117,5
0,40,95,1
0,52,81,0
0,56,78,0
0,59,77,0
0,64,84,0
0,35,97,0
0,42,80,0
0,35,0,4
0,42,0,0
0,40,0,57
0,40,0,6
0,59,0,7
0,59,117,20
0,42,63,1
0,70,90,0
0,59,68,1
0,64,84,0
0,68,69,0
0,40,73,0
0,54,98,0
0,42,0,3
0,70,0,0
0,40,0,1
0,54,0,0
0,64,0,20
0,59,0,2
0,59,0,2
0,68,0,0
0,64,0,1
0,52,0,2
0,56,0,0
0,40,86,11
0,52,68,5
0,56,63,0
0,59,73,0
0,40,65,0
0,40,86,1
0,64,73,0
0,64,86,0
0,59,73,1
0,68,71,0
0,40,0,2
0,59,0,13
0,64,0,10
0,68,0,0
0,40,0,0
0,59,0,1
0,40,0,5
0,59,0,0
0,56,0,1
0,64,0,0
0,52,0,3
0,35,90,6
0,56,74,5
0,59,73,0
0,42,69,0
0,35,90,1
0,52,71,0
0,35,84,0
0,64,81,1
0,42,0,2
0,35,0,1
0,35,0,48
0,35,0,6
0,64,122,32
0,42,69,5
0,70,98,0
0,59,66,1
0,64,77,0
0,68,63,0
0,40,73,0
0,54,102,0
0,42,0,3
0,70,0,0
0,40,0,1
0,54,0,0
0,59,0,29
0,64,0,1
0,68,0,2
0,64,0,17
0,64,0,20
0,52,0,3
0,56,0,2
0,59,0,1
0,40,92,11
0,42,59,5
0,40,92,1
0,61,114,0
0,52,81,0
0,57,61,0
0,35,93,0
0,61,80,1
0,64,86,0
0,42,0,2
0,35,0,1
0,40,0,47
0,40,0,6
0,61,0,22
0,59,115,14
0,40,76,2
0,42,54,0
0,70,94,0
0,54,105,1
0,64,77,1
0,69,63,0
0,61,64,1
0,40,0,1
0,42,0,0
0,70,0,0
0,54,0,1
0,64,0,20
0,64,0,2
0,61,0,2
0,69,0,0
0,52,0,1
0,57,0,2
0,61,0,3
0,40,106,8
0,52,75,5
0,57,69,0
0,40,73,0
0,40,106,1
0,61,71,0
0,64,77,0
0,61,61,1
0,64,84,0
0,69,59,1
0,40,0,1
0,59,0,8
0,57,111,11
0,40,0,1
0,61,0,5
0,69,0,0
0,40,0,1
0,64,0,0
0,57,0,2
0,61,0,0
0,64,0,1
0,52,0,1
0,35,88,9
0,35,84,5
0,42,61,0
0,35,88,1
0,52,69,0
0,57,66,0
0,61,71,0
0,64,77,0
0,35,0,3
0,42,0,0
0,57,0,26
0,64,0,3
0,61,0,2
0,57,0,1
0,52,0,1
0,59,109,10
0,57,63,1
0,61,68,0
0,52,69,1
0,64,75,0
0,61,49,0
0,64,47,0
0,69,43,0
0,69,0,15
0,64,0,1
0,35,0,2
0,61,0,3
0,35,0,3
0,64,0,6
0,61,0,3
0,52,0,1
0,57,0,0
0,57,66,13
0,61,75,0
0,42,55,0
0,70,94,0
0,52,79,1
0,64,79,0
0,61,77,0
0,64,95,0
0,69,81,0
0,40,77,0
0,54,102,1
0,42,0,2
0,70,0,0
0,40,0,1
0,54,0,1
0,59,0,2
0,69,0,12
0,64,0,5
0,61,0,2
0,61,117,8
0,57,0,44
0,64,0,0
0,61,0,2
0,52,0,1
0,40,97,9
0,56,66,5
0,42,61,0
0,40,97,1
0,56,104,0
0,80,92,0
0,52,73,0
0,35,90,0
0,59,86,1
0,64,73,0
0,42,0,2
0,35,0,1
0,61,0,8
0,59,113,22
0,40,0,10
0,40,0,6
0,40,70,45
0,42,59,0
0,70,90,0
0,64,86,1
0,54,98,0
0,59,64,1
0,68,57,0
0,40,0,2
0,42,0,0
0,70,0,0
0,54,0,1
0,68,0,15
0,59,0,5
0,59,0,0
0,64,0,0
0,56,0,3
0,52,0,2
0,64,0,3
0,40,90,10
0,52,73,5
0,56,66,0
0,64,68,0
0,40,73,0
0,40,90,1
0,59,84,0
0,59,75,1
0,64,92,0
0,68,85,0
0,40,0,2
0,68,0,21
0,64,0,1
0,52,0,2
0,59,0,1
0,56,0,5
0,64,0,0
0,40,0,1
0,59,0,3
0,40,0,3
0,35,88,2
0,52,73,5
0,56,63,0
0,42,62,0
0,35,88,1
0,64,65,0
0,35,84,0
0,59,77,1
0,42,0,2
0,35,0,1
0,35,0,55
0,35,0,6
0,56,0,23
0,80,0,0
0,78,80,7
0,40,73,0
0,42,65,0
0,70,98,0
0,54,96,1
0,54,102,0
0,64,86,1
0,59,71,1
0,68,63,0
0,40,0,1
0,42,0,0
0,70,0,0
0,54,0,1
0,68,0,26
0,59,0,4
0,64,0,0
0,52,0,36
0,59,0,1
0,56,0,1
0,64,0,2
0,40,97,15
0,54,0,5
0,40,97,1
0,56,59,0
0,59,84,0
0,35,90,0
0,42,62,0
0,78,0,1
0,52,73,0
0,64,71,0
0,81,97,2
0,57,86,1
0,35,0,0
0,42,0,0
0,59,0,21
0,40,0,23
0,40,0,6
0,81,0,38
0,57,0,2
0,40,68,2
0,42,73,0
0,70,94,0
0,56,96,1
0,80,89,0
0,59,62,1
0,64,69,0
0,54,98,0
0,68,49,1
0,40,0,1
0,42,0,0
0,70,0,0
0,54,0,2
0,68,0,16
0,64,0,1
0,59,0,1
0,52,0,1
0,64,0,1
0,56,0,3
0,59,0,1
0,40,90,13
0,52,68,5
0,56,66,0
0,59,75,0
0,64,66,0
0,40,65,0
0,40,90,1
0,59,69,2
0,64,84,0
0,68,71,0
0,40,0,1
0,68,0,18
0,64,0,1
0,59,0,3
0,59,0,5
0,64,0,2
0,56,0,2
0,52,0,1
0,40,0,2
0,35,100,4
0,40,0,2
0,35,100,4
0,52,77,0
0,56,63,0
0,59,73,0
0,42,73,0
0,64,73,1
0,35,82,0
