track,note,velocity,time
0,48,100,10
0,47,99,1
0,46,104,9
0,47,105,2
0,48,101,0
0,47,104,8
0,43,107,7
0,59,77,5
0,40,81,3
0,67,89,0
0,52,84,1
0,67,82,0
0,40,104,2
0,59,70,9
0,67,84,0
0,67,73,3
0,69,92,7
0,59,84,1
0,69,77,4
0,59,73,5
0,69,74,3
0,69,68,4
0,67,84,5
0,59,76,4
0,67,76,3
0,48,103,0
0,47,111,8
0,43,104,7
0,40,84,5
0,59,82,0
0,52,83,2
0,67,87,2
0,67,81,1
0,40,102,9
0,59,75,7
0,67,78,0
0,67,74,5
0,69,93,8
0,59,78,1
0,69,81,3
0,69,73,9
0,59,67,2
0,69,65,5
0,69,0,62
0,59,0,2
0,69,0,5
0,59,75,21
0,67,86,3
0,67,79,3
0,64,111,84
0,66,108,7
0,40,0,79
0,66,0,14
0,67,103,3
0,52,0,81
0,67,0,0
0,55,69,8
0,71,83,0
0,71,78,0
0,71,109,1
0,72,103,8
0,69,111,3
0,55,0,37
0,69,72,0
0,71,0,0
0,45,68,1
0,60,64,0
0,71,0,2
0,69,61,3
0,59,62,3
0,63,58,0
0,47,76,1
0,66,82,1
0,66,79,3
0,69,0,4
0,66,100,82
0,66,0,91
0,69,99,1
0,67,104,13
0,64,103,12
0,59,0,1
0,63,0,0
0,47,0,1
0,66,0,1
0,66,0,3
0,40,86,17
0,59,77,0
0,52,81,2
0,67,89,2
0,67,84,3
0,59,68,7
0,67,78,0
0,67,72,5
0,47,105,0
0,69,86,8
0,59,78,1
0,69,81,3
0,45,104,8
0,69,73,5
0,59,68,2
0,69,64,5
0,43,109,7
0,59,73,6
0,67,82,3
0,67,80,1
0,40,104,9
0,64,108,5
0,66,105,3
0,40,0,6
0,66,0,58
0,67,97,6
0,52,0,34
0,45,80,4
0,76,83,0
0,67,73,1
0,57,80,3
0,76,76,3
0,67,0,6
0,76,100,1
0,76,103,39
0,76,0,50
0,74,106,13
0,67,0,1
0,64,77,3
0,66,76,3
0,74,70,0
0,50,77,3
0,76,0,0
0,74,62,0
0,74,0,16
0,69,99,76
0,72,72,6
0,72,62,3
0,69,0,30
0,71,99,12
0,71,0,94
0,72,94,3
0,72,0,41
0,66,0,3
0,72,0,0
0,43,76,3
0,50,0,0
0,57,0,0
0,67,79,1
0,62,72,2
0,71,82,0
0,71,72,0
0,72,0,17
0,71,100,1
0,40,87,48
0,40,0,4
0,40,84,20
0,40,0,4
0,47,90,20
0,47,0,4
0,43,91,44
0,43,0,4
0,57,75,43
0,60,83,0
0,45,102,0
0,72,77,0
0,78,75,0
0,81,74,0
0,35,97,0
0,42,45,0
0,49,50,0
0,66,72,3
0,35,0,1
0,42,0,0
0,49,0,0
0,79,117,13
0,60,0,57
0,57,0,2
0,45,0,9
0,66,0,0
0,66,67,5
0,60,68,5
0,45,97,1
0,35,70,0
0,42,39,0
0,57,61,3
0,35,0,1
0,42,0,0
0,57,72,13
0,79,0,3
0,60,74,2
0,45,104,1
0,40,86,0
0,42,44,0
0,54,53,0
0,66,76,3
0,40,0,1
0,42,0,0
0,54,0,0
0,78,116,1
0,60,0,43
0,57,0,1
0,66,0,9
0,45,0,7
0,66,55,13
0,60,68,5
0,45,97,1
0,35,66,0
0,42,35,0
0,54,30,0
0,57,59,3
0,35,0,1
0,42,0,0
0,54,0,0
0,78,0,35
0,40,63,9
0,40,0,4
0,60,0,6
0,66,0,2
0,78,110,2
0,57,0,1
0,45,0,10
0,57,67,17
0,60,78,5
0,45,100,1
0,35,94,0
0,42,46,0
0,78,0,1
0,66,69,2
0,35,0,1
0,42,0,0
0,79,115,10
0,40,52,34
0,40,0,4
0,60,0,13
0,57,0,2
0,66,0,10
0,45,0,2
0,79,0,7
0,66,59,4
0,60,58,5
0,45,100,1
0,35,67,0
0,42,34,0
0,57,52,3
0,35,0,1
0,42,0,0
0,78,119,4
0,60,0,50
0,57,0,3
0,66,0,1
0,45,0,11
0,78,0,6
0,57,69,11
0,60,77,5
0,45,107,1
0,40,82,0
0,42,47,0
0,54,58,0
0,66,69,3
0,81,115,1
0,40,0,0
0,42,0,0
0,54,0,0
0,57,0,66
0,45,0,3
0,60,0,1
0,66,0,8
0,81,0,2
0,66,56,6
0,60,70,5
0,45,102,1
0,35,67,0
0,42,43,0
0,54,33,0
0,57,56,3
0,35,0,1
0,42,0,0
0,54,0,0
0,79,115,2
0,66,0,38
0,57,0,7
0,60,0,2
0,45,0,20
0,79,0,13
0,72,0,1
0,78,0,0
0,81,0,0
0,55,73,3
0,59,78,5
0,40,107,1
0,71,78,0
0,76,69,0
0,79,65,0
0,35,100,0
0,42,46,0
0,64,68,3
0,35,0,1
0,42,0,0
0,78,118,5
0,55,0,59
0,40,0,5
0,59,0,1
0,64,0,6
0,64,58,10
0,59,63,5
0,40,98,1
0,35,74,0
0,42,39,0
0,55,59,3
0,35,0,1
0,42,0,0
0,55,71,5
0,59,75,5
0,40,102,1
0,40,91,0
0,42,45,0
0,54,56,0
0,64,74,3
0,40,0,1
0,42,0,0
0,54,0,0
0,76,111,1
0,59,113,65
0,55,0,0
0,40,0,2
0,59,0,7
0,47,108,6
0,64,0,1
0,59,107,2
0,64,64,1
0,59,61,5
0,40,100,1
0,35,70,0
0,42,35,0
0,54,37,0
0,55,66,3
0,35,0,1
0,42,0,0
0,54,0,0
0,40,62,44
0,40,0,4
0,59,0,2
0,55,0,3
0,59,0,7
0,64,0,1
0,60,107,0
0,48,101,15
0,55,74,2
0,60,110,1
0,59,79,4
0,40,103,1
0,35,100,0
0,42,50,0
0,64,70,3
0,35,0,1
0,42,0,0
0,40,49,44
0,40,0,4
0,60,0,1
0,55,0,5
0,59,0,9
0,62,107,1
0,40,0,1
0,64,0,4
0,50,104,10
0,62,101,3
0,64,53,0
0,59,65,5
0,40,94,1
0,35,71,0
0,42,40,0
0,55,55,3
0,35,0,1
0,42,0,0
0,76,0,38
0,62,0,13
0,55,0,3
0,64,0,3
0,59,0,1
0,60,112,1
0,48,112,15
0,55,72,1
0,60,117,2
0,59,76,3
0,40,108,1
0,40,91,0
0,42,50,0
0,54,50,0
0,64,76,3
0,40,0,1
0,42,0,0
0,54,0,0
0,60,0,61
0,40,0,9
0,55,0,4
0,59,113,2
0,59,0,0
0,64,0,4
0,64,66,1
0,64,0,4
0,59,61,1
0,40,105,1
0,35,74,0
0,42,41,0
0,54,38,0
0,55,59,3
0,35,0,1
0,42,0,0
0,54,0,0
0,47,108,0
0,59,115,3
0,59,0,54
0,55,0,1
0,40,0,19
0,71,0,3
0,76,0,0
0,79,0,0
0,58,71,6
0,79,118,1
0,61,76,2
0,42,102,1
0,59,0,0
0,70,77,0
0,76,68,0
0,78,67,0
0,35,94,0
0,42,47,0
0,64,64,3
0,35,0,1
0,42,0,0
0,78,107,4
0,64,53,2
0,61,57,5
0,42,107,1
0,35,66,0
0,42,38,0
0,58,56,3
0,35,0,1
0,42,0,0
0,64,0,47
0,58,0,6
0,61,0,1
0,42,0,15
0,78,0,0
0,79,119,17
0,58,70,0
0,61,74,5
0,42,106,1
0,40,83,0
0,42,47,0
0,54,50,0
0,64,69,3
0,40,0,1
0,42,0,0
0,54,0,0
0,58,0,67
0,42,0,2
0,61,0,7
0,79,0,2
0,64,0,5
0,64,63,3
0,61,63,5
0,42,99,1
0,35,74,0
0,42,37,0
0,54,30,0
0,78,117,2
0,58,68,1
0,35,0,1
0,42,0,0
0,54,0,0
0,40,69,44
0,40,0,4
0,58,0,5
0,61,0,7
0,64,0,1
0,42,0,8
0,58,77,17
0,61,74,5
0,42,96,1
0,35,95,0
0,42,43,0
0,64,75,3
0,35,0,1
0,42,0,0
0,40,55,0
0,40,0,4
0,58,0,6
0,61,0,9
0,42,0,7
0,64,0,3
0,64,54,13
0,66,79,1
0,42,100,3
0,61,60,1
0,42,101,1
0,35,75,0
0,42,43,0
0,42,103,0
0,58,58,3
0,35,0,1
0,42,0,0
0,58,0,54
0,64,0,3
0,61,0,1
0,42,0,12
0,66,0,10
0,42,0,3
0,58,72,1
0,58,69,1
0,46,92,3
0,61,77,1
0,42,102,1
0,40,89,0
0,42,51,0
0,54,56,0
0,46,93,0
0,64,70,3
0,40,0,1
0,42,0,0
0,54,0,0
0,42,0,69
0,58,0,5
0,58,0,7
0,61,0,0
0,46,0,3
0,64,0,1
0,64,60,0
0,61,68,1
0,49,99,3
0,64,0,0
0,61,66,1
0,42,105,1
0,35,66,0
0,42,40,0
0,54,31,0
0,49,86,0
0,58,56,3
0,35,0,1
0,42,0,0
0,54,0,0
0,61,0,57
0,58,0,1
0,42,0,21
0,61,0,5
0,58,69,2
0,49,0,1
0,66,85,0
0,42,107,1
0,52,105,0
0,61,75,1
0,42,111,1
0,35,100,0
0,42,50,0
0,42,105,0
0,64,64,3
0,35,0,1
0,42,0,0
0,58,0,64
0,42,0,5
0,61,0,1
0,64,0,6
0,64,55,10
0,61,65,5
0,42,103,1
0,35,67,0
0,42,42,0
0,58,63,3
0,35,0,1
0,42,0,0
0,64,0,47
0,58,0,6
0,61,0,1
0,42,0,15
0,58,67,17
0,61,69,5
0,42,102,1
0,40,90,0
0,42,47,0
0,54,55,0
0,64,73,3
0,40,0,1
0,42,0,0
0,54,0,0
0,78,0,61
0,58,0,6
0,42,0,2
0,61,0,7
0,64,0,7
0,64,61,3
0,78,114,2
0,61,66,3
0,42,103,1
0,35,70,0
0,42,38,0
0,54,34,0
0,58,64,3
0,35,0,1
0,42,0,0
0,54,0,0
0,40,62,44
0,40,0,4
0,58,0,5
0,61,0,7
0,64,0,1
0,78,0,7
0,42,0,1
0,79,110,17
0,58,71,0
0,61,75,5
0,42,104,1
0,35,97,0
0,42,44,0
0,64,67,3
0,35,0,1
0,42,0,0
0,66,0,13
0,40,52,26
0,40,0,4
0,58,0,6
0,61,0,9
0,42,0,7
0,64,0,3
0,79,0,9
0,64,50,4
0,78,120,1
0,61,61,4
0,42,100,1
0,35,73,0
0,42,38,0
0,58,57,3
0,35,0,1
0,42,0,0
0,58,0,54
0,64,0,3
0,61,0,1
0,42,0,12
0,78,0,3
0,81,105,12
0,58,71,1
0,61,80,5
0,42,97,1
0,40,88,0
0,42,45,0
0,54,49,0
0,64,73,3
0,40,0,1
0,42,0,0
0,54,0,0
0,81,0,66
0,42,0,3
0,79,110,3
0,58,0,2
0,61,0,7
0,64,0,4
0,64,59,1
0,64,0,4
0,61,64,1
0,42,99,1
0,35,73,0
0,42,39,0
0,54,38,0
0,58,64,3
0,35,0,1
0,42,0,0
0,54,0,0
0,61,0,57
0,58,0,1
0,42,0,6
0,52,0,0
0,79,0,3
0,42,0,12
0,70,0,1
0,76,0,0
0,78,0,0
0,57,70,6
0,79,111,1
0,47,105,3
0,51,110,0
0,59,77,1
0,35,105,1
0,71,72,0
0,75,61,0
0,78,59,0
0,35,100,0
0,42,51,0
0,63,62,3
0,35,0,1
0,42,0,0
0,57,0,64
0,35,0,5
0,59,0,1
0,63,0,6
0,63,57,10
0,59,59,5
0,35,105,1
0,35,68,0
0,42,38,0
0,57,62,3
0,35,0,1
0,42,0,0
0,57,64,1
0,78,112,1
0,59,73,1
0,35,107,1
0,40,82,0
0,42,44,0
0,54,55,0
0,63,76,3
0,40,0,1
0,42,0,0
0,54,0,0
0,57,0,67
0,35,0,2
0,59,0,7
0,63,0,7
0,63,69,3
0,59,65,5
0,35,101,1
0,35,67,0
0,42,38,0
0,54,54,0
0,57,67,3
0,35,0,1
0,42,0,0
0,54,0,0
0,40,68,16
0,54,33,0
0,40,0,4
0,54,0,0
0,57,0,5
0,59,0,7
0,63,0,1
0,35,0,8
0,57,69,17
0,59,76,5
0,35,101,1
0,35,93,0
0,42,50,0
0,54,50,0
0,63,76,3
0,35,0,1
0,42,0,0
0,54,0,0
0,40,48,44
0,54,34,0
0,40,0,4
0,54,0,0
0,57,0,6
0,59,0,9
0,35,0,7
0,63,0,3
0,63,51,13
0,59,60,5
0,35,104,1
0,35,66,0
0,42,38,0
0,54,58,0
0,57,53,3
0,35,0,1
0,42,0,0
0,54,0,0
0,54,38,44
0,54,0,4
0,57,0,6
0,63,0,3
0,59,0,1
0,35,0,12
0,57,73,16
0,59,77,5
0,39,95,1
0,40,84,0
0,42,50,0
0,54,55,0
0,63,68,3
0,40,0,1
0,42,0,0
0,54,0,0
0,54,36,44
0,54,0,4
0,39,0,21
0,57,0,5
0,59,0,7
0,63,0,4
0,63,65,1
0,63,0,4
0,59,68,1
0,42,104,1
0,35,68,0
0,42,39,0
0,54,57,0
0,57,56,3
0,35,0,1
0,42,0,0
0,54,0,0
0,54,31,44
0,54,0,4
0,59,0,9
0,57,0,1
0,57,77,7
0,59,75,5
0,35,106,1
0,35,95,0
0,54,54,0
0,57,52,0
0,63,69,3
0,35,0,1
0,54,0,0
0,57,0,0
0,47,0,64
0,51,0,0
0,57,0,0
0,59,0,6
0,63,0,6
0,71,0,4
0,75,0,0
0,78,0,0
0,78,0,31
0,78,113,71
0,78,0,165
0,81,107,1
0,79,116,1
0,79,0,82
0,59,87,12
0,76,90,1
0,35,0,2
0,40,103,3
0,64,63,0
0,35,100,0
0,40,90,0
0,42,42,0
0,54,56,0
0,76,71,0
0,71,79,0
0,64,87,0
0,78,111,3
0,67,80,0
0,35,0,1
0,40,0,0
0,42,0,0
0,54,0,0
0,71,0,40
0,42,39,4
0,54,27,0
0,76,50,2
0,42,0,2
0,54,0,0
0,59,67,2
0,76,0,3
0,40,98,3
0,35,84,0
0,42,43,0
0,54,37,0
0,79,52,0
0,64,77,0
0,67,75,3
0,35,0,1
0,42,0,0
0,54,0,0
0,59,0,11
0,64,0,0
0,76,109,1
0,40,0,2
0,67,0,2
0,67,65,17
0,79,0,2
0,40,97,4
0,40,57,0
0,42,37,0
0,54,30,0
0,64,68,0
0,83,61,1
0,59,65,2
0,40,0,1
0,42,0,0
0,54,0,0
0,76,0,14
0,76,0,9
0,40,0,1
0,76,0,4
0,59,0,6
0,59,85,4
0,76,93,1
0,83,0,2
0,64,0,0
0,47,109,3
0,40,84,0
0,42,50,0
0,54,63,0
0,76,78,0
0,79,70,0
0,64,89,0
0,67,0,0
0,67,81,3
0,40,0,1
0,42,0,0
0,54,0,0
0,76,109,8
0,79,0,32
0,42,37,4
0,54,29,0
0,83,61,0
0,42,0,4
0,54,0,0
0,59,0,7
0,64,0,7
0,67,0,4
0,76,0,2
0,76,0,16
0,67,76,2
0,79,83,1
0,76,0,2
0,83,0,0
0,35,70,3
0,42,51,0
0,54,34,0
0,79,65,0
0,64,69,0
0,79,53,1
0,59,69,2
0,35,0,1
0,42,0,0
0,54,0,0
0,78,100,3
0,78,0,31
0,79,0,5
0,76,66,3
0,42,38,2
0,54,32,0
0,42,0,4
0,54,0,0
0,79,118,1
0,67,0,2
0,59,0,10
0,64,0,1
0,47,0,7
0,59,79,2
0,83,86,1
0,76,0,0
0,79,0,2
0,40,98,3
0,35,101,0
0,40,87,0
0,42,51,0
0,54,56,0
0,83,77,0
0,64,81,0
0,71,67,1
0,67,88,2
0,35,0,1
0,40,0,0
0,42,0,0
0,54,0,0
0,76,51,3
0,42,40,1
0,54,23,0
0,42,0,4
0,54,0,0
0,40,0,15
0,59,0,0
0,64,0,4
0,67,0,6
0,59,65,13
0,76,0,2
0,40,98,4
0,35,80,0
0,42,47,0
0,54,40,0
0,64,66,0
0,79,56,1
0,67,70,2
0,35,0,1
0,42,0,0
0,54,0,0
0,59,0,17
0,67,0,1
0,79,0,2
0,40,0,1
0,64,0,0
0,67,52,17
0,79,0,4
0,40,98,2
0,40,57,0
0,42,33,0
0,54,30,0
0,64,71,0
0,83,62,1
0,59,63,2
0,40,0,1
0,42,0,0
0,54,0,0
0,79,110,0
0,59,86,2
0,79,77,1
0,83,0,2
0,64,0,0
0,47,107,3
0,40,83,0
0,42,42,0
0,54,63,0
0,79,63,0
0,76,82,0
0,64,81,0
0,67,0,0
