track,note,velocity,time
0,45,127,460
0,57,127,0
0,50,126,83
0,62,126,0
0,52,126,76
0,64,127,0
0,38,101,0
0,50,127,0
0,57,127,0
0,66,126,0
0,62,101,0
0,66,101,0
0,62,111,0
0,66,111,0
0,57,89,9
0,62,105,5
0,64,104,1
0,66,100,1
0,64,96,1
0,62,93,1
0,64,101,1
0,59,90,1
0,67,100,0
0,59,110,0
0,67,110,0
0,62,85,1
0,59,85,1
0,62,88,1
0,62,90,1
0,69,101,0
0,62,110,0
0,69,111,0
0,59,89,1
0,81,123,51
0,57,77,1
0,85,123,4
0,86,124,6
0,88,118,14
0,89,124,21
0,90,125,3
0,93,123,16
0,89,123,18
0,90,125,2
0,81,126,8
0,83,127,21
0,84,127,12
0,57,93,91
0,62,92,1
0,64,105,1
0,64,71,1
0,68,101,0
0,71,101,0
0,68,111,0
0,71,111,0
0,66,105,1
0,64,96,1
0,62,97,1
0,64,97,1
0,62,84,1
0,59,88,1
0,57,89,1
0,47,91,1
0,54,91,0
0,59,91,0
0,62,90,0
0,66,91,0
0,71,111,0
0,66,100,0
0,66,111,0
0,59,73,1
0,52,90,1
0,64,91,0
0,68,91,0
0,64,110,0
0,54,74,1
0,62,74,0
0,66,75,0
0,66,111,0
0,54,96,113
0,35,121,0
0,47,113,0
0,54,101,0
0,59,112,0
0,62,104,0
0,59,113,0
0,59,71,0
0,62,70,0
0,66,71,0
0,71,70,0
0,35,125,0
0,40,61,0
0,42,109,0
0,54,81,0
0,54,20,20
0,40,29,0
0,42,89,0
0,47,92,23
0,40,76,0
0,59,104,38
0,40,92,0
0,42,120,0
0,54,113,0
0,42,117,56
0,47,109,0
0,54,101,0
0,59,109,0
0,62,101,0
0,61,101,0
0,40,124,0
0,42,124,0
0,54,120,0
0,54,64,19
0,62,120,0
0,35,93,0
0,42,84,0
0,54,60,0
0,54,77,46
0,35,124,0
0,40,25,0
0,42,105,0
0,54,72,0
0,47,105,50
0,54,97,0
0,59,108,0
0,62,97,0
0,62,121,0
0,40,121,0
0,42,121,0
0,54,125,0
0,42,104,10
0,54,61,0
0,64,112,0
0,35,76,0
0,40,53,0
0,42,109,0
0,54,45,0
0,35,116,8
0,47,104,0
0,54,97,0
0,59,109,0
0,62,92,0
0,66,116,0
0,35,124,0
0,40,121,0
0,42,117,0
0,54,77,0
0,54,60,20
0,40,36,0
0,42,104,0
0,54,57,0
0,47,89,3
0,40,65,0
0,54,77,38
0,66,116,0
0,40,81,0
0,42,113,0
0,54,112,0
0,42,108,48
0,47,96,0
0,54,93,0
0,59,96,0
0,62,93,0
0,66,108,0
0,40,125,0
0,42,121,0
0,54,125,0
0,45,100,18
0,52,109,0
0,57,108,0
0,61,112,0
0,67,117,0
0,57,71,0
0,61,70,0
0,64,71,0
0,69,70,0
0,35,117,0
0,42,101,0
0,54,73,0
0,33,121,10
0,69,120,0
0,35,125,0
0,40,44,0
0,42,108,0
0,54,73,0
0,52,112,50
0,57,104,0
0,61,101,0
0,40,125,0
0,42,117,0
0,54,124,0
0,33,117,30
0,45,88,0
0,66,120,0
0,35,77,0
0,40,57,0
0,42,97,0
0,54,69,0
0,35,109,0
0,47,104,0
0,54,101,0
0,59,109,0
0,62,100,0
0,59,70,0
0,62,70,0
0,66,70,0
0,71,71,0
0,35,125,0
0,40,124,0
0,42,112,0
0,54,57,0
0,54,40,5
0,59,97,0
0,40,33,0
0,42,93,0
0,54,56,0
0,47,80,0
0,40,65,0
0,54,49,38
0,59,77,0
0,62,109,0
0,40,76,0
0,42,121,0
0,54,125,0
0,42,113,54
0,47,104,0
0,54,100,0
0,59,109,0
0,62,104,0
0,64,112,0
0,40,124,0
0,42,116,0
0,54,125,0
0,54,48,15
0,66,104,0
0,35,120,0
0,42,108,0
0,54,68,0
0,47,84,6
0,54,48,12
0,59,88,0
0,62,72,0
0,35,125,0
0,40,49,0
0,42,105,0
0,54,68,0
0,47,108,9
0,54,100,0
0,59,109,0
0,62,105,0
0,64,108,0
0,40,121,0
0,42,121,0
0,54,125,0
0,42,112,26
0,54,73,0
0,62,109,0
0,35,89,0
0,40,76,0
0,42,96,0
0,54,57,0
0,35,97,3
0,47,104,0
0,54,100,0
0,59,104,0
0,62,101,0
0,66,113,0
0,35,125,0
0,40,121,0
0,42,121,0
0,54,60,0
0,54,44,5
0,64,100,0
0,40,48,0
0,42,100,0
0,54,61,0
0,47,88,16
0,40,57,0
0,54,85,38
0,59,89,0
0,62,108,0
0,40,76,0
0,42,117,0
0,54,124,0
0,42,109,44
0,47,104,0
0,54,100,0
0,59,108,0
0,62,97,0
0,66,109,0
0,40,125,0
0,42,120,0
0,54,125,0
0,54,56,8
0,35,112,0
0,42,97,0
0,54,64,0
0,59,97,43
0,35,125,0
0,40,48,0
0,42,96,0
0,54,69,0
0,47,104,47
0,54,92,0
0,59,104,0
0,62,100,0
0,40,120,0
0,42,116,0
0,54,124,0
0,42,109,11
0,54,68,0
0,54,100,0
0,35,85,0
0,40,52,0
0,42,96,0
0,54,60,0
0,35,108,1
0,47,100,0
0,54,100,0
0,59,108,0
0,62,93,0
0,59,104,0
0,35,124,0
0,40,120,0
0,42,116,0
0,54,68,0
0,54,48,21
0,40,37,0
0,42,97,0
0,54,72,0
0,47,92,14
0,40,48,0
0,59,92,38
0,59,112,0
0,40,80,0
0,42,104,0
0,54,121,0
0,42,117,1
0,47,105,0
0,54,93,0
0,59,104,0
0,62,96,0
0,61,96,0
0,40,125,0
0,42,116,0
0,54,124,0
0,54,81,12
0,62,112,0
0,35,93,0
0,42,97,0
0,54,72,0
0,47,89,15
0,35,125,0
0,40,61,0
0,42,105,0
0,54,81,0
0,54,101,34
0,59,108,0
0,62,100,0
0,62,116,0
0,40,124,0
0,42,116,0
0,54,125,0
0,42,113,4
0,47,92,0
0,64,112,0
0,35,84,0
0,40,52,0
0,42,80,0
0,54,72,0
0,35,116,9
0,47,96,0
0,54,96,0
0,59,108,0
0,62,96,0
0,66,112,0
0,35,124,0
0,40,120,0
0,42,116,0
0,54,68,0
0,54,44,10
0,40,49,0
0,42,97,0
0,54,80,0
0,47,88,11
0,40,57,0
0,59,92,0
0,62,31,0
0,66,117,0
0,40,84,0
0,42,109,0
0,54,125,0
0,42,109,24
0,47,97,0
0,66,113,0
0,40,124,0
0,42,120,0
0,54,125,0
0,45,93,1
0,52,108,0
0,57,113,0
0,61,100,0
0,67,113,0
0,57,70,0
0,61,70,0
0,64,71,0
0,69,71,0
0,35,101,0
0,42,104,0
0,54,64,0
0,33,113,6
0,69,108,0
0,35,125,0
0,40,49,0
0,42,109,0
0,54,68,0
0,52,104,27
0,57,105,0
0,61,93,0
0,40,124,0
0,42,120,0
0,54,125,0
0,33,108,24
0,45,89,0
0,66,120,0
0,35,88,0
0,40,60,0
0,42,96,0
0,54,64,0
0,35,120,4
0,47,105,0
0,54,85,0
0,59,109,0
0,62,96,0
0,59,70,0
0,62,70,0
0,66,70,0
0,71,71,0
0,35,125,0
0,40,124,0
0,42,120,0
0,54,56,0
0,54,73,10
0,59,96,0
0,40,64,0
0,42,96,0
0,54,72,0
0,47,68,2
0,40,60,0
0,54,61,11
0,59,81,0
0,62,109,0
0,40,84,0
0,42,100,0
0,54,124,0
0,42,109,46
0,47,100,0
0,54,96,0
0,59,109,0
0,62,101,0
0,64,112,0
0,40,124,0
0,42,120,0
0,54,124,0
0,54,60,1
0,66,104,0
0,35,88,0
0,42,92,0
0,54,76,0
0,47,89,11
0,54,72,44
0,59,92,0
0,62,57,0
0,35,125,0
0,40,68,0
0,42,108,0
0,54,76,0
0,47,97,18
0,54,101,0
0,59,108,0
0,62,92,0
0,64,113,0
0,40,125,0
0,42,121,0
0,54,124,0
0,42,105,7
0,47,81,0
0,62,109,0
0,35,52,0
0,40,49,0
0,42,97,0
0,54,69,0
0,35,108,11
0,47,101,0
0,54,97,0
0,59,109,0
0,62,92,0
0,66,116,0
0,35,125,0
0,40,125,0
0,42,117,0
0,54,77,0
0,54,40,15
0,64,108,0
0,40,64,0
0,42,92,0
0,54,45,0
0,47,89,17
0,40,60,0
0,59,89,38
0,62,73,0
0,62,104,0
0,40,84,0
0,42,120,0
0,54,120,0
0,42,109,51
0,47,104,0
0,54,100,0
0,59,109,0
0,62,96,0
0,66,117,0
0,40,125,0
0,42,92,0
0,54,124,0
0,40,68,23
0,54,37,5
0,42,113,0
0,54,64,0
0,40,28,5
0,40,81,14
0,40,105,26
0,54,81,4
0,42,104,0
0,54,73,0
0,40,104,34
0,33,112,2
0,47,109,0
0,54,101,0
0,59,105,0
0,62,96,0
0,46,113,0
0,54,120,0
0,35,109,0
0,54,49,0
0,66,120,0
0,35,92,0
0,54,68,0
0,42,124,10
0,49,112,0
0,54,101,0
0,58,101,0
0,61,109,0
0,66,113,0
0,42,125,0
0,54,127,0
0,54,71,0
0,61,70,0
0,70,70,0
0,35,124,0
0,40,124,0
0,46,125,0
0,54,125,0
0,54,61,44
0,42,125,12
0,49,108,0
0,54,101,0
0,58,113,0
0,61,116,0
0,61,104,0
0,42,124,0
0,54,126,0
0,35,124,0
0,40,124,0
0,46,120,0
0,54,124,0
0,61,112,9
0,54,36,0
0,42,124,57
0,49,112,0
0,54,104,0
0,58,116,0
0,61,121,0
0,61,120,0
0,42,124,0
0,54,125,0
0,35,124,0
0,40,125,0
0,46,120,0
0,54,124,0
0,62,108,18
0,54,57,0
0,42,124,86
0,49,116,0
0,54,104,0
0,58,117,0
0,61,125,0
0,42,125,0
0,54,127,0
0,35,125,0
0,40,124,0
0,46,116,0
0,54,124,0
0,64,108,41
0,54,57,0
0,42,124,86
0,49,112,0
0,54,97,0
0,58,108,0
0,61,112,0
0,42,123,0
0,54,126,0
0,35,124,0
0,40,125,0
0,46,117,0
0,54,124,0
0,54,48,34
0,54,127,0
0,42,124,66
0,49,112,0
0,54,100,0
0,58,112,0
0,61,116,0
0,42,125,0
0,54,125,0
0,35,124,0
0,40,124,0
0,46,121,0
0,54,124,0
0,58,127,0
0,54,76,41
0,59,126,0
0,42,125,62
0,49,109,0
0,54,100,0
0,58,117,0
0,61,117,0
0,42,123,0
0,54,124,0
0,35,121,0
0,40,124,0
0,46,93,0
0,54,124,0
0,61,126,0
0,66,127,20
0,35,125,0
0,46,121,0
0,54,60,0
0,42,124,9
0,49,108,0
0,54,105,0
0,58,113,0
0,61,116,0
0,42,123,0
0,54,125,0
0,71,127,0
0,40,124,0
0,54,124,0
0,66,112,16
0,73,126,0
0,35,112,0
0,46,92,0
0,54,56,0
0,35,124,13
0,47,96,0
0,54,101,0
0,59,120,0
0,62,109,0
0,66,120,0
0,47,124,0
0,59,127,0
0,74,126,0
0,59,71,0
0,62,70,0
0,71,70,0
0,35,124,0
0,40,124,0
0,46,121,0
0,54,125,0
0,54,64,12
0,35,125,10
0,47,104,0
0,54,104,0
0,59,113,0
0,62,104,0
0,59,104,0
0,47,125,0
0,59,126,0
0,35,124,0
0,40,124,0
0,46,121,0
0,54,124,0
0,59,113,43
0,54,40,0
0,35,125,52
0,47,104,0
0,54,97,0
0,59,113,0
0,62,96,0
0,59,112,0
0,47,124,0
0,59,125,0
0,35,125,0
0,40,124,0
0,46,121,0
0,54,125,0
0,61,108,25
0,54,33,0
0,35,124,75
0,47,108,0
0,54,93,0
0,59,108,0
0,62,93,0
0,47,125,0
0,59,124,0
0,35,125,0
0,40,124,0
0,46,120,0
0,54,124,0
0,62,120,33
0,54,72,0
0,35,124,72
0,47,96,0
0,54,96,0
0,59,108,0
0,62,100,0
0,47,125,0
0,59,124,0
0,35,124,0
0,40,124,0
0,46,121,0
0,54,125,0
0,54,69,44
0,54,126,0
0,35,124,65
0,47,112,0
0,54,100,0
0,59,113,0
0,62,101,0
0,47,125,0
0,59,126,0
0,35,124,0
0,40,125,0
0,46,125,0
0,54,125,0
0,59,127,0
0,54,68,12
0,61,127,0
0,35,117,67
0,47,112,0
0,54,96,0
0,59,109,0
0,62,101,0
0,47,125,0
0,59,126,0
0,35,117,0
0,40,124,0
0,46,92,0
0,54,124,0
0,62,127,0
0,66,126,5
0,35,124,0
0,46,125,0
0,54,56,0
0,35,125,1
0,47,109,0
0,54,93,0
0,59,109,0
0,62,97,0
0,47,124,0
0,59,126,0
0,73,127,0
0,40,124,0
0,54,124,0
0,62,113,9
0,74,127,0
0,35,108,0
0,46,93,0
0,54,64,0
0,40,124,11
0,52,108,0
0,56,105,0
0,59,108,0
0,64,105,0
0,64,117,0
0,40,124,0
0,52,125,0
0,76,127,0
0,52,70,0
0,64,70,0
0,68,70,0
0,35,124,0
0,40,124,0
0,46,120,0
0,54,124,0
0,54,64,8
0,40,124,45
0,52,109,0
0,56,105,0
0,59,108,0
0,64,101,0
0,64,112,0
0,40,122,0
0,52,124,0
0,35,124,0
0,40,125,0
0,46,124,0
0,54,124,0
0,62,108,19
0,54,64,0
0,40,125,44
0,52,109,0
0,56,105,0
0,59,109,0
0,64,96,0
0,64,117,0
0,40,125,0
0,52,127,0
0,35,124,0
0,40,125,0
0,46,125,0
0,54,124,0
0,62,121,16
0,54,65,0
0,40,60,46
0,40,124,18
0,52,108,0
0,56,101,0
0,59,109,0
0,64,89,0
0,40,124,0
0,52,124,0
0,40,124,0
0,46,125,0
0,54,125,0
0,66,113,42
0,35,124,0
0,54,64,0
0,42,124,66
0,54,100,0
0,58,100,0
0,61,109,0
0,66,109,0
0,42,126,0
0,54,127,0
0,54,70,0
0,61,70,0
0,66,70,0
0,70,71,0
0,40,125,0
0,42,124,0
0,54,125,0
0,66,116,83
0,64,108,96
0,62,112,40
0,61,120,12
0,35,124,31
0,47,125,0
0,54,101,0
0,62,100,0
0,59,112,0
0,59,71,0
0,62,71,0
0,66,70,0
0,71,70,0
0,35,124,0
0,40,125,0
0,46,116,0
0,54,124,0
0,47,112,34
0,54,100,0
0,59,117,0
0,62,101,0
0,59,116,0
0,62,127,0
0,66,126,0
0,71,127,0
0,74,127,0
0,59,70,0
0,62,71,0
0,66,70,0
0,71,70,0
0,40,81,0
0,46,117,0
0,54,124,0
0,59,127,0
0,62,126,0
0,59,112,0
0,62,127,0
0,66,126,0
0,71,127,0
0,74,127,0
0,59,71,0
0,62,71,0
0,66,70,0
0,71,70,0
0,54,49,0
0,59,127,0
0,62,127,0
0,40,124,24
0,52,105,0
0,56,85,0
0,59,88,0
0,64,89,0
0,56,120,0
0,64,126,0
0,68,127,0
0,71,127,0
0,76,126,0
0,52,70,0
0,59,71,0
0,64,70,0
0,68,71,0
0,35,112,0
0,40,92,0
0,42,109,0
0,54,105,0
0,59,127,0
0,64,126,0
0,40,124,22
0,52,113,0
0,56,97,0
0,59,104,0
0,64,85,0
0,56,116,0
0,64,126,0
0,68,127,0
0,71,127,0
0,76,126,0
0,52,70,0
0,59,70,0
0,64,70,0
0,68,70,0
0,35,125,0
0,40,124,0
0,42,117,0
0,54,125,0
0,59,127,0
0,64,127,0
0,35,124,30
0,47,113,0
0,54,104,0
0,59,109,0
0,62,93,0
0,59,116,0
0,62,127,0
0,66,126,0
0,71,127,0
0,74,126,0
0,59,34,0
0,62,34,0
0,66,34,0
0,71,34,0
0,35,125,0
0,40,124,0
0,42,124,0
0,54,125,0
0,59,126,0
0,62,127,0
0,35,52,28
0,35,25,0
0,40,52,0
0,42,64,0
0,54,21,0
0,35,80,0
0,47,80,0
0,59,64,0
0,62,41,0
0,35,48,0
0,40,64,0
0,42,88,0
0,54,53,0
0,35,93,0
0,47,73,0
0,54,60,0
0,59,85,0
0,62,28,0
0,35,76,0
0,40,100,0
0,42,105,0
0,54,72,0
0,71,39,9
0,73,45,5
0,40,52,10
0,35,103,0
0,47,96,0
0,54,85,0
0,59,96,0
0,62,77,0
0,74,51,0
0,35,100,0
0,42,112,0
0,54,101,0
0,40,88,0
0,40,92,15
0,40,120,22
0,35,109,0
0,47,104,0
0,54,96,0
0,59,104,0
0,62,80,0
0,35,121,0
