track,note,velocity,time
2,67,70,348
2,79,110,0
2,74,80,0
2,76,100,0
2,67,80,864
2,79,100,0
2,74,90,0
2,74,90,48
2,74,90,8
2,76,90,0
2,67,60,740
2,79,110,0
2,74,90,12
2,74,90,96
2,76,90,0
2,76,105,0
2,76,100,0
2,74,100,0
2,74,100,12
2,76,110,0
2,72,90,32
2,71,90,0
2,71,90,0
2,69,90,0
2,69,90,108
2,69,90,8
2,71,100,8
2,72,110,8
2,76,100,0
2,77,96,12
2,74,95,0
2,72,90,0
2,76,100,12
2,76,110,0
2,74,90,0
2,67,80,196
2,79,110,8
2,74,100,16
2,76,100,8
2,67,80,968
2,79,110,0
2,81,110,0
2,76,100,104
2,74,90,0
2,72,90,0
2,67,80,776
2,79,100,0
2,74,90,12
2,74,100,0
2,76,100,0
2,76,110,0
2,76,100,1088
2,74,100,12
2,74,100,12
2,76,100,12
2,72,100,8
2,71,90,8
2,69,80,8
2,69,100,576
2,69,100,8
2,71,100,8
2,72,100,8
2,76,110,0
2,76,110,8
2,77,100,0
2,74,100,0
2,72,100,0
2,76,100,12
2,76,110,0
2,74,110,0
2,76,110,0
2,76,110,192
2,74,105,0
2,76,110,0
2,77,120,0
2,76,110,12
2,74,110,0
2,76,115,0
2,74,110,8
2,67,96,0
2,74,110,8
2,76,115,8
2,74,110,12
2,72,110,8
2,69,100,8
2,76,120,8
2,74,107,352
2,76,110,8
2,77,120,0
2,76,110,12
2,74,110,8
2,81,120,0
2,79,110,8
2,81,110,448
2,84,110,8
2,81,125,0
2,67,90,196
2,79,110,0
2,74,100,16
2,76,100,8
2,67,90,960
2,79,100,0
2,81,106,12
2,76,100,80
2,74,90,0
2,72,90,0
2,67,90,776
2,79,110,0
2,74,96,12
2,74,100,48
2,74,90,8
2,76,100,8
2,76,106,8
2,76,100,872
2,74,100,12
2,74,100,12
2,76,110,12
2,72,100,8
2,71,100,8
2,69,90,8
2,69,90,576
2,69,95,8
2,71,100,8
2,72,100,8
2,76,100,12
2,77,100,12
2,74,95,0
2,72,100,0
2,76,100,12
2,76,120,0
2,76,110,0
2,76,110,192
2,74,105,0
2,76,110,0
2,77,120,0
2,76,110,12
2,74,110,0
2,76,115,0
2,74,110,8
2,67,96,0
2,74,110,8
2,76,115,8
2,74,110,12
2,72,110,8
2,69,100,8
2,76,120,8
2,74,107,352
2,76,110,8
2,77,120,0
2,76,110,12
2,74,110,8
2,81,120,0
2,79,110,8
2,81,110,448
2,84,110,8
2,81,125,0
2,67,90,196
2,79,110,0
2,74,100,16
2,76,100,8
2,67,100,876
2,79,100,0
2,81,100,0
2,76,100,64
2,74,90,0
2,72,90,0
2,67,90,776
2,79,110,0
2,74,90,12
2,74,100,64
2,76,110,8
2,76,120,8
2,76,110,0
2,74,110,0
2,74,100,12
2,76,110,0
2,72,100,32
2,71,100,0
2,71,100,0
2,69,100,0
2,69,100,108
2,69,90,8
2,71,100,8
2,72,110,8
2,76,110,40
2,77,110,12
2,74,100,0
2,72,100,0
2,76,110,12
2,76,110,0
2,74,90,0
2,67,90,1068
2,79,110,0
2,74,100,16
2,76,110,8
2,67,90,960
2,79,110,0
2,81,100,0
2,76,100,96
2,74,100,0
2,72,90,0
2,67,90,776
2,79,110,0
2,74,100,12
2,74,100,64
2,74,100,8
2,76,105,8
2,76,110,8
2,76,110,0
2,74,110,0
2,74,100,12
2,76,110,12
2,72,100,8
2,71,100,8
2,69,90,8
2,69,100,480
2,69,95,8
2,71,100,8
2,72,110,8
2,76,110,12
2,77,110,12
2,74,110,0
2,72,100,0
2,76,100,12
2,76,110,0
2,76,110,0
2,76,110,192
2,74,105,0
2,76,110,0
2,77,120,0
2,76,110,12
2,74,110,0
2,76,115,0
2,74,110,8
2,67,96,0
2,74,110,8
2,76,115,8
2,74,110,12
2,72,110,8
2,69,100,8
2,76,120,8
2,74,107,352
2,76,110,8
2,77,120,0
2,76,110,12
2,74,110,8
2,81,120,0
2,79,110,8
2,81,110,304
2,69,80,0
2,84,110,8
2,72,80,0
2,81,110,8
2,69,80,0
2,84,110,0
2,72,120,0
2,81,110,0
2,69,120,0
2,79,100,16
2,67,100,0
2,67,90,4160
2,79,110,0
2,74,100,16
2,76,110,8
2,67,90,960
2,79,110,0
2,81,100,0
2,76,100,96
2,74,100,0
2,72,90,0
2,67,90,776
2,79,110,0
2,74,100,12
2,74,100,64
2,74,100,8
2,76,105,8
2,76,110,8
2,76,110,0
2,74,110,0
2,74,100,12
2,76,110,12
2,72,100,8
2,71,100,8
2,69,90,8
2,69,100,480
2,69,95,8
2,71,100,8
2,72,110,8
2,76,110,12
2,77,110,12
2,74,110,0
2,72,100,0
2,76,110,12
2,76,110,0
2,74,92,0
2,67,90,1068
2,79,110,0
2,74,100,16
2,76,110,8
2,67,90,960
2,79,110,0
2,81,100,0
2,76,100,96
2,74,100,0
2,72,90,0
2,67,90,776
2,79,110,0
2,74,100,12
2,74,100,64
2,74,100,8
2,76,105,8
2,76,110,8
2,76,110,0
2,74,110,0
2,74,100,1
2,76,110,12
2,72,100,8
2,71,100,8
2,69,90,8
2,69,100,127
2,69,95,8
2,71,100,8
2,72,110,8
2,76,110,12
2,77,110,12
2,74,110,0
2,72,100,0
2,76,110,12
2,76,110,0
2,74,92,0
3,76,110,0
3,74,110,0
3,76,110,0
3,77,110,0
3,77,110,0
3,76,110,0
3,74,110,0
3,81,110,0
3,79,110,0
3,86,110,0
3,84,110,16
3,86,110,8
3,84,110,8
3,67,100,288
3,79,100,0
3,74,100,0
3,74,100,0
3,76,90,0
3,67,100,320
3,79,100,0
3,74,100,0
3,74,100,0
3,76,90,0
3,74,100,0
3,76,100,0
3,67,100,288
3,79,100,0
3,74,100,0
3,74,100,0
3,76,90,0
3,67,100,320
3,79,100,0
3,74,100,0
3,74,100,0
3,76,90,0
3,74,100,0
3,76,100,0
3,53,110,0
3,53,110,0
3,53,110,24
3,53,110,24
3,55,110,0
3,57,110,0
3,53,110,0
3,55,110,8
3,83,125,0
3,81,110,0
3,79,90,0
3,79,110,0
3,76,110,0
3,74,90,0
3,74,125,0
3,72,110,0
3,69,90,0
3,69,110,0
3,64,90,0
3,67,120,0
3,69,80,32
3,69,110,0
3,64,100,0
3,62,115,0
3,57,100,0
3,67,120,0
3,62,120,0
3,60,120,0
3,67,120,0
3,60,99,56
3,71,121,0
3,67,122,0
3,62,122,0
3,71,122,0
3,67,99,56
3,74,123,0
3,72,123,0
3,67,124,0
3,74,124,0
3,71,99,60
3,79,125,0
3,74,125,0
3,72,126,0
3,79,126,0
3,79,100,4
3,74,100,0
3,74,100,0
3,76,90,0
3,67,100,320
3,79,100,0
3,74,100,0
3,74,100,0
3,76,90,0
3,74,100,0
3,76,100,0
3,67,100,288
3,79,100,0
3,74,100,0
3,74,100,0
3,76,90,0
3,67,100,320
3,79,100,0
3,74,100,0
3,74,100,0
3,76,90,0
3,74,100,0
3,76,100,0
3,76,100,384
3,74,100,0
3,74,100,0
3,76,100,8
3,72,100,8
3,76,100,0
3,74,100,0
3,76,100,0
3,77,100,0
3,77,100,0
3,76,100,0
3,74,100,0
3,81,100,0
3,79,100,0
3,86,96,0
3,84,96,16
3,86,96,8
3,84,96,8
3,53,110,0
3,53,110,0
3,53,110,24
3,53,110,24
3,55,110,0
3,57,110,0
3,53,110,0
3,76,110,0
3,77,110,0
3,74,99,0
3,76,110,0
3,67,99,0
3,79,110,0
3,74,110,0
3,77,110,0
3,79,110,0
3,76,99,0
3,77,110,0
3,65,99,0
3,77,110,0
3,72,110,0
3,75,110,0
3,77,110,0
3,74,99,0
3,75,110,0
3,68,99,0
3,75,110,0
3,72,110,0
3,67,120,0
3,62,120,0
3,60,120,0
3,67,120,0
3,60,99,144
3,71,121,0
3,67,122,0
3,62,122,0
3,71,122,0
3,67,99,144
3,74,123,0
3,72,123,0
3,67,124,0
3,74,124,0
3,71,99,144
3,79,125,0
3,74,125,0
3,72,126,0
3,79,126,0
3,76,110,0
3,74,110,0
3,72,110,0
3,71,110,0
3,72,110,0
3,74,110,0
3,69,110,0
3,67,100,4
3,79,100,0
3,74,100,0
3,74,100,0
3,76,90,0
3,67,100,320
3,79,100,0
3,74,100,0
3,74,100,0
3,76,90,0
3,74,100,0
3,76,100,0
3,67,100,288
3,79,100,0
3,74,100,0
3,74,100,0
3,76,90,0
3,67,100,320
3,79,100,0
3,74,100,0
3,74,100,0
3,76,90,0
3,74,100,0
3,76,100,0
3,76,100,384
3,74,100,0
3,74,100,0
3,76,100,8
3,72,100,8
3,59,90,0
3,56,90,0
3,57,90,8
3,52,90,0
3,59,90,104
3,56,90,0
3,60,90,104
3,56,90,0
3,62,90,104
3,59,90,0
3,76,110,0
3,74,100,0
3,71,90,0
3,69,97,96
3,64,110,96
3,57,100,0
3,53,110,4
3,53,110,0
3,53,110,24
3,53,110,24
3,55,110,0
3,57,110,0
3,53,110,0
3,55,110,8
3,67,100,0
3,62,100,0
3,60,101,0
3,67,102,0
3,62,103,0
3,60,103,0
3,67,104,0
3,60,105,0
3,71,106,0
3,67,107,0
3,62,107,0
3,71,110,0
3,67,111,56
3,74,112,0
3,72,113,0
3,67,114,0
3,74,115,0
3,72,115,0
3,67,116,0
3,74,117,0
3,71,118,0
3,79,119,0
3,74,119,0
3,72,120,0
3,79,121,0
3,79,100,4
3,74,100,0
3,74,100,0
3,76,90,0
3,67,100,320
3,79,100,0
3,74,100,0
3,74,100,0
3,76,90,0
3,74,100,0
3,76,100,0
3,67,100,288
3,79,100,0
3,74,100,0
3,74,100,0
3,76,90,0
3,67,100,320
3,79,100,0
3,74,100,0
3,74,100,0
3,76,90,0
3,74,100,0
3,76,100,0
3,76,100,384
3,74,100,0
3,74,100,0
3,76,100,8
3,72,100,8
3,67,100,1064
3,79,100,0
3,74,100,0
3,74,100,0
3,76,90,0
3,67,100,320
3,79,100,0
3,74,100,0
3,74,100,0
3,76,90,0
3,74,100,0
3,76,100,0
3,67,100,288
3,79,100,0
3,74,100,0
3,74,100,0
3,76,90,0
3,67,100,320
3,79,100,0
3,74,100,0
3,74,100,0
3,76,90,0
3,74,100,0
3,76,100,0
3,76,100,34
3,74,100,0
3,74,100,0
3,76,100,8
3,72,100,8
4,60,100,192
4,57,100,0
4,52,100,0
4,45,100,0
4,60,100,120
4,57,100,0
4,52,100,0
4,45,100,0
4,60,100,120
4,57,100,0
4,52,100,0
4,45,100,0
4,60,100,120
4,57,100,0
4,52,100,0
4,45,100,0
4,60,100,120
4,57,100,0
4,52,100,0
4,45,100,0
4,60,100,120
4,57,100,0
4,52,100,0
4,45,100,0
4,59,100,120
4,55,100,0
4,50,100,0
4,43,100,0
4,59,100,120
4,55,100,0
4,50,100,0
4,43,100,0
4,59,100,120
4,55,100,0
4,47,100,0
4,40,100,0
4,59,100,120
4,55,100,0
4,47,100,0
4,40,100,0
4,59,100,120
4,55,100,0
4,47,100,0
4,40,100,0
4,59,100,120
4,55,100,0
4,47,100,0
4,40,100,0
4,60,100,120
4,57,100,0
4,48,100,0
4,41,100,0
4,60,100,120
4,57,100,0
4,48,100,0
4,41,100,0
4,55,100,120
4,59,100,0
4,50,100,0
4,43,100,0
4,55,100,120
4,59,100,0
4,50,100,0
4,43,100,0
4,60,100,120
4,57,100,0
4,52,100,0
4,45,100,0
4,60,100,120
4,57,100,0
4,52,100,0
4,45,100,0
4,60,100,120
4,57,100,0
4,52,100,0
4,45,100,0
4,60,100,120
4,57,100,0
4,52,100,0
4,45,100,0
4,60,100,120
4,57,100,0
4,52,100,0
4,45,100,0
4,60,100,120
4,57,100,0
4,52,100,0
4,45,100,0
4,59,100,120
4,55,100,0
4,50,100,0
4,43,100,0
4,59,100,120
4,55,100,0
4,50,100,0
4,43,100,0
4,59,100,120
4,55,100,0
4,47,100,0
4,40,100,0
4,59,100,120
4,55,100,0
4,47,100,0
4,40,100,0
4,59,100,120
4,55,100,0
4,47,100,0
4,40,100,0
4,59,100,120
4,55,100,0
4,47,100,0
4,40,100,0
4,60,100,120
4,57,100,0
4,48,100,0
4,41,100,0
4,60,100,120
4,57,100,0
4,48,100,0
4,41,100,0
4,60,100,120
4,57,100,0
4,48,100,0
4,41,100,0
4,60,100,120
4,57,100,0
4,48,100,0
4,41,100,0
4,60,110,56
4,57,110,0
4,48,110,0
4,41,110,0
4,60,110,32
4,57,110,0
4,48,110,0
4,41,110,0
4,60,82,0
4,57,82,0
4,48,82,0
4,41,82,0
4,45,110,100
4,47,110,144
4,48,110,144
4,50,110,144
4,64,110,9264
4,60,110,0
4,57,110,0
4,64,110,120
4,60,110,0
4,57,110,0
4,64,110,120
4,60,110,0
4,57,110,0
4,64,110,120
4,60,110,0
4,57,110,0
4,65,110,120
4,62,110,0
4,57,110,0
4,65,110,120
4,62,110,0
4,57,110,0
4,62,110,120
4,59,110,0
4,55,110,0
4,62,110,120
4,59,110,0
4,55,110,0
4,59,110,120
4,55,110,0
4,52,110,0
4,59,110,120
4,55,110,0
4,52,110,0
4,59,110,120
4,55,110,0
4,52,110,0
4,59,110,120
4,55,110,0
4,52,110,0
4,60,110,120
4,57,110,0
4,53,110,0
4,52,110,0
4,60,110,120
4,57,110,0
4,53,110,0
4,52,110,0
4,62,110,120
4,59,110,0
4,55,110,0
4,62,110,120
4,59,110,0
4,55,110,0
4,64,110,120
4,60,110,0
4,57,110,0
4,64,110,120
4,60,110,0
4,57,110,0
4,64,110,120
4,60,110,0
4,57,110,0
4,64,110,120
4,60,110,0
4,57,110,0
4,65,110,120
4,62,110,0
4,57,110,0
4,65,110,120
4,62,110,0
4,57,110,0
4,62,110,120
4,59,110,0
4,55,110,0
4,62,110,120
4,59,110,0
4,55,110,0
4,59,110,120
4,55,110,0
4,52,110,0
4,59,110,120
4,55,110,0
4,52,110,0
4,59,110,120
4,55,110,0
4,52,110,0
4,59,110,120
4,55,110,0
4,52,110,0
4,52,110,120
4,60,110,0
4,57,110,0
4,53,110,0
4,52,110,120
4,60,110,0
4,57,110,0
4,53,110,0
4,52,110,120
4,60,110,0
4,57,110,0
4,53,110,0
4,52,110,120
4,60,110,0
4,57,110,0
4,53,110,0
4,52,110,120
4,60,110,0
4,57,110,0
4,53,110,0
4,52,110,120
4,60,110,0
4,57,110,0
4,53,110,0
4,52,110,120
4,60,110,0
4,57,110,0
4,53,110,0
4,52,110,120
4,60,110,0
4,57,110,0
4,53,110,0
4,62,80,120
4,59,80,0
4,55,80,0
4,43,80,0
4,62,85,120
4,59,85,0
4,55,85,0
4,43,85,0
4,62,91,120
4,59,91,0
4,55,91,0
4,43,91,0
4,62,96,120
4,59,96,0
4,55,96,0
4,43,96,0
4,62,102,120
4,59,102,0
4,55,102,0
4,43,102,0
4,62,108,120
4,59,108,0
4,55,108,0
4,43,108,0
4,62,113,120
4,59,113,0
4,55,113,0
4,43,113,0
4,62,119,120
4,59,119,0
4,55,119,0
4,43,119,0
4,62,110,120
4,59,110,0
4,55,110,0
4,64,110,8
4,60,110,0
4,57,110,0
4,64,110,8
4,60,110,0
4,57,110,0
4,62,110,12
4,59,110,0
4,55,110,0
4,64,110,8
4,60,110,0
4,57,110,0
4,64,110,8
4,60,110,0
4,57,110,0
4,62,110,12
4,59,110,0
4,55,110,0
4,64,110,8
4,60,110,0
4,57,110,0
4,64,110,8
4,60,110,0
4,57,110,0
4,62,110,12
4,59,110,0
4,55,110,0
4,64,110,8
4,60,110,0
4,57,110,0
4,64,110,8
4,60,110,0
4,57,110,0
4,62,110,12
4,59,110,0
4,55,110,0
4,47,110,8456
4,45,110,48
4,47,110,144
4,48,110,144
4,50,110,144
4,60,100,0
4,57,100,0
4,52,100,0
4,45,100,0
4,60,100,120
4,57,100,0
4,52,100,0
4,45,100,0
4,60,100,120
4,57,100,0
4,52,100,0
4,45,100,0
4,60,100,120
4,57,100,0
4,52,100,0
4,45,100,0
4,60,100,120
4,57,100,0
4,52,100,0
4,45,100,0
4,60,100,120
