track,note,velocity,time
1,67,70,696
1,79,110,0
1,74,80,0
1,76,100,0
1,67,80,1728
1,79,100,0
1,74,90,0
1,74,90,96
1,74,90,16
1,76,90,0
1,67,60,1480
1,79,110,0
1,74,90,24
1,74,90,192
1,76,90,0
1,76,105,0
1,76,100,0
1,74,100,0
1,74,100,24
1,76,110,0
1,72,90,64
1,71,90,0
1,71,90,0
1,69,90,0
1,69,90,216
1,69,90,16
1,71,100,16
1,72,110,16
1,76,100,0
1,77,96,24
1,74,95,0
1,72,90,0
1,76,100,24
1,76,110,0
1,74,90,0
1,67,80,392
1,79,110,16
1,74,100,32
1,76,100,16
1,67,80,1936
1,79,110,0
1,81,110,0
1,76,100,208
1,74,90,0
1,72,90,0
1,67,80,1552
1,79,100,0
1,74,90,24
1,74,100,0
1,76,100,0
1,76,110,0
1,76,100,2176
1,74,100,24
1,74,100,24
1,76,100,24
1,72,100,16
1,71,90,16
1,69,80,16
1,69,100,1152
1,69,100,16
1,71,100,16
1,72,100,16
1,76,110,0
1,76,110,16
1,77,100,0
1,74,100,0
1,72,100,0
1,76,100,24
1,76,110,0
1,74,110,0
1,76,110,0
1,76,110,384
1,74,105,0
1,76,110,0
1,77,120,0
1,76,110,24
1,74,110,0
1,76,115,0
1,74,110,16
1,67,96,0
1,74,110,16
1,76,115,16
1,74,110,24
1,72,110,16
1,69,100,16
1,76,120,16
1,74,107,704
1,76,110,16
1,77,120,0
1,76,110,24
1,74,110,16
1,81,120,0
1,79,110,16
1,81,110,896
1,84,110,16
1,81,125,0
1,67,90,392
1,79,110,0
1,74,100,32
1,76,100,16
1,67,90,1920
1,79,100,0
1,81,106,24
1,76,100,160
1,74,90,0
1,72,90,0
1,67,90,1552
1,79,110,0
1,74,96,24
1,74,100,96
1,74,90,16
1,76,100,16
1,76,106,16
1,76,100,1744
1,74,100,24
1,74,100,24
1,76,110,24
1,72,100,16
1,71,100,16
1,69,90,16
1,69,90,1152
1,69,95,16
1,71,100,16
1,72,100,16
1,76,100,24
1,77,100,24
1,74,95,0
1,72,100,0
1,76,100,24
1,76,120,0
1,76,110,0
1,76,110,384
1,74,105,0
1,76,110,0
1,77,120,0
1,76,110,24
1,74,110,0
1,76,115,0
1,74,110,16
1,67,96,0
1,74,110,16
1,76,115,16
1,74,110,24
1,72,110,16
1,69,100,16
1,76,120,16
1,74,107,704
1,76,110,16
1,77,120,0
1,76,110,24
1,74,110,16
1,81,120,0
1,79,110,16
1,81,110,896
1,84,110,16
1,81,125,0
1,67,90,392
1,79,110,0
1,74,100,32
1,76,100,16
1,67,100,1752
1,79,100,0
1,81,100,0
1,76,100,128
1,74,90,0
1,72,90,0
1,67,90,1552
1,79,110,0
1,74,90,24
1,74,100,128
1,76,110,16
1,76,120,16
1,76,110,0
1,74,110,0
1,74,100,24
1,76,110,0
1,72,100,64
1,71,100,0
1,71,100,0
1,69,100,0
1,69,100,216
1,69,90,16
1,71,100,16
1,72,110,16
1,76,110,80
1,77,110,24
1,74,100,0
1,72,100,0
1,76,110,24
1,76,110,0
1,74,90,0
1,67,90,2136
1,79,110,0
1,74,100,32
1,76,110,16
1,67,90,1920
1,79,110,0
1,81,100,0
1,76,100,192
1,74,100,0
1,72,90,0
1,67,90,1552
1,79,110,0
1,74,100,24
1,74,100,128
1,74,100,16
1,76,105,16
1,76,110,16
1,76,110,0
1,74,110,0
1,74,100,24
1,76,110,24
1,72,100,16
1,71,100,16
1,69,90,16
1,69,100,960
1,69,95,16
1,71,100,16
1,72,110,16
1,76,110,24
1,77,110,24
1,74,110,0
1,72,100,0
1,76,100,24
1,76,110,0
1,76,110,0
1,76,110,384
1,74,105,0
1,76,110,0
1,77,120,0
1,76,110,24
1,74,110,0
1,76,115,0
1,74,110,16
1,67,96,0
1,74,110,16
1,76,115,16
1,74,110,24
1,72,110,16
1,69,100,16
1,76,120,16
1,74,107,704
1,76,110,16
1,77,120,0
1,76,110,24
1,74,110,16
1,81,120,0
1,79,110,16
1,81,110,608
1,69,80,0
1,84,110,16
1,72,80,0
1,81,110,16
1,69,80,0
1,84,110,0
1,72,120,0
1,81,110,0
1,69,120,0
1,79,100,32
1,67,100,0
1,67,90,8320
1,79,110,0
1,74,100,32
1,76,110,16
1,67,90,1920
1,79,110,0
1,81,100,0
1,76,100,192
1,74,100,0
1,72,90,0
1,67,90,1552
1,79,110,0
1,74,100,24
1,74,100,128
1,74,100,16
1,76,105,16
1,76,110,16
1,76,110,0
1,74,110,0
1,74,100,24
1,76,110,24
1,72,100,16
1,71,100,16
1,69,90,16
1,69,100,960
1,69,95,16
1,71,100,16
1,72,110,16
1,76,110,24
1,77,110,24
1,74,110,0
1,72,100,0
1,76,110,24
1,76,110,0
1,74,92,0
1,67,90,2136
1,79,110,0
1,74,100,32
1,76,110,16
1,67,90,1920
1,79,110,0
1,81,100,0
1,76,100,192
1,74,100,0
1,72,90,0
1,67,90,1552
1,79,110,0
1,74,100,24
1,74,100,128
1,74,100,16
1,76,105,16
1,76,110,16
1,76,110,0
1,74,110,0
1,74,100,2
1,76,110,24
1,72,100,16
1,71,100,16
1,69,90,16
1,69,100,254
1,69,95,16
1,71,100,16
1,72,110,16
1,76,110,24
1,77,110,24
1,74,110,0
1,72,100,0
1,76,110,24
1,76,110,0
1,74,92,0
2,76,110,0
2,74,110,0
2,76,110,0
2,77,110,0
2,77,110,0
2,76,110,0
2,74,110,0
2,81,110,0
2,79,110,0
2,86,110,0
2,84,110,32
2,86,110,16
2,84,110,16
2,67,100,576
2,79,100,0
2,74,100,0
2,74,100,0
2,76,90,0
2,67,100,640
2,79,100,0
2,74,100,0
2,74,100,0
2,76,90,0
2,74,100,0
2,76,100,0
2,67,100,576
2,79,100,0
2,74,100,0
2,74,100,0
2,76,90,0
2,67,100,640
2,79,100,0
2,74,100,0
2,74,100,0
2,76,90,0
2,74,100,0
2,76,100,0
2,53,110,0
2,53,110,0
2,53,110,48
2,53,110,48
2,55,110,0
2,57,110,0
2,53,110,0
2,55,110,16
2,83,125,0
2,81,110,0
2,79,90,0
2,79,110,0
2,76,110,0
2,74,90,0
2,74,125,0
2,72,110,0
2,69,90,0
2,69,110,0
2,64,90,0
2,67,120,0
2,69,80,64
2,69,110,0
2,64,100,0
2,62,115,0
2,57,100,0
2,67,120,0
2,62,120,0
2,60,120,0
2,67,120,0
2,60,99,112
2,71,121,0
2,67,122,0
2,62,122,0
2,71,122,0
2,67,99,112
2,74,123,0
2,72,123,0
2,67,124,0
2,74,124,0
2,71,99,120
2,79,125,0
2,74,125,0
2,72,126,0
2,79,126,0
2,79,100,8
2,74,100,0
2,74,100,0
2,76,90,0
2,67,100,640
2,79,100,0
2,74,100,0
2,74,100,0
2,76,90,0
2,74,100,0
2,76,100,0
2,67,100,576
2,79,100,0
2,74,100,0
2,74,100,0
2,76,90,0
2,67,100,640
2,79,100,0
2,74,100,0
2,74,100,0
2,76,90,0
2,74,100,0
2,76,100,0
2,76,100,768
2,74,100,0
2,74,100,0
2,76,100,16
2,72,100,16
2,76,100,0
2,74,100,0
2,76,100,0
2,77,100,0
2,77,100,0
2,76,100,0
2,74,100,0
2,81,100,0
2,79,100,0
2,86,96,0
2,84,96,32
2,86,96,16
2,84,96,16
2,53,110,0
2,53,110,0
2,53,110,48
2,53,110,48
2,55,110,0
2,57,110,0
2,53,110,0
2,76,110,0
2,77,110,0
2,74,99,0
2,76,110,0
2,67,99,0
2,79,110,0
2,74,110,0
2,77,110,0
2,79,110,0
2,76,99,0
2,77,110,0
2,65,99,0
2,77,110,0
2,72,110,0
2,75,110,0
2,77,110,0
2,74,99,0
2,75,110,0
2,68,99,0
2,75,110,0
2,72,110,0
2,67,120,0
2,62,120,0
2,60,120,0
2,67,120,0
2,60,99,288
2,71,121,0
2,67,122,0
2,62,122,0
2,71,122,0
2,67,99,288
2,74,123,0
2,72,123,0
2,67,124,0
2,74,124,0
2,71,99,288
2,79,125,0
2,74,125,0
2,72,126,0
2,79,126,0
2,76,110,0
2,74,110,0
2,72,110,0
2,71,110,0
2,72,110,0
2,74,110,0
2,69,110,0
2,67,100,8
2,79,100,0
2,74,100,0
2,74,100,0
2,76,90,0
2,67,100,640
2,79,100,0
2,74,100,0
2,74,100,0
2,76,90,0
2,74,100,0
2,76,100,0
2,67,100,576
2,79,100,0
2,74,100,0
2,74,100,0
2,76,90,0
2,67,100,640
2,79,100,0
2,74,100,0
2,74,100,0
2,76,90,0
2,74,100,0
2,76,100,0
2,76,100,768
2,74,100,0
2,74,100,0
2,76,100,16
2,72,100,16
2,59,90,0
2,56,90,0
2,57,90,16
2,52,90,0
2,59,90,208
2,56,90,0
2,60,90,208
2,56,90,0
2,62,90,208
2,59,90,0
2,76,110,0
2,74,100,0
2,71,90,0
2,69,97,192
2,64,110,192
2,57,100,0
2,53,110,8
2,53,110,0
2,53,110,48
2,53,110,48
2,55,110,0
2,57,110,0
2,53,110,0
2,55,110,16
2,67,100,0
2,62,100,0
2,60,101,0
2,67,102,0
2,62,103,0
2,60,103,0
2,67,104,0
2,60,105,0
2,71,106,0
2,67,107,0
2,62,107,0
2,71,110,0
2,67,111,112
2,74,112,0
2,72,113,0
2,67,114,0
2,74,115,0
2,72,115,0
2,67,116,0
2,74,117,0
2,71,118,0
2,79,119,0
2,74,119,0
2,72,120,0
2,79,121,0
2,79,100,8
2,74,100,0
2,74,100,0
2,76,90,0
2,67,100,640
2,79,100,0
2,74,100,0
2,74,100,0
2,76,90,0
2,74,100,0
2,76,100,0
2,67,100,576
2,79,100,0
2,74,100,0
2,74,100,0
2,76,90,0
2,67,100,640
2,79,100,0
2,74,100,0
2,74,100,0
2,76,90,0
2,74,100,0
2,76,100,0
2,76,100,768
2,74,100,0
2,74,100,0
2,76,100,16
2,72,100,16
2,67,100,2128
2,79,100,0
2,74,100,0
2,74,100,0
2,76,90,0
2,67,100,640
2,79,100,0
2,74,100,0
2,74,100,0
2,76,90,0
2,74,100,0
2,76,100,0
2,67,100,576
2,79,100,0
2,74,100,0
2,74,100,0
2,76,90,0
2,67,100,640
2,79,100,0
2,74,100,0
2,74,100,0
2,76,90,0
2,74,100,0
2,76,100,0
2,76,100,68
2,74,100,0
2,74,100,0
2,76,100,16
2,72,100,16
3,60,100,384
3,57,100,0
3,52,100,0
3,45,100,0
3,60,100,240
3,57,100,0
3,52,100,0
3,45,100,0
3,60,100,240
3,57,100,0
3,52,100,0
3,45,100,0
3,60,100,240
3,57,100,0
3,52,100,0
3,45,100,0
3,60,100,240
3,57,100,0
3,52,100,0
3,45,100,0
3,60,100,240
3,57,100,0
3,52,100,0
3,45,100,0
3,59,100,240
3,55,100,0
3,50,100,0
3,43,100,0
3,59,100,240
3,55,100,0
3,50,100,0
3,43,100,0
3,59,100,240
3,55,100,0
3,47,100,0
3,40,100,0
3,59,100,240
3,55,100,0
3,47,100,0
3,40,100,0
3,59,100,240
3,55,100,0
3,47,100,0
3,40,100,0
3,59,100,240
3,55,100,0
3,47,100,0
3,40,100,0
3,60,100,240
3,57,100,0
3,48,100,0
3,41,100,0
3,60,100,240
3,57,100,0
3,48,100,0
3,41,100,0
3,55,100,240
3,59,100,0
3,50,100,0
3,43,100,0
3,55,100,240
3,59,100,0
3,50,100,0
3,43,100,0
3,60,100,240
3,57,100,0
3,52,100,0
3,45,100,0
3,60,100,240
3,57,100,0
3,52,100,0
3,45,100,0
3,60,100,240
3,57,100,0
3,52,100,0
3,45,100,0
3,60,100,240
3,57,100,0
3,52,100,0
3,45,100,0
3,60,100,240
3,57,100,0
3,52,100,0
3,45,100,0
3,60,100,240
3,57,100,0
3,52,100,0
3,45,100,0
3,59,100,240
3,55,100,0
3,50,100,0
3,43,100,0
3,59,100,240
3,55,100,0
3,50,100,0
3,43,100,0
3,59,100,240
3,55,100,0
3,47,100,0
3,40,100,0
3,59,100,240
3,55,100,0
3,47,100,0
3,40,100,0
3,59,100,240
3,55,100,0
3,47,100,0
3,40,100,0
3,59,100,240
3,55,100,0
3,47,100,0
3,40,100,0
3,60,100,240
3,57,100,0
3,48,100,0
3,41,100,0
3,60,100,240
3,57,100,0
3,48,100,0
3,41,100,0
3,60,100,240
3,57,100,0
3,48,100,0
3,41,100,0
3,60,100,240
3,57,100,0
3,48,100,0
3,41,100,0
3,60,110,112
3,57,110,0
3,48,110,0
3,41,110,0
3,60,110,64
3,57,110,0
3,48,110,0
3,41,110,0
3,60,82,0
3,57,82,0
3,48,82,0
3,41,82,0
3,45,110,200
3,47,110,288
3,48,110,288
3,50,110,288
3,64,110,18528
3,60,110,0
3,57,110,0
3,64,110,240
3,60,110,0
3,57,110,0
3,64,110,240
3,60,110,0
3,57,110,0
3,64,110,240
3,60,110,0
3,57,110,0
3,65,110,240
3,62,110,0
3,57,110,0
3,65,110,240
3,62,110,0
3,57,110,0
3,62,110,240
3,59,110,0
3,55,110,0
3,62,110,240
3,59,110,0
3,55,110,0
3,59,110,240
3,55,110,0
3,52,110,0
3,59,110,240
3,55,110,0
3,52,110,0
3,59,110,240
3,55,110,0
3,52,110,0
3,59,110,240
3,55,110,0
3,52,110,0
3,60,110,240
3,57,110,0
3,53,110,0
3,52,110,0
3,60,110,240
3,57,110,0
3,53,110,0
3,52,110,0
3,62,110,240
3,59,110,0
3,55,110,0
3,62,110,240
3,59,110,0
3,55,110,0
3,64,110,240
3,60,110,0
3,57,110,0
3,64,110,240
3,60,110,0
3,57,110,0
3,64,110,240
3,60,110,0
3,57,110,0
3,64,110,240
3,60,110,0
3,57,110,0
3,65,110,240
3,62,110,0
3,57,110,0
3,65,110,240
3,62,110,0
3,57,110,0
3,62,110,240
3,59,110,0
3,55,110,0
3,62,110,240
3,59,110,0
3,55,110,0
3,59,110,240
3,55,110,0
3,52,110,0
3,59,110,240
3,55,110,0
3,52,110,0
3,59,110,240
3,55,110,0
3,52,110,0
3,59,110,240
3,55,110,0
3,52,110,0
3,52,110,240
3,60,110,0
3,57,110,0
3,53,110,0
3,52,110,240
3,60,110,0
3,57,110,0
3,53,110,0
3,52,110,240
3,60,110,0
3,57,110,0
3,53,110,0
3,52,110,240
3,60,110,0
3,57,110,0
3,53,110,0
3,52,110,240
3,60,110,0
3,57,110,0
3,53,110,0
3,52,110,240
3,60,110,0
3,57,110,0
3,53,110,0
3,52,110,240
3,60,110,0
3,57,110,0
3,53,110,0
3,52,110,240
3,60,110,0
3,57,110,0
3,53,110,0
3,62,80,240
3,59,80,0
3,55,80,0
3,43,80,0
3,62,85,240
3,59,85,0
3,55,85,0
3,43,85,0
3,62,91,240
3,59,91,0
3,55,91,0
3,43,91,0
3,62,96,240
3,59,96,0
3,55,96,0
3,43,96,0
3,62,102,240
3,59,102,0
3,55,102,0
3,43,102,0
3,62,108,240
3,59,108,0
3,55,108,0
3,43,108,0
3,62,113,240
3,59,113,0
3,55,113,0
3,43,113,0
3,62,119,240
3,59,119,0
3,55,119,0
3,43,119,0
3,62,110,240
3,59,110,0
3,55,110,0
3,64,110,16
3,60,110,0
3,57,110,0
3,64,110,16
3,60,110,0
3,57,110,0
3,62,110,24
3,59,110,0
3,55,110,0
3,64,110,16
3,60,110,0
3,57,110,0
3,64,110,16
3,60,110,0
3,57,110,0
3,62,110,24
3,59,110,0
3,55,110,0
3,64,110,16
3,60,110,0
3,57,110,0
3,64,110,16
3,60,110,0
3,57,110,0
3,62,110,24
3,59,110,0
3,55,110,0
3,64,110,16
3,60,110,0
3,57,110,0
3,64,110,16
3,60,110,0
3,57,110,0
3,62,110,24
3,59,110,0
3,55,110,0
3,47,110,16912
3,45,110,96
3,47,110,288
3,48,110,288
3,50,110,288
3,60,100,0
3,57,100,0
3,52,100,0
3,45,100,0
3,60,100,240
3,57,100,0
3,52,100,0
3,45,100,0
3,60,100,240
3,57,100,0
3,52,100,0
3,45,100,0
3,60,100,240
3,57,100,0
3,52,100,0
3,45,100,0
3,60,100,240
3,57,100,0
3,52,100,0
3,45,100,0
3,60,100,240
