track,note,velocity,time
2,63,82,24
2,63,0,24
2,63,94,0
2,63,0,21
2,63,94,3
2,63,0,21
2,63,90,3
2,63,0,47
2,65,82,1
2,65,0,24
2,63,94,0
2,63,0,20
2,63,94,4
2,63,0,45
2,63,82,24
2,63,0,24
2,63,94,0
2,63,0,21
2,63,94,3
2,63,0,21
2,63,94,3
2,63,0,46
2,65,90,1
2,65,0,24
2,63,94,0
2,63,0,20
2,63,94,4
2,63,0,48
2,63,84,24
2,63,0,24
2,63,94,0
2,63,0,24
2,63,94,0
2,63,0,24
2,63,94,0
2,63,0,48
2,65,84,0
2,65,0,24
2,63,92,0
2,63,0,48
2,65,94,0
2,65,0,24
2,65,94,0
2,65,0,48
2,63,82,168
2,63,0,24
2,63,94,0
2,63,0,24
2,63,94,0
2,63,0,24
2,63,94,0
2,63,0,48
2,65,88,0
2,65,0,24
2,63,94,0
2,63,0,34
2,61,86,2
2,61,0,34
2,61,94,2
2,61,0,256
2,63,86,120
2,63,0,24
2,63,94,0
2,63,0,24
2,63,94,0
2,63,0,24
2,63,94,0
2,63,0,48
2,65,85,0
2,65,0,24
2,63,94,0
2,63,0,21
2,63,94,3
2,63,0,52
2,63,85,164
2,63,0,24
2,63,94,0
2,63,0,24
2,63,94,0
2,63,0,24
2,63,94,0
2,63,0,47
2,65,94,1
2,65,0,24
2,63,94,0
2,63,0,48
2,61,94,0
2,61,0,24
2,61,94,0
2,61,0,48
2,63,86,168
2,63,0,24
2,63,94,0
2,63,0,24
2,63,94,0
2,63,0,24
2,63,94,0
2,63,0,47
2,65,85,1
2,65,0,24
2,63,94,0
2,63,0,48
2,65,80,0
2,65,0,24
2,65,94,0
2,65,0,48
2,63,87,168
2,63,0,24
2,63,94,0
2,63,0,24
2,63,94,0
2,63,0,24
2,63,94,0
2,63,0,47
2,65,85,1
2,65,0,24
2,63,94,0
2,63,0,45
2,61,87,3
2,61,0,46
2,61,88,2
2,61,0,226
2,60,94,1
2,60,0,1
2,63,87,0
2,63,0,22
2,65,94,2
2,65,0,116
2,63,94,4
2,63,0,45
2,65,94,3
2,65,0,22
2,63,86,2
2,63,0,46
2,61,84,2
2,61,0,18
2,65,94,150
2,65,0,24
2,65,94,0
2,65,0,24
2,63,94,0
2,63,0,20
2,68,94,28
2,68,0,20
2,70,94,28
2,70,0,48
2,65,92,0
2,65,0,11
2,61,94,1
2,61,0,58
2,54,81,62
2,54,0,22
2,65,94,2
2,65,0,92
2,63,94,4
2,63,0,45
2,65,94,3
2,65,0,22
2,63,88,2
2,63,0,46
2,61,85,2
2,61,0,22
2,58,94,50
2,58,0,23
2,63,91,1
2,63,0,22
2,63,94,2
2,63,0,406
2,63,87,26
2,63,0,22
2,63,96,2
2,63,0,24
2,65,89,0
2,65,0,22
2,65,96,2
2,65,0,24
2,61,88,0
2,61,0,22
2,61,94,2
2,61,0,48
2,65,94,0
2,65,0,24
2,63,91,0
2,63,0,48
2,65,92,0
2,65,0,24
2,65,94,0
2,65,0,45
2,63,88,171
2,63,0,23
2,63,96,1
2,63,0,24
2,65,90,0
2,65,0,22
2,65,96,2
2,65,0,24
2,61,88,0
2,61,0,23
2,61,96,1
2,61,0,48
2,65,94,0
2,65,0,23
2,63,92,1
2,63,0,48
2,61,93,0
2,61,0,24
2,61,94,0
2,61,0,48
2,63,90,168
2,63,0,22
2,63,96,2
2,63,0,24
2,65,91,0
2,65,0,24
2,65,97,0
2,65,0,24
2,61,92,0
2,61,0,24
2,61,95,0
2,61,0,48
2,65,97,0
2,65,0,24
2,63,89,0
2,63,0,48
2,65,92,0
2,65,0,24
2,65,94,0
2,65,0,48
2,63,82,168
2,63,0,23
2,63,94,1
2,63,0,24
2,65,90,0
2,65,0,20
2,65,94,4
2,65,0,24
2,61,89,0
2,61,0,20
2,61,94,4
2,61,0,48
2,65,94,0
2,65,0,24
2,63,89,0
2,63,0,44
2,61,94,4
2,61,0,46
2,58,94,0
2,58,0,236
2,60,96,4
2,60,0,20
2,61,93,4
2,61,0,20
2,63,96,4
2,63,0,20
2,65,94,4
2,65,0,116
2,63,94,4
2,63,0,45
2,65,94,3
2,65,0,22
2,63,89,2
2,63,0,46
2,61,94,2
2,61,0,20
2,65,94,148
2,65,0,92
2,63,94,4
2,63,0,45
2,65,94,3
2,65,0,22
2,65,91,2
2,65,0,46
2,61,91,2
2,61,0,20
2,56,87,124
2,56,0,22
2,65,94,2
2,65,0,92
2,63,94,4
2,63,0,45
2,65,94,3
2,65,0,22
2,63,90,2
2,63,0,46
2,61,88,2
2,61,0,17
2,58,102,55
2,58,0,22
2,61,94,2
2,61,0,22
2,63,98,2
2,63,0,22
2,63,94,2
2,63,0,406
2,63,94,2
2,63,0,72
2,61,90,0
2,61,0,116
2,61,94,4
2,61,0,72
2,60,91,0
2,60,0,116
2,70,72,0
2,70,0,1
2,70,72,0
2,70,0,10
2,68,72,2
2,68,0,10
2,70,72,2
2,70,0,22
2,70,72,2
2,70,0,10
2,68,72,2
2,68,0,10
2,70,72,2
2,70,0,22
2,70,72,2
2,70,0,10
2,68,72,2
2,68,0,10
2,70,72,2
2,70,0,22
2,70,72,2
2,70,0,10
2,68,72,2
2,68,0,10
2,70,72,0
2,70,0,2
2,70,72,2
2,70,0,2
2,68,72,2
2,68,0,3
2,70,72,2
2,70,0,3
2,70,72,2
2,70,0,3
2,68,72,2
2,68,0,3
2,70,72,2
2,70,0,1
2,70,72,2
2,70,0,1
2,68,72,2
2,68,0,1
2,70,72,2
2,70,0,1
2,70,72,2
2,70,0,1
2,68,72,2
2,68,0,1
2,70,72,0
2,70,0,1
2,70,72,0
2,70,0,10
2,68,72,2
2,68,0,10
2,70,72,2
2,70,0,22
2,70,72,2
2,70,0,10
2,68,72,2
2,68,0,10
2,70,72,2
2,70,0,22
2,70,72,2
2,70,0,10
2,68,72,2
2,68,0,10
2,70,72,2
2,70,0,22
2,70,72,2
2,70,0,10
2,68,72,2
2,68,0,10
2,70,72,0
2,70,0,2
2,70,72,2
2,70,0,2
2,68,72,2
2,68,0,3
2,70,72,2
2,70,0,3
2,70,72,2
2,70,0,3
2,68,72,2
2,68,0,3
2,70,72,2
2,70,0,1
2,70,72,2
2,70,0,1
2,68,72,2
2,68,0,1
2,70,72,2
2,70,0,1
2,70,72,2
2,70,0,1
2,68,72,2
2,68,0,1
2,63,86,48
2,63,0,20
2,63,94,4
2,63,0,24
2,65,89,0
2,65,0,21
2,65,94,3
2,65,0,24
2,61,89,0
2,61,0,22
2,61,94,2
2,61,0,48
2,65,94,0
2,65,0,24
2,63,88,0
2,63,0,24
2,65,94,0
2,65,0,43
2,63,88,173
2,63,0,21
2,63,94,3
2,63,0,24
2,65,90,0
2,65,0,21
2,65,94,3
2,65,0,24
2,61,90,0
2,61,0,21
2,61,94,3
2,61,0,44
2,65,94,4
2,65,0,24
2,63,90,0
2,63,0,42
2,61,88,6
2,61,0,24
2,61,95,0
2,61,0,43
2,63,86,173
2,63,0,20
2,63,98,4
2,65,90,24
2,63,0,1
2,65,0,19
2,65,94,4
2,65,0,24
2,61,91,0
2,61,0,19
2,61,93,5
2,61,0,48
2,65,100,0
2,63,89,24
2,65,0,1
2,63,0,45
2,65,92,2
2,65,0,24
2,65,94,0
2,65,0,48
2,63,89,168
2,63,0,24
2,63,97,0
2,63,0,22
2,63,96,2
2,63,0,21
2,61,94,1
2,61,0,48
2,65,96,0
2,65,0,45
2,61,94,1
2,61,0,24
2,58,94,0
2,58,0,236
2,60,97,4
2,60,0,22
2,61,88,2
2,61,0,21
2,63,94,3
2,63,0,22
2,65,95,2
2,65,0,116
2,63,94,4
2,63,0,45
2,65,95,3
2,65,0,22
2,63,91,2
2,63,0,46
2,61,91,2
2,61,0,22
2,65,94,146
2,65,0,23
2,65,94,1
2,65,0,24
2,63,94,0
2,63,0,24
2,68,94,24
2,68,0,24
2,70,94,24
2,70,0,48
2,65,94,0
2,65,0,11
2,61,94,1
2,61,0,48
2,54,88,72
2,54,0,22
2,65,96,2
2,65,0,92
2,63,94,4
2,63,0,45
2,65,94,3
2,65,0,22
2,63,94,2
2,63,0,46
2,61,94,2
2,61,0,22
2,58,98,50
2,58,0,22
2,61,90,2
2,61,0,22
2,63,94,2
2,63,0,22
2,63,92,2
2,63,0,308
2,60,101,4
2,60,0,22
2,61,90,2
2,61,0,22
2,63,97,2
2,63,0,22
2,65,94,2
2,65,0,116
2,63,94,4
2,63,0,45
2,65,94,3
2,65,0,22
2,63,91,2
2,63,0,46
2,61,92,2
2,61,0,22
2,65,98,146
2,65,0,94
2,63,94,2
2,63,0,45
2,65,96,3
2,65,0,22
2,65,94,2
2,65,0,46
2,61,94,2
2,61,0,22
2,56,86,122
2,56,0,22
2,65,99,2
2,65,0,92
2,63,93,4
2,63,0,45
2,65,96,3
2,65,0,22
2,63,86,2
2,63,0,46
2,61,94,2
2,61,0,22
2,58,94,50
2,58,0,22
2,61,89,2
2,61,0,22
2,63,94,2
2,63,0,22
2,63,92,2
2,63,0,408
2,63,99,0
2,63,0,118
2,61,98,1
2,61,0,118
2,65,99,3265
2,65,0,92
2,63,96,4
2,63,0,45
2,65,97,3
2,65,0,22
2,63,92,2
2,63,0,46
2,61,94,2
2,61,0,22
2,65,99,146
2,65,0,92
2,63,94,4
2,63,0,45
2,65,96,3
2,65,0,22
2,65,89,2
2,65,0,46
2,61,91,2
2,61,0,22
2,65,98,0
2,65,0,2
2,63,94,4
2,63,0,6
2,65,97,3
2,65,0,9
2,63,89,2
2,63,0,1
2,61,90,2
2,61,0,2
3,63,87,1020
3,63,0,21
3,63,94,3
3,63,0,21
3,65,87,3
3,65,0,21
3,65,94,3
3,65,0,21
3,61,88,3
3,61,0,20
3,61,94,4
3,61,0,43
3,65,94,5
3,65,0,21
3,63,89,3
3,63,0,43
3,65,94,5
3,65,0,21
3,65,94,3
3,65,0,40
3,63,89,176
3,63,0,21
3,63,94,3
3,63,0,24
3,65,87,0
3,65,0,23
3,65,94,1
3,65,0,24
3,61,89,0
3,61,0,21
3,61,94,3
3,61,0,48
3,65,94,0
3,65,0,24
3,63,90,0
3,63,0,41
3,61,92,7
3,61,0,21
3,61,94,3
3,61,0,48
3,63,88,168
3,63,0,22
3,63,94,2
3,63,0,24
3,65,90,0
3,65,0,20
3,65,94,4
3,65,0,24
3,61,88,0
3,61,0,19
3,61,94,5
3,61,0,48
3,65,94,0
3,65,0,24
3,63,87,0
3,63,0,43
3,65,94,5
3,65,0,24
3,65,94,0
3,65,0,48
3,63,88,168
3,63,0,19
3,63,94,5
3,63,0,24
3,65,87,0
3,65,0,20
3,65,94,4
3,65,0,24
3,61,89,0
3,61,0,19
3,61,94,5
3,61,0,48
3,65,94,0
3,65,0,24
3,63,87,0
3,63,0,36
3,61,94,0
3,61,0,34
3,61,94,2
3,61,0,24
3,58,94,0
3,58,0,24
3,58,94,0
3,58,0,236
3,63,88,124
3,63,0,24
3,63,94,0
3,63,0,24
3,65,88,0
3,65,0,24
3,65,94,0
3,65,0,24
3,61,84,0
3,61,0,24
3,61,94,0
3,61,0,48
3,65,94,0
3,65,0,24
3,63,89,0
3,63,0,48
3,65,94,0
3,65,0,24
3,65,94,0
3,65,0,45
3,63,91,171
3,63,0,24
3,63,94,0
3,63,0,24
3,65,87,0
3,65,0,24
3,65,94,0
3,65,0,24
3,61,82,0
3,61,0,24
3,61,94,0
3,61,0,48
3,65,94,0
3,65,0,24
3,63,82,0
3,63,0,48
3,61,94,0
3,61,0,24
3,61,94,0
3,61,0,48
3,63,85,168
3,63,0,24
3,63,95,0
3,63,0,24
3,65,87,0
3,65,0,24
3,65,94,0
3,65,0,24
3,61,86,0
3,61,0,24
3,61,94,0
3,61,0,48
3,65,94,0
3,65,0,24
3,63,81,0
3,63,0,48
3,65,94,0
3,65,0,24
3,65,94,0
3,65,0,48
3,63,84,168
3,63,0,24
3,63,94,0
3,63,0,24
3,65,88,0
3,65,0,24
3,65,94,0
3,65,0,24
3,61,87,0
3,61,0,24
3,61,94,0
3,61,0,48
3,65,94,0
3,65,0,24
3,63,87,0
3,63,0,45
3,61,92,3
3,61,0,46
3,61,94,2
3,58,94,24
3,61,0,1
3,58,0,235
3,63,79,1
3,56,83,0
3,56,0,23
3,63,0,0
3,66,92,1
3,60,94,0
3,66,0,21
3,60,0,1
3,68,97,2
3,61,101,0
3,61,0,116
3,68,0,0
3,68,90,4
3,60,94,0
3,60,0,45
3,68,0,0
3,68,90,3
3,61,94,0
3,61,0,17
3,68,0,2
3,68,85,5
3,60,87,0
3,60,0,47
3,68,0,0
3,66,90,1
3,58,94,0
3,58,0,22
3,66,0,0
3,65,94,96
3,65,0,22
3,66,88,2
3,66,0,22
3,65,94,2
3,65,0,22
3,63,87,2
3,63,0,22
3,68,92,26
3,68,0,20
3,70,92,28
3,70,0,46
3,65,90,2
3,65,0,10
3,63,90,2
3,63,0,10
3,61,94,2
3,61,0,26
3,54,94,94
3,54,0,22
3,68,89,0
3,61,94,0
3,61,0,92
3,68,0,0
3,68,89,4
3,60,94,0
3,60,0,45
3,68,0,0
3,68,89,3
3,61,94,0
3,61,0,18
3,68,0,0
3,68,86,6
3,60,90,0
3,60,0,46
3,68,0,0
3,65,86,2
3,58,91,0
3,58,0,15
3,65,0,1
3,58,94,48
3,58,0,22
3,61,94,2
3,61,0,22
3,63,94,2
3,63,0,22
3,63,94,2
3,68,88,1
3,63,0,1
3,68,0,381
3,63,89,24
3,63,0,20
3,63,94,4
3,63,0,20
3,65,89,4
3,65,0,20
3,65,94,4
3,65,0,20
3,61,89,4
3,61,0,20
3,61,94,4
3,61,0,46
3,65,94,2
3,65,0,20
3,63,88,4
3,63,0,48
3,65,94,0
3,65,0,24
3,65,94,0
3,65,0,45
3,63,90,171
3,63,0,20
3,63,94,4
3,63,0,20
3,65,90,4
3,65,0,20
3,65,94,4
3,65,0,20
3,61,90,4
3,61,0,20
3,61,94,4
3,61,0,46
3,65,90,2
3,65,0,20
3,63,94,4
3,63,0,46
3,61,94,2
3,61,0,20
3,61,94,4
3,61,0,45
3,63,89,171
3,63,0,24
3,63,94,0
3,63,0,24
3,65,89,0
3,65,0,24
3,65,94,0
3,65,0,24
3,61,90,0
3,61,0,24
3,61,94,0
3,61,0,48
3,65,93,0
3,65,0,24
3,63,87,0
3,63,0,48
3,65,94,0
3,65,0,24
3,65,94,0
3,65,0,48
3,63,87,168
3,63,0,24
3,63,94,0
3,63,0,24
3,65,89,0
3,65,0,24
3,65,94,0
3,65,0,24
3,61,90,0
3,61,0,24
3,61,94,0
3,61,0,48
3,65,94,0
3,65,0,24
3,63,87,0
3,63,0,45
3,61,94,3
3,61,0,46
3,61,88,2
3,58,94,24
3,61,0,1
3,58,0,235
3,63,92,0
3,56,96,0
3,56,0,22
3,63,0,0
3,65,86,2
3,58,90,0
3,58,0,22
3,65,0,0
3,66,92,2
3,60,96,0
3,60,0,22
3,66,0,0
3,68,88,2
3,61,92,0
3,61,0,116
3,68,0,0
3,68,92,4
3,60,96,0
3,60,0,45
3,68,0,0
3,68,86,3
3,61,90,0
3,61,0,22
3,68,0,0
3,68,92,2
3,60,96,0
3,60,0,46
3,68,0,0
3,66,86,2
3,58,90,0
3,58,0,22
3,66,0,0
3,68,90,146
3,61,94,0
3,61,0,92
3,68,0,0
3,68,90,4
3,60,94,0
3,60,0,45
3,68,0,0
3,68,90,3
3,61,94,0
3,61,0,22
3,68,0,0
3,68,90,2
3,61,86,0
3,61,0,46
3,68,0,0
3,65,83,2
3,58,88,0
3,58,0,22
3,65,0,0
3,56,94,122
3,56,0,22
3,68,90,2
3,61,94,0
3,61,0,92
3,68,0,0
3,68,90,4
3,60,94,0
3,60,0,45
3,68,0,0
3,68,90,3
3,61,94,0
3,61,0,22
3,68,0,0
3,68,86,2
3,60,89,0
3,60,0,46
3,68,0,0
3,65,84,2
3,58,89,0
3,58,0,22
3,65,0,0
