track,note,velocity,time
1,71,100,0
1,73,105,0
1,76,110,0
1,69,100,16
1,71,105,16
1,73,110,0
1,76,115,0
1,69,100,16
1,71,100,16
1,76,110,0
1,69,100,16
1,71,105,16
1,76,115,0
1,69,100,16
1,68,100,16
1,69,105,0
1,73,110,0
1,66,100,16
1,68,105,16
1,69,110,0
1,73,115,0
1,66,100,16
1,68,100,16
1,69,105,0
1,73,110,0
1,66,100,16
1,68,105,16
1,69,110,0
1,73,115,0
1,66,100,16
1,74,110,16
1,71,100,0
1,66,100,16
1,74,115,16
1,71,105,0
1,66,100,16
1,73,110,16
1,69,100,0
1,66,100,16
1,73,115,16
1,69,105,0
1,66,100,16
1,71,110,16
1,68,100,0
1,64,100,16
1,71,115,16
1,68,105,0
1,69,110,16
1,66,100,0
1,68,115,16
1,64,105,0
1,80,110,6176
1,76,100,0
1,71,100,16
1,80,115,16
1,76,105,0
1,71,100,16
1,78,110,16
1,75,100,0
1,72,100,16
1,78,115,16
1,75,105,0
1,72,100,16
1,80,110,16
1,76,105,0
1,75,100,0
1,73,100,16
1,80,115,16
1,76,110,0
1,75,105,0
1,73,100,16
1,76,110,16
1,73,105,0
1,71,100,0
1,69,100,16
1,76,115,16
1,73,110,0
1,71,105,0
1,69,100,16
1,80,110,16
1,76,100,0
1,71,100,16
1,80,115,16
1,76,105,0
1,71,100,16
1,78,110,16
1,75,100,0
1,71,100,16
1,78,115,16
1,75,105,0
1,71,100,16
1,80,115,16
1,76,105,0
1,69,110,0
1,64,105,0
1,57,100,0
1,71,115,24
1,64,110,0
1,59,105,0
1,76,110,24
1,73,105,0
1,71,100,0
1,69,100,16
1,76,115,16
1,73,110,0
1,71,105,0
1,69,100,16
1,76,110,16
1,71,100,0
1,69,100,16
1,76,115,16
1,71,105,0
1,69,100,16
1,73,110,16
1,69,105,0
1,68,100,0
1,66,100,16
1,73,115,16
1,69,110,0
1,68,105,0
1,66,100,16
1,73,110,16
1,69,105,0
1,68,100,0
1,66,100,16
1,73,115,16
1,69,110,0
1,68,105,0
1,66,100,16
1,74,110,16
1,71,100,0
1,66,100,16
1,74,115,16
1,71,105,0
1,66,100,16
1,73,110,16
1,69,100,0
1,66,100,16
1,73,115,16
1,69,105,0
1,66,100,16
1,71,110,16
1,68,100,0
1,64,100,16
1,71,115,16
1,68,105,0
1,69,110,16
1,66,100,0
1,68,115,16
1,64,105,0
1,64,110,32
1,61,105,0
1,57,100,0
1,64,115,24
1,61,110,0
1,57,105,0
1,66,110,24
1,63,105,0
1,59,100,0
1,66,115,24
1,63,110,0
1,59,100,0
1,64,110,24
1,59,105,0
1,56,100,0
1,64,115,24
1,59,110,0
1,56,105,0
1,64,110,24
1,61,105,0
1,57,100,0
1,64,115,24
1,61,110,0
1,57,105,0
1,64,110,16
1,61,105,0
1,57,100,0
1,64,110,16
1,61,105,0
1,57,100,0
1,64,115,24
1,61,110,0
1,57,105,0
1,66,110,24
1,63,105,0
1,59,100,0
1,66,115,24
1,63,110,0
1,59,105,0
1,64,110,24
1,59,105,0
1,56,100,0
1,64,115,24
1,59,110,0
1,56,105,0
1,64,110,24
1,61,105,0
1,57,100,0
1,64,115,24
1,61,110,0
1,57,105,0
1,80,110,24
1,76,100,0
1,71,100,16
1,80,115,16
1,76,105,0
1,71,100,16
1,78,110,16
1,75,100,0
1,72,100,16
1,78,115,16
1,75,105,0
1,72,100,16
1,80,110,16
1,76,105,0
1,75,100,0
1,73,100,16
1,80,115,16
1,76,110,0
1,75,105,0
1,73,100,16
1,76,110,16
1,73,105,0
1,71,100,0
1,69,100,16
1,76,115,16
1,73,110,0
1,71,105,0
1,69,100,16
1,80,110,16
1,76,100,0
1,71,100,16
1,80,115,16
1,76,105,0
1,71,100,16
1,78,110,16
1,75,100,0
1,71,100,16
1,78,115,16
1,75,105,0
1,71,100,16
1,80,110,16
1,76,100,0
1,71,100,16
1,80,115,16
1,76,105,0
1,71,110,24
1,68,105,0
1,64,100,0
1,71,115,24
1,66,110,0
1,63,105,0
1,76,110,0
1,73,100,0
1,68,100,16
1,76,115,16
1,73,105,0
1,68,100,16
1,75,110,16
1,71,100,0
1,68,100,16
1,75,115,16
1,71,105,0
1,68,100,16
1,73,110,16
1,70,100,0
1,66,100,16
1,73,115,16
1,70,105,0
1,71,110,16
1,68,100,0
1,70,110,16
1,66,100,0
1,61,100,16
1,70,115,16
1,66,105,0
1,61,100,16
1,75,110,16
1,71,100,0
1,66,100,16
1,75,115,16
1,71,105,0
1,66,100,16
1,73,110,16
1,70,105,0
1,66,100,0
1,75,115,16
1,71,105,0
1,73,110,16
1,70,100,0
1,71,110,16
1,68,100,0
1,63,100,16
1,71,110,112
1,68,105,0
1,63,100,0
1,70,110,16
1,66,100,0
1,63,100,16
1,68,115,16
1,63,105,0
1,63,100,16
1,66,115,16
1,63,105,0
1,68,110,16
1,65,105,0
1,61,100,0
1,68,115,24
1,65,110,0
1,61,105,0
1,68,110,24
1,65,105,0
1,61,100,0
1,68,115,24
1,65,110,0
1,61,105,0
1,68,110,24
1,65,105,0
1,61,100,0
1,68,115,24
1,65,110,0
1,61,105,0
1,68,110,24
1,65,105,0
1,61,100,0
1,68,115,24
1,65,110,0
1,61,105,0
1,64,115,24
1,61,110,0
1,57,105,0
1,66,115,16
1,61,110,0
1,58,105,0
1,78,110,0
1,75,105,0
1,73,100,0
1,71,100,16
1,78,115,16
1,75,110,0
1,73,105,0
1,71,100,16
1,78,110,16
1,73,100,0
1,71,100,16
1,78,115,16
1,73,105,0
1,71,100,16
1,75,110,16
1,71,105,0
1,70,100,0
1,68,100,16
1,75,115,16
1,71,110,0
1,70,105,0
1,68,100,16
1,75,110,16
1,71,105,0
1,70,100,0
1,68,100,16
1,75,115,16
1,71,110,0
1,70,104,0
1,68,100,16
1,76,110,16
1,73,100,0
1,68,100,16
1,76,115,16
1,73,105,0
1,68,100,16
1,75,110,16
1,71,100,0
1,68,100,16
1,75,115,16
1,71,105,0
1,68,100,16
1,73,110,0
1,70,100,0
1,66,100,0
1,73,115,0
1,70,105,0
1,71,110,0
1,68,100,0
1,70,115,0
1,66,105,0
1,71,110,0
1,66,105,0
1,63,100,0
1,71,115,24
1,66,110,0
1,63,105,0
1,73,110,24
1,68,105,0
1,65,100,0
1,73,115,24
1,68,110,0
1,65,105,0
1,73,110,24
1,70,105,0
1,66,100,0
1,70,97,16
1,66,105,16
1,75,97,16
1,76,95,16
1,75,110,16
1,71,100,0
1,75,115,24
1,71,110,0
1,66,105,0
1,71,110,24
1,66,105,0
1,63,100,0
1,71,115,24
1,66,110,0
1,63,105,0
1,73,110,24
1,68,105,0
1,65,100,0
1,73,115,24
1,68,110,0
1,65,105,0
1,73,110,24
1,70,105,0
1,66,100,0
1,70,97,16
1,66,105,16
1,75,97,16
1,76,90,16
1,75,110,16
1,71,100,0
1,75,115,24
1,71,110,0
1,66,105,0
1,70,110,24
1,66,105,0
1,61,100,0
1,70,115,24
1,66,110,0
1,61,105,0
1,70,110,24
1,65,105,0
1,62,100,0
1,70,115,24
1,65,110,0
1,62,105,0
1,70,110,24
1,66,105,0
1,63,100,0
1,70,115,24
1,66,110,0
1,63,105,0
1,71,110,24
1,66,105,0
1,63,100,0
1,71,115,24
1,66,110,0
1,63,105,0
1,70,110,24
1,66,105,0
1,61,100,0
1,70,115,24
1,66,110,0
1,61,105,0
1,70,110,24
1,65,105,0
1,62,100,0
1,70,115,24
1,65,110,0
1,62,105,0
1,70,110,24
1,66,105,0
1,63,100,0
1,70,115,24
1,66,110,0
1,63,105,0
1,71,110,24
1,66,105,0
1,63,100,0
1,71,115,24
1,66,110,0
1,63,105,0
1,70,110,24
1,66,105,0
1,61,100,0
1,70,115,24
1,66,110,0
1,61,105,0
1,70,110,24
1,65,105,0
1,62,100,0
1,70,115,24
1,65,110,0
1,62,105,0
1,70,110,24
1,66,105,0
1,63,100,0
1,70,115,24
1,66,110,0
1,63,105,0
1,71,110,24
1,66,105,0
1,63,100,0
1,71,115,24
1,66,110,0
1,63,105,0
1,73,115,24
1,70,110,0
1,66,105,0
1,73,115,32
1,68,110,0
1,65,105,0
1,73,110,0
1,70,105,0
1,66,100,0
1,73,115,24
1,70,110,0
1,66,105,0
1,71,110,24
1,66,105,0
1,63,100,0
1,71,115,24
1,66,110,0
1,63,105,0
1,73,110,24
1,68,105,0
1,65,100,0
1,73,115,24
1,68,110,0
1,65,105,0
1,68,110,24
1,65,105,0
1,62,100,0
1,68,115,24
1,65,110,0
1,62,105,0
1,70,115,24
1,66,110,0
1,71,115,0
1,66,110,0
1,73,110,0
1,70,105,0
1,66,100,0
1,61,100,0
1,73,120,24
1,70,115,0
1,66,110,0
1,61,105,0
1,74,110,24
1,70,105,0
1,65,100,0
1,62,100,0
1,74,120,24
1,70,115,0
1,65,110,0
1,62,105,0
1,75,110,24
1,70,105,0
1,66,100,0
1,63,100,0
1,75,120,24
1,70,115,0
1,66,110,0
1,63,105,0
1,71,110,24
1,68,105,0
1,63,100,0
1,59,100,0
1,71,120,24
1,68,115,0
1,63,110,0
1,59,105,0
1,73,110,24
1,70,105,0
1,66,100,0
1,61,100,0
1,73,120,24
1,70,115,0
1,66,110,0
1,61,105,0
1,74,110,24
1,70,105,0
1,65,100,0
1,62,100,0
1,74,120,24
1,70,115,0
1,65,110,0
1,62,105,0
1,75,110,24
1,70,105,0
1,66,100,0
1,63,100,0
1,75,120,24
1,70,115,0
1,66,110,0
1,63,105,0
1,71,110,24
1,68,105,0
1,63,100,0
1,59,100,0
1,71,120,24
1,68,115,0
1,63,110,0
1,59,105,0
1,73,110,24
1,70,105,0
1,66,100,0
1,61,100,0
1,73,120,24
1,70,115,0
1,66,110,0
1,61,105,0
1,74,110,24
1,70,105,0
1,65,100,0
1,62,100,0
1,74,120,24
1,70,115,0
1,65,110,0
1,62,105,0
1,75,110,24
1,70,105,0
1,66,100,0
1,63,100,0
1,75,120,24
1,70,115,0
1,66,110,0
1,63,105,0
1,71,110,24
1,68,105,0
1,63,100,0
1,59,100,0
1,71,120,24
1,68,115,0
1,63,110,0
1,59,105,0
1,73,110,24
1,70,105,0
1,66,100,0
1,61,100,0
1,73,120,24
1,70,115,0
1,66,110,0
1,61,105,0
1,73,110,24
1,68,105,0
1,65,100,0
1,61,100,0
1,73,105,16
1,68,100,0
1,65,95,0
1,61,95,0
1,73,120,16
1,68,115,0
1,65,110,0
1,61,105,0
1,73,105,16
1,68,100,0
1,65,95,0
1,61,95,0
1,73,120,0
1,70,115,0
1,66,110,0
1,61,105,0
1,71,120,32
1,66,115,0
1,63,110,0
1,59,105,0
1,73,110,32
1,68,105,0
1,66,100,0
1,61,100,0
1,73,120,24
1,68,115,0
1,65,110,0
1,61,100,0
1,74,110,24
1,70,105,0
1,65,100,0
1,62,100,0
1,74,120,24
1,70,115,0
1,65,110,0
1,62,105,0
1,75,120,24
1,70,115,0
1,66,110,0
1,63,105,0
1,73,110,1344
1,68,105,0
1,65,100,0
1,61,100,0
1,71,120,0
1,66,115,0
1,63,110,0
1,59,105,0
1,70,120,0
1,66,115,0
1,61,110,0
1,49,105,0
1,37,100,0
1,68,120,32
1,65,115,0
1,61,110,0
1,49,105,0
1,37,100,0
1,66,120,32
1,61,115,0
1,58,110,0
1,42,100,0
2,37,100,0
2,49,100,0
2,69,100,0
2,64,100,0
2,76,100,0
2,38,100,0
2,50,100,0
2,69,100,0
2,66,100,0
2,74,100,0
2,73,100,0
2,71,100,0
2,40,100,0
2,52,100,0
2,68,100,0
2,64,100,0
2,71,100,0
2,73,100,0
2,74,100,0
2,53,100,0
2,41,100,0
2,68,100,0
2,65,100,0
2,73,100,0
2,71,100,0
2,54,100,0
2,42,100,0
2,73,100,0
2,69,100,0
2,68,100,0
2,66,80,0
2,73,120,1024
2,69,110,0
2,64,110,0
2,71,120,0
2,68,110,0
2,64,110,0
2,69,120,32
2,66,110,0
2,69,127,0
2,68,127,0
2,69,127,0
2,68,127,0
2,66,127,0
2,74,120,0
2,71,110,0
2,66,110,0
2,73,120,0
2,69,110,0
2,66,110,0
2,71,120,0
2,68,110,0
2,64,110,0
2,69,120,0
2,66,110,0
2,68,120,0
2,64,110,0
2,69,127,0
2,71,127,0
2,64,127,0
2,73,127,0
2,69,110,0
2,73,127,0
2,75,127,384
2,71,110,0
2,76,127,0
2,73,127,0
2,64,110,0
2,73,127,0
2,69,110,0
2,71,127,0
2,73,127,0
2,75,127,192
2,76,120,0
2,73,110,0
2,69,110,0
2,73,127,0
2,75,127,0
2,71,127,0
2,76,120,0
2,71,110,0
2,73,120,0
2,69,110,0
2,83,127,11328
2,82,127,0
2,83,127,0
2,82,127,0
2,78,127,0
2,80,127,0
2,85,120,16
2,85,120,24
2,83,120,24
2,82,120,16
2,80,120,16
2,82,120,96
2,80,120,16
2,78,120,16
2,80,120,16
2,82,120,16
2,80,120,16
2,82,120,16
2,83,120,16
2,82,120,16
2,80,120,24
2,82,120,24
2,80,120,8
2,78,120,8
3,40,127,10400
3,33,127,0
3,35,118,16
3,33,103,16
3,32,127,16
3,33,127,32
3,33,127,32
3,32,127,16
3,33,127,32
3,33,103,24
3,33,127,8
3,33,103,24
3,35,127,8
3,36,127,32
3,37,127,32
3,33,127,32
3,35,110,32
3,35,127,16
3,35,127,32
3,40,127,32
3,42,127,32
3,42,103,24
3,44,127,8
3,44,103,24
3,45,127,8
3,44,127,32
3,42,127,32
3,42,127,32
3,37,103,24
3,42,127,8
3,42,103,24
3,35,127,8
3,33,127,32
3,32,127,32
3,30,110,40
3,28,127,8
3,30,103,24
3,32,127,8
3,35,103,24
3,33,127,8
3,35,125,0
3,35,88,0
3,37,118,24
3,40,110,16
3,42,127,16
3,32,127,32
3,32,110,40
3,33,127,8
3,35,103,24
3,37,127,8
3,40,103,24
3,33,127,8
3,33,103,40
3,33,127,8
3,33,103,40
3,32,127,8
3,35,110,40
3,37,103,16
3,33,127,8
3,33,103,24
3,33,127,8
3,33,103,24
3,35,127,8
3,36,127,32
3,37,127,32
3,33,127,32
3,33,103,40
3,35,127,8
3,35,127,32
3,40,127,32
3,40,118,32
3,39,127,24
3,37,118,24
3,49,127,24
3,35,118,24
3,47,127,24
3,34,118,24
3,46,127,24
3,32,103,24
3,30,118,8
3,34,127,24
3,35,118,24
3,47,127,24
3,34,118,24
3,46,127,24
3,32,118,24
3,44,127,24
3,42,125,24
3,42,127,16
3,42,110,24
3,41,127,8
3,41,127,32
3,39,118,24
3,37,127,24
3,37,118,40
3,37,127,8
3,35,127,24
3,33,127,24
3,30,127,16
3,54,127,5392
3,47,127,32
3,47,127,24
3,35,127,24
3,35,103,24
3,35,127,8
3,34,127,24
3,34,127,24
3,35,127,24
3,35,103,24
3,35,127,8
3,35,103,24
3,35,127,8
3,35,127,24
3,35,127,24
3,35,127,16
3,35,110,32
3,34,127,8
3,35,125,32
3,35,127,16
3,37,127,32
3,38,127,32
3,39,127,32
3,35,127,32
3,37,127,32
3,38,127,32
3,39,127,32
3,35,127,32
3,37,127,32
3,38,127,32
3,39,127,32
3,35,127,32
3,35,103,24
3,35,127,8
3,35,103,24
3,37,127,8
3,37,127,32
3,34,127,32
3,35,127,32
3,37,127,32
3,38,127,32
3,39,127,32
3,35,127,32
3,37,127,0
3,38,127,32
3,39,127,32
3,35,127,32
3,37,127,32
3,38,127,32
3,39,127,32
3,35,127,32
3,35,103,24
3,35,127,8
3,36,103,24
3,37,127,8
3,38,127,32
3,39,127,32
3,35,127,32
3,37,127,32
3,37,127,32
3,34,127,32
3,35,127,32
3,37,127,32
3,38,127,32
3,39,127,32
3,37,127,216
3,35,127,8
4,73,120,1024
4,71,120,0
4,69,120,0
4,69,120,0
4,68,120,0
4,69,120,0
4,68,120,0
4,66,120,0
4,74,120,0
4,73,120,0
4,71,120,0
4,69,120,0
4,68,120,0
4,69,120,0
4,71,120,0
4,64,120,0
4,73,120,0
4,75,120,32
