track,note,velocity,time
0,72,120,0
0,45,127,0
0,64,127,0
0,60,127,0
0,57,127,0
0,69,100,0
0,72,0,1
0,81,120,2
0,81,0,4
0,71,120,2
0,71,0,4
0,81,120,2
0,81,0,2
0,69,120,2
0,69,0,2
0,81,120,0
0,81,0,5
0,71,120,0
0,71,0,4
0,81,120,0
0,81,0,1
0,72,120,2
0,46,92,0
0,46,0,1
0,46,8,7
0,46,0,1
0,46,78,0
0,46,0,1
0,72,0,5
0,46,8,1
0,46,0,1
0,81,120,0
0,46,92,0
0,46,0,1
0,46,8,5
0,46,0,1
0,46,78,0
0,46,0,1
0,81,0,3
0,46,8,1
0,46,0,1
0,74,120,0
0,46,106,0
0,46,0,1
0,74,0,1
0,81,120,2
0,46,3,2
0,46,0,1
0,69,0,7
0,81,0,2
0,72,120,0
0,69,100,0
0,72,0,10
0,69,0,0
0,81,120,2
0,71,100,0
0,81,0,8
0,71,120,2
0,71,0,4
0,71,0,1
0,79,120,2
0,72,100,0
0,79,0,3
0,72,0,0
0,74,120,2
0,71,100,0
0,74,0,1
0,79,120,2
0,71,0,11
0,79,0,1
0,72,120,1
0,72,100,0
0,72,0,10
0,72,0,0
0,79,120,2
0,71,100,0
0,79,0,8
0,71,120,2
0,71,0,6
0,79,120,2
0,71,0,2
0,79,0,2
0,72,120,2
0,69,100,0
0,72,0,2
0,79,120,2
0,69,0,12
0,79,0,1
0,74,120,2
0,71,100,0
0,46,92,0
0,46,0,1
0,46,8,0
0,46,0,0
0,46,78,0
0,46,0,1
0,74,0,9
0,71,0,0
0,46,8,1
0,46,0,0
0,79,120,0
0,67,100,0
0,46,92,0
0,46,0,1
0,46,8,10
0,46,0,1
0,46,78,0
0,46,0,0
0,79,0,1
0,46,8,1
0,46,0,1
0,72,120,0
0,46,106,0
0,46,0,1
0,72,0,4
0,79,120,2
0,46,3,8
0,46,0,1
0,79,0,5
0,71,120,2
0,71,0,2
0,79,120,2
0,79,0,13
0,72,120,2
0,72,0,11
0,86,120,0
0,86,0,9
0,67,0,0
0,74,120,0
0,77,100,0
0,74,0,7
0,86,120,2
0,77,0,4
0,86,0,1
0,76,120,2
0,79,100,0
0,76,0,3
0,79,0,0
0,86,120,2
0,77,100,0
0,86,0,1
0,74,120,2
0,74,0,12
0,86,120,1
0,77,0,8
0,86,0,2
0,76,120,2
0,76,100,0
0,76,0,8
0,86,120,2
0,76,0,5
0,86,0,1
0,77,120,0
0,74,100,0
0,46,92,0
0,46,0,1
0,46,8,6
0,46,0,1
0,46,78,0
0,46,0,1
0,77,0,1
0,46,8,1
0,46,0,1
0,86,120,0
0,46,92,0
0,46,0,1
0,46,8,4
0,46,0,1
0,46,78,0
0,46,0,1
0,86,0,2
0,46,8,1
0,46,0,1
0,79,120,0
0,46,106,0
0,46,0,1
0,79,0,7
0,86,120,1
0,46,3,0
0,46,0,1
0,86,0,9
0,77,120,2
0,77,0,8
0,86,120,2
0,86,0,6
0,76,120,2
0,76,0,4
0,89,120,2
0,89,0,2
0,74,0,0
0,81,120,0
0,77,100,0
0,81,0,13
0,89,120,2
0,77,0,10
0,89,0,1
0,79,120,0
0,79,100,0
0,79,0,9
0,79,0,0
0,89,120,2
0,77,100,0
0,89,0,7
0,77,120,2
0,77,0,5
0,89,120,2
0,77,0,1
0,89,0,2
0,79,120,2
0,76,100,0
0,79,0,1
0,89,120,1
0,76,0,11
0,89,0,1
0,81,120,0
0,72,100,0
0,48,127,0
0,46,92,0
0,46,0,1
0,46,8,10
0,46,0,0
0,46,78,0
0,46,0,1
0,81,0,1
0,46,8,1
0,46,0,0
0,89,120,0
0,46,92,0
0,46,0,1
0,46,8,10
0,46,0,0
0,46,78,0
0,46,0,1
0,89,0,4
0,46,8,1
0,46,0,0
0,79,120,0
0,46,106,0
0,46,0,1
0,79,0,7
0,89,120,0
0,46,3,0
0,46,0,1
0,89,0,1
0,77,120,0
0,45,64,0
0,45,0,0
0,45,50,0
0,45,0,1
0,77,0,1
0,89,120,0
0,45,64,0
0,45,0,0
0,45,50,0
0,45,0,1
0,89,0,1
0,81,120,0
0,45,78,0
0,45,0,0
0,81,0,1
0,89,120,0
0,89,0,2
0,45,0,0
0,64,0,0
0,60,0,0
0,57,0,0
0,72,0,0
0,48,0,0
0,72,120,0
0,69,110,0
0,64,110,0
0,60,110,0
0,81,120,0
0,33,120,0
0,36,106,0
0,49,106,0
0,81,100,0
0,36,0,1
0,49,0,0
0,72,0,1
0,81,120,2
0,81,0,4
0,71,120,2
0,71,0,7
0,81,120,2
0,81,0,10
0,69,120,2
0,69,0,13
0,81,120,2
0,81,0,16
0,71,120,2
0,71,0,19
0,81,120,0
0,81,0,22
0,72,120,2
0,48,78,0
0,48,0,1
0,48,64,11
0,48,0,1
0,72,0,4
0,81,120,2
0,48,78,0
0,48,0,1
0,48,64,11
0,48,0,1
0,81,0,9
0,74,120,0
0,48,78,0
0,48,0,1
0,48,64,11
0,48,0,1
0,74,0,9
0,81,120,2
0,48,78,0
0,48,0,1
0,48,64,11
0,48,0,1
0,81,0,7
0,81,0,0
0,81,0,2
0,72,120,0
0,83,120,0
0,45,64,0
0,81,100,0
0,45,0,1
0,45,50,11
0,45,0,1
0,72,0,1
0,81,0,0
0,81,120,0
0,45,64,0
0,83,100,0
0,45,0,0
0,45,50,6
0,45,0,1
0,81,0,9
0,71,120,2
0,41,78,0
0,41,0,1
0,83,0,19
0,83,0,1
0,71,0,1
0,79,120,2
0,84,120,0
0,84,100,0
0,79,0,22
0,69,0,0
0,64,0,0
0,60,0,0
0,84,0,0
0,33,0,0
0,84,0,0
0,74,120,2
0,67,110,0
0,62,110,0
0,59,110,0
0,83,120,0
0,35,120,0
0,36,106,0
0,49,106,0
0,83,100,0
0,36,0,1
0,49,0,0
0,74,0,21
0,79,120,2
0,83,0,21
0,83,0,0
0,79,0,1
0,72,120,2
0,84,120,0
0,84,100,0
0,72,0,22
0,84,0,0
0,84,0,0
0,79,120,2
0,83,120,0
0,83,100,0
0,79,0,22
0,71,120,2
0,71,0,22
0,79,120,2
0,83,0,20
0,83,0,0
0,79,0,2
0,72,120,2
0,81,120,0
0,81,100,0
0,72,0,22
0,79,120,2
0,81,0,21
0,81,0,0
0,79,0,1
0,74,120,2
0,81,120,0
0,48,78,0
0,81,100,0
0,48,0,1
0,48,64,11
0,48,0,1
0,81,0,0
0,83,100,0
0,74,0,6
0,79,120,0
0,48,64,0
0,48,0,1
0,83,0,0
0,81,100,0
0,81,0,13
0,79,0,1
0,81,0,0
0,72,120,0
0,79,120,0
0,48,78,0
0,79,100,0
0,48,0,1
0,72,0,1
0,79,120,0
0,45,50,0
0,45,0,1
0,79,0,4
0,71,120,2
0,71,0,7
0,79,120,2
0,41,64,0
0,41,0,1
0,79,0,10
0,72,120,2
0,41,78,0
0,41,0,1
0,72,0,13
0,86,120,2
0,86,0,22
0,67,0,0
0,62,0,0
0,59,0,0
0,79,0,0
0,35,0,0
0,79,0,0
0,77,120,0
0,69,110,0
0,65,110,0
0,62,110,0
0,89,120,0
0,38,120,0
0,36,106,0
0,49,106,0
0,89,100,0
0,36,0,1
0,49,0,0
0,77,0,21
0,86,120,2
0,89,0,21
0,89,0,0
0,86,0,1
0,76,120,0
0,91,120,0
0,91,100,0
0,76,0,16
0,91,0,0
0,91,0,0
0,86,120,2
0,89,120,0
0,89,100,0
0,86,0,22
0,74,120,2
0,74,0,22
0,86,120,2
0,89,0,20
0,89,0,0
0,86,0,2
0,76,120,2
0,88,120,0
0,88,100,0
0,76,0,22
0,86,120,0
0,88,0,19
0,88,0,0
0,86,0,1
0,77,120,0
0,86,120,0
0,86,100,0
0,77,0,1
0,86,120,2
0,86,0,4
0,79,120,2
0,79,0,7
0,86,120,2
0,86,0,10
0,77,120,2
0,77,0,13
0,86,120,2
0,86,0,16
0,76,120,2
0,41,78,0
0,41,0,1
0,76,0,19
0,89,120,2
0,41,64,0
0,41,0,1
0,89,0,21
0,69,0,0
0,65,0,0
0,62,0,0
0,86,0,0
0,38,0,0
0,86,0,0
0,81,120,0
0,69,110,0
0,65,110,0
0,60,110,0
0,89,120,0
0,41,120,0
0,36,106,0
0,49,106,0
0,89,100,0
0,36,0,1
0,49,0,0
0,81,0,21
0,89,120,2
0,89,0,21
0,89,0,0
0,89,0,1
0,79,120,0
0,91,120,0
0,38,50,0
0,41,50,0
0,91,100,0
0,38,0,0
0,41,0,0
0,79,0,16
0,91,0,0
0,91,0,0
0,89,120,2
0,89,120,0
0,38,64,0
0,41,64,0
0,89,100,0
0,38,0,1
0,41,0,0
0,89,0,21
0,77,120,2
0,38,64,0
0,41,64,0
0,38,0,1
0,41,0,0
0,77,0,21
0,89,120,2
0,38,78,0
0,41,78,0
0,38,0,1
0,41,0,0
0,89,0,19
0,89,0,0
0,89,0,2
0,89,120,2
0,79,120,0
0,38,78,0
0,41,78,0
0,88,100,0
0,38,0,1
0,41,0,0
0,79,0,1
0,89,120,1
0,38,92,0
0,41,92,0
0,38,0,0
0,41,0,0
0,89,0,18
0,88,0,0
0,89,0,1
0,41,0,0
0,81,120,0
0,84,120,0
0,41,110,0
0,38,92,0
0,41,92,0
0,84,100,0
0,38,0,1
0,41,0,0
0,81,0,1
0,41,0,0
0,41,95,2
0,38,106,0
0,41,106,0
0,38,0,1
0,41,0,0
0,41,0,2
0,41,115,4
0,38,120,0
0,41,120,0
0,38,0,1
0,41,0,0
0,41,0,8
0,41,95,1
0,38,92,0
0,38,0,1
0,38,78,0
0,38,0,1
0,41,0,7
0,41,120,4
0,38,106,0
0,38,0,1
0,38,78,3
0,38,0,1
0,41,0,9
0,41,110,2
0,38,92,0
0,38,0,1
0,38,78,6
0,38,0,1
0,41,0,7
0,41,127,4
0,48,106,0
0,48,0,1
0,38,78,9
0,38,0,1
0,41,0,10
0,41,110,1
0,38,92,0
0,38,0,1
0,38,78,11
0,38,0,1
0,41,0,0
0,69,0,0
0,65,0,0
0,60,0,0
0,84,0,0
0,84,0,0
0,48,100,0
0,36,100,0
0,60,120,0
0,64,120,0
0,55,120,0
0,36,110,0
0,36,106,0
0,49,106,0
0,36,0,1
0,49,0,0
0,36,0,20
0,48,0,23
0,36,0,0
0,64,110,0
0,60,100,0
0,55,100,0
0,48,100,0
0,36,100,0
0,76,120,0
0,36,127,0
0,36,106,0
0,42,92,0
0,38,106,0
0,36,0,0
0,42,0,0
0,38,0,0
0,42,64,17
0,42,0,1
0,36,0,3
0,64,0,17
0,60,0,0
0,55,0,0
0,48,0,0
0,36,0,0
0,76,0,0
0,62,110,3
0,60,100,0
0,55,100,0
0,48,100,0
0,36,100,0
0,74,110,0
0,36,110,0
0,36,106,0
0,42,78,0
0,36,0,1
0,42,0,0
0,36,0,21
0,42,64,2
0,42,0,1
0,62,0,20
0,60,0,0
0,55,0,0
0,48,0,0
0,36,0,0
0,74,0,0
0,60,110,0
0,55,100,0
0,48,100,0
0,36,100,0
0,64,80,0
0,60,80,0
0,55,100,0
0,48,110,0
0,72,100,0
0,36,127,0
0,36,106,0
0,42,92,0
0,38,106,0
0,36,0,1
0,42,0,0
0,38,0,0
0,42,64,0
0,42,0,0
0,36,0,0
0,60,0,1
0,55,0,0
0,48,0,0
0,36,0,0
0,64,0,0
0,60,0,0
0,55,0,0
0,48,0,0
0,72,0,0
0,59,110,0
0,55,100,0
0,48,100,0
0,36,100,0
0,71,115,0
0,36,110,0
0,36,106,0
0,42,78,0
0,36,0,1
0,42,0,0
0,36,0,21
0,42,64,2
0,42,0,1
0,59,0,20
0,55,0,0
0,48,0,0
0,36,0,0
0,71,0,0
0,60,110,3
0,55,100,0
0,48,100,0
0,36,100,0
0,72,110,0
0,36,127,0
0,36,106,0
0,38,106,0
0,42,92,0
0,36,0,1
0,38,0,0
0,42,0,0
0,72,0,19
0,60,0,2
0,55,0,0
0,62,110,0
0,60,100,0
0,55,100,0
0,74,120,0
0,42,64,0
0,42,0,0
0,36,0,0
0,48,0,14
0,36,0,0
0,62,0,1
0,60,0,0
0,55,0,0
0,48,100,2
0,36,100,0
0,36,120,0
0,36,106,0
0,42,78,0
0,36,0,1
0,42,0,0
0,74,0,20
0,60,110,3
0,55,100,0
0,72,110,0
0,42,64,0
0,42,0,1
0,48,0,20
0,36,0,0
0,36,0,1
0,48,100,0
0,36,100,0
0,64,80,0
0,60,80,0
0,55,100,0
0,48,110,0
0,35,127,0
0,36,106,0
0,38,106,0
0,42,92,0
0,36,0,1
0,38,0,0
0,42,0,0
0,42,64,0
0,42,0,0
0,60,0,1
0,55,0,0
0,72,0,0
0,48,0,1
0,36,0,0
0,64,0,0
0,60,0,0
0,55,0,0
0,48,0,0
0,60,0,1
0,64,0,0
0,55,0,0
0,35,0,0
0,45,100,0
0,33,100,0
0,64,120,0
0,60,120,0
0,57,120,0
0,33,110,0
0,36,106,0
0,42,78,0
0,36,0,1
0,42,0,0
0,33,0,21
0,42,64,2
0,42,0,1
0,45,0,20
0,33,0,0
0,69,110,0
0,64,100,0
0,60,100,0
0,45,100,0
0,33,100,0
0,76,120,0
0,33,127,0
0,36,106,0
0,38,106,0
0,42,92,0
0,36,0,1
0,38,0,0
0,42,0,0
0,42,64,14
0,42,0,1
0,33,0,3
0,69,0,17
0,64,0,0
0,60,0,0
0,45,0,0
0,33,0,0
0,76,0,0
0,69,110,3
0,64,100,0
0,60,100,0
0,45,100,0
0,33,100,0
0,74,110,0
0,33,110,0
0,36,106,0
0,42,78,0
0,36,0,1
0,42,0,0
0,33,0,21
0,42,64,2
0,42,0,1
0,69,0,20
0,64,0,0
0,60,0,0
0,45,0,0
0,33,0,0
0,74,0,0
0,69,110,0
0,64,100,0
0,60,100,0
0,45,100,0
0,33,100,0
0,60,80,0
0,57,80,0
0,52,100,0
0,45,110,0
0,72,100,0
0,33,127,0
0,36,106,0
0,38,106,0
0,42,92,0
0,36,0,1
0,38,0,0
0,42,0,0
0,42,64,0
0,42,0,0
0,33,0,0
0,69,0,1
0,64,0,0
0,60,0,0
0,45,0,0
0,33,0,0
0,60,0,0
0,57,0,0
0,52,0,0
0,45,0,0
0,72,0,0
0,45,100,0
0,33,100,0
0,71,115,0
0,33,110,0
0,36,106,0
0,42,78,0
0,36,0,1
0,42,0,0
0,33,0,21
0,42,64,2
0,42,0,1
0,45,0,20
0,33,0,0
0,71,0,0
0,45,100,3
0,33,100,0
0,72,105,0
0,33,127,0
0,36,106,0
0,38,106,0
0,42,92,0
0,36,0,1
0,38,0,0
0,42,0,0
0,72,0,19
0,69,110,4
0,64,100,0
0,60,100,0
0,74,110,0
0,42,64,0
0,42,0,1
0,33,0,3
0,45,0,17
0,33,0,0
0,69,0,1
0,64,0,0
0,60,0,0
0,45,100,2
0,33,100,0
0,33,120,0
0,36,106,0
0,42,78,0
0,36,0,1
0,42,0,0
0,74,0,20
0,69,110,0
0,64,100,0
0,60,100,0
0,76,120,0
0,42,64,0
0,42,0,1
0,45,0,11
0,33,0,0
0,33,0,1
0,45,100,0
0,33,100,0
0,60,80,0
0,57,80,0
0,52,100,0
0,45,110,0
0,33,127,0
0,36,106,0
0,38,106,0
0,42,92,0
0,36,0,1
0,38,0,0
0,42,0,0
0,42,64,0
0,42,0,0
0,69,0,1
0,64,0,0
0,60,0,0
0,76,0,0
0,45,0,1
0,33,0,0
0,60,0,0
0,57,0,0
0,52,0,0
0,45,0,0
0,64,0,1
0,60,0,0
0,57,0,0
0,33,0,0
0,50,100,0
0,38,100,0
0,62,120,0
0,57,120,0
0,53,120,0
0,38,110,0
0,36,106,0
0,42,78,0
0,36,0,1
0,42,0,0
0,38,0,21
0,42,64,2
0,42,0,1
0,50,0,20
0,38,0,0
0,62,110,0
0,57,100,0
0,53,100,0
0,50,100,0
0,38,100,0
0,76,120,0
0,38,127,0
0,36,106,0
0,38,106,0
0,42,92,0
0,36,0,0
0,38,0,0
0,42,0,0
0,42,64,17
0,42,0,1
