track,note,velocity,time
0,36,98,614
0,35,113,94
0,42,66,0
0,53,56,0
0,64,97,0
0,29,98,2
0,60,90,2
0,60,90,0
0,64,88,0
0,64,88,0
0,53,94,2
0,53,94,0
0,57,93,0
0,57,93,0
0,69,40,44
0,42,66,14
0,63,84,0
0,37,81,2
0,29,98,56
0,35,113,0
0,53,56,0
0,53,90,6
0,53,90,0
0,64,85,2
0,64,85,0
0,57,93,2
0,57,93,0
0,60,88,0
0,60,88,0
0,29,98,4
0,35,113,4
0,53,56,0
0,69,40,0
0,42,66,2
0,53,88,10
0,53,88,0
0,57,93,2
0,57,93,0
0,64,92,0
0,64,92,0
0,60,88,2
0,60,88,0
0,29,98,2
0,53,56,8
0,63,92,0
0,37,81,2
0,69,40,0
0,53,86,8
0,53,86,0
0,57,92,2
0,57,92,0
0,64,88,0
0,64,88,0
0,60,88,2
0,60,88,0
0,42,66,28
0,64,87,114
0,30,98,14
0,54,86,0
0,54,86,0
0,58,92,2
0,58,92,0
0,61,85,2
0,61,85,0
0,65,90,0
0,65,90,0
0,35,113,6
0,69,40,0
0,37,81,2
0,42,66,0
0,49,61,0
0,30,98,132
0,35,113,8
0,54,90,0
0,54,90,0
0,64,79,0
0,42,66,2
0,65,94,0
0,65,94,0
0,69,40,0
0,37,81,2
0,57,61,0
0,61,85,0
0,61,85,0
0,58,93,2
0,58,93,0
0,42,66,28
0,53,56,76
0,42,98,4
0,54,106,2
0,54,106,0
0,63,88,0
0,42,66,28
0,37,98,16
0,53,56,72
0,30,98,8
0,64,73,2
0,64,69,8
0,35,113,0
0,42,66,2
0,53,93,0
0,53,93,0
0,53,56,0
0,57,93,2
0,57,93,0
0,64,90,0
0,64,90,0
0,60,88,2
0,60,88,0
0,29,98,8
0,69,40,4
0,37,81,76
0,42,66,0
0,63,84,6
0,64,88,32
0,64,88,0
0,29,98,2
0,53,94,0
0,53,94,0
0,57,85,2
0,57,85,0
0,60,78,2
0,60,78,0
0,35,113,4
0,53,56,0
0,29,98,8
0,57,92,12
0,57,92,0
0,35,113,4
0,60,79,0
0,60,79,0
0,53,56,2
0,64,78,0
0,64,78,0
0,69,40,0
0,42,66,2
0,53,83,0
0,53,83,0
0,29,98,2
0,53,92,12
0,53,92,0
0,57,93,2
0,57,93,0
0,64,85,2
0,64,85,0
0,53,56,2
0,60,85,0
0,60,85,0
0,69,40,0
0,37,81,2
0,63,74,0
0,42,66,38
0,54,88,126
0,54,88,0
0,58,92,0
0,58,92,0
0,30,98,2
0,65,88,0
0,65,88,0
0,64,87,2
0,61,83,2
0,61,83,0
0,35,113,6
0,53,56,0
0,42,66,2
0,69,40,0
0,37,81,2
0,49,61,0
0,35,113,144
0,53,56,0
0,54,90,0
0,54,90,0
0,58,92,2
0,58,92,0
0,69,40,0
0,42,66,2
0,57,61,0
0,61,83,0
0,61,83,0
0,37,81,2
0,65,94,0
0,65,94,0
0,64,83,2
0,30,98,2
0,42,66,88
0,66,100,8
0,68,88,36
0,38,95,40
0,53,56,0
0,63,102,2
0,70,94,2
0,54,101,4
0,54,101,0
0,72,89,0
0,42,66,42
0,53,56,0
0,74,93,6
0,76,94,8
0,46,70,42
0,53,56,0
0,38,95,2
0,77,89,4
0,63,84,2
0,78,95,26
0,29,98,14
0,35,113,0
0,42,66,0
0,37,81,2
0,64,94,2
0,64,94,0
0,57,98,2
0,57,98,0
0,67,88,0
0,67,88,0
0,60,92,2
0,60,92,0
0,64,105,4
0,79,97,0
0,69,40,64
0,63,58,56
0,37,81,2
0,42,66,0
0,76,91,2
0,35,113,14
0,64,79,4
0,24,98,2
0,76,95,32
0,24,98,2
0,35,113,4
0,42,66,0
0,69,40,0
0,64,43,12
0,37,81,6
0,69,40,0
0,74,93,0
0,63,74,8
0,42,66,40
0,29,98,4
0,35,113,6
0,69,40,0
0,79,91,2
0,64,69,2
0,29,98,30
0,35,113,12
0,37,81,0
0,42,66,0
0,75,89,72
0,69,40,4
0,76,94,6
0,64,69,0
0,42,66,30
0,63,68,2
0,35,113,42
0,37,81,0
0,75,89,0
0,64,79,2
0,24,98,8
0,76,93,4
0,24,98,26
0,35,113,0
0,42,66,0
0,69,40,0
0,75,92,72
0,69,40,4
0,64,63,0
0,53,97,8
0,53,97,0
0,64,86,0
0,64,86,0
0,57,93,2
0,57,93,0
0,60,88,0
0,60,88,0
0,76,94,2
0,74,88,2
0,37,81,4
0,42,66,0
0,63,64,4
0,29,98,4
0,30,98,22
0,35,113,10
0,69,40,0
0,79,89,0
0,64,69,2
0,53,88,10
0,53,88,0
0,64,86,0
0,64,86,0
0,57,88,2
0,57,88,0
0,59,93,0
0,59,93,0
0,31,98,10
0,64,83,2
0,35,113,2
0,37,81,2
0,42,66,0
0,69,40,0
0,37,81,76
0,42,66,0
0,63,64,0
0,35,113,20
0,75,93,0
0,26,98,2
0,76,94,0
0,26,98,22
0,35,113,2
0,42,66,0
0,69,40,0
0,76,93,8
0,64,87,2
0,37,81,2
0,69,40,0
0,74,92,8
0,42,66,44
0,53,90,2
0,53,90,0
0,59,92,2
0,59,92,0
0,57,90,2
0,57,90,0
0,63,88,0
0,63,88,0
0,31,98,0
0,35,113,6
0,69,40,2
0,79,94,0
0,63,68,2
0,59,79,12
0,59,79,0
0,62,92,2
0,62,92,0
0,31,98,10
0,35,113,8
0,37,81,0
0,42,66,0
0,69,40,74
0,75,94,4
0,64,79,2
0,76,95,10
0,42,66,20
0,35,113,4
0,26,98,2
0,37,81,0
0,53,86,0
0,53,86,0
0,64,87,2
0,75,95,0
0,59,85,2
0,59,85,0
0,62,86,0
0,62,86,0
0,57,85,2
0,57,85,0
0,76,89,0
0,26,98,2
0,35,113,2
0,69,40,2
0,42,66,2
0,75,97,70
0,69,40,2
0,64,87,2
0,53,90,2
0,53,90,0
0,57,93,2
0,57,93,0
0,59,86,2
0,59,86,0
0,62,88,2
0,62,88,0
0,76,94,4
0,63,84,6
0,74,89,4
0,42,66,2
0,37,81,0
0,31,98,8
0,64,83,8
0,35,113,6
0,53,88,2
0,53,88,0
0,69,40,0
0,55,86,2
0,55,86,0
0,77,89,0
0,58,79,2
0,58,79,0
0,62,92,0
0,62,92,0
0,64,83,4
0,35,113,4
0,31,98,2
0,37,81,0
0,42,66,0
0,69,40,74
0,42,66,76
0,37,81,2
0,63,78,2
0,74,98,22
0,26,98,2
0,35,113,4
0,74,93,0
0,26,98,2
0,35,113,6
0,42,66,0
0,69,40,0
0,64,79,10
0,31,98,4
0,72,91,0
0,37,81,4
0,69,40,0
0,53,86,2
0,53,86,0
0,55,92,0
0,55,92,0
0,62,86,2
0,62,86,0
0,63,74,0
0,58,79,2
0,58,79,0
0,42,66,14
0,76,92,62
0,35,113,14
0,54,88,0
0,54,88,0
0,69,40,0
0,52,93,2
0,52,93,0
0,64,83,2
0,58,86,2
0,58,86,0
0,61,83,2
0,61,83,0
0,30,98,4
0,35,113,10
0,42,66,0
0,37,81,2
0,72,91,70
0,69,40,0
0,64,83,4
0,42,66,46
0,54,86,2
0,54,86,0
0,58,85,0
0,58,85,0
0,61,79,6
0,61,79,0
0,72,92,0
0,35,113,2
0,52,71,0
0,52,71,0
0,37,81,2
0,53,78,0
0,53,78,0
0,25,98,6
0,64,73,4
0,52,85,30
0,52,85,0
0,25,98,2
0,54,81,0
0,54,81,0
0,58,78,2
0,58,78,0
0,35,113,2
0,69,40,0
0,42,66,2
0,61,73,0
0,61,73,0
0,63,64,6
0,54,85,32
0,54,85,0
0,69,40,0
0,52,86,2
0,52,86,0
0,58,85,2
0,58,85,0
0,72,88,2
0,61,69,2
0,61,69,0
0,30,98,4
0,37,81,4
0,42,66,0
0,70,89,2
0,64,83,8
0,72,92,12
0,53,93,2
0,53,93,0
0,52,88,2
0,52,88,0
0,60,93,0
0,60,93,0
0,35,113,2
0,57,93,0
0,57,93,0
0,69,40,0
0,63,64,12
0,29,98,12
0,35,113,4
0,42,66,0
0,37,81,2
0,64,93,16
0,69,40,58
0,37,81,16
0,42,66,0
0,29,98,26
0,35,113,2
0,64,83,0
0,53,86,2
0,53,86,0
0,60,85,2
0,60,85,0
0,64,85,0
0,64,85,0
0,57,85,2
0,57,85,0
0,29,98,0
0,63,54,4
0,35,113,6
0,69,40,0
0,42,66,2
0,53,83,0
0,53,83,0
0,64,83,0
0,64,83,0
0,57,88,0
0,57,88,0
0,60,78,0
0,60,78,0
0,29,98,24
0,64,87,4
0,69,40,0
0,37,81,2
0,53,88,2
0,53,88,0
0,60,88,0
0,60,88,0
0,64,86,0
0,64,86,0
0,57,88,0
0,57,88,0
0,42,66,24
0,35,113,38
0,69,40,0
0,64,87,10
0,54,86,2
0,54,86,0
0,58,88,0
0,58,88,0
0,61,78,4
0,61,78,0
0,65,78,2
0,65,78,0
0,30,98,6
0,35,113,12
0,37,81,0
0,42,66,0
0,49,61,0
0,63,92,6
0,69,40,28
0,30,98,72
0,42,66,4
0,49,61,0
0,37,81,2
0,54,93,14
0,54,93,0
0,63,110,0
0,61,86,2
0,61,86,0
0,58,93,0
0,58,93,0
0,65,93,0
0,65,93,0
0,35,113,10
0,37,81,0
0,35,113,76
0,69,40,0
0,42,66,2
0,66,109,10
0,68,88,40
0,70,92,10
0,38,95,8
0,69,40,0
0,72,101,6
0,72,101,0
0,79,94,4
0,79,94,0
0,42,98,2
0,72,91,26
0,37,98,16
0,37,81,2
0,42,66,0
0,74,91,6
0,76,66,0
0,30,98,24
0,76,92,0
0,63,84,6
0,35,113,0
0,46,70,0
0,38,95,2
0,69,40,0
0,77,86,0
0,78,98,46
0,64,93,4
0,35,113,8
0,42,66,0
0,37,81,2
0,53,92,2
0,53,92,0
0,69,97,2
0,69,97,0
0,72,93,2
0,72,93,0
0,76,93,0
0,76,93,0
0,57,85,2
0,57,85,0
0,64,85,0
0,64,85,0
0,60,83,0
0,60,83,0
0,29,98,2
0,79,105,0
0,69,40,66
0,63,84,66
0,37,81,10
0,42,66,0
0,76,89,8
0,35,113,6
0,64,43,2
0,24,98,4
0,64,63,20
0,24,98,10
0,35,113,4
0,69,40,0
0,42,66,2
0,76,94,2
0,37,81,6
0,69,40,0
0,74,94,6
0,79,94,24
0,79,94,0
0,72,93,2
0,72,93,0
0,42,66,4
0,63,44,0
0,29,98,6
0,35,113,6
0,64,79,0
0,69,40,0
0,76,93,2
0,76,93,0
0,79,93,4
0,29,98,26
0,35,113,6
0,42,66,0
0,37,81,2
0,69,40,74
0,76,92,8
0,64,69,4
0,53,90,32
0,53,90,0
0,42,66,2
0,63,74,2
0,55,73,6
0,55,73,0
0,57,88,24
0,57,88,0
0,35,113,2
0,75,91,0
0,37,81,2
0,64,87,0
0,76,92,6
0,24,98,0
0,24,98,40
0,35,113,0
0,69,40,0
0,42,66,2
0,53,93,66
0,53,93,0
0,60,90,0
0,60,90,0
0,57,88,2
0,57,88,0
0,64,83,0
0,64,83,0
0,69,40,6
0,75,94,10
0,64,83,8
0,76,97,8
0,29,98,24
0,37,81,4
0,42,66,0
0,74,84,8
0,63,88,2
0,53,94,4
0,53,94,0
0,59,93,0
0,59,93,0
0,57,93,2
0,57,93,0
0,35,113,2
0,64,88,0
0,64,88,0
0,69,40,0
0,79,89,8
0,64,53,2
0,35,113,12
0,42,66,0
0,37,81,2
0,31,98,6
0,64,73,0
0,69,40,6
0,37,81,22
0,42,66,0
0,63,74,4
0,75,94,10
0,26,98,2
0,76,95,0
0,35,113,0
0,26,98,16
0,35,113,4
0,42,66,2
0,69,40,0
0,76,93,0
0,69,105,2
0,69,105,0
0,74,97,0
0,74,97,0
0,37,81,10
0,69,40,0
0,63,84,12
0,74,91,2
0,71,88,2
0,71,88,0
0,42,66,26
0,31,98,64
0,64,87,2
0,69,78,0
0,69,78,0
0,35,113,2
0,69,40,0
0,79,94,2
0,31,98,28
0,35,113,6
0,42,66,0
0,37,81,2
0,75,91,66
0,69,40,8
0,64,79,10
0,76,94,0
0,42,66,22
0,63,54,0
0,53,92,4
0,53,92,0
0,75,93,0
0,35,113,8
0,37,81,0
0,63,64,2
0,57,88,2
0,57,88,0
0,26,98,10
0,76,94,0
0,35,113,28
0,69,40,0
0,42,66,2
0,26,98,12
0,53,90,62
0,53,90,0
0,59,93,2
0,59,93,0
0,64,92,0
0,64,92,0
0,57,93,2
0,57,93,0
0,69,40,8
0,64,93,2
0,75,95,4
0,76,94,0
0,64,83,58
0,37,81,2
0,42,66,0
0,74,94,4
0,53,90,6
0,53,90,0
0,55,93,2
0,55,93,0
0,58,86,0
0,58,86,0
0,62,93,0
0,62,93,0
0,35,113,6
0,69,40,0
0,63,88,2
0,77,97,0
0,31,98,6
0,35,113,34
0,42,66,0
0,31,98,2
0,37,81,0
0,64,87,6
0,69,40,18
0,63,84,32
0,37,81,2
0,42,66,0
0,26,98,18
0,73,91,2
0,74,97,4
0,35,113,4
0,64,63,4
0,55,90,8
0,55,90,0
0,62,93,0
0,62,93,0
0,58,81,2
0,58,81,0
0,65,92,0
0,65,92,0
0,26,98,12
0,35,113,0
0,42,66,2
0,69,40,0
0,74,98,4
0,64,73,2
0,62,86,8
0,62,86,0
0,65,67,0
0,65,67,0
0,55,85,0
0,55,85,0
0,58,74,4
0,58,74,0
0,63,78,28
0,69,40,0
0,37,81,2
0,72,94,12
0,53,92,0
0,53,92,0
0,62,85,0
0,62,85,0
0,55,98,0
0,55,98,0
0,58,90,0
0,58,90,0
0,31,98,14
0,42,66,10
0,64,83,72
0,35,113,4
0,69,40,0
0,76,103,2
0,54,79,2
0,54,79,0
0,52,85,4
0,52,85,0
0,58,83,4
0,58,83,0
0,61,81,2
0,61,81,0
0,30,98,22
0,35,113,2
0,42,66,0
0,37,81,2
0,64,83,74
0,69,40,0
0,72,94,6
0,42,66,8
0,52,92,2
0,52,92,0
0,54,85,0
0,54,85,0
0,58,81,2
0,58,81,0
0,61,73,0
0,61,73,0
0,35,113,4
0,37,81,0
0,25,98,2
0,72,94,2
0,63,74,6
0,25,98,40
0,35,113,0
0,42,66,2
0,69,40,0
0,69,40,74
0,54,86,2
0,54,86,0
0,72,94,2
0,52,86,2
0,52,86,0
0,58,85,0
0,58,85,0
0,61,73,4
0,61,73,0
0,64,69,0
0,70,88,18
0,37,81,2
0,42,66,0
0,64,59,0
0,30,98,6
0,63,54,10
0,72,92,4
0,35,113,6
0,69,40,0
0,60,90,2
0,60,90,0
0,53,90,2
0,53,90,0
0,57,86,0
0,57,86,0
0,52,90,2
0,52,90,0
0,64,83,14
0,35,113,8
0,42,66,0
0,37,81,2
0,29,98,8
0,69,40,20
0,37,81,76
0,42,66,0
0,63,58,4
0,24,98,2
0,35,113,2
0,24,98,8
0,35,113,10
0,42,66,0
0,69,40,0
0,60,94,8
0,60,94,0
0,64,73,0
0,67,88,0
0,67,88,0
0,57,97,2
0,57,97,0
0,37,81,24
0,69,40,0
0,63,64,6
0,64,81,0
0,64,81,0
0,42,66,8
0,29,98,52
0,35,113,6
0,69,40,0
0,64,73,8
0,60,93,10
0,60,93,0
0,29,98,28
0,35,113,12
0,64,79,0
0,37,81,2
0,42,66,0
0,48,85,74
0,69,40,0
0,64,98,8
0,64,98,0
0,71,94,0
0,71,94,0
0,67,93,42
0,67,93,0
0,42,66,10
0,63,84,0
0,64,88,18
0,64,88,0
0,41,98,6
0,64,69,0
0,35,113,2
0,45,85,0
0,37,81,2
0,35,113,6
0,42,66,0
0,69,40,0
0,41,85,76
0,69,40,0
0,29,98,10
0,57,94,0
0,57,94,0
0,64,87,2
0,41,85,36
0,42,66,0
0,37,81,2
0,63,54,6
0,35,113,32
0,69,40,0
0,57,61,2
0,64,83,2
0,29,98,10
0,30,98,68
0,77,103,2
0,35,113,2
0,42,66,0
0,37,81,2
0,54,97,6
0,54,97,0
0,61,86,2
0,61,86,0
0,64,83,0
0,65,93,0
0,65,93,0
0,58,92,2
0,58,92,0
0,69,40,66
0,37,81,54
0,42,66,0
