track,note,velocity,time
0,42,127,239
0,42,0,3
0,42,127,93
0,42,0,3
0,42,127,93
0,42,0,3
0,42,127,93
0,42,0,3
0,36,127,93
0,56,127,0
0,56,0,3
0,36,0,0
0,36,127,69
0,36,0,3
0,37,127,21
0,37,0,3
0,38,127,69
0,38,0,3
0,36,127,21
0,56,127,0
0,56,0,3
0,36,0,0
0,38,127,45
0,38,0,3
0,37,127,45
0,37,0,3
0,56,127,93
0,36,127,0
0,36,0,3
0,56,0,0
0,38,127,45
0,38,0,3
0,38,127,21
0,36,127,0
0,36,0,3
0,38,0,0
0,38,127,21
0,37,127,0
0,37,0,3
0,38,0,0
0,56,127,93
0,38,127,0
0,36,127,0
0,36,0,3
0,38,0,0
0,56,0,0
0,38,127,21
0,38,0,3
0,38,127,21
0,38,0,3
0,36,127,21
0,36,0,3
0,37,127,21
0,37,0,3
0,36,127,93
0,56,127,0
0,56,0,3
0,36,0,0
0,36,127,69
0,36,0,3
0,37,127,21
0,37,0,3
0,38,127,69
0,38,0,3
0,56,127,21
0,36,127,0
0,36,0,3
0,56,0,0
0,38,127,45
0,38,0,3
0,37,127,45
0,37,0,3
0,56,127,93
0,36,127,0
0,36,0,3
0,56,0,0
0,38,127,45
0,38,0,3
0,38,127,21
0,36,127,0
0,36,0,3
0,38,0,0
0,37,127,21
0,38,127,0
0,38,0,3
0,37,0,0
0,38,127,93
0,56,127,0
0,36,127,0
0,36,0,3
0,56,0,0
0,38,0,0
0,36,127,21
0,38,127,0
0,38,0,3
0,36,0,0
0,36,127,21
0,38,127,0
0,38,0,3
0,36,0,0
0,36,127,21
0,36,0,3
0,37,127,21
0,38,127,0
0,38,0,3
0,37,0,0
0,38,127,21
0,38,0,3
0,38,127,21
0,38,0,3
0,38,127,21
0,38,0,3
0,67,127,21
0,42,127,0
0,40,127,0
0,36,127,0
0,56,127,0
0,76,127,0
0,62,127,1
0,71,127,0
0,67,127,0
0,56,0,2
0,36,0,0
0,42,0,0
0,67,0,14
0,76,0,0
0,67,127,7
0,76,127,0
0,42,127,0
0,42,0,3
0,67,0,14
0,76,0,0
0,76,127,7
0,42,127,0
0,67,127,0
0,42,0,3
0,71,0,13
0,40,0,1
0,76,0,0
0,67,0,0
0,67,0,1
0,62,0,2
0,36,127,4
0,40,127,0
0,67,127,0
0,42,127,0
0,76,127,0
0,42,0,3
0,36,0,0
0,71,127,0
0,67,127,0
0,62,127,0
0,76,0,14
0,67,0,0
0,40,0,5
0,38,127,1
0,76,127,1
0,40,127,0
0,56,127,0
0,42,127,0
0,67,127,0
0,38,0,2
0,42,0,1
0,67,0,0
0,56,0,0
0,71,0,3
0,62,0,2
0,67,0,9
0,76,0,0
0,40,0,5
0,36,127,25
0,42,127,1
0,67,127,0
0,40,127,0
0,76,127,0
0,36,0,2
0,42,0,1
0,76,0,14
0,67,0,0
0,40,0,5
0,76,127,2
0,67,127,0
0,42,127,0
0,42,0,3
0,67,0,14
0,76,0,0
0,36,127,6
0,42,127,0
0,38,127,1
0,56,127,0
0,42,0,2
0,36,0,0
0,56,0,1
0,67,127,21
0,76,127,0
0,42,127,0
0,42,0,3
0,76,0,14
0,67,0,0
0,38,0,2
0,42,127,4
0,40,127,1
0,74,127,0
0,66,127,0
0,42,0,2
0,66,0,15
0,74,0,0
0,40,0,5
0,76,127,2
0,67,127,0
0,67,0,17
0,76,0,0
0,38,127,6
0,42,127,1
0,56,127,0
0,71,127,0
0,38,127,0
0,79,127,0
0,67,127,1
0,71,127,0
0,62,127,0
0,38,0,1
0,42,0,1
0,56,0,0
0,71,0,14
0,79,0,0
0,38,0,5
0,69,127,2
0,78,127,0
0,78,0,17
0,69,0,0
0,67,127,7
0,76,127,0
0,40,127,0
0,71,0,13
0,67,0,1
0,62,0,0
0,67,0,3
0,76,0,0
0,40,0,5
0,62,127,2
0,67,127,0
0,71,127,0
0,67,0,22
0,36,127,2
0,56,127,0
0,76,127,0
0,67,127,0
0,42,127,0
0,71,0,1
0,62,0,0
0,36,0,2
0,56,0,0
0,42,0,0
0,67,0,14
0,76,0,0
0,76,127,7
0,42,127,0
0,67,127,0
0,42,0,3
0,67,0,14
0,76,0,0
0,42,127,7
0,67,127,0
0,76,127,0
0,38,127,0
0,42,0,3
0,67,0,14
0,76,0,0
0,42,127,7
0,76,127,0
0,36,127,0
0,67,127,0
0,36,0,3
0,42,0,0
0,67,0,14
0,76,0,0
0,38,127,6
0,67,127,1
0,42,127,0
0,76,127,0
0,56,127,0
0,38,0,2
0,42,0,1
0,56,0,0
0,38,0,14
0,76,0,0
0,67,0,0
0,36,127,30
0,42,127,1
0,67,127,0
0,40,127,0
0,76,127,0
0,36,0,2
0,42,0,1
0,76,0,14
0,67,0,0
0,40,0,5
0,42,127,2
0,42,0,3
0,36,127,20
0,42,127,0
0,56,127,1
0,38,127,0
0,42,0,2
0,36,0,0
0,56,0,1
0,38,0,19
0,42,127,2
0,38,127,0
0,42,0,3
0,38,0,19
0,42,127,1
0,40,127,1
0,67,127,0
0,76,127,0
0,42,0,2
0,76,0,15
0,67,0,0
0,40,0,5
0,38,127,25
0,38,127,1
0,42,127,0
0,56,127,0
0,71,127,0
0,79,127,0
0,73,127,1
0,69,127,0
0,64,127,0
0,38,0,1
0,56,0,1
0,42,0,0
0,71,0,10
0,79,0,0
0,69,127,6
0,78,127,0
0,78,0,12
0,69,0,0
0,38,0,2
0,40,127,5
0,67,127,0
0,76,127,0
0,76,0,17
0,67,0,0
0,40,0,5
0,69,0,8
0,64,0,2
0,73,0,1
0,67,127,1
0,40,127,0
0,76,127,0
0,71,127,0
0,56,127,0
0,67,127,0
0,62,127,0
0,42,127,0
0,36,127,0
0,36,0,3
0,42,0,0
0,56,0,0
0,76,0,1
0,67,0,0
0,67,127,7
0,76,127,0
0,42,127,0
0,42,0,3
0,67,0,14
0,76,0,0
0,67,127,7
0,76,127,0
0,42,127,0
0,42,0,3
0,71,0,7
0,62,0,0
0,67,0,1
0,40,0,6
0,76,0,0
0,67,0,0
0,67,127,7
0,76,127,0
0,36,127,0
0,42,127,0
0,40,127,0
0,67,127,1
0,62,127,0
0,71,127,0
0,42,0,2
0,36,0,0
0,67,0,14
0,76,0,0
0,40,0,5
0,71,0,1
0,67,0,0
0,38,127,0
0,40,127,1
0,76,127,0
0,67,127,0
0,42,127,0
0,56,127,0
0,62,0,1
0,38,0,1
0,42,0,1
0,56,0,0
0,76,0,14
0,67,0,0
0,40,0,5
0,67,127,2
0,76,127,0
0,76,0,17
0,67,0,0
0,36,127,6
0,42,127,1
0,76,127,0
0,67,127,0
0,40,127,0
0,36,0,2
0,42,0,1
0,67,0,14
0,76,0,0
0,40,0,5
0,42,127,2
0,42,0,3
0,42,127,20
0,36,127,0
0,38,127,1
0,56,127,0
0,36,0,2
0,42,0,0
0,56,0,1
0,67,127,21
0,76,127,0
0,42,127,0
0,42,0,3
0,76,0,14
0,67,0,0
0,38,0,2
0,42,127,4
0,66,127,1
0,40,127,0
0,74,127,0
0,42,0,2
0,66,0,15
0,74,0,0
0,40,0,5
0,67,127,2
0,76,127,0
0,76,0,17
0,67,0,0
0,38,127,6
0,42,127,1
0,71,127,0
0,56,127,0
0,38,127,0
0,67,127,0
0,62,127,0
0,71,127,0
0,79,127,0
0,38,0,2
0,56,0,1
0,42,0,0
0,79,0,14
0,71,0,0
0,78,127,7
0,69,127,0
0,69,0,17
0,78,0,0
0,38,0,2
0,40,127,5
0,67,127,0
0,76,127,0
0,62,0,10
0,67,0,0
0,71,0,1
0,67,0,6
0,76,0,0
0,40,0,5
0,62,127,1
0,67,127,0
0,71,127,0
0,56,127,25
0,42,127,0
0,67,127,0
0,36,127,0
0,76,127,0
0,36,0,3
0,56,0,0
0,67,0,0
0,62,0,0
0,71,0,0
0,42,0,0
0,76,0,14
0,67,0,0
0,67,127,7
0,76,127,0
0,42,127,0
0,42,0,3
0,76,0,14
0,67,0,0
0,42,127,7
0,67,127,0
0,76,127,0
0,38,127,0
0,42,0,3
0,67,0,14
0,76,0,0
0,76,127,7
0,67,127,0
0,42,127,0
0,36,127,0
0,36,0,3
0,42,0,0
0,67,0,14
0,76,0,0
0,38,127,6
0,76,127,1
0,56,127,0
0,67,127,0
0,42,127,0
0,38,0,2
0,56,0,1
0,42,0,0
0,76,0,14
0,67,0,0
0,38,0,21
0,36,127,9
0,42,127,1
0,40,127,0
0,76,127,0
0,67,127,0
0,36,0,2
0,42,0,1
0,76,0,14
0,67,0,0
0,40,0,5
0,42,127,2
0,42,0,3
0,36,127,20
0,42,127,0
0,38,127,1
0,56,127,0
0,42,0,2
0,36,0,0
0,56,0,1
0,38,0,19
0,42,127,2
0,38,127,0
0,67,127,0
0,76,127,0
0,42,0,3
0,76,0,14
0,67,0,0
0,38,0,5
0,42,127,1
0,40,127,1
0,74,127,0
0,66,127,0
0,42,0,2
0,66,0,15
0,74,0,0
0,40,0,5
0,76,127,2
0,67,127,0
0,67,0,17
0,76,0,0
0,38,127,6
0,71,127,1
0,56,127,0
0,79,127,0
0,42,127,0
0,38,127,0
0,40,127,0
0,38,0,2
0,42,0,1
0,56,0,0
0,41,127,2
0,40,0,5
0,43,127,3
0,79,0,4
0,71,0,0
0,41,0,1
0,45,127,3
0,78,127,3
0,69,127,0
0,43,0,1
0,47,127,3
0,45,0,6
0,48,127,3
0,69,0,4
0,47,0,0
0,78,0,0
0,38,0,2
0,50,127,3
0,76,127,2
0,40,127,0
0,67,127,0
0,48,0,3
0,52,127,4
0,50,0,5
0,67,0,5
0,76,0,0
0,53,127,1
0,40,0,4
0,52,0,1
0,55,127,6
0,53,0,5
0,57,127,5
0,55,0,5
0,57,0,2
0,59,127,0
0,71,127,1
0,62,127,0
0,67,127,0
0,43,127,1
0,42,127,0
0,36,127,0
0,71,127,0
0,79,127,0
0,56,127,0
0,59,0,1
0,56,0,2
0,36,0,0
0,42,0,0
0,71,0,14
0,79,0,0
0,43,0,5
0,43,127,2
0,42,127,0
0,42,0,3
0,43,0,19
0,79,127,2
0,43,127,0
0,71,127,0
0,42,127,0
0,42,0,3
0,79,0,14
0,71,0,0
0,43,0,5
0,71,127,2
0,79,127,0
0,42,127,0
0,36,127,0
0,43,127,0
0,36,0,3
0,42,0,0
0,71,0,14
0,79,0,0
0,43,0,5
0,38,127,1
0,43,127,1
0,42,127,0
0,79,127,0
0,71,127,0
0,56,127,0
0,38,0,2
0,56,0,1
0,42,0,0
0,71,0,14
0,79,0,0
0,43,0,5
0,36,127,25
0,43,127,1
0,42,127,0
0,71,127,0
0,79,127,0
0,36,0,2
0,42,0,1
0,79,0,14
0,71,0,0
0,43,0,5
0,42,127,2
0,42,0,3
0,36,127,20
0,42,127,0
0,56,127,1
0,43,127,0
0,42,0,2
0,36,0,0
0,56,0,1
0,79,127,21
0,42,127,0
0,71,127,0
0,42,0,3
0,79,0,14
0,71,0,0
0,43,0,2
0,42,127,4
0,79,127,1
0,71,127,0
0,42,0,2
0,79,0,15
0,71,0,0
0,79,127,7
0,71,127,0
0,43,127,0
0,71,0,17
0,79,0,0
0,38,127,6
0,42,127,1
0,71,127,0
0,56,127,0
0,79,127,0
0,38,0,2
0,56,0,1
0,42,0,0
0,79,0,14
0,71,0,0
0,71,127,7
0,79,127,0
0,79,0,17
0,43,0,0
0,71,0,0
0,79,127,7
0,43,127,0
0,71,127,0
0,62,0,6
0,79,0,11
0,71,0,0
0,67,0,4
0,71,0,0
0,43,0,1
0,71,127,2
0,79,127,0
0,79,0,17
0,71,0,0
0,69,127,7
0,73,127,0
0,45,127,0
0,64,127,0
0,42,127,0
0,56,127,0
0,73,127,0
0,81,127,0
0,36,127,0
0,36,0,3
0,56,0,0
0,42,0,0
0,81,0,14
0,73,0,0
0,45,0,5
0,45,127,2
0,42,127,0
0,73,127,0
0,81,127,0
0,42,0,3
0,73,0,14
0,81,0,0
0,45,0,5
0,45,127,2
0,73,127,0
0,81,127,0
0,42,127,0
0,42,0,3
0,73,0,14
0,81,0,0
0,45,0,5
0,42,127,2
0,45,127,0
0,73,127,0
0,36,127,0
0,81,127,0
0,36,0,3
0,42,0,0
0,81,0,14
0,73,0,0
0,45,0,5
0,38,127,1
0,81,127,1
0,42,127,0
0,56,127,0
0,45,127,0
0,73,127,0
0,38,0,2
0,56,0,1
0,42,0,0
0,73,0,14
0,81,0,0
0,45,0,5
0,69,0,20
0,64,0,4
0,36,127,1
0,81,127,1
0,45,127,0
0,73,127,0
0,42,127,0
0,36,0,2
0,42,0,1
0,73,0,2
0,73,0,12
0,81,0,0
0,45,0,5
0,81,127,2
0,42,127,0
0,73,127,0
0,42,0,3
0,73,0,14
0,81,0,0
0,42,127,6
0,36,127,0
0,56,127,1
0,48,127,0
0,72,127,0
0,76,127,0
0,36,0,2
0,42,0,0
0,56,0,1
0,72,127,0
0,76,127,0
0,67,127,0
0,76,0,14
0,72,0,0
0,76,127,7
0,72,127,0
0,42,127,0
0,42,0,3
0,76,0,14
0,72,0,0
0,42,127,6
0,72,127,1
0,76,127,0
0,67,0,1
0,42,0,1
0,76,0,6
0,72,0,2
0,48,0,7
0,76,0,0
0,72,0,0
0,38,127,30
0,78,127,1
0,74,127,0
0,50,127,0
0,42,127,0
0,56,127,0
0,69,127,1
0,78,127,0
0,74,127,0
0,38,0,1
0,42,0,1
0,56,0,0
0,78,0,14
0,74,0,0
0,50,0,5
0,78,127,2
0,74,127,0
0,74,0,17
0,78,0,0
0,78,127,7
0,74,127,0
0,78,0,2
0,74,0,3
0,69,0,1
0,78,0,11
0,74,0,0
0,76,127,31
0,67,127,0
0,56,127,0
0,42,127,0
0,40,127,0
0,36,127,0
0,67,127,2
0,76,127,0
0,71,127,0
0,36,0,1
0,56,0,0
0,42,0,0
0,76,0,14
0,67,0,0
0,42,127,7
0,67,127,0
0,76,127,0
0,42,0,3
0,67,0,14
0,76,0,0
0,76,127,7
0,42,127,0
0,67,127,0
0,42,0,3
0,71,0,3
0,76,0,1
0,67,0,4
0,40,0,6
0,67,0,0
0,76,0,0
0,40,127,7
0,67,127,0
0,76,127,0
0,42,127,0
0,36,127,0
0,36,0,3
0,42,0,0
0,76,0,14
0,67,0,0
0,40,0,5
0,38,127,1
0,76,127,1
0,42,127,0
0,67,127,0
0,40,127,0
0,56,127,0
0,38,0,2
0,42,0,1
0,56,0,0
0,76,0,14
0,67,0,0
0,40,0,5
0,36,127,25
0,76,127,1
0,67,127,0
0,38,127,0
0,42,127,0
0,36,0,2
0,42,0,1
0,76,0,14
0,67,0,0
0,38,0,5
0,42,127,2
0,42,0,3
0,42,127,20
0,36,127,0
0,56,127,1
0,67,127,0
0,38,127,0
0,76,127,0
0,36,0,2
0,42,0,0
0,56,0,1
0,67,0,14
0,76,0,0
0,38,0,5
0,67,127,2
0,76,127,0
0,42,127,0
0,42,0,3
0,76,0,14
0,67,0,0
0,42,127,6
0,74,127,1
0,66,127,0
0,40,127,0
0,42,0,2
0,74,0,15
0,66,0,0
0,40,0,5
0,76,127,2
0,67,127,0
0,67,0,17
0,76,0,0
0,38,127,6
0,42,127,1
0,56,127,0
0,38,127,0
0,71,127,0
0,71,127,0
0,67,127,0
0,79,127,0
0,76,127,0
0,38,0,2
0,42,0,1
0,56,0,0
0,79,0,14
0,71,0,0
0,69,127,7
0,78,127,0
0,78,0,17
0,69,0,0
0,38,0,2
0,40,127,5
0,67,127,0
0,76,127,0
0,71,0,10
0,76,0,0
0,67,0,7
0,76,0,0
0,40,0,5
0,76,127,1
0,71,127,1
0,76,0,22
0,71,0,2
0,67,127,0
0,56,127,0
0,76,127,0
0,36,127,0
0,42,127,0
0,67,0,1
0,56,0,2
0,36,0,0
0,42,0,0
0,67,0,14
0,76,0,0
0,67,127,7
0,42,127,0
0,76,127,0
0,42,0,3
0,76,0,14
0,67,0,0
0,42,127,7
0,67,127,0
0,76,127,0
0,38,127,0
0,42,0,3
0,67,0,14
