track,note,velocity,time
1,64,54,0
1,55,54,8
1,60,54,4
1,62,54,4
1,64,54,4
1,67,54,12
1,55,54,4
1,60,54,4
1,62,54,4
1,64,54,8
1,65,54,0
1,57,54,0
1,62,54,0
1,64,54,0
1,65,54,0
1,69,54,8
1,57,54,0
1,62,54,0
1,64,54,0
1,65,54,0
1,67,54,0
1,55,54,0
1,62,54,0
1,64,54,0
1,65,54,0
1,67,54,8
1,55,54,0
1,62,54,0
1,64,54,0
1,65,54,0
1,64,54,0
1,62,54,0
1,60,54,0
1,64,54,1124
1,55,54,0
1,60,54,0
1,62,54,0
1,64,54,0
1,67,54,12
1,55,54,0
1,60,54,0
1,62,54,0
1,64,54,8
1,65,54,0
1,57,54,0
1,62,54,0
1,64,54,0
1,65,54,0
1,69,54,8
1,57,54,0
1,62,54,0
1,64,54,0
1,65,54,0
1,67,54,0
1,55,54,0
1,62,54,0
1,64,54,0
1,65,54,0
1,67,54,8
1,55,54,0
1,62,54,0
1,64,54,0
1,65,54,0
1,64,54,0
1,62,54,0
1,60,54,4
1,64,58,1128
1,55,58,4
1,60,58,8
1,62,58,4
1,64,58,8
1,67,58,4
1,55,58,100
1,60,58,4
1,62,58,4
1,64,58,8
1,65,58,104
1,57,58,4
1,62,58,0
1,64,58,4
1,65,58,4
1,69,58,0
1,57,58,104
1,62,58,4
1,64,58,8
1,65,58,4
1,67,58,100
1,55,58,4
1,62,58,4
1,64,58,8
1,65,58,0
1,67,58,4
1,55,58,104
1,62,58,4
1,64,58,4
1,65,58,0
1,64,58,104
1,62,58,0
1,60,58,4
1,64,58,1172
1,55,58,4
1,60,58,4
1,62,58,4
1,64,58,8
1,67,58,4
1,55,58,100
1,60,58,0
1,62,58,4
1,64,58,8
1,65,58,104
1,57,58,8
1,62,58,4
1,64,58,8
1,65,58,0
1,69,58,0
1,57,58,104
1,62,58,4
1,64,58,8
1,65,58,4
1,67,58,104
1,55,58,4
1,62,58,4
1,64,58,4
1,65,58,0
1,67,58,8
1,55,58,104
1,62,58,4
1,64,58,0
1,65,58,0
1,64,58,104
1,62,58,0
1,60,58,4
1,72,74,1172
1,64,74,4
1,69,74,0
1,71,74,4
1,72,74,4
1,76,74,0
1,64,74,104
1,69,74,4
1,71,74,8
1,72,74,4
1,71,74,104
1,69,74,4
1,67,74,4
1,72,81,792
1,62,81,4
1,69,81,8
1,71,81,0
1,72,81,4
1,76,81,8
1,62,81,104
1,69,81,8
1,71,81,4
1,72,81,8
1,71,81,4
1,64,58,420
1,55,58,8
1,60,58,4
1,62,58,8
1,64,58,0
1,67,58,0
1,55,58,104
1,60,58,4
1,62,58,8
1,64,58,4
1,65,58,104
1,57,58,4
1,62,58,4
1,64,58,4
1,65,58,4
1,69,58,8
1,57,58,104
1,62,58,4
1,64,58,0
1,65,58,0
1,67,58,104
1,55,58,4
1,62,58,8
1,64,58,4
1,65,58,8
1,67,58,4
1,55,58,100
1,62,58,4
1,64,58,4
1,65,58,8
1,64,58,100
1,62,58,4
1,60,58,0
1,64,58,1168
1,55,58,8
1,60,58,0
1,62,58,8
1,64,58,4
1,67,58,4
1,55,58,104
1,60,58,0
1,62,58,8
1,64,58,4
1,65,58,104
1,57,58,0
1,62,58,0
1,64,58,4
1,65,58,0
1,69,58,8
1,57,58,104
1,62,58,8
1,64,58,0
1,65,58,4
1,67,58,100
1,55,58,0
1,62,58,8
1,64,58,4
1,65,58,8
1,67,58,4
1,55,58,100
1,62,58,4
1,64,58,0
1,65,58,8
1,64,58,104
1,62,58,0
1,60,58,4
1,72,74,1168
1,64,74,4
1,69,74,4
1,71,74,4
1,72,74,0
1,76,74,8
1,64,74,104
1,69,74,4
1,71,74,0
1,72,74,4
1,71,74,104
1,69,74,0
1,67,74,4
1,72,81,792
1,62,81,8
1,69,81,4
1,71,81,4
1,72,81,4
1,76,81,4
1,62,81,104
1,69,81,4
1,71,81,8
1,72,81,4
1,71,81,4
1,64,58,420
1,55,58,4
1,60,58,4
1,62,58,4
1,64,58,4
1,67,58,8
1,55,58,104
1,60,58,8
1,62,58,4
1,64,58,8
1,65,58,100
1,57,58,0
1,62,58,4
1,64,58,4
1,65,58,8
1,69,58,4
1,57,58,100
1,62,58,4
1,64,58,4
1,65,58,8
1,67,58,104
1,55,58,8
1,62,58,8
1,64,58,8
1,65,58,0
1,67,58,4
1,55,58,104
1,62,58,0
1,64,58,8
1,65,58,4
1,64,58,104
1,62,58,4
1,60,58,4
1,64,58,1172
1,55,58,0
1,60,58,8
1,62,58,4
1,64,58,8
1,67,58,4
1,55,58,104
1,60,58,8
1,62,58,4
1,64,58,8
1,65,58,104
1,57,58,8
1,62,58,4
1,64,58,4
1,65,58,8
1,69,58,0
1,57,58,104
1,62,58,0
1,64,58,4
1,65,58,4
1,67,58,104
1,55,58,8
1,62,58,4
1,64,58,8
1,65,58,4
1,67,58,4
1,55,58,104
1,62,58,0
1,64,58,4
1,65,58,0
1,64,58,104
1,62,58,4
1,60,58,0
1,72,74,1172
1,64,74,0
1,69,74,4
1,71,74,4
1,72,74,8
1,76,74,4
1,64,74,100
1,69,74,4
1,71,74,4
1,72,74,8
1,71,74,104
1,69,74,4
1,67,74,4
1,72,81,792
1,62,81,8
1,69,81,4
1,71,81,4
1,72,81,4
1,76,81,8
1,62,81,104
1,69,81,4
1,71,81,4
1,72,81,4
1,71,81,8
1,64,58,420
1,55,58,0
1,60,58,4
1,62,58,4
1,64,58,4
1,67,58,4
1,55,58,100
1,60,58,4
1,62,58,8
1,64,58,8
1,65,58,100
1,57,58,4
1,62,58,4
1,64,58,8
1,65,58,0
1,69,58,4
1,57,58,104
1,62,58,4
1,64,58,8
1,65,58,0
1,67,58,104
1,55,58,4
1,62,58,8
1,64,58,4
1,65,58,4
1,67,58,8
1,55,58,104
1,62,58,8
1,64,58,4
1,65,58,8
1,64,58,104
1,62,58,0
1,60,58,4
1,64,58,1168
1,55,58,8
1,60,58,4
1,62,58,8
1,64,58,8
1,67,58,0
1,55,58,104
1,60,58,4
1,62,58,8
1,64,58,4
1,65,58,104
1,57,58,4
1,62,58,4
1,64,58,8
1,65,58,4
1,69,58,8
1,57,58,104
1,62,58,0
1,64,58,4
1,65,58,0
1,67,58,104
1,55,58,4
1,62,58,8
1,64,58,4
1,65,58,8
1,67,58,8
1,55,58,104
1,62,58,8
1,64,58,4
1,65,58,8
1,64,58,104
1,62,58,4
1,60,58,4
1,64,58,0
2,36,70,4
2,48,70,24
2,38,70,24
2,50,70,24
2,43,70,112
2,31,70,24
2,43,70,1844
2,36,70,4
2,48,70,24
2,38,70,24
2,50,70,24
2,43,70,112
2,31,70,24
2,43,70,1844
2,36,70,4
2,43,70,20
2,48,70,4
2,43,70,16
2,36,70,4
2,38,70,8
2,45,70,20
2,50,70,4
2,45,70,16
2,38,70,4
2,43,70,8
2,50,70,20
2,31,70,4
2,38,70,16
2,43,70,4
2,36,70,8
2,43,70,896
2,36,70,8
2,43,70,20
2,48,70,4
2,43,70,16
2,36,70,4
2,38,70,8
2,45,70,20
2,50,70,4
2,45,70,16
2,38,70,4
2,43,70,8
2,50,70,20
2,31,70,4
2,38,70,16
2,43,70,4
2,36,70,8
2,43,70,896
2,45,85,12
2,40,85,20
2,45,85,4
2,40,85,16
2,33,85,4
2,40,85,8
2,47,85,204
2,52,85,4
2,47,85,12
2,40,85,4
2,41,85,8
2,36,85,20
2,41,85,4
2,41,85,20
2,40,85,8
2,40,100,20
2,45,95,12
2,47,95,4
2,36,70,8
2,43,70,20
2,48,70,4
2,43,70,16
2,36,70,4
2,38,70,8
2,45,70,20
2,50,70,4
2,45,70,16
2,38,70,4
2,43,70,8
2,50,70,20
2,31,70,4
2,38,70,16
2,43,70,4
2,36,70,8
2,43,70,896
2,36,70,12
2,43,70,20
2,48,70,4
2,43,70,16
2,36,70,4
2,38,70,12
2,45,70,20
2,50,70,8
2,45,70,572
2,38,70,4
2,43,70,12
2,50,70,20
2,31,70,8
2,38,70,16
2,43,70,8
2,36,70,12
2,43,70,896
2,45,85,16
2,40,85,20
2,45,85,4
2,40,85,16
2,33,85,8
2,40,85,12
2,47,85,204
2,52,85,8
2,47,85,12
2,40,85,8
2,41,85,12
2,36,85,20
2,41,85,4
2,41,85,20
2,40,85,8
2,40,100,20
2,45,95,12
2,47,95,4
2,36,70,16
2,43,70,20
2,48,70,4
2,43,70,16
2,36,70,4
2,38,70,12
2,45,70,20
2,50,70,4
2,45,70,576
2,38,70,4
2,43,70,8
2,50,70,20
2,31,70,8
2,38,70,16
2,43,70,4
2,36,70,12
2,43,70,896
2,36,70,12
2,43,70,20
2,48,70,4
2,43,70,16
2,36,70,4
2,38,70,12
2,45,70,20
2,50,70,4
2,45,70,576
2,38,70,4
2,43,70,12
2,50,70,20
2,31,70,8
2,38,70,16
2,43,70,4
2,36,70,12
2,43,70,896
2,45,85,12
2,40,85,20
2,45,85,4
2,40,85,16
2,33,85,4
2,40,85,12
2,47,85,204
2,52,85,4
2,47,85,12
2,40,85,8
2,41,85,12
2,36,85,20
2,41,85,4
2,41,85,20
2,40,85,8
2,40,100,20
2,45,95,12
2,47,95,4
2,36,70,12
2,43,70,20
2,48,70,4
2,43,70,16
2,36,70,4
2,38,70,12
2,45,70,20
2,50,70,4
2,45,70,576
2,38,70,4
2,43,70,12
2,50,70,20
2,31,70,4
2,38,70,16
2,43,70,4
2,36,70,12
2,43,70,896
2,36,70,8
2,43,70,20
2,48,70,4
2,43,70,16
2,36,70,4
2,38,70,8
2,45,70,20
2,50,70,4
2,45,70,16
2,38,70,4
2,43,70,8
2,50,70,20
2,31,70,4
2,38,70,16
2,43,70,4
2,36,80,8
3,36,55,4
3,42,55,0
3,42,55,288
3,42,55,292
3,42,55,292
3,46,40,296
3,36,55,296
3,42,55,0
3,42,55,292
3,42,55,292
3,42,55,292
3,46,40,288
3,36,55,292
3,42,55,0
3,42,55,292
3,42,55,292
3,36,55,292
3,42,55,0
3,46,40,292
3,36,55,292
3,42,55,0
3,42,55,288
3,42,55,288
3,46,55,964
3,36,55,4
3,42,55,0
3,42,55,292
3,42,55,292
3,42,55,288
3,46,40,288
3,36,55,292
3,42,55,0
3,42,55,292
3,42,55,292
3,42,55,292
3,46,40,292
3,36,55,292
3,42,55,0
3,42,55,288
3,42,55,292
3,36,55,292
3,42,55,0
3,46,40,292
3,36,55,292
3,42,55,0
3,42,55,288
3,42,55,288
3,46,55,960
3,36,55,4
3,42,55,4
3,42,55,292
3,42,55,292
3,42,55,292
3,42,55,296
3,46,40,4
3,36,55,292
3,42,55,4
3,42,55,292
3,42,55,292
3,42,55,296
3,42,55,292
3,46,40,0
3,36,55,292
3,42,55,0
3,42,55,292
3,42,55,296
3,42,55,292
3,42,55,292
3,46,40,0
3,36,55,292
3,42,55,0
3,42,55,284
3,42,55,288
3,42,55,288
3,42,55,288
3,46,55,96
3,36,55,104
3,42,55,0
3,42,55,292
3,42,55,292
3,42,55,292
3,42,55,292
3,46,40,0
3,36,55,292
3,42,55,0
3,42,55,292
3,42,55,296
3,42,55,292
3,42,55,292
3,46,40,0
3,36,55,292
3,42,55,4
3,42,55,292
3,42,55,296
3,42,55,292
3,42,55,292
3,46,40,4
3,36,55,292
3,42,55,4
3,42,55,284
3,42,55,288
3,42,55,288
3,42,55,288
3,46,55,96
3,36,55,104
3,42,55,4
3,42,55,292
3,42,55,292
3,42,55,296
3,42,55,292
3,46,60,0
3,36,55,296
3,42,55,0
3,42,55,284
3,42,55,292
3,46,60,100
3,42,55,96
3,42,55,292
3,46,60,0
3,36,60,296
3,42,65,0
3,42,65,292
3,42,65,292
3,42,65,296
3,42,65,292
3,46,70,0
3,36,70,296
3,42,75,0
3,42,75,288
3,42,75,288
3,42,75,292
3,42,75,292
3,46,55,100
3,36,55,104
3,42,55,0
3,42,55,292
3,42,55,296
3,42,55,292
3,42,55,292
3,46,40,0
3,36,55,292
3,42,55,0
3,42,55,292
3,42,55,296
3,42,55,296
3,42,55,292
3,46,40,4
3,36,55,292
3,42,55,4
3,42,55,292
3,42,55,292
3,42,55,292
3,42,55,296
3,46,40,4
3,36,55,292
3,42,55,4
3,42,55,284
3,42,55,288
3,42,55,288
3,42,55,288
3,46,55,96
3,36,55,108
3,42,55,0
3,42,55,292
3,42,55,300
3,42,55,296
3,42,55,296
3,46,40,0
3,36,55,300
3,42,55,0
3,42,55,292
3,42,55,292
3,42,55,296
3,42,55,296
3,46,40,0
3,36,55,300
3,42,55,0
3,42,55,292
3,42,55,300
3,42,55,292
3,42,55,292
3,46,40,4
3,36,55,300
3,42,55,0
3,42,55,284
3,42,55,288
3,42,55,288
3,42,55,288
3,46,55,100
3,36,55,108
3,42,55,0
3,42,55,292
3,42,55,296
3,42,55,292
3,42,55,292
3,46,60,4
3,36,55,296
3,42,55,0
3,42,55,284
3,42,55,292
3,46,60,100
3,42,55,96
3,42,55,292
3,46,60,0
3,36,60,296
3,42,65,0
3,42,65,292
3,42,65,292
3,42,65,292
3,42,65,292
3,46,70,0
3,36,70,300
3,42,75,0
3,42,75,288
3,42,75,292
3,42,75,292
3,42,75,292
3,46,55,100
3,36,55,108
3,42,55,0
3,42,55,292
3,42,55,292
3,42,55,296
3,42,55,292
3,46,40,4
3,36,55,300
3,42,55,0
3,42,55,292
3,42,55,292
3,42,55,292
3,42,55,292
3,46,40,0
3,36,55,300
3,42,55,0
3,42,55,292
3,42,55,296
3,42,55,292
3,42,55,292
3,46,40,0
3,36,55,300
3,42,55,0
3,42,55,280
3,42,55,288
3,42,55,288
3,42,55,288
3,46,55,96
3,36,55,108
3,42,55,0
3,42,55,292
3,42,55,292
3,42,55,292
3,42,55,296
3,46,40,4
3,36,55,300
3,42,55,0
3,42,55,292
3,42,55,292
3,42,55,292
3,42,55,292
3,46,40,0
3,36,55,300
3,42,55,0
3,42,55,292
3,42,55,296
3,42,55,296
3,42,55,292
3,46,40,0
3,36,55,300
3,42,55,0
3,42,55,280
3,42,55,288
3,42,55,288
3,42,55,288
3,46,55,100
3,36,55,108
3,42,55,0
3,42,55,292
3,42,55,292
3,42,55,292
3,42,55,292
3,46,60,4
3,36,55,296
3,42,55,0
3,42,55,284
3,42,55,292
3,46,60,100
3,42,55,100
3,42,55,292
3,46,60,0
3,36,60,296
3,42,65,0
3,42,65,292
3,42,65,296
3,42,65,292
3,42,65,292
3,46,70,0
3,36,70,300
3,42,75,0
3,42,75,288
3,42,75,292
3,42,75,292
3,42,75,292
3,46,55,100
3,36,55,108
3,42,55,0
3,42,55,292
3,42,55,292
3,42,55,292
3,42,55,292
3,46,40,0
3,36,55,296
3,42,55,0
3,42,55,292
3,42,55,296
3,42,55,292
3,42,55,292
3,46,40,0
3,36,55,296
3,42,55,0
3,42,55,292
3,42,55,296
3,42,55,296
3,42,55,292
3,46,40,4
3,36,55,296
3,42,55,4
3,42,55,284
3,42,55,288
3,42,55,288
3,42,55,288
3,46,55,100
3,36,55,104
3,42,55,0
3,42,55,292
3,42,55,296
3,42,55,292
3,42,55,292
3,46,40,0
3,36,55,292
3,42,55,4
3,42,55,292
3,42,55,296
3,42,55,296
3,42,55,292
3,46,40,0
3,36,55,292
3,42,55,4
3,42,55,292
3,42,55,292
3,42,55,296
3,42,55,296
3,46,40,4
3,46,60,296
3,46,60,4
4,64,50,15360
4,55,50,4
4,60,50,4
4,62,50,4
4,64,50,4
4,67,50,4
4,55,50,100
4,60,50,4
4,62,50,4
4,64,50,4
4,65,50,100
4,57,50,4
4,62,50,4
4,64,50,4
4,65,50,4
4,69,50,4
4,57,50,100
4,62,50,4
4,64,50,4
4,65,50,4
4,67,50,100
4,55,50,4
4,62,50,4
4,64,50,4
4,65,50,4
4,67,50,4
4,55,50,100
4,62,50,4
4,64,50,4
4,65,50,4
4,64,50,100
4,62,50,0
4,60,50,4
4,64,50,1168
4,55,50,4
4,60,50,4
4,62,50,4
4,64,50,4
4,67,50,4
4,55,50,100
