track,note,velocity,time
1,36,100,816
1,36,101,2
1,36,96,2
1,36,89,2
1,41,97,10
1,41,91,2
1,41,97,2
1,41,90,10
1,41,95,2
1,43,98,2
1,43,99,2
1,43,96,2
1,43,88,2
1,41,98,10
1,41,90,2
1,41,94,2
1,41,88,10
1,41,96,2
1,41,84,10
1,36,100,2
1,36,101,2
1,36,96,2
1,36,89,2
1,41,97,10
1,41,91,2
1,41,97,2
1,41,90,10
1,41,95,2
1,43,98,2
1,42,56,108
1,41,52,20
1,40,54,12
1,39,52,12
1,38,51,12
1,37,49,20
1,36,46,12
1,35,46,12
1,34,46,12
1,33,41,20
1,32,40,12
1,31,95,12
1,31,92,8
1,33,94,18
1,36,92,104
1,33,92,18
1,36,100,6
1,36,101,2
1,36,96,2
1,36,89,2
1,41,97,10
1,41,91,2
1,41,97,2
1,41,90,10
1,41,95,2
1,43,98,2
1,43,99,2
1,43,96,2
1,43,88,2
1,38,98,10
1,38,90,2
1,38,94,2
1,38,88,10
1,38,96,2
1,38,84,10
1,40,92,2
1,40,88,2
1,40,93,2
1,35,84,2
1,40,93,104
1,35,85,2
1,40,93,10
1,40,86,2
1,40,85,2
1,40,90,2
1,40,91,2
1,40,93,2
1,35,84,2
1,38,92,104
1,35,85,2
1,38,94,10
1,38,86,2
1,38,92,2
1,36,100,2
1,36,101,2
1,36,96,2
1,36,89,2
1,41,97,10
1,41,91,2
1,41,97,2
1,41,90,10
1,41,95,2
1,43,98,2
1,43,99,2
1,43,96,2
1,43,88,2
1,38,98,10
1,38,90,2
1,38,94,2
1,38,88,10
1,38,96,2
1,38,84,10
1,40,92,2
1,40,88,2
1,40,93,2
1,35,84,2
1,40,93,104
1,35,85,2
1,40,93,10
1,40,86,2
1,40,85,2
1,38,90,2
1,38,93,2
1,38,93,2
1,43,94,2
1,43,94,2
1,38,86,2
1,43,92,2
1,36,90,2
1,36,93,2
1,36,94,2
1,36,94,2
1,36,86,2
1,40,92,2
1,41,92,2
1,41,93,2
1,38,82,104
1,41,87,10
1,38,74,104
1,43,93,10
1,43,93,2
1,40,81,104
1,43,75,10
1,40,71,104
1,45,92,10
1,45,92,2
1,40,81,296
1,45,92,10
1,45,90,2
1,43,90,2
1,41,92,2
1,41,92,2
1,41,81,296
1,43,92,10
1,43,90,2
1,43,90,2
1,48,92,2
1,48,93,2
1,43,81,104
1,48,85,10
1,43,77,104
1,45,93,10
1,45,93,2
1,40,81,104
1,45,82,10
1,40,76,104
1,41,92,10
1,41,93,2
1,36,85,104
1,41,80,10
1,36,72,104
1,38,93,10
1,38,92,2
1,40,92,2
1,40,94,2
1,40,98,296
1,41,84,10
1,41,90,2
1,41,92,2
1,43,98,2
1,42,56,108
1,41,52,20
1,40,54,12
1,39,52,12
1,38,51,12
1,37,49,20
1,36,46,12
1,35,46,12
1,34,46,12
1,33,41,20
1,32,40,12
1,31,95,12
1,31,92,8
1,33,94,18
1,36,92,104
1,33,92,18
1,36,100,6
1,36,101,2
1,36,96,2
1,36,89,2
1,41,97,10
1,41,91,2
1,41,97,2
1,41,90,10
1,41,95,2
1,43,98,2
1,43,99,2
1,43,96,2
1,43,88,2
1,38,98,10
1,38,90,2
1,38,94,2
1,38,88,10
1,38,96,2
1,38,84,10
1,40,92,2
1,40,88,2
1,40,93,2
1,35,84,2
1,40,93,104
1,35,85,2
1,40,93,10
1,40,86,2
1,40,85,2
1,40,90,2
1,40,91,2
1,40,93,2
1,35,84,2
1,38,92,104
1,35,85,2
1,38,94,10
1,38,86,2
1,38,92,2
1,36,100,2
1,36,101,2
1,36,96,2
1,36,89,2
1,41,97,10
1,41,91,2
1,41,97,2
1,41,90,10
1,41,95,2
1,43,98,2
1,43,99,2
1,43,96,2
1,43,88,2
1,38,98,10
1,38,90,2
1,38,94,2
1,38,88,10
1,38,96,2
1,38,84,10
1,40,92,2
1,40,88,2
1,40,93,2
1,35,84,2
1,40,93,104
1,35,85,2
1,40,93,10
1,40,86,2
1,40,85,2
1,38,90,2
1,38,93,2
1,38,93,2
1,43,94,2
1,43,94,2
1,38,86,2
1,43,92,2
1,36,90,2
1,36,93,2
1,36,94,2
1,36,94,2
1,36,86,2
1,40,92,2
1,41,92,2
1,41,93,2
1,38,82,104
1,41,87,10
1,38,74,104
1,43,93,10
1,43,93,2
1,40,81,104
1,43,75,10
1,40,71,104
1,45,92,10
1,45,92,2
1,40,81,296
1,45,92,10
1,45,90,2
1,43,90,2
1,41,92,2
1,41,92,2
1,41,81,296
1,43,92,10
1,43,90,2
1,43,90,2
1,48,92,2
1,48,93,2
1,43,81,104
1,48,85,10
1,43,77,104
1,45,93,10
1,45,93,2
1,40,81,104
1,45,82,10
1,40,76,104
1,41,92,10
1,41,93,2
1,36,85,104
1,41,80,10
1,36,72,104
1,38,93,10
1,38,92,2
1,40,92,2
1,40,94,2
1,40,98,296
1,41,84,10
1,41,90,2
1,41,92,2
1,43,98,2
1,42,56,108
1,41,52,20
1,40,54,12
1,39,52,12
1,38,51,12
1,37,49,20
1,36,46,12
1,35,46,12
1,34,46,12
1,33,41,20
1,32,40,12
1,31,95,12
1,31,92,8
1,33,94,18
1,36,92,104
1,33,92,18
1,36,100,6
1,36,101,2
1,36,96,2
1,36,89,2
1,41,97,10
1,41,91,2
1,41,97,2
1,41,90,10
1,41,95,2
1,43,98,2
1,43,99,2
1,43,96,2
1,43,88,2
1,38,98,10
1,38,90,2
1,38,94,2
1,38,88,10
1,38,96,2
1,38,84,10
1,40,92,2
1,40,88,2
1,40,93,2
1,35,84,2
1,40,93,104
1,35,85,2
1,40,93,10
1,40,86,2
1,40,85,2
1,40,90,2
1,40,91,2
1,40,93,2
1,35,84,2
1,38,92,104
1,35,85,2
1,38,94,10
1,38,86,2
1,38,92,2
1,36,100,2
1,36,101,2
1,36,96,2
1,36,89,2
1,41,97,10
1,41,91,2
1,41,97,2
1,41,90,10
1,41,95,2
1,43,98,2
1,43,99,2
1,43,96,2
1,43,88,2
1,38,98,10
1,38,90,2
1,38,94,2
1,38,88,10
1,38,96,2
1,38,84,10
1,40,92,2
1,40,88,2
1,40,93,2
1,35,84,2
1,40,93,104
1,35,85,2
1,40,93,10
1,40,86,2
1,40,85,2
1,38,90,2
1,38,93,2
1,38,93,2
1,43,94,2
1,43,94,2
1,38,86,2
1,43,92,2
1,36,90,2
1,36,93,2
1,36,94,2
1,36,94,2
1,36,86,2
1,40,92,2
1,41,92,2
1,41,93,2
1,38,82,104
1,41,87,10
1,38,74,104
1,43,93,10
1,43,93,2
1,40,81,104
1,43,75,10
1,40,71,104
1,45,92,10
1,45,92,2
1,40,81,296
1,45,92,10
1,45,90,2
1,43,90,2
1,41,92,2
1,41,92,2
1,41,81,296
1,43,92,10
1,43,90,2
1,43,90,2
1,48,92,2
1,48,93,2
1,43,81,104
1,48,85,10
1,43,77,104
1,45,93,10
1,45,93,2
1,40,81,104
1,45,82,10
1,40,76,104
1,41,92,10
1,41,93,2
1,36,85,104
1,41,80,10
1,36,72,104
1,38,93,10
1,38,92,2
1,40,92,2
1,40,94,2
1,40,98,296
1,41,84,10
1,41,90,2
1,41,92,2
1,43,98,2
1,42,56,108
1,41,52,20
1,40,54,12
1,39,52,12
1,38,51,12
1,37,49,20
1,36,46,12
1,35,46,12
1,34,46,12
1,33,41,20
1,32,40,12
1,31,95,12
1,31,92,8
1,33,94,18
1,36,92,104
1,33,92,18
1,36,100,6
1,36,101,2
1,36,96,2
1,36,89,2
1,41,97,10
1,41,91,2
1,41,97,2
1,41,90,10
1,41,95,2
1,43,98,2
1,43,99,2
1,43,96,2
1,43,88,2
1,38,98,10
1,38,90,2
1,38,94,2
1,38,88,10
1,38,96,2
1,38,84,10
1,40,92,2
1,40,88,2
1,40,93,2
1,35,84,2
1,40,93,104
1,35,85,2
1,40,93,10
1,40,86,2
1,40,85,2
1,40,90,2
1,40,91,2
1,40,93,2
1,35,84,2
1,38,92,104
1,35,85,2
1,38,94,10
1,38,86,2
1,38,92,2
1,36,100,2
1,36,101,2
1,36,96,2
1,36,89,2
1,41,97,10
1,41,91,2
1,41,97,2
1,41,90,10
1,41,95,2
1,43,98,2
1,43,99,2
1,43,96,2
1,43,88,2
1,38,98,10
1,38,90,2
1,38,94,2
1,38,88,10
1,38,96,2
1,38,84,10
1,40,92,2
1,40,88,2
1,40,93,2
1,35,84,2
1,40,93,104
1,35,85,2
1,40,93,10
1,40,86,2
1,40,85,2
1,38,90,2
1,38,93,2
1,38,93,2
1,43,94,2
1,43,94,2
1,38,86,2
1,43,92,2
1,36,90,2
1,36,93,2
1,36,94,2
1,36,94,2
1,36,86,2
1,40,92,2
1,41,92,2
1,41,93,2
1,38,82,104
1,41,87,10
1,38,74,104
1,43,93,10
1,43,93,2
1,40,81,104
1,43,75,10
1,40,71,104
1,45,92,10
1,45,92,2
1,40,81,296
1,45,92,10
1,45,90,2
1,43,90,2
1,41,92,2
1,41,92,2
1,41,81,296
1,43,92,10
1,43,90,2
1,43,90,2
1,48,92,2
1,48,93,2
1,43,81,104
1,48,85,10
1,43,77,104
1,45,93,10
1,45,93,2
1,40,81,104
1,45,82,10
1,40,76,104
1,41,92,10
1,41,93,2
1,36,85,104
1,41,80,10
1,36,72,104
1,38,93,10
1,38,92,2
1,40,92,2
1,40,94,2
1,40,98,296
1,41,84,10
1,41,90,2
1,41,92,2
1,43,98,2
1,42,56,108
1,41,52,20
1,40,54,12
1,39,52,12
1,38,51,12
1,37,49,20
1,36,46,12
1,35,46,12
1,34,46,12
1,33,41,20
1,32,40,12
1,31,95,12
1,31,92,8
1,33,94,18
1,36,92,104
1,33,92,18
1,36,100,6
1,36,101,2
1,36,96,2
1,36,89,2
1,41,97,10
1,41,91,2
1,41,97,2
1,41,90,10
1,41,95,2
1,43,98,2
1,43,99,2
1,43,96,2
1,43,88,2
1,38,98,10
1,38,90,2
1,38,94,2
1,38,88,10
1,38,96,2
1,38,84,10
1,40,92,2
1,40,88,2
1,40,93,2
1,35,84,2
1,40,93,104
1,35,85,2
1,40,93,10
1,40,86,2
1,40,85,2
1,40,90,2
1,40,91,2
1,40,93,2
1,35,84,2
1,38,92,104
1,35,85,2
1,38,94,10
1,38,86,2
1,38,92,2
1,36,100,2
1,36,101,2
1,36,96,2
1,36,89,2
1,41,97,10
1,41,91,2
1,41,97,2
1,41,90,10
1,41,95,2
1,43,98,2
1,43,99,2
1,43,96,2
1,43,88,2
1,38,98,10
1,38,90,2
1,38,94,2
1,38,88,10
1,38,96,2
1,38,84,10
1,40,92,2
1,40,88,2
1,40,93,2
1,35,84,2
1,40,93,104
1,35,85,2
1,40,93,10
1,40,86,2
1,40,85,2
1,38,90,2
1,38,93,2
1,38,93,2
1,43,94,2
1,43,94,2
1,38,86,2
1,43,92,2
1,36,90,2
1,36,93,2
1,36,94,2
1,36,94,2
1,36,86,2
1,40,92,2
1,41,92,2
1,41,93,2
1,38,82,104
1,41,87,10
1,38,74,104
1,43,93,10
1,43,93,2
1,40,81,104
1,43,75,10
1,40,71,104
1,45,92,10
1,45,92,2
1,40,81,296
1,45,92,10
1,45,90,2
1,43,90,2
1,41,92,2
1,41,92,2
1,41,81,296
1,43,92,10
1,43,90,2
1,43,90,2
1,48,92,2
1,48,93,2
1,43,81,104
1,48,85,10
1,43,77,104
1,45,93,10
1,45,93,2
1,40,81,104
1,45,82,10
1,40,76,104
1,41,92,10
1,41,93,2
1,36,85,104
1,41,80,10
1,36,72,104
1,38,93,10
1,38,92,2
1,40,92,2
1,40,94,2
1,40,98,296
1,41,84,10
1,41,90,2
1,41,92,2
1,43,98,2
1,42,56,108
1,41,52,20
1,40,54,12
1,39,52,12
1,38,51,12
1,37,49,20
1,36,46,12
1,35,46,12
1,34,46,12
1,33,41,20
1,32,40,12
1,31,95,12
1,31,92,8
1,33,94,18
1,36,92,104
1,33,92,18
1,36,100,6
1,36,101,2
1,36,96,2
1,36,89,2
1,41,97,10
1,41,91,2
1,41,97,2
1,41,90,10
1,41,95,2
1,43,98,2
1,43,99,2
1,43,96,2
1,43,88,2
1,38,98,10
1,38,90,2
1,38,94,2
1,38,88,10
1,38,96,2
1,38,84,10
1,40,92,2
1,40,88,2
1,40,93,2
1,35,84,2
1,40,93,104
1,35,85,2
1,40,93,10
1,40,86,2
1,40,85,2
1,40,90,2
1,40,91,2
1,40,93,2
1,35,84,2
1,38,92,26
1,35,85,2
1,38,94,10
1,38,86,2
1,38,92,2
1,36,100,2
2,72,120,42656
2,74,120,384
2,77,119,36
2,76,114,192
2,74,118,88
2,72,116,72
2,72,102,22
2,72,95,1846
2,71,111,0
2,69,110,96
2,69,95,4
2,67,108,1372
2,76,113,2
2,74,108,2
2,72,109,2
2,72,100,6
2,72,108,222
2,71,109,2
2,69,111,2
2,69,103,10
2,67,102,154
2,69,108,2
2,69,111,236
2,72,112,2
2,74,112,214
2,72,120,36996
2,74,120,384
2,77,119,36
2,76,114,192
2,74,118,88
2,72,116,72
2,72,102,22
2,72,95,1846
2,71,111,0
2,69,110,96
2,69,95,4
2,67,108,1372
2,76,113,2
2,74,108,2
2,72,109,2
2,72,100,6
2,72,108,222
2,71,109,2
2,69,111,2
2,69,103,10
2,67,102,154
2,69,108,2
2,69,111,236
2,72,112,2
2,74,112,214
3,60,125,18060
3,62,125,384
3,65,124,36
3,64,119,192
3,62,123,88
3,60,121,72
3,60,121,22
3,60,118,1846
3,59,116,0
3,57,115,96
3,57,109,60
3,55,120,1382
3,64,118,42
3,62,113,2
3,60,114,2
3,60,105,6
3,60,113,222
3,59,114,2
3,57,116,2
3,57,115,10
3,55,118,154
3,57,113,2
3,57,116,236
3,60,117,2
3,62,117,214
3,60,125,36996
3,62,125,384
3,65,124,36
3,64,119,192
3,62,123,88
3,60,121,72
3,60,107,22
3,60,100,1846
3,59,116,0
3,57,115,96
3,57,100,4
3,55,113,1372
3,64,118,2
3,62,113,2
3,60,114,2
3,60,105,6
3,60,113,222
3,59,114,2
3,57,116,2
3,57,108,10
3,55,107,154
3,57,113,2
3,57,116,236
3,60,117,2
3,62,117,214
3,60,125,36996
3,62,125,384
3,65,124,36
3,64,119,192
3,62,123,88
3,60,121,72
3,60,107,22
3,60,100,1846
3,59,116,0
3,57,115,96
3,57,100,4
3,55,113,1372
3,64,118,2
3,62,113,2
3,60,114,2
3,60,105,6
3,60,113,222
3,59,114,2
3,57,116,2
3,57,108,10
4,55,68,1130
4,60,68,4
4,64,67,2
4,67,66,4
4,53,62,556
4,57,66,4
4,60,69,4
4,65,67,4
4,55,68,548
4,59,68,6
4,62,67,2
4,67,67,4
4,53,62,548
4,57,68,4
4,60,66,4
4,65,65,4
4,55,68,550
4,60,68,4
4,64,67,2
4,67,66,4
4,53,62,556
4,57,66,4
4,60,69,4
4,65,67,4
4,55,68,164
4,59,68,6
4,62,67,2
4,67,67,4
4,55,68,1702
4,60,68,4
4,64,67,2
4,67,66,4
4,53,62,556
4,57,66,4
4,60,69,4
4,65,67,4
4,55,68,548
4,59,68,6
4,62,67,2
4,67,67,4
4,53,62,548
4,57,68,4
4,60,66,4
4,65,65,4
4,55,68,550
4,59,68,4
4,64,67,2
4,67,66,4
4,55,62,556
4,59,66,4
4,64,69,4
4,67,67,4
4,55,68,548
4,59,68,6
4,64,67,2
4,67,67,4
4,55,62,548
4,59,68,4
4,62,66,4
4,65,65,4
4,55,68,550
4,60,68,4
4,64,67,2
4,67,66,4
4,53,62,556
4,57,66,4
4,60,69,4
4,65,67,4
4,55,68,548
4,59,68,6
4,62,67,2
4,67,67,4
4,53,62,548
4,57,68,4
4,60,66,4
4,65,65,4
4,55,68,550
4,59,68,4
4,64,67,2
4,67,66,4
4,55,62,556
4,59,66,4
4,64,69,4
4,67,67,4
4,55,62,548
4,59,60,6
4,62,59,2
4,65,59,6
4,71,57,2
4,67,58,4
4,62,57,4
4,55,62,6
4,71,52,4
4,67,59,4
4,62,57,0
4,55,61,4
4,71,56,0
