track,note,velocity,time
1,27,114,3812
1,27,114,176
1,32,114,212
1,34,107,76
1,34,114,4
1,27,114,40
1,27,114,172
1,32,114,196
1,34,107,84
1,34,114,4
1,27,114,20
1,27,114,168
1,32,114,192
1,34,108,64
1,34,114,4
1,27,114,40
1,27,114,144
1,32,114,188
1,34,107,104
1,34,114,4
1,27,114,40
1,27,114,176
1,32,114,212
1,34,107,76
1,34,114,4
1,27,114,40
1,27,114,172
1,32,114,196
1,34,106,84
1,34,114,4
1,27,114,20
1,27,114,168
1,32,114,192
1,34,107,64
1,34,114,4
1,27,114,40
1,27,114,144
1,32,114,188
1,34,107,104
1,34,114,12
1,27,114,40
1,27,114,176
1,32,114,212
1,34,114,268
1,27,114,12
1,27,114,172
1,32,114,196
1,34,114,276
1,27,114,20
1,27,114,168
1,32,114,192
1,34,114,256
1,27,114,16
1,27,114,144
1,32,114,188
1,34,114,296
1,27,114,40
1,27,114,176
1,32,114,212
1,34,114,268
1,27,114,12
1,27,114,172
1,32,114,196
1,34,114,276
1,27,114,20
1,27,114,176
1,32,114,212
1,34,114,268
1,27,114,12
1,27,114,172
1,32,114,196
1,34,114,276
1,27,114,20
1,27,114,176
1,32,114,212
1,34,114,268
1,27,114,12
1,27,114,172
1,32,114,196
1,34,114,276
1,27,114,20
1,27,114,168
1,32,114,192
1,34,114,256
1,27,114,16
1,27,114,144
1,32,114,188
1,34,114,296
1,27,114,40
1,27,114,176
1,32,114,212
1,34,114,268
1,27,114,12
1,27,114,172
1,32,114,196
1,34,114,276
1,27,114,20
1,27,114,168
1,32,114,192
1,34,114,256
1,27,114,16
1,27,114,144
1,32,114,188
1,34,114,296
1,27,114,40
1,27,114,176
1,32,114,212
1,34,107,76
1,34,114,4
1,27,114,40
1,27,114,172
1,32,114,196
1,34,107,84
1,34,114,4
1,27,114,40
1,27,114,168
1,32,114,192
1,34,108,64
1,34,114,4
1,27,114,40
1,27,114,144
1,32,114,188
1,34,107,104
1,34,114,4
1,27,114,40
1,27,114,176
1,32,114,212
1,34,107,76
1,34,114,4
1,27,114,40
1,27,114,172
1,32,114,196
1,34,106,84
1,34,114,4
1,27,114,20
1,27,114,168
1,32,114,192
1,34,107,64
1,34,114,4
1,27,114,40
1,27,114,144
1,32,114,188
1,34,107,104
1,34,114,12
1,27,114,40
1,27,114,176
1,32,114,212
1,34,114,268
1,27,114,12
1,27,114,172
1,32,114,196
1,34,114,276
1,27,114,20
1,27,114,168
1,32,114,192
1,34,114,256
1,27,114,16
1,27,114,144
1,32,114,188
1,34,114,296
1,27,114,40
1,27,114,176
1,32,114,212
1,34,114,268
1,27,114,12
1,27,114,172
1,32,114,196
1,34,114,276
1,27,114,20
1,27,114,176
1,32,114,212
1,34,114,268
1,27,114,12
1,27,114,172
1,32,114,196
1,34,114,276
1,27,114,20
1,27,114,176
1,32,114,212
1,34,114,268
1,27,114,12
1,27,114,172
1,32,114,196
1,34,114,276
1,27,114,20
1,27,114,168
1,32,114,192
1,34,114,256
1,27,114,16
1,27,114,144
1,32,114,188
1,27,114,6632
1,27,114,176
1,32,114,212
1,34,114,268
1,27,114,12
1,27,114,172
1,32,114,196
1,34,114,276
1,27,114,20
1,27,114,168
1,32,114,192
1,34,114,256
1,27,114,16
1,27,114,144
1,32,114,188
1,34,114,296
1,27,114,40
1,27,114,176
1,32,114,212
1,34,107,76
1,34,114,4
1,27,114,40
1,27,114,172
1,32,114,196
1,34,107,84
1,34,114,4
1,27,114,40
1,27,114,168
1,32,114,192
1,34,108,64
1,34,114,4
1,27,114,40
1,27,114,144
1,32,114,188
1,34,107,104
1,34,114,4
1,27,114,40
1,27,114,176
1,32,114,212
1,34,107,76
1,34,114,4
1,27,114,40
1,27,114,172
1,32,114,196
1,34,106,84
1,34,114,4
1,27,114,20
1,27,114,168
1,32,114,192
1,34,107,64
1,34,114,4
1,27,114,40
1,27,114,144
1,32,114,188
1,34,107,104
1,34,114,12
1,27,114,40
1,27,114,176
1,32,114,212
1,34,114,268
1,27,114,12
1,27,114,172
1,32,114,196
1,34,114,276
1,27,114,20
1,27,114,168
1,32,114,192
1,34,114,256
1,27,114,16
1,27,114,144
1,32,114,188
1,34,114,296
1,27,114,40
1,27,114,176
1,32,114,212
1,34,114,268
1,27,114,12
1,27,114,172
1,32,114,196
1,34,114,276
1,27,114,20
1,27,114,168
1,32,114,192
1,34,114,256
1,27,114,16
1,27,114,144
1,32,114,188
1,34,114,296
1,27,114,40
1,27,114,176
1,32,114,212
1,34,114,268
1,27,114,12
1,27,114,172
1,32,114,196
1,34,114,276
1,27,114,20
1,27,114,168
1,32,114,192
1,34,114,256
1,27,114,16
1,27,114,144
1,32,114,188
1,34,114,296
1,27,114,40
1,27,114,176
1,32,114,212
1,34,114,268
1,27,114,12
1,27,114,172
1,32,114,196
1,34,114,276
1,27,114,20
1,27,114,176
1,32,114,212
1,34,114,268
1,27,114,12
1,27,114,172
1,32,114,196
1,34,114,276
1,27,114,20
1,27,114,176
1,32,114,212
1,34,107,76
1,34,114,4
1,27,114,40
1,27,114,172
1,32,114,196
1,34,107,84
1,34,114,4
1,27,114,40
1,27,114,168
1,32,114,192
1,34,108,64
1,34,114,4
1,27,114,40
1,27,114,144
1,32,114,188
1,34,107,104
1,34,114,4
1,27,114,40
1,27,114,176
1,32,114,212
1,34,107,76
1,34,114,4
1,27,114,40
1,27,114,172
1,32,114,196
1,34,106,84
1,34,114,4
1,27,114,20
1,27,114,168
1,32,114,192
1,34,107,64
1,34,114,4
1,27,114,40
1,27,114,144
1,32,114,188
1,34,107,104
1,34,114,12
1,27,114,18472
1,27,114,176
1,32,114,212
1,34,116,76
1,34,115,128
1,27,114,40
1,27,114,172
1,32,114,196
1,34,116,84
1,34,115,36
1,27,114,40
1,27,114,168
1,32,114,192
1,34,116,64
1,34,114,32
1,27,114,40
1,27,114,144
1,32,114,188
1,34,116,104
1,34,110,4
1,27,114,40
1,27,114,176
1,32,114,212
1,34,116,76
1,34,115,24
1,27,114,40
1,27,114,172
1,32,114,196
1,34,115,84
1,34,115,32
1,27,114,40
1,27,114,168
1,32,114,192
1,34,116,64
1,34,115,32
1,27,114,40
1,27,114,144
1,32,114,188
1,34,115,104
1,34,110,28
2,46,67,4168
2,63,64,0
2,65,65,0
2,46,66,200
2,63,65,0
2,65,66,0
2,51,67,208
2,63,65,0
2,67,65,0
2,46,66,80
2,63,65,0
2,65,66,0
2,46,66,200
2,63,65,0
2,65,66,0
2,51,67,208
2,63,66,0
2,67,65,0
2,46,66,116
2,63,64,0
2,65,65,0
2,46,66,196
2,63,64,0
2,65,65,0
2,51,66,216
2,63,65,0
2,67,65,0
2,46,66,128
2,63,65,0
2,65,65,0
2,46,67,200
2,63,65,0
2,65,66,0
2,51,66,212
2,63,66,0
2,67,65,0
2,46,66,100
2,63,64,0
2,65,66,0
2,46,66,204
2,63,65,0
2,65,65,0
2,51,67,212
2,63,65,0
2,67,65,0
2,46,66,120
2,63,64,0
2,65,65,0
2,46,66,192
2,63,65,0
2,65,66,0
2,51,66,200
2,63,64,0
2,67,64,0
2,46,66,140
2,63,64,0
2,65,65,0
2,46,66,196
2,63,64,0
2,65,65,0
2,51,66,220
2,63,65,0
2,67,65,0
2,46,67,120
2,63,64,0
2,65,65,0
2,46,67,200
2,63,64,0
2,65,66,0
2,51,67,208
2,63,65,0
2,67,65,0
2,46,67,12356
2,63,64,0
2,65,65,0
2,46,66,200
2,63,65,0
2,65,66,0
2,51,67,208
2,63,65,0
2,67,65,0
2,46,66,80
2,63,65,0
2,65,66,0
2,46,66,200
2,63,65,0
2,65,66,0
2,51,67,208
2,63,66,0
2,67,65,0
2,46,66,116
2,63,64,0
2,65,65,0
2,46,66,196
2,63,64,0
2,65,65,0
2,51,66,216
2,63,65,0
2,67,65,0
2,46,66,128
2,63,65,0
2,65,65,0
2,46,67,200
2,63,65,0
2,65,66,0
2,51,66,212
2,63,66,0
2,67,65,0
2,46,66,100
2,63,64,0
2,65,66,0
2,46,66,204
2,63,65,0
2,65,65,0
2,51,67,212
2,63,65,0
2,67,65,0
2,46,66,120
2,63,64,0
2,65,65,0
2,46,66,192
2,63,65,0
2,65,66,0
2,51,66,200
2,63,64,0
2,67,64,0
2,46,66,140
2,63,64,0
2,65,65,0
2,46,66,196
2,63,64,0
2,65,65,0
2,51,66,220
2,63,65,0
2,67,65,0
2,46,67,120
2,63,64,0
2,65,65,0
2,46,67,200
2,63,64,0
2,65,66,0
2,51,67,208
2,63,65,0
2,67,65,0
2,46,67,68
2,63,64,0
2,65,65,0
2,46,66,200
2,63,65,0
2,65,66,0
2,51,67,208
2,63,65,0
2,67,65,0
2,46,66,80
2,63,65,0
2,65,66,0
2,46,66,200
2,63,65,0
2,65,66,0
2,51,67,208
2,63,66,0
2,67,65,0
2,46,66,116
2,63,64,0
2,65,65,0
2,46,66,196
2,63,64,0
2,65,65,0
2,51,66,216
2,63,65,0
2,67,65,0
2,46,66,128
2,63,65,0
2,65,65,0
2,46,67,200
2,63,65,0
2,65,66,0
2,51,66,212
2,63,66,0
2,67,65,0
2,46,66,100
2,63,64,0
2,65,66,0
2,46,66,204
2,63,65,0
2,65,65,0
2,51,67,212
2,63,65,0
2,67,65,0
2,46,66,120
2,63,64,0
2,65,65,0
2,46,66,192
2,63,65,0
2,65,66,0
2,51,66,200
2,63,64,0
2,67,64,0
2,46,66,140
2,63,64,0
2,65,65,0
2,46,66,196
2,63,64,0
2,65,65,0
2,51,66,220
2,63,65,0
2,67,65,0
2,46,67,120
2,63,64,0
2,65,65,0
2,46,67,200
2,63,64,0
2,65,66,0
2,51,67,208
2,63,65,0
2,67,65,0
2,46,67,12356
2,63,64,0
2,65,65,0
2,46,66,200
2,63,65,0
2,65,66,0
2,51,67,208
2,63,65,0
2,67,65,0
2,46,66,80
2,63,65,0
2,65,66,0
2,46,66,200
2,63,65,0
2,65,66,0
2,51,67,208
2,63,66,0
2,67,65,0
2,46,66,116
2,63,64,0
2,65,65,0
2,46,66,196
2,63,64,0
2,65,65,0
2,51,66,216
2,63,65,0
2,67,65,0
2,46,66,128
2,63,65,0
2,65,65,0
2,46,67,200
2,63,65,0
2,65,66,0
2,51,66,212
2,63,66,0
2,67,65,0
2,46,66,100
2,63,64,0
2,65,66,0
2,46,66,204
2,63,65,0
2,65,65,0
2,51,67,212
2,63,65,0
2,67,65,0
2,46,66,120
2,63,64,0
2,65,65,0
2,46,66,192
2,63,65,0
2,65,66,0
2,51,66,200
2,63,64,0
2,67,64,0
2,46,66,140
2,63,64,0
2,65,65,0
2,46,66,196
2,63,64,0
2,65,65,0
2,51,66,220
2,63,65,0
2,67,65,0
2,46,67,120
2,63,64,0
2,65,65,0
2,46,67,200
2,63,64,0
2,65,66,0
2,51,67,208
2,63,65,0
2,67,65,0
2,46,67,68
2,63,64,0
2,65,65,0
2,46,66,200
2,63,65,0
2,65,66,0
2,51,67,208
2,63,65,0
2,67,65,0
2,46,66,80
2,63,65,0
2,65,66,0
2,46,66,200
2,63,65,0
2,65,66,0
2,51,67,208
2,63,66,0
2,67,65,0
2,46,66,116
2,63,64,0
2,65,65,0
2,46,66,196
2,63,64,0
2,65,65,0
2,51,66,216
2,63,65,0
2,67,65,0
2,46,66,128
2,63,65,0
2,65,65,0
2,46,67,200
2,63,65,0
2,65,66,0
2,51,66,212
2,63,66,0
2,67,65,0
2,46,67,100
2,63,64,0
2,65,65,0
2,46,66,200
2,63,65,0
2,65,66,0
2,51,67,208
2,63,65,0
2,67,65,0
2,46,66,80
2,63,65,0
2,65,66,0
2,46,66,200
2,63,65,0
2,65,66,0
2,51,67,208
2,63,66,0
2,67,65,0
2,46,66,116
2,63,64,0
2,65,65,0
2,46,66,196
2,63,64,0
2,65,65,0
2,51,66,216
2,63,65,0
2,67,65,0
2,46,66,128
2,63,65,0
2,65,65,0
2,46,67,200
2,63,65,0
2,65,66,0
2,51,66,212
2,63,66,0
2,67,65,0
2,46,66,100
2,63,64,0
2,65,66,0
2,46,66,204
2,63,65,0
2,65,65,0
2,51,67,212
2,63,65,0
2,67,65,0
2,46,66,120
2,63,64,0
2,65,65,0
2,46,66,192
2,63,65,0
2,65,66,0
2,51,66,200
2,63,64,0
2,67,64,0
2,46,66,140
2,63,64,0
2,65,65,0
2,46,66,196
2,63,64,0
2,65,65,0
2,51,66,220
2,63,65,0
2,67,65,0
2,46,67,120
2,63,64,0
2,65,65,0
2,46,67,200
2,63,64,0
2,65,66,0
2,51,67,208
2,63,65,0
2,67,65,0
2,46,67,36932
2,63,64,0
2,65,65,0
2,46,66,200
2,63,65,0
2,65,66,0
2,51,67,208
2,63,65,0
2,67,65,0
2,46,66,80
2,63,65,0
2,65,66,0
2,46,66,200
2,63,65,0
2,65,66,0
2,51,67,208
2,63,66,0
2,67,65,0
2,46,66,116
2,63,64,0
2,65,65,0
2,46,66,196
2,63,64,0
2,65,65,0
2,51,66,216
2,63,65,0
2,67,65,0
2,46,66,128
2,63,65,0
2,65,65,0
2,46,67,200
2,63,65,0
2,65,66,0
2,51,66,212
2,63,66,0
2,67,65,0
2,46,67,100
2,63,64,0
2,65,65,0
2,46,66,200
2,63,65,0
2,65,66,0
2,51,67,208
2,63,65,0
2,67,65,0
2,46,66,80
2,63,65,0
2,65,66,0
2,46,66,200
2,63,65,0
2,65,66,0
2,51,67,208
2,63,66,0
2,67,65,0
2,46,66,116
2,63,64,0
2,65,65,0
2,46,66,196
2,63,64,0
2,65,65,0
2,51,66,216
2,63,65,0
2,67,65,0
2,46,66,128
2,63,65,0
2,65,65,0
2,46,67,200
2,63,65,0
2,65,66,0
2,51,66,212
2,63,66,0
2,67,65,0
3,67,90,86708
3,67,89,128
3,65,90,4
3,63,90,16
3,67,89,4
3,65,89,20
3,63,90,4
3,70,89,212
3,67,89,16
3,67,89,52
3,65,90,12
3,63,90,36
3,67,90,1164
3,67,89,128
3,65,89,12
3,63,90,4
3,67,88,4
3,65,89,12
3,63,89,4
3,67,89,104
3,67,92,24192
3,67,92,124
3,65,92,8
3,63,91,8
3,67,91,4
3,67,90,100
3,65,90,4
3,63,91,24
3,67,88,4
3,65,90,48
3,63,89,4
3,67,90,4
3,67,90,48
3,67,89,108
3,65,90,4
3,63,91,24
3,67,88,4
3,67,90,100
3,65,90,12
3,63,90,8
3,67,88,4
3,65,90,36
3,63,89,4
3,67,89,4
3,67,90,60
3,67,90,116
3,65,90,4
3,63,90,24
4,63,86,5088
4,67,84,12
4,68,81,0
4,67,84,4
4,63,84,12
4,63,82,40
4,63,85,120
4,63,83,56
4,63,83,56
4,67,85,32
4,63,86,1552
4,67,84,8
4,68,85,4
4,67,84,24
4,63,84,16
4,63,82,52
4,63,83,124
4,63,83,68
4,67,83,44
4,70,86,4
4,63,85,1048
4,67,84,24
4,68,82,4
4,67,83,4
4,63,84,28
4,63,83,48
4,63,84,132
4,63,83,64
4,63,82,52
4,67,84,36
4,63,86,1544
4,67,83,20
4,68,85,4
4,67,84,4
4,63,83,12
4,63,80,44
4,63,84,116
4,63,83,60
4,63,81,40
4,67,84,4
4,70,86,4
4,63,86,25596
4,67,84,12
4,68,81,0
4,67,84,4
4,63,84,12
4,63,82,40
4,63,85,120
4,63,83,56
4,63,83,56
4,67,85,32
4,63,86,1552
4,67,84,8
4,68,85,4
4,67,84,24
4,63,84,16
4,63,82,52
4,63,83,124
4,63,83,68
4,67,83,44
4,70,86,4
4,63,85,1048
4,67,84,24
4,68,82,4
4,67,83,4
4,63,84,28
4,63,83,48
4,63,84,132
4,63,83,64
4,63,82,52
4,67,84,36
4,63,86,1544
4,67,83,20
4,68,85,4
4,67,84,4
4,63,83,12
4,63,80,44
4,63,84,116
4,63,83,60
4,63,81,40
4,67,84,4
4,70,86,4
4,63,86,31740
4,67,84,12
4,68,81,4
4,67,84,4
4,63,84,12
4,63,82,40
4,63,85,120
4,63,83,56
4,63,83,56
4,67,85,32
4,63,86,1552
