track,note,velocity,time
1,36,127,3812
1,31,127,108
1,33,127,96
1,33,127,172
1,33,127,124
1,35,127,28
1,36,127,108
1,31,127,108
1,33,127,96
1,33,127,172
1,33,127,124
1,35,127,28
1,36,127,108
1,31,127,108
1,33,127,96
1,33,127,172
1,33,127,124
1,35,127,28
1,36,127,108
1,31,127,108
1,33,127,96
1,33,127,172
1,33,127,124
1,35,127,28
1,36,127,108
1,31,127,108
1,33,127,96
1,33,127,172
1,33,127,124
1,35,127,28
1,36,127,108
1,31,127,108
1,33,127,96
1,33,127,172
1,33,127,124
1,35,127,28
1,36,127,108
1,31,127,108
1,33,127,96
1,33,127,172
1,33,127,124
1,35,127,28
1,36,127,108
1,31,127,108
1,33,127,96
1,33,127,172
1,33,127,124
1,35,127,28
1,36,127,108
1,31,127,108
1,33,127,96
1,33,127,172
1,33,127,124
1,35,127,28
1,36,127,108
1,31,127,108
1,33,127,96
1,33,127,172
1,33,127,124
1,35,127,28
1,36,127,108
1,31,127,108
1,33,127,96
1,33,127,172
1,33,127,124
1,35,127,28
1,36,127,108
1,31,127,108
1,33,127,96
1,33,127,172
1,33,127,124
1,35,127,28
1,36,127,108
1,31,127,108
1,33,127,96
1,33,127,172
1,33,127,124
1,35,127,28
1,36,127,108
1,31,127,108
1,33,127,96
1,33,127,172
1,33,127,124
1,35,127,28
1,36,127,108
1,31,127,108
1,33,127,96
1,33,127,172
1,33,127,124
1,35,127,28
1,36,127,108
1,31,127,108
1,33,127,96
1,33,127,172
1,33,127,124
1,35,127,28
1,36,127,108
1,31,127,108
1,33,127,96
1,33,127,172
1,33,127,124
1,35,127,28
1,36,127,108
1,31,127,108
1,33,127,96
1,33,127,172
1,33,127,124
1,35,127,28
1,36,127,108
1,31,127,108
1,33,127,96
1,33,127,172
1,33,127,124
1,35,127,28
1,36,127,108
1,31,127,108
1,33,127,96
1,33,127,172
1,33,127,124
1,35,127,28
1,36,127,108
1,31,127,108
1,33,127,96
1,33,127,172
1,33,127,124
1,35,127,28
1,36,127,108
1,31,127,108
1,33,127,96
1,33,127,172
1,33,127,124
1,35,127,28
1,36,127,108
1,31,127,108
1,33,127,96
1,33,127,172
1,33,127,124
1,35,127,28
1,36,127,108
1,31,127,108
1,33,127,96
1,33,127,172
1,33,127,124
1,35,127,28
1,36,127,108
1,31,127,108
1,33,127,96
1,33,127,172
1,33,127,124
1,35,127,28
1,36,127,108
1,31,127,108
1,33,127,96
1,33,127,172
1,33,127,124
1,35,127,28
1,36,127,108
1,31,127,108
1,33,127,96
1,33,127,172
1,33,127,124
1,35,127,28
1,36,127,108
1,31,127,108
1,33,127,96
1,33,127,172
1,33,127,124
1,35,127,28
1,36,127,108
1,31,127,108
1,33,127,96
1,33,127,172
1,33,127,124
1,35,127,28
1,36,127,108
1,31,127,108
1,33,127,96
1,33,127,172
1,33,127,124
1,35,127,28
1,36,127,108
1,31,127,108
1,33,127,96
1,33,127,172
1,33,127,124
1,35,127,28
1,36,127,108
1,31,127,108
1,33,127,96
1,33,127,172
1,33,127,124
1,35,127,28
1,36,127,108
1,31,127,108
1,33,127,96
1,33,127,172
1,33,127,124
1,35,127,28
1,36,127,108
1,31,127,108
1,33,127,96
1,33,127,172
1,33,127,124
1,35,127,28
1,36,127,108
1,31,127,108
1,33,127,96
1,33,127,172
1,33,127,124
1,35,127,28
1,36,127,108
1,31,127,108
1,33,127,96
1,33,127,172
1,33,127,124
1,35,127,28
1,36,127,108
1,31,127,108
1,33,127,96
1,33,127,172
1,33,127,124
1,35,127,28
1,36,127,108
1,31,127,108
1,33,127,96
1,33,127,172
1,33,127,124
1,35,127,28
1,36,127,108
1,31,127,108
1,33,127,96
1,33,127,172
1,33,127,124
1,35,127,28
1,36,127,108
1,31,127,108
1,33,127,96
1,33,127,172
1,33,127,124
1,35,127,28
1,36,127,108
1,31,127,108
1,33,127,96
1,33,127,172
1,33,127,124
1,35,127,28
1,36,127,108
1,31,127,108
1,33,127,96
1,33,127,172
1,33,127,124
1,35,127,28
1,36,127,108
1,31,127,108
1,33,127,96
1,33,127,172
1,33,127,124
1,35,127,28
1,36,127,108
1,31,127,108
1,33,127,96
1,33,127,172
1,33,127,124
1,35,127,28
1,36,127,108
1,31,127,108
1,33,127,96
1,33,127,172
1,33,127,124
1,35,127,28
1,36,127,108
1,31,127,108
1,33,127,96
1,33,127,172
1,33,127,124
1,35,127,28
1,36,127,108
1,31,127,108
1,33,127,96
1,33,127,172
1,33,127,124
1,35,127,28
1,36,127,108
1,31,127,108
1,33,127,96
1,33,127,172
1,33,127,124
1,35,127,28
1,36,127,108
1,31,127,108
1,33,127,96
1,33,127,172
1,33,127,124
1,35,127,28
1,36,127,108
1,31,127,108
1,33,127,96
1,33,127,172
1,33,127,124
1,35,127,28
1,36,127,108
1,31,127,108
1,33,127,96
1,33,127,172
1,33,127,124
1,35,127,28
1,36,127,108
1,31,127,108
1,33,127,96
1,33,127,172
1,33,127,124
1,35,127,28
1,36,127,108
1,31,127,108
1,33,127,96
1,33,127,172
1,33,127,124
1,35,127,28
1,36,127,108
1,31,127,108
1,33,127,96
1,33,127,172
1,33,127,124
1,35,127,28
1,36,127,108
1,31,127,108
1,33,127,96
1,33,127,172
1,33,127,124
1,35,127,28
1,36,127,1644
1,31,127,108
1,33,127,96
1,33,127,172
1,33,127,124
1,35,127,28
1,36,127,108
1,31,127,108
1,33,127,96
1,33,127,172
1,33,127,124
1,35,127,28
1,36,127,108
1,31,127,108
1,33,127,96
1,33,127,172
1,33,127,124
1,35,127,28
1,36,127,108
1,31,127,108
1,33,127,96
1,33,127,172
1,33,127,124
1,35,127,28
1,36,127,108
1,31,127,108
1,33,127,96
1,33,127,172
1,33,127,124
1,35,127,28
1,36,127,108
1,31,127,108
1,33,127,96
1,33,127,172
1,33,127,124
1,35,127,28
1,36,127,108
1,31,127,108
1,33,127,96
1,33,127,172
1,33,127,124
1,35,127,28
1,36,127,108
1,31,127,108
1,33,127,96
1,33,127,172
1,33,127,124
1,35,127,28
1,36,127,108
1,31,127,108
1,33,127,96
1,33,127,172
1,33,127,124
1,35,127,28
1,36,127,108
1,31,127,108
1,33,127,96
1,33,127,172
1,33,127,124
1,35,127,28
1,36,127,108
1,31,127,108
1,33,127,96
1,33,127,172
1,33,127,124
1,35,127,28
1,36,127,108
1,31,127,108
1,33,127,96
1,33,127,172
1,33,127,124
1,35,127,28
1,36,127,108
1,31,127,108
1,33,127,96
1,33,127,172
1,33,127,124
1,35,127,28
1,36,127,108
1,31,127,108
1,33,127,96
1,33,127,172
1,33,127,124
1,35,127,28
1,36,127,108
1,31,127,108
1,33,127,96
1,33,127,172
1,33,127,124
1,35,127,28
1,36,127,108
1,31,127,108
1,33,127,96
1,33,127,172
1,33,127,124
1,35,127,28
1,36,127,108
1,31,127,108
1,33,127,96
1,33,127,172
1,33,127,124
1,35,127,28
1,36,127,108
1,31,127,108
1,33,127,96
1,33,127,172
1,33,127,124
1,35,127,28
1,36,127,108
1,31,127,108
1,33,127,96
1,33,127,172
1,33,127,124
1,35,127,28
1,36,127,1644
1,31,127,108
1,33,127,96
1,33,127,172
1,33,127,124
1,35,127,28
1,36,127,108
1,31,127,108
1,33,127,96
1,33,127,172
1,33,127,124
1,35,127,28
1,36,127,108
1,31,127,108
1,33,127,96
1,33,127,172
1,33,127,124
1,35,127,28
1,36,127,108
1,31,127,108
1,33,127,96
1,33,127,172
1,33,127,124
1,35,127,28
1,36,127,108
1,31,127,108
1,33,127,96
1,33,127,172
1,33,127,124
1,35,127,28
1,36,127,108
1,31,127,108
1,33,127,96
1,33,127,172
1,33,127,124
1,35,127,28
1,36,127,108
1,31,127,108
1,33,127,96
1,33,127,172
1,33,127,124
1,35,127,28
1,36,127,108
1,31,127,108
1,33,127,96
1,33,127,172
1,33,127,124
1,35,127,28
1,36,127,108
1,31,127,108
1,33,127,96
1,33,127,172
1,33,127,124
1,35,127,28
1,36,127,108
1,31,127,108
1,33,127,96
1,33,127,172
1,33,127,124
1,35,127,28
1,36,127,108
1,31,127,108
1,33,127,96
1,33,127,172
1,33,127,124
1,35,127,28
1,36,127,108
1,31,127,108
1,33,127,96
1,33,127,172
1,33,127,124
1,35,127,28
1,36,127,108
1,31,127,108
1,33,127,96
1,33,127,172
1,33,127,124
1,35,127,28
1,36,127,108
1,31,127,108
1,33,127,96
1,33,127,172
1,33,127,124
1,35,127,28
1,36,127,108
1,31,127,108
1,33,127,96
1,33,127,172
1,33,127,124
1,35,127,28
1,36,127,108
1,31,127,108
1,33,127,96
1,33,127,172
1,33,127,124
1,35,127,28
1,36,127,108
1,31,127,108
1,33,127,96
1,33,127,172
1,33,127,124
1,35,127,28
1,36,127,108
1,31,127,108
1,33,127,96
1,33,127,172
1,33,127,124
1,35,127,28
1,36,127,108
1,31,127,108
1,33,127,96
1,33,127,172
1,33,127,124
1,35,127,28
1,36,127,108
1,31,127,108
1,33,127,96
1,33,127,172
1,33,127,124
1,35,127,28
2,55,58,4172
2,59,77,0
2,64,70,0
2,55,62,104
2,59,78,0
2,62,67,0
2,57,57,124
2,60,79,0
2,64,77,0
2,57,60,100
2,60,74,0
2,64,78,0
2,59,74,100
2,62,73,0
2,66,74,0
2,55,58,128
2,59,77,0
2,64,70,0
2,55,62,104
2,59,78,0
2,62,67,0
2,57,57,124
2,60,79,0
2,64,77,0
2,57,60,100
2,60,74,0
2,64,78,0
2,59,74,100
2,62,73,0
2,66,74,0
2,55,58,128
2,59,77,0
2,64,70,0
2,55,62,104
2,59,78,0
2,62,67,0
2,57,57,124
2,60,79,0
2,64,77,0
2,57,60,100
2,60,74,0
2,64,78,0
2,59,74,100
2,62,73,0
2,66,74,0
2,55,58,128
2,59,77,0
2,64,70,0
2,55,62,104
2,59,78,0
2,62,67,0
2,57,57,124
2,60,79,0
2,64,77,0
2,57,60,100
2,60,74,0
2,64,78,0
2,59,74,100
2,62,73,0
2,66,74,0
2,55,58,128
2,59,77,0
2,64,70,0
2,55,62,104
2,59,78,0
2,62,67,0
2,57,57,124
2,60,79,0
2,64,77,0
2,57,60,100
2,60,74,0
2,64,78,0
2,59,74,100
2,62,73,0
2,66,74,0
2,55,58,128
2,59,77,0
2,64,70,0
2,55,62,104
2,59,78,0
2,62,67,0
2,57,57,124
2,60,79,0
2,64,77,0
2,57,60,100
2,60,74,0
2,64,78,0
2,59,74,100
2,62,73,0
2,66,74,0
2,55,58,128
2,59,77,0
2,64,70,0
2,55,62,104
2,59,78,0
2,62,67,0
2,57,57,124
2,60,79,0
2,64,77,0
2,57,60,100
2,60,74,0
2,64,78,0
2,59,74,100
2,62,73,0
2,66,74,0
2,55,58,128
2,59,77,0
2,64,70,0
2,55,62,104
2,59,78,0
2,62,67,0
2,57,57,124
2,60,79,0
2,64,77,0
2,57,60,100
2,60,74,0
2,64,78,0
2,59,74,100
2,62,73,0
2,66,74,0
2,55,58,128
2,59,77,0
2,64,70,0
2,55,62,104
2,59,78,0
2,62,67,0
2,57,57,124
2,60,79,0
2,64,77,0
2,57,60,100
2,60,74,0
2,64,78,0
2,59,74,100
2,62,73,0
2,66,74,0
2,55,58,128
2,59,77,0
2,64,70,0
2,55,62,104
2,59,78,0
2,62,67,0
2,57,57,124
2,60,79,0
2,64,77,0
2,57,60,100
2,60,74,0
2,64,78,0
2,59,74,100
2,62,73,0
2,66,74,0
2,55,58,128
2,59,77,0
2,64,70,0
2,55,62,104
2,59,78,0
2,62,67,0
2,57,57,124
2,60,79,0
2,64,77,0
2,57,60,100
2,60,74,0
2,64,78,0
2,59,74,100
2,62,73,0
2,66,74,0
2,55,58,128
2,59,77,0
2,64,70,0
2,55,62,104
2,59,78,0
2,62,67,0
2,57,57,124
2,60,79,0
2,64,77,0
2,57,60,100
2,60,74,0
2,64,78,0
2,59,74,100
2,62,73,0
2,66,74,0
2,55,58,128
2,59,77,0
2,64,70,0
2,55,62,104
2,59,78,0
2,62,67,0
2,57,57,124
2,60,79,0
2,64,77,0
2,57,60,100
2,60,74,0
2,64,78,0
2,59,74,100
2,62,73,0
2,66,74,0
2,55,58,128
2,59,77,0
2,64,70,0
2,55,62,104
2,59,78,0
2,62,67,0
2,57,57,124
2,60,79,0
2,64,77,0
2,57,60,100
2,60,74,0
2,64,78,0
2,59,74,100
2,62,73,0
2,66,74,0
2,55,58,128
2,59,77,0
2,64,70,0
2,55,62,104
2,59,78,0
2,62,67,0
2,57,57,124
2,60,79,0
2,64,77,0
2,57,60,100
2,60,74,0
2,64,78,0
2,59,74,100
2,62,73,0
2,66,74,0
2,55,58,128
2,59,77,0
2,64,70,0
2,55,62,104
2,59,78,0
2,62,67,0
2,57,57,124
2,60,79,0
2,64,77,0
2,57,60,100
2,60,74,0
2,64,78,0
2,59,74,100
2,62,73,0
2,66,74,0
2,55,58,128
2,59,77,0
2,64,70,0
2,55,62,104
2,59,78,0
2,62,67,0
2,57,57,124
2,60,79,0
2,64,77,0
2,57,60,100
2,60,74,0
2,64,78,0
2,59,74,100
2,62,73,0
2,66,74,0
2,55,58,128
2,59,77,0
2,64,70,0
2,55,62,104
2,59,78,0
2,62,67,0
2,57,57,124
2,60,79,0
2,64,77,0
2,57,60,100
2,60,74,0
2,64,78,0
2,59,74,100
2,62,73,0
2,66,74,0
2,55,58,128
2,59,77,0
2,64,70,0
2,55,62,104
2,59,78,0
2,62,67,0
2,57,57,124
2,60,79,0
2,64,77,0
2,57,60,100
2,60,74,0
2,64,78,0
2,59,74,100
2,62,73,0
2,66,74,0
2,55,58,128
2,59,77,0
2,64,70,0
2,55,62,104
2,59,78,0
2,62,67,0
2,57,57,124
2,60,79,0
2,64,77,0
2,57,60,100
2,60,74,0
2,64,78,0
2,59,74,100
2,62,73,0
2,66,74,0
2,55,58,128
2,59,77,0
2,64,70,0
2,55,62,104
2,59,78,0
2,62,67,0
2,57,57,124
2,60,79,0
2,64,77,0
2,57,60,100
2,60,74,0
2,64,78,0
2,59,74,100
2,62,73,0
2,66,74,0
2,55,58,128
2,59,77,0
2,64,70,0
2,55,62,104
2,59,78,0
2,62,67,0
2,57,57,124
2,60,79,0
2,64,77,0
2,57,60,100
2,60,74,0
2,64,78,0
2,59,74,100
2,62,73,0
2,66,74,0
2,55,58,128
2,59,77,0
2,64,70,0
2,55,62,104
2,59,78,0
2,62,67,0
2,57,57,124
2,60,79,0
2,64,77,0
2,57,60,100
2,60,74,0
2,64,78,0
2,59,74,100
2,62,73,0
2,66,74,0
2,55,58,128
2,59,77,0
2,64,70,0
2,55,62,104
2,59,78,0
2,62,67,0
2,57,57,124
2,60,79,0
2,64,77,0
2,57,60,100
2,60,74,0
2,64,78,0
2,59,74,100
2,62,73,0
2,66,74,0
2,55,58,128
2,59,77,0
2,64,70,0
2,55,62,104
2,59,78,0
2,62,67,0
2,57,57,124
2,60,79,0
2,64,77,0
2,57,60,100
2,60,74,0
2,64,78,0
2,59,74,100
2,62,73,0
2,66,74,0
2,55,58,128
2,59,77,0
2,64,70,0
2,55,62,104
2,59,78,0
2,62,67,0
2,57,57,124
2,60,79,0
2,64,77,0
2,57,60,100
2,60,74,0
2,64,78,0
2,59,74,100
2,62,73,0
2,66,74,0
2,55,58,128
2,59,77,0
2,64,70,0
2,55,62,104
2,59,78,0
2,62,67,0
2,57,57,124
2,60,79,0
2,64,77,0
2,57,60,100
2,60,74,0
2,64,78,0
2,59,74,100
2,62,73,0
2,66,74,0
2,55,58,128
2,59,77,0
2,64,70,0
2,55,62,104
2,59,78,0
2,62,67,0
2,57,57,124
2,60,79,0
2,64,77,0
2,57,60,100
2,60,74,0
2,64,78,0
2,59,74,100
2,62,73,0
2,66,74,0
2,55,58,128
2,59,77,0
2,64,70,0
2,55,62,104
2,59,78,0
2,62,67,0
2,57,57,124
2,60,79,0
2,64,77,0
2,57,60,100
2,60,74,0
2,64,78,0
2,59,74,100
2,62,73,0
2,66,74,0
2,55,58,128
