track,note,velocity,time
0,43,108,352
0,79,110,0
0,55,112,1
0,67,108,1
0,74,116,0
0,74,0,2
0,55,0,1
0,67,0,0
0,79,0,4
0,43,0,1
0,55,104,48
0,43,102,2
0,67,96,1
0,79,104,0
0,74,106,1
0,79,0,30
0,43,0,3
0,74,0,0
0,67,0,2
0,55,0,1
0,43,102,55
0,55,104,2
0,74,106,1
0,79,106,0
0,67,100,1
0,43,0,32
0,79,0,0
0,55,0,1
0,74,0,1
0,67,0,5
0,67,100,53
0,74,106,0
0,79,106,1
0,43,102,1
0,55,102,0
0,43,0,32
0,67,0,0
0,55,0,1
0,74,0,1
0,79,0,6
0,55,108,54
0,74,112,3
0,43,106,2
0,71,106,0
0,83,110,0
0,74,0,34
0,55,0,1
0,71,0,1
0,43,0,2
0,83,0,4
0,55,104,49
0,74,108,0
0,43,102,1
0,71,102,1
0,83,106,0
0,74,0,34
0,43,0,4
0,55,0,0
0,71,0,1
0,83,0,5
0,71,104,50
0,83,108,0
0,43,102,4
0,74,108,0
0,55,104,1
0,71,0,32
0,74,0,0
0,43,0,3
0,55,0,2
0,83,0,3
0,55,104,51
0,74,108,0
0,83,108,2
0,43,102,1
0,71,102,2
0,74,0,31
0,55,0,1
0,43,0,2
0,71,0,1
0,83,0,3
0,79,116,53
0,86,118,0
0,55,110,2
0,74,112,1
0,43,106,2
0,74,0,31
0,79,0,6
0,55,0,2
0,86,0,0
0,43,0,3
0,55,108,49
0,74,104,0
0,79,108,3
0,86,108,0
0,43,106,1
0,74,0,30
0,79,0,4
0,86,0,0
0,43,0,2
0,55,0,0
0,55,108,56
0,74,108,0
0,79,108,1
0,43,106,4
0,86,110,0
0,79,0,29
0,74,0,1
0,55,0,4
0,86,0,0
0,43,0,4
0,55,108,53
0,43,102,2
0,74,106,0
0,86,110,0
0,79,108,1
0,74,0,31
0,79,0,4
0,86,0,1
0,43,0,4
0,55,0,2
0,43,104,51
0,89,112,0
0,77,112,1
0,55,108,3
0,83,118,0
0,77,0,30
0,89,0,4
0,43,0,2
0,83,0,2
0,55,0,2
0,55,110,52
0,89,112,1
0,77,108,2
0,43,102,2
0,83,112,0
0,83,0,33
0,77,0,3
0,89,0,0
0,55,0,2
0,43,0,2
0,83,112,51
0,89,110,0
0,77,106,1
0,43,106,1
0,55,110,3
0,77,0,31
0,83,0,3
0,43,0,1
0,89,0,2
0,55,0,4
0,83,112,50
0,89,110,1
0,55,110,1
0,43,106,3
0,77,108,0
0,83,0,30
0,89,0,3
0,55,0,1
0,77,0,0
0,43,0,2
0,43,108,21
0,55,116,0
0,81,112,2
0,86,118,0
0,93,118,3
0,81,0,15
0,43,0,6
0,55,0,0
0,86,0,0
0,93,0,2
0,43,106,56
0,81,108,2
0,86,108,1
0,93,114,1
0,55,108,1
0,81,0,31
0,93,0,2
0,43,0,1
0,86,0,0
0,55,0,6
0,55,108,54
0,81,108,0
0,93,114,0
0,86,102,1
0,43,108,1
0,86,0,32
0,81,0,1
0,55,0,2
0,93,0,0
0,43,0,2
0,93,114,54
0,81,108,1
0,43,106,1
0,55,108,0
0,86,96,1
0,86,0,30
0,93,0,0
0,81,0,2
0,55,0,3
0,43,0,1
0,43,108,57
0,81,110,0
0,93,116,0
0,86,112,2
0,55,110,3
0,43,0,32
0,81,0,0
0,86,0,1
0,93,0,1
0,55,0,4
0,43,108,53
0,86,110,0
0,55,110,1
0,93,112,2
0,81,108,2
0,86,0,24
0,43,0,8
0,55,0,0
0,93,0,3
0,81,0,3
0,93,114,54
0,43,108,1
0,55,108,1
0,81,110,1
0,86,98,0
0,86,0,32
0,93,0,0
0,43,0,2
0,55,0,1
0,81,0,0
0,55,110,59
0,86,96,0
0,93,114,2
0,43,108,1
0,81,110,0
0,86,0,34
0,55,0,2
0,43,0,2
0,93,0,1
0,81,0,1
0,91,112,15
0,43,109,2
0,55,114,2
0,79,110,0
0,86,116,0
0,43,108,1
0,91,0,34
0,55,0,1
0,79,0,0
0,43,0,2
0,86,0,1
0,43,0,37
0,86,112,12
0,55,110,2
0,79,108,0
0,43,106,1
0,43,108,1
0,91,112,0
0,86,0,32
0,79,0,2
0,91,0,4
0,55,0,1
0,43,0,5
0,43,0,5
0,41,112,17
0,41,106,1
0,84,108,0
0,77,108,2
0,53,106,1
0,89,112,1
0,84,0,30
0,41,0,1
0,77,0,0
0,53,0,4
0,89,0,3
0,41,0,31
0,77,106,14
0,41,108,1
0,53,104,2
0,84,108,0
0,89,110,1
0,41,104,1
0,77,0,36
0,84,0,2
0,89,0,7
0,41,0,1
0,53,0,0
0,41,0,19
0,40,109,23
0,40,114,0
0,52,112,0
0,83,116,0
0,88,112,0
0,76,110,4
0,83,0,36
0,76,0,2
0,40,0,1
0,52,0,1
0,88,0,0
0,40,0,35
0,52,110,14
0,83,112,0
0,40,108,1
0,88,112,0
0,40,102,3
0,76,108,0
0,83,0,37
0,88,0,2
0,40,0,2
0,52,0,2
0,76,0,0
0,40,0,9
0,74,112,1
0,50,112,2
0,38,118,1
0,43,113,0
0,38,110,1
0,86,116,0
0,81,116,1
0,74,0,34
0,50,0,5
0,86,0,2
0,38,0,1
0,81,0,3
0,38,0,42
0,38,112,4
0,38,104,1
0,50,114,2
0,74,112,0
0,86,114,0
0,81,116,2
0,38,0,39
0,50,0,1
0,74,0,0
0,43,0,3
0,86,0,0
0,81,0,1
0,38,0,12
0,36,110,22
0,72,101,2
0,35,100,1
0,36,105,0
0,46,65,0
0,48,111,0
0,55,69,0
0,79,103,0
0,84,97,0
0,48,103,1
0,35,0,3
0,46,0,0
0,60,65,3
0,64,65,7
0,72,65,8
0,72,0,38
0,79,0,31
0,79,66,2
0,76,68,1
0,72,58,4
0,84,0,3
0,36,0,1
0,48,0,0
0,64,0,1
0,48,0,2
0,60,0,3
0,64,49,0
0,60,52,5
0,76,0,29
0,72,0,5
0,79,0,1
0,36,0,10
0,55,0,25
0,55,64,6
0,79,70,0
0,60,0,1
0,72,54,1
0,40,107,1
0,42,107,0
0,76,68,0
0,60,63,3
0,40,0,1
0,42,0,0
0,64,0,0
0,64,59,5
0,72,0,2
0,72,62,5
0,79,0,22
0,76,0,3
0,72,0,13
0,72,56,43
0,76,68,1
0,79,70,0
0,64,0,4
0,64,51,5
0,60,0,2
0,72,104,0
0,81,108,1
0,40,93,2
0,42,74,0
0,60,55,2
0,77,105,0
0,40,0,2
0,42,0,0
0,76,0,22
0,79,0,3
0,72,0,6
0,55,0,35
0,55,61,5
0,60,0,1
0,79,72,1
0,35,100,3
0,42,105,0
0,60,64,1
0,72,64,0
0,76,70,0
0,64,0,1
0,35,0,2
0,42,0,0
0,64,61,3
0,72,0,1
0,72,68,5
0,72,0,24
0,81,0,3
0,77,0,2
0,76,0,1
0,79,0,0
0,72,0,11
0,76,72,41
0,79,72,2
0,72,60,1
0,64,0,7
0,60,0,4
0,64,53,1
0,81,106,0
0,42,76,2
0,72,102,1
0,60,53,1
0,77,104,1
0,42,0,1
0,79,0,21
0,76,0,4
0,72,0,3
0,55,0,39
0,55,63,5
0,60,0,1
0,40,101,3
0,42,113,0
0,76,74,0
0,79,72,0
0,64,0,1
0,60,69,1
0,72,68,0
0,40,0,2
0,42,0,0
0,64,60,2
0,72,0,2
0,72,65,5
0,72,0,0
0,81,0,0
0,77,0,8
0,79,0,24
0,76,0,1
0,72,0,1
0,72,66,46
0,76,70,0
0,79,74,3
0,72,0,6
0,64,0,5
0,72,53,0
0,72,101,2
0,42,92,3
0,64,54,0
0,81,104,0
0,60,0,1
0,77,103,0
0,42,0,3
0,60,53,2
0,76,0,13
0,72,0,11
0,79,0,6
0,55,0,37
0,64,0,1
0,72,0,0
0,60,0,1
0,72,0,0
0,76,61,2
0,81,0,0
0,76,94,1
0,77,0,0
0,79,68,1
0,35,101,1
0,46,67,0
0,55,69,0
0,72,63,0
0,79,94,0
0,72,102,2
0,35,0,2
0,46,0,0
0,60,65,3
0,64,65,7
0,72,65,8
0,79,0,21
0,76,0,7
0,72,0,2
0,76,72,42
0,79,70,0
0,72,64,1
0,64,0,8
0,60,0,5
0,64,49,0
0,42,88,4
0,60,52,1
0,42,0,3
0,79,0,19
0,72,0,9
0,76,0,4
0,72,0,21
0,76,0,7
0,79,0,1
0,55,0,6
0,55,64,6
0,77,104,0
0,81,104,0
0,60,0,1
0,79,72,1
0,40,108,1
0,42,113,0
0,72,66,1
0,76,72,1
0,60,63,1
0,72,98,0
0,40,0,1
0,42,0,0
0,64,0,0
0,64,59,5
0,72,0,2
0,72,62,5
0,76,0,29
0,72,0,5
0,79,0,3
0,79,72,40
0,76,70,2
0,72,64,2
0,64,0,5
0,64,51,5
0,60,0,2
0,40,99,3
0,42,89,0
0,60,55,2
0,40,0,2
0,42,0,0
0,72,0,29
0,79,0,0
0,76,0,5
0,77,0,14
0,81,0,1
0,72,0,5
0,55,0,12
0,55,61,5
0,60,0,1
0,79,70,1
0,72,60,1
0,35,101,2
0,46,69,0
0,76,66,0
0,60,64,1
0,64,0,1
0,35,0,2
0,46,0,0
0,64,61,3
0,72,0,1
0,72,68,5
0,72,0,33
0,76,0,4
0,79,0,2
0,76,70,42
0,72,64,2
0,79,72,0
0,64,0,9
0,60,0,4
0,64,53,1
0,42,83,2
0,60,53,2
0,42,0,2
0,76,0,26
0,72,0,2
0,79,0,4
0,55,0,35
0,55,63,5
0,60,0,1
0,72,64,2
0,40,105,1
0,42,114,0
0,43,106,0
0,43,113,0
0,76,70,0
0,64,0,1
0,60,69,1
0,79,72,0
0,40,0,2
0,42,0,0
0,64,60,2
0,72,0,2
0,72,65,5
0,72,0,33
0,76,0,1
0,79,0,6
0,43,0,40
0,76,70,0
0,79,72,1
0,72,64,2
0,72,0,6
0,64,0,5
0,72,53,0
0,42,75,5
0,64,54,0
0,60,0,1
0,42,0,3
0,60,53,2
0,76,0,21
0,72,0,4
0,79,0,3
0,55,0,39
0,64,0,1
0,60,0,1
0,72,0,0
0,43,0,2
0,79,74,0
0,72,68,1
0,35,100,2
0,46,65,0
0,48,111,0
0,55,69,0
0,36,108,2
0,76,70,0
0,35,0,2
0,46,0,0
0,60,65,3
0,64,65,7
0,72,65,8
0,76,0,22
0,72,0,4
0,79,0,1
0,72,70,44
0,76,70,2
0,79,76,2
0,64,0,6
0,48,0,2
0,60,0,3
0,64,49,0
0,60,52,5
0,76,0,29
0,72,0,7
0,79,0,3
0,55,0,31
0,55,64,6
0,76,70,0
0,60,0,1
0,72,64,1
0,36,0,1
0,40,107,0
0,42,107,0
0,79,72,2
0,60,63,1
0,40,0,1
0,42,0,0
0,64,0,0
0,64,59,5
0,72,0,2
0,72,62,5
0,72,0,30
0,76,0,0
0,79,0,8
0,72,66,39
0,76,70,3
0,79,70,0
0,64,0,6
0,64,51,5
0,60,0,2
0,81,108,1
0,40,93,2
0,42,74,0
0,60,55,2
0,72,104,1
0,77,105,0
0,40,0,1
0,42,0,0
0,72,0,25
0,76,0,6
0,79,0,4
0,55,0,31
0,55,61,5
0,60,0,1
0,72,68,1
0,79,70,0
0,76,72,2
0,35,100,1
0,42,105,0
0,60,64,1
0,64,0,1
0,35,0,2
0,42,0,0
0,64,61,3
0,72,0,1
0,72,68,5
0,81,0,27
0,72,0,3
0,77,0,0
0,72,0,7
0,76,0,1
0,79,0,1
0,76,70,44
0,72,64,2
0,79,70,0
0,64,0,7
0,60,0,4
0,64,53,1
0,42,76,2
0,77,104,0
0,60,53,2
0,72,102,0
0,81,106,0
0,42,0,2
0,72,0,29
0,76,0,2
0,79,0,5
0,55,0,31
0,55,63,5
0,60,0,1
0,79,72,0
0,72,66,1
0,76,70,1
0,40,101,1
0,42,113,0
0,64,0,1
0,60,69,1
0,40,0,2
0,42,0,0
0,64,60,2
0,72,0,2
0,72,65,5
0,72,0,1
0,81,0,3
0,77,0,1
0,72,0,30
0,76,0,1
0,79,0,2
0,76,72,42
0,72,64,2
0,79,70,3
0,72,0,4
0,64,0,5
0,72,53,0
0,72,101,3
0,77,103,0
0,81,104,1
0,42,92,1
0,64,54,0
0,60,0,1
0,42,0,3
0,60,53,2
0,72,0,27
0,76,0,3
0,79,0,4
0,55,0,33
0,64,0,1
0,60,0,1
0,72,0,0
0,72,0,0
0,77,0,0
0,81,0,1
0,76,69,2
0,79,93,0
0,35,101,2
0,46,67,0
0,55,69,0
0,72,68,1
0,76,92,0
0,79,72,1
0,72,95,1
0,35,0,1
0,46,0,0
0,60,65,3
0,64,65,7
0,72,65,8
0,79,0,24
0,76,0,5
0,72,0,2
0,72,64,41
0,76,72,0
0,79,70,0
0,64,0,9
0,60,0,5
0,64,49,0
0,42,88,4
0,60,52,1
0,42,0,3
0,79,0,19
0,72,0,8
0,76,0,5
0,72,0,22
0,79,0,5
0,76,0,4
0,55,0,4
0,55,64,6
0,77,104,0
0,79,72,0
0,81,104,0
0,60,0,1
0,72,66,0
0,40,108,2
0,42,113,0
0,76,72,0
0,72,98,1
0,60,63,2
0,40,0,1
0,42,0,0
0,64,0,0
0,64,59,5
0,72,0,2
0,72,62,5
0,76,0,27
0,72,0,4
0,79,0,4
0,72,64,42
0,79,72,3
0,76,70,2
0,64,0,4
0,64,51,5
0,60,0,2
0,40,99,3
0,42,89,0
0,60,55,2
0,40,0,2
0,42,0,0
0,72,0,25
0,79,0,7
0,76,0,5
0,77,0,11
0,81,0,1
0,72,0,3
0,55,0,14
0,55,61,5
0,60,0,1
0,79,70,2
0,76,66,1
0,35,101,1
0,42,110,0
0,60,64,1
0,72,60,0
0,64,0,1
0,35,0,2
0,42,0,0
0,64,61,3
0,72,0,1
0,72,68,5
0,72,0,36
0,76,0,0
0,79,0,4
0,72,64,41
0,76,70,1
0,79,72,3
0,64,0,7
0,60,0,4
0,64,53,1
0,42,83,2
0,60,53,2
0,42,0,2
0,72,0,26
0,76,0,1
0,79,0,7
0,55,0,33
0,55,63,5
0,60,0,1
0,72,64,2
0,79,72,0
0,40,105,1
0,42,114,0
0,43,113,0
0,64,0,1
0,76,70,0
0,43,106,1
0,60,69,0
0,40,0,2
0,42,0,0
0,64,60,2
0,72,0,2
0,72,65,5
0,72,0,33
0,76,0,2
0,79,0,2
0,43,0,43
0,72,64,0
0,79,72,1
0,76,70,2
0,72,0,6
0,64,0,5
0,72,53,0
0,42,75,5
0,64,54,0
0,60,0,1
0,42,0,3
0,60,53,2
0,72,0,22
0,76,0,2
0,79,0,4
0,55,0,39
0,64,0,1
0,60,0,1
0,72,0,0
0,43,0,1
0,76,70,2
0,36,108,1
0,72,68,0
0,79,74,0
0,35,100,1
0,46,64,0
0,48,111,0
0,55,69,0
0,35,0,4
0,46,0,0
0,60,65,3
0,64,65,7
0,72,65,8
0,76,0,18
0,72,0,9
0,79,0,2
0,72,70,44
0,79,76,2
0,76,70,1
0,64,0,5
0,48,0,2
0,60,0,3
0,64,49,0
0,60,52,5
0,76,0,32
0,72,0,6
0,79,0,1
0,55,0,31
0,36,0,6
0,55,64,0
0,60,0,1
0,79,72,0
0,84,110,1
0,40,107,1
0,42,107,0
0,72,64,0
0,76,70,2
0,60,63,1
0,40,0,1
0,42,0,0
0,64,0,0
0,64,59,5
0,72,0,2
0,72,62,5
0,72,0,31
0,79,0,3
0,76,0,1
0,72,66,46
0,76,70,0
0,79,70,0
0,64,0,5
0,84,0,0
0,64,51,5
0,60,0,2
0,81,108,0
0,40,93,3
0,42,74,0
0,60,55,2
0,40,0,2
0,42,0,0
0,72,0,29
0,76,0,3
0,79,0,4
0,55,0,30
0,81,0,4
0,55,61,1
0,60,0,1
0,76,72,1
0,72,68,1
0,35,100,2
0,42,105,0
0,79,70,0
0,60,64,1
0,64,0,1
0,79,112,1
0,35,0,1
0,42,0,0
0,64,61,3
0,72,0,1
0,72,68,5
0,76,0,36
0,72,0,2
0,79,0,4
0,79,70,40
0,72,64,1
0,76,70,0
0,64,0,9
0,60,0,4
0,64,53,1
0,42,76,2
