track,note,velocity,time
1,62,114,2672
1,57,105,0
1,66,101,0
1,59,119,0
1,64,107,152
1,54,107,0
1,57,107,0
1,59,107,0
1,62,101,4
1,62,88,24
1,59,88,8
1,67,88,0
1,64,95,0
1,62,95,32
1,66,83,0
1,58,88,0
1,64,98,0
1,66,92,0
1,57,98,8
1,62,101,0
1,59,101,0
1,54,88,32
1,64,105,0
1,59,114,0
1,57,101,0
1,62,108,60
1,59,76,8
1,67,105,0
1,62,92,0
1,64,98,0
1,66,83,12
1,58,98,0
1,64,101,0
1,62,105,0
1,57,114,32
1,66,105,0
1,62,124,0
1,61,101,0
1,71,108,12
1,69,105,0
1,74,105,0
1,78,90,0
1,71,108,224
1,74,108,0
1,78,92,0
1,69,105,0
1,66,114,408
1,57,108,8
1,62,114,0
1,59,119,0
1,76,119,408
1,59,108,0
1,64,105,0
1,62,108,0
1,55,95,0
1,67,108,0
1,74,95,0
1,71,81,16
1,67,78,0
1,54,98,52
1,74,105,8
1,61,114,0
1,57,101,0
1,73,84,8
1,69,88,64
1,64,86,28
1,57,105,40
1,66,101,0
1,62,114,0
1,73,119,8
1,61,92,0
1,69,114,212
1,78,98,0
1,73,98,0
1,74,101,0
1,78,92,196
1,69,114,8
1,74,108,0
1,73,90,0
1,66,98,376
1,59,108,0
1,62,105,0
1,71,101,0
1,57,108,0
1,55,101,24
1,64,108,0
1,61,105,0
1,59,114,0
1,76,108,96
1,58,105,8
1,62,114,0
1,64,95,0
1,74,95,88
1,71,90,80
1,67,90,48
1,76,108,36
1,74,98,88
1,70,98,72
1,66,98,0
1,66,88,24
1,71,108,0
1,62,101,0
1,67,95,0
1,74,105,44
1,64,95,0
1,70,90,0
1,67,95,4
1,64,95,40
1,73,84,0
1,70,88,0
1,67,95,0
1,76,105,32
1,66,98,8
1,71,105,0
1,69,108,4
1,66,92,52
1,74,108,0
1,71,98,8
1,69,98,0
1,83,108,68
1,78,98,0
1,74,105,0
1,81,105,64
1,76,101,0
1,73,90,0
1,78,92,52
1,74,95,8
1,71,98,4
1,69,101,64
1,73,84,0
1,76,98,0
1,62,98,0
1,66,98,0
1,71,98,0
1,67,98,8
1,74,105,28
1,64,101,4
1,70,98,0
1,67,101,0
1,66,114,592
1,62,124,0
1,71,114,8
1,66,92,8
1,69,108,4
1,64,108,4
1,67,124,0
1,66,105,8
1,59,104,204
1,62,104,0
1,67,105,0
1,64,105,4
1,69,114,64
1,66,98,4
1,64,95,0
1,57,119,0
1,62,114,0
1,66,90,48
1,67,105,0
1,62,101,0
1,71,108,0
1,69,98,28
1,73,90,8
1,71,101,20
1,74,98,0
1,69,95,12
1,73,84,0
1,73,88,64
1,69,114,4
1,66,114,0
1,59,105,0
1,69,108,0
1,62,114,0
1,64,95,52
1,57,90,0
1,69,108,8
1,73,98,0
1,54,78,0
1,61,84,0
1,64,92,24
1,54,77,0
1,69,101,0
1,60,95,0
1,72,98,4
1,57,95,0
1,62,90,52
1,71,105,0
1,69,98,0
1,59,90,0
1,67,90,8
1,55,83,0
1,67,84,104
1,71,90,0
1,69,95,0
1,74,90,0
1,66,98,24
1,69,92,0
1,64,98,0
1,62,92,0
1,74,101,32
1,66,98,0
1,69,105,0
1,64,105,0
1,62,95,44
1,69,98,0
1,55,92,0
1,67,95,0
1,71,95,0
1,74,101,56
1,71,101,0
1,62,98,0
1,67,101,0
1,69,105,0
1,73,92,48
1,64,101,0
1,68,92,0
1,71,105,0
1,61,90,8
1,70,98,80
1,67,101,8
1,74,101,0
1,64,88,4
1,70,114,60
1,67,105,0
1,64,68,12
1,59,101,12
1,69,95,4
1,66,92,0
1,64,95,0
1,62,77,44
1,69,69,48
1,74,108,0
1,62,88,0
1,67,95,24
1,71,95,0
1,62,86,0
1,66,77,0
1,66,90,32
1,67,95,0
1,74,105,0
1,71,114,8
1,73,83,32
1,69,101,0
1,71,105,0
1,76,88,4
1,78,101,8
1,66,88,4
1,62,95,0
1,59,88,4
1,57,84,0
1,69,81,36
1,74,105,192
1,83,108,8
1,74,108,0
1,62,92,8
1,54,90,20
1,81,98,0
1,69,101,8
1,64,98,0
1,57,101,4
1,61,88,0
1,54,90,56
1,64,101,0
1,60,92,4
1,71,101,48
1,69,95,0
1,62,98,0
1,59,98,0
1,74,90,0
1,55,90,0
1,67,98,0
1,69,95,48
1,59,90,8
1,67,98,0
1,71,95,0
1,59,98,80
1,66,101,0
1,62,95,0
1,62,105,12
1,66,92,0
1,69,101,0
1,66,98,56
1,74,119,0
1,69,98,192
1,74,108,120
1,66,84,8
1,69,81,8
1,74,105,48
1,71,92,0
1,55,95,0
1,69,101,0
1,62,98,4
1,67,88,0
1,69,101,80
1,62,98,0
1,67,108,0
1,71,105,0
1,59,105,80
1,62,98,0
1,66,105,0
1,62,101,12
1,64,101,0
1,69,108,0
1,67,108,8
1,57,98,0
1,59,105,4
1,66,92,28
1,57,98,8
1,62,101,0
1,59,101,0
1,54,88,8
1,64,105,0
1,59,114,0
1,57,101,0
1,62,108,60
1,59,76,8
1,67,105,0
1,62,92,0
1,64,98,0
1,66,83,8
1,58,98,0
1,64,101,0
1,62,105,0
1,57,114,32
1,66,105,0
1,62,124,0
1,61,101,0
1,71,108,8
1,69,105,0
1,74,105,0
1,78,90,0
1,71,108,224
1,74,108,0
1,78,92,0
1,69,105,0
1,66,114,408
1,57,108,8
1,62,114,0
1,59,119,0
1,76,119,336
1,59,108,0
1,64,105,0
1,62,108,0
1,55,95,0
1,67,108,0
1,74,95,0
1,71,81,16
1,67,78,0
1,54,98,52
1,74,105,8
1,61,114,0
1,57,101,0
1,73,84,8
1,69,88,64
1,64,86,28
1,57,105,40
1,66,101,0
1,62,114,0
1,73,119,8
1,61,92,0
1,69,114,136
1,78,98,0
1,73,98,0
1,74,101,0
1,78,92,196
1,69,114,8
1,74,108,0
1,73,90,0
1,66,98,376
1,59,108,0
1,62,105,0
1,71,101,0
1,57,108,0
1,55,101,24
1,64,108,0
1,61,105,0
1,59,114,0
1,76,108,96
1,58,105,8
1,62,114,0
1,64,95,0
1,74,95,88
1,71,90,80
1,67,90,48
1,76,108,36
1,74,98,88
1,70,98,72
1,66,98,0
1,66,88,16
1,71,108,0
1,62,101,0
1,67,95,0
1,74,105,44
1,64,95,0
1,70,90,0
1,67,95,4
1,64,95,40
1,73,84,0
1,70,88,0
1,67,95,0
1,76,105,32
1,66,98,8
1,71,105,0
1,69,108,4
1,66,92,52
1,74,108,0
1,71,98,8
1,69,98,0
1,83,108,68
1,78,98,0
1,74,105,0
1,81,105,64
1,76,101,0
1,73,90,0
1,78,92,52
1,74,95,8
1,71,98,4
1,69,101,64
1,73,84,0
1,76,98,0
1,62,98,0
1,66,98,0
1,71,98,0
1,67,98,8
1,74,105,60
1,64,101,4
1,70,98,0
1,67,101,0
1,66,114,592
1,62,124,0
1,71,114,8
1,66,92,8
1,69,108,4
1,64,108,4
1,67,124,0
1,66,105,16
1,59,104,204
1,62,104,0
1,67,105,0
1,64,105,4
1,69,114,64
1,66,98,4
1,64,95,0
1,57,119,0
1,62,114,0
1,66,90,48
1,67,105,0
1,62,101,0
1,71,108,0
1,69,98,28
1,73,90,8
1,71,101,20
1,74,98,0
1,69,95,12
1,73,84,0
1,73,88,64
1,69,114,4
1,66,114,0
1,59,105,0
1,69,108,0
1,62,114,0
1,64,95,52
1,57,90,0
1,69,108,8
1,73,98,0
1,54,78,0
1,61,84,0
1,64,92,24
1,54,77,0
1,69,101,0
1,60,95,0
1,72,98,4
1,57,95,0
1,62,90,52
1,71,105,0
1,69,98,0
1,59,90,0
1,67,90,8
1,55,83,0
1,67,84,104
1,71,90,0
1,69,95,0
1,74,90,0
1,66,98,24
1,69,92,0
1,64,98,0
1,62,92,0
1,74,101,32
1,66,98,0
1,69,105,0
1,64,105,0
1,62,95,44
1,69,98,0
1,55,92,0
1,67,95,0
1,71,95,0
1,74,101,56
1,71,101,0
1,62,98,0
1,67,101,0
1,69,105,0
1,73,92,48
1,64,101,0
1,68,92,0
1,71,105,0
1,61,90,8
1,70,98,80
1,67,101,8
1,74,101,0
1,64,88,4
1,70,114,60
1,67,105,0
1,64,68,12
1,59,101,12
1,69,95,4
1,66,92,0
1,64,95,0
1,62,77,64
1,69,69,48
1,74,108,0
1,62,88,0
1,67,95,24
1,71,95,0
1,62,86,0
1,66,77,0
1,66,90,32
1,67,95,0
1,74,105,0
1,71,114,8
1,73,83,32
1,69,101,0
1,71,105,0
1,76,88,4
1,78,101,8
1,66,88,4
1,62,95,0
1,59,88,4
1,57,84,0
1,69,81,36
1,74,105,192
1,83,108,8
1,74,108,0
1,62,92,8
1,54,90,20
1,81,98,0
1,69,101,8
1,64,98,0
1,57,101,4
1,61,88,0
1,54,90,56
1,64,101,0
1,60,92,4
1,71,101,48
1,69,95,0
1,62,98,0
1,59,98,0
1,74,90,0
1,55,90,0
1,67,98,0
1,69,95,48
1,59,90,8
1,67,98,0
1,71,95,0
1,59,98,80
1,66,101,0
1,62,95,0
1,62,105,12
1,66,92,0
1,69,101,0
1,66,98,56
1,74,119,0
1,69,98,192
1,74,108,120
1,66,84,8
1,69,81,8
1,74,105,48
1,71,92,0
1,55,95,0
1,69,101,0
1,62,98,4
1,67,88,0
1,69,101,80
1,62,98,0
1,67,108,0
1,71,105,0
1,59,105,80
1,62,98,0
1,66,105,0
1,62,101,12
1,64,101,0
1,69,108,0
1,67,108,8
1,57,98,0
1,59,105,4
1,59,95,28
1,66,98,0
1,57,119,0
1,62,114,0
1,66,90,48
1,67,105,0
1,62,101,0
1,71,108,0
1,69,98,28
1,73,90,8
1,71,101,20
1,74,98,0
1,69,95,12
1,73,84,0
1,73,88,64
1,69,114,4
1,66,114,0
1,59,105,0
1,69,108,0
1,62,114,0
1,64,95,52
1,57,90,0
1,69,108,8
1,73,98,0
1,54,78,0
1,61,84,0
1,64,92,24
1,54,77,0
1,69,101,0
1,60,95,0
1,72,98,4
1,57,95,0
1,62,90,52
1,71,105,0
1,69,98,0
1,59,90,0
1,67,90,8
1,55,83,0
1,67,84,104
1,71,90,0
1,69,95,0
1,74,90,0
1,66,98,24
1,69,92,0
1,64,98,0
1,62,92,0
1,74,101,32
1,66,98,0
1,69,105,0
1,64,105,0
1,62,95,44
1,69,98,0
1,55,92,0
1,67,95,0
1,71,95,0
1,74,101,56
1,71,101,0
1,62,98,0
1,67,101,0
1,69,105,0
1,73,92,48
1,64,101,0
1,68,92,0
1,71,105,0
1,61,90,8
1,70,98,80
1,67,101,8
1,74,101,0
1,64,88,4
1,70,114,60
1,67,105,0
1,64,68,12
1,59,101,12
1,69,95,4
1,66,92,0
1,64,95,0
1,62,77,8
1,69,69,48
1,74,108,0
1,62,88,0
1,67,95,24
1,71,95,0
1,62,86,0
1,66,77,0
1,66,90,32
1,67,95,0
1,74,105,0
1,71,114,8
1,73,83,32
1,69,101,0
1,71,105,0
1,76,88,4
1,78,101,8
1,66,88,4
1,62,95,0
1,59,88,4
1,57,84,0
1,69,81,36
1,74,105,192
1,83,108,8
1,74,108,0
1,62,92,8
1,54,90,20
1,81,98,0
1,69,101,8
1,64,98,0
1,57,101,4
1,61,88,0
1,54,90,56
1,64,101,0
1,60,92,4
1,71,101,48
1,69,95,0
1,62,98,0
1,59,98,0
1,74,90,0
1,55,90,0
1,67,98,0
1,69,95,48
1,59,90,8
1,67,98,0
1,71,95,0
1,59,98,80
1,66,101,0
1,62,95,0
1,62,105,12
1,66,92,0
1,69,101,0
1,66,98,56
1,74,119,0
1,69,98,192
1,74,108,120
1,66,84,8
1,69,81,8
1,74,105,48
1,71,92,0
1,55,95,0
1,69,101,0
1,62,98,4
1,67,88,0
1,69,101,80
1,62,98,0
1,67,108,0
1,71,105,0
1,59,105,80
1,62,98,0
1,66,105,0
1,62,101,12
1,64,101,0
1,69,108,0
1,67,108,8
1,57,98,0
1,59,105,4
1,59,95,28
1,66,98,0
1,57,119,0
1,62,114,0
1,66,90,48
1,67,105,0
1,62,101,0
1,71,108,0
1,69,98,28
1,73,90,8
1,71,101,20
1,74,98,0
1,69,95,12
1,73,84,0
1,73,88,64
1,69,114,4
1,66,114,0
1,59,105,0
1,69,108,0
1,62,114,0
1,64,95,52
1,57,90,0
1,69,108,8
1,73,98,0
1,54,78,0
1,61,84,0
1,64,92,24
1,54,77,0
1,69,101,0
1,60,95,0
1,72,98,4
1,57,95,0
1,62,90,52
1,71,105,0
1,69,98,0
1,59,90,0
1,67,90,8
1,55,83,0
1,67,84,104
1,71,90,0
1,69,95,0
1,74,90,0
1,66,98,24
1,69,92,0
1,64,98,0
1,62,92,0
1,74,101,32
1,66,98,0
1,69,105,0
1,64,105,0
1,62,95,44
1,69,98,0
1,55,92,0
1,67,95,0
1,71,95,0
1,74,101,56
1,71,101,0
1,62,98,0
1,67,101,0
1,69,105,0
1,73,92,48
1,64,101,0
1,68,92,0
1,71,105,0
1,61,90,8
1,70,98,80
1,67,101,8
1,74,101,0
1,64,88,4
1,70,114,60
1,67,105,0
1,64,68,12
1,59,101,12
1,69,95,4
1,66,92,0
1,64,95,0
1,62,77,44
1,69,69,48
1,74,108,0
1,62,88,0
1,67,95,24
1,71,95,0
1,62,86,0
1,66,77,0
1,66,90,32
1,67,95,0
1,74,105,0
1,71,114,8
1,73,83,32
1,69,101,0
1,71,105,0
1,76,88,4
1,78,101,8
1,66,88,4
1,62,95,0
1,59,88,4
1,57,84,0
1,69,81,36
1,74,105,192
1,83,108,8
1,74,108,0
1,62,92,8
1,54,90,20
1,81,98,0
1,69,101,8
1,64,98,0
1,57,101,4
1,61,88,0
1,54,90,56
1,64,101,0
1,60,92,4
1,71,101,48
1,69,95,0
1,62,98,0
1,59,98,0
1,74,90,0
1,55,90,0
1,67,98,0
1,69,88,48
1,59,83,8
1,67,90,0
1,71,88,0
1,59,83,80
1,66,85,0
1,62,80,0
1,62,83,12
1,66,73,0
1,69,80,0
1,66,66,56
1,74,79,0
1,69,63,192
1,74,66,120
1,66,52,8
1,69,49,8
1,74,58,48
1,71,51,0
1,55,53,0
1,69,56,0
1,62,54,4
1,67,49,0
1,69,48,80
1,62,46,0
1,67,51,0
1,71,49,0
1,59,41,80
1,62,39,0
1,66,41,0
1,62,34,12
1,64,34,0
1,69,36,0
1,67,35,8
1,57,32,0
1,59,34,4
2,35,127,2656
2,35,113,72
2,30,98,220
2,35,116,20
2,35,109,60
2,30,106,224
2,35,122,36
2,35,116,52
2,30,106,216
2,35,113,68
2,37,100,44
2,38,113,196
2,33,113,16
2,31,113,4
2,31,109,56
2,26,109,212
2,31,109,28
2,31,98,60
2,26,113,192
2,28,116,24
2,28,127,36
2,28,116,180
2,29,109,36
2,30,100,40
2,33,122,8
2,38,113,36
2,35,116,24
2,35,122,64
2,30,106,212
2,35,122,16
2,35,116,52
2,30,106,224
2,35,122,52
2,35,103,72
2,30,106,216
2,35,109,76
2,37,109,20
2,38,103,192
2,33,103,36
2,31,106,16
2,31,106,44
2,26,100,200
2,31,127,20
2,31,113,56
2,26,113,200
2,28,116,24
2,28,116,48
2,28,122,136
2,29,113,20
2,30,109,16
2,33,122,12
2,38,109,52
2,35,116,4
2,35,127,72
2,30,109,228
2,35,116,12
2,35,116,56
2,30,106,236
2,35,122,52
2,35,106,60
2,30,96,228
2,35,122,48
2,37,106,24
2,38,109,4
2,33,113,28
2,31,109,20
2,31,122,40
2,26,106,216
2,31,116,36
2,31,94,64
2,26,109,180
2,31,116,48
2,31,109,56
2,31,122,176
2,33,122,192
2,33,122,76
2,30,106,12
2,33,122,16
2,35,127,196
2,35,127,36
2,30,113,216
2,35,127,12
2,35,116,56
2,30,106,188
2,35,122,36
2,35,116,76
2,30,100,228
2,35,113,48
2,37,106,32
2,38,113,196
2,33,116,20
2,31,103,8
2,31,122,76
2,26,103,240
2,31,113,24
2,31,127,72
2,26,106,176
2,28,113,44
2,28,116,60
2,28,122,212
2,30,106,72
