track,note,velocity,time
0,42,55,352
0,42,0,10
0,42,40,182
0,42,0,10
0,42,42,182
0,42,0,10
0,42,40,182
0,42,0,10
0,55,90,165
0,60,90,0
0,64,90,0
0,79,82,12
0,55,89,6
0,60,89,0
0,64,89,0
0,60,72,1
0,64,86,0
0,79,85,1
0,55,89,133
0,60,80,0
0,64,76,0
0,55,76,5
0,60,80,0
0,64,72,0
0,79,82,6
0,55,89,5
0,60,93,0
0,64,85,0
0,67,86,1
0,79,85,1
0,55,89,136
0,60,80,0
0,64,80,0
0,55,85,5
0,60,85,0
0,64,80,0
0,55,0,21
0,60,0,0
0,64,0,0
0,55,90,2
0,59,90,0
0,62,90,0
0,64,0,11
0,60,0,1
0,67,0,0
0,59,89,5
0,62,89,0
0,67,89,0
0,59,72,1
0,62,86,0
0,79,82,4
0,59,89,6
0,62,80,0
0,67,76,0
0,79,85,2
0,59,76,5
0,62,80,0
0,67,72,0
0,81,82,1
0,59,89,5
0,62,93,0
0,67,85,0
0,67,86,1
0,81,85,1
0,83,82,1
0,59,89,6
0,62,80,0
0,67,80,0
0,83,85,2
0,59,85,5
0,62,85,0
0,67,80,0
0,55,0,21
0,59,0,0
0,62,0,0
0,57,90,2
0,60,90,0
0,64,90,0
0,62,0,1
0,84,82,0
0,67,0,1
0,59,0,3
0,60,89,2
0,64,89,0
0,67,89,0
0,60,72,1
0,64,86,0
0,84,85,1
0,60,89,133
0,64,80,0
0,67,76,0
0,60,76,5
0,64,80,0
0,67,72,0
0,88,82,1
0,60,89,5
0,64,93,0
0,69,85,0
0,69,86,1
0,88,85,1
0,60,89,136
0,64,80,0
0,69,80,0
0,60,85,5
0,64,85,0
0,69,80,0
0,57,0,21
0,60,0,0
0,64,0,0
0,57,90,2
0,60,90,0
0,65,90,0
0,64,0,1
0,69,0,0
0,60,0,1
0,60,89,3
0,65,89,0
0,69,89,0
0,65,72,1
0,69,86,0
0,88,82,4
0,60,89,6
0,65,80,0
0,69,76,0
0,88,85,2
0,60,76,5
0,65,80,0
0,69,72,0
0,86,82,1
0,60,89,5
0,65,93,0
0,69,85,0
0,86,85,2
0,84,82,1
0,60,89,6
0,65,80,0
0,69,80,0
0,84,85,2
0,60,54,5
0,65,55,0
0,69,45,0
0,57,0,21
0,60,0,0
0,65,0,0
0,55,90,2
0,60,90,0
0,64,90,0
0,69,0,3
0,65,0,1
0,84,82,0
0,60,89,5
0,64,89,0
0,67,89,0
0,60,72,1
0,64,86,0
0,84,85,1
0,60,89,133
0,64,80,0
0,67,76,0
0,60,76,5
0,64,80,0
0,67,72,0
0,79,82,1
0,60,0,3
0,60,89,2
0,64,93,0
0,67,85,0
0,67,86,1
0,79,85,1
0,60,89,136
0,64,80,0
0,67,80,0
0,60,85,5
0,64,85,0
0,67,80,0
0,55,0,21
0,60,0,0
0,64,0,0
0,55,90,2
0,59,90,0
0,62,90,0
0,67,0,3
0,79,82,0
0,64,0,4
0,59,89,1
0,62,89,0
0,67,89,0
0,59,72,1
0,62,85,0
0,79,85,1
0,59,89,133
0,62,80,0
0,67,76,0
0,59,76,5
0,62,80,0
0,67,72,0
0,59,89,5
0,62,93,0
0,67,85,0
0,67,85,1
0,81,82,1
0,59,89,6
0,62,80,0
0,67,80,0
0,81,85,2
0,59,85,5
0,62,85,0
0,67,80,0
0,59,0,10
0,60,90,13
0,59,0,4
0,62,0,5
0,67,0,0
0,79,82,1
0,60,89,5
0,62,89,0
0,67,89,0
0,60,72,1
0,62,72,0
0,67,85,0
0,79,85,1
0,60,89,133
0,62,80,0
0,67,76,0
0,60,76,5
0,62,80,0
0,67,72,0
0,44,61,4
0,60,89,1
0,62,93,0
0,67,85,0
0,44,0,9
0,60,89,136
0,62,80,0
0,67,80,0
0,60,85,5
0,62,85,0
0,67,80,0
0,60,0,10
0,59,90,13
0,62,0,1
0,60,0,1
0,67,0,3
0,44,59,1
0,59,82,1
0,62,82,0
0,67,82,0
0,59,72,1
0,62,72,0
0,67,83,0
0,44,0,8
0,59,68,133
0,62,68,0
0,67,68,0
0,59,61,5
0,62,61,0
0,67,61,0
0,44,57,4
0,59,53,1
0,62,53,0
0,67,53,0
0,44,0,9
0,59,39,136
0,62,39,0
0,67,39,0
0,60,109,1
0,59,32,4
0,62,32,0
0,67,32,0
0,55,0,7
0,59,0,0
0,62,0,0
0,55,90,13
0,60,90,0
0,64,90,0
0,59,0,7
0,62,0,0
0,60,114,1
0,67,0,2
0,44,55,1
0,55,89,1
0,60,89,0
0,64,89,0
0,44,0,9
0,60,113,28
0,60,111,28
0,55,89,4
0,60,80,0
0,64,76,0
0,55,76,5
0,60,80,0
0,64,72,0
0,60,113,1
0,44,55,3
0,55,89,1
0,60,93,0
0,64,85,0
0,44,0,9
0,62,113,94
0,55,89,4
0,60,80,0
0,64,80,0
0,64,111,1
0,55,82,4
0,60,83,0
0,64,80,0
0,44,51,40
0,44,0,10
0,64,109,11
0,44,59,198
0,44,0,10
0,60,115,269
0,55,0,13
0,60,0,0
0,64,0,0
0,57,90,2
0,60,90,0
0,64,90,0
0,60,109,9
0,44,59,4
0,57,89,1
0,60,89,0
0,64,89,0
0,44,0,9
0,60,104,25
0,60,111,26
0,57,89,10
0,60,80,0
0,64,76,0
0,57,76,5
0,60,80,0
0,64,72,0
0,44,56,4
0,57,89,1
0,60,93,0
0,64,85,0
0,44,0,9
0,60,109,24
0,62,109,9
0,57,89,49
0,60,80,0
0,64,80,0
0,60,116,6
0,57,85,5
0,60,85,0
0,64,80,0
0,57,106,1
0,44,58,40
0,44,0,10
0,44,59,362
0,44,0,10
0,64,111,172
0,64,109,16
0,57,0,13
0,60,0,0
0,64,0,0
0,57,90,2
0,60,90,0
0,65,90,0
0,65,111,15
0,44,56,2
0,57,89,1
0,60,89,0
0,65,89,0
0,44,0,9
0,65,115,12
0,65,118,21
0,57,89,5
0,60,80,0
0,65,76,0
0,57,76,5
0,60,80,0
0,65,72,0
0,65,118,0
0,44,58,2
0,57,89,1
0,60,93,0
0,65,85,0
0,44,0,9
0,64,113,36
0,64,0,76
0,64,109,20
0,57,89,4
0,60,80,0
0,65,80,0
0,64,0,16
0,64,109,1
0,57,85,4
0,60,85,0
0,65,80,0
0,64,0,13
0,64,116,24
0,44,57,3
0,44,0,10
0,64,0,65
0,62,111,18
0,62,0,79
0,60,111,17
0,60,0,72
0,60,107,24
0,44,57,99
0,44,0,10
0,60,0,1
0,60,112,178
0,62,113,1
0,57,0,80
0,60,0,0
0,65,0,0
0,55,90,2
0,60,90,0
0,64,90,0
0,64,114,1
0,44,54,3
0,55,84,1
0,60,87,0
0,64,89,0
0,44,0,9
0,64,110,78
0,55,89,4
0,60,80,0
0,64,76,0
0,64,107,1
0,55,76,4
0,60,80,0
0,64,72,0
0,64,113,1
0,44,55,3
0,55,89,1
0,60,93,0
0,64,85,0
0,44,0,9
0,62,112,1
0,60,109,1
0,55,89,4
0,60,80,0
0,64,80,0
0,62,109,1
0,55,85,4
0,60,85,0
0,64,80,0
0,55,0,21
0,60,0,0
0,64,0,0
0,55,90,2
0,59,90,0
0,62,90,0
0,44,53,4
0,55,82,1
0,59,82,0
0,62,82,0
0,44,0,9
0,55,68,95
0,59,68,0
0,62,68,0
0,55,61,5
0,59,61,0
0,62,61,0
0,44,53,4
0,55,53,1
0,59,53,0
0,62,53,0
0,44,0,9
0,55,39,136
0,59,39,0
0,62,39,0
0,67,114,1
0,55,32,4
0,59,32,0
0,62,32,0
0,55,0,18
0,59,0,0
0,62,0,0
0,55,82,5
0,60,82,0
0,64,82,0
0,48,99,13
0,74,113,1
0,35,108,3
0,42,73,0
0,49,75,0
0,36,101,2
0,35,0,8
0,42,0,0
0,49,0,0
0,36,0,7
0,48,93,38
0,42,59,4
0,36,98,2
0,42,0,8
0,36,0,12
0,52,81,31
0,72,111,1
0,35,106,3
0,38,102,0
0,42,72,0
0,36,101,2
0,35,0,8
0,38,0,0
0,42,0,0
0,36,0,12
0,53,93,39
0,42,62,4
0,36,98,2
0,42,0,8
0,36,0,12
0,55,89,30
0,72,113,1
0,35,108,3
0,42,73,0
0,36,101,2
0,35,0,8
0,42,0,0
0,36,0,8
0,53,89,38
0,42,57,4
0,36,98,2
0,42,0,8
0,36,0,6
0,52,81,31
0,71,109,1
0,35,106,3
0,38,102,0
0,42,73,0
0,36,101,2
0,35,0,8
0,38,0,0
0,42,0,0
0,36,0,6
0,48,89,16
0,74,115,1
0,42,59,3
0,36,98,2
0,42,0,8
0,36,0,2
0,48,94,36
0,35,108,4
0,42,73,0
0,36,101,2
0,35,0,8
0,42,0,0
0,36,0,15
0,48,94,32
0,72,117,1
0,42,59,3
0,36,98,2
0,42,0,8
0,36,0,7
0,52,85,37
0,35,106,4
0,38,102,0
0,42,72,0
0,36,101,2
0,35,0,8
0,38,0,0
0,42,0,0
0,36,0,12
0,53,85,30
0,42,62,4
0,35,98,2
0,42,0,8
0,35,0,9
0,55,90,40
0,35,108,4
0,42,73,0
0,36,101,2
0,35,0,8
0,42,0,0
0,36,0,9
0,53,89,33
0,42,57,4
0,35,98,2
0,42,0,8
0,35,0,6
0,52,85,37
0,76,114,1
0,35,106,3
0,38,102,0
0,42,73,0
0,36,101,2
0,35,0,8
0,38,0,0
0,42,0,0
0,36,0,16
0,48,85,21
0,76,115,1
0,42,72,3
0,35,98,2
0,42,0,8
0,42,66,38
0,35,0,9
0,42,0,1
0,55,0,10
0,60,0,0
0,64,0,0
0,57,82,2
0,60,82,0
0,64,82,0
0,45,88,13
0,76,115,1
0,35,108,3
0,42,73,0
0,33,101,2
0,35,0,8
0,42,0,0
0,33,0,12
0,45,85,8
0,72,113,1
0,42,59,3
0,33,98,2
0,42,0,8
0,33,0,6
0,48,85,36
0,35,106,4
0,38,102,0
0,42,72,0
0,33,101,2
0,35,0,8
0,38,0,0
0,42,0,0
0,33,0,3
0,50,89,36
0,42,62,4
0,33,98,2
0,42,0,8
0,33,0,15
0,52,85,35
0,72,110,1
0,35,108,3
0,42,73,0
0,33,101,2
0,35,0,8
0,42,0,0
0,33,0,7
0,50,93,37
0,42,57,4
0,33,98,2
0,42,0,8
0,33,0,5
0,48,81,30
0,74,111,1
0,35,106,3
0,38,102,0
0,42,73,0
0,33,101,2
0,35,0,8
0,38,0,0
0,42,0,0
0,33,0,10
0,45,93,38
0,72,115,1
0,42,59,3
0,33,98,2
0,42,0,8
0,33,0,6
0,45,65,37
0,69,109,1
0,35,108,3
0,42,73,0
0,33,101,2
0,35,0,8
0,42,0,0
0,33,0,17
0,45,88,33
0,42,59,4
0,33,98,2
0,42,0,8
0,33,0,12
0,48,88,10
0,35,106,4
0,38,102,0
0,42,72,0
0,33,101,2
0,35,0,8
0,38,0,0
0,42,0,0
0,33,0,16
0,50,90,35
0,42,62,4
0,31,98,2
0,42,0,8
0,31,0,11
0,52,92,41
0,35,108,4
0,42,73,0
0,33,101,2
0,35,0,8
0,42,0,0
0,33,0,11
0,50,85,34
0,42,57,4
0,31,98,2
0,42,0,8
0,31,0,6
0,48,85,40
0,35,106,4
0,38,102,0
0,42,73,0
0,33,101,2
0,35,0,8
0,38,0,0
0,42,0,0
0,33,0,13
0,45,85,35
0,76,111,1
0,46,61,3
0,31,98,2
0,46,0,8
0,31,0,4
0,57,0,4
0,60,0,0
0,64,0,0
0,57,82,2
0,60,82,0
0,65,82,0
0,41,99,13
0,76,115,1
0,35,108,3
0,42,73,0
0,29,101,2
0,35,0,8
0,42,0,0
0,29,0,6
0,41,93,27
0,76,109,1
0,42,59,3
0,29,98,2
0,42,0,8
0,29,0,11
0,45,81,35
0,35,106,4
0,38,102,0
0,42,72,0
0,29,101,2
0,35,0,8
0,38,0,0
0,42,0,0
0,29,0,16
0,47,93,35
0,76,111,1
0,42,62,3
0,29,98,2
0,42,0,8
0,29,0,17
0,48,89,35
0,35,108,4
0,42,73,0
0,29,100,2
0,35,0,8
0,42,0,0
0,29,0,11
0,47,89,35
0,76,113,1
0,42,57,3
0,29,98,2
0,42,0,8
0,29,0,4
0,45,81,38
0,35,106,4
0,38,102,0
0,42,73,0
0,29,101,2
0,35,0,8
0,38,0,0
0,42,0,0
0,29,0,9
0,41,89,31
0,76,111,1
0,42,59,3
0,29,98,2
0,42,0,8
0,29,0,47
0,41,85,27
0,76,115,1
0,35,108,3
0,42,73,0
0,29,101,2
0,35,0,8
0,42,0,0
0,29,0,16
0,41,94,3
0,74,111,1
0,42,59,3
0,29,98,2
0,42,0,8
0,29,0,7
0,45,85,37
0,72,107,1
0,35,106,3
0,38,102,0
0,42,72,0
0,29,101,2
0,35,0,8
0,38,0,0
0,42,0,0
0,29,0,13
0,47,85,17
0,72,109,1
0,42,62,3
0,29,98,2
0,42,0,8
0,29,0,13
0,48,90,36
0,35,108,4
0,42,73,0
0,29,101,2
0,35,0,8
0,42,0,0
0,29,0,5
0,47,89,27
0,72,113,1
0,42,57,3
0,29,98,2
0,42,0,8
0,29,0,6
0,45,85,33
0,72,113,1
0,35,106,3
0,38,102,0
0,42,73,0
0,29,101,2
0,35,0,8
0,38,0,0
0,42,0,0
0,29,0,10
0,41,85,6
0,74,116,1
0,42,62,3
0,29,98,2
0,42,0,8
0,42,54,38
0,29,0,7
0,42,0,1
0,57,0,19
0,60,0,0
0,65,0,0
0,55,82,2
0,60,82,0
0,64,82,0
0,48,99,13
0,76,114,1
0,35,108,3
0,42,73,0
0,36,101,2
0,35,0,8
0,42,0,0
0,36,0,11
0,48,93,34
0,42,59,4
0,36,98,2
0,42,0,8
0,36,0,8
0,52,81,35
0,79,111,1
0,35,106,3
0,38,102,0
0,42,72,0
0,36,101,2
0,35,0,8
0,38,0,0
0,42,0,0
0,36,0,11
0,53,93,22
0,79,113,1
0,42,62,3
0,36,98,2
0,42,0,8
0,36,0,17
0,55,89,7
0,76,117,1
0,35,108,3
0,42,73,0
0,36,101,2
0,35,0,8
0,42,0,0
0,36,0,12
0,53,89,6
0,74,110,1
0,42,57,2
0,36,98,0
0,42,0,4
0,36,0,6
0,52,81,2
0,72,111,1
0,35,106,3
0,38,102,0
0,42,73,0
0,36,101,2
0,35,0,8
0,38,0,0
0,42,0,0
0,36,0,13
0,48,94,6
0,48,89,0
0,42,59,2
0,36,98,0
0,42,0,4
0,36,0,17
0,55,0,12
0,60,0,0
0,64,0,0
0,55,82,2
0,59,82,0
0,62,82,0
0,74,116,1
0,35,108,3
0,42,73,0
0,50,81,0
0,31,101,2
0,43,88,0
0,50,83,0
0,55,74,0
0,35,0,8
0,42,0,0
0,50,0,0
0,31,0,46
0,42,59,40
0,47,78,0
0,31,98,2
0,43,74,0
0,50,78,0
0,55,65,0
0,42,0,8
0,47,0,0
0,47,73,38
0,31,0,9
0,47,0,1
0,35,106,38
0,38,102,0
0,42,72,0
0,47,83,0
0,31,101,2
0,43,74,0
0,50,74,0
0,55,61,0
0,35,0,7
0,38,0,0
0,42,0,0
0,47,0,0
0,31,0,49
0,76,117,34
0,43,80,0
0,46,61,0
0,31,98,2
0,43,74,0
0,50,65,0
0,55,70,0
0,76,106,2
0,43,0,6
0,46,0,0
0,43,75,38
0,31,0,8
0,43,0,2
0,76,0,5
0,55,0,11
0,59,0,0
0,62,0,0
0,76,119,8
0,35,108,3
0,42,73,0
0,43,85,0
0,31,101,2
0,43,74,0
0,50,83,0
0,55,74,0
0,76,111,2
0,35,0,6
0,42,0,0
0,43,0,0
0,31,0,52
0,76,0,1
0,76,117,10
0,76,103,7
0,76,0,74
0,74,113,4
0,35,108,3
0,44,68,0
0,74,106,4
0,35,0,6
0,44,0,0
0,76,113,6
0,69,32,4
0,74,0,2
0,76,109,1
0,69,0,7
0,55,105,16
0,60,117,22
0,69,23,0
0,69,0,10
0,64,116,19
0,55,82,1
0,60,82,0
0,64,82,0
0,35,108,17
0,42,73,0
0,49,75,0
0,69,38,1
0,36,101,1
0,48,87,0
0,55,82,0
0,35,0,8
