track,note,velocity,time
1,62,115,1880
1,62,115,4
1,67,115,4
1,69,115,4
1,71,115,4
1,71,115,244
1,71,115,4
1,71,115,4
1,72,115,4
1,69,115,4
1,67,115,4
1,69,115,4
1,65,115,484
1,65,115,4
1,70,115,4
1,72,115,4
1,74,115,4
1,74,115,244
1,74,115,4
1,74,115,4
1,75,115,4
1,72,115,4
1,70,115,4
1,72,115,4
1,56,115,484
1,61,115,4
1,65,115,4
1,65,115,4
1,65,115,4
1,65,115,4
1,65,115,4
1,65,115,4
1,66,115,4
1,65,115,4
1,65,115,4
1,66,115,4
1,61,115,4
1,63,115,1204
1,65,115,4
1,66,115,4
1,68,115,4
1,68,115,4
1,68,115,4
1,73,115,4
1,74,115,4
1,69,115,0
1,64,115,4
1,69,115,484
1,69,115,4
1,71,115,4
1,76,115,4
1,72,115,4
1,73,115,4
1,73,115,4
1,73,115,0
1,73,115,4
1,74,115,4
1,71,115,4
1,69,115,4
1,71,115,4
1,73,115,4
1,69,115,4
1,64,115,4
1,76,115,4
1,62,115,244
1,62,115,4
1,62,115,4
1,67,115,4
1,69,115,4
1,71,115,4
1,71,115,244
1,71,115,4
1,71,115,4
1,72,115,4
1,69,115,4
1,67,115,4
1,69,115,4
1,65,115,484
1,65,115,4
1,70,115,4
1,72,115,4
1,74,115,4
1,74,115,244
1,74,115,4
1,74,115,4
1,75,115,4
1,72,115,4
1,70,115,4
1,72,115,4
1,56,115,484
1,61,115,4
1,65,115,4
1,65,115,4
1,65,115,4
1,65,115,4
1,65,115,4
1,65,115,4
1,66,115,4
1,65,115,4
1,65,115,4
1,66,115,4
1,61,115,4
1,63,115,1204
1,65,115,4
1,66,115,4
1,68,115,4
1,68,115,4
1,68,115,4
1,73,115,4
1,74,115,4
1,69,115,0
1,64,115,4
1,69,115,484
1,69,115,4
1,71,115,4
1,76,115,4
1,72,115,4
1,73,115,4
1,73,115,4
1,73,115,0
1,73,115,4
1,74,115,4
1,71,115,4
1,69,115,4
1,71,115,4
1,73,115,4
1,69,115,4
1,64,115,4
1,76,115,4
1,67,115,480
1,72,115,4
1,74,115,4
1,76,115,4
1,77,115,4
1,76,115,4
1,74,115,4
1,72,115,4
1,74,115,4
1,67,115,4
1,67,115,4
1,67,115,484
1,72,115,4
1,74,115,4
1,76,115,4
1,77,115,4
1,76,115,4
1,74,115,4
1,72,115,4
1,79,115,4
1,74,115,4
1,74,115,4
1,58,115,484
1,63,115,4
1,65,115,4
1,67,115,4
1,68,115,4
1,67,115,4
1,65,115,4
1,63,115,4
1,70,115,4
1,65,115,4
1,65,115,4
1,68,115,244
1,73,115,4
1,73,115,4
1,73,115,4
1,73,115,4
1,75,115,4
1,77,115,4
1,67,115,964
1,67,115,4
1,67,115,4
1,67,115,4
1,69,115,4
1,71,115,4
1,62,115,964
1,62,115,4
1,67,115,4
1,69,115,4
1,71,115,4
1,71,115,244
1,71,115,4
1,71,115,4
1,72,115,4
1,69,115,4
1,67,115,4
1,69,115,4
1,65,115,484
1,65,115,4
1,70,115,4
1,72,115,4
1,74,115,4
1,74,115,244
1,74,115,4
1,74,115,4
1,75,115,4
1,72,115,4
1,70,115,4
1,72,115,4
1,56,115,484
1,61,115,4
1,65,115,4
1,65,115,4
1,65,115,4
1,65,115,4
1,65,115,4
1,65,115,4
1,66,115,4
1,65,115,4
1,65,115,4
1,66,115,4
1,61,115,4
1,63,115,1204
1,65,115,4
1,66,115,4
1,68,115,4
1,68,115,4
1,68,115,4
1,73,115,4
1,74,115,4
1,69,115,0
1,64,115,4
1,69,115,484
1,69,115,4
1,71,115,4
1,76,115,4
1,72,115,4
1,73,115,4
1,73,115,4
1,73,115,0
1,73,115,4
1,74,115,4
1,71,115,4
1,69,115,4
1,71,115,4
1,73,115,4
1,69,115,4
1,64,115,4
1,76,115,4
1,81,115,0
1,81,100,8
1,81,77,8
1,81,39,8
2,62,115,1880
2,59,115,0
2,62,115,4
2,67,115,4
2,62,115,0
2,59,115,0
2,69,115,4
2,71,115,4
2,67,115,0
2,62,115,0
2,71,115,4
2,71,115,4
2,71,115,4
2,69,115,0
2,65,115,0
2,72,115,4
2,69,115,4
2,65,115,0
2,60,115,0
2,67,115,4
2,69,115,4
2,60,115,0
2,65,115,0
2,65,115,484
2,62,115,0
2,65,115,4
2,70,115,4
2,65,115,0
2,62,115,0
2,72,115,4
2,74,115,4
2,70,115,0
2,65,115,0
2,74,115,4
2,74,115,4
2,72,115,4
2,68,115,0
2,72,115,4
2,68,115,0
2,63,115,0
2,70,115,4
2,72,115,4
2,68,115,0
2,63,115,0
2,56,115,4
2,61,115,4
2,65,115,4
2,61,115,0
2,56,115,0
2,65,115,4
2,65,115,4
2,61,115,0
2,56,115,0
2,65,115,4
2,65,115,4
2,61,115,0
2,56,115,0
2,65,115,4
2,66,115,4
2,65,115,4
2,65,115,4
2,61,115,0
2,58,115,0
2,66,115,4
2,61,115,4
2,58,115,0
2,63,115,4
2,63,115,4
2,59,115,0
2,65,115,0
2,66,115,4
2,68,115,4
2,65,115,720
2,61,115,0
2,56,115,0
2,65,115,484
2,61,115,0
2,56,115,0
2,66,115,484
2,63,115,0
2,58,115,0
2,68,115,4
2,66,115,0
2,63,115,0
2,68,115,4
2,73,115,4
2,68,115,720
2,65,115,0
2,61,115,0
2,68,115,484
2,65,115,0
2,61,115,0
2,74,115,4
2,68,115,0
2,64,115,0
2,62,115,0
2,64,115,4
2,61,115,480
2,57,115,0
2,69,115,4
2,64,115,0
2,61,115,0
2,69,115,4
2,71,115,4
2,76,115,4
2,69,115,0
2,64,115,0
2,72,115,4
2,73,115,4
2,69,115,0
2,64,115,0
2,73,115,4
2,69,115,0
2,64,115,0
2,73,115,4
2,69,115,0
2,66,115,0
2,74,115,4
2,71,115,4
2,66,115,0
2,62,115,0
2,69,115,4
2,66,115,0
2,62,115,0
2,71,115,4
2,67,115,0
2,62,115,0
2,73,115,4
2,69,115,4
2,62,115,0
2,64,115,4
2,62,115,0
2,76,115,4
2,73,115,0
2,69,115,0
2,64,115,0
2,71,115,4
2,67,115,0
2,71,115,4
2,67,115,0
2,72,115,4
2,69,115,0
2,73,115,4
2,69,115,0
2,64,115,0
2,76,115,0
2,71,115,4
2,67,115,0
2,71,115,4
2,67,115,0
2,72,115,4
2,69,115,0
2,62,115,244
2,62,115,0
2,62,115,4
2,59,115,0
2,62,115,4
2,67,115,4
2,62,115,0
2,59,115,0
2,69,115,4
2,71,115,4
2,67,115,0
2,62,115,0
2,71,115,4
2,71,115,4
2,71,115,4
2,69,115,0
2,65,115,0
2,72,115,4
2,69,115,4
2,65,115,0
2,60,115,0
2,67,115,4
2,69,115,4
2,60,115,0
2,65,115,0
2,65,115,484
2,62,115,0
2,65,115,4
2,70,115,4
2,65,115,0
2,62,115,0
2,72,115,4
2,74,115,4
2,70,115,0
2,65,115,0
2,74,115,4
2,74,115,4
2,72,115,4
2,68,115,0
2,72,115,4
2,68,115,0
2,63,115,0
2,70,115,4
2,72,115,4
2,68,115,0
2,63,115,0
2,56,115,4
2,61,115,4
2,65,115,4
2,61,115,0
2,56,115,0
2,65,115,4
2,65,115,4
2,61,115,0
2,56,115,0
2,65,115,4
2,65,115,4
2,61,115,0
2,56,115,0
2,65,115,4
2,66,115,4
2,65,115,4
2,65,115,4
2,61,115,0
2,58,115,0
2,66,115,4
2,61,115,4
2,58,115,0
2,63,115,4
2,63,115,4
2,59,115,0
2,65,115,0
2,66,115,4
2,68,115,4
2,65,115,720
2,61,115,0
2,56,115,0
2,65,115,484
2,61,115,0
2,56,115,0
2,66,115,484
2,63,115,0
2,58,115,0
2,68,115,4
2,66,115,0
2,63,115,0
2,68,115,4
2,73,115,4
2,68,115,720
2,65,115,0
2,61,115,0
2,68,115,484
2,65,115,0
2,61,115,0
2,74,115,4
2,68,115,0
2,64,115,0
2,62,115,0
2,64,115,4
2,61,115,480
2,57,115,0
2,69,115,4
2,64,115,0
2,61,115,0
2,69,115,4
2,71,115,4
2,76,115,4
2,69,115,0
2,64,115,0
2,72,115,4
2,73,115,4
2,69,115,0
2,64,115,0
2,73,115,4
2,69,115,0
2,64,115,0
2,73,115,4
2,69,115,0
2,66,115,0
2,74,115,4
2,71,115,4
2,66,115,0
2,62,115,0
2,69,115,4
2,66,115,0
2,62,115,0
2,71,115,4
2,67,115,0
2,62,115,0
2,73,115,4
2,69,115,4
2,62,115,0
2,64,115,4
2,62,115,0
2,76,115,4
2,73,115,0
2,69,115,0
2,64,115,0
2,71,115,4
2,67,115,0
2,71,115,4
2,67,115,0
2,72,115,4
2,69,115,0
2,73,115,4
2,69,115,0
2,64,115,0
2,76,115,0
2,71,115,4
2,67,115,0
2,71,115,4
2,67,115,0
2,72,115,4
2,69,115,0
2,67,115,480
2,64,115,0
2,60,115,0
2,72,115,4
2,67,115,0
2,64,115,0
2,74,115,4
2,76,115,4
2,71,115,0
2,67,115,0
2,77,115,4
2,76,115,4
2,74,115,4
2,72,115,4
2,74,115,4
2,72,115,480
2,69,115,0
2,65,115,0
2,67,115,4
2,67,115,4
2,65,115,480
2,60,115,0
2,57,115,0
2,62,115,484
2,59,115,0
2,62,115,484
2,59,115,0
2,67,115,484
2,60,115,0
2,72,115,4
2,67,115,0
2,74,115,4
2,76,115,4
2,67,115,0
2,72,115,0
2,77,115,4
2,76,115,4
2,74,115,4
2,72,115,4
2,79,115,4
2,72,115,480
2,69,115,0
2,74,115,4
2,74,115,4
2,72,115,480
2,69,115,0
2,65,115,0
2,71,115,484
2,67,115,0
2,71,115,484
2,67,115,0
2,58,115,484
2,55,115,0
2,63,115,4
2,58,115,0
2,55,115,0
2,65,115,4
2,67,115,4
2,62,115,0
2,58,115,0
2,68,115,4
2,67,115,4
2,65,115,4
2,63,115,4
2,70,115,4
2,63,115,480
2,60,115,0
2,65,115,4
2,65,115,4
2,60,115,480
2,56,115,0
2,58,115,484
2,56,115,0
2,62,115,484
2,58,115,0
2,68,115,4
2,73,115,4
2,70,115,0
2,66,115,0
2,73,115,4
2,73,115,4
2,73,115,4
2,72,115,4
2,75,115,0
2,68,115,0
2,77,115,4
2,67,115,4
2,62,115,0
2,59,115,0
2,67,115,4
2,67,115,4
2,67,115,4
2,69,115,4
2,65,115,0
2,60,115,0
2,71,115,4
2,67,115,484
2,63,115,0
2,58,115,0
2,62,115,0
2,59,115,0
2,62,115,4
2,67,115,4
2,62,115,0
2,59,115,0
2,69,115,4
2,71,115,4
2,67,115,0
2,62,115,0
2,71,115,4
2,71,115,4
2,71,115,4
2,69,115,0
2,65,115,0
2,72,115,4
2,69,115,4
2,65,115,0
2,60,115,0
2,67,115,4
2,69,115,4
2,60,115,0
2,65,115,0
2,65,115,484
2,62,115,0
2,65,115,4
2,70,115,4
2,65,115,0
2,62,115,0
2,72,115,4
2,74,115,4
2,70,115,0
2,65,115,0
2,74,115,4
2,74,115,4
2,72,115,4
2,68,115,0
2,72,115,4
2,68,115,0
2,63,115,0
2,70,115,4
2,72,115,4
2,68,115,0
2,63,115,0
2,56,115,4
2,61,115,4
2,65,115,4
2,61,115,0
2,56,115,0
2,65,115,4
2,65,115,4
2,61,115,0
2,56,115,0
2,65,115,4
2,65,115,4
2,61,115,0
2,56,115,0
2,65,115,4
2,66,115,4
2,65,115,4
2,65,115,4
2,61,115,0
2,58,115,0
2,66,115,4
2,61,115,4
2,58,115,0
2,63,115,4
2,63,115,4
2,59,115,0
2,65,115,0
2,66,115,4
2,68,115,4
2,65,115,720
2,61,115,0
2,56,115,0
2,65,115,484
2,61,115,0
2,56,115,0
2,66,115,484
2,63,115,0
2,58,115,0
2,68,115,4
2,66,115,0
2,63,115,0
2,68,115,4
2,73,115,4
2,68,115,720
2,65,115,0
2,61,115,0
2,68,115,484
2,65,115,0
2,61,115,0
2,74,115,4
2,68,115,0
2,64,115,0
2,62,115,0
2,64,115,4
2,61,115,480
2,57,115,0
2,69,115,4
2,64,115,0
2,61,115,0
2,69,115,4
2,71,115,4
2,76,115,4
2,69,115,0
2,64,115,0
2,72,115,4
2,73,115,4
2,69,115,0
2,64,115,0
2,73,115,4
2,69,115,0
2,64,115,0
2,73,115,4
2,69,115,0
2,66,115,0
2,74,115,4
2,71,115,4
2,66,115,0
2,62,115,0
2,69,115,4
2,66,115,0
2,62,115,0
2,71,115,4
2,67,115,0
2,62,115,0
2,73,115,4
2,69,115,4
2,62,115,0
2,64,115,4
2,62,115,0
2,76,115,4
2,73,115,0
2,69,115,0
2,64,115,0
2,71,115,4
2,67,115,0
2,71,115,4
2,67,115,0
2,72,115,4
2,69,115,0
2,64,115,4
2,69,115,0
2,73,115,0
2,76,115,0
2,71,115,4
2,67,115,0
2,71,115,4
2,67,115,0
2,72,115,4
2,69,115,0
2,76,115,4
2,73,115,0
2,69,115,0
2,64,115,0
2,71,99,8
2,67,99,0
2,71,93,8
2,67,93,0
2,72,92,8
2,69,92,0
2,64,77,8
2,69,77,0
2,73,77,0
2,76,77,0
2,71,60,8
2,67,60,0
2,71,54,8
2,67,54,0
2,72,53,8
2,69,53,0
2,64,39,8
2,69,39,0
2,73,39,0
2,76,39,0
2,71,22,8
2,67,22,0
2,71,16,8
2,67,16,0
2,72,15,8
2,69,15,0
3,43,115,1880
3,38,115,484
3,43,115,484
3,38,115,4
3,43,115,4
3,41,115,484
3,36,115,484
3,41,115,484
3,36,115,4
3,38,115,4
3,41,115,4
3,46,115,4
3,41,115,484
3,46,115,484
3,41,115,4
3,46,115,4
3,44,115,484
3,39,115,484
3,44,115,484
3,39,115,4
3,44,115,4
3,49,115,484
3,48,115,4
3,47,115,4
3,46,115,4
3,46,115,4
3,39,115,4
3,51,115,4
3,44,115,4
3,49,115,484
3,37,115,0
3,49,115,484
3,37,115,0
3,49,115,484
3,37,115,0
3,49,115,484
3,37,115,0
3,49,115,484
3,37,115,0
3,49,115,484
3,37,115,0
3,49,115,484
3,37,115,0
3,47,115,484
3,40,115,4
3,52,115,4
3,45,115,0
3,52,115,4
3,40,115,0
3,49,115,484
3,45,115,4
3,40,115,4
3,45,115,4
3,50,115,4
3,38,115,0
3,50,115,4
3,38,115,0
3,50,115,4
3,38,115,0
3,43,115,4
3,47,115,4
3,47,115,4
3,45,115,4
3,40,115,4
3,42,115,4
3,45,115,4
3,43,115,4
3,41,115,4
3,36,115,4
3,41,115,4
3,45,115,4
3,40,115,4
3,43,115,4
3,45,115,4
3,43,115,4
3,41,115,4
3,36,115,4
3,41,115,4
3,43,115,4
3,38,115,484
3,43,115,484
3,38,115,4
3,43,115,4
3,41,115,484
3,36,115,484
3,41,115,484
3,36,115,4
3,38,115,4
3,41,115,4
3,46,115,4
3,41,115,484
3,46,115,484
3,41,115,4
3,46,115,4
3,44,115,484
3,39,115,484
3,44,115,484
3,39,115,4
3,44,115,4
3,49,115,484
3,48,115,4
3,47,115,4
3,46,115,4
3,46,115,4
3,39,115,4
3,51,115,4
3,44,115,4
3,49,115,484
3,37,115,0
3,49,115,484
3,37,115,0
3,49,115,484
3,37,115,0
3,49,115,484
3,37,115,0
3,49,115,484
3,37,115,0
3,49,115,484
3,37,115,0
3,49,115,484
3,37,115,0
3,47,115,484
3,40,115,4
3,52,115,4
3,45,115,0
3,52,115,4
3,40,115,0
3,49,115,484
3,45,115,4
3,40,115,4
3,45,115,4
3,50,115,4
3,38,115,0
3,50,115,4
3,38,115,0
3,50,115,4
3,38,115,0
3,43,115,4
3,47,115,4
3,47,115,4
3,45,115,4
3,40,115,4
3,42,115,4
3,45,115,4
3,43,115,4
3,41,115,4
3,36,115,4
3,41,115,4
3,45,115,4
3,40,115,4
3,43,115,4
3,45,115,4
3,43,115,4
3,41,115,4
3,36,115,4
3,41,115,4
3,48,115,4
3,52,115,4
3,40,115,0
3,50,115,4
3,38,115,0
3,41,115,4
3,53,115,4
3,52,115,4
3,48,115,4
3,50,115,4
3,41,115,4
3,53,115,4
3,51,115,4
3,55,115,4
