track,note,velocity,time
1,48,73,3718
1,55,68,0
1,58,77,1
1,62,83,3
1,67,82,1
1,67,0,158
1,62,0,2
1,55,0,5
1,67,88,4
1,48,0,1
1,62,77,1
1,48,83,4
1,55,81,0
1,48,0,46
1,62,0,3
1,67,0,0
1,48,83,6
1,67,87,1
1,62,79,3
1,55,0,71
1,58,0,4
1,48,0,11
1,62,0,7
1,67,0,10
1,57,86,133
1,48,61,0
1,60,93,1
1,53,69,0
1,65,95,2
1,65,0,168
1,65,87,9
1,53,0,51
1,65,0,4
1,60,0,2
1,53,65,3
1,65,85,1
1,60,84,0
1,65,0,81
1,48,0,3
1,60,0,4
1,57,0,2
1,53,0,18
1,55,69,131
1,48,78,0
1,67,79,3
1,62,79,0
1,58,76,0
1,55,0,172
1,58,0,3
1,67,0,1
1,62,0,2
1,67,79,0
1,62,82,2
1,58,77,1
1,55,75,1
1,48,0,50
1,67,0,1
1,62,0,2
1,58,0,1
1,58,84,5
1,67,90,0
1,48,60,0
1,62,82,1
1,62,0,81
1,55,0,2
1,58,0,12
1,67,0,3
1,48,0,0
1,55,27,141
1,67,88,1
1,48,77,0
1,62,68,1
1,58,75,0
1,58,0,160
1,67,0,13
1,67,80,6
1,58,80,3
1,67,0,52
1,48,0,0
1,62,0,1
1,58,0,2
1,48,77,2
1,62,76,8
1,58,66,0
1,67,77,1
1,58,0,80
1,48,0,1
1,62,0,2
1,67,0,6
1,55,0,5
1,48,85,136
1,55,49,0
1,62,86,1
1,58,85,0
1,67,76,1
1,67,0,168
1,48,0,5
1,58,0,1
1,62,0,1
1,67,86,3
1,58,79,1
1,62,86,0
1,48,77,9
1,67,0,45
1,55,0,0
1,62,0,1
1,55,71,5
1,67,84,1
1,62,87,0
1,55,0,54
1,58,0,28
1,48,0,2
1,62,0,2
1,67,0,17
1,53,73,132
1,48,36,0
1,65,87,3
1,60,86,0
1,57,81,0
1,65,0,168
1,53,0,4
1,48,0,0
1,60,0,2
1,60,89,3
1,65,88,0
1,57,0,1
1,57,82,2
1,48,49,1
1,53,69,0
1,53,0,50
1,60,0,1
1,65,0,0
1,53,57,5
1,60,92,2
1,65,83,1
1,65,0,86
1,48,0,8
1,60,0,1
1,57,0,3
1,53,0,17
1,55,69,125
1,48,58,0
1,67,79,1
1,62,82,0
1,58,83,0
1,67,0,168
1,62,0,2
1,55,0,4
1,62,82,2
1,67,83,0
1,55,58,4
1,55,0,49
1,62,0,2
1,67,0,0
1,48,0,3
1,58,0,5
1,55,61,0
1,58,77,1
1,48,70,0
1,67,91,0
1,62,80,1
1,62,0,80
1,58,0,5
1,48,0,4
1,55,0,3
1,67,0,3
1,55,73,142
1,67,88,2
1,48,83,0
1,62,80,1
1,58,83,0
1,67,0,175
1,62,0,1
1,58,0,0
1,67,87,3
1,62,82,0
1,58,79,8
1,55,0,45
1,62,0,2
1,48,0,0
1,67,0,0
1,48,71,5
1,67,79,1
1,62,82,0
1,55,67,0
1,55,0,55
1,48,0,32
1,62,0,3
1,67,0,0
1,58,0,3
1,55,27,142
1,62,80,3
1,58,68,0
1,48,80,0
1,67,84,1
1,67,0,168
1,58,0,1
1,67,86,9
1,58,86,0
1,55,0,48
1,48,0,6
1,67,0,1
1,58,0,0
1,62,0,1
1,55,64,2
1,48,74,0
1,67,89,3
1,62,85,0
1,58,85,0
1,48,0,91
1,55,0,0
1,62,0,8
1,58,0,0
1,67,0,10
1,48,48,127
1,57,86,1
1,53,73,0
1,65,74,3
1,60,87,0
1,65,0,165
1,57,0,8
1,57,63,3
1,65,75,0
1,60,0,53
1,57,0,1
1,65,0,1
1,53,0,1
1,48,0,0
1,57,89,4
1,53,71,0
1,48,83,0
1,60,91,1
1,65,75,2
1,65,0,89
1,48,0,11
1,57,0,2
1,60,0,1
1,53,0,30
1,67,80,108
1,62,77,0
1,58,84,0
1,55,76,0
1,48,56,1
1,67,0,164
1,62,0,3
1,55,0,2
1,58,0,4
1,62,85,2
1,67,83,0
1,55,60,1
1,58,76,0
1,67,0,54
1,62,0,0
1,58,0,2
1,58,86,4
1,67,87,2
1,62,85,0
1,48,0,91
1,62,0,5
1,58,0,2
1,55,0,5
1,67,0,6
1,58,83,132
1,55,74,0
1,48,89,0
1,67,73,1
1,62,87,0
1,67,0,165
1,62,0,3
1,58,0,5
1,55,0,0
1,58,80,3
1,62,83,0
1,67,87,0
1,55,64,3
1,67,0,52
1,62,0,0
1,48,0,3
1,48,78,6
1,67,83,1
1,62,85,0
1,62,0,81
1,55,0,0
1,48,0,2
1,67,0,1
1,58,0,2
1,58,74,152
1,51,74,0
1,63,91,1
1,67,81,0
1,67,0,161
1,63,0,4
1,58,0,8
1,51,0,2
1,67,79,0
1,51,62,1
1,58,66,0
1,63,66,0
1,67,0,54
1,51,0,1
1,58,0,1
1,51,77,4
1,58,75,0
1,67,72,3
1,67,0,84
1,58,0,7
1,51,0,2
1,63,0,2
1,53,86,144
1,60,82,0
1,69,72,2
1,65,73,0
1,69,0,168
1,65,0,2
1,53,0,3
1,69,74,3
1,65,66,2
1,53,77,2
1,69,0,51
1,69,77,9
1,69,0,84
1,65,0,3
1,53,0,2
1,60,0,10
1,65,70,140
1,53,71,0
1,58,72,0
1,62,75,1
1,70,51,1
1,65,0,99
1,70,0,4
1,53,0,3
1,62,0,4
1,58,0,2
1,44,83,845
1,60,83,0
1,56,73,1
1,63,84,0
1,68,81,1
1,51,84,0
1,68,0,171
1,63,0,3
1,51,0,1
1,63,85,5
1,68,86,0
1,51,75,1
1,63,0,54
1,63,76,6
1,68,0,57
1,60,0,0
1,60,87,1
1,68,87,1
1,51,0,42
1,56,0,23
1,44,0,2
1,60,0,32
1,68,0,1
1,63,0,31
1,44,85,44
1,56,82,0
1,68,55,1
1,60,77,3
1,63,73,0
1,51,70,0
1,63,0,164
1,68,0,1
1,51,0,5
1,56,0,1
1,44,0,0
1,63,82,4
1,68,85,0
1,51,78,2
1,44,76,2
1,56,59,0
1,44,0,46
1,68,0,5
1,63,0,0
1,44,83,6
1,68,88,1
1,63,83,0
1,63,0,55
1,68,0,0
1,63,72,5
1,68,86,0
1,51,0,25
1,60,0,3
1,56,0,7
1,44,0,4
1,63,0,31
1,68,0,0
1,68,47,49
1,56,52,1
1,60,52,0
1,63,71,0
1,51,73,3
1,44,55,1
1,68,0,50
1,63,0,1
1,56,0,0
1,68,88,8
1,63,80,0
1,56,35,0
1,68,0,168
1,63,0,2
1,51,0,3
1,60,0,0
1,56,0,3
1,63,82,0
1,68,85,0
1,56,67,1
1,60,74,0
1,51,67,3
1,51,0,49
1,63,0,2
1,68,0,0
1,60,0,1
1,51,79,5
1,68,93,0
1,63,87,2
1,60,79,0
1,68,0,53
1,51,0,1
1,63,0,1
1,68,89,3
1,63,81,3
1,51,67,2
1,51,0,19
1,63,0,10
1,44,0,3
1,60,0,1
1,68,0,0
1,56,0,3
1,63,74,79
1,68,66,0
1,60,67,3
1,51,60,1
1,56,49,0
1,44,45,8
1,68,0,43
1,68,86,9
1,68,0,168
1,63,0,7
1,68,87,1
1,60,0,2
1,60,77,1
1,63,83,0
1,51,0,50
1,68,0,2
1,63,0,3
1,51,77,4
1,63,85,1
1,68,83,0
1,68,0,55
1,63,0,0
1,68,85,2
1,63,83,3
1,44,0,37
1,51,0,1
1,60,0,1
1,56,0,2
1,63,0,3
1,68,0,9
1,67,65,66
1,55,40,3
1,48,69,8
1,60,35,0
1,55,0,36
1,60,0,2
1,67,0,7
1,67,91,2
1,55,82,0
1,63,89,0
1,60,83,3
1,48,0,150
1,67,0,21
1,63,0,1
1,55,0,0
1,60,0,4
1,60,75,1
1,63,83,0
1,67,88,0
1,55,58,3
1,48,58,1
1,67,0,51
1,63,0,0
1,55,0,4
1,55,56,3
1,67,77,2
1,63,85,0
1,67,0,54
1,63,0,2
1,67,87,3
1,63,82,1
1,48,0,29
1,63,0,1
1,55,0,2
1,60,0,2
1,67,0,11
1,67,58,71
1,63,73,2
1,60,57,1
1,48,42,1
1,55,41,0
1,48,0,46
1,67,0,5
1,60,0,1
1,63,0,2
1,60,79,2
1,67,86,0
1,48,76,0
1,63,80,3
1,63,0,168
1,60,0,4
1,67,0,1
1,67,87,3
1,63,83,1
1,60,76,3
1,67,0,51
1,63,0,1
1,67,89,8
1,63,79,0
1,60,0,50
1,67,0,6
1,60,73,5
1,67,85,0
1,55,0,40
1,60,0,4
1,48,0,0
1,67,0,26
1,63,0,9
1,65,55,50
1,65,0,44
1,65,90,5
1,53,73,0
1,48,62,0
1,41,47,0
1,60,89,2
1,57,85,0
1,60,0,165
1,65,0,3
1,48,0,5
1,65,81,2
1,60,85,1
1,48,61,4
1,48,0,40
1,65,0,10
1,41,0,1
1,60,0,0
1,57,0,2
1,48,87,3
1,41,80,0
1,65,54,3
1,60,74,0
1,57,62,0
1,65,0,53
1,57,0,2
1,65,73,4
1,57,84,2
1,41,0,32
1,60,0,0
1,48,0,0
1,53,0,1
1,57,0,11
1,65,0,9
1,65,56,66
1,60,49,1
1,53,58,0
1,57,63,0
1,48,66,1
1,41,47,9
1,41,0,35
1,48,0,0
1,60,0,1
1,57,0,4
1,65,0,4
1,57,83,2
1,41,83,0
1,48,88,2
1,65,74,2
1,60,79,0
1,65,0,168
1,57,0,3
1,60,0,0
1,53,0,5
1,60,88,0
1,65,85,0
1,57,80,3
1,53,57,1
1,65,0,106
1,57,0,3
1,65,77,7
1,57,85,3
1,41,0,38
1,53,0,1
1,48,0,4
1,57,0,7
1,65,0,2
1,60,0,1
1,65,46,64
1,48,64,4
1,53,57,0
1,60,48,0
1,57,60,0
1,41,23,9
1,41,0,38
1,48,0,1
1,60,0,2
1,57,0,0
1,65,0,1
1,57,87,5
1,41,80,0
1,65,86,3
1,48,79,0
1,60,74,1
1,57,0,171
1,48,0,3
1,65,0,1
1,65,88,3
1,48,76,2
1,57,83,0
1,65,0,108
1,57,0,2
1,57,83,8
1,65,83,1
1,48,0,39
1,53,0,2
1,60,0,0
1,41,0,6
1,57,0,36
1,65,0,1
1,65,79,33
1,57,80,3
1,60,89,0
1,48,73,1
1,53,68,0
1,41,49,9
1,48,0,35
1,41,0,3
1,65,0,4
1,60,0,3
1,65,95,5
1,48,85,0
1,41,74,0
1,60,84,1
1,65,0,114
1,65,69,5
1,65,0,55
1,60,0,0
1,57,0,0
1,65,89,2
1,57,71,3
1,60,85,0
1,53,0,52
1,48,0,3
1,53,60,4
1,48,77,0
1,65,0,48
1,57,0,3
1,65,87,10
1,57,87,1
1,41,0,34
1,60,0,6
1,48,0,1
1,57,0,5
1,53,0,7
1,65,0,1
1,48,62,74
1,55,56,2
1,55,0,28
1,48,0,16
1,55,79,2
1,60,82,3
1,67,90,0
1,48,80,0
1,63,76,1
1,67,0,104
1,67,41,11
1,63,0,43
1,67,0,12
1,63,82,5
1,67,87,0
1,55,0,50
1,48,0,4
1,63,0,1
1,67,0,0
1,55,73,5
1,48,82,0
1,63,79,1
1,67,90,0
1,55,0,54
1,67,0,2
1,60,0,1
1,67,85,2
1,60,73,1
1,55,80,3
1,55,0,31
1,48,0,10
1,67,0,25
1,63,0,1
1,60,0,0
1,67,77,49
1,63,79,1
1,55,61,3
1,60,70,0
1,48,68,1
1,55,0,45
1,67,0,5
1,63,0,1
1,60,0,3
1,67,88,2
1,60,79,3
1,63,86,0
1,55,85,0
1,67,0,107
1,60,0,2
1,67,78,8
1,67,0,55
1,63,0,3
1,67,87,2
1,63,83,3
1,60,71,1
1,48,0,49
1,60,0,1
1,60,30,9
1,48,59,1
1,60,0,54
1,48,0,1
1,63,0,4
1,67,0,0
1,63,80,1
1,67,87,0
1,60,74,1
1,48,79,7
1,60,0,27
1,48,0,2
1,55,0,3
1,63,0,4
1,67,0,6
1,67,58,70
1,60,60,1
1,63,71,0
1,55,44,8
1,60,0,36
1,63,0,6
1,67,0,5
1,48,73,2
1,63,78,2
1,60,75,0
1,67,86,0
1,67,0,55
1,67,68,4
1,63,0,112
1,48,0,2
1,67,0,1
1,63,80,4
1,67,87,0
1,48,56,2
1,55,0,49
1,67,0,4
1,63,0,0
1,67,96,3
1,55,70,0
1,63,87,4
1,67,0,51
1,63,0,5
1,67,79,3
1,63,82,1
1,48,0,30
1,55,0,2
1,60,0,1
1,63,0,3
1,67,0,6
1,63,79,77
1,67,71,0
1,55,69,1
1,60,73,0
1,48,73,1
1,60,0,45
1,63,0,3
1,67,0,6
1,63,83,1
1,60,83,0
1,67,85,4
1,67,0,56
1,67,87,3
1,67,0,109
1,60,0,3
1,63,0,0
1,67,87,4
1,63,82,1
1,60,68,3
1,63,0,52
1,63,51,5
1,67,0,49
1,60,0,4
1,63,0,3
1,67,87,4
1,60,73,3
1,63,84,0
1,48,0,36
1,60,0,13
1,67,0,3
1,48,77,4
1,60,69,1
1,67,74,0
1,55,0,43
1,60,0,7
1,48,0,4
1,67,0,1
1,63,0,2
1,46,83,62
1,53,73,0
1,58,76,0
1,62,82,1
1,65,77,2
1,70,79,0
1,70,0,168
1,65,0,0
1,65,74,8
1,70,84,0
1,53,0,47
1,46,0,7
1,65,0,1
1,70,0,0
1,46,72,5
1,53,61,0
1,70,86,1
1,65,83,0
1,53,0,108
1,46,0,6
1,58,0,6
1,62,0,21
1,65,0,9
1,70,0,20
1,58,51,11
1,51,48,0
1,58,0,46
1,51,0,7
1,58,76,5
1,63,73,1
1,67,77,0
1,51,77,0
1,63,0,70
1,63,63,3
1,67,0,45
1,67,58,2
1,63,0,52
1,51,0,3
1,67,0,0
1,67,72,5
1,63,67,1
1,51,73,3
1,58,0,50
1,67,0,1
1,63,0,1
1,67,79,5
1,63,77,0
1,58,57,0
1,51,0,119
1,63,0,21
1,58,0,11
1,67,0,9
1,53,68,83
1,62,74,1
1,58,58,0
1,46,66,1
1,70,79,0
1,65,72,0
1,62,0,107
1,70,0,57
1,65,0,4
1,53,0,5
1,58,0,1
1,65,74,4
1,70,82,0
1,53,64,1
1,58,56,0
1,62,71,0
1,70,0,54
1,65,0,0
1,70,67,6
1,65,73,0
1,53,0,111
1,46,0,3
1,58,0,1
1,62,0,3
1,65,0,22
1,70,0,10
1,51,23,38
1,51,0,46
1,58,57,2
1,63,76,3
1,67,76,1
1,51,75,0
1,67,0,168
1,63,0,1
1,67,76,7
1,63,64,3
1,51,0,47
1,63,0,9
1,51,62,1
1,63,72,3
1,51,0,117
1,58,0,20
1,63,0,3
1,67,0,27
1,58,26,69
1,70,83,1
1,65,74,0
1,53,66,0
1,62,77,0
1,46,75,3
1,62,0,115
1,53,0,57
1,65,0,1
1,70,0,0
1,46,0,2
1,65,69,2
1,70,83,0
1,62,67,3
1,46,77,1
1,53,61,0
1,46,0,46
1,70,0,5
1,62,0,4
1,46,80,1
1,70,85,3
1,62,74,0
1,53,0,94
1,46,0,18
1,58,0,17
1,62,0,1
1,65,0,7
1,70,0,33
1,63,54,11
1,58,56,9
1,51,59,0
1,58,0,40
1,51,0,3
1,63,0,1
1,51,76,3
1,63,80,0
1,58,68,0
1,67,79,3
1,63,0,116
1,51,0,56
1,67,0,4
1,67,69,4
1,63,77,1
1,51,89,8
1,67,0,46
1,51,0,3
1,51,68,2
1,67,77,2
1,58,0,100
1,51,0,13
1,63,0,16
1,67,0,11
1,67,63,38
1,63,56,2
1,55,40,9
1,48,55,0
1,48,0,34
1,55,0,0
1,63,0,6
1,67,0,4
1,63,91,5
1,60,77,0
1,55,77,0
1,48,51,0
1,67,88,2
1,60,0,108
1,63,0,0
1,67,0,2
1,48,0,1
1,48,52,4
1,60,80,3
1,67,89,1
1,63,83,0
1,48,0,15
1,55,0,10
1,60,0,12
1,63,0,13
1,67,0,10
1,50,81,59
1,53,76,1
1,62,85,0
1,58,81,0
1,67,87,0
1,53,0,120
1,58,0,10
1,50,0,9
1,62,0,4
1,67,0,7
1,51,67,89
1,55,56,0
1,58,73,1
1,67,77,0
1,63,85,0
1,63,0,111
