track,note,velocity,time
1,41,120,1440
1,41,0,200
1,41,120,0
1,41,0,25
1,40,120,15
1,40,0,200
1,38,120,0
1,38,0,30
1,38,120,10
1,38,0,200
1,43,120,0
1,43,120,160
1,43,0,40
1,43,0,80
1,41,120,0
1,41,0,200
1,41,120,0
1,41,0,25
1,40,120,15
1,40,0,200
1,38,120,0
1,38,0,30
1,38,120,10
1,38,0,200
1,43,120,0
1,43,0,160
1,43,120,0
1,43,0,120
1,36,120,0
1,36,0,200
1,36,120,0
1,36,0,25
1,33,120,15
1,33,0,240
1,38,120,0
1,38,0,200
1,31,120,0
1,31,0,120
1,31,120,0
1,31,0,35
1,31,120,5
1,31,0,120
1,36,120,0
1,36,0,200
1,36,120,0
1,36,0,35
1,40,120,5
1,40,0,200
1,40,120,0
1,40,0,35
1,33,120,5
1,33,0,200
1,41,120,0
1,41,0,160
1,41,120,0
1,41,0,120
1,40,120,0
1,40,0,200
1,40,120,0
1,40,0,35
1,40,120,5
1,40,0,200
1,40,120,0
1,40,0,35
1,43,120,5
1,43,0,200
1,36,120,0
1,36,0,35
1,38,120,5
1,38,0,80
1,38,120,0
1,38,0,40
1,40,120,0
1,40,0,80
1,40,120,0
1,40,0,40
1,41,120,0
1,41,0,200
1,41,120,0
1,41,0,25
1,36,120,15
1,36,0,200
1,36,120,0
1,36,0,30
1,41,120,10
1,41,0,200
1,38,120,0
1,38,0,70
1,38,120,50
1,38,0,70
1,38,120,50
1,43,120,40
1,38,0,30
1,43,0,45
1,43,120,5
1,43,0,120
1,43,120,0
1,43,0,40
1,43,120,0
1,43,0,75
1,43,120,5
1,43,0,120
1,43,120,0
1,43,0,40
1,43,120,0
1,43,0,75
1,43,120,5
1,43,0,120
1,43,120,0
1,43,0,40
1,43,120,0
1,43,0,75
1,43,120,5
1,43,0,120
1,43,120,0
1,43,0,40
1,38,120,0
1,38,0,200
1,38,120,0
1,38,0,25
1,38,120,15
1,38,0,200
1,38,120,0
1,38,0,30
1,43,120,10
1,43,0,200
1,43,120,0
1,43,0,120
1,43,120,0
1,43,0,30
1,43,120,10
1,43,0,120
1,40,120,0
1,40,0,200
1,40,120,0
1,40,0,25
1,40,120,15
1,40,0,200
1,40,120,0
1,40,0,30
1,45,120,10
1,45,0,200
1,45,120,0
1,45,0,120
1,45,120,0
1,45,0,40
1,45,120,0
1,45,0,120
1,38,120,0
1,38,0,200
1,38,120,0
1,38,0,25
1,38,120,15
1,38,0,200
1,38,120,0
1,38,0,30
1,43,120,10
1,43,0,200
1,43,120,0
1,43,0,120
1,43,120,0
1,43,0,30
1,43,120,10
1,43,0,120
1,40,120,0
1,40,0,200
1,40,120,0
1,40,0,25
1,40,120,15
1,40,0,200
1,40,120,0
1,40,0,30
1,45,120,10
1,45,0,200
1,45,120,0
1,45,0,120
1,45,120,0
1,45,0,40
1,45,120,0
1,45,0,120
1,38,120,0
1,38,0,200
1,38,120,0
1,38,0,25
1,40,120,15
1,40,0,200
1,40,120,0
1,40,0,30
1,38,120,10
1,38,0,200
1,38,120,0
1,38,0,25
1,40,120,15
1,40,0,200
1,40,120,0
1,40,0,30
1,41,120,10
1,41,0,200
1,41,120,0
1,41,0,25
1,40,120,15
1,40,0,200
1,38,120,0
1,38,0,30
1,38,120,10
1,38,0,200
1,43,120,0
1,43,0,160
1,43,120,0
1,43,0,120
1,36,120,0
1,36,0,200
1,36,120,0
1,36,0,25
1,33,120,15
1,33,0,240
1,38,120,0
1,38,0,200
1,31,120,0
1,31,0,120
1,31,120,0
1,31,0,35
1,31,120,5
1,31,0,120
1,36,120,0
1,36,0,200
1,36,120,0
1,36,0,35
1,40,120,5
1,40,0,200
1,40,120,0
1,40,0,35
1,33,120,5
1,33,0,200
1,41,120,0
1,41,0,160
1,41,120,0
1,41,0,120
1,40,120,0
1,40,0,200
1,40,120,0
1,40,0,35
1,40,120,5
1,40,0,200
1,40,120,0
1,40,0,35
1,43,120,5
1,43,0,200
1,36,120,0
1,36,0,35
1,38,120,5
1,38,0,80
1,38,120,0
1,38,0,40
1,40,120,0
1,40,0,80
1,40,120,0
1,40,0,40
1,41,120,0
1,41,0,200
1,41,120,0
1,41,0,25
1,36,120,15
1,36,0,200
1,36,120,0
1,36,0,30
1,41,120,10
1,41,0,200
1,38,120,0
1,38,0,70
1,38,120,50
1,38,0,70
1,38,120,50
1,43,120,40
1,38,0,30
1,43,0,45
1,43,120,5
1,43,0,120
1,43,120,0
1,43,0,40
1,43,120,0
1,43,0,75
1,43,120,5
1,43,0,120
1,43,120,0
1,43,0,40
1,43,120,0
1,43,0,75
1,43,120,5
1,43,0,120
1,43,120,0
1,43,0,40
1,43,120,0
1,43,0,75
1,43,120,5
1,43,0,120
1,43,120,0
1,43,0,40
1,38,120,0
1,38,0,200
1,38,120,0
1,38,0,25
1,38,120,15
1,38,0,200
1,38,120,0
1,38,0,30
1,43,120,10
1,43,0,200
1,43,120,0
1,43,0,120
1,43,120,0
1,43,0,30
1,43,120,10
1,43,0,120
1,40,120,0
1,40,0,200
1,40,120,0
1,40,0,25
1,40,120,15
1,40,0,200
1,40,120,0
1,40,0,30
1,45,120,10
1,45,0,200
1,45,120,0
1,45,0,120
1,45,120,0
1,45,0,40
1,45,120,0
1,45,0,120
1,38,120,0
1,38,0,200
1,38,120,0
1,38,0,25
1,38,120,15
1,38,0,200
1,38,120,0
1,38,0,30
1,43,120,10
1,43,0,200
1,43,120,0
1,43,0,120
1,43,120,0
1,43,0,30
1,43,120,10
1,43,0,120
1,40,120,0
1,40,0,200
1,40,120,0
1,40,0,25
1,40,120,15
1,40,0,200
1,40,120,0
1,40,0,30
1,45,120,10
1,45,0,200
1,45,120,0
1,45,0,120
1,45,120,0
1,45,0,40
1,45,120,0
1,45,0,120
1,38,120,0
1,38,0,200
1,38,120,0
1,38,0,25
1,40,120,15
1,40,0,200
1,40,120,0
1,40,0,30
1,38,120,10
1,38,0,200
1,38,120,0
1,38,0,25
1,40,120,15
1,40,0,200
1,40,120,0
1,40,0,30
1,41,120,10
1,41,0,200
1,41,120,0
1,41,0,25
1,40,120,15
1,40,0,200
1,38,120,0
1,38,0,30
1,38,120,10
1,38,0,200
1,43,120,0
1,43,0,160
1,43,120,0
1,43,0,120
1,36,120,0
1,36,0,200
1,36,120,0
1,36,0,25
1,33,120,15
1,33,0,240
1,38,120,0
1,38,0,200
1,31,120,0
1,31,0,120
1,31,120,0
1,31,0,35
1,31,120,5
1,31,0,120
1,36,120,0
1,36,0,200
1,36,120,0
1,36,0,35
1,40,120,5
1,40,0,200
1,40,120,0
1,40,0,35
1,33,120,5
1,33,0,200
1,41,120,0
1,41,0,160
1,41,120,0
1,41,0,120
1,40,120,0
1,40,0,200
1,40,120,0
1,40,0,35
1,40,120,5
1,40,0,200
1,40,120,0
1,40,0,35
1,43,120,5
1,43,0,200
1,36,120,0
1,36,0,35
1,38,120,5
1,38,0,80
1,38,120,0
1,38,0,40
1,40,120,0
1,40,0,80
1,40,120,0
1,40,0,40
1,41,120,0
1,41,0,200
1,41,120,0
1,41,0,25
1,36,120,15
1,36,0,200
1,36,120,0
1,36,0,30
1,41,120,10
1,41,0,200
1,38,120,0
1,38,0,70
1,38,120,50
1,38,0,70
1,38,120,50
1,38,0,35
1,31,120,5
1,31,0,200
1,31,120,0
1,31,0,40
1,29,120,0
1,29,0,200
1,29,120,0
1,29,0,40
1,31,120,0
1,31,0,200
1,31,120,0
1,31,0,40
1,29,120,0
1,29,0,200
1,29,120,0
1,29,0,40
1,31,120,0
1,31,0,200
1,31,120,0
1,31,0,40
1,31,120,0
1,31,0,200
1,31,120,0
1,31,0,40
1,31,120,0
1,31,0,200
1,31,120,0
1,31,0,40
1,29,120,0
1,29,0,80
1,29,120,0
1,29,0,30
1,29,120,10
1,29,0,80
1,29,120,0
1,29,0,40
1,31,120,0
1,31,0,200
1,31,120,0
1,31,0,40
1,31,120,0
1,31,0,200
1,31,120,0
1,31,0,40
1,31,120,0
1,31,0,200
1,31,120,0
1,31,0,40
1,31,120,0
1,31,0,80
1,31,120,0
1,31,0,30
1,31,120,10
1,31,0,80
1,31,120,0
1,31,0,40
1,41,120,0
1,41,0,200
1,41,120,0
1,41,0,25
1,40,120,15
1,40,0,200
1,40,120,0
1,40,0,30
1,38,120,10
1,38,0,200
1,43,120,0
1,43,0,120
1,43,120,0
1,43,0,120
1,43,120,0
1,43,0,40
1,41,120,0
1,41,0,200
1,41,120,0
1,41,0,25
1,40,120,15
1,40,0,200
1,40,120,0
1,40,0,30
1,38,120,10
1,38,0,200
1,43,120,0
1,43,0,120
1,43,120,0
1,43,0,120
1,43,120,0
1,43,0,40
1,41,120,0
1,41,0,200
1,41,120,0
1,41,0,25
1,40,120,15
1,40,0,200
1,40,120,0
1,40,0,30
1,38,120,10
1,38,0,200
1,43,120,0
1,43,0,120
1,43,120,0
1,43,0,120
1,43,120,0
1,43,0,40
1,41,120,0
1,41,0,200
1,41,120,0
1,41,0,25
1,40,120,15
1,40,0,200
1,40,120,0
1,40,0,30
1,38,120,10
1,38,0,200
1,43,120,0
1,43,0,120
1,43,120,0
1,43,0,120
1,43,120,0
1,43,0,40
1,41,120,0
1,41,0,200
1,41,120,0
1,41,0,25
1,40,120,15
1,40,0,200
1,40,120,0
1,40,0,30
1,38,120,10
1,38,0,200
1,43,114,0
1,43,0,120
1,43,109,0
1,43,0,120
1,43,104,0
1,43,0,40
1,41,103,0
1,41,0,200
1,41,96,0
1,41,0,25
1,40,94,15
1,40,0,200
1,40,87,0
1,40,0,30
1,38,86,10
1,38,0,200
1,43,79,0
1,43,0,120
1,43,74,0
1,43,0,120
1,43,70,0
1,43,0,40
1,41,69,0
1,41,0,200
1,41,62,0
1,41,0,25
1,40,60,15
1,40,0,200
1,40,54,0
1,40,0,30
1,38,51,10
1,38,0,200
1,43,44,0
1,43,0,120
1,43,40,0
1,43,0,120
1,43,36,0
1,43,0,40
1,41,34,0
1,41,0,200
1,41,27,0
1,41,0,25
1,40,26,15
1,40,0,200
1,40,19,0
1,40,0,30
1,38,18,10
1,38,0,200
1,43,10,0
1,43,0,120
1,43,6,0
1,43,0,120
1,43,2,0
1,43,0,40
2,69,100,480
2,41,100,0
2,76,100,0
2,76,0,90
2,69,0,0
2,69,100,30
2,76,100,0
2,76,0,80
2,69,0,0
2,65,100,0
2,72,100,0
2,72,0,40
2,65,0,0
2,41,0,0
2,67,100,0
2,40,100,0
2,74,100,0
2,74,0,70
2,67,0,0
2,64,100,10
2,71,100,0
2,71,0,40
2,64,0,0
2,67,100,0
2,74,100,0
2,74,0,80
2,67,0,0
2,38,100,0
2,65,100,0
2,72,100,0
2,40,0,40
2,72,0,120
2,65,0,0
2,72,100,0
2,65,100,0
2,65,0,80
2,62,100,0
2,62,0,40
2,72,0,0
2,38,0,0
2,74,100,0
2,71,100,0
2,67,100,0
2,43,100,0
2,67,0,70
2,74,0,0
2,71,0,0
2,69,100,10
2,72,100,0
2,65,100,0
2,65,0,40
2,72,0,0
2,69,0,0
2,74,100,0
2,71,100,0
2,67,100,0
2,67,0,70
2,71,0,0
2,74,0,0
2,43,0,50
2,69,100,0
2,41,100,0
2,76,100,0
2,76,0,90
2,69,0,0
2,69,100,30
2,76,100,0
2,76,0,80
2,69,0,0
2,65,100,0
2,72,100,0
2,72,0,40
2,65,0,0
2,41,0,0
2,67,100,0
2,40,100,0
2,74,100,0
2,74,0,70
2,67,0,0
2,64,100,10
2,71,100,0
2,71,0,40
2,64,0,0
2,67,100,0
2,74,100,0
2,74,0,80
2,67,0,0
2,38,100,0
2,65,100,0
2,72,100,0
2,40,0,40
2,72,0,120
2,65,0,0
2,72,100,0
2,65,100,0
2,65,0,80
2,62,100,0
2,62,0,40
2,72,0,0
2,38,0,0
2,74,100,0
2,71,100,0
2,67,100,0
2,43,100,0
2,67,0,70
2,74,0,0
2,71,0,0
2,69,100,10
2,72,100,0
2,65,100,0
2,65,0,40
2,72,0,0
2,69,0,0
2,74,100,0
2,71,100,0
2,67,100,0
2,67,0,70
2,71,0,0
2,74,0,0
2,43,0,50
2,69,100,0
2,41,100,0
2,76,100,0
2,76,0,90
2,69,0,0
2,69,100,30
2,76,100,0
2,76,0,80
2,69,0,0
2,65,100,0
2,72,100,0
2,72,0,40
2,65,0,0
2,41,0,0
2,67,100,0
2,40,100,0
2,74,100,0
2,74,0,70
2,67,0,0
2,64,100,10
2,71,100,0
2,71,0,40
2,64,0,0
2,67,100,0
2,74,100,0
2,74,0,80
2,67,0,0
2,38,100,0
2,65,100,0
2,72,100,0
2,40,0,40
2,72,0,120
2,65,0,0
2,69,100,0
2,72,100,0
2,65,100,0
2,65,0,120
2,38,0,0
2,69,0,0
2,72,0,0
2,69,100,0
2,72,100,0
2,65,100,0
2,65,0,120
2,72,0,0
2,69,0,0
2,69,100,0
2,72,100,0
2,65,100,0
2,65,0,120
2,72,0,0
2,69,0,0
2,55,100,0
2,64,100,0
2,60,100,0
2,60,0,90
2,64,0,0
2,55,0,0
2,55,100,30
2,64,100,0
2,60,100,0
2,60,0,90
2,64,0,0
2,55,0,0
2,57,100,30
2,64,100,0
2,60,100,0
2,57,100,80
2,57,0,10
2,60,0,0
2,64,0,0
2,57,100,30
2,64,100,0
2,60,100,0
2,57,0,50
2,57,0,20
2,64,0,0
2,60,0,0
2,57,100,10
2,65,100,0
2,60,100,0
2,60,0,120
2,65,0,0
2,57,0,0
2,64,100,0
2,57,100,0
2,57,0,35
2,64,0,0
2,65,100,5
2,60,100,0
2,57,100,0
2,57,0,75
2,60,0,0
2,65,0,0
2,65,100,45
2,60,100,0
2,57,100,0
2,57,0,75
2,60,0,0
2,65,0,0
2,65,100,45
2,60,100,0
2,57,100,0
2,57,0,75
2,60,0,0
2,65,0,0
2,60,100,45
2,55,100,0
2,64,100,0
2,64,0,75
2,55,0,0
2,60,0,0
2,60,100,45
2,55,100,0
2,64,100,0
2,64,0,75
2,55,0,0
2,60,0,0
2,62,100,45
2,59,100,0
2,56,100,0
2,56,0,75
2,59,0,0
2,62,0,0
2,52,100,5
2,59,100,40
2,56,100,0
2,62,100,0
2,52,0,50
2,59,0,25
2,56,0,0
2,62,0,0
2,64,100,45
2,57,100,0
2,60,100,0
2,60,0,75
2,57,0,0
2,64,0,0
2,64,100,45
2,57,100,0
2,60,100,0
2,60,0,75
2,57,0,0
2,64,0,0
2,64,100,45
2,57,100,0
2,60,100,0
2,60,0,75
2,57,0,0
2,64,0,0
2,57,100,45
2,64,100,0
2,60,100,0
2,60,0,75
2,64,0,0
2,57,0,0
2,59,100,45
2,55,100,0
2,62,100,0
2,62,0,75
2,55,0,0
2,59,0,0
2,59,100,45
2,55,100,0
2,62,100,0
2,62,0,75
2,55,0,0
2,59,0,0
2,55,100,125
2,59,100,0
2,62,100,0
2,62,0,75
2,59,0,0
2,55,0,0
2,65,100,45
2,62,100,0
2,58,100,0
2,58,0,120
2,62,0,0
2,65,0,0
2,60,100,40
2,64,100,0
2,67,100,0
2,67,0,120
2,64,0,0
2,60,0,0
2,62,100,0
2,65,100,0
2,69,100,0
2,69,0,120
2,65,0,0
2,62,0,0
2,64,100,0
2,67,100,0
2,67,0,120
2,64,0,0
2,60,100,0
2,57,100,0
2,64,100,0
2,64,0,75
2,57,0,0
2,60,0,0
2,60,100,45
2,57,100,0
2,64,100,0
2,64,0,75
2,57,0,0
2,60,0,0
2,65,100,45
2,58,100,0
2,62,100,0
2,62,0,75
2,58,0,0
2,65,0,0
2,65,100,45
2,58,100,0
2,62,100,0
2,62,0,75
2,58,0,0
2,65,0,0
2,60,100,45
2,57,100,0
2,64,100,0
2,64,0,75
2,57,0,0
2,60,0,0
2,60,100,45
2,57,100,0
2,64,100,0
2,64,0,75
2,57,0,0
2,60,0,0
2,65,100,45
2,57,100,0
2,60,100,0
2,60,0,75
2,57,0,0
2,65,0,0
2,65,100,45
2,57,100,0
