track,note,velocity,time
1,76,100,908
1,69,95,1
1,71,101,0
1,71,0,16
1,69,0,0
1,76,0,0
1,71,100,74
1,69,93,0
1,76,96,0
1,76,0,22
1,69,0,0
1,71,0,0
1,69,95,266
1,71,101,0
1,76,97,0
1,71,0,17
1,69,0,2
1,76,0,1
1,69,91,76
1,71,93,0
1,76,93,0
1,71,0,16
1,76,0,1
1,69,0,0
1,69,89,271
1,71,92,2
1,76,91,0
1,71,0,16
1,76,0,1
1,69,0,0
1,69,91,77
1,71,94,0
1,76,95,0
1,76,0,18
1,71,0,0
1,69,0,0
1,69,93,277
1,71,97,0
1,76,96,0
1,76,0,24
1,71,0,0
1,69,0,0
1,71,97,69
1,69,92,0
1,76,95,0
1,71,0,20
1,76,0,2
1,69,0,0
1,69,94,266
1,71,98,1
1,76,97,0
1,71,0,17
1,76,0,2
1,69,0,0
1,76,94,73
1,69,91,0
1,71,94,0
1,71,0,24
1,69,0,0
1,76,0,0
1,76,97,263
1,69,93,0
1,71,97,0
1,71,0,26
1,69,0,2
1,76,0,0
1,71,99,68
1,76,97,0
1,69,92,0
1,71,0,22
1,69,0,2
1,76,0,0
1,69,91,268
1,76,94,0
1,71,95,0
1,71,0,24
1,76,0,0
1,69,0,0
1,69,91,69
1,71,95,0
1,76,93,0
1,71,0,20
1,76,0,2
1,69,0,0
1,69,90,265
1,71,92,0
1,76,91,2
1,71,0,22
1,76,0,2
1,69,0,0
1,76,91,70
1,69,89,0
1,71,91,0
1,71,0,20
1,69,0,1
1,76,0,0
1,71,97,269
1,76,97,0
1,69,91,0
1,71,0,24
1,69,0,2
1,76,0,0
1,76,95,68
1,69,91,0
1,71,93,0
1,71,0,20
1,69,0,1
1,76,0,0
1,76,93,269
1,69,89,0
1,71,92,0
1,71,0,22
1,69,0,2
1,76,0,0
1,69,89,70
1,71,89,0
1,76,88,0
1,76,0,20
1,71,0,0
1,69,0,0
1,71,93,265
1,76,93,0
1,69,90,0
1,71,0,17
1,69,0,1
1,76,0,0
1,71,92,77
1,76,92,0
1,69,89,0
1,71,0,20
1,69,0,2
1,76,0,0
1,69,92,274
1,71,96,0
1,76,96,0
1,71,0,23
1,76,0,1
1,69,0,0
1,69,91,70
1,71,93,0
1,76,93,0
1,71,0,19
1,76,0,1
1,69,0,0
1,68,91,30
1,61,99,0
1,57,89,0
1,76,102,0
1,76,0,92
1,68,0,4
1,61,0,0
1,57,0,2
1,56,87,43
1,66,91,0
1,59,104,1
1,63,99,0
1,59,0,168
1,66,0,3
1,56,0,1
1,63,0,0
1,57,97,66
1,76,90,0
1,61,100,0
1,54,79,0
1,61,0,116
1,57,0,4
1,54,0,5
1,61,95,21
1,57,100,0
1,54,85,2
1,54,0,192
1,57,0,2
1,61,0,4
1,76,0,2
1,76,101,280
1,69,94,0
1,71,98,0
1,71,0,14
1,69,0,2
1,76,0,1
1,76,101,77
1,69,97,0
1,71,101,0
1,71,0,19
1,69,0,1
1,76,0,2
1,69,94,268
1,71,99,0
1,76,95,0
1,76,0,24
1,71,0,0
1,69,0,0
1,71,92,70
1,69,89,0
1,76,91,0
1,71,0,20
1,76,0,2
1,69,0,0
1,69,95,268
1,71,99,1
1,76,95,0
1,71,0,19
1,76,0,1
1,69,0,0
1,69,94,70
1,76,95,0
1,71,97,0
1,71,0,24
1,76,0,0
1,69,0,0
1,68,97,29
1,57,81,30
1,61,89,32
1,57,0,20
1,64,94,12
1,61,0,4
1,57,75,30
1,61,89,31
1,57,0,3
1,64,0,4
1,68,0,10
1,66,101,16
1,61,0,3
1,56,89,28
1,59,79,33
1,63,84,31
1,56,0,2
1,59,0,3
1,56,101,27
1,59,106,32
1,56,0,5
1,59,0,22
1,63,0,0
1,66,0,2
1,76,93,4
1,57,93,0
1,54,86,0
1,61,90,0
1,61,0,13
1,54,0,3
1,57,0,0
1,76,0,6
1,76,90,74
1,47,92,0
1,54,86,0
1,57,101,0
1,61,93,0
1,57,0,265
1,54,0,3
1,61,0,0
1,76,0,8
1,47,0,2
1,69,90,248
1,71,94,2
1,76,93,0
1,69,0,18
1,71,0,1
1,76,0,1
1,76,93,73
1,71,95,0
1,69,91,0
1,69,0,24
1,71,0,0
1,76,0,0
1,76,94,267
1,69,95,0
1,71,96,0
1,71,0,26
1,69,0,0
1,76,0,2
1,76,91,68
1,69,90,0
1,71,93,0
1,71,0,24
1,69,0,0
1,76,0,0
1,69,90,262
1,71,93,0
1,76,90,0
1,76,0,26
1,71,0,0
1,69,0,0
1,71,94,71
1,69,90,0
1,76,91,0
1,69,0,26
1,76,0,2
1,71,0,0
1,69,92,257
1,76,93,0
1,71,94,0
1,71,0,31
1,76,0,0
1,69,0,0
1,76,92,65
1,69,90,0
1,71,93,0
1,76,0,23
1,71,0,1
1,69,0,0
1,76,93,264
1,69,90,0
1,71,93,0
1,71,0,29
1,69,0,2
1,76,0,0
1,76,91,61
1,69,90,0
1,71,92,0
1,71,0,28
1,69,0,0
1,76,0,0
1,69,89,266
1,76,89,0
1,71,91,0
1,71,0,29
1,76,0,0
1,69,0,0
1,76,93,69
1,69,90,0
1,71,94,0
1,71,0,24
1,69,0,0
1,76,0,2
1,69,90,257
1,71,92,0
1,76,89,1
1,76,0,28
1,71,0,1
1,69,0,0
1,69,90,63
1,76,90,0
1,71,93,0
1,76,0,26
1,69,0,0
1,71,0,2
1,71,91,266
1,69,89,0
1,76,90,0
1,76,0,30
1,69,0,2
1,71,0,0
1,69,90,62
1,76,93,0
1,71,93,0
1,71,0,26
1,76,0,0
1,69,0,0
1,57,90,26
1,68,89,0
1,61,94,0
1,76,106,0
1,68,0,85
1,76,0,3
1,61,0,0
1,57,0,4
1,66,90,50
1,56,88,0
1,59,109,2
1,63,97,0
1,59,0,133
1,63,0,3
1,66,0,2
1,56,0,4
1,54,84,95
1,76,88,0
1,61,92,0
1,57,100,0
1,57,0,102
1,61,0,2
1,76,0,0
1,54,0,2
1,76,90,41
1,54,87,0
1,47,91,0
1,61,93,0
1,57,101,0
1,57,0,193
1,54,0,3
1,61,0,0
1,76,0,2
1,47,0,10
1,76,97,269
1,69,94,0
1,71,98,0
1,71,0,22
1,69,0,2
1,76,0,0
1,76,94,69
1,71,97,0
1,69,93,0
1,69,0,24
1,71,0,0
1,76,0,2
1,76,95,264
1,69,92,1
1,71,97,0
1,71,0,20
1,69,0,0
1,76,0,1
1,69,95,74
1,76,95,2
1,71,98,0
1,71,0,24
1,76,0,0
1,69,0,0
1,76,93,262
1,69,93,0
1,71,94,1
1,69,0,27
1,71,0,1
1,76,0,1
1,76,89,65
1,69,89,0
1,71,91,1
1,76,0,23
1,71,0,1
1,69,0,1
1,68,97,27
1,57,76,32
1,61,81,31
1,57,0,31
1,64,88,0
1,61,0,1
1,57,79,32
1,61,89,32
1,64,0,3
1,57,0,2
1,68,0,4
1,61,0,23
1,66,95,1
1,56,82,31
1,59,81,33
1,56,0,31
1,59,0,1
1,63,79,0
1,56,99,32
1,59,95,32
1,56,0,4
1,63,0,18
1,66,0,2
1,59,0,3
1,54,83,5
1,76,89,0
1,61,91,0
1,57,102,0
1,61,0,28
1,57,0,1
1,54,0,0
1,76,0,3
1,76,89,61
1,54,88,0
1,57,99,3
1,47,89,0
1,61,91,0
1,61,0,270
1,57,0,2
1,76,0,2
1,54,0,3
1,47,0,3
1,69,94,248
1,76,95,0
1,71,97,0
1,71,0,24
1,76,0,0
1,69,0,0
1,76,91,70
1,69,89,2
1,71,91,0
1,71,0,28
1,69,0,2
1,76,0,0
1,69,92,258
1,76,93,0
1,71,95,0
1,71,0,30
1,76,0,0
1,69,0,0
1,76,89,65
1,69,88,1
1,71,90,0
1,71,0,28
1,69,0,0
1,76,0,0
1,69,93,258
1,71,97,0
1,76,94,0
1,69,0,23
1,71,0,1
1,76,0,2
1,69,91,68
1,71,93,1
1,76,90,0
1,76,0,24
1,69,0,1
1,71,0,3
1,57,89,23
1,68,82,0
1,76,103,0
1,61,92,0
1,68,0,16
1,76,0,1
1,57,0,3
1,61,0,0
1,56,87,26
1,66,87,2
1,59,105,0
1,63,95,0
1,59,0,44
1,66,0,0
1,63,0,1
1,56,0,1
1,76,89,47
1,57,93,0
1,54,79,0
1,61,89,1
1,61,0,48
1,76,0,0
1,57,0,1
1,54,0,2
1,54,84,44
1,61,91,0
1,57,100,0
1,47,83,0
1,47,0,138
1,57,0,0
1,61,0,2
1,54,0,0
1,56,95,127
1,61,94,0
1,62,111,2
1,61,0,11
1,62,0,143
1,56,0,4
1,56,92,224
1,61,93,0
1,62,116,2
1,61,0,14
1,62,0,142
1,56,0,39
1,56,92,187
1,61,97,1
1,62,120,1
1,61,0,15
1,62,0,149
1,56,0,31
1,61,97,207
1,56,93,0
1,62,106,0
1,61,0,14
1,62,0,180
1,56,0,10
1,56,90,164
1,61,90,14
1,62,104,2
1,61,0,6
1,56,0,190
1,62,0,10
1,76,100,278
1,69,95,0
1,71,98,4
1,71,0,12
1,69,0,3
1,76,0,3
1,69,95,74
1,71,102,0
1,76,97,0
1,76,0,23
1,71,0,0
1,69,0,0
1,71,107,262
1,69,100,0
1,76,101,0
1,76,0,19
1,69,0,0
1,71,0,1
1,69,97,75
1,71,103,0
1,76,97,0
1,76,0,16
1,71,0,2
1,69,0,3
1,71,95,268
1,69,91,0
1,76,91,0
1,76,0,24
1,69,0,0
1,71,0,0
1,69,96,70
1,71,104,0
1,76,98,0
1,76,0,24
1,71,0,0
1,69,0,0
1,69,97,266
1,71,104,0
1,76,98,0
1,76,0,28
1,71,0,0
1,69,0,0
1,76,93,64
1,69,92,0
1,71,94,0
1,71,0,24
1,69,0,0
1,76,0,0
1,55,90,31
1,59,95,0
1,62,93,0
1,59,0,348
1,62,0,4
1,55,0,4
1,54,89,28
1,62,93,0
1,57,95,0
1,59,109,0
1,57,0,290
1,59,0,6
1,54,0,0
1,62,0,4
1,65,89,82
1,58,92,0
1,61,94,0
1,54,77,0
1,61,0,157
1,58,0,0
1,54,0,3
1,58,90,31
1,61,89,1
1,54,88,0
1,61,0,48
1,58,0,3
1,54,0,1
1,58,90,18
1,54,83,0
1,61,92,0
1,61,0,49
1,58,0,0
1,54,0,3
1,58,85,20
1,61,90,0
1,54,81,0
1,65,0,50
1,58,0,1
1,66,89,1
1,58,89,0
1,63,95,0
1,59,105,0
1,61,0,2
1,54,0,0
1,63,0,144
1,66,0,10
1,59,0,0
1,58,0,4
1,66,88,29
1,57,88,0
1,59,98,0
1,62,101,3
1,59,0,113
1,62,0,3
1,57,0,1
1,66,0,4
1,57,90,51
1,61,90,14
1,76,93,2
1,68,84,4
1,68,0,286
1,57,0,2
1,76,0,4
1,61,0,2
1,57,92,86
1,68,82,2
1,61,94,0
1,76,105,0
1,76,0,12
1,68,0,0
1,61,0,1
1,57,0,5
1,56,88,30
1,66,84,0
1,59,102,2
1,63,95,0
1,66,0,10
1,63,0,2
1,59,0,4
1,56,0,2
1,54,81,76
1,76,89,0
1,61,91,0
1,57,94,0
1,57,0,160
1,54,0,0
1,61,0,4
1,76,0,0
1,57,94,78
1,68,88,0
1,76,109,0
1,61,95,0
1,68,0,22
1,61,0,2
1,76,0,0
1,57,0,2
1,56,91,22
1,66,80,0
1,59,94,0
1,63,89,2
1,63,0,13
1,59,0,1
1,66,0,2
1,56,0,3
1,57,96,75
1,54,84,0
1,76,97,0
1,61,95,0
1,61,0,192
1,57,0,4
1,54,0,0
1,76,0,4
1,76,95,276
1,69,95,0
1,71,102,0
1,71,0,24
1,69,0,0
1,76,0,0
1,76,93,73
1,69,92,0
1,71,95,2
1,71,0,24
1,69,0,0
1,76,0,2
1,69,92,261
1,71,97,0
1,76,95,0
1,71,0,28
1,69,0,0
1,76,0,1
1,76,95,65
1,69,92,0
1,71,95,0
1,71,0,24
1,69,0,0
1,76,0,0
1,69,93,264
1,71,95,0
1,76,94,0
1,71,0,21
1,76,0,2
1,69,0,0
1,76,97,73
1,69,94,0
1,71,97,0
1,71,0,19
1,69,0,1
1,76,0,2
1,76,95,265
1,69,92,1
1,71,96,0
1,71,0,20
1,69,0,1
1,76,0,1
1,71,95,67
1,69,92,0
1,76,94,0
1,76,0,20
1,69,0,0
1,71,0,0
1,57,96,39
1,61,99,0
1,68,91,0
1,76,106,0
1,68,0,90
1,76,0,2
1,61,0,2
1,57,0,2
1,56,89,46
1,66,90,0
1,59,113,0
1,63,99,2
1,59,0,184
1,66,0,0
1,63,0,2
1,56,0,2
1,57,102,50
1,54,88,0
1,76,90,0
1,61,99,0
1,61,0,104
1,57,0,2
1,76,0,2
1,54,0,4
1,47,90,32
1,54,89,2
1,76,94,0
1,57,106,0
1,61,98,0
1,61,0,193
1,57,0,1
1,54,0,2
1,47,0,2
1,76,0,2
1,76,100,277
1,69,97,0
1,71,101,0
1,71,0,24
1,69,0,0
1,76,0,2
1,76,92,67
1,69,91,0
1,71,92,0
1,71,0,26
1,69,0,0
1,76,0,0
1,76,95,262
1,71,95,2
1,69,92,0
1,69,0,24
1,71,0,0
1,76,0,0
1,69,90,68
1,71,93,0
1,76,91,0
1,76,0,26
1,71,0,2
1,69,0,0
1,76,90,262
1,69,89,2
1,71,91,0
1,76,0,24
1,71,0,2
1,69,0,0
1,76,93,64
1,69,91,2
1,71,94,0
1,71,0,24
1,76,0,0
1,69,0,2
1,68,89,30
1,57,59,32
1,61,78,32
1,57,0,5
1,61,0,27
1,64,84,0
1,57,68,32
1,64,0,24
1,68,0,7
1,61,85,1
1,57,0,7
1,61,0,25
1,66,93,0
1,56,73,32
1,59,80,32
1,56,0,12
1,59,0,16
1,63,78,4
1,56,85,31
1,59,95,32
1,56,0,2
1,63,0,3
1,66,0,3
1,59,0,17
1,54,88,6
1,76,90,0
1,57,102,0
1,61,95,0
1,61,0,33
1,57,0,0
1,76,0,0
1,54,0,3
1,54,88,59
1,76,91,0
1,57,97,0
1,61,95,0
1,47,84,1
1,61,0,239
1,57,0,0
1,54,0,0
1,47,0,2
1,76,0,2
1,69,91,283
1,76,89,0
1,71,91,0
1,71,0,26
1,69,0,0
1,76,0,2
1,76,92,70
1,69,94,0
1,71,97,0
1,71,0,20
1,69,0,1
1,76,0,0
1,71,95,263
1,76,91,0
1,69,93,2
1,76,0,15
1,71,0,0
1,69,0,1
1,76,92,76
1,71,93,0
1,69,90,0
1,69,0,20
1,71,0,0
1,76,0,0
1,76,93,268
1,69,92,0
1,71,93,2
1,71,0,20
1,69,0,1
1,76,0,0
1,76,93,73
1,69,93,0
1,71,94,0
1,71,0,24
1,69,0,0
1,76,0,0
1,57,67,32
1,61,91,0
1,68,77,0
1,76,104,0
1,76,0,20
1,68,0,0
1,61,0,1
1,57,0,1
1,59,102,23
1,56,86,0
1,66,85,0
1,63,95,0
1,63,0,48
1,66,0,0
1,59,0,0
1,56,0,2
1,54,81,45
1,57,95,1
1,61,92,0
1,76,90,0
1,61,0,50
1,57,0,2
1,54,0,3
1,76,0,1
1,54,84,39
1,61,92,0
1,47,73,0
1,57,97,0
1,57,0,133
1,61,0,0
1,54,0,3
1,47,0,5
1,56,88,128
1,61,93,0
1,62,95,3
1,61,0,22
1,62,0,138
1,56,0,1
1,56,89,145
1,61,89,0
1,62,111,2
1,61,0,12
1,62,0,237
1,56,0,5
1,56,88,222
1,61,89,0
1,62,104,1
1,61,0,11
1,62,0,221
1,56,0,11
1,56,89,121
1,61,88,0
1,62,98,1
1,61,0,8
1,62,0,197
1,56,0,6
1,56,90,167
1,61,92,0
1,62,106,1
1,61,0,27
1,62,0,215
1,56,0,7
1,56,89,135
1,62,103,0
1,61,89,0
1,61,0,8
1,62,0,194
1,56,0,10
1,56,89,175
1,62,99,0
1,62,0,186
1,56,0,34
1,56,91,164
1,61,91,1
1,62,107,1
1,61,0,11
1,62,0,179
1,56,0,5
1,56,89,187
1,61,88,1
1,62,98,1
1,61,0,9
1,62,0,175
1,56,0,11
1,56,89,187
1,62,102,0
