track,note,velocity,time
1,58,86,62
1,62,92,58
1,58,0,4
1,58,89,57
1,62,0,120
1,60,93,0
1,65,87,61
1,57,94,58
1,58,0,2
1,60,0,57
1,57,0,59
1,58,92,1
1,65,0,2
1,62,92,61
1,58,0,57
1,58,90,1
1,60,91,58
1,62,0,65
1,65,86,57
1,60,0,57
1,58,0,2
1,57,87,2
1,65,0,118
1,57,0,1
1,57,94,2
1,58,92,60
1,55,86,59
1,57,0,1
1,55,0,117
1,53,92,1
1,58,0,60
1,58,90,1
1,57,90,59
1,58,0,1
1,57,0,58
1,53,0,1
1,55,93,0
1,58,93,62
1,63,88,56
1,58,0,6
1,55,0,54
1,55,87,1
1,55,0,61
1,57,90,0
1,63,0,59
1,63,93,2
1,57,0,1
1,62,89,57
1,63,0,2
1,62,0,20
1,63,94,0
1,63,0,19
1,62,88,1
1,60,93,20
1,62,0,2
1,62,92,57
1,60,0,2
1,62,0,56
1,58,94,3
1,62,92,61
1,58,0,57
1,58,90,1
1,60,91,122
1,62,0,2
1,58,0,54
1,65,94,1
1,57,94,59
1,60,0,63
1,57,0,57
1,65,0,0
1,58,94,4
1,62,90,59
1,58,0,58
1,58,91,1
1,60,91,118
1,62,0,3
1,58,0,53
1,65,86,4
1,57,94,60
1,60,0,60
1,65,0,58
1,57,0,2
1,57,93,1
1,58,91,59
1,57,0,60
1,55,91,4
1,53,86,118
1,55,0,4
1,58,0,53
1,58,91,1
1,58,0,59
1,57,91,2
1,57,0,60
1,55,93,1
1,53,0,2
1,57,90,57
1,57,0,62
1,58,90,1
1,55,0,57
1,53,88,2
1,53,0,117
1,53,86,1
1,58,0,60
1,58,88,1
1,58,0,58
1,57,94,2
1,58,97,58
1,57,0,2
1,58,0,17
1,57,86,2
1,58,91,19
1,57,0,2
1,58,0,17
1,53,0,1
1,58,88,4
1,62,87,58
1,58,0,60
1,58,89,1
1,60,89,120
1,62,0,1
1,65,86,56
1,58,0,62
1,57,90,1
1,60,0,62
1,65,0,54
1,58,86,3
1,57,0,3
1,62,90,58
1,58,0,58
1,58,87,1
1,60,91,58
1,62,0,64
1,65,93,58
1,58,0,56
1,57,87,2
1,60,0,2
1,57,0,119
1,65,0,2
1,57,87,0
1,58,93,59
1,57,0,60
1,55,88,0
1,55,0,119
1,53,91,0
1,58,0,59
1,58,86,1
1,57,88,59
1,58,0,1
1,53,0,59
1,57,0,1
1,55,94,0
1,58,92,63
1,63,90,56
1,58,0,6
1,55,0,55
1,55,92,3
1,55,0,58
1,57,95,1
1,63,0,56
1,63,93,4
1,57,0,2
1,63,0,56
1,62,88,2
1,63,89,19
1,62,0,2
1,63,0,17
1,62,91,0
1,62,0,18
1,60,89,3
1,62,92,59
1,60,0,2
1,62,0,58
1,58,86,1
1,62,90,59
1,58,0,59
1,58,92,4
1,60,93,116
1,62,0,3
1,65,90,61
1,58,0,1
1,57,89,56
1,60,0,59
1,57,0,62
1,58,87,1
1,65,0,2
1,62,86,55
1,58,0,61
1,58,92,1
1,60,86,118
1,62,0,1
1,65,92,61
1,58,0,2
1,57,94,58
1,60,0,60
1,57,0,57
1,57,87,1
1,65,0,1
1,58,92,61
1,57,0,55
1,55,94,4
1,53,90,119
1,55,0,2
1,58,0,58
1,58,93,3
1,57,91,59
1,58,0,2
1,53,0,56
1,57,0,2
1,55,98,1
1,57,94,60
1,57,0,58
1,58,87,2
1,53,86,58
1,55,0,3
1,53,0,116
1,53,89,4
1,58,0,57
1,58,91,1
1,58,0,61
1,57,93,1
1,58,93,59
1,57,0,3
1,57,89,14
1,58,0,4
1,57,0,15
1,58,91,4
1,62,88,17
1,58,0,1
1,53,0,3
1,65,88,60
1,62,0,57
1,62,88,1
1,62,0,121
1,60,88,1
1,65,0,56
1,65,90,1
1,60,0,58
1,60,87,1
1,60,0,113
1,65,0,4
1,62,94,5
1,65,88,58
1,62,0,62
1,62,86,2
1,60,91,120
1,62,0,2
1,65,0,53
1,65,94,1
1,60,0,62
1,60,92,1
1,60,0,116
1,62,91,4
1,65,0,55
1,65,89,5
1,62,0,57
1,62,94,1
1,62,0,114
1,60,88,9
1,65,0,58
1,65,92,1
1,60,0,58
1,60,90,1
1,60,0,120
1,58,87,2
1,65,0,56
1,65,88,4
1,58,0,59
1,58,90,1
1,58,0,119
1,58,92,1
1,64,87,57
1,65,0,1
1,58,0,57
1,58,87,1
1,58,0,54
1,65,93,6
1,57,98,1
1,64,0,2
1,57,0,56
1,57,90,5
1,65,0,57
1,60,93,2
1,57,0,58
1,57,94,1
1,57,0,116
1,55,94,6
1,60,0,57
1,60,86,1
1,55,0,59
1,55,94,1
1,55,0,118
1,57,91,2
1,60,0,58
1,60,86,1
1,57,0,59
1,57,87,1
1,57,0,118
1,55,93,5
1,60,0,57
1,60,93,3
1,55,0,56
1,55,87,1
1,55,0,116
1,57,86,7
1,60,0,56
1,60,86,1
1,57,0,60
1,57,86,1
1,57,0,117
1,57,89,1
1,60,0,61
1,60,92,1
1,57,0,55
1,57,87,4
1,57,0,118
1,57,88,3
1,60,0,57
1,62,93,3
1,57,0,58
1,55,90,3
1,51,93,58
1,55,0,2
1,62,0,1
1,57,95,0
1,55,94,17
1,57,0,4
1,57,87,15
1,55,0,3
1,57,0,19
1,55,92,1
1,55,0,18
1,57,94,3
1,55,90,16
1,57,0,3
1,57,89,17
1,55,0,1
1,57,0,19
1,55,93,0
1,55,0,20
1,57,88,1
1,57,0,18
1,51,0,2
1,53,88,3
1,53,0,28
1,55,90,2
1,53,93,27
1,55,0,3
1,53,0,55
1,57,87,5
1,57,0,60
1,60,92,0
1,57,94,57
1,57,0,121
1,55,94,2
1,63,92,58
1,60,0,2
1,57,88,56
1,55,0,6
1,58,86,114
1,57,0,2
1,62,94,59
1,63,0,3
1,58,0,56
1,58,86,1
1,58,0,120
1,56,86,1
1,65,93,60
1,62,0,1
1,56,0,58
1,56,93,1
1,56,0,116
1,55,88,3
1,65,0,61
1,62,93,2
1,55,0,55
1,55,88,1
1,55,0,115
1,55,91,9
1,63,91,57
1,62,0,5
1,55,0,57
1,55,91,1
1,57,88,118
1,55,0,3
1,63,0,54
1,63,89,1
1,57,0,62
1,57,89,1
1,57,0,118
1,58,89,0
1,63,0,60
1,62,90,1
1,58,0,57
1,58,90,1
1,58,0,61
1,57,98,0
1,62,0,2
1,62,99,1
1,60,90,11
1,62,0,3
1,60,0,13
1,58,89,1
1,58,0,17
1,60,86,0
1,57,0,10
1,58,87,3
1,60,0,3
1,62,91,58
1,58,0,58
1,58,86,3
1,60,91,120
1,62,0,1
1,65,93,56
1,57,90,62
1,58,0,2
1,60,0,57
1,65,0,58
1,57,0,4
1,58,97,0
1,62,96,60
1,58,0,58
1,58,103,1
1,60,100,118
1,62,0,5
1,65,99,56
1,57,96,58
1,58,0,3
1,60,0,58
1,57,0,58
1,57,101,1
1,65,0,2
1,58,98,61
1,57,0,55
1,55,97,3
1,55,0,118
1,53,103,5
1,58,0,57
1,58,96,2
1,58,0,58
1,57,104,1
1,57,0,59
1,55,101,1
1,53,0,2
1,58,102,57
1,58,0,62
1,63,97,0
1,55,0,60
1,55,97,1
1,57,107,56
1,55,0,5
1,57,0,53
1,63,0,2
1,63,101,1
1,63,0,57
1,62,98,4
1,63,102,18
1,62,0,2
1,63,0,17
1,62,103,4
1,62,0,20
1,60,98,0
1,62,105,59
1,60,0,2
1,62,0,57
1,58,98,1
1,62,97,62
1,58,0,56
1,58,102,1
1,60,105,61
1,62,0,63
1,65,99,58
1,58,0,54
1,57,99,3
1,60,0,1
1,57,0,117
1,65,0,3
1,58,96,1
1,62,104,59
1,58,0,59
1,58,104,1
1,60,102,59
1,62,0,63
1,65,104,59
1,58,0,55
1,60,0,5
1,57,98,1
1,57,0,120
1,65,0,0
1,57,102,1
1,58,101,59
1,55,99,58
1,57,0,4
1,55,0,114
1,53,103,2
1,58,0,61
1,58,100,2
1,58,0,59
1,57,104,0
1,53,0,56
1,55,102,1
1,57,0,3
1,57,101,60
1,58,103,58
1,57,0,1
1,55,0,58
1,53,100,3
1,53,0,119
1,53,99,1
1,58,0,58
1,58,98,1
1,57,104,58
1,58,0,1
1,57,0,58
1,58,106,1
1,58,0,21
1,57,96,0
1,58,101,19
1,57,0,1
1,58,0,17
1,58,103,2
1,53,0,1
1,62,101,59
1,58,0,58
1,58,100,6
1,58,0,118
1,58,104,1
1,62,0,55
1,60,96,4
1,58,0,60
1,57,102,2
1,57,0,116
1,57,101,1
1,58,102,60
1,60,0,3
1,57,0,55
1,55,98,4
1,55,0,119
1,55,97,1
1,58,0,56
1,57,98,3
1,54,104,58
1,55,0,5
1,54,0,54
1,57,0,3
1,55,102,1
1,55,0,58
1,63,97,1
1,67,99,58
1,63,0,59
1,63,97,1
1,63,0,117
1,63,101,6
1,67,0,58
1,65,104,3
1,62,104,56
1,63,0,4
1,62,0,115
1,62,96,4
1,63,102,58
1,65,0,3
1,60,100,60
1,62,0,1
1,60,0,115
1,60,98,1
1,63,0,60
1,62,97,3
1,60,0,53
1,59,101,6
1,59,0,59
1,62,0,0
1,60,104,1
1,60,0,58
1,55,98,0
1,63,103,63
1,55,0,56
1,55,96,4
1,53,96,120
1,55,0,1
1,63,0,58
1,62,103,1
1,53,0,58
1,53,98,1
1,53,0,115
1,62,0,4
1,62,101,1
1,63,96,57
1,62,0,1
1,63,0,61
1,62,102,1
1,60,99,59
1,62,0,2
1,60,0,56
1,58,98,1
1,58,0,62
1,57,98,0
1,55,99,57
1,57,0,4
1,55,0,57
1,58,103,0
1,58,0,17
1,57,97,0
1,58,102,12
1,57,0,3
1,58,0,10
1,57,104,4
1,58,104,14
1,57,0,2
1,62,102,57
1,58,0,60
1,58,98,4
1,62,0,117
1,60,102,3
1,65,101,59
1,58,0,59
1,57,103,0
1,60,0,62
1,65,0,58
1,57,0,1
1,58,98,0
1,62,97,61
1,58,0,57
1,58,104,1
1,62,0,120
1,60,98,0
1,65,104,59
1,58,0,59
1,57,99,3
1,60,0,57
1,57,0,59
1,65,0,0
1,57,104,1
1,58,101,61
1,57,0,56
1,55,102,4
1,53,96,119
1,55,0,1
1,58,0,59
1,58,98,1
1,58,0,58
1,57,102,5
1,53,0,54
1,55,105,2
1,57,0,2
1,58,99,61
1,58,0,61
1,63,103,0
1,55,0,56
1,55,99,1
1,55,0,56
1,57,107,3
1,57,0,62
1,63,0,0
1,63,102,1
1,63,0,56
1,62,98,3
1,63,97,18
1,62,0,4
1,63,0,18
1,62,101,0
1,60,104,19
1,62,0,2
1,60,0,56
1,62,109,1
1,62,0,61
1,58,103,2
1,62,99,58
1,58,0,58
1,58,102,1
1,60,102,61
1,62,0,59
1,65,100,60
1,58,0,54
1,60,0,5
1,57,99,2
1,65,0,118
1,57,0,2
1,58,102,1
1,62,102,59
1,58,0,60
1,58,99,1
1,60,107,59
1,62,0,60
1,65,100,59
1,60,0,59
1,58,0,2
1,57,98,2
1,65,0,116
1,57,0,3
1,57,104,1
1,58,102,58
1,57,0,60
1,55,98,3
1,53,96,116
1,55,0,2
1,58,0,57
1,58,102,3
1,57,103,59
1,58,0,1
1,53,0,57
1,57,0,2
1,55,104,3
1,57,97,58
1,58,99,58
1,57,0,3
1,53,102,57
1,55,0,6
1,53,0,112
1,53,102,3
1,58,0,58
1,58,101,5
1,57,99,59
1,58,0,2
1,58,107,56
1,57,0,1
1,58,0,17
1,57,100,2
1,58,104,19
1,57,0,3
1,58,0,16
1,53,0,0
1,58,102,1
1,62,96,63
1,58,0,55
1,58,103,6
1,58,0,118
1,58,99,1
1,63,102,57
1,62,0,3
1,58,0,60
1,58,97,1
1,58,0,115
1,58,97,1
1,63,0,61
1,60,96,1
1,58,0,57
1,56,102,2
1,60,0,120
1,56,0,2
1,60,100,0
1,65,100,59
1,60,0,53
1,60,98,6
1,60,0,116
1,60,100,5
1,65,0,59
1,62,101,3
1,58,98,56
1,60,0,4
1,58,0,115
1,58,98,1
1,62,0,64
1,63,99,0
1,58,0,56
1,58,104,4
1,58,0,120
1,60,96,0
1,63,0,56
1,63,98,1
1,60,0,61
1,60,103,1
1,56,104,117
1,60,0,3
1,63,0,56
1,62,102,3
1,56,0,59
1,56,99,1
1,63,98,58
1,62,0,3
1,56,0,59
1,56,86,1
1,55,88,60
1,56,0,1
1,58,94,56
1,63,0,118
1,58,0,2
1,63,86,0
1,55,0,3
1,67,88,61
1,63,0,56
1,63,94,1
1,63,0,61
1,60,86,59
1,67,0,58
1,67,89,1
1,60,0,62
1,60,88,2
1,60,0,117
1,60,93,1
1,67,0,56
1,67,90,4
1,60,0,55
1,60,91,4
1,60,0,118
1,60,91,4
1,67,0,58
1,67,91,1
1,60,0,57
1,60,94,1
1,60,0,116
1,60,90,7
1,67,0,55
1,67,86,2
1,60,0,62
1,60,91,1
1,60,0,118
1,62,93,3
1,67,0,56
1,65,89,1
1,62,0,58
1,62,86,1
1,62,0,114
1,62,92,10
1,65,0,55
1,65,89,5
1,62,0,58
1,62,90,1
1,58,86,121
1,62,0,1
1,65,0,58
1,65,88,1
1,58,0,57
1,58,89,1
1,58,0,117
1,58,87,1
1,65,0,61
1,65,89,1
1,58,0,54
1,58,88,6
1,58,0,122
1,60,94,0
1,65,0,57
1,63,92,2
1,60,0,60
1,60,87,1
1,60,0,116
1,60,92,1
1,63,0,61
1,63,92,1
1,60,0,52
1,60,93,5
1,60,0,121
1,57,94,0
1,63,0,58
1,63,92,5
1,57,0,55
1,57,91,1
1,57,0,121
1,57,90,1
1,63,0,61
1,63,92,1
1,57,0,57
1,57,87,1
1,57,0,116
1,58,93,2
1,63,0,60
1,62,88,3
1,58,0,57
1,58,93,1
1,58,0,117
1,58,88,2
1,62,0,60
1,62,89,1
1,58,0,58
1,58,88,5
1,55,89,118
1,58,0,1
1,62,0,58
1,62,86,1
1,55,0,61
1,55,92,1
1,55,0,119
1,55,88,1
1,62,0,56
1,62,94,1
1,55,0,61
1,55,87,1
1,55,0,117
1,57,89,4
1,62,0,53
1,60,87,5
1,57,0,59
1,57,88,1
1,57,0,119
1,57,93,3
1,60,0,55
1,60,92,1
1,57,0,62
1,57,92,1
1,57,0,114
1,53,89,6
1,60,0,55
1,60,90,3
1,53,0,62
1,53,90,1
1,53,0,117
1,53,87,1
1,60,0,58
1,58,92,3
1,53,0,54
1,53,87,4
1,53,0,117
1,55,91,2
1,58,0,60
1,58,93,1
1,55,0,60
1,55,94,3
1,53,90,117
1,55,0,5
1,58,0,49
1,58,86,5
1,53,0,60
1,53,94,2
1,53,0,122
1,51,88,0
1,58,0,55
1,58,90,2
1,51,0,58
1,51,92,1
1,51,0,112
1,53,94,8
1,58,0,63
1,58,87,1
1,53,0,57
1,53,91,2
1,53,0,118
1,55,93,1
1,58,0,59
1,58,90,1
1,55,0,58
1,55,94,4
1,51,87,116
1,55,0,4
1,58,0,52
1,58,86,6
1,51,0,58
1,51,87,1
1,51,0,119
1,53,94,1
1,57,90,59
1,58,0,4
1,53,0,56
1,53,88,4
1,53,0,115
1,53,93,1
1,58,87,61
1,57,0,1
1,53,0,57
1,53,86,5
1,55,90,118
1,53,0,3
1,58,0,54
1,58,94,1
1,55,0,60
1,55,89,2
1,55,0,120
1,53,89,0
1,58,0,57
1,58,90,5
1,53,0,57
1,53,87,1
1,51,88,118
1,53,0,3
1,58,0,57
1,58,88,1
1,51,0,57
1,51,89,3
1,55,91,119
1,51,0,3
1,58,0,54
1,58,89,7
1,55,0,56
1,55,92,2
1,53,94,118
1,55,0,4
1,58,0,58
1,58,86,1
1,53,0,59
1,53,88,1
1,53,0,119
1,53,93,1
1,58,0,54
1,58,87,7
1,57,91,58
1,58,0,4
1,58,91,54
1,57,0,2
1,58,0,11
1,57,92,6
1,58,87,14
1,57,0,3
1,58,0,25
1,58,86,1
1,53,0,1
1,62,93,59
1,58,0,58
1,58,92,1
1,62,0,119
1,60,93,4
1,65,90,56
1,58,0,61
