track,note,velocity,time
1,43,75,198
1,55,87,2
1,74,79,48
1,50,51,64
1,67,84,0
1,79,85,0
1,59,44,10
1,55,59,2
1,74,84,32
1,55,79,18
1,48,69,2
1,76,91,14
1,79,94,4
1,67,82,4
1,60,75,96
1,55,67,10
1,52,60,8
1,76,81,36
1,79,96,10
1,67,89,0
1,43,80,0
1,74,76,22
1,55,69,60
1,59,47,8
1,76,93,4
1,79,97,38
1,74,87,4
1,67,73,6
1,59,83,96
1,47,69,0
1,74,84,6
1,74,103,50
1,79,110,2
1,67,105,2
1,58,105,4
1,46,93,0
1,52,69,28
1,57,91,38
1,45,69,8
1,72,85,16
1,60,71,90
1,64,84,6
1,76,87,0
1,52,55,12
1,57,57,4
1,69,82,46
1,47,64,18
1,71,81,6
1,76,108,72
1,64,99,0
1,62,89,0
1,56,72,14
1,52,63,0
1,71,82,58
1,76,84,50
1,45,96,6
1,64,91,2
1,69,81,0
1,60,66,38
1,52,71,4
1,57,55,8
1,72,75,0
1,72,66,64
1,69,86,4
1,76,97,0
1,64,74,8
1,57,93,84
1,45,85,0
1,69,91,44
1,75,99,84
1,46,98,0
1,58,101,0
1,61,106,2
1,63,61,6
1,62,94,140
1,74,97,0
1,47,57,4
1,59,75,2
1,67,77,34
1,59,52,8
1,55,64,10
1,71,67,12
1,76,105,12
1,64,84,6
1,73,40,12
1,40,89,38
1,71,84,14
1,62,88,52
1,56,72,12
1,68,97,2
1,64,92,30
1,61,97,12
1,45,83,6
1,67,91,20
1,55,65,42
1,69,82,4
1,57,46,4
1,52,58,8
1,71,69,68
1,67,54,2
1,61,61,10
1,45,91,86
1,70,86,30
1,71,68,18
1,57,61,10
1,67,80,0
1,61,75,0
1,52,65,4
1,55,52,4
1,50,89,14
1,38,67,8
1,66,86,4
1,60,83,0
1,51,103,96
1,39,87,10
1,72,98,40
1,50,97,8
1,38,87,8
1,66,110,52
1,60,108,6
1,51,109,86
1,39,96,8
1,72,109,0
1,50,115,0
1,38,113,4
1,74,109,48
1,62,103,0
1,51,102,72
1,39,85,8
1,75,92,68
1,63,79,2
1,52,94,80
1,40,83,2
1,64,76,84
1,76,84,2
1,54,83,76
1,42,70,4
1,66,66,94
1,78,66,0
1,55,59,40
1,43,43,6
1,74,78,34
1,79,84,66
1,59,55,0
1,67,72,4
1,55,44,10
1,74,87,46
1,48,79,10
1,55,77,2
1,76,93,18
1,79,111,68
1,67,110,0
1,60,89,50
1,52,75,14
1,55,79,4
1,76,98,36
1,79,97,14
1,67,88,0
1,47,72,10
1,74,59,34
1,50,64,56
1,76,85,4
1,59,19,14
1,74,69,50
1,79,84,2
1,67,58,10
1,47,61,84
1,59,40,14
1,74,67,54
1,79,76,48
1,58,79,0
1,46,74,2
1,67,74,4
1,74,34,2
1,52,59,30
1,45,59,0
1,57,70,2
1,72,49,12
1,57,68,84
1,60,63,2
1,52,54,4
1,64,64,6
1,76,68,0
1,69,84,38
1,47,65,56
1,71,74,12
1,76,105,22
1,64,91,4
1,62,89,56
1,56,76,10
1,52,63,8
1,71,75,58
1,76,77,48
1,45,89,0
1,64,66,8
1,69,64,32
1,60,61,20
1,57,68,6
1,52,55,6
1,72,64,4
1,72,52,60
1,69,82,0
1,76,92,2
1,64,75,2
1,45,68,82
1,57,69,2
1,69,71,22
1,63,99,34
1,75,102,0
1,58,110,10
1,61,103,0
1,46,92,4
1,74,99,118
1,62,100,2
1,59,88,2
1,47,62,4
1,67,74,12
1,59,50,76
1,55,72,4
1,71,48,0
1,64,105,12
1,76,111,0
1,44,86,88
1,56,93,0
1,71,80,12
1,56,74,56
1,68,95,8
1,64,89,70
1,61,97,10
1,45,94,8
1,67,64,86
1,52,69,20
1,57,41,2
1,55,44,0
1,69,50,10
1,71,59,30
1,61,62,4
1,67,69,2
1,38,73,84
1,66,68,32
1,54,69,38
1,69,57,4
1,57,63,4
1,60,56,0
1,43,59,62
1,59,52,4
1,67,66,2
1,62,76,24
1,50,68,2
1,64,89,42
1,52,82,0
1,62,97,38
1,66,101,28
1,60,106,2
1,50,93,0
1,38,80,10
1,59,107,14
1,67,117,0
1,43,100,10
1,79,112,254
1,67,119,0
1,71,101,0
1,74,110,4
1,31,111,2
1,43,106,2
1,50,88,138
1,55,112,58
1,43,95,8
1,67,78,4
1,71,78,12
1,74,88,12
1,67,108,6
1,79,113,2
1,50,82,8
1,59,75,2
1,55,65,6
1,74,94,40
1,55,73,54
1,76,104,8
1,48,59,6
1,67,115,28
1,79,115,2
1,60,88,68
1,55,72,10
1,52,75,2
1,76,97,64
1,67,95,50
1,79,88,2
1,47,64,10
1,74,66,40
1,54,28,10
1,76,79,34
1,55,16,10
1,76,78,36
1,67,93,6
1,79,97,2
1,74,89,2
1,47,64,78
1,59,77,6
1,76,70,50
1,74,74,0
1,74,101,32
1,67,119,6
1,79,113,0
1,46,115,2
1,58,121,0
1,76,116,4
1,52,89,6
1,57,112,16
1,45,96,2
1,69,80,12
1,72,77,0
1,76,100,32
1,64,94,0
1,60,81,6
1,57,80,2
1,52,81,0
1,69,87,30
1,71,84,6
1,47,61,2
1,76,112,18
1,64,109,2
1,71,43,2
1,62,96,24
1,56,88,6
1,71,84,50
1,76,96,36
1,64,96,0
1,45,92,2
1,69,71,6
1,60,67,66
1,57,67,2
1,72,72,2
1,52,59,10
1,69,92,62
1,76,99,4
1,72,59,0
1,64,83,4
1,45,82,68
1,57,64,18
1,69,76,24
1,63,98,34
1,70,108,6
1,75,90,0
1,61,106,4
1,46,100,2
1,58,112,0
1,62,89,72
1,47,75,0
1,74,94,4
1,64,81,14
1,59,54,2
1,57,66,2
1,67,89,14
1,55,84,4
1,59,59,8
1,71,73,4
1,71,78,40
1,64,101,2
1,76,110,0
1,68,95,2
1,56,97,92
1,44,94,0
1,71,75,48
1,56,22,8
1,59,69,58
1,68,100,2
1,64,76,68
1,61,96,54
1,45,82,8
1,67,35,34
1,69,64,32
1,71,70,56
1,67,62,0
1,61,77,0
1,46,43,22
1,45,86,0
1,70,67,46
1,71,52,50
1,61,65,2
1,67,73,4
1,55,34,0
1,38,72,4
1,50,75,2
1,66,74,10
1,60,67,4
1,51,98,36
1,39,84,8
1,72,105,78
1,50,111,60
1,38,95,8
1,66,110,10
1,60,99,4
1,51,118,88
1,39,101,8
1,72,110,92
1,50,119,90
1,38,117,6
1,62,102,56
1,74,107,0
1,51,100,50
1,39,87,8
1,75,86,52
1,63,77,0
1,52,103,66
1,40,91,8
1,76,85,72
1,64,60,4
1,42,83,74
1,54,87,0
1,66,67,72
1,78,67,2
1,55,83,72
1,43,60,4
1,74,89,54
1,50,68,64
1,59,60,0
1,79,95,2
1,67,88,0
1,55,57,6
1,74,94,56
1,48,76,54
1,55,91,0
1,76,102,10
1,79,112,44
1,67,109,0
1,60,96,98
1,55,85,2
1,52,81,8
1,76,101,50
1,79,96,32
1,67,97,0
1,43,81,0
1,74,67,54
1,55,63,58
1,59,47,0
1,50,58,2
1,76,86,2
1,79,88,58
1,67,72,4
1,74,67,2
1,59,72,92
1,47,62,2
1,74,84,46
1,74,115,44
1,79,117,2
1,67,119,0
1,58,118,0
1,46,111,2
1,52,86,12
1,57,111,24
1,45,100,6
1,72,87,46
1,57,50,48
1,60,73,0
1,76,92,2
1,64,84,4
1,52,52,12
1,69,92,48
1,44,84,46
1,71,79,0
1,76,110,24
1,64,101,2
1,71,72,6
1,62,101,84
1,56,81,12
1,52,68,4
1,71,78,74
1,76,98,62
1,64,95,0
1,45,84,0
1,69,80,34
1,60,66,64
1,57,73,0
1,72,81,6
1,52,49,14
1,69,94,58
1,76,101,2
1,72,49,4
1,64,84,0
1,57,87,84
1,45,74,6
1,69,81,22
1,75,90,48
1,70,106,0
1,58,116,0
1,46,106,2
1,61,104,2
1,63,67,0
1,74,101,38
1,62,103,2
1,59,85,4
1,47,67,4
1,67,87,18
1,55,73,24
1,59,38,8
1,71,78,0
1,64,101,38
1,76,107,0
1,40,95,94
1,38,65,0
1,71,80,48
1,68,102,58
1,56,2,0
1,62,72,4
1,60,45,18
1,64,89,36
1,61,97,64
1,45,87,4
1,67,71,6
1,52,67,56
1,57,37,2
1,55,34,2
1,69,42,0
1,71,64,44
1,67,70,6
1,61,56,4
1,38,83,84
1,66,68,84
1,54,75,44
1,57,82,2
1,69,61,0
1,60,65,6
1,43,72,72
1,67,70,0
1,59,59,6
1,50,66,0
1,62,80,8
1,64,84,10
1,52,88,4
1,62,78,42
1,50,88,42
1,38,84,2
1,66,95,2
1,60,97,2
1,67,110,24
1,59,96,2
1,43,95,10
1,79,108,168
1,71,93,2
1,67,110,2
1,31,97,2
1,74,102,2
1,43,95,4
1,72,101,370
1,45,88,0
1,78,75,96
1,74,80,2
1,60,68,8
1,54,64,4
1,62,41,2
1,69,84,28
1,38,83,110
1,72,80,4
1,76,96,0
1,60,66,100
1,54,66,10
1,66,81,6
1,62,48,0
1,72,70,78
1,69,64,8
1,45,74,84
1,64,75,0
1,60,78,48
1,54,69,10
1,69,68,82
1,66,64,6
1,38,74,94
1,62,91,48
1,60,59,50
1,54,65,2
1,64,88,12
1,66,77,70
1,59,47,50
1,43,64,2
1,67,68,0
1,69,99,70
1,55,65,2
1,60,78,0
1,59,19,8
1,71,76,0
1,62,71,6
1,38,71,96
1,50,76,10
1,67,80,42
1,71,45,38
1,62,63,6
1,55,64,0
1,59,36,4
1,50,63,4
1,67,42,14
1,50,75,34
1,43,70,4
1,67,93,74
1,74,82,8
1,59,61,86
1,55,75,0
1,50,53,6
1,71,59,72
1,66,71,88
1,74,79,0
1,43,63,2
1,55,74,0
1,56,80,86
1,74,85,2
1,64,71,2
1,71,64,2
1,44,60,2
1,50,80,30
1,57,84,44
1,45,72,2
1,72,79,2
1,78,70,44
1,74,78,12
1,58,55,14
1,60,74,18
1,69,82,62
1,38,88,92
1,72,83,2
1,76,89,0
1,60,76,64
1,54,66,4
1,66,81,6
1,72,70,78
1,69,55,10
1,45,85,78
1,64,79,12
1,60,78,92
1,54,75,8
1,66,72,76
1,69,74,0
1,38,89,10
1,50,83,6
1,62,62,4
1,54,73,42
1,60,59,6
1,64,54,18
1,66,81,56
1,50,65,22
1,67,94,60
1,59,68,8
1,43,72,4
1,69,96,10
1,60,80,2
1,59,79,62
1,71,93,2
1,55,87,2
1,62,103,0
1,50,74,2
1,67,103,44
1,42,84,18
1,69,101,6
1,54,89,2
1,74,110,42
1,62,108,0
1,54,12,20
1,60,105,38
1,54,97,2
1,69,101,32
1,74,103,18
1,62,106,2
1,43,81,12
1,67,88,74
1,55,74,44
1,71,72,16
1,76,116,46
1,71,87,4
1,64,106,2
1,47,58,76
1,59,69,10
1,57,65,18
1,71,78,32
1,71,108,36
1,77,123,0
1,65,120,0
1,44,106,8
1,56,118,2
1,46,38,38
1,50,86,0
1,45,95,30
1,72,101,10
1,57,101,4
1,78,97,42
1,74,100,4
1,60,65,86
1,54,73,2
1,62,61,4
1,69,94,44
1,38,90,96
1,72,91,2
1,76,100,0
1,66,75,118
1,60,70,2
1,54,78,6
1,62,49,6
1,72,74,52
1,69,60,12
1,45,91,80
1,64,80,22
1,60,83,62
1,54,71,8
1,66,70,72
1,69,78,0
1,38,94,90
1,62,84,76
1,60,74,10
1,54,67,10
1,64,74,8
1,66,72,28
1,59,69,18
1,67,82,4
1,43,59,8
1,59,46,16
1,69,90,4
1,55,64,0
1,71,80,20
1,62,76,8
1,43,76,84
1,67,81,44
1,71,67,52
1,55,79,2
1,62,72,4
1,59,38,10
1,67,59,8
1,55,66,58
1,43,16,22
1,74,80,36
1,67,67,8
1,56,80,12
1,44,66,10
1,71,60,16
1,66,72,102
1,57,77,6
1,45,74,4
1,74,52,10
1,74,64,6
1,71,29,12
1,65,73,2
1,47,48,2
1,59,57,4
1,48,63,138
1,76,95,60
1,67,66,2
1,60,66,82
1,62,45,6
1,52,50,10
1,72,81,48
1,76,106,12
1,67,87,8
1,48,76,10
1,55,67,2
1,70,114,10
1,75,109,0
1,67,91,0
1,58,113,6
1,49,90,4
1,59,93,24
1,50,89,4
1,67,101,52
1,71,102,0
1,74,109,4
1,59,79,40
1,55,93,6
1,71,88,12
1,76,115,10
1,59,83,6
1,52,80,6
1,71,93,8
1,68,98,24
1,56,85,10
1,47,50,20
1,64,104,8
1,61,103,18
1,45,91,14
1,67,76,18
1,55,51,16
1,52,35,12
1,69,67,2
1,67,84,48
1,71,59,4
1,61,69,0
1,38,81,68
1,66,75,26
1,54,56,58
1,69,88,16
1,57,73,0
1,60,82,4
1,67,106,22
1,59,94,2
1,55,95,4
1,43,79,8
1,79,111,24
1,71,96,0
1,67,112,2
1,74,105,0
1,31,98,8
1,43,98,2
1,72,93,138
1,57,95,12
1,45,87,0
1,74,95,42
1,78,72,14
1,60,42,10
1,62,71,12
1,54,61,6
1,69,88,12
1,72,85,38
1,76,89,0
1,38,78,6
1,60,66,130
1,62,70,6
1,78,79,2
1,54,61,4
1,84,81,14
1,81,72,6
1,54,61,74
1,45,73,4
1,76,83,36
1,60,56,6
1,62,35,6
1,54,60,0
1,78,61,14
1,81,67,4
1,38,89,76
1,62,94,48
1,54,86,60
1,64,87,14
1,66,86,36
1,50,13,56
1,59,79,14
1,67,91,6
1,43,72,2
1,69,103,98
1,60,88,2
1,55,67,6
1,59,54,0
1,50,56,10
1,71,78,26
1,62,76,10
1,38,85,88
1,50,49,16
1,67,79,2
1,55,74,50
1,71,55,0
1,67,54,0
1,62,62,4
1,50,68,0
1,59,46,0
1,50,57,14
1,43,77,92
1,79,91,44
1,86,92,2
1,74,27,22
1,59,60,74
1,55,74,2
1,50,62,0
1,83,64,12
1,86,97,30
1,83,75,0
1,43,73,4
1,55,89,0
1,78,67,4
1,74,60,0
1,86,100,42
1,56,93,0
1,83,83,2
1,44,83,0
1,76,100,8
1,50,87,28
1,45,80,16
1,57,91,6
1,72,78,4
1,78,79,32
1,74,85,4
1,60,75,90
1,54,67,2
1,62,67,0
1,69,87,38
1,72,85,100
1,38,81,10
1,76,84,0
1,60,85,142
1,54,67,6
1,66,80,2
1,69,66,60
1,72,73,0
1,45,84,96
1,64,80,0
1,60,82,64
1,54,72,10
1,69,88,44
1,66,77,0
1,42,12,38
1,38,91,24
1,50,85,12
1,62,100,16
1,54,76,26
1,64,91,14
1,66,94,50
1,67,104,26
1,59,85,0
1,43,68,6
1,50,67,2
1,69,111,48
1,60,89,6
1,71,100,38
1,59,81,2
1,62,110,0
1,55,92,4
1,67,102,88
1,69,100,48
1,38,82,8
1,66,86,4
1,66,91,14
1,62,81,0
1,74,100,8
1,64,87,8
1,60,102,54
1,54,97,10
1,69,101,32
1,74,106,86
1,67,106,0
1,50,79,6
1,43,78,6
1,62,80,16
1,55,68,8
1,67,94,2
1,59,46,4
1,76,117,54
1,71,100,4
1,64,109,2
1,59,87,78
1,47,68,4
1,71,80,12
1,77,117,26
1,71,99,6
1,65,100,2
1,56,103,4
1,44,92,0
1,64,79,6
1,76,47,8
1,50,88,8
1,72,109,32
1,45,92,2
1,57,105,4
1,78,78,50
1,74,93,0
1,60,37,40
1,62,71,12
1,54,57,8
1,69,85,52
1,72,83,82
1,76,95,2
1,38,69,6
1,66,78,102
1,60,60,6
1,62,51,6
1,54,39,18
1,69,66,44
1,72,64,0
1,45,74,102
1,64,69,4
1,60,76,110
1,54,68,8
1,66,54,62
1,69,55,8
1,38,80,92
1,62,65,8
1,60,70,8
1,54,71,6
1,64,70,0
1,66,76,12
1,50,2,18
1,67,68,14
1,59,55,2
1,43,66,4
1,69,91,48
1,59,47,0
1,55,58,10
1,60,51,4
1,50,46,6
1,71,77,44
1,62,71,10
1,38,74,96
1,50,69,10
1,67,43,44
1,71,46,12
1,62,53,20
1,59,37,8
1,55,83,60
1,43,36,16
1,74,80,18
1,62,73,2
1,67,79,2
1,56,106,28
1,44,88,8
1,71,83,58
1,66,92,56
1,74,93,6
1,57,97,12
