track,note,velocity,time
0,42,46,0
0,42,31,93
0,42,31,93
0,42,31,93
0,42,46,93
0,42,31,93
0,81,84,49
0,80,82,46
0,71,70,1
0,64,70,0
0,78,78,43
0,76,96,42
0,62,68,0
0,74,84,1
0,76,80,9
0,68,56,0
0,71,88,1
0,61,38,0
0,69,70,162
0,71,88,1
0,69,84,1
0,54,68,2
0,57,58,24
0,61,42,22
0,64,62,25
0,76,84,25
0,66,48,0
0,62,54,1
0,61,46,0
0,59,62,0
0,68,96,37
0,71,80,22
0,71,84,1
0,80,102,0
0,64,78,1
0,78,88,48
0,76,92,0
0,62,54,1
0,74,92,45
0,76,80,1
0,71,84,0
0,61,64,1
0,68,82,113
0,69,92,23
0,71,96,1
0,69,92,1
0,54,82,1
0,57,60,13
0,61,60,24
0,64,88,26
0,61,96,1
0,62,100,10
0,47,68,3
0,54,60,22
0,57,60,22
0,59,62,27
0,62,88,1
0,69,84,24
0,78,116,23
0,81,84,24
0,71,96,2
0,80,72,0
0,52,70,1
0,78,52,47
0,69,84,1
0,76,66,47
0,68,68,0
0,50,60,1
0,66,72,47
0,74,84,0
0,68,68,1
0,76,74,0
0,49,64,0
0,71,84,0
0,56,72,47
0,59,78,23
0,64,100,25
0,66,82,22
0,68,78,1
0,71,70,1
0,69,78,0
0,64,80,0
0,42,64,2
0,52,74,48
0,57,88,24
0,66,102,25
0,64,84,1
0,62,22,31
0,66,38,1
0,73,110,1
0,47,62,0
0,57,56,0
0,71,88,0
0,73,82,0
0,69,70,2
0,66,48,1
0,74,62,0
0,52,46,1
0,40,70,97
0,73,60,47
0,61,80,3
0,69,48,0
0,64,54,0
0,45,70,1
0,52,56,24
0,57,52,24
0,61,80,1
0,61,62,6
0,69,54,7
0,61,86,0
0,61,94,6
0,61,94,2
0,65,74,2
0,45,62,2
0,53,60,4
0,61,108,0
0,61,94,14
0,57,60,2
0,61,26,5
0,61,94,0
0,69,58,8
0,59,90,0
0,57,82,1
0,66,78,1
0,45,80,2
0,54,60,14
0,57,80,11
0,61,94,0
0,61,38,11
0,61,76,2
0,69,68,1
0,59,90,1
0,57,82,2
0,66,94,0
0,64,62,1
0,45,70,1
0,55,80,3
0,64,90,2
0,61,34,3
0,64,62,19
0,61,86,2
0,69,58,18
0,67,78,1
0,59,90,23
0,57,86,0
0,62,54,1
0,66,72,0
0,50,62,1
0,57,68,20
0,66,76,1
0,62,54,3
0,66,58,12
0,66,56,1
0,66,100,11
0,69,80,2
0,66,108,8
0,66,108,4
0,70,88,2
0,50,54,0
0,58,60,2
0,66,80,2
0,62,66,5
0,66,86,0
0,66,40,4
0,66,58,1
0,70,52,1
0,64,104,1
0,66,66,0
0,64,82,9
0,62,66,1
0,66,80,44
0,71,74,0
0,50,70,1
0,59,66,17
0,62,56,19
0,66,32,19
0,71,74,19
0,62,36,2
0,58,20,2
0,66,60,1
0,50,58,1
0,70,56,1
0,69,74,1
0,66,108,0
0,57,66,1
0,66,64,0
0,62,46,0
0,64,82,16
0,62,78,1
0,68,46,15
0,59,40,1
0,64,62,0
0,64,62,1
0,68,68,0
0,49,60,0
0,71,78,0
0,64,90,1
0,56,56,41
0,59,58,1
0,64,74,3
0,66,80,2
0,71,80,1
0,57,82,0
0,61,26,0
0,69,62,1
0,69,62,1
0,61,46,0
0,42,42,1
0,49,46,40
0,52,60,25
0,57,56,2
0,57,82,1
0,59,84,25
0,59,108,2
0,61,96,1
0,61,94,2
0,57,92,4
0,47,70,0
0,62,54,2
0,66,56,0
0,61,100,2
0,54,34,39
0,59,84,2
0,59,94,0
0,59,92,1
0,59,104,4
0,57,68,17
0,62,88,25
0,66,46,23
0,69,74,24
0,68,64,7
0,64,68,0
0,68,68,1
0,52,60,0
0,66,48,44
0,68,86,2
0,66,94,22
0,64,74,2
0,50,46,0
0,62,58,1
0,64,90,1
0,62,66,1
0,62,90,2
0,64,70,5
0,49,60,1
0,64,90,0
0,59,78,0
0,56,88,46
0,59,78,3
0,71,100,2
0,64,74,42
0,66,86,1
0,69,68,4
0,64,60,0
0,42,52,1
0,61,48,0
0,69,66,0
0,57,90,1
0,61,56,0
0,49,30,15
0,52,54,26
0,57,58,4
0,61,68,29
0,57,82,36
0,61,80,1
0,66,64,1
0,69,66,0
0,62,58,0
0,62,68,1
0,47,62,0
0,66,64,0
0,54,42,8
0,57,70,23
0,59,94,0
0,59,66,2
0,59,94,4
0,62,78,22
0,69,84,1
0,61,108,0
0,57,36,0
0,66,72,1
0,62,68,0
0,59,66,0
0,52,44,2
0,62,90,1
0,57,62,0
0,61,28,16
0,61,94,2
0,46,64,1
0,64,78,2
0,33,90,3
0,64,60,0
0,57,78,0
0,64,68,0
0,36,96,0
0,42,78,0
0,45,58,1
0,61,64,0
0,57,60,0
0,52,52,21
0,57,62,1
0,42,78,0
0,61,86,1
0,61,64,1
0,61,80,2
0,37,102,5
0,42,86,0
0,69,96,1
0,61,100,0
0,42,86,0
0,61,40,1
0,61,94,0
0,61,100,4
0,33,90,3
0,65,78,0
0,45,58,1
0,65,84,0
0,65,88,0
0,36,92,0
0,42,92,0
0,53,44,4
0,61,94,2
0,57,68,3
0,61,100,2
0,42,64,0
0,61,60,3
0,61,100,1
0,37,102,13
0,42,86,0
0,59,90,1
0,69,74,1
0,61,54,2
0,59,72,11
0,57,68,5
0,46,78,3
0,45,78,2
0,66,82,0
0,36,96,0
0,42,86,0
0,66,60,0
0,66,82,1
0,33,86,1
0,54,56,16
0,61,100,3
0,42,72,1
0,57,56,1
0,61,22,2
0,61,86,1
0,37,102,4
0,69,66,1
0,42,86,0
0,59,104,1
0,61,48,2
0,57,86,0
0,42,78,1
0,66,108,1
0,67,50,1
0,45,62,1
0,64,42,1
0,33,90,1
0,67,88,0
0,36,92,1
0,42,86,0
0,67,96,1
0,55,66,4
0,64,90,3
0,61,56,9
0,42,86,0
0,64,70,1
0,64,58,1
0,61,108,1
0,69,84,1
0,37,102,0
0,42,78,0
0,59,94,19
0,61,30,1
0,57,108,0
0,46,86,0
0,66,78,44
0,62,60,0
0,69,84,0
0,42,86,0
0,36,86,1
0,38,86,1
0,50,78,0
0,66,68,0
0,62,60,0
0,57,62,13
0,66,76,4
0,62,66,15
0,66,108,1
0,42,72,0
0,66,68,8
0,66,94,4
0,69,84,11
0,37,102,0
0,42,86,0
0,66,94,1
0,66,94,5
0,62,60,1
0,36,82,0
0,42,72,0
0,66,80,2
0,70,96,1
0,58,72,1
0,62,54,1
0,70,38,0
0,50,74,0
0,38,80,1
0,66,40,0
0,66,94,0
0,36,86,0
0,42,86,0
0,58,48,20
0,66,80,6
0,42,78,0
0,62,42,1
0,66,80,4
0,66,46,1
0,64,94,12
0,37,96,2
0,42,86,0
0,70,102,1
0,66,58,1
0,64,66,11
0,62,78,0
0,46,86,5
0,71,80,0
0,66,52,1
0,62,50,0
0,62,90,0
0,50,52,1
0,59,96,0
0,36,96,0
0,42,78,0
0,38,90,1
0,71,96,1
0,59,68,18
0,64,82,1
0,66,108,0
0,42,64,0
0,62,58,1
0,66,32,1
0,37,102,0
0,71,96,1
0,42,72,0
0,36,78,0
0,42,64,0
0,62,50,1
0,70,68,2
0,58,88,1
0,36,92,0
0,42,86,0
0,38,100,1
0,50,74,1
0,62,52,0
0,58,60,0
0,66,64,0
0,70,102,0
0,42,58,10
0,66,69,22
0,69,80,0
0,66,114,1
0,57,78,0
0,57,56,0
0,69,74,0
0,66,46,0
0,62,36,1
0,71,56,0
0,37,102,0
0,42,86,0
0,64,77,4
0,46,64,10
0,38,90,1
0,62,90,1
0,42,40,6
0,49,56,2
0,68,78,0
0,59,74,0
0,64,84,0
0,68,78,1
0,64,66,0
0,36,92,0
0,42,78,0
0,68,68,1
0,37,106,1
0,64,104,0
0,56,40,15
0,59,58,26
0,42,58,0
0,61,82,18
0,64,80,1
0,37,96,2
0,42,92,0
0,71,96,1
0,61,78,0
0,64,78,1
0,42,86,2
0,66,100,1
0,61,20,1
0,69,84,9
0,69,66,1
0,61,60,0
0,30,106,2
0,69,84,0
0,42,42,1
0,36,92,0
0,42,86,0
0,57,94,1
0,49,42,43
0,42,78,2
0,52,68,22
0,57,54,22
0,37,102,0
0,42,78,1
0,61,68,1
0,57,104,0
0,59,98,0
0,64,68,1
0,42,72,1
0,69,70,1
0,61,100,0
0,36,70,3
0,35,96,1
0,47,56,1
0,61,72,0
0,59,76,0
0,62,70,1
0,36,92,0
0,42,86,0
0,66,68,1
0,61,100,1
0,59,94,38
0,54,20,1
0,42,78,0
0,57,38,1
0,59,108,4
0,66,96,3
0,62,88,1
0,59,74,0
0,37,102,1
0,42,92,0
0,59,58,1
0,61,94,0
0,46,78,3
0,62,98,20
0,59,66,4
0,57,46,0
0,62,60,0
0,66,56,0
0,52,50,0
0,40,86,2
0,36,96,0
0,42,86,0
0,42,72,45
0,36,86,6
0,59,46,1
0,37,112,0
0,42,102,0
0,61,72,0
0,40,86,1
0,61,96,1
0,61,114,0
0,46,102,0
0,57,96,0
0,36,102,0
0,49,96,0
0,38,90,0
0,38,84,0
0,57,100,0
0,57,104,0
0,57,60,19
0,81,66,21
0,62,56,1
0,69,104,0
0,42,78,0
0,69,98,8
0,69,110,1
0,66,116,9
0,69,106,0
0,54,102,0
0,69,98,0
0,38,102,0
0,42,92,1
0,57,56,1
0,42,86,0
0,69,104,3
0,61,34,12
0,80,88,0
0,68,72,1
0,64,96,1
0,68,72,0
0,59,92,0
0,64,84,0
0,37,106,1
0,49,78,0
0,68,115,0
0,68,126,0
0,36,102,0
0,42,92,0
0,69,110,41
0,81,78,0
0,69,80,1
0,69,98,0
0,42,92,0
0,69,88,1
0,69,114,9
0,69,110,1
0,64,96,0
0,61,52,19
0,38,112,3
0,42,102,0
0,57,78,1
0,61,52,3
0,64,80,1
0,37,106,1
0,49,48,1
0,42,92,0
0,69,66,1
0,69,84,0
0,36,92,3
0,80,88,0
0,62,88,1
0,66,102,0
0,47,110,1
0,62,70,0
0,68,114,1
0,68,126,0
0,68,72,0
0,35,90,1
0,36,102,0
0,42,92,0
0,66,78,0
0,68,100,10
0,69,100,1
0,81,80,2
0,54,96,1
0,69,114,0
0,69,78,0
0,42,86,1
0,66,110,0
0,69,108,0
0,62,84,1
0,69,106,0
0,57,92,0
0,38,106,3
0,42,102,0
0,83,88,38
0,71,104,1
0,71,110,2
0,62,50,1
0,46,102,0
0,73,100,2
0,73,110,0
0,85,60,2
0,59,96,0
0,66,82,0
0,62,70,1
0,40,86,1
0,59,80,0
0,36,102,1
0,42,102,0
0,52,74,2
0,73,108,13
0,71,104,4
0,83,84,2
0,71,110,0
0,59,66,1
0,42,92,0
0,36,96,21
0,69,98,3
0,81,88,0
0,66,110,1
0,62,110,0
0,59,88,0
0,69,106,0
0,38,106,0
0,42,102,0
0,57,60,1
0,69,100,1
0,71,68,0
0,69,78,2
0,80,102,11
0,68,115,0
0,40,90,1
0,66,78,0
0,68,116,1
0,36,106,0
0,46,102,0
0,59,60,1
0,68,88,0
0,68,114,1
0,38,90,1
0,68,126,0
0,36,112,0
0,49,96,0
0,62,70,0
0,66,126,0
0,68,116,0
0,50,92,0
0,81,74,22
0,69,100,3
0,69,90,2
0,69,88,2
0,42,92,0
0,69,92,2
0,69,98,11
0,62,88,3
0,66,126,1
0,69,110,2
0,57,66,21
0,38,112,0
0,42,102,0
0,62,70,1
0,66,116,0
0,42,86,0
0,69,106,1
0,50,68,0
0,69,98,12
0,69,106,0
0,62,62,1
0,36,102,0
0,80,96,1
0,37,96,1
0,64,84,0
0,61,72,0
0,68,88,0
0,68,100,1
0,68,126,0
0,36,102,0
0,49,102,1
0,68,126,0
0,61,102,0
0,64,100,0
0,42,102,0
0,69,100,42
0,69,84,0
0,69,104,1
0,42,86,0
0,81,88,2
0,69,96,1
0,69,104,12
0,69,106,0
0,64,106,1
0,61,96,0
0,69,100,0
0,38,112,7
0,42,102,0
0,57,42,2
0,61,52,9
0,42,54,0
0,37,96,1
0,64,78,0
0,42,102,0
0,81,88,12
0,61,68,1
0,69,106,0
0,49,48,1
0,69,98,0
0,46,78,1
0,80,78,0
0,62,66,1
0,68,60,0
0,66,72,0
0,68,116,1
0,35,96,1
0,62,96,0
0,47,96,0
0,68,94,0
0,68,102,0
0,36,106,0
0,42,102,0
0,81,96,2
0,69,88,0
0,69,70,3
0,66,46,0
0,69,94,0
0,42,86,0
0,69,88,2
0,69,116,0
0,62,80,1
0,66,116,0
0,69,106,0
0,69,98,0
0,36,102,0
0,57,92,16
0,38,106,0
0,42,102,0
0,62,74,22
0,83,88,20
0,71,114,0
0,71,110,1
0,71,120,1
0,42,102,0
0,62,56,1
0,62,68,2
0,73,100,2
0,62,54,1
0,66,88,0
0,85,88,0
0,40,90,1
0,59,66,0
0,36,102,0
0,42,102,0
0,57,80,0
0,66,116,0
0,73,116,1
0,52,74,0
0,73,102,1
0,71,88,5
0,71,108,1
0,71,96,0
0,42,92,0
0,83,84,1
0,36,102,6
0,62,80,0
0,66,126,0
0,69,106,0
0,69,114,0
0,69,110,0
0,57,92,1
0,81,88,0
0,38,106,0
0,42,92,0
0,42,64,11
0,40,80,2
0,38,102,1
0,52,84,1
0,68,88,3
0,68,114,2
0,68,110,0
0,80,102,0
0,38,86,0
0,68,82,5
0,38,100,1
0,68,126,0
0,62,74,1
0,66,126,0
0,68,102,0
0,68,108,1
0,49,96,0
0,36,112,0
0,50,96,1
0,81,100,42
0,69,88,3
0,69,94,0
0,42,78,0
0,69,106,1
0,69,88,1
0,69,106,1
0,66,126,0
0,62,78,0
0,36,96,0
0,69,98,13
0,69,106,0
0,38,112,1
0,42,102,0
0,57,74,1
0,62,50,21
0,69,108,12
0,69,100,0
0,42,102,0
0,66,68,1
0,69,92,1
0,64,78,0
0,80,102,0
0,37,96,1
0,68,114,0
0,68,78,0
0,68,116,1
0,64,70,0
0,36,102,0
0,42,102,0
0,61,126,1
0,68,102,0
0,64,110,0
0,49,88,1
0,69,100,41
0,81,96,0
0,69,84,1
0,69,104,0
0,42,102,0
0,69,84,0
0,61,82,1
0,69,110,0
0,64,106,0
0,36,102,0
0,81,92,8
0,57,80,2
0,69,104,0
0,69,106,0
0,38,112,0
0,42,102,0
0,61,56,1
0,61,88,7
0,37,106,3
0,46,92,0
0,64,92,1
0,69,116,0
0,81,100,0
0,69,96,1
0,69,108,3
0,35,96,2
0,68,116,0
0,62,96,0
0,62,74,0
0,68,68,0
0,80,102,0
0,36,106,0
0,42,102,0
0,47,110,0
0,68,110,0
0,66,78,0
0,68,108,1
0,69,106,3
0,81,96,0
0,69,90,2
0,69,100,0
0,42,92,0
0,69,84,0
0,69,104,0
0,69,92,1
0,36,106,1
0,69,104,10
0,66,110,1
0,62,80,0
0,57,80,1
0,69,106,0
0,38,106,1
0,42,102,0
0,83,96,12
0,71,106,3
0,71,108,0
0,71,116,1
0,46,92,1
0,52,56,1
0,62,56,8
0,57,110,7
0,66,102,1
0,85,88,2
0,73,110,1
0,73,108,0
0,73,110,0
0,40,90,1
0,59,78,0
0,49,58,0
0,36,112,0
0,71,106,2
0,83,88,1
0,71,114,2
0,71,88,2
0,42,86,0
0,69,116,3
0,69,104,3
0,81,84,1
0,38,102,1
0,42,92,0
0,62,70,1
0,66,88,0
0,69,92,0
0,42,44,45
0,42,78,0
0,40,106,3
0,69,114,1
0,81,106,1
0,36,112,0
0,73,110,1
0,81,96,0
0,69,110,1
0,61,126,1
0,45,112,1
0,47,102,0
0,38,112,0
0,80,116,1
0,68,114,0
0,80,116,0
0,52,106,1
0,71,100,0
0,59,100,0
0,68,126,0
0,69,82,1
0,68,94,10
0,78,96,1
0,41,106,0
0,36,106,0
0,69,92,1
0,78,88,0
0,66,116,0
0,57,92,1
0,66,114,1
0,68,116,19
0,37,106,0
0,59,96,0
0,64,100,0
0,76,100,0
0,49,102,0
0,36,112,0
0,42,102,0
0,64,108,0
0,64,126,0
