track,note,velocity,time
1,70,57,1
1,75,67,1
1,70,0,11
1,77,61,1
1,75,0,11
1,79,67,1
1,77,0,11
1,82,72,1
1,79,0,11
1,82,0,36
1,80,73,1
1,72,73,0
1,87,86,1
1,72,0,11
1,80,0,0
1,87,0,36
1,70,67,1
1,79,67,0
1,87,89,1
1,79,0,11
1,70,0,0
1,71,67,1
1,78,67,0
1,87,0,11
1,83,67,1
1,78,0,23
1,83,0,24
1,71,0,0
1,79,74,1
1,82,74,0
1,70,74,0
1,84,52,1
1,70,0,11
1,79,0,0
1,82,0,0
1,82,57,1
1,84,0,11
1,79,52,1
1,82,0,11
1,75,53,1
1,79,0,11
1,72,47,1
1,75,0,11
1,70,51,1
1,72,0,11
1,67,46,1
1,70,0,11
1,67,0,12
1,63,56,1
1,65,53,1
1,63,0,11
1,66,61,1
1,65,0,11
1,67,65,1
1,66,0,11
1,74,75,1
1,67,0,11
1,74,0,12
1,63,80,1
1,69,80,0
1,72,80,0
1,72,0,47
1,69,0,0
1,63,0,0
1,68,80,1
1,70,80,0
1,62,80,0
1,62,0,119
1,70,0,0
1,68,0,0
1,69,67,1
1,70,76,1
1,69,0,11
1,71,75,1
1,70,0,11
1,72,72,1
1,71,0,11
1,72,0,12
1,73,71,1
1,73,0,47
1,74,78,1
1,68,78,0
1,68,0,47
1,74,0,0
1,79,88,1
1,79,0,23
1,77,85,1
1,68,85,0
1,74,85,0
1,74,0,47
1,68,0,0
1,77,0,0
1,67,84,1
1,75,84,0
1,79,81,1
1,75,0,11
1,67,0,0
1,75,78,1
1,79,0,11
1,70,74,1
1,75,0,11
1,69,80,1
1,70,0,11
1,78,67,1
1,78,0,48
1,68,74,1
1,69,0,23
1,77,67,1
1,77,0,32
1,67,64,1
1,75,64,0
1,68,0,11
1,75,0,72
1,67,0,0
1,70,67,1
1,70,0,16
1,75,67,1
1,77,61,1
1,75,0,11
1,79,67,1
1,77,0,11
1,82,72,1
1,79,0,11
1,82,0,36
1,80,73,1
1,72,73,0
1,87,86,1
1,72,0,11
1,80,0,0
1,87,0,36
1,70,67,1
1,79,67,0
1,87,89,1
1,79,0,11
1,70,0,0
1,71,67,1
1,78,67,0
1,87,0,11
1,83,67,1
1,78,0,23
1,83,0,24
1,71,0,0
1,79,74,1
1,70,74,0
1,82,74,0
1,84,52,1
1,82,0,11
1,79,0,0
1,70,0,0
1,82,57,1
1,84,0,11
1,79,52,1
1,82,0,11
1,75,53,1
1,79,0,11
1,72,47,1
1,75,0,11
1,70,51,1
1,72,0,11
1,67,46,1
1,70,0,11
1,67,0,12
1,63,56,1
1,65,53,1
1,63,0,11
1,66,61,1
1,65,0,11
1,67,65,1
1,66,0,11
1,74,75,1
1,67,0,11
1,74,0,12
1,63,80,1
1,72,80,0
1,69,80,0
1,69,0,47
1,72,0,0
1,63,0,0
1,62,80,1
1,68,80,0
1,70,80,0
1,70,0,119
1,68,0,0
1,62,0,0
1,69,67,1
1,70,76,1
1,69,0,11
1,71,75,1
1,70,0,11
1,72,72,1
1,71,0,11
1,72,0,12
1,73,71,1
1,73,0,47
1,68,78,1
1,74,78,0
1,74,0,47
1,68,0,0
1,79,88,1
1,79,0,23
1,77,85,1
1,74,85,0
1,68,85,0
1,68,0,47
1,74,0,0
1,77,0,0
1,67,80,1
1,75,80,0
1,75,0,256
1,67,0,0
1,70,67,1
1,75,67,1
1,70,0,11
1,77,61,1
1,75,0,11
1,79,67,1
1,77,0,11
1,82,72,1
1,79,0,11
1,82,0,36
1,80,73,1
1,72,73,0
1,87,86,1
1,72,0,11
1,80,0,0
1,87,0,36
1,79,67,1
1,70,67,0
1,87,89,1
1,70,0,11
1,79,0,0
1,78,67,1
1,71,67,0
1,87,0,11
1,83,67,1
1,78,0,23
1,83,0,24
1,71,0,0
1,79,74,1
1,82,74,0
1,70,74,0
1,84,52,1
1,70,0,11
1,79,0,0
1,82,0,0
1,82,57,1
1,84,0,11
1,79,52,1
1,82,0,11
1,75,53,1
1,79,0,11
1,72,47,1
1,75,0,11
1,70,51,1
1,72,0,11
1,67,46,1
1,70,0,11
1,67,0,12
1,63,56,1
1,65,53,1
1,63,0,11
1,66,61,1
1,65,0,11
1,67,65,1
1,66,0,11
1,74,75,1
1,67,0,11
1,74,0,12
1,63,80,1
1,69,80,0
1,72,80,0
1,72,0,47
1,69,0,0
1,63,0,0
1,62,80,1
1,70,80,0
1,68,80,0
1,68,0,119
1,70,0,0
1,62,0,0
1,69,67,1
1,70,76,1
1,69,0,11
1,71,75,1
1,70,0,11
1,72,72,1
1,71,0,11
1,72,0,12
1,73,71,1
1,73,0,47
1,68,78,1
1,74,78,0
1,74,0,47
1,68,0,0
1,79,88,1
1,79,0,23
1,74,85,1
1,77,85,0
1,68,85,0
1,68,0,47
1,77,0,0
1,74,0,0
1,67,84,1
1,75,84,0
1,79,81,1
1,75,0,11
1,67,0,0
1,75,78,1
1,79,0,11
1,70,74,1
1,75,0,11
1,69,80,1
1,70,0,11
1,78,67,1
1,78,0,48
1,68,77,1
1,69,0,23
1,77,67,1
1,77,0,32
1,75,65,1
1,67,65,0
1,68,0,11
1,67,0,72
1,75,0,0
1,70,67,1
1,75,67,1
1,70,0,11
1,77,61,1
1,75,0,11
1,79,67,1
1,77,0,11
1,82,72,1
1,79,0,11
1,82,0,36
1,80,73,1
1,72,73,0
1,87,86,1
1,72,0,11
1,80,0,0
1,87,0,36
1,79,67,1
1,70,67,0
1,87,89,1
1,70,0,11
1,79,0,0
1,71,67,1
1,78,67,0
1,87,0,11
1,83,67,1
1,78,0,23
1,83,0,24
1,71,0,0
1,79,74,1
1,70,74,0
1,82,74,0
1,84,52,1
1,82,0,11
1,79,0,0
1,70,0,0
1,82,57,1
1,84,0,11
1,79,52,1
1,82,0,11
1,75,53,1
1,79,0,11
1,72,47,1
1,75,0,11
1,70,51,1
1,72,0,11
1,67,46,1
1,70,0,11
1,67,0,12
1,63,56,1
1,65,53,1
1,63,0,11
1,66,61,1
1,65,0,11
1,67,65,1
1,66,0,11
1,74,75,1
1,67,0,11
1,74,0,12
1,63,80,1
1,72,80,0
1,69,80,0
1,69,0,47
1,72,0,0
1,63,0,0
1,70,80,1
1,68,80,0
1,62,80,0
1,62,0,119
1,68,0,0
1,70,0,0
1,69,67,1
1,70,76,1
1,69,0,11
1,71,75,1
1,70,0,11
1,72,72,1
1,71,0,11
1,72,0,12
1,73,71,1
1,73,0,47
1,68,78,1
1,74,78,0
1,74,0,47
1,68,0,0
1,79,88,1
1,79,0,23
1,77,85,1
1,74,85,0
1,68,85,0
1,68,0,47
1,74,0,0
1,77,0,0
1,67,80,1
1,75,80,0
1,75,0,239
1,75,80,1
1,67,0,16
1,63,88,1
1,75,0,11
1,77,92,1
1,63,0,11
1,65,95,1
1,72,102,1
1,67,102,0
1,75,102,0
1,79,102,0
1,77,0,11
1,65,0,24
1,91,98,1
1,75,0,23
1,72,0,0
1,67,0,0
1,79,0,0
1,86,103,1
1,91,0,11
1,89,98,1
1,86,0,11
1,87,109,1
1,89,0,11
1,79,98,1
1,87,0,11
1,81,107,1
1,75,107,0
1,86,107,0
1,79,0,11
1,84,98,1
1,81,0,8
1,75,0,0
1,86,0,3
1,84,0,12
1,74,108,1
1,84,108,0
1,80,108,0
1,82,102,1
1,84,0,11
1,82,0,12
1,80,0,1
1,80,108,0
1,74,0,23
1,74,111,1
1,80,0,11
1,74,0,36
1,70,67,1
1,72,73,1
1,70,0,11
1,73,79,1
1,72,0,11
1,74,87,1
1,73,0,11
1,84,70,1
1,76,81,1
1,80,81,0
1,84,0,11
1,74,0,12
1,84,73,1
1,76,0,23
1,80,0,0
1,77,76,1
1,80,76,0
1,84,0,11
1,84,74,1
1,80,0,23
1,77,0,0
1,78,87,1
1,80,87,0
1,84,0,11
1,84,92,1
1,84,0,23
1,80,0,0
1,78,0,0
1,82,100,1
1,79,100,0
1,75,100,0
1,84,95,1
1,75,0,11
1,82,0,0
1,79,0,0
1,84,0,12
1,79,98,1
1,79,0,23
1,79,103,1
1,75,103,0
1,82,103,0
1,82,0,47
1,75,0,1
1,79,0,0
1,79,98,0
1,67,98,1
1,74,98,0
1,77,98,0
1,67,0,47
1,79,0,0
1,67,98,1
1,79,98,0
1,72,98,0
1,75,98,0
1,74,0,11
1,77,0,0
1,91,84,1
1,86,98,1
1,91,0,11
1,72,0,12
1,67,0,0
1,79,0,0
1,75,0,0
1,89,87,1
1,86,0,11
1,87,98,1
1,89,0,11
1,79,87,1
1,87,0,11
1,86,104,1
1,81,104,0
1,75,104,0
1,79,0,11
1,84,98,1
1,75,0,8
1,81,0,0
1,86,0,3
1,84,0,12
1,77,104,1
1,74,104,0
1,84,104,0
1,82,98,1
1,82,0,23
1,77,0,0
1,74,0,0
1,84,0,0
1,77,98,1
1,74,98,1
1,77,0,11
1,74,0,36
1,74,83,1
1,81,94,1
1,76,94,0
1,70,94,0
1,74,0,11
1,79,89,1
1,81,0,11
1,70,0,12
1,76,0,0
1,79,0,0
1,79,92,1
1,69,92,0
1,75,92,0
1,77,91,1
1,79,0,11
1,69,0,12
1,75,0,0
1,75,90,1
1,77,0,11
1,69,87,1
1,75,0,11
1,69,0,36
1,69,95,1
1,69,0,23
1,69,89,1
1,63,89,0
1,74,89,0
1,72,86,1
1,74,0,11
1,69,0,12
1,63,0,0
1,72,0,0
1,68,87,1
1,62,87,0
1,72,87,0
1,70,80,1
1,72,0,11
1,68,0,36
1,77,98,1
1,74,98,0
1,68,98,0
1,62,0,11
1,70,0,0
1,79,98,1
1,74,0,23
1,68,0,0
1,77,0,0
1,74,98,1
1,67,98,0
1,77,98,0
1,79,0,24
1,74,0,23
1,67,0,0
1,77,0,0
1,79,98,1
1,75,98,0
1,67,98,0
1,72,98,0
1,91,98,1
1,86,103,1
1,91,0,11
1,72,0,12
1,67,0,0
1,79,0,0
1,75,0,0
1,89,98,1
1,86,0,11
1,87,109,1
1,89,0,11
1,79,98,1
1,87,0,11
1,86,107,1
1,81,107,0
1,75,107,0
1,79,0,11
1,84,98,1
1,75,0,8
1,81,0,0
1,86,0,3
1,84,0,12
1,80,108,1
1,74,108,0
1,84,108,0
1,82,102,1
1,84,0,11
1,82,0,12
1,80,0,1
1,80,108,0
1,74,0,23
1,74,111,1
1,80,0,11
1,74,0,36
1,70,68,1
1,72,71,1
1,70,0,11
1,73,72,1
1,72,0,11
1,74,80,1
1,73,0,11
1,84,73,1
1,76,77,1
1,80,77,0
1,84,0,11
1,74,0,12
1,84,76,1
1,76,0,23
1,80,0,0
1,77,88,1
1,80,88,0
1,84,0,11
1,84,76,1
1,80,0,23
1,77,0,0
1,80,87,1
1,78,87,0
1,84,0,11
1,84,92,1
1,84,0,23
1,78,0,0
1,80,0,0
1,75,100,1
1,79,100,0
1,82,100,0
1,84,84,1
1,82,0,23
1,75,0,0
1,79,0,0
1,79,80,1
1,84,0,11
1,79,0,12
1,75,99,1
1,79,99,0
1,82,99,0
1,84,86,1
1,82,0,11
1,75,0,0
1,79,0,0
1,82,98,1
1,75,98,0
1,79,98,0
1,84,0,11
1,82,0,36
1,75,0,0
1,79,0,0
1,75,110,1
1,78,110,0
1,81,110,0
1,87,77,1
1,84,91,1
1,81,0,23
1,75,0,0
1,78,0,0
1,81,74,1
1,87,0,11
1,84,0,12
1,78,98,1
1,81,0,23
1,75,75,1
1,78,0,23
1,72,85,1
1,75,0,23
1,69,91,1
1,69,0,23
1,72,0,0
1,67,106,1
1,63,106,0
1,70,106,0
1,68,98,24
1,65,98,0
1,63,0,11
1,67,0,0
1,70,0,12
1,66,96,1
1,69,96,0
1,68,0,11
1,65,0,0
1,70,111,1
1,67,111,0
1,66,0,11
1,69,0,0
1,74,98,1
1,70,0,23
1,67,0,0
1,63,108,1
1,72,108,0
1,69,108,0
1,74,0,11
1,68,98,1
1,62,98,0
1,70,98,0
1,63,0,11
1,69,0,0
1,72,0,0
1,72,72,1
1,70,0,11
1,73,76,1
1,68,0,11
1,72,0,0
1,62,0,0
1,74,91,1
1,68,91,0
1,73,0,11
1,79,87,1
1,68,0,11
1,74,0,0
1,77,84,1
1,74,84,0
1,68,84,0
1,79,0,11
1,75,81,1
1,67,81,0
1,77,0,11
1,68,0,0
1,74,0,0
1,75,0,36
1,75,110,1
1,67,0,11
1,63,98,1
1,75,0,11
1,77,106,1
1,63,0,11
1,65,98,1
1,77,0,11
1,72,106,1
1,67,106,0
1,75,106,0
1,79,106,0
1,65,0,11
1,91,98,1
1,86,103,1
1,91,0,11
1,75,0,0
1,79,0,0
1,72,0,0
1,67,0,0
1,89,98,1
1,86,0,11
1,87,109,1
1,89,0,11
1,79,98,1
1,87,0,11
1,81,107,1
1,86,107,0
1,75,107,0
1,79,0,11
1,84,98,1
1,81,0,8
1,75,0,0
1,86,0,3
1,84,0,12
1,84,108,1
1,80,108,0
1,74,108,0
1,82,102,1
1,84,0,11
1,82,0,12
1,80,0,1
1,80,108,0
1,74,0,23
1,74,111,1
1,80,0,11
1,74,0,36
1,70,63,1
1,72,66,1
1,70,0,11
1,73,71,1
1,72,0,11
1,74,75,1
1,73,0,11
1,84,81,1
1,76,85,1
1,80,85,0
1,84,0,11
1,74,0,12
1,84,72,1
1,76,0,23
1,80,0,0
1,80,86,1
1,77,86,0
1,84,0,11
1,84,80,1
1,77,0,23
1,80,0,0
1,78,85,1
1,80,85,0
1,84,0,11
1,84,85,1
1,84,0,23
1,80,0,0
1,78,0,0
1,79,95,1
1,82,95,0
1,75,95,0
1,84,84,1
1,75,0,11
1,79,0,0
1,82,0,0
1,84,0,12
1,79,80,1
1,79,0,23
1,82,99,1
1,75,99,0
1,79,99,0
1,82,0,47
1,79,0,1
1,75,0,0
1,79,98,0
1,67,98,1
1,74,98,0
1,77,98,0
1,67,0,47
1,79,0,0
1,79,98,1
1,67,98,0
1,75,98,0
1,72,98,0
1,74,0,11
1,77,0,0
1,91,84,1
1,86,98,1
1,91,0,11
1,75,0,12
1,79,0,0
1,67,0,0
1,72,0,0
1,89,87,1
1,86,0,11
1,87,98,1
1,89,0,11
1,79,87,1
1,87,0,11
1,75,104,1
1,86,104,0
1,81,104,0
1,79,0,11
1,84,98,1
1,75,0,8
1,81,0,0
1,86,0,3
1,84,0,12
1,74,104,1
1,77,104,0
1,84,104,0
1,82,98,1
1,82,0,23
1,74,0,0
1,77,0,0
1,84,0,0
1,77,98,1
1,74,98,1
1,77,0,11
1,74,0,36
1,74,83,1
1,76,94,1
1,70,94,0
1,81,94,0
1,74,0,11
1,79,89,1
1,81,0,11
1,76,0,12
1,70,0,0
1,79,0,0
1,69,92,1
1,79,92,0
1,75,92,0
1,77,91,1
1,79,0,11
1,69,0,12
1,75,0,0
1,75,90,1
1,77,0,11
1,69,87,1
1,75,0,11
1,69,0,36
1,69,95,1
1,69,0,23
1,74,89,1
1,63,89,0
1,69,89,0
1,72,86,1
1,74,0,11
1,63,0,12
1,69,0,0
1,72,0,0
1,68,87,1
1,62,87,0
1,72,87,0
1,70,80,1
1,72,0,11
1,68,0,36
1,68,98,1
1,77,98,0
1,74,98,0
1,62,0,11
1,70,0,0
1,79,98,1
1,77,0,23
1,74,0,0
1,68,0,0
1,77,98,1
1,74,98,0
1,67,98,0
1,79,0,24
1,77,0,23
1,74,0,0
1,67,0,0
1,75,98,1
1,79,98,0
1,67,98,0
1,72,98,0
1,91,98,1
1,86,103,1
1,91,0,11
1,72,0,12
1,67,0,0
1,75,0,0
1,79,0,0
1,89,98,1
1,86,0,11
1,87,109,1
1,89,0,11
1,79,98,1
1,87,0,11
1,81,107,1
1,75,107,0
1,86,107,0
1,79,0,11
1,84,98,1
1,81,0,8
1,75,0,0
1,86,0,3
1,84,0,12
1,74,108,1
1,80,108,0
1,84,108,0
1,82,102,1
1,84,0,11
1,82,0,12
1,80,0,1
1,80,108,0
1,74,0,23
1,74,111,1
1,80,0,11
1,74,0,36
