track,note,velocity,time
1,66,94,2160
1,60,83,0
1,66,88,384
1,60,80,0
1,65,78,12
1,63,99,12
1,60,80,96
1,72,80,912
1,60,80,48
1,72,80,192
1,60,88,432
1,64,83,0
1,60,78,48
1,64,72,0
1,60,78,24
1,64,56,0
1,72,72,312
1,75,72,0
1,74,83,48
1,72,88,24
1,64,83,312
1,60,88,0
1,64,72,48
1,60,78,0
1,64,56,24
1,60,78,0
1,75,83,552
1,72,67,0
1,75,67,24
1,72,62,0
1,74,88,24
1,72,83,24
1,60,88,264
1,64,83,0
1,60,78,48
1,64,72,0
1,60,78,24
1,64,56,0
1,75,88,552
1,72,58,0
1,75,72,24
1,72,50,0
1,76,56,48
1,72,58,0
1,64,83,264
1,60,88,0
1,64,72,48
1,60,78,0
1,64,56,24
1,60,78,0
1,65,56,192
1,72,88,24
1,75,83,0
1,70,53,48
1,74,56,0
1,69,46,24
1,72,67,0
1,60,80,72
1,67,47,240
1,64,62,0
1,68,78,48
1,65,67,0
1,69,49,96
1,67,58,192
1,60,56,0
1,64,72,0
1,65,56,96
1,60,53,0
1,62,78,0
1,64,80,96
1,60,80,0
1,60,58,312
1,67,50,24
1,64,67,0
1,65,67,48
1,62,58,0
1,66,50,30
1,63,83,0
1,67,46,96
1,64,56,0
1,65,56,72
1,68,72,0
1,65,46,24
1,69,58,0
1,72,83,240
1,75,94,48
1,74,62,36
1,72,83,36
1,68,78,24
1,75,99,0
1,72,53,0
1,75,72,432
1,72,80,0
1,75,78,12
1,77,49,36
1,75,72,48
1,70,80,288
1,75,72,0
1,77,44,48
1,78,94,48
1,77,50,12
1,75,72,12
1,75,88,264
1,72,80,0
1,75,62,12
1,77,72,36
1,75,94,48
1,75,88,48
1,72,62,24
1,78,83,24
1,77,47,24
1,75,72,24
1,72,53,24
1,78,83,24
1,77,58,24
1,72,80,264
1,75,72,0
1,75,78,12
1,77,49,36
1,75,72,48
1,66,58,288
1,78,94,0
1,78,104,48
1,66,83,0
1,77,72,24
1,65,53,0
1,63,88,24
1,75,99,0
1,77,88,24
1,65,62,0
1,66,83,264
1,78,109,0
1,66,78,48
1,78,99,0
1,77,72,24
1,65,62,0
1,63,78,24
1,75,104,0
1,72,83,24
1,60,56,0
1,70,88,12
1,58,83,0
1,72,80,12
1,60,80,0
1,60,80,192
1,60,50,432
1,64,62,0
1,64,62,108
1,60,46,0
1,60,46,36
1,64,50,0
1,60,47,288
1,63,78,0
1,60,49,108
1,63,67,0
1,63,72,36
1,60,50,0
1,64,62,288
1,60,50,0
1,60,46,108
1,64,62,0
1,64,50,36
1,60,46,0
1,63,78,288
1,60,47,0
1,63,67,108
1,60,49,0
1,60,50,36
1,63,72,0
1,64,62,288
1,60,50,0
1,60,46,108
1,64,62,0
1,64,50,36
1,60,46,0
1,63,78,288
1,60,47,0
1,63,67,108
1,60,49,0
1,60,50,36
1,63,72,0
1,64,62,288
1,60,50,0
1,60,46,108
1,64,62,0
1,64,50,36
1,60,46,0
1,72,62,48
1,69,46,0
1,74,53,48
1,71,56,0
1,72,72,48
1,75,78,0
1,77,53,48
1,74,56,0
1,79,53,48
1,76,49,0
1,76,53,24
1,79,56,0
1,79,58,24
1,76,49,0
1,79,67,24
1,76,47,0
1,77,47,24
1,74,49,0
1,77,46,24
1,74,53,0
1,77,45,12
1,74,56,0
1,77,41,24
1,74,46,0
1,72,49,12
1,75,67,0
1,70,36,24
1,74,44,0
1,69,42,24
1,72,72,0
1,75,72,36
1,72,62,0
1,74,33,36
1,70,56,0
1,69,37,24
1,72,67,0
1,69,17,24
1,65,34,0
1,60,47,24
1,67,50,48
1,64,53,0
1,65,58,48
1,62,72,0
1,72,67,336
1,69,62,0
1,71,78,48
1,69,78,48
1,60,58,168
1,64,67,24
1,67,50,0
1,62,58,48
1,65,67,0
1,63,83,30
1,66,50,0
1,64,56,96
1,67,46,0
1,68,72,72
1,65,56,0
1,67,53,24
1,65,80,0
1,69,80,0
1,67,62,12
1,67,58,24
1,63,78,24
1,67,58,24
1,67,62,12
1,67,50,24
1,67,80,24
1,63,83,0
1,70,80,0
1,68,80,24
1,72,72,0
1,67,53,0
1,65,58,12
1,67,58,12
1,72,78,24
1,75,78,36
1,74,58,36
1,72,78,24
1,68,80,24
1,72,80,264
1,75,72,0
1,75,78,12
1,77,49,36
1,75,72,48
1,75,72,288
1,70,80,0
1,77,44,48
1,78,94,48
1,77,50,12
1,75,72,12
1,72,80,264
1,75,88,0
1,75,62,12
1,77,72,36
1,75,94,48
1,75,88,48
1,72,62,24
1,78,83,24
1,77,47,24
1,75,72,24
1,72,53,24
1,78,83,24
1,77,58,24
1,75,72,264
1,72,80,0
1,75,78,12
1,77,49,36
1,75,72,48
1,78,94,288
1,66,58,0
1,66,83,48
1,78,104,0
1,65,53,24
1,77,72,0
1,75,99,24
1,63,88,0
1,65,62,24
1,77,88,0
1,78,109,264
1,66,83,0
1,78,99,48
1,66,78,0
1,65,62,24
1,77,72,0
1,75,104,24
1,63,78,0
1,60,56,24
1,72,83,0
1,58,83,12
1,70,88,0
1,72,80,12
1,60,80,0
1,72,80,768
1,60,80,192
1,72,80,912
1,60,80,48
1,72,80,192
1,66,88,432
1,66,94,48
1,66,88,48
1,66,88,48
1,66,88,48
1,66,83,48
1,70,83,24
1,66,99,24
1,63,80,48
1,70,122,239
1,70,109,27
1,68,115,18
1,66,104,0
1,66,99,33
1,65,58,66
1,66,83,2
1,63,80,66
1,65,62,121
1,66,83,57
1,65,53,1
1,66,115,71
1,78,109,106
1,66,99,1
1,78,104,43
1,66,115,5
1,78,104,21
1,66,94,3
1,67,58,287
1,63,83,0
1,66,37,96
1,63,58,0
1,60,72,48
1,63,104,0
1,63,94,96
1,66,88,0
1,68,104,24
1,65,62,0
1,70,99,24
1,67,72,0
1,71,94,96
1,66,115,0
1,68,83,96
1,72,88,0
1,68,72,24
1,65,47,0
1,70,78,24
1,73,62,0
1,74,83,24
1,71,88,0
1,75,83,24
1,72,83,0
1,78,78,144
1,75,94,0
1,75,72,288
1,72,80,0
1,75,78,12
1,77,49,36
1,75,72,48
1,70,80,288
1,75,72,0
1,77,44,48
1,78,94,48
1,77,50,12
1,75,72,12
1,75,88,264
1,72,80,0
1,75,62,12
1,77,72,36
1,75,94,48
1,75,88,48
1,72,62,24
1,78,83,24
1,77,47,24
1,75,72,24
1,72,53,24
1,78,83,24
1,77,58,24
1,72,80,264
1,75,72,0
1,75,78,12
1,77,49,36
1,75,72,48
1,66,58,288
1,78,94,0
1,78,104,48
1,66,83,0
1,77,72,24
1,65,53,0
1,63,88,24
1,75,99,0
1,77,88,24
1,65,62,0
1,66,83,264
1,78,109,0
1,66,78,48
1,78,99,0
1,77,72,24
1,65,62,0
1,63,78,24
1,75,104,0
1,72,83,24
1,60,56,0
1,70,88,12
1,58,83,0
1,60,94,15
1,72,104,2
1,75,80,478
1,72,80,0
1,75,72,333
1,70,80,0
1,77,44,48
1,78,94,48
1,77,50,12
1,75,72,12
1,72,80,264
1,75,88,0
1,75,62,12
1,77,72,36
1,75,94,48
1,72,80,48
1,72,80,48
1,72,80,48
1,72,80,48
1,72,104,48
1,72,104,28
1,72,104,24
1,75,109,2
1,72,99,19
1,72,99,119
1,70,109,32
1,72,104,182
1,70,104,343
1,72,99,22
1,78,94,324
1,66,58,0
1,66,83,48
1,78,104,0
1,65,53,24
1,77,72,0
1,75,99,24
1,63,88,0
1,65,62,24
1,77,88,0
1,66,83,264
1,78,109,0
1,66,78,48
1,78,99,0
1,77,72,24
1,65,62,0
1,63,78,24
1,75,104,0
1,72,83,24
1,60,56,0
1,70,88,12
1,58,83,0
1,60,80,12
1,72,80,0
1,72,80,768
1,60,80,192
1,72,80,912
1,60,53,120
1,62,67,12
1,63,72,12
1,60,80,0
1,62,58,24
1,63,72,12
1,60,72,12
1,60,72,24
1,62,58,12
1,63,67,12
1,67,46,12
1,62,62,12
1,63,88,12
1,60,72,12
1,60,9,24
1,58,88,12
1,60,80,12
1,72,78,720
1,60,80,48
1,72,78,240
1,75,78,0
1,71,78,48
1,74,78,0
1,72,99,48
1,75,99,0
1,67,78,48
1,71,78,0
1,68,88,48
1,72,88,0
1,63,72,48
1,67,72,0
1,65,88,48
1,68,88,0
1,72,80,0
1,63,83,48
1,67,83,0
1,60,80,0
1,67,78,48
1,71,78,0
1,68,94,48
1,72,94,0
1,71,83,48
1,74,83,0
1,71,78,48
1,74,78,0
1,72,94,48
1,75,94,0
1,67,83,48
1,71,83,0
1,68,88,48
1,72,88,0
1,72,80,0
1,63,36,48
1,67,36,0
1,68,88,48
1,72,88,0
1,67,78,48
1,71,78,0
1,71,72,48
1,74,72,0
1,72,83,48
2,66,88,2160
2,60,78,0
2,60,80,384
2,66,88,0
2,65,78,12
2,63,99,12
2,60,80,336
2,66,88,0
2,65,78,12
2,63,99,12
2,60,80,48
2,66,88,0
2,65,78,12
2,63,99,12
2,66,88,48
2,60,80,0
2,65,78,12
2,63,99,12
2,66,88,528
2,60,80,0
2,65,78,12
2,63,99,12
2,66,88,48
2,60,80,0
2,65,78,12
2,63,99,12
2,60,80,48
2,66,88,0
2,65,78,12
2,63,99,12
2,60,83,7
2,59,67,24
2,58,72,24
2,57,38,144
2,60,49,24
2,64,47,0
2,57,49,24
2,64,46,24
2,60,67,0
2,57,53,24
2,60,62,24
2,64,50,0
2,57,53,24
2,57,58,144
2,63,50,24
2,60,58,0
2,57,44,24
2,63,56,24
2,60,58,0
2,57,44,24
2,63,50,24
2,60,56,0
2,57,50,24
2,57,38,144
2,64,47,24
2,60,49,0
2,57,49,24
2,60,67,24
2,64,46,0
2,57,53,24
2,64,50,24
2,60,62,0
2,57,53,24
2,57,58,144
2,60,58,24
2,63,50,0
2,57,44,24
2,60,58,24
2,63,56,0
2,57,44,24
2,60,56,24
2,63,50,0
2,57,50,24
2,57,38,144
2,64,47,24
2,60,49,0
2,57,49,24
2,60,67,24
2,64,46,0
2,57,53,24
2,64,50,24
2,60,62,0
2,57,53,24
2,57,58,144
2,60,58,24
2,63,50,0
2,57,44,24
2,60,58,24
2,63,56,0
2,57,44,24
2,60,56,24
2,63,50,0
2,57,50,24
2,57,38,144
2,60,49,24
2,64,47,0
2,57,49,24
2,64,46,24
2,60,67,0
2,57,53,24
2,60,62,24
2,64,50,0
2,57,53,24
2,60,72,264
2,57,56,0
2,58,83,36
2,62,67,0
2,63,58,36
2,60,44,0
2,58,50,24
2,62,58,0
2,60,78,12
2,63,58,0
2,58,67,12
2,62,62,0
2,57,49,12
2,60,56,0
2,64,50,252
2,60,67,0
2,58,78,288
2,62,53,0
2,60,95,288
2,60,95,36
2,63,95,0
2,62,95,36
2,60,95,24
2,57,95,24
2,60,78,263
2,64,62,1
2,62,67,294
2,58,83,1
2,57,78,298
2,60,72,0
2,57,62,168
2,60,56,0
2,57,72,48
2,60,78,0
2,60,88,255
2,64,78,1
2,58,94,271
2,62,72,3
2,63,80,312
2,60,80,0
2,62,80,288
2,59,80,0
2,63,72,48
2,60,72,0
2,62,53,36
2,60,62,36
2,63,67,24
2,60,62,0
2,62,72,36
2,60,72,36
2,60,53,24
2,63,67,0
2,62,72,36
2,60,67,36
2,63,62,24
2,60,62,0
2,62,62,36
2,60,62,36
2,60,83,264
2,63,83,0
2,63,78,110
2,60,67,0
2,60,78,36
2,63,88,0
2,58,67,288
2,63,62,0
2,63,78,108
2,58,67,0
2,58,67,36
2,63,78,0
2,63,83,288
2,60,83,0
2,60,67,110
2,63,78,0
2,63,88,36
2,60,78,0
2,63,62,288
2,58,67,0
2,58,67,108
2,63,78,0
2,63,78,36
2,58,67,0
2,63,83,288
2,60,83,0
2,60,67,110
2,63,78,0
2,63,88,36
2,60,78,0
2,60,80,288
2,63,78,0
2,60,80,96
2,66,72,0
2,65,67,12
2,63,94,12
2,63,80,264
2,60,80,0
2,60,88,384
2,63,88,36
2,60,88,0
2,62,78,36
2,60,88,24
2,62,72,12
2,57,78,12
2,63,80,72
2,67,80,0
2,65,80,48
2,69,80,0
2,67,80,48
2,68,80,48
2,69,49,48
2,68,88,24
2,69,67,24
2,68,78,1368
2,69,56,24
2,68,78,24
2,69,58,24
2,65,53,1128
2,67,62,24
2,68,88,24
2,69,62,24
2,68,72,24
2,69,58,24
2,65,53,1128
2,67,53,24
2,68,67,24
2,72,56,24
2,69,49,0
2,68,62,24
2,71,58,0
2,72,72,24
2,69,62,0
2,60,78,528
2,62,72,12
2,60,67,12
2,63,78,12
2,65,50,12
2,63,58,12
2,67,67,12
2,68,67,12
2,67,58,12
2,70,50,12
2,72,88,12
2,70,72,12
2,72,78,12
2,70,72,12
2,72,83,12
2,63,58,144
2,62,50,24
2,60,80,12
2,62,72,36
2,62,67,48
2,60,67,48
2,57,56,12
2,63,62,768
2,63,72,24
2,62,72,24
2,60,78,24
2,62,72,24
2,60,67,24
2,63,83,24
2,63,72,24
2,62,67,12
2,60,78,24
2,63,78,12
2,62,72,12
2,60,72,24
2,60,67,564
2,64,88,0
2,60,67,12
2,64,104,0
2,64,88,12
2,60,62,0
2,60,67,12
2,64,104,0
2,62,78,252
2,58,83,0
2,62,67,12
2,58,62,0
2,62,78,12
2,58,78,0
2,62,67,12
2,58,83,0
2,60,80,252
2,66,78,0
2,65,67,12
2,63,88,12
2,60,80,48
2,66,83,0
2,65,50,12
2,63,88,12
2,60,80,48
2,66,78,0
2,65,67,12
2,63,88,12
2,60,80,48
2,66,83,0
2,65,50,12
2,63,88,12
2,60,67,24
2,63,83,0
2,63,78,36
2,60,72,0
2,63,72,36
2,60,78,0
2,60,83,36
2,63,67,0
2,63,62,36
2,60,78,0
2,60,72,24
2,63,67,0
2,63,83,264
2,60,83,0
2,60,67,110
2,63,78,0
2,63,88,36
2,60,78,0
2,63,62,288
2,58,67,0
2,58,67,108
2,63,78,0
2,63,78,36
2,58,67,0
2,60,83,288
2,63,83,0
2,63,78,110
2,60,67,0
2,60,78,36
2,63,88,0
2,58,67,288
2,63,62,0
2,63,78,108
2,58,67,0
2,58,67,36
2,63,78,0
2,60,83,288
2,63,83,0
2,63,78,110
2,60,67,0
2,60,78,36
2,63,88,0
2,63,78,288
2,60,80,0
2,66,72,96
2,60,80,0
2,65,67,12
2,63,94,12
2,60,80,264
2,63,80,0
2,66,80,384
2,60,80,0
2,66,88,432
2,60,80,0
2,65,78,12
2,63,99,12
2,66,88,48
2,60,80,0
2,65,78,12
2,63,99,12
2,60,80,48
2,66,88,0
2,65,78,12
2,63,99,12
2,60,80,528
2,66,88,0
2,65,78,12
2,63,99,12
2,60,80,48
2,66,88,0
2,65,78,12
2,63,99,12
2,66,83,300
2,63,83,0
2,66,34,96
2,63,62,0
2,65,67,12
2,61,72,0
2,63,58,12
2,59,72,0
2,70,58,264
2,66,83,0
2,70,67,72
2,66,94,0
2,70,42,24
2,66,62,0
2,68,53,12
2,65,72,0
2,66,83,12
2,63,83,0
2,66,83,264
2,63,83,0
2,66,34,96
2,63,62,0
2,65,67,12
2,61,72,0
2,63,58,12
2,59,72,0
2,63,88,24
2,66,78,0
2,61,88,36
2,65,58,0
2,60,72,36
2,63,72,0
2,66,72,24
2,63,78,0
2,65,49,36
2,61,88,0
2,63,78,36
2,59,56,0
2,63,109,27
2,70,104,245
2,68,94,235
2,66,99,177
2,65,78,9
2,63,78,4
2,70,104,223
2,68,99,223
2,66,99,185
2,65,94,12
2,70,94,176
2,70,94,34
2,70,99,23
2,68,104,34
2,66,99,3
2,66,122,41
2,65,83,28
2,66,104,9
2,65,78,2
2,66,99,5
2,65,53,115
2,70,104,3
2,70,80,480
2,72,80,0
2,63,80,120
2,66,80,24
2,66,80,24
2,60,83,264
2,63,83,0
2,63,78,110
2,60,67,0
2,60,78,36
2,63,88,0
2,58,67,288
2,63,62,0
2,63,78,108
2,58,67,0
2,58,67,36
2,63,78,0
2,63,83,288
2,60,83,0
2,60,67,110
2,63,78,0
