track,note,velocity,time
1,68,92,22
1,70,92,0
1,63,93,2
1,65,89,4
1,61,88,0
1,75,81,0
1,75,90,52
1,58,76,72
1,65,16,18
1,60,92,6
1,58,52,32
1,63,104,24
1,61,103,8
1,68,96,4
1,70,90,0
1,75,83,0
1,65,88,4
1,75,79,6
1,68,71,92
1,70,71,0
1,65,51,2
1,75,44,2
1,58,70,66
1,60,90,0
1,63,105,4
1,68,93,0
1,65,92,0
1,75,90,2
1,70,86,2
1,61,100,0
1,75,74,28
1,65,46,4
1,70,66,54
1,68,84,6
1,75,77,0
1,65,78,2
1,58,76,124
1,63,95,30
1,60,95,0
1,75,69,4
1,65,22,24
1,66,26,2
1,70,80,0
1,67,100,4
1,63,107,2
1,75,72,2
1,61,103,2
1,75,101,4
1,75,96,86
1,58,76,24
1,63,104,24
1,60,97,4
1,68,98,78
1,70,95,2
1,63,108,2
1,65,97,0
1,61,104,2
1,75,95,0
1,70,79,40
1,65,84,0
1,68,85,2
1,75,75,0
1,58,89,90
1,60,98,4
1,63,67,0
1,66,93,2
1,65,96,0
1,70,80,8
1,63,109,4
1,61,103,4
1,75,46,12
1,67,94,16
1,75,100,2
1,65,89,54
1,67,87,0
1,75,76,4
1,70,79,4
1,58,79,58
1,61,100,6
1,73,102,2
1,49,91,6
1,61,81,18
1,73,79,0
1,48,93,2
1,60,94,2
1,72,103,0
1,58,99,124
1,70,97,0
1,46,97,0
1,56,99,62
1,68,97,0
1,44,98,2
1,54,98,84
1,42,104,4
1,66,88,6
1,41,97,20
1,53,73,0
1,65,55,10
1,39,102,18
1,63,106,16
1,51,90,8
1,49,92,88
1,61,95,0
1,37,99,10
1,36,102,36
1,34,99,20
1,58,81,0
1,39,51,10
1,27,112,34
1,39,111,2
1,63,100,26
1,55,80,0
1,58,89,4
1,57,65,14
1,60,89,136
1,56,88,2
1,65,75,6
1,39,65,18
1,39,91,44
1,56,78,10
1,60,80,2
1,63,74,8
1,58,89,32
1,66,90,6
1,61,86,2
1,51,114,30
1,58,106,38
1,66,103,0
1,61,96,6
1,56,102,44
1,65,106,4
1,63,84,24
1,60,86,8
1,56,69,4
1,54,86,48
1,27,79,6
1,39,67,2
1,39,102,12
1,27,95,4
1,55,88,4
1,63,63,26
1,63,104,54
1,55,98,0
1,58,92,2
1,56,92,120
1,60,89,0
1,65,83,2
1,51,116,4
1,56,59,94
1,63,71,6
1,60,63,0
1,58,91,42
1,66,97,2
1,61,91,2
1,51,112,84
1,66,105,84
1,58,105,0
1,61,93,6
1,56,96,42
1,65,104,4
1,36,95,4
1,63,81,30
1,37,99,12
1,60,98,6
1,56,81,6
1,38,112,2
1,27,111,100
1,39,115,0
1,63,106,92
1,55,94,0
1,58,95,4
1,51,111,74
1,56,94,0
1,65,92,4
1,60,88,2
1,56,61,108
1,60,65,12
1,63,71,0
1,58,95,46
1,66,95,4
1,61,92,4
1,51,105,82
1,66,103,48
1,58,102,4
1,61,95,6
1,56,98,46
1,65,98,6
1,51,105,0
1,63,79,38
1,56,10,28
1,60,85,34
1,56,66,10
1,54,88,10
1,51,107,62
1,55,77,10
1,63,96,28
1,55,92,54
1,58,95,4
1,56,88,110
1,60,85,4
1,65,85,0
1,51,106,2
1,56,70,18
1,63,77,6
1,60,73,0
1,58,95,26
1,66,95,2
1,61,90,4
1,51,116,82
1,66,104,34
1,58,103,0
1,61,97,6
1,37,105,10
1,65,108,40
1,56,89,4
1,49,115,2
1,66,20,24
1,63,86,18
1,56,95,8
1,60,101,0
1,34,90,62
1,46,87,0
1,47,107,18
1,35,106,4
1,59,94,78
1,57,95,0
1,66,84,4
1,63,85,4
1,35,105,8
1,47,95,0
1,47,104,110
1,35,106,0
1,57,95,78
1,59,80,0
1,66,76,4
1,63,88,6
1,47,68,14
1,57,112,12
1,59,108,2
1,63,100,4
1,66,99,0
1,30,92,52
1,42,100,4
1,43,103,14
1,31,106,4
1,57,94,12
1,59,82,0
1,63,79,10
1,66,64,0
1,44,116,56
1,32,111,0
1,59,81,22
1,57,93,2
1,63,86,0
1,66,92,0
1,45,105,8
1,33,101,4
1,34,118,0
1,46,120,2
1,56,103,198
1,62,98,2
1,58,94,0
1,66,89,0
1,46,100,4
1,36,105,30
1,56,113,118
1,62,100,2
1,58,99,0
1,66,92,4
1,36,68,120
1,66,100,28
1,37,115,0
1,72,93,6
1,58,102,34
1,66,104,56
1,70,108,2
1,67,63,30
1,37,100,38
1,70,52,28
1,38,108,10
1,66,45,34
1,67,59,18
1,63,87,0
1,58,97,6
1,63,103,18
1,56,103,4
1,39,107,22
1,27,103,0
1,54,74,10
1,55,90,20
1,39,113,0
1,27,110,4
1,63,108,110
1,58,102,2
1,61,17,32
1,39,22,34
1,56,95,14
1,60,91,4
1,65,88,0
1,51,114,0
1,56,68,86
1,60,62,4
1,63,78,4
1,66,98,22
1,58,91,2
1,61,88,4
1,51,107,84
1,66,109,72
1,58,111,0
1,61,102,4
1,56,97,38
1,65,107,0
1,51,107,6
1,63,44,50
1,60,88,28
1,63,57,10
1,56,36,2
1,66,76,50
1,54,79,4
1,30,86,0
1,42,86,2
1,43,83,16
1,31,92,2
1,55,81,6
1,67,76,4
1,68,95,4
1,56,84,2
1,32,93,2
1,44,100,2
1,57,95,12
1,69,101,0
1,45,106,10
1,33,107,4
1,58,106,90
1,46,109,2
1,34,108,0
1,70,103,2
1,60,105,90
1,72,103,0
1,36,109,2
1,48,100,2
1,61,116,114
1,37,116,0
1,73,111,4
1,49,118,0
1,49,84,8
1,63,110,28
1,72,103,0
1,68,103,4
1,75,95,2
1,38,111,12
1,63,114,76
1,39,106,0
1,75,102,2
1,66,101,2
1,70,89,4
1,67,83,20
1,27,114,42
1,39,119,0
1,63,101,16
1,55,95,0
1,58,93,2
1,65,95,112
1,56,91,2
1,60,89,0
1,51,114,0
1,56,76,96
1,60,57,10
1,63,77,2
1,66,79,34
1,58,70,6
1,61,78,0
1,27,111,68
1,39,115,0
1,66,106,64
1,58,107,0
1,61,100,4
1,56,103,78
1,51,111,2
1,65,101,2
1,39,114,0
1,63,75,28
1,60,83,74
1,56,78,0
1,54,84,36
1,27,114,12
1,39,117,0
1,55,84,12
1,63,96,26
1,58,97,54
1,55,95,0
1,39,103,58
1,65,93,68
1,56,93,0
1,51,114,2
1,60,87,2
1,56,78,100
1,60,69,8
1,63,78,2
1,58,91,38
1,66,93,0
1,61,92,2
1,27,102,68
1,39,97,26
1,58,107,20
1,66,106,0
1,61,97,6
1,24,93,6
1,56,101,30
1,25,113,6
1,65,103,4
1,63,77,30
1,26,110,18
1,60,100,0
1,56,100,0
1,27,110,76
1,39,103,6
1,63,104,12
1,55,93,0
1,58,93,2
1,39,82,46
1,56,96,0
1,65,98,0
1,60,91,2
1,51,111,2
1,39,102,36
1,56,76,6
1,60,77,2
1,63,81,8
1,39,100,28
1,58,84,0
1,61,90,2
1,66,81,8
1,27,106,50
1,39,100,4
1,58,107,18
1,66,106,0
1,61,106,2
1,39,106,16
1,56,103,60
1,65,108,6
1,51,117,0
1,63,86,42
1,60,92,34
1,56,70,10
1,54,95,28
1,39,99,8
1,27,104,8
1,55,90,6
1,39,93,8
1,63,103,6
1,55,83,52
1,58,98,6
1,39,100,30
1,56,97,72
1,60,95,2
1,65,89,2
1,51,112,4
1,39,95,38
1,56,70,4
1,60,72,8
1,63,78,2
1,58,101,26
1,66,103,2
1,61,97,2
1,39,90,8
1,27,105,60
1,39,99,12
1,58,106,52
1,61,99,4
1,66,102,0
1,37,109,20
1,39,68,20
1,56,102,16
1,65,106,8
1,49,114,6
1,56,58,36
1,63,90,2
1,56,103,4
1,60,105,0
1,34,90,40
1,46,87,4
1,47,103,38
1,35,108,4
1,59,93,116
1,57,95,0
1,63,90,4
1,66,83,0
1,47,101,0
1,35,106,2
1,47,108,116
1,35,111,0
1,57,111,44
1,59,93,4
1,66,91,4
1,63,92,0
1,57,113,60
1,59,107,4
1,63,104,2
1,66,99,2
1,30,96,44
1,42,102,4
1,43,106,2
1,31,100,6
1,57,104,26
1,59,94,2
1,63,94,4
1,66,82,2
1,32,113,62
1,44,120,2
1,57,98,42
1,59,93,0
1,63,93,0
1,45,105,0
1,33,106,2
1,66,93,2
1,34,119,6
1,46,119,2
1,56,108,4
1,62,104,4
1,58,98,2
1,66,94,2
1,46,102,0
1,36,109,36
1,56,111,110
1,58,97,6
1,62,97,0
1,66,84,6
1,36,76,116
1,70,108,34
1,66,104,2
1,37,116,4
1,61,59,16
1,70,78,30
1,67,79,6
1,72,104,32
1,66,86,10
1,37,110,56
1,66,102,2
1,38,110,24
1,70,95,4
1,67,66,48
1,63,88,24
1,58,102,0
1,63,103,28
1,56,105,0
1,54,84,16
1,27,99,2
1,39,106,2
1,55,88,20
1,39,116,4
1,27,95,2
1,63,100,2
1,39,34,56
1,51,103,18
1,39,104,44
1,51,96,0
1,49,117,0
1,58,84,6
1,63,100,6
1,51,104,10
1,58,103,2
1,47,92,22
1,57,101,8
1,51,97,0
1,48,119,4
1,63,99,28
1,51,95,62
1,57,84,0
1,46,97,8
1,47,115,66
1,56,98,6
1,51,94,0
1,63,98,10
1,56,88,52
1,51,85,8
1,51,66,44
1,54,88,4
1,51,37,10
1,55,97,0
1,55,91,34
1,61,89,4
1,63,84,0
1,27,114,2
1,39,121,0
1,67,75,2
1,56,100,66
1,29,108,6
1,65,71,0
1,41,110,0
1,68,95,2
1,61,83,4
1,69,81,20
1,66,94,2
1,57,96,4
1,63,99,0
1,30,104,4
1,42,112,0
1,59,51,16
1,61,98,40
1,31,106,4
1,63,90,0
1,43,105,0
1,70,92,0
1,67,69,0
1,72,98,38
1,60,104,2
1,75,113,120
1,63,120,0
1,77,112,80
1,65,110,0
1,72,100,128
1,70,106,0
1,32,117,0
1,44,124,0
1,78,103,4
1,75,100,0
1,72,102,90
1,77,100,4
1,68,92,2
1,66,100,104
1,63,112,0
1,75,100,4
1,54,92,0
1,70,94,2
1,60,97,2
1,58,95,0
1,72,85,2
1,77,73,0
1,68,57,2
1,75,106,26
1,66,101,2
1,70,99,4
1,66,85,20
1,75,90,6
1,70,95,6
1,27,113,56
1,39,118,4
1,75,104,22
1,66,95,0
1,70,81,10
1,75,90,36
1,70,94,2
1,66,87,0
1,63,101,10
1,58,88,0
1,54,84,0
1,60,87,2
1,70,95,60
1,61,86,0
1,71,109,16
1,62,109,0
1,32,117,112
1,44,121,2
1,72,101,2
1,63,101,0
1,66,86,4
1,62,85,36
1,71,63,6
1,72,100,32
1,63,101,2
1,66,95,4
1,71,49,8
1,66,93,32
1,63,51,22
1,63,113,22
1,54,95,2
1,60,91,0
1,58,90,2
1,75,88,38
1,68,84,4
1,70,79,0
1,72,108,28
1,77,111,4
1,70,67,4
1,27,111,108
1,39,112,2
1,70,109,0
1,78,100,4
1,72,99,2
1,75,89,4
1,75,70,6
1,66,61,8
1,70,56,12
1,68,103,10
1,72,98,2
1,77,107,0
1,30,109,70
1,42,110,4
1,66,93,14
1,75,92,4
1,70,84,2
1,68,100,30
1,72,96,6
1,77,100,0
1,31,111,16
1,43,105,2
1,70,79,30
1,72,56,0
1,75,79,4
1,78,77,4
1,32,116,54
1,44,123,2
1,68,105,44
1,72,108,0
1,77,110,0
1,63,105,96
1,54,95,0
1,66,84,0
1,75,97,2
1,58,92,4
1,70,88,0
1,60,91,0
1,68,16,4
1,72,98,50
1,66,42,12
1,75,84,18
1,70,96,4
1,66,94,0
1,39,9,44
1,75,96,28
1,66,86,4
1,70,95,0
1,27,115,58
1,39,121,2
1,72,96,18
1,63,103,2
1,66,91,4
1,54,94,194
1,58,97,4
1,60,97,2
1,65,85,48
1,62,65,2
1,66,103,44
1,72,106,2
1,63,93,2
1,32,114,128
1,44,117,2
1,66,84,6
1,75,88,0
1,70,81,4
1,70,82,74
1,66,72,0
1,68,110,24
1,77,111,2
1,72,108,0
1,54,101,128
1,58,98,6
1,60,102,0
1,72,99,36
1,66,100,0
1,63,105,0
1,66,70,30
1,62,18,0
1,27,107,22
1,39,106,4
1,63,104,2
1,66,90,0
1,72,98,0
1,29,111,84
1,41,112,2
1,61,111,2
1,66,102,2
1,70,101,2
1,30,110,92
1,42,116,6
1,68,87,0
1,65,74,10
1,60,56,2
1,64,94,48
1,66,47,2
1,59,44,6
1,66,102,16
1,31,109,2
1,58,105,0
1,43,109,2
1,63,105,2
1,32,119,80
1,44,125,0
1,78,111,102
1,70,117,0
1,75,106,0
1,72,108,2
1,63,113,192
1,54,97,6
1,58,99,0
1,60,97,2
1,68,106,64
1,72,105,4
1,77,105,0
1,39,37,58
1,27,117,90
1,39,121,0
1,66,88,4
1,75,89,0
1,70,76,6
1,72,72,46
1,75,103,26
1,66,91,8
1,70,97,0
1,66,88,40
1,70,92,0
1,75,94,0
1,54,99,68
1,58,97,4
1,60,97,2
1,61,87,60
1,70,89,2
1,71,103,24
1,62,105,4
1,65,104,0
1,30,86,8
1,44,119,50
1,32,117,2
1,72,100,2
1,63,106,0
1,66,90,6
1,62,77,32
1,65,46,2
1,72,106,10
1,63,100,4
1,66,96,0
1,66,57,38
1,63,52,4
1,63,100,52
1,54,97,4
1,60,97,2
1,58,95,0
1,73,121,14
1,82,115,0
1,78,110,0
1,82,99,12
1,78,68,58
1,27,104,16
1,39,106,2
1,73,81,6
1,27,112,16
1,39,106,0
1,80,106,2
1,72,105,0
1,77,111,0
1,70,81,12
1,75,68,8
1,29,111,28
1,80,109,0
1,77,108,2
1,41,113,2
1,72,97,2
1,30,115,78
1,82,111,2
1,42,119,2
1,78,103,2
1,73,105,0
1,70,59,0
1,75,64,2
1,31,111,20
1,77,107,2
1,80,104,0
1,43,110,0
1,72,92,8
1,82,48,8
1,70,90,20
1,78,68,6
1,75,64,2
1,44,125,30
1,32,122,0
1,70,114,52
1,75,107,0
1,72,108,2
1,78,103,0
1,68,81,48
1,72,83,4
1,77,43,10
1,58,96,10
1,63,104,0
1,54,92,4
1,66,86,2
1,60,85,2
1,75,84,8
1,70,81,2
1,72,93,54
1,68,13,8
1,75,99,14
1,66,100,8
1,70,100,2
1,39,28,34
1,27,119,56
1,39,121,0
1,66,88,4
1,70,86,0
1,75,72,4
1,70,69,48
1,61,88,8
1,71,101,6
1,62,100,2
1,65,103,0
1,54,99,104
1,66,101,0
1,63,105,0
1,72,102,4
1,58,98,0
1,60,101,2
1,46,7,124
1,68,66,50
1,65,32,16
1,74,25,2
1,68,111,2
1,34,117,4
1,46,117,2
1,70,104,90
1,66,93,8
1,70,68,14
1,67,55,2
1,68,110,30
1,36,115,0
1,72,106,6
1,66,95,10
1,70,90,38
1,67,72,60
1,63,75,18
1,58,84,2
1,36,67,20
1,45,41,2
1,43,32,6
1,57,105,2
1,37,116,0
1,56,109,114
1,37,95,106
1,38,114,34
1,54,112,72
1,39,120,4
1,63,106,0
1,58,63,112
1,55,62,4
1,39,111,54
1,27,112,0
1,63,105,40
1,55,94,0
1,58,97,4
1,60,92,104
1,51,114,0
1,56,90,0
1,39,121,4
1,65,78,4
1,60,75,74
1,56,61,4
1,63,77,2
1,66,89,38
1,58,84,0
1,61,90,0
1,27,112,80
1,39,103,14
1,66,108,28
1,58,107,2
1,61,101,4
1,39,105,26
1,56,106,60
1,65,106,12
1,51,111,2
1,63,85,44
1,56,31,24
1,60,101,18
1,56,79,6
1,54,81,38
1,39,101,8
1,55,91,4
1,27,115,6
1,39,100,6
1,55,103,72
1,63,108,0
1,58,102,0
1,51,111,108
1,39,117,0
1,60,97,2
1,56,94,2
1,63,70,24
1,60,91,76
1,56,92,0
1,63,88,10
1,58,97,30
1,66,97,4
1,61,92,4
1,27,104,58
1,39,103,18
1,66,109,38
1,58,107,0
1,61,108,2
1,24,106,2
1,56,104,26
1,65,108,6
1,25,112,4
1,63,75,40
1,56,24,14
1,26,111,24
1,60,103,0
1,56,97,4
1,27,117,68
1,39,108,12
1,63,105,24
1,55,89,2
