track,note,velocity,time
1,57,64,2622
1,62,64,6
1,59,64,6
1,66,64,0
1,45,73,6
1,57,64,12
1,61,64,6
1,64,64,6
1,56,64,2294
1,54,64,690
1,59,64,6
1,62,64,0
1,45,73,6
1,53,64,1512
1,64,64,728
1,59,64,36
1,61,64,6
1,52,64,4
1,57,64,498
1,64,64,1714
1,57,64,12
1,62,64,4
1,59,64,6
1,66,64,0
1,45,73,4
1,57,64,12
1,61,64,6
1,64,64,6
1,57,64,16
1,62,64,0
1,66,64,6
1,59,64,0
1,45,73,6
1,57,64,12
1,61,64,6
1,64,64,6
1,56,64,2294
1,54,64,690
1,59,64,6
1,62,64,0
1,45,73,6
1,57,64,3032
1,61,64,6
1,52,64,6
1,56,64,2270
1,54,64,18
1,59,64,12
1,62,64,0
1,45,73,6
1,61,64,1500
1,53,64,772
1,57,64,712
1,61,64,6
1,52,64,6
1,64,64,1484
1,69,64,742
1,62,64,6
1,64,64,10
1,69,64,0
1,45,73,6
1,61,64,3030
1,64,64,10
1,59,64,18
1,63,64,12
1,66,64,0
1,45,73,0
1,65,64,1506
1,62,64,2
1,57,64,1460
1,61,64,6
1,64,64,6
1,69,64,26
1,69,64,26
1,62,64,0
1,59,64,0
1,66,64,0
1,45,40,6
1,69,64,12
1,61,64,6
1,57,64,4
1,64,64,2
1,69,64,16
1,62,64,0
1,66,64,6
1,59,64,0
1,45,40,6
1,61,64,1534
1,69,64,12
1,57,64,6
1,61,64,0
1,64,64,6
1,66,64,4
1,59,64,6
1,62,64,0
1,45,40,6
1,69,64,0
1,61,64,1534
1,57,64,30
1,61,64,6
1,69,64,2
1,64,64,4
1,68,64,2286
1,66,64,18
1,69,64,10
1,59,64,2
1,62,64,0
1,45,40,4
1,61,64,1506
1,57,64,8
1,61,64,6
1,69,64,4
1,64,64,2
1,66,64,8
1,62,64,0
1,64,64,12
1,57,64,2
1,45,73,4
1,61,64,8
1,64,64,6
1,57,64,8
1,59,64,18
1,63,64,12
1,66,64,0
1,45,73,0
1,65,64,1526
1,62,64,2
1,57,64,1460
1,61,64,6
1,64,64,6
1,63,64,6
1,66,64,12
1,59,64,2
1,45,40,4
1,62,64,1516
1,65,64,14
1,61,64,1452
1,57,64,18
1,64,64,8
1,56,64,2276
1,59,64,18
1,63,64,12
1,66,64,0
1,45,40,0
1,65,64,1506
1,62,64,2
1,57,64,1460
1,61,64,6
1,64,64,6
1,57,64,6
1,62,64,6
1,59,64,6
1,66,64,0
1,45,70,6
1,64,64,4
1,61,64,14
1,57,64,4
1,56,64,2266
1,62,64,0
1,54,64,6
1,59,64,0
1,45,70,6
1,53,64,1510
1,52,64,1460
1,57,64,6
1,61,64,0
1,64,64,2234
1,66,64,4
1,59,64,6
1,62,64,0
1,45,40,6
1,69,64,0
1,57,64,12
1,61,64,6
1,64,64,6
1,68,64,2286
1,66,64,18
1,69,64,10
1,59,64,2
1,62,64,0
1,45,40,4
1,57,64,8
1,61,64,6
1,69,64,4
1,64,64,2
1,66,64,10
1,62,64,2
1,64,64,10
1,57,64,2
1,45,40,4
1,61,64,3030
1,57,64,2
1,64,64,8
1,59,64,18
1,63,64,12
1,66,64,0
1,45,40,0
1,65,64,1506
1,62,64,2
1,57,64,1460
1,61,64,6
1,64,64,6
1,62,64,2
1,64,64,12
1,57,64,2
1,45,40,4
1,61,64,3040
1,57,64,2
1,64,64,8
1,59,64,18
1,63,64,12
1,66,64,0
1,45,40,0
1,65,64,1506
1,62,64,2
1,57,64,1460
1,61,64,6
1,64,64,6
1,68,64,2266
1,63,64,6
1,66,64,12
1,59,64,2
1,45,40,4
1,62,64,1490
1,65,64,14
1,61,64,1452
1,57,64,18
1,64,64,8
1,68,64,2276
1,59,64,18
1,63,64,12
1,66,64,0
1,45,40,0
1,65,64,1506
1,62,64,2
1,57,64,1460
1,61,64,6
1,64,64,6
1,68,64,138
1,63,64,6
1,66,64,12
1,59,64,2
1,45,40,4
1,62,64,136
1,65,64,14
1,61,64,12
1,57,64,18
1,64,64,8
1,68,64,58
1,59,64,18
1,63,64,12
1,66,64,0
1,45,40,0
1,65,64,98
1,62,64,2
1,57,64,16
1,61,64,6
1,64,64,6
1,68,64,56
2,33,111,48732
2,28,93,4
2,30,102,56
2,33,111,72
2,33,111,58
2,33,111,80
2,33,111,150
2,28,93,220
2,30,102,56
2,33,111,72
2,28,93,4
2,30,102,56
2,33,111,72
2,33,111,58
2,33,111,80
2,33,111,150
2,28,93,220
2,30,102,56
2,33,111,72
2,28,93,4
2,30,102,56
2,33,111,72
2,33,111,58
2,33,111,80
2,33,111,150
2,28,93,220
2,30,102,56
2,33,111,72
2,28,93,4
2,30,102,56
2,33,111,72
2,33,111,58
2,33,111,80
2,33,111,150
2,28,93,220
2,30,102,56
2,33,111,72
2,28,93,4
2,30,102,56
2,33,111,72
2,33,111,58
2,33,111,80
2,33,111,150
2,28,93,220
2,30,102,56
2,33,111,72
2,28,93,4
2,30,102,56
2,33,111,72
2,33,111,58
2,33,111,80
2,33,111,150
2,28,93,220
2,30,102,56
2,33,111,72
2,28,93,4
2,30,102,56
2,33,111,72
2,33,111,58
2,33,111,80
2,33,111,150
2,28,93,220
2,30,102,56
2,33,111,72
2,28,93,4
2,30,102,56
2,33,111,72
2,33,111,58
2,33,111,80
2,33,111,150
2,28,93,220
2,30,102,56
2,33,111,72
2,28,93,4
2,30,102,56
2,33,111,72
2,33,111,58
2,33,111,80
2,33,111,150
2,28,93,220
2,30,102,56
2,33,111,72
2,28,93,4
2,30,102,56
2,33,111,72
2,33,111,58
2,33,111,80
2,33,111,150
2,28,93,220
2,30,102,56
2,33,111,72
2,28,93,4
2,30,102,56
2,33,111,72
2,33,111,58
2,33,111,80
2,33,111,150
2,28,93,220
2,30,102,56
2,33,111,72
2,28,93,4
2,30,102,56
2,33,111,72
2,33,111,58
2,33,111,80
2,33,111,150
2,28,93,220
2,30,102,56
2,33,111,72
2,28,93,4
2,30,102,56
2,33,111,72
2,33,111,58
2,33,111,80
2,33,111,150
2,28,93,220
2,30,102,56
2,33,111,72
2,28,93,4
2,30,102,56
2,33,111,72
2,33,111,58
2,33,111,80
2,33,111,150
2,28,93,220
2,30,102,56
2,33,111,72
2,28,93,4
2,30,102,56
2,33,111,72
2,33,111,58
2,33,111,80
2,33,111,150
2,28,93,220
2,30,102,56
2,33,111,72
2,28,93,4
2,30,102,56
2,33,111,72
2,33,111,58
2,33,111,80
2,33,111,150
2,28,93,220
2,30,102,56
2,33,111,72
2,28,93,4
2,30,102,56
2,33,111,72
2,33,111,58
2,33,111,80
2,33,111,150
2,28,93,220
2,30,102,56
2,33,111,72
2,28,93,4
2,30,102,56
2,33,111,72
2,33,111,58
2,33,111,80
2,33,111,150
2,28,93,220
2,30,102,56
2,33,111,72
2,28,93,4
2,30,102,56
2,33,111,72
2,33,111,58
2,33,111,80
2,33,111,150
2,28,93,220
2,30,102,56
2,33,111,72
2,28,93,4
2,30,102,56
2,33,111,72
2,30,111,58
2,33,111,80
2,28,93,68
2,28,102,56
2,30,111,72
2,30,111,58
2,28,93,32
2,30,102,56
2,33,111,72
2,28,93,4
2,30,102,56
2,33,111,72
2,30,111,58
2,33,111,80
2,28,93,68
2,28,102,56
2,30,111,72
2,30,111,58
2,28,93,32
2,30,102,56
2,33,111,72
2,28,93,4
2,30,102,56
2,33,111,72
2,30,111,58
2,33,111,80
2,28,93,68
2,28,102,56
2,30,111,72
2,30,111,58
2,28,93,32
2,30,102,56
2,33,111,72
2,28,93,4
2,30,102,56
2,33,111,72
2,30,111,58
2,33,111,80
2,28,93,68
2,28,102,56
2,30,111,72
2,30,111,58
2,28,93,32
2,30,102,56
2,33,111,72
2,28,93,4
2,30,102,56
2,33,111,72
2,30,111,58
2,33,111,80
2,28,93,68
2,28,102,56
2,30,111,72
2,30,111,58
2,28,93,32
2,30,102,56
2,33,111,72
2,28,93,4
2,29,102,56
2,33,111,72
2,29,111,58
2,33,111,80
2,28,93,68
2,28,102,56
2,29,111,72
2,29,111,58
2,28,93,32
2,30,102,56
2,33,111,72
2,28,93,4
2,30,102,56
2,33,111,72
2,30,111,58
2,33,111,80
2,28,93,68
2,28,102,56
2,30,111,72
2,30,111,58
2,28,93,32
2,30,102,56
2,33,111,72
2,28,93,4
2,30,102,56
2,33,111,72
2,30,111,58
2,33,111,80
2,28,93,68
2,28,102,56
2,30,111,72
2,30,111,58
2,28,93,32
2,30,102,56
2,33,111,72
2,28,93,4
2,30,102,56
2,33,111,72
2,30,111,58
2,33,111,80
2,28,93,68
2,28,102,56
2,30,111,72
2,30,111,58
2,28,93,32
2,30,102,56
2,33,111,72
2,28,93,4
2,29,102,56
2,33,111,72
2,29,111,58
2,33,111,80
2,28,93,68
2,28,102,56
2,29,111,72
2,29,111,58
2,28,93,32
2,30,102,56
2,33,111,72
2,28,93,4
2,30,102,56
2,33,111,72
2,30,111,58
2,33,111,80
2,28,93,68
2,28,102,56
2,30,111,72
2,30,111,58
2,28,93,32
2,30,102,56
2,33,111,72
2,28,93,4
2,30,102,56
2,33,111,72
2,30,111,58
2,33,111,80
2,28,93,68
2,28,102,56
2,30,111,72
2,30,111,58
2,28,93,32
2,30,102,56
2,33,111,72
2,28,93,4
2,30,102,56
2,33,111,72
2,30,111,58
2,33,111,80
2,28,93,68
2,28,102,56
2,30,111,72
2,30,111,58
2,28,93,32
2,30,102,56
2,33,111,72
2,28,93,4
2,29,102,56
2,33,111,72
2,29,111,58
2,33,111,80
2,28,93,68
2,28,102,56
2,29,111,72
2,29,111,58
2,28,101,32
2,33,111,32
2,45,109,9208
2,45,81,8
2,54,109,38
2,54,88,152
2,45,109,80
2,40,91,16
2,42,100,34
2,45,109,18
2,42,101,54
2,45,109,70
2,45,73,6
2,42,104,56
2,45,109,160
2,45,109,28
2,40,91,4
2,42,100,34
2,45,109,18
2,42,103,54
2,45,109,68
2,54,109,4
2,52,109,16
2,47,109,2
2,50,104,16
2,47,113,96
2,42,99,84
2,45,113,4
2,45,109,14
2,40,91,4
2,42,100,34
2,45,109,18
2,42,103,54
2,45,109,68
2,40,91,36
2,42,100,34
2,45,109,18
2,42,103,54
2,45,109,66
2,45,81,28
2,42,109,80
2,45,109,524
2,40,91,4
2,42,100,34
2,45,109,18
2,42,103,54
2,45,109,68
2,40,91,36
2,42,100,34
2,45,109,18
2,42,103,54
2,45,109,66
2,45,81,28
2,45,109,68
2,42,109,72
2,33,111,4
2,28,93,4
2,30,102,56
2,33,111,72
2,30,111,58
2,33,111,80
2,28,93,68
2,28,102,56
2,30,111,72
2,30,111,58
2,28,93,32
2,30,102,56
2,33,111,72
2,28,93,4
2,30,102,56
2,33,111,72
2,30,111,58
2,33,111,80
2,28,93,68
2,28,102,56
2,30,111,72
2,30,111,58
2,28,93,32
2,30,102,56
2,33,111,72
2,28,93,4
2,30,102,56
2,33,111,72
2,30,111,58
2,33,111,80
2,28,93,68
2,28,102,56
2,30,111,72
2,30,111,58
2,28,93,32
2,30,102,56
2,33,111,72
2,28,93,4
2,30,102,56
2,33,111,72
2,30,111,58
2,33,111,80
2,28,93,68
2,28,102,56
2,30,111,72
2,30,111,58
2,28,93,32
2,30,102,56
2,33,111,72
2,28,93,4
2,30,102,56
2,33,111,72
2,30,111,58
2,33,111,80
2,28,93,68
2,28,102,56
2,30,111,72
2,30,111,58
2,28,93,32
2,30,102,56
2,33,111,72
2,28,93,4
2,29,102,56
2,33,111,72
2,29,111,58
2,33,111,80
2,28,93,68
2,28,102,56
2,29,111,72
2,29,111,58
2,28,93,32
2,30,102,56
2,33,111,72
2,28,93,4
2,30,102,56
2,33,111,72
2,30,111,58
2,33,111,80
2,28,93,68
2,28,102,56
2,30,111,72
2,30,111,58
2,28,93,32
2,30,102,56
2,33,111,72
2,28,93,4
2,30,102,56
2,33,111,72
2,30,111,58
2,33,111,80
2,28,93,68
2,28,102,56
2,30,111,72
2,30,111,58
2,28,93,32
2,30,102,56
2,33,111,72
2,28,93,4
2,30,102,56
2,33,111,72
2,30,111,58
2,33,111,80
2,28,93,68
2,28,102,56
2,30,111,72
2,30,111,58
2,28,93,32
2,30,102,56
2,33,111,72
2,28,93,4
2,30,102,56
2,33,111,72
2,30,111,58
2,33,111,80
2,28,93,68
2,28,102,56
2,30,111,72
2,30,111,58
2,28,93,32
2,30,102,56
2,33,111,72
2,28,93,4
2,30,102,56
2,33,111,72
2,30,111,58
2,33,111,80
2,28,93,68
2,28,102,56
2,30,111,72
2,30,111,58
2,28,93,32
2,30,102,56
2,33,111,72
2,28,93,4
2,30,102,56
2,33,111,72
2,30,111,58
2,33,111,80
2,28,93,68
2,28,102,56
2,30,111,72
2,30,111,58
2,28,93,32
2,30,102,56
2,33,111,72
2,28,93,4
2,30,102,56
2,33,111,72
2,30,111,58
2,33,111,80
2,28,93,68
2,28,102,56
2,30,111,72
2,30,111,58
2,28,93,32
2,30,102,56
2,33,111,72
2,28,93,4
2,29,102,56
2,33,111,72
2,29,111,58
2,33,111,80
2,28,93,68
2,28,102,56
2,29,111,72
2,29,111,58
2,28,93,32
2,30,102,56
2,33,111,72
2,28,93,4
2,30,102,56
2,33,111,72
2,30,111,58
2,33,111,80
2,28,93,68
2,28,102,56
2,30,111,72
2,30,111,58
2,28,93,32
2,30,102,56
2,33,111,72
2,28,93,4
2,30,102,56
2,30,111,72
2,30,111,58
2,30,102,80
2,30,102,72
2,30,111,58
2,30,111,58
2,30,102,80
2,30,111,72
2,30,111,54
2,30,111,58
2,33,93,80
2,33,102,56
2,33,111,72
2,28,93,4
2,30,102,56
2,33,111,72
2,30,111,58
2,33,111,80
2,28,93,68
2,28,102,56
2,30,111,72
2,30,111,58
2,28,93,32
2,30,102,56
2,33,111,72
2,28,93,4
2,29,102,56
2,33,111,72
2,29,111,58
2,33,111,80
2,28,93,68
2,28,102,56
2,29,111,72
2,29,111,58
2,28,93,32
2,30,102,56
2,33,111,72
2,28,93,4
2,30,102,56
2,33,111,72
2,30,111,58
2,33,111,80
2,28,93,68
2,28,102,56
2,30,111,72
2,30,111,58
2,28,93,32
2,30,102,56
2,33,111,72
2,37,93,4
2,37,102,56
2,37,111,72
2,37,111,58
2,36,102,80
2,36,102,72
2,36,111,50
2,36,111,58
2,35,102,80
2,35,111,72
2,35,111,52
2,28,111,60
2,28,93,50
2,30,102,56
2,33,111,54
2,28,93,4
2,30,102,56
2,33,111,72
2,30,111,58
2,33,111,80
2,28,93,68
2,28,102,56
2,30,111,72
2,30,111,58
2,28,93,32
2,30,102,56
2,33,111,72
2,28,93,4
2,29,102,56
2,33,111,72
2,29,111,58
2,33,111,80
2,28,93,68
2,28,102,56
2,29,111,72
2,29,111,58
2,28,93,32
2,30,102,56
2,33,111,72
2,28,93,4
2,30,102,56
2,33,111,72
2,30,111,6
2,33,111,80
2,28,93,68
2,28,102,56
2,30,111,72
2,30,111,46
2,28,93,32
2,30,102,56
2,33,111,56
2,28,93,4
2,30,102,56
2,33,111,72
2,30,111,58
2,33,111,80
2,28,93,68
2,28,102,56
2,30,111,72
2,30,111,50
2,28,93,28
2,30,102,56
2,33,111,72
2,28,93,4
2,30,102,42
2,33,111,54
2,30,111,54
2,33,111,6
2,28,93,68
2,28,102,6
2,30,111,72
2,30,111,58
2,28,93,32
2,30,102,56
2,33,111,72
2,28,93,4
2,29,102,38
2,33,111,72
2,29,111,58
2,33,111,48
2,28,93,32
2,28,102,36
2,29,111,10
2,29,111,58
2,28,93,32
2,30,102,56
2,33,111,66
2,28,93,4
2,30,102,32
2,33,111,54
2,30,111,58
2,33,111,80
2,28,93,56
2,28,102,56
2,30,111,68
2,30,111,58
2,28,93,32
2,30,102,56
2,33,111,14
2,37,93,2
2,37,102,14
2,37,111,2
2,37,111,12
2,36,102,14
2,36,102,72
2,36,111,50
2,36,111,18
2,35,102,80
2,35,111,72
2,35,111,52
2,33,111,26
2,33,93,0
2,33,102,2
2,33,111,54
2,28,93,4
2,30,102,56
2,33,111,66
2,30,111,24
