track,note,velocity,time
0,53,83,4180
0,57,83,2
0,60,80,0
0,65,85,0
0,69,79,0
0,72,84,2
0,77,70,0
0,53,83,284
0,57,80,2
0,60,85,0
0,65,80,0
0,69,79,0
0,72,82,2
0,77,75,0
0,51,79,284
0,55,83,2
0,58,87,0
0,63,81,0
0,67,79,0
0,70,86,2
0,75,80,0
0,67,73,2
0,70,73,0
0,75,78,2
0,51,81,2
0,55,80,122
0,58,81,2
0,63,79,0
0,69,84,0
0,72,84,0
0,77,70,0
0,53,85,2
0,57,78,0
0,60,85,0
0,65,83,0
0,53,85,256
0,57,80,2
0,60,87,0
0,65,85,0
0,69,86,0
0,72,79,0
0,77,71,2
0,53,83,256
0,57,80,2
0,60,83,0
0,65,80,0
0,69,77,0
0,72,86,2
0,77,70,0
0,55,83,4
0,58,81,0
0,63,79,0
0,67,77,2
0,70,80,0
0,75,78,0
0,51,81,0
0,67,66,0
0,70,76,0
0,75,80,2
0,55,83,4
0,58,81,0
0,63,81,0
0,67,73,2
0,70,80,0
0,75,78,0
0,51,81,2
0,53,85,4
0,57,83,2
0,60,83,0
0,65,87,0
0,69,79,0
0,72,84,2
0,77,70,0
0,53,85,284
0,57,80,2
0,60,83,0
0,65,83,0
0,69,79,0
0,72,82,2
0,77,75,0
0,51,81,282
0,55,83,2
0,58,81,0
0,63,81,0
0,67,79,0
0,70,86,2
0,75,80,0
0,67,73,2
0,70,73,0
0,75,78,2
0,51,79,2
0,55,80,122
0,58,79,0
0,63,81,2
0,69,86,0
0,72,86,0
0,77,82,0
0,53,83,2
0,57,78,0
0,60,85,0
0,65,83,0
0,51,87,256
0,55,85,0
0,58,81,2
0,63,81,0
0,67,79,0
0,70,80,2
0,75,80,0
0,51,81,4
0,55,83,0
0,58,81,0
0,63,81,0
0,67,75,0
0,70,78,0
0,75,73,0
0,55,85,0
0,58,87,0
0,63,87,0
0,67,73,2
0,70,78,0
0,75,78,0
0,51,81,0
0,67,71,0
0,70,76,2
0,75,78,0
0,55,83,4
0,58,87,0
0,63,87,0
0,67,75,2
0,70,80,0
0,75,73,0
0,51,87,2
0,53,83,32
0,57,83,2
0,60,80,0
0,65,85,0
0,69,79,0
0,72,84,2
0,77,70,0
0,39,64,254
0,39,94,4
0,53,83,6
0,57,80,0
0,60,85,2
0,65,80,0
0,69,79,0
0,72,82,2
0,77,75,0
0,51,79,282
0,55,83,2
0,58,87,0
0,63,81,0
0,67,79,0
0,70,86,2
0,75,80,0
0,67,73,2
0,70,73,0
0,75,78,2
0,51,81,2
0,39,64,92
0,39,94,4
0,55,80,6
0,58,81,2
0,63,79,0
0,69,84,0
0,72,84,0
0,77,70,0
0,53,85,2
0,57,78,0
0,60,85,0
0,65,83,0
0,53,85,256
0,57,80,0
0,60,87,2
0,65,85,0
0,69,86,0
0,72,79,2
0,77,71,0
0,39,64,0
0,39,94,4
0,53,83,242
0,57,80,2
0,60,83,0
0,65,80,0
0,69,77,0
0,72,86,2
0,77,70,0
0,55,83,4
0,58,81,0
0,63,79,0
0,67,77,2
0,70,80,0
0,75,78,0
0,51,81,0
0,67,66,0
0,70,76,2
0,75,80,0
0,39,64,92
0,39,94,4
0,55,83,2
0,58,81,0
0,63,81,0
0,67,73,2
0,70,80,0
0,75,78,0
0,51,81,2
0,53,85,4
0,57,83,2
0,60,83,0
0,65,87,0
0,69,79,0
0,72,84,2
0,77,70,0
0,39,64,258
0,39,94,0
0,53,85,6
0,57,80,0
0,60,83,2
0,65,83,0
0,69,79,0
0,72,82,2
0,77,75,0
0,51,81,282
0,55,83,2
0,58,81,0
0,63,81,0
0,67,79,0
0,70,86,2
0,75,80,0
0,67,73,2
0,70,73,0
0,75,78,2
0,51,79,2
0,39,64,92
0,39,94,4
0,55,80,6
0,58,79,0
0,63,81,2
0,69,86,0
0,72,86,0
0,77,82,0
0,53,83,2
0,57,78,0
0,60,85,0
0,65,83,0
0,51,87,256
0,55,85,2
0,58,81,0
0,63,81,0
0,67,79,0
0,70,80,2
0,75,80,0
0,39,64,2
0,39,94,4
0,51,81,4
0,55,83,0
0,58,81,0
0,63,81,0
0,67,75,2
0,70,78,0
0,75,73,0
0,55,85,0
0,58,87,0
0,63,87,0
0,67,73,2
0,70,78,0
0,75,78,2
0,38,98,242
0,51,81,0
0,67,71,0
0,70,76,2
0,75,78,0
0,39,64,84
0,35,106,4
0,39,94,0
0,55,83,2
0,58,87,0
0,63,87,0
0,67,75,2
0,70,80,0
0,75,73,0
0,51,87,2
0,35,106,26
0,53,73,2
0,41,100,4
0,53,83,2
0,57,83,0
0,60,80,0
0,65,85,0
0,69,79,2
0,72,84,0
0,77,70,0
0,39,64,252
0,38,102,4
0,39,94,0
0,53,73,2
0,53,83,4
0,57,80,2
0,60,85,0
0,65,80,0
0,69,79,0
0,72,82,2
0,77,75,0
0,35,96,150
0,53,66,0
0,41,100,4
0,35,106,0
0,53,77,0
0,36,100,2
0,51,79,2
0,55,83,2
0,58,87,0
0,63,81,0
0,67,79,0
0,70,86,2
0,75,80,0
0,67,73,2
0,70,73,0
0,75,78,0
0,51,70,120
0,51,81,2
0,39,64,84
0,38,102,4
0,39,94,0
0,55,80,6
0,58,81,0
0,63,79,2
0,35,96,174
0,51,67,0
0,36,100,0
0,69,84,0
0,72,84,0
0,77,70,0
0,53,85,2
0,57,78,0
0,60,85,0
0,65,83,0
0,35,106,20
0,41,100,4
0,51,71,236
0,53,85,6
0,57,80,2
0,60,87,0
0,65,85,0
0,69,86,0
0,72,79,2
0,77,71,0
0,39,64,0
0,38,102,2
0,39,94,2
0,35,96,190
0,51,68,2
0,41,100,2
0,53,83,2
0,57,80,2
0,60,83,0
0,65,80,0
0,69,77,0
0,72,86,0
0,77,70,2
0,35,106,0
0,51,66,0
0,36,100,4
0,55,83,0
0,58,81,0
0,63,79,0
0,67,77,0
0,70,80,0
0,75,78,2
0,53,69,234
0,51,81,0
0,67,66,0
0,70,76,2
0,75,80,0
0,39,64,84
0,38,102,4
0,39,94,2
0,53,69,0
0,55,83,2
0,58,81,0
0,63,81,0
0,67,73,2
0,70,80,0
0,75,78,0
0,35,96,154
0,51,68,2
0,36,100,0
0,51,81,4
0,35,106,30
0,51,71,2
0,41,100,2
0,53,85,2
0,57,83,0
0,60,83,0
0,65,87,0
0,69,79,2
0,72,84,0
0,77,70,0
0,53,66,150
0,39,64,84
0,38,102,4
0,39,94,0
0,53,77,2
0,53,85,4
0,57,80,2
0,60,83,0
0,65,83,0
0,69,79,0
0,72,82,2
0,77,75,0
0,35,96,150
0,51,59,0
0,41,100,4
0,35,106,0
0,51,71,0
0,36,100,4
0,51,81,2
0,55,83,0
0,58,81,0
0,63,81,0
0,67,79,2
0,70,86,0
0,75,80,0
0,67,73,2
0,70,73,0
0,75,78,0
0,53,90,120
0,51,79,0
0,39,64,84
0,38,102,4
0,39,94,0
0,55,80,6
0,58,79,0
0,63,81,2
0,35,96,130
0,53,94,0
0,36,100,4
0,69,86,2
0,72,86,0
0,77,82,0
0,53,83,0
0,57,78,0
0,60,85,2
0,65,83,0
0,35,106,22
0,41,100,4
0,51,70,236
0,51,87,6
0,55,85,2
0,58,81,0
0,63,81,0
0,67,79,0
0,70,80,2
0,75,80,0
0,39,64,2
0,38,102,4
0,39,94,2
0,51,70,0
0,35,96,210
0,51,70,2
0,41,100,2
0,51,81,2
0,55,83,0
0,58,81,0
0,63,81,0
0,67,75,0
0,70,78,0
0,75,73,2
0,35,106,0
0,51,71,0
0,36,100,4
0,55,85,0
0,58,87,0
0,63,87,0
0,67,73,2
0,70,78,0
0,75,78,2
0,53,73,234
0,51,81,0
0,67,71,0
0,70,76,2
0,75,78,0
0,39,64,84
0,38,102,4
0,39,94,2
0,53,77,0
0,55,83,2
0,58,87,0
0,63,87,0
0,67,75,2
0,70,80,0
0,75,73,0
0,35,96,126
0,51,65,2
0,36,100,2
0,51,87,2
0,35,106,26
0,51,66,0
0,72,82,4
0,41,100,2
0,53,83,2
0,57,83,0
0,60,80,0
0,65,85,0
0,69,79,2
0,72,84,0
0,77,70,0
0,77,82,8
0,72,82,28
0,77,82,4
0,53,81,62
0,72,82,4
0,77,82,8
0,39,64,38
0,38,102,6
0,39,94,0
0,53,81,0
0,53,83,4
0,72,82,0
0,57,80,2
0,60,85,0
0,65,80,0
0,69,79,0
0,72,82,0
0,77,75,0
0,77,82,12
0,72,82,0
0,77,82,8
0,35,96,62
0,72,82,4
0,41,100,2
0,77,82,8
0,35,106,0
0,51,71,0
0,79,101,4
0,36,100,2
0,51,79,0
0,55,83,0
0,58,87,0
0,63,81,2
0,67,79,0
0,70,86,0
0,75,80,0
0,67,73,2
0,70,73,0
0,75,78,0
0,51,81,0
0,39,64,94
0,38,102,4
0,39,94,0
0,51,68,2
0,75,99,2
0,55,80,2
0,58,81,2
0,63,79,0
0,35,96,130
0,51,71,0
0,77,103,4
0,36,100,2
0,69,84,0
0,72,84,0
0,77,70,0
0,53,85,0
0,57,78,0
0,60,85,2
0,65,83,0
0,35,106,6
0,41,100,4
0,53,77,236
0,74,96,4
0,53,85,2
0,57,80,2
0,60,87,0
0,65,85,0
0,69,86,0
0,72,79,2
0,77,71,0
0,39,64,0
0,38,102,4
0,39,94,0
0,53,77,2
0,75,97,2
0,35,96,118
0,51,70,0
0,41,100,4
0,53,83,2
0,57,80,0
0,60,83,2
0,65,80,0
0,69,77,0
0,72,86,2
0,77,70,0
0,35,106,0
0,51,68,0
0,72,103,4
0,36,100,0
0,55,83,0
0,58,81,0
0,63,79,0
0,67,77,2
0,70,80,0
0,75,78,0
0,53,73,82
0,74,94,4
0,51,81,0
0,67,66,2
0,70,76,0
0,75,80,0
0,39,64,84
0,38,102,4
0,39,94,2
0,53,81,0
0,55,83,2
0,58,81,0
0,63,81,0
0,67,73,2
0,70,80,0
0,75,78,0
0,35,96,154
0,51,65,2
0,70,105,2
0,36,100,2
0,51,81,2
0,35,106,10
0,51,67,0
0,72,103,4
0,41,100,2
0,53,85,0
0,57,83,0
0,60,83,0
0,65,87,0
0,69,79,2
0,72,84,0
0,77,70,0
0,53,73,150
0,39,64,84
0,38,102,4
0,39,94,2
0,53,81,0
0,69,98,2
0,53,85,2
0,57,80,2
0,60,83,0
0,65,83,0
0,69,79,0
0,72,82,2
0,77,75,0
0,35,96,134
0,51,70,2
0,70,97,2
0,41,100,2
0,35,106,106
0,51,67,0
0,36,100,2
0,51,81,2
0,55,83,0
0,58,81,2
0,63,81,0
0,67,79,0
0,70,86,0
0,75,80,0
0,67,73,2
0,70,73,0
0,75,78,0
0,53,73,120
0,67,105,4
0,51,79,2
0,39,64,84
0,38,102,4
0,39,94,0
0,53,69,2
0,69,96,2
0,55,80,2
0,58,79,2
0,63,81,0
0,35,96,114
0,51,71,0
0,36,100,0
0,69,86,0
0,72,86,0
0,77,82,0
0,53,83,2
0,57,78,0
0,60,85,0
0,65,83,0
0,35,106,22
0,51,70,2
0,67,103,2
0,41,100,2
0,51,71,118
0,51,87,6
0,55,85,2
0,58,81,0
0,63,81,0
0,67,79,0
0,70,80,0
0,75,80,2
0,39,64,2
0,38,102,0
0,39,94,0
0,51,71,2
0,67,103,2
0,35,96,234
0,53,73,0
0,41,100,4
0,51,81,2
0,55,83,0
0,58,81,0
0,63,81,0
0,67,75,0
0,70,78,0
0,75,73,2
0,35,106,0
0,53,77,0
0,36,100,4
0,55,85,0
0,58,87,2
0,63,87,0
0,67,73,0
0,70,78,0
0,75,78,2
0,51,68,234
0,65,103,4
0,51,81,0
0,67,71,2
0,70,76,0
0,75,78,2
0,39,64,84
0,38,102,4
0,39,94,0
0,51,71,2
0,67,98,2
0,55,83,0
0,58,87,0
0,63,87,0
0,67,75,0
0,70,80,0
0,75,73,0
0,35,96,126
0,53,85,2
0,36,100,2
0,60,112,2
0,51,87,2
0,60,102,24
0,35,106,18
0,53,73,0
0,60,87,4
0,41,100,2
0,53,83,2
0,57,83,0
0,60,80,0
0,65,116,0
0,65,85,2
0,69,79,0
0,72,84,0
0,77,70,0
0,65,106,28
0,65,86,8
0,60,85,28
0,65,83,4
0,60,82,44
0,65,81,8
0,39,64,38
0,38,102,4
0,39,94,2
0,53,73,0
0,60,79,2
0,65,115,2
0,53,83,2
0,57,80,0
0,60,85,0
0,65,80,0
0,69,79,2
0,72,82,0
0,77,75,0
0,65,105,12
0,65,78,12
0,60,77,4
0,65,75,8
0,35,96,46
0,53,66,2
0,60,74,2
0,41,100,2
0,63,113,0
0,63,103,26
0,65,72,8
0,35,106,0
0,53,77,0
0,60,71,4
0,36,100,2
0,51,79,0
0,67,116,0
0,55,83,2
0,58,87,0
0,63,81,0
0,67,79,0
0,70,86,0
0,75,80,0
0,67,106,26
0,65,70,16
0,60,68,64
0,67,73,2
0,70,73,0
0,75,78,0
0,65,67,14
0,51,70,38
0,60,66,4
0,63,114,2
0,51,81,2
0,63,104,26
0,65,64,8
0,39,64,38
0,38,102,4
0,39,94,2
0,60,63,2
0,55,80,2
0,58,81,0
0,63,79,0
0,65,61,2
0,60,60,2
0,65,59,12
0,65,117,4
0,65,107,40
0,35,96,18
0,51,67,0
0,60,57,4
0,36,100,2
0,69,84,0
0,72,84,0
0,77,70,0
0,53,85,2
0,57,78,0
0,60,85,0
0,65,83,0
0,65,56,16
0,35,106,14
0,41,100,4
0,60,117,172
0,60,107,40
0,51,71,22
0,53,85,6
0,57,80,2
0,60,87,0
0,65,85,0
0,69,86,0
0,72,79,2
0,77,71,0
0,39,64,2
0,38,102,4
0,39,94,0
0,35,96,82
0,51,68,0
0,41,100,4
0,53,83,2
0,57,80,0
0,60,83,2
0,65,80,0
0,69,77,0
0,72,86,2
0,77,70,0
0,35,106,0
0,51,66,0
0,36,100,2
0,55,83,0
0,58,81,0
0,63,79,0
0,67,77,0
0,70,80,0
0,75,78,0
0,53,69,234
0,51,81,0
0,67,66,2
0,70,76,0
0,75,80,0
0,39,64,84
0,38,102,6
0,39,94,0
0,53,69,0
0,55,83,0
0,58,81,0
0,63,81,0
0,67,73,2
0,70,80,0
0,75,78,0
0,35,96,154
0,51,68,0
0,36,100,4
0,60,111,2
0,51,81,2
0,60,101,26
0,35,106,22
0,51,71,0
0,41,100,4
0,65,116,2
0,53,85,0
0,57,83,0
0,60,83,0
0,65,87,2
0,69,79,0
0,72,84,0
0,77,70,0
0,65,106,26
0,53,66,46
0,39,64,84
0,38,102,4
0,39,94,2
0,53,77,0
0,72,98,2
0,77,101,2
0,53,85,2
0,57,80,0
0,60,83,0
0,65,115,0
0,65,83,2
0,69,79,0
0,72,82,0
0,77,75,0
0,65,105,26
0,35,96,58
0,51,59,2
0,41,100,2
0,63,114,2
0,63,104,24
0,35,106,0
0,51,71,0
0,70,99,2
0,75,99,2
0,36,100,2
0,51,81,0
0,55,83,0
0,58,81,0
0,67,116,0
0,63,81,2
0,67,79,0
0,70,86,0
0,75,80,0
0,67,106,26
0,67,73,2
0,70,73,0
0,75,78,2
0,53,90,6
0,63,117,4
0,51,79,2
0,63,107,24
0,39,64,60
0,38,102,4
0,39,94,2
0,55,80,4
0,58,79,2
0,63,81,0
0,35,96,130
0,53,94,2
0,36,100,2
0,65,117,2
0,69,86,0
0,72,86,0
0,53,83,0
0,57,78,0
0,77,82,0
0,60,85,2
0,65,83,0
0,65,107,24
0,35,106,22
0,41,100,4
0,64,103,110
0,64,93,28
0,62,104,8
0,62,94,36
0,51,70,40
0,60,107,0
0,72,101,2
0,77,98,2
0,51,87,2
0,55,85,0
0,58,81,0
0,63,81,0
0,67,79,2
0,70,80,0
0,75,80,0
0,60,97,20
0,59,104,0
0,59,94,0
0,39,64,2
0,57,107,0
0,38,102,6
0,39,94,0
0,51,70,0
0,57,97,0
0,55,108,4
0,55,98,16
0,53,108,8
0,53,98,16
0,52,109,8
0,52,99,20
0,50,109,8
0,50,99,16
0,48,109,12
0,35,96,18
0,51,70,0
0,48,99,6
