track,note,velocity,time
9,40,64,1920
9,40,0,51
9,40,64,69
9,40,0,51
9,38,64,69
9,38,0,51
9,40,64,129
9,40,0,51
9,40,64,69
9,40,0,51
9,40,64,69
9,40,0,51
9,38,64,9
9,38,0,51
9,38,64,9
9,38,0,51
9,35,64,9
9,35,0,51
9,38,64,9
9,38,0,51
9,40,64,9
9,40,0,51
9,40,64,69
9,40,0,51
9,38,64,69
9,38,0,51
9,40,64,129
9,40,0,51
9,38,64,69
9,38,0,51
9,38,64,69
9,38,0,51
9,38,64,9
9,38,0,51
9,38,64,9
9,38,0,51
9,42,64,9
9,42,0,51
9,38,64,9
9,38,0,51
9,40,64,9
9,40,0,51
9,40,64,69
9,40,0,51
9,38,64,69
9,38,0,51
9,40,64,129
9,40,0,51
9,40,64,69
9,40,0,51
9,40,64,69
9,40,0,51
9,38,64,9
9,38,0,51
9,38,64,9
9,38,0,51
9,35,64,9
9,35,0,51
9,38,64,9
9,38,0,51
9,40,64,9
9,40,0,51
9,40,64,69
9,40,0,51
9,38,64,69
9,38,0,51
9,40,64,129
9,40,0,51
9,38,64,69
9,38,0,51
9,38,64,69
9,38,0,51
9,38,64,9
9,38,0,51
9,38,64,9
9,38,0,51
9,42,64,9
9,42,0,51
9,38,64,9
9,38,0,51
9,40,64,9
9,40,0,51
9,40,64,69
9,40,0,51
9,38,64,69
9,38,0,51
9,40,64,129
9,40,0,51
9,40,64,69
9,40,0,51
9,40,64,69
9,40,0,51
9,38,64,9
9,38,0,51
9,38,64,9
9,38,0,51
9,35,64,9
9,35,0,51
9,38,64,9
9,38,0,51
9,40,64,9
9,40,0,51
9,40,64,69
9,40,0,51
9,38,64,69
9,38,0,51
9,40,64,129
9,40,0,51
9,38,64,69
9,38,0,51
9,38,64,69
9,38,0,51
9,38,64,9
9,38,0,51
9,38,64,9
9,38,0,51
9,42,64,9
9,42,0,51
9,38,64,9
9,38,0,51
9,40,64,9
9,40,0,51
9,40,64,69
9,40,0,51
9,38,64,69
9,38,0,51
9,40,64,129
9,40,0,51
9,40,64,69
9,40,0,51
9,40,64,69
9,40,0,51
9,38,64,9
9,38,0,51
9,38,64,9
9,38,0,51
9,35,64,9
9,35,0,51
9,38,64,9
9,38,0,51
9,40,64,9
9,40,0,51
9,40,64,69
9,40,0,51
9,38,64,69
9,38,0,51
9,40,64,129
9,40,0,51
9,38,64,69
9,38,0,51
9,38,64,69
9,38,0,51
9,38,64,9
9,38,0,51
9,38,64,9
9,38,0,51
9,42,64,9
9,42,0,51
9,38,64,9
9,38,0,51
9,40,64,9
9,40,0,51
9,40,64,69
9,40,0,51
9,38,64,69
9,38,0,51
9,40,64,129
9,40,0,51
9,40,64,69
9,40,0,51
9,40,64,69
9,40,0,51
9,38,64,9
9,38,0,51
9,38,64,9
9,38,0,51
9,35,64,9
9,35,0,51
9,38,64,9
9,38,0,51
9,40,64,9
9,40,0,51
9,40,64,69
9,40,0,51
9,38,64,69
9,38,0,51
9,40,64,129
9,40,0,51
9,38,64,69
9,38,0,51
9,38,64,69
9,38,0,51
9,38,64,9
9,38,0,51
9,38,64,9
9,38,0,51
9,42,64,9
9,42,0,51
9,38,64,9
9,38,0,51
9,40,64,9
9,40,0,51
9,40,64,69
9,40,0,51
9,38,64,69
9,38,0,51
9,40,64,129
9,40,0,51
9,40,64,69
9,40,0,51
9,40,64,69
9,40,0,51
9,38,64,9
9,38,0,51
9,38,64,9
9,38,0,51
9,35,64,9
9,35,0,51
9,38,64,9
9,38,0,51
9,40,64,9
9,40,0,51
9,40,64,69
9,40,0,51
9,38,64,69
9,38,0,51
9,40,64,129
9,40,0,51
9,38,64,69
9,38,0,51
9,38,64,69
9,38,0,51
9,38,64,9
9,38,0,51
9,38,64,9
9,38,0,51
9,42,64,9
9,42,0,51
9,38,64,9
9,38,0,51
9,40,64,9
9,40,0,51
9,40,64,69
9,40,0,51
9,38,64,69
9,38,0,51
9,40,64,129
9,40,0,51
9,40,64,69
9,40,0,51
9,40,64,69
9,40,0,51
9,38,64,9
9,38,0,51
9,38,64,9
9,38,0,51
9,35,64,9
9,35,0,51
9,38,64,9
9,38,0,51
9,40,64,9
9,40,0,51
9,40,64,69
9,40,0,51
9,38,64,69
9,38,0,51
9,40,64,129
9,40,0,51
9,38,64,69
9,38,0,51
9,38,64,69
9,38,0,51
9,38,64,9
9,38,0,51
9,38,64,9
9,38,0,51
9,37,64,9
9,37,0,51
9,35,64,9
9,35,0,51
9,33,64,9
9,33,0,60
9,33,64,15
9,33,0,36
9,37,64,9
9,37,0,111
9,40,64,9
9,40,0,111
9,37,64,9
9,37,0,60
9,38,64,15
9,38,0,36
9,40,64,9
9,40,0,111
9,44,64,9
9,44,0,111
9,47,64,9
9,47,0,111
9,44,64,9
9,44,0,51
9,40,64,24
9,40,0,36
9,33,64,9
9,33,0,111
9,37,64,9
9,37,0,111
9,40,64,9
9,40,0,111
9,37,64,9
9,37,0,111
9,40,64,9
9,40,0,36
9,40,64,39
9,40,0,36
9,44,64,9
9,44,0,111
9,47,64,9
9,47,0,111
9,44,64,9
9,44,0,111
9,33,64,9
9,33,0,111
9,37,64,9
9,37,0,111
9,40,64,9
9,40,0,111
9,37,64,9
9,37,0,111
9,40,64,9
9,40,0,36
9,40,64,39
9,40,0,36
9,44,64,9
9,44,0,111
9,47,64,9
9,47,0,111
9,44,64,9
9,44,0,51
9,47,64,9
9,47,0,51
9,42,64,9
9,42,0,45
9,42,64,15
9,42,0,45
9,42,64,15
9,42,0,45
9,42,64,15
9,42,0,45
9,42,64,15
9,42,0,45
9,42,64,75
9,42,0,45
9,35,64,75
9,35,0,45
9,40,64,435
9,40,0,51
9,40,64,69
9,40,0,51
9,38,64,69
9,38,0,51
9,40,64,129
9,40,0,51
9,40,64,69
9,40,0,51
9,40,64,69
9,40,0,51
9,38,64,9
9,38,0,51
9,38,64,9
9,38,0,51
9,35,64,9
9,35,0,51
9,38,64,9
9,38,0,51
9,40,64,9
9,40,0,51
9,40,64,69
9,40,0,51
9,38,64,69
9,38,0,51
9,40,64,129
9,40,0,51
9,38,64,69
9,38,0,51
9,38,64,69
9,38,0,51
9,38,64,9
9,38,0,51
9,38,64,9
9,38,0,51
9,42,64,9
9,42,0,51
9,38,64,9
9,38,0,51
9,40,64,9
9,40,0,51
9,40,64,69
9,40,0,51
9,38,64,69
9,38,0,51
9,40,64,129
9,40,0,51
9,40,64,69
9,40,0,51
9,40,64,69
9,40,0,51
9,38,64,9
9,38,0,51
9,38,64,9
9,38,0,51
9,35,64,9
9,35,0,51
9,38,64,9
9,38,0,51
9,40,64,9
9,40,0,51
9,40,64,69
9,40,0,51
9,38,64,69
9,38,0,51
9,40,64,129
9,40,0,51
9,38,64,69
9,38,0,51
9,38,64,69
9,38,0,51
9,38,64,9
9,38,0,51
9,38,64,9
9,38,0,51
9,42,64,9
9,42,0,51
9,38,64,9
9,38,0,51
9,40,64,9
9,40,0,51
9,40,64,69
9,40,0,51
9,38,64,69
9,38,0,51
9,40,64,129
9,40,0,51
9,40,64,69
9,40,0,51
9,40,64,69
9,40,0,51
9,38,64,9
9,38,0,51
9,38,64,9
9,38,0,51
9,35,64,9
9,35,0,51
9,38,64,9
9,38,0,51
9,40,64,9
9,40,0,51
9,40,64,69
9,40,0,51
9,38,64,69
9,38,0,51
9,40,64,129
9,40,0,51
9,38,64,69
9,38,0,51
9,38,64,69
9,38,0,51
9,38,64,9
9,38,0,51
9,38,64,9
9,38,0,51
9,42,64,9
9,42,0,51
9,38,64,9
9,38,0,51
9,40,64,9
9,40,0,51
9,40,64,69
9,40,0,51
9,38,64,69
9,38,0,51
9,40,64,129
9,40,0,51
9,40,64,69
9,40,0,51
9,40,64,69
9,40,0,51
9,38,64,9
9,38,0,51
9,38,64,9
9,38,0,51
9,35,64,9
9,35,0,51
9,38,64,9
9,38,0,51
9,40,64,9
9,40,0,51
9,40,64,69
9,40,0,51
9,38,64,69
9,38,0,51
9,40,64,129
9,40,0,51
9,38,64,69
9,38,0,51
9,38,64,69
9,38,0,51
9,38,64,9
9,38,0,51
9,38,64,9
9,38,0,51
9,42,64,9
9,42,0,51
9,38,64,9
9,38,0,51
9,40,64,9
9,40,0,51
9,40,64,69
9,40,0,51
9,38,64,69
9,38,0,51
9,40,64,129
9,40,0,51
9,40,64,69
9,40,0,51
9,40,64,69
9,40,0,51
9,38,64,9
9,38,0,51
9,38,64,9
9,38,0,51
9,35,64,9
9,35,0,51
9,38,64,9
9,38,0,51
9,40,64,9
9,40,0,51
9,40,64,69
9,40,0,51
9,38,64,69
9,38,0,51
9,40,64,129
9,40,0,51
9,38,64,69
9,38,0,51
9,38,64,69
9,38,0,51
9,38,64,9
9,38,0,51
9,38,64,9
9,38,0,51
9,42,64,9
9,42,0,51
9,38,64,9
9,38,0,51
9,40,64,9
9,40,0,51
9,40,64,69
9,40,0,51
9,38,64,69
9,38,0,51
9,40,64,129
9,40,0,51
9,40,64,69
9,40,0,51
9,40,64,69
9,40,0,51
9,38,64,9
9,38,0,51
9,38,64,9
9,38,0,51
9,35,64,9
9,35,0,51
9,38,64,9
9,38,0,51
9,40,64,9
9,40,0,51
9,40,64,69
9,40,0,51
9,38,64,69
9,38,0,51
9,40,64,129
9,40,0,51
9,38,64,69
9,38,0,51
9,38,64,69
9,38,0,51
9,38,64,9
9,38,0,51
9,38,64,9
9,38,0,51
9,37,64,9
9,37,0,51
9,35,64,9
9,35,0,51
9,33,64,9
9,33,0,60
9,33,64,15
9,33,0,36
9,37,64,9
9,37,0,111
9,40,64,9
9,40,0,111
9,37,64,9
9,37,0,60
9,38,64,15
9,38,0,36
9,40,64,9
9,40,0,111
9,44,64,9
9,44,0,111
9,47,64,9
9,47,0,111
9,44,64,9
9,44,0,51
9,40,64,24
9,40,0,36
9,33,64,9
9,33,0,111
9,37,64,9
9,37,0,111
9,40,64,9
9,40,0,111
9,37,64,9
9,37,0,111
9,40,64,9
9,40,0,36
9,40,64,39
9,40,0,36
9,44,64,9
9,44,0,111
9,47,64,9
9,47,0,111
9,44,64,9
9,44,0,111
9,33,64,9
9,33,0,111
9,37,64,9
9,37,0,111
9,40,64,9
9,40,0,111
9,37,64,9
9,37,0,111
9,40,64,9
9,40,0,36
9,40,64,39
9,40,0,36
9,44,64,9
9,44,0,111
9,47,64,9
9,47,0,111
9,44,64,9
9,44,0,51
9,47,64,9
9,47,0,51
9,42,64,9
9,42,0,45
9,42,64,15
9,42,0,45
9,42,64,15
9,42,0,45
9,42,64,15
9,42,0,45
9,42,64,15
9,42,0,45
9,42,64,75
9,42,0,45
9,35,64,75
9,35,0,45
9,40,64,435
9,40,0,51
9,40,64,69
9,40,0,51
9,38,64,69
9,38,0,51
9,40,64,129
9,40,0,51
9,40,64,69
9,40,0,51
9,40,64,69
9,40,0,51
9,38,64,9
9,38,0,51
9,38,64,9
9,38,0,51
9,35,64,9
9,35,0,51
9,38,64,9
9,38,0,51
9,40,64,9
9,40,0,51
9,40,64,69
9,40,0,51
9,38,64,69
9,38,0,51
9,40,64,129
9,40,0,51
9,38,64,69
9,38,0,51
9,38,64,69
9,38,0,51
9,38,64,9
9,38,0,51
9,38,64,9
9,38,0,51
9,42,64,9
9,42,0,51
9,38,64,9
9,38,0,51
9,40,64,9
9,40,0,51
9,40,64,69
9,40,0,51
9,38,64,69
9,38,0,51
9,40,64,129
9,40,0,51
9,40,64,69
9,40,0,51
9,40,64,69
9,40,0,51
9,38,64,9
9,38,0,51
9,38,64,9
9,38,0,51
9,35,64,9
9,35,0,51
9,38,64,9
9,38,0,51
9,40,64,9
9,40,0,51
9,40,64,69
9,40,0,51
9,38,64,69
9,38,0,51
9,40,64,129
9,40,0,51
9,38,64,69
9,38,0,51
9,38,64,69
9,38,0,51
9,38,64,9
9,38,0,51
9,38,64,9
9,38,0,51
9,42,64,9
9,42,0,51
9,38,64,9
9,38,0,51
9,40,64,9
9,40,0,51
9,40,64,69
9,40,0,51
9,38,64,69
9,38,0,51
9,40,64,129
9,40,0,51
9,40,64,69
9,40,0,51
9,40,64,69
9,40,0,51
9,38,64,9
9,38,0,51
9,38,64,9
9,38,0,51
9,35,64,9
9,35,0,51
9,38,64,9
9,38,0,51
9,40,64,9
9,40,0,51
9,40,64,69
9,40,0,51
9,38,64,69
9,38,0,51
9,40,64,129
9,40,0,51
9,38,64,69
9,38,0,51
9,38,64,69
9,38,0,51
9,38,64,9
9,38,0,51
9,38,64,9
9,38,0,51
9,42,64,9
9,42,0,51
9,38,64,9
9,38,0,51
9,40,64,9
9,40,0,51
9,40,64,69
9,40,0,51
9,38,64,69
9,38,0,51
9,40,64,129
9,40,0,51
9,40,64,69
9,40,0,51
9,40,64,69
9,40,0,51
9,38,64,9
9,38,0,51
9,38,64,9
9,38,0,51
9,35,64,9
9,35,0,51
9,38,64,9
9,38,0,51
9,40,64,9
9,40,0,51
9,40,64,69
9,40,0,51
9,38,64,69
9,38,0,51
9,40,64,129
9,40,0,51
9,38,64,69
9,38,0,51
9,38,64,69
9,38,0,51
9,38,64,9
9,38,0,51
9,38,64,9
9,38,0,51
9,42,64,9
9,42,0,51
9,38,64,9
9,38,0,51
9,40,64,9
9,40,0,51
9,40,64,69
9,40,0,51
9,38,64,69
9,38,0,51
9,40,64,129
9,40,0,51
9,40,64,69
9,40,0,51
9,40,64,69
9,40,0,51
9,38,64,9
9,38,0,51
9,38,64,9
9,38,0,51
9,35,64,9
9,35,0,51
9,38,64,9
9,38,0,51
9,40,64,9
9,40,0,51
9,40,64,69
9,40,0,51
9,38,64,69
9,38,0,51
9,40,64,129
9,40,0,51
9,38,64,69
9,38,0,51
9,38,64,69
9,38,0,51
9,38,64,9
9,38,0,51
9,38,64,9
9,38,0,51
9,42,64,9
9,42,0,51
9,38,64,9
9,38,0,51
9,40,64,9
9,40,0,51
9,40,64,69
9,40,0,51
9,38,64,69
9,38,0,51
9,40,64,129
9,40,0,51
9,40,64,69
9,40,0,51
9,40,64,69
9,40,0,51
9,38,64,9
9,38,0,51
9,38,64,9
9,38,0,51
9,35,64,9
9,35,0,51
9,38,64,9
9,38,0,51
9,40,64,9
9,40,0,51
9,40,64,69
9,40,0,51
9,38,64,69
9,38,0,51
9,40,64,69
9,40,0,51
10,53,64,3600
10,53,0,15
10,50,64,45
10,50,0,15
10,42,64,45
10,57,64,0
10,57,0,15
10,42,0,0
10,42,64,45
10,59,64,0
10,42,0,15
10,44,64,45
10,57,64,0
10,59,0,6
10,57,0,9
10,44,0,0
10,57,64,105
10,57,0,15
10,44,64,45
10,44,0,15
10,42,64,45
10,57,64,0
10,57,0,15
10,42,0,0
10,57,64,105
10,57,0,15
10,44,64,45
10,44,0,15
10,57,64,45
10,57,0,15
10,44,64,45
10,44,0,15
10,42,64,45
10,57,64,0
10,57,0,15
10,42,0,0
10,53,64,105
10,57,64,0
10,57,0,15
10,53,0,0
10,50,64,45
10,50,0,15
10,42,64,45
10,57,64,0
10,57,0,15
10,42,0,0
10,42,64,45
10,59,64,0
10,42,0,15
10,44,64,45
10,57,64,0
10,59,0,6
10,57,0,9
10,44,0,0
10,57,64,105
10,57,0,15
10,44,64,45
10,44,0,15
10,42,64,45
10,57,64,0
10,57,0,15
10,42,0,0
10,57,64,105
10,57,0,15
10,44,64,45
10,44,0,15
10,57,64,45
10,57,0,15
10,44,64,45
10,44,0,15
10,42,64,45
10,57,64,0
10,57,0,15
10,42,0,0
10,53,64,105
10,57,64,0
10,57,0,15
10,53,0,0
10,50,64,45
10,50,0,15
10,42,64,45
10,57,64,0
10,57,0,15
10,42,0,0
10,42,64,45
10,59,64,0
10,42,0,15
10,44,64,45
10,57,64,0
10,59,0,0
10,57,0,15
10,44,0,0
10,57,64,105
10,57,0,15
10,44,64,45
10,44,0,15
10,42,64,45
10,57,64,0
10,57,0,15
10,42,0,0
10,57,64,105
10,57,0,15
10,44,64,45
10,44,0,15
