track,note,velocity,time
1,28,85,3926
1,35,90,2
1,23,85,2
1,28,85,2
1,35,90,2
1,23,85,2
1,28,85,2
1,35,90,2
1,23,85,2
1,28,85,2
1,35,90,2
1,23,81,2
1,28,85,2
1,35,90,2
1,23,85,2
1,28,85,2
1,35,90,2
1,23,85,2
1,28,85,2
1,35,90,2
1,23,85,2
1,28,85,2
1,35,90,2
1,23,81,2
1,28,85,2
1,35,90,2
1,23,85,2
1,28,85,2
1,35,90,2
1,23,85,2
1,28,85,2
1,35,90,2
1,23,85,2
1,28,85,2
1,35,90,2
1,23,81,2
1,28,85,2
1,35,90,2
1,23,85,2
1,28,85,2
1,35,90,2
1,23,85,2
1,28,85,2
1,35,90,2
1,23,85,2
1,28,85,2
1,35,90,2
1,23,81,2
1,28,85,2
1,35,90,2
1,23,85,2
1,28,85,2
1,35,90,2
1,23,85,2
1,28,85,2
1,35,90,2
1,23,85,2
1,28,85,2
1,35,90,2
1,23,81,2
1,28,85,2
1,35,90,2
1,23,85,2
1,28,85,2
1,35,90,2
1,23,85,2
1,28,85,2
1,35,90,2
1,23,85,2
1,28,85,2
1,35,90,2
1,23,81,2
1,28,85,2
1,35,90,2
1,23,85,2
1,28,85,2
1,35,90,2
1,23,85,2
1,28,85,2
1,35,90,2
1,23,85,2
1,28,85,2
1,35,90,2
1,23,81,2
1,40,90,2
1,39,95,2
1,38,95,2
1,37,87,192
1,35,91,2
1,33,93,2
1,28,92,2
1,32,88,192
1,40,85,0
1,39,87,2
1,38,91,2
1,37,93,192
1,35,85,2
1,33,93,192
1,32,95,184
1,28,86,186
1,40,95,2
1,39,95,2
1,38,98,2
1,37,90,2
1,35,91,192
1,33,87,2
1,28,91,2
1,25,98,2
1,30,95,2
1,32,89,2
1,30,97,0
1,32,93,2
1,35,91,2
1,28,85,2
1,35,90,2
1,23,85,2
1,28,85,2
1,35,90,2
1,23,85,2
1,28,85,2
1,35,90,2
1,23,85,2
1,28,85,2
1,35,90,2
1,23,81,2
1,28,85,2
1,35,90,2
1,23,85,2
1,28,85,2
1,35,90,2
1,23,85,2
1,28,85,2
1,35,90,2
1,23,85,2
1,28,85,2
1,35,90,2
1,23,81,2
1,28,85,2
1,35,90,2
1,23,85,2
1,28,85,2
1,35,90,2
1,23,85,2
1,28,85,2
1,35,90,2
1,23,85,2
1,28,85,2
1,35,90,2
1,23,81,2
1,28,85,2
1,35,90,2
1,23,85,2
1,28,85,2
1,35,90,2
1,23,85,2
1,28,85,2
1,35,90,2
1,23,85,2
1,28,85,2
1,35,90,2
1,23,81,2
1,28,85,2
1,35,90,2
1,23,85,2
1,28,85,2
1,35,90,2
1,23,85,2
1,28,85,2
1,35,90,2
1,23,85,2
1,28,85,2
1,35,90,2
1,23,81,2
1,28,85,2
1,35,90,2
1,23,85,2
1,28,85,2
1,35,90,2
1,23,85,2
1,28,85,2
1,35,90,2
1,23,85,2
1,28,85,2
1,35,90,2
1,23,81,2
1,40,90,2
1,39,95,2
1,38,95,2
1,37,87,192
1,35,91,2
1,33,93,2
1,28,92,2
1,32,88,192
1,40,85,0
1,39,87,2
1,38,91,2
1,37,93,192
1,35,85,2
1,33,93,192
1,32,95,184
1,28,86,186
1,40,95,2
1,39,95,2
1,38,98,2
1,37,90,2
1,35,91,192
1,33,87,2
1,28,91,2
1,25,98,2
1,30,95,2
1,32,89,2
1,30,97,0
1,32,93,2
1,35,91,2
1,28,85,2
1,35,90,2
1,23,85,2
1,28,85,2
1,35,90,2
1,23,85,2
1,28,85,2
1,35,90,2
1,23,85,2
1,28,85,2
1,35,90,2
1,23,81,2
1,28,85,2
1,35,90,2
1,23,85,2
1,28,85,2
1,35,90,2
1,23,85,2
1,28,85,2
1,35,90,2
1,23,85,2
1,28,85,2
1,35,90,2
1,23,81,2
1,28,85,2
1,35,90,2
1,23,85,2
1,28,85,2
1,35,90,2
1,23,85,2
1,28,85,2
1,35,90,2
1,23,85,2
1,28,85,2
1,35,90,2
1,23,81,2
1,28,85,2
1,35,90,2
1,23,85,2
1,28,85,2
1,35,90,2
1,23,85,2
1,28,85,2
1,35,90,2
1,23,85,2
1,28,85,2
1,35,90,2
1,23,81,2
1,28,85,2
1,35,90,2
1,23,85,2
1,28,85,2
1,35,90,2
1,23,85,2
1,28,85,2
1,35,90,2
1,23,85,2
1,28,85,2
1,35,90,2
1,23,81,2
2,68,87,396
2,64,87,0
2,59,87,0
2,68,87,122
2,64,87,0
2,59,87,0
2,62,93,108
2,57,93,0
2,66,93,0
2,66,78,4
2,62,78,0
2,57,78,0
2,57,84,68
2,66,84,0
2,62,84,0
2,64,84,68
2,68,84,0
2,59,84,0
2,68,87,114
2,64,87,0
2,59,87,0
2,68,69,114
2,59,69,0
2,64,69,0
2,57,87,52
2,62,87,0
2,66,87,0
2,66,93,28
2,57,93,0
2,62,93,0
2,66,93,20
2,57,93,0
2,62,93,0
2,62,55,28
2,57,55,0
2,66,55,0
2,59,87,68
2,68,87,0
2,64,87,0
2,64,87,140
2,68,87,0
2,59,87,0
2,57,93,126
2,62,93,0
2,66,93,0
2,66,78,12
2,62,78,0
2,57,78,0
2,57,84,94
2,66,84,0
2,62,84,0
2,68,90,68
2,64,90,0
2,59,90,0
2,57,87,114
2,62,87,0
2,66,87,0
2,57,81,126
2,62,81,0
2,66,81,0
2,62,87,12
2,57,87,0
2,66,87,0
2,66,93,20
2,57,93,0
2,62,93,0
2,66,93,20
2,62,93,0
2,57,93,0
2,57,52,28
2,62,52,0
2,66,52,0
2,59,87,40
2,64,87,0
2,68,87,0
2,68,87,130
2,64,87,0
2,59,87,0
2,66,93,108
2,62,93,0
2,57,93,0
2,66,78,4
2,62,78,0
2,57,78,0
2,66,84,68
2,62,84,0
2,57,84,0
2,68,84,68
2,64,84,0
2,59,84,0
2,59,87,114
2,64,87,0
2,68,87,0
2,59,75,122
2,68,75,0
2,64,75,0
2,66,87,60
2,62,87,0
2,57,87,0
2,57,93,28
2,62,93,0
2,66,93,0
2,66,93,36
2,62,93,0
2,57,93,0
2,66,55,36
2,62,55,0
2,57,55,0
2,59,87,68
2,68,87,0
2,64,87,0
2,68,87,140
2,59,87,0
2,64,87,0
2,66,93,126
2,62,93,0
2,57,93,0
2,62,78,6
2,66,78,0
2,57,78,0
2,57,84,68
2,62,84,0
2,66,84,0
2,59,90,60
2,68,90,0
2,64,90,0
2,62,87,114
2,66,87,0
2,57,87,0
2,62,84,126
2,57,84,0
2,66,84,0
2,57,87,28
2,62,87,0
2,66,87,0
2,62,93,20
2,66,93,0
2,57,93,0
2,66,93,28
2,57,93,0
2,62,93,0
2,62,52,64
2,66,52,0
2,57,52,0
2,64,87,24
2,59,87,0
2,68,87,0
2,68,87,122
2,59,87,0
2,64,87,0
2,57,93,108
2,62,93,0
2,66,93,0
2,62,78,4
2,66,78,0
2,57,78,0
2,66,84,68
2,57,84,0
2,62,84,0
2,68,84,68
2,64,84,0
2,59,84,0
2,68,87,114
2,59,87,0
2,64,87,0
2,64,78,122
2,59,78,0
2,68,78,0
2,66,87,60
2,62,87,0
2,57,87,0
2,62,93,36
2,57,93,0
2,66,93,0
2,57,93,28
2,62,93,0
2,66,93,0
2,62,55,44
2,57,55,0
2,66,55,0
2,64,87,68
2,59,87,0
2,68,87,0
2,64,87,140
2,59,87,0
2,68,87,0
2,66,93,126
2,62,93,0
2,57,93,0
2,66,78,12
2,57,78,0
2,62,78,0
2,62,84,94
2,57,84,0
2,66,84,0
2,68,90,68
2,59,90,0
2,64,90,0
2,66,87,114
2,57,87,0
2,62,87,0
2,62,81,126
2,66,81,0
2,57,81,0
2,57,87,28
2,66,87,0
2,62,87,0
2,66,93,20
2,57,93,0
2,62,93,0
2,57,93,36
2,62,93,0
2,66,93,0
2,66,52,56
2,57,52,0
2,62,52,0
2,64,87,68
2,59,87,0
2,68,87,0
2,68,87,130
2,64,87,0
2,59,87,0
2,66,93,108
2,57,93,0
2,62,93,0
2,62,78,4
2,57,78,0
2,66,78,0
2,62,84,68
2,66,84,0
2,57,84,0
2,68,84,68
2,64,84,0
2,59,84,0
2,64,87,114
2,68,87,0
2,59,87,0
2,59,75,122
2,64,75,0
2,68,75,0
2,57,87,60
2,66,87,0
2,62,87,0
2,66,93,28
2,62,93,0
2,57,93,0
2,62,93,36
2,57,93,0
2,66,93,0
2,66,55,36
2,57,55,0
2,62,55,0
2,68,87,68
2,59,87,0
2,64,87,0
2,68,87,140
2,59,87,0
2,64,87,0
2,57,93,126
2,66,93,0
2,62,93,0
2,62,78,6
2,66,78,0
2,57,78,0
2,62,84,68
2,66,84,0
2,57,84,0
2,59,90,60
2,64,90,0
2,68,90,0
2,57,87,114
2,62,87,0
2,66,87,0
2,62,84,126
2,57,84,0
2,66,84,0
2,66,87,28
2,57,87,0
2,62,87,0
2,66,93,20
2,57,93,0
2,62,93,0
2,62,93,28
2,57,93,0
2,66,93,0
2,66,52,64
2,62,52,0
2,57,52,0
2,68,87,68
2,64,87,0
2,59,87,0
2,68,87,122
2,64,87,0
2,59,87,0
2,57,93,108
2,62,93,0
2,66,93,0
2,57,78,4
2,66,78,0
2,62,78,0
2,66,84,68
2,62,84,0
2,57,84,0
2,68,84,68
2,59,84,0
2,64,84,0
2,59,87,114
2,68,87,0
2,64,87,0
2,64,78,122
2,68,78,0
2,59,78,0
2,57,87,60
2,62,87,0
2,66,87,0
2,62,93,36
2,57,93,0
2,66,93,0
2,66,93,28
2,57,93,0
2,62,93,0
2,57,55,44
2,66,55,0
2,62,55,0
2,59,87,68
2,68,87,0
2,64,87,0
2,64,87,140
2,68,87,0
2,59,87,0
2,66,93,126
2,57,93,0
2,62,93,0
2,57,78,12
2,62,78,0
2,66,78,0
2,57,84,94
2,66,84,0
2,62,84,0
2,68,90,68
2,59,90,0
2,64,90,0
2,66,87,114
2,57,87,0
2,62,87,0
2,66,81,126
2,57,81,0
2,62,81,0
2,66,87,28
2,62,87,0
2,57,87,0
2,57,93,20
2,62,93,0
2,66,93,0
2,57,93,36
2,66,93,0
2,62,93,0
2,57,52,56
2,62,52,0
2,66,52,0
2,59,87,68
2,64,87,0
2,68,87,0
2,59,87,130
2,68,87,0
2,64,87,0
2,57,93,108
2,62,93,0
2,66,93,0
2,62,78,4
2,66,78,0
2,57,78,0
2,57,84,68
2,62,84,0
2,66,84,0
2,64,84,68
2,68,84,0
2,59,84,0
2,59,87,114
2,68,87,0
2,64,87,0
2,68,75,122
2,64,75,0
2,59,75,0
2,66,87,60
2,57,87,0
2,62,87,0
2,57,93,28
2,62,93,0
2,66,93,0
2,62,93,36
2,66,93,0
2,57,93,0
2,66,55,36
2,57,55,0
2,62,55,0
2,64,87,68
2,59,87,0
2,68,87,0
2,68,87,140
2,64,87,0
2,59,87,0
2,66,93,126
2,57,93,0
2,62,93,0
2,66,78,6
2,62,78,0
2,57,78,0
2,57,84,68
2,62,84,0
2,66,84,0
2,64,90,60
2,68,90,0
2,59,90,0
2,66,87,114
2,62,87,0
2,57,87,0
2,62,84,126
2,57,84,0
2,66,84,0
2,57,87,28
2,66,87,0
2,62,87,0
2,57,93,20
2,66,93,0
2,62,93,0
2,66,93,28
2,57,93,0
2,62,93,0
2,57,52,64
2,62,52,0
2,66,52,0
2,59,87,68
2,68,87,0
2,64,87,0
2,64,87,122
2,59,87,0
2,68,87,0
2,57,93,108
2,66,93,0
2,62,93,0
2,62,78,4
2,66,78,0
2,57,78,0
2,66,84,68
2,62,84,0
2,57,84,0
2,68,84,68
2,59,84,0
2,64,84,0
2,59,87,114
2,68,87,0
2,64,87,0
2,68,78,114
2,59,78,0
2,64,78,0
2,57,87,52
2,66,87,0
2,62,87,0
2,57,93,36
2,62,93,0
2,66,93,0
2,66,93,28
2,57,93,0
2,62,93,0
2,57,55,44
2,62,55,0
2,66,55,0
2,59,87,68
2,64,87,0
2,68,87,0
2,64,87,140
2,68,87,0
2,59,87,0
2,57,93,126
2,66,93,0
2,62,93,0
2,57,78,12
2,62,78,0
2,66,78,0
2,62,84,94
2,57,84,0
2,66,84,0
2,59,90,68
2,68,90,0
2,64,90,0
2,57,87,114
2,62,87,0
2,66,87,0
2,66,81,126
2,57,81,0
2,62,81,0
2,66,87,28
2,62,87,0
2,57,87,0
2,66,93,20
2,57,93,0
2,62,93,0
2,62,93,36
2,57,93,0
2,66,93,0
2,66,52,56
2,62,52,0
2,57,52,0
2,59,87,68
2,64,87,0
2,68,87,0
2,59,87,130
2,64,87,0
2,68,87,0
2,66,93,108
2,57,93,0
2,62,93,0
2,66,78,4
2,62,78,0
2,57,78,0
2,62,84,68
2,66,84,0
2,57,84,0
2,59,84,68
2,68,84,0
2,64,84,0
2,59,87,114
2,68,87,0
2,64,87,0
2,59,75,122
2,64,75,0
2,68,75,0
2,62,87,60
2,66,87,0
2,57,87,0
2,62,93,28
2,57,93,0
2,66,93,0
2,57,93,36
2,62,93,0
2,66,93,0
2,62,55,36
2,66,55,0
2,57,55,0
2,68,87,68
2,64,87,0
2,59,87,0
2,68,87,140
2,64,87,0
2,59,87,0
2,57,93,126
2,62,93,0
2,66,93,0
2,66,78,6
2,62,78,0
2,57,78,0
2,62,84,68
2,57,84,0
2,66,84,0
2,64,90,60
2,68,90,0
2,59,90,0
2,66,87,114
2,57,87,0
2,62,87,0
2,66,84,126
2,62,84,0
2,57,84,0
2,57,87,28
2,62,87,0
2,66,87,0
2,66,93,20
2,62,93,0
2,57,93,0
2,57,93,28
2,66,93,0
2,62,93,0
2,66,52,64
2,57,52,0
2,62,52,0
2,61,84,68
2,55,84,0
2,52,84,0
2,52,84,4
2,61,84,0
2,55,84,0
2,52,84,72
2,61,84,0
2,55,84,0
2,61,83,76
2,52,83,0
2,55,83,0
2,61,83,76
2,55,83,0
2,52,83,0
2,52,83,12
2,64,83,4
2,59,83,0
2,59,83,20
2,64,83,0
2,52,83,0
2,64,83,68
2,59,83,0
2,52,83,0
2,52,83,68
2,59,83,0
2,64,83,0
2,64,83,82
2,59,83,0
2,52,83,0
2,52,84,12
2,55,84,0
2,61,84,0
2,55,84,4
2,52,84,0
2,61,84,0
2,52,84,72
2,61,84,0
2,55,84,0
2,61,83,76
2,52,83,0
2,55,83,0
2,52,83,76
2,55,83,0
2,61,83,0
2,52,83,12
2,64,83,4
2,59,83,0
2,59,83,20
2,64,83,0
2,52,83,0
2,64,83,68
2,52,83,0
2,59,83,0
2,52,83,68
2,64,83,0
2,59,83,0
2,64,83,82
2,59,83,0
2,52,83,0
2,52,84,12
2,55,84,0
2,61,84,0
2,52,84,4
2,55,84,0
2,61,84,0
2,52,84,72
2,55,84,0
2,61,84,0
2,61,83,76
2,55,83,0
2,52,83,0
2,52,83,76
2,61,83,0
2,55,83,0
2,52,83,2
2,59,83,4
2,64,83,0
2,64,83,20
2,52,83,0
2,59,83,0
2,64,83,68
2,59,83,0
2,52,83,0
2,52,83,68
2,59,83,0
2,64,83,0
2,64,83,82
2,59,83,0
2,52,83,0
2,49,86,80
2,54,86,0
2,58,86,0
2,58,87,20
2,54,87,0
2,49,87,0
2,54,86,90
2,58,86,0
2,49,86,0
2,54,85,88
2,49,85,0
2,58,85,0
2,58,85,86
2,54,85,0
2,49,85,0
2,51,90,14
2,54,90,0
2,59,90,0
2,68,87,660
2,64,87,0
2,59,87,0
2,59,87,122
2,68,87,0
2,64,87,0
2,57,93,108
2,62,93,0
2,66,93,0
2,66,78,4
2,57,78,0
2,62,78,0
2,57,84,68
2,66,84,0
2,62,84,0
2,59,84,68
2,64,84,0
2,68,84,0
2,68,87,114
2,64,87,0
2,59,87,0
2,59,78,122
2,64,78,0
2,68,78,0
2,66,87,60
2,57,87,0
2,62,87,0
2,66,93,36
2,62,93,0
2,57,93,0
2,57,93,28
2,62,93,0
2,66,93,0
2,62,55,44
2,66,55,0
2,57,55,0
2,59,87,68
2,68,87,0
2,64,87,0
2,64,87,140
2,59,87,0
2,68,87,0
