track,note,velocity,time
1,72,102,1888
1,74,95,8
1,72,102,4
1,74,66,12
1,72,94,12
1,74,68,0
1,72,98,12
1,74,86,4
1,72,75,24
1,50,95,96
1,50,30,4
1,50,76,84
1,50,36,68
1,50,62,20
1,50,28,24
1,50,44,32
1,45,64,0
1,50,56,8
1,50,24,4
1,50,70,20
1,50,28,0
1,50,74,48
1,50,26,28
1,50,72,20
1,50,22,76
1,50,66,32
1,50,26,52
1,50,70,0
1,50,16,0
1,50,86,60
1,50,40,68
1,50,74,20
1,50,36,24
1,50,74,32
1,45,58,12
1,38,82,24
1,50,43,0
1,50,82,48
1,38,51,4
1,50,82,20
1,50,80,64
1,45,84,32
1,57,46,4
1,50,61,0
1,57,65,84
1,62,59,0
1,50,44,40
1,57,59,16
1,62,59,0
1,50,36,4
1,57,64,24
1,62,63,0
1,50,49,12
1,50,55,0
1,56,59,48
1,62,60,0
1,56,59,20
1,62,61,0
1,50,36,20
1,56,62,32
1,62,67,0
1,50,50,52
1,50,57,0
1,62,65,92
1,55,66,0
1,50,36,8
1,55,64,16
1,62,63,0
1,50,53,12
1,55,65,12
1,62,66,0
1,50,53,8
1,62,58,16
1,62,65,48
1,50,54,28
1,62,57,184
1,50,55,32
1,62,65,52
1,50,61,0
1,62,62,92
1,57,64,0
1,62,63,16
1,57,62,0
1,62,62,28
1,57,63,0
1,50,52,8
1,50,58,0
1,56,60,48
1,62,62,0
1,56,60,20
1,62,64,0
1,56,62,32
1,62,67,0
1,50,56,52
1,50,52,4
1,55,65,92
1,62,62,0
1,55,65,16
1,62,64,0
1,50,49,8
1,55,65,28
1,62,64,0
1,50,58,8
1,62,65,16
1,50,50,48
1,50,60,28
1,62,65,20
1,50,36,160
1,50,65,36
1,62,67,52
1,57,46,4
1,50,61,0
1,57,65,84
1,62,59,0
1,50,44,40
1,57,59,16
1,62,59,0
1,50,36,4
1,57,64,24
1,62,63,0
1,50,49,12
1,50,55,0
1,56,59,48
1,62,60,0
1,56,59,20
1,62,61,0
1,50,36,20
1,56,62,32
1,62,67,0
1,50,50,52
1,50,57,0
1,62,65,92
1,55,66,0
1,50,36,8
1,55,64,16
1,62,63,0
1,50,53,12
1,55,65,12
1,62,66,0
1,50,53,8
1,62,58,16
1,62,65,48
1,50,54,28
1,62,57,184
1,50,55,32
1,62,65,52
1,55,61,4
1,50,71,0
1,43,63,0
1,50,79,0
1,43,73,4
1,55,73,0
1,43,69,4
1,50,81,0
1,55,69,0
1,43,69,4
1,50,77,0
1,55,65,0
1,43,1,0
1,55,48,0
1,50,49,4
1,50,54,4
1,55,58,0
1,43,59,0
1,43,57,0
1,55,63,0
1,50,57,0
1,43,53,4
1,55,47,0
1,50,69,0
1,43,61,0
1,50,69,4
1,55,55,0
1,43,36,4
1,55,32,0
1,50,65,0
1,50,61,0
1,55,32,0
1,43,53,0
1,55,47,0
1,43,63,0
1,50,69,0
1,43,51,4
1,55,41,0
1,50,61,0
1,43,57,4
1,50,61,0
1,55,43,0
1,45,57,8
1,55,67,0
1,50,61,0
1,50,63,0
1,45,57,4
1,54,73,0
1,52,71,0
1,50,59,0
1,43,55,0
1,50,59,4
1,55,77,0
1,45,57,0
1,50,86,12288
1,38,78,12
1,38,62,96
1,50,90,96
1,38,82,8
1,50,80,96
1,38,84,4
1,50,86,8
1,38,90,20
1,50,88,0
1,38,84,4
1,45,74,0
1,38,80,12
1,50,61,200
1,62,62,192
1,57,64,0
1,62,63,196
1,57,62,0
1,62,62,192
1,57,63,0
1,50,52,192
1,50,58,68
1,56,60,192
1,62,62,0
1,56,60,200
1,62,64,0
1,56,62,184
1,62,67,0
1,50,56,192
1,50,52,72
1,55,65,188
1,62,62,0
1,55,65,200
1,62,64,0
1,50,49,8
1,55,65,192
1,62,64,0
1,50,58,156
1,62,65,328
1,50,50,128
1,50,60,136
1,62,65,160
1,50,36,160
1,57,46,564
1,50,61,0
1,57,65,84
1,62,59,0
1,50,44,40
1,57,59,112
1,62,59,0
1,50,36,100
1,57,64,24
1,62,63,0
1,50,49,192
1,50,55,256
1,56,59,192
1,62,60,0
1,56,59,188
1,62,61,0
1,50,36,20
1,56,62,112
1,62,67,0
1,50,50,192
1,50,57,280
1,62,65,192
1,55,66,0
1,50,36,8
1,55,64,96
1,62,63,0
1,50,53,12
1,55,65,12
1,62,66,0
1,50,53,192
1,62,58,360
1,62,65,72
1,50,54,192
1,62,57,292
1,50,55,144
1,62,65,104
1,55,61,4
1,50,71,0
1,43,63,0
1,50,79,0
1,43,73,4
1,55,73,0
1,43,69,4
1,50,81,0
1,55,69,0
1,43,69,4
1,50,77,0
1,55,65,0
1,43,1,0
1,55,48,0
1,50,49,4
1,50,54,4
1,55,58,0
1,43,59,0
1,43,57,4
1,55,63,0
1,50,57,0
1,43,53,4
1,55,47,0
1,50,69,0
1,43,61,0
1,50,69,4
1,55,55,0
1,43,36,4
1,55,32,0
1,50,65,0
1,50,61,4
1,55,32,0
1,43,53,0
1,55,47,4
1,43,63,0
1,50,69,0
1,43,51,4
1,55,41,0
1,50,61,0
1,43,57,4
1,50,61,0
1,55,43,0
1,45,57,28
1,55,67,0
1,50,61,0
1,50,63,0
1,45,57,4
1,54,73,0
1,52,71,0
1,50,59,0
1,43,55,0
1,50,59,4
1,55,77,0
1,45,57,0
1,50,89,0
1,57,122,2676
1,64,109,232
1,62,113,52
1,69,89,148
1,69,103,20
1,69,97,44
1,62,94,52
1,67,99,0
1,65,108,88
1,62,99,60
1,50,99,164
1,50,108,104
1,72,103,108
1,62,89,4
1,62,105,96
1,72,103,0
1,69,95,76
1,62,103,20
1,67,107,100
1,67,109,44
1,65,103,32
1,62,87,136
1,44,99,60
1,45,85,16
1,50,75,60
1,44,67,44
1,45,81,0
1,50,87,68
1,44,73,0
1,45,95,52
1,65,116,4
1,62,95,24
1,50,93,12
1,45,99,0
1,50,83,32
1,54,97,96
1,57,108,0
1,65,105,0
1,54,44,32
1,65,67,4
1,57,77,0
1,65,104,44
1,54,91,0
1,57,108,0
1,45,87,16
1,50,97,4
1,50,93,56
1,54,81,96
1,57,107,0
1,65,107,0
1,65,107,48
1,54,85,0
1,57,106,0
1,65,103,52
1,54,91,0
1,57,108,0
1,50,93,4
1,45,93,0
1,65,99,164
1,62,105,0
1,69,110,4
1,65,103,0
1,62,106,4
1,69,111,0
1,62,95,20
1,65,67,16
1,67,107,0
1,65,83,148
1,67,101,8
1,62,108,4
1,65,93,8
1,62,103,72
1,69,73,8
1,50,88,36
1,45,84,0
1,55,109,168
1,57,97,64
1,50,93,16
1,62,73,12
1,67,79,0
1,67,99,4
1,62,103,0
1,67,93,76
1,62,93,4
1,67,93,52
1,62,98,0
1,54,77,96
1,67,101,0
1,62,107,4
1,62,53,36
1,54,93,0
1,65,48,8
1,54,96,32
1,62,106,0
1,65,105,0
1,74,85,28
1,69,79,0
1,52,93,0
1,59,93,0
1,74,101,4
1,69,81,0
1,69,87,4
1,74,103,0
1,69,81,4
1,74,97,0
1,74,103,0
1,69,85,4
1,74,99,4
1,69,83,0
1,74,103,0
1,69,83,0
1,74,101,4
1,69,75,0
1,69,83,0
1,74,101,0
1,69,83,4
1,74,105,0
1,69,79,4
1,74,105,0
1,69,85,4
1,74,103,0
1,74,107,0
1,69,87,4
1,74,103,0
1,69,81,4
1,74,99,4
1,69,81,0
1,69,85,4
1,74,103,0
1,55,61,0
1,50,71,0
1,43,63,0
1,74,75,0
1,67,65,0
1,50,79,0
1,43,73,4
1,55,73,0
1,43,69,4
1,50,81,0
1,55,69,0
1,43,69,4
1,50,77,0
1,55,65,0
1,43,1,0
1,55,48,0
1,50,49,4
1,50,54,4
1,55,58,0
1,43,59,0
1,43,57,4
1,55,63,0
1,50,57,0
1,43,53,4
1,55,47,0
1,50,69,0
1,43,61,0
1,50,69,4
1,55,55,0
1,43,36,4
1,55,32,0
1,50,65,0
1,50,61,4
1,55,32,0
1,43,53,0
1,55,47,4
1,43,63,0
1,50,69,0
1,43,51,4
1,55,41,0
1,50,61,0
1,43,57,4
1,50,61,0
1,55,43,0
1,45,57,28
1,55,67,0
1,50,61,0
1,50,63,0
1,45,57,4
1,54,73,0
1,52,71,0
1,50,59,0
1,43,55,0
1,50,59,4
1,55,77,0
1,45,57,0
1,50,57,564
1,57,58,8
1,62,53,0
1,50,58,1348
1,56,59,8
1,62,58,4
1,50,62,1324
1,55,65,0
1,62,62,4
1,50,52,824
1,62,58,176
1,50,60,8
1,62,57,200
1,50,55,276
1,62,60,156
1,50,57,572
1,57,58,8
1,62,53,0
1,50,58,1348
1,56,59,8
1,62,58,4
1,50,62,1324
1,55,65,0
1,62,62,4
1,50,52,824
1,62,58,176
1,50,60,8
1,62,57,200
1,50,55,276
1,62,60,156
1,50,57,572
1,57,58,8
1,62,53,0
1,50,58,1348
1,56,59,8
1,62,58,4
1,50,62,1324
1,55,65,0
1,62,62,4
1,50,52,824
1,62,58,176
1,50,60,8
1,62,57,200
1,50,55,276
1,62,60,156
1,50,57,572
1,57,58,8
1,62,53,0
1,50,58,1348
1,56,59,8
1,62,58,4
1,50,62,1324
1,55,65,0
1,62,62,4
1,50,52,824
1,62,58,176
1,50,60,8
1,62,57,200
1,50,55,276
1,62,60,156
1,50,57,572
1,57,58,8
1,62,53,0
1,50,58,1348
1,56,59,8
1,62,58,4
1,50,62,1324
1,55,65,0
1,62,62,4
1,50,52,824
1,62,58,176
1,50,60,8
1,62,57,200
1,50,55,276
1,62,60,156
1,50,57,572
1,57,58,8
1,62,53,0
1,50,58,1348
1,56,59,8
1,62,58,4
1,50,62,1324
1,55,65,0
1,62,62,4
1,50,52,824
1,62,58,176
1,50,60,8
1,62,57,200
1,50,55,276
1,62,60,156
1,50,57,8
1,57,58,0
1,62,53,0
2,36,122,10332
2,38,116,0
2,38,110,48
2,48,106,48
2,50,98,0
2,38,108,24
2,38,98,44
2,38,112,44
2,38,126,44
2,38,108,64
2,38,104,48
2,36,126,40
2,38,116,12
2,38,106,84
2,48,104,48
2,50,100,0
2,38,102,64
2,38,96,48
2,38,102,36
2,38,118,40
2,38,110,48
2,38,108,36
2,36,127,36
2,38,126,0
2,38,118,68
2,48,106,64
2,50,102,0
2,38,112,56
2,38,98,52
2,38,112,44
2,38,120,36
2,38,108,68
2,38,104,40
2,36,126,40
2,38,122,0
2,38,116,72
2,48,107,72
2,50,96,4
2,38,112,68
2,38,104,48
2,38,118,48
2,38,116,40
2,38,110,56
2,38,100,40
2,36,126,40
2,38,126,0
2,38,124,60
2,48,107,72
2,50,98,0
2,38,116,60
2,38,106,48
2,38,108,44
2,38,127,40
2,38,108,44
2,38,110,40
2,36,118,40
2,38,127,0
2,38,120,60
2,48,108,64
2,50,98,0
2,38,102,64
2,38,100,52
2,38,108,44
2,38,112,36
2,38,114,52
2,38,106,44
2,36,118,36
2,38,127,0
2,38,122,52
2,48,96,68
2,50,92,96
2,38,122,80
2,38,102,44
2,38,114,44
2,38,116,44
2,38,106,48
2,38,104,48
2,36,118,44
2,38,126,0
2,38,122,64
2,48,104,60
2,50,100,0
2,38,106,72
2,38,106,56
2,38,114,40
2,38,116,40
2,38,108,56
2,38,94,36
2,36,126,40
2,38,127,0
2,38,126,68
2,48,106,68
2,50,98,0
2,38,106,64
2,38,102,44
2,38,118,48
2,38,116,44
2,38,118,76
2,38,90,44
2,36,122,48
2,38,116,0
2,38,110,48
2,48,106,48
2,50,98,0
2,38,108,24
2,38,98,44
2,38,112,44
2,38,126,44
2,38,108,64
2,38,104,48
2,36,126,40
2,38,116,12
2,38,106,84
2,48,104,48
2,50,100,0
2,38,102,64
2,38,96,48
2,38,102,36
2,38,118,40
2,38,110,48
2,38,108,36
2,36,127,36
2,38,126,0
2,38,118,68
2,48,106,64
2,50,102,0
2,38,112,56
2,38,98,52
2,38,112,44
2,38,120,36
2,38,108,68
2,38,104,40
2,31,118,40
2,31,102,24
2,31,118,300
2,31,86,44
2,31,116,48
2,43,108,4
2,31,114,0
2,31,110,48
2,31,114,292
2,31,100,64
2,31,104,40
2,31,120,112
2,43,102,0
2,31,110,4
2,31,110,52
2,31,114,248
2,31,112,84
2,31,116,36
2,43,94,0
2,31,118,0
2,31,118,64
2,33,110,280
2,33,104,76
2,35,118,4
2,35,116,68
2,36,127,0
2,36,122,140
2,38,116,0
2,38,110,48
2,48,106,48
2,50,98,0
2,38,108,24
2,38,98,44
2,38,112,44
2,38,126,44
2,38,108,64
2,38,104,48
2,36,126,40
2,38,116,12
2,38,106,84
2,48,104,48
2,50,100,0
2,38,102,64
2,38,96,48
2,38,102,36
2,38,118,40
2,38,110,48
2,38,108,36
2,36,127,36
2,38,126,0
2,38,118,68
2,48,106,64
2,50,102,0
2,38,112,56
2,38,98,52
2,38,112,44
2,38,120,36
2,38,108,68
2,38,104,40
2,36,126,40
2,38,122,0
2,38,116,72
2,48,107,72
2,50,96,4
2,38,112,68
2,38,104,48
2,38,118,48
2,38,116,40
2,38,110,56
2,38,100,40
2,36,126,40
2,38,126,0
2,38,124,60
2,48,107,72
2,50,98,0
2,38,116,60
2,38,106,48
2,38,108,44
2,38,127,40
2,38,108,44
2,38,110,40
2,36,118,40
2,38,127,0
2,38,120,60
2,48,108,64
2,50,98,0
2,38,102,64
2,38,100,52
2,38,108,44
2,38,112,36
2,38,114,52
2,38,106,44
2,36,118,36
2,38,127,0
2,38,122,52
2,48,96,68
2,50,92,96
2,38,122,80
2,38,102,44
2,38,114,44
2,38,116,44
2,38,106,48
2,38,104,48
2,36,118,44
2,38,126,0
2,38,122,64
2,48,104,60
2,50,100,0
2,38,106,72
2,38,106,56
2,38,114,40
2,38,116,40
2,38,108,56
2,38,94,36
2,38,126,40
2,36,126,1348
2,38,126,0
2,38,124,60
2,48,107,72
2,50,98,0
2,38,116,60
2,38,106,48
2,38,108,44
2,38,127,40
2,38,108,44
2,38,110,40
2,36,118,40
2,38,127,0
2,38,120,60
2,48,108,64
2,50,98,0
2,38,102,64
2,38,100,52
2,38,108,44
2,38,112,36
2,38,114,52
2,38,106,44
2,36,118,36
2,38,127,0
2,38,122,52
2,48,96,68
2,50,92,96
2,38,122,80
2,38,102,44
2,38,114,44
2,38,116,44
2,38,106,48
2,38,104,48
2,36,118,44
2,38,126,0
2,38,122,64
2,48,104,60
2,50,100,0
2,38,106,72
2,38,106,56
2,38,114,40
2,38,116,40
2,38,108,56
2,38,94,36
2,36,126,40
2,38,127,0
2,38,126,68
2,48,106,68
2,50,98,0
2,38,106,64
2,38,102,44
2,38,118,48
2,38,116,44
2,38,118,76
2,38,90,44
2,36,122,48
2,38,116,0
2,38,110,48
2,48,106,48
2,50,98,0
2,38,108,24
2,38,98,44
2,38,112,44
2,38,126,44
2,38,108,64
2,38,104,48
2,36,126,40
2,38,116,12
2,38,106,84
2,48,104,48
2,50,100,0
2,38,102,64
2,38,96,48
2,38,102,36
2,38,118,40
2,38,110,48
2,38,108,36
2,36,127,36
2,38,126,0
2,38,118,68
2,48,106,64
2,50,102,0
2,38,112,56
2,38,98,52
2,38,112,44
2,38,120,36
2,38,108,68
2,38,104,40
2,31,118,40
2,31,102,24
2,31,118,300
2,31,86,44
2,31,116,48
2,43,108,4
2,31,114,0
2,31,110,48
2,31,114,292
2,31,100,64
2,31,104,40
2,31,120,112
2,43,102,0
2,31,110,4
2,31,110,52
2,31,114,248
2,31,112,84
2,31,116,36
2,43,94,0
2,31,118,0
2,31,118,64
2,33,110,280
2,33,104,76
2,35,118,4
2,35,116,68
2,36,127,0
2,38,124,140
2,36,122,0
2,38,116,0
2,38,110,48
2,48,106,48
2,50,98,0
2,38,108,24
2,38,98,44
2,38,112,44
2,38,126,44
2,38,108,64
2,38,104,48
2,36,126,40
2,38,116,12
2,38,106,84
2,48,104,48
2,50,100,0
2,38,102,64
2,38,96,48
2,38,102,36
2,38,118,40
2,38,110,48
2,38,108,36
2,36,127,36
2,38,126,0
2,38,118,68
2,48,106,64
