track,note,velocity,time
1,79,102,17274
1,86,96,47
1,76,96,82
1,81,92,21
1,83,86,19
1,74,76,93
1,79,92,44
1,86,91,40
1,76,94,78
1,81,74,39
1,83,86,5
1,74,74,91
1,79,80,37
1,86,88,41
1,76,84,71
1,81,78,15
1,83,76,45
1,74,74,88
1,79,78,45
1,86,88,20
1,76,88,78
1,88,96,48
1,86,86,29
1,79,92,72
1,86,80,45
1,76,96,90
1,81,82,23
1,83,80,31
1,74,70,91
1,79,82,44
1,86,76,25
1,76,92,88
1,81,80,27
1,83,74,33
1,74,74,87
1,79,76,44
1,86,78,32
1,79,82,3
1,77,46,10
1,76,76,4
1,74,82,3
1,72,90,3
1,71,100,2
1,69,110,3
1,67,112,2
1,65,106,2
1,64,110,3
1,62,110,3
1,60,112,3
1,59,102,3
1,57,102,3
1,55,96,2
1,53,78,3
1,52,76,2
1,50,70,3
1,55,82,1
1,67,88,0
1,60,104,0
1,48,68,0
1,36,82,0
1,36,76,8
1,48,66,1
1,55,84,2
1,60,96,0
1,67,84,0
1,36,76,97
1,48,70,2
1,60,98,0
1,67,84,0
1,55,80,1
1,36,86,9
1,48,80,0
1,60,98,2
1,67,92,0
1,55,94,0
1,79,92,6332
1,86,80,45
1,76,96,90
1,81,82,23
1,83,80,31
1,74,70,91
1,79,82,44
1,86,76,25
1,76,92,88
1,81,80,27
1,83,74,33
1,74,74,87
1,79,76,44
1,86,78,32
1,79,82,3
1,77,46,10
1,76,76,4
1,74,82,3
1,72,90,3
1,71,100,2
1,69,110,3
1,67,112,2
1,65,106,2
1,64,110,3
1,62,110,3
1,60,112,3
1,59,102,3
1,57,102,3
1,55,96,2
1,53,78,3
1,52,76,2
1,50,70,3
1,55,82,1
1,67,88,0
1,60,104,0
1,48,68,0
1,36,82,0
1,36,76,8
1,48,66,1
1,55,84,2
1,60,96,0
1,67,84,0
1,36,76,97
1,48,70,2
1,60,98,0
1,67,84,0
1,55,80,1
1,36,86,9
1,48,80,0
1,60,98,2
1,67,92,0
1,55,94,0
2,31,105,1815
2,31,103,41
2,31,103,32
2,29,98,0
2,31,102,0
2,34,100,0
2,29,96,0
2,31,100,0
2,31,101,39
2,31,101,16
2,29,95,0
2,31,98,0
2,34,102,49
2,29,96,36
2,31,99,48
2,31,102,43
2,31,100,36
2,29,95,0
2,31,98,0
2,34,103,48
2,29,99,43
2,31,100,0
2,31,100,50
2,26,103,10
2,31,96,0
2,30,98,0
2,29,95,0
2,26,102,0
2,31,103,48
2,31,100,43
2,31,102,30
2,29,97,0
2,31,98,0
2,34,104,0
2,31,100,0
2,34,98,11
2,31,99,27
2,34,97,22
2,31,98,0
2,34,100,0
2,36,86,0
2,34,99,0
2,24,102,10
2,24,101,30
2,31,103,17
2,29,95,0
2,31,101,0
2,34,96,0
2,31,103,0
2,31,100,2
2,31,102,40
2,29,94,17
2,31,100,16
2,29,98,0
2,26,98,0
2,29,100,0
2,31,102,1
2,31,103,43
2,31,101,16
2,29,100,0
2,31,100,0
2,34,94,0
2,31,104,0
2,34,96,0
2,31,100,31
2,34,95,25
2,31,99,0
2,34,96,0
2,36,99,0
2,34,93,0
2,24,97,4
2,24,100,31
2,31,100,13
2,29,99,0
2,31,99,0
2,34,92,3
2,29,99,47
2,31,99,1
2,31,99,32
2,29,98,10
2,31,100,0
2,29,99,0
2,26,98,0
2,29,98,0
2,31,99,0
2,31,99,38
2,31,99,37
2,29,95,0
2,31,99,0
2,34,94,1
2,31,97,0
2,24,94,48
2,24,100,30
2,24,103,27
2,24,98,1
2,31,98,0
2,34,90,47
2,31,100,0
2,24,100,3
2,24,99,33
2,24,102,28
2,24,100,1
2,31,97,0
2,34,95,49
2,31,102,43
2,26,99,5
2,26,99,28
2,26,98,16
2,31,100,0
2,30,97,0
2,29,99,0
2,26,97,2
2,31,99,1
2,31,99,38
2,31,99,37
2,29,95,0
2,31,99,0
2,34,94,1
2,31,97,0
2,24,94,48
2,24,100,30
2,24,103,26
2,24,98,1
2,31,98,0
2,34,90,0
2,31,100,0
2,24,100,3
2,24,99,33
2,24,102,28
2,24,100,8
2,31,97,0
2,34,95,0
2,31,102,0
2,26,99,5
2,26,99,28
2,26,98,16
2,31,100,0
2,30,97,0
2,29,99,0
2,26,97,2
2,31,105,1
2,31,103,41
2,31,103,32
2,29,98,0
2,31,102,0
2,34,100,0
2,29,96,0
2,31,100,0
2,31,101,39
2,31,101,16
2,29,95,0
2,31,98,0
2,34,102,0
2,29,96,0
2,31,99,0
2,31,102,43
2,31,100,14
2,29,95,0
2,31,98,0
2,34,103,48
2,29,99,43
2,31,100,0
2,31,100,50
2,26,103,8
2,31,96,0
2,30,98,0
2,29,95,0
2,26,102,0
2,31,103,0
2,31,100,43
2,31,102,30
2,29,97,0
2,31,98,0
2,34,104,48
2,31,100,37
2,34,98,11
2,31,99,27
2,34,97,22
2,31,98,0
2,34,100,0
2,36,100,48
2,34,99,43
2,24,102,10
2,24,101,30
2,31,103,17
2,29,95,0
2,31,101,0
2,34,96,0
2,31,103,0
2,31,100,2
2,31,102,40
2,29,94,17
2,31,100,16
2,29,98,0
2,26,98,0
2,29,100,0
2,31,102,1
2,31,103,43
2,31,101,16
2,29,100,0
2,31,100,0
2,34,94,0
2,31,104,0
2,34,96,0
2,31,100,31
2,34,95,25
2,31,99,0
2,34,96,0
2,36,99,0
2,34,93,0
2,24,97,4
2,24,100,31
2,31,100,13
2,29,99,0
2,31,99,0
2,34,92,3
2,29,99,47
2,31,99,1
2,31,99,32
2,29,98,10
2,31,100,0
2,29,99,0
2,26,98,0
2,29,98,0
2,31,99,0
2,31,99,38
2,31,99,31
2,29,95,0
2,31,99,0
2,34,94,1
2,31,97,0
2,24,94,48
2,24,100,30
2,24,103,15
2,24,98,1
2,31,98,0
2,34,90,0
2,31,100,0
2,24,100,3
2,24,99,33
2,24,102,28
2,24,100,9
2,31,97,17
2,34,95,0
2,31,102,0
2,26,99,5
2,26,99,28
2,26,98,24
2,31,100,0
2,30,97,0
2,29,99,0
2,26,97,2
2,31,99,16
2,31,99,38
2,31,99,37
2,29,95,0
2,31,99,0
2,34,94,1
2,31,97,0
2,24,94,48
2,24,100,30
2,24,103,26
2,24,98,15
2,31,98,0
2,34,90,0
2,31,100,0
2,24,100,3
2,24,99,33
2,24,102,28
2,24,100,17
2,31,97,0
2,34,95,0
2,31,102,0
2,26,99,5
2,26,99,28
2,26,98,23
2,31,100,0
2,30,97,0
2,29,99,0
2,26,97,2
2,28,103,16
2,24,100,2
2,21,102,0
2,24,103,1
2,26,99,0
2,28,102,0
2,24,98,0
2,21,102,0
2,33,119,238
2,31,55,63
2,29,117,6
2,28,119,6
2,26,107,6
2,24,105,6
2,23,95,6
2,21,85,2
2,24,103,25
2,24,102,14
2,24,103,99
2,24,106,13
2,31,102,109
2,31,100,44
2,31,102,35
2,29,96,13
2,31,102,0
2,34,95,0
2,29,99,0
2,31,100,0
2,31,99,33
2,31,100,16
2,29,96,0
2,31,99,0
2,34,96,0
2,29,99,0
2,31,100,2
2,31,99,42
2,31,100,36
2,29,94,0
2,31,99,0
2,34,96,0
2,29,98,0
2,31,99,7
2,31,102,33
2,26,99,1
2,31,103,0
2,30,98,0
2,29,98,0
2,26,100,0
2,31,99,48
2,31,96,49
2,31,99,28
2,29,96,0
2,31,100,0
2,34,94,0
2,31,100,0
2,34,96,10
2,31,96,37
2,34,98,23
2,31,97,0
2,34,95,0
2,36,99,0
2,31,99,0
2,24,103,2
2,24,100,37
2,31,98,31
2,29,97,0
2,31,101,0
2,34,100,0
2,29,98,0
2,31,102,0
2,31,102,42
2,29,98,27
2,31,93,0
2,31,100,1
2,31,103,1
2,31,103,1
2,26,103,2688
2,26,104,37
2,26,102,23
2,31,99,0
2,30,96,0
2,29,97,0
2,26,99,0
2,28,100,0
2,24,100,383
2,21,113,6
2,33,117,1
2,31,69,57
2,29,67,8
2,28,79,5
2,26,77,6
2,24,103,6
2,23,93,7
2,24,106,24
2,24,100,12
2,24,106,112
2,24,103,15
2,31,99,111
2,31,100,46
2,31,99,36
2,29,98,0
2,31,100,0
2,34,98,0
2,31,101,0
2,24,102,4
2,24,103,39
2,24,101,38
2,24,102,17
2,31,97,0
2,34,98,0
2,31,100,0
2,24,99,0
2,24,103,36
2,24,102,29
2,24,101,16
2,31,95,0
2,34,99,0
2,31,99,0
2,26,92,10
2,26,100,30
2,26,100,21
2,31,102,0
2,30,97,0
2,29,100,0
2,26,100,0
2,31,104,15
2,31,102,50
2,31,101,30
2,29,96,1
2,31,99,0
2,34,99,0
2,31,98,3
2,24,99,0
2,24,100,39
2,24,102,35
2,24,99,18
2,31,96,0
2,34,99,0
2,31,100,0
2,24,99,47
2,24,100,34
2,24,103,28
2,24,102,17
2,31,96,0
2,34,102,0
2,31,98,2
2,26,99,0
2,26,102,33
2,26,103,21
2,31,100,0
2,30,102,0
2,29,99,0
2,26,103,0
2,31,102,0
2,31,100,45
2,31,101,38
2,29,100,0
2,31,99,0
2,34,98,0
2,31,101,0
2,34,96,0
2,31,100,29
2,34,95,29
2,31,100,0
2,34,96,0
2,36,98,0
2,31,95,0
2,24,100,49
2,24,103,38
2,31,100,25
2,29,99,0
2,31,99,0
2,34,102,0
2,29,99,0
2,31,101,0
2,31,102,41
2,29,98,25
2,31,98,0
2,31,103,1
2,31,102,1
2,31,102,1
2,31,103,1
3,55,92,1810
3,62,92,1
3,67,94,1
3,67,89,1
3,62,83,1
3,62,92,1
3,67,91,1
3,55,92,261
3,62,92,1
3,67,93,2
3,67,86,1
3,62,77,1
3,55,84,2
3,62,87,1
3,67,87,1
3,55,87,1
3,62,92,1
3,67,92,0
3,67,83,5
3,62,95,3
3,67,95,1
3,55,92,260
3,62,92,0
3,67,94,0
3,67,88,0
3,62,85,1
3,62,90,2
3,67,94,1
3,55,92,255
3,62,92,2
3,67,94,1
3,67,89,1
3,62,83,1
3,62,92,2
3,67,91,1
3,55,92,261
3,62,94,1
3,67,90,2
3,67,91,1
3,62,72,1
3,55,88,0
3,62,86,2
3,67,92,1
3,55,92,1
3,62,92,2
3,67,94,1
3,67,89,1
3,62,83,1
3,62,92,2
3,67,91,1
3,55,92,261
3,62,94,1
3,67,90,2
3,67,91,1
3,62,72,1
3,55,88,0
3,62,86,2
3,67,92,1
3,55,88,1
3,62,92,1
3,67,92,0
3,67,83,5
3,62,95,3
3,67,95,1
3,55,92,260
3,62,92,0
3,67,94,0
3,67,88,0
3,62,85,1
3,62,90,2
3,67,94,1
3,55,92,255
3,62,92,2
3,67,94,1
3,67,89,1
3,62,83,1
3,62,92,2
3,67,91,1
3,55,92,261
3,62,94,1
3,67,90,2
3,67,91,1
3,62,72,1
3,55,88,0
3,62,86,2
3,67,92,1
3,55,88,251
3,62,97,7
3,55,80,0
3,55,88,1
3,57,92,1
3,58,58,0
3,65,82,0
3,58,88,6
3,55,57,1
3,59,92,2
3,60,61,0
3,67,81,0
3,60,83,0
3,67,83,0
3,60,90,5
3,67,81,0
3,60,82,1
3,67,84,0
3,60,90,0
3,67,85,0
3,60,88,7
3,67,85,0
3,60,90,1
3,62,43,0
3,69,83,0
3,55,75,0
3,62,88,0
3,69,82,0
3,62,90,2
3,57,92,3
3,55,79,1
3,62,97,0
3,55,66,1
3,55,90,1
3,57,92,0
3,58,64,0
3,65,84,0
3,58,82,0
3,55,83,1
3,59,92,1
3,60,70,0
3,67,83,1
3,60,83,0
3,67,85,0
3,60,74,9
3,67,86,0
3,60,82,0
3,67,86,0
3,60,83,0
3,67,86,0
3,60,80,8
3,67,86,0
3,60,90,1
3,62,52,0
3,69,83,0
3,55,80,0
3,62,88,2
3,69,80,0
3,67,89,0
3,64,93,0
3,55,92,1
3,62,92,2
3,67,94,1
3,67,89,1
3,62,83,1
3,62,92,2
3,67,91,1
3,55,92,261
3,62,94,1
3,67,90,2
3,67,91,1
3,62,72,1
3,55,88,0
3,62,86,2
3,67,92,1
3,55,88,1
3,62,92,1
3,67,92,0
3,67,83,5
3,62,95,3
3,67,95,1
3,55,92,260
3,62,92,0
3,67,94,0
3,67,88,0
3,62,85,1
3,62,90,2
3,67,94,1
3,55,92,255
3,62,92,2
3,67,94,1
3,67,89,1
3,62,83,1
3,62,92,2
3,67,91,1
3,55,92,261
3,62,94,1
3,67,90,2
3,67,91,1
3,62,72,1
3,55,88,0
3,62,86,2
3,67,92,1
3,55,92,1
3,62,92,2
3,67,94,1
3,67,89,1
3,62,83,1
3,62,92,2
3,67,91,1
3,55,92,261
3,62,94,1
3,67,90,2
3,67,91,1
3,62,72,1
3,55,88,0
3,62,86,2
3,67,92,1
3,55,88,1
3,62,92,1
3,67,92,0
3,67,83,5
3,62,95,3
3,67,95,1
3,55,92,260
3,62,92,0
3,67,94,0
3,67,88,0
3,62,85,1
3,62,90,2
3,67,94,1
3,55,92,255
3,62,92,2
3,67,94,1
3,67,89,1
3,62,83,1
3,62,92,2
3,67,91,1
3,55,92,261
3,62,94,1
3,67,90,2
3,67,91,1
3,62,72,1
3,55,88,0
3,62,86,2
3,67,92,1
3,55,88,251
3,62,97,7
3,55,80,0
3,55,88,1
3,57,92,1
3,58,58,0
3,65,82,0
3,58,88,6
3,55,57,1
3,59,92,2
3,60,61,0
3,67,81,0
3,60,83,0
3,67,83,0
3,60,90,5
3,67,81,0
3,60,82,1
3,67,84,0
3,60,90,0
3,67,85,0
3,60,88,7
3,67,85,0
3,60,90,1
3,62,43,0
3,69,83,0
3,55,75,0
3,62,88,0
3,69,82,0
3,62,90,2
3,57,92,3
3,55,79,1
3,62,97,0
3,55,66,1
3,55,90,1
3,57,92,0
3,58,64,0
3,65,84,0
3,58,82,0
3,55,83,1
3,59,92,1
3,60,70,0
3,67,83,1
3,60,83,0
3,67,85,0
3,60,74,9
3,67,86,0
3,60,82,0
3,67,86,0
3,60,83,0
3,67,86,0
3,60,80,8
3,67,86,0
3,60,90,1
3,62,52,0
3,69,83,0
3,55,80,0
3,62,88,2
3,69,80,0
3,67,89,0
3,64,93,0
3,48,90,4
3,55,83,0
3,60,89,0
3,48,93,0
3,55,90,1
3,60,86,2
3,48,90,83
3,55,81,1
3,60,86,2
3,48,86,0
3,55,86,1
3,60,86,1
3,43,24,20
3,55,92,81
3,62,92,2
3,67,94,1
3,67,89,1
3,62,83,1
3,62,92,2
3,67,91,1
3,55,92,261
3,62,94,1
3,67,90,2
3,67,91,1
3,62,72,1
3,55,88,0
3,62,86,2
3,67,92,1
3,55,88,1
3,62,92,1
3,67,92,0
3,67,83,5
3,62,95,3
3,67,95,1
3,55,92,260
3,62,92,0
3,67,94,0
3,67,88,0
3,62,85,1
3,62,90,2
3,67,94,1
3,55,92,255
3,62,92,2
3,67,94,1
3,67,89,1
3,62,83,1
3,62,92,2
3,67,91,1
3,55,92,261
3,62,94,1
3,67,90,2
3,67,91,1
3,62,72,1
3,55,88,0
3,62,86,2
3,67,92,1
3,55,92,1
3,62,92,2
3,67,94,1
3,67,89,1
3,62,83,1
3,62,92,2
3,67,91,1
3,55,92,261
3,62,94,1
3,67,90,2
3,67,91,1
3,62,72,1
3,55,88,0
3,62,86,2
3,67,92,1
3,55,79,0
3,62,97,0
3,55,66,1
3,55,90,1
3,57,92,0
3,58,64,0
3,65,84,0
3,58,82,0
3,55,83,1
3,59,92,1
3,60,70,0
3,67,83,1
3,60,83,0
3,67,85,0
3,60,74,9
3,67,86,0
3,60,82,0
3,67,86,0
3,60,83,0
3,67,86,0
3,60,80,8
3,67,86,0
3,60,90,1
3,62,52,0
3,69,83,0
3,55,80,0
3,62,88,2
3,69,80,0
3,67,89,0
3,64,93,0
3,48,90,4
3,55,83,0
3,60,89,0
3,48,93,0
3,55,90,1
3,60,86,2
3,48,90,83
3,55,81,1
3,60,86,2
3,48,86,0
3,55,86,1
3,60,86,1
3,43,24,20
3,55,88,81
3,62,97,7
3,55,80,0
3,55,88,1
3,57,92,1
