track,note,velocity,time
1,43,99,38200
1,50,79,78
1,55,81,78
1,53,73,26
1,50,75,64
1,55,101,60
1,50,81,106
1,55,93,74
1,53,87,76
1,55,73,190
1,43,91,70
1,50,83,72
1,55,87,76
1,53,65,14
1,50,59,72
1,55,93,100
1,50,71,104
1,55,71,76
1,53,97,8
1,55,91,188
1,43,91,98
1,50,93,54
1,55,87,68
1,53,67,24
1,50,75,78
1,55,85,10
1,50,89,86
1,55,91,76
1,53,81,24
1,55,89,192
1,43,89,54
1,50,89,38
1,55,89,76
1,53,29,20
1,50,67,78
1,55,89,104
1,50,89,100
1,55,91,72
1,53,99,140
1,55,95,162
1,57,101,67260
1,62,81,180
1,55,81,8
2,31,83,7480
2,31,81,164
2,31,81,126
2,29,76,0
2,31,80,0
2,34,78,0
2,29,74,0
2,31,78,0
2,31,79,154
2,31,79,66
2,29,73,0
2,31,76,0
2,34,80,196
2,29,74,146
2,31,77,190
2,31,80,172
2,31,78,144
2,29,73,0
2,31,76,0
2,34,81,192
2,29,77,170
2,31,78,0
2,31,78,198
2,26,81,42
2,31,74,0
2,30,76,0
2,29,73,0
2,26,80,0
2,31,81,194
2,31,78,174
2,31,80,122
2,29,75,0
2,31,76,0
2,34,82,0
2,31,78,0
2,34,76,46
2,31,77,106
2,34,75,86
2,31,76,0
2,34,78,0
2,36,64,0
2,34,77,0
2,24,80,40
2,24,79,120
2,31,81,68
2,29,73,0
2,31,79,0
2,34,74,0
2,31,81,0
2,31,78,10
2,31,80,158
2,29,72,70
2,31,78,64
2,29,76,0
2,26,76,0
2,29,78,0
2,31,80,2
2,31,81,174
2,31,79,64
2,29,78,0
2,31,78,0
2,34,72,0
2,31,82,0
2,34,74,0
2,31,78,124
2,34,73,100
2,31,77,0
2,34,74,0
2,36,77,0
2,34,71,0
2,24,75,18
2,24,78,126
2,31,78,54
2,29,77,0
2,31,77,0
2,34,70,10
2,29,77,190
2,31,77,6
2,31,77,128
2,29,76,40
2,31,78,0
2,29,77,0
2,26,76,0
2,29,76,0
2,31,77,0
2,31,77,152
2,31,77,148
2,29,73,0
2,31,77,0
2,34,72,4
2,31,75,0
2,24,72,190
2,24,78,120
2,24,81,108
2,24,76,192
2,31,76,63
2,34,68,58
2,31,78,0
2,24,78,12
2,24,77,132
2,24,80,110
2,24,78,190
2,31,75,67
2,34,73,72
2,31,80,172
2,26,77,18
2,26,77,110
2,26,76,66
2,31,78,0
2,30,75,0
2,29,77,0
2,26,75,8
2,31,77,6
2,31,77,152
2,31,77,148
2,29,73,0
2,31,77,0
2,34,72,4
2,31,75,0
2,24,72,190
2,24,78,120
2,24,81,102
2,24,76,6
2,31,76,0
2,34,68,0
2,31,78,0
2,24,78,12
2,24,77,132
2,24,80,110
2,24,78,32
2,31,75,0
2,34,73,0
2,31,80,0
2,26,77,18
2,26,77,110
2,26,76,66
2,31,78,0
2,30,75,0
2,29,77,0
2,26,75,8
2,31,83,6
2,31,81,164
2,31,81,126
2,29,76,0
2,31,80,0
2,34,78,0
2,29,74,0
2,31,78,0
2,31,79,154
2,31,79,66
2,29,73,0
2,31,76,0
2,34,80,0
2,29,74,0
2,31,77,0
2,31,80,170
2,31,78,58
2,29,73,0
2,31,76,0
2,34,81,192
2,29,77,170
2,31,78,0
2,31,78,198
2,26,81,34
2,31,74,0
2,30,76,0
2,29,73,0
2,26,80,0
2,31,81,0
2,31,78,174
2,31,80,122
2,29,75,0
2,31,76,0
2,34,82,192
2,31,78,148
2,34,76,46
2,31,77,106
2,34,75,86
2,31,76,0
2,34,78,0
2,36,78,192
2,34,77,172
2,24,80,40
2,24,79,120
2,31,81,68
2,29,73,0
2,31,79,0
2,34,74,0
2,31,81,0
2,31,78,10
2,31,80,158
2,29,72,70
2,31,78,64
2,29,76,0
2,26,76,0
2,29,78,0
2,31,80,2
2,31,81,174
2,31,79,64
2,29,78,0
2,31,78,0
2,34,72,0
2,31,82,0
2,34,74,0
2,31,78,124
2,34,73,100
2,31,77,0
2,34,74,0
2,36,77,0
2,34,71,0
2,24,75,18
2,24,78,126
2,31,78,54
2,29,77,0
2,31,77,0
2,34,70,10
2,29,77,190
2,31,77,6
2,31,77,128
2,29,76,40
2,31,78,0
2,29,77,0
2,26,76,0
2,29,76,0
2,31,77,0
2,31,77,152
2,31,77,124
2,29,73,0
2,31,77,0
2,34,72,4
2,31,75,0
2,24,72,190
2,24,78,120
2,24,81,60
2,24,76,6
2,31,76,0
2,34,68,0
2,31,78,0
2,24,78,12
2,24,77,132
2,24,80,110
2,24,78,38
2,31,75,68
2,34,73,0
2,31,80,0
2,26,77,18
2,26,77,110
2,26,76,96
2,31,78,0
2,30,75,0
2,29,77,0
2,26,75,8
2,31,77,66
2,31,77,152
2,31,77,148
2,29,73,0
2,31,77,0
2,34,72,4
2,31,75,0
2,24,72,190
2,24,78,120
2,24,81,102
2,24,76,62
2,31,76,0
2,34,68,0
2,31,78,0
2,24,78,12
2,24,77,132
2,24,80,110
2,24,78,70
2,31,75,0
2,34,73,0
2,31,80,0
2,26,77,18
2,26,77,110
2,26,76,92
2,31,78,0
2,30,75,0
2,29,77,0
2,26,75,8
2,28,81,66
2,24,78,8
2,21,80,1536
2,24,81,4
2,26,77,0
2,28,80,386
2,24,76,1534
2,21,80,0
2,33,97,952
2,31,33,250
2,29,95,24
2,28,97,22
2,26,85,22
2,24,83,24
2,23,73,26
2,21,63,8
2,24,81,116
2,24,80,56
2,24,81,398
2,24,84,54
2,31,80,436
2,31,78,178
2,31,80,142
2,29,74,52
2,31,80,0
2,34,73,0
2,29,77,0
2,31,78,0
2,31,77,132
2,31,78,66
2,29,74,0
2,31,77,0
2,34,74,0
2,29,77,0
2,31,78,10
2,31,77,168
2,31,78,144
2,29,72,0
2,31,77,0
2,34,74,0
2,29,76,0
2,31,77,28
2,31,80,134
2,26,77,2
2,31,81,0
2,30,76,0
2,29,76,0
2,26,78,0
2,31,77,192
2,31,74,196
2,31,77,110
2,29,74,0
2,31,78,0
2,34,72,0
2,31,78,0
2,34,74,42
2,31,74,150
2,34,76,90
2,31,75,0
2,34,73,0
2,36,77,0
2,31,77,0
2,24,81,10
2,24,78,148
2,31,76,126
2,29,75,0
2,31,79,0
2,34,78,0
2,29,76,0
2,31,80,0
2,31,80,168
2,29,76,108
2,31,71,0
2,31,78,6
2,31,81,192
2,31,81,4
2,26,81,10752
2,26,82,148
2,26,80,94
2,31,77,0
2,30,74,0
2,29,75,0
2,26,77,0
2,28,78,0
2,24,78,1532
2,21,91,22
2,33,95,4
2,31,47,228
2,29,45,32
2,28,57,22
2,26,55,24
2,24,81,24
2,23,71,28
2,24,84,98
2,24,78,48
2,24,84,450
2,24,81,58
2,31,77,444
2,31,78,186
2,31,77,146
2,29,76,0
2,31,78,0
2,34,76,0
2,31,79,0
2,24,80,18
2,24,81,156
2,24,79,152
2,24,80,68
2,31,75,0
2,34,76,0
2,31,78,0
2,24,77,0
2,24,81,144
2,24,80,118
2,24,79,64
2,31,73,0
2,34,77,0
2,31,77,0
2,26,70,40
2,26,78,120
2,26,78,84
2,31,80,0
2,30,75,0
2,29,78,0
2,26,78,0
2,31,82,62
2,31,80,200
2,31,79,120
2,29,74,2
2,31,77,0
2,34,77,0
2,31,76,12
2,24,77,194
2,24,78,156
2,24,80,140
2,24,77,72
2,31,74,0
2,34,77,0
2,31,78,0
2,24,77,190
2,24,78,134
2,24,81,110
2,24,80,66
2,31,74,0
2,34,80,0
2,31,76,10
2,26,77,0
2,26,80,130
2,26,81,86
2,31,78,0
2,30,80,0
2,29,77,0
2,26,81,0
2,31,80,0
2,31,78,180
2,31,79,152
2,29,78,0
2,31,77,0
2,34,76,0
2,31,79,0
2,34,74,0
2,31,78,116
2,34,73,116
2,31,78,0
2,34,74,0
2,36,76,0
2,31,73,0
2,24,78,196
2,24,81,154
2,31,78,100
2,29,77,0
2,31,77,0
2,34,80,0
2,29,77,0
2,31,79,0
2,31,80,164
2,29,76,102
2,31,76,0
2,31,81,192
2,31,80,0
2,31,80,191
2,31,81,189
3,79,97,69296
3,86,91,190
3,76,91,328
3,81,87,84
3,83,81,76
3,74,71,370
3,79,87,176
3,86,85,162
3,76,89,314
3,81,69,154
3,83,81,20
3,74,69,362
3,79,75,148
3,86,83,162
3,76,79,284
3,81,73,60
3,83,71,180
3,74,69,352
3,79,73,180
3,86,83,78
3,76,83,310
3,88,91,190
3,86,81,118
3,79,87,290
3,86,75,180
3,76,91,362
3,81,77,92
3,83,75,124
3,74,65,366
3,79,77,174
3,86,71,102
3,76,87,352
3,81,75,108
3,83,69,132
3,74,69,350
3,79,71,178
3,86,73,130
3,79,77,12
3,77,41,42
3,76,71,16
3,74,77,12
3,72,85,12
3,71,95,8
3,69,105,10
3,67,107,10
3,65,101,8
3,64,105,12
3,62,105,10
3,60,107,14
3,59,97,10
3,57,97,12
3,55,91,10
3,53,73,10
3,52,71,8
3,50,65,10
3,55,77,4
3,67,83,0
3,60,99,0
3,48,63,0
3,36,77,0
3,36,71,34
3,48,61,4
3,55,79,8
3,60,91,0
3,67,79,0
3,36,71,390
3,48,65,6
3,60,93,0
3,67,79,0
3,55,75,4
3,36,81,36
3,48,75,0
3,60,93,8
3,67,87,0
3,55,89,2
3,79,87,25328
3,86,75,180
3,76,91,362
3,81,77,92
3,83,75,124
3,74,65,366
3,79,77,174
3,86,71,102
3,76,87,352
3,81,75,108
3,83,69,132
3,74,69,350
3,79,71,178
3,86,73,130
3,79,77,12
3,77,41,42
3,76,71,16
3,74,77,12
3,72,85,12
3,71,95,8
3,69,105,10
3,67,107,10
3,65,101,8
3,64,105,12
3,62,105,10
3,60,107,14
3,59,97,10
3,57,97,12
3,55,91,10
3,53,73,10
3,52,71,8
3,50,65,10
3,55,77,4
3,67,83,0
3,60,99,0
3,48,63,0
3,36,77,0
3,36,71,34
3,48,61,4
3,55,79,8
3,60,91,0
3,67,79,0
3,36,71,390
3,48,65,6
3,60,93,0
3,67,79,0
3,55,75,4
3,36,81,36
3,48,75,0
3,60,93,8
3,67,87,0
3,55,89,2
4,74,85,13064
4,74,87,60
4,74,86,80
4,74,89,92
4,67,89,222
4,65,86,12
4,67,91,0
4,67,84,324
4,67,85,40
4,70,82,24
4,70,83,50
4,69,84,40
4,70,79,0
4,69,87,0
4,67,82,0
4,67,81,184
4,67,83,46
4,70,85,16
4,70,79,62
4,69,80,34
4,70,82,22
4,67,83,20
4,67,62,26
4,67,84,42
4,65,79,18
4,67,84,194
4,74,84,848
4,74,87,46
4,77,86,112
4,74,81,0
4,74,85,68
4,74,85,32
4,74,87,66
4,74,87,76
4,74,68,18
4,74,88,94
4,67,84,8
4,67,87,90
4,65,84,0
4,67,90,12
4,67,84,314
4,70,83,8
4,67,78,0
4,67,84,72
4,65,78,66
4,70,85,70
4,70,79,28
4,69,84,0
4,70,82,94
4,67,86,82
4,67,91,1216
4,70,89,4
4,72,86,36
4,74,82,10
4,70,78,0
4,72,85,0
4,72,86,50
4,72,88,56
4,74,85,44
4,67,82,0
4,67,84,42
4,72,89,58
4,72,85,40
4,74,82,38
4,74,79,42
4,74,84,66
4,72,87,0
4,74,89,20
4,79,89,92
4,78,85,52
4,79,91,80
4,77,88,18
4,76,89,46
4,74,79,0
4,72,84,0
4,72,88,312
4,72,89,76
4,74,89,32
4,67,79,0
4,67,85,44
4,72,86,36
4,72,85,90
4,74,84,202
4,74,85,70
4,74,87,80
4,72,86,8
4,74,91,0
4,79,90,62
4,74,89,5654
4,74,89,82
4,74,89,98
4,67,80,18
4,67,84,68
4,65,84,0
4,67,84,0
4,65,85,8
4,67,85,124
4,67,84,36
4,70,88,16
4,70,83,56
4,69,84,34
4,70,82,34
4,69,82,0
4,67,84,0
4,67,82,144
4,67,84,46
4,70,85,62
4,67,81,0
4,65,85,64
4,65,80,36
4,67,85,66
4,67,85,308
4,67,85,22
4,70,82,132
4,70,81,62
4,69,84,44
4,70,82,62
4,69,81,44
4,67,78,0
4,74,85,664
4,77,86,148
4,74,88,104
4,74,85,202
4,65,88,410
4,67,88,116
4,70,92,924
4,69,88,108
4,70,85,0
4,69,89,20
4,67,89,126
4,67,91,902
4,70,89,4
4,72,86,36
4,74,82,10
4,70,78,0
4,72,85,0
4,72,86,50
4,72,88,56
4,74,85,44
4,67,82,0
4,67,84,42
4,72,89,58
4,72,85,40
4,74,82,38
4,74,79,42
4,74,84,66
4,72,87,0
4,74,89,20
4,79,89,92
4,78,85,52
4,79,91,80
4,77,88,18
4,76,89,46
4,74,79,0
4,72,84,0
4,72,88,312
4,72,89,76
4,74,89,32
4,67,79,0
4,67,85,44
4,72,86,36
4,72,85,90
4,74,84,202
4,74,85,70
4,74,87,80
4,72,86,8
4,74,91,0
4,79,91,774
4,79,88,90
4,79,87,78
4,78,86,18
4,76,86,0
4,76,88,132
4,76,89,72
4,74,89,46
4,74,88,52
4,72,89,14
4,71,88,406
4,71,86,50
4,72,89,2
4,64,88,1318
4,76,91,0
4,79,88,32
4,78,88,30
4,76,85,0
4,76,86,54
4,76,87,84
4,74,88,18
4,76,88,94
4,76,85,52
4,76,85,72
4,76,86,70
4,74,88,72
4,74,85,52
4,79,90,18
4,79,78,260
4,79,82,18
4,79,86,64
4,79,85,44
4,79,89,50
4,79,88,48
4,79,92,58
4,74,89,6826
4,73,78,0
4,74,79,12
4,73,76,6
4,74,85,656
4,73,76,0
4,74,82,0
4,73,78,0
4,74,89,640
4,73,78,0
4,74,79,10
4,73,76,0
4,73,85,74
4,74,76,0
4,79,86,0
4,67,89,226
4,70,89,0
4,72,86,30
4,74,81,0
4,70,79,0
4,72,85,0
4,72,84,60
4,72,88,90
4,74,86,50
4,67,78,376
4,67,82,54
4,72,87,44
4,72,85,44
4,74,86,64
4,74,84,50
4,74,85,80
4,72,85,42
4,74,89,0
4,79,89,70
4,78,90,54
4,79,89,0
4,77,90,0
4,76,90,12
4,74,86,0
4,72,85,0
4,72,86,90
4,72,84,88
4,74,89,44
4,67,81,0
4,67,84,70
4,72,89,28
4,72,85,48
4,74,84,40
4,74,84,70
4,74,86,76
4,72,86,10
4,74,89,0
4,64,85,638
4,76,86,0
4,79,87,22
4,78,89,100
4,76,85,0
4,76,85,62
4,76,86,74
4,74,84,16
4,76,87,90
4,76,85,54
4,76,86,68
4,76,89,78
4,74,85,28
4,74,86,72
4,79,91,0
4,79,79,96
4,79,85,68
4,79,85,68
4,79,88,72
4,79,89,68
4,79,88,68
4,79,90,56
4,67,89,62
4,70,89,0
4,72,86,30
4,74,81,0
4,70,79,0
4,72,85,0
4,72,84,60
4,72,88,90
4,74,86,50
4,67,78,376
4,67,82,54
4,72,87,44
4,72,85,44
4,74,86,64
4,74,84,50
4,74,85,80
4,72,85,42
4,74,89,0
4,79,89,70
4,78,90,54
4,79,89,0
4,77,90,0
4,76,90,12
4,74,86,0
4,72,85,0
4,72,86,90
4,72,84,88
4,74,89,44
4,67,81,0
4,67,84,70
4,72,89,28
4,72,85,48
4,74,84,40
4,74,84,70
4,74,86,76
4,72,86,10
4,74,89,0
4,74,89,818
4,73,78,0
4,74,79,6
4,73,76,204
4,74,85,656
4,73,76,0
4,74,82,0
4,73,78,0
4,74,89,640
4,73,78,0
4,74,79,6
4,73,76,204
4,73,85,74
4,74,76,0
4,79,86,0
5,62,78,13624
5,55,75,6
5,55,75,20
5,62,83,98
5,55,78,152
5,65,80,10
5,55,74,6
5,64,83,92
5,62,81,60
5,64,78,0
5,62,82,104
5,55,75,10
5,55,77,48
5,62,76,12
5,55,76,196
5,65,81,18
5,55,73,192
5,64,81,80
5,62,79,100
5,60,76,4
5,62,82,78
5,55,76,18
5,55,75,42
5,62,79,12
5,55,78,2
5,65,81,16
5,55,75,194
5,64,83,10
5,62,78,90
5,64,78,188
5,62,79,120
5,55,77,22
5,55,77,52
5,62,77,22
5,55,78,198
5,65,79,20
5,55,72,14
5,64,82,10
5,62,80,84
5,60,75,6
