track,note,velocity,time
1,65,125,1200
1,60,125,0
1,57,125,0
1,65,125,240
1,60,125,0
1,57,125,0
1,65,125,240
1,60,125,0
1,57,125,0
1,65,125,240
1,60,125,0
1,57,125,0
1,65,125,240
1,60,125,0
1,57,125,0
1,65,125,240
1,60,125,0
1,57,125,0
1,60,125,480
1,62,125,0
1,65,125,0
1,65,125,0
1,65,125,0
1,65,125,0
1,65,125,0
1,60,125,0
1,65,125,120
1,65,125,0
1,69,125,0
1,69,125,0
1,69,125,0
1,67,125,0
1,65,125,0
1,65,125,240
1,67,125,0
1,67,125,0
1,67,125,0
1,67,125,0
1,67,125,0
1,67,125,0
1,69,125,0
1,69,125,0
1,65,125,0
1,65,125,0
1,65,125,0
1,62,125,0
1,69,125,0
1,62,125,360
1,65,125,0
1,65,125,0
1,65,125,0
1,65,125,0
1,65,125,0
1,65,125,0
1,60,125,0
1,60,125,0
1,74,125,0
1,72,125,0
1,72,125,0
1,72,125,0
1,69,125,0
1,65,125,0
1,65,125,120
1,74,125,0
1,72,125,0
1,72,125,0
1,72,125,0
1,67,125,0
1,67,125,0
1,69,125,0
1,69,125,0
1,65,125,0
1,65,125,0
1,65,125,0
1,62,125,0
1,65,125,0
1,60,125,240
1,62,125,0
1,65,125,0
1,65,125,0
1,65,125,0
1,65,125,0
1,65,125,0
1,60,125,0
1,65,125,240
1,65,125,0
1,69,125,0
1,69,125,0
1,69,125,0
1,67,125,0
1,65,125,0
1,64,125,240
1,65,125,0
1,67,125,0
1,67,125,0
1,67,125,0
1,67,125,0
1,67,125,0
1,67,125,0
1,69,125,0
1,69,125,0
1,65,125,0
1,65,125,0
1,65,125,0
1,62,125,0
1,69,125,0
1,60,125,240
1,65,125,0
1,65,125,0
1,65,125,0
1,65,125,0
1,65,125,0
1,65,125,0
1,65,125,0
1,65,125,0
1,74,125,0
1,72,125,0
1,72,125,0
1,72,125,0
1,69,125,0
1,65,125,0
1,65,125,240
1,74,125,0
1,72,125,0
1,72,125,0
1,72,125,0
1,67,125,0
1,65,125,0
1,65,125,0
1,62,125,0
1,65,125,0
1,60,125,240
1,62,125,0
1,65,125,0
1,65,125,0
1,65,125,0
1,65,125,0
1,65,125,0
1,60,125,0
1,65,125,0
1,65,125,0
1,69,125,0
1,69,125,0
1,69,125,0
1,67,125,0
1,65,125,0
1,65,125,240
1,67,125,0
1,67,125,0
1,67,125,0
1,67,125,0
1,67,125,0
1,67,125,0
1,69,125,0
1,69,125,0
1,65,125,0
1,65,125,0
1,65,125,0
1,62,125,0
1,69,125,0
1,62,125,360
1,65,125,0
1,65,125,0
1,65,125,0
1,65,125,0
1,67,125,0
1,65,125,0
1,65,125,120
1,65,125,0
1,74,125,0
1,72,125,0
1,72,125,0
1,72,125,0
1,69,125,0
1,65,125,0
1,65,125,120
1,65,125,0
1,74,125,0
1,72,125,0
1,72,125,0
1,72,125,0
1,67,125,0
1,67,125,0
1,69,125,0
1,69,125,0
1,65,125,0
1,65,125,0
1,65,125,0
1,62,125,0
1,65,125,0
1,60,125,240
1,62,125,0
1,65,125,0
1,65,125,0
1,65,125,0
1,65,125,0
1,65,125,0
1,60,125,0
1,65,125,240
1,65,125,0
1,69,125,0
1,69,125,0
1,69,125,0
1,67,125,0
1,65,125,0
1,64,125,240
1,65,125,0
1,67,125,0
1,67,125,0
1,67,125,0
1,67,125,0
1,67,125,0
1,67,125,0
1,69,125,0
1,69,125,0
1,65,125,0
1,65,125,0
1,65,125,0
1,62,125,0
1,69,125,0
1,60,125,240
1,65,125,0
1,65,125,0
1,65,125,0
1,65,125,0
1,65,125,0
1,65,125,0
1,65,125,0
1,65,125,0
1,74,125,0
1,72,125,0
1,72,125,0
1,72,125,0
1,69,125,0
1,65,125,0
1,65,125,240
1,74,125,0
1,72,125,0
1,72,125,0
1,72,125,0
1,67,125,0
1,65,125,0
1,65,125,0
1,62,125,0
1,65,125,0
1,60,125,240
1,62,125,0
1,65,125,0
1,65,125,0
1,65,125,0
1,65,125,0
1,65,125,0
1,60,125,0
1,65,125,0
1,69,125,0
1,69,125,24
1,69,125,0
1,67,125,0
1,65,125,0
1,65,125,240
1,67,125,0
1,67,125,0
1,67,125,0
1,67,125,0
1,67,125,0
1,67,125,0
1,69,125,120
1,65,125,48
1,65,125,0
1,65,125,0
1,62,125,0
1,69,125,0
1,65,125,480
1,65,125,0
1,65,125,0
1,65,125,0
1,67,125,0
1,65,125,24
1,60,125,144
1,74,125,24
1,72,125,0
1,72,125,0
1,72,125,0
1,69,125,0
1,65,125,0
1,65,125,0
1,74,125,24
1,72,125,0
1,72,125,0
1,72,125,0
1,67,125,0
1,67,125,0
1,69,125,0
1,69,125,0
1,65,125,0
1,65,125,0
1,65,125,0
1,62,125,0
1,65,125,0
1,60,125,240
1,62,125,0
1,65,125,0
1,65,125,0
1,65,125,0
1,65,125,0
1,65,125,0
1,60,125,0
1,65,125,240
1,65,125,0
1,69,125,0
1,69,125,0
1,69,125,0
1,67,125,0
1,65,125,0
1,64,125,240
1,65,125,0
1,67,125,0
1,67,125,0
1,67,125,0
1,67,125,0
1,67,125,0
1,67,125,0
1,69,125,0
1,69,125,0
1,65,125,0
1,65,125,0
1,65,125,0
1,62,125,0
1,69,125,0
1,60,125,240
1,65,125,0
1,65,125,0
1,65,125,0
1,65,125,0
1,65,125,0
1,65,125,0
1,65,125,0
1,65,125,0
1,74,125,0
1,72,125,0
1,72,125,0
1,72,125,0
1,69,125,0
1,65,125,0
1,65,125,240
1,74,125,0
1,72,125,0
1,72,125,0
1,72,125,0
1,67,125,0
1,65,125,0
1,65,125,0
1,62,125,0
1,65,125,0
1,57,125,480
1,59,125,0
1,62,125,0
1,62,125,0
1,62,125,0
1,62,125,0
1,62,125,0
1,57,125,0
1,62,125,240
1,62,125,0
1,66,125,0
1,66,125,0
1,66,125,0
1,64,125,0
1,62,125,0
1,61,125,240
1,62,125,0
1,64,125,0
1,64,125,0
1,64,125,0
1,64,125,0
1,64,125,0
1,64,125,0
1,66,125,0
1,66,125,0
1,62,125,0
1,62,125,0
1,62,125,0
1,59,125,0
1,66,125,0
1,57,125,240
1,62,125,0
1,62,125,0
1,62,125,0
1,62,125,0
1,62,125,0
1,62,125,0
1,62,125,0
1,62,125,0
1,71,125,0
1,69,125,0
1,69,125,0
1,69,125,0
1,66,125,0
1,62,125,0
1,62,125,240
1,71,125,0
1,69,125,0
1,69,125,0
1,69,125,0
1,64,125,0
1,62,125,0
1,62,125,0
1,59,125,0
1,62,125,0
1,54,125,480
1,56,125,0
1,59,125,0
1,59,125,0
1,59,125,0
1,59,125,0
1,59,125,0
1,54,125,0
1,59,125,240
1,59,125,0
1,63,117,0
1,63,117,0
1,63,117,0
1,61,117,0
1,59,117,0
1,58,109,240
1,59,109,0
1,61,109,0
1,61,101,0
1,61,101,0
1,61,101,0
1,61,93,0
1,61,93,0
1,63,93,0
1,63,93,0
1,59,85,0
1,59,85,0
1,59,85,0
1,56,85,0
1,63,77,0
1,54,77,240
1,59,69,0
1,59,69,0
1,59,69,0
1,59,69,0
1,59,61,0
1,59,61,0
1,59,61,0
1,59,61,0
1,68,53,0
1,66,53,0
1,66,53,0
1,66,53,0
1,63,53,0
1,59,49,0
1,59,49,240
1,68,46,0
1,66,46,0
1,66,46,0
1,66,46,0
1,61,46,0
1,59,46,0
1,59,46,0
1,56,46,0
1,59,46,0
2,57,125,5040
2,60,125,0
2,57,125,240
2,60,125,0
2,57,125,240
2,60,125,0
2,57,125,240
2,60,125,0
2,60,125,240
2,65,125,0
2,57,125,240
2,60,125,0
2,57,125,240
2,60,125,0
2,57,125,240
2,60,125,0
2,58,125,240
2,64,125,0
2,58,125,240
2,64,125,0
2,58,125,240
2,64,125,0
2,58,125,240
2,64,125,0
2,57,125,240
2,60,125,0
2,57,125,240
2,60,125,0
2,60,125,240
2,65,125,0
2,60,125,240
2,65,125,0
2,57,125,240
2,60,125,0
2,57,125,240
2,60,125,0
2,57,125,240
2,60,125,0
2,53,125,240
2,57,125,0
2,65,125,240
2,69,125,0
2,65,125,240
2,69,125,0
2,57,125,240
2,60,125,0
2,57,125,240
2,60,125,0
2,65,125,240
2,69,125,0
2,65,125,240
2,69,125,0
2,58,125,240
2,64,125,0
2,58,125,240
2,64,125,0
2,58,125,240
2,62,125,0
2,58,125,240
2,62,125,0
2,57,125,240
2,60,125,0
2,69,127,120
2,60,127,0
2,70,127,0
2,62,127,0
2,69,127,0
2,60,127,0
2,60,127,0
2,69,127,0
2,57,125,480
2,60,125,0
2,57,125,240
2,60,125,0
2,57,125,240
2,60,125,0
2,57,125,240
2,60,125,0
2,60,125,240
2,65,125,0
2,57,125,240
2,60,125,0
2,57,125,240
2,60,125,0
2,57,125,240
2,60,125,0
2,58,125,240
2,64,125,0
2,58,125,240
2,64,125,0
2,58,125,240
2,64,125,0
2,58,125,240
2,64,125,0
2,58,125,240
2,62,125,0
2,58,125,240
2,62,125,0
2,60,125,240
2,65,125,0
2,57,125,240
2,60,125,0
2,57,125,240
2,60,125,0
2,57,125,240
2,60,125,0
2,57,125,240
2,60,125,0
2,57,125,240
2,60,125,0
2,65,125,240
2,69,125,0
2,65,125,240
2,69,125,0
2,57,125,240
2,60,125,0
2,57,125,240
2,60,125,0
2,65,125,240
2,69,125,0
2,65,125,240
2,69,125,0
2,58,125,240
2,64,125,0
2,58,125,240
2,62,125,0
2,57,127,0
2,58,127,0
2,60,127,0
2,65,127,0
2,57,127,0
2,58,127,0
2,60,127,0
2,65,127,0
2,57,127,0
2,65,127,0
2,60,125,480
2,57,125,0
2,60,125,240
2,57,125,0
2,60,125,240
2,57,125,0
2,60,125,240
2,57,125,0
2,65,125,240
2,60,125,0
2,60,125,240
2,57,125,0
2,60,125,240
2,57,125,0
2,60,125,240
2,57,125,0
2,64,125,240
2,58,125,0
2,64,125,240
2,58,125,0
2,64,125,240
2,58,125,0
2,64,125,240
2,58,125,0
2,60,125,240
2,57,125,0
2,60,125,240
2,57,125,0
2,65,125,240
2,60,125,0
2,65,125,240
2,60,125,0
2,60,125,240
2,57,125,0
2,60,125,240
2,57,125,0
2,60,125,240
2,57,125,0
2,57,125,240
2,53,125,0
2,69,125,240
2,65,125,0
2,69,125,240
2,65,125,0
2,60,125,240
2,57,125,0
2,60,125,240
2,57,125,0
2,69,125,240
2,65,125,0
2,69,125,240
2,65,125,0
2,64,125,240
2,58,125,0
2,64,125,240
2,58,125,0
2,62,125,240
2,58,125,0
2,62,125,240
2,58,125,0
2,60,125,240
2,57,125,0
2,60,127,120
2,69,127,0
2,62,127,0
2,70,127,0
2,60,127,0
2,69,127,0
2,69,127,0
2,60,127,0
2,60,125,480
2,57,125,0
2,60,125,240
2,57,125,0
2,60,125,240
2,57,125,0
2,60,125,240
2,57,125,0
2,65,125,240
2,60,125,0
2,60,125,240
2,57,125,0
2,60,125,240
2,57,125,0
2,60,125,240
2,57,125,0
2,64,125,240
2,58,125,0
2,64,125,240
2,58,125,0
2,64,125,240
2,58,125,0
2,64,125,240
2,58,125,0
2,62,125,240
2,58,125,0
2,62,125,240
2,58,125,0
2,65,125,240
2,60,125,0
2,60,125,240
2,57,125,0
2,60,125,240
2,57,125,0
2,60,125,240
2,57,125,0
2,60,125,240
2,57,125,0
2,60,125,240
2,57,125,0
2,69,125,240
2,65,125,0
2,69,125,240
2,65,125,0
2,60,125,240
2,57,125,0
2,60,125,240
2,57,125,0
2,69,125,240
2,65,125,0
2,69,125,240
2,65,125,0
2,64,125,240
2,58,125,0
2,62,125,240
2,58,125,0
2,57,127,0
2,58,127,0
2,60,127,0
2,65,127,0
2,57,127,0
2,58,127,0
2,60,127,0
2,65,127,0
2,65,127,0
2,57,127,0
2,60,125,240
2,57,125,0
2,60,125,192
2,65,125,0
2,64,125,192
2,58,125,0
2,57,125,192
2,60,125,0
2,60,125,336
2,65,125,0
2,57,125,768
2,60,125,0
2,57,125,240
2,60,125,0
2,57,125,240
2,60,125,0
2,53,125,240
2,57,125,0
2,65,125,240
2,69,125,0
2,65,125,240
2,69,125,0
2,57,125,240
2,60,125,0
2,60,125,240
2,57,125,0
2,65,125,240
2,69,125,0
2,65,125,240
2,69,125,0
2,58,125,240
2,64,125,0
2,58,125,240
2,64,125,0
2,58,125,240
2,62,125,0
2,58,125,240
2,62,125,0
2,57,125,240
2,60,125,0
2,69,127,120
2,60,127,0
2,70,127,0
2,62,127,0
2,69,127,0
2,60,127,0
2,60,127,0
2,69,127,0
2,57,125,480
2,60,125,0
2,57,125,240
2,60,125,0
2,57,125,240
2,60,125,0
2,57,125,240
2,60,125,0
2,60,125,240
2,65,125,0
2,57,125,240
2,60,125,0
2,57,125,240
2,60,125,0
2,57,125,240
2,60,125,0
2,58,125,240
2,64,125,0
2,58,125,240
2,64,125,0
2,58,125,240
2,64,125,0
2,58,125,240
2,64,125,0
2,58,125,240
2,62,125,0
2,58,125,240
2,62,125,0
2,60,125,240
2,65,125,0
2,57,125,240
2,60,125,0
2,57,125,240
2,60,125,0
2,57,125,240
2,60,125,0
2,57,125,240
2,60,125,0
2,57,125,240
2,60,125,0
2,65,125,240
2,69,125,0
2,65,125,240
2,69,125,0
2,57,125,240
2,60,125,0
2,57,125,240
2,60,125,0
2,65,125,240
2,69,125,0
2,65,125,240
2,69,125,0
2,58,125,240
2,64,125,0
2,58,125,240
2,62,125,0
2,57,127,0
2,58,127,0
2,60,127,0
2,65,127,0
2,57,127,0
2,58,127,0
2,60,127,0
2,65,127,0
2,54,127,0
2,62,127,0
2,57,125,480
2,54,125,0
2,57,125,240
2,54,125,0
2,57,125,240
2,54,125,0
2,57,125,240
2,54,125,0
2,62,125,240
2,57,125,0
2,57,125,240
2,54,125,0
2,57,125,240
2,54,125,0
2,57,125,240
2,54,125,0
2,61,125,240
2,55,125,0
2,61,125,240
2,55,125,0
2,61,125,240
2,55,125,0
2,61,125,240
2,55,125,0
2,59,125,240
2,55,125,0
2,59,125,240
2,55,125,0
2,62,125,240
2,57,125,0
2,57,125,240
2,54,125,0
2,57,125,240
2,54,125,0
2,57,125,240
2,54,125,0
2,57,125,240
2,54,125,0
2,57,125,240
2,54,125,0
2,66,125,240
2,62,125,0
2,66,125,240
2,62,125,0
2,57,125,240
2,54,125,0
2,57,125,240
2,54,125,0
2,66,125,240
2,62,125,0
2,66,125,240
2,62,125,0
2,61,125,240
2,55,125,0
2,59,125,240
2,55,125,0
2,54,127,0
2,55,127,0
2,57,127,0
2,62,127,0
2,54,127,0
2,55,127,0
2,57,127,0
2,62,127,0
2,59,127,0
2,51,127,0
2,51,125,480
2,54,125,0
2,51,125,240
2,54,125,0
2,51,125,240
2,54,125,0
2,51,125,240
2,54,125,0
2,54,117,240
2,59,117,0
2,51,117,240
2,54,117,0
2,51,109,240
2,54,109,0
2,51,109,240
2,54,109,0
2,52,101,240
2,58,101,0
2,52,101,240
2,58,101,0
2,52,93,240
2,58,93,0
2,52,93,240
2,58,93,0
2,52,85,240
2,56,85,0
2,52,85,240
2,56,85,0
2,54,77,240
2,59,77,0
2,51,77,240
2,54,77,0
2,51,69,240
2,54,69,0
2,51,69,240
2,54,69,0
2,51,61,240
2,54,61,0
2,51,61,240
2,54,61,0
2,59,53,240
2,63,53,0
2,59,53,240
2,63,53,0
2,51,49,240
2,54,49,0
2,51,49,240
2,54,49,0
2,59,46,240
2,63,46,0
2,59,46,240
2,63,46,0
2,52,46,240
2,58,46,0
2,52,46,240
2,56,46,0
2,51,46,0
2,52,46,0
2,54,46,0
2,59,46,0
2,51,46,0
2,52,46,0
2,54,46,0
2,59,46,0
2,59,46,0
2,51,46,0
3,53,125,960
3,48,125,0
3,50,125,0
3,53,125,0
3,53,125,0
3,48,125,0
3,50,125,0
3,53,125,0
3,53,125,0
3,51,125,0
3,53,125,0
3,41,125,0
3,41,125,480
3,36,125,0
3,41,125,0
3,36,125,0
3,41,125,0
3,36,125,0
