track,note,velocity,time
1,36,92,2668
1,36,92,100
1,36,92,32
1,36,92,164
1,36,92,116
1,36,92,40
1,36,92,164
1,34,92,164
1,29,92,164
1,34,92,164
1,33,92,80
1,31,92,80
1,36,92,160
1,29,92,160
1,34,92,160
1,36,92,160
1,34,92,160
1,33,92,160
1,38,92,160
1,34,92,160
1,39,92,160
1,36,92,160
1,40,92,160
1,31,92,80
1,36,92,80
1,36,92,112
1,36,92,32
1,40,92,84
1,41,92,84
1,29,92,80
1,34,92,84
1,34,92,84
1,33,92,36
1,31,92,36
1,31,92,112
1,36,92,36
1,31,92,84
1,29,92,80
1,41,92,80
1,34,92,84
1,38,92,80
1,36,92,84
1,48,92,84
1,34,92,84
1,46,92,84
1,33,92,84
1,45,92,80
1,38,92,80
1,33,92,88
1,34,92,80
1,38,92,84
1,39,92,80
1,34,92,84
1,36,92,84
1,34,92,112
1,32,92,36
1,36,92,80
1,37,92,80
1,37,92,116
1,37,92,36
1,36,92,84
1,34,92,84
1,34,92,112
1,34,92,36
1,37,92,84
1,41,92,84
1,29,92,100
1,29,92,48
1,31,92,164
1,31,92,112
1,31,92,36
1,34,92,84
1,37,92,84
1,37,92,100
1,37,92,48
1,32,92,164
1,32,92,112
1,32,92,36
1,31,92,164
1,31,92,116
1,31,92,36
1,38,92,84
1,43,92,84
1,38,92,168
1,31,92,84
1,36,92,80
1,36,92,116
1,36,92,36
1,40,92,80
1,41,92,84
1,29,92,84
1,34,92,80
1,34,92,84
1,33,92,36
1,31,92,36
1,31,92,116
1,36,92,36
1,31,92,84
1,29,92,84
1,41,92,84
1,34,92,80
1,38,92,88
1,36,92,84
1,48,92,84
1,34,92,84
1,46,92,84
1,33,92,80
1,45,92,84
1,38,92,84
1,33,92,84
1,34,92,84
1,38,92,80
1,39,92,84
1,34,92,84
1,36,92,80
1,34,92,112
1,32,92,36
1,36,92,84
1,37,92,84
1,37,92,112
1,37,92,36
1,36,92,84
1,34,92,84
1,34,92,112
1,34,92,36
1,37,92,84
1,29,92,84
1,29,92,32
1,36,92,80
1,41,92,36
1,36,92,84
1,29,92,228
2,60,104,5708
2,64,104,44
2,67,104,48
2,72,104,48
2,60,104,52
2,64,104,44
2,67,104,52
2,70,104,36
2,60,104,36
2,65,104,40
2,69,104,48
2,72,104,48
2,58,104,40
2,62,104,44
2,65,104,48
2,69,104,36
2,67,104,32
2,62,104,36
2,70,104,40
2,74,104,40
2,60,104,40
2,64,104,40
2,67,104,44
2,70,104,40
2,60,104,48
2,65,104,36
2,69,104,36
2,72,104,40
2,58,104,36
2,62,104,40
2,65,104,44
2,70,104,40
2,60,104,48
2,64,104,40
2,67,104,48
2,72,104,36
2,60,104,32
2,64,104,36
2,67,104,40
2,70,104,36
2,60,104,44
2,64,104,44
2,69,104,48
2,72,104,48
2,62,104,48
2,65,104,36
2,69,104,36
2,74,104,40
2,62,104,40
2,65,104,40
2,70,104,48
2,74,104,48
2,63,104,44
2,67,104,36
2,70,104,32
2,75,104,36
2,60,104,40
2,64,104,36
2,67,104,44
2,72,104,44
2,60,104,44
2,64,104,40
2,67,104,48
2,72,104,48
2,60,104,36
2,64,104,40
2,67,104,40
2,72,104,44
2,60,104,44
2,64,104,44
2,67,104,52
2,70,104,44
2,60,104,52
2,65,104,36
2,69,104,36
2,72,104,40
2,58,104,36
2,62,104,36
2,65,104,48
2,69,104,40
2,67,104,48
2,62,104,44
2,70,104,52
2,74,104,36
2,60,104,40
2,64,104,40
2,67,104,40
2,70,104,44
2,60,104,48
2,65,104,44
2,69,104,52
2,72,104,52
2,58,104,52
2,62,104,36
2,65,104,36
2,70,104,40
2,60,104,40
2,64,104,48
2,67,104,52
2,72,104,52
2,60,104,48
2,64,104,52
2,67,104,36
2,70,104,36
2,60,104,40
2,64,104,48
2,69,104,48
2,72,104,52
2,62,104,48
2,65,104,44
2,69,104,52
2,74,104,36
2,62,104,36
2,65,104,40
2,70,104,48
2,74,104,48
2,63,104,40
2,67,104,48
2,70,104,52
2,75,104,44
2,60,104,52
2,63,104,36
2,67,104,40
2,72,104,40
2,56,104,40
2,58,104,32
2,60,104,32
2,63,104,32
2,68,104,32
2,58,104,0
2,60,104,0
2,63,104,4
2,68,104,4
2,70,104,0
2,72,104,4
2,73,104,8
2,75,104,0
2,77,104,48
2,73,104,36
2,68,104,44
2,73,104,40
2,72,104,40
2,70,104,40
2,68,104,44
2,58,104,52
2,61,104,40
2,65,104,52
2,70,104,52
2,73,104,52
2,72,104,36
2,70,104,40
2,68,104,40
2,60,104,48
2,65,104,48
2,68,104,52
2,72,104,44
2,60,104,52
2,65,104,36
2,68,104,36
2,72,104,36
2,62,104,40
2,67,104,36
2,70,104,52
2,74,104,48
2,62,104,52
2,67,104,44
2,70,104,36
2,74,104,36
2,61,104,36
2,65,104,40
2,68,104,48
2,73,104,44
2,61,104,48
2,65,104,44
2,70,104,52
2,73,104,40
2,63,104,36
2,68,104,32
2,72,104,40
2,75,104,40
2,63,104,48
2,68,104,44
2,72,104,52
2,75,104,44
2,62,104,52
2,67,104,36
2,71,104,32
2,74,104,40
2,62,104,40
2,67,104,40
2,71,104,48
2,74,104,48
2,62,104,52
2,67,104,36
2,71,104,52
2,74,104,36
2,67,104,36
2,65,104,36
2,62,104,36
2,64,104,36
2,60,104,40
2,64,104,48
2,67,104,52
2,72,104,40
2,60,104,52
2,64,104,36
2,67,104,36
2,70,104,36
2,60,104,44
2,65,104,44
2,67,104,52
2,69,104,48
2,62,104,40
2,65,104,40
2,70,104,32
2,74,104,40
2,62,104,36
2,67,104,48
2,70,104,48
2,74,104,44
2,60,104,52
2,64,104,44
2,67,104,52
2,70,104,32
2,60,104,36
2,65,104,40
2,69,104,40
2,74,104,48
2,62,104,40
2,65,104,44
2,70,104,52
2,74,104,44
2,60,104,52
2,64,104,36
2,67,104,40
2,72,104,40
2,60,104,36
2,64,104,48
2,67,104,48
2,70,104,48
2,60,104,52
2,64,104,44
2,69,104,36
2,72,104,36
2,62,104,36
2,65,104,40
2,69,104,40
2,74,104,44
2,62,104,48
2,65,104,44
2,70,104,52
2,74,104,52
2,63,104,52
2,67,104,36
2,70,104,40
2,75,104,40
2,60,104,48
2,63,104,48
2,67,104,52
2,72,104,52
2,56,104,52
2,58,104,24
2,60,104,20
2,63,104,32
2,68,104,20
2,58,104,0
2,60,104,0
2,63,104,4
2,68,104,4
2,70,104,0
2,72,104,4
2,73,104,4
2,75,104,0
2,77,104,36
2,73,104,48
2,68,104,48
2,73,104,48
2,72,104,44
2,70,104,52
2,68,104,36
2,58,104,36
2,61,104,36
2,65,104,48
2,70,104,44
2,73,104,48
2,72,104,48
2,70,104,52
2,68,104,44
2,60,104,36
2,65,104,32
2,69,104,32
2,72,104,28
2,77,104,36
2,72,104,36
2,77,104,36
2,79,104,36
2,81,104,36
3,60,127,5672
3,70,127,776
3,69,127,736
3,65,127,580
3,62,127,188
3,74,127,0
3,72,127,388
3,70,127,348
3,69,127,388
3,65,127,556
3,62,127,184
3,64,127,772
3,65,127,0
3,67,127,208
3,69,127,236
3,70,127,232
3,72,127,232
3,69,127,548
3,65,127,176
3,74,127,752
3,70,127,536
3,67,127,0
3,65,127,788
3,64,127,180
3,60,127,0
3,70,127,764
3,69,127,724
3,65,127,572
3,62,127,200
3,74,127,0
3,72,127,372
3,70,127,396
3,69,127,348
3,65,127,560
3,62,127,236
3,64,127,720
3,65,127,548
3,67,127,212
3,69,127,244
3,70,127,232
3,72,127,216
3,69,127,552
3,65,127,188
3,74,127,748
3,70,127,536
3,67,127,176
3,75,127,760
3,72,127,536
3,68,127,184
3,75,127,0
3,77,127,176
3,75,127,1332
3,77,127,188
3,79,127,1312
3,77,127,0
3,75,127,248
3,74,127,212
3,75,127,248
3,77,127,208
3,77,127,4
3,70,127,188
3,75,127,1324
3,73,127,260
3,72,127,0
3,70,127,252
3,72,127,240
3,73,127,244
3,75,127,224
3,68,127,172
3,74,127,1340
3,67,127,188
3,67,127,0
3,65,127,0
3,62,127,192
3,64,127,184
3,60,127,188
3,70,127,748
3,69,127,740
3,65,127,556
3,62,127,208
3,74,127,4
3,72,127,364
3,70,127,372
3,69,127,352
3,65,127,592
3,62,127,212
3,64,127,720
3,65,127,548
3,67,127,216
3,69,127,248
3,70,127,228
3,72,127,236
3,69,127,560
3,65,127,176
3,74,127,764
3,70,127,524
3,67,127,208
3,69,127,264
3,70,127,216
3,75,127,224
3,72,127,536
3,68,127,164
3,75,127,0
3,77,127,4
3,75,127,0
3,77,127,200
3,75,127,20
3,77,127,196
4,65,64,2588
4,67,64,36
4,65,64,168
4,67,64,36
4,64,64,932
4,63,64,168
4,58,64,168
4,65,64,548
4,64,64,84
4,62,64,84
4,60,64,84
4,58,64,164
4,60,64,164
4,58,64,172
4,57,64,172
4,58,64,332
4,55,64,328
4,64,64,1400
4,63,64,164
4,58,64,164
4,65,64,548
4,64,64,84
4,62,64,88
4,60,64,84
4,58,64,164
4,60,64,164
4,58,64,172
4,57,64,172
4,58,64,336
4,67,64,328
4,66,64,164
4,60,64,468
4,61,64,40
4,60,64,164
4,61,64,36
4,68,64,168
4,67,64,328
4,65,64,328
4,63,64,328
4,62,64,328
4,60,64,1236
4,62,64,240
4,64,64,32
4,65,64,48
4,67,64,76
4,69,64,44
4,70,64,36
4,69,64,108
4,67,64,32
4,65,64,88
4,64,64,84
4,62,64,84
4,60,64,88
4,58,64,168
4,60,64,168
4,58,64,164
4,57,64,168
4,58,64,328
4,63,64,164
4,67,64,168
4,72,64,168
4,72,64,472
4,73,64,36
4,72,64,164
4,73,64,40
4,67,64,164
4,69,64,36
5,72,72,5640
5,76,62,768
5,77,55,740
5,70,40,0
5,77,63,4
5,76,66,388
5,74,66,384
5,72,64,4
5,70,40,760
5,72,60,760
5,70,41,748
5,69,54,732
5,70,50,1528
5,72,60,1496
5,72,68,4
5,76,62,760
5,75,55,724
5,70,47,752
5,77,62,4
5,76,66,364
5,74,62,368
5,72,65,4
5,70,44,768
5,72,60,780
5,70,42,736
5,69,53,752
5,70,51,1516
5,79,66,1504
5,78,56,756
5,72,68,0
5,73,69,172
5,72,59,1320
5,73,54,192
5,80,51,1304
5,79,61,4
5,77,62,1536
5,75,47,1504
5,74,58,1512
5,72,68,4
5,74,60,1128
5,76,59,172
5,77,50,4
5,79,63,384
5,81,64,164
5,82,58,180
5,81,60,0
5,79,66,0
5,77,54,4
5,76,62,356
5,74,66,360
5,72,52,392
5,70,54,764
5,72,64,740
5,70,49,736
5,69,55,756
5,74,61,748
5,70,54,740
5,75,49,768
5,79,66,740
5,84,56,740
5,84,72,0
5,85,59,200
5,84,71,4
5,85,66,208
5,79,66,0
5,81,60,216
6,65,64,2548
6,62,64,8
6,67,64,0
6,64,64,0
6,65,64,0
6,62,64,0
6,67,64,0
6,64,64,0
6,72,64,0
6,64,64,0
6,72,64,196
6,64,64,8
6,70,64,196
6,67,64,0
6,70,64,188
6,67,64,8
6,69,64,192
6,65,64,0
6,69,64,188
6,65,64,8
6,70,64,192
6,62,64,0
6,70,64,184
6,62,64,8
6,70,64,184
6,67,64,12
6,70,64,200
6,67,64,0
6,72,64,192
6,67,64,0
6,70,64,196
6,67,64,0
6,69,64,192
6,65,64,0
6,69,64,188
6,65,64,8
6,70,64,192
6,62,64,0
6,70,64,188
6,62,64,4
6,72,64,196
6,64,64,0
6,72,64,192
6,64,64,8
6,70,64,192
6,67,64,0
6,70,64,188
6,67,64,8
6,72,64,200
6,69,64,0
6,72,64,192
6,69,64,4
6,74,64,192
6,65,64,0
6,74,64,188
6,65,64,4
6,74,64,196
6,65,64,0
6,74,64,192
6,65,64,8
6,75,64,192
6,67,64,0
6,75,64,188
6,67,64,8
6,77,64,200
6,72,64,0
6,76,64,184
6,67,64,8
6,72,64,184
6,64,64,12
6,67,64,184
6,60,64,8
6,72,64,196
6,64,64,0
6,72,64,192
6,64,64,8
6,70,64,196
6,67,64,0
6,70,64,188
6,67,64,8
6,69,64,200
6,65,64,0
6,69,64,188
6,65,64,8
6,70,64,192
6,62,64,0
6,70,64,196
6,62,64,4
6,70,64,184
6,67,64,12
6,70,64,200
6,67,64,0
6,72,64,196
6,67,64,0
6,70,64,196
6,67,64,0
6,69,64,200
6,65,64,0
6,69,64,188
6,65,64,8
6,70,64,192
6,62,64,0
6,70,64,196
6,62,64,4
6,72,64,192
6,64,64,0
6,72,64,188
6,64,64,12
6,70,64,192
6,67,64,0
6,70,64,188
6,67,64,8
6,72,64,196
6,69,64,0
6,72,64,188
6,69,64,8
6,74,64,192
6,65,64,0
6,74,64,192
6,65,64,4
6,74,64,192
6,65,64,0
6,74,64,188
6,65,64,12
6,75,64,192
6,67,64,0
6,75,64,188
6,67,64,8
6,72,64,196
6,63,64,0
6,72,64,184
6,63,64,12
6,56,64,192
6,58,64,4
6,60,64,0
6,63,64,4
6,68,64,0
6,58,64,0
6,60,64,4
6,63,64,8
6,68,64,4
6,70,64,4
6,72,64,0
6,73,64,4
6,72,64,16
6,68,64,0
6,73,64,184
6,65,64,8
6,73,64,200
6,65,64,4
6,73,64,184
6,65,64,8
6,72,64,196
6,65,64,0
6,73,64,180
6,65,64,12
6,73,64,188
6,65,64,8
6,73,64,184
6,65,64,12
6,72,64,192
6,68,64,0
6,72,64,188
6,68,64,8
6,72,64,196
6,68,64,0
6,72,64,188
6,68,64,4
6,74,64,196
6,70,64,0
6,74,64,180
6,70,64,12
6,74,64,188
6,70,64,8
6,74,64,184
6,70,64,12
6,73,64,192
6,65,64,0
6,73,64,188
6,65,64,8
6,73,64,196
6,70,64,0
6,73,64,188
6,70,64,4
6,72,64,196
6,68,64,0
6,72,64,180
6,68,64,12
6,72,64,188
6,68,64,8
6,72,64,188
6,68,64,8
6,71,64,192
6,67,64,0
6,62,94,8
6,59,94,4
6,67,94,0
6,66,94,4
6,64,94,0
6,62,94,4
6,59,64,8
6,55,64,8
6,62,64,8
6,59,64,4
6,67,64,192
6,59,64,0
6,71,64,192
6,62,64,0
6,72,64,192
6,64,64,0
6,72,64,188
6,64,64,8
6,70,64,200
6,67,64,4
6,70,64,192
6,67,64,0
6,69,64,192
6,65,64,0
6,69,64,204
6,65,64,0
6,70,64,192
6,62,64,0
6,70,64,184
6,62,64,12
6,70,64,192
6,67,64,0
6,70,64,196
6,67,64,0
6,72,64,204
6,67,64,0
6,70,64,192
6,67,64,0
6,69,64,196
6,65,64,0
6,69,64,192
6,65,64,12
6,70,64,196
6,62,64,0
6,70,64,184
6,62,64,12
6,72,64,204
6,64,64,0
6,72,64,188
6,64,64,8
6,70,64,192
6,67,64,0
6,70,64,184
6,67,64,8
6,72,64,200
6,69,64,0
6,72,64,192
6,69,64,12
6,74,64,192
6,65,64,0
6,74,64,188
6,65,64,8
6,74,64,200
6,65,64,0
6,74,64,192
6,65,64,8
6,75,64,192
6,67,64,0
6,75,64,184
6,67,64,8
6,72,64,200
6,63,64,0
6,72,64,192
6,63,64,8
6,56,64,192
6,58,64,8
6,60,64,0
6,63,64,8
6,68,64,8
6,58,64,0
6,60,64,0
6,63,64,4
6,68,64,8
6,70,64,4
6,72,64,0
6,73,64,0
6,72,64,0
6,68,64,0
6,73,64,188
6,65,64,4
6,73,64,188
6,65,64,12
6,73,64,184
6,65,64,8
6,72,64,196
6,65,64,0
6,73,64,184
6,65,64,8
6,73,64,192
6,65,64,8
6,73,64,188
6,65,64,8
6,67,64,200
6,63,64,0
6,69,64,0
6,65,64,0
7,48,104,5612
7,52,104,48
7,48,64,96
7,55,104,48
7,52,64,48
7,48,24,48
7,60,104,0
7,55,64,48
7,52,24,48
7,48,104,0
7,60,64,48
7,52,104,40
7,55,24,8
7,48,64,48
7,60,24,48
7,55,104,0
7,52,64,40
7,48,24,40
7,58,104,0
7,55,64,48
7,52,24,28
7,48,104,12
7,58,64,40
7,55,24,40
7,53,104,0
7,48,64,40
7,58,24,44
7,57,104,0
7,53,64,40
7,48,24,44
