track,note,velocity,time
1,72,123,0
1,72,0,18428
1,70,123,4
1,70,0,3068
1,72,123,4
1,72,0,3068
1,70,123,4
1,70,0,2300
1,82,123,196
1,70,123,0
1,77,123,0
1,77,0,572
1,70,0,0
1,82,0,0
1,72,123,0
1,76,123,0
1,67,123,0
1,67,0,3068
1,76,0,0
1,72,0,0
1,74,123,4
1,65,123,0
1,70,123,0
1,70,0,3068
1,65,0,0
1,74,0,0
1,67,123,4
1,64,123,0
1,72,123,0
1,72,0,284
1,72,123,100
1,67,0,92
1,67,123,100
1,72,0,92
1,70,123,100
1,70,0,92
1,72,123,100
1,72,0,380
1,72,123,4
1,72,0,284
1,72,123,100
1,72,0,284
1,77,123,100
1,77,0,284
1,76,123,100
1,76,0,188
1,72,123,4
1,72,0,668
1,72,123,100
1,67,0,92
1,72,0,96
1,67,123,4
1,70,123,192
1,70,0,92
1,72,123,100
1,72,0,284
1,72,123,100
1,72,0,1628
1,67,0,0
1,64,0,0
1,76,123,100
1,67,123,0
1,72,123,0
1,72,0,3068
1,67,0,0
1,76,0,0
1,65,123,4
1,70,123,0
1,74,123,0
1,74,0,3068
1,70,0,0
1,65,0,0
1,76,123,4
1,72,123,0
1,67,123,0
1,67,0,3068
1,72,0,0
1,76,0,0
1,65,123,4
1,74,123,0
1,70,123,0
1,70,0,3068
1,74,0,0
1,65,0,0
1,76,123,4
1,79,123,0
1,72,123,0
1,72,0,3068
1,79,0,0
1,76,0,0
1,70,123,4
1,77,123,0
1,74,123,0
1,74,0,3068
1,77,0,0
1,70,0,0
1,67,123,4
1,64,123,0
1,72,123,0
1,72,0,284
1,72,123,100
1,67,0,92
1,67,123,100
1,72,0,92
1,70,123,100
1,70,0,92
1,72,123,100
1,72,0,380
1,72,123,4
1,72,0,284
1,72,123,100
1,72,0,284
1,77,123,100
1,77,0,284
1,76,123,100
1,76,0,188
1,72,123,4
1,72,0,668
1,72,123,100
1,67,0,92
1,72,0,96
1,67,123,4
1,70,123,192
1,70,0,92
1,72,123,100
1,72,0,284
1,72,123,100
1,72,0,1628
1,67,0,0
1,64,0,0
1,77,123,100
1,69,123,0
1,72,123,0
1,72,0,1532
1,69,0,0
1,77,0,0
1,80,123,4
1,75,123,0
1,72,123,0
1,72,0,1532
1,75,0,0
1,80,0,0
1,84,123,0
1,79,123,0
1,88,123,576
1,88,0,188
1,89,123,4
1,89,0,188
1,88,123,4
1,88,0,284
1,79,0,0
1,84,0,0
1,84,123,100
1,79,123,0
1,79,0,284
1,84,0,96
1,79,123,4
1,84,123,192
1,88,123,192
1,88,0,188
1,89,123,4
1,89,0,188
1,88,123,4
1,88,0,380
1,84,0,0
1,79,0,0
1,79,123,4
1,79,0,188
1,72,123,0
1,72,0,3068
1,70,123,4
1,70,0,3068
1,72,123,4
1,72,0,3068
1,70,123,4
1,70,0,3068
1,72,123,4
1,72,0,3068
1,70,123,4
1,70,0,3068
1,72,123,4
1,76,123,0
1,67,123,0
1,76,0,1436
1,76,123,100
1,76,0,284
1,76,123,100
1,72,0,92
1,72,123,100
1,76,0,92
1,77,123,100
1,77,0,188
1,76,123,4
1,72,0,284
1,72,123,100
1,72,0,92
1,72,123,100
1,72,0,3068
1,67,0,0
1,79,123,4
1,76,123,0
1,72,123,0
1,72,0,2588
1,76,0,0
1,79,0,0
1,76,0,0
1,79,123,100
1,79,0,188
1,76,123,4
1,76,0,188
1,77,123,4
1,70,123,0
1,74,123,0
1,74,0,2588
1,70,0,0
1,77,0,0
1,77,123,100
1,77,0,188
1,70,123,4
1,70,0,188
1,79,123,4
1,76,123,0
1,72,123,0
1,72,0,2588
1,76,0,0
1,79,0,0
1,79,123,100
1,79,0,188
1,76,123,4
1,76,0,188
1,77,123,4
1,70,123,0
1,74,123,0
1,74,0,2588
1,70,0,0
1,77,0,0
1,77,123,100
1,77,0,188
1,70,123,4
1,70,0,188
1,76,123,4
1,79,123,0
1,72,123,0
1,72,0,2588
1,79,0,0
1,76,0,0
1,79,123,100
1,79,0,188
1,76,123,4
1,76,0,188
1,77,123,4
1,70,123,0
1,74,123,0
1,74,0,3068
1,70,0,0
1,77,0,0
1,67,123,4
1,64,123,0
1,72,123,0
1,72,0,284
1,72,123,100
1,67,0,92
1,67,123,100
1,72,0,92
1,70,123,100
1,70,0,92
1,72,123,100
1,72,0,380
1,72,123,4
1,72,0,284
1,72,123,100
1,72,0,284
1,77,123,100
1,77,0,284
1,76,123,100
1,76,0,188
1,72,123,4
1,72,0,668
1,72,123,100
1,67,0,92
1,72,0,96
1,67,123,4
1,70,123,192
1,70,0,92
1,72,123,100
1,72,0,284
1,72,123,100
1,72,0,1628
1,67,0,0
1,64,0,0
1,77,123,100
1,69,123,0
1,72,123,0
1,72,0,1532
1,69,0,0
1,77,0,0
1,75,123,4
1,80,123,0
1,72,123,0
1,72,0,572
1,80,0,0
1,75,0,0
1,84,123,4
1,80,123,0
1,75,123,0
1,75,0,764
1,80,0,0
1,84,0,0
1,84,123,4
1,75,123,0
1,80,123,0
1,80,0,188
1,75,0,0
1,84,0,0
1,72,123,4
1,60,123,0
1,67,123,0
1,67,0,3068
1,60,0,0
1,72,0,0
1,77,123,4
1,69,123,0
1,72,123,0
1,72,0,1532
1,69,0,0
1,77,0,0
1,75,123,4
1,80,123,0
1,72,123,0
1,72,0,572
1,80,0,0
1,75,0,0
1,84,123,4
1,80,123,0
1,75,123,0
1,75,0,764
1,80,0,0
1,84,0,0
1,84,123,4
1,75,123,0
1,80,123,0
1,80,0,188
1,75,0,0
1,84,0,0
1,72,123,4
1,67,123,0
1,60,123,0
1,60,0,1628
1,67,0,0
1,72,0,0
1,88,123,1444
1,79,123,0
1,84,123,0
1,84,0,1532
1,88,0,0
1,86,123,4
1,83,123,0
1,83,0,1532
1,86,0,0
1,79,0,0
1,84,123,4
1,75,123,0
1,80,123,0
1,80,0,1532
1,75,0,0
1,84,0,0
1,83,123,4
1,79,123,0
1,74,123,0
1,74,0,1532
1,79,0,0
1,83,0,0
1,75,123,4
1,84,123,0
1,72,123,0
1,79,123,0
1,79,0,1532
1,75,0,0
1,84,0,0
1,72,0,0
1,87,123,4
1,84,123,0
1,75,123,0
1,80,123,0
1,75,0,1628
1,87,0,0
1,84,0,96
1,80,0,0
1,72,123,1348
1,72,0,1532
1,70,123,4
1,70,0,1532
1,72,123,4
1,72,0,1532
1,70,123,4
1,70,0,1532
1,72,123,4
1,72,0,1532
1,70,123,4
1,70,0,1532
1,72,123,4
1,72,0,1532
1,72,123,4
1,72,0,92
1,60,123,1444
1,63,123,0
1,55,123,0
1,55,0,1532
1,63,0,0
1,60,0,0
1,62,123,4
1,53,123,0
1,58,123,0
1,58,0,1532
1,53,0,0
1,62,0,0
1,60,123,4
1,63,123,0
1,55,123,0
1,55,0,1532
1,63,0,0
1,60,0,0
1,62,123,4
1,65,123,0
1,70,123,0
1,70,0,1532
1,65,0,0
1,62,0,0
1,55,123,4
1,60,123,0
1,63,123,0
1,63,0,1532
1,60,0,0
1,55,0,0
1,62,123,4
1,65,123,0
1,70,123,0
1,70,0,1532
1,65,0,0
1,62,0,0
1,63,123,4
1,67,123,0
1,72,123,0
1,72,0,1532
1,67,0,0
1,63,0,0
1,70,123,4
1,74,123,0
1,65,123,0
1,65,0,1532
1,74,0,0
1,70,0,0
1,63,123,4
1,72,123,0
1,67,123,0
1,67,0,1532
1,72,0,0
1,63,0,0
1,70,123,4
1,65,123,0
1,62,123,0
1,62,0,1532
1,65,0,0
1,70,0,0
1,63,123,4
1,72,123,0
1,67,123,0
1,67,0,1532
1,72,0,0
1,63,0,0
1,70,123,4
1,65,123,0
1,62,123,0
1,62,0,1532
1,65,0,0
1,70,0,0
1,63,123,4
1,72,123,0
1,67,123,0
1,67,0,1532
1,72,0,0
1,63,0,0
1,70,123,4
1,65,123,0
1,62,123,0
1,62,0,1532
1,65,0,0
1,70,0,0
1,63,123,4
1,72,123,0
1,67,123,0
1,67,0,1532
1,72,0,0
1,63,0,0
1,70,123,4
1,65,123,0
1,62,123,0
1,62,0,1532
1,65,0,0
1,70,0,0
1,63,123,4
1,55,123,0
1,60,123,0
1,60,0,1436
1,63,0,0
1,65,123,100
1,62,123,0
1,62,0,1436
1,65,0,0
1,55,0,0
1,62,123,100
1,67,123,0
1,55,123,0
1,55,0,1340
1,67,0,0
1,62,0,96
1,63,123,100
1,68,123,0
1,56,123,0
1,56,0,1052
1,68,0,96
1,67,123,4
1,55,123,0
1,62,123,0
1,63,0,92
1,67,0,192
1,55,0,0
1,62,0,0
1,63,123,100
1,55,123,0
1,60,123,0
1,60,0,1436
1,63,0,0
1,65,123,100
1,62,123,0
1,62,0,1436
1,65,0,0
1,55,0,0
1,62,123,100
1,67,123,0
1,55,123,0
1,55,0,1340
1,67,0,0
1,62,0,96
1,63,123,100
1,68,123,0
1,56,123,0
1,56,0,1052
1,68,0,96
1,67,123,4
1,55,123,0
1,62,123,0
1,63,0,92
1,67,0,192
1,55,0,0
1,62,0,0
1,55,123,100
1,60,123,0
1,63,123,0
1,63,0,1436
1,60,0,0
1,65,123,100
1,62,123,0
1,62,0,1436
1,65,0,0
1,55,0,0
1,62,123,100
1,55,123,0
1,67,123,0
1,67,0,1340
1,55,0,0
1,62,0,0
1,68,123,196
1,56,123,0
1,63,123,0
1,63,0,668
1,56,0,0
1,68,0,96
1,67,123,4
1,55,123,0
1,62,123,0
1,62,0,668
1,55,0,0
1,67,0,0
1,55,123,100
1,60,123,0
1,63,123,0
1,63,0,1436
1,60,0,0
1,55,0,0
1,55,123,100
1,65,123,0
1,62,123,0
1,62,0,1436
1,65,0,0
1,55,0,96
1,62,123,4
1,67,123,0
1,55,123,0
1,55,0,1340
1,67,0,0
1,62,0,0
1,56,123,196
1,68,123,0
1,63,123,0
1,63,0,764
1,68,0,0
1,56,0,0
1,67,123,4
1,55,123,0
1,62,123,0
1,67,0,668
1,62,0,96
1,55,0,0
1,79,123,4
1,75,123,0
1,72,123,0
1,75,0,476
1,72,0,96
1,79,0,0
1,79,123,4
1,72,123,0
1,75,123,0
1,75,0,92
1,72,0,0
1,79,0,0
1,79,123,292
1,75,123,0
1,72,123,0
1,72,0,284
1,75,0,0
1,79,0,0
1,79,123,100
1,75,123,0
1,72,123,0
1,72,0,92
1,75,0,0
1,79,0,0
1,70,123,100
1,77,123,0
1,74,123,0
1,74,0,380
1,77,0,0
1,70,0,0
1,74,123,4
1,77,123,0
1,82,123,0
1,82,0,1052
1,77,0,0
1,74,0,0
1,76,123,100
1,79,123,0
1,72,123,0
1,72,0,476
1,79,0,0
1,76,0,0
1,76,123,100
1,79,123,0
1,72,123,0
1,72,0,92
1,79,0,0
1,76,0,0
1,79,123,292
1,76,123,0
1,72,123,0
1,72,0,284
1,76,0,0
1,79,0,0
1,79,123,100
1,72,123,0
1,76,123,0
1,76,0,92
1,72,0,0
1,79,0,0
1,70,123,100
1,74,123,0
1,77,123,0
1,77,0,92
1,74,0,0
1,70,0,0
1,74,123,292
1,77,123,0
1,82,123,0
1,82,0,1052
1,77,0,0
1,74,0,0
1,79,123,100
1,72,123,0
1,76,123,0
1,76,0,476
1,72,0,0
1,79,0,0
1,72,123,100
1,76,123,0
1,79,123,0
1,79,0,92
1,76,0,0
1,72,0,0
1,79,123,292
1,76,123,0
1,72,123,0
1,72,0,284
1,76,0,0
1,79,0,0
1,72,123,100
1,76,123,0
1,79,123,0
1,79,0,92
1,76,0,0
1,72,0,0
1,74,123,100
1,77,123,0
1,82,123,0
1,82,0,92
1,77,0,0
1,74,0,0
1,82,123,292
1,74,123,0
1,77,123,0
1,77,0,188
1,74,0,0
1,82,0,0
1,79,123,196
1,76,123,0
1,72,123,0
1,72,0,476
1,76,0,0
1,79,0,0
1,79,123,100
1,76,123,0
1,72,123,0
1,72,0,92
1,76,0,0
1,79,0,0
1,79,123,292
1,76,123,0
1,72,123,0
1,72,0,284
1,76,0,0
1,79,0,0
1,72,123,100
1,79,123,0
1,76,123,0
1,76,0,92
1,79,0,0
1,72,0,0
1,74,123,100
1,77,123,0
1,82,123,0
1,82,0,92
1,77,0,0
1,74,0,0
1,74,123,292
1,77,123,0
1,82,123,0
1,82,0,284
1,77,0,0
1,74,0,0
1,84,123,100
1,79,123,0
1,76,123,0
1,72,123,0
1,72,0,1532
1,84,0,0
1,79,0,0
1,76,0,0
1,70,123,4
1,77,123,0
1,82,123,0
1,74,123,0
1,74,0,1532
1,70,0,0
1,77,0,0
1,82,0,0
1,84,123,4
1,79,123,0
1,76,123,0
1,72,123,0
1,72,0,1532
1,84,0,0
1,79,0,0
1,76,0,0
1,70,123,4
1,77,123,0
1,82,123,0
1,74,123,0
1,74,0,1532
1,70,0,0
1,77,0,0
1,82,0,0
1,84,123,4
1,79,123,0
1,72,123,0
1,76,123,0
1,76,0,1532
1,84,0,0
1,79,0,0
1,72,0,0
1,74,123,4
1,82,123,0
1,77,123,0
1,70,123,0
1,70,0,1532
1,74,0,0
1,82,0,0
1,77,0,0
1,84,123,4
1,79,123,0
1,72,123,0
1,76,123,0
1,76,0,1532
1,84,0,0
1,79,0,0
1,72,0,0
1,70,123,4
1,77,123,0
1,82,123,0
1,74,123,0
1,74,0,1532
1,70,0,0
1,77,0,0
1,82,0,0
1,84,123,4
1,79,123,0
1,76,123,0
1,72,123,0
1,72,0,1532
1,84,0,0
1,79,0,0
1,76,0,0
1,70,123,4
1,77,123,0
1,82,123,0
1,74,123,0
1,74,0,1532
1,70,0,0
1,77,0,0
1,82,0,0
1,84,123,4
1,76,123,0
1,79,123,0
1,72,123,0
1,72,0,3068
1,84,0,0
1,76,0,0
1,79,0,0
1,84,123,4
1,79,123,0
1,76,123,0
1,76,0,3068
1,79,0,0
1,84,0,0
1,77,123,4
1,74,123,0
1,82,123,0
1,82,0,3068
1,74,0,0
1,77,0,0
1,84,123,4
1,79,123,0
1,76,123,0
1,76,0,3068
1,79,0,0
1,84,0,0
1,77,123,4
1,74,123,0
1,82,123,0
1,82,0,3068
1,74,0,0
1,77,0,0
1,84,123,4
1,79,123,0
1,76,123,0
1,76,0,3068
1,79,0,0
1,84,0,0
1,77,123,4
1,74,123,0
1,82,123,0
1,82,0,3068
1,74,0,0
1,77,0,0
1,67,123,4
1,64,123,0
1,72,123,0
1,72,0,284
1,72,123,100
1,67,0,92
1,67,123,100
1,72,0,92
1,70,123,100
1,70,0,92
1,72,123,100
1,72,0,380
1,72,123,4
1,72,0,284
1,72,123,100
1,72,0,284
1,77,123,100
1,77,0,284
1,76,123,100
1,76,0,188
1,72,123,4
1,72,0,668
1,72,123,100
1,67,0,92
1,72,0,96
1,67,123,4
1,70,123,192
1,70,0,92
1,72,123,100
1,72,0,284
1,72,123,100
1,72,0,1628
1,67,0,0
1,64,0,0
1,77,123,100
1,72,123,0
1,69,123,0
1,69,0,1532
1,72,0,0
1,77,0,0
1,80,123,4
1,75,123,0
1,72,123,0
1,72,0,1532
1,75,0,0
1,80,0,0
1,76,123,4
1,79,123,0
1,72,123,0
1,72,0,1532
1,79,0,0
1,76,0,0
1,84,123,4
1,76,123,0
1,79,123,0
1,79,0,1532
1,76,0,0
1,84,0,0
1,77,123,4
1,72,123,0
1,69,123,0
1,69,0,1532
1,72,0,0
1,77,0,0
1,80,123,4
1,75,123,0
1,72,123,0
1,72,0,1532
1,75,0,0
1,80,0,0
1,76,123,4
1,79,123,0
1,72,123,0
1,72,0,1532
1,79,0,0
1,76,0,0
1,84,123,4
1,76,123,0
1,79,123,0
1,79,0,1532
1,76,0,0
1,84,0,0
1,77,123,4
1,72,123,0
1,69,123,0
1,69,0,1532
1,72,0,0
1,77,0,0
1,80,123,4
1,75,123,0
1,72,123,0
1,72,0,1532
1,75,0,0
1,80,0,0
1,76,123,4
1,79,123,0
1,72,123,0
1,72,0,1532
1,79,0,0
1,76,0,0
1,84,123,4
1,76,123,0
1,79,123,0
1,79,0,1532
1,76,0,0
1,84,0,0
1,77,123,4
1,72,123,0
1,69,123,0
1,69,0,1532
1,72,0,0
1,77,0,0
1,84,123,4
1,80,123,0
1,75,123,0
1,72,123,0
1,72,0,1724
1,84,0,0
