track,note,velocity,time
1,67,75,952
1,64,75,0
1,59,75,0
1,59,0,46
1,64,0,0
1,67,0,0
1,64,70,48
1,67,70,0
1,59,70,0
1,59,0,48
1,67,0,0
1,64,0,0
1,67,70,48
1,64,70,0
1,59,70,0
1,59,0,48
1,64,0,0
1,67,0,0
1,64,75,48
1,67,75,0
1,59,75,0
1,59,0,48
1,67,0,0
1,64,0,0
1,67,70,48
1,64,70,0
1,59,70,0
1,59,0,48
1,64,0,0
1,67,0,0
1,64,70,48
1,67,70,0
1,59,70,0
1,59,0,48
1,67,0,0
1,64,0,0
1,64,75,48
1,67,75,0
1,59,75,0
1,59,0,48
1,67,0,0
1,64,0,0
1,67,70,48
1,64,70,0
1,59,70,0
1,59,0,48
1,64,0,0
1,67,0,0
1,67,70,48
1,64,70,0
1,59,70,0
1,59,0,48
1,64,0,0
1,67,0,0
1,67,75,48
1,64,75,0
1,59,75,0
1,59,0,48
1,64,0,0
1,67,0,0
1,67,70,48
1,64,70,0
1,59,70,0
1,59,0,48
1,64,0,0
1,67,0,0
1,64,70,48
1,67,70,0
1,59,70,0
1,59,0,48
1,67,0,0
1,64,0,0
1,64,75,48
1,67,75,0
1,59,75,0
1,59,0,48
1,67,0,0
1,64,0,0
1,64,70,48
1,67,70,0
1,59,70,0
1,59,0,48
1,67,0,0
1,64,0,0
1,67,70,48
1,64,70,0
1,59,70,0
1,59,0,48
1,64,0,0
1,67,0,0
1,64,75,48
1,59,75,0
1,67,75,0
1,67,0,48
1,59,0,0
1,64,0,0
1,64,70,48
1,67,70,0
1,59,70,0
1,59,0,48
1,67,0,0
1,64,0,0
1,67,70,48
1,64,70,0
1,59,70,0
1,59,0,48
1,64,0,0
1,67,0,0
1,64,75,48
1,67,75,0
1,59,75,0
1,59,0,48
1,67,0,0
1,64,0,0
1,67,70,48
1,64,70,0
1,59,70,0
1,59,0,48
1,64,0,0
1,67,0,0
1,64,70,48
1,67,70,0
1,59,70,0
1,59,0,48
1,67,0,0
1,64,0,0
1,64,75,48
1,67,75,0
1,59,75,0
1,59,0,48
1,67,0,0
1,64,0,0
1,64,70,48
1,67,70,0
1,59,70,0
1,59,0,48
1,67,0,0
1,64,0,0
1,67,70,48
1,64,70,0
1,59,70,0
1,59,0,48
1,64,0,0
1,67,0,0
1,67,75,48
1,64,75,0
1,59,75,0
1,59,0,48
1,64,0,0
1,67,0,0
1,64,70,48
1,67,70,0
1,59,70,0
1,59,0,48
1,67,0,0
1,64,0,0
1,67,70,48
1,64,70,0
1,59,70,0
1,59,0,48
1,64,0,0
1,67,0,0
1,64,75,48
1,67,75,0
1,59,75,0
1,59,0,48
1,67,0,0
1,64,0,0
1,67,70,48
1,64,70,0
1,59,70,0
1,59,0,48
1,64,0,0
1,67,0,0
1,64,70,48
1,67,70,0
1,59,70,0
1,59,0,48
1,67,0,0
1,64,0,0
1,64,75,48
1,67,75,0
1,59,75,0
1,59,0,48
1,67,0,0
1,64,0,0
1,67,70,48
1,64,70,0
1,59,70,0
1,59,0,48
1,64,0,0
1,67,0,0
1,67,70,48
1,64,70,0
1,59,70,0
1,59,0,48
1,64,0,0
1,67,0,0
1,67,75,48
1,64,75,0
1,59,75,0
1,59,0,48
1,64,0,0
1,67,0,0
1,67,70,48
1,64,70,0
1,59,70,0
1,59,0,48
1,64,0,0
1,67,0,0
1,64,70,48
1,67,70,0
1,59,70,0
1,59,0,48
1,67,0,0
1,64,0,0
1,64,75,48
1,60,75,0
1,69,75,0
1,69,0,48
1,60,0,0
1,64,0,0
1,64,70,48
1,69,70,0
1,60,70,0
1,60,0,48
1,69,0,0
1,64,0,0
1,69,70,48
1,64,70,0
1,60,70,0
1,60,0,48
1,64,0,0
1,69,0,0
1,64,75,48
1,69,75,0
1,60,75,0
1,60,0,48
1,69,0,0
1,64,0,0
1,64,70,48
1,69,70,0
1,60,70,0
1,60,0,48
1,69,0,0
1,64,0,0
1,64,70,48
1,69,70,0
1,60,70,0
1,60,0,48
1,69,0,0
1,64,0,0
1,64,75,48
1,69,75,0
1,60,75,0
1,60,0,48
1,69,0,0
1,64,0,0
1,64,70,48
1,69,70,0
1,60,70,0
1,60,0,48
1,69,0,0
1,64,0,0
1,69,70,48
1,60,70,0
1,64,70,0
1,64,0,48
1,60,0,0
1,69,0,0
1,69,75,48
1,64,75,0
1,60,75,0
1,60,0,48
1,64,0,0
1,69,0,0
1,69,70,48
1,64,70,0
1,60,70,0
1,60,0,48
1,64,0,0
1,69,0,0
1,64,70,48
1,69,70,0
1,60,70,0
1,60,0,48
1,69,0,0
1,64,0,0
1,67,75,48
1,64,75,0
1,59,75,0
1,59,0,48
1,64,0,0
1,67,0,0
1,64,70,48
1,67,70,0
1,59,70,0
1,59,0,48
1,67,0,0
1,64,0,0
1,67,70,48
1,64,70,0
1,59,70,0
1,59,0,48
1,64,0,0
1,67,0,0
1,64,75,48
1,67,75,0
1,59,75,0
1,59,0,48
1,67,0,0
1,64,0,0
1,67,70,48
1,64,70,0
1,59,70,0
1,59,0,48
1,64,0,0
1,67,0,0
1,64,70,48
1,67,70,0
1,59,70,0
1,59,0,48
1,67,0,0
1,64,0,0
1,64,75,48
1,67,75,0
1,59,75,0
1,59,0,48
1,67,0,0
1,64,0,0
1,67,70,48
1,64,70,0
1,59,70,0
1,59,0,48
1,64,0,0
1,67,0,0
1,67,70,48
1,64,70,0
1,59,70,0
1,59,0,48
1,64,0,0
1,67,0,0
1,67,75,48
1,64,75,0
1,59,75,0
1,59,0,48
1,64,0,0
1,67,0,0
1,67,70,48
1,64,70,0
1,59,70,0
1,59,0,48
1,64,0,0
1,67,0,0
1,64,70,48
1,67,70,0
1,59,70,0
1,59,0,48
1,67,0,0
1,64,0,0
1,67,75,48
1,64,75,0
1,59,75,0
1,59,0,48
1,64,0,0
1,67,0,0
1,64,70,48
1,67,70,0
1,59,70,0
1,59,0,48
1,67,0,0
1,64,0,0
1,67,70,48
1,64,70,0
1,59,70,0
1,59,0,48
1,64,0,0
1,67,0,0
1,64,75,48
1,67,75,0
1,59,75,0
1,59,0,48
1,67,0,0
1,64,0,0
1,67,70,48
1,64,70,0
1,59,70,0
1,59,0,48
1,64,0,0
1,67,0,0
1,64,70,48
1,67,70,0
1,59,70,0
1,59,0,48
1,67,0,0
1,64,0,0
1,64,75,48
1,67,75,0
1,59,75,0
1,59,0,48
1,67,0,0
1,64,0,0
1,67,70,48
1,64,70,0
1,59,70,0
1,59,0,48
1,64,0,0
1,67,0,0
1,67,70,48
1,64,70,0
1,59,70,0
1,59,0,48
1,64,0,0
1,67,0,0
1,67,75,48
1,64,75,0
1,59,75,0
1,59,0,48
1,64,0,0
1,67,0,0
1,67,70,48
1,64,70,0
1,59,70,0
1,59,0,48
1,64,0,0
1,67,0,0
1,64,70,48
1,67,70,0
1,59,70,0
1,59,0,48
1,67,0,0
1,64,0,0
1,64,75,48
1,60,75,0
1,69,75,0
1,69,0,48
1,60,0,0
1,64,0,0
1,64,70,48
1,69,70,0
1,60,70,0
1,60,0,48
1,69,0,0
1,64,0,0
1,69,70,48
1,64,70,0
1,60,70,0
1,60,0,48
1,64,0,0
1,69,0,0
1,64,75,48
1,69,75,0
1,60,75,0
1,60,0,48
1,69,0,0
1,64,0,0
1,64,70,48
1,69,70,0
1,60,70,0
1,60,0,48
1,69,0,0
1,64,0,0
1,64,70,48
1,69,70,0
1,60,70,0
1,60,0,48
1,69,0,0
1,64,0,0
1,64,75,48
1,69,75,0
1,60,75,0
1,60,0,48
1,69,0,0
1,64,0,0
1,64,70,48
1,69,70,0
1,60,70,0
1,60,0,48
1,69,0,0
1,64,0,0
1,69,70,48
1,60,70,0
1,64,70,0
1,64,0,48
1,60,0,0
1,69,0,0
1,69,75,48
1,64,75,0
1,60,75,0
1,60,0,48
1,64,0,0
1,69,0,0
1,69,70,48
1,64,70,0
1,60,70,0
1,60,0,48
1,64,0,0
1,69,0,0
1,64,70,48
1,69,70,0
1,60,70,0
1,60,0,48
1,69,0,0
1,64,0,0
1,64,75,48
1,60,75,0
1,69,75,0
1,69,0,48
1,60,0,0
1,64,0,0
1,64,70,48
1,69,70,0
1,60,70,0
1,60,0,48
1,69,0,0
1,64,0,0
1,69,70,48
1,64,70,0
1,60,70,0
1,60,0,48
1,64,0,0
1,69,0,0
1,64,75,48
1,69,75,0
1,60,75,0
1,60,0,48
1,69,0,0
1,64,0,0
1,64,70,48
1,69,70,0
1,60,70,0
1,60,0,48
1,69,0,0
1,64,0,0
1,64,70,48
1,69,70,0
1,60,70,0
1,60,0,48
1,69,0,0
1,64,0,0
1,64,75,48
1,69,75,0
1,60,75,0
1,60,0,48
1,69,0,0
1,64,0,0
1,64,70,48
1,69,70,0
1,60,70,0
1,60,0,48
1,69,0,0
1,64,0,0
1,69,70,48
1,60,70,0
1,64,70,0
1,64,0,48
1,60,0,0
1,69,0,0
1,69,75,48
1,64,75,0
1,60,75,0
1,60,0,48
1,64,0,0
1,69,0,0
1,69,70,48
1,64,70,0
1,60,70,0
1,60,0,48
1,64,0,0
1,69,0,0
1,64,70,48
1,69,70,0
1,60,70,0
1,60,0,48
1,69,0,0
1,64,0,0
1,71,75,48
1,63,75,0
1,66,75,0
1,66,0,48
1,63,0,0
1,71,0,0
1,71,70,48
1,66,70,0
1,63,70,0
1,63,0,48
1,66,0,0
1,71,0,0
1,66,70,48
1,71,70,0
1,63,70,0
1,63,0,48
1,71,0,0
1,66,0,0
1,71,75,48
1,66,75,0
1,63,75,0
1,63,0,48
1,66,0,0
1,71,0,0
1,71,70,48
1,66,70,0
1,63,70,0
1,63,0,48
1,66,0,0
1,71,0,0
1,71,70,48
1,66,70,0
1,63,70,0
1,63,0,48
1,66,0,0
1,71,0,0
1,71,75,48
1,63,75,0
1,66,75,0
1,66,0,48
1,63,0,0
1,71,0,0
1,71,70,48
1,66,70,0
1,63,70,0
1,63,0,48
1,66,0,0
1,71,0,0
1,66,70,48
1,71,70,0
1,63,70,0
1,63,0,48
1,71,0,0
1,66,0,0
1,71,75,48
1,66,75,0
1,63,75,0
1,63,0,48
1,66,0,0
1,71,0,0
1,71,70,48
1,66,70,0
1,63,70,0
1,63,0,48
1,66,0,0
1,71,0,0
1,71,70,48
1,66,70,0
1,63,70,0
1,63,0,48
1,66,0,0
1,71,0,0
1,71,75,48
1,63,75,0
1,66,75,0
1,66,0,48
1,63,0,0
1,71,0,0
1,71,75,48
1,66,75,0
1,63,75,0
1,63,0,48
1,66,0,0
1,71,0,0
1,66,75,48
1,71,75,0
1,63,75,0
1,63,0,48
1,71,0,0
1,66,0,0
1,71,75,48
1,66,75,0
1,63,75,0
1,63,0,48
1,66,0,0
1,71,0,0
1,71,75,48
1,66,75,0
1,63,75,0
1,63,0,48
1,66,0,0
1,71,0,0
1,71,75,48
1,66,75,0
1,63,75,0
1,63,0,48
1,66,0,0
1,71,0,0
1,71,75,48
1,63,75,0
1,66,75,0
1,71,0,48
1,66,0,12
1,63,0,0
1,71,75,36
1,66,75,0
1,63,75,0
1,63,0,60
1,66,0,0
1,71,0,0
1,66,75,36
1,71,75,0
1,63,75,0
1,63,0,60
1,71,0,0
1,66,0,0
1,71,75,36
1,66,75,0
1,63,75,0
1,63,0,72
1,66,0,0
1,71,0,0
1,71,75,24
1,66,75,0
1,63,75,0
1,63,0,84
1,66,0,0
1,71,0,0
1,71,75,12
1,66,75,0
1,63,75,0
1,63,0,84
1,66,0,0
1,71,0,0
1,67,75,12
1,64,75,0
1,59,75,0
1,59,0,48
1,64,0,0
1,67,0,0
1,64,70,48
1,67,70,0
1,59,70,0
1,59,0,48
1,67,0,0
1,64,0,0
1,67,70,48
1,64,70,0
1,59,70,0
1,59,0,48
1,64,0,0
1,67,0,0
1,64,75,48
1,67,75,0
1,59,75,0
1,59,0,48
1,67,0,0
1,64,0,0
1,67,70,48
1,64,70,0
1,59,70,0
1,59,0,48
1,64,0,0
1,67,0,0
1,64,70,48
1,67,70,0
1,59,70,0
1,59,0,48
1,67,0,0
1,64,0,0
1,64,75,48
1,67,75,0
1,59,75,0
1,59,0,48
1,67,0,0
1,64,0,0
1,67,70,48
1,64,70,0
1,59,70,0
1,59,0,48
1,64,0,0
1,67,0,0
1,67,70,48
1,64,70,0
1,59,70,0
1,59,0,48
1,64,0,0
1,67,0,0
1,67,75,48
1,64,75,0
1,59,75,0
1,59,0,48
1,64,0,0
1,67,0,0
1,67,70,48
1,64,70,0
1,59,70,0
1,59,0,48
1,64,0,0
1,67,0,0
1,64,70,48
1,67,70,0
1,59,70,0
1,59,0,48
1,67,0,0
1,64,0,0
1,64,75,48
1,67,75,0
1,59,75,0
1,59,0,48
1,67,0,0
1,64,0,0
1,64,70,48
1,67,70,0
1,59,70,0
1,59,0,48
1,67,0,0
1,64,0,0
1,67,70,48
1,64,70,0
1,59,70,0
1,59,0,48
1,64,0,0
1,67,0,0
1,64,75,48
1,59,75,0
1,67,75,0
1,67,0,48
1,59,0,0
1,64,0,0
1,64,70,48
1,67,70,0
1,59,70,0
1,59,0,48
1,67,0,0
1,64,0,0
1,67,70,48
1,64,70,0
1,59,70,0
1,59,0,48
1,64,0,0
1,67,0,0
1,64,75,48
1,67,75,0
1,59,75,0
1,59,0,48
1,67,0,0
1,64,0,0
1,67,70,48
1,64,70,0
1,59,70,0
1,59,0,48
1,64,0,0
1,67,0,0
1,64,70,48
1,67,70,0
1,59,70,0
1,59,0,48
1,67,0,0
1,64,0,0
1,64,75,48
1,67,75,0
1,59,75,0
1,59,0,48
1,67,0,0
1,64,0,0
1,64,70,48
1,67,70,0
1,59,70,0
1,59,0,48
1,67,0,0
1,64,0,0
1,67,70,48
1,64,70,0
1,59,70,0
1,59,0,48
1,64,0,0
1,67,0,0
1,64,75,48
1,60,75,0
1,69,75,0
1,69,0,48
1,60,0,0
1,64,0,0
1,64,70,48
1,69,70,0
1,60,70,0
1,60,0,48
1,69,0,0
1,64,0,0
1,64,70,48
1,69,70,0
1,60,70,0
1,60,0,48
1,69,0,0
1,64,0,0
1,64,75,48
1,69,75,0
1,60,75,0
1,60,0,48
1,69,0,0
1,64,0,0
1,64,70,48
1,69,70,0
1,60,70,0
1,60,0,48
1,69,0,0
1,64,0,0
1,64,70,48
1,69,70,0
1,60,70,0
1,60,0,48
1,69,0,0
1,64,0,0
1,64,75,48
1,69,75,0
1,60,75,0
1,60,0,48
1,69,0,0
1,64,0,0
1,64,70,48
1,69,70,0
1,60,70,0
1,60,0,48
1,69,0,0
1,64,0,0
1,64,70,48
1,69,70,0
1,60,70,0
1,60,0,48
1,69,0,0
1,64,0,0
1,64,75,48
1,69,75,0
1,60,75,0
1,60,0,48
1,69,0,0
1,64,0,0
1,69,70,48
1,64,70,0
1,60,70,0
1,60,0,48
1,64,0,0
1,69,0,0
1,64,70,48
1,69,70,0
1,60,70,0
1,60,0,48
1,69,0,0
1,64,0,0
1,72,75,48
1,67,75,0
1,64,75,0
1,64,0,48
1,67,0,0
1,72,0,0
1,72,75,48
1,67,75,0
1,64,75,0
1,64,0,48
1,67,0,0
1,72,0,0
1,72,75,48
1,67,75,0
1,64,75,0
1,64,0,48
1,67,0,0
1,72,0,0
1,67,75,48
1,72,75,0
1,64,75,0
1,64,0,48
1,72,0,0
1,67,0,0
1,67,75,48
1,72,75,0
1,64,75,0
1,64,0,48
1,72,0,0
1,67,0,0
1,67,75,48
1,72,75,0
1,64,75,0
1,64,0,48
1,72,0,0
1,67,0,0
1,72,75,48
1,67,75,0
1,64,75,0
1,64,0,48
1,67,0,0
1,72,0,0
1,67,75,48
1,72,75,0
1,64,75,0
1,64,0,48
1,72,0,0
1,67,0,0
1,72,75,48
1,67,75,0
1,64,75,0
1,64,0,48
1,67,0,0
1,72,0,0
1,72,75,48
1,67,75,0
1,64,75,0
1,64,0,48
1,67,0,0
1,72,0,0
1,72,75,48
1,67,75,0
1,64,75,0
1,64,0,48
