track,note,velocity,time
1,38,84,3840
1,38,0,320
1,38,84,64
1,38,0,280
1,38,84,104
1,38,0,309
1,38,84,75
1,38,0,300
1,38,84,84
1,38,0,280
1,38,84,104
1,38,0,320
1,33,84,64
1,33,0,289
1,31,84,96
1,31,0,299
1,38,84,84
1,38,0,320
1,38,84,64
1,38,0,280
1,38,84,104
1,38,0,309
1,38,84,75
1,38,0,300
1,38,84,84
1,38,0,280
1,38,84,104
1,38,0,321
1,33,84,63
1,33,0,289
1,31,84,96
1,31,0,299
1,38,84,84
1,38,0,320
1,38,84,64
1,38,0,280
1,38,84,104
1,38,0,309
1,38,84,75
1,38,0,300
1,38,84,84
1,38,0,280
1,38,84,104
1,38,0,320
1,33,84,64
1,33,0,289
1,31,84,96
1,31,0,299
1,38,84,84
1,38,0,320
1,38,84,64
1,38,0,280
1,38,84,104
1,38,0,309
1,38,84,75
1,38,0,300
1,38,84,85
1,38,0,279
1,38,84,104
1,38,0,320
1,33,84,64
1,33,0,289
1,31,84,96
1,31,0,299
1,38,84,84
1,38,0,320
1,38,84,64
1,38,0,280
1,38,84,104
1,38,0,309
1,38,84,75
1,38,0,300
1,31,84,84
1,31,0,280
1,31,84,105
1,31,0,319
1,31,84,64
1,31,0,289
1,31,84,96
1,31,0,299
1,38,84,88
1,38,0,316
1,38,84,65
1,38,0,279
1,38,84,104
1,38,0,309
1,38,84,75
1,38,0,300
1,33,84,84
1,33,0,280
1,33,84,104
1,33,0,320
1,31,84,64
1,31,0,289
1,31,84,96
1,31,0,296
1,38,84,87
1,38,0,320
1,38,84,65
1,38,0,279
1,38,84,104
1,38,0,309
1,38,84,75
1,38,0,300
1,38,84,88
1,38,0,276
1,38,84,105
1,38,0,319
1,33,84,64
1,33,0,289
1,31,84,95
1,31,0,300
1,38,84,84
1,38,0,320
1,38,84,65
1,38,0,279
1,38,84,104
1,38,0,309
1,38,84,76
1,38,0,299
1,38,84,88
1,38,0,276
1,38,84,104
1,38,0,320
1,33,84,64
1,33,0,289
1,31,84,96
1,31,0,299
1,38,84,84
1,38,0,320
1,38,84,65
1,38,0,279
1,38,84,104
1,38,0,309
1,38,84,75
1,38,0,300
1,38,84,88
1,38,0,276
1,38,84,104
1,38,0,320
1,33,84,64
1,33,0,289
1,31,84,96
1,31,0,299
1,38,84,84
1,38,0,320
1,38,84,64
1,38,0,280
1,38,84,104
1,38,0,309
1,38,84,75
1,38,0,300
1,38,84,88
1,38,0,276
1,38,84,105
1,38,0,319
1,33,84,64
1,33,0,289
1,31,84,96
1,31,0,299
1,38,84,84
1,38,0,320
1,38,84,64
1,38,0,280
1,38,84,104
1,38,0,153
1,38,70,40
1,38,0,79
1,38,84,112
1,38,0,153
1,38,78,40
1,38,0,68
1,31,84,124
1,31,0,279
1,31,84,108
1,31,0,316
1,31,84,64
1,31,0,292
1,31,84,92
1,31,0,300
1,38,84,85
1,38,0,319
1,38,84,65
1,38,0,279
1,38,84,104
1,38,0,309
1,38,84,75
1,38,0,300
1,33,84,84
1,33,0,280
1,33,84,104
1,33,0,320
1,31,84,64
1,31,0,289
1,31,84,96
1,31,0,299
1,38,84,84
1,38,0,320
1,38,84,65
1,38,0,279
1,38,84,104
1,38,0,120
1,33,84,73
1,33,0,99
1,35,84,93
1,35,0,119
1,37,84,76
1,37,0,96
1,38,84,92
1,38,0,280
1,38,84,104
1,38,0,320
1,33,84,64
1,33,0,289
1,31,84,95
1,31,0,300
1,38,84,88
1,38,0,316
1,38,84,64
1,38,0,280
1,38,84,104
1,38,0,120
1,33,70,76
1,33,0,136
1,35,71,56
1,35,0,136
1,37,72,56
1,37,0,156
1,38,84,32
1,38,0,280
1,38,84,104
1,38,0,320
1,33,84,64
1,33,0,289
1,31,84,96
1,31,0,299
1,38,84,85
1,38,0,319
1,33,80,60
1,33,0,320
1,38,84,68
1,38,0,120
1,38,84,68
1,38,0,160
1,40,71,36
1,40,0,140
1,42,72,53
1,42,0,159
1,43,84,36
1,43,0,276
1,38,84,105
1,38,0,319
1,43,77,64
1,43,0,172
1,43,73,21
1,43,0,119
1,38,60,72
1,38,0,128
1,38,58,1
1,38,0,43
1,43,64,20
1,43,0,100
1,38,84,96
1,38,0,276
1,33,84,104
1,33,0,320
1,38,77,64
1,38,0,172
1,38,73,20
1,38,0,120
1,33,75,72
1,33,0,152
1,38,76,41
1,38,0,99
1,33,84,92
1,33,0,280
1,33,84,104
1,33,0,320
1,31,74,65
1,31,0,288
1,31,74,95
1,31,0,300
1,38,74,84
1,38,0,320
1,33,74,65
1,33,0,279
1,38,74,104
1,38,0,309
1,33,74,76
1,33,0,307
1,38,84,76
1,38,0,280
1,38,84,105
1,38,0,319
1,33,84,64
1,33,0,289
1,31,84,96
1,31,0,299
1,38,84,84
1,38,0,320
1,38,84,65
1,38,0,279
1,38,84,104
1,38,0,309
1,38,84,75
1,38,0,300
1,38,84,84
1,38,0,280
1,38,84,105
1,38,0,319
1,33,84,64
1,33,0,289
1,31,84,96
1,31,0,299
1,38,84,85
1,38,0,319
1,38,84,65
1,38,0,279
1,38,84,104
1,38,0,309
1,38,84,75
1,38,0,300
1,38,84,84
1,38,0,280
1,38,84,105
1,38,0,319
1,33,84,64
1,33,0,289
1,31,84,95
1,31,0,300
1,38,84,84
1,38,0,320
1,38,84,64
1,38,0,280
1,38,84,104
1,38,0,309
1,38,84,75
1,38,0,300
1,38,84,85
1,38,0,279
1,38,84,104
1,38,0,320
1,33,84,64
1,33,0,289
1,31,84,99
1,31,0,296
1,38,84,85
1,38,0,319
1,38,84,64
1,38,0,280
1,38,84,104
1,38,0,160
1,38,70,33
1,38,0,79
1,38,84,112
1,38,0,100
1,38,45,93
1,38,0,68
1,31,84,123
1,31,0,280
1,31,84,108
1,31,0,316
1,31,84,64
1,31,0,289
1,31,84,96
1,31,0,300
1,38,84,84
1,38,0,319
1,38,84,65
1,38,0,279
1,38,84,104
1,38,0,309
1,38,84,75
1,38,0,300
1,33,84,84
1,33,0,280
1,33,84,104
1,33,0,320
1,31,84,64
1,31,0,289
1,31,84,96
1,31,0,299
1,38,84,84
1,38,0,320
1,38,84,64
1,38,0,280
1,38,84,104
1,38,0,120
1,38,84,72
1,38,0,100
1,40,84,93
1,40,0,119
1,42,84,73
1,42,0,99
1,43,84,93
1,43,0,279
1,43,84,108
1,43,0,316
1,43,77,64
1,43,0,172
1,43,73,20
1,43,0,120
1,38,70,72
1,38,0,128
1,38,73,1
1,38,0,43
1,43,64,21
1,43,0,99
1,38,84,93
1,38,0,279
1,38,84,105
1,38,0,319
1,38,77,64
1,38,0,172
1,38,73,20
1,38,0,120
1,38,75,72
1,38,0,152
1,38,76,41
1,38,0,99
1,33,84,92
1,33,0,280
1,33,84,104
1,33,0,320
1,31,84,64
1,31,0,289
1,31,84,96
1,31,0,299
1,38,84,84
1,38,0,320
1,38,84,65
1,38,0,283
1,38,84,104
1,38,0,596
2,54,20,25345
2,54,0,59
2,62,30,132
2,62,0,320
2,59,32,1
2,59,0,59
2,53,40,124
2,53,0,64
2,54,30,1
2,54,0,131
2,62,10,1
2,62,0,63
2,57,30,1
2,57,0,79
2,59,50,40
2,59,0,192
2,57,75,1
2,57,0,191
2,53,30,12
2,53,0,65
2,54,30,3
2,54,0,65
2,62,20,1468
2,62,0,19
2,62,30,172
2,62,0,320
2,59,32,1
2,59,0,59
2,53,40,124
2,53,0,64
2,54,30,1
2,54,0,131
2,62,10,1
2,62,0,63
2,57,30,1
2,57,0,79
2,59,50,40
2,59,0,192
2,57,75,1
2,57,0,191
2,53,30,12
2,53,0,65
2,54,30,3
2,54,0,65
2,54,20,1468
2,54,0,59
2,62,30,132
2,62,0,320
2,59,32,1
2,59,0,59
2,53,40,124
2,53,0,64
2,54,30,1
2,54,0,131
2,62,10,1
2,62,0,63
2,57,30,1
2,57,0,79
2,59,50,40
2,59,0,192
2,57,75,1
2,57,0,191
2,53,30,12
2,53,0,65
2,54,30,3
2,54,0,65
2,53,30,1395
2,53,0,64
2,54,40,1
2,54,0,119
2,62,20,81
2,62,0,319
2,53,30,8640
2,53,0,65
2,54,20,3
2,54,0,56
2,62,30,132
2,62,0,320
2,59,32,1
2,59,0,59
2,53,40,124
2,53,0,64
2,54,30,0
2,54,0,132
2,62,10,1
2,62,0,63
2,59,10,1
2,59,0,99
2,57,10,48
2,57,0,20
2,62,2,32
2,62,0,176
2,59,30,2252
2,59,0,80
2,53,52,100
2,53,0,72
2,54,60,12
2,54,0,61
2,57,40,75
2,57,0,40
2,59,40,4
2,59,0,84
2,57,40,109
2,57,0,108
2,59,40,84
2,59,0,75
2,59,14,316
2,59,0,256
2,59,14,60
2,59,0,65
2,59,14,0
2,59,0,59
2,59,14,69
2,59,0,139
2,59,14,52
2,59,0,60
2,59,14,8
2,59,0,96
2,59,14,96
2,59,0,236
2,57,14,337
2,57,0,259
2,57,14,60
2,57,0,65
2,57,14,3
2,57,0,56
2,57,14,69
2,57,0,139
2,57,14,52
2,57,0,61
2,54,14,4
2,54,0,99
2,57,14,93
2,57,0,239
2,59,32,1424
2,59,0,152
2,56,32,40
2,56,0,60
2,57,32,5
2,57,0,100
2,57,32,27
2,57,0,64
2,59,32,4
2,59,0,121
2,56,32,4
2,56,0,64
2,57,32,3
2,57,0,100
2,57,32,24
2,57,0,52
2,59,32,13
2,59,0,124
2,56,32,3
2,56,0,65
2,57,32,3
2,57,0,112
2,57,32,12
2,59,32,65
2,57,0,3
2,59,0,121
2,56,32,3
2,56,0,65
2,57,32,3
2,57,0,96
2,57,32,28
2,57,0,60
2,59,32,8
2,59,0,36
2,62,30,1881
2,62,0,319
2,59,32,1
2,59,0,59
2,53,40,124
2,53,0,64
2,54,30,1
2,54,0,131
2,62,10,1
2,62,0,63
2,57,30,1
2,57,0,99
2,59,40,24
2,57,75,168
2,59,0,12
2,57,0,108
2,62,20,1705
2,62,0,19
2,62,30,172
2,62,0,320
2,59,32,1
2,59,0,59
2,53,40,124
2,53,0,64
2,54,30,1
2,54,0,131
2,59,10,0
2,59,0,64
2,59,30,1
2,59,0,79
2,59,50,20
2,59,0,192
2,57,75,1
2,57,0,191
2,54,20,1633
2,54,0,59
2,62,30,132
2,62,0,320
2,59,32,1
2,59,0,59
2,53,40,124
2,53,0,64
2,54,30,1
2,54,0,131
2,62,10,0
2,62,0,64
2,57,30,1
2,57,0,79
2,59,50,20
2,59,0,192
2,57,75,1
2,57,0,191
2,53,30,1560
2,53,0,64
2,54,40,1
2,54,0,119
2,62,10,81
2,62,0,319
2,59,12,1
2,59,0,59
2,53,20,124
2,53,0,64
2,54,10,1
2,54,0,131
2,62,1,1
2,62,0,63
2,57,10,1
2,57,0,79
2,59,20,20
2,59,0,192
2,57,20,0
2,57,0,192
3,66,90,42040
3,69,90,9
3,74,90,4
3,66,0,167
3,69,0,8
3,74,0,5
3,69,94,8
3,74,94,3
3,78,94,4
3,69,0,65
3,74,0,7
3,78,0,4
3,69,94,109
3,74,94,3
3,78,94,8
3,69,0,288
3,74,0,5
3,78,0,7
3,69,80,8
3,74,80,4
3,78,80,4
3,74,0,57
3,69,0,0
3,69,94,0
3,78,0,4
3,74,94,0
3,78,94,11
3,74,0,48
3,69,0,1
3,78,0,15
3,69,94,112
3,73,94,4
3,76,94,8
3,73,0,304
3,69,0,1
3,76,0,3
3,67,94,65
3,71,94,4
3,74,94,11
3,67,0,364
3,66,80,0
3,74,0,1
3,69,81,0
3,71,0,4
3,74,75,11
3,66,0,36
3,74,0,13
3,69,0,0
3,66,73,132
3,69,72,15
3,74,82,1
3,66,0,236
3,74,0,3
3,69,0,12
3,66,90,49
3,69,73,7
3,74,84,1
3,66,0,43
3,74,0,9
3,69,0,8
3,66,88,191
3,69,75,0
3,74,81,4
3,74,0,281
3,69,0,0
3,66,0,7
3,66,88,20
3,69,78,4
3,74,82,4
3,66,0,248
3,66,90,0
3,69,0,9
3,69,90,0
3,74,0,4
3,74,90,0
3,66,0,167
3,69,0,8
3,74,0,8
3,69,94,4
3,74,94,4
3,78,94,4
3,69,0,65
3,74,0,7
3,78,0,4
3,69,94,109
3,74,94,3
3,78,94,8
3,69,0,288
3,74,0,5
3,78,0,7
3,69,80,9
3,74,80,0
3,78,80,4
3,69,0,60
3,69,94,0
3,74,0,3
3,78,0,1
3,74,94,3
3,78,94,8
3,74,0,48
3,69,0,1
3,78,0,15
3,69,94,112
3,73,94,4
3,76,94,8
3,73,0,304
3,69,0,1
3,76,0,4
3,71,94,64
3,74,84,4
3,79,80,11
3,71,0,264
3,74,0,8
3,79,0,8
3,69,89,92
3,74,89,0
3,78,80,9
3,74,0,671
3,78,0,5
3,78,103,91
3,74,92,117
3,78,0,183
3,74,0,12
3,81,100,1
3,69,0,51
3,81,0,136
3,78,100,1
3,78,0,119
3,67,82,140
3,71,82,0
3,74,82,5
3,71,0,56
3,67,0,8
3,74,0,12
3,67,98,108
3,71,98,3
3,74,80,1
3,67,0,223
3,71,0,1
3,74,0,16
3,67,90,75
3,71,94,4
3,74,80,4
3,71,0,81
3,67,0,11
3,74,0,8
3,74,94,85
3,67,100,0
3,71,98,3
3,79,84,1
3,71,0,132
3,67,0,8
3,74,0,3
3,79,0,4
3,67,92,40
3,79,94,1
3,71,94,4
3,74,94,7
3,67,0,24
3,71,0,5
3,79,0,8
3,74,0,15
3,67,92,4
3,71,94,1
3,76,94,44
3,76,0,36
3,71,0,4
3,67,0,8
3,67,96,96
3,71,102,3
3,74,94,12
3,67,0,152
3,71,0,20
3,76,94,8
3,74,0,13
3,76,0,87
3,62,82,92
3,66,82,1
3,69,82,4
3,66,0,56
3,62,0,8
3,69,0,12
3,62,98,108
3,66,98,3
3,69,80,1
3,66,0,223
3,62,0,0
3,69,0,17
3,62,90,75
3,66,94,4
3,69,80,4
3,66,0,81
3,62,0,11
3,69,0,8
3,69,94,85
3,62,100,0
3,66,98,3
3,74,94,4
3,66,0,129
3,69,0,8
3,62,0,0
3,74,0,7
3,62,92,40
3,74,94,1
3,66,94,4
3,69,94,3
3,62,0,28
3,66,0,5
3,74,0,8
3,69,0,8
3,62,92,8
3,66,94,3
3,71,94,4
3,71,0,36
3,66,0,45
3,62,0,8
3,62,96,96
3,66,102,3
3,69,94,12
3,62,0,152
3,66,0,20
3,69,0,21
3,69,94,299
3,73,97,4
3,76,92,4
3,73,0,85
3,76,0,7
3,69,0,4
3,69,97,84
3,73,94,4
3,78,84,4
3,69,0,144
3,73,0,1
3,78,0,7
3,69,88,40
3,73,84,1
3,76,92,4
3,69,0,67
3,73,0,5
3,76,0,4
3,67,94,300
3,71,97,3
3,74,92,4
3,71,0,85
3,74,0,7
3,67,0,5
3,67,97,84
3,71,94,4
3,76,84,3
3,67,0,145
3,71,0,3
3,76,0,4
3,67,88,40
3,71,84,1
3,74,92,3
3,67,0,49
3,71,0,3
3,74,0,1
3,67,88,8
3,71,84,3
3,74,92,1
3,67,0,68
3,71,0,4
3,74,0,4
3,66,87,135
3,69,78,0
3,74,78,1
3,69,0,75
3,66,0,0
3,74,0,1
3,66,70,32
3,69,67,3
3,74,82,0
3,66,0,40
3,74,0,1
3,69,0,0
3,66,80,27
3,69,71,0
3,74,87,1
3,66,0,64
3,74,0,11
3,69,0,8
3,66,93,40
3,69,84,4
3,74,90,0
3,66,0,81
3,74,0,3
3,69,0,9
3,66,87,91
3,69,79,0
3,74,87,1
3,74,0,64
3,69,0,0
3,66,0,3
3,66,70,108
3,69,70,9
3,74,70,3
3,66,0,21
3,74,0,11
3,69,0,0
3,66,84,36
3,69,74,0
3,74,82,0
3,74,0,65
3,66,0,0
3,69,0,11
3,66,70,41
3,69,65,3
3,74,74,1
3,69,0,40
3,66,0,0
3,74,0,4
3,69,71,12
3,66,84,12
3,74,71,3
3,66,0,37
3,69,0,16
3,74,0,15
3,66,74,52
3,69,75,1
3,74,76,4
3,66,0,235
3,69,0,1
3,74,0,3
3,66,70,12
3,69,70,5
