track,note,velocity,time
0,53,82,2206
0,58,82,0
0,62,82,0
0,35,108,32
0,42,79,0
0,49,61,0
0,34,105,2
0,62,96,2
0,58,85,2
0,58,97,0
0,62,91,0
0,50,80,2
0,53,82,0
0,53,97,0
0,58,77,0
0,62,83,0
0,50,96,2
0,50,72,0
0,53,74,0
0,46,97,2
0,34,99,0
0,35,96,0
0,42,49,0
0,62,88,0
0,58,79,2
0,58,88,0
0,62,86,0
0,50,73,0
0,53,76,0
0,53,88,0
0,58,71,0
0,62,78,0
0,50,85,0
0,50,65,0
0,53,68,0
0,46,84,2
0,54,76,16
0,38,97,2
0,42,79,0
0,62,67,4
0,58,67,2
0,53,67,2
0,50,67,2
0,46,67,2
0,55,82,4
0,59,82,0
0,62,82,0
0,35,108,32
0,42,50,0
0,57,61,0
0,31,99,2
0,62,90,2
0,59,79,2
0,59,89,0
0,62,88,0
0,50,77,2
0,55,79,0
0,55,91,0
0,59,71,0
0,62,80,0
0,50,91,2
0,50,69,0
0,55,71,0
0,43,92,2
0,42,79,172
0,35,96,0
0,46,61,0
0,31,99,0
0,62,85,0
0,59,78,2
0,59,87,0
0,62,85,0
0,50,73,0
0,55,76,0
0,55,87,0
0,59,70,0
0,62,77,0
0,50,84,0
0,50,65,0
0,55,68,0
0,43,87,2
0,54,71,2
0,31,103,0
0,38,97,0
0,42,80,0
0,62,90,0
0,59,79,2
0,59,89,0
0,62,88,0
0,50,76,0
0,55,78,0
0,55,90,0
0,59,71,0
0,62,80,0
0,50,90,0
0,50,68,0
0,55,70,0
0,43,91,2
0,35,96,0
0,46,54,0
0,31,99,0
0,62,88,0
0,59,77,2
0,59,85,0
0,62,86,0
0,50,73,0
0,55,76,0
0,55,87,0
0,59,69,0
0,62,78,0
0,50,85,0
0,50,65,0
0,55,68,0
0,43,87,2
0,53,82,4
0,58,82,0
0,62,82,0
0,34,105,0
0,35,108,0
0,42,74,0
0,49,64,0
0,62,97,0
0,58,85,2
0,58,98,0
0,62,92,0
0,50,81,0
0,53,82,0
0,53,97,0
0,58,77,0
0,62,84,0
0,50,97,0
0,50,73,0
0,53,74,0
0,46,98,2
0,35,96,0
0,42,47,0
0,34,104,0
0,62,87,0
0,58,79,2
0,58,88,0
0,62,85,0
0,50,73,0
0,53,75,0
0,53,85,0
0,58,71,0
0,62,77,0
0,50,84,0
0,50,65,0
0,53,67,0
0,46,85,2
0,38,97,10
0,42,75,0
0,62,67,4
0,54,77,0
0,58,67,0
0,53,67,2
0,50,67,2
0,46,67,2
0,55,82,4
0,59,82,0
0,62,82,0
0,35,108,32
0,42,66,0
0,57,59,0
0,62,92,4
0,31,99,2
0,59,81,0
0,59,91,0
0,62,89,0
0,50,76,2
0,55,79,0
0,55,91,0
0,59,73,0
0,62,81,0
0,50,90,2
0,50,68,0
0,55,71,0
0,43,90,2
0,42,79,172
0,35,96,0
0,46,58,0
0,62,87,0
0,31,99,2
0,59,78,0
0,59,87,0
0,62,85,0
0,50,72,0
0,55,75,0
0,55,85,0
0,59,70,0
0,62,77,0
0,50,83,0
0,50,64,0
0,55,67,0
0,43,84,2
0,38,97,0
0,42,80,0
0,54,75,0
0,31,103,0
0,62,92,0
0,59,82,2
0,59,92,0
0,62,89,0
0,50,76,0
0,55,79,0
0,55,91,0
0,59,74,0
0,62,81,0
0,50,90,0
0,50,68,0
0,55,71,0
0,43,91,2
0,35,96,0
0,46,59,0
0,31,99,0
0,62,87,0
0,59,79,2
0,59,88,0
0,62,85,0
0,50,73,0
0,55,75,0
0,55,85,0
0,59,71,0
0,62,77,0
0,50,84,0
0,50,65,0
0,55,67,0
0,43,87,2
0,53,82,4
0,58,82,0
0,62,82,0
0,35,108,0
0,42,74,0
0,49,65,0
0,34,105,0
0,62,97,0
0,58,85,2
0,58,98,0
0,62,92,0
0,50,80,0
0,53,82,0
0,53,97,0
0,58,77,0
0,62,84,0
0,50,96,0
0,50,72,0
0,53,74,0
0,46,98,2
0,35,96,0
0,42,61,0
0,34,99,0
0,62,88,0
0,58,79,2
0,58,89,0
0,62,86,0
0,50,73,0
0,53,75,0
0,53,85,0
0,58,71,0
0,62,78,0
0,50,85,0
0,50,65,0
0,53,67,0
0,46,85,2
0,38,97,16
0,42,78,0
0,62,67,4
0,54,75,2
0,58,67,0
0,53,67,2
0,50,67,2
0,46,67,2
0,55,82,4
0,59,82,0
0,62,82,0
0,31,99,22
0,35,108,0
0,42,69,0
0,57,59,0
0,62,91,4
0,59,82,2
0,59,92,0
0,62,88,0
0,50,76,2
0,55,79,0
0,55,91,0
0,59,74,0
0,62,80,0
0,50,90,2
0,50,68,0
0,55,71,0
0,43,90,2
0,42,74,0
0,62,67,0
0,59,67,2
0,55,67,0
0,50,67,2
0,43,67,2
0,57,82,4
0,60,82,0
0,65,82,0
0,35,108,22
0,42,63,0
0,49,65,0
0,65,88,4
0,41,99,2
0,57,78,0
0,57,87,0
0,65,86,0
0,48,73,2
0,53,74,0
0,53,84,0
0,57,70,0
0,65,78,0
0,48,85,2
0,48,65,0
0,53,66,0
0,45,85,2
0,38,97,0
0,42,74,0
0,65,67,0
0,54,75,0
0,57,67,2
0,53,67,0
0,48,67,0
0,45,67,2
0,55,82,4
0,58,82,0
0,63,82,0
0,35,108,32
0,39,99,0
0,42,69,0
0,57,60,0
0,63,87,4
0,58,78,2
0,58,87,0
0,63,85,0
0,51,73,2
0,55,76,0
0,55,87,0
0,58,70,0
0,63,77,0
0,51,85,2
0,51,65,0
0,55,68,0
0,46,88,2
0,42,80,0
0,63,67,0
0,58,67,2
0,55,67,0
0,51,67,0
0,46,67,2
0,35,96,50
0,42,64,0
0,39,99,2
0,63,87,2
0,58,79,2
0,58,88,0
0,63,85,0
0,51,73,2
0,55,75,0
0,55,85,0
0,58,71,0
0,63,77,0
0,51,85,2
0,51,65,0
0,55,67,0
0,46,87,2
0,38,97,0
0,42,81,0
0,63,67,0
0,63,85,0
0,54,75,0
0,58,79,0
0,58,67,0
0,51,73,0
0,55,75,0
0,55,67,0
0,63,77,0
0,58,71,0
0,51,67,0
0,51,65,0
0,55,67,0
0,46,67,2
0,52,82,4
0,55,82,0
0,60,82,0
0,35,96,0
0,42,71,0
0,36,104,0
0,64,83,0
0,60,78,0
0,55,75,0
0,60,87,0
0,48,74,0
0,55,85,0
0,60,70,0
0,55,67,0
0,48,87,2
0,48,66,0
0,43,88,2
0,55,82,4
0,58,82,0
0,63,82,0
0,35,108,0
0,42,75,0
0,39,105,0
0,63,96,0
0,58,84,2
0,58,96,0
0,63,91,0
0,51,79,0
0,55,81,0
0,55,94,0
0,58,76,0
0,63,83,0
0,51,93,0
0,51,71,0
0,55,73,0
0,46,96,2
0,52,82,4
0,55,82,0
0,60,82,0
0,38,61,6
0,43,87,0
0,36,103,0
0,38,97,0
0,46,63,0
0,64,91,0
0,54,77,2
0,55,78,0
0,60,82,0
0,60,92,0
0,48,77,0
0,55,90,0
0,55,70,0
0,60,74,0
0,48,91,0
0,48,69,0
0,43,91,2
0,55,82,4
0,60,82,0
0,64,82,0
0,35,108,6
0,42,76,0
0,49,69,0
0,36,105,4
0,55,82,0
0,60,82,0
0,64,92,0
0,55,74,2
0,60,89,0
0,60,74,0
0,55,89,2
0,48,89,2
0,42,47,0
0,64,79,0
0,55,85,2
0,60,82,0
0,60,82,0
0,55,79,0
0,55,77,0
0,60,74,0
0,48,80,2
0,38,97,0
0,42,75,0
0,64,57,2
0,60,58,2
0,55,57,2
0,57,82,0
0,48,57,2
0,57,74,0
0,42,63,106
0,36,99,0
0,55,82,0
0,55,74,0
0,64,83,0
0,60,80,2
0,55,79,2
0,48,79,2
0,35,89,22
0,35,108,0
0,36,105,0
0,42,81,0
0,64,88,0
0,60,85,2
0,55,85,0
0,48,87,2
0,35,96,0
0,42,61,0
0,55,82,0
0,60,82,0
0,64,83,0
0,55,74,2
0,60,80,0
0,60,74,0
0,55,79,0
0,48,80,2
0,38,97,0
0,42,74,0
0,57,81,2
0,54,77,2
0,57,73,0
0,64,60,0
0,60,57,2
0,55,57,2
0,48,57,2
0,42,53,0
0,36,104,4
0,64,84,0
0,55,82,2
0,60,85,0
0,60,79,0
0,55,78,2
0,55,74,0
0,60,77,0
0,48,79,2
0,35,108,0
0,42,75,0
0,36,105,0
0,64,92,0
0,60,89,2
0,55,89,0
0,48,89,2
0,35,96,0
0,46,59,0
0,55,82,0
0,60,81,0
0,64,83,0
0,55,74,2
0,60,79,0
0,60,73,0
0,55,80,0
0,48,82,2
0,38,97,0
0,42,81,0
0,57,82,4
0,64,59,0
0,57,74,2
0,60,57,0
0,55,57,2
0,48,58,2
0,42,57,0
0,36,99,2
0,55,84,2
0,60,85,0
0,64,83,0
0,55,76,2
0,60,79,0
0,60,77,0
0,55,78,2
0,48,80,2
0,35,89,28
0,35,108,0
0,42,79,0
0,36,105,0
0,64,88,0
0,60,87,2
0,55,85,0
0,48,87,2
0,38,86,76
0,35,96,0
0,42,54,0
0,55,82,0
0,64,83,0
0,55,74,2
0,60,82,0
0,55,79,0
0,48,80,2
0,38,93,0
0,42,74,0
0,54,76,2
0,43,103,2
0,57,85,0
0,64,60,0
0,57,77,2
0,60,58,0
0,55,57,2
0,48,57,2
0,38,91,0
0,42,71,0
0,60,82,2
0,60,74,2
0,64,83,0
0,60,82,2
0,55,79,2
0,48,80,2
0,38,88,76
0,55,82,4
0,60,82,0
0,64,82,0
0,35,108,0
0,42,74,0
0,49,65,0
0,69,118,0
0,36,105,0
0,55,84,0
0,60,82,0
0,64,92,0
0,55,76,0
0,60,74,0
0,60,89,2
0,55,89,0
0,48,89,2
0,42,59,0
0,55,75,0
0,60,76,0
0,64,79,0
0,55,67,0
0,60,68,0
0,72,105,0
0,60,82,2
0,55,79,0
0,48,80,2
0,38,97,0
0,42,75,0
0,57,77,2
0,72,111,0
0,57,69,2
0,64,57,0
0,60,58,2
0,55,57,2
0,48,57,2
0,42,63,0
0,36,99,2
0,55,79,0
0,60,77,0
0,55,71,2
0,60,69,0
0,64,83,0
0,72,112,0
0,60,80,2
0,55,79,2
0,48,79,2
0,35,108,0
0,42,81,0
0,36,105,0
0,64,88,0
0,60,85,2
0,55,85,0
0,48,87,2
0,35,96,0
0,42,54,0
0,55,76,0
0,60,75,0
0,64,83,0
0,55,68,0
0,60,67,0
0,74,109,0
0,60,80,2
0,55,79,0
0,48,80,2
0,54,77,0
0,38,97,2
0,42,77,0
0,72,111,0
0,57,77,4
0,64,60,0
0,57,69,2
0,60,57,0
0,55,57,2
0,48,57,2
0,74,108,0
0,42,54,0
0,36,99,4
0,55,76,0
0,60,79,0
0,64,84,0
0,55,68,2
0,60,79,0
0,60,71,0
0,55,78,2
0,48,79,2
0,35,108,0
0,42,74,0
0,76,118,0
0,36,105,0
0,64,92,0
0,60,89,2
0,55,89,0
0,48,89,2
0,42,48,0
0,55,77,0
0,60,73,0
0,64,83,0
0,55,69,2
0,60,79,0
0,60,65,0
0,55,80,0
0,48,82,2
0,38,97,0
0,42,75,0
0,57,77,4
0,64,59,0
0,57,69,2
0,60,57,0
0,55,57,2
0,48,58,2
0,36,99,0
0,42,59,0
0,55,75,4
0,60,79,0
0,64,83,0
0,55,67,2
0,60,79,0
0,60,71,0
0,55,78,2
0,48,80,2
0,35,89,40
0,35,108,0
0,42,79,0
0,64,88,0
0,36,105,2
0,60,87,0
0,55,85,0
0,48,87,2
0,35,96,0
0,42,61,0
0,55,75,0
0,64,83,0
0,55,67,2
0,60,82,0
0,55,79,0
0,48,80,2
0,54,75,0
0,38,97,0
0,42,77,0
0,57,80,4
0,64,60,0
0,31,103,2
0,57,72,0
0,60,58,0
0,55,57,2
0,48,57,2
0,34,99,0
0,38,89,0
0,46,60,0
0,55,71,2
0,74,108,0
0,55,63,2
0,64,83,0
0,60,82,2
0,55,79,2
0,48,80,2
0,38,86,52
0,55,82,4
0,60,82,0
0,64,82,0
0,35,108,0
0,42,72,0
0,60,76,0
0,36,105,0
0,64,92,0
0,60,68,0
0,60,89,2
0,55,89,0
0,48,89,2
0,42,64,0
0,60,77,0
0,64,79,0
0,76,108,0
0,60,82,2
0,60,69,0
0,55,79,0
0,48,80,2
0,38,97,6
0,42,78,0
0,74,113,0
0,57,80,4
0,64,57,0
0,57,72,2
0,60,58,0
0,55,57,2
0,48,57,2
0,76,109,0
0,42,54,0
0,36,99,2
0,55,75,0
0,55,67,2
0,60,75,0
0,64,83,0
0,60,80,2
0,60,67,0
0,55,79,2
0,48,79,2
0,74,115,6
0,35,108,0
0,36,105,0
0,42,75,0
0,64,88,0
0,60,85,2
0,55,85,0
0,48,87,2
0,35,96,0
0,42,61,0
0,55,77,0
0,64,83,0
0,55,69,2
0,60,80,0
0,55,79,0
0,48,80,2
0,72,115,0
0,38,97,0
0,42,74,0
0,54,76,0
0,57,77,4
0,64,60,0
0,57,69,2
0,60,57,0
0,55,57,2
0,48,57,2
0,36,99,0
0,42,49,0
0,72,106,0
0,64,84,4
0,55,75,2
0,60,79,0
0,60,79,0
0,55,78,2
0,55,67,0
0,60,71,0
0,48,79,2
0,35,108,0
0,42,74,0
0,74,116,0
0,36,105,0
0,64,92,0
0,60,89,2
0,55,89,0
0,48,89,2
0,42,53,0
0,76,109,0
0,60,77,0
0,64,83,0
0,55,76,2
0,60,79,0
0,60,69,0
0,55,80,0
0,55,68,0
0,48,82,2
0,38,97,0
0,42,81,0
0,74,112,0
0,64,59,4
0,57,79,2
0,60,57,0
0,55,57,2
0,57,71,0
0,48,58,2
0,42,54,0
0,36,99,4
0,55,77,0
0,60,77,0
0,64,83,0
0,55,69,2
0,60,79,0
0,60,69,0
0,55,78,2
0,48,80,2
0,35,108,0
0,36,105,0
0,42,81,0
0,64,88,0
0,60,87,2
0,55,85,0
0,48,87,2
0,35,96,0
0,46,56,0
0,31,99,0
0,55,76,0
0,64,83,0
0,55,68,2
0,60,82,0
0,55,79,0
0,48,80,2
0,34,103,0
0,38,97,0
0,42,67,0
0,57,80,4
0,64,60,0
0,54,77,2
0,57,72,0
0,60,58,0
0,55,57,2
0,48,57,2
0,35,96,0
0,46,57,0
0,74,112,2
0,36,99,2
0,60,76,0
0,64,83,0
0,60,82,2
0,60,68,0
0,55,79,2
0,48,80,2
0,55,82,4
0,60,82,0
0,64,82,0
0,35,108,0
0,42,77,0
0,36,105,0
0,64,92,0
0,55,77,2
0,60,79,0
0,60,89,0
0,55,89,0
0,55,69,0
0,60,71,0
0,48,89,2
0,42,47,0
0,60,76,0
0,64,79,0
0,76,110,0
0,55,77,2
0,60,82,0
0,60,68,0
0,55,79,0
0,55,69,0
0,48,80,2
0,38,97,0
0,42,75,0
0,64,57,4
0,74,113,0
0,57,77,2
0,60,58,0
0,55,57,2
0,57,69,0
0,48,57,2
0,42,50,0
0,36,99,4
0,55,75,0
0,64,83,0
0,76,110,0
0,55,67,2
0,60,77,0
0,60,80,0
0,55,79,2
0,60,69,0
0,48,79,2
0,35,108,0
0,42,81,0
0,36,105,0
0,64,88,0
0,74,115,0
0,60,85,2
0,55,85,0
0,48,87,2
0,35,96,0
0,42,43,0
0,55,77,0
0,60,77,0
0,64,83,0
0,72,110,0
0,55,69,2
0,60,80,0
0,60,69,0
0,55,79,0
0,48,80,2
0,38,97,0
0,42,77,0
0,57,77,4
0,64,60,0
0,54,75,2
0,57,69,0
0,60,57,0
0,55,57,2
0,48,57,2
0,36,99,0
0,46,59,0
0,74,114,2
0,55,77,2
0,60,79,0
0,64,84,0
0,55,69,2
0,60,79,0
0,60,71,0
0,55,78,2
0,48,79,2
0,35,108,0
0,36,105,0
0,42,74,0
0,64,92,0
0,60,89,2
0,55,89,0
0,48,89,2
0,35,96,0
0,42,51,0
0,76,109,0
0,60,77,0
0,64,83,0
0,55,77,2
0,60,79,0
0,60,69,0
0,55,80,0
0,55,69,0
0,48,82,2
0,38,97,6
0,42,75,0
0,74,113,2
0,64,59,2
