track,note,velocity,time
0,50,121,239
0,63,126,87
0,64,124,0
0,65,122,1
0,66,115,1
0,74,127,23
0,69,119,93
0,66,113,12
0,69,121,6
0,50,118,2
0,63,127,89
0,64,127,0
0,65,126,0
0,66,117,0
0,74,127,32
0,69,123,89
0,66,120,11
0,69,123,10
0,45,127,11
0,59,127,92
0,60,124,1
0,61,121,0
0,69,127,31
0,64,119,91
0,61,116,12
0,64,117,11
0,50,123,5
0,63,119,91
0,64,89,0
0,65,93,0
0,66,91,0
0,74,127,32
0,69,127,93
0,38,102,0
0,66,124,42
0,38,116,0
0,69,120,12
0,33,90,1
0,38,124,0
0,35,97,7
0,38,102,7
0,50,121,1
0,49,84,0
0,36,107,0
0,42,91,11
0,38,104,1
0,63,126,6
0,38,108,7
0,38,110,0
0,42,91,0
0,64,124,0
0,65,121,1
0,66,115,1
0,38,105,15
0,74,127,0
0,36,104,2
0,42,83,0
0,38,102,16
0,42,110,0
0,69,119,9
0,38,97,3
0,42,85,1
0,36,103,0
0,66,113,10
0,38,110,3
0,38,121,0
0,42,113,0
0,69,121,6
0,38,112,3
0,36,98,0
0,42,83,0
0,38,98,2
0,50,118,0
0,36,104,0
0,42,116,0
0,38,97,12
0,42,83,0
0,63,127,4
0,42,116,7
0,38,118,0
0,38,105,1
0,64,127,0
0,65,126,0
0,66,117,0
0,38,109,14
0,36,104,0
0,42,73,0
0,74,127,4
0,38,104,12
0,42,122,0
0,69,123,12
0,38,109,2
0,42,81,0
0,36,102,0
0,38,113,11
0,66,120,0
0,42,116,0
0,38,118,0
0,38,101,9
0,69,123,1
0,42,81,0
0,36,94,0
0,45,127,9
0,42,119,1
0,36,104,0
0,33,110,1
0,42,80,15
0,33,108,1
0,59,127,12
0,33,110,3
0,42,116,0
0,38,118,0
0,60,124,1
0,61,121,0
0,33,102,15
0,36,103,0
0,42,77,0
0,69,127,2
0,33,113,12
0,42,116,0
0,64,119,10
0,33,91,1
0,36,103,0
0,42,67,0
0,33,116,11
0,42,113,0
0,38,118,0
0,61,116,1
0,33,109,10
0,42,73,0
0,36,97,0
0,64,117,1
0,38,115,6
0,50,123,0
0,36,104,1
0,42,119,0
0,42,77,9
0,38,104,1
0,63,119,10
0,64,89,0
0,38,115,1
0,38,121,0
0,42,116,0
0,65,93,0
0,66,91,0
0,38,105,17
0,42,73,1
0,36,102,0
0,74,127,1
0,38,115,13
0,42,116,0
0,38,95,13
0,69,127,0
0,36,102,2
0,42,73,0
0,38,115,10
0,66,124,0
0,38,118,0
0,38,82,24
0,38,105,12
0,69,120,0
0,38,118,1
0,45,48,7
0,50,76,0
0,57,110,1
0,62,119,1
0,66,119,1
0,36,105,0
0,49,84,0
0,38,116,1
0,50,116,0
0,57,114,1
0,62,91,1
0,66,105,3
0,42,91,0
0,50,110,1
0,76,109,0
0,38,99,1
0,57,116,2
0,62,106,1
0,57,100,1
0,50,117,0
0,38,109,0
0,78,112,0
0,42,91,0
0,38,116,0
0,62,100,1
0,59,119,1
0,62,114,1
0,66,119,1
0,50,119,0
0,62,117,1
0,38,90,0
0,42,83,0
0,57,119,0
0,81,108,0
0,57,114,0
0,50,73,1
0,62,115,0
0,38,116,18
0,42,110,1
0,36,101,0
0,57,114,1
0,62,106,1
0,66,119,0
0,62,113,1
0,33,113,0
0,76,102,0
0,42,85,0
0,36,98,0
0,50,115,1
0,57,115,0
0,35,104,3
0,78,104,0
0,38,118,0
0,42,113,0
0,62,87,1
0,62,103,1
0,59,119,1
0,81,105,0
0,66,117,0
0,38,111,0
0,42,83,0
0,62,117,1
0,50,119,0
0,57,119,1
0,62,116,1
0,38,116,11
0,36,105,0
0,42,116,0
0,62,115,1
0,76,95,0
0,38,103,1
0,42,83,0
0,66,120,1
0,62,119,0
0,50,115,0
0,57,120,0
0,57,103,1
0,62,116,1
0,78,112,0
0,57,107,0
0,38,116,0
0,42,116,0
0,38,121,0
0,50,115,1
0,62,111,1
0,59,119,1
0,62,117,1
0,50,115,0
0,66,119,1
0,38,90,0
0,81,109,0
0,42,73,0
0,57,120,0
0,62,119,0
0,57,120,1
0,62,117,1
0,38,116,15
0,36,101,0
0,42,122,0
0,66,120,0
0,62,119,0
0,78,108,0
0,33,116,1
0,57,125,0
0,50,116,0
0,42,81,0
0,36,98,0
0,50,100,1
0,57,120,0
0,62,115,0
0,35,106,0
0,50,118,0
0,42,116,0
0,38,116,0
0,57,123,0
0,62,119,0
0,66,119,1
0,59,119,1
0,62,118,1
0,38,115,0
0,42,81,0
0,50,117,1
0,57,119,1
0,64,102,2
0,52,103,6
0,57,103,1
0,45,113,0
0,64,103,1
0,61,103,0
0,45,115,0
0,42,119,0
0,36,103,0
0,52,118,1
0,57,119,1
0,61,92,4
0,64,113,2
0,45,99,2
0,76,105,0
0,42,80,0
0,52,117,1
0,57,110,1
0,45,88,0
0,52,96,1
0,61,105,0
0,45,115,0
0,78,114,0
0,38,118,0
0,42,116,0
0,64,103,1
0,57,118,2
0,54,118,2
0,64,120,0
0,61,119,1
0,45,84,0
0,45,119,0
0,81,104,0
0,42,77,0
0,57,112,1
0,52,115,2
0,45,113,16
0,42,116,1
0,36,100,0
0,64,121,0
0,61,120,1
0,40,109,1
0,76,100,0
0,36,98,0
0,42,67,0
0,45,115,0
0,57,111,1
0,52,116,0
0,57,113,2
0,57,100,1
0,61,111,0
0,42,106,0
0,78,112,0
0,38,118,0
0,42,113,0
0,64,109,1
0,54,118,0
0,57,119,1
0,64,121,1
0,45,116,0
0,45,119,0
0,42,73,0
0,81,101,0
0,61,120,0
0,57,123,1
0,57,116,0
0,52,117,1
0,45,90,9
0,36,103,1
0,42,119,0
0,64,121,1
0,47,107,0
0,78,108,0
0,61,119,1
0,36,97,0
0,42,77,0
0,52,115,1
0,57,117,1
0,38,118,1
0,42,116,0
0,40,116,1
0,54,118,0
0,57,117,0
0,38,116,7
0,50,119,0
0,36,102,0
0,49,89,0
0,66,110,1
0,62,116,1
0,74,103,0
0,50,109,1
0,62,119,1
0,57,121,1
0,57,119,0
0,66,117,0
0,62,116,1
0,38,104,0
0,50,118,1
0,42,73,0
0,36,98,0
0,57,120,1
0,62,117,1
0,45,89,1
0,38,116,1
0,38,118,0
0,42,113,0
0,50,94,0
0,57,119,0
0,57,120,0
0,62,114,1
0,66,111,0
0,62,118,0
0,59,117,0
0,66,112,3
0,33,107,0
0,50,117,0
0,42,83,0
0,62,108,1
0,57,119,0
0,35,81,4
0,62,117,2
0,50,85,0
0,42,84,0
0,36,105,0
0,66,119,1
0,38,116,0
0,66,112,1
0,50,117,0
0,57,119,0
0,76,105,0
0,42,91,0
0,62,110,1
0,38,99,0
0,62,113,0
0,50,93,1
0,57,122,0
0,38,109,0
0,59,119,0
0,78,101,0
0,42,91,0
0,38,116,0
0,62,113,0
0,66,110,1
0,62,118,0
0,50,118,3
0,57,119,0
0,66,117,1
0,38,90,0
0,42,83,0
0,62,116,1
0,81,107,0
0,38,116,18
0,36,101,1
0,42,110,0
0,50,118,0
0,66,118,1
0,33,113,0
0,57,120,0
0,76,108,0
0,36,98,0
0,42,85,0
0,62,117,0
0,57,112,1
0,62,115,0
0,50,118,1
0,35,104,1
0,78,106,0
0,42,113,0
0,38,118,0
0,62,118,0
0,59,120,0
0,66,118,1
0,62,115,0
0,50,117,2
0,38,111,1
0,81,107,0
0,42,83,0
0,66,119,1
0,57,120,0
0,62,114,2
0,57,94,1
0,38,116,0
0,42,116,0
0,36,105,0
0,50,118,1
0,57,119,0
0,76,102,0
0,38,103,0
0,42,83,0
0,66,119,1
0,62,116,0
0,62,119,1
0,57,119,1
0,50,118,0
0,59,119,0
0,78,104,0
0,50,93,1
0,38,116,0
0,42,116,0
0,38,121,0
0,57,121,1
0,62,118,0
0,66,119,1
0,50,119,1
0,38,90,1
0,57,119,0
0,81,101,0
0,42,73,0
0,66,119,1
0,62,117,1
0,45,55,1
0,38,116,15
0,36,101,0
0,42,122,0
0,66,118,0
0,50,115,0
0,57,120,0
0,78,102,0
0,33,116,1
0,62,115,0
0,42,81,0
0,36,98,0
0,57,122,0
0,62,118,0
0,50,94,1
0,35,106,2
0,50,118,0
0,38,116,0
0,42,116,0
0,66,117,1
0,59,119,0
0,62,118,1
0,38,115,2
0,42,81,0
0,64,91,0
0,57,119,0
0,62,118,2
0,52,98,2
0,57,121,1
0,61,119,0
0,64,120,1
0,45,115,0
0,36,103,0
0,42,119,0
0,57,119,5
0,52,117,0
0,61,89,1
0,64,96,0
0,45,99,0
0,42,80,0
0,61,96,1
0,76,107,1
0,52,116,1
0,45,116,1
0,57,111,0
0,52,87,0
0,57,117,1
0,61,114,1
0,45,115,0
0,78,110,0
0,42,116,0
0,38,118,0
0,57,116,3
0,54,118,1
0,64,119,1
0,45,84,0
0,45,119,0
0,81,105,0
0,42,77,0
0,61,115,0
0,57,121,1
0,57,117,0
0,45,81,2
0,52,117,0
0,45,113,16
0,36,100,1
0,42,116,0
0,45,115,2
0,52,117,0
0,64,121,1
0,40,109,0
0,42,67,0
0,36,98,0
0,61,117,1
0,81,107,1
0,57,114,1
0,61,118,2
0,57,118,0
0,42,106,0
0,64,119,1
0,42,113,0
0,38,118,0
0,54,116,1
0,57,119,0
0,61,98,4
0,45,117,1
0,64,120,1
0,45,116,0
0,81,102,0
0,42,73,0
0,52,118,0
0,61,116,0
0,57,120,0
0,57,118,0
0,52,86,1
0,45,90,9
0,42,119,1
0,36,103,0
0,52,117,0
0,64,121,1
0,47,107,0
0,78,108,0
0,36,97,0
0,42,77,0
0,61,119,0
0,57,118,0
0,57,118,2
0,54,116,1
0,45,90,0
0,38,118,0
0,42,116,0
0,40,116,1
0,64,116,1
0,55,67,7
0,59,50,1
0,50,120,1
0,38,116,2
0,74,107,0
0,49,98,0
0,36,102,0
0,66,119,1
0,62,119,1
0,57,119,1
0,62,107,1
0,50,104,1
0,57,123,1
0,50,118,2
0,38,104,0
0,62,121,1
0,66,119,1
0,57,118,0
0,36,98,0
0,38,116,1
0,38,118,0
0,66,117,1
0,57,120,0
0,62,118,1
0,45,116,0
0,50,118,1
0,33,107,1
0,67,74,0
0,55,83,0
0,55,106,1
0,43,50,4
0,47,110,2
0,50,113,1
0,59,122,0
0,55,123,0
0,43,120,0
0,67,119,1
0,31,116,0
0,50,119,0
0,79,112,0
0,59,97,0
0,62,97,0
0,67,105,0
0,71,105,0
0,36,105,0
0,49,84,0
0,55,115,1
0,67,116,1
0,31,101,0
0,50,119,1
0,59,90,0
0,62,90,0
0,67,91,0
0,71,100,0
0,42,91,0
0,36,105,0
0,79,98,0
0,55,115,1
0,31,116,13
0,38,116,0
0,42,91,0
0,55,115,2
0,31,107,1
0,79,103,0
0,42,83,0
0,67,120,1
0,40,103,0
0,55,113,0
0,43,121,0
0,59,96,0
0,62,96,0
0,67,96,0
0,71,104,0
0,50,116,0
0,59,120,0
0,55,107,1
0,30,116,2
0,50,120,0
0,78,108,0
0,57,96,0
0,62,96,0
0,66,101,0
0,69,100,0
0,42,110,0
0,36,103,0
0,50,101,1
0,57,119,0
0,57,123,1
0,62,117,0
0,62,111,1
0,66,119,1
0,30,116,14
0,42,85,0
0,36,101,0
0,45,105,0
0,57,119,0
0,66,74,1
0,30,116,0
0,78,102,0
0,42,113,0
0,38,118,0
0,57,101,0
0,62,101,0
0,66,95,0
0,69,105,0
0,57,113,1
0,62,107,1
0,66,117,1
0,30,113,3
0,45,121,0
0,76,99,0
0,42,83,0
0,57,99,1
0,61,99,0
0,64,92,0
0,69,99,0
0,64,121,0
0,52,117,0
0,61,119,1
0,57,120,0
0,61,100,1
0,57,119,1
0,52,81,1
0,33,116,20
0,42,116,0
0,36,105,0
0,64,121,1
0,33,100,1
0,61,119,1
0,36,101,0
0,42,83,0
0,45,121,1
0,57,89,4
0,52,117,1
0,45,76,1
0,33,116,0
0,42,116,0
0,38,121,0
0,61,103,1
0,45,121,1
0,52,115,3
0,35,115,0
0,42,73,0
0,64,117,0
0,61,114,1
0,45,120,0
0,52,116,2
0,57,117,1
0,37,116,0
0,61,115,0
0,42,122,0
0,36,103,0
0,64,111,1
0,45,120,0
0,52,115,1
0,35,111,0
0,36,98,0
0,42,81,0
0,64,121,0
0,45,120,0
0,61,119,1
0,52,117,0
0,45,90,0
0,52,107,0
0,33,116,0
0,38,116,0
0,42,116,0
0,57,124,0
0,61,117,0
0,64,120,1
0,52,117,0
0,45,122,0
0,57,117,2
0,50,36,1
0,35,116,0
0,78,98,0
0,42,81,0
0,64,118,0
0,66,91,0
0,59,107,0
0,55,95,0
0,45,119,1
0,52,117,1
0,47,90,0
0,50,103,0
0,31,116,0
0,42,119,0
0,36,103,0
0,55,124,1
0,79,104,0
0,59,105,0
0,62,105,0
0,67,97,0
0,71,85,0
0,67,121,2
0,43,118,0
0,59,43,2
0,55,112,0
0,50,120,1
0,79,96,13
0,59,85,1
0,62,85,0
0,71,80,0
0,67,89,0
0,79,96,0
0,31,116,1
0,67,119,1
0,59,102,0
0,62,102,0
0,71,105,0
0,67,89,0
0,36,99,0
0,42,80,0
0,59,111,1
0,43,121,0
0,50,121,0
0,55,116,1
0,43,36,9
0,31,103,5
0,38,118,0
0,42,116,0
0,67,120,1
0,79,101,0
0,59,122,1
0,31,116,0
0,43,119,0
0,42,77,0
0,59,90,0
0,62,90,0
0,71,90,0
0,67,94,0
0,55,121,1
0,50,119,1
0,55,116,0
0,50,101,0
0,38,116,0
0,78,98,0
0,57,121,1
0,50,118,0
0,57,117,0
0,62,117,0
0,69,97,0
0,66,91,0
0,36,100,0
0,42,116,0
0,62,116,1
0,57,120,1
0,66,120,2
0,62,118,0
0,38,97,1
0,36,98,0
0,42,67,0
0,66,100,1
0,45,109,0
0,57,115,1
0,50,117,1
0,38,116,0
0,78,103,0
0,57,104,0
0,62,111,0
0,69,107,0
0,66,96,0
0,42,113,0
0,38,118,0
0,57,121,0
0,66,119,1
0,64,36,4
0,45,123,4
0,38,109,1
0,52,119,0
0,42,73,0
0,57,110,0
0,61,110,0
0,64,94,0
0,69,89,0
0,64,119,1
0,52,36,0
0,57,119,0
0,76,101,0
0,61,121,2
0,57,121,2
0,33,116,17
0,42,119,1
0,36,103,0
0,33,103,0
0,64,120,1
0,42,77,0
0,36,100,0
0,61,119,1
0,45,121,0
0,57,117,1
0,52,116,0
0,33,116,2
0,38,118,0
0,42,116,0
0,57,123,1
0,64,118,1
0,45,108,0
0,52,116,1
0,33,101,1
0,42,80,0
0,45,122,0
0,64,118,0
0,52,117,0
0,61,119,1
0,57,97,0
0,33,116,0
0,57,121,1
0,36,102,0
0,42,116,0
0,64,119,1
0,52,117,0
0,33,105,1
0,45,120,0
0,64,120,1
0,52,118,1
0,42,73,0
0,36,98,0
0,57,117,0
0,57,117,1
0,52,92,2
0,57,124,1
0,33,116,0
0,38,118,0
0,42,113,0
0,64,114,1
0,52,117,0
0,64,119,2
0,33,93,0
0,45,122,0
0,64,94,1
0,73,94,0
0,42,83,0
0,81,101,1
0,69,94,0
0,52,118,1
0,57,119,1
0,61,110,1
0,33,116,18
0,42,84,1
0,36,103,0
0,33,104,0
0,64,120,0
0,36,100,0
0,42,91,0
0,61,120,1
0,57,105,1
0,52,119,0
0,57,118,1
0,31,116,1
0,42,91,0
0,38,116,0
0,57,121,1
0,52,118,2
0,57,119,0
0,31,96,1
0,42,83,0
0,45,120,0
0,64,121,0
0,52,119,0
0,61,117,1
0,57,117,0
0,38,78,3
0,45,122,2
0,30,116,1
0,52,118,1
0,38,90,0
0,36,101,0
0,64,119,1
0,57,115,0
0,38,98,21
0,45,120,0
0,64,122,1
0,30,110,0
0,52,117,0
0,38,107,0
0,57,111,2
0,38,118,21
0,45,83,0
0,52,100,1
0,28,116,0
0,57,117,0
0,47,115,0
0,57,120,1
0,52,117,0
0,36,98,0
0,61,119,0
0,64,118,1
0,47,100,21
0,28,101,2
0,64,108,1
0,47,117,0
