track,note,velocity,time
1,40,127,4152
1,40,0,175
1,40,127,65
1,40,0,119
1,35,127,1
1,35,0,116
1,37,127,4
1,37,0,113
1,35,127,7
1,35,0,108
1,37,127,12
1,37,0,58
1,40,127,62
1,40,0,187
1,40,127,53
1,35,127,240
1,40,0,11
1,35,0,103
1,37,127,6
1,37,0,107
1,35,127,13
1,35,0,110
1,37,127,10
1,37,0,117
1,35,127,3
1,35,0,108
1,40,127,12
1,40,0,201
1,40,127,39
1,40,0,120
1,35,127,0
1,35,0,108
1,37,127,12
1,37,0,113
1,35,127,7
1,35,0,109
1,37,127,11
1,37,0,66
1,40,127,54
1,40,0,206
1,40,127,34
1,40,0,237
1,35,127,3
1,35,0,110
1,37,127,10
1,35,127,120
1,37,0,4
1,35,0,100
1,37,127,16
1,37,0,114
1,35,127,6
1,35,0,101
1,40,127,19
1,40,0,202
1,40,127,38
1,40,0,111
1,35,127,9
1,35,0,111
1,37,127,9
1,37,0,112
1,35,127,8
1,35,0,105
1,37,127,15
1,37,0,75
1,40,127,45
1,40,0,193
1,40,127,47
1,40,0,234
1,35,127,6
1,35,0,112
1,37,127,8
1,35,127,120
1,37,0,2
1,35,0,99
1,37,127,19
1,37,0,100
1,35,127,20
1,35,0,85
1,40,127,35
1,40,0,201
1,40,127,39
1,40,0,120
1,35,127,0
1,35,0,108
1,37,127,12
1,37,0,113
1,35,127,7
1,35,0,109
1,37,127,11
1,37,0,66
1,40,127,54
1,40,0,206
1,40,127,34
1,40,0,237
1,35,127,3
1,35,0,110
1,37,127,10
1,35,127,120
1,37,0,4
1,35,0,100
1,37,127,16
1,37,0,114
1,35,127,6
1,35,0,101
1,40,127,19
1,40,0,202
1,40,127,38
1,40,0,111
1,35,127,9
1,35,0,111
1,37,127,9
1,37,0,112
1,35,127,8
1,35,0,105
1,37,127,15
1,37,0,75
1,40,127,45
1,40,0,193
1,40,127,47
1,40,0,234
1,35,127,6
1,35,0,112
1,37,127,8
1,35,127,120
1,37,0,2
1,35,0,99
1,37,127,19
1,37,0,100
1,35,127,20
1,35,0,85
1,40,127,35
1,40,0,201
1,40,127,39
1,40,0,120
1,35,127,0
1,35,0,108
1,37,127,12
1,37,0,113
1,35,127,7
1,35,0,109
1,37,127,11
1,37,0,66
1,40,127,54
1,40,0,206
1,40,127,34
1,40,0,237
1,35,127,3
1,35,0,110
1,37,127,10
1,35,127,120
1,37,0,4
1,35,0,100
1,37,127,16
1,37,0,114
1,35,127,6
1,35,0,101
1,40,127,19
1,40,0,202
1,40,127,38
1,40,0,111
1,35,127,9
1,35,0,111
1,37,127,9
1,37,0,112
1,35,127,8
1,35,0,105
1,37,127,15
1,37,0,75
1,40,127,45
1,40,0,193
1,40,127,47
1,40,0,234
1,35,127,6
1,35,0,112
1,37,127,8
1,35,127,120
1,37,0,2
1,35,0,99
1,37,127,19
1,37,0,100
1,35,127,20
1,35,0,85
1,40,127,35
1,40,0,201
1,40,127,39
1,40,0,120
1,35,127,0
1,35,0,108
1,37,127,12
1,37,0,113
1,35,127,7
1,35,0,109
1,37,127,11
1,37,0,66
1,40,127,54
1,40,0,206
1,40,127,34
1,40,0,237
1,35,127,3
1,35,0,110
1,37,127,10
1,35,127,120
1,37,0,4
1,35,0,100
1,37,127,16
1,37,0,114
1,35,127,6
1,35,0,101
1,40,127,19
1,40,0,202
1,40,127,38
1,40,0,111
1,35,127,9
1,35,0,111
1,37,127,9
1,37,0,112
1,35,127,8
1,35,0,105
1,37,127,15
1,37,0,75
1,40,127,45
1,40,0,193
1,40,127,47
1,40,0,234
1,35,127,6
1,35,0,112
1,37,127,8
1,35,127,120
1,37,0,2
1,35,0,99
1,37,127,19
1,37,0,100
1,35,127,20
1,35,0,85
1,40,127,35
1,40,0,201
1,40,127,39
1,40,0,120
1,35,127,0
1,35,0,108
1,37,127,12
1,37,0,113
1,35,127,7
1,35,0,109
1,37,127,11
1,37,0,66
1,40,127,54
1,40,0,206
1,40,127,34
1,40,0,237
1,35,127,3
1,35,0,110
1,37,127,10
1,35,127,120
1,37,0,4
1,35,0,100
1,37,127,16
1,37,0,114
1,35,127,6
1,35,0,101
1,40,127,19
1,40,0,202
1,40,127,38
1,40,0,111
1,35,127,9
1,35,0,111
1,37,127,9
1,37,0,112
1,35,127,8
1,35,0,105
1,37,127,15
1,37,0,75
1,40,127,45
1,40,0,193
1,40,127,47
1,40,0,234
1,35,127,6
1,35,0,112
1,37,127,8
1,35,127,120
1,37,0,2
1,35,0,99
1,37,127,19
1,37,0,100
1,35,127,20
1,35,0,85
1,40,127,35
1,40,0,201
1,40,127,39
1,40,0,120
1,35,127,0
1,35,0,108
1,37,127,12
1,37,0,113
1,35,127,7
1,35,0,109
1,37,127,11
1,37,0,66
1,40,127,54
1,40,0,206
1,40,127,34
1,40,0,237
1,35,127,3
1,35,0,110
1,37,127,10
1,35,127,120
1,37,0,4
1,35,0,100
1,37,127,16
1,37,0,114
1,35,127,6
1,35,0,101
1,40,127,19
1,40,0,202
1,40,127,38
1,40,0,111
1,35,127,9
1,35,0,111
1,37,127,9
1,37,0,112
1,35,127,8
1,35,0,105
1,37,127,15
1,37,0,75
1,40,127,45
1,40,106,0
1,40,0,120
1,40,0,51
1,40,127,69
1,40,0,186
1,38,127,54
1,38,0,212
1,33,127,28
1,33,0,193
1,33,127,47
1,33,0,98
1,40,127,22
1,40,0,191
1,40,127,49
1,40,0,113
1,35,127,7
1,35,0,113
1,37,127,7
1,35,127,120
1,37,0,12
1,35,0,108
1,37,127,0
1,37,0,82
1,40,127,38
1,40,0,190
1,40,127,50
1,40,0,161
1,38,127,79
1,38,0,202
1,33,127,38
1,33,0,193
1,33,127,47
1,33,0,98
1,40,127,22
1,40,0,210
1,40,127,30
1,40,0,120
1,35,127,0
1,35,0,115
1,37,127,5
1,37,0,113
1,35,127,7
1,35,0,106
1,37,127,14
1,37,0,84
1,40,127,36
1,40,0,189
1,40,127,51
1,40,0,191
1,38,127,49
1,38,0,206
1,33,127,34
1,33,0,188
1,33,127,52
1,33,0,94
1,40,127,26
1,40,0,194
1,40,127,46
1,40,0,111
1,35,127,9
1,35,0,99
1,37,127,21
1,35,127,120
1,37,0,2
1,35,0,96
1,37,127,22
1,37,0,85
1,40,127,35
1,40,0,194
1,40,127,46
1,40,0,186
1,38,127,54
1,38,0,186
1,33,127,54
1,33,0,193
1,33,127,47
1,33,0,95
1,40,127,25
1,40,0,189
1,40,127,51
1,40,0,120
1,35,127,0
1,35,0,105
1,37,127,15
1,37,0,108
1,35,127,12
1,35,0,99
1,37,127,21
1,37,0,72
1,40,127,48
1,40,0,194
1,40,127,46
1,40,0,170
1,38,127,70
1,38,0,202
1,33,127,38
1,33,0,179
1,33,127,61
1,33,0,86
1,40,127,34
1,40,0,196
1,40,127,44
1,40,0,105
1,35,127,15
1,35,0,100
1,37,127,20
1,37,0,107
1,35,127,13
1,35,0,114
1,37,127,6
1,37,0,86
1,40,127,34
1,40,0,316
1,40,127,44
1,40,0,99
1,35,127,21
1,35,0,111
1,37,127,9
1,37,0,106
1,35,127,14
1,35,0,109
1,37,127,11
1,37,0,99
1,35,127,21
1,35,0,85
1,40,127,35
1,40,0,196
1,40,127,44
1,40,0,105
1,35,127,15
1,35,0,100
1,37,127,20
1,37,0,107
1,35,127,13
1,35,0,114
1,37,127,6
1,37,0,86
1,40,127,34
1,40,0,316
1,40,127,44
1,40,0,99
1,35,127,21
1,35,0,111
1,37,127,9
1,37,0,106
1,35,127,14
1,35,0,109
1,37,127,11
1,37,0,99
1,35,127,21
1,35,0,85
1,40,127,35
1,40,0,196
1,40,127,44
1,40,0,105
1,35,127,15
1,35,0,100
1,37,127,20
1,37,0,107
1,35,127,13
1,35,0,114
1,37,127,6
1,37,0,86
1,40,127,34
1,40,0,316
1,40,127,44
1,40,0,99
1,35,127,21
1,35,0,111
1,37,127,9
1,37,0,106
1,35,127,14
1,35,0,109
1,37,127,11
1,37,0,99
1,35,127,21
1,35,0,85
1,40,127,35
1,40,0,196
1,40,127,44
1,40,0,105
1,35,127,15
1,35,0,100
1,37,127,20
1,37,0,107
1,35,127,13
1,35,0,114
1,37,127,6
1,37,0,86
1,40,127,34
1,40,0,316
1,40,127,44
1,40,0,99
1,35,127,21
1,35,0,111
1,37,127,9
1,37,0,106
1,35,127,14
1,35,0,109
1,37,127,11
1,37,0,99
1,35,127,21
1,35,0,85
1,40,127,35
1,40,0,196
1,40,127,44
1,40,0,105
1,35,127,15
1,35,0,100
1,37,127,20
1,37,0,107
1,35,127,13
1,35,0,114
1,37,127,6
1,37,0,86
1,40,127,34
1,40,0,316
1,40,127,44
1,40,0,99
1,35,127,21
1,35,0,111
1,37,127,9
1,37,0,106
1,35,127,14
1,35,0,109
1,37,127,11
1,37,0,99
1,35,127,21
1,35,0,85
1,40,127,35
1,40,0,196
1,40,127,44
1,40,0,105
1,35,127,15
1,35,0,100
1,37,127,20
1,37,0,107
1,35,127,13
1,35,0,114
1,37,127,6
1,37,0,86
1,40,127,34
1,40,0,316
1,40,127,44
1,40,0,99
1,35,127,21
1,35,0,111
1,37,127,9
1,37,0,106
1,35,127,14
1,35,0,109
1,37,127,11
1,37,0,99
1,35,127,21
1,35,0,85
1,40,127,35
1,40,0,196
1,40,127,44
1,40,0,105
1,35,127,15
1,35,0,100
1,37,127,20
1,37,0,107
1,35,127,13
1,35,0,114
1,37,127,6
1,37,0,86
1,40,127,34
1,40,0,316
1,40,127,44
1,40,0,99
1,35,127,21
1,35,0,111
1,37,127,9
1,37,0,106
1,35,127,14
1,35,0,109
1,37,127,11
1,37,0,99
1,35,127,21
1,35,0,85
1,40,127,35
1,40,0,196
1,40,127,44
1,40,0,105
1,35,127,15
1,35,0,100
1,37,127,20
1,37,0,107
1,35,127,13
1,35,0,114
1,37,127,6
1,37,0,86
1,40,127,34
1,40,0,316
1,40,127,44
1,40,0,99
1,35,127,21
1,35,0,111
1,37,127,9
1,37,0,106
1,35,127,14
1,35,0,109
1,37,127,11
1,37,0,99
1,35,127,21
1,35,0,85
1,38,127,35
1,38,0,104
1,40,127,16
1,40,0,85
1,42,115,35
1,42,0,87
1,45,112,33
1,45,0,85
1,33,127,35
1,33,0,67
1,33,127,53
1,33,0,95
1,37,127,25
1,37,0,57
1,40,127,63
1,40,0,182
1,40,127,58
1,40,0,76
1,37,127,44
1,37,0,112
1,35,123,8
1,35,0,68
1,35,127,52
1,35,0,69
1,35,127,51
1,35,0,99
1,37,127,21
1,37,0,109
1,35,127,11
1,35,0,49
1,38,127,71
1,38,0,102
1,40,127,18
1,40,0,90
1,42,115,30
1,42,0,90
1,45,117,30
1,45,0,59
1,33,127,61
1,33,0,54
1,33,127,66
1,33,0,85
1,37,127,35
1,37,0,51
1,40,127,69
1,40,0,190
1,40,127,50
1,40,0,100
1,37,126,20
1,37,0,116
1,35,127,4
1,35,0,60
1,35,123,60
1,35,0,71
1,35,123,49
1,35,0,102
1,37,127,18
1,37,0,111
1,35,127,9
1,35,0,56
1,38,127,64
1,38,0,117
1,40,127,3
1,40,0,76
1,42,127,44
1,43,102,0
1,43,0,48
1,42,0,19
1,45,112,53
1,45,0,56
1,33,127,64
1,33,0,54
1,33,127,66
1,33,0,83
1,37,127,37
1,37,0,62
1,40,124,58
1,40,0,175
1,40,120,65
1,40,0,112
1,37,127,8
1,37,0,109
1,35,112,11
1,35,0,75
1,35,127,45
1,35,0,63
1,35,114,57
1,35,0,100
1,37,127,20
1,37,0,108
1,35,127,12
1,35,0,53
1,38,127,67
1,38,0,90
1,40,127,30
1,40,0,81
1,42,106,39
1,42,0,93
1,45,100,27
1,45,0,58
1,33,127,62
1,33,0,52
1,33,127,68
1,33,0,90
1,37,127,30
1,37,0,71
1,40,124,49
1,40,0,166
1,40,123,74
1,35,112,120
1,40,0,10
1,35,0,50
1,35,109,60
1,35,0,106
1,37,118,14
1,35,127,120
1,37,0,2
1,35,0,111
1,37,127,7
1,37,0,83
1,40,127,37
1,40,0,185
1,40,124,55
1,40,0,109
1,37,127,11
1,37,0,112
1,35,127,8
1,35,0,88
1,37,127,32
1,35,127,120
1,37,0,8
1,35,0,92
1,37,127,20
1,37,0,89
1,40,102,31
1,41,111,0
1,41,0,89
1,40,0,74
1,40,127,77
1,37,127,120
1,40,0,26
1,35,127,94
1,37,0,1
1,37,127,119
1,35,0,11
1,35,127,109
1,37,0,6
1,37,127,114
1,35,0,19
1,37,0,148
1,40,127,73
1,40,0,65
1,40,124,55
1,40,0,109
1,37,127,11
1,37,0,112
1,35,127,8
1,35,0,88
1,37,127,32
1,35,127,120
1,37,0,8
1,35,0,92
1,37,127,20
1,37,0,89
1,40,102,31
1,41,111,0
1,41,0,89
1,40,0,74
1,40,127,77
1,37,127,120
1,40,0,26
1,35,127,94
1,37,0,1
1,37,127,119
1,35,0,11
1,35,127,109
1,37,0,6
1,37,127,114
1,35,0,19
1,37,0,148
1,40,127,73
1,40,0,65
1,40,124,55
1,40,0,109
1,37,127,11
1,37,0,112
1,35,127,8
1,35,0,88
1,37,127,32
1,35,127,120
1,37,0,8
1,35,0,92
1,37,127,20
1,37,0,89
1,40,102,31
1,41,111,0
1,41,0,89
1,40,0,74
1,40,127,77
1,37,127,120
1,40,0,26
1,35,127,94
1,37,0,1
1,37,127,119
1,35,0,11
1,35,127,109
1,37,0,6
1,37,127,114
1,35,0,19
1,37,0,148
1,40,127,73
1,40,0,65
1,40,124,55
1,40,0,109
1,37,127,11
1,37,0,112
1,35,127,8
1,35,0,88
1,37,127,32
1,35,127,120
1,37,0,8
1,35,0,92
1,37,127,20
1,37,0,89
1,40,102,31
1,41,111,0
1,41,0,89
1,40,0,74
1,40,127,77
1,37,127,120
1,40,0,26
1,35,127,94
1,37,0,1
1,37,127,119
1,35,0,11
1,35,127,109
1,37,0,6
1,37,127,114
1,35,0,19
1,37,0,148
1,40,127,73
1,40,0,201
1,40,127,39
1,40,0,120
1,35,127,0
1,35,0,108
1,37,127,12
1,37,0,113
1,35,127,7
1,35,0,109
1,37,127,11
1,37,0,66
1,40,127,54
1,40,0,206
1,40,127,34
1,40,0,237
1,35,127,3
1,35,0,110
1,37,127,10
1,35,127,120
1,37,0,4
1,35,0,100
1,37,127,16
1,37,0,114
1,35,127,6
1,35,0,101
1,40,127,19
1,40,0,202
1,40,127,38
1,40,0,111
1,35,127,9
1,35,0,111
1,37,127,9
1,37,0,112
1,35,127,8
1,35,0,105
1,37,127,15
1,37,0,75
1,40,127,45
1,40,0,193
1,40,127,47
1,40,0,234
1,35,127,6
1,35,0,112
1,37,127,8
1,35,127,120
1,37,0,2
1,35,0,99
1,37,127,19
1,37,0,100
1,35,127,20
1,35,0,85
1,40,127,35
1,40,0,201
1,40,127,39
1,40,0,120
1,35,127,0
1,35,0,108
1,37,127,12
1,37,0,113
1,35,127,7
1,35,0,109
1,37,127,11
1,37,0,66
1,40,127,54
1,40,0,206
1,40,127,34
1,40,0,237
1,35,127,3
1,35,0,110
1,37,127,10
1,35,127,120
1,37,0,4
1,35,0,100
1,37,127,16
1,37,0,114
1,35,127,6
1,35,0,101
1,40,127,19
1,40,0,202
1,40,127,38
1,40,0,111
1,35,127,9
1,35,0,111
1,37,127,9
1,37,0,112
1,35,127,8
1,35,0,105
1,37,127,15
1,37,0,75
1,40,127,45
1,40,0,193
1,40,127,47
1,40,0,234
1,35,127,6
1,35,0,112
1,37,127,8
1,35,127,120
1,37,0,2
1,35,0,99
1,37,127,19
1,37,0,100
1,35,127,20
1,35,0,85
1,40,127,35
1,40,0,201
1,40,127,39
1,40,0,120
1,35,127,0
1,35,0,108
1,37,127,12
1,37,0,113
1,35,127,7
1,35,0,109
1,37,127,11
1,37,0,66
1,40,127,54
1,40,0,206
1,40,127,34
1,40,0,237
1,35,127,3
1,35,0,110
1,37,127,10
1,35,127,120
1,37,0,4
1,35,0,100
1,37,127,16
1,37,0,114
