track,note,velocity,time
1,62,127,11544
1,62,104,112
1,62,118,156
1,64,123,0
1,62,106,200
1,64,123,184
1,66,127,352
1,64,120,804
1,66,114,372
1,64,113,124
1,66,104,196
1,64,115,20
1,62,123,12
1,64,120,20
1,66,119,192
1,66,127,132
1,66,119,112
1,64,111,232
1,66,109,372
1,64,102,0
1,66,103,180
1,64,113,24
1,62,111,4
1,62,55,72
1,64,115,96
1,62,102,196
1,66,119,280
1,62,110,8
1,64,120,60
1,66,112,404
1,64,111,176
1,66,112,168
1,64,115,20
1,62,118,0
1,62,99,68
1,64,120,92
1,66,127,8
1,66,127,104
1,66,127,104
1,64,123,272
1,64,115,104
1,62,104,8
1,64,108,32
1,62,113,0
1,64,118,52
1,64,106,40
1,66,127,680
1,64,113,92
1,62,111,176
1,64,111,92
1,59,113,8
1,62,127,120
1,59,120,8
1,66,123,868
1,66,127,92
1,66,119,980
1,66,119,80
1,66,127,996
1,66,123,100
1,64,115,12
1,62,118,180
1,64,115,8
1,62,123,12
1,62,123,1604
1,62,97,100
1,62,127,152
1,64,120,12
1,62,111,196
1,64,118,0
1,66,116,380
1,64,106,956
1,66,109,384
1,64,94,12
1,66,114,104
1,64,110,136
1,62,115,8
1,64,104,16
1,66,109,8
1,66,114,164
1,66,110,524
1,66,114,120
1,64,103,12
1,66,107,168
1,64,115,32
1,62,118,12
1,62,101,48
1,64,105,0
1,66,102,404
1,66,112,92
1,66,104,40
1,66,109,248
1,66,109,100
1,66,108,216
1,64,89,136
1,62,105,0
1,62,89,60
1,64,108,64
1,66,114,8
1,66,119,132
1,62,115,32
1,62,100,52
1,64,115,12
1,64,118,120
1,62,96,8
1,64,113,124
1,62,115,8
1,64,118,80
1,64,105,52
1,66,114,996
1,64,96,52
1,62,108,200
1,64,103,32
1,59,100,8
1,62,118,112
1,59,113,392
1,66,123,716
1,66,114,52
1,66,112,992
1,66,114,60
1,66,112,984
1,66,116,84
1,64,103,12
1,62,106,8
1,64,105,8
1,62,113,8
1,66,116,28984
1,66,123,72
1,66,123,984
1,66,116,92
1,66,119,1004
1,66,119,128
1,64,105,8
1,62,110,96
1,64,104,108
1,62,106,384
1,62,105,10776
1,62,101,104
1,62,105,140
1,62,110,140
1,64,103,12
1,62,92,12
1,64,106,112
1,66,96,380
1,64,98,944
1,66,96,120
1,64,92,12
1,66,107,112
1,64,101,120
1,62,97,12
1,64,95,140
1,66,95,32
1,66,100,284
1,64,96,576
1,66,93,48
1,64,95,116
1,66,93,192
1,64,91,104
1,62,99,192
1,62,98,156
1,64,97,100
1,66,102,188
1,64,84,64
1,64,80,120
1,66,97,16
1,64,98,508
1,66,92,20
1,64,91,104
1,66,100,72
1,64,95,100
1,62,101,12
1,64,99,384
1,66,95,384
1,62,102,172
1,62,115,180
1,64,110,32
1,64,105,132
1,62,93,12
1,64,106,136
1,62,101,8
1,64,113,112
1,64,106,68
1,66,116,1016
1,64,101,40
1,62,104,180
1,64,105,60
1,59,90,8
1,62,108,172
1,62,94,28
1,66,114,1020
1,66,104,52
1,66,112,1056
1,66,107,72
1,66,112,1048
1,66,108,100
1,64,92,184
1,62,98,184
1,64,102,20
1,62,104,12
1,66,123,1656
1,66,102,44
1,66,109,984
1,66,101,60
1,66,119,1036
1,66,110,100
1,64,94,32
1,62,93,88
1,64,102,104
1,62,103,8
1,66,119,1416
1,66,119,60
1,66,123,1060
1,66,123,72
1,66,123,1072
1,66,127,100
1,64,105,12
1,62,105,80
1,64,108,72
1,62,118,0
1,66,109,1420
1,66,114,60
1,66,123,1040
1,66,114,52
1,66,119,1072
1,66,112,104
1,64,94,20
1,62,94,0
1,64,95,24
1,62,105,0
2,36,91,2308
2,33,75,132
2,33,70,104
2,36,78,140
2,33,61,68
2,33,80,128
2,36,80,124
2,33,80,8
2,31,80,32
2,29,80,136
2,29,66,104
2,29,75,92
2,29,62,88
2,29,73,88
2,29,80,148
2,38,64,72
2,38,59,132
2,38,61,104
2,33,54,192
2,35,61,8
2,38,59,20
2,38,64,116
2,38,65,116
2,33,62,192
2,35,66,168
2,38,60,4
2,38,66,92
2,38,63,120
2,38,71,116
2,33,49,192
2,35,47,0
2,35,58,0
2,38,62,20
2,38,65,152
2,38,71,116
2,33,57,188
2,35,59,148
2,38,49,12
2,38,53,100
2,38,53,120
2,38,64,104
2,33,59,188
2,35,60,160
2,38,62,164
2,38,62,128
2,38,65,128
2,33,60,192
2,35,55,156
2,38,47,152
2,38,71,116
2,38,54,132
2,38,68,128
2,33,55,188
2,35,59,156
2,38,52,152
2,38,68,100
2,38,53,120
2,38,56,116
2,33,55,192
2,35,57,148
2,38,48,144
2,38,65,112
2,38,51,116
2,38,63,116
2,33,59,188
2,35,59,156
2,38,54,144
2,38,64,112
2,38,58,136
2,38,70,84
2,30,69,188
2,31,78,36
2,32,76,192
2,33,87,16
2,33,80,124
2,28,78,0
2,28,78,132
2,33,80,192
2,33,87,112
2,28,73,384
2,30,74,164
2,33,64,16
2,35,83,192
2,35,66,128
2,30,76,196
2,30,66,120
2,35,71,28
2,35,68,96
2,30,74,388
2,33,71,176
2,35,70,16
2,38,65,52
2,38,63,116
2,38,62,104
2,33,63,188
2,35,62,164
2,38,58,4
2,38,63,80
2,38,64,104
2,38,68,104
2,33,63,192
2,35,62,156
2,38,65,156
2,38,70,112
2,38,70,92
2,33,60,188
2,35,64,164
2,38,53,152
2,38,71,104
2,38,54,104
2,38,65,96
2,33,65,188
2,35,66,172
2,33,64,8
2,38,70,192
2,38,64,120
2,38,68,104
2,33,52,192
2,35,61,144
2,33,52,28
2,38,68,192
2,38,70,124
2,38,78,128
2,33,62,4
2,35,58,192
2,38,59,16
2,38,68,120
2,38,78,116
2,33,63,192
2,35,59,136
2,38,56,152
2,38,68,76
2,38,52,80
2,38,65,92
2,33,63,188
2,35,55,148
2,33,54,156
2,38,71,180
2,38,60,112
2,38,75,116
2,33,59,188
2,35,55,160
2,38,52,4
2,38,59,56
2,38,62,96
2,38,80,104
2,33,58,192
2,35,63,184
2,38,66,16
2,38,63,128
2,38,73,112
2,33,55,188
2,35,61,180
2,33,49,148
2,38,68,16
2,38,62,108
2,38,71,128
2,30,70,192
2,31,62,24
2,32,69,192
2,33,83,4
2,33,83,136
2,28,78,12
2,28,83,148
2,33,87,28
2,33,83,92
2,28,80,388
2,30,79,184
2,33,78,160
2,35,83,172
2,35,83,108
2,30,70,4
2,30,87,144
2,35,70,20
2,35,75,80
2,33,78,388
2,35,68,188
2,33,66,152
2,38,66,60
2,38,64,116
2,38,60,64
2,33,55,192
2,35,62,180
2,38,60,20
2,38,73,104
2,38,57,92
2,38,65,80
2,33,62,192
2,35,66,148
2,38,63,4
2,38,49,120
2,38,75,84
2,33,54,192
2,35,66,140
2,38,59,4
2,38,66,48
2,38,53,88
2,38,65,96
2,33,63,192
2,35,65,124
2,33,61,164
2,36,80,36
2,36,83,0
2,33,48,140
2,33,73,136
2,36,78,108
2,33,53,124
2,33,78,124
2,36,78,100
2,33,87,24
2,31,83,144
2,29,75,140
2,29,61,108
2,29,64,96
2,29,71,116
2,29,83,116
2,29,83,204
2,38,78,104
2,38,75,136
2,33,68,8
2,35,59,192
2,38,59,28
2,38,71,104
2,33,68,388
2,35,63,164
2,33,59,152
2,38,66,192
2,38,78,116
2,33,62,388
2,35,63,164
2,38,68,32
2,38,66,128
2,38,66,96
2,33,61,188
2,35,63,172
2,38,60,28
2,38,66,60
2,38,71,112
2,33,66,388
2,35,66,176
2,38,59,4
2,38,78,104
2,33,71,388
2,35,58,144
2,38,78,112
2,38,80,104
2,33,65,384
2,35,68,172
2,38,55,168
2,38,65,88
2,38,80,104
2,33,65,388
2,35,64,188
2,38,65,60
2,38,75,124
2,33,61,388
2,35,64,172
2,33,50,4
2,38,68,192
2,38,68,108
2,38,65,68
2,30,79,4
2,31,68,4
2,32,74,8
2,33,101,196
2,33,80,112
2,28,75,196
2,28,75,144
2,33,75,192
2,33,83,124
2,28,78,0
2,30,76,188
2,33,73,40
2,35,80,4
2,35,68,128
2,30,76,196
2,30,69,144
2,35,73,20
2,35,71,88
2,30,67,0
2,33,61,192
2,35,65,160
2,38,68,16
2,38,80,108
2,33,75,4
2,35,66,192
2,38,58,144
2,38,80,120
2,33,62,388
2,35,65,184
2,38,65,152
2,38,78,96
2,33,73,384
2,35,65,188
2,33,62,164
2,38,66,188
2,38,70,108
2,33,78,388
2,35,68,172
2,33,59,8
2,36,80,24
2,33,70,136
2,33,83,124
2,36,75,120
2,33,78,108
2,33,73,112
2,36,80,132
2,33,91,24
2,31,87,148
2,29,73,140
2,29,63,84
2,29,73,104
2,29,78,108
2,29,91,108
2,29,91,132
2,38,71,132
2,38,80,164
2,33,65,388
2,35,66,152
2,38,62,152
2,38,71,152
2,33,37,196
2,35,68,64
2,38,80,168
2,35,61,184
2,38,73,164
2,38,68,168
2,38,70,84
2,33,57,192
2,35,68,164
2,38,63,144
2,38,70,132
2,33,75,4
2,35,66,188
2,33,46,156
2,38,73,48
2,38,61,148
2,38,80,116
2,33,60,192
2,35,60,148
2,38,62,12
2,38,78,100
2,33,70,384
2,35,54,180
2,38,75,16
2,38,59,124
2,38,68,72
2,33,57,192
2,35,61,152
2,38,75,156
2,38,71,104
2,38,61,172
2,38,73,64
2,38,65,68
2,33,68,388
2,35,66,164
2,33,50,184
2,38,73,176
2,38,61,124
2,38,68,92
2,30,74,192
2,31,70,24
2,32,74,192
2,33,83,164
2,33,83,124
2,28,66,16
2,28,78,124
2,33,71,192
2,33,75,92
2,28,80,384
2,30,76,188
2,33,66,28
2,35,73,12
2,35,66,136
2,30,74,196
2,30,70,128
2,35,68,20
2,35,73,116
2,30,69,388
2,33,64,176
2,35,63,160
2,38,70,20
2,38,66,116
2,33,73,4
2,35,64,196
2,38,61,4
2,38,75,120
2,33,73,388
2,35,63,188
2,38,57,4
2,38,75,92
2,38,68,120
2,38,68,92
2,33,62,192
2,35,64,184
2,38,65,12
2,38,78,96
2,33,75,388
2,35,70,180
2,38,78,48
2,38,75,96
2,33,63,388
2,35,61,184
2,38,57,20
2,38,68,84
2,38,70,96
2,33,70,388
2,35,61,164
2,38,60,8
2,38,71,80
2,38,70,80
2,33,68,384
2,35,65,164
2,33,58,144
2,38,66,0
2,38,75,96
2,33,75,384
2,35,65,148
2,33,50,148
2,38,75,188
2,38,78,120
2,33,75,388
2,35,68,164
2,38,58,132
2,38,54,16
2,38,71,104
2,33,78,388
2,35,63,172
2,38,59,136
2,38,73,80
2,38,68,116
2,33,66,384
2,35,62,12
2,33,51,192
2,38,70,12
2,38,83,96
2,35,71,388
2,33,64,4
2,35,71,196
2,38,73,20
2,38,80,92
2,33,73,0
2,35,65,192
2,33,51,152
2,38,66,104
2,38,83,112
2,33,71,384
2,35,70,176
2,38,64,16
2,38,80,104
2,33,73,384
2,35,68,172
2,33,57,148
2,38,71,180
2,38,80,116
2,33,73,388
2,35,70,160
2,38,57,152
2,36,83,84
2,33,73,120
2,33,87,128
2,36,83,128
2,33,73,104
2,33,91,116
2,36,91,128
2,33,87,576
2,31,91,368
2,29,83,88
2,29,65,112
2,29,71,112
2,29,73,88
2,29,87,96
2,26,108,216
3,59,100,28620
3,62,95,44
3,64,82,88
3,64,74,84
3,66,78,4
3,64,87,36
3,62,91,84
3,64,91,20
3,66,68,48
3,66,95,3216
3,69,74,0
3,66,95,116
3,69,72,0
3,67,67,8
3,64,69,16
3,66,66,24
3,62,77,0
3,67,69,32
3,64,82,0
3,62,67,8
3,66,73,0
3,59,100,17112
3,62,79,76
3,64,74,96
3,64,77,84
3,66,72,8
3,64,87,52
3,62,84,80
3,64,91,84
3,66,87,56
3,66,91,3188
3,69,74,0
3,66,95,116
3,69,74,0
3,67,68,32
3,64,75,4
3,66,76,24
3,62,87,0
3,67,74,12
3,64,91,20
3,66,74,32
3,62,84,0
3,54,116,9508
3,62,77,12
3,54,101,20
3,62,79,8
3,55,70,108
3,64,72,0
3,54,80,112
3,62,75,0
3,55,95,128
3,64,79,0
3,65,74,120
3,56,83,0
3,66,83,64
3,57,91,4
3,54,91,264
3,62,72,76
3,54,91,12
3,62,77,92
3,54,46,4
3,55,91,32
3,64,77,16
3,54,83,12
3,62,75,0
3,55,91,12
3,64,82,20
3,54,87,28
3,62,74,16
3,54,116,548
3,62,79,0
3,54,101,88
3,62,79,96
3,55,91,40
3,64,74,16
3,54,83,12
3,62,95,0
3,55,95,8
3,64,84,4
3,56,95,64
3,65,74,0
3,57,95,12
3,66,83,16
3,54,108,456
3,62,75,8
3,54,108,8
3,62,82,84
3,55,91,92
3,64,79,24
3,54,95,84
3,62,79,0
3,55,91,92
3,64,75,16
3,62,74,84
3,54,91,24
3,57,100,284
3,57,118,176
3,57,95,20
3,59,100,100
3,61,95,112
3,61,95,32
3,61,101,140
3,61,108,40
3,62,91,116
3,61,108,112
3,61,101,24
3,61,116,144
3,61,101,40
3,59,112,116
3,57,105,116
3,59,100,44
3,59,87,32
3,59,84,128
3,59,105,36
3,61,95,128
3,62,95,136
3,62,95,44
3,62,105,124
3,62,105,44
3,64,91,116
3,62,100,112
3,62,100,32
3,62,87,108
3,62,100,40
3,61,108,56
3,59,87,32
3,66,83,4556
3,69,70,0
3,66,95,108
3,69,70,0
3,67,69,32
3,64,77,0
3,66,70,4
3,62,75,4
3,67,69,32
3,64,84,0
3,66,74,8
3,62,87,4
3,59,100,26356
3,62,87,36
3,64,87,56
3,65,95,56
3,64,87,0
3,62,84,96
3,59,79,76
3,64,82,12
3,66,83,32
3,66,95,3116
3,69,77,0
3,66,95,120
3,69,72,12
3,67,70,32
3,64,77,4
3,66,71,0
3,62,82,0
3,67,64,8
3,64,75,20
3,62,66,12
3,66,63,0
3,66,95,4380
3,69,69,4
3,66,95,136
3,69,70,0
3,67,72,20
3,64,75,0
3,66,72,12
3,62,77,0
3,67,65,24
3,64,82,20
3,62,67,12
3,66,70,12
3,66,95,4144
3,69,74,0
3,66,91,132
3,69,74,0
3,67,67,24
3,64,74,16
3,66,70,8
3,62,68,0
3,67,66,32
3,64,74,0
3,66,68,24
3,62,74,0
3,66,95,4492
3,69,69,0
3,66,91,136
3,69,66,16
3,67,63,52
3,64,72,0
3,66,71,8
3,62,75,0
3,67,67,32
3,64,77,0
3,66,73,8
3,62,77,0
3,52,75,284
3,60,70,0
3,55,74,16
3,57,77,64
3,52,70,0
3,49,108,8
3,52,87,132
3,55,91,4
3,60,91,0
3,52,69,88
3,57,75,0
3,49,87,4
3,52,72,252
3,55,77,0
3,60,77,0
3,52,74,76
3,57,82,0
3,49,87,0
3,47,64,248
3,50,70,0
3,55,79,0
3,45,69,212
3,48,68,0
3,53,75,4
3,45,70,152
3,48,68,0
3,53,77,0
3,45,69,100
3,48,65,0
3,53,74,0
3,45,69,56
3,53,68,20
3,48,59,0
3,53,75,68
3,48,67,0
3,45,70,0
3,45,74,280
3,38,67,0
3,50,75,24
4,79,107,2308
4,76,89,0
4,84,102,4
4,79,97,140
4,84,93,0
4,76,89,0
4,73,110,84
4,81,89,0
4,76,81,0
4,76,93,148
4,79,107,4
4,84,93,0
4,76,93,172
4,84,93,0
4,79,107,0
4,73,97,96
4,81,89,0
4,76,84,0
4,76,86,80
4,79,97,0
4,84,86,4
4,76,84,88
4,79,93,0
4,84,89,0
4,81,84,84
4,76,79,0
4,73,97,0
4,74,89,132
4,79,107,0
4,83,81,0
4,77,93,104
4,81,93,0
4,84,84,0
4,77,93,92
4,81,93,0
4,84,97,4
4,84,93,188
4,81,102,0
4,77,114,4
4,83,48,0
4,81,97,192
4,78,93,0
4,86,93,4
4,78,70,24300
4,69,97,0
4,69,114,200
4,78,110,0
4,67,89,20
4,76,93,0
4,66,89,16
4,74,97,0
4,76,97,16
4,67,120,0
4,66,97,16
4,74,102,0
4,78,103,22848
4,69,120,0
4,69,125,176
4,78,110,0
4,67,79,8
4,76,89,0
4,66,93,32
4,74,93,0
4,67,102,44
4,76,102,0
