track,note,velocity,time
1,65,100,288
1,70,100,0
1,62,100,96
1,67,100,0
1,65,100,276
1,70,100,0
1,62,100,72
1,67,100,0
1,70,100,272
1,65,100,0
1,62,100,96
1,67,100,0
1,60,100,156
1,65,100,0
1,58,100,152
1,63,100,0
1,58,100,128
1,63,100,0
1,60,100,48
1,63,100,48
1,58,100,0
1,65,100,152
1,60,100,0
1,60,100,112
1,65,100,33248
1,70,100,0
1,62,100,96
1,67,100,0
1,65,100,276
1,70,100,0
1,62,100,72
1,67,100,0
1,70,100,272
1,65,100,0
1,62,100,96
1,67,100,0
1,60,100,156
1,65,100,0
1,58,100,152
1,63,100,0
1,58,100,128
1,63,100,0
1,60,100,48
1,63,100,48
1,58,100,0
1,65,100,152
1,60,100,0
1,64,100,112
1,60,100,0
1,65,100,31104
1,70,100,0
1,62,100,96
1,67,100,0
1,65,100,276
1,70,100,0
1,62,100,72
1,67,100,0
1,70,100,272
1,65,100,0
1,62,100,96
1,67,100,0
1,60,100,156
1,65,100,0
1,58,100,152
1,63,100,0
1,58,100,128
1,63,100,0
1,60,100,48
1,63,100,48
1,58,100,0
1,65,100,152
1,60,100,0
1,67,100,1648
1,64,100,0
1,62,100,48
1,67,100,192
1,67,100,200
1,64,100,16
1,62,100,16
1,62,100,152
1,66,100,16
1,67,100,16
1,67,100,424
1,64,100,288
1,62,100,32
1,67,100,196
1,67,100,160
1,64,100,288
1,62,100,16
1,62,100,176
1,66,100,64
1,67,100,32
1,67,100,96
1,64,100,16
1,62,100,144
1,67,100,24
1,67,100,192
1,64,100,288
1,62,100,16
1,62,100,192
1,66,100,32
1,67,100,20
1,67,100,328
1,64,100,288
1,62,100,112
1,67,100,76
1,67,100,176
1,64,100,8
1,62,100,16
1,62,100,164
1,66,100,64
1,67,100,24
1,72,100,336
1,69,100,288
1,67,100,32
1,72,100,0
1,72,100,176
1,69,100,16
1,67,100,0
1,67,100,176
1,71,100,40
1,74,100,0
1,67,100,356
1,64,100,0
1,62,100,32
1,67,100,196
1,67,100,180
1,64,100,288
1,62,100,0
1,62,100,192
1,66,100,24
1,67,100,16
1,79,100,192
1,72,100,0
1,79,100,64
1,72,100,0
1,79,100,64
1,72,100,0
1,79,100,64
1,74,100,0
1,74,100,92
1,79,100,0
1,79,100,80
1,74,100,0
1,81,100,40
1,74,100,0
1,74,100,144
1,81,100,0
1,81,100,48
1,74,100,0
1,74,100,80
1,79,100,0
1,74,100,144
1,79,100,0
1,79,100,80
1,74,100,0
1,79,100,64
1,72,100,0
1,77,100,0
1,79,100,144
1,72,100,0
1,79,100,64
1,72,100,0
1,74,100,80
1,79,100,0
1,79,100,152
1,74,100,0
1,79,100,72
1,74,100,0
1,81,100,32
1,74,100,0
1,74,100,112
1,81,100,0
1,74,100,48
1,81,100,0
1,79,100,96
1,74,100,0
1,74,100,120
1,79,100,0
1,79,100,64
1,74,100,4
1,79,100,48
1,72,100,0
1,79,100,144
1,72,100,0
1,79,100,64
1,72,100,0
1,79,100,64
1,74,100,0
1,74,100,160
1,79,100,0
1,79,100,64
1,74,100,0
1,81,100,36
1,74,100,0
1,81,100,144
1,74,100,0
1,74,100,96
1,81,100,0
1,79,100,48
1,74,100,0
1,79,100,144
1,74,100,0
1,79,100,80
1,74,100,0
1,79,100,56
1,72,100,0
1,79,100,144
1,72,100,0
1,79,100,72
1,72,100,0
1,79,100,84
1,74,100,0
1,79,100,152
1,74,100,0
1,79,100,64
1,74,100,0
1,74,100,52
1,81,100,0
1,74,100,144
1,81,100,0
1,74,100,68
1,81,100,0
1,79,100,64
1,67,100,80
1,64,100,0
1,62,100,46
1,67,100,96
1,67,100,176
1,64,100,0
1,62,100,20
1,62,100,176
1,66,100,32
1,67,100,192
1,67,100,368
1,64,100,4
1,62,100,48
1,67,100,12
1,67,100,176
1,64,100,0
1,62,100,0
1,62,100,160
1,66,100,16
1,67,100,0
1,62,100,0
1,67,100,164
1,62,100,0
1,63,100,68
1,68,100,0
1,69,100,104
1,64,100,0
1,67,127,145456
1,66,127,0
1,64,127,176
1,62,127,176
1,62,127,176
1,64,118,36
1,59,118,0
1,64,110,192
1,68,110,0
1,76,100,96
1,81,100,0
1,76,100,32
1,81,100,0
1,76,100,144
1,81,100,0
1,76,100,32
1,78,100,128
1,81,100,16
1,76,100,0
1,76,100,132
1,81,100,0
1,76,100,128
1,81,100,0
1,76,100,48
1,78,100,144
1,76,100,4
1,81,100,0
1,76,100,80
1,81,100,0
1,76,100,80
1,81,100,0
1,76,100,48
1,81,100,0
1,81,100,80
1,76,100,0
1,76,100,96
1,81,100,0
1,76,100,92
1,81,100,0
1,76,100,128
1,78,100,192
1,76,100,16
1,81,100,0
1,74,100,16
1,81,100,0
1,81,100,112
1,74,100,0
1,86,100,128
1,81,100,0
1,86,100,120
1,79,100,0
1,86,100,32
1,79,100,0
1,86,100,40
1,81,100,0
1,81,100,32
1,74,100,0
1,81,100,68
1,76,100,0
1,76,100,136
1,81,100,0
1,76,100,128
1,78,100,176
1,76,100,0
1,81,100,0
1,76,100,112
1,81,100,0
1,76,100,80
1,81,100,0
1,76,100,96
1,78,100,192
1,76,100,16
1,81,100,0
1,76,100,84
1,81,100,0
1,81,100,48
1,76,100,0
1,81,100,96
1,76,100,0
1,76,100,32
1,76,100,36
1,81,100,0
1,76,100,64
1,81,100,0
1,81,100,48
1,76,100,0
1,76,100,80
1,76,100,112
1,78,100,16
1,76,100,0
1,81,100,0
1,76,100,80
1,81,100,0
1,76,100,112
1,81,100,0
1,76,100,128
1,81,100,0
1,81,100,0
1,76,100,0
1,81,100,116
1,76,100,0
1,76,100,128
1,81,100,0
1,76,100,80
1,81,100,0
1,81,100,148
1,76,100,0
1,76,100,64
1,78,100,112
1,76,100,8
1,81,100,0
1,74,100,32
1,81,100,0
1,81,100,128
1,74,100,0
1,81,100,192
1,74,100,0
1,74,100,64
1,79,100,0
1,74,100,96
1,79,100,0
1,74,100,48
1,81,100,0
1,74,100,48
1,81,100,0
1,76,100,100
1,81,100,0
1,76,100,96
1,81,100,0
1,76,100,152
1,81,100,192
1,81,100,48
1,86,100,0
1,76,100,0
1,81,100,96
1,76,100,0
1,86,100,0
1,76,100,80
1,85,100,0
1,81,100,0
1,76,100,0
1,81,100,0
1,83,100,96
1,76,100,0
1,83,100,80
1,76,100,0
1,76,100,64
1,83,100,0
1,78,100,124
1,83,100,0
1,83,100,88
1,78,100,0
1,76,100,260
1,83,100,0
1,76,100,68
1,83,100,0
1,76,100,112
1,83,100,0
1,76,100,64
1,76,100,128
1,83,100,0
1,83,100,128
1,76,100,0
1,83,100,128
1,76,100,0
1,83,100,144
1,76,100,0
1,76,100,144
1,83,100,0
1,83,100,320
1,76,100,0
1,76,100,224
1,83,100,0
1,76,100,384
1,83,100,0
1,76,100,272
1,83,100,0
1,83,100,80
1,78,100,0
1,78,100,144
1,83,100,0
1,83,100,200
1,78,100,0
1,78,100,120
1,83,100,0
1,83,100,64
1,76,100,0
1,83,100,64
1,76,100,0
1,83,100,272
1,76,100,0
1,83,100,136
1,76,100,0
1,76,100,116
1,81,100,184
1,76,100,112
1,81,100,0
1,76,100,96
1,81,100,0
1,76,100,256
1,81,100,0
1,76,100,32
1,81,100,0
1,76,100,32
1,78,100,0
1,76,100,16
1,81,100,0
1,78,100,192
1,76,100,4
1,81,100,0
1,81,100,128
1,76,100,0
1,76,100,160
1,81,100,0
1,81,100,256
1,76,100,0
1,76,100,84
1,81,100,0
1,76,100,60
1,78,100,96
1,81,100,0
1,76,100,0
1,81,100,108
1,76,100,0
1,78,100,192
1,86,100,96
1,74,100,0
1,81,100,0
1,86,100,176
1,74,100,0
1,81,100,0
1,86,100,128
1,74,100,0
1,79,100,0
1,81,100,160
1,86,100,0
1,74,100,0
1,86,100,96
1,81,100,0
1,74,100,0
1,79,100,0
1,74,100,0
1,81,100,0
1,76,100,76
1,81,100,0
1,81,100,144
1,76,100,0
1,76,100,64
1,78,100,192
1,76,100,0
1,81,100,0
1,76,100,144
1,81,100,0
1,76,100,96
1,78,100,84
1,81,100,0
1,76,100,0
1,81,100,108
1,76,100,0
1,78,100,192
1,86,100,96
1,74,100,0
1,81,100,0
1,86,100,176
1,74,100,0
1,81,100,0
1,86,100,128
1,74,100,0
1,79,100,0
1,81,100,160
1,86,100,0
1,74,100,0
1,86,100,96
1,81,100,0
1,74,100,0
1,79,100,0
1,74,100,0
1,81,100,0
1,76,100,76
1,81,100,0
1,81,100,144
1,76,100,0
1,76,100,64
1,78,100,192
1,76,100,0
1,81,100,0
1,76,100,144
1,81,100,0
1,76,100,96
1,78,100,84
1,81,100,0
1,76,100,0
1,81,100,108
1,76,100,0
1,78,100,192
1,74,100,96
1,79,100,0
1,71,100,96
1,76,100,0
1,74,100,276
1,79,100,0
1,71,100,72
1,76,100,0
1,79,100,272
1,74,100,0
1,71,100,96
1,76,100,0
1,69,100,156
1,74,100,0
1,67,100,152
1,72,100,0
1,67,100,128
1,72,100,0
1,69,100,48
1,72,100,48
1,67,100,0
1,74,100,152
1,69,100,0
1,81,107,112
1,73,100,2
1,69,118,0
2,74,74,384
2,82,86,0
2,77,90,0
2,77,95,80
2,74,77,0
2,82,90,0
2,71,86,160
2,74,95,0
2,79,90,0
2,77,107,320
2,74,90,0
2,82,96,0
2,82,111,80
2,74,90,0
2,77,107,0
2,71,100,160
2,74,107,0
2,79,95,0
2,74,82,320
2,77,95,0
2,82,90,0
2,77,95,88
2,74,86,0
2,82,103,0
2,74,95,224
2,71,82,0
2,79,90,0
2,69,82,192
2,77,82,0
2,72,90,0
2,70,96,224
2,75,90,0
2,67,95,0
2,70,90,192
2,75,86,0
2,67,82,0
2,70,90,120
2,67,90,0
2,75,82,0
2,72,79,80
2,70,96,100
2,67,95,0
2,75,96,0
2,69,90,224
2,72,95,0
2,77,95,0
2,67,95,240
2,76,82,0
2,72,90,0
2,86,86,528
2,91,82,0
2,88,77,24
2,86,72,0
2,84,72,192
2,74,70,28
2,76,69,92
2,79,79,72
2,84,90,192
2,74,74,30656
2,82,86,0
2,77,90,0
2,77,95,80
2,74,77,0
2,82,90,0
2,71,86,160
2,74,95,0
2,79,90,0
2,77,107,320
2,74,90,0
2,82,96,0
2,82,111,80
2,74,90,0
2,77,107,0
2,71,100,160
2,74,107,0
2,79,95,0
2,74,82,320
2,77,95,0
2,82,90,0
2,77,95,88
2,74,86,0
2,82,103,0
2,74,95,224
2,71,82,0
2,79,90,0
2,69,82,192
2,77,82,0
2,72,90,0
2,70,96,224
2,75,90,0
2,67,95,0
2,70,90,192
2,75,86,0
2,67,82,0
2,70,90,120
2,67,90,0
2,75,82,0
2,72,79,80
2,70,96,100
2,67,95,0
2,75,96,0
2,69,90,224
2,72,95,0
2,77,95,0
2,67,95,240
2,76,82,0
2,72,90,0
2,86,86,528
2,91,82,0
2,88,77,24
2,86,72,0
2,84,72,192
2,74,70,28
2,76,69,92
2,79,79,72
2,84,90,192
2,74,74,30656
2,82,86,0
2,77,90,0
2,77,95,80
2,74,77,0
2,82,90,0
2,71,86,160
2,74,95,0
2,79,90,0
2,77,107,320
2,74,90,0
2,82,96,0
2,82,111,80
2,74,90,0
2,77,107,0
2,71,100,160
2,74,107,0
2,79,95,0
2,74,82,320
2,77,95,0
2,82,90,0
2,77,95,88
2,74,86,0
2,82,103,0
2,74,95,224
2,71,82,0
2,79,90,0
2,69,82,192
2,77,82,0
2,72,90,0
2,70,96,224
2,75,90,0
2,67,95,0
2,70,90,192
2,75,86,0
2,67,82,0
2,70,90,120
2,67,90,0
2,75,82,0
2,72,79,80
2,70,96,100
2,67,95,0
2,75,96,0
2,69,90,224
2,72,95,0
2,77,95,0
2,52,86,384
2,55,64,192
2,64,90,192
2,59,90,192
2,55,74,144
2,52,69,168
2,52,68,0
2,55,64,192
2,64,90,192
2,60,60,192
2,55,65,4
2,52,73,192
2,50,63,336
2,55,79,192
2,62,72,192
2,59,86,192
2,55,72,32
2,50,64,192
2,57,58,160
2,54,73,192
2,62,64,192
2,57,65,308
2,59,66,192
2,62,60,144
2,55,53,192
2,67,95,500
2,66,82,16
2,64,96,208
2,62,72,160
2,62,58,192
2,67,65,192
2,55,70,0
2,59,86,0
2,55,59,1316
2,74,70,192
2,69,86,0
2,71,78,0
2,69,72,0
2,71,65,0
2,67,70,0
2,55,53,896
2,62,67,192
2,67,90,192
2,71,90,192
2,74,62,16
2,62,74,0
2,66,78,192
2,69,67,192
2,62,69,64
2,76,82,340
2,81,59,0
2,78,63,0
2,74,57,192
2,62,61,16
2,69,62,144
2,55,55,0
2,62,61,192
2,67,63,192
2,74,65,24
2,69,77,0
2,74,67,80
2,71,75,0
2,69,72,112
2,74,65,0
2,71,75,0
2,69,70,0
2,67,65,0
2,59,69,192
2,62,70,0
2,67,65,96
2,71,86,192
2,55,58,32
2,62,54,180
2,67,61,384
2,55,50,68
2,62,58,384
2,67,62,144
2,62,60,224
2,74,70,144
2,69,74,0
2,71,63,16
2,69,65,48
2,71,65,192
2,67,67,0
2,55,48,144
2,62,61,192
2,67,53,120
2,55,58,68
2,62,56,68
2,79,69,188
2,74,74,0
2,62,67,180
2,79,70,192
2,74,86,0
2,62,69,144
2,79,74,0
2,74,79,0
2,62,67,16
2,62,70,112
2,74,64,0
2,78,67,0
2,69,69,384
2,62,53,64
2,66,60,96
2,69,72,192
2,81,57,384
2,76,86,0
2,78,75,0
2,76,73,0
2,74,65,192
2,69,74,80
2,74,65,144
2,69,60,8
2,67,72,304
2,71,86,192
2,79,61,192
2,74,57,384
2,74,82,160
2,79,70,0
2,67,74,64
2,74,82,32
2,79,65,0
2,67,100,16
2,79,72,96
2,74,82,0
2,67,77,148
2,60,61,160
2,72,67,0
2,76,86,0
2,64,60,960
2,72,70,144
2,67,59,192
2,62,64,80
2,74,59,0
2,66,67,192
2,74,58,260
2,67,90,480
2,79,62,0
2,71,82,192
2,74,61,192
2,79,59,16
2,66,75,0
2,78,67,0
2,71,67,192
2,74,61,96
2,78,60,0
2,64,78,100
2,76,75,0
2,67,70,188
2,71,73,8
2,76,68,16
2,62,60,32
2,74,61,0
2,67,62,192
2,71,68,128
2,74,60,112
2,60,63,48
2,76,69,0
2,67,64,192
2,72,61,192
2,74,62,320
2,62,61,0
2,66,66,192
2,69,61,192
2,74,61,136
2,79,62,544
2,67,95,0
2,71,78,192
2,74,60,0
2,79,56,192
2,78,66,4
2,66,82,0
2,71,66,16
2,74,61,192
2,78,61,4
2,64,78,96
2,76,73,0
2,67,60,192
2,71,69,192
2,76,73,0
2,62,53,16
2,74,59,0
2,67,63,192
2,71,67,180
2,74,60,16
2,60,55,84
2,72,60,0
2,76,60,0
2,67,64,188
2,74,69,320
2,79,65,0
2,76,73,32
2,74,67,16
2,72,69,192
2,62,56,0
2,69,69,144
2,81,60,192
2,76,90,0
2,81,46,32
2,78,86,0
2,74,64,384
2,67,58,312
2,86,67,384
2,81,70,0
2,83,73,0
2,81,65,0
2,79,69,8
2,69,65,0
2,71,75,192
2,67,95,20
2,66,82,16
2,64,96,128
2,62,72,160
2,62,58,192
2,67,65,192
2,55,70,0
2,59,86,0
2,67,95,360
2,66,82,16
2,64,96,208
2,62,72,160
2,62,58,192
2,67,65,192
2,55,70,0
2,59,86,0
2,71,65,356
2,67,70,0
2,71,65,384
2,67,70,0
2,55,53,960
2,62,67,192
2,67,90,192
2,71,90,192
2,74,62,16
2,62,74,0
2,66,78,192
2,69,67,192
2,62,69,64
2,76,82,340
2,81,59,0
2,78,63,0
2,74,57,192
2,62,61,16
2,69,62,144
2,55,55,0
2,62,61,192
2,67,63,192
2,74,65,24
2,69,77,0
2,74,67,80
2,71,75,0
2,69,72,112
2,74,65,0
2,71,75,0
2,69,70,0
2,67,65,0
2,59,69,192
2,62,70,0
2,67,65,96
2,71,86,192
2,55,58,32
2,62,54,180
2,67,61,384
2,55,50,68
2,62,58,384
2,67,62,144
