track,note,velocity,time
0,45,127,1528
0,50,127,0
0,57,127,20
0,62,127,8
0,66,127,8
0,45,127,216
0,50,127,4
0,57,127,12
0,62,127,12
0,66,127,20
0,66,127,24
0,62,127,12
0,57,127,8
0,50,127,12
0,45,127,96
0,50,127,0
0,57,127,4
0,62,127,8
0,66,127,8
0,45,127,204
0,52,127,12
0,57,127,4
0,61,127,12
0,61,127,20
0,57,127,8
0,52,127,4
0,45,127,20
0,43,127,272
0,47,127,12
0,50,127,12
0,55,127,8
0,43,127,16
0,47,127,8
0,50,127,8
0,55,127,8
0,35,127,260
0,50,127,4
0,45,109,0
0,42,114,0
0,38,114,0
0,62,127,8
0,57,127,4
0,66,127,20
0,38,127,188
0,47,109,0
0,42,114,0
0,50,127,28
0,57,127,8
0,62,127,8
0,66,127,4
0,35,127,124
0,45,109,0
0,42,114,0
0,38,114,0
0,66,127,0
0,57,127,4
0,62,127,0
0,50,127,0
0,42,98,0
0,38,127,120
0,47,109,0
0,42,114,0
0,66,127,0
0,62,127,0
0,62,127,32
0,66,127,0
0,57,127,8
0,50,127,4
0,42,98,36
0,35,127,120
0,45,109,0
0,42,114,0
0,38,114,0
0,66,127,4
0,62,127,0
0,57,127,0
0,50,127,0
0,38,127,4
0,47,109,0
0,42,114,0
0,66,127,0
0,62,127,4
0,66,127,120
0,62,127,4
0,57,127,8
0,35,127,144
0,45,109,0
0,42,114,0
0,38,114,0
0,66,127,0
0,62,127,0
0,57,127,4
0,50,127,8
0,42,98,12
0,57,127,4
0,66,127,0
0,62,127,0
0,38,127,24
0,47,109,0
0,42,114,0
0,42,98,36
0,35,127,124
0,45,109,0
0,42,114,0
0,38,114,0
0,66,127,0
0,50,127,0
0,57,127,20
0,62,127,8
0,66,127,8
0,38,127,216
0,66,127,0
0,47,109,0
0,42,114,0
0,50,127,0
0,57,127,4
0,62,127,16
0,66,127,20
0,35,127,204
0,45,109,0
0,42,114,0
0,38,114,0
0,42,98,16
0,66,127,0
0,62,127,8
0,57,127,12
0,50,127,12
0,38,127,92
0,62,127,0
0,42,114,0
0,47,109,0
0,42,98,0
0,45,127,108
0,52,125,12
0,35,127,0
0,64,127,0
0,45,109,0
0,42,114,0
0,33,114,0
0,57,123,0
0,61,120,8
0,35,127,172
0,45,87,0
0,61,127,20
0,38,127,0
0,62,127,0
0,42,114,0
0,52,127,0
0,57,127,0
0,47,109,4
0,45,127,20
0,42,82,60
0,43,127,108
0,35,127,0
0,64,127,0
0,42,98,0
0,47,127,0
0,45,109,0
0,31,114,0
0,50,127,12
0,55,127,12
0,43,127,20
0,47,127,8
0,50,127,8
0,38,127,0
0,55,127,0
0,47,109,0
0,42,114,0
0,42,98,4
0,66,127,0
0,35,127,112
0,50,119,4
0,45,109,0
0,42,114,0
0,38,114,0
0,62,125,8
0,57,125,4
0,66,118,20
0,62,127,140
0,38,127,0
0,42,114,0
0,47,109,0
0,50,125,28
0,57,125,4
0,62,125,12
0,66,125,4
0,42,82,172
0,35,127,124
0,45,109,0
0,42,98,0
0,38,114,0
0,66,125,4
0,57,125,4
0,62,125,0
0,50,125,0
0,47,109,124
0,38,127,0
0,42,114,0
0,66,125,0
0,62,125,0
0,62,125,32
0,66,125,0
0,50,125,8
0,57,125,0
0,42,82,36
0,35,127,124
0,45,109,4
0,42,114,0
0,38,114,0
0,66,125,4
0,62,125,0
0,57,125,0
0,42,82,0
0,50,125,0
0,38,127,8
0,47,109,0
0,42,114,0
0,62,125,4
0,66,125,0
0,66,125,120
0,62,125,4
0,57,125,8
0,35,127,144
0,45,109,0
0,42,114,0
0,38,114,0
0,66,125,0
0,62,125,0
0,57,125,4
0,50,125,8
0,57,125,4
0,66,125,0
0,62,125,0
0,38,127,24
0,47,109,0
0,42,114,0
0,35,127,164
0,66,127,0
0,45,109,0
0,42,114,0
0,38,114,0
0,50,127,0
0,57,127,20
0,62,127,8
0,66,127,8
0,38,127,216
0,66,127,0
0,47,109,0
0,42,114,0
0,50,127,0
0,57,127,4
0,62,127,16
0,66,127,16
0,35,127,204
0,45,109,0
0,42,114,0
0,38,114,0
0,42,98,20
0,66,124,0
0,62,122,8
0,57,117,8
0,50,116,16
0,38,127,92
0,62,127,0
0,47,109,0
0,42,114,0
0,45,113,0
0,50,119,0
0,57,120,4
0,62,118,8
0,66,118,4
0,42,98,88
0,45,127,108
0,52,125,12
0,35,127,0
0,64,127,4
0,45,109,0
0,42,114,0
0,33,114,0
0,57,123,0
0,61,120,8
0,35,82,176
0,61,127,12
0,38,127,0
0,42,114,0
0,52,127,0
0,57,127,0
0,47,109,4
0,45,127,0
0,42,82,60
0,43,127,0
0,35,127,0
0,66,127,0
0,42,98,0
0,47,127,0
0,45,109,0
0,31,114,0
0,50,127,4
0,55,127,8
0,43,127,16
0,47,127,8
0,50,127,4
0,38,127,4
0,62,127,0
0,47,109,0
0,42,114,0
0,55,127,0
0,62,127,40
0,42,98,0
0,35,127,120
0,50,119,4
0,45,109,0
0,42,114,0
0,38,114,0
0,62,125,8
0,57,125,4
0,66,118,20
0,38,127,184
0,47,109,0
0,42,114,0
0,50,125,28
0,57,125,8
0,62,125,8
0,66,125,4
0,42,82,172
0,35,127,128
0,42,98,0
0,38,114,0
0,45,109,0
0,66,125,4
0,57,125,0
0,62,125,0
0,50,125,0
0,38,127,120
0,47,109,0
0,42,114,0
0,66,125,0
0,62,125,0
0,62,125,32
0,66,125,0
0,57,125,8
0,50,125,4
0,42,82,36
0,35,127,120
0,45,109,0
0,42,114,0
0,38,114,0
0,66,125,4
0,62,125,0
0,57,125,0
0,45,87,0
0,50,125,0
0,38,127,4
0,42,114,0
0,66,125,0
0,47,109,0
0,62,125,4
0,66,125,120
0,62,125,4
0,57,125,8
0,35,127,144
0,45,109,0
0,42,98,0
0,38,114,0
0,66,125,0
0,62,125,0
0,57,125,4
0,50,125,8
0,42,82,8
0,57,125,4
0,66,125,4
0,62,125,0
0,38,127,24
0,47,109,0
0,42,114,0
0,42,82,36
0,35,127,124
0,66,127,0
0,45,109,0
0,42,114,0
0,38,114,0
0,50,127,0
0,57,127,20
0,62,127,8
0,66,127,8
0,38,127,216
0,66,127,0
0,47,109,0
0,42,114,0
0,50,127,0
0,57,127,4
0,62,127,16
0,66,127,16
0,35,127,204
0,45,109,0
0,42,114,0
0,38,114,0
0,42,98,20
0,66,127,0
0,62,127,8
0,57,127,12
0,50,127,12
0,38,127,92
0,62,127,0
0,47,109,0
0,42,114,0
0,45,113,0
0,50,125,0
0,57,127,4
0,62,123,8
0,66,118,8
0,42,98,44
0,45,127,112
0,52,125,8
0,35,127,4
0,64,127,4
0,45,109,0
0,42,114,0
0,33,114,0
0,57,123,0
0,61,120,8
0,61,127,20
0,38,127,0
0,62,127,0
0,57,127,0
0,42,114,0
0,52,127,4
0,47,109,0
0,45,127,20
0,43,127,172
0,35,127,0
0,64,127,0
0,45,109,0
0,42,114,0
0,47,127,0
0,31,114,0
0,50,127,12
0,55,127,12
0,43,127,20
0,47,127,8
0,50,127,8
0,38,127,0
0,47,109,0
0,42,114,0
0,55,127,0
0,66,127,16
0,35,127,72
0,50,119,4
0,45,109,0
0,42,114,0
0,38,114,0
0,62,125,8
0,57,125,4
0,66,118,20
0,38,127,136
0,62,127,0
0,47,109,0
0,42,114,0
0,50,125,28
0,57,125,8
0,62,125,8
0,66,125,4
0,35,127,124
0,45,109,0
0,42,114,0
0,38,114,0
0,66,125,0
0,57,125,4
0,62,125,0
0,42,98,0
0,50,125,4
0,38,127,120
0,47,109,0
0,42,114,0
0,66,125,0
0,62,125,0
0,62,125,32
0,66,125,0
0,50,125,8
0,57,125,0
0,42,98,40
0,35,127,120
0,45,109,0
0,42,114,0
0,38,114,0
0,66,125,0
0,62,125,4
0,57,125,0
0,50,125,0
0,38,127,4
0,47,109,0
0,42,114,0
0,66,125,0
0,62,125,4
0,66,125,120
0,62,125,4
0,57,125,8
0,35,127,144
0,45,109,0
0,42,114,0
0,38,114,0
0,66,125,0
0,62,125,0
0,57,125,4
0,50,125,8
0,42,98,8
0,57,125,4
0,66,125,0
0,62,125,4
0,38,127,24
0,47,109,0
0,42,114,0
0,42,98,40
0,35,127,120
0,66,127,0
0,45,109,0
0,42,114,0
0,50,127,0
0,38,114,0
0,57,127,20
0,62,127,8
0,66,127,8
0,38,127,216
0,66,127,0
0,42,114,0
0,50,127,0
0,47,109,0
0,57,127,4
0,62,127,12
0,66,127,24
0,35,127,204
0,45,109,0
0,42,114,0
0,38,114,0
0,42,98,24
0,38,127,120
0,62,127,0
0,47,109,0
0,42,114,0
0,45,127,0
0,50,127,8
0,57,127,16
0,62,127,8
0,66,127,8
0,42,98,0
0,45,127,64
0,52,125,12
0,35,127,0
0,64,127,4
0,45,109,0
0,42,114,0
0,33,114,0
0,57,123,0
0,61,120,8
0,61,127,4
0,38,127,0
0,57,127,0
0,42,114,0
0,52,127,0
0,47,109,4
0,45,127,16
0,43,127,16
0,35,127,0
0,66,127,0
0,45,109,0
0,42,114,0
0,47,127,0
0,31,114,0
0,50,127,12
0,55,127,12
0,43,127,16
0,47,127,8
0,50,127,8
0,38,127,0
0,62,127,0
0,42,114,0
0,55,127,0
0,47,109,0
0,62,127,40
0,35,127,124
0,50,119,4
0,45,109,0
0,42,114,0
0,38,114,0
0,62,125,8
0,57,125,4
0,66,118,20
0,47,109,188
0,38,127,0
0,42,114,0
0,50,125,28
0,57,125,4
0,62,125,12
0,66,125,4
0,35,127,128
0,42,114,0
0,38,114,0
0,45,109,0
0,66,125,4
0,57,125,0
0,62,125,0
0,42,98,0
0,50,125,0
0,38,127,124
0,47,109,0
0,42,114,0
0,66,125,0
0,62,125,0
0,62,125,32
0,66,125,0
0,57,125,8
0,50,125,4
0,42,98,36
0,35,127,120
0,45,109,0
0,42,114,0
0,38,114,0
0,66,125,0
0,62,125,4
0,57,125,0
0,42,98,0
0,50,125,4
0,45,109,24
0,38,127,4
0,42,114,0
0,47,109,0
0,62,125,4
0,66,125,0
0,66,125,136
0,62,125,4
0,57,125,4
0,42,98,20
0,35,127,120
0,45,109,0
0,42,114,0
0,38,114,0
0,42,98,176
0,57,125,0
0,66,125,4
0,62,125,4
0,38,127,24
0,47,109,0
0,42,114,0
0,42,98,36
0,35,127,124
0,43,127,0
0,45,99,0
0,42,114,0
0,31,114,0
0,67,127,0
0,38,127,236
0,67,127,0
0,47,99,0
0,42,114,0
0,55,127,0
0,59,127,4
0,67,127,16
0,35,127,196
0,42,114,0
0,67,127,0
0,45,99,0
0,31,114,0
0,38,127,148
0,64,127,0
0,42,114,0
0,47,127,0
0,47,99,0
0,50,127,4
0,55,127,4
0,59,127,4
0,67,127,8
0,62,127,4
0,35,127,120
0,45,99,4
0,42,114,0
0,31,114,0
0,38,127,12
0,42,114,0
0,47,127,0
0,47,99,4
0,50,127,4
0,67,127,12
0,59,127,4
0,55,127,8
0,42,98,56
0,50,127,0
0,59,127,0
0,55,127,0
0,67,127,12
0,35,127,16
0,42,114,0
0,45,99,0
0,31,114,0
0,62,127,176
0,47,127,4
0,50,127,4
0,38,127,0
0,64,127,0
0,42,114,0
0,55,127,0
0,59,127,0
0,47,99,0
0,67,127,8
0,35,127,0
0,42,114,4
0,66,127,0
0,50,127,4
0,45,99,0
0,38,114,0
0,66,127,136
0,57,127,0
0,62,127,0
0,47,99,0
0,38,127,0
0,42,114,0
0,66,127,24
0,35,127,124
0,66,127,0
0,42,114,0
0,45,99,0
0,38,114,0
0,38,127,40
0,64,127,0
0,42,114,0
0,50,127,0
0,47,99,0
0,62,127,4
0,57,127,8
0,66,127,12
0,62,127,80
0,45,99,128
0,35,127,0
0,42,114,0
0,38,114,0
0,59,127,12
0,60,127,0
0,38,127,16
0,42,114,0
0,62,127,0
0,47,99,0
0,57,127,0
0,66,127,0
0,42,98,16
0,35,127,124
0,42,114,0
0,38,114,0
0,45,99,0
0,35,98,68
0,45,99,0
0,42,98,0
0,38,127,60
0,50,127,0
0,42,114,0
0,47,99,0
0,62,127,4
0,57,127,8
0,66,127,0
0,42,98,40
0,35,127,24
0,64,127,0
0,45,99,0
0,42,114,0
0,33,114,0
0,45,127,0
0,38,127,300
0,52,127,0
0,42,114,0
0,47,99,0
0,57,127,4
0,61,127,16
0,64,127,12
0,42,82,76
0,35,127,124
0,42,98,0
0,33,114,0
0,45,99,0
0,38,127,0
0,42,114,0
0,64,127,0
0,52,127,0
0,47,99,0
0,57,127,0
0,61,127,4
0,64,127,4
0,42,82,0
0,64,127,0
0,35,127,8
0,45,99,4
0,42,114,0
0,31,114,0
0,43,127,0
0,47,127,4
0,62,127,108
0,38,127,124
0,42,114,0
0,47,127,4
0,47,99,0
0,50,127,12
0,55,127,4
0,59,127,12
0,67,127,4
0,55,127,64
0,42,82,60
0,35,127,120
0,62,127,0
0,42,98,0
0,45,99,0
0,31,114,0
0,43,127,4
0,38,127,4
0,42,114,0
0,62,127,0
0,47,127,0
0,47,99,0
0,50,127,0
0,55,127,4
0,59,127,4
0,67,127,8
0,62,127,44
0,42,82,0
0,35,127,48
0,50,127,0
0,45,99,0
0,42,114,0
0,38,114,0
0,38,127,300
0,57,127,0
0,42,114,0
0,47,99,0
0,62,127,4
0,66,127,20
0,35,127,124
0,42,114,0
0,45,99,0
0,38,114,0
0,38,127,40
0,50,127,0
0,42,114,0
0,47,99,0
0,62,127,4
0,57,127,8
0,66,127,12
0,35,127,204
0,45,99,0
0,42,114,0
0,38,114,0
0,42,98,176
0,38,127,120
0,47,99,0
0,42,114,0
0,62,127,4
0,57,127,0
0,66,127,0
0,42,98,20
0,35,127,120
0,42,114,0
0,38,114,0
0,45,99,0
0,42,98,68
0,38,127,124
0,50,127,0
0,42,114,0
0,47,99,0
0,62,127,4
0,57,127,4
0,66,127,0
0,42,98,36
0,35,127,0
0,42,114,0
0,66,127,0
0,45,109,0
0,50,127,4
0,38,114,0
0,57,127,16
0,62,127,8
0,66,127,8
0,38,127,216
0,42,114,0
0,66,127,0
0,50,127,0
0,47,109,0
0,57,127,4
0,62,127,16
0,66,127,20
0,35,127,208
0,42,114,0
0,45,109,0
0,38,114,0
0,42,98,20
0,66,127,0
0,62,127,8
0,57,127,8
0,50,127,16
0,38,127,92
0,42,114,0
0,62,127,0
0,47,109,0
0,42,98,0
0,45,127,108
0,52,125,12
0,35,127,0
0,64,127,0
0,45,109,0
0,42,114,0
0,33,114,0
0,57,123,0
0,61,120,8
0,45,87,176
0,35,82,0
0,61,127,20
0,38,127,0
0,42,114,0
0,62,127,0
0,52,127,0
0,57,127,0
0,47,109,4
0,45,127,20
0,42,82,56
0,43,127,124
0,35,127,0
0,42,98,0
0,31,114,0
0,47,127,0
0,45,109,0
0,50,127,12
0,55,127,4
0,43,127,16
0,47,127,4
0,50,127,8
0,38,127,0
0,42,114,0
0,55,127,0
0,47,109,0
0,42,98,36
0,66,127,0
0,35,127,124
0,50,119,4
0,45,109,0
0,42,114,0
0,38,114,0
0,54,85,0
0,62,125,8
0,57,125,4
0,66,118,20
0,38,127,96
0,62,95,0
0,42,114,0
0,62,127,0
0,47,109,0
0,50,125,28
0,57,125,8
0,62,125,8
0,66,125,4
0,42,82,172
0,35,127,128
0,42,98,0
0,45,109,0
0,38,114,0
0,66,125,0
0,57,125,4
0,62,125,0
0,59,97,0
0,50,125,0
0,38,127,4
0,47,109,0
0,42,114,0
0,62,125,0
0,66,125,0
0,62,125,32
0,66,125,0
0,57,125,8
0,50,125,4
0,53,105,20
0,42,82,16
0,54,95,4
0,35,127,8
0,45,109,4
0,42,114,0
0,38,114,0
0,62,75,0
0,62,125,0
0,66,125,0
0,57,125,0
0,42,82,0
0,50,125,0
0,57,95,4
0,38,127,0
0,42,114,0
0,47,109,0
0,62,125,4
0,66,125,0
0,66,125,48
0,62,125,4
0,57,125,8
0,59,115,20
0,35,127,144
0,42,114,0
0,45,109,0
0,38,114,0
0,66,125,0
