track,note,velocity,time
1,38,84,4606
1,38,84,64
1,38,84,104
1,38,84,74
1,38,84,84
1,38,84,104
1,33,84,64
1,31,84,96
1,38,84,84
1,38,84,64
1,38,84,104
1,38,84,74
1,38,84,84
1,38,84,104
1,33,84,62
1,31,84,96
1,38,84,84
1,38,84,64
1,38,84,104
1,38,84,74
1,38,84,84
1,38,84,104
1,33,84,64
1,31,84,96
1,38,84,84
1,38,84,64
1,38,84,104
1,38,84,74
1,38,84,86
1,38,84,104
1,33,84,64
1,31,84,96
1,38,84,84
1,38,84,64
1,38,84,104
1,38,84,74
1,31,84,84
1,31,84,106
1,31,84,64
1,31,84,96
1,38,84,88
1,38,84,66
1,38,84,104
1,38,84,74
1,33,84,84
1,33,84,104
1,31,84,64
1,31,84,96
1,38,84,86
1,38,84,66
1,38,84,104
1,38,84,74
1,38,84,88
1,38,84,106
1,33,84,64
1,31,84,94
1,38,84,84
1,38,84,66
1,38,84,104
1,38,84,76
1,38,84,88
1,38,84,104
1,33,84,64
1,31,84,96
1,38,84,84
1,38,84,66
1,38,84,104
1,38,84,74
1,38,84,88
1,38,84,104
1,33,84,64
1,31,84,96
1,38,84,84
1,38,84,64
1,38,84,104
1,38,84,74
1,38,84,88
1,38,84,106
1,33,84,64
1,31,84,96
1,38,84,84
1,38,84,64
1,38,84,104
1,38,70,40
1,38,84,112
1,38,78,40
1,31,84,124
1,31,84,108
1,31,84,64
1,31,84,92
1,38,84,86
1,38,84,66
1,38,84,104
1,38,84,74
1,33,84,84
1,33,84,104
1,31,84,64
1,31,84,96
1,38,84,84
1,38,84,66
1,38,84,104
1,33,84,74
1,35,84,94
1,37,84,76
1,38,84,92
1,38,84,104
1,33,84,64
1,31,84,94
1,38,84,88
1,38,84,64
1,38,84,104
1,33,70,76
1,35,71,56
1,37,72,56
1,38,84,32
1,38,84,104
1,33,84,64
1,31,84,96
1,38,84,86
1,33,80,60
1,38,84,68
1,38,84,68
1,40,71,36
1,42,72,54
1,43,84,36
1,38,84,106
1,43,77,64
1,43,73,22
1,38,60,72
1,38,58,2
1,43,64,20
1,38,84,96
1,33,84,104
1,38,77,64
1,38,73,20
1,33,75,72
1,38,76,42
1,33,84,92
1,33,84,104
1,31,74,66
1,31,74,94
1,38,74,84
1,33,74,66
1,38,74,104
1,33,74,76
1,38,84,76
1,38,84,106
1,33,84,64
1,31,84,96
1,38,84,84
1,38,84,66
1,38,84,104
1,38,84,74
1,38,84,84
1,38,84,106
1,33,84,64
1,31,84,96
1,38,84,86
1,38,84,66
1,38,84,104
1,38,84,74
1,38,84,84
1,38,84,106
1,33,84,64
1,31,84,94
1,38,84,84
1,38,84,64
1,38,84,104
1,38,84,74
1,38,84,86
1,38,84,104
1,33,84,64
1,31,84,98
1,38,84,86
1,38,84,64
1,38,84,104
1,38,70,34
1,38,84,112
1,38,45,94
1,31,84,122
1,31,84,108
1,31,84,64
1,31,84,96
1,38,84,84
1,38,84,66
1,38,84,104
1,38,84,74
1,33,84,84
1,33,84,104
1,31,84,64
1,31,84,96
1,38,84,84
1,38,84,64
1,38,84,104
1,38,84,72
1,40,84,94
1,42,84,74
1,43,84,94
1,43,84,108
1,43,77,64
1,43,73,20
1,38,70,72
1,38,73,2
1,43,64,22
1,38,84,94
1,38,84,106
1,38,77,64
1,38,73,20
1,38,75,72
1,38,76,42
1,33,84,92
1,33,84,104
1,31,84,64
1,31,84,96
1,38,84,84
1,38,84,66
1,38,84,104
2,66,50,26112
2,74,60,132
2,71,62,2
2,65,70,124
2,66,60,2
2,74,40,2
2,69,60,2
2,71,80,40
2,69,105,2
2,65,60,12
2,66,60,2
2,74,50,1468
2,74,60,172
2,71,62,2
2,65,70,124
2,66,60,2
2,74,40,2
2,69,60,2
2,71,80,40
2,69,105,2
2,65,60,12
2,66,60,2
2,66,50,1468
2,74,60,132
2,71,62,2
2,65,70,124
2,66,60,2
2,74,40,2
2,69,60,2
2,71,80,40
2,69,105,2
2,65,60,12
2,66,60,2
2,65,60,1394
2,66,70,2
2,74,50,82
2,65,60,8640
2,66,50,2
2,74,60,132
2,71,62,2
2,65,70,124
2,66,60,0
2,74,40,2
2,71,40,2
2,69,40,48
2,74,32,32
2,71,60,2252
2,65,82,100
2,66,90,12
2,69,70,74
2,71,70,4
2,69,70,110
2,71,70,84
2,71,44,316
2,71,44,60
2,71,44,0
2,71,44,70
2,71,44,52
2,71,44,8
2,71,44,96
2,69,44,338
2,69,44,60
2,69,44,2
2,69,44,70
2,69,44,52
2,66,44,4
2,69,44,94
2,71,62,1424
2,68,62,40
2,69,62,6
2,69,62,26
2,71,62,4
2,68,62,4
2,69,62,2
2,69,62,24
2,71,62,14
2,68,62,2
2,69,62,2
2,69,62,12
2,71,62,66
2,68,62,2
2,69,62,2
2,69,62,28
2,71,62,8
2,74,60,1882
2,71,62,2
2,65,70,124
2,66,60,2
2,74,40,2
2,69,60,2
2,71,70,24
2,69,105,168
2,74,50,1706
2,74,60,172
2,71,62,2
2,65,70,124
2,66,60,2
2,71,40,0
2,71,60,2
2,71,80,20
2,69,105,2
2,66,50,1634
2,74,60,132
2,71,62,2
2,65,70,124
2,66,60,2
2,74,40,0
2,69,60,2
2,71,80,20
2,69,105,2
2,65,60,1560
2,66,70,2
2,74,40,82
2,71,42,2
2,65,50,124
2,66,40,2
2,74,31,2
2,69,40,2
2,71,50,20
2,69,50,0
3,45,94,4606
3,47,94,152
3,45,94,152
3,47,94,152
3,45,94,152
3,47,94,162
3,45,94,152
3,47,94,152
3,45,94,152
3,47,94,152
3,45,94,152
3,47,94,154
3,45,94,152
3,45,72,88
3,47,94,28
3,45,94,156
3,47,94,152
3,45,94,152
3,47,94,154
3,45,94,152
3,47,94,152
3,45,94,152
3,47,94,152
3,45,94,152
3,47,94,152
3,45,94,152
3,47,94,152
3,45,94,152
3,47,94,152
3,45,94,152
3,47,94,156
3,45,94,156
3,47,94,152
3,45,94,152
3,47,94,152
3,45,94,154
3,47,94,152
3,45,94,152
3,45,72,88
3,47,94,26
3,45,94,152
3,47,94,152
3,45,94,152
3,47,94,152
3,45,94,152
3,47,94,152
3,45,94,152
3,47,94,156
3,45,94,154
3,47,94,152
3,45,94,152
3,47,94,152
3,45,94,152
3,47,94,152
3,45,94,152
3,47,94,152
3,45,94,152
3,47,94,152
3,45,94,152
3,47,94,154
3,45,94,152
3,47,94,152
3,45,94,152
3,47,94,156
3,45,94,154
3,47,94,154
3,45,94,152
3,47,94,152
3,45,94,154
3,47,94,152
3,45,94,152
3,45,94,104
3,47,94,18
3,45,94,160
3,47,94,152
3,45,84,152
3,47,84,152
3,45,84,154
3,47,84,154
3,45,84,152
3,47,84,156
3,45,84,156
3,47,84,154
3,45,84,156
3,47,84,144
3,45,84,154
3,47,84,154
3,45,84,152
3,47,84,154
3,45,84,154
3,45,84,88
3,47,84,34
3,45,84,152
3,47,84,154
3,45,84,154
3,47,84,154
3,45,84,152
3,47,84,156
3,45,84,156
3,47,84,154
3,45,84,152
3,47,84,154
3,45,84,154
3,47,84,154
3,45,84,152
3,47,84,152
3,45,84,154
3,47,84,154
3,45,94,154
3,47,94,154
3,45,94,154
3,47,94,154
3,45,94,152
3,45,72,88
3,47,94,36
3,45,94,158
3,47,94,154
3,45,94,152
3,47,94,154
3,45,94,154
3,47,94,152
3,45,94,152
3,47,94,154
3,45,94,154
3,47,94,152
3,45,94,154
3,47,94,154
3,45,94,154
3,47,94,154
3,45,94,152
3,47,94,156
3,45,94,156
3,47,94,154
3,45,94,152
3,47,94,154
3,45,94,154
3,47,94,152
3,45,94,152
3,45,94,104
3,47,94,10
3,45,94,154
3,47,94,154
3,45,94,154
3,47,94,154
3,45,94,154
3,47,94,154
3,45,94,152
3,47,94,156
3,45,94,156
3,47,94,152
3,45,94,152
3,47,94,154
3,45,94,154
3,47,94,152
3,45,94,152
3,47,94,154
3,45,94,154
3,47,94,152
3,45,94,154
3,47,94,154
3,45,94,154
3,47,94,154
3,45,94,152
3,47,94,156
3,45,94,156
3,47,94,154
3,45,94,152
3,47,94,154
3,45,94,154
3,47,94,154
3,45,94,152
3,45,94,104
3,47,94,10
3,45,94,154
3,47,94,154
3,45,84,152
3,47,84,154
3,45,84,154
3,47,84,154
3,45,84,152
3,47,84,156
3,45,84,156
3,47,84,154
3,45,84,152
3,47,84,154
3,45,84,154
3,47,84,154
3,45,84,152
3,47,84,152
3,45,84,154
3,45,84,88
3,47,84,26
3,45,84,152
3,47,84,154
3,45,84,154
3,47,84,154
3,45,84,152
3,47,84,156
3,45,84,156
3,47,84,154
3,45,84,152
3,47,84,154
3,45,84,154
3,47,84,154
3,45,84,152
3,45,84,154
3,47,84,154
3,49,84,154
3,45,94,152
3,47,94,154
3,45,94,154
3,47,94,154
3,45,94,152
3,45,94,88
3,47,94,36
3,45,94,156
3,47,94,152
3,45,94,156
3,47,94,154
3,45,94,154
3,47,94,152
3,45,94,152
3,47,94,156
3,45,94,154
3,47,94,154
3,45,94,152
3,47,94,154
3,45,94,154
3,47,94,154
3,45,94,152
3,47,94,156
3,45,94,156
3,47,94,154
3,45,94,152
3,47,94,152
3,45,94,152
3,47,94,154
3,45,94,152
3,45,94,104
3,47,94,10
3,45,94,154
3,47,94,154
3,45,94,154
3,47,94,154
3,45,94,154
3,47,94,154
3,45,94,152
3,47,94,160
3,45,94,156
3,47,94,154
3,45,94,154
3,47,94,154
3,45,94,154
3,47,94,154
3,45,94,152
3,47,94,154
3,45,94,154
3,47,94,154
3,45,94,152
3,47,94,154
3,45,94,154
3,47,94,154
3,45,94,152
3,47,94,156
3,45,94,156
3,47,94,154
3,45,94,152
3,47,94,154
3,45,94,156
3,47,94,154
3,45,94,154
3,45,94,104
3,47,94,18
3,45,94,162
3,47,94,154
3,45,94,150
3,47,94,154
3,45,94,154
3,47,94,154
3,45,94,152
3,45,74,88
3,47,94,36
3,45,94,156
3,47,94,154
3,45,94,152
3,47,94,154
3,45,94,154
3,47,94,152
3,45,94,152
3,47,94,154
3,45,94,154
3,47,94,154
3,45,94,152
3,47,94,154
3,45,94,154
3,47,94,154
3,45,94,152
3,47,94,156
3,45,94,156
3,47,94,154
3,45,94,152
3,47,94,154
3,45,94,154
3,47,94,154
3,45,94,152
3,45,75,88
3,47,94,26
3,45,94,154
3,47,94,152
3,45,94,152
3,47,94,154
3,45,94,154
3,47,94,154
3,45,94,152
3,47,94,156
3,45,94,156
3,47,94,152
3,45,94,152
3,47,94,154
3,45,94,154
3,47,94,154
3,45,94,152
3,47,94,154
3,45,94,154
3,47,94,152
3,45,94,152
3,47,94,154
3,45,94,154
3,47,94,154
3,45,94,152
3,47,94,156
3,45,94,156
3,47,94,154
3,45,94,152
3,47,94,154
3,45,94,154
3,47,94,152
3,45,94,152
3,45,94,104
3,47,94,18
3,45,94,162
3,47,94,154
3,45,84,152
3,47,84,154
3,45,84,154
3,47,84,154
3,45,84,152
3,47,84,156
3,45,84,158
3,47,84,154
3,45,84,152
3,47,84,154
3,45,84,154
3,47,84,154
3,45,84,152
3,47,84,154
3,45,84,154
3,45,84,88
3,47,84,26
3,45,84,152
3,47,84,154
3,45,84,154
3,47,84,154
3,45,84,152
3,47,84,160
3,45,84,156
3,47,84,154
3,45,84,152
3,47,84,154
3,45,84,154
3,47,84,154
3,45,84,152
3,45,84,154
3,47,84,154
3,49,84,154
3,45,84,152
3,47,84,154
3,45,84,154
3,47,84,154
3,45,84,152
3,47,84,156
3,45,84,156
3,47,84,154
3,45,84,152
3,47,84,154
3,45,84,154
3,47,84,154
3,45,84,152
3,47,84,154
3,45,84,154
3,45,84,88
3,47,84,26
3,45,84,152
3,47,84,154
3,45,84,154
3,47,84,154
3,45,84,152
3,47,84,158
3,45,84,156
3,47,84,154
3,45,84,152
3,47,84,154
3,45,84,152
3,47,84,154
3,50,84,152
4,66,98,6144
4,66,98,146
4,62,98,74
4,64,98,88
4,62,98,30
4,64,98,56
4,66,98,4
4,62,98,70
4,66,98,896
4,66,98,134
4,62,98,108
4,64,98,64
4,66,98,2
4,62,98,52
4,62,98,80
4,66,98,1104
4,66,98,124
4,62,98,108
4,64,98,88
4,62,98,192
4,64,98,88
4,66,98,8
4,62,98,70
4,66,98,1032
4,66,98,134
4,62,98,108
4,64,98,40
4,66,98,10
4,62,98,30
4,62,98,92
4,67,98,1050
4,67,98,120
4,67,98,102
4,64,98,76
4,62,98,74
4,62,98,138
4,64,98,64
4,66,98,112
4,66,98,68
4,66,98,100
4,64,98,64
4,62,98,70
4,59,98,6
4,60,98,0
4,64,98,224
4,64,98,140
4,64,98,84
4,62,98,54
4,62,98,164
4,62,98,90
4,62,98,82
4,66,98,510
4,66,98,126
4,62,98,178
4,64,98,76
4,62,98,44
4,66,98,108
4,62,98,52
4,66,98,1058
4,66,98,102
4,62,98,84
4,66,98,22
4,62,98,8
4,62,98,80
4,66,98,1314
4,66,98,88
4,62,98,50
4,66,98,112
4,62,98,108
4,66,98,1114
4,66,98,86
4,62,98,108
4,64,98,56
4,62,98,30
4,66,98,56
4,62,98,32
4,62,98,18
4,67,98,1354
4,67,98,76
4,67,98,90
4,64,98,32
4,62,98,60
4,64,98,190
4,62,98,222
4,64,98,64
4,66,98,110
4,66,98,114
4,66,98,72
4,64,98,98
4,62,98,124
4,64,98,248
4,64,98,128
4,64,98,84
4,62,98,112
4,62,98,108
4,62,98,78
4,62,98,82
4,66,98,13002
4,66,98,102
4,62,98,96
4,64,98,24
4,62,98,192
4,66,98,82
4,62,98,50
4,66,98,1172
4,66,98,90
4,62,98,72
4,66,98,12
4,62,98,190
4,62,98,94
4,66,98,1094
4,66,98,98
4,62,98,64
4,64,98,52
4,62,98,18
4,66,98,50
4,62,98,50
4,66,98,1102
4,66,98,102
4,62,98,28
4,66,98,2
4,62,98,8
4,62,98,80
4,67,98,934
4,67,98,110
4,67,98,122
4,64,98,42
4,62,98,60
4,62,98,92
4,64,98,66
4,66,98,122
4,66,98,64
4,66,98,100
4,64,98,78
4,62,98,70
4,64,98,498
4,64,98,174
4,64,98,82
4,62,98,76
4,62,98,190
4,62,98,112
4,62,98,106
4,67,98,498
4,67,98,100
4,67,98,126
4,64,98,42
4,62,98,72
4,64,98,190
4,62,98,272
4,64,98,62
4,66,98,126
4,66,98,114
4,66,98,72
4,64,98,98
4,62,98,128
4,64,98,248
4,64,98,164
4,64,98,94
4,62,98,124
4,62,98,188
4,62,98,112
4,62,98,82
5,54,80,42806
5,57,80,10
5,62,80,4
5,57,84,8
5,62,84,2
5,66,84,4
5,57,84,110
5,62,84,2
5,66,84,8
5,57,70,8
5,62,70,4
5,66,70,4
5,57,84,0
5,62,84,0
5,66,84,10
5,57,84,112
5,61,84,4
5,64,84,8
5,55,84,66
5,59,84,4
5,62,84,10
5,54,70,0
5,57,71,0
5,62,65,10
5,54,63,132
5,57,62,14
5,62,72,2
5,54,80,50
5,57,63,6
5,62,74,2
5,54,78,190
5,57,65,0
5,62,71,4
5,54,78,20
5,57,68,4
5,62,72,4
5,54,80,0
5,57,80,0
5,62,80,0
5,57,84,4
5,62,84,4
5,66,84,4
5,57,84,110
5,62,84,2
5,66,84,8
5,57,70,10
5,62,70,0
5,66,70,4
5,57,84,0
5,62,84,2
5,66,84,8
5,57,84,112
5,61,84,4
5,64,84,8
5,59,84,64
5,62,74,4
5,67,70,10
5,57,79,92
5,62,79,0
5,66,70,10
5,66,93,90
5,62,82,118
5,69,90,2
5,66,90,2
5,55,72,140
5,59,72,0
5,62,72,6
5,55,88,108
5,59,88,2
5,62,70,2
5,55,80,74
5,59,84,4
5,62,70,4
5,55,90,86
5,62,84,0
5,59,88,2
5,67,74,2
5,55,82,40
5,67,84,2
5,59,84,4
5,62,84,6
5,55,82,4
5,59,84,2
5,64,84,44
5,55,86,96
5,59,92,2
5,62,84,12
5,64,84,8
5,50,72,92
5,54,72,2
5,57,72,4
5,50,88,108
5,54,88,2
5,57,70,2
5,50,80,74
5,54,84,4
