track,note,velocity,time
1,74,59,1568
1,75,60,144
1,74,50,4
1,77,52,8
1,72,46,8
1,46,37,8
1,53,48,0
1,60,57,288
1,77,67,188
1,58,50,0
1,74,47,236
1,70,44,8
1,74,63,48
1,75,71,68
1,77,68,48
1,81,67,100
1,74,57,8
1,70,48,8
1,43,40,12
1,50,44,132
1,79,72,116
1,57,53,0
1,58,40,192
1,74,61,0
1,67,44,260
1,75,66,404
1,77,68,36
1,79,69,20
1,75,57,8
1,48,41,12
1,55,52,0
1,62,63,48
1,63,65,132
1,74,63,48
1,77,63,0
1,75,63,0
1,72,54,4
1,74,58,152
1,71,50,12
1,59,42,0
1,48,36,8
1,79,61,8
1,75,54,172
1,70,47,4
1,58,37,4
1,79,67,20
1,82,65,152
1,86,65,28
1,79,54,8
1,41,42,8
1,75,54,4
1,84,59,272
1,77,48,200
1,67,40,4
1,70,43,0
1,75,44,8
1,63,44,0
1,89,48,348
1,62,68,740
1,63,68,164
1,46,43,80
1,53,49,64
1,65,54,4
1,62,56,4
1,53,49,20
1,65,52,136
1,62,48,12
1,62,54,88
1,65,53,12
1,62,44,212
1,58,42,12
1,53,36,8
1,65,70,200
1,62,69,16
1,65,66,128
1,69,61,56
1,62,55,4
1,50,38,16
1,58,41,4
1,43,36,16
1,67,67,96
1,62,60,204
1,55,41,292
1,58,44,0
1,53,36,8
1,63,68,208
1,65,64,136
1,36,40,48
1,48,37,80
1,67,64,8
1,63,50,8
1,58,46,0
1,55,57,92
1,67,71,128
1,67,52,64
1,55,48,96
1,60,45,144
1,63,52,8
1,59,45,84
1,62,54,8
1,48,37,20
1,67,66,104
1,58,58,12
1,48,38,0
1,55,49,0
1,63,69,0
1,67,74,48
1,74,70,156
1,67,54,8
1,63,50,12
1,53,41,0
1,41,36,8
1,72,54,96
1,65,56,184
1,63,50,196
1,55,38,8
1,53,38,8
1,58,41,0
1,57,40,216
1,62,62,40
1,63,74,136
1,65,65,0
1,62,61,4
1,46,36,8
1,34,36,16
1,53,42,12
1,65,45,132
1,62,53,0
1,65,53,76
1,62,63,8
1,46,36,96
1,62,50,144
1,53,36,8
1,58,46,4
1,65,69,244
1,62,72,212
1,65,65,16
1,43,40,136
1,50,45,44
1,58,55,20
1,62,51,20
1,69,69,20
1,67,66,224
1,62,64,148
1,50,36,156
1,58,47,0
1,55,40,0
1,53,36,8
1,53,52,28
1,63,69,0
1,65,66,0
1,67,66,148
1,63,58,8
1,48,41,0
1,58,52,8
1,36,37,0
1,58,54,12
1,67,68,40
1,67,63,72
1,62,50,144
1,65,48,8
1,60,52,68
1,63,49,4
1,59,48,20
1,62,50,0
1,48,36,8
1,58,38,12
1,63,47,0
1,55,39,4
1,48,36,8
1,63,75,4
1,67,75,76
1,74,70,56
1,67,58,8
1,63,54,4
1,41,40,0
1,29,42,0
1,72,69,60
1,65,64,152
1,41,48,136
1,63,54,152
1,53,46,4
1,55,44,0
1,58,50,4
1,53,68,116
1,41,42,16
1,55,62,116
1,58,64,40
1,60,66,88
1,62,67,0
1,53,58,4
1,58,59,0
1,46,40,4
1,34,39,0
1,46,50,176
1,62,71,240
1,44,49,12
1,58,59,0
1,53,57,0
1,32,46,0
1,58,65,76
1,65,71,0
1,53,58,0
1,44,57,16
1,67,75,88
1,43,63,20
1,57,60,144
1,60,57,8
1,62,65,0
1,53,57,0
1,31,48,8
1,55,52,20
1,59,51,0
1,67,72,24
1,59,66,8
1,43,49,0
1,31,48,8
1,67,68,68
1,59,57,0
1,65,69,0
1,56,64,4
1,63,70,88
1,55,62,16
1,47,52,0
1,35,45,0
1,62,65,20
1,53,59,8
1,43,46,4
1,63,58,0
1,55,51,0
1,48,36,8
1,36,36,4
1,48,60,40
1,55,66,124
1,60,68,136
1,62,69,72
1,60,61,108
1,55,66,0
1,46,52,0
1,63,66,0
1,34,47,4
1,46,61,96
1,60,61,56
1,63,74,116
1,70,79,56
1,41,47,64
1,70,77,0
1,29,47,0
1,63,65,0
1,60,62,4
1,53,70,364
1,69,74,212
1,48,59,28
1,53,56,0
1,67,68,8
1,58,67,0
1,41,48,4
1,65,70,8
1,57,65,12
1,53,66,36
1,53,75,28
1,41,54,144
1,46,54,16
1,58,58,0
1,62,57,0
1,34,48,0
1,65,61,4
1,46,66,164
1,62,75,168
1,58,64,0
1,44,51,4
1,53,64,0
1,32,47,0
1,53,69,40
1,65,74,0
1,44,68,8
1,67,75,76
1,43,65,20
1,57,65,144
1,60,62,0
1,62,70,8
1,53,63,0
1,31,55,8
1,55,63,172
1,59,65,8
1,43,53,52
1,67,75,28
1,59,68,12
1,31,54,0
1,67,65,56
1,59,62,8
1,65,71,96
1,56,63,0
1,63,72,8
1,55,64,0
1,47,50,4
1,35,44,0
1,62,69,72
1,53,62,0
1,36,47,60
1,48,45,48
1,55,52,8
1,63,65,28
1,48,55,48
1,55,68,120
1,60,69,132
1,62,72,0
1,63,66,108
1,55,64,8
1,47,55,0
1,35,48,0
1,46,70,80
1,34,61,0
1,63,74,8
1,60,66,8
1,70,77,116
1,41,56,104
1,29,56,8
1,70,79,0
1,63,63,4
1,60,64,0
1,53,66,384
1,69,72,200
1,48,58,0
1,67,69,8
1,53,54,0
1,58,67,0
1,41,41,12
1,65,62,60
1,57,58,0
1,53,58,164
1,62,77,300
1,63,75,132
1,62,70,12
1,46,44,0
1,34,50,0
1,53,56,108
1,62,63,116
1,65,58,12
1,62,62,68
1,65,67,4
1,41,50,36
1,46,55,0
1,53,58,4
1,65,74,112
1,34,55,20
1,62,74,48
1,65,77,104
1,33,58,12
1,69,74,136
1,62,65,4
1,58,61,4
1,31,61,12
1,43,45,4
1,67,73,176
1,62,66,184
1,43,47,140
1,50,43,16
1,58,51,8
1,53,51,0
1,50,47,104
1,55,55,0
1,58,68,8
1,63,77,136
1,65,72,92
1,43,47,8
1,67,75,20
1,63,65,0
1,48,51,12
1,36,47,4
1,55,38,20
1,67,65,100
1,63,59,16
1,67,65,68
1,63,58,12
1,55,49,124
1,60,55,76
1,63,65,0
1,62,62,76
1,59,55,0
1,48,50,8
1,67,74,164
1,63,61,4
1,58,55,8
1,36,46,8
1,63,83,40
1,67,75,48
1,74,79,136
1,63,66,16
1,67,69,0
1,41,47,0
1,29,45,0
1,72,74,132
1,65,70,116
1,41,47,124
1,63,63,148
1,55,57,0
1,53,55,8
1,58,58,0
1,48,39,88
1,57,61,0
1,53,58,8
1,41,49,0
1,62,75,0
1,63,72,128
1,41,42,16
1,65,71,20
1,62,68,0
1,34,47,16
1,46,48,0
1,53,44,4
1,65,58,116
1,62,62,16
1,65,62,36
1,62,77,0
1,46,49,116
1,53,54,40
1,58,55,120
1,77,58,40
1,74,52,0
1,65,48,8
1,70,50,0
1,46,55,244
1,65,70,144
1,58,67,0
1,53,63,0
1,34,55,8
1,62,72,48
1,33,63,28
1,65,72,64
1,62,36,116
1,69,77,16
1,58,64,12
1,31,54,0
1,43,55,0
1,67,77,196
1,43,47,12
1,62,69,116
1,50,64,128
1,58,69,144
1,53,66,0
1,43,64,4
1,63,80,148
1,65,71,0
1,67,69,0
1,63,68,0
1,58,67,8
1,48,52,0
1,36,60,8
1,58,53,12
1,67,61,76
1,63,57,4
1,67,61,56
1,63,66,8
1,48,47,12
1,65,52,116
1,62,57,0
1,60,57,52
1,63,55,20
1,48,55,0
1,62,58,4
1,59,53,4
1,43,57,4
1,63,57,0
1,58,47,8
1,36,58,4
1,55,37,8
1,63,72,72
1,67,77,132
1,67,63,0
1,74,79,8
1,29,65,0
1,41,61,0
1,63,62,8
1,72,74,300
1,41,65,8
1,65,74,116
1,48,50,156
1,63,65,8
1,58,61,8
1,53,58,0
1,55,55,0
1,53,74,132
1,41,72,0
1,55,62,136
1,58,70,76
1,60,70,76
1,46,60,28
1,62,70,0
1,58,63,0
1,34,55,0
1,53,64,4
1,46,70,0
1,74,83,48
1,65,70,8
1,70,70,0
1,32,57,8
1,44,58,0
1,77,80,88
1,65,77,8
1,70,75,0
1,44,74,12
1,79,80,96
1,43,65,36
1,74,75,140
1,72,71,8
1,69,69,0
1,31,61,0
1,65,63,4
1,43,49,240
1,62,70,28
1,60,62,8
1,53,63,0
1,57,61,4
1,50,59,8
1,43,58,244
1,79,83,28
1,31,61,8
1,71,77,0
1,79,69,60
1,71,65,0
1,77,79,72
1,68,77,8
1,75,77,112
1,67,77,0
1,47,64,0
1,35,56,0
1,74,64,76
1,65,53,8
1,75,77,28
1,67,71,4
1,43,52,4
1,48,62,20
1,36,58,8
1,55,52,268
1,51,38,12
1,60,68,136
1,67,74,0
1,72,74,36
1,74,72,120
1,75,75,40
1,46,65,0
1,67,74,4
1,34,62,0
1,72,71,4
1,46,70,332
1,75,83,88
1,63,65,0
1,82,84,136
1,70,70,0
1,75,77,68
1,82,83,0
1,70,74,0
1,29,67,4
1,41,63,0
1,41,71,408
1,81,84,48
1,69,65,0
1,53,65,52
1,79,79,144
1,67,74,8
1,63,67,8
1,75,70,0
1,60,61,0
1,77,75,104
1,65,72,0
1,53,62,20
1,48,61,20
1,57,70,48
1,65,64,0
1,29,62,152
1,53,63,8
1,34,62,104
1,62,77,0
1,46,66,0
1,53,72,0
1,58,66,4
1,46,58,56
1,58,77,128
1,65,55,48
1,70,80,40
1,44,58,132
1,74,77,8
1,70,71,0
1,65,63,8
1,32,57,0
1,77,78,16
1,70,71,4
1,65,72,0
1,44,70,8
1,67,77,68
1,79,83,0
1,43,67,8
1,69,71,136
1,74,75,8
1,72,69,0
1,65,71,0
1,31,59,8
1,62,71,136
1,60,65,0
1,57,66,8
1,53,63,0
1,43,55,4
1,38,52,0
1,79,83,28
1,31,62,0
1,43,59,0
1,71,69,0
1,79,75,64
1,71,65,4
1,77,79,88
1,68,77,0
1,75,79,100
1,67,77,8
1,47,64,0
1,35,55,0
1,74,72,116
1,65,49,0
1,75,77,20
1,67,77,0
1,43,53,8
1,48,64,24
1,36,61,0
1,55,58,260
1,51,47,8
1,60,71,128
1,67,74,56
1,72,77,40
1,74,72,116
1,75,74,28
1,67,71,0
1,71,71,0
1,35,59,0
1,47,64,4
1,46,71,100
1,34,64,0
1,75,84,68
1,63,67,0
1,82,81,176
1,70,75,0
1,82,80,72
1,29,71,0
1,41,69,0
1,70,67,0
1,51,69,396
1,41,57,4
1,81,77,44
1,69,65,0
1,81,58,64
1,79,79,20
1,67,65,0
1,63,56,8
1,60,55,4
1,53,54,0
1,77,80,4
1,65,67,4
1,60,55,212
1,63,68,8
1,58,74,48
1,55,70,8
1,51,64,0
1,39,53,12
1,46,58,0
1,67,72,232
1,67,67,68
1,70,78,0
1,63,68,0
1,51,59,12
1,67,75,64
1,67,77,64
1,72,77,0
1,64,69,4
1,50,68,0
1,38,59,0
1,74,79,20
1,50,58,156
1,54,70,0
1,42,61,4
1,69,74,0
1,62,68,0
1,74,77,92
1,72,72,84
1,50,61,8
1,55,59,0
1,72,80,0
1,43,58,8
1,65,68,0
1,62,58,4
1,70,79,68
1,50,54,8
1,69,79,4
1,65,65,8
1,62,63,0
1,55,55,8
1,70,77,68
1,69,77,48
1,66,72,12
1,62,71,0
1,36,54,48
1,48,53,0
1,67,78,0
1,67,79,48
1,43,55,8
1,64,68,8
1,58,62,8
1,48,55,0
1,79,80,4
1,67,68,0
1,75,75,16
1,70,70,0
1,29,67,0
1,41,63,0
1,77,80,56
1,77,78,52
1,65,65,152
1,53,69,8
1,69,71,0
1,74,74,0
1,41,62,0
1,36,65,196
1,79,79,0
1,67,72,4
1,70,72,0
1,75,74,0
1,29,67,0
1,41,67,4
1,77,80,84
1,77,79,56
1,74,69,144
1,65,67,0
1,53,74,4
1,69,74,0
1,41,62,4
1,36,58,144
1,75,80,12
1,41,63,0
1,70,72,0
1,29,65,4
1,67,71,4
1,74,79,60
1,41,66,16
1,75,79,76
1,70,75,8
1,67,70,0
1,53,75,0
1,77,83,36
1,41,67,44
1,79,79,4
1,67,74,4
1,75,77,0
1,70,74,0
1,29,71,8
1,77,84,88
1,41,65,20
1,77,77,164
1,65,74,8
1,69,75,0
1,72,74,0
1,53,71,8
1,41,71,20
1,60,77,0
1,64,77,0
1,48,67,0
1,36,64,4
1,55,74,0
1,55,69,112
1,64,71,0
1,48,64,4
1,60,71,4
1,67,65,292
1,76,80,68
1,72,72,4
1,67,75,4
1,46,70,0
1,34,64,4
1,76,79,68
1,67,72,0
1,79,79,0
1,72,72,0
1,55,71,128
1,64,77,0
1,60,70,4
1,69,70,136
1,81,80,0
1,45,68,20
1,67,69,4
1,74,67,8
1,76,80,0
1,71,70,8
1,33,66,0
1,64,80,136
1,59,75,8
1,62,74,0
1,45,65,0
1,55,74,0
1,40,58,216
1,45,63,20
1,33,69,0
1,81,83,0
1,73,70,4
1,81,77,68
1,73,72,8
1,79,84,72
1,70,70,8
1,77,80,4
1,69,70,0
1,49,72,4
1,37,65,0
1,76,83,124
1,67,72,4
1,45,58,128
1,38,75,0
1,50,77,0
1,74,75,100
1,69,63,0
1,65,62,8
1,76,77,36
1,57,64,0
1,53,55,20
1,77,79,48
1,69,70,0
1,74,77,0
1,62,70,8
1,74,74,96
1,69,67,0
1,65,61,4
1,74,75,12
1,48,67,16
1,36,66,0
1,69,68,0
1,65,62,4
1,76,80,0
1,69,70,20
1,74,62,0
1,77,81,8
1,57,72,128
1,65,70,40
1,62,69,0
1,77,83,40
1,74,77,8
1,84,81,48
1,74,75,0
1,77,77,8
1,31,72,144
1,43,79,0
1,43,62,260
1,55,84,132
1,83,83,36
1,74,70,4
1,81,84,124
1,72,70,4
1,65,61,0
1,62,61,8
1,55,58,0
1,79,83,84
1,71,72,12
1,55,63,132
1,43,77,124
1,67,77,112
1,71,70,120
1,74,77,68
1,43,60,8
1,67,75,12
1,76,77,0
1,48,70,0
1,72,75,4
1,36,66,4
1,64,77,120
1,60,72,0
1,55,71,4
1,48,62,12
1,36,72,160
1,46,71,48
1,34,70,0
1,76,80,0
1,72,72,0
1,67,72,0
1,79,80,48
1,76,77,0
1,67,70,8
1,72,71,0
1,60,74,0
1,55,64,0
1,52,66,0
1,69,72,152
1,81,83,0
1,45,71,20
1,76,80,128
1,74,67,0
1,67,69,4
1,71,70,0
1,33,65,0
1,64,77,136
1,59,70,4
1,62,70,0
1,55,70,4
1,45,62,4
1,40,58,216
1,73,81,24
1,81,83,0
1,33,61,0
1,45,65,4
1,81,77,56
1,73,74,8
1,79,84,20
1,70,69,0
1,77,83,84
1,69,72,0
1,49,71,0
1,37,65,0
1,76,84,8
1,67,70,0
1,45,58,132
1,38,75,8
1,50,74,0
1,69,75,96
1,71,75,132
1,53,59,4
1,62,64,48
1,72,78,0
1,57,61,0
1,76,84,40
1,50,68,192
1,69,71,4
1,65,61,4
1,38,75,8
1,77,80,60
1,76,77,116
1,53,61,16
1,73,80,92
1,61,67,4
1,57,58,8
1,69,75,52
1,43,70,92
1,60,72,144
1,57,74,0
1,53,71,0
1,31,65,4
1,84,84,0
1,81,71,0
1,77,66,4
1,72,64,8
1,57,77,80
1,53,69,8
1,60,69,0
1,43,50,12
1,86,80,48
1,74,71,0
1,84,77,132
1,72,69,4
1,38,55,8
1,83,79,68
1,79,72,0
1,74,68,0
1,31,68,0
1,59,74,0
1,43,67,4
1,71,63,4
1,53,70,0
1,55,70,0
1,81,71,108
1,69,65,0
1,79,79,52
1,67,61,8
1,71,59,0
1,74,70,0
1,62,74,4
1,55,74,0
1,35,58,16
1,79,86,4
1,71,70,0
1,79,74,0
1,71,66,12
1,79,79,48
1,86,79,0
1,83,79,0
1,74,77,0
1,60,72,76
1,55,72,8
1,64,74,0
1,36,64,0
1,48,62,8
1,88,80,48
1,84,83,8
1,79,79,0
1,76,75,8
1,64,77,156
1,55,75,16
1,60,75,0
1,36,63,60
1,34,65,0
1,46,67,0
1,64,71,0
1,55,72,8
1,60,69,0
1,60,71,136
1,64,70,8
1,55,71,0
1,46,61,4
1,34,46,16
