track,note,velocity,time
1,42,101,2837
1,42,0,93
1,40,90,1
1,40,0,30
1,39,81,1
1,39,0,29
1,38,73,1
1,38,0,38
1,37,66,0
1,37,0,52
1,35,59,0
1,35,0,44
1,34,52,0
1,34,0,66
1,33,43,0
1,33,0,47
1,32,37,1
1,32,0,45
1,31,108,27
1,31,0,468
1,31,98,18
1,31,0,58
1,28,121,158
1,28,0,704
1,28,110,30
1,28,0,86
1,28,78,168
1,28,0,185
1,31,114,22
1,31,0,466
1,31,82,18
1,31,0,22
1,28,116,191
1,28,0,700
1,28,75,79
1,28,0,180
1,28,74,40
1,28,0,195
1,31,112,13
1,31,0,497
1,31,94,20
1,31,0,81
1,28,101,134
1,28,0,245
1,38,127,196
1,38,0,253
1,36,127,273
1,36,0,206
1,36,127,253
1,36,0,314
1,33,109,163
1,33,0,224
1,36,110,15
1,36,0,302
1,31,118,208
1,31,0,235
1,33,118,228
1,33,0,514
1,33,115,232
1,33,0,217
1,40,127,19
1,40,0,457
1,40,101,7
1,40,0,66
1,40,127,185
1,40,0,206
1,33,127,21
1,33,0,464
1,33,77,27
1,33,0,48
1,33,115,178
1,33,15,174
1,33,0,6
1,33,0,75
1,39,127,24
1,39,0,182
1,40,127,1
1,40,0,255
1,39,127,4
1,39,0,240
1,40,127,2
1,40,0,230
1,33,127,22
1,33,0,508
1,33,127,171
1,33,0,245
1,40,127,27
1,40,0,442
1,39,118,12
1,39,0,30
1,40,115,1
1,40,0,57
1,39,116,178
1,39,0,30
1,40,116,1
1,40,0,93
1,45,127,116
1,49,60,24
1,45,0,185
1,49,37,21
1,49,0,5
1,45,127,10
1,49,0,202
1,45,0,1
1,43,127,7
1,43,0,212
1,42,127,22
1,42,0,219
1,40,127,36
1,36,13,178
1,36,0,44
1,36,127,15
1,40,0,5
1,36,0,243
1,37,127,13
1,37,0,184
1,40,127,33
1,40,0,110
1,33,127,122
1,33,0,538
1,33,125,218
1,33,0,220
1,40,127,26
1,40,0,469
1,40,121,12
1,40,0,61
1,40,127,179
1,40,0,205
1,33,127,12
1,33,0,473
1,33,83,18
1,33,0,45
1,33,127,175
1,33,19,199
1,33,0,13
1,33,0,44
1,39,127,21
1,39,0,240
1,40,122,0
1,40,0,211
1,39,127,25
1,39,0,239
1,40,127,1
1,40,0,219
1,33,127,9
1,33,0,483
1,33,82,16
1,33,0,37
1,33,127,171
1,40,22,196
1,33,0,32
1,40,0,25
1,40,127,7
1,40,0,467
1,40,126,16
1,40,0,80
1,40,127,158
1,43,19,137
1,40,0,29
1,43,0,6
1,45,127,52
1,45,0,200
1,45,127,33
1,45,0,210
1,43,127,29
1,43,0,187
1,42,127,27
1,42,0,236
1,40,127,36
1,36,127,218
1,40,0,10
1,36,0,229
1,37,127,10
1,37,0,199
1,40,127,32
1,40,0,118
1,33,127,134
1,33,0,497
1,33,56,16
1,33,0,29
1,33,127,191
1,33,0,235
1,40,127,20
1,40,0,462
1,40,118,12
1,40,0,67
1,39,127,161
1,39,0,40
1,40,127,1
1,40,0,194
1,33,127,23
1,33,0,527
1,33,127,179
1,33,0,247
1,40,127,9
1,40,0,484
1,40,127,13
1,40,0,73
1,40,127,147
1,40,0,224
1,33,127,8
1,33,0,491
1,33,79,27
1,33,0,27
1,33,127,166
1,33,0,245
1,40,127,4
1,40,0,511
1,40,126,12
1,40,0,42
1,39,127,163
1,39,0,40
1,40,127,1
1,40,0,179
1,33,127,28
1,33,0,507
1,33,127,185
1,40,127,268
1,33,0,1
1,40,0,235
1,33,127,16
1,33,0,138
1,38,127,71
1,38,0,241
1,39,127,12
1,39,0,232
1,40,127,10
1,40,0,456
1,40,115,19
1,40,0,51
1,40,127,164
1,40,0,228
1,35,127,14
1,35,0,497
1,35,82,14
1,35,0,73
1,35,127,149
1,35,0,177
1,40,127,67
1,40,0,495
1,40,124,14
1,40,0,43
1,40,127,168
1,40,0,128
1,38,5,43
1,38,0,54
1,35,127,11
1,35,0,407
1,40,127,74
1,40,0,218
1,41,127,11
1,41,0,228
1,42,127,17
1,42,0,493
1,42,123,15
1,42,0,63
1,42,127,140
1,42,0,208
1,37,127,50
1,37,0,480
1,37,71,18
1,37,0,63
1,37,127,156
1,37,0,122
1,42,127,143
1,42,0,434
1,44,127,24
1,44,0,460
1,45,127,19
1,49,127,486
1,49,15,18
1,45,0,167
1,49,0,23
1,49,0,9
1,38,127,8
1,38,0,136
1,36,99,1
1,36,0,45
1,35,81,1
1,35,0,29
1,34,68,0
1,34,0,57
1,33,127,11
1,33,0,490
1,33,127,174
1,33,0,254
1,40,127,11
1,40,0,485
1,40,112,9
1,40,0,34
1,40,127,179
1,33,127,253
1,40,0,30
1,33,0,460
1,33,85,20
1,33,0,35
1,33,127,165
1,33,0,235
1,40,127,16
1,40,0,474
1,40,121,20
1,40,0,58
1,39,127,166
1,39,0,27
1,40,127,1
1,40,0,201
1,33,127,23
1,33,0,516
1,33,127,176
1,33,0,250
1,40,127,11
1,40,0,456
1,40,127,13
1,40,0,97
1,40,58,111
1,40,0,30
1,39,127,19
1,39,0,40
1,40,127,0
1,40,0,132
1,45,127,64
1,45,0,195
1,45,127,43
1,45,0,228
1,43,127,1
1,43,0,177
1,42,127,40
1,42,27,17
1,42,0,6
1,42,0,207
1,40,127,20
1,36,127,235
1,40,0,9
1,36,0,226
1,37,127,8
1,37,0,213
1,40,127,18
1,40,0,116
1,33,127,119
1,33,0,502
1,33,64,18
1,33,0,9
1,33,127,219
1,40,19,213
1,40,0,15
1,33,0,0
1,40,127,28
1,40,0,476
1,40,127,23
1,40,0,55
1,39,127,154
1,39,0,35
1,40,127,1
1,40,0,187
1,33,127,13
1,33,0,495
1,33,63,14
1,33,0,27
1,33,127,182
1,33,0,243
1,40,127,10
1,40,0,485
1,40,127,10
1,40,0,80
1,40,127,186
1,40,0,175
1,33,127,26
1,33,0,446
1,33,77,19
1,33,0,61
1,33,126,161
1,33,0,246
1,40,127,17
1,40,0,463
1,39,121,12
1,39,0,38
1,40,117,0
1,40,0,29
1,39,127,175
1,39,0,41
1,40,127,1
1,40,0,156
1,45,127,50
1,45,0,206
1,45,127,37
1,45,0,195
1,43,127,34
1,43,0,190
1,42,127,29
1,42,0,229
1,40,127,25
1,36,127,233
1,40,0,23
1,36,0,232
1,37,127,14
1,37,0,193
1,40,127,26
1,40,0,104
1,31,127,118
1,43,127,248
1,31,0,120
1,43,0,83
1,31,127,47
1,31,0,202
1,28,127,44
1,28,0,502
1,35,127,4
1,35,0,201
1,40,127,34
1,48,31,13
1,48,0,298
1,40,0,11
1,31,127,132
1,31,0,233
1,38,127,3
1,38,0,170
1,43,127,88
1,43,0,128
1,33,102,90
1,28,127,10
1,33,0,88
1,35,127,394
1,28,0,14
1,35,0,149
1,34,106,1
1,34,0,64
1,33,89,1
1,40,127,22
1,33,0,87
1,40,0,229
1,31,127,148
1,48,18,233
1,43,127,11
1,31,0,11
1,48,0,175
1,43,11,1
1,43,0,2
1,43,0,49
1,31,127,15
1,31,0,166
1,28,127,73
1,28,0,420
1,40,127,22
1,40,0,147
1,37,127,97
1,37,0,66
1,38,127,1
1,38,0,233
1,36,127,60
1,36,0,304
1,36,127,111
1,36,0,383
1,33,127,77
1,33,0,223
1,36,127,22
1,36,0,315
1,31,127,141
1,31,0,256
1,32,119,1
1,32,0,249
1,33,127,22
1,33,15,500
1,33,0,30
1,33,0,149
1,33,127,8
1,33,0,236
1,40,127,25
1,40,0,470
1,40,121,10
1,40,0,67
1,39,127,139
1,39,0,39
1,40,127,1
1,40,0,187
1,33,127,27
1,33,0,528
1,33,127,170
1,33,0,172
1,39,127,97
1,39,0,229
1,40,127,0
1,40,0,237
1,39,127,19
1,39,0,215
1,40,127,0
1,40,0,239
1,32,127,13
1,32,0,47
1,33,127,0
1,33,0,433
1,33,83,7
1,33,0,38
1,33,127,174
1,40,21,213
1,33,0,24
1,40,0,6
1,40,22,6
1,40,0,7
1,40,127,22
1,40,0,452
1,40,123,17
1,40,0,59
1,39,127,182
1,39,0,40
1,40,127,0
1,40,0,99
1,45,127,90
1,45,0,203
1,45,127,30
1,45,0,208
1,43,127,35
1,43,0,186
1,42,127,38
1,42,0,234
1,40,127,19
1,36,127,237
1,40,0,11
1,36,0,220
1,37,127,21
1,37,0,191
1,40,127,30
1,40,0,118
1,33,127,111
1,33,0,517
1,33,74,8
1,33,0,42
1,33,127,170
1,33,0,221
1,40,127,27
1,40,0,487
1,40,126,12
1,40,0,61
1,40,127,161
1,40,0,224
1,33,127,19
1,33,0,543
1,33,127,169
1,33,0,229
1,40,127,16
1,40,0,480
1,40,116,12
1,40,0,74
1,40,127,183
1,40,0,168
1,33,127,35
1,33,0,494
1,33,71,15
1,33,0,52
1,33,127,162
1,33,0,234
1,40,127,33
1,40,0,468
1,40,126,16
1,40,0,83
1,39,127,132
1,39,0,49
1,40,127,0
1,40,0,99
1,45,127,91
1,45,0,198
1,45,127,46
1,45,0,212
1,43,127,15
1,43,0,198
1,42,127,36
1,42,0,229
1,40,127,25
1,36,22,191
1,36,0,31
1,36,127,16
1,40,0,11
1,36,0,232
1,37,127,11
1,40,127,211
1,37,0,3
1,40,0,107
1,32,100,141
1,32,0,2
1,33,127,18
1,33,0,481
1,33,77,16
1,33,0,42
1,33,106,153
1,33,0,252
1,40,127,3
1,40,0,454
1,39,104,12
1,39,0,57
1,39,127,150
1,39,0,36
1,40,127,0
1,40,0,230
1,33,118,19
1,33,0,454
1,33,72,26
1,33,0,88
1,33,94,143
1,33,0,218
1,39,127,44
1,39,0,247
1,40,114,1
1,40,0,220
1,39,127,15
1,39,0,192
1,40,116,1
1,40,0,251
1,33,118,21
1,33,0,465
1,33,76,21
1,33,0,63
1,33,95,164
1,33,0,251
1,40,127,10
1,40,0,461
1,40,107,18
1,40,0,64
1,40,112,164
1,40,0,223
1,33,122,15
1,33,0,547
1,33,113,178
1,33,0,231
1,40,127,4
1,40,0,197
1,33,112,39
1,33,0,185
1,38,127,53
1,38,0,238
1,39,127,13
1,39,0,233
1,40,127,18
1,40,0,435
1,40,101,11
1,40,0,51
1,40,127,199
1,46,127,250
1,40,0,91
1,46,0,143
1,47,106,1
1,47,0,213
1,46,127,28
1,46,0,182
1,47,110,1
1,47,0,280
1,40,127,18
1,40,0,470
1,40,112,6
1,40,0,55
1,40,127,213
1,40,0,210
1,47,127,9
1,47,0,232
1,40,127,10
1,40,0,212
1,37,122,11
1,37,0,197
1,35,105,1
1,35,0,49
1,34,91,1
1,34,0,43
1,33,79,1
1,33,0,83
1,32,71,1
1,32,0,92
1,30,127,28
1,30,0,476
1,32,117,19
1,32,0,443
1,33,112,21
1,33,0,475
1,35,127,11
1,35,0,440
1,37,127,14
1,40,127,222
1,37,0,25
1,40,0,223
1,42,127,17
1,42,0,227
1,45,127,1
1,45,0,211
1,47,127,30
1,47,0,254
1,48,127,0
1,48,0,30
1,49,127,1
1,49,0,140
1,48,113,0
1,48,0,34
1,47,127,36
1,47,0,202
1,45,127,36
1,45,0,141
1,33,127,118
1,33,0,483
1,33,82,23
1,33,0,36
1,33,111,166
1,38,18,9
1,38,0,13
1,33,0,205
1,40,127,18
1,45,30,4
1,45,0,56
1,40,0,411
1,40,108,10
1,40,0,165
1,40,60,11
1,40,0,25
1,40,127,38
1,56,40,0
1,56,0,10
1,40,0,207
1,33,127,11
1,33,0,517
1,33,60,2
1,33,0,70
1,33,106,152
1,33,0,194
1,39,127,45
1,39,0,246
1,40,119,1
1,40,0,218
1,39,127,28
1,39,0,182
1,40,127,0
1,40,0,250
1,33,127,23
1,33,0,481
1,33,67,15
1,33,0,62
1,33,106,166
1,33,0,220
1,40,127,26
1,40,0,457
1,40,113,12
1,40,0,193
1,40,59,6
1,40,0,25
1,39,127,24
1,39,0,31
1,40,127,1
1,40,0,92
1,45,127,112
1,45,0,202
1,45,127,30
1,45,0,236
1,43,127,1
1,43,0,212
1,42,127,29
1,42,0,208
1,40,127,26
1,36,127,236
1,40,0,11
1,36,0,237
1,37,127,14
1,40,127,225
1,37,0,1
1,40,0,124
1,33,127,110
1,33,0,510
1,33,77,17
1,33,0,39
1,33,105,169
1,33,0,234
1,40,127,45
1,40,0,438
1,40,116,11
1,40,0,56
1,40,127,203
1,40,0,203
1,33,127,23
1,33,0,477
1,33,74,19
1,33,0,53
1,33,111,155
1,33,0,150
1,39,127,90
1,39,0,239
1,40,127,1
1,40,0,236
1,39,127,17
1,39,0,236
1,40,127,1
1,33,127,235
1,40,0,28
1,33,0,445
1,33,79,19
1,33,0,70
1,33,106,155
1,33,0,231
1,39,127,14
1,39,0,36
1,40,127,1
1,40,0,413
1,40,121,19
1,40,0,64
1,39,127,180
1,39,0,35
1,40,127,1
1,40,0,98
1,45,127,108
1,45,0,206
1,45,127,31
1,45,0,205
1,43,127,23
1,43,0,199
1,42,127,37
1,42,0,228
1,40,127,26
1,36,127,232
1,40,0,19
1,36,0,203
1,37,127,29
1,37,0,199
1,40,127,24
1,40,0,124
1,31,118,117
1,36,40,23
1,36,0,8
1,31,0,203
1,38,125,28
1,38,0,165
1,43,127,89
1,43,0,85
1,40,127,146
1,40,15,397
1,40,0,38
1,40,0,15
1,35,127,18
1,28,127,224
1,35,0,57
1,28,0,407
1,31,121,28
1,36,35,28
1,36,0,4
1,31,0,177
1,38,127,32
1,38,0,154
1,43,127,85
1,43,0,73
1,40,127,157
1,35,127,465
1,40,0,28
1,28,127,220
1,35,0,26
1,28,0,399
1,31,127,37
1,36,63,11
1,36,0,3
1,35,54,1
1,35,0,7
1,31,0,479
1,31,127,19
1,31,0,222
1,28,127,37
1,33,77,37
1,33,0,111
1,28,0,86
1,38,127,198
1,38,0,245
1,36,127,254
1,36,0,242
1,36,127,229
1,36,0,479
1,33,116,27
1,33,0,214
1,36,127,31
1,42,61,0
1,42,0,1
1,36,0,365
1,33,91,2
1,33,0,70
1,33,80,27
1,31,127,1
1,33,0,42
1,31,0,284
1,32,113,1
1,32,0,171
1,33,127,30
1,33,0,546
1,33,113,141
1,33,0,227
1,39,127,16
1,39,0,34
1,40,127,0
1,40,0,432
1,40,112,16
1,40,0,59
1,40,127,178
1,58,21,0
1,58,0,28
1,40,0,192
1,33,124,13
1,33,0,454
1,33,78,18
1,33,0,84
1,33,106,148
1,33,0,178
1,38,127,73
1,38,0,25
1,39,127,1
1,39,0,224
1,40,124,1
1,40,0,211
1,39,127,22
1,39,0,214
1,40,122,2
1,40,0,225
1,33,124,33
1,33,0,484
1,32,74,21
1,32,0,36
1,33,112,188
1,33,0,233
1,39,127,8
1,39,0,43
1,40,127,1
1,40,0,409
1,40,119,16
1,40,0,99
1,40,56,124
1,40,0,36
1,40,127,12
1,40,0,144
1,45,127,80
1,45,0,226
1,45,127,22
1,43,127,225
1,45,0,9
1,43,0,200
1,42,127,23
1,42,0,210
1,40,127,23
1,36,127,232
1,40,0,25
1,36,0,218
1,37,126,15
1,37,0,206
1,40,127,22
1,40,0,124
1,33,127,124
1,33,0,480
1,33,74,26
1,33,0,39
1,33,98,169
1,33,0,223
1,39,127,20
1,39,0,31
1,40,127,1
1,40,0,452
1,40,114,13
1,40,0,80
1,39,127,145
1,39,0,32
1,40,127,1
1,40,0,196
1,33,115,42
1,33,0,445
1,33,75,17
1,33,0,81
1,33,100,143
1,33,0,204
1,38,127,50
1,38,0,33
1,39,127,1
1,39,0,185
1,40,116,1
1,40,0,241
1,38,127,20
1,38,0,37
1,39,127,1
1,39,0,188
1,40,122,1
1,40,0,222
1,33,121,27
1,33,0,454
1,33,75,23
1,33,0,55
1,33,106,148
1,33,0,250
1,40,127,26
1,40,0,435
1,40,121,19
1,40,0,93
1,39,127,154
1,39,0,34
1,40,127,1
1,40,0,96
1,45,127,101
1,45,0,218
1,45,127,37
1,45,0,206
1,43,127,23
1,43,0,205
1,42,127,34
1,42,0,223
1,40,127,23
1,36,23,186
1,36,0,30
1,36,127,16
