track,note,velocity,time
0,56,92,239
0,49,111,0
0,37,117,0
0,56,102,0
0,36,98,0
0,49,114,0
0,49,100,0
0,61,115,1
0,56,113,0
0,49,103,0
0,49,112,0
0,56,88,1
0,56,94,2
0,37,95,1
0,42,91,0
0,49,113,1
0,58,111,0
0,58,110,1
0,41,113,0
0,49,111,0
0,42,103,1
0,38,120,0
0,49,110,1
0,49,107,2
0,56,93,0
0,56,47,1
0,36,78,1
0,41,93,1
0,42,81,0
0,49,110,0
0,49,108,2
0,56,96,0
0,56,66,1
0,44,107,0
0,42,89,2
0,36,103,0
0,49,112,0
0,49,113,2
0,56,95,0
0,58,113,1
0,46,97,0
0,46,106,1
0,49,115,1
0,38,120,1
0,42,74,1
0,46,115,30
0,47,117,0
0,53,114,1
0,34,104,1
0,54,111,0
0,42,81,1
0,36,79,0
0,47,83,0
0,59,115,0
0,54,100,1
0,54,99,0
0,35,108,1
0,42,81,2
0,36,103,0
0,47,104,1
0,54,98,0
0,35,90,1
0,47,103,0
0,46,113,0
0,54,105,1
0,47,114,1
0,39,116,0
0,42,94,0
0,38,120,0
0,56,110,1
0,47,114,0
0,56,95,1
0,47,113,4
0,47,109,0
0,54,94,1
0,39,95,0
0,36,80,0
0,54,84,1
0,42,81,0
0,47,108,2
0,54,100,1
0,47,104,0
0,42,112,1
0,54,97,0
0,36,97,0
0,42,77,1
0,47,108,1
0,54,70,1
0,47,90,0
0,44,99,0
0,54,93,0
0,46,103,1
0,47,116,2
0,56,114,1
0,56,110,0
0,38,120,0
0,47,116,1
0,42,94,0
0,40,99,3
0,29,110,5
0,42,89,1
0,36,83,0
0,54,105,12
0,58,112,2
0,42,117,1
0,30,117,1
0,49,92,0
0,49,115,1
0,42,103,0
0,42,85,1
0,36,101,0
0,42,108,0
0,49,73,2
0,30,96,2
0,49,100,1
0,46,106,0
0,42,117,3
0,51,108,0
0,34,117,0
0,42,103,0
0,51,114,1
0,42,115,0
0,38,120,1
0,49,70,4
0,30,95,1
0,42,102,0
0,36,76,0
0,49,109,1
0,42,74,0
0,42,110,3
0,37,114,0
0,49,55,0
0,42,109,1
0,49,100,1
0,42,91,0
0,36,105,0
0,42,100,4
0,39,98,2
0,49,73,0
0,51,113,0
0,46,109,0
0,42,113,1
0,51,108,4
0,38,120,0
0,42,106,1
0,49,118,1
0,42,109,1
0,29,94,0
0,42,113,0
0,49,101,0
0,42,89,1
0,36,83,0
0,30,116,7
0,42,83,0
0,49,79,1
0,36,107,0
0,42,110,1
0,42,104,1
0,30,95,1
0,49,81,0
0,49,115,0
0,46,113,0
0,42,113,1
0,51,108,3
0,34,115,1
0,42,94,0
0,38,120,0
0,42,116,1
0,51,117,1
0,42,108,3
0,49,110,2
0,34,95,1
0,42,81,0
0,38,53,24
0,42,105,0
0,42,101,1
0,37,114,1
0,49,54,0
0,38,66,2
0,38,73,23
0,42,112,2
0,49,108,1
0,49,87,0
0,42,111,1
0,39,96,0
0,38,80,1
0,38,89,23
0,42,117,2
0,51,113,1
0,42,111,1
0,51,111,1
0,38,96,0
0,38,106,23
0,42,114,6
0,49,90,0
0,42,106,1
0,38,117,0
0,49,121,2
0,42,124,0
0,54,97,0
0,30,117,0
0,36,115,0
0,49,102,1
0,42,115,0
0,81,105,0
0,81,88,12
0,81,103,9
0,81,87,6
0,81,103,23
0,80,90,6
0,78,94,19
0,75,83,6
0,42,115,7
0,49,112,1
0,30,117,2
0,54,64,0
0,36,117,0
0,49,123,1
0,42,123,1
0,54,26,0
0,78,96,1
0,78,87,9
0,78,96,4
0,81,89,10
0,78,86,32
0,81,95,18
0,80,80,9
0,42,116,19
0,49,117,1
0,81,101,0
0,30,117,1
0,36,117,0
0,42,125,1
0,49,119,0
0,54,86,1
0,81,92,10
0,81,87,11
0,81,93,15
0,81,95,15
0,81,89,16
0,81,92,14
0,78,82,9
0,42,117,16
0,81,103,0
0,30,117,1
0,36,123,0
0,42,121,1
0,38,103,0
0,54,104,1
0,49,117,0
0,49,112,0
0,38,75,0
0,38,85,4
0,81,104,27
0,38,100,4
0,38,80,26
0,38,88,3
0,81,103,29
0,38,101,0
0,38,90,31
0,78,88,5
0,38,98,16
0,78,96,14
0,38,104,0
0,38,108,31
0,78,88,11
0,38,115,16
0,54,83,17
0,47,95,0
0,78,104,1
0,35,106,1
0,54,111,0
0,36,98,0
0,47,112,1
0,49,100,0
0,54,77,1
0,47,101,0
0,35,90,1
0,54,100,1
0,75,77,1
0,42,91,0
0,54,92,1
0,39,116,0
0,59,99,0
0,56,96,1
0,47,111,0
0,56,109,0
0,47,112,1
0,42,103,0
0,38,120,0
0,39,95,1
0,47,90,1
0,54,64,0
0,47,99,0
0,36,78,0
0,42,81,0
0,54,69,1
0,42,112,0
0,54,92,0
0,54,83,1
0,47,108,0
0,47,102,0
0,59,95,0
0,54,81,1
0,42,89,0
0,36,103,0
0,44,99,1
0,47,102,0
0,47,105,1
0,56,96,0
0,54,79,0
0,42,85,0
0,54,87,1
0,59,96,1
0,38,120,0
0,47,115,1
0,56,103,1
0,42,98,0
0,54,97,13
0,47,95,0
0,34,110,1
0,42,81,1
0,81,95,1
0,36,79,0
0,54,92,1
0,54,87,2
0,35,106,1
0,47,99,0
0,59,95,0
0,42,100,0
0,36,103,0
0,54,57,1
0,35,90,0
0,47,98,0
0,54,80,1
0,42,81,0
0,54,70,1
0,81,78,0
0,39,116,0
0,47,113,0
0,42,94,0
0,38,120,0
0,56,104,1
0,47,113,0
0,56,105,0
0,81,99,0
0,59,99,1
0,54,93,0
0,47,103,1
0,39,95,1
0,36,80,0
0,54,76,1
0,54,83,0
0,42,81,0
0,54,87,1
0,80,84,0
0,59,91,0
0,47,92,1
0,42,112,0
0,36,97,0
0,54,77,1
0,47,108,0
0,78,92,1
0,42,97,0
0,54,91,1
0,47,111,1
0,44,99,0
0,47,107,0
0,56,102,1
0,42,78,0
0,54,92,1
0,78,88,0
0,82,90,0
0,38,120,0
0,47,111,1
0,56,98,0
0,42,94,1
0,42,97,8
0,49,100,1
0,29,86,1
0,78,96,0
0,42,89,1
0,36,83,0
0,40,81,1
0,42,87,1
0,30,106,2
0,49,76,0
0,42,106,0
0,42,98,0
0,36,101,0
0,30,90,2
0,75,87,0
0,49,76,1
0,42,86,0
0,42,101,0
0,42,80,0
0,49,82,1
0,34,116,0
0,73,62,0
0,58,108,0
0,54,89,0
0,42,103,0
0,42,104,1
0,51,101,1
0,38,120,0
0,42,109,1
0,42,104,4
0,49,66,1
0,34,95,0
0,36,76,0
0,42,74,0
0,42,94,1
0,42,95,1
0,49,82,0
0,37,112,1
0,54,82,0
0,58,99,0
0,42,94,1
0,49,55,1
0,42,100,0
0,36,105,0
0,51,89,0
0,39,99,0
0,54,85,0
0,42,92,1
0,42,109,0
0,58,89,0
0,42,80,0
0,49,89,1
0,75,71,2
0,38,120,1
0,49,71,1
0,42,112,0
0,51,112,1
0,42,106,0
0,49,107,6
0,42,107,0
0,29,110,1
0,78,82,0
0,42,84,1
0,36,83,0
0,42,108,1
0,49,60,2
0,54,85,2
0,42,105,0
0,30,106,1
0,42,108,0
0,58,93,0
0,36,107,0
0,49,72,1
0,42,109,1
0,30,90,0
0,49,66,1
0,42,78,0
0,49,77,1
0,51,104,1
0,34,116,0
0,42,94,0
0,38,120,0
0,51,105,1
0,58,96,1
0,54,82,0
0,42,115,1
0,42,105,1
0,49,82,1
0,34,95,0
0,42,110,0
0,42,81,1
0,36,83,0
0,54,74,1
0,58,96,0
0,49,93,1
0,42,111,1
0,49,82,0
0,37,112,1
0,42,104,0
0,36,105,1
0,42,100,0
0,42,114,3
0,42,88,0
0,39,99,0
0,49,91,0
0,49,73,1
0,78,90,0
0,42,80,0
0,58,88,1
0,54,87,1
0,42,114,3
0,51,110,1
0,51,86,1
0,42,99,0
0,78,82,1
0,42,98,0
0,38,120,0
0,42,92,1
0,36,88,0
0,42,84,1
0,36,86,0
0,80,98,1
0,49,98,1
0,56,86,2
0,37,106,0
0,42,101,0
0,36,101,0
0,49,110,1
0,56,71,7
0,56,64,1
0,37,90,0
0,49,87,1
0,80,94,1
0,42,91,0
0,49,99,1
0,49,111,2
0,58,107,0
0,41,116,1
0,49,110,1
0,58,105,1
0,77,95,0
0,61,87,0
0,56,92,0
0,42,103,0
0,38,120,0
0,49,93,4
0,56,91,1
0,41,95,0
0,36,78,0
0,75,83,0
0,42,81,0
0,49,112,1
0,56,86,1
0,44,112,0
0,49,97,1
0,56,84,0
0,49,114,0
0,56,101,1
0,73,72,0
0,61,94,0
0,56,90,0
0,42,89,0
0,36,103,0
0,49,109,2
0,46,99,1
0,58,102,1
0,49,112,0
0,42,85,0
0,56,87,1
0,56,90,1
0,61,86,0
0,38,120,0
0,49,112,1
0,58,100,0
0,42,98,1
0,54,109,13
0,47,103,0
0,35,117,1
0,81,105,0
0,49,100,1
0,36,103,0
0,54,102,3
0,47,108,4
0,47,89,1
0,35,90,0
0,54,79,1
0,47,104,1
0,81,86,0
0,54,102,1
0,39,116,0
0,42,94,0
0,38,120,0
0,47,114,1
0,56,112,0
0,56,102,1
0,81,101,0
0,54,87,0
0,59,91,0
0,39,95,1
0,78,90,0
0,36,80,0
0,47,89,1
0,54,79,0
0,54,89,0
0,42,81,0
0,47,93,1
0,42,112,0
0,47,108,0
0,81,101,0
0,36,97,0
0,54,86,1
0,54,85,0
0,59,92,1
0,54,85,0
0,42,97,0
0,54,89,0
0,47,107,1
0,44,99,1
0,47,105,0
0,56,104,1
0,42,78,0
0,54,79,1
0,59,95,0
0,47,111,6
0,56,105,0
0,38,120,2
0,42,94,0
0,54,105,8
0,56,101,3
0,49,97,0
0,36,86,1
0,46,89,1
0,36,83,0
0,81,105,1
0,49,103,23
0,56,82,0
0,37,106,3
0,42,98,1
0,36,101,0
0,49,94,1
0,56,85,1
0,49,92,1
0,37,90,1
0,81,87,1
0,42,80,0
0,49,105,1
0,58,94,0
0,49,104,1
0,58,103,0
0,41,116,1
0,80,103,0
0,42,103,0
0,56,99,1
0,61,97,0
0,38,120,0
0,49,108,1
0,56,84,0
0,49,93,1
0,41,95,1
0,36,76,0
0,78,83,1
0,42,74,0
0,49,98,5
0,56,85,1
0,44,112,2
0,56,84,1
0,49,100,0
0,80,101,1
0,61,99,0
0,56,88,0
0,42,100,0
0,36,105,0
0,49,102,1
0,56,82,1
0,49,78,1
0,46,99,0
0,56,73,1
0,42,80,0
0,78,84,1
0,61,96,1
0,56,92,0
0,49,110,1
0,58,96,1
0,38,120,0
0,49,97,1
0,58,87,0
0,78,99,0
0,42,106,0
0,56,30,1
0,29,110,2
0,78,88,1
0,42,84,0
0,36,83,0
0,42,105,2
0,49,76,1
0,42,94,0
0,30,106,0
0,36,107,0
0,49,95,1
0,42,96,2
0,49,59,1
0,30,90,0
0,42,101,0
0,75,54,0
0,49,87,1
0,42,78,0
0,42,104,2
0,51,109,1
0,34,116,0
0,51,107,0
0,58,90,0
0,54,82,0
0,42,94,0
0,38,120,0
0,73,35,1
0,36,83,0
0,34,95,0
0,42,96,0
0,49,86,1
0,42,86,0
0,49,85,0
0,42,81,0
0,58,87,1
0,54,79,0
0,38,53,23
0,37,112,1
0,42,97,0
0,49,81,1
0,36,105,0
0,38,66,0
0,38,73,23
0,42,72,1
0,39,99,1
0,42,102,0
0,49,99,1
0,38,80,1
0,38,89,23
0,42,103,3
0,49,87,0
0,42,110,2
0,49,102,0
0,36,83,0
0,38,96,0
0,38,106,19
0,29,88,0
0,42,104,1
0,42,115,1
0,38,113,0
0,38,91,9
0,42,111,8
0,49,111,0
0,54,101,1
0,30,117,0
0,81,105,0
0,58,93,0
0,54,100,0
0,36,98,0
0,42,100,0
0,49,109,1
0,42,110,0
0,81,88,11
0,42,51,4
0,81,98,15
0,42,94,3
0,38,120,0
0,78,82,14
0,42,51,3
0,81,94,15
0,42,89,2
0,42,47,46
0,36,103,0
0,38,120,7
0,81,95,1
0,42,98,0
0,42,47,46
0,36,79,0
0,58,95,8
0,42,110,2
0,49,102,0
0,54,89,0
0,54,93,0
0,30,117,1
0,49,102,1
0,81,95,1
0,42,100,0
0,42,110,2
0,81,81,18
0,42,49,1
0,36,103,0
0,81,103,22
0,42,94,0
0,38,120,0
0,36,80,47
0,42,50,0
0,81,99,25
0,42,97,2
0,42,50,46
0,36,97,0
0,38,120,4
0,78,90,1
0,42,94,0
0,42,50,46
0,49,105,7
0,42,108,0
0,54,89,0
0,30,117,1
0,42,114,0
0,49,103,0
0,58,95,0
0,54,102,2
0,81,102,0
0,42,98,0
0,36,101,0
0,42,51,14
0,36,83,0
0,81,93,1
0,42,103,45
0,38,120,1
0,81,94,19
0,42,51,1
0,81,90,14
0,42,100,2
0,36,105,0
0,42,49,46
0,36,76,0
0,38,120,15
0,81,94,1
0,42,106,0
0,42,49,4
0,78,88,1
0,38,77,1
0,49,113,9
0,42,113,0
0,49,114,0
0,54,98,1
0,30,117,1
0,42,105,0
0,42,112,1
0,54,94,0
0,38,120,0
0,36,107,0
0,81,96,1
0,58,88,0
0,81,80,15
0,42,51,0
0,38,106,0
0,81,100,12
0,42,94,0
0,38,115,0
0,42,51,9
0,38,102,0
0,81,85,1
0,81,102,15
0,38,107,1
0,36,105,0
0,42,100,0
0,42,48,9
0,38,98,0
0,78,92,1
0,78,96,14
0,42,98,1
0,38,107,0
0,78,98,1
0,42,48,0
0,38,120,0
0,47,111,10
0,47,107,0
0,54,93,1
0,35,106,0
0,36,98,0
0,54,102,1
0,78,96,0
0,49,100,0
0,35,90,0
0,54,87,1
0,47,101,0
0,75,62,0
0,42,91,0
0,54,92,1
0,54,92,1
0,39,116,1
0,59,99,0
0,47,111,1
0,47,110,0
0,56,98,0
0,56,111,1
0,42,103,0
0,38,120,0
0,39,95,1
0,47,98,0
0,54,78,0
0,36,78,1
0,42,81,0
0,47,104,0
0,47,106,1
0,42,112,1
0,54,72,0
0,54,92,0
0,54,104,1
0,59,95,0
0,42,89,1
0,36,103,0
0,47,94,1
0,44,99,1
0,54,87,0
0,56,99,1
0,54,79,0
0,46,85,0
0,59,96,1
0,56,104,3
0,38,120,0
0,47,83,1
0,42,98,1
0,47,107,2
0,54,113,1
0,34,110,0
0,47,102,0
0,54,67,1
0,42,81,0
0,81,95,1
0,36,79,0
0,47,101,0
0,54,52,1
0,54,87,1
0,35,106,1
0,59,95,1
0,42,100,0
0,36,103,0
0,47,98,5
0,35,90,0
0,54,78,0
0,54,90,1
0,47,95,0
0,46,81,0
0,81,78,1
0,47,110,4
0,56,104,0
0,39,116,0
0,42,94,0
0,38,120,0
0,47,102,1
0,56,101,0
0,81,99,0
0,59,99,1
0,54,93,0
0,47,110,1
0,54,92,1
0,47,100,1
0,39,95,0
0,36,80,0
0,54,64,1
0,54,83,0
0,42,81,0
0,80,84,1
0,59,91,0
0,47,111,1
0,54,91,0
0,47,97,0
0,42,112,0
0,36,97,0
0,54,84,1
0,78,92,1
0,42,97,0
0,47,101,1
0,47,115,1
0,56,111,1
0,44,99,0
0,54,71,0
0,46,78,1
0,78,88,1
0,47,110,3
0,56,102,1
0,82,90,1
0,38,120,0
0,42,94,0
0,40,95,8
0,49,45,1
0,29,86,1
0,78,96,0
0,42,113,1
0,42,89,0
0,36,83,0
0,42,107,1
0,42,111,0
0,49,84,0
0,30,106,1
0,42,98,1
0,36,101,0
0,42,96,1
0,42,107,1
0,30,90,0
0,49,87,0
0,75,87,0
0,49,91,1
0,46,80,0
0,51,102,2
0,34,116,0
0,73,62,0
0,58,108,0
0,54,89,0
0,42,103,0
0,42,114,1
0,51,104,0
0,42,108,0
0,56,31,1
0,38,120,0
0,42,98,2
0,34,95,0
0,49,83,0
0,36,76,0
0,49,66,1
0,42,74,0
0,42,90,4
0,42,110,1
0,37,112,0
0,49,92,0
0,54,82,0
0,58,99,0
0,49,82,1
0,42,101,0
0,42,100,1
0,36,105,0
0,42,119,2
