track,note,velocity,time
1,83,70,0
1,79,70,0
1,74,70,0
1,83,70,0
1,79,70,0
1,74,70,0
1,83,70,1
1,79,70,0
1,74,70,0
1,83,70,56
1,79,70,0
1,74,70,0
1,83,70,84
1,83,70,0
1,79,70,0
1,74,70,0
1,83,70,154
1,79,70,0
1,74,70,0
1,83,70,133
1,79,70,0
1,74,70,0
1,83,70,154
1,79,70,0
1,74,70,0
1,79,70,0
1,83,70,80
1,86,70,48
1,81,64,42
1,78,64,0
1,74,64,0
1,81,64,138
1,78,64,0
1,74,64,0
1,83,64,56
1,79,64,0
1,76,64,0
1,83,64,133
1,79,64,0
1,76,64,0
1,83,64,154
1,79,64,0
1,74,64,0
1,83,64,138
1,79,64,0
1,74,64,0
1,83,64,56
1,79,64,0
1,74,64,0
1,83,64,138
1,79,64,0
1,74,64,0
1,83,64,0
1,79,64,0
1,74,64,0
1,83,64,1
1,79,64,0
1,74,64,0
1,83,64,56
1,79,64,0
1,74,64,0
1,83,64,133
1,79,64,0
1,74,64,0
1,83,64,154
1,79,64,0
1,74,64,0
1,83,64,133
1,79,64,0
1,74,64,0
1,83,64,154
1,79,64,0
1,74,64,0
1,79,64,0
1,83,64,80
1,86,64,48
1,81,64,42
1,78,64,0
1,74,64,0
1,81,64,138
1,78,64,0
1,74,64,0
1,83,64,56
1,79,64,0
1,76,64,0
1,83,64,133
1,79,64,0
1,76,64,0
1,83,64,154
1,79,64,0
1,74,64,0
1,83,64,138
1,79,64,0
1,74,64,0
1,83,64,56
1,79,64,0
1,74,64,0
1,83,64,138
1,79,64,0
1,74,64,0
1,38,111,1
1,38,111,0
1,38,111,0
1,38,111,0
1,43,111,0
1,43,111,0
1,43,111,0
1,52,111,0
1,50,111,0
1,43,99,0
1,43,99,0
1,43,99,0
1,43,99,0
1,43,99,0
1,43,99,0
1,43,99,0
1,43,99,0
1,43,99,0
1,43,99,0
1,43,99,0
1,43,99,0
1,43,99,0
1,43,99,0
1,43,99,0
1,43,99,0
1,43,99,0
1,43,99,0
1,43,99,0
1,43,99,0
1,43,99,0
1,43,99,0
1,43,99,0
1,43,99,0
1,43,99,0
1,43,99,0
1,43,99,0
1,43,99,0
1,43,99,0
1,43,99,0
1,43,99,0
1,40,99,0
1,39,99,0
1,50,99,0
1,50,99,0
1,50,99,0
1,50,99,0
1,50,99,0
1,50,99,0
1,50,99,0
1,50,99,0
1,51,99,0
1,52,99,0
1,52,99,0
1,52,99,0
1,52,99,0
1,52,99,0
1,52,99,0
1,52,99,0
1,51,99,0
1,52,99,0
1,43,99,96
1,43,99,0
1,43,99,0
1,52,99,0
1,50,99,0
1,43,99,0
1,43,99,0
1,43,99,0
1,52,99,0
1,50,99,0
1,43,99,0
1,43,99,0
1,43,99,0
1,43,99,0
1,47,99,0
1,47,99,0
1,45,99,0
1,43,99,0
1,45,99,0
1,43,99,0
1,38,99,0
1,43,99,0
1,43,99,0
1,43,99,0
1,43,99,0
1,43,99,0
1,43,99,0
1,43,99,0
1,43,99,0
1,43,99,0
1,43,99,0
1,43,99,0
1,43,99,0
1,43,99,0
1,43,99,0
1,43,99,0
1,43,99,0
1,43,99,0
1,43,99,0
1,43,99,0
1,43,99,0
1,43,99,0
1,43,99,0
1,43,99,0
1,43,99,0
1,43,99,0
1,43,99,0
1,43,99,0
1,43,99,0
1,43,99,0
1,43,99,0
1,43,99,0
1,40,99,0
1,39,99,0
1,50,99,0
1,50,99,0
1,50,99,0
1,50,99,0
1,50,99,0
1,50,99,0
1,50,99,0
1,50,99,0
1,51,99,0
1,52,99,0
1,52,99,0
1,52,99,0
1,52,99,0
1,52,99,0
1,52,99,0
1,52,99,0
1,51,99,0
1,52,99,0
1,43,99,96
1,43,99,0
1,43,99,0
1,52,99,0
1,50,99,0
1,43,99,0
1,43,99,0
1,43,99,0
1,52,99,0
1,50,99,0
1,43,99,0
1,43,99,0
1,43,99,0
1,43,99,0
1,47,99,0
1,47,99,0
1,45,99,0
1,43,99,0
1,45,99,0
1,43,99,0
1,38,99,0
1,43,99,0
1,43,99,0
1,43,99,0
1,43,99,0
1,43,99,0
1,43,99,0
1,43,99,0
1,43,99,0
1,43,99,0
1,43,99,0
1,43,99,0
1,43,99,0
1,43,99,0
1,43,99,0
1,43,99,0
1,43,99,0
1,43,99,0
1,43,99,0
1,43,99,0
1,43,99,0
1,43,99,0
1,43,99,0
1,43,99,0
1,43,99,0
1,43,99,0
1,43,99,0
1,43,99,0
1,43,99,0
1,43,99,0
1,43,99,0
1,43,99,0
1,40,99,0
1,39,99,0
1,50,99,0
1,50,99,0
1,50,99,0
1,50,99,0
1,50,99,0
1,50,99,0
1,50,99,0
1,50,99,0
1,51,99,0
1,52,99,0
1,52,99,0
1,52,99,0
1,52,99,0
1,52,99,0
1,52,99,0
1,52,99,0
1,51,99,0
1,52,99,0
1,43,99,96
1,43,99,0
1,43,99,0
1,52,99,0
1,50,99,0
1,43,99,0
1,43,99,0
1,43,99,0
1,52,99,0
1,50,99,0
1,43,99,0
1,43,99,0
1,43,99,0
1,43,99,0
1,47,99,0
1,47,99,0
1,45,99,96
1,43,99,96
1,45,99,0
1,43,99,0
1,38,99,96
1,43,123,0
1,43,123,0
1,43,123,0
1,43,123,0
1,43,111,0
1,43,111,0
1,43,111,0
1,43,111,0
1,43,111,0
1,43,111,0
1,43,111,0
1,43,111,0
1,43,111,0
1,43,111,0
1,43,111,0
1,43,111,0
1,43,111,0
1,43,111,0
1,43,111,0
1,43,111,0
1,43,111,0
1,43,111,0
1,43,111,0
1,43,111,0
1,43,111,0
1,43,111,0
1,43,111,0
1,40,111,0
1,39,111,0
1,50,111,0
1,50,111,0
1,50,111,0
1,50,111,0
1,50,111,0
1,50,111,0
1,50,111,0
1,50,111,0
1,51,111,0
1,52,111,0
1,52,111,0
1,52,111,0
1,52,111,0
1,52,111,0
1,52,111,0
1,52,111,0
1,51,111,0
1,52,111,0
1,43,111,96
1,43,111,0
1,43,111,0
1,52,111,0
1,50,111,0
1,43,111,0
1,43,111,0
1,43,111,0
1,52,111,0
1,50,111,0
1,38,111,0
1,38,111,0
1,38,111,0
1,38,111,0
1,38,111,0
1,38,111,0
1,38,111,0
1,38,111,0
1,39,111,0
1,40,111,0
1,40,111,0
1,40,111,0
1,40,111,0
1,40,111,0
1,40,111,0
1,40,111,0
1,39,111,0
1,40,111,0
1,43,111,96
1,43,111,0
1,43,111,0
1,52,111,0
1,50,111,0
1,43,111,0
1,43,111,0
1,43,111,0
1,52,111,0
1,50,111,0
1,43,111,0
1,43,111,0
1,43,111,0
1,43,111,0
1,47,111,0
1,47,111,0
1,45,111,0
1,43,111,0
1,45,111,0
1,43,111,0
1,38,111,0
1,43,99,0
1,43,99,0
1,43,99,0
1,43,99,0
1,43,99,0
1,43,99,0
1,43,99,0
1,43,99,0
1,43,99,0
1,43,99,0
1,43,99,0
1,43,99,0
1,43,99,0
1,43,99,0
1,43,99,0
1,43,99,0
1,43,99,0
1,43,99,0
1,43,99,0
1,43,99,0
1,43,99,0
1,43,99,0
1,43,99,0
1,43,99,0
1,43,99,0
1,43,99,0
1,43,99,0
1,43,99,0
1,43,99,0
1,43,99,0
1,43,99,0
1,40,99,0
1,39,99,0
1,50,99,0
1,50,99,0
1,50,99,0
1,50,99,0
1,50,99,0
1,50,99,0
1,50,99,0
1,50,99,0
1,51,99,0
1,52,99,0
1,52,99,0
1,52,99,0
1,52,99,0
1,52,99,0
1,52,99,0
1,52,99,0
1,51,99,0
1,52,99,0
1,43,99,96
1,43,99,0
1,43,99,0
1,52,99,0
1,50,99,0
1,43,99,0
1,43,99,0
1,43,99,0
1,52,99,0
1,50,99,0
1,43,99,0
1,43,99,0
1,43,99,0
1,43,99,0
1,47,99,0
1,47,99,0
1,45,99,0
1,43,99,0
1,45,99,0
1,43,99,0
1,38,99,0
1,43,99,0
1,43,99,0
1,43,99,0
1,52,99,0
1,50,99,0
1,43,99,0
1,43,99,0
1,43,99,0
1,52,99,0
1,50,99,0
1,43,99,0
1,43,99,0
1,43,99,0
1,43,99,0
1,47,99,0
1,47,99,0
1,45,99,0
1,43,99,0
1,45,99,0
1,43,99,0
1,38,99,0
1,43,99,0
1,43,99,0
1,43,99,0
1,43,99,0
1,43,99,0
1,43,99,0
1,43,99,0
1,43,99,0
1,43,99,0
1,43,99,0
1,43,99,0
1,43,99,0
1,43,99,0
1,43,99,0
1,43,99,0
1,43,99,0
1,43,99,0
1,43,99,0
1,43,99,0
1,43,99,0
1,43,99,0
1,43,99,0
1,43,99,0
1,43,99,0
1,43,99,0
1,43,99,0
1,43,99,0
1,40,99,0
1,39,99,0
1,50,99,0
1,50,99,0
1,50,99,0
1,50,99,0
1,50,99,0
1,50,99,0
1,50,99,0
1,50,99,0
1,51,99,0
1,52,99,0
1,52,99,0
1,52,99,0
1,52,99,0
1,52,99,0
1,52,99,0
1,52,99,0
1,51,99,0
1,52,99,0
1,43,99,96
1,43,99,0
1,43,99,0
1,52,99,0
1,50,99,0
1,43,99,0
1,43,99,0
1,43,99,0
1,52,99,0
1,50,99,0
1,43,99,0
1,43,99,0
1,43,99,0
1,43,99,0
1,47,99,0
1,47,99,0
1,45,99,0
1,43,99,0
1,45,99,0
1,43,99,0
1,38,99,0
1,43,99,0
1,43,99,0
1,43,99,0
1,52,99,0
1,50,99,0
1,43,99,0
1,43,99,0
1,43,99,0
1,52,99,0
1,50,99,0
1,43,99,0
1,43,99,0
1,43,99,0
1,43,99,0
1,47,99,0
1,47,99,0
1,45,99,0
1,43,99,0
1,45,99,0
1,43,99,0
1,38,99,0
1,43,99,0
1,43,99,0
1,43,99,0
1,52,99,0
1,50,99,0
1,43,99,0
1,43,99,0
1,43,99,0
1,52,99,0
1,50,99,0
1,43,99,0
1,43,99,0
1,43,99,0
1,43,99,0
1,47,99,0
1,47,99,0
1,45,99,0
1,43,99,0
1,45,99,0
1,43,99,0
2,43,107,0
2,43,115,0
2,43,115,0
2,43,115,0
2,43,115,0
2,43,115,0
2,43,115,0
2,43,115,0
2,43,115,0
2,43,115,0
2,43,115,0
2,43,115,0
2,43,115,0
2,43,115,0
2,43,115,0
2,43,115,0
2,43,115,0
2,43,115,0
2,43,115,0
2,43,115,0
2,43,115,0
2,43,115,0
2,43,115,0
2,43,115,0
2,43,115,0
2,43,115,0
2,43,115,0
2,43,115,0
2,43,115,0
2,43,115,0
2,43,115,0
2,43,115,0
2,40,123,0
2,39,123,0
2,38,117,0
2,38,109,0
2,38,109,0
2,38,109,0
2,38,109,0
2,38,109,0
2,38,109,0
2,38,109,0
2,39,109,0
2,40,109,0
2,40,109,0
2,40,109,0
2,40,109,0
2,40,109,0
2,40,109,0
2,40,109,0
2,39,117,0
2,40,117,0
2,43,109,96
2,43,109,0
2,43,109,0
2,52,117,0
2,50,117,0
2,43,109,0
2,43,109,0
2,43,109,0
2,52,117,0
2,50,117,0
2,43,109,0
2,43,109,0
2,43,109,0
2,43,109,0
2,47,117,0
2,47,117,0
2,45,117,0
2,43,117,0
2,43,109,384
2,43,109,0
2,43,109,0
2,43,109,0
2,43,109,0
2,43,109,0
2,43,109,0
2,43,109,0
2,43,109,0
2,43,109,0
2,43,109,0
2,43,109,0
2,43,109,0
2,43,109,0
2,43,109,0
2,43,109,0
2,43,109,0
2,43,109,0
2,43,109,0
2,43,109,0
2,43,109,0
2,43,109,0
2,43,109,0
2,43,109,0
2,43,109,0
2,43,109,0
2,43,109,0
2,43,109,0
2,43,109,0
2,43,109,0
2,43,109,0
2,40,109,0
2,39,109,0
2,38,109,0
2,38,109,0
2,38,109,0
2,38,109,0
2,38,109,0
2,38,109,0
2,38,109,0
2,38,109,0
2,39,109,0
2,40,109,0
2,40,109,0
2,40,109,0
2,40,109,0
2,40,109,0
2,40,109,0
2,40,109,0
2,39,109,0
2,40,109,0
2,43,109,96
2,43,109,0
2,43,109,0
2,52,109,0
2,50,109,0
2,43,109,0
2,43,109,0
2,43,109,0
2,52,109,0
2,50,109,0
2,43,109,0
2,43,109,0
2,43,109,0
2,43,109,0
2,47,109,0
2,47,109,0
2,45,109,0
2,43,109,0
2,55,92,0
2,55,92,0
2,71,92,96
2,55,92,0
2,55,92,0
2,71,92,0
2,55,92,0
2,74,92,0
2,55,92,0
2,55,92,0
2,71,92,0
2,55,92,0
2,71,92,0
2,55,92,0
2,55,92,0
2,55,92,0
2,71,92,0
2,55,92,0
2,71,92,0
2,55,92,0
2,71,92,0
2,55,92,0
2,74,92,0
2,55,92,0
2,55,92,0
2,55,92,0
2,55,92,0
2,55,92,0
2,71,92,0
2,55,92,0
2,71,92,0
2,55,92,0
2,55,92,0
2,74,92,0
2,55,92,0
2,71,92,0
2,55,92,0
2,71,92,0
2,55,92,0
2,74,92,0
2,55,92,0
2,74,92,0
2,55,92,0
2,71,92,0
2,55,92,0
2,71,92,0
2,55,92,0
2,71,92,0
2,55,92,0
2,74,92,0
2,55,92,0
2,52,92,0
2,51,92,0
2,50,92,0
2,50,92,0
2,50,92,0
2,50,92,0
2,50,92,0
2,50,92,0
2,50,92,0
2,76,92,0
2,76,92,0
2,50,92,0
2,51,92,0
2,52,92,0
2,52,92,0
2,52,92,0
2,52,92,0
2,52,92,0
2,52,92,0
2,52,92,0
2,51,92,0
2,52,92,0
2,55,92,96
2,55,92,0
2,55,92,0
2,64,92,0
2,62,92,0
2,55,92,0
2,55,92,0
2,55,92,0
2,64,92,0
2,62,92,0
2,55,92,0
2,55,92,0
2,55,92,0
2,55,92,0
2,71,92,0
2,59,92,0
2,59,92,0
2,57,92,0
2,55,92,0
2,57,92,0
2,55,92,0
2,50,92,0
2,55,92,0
2,55,92,0
2,71,92,96
2,55,92,0
2,55,92,0
2,71,92,0
2,55,92,0
2,74,92,0
2,55,92,0
2,55,92,0
2,71,92,0
2,55,92,0
2,71,92,0
2,55,92,0
2,55,92,0
2,55,92,0
2,71,92,0
2,55,92,0
2,71,92,0
2,55,92,0
2,71,92,0
2,55,92,0
2,74,92,0
2,55,92,0
2,55,92,0
2,55,92,0
2,55,92,0
2,55,92,0
2,71,92,0
2,55,92,0
2,71,92,0
2,55,92,0
2,55,92,0
2,74,92,0
2,55,92,0
2,71,92,0
2,55,92,0
2,71,92,0
2,55,92,0
2,74,92,0
2,55,92,0
2,74,92,0
2,55,92,0
2,71,92,0
2,55,92,0
2,71,92,0
2,55,92,0
2,71,92,0
2,55,92,0
2,74,92,0
2,55,92,0
2,52,92,0
2,51,92,0
2,50,92,0
2,50,92,0
2,50,92,0
2,50,92,0
2,50,92,0
2,50,92,0
2,50,92,0
2,76,92,0
2,76,92,0
2,50,92,0
2,51,92,0
2,52,92,0
2,52,92,0
2,52,92,0
2,52,92,0
2,52,92,0
2,52,92,0
2,52,92,0
2,51,92,0
2,52,92,0
2,55,92,96
2,55,92,0
2,55,92,0
2,64,92,0
2,62,92,0
2,55,92,0
2,55,92,0
2,55,92,0
2,64,92,0
2,62,92,0
2,55,92,0
2,55,92,0
2,55,92,0
2,55,92,0
2,71,92,0
2,59,92,0
2,59,92,0
2,57,92,0
2,55,92,0
2,57,92,0
2,55,92,0
2,50,92,0
2,55,92,0
2,55,92,0
2,71,92,96
2,55,92,0
2,55,92,0
2,71,92,0
2,55,92,0
2,74,92,0
2,55,92,0
2,55,92,0
2,71,92,0
2,55,92,0
2,71,92,0
2,55,92,0
2,55,92,0
2,55,92,0
2,71,92,0
2,55,92,0
2,71,92,0
2,55,92,0
2,71,92,0
2,55,92,0
2,74,92,0
2,55,92,0
2,55,92,0
2,55,92,0
2,55,92,0
2,55,92,0
2,71,92,0
2,55,92,0
2,71,92,0
2,55,92,0
2,55,92,0
2,74,92,0
2,55,92,0
2,71,92,0
2,55,92,0
2,71,92,0
2,55,92,0
2,74,92,0
2,55,92,0
2,74,92,0
2,55,92,0
2,71,92,0
2,55,92,0
2,71,92,0
2,55,92,0
2,71,92,0
