track,note,velocity,time
3,34,127,336
3,34,0,127
3,34,127,53
3,29,127,60
3,34,0,3
3,29,0,127
3,29,127,50
3,34,127,60
3,29,0,1
3,34,0,133
3,34,127,46
3,29,127,60
3,34,0,4
3,29,0,93
3,34,127,23
3,34,0,63
3,41,127,57
3,41,0,135
3,41,127,45
3,41,0,59
3,39,127,1
3,39,0,131
3,39,127,49
3,39,0,47
3,34,127,13
3,34,0,127
3,34,127,53
3,29,127,60
3,34,0,5
3,29,0,112
3,31,127,3
3,31,0,73
3,34,127,47
3,34,0,134
3,34,127,46
3,34,0,56
3,29,127,4
3,29,0,183
3,34,127,57
3,34,0,143
3,34,127,37
3,34,0,59
3,46,127,1
3,46,0,108
3,34,127,12
3,34,0,108
3,39,127,12
3,39,0,130
3,39,127,50
3,39,0,26
3,39,127,34
3,39,0,154
3,39,127,26
3,39,0,37
3,34,127,23
3,34,0,140
3,34,127,40
3,34,0,58
3,29,127,2
3,29,0,192
3,34,127,48
3,34,0,138
3,34,127,42
3,34,0,56
3,33,127,4
3,33,0,147
3,33,127,33
3,33,0,45
3,31,127,15
3,31,0,138
3,31,127,42
3,31,0,56
3,29,127,4
3,29,0,138
3,29,127,42
3,29,0,57
3,39,127,3
3,39,0,136
3,39,127,44
3,39,0,59
3,34,127,1
3,34,0,109
3,39,127,11
3,39,0,106
3,41,127,14
3,41,0,166
3,36,127,14
3,29,127,60
3,36,0,7
3,29,0,108
3,41,127,5
3,41,0,61
3,34,127,59
3,114,1,0
3,114,0,2
3,34,0,136
3,34,127,42
3,33,127,60
3,34,0,5
3,33,0,130
3,33,127,45
3,31,127,60
3,33,0,5
3,31,0,120
3,31,127,55
3,29,127,60
3,31,0,2
3,29,0,138
3,29,127,40
3,29,0,54
3,39,127,6
3,39,0,129
3,39,127,51
3,39,0,32
3,39,127,28
3,39,0,133
3,39,127,47
3,39,0,54
3,34,127,6
3,34,0,136
3,34,127,44
3,34,0,59
3,29,127,1
3,29,0,83
3,29,127,37
3,29,0,87
3,34,127,33
3,34,0,143
3,34,127,37
3,34,0,60
3,46,127,0
3,46,0,115
3,34,127,5
3,34,0,116
3,41,127,4
3,41,0,135
3,41,127,45
3,36,127,60
3,41,0,2
3,41,127,118
3,36,0,5
3,41,0,97
3,39,127,18
3,39,0,147
3,39,127,33
3,39,0,59
3,34,127,1
3,34,0,109
3,39,127,11
3,39,0,89
3,34,127,31
3,34,0,138
3,34,127,42
3,34,0,49
3,29,127,11
3,29,0,98
3,29,127,22
3,29,0,71
3,34,127,49
3,34,0,134
3,34,127,46
3,34,0,56
3,29,127,4
3,29,0,183
3,34,127,57
3,34,0,143
3,34,127,37
3,34,0,59
3,46,127,1
3,46,0,108
3,34,127,12
3,34,0,108
3,39,127,12
3,39,0,130
3,39,127,50
3,39,0,26
3,39,127,34
3,39,0,154
3,39,127,26
3,39,0,37
3,34,127,23
3,34,0,140
3,34,127,40
3,34,0,58
3,29,127,2
3,29,0,192
3,34,127,48
3,34,0,138
3,34,127,42
3,34,0,56
3,33,127,4
3,33,0,147
3,33,127,33
3,33,0,45
3,31,127,15
3,31,0,138
3,31,127,42
3,31,0,56
3,29,127,4
3,29,0,138
3,29,127,42
3,29,0,57
3,39,127,3
3,39,0,136
3,39,127,44
3,39,0,59
3,34,127,1
3,34,0,109
3,39,127,11
3,39,0,106
3,41,127,14
3,41,0,166
3,36,127,14
3,29,127,60
3,36,0,7
3,29,0,108
3,41,127,5
3,41,0,61
3,34,127,59
3,34,0,138
3,34,127,42
3,33,127,60
3,34,0,5
3,33,0,130
3,33,127,45
3,31,127,60
3,33,0,5
3,31,0,120
3,31,127,55
3,29,127,60
3,31,0,2
3,29,0,138
3,29,127,40
3,29,0,54
3,39,127,6
3,39,0,129
3,39,127,51
3,39,0,32
3,39,127,28
3,39,0,133
3,39,127,47
3,39,0,54
3,34,127,6
3,34,0,136
3,34,127,44
3,34,0,59
3,29,127,1
3,29,0,83
3,29,127,37
3,29,0,87
3,34,127,33
3,34,0,143
3,34,127,37
3,34,0,60
3,46,127,0
3,46,0,115
3,34,127,5
3,34,0,116
3,41,127,4
3,41,0,135
3,41,127,45
3,36,127,60
3,41,0,2
3,41,127,118
3,36,0,5
3,41,0,97
3,39,127,18
3,39,0,147
3,39,127,33
3,39,0,59
3,34,127,1
3,34,0,109
3,39,127,11
3,39,0,89
3,34,127,31
3,34,0,138
3,34,127,42
3,34,0,49
3,29,127,11
3,29,0,98
3,29,127,22
3,29,0,71
3,34,127,49
3,34,0,133
3,34,127,47
3,34,0,54
3,29,127,6
3,29,0,146
3,29,127,34
3,29,0,51
3,34,127,9
3,34,0,144
3,34,127,36
3,34,0,58
3,46,127,2
3,41,127,60
3,46,0,4
3,34,127,56
3,41,0,4
3,34,0,96
3,39,127,20
3,39,0,129
3,39,127,51
3,39,0,25
3,39,127,35
3,39,0,133
3,39,127,47
3,39,0,49
3,34,127,11
3,34,0,133
3,34,127,47
3,34,0,49
3,29,127,11
3,29,0,87
3,29,127,33
3,29,0,74
3,34,127,46
3,34,0,127
3,34,127,53
3,29,127,60
3,34,0,3
3,29,0,127
3,29,127,50
3,34,127,60
3,29,0,1
3,34,0,133
3,34,127,46
3,29,127,60
3,34,0,4
3,29,0,93
3,34,127,23
3,34,0,63
3,41,127,57
3,41,0,135
3,41,127,45
3,41,0,59
3,39,127,1
3,39,0,131
3,39,127,49
3,39,0,47
3,34,127,13
3,34,0,127
3,34,127,53
3,29,127,60
3,34,0,5
3,29,0,112
3,31,127,3
3,31,0,73
3,34,127,47
3,34,0,134
3,34,127,46
3,34,0,56
3,29,127,4
3,29,0,183
3,34,127,57
3,34,0,143
3,34,127,37
3,34,0,59
3,46,127,1
3,46,0,108
3,34,127,12
3,34,0,108
3,39,127,12
3,39,0,130
3,39,127,50
3,39,0,26
3,39,127,34
3,39,0,154
3,39,127,26
3,39,0,37
3,34,127,23
3,34,0,140
3,34,127,40
3,34,0,58
3,29,127,2
3,29,0,192
3,34,127,48
3,34,0,138
3,34,127,42
3,34,0,56
3,33,127,4
3,33,0,147
3,33,127,33
3,33,0,45
3,31,127,15
3,31,0,138
3,31,127,42
3,31,0,56
3,29,127,4
3,29,0,138
3,29,127,42
3,29,0,57
3,39,127,3
3,39,0,136
3,39,127,44
3,39,0,59
3,34,127,1
3,34,0,109
3,39,127,11
3,39,0,106
3,41,127,14
3,41,0,166
3,36,127,14
3,29,127,60
3,36,0,7
3,29,0,108
3,41,127,5
3,41,0,61
3,34,127,59
3,34,0,138
3,34,127,42
3,33,127,60
3,34,0,5
3,33,0,130
3,33,127,45
3,31,127,60
3,33,0,5
3,31,0,120
3,31,127,55
3,29,127,60
3,31,0,2
3,29,0,138
3,29,127,40
3,29,0,54
3,39,127,6
3,39,0,129
3,39,127,51
3,39,0,32
3,39,127,28
3,39,0,133
3,39,127,47
3,39,0,54
3,34,127,6
3,34,0,136
3,34,127,44
3,34,0,59
3,29,127,1
3,29,0,83
3,29,127,37
3,29,0,87
3,34,127,33
3,34,0,143
3,34,127,37
3,34,0,60
3,46,127,0
3,46,0,115
3,34,127,5
3,34,0,116
3,41,127,4
3,41,0,135
3,41,127,45
3,36,127,60
3,41,0,2
3,41,127,118
3,36,0,5
3,41,0,97
3,39,127,18
3,39,0,147
3,39,127,33
3,39,0,59
3,34,127,1
3,34,0,109
3,39,127,11
3,39,0,89
3,34,127,31
3,34,0,138
3,34,127,42
3,34,0,49
3,29,127,11
3,29,0,98
3,29,127,22
3,29,0,71
3,41,127,49
3,41,0,205
3,41,127,35
3,41,0,226
3,36,127,14
3,36,0,199
3,36,127,41
3,36,0,226
3,31,127,14
3,31,0,184
3,31,127,56
3,31,0,214
3,36,127,26
3,36,0,143
3,36,127,37
3,31,127,60
3,36,0,4
3,31,0,126
3,31,127,50
3,31,0,57
3,36,127,3
3,36,0,123
3,36,127,57
3,36,0,60
3,31,127,0
3,31,0,93
3,31,127,27
3,31,0,67
3,36,127,53
3,36,0,134
3,36,127,46
3,36,0,56
3,31,127,4
3,31,0,183
3,36,127,57
3,36,0,143
3,36,127,37
3,36,0,59
3,48,127,1
3,48,0,108
3,36,127,12
3,36,0,108
3,41,127,12
3,41,0,130
3,41,127,50
3,41,0,26
3,41,127,34
3,41,0,154
3,41,127,26
3,41,0,37
3,36,127,23
3,36,0,140
3,36,127,40
3,36,0,58
3,31,127,2
3,31,0,192
3,36,127,48
3,36,0,138
3,36,127,42
3,36,0,56
3,35,127,4
3,35,0,147
3,35,127,33
3,35,0,45
3,33,127,15
3,33,0,138
3,33,127,42
3,33,0,56
3,31,127,4
3,31,0,138
3,31,127,42
3,31,0,57
3,41,127,3
3,41,0,136
3,41,127,44
3,41,0,59
3,36,127,1
3,36,0,109
3,41,127,11
3,41,0,106
3,43,127,14
3,43,0,166
3,38,127,14
3,31,127,60
3,38,0,7
3,31,0,108
3,43,127,5
3,43,0,61
3,36,127,59
3,36,0,138
3,36,127,42
3,35,127,60
3,36,0,5
3,35,0,130
3,35,127,45
3,33,127,60
3,35,0,5
3,33,0,120
3,33,127,55
3,31,127,60
3,33,0,2
3,31,0,138
3,31,127,40
3,31,0,54
3,41,127,6
3,41,0,129
3,41,127,51
3,41,0,32
3,41,127,28
3,41,0,133
3,41,127,47
3,41,0,54
3,36,127,6
3,36,0,136
3,36,127,44
3,36,0,59
3,31,127,1
3,31,0,83
3,31,127,37
3,31,0,87
3,36,127,33
3,36,0,143
3,36,127,37
3,36,0,60
3,48,127,0
3,48,0,115
3,36,127,5
3,36,0,116
3,43,127,4
3,43,0,135
3,43,127,45
3,38,127,60
3,43,0,2
3,43,127,118
3,38,0,5
3,43,0,97
3,41,127,18
3,41,0,147
3,41,127,33
3,41,0,59
3,36,127,1
3,36,0,109
3,41,127,11
3,41,0,89
3,36,127,31
3,36,0,138
3,36,127,42
3,36,0,49
3,31,127,11
3,31,0,98
3,31,127,22
3,31,0,71
3,36,127,49
3,36,0,143
3,36,127,37
3,36,0,60
3,48,127,0
3,48,0,115
3,36,127,5
3,36,0,116
3,43,127,4
3,43,0,135
3,43,127,45
3,38,127,60
3,43,0,2
3,43,127,118
3,38,0,5
3,43,0,97
3,41,127,18
3,41,0,147
3,41,127,33
3,41,0,59
3,36,127,1
3,36,0,109
3,41,127,11
3,41,0,89
3,36,127,31
3,36,0,138
3,36,127,42
3,36,0,49
3,31,127,11
3,31,0,98
3,31,127,22
3,31,0,71
3,36,127,49
3,36,0,133
3,36,127,47
3,36,0,54
3,31,127,6
3,31,0,146
3,31,127,34
3,31,0,51
3,36,127,9
3,36,0,144
3,36,127,36
3,36,0,58
3,48,127,2
3,43,127,60
3,48,0,4
3,36,127,56
3,43,0,4
3,36,0,96
3,41,127,20
3,41,0,129
3,41,127,51
3,41,0,25
3,41,127,35
3,41,0,133
3,41,127,47
3,41,0,49
3,36,127,11
3,36,0,133
3,36,127,47
3,36,0,49
3,31,127,11
3,31,0,87
3,31,127,33
3,31,0,74
3,36,127,46
3,36,0,127
3,36,127,53
3,31,127,60
3,36,0,3
3,31,0,127
3,31,127,50
3,36,127,60
3,31,0,1
3,36,0,133
3,36,127,46
3,31,127,60
3,36,0,4
3,31,0,93
3,36,127,23
3,36,0,63
3,43,127,57
3,43,0,135
3,43,127,45
3,43,0,59
3,41,127,1
3,41,0,131
3,41,127,49
3,41,0,47
3,36,127,13
3,36,0,127
3,36,127,53
3,31,127,60
3,36,0,5
3,31,0,112
3,33,127,3
3,33,0,73
3,36,127,47
3,36,0,133
3,36,127,47
3,36,0,54
3,31,127,6
3,31,0,146
3,31,127,34
3,31,0,51
3,36,127,9
3,36,0,144
3,36,127,36
3,36,0,58
3,48,127,2
3,43,127,60
3,48,0,4
3,36,127,56
3,43,0,4
3,36,0,96
3,41,127,20
3,41,0,129
3,41,127,51
3,41,0,25
3,41,127,35
3,41,0,133
3,41,127,47
3,41,0,49
3,36,127,11
3,36,0,133
3,36,127,47
3,36,0,49
3,31,127,11
3,31,0,87
3,31,127,33
3,31,0,74
3,36,127,46
3,36,0,127
3,36,127,53
3,31,127,60
3,36,0,3
3,31,0,127
3,31,127,50
3,36,127,60
3,31,0,1
3,36,0,133
3,36,127,46
3,31,127,60
3,36,0,4
3,31,0,93
3,36,127,23
3,36,0,63
3,43,127,57
3,43,0,135
3,43,127,45
3,43,0,59
3,41,127,1
3,41,0,131
3,41,127,49
3,41,0,47
3,36,127,13
3,36,0,127
3,36,127,53
3,31,127,60
3,36,0,5
3,31,0,112
3,33,127,3
3,33,0,73
3,36,127,47
3,36,0,980
4,62,103,384
4,46,113,0
4,58,92,0
4,53,103,0
4,53,0,26
4,46,0,6
4,62,0,9
4,58,0,4
4,62,92,75
4,53,103,0
4,58,92,0
4,46,103,0
4,58,0,58
4,62,0,25
4,46,0,13
4,53,0,4
4,58,62,6
4,58,0,25
4,46,113,65
4,53,97,0
4,58,57,55
4,58,0,20
4,58,71,40
4,62,78,0
4,53,0,12
4,46,0,2
4,58,0,48
4,62,0,4
4,58,97,56
4,65,108,0
4,62,113,0
4,65,0,17
4,58,0,3
4,62,0,2
4,53,92,67
4,53,0,38
4,62,87,22
4,58,78,0
4,65,82,0
4,62,0,24
4,58,0,3
4,65,0,1
4,60,103,24
4,65,103,0
4,53,103,0
4,57,82,0
4,65,0,46
4,57,0,12
4,60,0,1
4,53,0,11
4,65,73,8
4,60,71,0
4,57,64,0
4,65,0,24
4,60,0,7
4,57,0,9
4,55,75,10
4,63,97,0
4,58,92,0
4,51,97,0
4,63,0,7
4,55,0,2
4,58,0,3
4,51,0,12
4,63,87,6
4,58,92,0
4,55,78,0
4,58,0,29
4,55,0,2
4,63,0,0
4,58,87,1
4,53,73,0
4,62,92,0
4,46,82,0
4,58,0,78
4,58,63,35
4,46,0,8
4,53,0,11
4,58,0,26
4,62,0,5
4,46,108,10
4,53,92,0
4,53,0,31
4,46,0,2
4,65,92,27
4,60,82,0
4,60,0,21
4,65,0,0
4,60,127,39
4,65,119,0
4,65,0,27
4,60,0,3
4,53,103,30
4,53,0,12
4,58,108,20
4,58,0,24
4,58,78,33
4,62,97,0
4,46,108,0
4,65,87,0
4,53,87,0
4,65,0,665
4,62,0,3
4,46,0,3
4,53,0,3
4,58,0,6
4,63,75,280
4,55,68,0
4,51,87,0
4,58,78,0
4,58,0,30
4,63,0,2
4,55,0,1
4,51,0,10
4,46,53,11
4,62,75,0
4,58,73,0
4,53,57,0
4,53,0,68
4,58,0,0
4,46,0,7
4,62,0,4
4,70,78,14
4,62,82,0
4,65,87,0
4,62,0,28
4,65,0,4
4,70,0,8
4,57,92,2
4,69,103,0
4,69,0,17
4,57,0,25
4,67,87,1
4,55,71,0
4,55,0,27
4,67,0,14
4,53,87,5
4,65,103,0
4,65,0,17
4,53,0,11
4,63,92,7
4,67,69,0
4,58,75,0
4,63,0,43
4,67,0,3
4,58,0,2
4,53,73,11
4,65,75,0
4,60,92,0
4,57,71,0
4,57,0,296
4,60,0,1
4,53,0,1
4,65,0,2
4,65,108,180
4,53,97,0
4,46,103,0
4,62,113,0
4,58,108,0
4,53,0,42
4,46,0,1
4,65,0,3
4,58,0,6
4,62,0,1
4,57,87,2
4,57,0,36
4,55,103,4
4,55,0,65
4,53,92,13
4,53,0,37
4,58,113,5
4,63,103,0
4,55,75,0
4,51,87,0
4,58,0,47
4,55,0,13
4,63,0,3
4,51,0,12
4,58,87,16
4,53,71,0
4,46,103,0
4,62,87,0
4,46,0,189
4,53,0,7
4,58,0,10
4,62,0,5
4,46,78,6
4,62,92,0
4,58,87,0
4,65,87,0
4,53,75,0
4,65,0,37
4,53,0,4
4,46,0,2
4,62,0,10
4,58,0,1
4,60,97,8
4,57,68,0
4,53,108,0
4,65,78,0
4,65,0,65
4,60,0,4
4,57,0,5
4,53,0,1
4,55,75,115
4,51,78,0
4,58,103,0
4,63,108,0
4,58,0,83
4,55,0,3
