track,note,velocity,time
1,67,85,3960
1,67,0,118
1,67,85,2
1,67,0,118
1,64,85,2
1,64,0,118
1,67,85,2
1,67,0,238
1,69,85,242
1,69,0,118
1,67,85,2
1,67,0,118
1,67,85,2
1,67,0,118
1,64,85,2
1,64,0,118
1,67,85,2
1,67,0,238
1,70,85,362
1,70,0,238
1,64,85,2
1,64,0,118
1,67,85,2
1,67,0,238
1,67,85,2
1,67,0,118
1,67,85,2
1,67,0,118
1,67,85,2
1,67,0,238
1,67,85,842
1,67,0,118
1,67,85,2
1,67,0,118
1,64,85,2
1,64,0,118
1,67,85,2
1,67,0,238
1,67,85,2
1,67,0,238
1,69,85,2
1,69,0,238
1,67,85,2
1,67,0,118
1,64,85,2
1,64,0,118
1,67,85,2
1,67,0,238
1,64,85,362
1,64,0,118
1,67,85,2
1,67,0,118
1,64,85,2
1,64,0,118
1,67,85,2
1,67,0,118
1,67,85,2
1,67,0,118
1,67,85,2
1,67,0,118
1,67,85,2
1,67,0,118
1,67,85,2
1,67,0,238
1,67,85,842
1,67,0,118
1,67,85,2
1,67,0,238
1,67,85,2
1,67,0,238
1,69,85,362
1,69,0,118
1,70,85,2
1,70,0,238
1,69,85,2
1,69,0,118
1,67,85,2
1,67,0,118
1,70,85,362
1,70,0,118
1,70,85,2
1,70,0,118
1,64,85,2
1,64,0,118
1,67,85,2
1,67,0,118
1,67,85,2
1,67,0,118
1,67,85,2
1,67,0,238
1,67,85,2
1,67,0,238
1,67,85,842
1,67,0,118
1,67,85,2
1,67,0,238
1,67,85,2
1,67,0,238
1,69,85,362
1,69,0,118
1,70,85,2
1,70,0,238
1,69,85,2
1,69,0,118
1,67,85,2
1,67,0,118
1,70,85,362
1,70,0,118
1,70,85,2
1,70,0,118
1,64,85,2
1,64,0,118
1,67,85,2
1,67,0,118
1,67,85,2
1,67,0,118
1,67,85,2
1,67,0,238
1,67,85,2
1,67,0,238
1,67,85,842
1,67,0,118
1,67,85,2
1,67,0,118
1,64,85,2
1,64,0,118
1,67,85,2
1,67,0,238
1,69,85,242
1,69,0,118
1,67,85,2
1,67,0,118
1,67,85,2
1,67,0,118
1,64,85,2
1,64,0,118
1,67,85,2
1,67,0,238
1,70,85,362
1,70,0,238
1,64,85,2
1,64,0,118
1,67,85,2
1,67,0,238
1,67,85,2
1,67,0,118
1,67,85,2
1,67,0,118
1,67,85,2
1,67,0,238
1,67,85,842
1,67,0,118
1,67,85,2
1,67,0,118
1,64,85,2
1,64,0,118
1,67,85,2
1,67,0,238
1,67,85,2
1,67,0,238
1,69,85,2
1,69,0,238
1,67,85,2
1,67,0,118
1,64,85,2
1,64,0,118
1,67,85,2
1,67,0,238
1,64,85,362
1,64,0,118
1,67,85,2
1,67,0,118
1,64,85,2
1,64,0,118
1,67,85,2
1,67,0,118
1,67,85,2
1,67,0,118
1,67,85,2
1,67,0,118
1,67,85,2
1,67,0,118
1,67,85,2
1,67,0,238
1,67,85,842
1,67,0,118
1,67,85,2
1,67,0,238
1,67,85,2
1,67,0,238
1,69,85,362
1,69,0,118
1,70,85,2
1,70,0,238
1,69,85,2
1,69,0,118
1,67,85,2
1,67,0,118
1,70,85,362
1,70,0,118
1,70,85,2
1,70,0,118
1,64,85,2
1,64,0,118
1,67,85,2
1,67,0,118
1,67,85,2
1,67,0,118
1,67,85,2
1,67,0,238
1,67,85,2
1,67,0,238
1,67,85,842
1,67,0,118
1,67,85,2
1,67,0,238
1,67,85,2
1,67,0,238
1,69,85,362
1,69,0,118
1,70,85,2
1,70,0,238
1,69,85,2
1,69,0,118
1,67,85,2
1,67,0,118
1,70,85,362
1,70,0,118
1,70,85,2
1,70,0,118
1,64,85,2
1,64,0,118
1,67,85,2
1,67,0,118
1,67,85,2
1,67,0,118
1,67,85,2
1,67,0,238
1,67,85,2
1,67,0,238
1,67,85,8522
1,67,0,118
1,67,85,2
1,67,0,118
1,64,85,2
1,64,0,118
1,67,85,2
1,67,0,238
1,69,85,242
1,69,0,118
1,67,85,2
1,67,0,118
1,67,85,2
1,67,0,118
1,64,85,2
1,64,0,118
1,67,85,2
1,67,0,238
1,70,85,362
1,70,0,238
1,64,85,2
1,64,0,118
1,67,85,2
1,67,0,238
1,67,85,2
1,67,0,118
1,67,85,2
1,67,0,118
1,67,85,2
1,67,0,238
1,67,85,842
1,67,0,118
1,67,85,2
1,67,0,118
1,64,85,2
1,64,0,118
1,67,85,2
1,67,0,238
1,67,85,2
1,67,0,238
1,69,85,2
1,69,0,238
1,67,85,2
1,67,0,118
1,64,85,2
1,64,0,118
1,67,85,2
1,67,0,238
1,64,85,362
1,64,0,118
1,67,85,2
1,67,0,118
1,64,85,2
1,64,0,118
1,67,85,2
1,67,0,118
1,67,85,2
1,67,0,118
1,67,85,2
1,67,0,118
1,67,85,2
1,67,0,118
1,67,85,2
1,67,0,238
1,67,85,842
1,67,0,118
1,67,85,2
1,67,0,238
1,67,85,2
1,67,0,238
1,69,85,362
1,69,0,118
1,70,85,2
1,70,0,238
1,69,85,2
1,69,0,118
1,67,85,2
1,67,0,118
1,70,85,362
1,70,0,118
1,70,85,2
1,70,0,118
1,64,85,2
1,64,0,118
1,67,85,2
1,67,0,118
1,67,85,2
1,67,0,118
1,67,85,2
1,67,0,238
1,67,85,2
1,67,0,238
1,67,85,842
1,67,0,118
1,67,85,2
1,67,0,238
1,67,85,2
1,67,0,238
1,69,85,362
1,69,0,118
1,70,85,2
1,70,0,238
1,69,85,2
1,69,0,118
1,67,85,2
1,67,0,118
1,70,85,362
1,70,0,118
1,70,85,2
1,70,0,118
1,64,85,2
1,64,0,118
1,67,85,2
1,67,0,118
1,67,85,2
1,67,0,118
1,67,85,2
1,67,0,238
1,67,85,2
1,67,0,238
1,67,85,842
1,67,0,118
1,67,85,2
1,67,0,238
1,67,85,2
1,67,0,238
1,69,85,362
1,69,0,118
1,70,85,2
1,70,0,238
1,69,85,2
1,69,0,118
1,67,85,2
1,67,0,118
1,70,85,362
1,70,0,118
1,70,85,2
1,70,0,118
1,64,85,2
1,64,0,118
1,67,85,2
1,67,0,118
1,67,85,2
1,67,0,118
1,67,85,2
1,67,0,238
1,67,85,2
1,67,0,238
1,67,85,842
1,67,0,118
1,67,84,2
1,67,0,238
1,67,82,2
1,67,0,238
1,69,77,362
1,69,0,118
1,70,77,2
1,70,0,238
1,69,75,2
1,69,0,118
1,67,74,2
1,67,0,118
1,70,70,362
1,70,0,118
1,70,69,2
1,70,0,118
1,64,68,2
1,64,0,118
1,67,68,2
1,67,0,118
1,67,67,2
1,67,0,118
1,67,66,2
1,67,0,238
1,67,64,2
1,67,0,238
1,67,62,2
1,67,0,120
1,62,60,120
1,62,0,120
1,58,59,120
1,58,0,120
1,67,56,240
1,67,0,118
1,67,55,2
1,67,0,238
1,67,53,2
1,67,0,238
1,69,49,362
1,69,0,118
1,70,48,2
1,70,0,238
1,69,46,2
1,69,0,118
1,67,45,2
1,67,0,118
1,70,42,362
1,70,0,118
1,70,41,2
1,70,0,118
1,64,40,2
1,64,0,118
1,67,39,2
1,67,0,118
1,67,38,2
1,67,0,118
1,67,37,2
1,67,0,238
1,67,35,2
1,67,0,238
1,67,27,842
1,67,0,118
1,67,26,2
1,67,0,238
1,67,25,2
1,67,0,238
1,69,20,362
1,69,0,118
1,70,19,2
1,70,0,238
1,69,17,2
1,69,0,118
1,67,17,2
1,67,0,118
1,70,13,362
1,70,0,118
1,70,12,2
1,70,0,118
1,64,11,2
1,64,0,118
1,67,10,2
1,67,0,118
1,67,9,2
1,67,0,118
1,67,9,2
1,67,0,238
1,67,7,2
1,67,0,238
1,67,5,2
1,67,0,120
1,62,3,120
1,62,0,120
1,58,1,120
1,58,0,120
2,58,85,0
2,58,0,58
2,60,85,2
2,60,0,58
2,67,85,2
2,67,0,838
2,56,85,2
2,56,0,58
2,57,85,2
2,57,0,58
2,65,85,2
2,65,0,838
2,53,85,2
2,53,0,58
2,55,85,2
2,55,0,58
2,64,85,2
2,64,0,838
2,53,85,2
2,53,0,58
2,55,85,2
2,55,0,58
2,62,85,2
2,62,0,838
2,62,85,2
2,59,85,0
2,67,85,120
2,67,0,118
2,59,0,0
2,62,0,0
2,67,85,2
2,62,85,0
2,59,85,0
2,67,0,118
2,64,85,2
2,64,0,118
2,59,0,0
2,62,0,0
2,67,85,2
2,62,85,0
2,59,85,0
2,59,0,238
2,62,0,0
2,67,0,0
2,62,85,2
2,59,85,0
2,59,0,238
2,62,0,0
2,69,85,2
2,60,85,0
2,69,0,118
2,67,85,2
2,67,0,118
2,60,0,0
2,67,85,2
2,57,85,0
2,67,0,118
2,64,85,2
2,64,0,118
2,57,0,0
2,67,85,2
2,57,85,0
2,57,0,238
2,67,0,0
2,60,85,2
2,57,85,0
2,57,0,238
2,60,0,0
2,64,85,2
2,64,0,238
2,70,85,2
2,70,0,238
2,58,85,2
2,58,0,238
2,64,85,2
2,64,0,118
2,67,85,2
2,58,85,0
2,58,0,120
2,67,0,0
2,67,85,0
2,62,85,0
2,59,85,0
2,59,0,238
2,62,0,0
2,67,0,0
2,62,85,2
2,59,85,0
2,59,0,238
2,62,0,0
2,62,85,2
2,59,85,0
2,59,0,238
2,62,0,0
2,62,85,2
2,59,85,0
2,59,0,238
2,62,0,0
2,62,85,2
2,59,85,0
2,67,85,120
2,67,0,118
2,59,0,0
2,62,0,0
2,67,85,2
2,67,0,118
2,64,85,2
2,64,0,118
2,67,85,2
2,62,85,0
2,59,85,0
2,59,0,238
2,62,0,0
2,67,0,0
2,67,85,2
2,62,85,0
2,59,85,0
2,59,0,238
2,62,0,0
2,67,0,0
2,69,85,2
2,60,85,0
2,60,0,238
2,69,0,0
2,67,85,2
2,57,85,0
2,67,0,118
2,64,85,2
2,64,0,118
2,57,0,0
2,67,85,2
2,57,85,0
2,57,0,238
2,67,0,0
2,60,85,2
2,57,85,0
2,57,0,238
2,60,0,0
2,55,85,2
2,64,85,120
2,64,0,118
2,55,0,0
2,67,85,2
2,55,85,0
2,67,0,118
2,67,85,2
2,67,0,118
2,55,0,0
2,67,85,2
2,55,85,0
2,67,0,118
2,67,85,2
2,67,0,118
2,55,0,0
2,67,85,2
2,64,85,0
2,55,85,0
2,67,0,118
2,67,85,2
2,67,0,118
2,55,0,0
2,64,0,0
2,67,85,2
2,62,85,0
2,59,85,0
2,59,0,238
2,62,0,0
2,67,0,0
2,67,85,2
2,62,85,0
2,59,85,0
2,59,0,238
2,62,0,0
2,67,0,0
2,67,85,2
2,62,85,0
2,59,85,0
2,59,0,238
2,62,0,0
2,67,0,0
2,62,85,2
2,59,85,0
2,59,0,238
2,62,0,0
2,67,85,122
2,67,0,118
2,59,85,2
2,62,85,0
2,67,85,0
2,67,0,240
2,62,0,0
2,59,0,0
2,67,85,0
2,62,85,0
2,59,85,0
2,59,0,238
2,62,0,0
2,67,0,0
2,62,85,2
2,59,85,0
2,59,0,238
2,62,0,0
2,60,85,2
2,69,85,120
2,69,0,118
2,60,0,0
2,70,85,2
2,60,85,0
2,60,0,238
2,70,0,0
2,69,85,2
2,60,85,0
2,69,0,118
2,67,85,2
2,67,0,118
2,60,0,0
2,60,85,2
2,60,0,238
2,64,85,2
2,70,85,120
2,70,0,118
2,64,0,0
2,70,85,2
2,58,85,0
2,70,0,118
2,64,85,2
2,64,0,118
2,58,0,0
2,67,85,2
2,58,85,0
2,67,0,118
2,67,85,2
2,67,0,118
2,58,0,0
2,67,85,2
2,64,85,0
2,58,85,0
2,58,0,238
2,64,0,0
2,67,0,0
2,67,85,2
2,62,85,0
2,59,85,0
2,59,0,238
2,62,0,0
2,67,0,0
2,62,85,2
2,59,85,0
2,59,0,238
2,62,0,0
2,62,85,2
2,59,85,0
2,59,0,238
2,62,0,0
2,62,85,2
2,59,85,0
2,59,0,238
2,62,0,0
2,67,85,122
2,67,0,118
2,67,85,2
2,62,85,0
2,59,85,0
2,59,0,238
2,62,0,0
2,67,0,0
2,67,85,2
2,62,85,0
2,59,85,0
2,59,0,238
2,62,0,0
2,67,0,0
2,62,85,2
2,59,85,0
2,59,0,238
2,62,0,0
2,60,85,2
2,69,85,120
2,69,0,118
2,60,0,0
2,70,85,2
2,60,85,0
2,60,0,238
2,70,0,0
2,69,85,2
2,60,85,0
2,69,0,118
2,67,85,2
2,67,0,118
2,60,0,0
2,60,85,2
2,60,0,238
2,64,85,122
2,64,0,238
2,70,85,2
2,70,0,118
2,70,85,2
2,58,85,0
2,70,0,118
2,64,85,2
2,64,0,118
2,58,0,0
2,67,85,2
2,58,85,0
2,67,0,118
2,67,85,2
2,67,0,118
2,58,0,0
2,62,85,2
2,59,85,0
2,59,0,238
2,62,0,0
2,62,85,2
2,59,85,0
2,59,0,238
2,62,0,0
2,62,85,2
2,59,85,0
2,59,0,238
2,62,0,0
2,62,85,242
2,59,85,0
2,67,85,120
2,67,0,118
2,59,0,0
2,62,0,0
2,67,85,2
2,62,85,0
2,59,85,0
2,67,0,118
2,64,85,2
2,64,0,118
2,59,0,0
2,62,0,0
2,67,85,2
2,62,85,0
2,59,85,0
2,59,0,238
2,62,0,0
2,67,0,0
2,62,85,2
2,59,85,0
2,59,0,238
2,62,0,0
2,69,85,2
2,60,85,0
2,69,0,118
2,67,85,2
2,67,0,118
2,60,0,0
2,67,85,2
2,57,85,0
2,67,0,118
2,64,85,2
2,64,0,118
2,57,0,0
2,67,85,2
2,57,85,0
2,57,0,238
2,67,0,0
2,60,85,2
2,57,85,0
2,57,0,238
2,60,0,0
2,64,85,2
2,64,0,238
2,70,85,2
2,70,0,238
2,58,85,2
2,58,0,238
2,64,85,2
2,64,0,118
2,67,85,2
2,58,85,0
2,58,0,120
2,67,0,0
2,67,85,0
2,62,85,0
2,59,85,0
2,59,0,238
2,62,0,0
2,67,0,0
2,62,85,2
2,59,85,0
2,59,0,238
2,62,0,0
2,62,85,2
2,59,85,0
2,59,0,238
2,62,0,0
2,62,85,2
2,59,85,0
2,59,0,238
2,62,0,0
2,62,85,2
2,59,85,0
2,67,85,120
2,67,0,118
2,59,0,0
2,62,0,0
2,67,85,2
2,67,0,118
2,64,85,2
2,64,0,118
2,67,85,2
2,62,85,0
2,59,85,0
2,59,0,238
2,62,0,0
2,67,0,0
2,67,85,2
2,62,85,0
2,59,85,0
2,59,0,238
2,62,0,0
2,67,0,0
2,69,85,2
2,60,85,0
2,60,0,238
2,69,0,0
2,67,85,2
2,57,85,0
2,67,0,118
2,64,85,2
2,64,0,118
2,57,0,0
2,67,85,2
2,57,85,0
2,57,0,238
2,67,0,0
2,60,85,2
2,57,85,0
2,57,0,238
2,60,0,0
2,55,85,2
2,64,85,120
2,64,0,118
2,55,0,0
2,67,85,2
2,55,85,0
2,67,0,118
2,67,85,2
2,67,0,118
2,55,0,0
2,67,85,2
2,55,85,0
2,67,0,118
2,67,85,2
2,67,0,118
2,55,0,0
2,67,85,2
2,64,85,0
2,55,85,0
2,67,0,118
2,67,85,2
2,67,0,118
2,55,0,0
2,64,0,0
2,67,85,2
2,62,85,0
2,59,85,0
2,59,0,238
2,62,0,0
2,67,0,0
2,67,85,2
2,62,85,0
2,59,85,0
2,59,0,238
2,62,0,0
2,67,0,0
2,67,85,2
2,62,85,0
2,59,85,0
2,59,0,238
2,62,0,0
2,67,0,0
2,62,85,2
2,59,85,0
2,59,0,238
2,62,0,0
2,67,85,122
2,67,0,118
2,67,85,2
2,62,85,0
2,59,85,0
2,59,0,238
2,62,0,0
2,67,0,0
2,67,85,2
2,62,85,0
2,59,85,0
2,59,0,238
2,62,0,0
2,67,0,0
2,62,85,2
2,59,85,0
2,59,0,238
2,62,0,0
2,60,85,2
2,69,85,120
2,69,0,118
2,60,0,0
2,70,85,2
2,60,85,0
2,60,0,238
2,70,0,0
2,69,85,2
2,60,85,0
2,69,0,118
2,67,85,2
2,67,0,118
2,60,0,0
2,60,85,2
2,60,0,238
2,64,85,122
2,64,0,238
