track,note,velocity,time
0,38,98,956
0,54,24,0
0,63,24,380
0,64,24,0
0,51,100,0
0,58,95,0
0,63,24,324
0,64,24,0
0,51,101,128
0,58,94,0
0,63,25,68
0,64,25,0
0,54,95,0
0,61,92,0
0,63,25,260
0,64,25,0
0,51,96,0
0,58,101,0
0,63,25,380
0,64,25,0
0,63,25,32
0,64,25,0
0,51,106,0
0,58,93,0
0,51,100,68
0,58,101,0
0,63,26,68
0,64,26,0
0,54,97,0
0,61,93,0
0,53,106,20
0,60,94,0
0,63,29,192
0,64,29,0
0,36,99,128
0,51,94,0
0,58,103,0
0,36,109,188
0,63,31,0
0,64,31,0
0,42,90,380
0,63,33,0
0,64,33,0
0,36,90,128
0,51,91,0
0,58,100,0
0,36,109,68
0,63,35,0
0,64,35,0
0,54,98,0
0,61,109,0
0,42,83,260
0,63,37,0
0,64,37,0
0,51,107,0
0,58,102,0
0,36,96,188
0,36,92,176
0,63,39,0
0,64,39,0
0,42,90,32
0,63,41,0
0,64,41,0
0,51,93,0
0,58,104,0
0,36,108,68
0,51,106,0
0,58,104,0
0,36,95,68
0,63,43,0
0,64,43,0
0,54,90,0
0,61,91,0
0,53,96,68
0,60,96,0
0,42,81,192
0,54,28,0
0,63,28,0
0,64,28,0
0,54,28,44
0,54,28,32
0,54,29,44
0,36,109,44
0,54,29,0
0,51,99,0
0,58,98,0
0,54,29,44
0,54,30,44
0,54,30,44
0,36,94,44
0,54,30,0
0,63,30,0
0,64,30,0
0,54,30,44
0,54,31,44
0,54,31,44
0,54,31,44
0,54,31,44
0,54,32,44
0,54,32,44
0,42,90,44
0,54,32,0
0,63,32,0
0,64,32,0
0,54,32,0
0,54,33,24
0,54,33,44
0,36,100,44
0,54,33,0
0,51,109,0
0,58,108,0
0,54,33,44
0,54,34,44
0,54,34,20
0,36,103,44
0,54,34,0
0,63,34,0
0,64,34,0
0,54,100,0
0,61,93,0
0,54,34,44
0,54,35,44
0,54,35,20
0,54,35,44
0,54,35,44
0,54,36,44
0,54,36,44
0,42,89,44
0,54,36,0
0,63,36,0
0,64,36,0
0,51,106,0
0,58,101,0
0,54,37,44
0,54,37,44
0,54,37,44
0,36,90,44
0,54,37,0
0,54,38,44
0,54,38,44
0,54,38,44
0,36,98,44
0,54,38,0
0,63,38,0
0,64,38,0
0,54,39,44
0,54,39,44
0,54,39,44
0,54,39,44
0,54,40,44
0,54,40,32
0,54,40,44
0,42,75,44
0,54,40,0
0,63,40,0
0,64,40,0
0,51,108,0
0,58,99,0
0,54,41,44
0,54,41,44
0,54,41,20
0,36,96,44
0,54,41,0
0,51,97,0
0,58,90,0
0,54,42,44
0,54,42,44
0,54,42,20
0,36,102,44
0,54,43,0
0,63,43,0
0,64,43,0
0,54,93,0
0,61,90,0
0,54,43,44
0,54,43,44
0,54,43,20
0,54,44,44
0,53,97,0
0,60,93,0
0,54,44,44
0,54,44,44
0,54,44,44
0,42,86,44
0,54,45,0
0,63,45,0
0,64,45,0
0,54,45,44
0,54,45,24
0,54,45,44
0,36,94,44
0,54,46,0
0,51,97,0
0,58,93,0
0,63,91,0
0,66,95,0
0,54,46,44
0,54,46,44
0,54,46,44
0,36,99,44
0,54,47,0
0,63,47,0
0,64,47,0
0,54,47,44
0,54,47,44
0,54,47,44
0,54,48,44
0,54,48,44
0,54,48,44
0,54,48,44
0,42,85,44
0,54,49,0
0,63,49,0
0,64,49,0
0,54,49,44
0,54,49,32
0,54,50,44
0,36,109,44
0,54,50,0
0,51,97,0
0,58,91,0
0,63,96,0
0,66,98,0
0,54,50,44
0,54,50,44
0,54,51,20
0,36,95,44
0,54,51,0
0,63,51,0
0,64,51,0
0,51,95,0
0,60,95,0
0,63,108,0
0,68,97,0
0,54,51,44
0,54,51,44
0,54,52,44
0,54,52,16
0,54,52,44
0,54,52,44
0,54,53,44
0,42,74,44
0,54,53,0
0,63,53,0
0,64,53,0
0,51,94,0
0,58,94,0
0,63,96,0
0,66,100,0
0,54,53,44
0,54,53,44
0,54,54,44
0,36,103,44
0,54,54,0
0,54,54,44
0,54,54,44
0,54,55,44
0,36,100,44
0,54,55,0
0,63,55,0
0,64,55,0
0,54,55,44
0,54,55,44
0,54,56,44
0,54,56,44
0,54,56,44
0,54,57,24
0,54,57,44
0,42,75,44
0,54,57,0
0,63,57,0
0,64,57,0
0,51,104,0
0,58,96,0
0,63,90,0
0,66,105,0
0,54,57,44
0,54,58,44
0,54,58,20
0,36,108,44
0,54,58,0
0,51,109,0
0,58,94,0
0,63,107,0
0,66,107,0
0,54,58,44
0,54,59,44
0,54,59,20
0,36,97,44
0,54,59,0
0,63,59,0
0,64,59,0
0,51,96,0
0,60,99,0
0,63,109,0
0,68,100,0
0,54,59,44
0,54,60,44
0,54,60,20
0,54,60,44
0,51,99,0
0,60,105,0
0,63,91,0
0,68,92,0
0,54,60,44
0,54,61,44
0,54,61,44
0,42,86,44
0,54,61,0
0,63,61,0
0,64,61,0
0,54,61,44
0,54,62,32
0,54,62,44
0,36,104,44
0,54,62,0
0,51,107,0
0,58,99,0
0,63,90,0
0,66,100,0
0,63,115,0
0,63,121,0
0,54,63,44
0,54,63,44
0,54,63,44
0,36,92,44
0,54,63,0
0,63,63,0
0,64,63,0
0,54,64,44
0,54,64,44
0,54,64,44
0,54,64,44
0,54,65,44
0,54,65,44
0,54,65,44
0,42,88,44
0,54,65,0
0,63,65,0
0,64,65,0
0,54,66,44
0,54,66,32
0,54,66,44
0,36,100,44
0,54,66,0
0,51,109,0
0,58,107,0
0,63,97,0
0,66,96,0
0,54,67,44
0,54,67,44
0,54,67,20
0,36,105,44
0,54,67,0
0,63,67,0
0,64,67,0
0,51,93,0
0,60,101,0
0,63,95,0
0,68,105,0
0,54,68,44
0,54,68,44
0,54,68,20
0,54,68,44
0,54,69,44
0,54,69,32
0,68,111,0
0,68,107,0
0,54,69,8
0,70,109,4
0,70,111,0
0,42,78,4
0,54,70,0
0,63,70,0
0,64,70,0
0,51,96,0
0,58,107,0
0,63,108,0
0,66,90,0
0,75,117,0
0,75,112,0
0,54,70,44
0,54,70,44
0,54,70,44
0,36,92,44
0,54,71,0
0,54,71,44
0,54,71,44
0,54,71,44
0,36,109,44
0,54,72,0
0,63,72,0
0,64,72,0
0,54,72,44
0,54,72,44
0,54,72,44
0,54,73,44
0,70,124,0
0,54,73,44
0,54,73,4
0,54,73,8
0,42,80,8
0,54,74,0
0,63,74,0
0,64,74,0
0,32,112,0
0,51,94,0
0,58,101,0
0,63,106,0
0,66,103,0
0,54,74,8
0,54,74,16
0,54,74,8
0,36,99,12
0,54,75,0
0,34,120,0
0,51,99,0
0,58,108,0
0,63,107,0
0,66,94,0
0,54,75,20
0,54,75,8
0,54,75,20
0,36,99,8
0,40,91,0
0,54,76,0
0,63,76,0
0,64,76,0
0,36,103,0
0,51,109,0
0,60,95,0
0,63,96,0
0,68,99,0
0,68,122,0
0,54,76,8
0,54,76,20
0,54,77,4
0,38,99,4
0,54,77,0
0,38,113,0
0,51,96,0
0,60,105,0
0,63,96,0
0,68,107,0
0,54,77,8
0,38,95,28
0,54,77,0
0,54,78,4
0,42,83,8
0,38,98,0
0,54,78,0
0,63,78,0
0,64,78,0
0,68,111,0
0,54,78,12
0,54,78,24
0,54,79,32
0,36,93,16
0,40,99,0
0,54,79,0
0,39,109,0
0,63,92,0
0,66,92,0
0,70,91,0
0,66,116,0
0,54,79,12
0,54,79,32
0,54,80,8
0,36,96,8
0,42,89,0
0,62,83,24
0,63,114,0
0,42,77,16
0,40,95,0
0,63,82,0
0,58,78,0
0,63,75,0
0,66,85,0
0,66,120,0
0,36,98,16
0,64,95,0
0,39,105,0
0,63,122,0
0,36,99,16
0,42,78,0
0,42,107,0
0,63,104,0
0,66,100,0
0,72,107,0
0,66,105,0
0,62,80,16
0,63,113,0
0,42,83,16
0,40,104,0
0,63,81,0
0,39,114,0
0,66,105,0
0,70,94,0
0,75,97,0
0,58,83,0
0,63,72,0
0,66,87,0
0,63,115,0
0,36,98,128
0,64,102,0
0,36,100,188
0,42,80,0
0,58,109,140
0,62,102,4
0,56,104,8
0,58,119,8
0,42,90,4
0,40,96,0
0,63,81,0
0,39,119,0
0,66,108,0
0,70,94,0
0,75,99,0
0,58,73,0
0,63,80,0
0,66,88,0
0,61,101,16
0,36,99,4
0,64,90,0
0,39,115,0
0,66,97,0
0,70,104,0
0,75,93,0
0,63,111,16
0,36,100,4
0,42,89,0
0,42,108,0
0,63,102,0
0,66,91,0
0,72,103,0
0,63,123,0
0,62,88,16
0,39,101,0
0,63,104,0
0,66,93,0
0,70,97,0
0,63,107,0
0,42,75,20
0,40,108,0
0,63,96,0
0,58,73,0
0,63,84,0
0,66,75,0
0,36,103,24
0,64,82,0
0,34,110,0
0,65,96,0
0,70,97,0
0,74,103,0
0,77,96,0
0,65,122,0
0,36,106,188
0,42,81,0
0,62,92,188
0,42,91,188
0,40,101,0
0,63,84,0
0,58,87,0
0,62,85,0
0,65,71,0
0,36,103,24
0,64,80,0
0,34,115,0
0,65,124,0
0,36,104,16
0,42,83,0
0,34,105,0
0,65,117,0
0,62,91,16
0,33,102,0
0,60,113,0
0,42,81,16
0,40,101,0
0,63,95,0
0,32,107,0
0,60,93,0
0,63,102,0
0,66,103,0
0,70,104,0
0,58,70,0
0,60,77,0
0,63,89,0
0,63,120,0
0,36,102,128
0,64,85,0
0,36,98,188
0,42,79,0
0,66,108,28
0,62,92,4
0,32,101,0
0,65,109,8
0,63,113,8
0,42,78,4
0,40,107,0
0,63,97,0
0,35,117,0
0,58,82,0
0,60,74,0
0,63,78,0
0,61,101,16
0,36,93,4
0,64,82,0
0,39,104,0
0,61,109,0
0,58,111,12
0,36,109,4
0,42,82,0
0,37,119,0
0,63,114,0
0,62,80,8
0,38,102,0
0,63,106,0
0,42,79,16
0,40,109,0
0,63,89,0
0,58,81,0
0,60,78,0
0,63,71,0
0,63,121,0
0,36,93,16
0,64,85,0
0,39,101,0
0,63,107,0
0,66,94,0
0,70,94,0
0,75,121,0
0,36,96,188
0,42,89,0
0,62,98,188
0,42,84,188
0,40,100,0
0,63,93,0
0,58,75,0
0,63,70,0
0,66,82,0
0,36,102,24
0,64,95,0
0,39,113,0
0,63,95,0
0,66,96,0
0,70,99,0
0,63,106,0
0,36,95,16
0,42,84,0
0,42,104,0
0,63,95,0
0,66,93,0
0,72,93,0
0,66,119,0
0,62,81,16
0,63,112,0
0,42,83,16
0,40,99,0
0,63,89,0
0,39,118,0
0,63,92,0
0,66,105,0
0,70,106,0
0,58,78,0
0,63,84,0
0,66,84,0
0,63,106,0
0,36,96,128
0,64,92,0
0,36,109,188
0,42,86,0
0,58,106,20
0,62,86,4
0,58,114,0
0,56,101,8
0,58,120,8
0,42,92,4
0,40,102,0
0,63,81,0
0,39,119,0
0,63,96,0
0,66,92,0
0,70,100,0
0,58,85,0
0,63,79,0
0,66,83,0
0,58,122,0
0,61,111,16
0,36,107,4
0,64,93,0
0,39,112,0
0,63,106,0
0,66,99,0
0,70,90,0
0,58,116,0
0,63,113,12
0,36,96,4
0,42,81,0
0,42,120,0
0,63,109,0
0,66,96,0
0,72,109,0
0,61,106,0
0,62,88,16
0,44,113,0
0,63,102,0
0,66,90,0
0,70,104,0
0,63,121,0
0,42,77,16
0,40,98,0
0,63,93,0
0,58,80,0
0,63,73,0
0,66,76,0
0,65,119,0
0,36,100,16
0,64,84,0
0,46,104,0
0,62,102,0
0,65,101,0
0,68,102,0
0,70,98,0
0,65,118,0
0,36,105,188
0,42,75,0
0,62,96,24
0,63,114,0
0,42,75,16
0,40,101,0
0,63,95,0
0,58,79,0
0,62,81,0
0,65,72,0
0,65,106,0
0,36,94,16
0,64,82,0
0,41,112,0
0,63,121,0
0,36,98,16
0,42,92,0
0,46,106,0
0,65,123,0
0,62,89,16
0,60,122,0
0,42,90,16
0,40,109,0
0,63,91,0
0,44,106,0
0,60,109,0
0,63,95,0
0,66,98,0
0,70,100,0
0,58,88,0
0,60,87,0
0,63,71,0
0,63,105,0
0,36,100,128
0,64,94,0
0,36,105,188
0,42,92,0
0,66,113,28
0,62,82,0
0,39,118,0
0,65,101,8
0,63,109,8
0,42,81,4
0,40,93,0
0,63,80,0
0,44,115,0
0,58,76,0
0,60,77,0
0,63,81,0
0,61,105,16
0,36,106,4
0,64,82,0
0,61,106,0
0,58,106,12
0,36,107,4
0,42,80,0
0,34,119,0
0,63,112,0
0,62,85,16
0,35,112,0
0,61,105,0
0,42,84,16
0,40,91,0
0,63,93,0
0,58,86,0
0,60,82,0
0,63,73,0
0,63,120,0
0,36,106,24
0,64,94,0
0,36,110,0
0,60,109,0
0,63,106,0
0,67,105,0
0,61,115,0
0,36,106,16
0,42,91,0
0,72,105,0
0,62,94,188
0,67,127,20
0,79,102,0
0,42,85,4
0,40,98,0
0,63,88,0
0,63,72,0
0,67,86,0
0,70,80,0
0,70,101,0
0,67,103,0
0,63,94,0
0,67,123,0
0,36,106,16
0,64,93,0
0,63,96,0
0,67,101,0
0,70,92,0
0,65,124,0
0,70,127,12
0,82,106,0
0,36,107,4
0,42,85,0
0,36,119,0
0,63,90,0
0,67,106,0
0,70,94,0
0,67,112,0
0,62,95,16
0,39,106,0
0,63,91,0
0,67,97,0
0,70,93,0
0,63,110,0
0,42,85,16
0,40,101,0
0,63,89,0
0,63,81,0
0,67,76,0
0,70,86,0
0,63,92,0
0,67,103,0
0,70,106,0
0,63,115,24
0,36,107,8
0,64,92,0
0,44,120,0
0,65,122,0
0,72,127,20
0,84,108,0
0,36,91,4
0,42,93,0
0,60,98,0
0,63,98,0
0,66,97,0
0,63,94,0
0,68,97,0
0,66,108,0
0,62,87,16
0,63,102,0
0,66,105,0
0,68,95,0
0,42,84,16
0,40,108,0
0,63,92,0
0,34,103,0
0,63,81,0
0,66,80,0
0,68,78,0
0,36,95,120
0,64,84,0
0,68,96,0
0,63,97,0
0,66,99,0
0,75,127,24
0,87,114,0
0,36,93,4
0,42,80,0
0,37,112,0
0,60,114,0
0,62,94,16
0,38,113,0
0,63,116,0
0,42,75,188
0,40,92,0
0,63,87,0
0,63,75,0
0,66,79,0
0,68,78,0
0,36,93,120
0,64,81,0
0,39,112,0
0,67,109,0
0,70,123,24
0,82,118,0
0,36,102,4
0,42,79,0
0,58,97,0
0,61,103,0
0,63,99,0
0,67,92,0
0,62,95,24
0,68,111,0
0,42,91,188
0,40,102,0
0,63,82,0
0,63,72,0
0,67,86,0
0,70,89,0
0,63,95,0
0,67,102,0
0,70,94,0
0,36,108,128
0,64,93,0
0,39,117,0
0,73,123,16
0,85,107,0
0,36,93,4
0,42,77,0
0,39,102,0
0,63,97,0
0,67,105,0
0,70,93,0
0,67,121,0
0,62,96,188
0,42,88,24
0,40,95,0
0,63,91,0
0,32,105,0
0,63,79,0
0,67,85,0
0,70,74,0
0,63,107,0
0,70,91,0
0,67,94,0
0,61,112,0
0,36,94,16
0,64,94,0
0,63,105,0
0,72,120,24
0,84,102,0
0,36,95,4
0,42,82,0
0,60,105,0
0,63,96,0
0,66,106,0
0,68,96,0
0,63,93,0
0,60,90,0
0,62,79,16
0,34,101,0
0,68,96,0
0,60,90,0
0,63,105,0
0,42,88,20
0,40,95,0
0,63,81,0
0,36,115,0
0,60,71,0
0,63,73,0
0,68,74,0
0,70,105,0
0,36,100,16
0,64,82,0
0,63,91,0
0,60,90,0
0,68,104,0
0,68,115,0
0,75,124,12
0,87,120,0
0,36,99,4
0,42,75,0
0,37,106,0
0,66,113,0
0,62,96,16
0,38,104,0
0,68,116,0
0,72,127,12
0,84,113,0
0,42,76,4
0,40,92,0
0,63,92,0
0,60,76,0
0,63,76,0
0,68,88,0
0,63,123,0
0,70,127,16
0,82,106,0
0,36,93,4
0,64,88,0
0,39,104,0
0,63,102,0
0,67,109,0
0,70,105,0
0,63,95,0
0,67,92,0
0,70,108,0
0,67,121,0
