track,note,velocity,time
0,39,46,233
0,46,46,96
0,55,55,96
0,51,55,96
0,58,49,96
0,55,0,7
0,55,45,89
0,63,31,96
0,58,0,24
0,58,44,72
0,46,0,95
0,58,0,0
0,46,69,1
0,51,0,0
0,55,0,0
0,63,0,1
0,39,0,1
0,53,38,94
0,58,62,96
0,53,0,7
0,53,44,89
0,62,51,96
0,58,0,26
0,58,47,166
0,53,0,18
0,53,20,78
0,58,0,85
0,53,0,2
0,62,0,1
0,46,0,5
0,43,75,3
0,50,45,96
0,58,50,96
0,55,52,96
0,62,53,96
0,58,0,2
0,58,53,94
0,55,0,12
0,55,46,84
0,58,0,9
0,58,50,87
0,50,0,90
0,62,0,3
0,58,0,1
0,38,73,2
0,43,0,0
0,55,0,3
0,45,63,93
0,57,65,96
0,53,63,96
0,62,68,96
0,57,0,6
0,57,54,90
0,53,0,3
0,53,64,93
0,57,0,0
0,57,49,96
0,38,0,76
0,62,0,1
0,53,0,3
0,57,0,0
0,45,0,1
0,53,44,15
0,58,67,0
0,62,60,0
0,70,101,0
0,62,97,1
0,53,75,3
0,58,0,3
0,62,0,0
0,53,0,3
0,53,57,16
0,57,80,0
0,60,70,0
0,69,85,0
0,70,0,0
0,60,93,16
0,62,0,3
0,41,49,15
0,29,68,20
0,69,0,8
0,53,0,16
0,60,0,2
0,57,0,2
0,60,0,8
0,53,55,37
0,58,68,0
0,62,100,0
0,62,73,0
0,70,102,0
0,62,0,7
0,58,0,2
0,53,0,0
0,53,56,17
0,57,73,0
0,60,76,0
0,69,83,0
0,60,87,7
0,62,0,2
0,70,0,10
0,41,0,5
0,29,0,4
0,29,67,3
0,41,56,0
0,69,0,38
0,60,0,28
0,53,0,20
0,57,0,6
0,60,0,1
0,62,103,26
0,53,48,3
0,58,73,0
0,62,64,0
0,70,100,0
0,79,95,12
0,81,101,1
0,79,0,4
0,62,0,2
0,79,82,0
0,58,0,1
0,81,0,1
0,53,0,2
0,53,56,17
0,57,76,0
0,60,74,0
0,69,93,0
0,79,0,0
0,60,101,1
0,62,0,0
0,77,107,5
0,70,0,16
0,41,0,0
0,29,0,1
0,69,0,16
0,60,0,3
0,53,0,4
0,57,0,1
0,60,0,6
0,53,45,24
0,58,57,0
0,62,63,0
0,70,96,0
0,62,107,7
0,79,105,0
0,77,0,3
0,81,93,10
0,79,0,7
0,79,92,13
0,62,0,1
0,58,0,2
0,81,0,2
0,53,0,4
0,53,63,13
0,57,75,0
0,60,83,0
0,60,63,0
0,69,92,0
0,62,0,3
0,79,0,0
0,77,103,2
0,70,0,8
0,53,0,17
0,57,0,3
0,60,0,1
0,60,0,0
0,79,100,22
0,69,0,3
0,77,0,2
0,62,112,2
0,53,44,1
0,58,103,0
0,58,68,0
0,62,72,0
0,81,91,23
0,79,0,9
0,79,80,4
0,81,0,6
0,58,0,3
0,62,0,0
0,53,0,7
0,79,0,9
0,53,61,2
0,57,91,0
0,57,78,0
0,58,0,0
0,60,68,0
0,60,76,1
0,77,105,1
0,62,0,2
0,29,49,0
0,41,66,0
0,29,0,16
0,60,0,24
0,57,0,4
0,57,0,30
0,53,0,1
0,60,0,0
0,46,49,6
0,53,0,0
0,58,42,0
0,62,121,0
0,65,58,0
0,70,53,0
0,77,0,0
0,34,95,1
0,62,51,1
0,41,0,2
0,62,0,84
0,58,53,8
0,62,73,0
0,53,106,2
0,53,0,74
0,65,65,20
0,77,45,0
0,53,110,1
0,70,0,5
0,77,0,42
0,53,0,39
0,70,57,9
0,62,103,5
0,58,0,60
0,34,0,24
0,62,0,2
0,36,86,3
0,58,0,0
0,63,54,0
0,41,74,2
0,60,56,0
0,65,0,0
0,75,83,0
0,65,0,1
0,69,57,0
0,70,0,1
0,62,0,1
0,46,0,1
0,62,0,0
0,63,120,1
0,69,65,91
0,63,0,62
0,75,0,28
0,53,67,6
0,65,68,0
0,69,0,0
0,57,107,12
0,41,0,50
0,57,0,31
0,75,76,3
0,60,106,4
0,60,0,36
0,60,109,13
0,36,0,35
0,38,89,3
0,62,56,0
0,65,53,2
0,69,0,0
0,46,80,3
0,63,0,0
0,70,69,0
0,74,81,0
0,60,0,3
0,53,0,1
0,75,0,0
0,65,0,3
0,58,83,89
0,62,63,0
0,60,0,42
0,58,106,2
0,65,82,1
0,62,0,5
0,74,0,49
0,74,73,42
0,38,0,93
0,62,75,3
0,65,0,0
0,70,80,0
0,74,0,6
0,34,94,3
0,53,77,87
0,58,0,95
0,58,91,1
0,74,95,0
0,53,0,1
0,58,0,37
0,72,86,58
0,74,0,1
0,70,0,48
0,62,0,16
0,65,0,19
0,58,0,2
0,62,0,1
0,72,0,3
0,34,0,1
0,70,0,0
0,43,85,5
0,46,0,0
0,67,50,0
0,74,84,0
0,31,93,3
0,58,54,2
0,62,22,0
0,70,105,3
0,70,0,76
0,62,74,12
0,62,106,5
0,62,0,70
0,55,77,21
0,67,80,0
0,62,109,4
0,74,0,0
0,43,0,5
0,62,0,75
0,70,59,12
0,70,103,2
0,70,0,76
0,67,0,16
0,70,108,1
0,58,79,1
0,74,77,0
0,55,0,62
0,69,112,30
0,70,0,1
0,50,43,3
0,74,0,5
0,69,0,69
0,62,0,17
0,70,0,1
0,69,110,2
0,58,0,2
0,67,72,0
0,69,0,86
0,65,74,10
0,67,0,0
0,67,103,2
0,65,0,54
0,67,0,27
0,31,0,9
0,39,83,1
0,39,73,3
0,50,0,0
0,63,66,0
0,67,109,0
0,62,0,5
0,58,0,4
0,58,41,4
0,63,44,2
0,58,60,63
0,67,91,1
0,79,90,0
0,63,0,19
0,70,84,74
0,82,78,0
0,51,80,2
0,67,76,0
0,67,0,2
0,79,0,0
0,63,60,94
0,77,78,1
0,89,81,0
0,70,0,4
0,82,0,0
0,67,0,14
0,70,81,77
0,63,0,14
0,67,46,82
0,63,65,96
0,58,0,7
0,58,51,89
0,67,0,5
0,77,0,60
0,89,0,0
0,70,0,13
0,51,0,3
0,58,0,9
0,67,0,1
0,63,0,1
0,67,0,1
0,39,0,3
0,39,0,0
0,53,70,0
0,70,74,0
0,63,0,1
0,58,0,2
0,41,96,6
0,58,45,4
0,62,58,1
0,65,60,1
0,65,61,81
0,65,106,3
0,65,0,71
0,70,0,8
0,70,111,10
0,58,82,4
0,62,87,0
0,65,0,5
0,53,0,7
0,70,0,68
0,65,108,12
0,65,78,4
0,65,0,68
0,58,0,3
0,62,0,3
0,65,0,0
0,58,0,14
0,65,107,4
0,53,68,4
0,72,82,0
0,65,0,3
0,57,71,4
0,60,65,1
0,62,0,0
0,65,63,0
0,41,0,3
0,39,80,2
0,65,0,68
0,63,110,13
0,63,1,2
0,65,79,0
0,75,1,0
0,72,0,81
0,63,0,1
0,60,60,14
0,62,125,0
0,63,65,0
0,63,0,1
0,65,0,0
0,75,0,0
0,53,0,2
0,62,0,58
0,57,62,35
0,63,105,53
0,60,0,7
0,65,0,3
0,57,0,5
0,39,0,13
0,57,0,8
0,63,0,0
0,60,0,1
0,51,75,6
0,55,55,0
0,63,86,0
0,63,61,0
0,63,0,0
0,75,89,0
0,58,68,1
0,70,107,4
0,39,92,2
0,58,71,89
0,67,93,0
0,67,62,0
0,79,91,0
0,63,0,1
0,75,0,0
0,70,0,2
0,63,107,52
0,63,0,40
0,63,67,1
0,70,73,0
0,58,0,1
0,67,0,1
0,70,84,0
0,79,0,0
0,82,86,0
0,67,0,5
0,63,105,5
0,58,74,84
0,67,72,0
0,77,77,0
0,89,82,0
0,70,0,3
0,82,0,0
0,51,0,5
0,63,0,65
0,70,0,3
0,63,47,20
0,75,67,0
0,58,0,21
0,77,62,75
0,75,0,4
0,77,0,7
0,75,83,3
0,39,0,6
0,51,79,0
0,44,76,19
0,51,0,7
0,63,0,1
0,63,0,0
0,39,73,1
0,44,0,2
0,55,0,6
0,58,0,8
0,63,0,0
0,77,0,3
0,89,0,0
0,67,0,2
0,75,0,5
0,48,84,5
0,55,56,1
0,60,74,0
0,63,53,0
0,39,0,5
0,36,92,1
0,57,1,0
0,63,123,2
0,57,0,4
0,63,0,68
0,55,81,15
0,55,105,4
0,55,0,69
0,48,0,19
0,55,108,3
0,60,82,1
0,63,59,0
0,55,0,84
0,62,66,12
0,63,104,3
0,63,0,18
0,63,0,26
0,63,125,1
0,62,0,38
0,60,0,8
0,36,0,1
0,48,67,1
0,51,81,0
0,60,74,0
0,63,0,88
0,62,105,14
0,62,0,79
0,62,106,16
0,62,0,74
0,60,109,19
0,51,0,23
0,63,0,24
0,55,0,6
0,60,0,2
0,55,0,14
0,60,0,9
0,57,57,1
0,60,62,1
0,60,0,1
0,65,62,1
0,41,76,12
0,60,81,0
0,48,0,1
0,41,92,1
0,60,105,1
0,48,45,93
0,53,71,96
0,65,69,0
0,67,63,96
0,65,0,6
0,69,67,90
0,67,0,4
0,60,0,138
0,69,0,42
0,65,69,8
0,60,0,88
0,53,0,7
0,53,64,1
0,48,0,51
0,53,0,2
0,41,0,3
0,41,0,28
0,65,0,8
0,46,54,4
0,70,56,0
0,34,99,1
0,60,0,2
0,58,58,1
0,62,67,0
0,62,106,0
0,65,0,0
0,65,56,0
0,57,0,2
0,74,52,6
0,62,0,53
0,58,46,31
0,62,70,0
0,53,103,5
0,65,56,11
0,74,0,3
0,53,0,45
0,65,0,15
0,65,64,17
0,65,50,1
0,53,104,3
0,70,0,2
0,53,0,64
0,74,57,25
0,65,0,1
0,70,62,0
0,62,113,2
0,62,0,30
0,58,0,5
0,65,0,11
0,62,0,7
0,34,0,12
0,74,0,1
0,62,0,1
0,36,84,3
0,58,0,0
0,41,79,1
0,57,62,0
0,60,58,0
0,65,51,0
0,75,48,0
0,75,79,0
0,65,0,1
0,70,0,1
0,63,112,1
0,46,0,1
0,63,0,56
0,69,69,32
0,57,112,8
0,69,51,4
0,75,0,16
0,57,0,42
0,69,0,8
0,75,0,12
0,69,48,5
0,53,65,1
0,65,74,0
0,69,0,0
0,57,111,4
0,41,0,58
0,57,0,19
0,72,53,7
0,69,0,5
0,75,79,3
0,58,112,1
0,57,0,44
0,60,0,2
0,58,0,4
0,65,0,1
0,72,0,4
0,60,110,6
0,36,0,1
0,38,91,3
0,72,51,1
0,46,75,4
0,58,56,0
0,62,72,0
0,65,61,0
0,74,81,0
0,53,0,4
0,75,0,0
0,65,0,3
0,60,0,63
0,74,0,8
0,72,0,5
0,58,103,4
0,70,54,0
0,58,83,9
0,62,69,0
0,72,70,0
0,72,0,42
0,58,0,30
0,70,0,2
0,70,51,17
0,58,105,2
0,65,79,3
0,72,70,0
0,62,0,5
0,70,58,91
0,72,0,4
0,70,0,28
0,38,0,61
0,62,81,3
0,65,0,0
0,70,81,0
0,34,97,9
0,53,74,87
0,58,0,95
0,58,95,1
0,53,0,1
0,58,0,66
0,62,0,28
0,62,49,1
0,70,0,14
0,70,0,35
0,62,0,16
0,58,0,21
0,65,0,0
0,58,0,3
0,34,0,2
0,62,0,0
0,43,84,5
0,46,0,0
0,58,50,0
0,62,57,0
0,67,61,0
0,74,89,0
0,31,94,3
0,82,52,7
0,70,112,3
0,70,0,74
0,62,74,9
0,62,104,10
0,74,57,9
0,82,0,3
0,62,0,48
0,74,0,9
0,74,0,16
0,55,73,1
0,67,76,0
0,74,93,0
0,74,67,4
0,74,0,0
0,62,111,4
0,43,0,1
0,62,0,75
0,74,0,4
0,70,56,8
0,72,85,0
0,70,108,3
0,82,61,0
0,70,0,69
0,82,0,7
0,67,0,15
0,58,78,2
0,74,80,0
0,70,105,2
0,72,0,2
0,82,66,0
0,55,0,58
0,70,0,19
0,74,0,10
0,50,43,5
0,65,89,0
0,69,103,1
0,81,61,4
0,82,0,2
0,81,0,72
0,62,0,12
0,70,0,1
0,58,0,4
0,67,75,0
0,81,62,0
0,69,0,8
0,69,106,69
0,79,54,15
0,81,0,1
0,65,0,2
0,65,74,1
0,67,0,0
0,69,0,29
0,65,0,6
0,67,105,14
0,67,0,21
0,62,0,2
0,58,0,3
0,79,0,9
0,67,0,4
0,31,0,4
0,39,87,1
0,39,72,3
0,50,0,0
0,58,61,0
0,63,63,0
0,63,64,0
0,67,62,0
0,79,53,2
0,67,107,7
0,58,56,87
0,63,0,20
0,51,80,76
0,67,68,0
0,63,57,96
0,67,0,19
0,65,48,77
0,67,60,0
0,70,29,0
0,63,0,14
0,51,0,70
0,51,49,12
0,65,0,63
0,70,0,29
0,67,0,3
0,63,69,1
0,67,68,0
0,70,29,0
0,67,0,4
0,58,0,3
0,67,0,13
0,58,48,76
0,79,0,54
0,67,0,18
0,63,0,3
0,58,0,2
0,63,0,10
0,58,0,3
0,51,0,1
0,70,0,1
0,39,0,4
0,39,0,0
0,53,73,0
0,58,53,0
0,62,70,0
0,65,63,0
0,70,72,0
0,41,93,9
0,65,64,87
0,77,64,1
0,65,110,1
0,65,0,72
0,70,0,8
0,77,0,11
0,58,86,3
0,62,84,0
0,82,66,0
0,65,0,5
0,70,112,0
0,53,0,7
0,70,0,52
0,82,0,22
0,77,65,7
0,65,69,3
0,65,108,7
0,62,0,25
0,58,0,3
0,65,0,24
0,65,0,5
0,77,0,15
0,58,0,9
0,53,72,8
0,57,57,0
0,60,69,0
0,65,70,0
0,72,79,0
0,65,0,3
0,77,67,1
0,65,110,3
0,62,0,1
0,41,0,3
0,39,84,2
0,65,79,83
0,75,65,1
0,77,0,2
0,65,0,21
0,63,104,29
0,72,0,28
0,63,0,1
0,74,56,11
0,75,0,0
0,60,53,3
0,63,62,0
0,65,0,1
0,53,0,2
0,62,109,0
0,62,0,71
0,75,65,18
0,74,0,2
0,57,62,2
0,63,112,1
0,57,0,71
0,65,0,3
0,60,0,1
0,39,0,5
0,63,0,5
0,57,0,3
0,63,0,0
0,60,0,1
0,82,57,4
0,51,73,2
0,55,44,0
0,58,62,0
0,63,70,0
0,63,78,0
0,67,79,0
0,70,73,0
0,75,0,4
0,70,103,1
0,39,92,2
0,70,0,81
0,58,67,8
0,75,51,44
0,63,107,11
0,82,0,8
0,75,0,9
0,63,0,16
0,63,0,7
0,63,63,1
0,58,0,1
0,75,45,3
0,63,111,4
0,67,0,87
0,58,78,1
0,67,72,0
0,51,0,8
0,70,0,37
0,63,0,28
0,67,0,0
0,63,52,23
0,70,69,0
0,58,0,21
0,70,0,82
0,63,0,88
0,63,44,1
0,67,76,0
0,70,51,0
0,39,0,48
0,51,84,0
0,67,0,20
0,63,0,2
0,44,79,26
0,62,78,0
0,65,81,0
0,63,0,2
0,51,0,5
0,39,74,1
0,44,0,2
0,62,0,8
0,65,0,3
0,70,0,0
0,63,0,4
0,58,0,1
0,55,0,3
0,75,0,8
0,75,64,17
0,48,82,2
0,55,47,0
0,60,48,0
0,60,67,0
0,63,46,0
0,63,80,0
0,67,69,0
0,39,0,6
0,36,87,1
0,63,108,1
0,55,80,88
0,75,0,1
0,67,66,1
0,63,0,12
0,55,106,3
0,67,0,51
0,55,0,15
0,67,65,7
0,48,0,2
0,63,0,3
0,63,56,1
0,55,109,8
0,67,0,75
0,75,64,4
0,55,0,5
0,62,70,4
0,63,109,1
0,67,0,18
0,63,0,2
0,60,0,1
0,75,0,52
0,63,0,10
0,62,0,2
0,75,52,2
0,36,0,7
0,48,68,1
0,51,80,0
0,60,72,0
0,67,73,0
0,63,112,3
0,63,0,81
0,74,60,11
0,62,108,1
0,75,0,0
0,74,0,67
0,74,60,22
0,63,57,7
0,62,0,29
0,62,112,21
0,72,63,40
0,74,0,1
0,62,67,5
0,62,0,4
0,63,0,8
0,60,107,6
0,67,0,1
0,51,0,6
0,60,0,45
0,55,0,1
0,60,0,9
0,72,0,0
0,63,0,3
0,60,0,1
0,55,0,1
0,60,106,4
0,62,0,3
0,72,55,3
0,41,76,1
0,53,64,0
0,57,34,0
0,57,87,0
0,60,56,0
0,60,79,0
0,65,58,0
0,48,0,1
0,41,87,1
0,48,48,94
0,53,0,96
0,53,74,0
0,57,0,0
0,57,70,0
0,53,0,96
