track,note,velocity,time
1,66,127,7680
1,66,127,292
1,62,127,148
1,64,127,176
1,62,127,60
1,64,127,112
1,66,127,8
1,62,127,140
1,66,127,1792
1,66,127,268
1,62,127,216
1,64,127,128
1,66,127,4
1,62,127,104
1,62,127,160
1,66,127,2208
1,66,127,248
1,62,127,216
1,64,127,176
1,62,127,384
1,64,127,176
1,66,127,16
1,62,127,140
1,66,127,2064
1,66,127,268
1,62,127,216
1,64,127,80
1,66,127,20
1,62,127,60
1,62,127,184
1,67,127,2100
1,67,127,240
1,67,127,204
1,64,127,152
1,62,127,148
1,62,127,276
1,64,127,128
1,66,127,224
1,66,127,136
1,66,127,200
1,64,127,128
1,62,127,140
1,59,127,12
1,60,127,0
1,64,127,448
1,64,127,280
1,64,127,168
1,62,127,108
1,62,127,328
1,62,127,180
1,62,127,164
1,66,127,1020
1,66,127,252
1,62,127,356
1,64,127,152
1,62,127,88
1,66,127,216
1,62,127,104
1,66,127,2116
1,66,127,204
1,62,127,168
1,66,127,44
1,62,127,16
1,62,127,160
1,66,127,2628
1,66,127,176
1,62,127,100
1,66,127,224
1,62,127,216
1,66,127,2228
1,66,127,172
1,62,127,216
1,64,127,112
1,62,127,60
1,66,127,112
1,62,127,64
1,62,127,36
1,67,127,2708
1,67,127,152
1,67,127,180
1,64,127,64
1,62,127,120
1,64,127,380
1,62,127,444
1,64,127,128
1,66,127,220
1,66,127,228
1,66,127,144
1,64,127,196
1,62,127,248
1,64,127,496
1,64,127,256
1,64,127,168
1,62,127,224
1,62,127,216
1,62,127,156
1,62,127,164
1,66,127,26004
1,66,127,204
1,62,127,192
1,64,127,48
1,62,127,384
1,66,127,164
1,62,127,100
1,66,127,2344
1,66,127,180
1,62,127,144
1,66,127,24
1,62,127,380
1,62,127,188
1,66,127,2188
1,66,127,196
1,62,127,128
1,64,127,104
1,62,127,36
1,66,127,100
1,62,127,100
1,66,127,2204
1,66,127,204
1,62,127,56
1,66,127,4
1,62,127,16
1,62,127,160
1,67,127,1868
1,67,127,220
1,67,127,244
1,64,127,84
1,62,127,120
1,62,127,184
1,64,127,132
1,66,127,244
1,66,127,128
1,66,127,200
1,64,127,156
1,62,127,140
1,64,127,996
1,64,127,348
1,64,127,164
1,62,127,152
1,62,127,380
1,62,127,224
1,62,127,212
1,67,127,996
1,67,127,200
1,67,127,252
1,64,127,84
1,62,127,144
1,64,127,380
1,62,127,544
1,64,127,124
1,66,127,252
1,66,127,228
1,66,127,144
1,64,127,196
1,62,127,256
1,64,127,496
1,64,127,328
1,64,127,188
1,62,127,248
1,62,127,376
1,62,127,224
1,62,127,164
2,38,114,4600
2,38,114,128
2,38,114,208
2,38,114,148
2,38,114,168
2,38,114,208
2,33,114,128
2,31,114,192
2,38,114,168
2,38,114,128
2,38,114,208
2,38,114,148
2,38,114,168
2,38,114,208
2,33,114,124
2,31,114,192
2,38,114,168
2,38,114,128
2,38,114,208
2,38,114,148
2,38,114,168
2,38,114,208
2,33,114,128
2,31,114,192
2,38,114,168
2,38,114,128
2,38,114,208
2,38,114,148
2,38,114,172
2,38,114,208
2,33,114,128
2,31,114,192
2,38,114,168
2,38,114,128
2,38,114,208
2,38,114,148
2,31,114,168
2,31,114,212
2,31,114,128
2,31,114,192
2,38,114,176
2,38,114,132
2,38,114,208
2,38,114,148
2,33,114,168
2,33,114,208
2,31,114,128
2,31,114,192
2,38,114,172
2,38,114,132
2,38,114,208
2,38,114,148
2,38,114,176
2,38,114,212
2,33,114,128
2,31,114,188
2,38,114,168
2,38,114,132
2,38,114,208
2,38,114,152
2,38,114,176
2,38,114,208
2,33,114,128
2,31,114,192
2,38,114,168
2,38,114,132
2,38,114,208
2,38,114,148
2,38,114,176
2,38,114,208
2,33,114,128
2,31,114,192
2,38,114,168
2,38,114,128
2,38,114,208
2,38,114,148
2,38,114,176
2,38,114,212
2,33,114,128
2,31,114,192
2,38,114,168
2,38,114,128
2,38,114,208
2,38,100,80
2,38,114,224
2,38,108,80
2,31,114,248
2,31,114,216
2,31,114,128
2,31,114,184
2,38,114,172
2,38,114,132
2,38,114,208
2,38,114,148
2,33,114,168
2,33,114,208
2,31,114,128
2,31,114,192
2,38,114,168
2,38,114,132
2,38,114,208
2,33,114,148
2,35,114,188
2,37,114,152
2,38,114,184
2,38,114,208
2,33,114,128
2,31,114,188
2,38,114,176
2,38,114,128
2,38,114,208
2,33,100,152
2,35,101,112
2,37,102,112
2,38,114,64
2,38,114,208
2,33,114,128
2,31,114,192
2,38,114,172
2,33,110,120
2,38,114,136
2,38,114,136
2,40,101,72
2,42,102,108
2,43,114,72
2,38,114,212
2,43,107,128
2,43,103,44
2,38,90,144
2,38,88,4
2,43,94,40
2,38,114,192
2,33,114,208
2,38,107,128
2,38,103,40
2,33,105,144
2,38,106,84
2,33,114,184
2,33,114,208
2,31,104,132
2,31,104,188
2,38,104,168
2,33,104,132
2,38,104,208
2,33,104,152
2,38,114,152
2,38,114,212
2,33,114,128
2,31,114,192
2,38,114,168
2,38,114,132
2,38,114,208
2,38,114,148
2,38,114,168
2,38,114,212
2,33,114,128
2,31,114,192
2,38,114,172
2,38,114,132
2,38,114,208
2,38,114,148
2,38,114,168
2,38,114,212
2,33,114,128
2,31,114,188
2,38,114,168
2,38,114,128
2,38,114,208
2,38,114,148
2,38,114,172
2,38,114,208
2,33,114,128
2,31,114,196
2,38,114,172
2,38,114,128
2,38,114,208
2,38,100,68
2,38,114,224
2,38,75,188
2,31,114,244
2,31,114,216
2,31,114,128
2,31,114,192
2,38,114,168
2,38,114,132
2,38,114,208
2,38,114,148
2,33,114,168
2,33,114,208
2,31,114,128
2,31,114,192
2,38,114,168
2,38,114,128
2,38,114,208
2,38,114,144
2,40,114,188
2,42,114,148
2,43,114,188
2,43,114,216
2,43,107,128
2,43,103,40
2,38,100,144
2,38,103,4
2,43,94,44
2,38,114,188
2,38,114,212
2,38,107,128
2,38,103,40
2,38,105,144
2,38,106,84
2,33,114,184
2,33,114,208
2,31,114,128
2,31,114,192
2,38,114,168
2,38,114,132
2,38,114,208
3,45,109,4604
3,47,109,304
3,45,109,304
3,47,109,304
3,45,109,304
3,47,109,324
3,45,109,304
3,47,109,304
3,45,109,304
3,47,109,304
3,45,109,304
3,47,109,308
3,45,109,304
3,45,87,176
3,47,109,56
3,45,109,312
3,47,109,304
3,45,109,304
3,47,109,308
3,45,109,304
3,47,109,304
3,45,109,304
3,47,109,304
3,45,109,304
3,47,109,304
3,45,109,304
3,47,109,304
3,45,109,304
3,47,109,304
3,45,109,304
3,47,109,312
3,45,109,312
3,47,109,304
3,45,109,304
3,47,109,304
3,45,109,308
3,47,109,304
3,45,109,304
3,45,87,176
3,47,109,52
3,45,109,304
3,47,109,304
3,45,109,304
3,47,109,304
3,45,109,304
3,47,109,304
3,45,109,304
3,47,109,312
3,45,109,308
3,47,109,304
3,45,109,304
3,47,109,304
3,45,109,304
3,47,109,304
3,45,109,304
3,47,109,304
3,45,109,304
3,47,109,304
3,45,109,304
3,47,109,308
3,45,109,304
3,47,109,304
3,45,109,304
3,47,109,312
3,45,109,308
3,47,109,308
3,45,109,304
3,47,109,304
3,45,109,308
3,47,109,304
3,45,109,304
3,45,109,208
3,47,109,36
3,45,109,320
3,47,109,304
3,45,99,304
3,47,99,304
3,45,99,308
3,47,99,308
3,45,99,304
3,47,99,312
3,45,99,312
3,47,99,308
3,45,99,312
3,47,99,288
3,45,99,308
3,47,99,308
3,45,99,304
3,47,99,308
3,45,99,308
3,45,99,176
3,47,99,68
3,45,99,304
3,47,99,308
3,45,99,308
3,47,99,308
3,45,99,304
3,47,99,312
3,45,99,312
3,47,99,308
3,45,99,304
3,47,99,308
3,45,99,308
3,47,99,308
3,45,99,304
3,47,99,304
3,45,99,308
3,47,99,308
3,45,109,308
3,47,109,308
3,45,109,308
3,47,109,308
3,45,109,304
3,45,87,176
3,47,109,72
3,45,109,316
3,47,109,308
3,45,109,304
3,47,109,308
3,45,109,308
3,47,109,304
3,45,109,304
3,47,109,308
3,45,109,308
3,47,109,304
3,45,109,308
3,47,109,308
3,45,109,308
3,47,109,308
3,45,109,304
3,47,109,312
3,45,109,312
3,47,109,308
3,45,109,304
3,47,109,308
3,45,109,308
3,47,109,304
3,45,109,304
3,45,109,208
3,47,109,20
3,45,109,308
3,47,109,308
3,45,109,308
3,47,109,308
3,45,109,308
3,47,109,308
3,45,109,304
3,47,109,312
3,45,109,312
3,47,109,304
3,45,109,304
3,47,109,308
3,45,109,308
3,47,109,304
3,45,109,304
3,47,109,308
3,45,109,308
3,47,109,304
3,45,109,308
3,47,109,308
3,45,109,308
3,47,109,308
3,45,109,304
3,47,109,312
3,45,109,312
3,47,109,308
3,45,109,304
3,47,109,308
3,45,109,308
3,47,109,308
3,45,109,304
3,45,109,208
3,47,109,20
3,45,109,308
3,47,109,308
3,45,99,304
3,47,99,308
3,45,99,308
3,47,99,308
3,45,99,304
3,47,99,312
3,45,99,312
3,47,99,308
3,45,99,304
3,47,99,308
3,45,99,308
3,47,99,308
3,45,99,304
3,47,99,304
3,45,99,308
3,45,99,176
3,47,99,52
3,45,99,304
3,47,99,308
3,45,99,308
3,47,99,308
3,45,99,304
3,47,99,312
3,45,99,312
3,47,99,308
3,45,99,304
3,47,99,308
3,45,99,308
3,47,99,308
3,45,99,304
3,45,99,308
3,47,99,308
3,49,99,308
3,45,109,304
3,47,109,308
3,45,109,308
3,47,109,308
3,45,109,304
3,45,109,176
3,47,109,72
3,45,109,312
3,47,109,304
3,45,109,312
3,47,109,308
3,45,109,308
3,47,109,304
3,45,109,304
3,47,109,312
3,45,109,308
3,47,109,308
3,45,109,304
3,47,109,308
3,45,109,308
3,47,109,308
3,45,109,304
3,47,109,312
3,45,109,312
3,47,109,308
3,45,109,304
3,47,109,304
3,45,109,304
3,47,109,308
3,45,109,304
3,45,109,208
3,47,109,20
3,45,109,308
3,47,109,308
3,45,109,308
3,47,109,308
3,45,109,308
3,47,109,308
3,45,109,304
3,47,109,320
3,45,109,312
3,47,109,308
3,45,109,308
3,47,109,308
3,45,109,308
3,47,109,308
3,45,109,304
3,47,109,308
3,45,109,308
3,47,109,308
3,45,109,304
3,47,109,308
3,45,109,308
3,47,109,308
3,45,109,304
3,47,109,312
3,45,109,312
3,47,109,308
3,45,109,304
3,47,109,308
3,45,109,312
3,47,109,308
3,45,109,308
3,45,109,208
3,47,109,36
3,45,109,324
3,47,109,308
3,45,109,300
3,47,109,308
3,45,109,308
3,47,109,308
3,45,109,304
3,45,89,176
3,47,109,72
3,45,109,312
3,47,109,308
3,45,109,304
3,47,109,308
3,45,109,308
3,47,109,304
3,45,109,304
3,47,109,308
3,45,109,308
3,47,109,308
3,45,109,304
3,47,109,308
3,45,109,308
3,47,109,308
3,45,109,304
3,47,109,312
3,45,109,312
3,47,109,308
3,45,109,304
3,47,109,308
3,45,109,308
3,47,109,308
3,45,109,304
3,45,90,176
3,47,109,52
3,45,109,308
3,47,109,304
3,45,109,304
3,47,109,308
3,45,109,308
3,47,109,308
3,45,109,304
3,47,109,312
3,45,109,312
3,47,109,304
3,45,109,304
3,47,109,308
3,45,109,308
3,47,109,308
3,45,109,304
3,47,109,308
3,45,109,308
3,47,109,304
3,45,109,304
3,47,109,308
3,45,109,308
3,47,109,308
3,45,109,304
3,47,109,312
3,45,109,312
3,47,109,308
3,45,109,304
3,47,109,308
3,45,109,308
3,47,109,304
3,45,109,304
3,45,109,208
3,47,109,36
3,45,109,324
3,47,109,308
3,45,99,304
3,47,99,308
3,45,99,308
3,47,99,308
3,45,99,304
3,47,99,312
3,45,99,316
3,47,99,308
3,45,99,304
3,47,99,308
3,45,99,308
3,47,99,308
3,45,99,304
3,47,99,308
3,45,99,308
3,45,99,176
3,47,99,52
3,45,99,304
3,47,99,308
3,45,99,308
3,47,99,308
3,45,99,304
3,47,99,320
3,45,99,312
3,47,99,308
3,45,99,304
3,47,99,308
3,45,99,308
3,47,99,308
3,45,99,304
3,45,99,308
3,47,99,308
3,49,99,308
3,45,99,304
3,47,99,308
3,45,99,308
3,47,99,308
3,45,99,304
3,47,99,312
3,45,99,312
3,47,99,308
3,45,99,304
3,47,99,308
3,45,99,308
3,47,99,308
3,45,99,304
3,47,99,308
3,45,99,308
3,45,99,176
3,47,99,52
3,45,99,304
3,47,99,308
3,45,99,308
3,47,99,308
3,45,99,304
3,47,99,316
3,45,99,312
3,47,99,308
3,45,99,304
3,47,99,308
3,45,99,304
3,47,99,308
3,50,99,304
4,45,127,1532
4,50,127,0
4,57,127,20
4,62,127,8
4,66,127,8
4,45,127,216
4,50,127,4
4,57,127,12
4,62,127,12
4,66,127,20
4,66,127,24
4,62,127,12
4,57,127,8
4,50,127,12
4,45,127,96
4,50,127,0
4,57,127,4
4,62,127,8
4,66,127,8
4,45,127,204
4,52,127,12
4,57,127,4
4,61,127,12
4,61,127,20
4,57,127,8
4,52,127,4
4,45,127,20
4,43,127,272
4,47,127,12
4,50,127,12
4,55,127,8
4,43,127,16
4,47,127,8
4,50,127,8
4,55,127,8
4,50,127,264
4,62,127,12
4,57,127,4
4,66,127,20
4,50,127,224
4,57,127,8
4,62,127,8
4,66,127,4
4,66,127,0
4,57,127,4
4,62,127,0
4,50,127,0
4,66,127,0
4,62,127,0
4,62,127,136
4,66,127,0
4,57,127,8
4,50,127,4
4,66,127,4
4,62,127,0
4,57,127,0
4,50,127,0
4,66,127,0
4,62,127,4
4,66,127,164
4,62,127,4
4,57,127,8
4,66,127,0
4,62,127,0
4,57,127,4
4,50,127,8
4,57,127,4
4,66,127,0
4,62,127,0
4,50,127,316
4,57,127,20
4,62,127,8
4,66,127,8
4,50,127,224
4,57,127,4
4,62,127,16
4,66,127,20
4,66,127,24
4,62,127,8
4,57,127,12
4,50,127,12
4,45,127,184
4,52,125,12
4,57,123,4
4,61,120,8
4,61,127,20
4,52,127,8
4,57,127,0
4,45,127,24
4,43,127,272
4,47,127,8
4,50,127,12
4,55,127,12
4,43,127,20
4,47,127,8
4,50,127,8
4,55,127,4
4,50,119,260
4,62,125,12
4,57,125,4
4,66,118,20
4,50,125,220
4,57,125,4
4,62,125,12
4,66,125,4
4,66,125,4
4,57,125,4
4,62,125,0
4,50,125,0
4,66,125,0
4,62,125,0
4,62,125,136
4,66,125,0
4,50,125,8
4,57,125,0
4,66,125,4
4,62,125,0
4,57,125,0
4,50,125,0
4,62,125,4
4,66,125,0
4,66,125,164
4,62,125,4
4,57,125,8
4,66,125,0
4,62,125,0
4,57,125,4
4,50,125,8
4,57,125,4
4,66,125,0
4,62,125,0
4,50,127,312
4,57,127,20
4,62,127,8
4,66,127,8
4,50,127,224
4,57,127,4
4,62,127,16
4,66,127,16
4,66,124,24
4,62,122,8
4,57,117,8
4,50,116,16
4,45,113,0
4,50,119,0
4,57,120,4
4,62,118,8
4,66,118,4
4,45,127,204
4,52,125,12
4,57,123,8
4,61,120,8
4,61,127,20
4,52,127,8
4,57,127,0
4,45,127,24
4,43,127,272
4,47,127,8
4,50,127,16
4,55,127,8
4,43,127,16
4,47,127,8
4,50,127,4
4,55,127,12
4,50,119,260
4,62,125,12
4,57,125,4
4,66,118,20
4,50,125,220
4,57,125,8
4,62,125,8
4,66,125,4
4,66,125,4
4,57,125,0
4,62,125,0
4,50,125,0
4,66,125,0
4,62,125,0
4,62,125,132
4,66,125,0
4,57,125,8
4,50,125,4
4,66,125,4
4,62,125,0
4,57,125,0
4,50,125,0
4,66,125,0
4,62,125,4
4,66,125,164
4,62,125,4
4,57,125,8
4,66,125,0
4,62,125,0
4,57,125,4
4,50,125,8
4,57,125,4
4,66,125,4
4,62,125,0
4,50,127,312
4,57,127,20
4,62,127,8
4,66,127,8
4,50,127,224
4,57,127,4
4,62,127,16
4,66,127,16
4,66,127,24
4,62,127,8
4,57,127,12
4,50,127,12
4,45,113,0
4,50,125,0
4,57,127,4
4,62,123,8
4,66,118,8
4,45,127,208
