track,note,velocity,time
1,45,124,7284
1,43,122,12
1,40,126,140
1,40,121,140
1,31,121,124
1,36,124,88
1,48,127,848
1,47,126,8
1,45,127,160
1,43,127,140
1,43,127,124
1,36,127,120
1,48,121,39076
1,47,126,20
1,45,127,144
1,43,127,136
1,43,126,108
1,36,127,92
1,48,127,8988
1,47,124,40
1,45,127,164
1,43,127,148
1,43,126,164
1,36,127,104
1,48,127,27948
1,47,124,52
1,45,127,176
1,43,127,152
1,43,127,176
1,41,127,112
1,45,127,15788
1,43,127,36
1,40,126,80
1,40,121,144
1,31,122,100
1,36,127,136
2,45,118,7260
2,43,116,44
2,40,127,164
2,40,127,160
2,31,127,88
2,36,114,40
2,36,125,168
2,36,121,144
2,48,125,348
2,47,112,32
2,45,118,188
2,43,123,152
2,43,112,160
2,36,127,116
2,36,121,156
2,36,127,132
2,43,121,8
2,36,125,4
2,36,127,176
2,36,127,136
2,43,121,8
2,36,125,44
2,36,125,164
2,36,127,144
2,43,121,16
2,36,125,28
2,36,127,156
2,38,104,128
2,40,112,96
2,43,111,120
2,43,125,168
2,43,127,136
2,50,116,12
2,43,123,16
2,43,127,168
2,43,123,132
2,50,116,4
2,36,125,112
2,36,123,168
2,36,127,140
2,43,111,12
2,36,125,84
2,36,118,152
2,36,127,136
2,43,123,12
2,36,125,44
2,36,123,144
2,36,125,140
2,43,112,8
2,36,125,32
2,36,125,152
2,36,125,132
2,43,118,16
2,36,123,36
2,36,123,168
2,36,125,128
2,43,118,12
2,36,118,56
2,36,114,144
2,38,123,120
2,40,109,124
2,43,118,92
2,43,121,180
2,43,121,128
2,50,118,4
2,43,116,24
2,43,118,152
2,43,121,140
2,50,123,0
2,36,121,88
2,36,116,152
2,36,118,136
2,43,116,8
2,36,127,92
2,36,123,144
2,38,121,112
2,40,114,100
2,41,127,140
2,41,118,188
2,41,123,140
2,43,121,344
2,43,116,168
2,43,125,144
2,48,121,316
2,48,121,152
2,47,114,124
2,47,111,168
2,45,118,128
2,45,109,144
2,43,116,120
2,43,118,168
2,41,116,120
2,41,121,180
2,41,116,136
2,43,121,352
2,43,109,164
2,43,118,136
2,48,116,344
2,48,116,180
2,47,121,124
2,47,114,168
2,45,121,128
2,45,112,152
2,43,118,116
2,43,109,136
2,41,123,124
2,41,123,144
2,41,125,132
2,43,118,352
2,43,118,164
2,43,118,132
2,36,127,344
2,36,118,164
2,36,125,140
2,36,125,160
2,48,112,144
2,47,116,44
2,45,123,196
2,43,121,180
2,43,121,164
2,36,118,124
2,36,109,152
2,36,125,140
2,43,118,12
2,36,123,20
2,36,112,168
2,36,121,124
2,43,121,8
2,36,121,28
2,36,123,164
2,36,118,128
2,43,121,8
2,36,121,4
2,36,125,160
2,38,121,120
2,40,121,152
2,43,127,156
2,43,121,148
2,43,127,124
2,50,125,16
2,43,118,0
2,43,121,144
2,43,121,132
2,50,116,4
2,36,125,60
2,36,116,164
2,36,125,144
2,36,123,136
2,48,114,132
2,47,121,48
2,45,123,196
2,43,121,196
2,43,123,184
2,36,121,116
2,36,116,152
2,36,125,136
2,43,121,4
2,36,125,28
2,36,125,164
2,36,123,128
2,43,116,8
2,36,123,40
2,36,127,140
2,36,123,132
2,43,121,16
2,36,118,20
2,36,118,180
2,38,123,120
2,40,123,156
2,43,127,152
2,43,118,164
2,43,127,136
2,50,114,4
2,43,121,16
2,43,121,136
2,43,121,136
2,50,112,12
2,36,116,96
2,36,127,160
2,36,118,128
2,43,112,124
2,36,118,48
2,36,123,136
2,38,123,128
2,40,121,152
2,41,127,152
2,41,123,152
2,41,125,140
2,41,116,152
2,43,125,144
2,43,112,136
2,43,127,144
2,45,105,96
2,48,127,132
2,48,123,152
2,47,116,124
2,47,116,164
2,45,121,132
2,45,114,160
2,43,111,120
2,43,121,152
2,41,125,132
2,41,118,144
2,41,123,132
2,41,109,148
2,43,121,144
2,43,116,152
2,43,125,144
2,43,109,152
2,48,123,128
2,48,116,160
2,47,112,128
2,47,107,152
2,45,114,132
2,45,116,144
2,43,118,116
2,43,112,172
2,41,118,124
2,41,112,184
2,41,116,140
2,43,123,352
2,43,105,160
2,43,118,144
2,36,118,352
2,36,123,152
2,36,121,144
2,36,125,164
2,48,125,132
2,47,123,72
2,45,127,200
2,43,125,200
2,43,123,176
2,41,127,108
2,41,127,160
2,41,118,136
2,41,118,164
2,43,127,144
2,43,118,196
2,43,123,140
2,48,123,380
2,48,114,136
2,47,118,132
2,47,114,152
2,45,118,128
2,45,116,144
2,43,121,120
2,43,111,152
2,41,118,128
2,41,116,152
2,41,116,136
2,36,125,164
2,43,114,40
2,43,109,152
2,43,118,136
2,48,116,328
2,48,109,180
2,47,118,128
2,47,111,160
2,45,116,128
2,45,111,160
2,43,121,128
2,43,109,164
2,41,125,124
2,41,116,152
2,41,116,132
2,43,121,332
2,43,107,164
2,43,127,144
2,36,123,344
2,36,118,152
2,36,123,136
2,36,109,152
2,45,121,124
2,43,112,40
2,40,121,184
2,40,121,156
2,31,118,112
2,36,118,32
3,67,107,8760
3,72,107,0
3,76,107,0
3,72,107,20
3,76,107,0
3,67,107,0
3,67,107,20
3,71,107,0
3,74,107,0
3,67,107,16
3,72,107,4
3,76,107,0
3,67,107,20
3,74,107,0
3,71,107,0
3,76,107,20
3,67,107,0
3,72,107,0
3,70,107,20
3,72,107,0
3,76,107,0
3,67,107,4
3,72,107,16
3,77,107,0
3,69,107,0
3,74,107,20
3,71,107,0
3,67,107,0
3,72,107,20
3,67,107,0
3,76,107,0
3,69,107,20
3,76,107,0
3,72,107,0
3,72,107,16
3,69,107,0
3,77,107,0
3,71,107,20
3,74,107,0
3,67,107,0
3,72,107,20
3,76,107,0
3,67,107,0
3,76,107,20
3,69,107,0
3,72,107,0
3,77,107,20
3,69,107,0
3,72,107,0
3,67,107,16
3,74,107,0
3,72,107,0
3,77,107,4
3,71,107,12
3,72,107,12
3,67,107,0
3,76,107,0
3,67,107,20
3,71,107,0
3,74,107,0
3,67,107,20
3,76,107,0
3,72,107,0
3,67,107,20
3,74,107,0
3,71,107,0
3,67,107,20
3,76,107,0
3,72,107,0
3,72,107,20
3,70,107,0
3,76,107,0
3,67,107,4
3,77,107,16
3,72,107,0
3,69,107,0
3,67,107,20
3,71,107,0
3,74,107,0
3,72,107,16
3,67,107,0
3,76,107,0
3,69,107,16
3,76,107,0
3,72,107,0
3,69,107,20
3,72,107,0
3,77,107,0
3,71,107,16
3,67,107,0
3,74,107,0
3,67,107,20
3,76,107,0
3,72,107,0
3,76,107,20
3,72,107,0
3,69,107,0
3,72,107,16
3,77,107,0
3,69,107,0
3,77,107,20
3,67,107,0
3,74,107,0
3,72,107,4
3,71,107,8
3,76,107,8
3,72,107,0
3,67,107,0
3,76,107,16
3,70,107,0
3,72,107,0
3,67,107,4
3,72,107,16
3,69,107,0
3,77,107,0
3,74,107,20
3,71,107,0
3,67,107,0
3,67,107,16
3,72,107,0
3,76,107,0
3,72,107,20
3,69,107,0
3,76,107,0
3,72,107,20
3,69,107,0
3,77,107,0
3,74,107,16
3,71,107,0
3,67,107,0
3,67,107,20
3,72,107,0
3,76,107,0
3,76,107,16
3,69,107,0
3,72,107,0
3,77,107,20
3,69,107,0
3,72,107,0
3,74,107,20
3,77,107,0
3,67,107,0
3,72,107,4
3,71,107,8
3,76,107,12
3,67,107,0
3,72,107,0
3,67,107,20
3,71,107,0
3,74,107,0
3,67,107,20
3,72,107,0
3,76,107,0
4,55,125,12208
4,57,112,28
4,60,123,16
4,57,118,28
4,64,118,24
4,60,116,4
4,60,123,124
4,55,116,684
4,57,107,28
4,60,118,4
4,57,114,44
4,64,118,16
4,60,116,52
4,60,118,136
4,67,125,8
4,67,127,60
4,67,114,12
4,67,121,52
4,67,123,16
4,65,118,152
4,65,121,12
4,64,118,56
4,64,123,212
4,55,127,2200
4,57,105,28
4,60,114,4
4,57,118,16
4,64,121,4
4,60,116,12
4,60,125,120
4,55,127,728
4,57,92,12
4,60,118,20
4,57,114,40
4,64,125,4
4,60,114,4
4,60,125,92
4,67,123,8
4,67,127,8
4,67,123,12
4,67,114,92
4,67,125,4
4,65,123,0
4,65,125,0
4,64,127,48
4,69,125,4
4,67,109,40
4,65,116,16
4,67,116,28
4,64,127,640
4,65,111,0
4,67,114,8
4,67,118,36
4,67,125,172
4,60,114,16
4,60,114,48
4,69,125,12
4,67,118,84
4,65,111,16
4,67,116,24
4,64,123,584
4,65,105,32
4,67,121,4
4,67,121,52
4,67,127,112
4,60,112,0
4,60,105,56
4,57,114,1876
4,60,109,48
4,60,123,152
4,55,107,216
4,64,121,116
4,60,118,28
4,60,116,52
4,55,125,2836
4,57,112,28
4,60,123,8
4,57,118,28
4,64,118,4
4,60,116,4
4,60,123,124
4,55,116,672
4,57,107,28
4,60,118,4
4,57,114,44
4,64,118,0
4,60,116,52
4,60,118,136
4,67,125,12
4,67,127,60
4,67,114,12
4,67,121,52
4,67,123,16
4,65,118,152
4,65,121,12
4,64,118,52
4,60,123,204
4,55,127,2216
4,57,105,24
4,60,114,4
4,57,118,20
4,64,121,4
4,60,116,12
4,60,125,140
4,55,127,728
4,57,92,8
4,60,118,20
4,57,114,40
4,64,125,4
4,60,114,8
4,60,125,96
4,67,123,8
4,67,127,48
4,67,123,12
4,67,123,56
4,67,125,4
4,65,123,0
4,65,125,0
4,64,127,48
4,69,125,4
4,67,109,40
4,65,116,16
4,67,116,28
4,64,127,636
4,65,111,8
4,67,114,4
4,67,118,44
4,67,125,172
4,60,114,20
4,60,114,36
4,69,125,12
4,67,118,80
4,65,111,20
4,67,116,24
4,64,123,588
4,65,105,32
4,67,121,4
4,67,121,56
4,67,127,112
4,60,112,12
4,60,105,72
4,57,114,1880
4,60,109,48
4,60,123,160
4,55,107,220
4,64,121,116
4,60,118,24
4,60,116,52
4,72,127,28
4,69,125,8
4,67,109,40
4,65,116,16
4,67,116,28
4,64,127,636
4,65,111,0
4,67,114,24
4,67,118,40
4,67,125,176
4,60,114,24
4,60,114,36
4,69,125,16
4,67,118,84
4,65,111,20
4,67,116,20
4,64,123,584
4,65,105,40
4,67,121,8
4,67,121,52
4,67,127,112
4,60,112,4
4,60,105,68
4,57,114,1888
4,60,109,48
4,60,123,156
4,55,107,220
4,64,121,116
4,60,118,28
4,60,116,52
5,79,127,54804
5,72,127,20836
5,76,127,4
5,67,127,212
5,77,127,48
5,69,127,4
5,71,127,20
5,67,127,4
5,74,127,0
5,72,127,12
5,76,127,4
5,67,127,0
5,76,127,44
5,69,127,4
5,72,127,0
5,72,127,48
5,77,127,4
5,69,127,0
5,71,127,12
5,74,127,4
5,67,127,0
5,76,127,44
5,72,127,4
5,67,127,0
5,72,127,4
5,76,127,4
5,69,127,0
5,72,127,12
5,77,127,4
5,69,127,0
5,67,127,48
5,72,127,0
5,74,127,4
5,71,127,16
5,70,127,1596
5,76,127,0
5,72,127,4
5,67,127,0
5,72,127,56
5,77,127,4
5,69,127,0
5,67,127,72
5,71,127,4
5,74,127,0
5,72,127,40
5,76,127,4
5,67,127,0
5,72,127,80
5,76,127,0
5,69,127,4
5,72,127,84
5,69,127,4
5,77,127,0
5,67,127,64
5,71,127,0
5,74,127,4
5,76,127,68
5,67,127,4
5,72,127,0
5,72,127,12
5,69,127,4
5,76,127,0
5,72,127,52
5,77,127,4
5,69,127,0
5,74,127,48
5,67,127,0
5,72,127,4
5,71,127,24
6,45,123,24
6,52,123,8
6,48,123,0
6,60,123,4
6,57,123,0
6,64,123,4
6,57,125,48
6,52,125,0
6,45,125,0
6,48,125,0
6,60,125,4
6,64,125,4
6,52,123,56
6,45,123,0
6,48,123,0
6,57,123,4
6,60,123,4
6,64,123,4
6,43,127,28
6,48,127,4
6,52,127,0
6,55,127,8
6,60,127,0
6,64,127,4
6,43,125,52
6,48,125,4
6,55,125,0
6,52,125,0
6,60,125,8
6,64,125,4
6,43,127,56
6,48,127,4
6,52,127,4
6,55,127,4
6,60,127,4
6,64,127,4
7,57,127,36
7,60,127,4
7,64,127,4
7,57,109,148
7,60,109,4
7,64,109,4
7,57,116,124
7,60,116,4
7,64,116,8
7,57,88,144
7,60,88,4
7,64,88,4
7,57,125,136
7,60,125,4
7,64,125,8
7,57,121,52
7,60,121,4
7,64,121,4
7,57,127,72
7,60,127,4
7,65,127,4
7,57,80,140
7,60,80,4
7,65,80,4
7,57,127,148
7,60,127,0
7,65,127,8
7,57,121,92
7,60,121,4
7,65,121,4
7,57,127,140
7,60,127,4
7,65,127,4
7,57,92,148
7,65,92,8
7,60,92,0
7,57,127,148
7,60,127,4
7,65,127,8
7,60,127,8
7,55,127,0
7,64,127,4
7,55,98,144
7,64,98,4
7,60,98,0
7,55,127,140
7,64,127,4
7,60,127,0
7,55,84,144
7,60,84,0
7,64,84,8
7,60,125,152
7,55,125,0
7,64,125,4
7,55,118,72
7,60,118,4
7,64,118,4
7,59,127,32
7,62,127,0
7,67,127,8
7,59,127,144
7,62,127,4
7,67,127,4
7,59,127,68
7,62,127,8
7,67,127,4
7,59,127,60
7,62,127,0
7,67,127,8
7,59,127,52
7,62,127,4
7,67,127,4
7,55,125,12
7,60,125,4
7,64,125,4
7,55,125,328
7,60,125,4
7,64,125,8
7,60,118,80
7,55,118,0
7,64,118,4
7,55,127,140
7,60,127,4
7,64,127,8
7,55,77,136
7,60,77,4
7,64,77,0
7,60,127,156
7,55,127,0
7,64,127,4
7,60,118,96
7,55,118,0
7,64,118,4
7,55,127,36
7,60,127,4
7,64,127,4
7,55,127,144
7,64,127,4
7,60,127,0
7,55,127,68
7,60,127,4
7,64,127,4
7,55,127,68
7,64,127,8
7,60,127,0
7,55,127,52
7,60,127,4
7,64,127,4
7,55,125,20
7,60,125,4
7,64,125,8
7,60,82,144
7,55,82,0
7,64,82,4
7,55,127,136
7,60,127,4
7,64,127,8
7,60,118,60
7,55,118,0
7,64,118,4
7,55,127,136
7,60,127,4
7,64,127,4
7,60,90,144
7,55,90,0
7,64,90,4
7,60,127,140
7,55,127,0
7,64,127,4
7,55,116,80
7,60,116,4
7,64,116,0
7,55,127,140
7,60,127,4
7,64,127,8
7,55,91,132
7,60,91,4
7,64,91,4
7,64,127,152
7,55,127,0
7,60,127,0
7,55,127,88
7,64,127,4
7,60,127,0
7,55,127,324
7,60,127,4
7,64,127,4
7,55,127,4
7,60,127,4
7,64,127,4
7,60,116,104
7,55,116,0
7,64,116,8
7,55,127,144
7,60,127,4
7,64,127,4
7,55,78,140
7,64,78,8
7,60,78,0
7,60,127,160
7,55,127,0
7,64,127,8
7,55,125,72
7,60,125,4
7,64,125,4
7,55,127,324
7,64,127,4
7,60,127,0
7,55,127,140
7,60,127,0
7,64,127,8
7,55,121,76
7,60,121,4
7,64,121,0
7,60,127,144
7,55,127,0
7,64,127,8
7,55,84,148
7,60,84,0
7,64,84,8
7,55,127,152
7,60,127,4
7,64,127,0
7,55,127,88
7,60,127,4
7,64,127,4
7,60,127,136
7,55,127,0
7,64,127,4
7,55,88,148
7,60,88,0
7,64,88,4
7,55,127,144
7,60,127,4
7,64,127,4
7,55,116,152
7,60,116,4
7,64,116,0
7,59,127,16
7,62,127,4
7,67,127,0
7,59,76,148
7,62,76,4
7,67,76,4
7,59,127,152
7,62,127,0
7,67,127,4
7,59,111,80
7,62,111,0
7,67,111,4
7,59,127,140
7,62,127,4
7,67,127,8
7,59,87,152
7,62,87,4
7,67,87,4
7,59,125,148
7,62,125,4
7,67,125,8
7,59,121,68
7,62,121,4
7,67,121,8
7,59,127,140
7,62,127,0
7,67,127,8
7,59,82,152
7,62,82,4
7,67,82,0
7,59,127,148
7,62,127,0
7,67,127,4
7,59,127,96
7,62,127,4
7,67,127,0
7,59,127,328
7,62,127,4
7,67,127,4
7,59,127,140
7,62,127,4
7,67,127,4
7,59,123,116
7,62,123,8
7,67,123,4
7,55,127,12
7,60,127,4
7,64,127,8
7,55,86,148
7,60,86,0
7,64,86,4
7,60,127,152
