track,note,velocity,time
0,40,62,2660
0,54,88,4
0,40,78,0
0,59,66,372
0,59,83,8
0,52,83,4
0,59,65,280
0,52,83,88
0,59,83,4
0,59,64,88
0,55,83,12
0,62,83,0
0,52,83,268
0,59,83,4
0,59,63,4
0,59,66,300
0,59,65,100
0,52,83,0
0,59,83,8
0,52,83,72
0,59,83,4
0,62,83,104
0,59,64,4
0,55,83,0
0,61,83,84
0,54,83,4
0,59,63,192
0,52,83,84
0,59,83,8
0,36,78,4
0,59,66,180
0,36,76,0
0,44,78,272
0,59,65,8
0,36,78,100
0,52,83,0
0,59,83,4
0,55,83,84
0,59,64,8
0,36,76,0
0,62,83,0
0,44,78,268
0,52,83,0
0,59,83,4
0,59,63,0
0,36,72,108
0,59,66,180
0,36,78,0
0,44,76,96
0,52,83,0
0,59,65,8
0,59,83,0
0,52,83,76
0,59,83,4
0,36,74,16
0,55,83,100
0,62,83,4
0,59,64,8
0,36,74,0
0,54,83,88
0,61,83,0
0,59,63,192
0,44,82,0
0,36,74,96
0,54,39,0
0,59,83,0
0,52,83,4
0,54,39,36
0,54,39,36
0,54,38,36
0,59,66,36
0,36,74,0
0,54,39,0
0,54,39,36
0,54,39,36
0,54,39,36
0,54,38,36
0,54,38,36
0,54,38,36
0,54,38,36
0,59,65,36
0,44,82,0
0,54,37,0
0,54,37,36
0,54,37,0
0,54,37,36
0,36,74,36
0,54,36,0
0,52,83,0
0,59,83,4
0,54,36,36
0,54,36,0
0,54,36,36
0,59,64,36
0,36,74,0
0,54,36,0
0,55,83,8
0,62,83,0
0,54,35,36
0,54,35,36
0,54,35,36
0,54,35,36
0,54,34,36
0,54,34,36
0,54,34,36
0,52,83,24
0,59,83,4
0,59,63,8
0,44,82,0
0,54,34,0
0,54,33,36
0,54,33,12
0,54,33,36
0,36,78,36
0,54,33,0
0,54,33,36
0,54,32,36
0,54,32,36
0,59,66,36
0,36,76,0
0,54,32,0
0,54,32,36
0,54,31,36
0,54,31,36
0,54,31,36
0,54,31,36
0,54,34,8
0,54,34,36
0,44,78,28
0,52,83,4
0,59,65,4
0,54,34,0
0,59,83,0
0,54,34,36
0,54,34,4
0,54,34,36
0,52,83,16
0,59,83,4
0,36,78,16
0,54,34,0
0,54,34,36
0,54,34,16
0,54,34,36
0,62,83,28
0,55,83,4
0,59,64,4
0,36,76,0
0,54,31,0
0,54,31,36
0,54,30,4
0,54,30,36
0,61,83,28
0,54,83,4
0,54,30,4
0,54,30,36
0,54,30,36
0,54,30,36
0,44,78,24
0,59,63,0
0,54,30,0
0,54,30,36
0,54,30,4
0,54,30,36
0,64,83,20
0,71,83,8
0,67,63,4
0,64,69,0
0,36,72,4
0,54,30,0
0,52,83,0
0,59,83,0
0,54,30,36
0,54,30,36
0,54,29,36
0,59,66,36
0,36,78,0
0,54,29,0
0,54,29,36
0,54,29,36
0,54,29,36
0,54,29,36
0,54,29,36
0,54,29,36
0,54,29,36
0,44,76,28
0,76,68,4
0,59,65,4
0,71,59,0
0,67,67,0
0,54,29,0
0,54,29,8
0,54,29,0
0,54,29,0
0,52,83,32
0,36,74,4
0,54,28,0
0,76,70,0
0,67,70,0
0,71,70,0
0,54,28,36
0,54,28,4
0,54,28,36
0,59,64,36
0,73,46,0
0,69,50,0
0,64,47,0
0,36,74,0
0,54,28,0
0,76,70,0
0,73,70,0
0,69,70,0
0,55,83,4
0,54,28,36
0,54,28,36
0,54,28,0
0,54,28,32
0,54,28,36
0,54,28,36
0,54,34,36
0,71,55,32
0,76,70,0
0,64,32,0
0,59,63,4
0,67,67,0
0,67,46,0
0,71,62,0
0,44,82,0
0,54,34,0
0,52,83,0
0,76,70,0
0,67,70,0
0,71,70,0
0,54,34,8
0,54,34,12
0,54,34,36
0,36,74,36
0,54,34,0
0,54,34,36
0,54,34,36
0,54,34,36
0,59,66,36
0,36,74,0
0,54,39,0
0,54,39,36
0,54,39,36
0,54,39,36
0,54,38,36
0,54,38,0
0,54,38,0
0,54,38,8
0,64,56,8
0,76,70,24
0,59,65,4
0,67,73,0
0,71,51,0
0,71,43,0
0,44,82,0
0,54,37,0
0,52,83,0
0,76,70,0
0,71,70,0
0,67,70,0
0,54,37,0
0,54,37,0
0,54,37,20
0,67,28,4
0,71,36,4
0,36,74,28
0,54,36,0
0,52,83,0
0,76,70,0
0,67,70,0
0,71,70,0
0,54,36,36
0,54,36,0
0,54,36,36
0,69,50,0
0,73,50,4
0,59,64,32
0,36,74,0
0,54,36,0
0,55,83,0
0,73,70,0
0,69,70,0
0,76,70,0
0,54,35,8
0,54,35,0
0,54,35,24
0,73,62,0
0,64,64,0
0,69,50,4
0,54,35,32
0,54,83,0
0,76,70,0
0,69,70,0
0,73,70,0
0,54,34,36
0,54,34,36
0,54,34,0
0,76,76,12
0,71,61,4
0,67,79,0
0,59,63,4
0,44,82,0
0,54,34,0
0,54,33,12
0,54,33,0
0,54,33,36
0,71,56,8
0,67,40,24
0,76,45,4
0,64,95,0
0,36,78,0
0,54,33,0
0,52,83,0
0,76,70,0
0,67,70,0
0,71,70,0
0,54,33,0
0,54,32,0
0,54,32,0
0,59,66,36
0,36,76,0
0,54,32,0
0,54,32,0
0,54,31,0
0,54,31,0
0,54,31,0
0,54,31,0
0,54,34,0
0,54,34,0
0,44,78,28
0,76,70,4
0,67,79,0
0,59,65,4
0,71,53,0
0,54,34,0
0,54,34,0
0,54,34,0
0,54,34,0
0,64,68,8
0,71,30,24
0,36,78,0
0,54,34,0
0,52,83,0
0,76,70,0
0,67,70,0
0,71,70,0
0,67,41,0
0,54,34,0
0,54,34,0
0,54,34,0
0,59,64,36
0,73,62,0
0,69,56,0
0,36,76,0
0,54,31,0
0,55,83,0
0,73,70,0
0,76,70,0
0,69,70,0
0,54,31,36
0,54,30,36
0,54,30,4
0,64,34,32
0,54,30,4
0,54,30,36
0,54,30,36
0,54,30,36
0,44,78,24
0,67,79,8
0,71,59,0
0,76,74,0
0,59,63,0
0,71,50,0
0,54,30,0
0,76,70,0
0,67,70,0
0,71,70,0
0,67,50,4
0,54,30,8
0,54,30,12
0,54,30,36
0,36,72,36
0,54,30,0
0,54,30,36
0,54,30,36
0,54,29,36
0,59,66,0
0,76,80,0
0,36,78,0
0,54,29,0
0,54,29,36
0,54,29,36
0,54,29,36
0,44,54,32
0,45,41,4
0,54,29,0
0,54,29,36
0,54,29,0
0,54,29,8
0,71,59,0
0,64,62,0
0,59,65,4
0,71,92,0
0,76,74,0
0,44,84,0
0,45,76,0
0,54,29,0
0,59,83,0
0,76,70,0
0,67,70,0
0,71,70,0
0,67,32,4
0,64,83,0
0,54,29,0
0,54,29,0
0,54,29,0
0,67,29,8
0,64,83,20
0,71,33,8
0,36,74,0
0,54,28,0
0,59,83,0
0,52,83,0
0,71,70,0
0,76,70,0
0,67,70,0
0,44,46,4
0,54,28,32
0,54,28,0
0,54,28,36
0,73,48,0
0,69,56,0
0,67,83,0
0,47,49,0
0,59,64,4
0,36,74,0
0,44,42,0
0,54,28,0
0,55,83,0
0,69,70,0
0,62,83,0
0,54,28,0
0,54,28,0
0,54,28,12
0,64,65,8
0,69,62,24
0,73,62,4
0,44,54,0
0,40,51,0
0,54,28,0
0,54,83,0
0,73,83,0
0,69,70,0
0,76,70,0
0,61,83,8
0,66,83,0
0,54,28,36
0,40,71,36
0,54,28,0
0,54,34,24
0,76,74,12
0,71,53,0
0,59,63,4
0,67,79,0
0,36,74,0
0,40,83,0
0,54,34,0
0,44,73,4
0,54,34,8
0,54,34,0
0,54,34,12
0,40,87,32
0,67,44,0
0,67,81,4
0,64,72,0
0,44,60,0
0,54,34,0
0,76,70,0
0,67,70,0
0,71,68,4
0,71,76,0
0,45,49,4
0,54,34,28
0,54,34,36
0,54,34,0
0,36,88,28
0,64,67,0
0,64,65,180
0,62,59,0
0,67,57,0
0,71,92,0
0,36,88,0
0,44,83,0
0,64,57,0
0,76,74,4
0,47,64,0
0,67,56,108
0,71,74,4
0,64,63,4
0,76,62,0
0,40,100,4
0,36,88,0
0,64,43,0
0,67,57,60
0,36,88,4
0,64,53,0
0,43,95,4
0,69,54,0
0,73,72,0
0,76,64,0
0,62,45,36
0,62,73,4
0,40,95,4
0,44,83,0
0,64,71,4
0,36,88,0
0,64,67,0
0,67,72,0
0,67,98,4
0,71,80,0
0,47,63,0
0,76,76,0
0,71,62,4
0,36,88,120
0,64,45,0
0,36,88,180
0,64,49,0
0,59,81,180
0,62,73,0
0,58,64,0
0,67,64,64
0,47,61,0
0,40,94,0
0,59,80,0
0,36,88,0
0,64,63,0
0,71,72,0
0,76,76,4
0,76,62,0
0,71,98,0
0,44,83,0
0,62,80,0
0,67,37,52
0,40,100,8
0,71,60,0
0,36,88,4
0,64,47,0
0,76,48,0
0,64,79,0
0,73,74,56
0,76,58,4
0,69,64,0
0,43,94,4
0,64,70,0
0,36,88,0
0,64,49,0
0,40,97,60
0,64,76,0
0,76,62,0
0,62,79,4
0,67,72,0
0,71,86,4
0,44,82,0
0,47,64,4
0,75,74,0
0,71,85,0
0,36,88,0
0,64,67,0
0,66,66,88
0,66,76,56
0,35,100,0
0,69,70,0
0,36,88,0
0,64,51,0
0,75,78,0
0,36,88,180
0,64,57,0
0,62,79,180
0,44,82,176
0,71,92,0
0,36,88,0
0,64,69,0
0,47,63,0
0,75,68,4
0,35,101,64
0,64,56,0
0,36,88,4
0,64,47,0
0,67,62,4
0,36,88,4
0,64,53,0
0,35,97,4
0,61,62,4
0,34,102,4
0,62,70,0
0,64,70,60
0,67,86,0
0,71,80,0
0,44,82,0
0,67,72,0
0,33,99,4
0,36,88,0
0,64,69,0
0,69,62,0
0,47,64,0
0,61,98,4
0,64,72,0
0,36,88,152
0,64,51,0
0,36,88,180
0,64,59,0
0,34,96,176
0,67,81,0
0,62,85,0
0,66,64,0
0,64,81,52
0,35,98,12
0,36,88,0
0,64,59,0
0,67,86,4
0,71,70,0
0,44,81,0
0,47,57,0
0,62,64,0
0,36,88,64
0,64,53,0
0,39,101,4
0,59,55,44
0,64,56,64
0,36,88,0
0,64,57,0
0,38,94,0
0,64,54,56
0,39,94,4
0,62,79,0
0,64,70,60
0,67,86,0
0,47,61,0
0,71,70,4
0,36,88,0
0,64,67,0
0,44,81,0
0,40,95,4
0,76,76,0
0,36,88,4
0,64,51,0
0,67,64,8
0,71,76,0
0,76,58,0
0,36,88,48
0,64,67,0
0,62,59,180
0,71,92,180
0,36,88,0
0,44,83,0
0,64,57,0
0,76,74,4
0,47,66,0
0,67,56,56
0,71,74,4
0,40,95,4
0,64,76,0
0,76,62,0
0,36,88,4
0,64,43,0
0,43,102,0
0,67,54,0
0,64,53,0
0,36,88,4
0,69,54,0
0,73,72,0
0,76,64,4
0,62,48,28
0,62,73,8
0,64,64,52
0,44,83,0
0,36,88,4
0,64,67,0
0,67,72,0
0,40,96,4
0,67,98,0
0,71,80,0
0,47,63,0
0,71,62,0
0,76,76,0
0,36,88,144
0,64,45,0
0,64,49,180
0,36,88,4
0,59,64,176
0,59,81,0
0,62,73,0
0,58,72,0
0,40,97,84
0,59,64,0
0,67,64,0
0,47,65,0
0,59,81,0
0,36,88,0
0,64,63,0
0,71,72,0
0,76,76,4
0,76,62,0
0,71,98,0
0,44,83,0
0,62,81,4
0,67,37,52
0,40,101,8
0,59,70,0
0,71,60,0
0,36,88,4
0,64,47,0
0,76,48,0
0,64,81,4
0,73,74,56
0,43,94,4
0,59,93,0
0,76,58,0
0,69,64,0
0,64,49,4
0,36,88,4
0,45,101,0
0,62,58,0
0,76,62,0
0,62,79,4
0,67,72,0
0,71,86,4
0,44,82,0
0,64,88,0
0,75,74,0
0,71,98,0
0,36,88,0
0,64,67,0
0,47,61,0
0,66,76,144
0,69,70,4
0,66,66,0
0,36,88,0
0,64,51,0
0,75,78,0
0,47,96,4
0,36,88,176
0,64,57,0
0,62,79,180
0,44,82,176
0,71,92,4
0,64,69,0
0,75,68,4
0,47,61,0
0,36,88,0
0,64,82,4
0,36,88,0
0,42,102,4
0,64,47,0
0,67,70,56
0,47,96,0
0,64,53,4
0,36,88,4
0,61,60,16
0,62,70,8
0,45,96,136
0,64,62,0
0,67,86,0
0,71,80,0
0,44,82,0
0,67,72,0
0,47,60,0
0,64,69,0
0,69,62,0
0,36,88,4
0,61,98,0
0,64,72,0
0,36,88,140
0,64,51,0
0,36,88,176
0,64,59,4
0,40,95,0
0,67,79,4
0,62,85,0
0,66,69,0
0,45,96,60
0,47,64,0
0,64,78,4
0,64,59,0
0,67,86,4
0,71,70,0
0,36,88,0
0,44,81,0
0,62,61,0
0,64,82,60
0,36,88,4
0,64,53,0
0,59,55,0
0,35,101,64
0,64,82,0
0,64,57,0
0,36,88,4
0,36,101,8
0,61,76,0
0,62,79,4
0,64,82,0
0,67,86,0
0,47,64,0
0,71,70,0
0,64,67,0
0,36,88,4
0,44,81,0
0,61,82,84
0,37,101,4
0,64,51,0
0,36,88,4
0,64,98,4
0,68,68,0
0,61,76,0
0,36,88,0
0,64,67,0
0,73,93,4
0,64,72,0
0,80,61,0
0,62,59,0
0,71,93,0
0,36,88,0
0,44,83,0
0,64,57,0
0,71,90,4
0,47,59,0
0,71,78,8
0,64,90,0
0,68,68,4
0,71,90,64
0,36,88,4
0,64,43,0
0,64,90,12
0,62,64,68
0,83,61,0
0,37,101,4
0,68,64,0
0,71,90,0
0,64,53,4
0,36,88,0
0,64,90,0
0,71,90,84
0,64,90,0
0,40,99,4
0,66,88,0
0,62,73,0
0,71,76,60
0,44,83,0
0,71,90,0
0,68,66,4
0,36,88,0
0,64,67,0
0,64,90,4
0,47,60,0
0,64,93,52
0,36,88,8
0,64,45,0
0,45,94,4
0,57,87,4
0,64,87,0
0,61,87,0
0,67,87,0
0,85,61,32
0,69,90,20
0,64,90,8
0,61,72,8
0,64,49,0
0,36,88,4
0,64,90,80
0,69,90,16
0,62,73,8
0,33,95,8
0,73,72,0
0,36,88,0
0,64,63,0
0,47,58,0
0,69,76,0
0,44,83,0
0,69,90,32
0,64,90,4
0,36,88,28
0,64,47,0
0,33,95,4
0,88,61,32
0,61,99,4
0,37,97,4
0,64,49,0
0,64,74,0
0,61,58,0
0,67,72,0
0,57,76,0
0,36,88,4
0,64,93,64
0,62,79,4
0,64,86,0
0,61,74,0
0,57,92,0
0,67,78,0
0,40,98,4
0,44,82,52
0,36,88,8
0,64,67,0
0,47,63,0
0,69,74,0
0,73,78,12
0,68,88,124
0,36,88,4
0,64,51,0
0,59,92,0
0,68,68,0
0,64,92,0
0,40,95,4
0,80,61,36
0,62,48,4
0,36,88,8
0,64,57,0
0,62,79,8
0,69,99,4
0,64,90,152
0,71,90,20
0,44,82,4
0,71,78,4
0,64,69,0
0,68,64,4
0,47,65,0
0,36,88,0
0,71,90,32
0,64,90,4
0,36,88,20
0,40,102,4
0,64,47,0
0,71,90,4
0,86,61,12
0,67,82,8
0,64,90,0
0,64,53,4
0,40,99,4
0,36,88,0
0,62,70,60
0,71,90,24
0,33,98,4
0,66,93,0
0,71,76,0
0,44,82,0
0,64,90,0
0,47,61,0
0,68,64,4
0,64,69,0
0,36,88,4
0,64,80,0
0,61,70,0
0,67,76,0
0,57,74,0
0,36,88,120
0,64,51,0
0,64,99,4
0,85,61,32
0,61,70,20
0,64,90,0
0,69,90,0
0,36,88,0
0,64,59,4
0,64,90,60
0,69,90,4
0,62,85,4
0,33,102,4
0,67,80,4
0,64,59,0
0,47,56,0
0,35,98,4
0,71,99,0
0,73,70,0
0,36,88,0
0,44,81,0
0,64,90,4
0,69,62,20
0,69,90,4
0,36,88,0
0,64,53,0
0,67,63,16
0,88,61,0
0,38,100,12
0,64,57,0
0,61,48,0
0,67,60,0
0,57,72,0
0,64,64,0
0,36,88,4
0,69,63,124
0,39,102,0
0,62,79,0
0,64,76,0
0,61,70,0
0,67,78,0
0,57,86,0
0,85,61,12
0,67,78,8
0,47,61,0
