track,note,velocity,time
0,64,115,572
0,60,113,0
0,57,109,0
0,45,98,1
0,52,88,0
0,57,106,0
0,52,98,1
0,60,108,0
0,45,91,0
0,64,109,1
0,64,109,0
0,60,109,0
0,57,108,1
0,52,99,1
0,45,101,8
0,45,81,3
0,52,76,0
0,57,93,0
0,60,93,0
0,57,115,0
0,64,86,1
0,60,111,0
0,42,112,0
0,35,107,0
0,57,109,1
0,64,108,1
0,64,108,0
0,60,108,0
0,60,85,1
0,42,63,0
0,64,83,1
0,64,104,0
0,60,108,0
0,57,108,1
0,57,104,0
0,57,109,1
0,60,98,0
0,42,112,0
0,40,114,0
0,60,105,0
0,64,81,0
0,64,103,1
0,45,83,2
0,52,86,0
0,64,113,0
0,64,104,0
0,57,94,0
0,60,86,0
0,60,118,0
0,42,57,0
0,35,102,0
0,60,107,0
0,64,75,0
0,57,109,1
0,57,117,0
0,52,99,1
0,57,94,0
0,57,110,0
0,42,97,0
0,35,108,0
0,60,106,1
0,57,85,0
0,60,83,1
0,64,106,0
0,64,105,0
0,64,90,0
0,60,116,0
0,42,63,0
0,60,106,1
0,60,90,0
0,57,91,1
0,57,108,0
0,45,63,2
0,45,79,1
0,52,96,0
0,52,103,0
0,60,92,0
0,42,106,0
0,40,120,0
0,57,111,0
0,64,87,0
0,60,109,1
0,64,110,0
0,60,116,0
0,64,102,1
0,64,103,1
0,57,92,1
0,64,102,0
0,42,52,0
0,60,110,0
0,53,95,15
0,48,100,1
0,57,102,0
0,57,87,0
0,53,81,0
0,48,79,0
0,53,101,0
0,57,120,0
0,42,106,0
0,35,106,0
0,60,87,1
0,41,88,1
0,65,85,0
0,60,117,0
0,48,98,1
0,65,94,0
0,65,83,0
0,65,103,1
0,60,92,0
0,42,49,0
0,60,106,0
0,65,85,0
0,57,105,1
0,60,87,0
0,57,87,0
0,53,95,0
0,48,100,1
0,48,91,1
0,53,100,0
0,53,80,0
0,60,109,1
0,57,109,0
0,57,98,0
0,42,103,0
0,40,120,0
0,60,105,0
0,65,97,1
0,57,93,0
0,65,89,0
0,65,114,1
0,65,108,1
0,48,80,0
0,42,46,0
0,35,100,0
0,60,118,0
0,60,109,0
0,57,88,0
0,53,84,0
0,57,111,0
0,57,106,0
0,60,73,0
0,53,97,0
0,53,103,0
0,48,105,1
0,41,100,1
0,48,103,0
0,57,107,2
0,42,100,0
0,35,106,0
0,60,105,1
0,57,83,0
0,60,86,0
0,65,83,1
0,60,116,0
0,65,117,0
0,42,49,0
0,65,92,0
0,65,105,0
0,60,93,0
0,57,111,0
0,60,105,0
0,57,107,1
0,53,96,0
0,48,97,1
0,53,96,0
0,53,82,0
0,57,119,0
0,60,107,0
0,42,112,0
0,40,122,0
0,57,95,1
0,60,93,0
0,65,89,0
0,65,101,0
0,60,108,1
0,52,82,3
0,65,105,0
0,60,111,1
0,42,44,0
0,57,86,0
0,60,103,1
0,55,102,0
0,65,79,0
0,64,107,1
0,60,108,2
0,55,109,0
0,52,101,1
0,48,101,15
0,52,81,3
0,42,112,0
0,35,103,0
0,60,114,0
0,55,105,0
0,60,108,0
0,55,111,0
0,48,73,0
0,64,96,0
0,64,106,1
0,52,82,0
0,60,90,1
0,55,91,0
0,64,56,3
0,64,98,0
0,64,81,1
0,64,108,1
0,60,85,0
0,60,101,0
0,42,51,0
0,60,108,1
0,55,88,0
0,55,107,0
0,48,61,0
0,48,103,1
0,52,101,2
0,55,96,0
0,60,86,0
0,42,103,0
0,40,114,0
0,60,94,0
0,64,96,1
0,64,93,0
0,55,91,0
0,64,114,0
0,52,71,1
0,64,108,0
0,55,86,0
0,60,87,0
0,60,116,0
0,42,52,0
0,35,104,0
0,55,113,0
0,60,108,0
0,64,83,0
0,52,57,0
0,55,111,0
0,48,102,2
0,52,82,0
0,48,65,0
0,52,99,0
0,55,108,1
0,60,105,0
0,60,86,0
0,55,86,0
0,42,97,0
0,35,105,0
0,64,81,1
0,64,73,0
0,64,118,0
0,64,109,1
0,64,85,0
0,60,121,0
0,42,47,0
0,60,109,0
0,60,87,0
0,55,117,0
0,55,110,0
0,52,90,0
0,52,98,1
0,48,72,0
0,48,90,0
0,48,105,1
0,52,94,2
0,52,103,0
0,55,111,1
0,60,117,0
0,55,121,0
0,42,109,0
0,40,120,0
0,60,108,0
0,64,86,0
0,64,100,1
0,64,109,0
0,64,107,1
0,52,81,0
0,60,108,1
0,55,91,0
0,42,52,0
0,60,93,0
0,55,109,1
0,60,117,0
0,64,113,0
0,59,89,1
0,47,103,0
0,43,100,0
0,50,104,0
0,50,86,0
0,50,105,0
0,55,110,1
0,59,107,0
0,59,87,0
0,55,85,0
0,55,101,0
0,42,112,0
0,35,104,0
0,67,91,1
0,45,103,0
0,62,80,0
0,59,114,0
0,45,123,0
0,45,127,0
0,67,66,0
0,62,102,0
0,67,66,1
0,67,81,1
0,67,108,0
0,43,103,0
0,43,123,0
0,43,110,0
0,42,54,0
0,35,104,0
0,59,106,1
0,62,81,0
0,59,85,0
0,62,117,0
0,67,105,0
0,55,110,1
0,59,114,0
0,55,100,1
0,43,101,1
0,47,101,0
0,42,103,0
0,40,112,0
0,59,107,0
0,62,90,1
0,67,92,0
0,62,105,0
0,67,85,1
0,67,106,0
0,67,109,0
0,40,101,0
0,55,86,0
0,50,78,0
0,40,121,0
0,40,118,0
0,42,50,0
0,35,106,0
0,59,109,0
0,59,93,0
0,62,105,0
0,67,93,1
0,62,93,0
0,59,110,0
0,55,105,0
0,47,94,1
0,50,101,0
0,50,55,1
0,47,97,1
0,59,96,0
0,42,109,0
0,59,90,0
0,62,101,0
0,62,85,0
0,67,90,0
0,67,79,1
0,67,111,0
0,67,109,0
0,40,99,0
0,40,119,0
0,40,118,0
0,42,44,0
0,35,108,0
0,59,110,0
0,67,89,0
0,62,116,0
0,55,110,1
0,62,90,0
0,59,91,0
0,59,116,0
0,50,101,1
0,55,76,0
0,50,75,0
0,50,74,0
0,47,99,1
0,55,110,0
0,31,108,0
0,42,109,0
0,40,110,0
0,59,110,1
0,67,101,0
0,31,93,0
0,59,121,0
0,31,113,0
0,55,79,0
0,62,114,0
0,67,100,0
0,59,93,0
0,62,92,0
0,67,80,1
0,67,108,0
0,42,44,0
0,59,105,1
0,55,82,0
0,62,114,0
0,59,85,0
0,55,101,1
0,52,101,2
0,48,93,0
0,55,111,1
0,60,105,1
0,36,99,0
0,36,119,0
0,35,106,0
0,49,83,0
0,48,83,1
0,52,82,1
0,48,91,0
0,36,110,0
0,55,86,1
0,60,81,0
0,52,100,0
0,55,120,1
0,60,103,0
0,64,55,1
0,64,100,4
0,42,50,0
0,64,82,0
0,60,104,1
0,60,78,1
0,60,105,0
0,64,99,0
0,48,86,1
0,60,102,1
0,42,103,0
0,40,114,0
0,52,79,0
0,60,95,1
0,55,94,0
0,64,93,1
0,64,119,0
0,64,106,0
0,36,86,1
0,48,76,0
0,52,86,0
0,60,117,0
0,36,106,0
0,42,46,0
0,35,106,0
0,60,107,0
0,55,109,0
0,55,109,0
0,64,84,0
0,60,90,0
0,55,93,0
0,52,100,1
0,52,99,2
0,55,105,0
0,55,107,0
0,60,110,0
0,42,97,0
0,35,104,0
0,60,103,1
0,36,97,1
0,55,85,0
0,64,101,0
0,36,117,0
0,64,104,0
0,64,108,0
0,60,106,1
0,42,47,0
0,60,114,0
0,60,84,0
0,64,83,0
0,55,103,0
0,55,104,1
0,55,76,0
0,48,67,1
0,48,84,0
0,40,112,0
0,42,93,0
0,60,107,0
0,55,111,0
0,64,104,1
0,55,91,0
0,60,83,1
0,64,108,1
0,42,50,0
0,60,108,0
0,60,94,0
0,60,107,0
0,55,107,0
0,64,93,0
0,64,104,0
0,52,99,1
0,48,103,2
0,55,87,0
0,52,77,0
0,52,86,0
0,48,123,0
0,48,126,0
0,42,109,0
0,35,105,0
0,60,108,0
0,60,84,0
0,60,103,0
0,64,108,1
0,64,96,0
0,64,86,0
0,64,104,2
0,47,87,0
0,47,107,0
0,47,106,0
0,42,45,0
0,35,103,0
0,60,107,1
0,60,104,0
0,64,102,0
0,55,102,1
0,48,74,0
0,48,67,1
0,42,95,0
0,40,125,0
0,55,103,1
0,60,93,0
0,55,101,0
0,64,86,0
0,60,102,0
0,64,104,1
0,48,75,0
0,52,87,1
0,64,108,0
0,45,99,0
0,60,92,0
0,55,94,0
0,45,119,0
0,45,114,0
0,42,54,0
0,35,106,0
0,60,109,0
0,64,74,0
0,60,112,0
0,64,110,0
0,55,107,1
0,52,100,0
0,55,102,0
0,55,107,1
0,42,93,0
0,60,119,0
0,64,111,1
0,64,93,0
0,43,101,0
0,55,94,0
0,60,93,0
0,64,112,0
0,43,121,0
0,43,108,0
0,42,40,0
0,35,106,0
0,64,106,0
0,60,107,1
0,48,77,0
0,60,116,0
0,55,104,0
0,55,104,1
0,52,69,0
0,48,94,1
0,52,90,0
0,52,102,1
0,55,111,0
0,42,100,0
0,40,114,0
0,55,108,1
0,60,104,0
0,64,73,0
0,64,93,1
0,64,107,0
0,43,105,0
0,64,119,0
0,43,125,0
0,43,118,0
0,42,47,0
0,35,103,0
0,60,117,0
0,60,108,0
0,60,94,0
0,55,94,0
0,55,109,1
0,64,93,0
0,52,81,0
0,48,101,1
0,55,111,0
0,52,102,1
0,48,60,0
0,60,103,0
0,49,82,0
0,35,107,0
0,36,90,0
0,48,85,0
0,36,110,0
0,60,108,1
0,52,87,0
0,55,93,0
0,36,108,0
0,60,91,0
0,64,85,1
0,64,116,0
0,64,110,1
0,60,120,0
0,42,63,0
0,60,108,0
0,64,88,0
0,55,118,0
0,55,110,0
0,60,89,0
0,52,95,0
0,52,101,1
0,55,92,0
0,48,87,0
0,55,110,2
0,67,95,0
0,60,101,0
0,42,112,0
0,40,114,0
0,64,92,0
0,60,94,1
0,64,93,1
0,64,114,0
0,64,103,1
0,36,99,0
0,69,89,0
0,60,114,0
0,36,119,0
0,42,57,0
0,35,102,0
0,60,103,1
0,52,83,0
0,55,111,0
0,55,89,0
0,48,85,0
0,55,101,1
0,60,86,0
0,48,75,0
0,48,66,0
0,52,78,0
0,48,95,1
0,36,93,0
0,60,99,0
0,36,113,0
0,42,97,0
0,35,108,0
0,55,107,1
0,52,97,0
0,55,89,0
0,72,93,0
0,64,83,0
0,60,82,1
0,64,76,1
0,64,117,0
0,64,102,1
0,60,119,0
0,42,63,0
0,64,85,0
0,55,113,0
0,60,103,0
0,60,83,0
0,55,103,1
0,55,85,0
0,52,74,1
0,48,100,0
0,52,103,1
0,55,111,0
0,42,106,0
0,40,120,0
0,60,111,0
0,55,107,1
0,43,95,0
0,55,91,0
0,60,92,0
0,69,83,0
0,64,101,0
0,43,115,0
0,64,86,1
0,64,108,1
0,42,52,0
0,76,95,0
0,60,109,0
0,60,115,0
0,64,114,0
0,55,107,1
0,55,91,0
0,55,108,0
0,60,90,1
0,48,73,1
0,48,60,0
0,55,107,0
0,48,81,0
0,52,75,0
0,42,106,0
0,35,106,0
0,36,87,1
0,52,86,0
0,36,107,0
0,60,107,0
0,55,93,0
0,55,107,0
0,64,101,1
0,60,93,0
0,64,86,0
0,60,79,0
0,64,101,0
0,42,49,0
0,64,104,1
0,64,84,0
0,60,110,0
0,55,77,1
0,48,67,1
0,52,103,1
0,52,80,0
0,42,103,0
0,40,120,0
0,60,108,0
0,55,94,0
0,72,94,0
0,55,112,0
0,60,105,0
0,64,104,1
0,60,94,0
0,64,90,0
0,64,94,0
0,64,119,1
0,64,109,1
0,36,78,0
0,48,78,0
0,52,83,0
0,36,98,0
0,42,46,0
0,35,100,0
0,60,119,0
0,60,109,0
0,60,87,0
0,55,90,0
0,72,92,0
0,55,105,1
0,55,114,0
0,48,73,0
0,52,91,0
0,48,99,1
0,42,100,1
0,35,106,0
0,55,108,0
0,36,76,0
0,60,110,0
0,36,96,0
0,60,107,0
0,64,70,0
0,64,97,0
0,64,101,1
0,64,91,1
0,64,114,0
0,42,49,0
0,64,101,1
0,60,92,0
0,55,87,0
0,60,115,0
0,60,103,1
0,55,107,0
0,52,85,1
0,48,75,0
0,52,91,0
0,52,101,0
0,55,91,0
0,52,74,0
0,42,112,0
0,40,122,0
0,60,90,0
0,55,113,0
0,55,111,0
0,43,95,0
0,64,85,0
0,60,103,0
0,43,115,0
0,60,107,0
0,48,94,1
0,64,106,0
0,64,64,0
0,64,119,1
0,42,44,0
0,64,106,0
0,60,119,0
0,60,107,0
0,55,90,0
0,60,92,0
0,55,107,1
0,64,90,0
0,48,74,1
0,48,97,1
0,48,73,0
0,52,83,0
0,52,99,1
0,52,84,0
0,42,112,0
0,35,103,0
0,55,106,1
0,55,109,0
0,36,86,1
0,60,87,0
0,55,90,0
0,60,98,0
0,36,106,0
0,64,67,1
0,64,84,1
0,64,104,0
0,60,83,0
0,42,51,0
0,60,104,0
0,60,119,0
0,64,119,0
0,55,102,1
0,55,112,0
0,52,74,0
0,55,110,1
0,52,98,0
0,55,90,0
0,60,91,0
0,42,103,0
0,40,114,0
0,67,99,0
0,55,108,0
0,60,110,0
0,64,90,0
0,60,108,0
0,64,104,1
0,64,94,1
0,48,71,1
0,64,108,0
0,52,83,0
0,60,109,1
0,60,86,0
0,55,90,0
0,69,92,0
0,42,52,0
0,35,104,0
0,36,90,0
0,60,108,0
0,36,110,0
0,55,106,0
0,64,60,0
0,64,105,0
0,52,96,1
0,48,63,2
0,55,84,1
0,72,94,0
0,42,97,0
0,35,105,0
0,55,110,1
0,36,87,0
0,36,107,0
0,64,107,1
0,60,88,0
0,64,119,1
0,64,105,1
0,42,47,0
0,60,81,0
0,60,120,0
0,60,107,1
0,64,85,0
0,55,100,1
0,42,109,0
0,40,120,0
0,52,102,1
0,55,114,0
0,43,95,1
0,55,89,0
0,60,88,0
0,69,88,0
0,60,114,0
0,43,115,0
0,64,90,0
0,64,107,0
0,64,103,1
0,64,117,0
0,42,52,0
0,64,109,1
0,52,78,0
0,55,93,0
0,76,93,0
0,60,117,0
0,60,109,0
0,60,93,0
0,64,89,0
0,55,108,1
0,48,73,0
0,48,84,1
0,48,79,0
0,48,97,1
0,36,83,0
0,48,80,0
0,52,86,0
0,52,82,0
0,36,103,0
0,42,112,0
0,35,104,0
0,52,103,1
0,55,111,0
0,55,90,0
0,60,84,0
0,60,120,0
0,55,119,0
0,64,103,1
0,64,100,1
0,64,90,1
0,42,54,0
0,64,107,1
0,60,85,0
0,60,106,0
0,60,113,0
0,64,110,0
0,55,104,1
0,48,97,0
0,52,97,1
0,52,84,0
0,42,103,0
0,40,112,0
0,55,96,0
0,55,110,0
0,60,102,0
0,55,96,0
0,60,95,0
0,72,95,0
0,64,96,1
0,64,93,0
0,36,90,3
0,48,67,0
0,52,86,0
0,64,113,0
0,36,110,0
0,42,50,0
0,35,106,0
0,64,106,0
0,60,107,1
0,55,94,0
0,60,91,0
0,72,94,0
0,60,116,0
0,55,112,0
0,55,109,1
0,52,73,0
0,48,75,0
0,52,98,1
0,42,109,0
0,35,108,0
0,55,109,0
0,40,93,0
0,55,109,0
0,40,113,0
0,60,108,0
0,60,114,0
0,64,102,1
0,64,91,0
0,42,44,0
0,64,108,0
0,64,90,1
0,64,119,0
0,60,109,0
0,60,92,0
0,60,119,0
0,55,107,0
0,52,87,0
0,55,119,0
0,52,101,1
0,52,86,0
0,55,112,0
0,52,103,0
0,41,85,0
0,79,85,0
0,55,121,0
0,41,105,0
0,42,109,0
0,40,110,0
0,60,119,0
0,60,110,1
0,64,104,0
0,52,84,0
0,55,93,0
0,64,92,0
0,60,93,1
0,64,92,0
0,64,106,2
0,79,87,0
0,42,44,0
0,64,120,0
0,60,106,1
0,60,121,1
0,47,104,3
0,42,112,0
0,35,106,0
0,43,91,1
0,43,90,0
0,43,110,0
0,55,84,0
0,59,108,1
0,50,99,0
0,55,112,0
0,59,87,0
0,50,103,0
0,55,95,0
0,67,100,1
0,50,87,0
0,67,75,0
0,62,83,0
0,59,98,0
