track,note,velocity,time
1,40,98,4608
1,40,96,184
1,40,93,166
1,40,98,170
1,40,94,158
1,40,94,182
1,40,94,168
1,40,100,162
1,40,115,152
1,40,118,168
1,35,102,86
1,35,109,140
1,40,109,78
1,40,115,136
1,35,115,40
1,38,107,48
1,35,98,22
1,40,112,56
1,40,112,160
1,35,107,64
1,38,102,38
1,35,102,20
1,40,107,76
1,40,112,160
1,35,112,36
1,38,118,56
1,35,118,34
1,40,115,44
1,40,118,168
1,35,102,86
1,35,109,140
1,40,109,78
1,40,115,136
1,35,115,40
1,38,107,48
1,35,98,22
1,40,112,56
1,40,112,160
1,35,107,64
1,38,102,38
1,35,102,20
1,40,107,76
1,40,112,160
1,35,112,36
1,38,118,56
1,35,118,34
1,40,115,44
1,40,118,168
1,35,102,86
1,35,109,140
1,40,109,78
1,40,115,136
1,35,115,40
1,38,107,48
1,35,98,22
1,40,112,56
1,40,112,160
1,35,107,64
1,38,102,38
1,35,102,20
1,40,107,76
1,40,112,160
1,35,112,36
1,38,118,56
1,35,118,34
1,40,115,44
1,40,118,168
1,35,102,86
1,35,109,140
1,40,109,78
1,40,115,136
1,35,115,40
1,38,107,48
1,35,98,22
1,36,120,56
1,36,120,138
1,31,115,50
1,31,118,98
1,36,120,56
1,36,112,126
1,31,120,192
1,36,120,60
1,35,120,38
1,33,112,92
1,33,120,150
1,28,120,38
1,31,120,46
1,33,115,100
1,33,107,128
1,33,120,88
1,35,120,122
1,40,115,112
1,40,118,168
1,35,102,86
1,35,109,140
1,40,109,78
1,40,115,136
1,35,115,40
1,38,107,48
1,35,98,22
1,40,115,56
1,40,118,168
1,35,102,86
1,35,109,140
1,40,109,78
1,40,115,136
1,35,115,40
1,38,107,48
1,35,98,22
1,40,112,56
1,40,112,160
1,35,107,64
1,38,102,38
1,35,102,20
1,40,107,76
1,40,112,160
1,35,112,36
1,38,118,56
1,35,118,34
1,40,115,44
1,40,118,168
1,35,102,86
1,35,109,140
1,40,109,78
1,40,115,136
1,35,115,40
1,38,107,48
1,35,98,22
1,40,112,56
1,40,112,160
1,35,107,64
1,38,102,38
1,35,102,20
1,40,107,76
1,40,112,160
1,35,112,36
1,38,118,56
1,35,118,34
1,40,115,44
1,40,118,168
1,35,102,86
1,35,109,140
1,40,109,78
1,40,115,136
1,35,115,40
1,38,107,48
1,35,98,22
1,36,120,56
1,36,120,138
1,31,115,50
1,31,118,98
1,36,120,56
1,36,112,126
1,31,120,192
1,36,120,60
1,35,120,38
1,33,112,92
1,33,120,150
1,28,120,38
1,31,120,46
1,33,115,100
1,33,107,128
1,33,120,88
1,35,120,122
1,40,115,112
1,40,118,168
1,35,102,86
1,35,109,140
1,40,109,78
1,40,115,136
1,35,115,40
1,38,107,48
1,35,98,22
1,40,115,56
1,40,118,168
1,35,102,86
1,35,109,140
1,40,109,78
1,40,115,136
1,35,115,40
1,38,107,48
1,35,98,22
1,40,112,56
1,40,112,160
1,35,107,64
1,38,102,38
1,35,102,20
1,40,107,76
1,40,112,160
1,35,112,36
1,38,118,56
1,35,118,34
1,40,115,44
1,40,118,168
1,35,102,86
1,35,109,140
1,40,109,78
1,40,115,136
1,35,115,40
1,38,107,48
1,35,98,22
1,40,115,56
1,40,118,168
1,35,102,86
1,35,109,140
1,40,109,78
1,40,115,136
1,35,115,40
1,38,107,48
1,35,98,22
1,36,120,56
1,36,120,138
1,31,115,50
1,31,118,98
1,36,120,56
1,36,112,126
1,31,120,192
1,36,120,60
1,35,120,38
1,33,112,92
1,33,120,150
1,28,120,38
1,31,120,46
1,33,115,100
1,33,107,128
1,33,120,88
1,35,120,122
1,40,115,112
1,40,118,168
1,35,102,86
1,35,109,140
1,40,109,78
1,40,115,136
1,35,115,40
1,38,107,48
1,35,98,22
1,40,115,56
1,40,118,168
1,35,102,86
1,35,109,140
1,40,109,78
1,40,115,136
1,35,115,40
1,38,107,48
1,35,98,22
1,40,112,56
1,40,112,160
1,35,107,64
1,38,102,38
1,35,102,20
1,40,107,76
1,40,112,160
1,35,112,36
1,38,118,56
1,35,118,34
1,40,115,44
1,40,118,168
1,35,102,86
1,35,109,140
1,40,109,78
1,40,115,136
1,35,115,40
1,38,107,48
1,35,98,22
1,40,112,56
1,40,112,160
1,35,107,64
1,38,102,38
1,35,102,20
1,40,107,76
1,40,112,160
1,35,112,36
1,38,118,56
1,35,118,34
1,40,115,44
1,40,118,168
1,35,102,86
1,35,109,140
1,40,109,78
1,40,115,136
1,35,115,40
1,38,107,48
1,35,98,22
1,36,120,56
1,36,120,138
1,31,115,50
1,31,118,98
1,36,120,56
1,36,112,126
1,31,120,192
1,36,120,60
1,35,120,38
1,33,112,92
1,33,120,150
1,28,120,38
1,31,120,46
1,33,115,100
1,33,107,128
1,33,120,88
1,35,120,122
1,40,115,112
1,40,118,168
1,35,102,86
1,35,109,140
1,40,109,78
1,40,115,136
1,35,115,40
1,38,107,48
1,35,98,22
1,40,115,56
1,40,118,168
1,35,102,86
1,35,109,140
1,40,109,78
1,40,115,136
1,35,115,40
1,38,107,48
1,35,98,22
1,40,112,56
1,40,112,160
1,35,107,64
1,38,102,38
1,35,102,20
1,40,107,76
1,40,112,160
1,35,112,36
1,38,118,56
1,35,118,34
1,40,115,44
1,40,118,168
1,35,102,86
1,35,109,140
1,40,109,78
1,40,115,136
1,35,115,40
1,38,107,48
1,35,98,22
1,40,112,56
1,40,112,160
1,35,107,64
1,38,102,38
1,35,102,20
1,40,107,76
1,40,112,160
1,35,112,36
1,38,118,56
1,35,118,34
1,40,115,44
1,40,118,168
1,35,102,86
1,35,109,140
1,40,109,78
1,40,115,136
1,35,115,40
1,38,107,48
1,35,98,22
1,40,112,56
1,40,112,160
1,35,107,64
1,38,102,38
1,35,102,20
1,40,107,76
1,40,112,160
1,35,112,36
1,38,118,56
1,35,118,34
1,40,115,44
1,40,118,168
1,35,102,86
1,35,109,140
1,40,109,78
1,40,115,136
1,35,115,40
1,38,107,48
1,35,98,22
1,40,112,56
1,40,112,160
1,35,107,64
1,38,102,38
1,35,102,20
1,40,107,76
1,40,112,160
1,35,112,36
1,38,118,56
1,35,118,34
1,40,115,44
1,40,118,168
1,35,102,86
1,35,109,140
1,40,109,78
1,40,115,136
1,35,115,40
1,38,107,48
1,35,98,22
1,40,112,56
1,40,112,160
1,35,107,64
1,38,102,38
1,35,102,20
1,40,107,76
1,40,112,160
1,35,112,36
1,38,118,56
1,35,118,34
1,40,115,44
1,40,118,168
1,35,102,86
1,35,109,140
1,40,109,78
1,40,115,136
1,35,115,40
1,38,107,48
1,35,98,22
1,40,112,56
1,40,112,160
1,35,107,64
1,38,102,38
1,35,102,20
1,40,107,76
1,40,112,160
1,35,112,36
1,38,118,56
1,35,118,34
1,28,120,44
2,40,127,1536
2,59,120,56
2,62,123,0
2,59,92,48
2,62,102,0
2,59,88,58
2,62,93,0
2,62,102,62
2,59,100,0
2,62,114,192
2,59,111,0
2,62,111,70
2,59,102,0
2,59,100,80
2,62,107,0
2,59,100,72
2,62,98,0
2,57,114,72
2,55,123,26
2,50,127,22
2,52,127,192
2,52,117,202
2,45,127,16
2,47,127,192
2,50,127,16
2,52,120,72
2,40,127,2
2,52,127,162
2,45,127,192
2,47,127,176
2,50,127,24
2,45,127,384
2,40,127,90
2,59,114,164
2,62,120,0
2,59,85,88
2,62,93,0
2,62,107,64
2,59,102,0
2,62,109,72
2,59,104,0
2,62,127,2
2,59,123,0
2,62,107,102
2,59,100,0
2,59,100,80
2,62,109,0
2,62,98,88
2,59,96,0
2,57,117,52
2,55,120,16
2,50,127,24
2,52,117,192
2,52,127,158
2,45,127,16
2,47,127,192
2,50,127,34
2,40,127,384
2,52,127,186
2,40,127,160
2,52,127,8
2,40,111,8
2,57,127,2546
2,64,123,0
2,59,98,20
2,62,100,0
2,59,81,32
2,62,90,0
2,59,80,62
2,62,88,0
2,59,100,64
2,62,100,0
2,62,104,360
2,59,96,0
2,59,78,32
2,62,79,0
2,59,98,86
2,62,104,0
2,59,104,82
2,62,102,0
2,57,111,56
2,55,117,22
2,50,114,152
2,52,114,16
2,57,127,2328
2,64,123,0
2,59,98,20
2,62,100,0
2,59,81,32
2,62,90,0
2,59,80,62
2,62,88,0
2,59,100,64
2,62,100,0
2,62,104,360
2,59,96,0
2,59,78,32
2,62,79,0
2,59,98,86
2,62,104,0
2,59,104,82
2,62,102,0
2,57,111,56
2,55,117,22
2,50,114,152
2,52,114,16
2,55,90,2904
2,60,92,0
2,64,90,0
2,48,82,0
2,45,83,864
2,57,83,0
2,64,85,0
2,61,85,0
2,62,102,1504
2,59,95,0
2,59,81,52
2,62,85,0
2,62,96,96
2,59,93,0
2,59,102,82
2,62,107,0
2,62,109,232
2,59,98,0
2,59,100,244
2,62,107,0
2,59,93,46
2,62,98,0
2,62,96,110
2,59,90,0
2,57,114,116
2,55,120,48
2,50,120,64
2,57,127,2496
2,64,123,0
2,59,98,20
2,62,100,0
2,59,81,32
2,62,90,0
2,59,80,62
2,62,88,0
2,59,100,64
2,62,100,0
2,62,104,360
2,59,96,0
2,59,78,32
2,62,79,0
2,59,98,86
2,62,104,0
2,59,104,82
2,62,102,0
2,57,111,56
2,55,117,22
2,50,114,152
2,52,114,16
2,57,127,2328
2,64,123,0
2,59,98,20
2,62,100,0
2,59,81,32
2,62,90,0
2,59,80,62
2,62,88,0
2,59,100,64
2,62,100,0
2,62,104,360
2,59,96,0
2,59,78,32
2,62,79,0
2,59,98,86
2,62,104,0
2,59,104,82
2,62,102,0
2,57,111,56
2,55,117,22
2,50,114,152
2,52,114,16
2,55,90,2904
2,60,92,0
2,64,90,0
2,48,82,0
2,45,83,864
2,57,83,0
2,64,85,0
2,61,85,0
2,62,102,1504
2,59,95,0
2,59,81,52
2,62,85,0
2,62,96,96
2,59,93,0
2,59,102,82
2,62,107,0
2,62,109,232
2,59,98,0
2,59,100,244
2,62,107,0
2,59,93,46
2,62,98,0
2,62,96,110
2,59,90,0
2,57,114,116
2,55,120,48
2,50,120,64
2,59,88,0
2,64,98,0
2,64,123,240
2,59,117,0
2,64,123,352
2,62,127,192
2,59,117,162
2,57,127,190
2,55,120,20
2,52,127,50
2,74,127,3658
2,76,92,32
2,74,127,1316
2,76,107,24
2,55,90,768
2,60,92,0
2,64,90,0
2,48,82,0
2,45,83,864
2,57,83,0
2,64,85,0
2,61,85,0
2,74,127,352
2,76,109,24
2,62,102,384
2,59,95,0
2,59,81,52
2,62,85,0
2,62,96,96
2,59,93,0
2,59,102,82
2,62,107,0
2,62,109,232
2,59,98,0
2,59,100,90
2,62,107,0
2,59,93,46
2,62,98,0
2,62,96,110
2,59,90,0
2,57,114,116
2,55,120,48
2,50,120,64
2,57,127,2496
2,64,123,0
2,62,79,2
2,67,92,0
2,71,90,0
2,67,83,36
2,71,77,0
2,67,93,58
2,71,92,0
2,62,79,0
2,62,100,60
2,67,114,0
2,71,109,0
2,59,100,208
2,64,98,0
2,59,107,72
2,64,100,0
2,57,95,46
2,61,96,0
2,59,96,12
2,55,120,0
2,56,124,2
2,59,100,16
2,64,95,0
2,57,127,2832
2,64,123,0
2,62,79,2
2,67,92,0
2,71,90,0
2,67,83,36
2,71,77,0
2,67,93,58
2,71,92,0
2,62,79,0
2,62,100,60
2,67,114,0
2,71,109,0
2,59,100,208
2,64,98,0
2,59,107,72
2,64,100,0
2,57,95,46
2,61,96,0
2,59,96,12
2,55,120,0
2,56,124,2
2,59,100,16
2,64,95,0
2,55,90,3408
2,60,92,0
2,64,90,0
2,48,82,0
2,45,83,864
2,57,83,0
2,64,85,0
2,61,85,0
2,62,102,1504
2,59,95,0
2,59,81,52
2,62,85,0
2,62,96,96
2,59,93,0
2,59,102,82
2,62,107,0
2,62,109,232
2,59,98,0
2,59,100,244
2,62,107,0
2,59,93,46
2,62,98,0
2,62,96,110
2,59,90,0
2,57,114,116
2,55,120,48
2,50,120,64
2,64,114,0
2,59,107,0
2,64,127,224
2,59,120,0
2,64,123,240
2,62,117,192
2,59,114,134
2,57,117,174
2,55,120,20
2,52,127,42
2,62,88,4992
2,67,102,0
2,71,102,0
2,62,67,10
2,67,93,0
2,71,92,0
2,62,86,6
2,67,102,0
2,71,102,0
2,62,83,40
2,67,107,0
2,71,107,0
2,59,96,100
2,67,109,192
2,71,100,0
2,71,111,58
2,67,120,0
2,62,82,0
2,64,84,164
2,62,92,0
2,71,120,106
2,67,123,0
2,59,114,136
2,71,117,384
2,67,120,0
2,59,114,68
2,67,123,256
2,71,114,0
2,71,114,148
2,67,123,0
2,71,117,120
2,67,127,0
2,64,117,376
2,59,114,0
2,52,117,0
2,67,114,768
2,71,114,0
2,67,114,22
2,71,117,0
2,71,114,8
2,67,120,0
2,67,123,2
2,71,114,0
2,71,111,124
2,67,123,0
2,67,117,132
2,71,104,0
2,67,123,64
2,71,117,0
2,64,117,162
2,52,127,0
2,59,107,0
2,71,109,768
2,67,117,0
2,67,107,54
2,71,114,0
2,71,109,192
2,67,117,0
2,67,117,204
2,71,109,0
2,71,109,188
2,67,120,0
2,59,102,86
2,71,127,6
2,67,120,0
2,52,127,146
2,64,117,0
2,59,114,0
2,62,90,768
2,59,98,0
2,52,107,0
2,62,111,372
2,59,109,0
2,52,104,0
2,62,107,192
2,59,100,0
2,62,111,144
2,59,109,0
2,52,120,192
2,57,82,104
2,57,104,14
2,61,114,0
2,59,102,72
2,55,100,0
2,52,104,22
2,59,100,192
2,62,104,0
2,59,102,146
2,62,104,0
2,62,89,192
2,59,83,0
2,59,107,192
2,62,114,0
2,59,111,168
2,62,114,0
2,52,123,384
2,61,110,22
2,57,102,0
2,55,107,76
2,59,111,0
2,59,96,254
2,62,104,0
2,52,86,10
2,62,107,84
2,59,100,0
2,62,102,96
2,59,96,0
2,59,102,198
2,62,111,0
2,62,107,154
2,59,98,0
2,52,127,384
2,53,32,0
2,61,102,28
2,57,96,0
2,59,107,72
2,55,102,0
2,52,123,384
2,50,127,1612
2,50,127,444
2,50,120,166
2,47,127,192
2,52,88,40
2,50,127,132
2,52,82,0
2,50,127,478
2,45,120,192
2,47,117,188
2,50,123,140
2,52,107,152
3,40,81,1536
3,40,77,226
3,40,72,226
3,40,70,196
3,40,77,192
3,40,81,198
3,40,81,232
3,40,81,204
3,59,77,44
3,56,64,0
3,64,72,0
3,47,66,6
3,52,60,0
3,40,59,0
3,56,59,128
3,59,70,0
3,64,65,0
3,47,36,18
3,52,39,0
3,40,54,0
3,56,49,84
3,64,56,0
3,59,63,0
3,64,63,112
3,56,48,0
3,59,66,0
3,47,51,66
3,52,51,0
3,40,58,0
3,56,51,48
3,64,56,0
3,59,66,0
3,52,42,30
3,40,54,0
3,47,52,0
3,56,46,176
3,59,68,0
3,64,56,0
3,47,54,64
3,40,59,0
3,52,49,0
3,56,44,96
3,59,63,0
3,64,55,0
3,56,51,110
3,59,68,0
3,64,66,0
3,47,59,56
3,40,60,0
3,52,52,0
3,59,77,72
3,56,59,0
3,64,60,0
3,47,70,88
3,52,68,0
3,40,70,0
3,59,77,16
3,56,57,0
3,64,60,0
3,40,60,16
3,52,55,0
3,47,59,0
3,64,58,192
3,59,72,0
3,56,59,0
3,64,62,118
3,56,57,0
3,59,72,0
3,47,59,12
3,40,59,0
3,52,54,0
3,59,72,192
3,64,62,0
3,56,57,0
3,40,63,8
3,52,56,0
3,47,63,0
3,56,55,78
3,59,72,0
3,64,60,0
3,52,56,28
3,40,62,0
3,47,63,0
3,56,55,64
3,59,72,0
3,64,59,0
3,59,74,114
3,56,59,0
3,64,66,0
3,52,59,48
3,47,62,0
3,40,60,0
3,64,65,52
3,59,77,0
3,56,61,0
3,47,74,2
3,52,68,0
3,40,70,0
3,59,66,30
3,56,53,0
3,64,56,0
3,52,56,56
3,40,62,0
3,47,65,0
3,64,58,36
3,59,65,0
3,56,49,0
3,56,46,122
3,59,66,0
3,64,60,0
3,52,63,48
3,40,62,0
3,47,70,0
3,59,68,192
