track,note,velocity,time
2,40,127,6715
2,40,0,176
2,40,127,64
2,40,0,119
2,35,127,1
2,35,0,116
2,37,127,4
2,37,0,113
2,35,127,7
2,35,0,108
2,37,127,12
2,37,0,58
2,40,127,62
2,40,0,187
2,40,127,53
2,35,127,240
2,40,0,11
2,35,0,103
2,37,127,6
2,37,0,107
2,35,127,13
2,35,0,110
2,37,127,10
2,37,0,117
2,35,127,3
2,35,0,108
2,40,127,12
2,40,0,202
2,40,127,38
2,40,0,111
2,35,127,9
2,35,0,111
2,37,127,9
2,37,0,112
2,35,127,8
2,35,0,105
2,37,127,15
2,37,0,75
2,40,127,45
2,40,0,193
2,40,127,47
2,40,0,234
2,35,127,6
2,35,0,112
2,37,127,8
2,35,127,120
2,37,0,2
2,35,0,99
2,37,127,19
2,37,0,100
2,35,127,20
2,35,0,85
2,40,127,35
2,40,0,201
2,40,127,39
2,40,0,120
2,35,127,0
2,35,0,108
2,37,127,12
2,37,0,113
2,35,127,7
2,35,0,109
2,37,127,11
2,37,0,66
2,40,127,54
2,40,0,206
2,40,127,34
2,40,0,237
2,35,127,3
2,35,0,110
2,37,127,10
2,35,127,120
2,37,0,4
2,35,0,100
2,37,127,16
2,37,0,114
2,35,127,6
2,35,0,101
2,40,127,19
2,40,0,202
2,40,127,38
2,40,0,111
2,35,127,9
2,35,0,111
2,37,127,9
2,37,0,112
2,35,127,8
2,35,0,105
2,37,127,15
2,37,0,75
2,40,127,45
2,40,0,193
2,40,127,47
2,40,0,234
2,35,127,6
2,35,0,112
2,37,127,8
2,35,127,120
2,37,0,2
2,35,0,99
2,37,127,19
2,37,0,100
2,35,127,20
2,35,0,85
2,40,127,35
2,40,0,201
2,40,127,39
2,40,0,120
2,35,127,0
2,35,0,108
2,37,127,12
2,37,0,113
2,35,127,7
2,35,0,109
2,37,127,11
2,37,0,66
2,40,127,54
2,40,0,206
2,40,127,34
2,40,0,237
2,35,127,3
2,35,0,110
2,37,127,10
2,35,127,120
2,37,0,4
2,35,0,100
2,37,127,16
2,37,0,114
2,35,127,6
2,35,0,101
2,40,127,19
2,40,0,202
2,40,127,38
2,40,0,111
2,35,127,9
2,35,0,111
2,37,127,9
2,37,0,112
2,35,127,8
2,35,0,105
2,37,127,15
2,37,0,75
2,40,127,45
2,40,0,193
2,40,127,47
2,40,0,234
2,44,127,6
2,44,0,224
2,45,127,16
2,45,0,192
2,47,127,48
2,47,0,85
2,40,127,35
2,40,0,201
2,40,127,39
2,40,0,120
2,35,127,0
2,35,0,108
2,37,127,12
2,37,0,113
2,35,127,7
2,35,0,109
2,37,127,11
2,37,0,66
2,40,127,54
2,40,0,206
2,40,127,34
2,40,0,237
2,35,127,3
2,35,0,110
2,37,127,10
2,35,127,120
2,37,0,4
2,35,0,100
2,37,127,16
2,37,0,114
2,35,127,6
2,35,0,101
2,40,127,19
2,40,0,202
2,40,127,38
2,40,0,111
2,35,127,9
2,35,0,111
2,37,127,9
2,37,0,112
2,35,127,8
2,35,0,105
2,37,127,15
2,37,0,75
2,40,127,45
2,40,0,193
2,40,127,47
2,40,0,234
2,35,127,6
2,35,0,112
2,37,127,8
2,35,127,120
2,37,0,2
2,35,0,99
2,37,127,19
2,37,0,100
2,35,127,20
2,35,0,85
2,40,127,35
2,40,0,201
2,40,127,39
2,40,0,120
2,35,127,0
2,35,0,108
2,37,127,12
2,37,0,113
2,35,127,7
2,35,0,109
2,37,127,11
2,37,0,66
2,40,127,54
2,40,0,206
2,40,127,34
2,40,0,237
2,35,127,3
2,35,0,110
2,37,127,10
2,35,127,120
2,37,0,4
2,35,0,100
2,37,127,16
2,37,0,114
2,35,127,6
2,35,0,101
2,40,127,19
2,40,0,202
2,40,127,38
2,40,0,111
2,35,127,9
2,35,0,111
2,37,127,9
2,37,0,112
2,35,127,8
2,35,0,105
2,37,127,15
2,37,0,75
2,40,127,45
2,40,0,193
2,40,127,47
2,40,0,234
2,35,127,6
2,35,0,112
2,37,127,8
2,35,127,120
2,37,0,2
2,35,0,99
2,37,127,19
2,37,0,100
2,35,127,20
2,35,0,85
2,40,127,35
2,40,0,201
2,40,127,39
2,40,0,120
2,35,127,0
2,35,0,108
2,37,127,12
2,37,0,113
2,35,127,7
2,35,0,109
2,37,127,11
2,37,0,66
2,40,127,54
2,40,0,206
2,40,127,34
2,40,0,237
2,35,127,3
2,35,0,110
2,37,127,10
2,35,127,120
2,37,0,4
2,35,0,100
2,37,127,16
2,37,0,114
2,35,127,6
2,35,0,101
2,40,127,19
2,40,0,202
2,40,127,38
2,40,0,111
2,35,127,9
2,35,0,111
2,37,127,9
2,37,0,112
2,35,127,8
2,35,0,105
2,37,127,15
2,37,0,75
2,40,127,45
2,40,106,0
2,40,0,120
2,40,0,51
2,40,127,69
2,40,0,186
2,38,127,54
2,38,0,212
2,33,127,28
2,33,0,193
2,35,127,47
2,35,0,104
2,28,127,16
2,28,0,100
2,28,127,20
2,28,0,113
2,35,127,127
2,35,0,113
2,37,127,7
2,35,127,120
2,37,0,12
2,35,0,108
2,37,127,0
2,37,0,82
2,40,127,38
2,40,0,190
2,40,127,50
2,40,0,161
2,38,127,79
2,38,0,202
2,33,127,38
2,33,0,193
2,35,127,47
2,35,0,98
2,28,127,22
2,28,0,108
2,28,127,12
2,28,0,136
2,35,127,104
2,35,0,115
2,37,127,5
2,37,0,113
2,35,127,7
2,35,0,106
2,37,127,14
2,37,0,84
2,40,127,36
2,40,0,189
2,40,127,51
2,40,0,191
2,38,127,49
2,38,0,136
2,33,127,104
2,33,0,188
2,35,127,52
2,35,0,94
2,28,127,26
2,28,0,108
2,28,127,8
2,28,0,111
2,35,127,133
2,35,0,99
2,37,127,21
2,35,127,120
2,37,0,2
2,35,0,96
2,37,127,22
2,37,0,85
2,40,127,35
2,40,0,194
2,40,127,46
2,40,0,186
2,38,127,54
2,38,0,128
2,33,127,112
2,33,0,193
2,35,127,47
2,35,0,95
2,28,127,25
2,28,0,120
2,28,127,0
2,28,0,120
2,35,127,120
2,35,0,105
2,37,127,15
2,37,0,108
2,35,127,12
2,35,0,99
2,37,127,21
2,37,0,72
2,40,127,48
2,40,0,194
2,40,127,46
2,40,0,170
2,38,127,70
2,38,0,128
2,37,127,112
2,37,0,179
2,35,127,61
2,35,0,86
2,28,127,34
2,28,0,120
2,28,127,0
2,28,0,120
2,35,127,120
2,35,0,120
2,37,127,0
2,37,0,107
2,35,127,13
2,35,0,120
2,37,127,0
2,37,0,86
2,40,127,34
2,40,0,180
2,40,127,60
2,40,0,88
2,40,127,32
2,40,0,120
2,40,127,0
2,40,0,120
2,44,127,0
2,44,0,111
2,45,127,9
2,45,0,106
2,46,127,14
2,46,0,109
2,47,127,11
2,47,0,99
2,40,127,21
2,40,0,196
2,40,127,44
2,40,0,105
2,35,127,15
2,35,0,100
2,37,127,20
2,37,0,107
2,35,127,13
2,35,0,114
2,37,127,6
2,37,0,86
2,40,127,34
2,40,0,316
2,40,127,44
2,40,0,99
2,35,127,21
2,35,0,111
2,37,127,9
2,37,0,106
2,35,127,14
2,35,0,109
2,37,127,11
2,37,0,99
2,35,127,21
2,35,0,85
2,40,127,35
2,40,0,196
2,40,127,44
2,40,0,105
2,35,127,15
2,35,0,100
2,37,127,20
2,37,0,107
2,35,127,13
2,35,0,114
2,37,127,6
2,37,0,86
2,40,127,34
2,40,0,316
2,40,127,44
2,40,0,99
2,35,127,21
2,35,0,111
2,37,127,9
2,37,0,106
2,35,127,14
2,35,0,109
2,37,127,11
2,37,0,99
2,35,127,21
2,35,0,85
2,40,127,35
2,40,0,196
2,40,127,44
2,40,0,105
2,35,127,15
2,35,0,100
2,37,127,20
2,37,0,107
2,35,127,13
2,35,0,114
2,37,127,6
2,37,0,86
2,40,127,34
2,40,0,316
2,40,127,44
2,40,0,99
2,35,127,21
2,35,0,111
2,37,127,9
2,37,0,106
2,35,127,14
2,35,0,109
2,37,127,11
2,37,0,99
2,35,127,21
2,35,0,85
2,40,127,35
2,40,0,196
2,40,127,44
2,40,0,105
2,35,127,15
2,35,0,100
2,37,127,20
2,37,0,107
2,35,127,13
2,35,0,114
2,37,127,6
2,37,0,86
2,40,127,34
2,40,0,112
2,40,127,128
2,40,0,112
2,40,127,8
2,40,0,99
2,35,127,21
2,35,0,111
2,44,127,9
2,44,0,106
2,45,127,14
2,45,0,109
2,46,127,11
2,46,0,99
2,47,127,21
2,47,0,85
2,40,127,35
2,40,0,196
2,40,127,44
2,40,0,105
2,35,127,15
2,35,0,100
2,37,127,20
2,37,0,107
2,35,127,13
2,35,0,114
2,37,127,6
2,37,0,86
2,40,127,34
2,40,0,316
2,40,127,44
2,40,0,99
2,35,127,21
2,35,0,111
2,37,127,9
2,37,0,106
2,35,127,14
2,35,0,109
2,37,127,11
2,37,0,99
2,35,127,21
2,35,0,85
2,40,127,35
2,40,0,196
2,40,127,44
2,40,0,105
2,35,127,15
2,35,0,100
2,37,127,20
2,37,0,107
2,35,127,13
2,35,0,114
2,37,127,6
2,37,0,86
2,40,127,34
2,40,0,316
2,40,127,44
2,40,0,99
2,35,127,21
2,35,0,111
2,37,127,9
2,37,0,106
2,35,127,14
2,35,0,109
2,37,127,11
2,37,0,99
2,35,127,21
2,35,0,85
2,40,127,35
2,40,0,196
2,40,127,44
2,40,0,105
2,35,127,15
2,35,0,100
2,37,127,20
2,37,0,107
2,35,127,13
2,35,0,114
2,37,127,6
2,37,0,86
2,40,127,34
2,40,0,316
2,40,127,44
2,40,0,99
2,35,127,21
2,35,0,111
2,37,127,9
2,37,0,106
2,35,127,14
2,35,0,109
2,37,127,11
2,37,0,99
2,35,127,21
2,35,0,85
2,38,127,35
2,38,0,180
2,38,115,60
2,38,0,180
2,33,127,60
2,33,0,67
2,33,127,53
2,33,0,95
2,35,127,25
2,35,0,57
2,40,127,63
2,40,0,182
2,35,127,58
2,35,0,120
2,38,127,0
2,38,0,112
2,40,123,8
2,40,0,120
2,33,127,0
2,35,127,20
2,33,0,4
2,35,0,84
2,38,127,12
2,38,0,99
2,35,127,21
2,35,0,109
2,33,127,11
2,33,0,49
2,38,127,71
2,38,0,180
2,38,115,60
2,38,0,180
2,33,127,60
2,33,0,54
2,33,127,66
2,33,0,85
2,31,127,35
2,31,0,51
2,40,127,69
2,40,0,190
2,40,127,50
2,40,0,100
2,37,126,20
2,37,0,116
2,35,127,4
2,35,0,60
2,35,123,60
2,35,0,71
2,35,123,49
2,35,0,102
2,37,127,18
2,37,0,111
2,35,127,9
2,35,0,56
2,38,127,64
2,40,127,120
2,38,0,8
2,42,102,112
2,40,0,8
2,42,0,108
2,45,102,4
2,45,0,116
2,45,102,4
2,45,0,116
2,40,127,4
2,40,0,83
2,37,127,37
2,37,0,116
2,40,124,4
2,40,0,175
2,40,120,65
2,40,0,112
2,37,127,8
2,37,0,109
2,35,112,11
2,35,0,75
2,35,127,45
2,35,0,63
2,35,114,57
2,35,0,100
2,37,127,20
2,37,0,108
2,35,127,12
2,35,0,53
2,38,127,67
2,38,0,90
2,40,127,30
2,40,0,81
2,42,127,39
2,42,0,93
2,44,127,27
2,44,0,92
2,45,127,28
2,45,0,108
2,40,127,12
2,40,0,90
2,37,127,30
2,37,0,71
2,40,124,49
2,40,0,166
2,33,123,74
2,33,0,130
2,34,123,110
2,34,0,130
2,35,123,110
2,35,0,130
2,36,123,110
2,36,0,130
2,37,123,110
2,37,0,130
2,38,123,110
2,38,0,130
2,39,123,110
2,39,0,130
2,40,123,110
2,40,123,120
2,40,0,10
2,40,0,230
2,40,127,0
2,40,0,112
2,35,127,8
2,35,0,88
2,37,127,32
2,35,127,120
2,37,0,8
2,35,0,92
2,37,127,20
2,37,0,89
2,40,102,31
2,40,0,163
2,40,127,77
2,37,127,120
2,40,0,26
2,35,127,94
2,37,0,1
2,37,127,119
2,35,0,11
2,35,127,109
2,37,0,6
2,37,127,114
2,35,0,19
2,37,0,148
2,40,127,73
2,40,0,120
2,40,127,120
2,40,0,240
2,37,127,0
2,40,127,120
2,37,0,8
2,40,0,172
2,28,127,60
2,28,0,120
2,28,127,120
2,28,0,120
2,33,127,0
2,35,127,120
2,33,0,1
2,37,127,119
2,35,0,11
2,35,127,109
2,37,0,6
2,37,127,114
2,35,0,19
2,37,0,148
2,40,127,73
2,40,0,240
2,35,127,120
2,35,0,88
2,37,127,32
2,35,127,120
2,37,0,8
2,35,0,92
2,37,127,20
2,37,0,89
2,40,102,31
2,40,0,163
2,40,127,77
2,37,127,120
2,40,0,26
2,35,127,94
2,37,0,1
2,37,127,119
2,35,0,11
2,35,127,109
2,37,0,6
2,37,127,114
2,35,0,19
2,37,0,148
2,40,127,73
2,40,0,120
2,40,127,120
2,40,0,180
2,37,127,60
2,35,127,120
2,37,0,8
2,35,0,92
2,37,127,20
2,37,0,89
2,40,102,31
2,40,0,163
2,40,127,77
2,37,127,120
2,40,0,26
2,35,127,94
2,37,0,1
2,37,127,119
2,35,0,11
2,35,127,109
2,37,0,6
2,37,127,114
2,35,0,19
2,37,0,148
2,40,123,73
2,40,0,240
2,40,127,0
2,40,0,112
2,35,127,8
2,35,0,88
2,37,127,32
2,35,127,120
2,37,0,8
2,35,0,92
2,37,127,20
2,37,0,89
2,40,102,31
2,40,0,163
2,40,127,77
2,37,127,120
2,40,0,26
2,35,127,94
2,37,0,1
2,37,127,119
2,35,0,11
2,35,127,109
2,37,0,6
2,37,127,114
2,35,0,19
2,37,0,148
2,40,127,73
2,40,0,120
2,40,127,120
2,40,0,240
2,37,127,0
2,40,127,120
2,37,0,8
2,40,0,172
2,28,127,60
2,28,0,120
2,28,127,120
2,28,0,120
2,33,127,0
2,35,127,120
2,33,0,1
2,37,127,119
2,35,0,11
2,35,127,109
2,37,0,6
2,37,127,114
2,35,0,19
2,37,0,148
2,40,127,73
2,40,0,240
2,35,127,120
2,35,0,88
2,37,127,32
2,35,127,120
2,37,0,8
2,35,0,92
2,37,127,20
2,37,0,89
2,40,102,31
2,40,0,163
2,40,127,77
2,37,127,120
2,40,0,26
2,35,127,94
2,37,0,1
2,37,127,119
2,35,0,11
2,35,127,109
2,37,0,6
2,37,127,114
2,35,0,19
2,37,0,148
2,38,127,73
2,38,0,202
2,38,127,38
2,38,0,219
2,33,127,21
2,33,0,87
2,33,127,33
2,33,0,124
2,28,127,116
2,28,0,186
2,32,118,65
2,32,0,190
2,33,127,39
2,33,0,212
2,34,127,28
2,34,0,212
2,35,127,32
2,35,0,189
2,37,127,47
2,37,0,212
2,38,127,28
2,38,0,220
2,39,127,20
2,39,0,180
2,40,127,60
2,40,0,77
2,40,127,43
2,40,0,201
2,40,127,39
2,40,0,120
2,35,127,0
2,35,0,108
2,37,127,12
2,37,0,113
2,35,127,7
2,35,0,109
2,37,127,11
2,37,0,66
2,40,127,54
2,40,0,206
2,40,127,34
2,40,0,237
2,35,127,3
2,35,0,110
2,37,127,10
2,35,127,120
2,37,0,4
2,35,0,100
2,37,127,16
2,37,0,114
2,35,127,6
2,35,0,101
2,40,127,19
2,40,0,202
2,40,127,38
2,40,0,111
2,35,127,9
2,35,0,111
2,37,127,9
2,37,0,112
2,35,127,8
2,35,0,105
2,37,127,15
2,37,0,75
2,40,127,45
2,40,0,193
2,40,127,47
2,40,0,234
2,35,127,6
2,35,0,112
2,37,127,8
2,35,127,120
2,37,0,2
2,35,0,99
2,37,127,19
2,37,0,100
2,35,127,20
2,35,0,85
2,40,127,35
2,40,0,201
2,40,127,39
2,40,0,120
2,35,127,0
2,35,0,108
2,37,127,12
2,37,0,113
2,35,127,7
2,35,0,109
2,37,127,11
2,37,0,66
2,40,127,54
2,40,0,206
2,40,127,34
2,40,0,237
2,35,127,3
2,35,0,110
2,37,127,10
2,35,127,120
2,37,0,4
2,35,0,100
2,37,127,16
2,37,0,114
2,35,127,6
2,35,0,101
2,40,127,19
2,40,0,202
2,40,127,38
2,40,0,111
2,35,127,9
2,35,0,111
