track,note,velocity,time
3,56,92,1437
3,49,111,0
3,49,0,190
3,56,0,30
3,49,103,0
3,56,88,5
3,56,0,210
3,49,0,30
3,49,113,5
3,58,110,5
3,58,0,165
3,49,0,35
3,49,107,15
3,56,47,5
3,49,0,200
3,56,0,25
3,49,108,10
3,56,66,5
3,56,0,220
3,49,0,5
3,49,113,10
3,58,113,5
3,58,0,155
3,49,0,35
3,46,115,280
3,53,114,5
3,53,0,225
3,46,0,10
3,47,83,0
3,54,100,5
3,54,0,235
3,47,0,0
3,47,104,5
3,54,98,0
3,54,0,200
3,47,0,40
3,47,114,5
3,56,110,5
3,56,0,200
3,47,0,10
3,47,113,20
3,54,94,5
3,54,0,215
3,47,0,5
3,54,100,15
3,47,104,0
3,54,0,200
3,47,0,30
3,54,70,15
3,47,90,0
3,47,0,225
3,54,0,0
3,47,116,10
3,56,114,5
3,47,0,190
3,56,0,10
3,42,117,275
3,49,115,10
3,49,0,215
3,49,100,25
3,49,0,210
3,42,0,25
3,51,114,5
3,42,115,0
3,51,0,190
3,49,109,50
3,49,0,235
3,42,0,0
3,42,109,5
3,49,100,5
3,49,0,185
3,42,0,50
3,51,113,0
3,42,113,5
3,51,0,210
3,42,0,40
3,49,118,215
3,42,109,5
3,49,0,475
3,42,0,10
3,49,115,0
3,42,113,5
3,42,0,200
3,49,0,10
3,42,116,25
3,51,117,5
3,51,0,170
3,49,110,60
3,42,0,220
3,49,0,10
3,42,101,5
3,49,108,240
3,42,0,5
3,42,111,5
3,49,0,210
3,42,0,25
3,42,111,5
3,51,111,5
3,51,0,200
3,42,0,35
3,49,90,0
3,42,106,5
3,42,0,130
3,49,0,70
3,49,121,35
3,42,124,0
3,54,97,0
3,49,0,310
3,54,0,40
3,42,0,55
3,49,123,1515
3,42,123,5
3,54,26,0
3,49,0,285
3,54,0,30
3,42,0,5
3,42,125,1600
3,49,119,0
3,54,86,5
3,49,0,235
3,54,0,10
3,42,0,10
3,42,121,1655
3,54,104,10
3,49,117,0
3,42,0,155
3,49,0,70
3,54,0,25
3,54,83,1650
3,47,95,0
3,47,0,235
3,54,0,0
3,54,77,5
3,47,101,0
3,54,0,235
3,47,0,10
3,56,96,5
3,47,111,0
3,56,0,215
3,47,0,15
3,47,90,10
3,54,64,0
3,47,0,215
3,54,0,20
3,54,83,5
3,47,108,0
3,54,0,185
3,47,0,35
3,47,105,20
3,56,96,0
3,56,0,210
3,47,0,45
3,54,97,215
3,47,95,0
3,54,0,485
3,54,80,5
3,54,0,205
3,47,0,30
3,56,104,5
3,47,113,0
3,56,0,170
3,47,0,55
3,47,103,5
3,54,76,10
3,47,0,225
3,47,92,5
3,54,0,5
3,54,77,5
3,54,0,185
3,47,0,45
3,47,111,5
3,56,102,5
3,56,0,215
3,47,0,20
3,42,97,230
3,49,100,5
3,42,0,235
3,42,87,5
3,49,0,15
3,42,0,220
3,49,76,15
3,42,86,0
3,49,0,220
3,42,0,15
3,42,104,5
3,42,0,210
3,42,104,20
3,49,66,5
3,49,0,220
3,42,0,5
3,42,95,10
3,49,82,0
3,49,0,185
3,42,0,60
3,51,89,0
3,42,92,5
3,51,0,195
3,42,0,25
3,49,71,20
3,49,0,180
3,49,107,45
3,42,107,0
3,42,0,480
3,42,109,5
3,49,0,5
3,49,66,5
3,49,0,190
3,51,104,45
3,51,0,160
3,42,0,70
3,42,105,5
3,49,82,5
3,42,0,220
3,49,0,10
3,42,111,5
3,49,82,0
3,42,0,240
3,49,0,5
3,42,88,0
3,49,73,5
3,49,0,175
3,42,0,55
3,51,86,10
3,42,99,0
3,51,0,145
3,42,0,85
3,42,92,5
3,42,0,70
3,49,98,165
3,56,86,10
3,49,0,210
3,56,0,20
3,56,64,5
3,49,87,5
3,56,0,190
3,49,0,25
3,49,111,15
3,58,107,0
3,58,0,195
3,49,0,25
3,49,93,20
3,56,91,5
3,49,0,220
3,56,0,20
3,49,97,5
3,56,84,0
3,56,0,160
3,49,0,55
3,49,109,15
3,58,102,10
3,58,0,195
3,49,0,40
3,54,109,235
3,47,103,0
3,47,0,475
3,47,89,5
3,54,0,5
3,54,79,5
3,54,0,225
3,47,0,10
3,47,114,5
3,56,112,0
3,56,0,210
3,47,0,15
3,47,89,15
3,54,79,0
3,47,0,220
3,54,0,10
3,47,93,5
3,54,86,5
3,54,0,180
3,47,0,45
3,47,107,5
3,56,104,10
3,56,0,245
3,47,0,10
3,56,101,215
3,49,97,0
3,49,0,465
3,56,0,10
3,49,92,5
3,49,0,235
3,49,104,5
3,58,103,0
3,58,0,185
3,49,0,50
3,49,93,5
3,49,0,235
3,56,84,15
3,49,100,0
3,49,0,220
3,56,0,10
3,49,78,5
3,56,73,5
3,49,0,235
3,49,97,5
3,56,0,5
3,58,87,0
3,58,0,190
3,49,0,25
3,49,76,260
3,42,94,0
3,49,0,225
3,49,59,10
3,49,0,215
3,42,0,10
3,42,104,10
3,51,109,5
3,51,0,195
3,42,0,45
3,49,86,5
3,42,86,0
3,42,0,455
3,49,0,10
3,42,72,5
3,42,0,225
3,42,103,15
3,49,87,0
3,49,0,240
3,42,0,5
3,42,104,5
3,42,0,75
3,42,111,160
3,49,111,0
3,54,101,5
3,49,0,1730
3,54,0,35
3,42,0,5
3,42,110,140
3,49,102,0
3,54,89,0
3,54,0,1835
3,49,0,10
3,42,0,5
3,49,105,70
3,42,108,0
3,54,102,15
3,54,0,1685
3,49,0,0
3,42,0,20
3,49,113,195
3,42,113,0
3,54,98,5
3,42,0,1685
3,49,0,15
3,54,0,20
3,47,111,205
3,54,93,5
3,47,0,225
3,54,0,10
3,54,87,5
3,47,101,0
3,54,0,215
3,47,0,5
3,47,111,20
3,56,111,5
3,56,0,225
3,47,0,0
3,47,106,240
3,54,104,10
3,54,0,200
3,47,0,25
3,56,99,15
3,56,0,220
3,47,83,20
3,47,0,220
3,47,107,10
3,54,113,5
3,54,0,480
3,47,0,0
3,54,90,5
3,47,95,0
3,54,0,225
3,47,0,10
3,47,102,5
3,56,101,0
3,56,0,195
3,47,0,20
3,47,100,20
3,54,64,5
3,47,0,230
3,54,0,5
3,47,97,0
3,54,84,5
3,54,0,210
3,47,0,5
3,47,115,15
3,56,111,5
3,56,0,250
3,47,0,30
3,49,45,195
3,42,113,10
3,42,0,220
3,42,107,10
3,49,0,5
3,42,0,145
3,42,96,70
3,42,0,20
3,42,107,5
3,49,91,5
3,49,0,205
3,42,0,30
3,42,114,5
3,51,104,0
3,56,31,5
3,56,0,175
3,51,0,5
3,42,0,40
3,42,98,10
3,49,66,5
3,42,0,145
3,42,90,65
3,49,0,15
3,42,0,10
3,49,82,5
3,42,101,0
3,49,0,180
3,42,0,45
3,42,119,10
3,51,110,5
3,51,0,200
3,42,0,35
3,49,26,15
3,49,0,170
3,49,76,50
3,42,114,0
3,42,0,470
3,49,0,10
3,42,111,0
3,49,91,5
3,49,0,185
3,42,0,45
3,42,109,5
3,51,95,5
3,51,0,190
3,42,0,40
3,42,88,5
3,49,86,5
3,49,0,240
3,42,0,0
3,49,76,5
3,42,75,0
3,49,0,220
3,42,0,5
3,42,76,5
3,49,73,5
3,49,0,220
3,42,0,20
3,42,111,5
3,51,101,0
3,51,0,235
3,42,0,40
3,49,104,200
3,56,97,5
3,49,0,225
3,56,0,5
3,49,94,10
3,56,88,0
3,56,0,190
3,49,0,20
3,49,105,20
3,58,104,10
3,58,0,195
3,49,0,25
3,49,104,10
3,56,78,10
3,49,0,225
3,56,0,10
3,49,101,5
3,56,73,0
3,56,0,195
3,49,0,25
3,49,111,10
3,58,109,10
3,58,0,225
3,49,0,5
3,47,110,240
3,54,102,10
3,54,0,255
3,47,0,210
3,47,93,5
3,54,91,10
3,54,0,205
3,47,0,20
3,47,106,5
3,56,106,10
3,56,0,215
3,47,0,10
3,47,95,5
3,54,91,10
3,47,0,215
3,54,0,15
3,54,84,10
3,47,95,0
3,47,0,200
3,54,0,10
3,47,111,20
3,56,108,5
3,56,0,235
3,47,0,5
3,49,111,240
3,56,109,5
3,56,0,460
3,49,0,5
3,49,93,10
3,56,77,5
3,56,0,200
3,49,0,20
3,49,109,15
3,58,98,5
3,58,0,195
3,49,0,30
3,49,91,15
3,49,0,210
3,49,90,25
3,49,0,210
3,49,101,25
3,58,59,10
3,58,0,185
3,49,0,35
3,49,109,15
3,56,97,5
3,56,0,190
3,49,0,10
3,40,70,30
3,40,0,180
3,42,113,60
3,49,96,5
3,49,0,230
3,42,0,55
3,49,69,190
3,53,64,0
3,53,0,230
3,49,0,0
3,49,95,10
3,59,93,0
3,53,94,0
3,61,36,10
3,61,0,470
3,59,0,0
3,53,0,5
3,61,114,0
3,59,114,5
3,53,98,0
3,53,0,230
3,49,0,0
3,59,0,5
3,61,0,0
3,49,72,0
3,59,116,5
3,53,100,0
3,61,115,0
3,61,0,260
3,53,0,15
3,49,0,0
3,59,0,20
3,54,84,185
3,42,110,0
3,49,104,0
3,49,0,1885
3,42,0,10
3,54,0,5
3,49,57,10
3,42,122,5
3,54,86,5
3,54,0,1845
3,42,0,55
3,49,0,0
3,42,118,10
3,49,109,0
3,54,90,5
3,54,0,1690
3,49,0,210
3,42,0,15
3,49,79,0
3,42,117,5
3,54,83,5
3,42,0,1555
3,54,0,90
3,49,0,10
3,54,95,265
3,47,100,0
3,47,0,145
3,54,0,95
3,47,100,0
3,54,77,5
3,47,0,220
3,54,0,5
3,47,97,10
3,56,85,0
3,47,0,215
3,47,100,20
3,54,48,5
3,56,0,5
3,47,0,220
3,54,0,5
3,54,83,10
3,47,93,0
3,54,0,210
3,47,0,5
3,47,106,25
3,56,96,0
3,56,0,225
3,47,0,15
3,47,113,230
3,54,105,5
3,47,0,465
3,47,109,10
3,54,0,5
3,54,95,5
3,54,0,200
3,47,0,25
3,56,109,15
3,47,118,0
3,56,0,215
3,47,0,15
3,47,107,5
3,54,90,5
3,54,0,235
3,47,0,0
3,54,77,5
3,54,0,230
3,54,65,10
3,47,102,0
3,54,0,220
3,47,0,10
3,47,107,10
3,56,105,0
3,56,0,205
3,47,0,35
3,42,91,235
3,49,59,5
3,42,0,155
3,49,0,65
3,42,111,15
3,49,70,0
3,49,0,220
3,42,0,10
3,42,105,10
3,51,91,5
3,51,0,190
3,42,0,45
3,42,104,5
3,49,93,0
3,49,0,235
3,42,0,0
3,49,86,5
3,42,109,0
3,49,0,185
3,42,0,40
3,42,107,15
3,51,82,0
3,51,0,190
3,42,0,40
3,42,89,10
3,42,0,60
3,49,86,170
3,42,106,0
3,42,0,480
3,49,0,5
3,42,95,0
3,49,84,5
3,49,0,205
3,42,0,30
3,51,86,5
3,42,109,0
3,51,0,205
3,42,0,20
3,42,109,10
3,49,78,5
3,49,0,235
3,42,0,0
3,42,87,5
3,49,83,0
3,42,0,230
3,49,0,5
3,42,95,0
3,42,0,235
3,42,109,5
3,51,104,5
3,51,0,190
3,42,0,40
3,49,104,250
3,56,77,0
3,49,0,225
3,56,0,10
3,49,85,5
3,56,71,0
3,56,0,210
3,49,0,5
3,49,111,20
3,58,104,5
3,58,0,200
3,49,0,10
3,49,103,20
3,56,79,10
3,49,0,220
3,56,0,15
3,49,106,0
3,56,86,5
3,56,0,180
3,49,0,35
3,49,115,20
3,58,97,5
3,58,0,215
3,49,0,10
3,54,101,255
3,47,110,0
3,47,0,455
3,47,91,20
3,54,0,220
3,47,0,15
3,47,106,10
3,56,108,0
3,56,0,215
3,47,0,10
3,54,91,15
3,54,0,235
3,47,91,0
3,47,0,215
3,47,86,20
3,47,0,230
3,47,101,10
3,56,108,5
3,56,0,205
3,47,0,35
3,49,102,235
3,56,97,10
3,49,0,220
3,49,97,15
3,56,0,5
3,49,0,220
3,49,104,10
3,58,91,10
3,58,0,170
3,49,0,45
3,49,81,15
3,56,61,10
3,49,0,205
3,56,0,20
3,49,95,5
3,56,66,10
3,56,0,205
3,49,0,10
3,49,105,20
3,58,91,5
3,58,0,200
3,49,0,25
3,49,97,15
3,49,0,60
3,42,91,170
3,49,66,10
3,42,0,470
3,42,92,5
3,49,0,220
3,42,0,15
3,42,110,5
3,51,96,5
3,51,0,215
3,42,0,20
3,42,84,5
3,42,0,230
3,49,80,10
3,42,93,0
3,42,0,230
3,49,0,0
3,42,93,10
3,42,0,230
3,54,84,480
3,47,93,0
3,47,0,235
3,54,0,15
3,47,75,0
3,47,0,235
3,56,91,5
3,47,90,0
3,47,0,225
3,56,0,0
3,54,53,15
3,47,89,0
3,47,0,215
3,47,87,20
3,47,0,220
3,54,0,5
3,54,83,20
3,54,0,205
3,47,100,25
3,56,107,10
3,47,0,205
3,56,0,20
3,54,97,5
3,47,95,0
3,47,0,210
3,54,0,20
3,47,90,10
3,54,78,0
3,47,0,220
3,54,0,20
3,47,91,0
3,54,90,10
3,54,0,220
3,47,0,5
3,47,107,5
3,56,105,10
3,47,0,205
3,56,0,5
3,47,84,20
3,54,88,0
3,47,0,225
3,47,83,15
3,47,0,225
3,47,93,15
3,47,0,235
3,54,0,0
3,47,106,5
3,56,104,5
3,47,0,210
3,56,0,25
3,47,91,0
3,54,53,5
3,54,0,85
3,47,0,10
3,42,93,140
3,49,78,10
3,49,0,225
3,42,0,0
3,42,93,5
3,49,80,10
3,49,0,205
3,42,0,25
3,51,102,10
3,42,107,5
3,51,0,185
3,42,0,10
3,42,111,35
3,49,97,5
3,49,0,220
3,42,0,5
3,42,86,5
3,42,0,235
3,42,92,5
3,49,70,10
3,49,0,205
3,42,0,20
3,42,106,5
3,51,90,10
3,51,0,190
3,42,0,35
3,42,99,5
3,49,71,0
3,49,0,235
3,42,0,0
3,42,71,5
3,49,53,0
3,49,0,235
3,42,0,5
3,42,91,5
3,49,61,5
3,49,0,215
3,42,0,10
3,42,106,5
3,51,89,10
3,51,0,190
3,42,0,25
3,42,103,15
3,49,87,5
3,49,0,235
3,49,81,5
3,42,0,230
3,49,0,5
3,42,100,0
3,42,0,235
3,42,114,5
3,51,56,0
3,51,0,225
3,42,0,5
3,42,86,10
3,49,76,10
3,49,0,85
3,42,0,0
3,54,53,150
3,47,110,0
3,47,0,235
3,54,0,5
3,47,73,0
3,54,94,5
3,54,0,195
3,47,0,30
3,47,104,10
3,56,86,5
3,56,0,175
3,47,0,30
3,54,97,25
3,47,99,0
3,47,0,225
3,54,0,5
3,47,107,10
3,54,79,0
3,47,0,220
3,54,0,15
3,54,72,5
3,47,101,0
3,54,0,200
3,47,0,25
3,56,70,15
3,47,109,0
3,47,0,225
3,56,0,10
3,47,107,0
3,54,91,5
3,47,0,220
3,54,0,15
3,47,107,0
3,54,83,5
3,47,0,235
3,47,96,5
3,54,0,5
3,54,71,5
3,54,0,205
3,47,0,5
3,47,113,20
3,56,101,5
3,56,0,200
3,47,0,25
3,54,88,10
3,47,102,0
3,47,0,235
3,54,0,5
3,47,90,0
3,54,82,5
3,47,0,220
3,47,101,20
3,54,0,195
3,47,0,20
3,47,113,20
3,56,104,5
3,56,0,205
3,47,0,25
3,47,111,5
3,54,80,10
3,47,0,55
3,54,0,10
3,49,111,170
3,56,85,5
3,49,0,225
3,56,0,5
3,49,107,10
3,56,80,0
3,56,0,210
3,49,0,0
3,49,114,30
3,58,104,0
3,58,0,175
3,49,0,30
3,49,104,25
3,56,84,0
3,49,0,225
3,49,94,15
3,49,0,225
3,56,0,5
3,49,104,10
3,56,77,5
3,56,0,185
3,49,0,45
3,49,109,5
3,58,92,0
3,58,0,195
3,49,0,25
3,49,107,15
3,56,91,5
3,56,0,235
3,49,0,0
3,56,70,5
3,49,97,0
3,49,0,225
3,56,0,10
3,56,86,5
3,49,95,5
3,56,0,210
3,49,0,5
3,49,112,20
3,58,106,10
3,58,0,195
3,49,0,10
3,49,109,25
3,56,91,0
3,49,0,225
3,56,0,10
3,56,56,5
3,49,86,5
3,49,0,205
3,56,0,25
3,49,104,5
3,56,90,0
3,56,0,210
3,49,0,10
3,49,113,20
3,58,93,10
3,58,0,160
3,49,0,60
