track,note,velocity,time
1,0,1,513
1,0,0,0
9,74,112,4791
9,75,112,60
9,74,0,1
9,75,0,59
9,70,112,0
9,70,0,29
9,72,112,1
9,70,112,30
9,72,0,1
9,70,0,49
9,67,112,70
9,67,0,30
9,63,112,0
9,63,0,30
9,65,112,0
9,67,100,60
9,65,0,3
9,67,0,31
9,67,112,116
9,67,0,29
9,68,112,1
9,70,112,60
9,68,0,6
9,72,112,24
9,70,0,3
9,74,112,87
9,72,0,6
9,70,112,54
9,74,0,2
9,70,0,65
9,74,112,1013
9,75,112,60
9,74,0,2
9,70,112,28
9,75,0,2
9,70,0,50
9,72,112,158
9,75,112,30
9,72,0,3
9,79,112,27
9,75,0,2
9,77,112,58
9,79,0,5
9,77,0,37
9,77,112,138
9,75,112,30
9,77,0,4
9,75,0,28
9,75,112,28
9,75,0,30
9,77,112,0
9,75,112,30
9,77,0,3
9,75,0,27
9,74,112,0
9,72,112,30
9,74,0,2
9,70,112,28
9,72,0,2
9,70,0,55
9,70,112,393
9,70,0,30
9,77,112,0
9,77,0,60
9,75,112,0
9,75,0,30
9,75,112,30
9,75,0,44
9,70,112,46
9,70,0,30
9,80,112,0
9,80,0,30
9,79,112,0
9,79,0,29
9,75,112,1
9,75,0,52
9,75,112,98
9,75,0,30
9,77,112,0
9,75,112,30
9,77,0,6
9,75,0,23
9,72,112,1
9,72,0,50
9,75,112,340
9,77,112,30
9,75,0,5
9,77,0,55
9,75,112,0
9,75,0,19
9,75,112,11
9,75,0,30
9,79,112,90
9,77,112,30
9,79,0,2
9,77,0,57
9,75,112,1
9,74,112,60
9,75,0,2
9,72,112,58
9,74,0,2
9,70,112,58
9,72,0,2
9,72,112,28
9,70,0,1
9,72,0,29
9,70,112,0
9,70,0,67
9,74,112,473
9,75,112,60
9,74,0,1
9,70,112,59
9,75,0,2
9,70,0,27
9,72,112,1
9,70,112,30
9,72,0,1
9,70,0,49
9,67,112,70
9,67,0,30
9,63,112,0
9,65,112,30
9,63,0,2
9,65,0,58
9,67,112,0
9,67,0,34
9,67,112,116
9,67,0,30
9,68,112,0
9,70,112,60
9,68,0,7
9,72,112,23
9,70,0,2
9,74,112,88
9,72,0,5
9,70,112,55
9,74,0,2
9,70,0,50
9,74,112,1028
9,75,112,60
9,74,0,4
9,70,112,26
9,75,0,2
9,70,0,42
9,72,112,166
9,75,112,30
9,72,0,3
9,79,112,27
9,75,0,2
9,77,112,58
9,79,0,2
9,77,0,40
9,77,112,138
9,75,112,30
9,77,0,4
9,75,0,28
9,75,112,28
9,77,112,30
9,75,0,5
9,75,112,25
9,77,0,3
9,74,112,27
9,75,0,5
9,74,0,25
9,72,112,0
9,70,112,30
9,72,0,2
9,70,0,52
9,70,112,396
9,70,0,30
9,77,112,0
9,75,112,60
9,77,0,7
9,75,0,23
9,75,112,30
9,75,0,47
9,70,112,43
9,70,0,30
9,80,95,0
9,80,0,30
9,79,92,0
9,75,112,30
9,79,0,2
9,75,0,50
9,75,112,98
9,75,0,30
9,77,112,0
9,75,112,30
9,77,0,6
9,72,112,24
9,75,0,7
9,72,0,48
9,75,112,335
9,75,0,30
9,77,112,0
9,75,112,60
9,77,0,5
9,75,0,12
9,75,112,13
9,75,0,40
9,79,94,80
9,77,99,30
9,79,0,5
9,75,112,55
9,77,0,5
9,74,112,55
9,75,0,2
9,72,112,58
9,74,0,5
9,72,0,55
9,70,112,0
9,72,112,30
9,70,0,1
9,72,0,29
9,70,112,0
9,70,0,60
9,70,112,180
9,70,0,29
9,70,112,31
9,70,0,33
9,70,112,27
9,70,0,28
9,79,112,32
9,79,0,57
9,75,112,63
9,72,112,60
9,75,0,2
9,70,112,28
9,72,0,2
9,70,0,35
9,70,112,113
9,72,112,30
9,70,0,5
9,72,0,23
9,70,112,2
9,72,112,30
9,70,0,2
9,72,0,29
9,79,112,59
9,79,0,60
9,75,112,0
9,75,0,60
9,72,112,0
9,72,0,28
9,70,112,2
9,70,0,40
9,72,112,230
9,75,112,60
9,72,0,1
9,75,0,23
9,75,112,6
9,75,0,65
9,72,112,55
9,70,112,30
9,72,0,7
9,70,0,50
9,75,112,3
9,75,0,21
9,75,112,9
9,75,0,59
9,72,112,91
9,75,112,60
9,72,0,1
9,75,0,18
9,75,112,11
9,75,0,70
9,77,112,20
9,77,0,42
9,79,112,18
9,79,0,54
9,77,112,6
9,77,0,20
9,77,112,10
9,77,0,76
9,70,112,14
9,70,0,18
9,70,112,12
9,70,0,18
9,79,112,12
9,79,0,69
9,75,112,51
9,75,0,57
9,72,112,3
9,70,112,30
9,72,0,2
9,70,0,35
9,70,112,113
9,72,112,30
9,70,0,5
9,72,0,23
9,70,112,2
9,72,112,30
9,70,0,2
9,72,0,29
9,79,112,59
9,75,112,60
9,79,0,2
9,75,0,55
9,72,112,3
9,72,0,28
9,70,112,2
9,70,0,42
9,72,112,228
9,75,112,60
9,72,0,1
9,75,0,23
9,75,112,6
9,75,0,65
9,72,112,55
9,70,112,30
9,72,0,7
9,70,0,50
9,75,112,3
9,75,0,21
9,75,112,9
9,75,0,59
9,72,112,91
9,75,112,60
9,72,0,4
9,75,0,15
9,75,112,11
9,75,0,90
9,77,112,0
9,79,112,60
9,77,0,2
9,77,112,58
9,79,0,4
9,77,0,16
9,77,112,10
9,77,0,67
9,74,112,443
9,74,0,60
9,75,112,0
9,75,0,26
9,70,112,4
9,70,0,45
9,65,112,165
9,65,0,16
9,65,112,14
9,67,112,30
9,65,0,5
9,65,112,55
9,67,0,1
9,65,0,26
9,67,112,93
9,68,112,60
9,67,0,2
9,70,112,58
9,68,0,1
9,70,0,58
9,72,112,1
9,72,0,59
9,74,112,1
9,74,0,26
9,70,112,4
9,70,0,47
9,79,95,403
9,79,0,28
9,82,96,2
9,84,81,30
9,82,0,2
9,84,0,28
9,82,96,0
9,82,0,37
9,79,101,53
9,77,100,30
9,79,0,2
9,75,99,58
9,77,0,2
9,75,0,28
9,77,98,0
9,75,98,30
9,77,0,2
9,74,98,28
9,75,0,2
9,74,0,35
9,75,112,203
9,75,0,37
9,74,112,23
9,75,112,60
9,74,0,2
9,75,0,27
9,70,112,1
9,70,0,54
9,72,112,216
9,75,112,30
9,72,0,6
9,79,112,24
9,75,0,5
9,77,112,55
9,79,0,2
9,75,112,28
9,77,0,2
9,75,0,18
9,79,112,130
9,79,0,29
9,82,112,1
9,84,98,30
9,82,0,2
9,84,0,28
9,82,99,0
9,79,100,30
9,82,0,2
9,77,112,58
9,79,0,2
9,75,112,58
9,77,0,2
9,75,0,22
9,75,112,6
9,75,0,60
9,70,112,270
9,70,0,34
9,77,112,26
9,75,112,60
9,77,0,2
9,75,0,21
9,75,112,7
9,75,0,51
9,70,112,69
9,77,112,30
9,70,0,2
9,75,112,58
9,77,0,2
9,75,0,17
9,75,112,11
9,75,0,49
9,70,112,41
9,70,0,40
9,79,112,20
9,82,112,60
9,79,0,4
9,82,0,30
9,82,112,26
9,82,0,60
9,84,112,0
9,84,0,30
9,74,112,0
9,74,0,71
9,75,112,379
9,75,0,30
9,79,112,0
9,77,112,30
9,79,0,5
9,75,112,55
9,77,0,5
9,75,0,55
9,74,112,0
9,72,112,60
9,74,0,2
9,72,0,58
9,70,112,0
9,70,0,29
9,72,112,1
9,72,0,26
9,70,112,4
9,70,0,60
9,74,112,480
9,75,112,60
9,74,0,2
9,70,112,28
9,75,0,2
9,70,0,44
9,67,112,104
9,67,0,60
9,63,112,0
9,63,0,29
9,65,112,1
9,67,112,85
9,65,0,2
9,67,0,31
9,67,112,92
9,68,112,30
9,67,0,5
9,68,0,27
9,72,112,58
9,72,0,60
9,74,112,0
9,75,112,60
9,74,0,2
9,70,112,58
9,75,0,5
9,70,0,49
9,74,112,1026
9,74,0,60
9,75,112,0
9,75,0,30
9,70,112,0
9,70,0,52
9,72,112,158
9,75,112,30
9,72,0,3
9,79,112,27
9,75,0,1
9,79,0,29
9,77,112,0
9,77,0,39
9,77,112,171
9,75,112,30
9,77,0,2
9,74,112,28
9,75,0,5
9,74,0,24
9,75,112,31
9,75,0,60
9,74,112,0
9,74,0,26
9,72,112,34
9,70,112,60
9,72,0,2
9,70,0,26
9,70,112,32
9,70,0,61
9,70,112,269
9,77,112,30
9,70,0,3
9,75,112,57
9,77,0,2
9,75,0,22
9,75,112,6
9,75,0,46
9,70,112,74
9,77,112,30
9,70,0,5
9,75,112,55
9,77,0,2
9,75,0,23
9,75,112,5
9,75,0,59
9,79,98,91
9,79,0,55
9,82,98,5
9,82,0,24
9,82,97,6
9,84,84,90
9,82,0,5
9,84,0,30
9,79,112,85
9,77,112,60
9,79,0,2
9,75,112,58
9,77,0,2
9,74,112,58
9,75,0,2
9,74,0,58
9,75,112,120
9,74,112,60
9,75,0,2
9,72,112,28
9,74,0,1
9,70,112,29
9,72,0,2
9,70,0,58
9,72,112,0
9,72,0,60
9,74,112,0
9,74,0,60
9,70,112,0
9,70,0,62
9,70,112,298
9,70,0,27
9,70,112,33
9,70,0,27
9,79,112,33
9,79,0,57
9,75,112,63
9,75,0,60
9,72,112,0
9,70,112,30
9,72,0,7
9,70,0,33
9,70,112,110
9,72,112,30
9,70,0,4
9,72,0,26
9,70,112,0
9,70,0,30
9,72,112,0
9,72,0,32
9,79,112,58
9,75,112,60
9,79,0,5
9,75,0,55
9,72,112,0
9,70,112,30
9,72,0,2
9,70,0,43
9,72,112,225
9,72,0,60
9,75,112,0
9,75,0,24
9,75,112,6
9,75,0,90
9,72,112,0
9,70,112,60
9,72,0,5
9,75,112,55
9,70,0,5
9,75,0,15
9,75,112,10
9,75,0,62
9,72,112,88
9,75,112,60
9,72,0,7
9,75,0,10
9,75,112,13
9,77,112,90
9,75,0,7
9,79,112,53
9,77,0,2
9,79,0,55
9,82,112,3
9,82,0,27
9,77,112,3
9,77,0,70
9,79,112,140
9,75,112,60
9,79,0,2
9,72,112,58
9,75,0,10
9,70,112,20
9,72,0,2
9,70,0,40
9,70,112,108
9,70,0,30
9,72,112,0
9,70,112,30
9,72,0,2
9,72,112,28
9,70,0,4
9,72,0,25
9,79,112,61
9,79,0,30
9,75,112,30
9,72,112,60
9,75,0,2
9,70,112,28
9,72,0,5
9,70,0,34
9,72,112,291
9,75,112,30
9,72,0,3
9,75,0,19
9,75,112,8
9,75,0,60
9,72,112,0
9,72,0,40
9,70,112,80
9,75,112,30
9,70,0,9
9,75,0,11
9,75,112,10
9,72,112,60
9,75,0,2
9,72,0,43
9,72,112,75
9,75,112,30
9,72,0,5
9,75,0,14
9,75,112,11
9,75,0,60
9,77,112,0
9,77,0,25
9,79,97,35
9,82,98,30
9,79,0,3
9,82,0,18
9,84,105,39
9,84,0,30
9,82,103,0
9,82,0,30
9,79,102,0
9,77,100,30
9,79,0,2
9,77,0,31
9,70,112,1857
9,70,0,19
9,70,112,11
9,70,0,17
9,70,112,13
9,70,0,23
9,79,112,7
9,79,0,47
9,75,112,73
9,72,112,60
9,75,0,5
9,70,112,25
9,72,0,2
9,70,0,33
9,70,112,115
9,72,112,30
9,70,0,5
9,72,0,23
9,70,112,2
9,72,112,30
9,70,0,5
9,72,0,23
9,79,112,62
9,75,112,60
9,79,0,7
9,72,112,53
9,75,0,2
9,72,0,28
9,70,112,0
9,70,0,37
9,72,112,233
9,75,112,60
9,72,0,2
9,75,0,21
9,75,112,7
9,75,0,50
9,72,112,40
9,70,112,60
9,72,0,7
9,70,0,53
9,75,112,0
9,75,0,22
9,75,112,8
9,75,0,55
9,72,112,95
9,75,111,60
9,72,0,5
9,75,0,16
9,75,110,9
9,75,0,64
9,77,108,26
9,77,0,60
9,79,99,0
9,77,106,60
9,79,0,2
9,77,0,20
9,77,106,8
9,77,0,67
9,70,104,23
9,79,90,60
9,70,0,2
9,82,90,28
9,79,0,7
9,82,0,17
9,79,100,66
9,79,0,26
9,75,100,34
9,75,0,22
9,72,98,38
9,70,97,30
9,72,0,5
9,70,0,25
9,70,95,60
9,70,0,28
9,72,95,2
9,72,0,29
9,70,95,1
9,70,0,35
9,79,89,85
9,79,0,23
9,75,88,37
9,72,86,60
9,75,0,2
9,72,0,16
9,72,85,42
9,70,84,30
9,72,0,2
9,70,0,34
9,72,79,174
9,75,77,60
9,72,0,2
9,75,0,18
9,75,76,10
9,75,0,52
9,72,74,38
9,72,0,60
9,70,72,0
9,70,0,60
9,75,71,0
9,75,0,23
9,75,70,7
9,75,0,67
9,72,64,83
9,75,62,60
9,72,0,2
9,75,0,19
9,75,60,9
9,75,0,65
9,77,54,25
9,77,0,60
9,79,52,0
9,77,48,60
9,79,0,5
9,77,0,12
9,77,48,13
9,77,0,53
9,77,43,37
9,77,0,31
9,79,37,89
9,75,35,60
9,79,0,2
9,75,0,58
9,72,32,0
9,70,31,30
9,72,0,2
9,70,0,31
9,70,25,117
9,70,0,30
9,72,25,0
9,70,24,30
9,72,0,2
9,70,0,25
9,72,22,3
9,72,0,30
9,79,19,60
9,79,0,23
9,75,15,37
9,75,0,20
9,72,14,40
9,70,13,30
9,72,0,3
9,70,0,34
9,72,6,233
9,75,5,60
9,72,0,2
9,75,0,15
9,75,4,13
9,75,0,90
9,72,3,0
9,72,0,20
9,70,2,40
9,75,1,60
9,70,0,5
9,75,0,16
9,75,1,9
9,75,0,55
10,76,103,547
10,76,0,60
10,79,101,0
10,79,0,57
10,84,101,3
10,84,0,59
10,79,99,1
10,76,99,60
10,79,0,1
10,76,0,181
10,74,100,58
10,77,99,60
10,74,0,2
10,77,0,52
10,82,99,6
10,82,0,59
10,77,99,1
10,77,0,49
10,74,98,11
10,74,0,145
10,72,97,95
10,72,0,58
10,75,97,2
10,80,97,60
10,75,0,2
10,80,0,114
10,73,97,4
10,73,0,118
10,77,96,2
10,77,0,85
10,70,96,35
10,70,0,116
10,72,96,4
10,72,0,112
10,75,96,8
10,75,0,178
10,76,96,62
10,76,0,60
10,79,97,0
10,79,0,57
10,84,97,3
10,84,0,59
10,79,97,1
10,76,96,60
10,79,0,1
10,76,0,181
10,74,96,58
10,77,96,60
10,74,0,2
10,77,0,52
10,82,96,6
10,82,0,59
10,77,96,1
10,77,0,49
10,74,97,11
10,74,0,145
10,72,97,95
10,72,0,58
10,75,98,2
10,80,98,60
10,75,0,2
10,80,0,114
10,73,97,4
10,73,0,118
10,77,97,2
10,77,0,85
10,70,95,35
10,70,0,116
10,72,95,4
10,72,0,112
10,75,96,8
10,75,0,178
10,75,96,62
10,75,0,479
10,75,97,4381
10,75,0,56
10,72,97,4
10,72,0,54
10,67,97,6
10,67,0,88
10,72,97,32
10,72,0,57
10,69,97,3
10,69,0,59
10,65,97,1
10,68,97,60
10,65,0,2
10,72,97,58
10,68,0,57
10,74,97,3
10,72,0,7
10,75,97,53
10,74,0,4
10,75,0,54
10,77,97,2
10,77,0,115
10,75,105,4505
10,75,0,56
10,72,105,4
10,72,0,54
10,67,105,6
10,67,0,88
10,72,105,32
10,72,0,57
10,69,105,3
10,69,0,59
10,65,105,1
10,68,105,60
10,65,0,2
10,68,0,58
10,72,105,0
10,74,105,60
10,72,0,7
10,75,105,53
10,74,0,4
10,75,0,54
10,77,105,2
10,77,0,115
10,72,100,1565
10,72,0,119
10,75,100,1
10,75,0,119
10,79,100,1
10,79,0,119
10,77,100,1
10,77,0,119
10,72,101,1441
10,72,0,119
10,75,101,1
10,75,0,119
10,79,101,1
10,79,0,119
10,77,101,1
10,77,0,119
10,75,101,4621
10,75,0,56
10,72,101,4
10,72,0,54
10,67,101,6
10,67,0,88
10,72,101,32
10,72,0,57
10,69,101,3
10,69,0,59
10,65,101,1
10,68,102,60
10,65,0,2
10,72,103,58
10,68,0,57
10,74,103,3
10,72,0,7
10,75,102,53
10,74,0,4
10,75,0,54
10,77,102,2
10,77,0,115
10,75,99,4505
10,75,0,56
10,72,99,4
10,72,0,54
10,67,100,6
10,67,0,88
10,72,100,32
10,72,0,57
10,69,100,3
10,69,0,59
10,65,100,1
10,68,100,60
