track,note,velocity,time
1,68,127,6136
1,64,127,78
1,66,127,42
1,68,127,2
1,68,127,1246
1,68,127,94
1,68,127,114
1,66,127,6
1,64,127,6
1,66,127,90
1,68,127,6
1,68,127,1274
1,68,127,58
1,68,127,102
1,66,127,70
1,64,127,70
1,66,127,106
1,68,127,14
1,64,127,266
1,66,127,106
1,68,127,580
1,66,127,86
1,64,127,6
1,64,127,598
1,66,127,138
1,68,127,94
1,68,127,1542
1,64,127,82
1,66,127,18
1,68,127,50
1,68,127,1070
1,68,127,58
1,68,127,94
1,66,127,30
1,64,127,58
1,66,127,90
1,68,127,58
1,64,127,190
1,66,127,98
1,68,127,2
1,66,127,18
1,64,127,30
1,64,127,554
1,66,127,130
1,68,127,576
1,66,127,78
1,64,127,94
1,66,127,1850
1,63,127,6
1,66,127,22
1,66,127,202
1,63,127,38
1,66,127,94
1,63,127,138
1,66,127,254
1,63,127,94
1,59,127,158
1,66,127,918
1,63,127,14
1,66,127,106
1,63,127,58
1,66,127,126
1,63,127,18
1,66,127,126
1,63,127,214
1,66,127,322
1,63,127,158
1,59,127,182
1,68,127,370
1,64,127,210
1,66,127,196
1,68,127,6
1,68,127,1094
1,68,127,62
1,68,127,102
1,66,127,26
1,64,127,6
1,66,127,62
1,68,127,58
1,64,127,254
1,66,127,82
1,68,127,6
1,66,127,92
1,64,127,6
1,64,127,266
1,66,127,98
1,68,127,10
1,66,127,6
1,64,121,26
1,66,127,19810
1,63,127,180
1,66,127,30
1,66,127,222
1,63,127,18
1,66,127,54
1,63,127,30
1,66,127,350
1,63,127,70
1,59,127,86
1,66,127,710
1,63,127,18
1,66,127,70
1,66,125,74
1,66,127,118
1,63,127,26
1,66,127,54
1,63,127,70
1,66,127,262
1,63,127,74
1,59,127,214
1,71,127,114
1,68,127,470
1,64,127,218
1,66,127,212
1,68,127,18
1,68,127,1226
1,68,127,50
1,68,127,102
1,66,127,38
1,64,127,50
1,66,127,82
1,68,127,6
1,68,127,1162
1,68,127,82
1,68,127,66
1,68,127,98
1,66,127,18
1,64,127,192
1,66,127,70
1,68,127,70
1,64,127,362
1,66,127,102
1,68,127,6
1,66,127,96
1,64,127,6
1,64,127,166
1,66,127,106
1,68,127,18
1,66,127,6
1,64,127,10
1,64,127,178
1,66,127,106
1,68,127,2
1,66,127,108
1,64,127,14
1,64,127,190
1,66,127,126
1,68,124,584
1,66,127,74
1,64,127,6
2,40,127,6132
2,40,127,68
2,40,127,100
2,40,127,76
2,40,127,76
2,40,127,72
2,40,127,100
2,35,127,84
2,40,127,48
2,40,127,64
2,40,127,84
2,40,127,88
2,40,127,96
2,40,127,84
2,40,127,88
2,35,127,84
2,40,127,68
2,40,127,92
2,40,127,100
2,40,127,96
2,40,127,112
2,40,127,108
2,40,127,100
2,35,127,84
2,40,127,36
2,40,127,76
2,40,127,96
2,40,127,88
2,40,127,100
2,40,127,92
2,40,127,100
2,35,127,72
2,40,127,28
2,40,127,84
2,40,127,112
2,40,127,96
2,40,127,108
2,40,127,104
2,40,127,100
2,35,127,92
2,40,127,28
2,40,127,88
2,40,127,112
2,40,127,108
2,40,127,112
2,40,127,108
2,40,127,108
2,28,127,88
2,33,127,196
2,33,127,92
2,33,127,100
2,33,127,92
2,33,127,100
2,33,127,96
2,33,127,104
2,28,127,76
2,33,127,12
2,33,127,100
2,33,127,100
2,33,127,88
2,33,127,100
2,33,127,100
2,33,127,100
2,35,127,60
2,40,127,28
2,40,127,80
2,40,127,92
2,40,127,100
2,40,127,100
2,40,127,92
2,40,127,100
2,35,127,92
2,40,127,28
2,40,127,104
2,40,127,88
2,40,127,80
2,40,127,96
2,40,127,64
2,40,127,80
2,35,127,44
2,40,127,64
2,40,127,76
2,40,127,88
2,40,127,88
2,40,127,100
2,40,127,92
2,40,127,96
2,35,127,84
2,40,127,80
2,40,127,84
2,40,127,100
2,40,127,92
2,40,127,112
2,40,127,108
2,40,127,108
2,35,127,88
2,40,127,60
2,40,127,84
2,40,127,96
2,40,127,96
2,40,127,120
2,40,127,104
2,40,127,112
2,35,127,84
2,40,127,24
2,40,127,92
2,40,127,108
2,40,127,112
2,40,127,96
2,40,127,96
2,40,127,112
2,28,127,60
2,33,127,4
2,33,127,80
2,33,127,92
2,33,127,100
2,33,127,100
2,33,127,100
2,33,127,112
2,28,127,100
2,33,127,8
2,33,127,92
2,33,127,104
2,33,127,100
2,33,127,100
2,33,127,96
2,33,127,104
2,35,127,64
2,40,127,28
2,40,127,72
2,40,127,80
2,40,127,92
2,40,127,108
2,40,127,96
2,40,127,112
2,35,127,84
2,40,127,16
2,40,127,96
2,40,127,108
2,40,127,104
2,40,127,108
2,40,127,108
2,40,127,96
2,28,127,104
2,35,127,196
2,35,127,88
2,39,127,64
2,39,127,68
2,40,127,64
2,40,127,88
2,41,127,76
2,41,127,76
2,42,127,68
2,42,127,100
2,46,127,64
2,46,127,76
2,47,127,72
2,47,127,80
2,48,127,64
2,49,127,48
2,47,127,20
2,47,127,96
2,44,127,56
2,44,127,92
2,42,127,84
2,42,127,92
2,39,127,72
2,39,127,88
2,35,127,84
2,35,127,88
2,39,127,12
2,39,127,100
2,42,127,72
2,42,127,92
2,44,127,56
2,42,127,32
2,35,127,40
2,35,127,80
2,39,127,36
2,39,127,100
2,40,127,52
2,40,127,36
2,41,127,60
2,41,127,80
2,42,127,52
2,42,127,112
2,46,127,52
2,46,127,92
2,47,127,64
2,47,127,108
2,48,127,56
2,49,127,16
2,47,127,40
2,47,127,88
2,45,127,36
2,45,127,88
2,44,127,56
2,44,127,92
2,42,127,44
2,42,127,88
2,35,127,64
2,35,127,88
2,33,127,48
2,33,127,68
2,32,127,48
2,32,127,92
2,30,127,104
2,35,127,80
2,40,127,16
2,40,127,40
2,40,127,64
2,40,127,76
2,40,127,88
2,40,127,60
2,40,127,76
2,40,127,84
2,40,127,96
2,40,127,96
2,40,127,108
2,40,127,92
2,40,127,96
2,40,127,92
2,40,127,100
2,35,127,64
2,40,127,196
2,40,127,72
2,40,127,84
2,40,127,108
2,40,127,96
2,40,127,92
2,40,127,100
2,35,127,188
2,40,127,160
2,40,127,84
2,40,127,96
2,40,127,108
2,40,127,108
2,40,127,92
2,40,127,112
2,28,127,60
2,33,127,196
2,33,127,84
2,33,127,96
2,33,127,92
2,33,127,92
2,33,127,96
2,33,127,104
2,28,127,76
2,33,127,196
2,33,127,68
2,33,127,92
2,33,127,88
2,33,127,84
2,33,127,60
2,33,127,76
2,35,127,36
2,40,127,4
2,40,127,72
2,40,127,96
2,40,127,84
2,40,127,100
2,40,127,104
2,40,127,112
2,35,127,96
2,40,127,28
2,40,127,92
2,40,127,88
2,40,127,72
2,40,127,112
2,40,127,104
2,40,127,100
2,35,127,12
2,40,127,36
2,40,127,96
2,40,127,112
2,40,127,84
2,40,127,96
2,40,127,104
2,40,127,100
2,35,127,4
2,40,127,60
2,40,127,84
2,40,127,112
2,40,127,100
2,40,127,108
2,40,127,92
2,40,127,112
2,35,127,84
2,40,127,68
2,40,127,84
2,40,127,100
2,40,127,96
2,40,127,108
2,40,127,104
2,40,127,108
2,35,127,72
2,40,127,68
2,40,127,84
2,40,127,96
2,40,127,96
2,40,127,100
2,40,127,96
2,40,127,104
2,28,127,92
2,33,127,28
2,33,127,84
2,33,127,100
2,33,127,88
2,33,127,100
2,33,127,92
2,33,127,100
2,33,127,96
2,33,127,104
2,33,127,100
2,33,127,104
2,33,127,96
2,33,127,124
2,33,127,92
2,33,127,92
2,35,127,92
2,40,127,32
2,40,127,80
2,40,127,100
2,40,127,84
2,40,127,100
2,40,127,84
2,40,127,96
2,35,127,24
2,40,127,56
2,40,127,80
2,40,127,100
2,40,127,96
2,40,127,100
2,40,127,96
2,40,127,124
2,28,127,96
2,33,127,192
2,33,127,88
2,33,127,104
2,33,127,80
2,33,127,104
2,33,127,84
2,33,127,100
2,33,127,100
2,33,127,104
2,33,127,84
2,33,127,116
2,33,127,96
2,33,127,116
2,33,127,96
2,33,127,100
2,35,127,72
2,40,127,32
2,40,127,92
2,40,127,96
2,40,127,64
2,40,127,104
2,40,127,92
2,40,127,104
2,35,127,16
2,40,127,28
2,40,127,88
2,40,127,104
2,40,127,96
2,40,127,112
2,40,127,84
2,40,127,100
2,28,127,76
2,35,127,192
2,35,127,92
2,39,127,60
2,39,127,116
2,40,127,52
2,40,127,80
2,41,127,80
2,41,127,84
2,42,127,88
2,42,127,116
2,46,127,64
2,46,127,112
2,47,127,64
2,47,127,76
2,48,127,68
2,49,127,16
2,47,127,48
2,47,127,72
2,44,127,64
2,44,127,88
2,42,127,84
2,42,127,116
2,39,127,92
2,39,127,100
2,35,127,52
2,35,127,72
2,39,127,36
2,39,127,76
2,42,127,24
2,42,127,76
2,44,127,40
2,42,127,16
2,35,127,52
2,35,127,92
2,39,127,28
2,39,127,88
2,40,127,76
2,40,127,88
2,41,127,40
2,41,127,92
2,42,127,56
2,42,127,92
2,46,127,40
2,46,127,76
2,47,127,84
2,47,127,88
2,48,127,88
2,49,127,28
2,47,127,8
2,47,127,64
2,45,127,36
2,45,127,64
2,44,127,28
2,44,127,96
2,42,127,52
2,42,127,84
2,35,127,48
2,35,127,60
2,35,127,88
2,35,127,88
2,35,127,100
2,35,127,100
2,35,127,96
2,35,127,96
2,35,127,108
2,35,127,96
2,33,127,96
2,33,127,80
2,32,127,44
2,32,127,92
2,30,127,92
2,35,127,96
2,40,127,40
2,40,127,60
2,40,127,76
2,40,127,64
2,40,127,96
2,40,127,84
2,40,127,100
2,35,127,44
2,40,127,48
2,40,127,76
2,40,127,108
2,40,127,112
2,40,127,100
2,40,127,96
2,40,127,116
2,35,127,88
2,40,127,16
2,40,127,88
2,40,127,100
2,40,127,96
2,40,127,120
2,40,127,100
2,40,127,100
2,35,127,64
2,40,127,56
2,40,127,96
2,40,127,108
2,40,127,100
2,40,127,112
2,40,127,104
2,40,127,104
2,35,127,76
2,40,127,16
2,40,127,76
2,40,127,96
2,40,127,96
2,40,127,112
2,40,127,108
2,40,127,104
2,35,127,76
2,40,127,16
2,40,127,76
2,40,127,108
2,40,127,108
2,40,127,100
2,40,127,112
2,40,127,100
2,28,127,88
2,33,127,8
2,33,127,76
2,33,127,92
2,33,127,92
2,33,127,100
2,33,127,108
2,33,127,112
2,28,127,84
2,33,127,196
2,33,127,96
2,33,127,104
2,33,127,100
2,33,127,96
2,33,127,108
2,33,127,112
2,35,127,188
2,40,127,184
2,40,127,68
2,40,127,100
2,40,127,100
2,40,127,96
2,40,127,116
2,40,127,100
2,35,127,80
2,40,127,28
2,40,127,80
2,40,127,100
2,40,127,108
2,40,127,108
2,40,127,104
2,40,127,108
2,28,127,108
2,33,127,12
2,33,127,100
2,33,127,100
2,33,127,80
2,33,127,104
2,33,127,100
2,33,127,112
2,28,127,88
2,33,127,196
2,33,127,88
2,33,127,100
2,33,127,112
2,33,127,112
2,33,127,80
2,33,127,100
2,35,127,28
2,40,127,192
2,40,127,72
2,40,127,88
2,40,127,96
2,40,127,108
2,40,127,108
2,40,127,104
2,35,127,84
2,40,127,20
2,40,127,92
2,40,127,108
2,40,127,104
2,40,127,108
2,40,127,104
2,35,127,120
2,28,127,188
2,40,127,188
2,40,127,72
2,40,127,76
2,40,127,100
2,40,127,96
2,40,127,92
2,40,127,108
2,35,127,96
2,40,127,20
2,40,127,92
2,40,127,108
2,40,127,108
2,40,127,108
2,40,127,96
2,40,127,96
2,35,127,8
2,40,127,32
2,40,127,72
2,40,127,88
2,40,127,100
2,40,127,96
2,40,127,92
2,40,127,100
2,35,127,56
2,40,127,20
2,40,127,92
2,40,127,84
2,40,127,88
2,40,127,88
2,40,127,84
2,40,127,100
2,35,127,60
2,40,127,32
2,40,127,84
2,40,127,100
2,40,127,96
2,40,127,108
2,40,127,96
2,40,127,112
2,35,127,188
2,40,127,28
2,40,127,84
2,40,127,100
2,40,127,104
2,40,127,108
2,40,127,104
2,40,127,112
2,35,127,76
2,40,127,40
2,40,127,84
2,40,127,88
2,40,127,112
2,40,127,108
2,40,127,96
2,40,127,100
2,35,127,0
2,40,127,20
2,40,127,88
2,40,127,88
2,40,127,88
2,40,127,88
2,37,127,192
2,35,127,40
2,32,127,16
2,28,127,52
3,83,118,1528
3,88,118,0
3,85,127,36
3,88,116,0
3,83,111,64
3,88,114,0
3,85,101,0
3,81,116,8
3,88,111,196
3,83,116,0
3,81,116,4
3,83,109,56
3,78,127,0
3,80,127,16
3,68,127,24
3,66,127,380
3,64,127,116
3,66,127,380
3,68,127,44
3,66,127,12
3,64,127,12
3,66,127,8
3,68,117,24
3,59,111,26540
3,59,104,80
3,63,119,192
3,64,108,84
3,64,89,24
3,65,113,56
3,65,106,80
3,66,122,52
3,66,105,96
3,70,112,24
3,70,104,104
3,71,108,64
3,71,104,84
3,72,109,48
3,73,103,24
3,71,106,192
3,71,103,92
3,68,112,28
3,68,104,84
3,66,112,48
3,66,105,100
3,63,111,60
3,63,105,76
3,59,111,56
3,59,101,76
3,63,117,192
3,63,106,64
3,66,106,44
3,59,113,0
3,66,112,76
3,59,104,0
3,68,115,76
3,59,114,0
3,59,102,20
3,66,119,0
3,59,114,60
3,59,104,100
3,63,117,8
3,63,95,48
3,64,111,24
3,65,111,52
3,66,127,84
3,66,106,76
3,70,115,16
3,70,107,76
3,71,113,76
3,71,107,84
3,72,113,64
3,73,110,64
3,71,118,76
3,69,113,36
3,68,119,384
3,66,119,8
3,59,126,44
3,57,127,8
3,56,127,384
3,54,122,32
3,80,122,12364
3,76,126,0
3,71,113,192
3,76,126,164
3,81,121,0
3,71,103,188
3,80,122,20
3,76,121,0
3,71,100,192
3,76,127,20
3,68,101,4
3,71,127,24
3,64,101,192
3,69,127,160
3,64,97,176
3,68,127,156
3,64,118,368
3,80,115,32
3,76,114,0
3,71,107,192
3,76,116,152
3,81,116,0
3,71,99,180
3,80,117,8
3,76,121,0
3,71,102,192
3,76,127,12
3,68,109,192
3,71,127,16
3,64,92,192
3,69,127,152
3,64,102,188
3,68,122,152
3,64,114,364
3,73,90,308
3,64,85,0
3,69,96,0
3,73,94,288
3,69,95,0
3,64,89,0
3,69,88,276
3,73,92,0
3,64,83,0
3,69,108,276
3,73,102,0
3,64,94,0
3,64,92,156
3,69,108,0
3,73,101,0
3,64,84,304
3,69,93,0
3,73,92,0
3,64,82,304
3,73,92,0
3,69,89,0
3,69,98,296
3,73,94,0
3,64,91,0
3,71,86,296
3,68,88,0
3,64,96,0
3,76,88,0
3,68,88,288
3,71,90,0
3,64,98,0
3,76,90,0
3,76,89,296
3,64,95,0
3,71,90,0
3,68,86,0
3,71,91,312
3,64,97,0
3,68,90,0
3,76,95,0
3,64,92,156
3,71,86,0
3,76,86,0
3,68,87,0
3,71,87,296
3,76,87,0
3,68,81,0
3,64,97,4
3,71,87,304
3,68,84,0
3,76,90,0
3,64,96,0
3,64,96,300
3,71,87,0
3,68,84,0
3,76,91,0
3,73,104,312
3,69,104,0
3,64,97,0
3,73,102,308
3,69,100,0
3,64,97,0
3,73,103,308
3,69,100,0
3,64,95,0
3,64,100,308
3,73,103,0
3,69,101,0
3,69,104,164
3,73,104,0
3,64,97,0
3,69,103,292
3,73,103,0
3,64,102,0
3,73,103,308
3,69,102,0
3,64,97,0
3,73,106,308
3,69,102,0
3,64,97,0
3,71,93,308
3,64,92,0
3,68,92,0
3,76,95,0
3,68,91,316
3,71,96,0
3,64,97,0
3,76,97,0
3,64,97,300
3,71,94,0
3,68,89,0
3,76,98,0
3,64,100,128
3,71,95,0
3,76,96,0
3,76,91,116
3,64,97,0
3,71,87,0
3,68,89,0
3,68,87,288
3,71,88,0
3,64,98,0
3,76,91,0
3,76,96,304
3,71,91,0
3,68,92,0
3,64,99,0
3,64,93,304
3,76,90,0
3,71,91,0
3,68,92,0
3,59,114,132
3,63,113,12
3,64,113,8
3,65,107,24
3,66,119,16
3,70,112,32
3,71,111,68
3,72,106,20
