track,note,velocity,time
1,73,118,0
1,69,118,0
1,71,118,32
1,66,118,0
1,69,118,0
1,64,118,0
1,73,118,0
1,69,118,0
1,73,118,96
1,69,118,0
1,66,118,32
1,69,118,0
1,68,118,0
1,64,118,0
1,68,118,128
1,64,118,0
1,71,118,16
1,68,118,0
1,73,118,0
1,69,118,0
1,73,118,608
1,69,118,0
1,71,118,32
1,66,118,0
1,69,118,0
1,64,118,0
1,73,118,0
1,69,118,0
1,73,118,96
1,69,118,0
1,66,118,32
1,69,118,0
1,68,118,0
1,64,118,0
1,68,118,128
1,64,118,0
1,71,118,16
1,68,118,0
1,73,118,16
1,69,118,0
1,73,118,608
1,69,118,0
1,71,118,16
1,66,118,0
1,69,118,0
1,64,118,0
1,73,118,0
1,69,118,0
1,73,118,96
1,69,118,0
1,66,118,48
1,69,118,0
1,68,118,0
1,64,118,0
1,68,118,144
1,64,118,0
1,71,118,16
1,68,118,0
1,73,118,0
1,69,118,0
1,73,118,608
1,73,118,0
1,69,118,0
1,71,118,16
1,66,118,0
1,69,118,0
1,64,118,0
1,73,118,0
1,69,118,0
1,73,118,96
1,69,118,0
1,66,118,32
1,69,118,0
1,68,118,0
1,64,118,0
1,68,118,144
1,64,118,0
1,71,118,16
1,68,118,0
1,73,118,16
1,69,118,0
1,73,118,608
1,69,118,0
1,71,118,16
1,66,118,0
1,69,118,0
1,64,118,0
1,73,118,0
1,69,118,0
1,73,118,96
1,69,118,0
1,66,118,32
1,69,118,0
1,68,118,0
1,64,118,0
1,68,118,144
1,64,118,0
1,71,118,16
1,68,118,0
1,73,118,0
1,69,118,0
1,73,118,592
1,69,118,0
1,71,118,32
1,66,118,0
1,69,118,0
1,64,118,0
1,73,118,0
1,69,118,0
1,73,118,96
1,69,118,0
1,66,118,32
1,69,118,0
1,68,118,0
1,64,118,0
1,68,118,128
1,64,118,0
1,71,118,16
1,68,118,0
1,73,118,0
1,69,118,0
1,78,118,592
1,74,118,0
1,76,118,16
1,71,118,0
1,74,118,32
1,69,118,0
1,78,118,32
1,74,118,0
1,78,118,192
1,74,118,0
1,71,118,16
1,74,118,0
1,73,118,96
1,69,118,0
1,73,118,96
1,69,118,0
1,76,118,64
1,73,118,0
1,81,118,16
1,76,118,0
1,73,118,576
1,69,118,0
1,71,118,32
1,66,118,0
1,69,118,16
1,64,118,0
1,73,118,32
1,69,118,0
1,73,118,176
1,69,118,0
1,66,118,16
1,69,118,0
1,68,118,96
1,64,118,0
1,68,118,80
1,64,118,0
1,71,118,32
1,68,118,0
1,73,118,16
1,69,118,0
1,71,118,48
1,66,118,0
1,69,118,16
1,64,118,0
1,62,118,32
1,62,118,112
1,66,118,64
1,69,118,16
1,69,118,96
1,61,118,64
1,64,118,16
1,64,118,128
1,68,118,32
1,69,118,16
1,66,118,208
1,64,118,0
1,62,118,16
1,62,118,96
1,66,118,32
1,69,118,0
1,69,118,128
1,61,118,48
1,64,118,0
1,64,118,128
1,68,118,32
1,69,118,16
1,73,118,624
1,69,118,0
1,71,118,16
1,66,118,0
1,69,118,0
1,64,118,0
1,73,118,0
1,69,118,0
1,73,118,96
1,69,118,0
1,66,118,48
1,69,118,0
1,68,118,0
1,64,118,0
1,68,118,144
1,64,118,0
1,71,118,16
1,68,118,0
1,73,118,0
1,69,118,0
1,73,118,608
1,73,118,0
1,69,118,0
1,71,118,16
1,66,118,0
1,69,118,0
1,64,118,0
1,73,118,0
1,69,118,0
1,73,118,96
1,69,118,0
1,66,118,32
1,69,118,0
1,68,118,0
1,64,118,0
1,68,118,144
1,64,118,0
1,71,118,16
1,68,118,0
1,73,118,16
1,69,118,0
1,73,118,608
1,69,118,0
1,71,118,16
1,66,118,0
1,69,118,0
1,64,118,0
1,73,118,0
1,69,118,0
1,73,118,96
1,69,118,0
1,66,118,32
1,69,118,0
1,68,118,0
1,64,118,0
1,68,118,144
1,64,118,0
1,71,118,16
1,68,118,0
1,73,118,0
1,69,118,0
1,73,118,608
1,69,118,0
1,71,118,32
1,66,118,0
1,69,118,0
1,64,118,0
1,73,118,0
1,69,118,0
1,73,118,96
1,69,118,0
1,66,118,32
1,69,118,0
1,68,118,0
1,64,118,0
1,68,118,128
1,64,118,0
1,71,118,16
1,68,118,0
1,73,118,16
1,69,118,0
1,78,118,608
1,74,118,0
1,76,118,16
1,71,118,0
1,74,118,0
1,69,118,0
1,78,118,16
1,74,118,0
1,78,118,192
1,74,118,0
1,71,118,16
1,74,118,0
1,73,118,96
1,69,118,0
1,73,118,96
1,69,118,0
1,76,118,64
1,73,118,0
1,81,118,16
1,76,118,0
1,73,118,576
1,69,118,0
1,71,118,32
1,66,118,0
1,69,118,16
1,64,118,0
1,73,118,32
1,69,118,0
1,73,118,176
1,69,118,0
1,66,118,16
1,69,118,0
1,68,118,96
1,64,118,0
1,68,118,80
1,64,118,0
1,71,118,32
1,68,118,0
1,73,118,16
1,69,118,0
1,71,118,48
1,66,118,0
1,69,118,16
1,64,118,0
1,62,118,32
1,62,118,112
1,66,118,64
1,69,118,16
1,69,118,96
1,61,118,64
1,64,118,32
1,64,118,128
1,68,118,32
1,69,118,16
1,66,118,208
1,64,118,0
1,62,118,32
1,62,118,96
1,66,118,32
1,69,118,0
1,69,118,128
1,61,118,48
1,64,118,0
1,64,118,112
1,68,118,32
1,69,118,16
1,73,118,624
1,69,118,0
1,71,118,16
1,66,118,0
1,69,118,32
1,64,118,0
1,73,118,0
1,69,118,0
1,73,118,96
1,69,118,0
1,66,118,48
1,69,118,0
1,68,118,0
1,64,118,0
1,68,118,128
1,64,118,0
1,71,118,16
1,68,118,0
1,73,118,0
1,69,118,0
1,73,118,608
1,73,118,0
1,69,118,0
1,71,118,16
1,66,118,0
1,69,118,0
1,64,118,0
1,73,118,0
1,69,118,0
1,73,118,96
1,69,118,0
1,69,118,32
1,66,118,0
1,68,118,0
1,64,118,0
1,68,118,112
1,64,118,0
1,71,118,16
1,68,118,0
1,73,118,16
1,69,118,0
1,73,118,592
1,69,118,0
1,71,118,16
1,66,118,0
1,69,118,0
1,64,118,0
1,73,118,0
1,69,118,0
1,73,118,96
1,69,118,0
1,66,118,32
1,69,118,0
1,68,118,0
1,64,118,0
1,68,118,144
1,64,118,0
1,71,118,16
1,68,118,0
1,73,118,0
1,69,118,0
1,73,118,592
1,69,118,0
1,71,118,32
1,66,118,0
1,69,118,0
1,64,118,0
1,73,118,0
1,69,118,0
1,73,118,96
1,69,118,0
1,66,118,32
1,69,118,0
1,68,118,0
1,64,118,0
1,68,118,128
1,64,118,0
1,71,118,16
1,68,118,0
1,73,118,0
1,69,118,0
1,78,118,592
1,74,118,0
1,76,118,16
1,71,118,0
1,74,118,32
1,69,118,0
1,78,118,32
1,74,118,0
1,78,118,192
1,74,118,0
1,71,118,16
1,74,118,0
1,73,118,96
1,69,118,0
1,73,118,96
1,69,118,0
1,76,118,64
1,73,118,0
1,81,118,16
1,76,118,0
1,73,118,576
1,69,118,0
1,71,118,32
1,66,118,0
1,69,118,16
1,64,118,0
1,73,118,32
1,69,118,0
1,73,118,176
1,69,118,0
1,66,118,16
1,69,118,0
1,68,118,96
1,64,118,0
1,68,118,80
1,64,118,0
1,71,118,32
1,68,118,0
1,73,118,16
1,69,118,0
1,71,118,48
1,66,118,0
1,69,118,32
1,64,118,0
1,62,118,32
1,62,118,112
1,66,118,64
1,69,118,16
1,69,118,96
1,61,118,64
1,64,118,16
1,64,118,112
1,68,118,32
1,69,118,16
1,66,118,224
1,64,118,0
1,62,118,32
1,62,118,96
1,66,118,32
1,69,118,0
1,69,118,128
1,61,118,48
1,64,118,0
1,64,118,128
1,68,118,32
1,69,118,16
1,73,118,624
1,69,118,0
1,71,118,16
1,66,118,0
1,69,118,32
1,64,118,0
1,73,118,0
1,69,118,0
1,73,118,96
1,69,118,0
1,66,118,48
1,69,118,0
1,68,118,0
1,64,118,0
1,68,118,144
1,64,118,0
1,71,118,16
1,68,118,0
1,73,118,0
1,69,118,0
1,73,118,592
1,73,118,0
1,69,118,0
1,71,118,16
1,66,118,0
1,69,118,0
1,64,118,0
1,73,118,0
1,69,118,0
1,73,118,96
1,69,118,0
1,66,118,32
1,69,118,0
1,68,118,0
1,64,118,0
1,68,118,144
1,64,118,0
1,71,118,16
1,68,118,0
1,73,118,16
1,69,118,0
1,73,118,608
1,69,118,0
1,71,118,16
1,66,118,0
1,69,118,0
1,64,118,0
1,73,118,0
1,69,118,0
1,73,118,96
1,69,118,0
1,66,118,32
1,69,118,0
1,68,118,0
1,64,118,0
1,68,118,128
1,64,118,0
1,71,118,16
1,68,118,0
1,73,118,0
1,69,118,0
1,73,118,608
1,69,118,0
1,71,118,32
1,66,118,0
1,69,118,0
1,64,118,0
1,73,118,0
1,69,118,0
1,73,118,96
1,69,118,0
1,66,118,32
1,69,118,0
1,68,118,0
1,64,118,0
1,68,118,128
1,64,118,0
1,71,118,16
1,68,118,0
1,73,118,0
1,69,118,0
1,78,118,608
1,74,118,0
1,76,118,16
1,71,118,0
1,74,118,32
1,69,118,0
1,78,118,16
1,74,118,0
1,78,118,192
1,74,118,0
1,71,118,16
1,74,118,0
1,73,118,96
1,69,118,0
1,73,118,96
1,69,118,0
1,76,118,64
1,73,118,0
1,81,118,16
1,76,118,0
1,73,118,576
1,69,118,0
1,71,118,32
1,66,118,0
1,69,118,16
1,64,118,0
1,73,118,32
1,69,118,0
1,73,118,176
1,69,118,0
1,66,118,32
1,69,118,0
1,68,118,96
1,64,118,0
1,68,118,80
1,64,118,0
1,71,118,32
1,68,118,0
1,73,118,16
1,69,118,0
1,71,118,48
1,66,118,0
1,69,118,32
1,64,118,0
1,62,118,32
1,62,118,112
1,66,118,64
1,69,118,16
1,69,118,96
1,61,118,64
1,64,118,32
1,64,118,128
1,68,118,32
1,69,118,16
1,66,118,224
1,64,118,0
1,62,118,32
1,62,118,96
1,66,118,32
1,69,118,0
1,69,118,128
1,61,118,48
1,64,118,16
1,64,118,128
1,68,118,32
1,69,118,16
1,73,98,624
1,69,98,0
1,71,98,16
1,66,98,0
1,69,98,32
1,64,98,0
1,73,98,0
1,69,98,0
1,73,98,96
1,69,98,0
1,66,98,48
1,69,98,0
1,68,98,0
1,64,98,0
1,68,98,128
1,64,98,0
1,71,98,16
1,68,98,0
1,73,98,0
1,69,98,0
1,73,98,608
1,73,98,0
1,69,98,0
1,71,98,16
1,66,98,0
1,69,98,0
1,64,98,0
1,73,98,0
1,69,98,0
1,73,98,96
1,69,98,0
1,66,98,32
1,69,98,0
1,68,98,0
1,64,98,0
1,68,98,144
1,64,98,0
1,71,98,16
1,68,98,0
1,73,98,16
1,69,98,0
1,73,118,608
1,69,118,0
1,71,118,16
1,66,118,0
1,69,118,0
1,64,118,0
1,73,118,0
1,69,118,0
1,73,118,96
1,69,118,0
1,66,118,32
1,69,118,0
1,68,118,0
1,64,118,0
1,68,118,144
1,64,118,0
1,71,118,16
1,68,118,0
1,73,118,0
1,69,118,0
1,73,118,592
1,69,118,0
1,71,118,32
1,66,118,0
1,69,118,0
1,64,118,0
1,73,118,0
1,69,118,0
1,73,118,96
1,69,118,0
1,66,118,32
1,69,118,0
1,68,118,0
1,64,118,0
1,68,118,128
1,64,118,0
1,71,118,16
1,68,118,0
1,73,118,0
1,69,118,0
1,78,118,592
1,74,118,0
1,76,118,16
1,71,118,0
1,74,118,32
1,69,118,0
1,78,118,32
1,74,118,0
1,78,118,192
1,74,118,0
1,71,118,16
1,74,118,0
1,73,118,96
1,69,118,0
1,73,118,96
1,69,118,0
1,76,118,64
1,73,118,0
1,81,118,16
1,76,118,0
1,73,118,576
1,69,118,0
1,71,118,32
1,66,118,0
1,69,118,16
1,64,118,0
1,73,118,32
1,69,118,0
1,73,118,176
1,69,118,0
1,66,118,16
1,69,118,0
1,68,118,96
1,64,118,0
1,68,118,80
1,64,118,0
1,71,118,32
1,68,118,0
1,73,118,16
1,69,118,0
1,71,118,48
1,66,118,0
1,69,118,16
1,64,118,0
1,62,118,32
1,62,118,112
1,66,118,64
1,69,118,16
1,69,118,96
1,61,118,64
1,64,118,16
1,64,118,112
1,68,118,32
1,69,118,16
1,66,118,224
1,64,118,0
1,62,118,32
1,62,118,96
1,66,118,32
1,69,118,0
1,69,118,128
1,61,118,48
1,64,118,0
1,64,118,128
1,68,118,32
1,69,118,16
1,62,118,624
1,62,118,112
1,66,118,64
1,69,118,16
1,69,118,96
1,61,118,64
1,64,118,32
1,64,118,128
1,68,118,32
1,69,118,16
1,66,118,208
1,64,118,0
1,62,118,32
1,62,118,96
1,66,118,32
1,69,118,0
1,69,118,128
1,61,118,48
1,64,118,0
1,64,118,112
1,68,118,32
1,69,118,16
1,73,118,624
1,69,118,0
1,71,118,16
1,66,118,0
1,69,118,0
1,64,118,0
1,73,118,0
1,69,118,0
1,73,118,96
1,69,118,0
1,66,118,32
1,69,118,0
1,68,118,0
1,64,118,0
1,68,118,128
1,64,118,0
1,71,118,16
1,68,118,0
1,73,118,0
1,69,118,0
1,73,118,608
1,69,118,0
1,71,118,32
1,66,118,0
1,69,118,0
1,64,118,0
1,73,118,0
1,69,118,0
1,73,118,96
1,69,118,0
1,66,118,32
1,69,118,0
1,68,118,0
1,64,118,0
1,68,118,112
1,64,118,0
1,71,118,16
1,68,118,0
1,73,118,16
1,69,118,0
1,73,118,592
1,69,118,0
1,71,118,16
1,66,118,0
1,69,118,32
1,64,118,0
1,73,118,0
1,69,118,0
1,73,118,96
1,69,118,0
1,66,118,48
1,69,118,0
1,68,118,0
1,64,118,0
1,68,118,144
1,64,118,0
1,71,118,16
1,68,118,0
1,73,118,0
1,69,118,0
1,73,118,592
1,73,118,0
1,69,118,0
1,71,118,16
1,66,118,0
1,69,118,0
1,64,118,0
1,73,118,0
1,69,118,0
1,73,118,96
1,69,118,0
1,66,118,32
1,69,118,0
1,68,118,0
1,64,118,0
1,68,118,144
1,64,118,0
1,71,118,16
1,68,118,0
1,73,118,16
1,69,118,0
1,81,118,208
2,76,70,0
2,69,66,0
2,73,59,0
2,57,65,0
2,73,71,64
2,69,71,0
2,76,77,0
2,78,71,80
2,74,76,0
2,73,75,112
2,76,75,0
2,76,81,112
2,73,87,0
2,57,72,16
2,52,74,16
2,71,74,0
2,74,81,0
2,68,65,0
2,68,70,144
2,71,76,0
2,74,81,0
2,52,76,0
2,69,72,0
2,76,81,0
2,73,77,0
2,57,71,0
2,57,64,672
2,76,87,0
2,69,71,0
2,73,91,0
2,73,66,64
2,69,71,0
2,76,77,0
2,74,81,64
2,78,77,0
2,73,86,96
2,76,86,0
2,57,71,16
2,76,81,0
2,69,72,0
2,73,86,0
2,73,72,80
2,69,71,0
2,76,74,0
2,74,73,96
2,71,74,0
2,68,63,0
2,52,74,0
2,74,87,80
2,71,81,0
2,68,72,0
2,69,70,16
2,73,77,0
2,76,86,0
2,57,72,0
2,57,68,656
2,73,70,0
2,76,86,0
2,81,77,0
2,73,70,80
2,81,75,0
2,76,84,0
2,74,75,16
2,78,72,0
2,73,70,32
2,81,74,0
2,76,74,0
2,57,67,0
2,76,81,80
2,73,71,0
2,81,79,0
2,57,69,0
2,74,73,48
2,78,70,0
2,80,71,64
2,52,73,0
2,76,76,0
2,76,76,144
2,80,72,0
2,78,66,48
2,74,70,0
2,76,81,48
2,73,87,0
2,57,71,640
2,76,76,0
2,73,64,0
2,81,73,0
2,76,71,96
2,81,70,0
2,73,48,0
2,81,76,64
2,74,71,0
2,78,65,0
2,73,60,96
2,57,67,0
2,81,64,0
2,76,71,0
2,73,66,80
2,81,75,0
2,76,74,0
2,57,65,0
2,52,70,64
2,80,71,0
2,71,69,0
2,76,76,0
2,71,70,128
2,80,72,0
2,76,74,0
2,71,58,64
2,74,73,0
2,78,68,0
2,57,71,48
2,73,84,0
2,76,79,0
2,69,74,0
2,69,73,672
2,73,73,0
2,64,71,0
2,57,66,0
2,74,79,80
2,71,73,0
