track,note,velocity,time
1,57,49,1536
1,62,47,0
1,50,49,0
1,54,48,0
1,57,42,60
1,62,44,0
1,50,49,95
1,57,45,0
1,54,47,0
1,64,50,0
1,50,52,70
1,62,47,0
1,57,48,0
1,54,49,0
1,50,33,128
1,54,38,0
1,57,42,0
1,62,44,0
1,57,44,95
1,64,50,0
1,50,47,0
1,54,45,0
1,62,48,78
1,54,48,0
1,50,48,0
1,57,47,0
1,57,39,62
1,50,35,0
1,62,44,0
1,54,43,0
1,57,41,95
1,64,49,0
1,50,43,0
1,54,43,0
1,50,48,78
1,54,47,0
1,62,46,0
1,57,43,0
1,57,42,162
1,62,44,0
1,50,39,0
1,54,43,0
1,57,43,95
1,64,46,0
1,54,44,0
1,50,45,0
1,62,51,84
1,57,38,0
1,54,43,0
1,50,42,0
1,57,43,72
1,62,46,0
1,54,48,0
1,50,48,0
1,62,44,8
1,57,40,0
1,57,44,95
1,64,52,0
1,50,48,0
1,54,48,0
1,62,49,80
1,50,50,0
1,54,49,0
1,57,43,0
1,57,39,164
1,62,44,0
1,50,46,0
1,54,45,0
1,57,42,95
1,64,51,0
1,54,45,0
1,50,46,0
1,57,42,95
1,62,47,0
1,54,43,0
1,50,41,0
1,62,47,40
1,57,42,0
1,54,56,0
1,50,52,0
1,54,44,46
1,50,43,0
1,64,39,0
1,57,48,20
1,62,54,0
1,54,53,0
1,50,50,0
1,57,42,6
1,62,44,0
1,54,44,0
1,50,42,0
1,57,43,48
1,54,42,0
1,50,43,0
1,64,54,0
1,57,40,40
1,62,39,0
1,50,40,0
1,54,40,0
1,62,45,44
1,57,37,0
1,54,42,0
1,50,44,0
1,57,42,40
1,62,44,0
1,57,40,52
1,64,52,0
1,54,45,0
1,50,44,0
1,50,45,50
1,54,45,0
1,62,45,0
1,57,44,0
1,54,30,46
1,50,33,0
1,57,43,0
1,62,45,0
1,50,42,0
1,54,38,0
1,57,40,8
1,64,54,0
1,62,50,46
1,57,43,0
1,50,47,0
1,54,48,0
1,50,49,38
1,43,51,0
1,50,44,32
1,43,44,0
1,43,54,42
1,52,49,0
1,52,42,38
1,50,61,0
1,43,54,0
1,50,49,20
1,43,51,0
1,43,51,36
1,52,56,0
1,50,55,42
1,50,52,42
1,43,54,0
1,50,52,48
1,43,49,0
1,43,49,52
1,52,54,0
1,50,54,30
1,50,51,48
1,43,52,0
1,52,54,42
1,43,52,36
1,62,47,18
1,57,42,0
1,54,56,0
1,50,52,0
1,54,44,46
1,50,43,0
1,64,39,0
1,57,48,20
1,62,54,0
1,54,53,0
1,50,50,0
1,57,42,6
1,62,44,0
1,54,44,0
1,50,42,0
1,57,43,48
1,54,42,0
1,50,43,0
1,64,54,0
1,57,40,40
1,62,39,0
1,50,40,0
1,54,40,0
1,62,45,44
1,57,37,0
1,54,42,0
1,50,44,0
1,57,42,40
1,62,44,0
1,57,40,52
1,64,52,0
1,54,45,0
1,50,44,0
1,50,45,50
1,54,45,0
1,62,45,0
1,57,44,0
1,54,30,46
1,50,33,0
1,57,43,0
1,62,45,0
1,50,42,0
1,54,38,0
1,57,40,8
1,64,54,0
1,62,50,46
1,57,43,0
1,50,47,0
1,54,48,0
1,50,49,38
1,43,51,0
1,50,44,32
1,43,44,0
1,43,54,42
1,52,49,0
1,52,42,38
1,50,61,0
1,43,54,0
1,50,49,20
1,43,51,0
1,43,51,36
1,52,56,0
1,50,55,42
1,50,52,42
1,43,54,0
1,50,52,48
1,43,49,0
1,43,49,52
1,52,54,0
1,50,54,30
1,50,51,48
1,43,52,0
1,52,54,42
1,43,52,36
1,62,47,18
1,57,42,0
1,54,56,0
1,50,52,0
1,54,44,46
1,50,43,0
1,64,39,0
1,57,48,20
1,62,54,0
1,54,53,0
1,50,50,0
1,57,42,6
1,62,44,0
1,54,44,0
1,50,42,0
1,57,43,48
1,54,42,0
1,50,43,0
1,64,54,0
1,57,40,40
1,62,39,0
1,50,40,0
1,54,40,0
1,55,51,44
1,48,52,0
1,48,42,12
1,55,42,0
1,57,54,44
1,55,48,54
1,48,44,0
1,55,45,36
1,48,44,0
1,48,49,44
1,55,51,0
1,55,51,54
1,48,48,0
1,55,49,48
1,48,47,0
1,41,51,52
1,43,49,0
1,50,51,0
1,52,31,34
1,43,52,0
1,50,47,0
1,50,43,42
1,43,44,0
1,50,48,48
1,43,46,0
1,50,47,50
1,43,46,0
1,52,58,42
1,50,44,28
1,43,49,0
1,43,44,40
1,50,45,0
1,43,45,52
1,50,46,0
1,52,55,48
1,43,44,36
1,50,42,0
1,43,42,42
1,50,43,0
1,43,46,50
1,50,45,0
1,52,56,50
1,43,54,52
1,50,51,0
1,48,59,32
1,55,55,0
1,48,48,44
1,55,46,0
1,55,54,58
1,48,54,0
1,55,50,60
1,48,44,0
1,55,47,58
1,48,45,0
1,55,50,60
1,48,47,0
1,55,49,54
1,48,44,0
1,52,54,56
1,45,55,0
1,52,48,68
1,45,47,0
1,52,58,140
1,45,56,0
1,52,52,144
1,45,52,0
1,50,52,26
1,57,50,0
1,50,39,24
1,57,40,0
1,50,33,54
1,57,38,0
1,57,48,62
1,50,45,0
1,57,46,58
1,50,42,0
1,57,44,60
1,50,40,0
1,50,39,66
1,57,45,0
1,57,45,60
1,50,40,0
1,57,49,66
1,50,44,0
1,57,50,60
1,50,46,0
1,50,38,64
1,57,42,0
1,50,45,64
1,57,48,0
1,57,51,58
1,50,50,0
1,57,50,54
1,50,49,0
1,57,56,56
1,50,52,0
1,57,58,56
1,50,58,0
1,52,54,58
1,45,52,0
1,45,49,38
1,52,47,0
1,45,52,18
1,54,51,0
1,52,52,12
1,45,49,0
1,45,51,12
1,52,51,0
1,52,52,52
1,45,50,0
1,45,55,8
1,54,51,0
1,52,49,26
1,45,46,0
1,52,46,52
1,45,45,0
1,52,48,54
1,45,44,0
1,45,55,4
1,54,56,0
1,52,47,6
1,45,49,0
1,52,48,16
1,45,44,0
1,52,50,72
1,45,45,0
1,45,52,36
1,54,48,0
1,52,45,14
1,50,48,12
1,43,51,0
1,50,52,60
1,43,50,0
1,43,50,24
1,52,47,0
1,50,48,28
1,43,44,0
1,50,51,48
1,43,49,0
1,50,50,60
1,43,47,0
1,52,48,22
1,43,49,0
1,50,49,20
1,43,49,0
1,45,44,46
1,38,49,0
1,38,50,72
1,45,50,0
1,38,46,4
1,47,49,0
1,45,46,20
1,38,44,0
1,45,47,14
1,38,50,0
1,38,48,70
1,45,50,0
1,47,46,28
1,38,49,0
1,45,56,2
1,38,55,0
1,45,50,4
1,52,51,0
1,45,51,72
1,52,54,0
1,45,51,8
1,54,48,0
1,52,49,12
1,45,46,0
1,52,51,36
1,45,48,0
1,52,52,70
1,45,50,0
1,45,51,8
1,54,48,0
1,52,47,24
1,45,45,0
1,52,50,10
1,45,49,0
1,52,52,74
1,45,51,0
1,45,51,38
1,54,49,0
1,52,45,22
1,45,44,0
1,52,52,32
1,45,49,0
1,52,51,70
1,45,49,0
1,45,51,42
1,54,49,0
1,52,49,28
1,45,47,0
1,43,63,8
1,50,67,0
1,62,47,32
1,57,42,0
1,54,56,0
1,50,52,0
1,54,44,46
1,50,43,0
1,64,39,0
1,57,48,20
1,62,54,0
1,54,53,0
1,50,50,0
1,57,42,6
1,62,44,0
1,54,44,0
1,50,42,0
1,57,43,48
1,54,42,0
1,50,43,0
1,64,54,0
1,57,40,40
1,62,39,0
1,50,40,0
1,54,40,0
1,62,45,44
1,57,37,0
1,54,42,0
1,50,44,0
1,57,42,40
1,62,44,0
1,57,40,52
1,64,52,0
1,54,45,0
1,50,44,0
1,50,45,50
1,54,45,0
1,62,45,0
1,57,44,0
1,54,30,46
1,50,33,0
1,57,43,0
1,62,45,0
1,50,42,0
1,54,38,0
1,57,40,8
1,64,54,0
1,62,50,46
1,57,43,0
1,50,47,0
1,54,48,0
1,50,49,38
1,43,51,0
1,50,44,32
1,43,44,0
1,43,54,42
1,52,49,0
1,52,42,38
1,50,61,0
1,43,54,0
1,50,49,20
1,43,51,0
1,43,51,36
1,52,56,0
1,50,55,42
1,50,52,42
1,43,54,0
1,50,52,48
1,43,49,0
1,43,49,52
1,52,54,0
1,50,54,30
1,50,51,48
1,43,52,0
1,52,54,42
1,43,52,36
1,62,47,18
1,57,42,0
1,54,56,0
1,50,52,0
1,54,44,46
1,50,43,0
1,64,39,0
1,57,48,20
1,62,54,0
1,54,53,0
1,50,50,0
1,57,42,6
1,62,44,0
1,54,44,0
1,50,42,0
1,57,43,48
1,54,42,0
1,50,43,0
1,64,54,0
1,57,40,40
1,62,39,0
1,50,40,0
1,54,40,0
1,62,45,44
1,57,37,0
1,54,42,0
1,50,44,0
1,57,42,40
1,62,44,0
1,57,40,52
1,64,52,0
1,54,45,0
1,50,44,0
1,50,45,50
1,54,45,0
1,62,45,0
1,57,44,0
1,54,30,46
1,50,33,0
1,57,43,0
1,62,45,0
1,50,42,0
1,54,38,0
1,57,40,8
1,64,54,0
1,62,50,46
1,57,43,0
1,50,47,0
1,54,48,0
1,50,49,38
1,43,51,0
1,50,44,32
1,43,44,0
1,43,54,42
1,52,49,0
1,52,42,38
1,50,61,0
1,43,54,0
1,50,49,20
1,43,51,0
1,43,51,36
1,52,56,0
1,50,55,42
1,50,52,42
1,43,54,0
1,50,52,48
1,43,49,0
1,43,49,52
1,52,54,0
1,50,54,30
1,50,51,48
1,43,52,0
1,52,54,42
1,43,52,36
1,62,47,18
1,57,42,0
1,54,56,0
1,50,52,0
1,54,44,46
1,50,43,0
1,64,39,0
1,57,48,20
1,62,54,0
1,54,53,0
1,50,50,0
1,57,42,6
1,62,44,0
1,54,44,0
1,50,42,0
1,57,43,48
1,54,42,0
1,50,43,0
1,64,54,0
1,57,40,40
1,62,39,0
1,50,40,0
1,54,40,0
1,55,51,44
1,48,52,0
1,48,42,12
1,55,42,0
1,57,54,44
1,55,48,54
1,48,44,0
1,55,45,36
1,48,44,0
1,48,49,44
1,55,51,0
1,55,51,54
1,48,48,0
1,55,49,48
1,48,47,0
1,41,51,52
1,43,49,0
1,50,51,0
1,52,31,34
1,43,52,0
1,50,47,0
1,50,43,42
1,43,44,0
1,50,48,48
1,43,46,0
1,50,47,50
1,43,46,0
1,52,58,42
1,50,44,28
1,43,49,0
1,43,44,40
1,50,45,0
1,43,45,52
1,50,46,0
1,52,55,48
1,43,44,36
1,50,42,0
1,43,42,42
1,50,43,0
1,43,46,50
1,50,45,0
1,52,56,50
1,43,54,52
1,50,51,0
1,48,59,32
1,55,55,0
1,48,48,44
1,55,46,0
1,55,54,58
1,48,54,0
1,55,50,60
1,48,44,0
1,55,47,58
1,48,45,0
1,55,50,60
1,48,47,0
1,55,49,54
1,48,44,0
1,52,54,56
1,45,55,0
1,52,48,68
1,45,47,0
1,52,58,140
1,45,56,0
1,52,52,144
1,45,52,0
1,50,52,26
1,57,50,0
1,50,39,24
1,57,40,0
1,50,33,54
1,57,38,0
1,57,48,62
1,50,45,0
1,57,46,58
1,50,42,0
1,57,44,60
1,50,40,0
1,50,39,66
1,57,45,0
1,57,45,60
1,50,40,0
1,57,49,66
1,50,44,0
1,57,50,60
1,50,46,0
1,50,38,64
1,57,42,0
1,50,45,64
1,57,48,0
1,57,51,58
1,50,50,0
1,57,50,54
1,50,49,0
1,57,56,56
1,50,52,0
1,57,58,56
1,50,58,0
1,52,54,58
1,45,52,0
1,45,49,38
1,52,47,0
1,45,52,18
1,54,51,0
1,52,52,12
1,45,49,0
1,45,51,12
1,52,51,0
1,52,52,52
1,45,50,0
1,45,55,8
1,54,51,0
1,52,49,26
1,45,46,0
1,52,46,52
1,45,45,0
1,52,48,54
1,45,44,0
1,45,55,4
1,54,56,0
1,52,47,6
1,45,49,0
1,52,48,16
1,45,44,0
1,52,50,72
1,45,45,0
1,45,52,36
1,54,48,0
1,52,45,14
1,50,48,12
1,43,51,0
1,50,52,60
1,43,50,0
1,43,50,24
1,52,47,0
1,50,48,28
1,43,44,0
1,50,51,48
1,43,49,0
1,50,50,60
1,43,47,0
1,52,48,22
1,43,49,0
1,50,49,20
1,43,49,0
1,45,44,46
1,38,49,0
1,38,50,72
1,45,50,0
1,38,46,4
1,47,49,0
1,45,46,20
1,38,44,0
1,45,47,14
1,38,50,0
1,38,48,70
1,45,50,0
1,47,46,28
1,38,49,0
1,45,56,2
1,38,55,0
1,45,50,4
1,52,51,0
1,45,51,72
1,52,54,0
1,45,51,8
1,54,48,0
1,52,49,12
1,45,46,0
1,52,51,36
1,45,48,0
1,52,52,70
1,45,50,0
1,45,51,8
1,54,48,0
1,52,47,24
1,45,45,0
1,52,50,10
1,45,49,0
1,52,52,74
1,45,51,0
1,45,51,38
1,54,49,0
1,52,45,22
1,45,44,0
1,52,52,32
1,45,49,0
1,52,51,70
1,45,49,0
1,45,51,42
1,54,49,0
1,52,49,28
1,45,47,0
1,43,63,8
1,50,67,0
1,62,47,32
1,57,42,0
1,54,56,0
1,50,52,0
1,54,44,46
1,50,43,0
1,64,39,0
1,57,48,20
1,62,54,0
1,54,53,0
1,50,50,0
1,57,42,6
1,62,44,0
1,54,44,0
1,50,42,0
1,57,43,48
1,54,42,0
1,50,43,0
1,64,54,0
1,57,40,40
1,62,39,0
1,50,40,0
1,54,40,0
1,55,51,44
1,48,52,0
1,48,42,12
1,55,42,0
1,57,54,44
1,55,48,54
1,48,44,0
1,55,45,36
1,48,44,0
1,48,49,44
1,55,51,0
1,55,51,54
1,48,48,0
1,55,49,48
1,48,47,0
1,41,51,52
1,43,49,0
1,50,51,0
1,52,31,34
1,43,52,0
1,50,47,0
1,50,43,42
1,43,44,0
1,50,48,48
1,43,46,0
1,50,47,50
1,43,46,0
1,52,58,42
1,50,44,28
1,43,49,0
1,43,44,40
1,50,45,0
1,43,45,52
1,50,46,0
1,52,55,48
1,43,44,36
1,50,42,0
1,43,42,42
1,50,43,0
1,43,46,50
1,50,45,0
1,52,56,50
1,43,54,52
1,50,51,0
1,48,59,32
1,55,55,0
1,48,48,44
1,55,46,0
1,55,54,58
1,48,54,0
1,55,50,60
1,48,44,0
1,55,47,58
1,48,45,0
1,55,50,60
1,48,47,0
1,55,49,54
1,48,44,0
1,52,54,56
1,45,55,0
1,52,48,68
1,45,47,0
1,52,58,140
1,45,56,0
1,52,52,144
1,45,52,0
1,50,52,26
1,57,50,0
1,50,39,24
1,57,40,0
1,50,33,54
1,57,38,0
1,57,48,62
1,50,45,0
1,57,46,58
1,50,42,0
1,57,44,60
1,50,40,0
1,50,39,66
1,57,45,0
1,57,45,60
1,50,40,0
1,57,49,66
1,50,44,0
1,57,50,60
1,50,46,0
1,50,38,64
1,57,42,0
1,50,45,64
1,57,48,0
1,57,51,58
1,50,50,0
1,57,50,54
1,50,49,0
1,57,56,56
1,50,52,0
1,57,58,56
1,50,58,0
1,62,47,58
1,57,42,0
1,54,56,0
1,50,52,0
1,54,44,46
1,50,43,0
1,64,39,0
1,57,48,20
1,62,54,0
1,54,53,0
1,50,50,0
1,57,42,6
1,62,44,0
1,54,44,0
1,50,42,0
1,57,43,48
1,54,42,0
1,50,43,0
1,64,54,0
1,57,40,40
1,62,39,0
1,50,40,0
1,54,40,0
1,62,45,44
1,57,37,0
1,54,42,0
1,50,44,0
1,57,42,40
1,62,44,0
1,57,40,52
1,64,52,0
1,54,45,0
1,50,44,0
1,50,45,50
1,54,45,0
1,62,45,0
1,57,44,0
1,54,30,46
1,50,33,0
1,57,43,0
1,62,45,0
1,50,42,0
1,54,38,0
1,57,40,8
1,64,54,0
1,62,50,46
1,57,43,0
1,50,47,0
1,54,48,0
1,50,49,38
1,43,51,0
1,50,44,32
1,43,44,0
1,43,54,42
1,52,49,0
1,52,42,38
1,50,61,0
1,43,54,0
1,50,49,20
1,43,51,0
1,43,51,36
1,52,56,0
1,50,55,42
1,50,52,42
1,43,54,0
1,50,52,48
1,43,49,0
1,43,49,52
1,52,54,0
1,50,54,30
1,50,51,48
