track,note,velocity,time
1,60,100,9600
1,60,0,119
1,60,100,1
1,60,0,119
1,60,100,1
1,60,0,119
1,64,100,1
1,64,0,59
1,67,100,1
1,67,0,179
1,67,100,1
1,67,0,119
1,67,100,241
1,67,0,59
1,67,100,1
1,67,0,59
1,67,100,1
1,67,0,119
1,67,100,1
1,67,0,119
1,64,100,1
1,64,0,59
1,60,100,1
1,60,0,179
1,60,100,361
1,60,0,119
1,60,100,1
1,60,0,119
1,60,100,1
1,60,0,119
1,64,100,1
1,64,0,59
1,67,100,1
1,67,0,179
1,67,100,1
1,67,0,119
1,64,100,121
1,64,0,119
1,67,100,1
1,67,0,119
1,67,100,1
1,67,0,119
1,67,100,1
1,67,0,59
1,67,100,1
1,67,0,119
1,64,100,1
1,64,0,179
1,65,100,361
1,65,0,119
1,65,100,1
1,65,0,119
1,65,100,1
1,65,0,119
1,65,100,1
1,65,0,59
1,69,100,1
1,69,0,179
1,69,100,1
1,69,0,119
1,67,100,241
1,67,0,59
1,67,100,1
1,67,0,59
1,67,100,1
1,67,0,119
1,67,100,1
1,67,0,119
1,69,100,1
1,69,0,59
1,64,100,1
1,64,0,179
1,60,100,361
1,60,0,119
1,60,100,1
1,60,0,119
1,60,100,1
1,60,0,119
1,64,100,1
1,64,0,59
1,67,100,1
1,67,0,179
1,67,100,1
1,67,0,119
1,67,100,1
1,67,0,179
1,67,100,1
1,67,0,59
1,67,100,1
1,67,0,119
1,67,100,1
1,67,0,119
1,67,100,1
1,67,0,119
1,60,100,1
1,60,0,59
1,60,100,1
1,60,0,179
1,69,100,361
1,69,0,239
1,69,100,1
1,69,0,119
1,69,100,1
1,69,0,59
1,67,100,1
1,67,0,179
1,67,100,1
1,67,0,119
1,67,100,241
1,67,0,119
1,67,100,1
1,67,0,239
1,67,100,1
1,67,0,59
1,67,100,1
1,67,0,179
1,67,100,121
1,67,0,59
1,67,100,1
1,67,0,59
1,67,100,1
1,67,0,59
1,67,100,1
1,67,0,59
1,69,100,1
1,69,0,119
1,69,100,1
1,69,0,239
1,69,100,1
1,69,0,119
1,67,100,1
1,67,0,59
1,67,100,1
1,67,0,179
1,67,100,1
1,67,0,119
1,67,100,1
1,67,0,59
1,67,100,1
1,67,0,119
1,67,100,1
1,67,0,179
1,67,100,1
1,67,0,119
1,67,100,1
1,67,0,59
1,67,100,1
1,67,0,179
1,60,100,361
1,60,0,119
1,60,100,1
1,60,0,119
1,60,100,1
1,60,0,119
1,64,100,1
1,64,0,59
1,67,100,1
1,67,0,179
1,67,100,1
1,67,0,119
1,67,100,241
1,67,0,59
1,67,100,1
1,67,0,59
1,67,100,1
1,67,0,119
1,67,100,1
1,67,0,119
1,64,100,1
1,64,0,59
1,60,100,1
1,60,0,179
1,60,100,361
1,60,0,119
1,60,100,1
1,60,0,119
1,60,100,1
1,60,0,119
1,64,100,1
1,64,0,59
1,67,100,1
1,67,0,179
1,67,100,1
1,67,0,119
1,64,100,121
1,64,0,119
1,67,100,1
1,67,0,119
1,67,100,1
1,67,0,119
1,67,100,1
1,67,0,59
1,67,100,1
1,67,0,119
1,64,100,1
1,64,0,179
1,65,100,361
1,65,0,119
1,65,100,1
1,65,0,119
1,65,100,1
1,65,0,119
1,65,100,1
1,65,0,59
1,69,100,1
1,69,0,179
1,69,100,1
1,69,0,119
1,67,100,241
1,67,0,59
1,67,100,1
1,67,0,59
1,67,100,1
1,67,0,119
1,67,100,1
1,67,0,119
1,69,100,1
1,69,0,59
1,64,100,1
1,64,0,179
1,60,100,361
1,60,0,119
1,60,100,1
1,60,0,119
1,60,100,1
1,60,0,119
1,64,100,1
1,64,0,59
1,67,100,1
1,67,0,179
1,67,100,1
1,67,0,119
1,67,100,1
1,67,0,179
1,67,100,1
1,67,0,59
1,67,100,1
1,67,0,119
1,67,100,1
1,67,0,119
1,67,100,1
1,67,0,119
1,60,100,1
1,60,0,59
1,60,100,1
1,60,0,179
1,69,100,8041
1,69,0,239
1,69,100,1
1,69,0,119
1,69,100,1
1,69,0,59
1,67,100,1
1,67,0,179
1,67,100,1
1,67,0,119
1,67,100,241
1,67,0,119
1,67,100,1
1,67,0,239
1,67,100,1
1,67,0,59
1,67,100,1
1,67,0,179
1,67,100,121
1,67,0,59
1,67,100,1
1,67,0,59
1,67,100,1
1,67,0,59
1,67,100,1
1,67,0,59
1,69,100,1
1,69,0,119
1,69,100,1
1,69,0,239
1,69,100,1
1,69,0,119
1,67,100,1
1,67,0,59
1,67,100,1
1,67,0,179
1,67,100,1
1,67,0,119
1,67,100,1
1,67,0,59
1,67,100,1
1,67,0,119
1,67,100,1
1,67,0,179
1,67,100,1
1,67,0,119
1,67,100,1
1,67,0,59
1,67,100,1
1,67,0,179
1,60,100,2281
1,60,0,120
1,60,100,0
1,60,0,120
1,60,100,0
1,60,0,120
1,64,100,0
1,64,0,60
1,67,100,0
1,67,0,120
1,67,100,4
1,67,0,180
1,67,100,236
1,67,0,180
1,67,100,0
1,67,0,60
1,67,100,0
1,67,0,120
1,55,100,0
1,55,0,60
1,60,100,0
1,60,0,300
1,55,100,180
1,55,0,60
1,60,100,0
1,60,0,120
1,60,100,0
1,60,0,120
1,60,100,0
1,60,0,120
1,64,100,0
1,64,0,60
1,67,100,0
1,67,0,120
1,67,100,0
1,67,0,180
1,67,100,0
1,67,0,180
1,64,100,0
1,64,0,60
1,67,100,0
1,67,0,120
1,67,100,0
1,67,0,120
1,67,100,0
1,67,0,60
1,67,100,0
1,67,0,120
1,64,100,0
1,64,0,180
1,65,100,360
1,65,0,120
1,65,100,0
1,65,0,120
1,65,100,0
1,65,0,120
1,65,100,0
1,65,0,60
1,69,100,0
1,69,0,120
1,69,100,0
1,69,0,180
1,67,100,240
1,67,0,180
1,67,100,0
1,67,0,60
1,67,100,0
1,67,0,120
1,69,100,0
1,69,0,60
1,64,100,0
1,64,0,180
1,60,100,360
1,60,0,120
1,60,100,0
1,60,0,60
1,60,100,0
1,60,0,180
1,64,100,0
1,64,0,60
1,67,100,0
1,67,0,180
1,67,100,0
1,67,0,60
1,67,100,0
1,67,0,60
1,64,100,0
1,64,0,180
1,64,100,0
1,64,0,60
1,67,100,0
1,67,0,120
1,67,100,0
1,67,0,60
1,67,100,0
1,67,0,120
1,62,100,0
1,62,0,120
1,60,100,0
1,60,0,300
2,60,85,1920
2,60,0,179
2,57,85,1
2,57,0,179
2,55,85,1
2,55,0,119
2,60,85,1
2,60,0,60
2,60,85,120
2,60,0,179
2,57,85,1
2,57,0,119
2,55,85,1
2,55,0,60
2,55,85,120
2,55,0,179
2,59,85,1
2,59,0,119
2,60,85,1
2,60,0,60
2,60,85,120
2,60,0,180
2,60,85,120
2,60,0,179
2,57,85,1
2,57,0,179
2,55,85,1
2,55,0,119
2,60,85,1
2,60,0,60
2,60,85,120
2,60,0,179
2,57,85,1
2,57,0,119
2,55,85,1
2,55,0,60
2,55,85,120
2,55,0,179
2,59,85,1
2,59,0,119
2,60,85,1
2,60,0,60
2,60,85,120
2,60,0,180
2,65,85,120
2,65,0,179
2,62,85,1
2,62,0,179
2,60,85,1
2,60,0,119
2,65,85,1
2,65,0,60
2,65,85,120
2,65,0,179
2,62,85,1
2,62,0,119
2,60,85,1
2,60,0,60
2,60,85,120
2,60,0,179
2,64,85,1
2,64,0,119
2,67,85,1
2,67,0,60
2,67,85,120
2,67,0,180
2,60,85,120
2,60,0,179
2,57,85,1
2,57,0,179
2,55,85,1
2,55,0,119
2,60,85,1
2,60,0,60
2,60,85,120
2,60,0,179
2,57,85,1
2,57,0,119
2,55,85,1
2,55,0,60
2,55,85,120
2,55,0,179
2,59,85,1
2,59,0,119
2,60,85,1
2,60,0,60
2,60,85,120
2,60,0,180
2,60,85,120
2,52,85,0
2,52,0,119
2,60,0,0
2,60,85,1
2,60,0,119
2,60,85,1
2,52,85,0
2,52,0,119
2,60,0,0
2,64,85,1
2,64,0,59
2,67,85,1
2,64,85,0
2,64,0,179
2,67,0,0
2,67,85,1
2,64,85,0
2,64,0,119
2,67,0,0
2,64,85,121
2,60,85,0
2,60,0,119
2,64,0,0
2,67,85,1
2,59,85,0
2,67,0,59
2,67,85,1
2,67,0,59
2,59,0,0
2,67,85,1
2,67,0,119
2,67,85,1
2,59,85,0
2,59,0,119
2,67,0,0
2,64,85,1
2,64,0,59
2,60,85,1
2,60,0,179
2,55,85,1
2,52,85,0
2,52,0,119
2,55,0,0
2,55,85,121
2,55,0,119
2,60,85,1
2,52,85,0
2,52,0,119
2,60,0,0
2,60,85,1
2,60,0,119
2,60,85,1
2,52,85,0
2,52,0,119
2,60,0,0
2,64,85,1
2,64,0,59
2,67,85,1
2,64,85,0
2,64,0,179
2,67,0,0
2,67,85,1
2,64,85,0
2,64,0,119
2,67,0,0
2,64,85,121
2,60,85,0
2,60,0,119
2,64,0,0
2,67,85,1
2,59,85,0
2,59,0,119
2,67,0,0
2,67,85,1
2,67,0,119
2,67,85,1
2,59,85,0
2,59,0,59
2,67,0,0
2,67,85,1
2,67,0,119
2,64,85,1
2,55,85,0
2,55,0,179
2,64,0,0
2,55,85,1
2,52,85,0
2,52,0,119
2,55,0,0
2,60,85,121
2,55,85,0
2,55,0,119
2,60,0,0
2,65,85,1
2,60,85,0
2,57,85,0
2,57,0,119
2,60,0,0
2,65,0,0
2,65,85,1
2,65,0,119
2,65,85,1
2,60,85,0
2,57,85,0
2,57,0,119
2,60,0,0
2,65,0,0
2,65,85,1
2,65,0,59
2,69,85,1
2,60,85,0
2,60,0,179
2,69,0,0
2,69,85,1
2,65,85,0
2,60,85,0
2,60,0,119
2,65,0,0
2,69,0,0
2,65,85,121
2,60,85,0
2,60,0,119
2,65,0,0
2,67,85,1
2,64,85,0
2,67,0,59
2,67,85,1
2,67,0,59
2,64,0,0
2,67,85,1
2,67,0,119
2,67,85,1
2,64,85,0
2,60,85,0
2,60,0,119
2,64,0,0
2,67,0,0
2,69,85,1
2,69,0,59
2,64,85,1
2,55,85,0
2,55,0,179
2,64,0,0
2,60,85,1
2,52,85,0
2,52,0,119
2,60,0,0
2,55,85,121
2,55,0,119
2,60,85,1
2,52,85,0
2,52,0,119
2,60,0,0
2,60,85,1
2,60,0,119
2,60,85,1
2,52,85,0
2,52,0,119
2,60,0,0
2,64,85,1
2,64,0,59
2,67,85,1
2,64,85,0
2,64,0,179
2,67,0,0
2,67,85,1
2,67,0,119
2,67,85,1
2,64,85,0
2,64,0,179
2,67,0,0
2,67,85,1
2,67,0,59
2,67,85,1
2,59,85,0
2,59,0,119
2,67,0,0
2,67,85,1
2,67,0,119
2,67,85,1
2,59,85,0
2,59,0,119
2,67,0,0
2,60,85,1
2,60,0,59
2,60,85,1
2,60,0,179
2,55,85,1
2,52,85,0
2,52,0,119
2,55,0,0
2,67,85,121
2,64,85,0
2,64,0,119
2,67,0,0
2,69,85,1
2,60,85,120
2,57,85,0
2,57,0,119
2,60,0,0
2,69,0,0
2,69,85,1
2,69,0,119
2,69,85,1
2,60,85,0
2,57,85,0
2,57,0,59
2,60,0,0
2,69,0,0
2,67,85,1
2,67,0,179
2,67,85,1
2,64,85,0
2,55,85,0
2,55,0,119
2,64,0,0
2,67,0,0
2,64,85,121
2,55,85,0
2,55,0,119
2,64,0,0
2,67,85,1
2,67,0,119
2,67,85,1
2,59,85,0
2,59,0,239
2,67,0,0
2,67,85,1
2,59,85,0
2,59,0,59
2,67,0,0
2,67,85,1
2,67,0,179
2,64,85,1
2,55,85,0
2,55,0,119
2,64,0,0
2,67,85,1
2,67,0,59
2,67,85,1
2,67,0,59
2,67,85,1
2,64,85,0
2,67,0,59
2,67,85,1
2,67,0,59
2,64,0,0
2,69,85,1
2,69,0,119
2,69,85,1
2,60,85,0
2,57,85,0
2,57,0,239
2,60,0,0
2,69,0,0
2,69,85,1
2,60,85,0
2,57,85,0
2,57,0,119
2,60,0,0
2,69,0,0
2,67,85,1
2,67,0,59
2,67,85,1
2,64,85,0
2,64,0,179
2,67,0,0
2,67,85,1
2,67,0,119
2,67,85,1
2,64,85,0
2,64,0,59
2,67,0,0
2,67,85,1
2,67,0,119
2,67,85,1
2,59,85,0
2,59,0,179
2,67,0,0
2,67,85,1
2,67,0,119
2,67,85,1
2,59,85,0
2,59,0,59
2,67,0,0
2,67,85,1
2,67,0,119
2,64,85,1
2,55,85,0
2,55,0,119
2,64,0,0
2,64,85,181
2,60,85,0
2,60,0,119
2,64,0,0
2,60,85,1
2,52,85,0
2,52,0,119
2,60,0,0
2,60,85,1
2,60,0,119
2,60,85,1
2,52,85,0
2,52,0,119
2,60,0,0
2,64,85,1
2,64,0,59
2,67,85,1
2,64,85,0
2,64,0,179
2,67,0,0
2,67,85,1
2,64,85,0
2,64,0,119
2,67,0,0
2,64,85,121
2,60,85,0
2,60,0,119
2,64,0,0
2,67,85,1
2,59,85,0
2,67,0,59
2,67,85,1
2,67,0,59
2,59,0,0
2,67,85,1
2,67,0,119
2,67,85,1
2,59,85,0
2,59,0,119
2,67,0,0
2,64,85,1
2,64,0,59
2,60,85,1
2,60,0,179
2,55,85,1
2,52,85,0
2,52,0,119
2,55,0,0
2,55,85,121
2,55,0,119
2,60,85,1
2,52,85,0
2,52,0,119
2,60,0,0
2,60,85,1
2,60,0,119
2,60,85,1
2,52,85,0
2,52,0,119
2,60,0,0
2,64,85,1
2,64,0,59
2,67,85,1
2,64,85,0
2,64,0,179
2,67,0,0
2,67,85,1
2,64,85,0
2,64,0,119
2,67,0,0
2,64,85,121
2,60,85,0
2,60,0,119
2,64,0,0
2,67,85,1
2,59,85,0
2,59,0,119
2,67,0,0
2,67,85,1
2,67,0,119
2,67,85,1
2,59,85,0
2,59,0,59
2,67,0,0
2,67,85,1
2,67,0,119
2,64,85,1
2,55,85,0
2,55,0,179
2,64,0,0
2,55,85,1
2,52,85,0
2,52,0,119
2,55,0,0
2,60,85,121
2,55,85,0
2,55,0,119
2,60,0,0
2,65,85,1
2,60,85,0
2,57,85,0
2,57,0,119
2,60,0,0
2,65,0,0
2,65,85,1
2,65,0,119
2,65,85,1
2,60,85,0
2,57,85,0
2,57,0,119
2,60,0,0
2,65,0,0
2,65,85,1
2,65,0,59
2,69,85,1
2,60,85,0
2,60,0,179
2,69,0,0
2,69,85,1
2,65,85,0
2,60,85,0
2,60,0,119
2,65,0,0
2,69,0,0
2,65,85,121
2,60,85,0
2,60,0,119
2,65,0,0
2,67,85,1
2,64,85,0
2,67,0,59
2,67,85,1
2,67,0,59
2,64,0,0
2,67,85,1
2,67,0,119
2,67,85,1
2,64,85,0
2,60,85,0
2,60,0,119
2,64,0,0
2,67,0,0
2,69,85,1
2,69,0,59
2,64,85,1
2,55,85,0
2,55,0,179
2,64,0,0
2,60,85,1
2,52,85,0
2,52,0,119
2,60,0,0
2,55,85,121
2,55,0,119
2,60,85,1
2,52,85,0
2,52,0,119
2,60,0,0
2,60,85,1
2,60,0,119
2,60,85,1
2,52,85,0
2,52,0,119
2,60,0,0
2,64,85,1
2,64,0,59
2,67,85,1
2,64,85,0
2,64,0,179
2,67,0,0
2,67,85,1
2,67,0,119
2,67,85,1
2,64,85,0
2,64,0,179
2,67,0,0
2,67,85,1
2,67,0,59
2,67,85,1
2,59,85,0
2,59,0,119
2,67,0,0
2,67,85,1
2,67,0,119
2,67,85,1
2,59,85,0
2,59,0,119
2,67,0,0
2,60,85,1
2,60,0,59
2,60,85,1
2,60,0,179
2,55,85,1
2,52,85,0
2,52,0,119
2,55,0,0
2,60,120,241
2,60,0,179
2,57,120,1
2,57,0,179
2,55,120,1
2,55,0,119
2,60,120,1
2,60,0,60
2,60,120,120
2,60,0,179
2,57,120,1
2,57,0,119
2,55,120,1
2,55,0,60
2,55,120,120
2,55,0,179
2,59,120,1
2,59,0,119
2,60,120,1
2,60,0,60
2,60,120,120
2,60,0,180
2,60,120,120
2,60,0,179
2,57,120,1
2,57,0,179
2,55,120,1
2,55,0,119
