track,note,velocity,time
1,65,100,16794
1,65,100,4
1,65,100,4
1,65,100,4
1,67,100,4
1,67,100,4
1,65,100,4
1,70,100,4
1,70,100,4
1,70,100,4
1,70,100,4
1,74,100,4
1,70,100,4
1,79,100,4
1,79,100,4
1,79,100,4
1,77,100,4
1,74,100,4
1,70,100,4
1,72,100,4
1,72,100,4
1,72,100,4
1,72,100,4
1,65,100,484
1,65,100,4
1,65,100,4
1,65,100,4
1,65,100,4
1,67,100,4
1,65,100,4
1,70,100,4
1,70,100,4
1,70,100,4
1,70,100,4
1,74,100,4
1,70,100,4
1,79,100,4
1,79,100,4
1,77,100,4
1,74,100,4
1,70,100,4
1,74,100,4
1,74,100,4
1,72,100,4
1,70,100,4
1,65,100,484
1,65,100,4
1,65,100,4
1,65,100,4
1,65,100,4
1,65,100,4
1,67,100,4
1,67,100,4
1,65,100,4
1,70,100,4
1,70,100,4
1,70,100,4
1,70,100,4
1,74,100,4
1,70,100,4
1,79,100,4
1,79,100,4
1,79,100,4
1,77,100,4
1,74,100,4
1,70,100,4
1,72,100,4
1,72,100,4
1,72,100,4
1,72,100,4
1,65,100,484
1,65,100,4
1,65,100,4
1,65,100,4
1,65,100,4
1,67,100,4
1,65,100,4
1,70,100,4
1,70,100,4
1,70,100,4
1,70,100,4
1,74,100,4
1,70,100,4
1,79,100,4
1,79,100,4
1,77,100,4
1,74,100,4
1,70,100,4
1,74,100,4
1,74,100,4
1,72,100,4
1,70,100,4
1,77,100,484
1,77,100,4
1,77,100,4
1,77,100,4
1,77,100,4
1,72,100,4
1,72,100,4
1,74,100,4
1,75,100,4
1,75,100,4
1,75,100,4
1,75,100,4
1,74,100,4
1,65,100,4
1,65,100,4
1,65,100,4
1,70,100,4
1,70,100,4
1,70,100,4
1,74,100,4
1,74,100,4
1,70,100,4
1,72,100,4
1,76,100,244
1,77,100,0
1,72,100,0
1,74,100,0
1,72,100,0
1,65,100,0
1,65,100,0
1,65,100,4
1,65,100,4
1,65,100,4
1,67,100,4
1,65,100,4
1,65,100,4
1,70,100,4
1,70,100,4
1,70,100,4
1,70,100,4
1,74,100,4
1,70,100,4
1,79,100,4
1,79,100,4
1,77,100,4
1,74,100,4
1,70,100,4
1,74,100,4
1,74,100,4
1,72,100,4
1,70,100,4
1,77,100,31204
1,77,100,4
1,77,100,4
1,77,100,4
1,77,100,4
1,72,100,4
1,72,100,4
1,74,100,4
1,75,100,4
1,75,100,4
1,75,100,4
1,75,100,4
1,74,100,4
1,65,100,4
1,65,100,4
1,65,100,4
1,70,100,4
1,70,100,4
1,70,100,4
1,74,100,4
1,74,100,4
1,70,100,4
1,72,100,4
1,65,100,484
1,65,100,4
1,65,100,4
1,65,100,4
1,67,100,4
1,65,100,4
1,65,100,4
1,70,100,4
1,70,100,4
1,70,100,4
1,70,100,4
1,74,100,4
1,70,100,4
1,79,100,4
1,79,100,4
1,77,100,4
1,74,100,4
1,70,100,4
1,74,100,4
1,74,100,4
1,72,100,4
1,70,100,4
1,67,100,23524
1,67,100,0
1,67,100,0
1,67,100,0
1,69,100,0
1,69,100,0
1,67,100,0
1,72,100,0
1,72,100,0
1,72,100,0
1,72,100,0
1,76,100,0
1,72,100,0
1,81,100,480
1,81,100,0
1,81,100,0
1,81,100,0
1,79,100,0
1,79,100,0
1,76,100,0
1,72,100,0
1,74,100,0
1,74,100,0
1,76,100,0
1,76,100,0
1,74,100,0
1,67,100,974
1,67,100,452
1,67,100,438
1,67,100,14
1,69,100,28
1,67,100,466
1,67,100,480
1,72,100,0
1,72,100,0
1,72,100,0
1,76,100,0
1,76,100,0
1,74,100,0
1,72,100,0
1,81,100,960
1,81,100,0
1,79,100,0
1,76,100,0
1,72,100,0
1,76,100,0
1,76,100,0
1,74,100,0
1,72,100,0
2,79,80,9104
2,67,80,0
2,75,80,480
2,70,80,0
2,79,80,4
2,67,80,0
2,75,80,480
2,70,80,0
2,77,80,4
2,65,80,0
2,74,80,480
2,70,80,0
2,74,80,4
2,70,80,0
2,65,80,0
2,70,80,4
2,65,80,0
2,62,80,0
2,74,80,4
2,69,80,0
2,65,80,0
2,74,80,4
2,69,80,0
2,65,80,0
2,72,80,4
2,69,80,0
2,63,80,0
2,70,80,4
2,65,80,480
2,62,80,0
2,65,80,484
2,62,80,0
2,65,80,4
2,62,80,0
2,65,80,4
2,65,80,4
2,65,80,4
2,67,80,4
2,62,80,0
2,67,80,4
2,65,80,4
2,70,80,4
2,67,80,0
2,70,80,4
2,70,80,4
2,70,80,4
2,74,80,4
2,67,80,0
2,70,80,4
2,79,80,4
2,75,80,0
2,70,80,0
2,67,80,0
2,79,80,4
2,75,80,0
2,70,80,0
2,67,80,0
2,79,80,4
2,75,80,0
2,70,80,0
2,67,80,0
2,77,80,4
2,65,80,0
2,74,80,480
2,70,80,0
2,74,80,4
2,70,80,0
2,65,80,0
2,70,80,4
2,65,80,0
2,62,80,0
2,72,80,4
2,69,80,480
2,65,80,0
2,72,80,4
2,74,80,4
2,72,80,4
2,69,80,480
2,63,80,0
2,65,80,4
2,63,80,0
2,65,80,4
2,62,80,0
2,65,80,4
2,65,80,4
2,65,80,4
2,67,80,4
2,62,80,0
2,65,80,4
2,70,80,4
2,67,80,0
2,70,80,4
2,70,80,4
2,70,80,4
2,74,80,4
2,67,80,0
2,70,80,4
2,79,80,4
2,67,80,0
2,75,80,480
2,70,80,0
2,79,80,4
2,67,80,0
2,75,80,480
2,70,80,0
2,77,80,4
2,65,80,0
2,74,80,480
2,70,80,0
2,74,80,4
2,70,80,0
2,65,80,0
2,70,80,4
2,65,80,0
2,62,80,0
2,74,80,4
2,69,80,0
2,65,80,0
2,74,80,4
2,69,80,0
2,65,80,0
2,72,80,4
2,69,80,0
2,63,80,0
2,70,80,4
2,65,80,480
2,62,80,0
2,65,80,4
2,62,80,0
2,65,80,4
2,65,80,4
2,62,80,0
2,65,80,4
2,65,80,4
2,65,80,4
2,67,80,4
2,62,80,0
2,67,80,4
2,65,80,4
2,70,80,4
2,67,80,0
2,70,80,4
2,70,80,4
2,70,80,4
2,74,80,4
2,67,80,0
2,70,80,4
2,79,80,4
2,75,80,0
2,70,80,0
2,67,80,0
2,79,80,4
2,75,80,0
2,70,80,0
2,67,80,0
2,79,80,4
2,75,80,0
2,70,80,0
2,67,80,0
2,77,80,4
2,65,80,0
2,74,80,480
2,70,80,0
2,74,80,4
2,70,80,0
2,65,80,0
2,70,80,4
2,65,80,0
2,62,80,0
2,72,80,4
2,69,80,480
2,65,80,0
2,72,80,4
2,74,80,4
2,72,80,4
2,69,80,480
2,63,80,0
2,65,80,4
2,63,80,0
2,65,80,4
2,62,80,0
2,65,80,4
2,65,80,4
2,65,80,4
2,67,80,4
2,62,80,0
2,65,80,4
2,70,80,4
2,67,80,0
2,70,80,4
2,70,80,4
2,70,80,4
2,74,80,4
2,67,80,0
2,70,80,4
2,79,80,4
2,67,80,0
2,75,80,480
2,70,80,0
2,79,80,4
2,67,80,0
2,75,80,480
2,70,80,0
2,77,80,4
2,65,80,0
2,74,80,480
2,70,80,0
2,74,80,4
2,70,80,0
2,65,80,0
2,70,80,4
2,65,80,0
2,62,80,0
2,74,80,4
2,69,80,0
2,65,80,0
2,74,80,4
2,69,80,0
2,65,80,0
2,72,80,4
2,69,80,0
2,63,80,0
2,70,80,4
2,65,80,480
2,62,80,0
2,62,80,4
2,77,80,4
2,69,80,0
2,65,80,0
2,77,80,4
2,77,80,4
2,77,80,4
2,77,80,4
2,69,80,0
2,65,80,0
2,72,80,4
2,72,80,4
2,74,80,4
2,75,80,4
2,70,80,0
2,67,80,0
2,75,80,4
2,75,80,4
2,75,80,4
2,74,80,4
2,70,80,0
2,65,80,0
2,65,80,4
2,62,80,0
2,65,80,4
2,65,80,4
2,65,80,4
2,62,80,0
2,70,80,4
2,70,80,4
2,67,80,0
2,62,80,0
2,74,80,4
2,74,80,4
2,70,80,4
2,72,80,4
2,69,80,480
2,65,80,0
2,69,80,484
2,65,80,0
2,65,80,4
2,62,80,0
2,65,80,4
2,65,80,4
2,65,80,4
2,67,80,4
2,62,80,0
2,65,80,4
2,65,80,4
2,70,80,4
2,67,80,0
2,70,80,4
2,70,80,4
2,70,80,4
2,74,80,4
2,67,80,0
2,70,80,4
2,79,80,4
2,67,80,0
2,75,80,480
2,70,80,0
2,79,80,4
2,67,80,0
2,75,80,480
2,70,80,0
2,77,80,4
2,67,80,0
2,74,80,480
2,70,80,0
2,74,80,4
2,70,80,0
2,65,80,0
2,70,80,4
2,65,80,0
2,62,80,0
2,74,80,4
2,69,80,0
2,65,80,0
2,74,80,4
2,69,80,0
2,65,80,0
2,72,80,4
2,69,80,0
2,63,80,0
2,70,80,4
2,65,80,480
2,62,80,0
2,62,80,4
2,65,80,4
2,77,80,30724
2,69,80,0
2,65,80,0
2,77,80,4
2,77,80,4
2,77,80,4
2,77,80,4
2,69,80,0
2,65,80,0
2,72,80,4
2,72,80,4
2,74,80,4
2,75,80,4
2,70,80,0
2,67,80,0
2,75,80,4
2,75,80,4
2,75,80,4
2,74,80,4
2,70,80,0
2,65,80,0
2,65,80,4
2,62,80,0
2,65,80,4
2,65,80,4
2,65,80,4
2,62,80,0
2,70,80,4
2,70,80,4
2,67,80,0
2,62,80,0
2,74,80,4
2,74,80,4
2,70,80,4
2,72,80,4
2,69,80,480
2,65,80,0
2,69,80,484
2,65,80,0
2,65,80,4
2,62,80,0
2,65,80,4
2,65,80,4
2,65,80,4
2,67,80,4
2,62,80,0
2,65,80,4
2,65,80,4
2,70,80,4
2,67,80,0
2,70,80,4
2,70,80,4
2,70,80,4
2,74,80,4
2,67,80,0
2,70,80,4
2,79,80,4
2,67,80,0
2,75,80,480
2,70,80,0
2,79,80,4
2,67,80,0
2,75,80,480
2,70,80,0
2,77,80,4
2,67,80,0
2,74,80,480
2,70,80,0
2,74,80,4
2,70,80,0
2,65,80,0
2,70,80,4
2,65,80,0
2,62,80,0
2,74,80,4
2,69,80,0
2,65,80,0
2,74,80,4
2,69,80,0
2,65,80,0
2,72,80,4
2,69,80,0
2,63,80,0
2,70,80,4
2,65,80,480
2,62,80,0
2,62,80,4
2,65,80,4
2,67,100,23044
2,67,100,0
2,67,100,0
2,67,100,0
2,69,100,0
2,69,100,0
2,67,100,0
2,72,100,0
2,72,100,0
2,72,100,0
2,72,100,0
2,76,100,0
2,72,100,0
2,69,100,480
2,69,100,0
2,69,100,0
2,69,100,0
2,67,100,0
2,67,100,0
2,64,100,0
2,60,100,0
2,62,100,0
2,62,100,0
2,64,100,0
2,64,100,0
2,62,100,0
2,67,100,960
2,67,100,0
2,67,100,0
2,67,100,0
2,69,100,0
2,67,100,0
2,67,100,480
2,72,100,0
2,72,100,0
2,72,100,466
2,76,100,42
2,76,100,692
2,74,100,0
2,72,100,0
2,69,100,960
2,69,100,932
2,67,100,56
2,62,100,932
2,60,100,0
2,64,100,0
2,64,100,0
2,62,100,0
2,60,100,0
3,39,110,9094
3,39,110,484
3,46,110,484
3,34,110,484
3,41,110,484
3,29,110,484
3,34,110,4
3,41,110,484
3,41,110,484
3,34,110,0
3,41,110,484
3,34,110,484
3,41,110,484
3,46,110,4
3,50,110,4
3,43,110,0
3,38,110,484
3,43,110,484
3,38,110,484
3,43,110,4
3,39,110,4
3,39,110,484
3,46,110,484
3,34,110,484
3,41,110,484
3,29,110,484
3,41,110,484
3,29,110,4
3,41,110,4
3,34,110,0
3,41,110,484
3,34,110,484
3,41,110,484
3,46,110,4
3,50,110,4
3,43,110,0
3,38,110,484
3,43,110,484
3,38,110,484
3,43,110,4
3,39,110,4
3,39,110,484
3,46,110,484
3,34,110,484
3,41,110,484
3,29,110,484
3,34,110,4
3,29,110,484
3,41,110,484
3,34,110,0
3,41,110,484
3,34,110,484
3,41,110,484
3,46,110,4
3,50,110,4
3,43,110,0
3,38,110,484
3,43,110,484
3,38,110,484
3,43,110,4
3,39,110,4
3,39,110,484
3,46,110,484
3,34,110,484
3,41,110,484
3,29,110,484
3,41,110,484
3,29,110,4
3,41,110,4
3,34,110,0
3,41,110,484
3,34,110,484
3,41,110,484
3,46,110,4
3,50,110,4
3,43,110,0
3,38,110,484
3,43,110,484
3,38,110,484
3,43,110,4
3,39,110,4
3,39,110,484
3,46,110,484
3,34,110,484
3,41,110,484
3,29,110,484
3,34,110,4
3,34,110,484
3,38,110,4
3,36,110,4
3,29,110,0
3,41,110,4
3,29,110,0
3,39,110,4
3,27,110,0
3,34,110,4
3,41,110,4
3,46,110,4
3,34,110,484
3,43,110,484
3,31,110,484
3,41,110,484
3,29,110,484
3,41,110,484
3,29,110,4
3,41,110,4
3,34,110,0
3,41,110,484
3,34,110,484
3,46,110,484
3,50,110,484
3,43,110,0
3,38,110,484
3,43,110,484
3,38,110,484
3,43,110,4
3,39,110,4
3,39,110,484
3,46,110,484
3,34,110,484
3,41,110,484
3,29,110,484
3,34,110,4
3,34,110,484
3,38,110,4
3,41,110,4
3,34,110,0
3,41,110,484
3,34,110,484
3,46,110,484
3,50,110,484
3,43,110,0
3,38,110,484
3,43,110,484
3,38,110,484
3,43,110,4
3,39,110,4
3,39,110,484
3,46,110,484
3,34,110,484
3,41,110,484
3,29,110,484
3,41,110,4
3,29,110,480
3,41,110,0
3,34,110,0
3,41,110,484
3,34,110,484
3,46,110,484
3,50,110,484
3,43,110,0
3,38,110,484
3,43,110,484
3,38,110,484
3,43,110,4
3,39,110,4
3,39,110,484
3,46,110,484
3,34,110,484
3,41,110,484
3,29,110,484
3,34,110,4
3,34,110,484
3,38,110,4
3,36,110,4
3,29,110,0
3,41,110,4
3,29,110,0
3,39,110,4
3,27,110,0
3,34,110,4
3,41,110,4
3,46,110,4
3,34,110,484
3,43,110,484
3,31,110,484
3,41,110,484
3,29,110,484
3,41,110,484
3,29,110,4
3,41,110,4
3,34,110,0
3,41,110,484
3,34,110,484
3,46,110,484
3,50,110,484
3,43,110,0
3,38,110,484
3,43,110,484
3,38,110,484
3,43,110,4
3,39,110,4
3,39,110,484
3,46,110,484
3,34,110,484
3,41,110,484
3,29,110,484
3,34,110,4
3,34,110,484
3,38,110,4
3,34,110,4
3,41,110,484
3,41,110,484
3,34,110,0
3,41,110,484
3,34,110,484
3,41,110,484
3,46,110,4
3,39,110,4
3,39,110,0
3,33,110,0
3,32,110,0
3,31,75,0
3,43,75,480
3,31,75,480
3,43,75,480
3,41,75,480
3,36,75,0
3,36,75,0
3,33,75,0
3,31,75,0
3,31,75,0
3,48,100,0
3,36,100,480
3,48,100,480
3,36,100,480
3,45,100,480
3,33,100,480
3,45,100,480
3,33,100,480
3,41,100,480
3,29,100,480
3,48,100,480
3,36,100,480
3,43,100,480
3,31,100,480
3,43,100,480
3,31,100,480
3,36,100,480
3,36,100,0
3,33,100,0
3,33,100,0
3,41,100,0
3,36,100,0
3,43,100,0
3,36,100,0
3,43,100,0
3,36,100,0
3,48,100,0
3,36,100,480
3,48,100,480
3,36,100,480
3,41,100,480
3,29,100,0
3,48,100,0
3,36,100,0
3,43,100,0
3,31,100,0
3,36,100,0
4,58,100,1404
4,74,100,0
4,70,100,0
4,65,100,0
4,53,100,0
4,74,100,0
4,70,100,0
4,65,100,0
4,58,100,0
4,74,100,0
4,70,100,0
4,65,100,0
4,53,100,0
4,74,100,0
4,70,100,0
4,65,100,0
4,58,100,0
4,74,100,0
4,70,100,0
4,67,100,0
4,62,100,0
4,74,100,0
4,70,100,0
4,67,100,0
4,58,100,0
4,74,100,0
4,70,100,0
4,67,100,0
4,62,100,0
4,74,100,0
4,70,100,0
4,67,100,0
4,53,100,21120
4,53,100,0
4,55,100,0
4,57,100,0
4,53,100,11520
4,53,100,0
4,55,100,0
4,57,100,0
4,53,100,15360
4,53,100,0
4,55,100,0
4,57,100,0
4,53,127,60000
4,55,127,0
4,57,127,0
4,58,127,0
4,62,127,0
4,65,127,0
4,65,127,0
4,65,127,0
4,55,127,0
