track,note,velocity,time
1,67,75,40
1,70,75,40
1,75,60,40
1,67,0,900
1,70,0,0
1,67,60,0
1,70,60,0
1,67,0,60
1,70,0,0
1,75,0,0
1,65,60,0
1,70,60,0
1,74,60,0
1,65,0,240
1,70,0,0
1,74,0,0
1,67,60,0
1,70,60,0
1,75,60,0
1,67,0,120
1,70,0,0
1,75,0,0
1,65,60,0
1,70,60,0
1,74,60,0
1,65,0,240
1,70,0,0
1,74,0,0
1,67,60,0
1,70,60,0
1,75,60,0
1,67,0,240
1,70,0,0
1,75,0,0
1,63,60,0
1,68,60,0
1,70,60,0
1,63,0,240
1,68,0,0
1,70,0,0
1,63,60,0
1,68,60,0
1,72,60,0
1,63,0,600
1,68,0,0
1,72,0,0
1,62,60,0
1,68,60,80
1,70,60,80
1,62,0,1040
1,68,0,0
1,70,0,0
1,58,60,0
1,63,60,0
1,67,60,0
1,70,60,0
1,58,0,240
1,63,0,0
1,67,0,0
1,70,0,0
1,70,60,0
1,70,0,120
1,58,60,0
1,63,60,0
1,67,60,0
1,70,60,0
1,58,0,360
1,63,0,0
1,67,0,0
1,70,0,0
1,70,60,0
1,70,0,120
1,58,60,0
1,62,60,0
1,65,60,0
1,67,60,0
1,58,0,240
1,62,0,0
1,65,0,0
1,67,0,0
1,58,60,0
1,62,60,0
1,65,60,0
1,67,60,0
1,58,0,600
1,62,0,0
1,65,0,0
1,67,0,0
1,67,60,0
1,67,0,120
1,60,60,0
1,63,60,0
1,67,60,0
1,72,60,0
1,60,0,360
1,63,0,0
1,67,0,0
1,72,0,0
1,74,60,0
1,74,0,120
1,60,60,0
1,63,60,0
1,67,60,0
1,72,60,0
1,60,0,360
1,63,0,0
1,67,0,0
1,72,0,0
1,58,60,0
1,62,60,40
1,65,60,40
1,67,60,40
1,58,0,960
1,62,0,0
1,65,0,0
1,67,0,0
1,56,60,0
1,60,60,40
1,63,60,40
1,65,60,40
1,56,0,360
1,60,0,0
1,63,0,0
1,65,0,0
1,56,60,0
1,60,60,0
1,63,60,0
1,65,60,0
1,56,0,360
1,60,0,0
1,63,0,0
1,65,0,0
1,67,60,0
1,67,0,120
1,55,60,0
1,58,60,0
1,63,60,0
1,65,60,0
1,55,0,240
1,58,0,0
1,63,0,0
1,65,0,0
1,51,60,240
1,55,60,0
1,58,60,0
1,60,60,0
1,51,0,360
1,55,0,0
1,58,0,0
1,60,0,0
1,63,60,0
1,63,0,120
1,55,60,0
1,56,60,0
1,60,60,0
1,63,60,0
1,55,0,240
1,56,0,0
1,60,0,0
1,63,0,0
1,55,60,0
1,56,60,0
1,60,60,0
1,63,60,0
1,55,0,480
1,56,0,0
1,60,0,0
1,63,0,0
1,53,60,120
1,58,60,40
1,62,60,40
1,65,60,40
1,53,0,960
1,58,0,0
1,62,0,0
1,65,0,0
1,58,60,0
1,58,0,120
1,58,60,0
1,63,60,0
1,67,60,0
1,70,60,0
1,58,0,360
1,63,0,0
1,67,0,0
1,70,0,0
1,63,60,0
1,67,60,0
1,63,0,360
1,67,0,0
1,58,60,120
1,62,60,0
1,65,60,0
1,67,60,0
1,58,0,960
1,62,0,0
1,65,0,0
1,67,0,0
1,67,60,40
1,72,60,40
1,75,60,40
1,67,0,240
1,72,0,0
1,75,0,0
1,74,60,0
1,74,0,120
1,63,60,0
1,67,60,0
1,72,60,0
1,63,0,360
1,67,0,0
1,72,0,0
1,70,60,0
1,70,0,120
1,58,60,0
1,62,60,0
1,65,60,0
1,67,60,0
1,58,0,1080
1,62,0,0
1,65,0,0
1,67,0,0
1,56,60,0
1,60,60,0
1,63,60,0
1,65,60,0
1,56,0,240
1,60,0,0
1,63,0,0
1,65,0,0
1,60,60,0
1,63,60,0
1,65,60,0
1,60,0,120
1,63,0,0
1,65,0,0
1,56,60,0
1,60,60,0
1,63,60,0
1,65,60,0
1,56,0,240
1,60,0,0
1,63,0,0
1,65,0,0
1,65,60,0
1,72,60,0
1,65,0,240
1,72,0,0
1,58,60,0
1,65,60,0
1,70,60,0
1,58,0,240
1,65,0,0
1,70,0,0
1,58,60,0
1,62,60,0
1,65,60,0
1,67,60,0
1,58,0,480
1,62,0,0
1,65,0,0
1,67,0,0
1,63,75,0
1,63,0,120
1,65,75,0
1,65,0,120
1,56,75,0
1,60,75,0
1,63,75,0
1,65,75,0
1,56,0,1320
1,60,0,0
1,63,0,0
1,65,0,0
1,63,75,720
1,67,75,0
1,70,75,0
1,63,0,360
1,67,0,0
1,70,0,0
1,63,75,0
1,67,75,0
1,63,0,120
1,67,0,0
1,63,75,0
1,67,75,0
1,70,75,0
1,63,0,120
1,67,0,0
1,70,0,0
1,63,75,0
1,67,75,0
1,70,75,0
1,63,0,360
1,67,0,0
1,70,0,0
1,65,75,0
1,70,75,0
1,65,0,360
1,70,0,0
1,62,75,0
1,65,75,0
1,70,75,0
1,62,0,360
1,65,0,0
1,70,0,0
1,63,75,0
1,68,75,0
1,63,0,240
1,68,0,0
1,63,75,0
1,68,75,0
1,70,75,0
1,70,0,120
1,72,75,0
1,63,0,840
1,68,0,0
1,72,0,0
1,58,75,0
1,62,75,0
1,67,75,0
1,58,0,8
1,62,0,0
1,67,0,0
1,58,75,0
1,62,75,0
1,58,0,0
1,62,0,0
1,62,75,0
1,67,75,0
1,62,0,0
1,67,0,0
1,58,75,0
1,62,75,0
1,67,75,0
1,58,0,0
1,62,0,0
1,67,0,0
1,62,75,0
1,67,75,0
1,62,0,0
1,67,0,0
1,58,75,0
1,62,75,0
1,67,75,0
1,58,0,0
1,62,0,0
1,67,0,0
1,62,75,0
1,67,75,0
1,62,0,120
1,67,0,0
1,58,75,0
1,62,75,0
1,67,75,0
1,58,0,120
1,62,0,0
1,67,0,0
1,63,75,0
1,67,75,0
1,70,75,0
1,63,0,360
1,67,0,0
1,70,0,0
1,63,75,0
1,67,75,0
1,63,0,120
1,67,0,0
1,63,75,0
1,67,75,0
1,70,75,0
1,63,0,120
1,67,0,0
1,70,0,0
1,63,75,0
1,67,75,0
1,70,75,0
1,63,0,360
1,67,0,0
1,70,0,0
1,65,75,0
1,70,75,0
1,65,0,360
1,70,0,0
1,62,75,0
1,65,75,0
1,70,75,0
1,62,0,360
1,65,0,0
1,70,0,0
1,63,75,0
1,68,75,0
1,63,0,240
1,68,0,0
1,63,75,0
1,68,75,0
1,70,75,0
1,70,0,120
1,72,75,0
1,63,0,840
1,68,0,0
1,72,0,0
1,51,75,0
1,56,75,0
1,60,75,0
1,63,75,0
1,51,0,0
1,56,0,0
1,60,0,0
1,63,0,0
1,51,75,0
1,56,75,0
1,60,75,0
1,63,75,0
1,51,0,0
1,56,0,0
1,60,0,0
1,63,0,0
1,51,75,0
1,56,75,0
1,60,75,0
1,63,75,0
1,51,0,0
1,56,0,0
1,60,0,0
1,63,0,0
1,51,75,0
1,56,75,0
1,60,75,0
1,63,75,0
1,51,0,0
1,56,0,0
1,60,0,0
1,63,0,0
1,53,75,0
1,58,75,0
1,62,75,0
1,65,75,0
1,53,0,240
1,58,0,0
1,62,0,0
1,65,0,0
1,55,75,0
1,60,75,0
1,63,75,0
1,67,75,0
1,55,0,480
1,60,0,0
1,63,0,0
1,67,0,0
1,67,75,0
1,72,75,0
1,67,0,360
1,72,0,0
1,65,75,0
1,70,75,0
1,65,0,240
1,70,0,0
1,65,75,0
1,70,75,0
1,65,0,240
1,70,0,0
1,63,75,0
1,67,75,0
1,63,0,360
1,67,0,0
1,60,75,120
1,67,75,0
1,60,0,480
1,67,0,0
1,60,75,0
1,67,75,0
1,60,0,360
1,67,0,0
1,63,75,0
1,63,0,120
1,65,75,0
1,65,0,120
1,53,75,0
1,56,75,0
1,59,75,0
1,63,75,0
1,53,0,720
1,56,0,0
1,59,0,0
1,63,0,0
1,63,75,0
1,63,0,120
1,65,75,0
1,65,0,120
1,58,75,0
1,60,75,0
1,63,75,0
1,67,75,0
1,58,0,240
1,60,0,0
1,63,0,0
1,67,0,0
1,58,75,0
1,60,75,0
1,63,75,0
1,58,0,360
1,60,0,0
1,63,0,0
1,58,75,2220
1,58,0,60
1,58,75,0
1,63,75,0
1,58,0,960
1,63,0,0
1,65,75,0
1,70,75,0
1,74,75,0
1,65,0,240
1,70,0,0
1,74,0,0
1,67,75,0
1,70,75,0
1,75,75,0
1,67,0,120
1,70,0,0
1,75,0,0
1,65,75,0
1,70,75,0
1,74,75,0
1,65,0,240
1,70,0,0
1,74,0,0
1,67,75,0
1,70,75,0
1,75,75,0
1,67,0,240
1,70,0,0
1,75,0,0
1,63,75,0
1,68,75,0
1,70,75,0
1,63,0,240
1,68,0,0
1,70,0,0
1,63,75,0
1,68,75,0
1,72,75,0
1,63,0,600
1,68,0,0
1,72,0,0
1,62,75,0
1,68,75,80
1,70,75,80
1,62,0,1040
1,68,0,0
1,70,0,0
1,58,60,0
1,63,60,0
1,67,60,0
1,70,60,0
1,58,0,240
1,63,0,0
1,67,0,0
1,70,0,0
1,70,60,0
1,70,0,120
1,58,60,0
1,63,60,0
1,67,60,0
1,70,60,0
1,58,0,360
1,63,0,0
1,67,0,0
1,70,0,0
1,70,60,0
1,70,0,120
1,58,60,0
1,62,60,0
1,65,60,0
1,67,60,0
1,58,0,240
1,62,0,0
1,65,0,0
1,67,0,0
1,58,60,0
1,62,60,0
1,65,60,0
1,67,60,0
1,58,0,600
1,62,0,0
1,65,0,0
1,67,0,0
1,67,60,0
1,67,0,120
1,60,60,0
1,63,60,0
1,67,60,0
1,72,60,0
1,60,0,360
1,63,0,0
1,67,0,0
1,72,0,0
1,74,60,0
1,74,0,120
1,60,60,0
1,63,60,0
1,67,60,0
1,72,60,0
1,60,0,360
1,63,0,0
1,67,0,0
1,72,0,0
1,58,60,0
1,62,60,40
1,65,60,40
1,67,60,40
1,58,0,960
1,62,0,0
1,65,0,0
1,67,0,0
1,56,60,40
1,60,60,0
1,63,60,40
1,65,60,40
1,56,0,360
1,60,0,0
1,63,0,0
1,65,0,0
1,56,60,0
1,60,60,0
1,63,60,0
1,65,60,0
1,56,0,360
1,60,0,0
1,63,0,0
1,65,0,0
1,67,60,0
1,67,0,120
1,55,60,0
1,58,60,0
1,63,60,0
1,65,60,0
1,55,0,240
1,58,0,0
1,63,0,0
1,65,0,0
1,51,60,240
1,55,60,0
1,58,60,0
1,60,60,0
1,51,0,360
1,55,0,0
1,58,0,0
1,60,0,0
1,63,60,0
1,63,0,120
1,55,60,0
1,56,60,0
1,60,60,0
1,63,60,0
1,55,0,240
1,56,0,0
1,60,0,0
1,63,0,0
1,55,60,0
1,56,60,0
1,60,60,0
1,63,60,0
1,55,0,480
1,56,0,0
1,60,0,0
1,63,0,0
1,53,60,120
1,58,60,40
1,62,60,40
1,65,60,40
1,53,0,960
1,58,0,0
1,62,0,0
1,65,0,0
1,58,60,0
1,58,0,120
1,58,60,0
1,63,60,0
1,67,60,0
1,70,60,0
1,58,0,360
1,63,0,0
1,67,0,0
1,70,0,0
1,63,60,0
1,67,60,0
1,63,0,360
1,67,0,0
1,58,60,120
1,62,60,0
1,65,60,0
1,67,60,0
1,58,0,960
1,62,0,0
1,65,0,0
1,67,0,0
1,67,60,40
1,72,60,40
1,75,60,40
1,67,0,240
1,72,0,0
1,75,0,0
1,74,60,0
1,74,0,120
1,63,60,0
1,67,60,0
1,72,60,0
1,63,0,360
1,67,0,0
1,72,0,0
1,70,60,0
1,70,0,120
1,58,60,0
1,62,60,0
1,65,60,0
1,67,60,0
1,58,0,1080
1,62,0,0
1,65,0,0
1,67,0,0
1,56,60,0
1,60,60,0
1,63,60,0
1,65,60,0
1,56,0,240
1,60,0,0
1,63,0,0
1,65,0,0
1,60,60,0
1,63,60,0
1,65,60,0
1,60,0,120
1,63,0,0
1,65,0,0
1,56,60,0
1,60,60,0
1,63,60,0
1,65,60,0
1,56,0,240
1,60,0,0
1,63,0,0
1,65,0,0
1,65,60,0
1,72,60,0
1,65,0,240
1,72,0,0
1,58,60,0
1,65,60,0
1,70,60,0
1,58,0,240
1,65,0,0
1,70,0,0
1,58,60,0
1,62,60,0
1,65,60,0
1,67,60,0
1,58,0,480
1,62,0,0
1,65,0,0
1,67,0,0
1,63,75,0
1,63,0,120
1,65,75,0
1,65,0,120
1,56,75,0
1,60,75,0
1,63,75,0
1,65,75,0
1,56,0,1320
1,60,0,0
1,63,0,0
1,65,0,0
1,63,75,720
1,67,75,0
1,70,75,0
1,63,0,360
1,67,0,0
1,70,0,0
1,63,75,0
1,67,75,0
1,63,0,120
1,67,0,0
1,63,75,0
1,67,75,0
1,70,75,0
1,63,0,120
1,67,0,0
1,70,0,0
1,63,75,0
1,67,75,0
1,70,75,0
1,63,0,360
1,67,0,0
1,70,0,0
1,65,75,0
1,70,75,0
1,65,0,360
1,70,0,0
1,62,75,0
1,65,75,0
1,70,75,0
1,62,0,360
1,65,0,0
1,70,0,0
1,63,75,0
1,68,75,0
1,63,0,240
1,68,0,0
1,63,75,0
1,68,75,0
1,70,75,0
1,70,0,120
1,72,75,0
1,63,0,840
1,68,0,0
1,72,0,0
1,58,75,0
1,62,75,0
1,67,75,0
1,58,0,8
1,62,0,0
1,67,0,0
1,58,75,0
1,62,75,0
1,58,0,0
1,62,0,0
1,62,75,0
1,67,75,0
1,62,0,0
1,67,0,0
1,58,75,0
1,62,75,0
1,67,75,0
1,58,0,0
1,62,0,0
1,67,0,0
1,62,75,0
1,67,75,0
1,62,0,0
1,67,0,0
1,58,75,0
1,62,75,0
1,67,75,0
1,58,0,0
1,62,0,0
1,67,0,0
1,62,75,0
1,67,75,0
1,62,0,120
1,67,0,0
1,58,75,0
1,62,75,0
1,67,75,0
1,58,0,120
1,62,0,0
1,67,0,0
1,63,75,0
1,67,75,0
1,70,75,0
1,63,0,360
1,67,0,0
1,70,0,0
1,63,75,0
1,67,75,0
1,63,0,120
1,67,0,0
1,63,75,0
1,67,75,0
1,70,75,0
1,63,0,120
1,67,0,0
1,70,0,0
1,63,75,0
1,67,75,0
1,70,75,0
1,63,0,360
1,67,0,0
1,70,0,0
1,65,75,0
1,70,75,0
1,65,0,360
1,70,0,0
1,62,75,0
1,65,75,0
1,70,75,0
1,62,0,360
1,65,0,0
1,70,0,0
1,63,75,0
1,68,75,0
1,63,0,240
1,68,0,0
1,63,75,0
1,68,75,0
1,70,75,0
1,70,0,120
1,72,75,0
1,63,0,840
1,68,0,0
1,72,0,0
1,51,75,0
1,56,75,0
1,60,75,0
1,63,75,0
1,51,0,0
1,56,0,0
1,60,0,0
1,63,0,0
1,51,75,0
1,56,75,0
1,60,75,0
1,63,75,0
1,51,0,0
1,56,0,0
1,60,0,0
1,63,0,0
1,51,75,0
1,56,75,0
1,60,75,0
1,63,75,0
1,51,0,0
1,56,0,0
1,60,0,0
1,63,0,0
1,51,75,0
1,56,75,0
1,60,75,0
1,63,75,0
1,51,0,0
1,56,0,0
1,60,0,0
1,63,0,0
1,53,75,0
1,58,75,0
1,62,75,0
1,65,75,0
1,53,0,240
1,58,0,0
1,62,0,0
1,65,0,0
1,55,75,0
1,60,75,0
1,63,75,0
1,67,75,0
1,55,0,480
1,60,0,0
1,63,0,0
1,67,0,0
1,67,75,0
1,72,75,0
1,67,0,360
1,72,0,0
1,65,75,0
1,70,75,0
1,65,0,240
1,70,0,0
1,65,75,0
1,70,75,0
1,65,0,240
1,70,0,0
1,63,75,0
1,67,75,0
1,63,0,360
1,67,0,0
1,60,75,120
1,67,75,0
1,60,0,480
1,67,0,0
1,60,75,0
1,67,75,0
1,60,0,360
1,67,0,0
1,63,75,0
1,63,0,120
1,65,75,0
1,65,0,120
1,53,75,0
1,56,75,0
1,59,75,0
1,63,75,0
1,53,0,720
1,56,0,0
1,59,0,0
1,63,0,0
1,63,75,0
1,63,0,120
1,65,75,0
1,65,0,120
1,58,75,0
1,60,75,0
1,63,75,0
1,67,75,0
1,58,0,240
1,60,0,0
1,63,0,0
1,67,0,0
1,58,75,0
1,60,75,0
