track,note,velocity,time
0,42,60,1120
0,42,0,10
0,42,45,182
0,42,0,10
0,42,47,182
0,42,0,10
0,42,45,182
0,42,0,10
0,53,82,165
0,58,82,0
0,62,82,0
0,35,108,16
0,42,79,0
0,49,61,0
0,34,105,1
0,62,96,1
0,58,97,1
0,58,85,0
0,62,91,0
0,58,77,1
0,62,83,0
0,53,97,0
0,50,80,0
0,53,82,0
0,50,72,1
0,53,74,0
0,50,96,0
0,46,97,1
0,42,0,4
0,35,0,0
0,50,0,79
0,50,0,1
0,53,0,0
0,53,0,1
0,62,0,0
0,58,0,0
0,58,0,1
0,34,0,0
0,62,0,0
0,62,0,4
0,34,99,0
0,35,96,0
0,42,49,0
0,58,0,1
0,53,0,1
0,62,88,0
0,58,88,1
0,58,79,0
0,62,86,0
0,50,0,1
0,58,71,0
0,62,78,0
0,53,88,0
0,50,73,0
0,53,76,0
0,46,0,1
0,50,65,0
0,53,68,0
0,50,85,0
0,46,84,1
0,35,0,4
0,42,0,0
0,62,0,64
0,58,0,0
0,53,0,11
0,50,0,1
0,46,0,1
0,54,76,8
0,38,97,1
0,42,79,0
0,62,67,2
0,58,67,1
0,53,67,1
0,50,67,1
0,46,67,1
0,54,0,3
0,42,0,1
0,38,0,0
0,34,0,5
0,62,0,19
0,58,0,2
0,53,0,1
0,50,0,1
0,46,0,1
0,50,0,29
0,50,0,1
0,53,0,0
0,58,0,0
0,53,0,1
0,62,0,0
0,58,0,0
0,62,0,1
0,58,0,7
0,53,0,0
0,62,0,0
0,55,82,2
0,59,82,0
0,62,82,0
0,35,108,16
0,42,50,0
0,57,61,0
0,31,99,1
0,62,90,1
0,59,89,1
0,59,79,0
0,62,88,0
0,59,71,1
0,62,80,0
0,55,91,0
0,50,77,0
0,55,79,0
0,50,69,1
0,55,71,0
0,50,91,0
0,43,92,1
0,42,0,4
0,35,0,0
0,42,79,86
0,42,0,10
0,31,0,84
0,50,0,1
0,55,0,1
0,62,0,0
0,50,0,0
0,59,0,0
0,35,96,0
0,46,61,0
0,55,0,1
0,59,0,0
0,59,0,0
0,62,0,0
0,31,99,0
0,62,0,1
0,55,0,0
0,62,85,0
0,59,87,1
0,59,78,0
0,62,85,0
0,50,0,1
0,59,70,0
0,62,77,0
0,55,87,0
0,50,73,0
0,55,76,0
0,43,0,1
0,50,65,0
0,55,68,0
0,50,84,0
0,43,87,1
0,46,0,4
0,35,0,0
0,49,0,75
0,50,0,4
0,50,0,1
0,55,0,0
0,55,0,1
0,59,0,0
0,62,0,0
0,59,0,1
0,62,0,0
0,31,0,2
0,54,71,1
0,62,0,1
0,31,103,0
0,38,97,0
0,42,80,0
0,59,0,1
0,55,0,1
0,62,90,0
0,59,89,1
0,59,79,0
0,62,88,0
0,50,0,1
0,59,71,0
0,62,80,0
0,55,90,0
0,50,76,0
0,55,78,0
0,43,0,1
0,50,68,0
0,55,70,0
0,50,90,0
0,43,91,1
0,54,0,3
0,38,0,1
0,42,0,0
0,50,0,79
0,50,0,1
0,55,0,0
0,55,0,1
0,59,0,0
0,62,0,0
0,59,0,1
0,62,0,0
0,31,0,1
0,62,0,3
0,35,96,0
0,46,54,0
0,59,0,1
0,31,99,0
0,55,0,1
0,62,88,0
0,59,85,1
0,59,77,0
0,62,86,0
0,50,0,1
0,59,69,0
0,62,78,0
0,55,87,0
0,50,73,0
0,55,76,0
0,43,0,1
0,50,65,0
0,55,68,0
0,50,85,0
0,43,87,1
0,35,0,4
0,46,0,0
0,62,0,68
0,55,0,0
0,59,0,0
0,53,82,2
0,58,82,0
0,62,82,0
0,50,0,9
0,50,0,1
0,55,0,0
0,62,0,1
0,55,0,0
0,59,0,0
0,59,0,1
0,62,0,0
0,31,0,2
0,62,0,2
0,34,105,0
0,35,108,0
0,42,74,0
0,49,64,0
0,59,0,1
0,55,0,1
0,62,97,0
0,58,98,1
0,58,85,0
0,62,92,0
0,50,0,1
0,58,77,0
0,62,84,0
0,53,97,0
0,50,81,0
0,53,82,0
0,43,0,1
0,50,73,0
0,53,74,0
0,50,97,0
0,46,98,1
0,35,0,4
0,42,0,0
0,57,0,75
0,50,0,4
0,50,0,1
0,53,0,0
0,53,0,1
0,58,0,0
0,62,0,0
0,58,0,1
0,62,0,0
0,34,0,1
0,62,0,3
0,35,96,0
0,42,47,0
0,58,0,1
0,53,0,1
0,34,104,0
0,62,87,0
0,58,88,1
0,58,79,0
0,62,85,0
0,50,0,1
0,58,71,0
0,62,77,0
0,53,85,0
0,50,73,0
0,53,75,0
0,46,0,1
0,50,65,0
0,53,67,0
0,50,84,0
0,46,85,1
0,35,0,4
0,42,0,0
0,62,0,70
0,53,0,2
0,58,0,2
0,50,0,4
0,46,0,3
0,38,97,5
0,42,75,0
0,62,67,2
0,34,0,1
0,58,67,0
0,54,77,0
0,53,67,1
0,50,67,1
0,46,67,1
0,42,0,4
0,38,0,0
0,54,0,3
0,62,0,21
0,58,0,2
0,53,0,1
0,50,0,1
0,46,0,1
0,50,0,29
0,50,0,1
0,53,0,0
0,58,0,0
0,62,0,1
0,58,0,0
0,53,0,0
0,62,0,1
0,62,0,7
0,53,0,0
0,58,0,0
0,55,82,2
0,59,82,0
0,62,82,0
0,35,108,16
0,42,66,0
0,57,59,0
0,62,92,2
0,31,99,1
0,59,91,0
0,59,81,0
0,62,89,0
0,59,73,1
0,62,81,0
0,55,91,0
0,50,76,0
0,55,79,0
0,50,68,1
0,55,71,0
0,50,90,0
0,43,90,1
0,42,0,4
0,35,0,0
0,42,79,86
0,42,0,10
0,50,0,85
0,59,0,1
0,62,0,0
0,55,0,0
0,50,0,0
0,31,0,0
0,35,96,0
0,46,58,0
0,55,0,1
0,59,0,0
0,59,0,0
0,62,0,0
0,62,0,1
0,55,0,0
0,62,87,0
0,31,99,1
0,59,87,0
0,59,78,0
0,62,85,0
0,50,0,1
0,59,70,0
0,62,77,0
0,55,85,0
0,50,72,0
0,55,75,0
0,43,0,1
0,50,64,0
0,55,67,0
0,50,83,0
0,43,84,1
0,46,0,4
0,35,0,0
0,49,0,75
0,50,0,4
0,50,0,1
0,55,0,0
0,55,0,1
0,59,0,0
0,62,0,0
0,59,0,1
0,62,0,0
0,31,0,4
0,62,0,0
0,38,97,0
0,42,80,0
0,54,75,0
0,59,0,1
0,55,0,1
0,31,103,0
0,62,92,0
0,59,92,1
0,59,82,0
0,62,89,0
0,50,0,1
0,59,74,0
0,62,81,0
0,55,91,0
0,50,76,0
0,55,79,0
0,43,0,1
0,50,68,0
0,55,71,0
0,50,90,0
0,43,91,1
0,42,0,4
0,38,0,0
0,54,0,0
0,50,0,79
0,50,0,1
0,55,0,0
0,55,0,1
0,59,0,0
0,62,0,0
0,59,0,1
0,62,0,0
0,31,0,4
0,62,0,0
0,35,96,0
0,46,59,0
0,59,0,1
0,55,0,1
0,31,99,0
0,62,87,0
0,59,88,1
0,59,79,0
0,62,85,0
0,50,0,1
0,59,71,0
0,62,77,0
0,55,85,0
0,50,73,0
0,55,75,0
0,43,0,1
0,50,65,0
0,55,67,0
0,50,84,0
0,43,87,1
0,35,0,4
0,46,0,0
0,59,0,68
0,55,0,0
0,62,0,0
0,53,82,2
0,58,82,0
0,62,82,0
0,50,0,9
0,50,0,1
0,55,0,0
0,59,0,1
0,55,0,0
0,62,0,0
0,59,0,1
0,62,0,0
0,31,0,3
0,62,0,1
0,35,108,0
0,42,74,0
0,49,65,0
0,59,0,1
0,55,0,1
0,34,105,0
0,62,97,0
0,58,98,1
0,58,85,0
0,62,92,0
0,50,0,1
0,58,77,0
0,62,84,0
0,53,97,0
0,50,80,0
0,53,82,0
0,43,0,1
0,50,72,0
0,53,74,0
0,50,96,0
0,46,98,1
0,35,0,4
0,42,0,0
0,57,0,75
0,50,0,4
0,50,0,1
0,53,0,0
0,53,0,1
0,58,0,0
0,62,0,0
0,58,0,1
0,62,0,0
0,34,0,3
0,62,0,1
0,35,96,0
0,42,61,0
0,58,0,1
0,34,99,0
0,53,0,1
0,62,88,0
0,58,89,1
0,58,79,0
0,62,86,0
0,50,0,1
0,58,71,0
0,62,78,0
0,53,85,0
0,50,73,0
0,53,75,0
0,46,0,1
0,50,65,0
0,53,67,0
0,50,85,0
0,46,85,1
0,35,0,4
0,42,0,0
0,53,0,65
0,62,0,2
0,58,0,3
0,50,0,2
0,46,0,6
0,38,97,8
0,42,78,0
0,62,67,2
0,58,67,1
0,54,75,0
0,53,67,1
0,50,67,1
0,46,67,1
0,42,0,4
0,38,0,0
0,54,0,3
0,34,0,3
0,62,0,18
0,58,0,2
0,53,0,1
0,50,0,1
0,46,0,1
0,50,0,29
0,50,0,1
0,53,0,0
0,58,0,0
0,62,0,1
0,53,0,0
0,58,0,0
0,62,0,1
0,53,0,7
0,58,0,0
0,62,0,0
0,55,82,2
0,59,82,0
0,62,82,0
0,49,0,5
0,31,99,11
0,35,108,0
0,42,69,0
0,57,59,0
0,62,91,2
0,59,92,1
0,59,82,0
0,62,88,0
0,59,74,1
0,62,80,0
0,55,91,0
0,50,76,0
0,55,79,0
0,50,68,1
0,55,71,0
0,50,90,0
0,43,90,1
0,42,0,4
0,35,0,0
0,62,0,86
0,42,74,0
0,59,0,1
0,55,0,1
0,62,67,0
0,59,67,1
0,50,0,1
0,43,0,0
0,55,67,0
0,50,67,1
0,43,67,1
0,42,0,4
0,62,0,24
0,59,0,2
0,55,0,1
0,50,0,1
0,43,0,1
0,31,0,13
0,50,0,16
0,50,0,1
0,55,0,0
0,59,0,0
0,62,0,1
0,59,0,0
0,55,0,0
0,62,0,1
0,59,0,7
0,62,0,0
0,55,0,0
0,57,82,2
0,60,82,0
0,65,82,0
0,57,0,5
0,35,108,11
0,42,63,0
0,49,65,0
0,65,88,2
0,41,99,1
0,57,87,0
0,57,78,0
0,65,86,0
0,57,70,1
0,65,78,0
0,53,84,0
0,48,73,0
0,53,74,0
0,48,65,1
0,53,66,0
0,48,85,0
0,45,85,1
0,42,0,4
0,35,0,0
0,65,0,86
0,38,97,0
0,42,74,0
0,57,0,1
0,53,0,1
0,65,67,0
0,54,75,0
0,57,67,1
0,48,0,1
0,53,67,0
0,45,0,1
0,48,67,0
0,45,67,1
0,42,0,4
0,38,0,0
0,54,0,2
0,65,0,22
0,57,0,2
0,53,0,1
0,48,0,1
0,45,0,1
0,41,0,10
0,48,0,19
0,48,0,1
0,53,0,0
0,57,0,0
0,53,0,1
0,65,0,0
0,57,0,0
0,65,0,1
0,57,0,7
0,65,0,0
0,60,0,0
0,55,82,2
0,58,82,0
0,63,82,0
0,39,99,16
0,35,108,0
0,42,69,0
0,57,60,0
0,63,87,2
0,58,87,1
0,58,78,0
0,63,85,0
0,58,70,1
0,63,77,0
0,55,87,0
0,51,73,0
0,55,76,0
0,51,65,1
0,55,68,0
0,51,85,0
0,46,88,1
0,42,0,4
0,35,0,0
0,63,0,86
0,42,80,0
0,58,0,1
0,55,0,1
0,63,67,0
0,58,67,1
0,51,0,1
0,55,67,0
0,46,0,1
0,51,67,0
0,46,67,1
0,42,0,4
0,63,0,24
0,39,0,1
0,58,0,1
0,55,0,1
0,51,0,1
0,46,0,1
0,51,0,29
0,55,0,1
0,58,0,0
0,51,0,0
0,63,0,1
0,55,0,0
0,58,0,0
0,63,0,1
0,35,96,25
0,42,64,0
0,39,99,1
0,63,87,1
0,58,88,1
0,58,79,0
0,63,85,0
0,58,71,1
0,63,77,0
0,55,85,0
0,51,73,0
0,55,75,0
0,51,65,1
0,55,67,0
0,51,85,0
0,46,87,1
0,42,0,4
0,35,0,0
0,63,0,86
0,63,0,0
0,38,97,0
0,42,81,0
0,58,0,1
0,58,0,0
0,63,0,0
0,55,0,1
0,58,0,0
0,55,0,0
0,63,67,0
0,51,0,1
0,55,0,0
0,58,67,0
0,54,75,0
0,63,85,0
0,58,79,0
0,51,0,1
0,51,0,0
0,63,77,0
0,58,71,0
0,55,67,0
0,51,73,0
0,55,75,0
0,46,0,1
0,51,65,0
0,55,67,0
0,51,67,0
0,46,67,1
0,38,0,4
0,42,0,0
0,54,0,3
0,39,0,14
0,63,0,7
0,58,0,2
0,55,0,1
0,51,0,1
0,46,0,1
0,58,0,39
0,55,0,0
0,63,0,0
0,52,82,2
0,55,82,0
0,60,82,0
0,49,0,15
0,63,0,1
0,35,96,0
0,42,71,0
0,63,0,1
0,58,0,0
0,58,0,1
0,55,0,0
0,36,104,0
0,64,83,0
0,55,0,1
0,51,0,0
0,60,87,0
0,60,78,0
0,55,75,0
0,51,0,1
0,60,70,0
0,55,67,0
0,55,85,0
0,48,74,0
0,48,66,1
0,48,87,0
0,43,88,1
0,35,0,4
0,42,0,0
0,60,0,68
0,55,0,0
0,52,0,0
0,55,82,2
0,58,82,0
0,63,82,0
0,36,0,3
0,64,0,13
0,35,108,0
0,42,75,0
0,55,0,1
0,60,0,0
0,60,0,0
0,48,0,0
0,39,105,0
0,55,0,1
0,48,0,0
0,55,0,0
0,60,0,0
0,63,96,0
0,58,96,1
0,58,84,0
0,63,91,0
0,48,0,1
0,58,76,0
0,63,83,0
0,55,94,0
0,51,79,0
0,55,81,0
0,43,0,1
0,51,71,0
0,55,73,0
0,51,93,0
0,46,96,1
0,42,0,4
0,35,0,0
0,57,0,85
0,51,0,70
0,51,0,1
0,55,0,0
0,55,0,1
0,58,0,0
0,63,0,0
0,58,0,1
0,63,0,0
0,58,0,6
0,63,0,0
0,55,0,0
0,52,82,2
0,55,82,0
0,60,82,0
0,38,61,3
0,38,0,10
0,39,0,1
0,43,87,0
0,63,0,2
0,36,103,0
0,38,97,0
0,46,63,0
0,58,0,1
0,55,0,1
0,64,91,0
0,60,92,1
0,54,77,0
0,55,78,0
0,60,82,0
0,64,0,1
0,55,70,0
0,60,74,0
0,55,90,0
0,48,77,0
0,46,0,1
0,48,69,0
0,48,91,0
0,43,91,1
0,43,0,2
0,38,0,2
0,46,0,0
0,54,0,3
0,43,0,135
0,51,0,1
0,48,0,2
0,55,0,0
0,60,0,1
0,48,0,12
0,55,0,0
0,60,0,1
0,48,0,0
0,55,0,0
0,60,0,1
0,52,0,8
0,60,0,0
0,55,0,0
0,55,82,2
0,60,82,0
0,64,82,0
0,36,0,13
0,35,108,3
0,42,76,0
0,49,69,0
0,36,105,2
0,64,92,0
0,55,82,0
0,60,82,0
0,55,74,1
0,60,74,0
0,60,89,0
0,55,89,1
0,48,89,1
0,42,0,5
0,35,0,0
0,55,0,84
0,55,0,1
0,60,0,0
0,64,0,1
0,60,0,0
0,42,47,0
0,60,0,1
0,55,0,1
0,64,79,0
0,60,82,1
0,55,85,0
0,60,82,0
0,48,0,1
0,55,77,0
0,60,74,0
0,55,79,0
0,48,80,1
0,42,0,5
0,64,0,80
0,60,0,1
0,55,0,1
0,48,0,1
0,55,0,3
0,38,97,0
0,42,75,0
0,55,0,1
0,64,57,1
0,60,58,1
0,55,57,1
0,57,82,0
0,57,74,1
0,48,57,0
0,42,0,5
0,38,0,0
0,64,0,24
0,60,0,1
0,55,0,1
0,48,0,2
0,36,0,5
0,42,63,53
0,57,0,1
0,36,99,0
0,55,82,0
0,57,0,1
0,55,74,0
0,64,83,0
0,60,80,1
0,55,79,1
0,48,79,1
0,42,0,5
0,36,0,27
0,35,89,11
0,35,0,10
0,64,0,38
0,36,105,0
0,35,108,0
0,42,81,0
0,60,0,1
0,55,0,1
0,64,88,0
0,60,85,1
0,48,0,1
0,55,85,0
0,48,87,1
0,35,0,5
0,42,0,0
0,55,0,73
0,55,0,1
0,60,0,12
0,64,0,0
0,35,96,0
0,42,61,0
0,60,0,1
0,60,0,0
0,55,0,1
0,64,83,0
0,55,82,0
0,60,82,0
0,55,74,1
0,60,74,0
0,60,80,0
0,48,0,1
0,55,79,0
0,48,80,1
0,42,0,5
0,35,0,0
0,64,0,80
0,60,0,1
0,55,0,1
0,48,0,1
0,49,0,2
0,55,0,0
0,55,0,1
0,38,97,0
0,42,74,0
