track,note,velocity,time
0,59,122,954
0,59,122,0
0,59,0,1
0,31,127,5
0,43,127,0
0,67,122,0
0,59,127,0
0,43,127,0
0,49,104,0
0,43,127,0
0,35,120,1
0,42,114,0
0,62,100,1
0,62,100,0
0,62,0,1
0,67,100,7
0,67,100,0
0,67,0,1
0,49,0,21
0,42,0,4
0,35,0,0
0,70,66,13
0,59,0,23
0,70,0,13
0,62,0,5
0,67,0,0
0,59,127,0
0,59,127,0
0,59,0,1
0,42,54,6
0,62,127,1
0,62,127,0
0,62,0,1
0,59,127,1
0,67,127,6
0,67,127,0
0,67,0,1
0,42,0,26
0,82,56,12
0,82,0,24
0,59,0,1
0,67,0,16
0,62,0,0
0,59,100,0
0,59,100,0
0,59,0,1
0,62,127,5
0,67,127,0
0,71,127,0
0,42,114,1
0,40,120,0
0,62,100,1
0,62,100,0
0,62,0,1
0,55,127,1
0,59,0,2
0,67,100,4
0,67,100,0
0,67,0,1
0,43,0,22
0,43,0,0
0,43,0,0
0,31,0,0
0,42,0,3
0,40,0,0
0,62,0,12
0,67,0,0
0,71,0,0
0,59,0,26
0,62,0,12
0,59,127,4
0,59,127,0
0,59,0,1
0,67,0,3
0,31,116,2
0,43,116,0
0,43,116,0
0,35,120,0
0,43,116,0
0,42,54,1
0,62,127,1
0,62,127,0
0,62,0,1
0,67,127,1
0,67,127,6
0,67,127,0
0,67,0,1
0,55,0,3
0,42,0,23
0,35,0,0
0,59,0,41
0,62,0,8
0,59,100,4
0,59,100,0
0,59,0,1
0,67,0,3
0,38,127,2
0,50,127,0
0,50,127,0
0,50,127,0
0,31,0,1
0,43,0,0
0,43,0,0
0,43,0,0
0,35,120,0
0,42,114,0
0,62,100,1
0,62,100,0
0,62,0,1
0,67,100,7
0,67,100,0
0,67,0,1
0,35,0,25
0,42,0,0
0,59,0,42
0,62,0,8
0,59,127,4
0,59,127,0
0,59,0,1
0,67,0,3
0,42,54,2
0,62,127,2
0,62,127,0
0,62,0,1
0,67,127,7
0,67,127,0
0,67,0,1
0,42,0,26
0,82,44,12
0,82,0,28
0,59,0,1
0,62,0,8
0,59,100,4
0,59,100,0
0,59,0,1
0,67,0,3
0,67,127,2
0,71,127,0
0,62,127,0
0,40,120,1
0,42,114,0
0,62,100,1
0,62,100,0
0,62,0,1
0,67,100,7
0,67,100,0
0,67,0,1
0,42,0,25
0,40,0,0
0,71,0,12
0,67,0,0
0,62,0,0
0,59,0,30
0,62,0,8
0,59,127,4
0,59,127,0
0,59,0,1
0,67,0,3
0,42,54,2
0,62,127,2
0,62,127,0
0,62,0,1
0,67,127,7
0,67,127,0
0,67,0,1
0,42,0,26
0,70,62,12
0,70,0,28
0,59,0,1
0,62,0,8
0,59,105,4
0,59,105,0
0,59,0,1
0,67,0,3
0,31,127,2
0,43,127,0
0,43,127,0
0,43,127,0
0,42,114,1
0,35,120,0
0,50,0,1
0,38,0,0
0,50,0,0
0,50,0,0
0,62,100,0
0,62,100,0
0,62,0,1
0,67,0,1
0,67,100,6
0,67,100,0
0,67,0,1
0,42,0,25
0,35,0,0
0,70,66,13
0,59,0,23
0,70,0,13
0,62,0,1
0,59,127,4
0,59,127,0
0,59,0,1
0,67,0,3
0,42,54,3
0,62,127,1
0,62,127,0
0,62,0,1
0,59,127,1
0,67,127,6
0,67,127,0
0,67,0,1
0,42,0,26
0,82,56,12
0,82,0,24
0,59,0,5
0,62,0,8
0,59,100,4
0,59,100,0
0,59,0,1
0,67,0,3
0,62,127,2
0,71,127,0
0,67,127,0
0,42,114,1
0,40,120,0
0,62,100,1
0,62,100,0
0,62,0,1
0,55,127,1
0,59,0,2
0,67,100,4
0,67,100,0
0,67,0,1
0,42,0,24
0,40,0,0
0,67,0,12
0,71,0,0
0,62,0,0
0,43,0,3
0,31,0,0
0,43,0,0
0,43,0,0
0,59,0,27
0,62,0,8
0,59,127,4
0,59,127,0
0,59,0,1
0,59,0,2
0,67,0,1
0,67,0,2
0,31,122,0
0,43,122,0
0,43,122,0
0,35,120,0
0,43,122,0
0,42,54,1
0,62,127,1
0,62,127,0
0,62,0,1
0,67,127,1
0,67,127,6
0,67,127,0
0,67,0,1
0,55,0,3
0,42,0,23
0,35,0,0
0,59,0,41
0,62,0,8
0,43,0,3
0,43,0,0
0,43,0,0
0,31,0,0
0,59,127,1
0,59,127,0
0,59,0,1
0,67,0,2
0,43,127,2
0,55,127,0
0,59,116,0
0,67,122,0
0,55,127,0
0,55,127,0
0,42,114,1
0,35,120,0
0,62,127,1
0,62,127,0
0,62,0,1
0,67,127,7
0,67,127,0
0,67,0,1
0,42,0,25
0,35,0,0
0,55,0,60
0,43,0,0
0,55,0,0
0,55,0,0
0,59,0,0
0,67,0,0
0,42,54,0
0,62,0,2
0,59,0,4
0,67,0,4
0,42,0,27
0,82,44,12
0,82,0,28
0,57,127,13
0,57,127,0
0,57,0,1
0,42,127,5
0,54,127,0
0,57,119,0
0,66,122,0
0,54,127,0
0,66,127,0
0,62,127,0
0,69,127,0
0,54,127,0
0,42,114,1
0,40,120,0
0,62,127,1
0,62,127,0
0,62,0,1
0,66,127,7
0,66,127,0
0,66,0,1
0,40,0,25
0,42,0,0
0,62,0,12
0,66,0,0
0,69,0,0
0,54,0,48
0,66,0,0
0,54,0,0
0,54,0,0
0,66,0,0
0,42,0,0
0,57,0,0
0,42,54,0
0,62,0,2
0,57,0,4
0,42,0,31
0,70,62,12
0,70,0,28
0,59,122,13
0,59,122,0
0,59,0,1
0,40,127,5
0,52,127,0
0,64,127,0
0,59,127,0
0,67,127,0
0,52,127,0
0,57,104,0
0,52,127,0
0,42,114,1
0,35,120,0
0,64,100,1
0,64,100,0
0,64,0,1
0,67,0,1
0,67,100,6
0,67,100,0
0,67,0,1
0,57,0,13
0,42,0,4
0,35,0,0
0,70,66,13
0,59,0,23
0,70,0,13
0,64,0,5
0,67,0,0
0,59,127,0
0,59,127,0
0,59,0,1
0,42,54,6
0,64,127,1
0,64,127,0
0,64,0,1
0,59,127,1
0,67,127,6
0,67,127,0
0,67,0,1
0,42,0,26
0,82,56,12
0,82,0,24
0,59,0,1
0,64,0,16
0,67,0,0
0,59,100,0
0,59,100,0
0,59,0,1
0,64,127,5
0,71,127,0
0,67,127,0
0,42,114,1
0,40,120,0
0,64,100,1
0,64,100,0
0,64,0,1
0,55,127,1
0,59,0,2
0,67,100,4
0,67,100,0
0,67,0,1
0,40,0,25
0,42,0,0
0,40,0,9
0,52,0,0
0,52,0,0
0,52,0,0
0,64,0,3
0,71,0,0
0,67,0,0
0,59,0,26
0,64,0,12
0,59,127,4
0,59,127,0
0,59,0,1
0,67,0,3
0,40,122,2
0,52,122,0
0,52,122,0
0,35,120,0
0,52,122,0
0,42,54,1
0,64,127,1
0,64,127,0
0,64,0,1
0,67,127,1
0,67,127,6
0,67,127,0
0,67,0,1
0,55,0,3
0,42,0,23
0,35,0,0
0,59,0,41
0,64,0,8
0,59,100,4
0,59,100,0
0,59,0,1
0,67,0,3
0,35,127,2
0,47,127,0
0,47,127,0
0,47,127,0
0,42,114,1
0,35,120,0
0,64,100,1
0,64,100,0
0,64,0,1
0,52,0,7
0,52,0,0
0,40,0,0
0,52,0,0
0,67,100,0
0,67,100,0
0,67,0,1
0,42,0,25
0,35,0,0
0,59,0,42
0,64,0,8
0,59,127,4
0,59,127,0
0,59,0,1
0,67,0,3
0,42,54,2
0,64,127,2
0,64,127,0
0,64,0,1
0,67,127,7
0,67,127,0
0,67,0,1
0,42,0,26
0,82,44,12
0,82,0,28
0,59,0,1
0,64,0,8
0,59,100,4
0,59,100,0
0,59,0,1
0,67,0,3
0,71,127,2
0,64,127,0
0,67,127,0
0,40,120,1
0,42,114,0
0,64,100,1
0,64,100,0
0,64,0,1
0,67,100,7
0,67,100,0
0,67,0,1
0,42,0,25
0,40,0,0
0,71,0,12
0,64,0,0
0,67,0,0
0,59,0,30
0,64,0,8
0,59,127,4
0,59,127,0
0,59,0,1
0,67,0,3
0,42,54,2
0,64,127,2
0,64,127,0
0,64,0,1
0,67,127,7
0,67,127,0
0,67,0,1
0,42,0,26
0,70,62,12
0,70,0,28
0,47,0,1
0,59,0,0
0,35,0,0
0,47,0,0
0,47,0,0
0,64,0,8
0,59,105,4
0,59,105,0
0,59,0,1
0,67,0,3
0,40,127,2
0,52,127,0
0,52,127,0
0,52,127,0
0,64,100,2
0,64,100,0
0,35,120,0
0,42,114,0
0,64,0,1
0,67,0,1
0,67,100,6
0,67,100,0
0,67,0,1
0,42,0,25
0,35,0,0
0,70,66,13
0,59,0,23
0,70,0,13
0,64,0,1
0,59,127,4
0,59,127,0
0,59,0,1
0,67,0,3
0,42,54,3
0,64,127,1
0,64,127,0
0,64,0,1
0,59,127,1
0,67,127,6
0,67,127,0
0,67,0,1
0,42,0,26
0,82,56,12
0,82,0,24
0,59,0,5
0,64,0,5
0,59,100,4
0,59,100,0
0,59,0,1
0,67,0,3
0,71,127,2
0,64,127,0
0,67,127,0
0,40,120,1
0,42,114,0
0,64,100,1
0,64,100,0
0,64,0,1
0,55,127,1
0,59,0,2
0,67,100,4
0,67,100,0
0,67,0,1
0,42,0,25
0,40,0,0
0,64,0,12
0,71,0,0
0,67,0,0
0,52,0,21
0,52,0,0
0,40,0,0
0,52,0,0
0,67,0,1
0,64,0,2
0,59,0,1
0,59,0,5
0,64,0,8
0,59,127,4
0,59,127,0
0,59,0,1
0,67,0,3
0,40,127,2
0,52,127,0
0,52,127,0
0,52,127,0
0,35,120,1
0,42,54,0
0,64,127,1
0,64,127,0
0,64,0,1
0,67,127,1
0,67,127,6
0,67,127,0
0,67,0,1
0,55,0,3
0,42,0,23
0,35,0,0
0,52,0,10
0,52,0,0
0,52,0,0
0,40,0,0
0,59,0,31
0,64,0,8
0,59,127,1
0,59,127,0
0,59,0,1
0,67,0,3
0,40,127,2
0,52,127,0
0,64,127,0
0,59,119,0
0,67,127,0
0,52,127,0
0,52,127,0
0,40,120,1
0,35,120,0
0,64,127,1
0,64,127,0
0,42,114,0
0,64,0,1
0,67,127,7
0,67,127,0
0,67,0,1
0,40,0,25
0,35,0,0
0,42,0,1
0,40,120,12
0,40,0,35
0,67,0,12
0,52,0,0
0,40,0,0
0,52,0,0
0,52,0,0
0,64,0,0
0,59,0,0
0,40,120,0
0,42,54,1
0,64,0,1
0,59,0,4
0,67,0,4
0,42,0,27
0,40,0,0
0,40,120,12
0,82,44,0
0,82,0,28
0,40,0,8
0,57,127,5
0,57,127,0
0,57,0,1
0,38,122,5
0,50,122,0
0,57,116,0
0,66,127,0
0,50,122,0
0,62,127,0
0,69,127,0
0,66,127,0
0,50,122,0
0,40,120,1
0,42,114,0
0,62,127,1
0,62,127,0
0,62,0,1
0,66,127,7
0,66,127,0
0,66,0,1
0,42,0,25
0,40,0,0
0,69,0,12
0,62,0,0
0,66,0,0
0,40,120,1
0,40,0,35
0,38,0,12
0,50,0,0
0,50,0,0
0,50,0,0
0,66,0,0
0,66,0,0
0,57,0,0
0,40,120,0
0,42,54,1
0,62,0,1
0,57,0,4
0,40,0,31
0,42,0,0
0,70,62,12
0,70,0,28
0,59,122,13
0,59,122,0
0,59,0,1
0,31,127,1
0,43,127,0
0,59,127,0
0,67,127,0
0,43,127,0
0,49,104,0
0,43,127,0
0,35,120,1
0,42,114,0
0,62,100,1
0,62,100,0
0,62,0,1
0,67,0,1
0,67,100,6
0,67,100,0
0,67,0,1
0,49,0,21
0,42,0,4
0,35,0,0
0,70,66,13
0,59,0,23
0,70,0,13
0,62,0,5
0,67,0,0
0,59,127,0
0,59,127,0
0,59,0,1
0,42,54,6
0,62,127,1
0,62,127,0
0,62,0,1
0,59,127,1
0,67,127,6
0,67,127,0
0,67,0,1
0,42,0,26
0,82,56,12
0,82,0,24
0,59,0,1
0,67,0,16
0,62,0,0
0,59,100,0
0,59,100,0
0,59,0,1
0,71,127,5
0,67,127,0
0,62,127,0
0,42,114,1
0,40,120,0
0,62,100,1
0,62,100,0
0,62,0,1
0,55,127,1
0,59,0,2
0,67,100,4
0,67,100,0
0,67,0,1
0,43,0,22
0,43,0,0
0,31,0,0
0,43,0,0
0,42,0,3
0,40,0,0
0,71,0,12
0,67,0,0
0,62,0,0
0,59,0,26
0,62,0,12
0,59,127,4
0,59,127,0
0,59,0,1
0,67,0,3
0,31,116,2
0,43,116,0
0,43,116,0
0,35,120,0
0,43,116,0
0,42,54,1
0,62,127,1
0,62,127,0
0,62,0,1
0,67,127,1
0,67,127,6
0,67,127,0
0,67,0,1
0,55,0,3
0,42,0,23
0,35,0,0
0,59,0,18
0,67,0,7
0,43,0,2
0,31,0,0
0,43,0,0
0,43,0,0
0,59,0,14
0,62,0,8
0,59,100,4
0,59,100,0
0,59,0,1
0,67,0,3
0,31,127,2
0,43,127,0
0,62,76,0
0,59,76,0
0,43,127,0
0,43,127,0
0,42,114,1
0,35,120,0
0,62,100,1
0,62,100,0
0,62,0,1
0,67,100,7
0,67,100,0
0,67,0,1
0,42,0,18
0,35,0,0
0,67,78,12
0,62,0,4
0,59,0,8
0,59,0,18
0,62,0,8
0,59,127,4
0,59,127,0
0,59,0,1
0,67,0,3
0,71,80,2
0,42,54,0
0,62,127,2
0,62,127,0
0,62,0,1
0,67,0,4
0,67,127,3
0,67,127,0
0,67,0,1
0,42,0,26
0,71,0,5
0,67,83,6
0,62,83,0
0,82,44,1
0,82,0,28
0,59,0,1
0,62,0,8
0,59,100,4
0,59,100,0
0,59,0,1
0,67,0,3
0,71,85,2
0,62,127,0
0,67,127,0
0,71,127,0
0,42,114,1
0,40,120,0
0,62,100,1
0,62,100,0
0,62,0,1
0,62,0,4
0,67,0,1
0,67,100,2
0,67,100,0
0,67,0,1
0,40,0,25
0,42,0,0
0,67,0,12
0,62,0,0
0,71,0,0
0,74,87,0
0,71,0,12
0,59,0,18
0,62,0,8
0,59,127,4
0,59,127,0
0,59,0,1
0,74,0,1
0,67,0,2
0,71,89,2
0,67,89,0
0,42,54,0
0,62,127,2
0,62,127,0
0,62,0,1
0,67,127,7
0,67,127,0
0,67,0,1
0,42,0,26
0,74,91,11
0,70,62,1
0,67,0,4
0,71,0,5
0,70,0,19
0,59,0,1
0,62,0,8
0,59,122,4
0,59,122,0
0,59,0,1
0,67,0,3
0,31,0,2
0,43,0,0
0,43,0,0
0,43,0,0
0,31,127,0
0,43,127,0
0,79,93,0
0,43,127,0
0,43,127,0
0,35,120,1
0,42,114,0
0,62,100,1
0,62,100,0
0,62,0,1
0,67,0,1
0,74,0,5
0,67,100,1
0,67,100,0
0,67,0,1
0,42,0,25
0,35,0,0
0,79,0,11
0,74,95,1
0,71,95,0
0,70,66,1
0,59,0,23
0,70,0,13
0,67,0,5
0,62,0,0
0,59,127,0
0,59,127,0
0,59,0,1
0,79,97,5
0,42,54,1
0,62,127,1
0,62,127,0
0,62,0,1
0,74,0,0
0,59,127,1
0,67,127,6
0,67,127,0
0,67,0,1
0,71,0,3
0,42,0,23
0,83,99,11
0,82,56,1
0,79,0,7
0,82,0,17
0,59,0,1
0,67,0,16
0,62,0,0
0,59,100,0
0,59,100,0
0,59,0,1
0,83,0,0
0,74,101,5
0,79,101,0
0,67,127,0
0,71,127,0
0,62,127,0
0,40,120,1
0,42,114,0
0,62,100,1
0,62,100,0
0,62,0,1
0,55,127,1
0,59,0,2
0,67,100,4
0,67,100,0
0,67,0,1
0,43,0,22
0,31,0,0
0,43,0,0
0,43,0,0
0,42,0,3
0,40,0,0
0,67,0,12
0,71,0,0
0,62,0,0
0,83,103,0
0,79,0,4
0,74,0,6
0,59,0,16
0,62,0,12
0,59,127,4
0,59,127,0
0,59,0,1
0,67,0,3
0,31,116,2
0,43,116,0
0,81,106,0
0,84,106,0
0,43,116,0
0,35,120,0
0,43,116,0
0,42,54,1
0,62,127,1
0,62,127,0
0,62,0,1
0,67,127,1
0,83,0,5
0,67,127,1
0,67,127,0
