track,note,velocity,time
1,31,67,12522
1,31,0,269
1,33,67,19
1,33,0,281
1,35,67,7
1,35,0,185
1,36,67,7
1,36,0,1492
1,35,67,44
1,35,0,760
1,36,67,8
1,36,0,382
1,28,67,2
1,28,0,377
1,29,67,7
1,29,0,622
1,29,67,50
1,29,0,10
1,26,67,86
1,26,0,622
1,26,67,50
1,26,0,10
1,31,67,86
1,31,0,638
1,38,67,34
1,38,0,32
1,43,67,64
1,42,38,485
1,43,0,1
1,41,34,35
1,42,0,15
1,40,30,28
1,41,0,8
1,39,25,31
1,40,0,12
1,38,21,29
1,39,0,10
1,37,17,31
1,38,0,10
1,36,12,32
1,37,0,9
1,24,77,32
1,36,0,10
1,24,0,653
1,31,77,9
1,31,0,46
1,36,77,50
1,36,0,734
1,36,77,34
1,36,0,709
1,36,77,59
1,28,77,480
1,36,0,1
1,28,0,285
1,29,77,2
1,29,0,614
1,29,77,58
1,29,0,27
1,26,77,69
1,26,0,718
1,31,77,50
1,31,0,1054
1,33,77,2
1,33,0,267
1,35,77,21
1,35,0,169
1,36,77,23
1,36,0,600
1,36,77,72
1,36,0,28
1,24,77,68
1,24,0,638
1,36,77,34
1,35,77,96
1,36,0,5
1,35,0,600
1,35,77,67
1,35,0,90
1,36,77,6
1,28,77,384
1,36,0,15
1,28,0,357
1,29,77,12
1,29,0,583
1,29,77,89
1,29,0,9
1,26,77,87
1,26,0,604
1,26,77,68
1,26,0,22
1,31,77,74
1,38,77,672
1,31,0,3
1,43,77,93
1,38,0,3
1,43,0,23
1,41,77,25
1,41,0,663
1,29,77,9
1,29,0,29
1,29,77,67
1,29,0,605
1,29,77,67
1,29,0,95
1,28,77,1
1,28,0,638
1,28,77,34
1,29,77,96
1,28,0,11
1,28,77,373
1,29,0,9
1,26,77,375
1,28,0,1
1,26,0,615
1,26,77,56
1,26,0,23
1,31,77,73
1,31,0,596
1,31,77,76
1,31,0,27
1,36,77,69
1,36,0,759
1,24,77,9
1,36,77,384
1,24,0,9
1,36,0,372
1,29,77,3
1,29,0,592
1,29,77,80
1,29,0,14
1,31,77,82
1,31,0,738
1,36,77,30
1,36,0,373
1,35,77,11
1,35,0,381
1,33,77,3
1,33,0,747
1,38,77,21
1,38,0,593
1,33,77,79
1,33,0,28
1,38,77,68
1,38,0,738
1,31,77,30
1,31,0,777
1,24,77,87
1,24,0,275
1,26,77,13
1,28,77,192
1,26,0,17
1,28,0,142
1,29,77,33
1,29,0,587
1,29,77,85
1,29,0,14
1,29,77,82
1,29,0,755
1,28,77,13
1,28,0,735
1,29,77,33
1,29,0,565
1,28,77,11
1,26,77,192
1,28,0,6
1,26,0,598
1,26,77,68
1,31,77,96
1,26,0,8
1,31,0,594
1,31,77,70
1,31,0,19
1,36,77,77
1,36,0,617
1,36,77,55
1,36,0,19
1,36,77,77
1,36,0,368
1,24,77,16
1,24,0,373
1,29,77,11
1,29,0,586
1,29,77,86
1,29,0,11
1,29,77,85
1,29,0,617
1,29,77,55
1,29,0,19
1,28,77,77
1,28,0,633
1,28,77,39
1,28,0,15
1,29,77,81
1,29,0,742
1,26,77,26
1,26,0,604
1,26,77,68
1,26,0,15
1,31,77,81
1,24,77,768
1,31,0,8
1,24,0,758
1,36,38,2
1,36,0,46
1,48,33,2
1,48,0,382
1,48,70,2
1,48,0,1518
1,24,77,18
1,24,0,663
1,31,77,9
1,31,0,46
1,36,77,50
1,36,0,734
1,36,77,34
1,36,0,709
1,36,77,59
1,28,77,480
1,36,0,1
1,28,0,285
1,29,77,2
1,29,0,614
1,29,77,58
1,29,0,27
1,26,77,69
1,26,0,718
1,31,77,50
1,31,0,1054
1,33,77,2
1,33,0,267
1,35,77,21
1,35,0,169
1,36,77,23
1,36,0,600
1,36,77,72
1,36,0,28
1,24,77,68
1,24,0,638
1,36,77,34
1,35,77,96
1,36,0,5
1,35,0,600
1,35,77,67
1,35,0,90
1,36,77,6
1,28,77,384
1,36,0,15
1,28,0,357
1,29,77,12
1,29,0,583
1,29,77,89
1,29,0,9
1,26,77,87
1,26,0,604
1,26,77,68
1,26,0,22
1,31,77,74
1,38,77,672
1,31,0,3
1,43,77,93
1,38,0,3
1,43,0,23
1,41,77,25
1,41,0,663
1,29,77,9
1,29,0,29
1,29,77,67
1,29,0,605
1,29,77,67
1,29,0,95
1,28,77,1
1,28,0,638
1,28,77,34
1,29,77,96
1,28,0,11
1,28,77,373
1,29,0,9
1,26,77,375
1,28,0,1
1,26,0,615
1,26,77,56
1,26,0,23
1,31,77,73
1,31,0,596
1,31,77,76
1,31,0,27
1,36,77,69
1,36,0,759
1,24,77,9
1,36,77,384
1,24,0,9
1,36,0,372
1,29,77,3
1,29,0,592
1,29,77,80
1,29,0,14
1,31,77,82
1,31,0,738
1,36,77,30
1,36,0,373
1,35,77,11
1,35,0,381
1,33,77,3
1,33,0,747
1,38,77,21
1,38,0,593
1,33,77,79
1,33,0,28
1,38,77,68
1,38,0,738
1,31,77,30
1,31,0,777
1,24,77,87
1,24,0,275
1,26,77,13
1,28,77,192
1,26,0,17
1,28,0,142
1,29,77,33
1,29,0,587
1,29,77,85
1,29,0,14
1,29,77,82
1,29,0,755
1,28,77,13
1,28,0,735
1,29,77,33
1,29,0,565
1,28,77,11
1,26,77,192
1,28,0,6
1,26,0,598
1,26,77,68
1,31,77,96
1,26,0,8
1,31,0,594
1,31,77,70
1,31,0,19
1,36,77,77
1,36,0,617
1,36,77,55
1,36,0,19
1,36,77,77
1,36,0,368
1,24,77,16
1,24,0,373
1,29,77,11
1,29,0,586
1,29,77,86
1,29,0,11
1,29,77,85
1,29,0,617
1,29,77,55
1,29,0,19
1,28,77,77
1,28,0,633
1,28,77,39
1,28,0,15
1,29,77,81
1,29,0,742
1,26,77,26
1,26,0,600
1,26,77,72
1,26,0,15
1,26,77,81
1,26,0,7
1,31,77,0
1,38,77,672
1,31,0,15
1,43,77,81
1,38,0,8
1,31,77,88
1,43,0,3
1,43,77,93
1,31,0,12
1,43,0,2
1,45,77,3
1,43,77,104
1,45,0,5
1,29,77,1
1,43,0,8
1,29,0,579
1,29,77,85
1,29,0,14
1,29,77,82
1,29,0,755
1,28,77,13
1,28,0,735
1,29,77,33
1,29,0,565
1,28,77,11
1,26,77,192
1,28,0,6
1,26,0,598
1,26,77,68
1,31,77,96
1,26,0,8
1,31,0,594
1,31,77,70
1,31,0,19
1,36,77,77
1,36,0,617
1,43,77,55
1,43,0,19
1,48,100,9
1,48,0,65
1,46,81,5
1,46,0,94
1,43,81,2
1,43,0,94
1,46,81,2
1,46,0,94
1,45,81,2
1,45,0,94
1,43,81,2
1,43,0,94
1,40,81,2
1,40,0,94
1,36,81,2
1,36,0,94
1,29,77,2
1,29,0,586
1,29,77,86
1,29,0,11
1,29,77,85
1,29,0,617
1,29,77,55
1,29,0,19
1,28,77,77
1,28,0,633
1,28,77,39
1,28,0,15
1,29,77,81
1,29,0,742
1,26,77,26
1,26,0,604
1,26,77,68
1,26,0,15
1,31,77,81
1,36,85,768
1,31,0,8
1,36,0,836
1,60,55,20
1,59,64,96
1,60,0,15
1,60,80,81
1,59,0,4
1,60,0,182
1,59,83,6
1,55,70,144
1,59,0,5
1,57,68,139
1,55,0,2
1,57,0,190
1,60,61,6
1,60,0,62
1,59,60,2
1,55,63,6
1,59,0,10
1,55,0,9
1,50,60,9
1,50,0,184
1,48,82,8
1,48,0,808
2,48,67,1118
2,60,75,0
2,67,98,0
2,72,112,44
2,72,0,94
2,76,120,2
2,67,0,94
2,76,0,0
2,67,84,2
2,74,112,0
2,74,0,190
2,76,120,2
2,67,0,4
2,76,0,0
2,67,100,2
2,72,110,34
2,72,0,94
2,76,120,2
2,67,0,94
2,76,0,0
2,67,84,2
2,74,111,0
2,74,0,190
2,76,120,2
2,76,0,94
2,72,110,2
2,48,0,176
2,60,0,0
2,67,0,14
2,72,0,0
2,48,57,2
2,60,62,0
2,67,98,0
2,72,112,44
2,72,0,94
2,76,120,2
2,67,0,94
2,76,0,0
2,67,84,2
2,74,112,0
2,74,0,190
2,76,120,2
2,67,0,4
2,76,0,0
2,55,78,2
2,67,100,0
2,72,110,34
2,72,0,94
2,76,120,2
2,67,0,94
2,76,0,0
2,67,84,2
2,74,111,0
2,74,0,190
2,76,120,2
2,76,0,94
2,72,110,2
2,48,0,190
2,55,0,0
2,60,0,0
2,67,0,0
2,72,0,0
2,48,67,2
2,60,75,0
2,67,98,0
2,72,112,44
2,72,0,94
2,76,120,2
2,67,0,94
2,76,0,0
2,67,84,2
2,74,112,0
2,74,0,190
2,76,120,2
2,67,0,4
2,76,0,0
2,67,100,2
2,72,110,34
2,72,0,94
2,76,120,2
2,67,0,94
2,76,0,0
2,67,84,2
2,74,111,0
2,74,0,190
2,76,120,2
2,76,0,94
2,72,110,2
2,48,0,176
2,60,0,0
2,67,0,14
2,72,0,0
2,48,57,2
2,60,62,0
2,67,98,0
2,72,112,44
2,72,0,94
2,76,120,2
2,67,0,94
2,76,0,0
2,67,84,2
2,74,112,0
2,74,0,190
2,76,120,2
2,67,0,4
2,76,0,0
2,53,82,2
2,67,100,0
2,72,110,34
2,72,0,94
2,76,120,2
2,67,0,94
2,76,0,0
2,67,84,2
2,74,111,0
2,74,0,190
2,76,120,2
2,76,0,94
2,72,110,2
2,48,0,190
2,53,0,0
2,60,0,0
2,67,0,0
2,72,0,0
2,36,110,2
2,43,102,31
2,48,102,96
2,52,106,96
2,55,110,192
2,48,0,214
2,52,0,33
2,48,109,41
2,55,0,41
2,53,99,27
2,57,100,96
2,60,106,96
2,53,0,46
2,65,108,146
2,57,0,93
2,60,0,3
2,65,0,37
2,43,0,27
2,48,0,14
2,36,0,2
2,43,107,112
2,48,107,0
2,50,107,0
2,55,107,0
2,62,107,0
2,55,0,74
2,55,81,70
2,62,0,18
2,55,0,69
2,59,108,9
2,59,0,190
2,67,108,2
2,67,0,40
2,43,0,78
2,48,0,0
2,50,0,11
2,48,109,159
2,55,109,0
2,60,109,0
2,62,109,0
2,62,0,22
2,64,95,1
2,60,0,108
2,48,0,2
2,64,0,4
2,55,0,2
2,48,108,76
2,55,108,0
2,60,108,0
2,64,108,0
2,55,0,113
2,48,0,8
2,60,0,34
2,64,0,13
2,55,83,24
2,55,0,27
2,47,104,69
2,55,105,0
2,59,108,0
2,62,106,0
2,59,0,37
2,55,0,3
2,47,0,9
2,62,0,4
2,45,108,48
2,52,108,0
2,55,108,0
2,60,108,0
2,60,0,331
2,52,0,13
2,55,0,19
2,52,108,35
2,57,108,0
2,45,0,51
2,52,0,37
2,57,0,0
2,50,106,12
2,57,106,0
2,60,106,0
2,65,106,0
2,65,0,373
2,64,106,41
2,60,0,5
2,50,0,30
2,64,0,27
2,57,0,40
2,43,107,2
2,55,107,0
2,60,107,0
2,62,107,0
2,55,0,134
2,55,99,73
2,62,0,10
2,60,0,3
2,60,110,179
2,43,0,109
2,60,0,69
2,55,0,3
2,43,100,11
2,55,107,18
2,59,107,0
2,55,0,174
2,43,0,2
2,59,0,20
2,45,110,37
2,55,110,0
2,60,110,0
2,45,0,128
2,55,0,6
2,60,0,19
2,47,109,51
2,55,109,0
2,62,109,0
2,62,0,74
2,55,0,4
2,47,0,17
2,48,116,22
2,55,124,0
2,60,113,0
2,64,111,0
2,55,0,7
2,64,0,11
2,60,0,1
2,72,103,26
2,72,0,86
2,71,91,10
2,72,120,96
2,71,0,2
2,72,0,181
2,67,108,9
2,48,0,40
2,67,0,3
2,48,113,3
2,60,108,0
2,67,112,0
2,69,97,26
2,67,0,44
2,69,0,132
2,65,116,62
2,65,0,65
2,60,0,117
2,69,94,202
2,48,0,16
2,69,0,7
2,47,121,73
2,59,121,0
2,67,121,0
2,62,87,91
2,67,0,15
2,64,111,81
2,62,0,7
2,65,118,185
2,64,0,3
2,65,0,57
2,59,0,12
2,47,0,17
2,48,110,199
2,55,96,0
2,60,110,0
2,65,108,0
2,65,0,164
2,48,0,20
2,60,0,18
2,64,114,10
2,40,106,96
2,62,113,78
2,64,0,13
2,55,0,46
2,62,0,10
2,40,0,31
2,41,100,92
2,53,106,0
2,57,113,0
2,60,114,0
2,53,0,99
2,53,94,45
2,57,0,26
2,60,0,8
2,53,0,15
2,41,0,34
2,57,104,12
2,60,104,0
2,67,114,0
2,41,85,46
2,57,0,38
2,67,0,30
2,57,87,28
2,60,0,13
2,41,0,28
2,57,0,91
2,38,119,13
2,57,119,0
2,65,119,0
2,65,0,128
2,64,88,4
2,62,111,96
2,64,0,8
2,38,0,7
2,38,90,81
2,60,120,96
2,62,0,4
2,38,0,21
2,60,0,18
2,57,0,7
2,43,100,8
2,55,105,0
2,60,105,0
2,62,106,0
2,55,0,70
2,55,88,57
2,62,0,13
2,60,0,13
2,60,108,70
2,43,0,36
2,43,92,60
2,55,0,33
2,60,0,25
2,55,98,38
2,60,101,0
2,62,103,0
2,55,0,60
2,55,81,36
2,60,0,20
2,62,0,17
2,43,0,65
2,55,0,48
2,43,97,16
2,55,95,0
2,59,97,0
2,62,96,0
2,59,0,261
2,55,0,1
2,62,0,0
2,43,0,21
2,48,105,415
2,55,105,0
2,60,105,0
2,64,105,0
2,55,0,135
2,64,0,28
2,55,74,4
2,60,0,30
2,60,96,66
2,48,0,22
2,48,91,74
2,55,0,12
2,60,0,26
2,55,98,58
2,60,108,0
2,64,96,0
2,55,0,47
2,64,0,43
2,55,82,6
2,60,0,33
2,55,0,5
2,48,0,80
2,57,101,74
2,60,96,0
2,65,102,0
2,48,86,90
2,57,0,10
2,57,77,75
2,60,0,6
2,65,0,3
2,60,109,87
2,48,0,17
2,48,95,79
2,57,0,20
2,60,0,9
2,57,100,67
2,60,106,0
2,65,105,0
2,57,0,54
2,57,88,42
2,65,0,8
2,60,0,9
2,57,0,36
2,59,97,1
2,62,93,0
2,67,106,0
2,48,0,5
2,48,78,12
2,59,0,18
2,62,0,63
2,59,68,15
2,67,0,2
2,62,107,94
2,48,0,42
2,48,97,54
2,59,0,9
2,62,0,15
2,59,102,72
2,62,108,0
2,67,102,0
2,59,0,46
2,59,97,50
2,67,0,13
2,62,0,13
2,48,0,8
2,59,0,13
2,48,91,49
2,48,0,86
2,48,104,10
2,55,104,0
2,60,104,0
2,62,104,0
2,62,0,22
2,64,90,1
2,60,0,108
2,48,0,2
2,64,0,4
2,55,0,2
2,48,103,76
2,55,103,0
2,60,103,0
2,64,103,0
2,55,0,113
2,48,0,8
2,60,0,34
2,64,0,13
2,40,99,24
2,55,100,0
2,59,103,0
2,62,101,0
2,59,0,80
2,55,0,3
2,40,0,9
2,62,0,4
2,41,107,7
2,53,107,0
2,60,107,0
2,53,0,80
2,53,92,45
2,60,0,9
2,41,0,73
2,53,0,30
2,53,107,11
2,57,107,0
2,48,87,47
2,48,0,94
2,41,87,2
2,53,0,8
2,57,0,0
2,41,0,86
2,50,101,12
2,57,101,0
2,60,101,0
2,65,101,0
2,65,0,373
2,64,101,41
2,60,0,5
2,50,0,30
2,64,0,27
2,57,0,40
2,43,102,2
2,55,102,0
2,60,102,0
2,62,102,0
2,55,0,134
2,55,94,73
2,62,0,10
2,60,0,3
2,60,105,179
2,43,0,109
2,60,0,69
2,55,0,3
2,43,95,11
2,55,102,18
2,59,102,0
2,55,0,174
2,43,0,2
2,59,0,20
2,45,105,37
2,55,105,0
2,60,105,0
2,45,0,128
2,55,0,6
2,60,0,19
2,47,104,51
2,55,104,0
2,62,104,0
2,62,0,74
2,55,0,4
2,47,0,17
2,48,111,22
2,55,119,0
2,60,108,0
2,64,106,0
2,55,0,7
2,64,0,11
2,60,0,1
2,72,98,26
2,72,0,86
2,71,86,10
2,72,115,96
2,71,0,2
2,72,0,181
2,67,103,9
2,48,0,40
2,67,0,3
2,48,108,3
2,60,103,0
2,67,107,0
2,69,92,26
2,67,0,44
2,69,0,132
2,65,111,62
2,65,0,65
2,60,0,117
2,69,89,202
2,48,0,16
2,69,0,7
