track,note,velocity,time
0,40,127,3145
0,40,0,20
0,40,110,100
0,40,0,20
0,40,115,220
0,40,0,20
0,40,85,100
0,61,127,0
0,40,0,20
0,35,113,100
0,35,0,20
0,61,0,9
0,54,127,4
0,30,111,0
0,54,99,0
0,58,90,0
0,63,99,0
0,35,126,0
0,49,85,0
0,70,115,0
0,54,105,0
0,58,116,0
0,63,113,0
0,58,126,0
0,58,81,0
0,63,80,0
0,66,81,0
0,61,126,0
0,63,127,6
0,70,0,10
0,49,0,0
0,35,0,0
0,70,62,38
0,42,51,1
0,58,0,5
0,54,0,3
0,70,0,11
0,42,0,1
0,63,0,19
0,63,0,16
0,58,0,5
0,54,0,7
0,54,0,32
0,30,0,0
0,54,95,14
0,58,0,1
0,42,76,4
0,63,0,1
0,58,94,0
0,70,107,3
0,63,95,6
0,54,0,4
0,42,0,6
0,58,0,1
0,70,0,3
0,63,0,6
0,63,126,82
0,54,93,6
0,58,82,0
0,63,109,0
0,42,37,3
0,70,47,0
0,54,100,0
0,58,113,0
0,63,97,2
0,30,108,1
0,58,126,0
0,54,127,4
0,70,0,13
0,42,0,0
0,30,0,83
0,54,0,6
0,63,0,8
0,58,0,0
0,70,118,3
0,25,109,2
0,40,126,0
0,46,61,1
0,58,0,7
0,70,0,10
0,40,0,2
0,46,0,1
0,63,0,39
0,54,0,5
0,63,0,36
0,54,0,2
0,58,0,7
0,42,57,7
0,70,63,0
0,70,0,20
0,42,0,0
0,63,0,81
0,25,0,2
0,54,127,11
0,61,78,4
0,27,113,1
0,42,100,0
0,54,100,0
0,58,108,0
0,70,104,1
0,61,107,0
0,54,98,1
0,58,126,1
0,61,81,1
0,58,95,1
0,61,126,1
0,42,0,14
0,70,0,1
0,58,0,97
0,42,53,2
0,35,127,5
0,70,58,0
0,61,0,7
0,42,0,8
0,54,0,2
0,70,0,3
0,35,0,0
0,61,0,73
0,27,0,2
0,61,0,5
0,58,0,2
0,54,0,4
0,54,0,2
0,58,0,4
0,70,117,2
0,42,106,2
0,35,43,2
0,30,112,2
0,70,0,14
0,42,0,2
0,35,0,2
0,61,101,90
0,58,101,8
0,70,53,1
0,42,56,1
0,54,100,6
0,70,0,13
0,42,0,1
0,61,0,69
0,54,0,5
0,58,0,4
0,30,0,3
0,61,0,0
0,46,44,14
0,54,101,0
0,54,110,0
0,61,73,1
0,70,94,0
0,58,111,0
0,61,108,1
0,58,114,1
0,69,115,0
0,54,94,1
0,58,88,2
0,35,110,0
0,61,110,1
0,46,0,13
0,70,0,1
0,69,0,2
0,35,0,3
0,68,115,2
0,68,0,20
0,67,114,9
0,67,0,20
0,58,0,3
0,66,115,0
0,61,0,5
0,66,0,15
0,54,0,1
0,65,114,0
0,42,41,19
0,65,0,1
0,30,109,4
0,70,58,1
0,58,0,8
0,54,0,1
0,61,0,0
0,42,0,5
0,70,0,6
0,54,0,74
0,58,0,1
0,30,0,4
0,61,0,2
0,54,127,7
0,58,113,6
0,58,127,0
0,46,35,1
0,70,117,0
0,65,122,0
0,54,97,1
0,25,112,1
0,63,95,0
0,58,96,2
0,40,127,0
0,63,113,0
0,54,102,1
0,61,126,3
0,70,0,12
0,46,0,0
0,40,0,4
0,54,0,76
0,63,0,6
0,58,0,1
0,54,0,9
0,58,0,0
0,63,0,3
0,70,81,1
0,42,41,2
0,70,0,18
0,42,0,2
0,25,0,80
0,61,0,0
0,58,0,0
0,54,0,12
0,58,84,5
0,54,87,1
0,54,104,0
0,58,117,0
0,61,62,1
0,46,71,0
0,61,118,1
0,27,110,1
0,70,102,0
0,46,0,17
0,70,0,2
0,61,0,14
0,58,0,27
0,54,0,8
0,66,0,30
0,61,0,8
0,42,100,10
0,58,0,2
0,40,72,1
0,70,60,1
0,54,0,6
0,42,0,10
0,40,0,3
0,70,0,1
0,58,0,78
0,27,0,1
0,61,0,1
0,65,0,1
0,56,127,9
0,32,113,5
0,56,95,0
0,60,126,0
0,60,87,1
0,56,109,0
0,35,127,1
0,42,102,0
0,65,87,0
0,70,113,1
0,65,80,0
0,60,81,1
0,65,125,0
0,65,84,1
0,60,90,0
0,68,80,0
0,65,126,5
0,42,0,12
0,35,0,0
0,70,0,1
0,65,0,81
0,60,0,1
0,56,0,8
0,65,0,5
0,63,123,3
0,70,62,2
0,42,51,3
0,70,0,17
0,42,0,3
0,60,0,66
0,65,0,7
0,32,0,1
0,56,0,0
0,56,0,1
0,60,0,14
0,56,95,2
0,42,77,3
0,70,91,0
0,60,95,0
0,65,0,4
0,65,94,6
0,56,0,6
0,60,0,4
0,70,0,0
0,42,0,0
0,65,0,10
0,65,126,88
0,60,93,2
0,56,113,1
0,32,109,2
0,56,106,0
0,60,94,0
0,65,82,2
0,42,36,0
0,70,65,0
0,65,94,1
0,60,127,0
0,56,127,3
0,70,0,16
0,42,0,0
0,32,0,78
0,56,0,8
0,60,0,9
0,40,126,2
0,46,60,0
0,70,112,0
0,65,0,2
0,27,112,1
0,60,0,15
0,46,0,2
0,40,0,0
0,70,0,0
0,56,0,19
0,65,0,11
0,56,0,2
0,60,0,12
0,70,65,10
0,42,56,4
0,65,0,5
0,70,0,9
0,42,0,4
0,65,0,4
0,27,0,2
0,56,126,13
0,56,115,2
0,60,126,0
0,56,113,1
0,60,87,0
0,42,101,0
0,63,80,0
0,29,108,4
0,70,90,0
0,63,91,0
0,63,74,1
0,60,94,0
0,63,127,2
0,42,0,13
0,70,0,4
0,70,80,17
0,35,126,2
0,42,52,1
0,60,0,6
0,70,0,4
0,35,0,2
0,42,0,1
0,56,0,2
0,63,0,5
0,60,0,6
0,56,0,6
0,63,0,10
0,60,0,4
0,29,0,1
0,56,0,9
0,63,0,1
0,32,111,6
0,35,42,0
0,70,107,3
0,42,107,1
0,35,0,16
0,70,0,3
0,42,0,1
0,63,100,8
0,70,83,6
0,60,101,1
0,42,57,2
0,56,101,6
0,70,0,3
0,42,0,3
0,56,0,3
0,32,0,1
0,60,0,3
0,63,0,5
0,56,110,7
0,56,102,4
0,35,111,1
0,63,85,0
0,60,111,0
0,60,76,1
0,70,98,0
0,63,77,1
0,46,45,1
0,56,89,1
0,60,85,0
0,63,110,2
0,35,0,14
0,70,0,1
0,46,0,2
0,60,0,7
0,63,0,15
0,56,0,0
0,32,111,1
0,70,60,0
0,42,40,2
0,70,0,5
0,42,0,2
0,56,0,2
0,60,0,3
0,63,0,10
0,56,0,16
0,32,0,4
0,60,0,1
0,63,0,6
0,56,126,1
0,63,76,5
0,46,34,0
0,70,105,0
0,60,100,0
0,60,76,2
0,27,114,1
0,56,107,0
0,60,127,0
0,56,122,1
0,63,103,0
0,40,127,1
0,63,127,1
0,70,0,9
0,46,0,0
0,40,0,5
0,60,0,15
0,56,0,13
0,63,0,1
0,42,41,13
0,70,81,2
0,60,0,6
0,63,0,8
0,56,0,2
0,42,0,2
0,70,0,2
0,27,0,80
0,63,0,2
0,60,0,1
0,56,0,10
0,46,70,4
0,29,110,4
0,70,86,2
0,46,0,14
0,70,0,6
0,60,0,78
0,42,100,20
0,40,73,1
0,70,68,1
0,42,0,18
0,40,0,1
0,70,0,1
0,63,0,32
0,29,0,16
0,68,0,1
0,54,126,7
0,70,81,0
0,42,102,1
0,70,115,0
0,37,107,1
0,53,79,0
0,58,102,2
0,63,98,0
0,63,97,1
0,66,89,0
0,35,127,0
0,58,115,0
0,66,93,0
0,58,126,0
0,66,81,1
0,59,120,0
0,63,127,2
0,70,0,13
0,42,0,0
0,35,0,4
0,59,0,41
0,63,0,16
0,61,120,0
0,53,0,20
0,58,0,6
0,66,0,5
0,56,80,8
0,70,58,3
0,42,51,1
0,70,0,19
0,42,0,1
0,58,0,31
0,63,0,6
0,66,0,3
0,56,0,2
0,37,0,1
0,54,0,4
0,54,95,7
0,58,0,4
0,70,79,1
0,63,0,1
0,42,77,0
0,58,94,1
0,61,85,1
0,63,94,6
0,54,0,1
0,70,0,7
0,42,0,1
0,58,0,1
0,63,0,2
0,61,0,2
0,63,127,5
0,58,104,2
0,61,121,2
0,37,112,1
0,58,126,0
0,42,36,1
0,58,104,0
0,63,89,1
0,66,86,0
0,53,89,0
0,70,63,0
0,63,93,0
0,66,82,0
0,54,127,4
0,42,0,2
0,70,0,1
0,37,0,64
0,61,0,1
0,54,0,7
0,63,0,3
0,58,0,1
0,56,92,2
0,70,102,0
0,40,126,2
0,63,0,1
0,32,113,1
0,46,61,1
0,70,0,2
0,40,0,2
0,46,0,3
0,58,0,1
0,56,0,7
0,53,0,6
0,63,0,8
0,58,0,3
0,61,95,0
0,70,79,0
0,68,80,0
0,42,56,4
0,66,0,9
0,66,0,1
0,70,0,5
0,42,0,4
0,61,0,76
0,70,0,0
0,63,0,1
0,32,0,3
0,66,0,2
0,61,0,5
0,53,127,8
0,56,126,2
0,61,80,0
0,61,119,0
0,56,108,2
0,53,96,0
0,65,80,0
0,61,97,1
0,65,81,0
0,65,79,1
0,42,101,0
0,34,107,1
0,61,87,0
0,70,96,0
0,56,109,0
0,61,127,6
0,42,0,1
0,70,0,1
0,70,70,5
0,35,126,2
0,42,53,0
0,56,100,3
0,65,0,6
0,70,0,1
0,42,0,2
0,35,0,0
0,56,0,5
0,61,0,4
0,65,0,22
0,61,0,17
0,53,0,11
0,61,0,1
0,56,0,1
0,56,0,1
0,34,0,0
0,53,0,9
0,37,110,8
0,42,106,0
0,61,105,1
0,70,105,1
0,35,42,1
0,42,0,17
0,70,0,2
0,35,0,1
0,56,0,1
0,61,0,9
0,61,100,6
0,70,73,2
0,42,56,2
0,53,109,2
0,56,100,1
0,53,101,5
0,70,0,10
0,42,0,2
0,53,0,8
0,37,0,5
0,53,0,1
0,56,0,1
0,61,0,5
0,53,111,6
0,61,92,4
0,61,88,1
0,56,110,0
0,35,111,1
0,46,45,0
0,70,82,0
0,56,100,0
0,56,92,1
0,65,81,0
0,56,110,0
0,65,73,3
0,61,110,3
0,70,0,13
0,46,0,0
0,35,0,0
0,61,0,67
0,56,0,11
0,56,0,1
0,65,0,2
0,42,41,2
0,70,70,0
0,61,112,5
0,37,113,1
0,70,0,7
0,42,0,0
0,56,0,7
0,65,0,1
0,61,0,1
0,53,0,1
0,56,0,7
0,61,0,1
0,37,0,1
0,61,0,3
0,53,127,5
0,61,91,4
0,56,127,0
0,40,126,1
0,32,106,1
0,65,80,0
0,56,113,0
0,56,112,1
0,70,93,0
0,46,34,2
0,61,96,1
0,65,84,0
0,61,126,4
0,40,0,4
0,70,0,2
0,46,0,2
0,61,0,8
0,70,67,5
0,65,0,1
0,42,40,0
0,56,0,3
0,70,0,13
0,42,0,4
0,65,0,2
0,56,0,0
0,32,0,1
0,56,0,1
0,61,0,3
0,53,0,7
0,34,114,3
0,46,70,0
0,70,82,1
0,61,0,4
0,46,0,2
0,70,0,1
0,68,0,37
0,61,0,1
0,40,73,11
0,42,101,0
0,66,81,4
0,70,68,2
0,42,0,13
0,40,0,0
0,70,0,6
0,34,0,5
0,65,0,4
0,54,126,5
0,35,127,1
0,58,107,0
0,58,127,1
0,63,85,1
0,42,103,0
0,70,113,0
0,66,88,0
0,70,80,0
0,58,104,1
0,63,93,0
0,63,80,0
0,37,109,1
0,66,83,1
0,53,79,0
0,63,126,2
0,35,0,1
0,70,0,2
0,42,0,0
0,53,0,3
0,63,0,6
0,66,0,7
0,56,81,1
0,42,50,3
0,58,0,1
0,70,74,1
0,42,0,7
0,70,0,2
0,58,0,19
0,66,0,1
0,63,0,5
0,56,0,6
0,37,0,5
0,54,0,1
0,54,95,1
0,58,0,3
0,58,95,3
0,63,0,1
0,70,85,0
0,61,84,3
0,42,77,0
0,63,94,3
0,54,0,4
0,58,0,2
0,70,0,2
0,42,0,3
0,63,0,1
0,61,0,9
0,63,127,9
0,58,99,6
0,58,126,0
0,66,76,1
0,53,88,0
0,63,83,1
0,66,87,0
0,37,115,1
0,63,90,0
0,42,36,1
0,58,105,0
0,70,73,2
0,54,126,3
0,42,0,15
0,70,0,1
0,37,0,15
0,54,0,7
0,58,0,3
0,63,0,1
0,56,93,2
0,46,61,2
0,32,110,1
0,63,0,1
0,40,127,0
0,70,102,0
0,58,0,2
0,46,0,1
0,40,0,2
0,70,0,0
0,66,0,6
0,58,0,14
0,66,0,2
0,63,0,3
0,53,0,3
0,56,0,1
0,61,94,8
0,42,56,2
0,70,73,1
0,42,0,2
0,70,0,1
0,61,0,15
0,70,0,1
0,66,0,1
0,63,0,0
0,32,0,1
0,53,127,12
0,61,88,1
0,65,81,0
0,65,78,1
0,42,101,0
0,56,127,0
0,34,108,1
0,56,116,0
0,61,92,0
0,61,80,0
0,53,97,1
0,65,81,1
0,68,81,0
0,56,115,2
0,70,98,0
0,61,126,2
0,42,0,6
0,70,0,4
0,70,72,8
0,35,126,2
0,56,101,3
0,42,53,0
0,61,0,1
0,65,0,7
0,70,0,5
0,35,0,2
0,42,0,1
0,56,0,7
0,61,0,6
0,65,0,8
0,56,0,5
0,61,0,6
0,34,0,2
0,53,0,1
0,56,0,2
0,56,0,0
0,53,0,8
0,37,113,9
0,70,91,0
0,42,106,1
0,61,104,2
0,35,42,1
0,70,0,3
0,42,0,1
0,35,0,3
0,61,0,5
0,61,100,13
0,42,56,2
0,70,63,0
0,61,0,1
0,53,109,3
0,56,101,2
0,53,101,5
0,70,0,9
0,42,0,0
0,53,0,27
0,37,0,3
0,53,0,2
0,56,0,2
0,61,0,4
0,56,101,10
0,56,110,0
0,56,107,0
0,53,110,0
0,61,86,1
0,56,110,0
0,65,72,1
0,35,111,0
0,46,45,1
0,61,92,0
0,70,84,2
0,65,78,1
0,61,111,0
0,35,0,16
0,46,0,1
0,70,0,2
0,65,0,69
0,56,0,6
0,61,0,7
0,56,0,1
0,61,112,13
0,37,113,1
0,42,41,2
0,70,62,2
0,61,0,6
0,65,0,1
0,56,0,2
0,42,0,1
0,70,0,2
0,53,0,12
0,56,0,1
0,61,0,0
0,37,0,1
0,61,0,4
0,61,85,14
0,46,34,0
0,70,99,0
0,53,126,0
0,56,127,0
0,40,126,1
0,56,115,1
0,65,85,0
0,56,115,1
0,65,72,0
0,32,110,2
0,61,88,0
0,61,126,1
0,61,127,4
0,70,0,10
0,46,0,0
0,40,0,1
0,65,0,17
0,56,0,9
0,61,0,4
0,42,41,16
0,70,83,1
0,65,0,7
0,56,0,9
0,42,0,3
0,61,0,1
0,70,0,0
0,56,0,82
0,61,0,1
0,32,0,1
0,53,0,16
0,34,110,2
0,46,70,0
0,70,102,1
0,46,0,19
0,70,0,1
0,40,72,96
0,42,100,1
0,70,64,3
0,40,0,2
0,42,0,1
0,70,0,3
0,65,0,10
0,61,0,2
0,34,0,1
0,68,0,1
0,35,126,3
0,54,126,0
0,54,98,2
0,63,81,0
0,30,115,1
0,49,84,0
0,63,112,0
0,66,80,0
0,58,127,1
0,63,99,1
0,70,115,0
0,54,105,0
0,58,116,0
0,58,81,0
0,58,90,1
0,63,126,1
0,35,0,7
0,49,0,3
0,70,0,2
0,42,50,35
0,70,62,3
0,54,0,8
0,58,0,1
0,42,0,8
0,70,0,3
0,63,0,22
0,63,0,14
0,58,0,7
0,54,0,7
0,30,0,30
0,54,0,3
0,54,94,11
0,58,0,2
0,70,107,1
0,63,0,1
0,58,95,0
0,42,77,3
0,63,95,8
0,54,0,4
0,70,0,4
0,58,0,1
0,42,0,3
0,63,0,8
0,54,93,88
0,54,101,0
0,58,113,0
0,63,126,0
0,30,106,2
0,63,97,1
0,63,108,0
0,70,47,2
0,58,82,1
0,42,36,0
0,58,126,0
0,54,127,2
0,70,0,17
0,42,0,1
0,30,0,76
0,54,0,8
0,58,0,10
0,25,109,2
0,46,61,1
0,40,127,2
0,63,0,1
0,70,118,0
0,58,0,13
0,46,0,4
0,40,0,2
0,70,0,1
0,63,0,37
0,54,0,7
0,54,0,35
0,63,0,4
0,58,0,3
0,70,63,8
0,42,57,1
0,70,0,19
0,42,0,1
0,25,0,81
