track,note,velocity,time
0,31,66,0
0,31,66,376
0,53,111,156
0,60,111,1
0,65,111,0
0,57,110,0
0,62,101,3
0,62,101,0
0,39,106,1
0,53,111,7
0,57,110,0
0,65,111,0
0,60,111,0
0,60,100,24
0,60,100,0
0,60,91,39
0,65,90,1
0,60,91,26
0,65,91,1
0,39,105,11
0,62,101,2
0,62,101,0
0,60,101,18
0,60,101,0
0,65,90,42
0,69,91,1
0,39,106,67
0,62,100,0
0,62,100,0
0,60,101,14
0,60,101,0
0,60,90,4
0,65,90,0
0,65,91,27
0,60,91,2
0,39,106,10
0,62,100,1
0,62,100,0
0,60,100,12
0,60,100,0
0,69,90,6
0,65,90,0
0,55,110,8
0,60,111,0
0,45,110,0
0,64,110,0
0,62,101,2
0,62,101,0
0,39,105,0
0,45,110,0
0,60,111,0
0,55,110,0
0,64,110,0
0,60,101,15
0,60,101,0
0,60,91,40
0,64,91,0
0,60,90,29
0,64,90,0
0,39,106,12
0,62,100,0
0,62,100,0
0,60,100,14
0,60,100,0
0,67,91,38
0,64,90,0
0,62,101,69
0,62,101,0
0,39,105,0
0,60,101,18
0,60,101,0
0,60,91,39
0,64,91,1
0,64,90,27
0,60,91,0
0,62,100,13
0,62,100,0
0,39,105,1
0,60,100,13
0,60,100,0
0,64,90,40
0,67,90,1
0,57,111,7
0,53,110,1
0,46,111,0
0,62,110,1
0,62,101,0
0,62,101,0
0,39,106,1
0,57,111,6
0,46,111,1
0,53,110,0
0,62,110,0
0,60,100,9
0,60,100,0
0,62,91,42
0,65,91,1
0,62,90,27
0,65,90,1
0,39,106,11
0,62,101,0
0,62,101,0
0,60,101,14
0,60,101,0
0,69,91,6
0,65,91,2
0,62,100,67
0,62,100,0
0,39,105,0
0,60,101,12
0,60,101,0
0,62,90,39
0,65,90,1
0,65,91,27
0,62,90,1
0,39,105,12
0,62,100,1
0,62,100,0
0,60,100,8
0,60,100,0
0,62,91,0
0,65,91,1
0,69,90,0
0,58,111,6
0,48,111,0
0,62,110,1
0,53,110,0
0,39,106,0
0,62,101,0
0,62,101,0
0,48,111,6
0,58,111,0
0,62,110,0
0,53,110,0
0,60,101,11
0,60,101,0
0,62,91,0
0,58,90,1
0,58,90,26
0,62,91,2
0,62,100,11
0,62,100,0
0,39,106,1
0,60,100,14
0,60,100,0
0,65,91,38
0,62,90,1
0,60,113,5
0,39,105,48
0,62,101,0
0,62,101,0
0,60,101,6
0,60,101,0
0,58,90,3
0,72,105,0
0,62,91,0
0,72,104,4
0,62,91,6
0,58,90,1
0,58,111,3
0,53,110,0
0,62,111,0
0,48,111,1
0,62,100,1
0,62,100,0
0,72,105,2
0,39,105,1
0,58,111,6
0,53,110,0
0,62,111,1
0,48,111,0
0,72,105,5
0,60,100,8
0,60,100,0
0,65,110,0
0,58,111,0
0,65,90,2
0,72,104,1
0,36,51,0
0,62,91,1
0,65,110,6
0,58,111,0
0,65,111,1
0,60,110,0
0,57,110,0
0,53,111,0
0,72,105,0
0,36,126,0
0,49,127,0
0,39,106,0
0,62,101,0
0,62,101,0
0,57,110,0
0,60,110,0
0,65,111,0
0,53,111,0
0,60,100,21
0,60,100,0
0,65,90,39
0,39,75,0
0,60,91,1
0,82,53,0
0,70,104,8
0,60,91,8
0,65,90,0
0,39,106,6
0,28,100,1
0,69,104,1
0,62,101,0
0,62,101,0
0,60,101,20
0,60,101,0
0,65,91,38
0,82,56,2
0,69,90,1
0,39,76,27
0,39,105,7
0,62,100,1
0,62,100,0
0,60,101,16
0,60,101,0
0,82,59,2
0,69,105,1
0,60,90,0
0,65,91,1
0,69,105,5
0,60,91,8
0,65,90,0
0,39,106,3
0,28,99,1
0,62,100,0
0,62,100,0
0,69,104,1
0,69,104,5
0,60,100,7
0,60,100,0
0,65,90,4
0,82,39,0
0,69,105,1
0,69,91,0
0,36,51,0
0,60,110,0
0,64,111,1
0,55,110,0
0,45,111,1
0,62,101,1
0,62,101,0
0,67,105,0
0,39,105,0
0,60,110,7
0,55,110,0
0,64,111,0
0,45,111,1
0,60,101,16
0,60,101,0
0,82,48,38
0,60,91,2
0,64,90,0
0,39,75,0
0,60,90,26
0,64,91,2
0,39,106,10
0,62,100,1
0,62,100,0
0,28,100,1
0,60,100,15
0,60,100,0
0,67,90,0
0,82,53,2
0,64,91,0
0,39,76,26
0,62,101,33
0,62,101,0
0,39,105,1
0,60,101,17
0,60,101,0
0,64,91,40
0,60,90,1
0,82,48,1
0,60,91,28
0,64,90,0
0,62,100,3
0,62,100,0
0,72,104,2
0,39,105,0
0,28,100,0
0,60,100,14
0,60,100,0
0,72,104,5
0,82,40,0
0,64,90,0
0,67,91,0
0,62,110,0
0,57,110,0
0,53,110,1
0,46,111,0
0,36,127,0
0,46,127,0
0,74,105,0
0,62,101,0
0,62,101,0
0,39,106,0
0,57,110,0
0,62,110,0
0,46,111,1
0,53,110,0
0,60,100,11
0,60,100,0
0,62,91,4
0,82,49,0
0,74,104,1
0,65,90,0
0,39,76,1
0,65,90,28
0,62,91,1
0,28,99,3
0,72,105,2
0,39,105,1
0,62,101,0
0,62,101,0
0,60,101,13
0,60,101,0
0,65,91,4
0,72,105,1
0,82,55,0
0,69,90,0
0,39,75,27
0,39,106,4
0,70,104,1
0,62,100,0
0,62,100,0
0,60,101,10
0,60,101,0
0,65,90,0
0,62,91,0
0,69,105,1
0,82,56,0
0,65,90,27
0,62,91,1
0,28,100,12
0,62,100,0
0,62,100,0
0,39,105,1
0,60,100,11
0,60,100,0
0,65,91,4
0,82,58,0
0,67,104,1
0,62,90,0
0,69,91,0
0,53,111,6
0,58,111,1
0,48,110,1
0,62,111,0
0,62,101,0
0,62,101,0
0,39,106,0
0,53,111,6
0,58,111,1
0,48,110,0
0,62,111,0
0,60,101,15
0,60,101,0
0,39,76,38
0,62,90,1
0,58,90,0
0,82,49,0
0,58,91,26
0,62,91,0
0,28,99,13
0,39,105,0
0,62,100,0
0,62,100,0
0,60,100,11
0,60,100,0
0,62,90,40
0,65,90,1
0,82,59,0
0,39,76,16
0,62,101,32
0,62,101,0
0,39,105,0
0,60,101,13
0,60,101,0
0,62,91,4
0,72,104,1
0,82,64,0
0,58,91,0
0,72,105,5
0,58,90,7
0,62,90,1
0,62,110,0
0,53,111,0
0,48,110,0
0,58,111,1
0,72,105,4
0,28,99,0
0,39,105,0
0,62,100,0
0,62,100,0
0,62,110,7
0,48,110,0
0,53,111,0
0,58,111,0
0,72,104,5
0,60,100,8
0,60,100,0
0,65,110,2
0,58,110,0
0,36,126,2
0,62,91,0
0,82,54,0
0,72,104,0
0,65,90,1
0,65,110,0
0,58,110,0
0,65,111,2
0,60,110,1
0,53,111,0
0,57,110,0
0,62,101,0
0,62,101,0
0,72,105,1
0,39,106,0
0,46,127,0
0,36,127,1
0,65,111,5
0,53,111,0
0,60,110,0
0,57,110,0
0,60,100,21
0,60,100,0
0,82,57,40
0,60,91,1
0,39,76,0
0,65,91,0
0,70,105,8
0,60,90,8
0,65,91,0
0,62,101,6
0,62,101,0
0,28,100,1
0,39,105,0
0,69,104,1
0,36,126,0
0,42,104,1
0,60,101,20
0,60,101,0
0,65,90,40
0,69,90,0
0,42,111,1
0,82,50,1
0,39,75,28
0,42,114,6
0,39,106,2
0,36,126,0
0,62,100,1
0,62,100,0
0,60,101,15
0,60,101,0
0,65,91,0
0,82,61,1
0,69,104,1
0,60,91,0
0,42,94,0
0,69,105,5
0,65,90,7
0,60,90,2
0,36,127,3
0,28,100,1
0,39,106,0
0,65,105,0
0,77,104,0
0,69,104,1
0,42,122,0
0,62,100,0
0,62,100,0
0,69,105,3
0,60,100,8
0,60,100,0
0,65,91,4
0,69,105,1
0,42,86,0
0,82,57,0
0,69,91,1
0,60,111,0
0,64,111,1
0,55,110,0
0,45,111,1
0,36,127,1
0,67,104,0
0,42,122,0
0,39,105,0
0,79,105,0
0,62,101,0
0,62,101,0
0,67,105,1
0,60,111,0
0,55,110,0
0,64,111,0
0,45,111,1
0,60,101,12
0,60,101,0
0,60,90,41
0,64,90,1
0,39,75,0
0,42,103,0
0,82,56,0
0,60,91,27
0,64,90,2
0,62,100,10
0,62,100,0
0,28,99,1
0,36,126,0
0,39,106,0
0,42,122,0
0,60,100,15
0,60,100,0
0,82,51,0
0,67,91,1
0,64,91,1
0,42,80,0
0,39,75,26
0,36,126,33
0,39,106,1
0,62,101,0
0,62,101,0
0,42,122,1
0,60,101,18
0,60,101,0
0,82,56,38
0,60,90,1
0,64,91,1
0,42,79,0
0,64,90,26
0,60,90,0
0,36,127,4
0,39,106,0
0,72,105,1
0,42,122,0
0,28,99,0
0,62,100,0
0,62,100,0
0,60,100,12
0,60,100,0
0,64,91,3
0,67,91,1
0,72,104,1
0,42,80,0
0,82,46,0
0,53,110,2
0,46,110,1
0,57,111,0
0,62,110,1
0,42,122,0
0,74,104,0
0,62,101,0
0,62,101,0
0,36,126,0
0,39,105,0
0,53,110,5
0,57,111,0
0,46,110,0
0,62,110,1
0,60,100,9
0,60,100,0
0,62,90,3
0,65,90,0
0,42,87,0
0,82,53,1
0,74,105,1
0,39,76,0
0,62,91,28
0,65,91,1
0,28,100,3
0,36,126,0
0,62,101,0
0,62,101,0
0,42,120,1
0,72,105,1
0,39,105,0
0,60,101,14
0,60,101,0
0,65,90,4
0,69,90,0
0,82,57,0
0,72,104,1
0,42,99,0
0,39,75,29
0,62,100,3
0,62,100,0
0,36,127,1
0,70,104,1
0,39,106,0
0,42,122,0
0,60,101,13
0,60,101,0
0,42,96,4
0,82,46,0
0,62,91,0
0,65,90,0
0,69,105,0
0,62,91,27
0,65,91,3
0,39,106,10
0,81,104,0
0,69,105,0
0,42,122,1
0,62,100,0
0,62,100,0
0,36,126,0
0,28,100,1
0,60,100,9
0,60,100,0
0,69,90,3
0,67,105,0
0,65,91,0
0,62,90,0
0,82,62,0
0,42,116,0
0,46,127,0
0,36,127,1
0,39,105,0
0,28,105,185
0,39,79,15
0,38,100,32
0,72,104,4
0,65,111,0
0,69,111,0
0,72,111,0
0,65,1,0
0,69,1,0
0,72,1,0
0,72,104,4
0,65,95,0
0,69,95,0
0,72,95,0
0,65,1,0
0,69,1,0
0,72,1,0
0,65,109,15
0,65,74,8
0,65,115,3
0,72,105,1
0,65,111,0
0,69,111,0
0,72,111,0
0,65,1,0
0,69,1,0
0,72,1,0
0,72,104,4
0,65,97,0
0,69,97,0
0,72,97,0
0,65,1,0
0,69,1,0
0,72,1,0
0,65,103,8
0,72,105,4
0,65,111,0
0,69,111,0
0,72,111,0
0,65,1,0
0,69,1,0
0,72,1,0
0,66,111,0
0,66,102,35
0,65,111,2
0,53,111,0
0,60,110,1
0,57,110,0
0,29,107,1
0,65,104,0
0,72,105,2
0,65,111,0
0,69,111,0
0,72,111,0
0,65,1,0
0,69,1,0
0,72,1,0
0,39,106,0
0,46,127,0
0,54,87,0
0,36,127,0
0,69,104,1
0,65,111,5
0,53,111,0
0,57,110,1
0,60,110,0
0,54,38,13
0,65,90,33
0,54,67,0
0,82,57,0
0,39,76,1
0,60,91,1
0,70,104,8
0,62,111,0
0,67,111,0
0,70,111,0
0,62,1,0
0,67,1,0
0,70,1,0
0,65,91,7
0,60,90,0
0,54,39,1
0,29,106,6
0,57,101,1
0,57,101,0
0,28,99,0
0,36,126,0
0,69,105,1
0,60,111,0
0,65,111,0
0,69,111,0
0,60,1,0
0,65,1,0
0,69,1,0
0,39,105,0
0,42,103,0
0,54,70,0
0,42,79,48
0,54,45,1
0,65,90,13
0,60,101,0
0,60,101,0
0,69,91,2
0,82,51,0
0,42,112,1
0,54,66,0
0,36,103,6
0,54,46,1
0,39,75,1
0,41,105,6
0,54,63,0
0,39,106,1
0,42,114,1
0,36,127,0
0,54,43,47
0,42,79,1
0,82,60,2
0,65,91,1
0,69,104,1
0,65,111,0
0,69,111,0
0,65,1,0
0,69,1,0
0,60,90,1
0,42,93,0
0,54,52,0
0,69,104,4
0,65,99,0
0,69,99,0
0,65,1,0
0,69,1,0
0,54,42,7
0,60,90,1
0,65,91,1
0,29,102,2
0,39,105,0
0,42,122,0
0,65,105,0
0,28,100,1
0,54,67,0
0,77,105,0
0,69,105,1
0,65,111,0
0,69,111,0
0,65,1,0
0,69,1,0
0,36,126,0
0,69,105,4
0,65,98,0
0,69,98,0
0,65,1,0
0,69,1,0
0,42,80,7
0,54,33,2
0,69,104,4
0,65,113,0
0,69,113,0
0,65,1,0
0,69,1,0
0,69,90,0
0,54,42,0
0,82,56,0
0,65,91,0
0,42,85,1
0,54,42,28
0,45,111,2
0,60,111,1
0,55,110,0
0,64,110,1
0,79,104,1
0,54,69,0
0,67,104,0
0,64,111,0
0,67,111,0
0,64,1,0
0,67,1,0
0,36,126,0
0,42,122,0
0,67,104,0
0,33,105,0
0,39,106,0
0,45,111,5
0,60,111,0
0,55,110,0
0,64,110,0
0,54,38,8
0,42,80,1
0,60,91,30
0,42,103,0
0,82,57,0
0,54,31,0
0,64,90,0
0,39,76,0
0,54,39,6
0,64,91,1
0,60,90,2
0,33,108,6
0,42,122,1
0,28,99,0
0,39,105,0
0,54,72,0
0,57,100,0
0,57,100,0
0,36,127,1
0,54,45,8
0,42,80,0
0,67,90,6
0,64,91,1
0,82,50,0
0,60,100,0
0,60,100,0
0,42,79,0
0,54,42,1
0,54,46,7
0,40,104,0
0,39,76,0
0,54,55,8
0,62,101,0
0,62,101,0
0,45,103,1
0,39,105,0
0,42,122,0
0,36,127,0
0,54,43,16
0,42,79,2
0,60,101,0
0,60,101,0
0,64,91,30
0,82,57,0
0,42,79,1
0,54,28,0
0,60,90,1
0,64,90,25
0,54,42,1
0,60,91,1
0,42,122,2
0,54,63,1
0,36,126,0
0,72,105,1
0,72,1,0
0,39,105,0
0,33,105,1
0,28,100,0
0,42,80,46
0,54,33,2
0,64,91,2
0,72,105,2
0,72,1,0
0,67,90,0
0,42,79,0
0,54,42,0
0,82,47,0
0,54,42,28
0,62,110,2
0,57,111,0
0,53,111,1
0,46,111,0
0,39,106,0
0,34,100,1
0,74,104,0
0,74,1,0
0,42,122,0
0,54,59,0
0,36,126,0
0,57,111,5
0,62,110,0
0,53,111,0
0,46,111,0
0,54,38,45
0,42,80,2
0,39,76,2
0,42,104,1
0,65,90,0
0,74,104,1
0,74,1,0
0,82,56,0
0,54,43,0
0,62,91,1
0,62,90,27
0,65,91,0
0,54,39,0
0,34,104,2
0,28,100,0
0,39,105,1
0,36,127,0
0,72,105,1
0,72,1,0
0,42,122,0
0,54,52,0
0,42,79,46
0,54,45,1
0,69,91,3
0,42,80,0
0,54,46,0
0,72,104,1
0,72,1,0
0,65,90,0
0,82,51,0
0,41,103,7
0,54,46,0
0,39,75,1
0,42,122,2
0,36,127,1
0,39,106,0
0,70,105,1
0,70,1,0
0,54,51,0
0,46,105,1
0,42,80,47
0,54,43,2
0,65,91,2
0,42,80,0
0,82,56,0
0,62,90,1
0,69,105,1
0,69,1,0
0,54,56,0
0,54,42,29
0,65,90,0
0,62,91,1
0,39,106,5
0,42,122,1
0,36,126,0
0,54,57,0
0,34,102,1
0,28,99,1
0,42,80,47
0,54,33,1
0,42,79,2
0,82,46,0
0,65,91,1
0,62,90,0
0,67,104,1
0,67,1,0
0,69,90,0
0,54,42,0
0,54,42,27
0,58,110,5
0,48,111,2
0,62,110,1
0,53,110,0
0,36,100,0
0,54,53,0
0,36,126,0
0,42,122,0
0,39,105,1
0,58,110,5
0,48,111,0
0,53,110,0
0,62,110,0
0,42,80,45
0,54,38,2
0,58,91,30
0,82,57,0
0,54,41,1
0,62,91,1
0,39,75,0
0,42,104,0
0,54,39,28
0,62,90,0
0,58,90,1
0,57,100,10
0,57,100,0
0,36,127,1
0,42,122,0
0,54,54,0
0,28,100,0
0,39,106,0
0,36,107,1
0,42,79,47
0,54,45,2
0,62,91,17
0,65,90,0
0,82,51,0
0,54,38,1
0,60,100,0
0,60,100,0
