track,note,velocity,time
0,40,127,30
0,40,110,0
0,40,115,0
0,40,85,0
0,61,127,0
0,35,113,2
0,54,127,4
0,30,111,0
0,54,99,0
0,58,90,0
0,63,99,0
0,35,126,0
0,49,85,0
0,70,115,0
0,54,105,0
0,58,116,0
0,63,113,0
0,58,126,0
0,58,81,0
0,63,80,0
0,66,81,0
0,61,126,0
0,63,127,6
0,70,62,38
0,42,51,1
0,54,95,14
0,42,76,4
0,58,94,0
0,70,107,3
0,63,95,6
0,63,126,82
0,54,93,6
0,58,82,0
0,63,109,0
0,42,37,3
0,70,47,0
0,54,100,0
0,58,113,0
0,63,97,2
0,30,108,1
0,58,126,0
0,54,127,4
0,70,118,3
0,25,109,2
0,40,126,0
0,46,61,1
0,42,57,7
0,70,63,0
0,54,127,11
0,61,78,4
0,27,113,1
0,42,100,0
0,54,100,0
0,58,108,0
0,70,104,1
0,61,107,0
0,54,98,1
0,58,126,1
0,61,81,1
0,58,95,1
0,61,126,1
0,42,53,2
0,35,127,5
0,70,58,0
0,70,117,2
0,42,106,2
0,35,43,2
0,30,112,2
0,61,101,90
0,58,101,8
0,70,53,1
0,42,56,1
0,54,100,6
0,46,44,14
0,54,101,0
0,54,110,0
0,61,73,1
0,70,94,0
0,58,111,0
0,61,108,1
0,58,114,1
0,69,115,0
0,54,94,1
0,58,88,2
0,35,110,0
0,61,110,1
0,68,115,2
0,67,114,9
0,66,115,0
0,65,114,0
0,42,41,19
0,30,109,2
0,70,58,1
0,54,127,7
0,58,113,6
0,58,127,0
0,46,35,1
0,70,117,0
0,65,122,0
0,54,97,1
0,25,112,1
0,63,95,0
0,58,96,2
0,40,127,0
0,63,113,0
0,54,102,1
0,61,126,3
0,70,81,1
0,42,41,2
0,58,84,5
0,54,87,1
0,54,104,0
0,58,117,0
0,61,62,1
0,46,71,0
0,61,118,1
0,27,110,1
0,70,102,0
0,42,100,10
0,40,72,1
0,70,60,1
0,56,127,9
0,32,113,5
0,56,95,0
0,60,126,0
0,60,87,1
0,56,109,0
0,35,127,1
0,42,102,0
0,65,87,0
0,70,113,1
0,65,80,0
0,60,81,1
0,65,125,0
0,65,84,1
0,60,90,0
0,68,80,0
0,65,126,5
0,63,123,3
0,70,62,2
0,42,51,3
0,56,95,2
0,42,77,3
0,70,91,0
0,60,95,0
0,65,94,6
0,65,126,88
0,60,93,2
0,56,113,1
0,32,109,2
0,56,106,0
0,60,94,0
0,65,82,2
0,42,36,0
0,70,65,0
0,65,94,1
0,60,127,0
0,56,127,3
0,40,126,2
0,46,60,0
0,70,112,0
0,27,112,1
0,70,65,10
0,42,56,4
0,56,126,13
0,56,115,2
0,60,126,0
0,56,113,1
0,60,87,0
0,42,101,0
0,63,80,0
0,29,108,4
0,70,90,0
0,63,91,0
0,63,74,1
0,60,94,0
0,63,127,2
0,70,80,17
0,35,126,2
0,42,52,1
0,32,111,6
0,35,42,0
0,70,107,3
0,42,107,1
0,63,100,8
0,70,83,6
0,60,101,1
0,42,57,2
0,56,101,6
0,56,110,7
0,56,102,4
0,35,111,1
0,63,85,0
0,60,111,0
0,60,76,1
0,70,98,0
0,63,77,1
0,46,45,1
0,56,89,1
0,60,85,0
0,63,110,2
0,32,111,1
0,70,60,0
0,42,40,2
0,56,126,1
0,63,76,5
0,46,34,0
0,70,105,0
0,60,100,0
0,60,76,2
0,27,114,1
0,56,107,0
0,60,127,0
0,56,122,1
0,63,103,0
0,40,127,1
0,63,127,1
0,42,41,13
0,70,81,2
0,46,70,4
0,29,110,4
0,70,86,2
0,42,100,3
0,40,73,1
0,70,68,1
0,54,126,4
0,70,81,0
0,42,102,1
0,70,115,0
0,37,107,1
0,53,79,0
0,58,102,2
0,63,98,0
0,63,97,1
0,66,89,0
0,35,127,0
0,58,115,0
0,66,93,0
0,58,126,0
0,66,81,1
0,59,120,0
0,63,127,2
0,61,120,0
0,56,80,5
0,70,58,3
0,42,51,1
0,54,95,4
0,70,79,1
0,42,77,0
0,58,94,1
0,61,85,1
0,63,94,5
0,63,127,5
0,58,104,2
0,61,121,0
0,37,112,1
0,58,126,0
0,42,36,1
0,58,104,0
0,63,89,1
0,66,86,0
0,53,89,0
0,70,63,0
0,63,93,0
0,66,82,0
0,54,127,4
0,56,92,2
0,70,102,0
0,40,126,2
0,32,113,1
0,46,61,1
0,61,95,0
0,70,79,0
0,68,80,0
0,42,56,4
0,53,127,8
0,56,126,2
0,61,80,0
0,61,119,0
0,56,108,2
0,53,96,0
0,65,80,0
0,61,97,1
0,65,81,0
0,65,79,1
0,42,101,0
0,34,107,1
0,61,87,0
0,70,96,0
0,56,109,0
0,61,127,6
0,70,70,5
0,35,126,2
0,42,53,0
0,56,100,3
0,37,110,8
0,42,106,0
0,61,105,1
0,70,105,1
0,35,42,1
0,61,100,6
0,70,73,2
0,42,56,2
0,53,109,2
0,56,100,1
0,53,101,5
0,53,111,6
0,61,92,4
0,61,88,1
0,56,110,0
0,35,111,1
0,46,45,0
0,70,82,0
0,56,100,0
0,56,92,1
0,65,81,0
0,56,110,0
0,65,73,3
0,61,110,3
0,42,41,2
0,70,70,0
0,61,112,5
0,37,113,1
0,53,127,5
0,61,91,4
0,56,127,0
0,40,126,1
0,32,106,1
0,65,80,0
0,56,113,0
0,56,112,0
0,70,93,0
0,46,34,2
0,61,96,1
0,65,84,0
0,61,126,2
0,70,67,5
0,42,40,0
0,34,114,3
0,46,70,0
0,70,82,1
0,40,73,11
0,42,101,0
0,66,81,4
0,70,68,2
0,54,126,5
0,35,127,1
0,58,107,0
0,58,127,1
0,63,85,1
0,42,103,0
0,70,113,0
0,66,88,0
0,70,80,0
0,58,104,1
0,63,93,0
0,63,80,0
0,37,109,1
0,66,83,1
0,53,79,0
0,63,126,2
0,56,81,1
0,42,50,3
0,70,74,1
0,54,95,1
0,58,95,3
0,70,85,0
0,61,84,3
0,42,77,0
0,63,94,3
0,63,127,9
0,58,99,6
0,58,126,0
0,66,76,1
0,53,88,0
0,63,83,1
0,66,87,0
0,37,115,0
0,63,90,0
0,42,36,1
0,58,105,0
0,70,73,2
0,54,126,3
0,56,93,2
0,46,61,2
0,32,110,1
0,40,127,0
0,70,102,0
0,61,94,5
0,42,56,2
0,70,73,1
0,53,127,12
0,61,88,1
0,65,81,0
0,65,78,1
0,42,101,0
0,56,127,0
0,34,108,1
0,56,116,0
0,61,92,0
0,61,80,0
0,53,97,1
0,65,81,1
0,68,81,0
0,56,115,2
0,70,98,0
0,61,126,2
0,70,72,8
0,35,126,2
0,56,101,3
0,42,53,0
0,37,113,9
0,70,91,0
0,42,106,1
0,61,104,2
0,35,42,1
0,61,100,13
0,42,56,2
0,70,63,0
0,53,109,3
0,56,101,2
0,53,101,5
0,56,101,10
0,56,110,0
0,56,107,0
0,53,110,0
0,61,86,1
0,56,110,0
0,65,72,1
0,35,111,0
0,46,45,1
0,61,92,0
0,70,84,2
0,65,78,1
0,61,111,0
0,61,112,13
0,37,113,1
0,42,41,2
0,70,62,2
0,61,85,14
0,46,34,0
0,70,99,0
0,53,126,0
0,56,127,0
0,40,126,1
0,56,115,1
0,65,85,0
0,56,115,0
0,65,72,0
0,32,110,2
0,61,88,0
0,61,126,1
0,61,127,4
0,42,41,16
0,70,83,1
0,34,110,2
0,46,70,0
0,70,102,1
0,40,72,96
0,42,100,1
0,70,64,3
0,35,126,3
0,54,126,0
0,54,98,2
0,63,81,0
0,30,115,1
0,49,84,0
0,63,112,0
0,66,80,0
0,58,127,1
0,63,99,1
0,70,115,0
0,54,105,0
0,58,116,0
0,58,81,0
0,58,90,1
0,63,126,1
0,42,50,35
0,70,62,3
0,54,94,11
0,70,107,1
0,58,95,0
0,42,77,3
0,63,95,8
0,54,93,88
0,54,101,0
0,58,113,0
0,63,126,0
0,30,106,2
0,63,97,1
0,63,108,0
0,70,47,2
0,58,82,1
0,42,36,0
0,58,126,0
0,54,127,2
0,25,109,2
0,46,61,1
0,40,127,2
0,70,118,0
0,70,63,8
0,42,57,1
0,70,104,3
0,54,127,0
0,54,101,1
0,27,111,1
0,42,101,0
0,58,108,0
0,61,106,1
0,61,80,0
0,54,99,1
0,58,126,0
0,58,94,1
0,61,78,0
0,61,126,1
0,42,52,1
0,35,127,3
0,70,58,0
0,70,117,2
0,42,107,1
0,35,43,1
0,30,112,1
0,61,101,93
0,42,56,5
0,58,100,0
0,70,53,3
0,54,101,3
0,54,111,3
0,61,73,6
0,58,115,0
0,58,89,1
0,35,110,0
0,46,44,0
0,70,94,0
0,54,101,0
0,61,108,0
0,69,114,1
0,54,94,2
0,58,110,0
0,61,111,3
0,68,115,4
0,67,114,5
0,66,115,3
0,65,115,2
0,30,111,17
0,70,58,1
0,42,40,4
0,58,112,11
0,63,113,0
0,54,126,0
0,25,106,1
0,46,35,0
0,70,117,1
0,54,96,0
0,58,97,0
0,54,103,0
0,58,126,1
0,63,95,2
0,40,126,0
0,65,122,0
0,61,127,3
0,42,41,4
0,70,81,3
0,58,84,0
0,61,62,1
0,70,102,0
0,46,71,1
0,27,106,1
0,58,116,0
0,54,87,1
0,54,104,0
0,61,119,1
0,40,73,6
0,42,101,1
0,70,60,3
0,56,127,7
0,32,111,2
0,56,94,0
0,60,80,0
0,68,81,0
0,60,87,1
0,65,85,0
0,65,86,0
0,60,126,1
0,56,109,1
0,60,91,0
0,35,127,1
0,42,102,0
0,65,81,0
0,70,113,1
0,65,125,0
0,65,126,2
0,42,50,11
0,70,62,0
0,63,122,1
0,56,95,2
0,42,77,1
0,60,95,0
0,70,91,1
0,65,94,7
0,65,126,71
0,60,92,5
0,65,83,0
0,42,37,0
0,60,94,0
0,65,95,0
0,60,127,1
0,56,112,2
0,32,111,2
0,56,106,0
0,70,65,0
0,56,126,6
0,46,60,5
0,70,112,2
0,27,106,2
0,40,127,0
0,42,56,10
0,70,65,5
0,56,127,11
0,29,110,3
0,60,86,1
0,70,90,0
0,63,80,2
0,56,113,1
0,63,75,0
0,63,90,0
0,60,127,0
0,60,95,1
0,42,100,1
0,56,115,0
0,63,126,4
0,42,53,18
0,70,80,0
0,35,126,5
0,70,107,6
0,32,111,2
0,35,42,0
0,42,106,1
0,63,101,3
0,60,100,1
0,42,57,3
0,70,83,0
0,56,100,4
0,56,111,6
0,70,98,3
0,56,102,0
0,60,84,0
0,56,88,1
0,46,45,0
0,63,85,0
0,60,76,1
0,63,77,1
0,60,111,1
0,35,111,2
0,63,110,5
0,42,41,1
0,70,60,5
0,32,111,1
0,56,126,1
0,63,77,5
0,40,126,0
0,70,105,0
0,60,127,1
0,60,76,1
0,46,34,1
0,60,101,0
0,56,106,1
0,63,102,0
0,27,106,1
0,56,122,0
0,63,127,4
0,70,81,1
0,42,40,2
0,29,110,4
0,46,70,3
0,70,86,1
0,70,68,20
0,40,73,1
0,42,101,4
0,54,126,1
0,58,103,6
0,70,115,0
0,70,80,0
0,66,81,1
0,37,109,2
0,66,88,0
0,53,79,0
0,63,97,1
0,35,127,0
0,63,99,0
0,66,92,0
0,42,102,1
0,59,120,0
0,58,115,1
0,58,126,0
0,63,127,2
0,61,121,15
0,56,81,9
0,42,50,6
0,70,58,0
0,54,94,7
0,70,79,4
0,61,84,0
0,58,95,2
0,42,77,2
0,63,95,5
0,63,126,8
0,63,93,1
0,63,89,1
0,53,88,1
0,61,121,0
0,58,104,0
0,70,63,0
0,66,87,1
0,58,127,0
0,37,106,1
0,58,104,0
0,66,83,0
0,42,37,1
0,54,126,1
0,40,126,3
0,56,93,1
0,46,61,0
0,70,102,0
0,32,111,1
0,61,95,0
0,68,81,2
0,70,79,1
0,42,56,1
0,53,126,5
0,34,107,2
0,61,118,0
0,65,78,1
0,42,100,0
0,61,96,0
0,56,108,1
0,70,96,0
0,56,108,0
0,61,80,0
0,65,80,1
0,61,87,2
0,53,96,0
0,65,81,0
0,56,127,1
0,61,127,1
0,56,100,3
0,35,126,1
0,70,70,0
0,42,53,1
0,37,110,4
0,42,107,1
0,61,105,1
0,35,42,2
0,70,105,0
0,61,100,2
0,70,73,6
0,56,100,2
0,42,56,2
0,53,108,1
0,53,101,1
0,53,111,8
0,46,45,6
0,61,89,1
0,61,93,0
0,56,100,2
0,65,80,0
0,56,110,0
0,56,92,1
0,65,72,0
0,70,82,0
0,56,111,1
0,35,111,0
0,61,110,3
0,70,70,4
0,37,107,1
0,61,113,1
0,42,40,0
0,53,127,7
0,65,81,2
0,46,34,1
0,32,112,1
0,61,97,0
0,70,93,1
0,65,85,0
0,56,126,0
0,61,91,1
0,40,126,0
0,56,112,0
0,56,112,1
0,61,127,0
0,42,41,2
0,70,67,1
0,34,110,1
0,46,70,0
0,70,82,0
0,42,100,12
0,70,68,0
0,40,73,1
0,66,81,4
0,54,127,2
0,58,106,3
0,63,84,1
0,35,127,0
0,42,103,0
0,66,89,0
0,53,78,2
0,63,92,0
0,70,113,1
0,70,80,0
0,66,83,1
0,58,126,0
0,63,81,0
0,37,111,1
0,58,104,0
0,63,127,4
0,42,51,3
0,70,74,1
0,56,81,1
0,61,84,0
0,54,94,0
0,42,76,3
0,70,85,0
0,58,94,0
0,63,95,0
0,63,127,3
0,53,88,3
0,42,37,2
0,63,83,0
0,66,87,0
0,58,126,0
0,37,111,1
0,66,77,0
0,63,91,0
0,58,98,1
0,70,73,1
0,58,104,0
0,54,126,1
0,40,127,1
0,32,112,1
0,56,93,0
0,70,102,1
0,46,61,1
0,61,95,6
0,42,56,2
0,70,73,0
0,53,127,9
0,70,98,1
0,68,81,0
0,65,79,1
0,53,96,0
0,56,117,1
0,56,114,1
0,61,92,0
0,65,80,0
0,56,127,0
0,61,80,0
0,61,88,1
0,42,100,1
0,65,81,0
0,34,110,1
0,61,126,6
0,70,72,1
0,56,100,2
0,42,53,1
0,35,126,2
0,37,111,9
0,42,107,1
0,61,105,3
0,35,42,0
0,70,91,0
0,61,100,13
0,53,109,0
0,56,101,2
0,42,56,1
0,70,63,3
0,53,100,4
0,53,111,6
0,61,93,3
0,46,45,1
0,70,84,0
0,56,101,2
0,61,87,0
0,65,72,1
0,35,111,0
0,56,111,0
0,56,110,1
0,56,107,0
0,65,78,1
0,61,110,1
0,37,109,9
0,61,112,0
0,42,40,0
0,70,62,5
0,53,127,9
0,46,34,5
0,65,84,1
0,56,114,0
0,61,85,0
0,61,105,0
0,61,1,0
0,70,99,0
0,61,89,0
0,56,126,0
0,65,73,1
0,56,115,0
0,40,126,1
0,32,108,1
0,61,126,6
0,42,41,16
0,70,83,1
0,34,114,3
0,46,70,0
0,70,102,2
0,61,104,1
0,61,1,0
0,40,72,99
0,42,101,4
0,70,64,1
0,54,127,12
0,30,115,0
0,70,105,0
0,70,1,0
0,35,126,0
0,49,85,0
0,70,115,0
0,58,127,0
0,63,126,6
0,42,50,100
0,70,62,3
0,54,94,14
0,58,95,3
0,42,76,1
0,70,107,0
0,63,95,4
0,63,126,91
0,70,47,2
0,42,37,3
0,58,126,3
0,54,127,3
0,70,118,0
0,40,127,1
0,46,61,1
0,70,63,96
0,42,56,3
0,54,126,94
0,70,104,1
0,42,101,2
0,58,127,2
0,61,127,4
0,35,127,99
0,70,58,1
0,30,108,1
0,42,53,1
0,30,107,7
0,42,106,1
0,35,43,1
0,70,117,2
0,61,100,90
0,70,53,4
0,58,101,4
0,42,57,2
0,54,100,4
0,54,110,12
0,58,111,0
0,35,110,2
0,70,94,0
0,46,44,2
0,61,111,2
0,70,58,96
0,42,40,2
0,54,126,11
0,46,35,5
0,65,105,1
0,65,1,0
0,40,127,0
0,70,117,1
0,58,126,1
0,27,109,1
0,61,127,3
0,70,81,97
0,42,40,1
0,70,102,4
0,46,71,3
0,30,108,1
0,40,72,97
0,42,101,2
0,70,60,1
0,56,127,8
0,42,103,6
0,60,126,1
0,65,104,2
0,65,1,0
0,35,127,0
0,32,111,3
0,70,113,0
0,65,126,6
0,42,50,96
0,70,62,3
0,56,95,3
0,70,91,1
