track,note,velocity,time
2,67,96,2720
2,55,85,0
2,48,90,0
2,67,0,43
2,72,89,0
2,72,0,120
2,76,89,0
2,76,0,120
2,74,89,0
2,74,0,240
2,76,89,0
2,76,0,15
2,67,96,0
2,67,0,120
2,72,89,0
2,72,0,117
2,76,89,0
2,76,0,120
2,74,96,0
2,74,0,240
2,76,89,0
2,76,0,120
2,72,89,0
2,72,0,240
2,48,0,0
2,55,0,0
2,67,96,0
2,53,74,0
2,48,79,0
2,67,0,5
2,72,89,0
2,72,0,120
2,76,89,0
2,76,0,120
2,74,89,0
2,74,0,240
2,76,89,0
2,76,0,5
2,67,96,0
2,67,0,15
2,72,89,0
2,72,0,120
2,76,89,0
2,76,0,120
2,74,96,0
2,74,0,240
2,76,89,0
2,76,0,120
2,72,89,0
2,72,0,28
2,48,0,0
2,53,0,0
2,67,96,0
2,55,85,0
2,48,90,0
2,67,0,37
2,72,89,0
2,72,0,120
2,76,89,0
2,76,0,120
2,74,89,0
2,74,0,240
2,76,89,0
2,76,0,37
2,67,96,0
2,67,0,45
2,72,89,0
2,72,0,120
2,76,89,0
2,76,0,120
2,74,96,0
2,74,0,240
2,76,89,0
2,76,0,120
2,72,89,0
2,72,0,45
2,48,0,0
2,55,0,0
2,67,96,0
2,53,74,0
2,48,79,0
2,67,0,40
2,72,89,0
2,72,0,120
2,76,89,0
2,76,0,120
2,74,89,0
2,74,0,240
2,76,89,0
2,76,0,27
2,67,96,0
2,67,0,37
2,72,89,0
2,72,0,120
2,76,89,0
2,76,0,120
2,74,96,0
2,74,0,240
2,76,89,0
2,76,0,120
2,72,89,0
2,72,0,22
2,48,0,0
2,53,0,0
2,36,108,0
2,55,68,32
2,60,96,120
2,64,100,120
2,60,0,240
2,55,0,0
2,60,104,0
2,55,76,120
2,36,0,5
2,36,112,0
2,55,0,12
2,53,84,0
2,60,0,120
2,57,84,0
2,60,100,120
2,64,0,120
2,53,0,120
2,65,84,0
2,53,67,120
2,53,0,12
2,57,0,0
2,36,0,0
2,50,100,0
2,35,100,0
2,60,0,20
2,55,84,0
2,65,0,120
2,59,76,0
2,62,100,120
2,67,76,240
2,67,0,34
2,50,0,0
2,35,0,0
2,55,0,0
2,62,0,0
2,59,0,0
2,67,65,0
2,64,81,0
2,60,93,0
2,36,97,0
2,36,0,270
2,67,0,0
2,64,0,0
2,60,0,0
2,67,78,0
2,64,78,0
2,60,82,0
2,48,82,0
2,48,0,189
2,67,0,0
2,64,0,0
2,60,0,0
2,62,96,0
2,59,88,0
2,47,92,0
2,47,0,194
2,59,0,0
2,62,0,0
2,64,76,0
2,60,88,0
2,57,80,0
2,45,92,0
2,60,0,163
2,45,0,120
2,60,100,0
2,57,0,120
2,45,80,0
2,57,84,120
2,57,0,52
2,64,0,0
2,60,0,0
2,45,0,0
2,65,92,0
2,60,100,0
2,57,80,0
2,38,92,0
2,65,0,528
2,64,88,0
2,64,0,47
2,38,0,0
2,57,0,0
2,60,0,0
2,62,88,0
2,60,100,0
2,55,76,0
2,43,92,0
2,55,0,297
2,55,92,0
2,43,0,120
2,43,84,0
2,60,0,120
2,60,86,0
2,60,0,55
2,43,0,0
2,62,0,0
2,55,0,0
2,59,92,0
2,55,92,0
2,50,92,0
2,43,84,0
2,43,0,57
2,59,0,0
2,55,0,0
2,50,0,0
2,60,108,0
2,55,76,0
2,50,92,0
2,45,92,0
2,45,0,30
2,60,0,0
2,55,0,0
2,50,0,0
2,62,100,0
2,55,84,0
2,50,96,0
2,47,96,0
2,47,0,5
2,62,0,0
2,55,0,0
2,50,0,0
2,67,92,0
2,64,96,0
2,36,96,0
2,72,108,120
2,36,0,110
2,36,100,0
2,72,0,120
2,72,112,0
2,36,0,120
2,36,92,0
2,67,0,120
2,67,96,0
2,67,0,32
2,36,0,0
2,64,0,0
2,72,0,0
2,67,92,0
2,60,96,0
2,57,92,0
2,36,100,0
2,67,0,133
2,65,80,120
2,60,0,120
2,36,0,0
2,36,100,0
2,60,100,120
2,60,0,27
2,65,0,0
2,57,0,0
2,36,0,0
2,67,88,0
2,62,92,0
2,59,76,0
2,55,92,0
2,47,92,0
2,62,0,142
2,62,96,0
2,62,0,120
2,67,0,0
2,64,100,0
2,55,0,120
2,47,0,0
2,55,88,0
2,47,88,0
2,64,0,8
2,65,100,0
2,62,40,0
2,62,0,63
2,59,0,0
2,47,0,0
2,55,0,0
2,65,0,0
2,65,100,0
2,60,108,0
2,55,92,0
2,48,104,0
2,55,0,8
2,65,0,0
2,64,104,0
2,55,80,0
2,48,0,120
2,40,104,0
2,60,0,65
2,55,0,0
2,64,0,0
2,62,100,0
2,55,92,0
2,62,0,57
2,40,0,0
2,60,108,0
2,41,100,0
2,41,0,54
2,60,0,0
2,55,0,0
2,67,84,0
2,60,108,0
2,55,88,0
2,41,92,0
2,41,0,24
2,67,0,0
2,60,0,0
2,55,0,0
2,65,100,0
2,60,100,0
2,57,92,0
2,38,96,0
2,60,0,140
2,65,0,0
2,64,92,0
2,64,0,120
2,62,92,0
2,62,0,240
2,60,82,0
2,60,0,62
2,57,0,0
2,38,0,0
2,62,92,0
2,60,92,0
2,55,68,0
2,43,92,0
2,55,0,135
2,60,0,0
2,55,72,0
2,62,0,120
2,60,100,0
2,43,0,120
2,43,84,0
2,60,0,120
2,62,100,0
2,62,0,55
2,43,0,0
2,55,0,0
2,62,85,0
2,59,81,0
2,55,77,0
2,43,77,0
2,43,0,37
2,62,0,0
2,59,0,0
2,55,0,0
2,36,108,0
2,55,68,5
2,60,96,120
2,64,100,120
2,60,0,240
2,55,0,0
2,60,104,0
2,55,76,120
2,36,0,240
2,36,112,0
2,55,0,97
2,53,84,0
2,60,0,120
2,57,84,0
2,60,100,120
2,64,0,58
2,53,0,120
2,65,84,0
2,53,67,120
2,53,0,42
2,57,0,0
2,36,0,0
2,50,100,0
2,35,100,0
2,60,0,120
2,55,84,0
2,65,0,120
2,59,76,0
2,62,100,29
2,67,76,240
2,67,0,22
2,50,0,0
2,35,0,0
2,55,0,0
2,62,0,0
2,59,0,0
2,67,65,0
2,64,81,0
2,60,93,0
2,36,97,0
2,36,0,244
2,67,0,0
2,64,0,0
2,60,0,0
2,67,78,0
2,64,78,0
2,60,82,0
2,48,82,0
2,62,96,15
2,59,88,0
2,47,92,0
2,48,0,120
2,60,0,0
2,67,0,0
2,64,0,0
2,47,0,44
2,62,0,0
2,59,0,0
2,65,76,0
2,60,88,0
2,57,80,0
2,41,92,0
2,60,0,160
2,60,100,120
2,57,0,120
2,57,100,0
2,57,0,360
2,60,0,53
2,65,0,0
2,41,0,0
2,65,92,0
2,60,100,0
2,57,80,0
2,38,92,0
2,65,0,515
2,64,88,0
2,64,0,62
2,38,0,0
2,57,0,0
2,60,0,0
2,62,88,0
2,60,100,0
2,55,76,0
2,43,92,0
2,55,0,10
2,55,92,0
2,43,0,120
2,43,84,0
2,60,0,83
2,60,86,0
2,60,0,5
2,43,0,0
2,62,0,0
2,55,0,0
2,59,92,0
2,55,92,0
2,50,92,0
2,43,84,0
2,43,0,45
2,59,0,0
2,55,0,0
2,50,0,0
2,60,108,0
2,55,76,0
2,50,92,0
2,45,92,0
2,45,0,19
2,60,0,0
2,55,0,0
2,50,0,0
2,62,100,0
2,55,84,0
2,50,96,0
2,47,96,0
2,47,0,10
2,62,0,0
2,55,0,0
2,50,0,0
2,67,92,0
2,64,96,0
2,36,96,0
2,72,108,120
2,36,0,108
2,36,100,0
2,72,0,120
2,72,112,0
2,36,0,120
2,36,92,0
2,67,0,120
2,67,96,0
2,67,0,19
2,36,0,0
2,64,0,0
2,72,0,0
2,67,92,0
2,60,96,0
2,57,92,0
2,36,100,0
2,67,0,108
2,65,80,120
2,60,0,120
2,36,0,0
2,36,100,0
2,60,100,120
2,60,0,28
2,65,0,0
2,57,0,0
2,36,0,0
2,67,88,0
2,62,92,0
2,59,76,0
2,55,92,0
2,47,92,0
2,62,0,144
2,62,96,0
2,62,0,120
2,67,0,0
2,64,100,0
2,55,0,120
2,47,0,0
2,55,88,0
2,47,88,0
2,64,0,49
2,65,100,0
2,62,40,0
2,62,0,50
2,59,0,0
2,47,0,0
2,55,0,0
2,65,0,0
2,65,100,0
2,60,108,0
2,55,92,0
2,48,104,0
2,55,0,287
2,65,0,0
2,64,104,0
2,55,80,0
2,48,0,120
2,40,104,0
2,60,0,240
2,55,0,0
2,64,0,0
2,62,100,0
2,55,92,0
2,62,0,225
2,40,0,0
2,60,108,0
2,41,100,0
2,41,0,29
2,60,0,0
2,55,0,0
2,67,84,0
2,60,108,0
2,55,88,0
2,41,92,0
2,41,0,27
2,67,0,0
2,60,0,0
2,55,0,0
2,65,100,0
2,60,100,0
2,57,92,0
2,38,96,0
2,60,0,100
2,65,0,0
2,64,92,0
2,64,0,120
2,62,92,0
2,62,0,240
2,60,82,0
2,60,0,22
2,57,0,0
2,38,0,0
2,62,92,0
2,60,92,0
2,55,68,0
2,43,92,0
2,55,0,112
2,60,0,0
2,55,72,0
2,62,0,120
2,60,100,0
2,43,0,120
2,43,84,0
2,60,0,120
2,62,100,0
2,62,0,33
2,43,0,0
2,55,0,0
2,62,100,0
2,59,92,0
2,43,96,0
2,55,72,162
2,59,0,120
2,62,0,0
2,60,116,0
2,43,0,120
2,43,88,0
2,55,0,120
2,55,84,0
2,60,0,90
2,62,104,0
2,62,0,240
2,55,0,0
2,43,0,0
2,65,108,0
2,60,116,0
2,57,104,0
2,41,108,0
2,57,0,129
2,60,0,0
2,57,89,0
2,65,0,120
2,60,116,0
2,41,0,120
2,41,108,0
2,65,108,120
2,41,0,120
2,41,76,0
2,41,0,64
2,65,0,0
2,60,0,0
2,57,0,0
2,67,108,0
2,62,82,0
2,59,100,0
2,41,104,0
2,59,0,124
2,62,0,0
2,59,100,0
2,67,0,120
2,41,0,0
2,62,100,0
2,41,100,120
2,67,112,120
2,67,0,30
2,59,0,0
2,62,0,0
2,41,0,0
2,67,104,0
2,62,108,0
2,59,92,0
2,40,116,0
2,59,0,27
2,59,84,120
2,62,0,120
2,62,100,0
2,40,0,120
2,67,0,0
2,40,100,0
2,67,104,120
2,67,0,54
2,62,0,0
2,59,0,0
2,40,0,0
2,65,96,0
2,60,120,0
2,57,104,0
2,41,116,0
2,57,0,275
2,57,108,0
2,60,0,120
2,60,115,0
2,41,0,8
2,57,0,0
2,65,0,0
2,64,107,0
2,55,115,0
2,40,120,0
2,40,0,48
2,60,0,0
2,64,0,0
2,55,0,0
2,65,116,0
2,60,124,0
2,57,108,0
2,38,116,0
2,57,0,178
2,60,0,0
2,57,88,0
2,65,0,120
2,38,0,0
2,60,124,0
2,38,92,120
2,60,0,120
2,65,108,0
2,60,100,0
2,57,0,240
2,38,0,44
2,65,0,0
2,60,0,0
2,67,100,0
2,62,112,0
2,59,92,0
2,43,100,0
2,59,0,173
2,62,0,0
2,59,104,0
2,67,0,120
2,62,108,0
2,43,0,120
2,43,96,0
2,67,112,120
2,67,0,39
2,59,0,0
2,62,0,0
2,43,0,0
2,64,108,0
2,60,124,0
2,36,120,0
2,55,116,260
2,55,0,240
2,55,112,0
2,60,0,120
2,60,116,0
2,64,0,120
2,64,120,0
2,64,0,120
2,55,0,0
2,36,0,0
2,65,124,0
2,36,120,0
2,60,0,120
2,58,104,0
2,62,112,13
2,65,0,23
2,65,104,0
2,58,0,120
2,67,116,0
2,62,0,120
2,60,124,0
2,65,0,120
2,64,96,0
2,67,0,120
2,67,108,0
2,67,0,58
2,64,0,0
2,36,0,0
2,60,0,0
2,69,108,0
2,65,108,0
2,60,116,0
2,41,116,0
2,60,0,65
2,65,0,120
2,60,108,0
2,69,0,120
2,65,116,0
2,41,0,120
2,41,100,0
2,69,116,120
2,60,0,240
2,65,0,52
2,41,0,0
2,69,0,0
2,71,104,0
2,67,104,0
2,62,96,0
2,43,116,0
2,62,0,47
2,71,0,120
2,62,96,0
2,72,108,120
2,62,0,120
2,43,0,0
2,43,108,0
2,72,0,120
2,62,100,0
2,74,120,120
2,74,0,33
2,67,0,0
2,43,0,0
2,62,0,0
2,72,116,0
2,67,116,0
2,64,116,0
2,48,120,0
2,48,0,283
2,72,0,0
2,64,0,44
2,67,0,0
2,74,100,0
2,67,112,0
2,62,96,0
2,47,116,0
2,79,88,265
2,79,0,15
2,62,0,0
2,74,0,0
2,67,0,0
2,47,0,0
2,79,124,0
2,67,124,0
2,60,124,0
2,45,124,0
2,67,0,4
2,79,0,0
2,77,76,6
2,65,76,0
2,76,100,54
2,64,100,0
2,65,116,60
2,65,0,6
2,77,0,0
2,77,116,11
2,76,0,43
2,64,0,0
2,65,0,420
2,45,0,0
2,60,0,0
2,77,112,0
2,72,116,0
2,69,104,0
2,38,116,0
2,77,0,17
2,77,0,127
2,38,0,0
2,76,112,0
2,72,0,13
2,38,112,0
2,72,108,120
2,72,0,165
2,69,0,0
2,76,0,0
2,38,0,37
2,72,116,0
2,69,100,0
2,65,112,0
2,38,104,0
2,69,0,273
2,69,108,0
2,38,0,120
2,65,0,0
2,38,108,0
2,65,100,120
2,65,0,18
2,69,0,0
2,72,0,0
2,38,0,0
2,62,116,0
2,60,120,0
2,55,100,0
2,43,108,0
2,55,0,148
2,62,0,0
2,60,0,0
2,55,92,0
2,60,120,120
2,43,0,120
2,43,104,0
2,60,0,120
2,62,112,0
2,43,0,240
2,62,0,5
2,62,96,0
2,59,96,0
2,43,100,0
2,43,0,120
2,55,0,0
2,62,0,0
2,59,0,0
2,64,127,0
2,60,127,0
2,55,127,0
2,36,127,0
2,55,0,240
2,64,0,120
2,60,0,0
2,36,0,0
2,60,127,0
2,57,124,0
2,53,127,0
2,38,116,0
2,38,0,240
2,53,0,0
2,57,0,0
2,64,127,0
2,55,127,0
2,40,116,0
2,40,0,240
2,60,0,0
2,64,0,0
2,55,0,0
2,65,116,0
2,60,124,0
2,57,112,0
2,41,116,0
2,57,0,152
2,60,0,0
2,57,97,0
2,65,0,120
2,60,124,0
2,41,0,120
2,41,116,0
2,65,116,120
2,41,0,120
2,41,84,0
2,41,0,18
2,65,0,0
2,60,0,0
2,57,0,0
2,67,116,0
2,62,90,0
2,59,108,0
2,41,112,0
2,59,0,133
2,62,0,0
2,59,108,0
2,67,0,120
2,41,0,0
2,62,108,0
2,41,108,120
2,67,120,120
2,67,0,39
2,59,0,0
2,62,0,0
2,41,0,0
2,67,112,0
2,62,116,0
2,59,100,0
2,40,124,0
2,59,0,35
2,59,92,120
2,62,0,120
2,62,108,0
2,40,0,120
2,67,0,0
2,40,108,0
2,67,112,120
2,67,0,49
2,62,0,0
2,59,0,0
2,40,0,0
2,65,104,0
2,60,127,0
2,57,112,0
2,41,124,0
2,57,0,147
2,57,116,0
2,60,0,120
2,60,123,0
2,41,0,120
2,40,127,0
2,57,0,120
2,65,0,0
2,64,115,0
2,55,123,0
2,55,0,44
2,40,0,0
2,60,0,0
2,64,0,0
2,65,124,0
2,60,127,0
2,57,116,0
2,38,124,0
2,57,0,159
2,60,0,0
2,57,96,0
2,65,0,120
2,38,0,0
2,60,127,0
2,38,100,120
2,60,0,120
2,65,116,0
2,60,108,0
2,57,0,240
2,38,0,53
2,65,0,0
2,60,0,0
2,67,108,0
2,62,120,0
2,59,100,0
2,43,108,0
2,59,0,183
2,62,0,0
2,59,112,0
2,67,0,120
2,62,116,0
2,43,0,120
2,43,104,0
2,67,120,120
2,67,0,48
2,59,0,0
2,62,0,0
2,43,0,0
2,67,127,0
2,64,124,0
2,60,124,0
2,48,127,0
2,60,0,29
2,64,0,120
2,60,124,0
2,67,0,120
2,48,0,0
2,64,124,0
2,48,120,120
2,67,127,120
2,67,0,57
2,60,0,0
2,64,0,0
2,48,0,0
2,65,127,0
2,62,116,0
2,58,127,0
2,48,127,0
2,62,0,172
2,65,0,0
2,64,127,0
2,48,0,120
2,62,124,0
2,48,120,120
2,62,0,120
2,60,127,0
2,60,0,93
2,48,0,0
