track,note,velocity,time
1,72,88,1148
1,79,57,184
1,84,70,192
1,91,78,192
1,87,70,36
1,84,70,24
1,79,55,132
1,82,78,132
1,53,82,0
1,77,94,0
1,84,94,184
1,87,80,0
1,53,78,0
1,77,66,0
1,84,82,188
1,87,74,0
1,84,82,144
1,87,76,4
1,57,80,132
1,58,62,160
1,89,90,12
1,84,90,0
1,86,61,168
1,84,65,8
1,84,80,136
1,89,86,0
1,86,72,204
1,89,98,56
1,84,98,0
1,82,76,0
1,87,96,28
1,91,102,0
1,63,84,184
1,82,82,4
1,87,90,172
1,91,68,88
1,63,86,4
1,89,92,188
1,62,76,8
1,82,72,152
1,86,88,164
1,62,92,148
1,89,84,4
1,60,85,160
1,87,78,0
1,79,69,56
1,82,76,184
1,91,79,140
1,87,79,184
1,82,79,164
1,79,61,160
1,72,95,0
1,82,78,172
1,65,70,0
1,77,96,8
1,84,96,192
1,87,80,0
1,65,90,28
1,77,51,8
1,84,80,188
1,87,76,0
1,84,90,160
1,87,78,0
1,69,92,40
1,84,70,0
1,89,72,0
1,70,72,4
1,86,80,196
1,84,49,36
1,84,84,116
1,89,88,0
1,86,72,196
1,84,74,44
1,89,74,0
1,82,59,8
1,62,84,48
1,86,76,12
1,91,92,0
1,62,78,128
1,86,74,4
1,91,84,4
1,86,76,24
1,67,93,0
1,91,82,4
1,86,88,100
1,91,100,0
1,67,90,4
1,79,78,12
1,87,74,0
1,60,80,12
1,53,92,1276
1,65,84,8
1,68,82,356
1,72,82,8
1,75,59,8
1,65,86,12
1,68,86,156
1,72,98,4
1,75,68,12
1,57,84,40
1,77,94,196
1,58,60,0
1,72,88,4
1,77,96,4
1,72,96,12
1,74,74,8
1,70,47,52
1,77,102,40
1,72,86,4
1,74,66,20
1,77,96,124
1,72,66,4
1,70,59,212
1,79,104,56
1,63,93,180
1,70,74,196
1,75,78,156
1,63,60,108
1,79,86,4
1,77,92,184
1,62,76,0
1,70,78,132
1,74,74,152
1,62,74,128
1,77,84,20
1,60,86,152
1,75,82,8
1,67,88,20
1,70,80,192
1,79,59,12
1,75,78,220
1,70,82,128
1,67,66,120
1,70,88,28
1,53,90,132
1,68,88,20
1,75,78,168
1,72,96,0
1,68,63,76
1,75,78,180
1,72,98,0
1,75,78,108
1,72,98,4
1,57,72,4
1,58,62,196
1,77,100,0
1,72,102,12
1,74,86,164
1,70,65,100
1,77,104,68
1,72,80,8
1,74,88,0
1,72,92,96
1,77,96,4
1,70,70,184
1,75,76,68
1,79,92,8
1,63,84,184
1,70,80,204
1,75,96,152
1,79,86,36
1,63,62,12
1,77,90,0
1,62,78,12
1,70,74,116
1,74,86,160
1,77,78,60
1,62,72,8
1,60,74,36
1,75,80,8
1,79,82,164
1,82,76,156
1,91,66,12
1,87,80,136
1,82,88,124
1,79,98,160
1,82,82,100
1,53,82,4
1,80,80,20
1,87,86,184
1,84,102,0
1,80,68,40
1,87,84,172
1,84,88,4
1,84,98,4
1,87,82,8
1,57,76,52
1,84,82,188
1,89,88,4
1,58,60,8
1,86,66,156
1,84,82,120
1,89,100,92
1,84,96,8
1,86,55,184
1,84,88,56
1,89,96,0
1,82,74,212
1,91,90,52
1,87,88,4
1,63,78,184
1,82,72,0
1,87,72,144
1,91,70,40
1,63,60,0
1,89,88,200
1,62,66,0
1,82,80,72
1,86,94,164
1,89,90,80
1,62,58,4
1,87,70,148
1,79,74,12
1,60,72,0
1,53,82,1220
1,68,72,8
1,75,78,196
1,72,98,4
1,68,53,4
1,72,102,188
1,75,80,4
1,72,96,80
1,75,80,4
1,57,84,52
1,58,54,196
1,72,96,8
1,77,102,0
1,74,76,168
1,72,55,172
1,72,94,88
1,77,96,0
1,74,51,208
1,77,94,12
1,72,100,8
1,70,70,204
1,62,84,44
1,75,74,0
1,79,53,12
1,63,54,184
1,70,78,136
1,75,68,184
1,63,58,76
1,79,57,0
1,62,74,204
1,77,80,4
1,70,74,100
1,74,82,16
1,62,78,40
1,77,66,8
1,60,68,20
1,75,76,12
1,67,76,184
1,70,70,148
1,79,70,156
1,60,76,8
1,75,61,128
1,60,68,124
1,70,78,4
1,67,88,132
1,70,76,152
1,53,78,0
1,68,72,4
1,75,78,196
1,72,98,4
1,68,53,4
1,72,102,188
1,75,80,4
1,72,96,164
1,75,80,4
1,57,93,48
1,58,66,196
1,72,96,12
1,77,102,0
1,74,76,176
1,72,55,172
1,72,94,88
1,77,96,0
1,74,51,88
1,77,94,60
1,58,60,0
1,72,100,8
1,70,70,28
1,62,74,36
1,75,74,8
1,79,53,12
1,63,62,180
1,70,78,140
1,75,68,184
1,79,57,76
1,63,66,8
1,77,80,200
1,62,66,0
1,70,74,100
1,74,82,8
1,62,86,44
1,77,66,4
1,60,74,24
1,75,76,4
1,67,76,196
1,70,70,4
1,79,70,176
1,60,56,8
1,75,61,128
1,60,66,128
1,70,78,0
1,67,88,132
1,70,76,152
1,60,86,128
1,68,96,4
1,75,80,132
1,60,88,0
1,72,106,12
1,58,58,0
1,60,82,200
1,68,70,192
1,72,104,4
1,63,60,4
1,75,82,4
1,72,109,120
1,74,109,8
1,77,111,4
1,58,41,208
1,72,74,24
1,62,43,64
1,74,74,12
1,72,106,76
1,62,80,0
1,74,111,16
1,77,108,12
1,60,70,296
1,72,86,8
1,70,86,144
1,58,52,8
1,75,74,8
1,62,52,4
1,79,53,8
1,63,66,108
1,70,78,180
1,75,68,184
1,79,57,76
1,63,62,8
1,62,78,192
1,77,80,8
1,70,74,100
1,74,82,168
1,62,78,44
1,77,66,4
1,60,74,24
1,75,76,8
1,67,76,172
1,70,70,148
1,79,70,176
1,75,61,128
1,70,78,128
1,67,88,132
1,70,76,128
1,53,84,128
1,68,96,4
1,75,80,132
1,72,106,12
1,68,70,592
1,72,104,20
1,75,82,8
1,57,92,116
1,72,109,4
1,74,109,8
1,77,111,4
1,58,64,108
1,72,74,200
1,74,74,76
1,72,106,120
1,74,111,16
1,77,108,12
1,72,86,304
1,70,86,68
1,63,84,12
1,79,106,4
1,75,92,0
1,70,63,380
1,75,90,0
1,79,106,4
1,62,82,16
1,77,109,24
1,74,110,8
1,70,70,4
1,74,88,108
1,77,94,8
1,60,84,4
1,75,106,28
1,72,115,4
1,67,59,360
1,70,74,168
1,79,57,8
1,75,88,160
1,70,82,128
1,67,92,152
1,70,82,76
1,53,82,56
1,68,72,8
1,72,90,128
1,75,72,4
1,68,68,8
1,68,43,84
1,75,82,144
1,72,102,0
1,57,82,52
1,58,60,196
1,72,76,8
1,77,94,8
1,74,55,188
1,72,39,4
1,70,22,36
1,72,90,60
1,77,94,0
1,74,43,148
1,72,74,64
1,70,53,80
1,62,80,48
1,63,56,192
1,79,100,12
1,70,72,168
1,75,72,172
1,63,62,0
1,79,98,4
1,62,70,192
1,77,94,12
1,70,76,120
1,74,84,172
1,62,78,48
1,77,92,8
1,75,78,156
1,60,68,0
1,67,74,32
1,70,74,168
1,79,70,140
1,60,72,4
1,75,70,140
1,70,53,124
1,60,70,8
1,67,49,0
1,70,76,152
1,60,66,12
1,53,66,12
1,68,90,16
1,75,82,12
1,72,104,0
1,53,74,156
1,68,66,16
1,55,52,8
1,56,49,192
1,75,102,8
1,72,104,0
1,77,104,84
1,72,92,8
1,57,88,0
1,74,72,192
1,58,68,4
1,72,47,12
1,72,76,112
1,77,88,8
1,74,72,120
1,58,37,16
1,72,86,64
1,77,98,12
1,74,72,180
1,70,80,52
1,62,94,112
1,63,54,196
1,79,88,4
1,70,74,164
1,75,78,176
1,63,68,156
1,79,74,8
1,77,94,52
1,62,74,0
1,70,82,100
1,74,92,0
1,62,70,176
1,77,86,8
1,60,60,172
1,75,74,0
1,67,96,40
1,70,61,184
1,79,59,4
1,60,72,12
1,75,94,40
1,60,66,132
1,70,80,8
1,67,76,120
1,70,78,52
1,53,93,16
1,68,84,20
1,75,82,220
1,68,82,0
1,72,94,0
1,65,94,40
1,68,78,152
1,75,86,28
1,72,92,0
1,72,106,120
1,57,84,0
1,74,88,16
1,77,106,4
1,58,54,80
1,72,70,164
1,72,90,68
1,74,106,20
1,58,62,16
1,77,98,0
1,72,76,288
1,70,78,52
1,62,95,136
1,63,84,196
1,79,98,4
1,70,61,160
1,75,70,172
1,79,90,56
1,63,64,4
1,62,78,16
1,77,92,4
1,70,82,84
1,74,88,172
1,62,76,156
1,77,92,0
1,60,90,172
1,75,72,4
1,67,94,32
1,70,76,184
1,60,82,128
1,79,55,12
1,75,72,108
1,60,45,76
1,70,82,8
1,67,63,120
1,70,80,148
1,53,78,40
1,68,76,16
1,75,80,212
1,72,98,16
1,68,63,572
1,56,56,0
1,75,84,28
1,72,94,4
1,57,80,0
1,72,111,136
1,58,76,0
1,74,102,16
1,77,104,8
1,72,61,16
1,74,104,128
1,72,80,8
1,77,102,0
1,60,92,4
1,72,72,8
1,62,52,4
1,70,74,4
1,63,93,16
1,75,92,8
1,79,109,0
1,70,39,356
1,79,106,148
1,75,82,4
1,62,82,60
1,77,98,8
1,74,100,4
1,70,72,372
1,74,84,136
1,77,78,0
1,60,84,124
1,75,86,24
1,72,102,0
1,67,63,4
1,70,78,172
1,79,70,12
1,75,98,132
1,60,82,40
1,70,90,0
1,67,76,152
1,70,80,140
1,53,92,32
1,68,82,16
1,75,80,188
1,72,94,0
1,68,74,8
1,65,90,24
1,68,78,164
1,75,88,8
1,72,86,0
1,72,100,128
1,57,90,0
1,74,102,0
1,77,43,40
1,58,60,32
1,72,74,24
1,72,66,84
1,74,96,8
1,77,96,24
1,72,68,316
1,70,76,120
1,79,106,40
1,62,84,0
1,63,62,204
1,70,80,128
1,75,78,148
1,79,102,116
1,63,64,20
1,77,80,36
1,62,82,4
1,70,88,64
1,74,90,192
1,62,72,4
1,77,84,16
1,60,82,156
1,75,72,4
1,79,100,172
1,82,86,140
1,91,102,48
1,87,72,176
1,60,84,156
1,82,80,0
1,79,70,116
1,82,78,160
1,53,72,12
1,80,82,16
1,87,80,172
1,84,96,8
1,80,47,0
1,87,86,192
1,84,98,4
1,84,86,172
1,57,88,0
1,89,98,20
1,86,61,180
1,58,56,0
1,84,47,0
1,84,84,60
1,89,92,4
1,86,94,172
1,58,58,172
1,84,68,16
1,82,68,128
1,62,45,4
1,87,86,20
1,91,94,4
1,63,78,192
1,82,74,112
1,87,72,124
1,91,70,92
1,63,68,0
1,89,100,44
1,62,78,8
1,86,92,12
1,82,78,168
1,86,86,8
1,89,82,112
1,62,84,0
1,87,78,12
1,60,54,4
1,79,104,4
1,53,88,1216
1,65,92,12
1,68,88,180
1,75,84,0
1,72,100,0
1,65,63,28
1,68,92,8
1,72,106,8
1,75,84,0
1,57,88,60
1,58,49,200
1,72,106,16
1,77,108,0
1,74,63,164
1,72,53,56
1,77,98,92
1,72,104,0
1,74,68,32
1,72,86,228
1,70,98,44
1,75,76,16
1,79,92,0
1,62,92,16
1,63,41,196
1,70,86,4
1,75,74,164
1,63,70,4
1,79,94,4
1,62,74,188
1,77,94,0
1,70,76,120
1,74,82,16
1,62,80,180
1,77,90,8
1,60,51,136
1,75,80,4
1,67,107,16
1,70,84,192
1,60,72,148
1,79,74,4
1,75,76,112
1,70,88,104
1,67,86,144
1,70,84,68
1,68,78,68
1,53,80,0
1,72,107,12
1,75,84,4
1,68,76,36
1,75,107,168
1,72,112,0
1,75,98,108
1,72,108,0
1,57,84,28
1,77,104,196
1,72,98,4
1,58,60,8
1,74,63,124
1,72,43,120
1,72,107,112
1,77,102,0
1,74,86,100
1,77,104,40
1,72,107,4
1,70,82,152
1,62,92,4
1,63,66,196
1,79,90,8
1,70,74,160
1,75,84,108
1,63,72,112
1,79,102,4
1,77,98,8
1,62,80,12
1,70,80,84
1,74,82,36
1,62,80,80
1,77,94,0
1,75,86,152
1,60,62,4
1,67,94,164
1,70,80,72
1,60,82,188
1,79,76,4
1,75,80,4
1,70,92,124
1,60,80,132
1,67,82,12
1,70,78,136
1,53,78,20
1,68,100,8
1,75,88,176
1,72,102,4
1,68,72,0
1,75,98,0
1,72,106,0
1,72,59,96
1,57,88,24
1,77,88,8
1,74,51,16
1,58,62,36
1,72,41,184
1,77,96,100
1,74,82,4
1,72,104,112
1,77,107,16
1,74,39,28
1,72,80,244
1,70,78,60
1,79,94,68
1,75,84,4
1,62,88,0
1,63,56,200
1,70,76,0
1,75,74,172
1,63,74,132
1,79,96,0
1,77,92,192
1,62,70,0
1,70,92,72
1,74,80,16
1,62,80,180
1,77,88,0
1,75,78,160
1,60,78,0
1,67,106,4
1,70,70,184
1,79,82,8
1,75,80,48
1,60,90,124
1,70,74,4
1,67,80,128
1,70,78,128
1,53,72,44
1,68,72,4
1,72,104,28
1,75,82,0
1,68,70,16
1,68,26,20
1,72,102,172
1,75,80,4
1,72,107,172
1,75,86,0
1,57,82,16
1,72,86,188
1,58,58,8
1,77,106,16
1,74,80,128
1,72,41,12
1,72,96,84
1,77,107,4
1,74,22,44
1,72,68,252
1,60,82,0
1,70,76,96
1,62,52,16
1,63,84,68
1,79,94,4
1,75,82,4
1,79,100,100
1,75,82,4
1,75,78,68
1,62,78,16
1,79,74,4
1,77,90,24
1,70,74,92
1,74,78,176
1,77,90,12
1,60,76,8
1,75,76,188
1,67,88,156
1,70,82,172
1,60,70,92
1,79,90,4
1,75,82,92
1,70,84,132
1,67,92,160
1,70,82,160
1,53,78,36
1,68,100,8
1,75,88,176
1,72,102,4
1,68,72,0
1,75,98,0
1,72,106,0
1,72,59,96
1,57,88,24
1,77,88,8
1,74,51,16
1,58,62,36
1,72,41,184
1,77,96,100
1,74,82,4
1,72,104,112
1,77,107,16
1,74,39,28
1,72,80,244
1,70,78,60
1,79,94,68
1,75,84,4
1,62,88,0
1,63,56,200
1,70,76,0
1,75,74,172
1,63,74,132
1,79,96,0
1,77,92,192
1,62,70,0
1,70,92,72
1,74,80,16
1,62,80,180
1,77,88,0
1,75,78,160
1,60,78,0
1,67,106,4
1,70,70,184
1,79,82,8
1,75,80,48
1,60,90,124
1,70,74,4
1,67,80,128
1,70,78,128
1,53,72,44
1,68,72,4
1,72,104,28
1,75,82,0
1,68,70,16
1,68,26,20
1,72,102,172
1,75,80,4
1,72,107,172
1,75,86,0
1,57,82,16
1,72,86,188
1,58,58,8
1,77,106,16
1,74,80,128
1,72,41,12
1,72,96,84
1,77,107,4
1,74,22,44
1,72,68,252
1,60,82,0
1,70,76,96
1,62,52,16
1,63,84,68
1,79,94,4
1,75,82,4
1,79,100,100
1,75,82,4
1,75,78,68
1,62,78,16
1,79,74,4
1,77,90,24
1,70,74,92
1,74,78,176
1,77,90,12
1,60,76,8
1,75,76,188
1,67,88,156
1,70,82,172
1,60,70,92
1,79,90,4
1,75,82,92
1,70,84,132
1,67,92,160
1,70,82,160
1,53,78,36
1,68,100,8
1,75,88,176
1,72,102,4
1,68,72,0
1,75,98,0
1,72,106,0
1,72,59,96
1,57,88,24
1,77,88,8
1,74,51,16
1,58,62,36
1,72,41,184
1,77,96,100
1,74,82,4
1,72,104,112
1,77,107,16
1,74,39,28
1,72,80,244
1,70,78,60
1,79,94,68
1,75,84,4
1,62,88,0
1,63,56,200
1,70,76,0
1,75,74,172
1,63,74,132
1,79,96,0
1,77,92,192
1,62,70,0
1,70,92,72
1,74,80,16
1,62,80,180
1,77,88,0
1,75,78,160
1,60,78,0
1,67,106,4
1,70,70,184
1,79,82,8
1,75,80,48
1,60,90,124
1,70,74,4
1,67,80,128
1,70,78,128
1,53,72,44
1,68,72,4
1,72,104,28
1,75,82,0
1,68,70,16
1,68,26,20
1,72,102,172
1,75,80,4
1,72,107,172
1,75,86,0
1,57,82,16
1,72,86,188
1,58,58,8
1,77,106,16
1,74,80,128
1,72,41,12
1,72,96,84
1,77,107,4
1,74,22,44
1,72,68,252
1,60,82,0
1,70,76,96
1,62,52,16
1,63,84,68
1,79,94,4
1,75,82,4
1,79,100,100
1,75,82,4
1,75,78,68
1,62,78,16
