track,note,velocity,time
2,53,110,0
2,60,110,2
2,65,110,2
2,68,110,2
2,72,110,2
2,60,110,2
2,65,110,2
2,68,110,2
2,72,110,2
2,53,110,2
2,60,110,2
2,65,110,2
2,68,110,2
2,72,110,2
2,60,110,2
2,65,110,2
2,68,110,2
2,72,110,2
2,48,110,2
2,55,110,2
2,60,110,2
2,63,110,2
2,67,110,2
2,55,110,2
2,60,110,2
2,63,110,2
2,67,110,2
2,48,110,2
2,55,110,2
2,60,110,2
2,63,110,2
2,67,110,2
2,55,110,2
2,60,110,2
2,63,110,2
2,67,110,2
2,53,110,2
2,60,110,2
2,65,110,2
2,68,110,2
2,72,110,2
2,60,110,2
2,65,110,2
2,68,110,2
2,72,110,2
2,53,110,2
2,60,110,2
2,65,110,2
2,68,110,2
2,72,110,2
2,60,110,2
2,65,110,2
2,68,110,2
2,72,110,2
2,48,110,2
2,55,110,2
2,60,110,2
2,63,110,2
2,67,110,2
2,55,110,2
2,60,110,2
2,63,110,2
2,67,110,2
2,48,110,2
2,55,110,2
2,60,110,2
2,63,110,2
2,67,110,2
2,55,110,2
2,60,110,2
2,63,110,2
2,67,110,2
2,53,110,2
2,60,110,2
2,65,110,2
2,68,110,2
2,72,110,2
2,60,110,2
2,65,110,2
2,68,110,2
2,72,110,2
2,53,110,2
2,60,110,2
2,65,110,2
2,68,110,2
2,72,110,2
2,60,110,2
2,65,110,2
2,68,110,2
2,72,110,2
2,48,110,2
2,55,110,2
2,60,110,2
2,63,110,2
2,67,110,2
2,55,110,2
2,60,110,2
2,63,110,2
2,67,110,2
2,48,110,2
2,55,110,2
2,60,110,2
2,63,110,2
2,67,110,2
2,55,110,2
2,60,110,2
2,63,110,2
2,67,110,2
2,53,110,2
2,60,110,2
2,65,110,2
2,68,110,2
2,72,110,2
2,60,110,2
2,65,110,2
2,68,110,2
2,72,110,2
2,53,110,2
2,60,110,2
2,65,110,2
2,68,110,2
2,72,110,2
2,60,110,2
2,65,110,2
2,68,110,2
2,72,110,2
2,48,110,2
2,55,110,2
2,60,110,2
2,63,110,2
2,67,110,2
2,55,110,2
2,60,110,2
2,63,110,2
2,67,110,2
2,48,110,2
2,55,110,2
2,60,110,2
2,63,110,2
2,67,110,2
2,55,110,2
2,60,110,2
2,63,110,2
2,67,110,2
2,53,110,2
2,60,110,2
2,65,110,2
2,68,110,2
2,72,110,2
2,60,110,2
2,65,110,2
2,68,110,2
2,72,110,2
2,53,110,2
2,60,110,2
2,65,110,2
2,68,110,2
2,72,110,2
2,60,110,2
2,65,110,2
2,68,110,2
2,72,110,2
2,48,110,2
2,55,110,2
2,60,110,2
2,63,110,2
2,67,110,2
2,55,110,2
2,60,110,2
2,63,110,2
2,67,110,2
2,48,110,2
2,55,110,2
2,60,110,2
2,63,110,2
2,67,110,2
2,55,110,2
2,60,110,2
2,63,110,2
2,67,110,2
2,53,110,2
2,60,110,2
2,65,110,2
2,68,110,2
2,72,110,2
2,60,110,2
2,65,110,2
2,68,110,2
2,72,110,2
2,53,110,2
2,60,110,2
2,65,110,2
2,68,110,2
2,72,110,2
2,60,110,2
2,65,110,2
2,68,110,2
2,72,110,2
2,48,110,2
2,55,110,2
2,60,110,2
2,63,110,2
2,67,110,2
2,55,110,2
2,60,110,2
2,63,110,2
2,67,110,2
2,48,110,2
2,55,110,2
2,60,110,2
2,63,110,2
2,67,110,2
2,55,110,2
2,60,110,2
2,63,110,2
2,67,110,2
2,53,110,2
2,60,110,2
2,65,110,2
2,68,110,2
2,72,110,2
2,60,110,2
2,65,110,2
2,68,110,2
2,72,110,2
2,53,110,2
2,60,110,2
2,65,110,2
2,68,110,2
2,72,110,2
2,60,110,2
2,65,110,2
2,68,110,2
2,72,110,2
2,48,110,2
2,55,110,2
2,60,110,2
2,63,110,2
2,67,110,2
2,55,110,2
2,60,110,2
2,63,110,2
2,67,110,2
2,48,110,2
2,55,110,2
2,60,110,2
2,63,110,2
2,67,110,2
2,55,110,2
2,60,110,2
2,63,110,2
2,67,110,2
2,53,110,2
2,60,110,2
2,65,110,2
2,68,110,2
2,72,110,2
2,60,110,2
2,65,110,2
2,68,110,2
2,72,110,2
2,53,110,2
2,60,110,2
2,65,110,2
2,68,110,2
2,72,110,2
2,60,110,2
2,65,110,2
2,68,110,2
2,72,110,2
2,48,110,2
2,55,110,2
2,60,110,2
2,63,110,2
2,67,110,2
2,55,110,2
2,60,110,2
2,63,110,2
2,67,110,2
2,48,110,2
2,55,110,2
2,60,110,2
2,63,110,2
2,67,110,2
2,55,110,2
2,60,110,2
2,63,110,2
2,67,110,2
2,53,110,2
2,60,110,2
2,65,110,2
2,68,110,2
2,72,110,2
2,60,110,2
2,65,110,2
2,68,110,2
2,72,110,2
2,53,110,2
2,60,110,2
2,65,110,2
2,68,110,2
2,72,110,2
2,60,110,2
2,65,110,2
2,68,110,2
2,72,110,2
2,48,110,2
2,55,110,2
2,60,110,2
2,63,110,2
2,67,110,2
2,55,110,2
2,60,110,2
2,63,110,2
2,67,110,2
2,48,110,2
2,55,110,2
2,60,110,2
2,63,110,2
2,67,110,2
2,55,110,2
2,60,110,2
2,63,110,2
2,67,110,2
2,53,110,2
2,60,110,2
2,65,110,2
2,68,110,2
2,72,110,2
2,60,110,2
2,65,110,2
2,68,110,2
2,72,110,2
2,53,110,2
2,60,110,2
2,65,110,2
2,68,110,2
2,72,110,2
2,60,110,2
2,65,110,2
2,68,110,2
2,72,110,2
2,48,110,2
2,55,110,2
2,60,110,2
2,63,110,2
2,67,110,2
2,55,110,2
2,60,110,2
2,63,110,2
2,67,110,2
2,48,110,2
2,55,110,2
2,60,110,2
2,63,110,2
2,67,110,2
2,55,110,2
2,60,110,2
2,63,110,2
2,67,110,2
2,53,110,2
2,60,110,2
2,65,110,2
2,68,110,2
2,72,110,2
2,60,110,2
2,65,110,2
2,68,110,2
2,72,110,2
2,53,110,2
2,60,110,2
2,65,110,2
2,68,110,2
2,72,110,2
2,60,110,2
2,65,110,2
2,68,110,2
2,72,110,2
2,48,110,2
2,55,110,2
2,60,110,2
2,63,110,2
2,67,110,2
2,55,110,2
2,60,110,2
2,63,110,2
2,67,110,2
2,48,110,2
2,55,110,2
2,60,110,2
2,63,110,2
2,67,110,2
2,55,110,2
2,60,110,2
2,63,110,2
2,67,110,2
2,53,110,2
2,60,110,2
2,65,110,2
2,68,110,2
2,72,110,2
2,60,110,2
2,65,110,2
2,68,110,2
2,72,110,2
2,53,110,2
2,60,110,2
2,65,110,2
2,68,110,2
2,72,110,2
2,60,110,2
2,65,110,2
2,68,110,2
2,72,110,2
2,48,110,2
2,55,110,2
2,60,110,2
2,63,110,2
2,67,110,2
2,55,110,2
2,60,110,2
2,63,110,2
2,67,110,2
2,48,110,2
2,55,110,2
2,60,110,2
2,63,110,2
2,67,110,2
2,55,110,2
2,60,110,2
2,63,110,2
2,67,110,2
2,53,110,2
2,60,110,2
2,65,110,2
2,68,110,2
2,72,110,2
2,60,110,2
2,65,110,2
2,68,110,2
2,72,110,2
2,53,110,2
2,60,110,2
2,65,110,2
2,68,110,2
2,72,110,2
2,60,110,2
2,65,110,2
2,68,110,2
2,72,110,2
2,48,110,2
2,55,110,2
2,60,110,2
2,63,110,2
2,67,110,2
2,55,110,2
2,60,110,2
2,63,110,2
2,67,110,2
2,48,110,2
2,55,110,2
2,60,110,2
2,63,110,2
2,67,110,2
2,55,110,2
2,60,110,2
2,63,110,2
2,67,110,2
2,53,110,2
2,60,110,2
2,65,110,2
2,68,110,2
2,72,110,2
2,60,110,2
2,65,110,2
2,68,110,2
2,72,110,2
2,53,110,2
2,60,110,2
2,65,110,2
2,68,110,2
2,72,110,2
2,60,110,2
2,65,110,2
2,68,110,2
2,72,110,2
2,48,110,2
2,55,110,2
2,60,110,2
2,63,110,2
2,67,110,2
2,55,110,2
2,60,110,2
2,63,110,2
2,67,110,2
2,48,110,2
2,55,110,2
2,60,110,2
2,63,110,2
2,67,110,2
2,55,110,2
2,60,110,2
2,63,110,2
2,67,110,2
2,53,110,2
2,60,110,2
2,65,110,2
2,68,110,2
2,72,110,2
2,60,110,2
2,65,110,2
2,68,110,2
2,72,110,2
2,53,110,2
2,60,110,2
2,65,110,2
2,68,110,2
2,72,110,2
2,60,110,2
2,65,110,2
2,68,110,2
2,72,110,2
2,48,110,2
2,55,110,2
2,60,110,2
2,63,110,2
2,67,110,2
2,55,110,2
2,60,110,2
2,63,110,2
2,67,110,2
2,48,110,2
2,55,110,2
2,60,110,2
2,63,110,2
2,67,110,2
2,55,110,2
2,60,110,2
2,63,110,2
2,67,110,2
2,53,110,2
2,60,110,2
2,65,110,2
2,68,110,2
2,72,110,2
2,60,110,2
2,65,110,2
2,68,110,2
2,72,110,2
2,53,110,2
2,60,110,2
2,65,110,2
2,68,110,2
2,72,110,2
2,60,110,2
2,65,110,2
2,68,110,2
2,72,110,2
2,48,110,2
2,55,110,2
2,60,110,2
2,63,110,2
2,67,110,2
2,55,110,2
2,60,110,2
2,63,110,2
2,67,110,2
2,48,110,2
2,55,110,2
2,60,110,2
2,63,110,2
2,67,110,2
2,55,110,2
2,60,110,2
2,63,110,2
2,67,110,2
2,53,110,2
2,60,110,2
2,65,110,2
2,68,110,2
2,72,110,2
2,60,110,2
2,65,110,2
2,68,110,2
2,72,110,2
2,53,110,2
2,60,110,2
2,65,110,2
2,68,110,2
2,72,110,2
2,60,110,2
2,65,110,2
2,68,110,2
2,72,110,2
2,48,110,2
2,55,110,2
2,60,110,2
2,63,110,2
2,67,110,2
2,55,110,2
2,60,110,2
2,63,110,2
2,67,110,2
2,48,110,2
2,55,110,2
2,60,110,2
2,63,110,2
2,67,110,2
2,55,110,2
2,60,110,2
2,63,110,2
2,67,110,2
2,53,110,6146
2,60,110,2
2,65,110,2
2,68,110,2
2,72,110,2
2,60,110,2
2,65,110,2
2,68,110,2
2,72,110,2
2,53,110,2
2,60,110,2
2,65,110,2
2,68,110,2
2,72,110,2
2,60,110,2
2,65,110,2
2,68,110,2
2,72,110,2
2,48,110,2
2,55,110,2
2,60,110,2
2,63,110,2
2,67,110,2
2,55,110,2
2,60,110,2
2,63,110,2
2,67,110,2
2,48,110,2
2,55,110,2
2,60,110,2
2,63,110,2
2,67,110,2
2,55,110,2
2,60,110,2
2,63,110,2
2,67,110,2
2,53,110,2
2,60,110,2
2,65,110,2
2,68,110,2
2,72,110,2
2,60,110,2
2,65,110,2
2,68,110,2
2,72,110,2
2,53,110,2
2,60,110,2
2,65,110,2
2,68,110,2
2,72,110,2
2,60,110,2
2,65,110,2
2,68,110,2
2,72,110,2
2,48,110,2
2,55,110,2
2,60,110,2
2,63,110,2
2,67,110,2
2,55,110,2
2,60,110,2
2,63,110,2
2,67,110,2
2,48,110,2
2,55,110,2
2,60,110,2
2,63,110,2
2,67,110,2
2,55,110,2
2,60,110,2
2,63,110,2
2,67,110,2
2,53,110,2
2,60,110,2
2,65,110,2
2,68,110,2
2,72,110,2
2,60,110,2
2,65,110,2
2,68,110,2
2,72,110,2
2,53,110,2
2,60,110,2
2,65,110,2
2,68,110,2
2,72,110,2
2,60,110,2
2,65,110,2
2,68,110,2
2,72,110,2
2,48,110,2
2,55,110,2
2,60,110,2
2,63,110,2
2,67,110,2
2,55,110,2
2,60,110,2
2,63,110,2
2,67,110,2
2,48,110,2
2,55,110,2
2,60,110,2
2,63,110,2
2,67,110,2
2,55,110,2
2,60,110,2
2,63,110,2
2,67,110,2
2,53,110,2
2,60,110,2
2,65,110,2
2,68,110,2
2,72,110,2
2,60,110,2
2,65,110,2
2,68,110,2
2,72,110,2
2,53,110,2
2,60,110,2
2,65,110,2
2,68,110,2
2,72,110,2
2,60,110,2
2,65,110,2
2,68,110,2
2,72,110,2
2,48,110,2
2,55,110,2
2,60,110,2
2,63,110,2
2,67,110,2
2,55,110,2
2,60,110,2
2,63,110,2
2,67,110,2
2,48,110,2
2,55,110,2
2,60,110,2
2,63,110,2
2,67,110,2
2,55,110,2
2,60,110,2
2,63,110,2
2,67,110,2
2,60,110,434
2,65,110,2
2,67,110,2
2,72,110,2
2,53,110,2
2,60,110,2
2,65,110,2
2,68,110,2
2,72,110,2
2,60,110,2
2,65,110,2
2,68,110,2
2,72,110,2
2,48,110,2
2,55,110,2
2,60,110,2
2,63,110,2
2,67,110,2
2,55,110,2
2,60,110,2
2,63,110,2
2,67,110,2
2,48,110,2
2,55,110,2
2,60,110,2
2,63,110,2
2,67,110,2
2,55,110,2
2,60,110,2
2,63,110,2
2,67,110,2
2,53,110,2
2,60,110,2
2,65,110,2
2,68,110,2
2,72,110,2
2,60,110,2
2,65,110,2
2,68,110,2
2,72,110,2
2,53,110,2
2,60,110,2
2,65,110,2
2,68,110,2
2,72,110,2
2,60,110,2
2,65,110,2
2,68,110,2
2,72,110,2
2,48,110,2
2,55,110,2
2,60,110,2
2,63,110,2
2,67,110,2
2,55,110,2
2,60,110,2
2,63,110,2
2,67,110,2
2,48,110,2
2,55,110,2
2,60,110,2
2,63,110,2
2,67,110,2
2,55,110,2
2,60,110,2
2,63,110,2
2,67,110,2
2,53,110,2
2,60,110,2
2,65,110,2
2,68,110,2
2,72,110,2
2,60,110,2
2,65,110,2
2,68,110,2
2,72,110,2
2,53,110,2
2,60,110,2
2,65,110,2
2,68,110,2
2,72,110,2
2,60,110,2
2,65,110,2
2,68,110,2
2,72,110,2
2,48,110,2
2,55,110,2
2,60,110,2
2,63,110,2
2,67,110,2
2,55,110,2
2,60,110,2
2,63,110,2
2,67,110,2
2,48,110,2
2,55,110,2
2,60,110,2
2,63,110,2
2,67,110,2
2,55,110,2
2,60,110,2
2,63,110,2
2,67,110,2
2,53,110,2
2,60,110,2
2,65,110,2
2,68,110,2
2,72,110,2
2,60,110,2
2,65,110,2
2,68,110,2
2,72,110,2
2,53,110,2
2,60,110,2
2,65,110,2
2,68,110,2
2,72,110,2
2,60,110,2
2,65,110,2
2,68,110,2
2,72,110,2
2,48,110,2
2,55,110,2
2,60,110,2
2,63,110,2
2,67,110,2
2,55,110,2
2,60,110,2
2,63,110,2
2,67,110,2
2,48,110,2
2,55,110,2
2,60,110,2
2,63,110,2
2,67,110,2
2,55,110,2
2,60,110,2
2,63,110,2
2,67,110,2
2,53,110,2
2,60,110,2
2,65,110,2
2,68,110,2
2,72,110,2
2,60,110,2
2,65,110,2
2,68,110,2
2,72,110,2
2,53,110,2
2,60,110,2
2,65,110,2
2,68,110,2
2,72,110,2
2,60,110,2
2,65,110,2
2,68,110,2
2,72,110,2
2,48,110,2
2,55,110,2
2,60,110,2
2,63,110,2
2,67,110,2
2,55,110,2
2,60,110,2
2,63,110,2
2,67,110,2
2,48,110,2
2,55,110,2
2,60,110,2
2,63,110,2
2,67,110,2
2,55,110,2
2,60,110,2
2,63,110,2
2,67,110,2
2,53,110,2
2,60,110,2
2,65,110,2
2,68,110,2
2,72,110,2
2,60,110,2
2,65,110,2
2,68,110,2
2,72,110,2
2,53,110,2
2,60,110,2
2,65,110,2
2,68,110,2
2,72,110,2
2,60,110,2
2,65,110,2
2,68,110,2
2,72,110,2
2,48,110,2
2,55,110,2
2,60,110,2
2,63,110,2
2,67,110,2
2,55,110,2
2,60,110,2
2,63,110,2
2,67,110,2
2,48,110,2
2,55,110,2
2,60,110,2
2,63,110,2
2,67,110,2
2,55,110,2
2,60,110,2
2,63,110,2
2,67,110,2
3,75,110,15072
3,75,110,2
3,75,110,32
3,77,110,48
3,75,110,2
3,75,110,2
3,75,110,32
3,79,110,48
3,79,110,32
3,79,110,2
3,77,110,2
3,75,110,32
3,75,110,32
3,75,110,32
3,75,110,32
3,77,110,48
3,75,110,32
3,75,110,32
3,77,110,48
3,75,110,32
3,75,110,32
3,79,110,48
3,79,110,2
3,79,110,2
3,79,110,2
3,77,110,2
3,75,110,32
3,75,110,32
3,75,110,32
3,75,110,32
3,75,110,144
3,75,110,2
3,75,110,32
