track,note,velocity,time
0,72,88,243
0,79,57,46
0,84,70,48
0,91,78,48
0,84,0,36
0,87,70,9
0,79,0,42
0,84,70,6
0,87,0,18
0,69,12,30
0,79,55,2
0,69,0,3
0,84,0,12
0,82,78,33
0,69,28,44
0,91,0,2
0,72,0,0
0,53,82,0
0,79,0,1
0,82,0,1
0,77,94,0
0,69,0,2
0,84,94,44
0,87,80,0
0,77,0,9
0,69,36,38
0,69,0,6
0,53,0,2
0,84,0,41
0,87,0,0
0,53,78,0
0,77,66,0
0,69,30,46
0,84,82,1
0,87,74,0
0,69,0,5
0,77,0,5
0,84,0,47
0,87,0,4
0,69,41,34
0,84,82,2
0,87,76,1
0,69,0,3
0,53,0,8
0,57,80,33
0,84,0,7
0,87,0,3
0,69,43,39
0,58,62,1
0,89,90,3
0,84,90,0
0,69,0,2
0,57,0,2
0,86,61,42
0,84,0,9
0,86,0,34
0,84,65,2
0,69,39,1
0,89,0,4
0,69,0,2
0,84,0,9
0,84,80,34
0,89,86,0
0,69,44,48
0,86,72,3
0,69,0,3
0,84,0,6
0,89,0,21
0,86,0,3
0,89,98,14
0,84,98,0
0,69,48,44
0,58,0,3
0,82,76,0
0,89,0,3
0,69,0,0
0,84,0,9
0,82,0,28
0,87,96,7
0,91,102,0
0,69,44,45
0,63,84,1
0,69,0,5
0,69,31,44
0,91,0,3
0,82,82,1
0,69,0,2
0,87,0,1
0,69,27,42
0,87,90,1
0,69,0,5
0,82,0,8
0,63,0,11
0,91,68,22
0,69,29,0
0,63,86,1
0,69,0,5
0,69,39,41
0,89,92,1
0,62,76,2
0,63,0,2
0,69,0,1
0,87,0,0
0,91,0,6
0,69,33,36
0,82,72,2
0,69,0,4
0,89,0,3
0,69,27,39
0,86,88,2
0,69,0,4
0,62,0,4
0,82,0,3
0,69,25,36
0,62,92,1
0,89,84,1
0,69,0,4
0,86,0,3
0,69,33,39
0,60,85,1
0,62,0,3
0,89,0,1
0,87,78,0
0,69,0,1
0,87,0,32
0,69,33,9
0,79,69,5
0,69,0,1
0,69,27,42
0,82,76,3
0,69,0,3
0,79,0,12
0,69,23,30
0,91,79,5
0,69,0,1
0,82,0,0
0,69,33,42
0,87,79,4
0,69,0,2
0,91,0,5
0,69,21,38
0,82,79,3
0,69,0,3
0,87,0,4
0,48,112,39
0,69,33,0
0,79,61,1
0,72,95,0
0,60,0,3
0,69,0,2
0,82,0,1
0,69,33,40
0,82,78,3
0,69,0,1
0,79,0,1
0,82,0,4
0,48,0,6
0,69,41,1
0,41,106,0
0,72,0,1
0,65,70,0
0,77,96,1
0,69,0,2
0,69,37,43
0,84,96,3
0,87,80,0
0,69,0,3
0,77,0,5
0,69,29,38
0,69,0,6
0,65,0,19
0,87,0,8
0,84,0,7
0,65,90,7
0,69,33,0
0,77,51,2
0,69,0,4
0,69,39,42
0,84,80,1
0,87,76,0
0,77,0,3
0,69,0,2
0,69,31,41
0,69,0,6
0,87,0,0
0,84,0,3
0,69,37,39
0,84,90,1
0,87,78,0
0,69,0,5
0,65,0,0
0,84,0,28
0,87,0,5
0,69,37,9
0,69,92,1
0,69,0,5
0,69,41,41
0,69,0,2
0,41,0,0
0,84,70,0
0,89,72,0
0,70,72,1
0,34,106,0
0,69,0,3
0,69,35,43
0,86,80,3
0,69,0,3
0,84,0,9
0,89,0,27
0,69,35,5
0,84,49,4
0,86,0,1
0,69,0,1
0,84,0,17
0,69,29,25
0,84,84,4
0,89,88,0
0,69,0,2
0,69,33,42
0,86,72,5
0,69,0,1
0,84,0,6
0,86,0,25
0,89,0,4
0,69,33,7
0,84,74,4
0,89,74,0
0,69,0,2
0,89,0,42
0,69,33,1
0,70,0,1
0,82,59,2
0,69,0,3
0,84,0,11
0,82,0,21
0,34,0,3
0,69,35,6
0,62,84,3
0,38,109,2
0,69,0,1
0,86,76,0
0,91,92,0
0,38,0,43
0,69,35,0
0,47,39,2
0,45,45,0
0,69,0,3
0,47,0,2
0,45,0,0
0,86,0,6
0,62,0,3
0,91,0,1
0,69,37,30
0,45,33,1
0,47,27,0
0,62,78,1
0,86,74,1
0,38,109,0
0,91,84,1
0,69,0,2
0,45,0,1
0,47,0,0
0,69,33,40
0,45,29,2
0,47,27,0
0,69,0,4
0,45,0,2
0,47,0,0
0,69,33,40
0,45,35,2
0,47,31,0
0,69,0,4
0,86,0,1
0,45,0,1
0,47,0,0
0,91,0,3
0,62,0,32
0,69,37,5
0,86,76,1
0,67,93,0
0,91,82,1
0,43,107,0
0,47,54,1
0,45,60,0
0,69,0,3
0,38,0,2
0,45,0,1
0,47,0,0
0,69,27,39
0,86,0,2
0,47,62,0
0,45,70,0
0,91,0,3
0,69,0,1
0,47,0,2
0,45,0,0
0,67,0,16
0,69,39,24
0,86,88,1
0,91,100,0
0,67,90,1
0,37,110,0
0,47,80,0
0,45,84,0
0,69,0,4
0,45,0,2
0,47,0,0
0,43,0,5
0,86,0,29
0,69,25,6
0,47,80,1
0,45,82,0
0,69,0,5
0,47,0,1
0,45,0,0
0,91,0,15
0,67,0,24
0,79,78,3
0,87,74,0
0,47,95,0
0,45,95,0
0,36,108,1
0,69,54,0
0,37,0,1
0,35,105,0
0,60,80,1
0,45,0,3
0,47,0,0
0,69,0,1
0,35,0,1
0,67,105,41
0,87,0,7
0,79,0,3
0,60,0,6
0,36,0,6
0,72,109,0
0,67,0,8
0,72,0,2
0,72,106,0
0,72,0,1
0,75,100,1
0,75,0,4
0,65,108,1
0,65,0,13
0,67,80,0
0,29,108,4
0,35,97,0
0,53,92,1
0,44,86,0
0,65,84,2
0,35,0,3
0,44,0,1
0,67,0,16
0,65,93,1
0,65,0,3
0,68,82,16
0,72,82,2
0,75,59,2
0,44,70,1
0,37,94,0
0,65,0,3
0,37,0,3
0,44,0,0
0,65,107,1
0,35,91,0
0,29,0,1
0,31,107,0
0,35,0,3
0,65,0,1
0,63,96,8
0,35,91,2
0,44,70,1
0,35,0,5
0,44,0,1
0,31,0,19
0,63,0,15
0,72,0,7
0,75,0,0
0,32,109,1
0,67,100,0
0,65,86,2
0,68,0,3
0,67,0,3
0,44,78,5
0,37,114,1
0,68,86,2
0,72,98,1
0,44,0,2
0,37,0,1
0,75,68,0
0,32,0,2
0,65,0,4
0,53,0,13
0,68,0,2
0,72,0,2
0,75,0,7
0,57,84,10
0,33,109,0
0,33,0,49
0,77,94,0
0,58,60,0
0,34,106,0
0,44,78,0
0,35,91,0
0,72,88,1
0,72,0,1
0,77,0,0
0,77,96,1
0,57,0,1
0,44,0,2
0,35,0,0
0,72,96,1
0,77,0,42
0,74,74,2
0,72,0,35
0,37,108,9
0,44,76,1
0,70,47,3
0,37,0,2
0,44,0,1
0,74,0,19
0,70,0,13
0,34,0,1
0,63,112,0
0,35,99,3
0,77,102,1
0,72,86,1
0,34,106,3
0,35,0,1
0,63,0,3
0,65,109,1
0,77,0,1
0,44,88,1
0,35,95,1
0,74,66,1
0,44,0,4
0,35,0,1
0,72,0,4
0,34,0,2
0,65,0,6
0,77,96,1
0,65,107,0
0,72,66,1
0,36,106,0
0,74,0,1
0,65,0,3
0,63,87,1
0,44,82,1
0,37,108,0
0,44,0,4
0,36,0,0
0,37,0,2
0,70,59,2
0,72,0,5
0,63,0,1
0,58,0,3
0,77,0,11
0,65,110,2
0,79,104,1
0,38,109,1
0,70,0,2
0,65,0,3
0,67,78,0
0,39,104,2
0,44,76,0
0,35,93,0
0,38,0,1
0,63,93,0
0,44,0,1
0,35,0,0
0,67,0,25
0,70,111,1
0,70,74,1
0,79,0,9
0,70,0,1
0,44,80,2
0,37,106,1
0,67,50,1
0,75,78,1
0,44,0,1
0,37,0,1
0,67,0,1
0,63,0,3
0,39,0,1
0,70,107,1
0,35,94,0
0,63,60,1
0,39,103,0
0,79,86,1
0,35,0,4
0,70,0,0
0,35,93,4
0,44,78,1
0,38,106,1
0,39,0,2
0,77,92,0
0,62,76,0
0,75,0,1
0,35,0,1
0,44,0,1
0,63,0,10
0,79,0,1
0,70,78,31
0,77,0,2
0,70,0,3
0,71,106,2
0,44,80,0
0,37,102,1
0,44,0,3
0,74,74,0
0,37,0,1
0,62,0,3
0,38,0,3
0,62,74,1
0,35,95,2
0,71,0,1
0,38,106,0
0,72,107,0
0,77,84,1
0,70,0,1
0,35,0,2
0,74,0,4
0,44,76,0
0,38,0,2
0,60,86,0
0,35,95,0
0,36,111,1
0,75,82,1
0,44,0,2
0,35,0,2
0,77,0,2
0,62,0,1
0,72,0,3
0,75,0,0
0,67,88,5
0,72,100,1
0,72,0,3
0,44,74,2
0,37,108,0
0,36,0,2
0,70,80,2
0,70,91,0
0,44,0,2
0,37,0,0
0,67,0,2
0,70,0,4
0,79,59,2
0,70,0,1
0,51,110,0
0,35,93,0
0,72,98,1
0,35,0,1
0,72,0,2
0,44,74,2
0,35,94,2
0,75,78,1
0,44,0,3
0,35,0,2
0,51,0,15
0,79,0,1
0,75,101,1
0,48,110,1
0,70,82,7
0,75,0,16
0,75,0,1
0,37,110,1
0,44,78,0
0,67,66,2
0,44,0,1
0,37,0,0
0,70,0,3
0,48,0,1
0,60,0,1
0,43,109,3
0,67,101,1
0,35,86,0
0,70,88,1
0,35,0,2
0,67,0,8
0,44,74,13
0,53,90,1
0,43,0,1
0,29,108,0
0,35,90,0
0,44,0,4
0,68,88,0
0,35,0,2
0,70,0,2
0,67,0,2
0,65,101,1
0,75,78,1
0,72,96,0
0,68,0,4
0,65,0,1
0,44,68,1
0,37,108,0
0,37,0,6
0,44,0,0
0,75,0,20
0,29,0,3
0,72,0,2
0,31,109,1
0,35,93,0
0,68,63,1
0,65,104,0
0,35,0,1
0,44,72,5
0,75,78,1
0,72,98,0
0,35,92,2
0,44,0,3
0,35,0,1
0,68,0,1
0,31,0,6
0,65,0,1
0,63,109,2
0,32,108,1
0,72,0,2
0,75,0,1
0,37,104,18
0,63,0,1
0,75,78,0
0,44,70,0
0,72,98,1
0,67,77,1
0,37,0,1
0,44,0,1
0,53,0,2
0,32,0,2
0,75,0,2
0,57,72,1
0,35,91,0
0,72,0,1
0,33,111,0
0,67,0,2
0,35,0,3
0,44,72,41
0,34,106,1
0,33,0,1
0,35,90,0
0,58,62,1
0,77,100,0
0,44,0,3
0,72,102,0
0,35,0,2
0,57,0,2
0,65,109,0
0,74,86,1
0,77,0,1
0,72,0,1
0,65,0,2
0,37,102,0
0,44,72,1
0,63,101,1
0,37,0,4
0,44,0,1
0,70,65,1
0,34,0,9
0,74,0,2
0,70,0,6
0,63,0,4
0,34,108,5
0,35,93,0
0,77,104,1
0,64,110,0
0,72,80,1
0,35,0,1
0,44,74,13
0,35,94,1
0,77,0,1
0,74,88,0
0,44,0,2
0,35,0,1
0,34,0,4
0,72,0,3
0,64,0,3
0,65,97,1
0,72,92,1
0,36,108,1
0,74,0,1
0,77,96,1
0,65,0,7
0,63,96,1
0,37,110,1
0,44,76,0
0,70,70,2
0,44,0,4
0,37,0,0
0,72,0,1
0,77,0,2
0,36,0,0
0,58,0,7
0,70,0,2
0,63,0,1
0,75,76,6
0,38,109,1
0,65,106,0
0,79,92,1
0,35,93,0
0,35,0,5
0,63,84,3
0,65,0,2
0,38,0,0
0,39,106,0
0,44,72,0
0,35,95,0
0,67,91,0
0,35,0,2
0,44,0,0
0,67,0,5
0,70,98,1
0,70,80,1
0,75,0,1
0,79,0,7
0,67,88,0
0,70,0,2
0,44,72,2
0,75,96,1
0,37,104,0
0,44,0,5
0,37,0,1
0,39,0,11
0,70,0,1
0,63,0,5
0,67,0,3
0,70,109,0
0,79,86,3
0,39,103,0
0,35,95,1
0,63,62,2
0,35,0,4
0,38,106,19
0,44,66,0
0,35,93,1
0,75,0,1
0,77,90,0
0,39,0,1
0,62,78,2
0,44,0,1
0,35,0,1
0,63,0,9
0,79,0,3
0,70,0,2
0,72,104,0
0,70,74,2
0,77,0,9
0,44,64,2
0,72,0,1
0,74,86,0
0,69,91,0
0,37,104,0
0,44,0,1
0,37,0,1
0,62,0,3
0,38,0,0
0,70,0,6
0,69,0,8
0,77,78,7
0,72,105,1
0,62,72,1
0,38,109,0
0,35,90,0
0,35,0,6
0,74,0,4
0,77,0,9
0,38,0,8
0,36,106,0
0,44,72,0
0,35,93,0
0,60,74,1
0,75,80,2
0,70,107,2
0,35,0,1
0,44,0,0
0,62,0,2
0,75,97,0
0,70,0,10
0,72,73,1
0,79,82,1
0,72,0,1
0,75,0,10
0,65,93,32
0,37,104,1
0,44,72,1
0,82,76,3
0,37,0,1
0,44,0,1
0,36,0,3
0,82,0,1
0,36,109,0
0,35,89,0
0,91,66,1
0,35,0,1
0,79,0,2
0,35,91,32
0,44,74,0
0,87,80,1
0,35,0,4
0,44,0,1
0,36,0,2
0,65,0,6
0,62,53,0
0,91,0,1
0,62,0,1
0,36,108,28
0,82,88,2
0,87,0,9
0,72,0,28
0,75,0,2
0,44,74,7
0,37,100,0
0,35,95,0
0,75,107,1
0,79,98,1
0,35,0,2
0,44,0,0
0,37,0,0
0,36,0,7
0,82,0,5
0,60,0,4
0,75,0,4
0,31,106,11
0,82,82,1
0,79,0,8
0,82,0,35
0,31,0,1
0,53,82,0
0,44,72,0
0,29,103,1
0,35,94,0
0,66,108,1
0,80,80,1
0,44,0,1
0,35,0,1
0,87,86,3
0,84,102,0
0,80,0,3
0,37,94,0
0,44,64,0
0,44,0,3
0,37,0,0
0,29,0,1
0,66,0,6
0,84,0,5
0,87,0,4
0,65,97,2
0,31,108,1
0,35,88,0
0,80,68,5
0,35,0,1
0,44,70,15
0,35,91,0
0,87,84,1
0,84,88,1
0,35,0,4
0,44,0,0
0,31,0,5
0,65,0,1
0,80,0,14
0,32,106,2
0,63,80,5
0,84,0,3
0,87,0,7
0,63,0,2
0,53,0,5
0,84,98,1
0,44,70,1
0,87,82,1
0,37,106,0
0,44,0,5
0,37,0,1
0,65,105,0
0,32,0,1
0,84,0,14
0,87,0,1
0,33,104,2
0,57,76,1
0,35,90,1
0,35,0,4
0,84,82,6
0,34,101,0
0,44,70,0
0,89,88,1
0,33,0,1
0,35,94,0
0,58,60,1
0,69,56,0
0,44,0,2
0,35,0,2
0,69,0,1
0,57,0,3
0,69,35,0
0,86,66,2
0,69,0,3
0,84,0,1
0,89,0,2
0,44,70,1
0,37,102,0
0,69,58,0
0,84,82,4
0,69,0,2
0,37,0,0
0,44,0,0
0,34,0,2
0,86,0,2
0,84,0,2
0,34,107,13
0,89,100,1
0,84,96,2
0,35,88,0
0,65,0,1
0,65,89,0
0,35,0,1
0,65,0,1
0,86,55,21
0,44,66,2
0,35,93,0
0,65,111,2
0,35,0,1
0,44,0,0
0,34,0,1
0,84,0,4
0,89,0,2
0,86,0,1
0,84,88,8
0,89,96,0
0,36,106,1
0,37,98,1
0,44,74,2
0,82,74,2
0,37,0,1
0,44,0,2
0,36,0,0
0,84,0,2
0,89,0,2
0,82,0,9
0,65,0,2
0,58,0,0
0,62,70,0
0,62,0,1
0,38,108,6
0,69,35,0
0,35,92,1
0,91,90,1
0,87,88,1
0,69,0,3
0,35,0,1
0,69,37,41
0,63,78,1
0,39,107,0
0,44,70,0
0,38,0,1
0,35,98,0
0,69,0,4
0,44,0,1
0,35,0,1
0,65,106,0
0,87,0,3
0,82,72,0
0,91,0,4
0,44,70,14
0,87,72,1
0,37,102,0
0,44,0,5
0,37,0,1
0,39,0,1
0,63,0,2
0,82,0,18
0,91,70,10
0,63,60,0
0,39,104,1
0,35,91,2
0,65,0,3
0,35,0,1
0,70,105,2
0,38,104,3
0,89,88,1
0,62,66,0
0,44,72,0
0,35,95,0
0,39,0,1
0,35,0,3
0,44,0,0
0,87,0,1
0,63,0,1
0,91,0,6
0,82,80,18
0,38,97,1
0,70,0,1
0,89,0,5
0,38,0,0
0,67,73,0
0,44,70,1
0,67,0,1
0,86,94,1
0,44,0,4
0,62,0,2
0,70,104,2
0,38,0,2
0,82,0,12
