track,note,velocity,time
0,57,60,240
0,62,62,0
0,50,80,0
0,31,48,0
0,57,72,0
0,43,70,0
0,59,84,0
0,50,70,0
0,55,64,73
0,55,82,0
0,45,72,0
0,54,76,0
0,60,76,0
0,54,66,0
0,33,46,0
0,54,72,0
0,57,66,8
0,57,78,0
0,55,68,7
0,35,46,0
0,55,88,0
0,55,80,0
0,62,94,0
0,47,70,0
0,67,95,454
0,48,76,0
0,62,63,0
0,36,50,0
0,48,71,0
0,66,96,0
0,64,99,472
0,60,100,207
0,60,63,0
0,50,68,0
0,59,86,0
0,59,60,0
0,50,71,0
0,38,36,0
0,62,76,0
0,60,50,8
0,41,65,0
0,38,76,0
0,57,76,0
0,54,70,0
0,71,105,0
0,43,70,0
0,62,77,0
0,57,81,0
0,59,67,0
0,69,105,140
0,71,105,9
0,69,105,0
0,71,105,60
0,55,85,9
0,69,105,230
0,71,105,92
0,74,105,5
0,72,105,28
0,52,75,0
0,60,77,0
0,71,105,44
0,69,105,26
0,71,105,34
0,72,105,45
0,55,81,0
0,36,51,80
0,54,63,45
0,43,58,0
0,57,65,130
0,69,105,30
0,67,105,18
0,69,105,18
0,67,105,5
0,69,105,31
0,67,105,336
0,69,105,2
0,50,81,17
0,72,105,22
0,71,105,8
0,62,44,27
0,59,77,0
0,69,105,3
0,67,105,5
0,71,105,198
0,55,83,0
0,71,105,13
0,59,38,0
0,42,57,0
0,42,86,0
0,50,86,0
0,57,86,0
0,59,86,0
0,64,105,249
0,66,105,116
0,40,57,0
0,62,98,0
0,67,90,0
0,40,88,0
0,52,78,0
0,67,105,17
0,66,105,5
0,67,105,11
0,66,105,281
0,67,105,3
0,60,50,0
0,60,84,0
0,66,105,9
0,67,105,15
0,59,56,0
0,59,88,0
0,71,105,26
0,69,105,6
0,52,56,0
0,36,60,0
0,64,88,0
0,48,78,0
0,36,90,0
0,71,105,1
0,69,105,125
0,64,105,1
0,69,105,261
0,57,50,0
0,57,78,0
0,69,105,233
0,71,105,12
0,54,47,0
0,50,47,0
0,42,66,0
0,62,85,0
0,50,80,0
0,72,105,17
0,71,105,7
0,72,105,23
0,71,105,19
0,72,105,61
0,51,58,0
0,39,100,0
0,66,70,0
0,60,85,0
0,71,105,0
0,72,105,34
0,74,105,49
0,71,105,28
0,55,98,10
0,59,98,0
0,64,100,0
0,40,98,0
0,59,47,0
0,69,105,6
0,67,105,19
0,51,108,8
0,57,94,0
0,59,106,0
0,66,100,0
0,63,98,0
0,57,57,0
0,69,105,3
0,71,105,20
0,59,54,20
0,62,103,0
0,66,105,0
0,67,105,0
0,59,103,0
0,50,111,0
0,71,105,21
0,62,54,2
0,48,125,0
0,69,107,0
0,66,105,0
0,62,107,0
0,74,105,23
0,74,105,31
0,57,65,219
0,69,50,0
0,69,95,0
0,55,110,0
0,62,110,0
0,47,94,0
0,74,105,0
0,36,69,327
0,43,76,45
0,74,105,1
0,55,56,2
0,72,105,30
0,71,105,40
0,69,105,27
0,60,53,0
0,57,95,0
0,72,85,0
0,52,98,0
0,60,110,0
0,67,100,0
0,41,65,224
0,68,53,0
0,57,53,0
0,41,69,0
0,57,100,0
0,66,100,0
0,69,105,170
0,66,59,5
0,55,53,0
0,55,99,0
0,64,105,0
0,71,105,1
0,72,105,7
0,69,94,0
0,54,70,0
0,57,70,0
0,42,70,0
0,71,105,214
0,64,64,0
0,62,84,0
0,72,105,23
0,69,105,140
0,71,105,73
0,68,52,0
0,59,80,0
0,66,94,0
0,51,94,0
0,71,90,0
0,71,105,6
0,75,105,229
0,78,105,249
0,79,105,18
0,66,32,0
0,67,104,0
0,59,75,0
0,52,76,0
0,64,36,0
0,67,100,19
0,50,102,0
0,67,48,0
0,66,48,0
0,66,108,0
0,76,105,178
0,78,105,21
0,55,102,0
0,48,106,0
0,62,102,0
0,67,100,0
0,79,105,42
0,78,105,10
0,79,105,36
0,78,105,36
0,79,105,40
0,78,105,16
0,79,105,27
0,64,80,33
0,81,105,50
0,47,94,289
0,57,98,0
0,79,105,29
0,74,105,17
0,74,105,44
0,66,93,549
0,41,65,58
0,41,84,45
0,64,91,0
0,69,105,152
0,62,87,0
0,71,105,101
0,55,102,0
0,45,94,0
0,60,111,0
0,72,105,1
0,71,105,106
0,72,105,101
0,71,105,6
0,72,105,22
0,57,100,0
0,66,95,0
0,74,105,7
0,69,105,126
0,55,88,0
0,64,95,0
0,67,105,0
0,69,105,41
0,50,85,0
0,57,72,0
0,62,84,0
0,74,108,0
0,71,105,0
0,60,58,2
0,67,105,1
0,69,105,7
0,59,78,0
0,43,101,0
0,55,65,0
0,35,105,0
0,49,33,0
0,57,65,0
0,59,65,0
0,62,65,0
0,62,45,0
0,59,45,0
0,55,45,0
0,43,45,0
0,71,105,5
0,69,105,173
0,59,68,0
0,67,105,1
0,76,105,0
0,54,72,0
0,64,88,0
0,42,97,0
0,59,62,0
0,54,65,0
0,57,45,0
0,42,45,0
0,64,45,0
0,54,65,0
0,64,65,0
0,74,105,9
0,57,65,2
0,62,65,0
0,62,45,0
0,59,62,0
0,40,103,7
0,35,105,0
0,59,70,0
0,52,65,0
0,55,45,0
0,40,45,0
0,59,65,0
0,67,65,0
0,55,78,0
0,52,74,0
0,62,68,0
0,79,105,6
0,78,105,165
0,76,105,15
0,59,66,7
0,66,65,45
0,71,105,16
0,59,48,124
0,38,97,0
0,59,66,0
0,50,65,0
0,54,25,0
0,59,45,0
0,38,45,0
0,54,66,0
0,59,78,0
0,59,66,405
0,74,105,185
0,36,97,0
0,62,45,0
0,55,45,0
0,36,45,0
0,64,45,0
0,55,65,0
0,64,65,0
0,35,105,0
0,59,62,0
0,48,65,0
0,55,84,0
0,60,78,0
0,74,105,3
0,72,105,167
0,71,105,1
0,59,68,7
0,69,105,158
0,35,97,15
0,59,62,0
0,47,65,0
0,35,45,0
0,57,45,0
0,57,65,0
0,57,78,0
0,67,105,4
0,59,62,239
0,74,105,29
0,33,94,3
0,35,105,0
0,59,70,0
0,45,65,0
0,60,65,0
0,60,45,0
0,33,45,0
0,60,80,0
0,72,105,162
0,59,66,0
0,71,105,8
0,69,105,3
0,59,48,120
0,57,78,4
0,38,101,0
0,59,66,0
0,50,65,0
0,38,45,0
0,54,45,5
0,54,65,0
0,59,66,0
0,54,66,0
0,67,105,3
0,38,106,45
0,26,115,3
0,69,105,0
0,31,109,9
0,71,105,0
0,55,45,0
0,43,45,0
0,59,45,0
0,62,45,0
0,57,65,0
0,59,65,0
0,62,65,0
0,35,105,0
0,49,33,0
0,55,65,0
0,69,105,168
0,67,105,12
0,59,68,0
0,76,105,157
0,30,111,3
0,59,62,0
0,54,65,0
0,57,45,0
0,64,45,0
0,42,45,0
0,64,65,0
0,69,65,0
0,74,105,1
0,74,78,1
0,59,48,0
0,59,62,0
0,74,65,0
0,62,45,0
0,79,105,7
0,28,106,10
0,40,45,0
0,55,45,0
0,59,65,0
0,62,65,0
0,67,65,0
0,35,105,0
0,59,70,0
0,52,65,0
0,78,105,7
0,81,105,7
0,59,66,2
0,76,105,0
0,26,121,13
0,59,66,0
0,50,65,0
0,66,65,0
0,71,75,0
0,59,45,0
0,38,45,0
0,74,105,0
0,38,101,14
0,59,66,0
0,74,105,23
0,74,105,45
0,74,105,7
0,36,101,3
0,62,45,0
0,55,45,0
0,36,45,0
0,64,45,0
0,64,65,0
0,67,65,0
0,35,105,0
0,59,70,0
0,48,65,0
0,72,105,155
0,71,105,15
0,59,66,0
0,62,100,8
0,69,105,17
0,35,101,10
0,59,66,0
0,47,65,0
0,35,45,0
0,57,45,0
0,57,65,0
0,69,65,0
0,67,105,1
0,59,48,0
0,59,66,10
0,33,111,8
0,35,105,0
0,59,70,0
0,45,65,0
0,55,65,0
0,64,65,0
0,60,45,0
0,33,45,0
0,74,105,3
0,72,105,0
0,71,105,4
0,59,66,0
0,69,105,0
0,38,105,0
0,59,66,0
0,50,65,0
0,38,45,0
0,57,65,0
0,67,105,37
0,59,48,100
0,69,105,3
0,59,66,7
0,54,65,0
0,54,45,0
0,60,98,11
0,33,121,14
0,64,65,0
0,61,65,0
0,59,65,0
0,45,65,0
0,73,60,0
0,35,127,0
0,42,82,0
0,49,63,0
0,61,60,0
0,45,91,0
0,73,105,3
0,40,40,13
0,42,76,0
0,71,105,7
0,40,40,10
0,40,43,0
0,73,105,0
0,40,46,0
0,40,124,0
0,42,89,0
0,71,105,5
0,42,71,0
0,73,105,0
0,35,100,0
0,28,115,0
0,35,127,0
0,42,73,0
0,59,67,0
0,33,118,0
0,71,105,8
0,46,59,4
0,73,105,26
0,43,64,9
0,47,64,0
0,43,100,45
0,47,98,0
0,76,105,21
0,42,89,25
0,33,100,45
0,35,88,0
0,74,105,18
0,35,127,10
0,40,46,0
0,46,66,0
0,62,65,0
0,54,65,0
0,59,65,0
0,33,121,0
0,40,40,50
0,40,40,45
0,73,105,16
0,40,40,19
0,40,42,45
0,40,42,30
0,71,105,13
0,40,43,45
0,40,43,45
0,73,105,34
0,40,124,10
0,42,89,0
0,42,64,23
0,74,105,36
0,42,79,45
0,33,101,45
0,35,100,0
0,33,115,45
0,35,127,0
0,42,69,0
0,74,60,0
0,76,60,0
0,81,60,0
0,42,71,165
0,43,92,45
0,47,92,0
0,43,108,45
0,41,100,0
0,42,73,0
0,71,105,55
0,32,127,10
0,64,65,0
0,59,65,0
0,44,65,0
0,35,127,0
0,40,46,0
0,42,49,0
0,40,40,60
0,40,40,45
0,40,40,45
0,69,105,29
0,40,42,10
0,42,65,0
0,40,42,45
0,71,105,37
0,40,43,3
0,40,43,45
0,40,124,45
0,42,89,0
0,69,105,11
0,42,71,13
0,71,105,8
0,32,103,45
0,35,100,0
0,32,124,45
0,35,127,0
0,42,47,0
0,59,67,0
0,69,105,4
0,46,61,44
0,71,105,17
0,43,68,28
0,47,68,0
0,43,100,45
0,47,98,0
0,74,105,6
0,30,121,5
0,42,89,0
0,28,115,13
0,35,88,0
0,73,105,15
0,45,65,0
0,61,65,0
0,59,65,0
0,64,65,0
0,35,127,0
0,40,46,0
0,42,49,0
0,33,111,0
0,40,40,60
0,40,40,0
0,40,40,19
0,71,105,6
0,40,42,0
0,42,65,0
0,40,42,45
0,69,105,24
0,40,43,0
0,40,43,45
0,40,124,0
0,42,89,0
0,73,105,14
0,42,64,45
0,42,85,25
0,73,105,58
0,33,100,45
0,35,100,0
0,33,111,45
0,35,127,0
0,42,69,0
0,49,50,0
0,46,51,165
0,64,90,0
0,76,85,0
0,81,85,45
0,69,90,0
0,43,83,0
0,46,83,0
0,47,83,0
0,43,108,45
0,46,69,0
0,68,90,0
0,80,85,0
0,44,65,0
0,28,101,45
0,76,85,0
0,64,90,0
0,66,105,53
0,32,121,19
0,59,90,0
0,71,85,0
0,68,105,10
0,31,105,19
0,35,100,0
0,57,64,0
0,69,105,25
0,30,121,5
0,35,127,0
0,42,49,0
0,49,63,0
0,42,65,0
0,66,65,0
0,61,65,0
0,57,65,0
0,57,45,0
0,61,45,0
0,66,45,0
0,90,83,0
0,68,105,8
0,40,40,2
0,42,65,0
0,40,40,60
0,69,105,13
0,40,43,0
0,40,46,45
0,40,124,45
0,42,89,0
0,68,105,2
0,69,105,25
0,42,71,7
0,30,115,45
0,35,100,0
0,28,127,8
0,35,127,0
0,42,73,0
0,59,62,0
0,56,65,0
0,64,65,0
0,40,65,0
0,56,45,0
0,64,45,0
0,85,76,0
0,68,105,5
0,46,61,3
0,69,105,10
0,43,71,4
0,47,71,0
0,40,111,37
0,42,83,0
0,43,100,0
0,47,98,0
0,73,105,17
0,42,85,143
0,35,88,45
0,71,105,2
0,38,115,19
0,35,127,0
0,40,46,0
0,42,73,0
0,54,45,0
0,59,45,0
0,62,45,0
0,54,65,0
0,59,65,0
0,62,65,0
0,38,65,0
0,83,95,0
0,40,40,19
0,40,40,45
0,40,40,45
0,73,105,0
0,40,42,44
0,42,65,0
0,40,42,45
0,71,105,10
0,40,43,17
0,40,43,45
0,40,124,45
0,42,89,0
0,66,105,46
0,71,105,17
0,42,71,10
0,38,106,45
0,35,100,0
0,38,118,45
0,35,127,0
0,46,63,0
0,42,71,165
0,43,83,45
0,47,83,0
0,42,69,45
0,43,108,0
0,71,105,148
0,41,100,17
0,42,70,0
0,73,105,21
0,38,109,0
0,74,105,42
0,40,118,20
0,35,127,0
0,40,46,0
0,42,49,0
0,56,65,0
0,40,65,0
0,64,65,0
0,40,40,10
0,40,40,40
0,40,40,45
0,73,105,10
0,40,42,17
0,42,65,0
0,40,42,45
0,74,105,36
0,40,43,9
0,40,43,45
0,40,124,45
0,42,70,0
0,73,105,13
0,42,71,2
0,74,105,28
0,40,103,17
0,35,100,0
0,41,115,3
0,35,127,0
0,42,61,0
0,59,62,0
0,62,65,0
0,41,65,0
0,46,48,160
0,43,71,45
0,47,71,0
0,76,105,23
0,37,111,10
0,42,70,0
0,43,100,0
0,47,98,0
0,41,100,165
0,42,73,0
0,73,105,6
0,30,111,0
0,42,65,0
0,61,65,0
0,57,65,0
0,66,65,0
0,35,127,0
0,40,46,0
0,42,49,0
0,40,40,55
0,40,40,0
0,40,40,27
0,71,105,3
0,40,42,0
0,42,65,0
0,40,42,45
0,69,105,21
0,40,43,0
0,40,43,45
0,40,124,0
0,42,69,0
0,73,105,32
0,42,79,45
0,46,66,13
0,73,105,10
0,30,121,45
0,35,100,0
0,42,10,0
0,30,127,45
0,35,127,0
0,46,78,0
0,42,82,105
0,73,105,2
0,47,110,18
0,32,127,18
0,40,124,0
0,42,83,0
0,64,65,0
0,59,65,0
0,44,65,0
0,76,105,6
0,76,105,103
0,42,117,12
0,43,107,0
0,35,121,45
0,57,64,0
0,33,121,22
0,35,127,0
0,42,82,0
0,49,63,0
0,45,65,0
0,61,65,0
0,76,110,4
0,40,40,5
0,42,76,0
0,40,40,14
0,81,110,42
0,40,43,3
0,40,46,9
0,88,120,0
0,40,124,8
0,42,89,0
0,42,71,165
0,33,101,0
0,35,100,0
0,76,105,8
0,33,115,7
0,35,127,0
0,42,73,0
0,59,62,0
0,74,105,1
0,46,59,8
0,43,71,5
0,47,71,0
0,73,105,40
0,43,100,5
0,47,98,0
0,71,105,7
0,41,100,2
0,42,89,0
0,62,65,18
0,54,65,0
0,59,65,0
0,35,127,0
0,40,46,0
0,42,76,0
0,33,118,0
0,40,40,60
0,40,40,45
0,40,40,45
0,40,42,45
0,40,42,45
0,40,43,42
0,40,43,45
0,40,124,45
0,42,89,0
0,42,64,45
0,42,85,4
0,33,115,0
0,35,100,0
0,33,115,7
0,35,127,0
0,46,66,0
0,71,105,5
0,33,105,4
0,42,91,0
0,43,80,5
0,47,80,0
0,73,105,4
0,33,97,2
0,43,108,0
0,74,105,90
0,45,97,13
0,42,73,0
0,35,88,45
0,57,64,0
0,85,111,28
0,84,111,3
0,83,117,6
0,44,97,8
0,35,127,0
0,40,46,0
0,42,49,0
0,49,63,0
0,44,65,0
0,64,65,0
0,40,40,20
0,40,40,45
0,40,40,45
0,73,105,21
0,40,42,18
0,42,65,0
0,40,42,45
0,40,43,45
0,40,43,42
0,74,105,22
0,40,124,23
0,42,89,0
0,71,105,21
0,42,71,12
0,35,100,45
0,73,105,35
0,29,127,7
0,35,127,0
0,42,47,0
0,59,62,0
0,41,65,0
0,68,65,0
0,61,65,0
0,85,116,5
0,77,105,38
0,46,61,14
0,43,71,45
0,47,71,0
0,43,100,44
0,47,98,0
0,80,105,1
0,81,105,94
0,41,100,3
0,42,89,0
0,30,127,27
0,42,65,0
0,66,65,0
0,61,65,0
0,57,65,0
0,35,127,0
0,40,46,0
0,42,49,0
0,40,40,34
0,40,40,45
0,40,40,45
0,40,42,18
0,42,65,0
0,40,42,17
0,40,43,35
0,40,43,45
0,40,124,42
0,42,89,0
0,42,64,18
0,42,85,3
0,30,111,9
0,35,100,0
0,28,127,39
0,35,127,0
0,46,72,0
0,68,65,0
0,56,65,0
0,40,65,0
