track,note,velocity,time
1,29,127,1343
1,29,0,51
1,29,124,45
1,29,0,74
1,29,124,22
1,29,0,73
1,29,127,22
1,29,0,70
1,29,124,26
1,29,0,68
1,29,127,28
1,29,0,73
1,29,124,24
1,29,0,75
1,29,127,22
1,29,0,63
1,29,124,34
1,29,0,63
1,29,124,31
1,29,0,72
1,29,127,24
1,29,0,61
1,29,124,35
1,29,0,66
1,29,127,29
1,29,0,66
1,29,124,30
1,29,0,68
1,29,127,28
1,29,0,64
1,29,124,32
1,29,0,68
1,29,124,29
1,29,0,73
1,29,127,22
1,29,0,70
1,29,124,27
1,29,0,67
1,29,124,29
1,29,0,74
1,29,127,21
1,29,0,72
1,29,124,24
1,29,0,70
1,29,124,27
1,29,0,69
1,29,124,27
1,29,0,69
1,29,127,27
1,29,0,71
1,29,124,25
1,29,0,66
1,29,127,30
1,29,0,69
1,29,124,27
1,29,0,75
1,29,124,21
1,29,0,67
1,29,124,29
1,29,0,67
1,29,124,29
1,29,0,73
1,29,124,23
1,29,0,72
1,29,124,24
1,29,0,71
1,29,124,25
1,29,0,72
1,29,124,24
1,29,0,65
1,29,124,31
1,29,0,69
1,29,124,27
1,29,0,75
1,29,124,21
1,29,0,65
1,29,124,30
1,29,0,70
1,29,124,27
1,29,0,71
1,29,124,25
1,29,0,67
1,29,127,29
1,29,0,67
1,29,124,29
1,29,0,65
1,29,124,31
1,29,0,75
1,29,124,21
1,29,0,77
1,29,124,19
1,29,0,69
1,29,127,27
1,29,0,68
1,29,124,28
1,29,0,71
1,29,124,25
1,29,0,68
1,29,124,28
1,29,0,72
1,29,124,24
1,29,0,73
1,29,124,23
1,29,0,79
1,29,124,17
1,29,0,69
1,29,124,27
1,29,0,75
1,29,124,21
1,29,0,72
1,29,124,24
1,29,0,79
1,29,124,17
1,29,0,71
1,29,124,26
1,29,0,74
1,29,124,23
1,29,0,73
1,29,127,21
1,29,0,77
1,29,127,19
1,29,0,77
1,29,124,19
1,29,0,71
1,29,124,25
1,29,0,71
1,29,124,24
1,29,0,80
1,29,124,17
1,29,0,76
1,29,124,19
1,29,0,82
1,29,127,17
1,29,0,78
1,29,124,16
1,29,0,67
1,29,124,29
1,29,0,77
1,29,124,18
1,29,0,74
1,29,124,23
1,29,0,69
1,29,124,27
1,29,0,71
1,29,124,25
1,29,0,71
1,29,124,25
1,29,0,77
1,29,124,21
1,29,0,69
1,29,124,25
1,29,0,75
1,29,124,21
1,29,0,73
1,29,124,22
1,29,0,72
1,29,124,25
1,29,0,73
1,29,124,22
1,29,0,80
1,29,124,17
1,29,0,69
1,29,124,28
1,29,0,76
1,29,124,18
1,29,0,72
1,29,124,25
1,29,0,67
1,29,124,29
1,29,0,74
1,29,124,22
1,29,0,75
1,29,124,21
1,29,0,80
1,29,124,17
1,29,0,68
1,29,124,26
1,29,0,70
1,29,124,27
1,29,0,71
1,29,124,25
1,29,0,71
1,29,124,25
1,29,0,65
1,29,124,31
1,29,0,72
1,29,124,24
1,29,0,67
1,29,124,28
1,29,0,73
1,29,124,24
1,29,0,77
1,29,124,19
1,29,0,75
1,29,124,21
1,29,0,69
1,29,124,27
1,29,0,69
1,29,124,26
1,29,0,80
1,29,124,17
1,29,0,76
1,29,124,20
1,29,0,79
1,29,124,17
1,29,0,65
1,29,124,31
1,29,0,83
1,29,124,14
1,29,0,66
1,29,124,29
1,29,0,69
1,29,124,26
1,29,0,82
1,29,124,14
1,29,0,77
1,29,124,19
1,29,0,70
1,29,124,26
1,29,0,74
1,29,124,22
1,29,0,76
1,29,124,21
1,29,0,73
1,29,124,25
1,29,0,66
1,29,124,28
1,29,0,73
1,29,124,23
1,29,0,67
1,29,124,29
1,29,0,69
1,29,124,26
1,29,0,74
1,29,124,23
1,29,0,67
1,29,124,28
1,29,0,66
1,29,124,32
1,29,0,79
1,29,124,16
1,29,0,69
1,29,124,26
1,29,0,80
1,29,124,17
1,29,0,79
1,29,124,17
1,29,0,68
1,29,124,28
1,29,0,71
1,29,124,24
1,29,0,70
1,29,124,27
1,29,0,63
1,29,124,32
1,29,0,75
1,29,124,22
1,29,0,65
1,29,124,31
1,29,0,74
1,29,124,22
1,29,0,67
1,29,124,29
1,29,0,69
1,29,124,27
1,29,0,65
1,29,124,31
1,29,0,75
1,29,124,21
1,29,0,77
1,29,124,18
1,29,0,76
1,29,124,21
1,29,0,72
1,29,124,24
1,29,0,77
1,29,124,19
1,29,0,77
1,29,124,19
1,29,0,77
1,29,124,19
1,29,0,73
1,29,124,23
1,29,0,71
1,29,124,27
1,29,0,79
1,29,124,15
1,29,0,79
1,29,124,17
1,29,0,76
1,29,124,21
1,29,0,76
1,29,124,19
1,29,0,73
1,29,124,22
1,29,0,70
1,29,124,27
1,29,0,76
1,29,124,20
1,29,0,75
1,29,124,21
1,29,0,74
1,29,124,22
1,29,0,81
1,29,124,17
1,29,0,66
1,29,124,28
1,29,0,81
1,29,124,15
1,29,0,74
1,29,124,22
1,29,0,74
1,29,124,22
1,29,0,77
1,29,124,19
1,29,0,73
1,29,124,22
1,29,0,78
1,29,124,18
1,29,0,70
1,29,124,27
1,29,0,75
1,29,124,21
1,29,0,65
1,29,124,31
1,29,0,77
1,29,124,18
1,29,0,72
1,29,124,25
1,29,0,72
1,29,124,24
1,29,0,71
1,29,127,24
1,29,0,70
1,29,124,26
1,29,0,74
1,29,127,23
1,29,0,69
1,29,127,28
1,29,0,62
1,31,127,33
1,31,0,59
1,31,127,36
1,31,0,76
1,32,127,20
1,32,0,66
1,32,127,31
1,32,0,67
1,33,127,28
1,33,0,64
1,33,127,32
1,33,0,66
1,34,127,31
1,34,0,77
1,34,127,19
1,34,0,75
1,34,127,21
1,34,0,75
1,34,127,21
1,34,0,75
1,34,127,20
1,34,0,88
1,34,127,9
1,34,0,69
1,34,127,27
1,34,0,85
1,34,127,11
1,34,0,77
1,36,127,19
1,36,0,77
1,36,127,19
1,36,0,65
1,36,127,31
1,36,0,77
1,36,127,18
1,36,0,69
1,36,127,28
1,36,0,71
1,36,127,25
1,36,0,63
1,36,127,33
1,36,0,73
1,36,127,23
1,36,0,67
1,36,127,28
1,36,0,68
1,36,127,29
1,36,0,74
1,36,127,21
1,36,0,74
1,36,127,25
1,36,0,67
1,36,127,27
1,36,0,73
1,36,127,23
1,36,0,64
1,36,127,32
1,36,0,71
1,36,127,25
1,36,0,73
1,36,127,23
1,36,0,71
1,36,127,25
1,36,0,75
1,36,127,21
1,36,0,67
1,36,127,28
1,36,0,76
1,36,127,20
1,36,0,82
1,36,127,14
1,36,0,74
1,36,127,22
1,36,0,76
1,36,127,21
1,36,0,74
1,36,127,22
1,36,0,61
1,36,127,35
1,36,0,66
1,36,127,29
1,36,0,72
1,36,127,24
1,36,0,70
1,36,127,29
1,36,0,67
1,36,127,26
1,36,0,66
1,36,127,30
1,36,0,80
1,36,127,17
1,36,0,76
1,29,127,20
1,29,0,51
1,29,127,45
1,29,0,69
1,29,127,26
1,29,0,72
1,29,127,25
1,29,0,69
1,29,127,27
1,29,0,55
1,29,127,41
1,29,0,71
1,29,127,25
1,29,0,69
1,29,127,27
1,29,0,67
1,29,127,28
1,29,0,70
1,29,127,27
1,29,0,73
1,29,127,22
1,29,0,66
1,29,127,31
1,29,0,75
1,29,127,21
1,29,0,73
1,29,127,25
1,29,0,63
1,29,127,30
1,29,0,68
1,29,127,30
1,29,0,80
1,29,127,15
1,29,0,59
1,29,127,37
1,29,0,79
1,29,127,17
1,29,0,69
1,29,127,27
1,29,0,73
1,29,127,23
1,29,0,77
1,29,124,19
1,29,0,80
1,29,127,18
1,29,0,74
1,29,127,20
1,29,0,73
1,29,127,22
1,29,0,64
1,29,124,35
1,29,0,77
1,29,127,17
1,29,0,68
1,29,127,28
1,29,0,81
1,29,127,15
1,29,0,77
1,29,124,18
1,29,0,86
1,29,127,11
1,29,0,61
1,29,127,35
1,29,0,73
1,34,127,23
1,34,0,71
1,34,127,25
1,34,0,79
1,34,127,17
1,34,0,72
1,34,124,24
1,34,0,81
1,34,127,15
1,34,0,74
1,34,127,22
1,34,0,81
1,34,127,14
1,34,0,78
1,34,127,19
1,34,0,77
1,34,127,22
1,34,0,66
1,34,127,26
1,34,0,70
1,34,127,26
1,34,0,76
1,34,127,23
1,34,0,75
1,34,127,19
1,34,0,77
1,34,124,18
1,34,0,80
1,34,127,16
1,34,0,88
1,34,124,9
1,34,0,79
1,34,127,17
1,34,0,72
1,34,127,27
1,34,0,76
1,34,127,17
1,34,0,82
1,34,124,14
1,34,0,79
1,34,127,17
1,34,0,79
1,34,127,16
1,34,0,78
1,34,127,18
1,34,0,86
1,34,127,10
1,34,0,80
1,34,127,17
1,34,0,67
1,34,127,29
1,34,0,77
1,34,127,19
1,34,0,71
1,34,124,24
1,34,0,80
1,34,127,16
1,34,0,76
1,34,127,21
1,34,0,83
1,34,127,12
1,34,0,72
1,34,127,24
1,34,0,74
1,36,127,23
1,36,0,81
1,36,127,15
1,36,0,79
1,36,127,16
1,36,0,66
1,36,127,30
1,36,0,77
1,36,127,20
1,36,0,67
1,36,127,29
1,36,0,80
1,36,127,15
1,36,0,74
1,36,127,23
1,36,0,72
1,36,127,24
1,36,0,57
1,36,127,39
1,36,0,82
1,36,127,13
1,36,0,64
1,36,127,33
1,36,0,75
1,36,127,21
1,36,0,79
1,36,127,18
1,36,0,79
1,36,127,16
1,36,0,65
1,36,127,31
1,36,0,77
1,36,127,19
1,36,0,73
1,36,127,23
1,36,0,71
1,36,127,25
1,36,0,61
1,36,127,35
1,36,0,79
1,36,127,16
1,36,0,64
1,36,127,33
1,36,0,81
1,36,127,15
1,36,0,67
1,36,127,29
1,36,0,79
1,36,127,17
1,36,0,61
1,36,127,35
1,36,0,77
1,36,127,19
1,36,0,77
1,36,127,19
1,36,0,75
1,36,127,21
1,36,0,87
1,36,127,8
1,36,0,62
1,36,127,35
1,36,0,74
1,36,127,22
1,36,0,75
1,29,127,21
1,29,0,65
1,29,127,31
1,29,0,73
1,29,127,22
1,29,0,64
1,29,124,32
1,29,0,82
1,29,127,15
1,29,0,67
1,29,127,29
1,29,0,79
1,29,127,17
1,29,0,67
1,29,124,29
1,29,0,75
1,29,127,21
1,29,0,69
1,29,127,27
1,29,0,73
1,29,127,24
1,29,0,70
1,29,127,24
1,29,0,78
1,29,127,19
1,29,0,66
1,29,127,30
1,29,0,75
1,29,127,21
1,29,0,75
1,29,127,21
1,29,0,79
1,29,127,19
1,29,0,75
1,29,127,19
1,29,0,71
1,29,127,24
1,29,0,64
1,29,127,32
1,29,0,72
1,29,127,25
1,29,0,69
1,29,127,26
1,29,0,78
1,29,124,19
1,29,0,68
1,29,124,27
1,29,0,76
1,29,124,21
1,29,0,69
1,29,124,27
1,29,0,81
1,29,127,15
1,29,0,76
1,29,127,20
1,29,0,76
1,29,127,21
1,29,0,73
1,29,124,23
1,29,0,72
1,29,127,23
1,29,0,79
1,29,124,18
1,29,0,82
1,29,127,12
1,29,0,78
1,29,124,19
1,29,0,79
1,29,124,17
1,29,0,72
1,29,127,24
1,29,0,81
1,29,127,16
1,29,0,76
1,29,127,20
1,29,0,80
1,29,124,17
1,29,0,72
1,29,124,21
1,29,0,78
1,29,124,19
1,29,0,61
1,29,127,35
1,29,0,84
1,29,127,12
1,29,0,80
1,29,124,16
1,29,0,85
1,29,124,11
1,29,0,76
1,29,124,19
1,29,0,70
1,29,124,27
1,29,0,71
1,29,127,26
1,29,0,76
1,29,127,19
1,29,0,66
1,29,124,30
1,29,0,79
1,29,127,17
1,29,0,81
1,29,124,15
1,29,0,73
1,29,127,22
1,29,0,74
1,29,127,24
1,29,0,72
1,29,127,23
1,29,0,69
1,29,124,27
1,29,0,79
1,29,127,17
1,29,0,77
1,29,124,18
1,29,0,84
1,29,127,13
1,29,0,85
1,29,124,11
1,29,0,75
1,29,127,21
1,29,0,69
1,29,127,27
1,29,0,67
1,29,127,30
1,29,0,74
1,29,124,20
1,29,0,70
1,29,124,27
1,29,0,68
1,29,124,27
1,29,0,91
1,29,127,6
1,29,0,69
1,29,124,27
1,29,0,81
1,29,127,14
1,29,0,82
1,29,124,14
1,29,0,69
1,29,127,27
1,29,0,80
1,29,127,16
1,29,0,81
1,29,127,16
1,29,0,71
1,29,124,25
1,29,0,79
1,29,127,16
1,29,0,76
1,29,124,21
1,29,0,75
1,29,127,20
1,29,0,84
1,29,124,12
1,29,0,78
1,29,127,21
1,29,0,69
1,29,124,25
1,29,0,80
1,29,127,16
1,29,0,73
1,29,124,23
1,29,0,80
1,29,127,16
1,29,0,69
1,29,124,26
1,29,0,70
1,29,127,26
1,29,0,76
1,29,124,21
1,29,0,76
1,29,127,20
1,29,0,76
1,29,127,20
1,29,0,77
1,29,127,18
1,29,0,68
1,29,124,29
1,29,0,80
1,29,127,16
1,29,0,73
1,29,124,24
1,29,0,64
1,29,127,31
1,29,0,75
1,29,127,21
1,29,0,76
1,29,127,20
1,29,0,76
1,29,124,20
1,29,0,74
1,29,127,22
1,29,0,63
1,29,124,32
1,29,0,82
1,29,124,16
1,30,124,0
1,30,0,42
1,29,0,18
1,29,124,35
1,29,0,82
1,29,124,14
1,29,0,80
1,29,124,16
1,29,0,79
1,29,127,17
1,29,0,83
1,29,124,13
1,29,0,79
1,29,124,17
1,29,0,72
1,29,124,24
1,29,0,73
1,29,124,22
1,29,0,72
1,29,127,24
1,29,0,78
1,29,124,19
1,29,0,73
1,29,127,23
1,29,0,77
1,29,124,19
1,29,0,67
1,29,124,29
1,29,0,73
1,29,127,23
1,29,0,57
1,29,127,39
1,29,0,73
1,29,127,23
1,29,0,69
1,29,124,26
1,29,0,72
1,29,127,24
1,29,0,77
1,29,127,19
1,29,0,78
1,29,127,19
1,29,0,75
1,29,124,21
1,29,0,75
1,29,124,21
1,29,0,69
1,29,124,27
1,29,0,77
1,29,127,18
1,29,0,61
1,29,127,35
1,29,0,70
1,29,124,27
1,29,0,65
1,29,127,31
1,29,0,75
1,29,127,21
1,29,0,77
1,29,127,18
1,29,0,84
1,29,127,15
1,29,0,69
1,29,124,25
1,29,0,81
1,29,127,15
1,29,0,76
1,29,127,20
1,29,0,79
1,29,127,17
1,29,0,74
1,29,124,22
1,29,0,81
1,29,127,14
1,29,0,77
1,29,124,20
1,29,0,85
1,29,127,10
1,29,0,78
1,29,127,19
1,29,0,85
1,31,127,10
1,31,0,81
1,31,127,16
1,31,0,85
1,32,127,11
1,32,0,60
1,32,127,37
1,32,0,88
1,33,127,7
1,33,0,83
1,33,127,12
1,33,0,74
1,34,127,23
1,34,0,72
1,34,127,24
1,34,0,79
1,34,127,19
1,34,0,82
1,34,127,12
1,34,0,85
1,34,127,13
1,34,0,75
1,34,124,19
1,34,0,83
1,34,127,13
1,34,0,63
1,34,127,33
1,34,0,73
1,36,127,23
1,36,0,71
1,36,127,25
1,36,0,73
1,36,127,23
1,36,0,78
1,36,127,18
1,36,0,77
1,36,127,19
1,36,0,77
1,36,127,19
1,36,0,79
1,36,127,16
1,36,0,70
1,36,127,27
1,36,0,77
1,36,127,21
1,36,0,75
1,36,127,18
1,36,0,77
1,36,127,20
1,36,0,82
1,36,127,14
1,36,0,72
1,36,127,25
1,36,0,80
1,36,127,14
1,36,0,78
1,36,127,21
1,36,0,71
1,36,127,23
1,36,0,80
1,36,127,18
1,36,0,67
1,36,127,26
1,36,0,75
1,36,127,22
1,36,0,79
1,36,127,17
1,36,0,82
1,36,127,14
1,36,0,71
1,36,127,24
1,36,0,80
1,36,127,19
1,36,0,75
1,36,127,18
1,36,0,78
1,36,127,19
1,36,0,71
1,36,127,26
1,36,0,81
1,36,127,14
1,36,0,75
1,36,127,20
1,36,0,86
1,36,127,10
1,36,0,80
1,36,127,16
1,36,0,61
1,36,127,35
1,36,0,78
1,36,127,20
1,36,0,70
1,29,127,25
1,29,0,67
1,29,127,29
1,29,0,73
1,29,127,22
1,29,0,62
