track,note,velocity,time
1,35,105,2685
1,35,0,160
1,35,98,32
1,35,0,182
1,38,102,10
1,40,95,190
1,38,0,26
1,42,92,168
1,40,0,2
1,42,0,158
1,42,98,32
1,40,96,190
1,42,0,10
1,38,97,186
1,40,0,44
1,35,99,150
1,38,0,22
1,35,0,138
1,35,101,32
1,35,0,182
1,38,109,6
1,40,101,192
1,38,0,10
1,42,94,182
1,40,0,4
1,42,0,156
1,42,94,32
1,42,0,160
1,40,103,32
1,38,102,192
1,40,0,22
1,38,0,162
1,35,108,8
1,35,0,160
1,35,105,36
1,35,0,172
1,38,108,16
1,40,95,192
1,38,0,32
1,42,100,164
1,40,0,14
1,42,0,146
1,42,98,32
1,42,0,170
1,40,101,22
1,38,106,188
1,40,0,14
1,35,108,178
1,38,0,6
1,35,0,154
1,35,106,36
1,35,0,160
1,38,113,30
1,40,101,190
1,38,0,12
1,40,0,174
1,42,96,8
1,42,0,160
1,42,102,30
1,42,0,160
1,40,101,36
1,38,106,188
1,40,0,36
1,38,0,138
1,35,106,18
1,35,0,160
1,35,101,32
1,35,0,160
1,38,108,32
1,40,98,190
1,38,0,10
1,40,0,174
1,42,94,10
1,42,0,160
1,42,100,32
1,42,0,160
1,40,101,32
1,38,97,190
1,40,0,22
1,35,105,172
1,38,0,4
1,35,0,156
1,35,99,32
1,35,0,160
1,38,106,32
1,38,0,162
1,40,103,30
1,40,0,160
1,42,98,30
1,42,0,160
1,42,96,34
1,42,0,160
1,40,96,32
1,38,99,190
1,40,0,12
1,40,106,182
1,38,0,4
1,40,0,156
1,40,95,32
1,40,0,160
1,40,105,32
1,40,0,160
1,40,93,32
1,40,0,160
1,40,106,32
1,40,0,160
1,40,94,32
1,40,0,160
1,40,101,32
1,40,0,160
1,40,98,32
1,40,0,184
1,38,109,8
1,38,0,160
1,38,93,32
1,38,0,160
1,38,108,32
1,38,0,160
1,38,108,32
1,38,0,160
1,38,105,30
1,38,0,160
1,38,113,34
1,38,0,160
1,38,113,38
1,38,0,160
1,38,106,30
1,38,0,160
1,35,109,28
1,35,0,160
1,35,98,32
1,35,0,172
1,38,101,22
1,40,90,188
1,38,0,24
1,42,96,172
1,40,0,2
1,42,0,158
1,42,96,34
1,42,0,162
1,40,102,30
1,38,99,186
1,40,0,16
1,35,106,178
1,38,0,4
1,35,0,156
1,35,105,32
1,35,0,160
1,38,99,30
1,40,101,194
1,38,0,18
1,42,96,176
1,40,0,46
1,42,0,114
1,42,92,30
1,42,0,162
1,40,101,34
1,38,105,188
1,40,0,12
1,38,0,148
1,38,102,36
1,38,0,160
1,38,93,28
1,38,0,160
1,38,109,32
1,38,0,160
1,38,92,32
1,38,0,160
1,38,103,36
1,38,0,160
1,38,93,28
1,38,0,160
1,38,106,32
1,38,0,160
1,38,95,32
1,38,0,160
1,40,108,36
1,40,0,160
1,40,99,32
1,40,0,160
1,40,102,28
1,40,0,160
1,40,99,32
1,40,0,160
1,40,99,32
1,40,0,160
1,40,98,32
1,40,0,160
1,40,108,32
1,40,0,160
1,40,95,32
1,40,0,160
1,35,108,34
1,35,0,98
1,35,85,96
1,35,0,90
1,35,108,102
1,35,0,112
1,35,83,76
1,35,0,100
1,35,93,92
1,35,0,114
1,35,90,82
1,35,0,102
1,35,98,90
1,35,0,114
1,35,89,74
1,35,0,100
1,35,101,96
1,35,0,112
1,35,89,76
1,35,0,100
1,35,102,96
1,35,0,100
1,35,85,90
1,35,0,76
1,35,105,118
1,35,0,100
1,35,89,88
1,35,0,88
1,35,106,104
1,35,0,100
1,35,93,92
1,35,0,88
1,35,95,104
1,35,0,100
1,35,83,92
1,35,0,78
1,35,103,114
1,35,0,102
1,35,85,94
1,35,0,88
1,35,95,104
1,35,0,104
1,35,87,88
1,35,0,90
1,35,102,102
1,35,0,102
1,35,83,92
1,35,0,90
1,35,103,102
1,35,0,100
1,35,95,90
1,35,0,88
1,35,94,100
1,35,0,102
1,35,85,92
1,35,0,88
1,35,98,106
1,35,0,110
1,35,85,82
1,35,0,78
1,35,101,114
1,35,0,100
1,35,92,90
1,35,0,104
1,35,92,86
1,35,0,102
1,35,88,94
1,35,0,76
1,35,99,112
1,35,0,102
1,35,89,90
1,35,0,88
1,35,102,104
1,35,0,88
1,35,90,108
1,35,0,76
1,35,98,112
1,35,0,102
1,35,94,94
1,35,0,88
1,35,98,102
1,35,0,100
1,35,89,90
1,35,0,88
1,35,105,106
1,35,0,102
1,35,96,92
1,35,0,88
1,35,102,104
1,35,0,90
1,35,99,102
1,35,0,90
1,35,98,102
1,35,0,102
1,35,101,90
1,35,0,100
1,33,98,88
1,33,0,114
1,33,88,78
1,33,0,90
1,33,99,102
1,33,0,102
1,33,87,90
1,33,0,90
1,33,99,106
1,33,0,102
1,33,89,86
1,33,0,88
1,33,97,104
1,33,0,100
1,33,96,90
1,33,0,158
1,28,114,36
1,28,0,124
1,28,98,72
1,28,0,98
1,28,102,90
1,28,0,102
1,28,98,90
1,28,0,124
1,28,103,72
1,28,0,100
1,28,98,92
1,28,0,88
1,28,103,100
1,28,0,102
1,28,102,96
1,28,0,124
1,35,101,62
1,35,0,112
1,35,89,80
1,35,0,100
1,35,99,94
1,35,0,100
1,35,95,90
1,35,0,102
1,35,99,92
1,35,0,102
1,35,89,88
1,35,0,90
1,35,105,106
1,35,0,100
1,35,94,88
1,35,0,88
1,35,99,108
1,35,0,100
1,35,90,88
1,35,0,88
1,35,105,108
1,35,0,100
1,35,97,92
1,35,0,88
1,35,103,104
1,35,0,88
1,35,93,100
1,35,0,100
1,35,101,96
1,35,0,102
1,35,96,86
1,35,0,124
1,33,103,68
1,33,0,112
1,33,82,80
1,33,0,100
1,33,105,96
1,33,0,88
1,33,89,100
1,33,0,98
1,33,101,100
1,33,0,102
1,33,89,88
1,33,0,76
1,33,98,112
1,33,0,104
1,33,101,92
1,33,0,126
1,28,108,66
1,28,0,100
1,28,101,92
1,28,0,88
1,28,106,100
1,28,0,102
1,28,95,90
1,28,0,102
1,28,103,92
1,28,0,100
1,28,99,90
1,28,0,102
1,28,109,94
1,28,0,114
1,28,108,78
1,28,0,126
1,35,108,62
1,35,0,100
1,35,92,92
1,35,0,112
1,35,103,84
1,35,0,98
1,35,92,92
1,35,0,88
1,35,102,102
1,35,0,102
1,35,88,88
1,35,0,76
1,35,103,116
1,35,0,102
1,35,98,94
1,35,0,90
1,35,101,104
1,35,0,100
1,35,99,92
1,35,0,90
1,35,102,102
1,35,0,100
1,35,99,92
1,35,0,76
1,35,105,116
1,35,0,102
1,35,101,90
1,35,0,90
1,35,106,98
1,35,0,90
1,35,102,106
1,35,0,104
1,33,103,84
1,33,0,102
1,33,97,94
1,33,0,74
1,33,106,118
1,33,0,88
1,33,99,104
1,33,0,76
1,33,103,114
1,33,0,102
1,33,96,88
1,33,0,76
1,33,108,120
1,33,0,90
1,33,102,98
1,33,0,102
1,33,105,94
1,33,0,100
1,33,101,88
1,33,0,90
1,33,109,108
1,33,0,88
1,33,101,102
1,33,0,76
1,33,105,116
1,33,0,88
1,33,102,104
1,33,0,88
1,33,106,104
1,33,0,112
1,33,93,80
1,33,0,160
1,35,108,32
1,35,0,102
1,35,95,86
1,35,0,102
1,35,105,90
1,35,0,112
1,35,99,84
1,35,0,88
1,35,106,104
1,35,0,100
1,35,98,92
1,35,0,88
1,35,106,104
1,35,0,90
1,35,105,102
1,35,0,88
1,35,108,100
1,35,0,100
1,35,106,96
1,35,0,74
1,35,108,116
1,35,0,100
1,35,108,94
1,35,0,76
1,35,111,116
1,35,0,90
1,35,106,98
1,35,0,90
1,35,114,106
1,35,0,104
1,35,105,84
1,35,0,172
1,33,114,24
1,33,0,102
1,33,93,90
1,33,0,102
1,33,105,90
1,33,0,112
1,33,92,80
1,33,0,88
1,33,105,104
1,33,0,100
1,33,93,88
1,33,0,88
1,33,98,104
1,33,0,90
1,33,105,106
1,33,0,158
1,28,114,34
1,28,0,124
1,28,103,70
1,28,0,112
1,28,106,78
1,28,0,110
1,28,105,78
1,28,0,100
1,28,106,96
1,28,0,112
1,28,102,76
1,28,0,102
1,28,111,90
1,28,0,100
1,28,105,92
1,28,0,160
1,35,106,32
1,35,0,100
1,35,98,92
1,35,0,100
1,35,111,96
1,35,0,102
1,35,95,90
1,35,0,78
1,35,108,114
1,35,0,102
1,35,101,90
1,35,0,88
1,35,106,104
1,35,0,88
1,35,96,104
1,35,0,78
1,35,108,110
1,35,0,102
1,35,92,88
1,35,0,88
1,35,106,106
1,35,0,102
1,35,98,90
1,35,0,88
1,35,106,106
1,35,0,102
1,35,98,92
1,35,0,100
1,35,103,90
1,35,0,102
1,35,108,92
1,40,111,188
1,35,0,24
1,40,0,82
1,40,108,86
1,40,0,100
1,40,109,96
1,40,0,100
1,40,102,88
1,40,0,86
1,40,111,106
1,40,0,114
1,40,102,78
1,40,0,90
1,40,109,106
1,40,0,90
1,40,102,98
1,40,0,172
1,38,109,24
1,38,0,112
1,38,103,80
1,38,0,100
1,38,109,92
1,38,0,114
1,38,102,76
1,38,0,88
1,38,109,102
1,38,0,100
1,38,111,96
1,38,0,102
1,38,109,86
1,38,0,114
1,38,111,82
1,38,0,150
1,35,106,38
1,35,0,102
1,35,89,90
1,35,0,102
1,35,108,94
1,35,0,88
1,35,88,104
1,35,0,76
1,35,105,116
1,35,0,100
1,35,105,88
1,35,0,112
1,35,93,82
1,35,0,102
1,35,91,92
1,35,0,88
1,35,109,102
1,35,0,104
1,35,89,86
1,35,0,90
1,35,103,106
1,35,0,100
1,35,94,90
1,35,0,88
1,35,108,106
1,35,0,110
1,35,97,82
1,35,0,100
1,35,102,94
1,35,0,100
1,35,97,88
1,35,0,184
1,40,111,6
1,40,0,104
1,40,105,88
1,40,0,100
1,40,111,92
1,40,0,98
1,40,106,94
1,40,0,100
1,40,109,92
1,40,0,114
1,40,111,76
1,40,0,100
1,40,111,94
1,40,0,114
1,40,108,76
1,40,0,160
1,38,114,34
1,38,0,1312
1,35,114,226
1,35,0,112
1,35,97,82
1,35,0,90
1,35,113,100
1,35,0,116
1,35,93,74
1,35,0,102
1,35,105,94
1,35,0,114
1,35,98,76
1,35,0,88
1,35,106,106
1,35,0,100
1,35,103,92
1,35,0,88
1,35,106,104
1,35,0,88
1,35,98,100
1,35,0,102
1,35,103,90
1,35,0,100
1,35,98,92
1,35,0,102
1,35,101,92
1,35,0,100
1,35,97,90
1,35,0,102
1,35,105,92
1,35,0,102
1,35,102,88
1,35,0,88
1,35,103,104
1,35,0,102
1,35,94,90
1,35,0,78
1,35,106,114
1,35,0,102
1,35,96,90
1,35,0,76
1,35,108,116
1,35,0,98
1,35,98,94
1,35,0,78
1,35,105,112
1,35,0,102
1,35,99,90
1,35,0,90
1,35,106,104
1,35,0,90
1,35,102,102
1,35,0,102
1,35,106,94
1,35,0,90
1,35,97,104
1,35,0,90
1,35,105,102
1,35,0,90
1,35,99,100
1,35,0,76
1,35,106,116
1,35,0,90
1,35,102,98
1,35,0,86
1,33,114,106
1,33,0,88
1,33,92,104
1,33,0,80
1,33,113,112
1,33,0,90
1,33,97,102
1,33,0,90
1,33,109,106
1,33,0,90
1,33,99,102
1,33,0,88
1,33,103,104
1,33,0,100
1,33,103,88
1,33,0,114
1,28,109,82
1,28,0,114
1,28,91,74
1,28,0,100
1,28,109,96
1,28,0,112
1,28,95,80
1,28,0,102
1,28,99,90
1,28,0,100
1,28,93,92
1,28,0,100
1,28,103,92
1,28,0,110
1,28,103,82
1,28,0,136
1,35,106,56
1,35,0,88
1,35,94,100
1,35,0,90
1,35,106,102
1,35,0,102
1,35,95,92
1,35,0,76
1,35,105,114
1,35,0,104
1,35,99,88
1,35,0,88
1,35,105,104
1,35,0,100
1,35,99,96
1,35,0,88
1,35,101,104
1,35,0,102
1,35,96,90
1,35,0,88
1,35,102,104
1,35,0,90
1,35,99,104
1,35,0,88
1,35,102,102
1,35,0,88
1,35,98,104
1,35,0,78
1,35,105,114
1,35,0,100
1,35,101,88
1,35,0,88
1,33,106,104
1,33,0,100
1,33,91,92
1,33,0,78
1,33,99,114
1,33,0,88
1,33,93,104
1,33,0,100
1,33,103,96
1,33,0,114
1,33,92,78
1,33,0,100
1,33,101,92
1,33,0,90
1,33,102,102
1,33,0,100
1,28,108,92
1,28,0,122
1,28,91,70
1,28,0,100
1,28,101,92
1,28,0,102
1,28,96,90
1,28,0,102
1,28,105,90
1,28,0,102
1,28,98,90
1,28,0,102
1,28,106,86
1,28,0,102
1,28,108,90
1,28,0,148
1,35,108,44
1,35,0,100
1,35,91,90
1,35,0,102
1,35,105,96
1,35,0,88
1,35,101,104
1,35,0,76
1,35,105,112
1,35,0,90
1,35,97,102
1,35,0,76
1,35,108,120
1,35,0,88
1,35,106,104
1,35,0,88
1,35,105,106
1,35,0,90
1,35,103,100
1,35,0,86
1,35,106,108
1,35,0,90
1,35,103,98
1,35,0,90
1,35,106,104
1,35,0,90
1,35,105,100
1,35,0,88
1,35,106,102
1,35,0,102
1,35,109,94
1,35,0,88
1,33,106,100
1,33,0,100
1,33,99,92
1,33,0,90
1,33,113,102
1,33,0,100
1,33,99,96
1,33,0,88
1,33,111,104
1,33,0,100
1,33,101,92
1,33,0,88
1,33,111,104
1,33,0,110
1,33,103,84
1,33,0,88
1,33,106,102
1,33,0,90
1,33,102,104
1,33,0,88
1,33,109,102
1,33,0,90
1,33,101,102
1,33,0,76
1,33,111,118
1,33,0,88
1,33,105,102
1,33,0,90
1,33,113,104
1,33,0,88
1,33,105,102
1,33,0,110
1,35,109,82
1,35,0,88
1,35,99,104
1,35,0,76
1,35,105,118
1,35,0,102
1,35,101,90
1,35,0,78
1,35,106,114
1,35,0,100
1,35,96,90
1,35,0,76
1,35,111,116
1,35,0,100
1,35,106,92
1,35,0,88
1,35,113,106
1,35,0,90
1,35,108,100
1,35,0,76
1,35,111,112
1,35,0,100
1,35,106,92
1,35,0,90
1,35,114,104
1,35,0,102
1,35,108,88
1,35,0,102
1,35,108,90
1,35,0,114
1,35,101,80
1,35,0,160
1,33,114,30
1,33,0,116
1,33,92,80
1,33,0,100
1,33,103,92
1,33,0,100
1,33,94,88
1,33,0,90
1,33,103,102
1,33,0,100
1,33,92,92
1,33,0,98
1,33,103,98
1,33,0,102
1,33,105,90
1,33,0,122
1,28,114,70
1,28,0,122
1,28,101,72
1,28,0,100
1,28,108,90
1,28,0,112
1,28,106,82
1,28,0,100
1,28,111,92
1,28,0,100
1,28,108,92
1,28,0,100
1,28,111,90
1,28,0,90
1,28,109,100
1,28,0,146
1,35,114,44
1,35,0,114
1,35,99,82
1,35,0,86
1,35,114,106
1,35,0,102
1,35,95,90
1,35,0,76
1,35,111,116
1,35,0,90
1,35,108,102
1,35,0,102
1,35,108,90
1,35,0,88
1,35,103,104
1,35,0,90
1,35,114,102
1,35,0,100
1,35,101,92
1,35,0,76
1,35,114,112
1,35,0,90
1,35,108,106
1,35,0,102
1,35,108,90
1,35,0,100
1,35,99,88
1,35,0,100
1,35,108,92
1,35,0,100
1,35,108,92
1,40,114,192
1,35,0,10
1,40,0,104
1,40,105,78
1,40,0,88
1,40,114,108
1,40,0,102
1,40,105,86
1,40,0,90
1,40,113,106
1,40,0,102
1,40,108,86
1,40,0,112
1,40,113,84
1,40,0,88
1,40,108,102
1,40,0,158
1,38,108,36
1,38,0,100
1,38,102,90
1,38,0,100
1,38,114,94
1,38,0,102
1,38,106,88
1,38,0,78
1,38,114,116
1,38,0,88
1,38,113,104
1,38,0,88
1,38,114,100
1,38,0,100
1,38,109,96
1,38,0,172
1,35,106,16
1,35,0,112
1,35,93,80
1,35,0,90
1,35,114,106
1,35,0,90
1,35,96,98
1,35,0,66
1,35,101,126
1,35,0,88
1,35,109,104
1,35,0,102
1,35,99,90
1,35,0,100
1,35,97,96
1,35,0,74
1,35,114,118
1,35,0,100
1,35,89,94
1,35,0,74
1,35,103,116
1,35,0,90
