track,note,velocity,time
0,42,120,18
0,42,0,14
0,42,120,20
0,42,0,13
0,42,120,35
0,42,0,4
0,42,120,36
0,42,0,12
0,36,127,11
0,57,127,0
0,36,0,2
0,28,127,0
0,42,127,0
0,42,0,0
0,28,0,10
0,42,101,10
0,42,0,0
0,28,127,0
0,28,0,14
0,42,127,10
0,38,107,0
0,28,127,0
0,38,0,1
0,42,0,0
0,44,94,0
0,44,0,0
0,28,0,15
0,28,127,7
0,42,99,0
0,42,0,1
0,57,0,9
0,28,0,6
0,42,127,9
0,42,0,0
0,28,126,0
0,36,127,0
0,36,0,0
0,28,0,14
0,42,100,10
0,42,0,0
0,28,127,0
0,28,0,14
0,42,127,10
0,28,127,0
0,38,112,0
0,38,0,1
0,42,0,0
0,44,96,0
0,44,0,0
0,28,0,13
0,42,98,10
0,28,127,0
0,42,0,1
0,28,0,11
0,42,127,12
0,36,127,0
0,36,0,0
0,28,127,0
0,42,0,1
0,28,0,15
0,42,98,8
0,28,127,0
0,42,0,1
0,28,0,14
0,38,109,2
0,38,0,1
0,28,127,0
0,42,127,0
0,42,0,0
0,44,93,0
0,44,0,1
0,28,0,14
0,28,127,8
0,42,97,0
0,42,0,0
0,28,0,14
0,36,127,10
0,36,0,0
0,28,127,0
0,42,127,0
0,42,0,0
0,28,0,14
0,42,100,10
0,28,126,0
0,42,0,1
0,28,0,11
0,28,127,12
0,44,98,0
0,38,111,0
0,38,0,0
0,42,127,0
0,42,0,0
0,44,0,1
0,28,0,12
0,38,112,11
0,38,0,0
0,42,98,0
0,42,0,0
0,44,95,0
0,28,126,0
0,44,0,1
0,28,0,11
0,43,97,0
0,43,0,0
0,36,127,12
0,36,0,1
0,28,126,0
0,42,127,0
0,42,0,0
0,28,0,12
0,28,127,11
0,42,96,0
0,42,0,1
0,28,0,11
0,44,107,12
0,28,127,0
0,42,127,0
0,42,0,0
0,38,118,0
0,38,0,0
0,44,0,1
0,28,0,12
0,28,127,11
0,42,99,0
0,42,0,0
0,28,0,11
0,36,127,13
0,36,0,1
0,42,127,0
0,42,0,0
0,28,126,0
0,28,0,11
0,28,126,12
0,42,96,0
0,42,0,0
0,28,0,12
0,38,110,12
0,38,0,1
0,42,127,0
0,42,0,0
0,44,94,0
0,28,126,0
0,44,0,1
0,28,0,10
0,42,99,12
0,28,127,0
0,42,0,1
0,28,0,11
0,28,126,12
0,42,127,0
0,42,0,0
0,36,127,0
0,36,0,0
0,28,0,12
0,28,127,13
0,42,97,0
0,42,0,1
0,28,0,11
0,28,126,11
0,38,109,0
0,38,0,0
0,42,127,0
0,42,0,1
0,44,98,0
0,44,0,1
0,28,0,10
0,42,98,2
0,42,0,1
0,28,127,0
0,28,0,12
0,36,127,11
0,42,127,0
0,28,127,0
0,42,0,1
0,36,0,0
0,28,0,13
0,42,97,10
0,38,108,0
0,28,127,0
0,38,0,1
0,42,0,0
0,44,93,0
0,44,0,0
0,28,0,11
0,42,127,12
0,28,127,0
0,38,110,0
0,38,0,0
0,42,0,1
0,44,95,0
0,44,0,1
0,28,0,12
0,44,93,10
0,46,108,0
0,38,107,0
0,28,127,0
0,38,0,1
0,44,0,0
0,46,0,0
0,28,0,12
0,36,127,11
0,36,0,1
0,28,127,0
0,42,127,0
0,42,0,0
0,28,0,11
0,28,127,12
0,42,98,0
0,42,0,0
0,28,0,13
0,42,127,11
0,42,0,0
0,28,127,0
0,38,107,0
0,38,0,0
0,44,95,0
0,44,0,1
0,28,0,12
0,42,100,11
0,42,0,0
0,28,127,0
0,28,0,12
0,28,127,12
0,36,127,0
0,36,0,0
0,42,127,0
0,42,0,0
0,28,0,12
0,28,127,12
0,42,96,0
0,42,0,1
0,28,0,11
0,42,127,12
0,42,0,0
0,38,109,0
0,38,0,0
0,28,127,0
0,44,94,0
0,44,0,1
0,28,0,12
0,42,101,11
0,42,0,1
0,28,127,0
0,28,0,13
0,28,127,10
0,36,127,0
0,42,127,0
0,42,0,1
0,36,0,0
0,28,0,13
0,42,101,3
0,42,0,0
0,28,127,0
0,28,0,14
0,42,127,10
0,28,127,0
0,38,121,0
0,38,0,1
0,42,0,0
0,44,107,0
0,44,0,0
0,28,0,12
0,42,99,6
0,42,0,0
0,28,127,0
0,28,0,12
0,36,127,12
0,36,0,0
0,42,127,0
0,42,0,0
0,28,127,0
0,28,0,13
0,42,101,11
0,42,0,1
0,28,127,0
0,28,0,12
0,38,111,11
0,28,127,0
0,42,127,0
0,42,0,1
0,38,0,0
0,44,94,0
0,44,0,0
0,28,0,11
0,38,110,12
0,28,127,0
0,42,100,0
0,42,0,1
0,38,0,0
0,44,93,0
0,44,0,0
0,28,0,11
0,36,127,12
0,36,0,1
0,42,127,0
0,42,0,0
0,28,126,0
0,28,0,11
0,42,96,12
0,28,127,0
0,42,0,1
0,28,0,10
0,42,127,13
0,42,0,0
0,28,127,0
0,44,94,0
0,38,111,0
0,38,0,0
0,44,0,1
0,28,0,11
0,42,97,12
0,28,127,0
0,42,0,1
0,28,0,10
0,36,127,13
0,36,0,0
0,28,127,0
0,42,127,0
0,42,0,1
0,28,0,10
0,28,126,13
0,42,101,0
0,42,0,1
0,28,0,10
0,44,98,13
0,38,111,0
0,38,0,0
0,42,127,0
0,42,0,0
0,28,126,0
0,44,0,1
0,28,0,11
0,42,99,12
0,42,0,0
0,28,126,0
0,28,0,12
0,42,127,12
0,42,0,0
0,36,127,0
0,36,0,0
0,40,127,0
0,28,127,0
0,28,0,4
0,44,95,10
0,38,111,0
0,38,0,0
0,28,127,0
0,42,98,0
0,42,0,0
0,44,0,1
0,28,0,3
0,49,127,2
0,42,127,0
0,42,0,1
0,40,0,0
0,28,127,0
0,28,0,2
0,28,126,4
0,42,96,0
0,42,0,0
0,28,0,8
0,42,127,2
0,38,111,0
0,36,127,0
0,28,127,0
0,36,0,1
0,38,0,0
0,42,0,0
0,44,95,0
0,44,0,0
0,28,0,4
0,42,101,1
0,42,0,0
0,28,127,0
0,38,112,0
0,38,0,0
0,44,98,0
0,44,0,1
0,28,0,1
0,42,127,3
0,42,0,0
0,44,93,0
0,38,111,0
0,38,0,0
0,28,127,0
0,44,0,1
0,49,0,2
0,28,0,1
0,38,110,10
0,38,0,1
0,46,107,0
0,46,0,0
0,66,124,0
0,76,126,0
0,49,97,0
0,28,127,0
0,80,127,0
0,83,118,0
0,49,0,1
0,44,93,0
0,44,0,0
0,66,0,9
0,28,0,4
0,42,127,1
0,40,127,0
0,36,127,0
0,28,127,0
0,36,0,1
0,42,0,0
0,40,0,4
0,28,0,7
0,40,101,10
0,42,100,0
0,42,0,1
0,28,127,0
0,68,119,0
0,40,0,3
0,28,0,8
0,68,0,0
0,83,0,2
0,80,0,0
0,76,0,0
0,40,109,7
0,42,127,0
0,28,127,0
0,38,120,0
0,38,0,1
0,42,0,0
0,44,105,0
0,44,0,1
0,66,119,2
0,40,0,3
0,66,0,7
0,28,0,0
0,40,120,0
0,42,96,0
0,42,0,0
0,28,126,0
0,40,0,8
0,28,0,6
0,36,127,10
0,40,117,0
0,42,127,0
0,28,127,0
0,42,0,1
0,36,0,0
0,68,124,0
0,40,0,6
0,68,0,6
0,28,0,1
0,42,98,10
0,28,127,0
0,40,121,0
0,42,0,1
0,40,0,6
0,28,0,6
0,44,97,11
0,38,107,0
0,38,0,0
0,42,127,0
0,42,0,0
0,28,127,0
0,40,127,0
0,44,0,1
0,66,124,0
0,40,0,6
0,66,0,5
0,28,0,0
0,40,117,12
0,42,99,0
0,42,0,1
0,28,127,0
0,40,0,6
0,28,0,5
0,68,119,0
0,28,127,0
0,36,127,0
0,40,127,0
0,42,127,0
0,42,0,1
0,36,0,0
0,40,0,6
0,68,0,4
0,28,0,2
0,40,119,11
0,42,100,0
0,42,0,0
0,28,127,0
0,66,119,3
0,40,0,4
0,28,0,5
0,66,0,2
0,44,96,10
0,38,107,0
0,38,0,0
0,40,127,0
0,28,127,0
0,42,127,0
0,42,0,0
0,44,0,1
0,40,0,7
0,28,0,3
0,28,126,13
0,42,100,0
0,40,127,0
0,42,0,1
0,68,119,0
0,40,0,4
0,28,0,4
0,68,0,2
0,40,119,11
0,36,127,0
0,36,0,1
0,42,127,0
0,42,0,0
0,28,126,0
0,40,0,6
0,28,0,5
0,28,127,12
0,42,96,0
0,42,0,0
0,40,127,0
0,66,124,4
0,40,0,4
0,28,0,3
0,66,0,1
0,38,109,12
0,42,127,0
0,40,127,0
0,28,127,0
0,42,0,1
0,38,0,0
0,44,98,0
0,44,0,0
0,40,0,6
0,28,0,4
0,42,97,13
0,28,127,0
0,38,107,0
0,38,0,1
0,42,0,0
0,44,94,0
0,44,0,0
0,28,0,10
0,40,127,1
0,47,99,0
0,56,127,5
0,76,117,0
0,42,127,0
0,28,126,0
0,52,127,0
0,59,90,0
0,36,127,0
0,36,0,1
0,42,0,0
0,83,95,0
0,80,104,0
0,28,0,11
0,42,96,11
0,42,0,0
0,28,127,0
0,47,0,10
0,39,70,2
0,39,0,0
0,28,0,1
0,59,0,0
0,40,0,0
0,56,0,3
0,52,0,1
0,38,110,7
0,42,127,0
0,28,127,0
0,42,0,1
0,38,0,0
0,44,93,0
0,44,0,0
0,76,0,2
0,83,0,2
0,80,0,2
0,28,0,5
0,42,97,12
0,28,127,0
0,42,0,1
0,28,0,10
0,42,127,13
0,42,0,0
0,28,127,0
0,36,127,0
0,36,0,0
0,28,0,14
0,52,80,8
0,76,85,0
0,83,94,0
0,45,117,0
0,28,127,0
0,42,96,0
0,80,94,0
0,42,0,1
0,28,0,12
0,83,0,3
0,76,0,0
0,80,0,4
0,45,0,1
0,52,0,0
0,57,127,2
0,61,127,0
0,28,127,0
0,52,127,0
0,45,123,0
0,85,117,0
0,38,118,0
0,38,0,0
0,42,127,0
0,42,0,0
0,76,107,0
0,81,106,0
0,44,102,1
0,44,0,1
0,28,0,10
0,45,0,6
0,52,0,1
0,57,0,2
0,61,0,0
0,42,97,2
0,42,0,1
0,28,127,0
0,28,0,12
0,81,0,2
0,85,0,1
0,76,0,2
0,59,118,4
0,52,127,0
0,47,127,0
0,56,127,0
0,36,127,0
0,36,0,1
0,83,127,0
0,28,127,0
0,42,127,0
0,42,0,0
0,76,125,0
0,80,127,0
0,28,0,5
0,42,98,11
0,28,126,0
0,42,0,1
0,28,0,12
0,52,0,6
0,59,0,0
0,56,0,3
0,47,0,1
0,28,127,1
0,40,127,0
0,38,108,0
0,42,127,0
0,42,0,1
0,38,0,0
0,44,98,0
0,44,0,0
0,80,0,1
0,76,0,0
0,83,0,0
0,40,0,5
0,28,0,6
0,40,117,11
0,38,107,0
0,28,127,0
0,42,98,0
0,42,0,1
0,38,0,0
0,44,93,0
0,44,0,0
0,40,0,6
0,28,0,7
0,36,127,10
0,36,0,0
0,28,127,0
0,40,127,0
0,42,127,0
0,42,0,0
0,40,0,8
0,28,0,5
0,42,96,11
0,40,126,0
0,28,127,0
0,42,0,1
0,40,0,6
0,28,0,3
0,28,127,14
0,40,127,0
0,38,108,0
0,38,0,0
0,44,93,0
0,42,127,0
0,42,0,0
0,44,0,1
0,40,0,7
0,28,0,2
0,40,119,14
0,38,107,0
0,38,0,1
0,83,115,0
0,76,127,0
0,28,127,0
0,44,98,0
0,80,127,0
0,46,107,0
0,66,119,0
0,46,0,1
0,44,0,0
0,40,0,4
0,66,0,4
0,28,0,0
0,40,122,8
0,36,127,0
0,42,127,0
0,68,114,0
0,28,127,0
0,42,0,1
0,36,0,0
0,40,0,4
0,28,0,3
0,68,0,1
0,42,97,13
0,28,127,0
0,40,118,0
0,42,0,1
0,66,114,0
0,40,0,6
0,28,0,3
0,66,0,1
0,80,0,6
0,83,0,0
0,76,0,1
0,28,127,6
0,40,121,0
0,42,127,0
0,42,0,0
0,38,117,0
0,38,0,0
0,44,104,0
0,44,0,1
0,68,119,0
0,40,0,6
0,28,0,3
0,68,0,2
0,42,97,11
0,28,126,0
0,40,121,0
0,42,0,1
0,40,0,6
0,28,0,5
0,66,114,0
0,40,127,1
0,42,127,0
0,28,126,0
0,36,127,0
0,36,0,1
0,42,0,0
0,40,0,6
0,66,0,2
0,28,0,4
0,68,119,10
0,42,98,1
0,42,0,0
0,28,127,0
0,40,127,0
0,40,0,8
0,68,0,2
0,28,0,4
0,38,107,0
0,28,127,0
0,42,127,0
0,40,127,0
0,66,119,0
0,42,0,1
0,38,0,0
0,44,95,0
0,44,0,0
0,40,0,6
0,66,0,5
0,28,0,2
0,42,100,10
0,28,127,0
0,40,127,0
0,42,0,1
0,40,0,6
0,28,0,7
0,68,119,9
0,42,127,1
0,28,127,0
0,36,127,0
0,40,127,0
0,36,0,1
0,42,0,0
0,40,0,5
0,68,0,4
0,28,0,4
0,42,101,10
0,28,127,0
0,40,126,0
0,42,0,1
0,66,119,0
0,40,0,6
0,66,0,6
0,28,0,1
0,40,127,0
0,38,109,0
0,38,0,1
0,42,127,0
0,42,0,0
0,44,96,0
0,28,127,0
0,44,0,1
0,40,0,5
0,28,0,6
0,40,121,11
0,28,127,0
0,68,119,0
0,42,98,0
0,42,0,1
0,40,0,6
0,68,0,4
0,28,0,2
0,36,127,11
0,40,127,0
0,28,126,0
0,42,127,0
0,42,0,1
0,36,0,0
0,40,0,6
0,28,0,6
0,28,127,11
0,42,99,0
0,40,127,0
0,42,0,1
0,66,124,0
0,40,0,6
0,66,0,4
0,28,0,2
0,28,127,11
0,40,126,0
0,42,127,0
0,38,107,0
0,38,0,1
0,42,0,0
0,44,96,0
0,44,0,0
0,40,0,6
0,28,0,7
0,38,110,10
0,40,127,0
0,38,0,1
0,44,93,0
0,42,99,0
0,42,0,0
0,28,127,0
0,44,0,1
0,40,0,5
0,28,0,5
0,76,113,11
0,52,127,0
0,56,127,0
0,42,127,0
0,42,0,0
0,47,108,0
0,80,104,0
0,83,97,0
0,59,127,0
0,28,126,0
0,36,127,0
0,36,0,0
0,40,127,0
0,28,0,11
0,42,101,11
0,42,0,1
0,28,127,0
0,28,0,11
0,59,0,3
0,40,0,4
0,52,0,0
0,47,0,1
0,56,0,0
0,38,108,4
0,38,0,1
0,42,127,0
0,42,0,0
0,28,127,0
0,44,98,0
0,44,0,1
0,76,0,1
0,83,0,2
0,80,0,1
0,28,0,6
0,28,127,12
0,42,99,0
0,42,0,1
0,28,0,13
0,36,127,10
0,36,0,0
0,42,127,0
0,28,127,0
0,42,0,1
0,28,0,13
0,52,127,10
0,42,99,0
0,76,86,0
0,56,127,0
0,28,127,0
0,40,105,0
0,83,94,0
0,80,94,0
0,47,100,0
0,59,127,0
0,42,0,1
0,52,0,8
0,56,0,1
0,47,0,3
0,28,0,0
0,76,0,2
0,83,0,0
0,40,0,2
0,80,0,1
0,59,0,1
0,57,127,4
0,42,127,0
0,81,106,0
0,38,111,0
0,52,127,0
0,28,127,0
0,61,113,0
0,76,105,0
0,38,0,1
0,42,0,0
0,44,98,0
0,44,0,0
0,85,116,0
0,28,0,9
0,52,0,10
0,61,0,1
0,28,127,1
0,42,97,0
0,42,0,1
0,57,0,1
0,28,0,10
0,81,0,2
0,85,0,2
0,76,0,4
0,40,127,4
0,59,127,0
0,64,127,0
0,52,127,0
0,36,127,0
0,47,124,0
0,56,127,0
0,28,126,0
0,76,127,0
0,42,127,0
0,42,0,1
0,36,0,0
0,80,127,0
0,83,127,0
0,64,0,3
0,28,0,6
0,42,97,11
0,42,0,0
0,28,127,0
0,56,0,10
0,52,0,1
0,59,0,0
0,28,0,2
0,47,0,1
0,40,0,2
0,50,127,8
0,28,127,0
0,38,109,0
0,42,127,0
0,42,0,1
0,38,0,0
0,44,95,0
0,44,0,0
0,80,0,1
0,83,0,0
0,76,0,0
0,28,0,11
0,50,0,10
0,28,127,1
0,42,98,0
0,50,127,0
0,42,0,1
0,28,0,6
0,50,0,8
0,36,127,3
0,36,0,0
0,52,127,0
0,42,127,0
0,42,0,0
0,28,127,0
0,28,0,5
0,42,99,11
