track,note,velocity,time
0,69,77,864
0,74,77,0
0,47,95,0
0,47,96,0
0,69,75,88
0,74,72,0
0,69,72,88
0,74,72,0
0,69,77,88
0,74,77,0
0,54,94,0
0,54,83,0
0,69,72,88
0,74,72,0
0,69,73,88
0,74,69,0
0,69,76,88
0,74,73,0
0,57,89,0
0,57,86,0
0,69,71,20
0,74,70,0
0,59,89,0
0,59,71,0
0,69,76,36
0,74,73,0
0,47,94,0
0,47,96,0
0,69,71,88
0,74,66,0
0,69,69,88
0,74,69,0
0,69,77,88
0,74,72,0
0,54,94,0
0,54,83,0
0,69,73,88
0,74,72,0
0,69,72,88
0,74,69,0
0,69,77,88
0,74,75,0
0,57,88,0
0,57,86,0
0,69,72,20
0,74,72,0
0,59,88,0
0,59,71,0
0,69,80,36
0,74,75,0
0,47,93,0
0,47,96,0
0,69,71,88
0,74,69,0
0,69,69,88
0,74,69,0
0,69,75,88
0,74,75,0
0,54,93,0
0,54,83,0
0,69,61,88
0,74,61,0
0,69,72,88
0,74,72,0
0,69,72,88
0,74,72,0
0,57,88,0
0,57,86,0
0,69,72,20
0,74,70,0
0,59,88,0
0,59,71,0
0,69,79,36
0,74,77,0
0,47,93,0
0,47,96,0
0,69,71,88
0,74,69,0
0,69,69,88
0,74,69,0
0,69,76,88
0,74,73,0
0,54,92,0
0,54,83,0
0,69,64,88
0,74,64,0
0,69,69,88
0,74,69,0
0,69,77,88
0,74,76,0
0,57,87,0
0,57,86,0
0,38,111,0
0,43,95,0
0,69,66,20
0,74,66,0
0,59,87,0
0,59,71,0
0,38,117,0
0,43,79,0
0,31,112,36
0,69,81,0
0,74,81,0
0,78,102,0
0,90,112,0
0,36,119,0
0,49,91,0
0,31,99,24
0,69,76,0
0,74,76,0
0,76,72,0
0,88,82,0
0,42,80,0
0,31,103,12
0,78,67,0
0,90,77,0
0,38,120,0
0,42,100,0
0,31,103,24
0,69,65,0
0,74,65,0
0,83,87,0
0,95,97,0
0,42,86,0
0,31,103,24
0,78,67,0
0,90,77,0
0,36,120,0
0,42,97,0
0,31,103,24
0,69,55,0
0,74,55,0
0,74,83,0
0,86,93,0
0,42,79,0
0,50,93,24
0,57,84,0
0,62,97,0
0,31,103,0
0,78,83,0
0,90,93,0
0,38,121,0
0,42,95,0
0,52,87,0
0,57,84,0
0,64,97,0
0,31,105,0
0,69,45,0
0,74,45,0
0,83,87,0
0,95,97,0
0,42,85,0
0,30,112,0
0,78,71,0
0,90,81,0
0,36,119,0
0,42,100,0
0,30,95,24
0,69,35,0
0,74,35,0
0,73,79,0
0,85,89,0
0,42,80,0
0,30,99,24
0,78,67,0
0,90,77,0
0,38,120,0
0,42,100,0
0,30,101,24
0,69,25,0
0,74,25,0
0,81,83,0
0,93,93,0
0,42,86,0
0,30,99,4
0,78,57,0
0,90,67,0
0,36,120,0
0,42,97,0
0,40,96,16
0,47,106,0
0,52,101,0
0,30,101,8
0,73,57,0
0,85,67,0
0,42,79,0
0,43,101,0
0,30,105,24
0,78,67,0
0,90,77,0
0,38,121,0
0,42,95,0
0,40,92,16
0,47,101,0
0,52,106,0
0,30,105,8
0,81,79,0
0,93,89,0
0,42,85,0
0,43,107,0
0,28,110,8
0,78,71,0
0,90,81,0
0,36,119,0
0,42,100,0
0,28,105,24
0,76,60,0
0,88,70,0
0,42,80,0
0,28,103,24
0,78,75,0
0,90,85,0
0,38,120,0
0,42,100,0
0,28,103,24
0,83,83,0
0,95,93,0
0,42,86,0
0,28,99,24
0,78,63,0
0,90,73,0
0,36,120,0
0,42,97,0
0,28,95,24
0,74,71,0
0,86,81,0
0,42,79,0
0,50,73,24
0,57,88,0
0,62,97,0
0,28,95,0
0,78,79,0
0,90,89,0
0,38,121,0
0,42,95,0
0,52,102,0
0,57,88,0
0,64,107,0
0,28,95,0
0,83,67,0
0,95,77,0
0,42,85,0
0,28,99,24
0,78,83,0
0,90,93,0
0,36,119,0
0,42,100,0
0,28,95,24
0,76,57,0
0,88,67,0
0,42,80,0
0,28,99,24
0,78,83,0
0,90,93,0
0,38,120,0
0,42,100,0
0,28,101,24
0,83,75,0
0,95,85,0
0,42,86,0
0,28,103,24
0,78,83,0
0,90,93,0
0,36,120,0
0,42,97,0
0,40,83,16
0,47,96,0
0,52,106,0
0,28,97,8
0,74,83,0
0,86,93,0
0,42,79,0
0,43,101,0
0,28,103,24
0,78,79,0
0,90,89,0
0,38,121,0
0,42,95,0
0,40,87,16
0,47,101,0
0,52,101,0
0,30,106,8
0,83,75,0
0,95,85,0
0,42,85,0
0,43,107,0
0,31,112,12
0,78,102,0
0,90,112,0
0,36,119,0
0,42,100,0
0,31,99,24
0,76,72,0
0,88,82,0
0,42,80,0
0,31,103,24
0,78,67,0
0,90,77,0
0,38,120,0
0,42,100,0
0,31,103,24
0,83,87,0
0,95,97,0
0,42,86,0
0,31,103,24
0,78,67,0
0,90,77,0
0,36,120,0
0,42,97,0
0,31,103,24
0,74,83,0
0,86,93,0
0,42,79,0
0,50,93,24
0,57,84,0
0,62,97,0
0,31,103,0
0,78,83,0
0,90,93,0
0,38,121,0
0,42,95,0
0,52,87,0
0,57,84,0
0,64,97,0
0,31,105,0
0,83,87,0
0,95,97,0
0,42,85,0
0,30,112,0
0,78,71,0
0,90,81,0
0,36,119,0
0,42,100,0
0,30,95,24
0,73,79,0
0,85,89,0
0,42,80,0
0,30,99,24
0,78,67,0
0,90,77,0
0,38,120,0
0,42,100,0
0,30,101,24
0,81,83,0
0,93,93,0
0,42,86,0
0,30,99,24
0,78,57,0
0,90,67,0
0,36,120,0
0,42,97,0
0,52,101,16
0,59,101,0
0,66,86,0
0,30,101,8
0,73,57,0
0,85,67,0
0,42,79,0
0,43,101,0
0,30,105,24
0,78,67,0
0,90,77,0
0,38,121,0
0,42,95,0
0,52,106,16
0,59,92,0
0,66,81,0
0,30,105,8
0,81,79,0
0,93,89,0
0,42,85,0
0,43,107,0
0,28,110,24
0,78,71,0
0,90,81,0
0,36,119,0
0,42,100,0
0,28,105,24
0,76,60,0
0,88,70,0
0,42,80,0
0,28,103,24
0,78,75,0
0,90,85,0
0,38,120,0
0,42,100,0
0,28,103,24
0,83,83,0
0,95,93,0
0,42,86,0
0,28,99,24
0,78,63,0
0,90,73,0
0,36,120,0
0,42,97,0
0,28,95,24
0,74,71,0
0,86,81,0
0,42,79,0
0,50,73,24
0,57,88,0
0,62,97,0
0,28,95,0
0,78,79,0
0,90,89,0
0,38,121,0
0,42,95,0
0,52,102,0
0,57,88,0
0,64,107,0
0,28,95,0
0,83,67,0
0,95,77,0
0,42,85,0
0,28,99,24
0,78,83,0
0,90,93,0
0,36,119,0
0,46,60,0
0,28,95,24
0,76,57,0
0,88,67,0
0,42,80,0
0,28,99,24
0,78,83,0
0,90,93,0
0,38,120,0
0,42,100,0
0,28,101,24
0,83,75,0
0,95,85,0
0,38,54,0
0,38,82,96
0,52,111,16
0,59,91,0
0,66,83,0
0,38,109,8
0,78,83,0
0,90,93,0
0,36,120,0
0,49,74,0
0,74,83,32
0,86,93,0
0,52,111,16
0,57,96,0
0,66,84,0
0,33,103,0
0,78,79,0
0,90,89,0
0,36,120,0
0,46,92,0
0,49,64,0
0,83,75,32
0,95,85,0
0,47,83,0
0,54,96,0
0,59,111,0
0,35,105,0
0,54,63,0
0,59,73,0
0,62,67,0
0,36,119,0
0,49,79,0
0,35,92,24
0,42,80,0
0,35,96,24
0,38,120,0
0,42,100,0
0,35,96,24
0,42,86,0
0,35,96,24
0,36,120,0
0,42,97,0
0,35,96,24
0,42,79,0
0,35,96,24
0,38,121,0
0,42,95,0
0,35,98,24
0,42,85,0
0,35,105,24
0,36,119,0
0,42,100,0
0,69,119,28
0,35,88,24
0,42,80,0
0,35,92,24
0,38,120,0
0,42,100,0
0,35,94,24
0,42,86,0
0,35,92,24
0,36,120,0
0,42,97,0
0,35,94,24
0,42,79,0
0,35,98,24
0,38,121,0
0,42,95,0
0,35,98,24
0,42,85,0
0,35,103,24
0,36,119,0
0,42,100,0
0,35,98,24
0,42,80,0
0,35,96,24
0,38,120,0
0,42,100,0
0,35,96,24
0,42,86,0
0,35,92,24
0,36,120,0
0,42,97,0
0,35,88,24
0,42,79,0
0,35,88,24
0,38,121,0
0,42,95,0
0,35,88,24
0,42,85,0
0,35,92,24
0,36,119,0
0,42,100,0
0,35,88,24
0,42,80,0
0,35,92,24
0,38,120,0
0,42,100,0
0,35,94,24
0,42,86,0
0,35,96,24
0,36,120,0
0,42,97,0
0,35,90,24
0,42,79,0
0,35,96,24
0,38,121,0
0,42,95,0
0,35,99,24
0,42,85,0
0,54,94,24
0,59,94,0
0,66,94,0
0,35,105,0
0,36,119,0
0,42,100,0
0,35,92,24
0,42,80,0
0,66,103,16
0,54,79,8
0,59,87,0
0,66,96,0
0,35,96,0
0,38,120,0
0,42,100,0
0,35,96,12
0,64,106,0
0,42,86,0
0,35,96,8
0,36,120,0
0,42,97,0
0,54,91,20
0,59,91,0
0,66,91,0
0,35,96,0
0,42,79,0
0,62,101,4
0,35,96,4
0,64,106,0
0,38,121,0
0,42,95,0
0,54,78,16
0,59,78,0
0,35,98,24
0,66,98,0
0,42,85,0
0,62,84,8
0,54,91,12
0,59,91,0
0,66,91,0
0,35,105,0
0,64,106,0
0,36,119,0
0,42,100,0
0,35,88,16
0,42,80,0
0,62,103,20
0,54,97,4
0,59,97,0
0,66,97,0
0,35,92,0
0,38,120,0
0,42,100,0
0,35,94,4
0,42,86,0
0,35,92,24
0,36,120,0
0,42,97,0
0,54,97,24
0,59,97,0
0,66,97,0
0,35,94,0
0,42,79,0
0,35,98,24
0,64,106,0
0,38,121,0
0,42,95,0
0,54,89,16
0,59,74,0
0,35,98,0
0,62,98,0
0,42,85,0
0,54,94,24
0,59,94,0
0,66,94,0
0,35,103,0
0,66,112,0
0,36,119,0
0,42,100,0
0,35,98,24
0,42,80,0
0,54,79,24
0,59,87,0
0,66,96,0
0,35,96,0
0,38,120,0
0,42,100,0
0,66,115,12
0,35,96,24
0,42,86,0
0,35,92,24
0,36,120,0
0,42,97,0
0,64,109,12
0,54,91,24
0,59,91,0
0,66,91,0
0,35,88,0
0,42,79,0
0,64,106,12
0,35,88,4
0,71,1,0
0,38,121,0
0,42,95,0
0,54,78,64
0,59,78,0
0,83,87,8
0,35,88,16
0,59,109,0
0,42,85,0
0,54,91,20
0,59,91,0
0,66,91,0
0,35,92,0
0,36,119,0
0,42,100,0
0,35,88,16
0,42,80,0
0,54,97,8
0,59,97,0
0,66,97,0
0,35,92,0
0,38,120,0
0,42,100,0
0,35,94,8
0,42,86,0
0,35,96,8
0,74,59,0
0,36,120,0
0,42,97,0
0,54,97,24
0,59,97,0
0,66,97,0
0,35,90,0
0,42,79,0
0,35,96,24
0,38,121,0
0,42,95,0
0,54,89,24
0,59,74,0
0,33,99,0
0,42,85,0
0,57,60,4
0,62,71,0
0,66,68,12
0,69,55,4
0,54,94,4
0,59,94,0
0,66,94,0
0,33,105,0
0,36,119,0
0,42,100,0
0,33,92,24
0,42,80,0
0,54,79,24
0,59,87,0
0,66,96,0
0,33,96,0
0,38,120,0
0,42,100,0
0,66,106,8
0,33,96,12
0,42,86,0
0,64,103,4
0,33,96,16
0,36,120,0
0,42,97,0
0,54,91,8
0,59,91,0
0,66,91,0
0,33,96,0
0,42,79,0
0,62,101,8
0,33,96,4
0,38,121,0
0,42,95,0
0,64,106,8
0,54,78,152
0,59,78,0
0,66,98,8
0,33,98,4
0,42,85,0
0,54,91,24
0,59,91,0
0,66,91,0
0,33,105,0
0,36,119,0
0,42,100,0
0,64,98,8
0,33,88,24
0,42,80,0
0,62,106,12
0,54,97,4
0,59,97,0
0,66,97,0
0,33,92,0
0,38,120,0
0,42,100,0
0,33,94,24
0,42,86,0
0,33,92,24
0,36,120,0
0,42,97,0
0,54,97,24
0,59,97,0
0,66,97,0
0,33,94,0
0,42,79,0
0,64,112,12
0,33,98,12
0,38,121,0
0,42,95,0
0,62,93,0
0,54,89,24
0,59,74,0
0,31,98,0
0,42,85,0
0,66,112,8
0,54,94,0
0,59,94,0
0,66,94,0
0,31,103,0
0,59,74,0
0,66,63,0
0,55,57,0
0,62,71,0
0,36,119,0
0,42,100,0
0,31,98,24
0,42,80,0
0,66,112,12
0,54,79,12
0,59,87,0
0,66,96,0
0,31,96,0
0,38,120,0
0,42,100,0
0,31,96,16
0,42,86,0
0,31,92,24
0,64,101,0
0,36,120,0
0,42,97,0
0,54,91,24
0,59,91,0
0,66,91,0
0,31,88,0
0,42,79,0
0,66,112,8
0,31,88,4
0,38,121,0
0,42,95,0
0,54,78,4
0,59,78,0
0,31,88,4
0,42,85,0
0,54,91,12
0,59,91,0
0,66,91,0
0,31,92,0
0,36,119,0
0,42,100,0
0,31,88,12
0,42,80,0
0,54,97,12
0,59,97,0
0,66,97,0
0,31,92,0
0,38,120,0
0,42,100,0
0,31,94,12
0,42,86,0
0,57,83,4
0,62,93,0
0,38,122,20
0,50,121,0
0,38,96,0
0,36,120,0
0,42,97,0
0,38,122,24
0,50,111,0
0,38,90,0
0,42,79,0
0,52,88,4
0,57,91,0
0,33,122,20
0,45,111,0
0,33,96,0
0,38,121,0
0,42,95,0
0,33,116,24
0,45,101,0
0,33,99,0
0,42,85,0
0,47,87,16
0,54,94,0
0,59,94,0
0,66,94,0
0,35,105,0
0,54,63,0
0,59,73,0
0,62,67,0
0,36,119,0
0,42,100,0
0,35,92,16
0,42,80,0
0,54,79,12
0,59,87,0
0,66,96,0
0,35,96,0
0,38,120,0
0,42,100,0
0,66,109,4
0,35,96,16
0,42,86,0
0,64,103,8
0,35,96,24
0,36,120,0
0,42,97,0
0,54,91,16
0,59,91,0
0,66,91,0
0,35,96,0
0,42,79,0
0,62,98,8
0,35,96,4
0,38,121,0
0,42,95,0
0,64,103,4
0,54,78,152
0,59,78,0
0,35,98,12
0,66,93,0
0,42,85,0
0,64,98,20
0,54,91,4
0,59,91,0
0,66,91,0
0,35,105,0
0,36,119,0
0,42,100,0
0,35,88,24
0,42,80,0
0,62,106,16
0,54,97,8
0,59,97,0
0,66,97,0
0,35,92,0
0,38,120,0
0,42,100,0
0,35,94,24
0,42,86,0
0,35,92,24
0,36,120,0
0,42,97,0
0,54,97,24
0,59,97,0
0,66,97,0
0,35,94,0
0,42,79,0
0,64,103,8
0,35,98,16
0,38,121,0
0,42,95,0
0,62,85,92
0,54,89,24
0,59,74,0
0,35,98,0
0,42,85,0
0,66,103,4
0,54,94,20
0,59,94,0
0,66,94,0
0,35,103,0
0,36,119,0
0,42,100,0
0,35,98,24
0,42,80,0
0,66,115,8
0,54,79,16
0,59,87,0
0,66,96,0
0,35,96,0
0,38,120,0
0,42,100,0
0,35,96,24
0,42,86,0
0,35,92,24
0,64,112,0
0,36,120,0
0,42,97,0
0,54,91,24
0,59,91,0
0,66,91,0
0,35,88,0
0,42,79,0
0,64,112,8
0,35,88,4
0,71,1,0
0,38,121,0
0,42,95,0
0,54,78,64
0,59,78,0
0,83,87,8
0,35,88,16
0,42,85,0
0,59,115,4
0,54,91,24
0,59,91,0
0,66,91,0
0,35,92,0
0,36,119,0
0,42,100,0
0,35,88,24
0,42,80,0
0,54,97,24
0,59,97,0
0,66,97,0
0,35,92,0
0,38,120,0
0,42,100,0
0,35,94,24
0,42,86,0
0,35,96,16
0,74,59,0
0,36,120,0
0,42,97,0
0,54,97,12
0,59,97,0
0,66,97,0
0,35,90,0
0,42,79,0
0,35,96,20
0,38,121,0
0,42,95,0
0,54,89,24
0,59,74,0
0,33,99,0
0,42,85,0
0,57,60,4
0,62,71,0
0,66,68,12
0,69,55,4
0,54,94,0
0,59,94,0
0,66,94,0
0,33,105,0
0,36,119,0
0,42,100,0
0,33,92,24
0,42,80,0
0,54,79,24
0,59,87,0
0,66,96,0
0,33,96,0
0,66,112,0
0,38,120,0
0,42,100,0
0,33,96,4
