track,note,velocity,time
1,66,40,2490
1,67,56,64
1,68,48,48
1,69,58,2
1,78,48,14
1,78,68,268
1,69,78,2
1,78,64,256
1,69,78,4
1,76,84,382
1,67,84,0
1,76,66,276
1,67,78,6
1,66,53,370
1,74,68,4
1,66,68,66
1,74,68,8
1,71,68,86
1,79,70,0
1,71,70,248
1,79,74,6
1,71,78,250
1,79,74,0
1,78,60,10
1,69,70,2
1,76,66,16
1,67,70,16
1,71,48,188
1,72,68,108
1,81,60,6
1,81,75,234
1,72,79,0
1,81,70,250
1,72,76,2
1,71,71,382
1,79,74,0
1,79,66,206
1,71,66,14
1,81,70,280
1,72,64,0
1,78,70,80
1,69,62,4
1,78,75,64
1,69,60,18
1,69,67,102
1,78,75,2
1,79,74,0
1,71,60,12
1,69,68,8
1,78,78,12
1,67,68,26
1,76,70,0
1,74,71,14
1,66,68,4
1,81,62,62
1,73,64,0
1,74,58,1702
1,66,32,6
1,69,54,2
1,74,52,296
1,69,48,0
1,66,14,0
1,69,60,300
1,66,32,4
1,74,54,2
1,69,60,288
1,66,30,0
1,74,60,2
1,69,52,286
1,74,46,8
1,66,12,0
1,66,16,292
1,69,56,4
1,74,50,4
1,66,18,298
1,69,48,2
1,74,48,0
1,66,20,302
1,69,62,6
1,74,56,0
1,73,56,28
1,73,52,282
1,69,52,0
1,66,25,0
1,66,38,286
1,69,42,2
1,73,46,18
1,69,48,256
1,66,14,4
1,73,47,4
1,69,52,272
1,66,20,0
1,73,40,14
1,66,28,274
1,69,62,4
1,73,38,10
1,66,18,276
1,69,52,12
1,73,30,8
1,66,26,294
1,69,58,4
1,73,60,0
1,69,48,44
1,64,40,12
1,72,54,4
1,69,66,264
1,72,62,0
1,64,52,0
1,64,60,284
1,69,60,6
1,72,49,4
1,72,52,282
1,64,50,0
1,69,52,6
1,71,66,278
1,66,46,4
1,63,42,0
1,66,26,276
1,63,30,4
1,71,52,6
1,66,46,268
1,63,30,0
1,71,50,18
1,63,32,270
1,66,30,8
1,71,62,2
1,64,54,260
1,71,58,4
1,67,52,6
1,67,66,276
1,64,50,0
1,71,52,6
1,64,46,290
1,67,62,0
1,71,54,2
1,71,52,296
1,64,44,0
1,67,60,0
1,67,52,310
1,64,40,2
1,71,40,2
1,67,56,294
1,64,46,0
1,71,48,6
1,67,50,292
1,71,36,4
1,64,38,0
1,64,52,296
1,67,68,2
1,71,56,2
1,62,48,278
1,70,52,2
1,67,66,6
1,70,52,298
1,62,44,0
1,67,58,10
1,70,42,308
1,62,46,0
1,67,56,6
1,70,48,296
1,62,36,6
1,67,52,6
1,70,60,302
1,62,48,4
1,67,60,4
1,67,62,290
1,70,46,0
1,62,42,0
1,70,56,310
1,62,52,0
1,67,65,0
1,70,60,290
1,62,50,0
1,67,62,4
1,74,50,268
1,69,60,2
1,66,32,4
1,74,54,284
1,66,22,8
1,69,58,0
1,69,44,286
1,74,51,2
1,66,40,6
1,74,58,280
1,66,40,2
1,69,58,10
1,75,54,368
1,71,66,2
1,66,26,290
1,75,51,0
1,71,56,6
1,66,32,286
1,75,45,0
1,71,51,2
1,75,48,272
1,71,44,2
1,66,32,0
1,69,50,246
1,66,44,2
1,59,60,0
1,69,56,288
1,66,56,4
1,59,40,4
1,69,50,266
1,66,52,6
1,59,42,4
1,69,56,288
1,66,56,2
1,59,46,4
1,68,42,272
1,59,48,0
1,64,52,2
1,68,40,276
1,64,58,0
1,59,46,4
1,68,42,274
1,64,58,6
1,59,52,4
1,68,48,272
1,64,40,4
1,59,45,0
1,64,50,252
1,62,46,14
1,69,56,4
1,64,54,288
1,69,58,0
1,62,48,0
1,62,44,284
1,69,60,2
1,64,50,0
1,64,66,262
1,62,37,6
1,69,56,2
1,61,43,252
1,69,66,2
1,64,58,4
1,64,50,246
1,73,56,14
1,74,60,390
1,66,56,4
1,67,50,328
1,76,70,4
1,74,58,14
1,66,32,2
1,69,54,2
1,74,52,316
1,69,48,0
1,66,14,0
1,69,60,300
1,66,32,4
1,74,54,2
1,69,60,288
1,66,30,0
1,74,60,2
1,69,52,286
1,74,46,8
1,66,12,0
1,66,16,292
1,69,56,4
1,74,50,4
1,66,18,298
1,69,48,2
1,74,48,0
1,66,20,302
1,69,62,6
1,74,56,0
1,73,56,28
1,73,52,282
1,69,52,0
1,66,25,0
1,66,38,286
1,69,42,2
1,73,46,18
1,69,48,256
1,66,14,4
1,73,47,4
1,69,52,272
1,66,20,0
1,73,40,14
1,66,28,274
1,69,62,4
1,73,38,10
1,66,18,276
1,69,52,12
1,73,30,8
1,66,26,294
1,69,58,4
1,73,60,0
1,69,48,44
1,64,40,12
1,72,54,4
1,69,66,264
1,72,62,0
1,64,52,0
1,64,60,284
1,69,60,6
1,72,49,4
1,72,52,282
1,64,50,0
1,69,52,6
1,71,66,278
1,66,46,4
1,63,42,0
1,66,26,276
1,63,30,4
1,71,52,6
1,66,46,268
1,63,30,0
1,71,50,18
1,63,32,270
1,66,30,8
1,71,62,2
1,64,54,260
1,71,58,4
1,67,52,6
1,67,66,276
1,64,50,0
1,71,52,6
1,64,46,290
1,67,62,0
1,71,54,2
1,71,52,296
1,64,44,0
1,67,60,0
1,67,52,310
1,64,40,2
1,71,40,2
1,67,56,294
1,64,46,0
1,71,48,6
1,67,50,292
1,71,36,4
1,64,38,0
1,64,52,296
1,67,68,2
1,71,56,2
1,62,48,278
1,70,52,2
1,67,66,6
1,70,52,298
1,62,44,0
1,67,58,10
1,70,42,308
1,62,46,0
1,67,56,6
1,70,48,296
1,62,36,6
1,67,52,6
1,70,60,302
1,62,48,4
1,67,60,4
1,67,62,290
1,70,46,0
1,62,42,0
1,70,56,310
1,62,52,0
1,67,65,0
1,70,60,290
1,62,50,0
1,67,62,4
1,74,50,268
1,69,60,2
1,66,32,4
1,74,54,284
1,66,22,8
1,69,58,0
1,69,44,286
1,74,51,2
1,66,40,6
1,74,58,280
1,66,40,2
1,69,58,10
1,71,66,2
1,66,26,288
1,74,51,0
1,71,56,6
1,66,32,286
1,74,45,0
1,71,51,2
1,74,48,272
1,69,44,2
1,66,32,0
1,74,50,246
1,69,44,2
1,64,60,0
1,74,56,288
1,69,56,4
1,64,40,4
1,74,50,266
1,69,52,6
1,64,42,4
1,74,56,288
1,69,56,2
1,64,46,4
1,74,42,272
1,64,48,0
1,68,52,2
1,74,40,276
1,68,58,0
1,64,46,4
1,74,42,274
1,68,58,6
1,64,52,4
1,74,48,272
1,68,40,4
1,64,45,0
1,64,50,252
1,62,46,14
1,69,56,4
1,64,54,288
1,69,58,0
1,62,48,0
1,62,54,278
1,69,60,0
1,64,50,0
1,62,37,274
1,69,56,2
1,64,66,0
1,61,43,244
1,69,66,2
1,64,58,4
1,64,64,260
1,73,78,4
1,74,70,2
1,66,58,0
1,76,78,336
1,67,70,6
1,69,58,2
1,74,56,0
1,66,26,0
1,69,68,294
1,66,38,0
1,74,54,2
1,66,26,284
1,74,56,0
1,69,54,0
1,69,60,290
1,66,26,2
1,74,54,0
1,74,44,286
1,69,54,0
1,66,24,0
1,69,56,276
1,66,28,0
1,74,50,2
1,66,28,266
1,74,54,0
1,69,62,2
1,66,28,276
1,69,60,2
1,74,56,0
1,66,26,274
1,74,52,2
1,71,66,0
1,66,28,278
1,71,60,2
1,74,48,2
1,71,62,260
1,66,38,0
1,74,48,4
1,66,38,276
1,71,66,2
1,74,48,2
1,66,34,288
1,71,62,2
1,74,34,2
1,71,66,274
1,74,40,2
1,66,38,2
1,66,28,276
1,71,68,2
1,74,14,6
1,66,42,272
1,71,66,4
1,74,40,4
1,74,60,274
1,67,42,2
1,71,50,0
1,67,66,262
1,74,60,0
1,71,60,2
1,74,52,264
1,71,66,4
1,67,56,0
1,74,54,278
1,71,66,2
1,67,60,2
1,74,44,274
1,71,66,2
1,67,50,2
1,74,40,274
1,67,36,4
1,71,54,0
1,71,56,288
1,74,30,2
1,67,34,2
1,74,54,272
1,67,58,0
1,71,62,4
1,73,46,260
1,69,62,4
1,64,56,0
1,73,56,272
1,64,54,2
1,69,52,4
1,73,48,272
1,64,52,0
1,69,56,2
1,69,62,288
1,73,52,2
1,64,56,0
1,64,50,288
1,73,52,0
1,69,56,2
1,64,50,278
1,73,56,0
1,69,58,0
1,64,50,268
1,73,60,0
1,69,62,0
1,64,50,270
1,73,52,6
1,69,56,0
1,73,68,270
1,69,50,2
1,78,72,0
1,78,56,294
1,73,56,2
1,69,54,0
1,73,60,278
1,78,52,0
1,69,42,2
1,73,60,284
1,78,52,0
1,69,50,2
1,78,46,280
1,73,48,2
1,69,38,2
1,78,52,276
1,73,68,0
1,69,50,2
1,69,48,282
1,78,60,0
1,73,46,0
1,78,68,276
1,73,68,2
1,69,58,0
1,76,63,278
1,66,52,0
1,71,59,2
1,66,18,278
1,76,56,0
1,71,58,2
1,66,24,278
1,71,60,2
1,76,54,0
1,66,40,276
1,76,62,0
1,71,58,6
1,75,52,272
1,66,18,4
1,71,48,2
1,75,40,264
1,71,60,2
1,66,24,0
1,66,30,260
1,71,66,0
1,75,48,2
1,66,38,266
1,71,66,2
1,75,40,0
1,76,54,264
1,67,36,0
1,71,58,2
1,67,54,286
1,71,70,0
1,76,54,4
1,71,66,268
1,76,50,0
1,67,54,2
1,76,48,264
1,71,54,4
1,67,40,2
1,76,56,268
1,71,58,4
1,67,38,4
1,76,52,258
1,71,66,0
1,67,58,2
1,76,56,280
1,71,68,4
1,67,60,0
1,67,60,258
1,76,56,2
1,71,68,2
1,73,52,274
1,76,58,0
1,69,58,4
1,73,56,274
1,69,54,0
1,76,58,0
1,69,48,272
1,76,56,2
1,73,72,0
1,69,50,282
1,73,68,0
1,76,60,0
1,73,68,284
1,69,52,0
1,76,52,2
1,64,58,274
1,73,64,6
1,74,80,364
1,66,60,2
1,67,74,326
1,76,66,4
1,69,58,4
1,74,56,0
1,66,26,0
1,69,68,294
1,66,38,0
1,74,54,2
1,66,26,284
1,74,56,0
1,69,54,0
1,69,60,290
1,66,26,2
1,74,54,0
1,74,44,286
1,69,54,0
1,66,24,0
1,69,56,276
1,66,28,0
1,74,50,2
1,66,28,266
1,74,54,0
1,69,62,2
1,66,28,276
1,69,60,2
1,74,56,0
1,66,26,274
1,74,52,2
1,71,66,0
1,66,28,278
1,71,60,2
1,74,48,2
1,71,62,260
1,66,38,0
1,74,48,4
1,66,38,276
1,71,66,2
1,74,48,2
1,66,34,288
1,71,62,2
1,74,34,2
1,71,66,274
1,74,40,2
1,66,38,2
1,66,28,276
1,71,68,2
1,74,14,6
1,66,42,272
1,71,66,4
1,74,40,4
1,74,60,274
1,67,42,2
1,71,50,0
1,67,66,262
1,74,60,0
1,71,60,2
1,74,52,264
1,71,66,4
1,67,56,0
1,74,54,278
1,71,66,2
1,67,60,2
1,74,44,274
1,71,66,2
1,67,50,2
1,74,40,274
1,67,36,4
1,71,54,0
1,71,56,288
1,74,30,2
1,67,34,2
1,74,54,272
1,67,58,0
1,71,62,4
1,73,46,260
1,69,62,4
1,64,56,0
1,73,56,272
1,64,54,2
1,69,52,4
1,73,48,272
1,64,52,0
1,69,56,2
1,69,62,288
1,73,52,2
1,64,56,0
1,64,50,288
1,73,52,0
1,69,56,2
1,64,50,278
1,73,56,0
1,69,58,0
1,64,50,268
1,73,60,0
1,69,62,0
1,64,50,270
1,73,52,6
1,69,56,0
1,73,68,270
1,69,50,2
1,78,72,0
1,78,56,294
1,73,56,2
1,69,54,0
1,73,60,278
1,78,52,0
1,69,42,2
1,73,60,284
1,78,52,0
1,69,50,2
1,78,46,280
1,73,48,2
1,69,38,2
1,78,52,276
1,73,68,0
1,69,50,2
1,69,48,282
1,78,60,0
1,73,46,0
1,78,68,276
1,73,68,2
1,69,58,0
1,76,63,278
1,66,52,0
1,71,59,2
1,66,32,278
1,76,56,0
1,71,58,2
1,66,35,278
1,71,60,2
1,76,54,0
1,66,40,276
1,76,62,0
1,71,58,6
1,75,52,272
1,66,18,4
1,71,48,2
1,75,40,264
1,71,60,2
1,66,24,0
1,66,30,260
1,71,66,0
1,75,48,2
1,66,38,266
1,71,66,2
1,75,40,0
1,76,54,264
1,67,36,0
1,71,58,2
1,67,54,286
1,71,70,0
1,76,54,4
1,71,66,268
1,76,50,0
1,67,54,2
1,76,48,264
1,71,54,4
1,67,40,2
1,76,56,268
1,73,58,4
1,69,38,4
1,76,52,258
1,73,66,0
1,69,58,2
1,76,56,280
1,73,68,4
1,69,60,0
1,69,60,258
1,76,56,2
1,73,68,2
1,66,40,94
1,67,56,64
1,68,48,48
1,69,58,2
1,78,48,14
1,78,68,268
1,69,78,2
1,78,64,256
1,69,78,4
1,76,84,382
1,67,84,0
1,76,66,276
1,67,78,6
1,66,53,370
1,74,68,4
1,66,68,66
1,74,68,8
1,69,67,790
1,76,48,30
1,78,56,32
1,79,74,0
1,71,60,12
1,69,60,8
1,78,70,12
1,67,68,366
1,76,70,0
1,74,71,14
1,66,68,4
1,64,62,58
1,73,64,0
1,74,58,14
1,66,32,6
1,69,54,2
1,74,52,296
1,69,48,0
1,66,14,0
1,69,60,300
1,66,32,4
1,74,54,2
1,69,60,288
1,66,30,0
1,74,60,2
1,69,52,286
1,74,46,8
1,66,12,0
1,66,16,292
1,69,56,4
1,74,50,4
1,66,18,298
1,69,48,2
1,74,48,0
1,66,20,302
1,69,62,6
1,74,56,0
1,73,56,28
1,73,52,282
1,69,52,0
1,66,25,0
1,66,38,286
1,69,42,2
1,73,46,18
1,69,48,256
1,66,14,4
1,73,47,4
1,69,52,272
1,66,20,0
1,73,40,14
1,66,28,274
1,69,62,4
1,73,38,10
1,66,18,276
1,69,52,12
1,73,30,8
1,66,26,294
1,69,58,4
1,73,60,0
1,69,48,44
1,64,40,12
1,72,54,4
1,69,66,264
1,72,62,0
1,64,52,0
1,64,60,284
1,69,60,6
1,72,49,4
1,72,52,282
1,64,50,0
1,69,52,6
1,71,66,278
1,66,46,4
1,63,42,0
1,66,26,276
1,63,30,4
1,71,52,6
1,66,46,268
1,63,30,0
1,71,50,18
1,63,32,270
1,66,30,8
1,71,62,2
1,64,54,260
1,71,58,4
1,67,52,6
1,67,66,276
1,64,50,0
1,71,52,6
1,64,46,290
1,67,62,0
1,71,54,2
1,71,52,296
1,64,44,0
1,67,60,0
1,67,52,310
1,64,40,2
1,71,40,2
1,67,56,294
1,64,46,0
1,71,48,6
1,67,50,292
1,71,36,4
1,64,38,0
1,64,52,296
1,67,68,2
1,71,56,2
1,62,48,278
1,70,52,2
1,67,66,6
1,70,52,298
1,62,44,0
1,67,58,10
1,70,42,308
1,62,46,0
1,67,56,6
1,70,48,296
1,62,36,6
1,67,52,6
1,70,60,302
1,62,48,4
1,67,60,4
1,67,62,290
1,70,46,0
1,62,42,0
1,70,56,310
1,62,52,0
1,67,65,0
1,70,60,290
1,62,50,0
1,67,62,4
1,74,50,268
1,69,60,2
1,66,32,4
1,74,54,284
1,66,22,8
1,69,58,0
1,69,44,286
1,74,51,2
1,66,40,6
1,74,58,280
1,66,40,2
1,69,58,10
1,75,54,368
1,71,66,2
1,66,26,290
1,75,51,0
1,71,56,6
1,66,32,286
1,75,45,0
1,71,51,2
1,75,48,272
1,71,44,2
1,66,32,0
1,69,50,246
1,66,44,2
1,59,60,0
1,69,56,288
1,66,56,4
1,59,40,4
1,69,50,266
1,66,52,6
1,59,42,4
1,69,56,288
1,66,56,2
1,59,46,4
1,68,42,272
1,59,48,0
1,64,52,2
1,68,40,276
1,64,58,0
1,59,46,4
1,68,42,274
1,64,58,6
1,59,52,4
1,68,48,272
1,64,40,4
1,59,45,0
1,64,50,252
1,62,46,14
1,69,56,4
1,64,54,288
1,69,58,0
1,62,48,0
1,62,44,284
1,69,60,2
1,64,50,0
1,64,66,262
1,62,37,6
1,69,56,2
1,61,43,252
1,69,66,2
1,64,58,4
1,64,50,246
1,73,56,14
1,74,60,390
1,66,56,4
1,67,50,328
1,76,70,4
