track,note,velocity,time
0,74,118,214
0,62,98,0
0,46,94,0
0,62,0,1
0,53,101,1
0,58,101,3
0,62,114,2
0,65,121,4
0,74,0,1
0,70,123,4
0,74,125,3
0,62,98,0
0,62,0,1
0,74,0,11
0,67,103,3
0,62,90,0
0,62,0,1
0,67,0,13
0,67,110,3
0,62,90,0
0,62,0,1
0,67,0,13
0,69,88,3
0,62,83,0
0,62,0,1
0,69,0,18
0,67,80,3
0,69,95,0
0,62,79,0
0,62,0,1
0,67,0,15
0,69,0,3
0,62,77,3
0,67,87,0
0,62,77,0
0,62,0,1
0,62,0,10
0,67,0,5
0,62,84,3
0,62,77,0
0,62,0,1
0,62,0,10
0,64,96,3
0,62,87,0
0,62,0,1
0,64,0,12
0,64,103,3
0,62,87,0
0,62,0,1
0,64,0,12
0,57,88,3
0,62,83,0
0,62,0,1
0,57,0,13
0,57,95,3
0,62,83,0
0,62,0,1
0,57,0,13
0,59,76,3
0,62,77,0
0,62,0,1
0,59,0,18
0,70,0,1
0,57,69,2
0,59,83,0
0,62,73,0
0,62,0,1
0,53,0,4
0,65,0,2
0,46,0,1
0,62,0,6
0,58,0,0
0,57,0,1
0,59,0,4
0,52,61,3
0,57,76,0
0,62,69,0
0,62,0,1
0,52,0,13
0,57,0,1
0,52,68,3
0,62,69,0
0,62,0,1
0,45,96,0
0,52,101,5
0,52,0,8
0,55,99,1
0,60,114,2
0,64,68,1
0,62,73,0
0,62,0,1
0,64,121,8
0,64,75,3
0,62,73,0
0,62,0,1
0,69,121,1
0,64,0,2
0,67,77,3
0,62,77,0
0,62,0,1
0,64,0,2
0,67,0,14
0,67,84,3
0,62,77,0
0,62,0,1
0,67,0,16
0,69,88,3
0,62,83,0
0,62,0,1
0,69,0,15
0,69,95,3
0,62,83,0
0,62,0,1
0,69,0,15
0,71,103,3
0,62,90,0
0,62,0,1
0,71,0,12
0,71,110,3
0,62,90,0
0,62,0,1
0,71,0,12
0,74,113,3
0,62,95,0
0,62,0,1
0,74,0,15
0,74,120,3
0,62,95,0
0,62,0,1
0,74,0,15
0,67,83,3
0,62,80,0
0,62,0,1
0,67,0,17
0,67,90,3
0,62,80,0
0,62,0,1
0,67,0,17
0,60,0,3
0,69,94,0
0,62,86,0
0,62,0,1
0,64,0,1
0,55,0,0
0,45,0,2
0,69,0,1
0,52,0,4
0,69,0,6
0,69,101,3
0,62,86,0
0,62,0,1
0,69,0,14
0,71,106,3
0,62,92,0
0,62,0,1
0,71,0,15
0,71,113,3
0,62,92,0
0,62,0,1
0,45,79,3
0,53,96,5
0,71,0,7
0,57,105,1
0,74,123,3
0,62,100,0
0,62,0,1
0,60,114,1
0,64,118,11
0,74,0,3
0,74,127,3
0,62,100,0
0,62,0,1
0,74,0,15
0,67,88,3
0,62,83,0
0,62,0,1
0,67,0,12
0,67,95,3
0,62,83,0
0,62,0,1
0,67,0,12
0,69,98,3
0,62,88,0
0,62,0,1
0,69,0,1
0,69,105,2
0,62,88,0
0,62,0,1
0,69,0,2
0,62,80,1
0,62,79,0
0,62,0,1
0,62,0,18
0,62,87,3
0,62,79,0
0,62,0,1
0,62,0,18
0,64,92,3
0,62,85,0
0,62,0,1
0,64,0,17
0,64,99,3
0,62,85,0
0,62,0,1
0,64,0,17
0,57,76,3
0,62,77,0
0,62,0,1
0,57,0,1
0,57,83,2
0,62,77,0
0,62,0,1
0,60,0,12
0,57,0,8
0,57,0,1
0,59,85,3
0,62,81,0
0,62,0,1
0,53,0,7
0,59,0,9
0,57,67,3
0,62,72,0
0,62,0,1
0,59,92,0
0,64,0,7
0,59,0,10
0,57,0,1
0,45,0,2
0,57,74,2
0,52,71,1
0,62,74,0
0,62,0,1
0,52,0,16
0,57,0,1
0,52,78,3
0,62,74,0
0,40,67,0
0,62,0,1
0,47,93,5
0,52,99,9
0,52,0,2
0,55,79,3
0,62,78,0
0,62,0,1
0,55,114,1
0,62,121,7
0,55,0,8
0,67,124,1
0,55,86,2
0,62,78,0
0,62,0,1
0,55,0,16
0,57,89,3
0,62,83,0
0,62,0,1
0,57,0,18
0,57,96,3
0,62,83,0
0,62,0,1
0,57,0,18
0,59,96,3
0,62,87,0
0,62,0,1
0,59,0,19
0,59,103,3
0,62,87,0
0,62,0,1
0,59,0,19
0,62,107,3
0,62,92,0
0,62,0,1
0,62,0,19
0,62,114,3
0,62,92,0
0,62,0,1
0,62,0,19
0,64,120,3
0,62,99,0
0,62,0,1
0,64,0,18
0,64,127,3
0,62,99,0
0,62,0,1
0,64,0,18
0,57,75,3
0,62,76,0
0,62,0,1
0,57,0,18
0,57,82,3
0,62,76,0
0,62,0,1
0,57,0,18
0,59,87,3
0,62,82,0
0,62,0,1
0,59,0,1
0,59,94,2
0,62,82,0
0,62,0,1
0,59,0,2
0,62,98,1
0,62,88,0
0,62,0,1
0,62,0,18
0,62,105,3
0,62,88,0
0,62,0,1
0,62,0,18
0,64,102,3
0,62,90,0
0,62,0,1
0,64,0,17
0,64,109,3
0,62,90,0
0,62,0,1
0,64,0,17
0,67,104,3
0,62,91,0
0,62,0,1
0,67,0,1
0,67,111,2
0,62,91,0
0,62,0,1
0,67,0,21
0,69,112,3
0,62,95,0
0,62,0,1
0,69,0,19
0,69,119,3
0,62,95,0
0,62,0,1
0,69,0,19
0,71,116,3
0,62,97,0
0,62,0,1
0,71,0,1
0,71,123,2
0,62,97,0
0,62,0,1
0,71,0,2
0,74,126,1
0,62,102,0
0,62,0,1
0,74,0,18
0,47,0,1
0,74,127,2
0,62,102,0
0,62,0,1
0,67,0,3
0,62,0,3
0,52,0,4
0,74,0,8
0,67,81,3
0,62,79,0
0,62,0,1
0,67,0,19
0,67,88,3
0,62,79,0
0,62,0,1
0,67,0,19
0,69,95,3
0,62,86,0
0,62,0,1
0,69,0,20
0,69,102,3
0,62,86,0
0,62,0,1
0,55,0,3
0,40,0,16
0,69,0,1
0,71,110,3
0,62,94,0
0,62,0,1
0,46,88,15
0,71,0,1
0,53,102,2
0,71,117,1
0,62,94,0
0,62,0,1
0,58,103,5
0,62,119,10
0,71,0,1
0,74,121,3
0,62,99,0
0,62,0,1
0,65,121,1
0,70,123,10
0,74,0,9
0,74,127,3
0,62,99,0
0,62,0,1
0,74,0,20
0,67,107,3
0,62,92,0
0,62,0,1
0,67,0,18
0,67,114,3
0,62,92,0
0,62,0,1
0,67,0,18
0,69,92,3
0,62,85,0
0,62,0,1
0,69,0,17
0,67,89,3
0,69,99,0
0,62,83,0
0,62,0,1
0,67,0,16
0,69,0,1
0,62,86,3
0,67,96,0
0,62,82,0
0,62,0,1
0,67,0,16
0,62,0,2
0,62,93,3
0,62,82,0
0,62,0,1
0,62,0,18
0,64,104,3
0,62,91,0
0,62,0,1
0,64,0,19
0,64,111,3
0,62,91,0
0,62,0,1
0,64,0,19
0,57,89,3
0,62,83,0
0,62,0,1
0,57,0,15
0,57,96,3
0,62,83,0
0,62,0,1
0,57,0,15
0,59,76,3
0,62,77,0
0,62,0,1
0,70,0,6
0,65,0,3
0,53,0,4
0,59,0,4
0,46,0,3
0,58,0,0
0,62,0,2
0,57,72,1
0,59,83,0
0,62,75,0
0,62,0,1
0,57,0,16
0,59,0,1
0,57,79,2
0,52,65,1
0,62,71,0
0,62,0,1
0,57,0,15
0,52,0,2
0,45,94,2
0,52,72,3
0,62,71,0
0,62,0,1
0,52,98,1
0,55,102,6
0,60,116,9
0,52,0,1
0,64,67,3
0,62,72,0
0,62,0,1
0,64,121,3
0,64,0,16
0,69,119,1
0,64,74,2
0,62,72,0
0,62,0,1
0,64,0,19
0,67,76,3
0,62,77,0
0,62,0,1
0,67,0,15
0,67,83,3
0,62,77,0
0,62,0,1
0,67,0,15
0,69,95,3
0,62,86,0
0,62,0,1
0,69,0,14
0,69,102,3
0,62,86,0
0,62,0,1
0,69,0,14
0,62,62,3
0,62,70,0
0,62,0,1
0,62,0,20
0,62,69,3
0,62,70,0
0,62,0,1
0,62,0,20
0,64,71,3
0,62,74,0
0,62,0,1
0,64,0,18
0,64,78,3
0,62,74,0
0,62,0,1
0,64,0,18
0,67,84,3
0,62,81,0
0,62,0,1
0,67,0,17
0,67,91,3
0,62,81,0
0,62,0,1
0,55,0,14
0,60,0,1
0,67,0,2
0,52,0,1
0,69,100,2
0,62,89,0
0,62,0,1
0,64,0,0
0,45,0,1
0,69,0,2
0,69,0,16
0,69,107,3
0,62,89,0
0,62,0,1
0,69,0,19
0,71,112,3
0,62,95,0
0,62,0,1
0,71,0,18
0,71,119,3
0,62,95,0
0,45,76,0
0,62,0,1
0,53,98,9
0,71,0,9
0,57,109,2
0,74,119,1
0,62,98,0
0,62,0,1
0,60,122,10
0,74,0,1
0,74,126,2
0,62,98,0
0,62,0,1
0,64,114,2
0,74,0,19
0,47,16,2
0,47,0,1
0,67,84,0
0,62,81,0
0,62,0,1
0,41,16,1
0,41,0,1
0,67,0,14
0,67,91,3
0,62,81,0
0,62,0,1
0,67,0,16
0,41,21,1
0,41,0,1
0,47,21,1
0,69,101,0
0,62,89,0
0,62,0,1
0,47,0,0
0,69,0,16
0,67,94,3
0,62,86,0
0,62,0,1
0,69,108,0
0,69,0,17
0,67,0,1
0,67,101,2
0,47,22,1
0,41,22,0
0,62,83,0
0,62,80,0
0,62,0,1
0,41,0,0
0,47,0,0
0,62,0,15
0,67,0,2
0,62,90,3
0,62,80,0
0,62,0,1
0,62,0,15
0,47,25,2
0,47,0,1
0,41,25,0
0,64,74,0
0,62,76,0
0,62,0,1
0,41,0,0
0,64,0,18
0,64,81,3
0,62,76,0
0,62,0,1
0,64,0,18
0,47,27,1
0,47,0,1
0,57,68,1
0,62,73,0
0,62,0,1
0,41,27,0
0,41,0,1
0,57,0,14
0,57,75,3
0,62,73,0
0,62,0,1
0,57,0,15
0,41,30,3
0,59,63,0
0,62,70,0
0,62,0,1
0,41,0,0
0,47,30,1
0,47,0,1
0,60,0,5
0,57,0,7
0,53,0,1
0,59,0,3
0,45,0,1
0,59,70,0
0,57,61,2
0,62,69,0
0,62,0,1
0,64,0,15
0,57,0,1
0,59,0,0
0,41,31,1
0,41,0,1
0,47,32,0
0,47,0,1
0,52,59,0
0,57,68,0
0,62,68,0
0,62,0,1
0,40,87,3
0,47,100,4
0,52,0,8
0,57,0,1
0,52,99,0
0,52,66,3
0,62,68,0
0,62,0,1
0,55,117,2
0,62,122,10
0,52,0,3
0,64,67,3
0,62,72,0
0,62,0,1
0,47,33,1
0,47,0,1
0,41,33,0
0,41,0,1
0,67,123,2
0,64,0,11
0,64,74,3
0,62,72,0
0,62,0,1
0,64,0,16
0,67,76,3
0,62,77,0
0,62,0,1
0,47,35,2
0,47,0,1
0,41,35,0
0,41,0,1
0,67,0,15
0,67,83,3
0,62,77,0
0,62,0,1
0,67,0,19
0,69,99,3
0,62,88,0
0,62,0,1
0,47,38,1
0,41,38,0
0,41,0,1
0,47,0,0
0,69,0,14
0,69,106,3
0,62,88,0
0,62,0,1
0,69,0,16
0,62,72,3
0,62,75,0
0,62,0,1
0,47,41,1
0,47,0,1
0,41,41,0
0,41,0,1
0,62,0,15
0,62,79,3
0,62,75,0
0,62,0,1
0,62,0,18
0,41,43,3
0,64,81,0
0,62,79,0
0,62,0,1
0,41,0,0
0,47,43,0
0,47,0,1
0,64,0,18
0,64,88,3
0,62,79,0
0,62,0,1
0,64,0,19
0,47,47,2
0,47,0,1
0,41,47,0
0,67,96,0
0,62,87,0
0,62,0,1
0,41,0,0
0,67,0,16
0,67,103,3
0,62,87,0
0,62,0,1
0,67,0,16
0,41,50,1
0,41,0,1
0,47,50,0
0,47,0,1
0,69,113,0
0,62,95,0
0,62,0,1
0,69,0,19
0,69,120,3
0,62,95,0
0,62,0,1
0,69,0,19
0,41,53,3
0,47,53,0
0,67,55,0
0,62,66,0
0,62,0,1
0,47,0,0
0,41,0,0
0,67,0,16
0,67,62,3
0,62,66,0
0,62,0,1
0,67,0,16
0,47,56,3
0,64,63,0
0,62,70,0
0,62,0,1
0,47,0,0
0,41,56,0
0,41,0,1
0,64,0,15
0,64,70,3
0,62,70,0
0,62,0,1
0,64,0,16
0,47,60,2
0,47,0,1
0,41,60,0
0,67,76,0
0,62,77,0
0,62,0,1
0,41,0,0
0,67,0,20
0,67,83,3
0,62,77,0
0,62,0,1
0,67,0,20
0,41,65,2
0,47,65,0
0,47,0,1
0,41,0,0
0,69,88,0
0,62,83,0
0,62,0,1
0,69,0,16
0,69,95,3
0,62,83,0
0,62,0,1
0,69,0,16
0,47,69,3
0,71,103,0
0,62,90,0
0,62,0,1
0,47,0,0
0,41,69,1
0,41,0,1
0,71,0,1
0,71,110,2
0,62,90,0
0,62,0,1
0,71,0,2
0,47,74,1
0,74,112,0
0,62,95,0
0,62,0,1
0,47,0,0
0,41,74,3
0,41,0,1
0,74,0,1
0,74,119,2
0,62,95,0
0,62,0,1
0,74,0,1
0,47,79,2
0,76,123,0
0,62,100,0
0,62,0,1
0,47,0,0
0,35,118,0
0,35,0,1
0,41,80,3
0,41,0,1
0,76,0,10
0,76,127,3
0,62,100,0
0,62,0,1
0,76,0,15
0,38,126,5
0,38,0,1
0,79,127,2
0,62,102,0
0,62,0,1
0,47,87,1
0,47,0,1
0,38,126,2
0,41,87,0
0,41,0,1
0,38,0,0
0,79,0,13
0,79,127,3
0,62,102,0
0,62,0,1
0,79,0,18
0,81,127,3
0,62,106,0
0,62,0,1
0,47,94,2
0,47,0,1
0,41,94,1
0,41,0,1
0,55,0,3
0,46,100,1
0,47,0,1
0,58,101,2
0,53,105,1
0,62,0,6
0,81,0,0
0,81,127,3
0,62,106,0
0,62,0,1
0,58,0,0
0,52,0,0
0,67,0,0
0,53,0,3
0,58,105,0
0,53,115,2
0,46,0,4
0,46,114,1
0,81,0,9
0,49,87,5
0,49,0,1
0,34,117,0
0,53,0,1
0,35,116,0
0,41,79,0
0,41,0,1
0,58,0,0
0,35,0,0
0,46,110,0
0,58,105,0
0,47,89,0
0,47,0,1
0,40,0,1
0,53,111,0
0,58,101,1
0,53,111,1
0,34,0,17
0,42,98,23
0,42,0,1
0,34,114,0
0,41,70,2
0,47,92,0
0,47,0,1
0,41,0,0
0,42,87,45
0,42,0,1
0,38,126,0
0,38,0,1
0,34,0,21
0,34,109,23
0,42,75,1
0,42,0,1
0,41,79,2
0,47,97,0
0,47,0,1
0,41,0,0
0,34,0,20
0,42,91,23
0,42,0,1
0,34,113,0
0,35,116,4
0,35,0,1
0,34,0,21
0,34,115,22
0,42,73,0
0,42,0,1
0,41,70,2
0,47,92,0
0,47,0,1
0,41,0,0
0,42,79,44
0,42,0,1
0,38,126,2
0,41,75,0
0,41,0,1
0,38,0,0
0,34,0,36
0,46,0,7
0,42,78,1
0,42,0,1
0,34,108,2
0,53,0,3
0,58,0,0
0,45,100,0
0,57,105,3
0,52,104,2
0,57,0,7
0,57,109,1
0,45,0,2
0,52,0,1
0,52,111,1
0,45,110,4
0,53,0,7
0,46,0,0
0,34,0,1
0,58,0,7
0,45,0,4
0,52,0,1
0,45,103,1
0,57,0,1
0,57,108,0
0,57,91,1
0,45,103,0
0,49,93,0
0,49,0,1
0,52,113,0
0,33,111,0
0,35,116,0
0,35,0,1
0,41,77,0
0,47,85,0
0,47,0,1
0,41,0,0
0,52,108,0
0,33,0,24
0,42,79,19
0,42,0,1
0,33,111,0
0,41,63,1
0,41,0,1
0,47,85,0
0,47,0,1
0,42,78,45
0,42,0,1
0,38,119,0
0,38,0,1
0,33,0,20
0,33,113,25
0,42,76,2
0,42,0,1
0,33,0,22
0,33,111,23
0,47,102,1
0,41,81,0
0,41,0,1
0,47,0,0
0,42,73,0
0,42,0,1
0,35,112,1
0,35,0,1
0,33,0,20
0,33,114,23
0,47,79,0
0,41,63,0
0,41,0,1
0,47,0,0
0,42,75,1
0,42,0,1
0,38,117,46
0,42,79,0
0,41,85,0
0,41,0,1
0,42,0,0
