track,note,velocity,time
0,55,124,229
0,55,0,326
0,54,118,0
0,54,0,12
0,53,109,0
0,53,0,16
0,52,99,0
0,52,0,11
0,51,93,0
0,51,0,14
0,50,127,0
0,69,88,240
0,69,0,1
0,69,75,23
0,69,0,1
0,69,90,23
0,69,0,1
0,73,107,50
0,73,0,1
0,73,95,23
0,73,0,1
0,50,0,22
0,48,127,1
0,73,107,0
0,73,0,1
0,48,0,379
0,50,127,0
0,69,100,243
0,69,0,1
0,26,107,0
0,69,90,22
0,69,0,1
0,42,98,23
0,69,91,0
0,69,0,1
0,42,0,0
0,26,0,0
0,28,105,0
0,28,0,48
0,30,104,0
0,46,95,0
0,73,113,0
0,73,0,1
0,46,0,0
0,73,97,23
0,73,0,1
0,35,114,1
0,42,86,0
0,73,101,0
0,73,0,1
0,35,0,0
0,42,0,0
0,50,0,0
0,55,126,0
0,30,0,1
0,31,101,0
0,31,0,46
0,42,72,0
0,42,0,1
0,31,101,1
0,31,0,41
0,31,101,5
0,42,83,0
0,35,110,0
0,35,0,1
0,42,0,0
0,31,0,43
0,31,102,4
0,42,72,0
0,42,0,1
0,31,0,43
0,31,103,4
0,35,109,0
0,42,81,0
0,42,0,1
0,35,0,0
0,31,0,47
0,35,105,0
0,42,73,0
0,42,0,1
0,35,0,47
0,36,103,0
0,35,110,0
0,42,85,0
0,42,0,1
0,35,0,0
0,55,0,35
0,54,120,0
0,36,0,12
0,38,103,0
0,42,78,0
0,42,0,1
0,54,0,2
0,53,114,0
0,53,0,15
0,52,103,0
0,52,0,15
0,51,95,0
0,51,0,12
0,50,125,0
0,42,88,4
0,35,109,0
0,35,0,1
0,42,0,0
0,38,0,47
0,38,102,1
0,42,72,0
0,42,0,1
0,38,0,40
0,38,102,6
0,42,84,1
0,35,108,0
0,35,0,1
0,42,0,0
0,38,0,40
0,38,103,5
0,42,77,2
0,42,0,1
0,38,0,38
0,38,104,8
0,35,109,0
0,42,82,0
0,42,0,1
0,35,0,0
0,42,75,45
0,42,0,1
0,38,0,0
0,40,101,0
0,69,91,0
0,69,0,1
0,69,78,23
0,69,0,1
0,42,84,23
0,35,110,0
0,69,68,0
0,69,0,1
0,42,0,0
0,35,0,0
0,40,0,0
0,38,104,0
0,38,0,47
0,35,105,0
0,42,77,0
0,73,93,0
0,73,0,1
0,42,0,0
0,73,85,22
0,73,0,1
0,50,0,21
0,48,123,0
0,35,0,2
0,73,70,1
0,73,0,1
0,42,82,0
0,35,110,0
0,35,0,1
0,42,0,0
0,36,101,0
0,36,0,39
0,42,72,7
0,42,0,1
0,36,100,1
0,36,0,40
0,35,112,6
0,42,82,0
0,42,0,1
0,35,0,0
0,36,103,1
0,36,0,39
0,42,78,6
0,42,0,1
0,36,103,0
0,36,0,37
0,36,105,11
0,42,82,0
0,35,109,0
0,35,0,1
0,42,0,0
0,42,72,46
0,42,0,1
0,36,0,0
0,38,103,0
0,38,0,48
0,40,101,0
0,35,109,1
0,42,78,0
0,42,0,1
0,35,0,0
0,42,74,45
0,42,0,1
0,40,0,2
0,38,106,0
0,48,0,45
0,50,127,0
0,35,109,1
0,42,81,0
0,42,0,1
0,35,0,0
0,38,0,47
0,42,73,0
0,42,0,1
0,38,101,0
0,38,0,39
0,42,82,8
0,35,109,0
0,35,0,1
0,42,0,0
0,38,105,0
0,38,0,37
0,42,78,9
0,42,0,1
0,38,106,0
0,38,0,39
0,38,104,9
0,42,84,1
0,35,111,0
0,35,0,1
0,42,0,0
0,38,0,43
0,42,78,1
0,42,0,1
0,26,106,2
0,69,94,1
0,69,0,1
0,69,94,21
0,69,0,1
0,69,80,22
0,69,0,1
0,26,0,0
0,28,105,0
0,35,111,0
0,42,90,0
0,42,0,1
0,35,0,0
0,46,79,46
0,46,0,1
0,28,0,0
0,30,101,0
0,73,87,0
0,73,0,1
0,73,82,23
0,73,0,1
0,73,81,22
0,73,0,1
0,30,0,0
0,50,0,0
0,55,121,0
0,31,100,0
0,42,89,0
0,35,111,0
0,35,0,1
0,42,0,0
0,31,0,41
0,31,100,6
0,42,75,0
0,42,0,1
0,31,0,40
0,31,101,7
0,42,81,0
0,35,109,0
0,35,0,1
0,42,0,0
0,31,0,41
0,31,101,6
0,42,79,0
0,42,0,1
0,31,0,40
0,31,100,7
0,55,114,0
0,42,82,0
0,35,109,0
0,35,0,1
0,42,0,0
0,31,0,43
0,42,79,2
0,42,0,1
0,31,101,1
0,55,0,16
0,57,109,0
0,31,0,25
0,31,101,7
0,42,78,0
0,35,109,0
0,35,0,1
0,42,0,0
0,57,0,37
0,55,106,0
0,42,77,10
0,42,0,1
0,31,0,0
0,38,104,0
0,55,0,1
0,54,118,0
0,54,0,11
0,53,111,0
0,53,0,13
0,52,105,0
0,52,0,11
0,51,98,0
0,51,0,10
0,50,127,0
0,35,109,1
0,42,81,0
0,42,0,1
0,38,0,0
0,35,0,0
0,55,0,1
0,38,99,0
0,62,107,0
0,38,0,37
0,42,78,9
0,42,0,1
0,38,101,1
0,38,0,40
0,38,100,8
0,42,85,0
0,35,110,0
0,35,0,1
0,42,0,0
0,38,0,36
0,42,75,9
0,42,0,1
0,38,100,1
0,62,0,3
0,38,0,34
0,38,101,11
0,42,81,0
0,35,111,0
0,35,0,1
0,42,0,0
0,38,0,39
0,42,76,6
0,69,91,0
0,69,0,1
0,42,0,0
0,38,101,0
0,69,84,23
0,69,0,1
0,38,0,16
0,69,80,7
0,69,0,1
0,42,86,0
0,35,109,0
0,35,0,1
0,42,0,0
0,38,103,0
0,42,70,46
0,73,85,0
0,73,0,1
0,42,0,0
0,38,0,1
0,35,105,0
0,73,72,21
0,73,0,1
0,50,0,21
0,48,127,0
0,35,0,3
0,42,81,0
0,35,109,0
0,73,78,0
0,73,0,1
0,35,0,0
0,42,0,0
0,36,103,1
0,36,0,34
0,42,72,12
0,42,0,1
0,36,102,1
0,36,0,40
0,42,86,6
0,35,109,0
0,35,0,1
0,42,0,0
0,36,101,1
0,36,0,37
0,42,72,9
0,42,0,1
0,60,102,0
0,36,101,1
0,36,0,35
0,60,0,11
0,64,108,0
0,35,110,0
0,42,81,0
0,42,0,1
0,35,0,0
0,36,101,1
0,36,0,39
0,36,101,7
0,42,77,0
0,42,0,1
0,36,0,36
0,36,101,11
0,35,110,0
0,42,88,0
0,42,0,1
0,35,0,0
0,64,0,2
0,62,101,2
0,62,0,41
0,36,0,0
0,64,102,0
0,42,73,1
0,42,0,1
0,38,101,0
0,38,0,40
0,48,0,7
0,38,101,1
0,50,124,1
0,42,82,0
0,35,108,0
0,35,0,1
0,42,0,0
0,64,0,1
0,62,100,0
0,38,0,38
0,38,100,7
0,42,76,0
0,42,0,1
0,38,0,38
0,38,100,9
0,35,111,1
0,42,81,0
0,42,0,1
0,35,0,0
0,38,0,33
0,62,0,8
0,38,100,5
0,42,78,2
0,42,0,1
0,38,0,31
0,62,109,9
0,38,101,5
0,42,84,0
0,35,109,0
0,35,0,1
0,42,0,0
0,38,0,34
0,62,0,11
0,64,104,0
0,69,87,2
0,69,0,1
0,26,108,0
0,42,78,0
0,42,0,1
0,69,91,20
0,69,0,1
0,69,77,24
0,69,0,1
0,35,109,0
0,42,90,0
0,42,0,1
0,35,0,0
0,26,0,1
0,28,107,0
0,46,79,45
0,46,0,1
0,28,0,0
0,30,104,0
0,73,89,0
0,73,0,1
0,64,0,10
0,73,72,12
0,73,0,1
0,35,109,24
0,42,90,0
0,73,79,0
0,73,0,1
0,35,0,0
0,42,0,0
0,50,0,0
0,55,126,0
0,30,0,1
0,31,100,0
0,31,0,42
0,42,75,4
0,42,0,1
0,31,101,1
0,31,0,34
0,31,101,12
0,35,110,0
0,42,86,0
0,42,0,1
0,35,0,0
0,31,0,41
0,31,101,6
0,42,73,1
0,42,0,1
0,31,0,40
0,55,109,1
0,31,100,5
0,35,109,0
0,42,88,0
0,42,0,1
0,35,0,0
0,31,0,40
0,31,101,7
0,42,77,0
0,42,0,1
0,55,0,14
0,57,104,0
0,31,0,27
0,31,100,6
0,35,105,0
0,42,78,0
0,42,0,1
0,35,0,0
0,57,0,35
0,55,105,0
0,31,0,12
0,38,102,0
0,42,77,2
0,42,0,1
0,55,0,0
0,54,121,0
0,54,0,11
0,53,112,0
0,53,0,12
0,52,106,0
0,52,0,10
0,51,99,0
0,38,0,9
0,51,0,1
0,50,122,0
0,38,101,2
0,35,110,0
0,42,83,0
0,42,0,1
0,55,0,0
0,35,0,0
0,62,102,0
0,38,0,44
0,38,101,5
0,42,75,0
0,42,0,1
0,38,0,39
0,38,102,7
0,35,109,0
0,42,84,0
0,42,0,1
0,35,0,0
0,62,0,29
0,38,0,11
0,38,101,7
0,42,77,0
0,42,0,1
0,38,0,39
0,35,109,7
0,42,85,0
0,42,0,1
0,35,0,0
0,38,102,1
0,38,0,35
0,42,81,11
0,42,0,1
0,38,101,0
0,69,67,0
0,69,0,1
0,69,81,21
0,69,0,1
0,38,0,12
0,35,110,12
0,42,83,0
0,69,84,0
0,69,0,1
0,42,0,0
0,35,0,0
0,38,101,0
0,42,81,47
0,42,0,1
0,38,0,0
0,35,105,0
0,73,85,1
0,73,0,1
0,73,79,22
0,73,0,1
0,35,0,16
0,50,0,6
0,35,110,0
0,42,84,0
0,73,79,0
0,73,0,1
0,42,0,0
0,35,0,0
0,48,125,1
0,36,103,0
0,36,0,41
0,42,78,4
0,42,0,1
0,36,101,1
0,36,0,37
0,42,82,10
0,35,107,0
0,35,0,1
0,42,0,0
0,36,102,0
0,36,0,39
0,60,100,2
0,42,78,5
0,42,0,1
0,36,102,0
0,36,0,40
0,60,0,4
0,64,111,0
0,36,102,4
0,42,86,0
0,35,108,0
0,35,0,1
0,42,0,0
0,36,0,43
0,42,78,3
0,42,0,1
0,36,103,1
0,36,0,39
0,64,0,2
0,62,95,0
0,36,105,7
0,35,109,0
0,42,83,0
0,42,0,1
0,35,0,0
0,36,0,41
0,62,0,4
0,64,98,0
0,42,81,0
0,42,0,1
0,38,102,1
0,38,0,37
0,64,0,9
0,48,0,0
0,50,126,0
0,62,104,0
0,38,103,2
0,42,82,0
0,35,111,0
0,35,0,1
0,42,0,0
0,38,0,40
0,42,78,5
0,42,0,1
0,38,101,0
0,38,0,37
0,38,101,11
0,35,110,1
0,42,82,0
0,42,0,1
0,35,0,0
0,62,0,23
0,38,0,15
0,38,101,8
0,42,79,0
0,42,0,1
0,38,0,38
0,38,102,9
0,62,104,0
0,35,114,1
0,42,84,0
0,42,0,1
0,35,0,0
0,38,0,39
0,38,102,7
0,42,81,0
0,69,97,0
0,69,0,1
0,42,0,0
0,62,0,1
0,64,104,0
0,69,73,23
0,69,0,1
0,38,0,18
0,38,103,4
0,35,112,0
0,42,95,0
0,69,68,0
0,69,0,1
0,35,0,0
0,42,0,0
0,64,0,41
0,46,84,4
0,46,0,1
0,38,0,1
0,35,106,0
0,73,79,1
0,73,0,1
0,47,77,0
0,54,68,0
0,54,0,1
0,47,0,0
0,73,79,20
0,73,0,1
0,35,0,18
0,55,93,3
0,50,0,1
0,48,123,0
0,48,89,0
0,36,106,2
0,35,122,0
0,42,85,0
0,73,79,0
0,73,0,1
0,35,0,0
0,42,0,0
0,48,100,1
0,48,49,1
0,55,23,0
0,55,0,1
0,48,0,0
0,55,86,0
0,48,0,13
0,55,0,4
0,36,0,23
0,48,0,0
0,55,84,1
0,48,78,0
0,42,81,2
0,42,0,1
0,36,101,0
0,48,96,0
0,55,54,1
0,48,54,0
0,48,0,1
0,55,0,0
0,48,0,15
0,55,0,3
0,36,0,17
0,48,0,8
0,48,79,0
0,55,0,1
0,55,82,0
0,36,100,2
0,42,82,0
0,38,125,0
0,38,0,1
0,42,0,0
0,48,39,1
0,55,30,0
0,55,69,0
0,55,0,1
0,48,0,0
0,48,0,18
0,55,0,1
0,36,0,18
0,67,107,3
0,55,76,2
0,55,0,1
0,48,71,0
0,36,98,2
0,42,78,0
0,55,79,0
0,42,0,1
0,48,57,0
0,48,0,1
0,55,32,0
0,55,0,1
0,48,0,14
0,55,0,2
0,36,0,18
0,55,80,8
0,48,78,0
0,48,86,2
0,36,99,1
0,42,78,1
0,35,107,0
0,35,0,1
0,42,0,0
0,55,37,0
0,48,46,0
0,48,0,1
0,55,0,0
0,48,0,18
0,55,0,0
0,36,0,18
0,67,0,3
0,48,0,0
0,64,105,0
0,48,72,3
0,55,77,0
0,48,101,2
0,55,0,1
0,36,98,0
0,48,57,0
0,42,78,0
0,42,0,1
0,48,0,0
0,55,85,0
0,48,0,16
0,55,0,1
0,36,0,17
0,48,0,9
0,48,82,1
0,55,86,1
0,36,99,2
0,48,59,0
0,42,81,0
0,38,127,0
0,38,0,1
0,42,0,0
0,48,0,0
0,55,0,0
0,55,78,1
0,48,93,0
0,55,1,3
0,55,0,1
0,55,0,17
0,48,0,0
0,64,0,2
0,62,99,0
0,36,0,10
0,48,0,5
0,55,76,6
0,48,69,0
0,48,95,1
0,55,0,1
0,36,100,0
0,42,77,0
0,42,0,1
0,48,54,0
0,48,0,1
0,55,57,0
0,55,74,0
0,55,0,1
0,48,0,18
0,55,0,0
0,36,0,14
0,62,0,6
0,67,102,0
0,48,0,5
0,48,79,0
0,55,83,0
0,36,100,2
0,55,52,0
0,48,52,0
0,35,116,0
0,42,78,0
0,42,0,1
0,35,0,0
0,55,0,0
0,48,0,0
0,48,88,1
0,55,0,21
0,48,0,2
0,36,0,8
0,48,0,13
0,48,71,1
0,55,76,0
0,36,101,1
0,42,73,0
0,42,0,1
0,55,0,1
0,60,87,0
0,55,69,1
0,48,97,1
0,67,0,1
0,64,93,0
0,48,0,14
0,55,0,1
0,36,0,17
0,48,0,7
0,48,80,2
0,55,84,0
0,38,122,1
0,42,84,0
0,42,0,1
0,38,0,0
0,36,99,0
0,48,90,2
0,55,0,22
0,48,0,1
0,36,0,8
0,48,0,12
0,48,78,1
0,55,80,0
0,59,90,1
0,42,70,1
0,42,0,1
0,36,101,0
0,64,0,3
0,48,83,0
0,60,0,3
0,48,0,13
0,55,0,0
0,36,0,13
0,48,0,7
0,48,78,6
0,55,82,0
0,42,78,2
0,35,113,0
0,35,0,1
0,42,0,0
0,48,90,0
0,36,102,1
0,57,78,1
0,59,0,10
0,55,0,13
0,48,0,1
0,36,0,7
0,48,0,10
0,48,68,3
0,55,73,0
0,48,96,1
0,55,0,1
0,60,69,0
0,42,72,0
0,69,84,0
0,69,0,1
0,42,0,0
0,36,100,0
0,55,74,1
0,57,0,4
0,48,0,15
0,55,0,0
0,69,79,4
0,69,0,1
0,36,0,8
0,48,0,9
0,60,0,3
0,57,57,0
0,48,82,0
0,55,84,0
0,38,127,1
0,42,85,0
0,69,76,0
0,69,0,1
0,42,0,0
0,38,0,0
0,36,100,1
0,48,96,0
0,48,0,25
0,55,0,1
0,36,0,7
0,48,0,10
0,42,72,2
0,48,79,0
0,42,0,1
0,55,51,0
0,55,79,0
0,55,0,1
0,36,101,0
0,73,81,1
0,73,0,1
0,55,63,0
0,48,85,0
0,57,0,12
0,48,0,9
0,55,0,0
0,73,67,0
0,73,0,1
0,48,0,1
0,55,0,3
0,36,0,13
0,57,98,5
0,48,0,1
0,50,123,0
0,57,52,0
0,50,64,0
0,73,81,0
0,50,84,0
0,73,0,1
0,57,0,0
0,55,0,0
0,50,0,0
0,38,102,0
0,42,79,0
0,35,114,0
0,35,0,1
0,42,0,0
0,50,103,0
0,57,86,1
0,50,0,20
0,57,0,4
0,38,0,3
0,50,0,17
0,57,78,0
0,38,103,1
0,50,63,0
0,57,34,0
0,42,69,0
0,50,80,0
0,42,0,1
0,57,0,0
0,50,0,0
0,57,0,1
0,50,92,0
0,57,0,17
0,50,0,2
0,38,0,11
0,50,0,13
0,50,48,2
0,38,125,0
0,42,81,0
0,42,0,1
0,38,0,0
0,50,0,0
0,38,101,0
0,57,61,0
0,57,88,0
0,50,85,0
0,50,92,0
0,57,0,1
0,57,87,1
