track,note,velocity,time
0,42,120,0
0,42,0,4
0,42,80,764
0,42,0,4
0,42,120,764
0,42,0,4
0,42,80,380
0,42,0,4
0,42,80,380
0,42,0,4
0,42,80,380
0,42,0,4
0,69,88,380
0,74,88,0
0,47,95,0
0,47,96,0
0,74,0,104
0,69,0,0
0,74,83,88
0,69,86,0
0,47,0,36
0,69,0,68
0,74,0,0
0,47,0,88
0,69,83,0
0,74,83,0
0,74,0,104
0,69,0,0
0,69,88,88
0,74,88,0
0,54,94,0
0,54,83,0
0,74,0,104
0,69,0,0
0,74,83,88
0,69,83,0
0,54,0,36
0,69,0,68
0,74,0,0
0,54,0,88
0,69,84,0
0,74,80,0
0,74,0,104
0,69,0,0
0,74,84,88
0,69,87,0
0,57,89,0
0,57,86,0
0,69,0,104
0,74,0,0
0,57,0,68
0,57,0,20
0,74,81,0
0,69,82,0
0,59,89,0
0,59,71,0
0,59,0,76
0,74,0,28
0,69,0,0
0,59,0,52
0,74,84,36
0,69,87,0
0,47,94,0
0,47,96,0
0,69,0,104
0,74,0,0
0,74,77,88
0,69,82,0
0,47,0,36
0,69,0,68
0,74,0,0
0,47,0,88
0,69,80,0
0,74,80,0
0,74,0,104
0,69,0,0
0,74,83,88
0,69,88,0
0,54,94,0
0,54,83,0
0,69,0,104
0,74,0,0
0,74,83,88
0,69,84,0
0,54,0,36
0,69,0,68
0,74,0,0
0,54,0,88
0,69,83,0
0,74,80,0
0,74,0,104
0,69,0,0
0,74,86,88
0,69,88,0
0,57,88,0
0,57,86,0
0,69,0,104
0,74,0,0
0,57,0,68
0,57,0,20
0,69,83,0
0,74,83,0
0,59,88,0
0,59,71,0
0,59,0,76
0,69,0,28
0,74,0,0
0,59,0,52
0,74,86,36
0,69,91,0
0,47,93,0
0,47,96,0
0,69,0,104
0,74,0,0
0,74,80,88
0,69,82,0
0,47,0,36
0,69,0,68
0,74,0,0
0,47,0,88
0,74,80,0
0,69,80,0
0,69,0,104
0,74,0,0
0,69,86,88
0,74,86,0
0,54,93,0
0,54,83,0
0,74,0,104
0,69,0,0
0,69,72,88
0,74,72,0
0,54,0,36
0,74,0,68
0,69,0,0
0,54,0,88
0,74,83,0
0,69,83,0
0,69,0,104
0,74,0,0
0,69,83,88
0,74,83,0
0,57,88,0
0,57,86,0
0,74,0,104
0,69,0,0
0,57,0,68
0,57,0,20
0,74,81,0
0,69,83,0
0,59,88,0
0,59,71,0
0,59,0,76
0,74,0,28
0,69,0,0
0,59,0,52
0,69,90,36
0,74,88,0
0,47,93,0
0,47,96,0
0,74,0,104
0,69,0,0
0,69,82,88
0,74,80,0
0,47,0,36
0,74,0,68
0,69,0,0
0,47,0,88
0,69,80,0
0,74,80,0
0,74,0,104
0,69,0,0
0,74,84,88
0,69,87,0
0,54,92,0
0,54,83,0
0,69,0,104
0,74,0,0
0,74,75,88
0,69,75,0
0,54,0,36
0,69,0,68
0,74,0,0
0,54,0,88
0,74,80,0
0,69,80,0
0,69,0,104
0,74,0,0
0,69,88,88
0,74,87,0
0,57,87,0
0,57,86,0
0,38,97,0
0,43,95,0
0,43,0,4
0,38,0,0
0,69,0,100
0,74,0,0
0,57,0,68
0,57,0,20
0,74,77,0
0,69,77,0
0,59,87,0
0,59,71,0
0,38,101,0
0,43,79,0
0,43,0,4
0,38,0,0
0,59,0,72
0,74,0,28
0,69,0,0
0,59,0,52
0,31,111,36
0,90,79,0
0,78,83,0
0,74,92,0
0,69,92,0
0,36,121,0
0,49,91,0
0,49,0,4
0,36,0,0
0,74,0,92
0,69,0,0
0,90,0,64
0,78,0,0
0,31,0,12
0,31,110,20
0,76,82,0
0,88,84,0
0,69,87,0
0,74,87,0
0,42,76,0
0,42,0,4
0,76,0,156
0,88,0,0
0,31,0,12
0,69,0,4
0,74,0,4
0,31,111,12
0,90,79,0
0,78,91,0
0,42,72,0
0,38,101,0
0,38,0,4
0,42,0,0
0,78,0,156
0,90,0,0
0,31,0,12
0,31,116,20
0,95,86,0
0,83,85,0
0,74,76,0
0,69,76,0
0,42,72,0
0,42,0,4
0,95,0,156
0,83,0,0
0,31,0,12
0,31,112,20
0,78,77,0
0,90,84,0
0,36,121,0
0,42,69,0
0,42,0,4
0,36,0,0
0,74,0,32
0,69,0,4
0,78,0,120
0,90,0,0
0,31,0,12
0,31,112,20
0,74,77,0
0,86,87,0
0,74,66,0
0,69,66,0
0,42,73,0
0,42,0,4
0,74,0,156
0,86,0,0
0,31,0,12
0,31,109,20
0,90,87,0
0,78,76,0
0,50,93,0
0,62,97,0
0,57,84,0
0,42,71,0
0,38,95,0
0,38,0,4
0,42,0,0
0,74,0,12
0,69,0,8
0,90,0,136
0,78,0,0
0,31,0,12
0,57,0,4
0,62,0,0
0,50,0,0
0,31,115,16
0,83,93,0
0,95,90,0
0,52,87,0
0,64,97,0
0,57,84,0
0,74,56,0
0,69,56,0
0,42,76,0
0,42,0,4
0,95,0,156
0,83,0,0
0,31,0,12
0,52,0,4
0,64,0,0
0,57,0,0
0,69,0,12
0,30,110,4
0,90,80,0
0,78,80,0
0,42,76,0
0,36,119,0
0,36,0,4
0,42,0,0
0,74,0,4
0,78,0,152
0,90,0,0
0,30,0,12
0,30,112,20
0,85,81,0
0,73,76,0
0,74,46,0
0,69,46,0
0,42,69,0
0,42,0,4
0,85,0,156
0,73,0,0
0,30,0,12
0,30,116,20
0,78,82,0
0,90,89,0
0,38,97,0
0,42,69,0
0,42,0,4
0,38,0,0
0,74,0,8
0,69,0,4
0,78,0,144
0,90,0,0
0,30,0,12
0,30,111,20
0,93,89,0
0,81,93,0
0,69,36,0
0,74,36,0
0,42,74,0
0,42,0,4
0,93,0,156
0,81,0,0
0,30,0,12
0,69,0,16
0,30,116,4
0,90,85,0
0,78,75,0
0,36,123,0
0,42,65,0
0,42,0,4
0,74,0,0
0,36,0,0
0,90,0,156
0,78,0,0
0,30,0,12
0,52,101,12
0,47,106,0
0,40,96,0
0,30,111,8
0,73,80,0
0,85,88,0
0,42,73,0
0,43,101,0
0,43,0,4
0,42,0,0
0,73,0,156
0,85,0,0
0,30,0,12
0,30,109,20
0,90,83,0
0,78,81,0
0,42,70,0
0,38,102,0
0,38,0,4
0,42,0,0
0,47,0,68
0,40,0,0
0,52,0,0
0,78,0,88
0,90,0,0
0,30,0,12
0,52,106,12
0,47,101,0
0,40,92,0
0,30,109,8
0,81,83,0
0,93,81,0
0,42,72,0
0,43,107,0
0,43,0,4
0,42,0,0
0,81,0,156
0,93,0,0
0,40,0,8
0,47,0,0
0,30,0,4
0,28,108,20
0,78,86,0
0,90,90,0
0,36,123,0
0,42,68,0
0,42,0,4
0,36,0,0
0,52,0,68
0,90,0,88
0,78,0,0
0,28,0,12
0,28,116,20
0,76,93,0
0,88,92,0
0,42,70,0
0,42,0,4
0,88,0,156
0,76,0,0
0,28,0,12
0,28,115,20
0,90,75,0
0,78,80,0
0,38,98,0
0,42,72,0
0,42,0,4
0,38,0,0
0,78,0,156
0,90,0,0
0,28,0,12
0,28,111,20
0,83,80,0
0,95,75,0
0,42,69,0
0,42,0,4
0,95,0,156
0,83,0,0
0,28,0,12
0,28,110,20
0,78,93,0
0,90,75,0
0,36,119,0
0,42,70,0
0,42,0,4
0,36,0,0
0,90,0,156
0,78,0,0
0,28,0,12
0,28,112,20
0,86,92,0
0,74,91,0
0,42,76,0
0,42,0,4
0,74,0,156
0,86,0,0
0,28,0,12
0,28,110,20
0,90,88,0
0,78,76,0
0,62,97,0
0,50,73,0
0,57,88,0
0,38,100,0
0,42,73,0
0,42,0,4
0,38,0,0
0,90,0,156
0,78,0,0
0,28,0,12
0,62,0,4
0,57,0,0
0,50,0,0
0,28,116,16
0,83,83,0
0,95,89,0
0,57,88,0
0,52,102,0
0,64,107,0
0,42,69,0
0,42,0,4
0,83,0,156
0,95,0,0
0,28,0,12
0,57,0,4
0,52,0,0
0,28,110,16
0,90,88,0
0,78,80,0
0,36,122,0
0,42,74,0
0,42,0,4
0,36,0,0
0,64,0,76
0,78,0,80
0,90,0,0
0,28,0,12
0,28,112,20
0,88,86,0
0,76,88,0
0,42,68,0
0,42,0,4
0,76,0,156
0,88,0,0
0,28,0,12
0,28,116,20
0,90,80,0
0,78,85,0
0,38,101,0
0,42,66,0
0,42,0,4
0,38,0,0
0,78,0,156
0,90,0,0
0,28,0,12
0,28,112,20
0,95,83,0
0,83,91,0
0,42,76,0
0,42,0,4
0,83,0,156
0,95,0,0
0,28,0,12
0,28,112,20
0,90,88,0
0,78,80,0
0,42,75,0
0,36,125,0
0,36,0,4
0,42,0,0
0,78,0,156
0,90,0,0
0,28,0,12
0,47,96,12
0,40,83,0
0,52,106,0
0,28,116,8
0,74,91,0
0,86,84,0
0,42,72,0
0,43,101,0
0,43,0,4
0,42,0,0
0,74,0,156
0,86,0,0
0,52,0,8
0,40,0,0
0,28,0,4
0,28,115,20
0,90,85,0
0,78,90,0
0,42,73,0
0,38,102,0
0,38,0,4
0,42,0,0
0,47,0,68
0,78,0,88
0,90,0,0
0,28,0,12
0,52,101,12
0,47,101,0
0,40,87,0
0,30,116,8
0,83,87,0
0,95,79,0
0,42,66,0
0,43,107,0
0,43,0,4
0,42,0,0
0,83,0,156
0,95,0,0
0,52,0,8
0,40,0,0
0,47,0,0
0,30,0,4
0,31,116,20
0,78,92,0
0,90,86,0
0,36,126,0
0,42,76,0
0,42,0,4
0,36,0,0
0,90,0,156
0,78,0,0
0,31,0,12
0,31,116,20
0,76,87,0
0,88,80,0
0,42,73,0
0,42,0,4
0,88,0,156
0,76,0,0
0,31,0,12
0,31,110,20
0,78,75,0
0,90,88,0
0,38,102,0
0,42,67,0
0,42,0,4
0,38,0,0
0,90,0,156
0,78,0,0
0,31,0,12
0,31,109,20
0,83,88,0
0,95,77,0
0,42,70,0
0,42,0,4
0,95,0,156
0,83,0,0
0,31,0,12
0,31,111,20
0,90,78,0
0,78,92,0
0,36,121,0
0,42,68,0
0,42,0,4
0,36,0,0
0,78,0,156
0,90,0,0
0,31,0,12
0,31,111,20
0,86,79,0
0,74,93,0
0,42,68,0
0,42,0,4
0,74,0,156
0,86,0,0
0,31,0,12
0,31,116,20
0,90,93,0
0,78,87,0
0,57,84,0
0,50,93,0
0,62,97,0
0,38,101,0
0,42,68,0
0,42,0,4
0,38,0,0
0,90,0,156
0,78,0,0
0,31,0,12
0,57,0,4
0,62,0,0
0,50,0,0
0,31,113,16
0,83,82,0
0,95,84,0
0,52,87,0
0,57,84,0
0,64,97,0
0,42,74,0
0,42,0,4
0,83,0,156
0,95,0,0
0,31,0,12
0,52,0,4
0,64,0,0
0,57,0,0
0,30,116,16
0,90,92,0
0,78,93,0
0,42,70,0
0,36,125,0
0,36,0,4
0,42,0,0
0,78,0,156
0,90,0,0
0,30,0,12
0,30,111,20
0,85,89,0
0,73,91,0
0,42,66,0
0,42,0,4
0,73,0,156
0,85,0,0
0,30,0,12
0,30,114,20
0,90,77,0
0,78,80,0
0,38,101,0
0,42,71,0
0,42,0,4
0,38,0,0
0,78,0,156
0,90,0,0
0,30,0,12
0,30,115,20
0,93,87,0
0,81,87,0
0,42,73,0
0,42,0,4
0,81,0,156
0,93,0,0
0,30,0,12
0,30,108,20
0,78,87,0
0,90,87,0
0,42,73,0
0,36,120,0
0,36,0,4
0,42,0,0
0,90,0,156
0,78,0,0
0,30,0,12
0,66,86,12
0,59,101,0
0,52,101,0
0,30,112,8
0,85,89,0
0,73,89,0
0,42,75,0
0,43,101,0
0,43,0,4
0,42,0,0
0,85,0,156
0,73,0,0
0,30,0,12
0,30,113,20
0,90,89,0
0,78,87,0
0,42,67,0
0,38,97,0
0,38,0,4
0,42,0,0
0,59,0,68
0,52,0,0
0,66,0,0
0,78,0,88
0,90,0,0
0,30,0,12
0,66,81,12
0,52,106,0
0,59,92,0
0,30,116,8
0,81,91,0
0,93,77,0
0,43,107,0
0,42,73,0
0,42,0,4
0,43,0,0
0,81,0,156
0,93,0,0
0,30,0,12
0,28,115,20
0,78,85,0
0,90,90,0
0,36,126,0
0,42,75,0
0,42,0,4
0,36,0,0
0,52,0,68
0,59,0,0
0,66,0,0
0,90,0,88
0,78,0,0
0,28,0,12
0,28,111,20
0,88,84,0
0,76,79,0
0,42,72,0
0,42,0,4
0,76,0,156
0,88,0,0
0,28,0,12
0,28,111,20
0,90,76,0
0,78,87,0
0,42,69,0
0,38,101,0
0,38,0,4
0,42,0,0
0,78,0,156
0,90,0,0
0,28,0,12
0,28,116,20
0,95,83,0
0,83,78,0
0,42,70,0
0,42,0,4
0,83,0,156
0,95,0,0
0,28,0,12
0,28,108,20
0,90,78,0
0,78,75,0
0,42,72,0
0,36,120,0
0,36,0,4
0,42,0,0
0,78,0,156
0,90,0,0
0,28,0,12
0,28,113,20
0,86,84,0
0,74,83,0
0,42,72,0
0,42,0,4
0,74,0,156
0,86,0,0
0,28,0,12
0,28,114,20
0,78,83,0
0,90,80,0
0,50,73,0
0,57,88,0
0,62,97,0
0,38,95,0
0,42,71,0
0,42,0,4
0,38,0,0
0,78,0,156
0,90,0,0
0,28,0,12
0,50,0,4
0,62,0,0
0,57,0,0
0,28,115,16
0,83,75,0
0,95,83,0
0,52,102,0
0,57,88,0
0,64,107,0
0,42,68,0
0,42,0,4
0,83,0,156
0,95,0,0
0,28,0,12
0,52,0,4
0,57,0,0
0,28,108,16
0,90,78,0
0,78,85,0
0,46,60,0
0,36,126,0
0,36,0,4
0,46,0,0
0,64,0,76
0,78,0,80
0,90,0,0
0,28,0,12
0,28,109,20
0,76,82,0
0,88,89,0
0,42,67,0
0,42,0,4
0,88,0,156
0,76,0,0
0,28,0,12
0,28,113,20
0,90,93,0
0,78,78,0
0,38,101,0
0,42,74,0
0,42,0,4
0,38,0,0
0,78,0,156
0,90,0,0
0,28,0,12
0,28,115,20
0,95,89,0
0,83,86,0
0,38,102,0
0,38,0,4
0,38,96,92
0,38,0,4
0,83,0,60
0,95,0,0
0,28,0,12
0,66,83,12
0,59,91,0
0,52,111,0
0,38,114,8
0,90,85,0
0,78,80,0
0,49,74,0
0,36,123,0
0,36,0,4
0,49,0,0
0,90,0,156
0,78,0,0
0,74,92,32
0,86,85,0
0,86,0,160
0,74,0,0
0,52,0,8
0,66,0,0
0,59,0,0
0,38,0,4
0,57,96,12
0,52,111,0
0,66,84,0
0,33,116,8
0,90,89,0
0,78,84,0
0,36,123,0
0,46,92,0
0,49,64,0
0,49,0,4
0,46,0,0
0,36,0,0
0,90,0,156
0,78,0,0
0,95,84,32
0,83,84,0
0,83,0,160
0,95,0,0
0,66,0,8
0,57,0,0
0,52,0,0
0,33,0,4
0,47,83,12
0,54,96,0
0,59,111,0
0,35,108,8
0,59,84,0
0,62,78,0
0,54,74,0
0,49,79,0
0,36,120,0
0,36,0,4
0,49,0,0
0,35,0,168
0,35,113,20
0,42,65,0
0,42,0,4
0,35,0,168
0,35,112,20
0,38,96,0
0,42,70,0
0,42,0,4
0,38,0,0
0,35,0,168
0,35,113,20
0,42,72,0
0,42,0,4
0,35,0,168
0,35,113,20
0,42,67,0
0,36,123,0
0,36,0,4
0,42,0,0
0,35,0,168
0,35,111,20
0,42,69,0
0,42,0,4
0,35,0,168
0,35,112,20
0,42,67,0
0,38,94,0
0,38,0,4
0,42,0,0
0,35,0,168
0,35,111,20
0,42,65,0
0,42,0,4
0,35,0,76
0,35,108,20
0,36,122,0
0,42,76,0
0,42,0,4
0,36,0,0
0,69,119,24
0,35,0,76
0,35,111,20
0,42,74,0
0,42,0,4
0,35,0,76
0,35,108,20
0,38,95,0
0,42,72,0
0,42,0,4
0,38,0,0
0,35,0,4
0,35,115,20
0,42,75,0
0,42,0,4
0,35,0,76
0,35,108,20
0,42,71,0
0,36,124,0
0,36,0,4
0,42,0,0
0,35,0,76
0,35,108,20
0,42,68,0
0,42,0,4
0,35,0,76
0,35,112,20
0,42,69,0
0,38,97,0
