track,note,velocity,time
1,57,127,0
1,62,127,360
1,62,127,120
1,62,127,360
1,62,127,120
1,62,127,120
1,61,127,120
1,59,127,247
1,57,127,247
1,57,127,840
1,62,127,360
1,62,127,120
1,62,127,360
1,62,127,120
1,62,127,120
1,64,127,120
1,61,127,247
1,57,127,247
1,57,127,840
1,62,127,360
1,62,127,120
1,62,127,360
1,62,127,120
1,62,127,120
1,61,127,120
1,59,127,247
1,57,127,247
1,57,127,840
1,62,127,360
1,62,127,120
1,62,127,360
1,62,127,120
1,62,127,120
1,64,127,120
1,61,127,247
1,57,127,247
1,57,127,840
1,62,127,360
1,62,127,120
1,62,127,360
1,62,127,120
1,62,127,120
1,61,127,120
1,59,127,247
1,57,127,247
1,57,127,840
1,62,127,360
1,62,127,120
1,62,127,360
1,62,127,120
1,62,127,120
1,64,127,120
1,61,127,247
1,57,127,247
1,57,127,840
1,62,127,360
1,62,127,120
1,62,127,360
1,62,127,120
1,62,127,120
1,61,127,120
1,59,127,247
1,57,127,247
1,57,127,840
1,62,127,360
1,62,127,120
1,62,127,360
1,62,127,120
1,62,127,120
1,64,127,120
1,61,127,247
1,57,127,247
1,50,70,840
1,54,70,0
1,54,60,0
1,50,60,0
1,54,60,480
1,50,60,0
1,55,70,0
1,52,70,0
1,50,70,12960
1,54,70,0
1,54,60,0
1,50,60,0
1,54,60,480
1,50,60,0
1,55,70,0
1,52,70,0
1,50,70,12960
1,54,70,0
1,54,60,0
1,50,60,0
1,54,60,480
1,50,60,0
1,55,70,0
1,52,70,0
1,59,127,43680
1,59,127,7
1,69,127,0
1,69,127,0
1,59,127,0
1,55,127,0
1,55,127,0
1,59,127,0
1,69,127,0
1,62,127,0
1,69,127,0
1,59,127,0
1,59,127,0
1,69,127,0
1,69,127,0
1,59,127,240
1,69,127,0
1,69,127,0
1,69,110,0
1,59,127,0
1,71,100,0
1,59,127,0
1,57,127,15120
1,62,127,360
1,62,127,120
1,62,127,360
1,62,127,120
1,62,127,120
1,61,127,120
1,59,127,247
1,57,127,247
1,57,127,840
1,62,127,360
1,62,127,120
1,62,127,360
1,62,127,120
1,62,127,120
1,64,127,120
1,61,127,247
1,57,127,247
1,50,70,840
1,54,70,0
1,54,60,0
1,50,60,0
1,54,60,480
1,50,60,0
1,55,70,0
1,52,70,0
1,50,70,12960
1,54,70,0
1,54,60,0
1,50,60,0
1,54,60,480
1,50,60,0
1,55,70,0
1,52,70,0
1,50,70,12960
1,54,70,0
1,54,60,0
1,50,60,0
1,54,60,480
1,50,60,0
1,55,70,0
1,52,70,0
1,57,127,74400
1,62,127,360
1,62,127,120
1,62,127,360
1,62,127,120
1,62,127,120
1,61,127,120
1,59,127,247
1,57,127,247
1,57,127,840
1,62,127,360
1,62,127,120
1,62,127,360
1,62,127,120
1,62,127,120
1,64,127,120
1,61,127,247
1,57,127,247
1,57,127,840
1,62,127,360
1,62,127,120
1,62,127,360
1,62,127,120
1,62,127,120
1,61,127,120
1,59,127,247
1,57,127,247
1,57,127,840
1,62,127,360
1,62,127,120
1,62,127,360
1,62,127,120
1,62,127,120
1,64,127,120
1,61,127,247
1,57,127,247
1,57,127,840
1,62,127,360
1,62,127,120
1,62,127,360
1,62,127,120
1,62,127,120
1,61,127,120
1,59,127,247
1,57,127,247
1,57,127,840
1,62,127,360
1,62,127,120
1,62,127,360
1,62,127,120
1,62,127,120
1,64,127,120
1,61,127,247
1,57,127,247
1,57,127,840
1,62,127,360
1,62,127,120
1,62,127,360
1,62,127,120
1,62,127,120
1,61,127,120
1,59,127,247
1,57,127,247
1,57,127,840
1,62,127,360
1,62,127,120
1,62,127,360
1,62,127,120
1,62,127,120
1,64,127,120
1,61,127,247
1,57,127,247
1,57,127,840
1,62,127,360
1,62,127,120
1,62,127,360
1,62,127,120
1,62,127,120
1,61,127,120
1,59,127,247
1,57,127,247
1,57,127,840
1,62,127,360
1,62,127,120
1,62,127,360
1,62,127,120
1,62,127,120
1,64,127,120
1,61,127,247
1,57,127,247
1,57,127,840
1,62,127,360
1,62,127,120
1,62,127,360
1,62,127,120
1,62,127,120
1,61,127,120
1,59,127,247
1,57,127,247
1,57,127,840
1,62,127,360
1,62,127,120
1,62,127,360
1,62,127,120
1,62,127,120
1,64,127,120
1,61,127,247
1,57,127,247
2,50,127,0
2,66,127,960
2,55,127,0
2,64,127,0
2,62,127,960
2,64,127,0
2,57,127,0
2,62,127,0
2,64,127,0
2,50,127,0
2,66,127,0
2,55,127,0
2,64,127,0
2,62,127,960
2,64,127,0
2,57,127,0
2,62,127,0
2,64,127,0
2,50,127,0
2,66,127,0
2,55,127,0
2,64,127,0
2,62,127,960
2,64,127,0
2,57,127,0
2,62,127,0
2,64,127,0
2,50,127,0
2,66,127,0
2,55,127,0
2,64,127,0
2,62,127,960
2,64,127,0
2,57,127,0
2,62,127,0
2,64,127,0
2,62,127,4800
2,61,127,0
2,57,127,0
2,62,127,13920
2,61,127,0
2,57,127,0
2,62,127,13920
2,61,127,0
2,57,127,0
2,50,127,8160
2,66,127,960
2,55,127,0
2,64,127,0
2,62,127,960
2,64,127,0
2,57,127,0
2,62,127,0
2,64,127,0
2,50,127,0
2,66,127,0
2,55,127,0
2,64,127,0
2,62,127,960
2,64,127,0
2,57,127,0
2,62,127,0
2,64,127,0
2,50,127,0
2,66,127,0
2,55,127,0
2,64,127,0
2,62,127,960
2,64,127,0
2,57,127,0
2,62,127,0
2,64,127,0
2,50,127,0
2,66,127,0
2,55,127,0
2,64,127,0
2,62,127,960
2,64,127,0
2,57,127,0
2,62,127,0
2,64,127,0
2,50,127,10560
2,66,127,960
2,55,127,0
2,64,127,0
2,62,127,960
2,64,127,0
2,57,127,0
2,62,127,0
2,64,127,0
2,50,127,0
2,66,127,0
2,55,127,0
2,64,127,0
2,62,127,960
2,64,127,0
2,57,127,0
2,62,127,0
2,64,127,0
2,62,127,4800
2,61,127,0
2,57,127,0
2,62,127,13920
2,61,127,0
2,57,127,0
2,62,127,13920
2,61,127,0
2,57,127,0
2,50,127,8160
2,66,127,960
2,55,127,0
2,64,127,0
2,62,127,960
2,64,127,0
2,57,127,0
2,62,127,0
2,64,127,0
2,50,127,0
2,66,127,0
2,55,127,0
2,64,127,0
2,62,127,960
2,64,127,0
2,57,127,0
2,62,127,0
2,64,127,0
2,50,127,0
2,66,127,0
2,55,127,0
2,64,127,0
2,62,127,960
2,64,127,0
2,57,127,0
2,62,127,0
2,64,127,0
2,50,127,0
2,66,127,0
2,55,127,0
2,64,127,0
2,62,127,960
2,64,127,0
2,57,127,0
2,62,127,0
2,64,127,0
2,50,127,0
2,66,127,0
2,55,127,0
2,64,127,0
2,62,127,960
2,64,127,0
2,57,127,0
2,62,127,0
2,64,127,0
2,50,127,0
2,66,127,0
2,55,127,0
2,64,127,0
2,62,127,960
2,64,127,0
2,57,127,0
2,62,127,0
2,64,127,0
2,50,127,0
2,66,127,0
2,55,127,0
2,64,127,0
2,62,127,960
2,64,127,0
2,57,127,0
2,62,127,0
2,64,127,0
2,50,127,0
2,66,127,0
2,55,127,0
2,64,127,0
2,62,127,960
2,64,127,0
2,57,127,0
2,62,127,0
2,64,127,0
2,50,127,0
2,66,127,0
2,55,127,0
2,64,127,0
2,62,127,960
2,64,127,0
2,57,127,0
2,62,127,0
2,64,127,0
2,50,127,0
2,66,127,0
2,55,127,0
2,64,127,0
2,62,127,960
2,64,127,0
2,57,127,0
2,62,127,0
2,64,127,0
2,50,127,0
2,66,127,0
2,55,127,0
2,64,127,0
2,62,127,960
2,64,127,0
2,57,127,0
2,62,127,0
2,64,127,0
2,50,127,0
2,66,127,0
2,55,127,0
2,64,127,0
2,62,127,960
2,64,127,0
2,57,127,0
2,62,127,0
2,64,127,0
2,50,127,0
2,66,127,0
2,55,127,0
2,64,127,0
2,62,127,960
2,64,127,0
2,57,127,0
2,62,127,0
2,64,127,0
2,50,127,0
2,66,127,0
2,55,127,0
2,64,127,0
2,62,127,960
2,64,127,0
2,57,127,0
2,62,127,0
2,64,127,0
3,57,127,14400
3,56,127,0
3,55,127,0
3,54,127,0
3,53,127,0
3,52,127,0
3,51,127,0
3,50,127,0
3,49,127,0
3,48,127,0
3,47,127,0
3,46,127,0
3,45,127,0
3,44,127,0
3,43,127,0
3,42,127,0
3,41,127,0
3,40,127,0
3,39,127,0
3,38,127,0
3,37,127,0
3,36,127,0
3,35,127,0
3,34,127,0
3,33,127,0
3,32,127,0
3,31,127,0
3,30,127,0
3,29,127,0
3,28,127,0
3,27,127,0
3,26,127,0
3,26,127,0
3,26,127,727
3,28,127,0
3,28,127,720
3,31,127,0
3,31,127,727
3,33,127,0
3,33,127,727
3,26,127,0
3,26,127,727
3,28,127,0
3,28,127,720
3,31,127,0
3,31,127,727
3,33,127,0
3,33,127,727
3,26,127,0
3,26,127,727
3,28,127,0
3,28,127,720
3,31,127,0
3,31,127,727
3,33,127,0
3,33,127,727
3,26,127,0
3,26,127,727
3,28,127,0
3,28,127,720
3,31,127,0
3,31,127,727
3,33,127,0
3,33,127,727
3,26,127,0
3,26,127,727
3,28,127,0
3,28,127,720
3,31,127,0
3,31,127,727
3,33,127,0
3,33,127,727
3,26,127,0
3,26,127,727
3,28,127,0
3,28,127,720
3,31,127,0
3,31,127,727
3,33,127,0
3,33,127,727
3,31,127,0
3,31,127,247
3,31,127,0
3,33,127,0
3,33,127,247
3,33,127,0
3,31,127,0
3,31,127,247
3,30,127,0
3,28,127,0
3,33,127,0
3,26,127,2880
3,26,127,727
3,28,127,0
3,28,127,720
3,31,127,0
3,31,127,727
3,33,127,0
3,33,127,727
3,26,127,0
3,26,127,727
3,28,127,0
3,28,127,720
3,31,127,0
3,31,127,727
3,33,127,0
3,33,127,727
3,26,127,0
3,26,127,727
3,28,127,0
3,28,127,720
3,31,127,0
3,31,127,727
3,33,127,0
3,33,127,727
3,26,127,0
3,26,127,727
3,28,127,0
3,28,127,720
3,31,127,0
3,31,127,727
3,33,127,0
3,33,127,727
3,31,127,0
3,35,127,0
3,38,127,0
3,33,127,0
3,33,127,130
3,37,127,0
3,40,127,0
3,35,127,0
3,38,127,0
3,42,127,0
3,35,127,0
3,33,127,0
3,57,127,0
3,56,127,0
3,55,127,0
3,54,127,0
3,53,127,0
3,52,127,0
3,51,127,0
3,50,127,0
3,49,127,0
3,48,127,0
3,47,127,0
3,46,127,0
3,45,127,0
3,44,127,0
3,43,127,0
3,42,127,0
3,41,127,0
3,40,127,0
3,39,127,0
3,38,127,0
3,37,127,0
3,36,127,0
3,35,127,0
3,34,127,0
3,33,127,0
3,32,127,0
3,31,127,0
3,30,127,0
3,29,127,0
3,28,127,0
3,27,127,0
3,26,127,0
3,26,127,15360
3,26,127,727
3,28,127,0
3,28,127,720
3,31,127,0
3,31,127,727
3,33,127,0
3,33,127,727
3,26,127,0
3,26,127,727
3,28,127,0
3,28,127,720
3,31,127,0
3,31,127,727
3,33,127,0
3,33,127,727
3,26,127,0
3,26,127,727
3,28,127,0
3,28,127,720
3,31,127,0
3,31,127,727
3,33,127,0
3,33,127,727
3,26,127,0
3,26,127,727
3,28,127,0
3,28,127,720
3,31,127,0
3,31,127,727
3,33,127,0
3,33,127,727
3,31,127,0
3,31,127,247
3,31,127,0
3,33,127,0
3,33,127,247
3,33,127,0
3,31,127,0
3,31,127,247
3,30,127,0
3,28,127,0
3,33,127,0
3,26,127,2880
3,26,127,727
3,28,127,0
3,28,127,720
3,31,127,0
3,31,127,727
3,33,127,0
3,33,127,727
3,26,127,0
3,26,127,727
3,28,127,0
3,28,127,720
3,31,127,0
3,31,127,727
3,33,127,0
3,33,127,727
3,26,127,0
3,26,127,727
3,28,127,0
3,28,127,720
3,31,127,0
3,31,127,727
3,33,127,0
3,33,127,727
3,26,127,0
3,26,127,727
3,28,127,0
3,28,127,720
3,31,127,0
3,31,127,727
3,33,127,0
3,33,127,727
3,26,127,0
3,26,127,727
3,28,127,0
3,28,127,720
3,31,127,0
3,31,127,727
3,33,127,0
3,33,127,727
3,26,127,0
3,26,127,727
3,28,127,0
3,28,127,720
3,31,127,0
3,31,127,727
3,33,127,0
3,33,127,727
3,26,127,0
3,26,127,727
3,28,127,0
3,28,127,720
3,31,127,0
3,31,127,727
3,33,127,0
3,33,127,727
3,26,127,0
3,26,127,727
3,28,127,0
3,28,127,720
3,31,127,0
3,31,127,727
3,33,127,0
3,33,127,727
3,33,127,30240
3,26,127,0
3,26,127,727
3,28,127,0
3,28,127,720
3,31,127,0
3,31,127,727
3,33,127,0
3,33,127,727
3,26,127,0
3,26,127,727
3,28,127,0
3,28,127,720
3,31,127,0
3,31,127,727
3,33,127,0
3,59,127,247
3,58,127,0
3,57,127,0
3,56,127,0
3,55,127,0
3,54,127,0
3,53,127,0
3,52,127,0
3,51,127,0
3,50,127,0
3,49,127,0
3,48,127,0
3,47,127,0
3,46,127,0
3,45,127,0
3,44,127,0
3,43,127,0
3,35,127,0
3,42,127,0
3,41,127,0
3,40,127,0
3,39,127,0
3,38,127,0
3,37,127,0
3,36,127,0
3,35,127,0
3,34,127,0
3,33,127,0
3,32,127,0
3,31,127,0
3,30,127,0
3,29,127,0
3,28,127,0
3,28,127,0
3,28,127,727
3,30,127,0
3,30,127,720
3,33,127,0
3,33,127,727
3,35,127,0
3,35,127,727
3,28,127,0
3,28,127,727
3,30,127,0
3,30,127,720
3,33,127,0
3,33,127,727
3,35,127,0
3,35,127,727
3,28,127,0
3,28,127,727
3,30,127,0
3,30,127,720
3,33,127,0
3,33,127,727
3,35,127,0
3,35,127,727
3,28,127,0
3,28,127,727
3,30,127,0
3,30,127,720
3,33,127,0
3,33,127,727
3,35,127,0
3,35,127,727
3,28,127,0
3,28,127,727
3,30,127,0
3,30,127,720
3,33,127,0
3,33,127,727
3,35,127,0
3,35,127,727
3,28,127,0
3,28,127,727
3,30,127,0
3,30,127,720
3,33,127,0
3,33,127,727
3,35,127,0
3,35,127,727
3,28,127,0
3,28,127,727
3,30,127,0
3,30,127,720
3,33,127,0
3,33,127,727
3,35,127,0
3,35,127,727
3,28,127,0
3,28,127,727
3,30,127,0
3,30,127,720
3,33,127,0
3,33,127,727
3,35,127,0
3,35,127,727
4,73,127,12480
5,74,127,12480
6,57,127,15360
6,44,127,0
6,35,127,0
6,36,127,0
6,44,127,240
6,40,127,0
6,44,127,0
6,44,127,240
6,36,127,240
6,35,127,0
6,44,127,0
6,44,127,240
6,40,127,240
6,44,127,0
6,44,127,240
6,69,127,0
6,69,127,0
6,36,127,0
6,35,127,0
6,44,127,0
6,44,127,240
6,40,127,240
6,44,127,0
6,44,127,240
6,36,127,240
6,35,127,0
6,44,127,0
6,44,127,240
6,40,127,240
6,44,127,0
6,44,127,240
6,69,127,0
6,69,127,0
6,36,127,0
6,35,127,0
6,44,127,0
6,44,127,240
6,40,127,240
6,44,127,0
6,44,127,240
6,36,127,240
6,35,127,0
6,44,127,0
6,44,127,240
6,40,127,240
6,44,127,0
6,44,127,240
6,69,127,0
6,69,127,0
6,36,127,0
6,35,127,0
6,44,127,0
6,44,127,240
6,40,127,240
6,44,127,0
6,44,127,240
6,36,127,240
6,35,127,0
6,44,127,0
6,44,127,240
6,40,127,240
6,44,127,0
6,44,127,240
6,69,127,0
6,69,127,0
6,57,127,0
6,44,127,0
6,35,127,0
6,36,127,0
6,44,127,240
6,40,127,0
6,44,127,0
6,44,127,240
6,36,127,240
6,35,127,0
6,44,127,0
6,44,127,240
6,40,127,240
6,44,127,0
6,44,127,240
6,69,127,0
6,69,127,0
6,36,127,0
6,35,127,0
6,44,127,0
6,44,127,240
6,40,127,240
6,44,127,0
6,44,127,240
6,36,127,240
6,35,127,0
6,44,127,0
6,44,127,240
6,40,127,240
6,44,127,0
6,44,127,240
6,69,127,0
6,69,127,0
6,36,127,0
6,35,127,0
6,44,127,0
6,44,127,240
6,40,127,240
6,44,127,0
6,44,127,240
6,36,127,240
6,35,127,0
6,44,127,0
6,44,127,240
