track,note,velocity,time
3,31,118,0
3,36,122,400
3,36,118,632
3,31,115,92
3,38,119,424
3,38,118,236
3,38,122,100
3,38,123,112
3,31,118,112
3,36,115,400
3,36,119,632
3,31,117,92
3,38,115,424
3,38,124,236
3,38,122,100
3,38,119,112
3,31,122,112
3,36,119,400
3,36,115,632
3,31,118,92
3,38,119,424
3,38,118,236
3,38,124,100
3,38,118,112
3,31,116,112
3,36,116,400
3,36,120,632
3,31,123,92
3,38,116,424
3,38,123,236
3,38,115,100
3,38,115,112
3,31,118,112
3,36,120,400
3,36,123,632
3,31,117,92
3,38,119,424
3,38,115,236
3,38,119,100
3,38,123,112
3,31,118,112
3,36,119,400
3,36,118,632
3,31,115,92
3,38,121,424
3,38,118,236
3,38,115,100
3,38,124,112
3,28,117,112
3,28,117,44
3,33,118,80
3,33,118,8
3,50,119,36
3,50,124,68
3,43,121,24
3,43,115,60
3,43,122,72
3,42,120,192
3,40,120,16
3,28,119,16
3,52,119,44
3,45,118,80
3,33,115,200
3,34,117,100
3,36,122,84
3,36,117,148
3,36,124,80
3,31,117,128
3,36,121,72
3,36,119,104
3,36,122,124
3,36,115,104
3,36,115,108
3,26,115,100
3,28,117,16
3,31,118,8
3,31,121,28
3,36,124,400
3,36,122,632
3,31,123,92
3,38,117,424
3,38,123,236
3,38,121,100
3,38,115,112
3,31,124,112
3,36,121,400
3,36,116,632
3,31,123,92
3,38,121,424
3,38,121,236
3,38,120,100
3,38,120,112
3,31,118,112
3,36,121,400
3,36,119,632
3,31,122,92
3,38,122,424
3,38,116,236
3,38,123,100
3,38,121,112
3,31,120,112
3,36,121,400
3,36,116,632
3,31,122,92
3,38,121,424
3,38,121,236
3,38,119,100
3,38,116,112
3,31,120,112
3,36,115,400
3,36,115,632
3,31,122,92
3,38,121,424
3,38,116,236
3,38,119,100
3,38,119,112
3,31,121,112
3,36,118,400
3,36,119,632
3,31,124,92
3,38,117,424
3,38,116,236
3,38,119,100
3,38,115,112
3,31,123,112
3,36,118,400
3,36,118,632
3,31,118,92
3,38,119,424
3,38,116,236
3,38,122,100
3,38,121,112
3,31,123,112
3,36,122,400
3,36,115,632
3,31,116,92
3,38,124,424
3,38,124,236
3,38,117,100
3,38,122,112
3,28,120,112
3,28,121,44
3,33,124,80
3,33,115,8
3,50,116,36
3,50,123,68
3,43,124,24
3,43,115,60
3,43,122,72
3,42,120,192
3,40,117,16
3,28,122,16
3,52,120,44
3,45,117,80
3,33,123,200
3,34,121,100
3,36,124,84
3,36,123,148
3,36,124,80
3,31,118,128
3,31,122,1608
3,36,118,400
3,36,122,632
3,31,122,92
3,38,116,424
3,38,124,236
3,38,115,100
3,38,123,112
3,31,120,112
3,36,122,400
3,36,123,632
3,31,119,92
3,38,122,424
3,38,120,236
3,38,117,100
3,38,122,112
3,31,120,112
3,36,117,400
3,36,123,632
3,31,120,92
3,38,115,424
3,38,123,236
3,38,116,100
3,38,117,112
3,31,117,112
3,36,119,400
3,36,124,632
3,31,116,92
3,38,121,424
3,38,121,236
3,38,116,100
3,38,119,112
3,33,118,1648
3,38,115,400
3,38,115,632
3,33,116,92
3,40,116,424
3,40,121,236
3,40,119,100
3,40,119,112
3,33,117,112
3,38,119,400
3,38,124,632
3,33,119,92
3,40,123,424
3,40,117,236
3,40,123,100
3,40,122,112
3,33,124,112
3,38,120,400
3,38,122,632
3,33,122,92
3,40,121,424
3,40,123,236
3,40,116,100
3,40,122,112
3,33,122,112
3,38,123,400
3,38,117,632
3,33,124,92
3,40,117,424
3,40,120,236
3,40,115,100
3,40,123,112
3,33,123,112
3,38,115,400
3,38,115,632
3,33,119,92
3,40,122,424
3,40,116,236
3,40,123,100
3,40,116,112
3,33,117,112
3,38,123,400
3,38,118,632
3,33,115,92
3,40,121,424
3,40,119,236
3,40,124,100
3,40,117,112
3,33,115,112
3,38,116,400
3,38,121,632
3,33,118,92
3,40,118,424
3,40,124,236
3,40,123,100
3,40,115,112
3,33,122,112
3,38,122,400
3,38,118,632
3,33,118,92
3,40,121,424
3,40,124,236
3,40,124,100
3,40,121,112
3,33,121,112
3,38,118,400
3,38,119,632
3,33,123,92
3,40,116,424
3,40,123,236
3,40,115,100
3,40,115,112
3,33,117,112
3,38,124,400
3,38,121,632
3,33,121,92
3,40,118,424
3,40,118,236
3,40,115,100
3,40,118,112
3,33,120,112
4,62,122,0
4,67,120,0
4,62,116,12
4,67,118,0
4,60,119,192
4,64,115,0
4,59,123,72
4,62,123,4
4,67,115,848
4,71,116,0
4,67,123,280
4,71,121,0
4,62,118,668
4,67,122,0
4,62,118,12
4,67,118,0
4,60,124,192
4,64,116,0
4,59,122,72
4,62,121,4
4,62,117,1996
4,67,123,0
4,62,116,12
4,67,115,0
4,60,124,192
4,64,123,0
4,59,117,72
4,62,120,4
4,62,120,5068
4,67,119,0
4,62,116,12
4,67,120,0
4,60,119,192
4,64,115,0
4,59,121,72
4,62,118,4
4,62,118,1996
4,67,121,0
4,62,121,12
4,67,123,0
4,60,120,192
4,64,122,0
4,59,124,72
4,62,121,4
4,62,120,1996
4,67,124,0
4,62,117,12
4,67,120,0
4,60,120,192
4,64,119,0
4,59,122,72
4,62,121,4
4,52,115,2576
4,59,118,0
4,64,116,0
4,52,117,40
4,59,122,0
4,64,119,0
4,55,122,0
4,62,123,0
4,67,123,0
4,55,123,92
4,62,121,4
4,67,118,0
4,52,120,20
4,64,116,0
4,59,123,4
4,52,116,0
4,61,118,0
4,64,120,0
4,61,116,24
4,67,122,0
4,55,120,4
4,59,123,12
4,61,120,4
4,71,120,0
4,52,121,396
4,60,117,0
4,64,116,0
4,52,115,68
4,60,115,0
4,64,122,0
4,60,118,24
4,55,119,4
4,67,115,0
4,60,117,120
4,67,119,0
4,55,120,4
4,52,116,12
4,60,120,0
4,64,122,0
4,59,117,300
4,50,120,4
4,62,116,0
4,59,115,48
4,64,123,0
4,67,123,0
4,59,123,0
4,64,123,0
4,67,116,0
4,52,120,204
4,59,123,0
4,64,122,0
4,52,118,40
4,59,118,0
4,64,124,0
4,55,116,0
4,62,121,0
4,67,116,0
4,55,122,92
4,62,124,4
4,67,117,0
4,52,122,20
4,64,120,0
4,59,121,4
4,52,123,0
4,61,115,0
4,64,122,0
4,61,118,24
4,67,122,0
4,55,117,4
4,59,122,12
4,61,121,4
4,71,117,0
4,59,121,8
4,64,121,0
4,67,119,0
4,63,120,0
4,67,118,0
4,70,122,0
4,67,117,320
4,63,118,4
4,63,119,56
4,67,119,0
4,70,123,0
4,67,120,364
4,63,120,4
4,63,123,48
4,67,118,0
4,70,120,0
4,63,122,84
4,67,121,0
4,70,121,0
4,63,115,64
4,67,120,0
4,70,123,0
4,67,116,80
4,63,121,4
4,70,118,0
4,67,117,76
4,63,121,4
4,70,122,0
4,50,117,64
4,62,115,0
4,70,115,0
4,52,116,20
4,70,118,0
4,64,118,4
4,55,115,24
4,67,116,0
4,71,120,4
4,62,121,14984
4,67,121,0
4,62,121,12
4,67,124,0
4,60,116,192
4,64,124,0
4,59,116,72
4,62,118,4
4,62,116,1996
4,67,122,0
4,62,117,12
4,67,121,0
4,60,118,192
4,64,116,0
4,59,122,72
4,62,120,4
4,62,119,1996
4,67,116,0
4,62,118,12
4,67,115,0
4,60,115,192
4,64,116,0
4,59,119,72
4,62,121,4
4,52,121,2576
4,59,121,0
4,64,122,0
4,52,124,40
4,59,120,0
4,64,119,0
4,55,120,0
4,62,123,0
4,67,123,0
4,55,123,92
4,62,117,4
4,67,115,0
4,52,123,20
4,64,122,0
4,59,116,4
4,52,120,0
4,61,124,0
4,64,121,0
4,61,120,24
4,67,124,0
4,55,116,4
4,59,122,12
4,61,122,4
4,71,123,0
4,52,115,396
4,60,119,0
4,64,117,0
4,52,122,68
4,60,121,0
4,64,117,0
4,60,123,24
4,55,120,4
4,67,121,0
4,60,120,120
4,67,122,0
4,55,120,4
4,52,118,12
4,60,124,0
4,64,120,0
4,59,122,300
4,50,120,4
4,62,122,0
4,59,123,48
4,64,123,0
4,67,123,0
4,59,115,0
4,64,118,0
4,67,120,0
4,52,118,204
4,59,117,0
4,64,116,0
4,52,124,40
4,59,118,0
4,64,120,0
4,55,117,0
4,62,118,0
4,67,122,0
4,55,124,92
4,62,124,4
4,67,123,0
4,52,118,20
4,64,116,0
4,59,118,4
4,52,115,0
4,61,115,0
4,64,119,0
4,61,122,24
4,67,117,0
4,55,123,4
4,59,121,12
4,61,117,4
4,71,120,0
4,59,121,4
4,64,120,0
4,67,115,0
4,63,123,0
4,67,115,0
4,70,118,0
4,63,116,320
4,67,124,0
4,63,122,64
4,67,118,0
4,70,120,0
4,67,119,364
4,63,115,4
4,63,116,48
4,67,118,0
4,70,116,0
4,63,122,84
4,67,115,0
4,70,118,0
4,63,118,64
4,67,120,0
4,70,123,0
4,67,120,80
4,63,120,4
4,70,123,0
4,67,121,76
4,63,121,4
4,70,124,0
4,50,117,64
4,62,121,0
4,70,115,0
4,52,115,20
4,70,117,0
4,64,123,4
4,55,117,24
4,67,119,0
4,71,121,4
4,57,118,19208
4,69,119,4
4,57,116,100
4,69,124,0
4,57,118,100
4,69,117,4
4,54,122,28
4,66,119,4
4,57,117,4
4,69,118,4
4,57,115,660
4,69,116,4
4,57,122,112
4,69,122,4
4,57,122,112
4,69,124,4
4,57,117,56
4,69,120,4
4,54,115,12
4,66,122,0
4,52,120,16
4,64,122,0
4,56,122,472
4,68,115,0
4,57,116,104
4,69,121,0
4,57,123,44
4,69,117,0
4,54,115,96
4,66,118,0
4,57,124,8
4,69,117,4
4,52,117,2200
4,64,122,0
4,54,118,4
4,66,121,0
4,57,119,0
4,69,116,0
4,52,118,92
4,64,122,0
4,54,115,192
4,66,116,0
4,57,116,168
4,69,121,0
4,52,117,132
4,64,120,0
4,54,115,4
4,66,118,0
4,57,120,192
4,69,120,0
4,59,123,0
4,71,123,0
4,61,116,8
4,73,117,0
4,59,123,16
4,71,122,0
4,52,119,280
4,64,122,0
4,54,120,32
4,66,115,0
4,57,122,16
4,69,123,0
4,52,120,184
4,64,123,0
4,54,116,0
4,66,120,0
4,57,124,20
4,69,116,0
4,52,121,160
4,64,121,4
4,52,119,36
4,64,116,0
4,64,123,68
4,76,117,0
4,74,124,12
4,73,116,72
4,71,124,16
4,52,115,152
4,64,124,0
4,54,122,4
4,66,123,0
4,57,121,0
4,69,117,0
4,52,121,92
4,64,117,0
4,54,118,192
4,66,117,0
4,57,119,168
4,69,116,0
4,52,115,132
4,64,124,0
4,54,117,4
4,66,119,0
4,57,119,192
4,69,117,0
4,59,119,0
4,71,115,0
4,61,124,8
4,73,117,0
4,59,117,16
4,71,119,0
4,52,123,280
4,64,118,0
4,54,119,32
4,66,123,0
4,57,123,16
4,69,124,0
4,52,120,184
4,64,122,0
4,54,118,0
4,66,121,0
4,57,122,20
4,69,122,0
4,74,120,928
4,73,120,72
4,71,116,16
4,61,122,148
4,73,121,4
4,59,120,188
4,71,115,0
4,57,117,0
4,69,121,4
4,62,122,1760
4,74,120,0
4,61,120,72
4,73,123,0
4,59,118,16
4,71,123,0
4,61,117,148
4,73,116,4
4,59,124,188
4,71,116,0
4,57,120,0
4,69,124,4
4,62,117,1760
4,74,115,0
4,61,124,72
4,73,119,0
4,59,123,16
4,71,119,0
4,61,124,148
4,73,120,4
4,59,116,188
4,71,118,0
4,57,123,0
4,69,122,4
5,50,108,0
5,62,103,0
5,52,103,8
5,64,104,0
5,55,104,36
5,67,107,0
5,50,111,220
5,62,108,0
5,52,111,16
5,64,106,0
5,55,110,80
5,67,102,0
5,57,105,384
5,69,107,0
5,59,105,60
5,71,111,0
5,57,103,196
5,69,103,0
5,50,103,200
5,62,103,0
5,52,103,32
5,64,105,0
5,55,104,16
5,67,108,0
5,50,102,184
5,62,108,0
5,52,106,0
5,64,106,0
5,55,108,20
5,67,110,0
5,60,107,928
5,72,106,0
5,71,105,0
5,59,102,4
5,57,104,16
5,69,111,0
5,50,107,208
5,62,104,0
5,52,109,16
5,64,103,0
5,67,105,24
5,55,103,4
5,50,102,124
5,62,108,0
5,52,107,8
5,64,107,0
5,55,110,36
5,67,102,0
5,50,110,220
5,62,106,0
5,52,103,16
5,64,109,0
5,55,106,80
5,67,107,0
5,57,108,384
5,69,109,0
5,59,103,60
5,71,104,0
5,57,107,196
5,69,107,0
5,50,106,200
5,62,107,0
5,52,109,32
5,64,104,0
5,55,110,16
5,67,111,0
5,50,103,184
5,62,102,0
5,52,108,0
5,64,107,0
5,55,103,20
5,67,111,0
5,60,107,928
5,72,104,0
5,71,108,0
5,59,104,4
5,57,106,16
5,69,105,0
5,59,109,388
5,71,107,0
5,57,108,176
5,69,110,0
5,50,110,24988
5,62,107,0
5,52,109,8
5,64,111,0
5,55,107,36
5,67,102,0
5,50,106,220
5,62,103,0
5,52,111,16
5,64,109,0
5,55,110,80
5,67,107,0
5,57,103,384
5,69,106,0
5,59,109,60
5,71,105,0
5,57,103,196
5,69,111,0
5,50,110,200
5,62,103,0
5,52,102,32
5,64,105,0
5,55,106,16
5,67,103,0
5,50,103,184
5,62,111,0
5,52,106,0
5,64,104,0
5,55,105,20
5,67,104,0
5,60,111,928
5,72,105,0
5,71,103,0
5,59,103,4
5,57,102,16
5,69,108,0
5,50,105,208
5,62,103,0
5,52,107,16
5,64,107,0
5,67,104,24
5,55,109,4
5,50,110,124
5,62,102,0
5,52,110,8
5,64,102,0
5,55,108,36
5,67,107,0
5,50,107,220
5,62,105,0
5,52,108,16
5,64,108,0
5,55,110,80
5,67,110,0
5,57,111,384
5,69,108,0
5,59,104,60
5,71,106,0
5,57,109,196
5,69,106,0
5,50,109,200
5,62,107,0
5,52,107,32
5,64,110,0
5,55,111,16
5,67,106,0
5,50,110,184
5,62,108,0
5,52,102,0
5,64,103,0
5,55,109,20
5,67,108,0
5,60,105,928
5,72,106,0
5,71,103,0
5,59,102,4
5,57,103,16
5,69,108,0
5,59,108,388
5,71,103,0
5,57,106,176
5,69,108,0
5,61,103,6548
5,64,106,0
5,69,108,0
5,61,106,296
5,64,109,0
5,69,106,0
5,52,104,6416
5,64,109,0
5,54,107,4
5,66,105,0
5,57,104,0
5,69,109,0
5,52,105,92
5,64,102,0
5,54,102,192
5,66,105,0
5,57,102,168
5,69,104,0
5,52,105,132
5,64,111,0
5,54,109,4
5,66,103,0
5,57,108,192
5,69,102,0
5,59,105,0
5,71,104,0
5,61,109,8
5,73,111,0
5,59,106,16
5,71,106,0
5,52,106,280
5,64,102,0
5,54,107,32
5,66,108,0
5,57,102,16
5,69,106,0
5,52,105,184
5,64,109,0
5,54,110,0
5,66,109,0
5,57,109,20
5,69,111,0
5,52,107,160
5,64,105,12
5,52,102,36
5,64,106,0
5,76,111,64
5,64,111,4
5,74,111,12
5,73,107,72
5,71,108,16
5,52,105,152
5,64,103,0
5,54,105,4
5,66,106,0
5,57,103,0
5,69,104,0
5,52,106,92
5,64,108,0
5,54,110,192
5,66,105,0
5,57,109,168
5,69,110,0
5,52,104,132
5,64,102,0
5,54,111,4
5,66,107,0
5,57,106,192
5,69,105,0
5,59,106,0
5,71,110,0
5,61,102,8
5,73,102,0
5,59,110,16
5,71,106,0
5,52,111,280
5,64,111,0
5,54,103,32
5,66,110,0
5,57,110,16
5,69,110,0
5,52,103,184
5,64,107,0
5,54,103,0
5,66,108,0
5,57,105,20
5,69,110,0
5,74,108,928
5,73,106,72
5,71,110,16
5,61,109,148
5,73,109,4
5,59,109,188
5,71,103,0
5,57,104,0
5,69,106,4
5,57,110,988
5,69,108,4
5,57,108,112
5,69,108,4
5,57,109,112
5,69,111,4
5,57,104,56
5,69,108,4
5,54,109,12
5,66,105,0
5,52,108,16
5,64,107,0
5,56,106,472
5,68,106,0
5,57,110,104
5,69,102,0
5,57,107,44
5,69,110,0
5,54,111,96
5,66,105,0
6,52,21,0
6,61,21,0
6,64,21,0
6,55,21,0
6,61,21,0
6,67,21,0
6,59,21,0
