track,note,velocity,time
0,42,120,0
0,42,0,4
0,42,70,188
0,42,0,4
0,42,120,188
0,42,0,4
0,42,70,92
0,42,0,4
0,42,70,92
0,42,0,4
0,53,70,0
0,42,70,72
0,42,0,4
0,70,55,42
0,70,47,2
0,82,62,0
0,84,59,32
0,67,50,0
0,63,50,0
0,60,50,2
0,63,50,0
0,67,50,0
0,48,52,3
0,86,60,1
0,70,95,1
0,54,110,0
0,57,90,0
0,36,110,0
0,36,100,0
0,67,61,0
0,55,67,0
0,63,66,1
0,60,67,0
0,81,35,0
0,82,0,0
0,75,73,2
0,70,0,0
0,54,0,0
0,70,0,0
0,87,82,1
0,36,0,0
0,84,0,0
0,57,0,0
0,81,0,1
0,70,0,1
0,53,0,1
0,86,0,7
0,42,100,3
0,42,0,4
0,55,0,0
0,46,90,1
0,75,100,0
0,70,95,0
0,55,67,0
0,81,35,1
0,70,0,3
0,75,0,0
0,46,0,0
0,81,0,1
0,63,0,2
0,60,0,0
0,54,110,2
0,60,67,1
0,70,75,0
0,63,67,1
0,54,0,2
0,70,0,1
0,70,84,6
0,77,79,2
0,70,95,3
0,42,100,0
0,40,85,1
0,89,82,2
0,67,0,0
0,87,0,0
0,42,0,1
0,70,0,0
0,40,0,1
0,75,0,0
0,42,100,19
0,81,35,2
0,42,0,2
0,81,0,2
0,67,0,10
0,63,0,0
0,65,50,1
0,62,50,0
0,65,70,1
0,60,0,0
0,63,0,0
0,36,0,0
0,67,0,0
0,62,50,1
0,58,50,0
0,65,50,0
0,60,0,1
0,48,0,1
0,74,82,1
0,46,52,0
0,77,0,1
0,70,92,1
0,63,0,0
0,89,0,0
0,54,90,1
0,62,66,0
0,36,100,0
0,53,65,0
0,58,68,0
0,86,86,0
0,34,110,0
0,70,0,1
0,70,0,2
0,55,0,1
0,54,0,0
0,36,0,0
0,35,85,2
0,42,100,0
0,81,35,1
0,42,0,3
0,35,0,0
0,81,0,1
0,70,89,6
0,54,110,0
0,54,0,3
0,70,0,0
0,53,0,2
0,58,0,4
0,42,85,3
0,53,65,0
0,40,75,0
0,40,0,0
0,42,0,0
0,70,72,6
0,65,0,1
0,42,100,1
0,70,87,0
0,86,0,1
0,75,83,1
0,87,86,0
0,58,69,1
0,70,0,1
0,42,0,0
0,74,0,5
0,62,0,7
0,54,110,8
0,81,35,2
0,62,67,1
0,54,0,1
0,81,0,2
0,77,84,17
0,42,100,1
0,70,89,1
0,40,85,0
0,81,35,1
0,89,82,1
0,42,0,1
0,75,0,0
0,40,0,1
0,70,0,0
0,81,0,1
0,87,0,0
0,42,85,18
0,35,85,1
0,42,0,3
0,35,0,1
0,53,0,1
0,54,100,2
0,53,65,1
0,70,95,0
0,54,0,2
0,58,0,0
0,70,0,1
0,35,85,2
0,42,100,0
0,81,35,0
0,42,0,1
0,35,0,0
0,81,0,1
0,62,0,6
0,67,68,4
0,65,0,0
0,62,0,0
0,63,50,1
0,58,50,0
0,65,0,1
0,62,0,0
0,55,50,1
0,63,50,0
0,70,0,1
0,46,0,0
0,43,52,1
0,70,72,2
0,70,95,0
0,54,110,0
0,89,0,0
0,34,0,0
0,31,110,1
0,82,80,0
0,58,66,0
0,36,100,0
0,55,65,0
0,53,0,0
0,81,35,1
0,63,67,1
0,77,0,1
0,70,0,0
0,54,0,0
0,36,0,0
0,81,0,1
0,42,100,7
0,42,0,4
0,70,89,4
0,75,100,1
0,46,90,0
0,81,35,1
0,70,0,1
0,46,0,1
0,75,0,0
0,81,0,1
0,55,0,2
0,58,0,3
0,54,110,6
0,58,69,1
0,55,65,1
0,54,0,1
0,63,0,1
0,72,77,12
0,42,100,2
0,70,95,0
0,40,85,0
0,84,78,0
0,70,0,0
0,82,0,1
0,40,0,3
0,70,0,0
0,42,0,0
0,42,100,2
0,81,35,2
0,42,0,2
0,81,0,2
0,63,65,8
0,58,0,2
0,60,50,1
0,55,0,1
0,58,0,0
0,60,50,1
0,56,50,0
0,67,0,2
0,43,0,0
0,44,52,1
0,31,0,2
0,58,0,0
0,70,87,1
0,54,90,0
0,36,100,0
0,32,110,0
0,60,69,1
0,70,73,0
0,63,67,0
0,56,69,1
0,84,0,0
0,55,0,1
0,72,0,0
0,82,75,1
0,70,0,0
0,36,0,0
0,54,0,0
0,42,100,19
0,35,85,1
0,81,35,1
0,42,0,2
0,35,0,1
0,81,0,1
0,54,110,4
0,70,92,0
0,70,0,0
0,54,0,0
0,56,0,1
0,42,85,0
0,40,75,1
0,56,68,1
0,42,0,0
0,40,0,1
0,63,0,3
0,60,0,3
0,70,92,4
0,42,100,0
0,42,0,4
0,70,0,0
0,54,110,1
0,81,35,2
0,54,0,2
0,81,0,0
0,56,0,4
0,60,83,3
0,42,100,0
0,70,84,1
0,40,85,0
0,56,70,1
0,81,35,0
0,42,0,2
0,40,0,1
0,70,0,0
0,81,0,1
0,56,0,13
0,58,78,4
0,62,84,0
0,42,85,2
0,35,85,0
0,60,0,0
0,82,0,2
0,35,0,2
0,42,0,0
0,70,0,4
0,70,84,6
0,63,0,1
0,60,0,0
0,62,50,1
0,65,50,0
0,58,0,0
0,63,0,1
0,60,0,0
0,56,0,0
0,65,50,1
0,62,50,0
0,58,50,0
0,62,0,0
0,63,0,1
0,70,73,1
0,44,0,0
0,46,52,1
0,60,80,0
0,63,86,1
0,32,0,0
0,82,76,1
0,54,100,0
0,34,110,1
0,70,98,0
0,82,85,0
0,54,0,3
0,82,0,1
0,70,0,0
0,60,0,8
0,63,0,4
0,62,75,5
0,65,88,2
0,42,100,0
0,82,95,0
0,35,85,1
0,81,35,1
0,82,0,2
0,42,0,0
0,35,0,1
0,81,0,1
0,84,69,7
0,62,0,2
0,65,0,0
0,65,0,1
0,62,0,0
0,67,50,1
0,63,50,0
0,65,0,1
0,58,0,0
0,62,0,0
0,63,50,1
0,60,50,0
0,67,50,0
0,86,68,1
0,67,74,0
0,75,78,1
0,46,0,0
0,82,0,0
0,48,52,1
0,70,0,1
0,63,77,1
0,34,0,0
0,36,110,1
0,70,95,0
0,36,100,0
0,67,89,0
0,54,110,0
0,70,0,0
0,84,0,0
0,60,70,1
0,81,35,0
0,87,82,1
0,54,0,2
0,36,0,0
0,70,0,0
0,81,0,1
0,86,0,3
0,42,100,1
0,42,0,2
0,46,90,4
0,70,95,1
0,75,100,0
0,55,68,1
0,81,35,0
0,46,0,2
0,75,0,0
0,70,0,0
0,81,0,1
0,60,0,2
0,70,75,3
0,54,110,0
0,60,71,1
0,54,0,0
0,70,0,0
0,70,84,7
0,77,84,4
0,42,100,1
0,70,95,0
0,40,85,1
0,89,81,0
0,75,0,0
0,87,0,2
0,67,0,0
0,42,0,1
0,70,0,0
0,40,0,1
0,42,100,20
0,81,35,1
0,42,0,3
0,81,0,1
0,63,0,5
0,65,75,5
0,63,0,0
0,67,0,0
0,62,50,1
0,65,50,0
0,67,0,0
0,63,0,1
0,60,0,0
0,67,0,0
0,62,50,1
0,58,50,0
0,65,50,0
0,70,0,0
0,74,86,2
0,48,0,0
0,46,52,1
0,89,0,0
0,36,0,1
0,54,90,1
0,70,92,1
0,36,100,0
0,34,110,0
0,62,69,1
0,86,79,0
0,58,68,0
0,53,65,1
0,77,0,0
0,54,0,0
0,70,0,1
0,36,0,0
0,60,0,1
0,55,0,1
0,35,85,2
0,42,100,0
0,81,35,1
0,42,0,1
0,35,0,0
0,81,0,1
0,70,89,19
0,54,110,0
0,54,0,4
0,70,0,0
0,53,0,1
0,58,0,6
0,42,85,2
0,53,67,0
0,40,75,0
0,42,0,3
0,40,0,1
0,70,64,3
0,65,0,7
0,72,78,6
0,70,87,2
0,84,80,0
0,42,100,1
0,58,70,1
0,74,0,1
0,86,0,1
0,70,0,0
0,42,0,1
0,62,0,8
0,54,110,11
0,62,69,1
0,81,35,1
0,54,0,2
0,81,0,2
0,70,81,13
0,72,0,3
0,70,89,2
0,42,100,0
0,82,73,1
0,40,85,0
0,81,35,1
0,84,0,1
0,42,0,1
0,70,0,0
0,40,0,1
0,81,0,1
0,42,85,19
0,35,85,0
0,35,0,4
0,42,0,0
0,54,100,0
0,70,95,0
0,70,0,0
0,54,0,0
0,42,100,9
0,35,85,1
0,81,35,1
0,42,0,2
0,35,0,1
0,81,0,1
0,62,0,0
0,53,0,5
0,58,0,2
0,62,0,3
0,65,0,0
0,60,50,1
0,58,50,0
0,63,50,0
0,56,50,0
0,65,0,1
0,62,0,0
0,63,50,1
0,56,50,0
0,60,50,0
0,34,0,0
0,46,0,2
0,70,0,0
0,44,52,1
0,70,95,2
0,70,60,1
0,54,110,0
0,63,68,0
0,36,100,0
0,32,110,0
0,58,69,1
0,81,35,0
0,56,70,1
0,70,0,1
0,36,0,1
0,54,0,0
0,81,0,1
0,42,100,1
0,42,0,4
0,56,0,10
0,58,0,6
0,46,90,1
0,75,100,0
0,56,69,0
0,70,89,0
0,81,35,1
0,70,0,3
0,75,0,0
0,46,0,0
0,81,0,1
0,63,0,0
0,63,69,3
0,54,110,0
0,54,0,0
0,42,100,1
0,70,95,0
0,40,85,1
0,70,0,3
0,42,0,0
0,40,0,0
0,42,100,3
0,60,69,0
0,81,35,1
0,42,0,0
0,81,0,1
0,32,0,6
0,54,90,12
0,70,87,0
0,58,69,1
0,32,110,0
0,36,100,0
0,70,0,3
0,54,0,0
0,36,0,1
0,60,0,2
0,42,100,17
0,35,85,1
0,81,35,1
0,42,0,2
0,35,0,1
0,81,0,1
0,54,110,19
0,70,92,0
0,70,0,4
0,54,0,0
0,58,0,17
0,42,85,2
0,40,75,1
0,60,68,0
0,42,0,3
0,40,0,1
0,70,92,19
0,42,100,1
0,58,69,2
0,70,0,1
0,42,0,1
0,60,0,8
0,54,110,11
0,81,35,2
0,54,0,2
0,81,0,2
0,70,84,1
0,42,100,1
0,40,85,0
0,81,35,1
0,70,0,2
0,40,0,1
0,42,0,0
0,81,0,1
0,42,85,18
0,35,85,1
0,42,0,3
0,35,0,1
0,54,100,19
0,70,98,0
0,82,85,1
0,70,0,1
0,54,0,0
0,82,0,0
0,32,0,11
0,63,0,4
0,42,100,3
0,70,85,0
0,56,0,0
0,58,0,0
0,82,95,1
0,32,100,0
0,35,85,0
0,81,35,1
0,70,0,2
0,42,0,0
0,35,0,0
0,82,0,0
0,81,0,1
0,56,57,2
0,60,0,0
0,56,0,0
0,63,0,0
0,58,0,0
0,63,55,1
0,58,55,0
0,56,55,0
0,60,55,0
0,44,0,4
0,32,95,1
0,58,61,1
0,32,0,0
0,82,0,1
0,32,100,1
0,70,0,3
0,63,59,1
0,70,0,2
0,53,70,210
0,40,65,72
0,40,0,4
0,58,0,37
0,63,0,24
0,60,0,0
0,56,0,0
0,56,0,14
0,58,0,1
0,63,0,1
0,63,0,6
0,56,0,0
0,60,0,0
0,58,0,0
0,32,0,1
0,67,50,2
0,63,50,0
0,60,50,0
0,32,0,2
0,54,110,3
0,67,75,1
0,36,100,0
0,63,108,0
0,57,90,0
0,70,95,0
0,87,65,0
0,36,110,0
0,81,35,1
0,54,0,2
0,70,0,1
0,57,0,0
0,36,0,0
0,81,0,1
0,53,0,2
0,42,100,17
0,42,0,4
0,46,90,19
0,70,67,1
0,75,100,0
0,81,35,1
0,46,0,2
0,75,0,1
0,70,0,0
0,81,0,1
0,70,79,19
0,54,110,0
0,54,0,4
0,70,0,0
0,63,0,11
0,40,85,9
0,70,95,0
0,42,100,0
0,63,108,1
0,42,0,2
0,70,0,0
0,40,0,0
0,42,100,13
0,81,35,2
0,42,0,2
0,81,0,2
0,60,0,12
0,67,0,0
0,63,0,0
0,65,50,1
0,58,50,0
0,62,50,0
0,67,0,2
0,62,108,1
0,63,0,0
0,87,0,0
0,36,0,1
0,36,100,1
0,34,110,0
0,54,90,0
0,70,95,0
0,86,65,0
0,65,75,0
0,70,0,2
0,54,0,0
0,36,0,0
0,35,85,20
0,42,100,0
0,81,35,1
0,42,0,3
0,35,0,0
0,81,0,1
0,70,92,18
0,54,110,0
0,54,0,4
0,70,0,0
0,42,85,21
0,40,75,0
0,40,0,4
0,42,0,0
0,60,108,16
0,70,95,3
0,62,0,0
0,36,90,1
0,42,100,0
0,70,0,3
0,42,0,1
0,36,0,0
0,54,110,20
0,81,35,1
0,54,0,3
0,81,0,1
0,42,100,0
0,70,95,0
0,40,85,1
0,81,35,1
0,70,0,0
0,42,0,0
0,40,0,1
0,81,0,1
0,42,85,14
0,35,85,1
0,42,0,3
0,35,0,1
0,54,100,19
0,70,95,1
0,54,0,3
0,70,0,1
0,42,100,19
0,35,85,1
0,81,35,1
0,42,0,2
0,35,0,1
0,81,0,1
0,62,0,12
0,60,0,0
0,65,0,0
0,55,50,1
0,63,50,0
0,65,0,0
0,34,0,0
0,70,95,1
0,86,0,0
0,54,110,1
0,36,100,0
0,63,75,0
0,31,110,0
0,82,65,0
0,81,35,0
0,70,0,2
0,54,0,0
0,36,0,0
0,81,0,1
0,42,100,18
0,42,0,4
0,60,108,19
0,70,67,1
0,46,90,1
0,75,100,0
0,81,35,1
0,70,0,2
0,75,0,1
0,46,0,0
0,81,0,1
0,70,79,19
0,54,110,0
0,54,0,4
0,70,0,0
0,58,108,18
0,42,100,1
0,40,85,1
0,70,95,0
0,42,0,3
0,60,0,0
0,40,0,1
0,70,0,0
0,58,0,9
0,58,0,4
0,42,100,7
0,81,35,1
0,42,0,3
0,81,0,1
0,55,0,12
0,60,50,1
0,56,50,0
0,31,0,0
0,63,0,0
0,58,108,3
0,54,90,2
0,70,95,0
0,82,0,0
0,84,65,1
0,36,100,0
0,63,75,0
0,32,110,0
0,54,0,0
0,70,0,0
0,36,0,1
0,42,100,13
0,35,85,0
0,81,35,1
0,35,0,3
0,42,0,0
0,81,0,1
0,54,110,18
0,70,92,0
0,70,0,4
0,54,0,0
0,42,85,21
0,40,75,0
0,40,0,4
0,42,0,0
0,62,108,2
0,58,0,0
0,70,95,1
0,42,100,0
0,36,90,1
0,42,0,0
0,70,0,0
0,36,0,1
0,54,110,17
0,81,35,2
0,54,0,2
0,81,0,2
0,42,100,19
0,40,85,0
0,70,95,0
0,81,35,1
0,70,0,3
0,40,0,0
0,42,0,0
0,81,0,1
0,62,0,1
0,42,85,17
0,35,85,1
0,42,0,3
0,35,0,1
0,56,0,13
0,60,0,0
0,63,0,0
0,62,50,1
0,65,50,0
0,58,50,0
0,32,0,2
0,63,0,2
0,54,100,1
0,82,75,0
0,70,95,0
0,84,0,0
0,34,110,1
0,86,65,0
0,65,75,0
0,58,108,0
0,82,0,3
0,54,0,0
0,70,0,0
0,58,0,11
0,82,85,9
0,35,85,1
0,42,100,0
0,81,35,1
0,82,0,2
0,42,0,1
0,35,0,0
0,81,0,1
0,86,0,11
0,58,0,1
0,62,0,0
0,65,0,0
0,60,50,1
0,67,50,0
0,63,50,0
0,34,0,4
0,65,0,0
0,54,110,1
0,87,65,1
0,67,75,0
0,36,110,0
0,36,100,0
0,70,95,0
0,81,35,1
0,63,108,0
0,54,0,2
0,70,0,1
0,36,0,0
0,81,0,1
0,42,100,18
0,42,0,4
0,70,67,20
0,75,100,1
0,46,90,0
0,81,35,1
0,70,0,2
0,46,0,1
0,75,0,0
0,81,0,1
0,54,110,18
0,70,79,1
0,54,0,3
0,70,0,1
0,63,0,5
0,63,108,11
0,70,95,1
0,42,100,0
0,40,85,1
0,42,0,2
0,70,0,0
0,40,0,1
0,42,100,17
0,81,35,1
0,42,0,3
0,81,0,1
0,67,0,12
0,63,0,0
0,60,0,0
0,65,50,1
0,62,50,0
0,58,50,0
0,36,0,1
0,62,108,2
0,87,0,0
0,67,0,0
0,36,100,1
0,34,110,0
0,86,65,0
0,70,95,0
0,65,75,0
0,54,90,0
0,63,0,0
0,54,0,2
0,70,0,0
0,36,0,0
0,42,100,16
0,35,85,0
0,81,35,1
0,35,0,3
0,42,0,0
0,81,0,1
0,54,110,19
0,70,92,0
0,70,0,4
0,54,0,0
0,40,75,20
