track,note,velocity,time
2,38,109,10512
2,33,79,1248
2,35,102,88
2,38,84,80
2,37,109,62
2,35,109,1510
2,33,96,2
2,33,89,178
2,33,84,130
2,33,84,14
2,33,81,150
2,33,92,116
2,32,86,384
2,30,91,0
2,30,93,176
2,28,74,116
2,26,84,0
2,26,79,116
2,28,74,118
2,28,74,88
2,32,48,96
2,33,87,86
2,33,92,114
2,33,89,114
2,28,79,576
2,32,61,80
2,33,76,62
2,33,77,86
2,33,72,116
2,32,84,384
2,30,74,366
2,30,84,102
2,28,79,110
2,28,72,80
2,26,84,102
2,26,89,108
2,28,84,108
2,30,109,30
2,32,58,96
2,33,91,74
2,32,72,10
2,30,78,4
2,28,79,10
2,26,78,16
2,26,69,12
2,28,79,4
2,28,64,38
2,30,72,96
2,33,91,0
2,32,72,10
2,30,78,4
2,28,79,10
2,26,78,16
2,26,69,12
2,28,79,4
2,28,64,38
2,30,72,96
2,33,88,0
2,33,102,108
2,33,89,110
2,28,69,10
2,30,86,96
2,33,89,76
2,33,74,74
2,28,89,114
2,28,74,32
2,30,78,96
2,33,109,76
2,33,109,32
2,33,89,24
2,28,89,576
2,30,72,94
2,33,86,76
2,33,79,36
2,33,79,20
2,32,105,384
2,30,109,352
2,30,109,32
2,28,89,10
2,28,87,10
2,26,99,2
2,26,102,28
2,28,84,192
2,28,93,42
2,30,72,96
2,33,109,82
2,33,96,50
2,33,102,52
2,28,99,14
2,30,84,96
2,33,77,80
2,35,84,38
2,36,79,96
2,37,91,86
2,25,72,266
2,25,84,2
2,30,99,6
2,30,99,34
2,28,87,192
2,28,89,46
2,26,84,2
2,26,93,32
2,28,89,192
2,28,92,30
2,30,77,96
2,33,99,74
2,33,89,132
2,33,93,112
2,33,99,88
2,33,89,126
2,33,102,104
2,32,91,384
2,30,81,8
2,30,79,70
2,28,82,92
2,28,86,54
2,26,92,84
2,26,86,82
2,28,96,104
2,28,72,50
2,30,81,96
2,33,109,84
2,33,109,90
2,33,89,102
2,28,72,480
2,30,72,78
2,32,72,94
2,33,102,58
2,35,96,22
2,36,66,96
2,37,91,88
2,25,108,380
2,30,91,6
2,30,89,38
2,28,84,192
2,28,86,32
2,26,93,0
2,28,99,768
2,35,109,384
2,34,81,576
2,32,109,176
2,30,91,556
2,28,93,180
2,28,82,14
2,30,109,192
2,30,109,32
2,32,77,96
2,35,99,84
2,30,84,474
2,34,91,94
2,32,86,170
2,30,109,358
2,25,109,356
2,28,87,556
2,30,109,182
2,30,108,30
2,32,96,96
2,35,109,82
2,34,81,574
2,32,109,176
2,30,91,556
2,28,93,180
2,28,82,14
2,30,109,192
2,30,109,32
2,32,77,96
2,35,109,84
2,30,99,474
2,27,77,82
2,32,109,188
2,30,109,358
2,25,109,12
2,27,108,14
2,28,81,16
2,29,109,192
2,30,86,188
2,66,109,12
2,54,84,8
2,42,109,96
2,30,89,70
2,35,109,78
2,34,109,70
2,32,109,90
2,30,109,20
2,28,109,76
2,28,99,82
2,30,109,108
2,32,96,192
2,34,109,184
2,30,89,6
2,35,96,14
2,49,96,192
2,51,86,0
2,34,109,346
2,32,109,170
2,30,109,566
2,28,94,8
2,28,89,28
2,30,99,192
2,32,99,174
2,34,89,158
2,35,77,2900
2,40,93,192
2,35,61,1236
2,44,64,74
2,40,58,62
2,39,81,84
2,42,109,4
2,30,93,768
2,47,89,358
2,23,89,0
3,73,109,9742
3,71,94,192
3,69,96,94
3,68,102,56
3,69,88,78
3,64,85,80
3,66,104,76
3,38,109,92
3,45,96,190
3,52,85,190
3,54,106,192
3,73,101,162
3,71,85,6
3,69,94,96
3,68,78,12
3,69,81,74
3,45,85,2
3,62,88,84
3,47,85,2
3,64,81,76
3,50,85,2
3,49,119,0
3,56,78,190
3,57,73,192
3,64,60,90
3,73,102,194
3,71,88,0
3,69,91,94
3,68,96,74
3,69,81,0
3,62,94,78
3,64,91,90
3,57,81,0
3,62,94,0
3,66,96,0
3,47,99,0
3,57,65,22
3,66,107,0
3,61,88,0
3,47,96,4
3,66,91,6
3,62,94,0
3,57,69,0
3,47,104,2
3,61,107,0
3,64,104,0
3,57,81,0
3,62,91,0
3,57,78,0
3,66,94,0
3,64,91,24
3,57,81,0
3,61,104,0
3,61,94,32
3,64,99,0
3,57,81,2
3,59,88,18
3,56,85,2
3,64,88,0
3,54,94,46
3,66,82,190
3,61,91,192
3,66,88,74
3,52,94,20
3,64,73,190
3,57,94,192
3,64,81,32
3,57,65,10
3,66,78,0
3,62,65,0
3,68,91,58
3,64,94,0
3,59,91,0
3,59,94,30
3,64,102,0
3,68,96,0
3,61,78,10
3,64,85,0
3,69,69,0
3,64,88,28
3,69,99,0
3,61,78,0
3,68,107,22
3,59,85,0
3,64,88,0
3,69,96,54
3,64,99,0
3,61,78,0
3,64,102,46
3,69,94,2
3,61,81,0
3,68,81,16
3,64,96,0
3,59,85,0
3,66,107,46
3,61,85,0
3,57,88,0
3,64,91,26
3,56,85,0
3,59,69,0
3,66,81,2
3,62,94,0
3,57,94,0
3,57,96,14
3,66,81,0
3,62,85,0
3,68,96,10
3,59,99,2
3,64,96,0
3,59,85,32
3,68,81,2
3,64,85,0
3,64,107,0
3,61,109,0
3,69,109,0
3,57,91,24
3,66,99,0
3,61,99,0
3,57,94,24
3,62,107,0
3,66,107,0
3,68,99,46
3,64,104,2
3,59,94,0
3,64,107,16
3,61,109,0
3,69,109,0
3,57,91,24
3,66,99,0
3,61,99,0
3,57,94,24
3,62,107,0
3,66,107,0
3,68,99,46
3,64,104,2
3,59,94,0
3,52,99,16
3,57,112,0
3,61,106,0
3,52,91,104
3,61,116,0
3,57,117,2
3,57,96,26
3,62,104,0
3,54,109,2
3,57,94,22
3,54,104,0
3,62,116,0
3,57,104,16
3,62,114,0
3,54,88,0
3,61,108,38
3,57,114,0
3,52,104,0
3,61,94,40
3,57,109,0
3,52,96,0
3,64,106,102
3,56,113,0
3,52,112,2
3,55,109,6
3,51,107,2
3,54,119,0
3,50,104,0
3,53,109,168
3,61,88,8
3,57,104,0
3,52,88,0
3,45,104,0
3,45,94,74
3,52,85,56
3,57,102,50
3,61,81,0
3,52,81,0
3,45,104,36
3,52,69,8
3,57,94,12
3,62,96,0
3,54,94,0
3,52,81,20
3,57,94,0
3,61,101,0
3,45,94,48
3,52,88,72
3,61,96,84
3,57,102,0
3,45,94,40
3,44,85,64
3,59,102,0
3,56,101,0
3,57,104,0
3,54,104,0
3,61,94,0
3,42,81,0
3,42,107,16
3,54,111,88
3,61,102,80
3,52,78,10
3,61,102,0
3,40,99,0
3,56,104,2
3,61,107,60
3,56,109,0
3,40,99,48
3,52,85,62
3,57,99,6
3,54,107,0
3,62,99,0
3,38,78,2
3,50,102,382
3,54,94,146
3,62,96,82
3,40,88,20
3,56,85,0
3,64,109,0
3,52,65,192
3,54,107,60
3,57,94,0
3,56,107,50
3,59,104,0
3,61,107,10
3,57,109,0
3,45,81,0
3,52,73,480
3,64,109,48
3,52,94,84
3,64,104,32
3,59,107,0
3,56,111,0
3,45,91,0
3,45,99,26
3,52,88,192
3,61,88,16
3,57,104,0
3,45,94,0
3,52,81,0
3,45,94,28
3,52,85,126
3,64,104,96
3,59,91,66
3,56,107,0
3,49,81,0
3,64,104,50
3,59,88,0
3,57,96,0
3,61,102,0
3,42,102,0
3,54,88,0
3,42,91,54
3,54,94,60
3,57,94,64
3,61,96,0
3,61,94,12
3,56,104,0
3,40,85,2
3,52,81,0
3,52,107,32
3,56,109,148
3,57,88,32
3,62,111,0
3,54,102,0
3,38,104,2
3,50,112,382
3,54,107,84
3,57,85,48
3,62,107,0
3,38,94,30
3,40,81,16
3,59,102,0
3,56,94,0
3,52,78,272
3,64,109,96
3,73,88,0
3,69,104,0
3,64,88,0
3,57,104,0
3,57,94,74
3,64,75,56
3,69,102,50
3,73,81,0
3,64,81,0
3,57,104,36
3,64,69,8
3,69,94,12
3,74,96,0
3,66,94,0
3,64,81,20
3,69,94,0
3,73,101,0
3,57,94,48
3,64,88,72
3,73,96,84
3,69,102,0
3,57,94,40
3,56,85,64
3,71,102,0
3,68,101,0
3,69,104,0
3,66,104,0
3,73,94,0
3,54,81,0
3,54,107,16
3,66,101,88
3,73,102,80
3,64,78,10
3,73,102,0
3,52,99,0
3,68,104,2
3,73,107,60
3,68,109,0
3,52,99,48
3,64,85,62
3,69,99,6
3,66,107,0
3,74,99,0
3,50,78,2
3,62,102,382
3,66,94,146
3,74,96,82
3,52,88,20
3,68,85,0
3,76,109,0
3,64,65,192
3,66,107,60
3,69,94,0
3,68,107,50
3,71,104,0
3,73,107,10
3,69,109,0
3,57,81,0
3,64,73,480
3,76,109,48
3,64,94,84
3,76,104,32
3,71,107,0
3,68,101,0
3,57,91,0
3,57,99,26
3,64,88,192
3,73,88,16
3,69,104,0
3,57,94,0
3,64,81,0
3,57,94,28
3,64,85,126
3,76,104,96
3,71,91,66
3,68,107,0
3,61,81,0
3,76,104,50
3,71,88,0
3,69,96,0
3,73,102,0
3,54,102,0
3,66,88,0
3,54,91,54
3,66,94,60
3,69,94,64
3,73,96,0
3,73,94,12
3,68,104,0
3,52,85,2
3,64,81,0
3,64,107,32
3,68,109,148
3,69,102,34
3,74,109,0
3,38,107,0
3,66,109,0
3,76,112,0
3,71,102,0
3,68,111,0
3,40,96,0
3,66,109,384
3,71,107,0
3,63,104,0
3,47,109,0
3,59,79,192
3,63,119,6
3,71,106,0
3,66,109,0
3,59,91,8
3,46,81,0
3,71,114,14
3,66,111,0
3,63,114,0
3,44,116,0
3,59,72,194
3,71,114,36
3,66,111,0
3,63,94,0
3,59,78,8
3,42,111,0
3,64,114,6
3,71,107,0
3,68,114,0
3,40,109,0
3,59,82,194
3,64,104,2
3,71,102,0
3,68,114,0
3,59,88,194
3,70,94,34
3,66,107,0
3,42,116,0
3,61,88,178
3,70,116,48
3,66,114,0
3,61,89,30
3,66,107,36
3,63,107,0
3,71,109,0
3,47,114,2
3,59,70,188
3,71,119,34
3,63,104,0
3,66,107,2
3,59,79,160
3,46,102,0
3,71,99,8
3,66,102,0
3,63,99,0
3,44,109,0
3,59,82,186
3,71,99,42
3,66,102,2
3,63,96,0
3,59,83,158
3,68,114,40
3,64,96,0
3,71,109,0
3,37,94,0
3,59,80,170
3,64,102,36
3,71,109,0
3,68,109,0
3,59,104,154
3,70,104,18
3,66,111,0
3,42,104,0
3,61,80,162
3,70,99,42
3,66,111,0
3,61,96,32
3,66,119,10
3,71,107,0
3,63,104,0
3,47,119,0
3,59,79,192
3,63,109,6
3,71,116,0
3,66,109,0
3,59,91,8
3,46,81,0
3,71,114,14
3,66,111,0
3,63,114,0
3,44,116,0
3,59,72,194
3,71,114,36
3,66,111,0
3,63,94,0
3,59,78,8
3,42,111,0
3,64,114,6
3,71,107,0
3,68,114,0
3,40,109,0
3,59,82,194
3,64,104,2
3,71,102,0
3,68,114,0
3,59,88,194
3,70,94,34
3,66,107,0
3,42,116,0
3,61,88,178
3,70,116,48
3,66,114,0
3,61,89,30
3,66,107,36
3,63,107,0
3,71,109,0
3,47,114,2
3,59,70,188
3,71,109,34
3,63,104,0
3,66,107,2
3,59,79,160
3,46,102,0
3,71,99,8
3,66,102,0
3,63,99,0
3,44,109,0
3,59,82,186
3,71,99,42
3,66,102,2
3,63,96,0
3,59,83,158
3,68,114,40
3,64,96,0
3,71,109,0
3,37,94,0
3,59,80,170
3,64,102,36
3,71,109,0
3,68,109,0
3,59,104,154
3,70,104,18
3,66,111,0
3,42,104,0
3,61,80,162
3,70,99,42
3,66,111,0
3,61,96,32
3,66,109,10
3,71,107,0
3,63,104,0
3,47,119,0
3,59,79,192
3,63,109,6
3,71,116,0
3,66,109,0
3,59,91,8
3,46,81,0
3,71,114,14
3,66,111,0
3,63,114,0
3,44,116,0
3,59,72,194
3,71,114,36
3,66,111,0
3,63,94,0
3,59,78,8
3,42,111,0
3,64,114,6
3,71,107,0
3,68,114,0
3,40,109,0
3,59,82,194
3,64,104,2
3,71,102,0
3,68,114,0
3,59,88,194
3,70,94,34
3,66,107,0
3,42,116,0
3,61,88,178
3,70,116,48
3,66,114,0
3,61,89,30
3,66,107,36
3,63,107,0
3,71,109,0
3,47,114,2
3,59,70,188
3,71,109,34
3,63,104,0
3,66,107,2
3,59,79,160
3,46,102,0
3,71,99,8
3,66,102,0
3,63,99,0
3,44,109,0
3,59,82,186
3,71,99,42
3,66,102,2
3,63,96,0
3,59,83,158
3,68,114,40
3,64,96,0
3,71,109,0
3,37,94,0
3,59,80,170
3,64,102,36
3,71,109,0
3,68,109,0
3,59,104,154
3,70,104,18
3,66,111,0
3,42,104,0
3,61,80,162
3,70,99,44
3,66,111,0
3,75,111,2300
3,66,107,96
3,73,107,18
3,66,102,66
3,70,85,20
3,71,95,36
3,66,95,78
3,68,95,12
3,40,104,76
3,47,88,188
3,54,78,192
3,56,69,192
3,75,104,22
3,66,81,98
3,73,107,88
3,66,91,74
3,70,91,64
3,71,95,68
3,64,98,74
3,66,95,72
3,39,109,12
3,51,88,174
3,58,73,192
3,59,78,192
3,75,109,190
3,66,102,96
3,73,91,68
3,66,107,8
3,70,95,8
3,71,91,42
3,64,91,70
3,66,98,70
3,66,107,0
3,61,102,0
3,71,88,0
3,42,104,0
3,49,88,190
3,54,65,192
3,59,102,0
3,42,96,2
3,70,106,2
3,66,91,0
3,61,96,0
3,49,96,102
3,54,78,172
3,58,78,2
3,54,36,0
3,59,53,42
3,61,76,0
3,47,88,0
3,35,107,0
3,63,84,32
3,66,95,510
3,71,98,324
3,75,109,352
4,45,84,1296
4,52,59,190
4,57,78,194
4,44,75,174
4,42,97,160
4,49,55,166
4,57,78,194
4,40,94,158
4,50,92,14
4,57,55,192
4,62,89,190
4,40,71,22
4,56,86,372
4,47,78,2
4,45,84,106
4,52,55,178
4,57,75,190
4,44,71,176
4,42,68,160
4,49,59,170
4,54,78,192
4,40,89,172
4,50,84,0
4,57,81,192
4,62,86,192
4,38,99,0
4,40,86,104
4,56,84,352
4,47,75,12
4,45,89,170
4,52,55,190
4,57,78,190
4,52,63,36
4,45,89,26
4,52,68,124
4,59,75,72
4,52,71,94
4,45,82,86
4,52,71,120
4,57,59,146
4,52,55,46
4,45,81,62
4,57,71,4822
4,59,84,192
4,61,75,54
4,59,84,168
4,52,65,162
4,59,76,172
4,57,78,166
4,59,86,192
4,61,55,164
4,59,86,170
4,52,55,174
4,56,78,174
4,54,82,62
4,57,68,192
4,61,78,192
4,57,69,36
4,52,84,190
4,57,81,188
4,61,82,136
4,57,75,82
4,50,84,72
4,54,60,124
4,62,75,192
4,54,69,34
4,52,75,60
4,56,69,184
4,64,78,178
4,56,66,30
4,57,99,0
4,52,63,186
4,57,71,22
4,61,71,190
4,59,89,4
4,52,42,160
4,56,75,96
4,59,86,62
4,52,92,18
4,52,86,28
4,52,86,32
4,57,84,96
4,59,84,92
4,61,71,74
4,52,92,76
4,57,104,286
4,52,89,192
4,56,92,186
4,54,109,0
4,57,75,192
4,61,78,192
4,54,86,118
4,52,84,0
4,56,59,156
4,61,86,192
4,50,86,34
4,57,78,192
4,66,84,190
4,50,71,58
4,52,86,14
4,56,84,192
4,59,89,96
4,64,59,14
4,69,75,10
4,69,86,20
4,57,109,0
4,52,84,190
4,57,92,40
4,52,104,148
4,57,104,182
4,59,84,120
4,50,94,8
4,57,84,192
4,62,86,190
4,50,84,34
4,52,97,166
4,59,71,160
4,64,86,190
4,52,81,96
4,57,104,0
4,52,92,186
4,57,92,176
4,56,81,158
4,54,104,174
4,49,86,176
4,57,75,168
4,52,78,148
4,50,89,2
4,57,64,192
4,62,89,192
4,50,84,22
4,52,94,192
4,59,60,8
4,64,94,194
4,52,84,54
4,57,92,2
4,52,78,190
4,57,104,132
4,61,86,30
4,57,89,2
4,62,71,2
4,62,84,26
4,57,92,0
4,57,84,2
4,61,99,0
4,52,86,192
4,61,99,14
4,57,86,0
4,52,86,90
