track,note,velocity,time
1,66,105,8448
1,66,0,160
1,66,105,32
1,66,0,160
1,66,105,32
1,66,0,160
1,66,105,32
1,66,0,160
1,66,105,32
1,66,0,160
1,66,105,32
1,66,0,160
1,66,105,32
1,66,0,160
1,66,105,32
1,66,0,160
1,66,105,32
1,66,0,160
1,66,105,32
1,66,0,160
1,66,105,32
1,66,0,160
1,66,105,32
1,66,0,160
1,66,105,32
1,66,0,160
1,66,105,32
1,66,0,160
1,66,105,32
1,66,0,160
1,66,105,32
1,66,0,160
1,66,105,32
1,66,0,160
1,66,105,32
1,66,0,160
1,66,105,32
1,66,0,160
1,66,105,32
1,66,0,160
1,66,105,32
1,66,0,160
1,66,105,32
1,66,0,160
1,66,105,32
1,66,0,160
1,66,105,32
1,66,0,160
1,66,105,32
1,66,0,160
1,66,105,32
1,66,0,160
1,66,105,32
1,66,0,160
1,66,105,32
1,66,0,160
1,66,105,32
1,66,0,160
1,66,105,32
1,66,0,160
1,66,105,32
1,66,0,160
1,66,105,32
1,66,0,160
1,66,105,32
1,66,0,160
1,66,105,32
1,66,0,160
1,66,105,32
1,66,0,160
1,66,105,32
1,66,0,160
1,66,105,32
1,66,0,160
1,66,105,32
1,66,0,160
1,66,105,32
1,66,0,160
1,66,105,32
1,66,0,160
1,66,105,32
1,66,0,160
1,66,105,32
1,66,0,160
1,66,105,32
1,66,0,160
1,66,105,32
1,66,0,160
1,66,105,32
1,66,0,160
1,66,105,32
1,66,0,160
1,66,105,32
1,66,0,160
1,66,105,32
1,66,0,160
1,66,105,32
1,66,0,160
1,66,105,32
1,66,0,160
1,66,105,32
1,66,0,160
1,66,105,32
1,66,0,160
1,66,105,32
1,66,0,160
1,66,105,32
1,66,0,160
1,66,105,32
1,66,0,160
1,66,105,32
1,66,0,160
1,66,105,32
1,66,0,160
1,66,105,32
1,66,0,160
1,66,105,32
1,66,0,160
1,66,105,32
1,66,0,160
1,66,105,32
1,66,0,160
1,66,105,32
1,66,0,160
1,66,105,32
1,66,0,160
1,66,105,32
1,66,0,160
1,66,105,32
1,66,0,160
1,66,105,32
1,66,0,160
1,66,105,32
1,66,0,160
1,66,105,32
1,66,0,160
1,66,105,32
1,66,0,160
1,66,105,32
1,66,0,160
1,66,105,32
1,66,0,160
1,66,105,32
1,66,0,160
1,66,105,32
1,66,0,160
1,66,105,32
1,66,0,160
1,66,105,32
1,66,0,160
1,66,105,32
1,66,0,160
1,66,105,32
1,66,0,160
1,66,105,32
1,66,0,160
1,66,105,32
1,66,0,160
1,66,105,32
1,66,0,160
1,66,105,32
1,66,0,160
1,66,105,32
1,66,0,160
1,66,105,32
1,66,0,160
1,66,105,32
1,66,0,160
1,66,105,32
1,66,0,160
1,66,105,32
1,66,0,160
1,66,105,32
1,66,0,160
1,66,105,32
1,66,0,160
1,66,105,32
1,66,0,160
1,66,105,32
1,66,0,160
1,66,105,32
1,66,0,160
1,66,105,32
1,66,0,160
1,66,105,32
1,66,0,160
1,66,105,32
1,66,0,160
1,66,105,32
1,66,0,160
1,66,105,32
1,66,0,160
1,66,105,32
1,66,0,160
1,66,105,32
1,66,0,160
1,66,105,32
1,66,0,160
1,66,105,32
1,66,0,160
1,66,105,32
1,66,0,160
1,66,105,32
1,66,0,160
1,66,105,32
1,66,0,160
1,66,105,32
1,66,0,160
1,66,105,32
1,66,0,160
1,66,105,32
1,66,0,160
1,66,105,32
1,66,0,160
1,66,105,32
1,66,0,160
1,66,105,32
1,66,0,160
1,66,105,32
1,66,0,160
1,66,105,32
1,66,0,160
1,66,105,32
1,66,0,160
1,66,105,32
1,66,0,160
1,66,105,32
1,66,0,160
1,66,105,32
1,66,0,160
1,66,105,32
1,66,0,160
1,66,105,32
1,66,0,160
1,66,105,32
1,66,0,160
1,66,105,32
1,66,0,160
1,66,105,32
1,66,0,160
2,45,110,9984
2,45,0,94
2,45,110,2
2,45,0,94
2,45,110,290
2,45,0,94
2,45,110,98
2,45,0,94
2,45,110,2
2,45,0,94
2,45,110,2
2,45,0,94
2,45,110,290
2,45,0,94
2,45,110,98
2,45,0,94
2,45,110,2
2,45,0,94
2,45,110,2
2,45,0,94
2,45,110,290
2,45,0,94
2,45,110,98
2,45,0,94
2,45,110,2
2,45,0,94
2,45,110,2
2,45,0,94
2,45,110,290
2,45,0,94
2,45,110,98
2,45,0,94
2,45,110,2
2,45,0,94
2,45,110,2
2,45,0,94
2,45,110,290
2,45,0,94
2,45,110,98
2,45,0,94
2,45,110,2
2,45,0,94
2,45,110,2
2,45,0,94
2,45,110,290
2,45,0,94
2,45,110,98
2,45,0,94
2,45,110,2
2,45,0,94
2,45,110,2
2,45,0,94
2,45,110,290
2,45,0,94
2,45,110,98
2,45,0,94
2,45,110,2
2,45,0,94
2,45,110,2
2,45,0,94
2,45,110,290
2,45,0,94
2,45,110,98
2,45,0,94
2,45,110,2
2,45,0,160
2,45,110,176
2,45,0,46
2,45,110,2
2,45,0,94
2,45,110,2
2,45,0,94
2,45,110,194
2,45,0,160
2,45,110,176
2,45,0,46
2,45,110,2
2,45,0,94
2,45,110,2
2,45,0,94
2,45,110,194
2,45,0,160
2,45,110,176
2,45,0,46
2,45,110,2
2,45,0,94
2,45,110,2
2,45,0,94
2,45,110,194
2,45,0,160
2,45,110,176
2,45,0,46
2,45,110,2
2,45,0,94
2,45,110,2
2,45,0,94
2,45,110,194
2,45,0,160
2,45,110,176
2,45,0,46
2,45,110,2
2,45,0,94
2,45,110,2
2,45,0,94
2,45,110,194
2,45,0,160
2,45,110,176
2,45,0,46
2,45,110,2
2,45,0,94
2,45,110,2
2,45,0,94
2,45,110,194
2,45,0,160
2,45,110,176
2,45,0,46
2,45,110,2
2,45,0,94
2,45,110,2
2,45,0,94
2,45,110,194
2,45,0,160
2,45,110,176
2,45,0,46
2,45,110,2
2,45,0,94
2,45,110,2
2,45,0,94
2,45,110,194
2,45,0,160
2,45,110,608
2,45,0,160
2,45,110,608
2,45,0,160
2,45,110,608
2,45,0,160
2,45,110,608
2,45,0,160
2,45,110,608
2,45,0,160
2,45,110,608
2,45,0,160
2,45,110,608
2,45,0,160
2,45,110,608
2,45,0,160
2,45,110,608
2,45,0,160
2,45,110,608
2,45,0,160
2,45,110,608
2,45,0,160
3,71,110,0
3,78,110,768
3,78,0,336
3,74,110,48
3,74,0,256
3,67,110,32
3,71,0,48
3,67,0,46
3,66,110,2
3,66,0,528
3,69,110,48
3,69,0,160
3,67,110,32
3,67,0,720
3,72,110,48
3,72,0,336
3,67,110,48
3,67,0,94
3,69,110,2
3,69,0,160
3,71,110,32
3,71,0,94
3,71,110,2
3,71,0,478
3,72,110,2
3,72,0,46
3,71,110,2
3,71,0,46
3,69,110,2
3,69,0,94
3,67,110,2
3,67,0,94
3,69,110,2
3,69,0,624
3,67,110,48
3,67,0,94
3,69,110,2
3,69,0,94
3,71,110,2
3,71,0,624
3,72,110,48
3,72,0,624
3,67,110,48
3,67,0,94
3,67,110,2
3,67,0,720
3,69,110,48
3,69,0,720
3,72,110,15408
3,72,0,160
3,72,110,32
3,72,0,160
3,72,110,32
3,72,0,160
3,72,110,32
3,72,0,160
3,72,110,32
3,72,0,160
3,72,110,32
3,72,0,160
3,72,110,32
3,72,0,160
4,64,110,0
4,64,0,2256
4,59,110,48
4,64,110,0
4,59,0,720
4,64,0,0
4,64,110,48
4,67,110,0
4,67,0,336
4,64,0,384
4,62,110,48
4,67,110,0
4,62,0,720
4,67,0,0
4,62,110,48
4,66,110,0
4,62,0,624
4,66,0,0
4,67,110,48
4,67,0,94
4,64,110,2
4,67,110,0
4,64,0,720
4,67,0,0
4,64,110,48
4,67,110,0
4,64,0,624
4,67,0,0
4,59,110,144
4,62,110,0
4,59,0,720
4,62,0,0
4,62,110,48
4,66,110,0
4,62,0,720
4,66,0,0
4,65,110,15408
4,69,110,0
4,65,0,160
4,69,0,0
4,65,110,32
4,69,110,0
4,65,0,160
4,69,0,0
4,65,110,32
4,69,110,0
4,65,0,160
4,69,0,0
4,65,110,32
4,69,110,0
4,65,0,160
4,69,0,0
4,65,110,32
4,69,110,0
4,65,0,160
4,69,0,0
4,65,110,32
4,69,110,0
4,65,0,160
4,69,0,0
4,65,110,32
4,69,110,0
4,65,0,160
4,69,0,0
5,59,110,0
5,59,0,1488
5,59,110,48
5,59,0,720
5,52,110,48
5,52,0,720
5,52,110,2352
5,52,0,720
5,64,110,7056
5,64,0,32
5,64,110,64
5,64,0,32
5,64,110,64
5,64,0,32
5,64,110,160
5,64,0,32
5,64,110,64
5,64,0,32
5,64,110,64
5,64,0,32
5,64,110,160
5,64,0,32
5,64,110,736
5,64,0,32
5,64,110,64
5,64,0,32
5,64,110,64
5,64,0,32
5,64,110,160
5,64,0,32
5,64,110,64
5,64,0,32
5,64,110,64
5,64,0,32
5,64,110,160
5,64,0,32
5,64,110,3808
5,64,0,32
5,64,110,64
5,64,0,32
5,64,110,64
5,64,0,32
5,64,110,160
5,64,0,32
5,64,110,64
5,64,0,32
5,64,110,64
5,64,0,32
5,64,110,160
5,64,0,32
5,64,110,736
5,64,0,32
5,64,110,64
5,64,0,32
5,64,110,64
5,64,0,32
5,64,110,160
5,64,0,32
5,64,110,64
5,64,0,32
5,64,110,64
5,64,0,32
5,64,110,160
5,64,0,32
5,64,110,3808
5,64,0,32
5,64,110,64
5,64,0,32
5,64,110,64
5,64,0,32
5,64,110,160
5,64,0,32
5,64,110,64
5,64,0,32
5,64,110,64
5,64,0,32
5,64,110,160
5,64,0,32
5,64,110,64
5,64,0,32
5,64,110,64
5,64,0,32
5,64,110,160
5,64,0,32
5,64,110,64
5,64,0,32
5,64,110,64
5,64,0,32
5,64,110,160
5,64,0,32
5,64,110,64
5,64,0,32
5,64,110,64
5,64,0,32
5,64,110,160
5,64,0,32
5,64,110,64
5,64,0,32
5,64,110,64
5,64,0,32
5,52,110,3904
5,52,0,720
6,52,110,0
6,52,0,1488
6,52,110,48
6,52,0,720
6,48,110,816
6,48,0,720
6,43,110,48
6,43,0,720
6,50,110,48
6,50,0,720
6,48,110,816
6,48,0,720
6,43,110,48
6,43,0,720
6,50,110,48
6,50,0,720
6,52,110,23088
6,52,0,720
7,70,127,13056
7,70,0,46
7,71,127,2
7,71,0,46
7,71,127,2
7,71,0,46
7,71,127,2
7,71,0,46
7,71,127,2
7,71,0,46
7,71,127,2
7,71,0,46
7,71,127,2
7,71,0,46
7,71,127,2
7,71,0,46
7,70,127,2
7,70,0,46
7,71,127,2
7,71,0,46
7,71,127,2
7,71,0,46
7,71,127,2
7,71,0,46
7,71,127,2
7,71,0,46
7,71,127,2
7,71,0,46
7,71,127,2
7,71,0,46
7,71,127,2
7,71,0,46
7,70,127,2
7,70,0,46
7,71,127,2
7,71,0,46
7,71,127,2
7,71,0,46
7,71,127,2
7,71,0,46
7,71,127,2
7,71,0,46
7,71,127,2
7,71,0,46
7,71,127,2
7,71,0,46
7,71,127,2
7,71,0,46
7,79,127,2
7,79,0,46
7,78,127,2
7,78,0,46
7,76,127,2
7,76,0,46
7,74,127,2
7,74,0,46
7,71,127,2
7,71,0,46
7,69,127,2
7,69,0,46
7,66,127,2
7,66,0,46
7,71,127,2
7,71,0,46
7,70,127,2
7,70,0,46
7,71,127,2
7,71,0,46
7,71,127,2
7,71,0,46
7,71,127,2
7,71,0,46
7,71,127,2
7,71,0,46
7,71,127,2
7,71,0,46
7,71,127,2
7,71,0,46
7,71,127,2
7,71,0,46
7,70,127,2
7,70,0,46
7,71,127,2
7,71,0,46
7,71,127,2
7,71,0,46
7,71,127,2
7,71,0,46
7,71,127,2
7,71,0,46
7,71,127,2
7,71,0,46
7,71,127,2
7,71,0,46
7,71,127,2
7,71,0,46
7,70,127,2
7,70,0,46
7,71,127,2
7,71,0,46
7,74,127,2
7,74,0,46
7,71,127,2
7,71,0,46
7,74,127,2
7,74,0,46
7,71,127,2
7,71,0,46
7,71,127,2
7,71,0,46
7,69,127,2
7,69,0,46
7,74,127,2
7,74,0,46
7,71,127,2
7,71,0,46
7,69,127,2
7,69,0,46
7,74,127,2
7,74,0,46
7,71,127,2
7,71,0,46
7,69,127,2
7,69,0,46
7,67,127,2
7,67,0,46
7,62,127,2
7,62,0,46
7,64,127,2
7,64,0,160
7,70,127,2912
7,70,0,46
7,71,127,2
7,71,0,46
7,71,127,2
7,71,0,46
7,71,127,2
7,71,0,46
7,71,127,2
7,71,0,46
7,71,127,2
7,71,0,46
7,71,127,2
7,71,0,46
7,71,127,2
7,71,0,46
7,70,127,2
7,70,0,46
7,71,127,2
7,71,0,46
7,71,127,2
7,71,0,46
7,71,127,2
7,71,0,46
7,71,127,2
7,71,0,46
7,71,127,2
7,71,0,46
7,71,127,2
7,71,0,46
7,71,127,2
7,71,0,46
7,70,127,2
7,70,0,46
7,71,127,2
7,71,0,46
7,71,127,2
7,71,0,46
7,71,127,2
7,71,0,46
7,71,127,2
7,71,0,46
7,71,127,2
7,71,0,46
7,71,127,2
7,71,0,46
7,71,127,2
7,71,0,46
7,79,127,2
7,79,0,46
7,78,127,2
7,78,0,46
7,76,127,2
7,76,0,46
7,74,127,2
7,74,0,46
7,71,127,2
7,71,0,46
7,69,127,2
7,69,0,46
7,66,127,2
7,66,0,46
7,71,127,2
7,71,0,46
7,70,127,2
7,70,0,46
7,71,127,2
7,71,0,46
7,71,127,2
7,71,0,46
7,71,127,2
7,71,0,46
7,71,127,2
7,71,0,46
7,71,127,2
7,71,0,46
7,71,127,2
7,71,0,46
7,71,127,2
7,71,0,46
7,70,127,2
7,70,0,46
7,71,127,2
7,71,0,46
7,71,127,2
7,71,0,46
7,71,127,2
7,71,0,46
7,71,127,2
7,71,0,46
7,71,127,2
7,71,0,46
7,71,127,2
7,71,0,46
7,71,127,2
7,71,0,46
7,70,127,2
7,70,0,46
7,71,127,2
7,71,0,46
7,74,127,2
7,74,0,46
7,71,127,2
7,71,0,46
7,74,127,2
7,74,0,46
7,71,127,2
7,71,0,46
7,71,127,2
7,71,0,46
7,69,127,2
7,69,0,46
7,79,127,2
7,79,0,46
7,78,127,2
7,78,0,46
7,76,127,2
7,76,0,46
7,74,127,2
7,74,0,46
7,71,127,2
7,71,0,46
7,69,127,2
7,69,0,46
7,67,127,2
7,67,0,46
7,69,127,2
7,69,0,46
7,64,127,2
7,64,0,160
7,70,127,2912
7,70,0,46
7,71,127,2
7,71,0,46
7,71,127,2
7,71,0,46
7,71,127,2
7,71,0,46
7,71,127,2
7,71,0,46
7,71,127,2
7,71,0,46
7,71,127,2
7,71,0,46
7,71,127,2
7,71,0,46
7,70,127,2
7,70,0,46
7,71,127,2
7,71,0,46
7,71,127,2
7,71,0,46
7,71,127,2
7,71,0,46
7,71,127,2
7,71,0,46
7,71,127,2
7,71,0,46
7,71,127,2
7,71,0,46
7,71,127,2
7,71,0,46
7,70,127,2
7,70,0,46
7,71,127,2
7,71,0,46
7,71,127,2
7,71,0,46
7,71,127,2
7,71,0,46
7,71,127,2
7,71,0,46
7,71,127,2
7,71,0,46
7,71,127,2
7,71,0,46
7,71,127,2
7,71,0,46
7,70,127,2
7,70,0,46
7,71,127,2
7,71,0,46
7,71,127,2
7,71,0,46
7,71,127,2
7,71,0,46
7,71,127,2
7,71,0,46
7,71,127,2
7,71,0,46
7,71,127,2
7,71,0,46
7,71,127,2
7,71,0,46
7,70,127,2
7,70,0,46
7,71,127,2
7,71,0,46
7,71,127,2
7,71,0,46
7,71,127,2
7,71,0,46
7,71,127,2
7,71,0,46
7,71,127,2
7,71,0,46
7,71,127,2
7,71,0,46
7,71,127,2
7,71,0,46
7,70,127,2
7,70,0,46
7,71,127,2
7,71,0,46
7,71,127,2
7,71,0,46
7,71,127,2
7,71,0,46
7,71,127,2
7,71,0,46
7,71,127,2
7,71,0,46
7,71,127,2
7,71,0,46
7,71,127,2
7,71,0,46
7,79,127,2
7,79,0,46
7,78,127,2
7,78,0,46
7,76,127,2
7,76,0,46
