track,note,velocity,time
0,42,120,0
0,42,70,188
0,42,120,188
0,42,70,92
0,42,70,92
0,42,70,92
0,56,64,0
0,60,64,0
0,65,63,0
0,61,63,0
0,82,106,0
0,36,113,0
0,42,119,0
0,70,84,0
0,104,76,0
0,77,106,1
0,73,106,1
0,70,63,0
0,83,48,0
0,78,48,0
0,74,48,0
0,77,72,0
0,42,116,0
0,70,85,0
0,81,42,0
0,76,42,0
0,72,42,0
0,80,41,0
0,75,41,0
0,71,41,0
0,70,64,11
0,78,34,0
0,73,34,0
0,69,34,0
0,77,32,0
0,70,64,0
0,72,32,0
0,42,119,0
0,70,87,0
0,68,32,0
0,72,78,0
0,77,82,0
0,75,69,1
0,99,78,0
0,75,32,0
0,70,32,0
0,66,32,0
0,73,32,0
0,68,32,0
0,64,32,0
0,77,72,2
0,70,65,0
0,70,84,0
0,70,65,3
0,39,122,1
0,92,77,0
0,63,79,0
0,68,82,0
0,40,112,0
0,70,85,0
0,68,70,2
0,70,64,19
0,70,72,2
0,70,85,0
0,70,65,17
0,70,66,0
0,70,89,1
0,99,78,0
0,73,72,1
0,70,66,31
0,36,108,0
0,70,86,0
0,75,70,0
0,70,65,2
0,104,74,0
0,72,80,1
0,36,113,0
0,42,114,0
0,70,88,0
0,56,65,1
0,63,65,0
0,60,65,0
0,77,79,0
0,70,63,18
0,70,84,11
0,70,64,20
0,42,117,6
0,63,115,0
0,70,64,0
0,70,86,1
0,63,79,1
0,68,79,0
0,99,74,0
0,70,65,33
0,42,115,0
0,70,87,0
0,70,65,3
0,63,76,1
0,39,121,0
0,77,73,1
0,42,119,0
0,70,88,0
0,40,111,0
0,92,76,0
0,70,64,18
0,70,87,6
0,70,65,3
0,63,62,1
0,70,66,0
0,70,87,1
0,70,66,31
0,70,87,0
0,70,65,2
0,36,109,4
0,42,116,0
0,70,88,0
0,104,76,0
0,54,65,1
0,58,66,0
0,61,66,0
0,65,66,0
0,70,63,17
0,77,70,10
0,42,117,1
0,70,84,0
0,70,64,20
0,70,64,1
0,75,69,1
0,42,117,0
0,70,85,0
0,72,81,1
0,77,79,0
0,99,78,1
0,77,69,2
0,70,65,1
0,70,86,0
0,70,65,3
0,39,124,0
0,40,114,0
0,92,78,0
0,63,80,1
0,68,79,0
0,70,86,0
0,68,71,1
0,70,64,19
0,70,87,6
0,70,65,17
0,70,66,13
0,70,85,1
0,99,74,0
0,70,66,31
0,70,87,0
0,70,65,2
0,49,59,4
0,54,64,1
0,58,65,0
0,61,67,0
0,65,63,0
0,104,74,0
0,72,78,1
0,36,113,0
0,42,118,0
0,70,84,0
0,77,80,1
0,70,63,18
0,42,114,11
0,70,86,0
0,70,64,20
0,49,59,4
0,36,112,2
0,70,64,1
0,42,114,1
0,70,84,0
0,63,80,1
0,68,80,0
0,99,78,0
0,70,65,33
0,36,112,0
0,42,114,0
0,70,85,0
0,70,65,3
0,49,62,0
0,56,67,0
0,63,67,0
0,56,113,0
0,39,122,0
0,60,64,1
0,36,108,0
0,40,112,0
0,42,114,0
0,70,84,0
0,92,76,0
0,70,64,18
0,42,116,0
0,42,118,0
0,70,84,0
0,58,111,2
0,70,65,19
0,42,117,1
0,49,59,0
0,36,111,2
0,70,66,5
0,70,88,1
0,63,115,1
0,70,66,0
0,36,108,0
0,42,119,0
0,70,89,0
0,70,65,2
0,49,60,1
0,56,65,2
0,60,66,0
0,65,67,0
0,61,66,0
0,36,109,0
0,42,119,0
0,70,84,0
0,104,78,0
0,70,63,4
0,82,101,2
0,77,69,0
0,42,116,0
0,70,85,0
0,77,99,1
0,73,98,1
0,70,64,2
0,83,48,0
0,78,48,0
0,74,48,0
0,70,64,1
0,42,119,0
0,70,87,0
0,72,78,1
0,77,82,0
0,75,72,0
0,99,78,0
0,81,42,0
0,76,42,0
0,72,42,0
0,80,41,0
0,75,41,0
0,71,41,0
0,78,34,0
0,73,34,0
0,69,34,0
0,56,113,0
0,77,32,0
0,72,32,0
0,77,69,0
0,70,65,0
0,70,84,0
0,68,32,0
0,75,32,0
0,70,32,0
0,66,32,0
0,73,32,0
0,68,32,0
0,64,32,0
0,70,65,2
0,39,122,0
0,40,112,0
0,92,77,0
0,63,80,0
0,68,79,0
0,70,85,0
0,68,70,0
0,70,64,7
0,70,72,2
0,70,85,0
0,70,65,17
0,70,66,0
0,70,89,1
0,99,74,0
0,73,73,1
0,70,66,31
0,36,112,0
0,70,86,0
0,75,71,0
0,70,65,2
0,104,77,0
0,72,81,1
0,36,109,0
0,42,114,0
0,70,88,0
0,56,65,1
0,63,65,0
0,60,67,0
0,77,78,0
0,70,63,18
0,70,84,11
0,70,64,20
0,42,117,6
0,70,64,1
0,70,86,1
0,63,80,1
0,68,80,0
0,99,78,0
0,70,65,33
0,42,115,0
0,70,87,0
0,70,65,3
0,39,121,4
0,77,69,1
0,40,111,0
0,42,119,0
0,70,88,0
0,92,78,0
0,70,64,18
0,70,87,6
0,70,65,19
0,70,66,13
0,70,87,1
0,70,66,31
0,70,87,0
0,70,65,2
0,36,109,5
0,42,116,0
0,70,88,0
0,104,76,0
0,54,63,1
0,58,65,0
0,61,67,0
0,65,63,0
0,70,63,17
0,77,69,10
0,42,117,1
0,70,84,0
0,70,64,20
0,70,64,1
0,75,70,1
0,42,117,0
0,70,85,0
0,72,78,1
0,77,78,0
0,99,77,1
0,77,73,2
0,70,65,1
0,70,86,0
0,70,65,3
0,39,124,0
0,40,114,0
0,92,75,0
0,63,80,1
0,68,80,0
0,70,86,0
0,68,71,1
0,70,64,19
0,70,87,6
0,70,65,17
0,70,66,13
0,70,85,1
0,99,74,0
0,70,66,31
0,70,87,0
0,70,65,2
0,49,61,4
0,54,66,1
0,58,64,0
0,61,66,0
0,65,63,0
0,104,76,0
0,72,81,0
0,36,113,0
0,42,118,0
0,70,84,0
0,42,88,0
0,77,81,1
0,70,63,18
0,42,114,11
0,70,86,0
0,70,64,4
0,49,58,4
0,36,112,2
0,37,88,0
0,70,64,1
0,42,114,1
0,70,84,0
0,63,78,1
0,68,78,0
0,99,75,0
0,70,65,1
0,36,112,0
0,42,114,0
0,70,85,0
0,32,86,0
0,70,65,3
0,49,60,0
0,56,67,0
0,63,64,0
0,39,122,0
0,60,65,1
0,36,108,0
0,42,114,0
0,70,84,0
0,40,112,0
0,92,75,0
0,44,85,0
0,70,64,1
0,42,116,0
0,42,118,6
0,70,84,0
0,70,65,6
0,42,117,1
0,49,61,0
0,36,111,2
0,39,86,0
0,70,66,13
0,70,88,1
0,70,66,1
0,36,108,0
0,42,119,0
0,70,89,0
0,84,120,0
0,44,85,0
0,70,65,2
0,56,64,5
0,60,64,0
0,65,63,0
0,61,63,0
0,82,106,0
0,36,109,0
0,42,119,0
0,49,59,0
0,70,84,0
0,104,76,0
0,34,86,0
0,77,106,1
0,73,106,1
0,70,63,17
0,83,48,0
0,78,48,0
0,74,48,0
0,44,91,0
0,77,72,0
0,42,116,0
0,70,85,0
0,81,42,0
0,76,42,0
0,72,42,0
0,80,41,0
0,75,41,0
0,71,41,0
0,70,64,3
0,78,34,0
0,73,34,0
0,69,34,0
0,77,32,0
0,70,64,0
0,46,93,0
0,72,32,0
0,42,119,0
0,70,87,0
0,68,32,0
0,72,78,0
0,77,82,0
0,75,69,1
0,99,78,0
0,75,32,0
0,70,32,0
0,66,32,0
0,73,32,0
0,68,32,0
0,64,32,0
0,44,82,1
0,77,72,1
0,70,65,0
0,70,84,0
0,70,65,2
0,46,102,1
0,39,122,0
0,92,77,0
0,63,79,0
0,68,82,0
0,70,85,0
0,40,112,0
0,68,70,2
0,70,64,19
0,44,95,0
0,70,72,2
0,70,85,0
0,70,65,2
0,41,87,11
0,70,66,0
0,70,89,1
0,99,78,0
0,73,72,1
0,44,86,19
0,70,66,3
0,36,112,0
0,70,86,0
0,29,86,0
0,75,70,0
0,70,65,2
0,46,97,5
0,104,74,0
0,72,80,1
0,36,109,0
0,42,114,0
0,70,88,0
0,29,87,0
0,56,65,1
0,63,65,0
0,60,65,0
0,77,79,0
0,70,63,18
0,70,84,8
0,70,64,20
0,42,117,6
0,70,64,1
0,70,86,1
0,63,79,1
0,68,79,0
0,99,74,0
0,70,65,33
0,42,115,0
0,70,87,0
0,70,65,3
0,39,121,0
0,77,73,1
0,40,111,0
0,42,119,0
0,70,88,0
0,92,76,0
0,46,99,1
0,70,64,10
0,44,86,5
0,70,87,1
0,70,65,2
0,46,107,12
0,70,66,1
0,70,87,1
0,70,66,0
0,70,87,0
0,70,65,2
0,36,109,0
0,42,116,0
0,70,88,0
0,104,76,0
0,27,88,0
0,54,65,1
0,58,66,0
0,61,66,0
0,65,66,0
0,70,63,4
0,77,70,10
0,42,117,1
0,70,84,0
0,70,64,4
0,70,64,0
0,46,104,1
0,75,69,0
0,42,117,0
0,70,85,0
0,72,81,1
0,77,79,0
0,99,78,1
0,44,78,1
0,77,69,1
0,70,65,1
0,70,86,0
0,70,65,3
0,39,124,0
0,46,102,0
0,40,114,0
0,92,78,0
0,63,80,1
0,68,79,0
0,70,86,0
0,68,71,1
0,70,64,4
0,44,80,4
0,70,87,2
0,70,65,5
0,41,80,12
0,70,66,1
0,70,85,1
0,99,74,0
0,44,89,18
0,70,66,1
0,70,87,0
0,70,65,2
0,49,62,4
0,46,104,1
0,54,64,0
0,58,65,0
0,61,67,0
0,65,63,0
0,104,74,0
0,72,78,1
0,36,113,0
0,42,118,0
0,70,84,0
0,42,87,0
0,77,80,1
0,70,63,18
0,44,87,9
0,42,114,2
0,70,86,0
0,70,64,1
0,49,59,4
0,36,112,2
0,37,88,0
0,46,95,1
0,70,64,0
0,42,114,1
0,70,84,0
0,63,80,1
0,68,80,0
0,99,78,0
0,44,89,22
0,70,65,1
0,36,112,0
0,42,114,0
0,70,85,0
0,32,87,0
0,70,65,3
0,46,107,0
0,39,122,0
0,49,59,0
0,56,67,0
0,63,67,0
0,40,112,0
0,60,64,1
0,36,108,0
0,42,114,0
0,70,84,0
0,92,76,0
0,44,86,0
0,70,64,1
0,42,116,0
0,42,118,0
0,70,84,0
0,70,65,6
0,42,117,1
0,49,62,0
0,36,111,2
0,39,85,0
0,70,66,5
0,70,88,1
0,70,66,1
0,36,108,0
0,42,119,0
0,70,89,0
0,32,85,0
0,70,65,2
0,49,60,3
0,56,65,2
0,60,66,0
0,65,67,0
0,61,66,0
0,36,109,0
0,42,119,0
0,70,84,0
0,104,78,0
0,34,86,0
0,70,63,2
0,77,69,11
0,42,116,0
0,70,85,0
0,70,64,20
0,70,64,0
0,46,99,0
0,42,119,0
0,70,87,0
0,72,78,1
0,77,82,0
0,75,72,1
0,99,78,0
0,44,80,0
0,77,69,1
0,70,65,0
0,70,84,0
0,70,65,3
0,46,107,0
0,39,122,0
0,40,112,1
0,92,77,0
0,63,80,0
0,68,79,0
0,70,85,0
0,68,70,0
0,70,64,5
0,44,93,1
0,70,72,1
0,70,85,0
0,70,65,7
0,41,87,10
0,70,66,0
0,70,89,1
0,99,74,0
0,73,73,1
0,44,93,26
0,70,66,3
0,36,112,0
0,70,86,0
0,29,88,0
0,75,71,0
0,70,65,2
0,104,77,0
0,46,102,1
0,72,81,0
0,36,109,0
0,42,114,0
0,70,88,0
0,29,88,0
0,56,65,1
0,63,65,0
0,60,67,0
0,77,78,0
0,70,63,1
0,44,82,8
0,70,84,3
0,70,64,7
0,42,117,6
0,46,104,1
0,70,64,0
0,70,86,1
0,63,80,1
0,68,80,0
0,99,78,0
0,70,65,1
0,42,115,0
0,70,87,0
0,70,65,1
0,39,121,3
0,40,111,1
0,46,107,1
0,77,69,0
0,42,119,0
0,70,88,0
0,92,78,0
0,70,64,0
0,44,87,5
0,70,87,1
0,70,65,2
0,46,110,12
0,70,66,1
0,70,87,1
0,70,66,0
0,70,87,0
0,70,65,2
0,36,109,5
0,42,116,0
0,70,88,0
0,104,76,0
0,27,87,0
0,54,63,1
0,58,65,0
0,61,67,0
0,65,63,0
0,70,63,17
0,77,69,1
0,42,117,1
0,70,84,0
0,70,64,20
0,70,64,0
0,46,107,1
0,75,70,0
0,42,117,0
0,70,85,0
0,72,78,1
0,77,78,0
0,99,77,1
0,44,84,2
0,77,73,0
0,70,65,1
0,70,86,0
0,70,65,3
0,39,124,0
0,46,107,0
0,40,114,0
0,92,75,0
0,63,80,1
0,68,80,0
0,70,86,0
0,68,71,1
0,70,64,8
0,44,84,3
0,70,87,3
0,70,65,9
0,41,91,10
0,70,66,3
0,70,85,1
0,99,74,0
0,44,87,26
0,70,66,3
0,70,87,0
0,70,65,2
0,46,107,4
0,49,59,0
0,54,66,1
0,58,64,0
0,61,66,0
0,65,63,0
0,104,76,0
0,72,81,1
0,36,113,0
0,42,118,0
0,70,84,0
0,42,88,0
0,77,81,1
0,70,63,4
0,44,84,9
0,42,114,2
0,70,86,0
0,70,64,4
0,49,60,4
0,36,112,2
0,37,88,0
0,46,107,0
0,70,64,1
0,42,114,1
0,70,84,0
0,63,78,1
0,68,78,0
0,99,75,0
0,44,82,27
0,70,65,1
0,36,112,0
0,42,114,0
0,70,85,0
0,32,86,0
0,70,65,3
0,46,110,0
0,39,122,0
0,49,60,0
0,56,67,0
0,63,64,0
0,40,112,0
0,60,65,1
0,36,108,0
0,42,114,0
0,70,84,0
0,92,75,0
0,44,85,0
0,70,64,1
0,42,116,0
0,42,118,2
0,70,84,0
0,70,65,6
0,42,117,1
0,49,61,0
0,36,111,2
0,39,86,0
0,70,66,10
0,70,88,1
0,56,112,0
0,44,122,0
0,70,66,0
0,36,108,0
0,42,119,0
0,70,89,0
0,84,110,0
0,44,85,0
0,70,65,2
0,61,29,0
0,65,32,0
0,68,110,0
0,56,117,0
0,56,64,0
0,60,64,0
0,65,63,0
0,61,63,0
0,82,106,0
0,36,109,0
0,42,119,0
0,49,60,0
0,70,84,0
0,104,76,0
0,34,86,0
0,92,54,0
0,77,106,1
0,73,106,1
0,70,63,17
0,83,48,0
0,78,48,0
0,74,48,0
0,77,72,3
0,42,116,0
0,70,85,0
0,81,42,0
0,76,42,0
0,72,42,0
0,80,41,0
0,75,41,0
0,71,41,0
0,70,64,11
0,78,34,0
0,73,34,0
0,69,34,0
0,77,32,0
0,70,64,0
0,68,113,0
0,56,124,0
0,72,32,0
0,42,119,0
0,70,87,0
0,68,32,0
0,72,78,0
0,77,82,0
0,75,69,1
0,99,78,0
0,75,32,0
0,70,32,0
0,66,32,0
0,73,32,0
0,68,32,0
0,64,32,0
0,63,114,2
0,51,117,0
0,77,72,0
0,70,65,0
0,70,84,0
0,70,65,3
0,39,122,0
0,40,112,1
0,92,77,0
0,63,79,0
0,68,82,0
0,70,85,0
0,68,70,0
0,70,64,19
0,70,72,2
0,70,85,0
0,70,65,17
0,70,66,0
0,61,108,1
0,49,119,0
0,70,89,0
0,99,78,0
0,73,72,1
0,63,113,20
0,51,121,0
0,70,66,0
0,36,112,0
0,70,86,0
0,29,86,0
0,75,70,0
0,70,65,2
0,60,31,4
0,63,27,0
0,104,74,0
0,72,80,1
0,36,109,0
0,42,114,0
0,70,88,0
0,29,87,0
0,56,65,1
0,63,65,0
0,60,65,0
0,77,79,0
0,70,63,18
0,70,84,11
0,70,64,12
0,42,117,6
0,70,64,1
0,70,86,1
0,63,79,1
0,68,79,0
0,99,74,0
0,70,65,33
0,42,115,0
0,70,87,0
0,70,65,3
0,39,121,3
0,40,111,1
0,77,73,1
0,42,119,0
0,70,88,0
0,92,76,0
0,70,64,18
0,70,87,6
0,70,65,19
0,70,66,13
0,65,114,1
0,53,124,0
0,70,87,0
0,66,111,4
0,54,123,0
0,70,66,0
0,70,87,0
0,70,65,2
0,61,27,3
0,65,31,0
0,68,108,2
0,56,123,0
0,36,109,0
0,42,116,0
0,70,88,0
0,104,76,0
0,27,88,0
0,54,65,1
0,58,66,0
0,61,66,0
0,65,66,0
0,70,63,17
0,77,70,10
0,42,117,1
0,70,84,0
0,70,64,20
