track,note,velocity,time
0,77,100,0
0,36,120,0
0,81,40,0
0,49,79,0
0,42,120,0
0,70,120,52
0,42,99,0
0,70,120,52
0,81,40,0
0,42,120,0
0,42,99,32
0,70,120,52
0,38,120,0
0,81,40,0
0,42,120,0
0,42,99,52
0,42,120,52
0,36,84,52
0,42,99,4
0,77,100,48
0,36,117,0
0,81,40,0
0,42,120,0
0,42,99,52
0,42,120,52
0,42,120,4
0,42,120,4
0,70,120,52
0,38,120,0
0,81,40,0
0,42,120,0
0,70,120,52
0,42,99,0
0,42,120,48
0,42,97,52
0,77,100,52
0,36,120,0
0,81,40,0
0,42,120,0
0,70,120,52
0,42,99,0
0,70,120,52
0,42,120,0
0,42,98,32
0,70,120,52
0,38,120,0
0,42,120,0
0,42,98,52
0,42,120,52
0,36,86,52
0,42,98,4
0,77,100,48
0,36,117,0
0,81,40,0
0,42,120,0
0,86,38,52
0,42,98,0
0,86,45,52
0,42,120,0
0,86,58,32
0,42,99,0
0,86,74,52
0,70,120,0
0,38,120,0
0,81,40,0
0,42,120,0
0,36,106,4
0,86,83,4
0,36,82,0
0,70,120,0
0,42,98,0
0,36,120,0
0,86,91,4
0,36,83,0
0,42,120,0
0,86,105,52
0,36,109,0
0,42,97,0
0,77,100,52
0,36,120,0
0,81,40,0
0,42,120,0
0,70,120,52
0,42,99,0
0,70,120,52
0,42,120,0
0,42,99,32
0,70,120,52
0,38,120,0
0,81,40,0
0,42,120,0
0,42,99,52
0,42,120,52
0,36,84,52
0,42,99,4
0,77,100,48
0,36,117,0
0,81,40,0
0,42,120,0
0,42,99,52
0,42,120,52
0,42,120,4
0,42,120,4
0,70,120,52
0,38,120,0
0,81,40,0
0,42,120,0
0,70,120,52
0,42,99,0
0,42,120,48
0,42,97,52
0,81,40,0
0,42,120,0
0,70,120,52
0,42,99,0
0,70,120,52
0,42,120,0
0,42,99,52
0,70,120,52
0,81,40,0
0,42,120,0
0,42,98,52
0,42,120,52
0,42,99,56
0,81,40,48
0,42,120,0
0,86,38,52
0,42,99,0
0,86,45,52
0,42,120,0
0,86,58,52
0,42,99,0
0,64,112,52
0,64,83,0
0,86,74,0
0,70,120,0
0,38,120,0
0,42,120,0
0,36,120,4
0,66,112,4
0,66,76,0
0,86,83,0
0,36,80,0
0,70,120,0
0,36,120,4
0,67,112,4
0,64,79,0
0,86,91,0
0,36,80,0
0,69,112,4
0,66,78,0
0,86,105,0
0,36,103,0
0,24,91,8
0,59,98,0
0,64,100,0
0,67,98,0
0,71,102,0
0,71,112,0
0,67,87,0
0,64,79,0
0,55,101,0
0,60,101,0
0,77,100,0
0,36,120,0
0,49,79,0
0,42,120,0
0,36,96,0
0,55,109,4
0,60,109,0
0,70,120,0
0,42,99,0
0,67,112,48
0,64,79,0
0,60,71,0
0,55,86,0
0,70,120,0
0,42,120,0
0,62,110,16
0,42,99,0
0,69,112,20
0,66,88,0
0,62,80,0
0,55,102,0
0,60,102,0
0,70,120,0
0,38,120,0
0,42,120,0
0,54,98,4
0,57,108,0
0,62,108,0
0,42,99,0
0,57,94,8
0,62,102,0
0,66,102,0
0,69,98,0
0,55,86,0
0,42,120,0
0,26,92,12
0,62,111,4
0,36,84,0
0,38,97,0
0,42,99,4
0,26,92,0
0,77,100,4
0,36,117,0
0,42,120,0
0,38,97,0
0,54,99,52
0,42,99,0
0,69,112,12
0,66,84,0
0,62,74,0
0,55,97,0
0,42,120,0
0,42,120,4
0,66,79,4
0,62,71,0
0,62,108,0
0,42,120,0
0,74,101,20
0,70,120,0
0,38,120,0
0,81,40,0
0,42,120,0
0,71,112,8
0,67,83,0
0,64,80,0
0,54,99,0
0,70,120,0
0,42,99,0
0,55,96,4
0,42,120,0
0,62,71,24
0,62,108,0
0,42,97,0
0,28,92,4
0,57,85,0
0,59,63,0
0,62,93,0
0,67,99,0
0,69,112,0
0,62,74,0
0,59,74,0
0,77,100,0
0,36,120,0
0,42,120,0
0,40,97,0
0,54,91,40
0,70,120,0
0,42,99,0
0,55,89,16
0,70,120,0
0,42,120,0
0,62,110,32
0,42,98,0
0,70,120,8
0,38,120,0
0,42,120,0
0,54,89,52
0,42,98,0
0,55,86,16
0,42,120,0
0,28,90,48
0,62,109,4
0,36,86,0
0,40,95,0
0,42,98,4
0,30,85,4
0,50,87,4
0,62,80,0
0,66,99,0
0,69,103,0
0,77,100,0
0,36,117,0
0,81,40,0
0,42,120,0
0,42,90,0
0,77,100,0
0,52,83,52
0,86,38,0
0,42,98,0
0,30,91,8
0,54,90,4
0,86,45,0
0,42,120,0
0,42,96,0
0,69,112,32
0,67,44,0
0,62,73,0
0,69,86,0
0,60,96,0
0,86,58,0
0,42,99,0
0,60,109,4
0,86,74,0
0,70,120,0
0,38,120,0
0,42,120,0
0,36,106,4
0,67,88,4
0,31,89,0
0,69,112,4
0,62,88,0
0,69,88,0
0,59,97,0
0,86,83,0
0,36,82,0
0,70,120,0
0,42,98,0
0,43,94,0
0,36,120,0
0,55,90,4
0,86,91,0
0,36,83,0
0,42,120,0
0,31,91,16
0,69,112,4
0,64,83,0
0,71,83,0
0,86,105,0
0,36,109,0
0,42,97,0
0,43,96,0
0,24,91,0
0,48,90,0
0,52,97,0
0,55,100,0
0,60,102,0
0,71,105,0
0,71,112,0
0,60,82,0
0,67,84,0
0,77,100,0
0,36,120,0
0,42,120,0
0,36,96,0
0,77,100,0
0,70,120,52
0,42,99,0
0,67,112,8
0,60,73,0
0,64,73,0
0,55,97,0
0,60,97,0
0,70,120,0
0,42,120,0
0,60,73,0
0,64,73,0
0,55,109,0
0,60,109,0
0,42,99,0
0,67,112,28
0,60,81,0
0,64,81,0
0,70,120,0
0,38,120,0
0,42,120,0
0,67,112,8
0,60,53,0
0,64,73,0
0,42,99,0
0,69,112,12
0,62,60,0
0,66,74,0
0,55,96,0
0,60,96,0
0,42,120,0
0,26,92,0
0,57,108,4
0,62,108,0
0,36,84,0
0,38,97,0
0,42,99,4
0,26,92,4
0,50,98,4
0,57,99,0
0,74,98,0
0,69,112,0
0,62,73,0
0,66,80,0
0,77,100,0
0,36,117,0
0,42,120,0
0,38,97,0
0,62,100,16
0,42,99,24
0,69,112,52
0,62,60,0
0,66,77,0
0,57,99,0
0,62,99,0
0,42,120,0
0,42,120,4
0,69,112,4
0,62,73,0
0,66,71,0
0,57,89,0
0,62,111,0
0,42,120,0
0,70,120,8
0,38,120,0
0,81,40,0
0,42,120,0
0,71,112,52
0,64,80,0
0,67,77,0
0,57,108,0
0,62,113,0
0,70,120,0
0,42,99,0
0,42,120,20
0,42,97,0
0,28,92,8
0,57,85,4
0,59,63,0
0,62,93,0
0,67,99,0
0,69,112,0
0,66,85,0
0,62,81,0
0,55,105,0
0,77,100,0
0,36,120,0
0,42,120,0
0,40,97,0
0,70,120,20
0,42,99,0
0,70,120,52
0,42,120,0
0,42,98,32
0,70,120,52
0,38,120,0
0,42,120,0
0,42,98,52
0,42,120,52
0,28,90,48
0,36,86,4
0,40,95,0
0,42,98,4
0,30,85,4
0,50,87,4
0,62,80,0
0,66,99,0
0,69,103,0
0,57,100,0
0,77,100,0
0,36,117,0
0,81,40,0
0,42,120,0
0,42,90,0
0,86,38,52
0,42,98,0
0,30,91,48
0,86,45,4
0,42,120,0
0,42,96,0
0,69,112,32
0,86,58,0
0,42,99,0
0,62,77,20
0,66,80,0
0,57,100,0
0,86,74,0
0,70,120,0
0,38,120,0
0,42,120,0
0,36,106,4
0,31,89,4
0,69,112,4
0,66,79,0
0,62,73,0
0,86,83,0
0,36,82,0
0,70,120,0
0,42,98,0
0,43,94,0
0,36,120,0
0,86,91,4
0,36,83,0
0,42,120,0
0,31,91,16
0,71,112,4
0,67,77,0
0,64,74,0
0,86,105,0
0,36,109,0
0,42,97,0
0,43,96,0
0,24,83,0
0,48,90,0
0,52,97,0
0,55,100,0
0,60,102,0
0,71,105,0
0,71,112,0
0,64,83,0
0,67,85,0
0,55,101,0
0,60,101,0
0,77,100,0
0,36,120,0
0,49,79,0
0,42,120,0
0,36,88,0
0,24,86,0
0,55,109,4
0,60,109,0
0,70,120,0
0,42,99,0
0,67,112,4
0,60,57,0
0,64,64,0
0,55,86,0
0,70,120,0
0,42,120,0
0,67,112,12
0,60,73,0
0,64,79,0
0,62,110,0
0,42,99,0
0,55,102,20
0,60,102,0
0,70,120,0
0,38,120,0
0,42,120,0
0,60,53,4
0,64,60,0
0,54,98,0
0,57,108,0
0,62,108,0
0,42,99,0
0,69,112,24
0,62,76,0
0,66,83,0
0,55,86,0
0,42,120,0
0,24,85,36
0,62,111,4
0,36,84,0
0,36,90,0
0,42,99,4
0,26,90,0
0,50,98,4
0,57,99,0
0,74,98,0
0,77,100,0
0,36,117,0
0,81,40,0
0,42,120,0
0,38,95,0
0,62,100,16
0,26,78,4
0,54,99,4
0,42,99,0
0,38,83,0
0,26,83,0
0,69,112,4
0,62,73,0
0,66,86,0
0,55,97,0
0,42,120,0
0,38,88,0
0,42,120,4
0,26,90,0
0,69,112,4
0,62,79,0
0,66,76,0
0,62,108,0
0,42,120,0
0,38,95,0
0,70,120,8
0,38,120,0
0,42,120,0
0,69,112,12
0,62,57,0
0,66,80,0
0,54,99,0
0,70,120,0
0,42,99,0
0,71,112,16
0,64,80,0
0,67,84,0
0,55,96,0
0,42,120,0
0,69,112,12
0,62,71,0
0,66,86,0
0,62,108,0
0,42,97,0
0,28,92,20
0,57,85,0
0,59,63,0
0,62,93,0
0,67,99,0
0,71,112,0
0,64,76,0
0,67,86,0
0,77,100,0
0,36,120,0
0,42,120,0
0,40,97,0
0,62,87,0
0,66,88,0
0,69,112,0
0,54,91,8
0,70,120,0
0,42,99,0
0,55,89,12
0,70,120,0
0,42,120,0
0,62,110,32
0,42,98,0
0,70,120,8
0,38,120,0
0,42,120,0
0,54,89,52
0,42,98,0
0,55,86,16
0,42,120,0
0,28,90,44
0,62,109,4
0,36,86,0
0,40,95,0
0,42,98,0
0,30,85,4
0,50,87,4
0,62,80,0
0,66,99,0
0,69,103,0
0,77,100,0
0,36,117,0
0,81,40,0
0,42,120,0
0,42,90,0
0,52,83,52
0,86,38,0
0,42,98,0
0,30,91,8
0,54,90,4
0,86,45,0
0,42,120,0
0,42,96,0
0,60,96,32
0,86,58,0
0,42,99,0
0,60,109,8
0,86,74,0
0,70,120,0
0,38,120,0
0,42,120,0
0,36,106,4
0,31,89,4
0,59,97,4
0,86,83,0
0,36,82,0
0,70,120,0
0,42,98,0
0,43,94,0
0,36,120,0
0,55,90,4
0,86,91,0
0,36,83,0
0,42,120,0
0,86,105,44
0,36,109,0
0,42,97,0
0,33,91,12
0,60,98,4
0,36,120,0
0,42,120,0
0,45,96,0
0,64,96,4
0,67,104,20
0,71,100,4
0,74,112,48
0,70,120,0
0,42,99,0
0,70,120,4
0,42,120,0
0,67,103,4
0,79,111,0
0,76,112,4
0,42,99,0
0,74,105,4
0,79,112,8
0,70,120,0
0,38,120,0
0,42,120,0
0,42,99,4
0,72,67,4
0,74,88,52
0,81,112,0
0,42,120,0
0,67,107,8
0,79,108,0
0,33,90,0
0,79,97,4
0,81,112,0
0,36,84,0
0,45,95,0
0,42,99,4
0,33,93,12
0,36,117,4
0,42,120,0
0,45,98,0
0,42,99,4
0,42,120,32
0,42,120,4
0,67,106,44
0,79,108,0
0,74,112,4
0,42,120,0
0,76,112,32
0,70,120,0
0,38,120,0
0,81,40,0
0,42,120,0
0,76,112,4
0,70,120,0
0,42,99,0
0,76,112,4
0,55,90,0
0,45,100,0
0,42,120,0
0,45,100,0
0,42,97,28
0,83,100,52
0,50,100,0
0,81,40,0
0,42,120,0
0,50,100,0
0,70,120,32
0,42,99,0
0,79,100,52
0,70,120,0
0,42,120,0
0,67,103,28
0,79,111,0
0,42,99,4
0,81,105,52
0,70,120,0
0,81,40,0
0,42,120,0
0,42,98,4
0,74,100,52
0,42,120,0
0,67,107,48
0,79,108,0
0,50,100,4
0,50,100,0
0,42,99,4
0,50,100,48
0,81,40,0
0,42,120,0
0,50,100,0
0,86,38,4
0,42,99,0
0,86,45,32
0,42,120,0
0,67,106,28
0,79,108,0
0,86,58,4
0,42,99,0
0,86,74,52
0,70,120,0
0,38,120,0
0,42,120,0
0,36,120,4
0,86,83,4
0,36,80,0
0,70,120,0
0,36,120,4
0,86,91,4
0,36,80,0
0,86,105,52
0,36,103,0
0,59,98,52
0,64,100,0
0,67,98,0
0,71,102,0
0,36,120,0
0,49,79,0
0,42,120,0
0,70,120,52
0,42,99,0
0,70,120,52
0,42,120,0
0,42,99,52
0,70,120,52
0,38,120,0
0,42,120,0
0,42,99,52
0,42,120,8
0,36,84,52
0,42,99,4
0,57,94,48
0,62,102,0
0,66,102,0
0,69,98,0
0,36,117,0
0,42,120,0
0,42,99,52
0,42,120,52
0,42,120,4
0,42,120,4
0,70,120,52
0,38,120,0
0,81,40,0
0,42,120,0
0,70,120,52
0,42,99,0
0,74,101,48
0,42,120,0
0,42,97,52
0,57,85,4
0,59,63,0
0,62,93,0
0,67,99,0
0,36,120,0
0,42,120,0
0,70,120,52
0,42,99,0
0,70,120,52
0,42,120,0
0,42,98,52
0,70,120,52
0,38,120,0
0,42,120,0
0,42,98,52
0,42,120,52
0,36,86,52
0,42,98,4
0,50,87,8
0,62,80,0
0,66,99,0
0,69,103,0
0,36,117,0
0,81,40,0
0,42,120,0
0,86,38,52
0,42,98,0
0,86,45,52
0,42,120,0
0,86,58,52
0,42,99,0
0,86,74,52
0,70,120,0
0,38,120,0
0,42,120,0
0,36,106,4
0,86,83,4
0,36,82,0
0,70,120,0
0,42,98,0
0,36,120,0
0,86,91,4
0,36,83,0
0,42,120,0
0,86,105,44
0,36,109,0
0,42,97,0
0,48,90,52
0,52,97,0
0,55,100,0
0,60,102,0
0,71,105,0
0,36,120,0
0,42,120,0
0,70,120,52
0,42,99,0
0,70,120,52
0,42,120,0
0,42,99,52
0,70,120,52
0,38,120,0
0,42,120,0
0,42,99,52
0,42,120,52
0,36,84,52
0,42,99,4
0,50,98,28
0,57,99,0
0,74,98,0
0,36,117,0
0,42,120,0
0,62,100,16
0,42,99,40
0,42,120,52
0,42,120,4
0,42,120,4
0,70,120,52
0,38,120,0
0,81,40,0
0,42,120,0
0,70,120,52
0,42,99,0
0,42,120,48
0,42,97,24
0,57,85,52
0,59,63,0
0,62,93,0
0,67,99,0
0,36,120,0
0,42,120,0
0,70,120,52
0,42,99,0
0,70,120,52
0,42,120,0
0,42,98,52
0,70,120,52
0,38,120,0
0,42,120,0
0,42,98,52
0,42,120,52
0,36,86,52
0,42,98,4
0,50,87,8
0,62,80,0
0,66,99,0
0,69,103,0
0,36,117,0
0,81,40,0
0,42,120,0
0,86,38,52
0,42,98,0
0,86,45,52
0,42,120,0
0,86,58,52
0,42,99,0
0,86,74,52
0,70,120,0
0,38,120,0
0,42,120,0
0,36,106,4
0,86,83,4
0,36,82,0
0,70,120,0
0,42,98,0
0,36,120,0
0,86,91,4
0,36,83,0
0,42,120,0
0,86,105,44
0,36,109,0
0,42,97,0
0,59,98,52
0,64,100,0
0,67,98,0
0,71,102,0
0,36,120,0
0,49,79,0
0,42,120,0
0,70,120,52
0,42,99,0
0,70,120,52
0,42,120,0
0,42,99,52
0,70,120,52
0,38,120,0
0,42,120,0
0,42,99,52
0,42,120,8
0,36,84,52
0,42,99,4
0,57,94,48
0,62,102,0
0,66,102,0
0,69,98,0
0,36,117,0
0,81,40,0
0,42,120,0
0,42,99,52
0,42,120,52
0,42,120,4
0,42,120,4
0,70,120,52
0,38,120,0
0,42,120,0
0,70,120,52
0,42,99,0
0,74,101,48
0,42,120,0
0,42,97,52
0,57,85,4
0,59,63,0
0,62,93,0
0,67,99,0
0,36,120,0
0,42,120,0
0,70,120,52
0,42,99,0
0,70,120,52
0,42,120,0
0,42,98,52
0,70,120,52
0,38,120,0
0,42,120,0
0,42,98,52
0,42,120,52
