track,note,velocity,time
0,60,83,0
0,64,79,96
0,67,84,64
0,67,108,572
0,65,108,28
0,65,104,64
0,36,96,0
0,35,101,0
0,64,110,4
0,42,65,12
0,62,109,12
0,31,95,0
0,35,104,0
0,63,107,16
0,64,102,0
0,42,68,0
0,72,104,226
0,36,102,128
0,35,100,0
0,42,62,380
0,67,112,2
0,31,96,0
0,35,102,0
0,65,108,16
0,42,64,2
0,64,104,74
0,36,95,128
0,35,108,0
0,42,66,380
0,64,104,10
0,31,95,0
0,35,105,0
0,62,107,24
0,42,69,0
0,64,104,28
0,36,102,28
0,35,101,0
0,42,69,380
0,65,104,80
0,31,95,0
0,35,105,0
0,67,113,2
0,42,61,0
0,70,115,58
0,41,99,128
0,35,104,0
0,69,106,2
0,42,64,20
0,67,103,312
0,36,96,0
0,35,103,0
0,68,105,16
0,69,103,6
0,42,60,0
0,77,105,240
0,41,101,128
0,35,105,0
0,42,62,380
0,62,108,360
0,36,104,0
0,35,104,0
0,42,61,380
0,65,103,2
0,65,109,22
0,36,102,0
0,35,106,0
0,64,111,6
0,42,68,0
0,62,102,2
0,60,104,2
0,43,109,128
0,57,103,0
0,65,105,0
0,31,101,0
0,35,109,0
0,42,67,16
0,48,108,34
0,55,104,0
0,64,109,0
0,36,102,0
0,35,106,0
0,42,69,376
0,67,113,344
0,31,95,0
0,35,109,0
0,42,65,380
0,65,106,28
0,65,113,18
0,36,99,0
0,35,101,0
0,64,102,22
0,42,63,16
0,62,107,0
0,31,98,0
0,35,102,0
0,63,103,30
0,64,106,46
0,42,62,0
0,72,103,238
0,36,95,128
0,35,101,0
0,42,62,10
0,67,112,18
0,31,104,0
0,35,99,0
0,65,104,18
0,42,63,2
0,64,103,22
0,36,96,128
0,35,96,0
0,42,68,22
0,64,116,18
0,31,102,0
0,35,96,0
0,62,102,10
0,42,60,0
0,64,106,2
0,36,95,120
0,35,101,0
0,42,69,380
0,65,102,138
0,31,101,0
0,35,101,0
0,67,108,6
0,42,67,0
0,70,112,18
0,41,95,32
0,35,103,0
0,69,102,2
0,67,109,2
0,65,108,32
0,42,68,0
0,67,103,348
0,36,100,0
0,35,104,0
0,68,105,40
0,69,106,16
0,42,62,0
0,77,104,234
0,41,101,128
0,35,99,0
0,69,108,14
0,42,61,0
0,69,115,48
0,36,103,0
0,35,97,0
0,72,113,26
0,42,67,0
0,72,106,18
0,69,108,0
0,74,105,0
0,43,104,0
0,35,104,0
0,71,105,20
0,71,105,2
0,42,62,0
0,71,107,64
0,38,97,128
0,35,102,0
0,71,114,64
0,42,64,0
0,69,103,76
0,67,112,80
0,67,105,100
0,71,103,0
0,43,99,0
0,35,95,0
0,42,65,2
0,69,102,2
0,38,100,0
0,35,104,0
0,72,115,4
0,42,65,0
0,69,105,20
0,67,102,0
0,72,103,0
0,41,105,0
0,35,95,0
0,69,109,8
0,67,116,18
0,65,103,22
0,42,66,4
0,65,115,30
0,67,113,22
0,36,99,0
0,35,104,0
0,67,111,64
0,42,67,32
0,65,106,20
0,65,103,116
0,69,104,0
0,41,98,0
0,35,103,0
0,42,64,12
0,62,104,160
0,36,98,0
0,35,103,0
0,42,61,0
0,65,103,2
0,65,113,0
0,36,104,0
0,35,100,0
0,64,106,2
0,42,69,0
0,62,109,9
0,60,104,2
0,43,109,128
0,57,106,0
0,65,105,0
0,31,102,0
0,35,99,0
0,42,66,380
0,48,107,58
0,55,105,0
0,64,108,0
0,36,102,0
0,35,104,0
0,67,115,716
0,65,108,32
0,65,105,32
0,48,110,0
0,36,99,0
0,35,101,0
0,64,109,6
0,52,110,126
0,42,65,2
0,55,101,2
0,60,107,0
0,64,66,0
0,64,102,14
0,60,102,2
0,55,69,6
0,52,69,2
0,43,110,0
0,62,107,0
0,31,104,0
0,35,104,0
0,63,104,16
0,52,101,0
0,64,107,2
0,42,68,0
0,55,107,0
0,60,112,0
0,64,103,6
0,64,106,12
0,60,104,4
0,55,69,2
0,52,69,4
0,72,105,4
0,48,110,0
0,36,103,0
0,35,100,0
0,52,111,2
0,42,62,2
0,55,101,2
0,60,102,0
0,64,123,4
0,64,102,0
0,55,69,4
0,60,69,0
0,52,69,6
0,67,106,0
0,43,103,0
0,31,102,0
0,35,102,0
0,52,105,2
0,55,109,2
0,65,107,2
0,42,64,0
0,60,102,2
0,64,109,0
0,64,103,8
0,60,106,4
0,55,69,2
0,52,69,6
0,64,105,0
0,48,110,0
0,36,97,0
0,35,108,0
0,52,101,6
0,55,105,2
0,42,66,2
0,60,112,2
0,64,103,0
0,64,105,20
0,60,69,2
0,55,69,2
0,52,69,6
0,64,103,0
0,43,114,0
0,31,103,0
0,35,105,0
0,52,101,0
0,55,105,6
0,62,108,2
0,60,112,0
0,42,69,0
0,64,105,0
0,64,113,2
0,60,69,4
0,55,69,2
0,52,69,2
0,64,106,14
0,48,110,0
0,36,96,0
0,35,101,0
0,52,101,6
0,42,69,0
0,55,102,2
0,60,110,0
0,64,103,6
0,64,105,2
0,60,111,2
0,55,69,4
0,52,69,2
0,43,110,0
0,31,101,0
0,35,105,0
0,65,114,252
0,52,101,0
0,55,103,0
0,60,112,2
0,42,61,0
0,64,112,2
0,67,106,2
0,64,110,2
0,60,69,4
0,55,69,2
0,52,69,2
0,70,108,2
0,41,110,0
0,41,95,0
0,35,104,0
0,69,109,2
0,67,115,64
0,53,110,21
0,65,105,2
0,42,64,0
0,57,101,2
0,60,107,0
0,65,66,0
0,65,102,14
0,60,102,2
0,57,69,6
0,53,69,2
0,48,110,0
0,67,107,0
0,36,102,0
0,35,103,0
0,68,109,16
0,53,101,4
0,69,107,2
0,42,60,0
0,57,107,2
0,60,112,0
0,65,103,6
0,65,106,12
0,60,104,4
0,57,69,2
0,53,69,4
0,77,108,4
0,41,110,0
0,41,99,0
0,35,105,0
0,53,111,2
0,42,62,2
0,57,101,2
0,60,102,0
0,65,123,4
0,65,102,0
0,57,69,4
0,60,69,0
0,53,69,6
0,62,114,0
0,48,103,0
0,36,100,0
0,35,104,0
0,53,105,2
0,57,109,2
0,42,61,2
0,60,102,2
0,65,109,0
0,65,111,2
0,65,103,8
0,60,106,4
0,57,69,2
0,53,69,6
0,65,114,0
0,48,110,0
0,36,98,0
0,35,106,0
0,52,101,226
0,55,105,0
0,64,105,2
0,42,68,0
0,60,112,2
0,64,103,0
0,62,113,52
0,60,115,12
0,64,105,20
0,60,69,2
0,55,69,2
0,52,69,6
0,43,114,0
0,43,102,0
0,57,105,0
0,65,106,0
0,31,99,0
0,35,109,0
0,52,101,0
0,55,105,6
0,60,112,2
0,42,67,0
0,64,105,0
0,64,113,2
0,60,69,4
0,55,69,2
0,52,69,2
0,48,110,0
0,48,108,0
0,55,107,0
0,64,106,0
0,36,96,0
0,35,106,0
0,52,101,6
0,42,69,2
0,55,102,2
0,60,110,0
0,64,103,6
0,64,105,2
0,60,111,2
0,55,69,4
0,52,69,2
0,67,107,0
0,43,110,0
0,31,104,0
0,35,109,0
0,52,101,0
0,55,103,4
0,60,112,2
0,42,65,0
0,64,112,2
0,65,107,6
0,64,110,2
0,60,69,4
0,55,69,2
0,52,69,2
0,65,114,8
0,48,110,0
0,36,97,0
0,35,99,0
0,64,103,30
0,52,110,42
0,42,63,4
0,55,101,0
0,60,107,4
0,64,66,0
0,64,102,4
0,60,102,4
0,55,69,8
0,52,69,0
0,43,110,0
0,62,107,0
0,31,95,0
0,35,104,0
0,63,103,30
0,52,101,4
0,64,106,4
0,42,62,0
0,55,107,0
0,60,112,0
0,64,103,0
0,64,106,0
0,60,104,8
0,55,69,0
0,52,69,4
0,72,103,8
0,48,110,0
0,36,95,0
0,35,100,0
0,52,111,0
0,42,62,4
0,55,101,0
0,60,102,0
0,64,123,0
0,64,102,16
0,55,69,0
0,60,69,0
0,52,69,8
0,67,114,0
0,43,103,0
0,31,102,0
0,35,102,0
0,52,105,0
0,55,109,0
0,65,103,2
0,42,63,0
0,60,102,0
0,64,109,0
0,64,103,0
0,60,106,4
0,55,69,4
0,52,69,8
0,64,104,0
0,48,110,0
0,36,98,0
0,35,104,0
0,52,101,0
0,55,105,0
0,42,68,4
0,60,112,0
0,64,103,0
0,64,105,12
0,60,69,4
0,55,69,0
0,52,69,8
0,64,107,0
0,43,114,0
0,31,99,0
0,35,101,0
0,52,101,0
0,55,105,0
0,62,105,0
0,60,112,0
0,42,60,0
0,64,105,0
0,64,113,0
0,60,69,0
0,55,69,4
0,52,69,4
0,64,105,10
0,48,110,0
0,36,99,0
0,35,96,0
0,52,101,0
0,42,69,4
0,55,102,0
0,60,110,0
0,64,103,0
0,64,105,12
0,60,111,0
0,55,69,4
0,52,69,4
0,43,110,0
0,31,98,0
0,35,96,0
0,65,106,160
0,52,101,188
0,42,67,4
0,58,107,0
0,60,112,0
0,64,103,8
0,67,109,48
0,64,106,0
0,60,104,8
0,58,69,0
0,52,69,4
0,70,113,0
0,41,110,0
0,41,102,0
0,35,103,0
0,69,108,2
0,67,106,64
0,53,101,2
0,57,105,4
0,65,111,4
0,42,68,0
0,60,112,0
0,65,103,4
0,65,105,12
0,60,69,4
0,57,69,0
0,53,69,8
0,48,114,0
0,67,103,0
0,36,102,0
0,35,97,0
0,68,105,6
0,53,101,0
0,57,105,0
0,60,112,0
0,69,106,0
0,42,62,0
0,65,105,0
0,65,113,12
0,60,69,0
0,57,69,4
0,53,69,4
0,77,104,20
0,41,110,0
0,41,97,0
0,35,100,0
0,53,101,0
0,42,61,4
0,57,102,0
0,60,110,0
0,65,103,0
0,65,105,12
0,60,111,0
0,57,69,4
0,53,69,4
0,69,107,0
0,48,110,0
0,40,103,0
0,35,101,0
0,69,111,64
0,53,101,0
0,57,103,0
0,60,112,0
0,41,104,0
0,35,97,0
0,42,67,0
0,65,112,0
0,72,114,38
0,65,110,12
0,60,69,0
0,57,69,4
0,53,69,4
0,72,110,2
0,43,110,0
0,69,99,0
0,74,108,0
0,43,101,0
0,35,95,0
0,71,107,30
0,71,106,50
0,50,110,124
0,42,62,4
0,55,101,0
0,59,107,4
0,67,66,0
0,67,102,4
0,59,102,4
0,55,69,8
0,69,105,0
0,50,69,0
0,71,102,0
0,50,110,0
0,38,103,0
0,35,101,0
0,50,101,36
0,69,109,4
0,67,107,0
0,42,64,0
0,55,107,0
0,59,112,0
0,67,103,0
0,67,106,0
0,59,104,8
0,55,69,0
0,50,69,4
0,67,107,8
0,43,110,98
0,69,99,0
0,74,106,0
0,43,101,0
0,35,97,0
0,71,109,40
0,50,111,312
0,42,65,4
0,55,101,0
0,59,102,0
0,67,123,0
0,67,102,16
0,55,69,0
0,59,69,0
0,50,69,8
0,69,105,0
0,50,103,0
0,69,97,0
0,74,102,0
0,38,96,0
0,35,103,0
0,71,107,8
0,50,105,30
0,55,109,0
0,72,107,4
0,69,101,0
0,74,106,0
0,40,99,0
0,35,102,0
0,42,65,0
0,59,102,0
0,67,109,0
0,71,109,20
0,67,103,0
0,59,106,4
0,55,69,4
0,50,69,8
0,69,103,4
0,41,110,0
0,67,100,0
0,72,106,0
0,41,95,0
0,35,101,0
0,69,109,20
0,53,101,28
0,57,105,4
0,69,103,4
0,42,66,0
0,60,112,0
0,65,103,4
0,65,105,12
0,60,69,4
0,57,69,0
0,53,69,8
0,69,104,0
0,48,114,0
0,36,101,0
0,35,99,0
0,67,115,2
0,53,101,0
0,57,105,0
0,65,111,0
0,60,112,0
0,65,105,0
0,42,67,0
0,65,105,0
0,65,113,12
0,60,69,0
0,57,69,4
0,53,69,4
0,65,104,20
0,41,110,0
0,67,100,0
0,72,106,0
0,41,105,0
0,35,101,0
0,69,102,30
0,53,101,0
0,42,64,4
0,57,102,0
0,60,110,0
0,65,103,0
0,65,105,12
0,60,111,0
0,57,69,4
0,53,69,4
0,48,110,0
0,65,104,0
0,69,105,0
0,36,102,0
0,35,100,0
0,65,114,14
0,53,101,0
0,57,103,0
0,65,108,0
0,60,112,0
0,42,61,0
0,65,112,0
0,65,110,12
0,60,69,0
0,57,69,4
0,53,69,4
0,65,113,20
0,65,102,8
0,48,110,0
0,64,105,0
0,67,104,0
0,36,96,0
0,35,99,0
0,64,115,0
0,52,110,18
0,64,115,0
0,42,69,0
0,55,101,0
0,60,107,4
0,64,66,0
0,64,102,4
0,60,102,4
0,55,69,8
0,52,69,0
0,43,110,0
0,43,107,0
0,57,102,0
0,65,105,0
0,31,99,0
0,35,96,0
0,52,101,4
0,42,66,4
0,55,107,0
0,60,112,0
0,64,103,0
0,52,111,10
0,48,108,0
0,55,102,0
0,64,108,0
0,36,99,0
0,35,97,0
0,55,101,6
0,60,102,6
0,64,123,6
0,65,105,20
0,72,109,0
0,40,104,0
0,35,96,0
0,41,104,216
0,35,100,0
0,43,106,4
0,67,104,0
0,71,103,0
0,74,104,0
0,43,95,0
0,35,103,0
0,50,107,4
0,71,114,4
0,42,60,0
0,55,97,0
0,59,98,0
0,67,119,4
0,67,98,16
0,55,65,0
0,59,65,0
0,50,65,8
0,71,107,0
0,50,99,0
0,38,96,0
0,35,103,0
0,50,101,40
0,55,105,0
0,71,105,4
0,67,106,0
0,42,69,0
0,59,98,0
0,67,105,0
0,67,99,0
0,59,102,4
0,55,65,4
0,50,65,8
0,71,109,14
0,65,108,0
0,72,104,0
0,41,106,0
0,65,103,0
0,69,106,0
0,72,102,0
0,41,100,0
0,35,102,0
0,69,100,2
0,53,107,40
0,69,112,4
0,42,66,0
0,57,97,0
0,60,98,4
0,65,119,4
0,65,98,16
0,57,65,0
0,60,65,0
0,53,65,8
0,69,106,0
0,48,99,0
0,36,104,0
0,35,100,0
0,53,101,0
0,57,105,0
0,72,112,4
0,65,104,0
0,69,106,0
0,42,63,0
0,60,98,0
0,65,105,0
0,65,99,0
0,60,102,4
0,57,65,4
0,53,65,8
0,69,114,0
0,64,109,0
0,72,110,0
0,48,106,0
0,64,105,0
0,67,107,0
0,36,102,0
0,35,100,0
0,52,106,70
0,42,67,2
0,55,97,0
0,60,103,2
0,64,62,0
0,64,98,4
0,60,98,4
0,55,65,8
0,67,114,0
0,52,65,0
0,67,103,0
0,43,106,0
0,31,97,0
0,35,103,0
0,52,97,4
0,60,103,4
0,42,64,0
0,55,103,0
0,60,108,0
0,64,99,0
0,64,102,0
0,60,100,8
0,55,65,0
0,52,65,4
0,72,104,0
0,76,107,0
0,48,106,0
0,64,104,0
0,36,104,0
0,35,97,0
0,52,107,0
0,67,105,4
0,42,64,0
0,55,97,0
0,60,98,0
0,64,119,0
0,64,98,16
0,55,65,0
0,60,65,0
0,52,65,8
0,74,102,0
0,43,99,0
0,64,102,0
0,67,106,0
0,72,109,0
0,36,103,0
0,35,95,0
0,52,101,0
0,55,105,0
0,71,108,4
0,35,101,0
0,35,101,0
0,42,64,0
0,60,98,0
0,64,105,0
0,64,99,0
0,60,102,4
0,55,65,4
0,52,65,8
0,72,108,0
0,45,106,0
0,60,104,0
0,64,105,0
0,69,105,0
0,33,97,0
0,35,100,0
0,52,107,20
0,72,111,4
0,42,64,0
0,57,97,0
0,60,98,4
0,64,119,4
0,64,98,16
0,57,65,0
0,60,65,0
0,52,65,8
0,72,112,0
0,40,99,0
0,28,102,0
0,35,101,0
0,52,101,0
0,57,105,0
0,72,102,4
0,42,60,0
0,60,98,0
0,64,105,0
0,64,99,0
0,60,102,4
0,57,65,4
0,52,65,8
0,71,111,0
0,69,103,0
0,72,102,0
0,50,106,0
0,60,102,0
0,66,104,0
0,71,110,0
0,38,95,0
0,35,101,0
0,50,106,0
0,69,105,4
0,42,62,0
0,57,97,0
0,60,103,0
0,66,62,0
0,66,98,4
0,60,98,4
0,57,65,8
0,50,65,0
0,69,107,4
0,45,106,0
0,57,103,0
0,60,104,0
0,66,102,0
0,33,95,0
0,35,96,0
0,50,97,10
0,71,105,4
0,42,60,0
0,57,103,0
0,60,108,0
0,66,99,0
0,66,102,0
0,60,100,8
0,57,65,0
0,50,65,4
0,69,104,0
