track,note,velocity,time
15,37,84,1920
15,37,84,480
15,37,64,480
15,37,84,0
15,37,64,0
15,37,84,0
15,49,30,0
15,51,80,0
15,51,100,380
15,42,70,0
15,51,80,380
15,51,100,380
15,37,70,0
15,42,70,0
15,51,80,380
15,51,80,380
15,42,70,0
15,51,80,380
15,51,90,380
15,37,70,0
15,42,70,0
15,51,80,380
15,51,90,380
15,42,70,0
15,51,60,248
15,51,80,32
15,51,90,380
15,37,70,0
15,42,70,0
15,51,60,248
15,51,80,32
15,51,90,380
15,42,70,0
15,51,60,248
15,51,80,32
15,51,90,380
15,37,70,0
15,42,70,0
15,51,60,248
15,51,80,32
15,51,90,380
15,42,70,0
15,51,60,244
15,51,80,36
15,51,90,380
15,37,60,0
15,42,70,0
15,51,60,244
15,51,80,36
15,51,100,380
15,42,70,0
15,51,80,380
15,51,100,380
15,37,70,0
15,42,70,0
15,51,80,380
15,51,100,380
15,42,70,0
15,51,80,380
15,51,100,380
15,37,70,0
15,42,70,0
15,51,80,380
15,51,100,380
15,42,70,0
15,51,80,380
15,51,100,380
15,37,70,0
15,42,70,0
15,51,80,380
15,51,90,380
15,42,70,0
15,51,60,244
15,51,80,36
15,51,90,380
15,37,60,0
15,42,70,0
15,51,60,244
15,51,80,36
15,51,90,380
15,42,70,0
15,51,60,248
15,51,80,32
15,51,90,380
15,37,70,0
15,42,70,0
15,51,60,248
15,51,80,32
15,51,100,380
15,42,70,0
15,51,80,380
15,51,100,380
15,37,70,0
15,42,70,0
15,51,80,380
15,51,90,380
15,42,70,0
15,51,60,244
15,51,80,36
15,38,60,244
15,51,90,36
15,42,70,0
15,51,60,244
15,38,30,0
15,49,30,36
15,51,80,0
15,51,100,380
15,42,70,0
15,51,80,380
15,51,100,380
15,37,70,0
15,42,70,0
15,51,80,380
15,51,90,380
15,42,70,0
15,51,60,248
15,51,80,32
15,51,90,380
15,37,70,0
15,42,70,0
15,51,60,248
15,51,80,32
15,51,90,380
15,42,70,0
15,51,60,248
15,51,80,32
15,51,90,380
15,37,70,0
15,42,70,0
15,51,60,248
15,51,80,32
15,51,90,380
15,42,70,0
15,51,60,248
15,51,80,32
15,51,90,380
15,37,70,0
15,42,70,0
15,51,60,248
15,51,80,32
15,51,90,380
15,42,70,0
15,51,60,244
15,51,80,36
15,51,90,380
15,37,60,0
15,42,70,0
15,51,60,244
15,51,80,36
15,51,100,380
15,42,70,0
15,51,80,380
15,51,100,380
15,37,70,0
15,42,70,0
15,51,80,380
15,51,90,380
15,42,70,0
15,51,60,248
15,51,80,32
15,51,90,380
15,37,70,0
15,42,70,0
15,51,60,248
15,51,80,32
15,51,90,380
15,42,70,0
15,51,60,248
15,51,80,32
15,51,90,380
15,37,70,0
15,42,70,0
15,51,60,248
15,51,80,32
15,51,100,380
15,42,70,0
15,51,80,380
15,51,100,380
15,37,70,0
15,42,70,0
15,51,80,380
15,51,100,380
15,42,70,0
15,51,80,380
15,51,100,380
15,37,70,0
15,42,70,0
15,51,80,380
15,51,90,380
15,42,70,0
15,51,60,244
15,51,80,36
15,51,90,380
15,37,60,0
15,42,70,0
15,51,60,244
15,51,80,36
15,51,90,380
15,42,70,0
15,51,60,248
15,51,80,32
15,38,20,248
15,51,90,32
15,37,70,0
15,42,70,0
15,38,40,0
15,51,60,248
15,51,80,32
15,51,90,380
15,42,70,0
15,51,60,248
15,51,80,32
15,51,90,380
15,37,70,0
15,42,70,0
15,51,60,248
15,51,80,32
15,51,90,380
15,42,70,0
15,51,60,248
15,51,80,32
15,51,90,380
15,37,70,0
15,42,70,0
15,51,60,248
15,51,80,32
15,51,100,380
15,42,70,0
15,51,80,1340
15,51,80,380
15,42,70,0
15,51,80,380
15,51,90,380
15,37,70,0
15,42,70,0
15,51,80,380
15,51,90,380
15,42,70,0
15,51,60,244
15,51,80,36
15,51,90,380
15,37,60,0
15,42,70,0
15,51,60,244
15,51,80,36
15,51,80,380
15,42,70,0
15,51,80,380
15,51,90,380
15,37,70,0
15,42,70,0
15,51,80,380
15,51,90,380
15,42,70,0
15,51,60,248
15,51,80,32
15,51,90,380
15,37,70,0
15,42,70,0
15,51,60,248
15,51,80,32
15,51,90,380
15,42,70,0
15,51,60,248
15,51,80,32
15,38,20,248
15,51,90,32
15,37,70,0
15,42,70,0
15,38,40,0
15,51,60,248
15,49,30,32
15,51,80,0
15,51,100,380
15,42,70,0
15,51,80,380
15,51,100,380
15,37,70,0
15,42,70,0
15,51,80,380
15,51,100,380
15,42,70,0
15,51,80,380
15,51,100,380
15,37,70,0
15,42,70,0
15,51,80,380
15,51,90,380
15,42,70,0
15,51,60,248
15,51,80,32
15,51,90,380
15,37,70,0
15,42,70,0
15,51,60,248
15,51,80,32
15,51,100,380
15,42,70,0
15,51,80,380
15,51,100,380
15,37,70,0
15,42,70,0
15,51,80,380
15,51,90,380
15,42,70,0
15,51,60,248
15,51,80,32
15,51,90,380
15,37,70,0
15,42,70,0
15,51,60,248
15,51,80,32
15,51,90,380
15,42,70,0
15,51,60,248
15,51,80,32
15,51,90,380
15,37,70,0
15,42,70,0
15,51,60,248
15,51,80,32
15,51,90,380
15,42,70,0
15,51,60,248
15,51,80,32
15,51,90,380
15,37,70,0
15,42,70,0
15,51,60,248
15,51,80,32
15,51,100,380
15,42,70,0
15,51,80,380
15,51,100,380
15,37,70,0
15,42,70,0
15,51,80,380
15,51,90,380
15,42,70,0
15,51,60,248
15,51,80,32
15,51,90,380
15,37,70,0
15,42,70,0
15,51,60,248
15,51,80,32
15,51,80,380
15,42,70,0
15,51,80,380
15,51,90,380
15,37,70,0
15,42,70,0
15,51,80,380
15,51,90,380
15,42,70,0
15,51,60,248
15,51,80,32
15,51,90,380
15,37,70,0
15,42,70,0
15,51,60,248
15,51,80,32
15,51,90,380
15,42,70,0
15,51,60,248
15,51,80,32
15,38,20,248
15,51,90,32
15,37,70,0
15,42,70,0
15,38,40,0
15,51,60,248
15,49,30,32
15,51,80,0
15,51,100,380
15,42,70,0
15,51,80,380
15,51,100,380
15,37,70,0
15,42,70,0
15,51,80,380
15,51,80,380
15,42,70,0
15,51,80,380
15,51,90,380
15,37,70,0
15,42,70,0
15,51,80,380
15,51,90,380
15,42,70,0
15,57,56,1340
15,57,57,0
15,57,60,0
15,57,62,0
15,57,65,0
15,57,67,0
15,57,70,0
15,57,71,0
15,57,74,0
15,57,76,0
15,57,79,0
15,57,81,0
15,57,84,0
15,57,86,0
15,57,88,0
15,57,90,0
15,57,93,0
15,51,80,900
15,51,90,380
15,42,70,0
15,51,60,248
15,51,80,32
15,51,90,380
15,37,70,0
15,42,70,0
15,51,60,248
15,51,80,32
15,51,80,380
15,42,70,0
15,51,80,380
15,51,90,380
15,37,70,0
15,42,70,0
15,51,80,380
15,51,100,380
15,42,70,0
15,51,80,380
15,51,100,380
15,37,70,0
15,42,70,0
15,51,80,380
15,51,90,380
15,42,70,0
15,51,60,248
15,51,80,32
15,38,20,248
15,51,90,32
15,37,70,0
15,42,70,0
15,38,40,0
15,51,60,248
15,51,80,32
15,51,90,380
15,42,70,0
15,51,60,244
15,51,80,36
15,51,90,380
15,37,60,0
15,42,70,0
15,51,60,244
15,51,80,36
15,51,100,380
15,42,70,0
15,51,80,380
15,51,100,380
15,37,70,0
15,42,70,0
15,51,80,380
15,51,100,380
15,42,70,0
15,51,80,380
15,51,100,380
15,37,70,0
15,42,70,0
15,51,80,380
15,51,100,380
15,42,70,0
15,51,80,380
15,51,100,380
15,37,70,0
15,42,70,0
15,51,80,380
15,51,90,380
15,42,70,0
15,51,60,244
15,51,80,36
15,51,90,380
15,37,60,0
15,42,70,0
15,51,60,244
15,51,80,36
15,51,80,380
15,42,70,0
15,51,80,380
15,51,90,380
15,37,70,0
15,42,70,0
15,51,80,380
15,51,90,380
15,42,70,0
15,51,60,248
15,51,80,32
15,51,90,380
15,37,70,0
15,42,70,0
15,51,60,248
15,51,80,32
15,51,90,380
15,42,70,0
15,51,60,248
15,51,80,32
15,51,90,380
15,37,70,0
15,42,70,0
15,51,60,248
15,51,80,32
15,51,90,380
15,42,70,0
15,51,60,244
15,51,80,36
15,51,90,380
15,37,60,0
15,42,70,0
15,51,60,244
15,51,80,36
15,51,90,380
15,42,70,0
15,51,60,248
15,51,80,32
15,51,90,380
15,37,70,0
15,42,70,0
15,51,60,248
15,51,80,0
15,51,80,860
15,51,75,860
15,57,75,0
15,57,30,0
15,57,31,0
15,57,32,0
15,57,33,0
15,57,35,0
15,57,36,0
15,57,37,0
15,57,37,0
15,57,40,0
15,57,40,0
15,57,42,0
15,57,42,0
15,57,44,0
15,57,45,0
15,57,46,0
15,57,47,0
15,57,49,0
15,57,50,0
15,57,51,0
15,57,52,0
15,57,54,0
15,57,55,0
15,57,56,0
15,57,57,0
15,57,59,0
15,57,60,0
15,57,61,0
15,57,62,0
15,57,64,0
15,57,65,0
15,57,66,0
15,57,67,0
15,51,75,900
15,57,75,0
15,57,28,0
15,57,28,0
15,57,30,0
15,57,30,0
15,57,31,0
15,57,31,0
15,57,32,0
15,57,32,0
15,57,33,0
15,57,33,0
15,57,35,0
15,57,35,0
15,57,36,0
15,57,36,0
15,57,37,0
15,57,37,0
15,57,38,0
15,57,38,0
15,57,40,0
15,57,40,0
15,57,41,0
15,57,41,0
15,57,42,0
15,57,42,0
15,57,44,0
15,57,44,0
15,57,45,0
15,57,45,0
15,57,46,0
15,57,46,0
15,57,47,0
15,57,49,0
15,57,49,0
15,57,49,0
15,57,50,0
15,57,50,0
15,57,51,0
15,57,51,0
15,57,52,0
15,57,52,0
15,57,54,0
15,57,54,0
15,57,55,0
15,57,55,0
15,57,56,0
15,57,56,0
15,57,57,0
15,57,57,0
15,57,59,0
15,57,59,0
15,57,60,0
15,57,60,0
15,57,61,0
15,57,61,0
15,57,62,0
15,57,62,0
15,57,64,0
15,57,64,0
15,57,65,0
15,57,65,0
15,57,66,0
15,57,66,0
15,57,67,0
16,39,78,5760
16,41,80,480
16,43,75,400
16,46,76,436
16,48,88,0
16,36,82,480
16,39,86,404
16,42,84,444
16,41,86,0
16,40,80,24
16,41,70,0
16,41,72,0
16,29,69,0
16,34,70,88
16,34,70,0
16,34,70,0
16,34,70,0
16,39,81,0
16,46,80,480
16,39,82,0
16,39,94,40
16,38,75,40
16,39,81,0
16,46,80,480
16,39,86,0
16,34,62,336
16,46,79,44
16,34,64,292
16,39,86,96
16,38,80,24
16,39,86,0
16,34,62,336
16,46,79,44
16,34,64,292
16,36,72,96
16,24,69,0
16,36,70,88
16,36,72,0
16,24,69,0
16,41,72,88
16,29,69,0
16,39,87,88
16,39,80,88
16,46,73,136
16,39,72,0
16,27,69,0
16,39,70,88
16,41,70,0
16,41,87,0
16,41,80,88
16,47,73,136
16,41,72,0
16,29,69,0
16,34,98,88
16,35,105,0
16,34,82,0
16,34,94,40
16,38,75,40
16,39,72,0
16,27,69,0
16,37,70,88
16,41,70,0
16,34,72,0
16,22,69,0
16,39,94,88
16,34,45,332
16,46,77,24
16,43,85,60
16,39,87,0
16,34,65,128
16,36,85,24
16,42,84,0
16,39,79,0
16,36,97,0
16,41,98,0
16,42,105,0
16,41,70,0
16,41,72,0
16,29,69,0
16,34,72,88
16,22,69,0
16,34,72,88
16,22,69,0
16,34,72,88
16,22,69,0
16,34,70,88
16,39,82,0
16,39,94,40
16,38,75,40
16,39,87,0
16,39,80,88
16,46,73,136
16,39,86,0
16,38,80,24
16,39,82,0
16,39,94,40
16,38,75,40
16,39,87,0
16,39,80,88
16,46,73,136
16,39,86,0
16,34,62,336
16,46,79,44
16,34,64,292
16,36,70,96
16,36,70,0
16,36,70,0
16,41,70,0
16,39,86,0
16,34,62,336
16,46,79,44
16,34,64,292
16,39,72,96
16,27,69,0
16,39,70,88
16,41,70,0
16,41,87,0
16,29,64,336
16,42,87,16
16,41,72,0
16,29,69,0
16,34,87,88
16,22,64,336
16,35,87,16
16,34,98,0
16,40,105,0
16,39,86,0
16,34,62,336
16,46,79,44
16,34,64,292
16,39,82,96
16,39,94,40
16,43,75,40
16,44,86,0
16,43,80,24
16,44,72,0
16,32,69,0
16,44,72,88
16,32,69,0
16,41,87,88
16,41,80,88
16,47,73,136
16,41,72,0
16,29,69,0
16,35,70,88
16,43,72,0
16,31,69,0
16,43,85,88
16,37,98,960
16,25,91,336
16,37,100,20
16,37,70,4
16,37,72,0
16,25,69,0
16,36,86,88
16,31,62,336
16,43,79,44
16,31,64,292
16,36,72,96
16,24,69,0
16,38,72,88
16,26,69,0
16,38,82,88
16,38,94,40
16,37,75,40
16,38,70,0
16,38,70,0
16,43,93,0
16,43,100,0
16,36,87,0
16,36,80,88
16,43,73,136
16,41,81,0
16,48,80,480
16,46,78,0
16,41,77,480
16,39,78,0
16,41,80,480
16,43,75,400
16,46,76,436
16,36,91,0
16,30,34,332
16,38,85,24
16,39,87,480
16,30,60,264
16,39,91,48
16,41,98,28
16,42,105,0
16,41,72,0
16,29,69,0
16,41,70,88
16,34,72,0
16,22,69,0
16,34,70,88
16,34,70,0
16,34,70,0
16,39,87,0
16,39,80,88
16,46,73,136
16,39,98,0
16,27,91,336
16,39,100,20
16,39,86,4
16,34,62,336
16,46,79,44
16,34,64,292
16,39,93,96
16,39,100,0
16,39,82,0
16,39,94,40
16,38,75,40
16,39,86,0
16,35,80,24
16,36,72,0
16,24,69,0
16,36,72,88
16,24,69,0
16,36,70,88
16,41,70,0
16,39,86,0
16,34,62,336
16,46,79,44
16,34,64,292
16,39,72,96
16,27,69,0
16,39,70,88
16,41,72,0
16,29,69,0
16,41,87,88
16,41,80,88
16,47,73,136
16,41,70,0
16,34,81,0
16,41,80,480
16,34,93,0
16,34,100,0
16,39,82,0
16,39,94,40
16,38,75,40
16,39,91,0
16,43,88,480
16,44,78,44
16,46,80,480
16,48,75,400
16,51,76,436
16,41,93,0
16,41,100,0
16,41,72,0
16,29,69,0
16,35,72,88
16,23,69,0
16,43,72,88
16,31,69,0
16,43,87,88
16,36,87,3000
16,24,64,336
16,39,87,16
16,38,98,0
16,26,91,336
16,38,100,20
16,38,81,4
16,45,80,480
16,38,82,0
16,38,94,40
16,42,75,40
16,43,87,0
16,43,80,88
16,49,73,136
16,36,86,0
16,40,80,24
16,41,87,0
16,29,64,336
16,35,87,16
16,34,87,0
16,34,80,88
16,41,73,136
16,39,78,0
16,41,80,480
16,43,75,400
16,46,76,436
16,36,85,0
16,30,64,332
16,38,83,72
16,39,90,4
16,30,68,20
16,42,92,76
16,30,61,12
16,41,86,108
16,40,80,24
16,41,72,0
16,29,69,0
16,41,72,88
16,29,69,0
16,34,72,88
16,22,69,0
16,34,70,88
16,34,72,0
16,22,69,0
16,34,72,88
16,22,69,0
16,39,86,88
16,34,62,336
16,46,79,44
16,34,64,292
16,39,86,96
16,38,80,24
16,39,87,0
16,39,80,88
16,46,73,136
16,39,82,0
16,39,94,40
16,38,75,40
16,39,81,0
16,46,80,480
16,39,87,0
16,39,80,88
16,46,73,136
16,36,72,0
16,24,69,0
16,36,72,88
16,24,69,0
16,36,72,88
16,24,69,0
16,41,72,88
16,29,69,0
16,39,98,88
16,27,91,336
16,39,100,20
16,39,72,4
16,27,69,0
16,39,72,88
16,27,69,0
16,41,70,88
16,41,86,0
16,35,62,336
16,47,79,44
16,35,64,292
16,41,70,96
16,34,100,0
16,39,102,32
16,39,87,80
17,58,65,5760
17,55,65,0
17,63,65,0
17,60,65,0
17,54,65,0
17,51,65,0
17,60,65,0
17,57,65,0
17,60,65,0
17,56,65,0
17,65,65,0
17,51,65,0
17,60,65,0
17,56,65,0
17,53,65,0
17,51,65,0
17,59,65,0
17,56,65,0
17,65,65,0
17,51,65,0
17,65,65,0
17,62,65,0
17,58,65,0
17,56,65,0
17,65,65,0
17,62,65,0
17,72,65,0
17,56,65,0
17,65,65,0
17,62,65,0
17,71,65,0
17,56,65,0
17,66,65,0
17,62,65,0
17,58,65,0
