track,note,velocity,time
2,28,113,0
2,35,114,0
2,36,114,86
2,37,114,80
2,28,114,9
2,29,114,70
2,30,114,90
2,35,114,13
2,35,114,42
2,32,114,4
2,30,103,45
2,28,114,90
2,35,114,4
2,36,114,100
2,37,114,80
2,28,114,4
2,29,114,77
2,30,114,84
2,35,114,10
2,35,114,55
2,32,114,7
2,30,114,77
2,28,114,84
2,35,114,12
2,36,114,89
2,37,114,87
2,30,112,4
2,35,114,16
2,28,106,365
2,37,114,109
2,30,114,4
2,30,114,80
2,35,114,4
2,32,114,41
2,30,114,80
2,28,114,84
2,35,114,4
2,36,114,86
2,37,114,80
2,30,114,4
2,35,114,4
2,28,108,10
2,30,113,12
2,32,114,64
2,33,114,90
2,28,104,23
2,30,114,16
2,32,114,80
2,33,114,87
2,28,114,10
2,30,114,32
2,32,114,76
2,33,114,80
2,33,114,80
2,35,114,39
2,32,114,4
2,30,114,77
2,28,114,84
2,35,114,12
2,36,114,83
2,37,114,80
2,30,114,4
2,33,114,16
2,34,114,86
2,35,114,90
2,32,114,4
2,30,114,84
2,28,114,77
2,35,114,4
2,36,114,76
2,37,114,90
2,30,114,4
2,30,114,106
2,35,114,4
2,28,98,365
2,35,114,36
2,36,114,83
2,37,114,74
2,30,114,4
2,35,114,93
2,32,114,16
2,30,114,84
2,28,114,80
2,30,114,42
2,32,114,77
2,33,114,84
2,32,114,6
2,30,114,80
2,28,114,89
2,30,112,4
2,32,114,80
2,33,114,77
2,28,109,10
2,30,114,6
2,32,114,73
2,33,114,80
2,33,114,106
2,28,114,32
2,35,114,4
2,32,114,4
2,30,114,68
2,28,114,84
2,35,114,16
2,36,114,86
2,37,114,76
2,28,114,3
2,29,114,64
2,30,114,74
2,35,114,4
2,32,112,4
2,30,112,71
2,28,114,77
2,35,114,4
2,36,114,83
2,37,114,77
2,28,114,3
2,29,114,76
2,30,114,87
2,30,114,77
2,35,114,23
2,28,114,90
2,35,114,26
2,36,114,80
2,37,114,73
2,28,114,4
2,29,114,61
2,30,114,74
2,35,114,26
2,32,114,4
2,30,114,84
2,28,114,87
2,30,114,23
2,32,114,83
2,33,114,100
2,28,109,16
2,30,114,4
2,32,114,87
2,33,114,84
2,32,114,4
2,30,114,84
2,28,114,87
2,30,114,4
2,32,114,83
2,33,114,87
2,33,114,220
2,33,114,90
2,28,114,20
2,30,114,10
2,32,114,73
2,33,114,77
2,37,114,64
2,40,114,68
2,37,114,23
2,28,114,19
2,32,114,74
2,35,114,36
2,32,114,3
2,35,114,36
2,30,114,20
2,34,114,25
2,37,114,3
2,30,114,3
2,32,114,13
2,34,114,48
2,35,114,84
2,35,114,87
2,35,114,71
2,32,114,20
2,30,114,77
2,28,113,80
2,35,114,0
2,36,114,86
2,37,114,80
2,28,114,9
2,29,114,70
2,30,114,90
2,35,114,13
2,35,114,42
2,32,114,4
2,30,103,45
2,28,114,90
2,35,114,4
2,36,114,80
2,37,114,80
2,28,114,3
2,29,114,51
2,30,114,74
2,30,114,73
2,35,114,7
2,28,114,84
2,35,114,23
2,36,114,80
2,37,114,67
2,28,113,7
2,29,108,60
2,30,114,80
2,30,114,90
2,35,114,4
2,32,114,10
2,30,114,74
2,28,114,87
2,33,114,10
2,32,114,4
2,30,114,77
2,28,114,87
2,30,110,4
2,32,114,84
2,33,114,84
2,32,114,4
2,30,114,84
2,28,114,87
2,30,114,3
2,32,114,80
2,33,114,80
2,33,114,57
2,30,114,4
2,28,114,186
3,59,113,1536
3,56,113,0
3,52,113,0
3,61,113,0
3,59,113,0
3,56,113,0
3,64,113,0
3,64,113,0
3,61,113,0
3,57,113,0
3,66,113,0
3,63,113,0
3,59,113,0
3,54,113,0
3,59,113,0
3,56,113,0
3,52,113,0
3,61,113,0
3,59,113,0
3,56,113,0
3,64,113,0
3,64,113,0
3,61,113,0
3,57,113,0
3,66,113,0
3,63,113,0
3,59,113,0
3,54,113,0
3,59,113,0
3,56,113,0
3,52,113,0
3,61,113,0
3,59,113,0
3,56,113,0
3,64,113,0
3,64,113,0
3,61,113,0
3,57,113,0
3,66,113,0
3,63,113,0
3,59,113,0
3,54,113,0
3,40,97,384
3,56,127,0
3,42,107,7
3,57,122,0
3,59,112,119
3,44,122,0
3,40,102,0
3,56,127,0
3,59,113,0
3,56,113,0
3,52,113,0
3,61,113,0
3,59,113,0
3,56,113,0
3,64,113,0
3,64,113,0
3,61,113,0
3,57,113,0
3,66,113,0
3,59,113,0
3,54,113,0
3,51,113,0
3,59,113,0
3,56,113,0
3,52,113,0
3,61,113,0
3,59,113,0
3,56,113,0
3,64,113,0
3,64,113,0
3,61,113,0
3,57,113,0
3,66,113,0
3,63,113,0
3,59,113,0
3,54,113,0
3,59,113,0
3,56,113,0
3,52,113,0
3,61,113,0
3,57,113,0
3,52,113,0
3,59,113,0
3,56,113,0
3,52,113,0
3,61,113,0
3,57,113,0
3,52,113,0
3,59,113,0
3,56,113,0
3,52,113,0
3,61,113,0
3,57,113,0
3,52,113,0
3,64,113,0
3,61,113,0
3,57,113,0
3,66,113,0
3,63,113,0
3,59,113,0
3,54,113,0
3,59,113,0
3,56,113,0
3,52,113,0
3,61,113,0
3,59,113,0
3,56,113,0
3,64,113,0
3,64,113,0
3,61,113,0
3,57,113,0
3,66,113,0
3,63,113,0
3,59,113,0
3,54,113,0
3,40,79,384
3,56,127,3
3,57,113,10
3,42,59,0
3,44,68,0
3,44,115,0
3,59,104,0
3,40,92,0
3,56,127,0
3,59,113,0
3,56,113,0
3,52,113,0
3,61,113,0
3,59,113,0
3,56,113,0
3,64,113,0
3,64,113,0
3,61,113,0
3,57,113,0
3,66,113,0
3,63,113,0
3,59,113,0
3,54,113,0
3,59,113,0
3,56,113,0
3,52,113,0
3,61,113,0
3,59,113,0
3,56,113,0
3,64,113,0
3,64,113,0
3,61,113,0
3,57,113,0
3,66,113,0
3,63,113,0
3,59,113,0
3,54,113,0
3,59,113,0
3,56,113,0
3,52,113,0
3,61,113,0
3,57,113,0
3,52,113,0
3,59,113,0
3,56,113,0
3,52,113,0
3,61,113,0
3,57,113,0
3,52,113,0
3,59,113,0
3,56,113,0
3,52,113,0
3,61,113,0
3,57,113,0
3,52,113,0
3,64,113,0
3,61,113,0
3,57,113,0
3,66,113,0
3,59,113,0
3,56,113,0
3,52,113,0
3,59,113,0
3,56,113,0
3,52,113,0
3,61,113,0
3,59,113,0
3,56,113,0
3,64,113,0
3,64,113,0
3,61,113,0
3,57,113,0
3,66,113,0
3,63,113,0
3,59,113,0
3,54,113,0
3,59,113,0
3,56,113,0
3,52,113,0
3,61,113,0
3,59,113,0
3,56,113,0
3,64,113,0
3,64,113,0
3,61,113,0
3,57,113,0
3,66,113,0
3,63,113,0
3,59,113,0
3,54,113,0
3,59,113,0
3,56,113,0
3,52,113,0
3,61,113,0
3,59,113,0
3,56,113,0
3,64,113,0
3,64,113,0
3,61,113,0
3,57,113,0
3,66,113,0
3,63,113,0
3,59,113,0
3,54,113,0
3,59,113,0
3,56,113,0
3,52,113,0
3,61,113,0
3,57,113,0
3,52,113,0
3,59,113,0
3,56,113,0
3,52,113,0
3,61,113,0
3,57,113,0
3,52,113,0
3,59,113,0
3,56,113,0
3,52,113,0
3,61,113,0
3,57,113,0
3,52,113,0
3,64,113,0
3,61,113,0
3,57,113,0
3,66,113,0
3,59,113,0
3,56,113,0
3,52,113,0
3,61,127,0
3,57,127,0
3,52,127,0
3,61,124,896
3,64,114,128
3,69,110,119
3,64,115,106
3,61,127,77
3,40,127,0
3,47,107,128
3,59,118,128
3,56,118,0
3,52,118,0
3,59,127,29
3,56,127,0
3,52,127,0
3,59,107,32
3,56,107,0
3,52,107,0
3,59,127,80
3,56,127,0
3,52,127,0
3,64,127,26
3,56,127,0
3,71,127,0
3,61,127,0
3,58,127,0
3,54,127,0
3,58,124,896
3,61,114,128
3,66,110,119
3,61,115,106
3,58,127,77
3,63,121,0
3,59,121,0
3,54,121,0
3,59,113,0
3,56,113,0
3,52,113,0
3,61,113,0
3,59,113,0
3,56,113,0
3,64,113,0
3,64,113,0
3,61,113,0
3,57,113,0
3,66,113,0
3,63,113,0
3,59,113,0
3,54,113,0
3,40,89,384
3,56,124,3
3,42,107,4
3,57,122,0
3,59,103,0
3,44,121,0
3,40,110,0
3,56,127,0
3,59,113,0
3,56,113,0
3,52,113,0
3,61,113,0
3,59,113,0
3,56,113,0
3,64,113,0
3,64,113,0
3,61,113,0
3,57,113,0
3,66,113,0
3,63,113,0
3,59,113,0
3,54,113,0
3,40,97,384
3,56,127,3
3,42,114,0
3,57,118,0
3,59,112,124
3,44,126,0
3,40,110,0
3,56,127,0
3,59,113,0
3,56,113,0
3,52,113,0
3,61,113,0
3,59,113,0
3,56,113,0
3,64,113,0
3,64,113,0
3,61,113,0
3,57,113,0
3,66,113,0
3,63,113,0
3,59,113,0
3,54,113,0
3,59,113,0
3,56,113,0
3,52,113,0
3,61,113,0
3,57,113,0
3,52,113,0
3,59,113,0
3,56,113,0
3,52,113,0
3,61,113,0
3,57,113,0
3,52,113,0
3,59,113,0
3,56,113,0
3,52,113,0
3,61,113,0
3,57,113,0
3,52,113,0
3,57,124,0
3,61,118,0
3,52,116,0
3,52,121,164
3,59,121,0
3,56,127,0
4,56,121,1920
4,64,80,0
4,52,121,730
4,59,80,0
4,52,121,730
4,57,80,0
4,54,121,730
4,63,80,0
4,56,121,730
4,64,80,0
4,52,121,730
4,59,80,0
4,52,121,730
4,57,80,0
4,54,121,730
4,63,80,0
4,56,121,730
4,64,80,0
4,52,121,730
4,59,80,0
4,52,121,730
4,57,80,0
4,54,121,730
4,63,80,0
4,56,121,730
4,64,80,0
4,52,121,730
4,59,80,0
4,52,121,730
4,57,80,0
4,54,121,730
4,63,80,0
4,56,121,730
4,64,80,0
4,52,121,730
4,59,80,0
4,52,121,730
4,57,80,0
4,54,121,730
4,63,80,0
4,56,121,730
4,64,80,0
4,52,121,730
4,61,80,0
4,56,121,730
4,64,80,0
4,52,121,730
4,61,80,0
4,56,121,730
4,64,80,0
4,52,121,730
4,61,80,0
4,52,121,730
4,57,80,0
4,54,121,730
4,63,80,0
4,56,121,730
4,64,80,0
4,52,121,730
4,59,80,0
4,52,121,730
4,57,80,0
4,54,121,730
4,63,80,0
4,56,121,730
4,64,80,0
4,52,121,730
4,59,80,0
4,52,121,730
4,57,80,0
4,54,121,730
4,63,80,0
4,56,121,730
4,64,80,0
4,52,121,730
4,59,80,0
4,52,121,730
4,57,80,0
4,54,121,730
4,63,80,0
4,56,121,730
4,64,80,0
4,52,121,730
4,61,80,0
4,56,121,730
4,64,80,0
4,52,121,730
4,61,80,0
4,56,121,730
4,64,80,0
4,52,121,730
4,61,80,0
4,52,121,730
4,57,80,0
4,56,121,730
4,64,80,0
4,56,121,730
4,64,80,0
4,52,121,730
4,59,80,0
4,52,121,730
4,57,80,0
4,54,121,730
4,63,80,0
4,56,121,730
4,64,80,0
4,52,121,730
4,59,80,0
4,52,121,730
4,57,80,0
4,54,121,730
4,63,80,0
4,56,121,730
4,64,80,0
4,52,121,730
4,59,80,0
4,52,121,730
4,57,80,0
4,54,121,730
4,63,80,0
4,56,121,730
4,64,80,0
4,52,121,730
4,61,80,0
4,56,121,730
4,64,80,0
4,52,121,730
4,61,80,0
4,56,121,730
4,64,80,0
4,52,121,730
4,61,80,0
4,52,121,730
4,57,80,0
4,56,121,730
4,64,80,0
4,52,121,730
4,61,80,0
4,52,118,730
4,61,80,0
4,56,121,730
4,64,80,0
4,56,118,730
4,64,80,0
4,49,121,730
4,58,80,0
4,49,118,730
4,58,80,0
4,54,121,730
4,63,80,0
4,54,118,730
4,63,80,0
4,56,121,730
4,64,80,0
4,52,121,730
4,59,80,0
4,52,121,730
4,57,80,0
4,54,121,730
4,63,80,0
4,56,121,730
4,64,80,0
4,52,121,730
4,59,80,0
4,52,121,730
4,57,80,0
4,54,121,730
4,63,80,0
4,56,121,730
4,64,80,0
4,52,121,730
4,59,80,0
4,52,121,730
4,57,80,0
4,54,121,730
4,63,80,0
4,56,121,730
4,64,80,0
4,52,121,730
4,61,80,0
4,56,121,730
4,64,80,0
4,52,121,730
4,61,80,0
4,56,121,730
4,64,80,0
4,52,121,730
4,61,80,0
5,59,49,1536
5,56,49,0
5,52,49,0
5,59,49,77
5,56,49,0
5,52,49,0
5,59,49,77
5,56,49,0
5,52,49,0
5,59,49,68
5,56,49,0
5,52,49,0
5,59,49,64
5,56,49,0
5,52,49,0
5,59,49,71
5,56,49,0
5,52,49,0
5,61,49,68
5,59,49,0
5,56,49,0
5,64,49,0
5,61,49,77
5,59,49,0
5,56,49,0
5,64,49,0
5,61,49,77
5,59,49,0
5,56,49,0
5,64,49,0
5,61,49,68
5,59,49,0
5,56,49,0
5,64,49,0
5,61,49,64
5,59,49,0
5,56,49,0
5,64,49,0
5,61,49,71
5,59,49,0
5,56,49,0
5,64,49,0
5,64,49,68
5,61,49,0
5,57,49,0
5,66,49,0
5,64,49,77
5,61,49,0
5,57,49,0
5,66,49,0
5,64,49,77
5,61,49,0
5,57,49,0
5,66,49,0
5,64,49,68
5,61,49,0
5,57,49,0
5,66,49,0
5,64,49,64
5,61,49,0
5,57,49,0
5,66,49,0
5,64,49,71
5,61,49,0
5,57,49,0
5,66,49,0
5,63,49,68
5,59,49,0
5,54,49,0
5,63,49,77
5,59,49,0
5,54,49,0
5,63,49,77
5,59,49,0
5,54,49,0
5,63,49,68
5,59,49,0
5,54,49,0
5,63,49,64
5,59,49,0
5,54,49,0
5,63,49,71
5,59,49,0
5,54,49,0
5,59,49,68
5,56,49,0
5,52,49,0
5,59,49,77
5,56,49,0
5,52,49,0
5,59,49,77
5,56,49,0
5,52,49,0
5,59,49,68
5,56,49,0
5,52,49,0
5,59,49,64
5,56,49,0
5,52,49,0
5,59,49,71
5,56,49,0
5,52,49,0
5,61,49,68
5,59,49,0
5,56,49,0
5,64,49,0
5,61,49,77
5,59,49,0
5,56,49,0
5,64,49,0
5,61,49,77
5,59,49,0
5,56,49,0
5,64,49,0
5,61,49,68
5,59,49,0
5,56,49,0
5,64,49,0
5,61,49,64
5,59,49,0
5,56,49,0
5,64,49,0
5,61,49,71
5,59,49,0
5,56,49,0
5,64,49,0
5,64,49,68
5,61,49,0
5,57,49,0
5,66,49,0
5,64,49,77
5,61,49,0
5,57,49,0
5,66,49,0
5,64,49,77
5,61,49,0
5,57,49,0
5,66,49,0
5,64,49,68
5,61,49,0
5,57,49,0
5,66,49,0
5,64,49,64
5,61,49,0
5,57,49,0
5,66,49,0
5,64,49,71
5,61,49,0
5,57,49,0
5,66,49,0
5,63,49,68
5,59,49,0
5,54,49,0
5,63,49,77
5,59,49,0
5,54,49,0
5,63,49,77
5,59,49,0
5,54,49,0
5,63,49,68
5,59,49,0
5,54,49,0
5,63,49,64
5,59,49,0
5,54,49,0
5,63,49,71
5,59,49,0
5,54,49,0
5,59,49,68
5,56,49,0
5,52,49,0
5,59,49,77
5,56,49,0
5,52,49,0
5,59,49,77
5,56,49,0
5,52,49,0
5,59,49,68
5,56,49,0
5,52,49,0
5,59,49,64
5,56,49,0
5,52,49,0
5,59,49,71
5,56,49,0
5,52,49,0
5,61,49,68
5,59,49,0
5,56,49,0
5,64,49,0
5,61,49,77
5,59,49,0
5,56,49,0
5,64,49,0
5,61,49,77
5,59,49,0
5,56,49,0
5,64,49,0
5,61,49,68
5,59,49,0
5,56,49,0
5,64,49,0
5,61,49,64
5,59,49,0
5,56,49,0
5,64,49,0
5,61,49,71
5,59,49,0
5,56,49,0
5,64,49,0
5,64,49,68
5,61,49,0
5,57,49,0
5,66,49,0
5,64,49,77
5,61,49,0
5,57,49,0
5,66,49,0
5,64,49,77
5,61,49,0
5,57,49,0
5,66,49,0
5,64,49,68
5,61,49,0
5,57,49,0
5,66,49,0
5,64,49,64
5,61,49,0
5,57,49,0
5,66,49,0
5,64,49,71
