track,note,velocity,time
0,38,101,860
0,38,95,92
0,36,107,6
0,36,123,109
0,51,106,0
0,36,124,0
0,36,88,0
0,48,91,0
0,53,82,0
0,58,84,0
0,62,81,0
0,65,82,0
0,65,121,0
0,70,113,0
0,74,115,0
0,77,124,0
0,65,88,0
0,70,89,0
0,74,85,0
0,77,84,0
0,36,120,12
0,51,104,0
0,37,106,0
0,37,83,0
0,49,97,0
0,54,89,0
0,59,82,0
0,63,90,0
0,66,91,0
0,66,110,0
0,71,122,0
0,75,117,0
0,78,120,0
0,66,84,0
0,71,86,0
0,75,96,0
0,78,89,0
0,36,124,0
0,51,100,0
0,39,124,0
0,39,88,0
0,51,97,0
0,56,81,0
0,61,93,0
0,65,85,0
0,68,80,0
0,68,123,0
0,73,120,0
0,77,110,0
0,80,112,0
0,68,79,0
0,73,78,0
0,77,90,0
0,80,80,0
0,36,111,12
0,51,99,0
0,40,106,0
0,40,99,0
0,52,94,0
0,57,87,0
0,62,91,0
0,66,81,0
0,69,86,0
0,69,127,0
0,74,111,0
0,78,122,0
0,81,120,0
0,69,82,0
0,74,78,0
0,78,96,0
0,81,97,0
0,36,122,0
0,42,70,0
0,29,117,0
0,41,82,0
0,53,93,0
0,60,91,0
0,63,86,0
0,65,81,0
0,68,91,0
0,51,83,0
0,72,123,0
0,75,113,0
0,77,111,0
0,80,117,0
0,84,125,0
0,75,89,0
0,77,90,0
0,80,87,0
0,82,97,0
0,87,83,0
0,42,72,12
0,51,87,0
0,29,110,24
0,38,93,12
0,42,69,0
0,53,83,0
0,39,108,57
0,53,95,0
0,42,65,12
0,40,109,0
0,51,88,0
0,42,61,12
0,51,90,0
0,36,105,57
0,42,75,0
0,41,110,0
0,53,102,0
0,42,57,96
0,38,97,188
0,42,67,0
0,53,95,0
0,60,80,0
0,63,98,0
0,65,96,0
0,68,97,0
0,53,90,0
0,42,71,48
0,42,76,92
0,36,120,0
0,42,61,0
0,34,123,0
0,46,95,0
0,53,89,0
0,58,93,0
0,61,98,0
0,65,82,0
0,68,93,0
0,51,99,0
0,42,71,12
0,51,85,0
0,34,116,57
0,53,88,0
0,38,97,12
0,42,61,0
0,44,119,92
0,53,85,0
0,42,70,12
0,45,118,0
0,51,101,0
0,42,70,12
0,51,102,0
0,36,112,57
0,42,57,0
0,46,109,0
0,53,94,0
0,42,67,96
0,38,103,188
0,42,63,0
0,56,88,0
0,58,84,0
0,61,98,0
0,65,88,0
0,68,99,0
0,56,98,0
0,42,64,144
0,53,83,0
0,42,65,57
0,53,95,0
0,36,109,0
0,42,63,0
0,29,123,0
0,41,85,0
0,53,93,0
0,60,82,0
0,63,92,0
0,65,85,0
0,68,83,0
0,51,91,0
0,42,67,12
0,51,99,0
0,29,124,57
0,53,83,0
0,38,109,12
0,42,70,0
0,39,107,92
0,53,96,0
0,42,66,12
0,40,112,0
0,51,98,0
0,42,63,12
0,51,99,0
0,36,108,57
0,42,71,0
0,41,124,0
0,53,99,0
0,42,74,96
0,38,109,188
0,42,63,0
0,53,96,0
0,60,98,0
0,63,85,0
0,65,89,0
0,68,86,0
0,53,85,0
0,51,92,0
0,42,68,57
0,48,99,0
0,42,73,57
0,46,87,0
0,36,121,0
0,42,75,0
0,34,109,0
0,46,80,0
0,53,82,0
0,58,82,0
0,61,85,0
0,65,82,0
0,68,82,0
0,51,83,0
0,42,60,12
0,51,97,0
0,34,109,57
0,53,86,0
0,38,107,12
0,42,58,0
0,44,111,92
0,53,83,0
0,42,57,12
0,45,119,0
0,51,98,0
0,42,63,0
0,51,100,0
0,36,114,57
0,42,67,0
0,46,123,0
0,53,93,0
0,42,74,108
0,65,89,0
0,68,87,0
0,72,89,0
0,60,119,0
0,56,95,92
0,38,92,15
0,42,58,0
0,36,117,0
0,63,94,0
0,63,127,0
0,36,115,0
0,67,98,0
0,70,95,0
0,42,75,4
0,53,102,0
0,65,127,0
0,36,109,2
0,42,67,0
0,53,93,0
0,36,109,0
0,42,72,0
0,29,106,0
0,60,90,0
0,63,94,0
0,65,87,0
0,68,86,0
0,51,95,0
0,68,118,0
0,42,66,12
0,51,96,0
0,29,113,57
0,53,102,0
0,65,120,0
0,38,96,12
0,42,69,0
0,39,110,92
0,53,85,0
0,42,66,0
0,40,111,0
0,58,91,0
0,51,96,0
0,42,57,12
0,36,122,0
0,42,72,0
0,41,122,0
0,60,93,0
0,63,93,0
0,65,83,0
0,53,100,0
0,42,64,15
0,65,121,92
0,38,106,15
0,42,61,0
0,53,102,0
0,65,118,0
0,51,89,15
0,67,114,0
0,42,57,15
0,48,93,0
0,42,73,57
0,68,114,0
0,36,115,15
0,42,64,0
0,34,107,0
0,58,88,0
0,61,92,0
0,65,87,0
0,68,97,0
0,51,97,0
0,67,127,57
0,42,69,12
0,51,88,0
0,34,123,57
0,53,85,0
0,65,113,0
0,38,102,12
0,42,73,0
0,44,121,92
0,51,96,0
0,63,125,0
0,42,75,12
0,45,108,0
0,48,102,0
0,42,62,12
0,60,127,0
0,36,123,0
0,42,59,0
0,46,114,0
0,53,101,0
0,58,123,12
0,42,63,96
0,38,93,188
0,42,66,0
0,58,94,0
0,61,81,0
0,65,87,0
0,68,93,0
0,56,97,0
0,42,58,15
0,34,107,0
0,53,97,0
0,42,69,12
0,35,121,0
0,53,102,0
0,36,118,12
0,42,74,0
0,36,112,0
0,58,99,0
0,60,91,0
0,63,84,0
0,67,88,0
0,51,91,0
0,67,120,0
0,42,65,12
0,36,116,92
0,51,86,0
0,63,127,0
0,38,106,12
0,42,73,0
0,46,125,15
0,42,74,12
0,47,106,0
0,51,84,0
0,42,68,12
0,51,93,0
0,36,118,0
0,42,74,0
0,48,106,0
0,53,99,0
0,42,68,108
0,38,108,188
0,42,71,0
0,58,86,0
0,60,83,0
0,63,95,0
0,67,86,0
0,65,122,0
0,36,111,15
0,67,127,0
0,42,75,12
0,31,115,0
0,42,59,12
0,31,113,0
0,68,117,0
0,36,105,12
0,42,59,0
0,29,123,0
0,56,81,0
0,60,83,0
0,63,90,0
0,65,80,0
0,51,94,0
0,67,112,57
0,42,60,12
0,51,101,0
0,41,106,57
0,53,99,0
0,65,114,0
0,38,90,12
0,42,69,0
0,39,116,92
0,53,83,0
0,67,114,0
0,42,76,12
0,40,123,0
0,51,91,0
0,42,64,12
0,68,127,0
0,36,123,0
0,42,69,0
0,41,114,0
0,53,87,0
0,42,75,108
0,65,82,0
0,68,81,0
0,72,96,0
0,38,92,144
0,42,63,0
0,34,124,0
0,56,94,0
0,32,121,12
0,63,92,0
0,67,97,0
0,70,83,0
0,42,60,12
0,53,87,0
0,42,59,57
0,29,125,0
0,53,88,0
0,36,118,12
0,42,70,0
0,29,107,0
0,60,98,0
0,63,81,0
0,65,82,0
0,68,85,0
0,51,89,0
0,68,126,0
0,42,76,12
0,51,94,0
0,41,111,57
0,53,100,0
0,65,124,0
0,38,98,12
0,42,74,0
0,39,122,92
0,51,91,0
0,42,57,12
0,40,122,0
0,52,92,0
0,42,68,12
0,36,117,21
0,42,73,0
0,41,108,0
0,53,95,0
0,42,73,15
0,58,83,0
0,60,85,0
0,65,82,0
0,65,127,0
0,38,105,15
0,42,71,0
0,56,99,0
0,60,82,0
0,63,99,0
0,56,97,0
0,65,116,0
0,67,127,15
0,42,67,15
0,51,88,0
0,42,74,57
0,68,115,0
0,36,114,15
0,42,62,0
0,34,119,0
0,56,86,0
0,58,95,0
0,61,96,0
0,65,84,0
0,51,102,0
0,67,122,57
0,42,75,12
0,51,85,0
0,34,113,57
0,53,98,0
0,65,121,0
0,38,92,12
0,42,72,0
0,44,106,92
0,53,92,0
0,63,111,0
0,42,69,12
0,45,116,0
0,51,102,0
0,42,73,12
0,60,118,0
0,36,115,0
0,42,61,0
0,46,119,0
0,53,96,0
0,58,112,12
0,42,76,96
0,38,90,188
0,42,69,0
0,56,80,0
0,58,88,0
0,61,89,0
0,65,93,0
0,58,90,0
0,42,69,15
0,34,114,0
0,53,97,0
0,42,71,12
0,35,122,0
0,53,89,0
0,36,110,12
0,42,69,0
0,36,120,0
0,55,90,0
0,58,98,0
0,60,86,0
0,63,96,0
0,51,88,0
0,67,127,0
0,42,73,12
0,51,94,0
0,36,119,57
0,53,91,0
0,63,127,0
0,38,96,12
0,42,68,0
0,46,112,15
0,53,102,0
0,42,66,12
0,47,121,0
0,51,89,0
0,42,75,12
0,51,91,0
0,36,124,21
0,42,64,0
0,48,118,0
0,53,100,0
0,42,75,108
0,58,97,0
0,60,95,0
0,63,90,0
0,67,87,0
0,51,101,0
0,38,108,144
0,42,65,0
0,36,116,0
0,58,94,0
0,60,95,0
0,63,90,0
0,67,90,0
0,51,89,0
0,65,127,0
0,67,123,15
0,42,59,0
0,42,70,2
0,56,98,0
0,60,90,0
0,63,99,0
0,65,95,0
0,68,116,0
0,36,106,4
0,42,74,0
0,29,108,0
0,51,84,0
0,67,120,57
0,42,61,12
0,51,97,0
0,29,125,57
0,53,91,0
0,65,111,0
0,38,109,12
0,42,76,0
0,39,116,92
0,53,91,0
0,63,111,0
0,42,59,12
0,40,116,0
0,51,94,0
0,42,63,12
0,65,127,0
0,36,119,0
0,42,66,0
0,41,125,0
0,53,93,0
0,42,60,108
0,56,93,0
0,38,108,57
0,38,90,92
0,34,115,0
0,65,82,0
0,68,91,0
0,72,98,0
0,61,93,0
0,32,109,12
0,36,124,96
0,60,90,0
0,65,117,57
0,36,123,12
0,42,71,0
0,51,105,0
0,34,122,0
0,56,90,0
0,58,89,0
0,61,92,0
0,65,91,0
0,75,85,0
0,65,124,0
0,67,112,15
0,42,61,15
0,68,120,92
0,38,93,12
0,42,76,0
0,77,78,0
0,41,116,92
0,67,126,0
0,42,61,12
0,40,106,0
0,65,125,12
0,36,116,0
0,42,61,0
0,39,123,0
0,89,96,0
0,42,69,188
0,38,102,12
0,42,60,0
0,58,83,0
0,61,92,0
0,65,91,0
0,68,94,0
0,87,83,0
0,42,62,111
0,34,108,0
0,63,112,0
0,35,111,12
0,36,108,12
0,42,57,0
0,36,122,0
0,58,91,0
0,60,80,0
0,63,90,0
0,67,91,0
0,79,80,0
0,65,115,0
0,67,123,15
0,42,70,12
0,36,107,92
0,68,116,0
0,38,98,12
0,42,71,0
0,80,94,0
0,43,107,92
0,67,111,0
0,42,68,12
0,42,118,0
0,65,121,12
0,36,124,20
0,42,58,0
0,41,124,0
0,57,87,0
0,61,82,0
0,63,87,0
0,68,81,0
0,92,88,0
0,42,71,15
0,68,125,0
0,38,99,12
0,42,75,0
0,77,122,0
0,76,112,92
0,36,125,0
0,42,75,0
0,72,97,0
0,75,82,0
0,35,119,0
0,65,112,0
0,36,110,12
0,42,69,0
0,34,108,0
0,56,85,0
0,58,81,0
0,61,95,0
0,65,90,0
0,75,79,0
0,65,123,0
0,67,121,15
0,42,58,12
0,34,113,92
0,68,117,0
0,38,102,12
0,42,65,0
0,77,89,0
0,41,118,0
0,67,112,0
0,42,75,12
0,40,113,0
0,72,88,0
0,65,124,12
0,36,119,20
0,42,69,0
0,39,113,0
0,68,83,0
0,89,78,0
0,42,61,188
0,38,97,0
0,42,75,0
0,77,107,0
0,56,96,0
0,58,98,0
0,61,96,0
0,65,95,0
0,68,86,0
0,87,86,0
0,76,123,15
0,42,58,92
0,39,110,0
0,63,114,0
0,36,114,20
0,42,67,0
0,32,108,0
0,58,95,0
0,60,90,0
0,63,92,0
0,67,98,0
0,79,78,0
0,65,111,0
0,42,59,12
0,63,118,0
0,32,121,15
0,65,126,0
0,38,94,12
0,42,62,0
0,80,86,0
0,39,110,92
0,65,123,0
0,42,62,12
0,39,108,0
0,65,123,12
0,36,124,0
0,42,57,0
0,32,108,0
0,91,81,0
0,42,76,12
0,58,87,0
0,60,89,0
0,63,91,0
0,67,83,0
0,70,93,0
0,39,109,92
0,38,98,12
0,42,59,0
0,77,110,0
0,44,125,0
0,76,116,12
0,42,71,48
0,39,121,0
0,56,92,0
0,60,96,0
0,63,83,0
0,65,89,0
0,66,114,12
0,36,117,15
0,42,76,0
0,32,116,0
0,56,87,0
0,59,81,0
0,63,80,0
0,66,98,0
0,80,78,0
0,66,119,0
0,68,117,15
0,42,67,12
0,32,106,92
0,70,124,0
0,38,93,12
0,42,57,0
0,82,85,0
0,39,110,92
0,68,118,0
0,42,75,12
0,38,106,0
0,66,127,12
0,36,106,20
0,42,75,0
0,37,115,0
0,94,85,0
0,42,62,108
0,38,100,20
0,42,58,0
0,77,121,0
0,59,94,0
0,63,90,0
0,66,95,0
0,70,93,0
0,92,80,0
0,76,119,92
0,32,121,0
0,42,73,12
0,30,116,92
0,66,115,0
0,36,117,12
0,42,63,0
0,30,124,0
0,58,83,0
0,61,81,0
0,65,98,0
0,68,97,0
0,89,83,0
0,65,125,0
0,42,66,12
0,66,127,0
0,30,116,15
0,38,107,12
0,42,68,0
0,91,91,0
0,68,124,0
0,37,120,15
0,66,115,0
0,42,66,12
0,30,116,0
0,65,118,0
0,36,123,20
0,42,62,0
0,31,113,0
0,55,91,0
0,58,89,0
0,61,81,0
0,65,86,0
0,92,80,0
0,42,72,188
0,38,90,108
0,42,62,0
0,77,110,0
0,76,111,92
0,42,68,15
0,31,112,0
0,65,124,0
0,36,115,15
0,42,57,0
0,34,119,0
0,56,85,0
0,58,85,0
0,61,95,0
0,65,80,0
0,75,83,0
0,65,125,0
0,67,112,15
0,42,66,12
0,34,115,92
0,68,116,0
0,38,97,12
0,42,72,0
0,77,91,0
0,41,114,92
0,67,127,0
0,42,60,12
0,40,109,0
0,65,118,12
0,36,112,20
0,42,58,0
0,39,108,0
0,89,81,0
0,42,62,96
0,56,89,0
0,58,93,0
0,61,91,0
0,65,91,0
0,68,87,0
0,38,107,20
0,42,76,0
0,77,104,0
0,87,87,0
0,76,104,15
0,42,57,0
0,39,117,0
0,75,80,0
0,63,114,0
0,36,124,20
0,42,57,0
0,32,115,0
0,60,88,0
0,63,89,0
0,67,91,0
0,70,87,0
0,79,97,0
0,65,115,0
0,42,59,12
0,63,115,0
0,32,106,15
0,60,92,0
0,63,95,0
0,67,90,0
0,70,86,0
0,65,121,0
0,38,99,12
0,42,72,0
0,80,96,0
0,44,112,92
0,65,127,0
0,42,66,12
0,60,87,0
0,63,99,0
0,67,98,0
0,70,99,0
0,32,108,48
0,65,111,0
0,36,123,12
0,42,69,0
0,32,114,0
0,60,90,0
0,63,81,0
0,67,88,0
0,70,91,0
0,92,93,0
0,38,101,204
0,38,102,92
0,77,116,0
0,36,122,0
0,61,99,0
0,68,90,0
0,70,92,0
0,76,112,92
0,36,124,92
0,36,124,20
0,42,61,0
0,29,107,0
0,60,88,0
0,63,94,0
0,65,90,0
0,68,83,0
0,51,92,0
0,68,116,0
0,42,64,12
0,51,91,0
0,29,113,57
0,53,93,0
0,65,116,0
0,38,98,12
0,42,70,0
0,39,106,92
0,53,95,0
0,42,71,12
0,40,122,0
0,51,96,0
0,68,127,0
0,42,66,12
0,36,118,48
0,42,70,0
0,41,112,0
0,53,100,0
0,42,63,108
0,65,83,0
0,68,83,0
0,72,80,0
0,38,108,117
0,42,64,0
0,63,86,0
0,67,95,0
0,70,81,0
0,53,96,0
0,65,112,0
0,51,88,21
0,42,62,15
0,60,83,0
0,63,80,0
0,65,81,0
0,68,93,0
0,48,90,0
0,67,127,0
0,42,65,15
0,36,107,92
0,42,61,0
0,34,108,0
0,51,99,0
0,68,112,0
0,67,118,15
0,42,75,12
0,51,92,0
0,34,115,57
0,53,99,0
0,65,119,0
0,38,93,12
0,42,65,0
0,44,116,92
0,51,98,0
0,63,122,0
0,42,68,12
0,45,113,0
0,48,87,0
0,42,65,12
0,56,85,0
0,60,93,0
0,61,99,0
0,60,120,0
0,36,108,48
0,42,70,0
0,46,108,0
0,56,82,0
0,60,93,0
0,61,84,0
0,65,89,0
0,53,93,0
0,60,117,12
0,42,73,96
0,38,100,15
0,42,75,0
0,60,87,0
0,63,87,0
