track,note,velocity,time
0,49,105,698
0,53,99,3
0,49,86,2
0,56,95,0
0,56,119,0
0,68,75,3
0,49,0,11
0,56,0,25
0,49,0,3
0,68,0,0
0,53,0,2
0,68,96,0
0,53,83,2
0,56,0,0
0,49,74,2
0,56,81,0
0,56,99,0
0,49,85,3
0,49,0,9
0,56,0,26
0,49,0,4
0,49,127,2
0,53,0,0
0,53,105,2
0,56,0,0
0,68,0,0
0,49,63,2
0,56,81,0
0,56,127,0
0,68,122,0
0,68,99,2
0,53,0,295
0,49,0,2
0,49,0,0
0,56,0,2
0,68,0,3
0,56,0,37
0,46,84,1
0,51,108,3
0,51,81,4
0,58,99,0
0,58,104,1
0,68,87,2
0,51,0,20
0,46,0,16
0,58,0,0
0,68,0,0
0,51,0,2
0,58,0,0
0,68,84,2
0,58,80,3
0,51,74,2
0,51,103,0
0,58,89,0
0,46,87,3
0,51,0,15
0,58,0,20
0,46,0,1
0,51,0,0
0,46,113,5
0,58,0,0
0,68,0,0
0,51,127,2
0,51,64,0
0,58,84,0
0,58,114,1
0,68,104,2
0,46,0,39
0,51,0,2
0,51,0,2
0,58,0,1
0,68,0,3
0,58,0,4
0,49,118,1
0,53,89,2
0,49,85,2
0,56,104,0
0,56,112,0
0,68,85,3
0,49,0,20
0,56,0,15
0,68,0,4
0,49,0,2
0,53,0,0
0,68,86,0
0,53,80,2
0,56,0,0
0,49,82,2
0,56,98,0
0,56,98,0
0,49,88,3
0,49,0,20
0,56,0,2
0,49,0,4
0,49,127,2
0,53,0,0
0,53,105,2
0,56,0,0
0,68,0,0
0,49,62,2
0,56,80,0
0,56,111,0
0,68,99,3
0,68,65,4
0,49,0,70
0,53,0,2
0,49,0,2
0,56,0,0
0,68,0,0
0,56,0,11
0,46,84,5
0,51,116,0
0,51,85,2
0,58,104,0
0,58,97,1
0,68,97,2
0,51,0,14
0,58,0,19
0,68,0,1
0,46,0,2
0,58,0,0
0,51,0,1
0,68,82,1
0,58,79,3
0,51,83,2
0,51,108,0
0,58,102,0
0,46,85,3
0,51,0,9
0,58,0,13
0,46,0,8
0,51,0,0
0,46,111,5
0,58,0,0
0,68,0,0
0,51,127,2
0,51,73,2
0,58,92,0
0,58,111,1
0,68,114,2
0,42,50,8
0,42,0,0
0,40,127,21
0,40,0,4
0,40,83,0
0,40,0,4
0,35,103,0
0,46,58,0
0,35,0,4
0,46,0,0
0,32,99,3
0,32,0,14
0,39,6,1
0,25,98,4
0,40,127,1
0,39,0,1
0,40,0,3
0,40,85,44
0,40,0,4
0,46,0,30
0,51,0,0
0,58,0,3
0,68,0,2
0,49,98,3
0,53,91,2
0,35,114,2
0,49,88,0
0,56,108,0
0,56,99,0
0,51,0,1
0,58,0,0
0,61,75,2
0,35,0,1
0,49,0,10
0,56,0,24
0,61,0,4
0,49,0,2
0,53,0,0
0,61,96,0
0,53,77,2
0,56,0,0
0,35,103,2
0,49,85,0
0,56,104,0
0,56,79,0
0,49,78,3
0,35,0,1
0,49,90,26
0,56,0,8
0,49,0,1
0,25,0,2
0,49,0,1
0,56,108,1
0,49,127,1
0,53,0,0
0,53,105,1
0,56,0,0
0,61,0,0
0,25,99,1
0,35,103,1
0,44,82,0
0,49,88,0
0,53,94,0
0,56,122,0
0,57,63,0
0,61,109,0
0,70,14,0
0,42,60,0
0,61,99,3
0,35,0,1
0,42,0,0
0,57,0,0
0,68,108,0
0,70,0,0
0,53,95,4
0,56,100,19
0,25,0,29
0,25,92,39
0,42,60,1
0,70,11,0
0,42,0,4
0,70,0,0
0,70,20,44
0,70,0,4
0,25,0,4
0,68,0,30
0,56,0,3
0,61,0,1
0,68,100,1
0,25,99,4
0,40,111,1
0,42,50,0
0,61,98,0
0,70,15,0
0,40,0,4
0,42,0,0
0,56,96,0
0,70,0,0
0,25,0,8
0,25,91,7
0,42,60,1
0,70,10,0
0,42,0,4
0,70,0,0
0,70,18,4
0,70,0,4
0,25,0,4
0,56,0,14
0,68,0,0
0,56,83,5
0,61,0,3
0,25,101,1
0,35,103,1
0,42,60,0
0,61,75,0
0,70,15,0
0,35,0,4
0,42,0,0
0,68,87,0
0,70,0,0
0,25,0,7
0,56,0,9
0,68,0,2
0,61,0,3
0,68,104,2
0,25,93,4
0,42,47,1
0,61,103,0
0,70,12,0
0,42,0,4
0,56,109,0
0,70,0,0
0,70,17,44
0,70,0,4
0,25,0,4
0,68,0,25
0,61,0,6
0,56,0,2
0,56,83,2
0,25,102,4
0,40,106,1
0,42,60,0
0,61,88,0
0,70,15,0
0,40,0,4
0,42,0,0
0,68,92,0
0,70,0,0
0,25,0,10
0,49,0,8
0,53,0,6
0,56,0,2
0,61,0,5
0,25,97,6
0,42,50,1
0,70,11,0
0,42,0,4
0,70,0,0
0,42,33,44
0,70,18,0
0,42,0,4
0,70,0,0
0,25,0,0
0,49,0,4
0,53,0,24
0,56,0,0
0,68,0,2
0,51,93,3
0,61,0,0
0,58,97,2
0,46,61,1
0,44,0,2
0,49,0,0
0,51,71,0
0,53,0,0
0,27,99,1
0,35,103,1
0,42,60,0
0,46,62,0
0,51,78,0
0,54,63,0
0,61,101,0
0,70,14,0
0,58,73,1
0,63,64,2
0,35,0,1
0,42,0,0
0,68,110,0
0,70,0,0
0,56,0,5
0,54,88,7
0,58,95,12
0,27,0,28
0,27,92,17
0,42,60,1
0,70,11,0
0,42,0,4
0,70,0,0
0,70,20,44
0,70,0,4
0,27,0,4
0,68,0,25
0,61,0,3
0,58,0,2
0,68,92,2
0,27,99,4
0,40,109,1
0,42,48,0
0,61,85,0
0,70,15,0
0,40,0,4
0,42,0,0
0,58,81,0
0,70,0,0
0,27,0,26
0,27,91,39
0,42,60,0
0,70,10,0
0,42,0,4
0,70,0,0
0,70,18,44
0,70,0,4
0,27,0,4
0,58,0,17
0,68,0,0
0,61,0,2
0,58,82,5
0,27,101,4
0,35,103,1
0,42,40,0
0,61,81,0
0,70,15,0
0,35,0,4
0,42,0,0
0,68,88,0
0,70,0,0
0,27,0,52
0,61,0,31
0,68,0,0
0,58,0,2
0,68,99,2
0,27,93,4
0,42,60,1
0,61,107,0
0,70,12,0
0,42,0,4
0,58,107,0
0,70,0,0
0,70,17,44
0,70,0,4
0,27,0,4
0,58,0,30
0,61,0,0
0,68,0,0
0,58,84,5
0,27,102,4
0,40,106,0
0,42,60,0
0,61,81,0
0,70,15,0
0,40,0,4
0,42,0,0
0,68,88,0
0,70,0,0
0,27,0,0
0,46,0,26
0,51,0,0
0,58,0,5
0,63,0,2
0,49,58,3
0,53,61,2
0,27,97,1
0,42,30,1
0,56,69,0
0,70,11,0
0,61,64,3
0,42,0,1
0,70,0,0
0,42,30,20
0,42,0,4
0,61,0,14
0,53,0,1
0,61,66,0
0,49,0,2
0,53,66,0
0,56,0,0
0,42,30,2
0,56,66,0
0,70,18,0
0,49,66,3
0,42,0,1
0,70,0,0
0,27,0,4
0,51,0,15
0,42,30,1
0,42,0,4
0,49,85,7
0,61,0,4
0,68,0,0
0,58,0,2
0,49,0,1
0,56,108,1
0,49,77,1
0,53,0,0
0,54,0,0
0,46,0,2
0,51,0,0
0,53,65,0
0,54,0,0
0,56,0,0
0,61,0,0
0,25,99,1
0,35,103,1
0,44,69,0
0,46,50,0
0,49,82,0
0,53,95,0
0,61,109,0
0,70,14,0
0,35,0,4
0,46,0,0
0,68,108,0
0,70,0,0
0,58,0,6
0,53,92,1
0,56,95,19
0,25,0,26
0,25,92,30
0,42,70,1
0,70,11,0
0,42,0,4
0,70,0,0
0,70,20,2
0,70,0,4
0,25,0,4
0,68,0,30
0,56,0,3
0,61,0,1
0,68,100,1
0,25,99,4
0,40,112,1
0,42,60,0
0,61,98,0
0,70,15,0
0,40,0,4
0,42,0,0
0,56,96,0
0,70,0,0
0,25,0,52
0,25,91,39
0,42,50,1
0,70,10,0
0,42,0,4
0,70,0,0
0,70,18,44
0,70,0,4
0,25,0,4
0,56,0,30
0,68,0,0
0,53,0,4
0,56,83,1
0,53,99,3
0,61,0,0
0,25,101,1
0,35,103,1
0,42,56,0
0,61,75,0
0,70,15,0
0,35,0,4
0,42,0,0
0,68,87,0
0,70,0,0
0,25,0,52
0,56,0,28
0,68,0,2
0,61,0,3
0,68,104,2
0,25,93,4
0,42,60,1
0,61,106,0
0,70,12,0
0,42,0,4
0,56,106,0
0,70,0,0
0,53,0,24
0,54,85,4
0,70,17,16
0,70,0,4
0,25,0,4
0,68,0,25
0,61,0,6
0,56,0,2
0,56,88,2
0,25,102,4
0,40,104,1
0,42,47,0
0,61,88,0
0,70,15,0
0,40,0,4
0,42,0,0
0,68,87,0
0,70,0,0
0,25,0,52
0,54,0,6
0,56,79,11
0,49,0,3
0,53,0,6
0,25,97,13
0,42,61,1
0,70,11,0
0,42,0,4
0,70,0,0
0,70,18,44
0,70,0,4
0,25,0,4
0,49,0,10
0,56,0,18
0,68,0,2
0,51,94,2
0,61,0,1
0,53,0,1
0,58,97,1
0,44,0,3
0,49,0,0
0,77,36,0
0,85,59,0
0,27,99,1
0,35,103,1
0,42,55,0
0,46,72,0
0,51,86,0
0,54,73,0
0,61,101,0
0,70,14,0
0,35,0,4
0,42,0,0
0,68,110,0
0,70,0,0
0,56,0,3
0,61,114,1
0,56,0,4
0,54,86,4
0,58,90,14
0,27,0,26
0,27,92,39
0,42,60,1
0,70,11,0
0,42,0,4
0,70,0,0
0,77,0,5
0,70,20,39
0,75,41,0
0,84,65,0
0,60,90,1
0,70,0,3
0,61,0,2
0,27,0,2
0,85,0,1
0,68,0,27
0,58,0,3
0,61,0,0
0,68,92,4
0,27,99,4
0,40,102,1
0,42,57,0
0,61,85,0
0,70,15,0
0,40,0,4
0,42,0,0
0,58,81,0
0,70,0,0
0,27,0,52
0,84,0,4
0,75,0,3
0,72,40,31
0,27,91,1
0,60,0,0
0,42,60,1
0,56,70,0
0,70,10,0
0,80,63,0
0,42,0,4
0,70,0,0
0,70,18,44
0,70,0,4
0,27,0,4
0,80,0,18
0,72,0,2
0,58,0,8
0,68,0,0
0,61,0,2
0,58,82,5
0,27,101,4
0,35,103,1
0,42,50,0
0,61,81,0
0,70,15,0
0,35,0,4
0,42,0,0
0,68,88,0
0,70,0,0
0,73,29,7
0,82,26,0
0,27,0,45
0,61,0,31
0,68,0,0
0,58,0,2
0,68,102,2
0,27,102,4
0,42,63,1
0,61,107,0
0,70,12,0
0,42,0,4
0,58,111,0
0,70,0,0
0,70,17,44
0,70,0,4
0,27,0,4
0,58,0,30
0,61,0,0
0,68,0,0
0,58,89,5
0,34,88,4
0,40,110,1
0,41,65,0
0,42,57,0
0,61,89,0
0,70,15,0
0,40,0,4
0,41,0,0
0,42,0,0
0,68,88,0
0,70,0,0
0,34,0,79
0,49,79,9
0,46,0,2
0,51,0,0
0,53,73,0
0,54,0,0
0,27,99,1
0,42,63,1
0,56,80,0
0,70,11,0
0,61,61,3
0,42,0,1
0,70,0,0
0,58,0,37
0,61,0,1
0,49,0,2
0,53,0,0
0,61,77,0
0,53,62,2
0,56,0,0
0,56,0,0
0,56,64,2
0,70,18,0
0,49,63,3
0,70,0,1
0,27,0,2
0,51,0,8
0,54,0,6
0,58,0,18
0,61,0,1
0,68,0,0
0,49,0,3
0,49,88,1
0,49,102,1
0,53,0,0
0,53,85,2
0,53,91,0
0,56,0,0
0,61,0,0
0,68,0,0
0,68,0,0
0,25,99,1
0,35,103,1
0,42,60,0
0,44,82,0
0,49,88,0
0,53,94,0
0,56,98,0
0,70,14,0
0,56,98,1
0,61,80,2
0,35,0,1
0,42,0,0
0,61,105,0
0,70,0,0
0,73,0,5
0,82,0,0
0,25,0,47
0,25,92,39
0,42,60,1
0,70,11,0
0,42,0,4
0,70,0,0
0,70,20,44
0,70,0,4
0,25,0,4
0,56,0,26
0,49,0,4
0,61,0,0
0,53,0,3
0,49,95,2
0,53,98,3
0,25,99,1
0,40,111,1
0,42,50,0
0,70,15,0
0,56,100,1
0,40,0,3
0,42,0,0
0,61,103,0
0,70,0,0
0,25,0,52
0,25,91,39
0,42,60,1
0,70,10,0
0,65,126,3
0,42,0,1
0,70,0,0
0,70,18,44
0,70,0,4
0,25,0,4
0,65,0,10
0,25,101,29
0,35,103,1
0,42,60,0
0,65,108,0
0,70,15,0
0,35,0,4
0,42,0,0
0,70,0,0
0,25,0,52
0,56,0,23
0,53,0,5
0,49,0,2
0,61,0,0
0,61,77,5
0,56,73,3
0,25,93,1
0,42,47,1
0,70,12,0
0,53,73,1
0,42,0,3
0,49,79,0
0,70,0,0
0,66,117,21
0,65,0,17
0,70,17,6
0,70,0,4
0,25,0,4
0,61,0,25
0,49,0,5
0,56,0,0
0,53,0,3
0,49,92,2
0,53,94,3
0,25,102,1
0,40,106,1
0,42,60,0
0,70,15,0
0,56,100,1
0,40,0,3
0,42,0,0
0,61,103,0
0,70,0,0
0,68,120,45
0,25,0,7
0,66,0,1
0,49,0,19
0,53,0,6
0,56,0,2
0,61,0,5
0,61,0,1
0,61,74,1
0,56,0,2
0,56,68,1
0,25,97,1
0,42,50,1
0,53,0,0
0,70,11,0
0,53,65,1
0,49,0,2
0,42,0,1
0,49,63,0
0,70,0,0
0,42,33,44
0,70,18,0
0,42,0,4
0,70,0,0
0,25,0,4
0,49,0,22
0,56,0,1
0,61,0,0
0,53,0,3
0,51,88,9
0,66,126,0
0,68,0,1
0,44,0,2
0,49,0,0
0,53,0,0
0,54,91,0
0,27,99,1
0,35,103,1
0,42,60,0
0,46,62,0
0,51,78,0
0,54,63,0
0,70,14,0
0,58,98,1
0,35,0,3
0,42,0,0
0,61,105,0
0,70,0,0
0,27,0,52
0,27,92,39
0,42,60,1
0,70,11,0
0,42,0,4
0,70,0,0
0,66,0,14
0,65,112,10
0,70,20,20
0,70,0,4
0,27,0,4
0,58,0,26
0,51,0,4
0,61,0,0
0,54,0,3
0,51,85,2
0,54,88,3
0,27,99,1
0,40,109,1
0,42,50,0
0,70,15,0
0,58,85,1
0,40,0,3
0,42,0,0
0,61,100,0
0,70,0,0
0,27,0,52
0,61,112,30
0,65,0,8
0,27,91,1
0,42,60,1
0,70,10,0
0,42,0,4
0,70,0,0
0,70,18,44
0,70,0,4
0,27,0,4
0,63,117,36
0,27,101,3
0,35,103,1
0,42,60,0
0,70,15,0
0,35,0,4
0,42,0,0
0,70,0,0
0,61,0,2
0,27,0,50
0,63,0,4
0,58,0,19
0,54,0,5
0,51,0,2
0,61,0,0
0,63,120,2
0,61,87,3
0,58,73,3
0,27,93,1
0,42,47,1
0,70,12,0
0,54,73,1
0,42,0,3
0,51,79,0
0,70,0,0
0,63,0,43
0,70,17,1
0,70,0,4
0,27,0,4
0,61,0,25
0,51,0,5
0,58,0,0
0,63,114,0
0,54,0,3
0,51,92,2
0,54,94,3
0,27,102,1
0,40,106,1
0,42,60,0
0,70,15,0
0,58,100,1
0,40,0,3
0,42,0,0
0,61,103,0
0,70,0,0
0,63,0,24
0,61,112,2
0,27,0,26
0,61,0,34
0,61,74,1
0,58,0,2
0,58,68,1
0,27,97,1
0,42,50,1
0,54,0,0
0,70,11,0
0,54,65,1
0,51,0,2
0,42,0,1
0,51,63,0
0,70,0,0
0,42,33,44
0,70,18,0
0,42,0,4
0,70,0,0
0,27,0,4
0,61,0,25
0,51,0,3
0,58,0,2
0,54,0,1
0,49,88,4
0,46,0,3
0,51,0,0
0,53,91,0
0,54,0,0
0,25,99,1
0,35,103,1
0,42,55,0
0,44,69,0
0,49,82,0
0,53,95,0
0,70,14,0
0,56,98,1
0,35,0,3
0,42,0,0
0,61,105,0
0,70,0,0
0,25,0,52
0,61,0,15
0,25,92,24
0,42,60,1
0,70,11,0
0,42,0,4
0,70,0,0
0,70,20,44
0,70,0,4
0,25,0,4
0,56,0,26
0,49,0,4
0,61,0,0
0,53,0,3
0,49,75,2
0,53,78,3
0,25,99,1
0,40,112,1
0,42,57,0
0,70,15,0
0,56,80,1
