track,note,velocity,time
1,74,95,2816
1,74,95,0
1,74,95,0
1,71,95,0
1,71,95,0
1,71,95,0
1,69,95,0
1,69,95,0
1,69,95,0
1,67,95,0
1,62,95,0
1,64,95,0
1,67,95,0
1,69,95,128
1,69,95,0
1,69,95,0
1,67,95,0
1,67,95,0
1,64,95,0
1,62,95,0
1,74,95,128
1,74,95,0
1,74,95,0
1,71,95,0
1,71,95,0
1,71,95,0
1,69,95,0
1,69,95,0
1,69,95,0
1,67,95,0
1,62,95,0
1,64,95,0
1,67,95,0
1,69,95,128
1,69,95,0
1,69,95,0
1,67,95,0
1,67,95,0
1,64,95,0
1,62,95,0
1,62,95,0
1,64,95,0
1,67,95,0
1,67,95,0
1,62,95,384
1,64,95,0
1,67,95,0
1,67,95,0
1,62,95,384
1,64,95,0
1,67,95,0
1,67,95,0
1,62,95,0
1,64,95,0
1,67,95,0
1,62,95,0
1,64,95,0
1,71,95,0
1,74,95,0
1,76,95,0
1,71,95,0
1,71,95,0
1,67,95,0
1,76,95,512
1,76,95,0
1,76,95,0
1,73,95,0
1,73,95,0
1,73,95,0
1,71,95,0
1,71,95,0
1,71,95,0
1,69,95,0
1,64,95,0
1,66,95,0
1,69,95,0
1,71,95,128
1,71,95,0
1,71,95,0
1,69,95,0
1,69,95,0
1,66,95,0
1,64,95,0
1,76,95,128
1,76,95,0
1,76,95,0
1,73,95,0
1,73,95,0
1,73,95,0
1,71,95,0
1,71,95,0
1,71,95,0
1,73,95,0
1,64,95,0
1,66,95,0
1,69,95,0
1,71,95,128
1,71,95,0
1,71,95,0
1,69,95,0
1,69,95,0
1,66,95,0
1,64,95,0
1,64,95,0
1,66,95,0
1,69,95,0
1,69,95,0
1,73,95,384
1,76,95,0
1,78,95,0
1,73,95,0
1,64,95,384
1,66,95,0
1,69,95,0
1,69,95,0
1,64,95,0
1,66,95,0
1,69,95,0
1,64,95,0
1,66,95,0
1,73,95,0
1,76,95,0
1,78,95,0
1,73,95,0
1,73,95,0
1,69,95,0
1,77,95,512
1,77,95,0
1,77,95,0
1,74,95,0
1,74,95,0
1,74,95,0
1,72,95,0
1,72,95,0
1,72,95,0
1,74,95,0
1,65,95,0
1,67,95,0
1,70,95,0
1,72,95,128
1,72,95,0
1,72,95,0
1,70,95,0
1,70,95,0
1,67,95,0
1,65,95,0
1,77,95,128
1,77,95,0
1,77,95,0
1,74,95,0
1,74,95,0
1,74,95,0
1,72,95,0
1,72,95,0
1,72,95,0
1,74,95,0
1,65,95,0
1,67,95,0
1,70,95,0
1,72,95,128
1,72,95,0
1,72,95,0
1,74,95,0
1,72,95,0
1,67,95,0
1,65,95,0
1,65,95,0
1,67,95,0
1,70,95,0
1,70,95,0
1,74,95,384
1,77,95,0
1,79,95,0
1,74,95,0
1,65,95,384
1,67,95,0
1,70,95,0
1,70,95,0
1,65,95,0
1,67,95,0
1,70,95,0
1,65,95,0
1,67,95,0
1,74,95,0
1,77,95,0
1,79,95,0
1,74,95,0
1,74,95,0
1,74,95,0
1,70,95,0
1,65,95,1024
1,67,95,0
1,70,95,0
1,67,95,0
1,70,95,0
1,67,95,0
1,70,95,0
1,67,95,0
1,72,95,0
1,70,95,384
1,72,95,0
1,74,95,0
1,70,95,0
1,67,95,0
1,65,95,640
1,67,95,0
1,70,95,0
1,67,95,0
1,70,95,0
1,67,95,0
1,70,95,0
1,67,95,0
1,72,95,0
1,77,95,256
1,77,95,0
1,75,95,0
1,74,95,0
1,74,95,0
1,72,95,0
1,70,95,0
1,70,95,0
1,77,95,256
1,77,95,0
1,75,95,0
1,74,95,0
1,70,95,0
1,72,95,0
1,74,95,0
1,72,95,0
1,74,95,0
1,65,95,256
1,67,95,0
1,70,95,0
1,67,95,0
1,70,95,0
1,67,95,0
1,70,95,0
1,67,95,0
1,72,95,0
1,70,95,384
1,72,95,0
1,74,95,0
1,70,95,0
1,67,95,0
1,65,95,640
1,67,95,0
1,70,95,0
1,67,95,0
1,70,95,0
1,67,95,0
1,70,95,0
1,67,95,0
1,72,95,0
1,77,95,256
1,77,95,0
1,75,95,0
1,74,95,0
1,74,95,0
1,72,95,0
1,70,95,0
1,70,95,0
1,77,95,256
1,77,95,0
1,75,95,0
1,74,95,0
1,70,95,0
1,72,95,0
1,74,95,0
1,72,95,0
1,79,95,1280
1,79,95,0
1,79,95,0
1,76,95,0
1,76,95,0
1,76,95,0
1,74,95,0
1,74,95,0
1,74,95,0
1,76,95,0
1,67,95,0
1,69,95,0
1,72,95,0
1,74,95,128
1,74,95,0
1,74,95,0
1,72,95,0
1,72,95,0
1,69,95,0
1,67,95,0
1,79,95,128
1,79,95,0
1,79,95,0
1,76,95,0
1,76,95,0
1,76,95,0
1,74,95,0
1,74,95,0
1,74,95,0
1,76,95,0
1,67,95,0
1,69,95,0
1,72,95,0
1,74,95,128
1,74,95,0
1,74,95,0
1,76,95,0
1,74,95,0
1,69,95,0
1,67,95,0
1,67,95,0
1,69,95,0
1,72,95,0
1,72,95,0
1,76,95,384
1,79,95,0
1,81,95,0
1,76,95,0
1,67,95,384
1,69,95,0
1,72,95,0
1,72,95,0
1,67,95,0
1,69,95,0
1,72,95,0
1,67,95,0
1,69,95,0
1,76,95,0
1,79,95,0
1,81,95,0
1,76,95,0
1,76,95,0
1,76,95,0
1,72,95,0
1,67,95,1024
1,69,95,0
1,72,95,0
1,69,95,0
1,72,95,0
1,69,95,0
1,72,95,0
1,69,95,0
1,74,95,0
1,72,95,384
1,74,95,0
1,76,95,0
1,72,95,0
1,69,95,0
1,67,95,640
1,69,95,0
1,72,95,0
1,69,95,0
1,72,95,0
1,69,95,0
1,72,95,0
1,69,95,0
1,74,95,0
1,79,95,256
1,79,95,0
1,77,95,0
1,76,95,0
1,76,95,0
1,74,95,0
1,72,95,0
1,72,95,0
1,79,95,256
1,79,95,0
1,77,95,0
1,76,95,0
1,72,95,0
1,74,95,0
1,76,95,0
1,76,95,372
1,67,95,268
1,69,95,0
1,72,95,0
1,69,95,0
1,72,95,0
1,69,95,0
1,72,95,0
1,69,95,0
1,74,95,0
1,72,95,384
1,74,95,0
1,76,95,0
1,72,95,0
1,69,95,0
1,67,95,640
1,69,95,0
1,72,95,0
1,69,95,0
1,72,95,0
1,69,95,0
1,72,95,0
1,69,95,0
1,74,95,0
1,79,95,256
1,79,95,0
1,77,95,0
1,76,95,0
1,76,95,0
1,74,95,0
1,72,95,0
1,72,95,0
1,79,95,256
1,79,95,0
1,77,95,0
1,76,95,0
1,72,95,0
1,74,95,0
1,76,95,0
1,74,95,0
1,60,95,0
1,64,95,22
1,72,95,22
1,67,95,22
2,43,127,3076
2,43,87,34
2,43,127,82
2,33,127,18
2,33,87,32
2,38,127,82
2,43,127,16
2,43,87,32
2,43,127,82
2,33,127,16
2,33,87,30
2,38,127,82
2,36,127,16
2,36,87,32
2,38,127,82
2,40,127,16
2,40,87,32
2,35,127,84
2,33,127,16
2,33,87,34
2,38,127,84
2,43,127,16
2,33,127,546
2,33,87,34
2,33,127,82
2,35,127,16
2,35,87,34
2,40,127,80
2,33,127,16
2,33,87,34
2,33,127,82
2,35,127,16
2,35,87,34
2,40,127,80
2,38,127,16
2,38,87,34
2,40,127,80
2,42,127,16
2,42,87,32
2,37,127,82
2,38,127,16
2,38,87,34
2,40,127,80
2,33,127,16
2,34,127,784
2,34,87,32
2,34,127,82
2,36,127,16
2,36,87,32
2,41,127,82
2,34,127,16
2,34,87,32
2,34,127,82
2,36,127,16
2,36,87,32
2,41,127,82
2,39,127,16
2,39,87,34
2,41,127,82
2,43,127,16
2,43,87,34
2,38,127,82
2,39,127,16
2,39,87,34
2,41,127,82
2,34,127,16
2,34,127,544
2,34,87,34
2,41,127,80
2,43,127,16
2,43,87,32
2,39,127,80
2,34,127,16
2,34,87,34
2,41,127,80
2,39,127,18
2,39,87,34
2,39,127,80
2,36,127,16
2,36,87,32
2,41,127,82
2,34,127,18
2,34,87,34
2,41,127,82
2,43,127,18
2,43,87,32
2,39,127,82
2,34,127,16
2,34,87,32
2,41,127,82
2,39,127,18
2,39,87,32
2,39,127,82
2,36,127,16
2,36,87,32
2,41,127,82
2,34,127,16
2,36,127,546
2,36,87,34
2,36,127,82
2,38,127,16
2,38,87,34
2,43,127,84
2,36,127,16
2,36,87,34
2,36,127,84
2,38,127,16
2,38,87,34
2,43,127,80
2,41,127,16
2,41,87,34
2,43,127,80
2,33,127,16
2,33,87,34
2,40,127,82
2,41,127,16
2,41,87,34
2,43,127,82
2,36,127,16
2,36,127,548
2,36,87,34
2,43,127,82
2,33,127,18
2,33,87,34
2,41,127,82
2,36,127,16
2,36,87,32
2,43,127,82
2,41,127,16
2,41,87,32
2,41,127,82
2,38,127,16
2,43,127,18
2,36,127,546
2,36,87,32
2,43,127,82
2,33,127,16
2,33,87,34
2,41,127,82
2,36,127,16
2,36,87,34
2,43,127,82
2,41,127,16
2,41,87,34
2,41,127,82
2,38,127,16
2,38,87,34
2,43,127,80
2,36,127,16
2,36,87,34
2,36,127,80
2,36,127,16
2,36,87,34
2,36,127,80
2,36,127,18
3,74,39,3074
3,71,39,0
3,79,39,0
3,74,39,16
3,71,39,0
3,67,39,0
3,52,39,16
3,60,39,0
3,57,39,0
3,72,39,16
3,69,31,0
3,66,31,0
3,74,39,0
3,74,39,16
3,71,39,0
3,79,39,0
3,74,39,16
3,71,39,0
3,67,39,0
3,52,39,16
3,60,39,0
3,57,39,0
3,72,39,16
3,69,31,0
3,66,31,0
3,74,39,0
3,67,39,16
3,64,39,0
3,72,39,0
3,69,39,16
3,66,39,0
3,62,31,0
3,60,31,0
3,59,39,16
3,67,39,0
3,64,39,0
3,71,39,18
3,66,39,0
3,62,39,0
3,52,39,18
3,60,39,0
3,57,39,0
3,69,39,18
3,66,39,0
3,62,31,0
3,60,31,0
3,74,39,16
3,71,39,0
3,79,39,0
3,64,39,736
3,61,39,0
3,69,39,0
3,64,39,16
3,61,39,0
3,57,39,0
3,54,39,18
3,62,39,0
3,59,39,0
3,74,39,16
3,71,31,0
3,68,31,0
3,76,39,0
3,64,39,16
3,61,39,0
3,69,39,0
3,64,39,18
3,61,39,0
3,57,39,0
3,54,39,18
3,62,39,0
3,59,39,0
3,74,39,18
3,71,31,0
3,68,31,0
3,76,39,0
3,69,39,18
3,66,39,0
3,74,39,0
3,71,39,18
3,68,39,0
3,64,31,0
3,62,31,0
3,61,39,16
3,69,39,0
3,66,39,0
3,73,39,16
3,68,39,0
3,64,39,0
3,69,39,16
3,66,39,0
3,74,39,0
3,71,39,18
3,68,39,0
3,64,31,0
3,62,31,0
3,64,39,16
3,61,39,0
3,69,39,0
3,65,39,768
3,62,39,0
3,70,39,0
3,65,39,16
3,62,39,0
3,58,39,0
3,55,39,16
3,63,39,0
3,60,39,0
3,75,39,16
3,72,31,0
3,69,31,0
3,77,39,0
3,65,39,16
3,62,39,0
3,70,39,0
3,65,39,16
3,62,39,0
3,58,39,0
3,55,39,16
3,63,39,0
3,60,39,0
3,75,39,18
3,72,31,0
3,69,31,0
3,77,39,0
3,70,39,16
3,67,39,0
3,75,39,0
3,72,39,18
3,69,39,0
3,65,39,0
3,62,39,18
3,70,39,0
3,67,39,0
3,74,39,18
3,69,39,0
3,65,39,0
3,70,39,18
3,67,39,0
3,75,39,0
3,72,39,18
3,69,39,0
3,65,39,0
3,65,39,18
3,62,39,0
3,70,39,0
3,65,39,736
3,62,39,0
3,70,39,0
3,72,39,18
3,69,39,0
3,65,39,0
3,62,39,18
3,70,39,0
3,67,39,0
3,70,39,18
3,63,39,0
3,67,39,0
3,65,39,18
3,62,39,0
3,70,39,0
3,72,39,18
3,69,39,0
3,65,39,0
3,58,39,16
3,63,39,0
3,67,39,0
3,70,39,18
3,63,39,0
3,67,39,0
3,67,39,18
3,63,39,0
3,72,39,0
3,63,32,0
3,72,39,0
3,69,39,0
3,65,39,0
3,65,39,16
3,62,39,0
3,70,39,0
3,72,39,16
3,69,39,0
3,65,39,0
3,62,39,16
3,70,39,0
3,67,39,0
3,70,39,16
3,63,39,0
3,67,39,0
3,65,39,16
3,62,39,0
3,70,39,0
3,72,39,16
3,69,39,0
3,65,39,0
3,58,39,16
3,63,39,0
3,67,39,0
3,70,39,16
3,63,39,0
3,67,39,0
3,55,39,16
3,63,39,0
3,60,39,0
3,72,39,16
3,69,39,0
3,65,39,0
3,63,39,0
3,65,39,16
3,62,39,0
3,70,39,0
3,67,39,736
3,64,39,0
3,72,39,0
3,67,39,16
3,64,39,0
3,60,39,0
3,57,39,18
3,65,39,0
3,62,39,0
3,77,39,16
3,74,31,0
3,71,31,0
3,79,39,0
3,67,39,16
3,64,39,0
3,72,39,0
3,67,39,18
3,64,39,0
3,60,39,0
3,57,39,18
3,65,39,0
3,62,39,0
3,77,39,18
3,74,31,0
3,71,31,0
3,79,39,0
3,72,39,16
3,69,39,0
3,77,39,0
3,74,39,18
3,71,39,0
3,67,31,0
3,65,31,0
3,52,39,16
3,60,39,0
3,57,39,0
3,76,39,18
3,71,39,0
3,67,39,0
3,72,39,18
3,69,39,0
3,77,39,0
3,67,31,18
3,65,31,0
3,71,39,2
3,74,39,0
3,67,39,16
3,64,39,0
3,72,39,0
3,67,39,736
3,64,39,0
3,72,39,0
3,74,39,16
3,71,39,0
3,67,39,0
3,52,39,16
3,60,39,0
3,57,39,0
3,72,39,16
3,65,39,0
3,69,39,0
3,67,39,16
3,64,39,0
3,72,39,0
3,74,39,16
3,71,39,0
3,67,39,0
3,60,39,16
3,65,39,0
3,69,39,0
3,72,39,16
3,65,39,0
3,69,39,0
3,69,39,16
3,65,39,0
3,74,39,0
3,39,1,1670
3,39,8,1680
4,55,55,86146
4,60,63,128
4,64,63,128
4,60,63,66
4,55,63,96
4,55,63,0
4,60,55,128
4,64,47,128
4,67,63,128
4,64,47,0
4,60,63,18
4,60,47,32
4,64,47,16
4,67,47,16
4,72,47,18
5,42,111,1536
5,36,127,2
5,42,71,16
5,42,63,98
5,37,127,96
5,42,111,0
5,42,71,94
5,36,95,0
5,42,63,0
5,50,127,2
5,42,111,0
5,36,127,0
5,50,15,0
5,47,127,16
5,47,15,32
5,43,127,2
5,36,127,0
5,43,15,0
5,36,127,16
5,42,111,0
5,42,71,16
5,42,63,98
5,37,127,94
5,42,111,0
5,42,71,96
5,36,95,0
5,42,63,0
5,42,111,2
5,36,127,0
5,42,71,48
5,42,63,98
5,37,127,96
5,42,111,0
5,42,71,48
5,42,63,96
5,36,127,96
5,42,111,0
5,42,71,98
5,42,63,112
5,37,127,94
5,42,111,0
5,42,71,48
5,36,95,112
5,42,63,0
5,42,111,2
5,36,127,0
5,42,71,98
5,42,63,96
5,37,127,94
5,42,111,0
5,42,71,64
5,42,63,96
5,36,127,98
5,42,111,0
5,42,71,16
5,42,63,96
5,37,127,94
5,42,111,0
5,42,71,96
5,36,95,0
5,42,63,0
5,42,111,0
5,36,127,0
5,42,71,50
5,42,63,94
5,37,127,96
5,42,111,0
5,42,71,46
5,42,63,96
5,36,127,98
5,42,111,0
5,42,71,98
5,42,63,110
5,37,127,94
5,42,111,0
5,42,71,48
5,36,95,112
5,42,63,0
5,42,111,0
5,36,127,0
5,42,71,98
5,42,63,94
5,37,127,94
5,42,111,0
5,42,71,62
5,42,63,96
5,36,127,98
5,42,111,0
5,42,71,16
5,42,63,94
5,37,127,94
5,42,111,0
5,42,71,96
5,42,63,0
5,36,95,2
5,42,111,2
5,36,127,0
5,42,71,48
5,42,63,94
5,37,127,96
5,42,111,0
5,42,71,48
5,42,63,98
5,36,127,98
5,42,111,0
5,42,71,94
5,42,63,2
5,37,127,96
5,42,111,0
5,42,71,46
5,36,95,114
5,42,63,0
5,42,111,0
5,36,127,0
5,42,71,94
5,42,63,96
5,37,127,96
5,42,111,0
5,42,71,64
5,42,63,98
5,36,127,98
5,42,111,0
5,42,71,16
5,42,63,96
5,37,127,94
5,42,111,0
5,42,71,96
