track,note,velocity,time
1,55,108,6768
1,48,108,2
1,53,105,2
1,54,105,6
1,44,107,6
1,46,107,6
1,30,127,1280
1,30,125,178
1,30,127,106
1,30,127,370
1,30,126,142
1,30,126,106
1,29,126,354
1,29,126,170
1,29,127,106
1,29,127,388
1,29,126,178
1,29,127,106
1,27,127,346
1,27,126,162
1,27,126,106
1,32,126,274
1,32,125,154
1,32,126,106
1,34,126,334
1,34,126,162
1,34,126,106
1,34,125,344
1,30,127,238
1,30,125,202
1,30,126,106
1,30,127,392
1,30,126,156
1,30,127,106
1,29,126,288
1,29,126,190
1,29,127,106
1,29,126,398
1,29,126,172
1,29,127,106
1,27,127,342
1,27,127,190
1,27,126,106
1,32,127,310
1,32,125,142
1,32,127,106
1,34,126,364
1,34,125,188
1,34,125,106
1,34,125,368
1,36,122,60
1,37,122,10
1,32,124,10
1,34,124,12
1,32,125,32
1,30,125,20
1,30,125,184
1,30,127,106
1,30,127,396
1,30,125,170
1,30,126,106
1,29,126,260
1,29,125,172
1,29,127,106
1,29,126,376
1,29,126,158
1,29,125,106
1,27,125,198
1,27,125,166
1,27,126,106
1,32,125,158
1,32,125,150
1,32,126,106
1,37,124,198
1,37,123,170
1,37,125,106
1,41,121,20
1,39,121,6
1,34,124,6
1,37,126,6
1,34,126,1124
1,34,125,176
1,34,126,106
1,34,126,350
1,34,125,138
1,39,125,10
1,41,125,6
1,39,125,6
1,34,125,6
1,37,124,6
1,37,124,148
1,37,125,106
1,37,126,304
1,37,123,188
1,37,126,106
1,36,124,6
1,34,126,6
1,34,124,178
1,34,127,106
1,34,124,376
1,34,122,188
1,39,124,10
1,41,122,6
1,39,122,6
1,34,122,6
1,37,124,12
1,37,125,160
1,37,127,106
1,37,124,408
1,32,123,142
1,34,123,106
1,37,125,6
1,39,124,8
1,39,125,170
1,39,126,106
1,39,126,346
1,34,124,132
1,39,126,106
1,41,126,16
1,42,125,20
1,42,125,146
1,42,126,106
1,41,121,28
1,39,125,20
1,39,126,162
1,39,127,106
1,39,124,18
1,39,124,42
1,41,122,20
1,42,122,20
1,39,123,10
1,34,124,6
1,32,125,20
1,32,124,28
1,32,124,68
1,32,124,44
1,37,125,6
1,41,123,2
1,44,122,6
1,32,124,6
1,34,125,184
1,39,125,112
1,41,120,16
1,39,124,14
1,34,124,6
1,32,124,6
1,37,125,12
1,41,123,2
1,44,122,6
1,32,124,6
1,34,125,184
1,39,125,112
1,41,120,16
1,39,124,14
1,34,124,6
1,32,124,6
1,37,125,12
1,41,123,2
1,44,122,6
1,32,124,6
1,34,125,184
1,39,125,112
1,41,120,16
1,39,124,14
1,34,124,6
1,32,124,6
1,37,125,12
1,41,123,2
1,44,122,6
1,32,124,6
1,34,125,184
1,39,125,112
1,41,120,16
1,39,124,14
1,34,124,6
1,32,124,6
1,39,126,12
1,41,125,96
1,29,127,12
1,34,125,20
1,34,125,120
1,36,125,100
1,37,123,6
1,34,124,6
1,29,122,6
1,27,125,28
1,27,124,50
1,32,122,106
1,32,126,106
1,32,121,74
1,32,125,106
1,41,124,2
1,39,124,6
1,34,124,2
1,32,122,10
1,34,127,6
1,34,127,198
1,34,126,106
1,34,126,54
1,49,99,6
1,51,96,10
1,46,89,10
1,37,126,10
1,37,125,176
1,37,126,106
1,37,126,100
1,32,124,200
1,37,125,6
1,36,126,20
1,34,127,20
1,34,127,198
1,34,126,106
1,34,126,54
1,49,99,6
1,51,96,10
1,46,89,10
1,37,126,10
1,37,125,160
1,37,127,106
1,37,124,24
1,32,123,142
1,34,123,106
1,37,125,6
1,41,125,6
1,39,124,8
1,39,125,170
1,39,126,106
1,39,126,58
1,34,124,132
1,39,126,106
1,41,126,16
1,42,125,28
1,42,125,146
1,42,126,106
1,41,121,28
1,39,125,6
1,39,126,162
1,39,127,106
1,39,124,24
1,39,124,42
1,41,122,36
1,42,122,20
1,39,123,10
1,34,124,6
1,32,125,36
1,32,124,124
1,32,124,72
1,32,125,44
1,41,117,2
1,44,117,6
1,46,119,6
1,41,115,6
1,44,117,2
1,37,125,6
1,41,123,2
1,44,122,6
1,32,124,6
1,34,125,184
1,39,125,112
1,41,120,16
1,39,124,14
1,34,124,6
1,32,124,6
1,37,125,12
1,41,123,2
1,44,122,6
1,32,124,6
1,34,125,184
1,39,125,112
1,41,120,16
1,39,124,14
1,34,124,6
1,32,124,6
1,37,125,12
1,41,123,2
1,44,122,6
1,32,124,6
1,34,125,184
1,39,125,112
1,41,120,16
1,39,124,14
1,34,124,6
1,32,124,6
1,37,125,12
1,41,123,2
1,44,122,6
1,32,124,6
1,34,125,184
1,39,125,112
1,41,120,16
1,39,124,14
1,46,124,2
1,51,124,6
1,39,125,6
1,43,123,2
1,46,122,6
1,34,124,6
1,36,125,184
1,41,125,112
1,43,120,16
1,41,124,14
1,36,124,6
1,34,124,6
1,39,125,12
1,43,123,2
1,46,122,6
1,34,124,6
1,36,125,184
1,29,125,112
1,43,120,16
1,41,124,14
1,36,124,6
1,34,124,6
1,39,125,12
1,43,123,2
1,46,122,6
1,34,124,6
1,36,125,184
1,29,125,112
1,43,120,16
1,41,124,14
1,36,124,6
1,34,124,6
1,39,125,12
1,39,125,64
1,43,123,2
1,46,122,6
1,34,124,6
1,36,125,184
1,29,125,112
1,41,111,16
1,48,108,4
1,53,96,6
1,48,99,6
1,41,124,12
1,41,126,12
1,43,125,96
1,43,127,12
1,36,125,28
1,36,125,120
1,38,125,100
1,39,123,6
1,36,124,6
1,43,122,6
1,41,125,6
1,36,122,50
1,34,126,106
1,34,121,74
1,34,125,106
1,34,121,60
1,34,122,106
1,34,122,6
1,32,127,6
1,32,126,150
1,32,127,106
1,31,127,108
1,31,125,104
1,31,127,106
1,29,125,122
1,29,126,132
1,29,127,106
1,36,122,6
1,34,122,10
1,32,126,6
1,29,126,1594
2,70,101,39872
2,73,102,12
2,70,101,6
2,73,102,6
2,73,101,36
2,73,101,6
2,75,101,6
2,68,100,1726
2,72,101,6
2,68,100,6
2,72,101,6
2,73,101,6
2,72,101,6
2,70,101,1614
2,73,102,16
2,70,100,6
2,73,101,20
2,70,101,52
2,73,101,16
2,75,102,12
2,77,102,9640
2,75,101,66
2,73,97,28
2,73,96,38
2,73,97,38
2,73,96,38
2,73,101,38
2,73,101,56
2,73,99,58
2,73,95,38
2,73,94,38
2,73,93,38
2,73,99,38
2,73,99,56
2,73,101,56
2,73,95,38
2,73,94,38
2,73,94,38
2,73,97,38
2,73,94,38
2,73,99,104
2,75,97,6
2,73,96,10
2,68,94,8
2,73,98,28
2,77,102,35496
2,75,101,66
2,73,97,28
2,73,96,38
2,73,97,38
2,73,96,38
2,73,101,38
2,73,99,152
2,73,95,38
2,73,94,38
2,73,93,38
2,73,99,38
2,73,101,56
2,73,95,38
2,73,94,38
2,73,94,38
2,73,97,38
2,73,94,38
2,78,86,9438
2,80,62,20
2,78,81,8
2,75,66,28
2,78,83,42
2,77,111,200
2,73,99,2
3,73,101,25932
3,72,98,48
3,68,98,40
3,70,100,64
3,73,100,1908
3,73,98,68
3,73,100,110
3,73,98,100
3,75,98,20
3,68,98,30
3,73,98,872
3,72,96,20
3,68,96,44
3,66,96,68
3,73,97,1572
3,72,94,28
3,68,98,28
3,65,96,52
3,68,96,6
3,73,98,766
3,72,96,28
3,68,98,52
3,70,99,28
3,73,100,1604
3,73,98,78
3,73,99,108
3,73,97,98
3,75,97,28
3,68,97,12
3,73,98,912
3,72,95,52
3,68,98,52
3,66,99,52
3,73,100,6
3,73,100,524
3,72,97,52
3,73,99,28
3,73,103,82
3,73,101,1974
3,72,100,66
3,70,96,28
3,70,95,38
3,70,96,38
3,70,95,38
3,70,100,38
3,70,100,56
3,70,98,58
3,70,94,38
3,70,93,38
3,70,92,38
3,70,98,38
3,70,98,56
3,70,100,56
3,70,94,38
3,70,93,38
3,70,93,38
3,70,96,38
3,70,93,38
3,70,98,104
3,72,96,6
3,70,95,10
3,65,93,8
3,68,97,28
3,73,101,1704
3,72,100,66
3,70,96,28
3,70,95,38
3,70,96,38
3,70,95,38
3,70,100,38
3,70,100,56
3,70,98,58
3,70,94,38
3,70,93,38
3,70,92,38
3,70,98,38
3,70,98,56
3,70,100,56
3,70,94,38
3,70,93,38
3,70,93,38
3,70,96,38
3,70,93,38
3,70,98,104
3,72,96,6
3,70,95,10
3,65,93,8
3,68,97,28
3,78,103,1704
3,77,100,52
3,75,96,100
3,75,94,38
3,75,94,38
3,75,95,38
3,75,100,38
3,75,98,168
3,75,94,38
3,75,98,38
3,75,95,38
3,75,98,38
3,75,100,202
3,75,98,22
3,75,99,24
3,75,98,44
3,75,98,10
3,77,95,26
3,75,97,28
3,70,94,52
3,75,96,52
3,75,96,6
3,75,100,1900
3,77,93,18
3,75,97,12
3,70,96,24
3,75,97,28
3,73,105,60
3,70,102,6
3,68,94,430
3,77,93,38
3,73,92,40
3,75,94,32
3,73,93,6
3,78,95,6
3,73,96,770
3,75,98,6
3,77,93,6
3,77,97,52
3,78,95,80
3,77,92,46
3,75,96,66
3,77,92,26
3,70,96,6
3,68,96,1676
3,77,92,18
3,73,92,52
3,75,95,52
3,73,94,52
3,78,96,28
3,73,98,934
3,75,94,6
3,77,94,32
3,77,93,50
3,78,93,52
3,77,91,52
3,75,93,52
3,73,96,22
3,77,94,52
3,70,98,10
3,70,96,950
3,72,93,52
3,73,95,6
3,77,94,100
3,75,93,52
3,73,99,52
3,70,98,194
3,72,92,6
3,73,93,28
3,68,98,202
3,73,101,6994
3,72,100,66
3,70,96,28
3,70,95,38
3,70,96,38
3,70,95,38
3,70,100,38
3,70,98,152
3,70,94,38
3,70,93,38
3,70,92,38
3,70,98,38
3,70,100,152
3,70,94,38
3,70,93,38
3,70,93,38
3,70,96,38
3,70,93,38
3,77,98,8
3,75,96,6
3,70,95,10
3,68,93,8
3,68,97,28
3,78,103,1706
3,77,102,32
3,75,98,38
3,75,98,38
3,75,97,38
3,75,98,44
3,75,100,46
3,75,97,112
3,75,93,36
3,75,93,44
3,75,94,44
3,75,97,52
3,75,94,36
3,75,101,36
3,75,102,206
3,75,101,46
3,75,103,46
3,75,103,48
3,75,104,68
3,77,104,46
3,75,102,6
3,70,100,18
3,75,100,12
3,75,102,50
3,75,98,1536
3,77,92,20
3,75,97,8
3,70,93,28
3,75,98,42
3,73,105,60
3,70,102,6
3,77,98,820
3,75,98,14
3,73,100,6
3,70,100,6
3,68,99,8
3,68,100,118
3,77,98,28
3,73,95,6
3,75,97,28
3,73,100,28
3,78,98,28
3,73,98,788
3,75,98,28
3,77,98,28
3,77,93,18
3,78,94,22
3,77,96,28
3,75,96,28
3,77,93,52
3,70,98,28
3,68,95,1512
3,77,94,28
3,73,94,28
3,75,96,52
3,73,98,52
3,78,96,28
3,73,103,804
3,75,96,76
3,77,97,76
3,77,95,36
3,78,94,28
3,77,96,6
3,75,96,52
3,73,96,76
3,77,96,48
3,70,99,28
3,72,103,13102
3,74,101,48
3,75,103,24
3,79,101,78
3,77,98,38
3,75,100,54
3,72,101,132
3,74,100,36
3,75,99,34
3,72,95,38
3,79,99,5928
3,79,97,70
3,75,99,34
3,75,99,66
3,72,98,28
3,72,95,68
3,67,97,6
3,67,94,52
3,65,100,36
3,63,98,6
3,75,102,48
3,75,94,158
3,75,94,30
3,77,92,38
3,70,93,24
3,67,94,426
3,68,98,6
3,75,93,6
4,63,81,2
4,68,79,0
4,63,81,178
4,68,78,0
4,63,80,110
4,68,78,0
4,63,80,96
4,68,76,0
4,63,81,3312
4,68,79,0
4,63,81,178
4,68,78,0
4,63,80,110
4,68,78,0
4,63,80,96
4,68,76,0
4,73,107,906
4,72,80,6
4,68,85,6
4,63,91,6
4,78,88,2
4,73,94,2
4,75,96,2
4,63,81,31862
4,68,79,0
4,63,81,178
4,68,78,0
4,63,80,110
4,68,78,0
4,63,80,96
4,68,76,0
4,73,107,906
4,72,80,6
4,68,85,6
4,63,91,6
4,78,88,2
4,73,94,2
4,75,96,2
4,70,95,20534
4,70,98,44
4,79,104,48
4,79,95,2
4,75,88,6
4,77,98,16
4,79,98,6
4,72,101,2
4,70,101,20
4,72,106,6
4,75,106,6
4,77,95,6
4,79,101,16
4,80,110,6
4,79,88,12
4,82,97,2
4,74,97,6
4,75,101,6
4,77,107,12
4,75,93,6
4,79,104,6
4,75,101,6
4,72,88,6
4,70,104,6
4,67,88,6
4,70,112,6
4,63,98,100
4,65,106,6
4,63,101,6
4,62,106,6
4,70,113,6
4,62,107,4
4,60,90,6
4,68,114,2
4,72,107,26
4,75,109,6
4,70,117,2
4,72,117,10
4,75,104,18
4,74,112,6
4,70,104,6
4,67,109,6
4,72,105,2
4,74,90,16
4,75,90,6
4,77,77,2
5,53,69,628
5,56,69,0
5,61,71,0
5,32,107,132
5,51,69,6
5,60,69,0
5,30,114,6
5,49,74,0
5,54,70,0
5,58,72,0
5,61,74,0
5,29,117,6
5,53,73,0
5,56,73,0
5,63,73,0
5,27,113,6
5,51,73,0
5,56,72,0
5,58,72,0
5,61,71,0
5,32,109,6
5,34,112,6
5,53,73,0
5,58,71,0
5,61,72,0
5,58,71,36334
5,60,71,6
5,61,71,6
5,63,71,6
5,61,70,6
5,63,70,6
5,65,71,6
5,58,71,6
5,60,72,6
5,61,72,6
5,63,72,6
5,61,75,6
5,63,74,6
5,65,71,6
5,63,73,6
5,66,74,0
5,65,72,6
5,68,71,0
5,66,72,6
5,70,71,0
5,61,71,6
5,63,63,6
5,61,55,6
5,68,59,0
5,63,52,6
5,49,75,27654
5,51,72,32
5,53,72,12
5,63,73,6
5,66,74,0
5,65,72,6
5,68,71,0
5,66,72,6
5,70,71,0
5,61,71,6
5,66,71,0
5,66,56,6
5,70,59,0
5,63,68,6
5,66,68,0
5,66,70,6
5,68,70,0
5,63,70,6
5,68,70,0
6,73,95,1184
6,85,86,0
6,72,93,6
6,84,84,0
6,68,94,6
6,80,85,0
6,70,96,6
6,82,87,0
6,73,95,6
6,85,86,0
6,73,96,6
6,85,87,0
6,73,95,6
6,85,86,0
6,73,95,6
6,85,86,0
6,75,92,6
6,87,84,0
6,68,95,6
6,80,86,0
6,73,94,6
6,85,85,0
6,72,96,6
6,84,87,0
6,68,94,6
6,80,85,0
6,66,94,6
6,78,85,0
6,73,98,6
6,85,89,0
6,73,96,6
6,85,87,0
6,72,95,6
6,84,86,0
6,68,95,6
6,80,86,0
6,65,93,6
6,77,84,0
6,73,90,6
6,85,81,0
6,72,90,6
6,84,81,0
6,68,93,6
6,80,84,0
6,70,93,6
6,82,84,0
6,73,91,6
6,85,82,0
6,73,93,6
6,85,84,0
6,73,89,6
6,85,80,0
6,73,90,6
6,85,81,0
6,75,88,6
6,87,79,0
6,68,90,6
6,80,81,0
6,73,90,6
6,85,81,0
6,72,87,6
6,84,78,0
6,68,90,6
6,80,81,0
6,66,90,6
6,78,81,0
6,73,91,6
6,85,82,0
6,73,89,6
6,85,80,0
6,72,88,6
6,84,79,0
6,73,91,6
6,85,82,0
6,73,92,6
6,85,83,0
6,70,90,65958
6,73,89,6
6,68,89,6
6,70,89,6
6,65,87,6
6,65,90,6
6,68,90,6
6,63,87,6
6,65,87,6
6,61,90,6
7,70,79,1558
7,70,78,5744
7,57,61,146526
8,65,64,63412
8,67,65,40
8,69,67,26
8,71,73,2
8,72,75,28
8,74,68,14
8,76,72,16
8,77,80,12
8,79,78,14
8,81,80,2
8,83,71,22
8,87,74,2
8,90,75,10
8,89,63,704
8,92,64,0
8,90,57,6
8,94,61,0
8,85,63,6
8,90,60,0
8,94,65,0
8,82,65,6
8,87,62,0
8,87,61,6
8,90,60,0
8,94,62,0
8,80,65,6
8,82,64,0
8,85,63,0
8,84,64,6
8,87,63,0
8,77,64,6
8,80,65,0
8,85,64,0
8,75,63,6
8,84,64,0
8,73,62,6
8,78,64,0
8,82,63,0
8,77,62,6
8,80,63,0
8,85,64,0
8,75,63,6
8,80,62,0
8,84,63,0
8,73,63,6
8,78,64,0
8,82,64,0
