track,note,velocity,time
1,31,125,20784
1,33,125,32
1,30,125,2
1,35,121,6
1,33,123,2
1,31,121,2
1,31,116,16
1,33,124,16
1,30,120,2
1,35,119,38
1,42,123,2
1,47,123,2
1,42,122,2
1,35,125,2
1,31,121,2
1,31,116,16
1,33,124,16
1,30,120,2
1,35,119,38
1,30,123,2
1,35,123,2
1,33,125,2
1,31,123,2
1,33,123,2
1,34,123,2
1,35,123,2
1,33,123,2
1,31,123,2
1,31,123,2
1,31,123,2
1,31,123,2
1,33,123,2
1,33,123,2
1,33,123,2
1,40,123,2
1,45,123,2
1,40,123,2
1,33,123,2
1,40,123,2
1,31,121,2
1,31,116,16
1,33,124,16
1,30,120,2
1,35,119,38
1,30,123,2
1,35,123,2
1,33,125,2
1,31,123,2
1,33,123,2
1,34,123,2
1,35,123,2
1,33,123,2
1,31,123,2
1,31,123,2
1,31,123,2
1,31,123,2
1,33,123,2
1,33,123,2
1,33,123,2
1,40,123,2
1,45,123,2
1,40,123,2
1,33,123,2
1,40,123,2
1,26,125,2
1,28,123,2
1,30,125,2
1,30,124,2
1,31,122,2
1,43,122,2
1,38,119,2
1,31,119,2
1,33,123,2
1,33,121,2
1,34,124,2
1,35,123,2
1,35,123,2
1,28,123,2
1,33,123,2
1,33,123,2
1,45,123,2
1,33,123,2
1,33,123,2
1,26,125,2
1,28,123,2
1,30,125,2
1,30,124,2
1,31,122,2
1,43,122,2
1,38,119,2
1,31,119,2
1,33,123,2
1,33,121,2
1,34,124,2
1,35,123,2
1,42,124,2
1,47,124,2
1,42,124,2
1,35,123,2
1,28,123,2
1,33,123,2
1,26,123,2
1,31,125,770
1,33,125,32
1,30,125,2
1,35,121,6
1,33,123,2
1,31,121,2
1,31,116,16
1,33,124,16
1,30,120,2
1,35,119,38
1,42,123,2
1,47,123,2
1,42,122,2
1,35,125,2
1,31,121,2
1,31,116,16
1,33,124,16
1,30,120,2
1,35,119,38
1,30,123,2
1,35,123,2
1,33,125,2
1,31,123,2
1,33,123,2
1,34,123,2
1,35,123,2
1,33,123,2
1,31,123,2
1,31,123,2
1,31,123,2
1,31,123,2
1,33,123,2
1,33,123,2
1,33,123,2
1,40,123,2
1,45,123,2
1,40,123,2
1,33,123,2
1,40,123,2
1,31,121,2
1,31,116,16
1,33,124,16
1,30,120,2
1,35,119,38
1,30,123,2
1,35,123,2
1,33,125,2
1,31,121,2
1,31,116,16
1,33,124,16
1,30,120,2
1,35,119,38
1,30,123,2
1,35,123,2
1,33,125,2
1,31,123,2
1,33,123,2
1,34,123,2
1,35,123,2
1,33,123,2
1,31,123,2
1,31,123,2
1,31,123,2
1,31,123,2
1,33,123,2
1,33,123,2
1,33,123,2
1,40,123,2
1,45,123,2
1,40,123,2
1,33,123,2
1,40,123,2
1,38,123,2
1,33,119,206
1,26,125,2
1,28,123,2
1,30,125,2
1,30,124,2
1,31,122,2
1,43,122,2
1,38,119,2
1,31,119,2
1,33,123,2
1,33,121,2
1,34,124,2
1,35,123,2
1,42,124,2
1,47,124,2
1,42,124,2
1,35,123,2
1,28,123,2
1,33,123,2
1,26,123,2
1,31,125,770
1,33,125,32
1,30,125,2
1,35,121,6
1,33,123,2
1,31,121,2
1,31,116,16
1,33,124,16
1,30,120,2
1,35,119,38
1,42,123,2
1,47,123,2
1,42,122,2
1,35,125,2
1,31,125,2
1,33,125,32
1,30,125,2
1,35,121,6
1,33,123,2
1,31,125,2
1,33,125,32
1,30,125,2
1,35,121,6
1,33,123,2
1,31,125,2
1,33,125,32
1,30,125,2
1,35,121,6
1,33,123,2
1,31,121,2
1,31,116,16
1,33,124,16
1,30,120,2
1,35,119,38
1,42,123,2
1,47,123,2
1,42,122,2
1,35,125,2
1,31,125,2
1,33,125,32
1,30,125,2
1,35,121,6
1,33,123,2
1,31,121,2
1,31,116,16
1,33,124,16
1,30,120,2
1,35,119,38
1,42,123,2
1,47,123,2
1,42,122,2
1,35,125,2
2,59,77,32288
2,62,75,28
2,66,81,28
2,62,75,28
2,71,79,28
2,62,75,28
2,66,71,28
2,62,73,28
2,57,81,28
2,62,75,28
2,66,79,28
2,62,75,28
2,71,75,28
2,62,73,28
2,66,71,28
2,62,73,28
2,55,77,28
2,62,77,28
2,66,77,28
2,62,75,28
2,71,83,28
2,62,73,28
2,66,71,28
2,62,73,28
2,55,73,28
2,62,75,28
2,66,77,28
2,62,75,28
2,71,83,28
2,62,77,28
2,66,79,28
2,62,77,28
2,57,83,28
2,62,79,28
2,64,79,28
2,62,77,28
2,69,83,28
2,62,77,28
2,64,75,28
2,62,77,28
2,57,83,28
2,62,79,28
2,64,79,28
2,62,79,28
2,69,81,28
2,62,79,28
2,64,79,28
2,62,81,28
2,59,77,5404
2,62,75,28
2,66,81,28
2,62,75,28
2,71,79,28
2,62,75,28
2,66,71,28
2,62,73,28
2,57,81,28
2,62,75,28
2,66,79,28
2,62,75,28
2,71,75,28
2,62,73,28
2,66,71,28
2,62,73,28
2,55,77,28
2,62,77,28
2,66,77,28
2,62,75,28
2,71,83,28
2,62,73,28
2,66,71,28
2,62,73,28
2,55,73,28
2,62,75,28
2,66,77,28
2,62,75,28
2,71,83,28
2,62,77,28
2,66,79,28
2,62,77,28
2,57,83,28
2,62,79,28
2,64,79,28
2,62,77,28
2,69,83,28
2,62,77,28
2,64,75,28
2,62,77,28
2,57,83,28
2,62,79,28
2,64,79,28
2,62,79,28
2,69,81,28
2,62,79,28
2,64,79,28
2,62,81,28
2,86,63,28
2,98,63,0
2,88,66,8
2,100,66,0
2,90,64,8
2,102,64,0
2,86,66,8
2,98,66,0
2,85,66,8
2,97,66,0
2,83,66,8
2,95,66,0
2,81,66,8
2,93,66,0
2,73,72,8
2,85,72,0
2,74,75,8
2,86,75,0
2,83,72,8
2,95,72,0
2,73,71,8
2,85,71,0
2,76,74,8
2,88,74,0
2,78,71,8
2,90,71,0
2,79,73,8
2,91,73,0
2,81,72,8
2,93,72,0
2,83,72,8
2,95,72,0
2,85,69,8
2,97,69,0
2,86,70,8
2,98,70,0
2,59,77,12364
2,62,75,28
2,66,81,28
2,62,75,28
2,71,79,28
2,62,75,28
2,66,71,28
2,62,73,28
2,57,81,28
2,62,75,28
2,66,79,28
2,62,75,28
2,71,75,28
2,62,73,28
2,66,71,28
2,62,73,28
2,55,77,28
2,62,77,28
2,66,77,28
2,62,75,28
2,71,83,28
2,62,73,28
2,66,71,28
2,62,73,28
2,55,73,28
2,62,75,28
2,66,77,28
2,62,75,28
2,71,83,28
2,62,77,28
2,66,79,28
2,62,77,28
2,57,83,28
2,62,79,28
2,64,79,28
2,62,77,28
2,69,83,28
2,62,77,28
2,64,75,28
2,62,77,28
2,57,83,28
2,62,79,28
2,64,79,28
2,62,79,28
2,69,81,28
2,62,79,28
2,64,79,28
2,62,81,28
2,74,91,6172
2,86,91,0
2,76,91,8
2,88,91,0
2,78,86,8
2,90,87,0
2,59,77,768
2,62,75,28
2,66,81,28
2,62,75,28
2,71,79,28
2,62,75,28
2,66,71,28
2,62,73,28
2,57,81,28
2,62,75,28
2,66,79,28
2,62,75,28
2,71,75,28
2,62,73,28
2,66,71,28
2,62,73,28
2,55,77,28
2,62,77,28
2,66,77,28
2,62,75,28
2,71,83,28
2,62,73,28
2,66,71,28
2,62,73,28
2,55,73,28
2,62,75,28
2,66,77,28
2,62,75,28
2,71,83,28
2,62,77,28
2,66,79,8
2,79,89,0
2,91,90,0
2,62,77,8
2,80,88,0
2,92,89,0
2,57,83,8
2,81,87,0
2,93,86,0
2,62,79,28
2,64,79,28
2,62,77,28
2,69,83,28
2,62,77,28
2,64,75,28
2,62,77,28
2,57,83,28
2,62,79,28
2,64,79,28
2,62,79,28
2,69,81,28
2,62,79,28
2,64,79,8
2,83,87,0
2,95,87,0
2,62,81,28
2,86,84,8
2,98,83,0
2,83,67,6
2,95,67,0
2,85,67,8
2,97,67,0
2,86,67,8
2,98,67,0
2,83,67,8
2,95,67,0
2,85,67,8
2,97,67,0
2,86,67,8
2,98,67,0
2,79,67,8
2,91,67,0
2,81,67,8
2,93,67,0
2,83,67,8
2,95,67,0
2,79,67,8
2,91,67,0
2,81,67,8
2,93,67,0
2,83,67,8
2,95,67,0
2,83,67,8
2,95,67,0
2,85,67,8
2,97,67,0
2,86,67,8
2,98,67,0
2,79,67,8
2,91,67,0
2,81,67,8
2,93,67,0
2,83,67,8
2,95,67,0
2,83,67,8
2,95,67,0
2,85,67,8
2,97,67,0
2,86,67,8
2,98,67,0
2,83,67,8
2,95,67,0
2,85,67,8
2,97,67,0
2,86,67,8
2,98,67,0
3,57,109,7692
3,62,106,2
3,61,104,18
3,62,103,2
3,59,101,128
3,62,101,2
3,64,102,18
3,66,102,2
3,57,103,278
3,62,108,6
3,61,104,2
3,62,104,2
3,66,103,2
3,64,100,2
3,62,102,2
3,64,102,2
3,67,113,306
3,66,115,2
3,64,109,2
3,62,110,2
3,67,113,10
3,66,113,2
3,64,107,8
3,62,109,4
3,67,108,260
3,66,109,2
3,64,107,2
3,62,107,2
3,64,101,2
3,69,103,390
3,74,104,2
3,73,105,2
3,74,106,2
3,71,104,136
3,74,106,2
3,76,107,2
3,78,104,2
3,69,110,206
3,74,116,2
3,73,113,6
3,74,113,2
3,78,115,2
3,76,112,2
3,74,110,4
3,76,111,2
3,79,118,270
3,78,119,2
3,76,117,18
3,74,116,2
3,79,117,20
3,78,115,2
3,76,112,12
3,74,111,2
3,79,108,254
3,78,110,2
3,76,109,10
3,74,109,2
3,74,107,52
3,71,106,1048
3,73,106,6
3,73,107,370
3,73,110,32
3,76,109,2
3,74,109,2
3,71,108,636
3,73,106,2
3,73,105,206
3,73,106,36
3,76,107,2
3,74,110,2
3,71,112,1034
3,73,113,4
3,74,114,22
3,76,112,32
3,74,108,2
3,73,106,2
3,71,108,4
3,69,110,2
3,76,111,2
3,74,105,2
3,71,110,958
3,73,109,14
3,74,111,22
3,76,111,32
3,74,109,20
3,73,107,4
3,71,111,6
3,70,110,2
3,79,111,2
3,78,114,2
3,78,116,1376
3,79,114,40
3,78,115,6
3,74,113,26
3,71,105,6
3,78,111,246
3,76,111,2
3,71,110,126
3,73,108,2
3,73,108,146
3,73,109,44
3,76,111,2
3,74,106,2
3,71,108,640
3,73,106,2
3,73,106,114
3,73,104,38
3,73,105,34
3,79,111,2
3,78,111,2
3,78,116,1362
3,79,116,32
3,78,114,2
3,74,111,18
3,71,106,6
3,69,92,156
3,78,107,34
3,76,110,2
3,69,110,386
3,74,113,2
3,73,108,2
3,74,113,2
3,71,111,2
3,74,112,2
3,76,114,2
3,78,116,18
3,69,111,172
3,74,114,18
3,73,113,4
3,74,112,2
3,78,117,2
3,76,112,4
3,74,112,4
3,76,113,2
3,79,113,160
3,78,118,2
3,76,113,14
3,74,114,2
3,79,113,32
3,78,114,2
3,76,112,12
3,74,115,2
3,79,113,290
3,78,115,2
3,76,112,4
3,74,113,2
3,76,109,2
3,69,110,556
3,74,113,2
3,73,108,2
3,74,113,2
3,71,111,2
3,74,112,2
3,76,114,2
3,78,116,18
3,69,111,172
3,74,114,18
3,73,113,4
3,74,112,2
3,78,117,2
3,76,112,4
3,74,112,4
3,76,113,2
3,79,113,160
3,78,118,2
3,76,113,14
3,74,114,2
3,79,113,32
3,78,114,2
3,76,112,12
3,74,115,2
3,79,113,290
3,78,115,2
3,76,112,4
3,74,113,2
3,74,109,18
3,71,106,1142
3,73,106,6
3,73,107,370
3,73,110,32
3,76,109,2
3,74,109,2
3,71,108,636
3,73,106,2
3,73,105,206
3,73,106,36
3,76,107,2
3,74,110,2
3,71,112,1034
3,73,113,4
3,74,114,22
3,76,112,32
3,74,108,2
3,73,106,2
3,71,108,4
3,69,107,20
3,66,111,44
3,69,112,26
3,66,113,2
3,69,113,28
3,76,114,24
3,74,112,14
3,71,110,970
3,73,109,14
3,74,111,22
3,76,111,32
3,74,109,20
3,73,107,4
3,71,111,6
3,70,110,2
3,79,111,2
3,78,114,2
3,78,116,1376
3,79,114,40
3,78,115,6
3,74,113,26
3,71,105,6
3,78,111,246
3,76,111,2
3,71,119,6636
3,73,118,2
3,74,117,2
3,76,119,2
3,74,117,2
3,73,117,2
3,71,118,8
3,71,118,40
3,70,115,2
3,79,118,82
3,78,119,2
3,78,119,822
3,79,115,2
3,78,118,2
3,74,117,2
3,71,114,2
3,78,118,236
3,76,118,2
3,57,109,1734
3,62,106,4
3,61,104,18
3,62,103,2
3,59,101,128
3,62,101,2
3,64,102,18
3,66,102,2
3,57,103,278
3,62,108,6
3,61,104,2
3,62,104,2
3,66,103,2
3,64,100,2
3,62,102,2
3,64,102,2
3,67,113,306
3,66,115,2
3,64,109,2
3,62,110,2
3,67,113,10
3,66,113,2
3,64,107,8
3,62,109,4
3,67,108,260
3,66,109,2
3,64,107,2
3,62,107,2
3,64,101,2
3,69,103,390
3,74,104,2
3,73,105,2
3,74,106,2
3,71,104,136
3,74,106,2
3,76,107,2
3,78,104,2
3,69,110,206
3,74,116,2
3,73,113,6
3,74,113,2
3,78,115,2
3,76,112,2
3,74,110,4
3,76,111,2
3,79,118,270
3,78,119,2
3,76,117,18
3,74,116,2
3,79,117,20
3,78,115,2
3,76,112,12
3,74,111,2
3,79,108,254
3,78,110,2
3,76,109,10
3,74,109,2
3,74,107,52
3,71,106,1048
3,73,106,6
3,73,107,370
3,73,110,32
3,76,109,2
3,74,109,2
3,71,108,636
3,73,106,2
3,81,120,220
3,78,121,2
3,74,120,10
3,76,120,10
3,78,119,2060
3,81,119,2
3,78,118,2
3,83,120,30
3,71,106,3556
3,73,106,6
3,73,107,370
3,73,110,32
3,76,109,2
3,74,109,2
4,50,67,76
4,54,67,0
4,57,67,0
4,62,67,0
4,52,67,8
4,55,67,0
4,59,67,0
4,54,67,8
4,57,67,0
4,61,67,0
4,55,67,8
4,59,67,0
4,62,67,0
4,57,67,8
4,62,67,0
4,66,67,0
4,59,67,8
4,55,67,8
4,67,67,0
4,57,67,8
4,61,67,0
4,64,67,8
4,57,56,4734
4,61,56,0
4,64,56,0
4,57,58,8
4,62,59,0
4,66,57,0
4,59,58,8
4,64,58,0
4,67,58,0
4,57,58,8
4,61,59,0
4,66,60,0
4,69,58,0
4,59,59,8
4,62,58,0
4,67,56,0
4,71,60,0
4,57,59,8
4,66,60,0
4,69,57,0
4,59,53,8
4,71,59,0
4,59,59,8
4,64,59,0
4,67,59,0
4,61,58,8
4,69,59,0
4,73,54,0
4,62,56,8
4,66,57,0
4,74,59,0
4,55,84,16346
4,59,84,0
4,57,84,8
4,61,82,0
4,54,82,768
4,59,79,8
4,62,82,0
4,55,84,8
4,59,83,0
4,62,83,0
4,57,84,8
4,61,78,0
4,64,80,0
4,58,83,8
4,59,82,8
4,62,82,0
4,66,83,0
4,57,83,8
4,55,80,8
4,59,82,0
4,57,82,8
4,62,79,0
4,66,79,0
4,61,85,8
4,64,83,0
4,55,84,13064
4,59,84,0
4,57,84,8
4,61,82,0
4,54,82,768
4,59,79,8
4,62,82,0
4,55,84,8
4,57,84,8
4,61,82,0
4,54,82,768
4,59,79,8
4,62,82,0
4,55,84,8
4,57,84,8
4,61,82,0
4,54,82,768
4,59,79,8
4,62,82,0
4,55,84,8
4,57,84,8
4,61,78,0
4,64,80,0
4,58,83,8
4,59,82,8
4,62,82,0
4,66,83,0
4,57,83,8
4,55,80,8
4,59,82,0
4,57,82,8
4,62,79,0
4,66,79,0
4,61,85,8
4,64,83,0
4,55,84,8
4,59,84,0
4,62,84,0
4,57,84,8
4,61,82,0
4,54,82,768
4,59,79,8
4,62,82,0
4,55,84,8
4,57,84,8
4,61,82,0
4,54,82,768
4,59,79,8
4,62,82,0
4,55,84,8
4,57,84,8
4,61,78,0
4,64,80,0
4,58,83,8
4,59,82,8
4,62,82,0
4,66,83,0
4,57,83,8
4,55,80,8
4,59,82,0
4,57,82,8
4,62,79,0
4,66,79,0
4,61,85,8
4,64,83,0
4,57,83,8
