track,note,velocity,time
2,36,127,1912
2,36,127,8507
2,35,127,0
2,35,127,1675
2,35,127,509
2,35,127,505
2,35,127,136
2,35,127,700
2,35,127,512
2,35,127,136
2,35,127,706
2,35,127,516
2,35,127,138
2,35,127,708
2,35,127,517
2,35,127,141
2,35,127,713
2,35,127,518
2,35,127,137
2,35,127,711
2,35,127,519
2,35,127,141
2,35,127,705
2,35,127,519
2,35,127,142
2,35,127,702
2,35,127,896
2,35,127,509
2,35,127,505
2,35,127,136
2,35,127,700
2,35,127,512
2,35,127,136
2,35,127,706
2,35,127,516
2,35,127,138
2,35,127,708
2,35,127,517
2,35,127,141
2,35,127,713
2,35,127,505
2,35,127,136
2,35,127,700
2,35,127,512
2,35,127,136
2,35,127,706
2,35,127,516
2,35,127,138
2,35,127,708
2,35,127,517
2,35,127,141
2,35,127,713
2,35,127,505
2,35,127,136
2,35,127,700
2,35,127,512
2,35,127,136
2,35,127,706
2,35,127,516
2,35,127,138
2,35,127,708
2,35,127,517
2,35,127,141
2,35,127,713
2,35,127,505
2,35,127,136
2,35,127,700
2,35,127,512
2,35,127,136
2,35,127,706
2,35,127,516
2,35,127,138
2,35,127,708
2,35,127,517
2,35,127,141
2,35,127,713
2,35,127,505
2,35,127,136
2,35,127,700
2,35,127,512
2,35,127,136
2,35,127,706
2,35,127,516
2,35,127,138
2,35,127,708
2,35,127,517
2,35,127,141
2,35,127,713
2,35,127,505
2,35,127,136
2,35,127,700
2,35,127,512
2,35,127,136
2,35,127,706
2,35,127,516
2,35,127,138
2,35,127,708
2,35,127,517
2,35,127,141
2,35,127,713
2,35,127,505
2,35,127,136
2,35,127,700
2,35,127,512
2,35,127,136
2,35,127,706
2,35,127,516
2,35,127,138
2,35,127,708
2,35,127,517
2,35,127,141
2,35,127,713
2,35,127,505
2,35,127,136
2,35,127,700
2,35,127,512
2,35,127,136
2,35,127,706
2,35,127,505
2,35,127,136
2,35,127,700
2,35,127,512
2,35,127,136
2,35,127,706
2,35,127,505
2,35,127,136
2,35,127,700
2,35,127,512
2,35,127,136
2,35,127,706
2,35,127,505
2,35,127,136
2,35,127,700
2,35,127,512
2,35,127,136
2,35,127,706
2,35,127,505
2,35,127,136
2,35,127,700
2,35,127,512
2,35,127,136
2,35,127,706
2,35,127,505
2,35,127,520
2,35,127,288
2,35,127,512
2,35,127,136
2,35,127,706
2,35,127,505
2,35,127,136
2,35,127,700
2,35,127,608
2,35,127,232
2,35,127,322
2,35,127,96
2,35,127,505
2,35,127,136
2,35,127,700
2,35,127,512
2,35,127,136
2,35,127,706
2,35,127,505
2,35,127,136
2,35,127,700
2,35,127,512
2,35,127,136
2,35,127,706
2,35,127,505
2,35,127,136
2,35,127,700
2,35,127,512
2,35,127,136
2,35,127,706
2,35,127,516
2,35,127,138
2,35,127,708
2,35,127,517
2,35,127,141
2,35,127,137
2,35,127,288
2,35,127,96
2,35,127,505
2,35,127,136
2,35,127,700
2,35,127,512
2,35,127,136
2,35,127,706
2,35,127,516
2,35,127,138
2,35,127,708
2,35,127,517
2,35,127,141
2,35,127,713
2,35,127,505
2,35,127,136
2,35,127,700
2,35,127,505
2,35,127,136
2,35,127,604
2,35,98,224
2,35,127,96
2,35,127,192
2,35,98,232
2,35,127,96
2,35,127,288
2,35,127,505
2,35,127,136
2,35,127,700
2,35,127,512
2,35,127,136
2,35,127,706
2,35,127,505
2,35,127,136
2,35,127,700
2,35,127,512
2,35,127,136
2,35,127,706
2,35,127,505
2,35,127,136
2,35,127,700
2,35,127,512
2,35,127,136
2,35,127,706
2,35,127,505
2,35,127,136
2,35,127,700
2,35,127,512
2,35,127,136
2,35,127,706
2,35,127,505
2,35,127,136
2,35,127,700
2,35,127,512
2,35,127,136
2,35,127,706
2,35,127,505
2,35,127,136
2,35,127,700
2,35,127,512
2,35,127,136
2,35,127,706
2,35,127,505
2,35,127,136
2,35,127,700
2,35,127,512
2,35,127,136
2,35,127,706
2,35,127,505
2,35,127,136
2,35,127,700
2,35,127,512
2,35,127,136
2,35,127,706
2,35,127,505
2,35,127,520
2,35,127,288
2,35,127,512
2,35,127,136
2,35,127,706
2,35,127,505
2,35,127,136
2,35,127,700
2,35,127,608
2,35,127,232
2,35,127,322
2,35,127,96
2,35,127,505
2,35,127,136
2,35,127,700
2,35,127,512
2,35,127,136
2,35,127,706
2,35,127,505
2,35,127,136
2,35,98,604
2,35,127,0
2,35,98,608
2,35,127,40
2,35,116,130
2,35,116,384
2,35,127,0
2,35,47,395
2,35,25,814
3,40,127,13812
3,40,127,652
3,40,127,706
3,40,127,702
3,40,127,710
3,40,127,713
3,40,127,713
3,40,127,715
3,40,127,714
3,40,127,710
3,40,127,710
3,40,127,709
3,40,127,707
3,40,127,713
3,40,127,709
3,40,127,56
3,40,127,997
3,40,125,125
3,40,127,51
3,40,127,627
3,40,127,706
3,40,127,702
3,40,127,710
3,40,127,713
3,40,127,713
3,40,127,715
3,40,127,714
3,40,127,710
3,40,127,706
3,40,127,702
3,40,127,710
3,40,127,713
3,40,127,713
3,40,127,715
3,40,127,714
3,40,127,38
3,40,127,576
3,40,127,706
3,40,127,702
3,40,127,710
3,40,127,713
3,40,127,713
3,40,127,715
3,40,127,714
3,40,127,710
3,40,127,706
3,40,127,702
3,40,127,710
3,40,127,713
3,40,127,713
3,40,127,715
3,40,127,714
3,40,127,710
3,40,127,706
3,40,127,702
3,40,127,710
3,40,127,713
3,40,127,713
3,40,127,715
3,40,127,714
3,40,127,710
3,40,127,706
3,40,127,702
3,40,127,710
3,40,127,713
3,40,127,713
3,40,127,715
3,40,127,330
3,40,91,192
3,40,127,0
3,40,127,710
3,40,127,706
3,40,127,702
3,40,127,710
3,40,127,713
3,40,127,713
3,40,127,715
3,40,127,714
3,40,127,710
3,40,127,706
3,40,116,510
3,40,127,96
3,40,127,326
3,40,127,288
3,40,127,713
3,40,127,706
3,40,127,702
3,40,127,710
3,40,127,713
3,40,127,706
3,40,127,702
3,40,127,710
3,40,127,137
3,40,127,480
3,40,127,706
3,40,127,702
3,40,127,710
3,40,127,713
3,40,127,706
3,40,127,702
3,40,127,710
3,40,127,713
3,40,127,706
3,40,127,702
3,40,127,710
3,40,127,713
3,40,127,706
3,40,127,702
3,40,127,326
3,40,127,288
3,40,127,713
3,40,127,706
3,40,127,702
3,40,127,710
3,40,127,713
3,40,127,706
3,40,127,702
3,40,86,614
3,40,127,0
3,40,127,713
3,40,127,706
3,40,127,702
3,40,127,710
3,40,127,713
3,40,127,713
3,40,127,715
3,40,127,714
3,40,127,710
3,40,127,706
3,40,127,702
3,40,127,710
3,40,127,713
3,40,127,713
3,40,127,715
3,40,127,714
3,40,127,710
3,40,127,706
3,40,127,702
3,40,127,706
3,40,127,318
3,40,127,672
3,40,127,288
3,40,127,41
3,40,127,576
3,40,127,706
3,40,127,702
3,40,127,710
3,40,127,713
3,40,127,706
3,40,127,702
3,40,127,710
3,40,127,137
3,40,127,480
3,40,127,706
3,40,127,702
3,40,127,710
3,40,127,713
3,40,127,706
3,40,127,702
3,40,127,710
3,40,127,713
3,40,127,706
3,40,127,702
3,40,127,710
3,40,127,713
3,40,127,706
3,40,127,702
3,40,127,710
3,40,127,137
3,40,127,480
3,40,127,706
3,40,127,702
3,40,127,710
3,40,127,713
3,40,127,706
3,40,127,702
3,40,127,710
3,40,127,713
3,40,127,706
3,40,127,702
3,40,127,710
3,40,127,713
3,40,127,706
3,40,127,702
3,40,127,710
3,40,127,137
3,40,127,480
3,40,127,706
3,40,127,702
3,40,127,710
3,40,127,713
3,40,127,706
3,40,127,510
3,40,127,96
3,40,127,710
4,42,127,14192
4,42,127,146
4,42,127,151
4,42,127,148
4,42,127,149
4,42,127,147
4,42,127,146
4,42,127,143
4,42,127,144
4,42,127,144
4,42,127,145
4,42,127,143
4,42,127,147
4,42,127,145
4,42,127,147
4,42,127,146
4,42,127,145
4,42,127,144
4,42,127,149
4,42,127,148
4,42,127,148
4,42,127,141
4,42,127,146
4,42,127,143
4,42,127,147
4,42,127,145
4,42,127,144
4,42,127,143
4,42,127,148
4,42,127,146
4,42,127,153
4,42,127,147
4,42,127,147
4,42,127,146
4,42,127,150
4,42,127,146
4,42,127,150
4,42,127,147
4,42,127,149
4,42,127,146
4,42,127,145
4,42,127,146
4,42,127,146
4,42,127,146
4,42,127,146
4,42,127,147
4,42,127,152
4,42,127,147
4,42,127,151
4,42,127,149
4,42,127,148
4,42,127,144
4,42,127,148
4,42,127,150
4,42,127,153
4,42,127,151
4,42,127,153
4,44,127,343
4,44,127,338
4,44,127,337
4,42,127,340
4,42,127,146
4,42,127,151
4,42,127,148
4,42,127,149
4,42,127,147
4,42,127,146
4,42,127,143
4,42,127,144
4,42,127,144
4,42,127,145
4,42,127,143
4,42,127,147
4,42,127,145
4,42,127,147
4,42,127,146
4,42,127,145
4,42,127,144
4,42,127,149
4,42,127,148
4,42,127,148
4,42,127,141
4,42,127,146
4,42,127,143
4,42,127,147
4,42,127,145
4,42,127,144
4,42,127,143
4,42,127,148
4,42,127,146
4,42,127,153
4,42,127,147
4,42,127,147
4,42,127,146
4,42,127,151
4,42,127,148
4,42,127,149
4,42,127,147
4,42,127,146
4,42,127,143
4,42,127,144
4,42,127,144
4,42,127,145
4,42,127,143
4,42,127,147
4,42,127,145
4,42,127,147
4,42,127,146
4,42,127,145
4,42,127,144
4,42,127,149
4,42,127,148
4,42,127,148
4,42,127,141
4,42,127,146
4,42,127,143
4,42,127,147
4,42,127,145
4,42,127,144
4,42,127,143
4,42,127,148
4,42,127,146
4,42,127,153
4,42,127,147
4,42,127,147
4,42,127,146
4,42,127,151
4,42,127,148
4,42,127,149
4,42,127,147
4,42,127,146
4,42,127,143
4,42,127,144
4,42,127,144
4,42,127,145
4,42,127,143
4,42,127,147
4,42,127,145
4,42,127,147
4,42,127,146
4,42,127,145
4,42,127,144
4,42,127,149
4,42,127,148
4,42,127,148
4,42,127,141
4,42,127,146
4,42,127,143
4,42,127,147
4,42,127,145
4,42,127,144
4,42,127,143
4,42,127,148
4,42,127,146
4,42,127,153
4,42,127,147
4,42,127,147
4,42,127,146
4,42,127,151
4,42,127,148
4,42,127,149
4,42,127,147
4,42,127,146
4,42,127,143
4,42,127,144
4,42,127,144
4,42,127,145
4,42,127,143
4,42,127,147
4,42,127,145
4,42,127,147
4,42,127,146
4,42,127,145
4,42,127,144
4,42,127,149
4,42,127,148
4,42,127,148
4,42,127,141
4,42,127,146
4,42,127,143
4,42,127,147
4,42,127,145
4,42,127,144
4,42,127,143
4,42,127,148
4,42,127,146
4,42,127,153
4,42,127,147
4,42,127,147
4,42,127,146
4,42,127,151
4,42,127,148
4,42,127,149
4,42,127,147
4,42,127,146
4,42,127,143
4,42,127,144
4,42,127,144
4,42,127,145
4,42,127,143
4,42,127,147
4,42,127,145
4,42,127,147
4,42,127,146
4,42,127,145
4,42,127,144
4,42,127,149
4,42,127,148
4,42,127,148
4,42,127,141
4,42,127,146
4,42,127,143
4,42,127,147
4,42,127,145
4,42,127,144
4,42,127,143
4,42,127,148
4,42,127,146
4,42,127,153
4,42,127,147
4,42,127,147
4,42,127,146
4,42,127,151
4,42,127,148
4,42,127,149
4,42,127,147
4,42,127,146
4,42,127,143
4,42,127,144
4,42,127,144
4,42,127,145
4,42,127,143
4,42,127,147
4,42,127,145
4,42,127,147
4,42,127,146
4,42,127,145
4,42,127,144
4,42,127,149
4,42,127,148
4,42,127,148
4,42,127,141
4,42,127,146
4,42,127,143
4,42,127,147
4,42,127,145
4,42,127,144
4,42,127,143
4,42,127,148
4,42,127,146
4,42,127,153
4,42,127,147
4,42,127,147
4,42,127,146
4,42,127,151
4,42,127,148
4,42,127,149
4,42,127,147
4,42,127,146
4,46,127,143
4,42,127,144
4,42,127,144
4,42,127,145
4,42,127,143
4,42,127,147
4,42,127,145
4,42,127,147
4,42,127,146
4,42,127,145
4,42,127,144
4,42,127,149
4,42,127,148
4,42,127,148
4,42,127,141
4,42,127,146
4,46,127,143
4,42,127,147
4,42,50,49
4,42,127,0
4,42,127,144
4,42,127,143
4,42,127,148
4,42,127,146
4,42,127,153
4,42,127,147
4,42,127,147
4,42,127,146
4,42,127,151
4,42,127,148
4,42,127,149
4,42,127,147
4,42,127,146
4,42,127,143
4,42,127,144
4,42,127,144
4,42,127,145
4,42,127,143
4,42,127,147
4,42,127,145
4,42,127,147
4,42,127,146
4,42,127,145
4,42,127,146
4,42,127,151
4,42,127,148
4,42,127,149
4,42,127,147
4,42,127,146
4,46,127,143
4,42,127,144
4,42,127,144
4,42,127,145
4,42,127,143
4,42,127,147
4,42,127,145
4,42,127,147
4,42,127,146
4,42,127,145
4,42,127,146
4,42,127,151
4,42,127,148
4,42,127,149
4,42,127,147
4,42,127,146
4,42,127,143
4,42,127,144
4,42,127,144
4,42,127,145
4,42,127,143
4,42,127,147
4,42,127,145
4,42,127,147
4,46,127,146
4,42,127,145
4,42,127,146
4,42,127,151
4,42,127,148
4,42,127,149
4,42,127,147
4,42,127,146
4,42,127,143
4,42,127,144
4,42,127,144
4,42,127,145
4,42,127,143
4,42,127,147
4,42,127,145
4,42,127,147
4,46,127,146
4,42,127,145
4,42,127,146
4,42,127,151
4,42,127,148
4,42,127,149
4,42,127,147
4,42,127,146
4,42,127,143
4,42,127,144
4,42,127,144
4,42,127,145
4,42,127,143
4,42,127,147
4,42,127,145
4,42,127,147
4,46,127,146
4,42,127,145
4,42,127,146
4,42,127,151
4,42,127,148
4,42,127,149
4,42,127,147
4,42,127,146
4,46,127,143
4,42,127,144
4,42,127,144
4,42,127,145
4,42,127,143
4,42,127,147
4,42,127,145
4,42,127,147
4,42,127,146
4,42,127,145
4,42,127,146
4,42,127,151
4,42,127,148
4,42,127,149
4,42,127,147
4,42,127,146
4,42,127,143
4,42,127,144
4,42,127,144
4,42,127,145
4,46,127,143
4,46,127,339
4,44,127,339
4,42,127,145
4,42,127,146
4,42,127,151
4,42,127,148
4,42,127,149
4,42,127,147
4,42,127,146
4,42,127,143
4,42,127,144
4,42,32,48
4,42,127,0
4,42,127,145
4,42,127,143
4,42,127,147
4,42,127,145
4,46,83,51
4,42,127,0
4,46,127,146
4,42,127,145
4,42,127,146
4,42,127,151
4,42,127,148
4,42,32,53
4,42,127,0
4,42,127,147
4,42,127,146
4,42,127,143
4,46,116,48
4,42,127,0
4,46,116,48
4,42,127,0
4,42,86,49
4,42,127,0
4,42,127,143
4,42,127,147
4,42,127,145
4,42,127,147
4,46,127,146
4,42,127,145
4,42,127,146
4,42,127,151
4,42,127,148
4,42,127,149
4,42,127,147
4,42,127,146
4,42,127,143
4,42,127,144
4,42,127,144
4,42,127,145
4,42,127,143
4,42,127,147
4,42,127,145
4,42,127,147
4,42,127,146
4,42,127,145
4,42,127,144
4,42,127,149
4,42,127,148
4,42,127,148
4,42,127,141
4,42,127,146
4,42,127,143
4,42,127,147
4,42,127,145
4,42,127,144
4,42,127,143
4,42,127,148
4,46,93,146
4,46,127,153
4,42,127,339
4,42,127,146
4,42,127,151
4,42,127,148
4,42,127,149
4,42,127,147
4,42,127,146
4,46,127,143
4,42,127,144
4,42,127,144
4,42,127,145
4,42,127,143
4,42,127,147
4,42,127,145
4,42,127,147
4,42,127,146
4,42,127,145
4,42,127,144
4,42,127,149
4,42,127,148
4,42,127,148
4,42,127,141
4,42,127,146
4,46,127,143
4,42,127,147
4,42,50,49
4,42,127,0
4,42,127,144
4,42,127,143
4,42,127,148
4,42,127,146
4,42,127,153
4,42,127,147
4,42,127,147
4,42,127,146
4,42,127,151
4,42,127,148
4,42,127,149
4,42,127,147
4,42,127,146
4,42,127,143
4,42,127,144
4,42,127,146
4,42,127,151
4,42,127,148
4,42,127,149
4,42,127,147
4,42,127,146
4,42,127,143
4,46,127,144
4,46,78,336
4,42,127,288
4,46,127,145
4,42,127,531
4,42,127,146
4,42,127,151
4,42,127,148
4,42,127,149
