track,note,velocity,time
1,53,34,0
1,58,40,0
1,58,0,480
1,53,0,0
1,54,34,0
1,58,40,0
1,58,0,360
1,58,36,0
1,58,0,120
1,54,0,0
1,53,34,0
1,58,40,0
1,53,0,480
1,54,28,0
1,54,0,480
1,58,0,0
1,53,34,0
1,58,40,0
1,58,0,480
1,53,0,0
1,54,34,0
1,58,40,0
1,58,0,360
1,58,36,0
1,58,0,120
1,54,0,0
1,53,34,0
1,58,40,0
1,53,0,480
1,54,28,0
1,54,0,480
1,58,0,0
1,53,34,0
1,58,40,0
1,58,0,480
1,53,0,0
1,54,34,0
1,58,40,0
1,58,0,360
1,58,36,0
1,58,0,108
1,54,0,12
1,53,34,0
1,58,40,0
1,58,0,480
1,53,0,0
1,61,49,0
1,54,39,0
1,61,0,360
1,60,45,0
1,60,0,108
1,54,0,12
1,60,48,0
1,53,39,0
1,60,0,360
1,58,42,0
1,58,0,108
1,53,0,12
1,54,37,0
1,58,44,0
1,58,0,360
1,58,36,0
1,58,0,108
1,54,0,12
1,53,34,0
1,58,40,0
1,53,0,480
1,54,28,0
1,54,0,480
1,58,0,0
1,58,42,0
1,53,42,0
1,61,50,0
1,61,0,480
1,53,0,0
1,58,0,0
1,58,42,0
1,54,42,0
1,61,50,0
1,61,0,360
1,61,45,0
1,61,0,108
1,54,0,12
1,58,0,0
1,58,42,0
1,53,42,0
1,61,50,0
1,61,0,480
1,53,0,0
1,58,0,0
1,65,59,0
1,61,52,0
1,54,48,0
1,61,0,360
1,65,0,0
1,63,53,0
1,60,47,0
1,60,0,60
1,63,0,0
1,65,48,0
1,65,0,60
1,54,0,0
1,63,57,0
1,60,51,0
1,53,48,0
1,60,0,360
1,63,0,0
1,61,50,0
1,58,45,0
1,58,0,108
1,61,0,0
1,53,0,12
1,61,55,0
1,54,46,0
1,58,48,0
1,58,0,360
1,61,0,0
1,61,45,0
1,58,39,0
1,58,0,108
1,61,0,0
1,54,0,12
1,61,50,0
1,53,42,0
1,58,45,0
1,53,0,480
1,54,35,0
1,54,0,480
1,58,0,0
1,61,0,0
1,61,58,0
1,70,73,0
1,58,58,0
1,70,0,240
1,68,66,0
1,68,0,180
1,58,0,0
1,61,0,0
1,68,58,0
1,68,0,60
1,61,55,0
1,66,61,0
1,58,55,0
1,66,0,360
1,65,53,0
1,65,0,108
1,58,0,12
1,61,0,0
1,58,50,0
1,65,59,0
1,61,50,0
1,61,0,480
1,65,0,0
1,58,0,0
1,58,42,0
1,61,51,0
1,61,0,480
1,58,0,0
1,61,58,0
1,70,73,0
1,58,58,0
1,70,0,240
1,68,65,0
1,68,0,180
1,58,0,0
1,61,0,0
1,68,58,0
1,68,0,60
1,61,55,0
1,66,61,0
1,58,55,0
1,66,0,360
1,65,54,0
1,65,0,108
1,58,0,12
1,61,0,0
1,58,50,0
1,65,59,0
1,61,50,0
1,61,0,480
1,65,0,0
1,58,0,0
1,58,42,0
1,61,51,0
1,61,0,480
1,58,0,0
1,53,39,0
1,58,46,0
1,58,0,480
1,53,0,0
1,54,39,0
1,58,46,0
1,58,0,360
1,58,41,0
1,58,0,108
1,54,0,12
1,58,46,0
1,53,39,0
1,53,0,480
1,58,0,0
1,61,54,0
1,54,44,0
1,61,0,360
1,60,49,0
1,60,0,60
1,61,45,0
1,61,0,60
1,54,0,0
1,60,52,0
1,53,44,0
1,60,0,360
1,58,46,0
1,58,0,108
1,53,0,12
1,54,42,0
1,58,50,0
1,58,0,360
1,58,41,0
1,58,0,108
1,54,0,12
1,53,39,0
1,58,46,0
1,53,0,480
1,54,32,0
1,54,0,480
1,58,0,0
1,73,68,0
1,82,83,0
1,70,68,0
1,70,0,240
1,82,0,0
1,68,56,0
1,80,73,0
1,80,0,180
1,68,0,0
1,68,64,0
1,68,0,20
1,73,57,0
1,73,0,20
1,80,59,0
1,80,0,20
1,73,74,0
1,78,73,0
1,66,61,0
1,78,0,360
1,65,52,0
1,77,61,0
1,77,0,108
1,65,0,0
1,66,0,12
1,73,0,0
1,73,0,0
1,65,58,0
1,77,69,0
1,73,69,0
1,73,0,480
1,77,0,0
1,65,0,0
1,73,68,0
1,61,57,0
1,70,68,0
1,70,0,480
1,61,0,0
1,73,0,0
1,73,68,0
1,82,83,0
1,70,68,0
1,70,0,240
1,82,0,0
1,68,56,0
1,80,73,0
1,80,0,180
1,68,0,0
1,68,66,0
1,68,0,20
1,73,58,0
1,73,0,20
1,80,58,0
1,80,0,20
1,73,76,0
1,78,73,0
1,66,63,0
1,78,0,360
1,65,52,0
1,77,61,0
1,77,0,108
1,65,0,0
1,66,0,12
1,73,0,0
1,73,0,0
1,65,58,0
1,77,69,0
1,73,69,0
1,73,0,480
1,77,0,0
1,65,0,0
1,73,68,0
1,61,57,0
1,70,68,0
1,70,0,480
1,61,0,0
1,73,0,0
1,58,52,0
1,65,52,0
1,70,61,0
1,70,0,480
1,65,0,0
1,58,0,0
1,58,53,0
1,66,53,0
1,70,63,0
1,70,0,360
1,58,0,0
1,58,48,0
1,70,57,0
1,70,0,108
1,58,0,0
1,66,0,12
1,58,54,0
1,65,54,0
1,70,65,0
1,70,0,480
1,65,0,0
1,58,0,0
1,61,68,0
1,73,82,0
1,66,66,0
1,73,0,360
1,61,0,0
1,60,59,0
1,72,71,0
1,72,0,120
1,60,0,0
1,66,0,0
1,60,68,0
1,72,79,0
1,65,68,0
1,72,0,360
1,60,0,0
1,58,59,0
1,70,71,0
1,70,0,108
1,58,0,0
1,65,0,12
1,58,64,0
1,66,64,0
1,70,77,0
1,70,0,360
1,58,0,0
1,58,60,0
1,70,72,0
1,70,0,108
1,58,0,0
1,66,0,12
1,58,63,0
1,65,64,0
1,70,76,0
1,70,0,480
1,65,0,0
1,58,0,0
1,68,75,0
1,60,75,0
1,72,95,0
1,66,75,0
1,66,0,480
1,68,0,0
1,60,0,0
1,72,0,0
1,61,78,0
1,65,78,0
1,73,100,0
1,73,0,480
1,65,0,0
1,61,0,0
1,65,74,0
1,73,74,0
1,77,89,0
1,77,0,360
1,73,0,0
1,65,0,0
1,66,74,0
1,78,89,0
1,78,0,120
1,66,0,0
1,68,78,0
1,80,93,0
1,73,78,0
1,73,0,360
1,80,0,0
1,68,0,0
1,70,78,0
1,82,93,0
1,82,0,120
1,70,0,0
1,72,84,0
1,80,84,0
1,84,99,0
1,84,0,360
1,80,0,0
1,72,0,0
1,73,88,0
1,85,102,0
1,85,0,120
1,73,0,0
1,89,103,0
1,80,88,0
1,77,88,0
1,84,88,0
1,77,0,960
1,89,0,0
1,75,79,0
1,87,95,0
1,87,0,720
1,84,0,0
1,80,0,0
1,75,0,0
1,78,89,120
1,72,75,0
1,75,75,0
1,66,75,0
1,66,0,120
1,78,0,0
1,72,0,0
1,75,0,0
1,75,80,0
1,65,80,0
1,72,80,0
1,77,102,0
1,77,0,480
1,75,0,0
1,65,0,0
1,72,0,0
1,70,74,0
1,65,74,0
1,73,74,0
1,77,89,0
1,77,0,360
1,70,0,0
1,65,0,0
1,73,0,0
1,67,74,0
1,79,89,0
1,79,0,120
1,67,0,0
1,77,78,0
1,69,78,0
1,73,78,0
1,81,93,0
1,81,0,360
1,77,0,0
1,69,0,0
1,73,0,0
1,70,78,0
1,82,93,0
1,82,0,120
1,70,0,0
1,72,84,0
1,77,84,0
1,84,99,0
1,84,0,360
1,77,0,0
1,72,0,0
1,73,88,0
1,85,102,0
1,85,0,60
1,73,0,0
1,70,88,0
1,76,88,20
1,79,88,20
1,85,103,20
1,85,0,960
1,70,0,0
1,76,0,0
1,79,0,0
1,72,76,0
1,77,76,0
1,84,90,0
1,84,0,480
1,77,0,0
1,72,0,0
1,56,68,480
1,54,68,0
1,60,68,0
1,65,68,0
1,68,80,0
1,68,0,480
1,60,0,0
1,56,0,0
1,54,0,0
1,65,0,0
1,63,68,0
1,56,68,0
1,60,68,0
1,54,68,0
1,68,80,0
1,68,0,480
1,60,0,0
1,63,0,0
1,56,0,0
1,54,0,0
1,53,68,0
1,61,68,0
1,68,80,0
1,68,0,480
1,61,0,0
1,53,0,0
1,57,68,480
1,51,68,0
1,61,68,0
1,65,80,0
1,65,0,480
1,57,0,0
1,51,0,0
1,61,0,0
1,65,80,0
1,57,68,0
1,60,68,0
1,51,68,0
1,51,0,480
1,65,0,0
1,57,0,0
1,60,0,0
1,49,68,0
1,58,80,0
1,58,0,960
1,49,0,0
1,46,39,0
1,53,39,0
1,58,46,0
1,58,0,480
1,53,0,0
1,46,0,0
1,54,39,0
1,58,46,0
1,58,0,360
1,58,41,0
1,58,0,120
1,54,0,0
1,53,39,0
1,58,46,0
1,58,0,480
1,53,0,0
1,61,54,0
1,54,44,0
1,61,0,360
1,60,49,0
1,60,0,60
1,61,45,0
1,61,0,60
1,54,0,0
1,60,52,0
1,53,44,0
1,60,0,360
1,58,46,0
1,58,0,120
1,53,0,0
1,54,42,0
1,58,50,0
1,58,0,360
1,58,41,0
1,58,0,120
1,54,0,0
1,53,39,0
1,58,46,0
1,58,0,480
1,53,0,0
1,55,76,0
1,61,97,0
1,52,76,0
1,52,0,360
1,61,0,0
1,55,0,0
1,54,76,0
1,60,76,0
1,63,97,0
1,63,0,120
1,60,0,0
1,54,0,0
1,53,79,0
1,61,79,0
1,65,101,0
1,65,0,480
1,61,0,0
1,53,0,0
1,77,93,0
1,65,77,0
1,73,77,0
1,73,0,360
1,65,0,0
1,77,0,0
1,66,77,0
1,78,93,0
1,78,0,120
1,66,0,0
1,68,82,0
1,73,82,0
1,80,97,0
1,80,0,360
1,73,0,0
1,68,0,0
1,70,82,0
1,82,97,0
1,82,0,120
1,70,0,0
1,72,88,0
1,80,88,0
1,84,105,0
1,84,0,360
1,80,0,0
1,72,0,0
1,73,92,0
1,85,108,0
1,85,0,120
1,73,0,0
1,84,92,0
1,80,92,0
1,77,92,0
1,89,109,0
1,89,0,960
1,77,0,0
1,75,82,0
1,87,99,0
1,87,0,720
1,84,0,0
1,80,0,0
1,75,0,0
1,66,75,120
1,72,75,0
1,75,75,0
1,78,89,0
1,78,0,120
1,66,0,0
1,72,0,0
1,75,0,0
1,77,102,0
1,65,80,0
1,72,80,0
1,75,80,0
1,75,0,480
1,77,0,0
1,65,0,0
1,72,0,0
1,70,74,0
1,65,74,0
1,73,74,0
1,77,89,0
1,77,0,360
1,70,0,0
1,65,0,0
1,73,0,0
1,67,74,0
1,79,89,0
1,79,0,120
1,67,0,0
1,77,78,0
1,69,78,0
1,73,78,0
1,81,93,0
1,81,0,360
1,77,0,0
1,69,0,0
1,73,0,0
1,70,78,0
1,82,93,0
1,82,0,120
1,70,0,0
1,72,84,0
1,77,84,0
1,84,99,0
1,84,0,360
1,77,0,0
1,72,0,0
1,73,88,0
1,85,102,0
1,85,0,60
1,73,0,0
1,70,88,0
1,76,88,20
1,79,88,20
1,85,103,20
1,85,0,960
1,70,0,0
1,76,0,0
1,79,0,0
1,72,76,0
1,77,76,0
1,84,90,0
1,84,0,480
1,77,0,0
1,72,0,0
1,56,68,480
1,68,80,0
1,60,68,0
1,65,68,0
1,54,68,0
1,54,0,480
1,60,0,0
1,56,0,0
1,68,0,0
1,65,0,0
1,54,68,0
1,56,68,0
1,60,68,0
1,63,68,0
1,68,80,0
1,68,0,480
1,60,0,0
1,54,0,0
1,56,0,0
1,63,0,0
1,53,68,0
1,61,68,0
1,68,80,0
1,68,0,480
1,61,0,0
1,53,0,0
1,65,80,480
1,51,68,0
1,61,68,0
1,57,68,0
1,57,0,480
1,65,0,0
1,51,0,0
1,61,0,0
1,51,68,0
1,57,68,0
1,60,68,0
1,65,80,0
1,65,0,480
1,51,0,0
1,57,0,0
1,60,0,0
1,49,68,0
1,58,80,0
1,58,0,960
1,49,0,0
1,46,39,0
1,53,39,0
1,58,46,0
1,58,0,480
1,53,0,0
1,46,0,0
1,54,39,0
1,58,46,0
1,58,0,360
1,58,41,0
1,58,0,120
1,54,0,0
1,53,39,0
1,58,46,0
1,58,0,480
1,53,0,0
1,61,54,0
1,54,44,0
1,61,0,360
1,60,49,0
1,60,0,60
1,61,45,0
1,61,0,60
1,54,0,0
1,60,52,0
1,53,44,0
1,60,0,360
1,58,46,0
1,58,0,120
1,53,0,0
1,54,42,0
1,58,50,0
1,58,0,360
1,58,41,0
1,58,0,120
1,54,0,0
1,53,39,0
1,58,46,0
1,58,0,480
1,53,0,0
1,77,54,480
1,77,0,960
1,78,50,0
1,78,0,240
1,77,46,0
1,77,0,240
1,75,50,0
1,75,0,240
1,73,46,0
1,73,0,240
1,72,50,0
1,72,0,480
1,82,54,0
1,82,0,480
1,80,52,0
1,80,0,960
1,78,51,0
1,78,0,960
1,80,50,0
1,80,0,240
1,78,46,0
1,78,0,240
1,77,50,0
1,77,0,240
1,75,46,0
1,75,0,240
1,73,50,0
1,73,0,480
1,85,53,0
1,85,0,480
1,80,49,0
1,80,0,960
1,77,52,0
1,77,0,960
1,78,51,0
1,78,0,240
1,77,46,0
1,77,0,240
1,75,50,0
1,75,0,240
1,74,46,0
1,74,0,120
1,75,46,0
1,75,0,60
1,77,42,0
1,77,0,60
1,75,53,0
1,75,0,240
1,74,51,0
1,74,0,240
1,75,54,0
1,75,0,240
1,77,55,0
1,77,0,240
1,78,57,0
1,78,0,240
1,70,52,0
1,70,0,240
1,77,57,0
1,77,0,240
1,75,50,0
1,75,0,120
1,72,39,0
1,72,0,60
1,73,39,0
1,73,0,58
1,73,39,2
1,73,0,45
1,75,36,0
1,75,0,45
1,73,40,0
1,73,0,45
1,75,37,0
1,75,0,45
1,73,42,0
1,73,0,45
1,75,38,0
1,75,0,45
1,73,44,0
1,73,0,45
1,75,39,0
1,75,0,45
1,73,46,0
1,73,0,45
1,75,42,0
1,75,0,45
1,73,48,0
1,73,0,45
1,75,42,0
1,75,0,45
1,73,47,0
1,73,0,45
1,75,40,1
1,73,44,44
1,75,0,1
1,73,0,44
1,75,38,0
1,73,42,45
1,75,0,1
1,73,0,59
1,75,37,0
1,75,0,60
1,72,40,0
1,72,0,60
1,73,35,0
1,73,0,60
1,82,54,0
1,82,0,240
1,80,50,0
1,80,0,240
1,78,52,0
1,78,0,240
1,68,50,0
1,68,0,240
1,75,54,0
1,75,0,960
1,73,50,0
1,73,0,480
1,77,54,480
1,77,0,960
1,78,50,0
1,78,0,240
1,77,46,0
1,77,0,240
1,75,50,0
1,75,0,240
1,73,46,0
1,73,0,240
1,72,50,0
1,72,0,480
1,82,54,0
1,82,0,480
1,80,52,0
1,80,0,960
1,78,51,0
1,78,0,960
1,80,50,0
1,80,0,240
1,78,46,0
1,78,0,240
1,77,50,0
1,77,0,240
1,75,46,0
1,75,0,240
1,73,50,0
1,73,0,480
1,85,53,0
1,85,0,480
1,80,49,0
1,80,0,960
1,77,52,0
1,77,0,960
1,78,51,0
1,78,0,240
1,77,46,0
1,77,0,240
1,75,50,0
1,75,0,240
1,74,46,0
1,74,0,120
1,75,46,0
1,75,0,60
1,77,42,0
1,77,0,60
1,75,53,0
1,75,0,240
1,74,51,0
1,74,0,240
1,75,54,0
1,75,0,240
1,77,55,0
1,77,0,240
1,78,57,0
1,78,0,240
1,70,52,0
1,70,0,240
1,77,57,0
1,77,0,240
1,75,50,0
1,75,0,120
1,72,39,0
1,72,0,60
1,73,39,0
1,73,0,60
1,73,39,0
1,73,0,45
1,75,36,0
1,75,0,45
1,73,40,0
1,73,0,45
1,75,37,0
1,75,0,45
1,73,42,0
1,73,0,45
1,75,38,0
1,75,0,45
1,73,44,0
1,73,0,45
1,75,39,0
1,75,0,45
1,73,46,0
1,73,0,45
1,75,42,0
1,75,0,45
1,73,48,0
1,73,0,45
1,75,42,0
1,75,0,45
1,73,47,0
1,73,0,45
1,75,40,1
1,73,44,44
1,75,0,1
1,73,0,44
1,75,38,0
1,73,42,45
1,75,0,1
1,73,0,59
1,75,37,0
1,75,0,60
1,72,40,0
1,72,0,60
1,73,35,0
1,73,0,60
