track,note,velocity,time
1,70,127,0
1,70,127,0
1,69,127,0
1,70,127,0
1,72,127,0
1,69,127,0
1,70,127,0
1,72,127,0
1,70,127,0
1,72,127,0
1,73,127,0
1,70,127,0
1,72,127,0
1,73,127,0
1,72,127,0
1,73,127,0
1,75,127,0
1,72,127,0
1,72,127,480
1,70,127,0
1,72,127,0
1,73,127,0
1,70,127,0
1,68,127,0
1,66,127,0
1,65,127,0
1,63,127,0
1,61,127,0
1,60,127,0
1,61,127,0
1,63,127,0
1,65,127,0
1,66,127,0
1,68,127,0
1,70,127,0
1,68,127,0
1,65,127,0
1,66,127,0
1,65,127,0
1,70,127,960
1,69,127,0
1,70,127,0
1,72,127,0
1,69,127,0
1,70,127,0
1,72,127,0
1,70,127,0
1,72,127,0
1,73,127,0
1,70,127,0
1,72,127,0
1,73,127,0
1,72,127,0
1,73,127,0
1,75,127,0
1,72,127,0
1,72,127,0
1,70,127,0
1,72,127,0
1,73,127,0
1,70,127,0
1,68,127,0
1,66,127,0
1,65,127,0
1,63,127,0
1,61,127,0
1,60,127,0
1,61,127,0
1,63,127,0
1,65,127,0
1,66,127,0
1,68,127,0
1,70,127,0
1,68,127,0
1,65,127,0
1,66,127,0
1,65,127,0
1,70,127,0
1,69,127,0
1,70,127,0
1,72,127,0
1,69,127,0
1,70,127,0
1,72,127,0
1,70,127,0
1,72,127,0
1,73,127,0
1,70,127,0
1,72,127,0
1,73,127,0
1,72,127,0
1,73,127,0
1,75,127,0
1,72,127,0
1,72,127,0
1,70,127,0
1,72,127,0
1,73,127,0
1,70,127,0
1,68,127,0
1,66,127,0
1,65,127,0
1,63,127,0
1,61,127,0
1,60,127,0
1,61,127,0
1,63,127,0
1,65,127,0
1,66,127,0
1,68,127,0
1,70,127,0
1,68,127,0
1,65,127,0
1,66,127,0
1,65,127,0
1,70,127,0
1,69,127,0
1,70,127,0
1,72,127,0
1,69,127,0
1,70,127,0
1,72,127,0
1,70,127,0
1,72,127,0
1,73,127,0
1,70,127,0
1,72,127,0
1,73,127,0
1,72,127,0
1,73,127,0
1,75,127,0
1,72,127,0
1,72,127,0
1,70,127,0
1,72,127,0
1,73,127,0
1,70,127,0
1,68,127,0
1,66,127,0
1,65,127,0
1,63,127,0
1,61,127,0
1,60,127,0
1,61,127,0
1,63,127,0
1,65,127,0
1,66,127,0
1,68,127,0
1,70,127,0
1,68,127,0
1,65,127,0
1,66,127,0
1,65,127,0
1,58,127,120
1,58,127,0
1,58,127,120
1,58,127,0
1,58,127,0
1,58,127,0
1,58,127,120
1,58,127,0
1,58,127,120
1,58,127,0
1,58,127,0
1,58,127,0
1,58,127,120
1,58,127,0
1,58,127,120
1,58,127,0
1,58,127,0
1,58,127,0
1,58,127,120
1,58,127,0
1,58,127,120
1,58,127,0
1,58,127,0
1,58,127,0
1,58,127,120
1,58,127,0
1,58,127,120
1,58,127,0
1,58,127,0
1,58,127,0
1,58,127,120
1,58,127,0
1,58,127,120
1,58,127,0
1,58,127,0
1,58,127,0
1,58,127,120
1,58,127,0
1,58,127,120
1,58,127,0
1,58,127,0
1,58,127,0
1,58,127,120
1,58,127,0
1,58,127,120
1,58,127,0
1,58,127,0
1,58,127,0
1,58,127,120
1,58,127,0
1,58,127,120
1,58,127,0
1,58,127,0
1,58,127,0
1,58,127,120
1,58,127,0
1,58,127,120
1,58,127,0
1,58,127,0
1,58,127,0
1,58,127,120
1,58,127,0
1,58,127,120
1,58,127,0
1,58,127,0
1,58,127,0
1,58,127,120
1,58,127,0
1,58,127,120
1,58,127,0
1,58,127,0
1,58,127,0
1,58,127,120
1,58,127,0
1,58,127,120
1,58,127,0
1,58,127,0
1,58,127,0
1,58,127,120
1,58,127,0
1,58,127,120
1,58,127,0
1,58,127,0
1,58,127,0
1,58,127,120
1,58,127,0
1,58,127,120
1,58,127,0
1,58,127,0
1,58,127,0
1,58,127,120
1,58,127,0
1,58,127,120
1,58,127,0
1,58,127,0
1,58,127,0
1,58,127,120
1,58,127,0
1,58,127,120
1,58,127,0
1,58,127,0
1,58,127,0
1,58,127,120
1,58,127,0
1,58,127,120
1,58,127,0
1,58,127,0
1,58,127,0
1,58,127,120
1,58,127,0
1,58,127,120
1,58,127,0
1,58,127,0
1,58,127,0
1,58,127,120
1,58,127,0
1,58,127,120
1,58,127,0
1,58,127,0
1,58,127,0
1,58,127,120
1,58,127,0
1,58,127,120
1,58,127,0
1,58,127,0
1,58,127,0
1,58,127,120
1,58,127,0
1,58,127,120
1,58,127,0
1,58,127,0
1,58,127,0
1,58,127,120
1,58,127,0
1,58,127,120
1,58,127,0
1,58,127,0
1,58,127,0
1,58,127,120
1,58,127,0
1,58,127,120
1,58,127,0
1,58,127,0
1,58,127,0
1,58,127,120
1,58,127,0
1,58,127,120
1,58,127,0
1,58,127,0
1,58,127,0
1,58,127,120
1,58,127,0
1,58,127,120
1,58,127,0
1,58,127,0
1,58,127,0
1,58,127,120
1,58,127,0
1,58,127,120
1,58,127,0
1,58,127,0
1,58,127,0
1,58,127,120
1,58,127,0
1,58,127,120
1,58,127,0
1,58,127,0
1,58,127,0
1,58,127,120
1,58,127,0
1,58,127,120
1,58,127,0
1,58,127,0
1,58,127,0
1,58,127,120
1,58,127,0
1,58,127,120
1,58,127,0
1,58,127,0
1,58,127,0
1,58,127,120
1,58,127,0
1,58,127,120
1,58,127,0
1,58,127,0
1,58,127,0
1,58,127,120
1,58,127,0
1,58,127,120
1,58,127,0
1,58,127,0
1,58,127,0
2,42,127,0
2,54,127,0
2,61,127,0
2,66,127,0
2,41,127,0
2,53,127,0
2,65,127,0
2,60,127,1920
2,42,127,0
2,54,127,0
2,58,127,0
2,63,127,0
2,44,127,0
2,56,127,0
2,60,127,0
2,68,127,4800
2,46,127,0
2,54,127,0
2,58,127,0
2,66,127,0
2,51,127,0
2,56,127,0
2,63,127,0
2,48,127,0
2,53,127,0
2,57,127,0
2,65,127,0
2,42,127,0
2,54,127,0
2,61,127,0
2,66,127,0
2,41,127,0
2,53,127,0
2,65,127,0
2,60,127,1920
2,42,127,0
2,54,127,0
2,58,127,0
2,63,127,0
2,44,127,0
2,56,127,0
2,60,127,0
2,68,127,6240
2,46,127,0
2,54,127,0
2,58,127,0
2,66,127,0
2,51,127,0
2,56,127,0
2,63,127,0
2,48,127,0
2,53,127,0
2,57,127,0
2,65,127,0
2,42,127,0
2,54,127,0
2,61,127,0
2,66,127,0
2,41,127,0
2,53,127,0
2,65,127,0
2,60,127,1920
2,42,127,0
2,54,127,0
2,58,127,0
2,63,127,0
2,44,127,0
2,56,127,0
2,60,127,0
2,68,127,6240
2,46,127,0
2,54,127,0
2,58,127,0
2,66,127,0
2,51,127,0
2,56,127,0
2,63,127,0
2,48,127,0
2,53,127,0
2,57,127,0
2,65,127,0
2,42,127,0
2,54,127,0
2,61,127,0
2,66,127,0
2,41,127,0
2,53,127,0
2,65,127,0
2,60,127,1920
2,42,127,0
2,54,127,0
2,58,127,0
2,63,127,0
2,44,127,0
2,56,127,0
2,60,127,0
2,68,127,6240
2,46,127,0
2,54,127,0
2,58,127,0
2,66,127,0
2,51,127,0
2,56,127,0
2,63,127,0
2,48,127,0
2,53,127,0
2,57,127,0
2,65,127,0
3,70,127,960
3,70,127,0
3,70,127,0
3,70,127,0
3,69,127,0
3,69,127,0
3,70,127,0
3,70,127,0
3,72,127,0
3,72,127,0
3,69,127,0
3,69,127,0
3,70,127,0
3,70,127,0
3,72,127,0
3,72,127,0
3,70,127,0
3,70,127,0
3,72,127,0
3,72,127,0
3,73,127,0
3,73,127,0
3,70,127,0
3,70,127,0
3,72,127,0
3,72,127,0
3,73,127,0
3,73,127,0
3,72,127,0
3,72,127,0
3,73,127,0
3,73,127,0
3,75,127,0
3,75,127,0
3,72,127,0
3,72,127,0
3,72,127,480
3,72,127,0
3,72,127,2400
3,72,127,0
3,73,127,0
3,73,127,0
3,70,127,0
3,70,127,0
3,68,127,0
3,68,127,0
3,66,127,0
3,66,127,0
3,65,127,0
3,65,127,0
3,63,127,0
3,63,127,0
3,61,127,0
3,61,127,0
3,60,127,0
3,60,127,0
3,61,127,0
3,61,127,0
3,63,127,0
3,63,127,0
3,65,127,0
3,65,127,0
3,66,127,0
3,66,127,0
3,68,127,0
3,68,127,0
3,70,127,0
3,70,127,0
3,68,127,0
3,68,127,0
3,65,127,0
3,65,127,0
3,66,127,0
3,66,127,0
3,65,127,0
3,65,127,0
3,46,127,2040
3,51,127,0
3,46,127,120
3,51,127,0
3,46,127,0
3,46,127,0
3,46,127,120
3,51,127,0
3,46,127,120
3,51,127,0
3,46,127,0
3,46,127,0
3,46,127,120
3,51,127,0
3,46,127,120
3,51,127,0
3,46,127,0
3,46,127,0
3,46,127,120
3,51,127,0
3,46,127,120
3,51,127,0
3,46,127,0
3,46,127,0
3,46,127,120
3,51,127,0
3,46,127,120
3,51,127,0
3,46,127,0
3,46,127,0
3,46,127,120
3,51,127,0
3,46,127,120
3,51,127,0
3,46,127,0
3,46,127,0
3,46,127,120
3,51,127,0
3,46,127,120
3,51,127,0
3,46,127,0
3,46,127,0
3,46,127,120
3,51,127,0
3,46,127,120
3,51,127,0
3,46,127,0
3,46,127,0
3,46,127,120
3,51,127,0
3,46,127,120
3,51,127,0
3,46,127,0
3,46,127,0
3,46,127,120
3,51,127,0
3,46,127,120
3,51,127,0
3,46,127,0
3,46,127,0
3,46,127,120
3,51,127,0
3,46,127,120
3,51,127,0
3,46,127,0
3,46,127,0
3,46,127,120
3,51,127,0
3,46,127,120
3,51,127,0
3,46,127,0
3,46,127,0
3,46,127,120
3,51,127,0
3,46,127,120
3,51,127,0
3,46,127,0
3,46,127,0
3,46,127,120
3,51,127,0
3,46,127,120
3,51,127,0
3,46,127,0
3,46,127,0
3,46,127,120
3,51,127,0
3,46,127,120
3,51,127,0
3,46,127,0
3,46,127,0
3,46,127,120
3,51,127,0
3,46,127,120
3,51,127,0
3,46,127,0
3,46,127,0
3,46,127,120
3,51,127,0
3,46,127,120
3,51,127,0
3,46,127,0
3,46,127,0
3,46,127,120
3,51,127,0
3,46,127,120
3,51,127,0
3,46,127,0
3,46,127,0
3,46,127,120
3,51,127,0
3,46,127,120
3,51,127,0
3,46,127,0
3,46,127,0
3,46,127,120
3,51,127,0
3,46,127,120
3,51,127,0
3,46,127,0
3,46,127,0
3,46,127,120
3,51,127,0
3,46,127,120
3,51,127,0
3,46,127,0
3,46,127,0
3,46,127,120
3,51,127,0
3,46,127,120
3,51,127,0
3,46,127,0
3,46,127,0
3,46,127,120
3,51,127,0
3,46,127,120
3,51,127,0
3,46,127,0
3,46,127,0
3,46,127,120
3,51,127,0
3,46,127,120
3,51,127,0
3,46,127,0
3,46,127,0
3,46,127,120
3,51,127,0
3,46,127,120
3,51,127,0
3,46,127,0
3,46,127,0
3,46,127,120
3,51,127,0
3,46,127,120
3,51,127,0
3,46,127,0
3,46,127,0
3,46,127,120
3,51,127,0
3,46,127,120
3,51,127,0
3,46,127,0
3,46,127,0
3,46,127,120
3,51,127,0
3,46,127,120
3,51,127,0
3,46,127,0
3,46,127,0
3,46,127,120
3,51,127,0
3,46,127,120
3,51,127,0
3,46,127,0
3,46,127,0
3,46,127,120
3,51,127,0
3,46,127,120
3,51,127,0
3,46,127,0
3,46,127,0
3,46,127,120
3,51,127,0
3,46,127,120
3,51,127,0
3,46,127,0
3,46,127,0
3,46,127,120
3,51,127,0
3,46,127,120
3,51,127,0
3,46,127,0
3,46,127,0
4,49,127,50880
4,58,127,0
4,54,127,0
4,51,127,0
4,49,127,0
4,58,127,0
4,49,127,0
4,54,127,0
4,49,127,0
4,58,127,0
4,54,127,0
4,51,127,0
4,49,127,0
4,58,127,0
4,49,127,0
4,48,127,0
4,48,127,0
4,58,127,0
4,53,127,0
4,49,127,0
4,48,127,0
4,58,127,0
4,48,127,0
4,53,127,0
4,48,127,0
4,57,127,0
4,53,127,0
4,51,127,0
4,53,127,0
4,57,127,0
4,48,127,0
4,48,127,0
4,48,127,0
4,58,127,0
4,53,127,0
4,48,127,0
4,48,127,0
4,58,127,0
4,48,127,0
4,53,127,0
4,48,127,0
4,60,127,0
4,57,127,0
4,53,127,0
4,57,127,0
4,60,127,0
4,48,127,0
4,53,127,0
4,48,127,0
4,57,127,0
4,53,127,0
4,48,127,0
4,48,127,0
4,57,127,0
4,48,127,0
4,53,127,0
4,48,127,0
4,58,127,0
4,53,127,0
4,48,127,0
4,53,127,0
4,58,127,0
4,48,127,0
4,48,127,0
4,48,127,0
4,60,127,0
4,53,127,0
4,48,127,0
4,48,127,0
4,60,127,0
4,48,127,0
4,53,127,0
4,53,127,0
4,48,127,0
4,58,127,0
4,48,127,0
4,53,127,0
4,48,127,0
4,48,127,0
4,58,127,0
4,53,127,0
4,48,127,0
4,48,127,0
4,48,127,0
4,60,127,0
4,48,127,0
4,53,127,0
4,48,127,0
4,48,127,0
4,60,127,0
4,48,127,0
4,51,127,0
4,53,127,0
4,61,127,0
4,48,127,0
4,53,127,0
4,51,127,0
4,61,127,0
4,53,127,0
4,48,127,0
4,53,127,0
4,58,127,0
4,51,127,0
4,53,127,0
4,53,127,0
4,58,127,0
4,51,127,0
4,53,127,0
4,53,127,0
4,53,127,0
4,60,127,0
4,51,127,0
4,53,127,0
4,51,127,0
4,53,127,0
4,60,127,0
4,51,127,0
4,51,127,0
4,51,127,0
4,61,127,0
4,53,127,0
4,53,127,0
4,51,127,0
4,61,127,0
4,51,127,0
4,51,127,0
4,51,127,0
4,60,127,0
4,48,127,0
4,51,127,0
4,58,127,0
4,60,127,0
4,51,127,0
4,58,127,0
4,51,127,0
4,61,127,0
4,58,127,0
4,51,127,0
4,58,127,0
4,61,127,0
4,58,127,0
4,58,127,0
4,48,127,0
4,63,127,0
4,48,127,0
4,51,127,0
4,49,127,0
4,63,127,0
4,49,127,0
4,51,127,0
4,51,127,0
4,60,127,0
4,51,127,0
4,51,127,0
4,51,127,0
4,60,127,0
4,51,127,0
4,51,127,0
4,51,127,0
4,56,127,0
4,60,127,0
4,51,127,0
4,56,127,0
4,60,127,0
4,60,127,0
4,56,127,0
4,51,127,0
4,56,127,0
4,60,127,0
4,51,127,0
4,56,127,0
4,60,127,0
4,60,127,0
4,56,127,0
4,51,127,0
4,56,127,0
4,60,127,0
4,51,127,0
4,56,127,0
4,60,127,0
4,60,127,0
4,56,127,0
4,51,127,0
4,56,127,0
4,60,127,0
4,51,127,0
4,56,127,0
4,60,127,0
4,60,127,0
4,56,127,0
4,51,127,0
4,56,127,0
4,60,127,0
4,60,127,0
4,56,127,0
4,51,127,0
4,60,127,0
4,56,127,0
4,48,127,120
4,60,127,0
4,56,127,0
4,56,127,0
4,53,127,0
4,48,127,0
4,56,127,0
4,56,127,0
4,53,127,0
4,48,127,0
4,56,127,0
4,53,127,0
4,56,127,0
4,60,127,0
4,56,127,0
4,56,127,0
4,53,127,0
4,53,127,0
4,58,127,0
4,48,127,0
4,48,127,0
4,54,127,0
4,48,127,0
4,54,127,0
4,51,127,0
4,48,127,0
4,54,127,0
4,48,127,0
4,48,127,0
4,54,127,0
4,51,127,0
4,49,127,0
4,48,127,0
4,48,127,0
4,54,127,120
4,49,127,0
4,48,127,0
4,54,127,0
4,49,127,0
4,48,127,0
4,48,127,0
4,54,127,0
4,48,127,0
4,54,127,0
4,54,127,0
4,48,127,0
4,48,127,0
4,48,127,0
4,54,127,0
4,54,127,0
4,48,127,0
4,49,127,0
4,54,127,0
4,54,127,0
4,54,127,0
4,54,127,0
4,51,127,0
4,54,127,0
4,51,127,0
4,51,127,0
4,58,127,0
4,54,127,0
4,51,127,0
4,51,127,0
4,56,127,0
4,51,127,0
4,51,127,0
4,51,127,0
4,56,127,0
4,51,127,0
4,56,127,0
4,56,127,0
4,54,127,0
4,51,127,0
4,56,127,0
4,56,127,0
4,54,127,0
4,54,127,0
4,54,127,0
4,54,127,0
4,53,127,0
