track,note,velocity,time
14,37,84,1920
14,37,84,480
14,37,64,480
14,37,84,0
14,37,64,0
14,37,84,0
14,35,80,0
14,51,115,0
14,49,90,0
14,42,100,380
14,51,115,0
14,38,30,236
14,51,115,0
14,38,40,44
14,51,115,0
14,42,100,380
14,51,115,0
14,51,115,236
14,51,127,44
14,42,110,380
14,51,127,0
14,38,90,236
14,51,110,0
14,51,127,44
14,42,110,380
14,51,127,0
14,51,110,236
14,51,127,44
14,38,80,236
14,49,80,0
14,42,110,44
14,51,127,0
14,38,80,236
14,49,80,0
14,51,127,44
14,42,110,380
14,51,127,0
14,51,127,380
14,42,110,380
14,51,127,0
14,51,127,380
14,38,80,236
14,49,80,0
14,42,110,44
14,51,127,0
14,38,80,236
14,49,80,0
14,51,127,44
14,42,110,380
14,51,127,0
14,51,110,236
14,51,127,44
14,42,110,380
14,51,127,0
14,38,90,236
14,51,110,0
14,51,127,44
14,38,80,236
14,49,80,0
14,42,110,44
14,51,127,0
14,38,80,236
14,49,80,0
14,51,127,44
14,42,110,380
14,51,127,0
14,51,127,380
14,42,110,380
14,51,127,0
14,38,90,236
14,51,110,0
14,51,127,44
14,42,110,380
14,51,127,0
14,51,110,236
14,38,100,44
14,41,100,236
14,42,100,44
14,38,80,236
14,38,90,44
14,41,90,236
14,42,100,44
14,41,100,236
14,51,115,44
14,49,90,0
14,38,70,236
14,42,100,44
14,51,115,0
14,51,115,236
14,38,40,44
14,51,115,0
14,42,100,380
14,51,115,0
14,51,115,236
14,51,127,44
14,38,80,236
14,49,80,0
14,42,110,44
14,51,127,0
14,38,80,236
14,49,80,0
14,51,127,44
14,42,110,380
14,51,127,0
14,51,127,380
14,42,110,380
14,51,127,0
14,51,110,236
14,51,127,44
14,42,110,380
14,51,127,0
14,51,110,236
14,51,127,44
14,42,110,380
14,51,127,0
14,51,127,380
14,42,110,380
14,51,127,0
14,51,127,380
14,38,80,236
14,49,80,0
14,42,110,44
14,51,127,0
14,38,80,236
14,49,80,0
14,51,127,44
14,42,110,380
14,51,127,0
14,51,127,380
14,42,110,380
14,51,127,0
14,38,90,236
14,51,110,0
14,51,127,44
14,42,110,380
14,51,127,0
14,51,110,236
14,51,127,44
14,42,110,380
14,51,127,0
14,51,110,236
14,51,127,44
14,42,110,380
14,51,127,0
14,38,90,236
14,51,110,0
14,35,80,44
14,51,100,0
14,38,90,228
14,51,60,0
14,46,90,52
14,35,40,228
14,51,100,0
14,35,60,52
14,51,90,0
14,38,80,228
14,46,80,52
14,51,60,228
14,35,90,52
14,51,115,0
14,49,90,0
14,42,100,380
14,51,115,0
14,51,115,236
14,38,40,44
14,51,115,0
14,42,100,380
14,51,115,0
14,51,115,236
14,51,127,44
14,35,100,220
14,38,100,0
14,42,110,160
14,51,127,0
14,51,110,236
14,35,100,44
14,38,100,0
14,51,127,0
14,35,100,300
14,38,100,0
14,42,110,0
14,51,127,0
14,38,90,156
14,51,110,0
14,35,127,44
14,51,127,0
14,42,110,380
14,51,127,0
14,51,127,380
14,38,80,236
14,49,80,0
14,42,110,44
14,51,127,0
14,51,127,380
14,35,81,380
14,38,81,0
14,42,110,0
14,51,127,0
14,38,80,156
14,49,80,0
14,38,81,44
14,51,127,0
14,38,81,24
14,42,110,24
14,51,127,0
14,35,81,220
14,38,81,0
14,51,127,160
14,35,81,36
14,38,81,0
14,42,110,0
14,51,127,0
14,51,110,156
14,35,81,44
14,38,81,0
14,51,127,0
14,42,110,300
14,51,127,0
14,51,110,236
14,51,127,44
14,42,110,380
14,51,127,0
14,51,127,380
14,42,110,380
14,51,127,0
14,51,127,380
14,42,110,380
14,51,127,0
14,51,110,236
14,51,127,44
14,42,110,380
14,51,127,0
14,51,110,236
14,42,70,0
14,35,60,0
14,46,70,0
14,38,70,60
14,38,60,72
14,51,40,0
14,57,94,48
14,38,60,0
14,51,50,0
14,38,50,28
14,51,60,0
14,38,60,44
14,51,70,0
14,38,70,0
14,51,50,0
14,38,80,60
14,51,60,0
14,38,90,72
14,51,70,0
14,42,81,48
14,38,115,0
14,46,80,0
14,38,80,60
14,51,70,0
14,35,50,44
14,35,80,0
14,51,115,0
14,49,90,0
14,42,100,380
14,51,115,0
14,51,115,236
14,38,40,44
14,51,115,0
14,42,100,380
14,51,115,0
14,51,115,236
14,38,81,44
14,51,127,0
14,38,81,24
14,42,110,24
14,51,127,0
14,38,80,236
14,49,80,0
14,51,127,44
14,42,110,380
14,51,127,0
14,38,81,220
14,51,127,24
14,42,110,380
14,51,127,0
14,38,81,220
14,51,110,16
14,51,127,24
14,42,110,380
14,51,127,0
14,38,81,220
14,51,110,16
14,51,127,24
14,35,81,220
14,49,81,0
14,38,80,16
14,42,110,44
14,51,127,0
14,35,81,24
14,38,81,0
14,51,127,0
14,35,81,24
14,38,81,0
14,57,80,16
14,42,110,24
14,51,127,0
14,49,81,220
14,51,127,160
14,42,110,60
14,51,127,0
14,51,110,236
14,51,127,44
14,42,110,380
14,51,127,0
14,51,110,236
14,51,127,44
14,42,110,380
14,51,127,0
14,38,90,236
14,51,110,0
14,51,127,44
14,42,110,380
14,51,127,0
14,51,110,236
14,51,127,0
14,38,81,96
14,42,110,0
14,51,127,0
14,51,127,0
14,38,80,144
14,49,80,0
14,42,110,44
14,51,127,0
14,38,80,48
14,49,80,0
14,38,69,0
14,51,127,0
14,38,69,24
14,42,110,24
14,51,127,0
14,51,110,236
14,51,127,44
14,42,110,380
14,51,127,0
14,38,90,236
14,51,110,0
14,51,127,44
14,42,110,380
14,51,127,0
14,51,110,236
14,51,127,44
14,42,110,380
14,51,127,0
14,51,110,236
14,51,127,44
14,38,80,236
14,49,80,0
14,42,110,44
14,51,127,0
14,38,80,236
14,49,80,0
14,51,127,44
14,42,110,380
14,51,127,0
14,51,127,380
14,42,110,380
14,51,127,0
14,51,127,380
14,42,110,380
14,51,127,0
14,51,127,236
14,51,127,44
14,42,110,380
14,51,127,0
14,38,90,236
14,51,110,0
14,51,127,44
14,42,110,380
14,51,127,0
14,51,110,236
14,51,127,44
14,42,110,380
14,51,127,0
14,51,110,236
14,51,127,44
14,42,110,380
14,51,127,0
14,38,90,236
14,51,110,0
14,35,84,44
14,42,90,0
14,49,80,0
14,42,60,60
14,51,90,72
14,42,100,48
14,42,60,60
14,51,100,72
14,42,100,48
14,42,60,60
14,35,60,72
14,46,100,0
14,38,50,48
14,38,70,60
14,38,100,72
14,51,115,48
14,49,90,0
14,38,70,236
14,42,100,44
14,51,115,0
14,38,30,236
14,51,115,0
14,38,40,44
14,51,115,0
14,42,100,380
14,51,115,0
14,51,115,236
14,51,127,44
14,42,110,380
14,51,127,0
14,51,110,236
14,51,127,44
14,42,110,380
14,51,127,0
14,38,90,236
14,51,110,0
14,51,127,44
14,42,110,380
14,51,127,0
14,51,110,236
14,51,127,44
14,42,110,380
14,51,127,0
14,38,90,236
14,51,110,0
14,35,80,44
14,38,60,60
14,38,100,60
14,35,70,60
14,42,100,0
14,38,50,60
14,48,100,60
14,48,70,60
14,38,40,60
14,48,80,60
14,42,100,60
14,45,90,0
14,38,80,60
14,38,90,60
14,35,80,60
14,51,115,0
14,49,90,0
14,42,100,380
14,51,115,0
14,51,115,236
14,38,40,44
14,51,115,0
14,42,100,380
14,51,115,0
14,51,115,236
14,51,127,44
14,42,110,380
14,51,127,0
14,38,90,236
14,51,110,0
14,51,127,44
14,42,110,380
14,51,127,0
14,51,110,236
14,51,127,44
14,42,110,380
14,51,127,0
14,51,127,380
14,42,110,380
14,51,127,0
14,51,127,236
14,51,127,44
14,42,110,380
14,51,127,0
14,38,90,236
14,51,110,0
14,51,127,44
14,42,110,380
14,51,127,0
14,51,110,236
14,51,127,44
14,42,110,380
14,51,127,0
14,38,90,236
14,51,110,0
14,51,127,44
14,42,110,380
14,51,127,0
14,51,110,236
14,51,127,44
14,42,110,380
14,51,127,0
14,38,90,236
14,51,110,0
14,51,127,44
14,42,110,380
14,51,127,0
14,51,110,236
14,51,127,44
14,42,110,380
14,51,127,0
14,51,110,236
14,51,127,44
14,42,110,380
14,51,127,0
14,51,110,236
14,35,80,44
14,51,100,0
14,38,90,228
14,51,60,0
14,46,90,52
14,35,40,228
14,51,100,0
14,35,60,52
14,51,90,0
14,38,80,228
14,46,80,52
14,51,60,228
14,35,80,52
14,51,115,0
14,49,90,0
14,42,100,380
14,51,115,0
14,51,115,236
14,38,40,44
14,51,115,0
14,42,100,380
14,51,115,0
14,51,115,236
14,51,127,44
14,42,110,380
14,51,127,0
14,51,127,380
14,42,110,380
14,51,127,0
14,51,127,236
14,51,127,44
14,42,110,380
14,51,127,0
14,51,127,380
14,42,110,380
14,51,127,0
14,38,80,236
14,49,80,0
14,51,127,44
14,42,110,380
14,51,127,0
14,38,90,236
14,51,110,0
14,51,127,44
14,42,110,380
14,51,127,0
14,51,110,236
14,51,127,44
14,42,110,380
14,51,127,0
14,51,110,236
14,51,127,44
14,42,110,380
14,51,127,0
14,51,110,236
14,51,127,44
14,38,80,236
14,49,80,0
14,42,110,44
14,51,127,0
14,51,127,380
14,42,110,380
14,51,127,0
14,51,127,0
14,42,110,96
14,51,127,0
14,51,110,48
14,51,127,0
14,42,110,96
14,51,127,0
14,51,110,48
14,38,81,64
14,38,81,0
14,51,90,0
14,38,81,0
14,35,90,192
14,42,100,44
14,51,115,0
14,49,81,0
14,35,81,0
14,51,60,144
14,38,100,44
14,51,115,0
14,35,90,236
14,42,100,44
14,51,90,0
14,38,81,0
14,35,81,0
14,38,100,144
14,51,115,44
14,49,90,0
14,42,100,380
14,51,115,0
14,38,30,236
14,51,115,0
14,38,40,44
14,51,115,0
14,38,50,236
14,42,100,44
14,51,115,0
14,51,115,236
14,51,127,44
14,42,110,380
14,51,127,0
14,51,127,380
14,38,80,236
14,49,80,0
14,42,110,44
14,51,127,0
14,51,127,380
14,42,110,380
14,51,127,0
14,51,127,380
14,42,110,380
14,51,127,0
14,51,127,236
14,51,127,44
14,38,80,236
14,49,80,0
14,42,110,44
14,51,127,0
14,38,100,236
14,38,80,44
14,51,127,0
14,49,80,0
14,42,110,380
14,51,127,0
14,38,80,236
14,49,80,0
14,51,127,44
14,42,110,380
14,51,127,0
14,38,90,236
14,51,110,0
14,51,127,44
14,42,110,380
14,51,127,0
14,51,110,236
14,51,127,44
14,42,110,380
14,51,127,0
14,51,127,380
14,38,80,236
14,49,80,0
14,42,110,44
14,51,127,0
14,38,80,236
14,49,80,0
14,51,127,44
14,42,110,380
14,51,127,0
14,51,110,236
14,51,127,44
14,42,110,380
14,51,127,0
14,51,110,236
14,35,80,0
14,49,90,0
14,38,90,128
14,46,90,60
14,48,50,32
14,48,90,0
14,45,80,128
14,46,70,60
14,41,60,60
14,41,90,32
14,51,115,0
14,49,90,0
14,38,70,236
14,42,100,44
14,51,115,0
14,38,30,236
14,51,115,0
14,38,40,44
14,51,115,0
14,42,100,380
14,51,115,0
14,51,115,236
14,51,127,44
14,42,110,380
14,51,127,0
14,38,90,236
14,51,110,0
14,51,127,44
14,42,110,380
14,51,127,0
14,51,110,236
14,51,127,44
14,42,110,380
14,51,127,0
14,51,110,236
14,51,127,44
14,42,110,380
14,51,127,0
14,51,110,236
14,51,127,44
14,42,110,380
14,51,127,0
14,38,100,220
14,51,110,16
14,38,100,24
14,51,127,0
14,38,100,24
14,42,110,24
14,51,127,0
14,57,81,220
14,38,90,16
14,51,110,0
14,51,127,44
14,42,110,60
14,51,127,0
14,51,110,236
14,38,81,44
14,51,127,0
14,38,81,24
14,42,110,24
14,51,127,0
14,35,81,220
14,38,81,0
14,51,110,16
14,51,127,44
14,42,110,380
14,51,127,0
14,35,81,220
14,38,81,0
14,51,127,24
14,38,98,300
14,38,81,0
14,38,94,0
14,42,110,0
14,51,127,0
14,35,81,168
14,38,81,0
14,49,81,0
14,51,127,16
14,51,127,0
14,35,94,72
14,42,110,0
14,51,127,0
14,51,127,360
14,35,94,380
14,42,110,0
14,51,127,0
14,51,127,216
14,51,127,44
14,35,94,380
14,51,127,0
14,42,110,0
14,51,110,216
14,51,127,44
14,35,94,380
14,51,127,0
14,42,110,0
14,51,110,216
14,38,90,0
14,35,81,44
14,51,115,0
14,42,100,380
14,51,115,0
14,51,115,236
14,38,40,44
14,51,115,0
14,42,100,380
14,51,115,0
14,51,115,236
14,51,127,44
14,42,110,380
14,51,127,0
14,35,94,380
14,51,127,0
14,38,80,168
14,49,80,0
14,42,110,44
14,51,127,0
14,35,81,380
14,51,127,0
14,42,110,380
14,51,127,0
14,51,110,236
14,51,127,44
14,42,110,380
14,51,127,0
14,38,90,236
14,51,110,0
14,51,115,44
14,51,115,380
14,42,100,0
14,51,115,236
14,35,94,44
14,51,115,0
14,38,40,0
14,51,115,312
14,42,100,0
14,35,69,44
14,57,69,0
14,57,44,1
14,57,45,1
14,57,45,1
14,57,45,1
14,57,44,1
14,57,44,1
14,57,44,1
14,57,42,1
14,57,42,1
14,57,42,1
14,57,42,1
14,57,41,1
14,57,41,1
14,57,41,1
14,57,40,1
14,57,40,1
14,57,40,1
14,57,38,1
14,57,38,1
14,57,38,1
14,57,38,1
14,57,37,1
14,57,37,1
14,57,37,1
14,57,36,1
14,57,36,1
14,57,36,1
14,35,69,241
14,57,69,0
14,57,44,1
14,57,44,1
14,57,44,1
14,57,44,1
14,57,42,1
14,57,42,1
14,57,42,1
14,57,42,1
14,57,41,1
14,57,41,1
14,57,41,1
14,57,41,1
14,57,40,1
14,57,40,1
14,57,40,1
14,57,40,1
14,57,38,1
14,57,38,1
14,57,38,1
14,57,38,1
14,57,37,1
14,57,37,1
14,57,37,1
14,57,36,1
14,57,36,1
14,57,36,1
14,57,36,1
14,35,69,241
14,57,69,0
14,57,45,1
14,57,45,1
14,57,45,1
14,57,45,1
14,57,45,1
14,57,44,1
14,57,44,1
14,57,44,1
14,57,44,1
14,57,44,1
14,57,42,1
14,57,42,1
14,57,42,1
14,57,42,1
14,57,42,1
14,57,42,1
14,57,41,1
14,57,41,1
14,57,41,1
14,57,41,1
14,57,41,1
14,57,40,1
14,57,40,1
14,57,40,1
14,57,40,1
14,57,40,1
14,57,38,1
14,57,40,1
14,57,40,1
14,57,40,1
14,57,40,1
14,57,40,1
14,57,40,1
14,57,40,1
14,57,40,1
14,57,40,1
14,57,40,1
14,57,40,1
14,57,40,1
14,57,41,1
14,57,41,1
14,57,41,1
14,57,41,1
14,57,41,1
14,57,41,1
14,57,41,1
14,57,41,1
14,57,41,1
14,57,41,1
14,57,41,1
14,57,41,1
14,57,41,1
14,57,42,1
14,57,42,1
14,57,42,1
14,57,42,1
14,57,42,1
14,57,42,1
14,57,42,1
14,57,42,1
14,57,42,1
14,57,42,1
14,57,42,1
15,39,81,3840
15,45,81,2028
15,46,81,0
15,39,81,0
15,39,81,0
15,42,81,0
15,43,81,0
15,42,81,2240
15,43,81,0
15,31,81,0
15,36,81,0
15,37,81,0
15,37,81,1280
15,36,81,0
15,36,81,0
15,40,81,1280
15,41,81,0
15,41,81,960
15,46,81,0
15,46,81,320
15,34,81,0
15,36,81,0
15,38,81,0
15,39,81,0
15,45,81,2028
15,46,81,0
15,39,81,0
15,39,81,0
15,42,81,0
15,43,81,0
15,42,81,2240
15,43,81,0
15,31,81,0
15,36,81,0
15,37,81,0
15,37,81,1280
15,36,81,0
15,36,81,0
15,40,81,1280
15,41,81,0
15,48,81,1760
15,41,81,0
15,43,81,0
15,45,81,0
15,46,81,0
15,47,81,2048
15,46,81,24
15,40,81,24
15,39,81,24
15,40,81,1944
15,39,81,24
15,33,81,24
15,32,81,344
15,33,81,24
15,32,81,24
15,44,81,824
15,32,81,24
15,34,81,24
15,36,81,24
15,37,81,24
15,39,81,24
15,41,81,24
15,44,81,24
15,49,81,0
15,44,82,24
15,43,84,24
15,43,88,0
15,31,90,24
15,36,102,0
15,24,110,60
15,38,102,52
15,39,82,44
15,43,95,32
15,36,100,4
15,35,87,0
15,42,85,480
