track,note,velocity,time
1,1,1,0
1,79,127,12288
1,79,127,92
1,77,127,24
1,75,127,32
1,79,127,12
1,79,127,128
1,79,127,912
1,77,127,4
1,75,127,288
1,79,127,180
1,79,127,48
1,75,127,784
1,75,127,120
1,77,127,288
1,79,127,84
1,80,127,48
1,80,127,136
1,80,127,60
1,79,127,84
1,77,127,884
1,75,127,384
1,74,127,16
1,77,127,384
1,77,127,56
1,77,127,864
1,79,127,4
1,79,127,124
1,77,127,192
1,75,127,40
1,72,127,220
1,75,127,384
1,72,127,260
1,75,127,160
1,74,127,620
1,74,127,28
1,72,127,16
1,72,127,84
1,76,127,1596
1,77,127,576
1,79,127,20
1,81,127,12
1,79,127,576
1,78,127,20
1,81,127,0
1,79,127,12
1,76,127,1044
1,77,127,576
1,79,127,32
1,84,127,384
1,83,127,8
1,79,127,0
1,77,127,288
1,81,127,428
1,80,127,576
1,81,127,20
1,84,127,4
1,83,127,20
1,81,127,480
1,84,127,84
1,83,127,576
1,81,127,76
1,81,127,52
1,81,127,56
1,81,127,40
1,81,127,180
1,71,127,576
1,81,127,16
1,79,127,768
1,76,127,2404
1,77,127,576
1,79,127,556
1,81,127,360
1,79,127,12
1,78,127,576
1,81,127,0
1,79,127,12
1,76,127,1012
1,77,127,576
1,79,127,548
1,81,127,376
1,79,127,12
1,77,127,576
1,81,127,8
1,81,127,896
1,80,127,8
1,81,127,16
1,84,127,384
1,83,127,556
1,81,127,24
1,81,127,112
1,79,127,384
1,82,127,20
1,81,127,28
1,79,127,192
1,77,127,176
1,76,127,48
1,79,127,384
1,77,127,352
1,77,127,652
1,77,127,32
1,72,127,8
1,74,127,384
1,76,127,360
1,77,127,376
1,76,127,24
1,76,127,124
1,74,127,0
1,72,127,672
1,77,127,7440
1,77,127,76
1,75,127,0
1,74,127,0
1,77,127,192
1,77,127,28
1,77,127,504
1,79,127,4
1,77,127,768
1,75,127,564
1,72,127,52
1,72,127,8
1,75,127,20
1,72,127,192
1,75,127,132
1,74,127,632
1,74,127,68
1,72,127,672
1,72,127,156
1,76,127,2180
1,77,127,576
1,79,127,8
1,81,127,384
1,79,127,556
1,78,127,8
1,81,127,384
1,79,127,12
1,76,127,1068
1,77,127,576
1,79,127,4
1,84,127,4
1,83,127,576
1,79,127,8
1,77,127,384
1,81,127,1136
1,80,127,4
1,81,127,24
1,84,127,24
1,83,127,576
1,81,127,552
1,84,127,24
1,83,127,576
1,81,127,288
1,81,127,48
1,81,127,84
1,81,127,92
1,71,127,480
1,81,127,76
1,79,127,768
1,76,127,1852
1,77,127,576
1,79,127,516
1,81,127,20
1,79,127,576
1,78,127,8
1,81,127,384
1,79,127,568
1,76,127,888
1,77,127,576
1,79,127,524
1,81,127,372
1,79,127,12
1,77,127,12
1,81,127,384
1,81,127,1132
1,80,127,576
1,81,127,548
1,84,127,0
1,83,127,576
1,81,127,20
1,81,127,128
1,79,127,12
1,82,127,28
1,81,127,28
1,79,127,0
1,77,127,8
1,76,127,28
1,79,127,384
1,77,127,336
1,77,127,456
1,72,127,384
1,74,127,372
1,76,127,352
1,77,127,360
1,76,127,20
1,76,127,64
1,74,127,28
1,72,127,4
2,1,1,0
2,63,95,956
2,67,95,0
2,72,95,0
2,70,95,2300
2,68,95,76
2,60,95,32
2,65,95,0
2,62,95,116
2,59,95,28
2,67,95,0
2,60,95,124
2,63,95,0
2,55,95,176
2,63,95,0
2,60,95,4
2,56,95,108
2,55,95,24
2,56,95,132
2,65,95,372
2,62,95,8
2,59,95,80
2,55,95,16
2,60,95,8
2,63,95,536
2,68,95,80
2,67,95,88
2,59,95,12
2,62,95,0
2,65,95,4
2,55,95,352
2,64,95,0
2,60,95,0
2,60,95,100
2,64,95,0
2,60,95,108
2,64,95,0
2,62,95,380
2,65,95,0
2,62,95,80
2,65,95,0
2,62,95,108
2,65,95,0
2,64,95,356
2,67,95,0
2,64,95,88
2,67,95,16
2,64,95,96
2,67,95,0
2,62,95,8
2,65,95,0
2,64,95,0
2,60,95,16
2,62,95,584
2,65,95,0
2,64,95,8
2,67,95,4
2,65,95,92
2,69,95,0
2,64,95,0
2,67,95,16
2,63,95,108
2,66,95,0
2,65,95,68
2,69,95,0
2,64,95,12
2,67,95,0
2,60,95,932
2,60,95,120
2,64,95,0
2,65,95,8
2,62,95,4
2,64,95,544
2,67,95,0
2,69,95,120
2,72,95,0
2,67,95,404
2,71,95,0
2,67,95,68
2,64,95,16
2,62,95,96
2,65,95,0
2,59,95,28
2,55,95,32
2,65,95,92
2,69,95,0
2,64,95,8
2,68,95,0
2,65,95,8
2,69,95,0
2,72,95,96
2,69,95,16
2,71,95,12
2,67,95,0
2,69,95,584
2,65,95,16
2,72,95,368
2,67,95,8
2,65,95,16
2,71,95,0
2,65,95,100
2,69,95,0
2,59,95,944
2,62,95,540
2,67,95,16
2,65,95,80
2,69,95,0
2,67,95,76
2,60,95,16
2,64,95,24
2,64,95,136
2,60,95,4
2,62,95,580
2,65,95,0
2,64,95,0
2,67,95,0
2,65,95,76
2,69,95,4
2,64,95,556
2,67,95,0
2,66,95,0
2,63,95,16
2,65,95,88
2,69,95,0
2,64,95,12
2,67,95,0
2,60,95,1812
2,60,95,96
2,64,95,0
2,62,95,88
2,65,95,0
2,67,95,8
2,64,95,16
2,61,95,352
2,69,95,0
2,67,95,20
2,65,95,8
2,69,95,60
2,62,95,16
2,65,95,104
2,69,95,0
2,68,95,20
2,64,95,16
2,65,95,20
2,69,95,0
2,69,95,56
2,72,95,16
2,71,95,0
2,69,95,596
2,69,95,68
2,67,95,352
2,60,95,16
2,64,95,0
2,70,95,364
2,69,95,200
2,67,95,296
2,62,95,188
2,65,95,0
2,64,95,96
2,61,95,0
2,67,95,536
2,62,95,48
2,65,95,0
2,57,95,388
2,56,95,8
2,60,95,0
2,64,95,32
2,55,95,16
2,59,95,1504
2,62,95,364
2,67,95,352
2,65,95,8
2,64,95,120
2,60,95,0
2,62,95,424
2,65,95,0
2,64,95,4
2,67,95,16
2,62,95,740
2,65,95,0
2,64,95,0
2,55,95,16
2,60,95,0
2,62,95,8
2,65,95,0
2,64,95,712
2,67,95,0
2,62,95,0
2,65,95,0
2,60,95,8
2,64,95,0
2,55,95,60
2,62,95,0
2,59,95,24
2,65,95,1292
2,67,95,8
2,60,95,16
2,63,95,0
2,68,95,2952
2,65,95,76
2,67,95,16
2,59,95,4
2,62,95,0
2,64,95,192
2,55,95,12
2,60,95,0
2,62,95,1128
2,65,95,0
2,64,95,740
2,67,95,0
2,62,95,8
2,65,95,0
2,60,95,392
2,64,95,0
2,62,95,564
2,65,95,0
2,64,95,516
2,67,95,16
2,60,95,228
2,69,95,108
2,65,95,4
2,64,95,8
2,67,95,16
2,66,95,96
2,63,95,16
2,69,95,40
2,65,95,12
2,64,95,8
2,67,95,0
2,60,95,116
2,64,95,0
2,62,95,572
2,65,95,0
2,64,95,8
2,67,95,4
2,69,95,124
2,72,95,0
2,67,95,560
2,71,95,0
2,60,95,548
2,64,95,16
2,65,95,92
2,59,95,16
2,62,95,0
2,55,95,752
2,65,95,36
2,69,95,0
2,64,95,0
2,68,95,16
2,65,95,8
2,69,95,20
2,72,95,376
2,65,95,496
2,67,95,0
2,71,95,0
2,69,95,76
2,65,95,8
2,72,95,368
2,67,95,20
2,71,95,0
2,65,95,212
2,69,95,0
2,65,95,80
2,69,95,0
2,59,95,0
2,62,95,0
2,65,95,540
2,69,95,1124
2,67,95,96
2,60,95,32
2,64,95,16
2,62,95,636
2,65,95,0
2,64,95,764
2,67,95,0
2,62,95,788
2,65,95,0
2,60,95,364
2,64,95,0
2,62,95,764
2,65,95,0
2,64,95,340
2,67,95,16
2,60,95,272
2,69,95,72
2,65,95,20
2,64,95,8
2,67,95,0
2,66,95,80
2,63,95,16
2,69,95,48
2,65,95,16
2,64,95,8
2,67,95,0
2,60,95,124
2,64,95,0
2,62,95,8
2,65,95,0
2,64,95,0
2,67,95,4
2,69,95,204
2,61,95,16
2,67,95,552
2,65,95,552
2,62,95,48
2,69,95,16
2,60,95,112
2,65,95,0
2,69,95,0
2,68,95,560
2,69,95,28
2,65,95,16
2,72,95,116
2,69,95,16
2,71,95,12
2,69,95,8
2,60,95,184
2,64,95,20
2,69,95,0
2,67,95,20
2,70,95,188
2,69,95,300
2,67,95,8
2,62,95,0
2,65,95,0
2,61,95,220
2,64,95,12
2,67,95,384
2,62,95,8
2,65,95,0
2,57,95,24
2,56,95,148
2,60,95,0
2,64,95,48
2,55,95,4
2,62,95,1744
2,59,95,4
2,67,95,748
2,55,95,48
2,60,95,336
2,64,95,0
2,62,95,764
2,65,95,0
2,64,95,8
2,67,95,0
2,62,95,768
2,65,95,0
2,55,95,348
2,64,95,0
2,60,95,24
2,62,95,1124
2,65,95,0
2,64,95,12
2,67,95,0
2,65,95,8
2,62,95,4
2,55,95,224
2,60,95,0
2,64,95,0
2,64,95,196
2,72,95,0
3,67,88,0
3,75,102,4
3,67,90,104
3,75,96,0
3,67,83,136
3,75,93,0
3,65,86,128
3,74,80,0
3,74,81,112
3,65,85,0
3,65,83,136
3,74,86,0
3,63,94,24
3,72,86,0
3,63,81,124
3,72,81,0
3,63,83,108
3,72,88,8
3,62,88,128
3,70,98,0
3,62,93,124
3,70,100,0
3,60,87,100
3,68,88,0
3,58,98,112
3,67,93,0
3,60,91,128
3,68,83,0
3,68,83,20
3,72,94,16
3,68,90,104
3,72,86,0
3,68,93,120
3,72,85,4
3,67,92,12
3,70,90,0
3,67,89,104
3,70,93,0
3,70,92,124
3,67,93,12
3,68,86,156
3,65,93,16
3,65,89,116
3,68,94,0
3,65,89,112
3,68,99,0
3,63,94,52
3,67,87,0
3,62,84,176
3,65,98,0
3,71,74,188
3,79,83,0
3,79,99,112
3,71,84,16
3,79,98,120
3,71,83,4
3,77,88,20
3,68,86,16
3,68,81,104
3,77,90,0
3,68,90,124
3,77,87,0
3,67,84,72
3,75,94,0
3,67,93,104
3,75,102,0
3,67,94,124
3,75,102,0
3,65,88,52
3,74,96,0
3,63,92,212
3,72,87,0
3,59,82,14248
3,62,84,16
3,60,84,12
3,63,82,0
3,62,78,8
3,65,62,16
3,60,86,2368
3,58,79,388
3,56,55,32
3,55,68,1520
3,53,54,836
3,52,62,156
3,60,57,16
3,60,76,2756
3,64,67,0
3,62,84,764
3,65,80,16
3,64,79,4
3,67,74,0
3,65,85,72
3,69,83,0
3,64,80,628
3,67,87,12
3,66,94,88
3,63,93,0
3,69,73,24
3,65,99,16
3,67,76,8
3,64,81,4
3,64,80,8
3,60,85,16
3,62,83,88
3,65,92,16
3,64,90,28
3,67,95,4
3,69,88,108
3,72,88,0
3,71,78,8
3,67,85,4
3,64,81,68
3,67,88,16
3,65,76,100
3,62,78,0
3,65,89,264
3,69,84,8
3,68,86,552
3,64,88,16
3,65,87,12
3,69,83,16
3,69,88,148
3,72,89,0
3,71,83,0
3,67,84,16
3,65,87,12
3,69,86,0
3,69,83,116
3,72,73,0
3,67,73,20
3,71,66,0
3,65,86,304
3,69,87,0
3,65,80,68
3,69,79,0
3,62,81,12
3,59,66,0
3,69,75,332
3,65,84,0
3,64,81,12
3,67,73,0
3,64,90,1688
3,60,88,4
3,65,77,4
3,62,83,4
3,64,85,4
3,67,76,0
3,65,86,112
3,69,84,0
3,64,84,24
3,67,83,0
3,66,88,88
3,63,105,16
3,69,75,80
3,65,96,16
3,64,78,12
3,67,69,0
3,60,89,1136
3,64,83,0
3,62,85,0
3,65,89,0
3,64,89,536
3,67,82,0
3,61,84,116
3,69,84,0
3,67,88,20
3,65,96,576
3,69,82,84
3,65,83,784
3,69,81,20
3,68,68,36
3,64,84,16
3,65,85,12
3,69,81,16
3,72,84,220
3,69,88,0
3,71,84,12
3,69,92,0
3,69,86,224
3,64,77,16
3,67,72,12
3,64,83,12
3,70,94,40
3,69,81,16
3,67,83,12
3,65,87,224
3,62,83,0
3,61,87,32
3,64,91,0
3,67,87,380
3,62,75,12
3,65,90,0
3,60,86,520
3,62,87,400
3,64,74,12
3,60,81,0
3,62,78,0
3,59,57,16
3,67,73,24
3,60,73,236
3,52,75,0
3,60,92,3504
3,64,91,0
3,62,79,8
3,59,81,0
3,60,87,0
3,57,87,16
3,55,88,64
3,59,84,0
3,62,85,2560
3,59,61,16
3,60,80,68
3,63,73,12
3,62,82,36
3,65,71,0
3,60,60,748
3,58,85,400
3,56,79,260
3,55,77,52
3,60,72,784
3,63,70,380
3,56,69,320
3,55,77,48
3,59,80,736
3,60,75,28
3,48,65,12
3,60,82,1136
3,64,84,0
3,65,79,592
3,62,87,0
3,64,88,12
3,67,80,0
3,65,82,100
3,69,83,0
3,67,79,12
3,64,82,16
3,66,88,0
3,63,94,16
3,65,82,112
3,69,83,0
3,64,75,20
3,67,74,0
3,60,84,1304
3,64,80,0
3,62,81,20
3,65,84,16
3,64,84,12
3,67,75,0
3,69,87,100
3,72,84,0
3,71,75,560
3,67,85,0
3,64,81,80
3,67,81,0
3,62,79,8
3,65,82,0
3,65,79,332
3,69,84,0
3,68,54,8
3,64,78,4
3,65,88,8
3,69,80,0
3,69,85,128
3,72,89,0
3,67,83,12
3,71,79,0
3,65,80,24
3,69,67,0
3,69,81,60
3,72,81,0
3,67,78,12
3,71,62,0
3,65,85,268
3,69,84,0
3,65,78,72
3,69,81,0
3,55,61,188
3,59,62,0
3,65,87,156
3,59,74,0
3,69,78,0
3,64,69,8
3,67,60,0
3,60,61,24
3,60,84,1508
3,64,83,0
3,62,84,592
3,65,73,16
3,64,83,0
3,67,79,0
3,65,93,104
3,69,93,0
3,64,88,24
3,67,86,4
3,63,99,24
3,66,94,0
3,69,89,80
3,65,95,0
3,67,82,24
3,64,83,0
3,60,91,1296
3,64,90,0
3,62,91,24
3,65,95,0
3,67,85,20
3,64,89,4
3,61,90,32
3,69,84,20
3,67,88,8
3,65,87,8
3,69,82,108
3,65,84,1176
3,69,70,4
3,68,72,0
3,64,82,20
3,65,84,8
3,69,88,0
3,69,91,156
3,72,89,12
3,67,90,12
3,71,79,0
3,69,90,12
3,60,79,256
3,69,79,0
3,64,88,20
3,69,88,4
3,60,83,0
3,64,89,0
3,64,81,88
3,60,84,0
3,67,89,0
3,61,87,56
3,64,96,4
3,70,97,0
3,65,98,68
3,69,90,0
3,64,93,12
3,67,93,0
3,62,93,20
3,65,98,0
3,61,86,140
3,64,89,0
3,64,88,8
3,67,85,0
3,62,83,32
3,65,88,0
3,60,80,8
3,62,87,344
3,60,71,352
3,64,82,16
3,67,74,1504
3,55,69,16
3,48,88,4
3,52,99,16
3,48,99,0
3,48,83,80
3,52,93,0
3,48,95,108
3,52,96,0
3,53,94,24
3,50,100,0
3,50,101,80
3,53,103,0
3,50,103,100
3,53,105,0
3,52,93,20
3,55,92,0
3,52,100,92
3,55,105,0
3,55,105,104
3,52,101,0
3,53,99,8
3,50,101,20
3,36,99,12
3,48,102,0
3,60,87,372
3,64,85,0
3,64,85,100
3,60,85,16
3,60,95,132
3,64,98,0
3,62,94,388
3,65,98,0
3,62,99,108
3,65,98,0
3,62,104,108
3,65,104,0
3,64,89,8
3,67,87,0
3,64,87,64
3,67,95,0
3,64,86,104
3,67,89,0
3,65,93,8
3,62,90,0
3,36,83,352
3,64,95,16
3,48,93,0
3,60,93,0
3,60,88,856
3,62,79,8
3,64,91,112
3,65,94,8
3,67,90,88
3,69,95,48
3,71,95,40
3,72,102,48
4,67,107,2688
4,75,107,0
4,67,106,120
4,75,109,0
4,67,102,136
4,75,107,0
4,65,101,92
4,74,103,4
4,74,104,112
4,65,98,0
4,74,102,132
4,65,95,8
4,63,103,56
4,72,92,0
4,63,95,112
4,72,97,0
4,63,85,136
4,72,90,0
4,62,101,104
4,70,104,0
4,62,97,104
4,70,111,0
4,68,103,88
4,60,99,16
4,58,108,104
4,67,110,0
4,68,99,100
4,60,100,16
4,71,106,2136
4,79,111,0
4,71,102,96
4,79,102,0
4,79,115,128
4,71,110,0
4,68,104,112
