track,note,velocity,time
1,45,75,536
1,57,67,0
1,61,67,0
1,64,67,0
1,69,68,8
1,73,68,0
1,76,68,0
1,97,88,30
1,97,0,32
1,97,77,96
1,97,0,32
1,97,65,96
1,97,0,32
1,97,54,96
1,97,0,32
1,97,39,96
1,97,0,32
1,97,20,96
1,97,0,32
1,57,0,57
1,61,0,0
1,64,0,0
1,54,67,1
1,59,67,0
1,63,67,0
1,69,0,7
1,73,0,0
1,76,0,0
1,66,68,1
1,71,68,0
1,75,68,0
1,97,15,30
1,97,0,32
1,97,10,96
1,97,0,32
1,97,5,96
1,97,0,32
1,45,0,441
1,54,0,0
1,59,0,0
1,63,0,0
1,44,77,1
1,54,67,0
1,59,67,0
1,63,67,0
1,66,0,7
1,71,0,0
1,75,0,0
1,66,68,1
1,71,68,0
1,75,68,0
1,90,88,30
1,90,0,32
1,90,77,96
1,90,0,32
1,90,65,96
1,90,0,32
1,90,54,96
1,90,0,32
1,90,39,96
1,90,0,32
1,90,20,96
1,90,0,32
1,44,0,57
1,54,0,0
1,59,0,0
1,63,0,0
1,49,77,1
1,56,67,0
1,59,67,0
1,64,67,0
1,66,0,7
1,71,0,0
1,75,0,0
1,68,68,1
1,71,68,0
1,76,68,0
1,90,15,30
1,90,0,32
1,90,10,96
1,90,0,32
1,90,5,96
1,90,0,32
1,56,0,436
1,59,0,0
1,64,0,0
1,49,0,5
1,45,75,1
1,57,67,0
1,61,67,0
1,64,67,0
1,68,0,7
1,71,0,0
1,76,0,0
1,69,68,1
1,73,68,0
1,76,68,0
1,97,88,30
1,97,0,32
1,97,77,96
1,97,0,32
1,97,65,96
1,97,0,32
1,97,54,96
1,97,0,32
1,97,39,96
1,97,0,32
1,97,20,96
1,97,0,32
1,57,0,57
1,61,0,0
1,64,0,0
1,54,67,1
1,59,67,0
1,63,67,0
1,69,0,7
1,73,0,0
1,76,0,0
1,66,68,1
1,71,68,0
1,75,68,0
1,97,15,30
1,97,0,32
1,97,10,96
1,97,0,32
1,97,5,96
1,97,0,32
1,45,0,441
1,54,0,0
1,59,0,0
1,63,0,0
1,44,77,1
1,54,67,0
1,59,67,0
1,63,67,0
1,66,0,7
1,71,0,0
1,75,0,0
1,66,68,1
1,71,68,0
1,75,68,0
1,90,88,30
1,90,0,32
1,90,77,96
1,90,0,32
1,90,65,96
1,90,0,32
1,90,54,96
1,90,0,32
1,90,39,96
1,90,0,32
1,90,20,96
1,90,0,32
1,44,0,57
1,54,0,0
1,59,0,0
1,63,0,0
1,49,77,1
1,56,67,0
1,59,67,0
1,64,67,0
1,66,0,7
1,71,0,0
1,75,0,0
1,68,68,1
1,71,68,0
1,76,68,0
1,90,15,30
1,90,0,32
1,90,10,96
1,90,0,32
1,90,5,96
1,90,0,32
1,56,0,436
1,59,0,0
1,64,0,0
1,49,0,5
1,45,75,1
1,57,67,0
1,61,67,0
1,64,67,0
1,80,76,6
1,68,0,1
1,71,0,0
1,76,0,0
1,69,68,1
1,73,68,0
1,76,68,0
1,57,0,759
1,61,0,0
1,64,0,0
1,54,67,1
1,59,67,0
1,63,67,0
1,80,0,5
1,78,52,1
1,69,0,1
1,73,0,0
1,76,0,0
1,66,68,1
1,71,68,0
1,75,68,0
1,45,0,759
1,54,0,0
1,59,0,0
1,63,0,0
1,44,77,1
1,54,67,0
1,59,67,0
1,63,67,0
1,78,0,5
1,83,70,1
1,66,0,1
1,71,0,0
1,75,0,0
1,66,68,1
1,71,68,0
1,75,68,0
1,95,88,126
1,95,0,32
1,95,77,96
1,95,0,32
1,95,65,96
1,95,0,32
1,95,54,96
1,95,0,32
1,95,39,96
1,95,0,32
1,44,0,89
1,54,0,0
1,59,0,0
1,63,0,0
1,49,77,1
1,56,67,0
1,59,67,0
1,64,67,0
1,83,0,5
1,80,54,1
1,95,20,0
1,66,0,1
1,71,0,0
1,75,0,0
1,68,68,1
1,71,68,0
1,76,68,0
1,95,0,30
1,95,15,96
1,95,0,32
1,95,10,96
1,95,0,32
1,95,5,96
1,95,0,32
1,56,0,340
1,59,0,0
1,64,0,0
1,49,0,5
1,45,75,1
1,57,67,0
1,61,67,0
1,64,67,0
1,80,0,5
1,80,76,1
1,68,0,1
1,71,0,0
1,76,0,0
1,69,68,1
1,73,68,0
1,76,68,0
1,68,82,101
1,73,82,0
1,76,82,0
1,68,0,110
1,73,0,0
1,76,0,0
1,68,82,34
1,73,82,0
1,75,82,0
1,73,0,101
1,68,0,5
1,75,0,0
1,68,82,38
1,73,82,0
1,76,82,0
1,76,0,105
1,68,0,3
1,73,0,3
1,68,82,33
1,73,82,0
1,75,82,0
1,68,0,110
1,73,0,0
1,75,0,0
1,66,82,34
1,71,82,0
1,75,82,0
1,57,0,82
1,61,0,0
1,64,0,0
1,54,67,1
1,59,67,0
1,63,67,0
1,80,0,5
1,78,52,1
1,69,0,1
1,73,0,0
1,76,0,0
1,66,68,1
1,71,68,0
1,75,68,0
1,75,0,64
1,71,0,1
1,66,0,3
1,66,82,33
1,71,82,0
1,76,82,0
1,66,0,110
1,71,0,0
1,76,0,0
1,66,82,34
1,71,82,0
1,75,82,0
1,71,0,101
1,66,0,5
1,75,0,0
1,66,82,38
1,71,82,0
1,76,82,0
1,76,0,105
1,66,0,3
1,71,0,3
1,66,82,33
1,71,82,0
1,75,82,0
1,66,0,110
1,71,0,0
1,75,0,0
1,66,82,34
1,71,82,0
1,75,82,0
1,45,0,82
1,54,0,0
1,59,0,0
1,63,0,0
1,44,77,1
1,54,67,0
1,59,67,0
1,63,67,0
1,78,0,5
1,83,70,1
1,66,0,1
1,71,0,0
1,75,0,0
1,66,68,1
1,71,68,0
1,75,68,0
1,66,0,75
1,71,0,0
1,75,0,0
1,66,82,26
1,71,82,0
1,76,82,0
1,66,0,110
1,71,0,0
1,76,0,0
1,66,82,34
1,71,82,0
1,75,82,0
1,66,0,101
1,71,0,1
1,75,0,4
1,66,82,38
1,71,82,0
1,76,82,0
1,76,0,105
1,66,0,3
1,71,0,3
1,66,82,33
1,71,82,0
1,75,82,0
1,66,0,110
1,71,0,0
1,75,0,0
1,68,82,34
1,71,82,0
1,76,82,0
1,44,0,82
1,54,0,0
1,59,0,0
1,63,0,0
1,49,77,1
1,56,67,0
1,59,67,0
1,64,67,0
1,83,0,5
1,80,54,1
1,66,0,1
1,71,0,0
1,75,0,0
1,68,68,1
1,71,68,0
1,76,68,0
1,68,0,73
1,71,0,0
1,76,0,0
1,68,82,28
1,71,82,0
1,78,82,0
1,68,0,110
1,71,0,0
1,78,0,0
1,68,82,34
1,71,82,0
1,76,82,0
1,68,0,101
1,71,0,1
1,76,0,4
1,68,82,38
1,71,82,0
1,78,82,0
1,78,0,105
1,68,0,3
1,71,0,3
1,68,82,33
1,71,82,0
1,76,82,0
1,68,0,110
1,71,0,0
1,76,0,0
1,68,82,34
1,73,82,0
1,76,82,0
1,56,0,77
1,59,0,0
1,64,0,0
1,49,0,5
1,45,75,1
1,57,67,0
1,61,67,0
1,64,67,0
1,80,0,5
1,68,0,2
1,71,0,0
1,76,0,0
1,69,68,1
1,73,68,0
1,76,68,0
1,68,0,73
1,73,0,0
1,76,0,0
1,68,82,28
1,73,82,0
1,78,82,0
1,68,0,110
1,73,0,0
1,78,0,0
1,68,82,34
1,73,82,0
1,76,82,0
1,68,0,101
1,73,0,0
1,76,0,5
1,68,82,38
1,73,82,0
1,78,82,0
1,78,0,105
1,68,0,3
1,73,0,3
1,68,82,33
1,73,82,0
1,76,82,0
1,68,0,110
1,73,0,0
1,76,0,0
1,66,82,34
1,71,82,0
1,75,82,0
1,57,0,82
1,61,0,0
1,64,0,0
1,54,67,1
1,59,67,0
1,63,67,0
1,69,0,7
1,73,0,0
1,76,0,0
1,66,68,1
1,71,68,0
1,75,68,0
1,75,0,64
1,71,0,1
1,66,0,3
1,66,82,33
1,71,82,0
1,76,82,0
1,66,0,110
1,71,0,0
1,76,0,0
1,66,82,34
1,71,82,0
1,75,82,0
1,71,0,101
1,75,0,5
1,66,0,2
1,66,82,36
1,71,82,0
1,76,82,0
1,76,0,105
1,66,0,3
1,71,0,3
1,66,82,33
1,71,82,0
1,75,82,0
1,66,0,110
1,71,0,0
1,75,0,0
1,66,82,34
1,71,82,0
1,75,82,0
1,45,0,82
1,54,0,0
1,59,0,0
1,63,0,0
1,44,77,1
1,54,67,0
1,59,67,0
1,63,67,0
1,66,0,7
1,71,0,0
1,75,0,0
1,66,68,1
1,71,68,0
1,75,68,0
1,66,0,75
1,71,0,0
1,75,0,0
1,66,82,26
1,71,82,0
1,76,82,0
1,66,0,110
1,71,0,0
1,76,0,0
1,66,82,34
1,71,82,0
1,75,82,0
1,66,0,101
1,71,0,1
1,75,0,4
1,66,82,38
1,71,82,0
1,76,82,0
1,76,0,25
1,66,0,3
1,71,0,3
1,66,82,33
1,71,82,0
1,75,82,0
1,66,0,110
1,71,0,0
1,75,0,0
1,68,82,34
1,71,82,0
1,76,82,0
1,44,0,82
1,54,0,0
1,59,0,0
1,63,0,0
1,49,77,1
1,56,67,0
1,59,67,0
1,64,67,0
1,66,0,7
1,71,0,0
1,75,0,0
1,68,68,1
1,71,68,0
1,76,68,0
1,68,0,73
1,71,0,0
1,76,0,0
1,68,82,28
1,71,82,0
1,78,82,0
1,68,0,110
1,71,0,0
1,78,0,0
1,68,82,34
1,71,82,0
1,76,82,0
1,68,0,101
1,71,0,1
1,76,0,4
1,68,82,38
1,71,82,0
1,78,82,0
1,35,98,48
1,35,0,47
1,37,98,1
1,78,0,9
1,68,0,3
1,71,0,3
1,37,0,32
1,40,98,1
1,68,82,0
1,71,82,0
1,76,82,0
1,40,0,47
1,35,98,1
1,35,0,28
1,35,98,20
1,68,0,14
1,71,0,0
1,76,0,0
1,35,0,33
1,37,98,1
1,68,82,0
1,73,82,0
1,76,82,0
1,37,0,47
1,33,98,1
1,56,0,29
1,59,0,0
1,64,0,0
1,49,0,5
1,45,87,1
1,57,79,0
1,61,79,0
1,64,79,0
1,73,76,4
1,85,76,0
1,68,0,3
1,71,0,0
1,76,0,0
1,69,68,1
1,73,68,0
1,76,68,0
1,33,0,4
1,33,101,1
1,33,0,22
1,33,98,26
1,68,0,20
1,73,0,0
1,76,0,0
1,33,0,4
1,33,98,24
1,68,82,0
1,73,82,0
1,78,82,0
1,33,0,38
1,33,98,58
1,68,0,14
1,73,0,0
1,78,0,0
1,33,0,20
1,68,82,14
1,73,82,0
1,76,82,0
1,33,98,48
1,33,0,28
1,33,100,20
1,73,0,5
1,68,0,4
1,76,0,0
1,33,0,33
1,68,82,6
1,73,82,0
1,78,82,0
1,33,98,48
1,33,0,27
1,33,98,21
1,78,0,9
1,68,0,3
1,73,0,3
1,33,0,29
1,68,82,4
1,73,82,0
1,76,82,0
1,73,0,38
1,85,0,0
1,76,68,1
1,88,68,0
1,33,98,9
1,33,0,44
1,68,0,18
1,73,0,0
1,76,0,0
1,76,0,24
1,88,0,0
1,75,74,1
1,87,74,0
1,33,98,9
1,66,82,0
1,71,82,0
1,75,82,0
1,33,0,82
1,57,0,0
1,61,0,0
1,64,0,0
1,54,79,1
1,59,79,0
1,63,79,0
1,69,0,7
1,73,0,0
1,76,0,0
1,66,68,1
1,71,68,0
1,75,68,0
1,33,101,5
1,33,0,22
1,33,98,26
1,75,0,11
1,71,0,1
1,66,0,3
1,33,0,9
1,33,98,24
1,66,82,0
1,71,82,0
1,76,82,0
1,33,0,38
1,33,98,58
1,66,0,14
1,71,0,0
1,76,0,0
1,33,0,20
1,66,82,14
1,71,82,0
1,75,82,0
1,33,98,48
1,33,0,28
1,33,100,20
1,71,0,5
1,75,0,5
1,66,0,2
1,33,0,30
1,66,82,6
1,71,82,0
1,76,82,0
1,33,98,48
1,33,0,27
1,75,0,1
1,87,0,0
1,76,70,11
1,88,70,0
1,33,98,9
1,76,0,9
1,66,0,3
1,71,0,3
1,33,0,29
1,66,82,4
1,71,82,0
1,75,82,0
1,76,0,38
1,88,0,0
1,75,74,1
1,87,74,0
1,33,98,9
1,33,0,44
1,66,0,18
1,71,0,0
1,75,0,0
1,75,0,24
1,87,0,0
1,73,76,1
1,85,76,0
1,33,98,9
1,66,82,0
1,71,82,0
1,75,82,0
1,73,0,38
1,85,0,0
1,71,79,1
1,83,79,0
1,33,0,43
1,45,0,0
1,54,0,0
1,59,0,0
1,63,0,0
1,44,89,1
1,54,79,0
1,59,79,0
1,63,79,0
1,66,0,7
1,71,0,0
1,75,0,0
1,66,68,1
1,71,68,0
1,75,68,0
1,32,101,5
1,32,0,22
1,32,98,26
1,66,0,22
1,71,0,0
1,75,0,0
1,32,0,2
1,32,98,24
1,66,82,0
1,71,82,0
1,76,82,0
1,32,0,38
1,32,98,58
1,66,0,14
1,71,0,0
1,76,0,0
1,32,0,20
1,66,82,14
1,71,82,0
1,75,82,0
1,32,98,48
1,32,0,28
1,32,100,20
1,66,0,5
1,71,0,1
1,75,0,4
1,32,0,32
1,66,82,6
1,71,82,0
1,76,82,0
1,32,98,48
1,32,0,27
1,32,98,21
1,76,0,9
1,66,0,3
1,71,0,3
1,32,0,29
1,66,82,4
1,71,82,0
1,75,82,0
1,71,0,38
1,83,0,0
1,73,73,1
1,85,73,0
1,32,98,9
1,32,0,44
1,66,0,18
1,71,0,0
1,75,0,0
1,73,0,24
1,85,0,0
1,68,76,1
1,80,76,0
1,32,98,9
1,68,82,0
1,71,82,0
1,76,82,0
1,32,0,47
1,37,98,1
1,44,0,34
1,54,0,0
1,59,0,0
1,63,0,0
1,49,89,1
1,56,79,0
1,59,79,0
1,64,79,0
1,66,0,7
1,71,0,0
1,75,0,0
1,68,68,1
1,71,68,0
1,76,68,0
1,37,0,4
1,37,101,1
1,37,0,22
1,37,98,26
1,68,0,20
1,71,0,0
1,76,0,0
1,37,0,4
1,37,98,24
1,68,82,0
1,71,82,0
1,78,82,0
1,37,0,38
1,37,98,58
1,68,0,14
1,71,0,0
1,78,0,0
1,37,0,20
1,68,82,14
1,71,82,0
1,76,82,0
1,37,98,48
1,37,0,28
1,37,100,20
1,68,0,5
1,71,0,1
1,76,0,4
1,68,0,28
1,80,0,0
1,73,77,1
1,85,77,0
1,37,0,3
1,68,82,6
1,71,82,0
1,78,82,0
1,37,98,48
1,37,0,27
1,73,0,11
1,85,0,0
1,75,72,1
1,87,72,0
1,37,98,9
1,78,0,9
1,68,0,3
1,71,0,3
1,37,0,29
1,68,82,4
1,71,82,0
1,76,82,0
1,75,0,38
1,87,0,0
1,76,76,1
1,88,76,0
1,37,98,9
1,37,0,44
1,40,98,4
1,68,0,14
1,71,0,0
1,76,0,0
1,76,0,24
1,88,0,0
1,73,77,1
1,85,77,0
1,40,0,8
1,33,98,1
1,68,82,0
1,73,82,0
1,76,82,0
1,33,0,47
1,33,98,1
1,56,0,29
1,59,0,0
1,64,0,0
1,49,0,5
1,45,87,1
1,57,79,0
1,61,79,0
1,64,79,0
1,68,0,7
1,71,0,0
1,76,0,0
1,69,68,1
1,73,68,0
1,76,68,0
1,33,0,4
1,33,101,1
1,33,0,22
1,33,98,26
1,68,0,20
1,73,0,0
1,76,0,0
1,33,0,4
1,33,98,24
1,68,82,0
1,73,82,0
1,78,82,0
1,33,0,38
1,33,98,58
1,68,0,14
1,73,0,0
1,78,0,0
1,33,0,20
1,68,82,14
1,73,82,0
1,76,82,0
1,33,98,48
1,33,0,28
1,33,100,20
1,73,0,5
1,68,0,5
1,76,0,0
1,33,0,32
1,68,82,6
1,73,82,0
1,78,82,0
1,33,98,48
1,33,0,27
1,33,98,21
1,78,0,9
1,68,0,3
1,73,0,3
1,33,0,29
1,68,82,4
1,73,82,0
1,76,82,0
1,73,0,38
1,85,0,0
1,80,74,1
1,92,74,0
1,33,98,9
1,33,0,44
1,68,0,18
1,73,0,0
1,76,0,0
1,80,0,24
1,92,0,0
1,78,70,1
1,90,70,0
1,33,98,9
1,66,82,0
1,71,82,0
