track,note,velocity,time
1,70,100,612
1,60,100,96
1,67,100,12
1,60,100,96
1,70,100,12
1,60,100,96
1,67,100,12
1,60,100,96
1,68,100,12
1,60,100,96
1,65,100,12
1,60,100,96
1,68,100,12
1,60,100,96
1,65,100,12
1,60,100,96
1,70,100,12
1,60,100,96
1,67,100,12
1,60,100,96
1,70,100,12
1,60,100,96
1,67,100,12
1,60,100,96
1,68,100,12
1,60,100,96
1,65,100,12
1,60,100,96
1,68,100,12
1,60,100,96
1,65,100,12
1,60,100,96
1,70,100,12
1,60,100,96
1,67,100,12
1,60,100,96
1,70,100,12
1,60,100,96
1,67,100,12
1,60,100,96
1,68,100,12
1,60,100,96
1,65,100,12
1,60,100,96
1,68,100,12
1,60,100,96
1,65,100,12
1,60,100,96
1,70,100,12
1,60,100,96
1,67,100,12
1,60,100,96
1,70,100,12
1,60,100,96
1,67,100,12
1,60,100,96
1,68,100,12
1,60,100,96
1,65,100,12
1,60,100,96
1,68,100,12
1,60,100,96
1,65,100,12
1,60,100,96
1,70,100,12
1,60,100,96
1,67,100,12
1,60,100,96
1,70,100,12
1,60,100,96
1,67,100,12
1,60,100,96
1,68,100,12
1,60,100,96
1,65,100,12
1,60,100,96
1,68,100,12
1,60,100,96
1,65,100,12
1,60,100,96
1,73,100,12
1,64,100,96
1,70,100,12
1,64,100,96
1,73,100,12
1,64,100,96
1,70,100,12
1,64,100,96
1,72,100,12
1,65,100,96
1,68,100,12
1,65,100,96
1,72,100,12
1,65,100,96
1,68,100,12
1,65,100,96
1,74,100,12
1,65,100,96
1,71,100,24
1,65,100,84
1,74,100,12
1,65,100,96
1,71,100,12
1,65,100,96
1,76,100,12
1,67,100,96
1,72,100,12
1,67,100,96
1,76,100,12
1,70,100,12
1,60,100,96
1,67,100,12
1,60,100,96
1,70,100,12
1,60,100,96
1,67,100,12
1,60,100,96
1,68,100,12
1,60,100,96
1,65,100,12
1,60,100,96
1,68,100,12
1,60,100,96
1,65,100,12
1,60,100,96
1,70,100,12
1,60,100,96
1,67,100,12
1,60,100,96
1,70,100,12
1,60,100,96
1,67,100,12
1,60,100,96
1,68,100,12
1,60,100,96
1,65,100,12
1,60,100,96
1,68,100,12
1,60,100,96
1,65,100,12
1,60,100,96
1,70,100,12
1,60,100,96
1,67,100,12
1,60,100,96
1,70,100,12
1,60,100,96
1,67,100,12
1,60,100,96
1,68,100,12
1,60,100,96
1,65,100,12
1,60,100,96
1,68,100,12
1,60,100,96
1,65,100,12
1,60,100,96
1,67,100,12
1,58,100,96
1,64,100,12
1,58,100,108
1,67,100,0
1,58,100,96
1,64,100,12
1,58,100,84
1,65,100,24
1,57,100,96
1,62,100,12
1,57,100,96
1,65,100,12
1,57,100,96
1,62,100,12
1,57,100,96
1,64,100,12
1,57,100,96
1,64,100,12
1,57,100,96
1,64,100,12
1,57,100,96
1,64,100,12
1,67,100,96
1,65,100,12
1,57,100,96
1,65,100,12
1,57,100,96
1,65,100,12
1,57,100,96
1,65,100,12
1,67,100,96
1,64,100,12
1,57,100,96
1,64,100,12
1,57,100,96
1,64,100,12
1,57,100,96
1,64,100,12
1,67,100,96
1,65,100,12
1,57,100,96
1,65,100,12
1,57,100,96
1,65,100,12
1,57,100,96
1,65,100,12
1,67,100,96
1,69,100,12
1,66,100,0
1,62,100,96
1,69,100,12
1,66,100,0
1,62,100,96
1,66,100,12
1,69,100,0
1,62,100,96
1,69,100,12
1,66,100,0
1,72,100,96
1,70,100,12
1,67,100,0
1,62,100,96
1,67,100,12
1,70,100,0
1,62,100,96
1,70,100,12
1,67,100,0
1,62,100,96
1,67,100,12
1,70,100,0
1,72,100,96
1,69,100,12
1,66,100,0
1,62,100,96
1,69,100,12
1,66,100,0
1,62,100,96
1,66,100,12
1,69,100,0
1,62,100,96
1,69,100,12
1,66,100,0
1,72,100,96
1,70,100,12
1,67,100,0
1,62,100,96
1,67,100,12
1,70,100,0
1,62,100,96
1,70,100,12
1,67,100,0
1,62,100,96
1,67,100,12
1,70,100,0
1,62,100,96
1,66,100,12
1,71,100,0
1,63,100,96
1,66,100,12
1,71,100,0
1,63,100,96
1,71,100,12
1,63,100,96
1,66,100,12
1,71,100,0
1,63,100,96
1,67,100,12
1,71,100,0
1,64,100,96
1,67,100,12
1,71,100,0
1,64,100,96
1,67,100,12
1,71,100,0
1,64,100,96
1,67,100,12
1,71,100,0
1,64,100,96
1,67,100,12
1,62,100,96
1,67,100,12
1,62,100,96
1,67,100,12
1,62,100,96
1,67,100,12
1,62,100,96
1,70,100,12
1,60,100,96
1,67,100,12
1,60,100,96
1,70,100,12
1,60,100,96
1,67,100,12
1,60,100,96
1,68,100,12
1,60,100,96
1,65,100,12
1,60,100,96
1,68,100,12
1,60,100,96
1,65,100,12
1,60,100,96
1,70,100,12
1,60,100,96
1,67,100,12
1,60,100,96
1,70,100,12
1,60,100,96
1,67,100,12
1,60,100,96
1,68,100,12
1,60,100,96
1,65,100,12
1,60,100,96
1,68,100,12
1,60,100,96
1,65,100,12
1,60,100,96
1,70,100,12
1,60,100,96
1,67,100,12
1,60,100,96
1,70,100,12
1,60,100,96
1,67,100,12
1,60,100,96
1,68,100,12
1,60,100,96
1,65,100,12
1,60,100,96
1,68,100,12
1,60,100,96
1,65,100,12
1,60,100,96
1,73,100,12
1,64,100,96
1,70,100,12
1,64,100,96
1,73,100,12
1,64,100,96
1,70,100,12
1,64,100,96
1,72,100,12
1,65,100,96
1,68,100,12
1,65,100,96
1,72,100,12
1,65,100,96
1,68,100,12
1,65,100,96
1,74,100,12
1,65,100,96
1,71,100,24
1,65,100,84
1,74,100,12
1,65,100,96
1,71,100,12
1,65,100,96
1,76,100,12
1,67,100,96
1,72,100,12
1,67,100,96
1,76,100,12
1,70,100,12
1,60,100,96
1,67,100,12
1,60,100,96
1,70,100,12
1,60,100,96
1,67,100,12
1,60,100,96
1,68,100,12
1,60,100,96
1,65,100,12
1,60,100,96
1,68,100,12
1,60,100,96
1,65,100,12
1,60,100,96
1,70,100,12
1,60,100,96
1,67,100,12
1,60,100,96
1,70,100,12
1,60,100,96
1,67,100,12
1,60,100,96
1,68,100,12
1,60,100,96
1,65,100,12
1,60,100,96
1,68,100,12
1,60,100,96
1,65,100,12
1,60,100,96
1,70,100,12
1,60,100,96
1,67,100,12
1,60,100,96
1,70,100,12
1,60,100,96
1,67,100,12
1,60,100,96
1,68,100,12
1,60,100,96
1,65,100,12
1,60,100,96
1,68,100,12
1,60,100,96
1,65,100,12
1,60,100,96
1,67,100,12
1,58,100,96
1,64,100,12
1,58,100,108
1,67,100,0
1,58,100,96
1,64,100,12
1,58,100,84
1,65,100,24
1,57,100,96
1,62,100,12
1,57,100,96
1,65,100,12
1,57,100,96
1,62,100,12
1,57,100,96
1,64,100,12
1,57,100,96
1,64,100,12
1,57,100,96
1,64,100,12
1,57,100,96
1,64,100,12
1,67,100,96
1,65,100,12
1,57,100,96
1,65,100,12
1,57,100,96
1,65,100,12
1,57,100,96
1,65,100,12
1,67,100,96
1,64,100,12
1,57,100,96
1,64,100,12
1,57,100,96
1,64,100,12
1,57,100,96
1,64,100,12
1,67,100,96
1,65,100,12
1,57,100,96
1,65,100,12
1,57,100,96
1,65,100,12
1,57,100,96
1,65,100,12
1,67,100,96
1,69,100,12
1,66,100,0
1,62,100,96
1,69,100,12
1,66,100,0
1,62,100,96
1,66,100,12
1,69,100,0
1,62,100,96
1,69,100,12
1,66,100,0
1,72,100,96
1,70,100,12
1,67,100,0
1,62,100,96
1,67,100,12
1,70,100,0
1,62,100,96
1,70,100,12
1,67,100,0
1,62,100,96
1,67,100,12
1,70,100,0
1,72,100,96
1,69,100,12
1,66,100,0
1,62,100,96
1,69,100,12
1,66,100,0
1,62,100,96
1,66,100,12
1,69,100,0
1,62,100,96
1,69,100,12
1,66,100,0
1,72,100,96
1,70,100,12
1,67,100,0
1,62,100,96
1,67,100,12
1,70,100,0
1,62,100,96
1,70,100,12
1,67,100,0
1,62,100,96
1,67,100,12
1,70,100,0
1,62,100,96
1,66,100,12
1,71,100,0
1,63,100,96
1,66,100,12
1,71,100,0
1,63,100,96
1,71,100,12
1,63,100,96
1,66,100,12
1,71,100,0
1,63,100,96
1,67,100,12
1,71,100,0
1,64,100,96
1,67,100,12
1,71,100,0
1,64,100,96
1,67,100,12
1,71,100,0
1,64,100,96
1,67,100,12
1,71,100,0
1,64,100,96
1,67,100,12
1,62,100,96
1,67,100,12
1,62,100,96
1,67,100,12
1,62,100,96
1,67,100,12
1,62,100,96
1,70,100,12
1,60,100,96
1,67,100,12
1,60,100,96
1,70,100,12
1,60,100,96
1,67,100,12
1,60,100,96
1,68,100,12
1,60,100,96
1,65,100,12
1,60,100,96
1,68,100,12
1,60,100,96
1,65,100,12
1,60,100,96
1,70,100,12
1,60,100,96
1,67,100,12
1,60,100,96
1,70,100,12
1,60,100,96
1,67,100,12
1,60,100,96
1,68,100,12
1,60,100,96
1,65,100,12
1,60,100,96
1,68,100,12
1,60,100,96
1,65,100,12
1,60,100,96
1,70,100,12
1,60,100,96
1,67,100,12
1,60,100,96
1,70,100,12
1,60,100,96
1,67,100,12
1,60,100,96
1,68,100,12
1,60,100,96
1,65,100,12
1,60,100,96
1,68,100,12
1,60,100,96
1,65,100,12
1,60,100,96
1,67,100,12
1,58,100,96
1,64,100,12
1,58,100,108
1,67,100,0
1,58,100,96
1,64,100,12
1,58,100,84
1,65,100,24
1,57,100,96
1,62,100,12
1,57,100,96
1,65,100,12
1,57,100,96
1,62,100,12
1,57,100,96
1,60,100,12
1,64,100,0
1,62,100,0
1,65,100,0
1,65,100,12
1,69,100,0
1,64,100,0
1,67,100,0
1,67,100,12
1,70,100,0
1,65,100,0
1,69,100,0
1,64,100,12
1,67,100,0
1,65,100,0
1,62,100,0
1,61,100,12
1,64,100,0
1,57,100,12
1,64,100,12
1,73,100,768
1,76,100,768
1,79,100,768
1,81,100,768
1,61,100,36
1,57,100,0
1,61,100,12
1,57,100,0
1,61,100,12
1,57,100,0
1,62,100,0
1,59,100,0
1,61,100,12
1,64,100,0
1,61,100,12
1,64,100,0
1,61,100,12
1,64,100,0
1,62,100,0
1,65,100,0
1,67,100,12
1,64,100,0
1,67,100,12
1,64,100,0
1,67,100,12
1,64,100,0
1,69,100,0
1,65,100,0
1,70,100,12
1,67,100,0
1,70,100,12
1,67,100,0
1,70,100,12
1,67,100,0
1,69,100,0
1,65,100,0
1,67,100,12
1,64,100,0
1,67,100,12
1,64,100,0
1,67,100,12
1,64,100,0
1,65,100,0
1,62,100,0
1,61,100,12
1,64,100,0
1,61,100,12
1,64,100,0
1,61,100,12
1,64,100,0
1,70,100,12
1,77,100,12
1,70,100,24
1,76,100,0
1,70,100,0
1,74,100,0
1,72,100,12
1,76,100,12
1,72,100,24
1,77,100,0
1,72,100,0
1,79,100,0
1,74,100,12
1,77,100,12
1,74,100,24
1,77,100,0
1,74,100,0
1,81,100,0
1,74,100,12
1,77,100,12
1,74,100,24
1,77,100,0
1,74,100,0
1,81,100,0
1,70,100,12
1,77,100,12
1,70,100,24
1,76,100,0
1,70,100,0
1,74,100,0
1,72,100,12
1,76,100,12
1,72,100,24
1,77,100,0
1,72,100,0
1,79,100,0
1,74,100,12
1,77,100,12
1,74,100,24
1,77,100,0
1,74,100,0
1,81,100,0
1,74,100,12
1,77,100,12
1,74,100,24
1,77,100,0
1,74,100,0
1,81,100,0
1,76,100,12
1,82,100,0
1,76,100,0
1,76,100,36
1,82,100,0
1,76,100,0
1,74,100,24
1,81,100,0
1,74,100,0
1,74,100,24
1,81,100,0
1,74,100,0
1,73,100,12
1,79,100,0
1,73,100,0
1,73,100,36
1,79,100,0
1,73,100,0
1,70,100,12
1,77,100,0
1,70,100,0
1,70,100,36
1,77,100,0
1,70,100,0
1,73,100,12
1,76,100,0
1,76,100,12
1,73,100,0
1,76,100,12
1,73,100,0
1,74,100,0
1,77,100,0
1,76,100,0
1,79,100,0
1,76,100,12
1,79,100,0
1,76,100,12
1,79,100,0
1,77,100,0
1,81,100,0
1,79,100,12
1,82,100,0
1,79,100,12
1,82,100,0
1,79,100,12
1,82,100,0
1,77,100,0
1,81,100,0
1,79,100,12
1,76,100,0
1,79,100,12
1,76,100,0
1,79,100,12
1,76,100,0
1,74,100,0
1,77,100,0
1,73,100,12
1,76,100,0
1,73,100,12
1,76,100,0
1,73,100,12
1,76,100,0
1,70,100,0
1,77,100,12
1,70,100,24
1,76,100,0
1,70,100,0
1,74,100,0
1,72,100,12
1,76,100,12
1,72,100,24
1,77,100,0
1,72,100,0
1,79,100,0
1,74,100,12
1,77,100,12
1,74,100,24
1,77,100,0
1,74,100,0
1,81,100,0
1,74,100,12
1,77,100,12
1,74,100,24
1,77,100,0
1,74,100,0
1,81,100,0
1,70,100,12
1,77,100,12
1,70,100,24
1,76,100,0
1,70,100,0
1,74,100,0
1,72,100,12
1,76,100,12
1,72,100,24
1,77,100,0
1,72,100,0
1,79,100,0
1,74,100,12
1,77,100,12
1,74,100,24
1,77,100,0
1,74,100,0
1,81,100,0
1,74,100,12
1,77,100,12
1,74,100,24
1,77,100,0
1,74,100,0
1,81,100,0
1,76,100,12
1,82,100,0
1,76,100,0
1,76,100,36
1,82,100,0
1,76,100,0
1,74,100,24
1,81,100,0
1,74,100,0
1,74,100,24
1,81,100,0
1,74,100,0
1,73,100,12
1,79,100,0
1,73,100,0
1,73,100,36
1,79,100,0
1,73,100,0
1,70,100,12
1,77,100,0
1,70,100,0
1,70,100,36
1,77,100,0
1,70,100,0
1,73,100,12
1,76,100,0
1,76,100,12
1,73,100,0
1,76,100,12
1,73,100,0
1,74,100,0
1,77,100,0
1,76,100,0
1,79,100,0
1,76,100,12
1,79,100,0
1,76,100,12
1,79,100,0
1,77,100,0
1,81,100,0
1,79,100,12
1,82,100,0
1,79,100,12
1,82,100,0
1,79,100,12
1,82,100,0
1,77,100,0
1,81,100,0
1,79,100,12
1,76,100,0
1,79,100,12
1,76,100,0
1,79,100,12
1,76,100,0
1,74,100,0
1,77,100,0
1,73,100,12
1,76,100,0
1,73,100,12
1,76,100,0
1,73,100,12
1,76,100,0
1,70,100,0
1,60,100,96
1,67,100,12
1,60,100,96
1,70,100,12
1,60,100,96
1,67,100,12
1,60,100,96
1,68,100,12
1,60,100,96
1,65,100,12
1,60,100,96
1,68,100,12
1,60,100,96
1,65,100,12
1,60,100,96
1,70,100,12
1,60,100,96
1,67,100,12
1,60,100,96
1,70,100,12
1,60,100,96
1,67,100,12
1,60,100,96
1,68,100,12
1,60,100,96
1,65,100,12
1,60,100,96
1,68,100,12
1,60,100,96
1,65,100,12
1,60,100,96
1,70,100,12
1,60,100,96
1,67,100,12
1,60,100,96
1,70,100,12
1,60,100,96
1,67,100,12
1,60,100,96
1,68,100,12
1,60,100,96
1,65,100,12
1,60,100,96
1,68,100,12
1,60,100,96
1,65,100,12
1,60,100,96
1,73,100,12
1,64,100,96
1,70,100,12
1,64,100,96
1,73,100,12
1,64,100,96
1,70,100,12
1,64,100,96
1,72,100,12
1,65,100,96
1,68,100,12
1,65,100,96
1,72,100,12
1,65,100,96
1,68,100,12
1,65,100,96
1,74,100,12
1,65,100,96
1,71,100,24
1,65,100,84
1,74,100,12
1,65,100,96
1,71,100,12
1,65,100,96
1,76,100,12
1,67,100,96
1,72,100,12
1,67,100,96
1,76,100,12
1,70,100,12
1,60,100,96
1,67,100,12
1,60,100,96
1,70,100,12
1,60,100,96
1,67,100,12
1,60,100,96
1,68,100,12
1,60,100,96
1,65,100,12
1,60,100,96
1,68,100,12
1,60,100,96
1,65,100,12
1,60,100,96
1,70,100,12
1,60,100,96
1,67,100,12
1,60,100,96
1,70,100,12
1,60,100,96
1,67,100,12
1,60,100,96
1,68,100,12
1,60,100,96
1,65,100,12
1,60,100,96
1,68,100,12
1,60,100,96
1,65,100,12
1,60,100,96
1,70,100,12
