track,note,velocity,time
1,77,127,768
1,65,127,4
1,77,127,4
1,76,127,4
1,65,127,4
1,65,127,4
1,77,127,4
1,65,127,4
1,76,127,4
1,77,127,4
1,65,127,4
1,77,127,4
1,65,127,4
1,77,127,4
1,65,127,4
1,77,127,4
1,76,127,4
1,65,127,4
1,65,127,4
1,77,127,4
1,65,127,4
1,76,127,4
1,77,127,4
1,65,127,4
1,77,127,4
1,65,127,4
1,77,127,4
1,65,127,4
1,77,127,4
1,76,127,4
1,65,127,4
1,65,127,4
1,77,127,4
1,65,127,4
1,76,127,4
1,77,127,4
1,65,127,4
1,77,127,4
1,65,127,4
1,77,127,4
1,65,127,4
1,77,127,4
1,76,127,4
1,65,127,4
1,65,127,4
1,77,127,4
1,65,127,4
1,76,127,4
1,77,127,4
1,65,127,4
1,77,127,4
1,65,127,4
1,77,127,4
1,65,127,4
1,77,127,4
1,76,127,4
1,65,127,4
1,65,127,4
1,77,127,4
1,65,127,4
1,76,127,4
1,77,127,4
1,65,127,4
1,77,127,4
1,65,127,4
1,77,127,4
1,65,127,4
1,77,127,4
1,76,127,4
1,65,127,4
1,65,127,4
1,77,127,4
1,65,127,4
1,76,127,4
1,77,127,4
1,65,127,4
1,77,127,4
1,65,127,4
1,77,127,4
1,65,127,4
1,77,127,4
1,76,127,4
1,65,127,4
1,65,127,4
1,77,127,4
1,65,127,4
1,76,127,4
1,77,127,4
1,65,127,4
1,77,127,4
1,65,127,4
1,77,127,4
1,65,127,4
1,77,127,4
1,76,127,4
1,65,127,4
1,65,127,4
1,77,127,4
1,65,127,4
1,76,127,4
1,77,127,4
1,65,127,4
1,77,127,4
1,65,127,4
1,77,127,4
1,65,127,4
1,77,127,4
1,76,127,4
1,65,127,4
1,65,127,4
1,77,127,4
1,65,127,4
1,76,127,4
1,77,127,4
1,65,127,4
1,77,127,4
1,65,127,4
1,77,127,4
1,65,127,4
1,77,127,4
1,76,127,4
1,65,127,4
1,65,127,4
1,77,127,4
1,65,127,4
1,76,127,4
1,77,127,4
1,65,127,4
1,77,127,4
1,65,127,4
1,77,127,4
1,65,127,4
1,77,127,4
1,76,127,4
1,65,127,4
1,65,127,4
1,77,127,4
1,65,127,4
1,76,127,4
1,77,127,4
1,65,127,4
1,77,127,4
1,65,127,4
1,77,127,4
1,65,127,4
1,77,127,4
1,76,127,4
1,65,127,4
1,65,127,4
1,77,127,4
1,65,127,4
1,76,127,4
1,77,127,4
1,65,127,4
1,77,127,4
1,65,127,4
1,73,127,4
1,61,127,4
1,73,127,4
1,72,127,4
1,61,127,4
1,61,127,4
1,73,127,4
1,61,127,4
1,72,127,4
1,73,127,4
1,61,127,4
1,73,127,4
1,61,127,4
1,73,127,4
1,61,127,4
1,73,127,4
1,72,127,4
1,61,127,4
1,61,127,4
1,73,127,4
1,61,127,4
1,72,127,4
1,73,127,4
1,61,127,4
1,73,127,4
1,61,127,4
1,73,127,4
1,61,127,4
1,73,127,4
1,72,127,4
1,61,127,4
1,61,127,4
1,73,127,4
1,61,127,4
1,72,127,4
1,73,127,4
1,61,127,4
1,73,127,4
1,61,127,4
1,73,127,4
1,61,127,4
1,73,127,4
1,72,127,4
1,61,127,4
1,61,127,4
1,73,127,4
1,61,127,4
1,72,127,4
1,73,127,4
1,61,127,4
1,73,127,4
1,61,127,4
1,70,127,4
1,58,127,4
1,70,127,4
1,69,127,4
1,58,127,4
1,58,127,4
1,70,127,4
1,58,127,4
1,69,127,4
1,70,127,4
1,58,127,4
1,70,127,4
1,58,127,4
1,70,127,4
1,58,127,4
1,70,127,4
1,69,127,4
1,58,127,4
1,58,127,4
1,70,127,4
1,58,127,4
1,69,127,4
1,70,127,4
1,58,127,4
1,70,127,4
1,58,127,4
1,70,127,4
1,58,127,4
1,70,127,4
1,69,127,4
1,58,127,4
1,58,127,4
1,70,127,4
1,58,127,4
1,69,127,4
1,70,127,4
1,58,127,4
1,70,127,4
1,58,127,4
1,70,127,4
1,58,127,4
1,70,127,4
1,69,127,4
1,58,127,4
1,58,127,4
1,70,127,4
1,58,127,4
1,69,127,4
1,70,127,4
1,58,127,4
1,70,127,4
1,58,127,4
1,84,127,4
1,72,127,4
1,84,127,4
1,83,127,4
1,72,127,4
1,72,127,4
1,84,127,4
1,72,127,4
1,83,127,4
1,84,127,4
1,72,127,4
1,84,127,4
1,72,127,4
1,84,127,4
1,72,127,4
1,84,127,4
1,83,127,4
1,72,127,4
1,72,127,4
1,84,127,4
1,72,127,4
1,83,127,4
1,84,127,4
1,72,127,4
1,84,127,4
1,72,127,4
1,84,127,4
1,72,127,4
1,84,127,4
1,83,127,4
1,72,127,4
1,72,127,4
1,84,127,4
1,72,127,4
1,83,127,4
1,84,127,4
1,72,127,4
1,84,127,4
1,72,127,4
1,84,127,4
1,72,127,4
1,84,127,4
1,83,127,4
1,72,127,4
1,72,127,4
1,84,127,4
1,72,127,4
1,83,127,4
1,84,127,4
1,72,127,4
1,84,127,4
1,72,127,4
1,84,127,4
1,72,127,4
1,84,127,4
1,83,127,4
1,72,127,4
1,72,127,4
1,84,127,4
1,72,127,4
1,83,127,4
1,84,127,4
1,72,127,4
1,84,127,4
1,72,127,4
1,84,127,4
1,72,127,4
1,84,127,4
1,83,127,4
1,72,127,4
1,72,127,4
1,84,127,4
1,72,127,4
1,83,127,4
1,84,127,4
1,72,127,4
1,84,127,4
1,72,127,4
1,77,127,4
1,65,127,4
1,77,127,4
1,76,127,4
1,65,127,4
1,65,127,4
1,77,127,4
1,65,127,4
1,76,127,4
1,77,127,4
1,65,127,4
1,77,127,4
1,65,127,4
1,77,127,4
1,65,127,4
1,77,127,4
1,76,127,4
1,65,127,4
1,65,127,4
1,77,127,4
1,65,127,4
1,76,127,4
1,77,127,4
1,65,127,4
1,77,127,4
1,65,127,4
1,77,127,4
1,65,127,4
1,77,127,4
1,76,127,4
1,65,127,4
1,65,127,4
1,77,127,4
1,65,127,4
1,76,127,4
1,77,127,4
1,65,127,4
1,77,127,4
1,65,127,4
1,77,127,4
1,65,127,4
1,77,127,4
1,76,127,4
1,65,127,4
1,65,127,4
1,77,127,4
1,65,127,4
1,76,127,4
1,77,127,4
1,65,127,4
1,77,127,4
1,65,127,4
1,77,127,4
1,65,127,4
1,77,127,4
1,76,127,4
1,65,127,4
1,65,127,4
1,77,127,4
1,65,127,4
1,76,127,4
1,77,127,4
1,65,127,4
1,77,127,4
1,65,127,4
1,77,127,4
1,65,127,4
1,77,127,4
1,76,127,4
1,65,127,4
1,65,127,4
1,77,127,4
1,65,127,4
1,76,127,4
1,77,127,4
1,65,127,4
1,77,127,4
1,65,127,4
1,77,127,4
1,65,127,4
1,77,127,4
1,76,127,4
1,65,127,4
1,65,127,4
1,77,127,4
1,65,127,4
1,76,127,4
1,77,127,4
1,65,127,4
1,77,127,4
1,65,127,4
1,77,127,4
1,65,127,4
1,77,127,4
1,76,127,4
1,65,127,4
1,65,127,4
1,77,127,4
1,65,127,4
1,76,127,4
1,77,127,4
1,65,127,4
1,77,127,4
1,65,127,4
1,73,127,4
1,61,127,4
1,73,127,4
1,72,127,4
1,61,127,4
1,61,127,4
1,73,127,4
1,61,127,4
1,72,127,4
1,73,127,4
1,61,127,4
1,73,127,4
1,61,127,4
1,73,127,4
1,61,127,4
1,73,127,4
1,72,127,4
1,61,127,4
1,61,127,4
1,73,127,4
1,61,127,4
1,72,127,4
1,73,127,4
1,61,127,4
1,73,127,4
1,61,127,4
1,73,127,4
1,61,127,4
1,73,127,4
1,72,127,4
1,61,127,4
1,61,127,4
1,73,127,4
1,61,127,4
1,72,127,4
1,73,127,4
1,61,127,4
1,73,127,4
1,61,127,4
1,73,127,4
1,61,127,4
1,73,127,4
1,72,127,4
1,61,127,4
1,61,127,4
1,73,127,4
1,61,127,4
1,72,127,4
1,73,127,4
1,61,127,4
1,73,127,4
1,61,127,4
1,70,127,4
1,58,127,4
1,70,127,4
1,69,127,4
1,58,127,4
1,58,127,4
1,70,127,4
1,58,127,4
1,69,127,4
1,70,127,4
1,58,127,4
1,70,127,4
1,58,127,4
1,70,127,4
1,58,127,4
1,70,127,4
1,69,127,4
1,58,127,4
1,58,127,4
1,70,127,4
1,58,127,4
1,69,127,4
1,70,127,4
1,58,127,4
1,70,127,4
1,58,127,4
1,70,127,4
1,58,127,4
1,70,127,4
1,69,127,4
1,58,127,4
1,58,127,4
1,70,127,4
1,58,127,4
1,69,127,4
1,70,127,4
1,58,127,4
1,70,127,4
1,58,127,4
1,70,127,4
1,58,127,4
1,70,127,4
1,69,127,4
1,58,127,4
1,58,127,4
1,70,127,4
1,58,127,4
1,69,127,4
1,70,127,4
1,58,127,4
1,70,127,4
1,58,127,4
1,84,127,4
1,72,127,4
1,84,127,4
1,83,127,4
1,72,127,4
1,72,127,4
1,84,127,4
1,72,127,4
1,83,127,4
1,84,127,4
1,72,127,4
1,84,127,4
1,72,127,4
1,84,127,4
1,72,127,4
1,84,127,4
1,83,127,4
1,72,127,4
1,72,127,4
1,84,127,4
1,72,127,4
1,83,127,4
1,84,127,4
1,72,127,4
1,84,127,4
1,72,127,4
1,84,127,4
1,72,127,4
1,84,127,4
1,83,127,4
1,72,127,4
1,72,127,4
1,84,127,4
1,72,127,4
1,83,127,4
1,84,127,4
1,72,127,4
1,84,127,4
1,72,127,4
1,84,127,4
1,72,127,4
1,84,127,4
1,83,127,4
1,72,127,4
1,72,127,4
1,84,127,4
1,72,127,4
1,83,127,4
1,84,127,4
1,72,127,4
1,84,127,4
1,72,127,4
1,84,127,4
1,72,127,4
1,84,127,4
1,83,127,4
1,72,127,4
1,72,127,4
1,84,127,4
1,72,127,4
1,83,127,4
1,84,127,4
1,72,127,4
1,84,127,4
1,72,127,4
1,84,127,4
1,72,127,4
1,84,127,4
1,83,127,4
1,72,127,4
1,72,127,4
1,84,127,4
1,72,127,4
1,83,127,4
1,84,127,4
1,72,127,4
1,84,127,4
1,72,127,4
1,77,127,4
1,65,127,4
1,77,127,4
1,76,127,4
1,65,127,4
1,65,127,4
1,77,127,4
1,65,127,4
1,76,127,4
1,77,127,4
1,65,127,4
1,77,127,4
1,65,127,4
1,77,127,4
1,65,127,4
1,77,127,4
1,76,127,4
1,65,127,4
1,65,127,4
1,77,127,4
1,65,127,4
1,76,127,4
1,77,127,4
1,65,127,4
1,77,127,4
1,65,127,4
1,77,127,4
1,65,127,4
1,77,127,4
1,76,127,4
1,65,127,4
1,65,127,4
1,77,127,4
1,65,127,4
1,76,127,4
1,77,127,4
1,65,127,4
1,77,127,4
1,65,127,4
1,77,127,4
1,65,127,4
1,77,127,4
1,76,127,4
1,65,127,4
1,65,127,4
1,77,127,4
1,65,127,4
1,76,127,4
1,77,127,4
1,65,127,4
1,77,127,4
1,65,127,4
1,77,127,4
1,65,127,4
1,77,127,4
1,76,127,4
1,65,127,4
1,65,127,4
1,77,127,4
1,65,127,4
1,76,127,4
1,77,127,4
1,65,127,4
1,77,127,4
1,65,127,4
1,77,127,4
1,65,127,4
1,77,127,4
1,76,127,4
1,65,127,4
1,65,127,4
1,77,127,4
1,65,127,4
1,76,127,4
1,77,127,4
1,65,127,4
1,77,127,4
1,65,127,4
1,77,127,4
1,65,127,4
1,77,127,4
1,76,127,4
1,65,127,4
1,65,127,4
1,77,127,4
1,65,127,4
1,76,127,4
1,77,127,4
1,65,127,4
1,77,127,4
1,65,127,4
1,77,127,4
1,65,127,4
1,77,127,4
1,76,127,4
1,65,127,4
1,65,127,4
1,77,127,4
1,65,127,4
1,76,127,4
1,77,127,4
1,65,127,4
1,77,127,4
1,65,127,4
1,73,127,4
1,61,127,4
1,73,127,4
1,72,127,4
1,61,127,4
1,61,127,4
1,73,127,4
1,61,127,4
1,72,127,4
1,73,127,4
1,61,127,4
1,73,127,4
1,61,127,4
1,73,127,4
1,61,127,4
1,73,127,4
1,72,127,4
1,61,127,4
1,61,127,4
1,73,127,4
1,61,127,4
1,72,127,4
1,73,127,4
1,61,127,4
1,73,127,4
1,61,127,4
1,73,127,4
1,61,127,4
1,73,127,4
1,72,127,4
1,61,127,4
1,61,127,4
1,73,127,4
1,61,127,4
1,72,127,4
1,73,127,4
1,61,127,4
1,73,127,4
1,61,127,4
1,73,127,4
1,61,127,4
1,73,127,4
1,72,127,4
1,61,127,4
1,61,127,4
1,73,127,4
1,61,127,4
1,72,127,4
1,73,127,4
1,61,127,4
1,73,127,4
1,61,127,4
1,70,127,4
1,58,127,4
1,70,127,4
1,69,127,4
1,58,127,4
1,58,127,4
1,70,127,4
1,58,127,4
1,69,127,4
1,70,127,4
1,58,127,4
1,70,127,4
1,58,127,4
1,70,127,4
1,58,127,4
1,70,127,4
1,69,127,4
1,58,127,4
1,58,127,4
1,70,127,4
1,58,127,4
1,69,127,4
1,70,127,4
1,58,127,4
1,70,127,4
1,58,127,4
1,70,127,4
1,58,127,4
1,70,127,4
1,69,127,4
1,58,127,4
1,58,127,4
1,70,127,4
1,58,127,4
1,69,127,4
1,70,127,4
1,58,127,4
1,70,127,4
1,58,127,4
1,70,127,4
1,58,127,4
1,70,127,4
1,69,127,4
1,58,127,4
1,58,127,4
1,70,127,4
1,58,127,4
1,69,127,4
1,70,127,4
1,58,127,4
1,70,127,4
1,58,127,4
1,84,127,4
1,72,127,4
1,84,127,4
1,83,127,4
1,72,127,4
1,72,127,4
1,84,127,4
1,72,127,4
1,83,127,4
1,84,127,4
1,72,127,4
1,84,127,4
1,72,127,4
1,84,127,4
1,72,127,4
1,84,127,4
1,83,127,4
1,72,127,4
1,72,127,4
1,84,127,4
1,72,127,4
1,83,127,4
1,84,127,4
1,72,127,4
1,84,127,4
1,72,127,4
1,84,127,4
1,72,127,4
1,84,127,4
1,83,127,4
1,72,127,4
1,72,127,4
1,84,127,4
1,72,127,4
1,83,127,4
1,84,127,4
1,72,127,4
1,84,127,4
1,72,127,4
1,84,127,4
1,72,127,4
1,84,127,4
1,83,127,4
1,72,127,4
1,72,127,4
1,84,127,4
1,72,127,4
1,83,127,4
1,84,127,4
1,72,127,4
1,84,127,4
1,72,127,4
1,84,127,4
1,72,127,4
1,84,127,4
1,83,127,4
1,72,127,4
1,72,127,4
1,84,127,4
1,72,127,4
1,83,127,4
1,84,127,4
1,72,127,4
1,84,127,4
1,72,127,4
1,84,127,4
1,72,127,4
1,84,127,4
1,83,127,4
1,72,127,4
1,72,127,4
1,84,127,4
1,72,127,4
1,83,127,4
1,84,127,4
1,72,127,4
1,84,127,4
1,72,127,4
1,72,39,21700
1,84,59,4
1,83,80,4
1,72,100,4
1,72,120,4
1,84,127,4
1,72,127,4
1,83,127,4
1,84,127,4
1,72,127,4
1,84,127,4
1,72,127,4
1,84,127,4
1,72,127,4
1,84,127,4
1,83,127,4
1,72,127,4
1,72,127,4
1,84,127,4
1,72,127,4
1,83,127,4
1,84,127,4
1,72,127,4
1,84,127,4
1,72,127,4
1,84,127,4
1,72,127,4
1,84,127,4
1,83,127,4
1,72,127,4
1,72,127,4
1,84,127,4
1,72,127,4
1,83,127,4
1,84,127,4
1,72,127,4
1,84,127,4
1,72,127,4
1,84,127,4
1,72,127,4
1,84,127,4
1,83,127,4
1,72,127,4
1,72,127,4
1,84,127,4
1,72,127,4
1,83,127,4
1,84,127,4
1,72,127,4
1,84,127,4
1,72,127,4
1,84,127,4
1,72,127,4
1,84,127,4
1,83,127,4
1,72,127,4
1,72,127,4
1,84,127,4
1,72,127,4
1,83,127,4
1,84,127,4
1,72,127,4
1,84,127,4
1,72,127,4
1,84,127,4
1,72,127,4
1,84,127,4
1,83,127,4
1,72,127,4
1,72,127,4
1,84,127,4
1,72,127,4
1,83,127,4
1,84,127,4
1,72,127,4
1,84,127,4
1,72,127,4
1,77,127,4
1,65,127,4
1,77,127,4
1,76,127,4
1,65,127,4
1,65,127,4
1,77,127,4
1,65,127,4
1,76,127,4
1,77,127,4
1,65,127,4
1,77,127,4
1,65,127,4
