track,note,velocity,time
1,65,127,3480
1,65,0,60
1,72,127,0
1,72,0,60
1,69,127,0
1,69,0,60
1,65,127,0
1,65,0,30
1,72,127,0
1,72,0,60
1,72,127,0
1,72,0,60
1,72,127,0
1,72,0,30
1,69,127,0
1,69,0,60
1,65,127,0
1,65,0,60
1,67,127,0
1,67,0,60
1,67,127,0
1,67,0,60
1,66,127,0
1,66,0,60
1,67,127,0
1,67,0,30
1,72,127,0
1,72,0,60
1,72,127,0
1,72,0,90
1,73,127,120
1,73,0,60
1,68,127,0
1,68,0,60
1,77,127,0
1,77,0,60
1,75,127,0
1,75,0,30
1,77,127,0
1,77,0,60
1,77,127,0
1,77,0,60
1,77,127,0
1,77,0,30
1,75,127,0
1,75,0,60
1,73,127,0
1,73,0,60
1,75,127,0
1,75,0,60
1,75,127,0
1,75,0,60
1,72,127,0
1,72,0,60
1,73,127,0
1,73,0,30
1,75,127,0
1,75,0,60
1,75,127,0
1,75,0,60
1,75,127,0
1,75,0,30
1,73,127,0
1,73,0,60
1,72,127,0
1,72,0,60
1,70,127,0
1,70,0,60
1,73,127,0
1,73,0,60
1,72,127,0
1,72,0,60
1,65,127,0
1,65,0,30
1,73,127,0
1,73,0,60
1,73,127,0
1,73,0,60
1,73,127,0
1,73,0,30
1,72,127,0
1,72,0,60
1,70,127,0
1,70,0,60
1,73,127,0
1,73,0,60
1,73,127,0
1,73,0,60
1,72,127,0
1,72,0,60
1,70,127,0
1,70,0,30
1,73,127,0
1,73,0,60
1,73,127,0
1,73,0,60
1,73,127,0
1,73,0,30
1,72,127,0
1,72,0,60
1,70,127,0
1,70,0,60
1,72,127,0
1,72,0,60
1,72,127,0
1,72,0,60
1,72,127,30
1,72,0,60
1,72,127,30
1,72,0,60
1,72,127,0
1,72,0,60
1,72,127,30
1,72,0,60
1,72,127,30
1,72,0,60
1,72,127,0
1,72,0,60
1,72,127,30
1,72,0,60
1,72,127,30
1,72,0,60
1,72,127,0
1,72,0,60
1,72,127,30
1,72,0,60
1,65,127,30
1,65,0,60
1,72,127,0
1,72,0,60
1,69,127,0
1,69,0,60
1,65,127,0
1,65,0,30
1,72,127,0
1,72,0,60
1,72,127,0
1,72,0,60
1,72,127,0
1,72,0,30
1,69,127,0
1,69,0,60
1,65,127,0
1,65,0,60
1,67,127,0
1,67,0,60
1,67,127,0
1,67,0,60
1,66,127,0
1,66,0,60
1,67,127,0
1,67,0,30
1,72,127,0
1,72,0,60
1,72,127,0
1,72,0,90
1,73,127,120
1,73,0,60
1,68,127,0
1,68,0,60
1,77,127,0
1,77,0,60
1,75,127,0
1,75,0,30
1,77,127,0
1,77,0,60
1,77,127,0
1,77,0,60
1,77,127,0
1,77,0,30
1,75,127,0
1,75,0,60
1,73,127,0
1,73,0,60
1,75,127,0
1,75,0,60
1,75,127,0
1,75,0,60
1,72,127,0
1,72,0,60
1,73,127,0
1,73,0,30
1,75,127,0
1,75,0,60
1,75,127,0
1,75,0,60
1,68,127,90
1,68,0,60
1,70,127,0
1,70,0,60
1,73,127,0
1,73,0,60
1,72,127,0
1,72,0,60
1,70,127,0
1,70,0,30
1,73,127,0
1,73,0,60
1,73,127,0
1,73,0,60
1,73,127,0
1,73,0,30
1,72,127,0
1,72,0,60
1,65,127,0
1,65,0,60
1,73,127,0
1,73,0,60
1,73,127,0
1,73,0,60
1,72,127,0
1,72,0,60
1,70,127,0
1,70,0,30
1,73,127,0
1,73,0,60
1,73,127,0
1,73,0,60
1,73,127,0
1,73,0,30
1,72,127,0
1,72,0,60
1,70,127,0
1,70,0,60
1,72,127,0
1,72,0,60
1,72,127,0
1,72,0,60
1,72,127,30
1,72,0,60
1,72,127,30
1,72,0,60
1,72,127,0
1,72,0,60
1,72,127,30
1,72,0,60
1,72,127,30
1,72,0,60
1,72,127,0
1,72,0,60
1,72,127,30
1,72,0,60
1,72,127,30
1,72,0,60
1,72,127,0
1,72,0,60
1,72,127,30
1,72,0,60
1,68,127,30
1,68,0,60
1,63,127,0
1,63,0,60
1,72,127,0
1,72,0,60
1,70,127,0
1,70,0,30
1,72,127,0
1,72,0,60
1,72,127,0
1,72,0,60
1,72,127,0
1,72,0,30
1,68,127,0
1,68,0,60
1,63,127,0
1,63,0,60
1,70,127,0
1,70,0,60
1,70,127,0
1,70,0,60
1,67,127,0
1,67,0,60
1,68,127,0
1,68,0,30
1,70,127,0
1,70,0,60
1,63,127,30
1,63,0,60
1,67,127,0
1,67,0,60
1,63,127,0
1,63,0,60
1,65,127,0
1,65,0,60
1,68,127,0
1,68,0,60
1,67,127,0
1,67,0,60
1,60,127,0
1,60,0,30
1,68,127,0
1,68,0,60
1,68,127,0
1,68,0,60
1,68,127,0
1,68,0,30
1,67,127,0
1,67,0,60
1,65,127,0
1,65,0,60
1,68,127,0
1,68,0,60
1,68,127,0
1,68,0,60
1,67,127,0
1,67,0,60
1,65,127,0
1,65,0,30
1,68,127,0
1,68,0,60
1,68,127,0
1,68,0,60
1,68,127,0
1,68,0,30
1,67,127,0
1,67,0,60
1,65,127,0
1,65,0,60
1,67,127,0
1,67,0,959
1,67,127,1
1,67,0,60
1,76,127,0
1,76,0,60
1,72,127,0
1,72,0,60
1,67,127,0
1,67,0,30
1,76,127,0
1,76,0,60
1,76,127,0
1,76,0,60
1,76,127,0
1,76,0,30
1,72,127,0
1,72,0,60
1,67,127,0
1,67,0,60
1,69,127,0
1,69,0,60
1,77,127,0
1,77,0,60
1,72,127,0
1,72,0,60
1,69,127,0
1,69,0,30
1,77,127,0
1,77,0,60
1,77,127,0
1,77,0,60
1,77,127,0
1,77,0,30
1,72,127,0
1,72,0,60
1,69,127,0
1,69,0,60
1,67,127,0
1,67,0,60
1,76,127,0
1,76,0,60
1,72,127,0
1,72,0,60
1,67,127,0
1,67,0,30
1,76,127,0
1,76,0,60
1,76,127,0
1,76,0,60
1,76,127,0
1,76,0,30
1,72,127,0
1,72,0,60
1,67,127,0
1,67,0,60
1,69,127,0
1,69,0,60
1,77,127,0
1,77,0,60
1,72,127,0
1,72,0,60
1,69,127,0
1,69,0,30
1,77,127,0
1,77,0,60
1,77,127,0
1,77,0,60
1,76,127,3870
1,67,127,0
1,72,127,0
1,72,0,90
1,67,0,0
1,76,0,0
1,77,127,0
1,72,127,0
1,69,127,0
1,69,0,60
1,72,0,0
1,77,0,0
1,72,127,330
1,67,127,0
1,67,0,60
1,72,0,0
1,70,127,30
1,74,127,0
1,74,0,30
1,70,0,0
1,70,127,240
1,74,127,0
1,74,0,60
1,70,0,0
1,81,127,60
1,77,127,0
1,77,0,60
1,81,0,0
1,76,127,30
1,79,127,0
1,79,0,30
1,76,0,0
1,65,127,480
1,65,0,60
1,72,127,0
1,72,0,60
1,69,127,0
1,69,0,60
1,65,127,0
1,65,0,30
1,72,127,0
1,72,0,60
1,72,127,0
1,72,0,60
1,72,127,0
1,72,0,30
1,69,127,0
1,69,0,60
1,65,127,0
1,65,0,60
1,67,127,0
1,67,0,60
1,67,127,0
1,67,0,60
1,66,127,0
1,66,0,60
1,67,127,0
1,67,0,30
1,72,127,0
1,72,0,60
1,72,127,0
1,72,0,90
1,73,127,120
1,73,0,60
1,68,127,0
1,68,0,60
1,77,127,0
1,77,0,60
1,75,127,0
1,75,0,30
1,77,127,0
1,77,0,60
1,77,127,0
1,77,0,60
1,77,127,0
1,77,0,30
1,75,127,0
1,75,0,60
1,73,127,0
1,73,0,60
1,75,127,0
1,75,0,60
1,75,127,0
1,75,0,60
1,72,127,0
1,72,0,60
1,73,127,0
1,73,0,30
1,75,127,0
1,75,0,60
1,75,127,0
1,75,0,60
1,75,127,0
1,75,0,30
1,73,127,0
1,73,0,60
1,72,127,0
1,72,0,60
1,70,127,0
1,70,0,60
1,73,127,0
1,73,0,60
1,72,127,0
1,72,0,60
1,65,127,0
1,65,0,30
1,73,127,0
1,73,0,60
1,73,127,0
1,73,0,60
1,73,127,0
1,73,0,30
1,72,127,0
1,72,0,60
1,70,127,0
1,70,0,60
1,73,127,0
1,73,0,60
1,73,127,0
1,73,0,60
1,72,127,0
1,72,0,60
1,70,127,0
1,70,0,30
1,73,127,0
1,73,0,60
1,73,127,0
1,73,0,60
1,73,127,0
1,73,0,30
1,72,127,0
1,72,0,60
1,70,127,0
1,70,0,60
1,72,127,0
1,72,0,959
1,65,127,1
1,65,0,60
1,72,127,0
1,72,0,60
1,69,127,0
1,69,0,60
1,65,127,0
1,65,0,30
1,72,127,0
1,72,0,60
1,72,127,0
1,72,0,60
1,72,127,0
1,72,0,30
1,69,127,0
1,69,0,60
1,65,127,0
1,65,0,60
1,67,127,0
1,67,0,60
1,67,127,0
1,67,0,60
1,66,127,0
1,66,0,60
1,67,127,0
1,67,0,30
1,72,127,0
1,72,0,60
1,72,127,0
1,72,0,90
1,73,127,120
1,73,0,60
1,68,127,0
1,68,0,60
1,77,127,0
1,77,0,60
1,75,127,0
1,75,0,30
1,77,127,0
1,77,0,60
1,77,127,0
1,77,0,60
1,77,127,0
1,77,0,30
1,75,127,0
1,75,0,60
1,73,127,0
1,73,0,60
1,75,127,0
1,75,0,60
1,75,127,0
1,75,0,60
1,72,127,0
1,72,0,60
1,73,127,0
1,73,0,30
1,75,127,0
1,75,0,60
1,75,127,0
1,75,0,60
1,68,127,90
1,68,0,60
1,70,127,0
1,70,0,60
1,73,127,0
1,73,0,60
1,72,127,0
1,72,0,60
1,70,127,0
1,70,0,30
1,73,127,0
1,73,0,60
1,73,127,0
1,73,0,60
1,73,127,0
1,73,0,30
1,72,127,0
1,72,0,60
1,65,127,0
1,65,0,60
1,73,127,0
1,73,0,60
1,73,127,0
1,73,0,60
1,72,127,0
1,72,0,60
1,70,127,0
1,70,0,30
1,73,127,0
1,73,0,60
1,73,127,0
1,73,0,60
1,73,127,0
1,73,0,30
1,72,127,0
1,72,0,60
1,70,127,0
1,70,0,60
1,72,127,0
1,72,0,959
1,68,127,1
1,68,0,60
1,63,127,0
1,63,0,60
1,72,127,0
1,72,0,60
1,70,127,0
1,70,0,30
1,72,127,0
1,72,0,60
1,72,127,0
1,72,0,60
1,72,127,0
1,72,0,30
1,68,127,0
1,68,0,60
1,63,127,0
1,63,0,60
1,70,127,0
1,70,0,60
1,70,127,0
1,70,0,60
1,67,127,0
1,67,0,60
1,68,127,0
1,68,0,30
1,70,127,0
1,70,0,60
1,63,127,30
1,63,0,60
1,67,127,0
1,67,0,60
1,63,127,0
1,63,0,60
1,65,127,0
1,65,0,60
1,68,127,0
1,68,0,60
1,67,127,0
1,67,0,60
1,60,127,0
1,60,0,30
1,68,127,0
1,68,0,60
1,68,127,0
1,68,0,60
1,68,127,0
1,68,0,30
1,67,127,0
1,67,0,60
1,65,127,0
1,65,0,60
1,68,127,0
1,68,0,60
1,68,127,0
1,68,0,60
1,67,127,0
1,67,0,60
1,65,127,0
1,65,0,30
1,68,127,0
1,68,0,60
1,68,127,0
1,68,0,60
1,68,127,0
1,68,0,30
1,67,127,0
1,67,0,60
1,65,127,0
1,65,0,60
1,67,127,0
1,67,0,959
1,67,127,1
1,67,0,60
1,76,127,0
1,76,0,60
1,72,127,0
1,72,0,60
1,67,127,0
1,67,0,30
1,76,127,0
1,76,0,60
1,76,127,0
1,76,0,60
1,76,127,0
1,76,0,30
1,72,127,0
1,72,0,60
1,67,127,0
1,67,0,60
1,69,127,0
1,69,0,60
1,77,127,0
1,77,0,60
1,72,127,0
1,72,0,60
1,69,127,0
1,69,0,30
1,77,127,0
1,77,0,60
1,77,127,0
1,77,0,60
1,77,127,0
1,77,0,30
1,72,127,0
1,72,0,60
1,69,127,0
1,69,0,60
1,67,127,0
1,67,0,60
1,76,127,0
1,76,0,60
1,72,127,0
1,72,0,60
1,67,127,0
1,67,0,30
1,76,127,0
1,76,0,60
1,76,127,0
1,76,0,60
1,76,127,0
1,76,0,30
1,72,127,0
1,72,0,60
1,67,127,0
1,67,0,60
1,69,127,0
1,69,0,60
1,77,127,0
1,77,0,60
1,72,127,0
1,72,0,60
1,69,127,0
1,69,0,30
1,77,127,0
1,77,0,60
1,77,127,0
1,77,0,60
1,76,127,3870
1,67,127,0
1,72,127,5
1,72,0,85
1,67,0,0
1,76,0,0
1,77,127,0
1,72,127,0
1,69,127,0
1,69,0,60
1,72,0,0
1,77,0,0
1,72,127,330
1,67,127,0
1,67,0,60
1,72,0,0
1,70,127,30
1,74,127,0
1,74,0,30
1,70,0,0
1,72,127,240
1,67,127,0
1,67,0,60
1,72,0,0
1,81,127,60
1,76,127,0
1,76,0,60
1,81,0,0
1,78,127,30
1,69,127,0
1,69,0,30
1,78,0,0
1,67,127,480
1,67,0,60
1,74,127,0
1,74,0,60
1,71,127,0
1,71,0,60
1,67,127,0
1,67,0,30
1,74,127,0
1,74,0,60
1,74,127,0
1,74,0,60
1,74,127,0
1,74,0,30
1,71,127,0
1,71,0,60
1,67,127,0
1,67,0,60
1,69,127,0
1,69,0,60
1,69,127,0
1,69,0,60
1,68,127,0
1,68,0,60
1,69,127,0
1,69,0,30
1,74,127,0
1,74,0,60
1,74,127,0
1,74,0,90
1,75,127,120
1,75,0,60
1,70,127,0
1,70,0,60
1,79,127,0
1,79,0,60
1,77,127,0
1,77,0,30
1,79,127,0
1,79,0,60
1,79,127,0
1,79,0,60
1,79,127,0
1,79,0,30
1,77,127,0
1,77,0,60
1,75,127,0
1,75,0,60
1,77,127,0
1,77,0,60
1,77,127,0
1,77,0,60
1,74,127,0
1,74,0,60
1,75,127,0
1,75,0,30
1,77,127,0
1,77,0,60
1,77,127,0
1,77,0,60
1,67,127,90
1,67,0,30
1,67,127,0
1,67,0,30
1,75,127,0
1,75,0,60
1,72,127,0
1,72,0,60
1,67,127,0
1,67,0,60
1,75,127,0
1,75,0,30
1,72,127,0
1,72,0,60
1,67,127,0
1,67,0,60
1,67,127,0
1,67,0,30
1,75,127,5
1,75,0,55
1,74,127,0
1,74,0,60
1,68,127,0
1,68,0,60
1,75,127,0
1,75,0,60
1,72,127,0
1,72,0,60
1,68,127,0
1,68,0,30
1,77,127,0
1,77,0,60
1,77,127,0
1,77,0,60
1,72,127,0
1,72,0,30
1,74,127,0
1,74,0,60
1,75,127,0
1,75,0,60
1,74,127,0
1,74,0,90
1,74,127,0
1,74,0,90
1,74,127,0
1,74,0,60
1,74,127,0
1,74,0,90
1,74,127,0
1,74,0,90
1,74,127,0
1,74,0,60
1,46,127,0
1,46,0,360
1,41,127,0
1,41,0,60
1,46,127,0
1,46,0,60
1,41,127,0
1,41,0,360
1,46,127,0
1,46,0,60
1,45,127,0
1,45,0,60
1,43,127,0
1,43,0,360
1,46,127,0
1,46,0,60
1,43,127,0
1,43,0,60
1,39,127,0
1,39,0,360
1,36,127,0
1,36,0,60
1,39,127,0
1,39,0,60
1,69,127,0
1,69,0,959
1,69,127,1
1,69,0,60
1,78,127,0
1,78,0,60
1,74,127,0
1,74,0,60
1,69,127,0
1,69,0,30
1,78,127,0
1,78,0,60
1,78,127,0
1,78,0,60
1,78,127,0
1,78,0,30
1,74,127,0
1,74,0,60
1,69,127,0
1,69,0,60
1,71,127,0
1,71,0,60
1,79,127,0
1,79,0,60
1,74,127,0
1,74,0,60
1,71,127,0
1,71,0,30
1,79,127,0
1,79,0,60
1,79,127,0
1,79,0,60
1,79,127,0
1,79,0,30
1,74,127,0
1,74,0,60
1,71,127,0
1,71,0,60
1,69,127,0
1,69,0,60
1,78,127,0
1,78,0,60
1,74,127,0
1,74,0,60
1,69,127,0
1,69,0,30
1,78,127,0
1,78,0,60
1,78,127,0
1,78,0,60
1,78,127,0
1,78,0,30
1,74,127,0
1,74,0,60
1,69,127,0
1,69,0,60
1,71,127,0
1,71,0,60
1,79,127,0
1,79,0,60
1,74,127,0
1,74,0,60
1,71,127,0
1,71,0,30
1,79,127,0
1,79,0,60
1,79,127,0
1,79,0,60
1,67,127,5910
1,62,127,0
1,71,127,5
1,71,0,25
