track,note,velocity,time
0,51,91,16
0,38,83,0
0,66,110,0
0,74,115,0
0,86,64,0
0,74,99,0
0,51,92,16
0,64,109,0
0,73,114,0
0,73,98,0
0,66,111,16
0,74,114,0
0,74,99,0
0,62,111,16
0,69,116,0
0,69,97,0
0,51,90,96
0,51,91,16
0,54,110,0
0,62,114,0
0,62,97,0
0,55,113,16
0,64,114,0
0,64,99,0
0,57,112,16
0,66,116,0
0,66,98,0
0,59,111,16
0,66,115,0
0,66,97,0
0,51,93,16
0,59,111,16
0,67,113,0
0,67,96,0
0,64,113,16
0,64,97,0
0,51,89,16
0,55,110,0
0,59,111,16
0,51,91,16
0,61,113,0
0,57,110,16
0,51,87,16
0,67,109,0
0,76,113,0
0,76,97,0
0,51,93,16
0,69,109,0
0,78,114,0
0,78,97,0
0,66,113,16
0,74,115,0
0,74,98,0
0,51,92,32
0,38,83,0
0,62,85,0
0,74,84,0
0,66,84,0
0,51,90,16
0,64,110,0
0,73,116,0
0,73,97,0
0,66,111,16
0,74,115,0
0,74,96,0
0,62,110,16
0,69,114,0
0,69,98,0
0,51,91,96
0,51,91,16
0,54,109,0
0,69,116,0
0,69,97,0
0,55,112,16
0,67,116,0
0,67,97,0
0,51,87,16
0,57,113,0
0,66,114,0
0,66,96,0
0,51,91,16
0,59,111,0
0,66,115,0
0,64,87,0
0,67,86,0
0,66,98,0
0,67,116,16
0,67,99,0
0,64,116,16
0,64,96,0
0,51,88,16
0,55,109,0
0,59,111,16
0,51,92,16
0,59,113,0
0,55,110,16
0,59,111,16
0,62,109,16
0,76,93,0
0,81,93,0
0,45,121,0
0,61,112,16
0,57,111,0
0,64,110,0
0,52,127,0
0,52,124,16
0,42,69,16
0,52,126,0
0,69,109,16
0,57,122,0
0,54,125,16
0,62,112,16
0,57,109,0
0,66,110,0
0,45,127,16
0,42,69,16
0,45,123,188
0,45,126,16
0,64,111,16
0,57,111,0
0,61,111,0
0,52,124,0
0,52,121,16
0,52,121,16
0,42,69,96
0,57,122,16
0,69,109,16
0,54,125,16
0,57,109,16
0,62,110,0
0,66,110,0
0,42,69,112
0,76,93,188
0,81,93,0
0,57,121,0
0,64,113,16
0,57,113,0
0,61,112,0
0,59,122,0
0,57,127,16
0,57,127,16
0,42,69,96
0,54,127,16
0,69,109,16
0,59,126,16
0,59,111,16
0,62,110,0
0,66,111,0
0,62,125,16
0,42,69,16
0,59,119,0
0,61,119,16
0,59,121,0
0,62,119,16
0,62,126,0
0,64,109,16
0,57,113,0
0,61,109,0
0,59,125,0
0,64,121,16
0,59,126,16
0,62,126,16
0,42,69,12
0,57,111,0
0,62,127,16
0,69,113,16
0,59,111,16
0,66,113,0
0,62,113,0
0,59,124,0
0,42,75,16
0,71,121,0
0,59,121,0
0,42,49,16
0,73,121,0
0,61,122,0
0,46,85,16
0,74,121,0
0,62,127,0
0,76,121,16
0,64,122,0
0,42,76,16
0,40,103,0
0,62,121,0
0,74,121,0
0,67,96,0
0,74,96,0
0,67,124,0
0,42,52,16
0,66,123,0
0,42,75,16
0,37,103,0
0,64,125,0
0,42,49,16
0,66,122,0
0,62,122,16
0,42,74,16
0,42,102,0
0,57,111,0
0,62,113,0
0,54,110,0
0,69,98,0
0,74,97,0
0,42,52,16
0,61,109,16
0,42,79,16
0,37,103,0
0,62,110,0
0,57,127,92
0,42,49,16
0,69,111,0
0,62,122,0
0,64,127,16
0,42,76,16
0,42,105,0
0,67,113,0
0,58,111,0
0,61,109,0
0,79,99,0
0,67,124,0
0,42,52,16
0,66,113,0
0,78,99,0
0,66,124,0
0,64,122,16
0,37,103,16
0,42,77,0
0,46,106,0
0,64,113,0
0,76,97,0
0,42,53,16
0,66,113,0
0,78,96,0
0,66,127,0
0,62,122,16
0,42,78,16
0,47,104,0
0,64,113,0
0,59,111,0
0,76,98,0
0,42,50,188
0,74,96,16
0,37,103,16
0,42,75,0
0,62,111,0
0,42,52,188
0,57,123,92
0,42,76,16
0,40,102,0
0,55,111,0
0,62,111,0
0,59,110,0
0,71,97,0
0,74,98,0
0,59,124,0
0,42,49,16
0,62,124,0
0,62,126,16
0,37,103,96
0,42,77,0
0,42,53,16
0,64,125,0
0,67,121,16
0,42,77,16
0,42,100,0
0,66,109,0
0,62,111,0
0,57,110,0
0,74,99,0
0,66,124,16
0,42,51,96
0,62,123,16
0,37,103,16
0,42,75,0
0,78,96,0
0,66,121,16
0,42,52,96
0,66,124,16
0,42,77,16
0,45,104,0
0,55,110,0
0,59,111,0
0,62,109,0
0,71,96,0
0,76,96,0
0,67,124,16
0,66,127,64
0,42,51,20
0,64,122,0
0,37,103,176
0,42,76,0
0,42,52,188
0,40,102,16
0,42,78,16
0,47,102,0
0,61,111,0
0,64,113,0
0,57,110,0
0,69,96,0
0,76,97,0
0,42,52,188
0,45,108,16
0,47,104,0
0,66,109,0
0,71,97,0
0,78,96,0
0,64,123,0
0,45,108,16
0,61,122,0
0,41,108,16
0,73,113,0
0,36,95,16
0,49,89,0
0,40,102,0
0,68,110,0
0,64,111,0
0,71,113,0
0,68,87,0
0,64,87,0
0,71,83,0
0,68,92,0
0,71,89,0
0,76,94,0
0,59,121,0
0,68,89,56
0,71,91,0
0,76,91,0
0,42,53,56
0,68,90,0
0,71,89,0
0,76,94,0
0,42,55,56
0,38,109,92
0,36,95,0
0,42,89,0
0,68,92,0
0,71,92,0
0,76,91,0
0,42,54,56
0,42,54,92
0,68,93,0
0,71,89,0
0,76,91,0
0,36,95,16
0,42,56,0
0,40,104,0
0,68,93,0
0,71,93,0
0,76,94,0
0,36,95,16
0,42,89,0
0,32,103,0
0,68,112,0
0,63,109,0
0,71,110,0
0,63,83,0
0,68,91,0
0,71,91,0
0,75,94,0
0,42,55,56
0,42,53,92
0,42,53,92
0,68,94,0
0,71,92,0
0,75,89,0
0,38,109,16
0,42,89,0
0,32,106,0
0,68,94,0
0,71,93,0
0,75,92,0
0,42,53,56
0,42,55,92
0,68,90,0
0,71,89,0
0,75,92,0
0,59,124,0
0,42,55,16
0,59,124,0
0,36,95,16
0,42,89,0
0,33,101,0
0,66,113,0
0,69,113,0
0,61,110,0
0,66,83,0
0,69,87,0
0,61,86,0
0,66,89,0
0,69,89,0
0,73,93,0
0,59,121,0
0,42,56,56
0,66,91,0
0,69,94,0
0,73,94,0
0,42,55,16
0,66,90,0
0,69,92,0
0,73,89,0
0,57,121,0
0,42,54,16
0,57,126,0
0,38,109,92
0,36,95,0
0,42,89,0
0,66,94,0
0,69,93,0
0,73,94,0
0,42,53,56
0,42,53,16
0,56,122,0
0,36,95,16
0,42,53,0
0,30,104,0
0,66,93,0
0,69,90,0
0,73,93,0
0,56,121,0
0,36,95,16
0,42,89,0
0,35,104,0
0,64,110,0
0,61,110,0
0,69,113,0
0,64,86,0
0,66,91,0
0,69,90,0
0,73,90,0
0,42,54,16
0,54,125,0
0,42,53,92
0,64,92,0
0,69,92,0
0,73,89,0
0,42,56,56
0,64,94,0
0,69,93,0
0,73,89,0
0,38,109,16
0,42,89,0
0,47,100,0
0,66,109,0
0,71,111,0
0,63,110,0
0,66,87,0
0,71,87,0
0,63,83,0
0,66,93,0
0,71,90,0
0,75,90,0
0,61,127,0
0,42,54,16
0,63,125,0
0,42,53,16
0,35,102,0
0,66,94,0
0,71,92,0
0,75,90,0
0,42,53,56
0,36,95,16
0,42,89,0
0,40,102,0
0,64,110,0
0,71,109,0
0,68,113,0
0,68,84,0
0,64,86,0
0,68,93,0
0,71,94,0
0,76,92,0
0,59,121,0
0,42,53,56
0,68,93,0
0,71,89,0
0,76,93,0
0,42,56,56
0,68,93,0
0,71,90,0
0,76,92,0
0,42,55,56
0,36,95,16
0,38,109,0
0,42,89,0
0,68,123,0
0,68,90,0
0,71,91,0
0,76,91,0
0,42,56,16
0,69,123,0
0,42,54,16
0,71,123,0
0,68,91,0
0,71,89,0
0,76,92,0
0,36,95,16
0,42,53,0
0,40,102,0
0,68,111,0
0,73,110,0
0,64,109,0
0,68,91,0
0,71,90,0
0,76,89,0
0,36,95,16
0,42,89,0
0,32,104,0
0,80,88,0
0,63,86,0
0,68,93,0
0,71,89,0
0,75,94,0
0,42,53,56
0,42,55,92
0,42,55,92
0,68,89,0
0,71,90,0
0,75,92,0
0,38,109,16
0,42,89,0
0,32,104,0
0,71,113,0
0,68,90,0
0,71,94,0
0,75,91,0
0,42,55,56
0,42,55,92
0,68,94,0
0,71,93,0
0,75,91,0
0,59,121,0
0,42,55,16
0,59,124,0
0,36,95,16
0,42,89,0
0,33,101,0
0,57,109,0
0,64,109,0
0,61,113,0
0,81,91,0
0,66,84,0
0,69,83,0
0,66,94,0
0,69,90,0
0,73,94,0
0,59,127,0
0,42,56,56
0,66,93,0
0,69,93,0
0,73,89,0
0,42,55,16
0,66,89,0
0,69,89,0
0,73,93,0
0,57,127,0
0,42,56,16
0,57,127,0
0,38,109,16
0,36,95,0
0,42,89,0
0,33,102,0
0,66,92,0
0,69,94,0
0,73,89,0
0,42,55,16
0,56,122,0
0,42,53,92
0,36,95,16
0,42,54,0
0,28,100,0
0,66,93,0
0,69,92,0
0,73,89,0
0,56,127,0
0,36,95,16
0,42,89,0
0,35,100,0
0,57,109,0
0,61,109,0
0,64,110,0
0,83,88,0
0,64,86,0
0,66,93,0
0,69,89,0
0,73,93,0
0,42,54,16
0,54,127,0
0,42,54,16
0,85,91,0
0,64,90,0
0,69,90,0
0,73,90,0
0,42,56,16
0,64,91,0
0,69,93,0
0,73,92,0
0,38,109,56
0,42,89,0
0,66,92,0
0,71,89,0
0,75,92,0
0,61,124,0
0,42,53,56
0,46,97,16
0,87,91,0
0,66,91,0
0,71,91,0
0,75,93,0
0,63,126,0
0,36,95,16
0,42,89,0
0,33,101,0
0,68,111,0
0,64,111,0
0,71,112,0
0,88,92,0
0,68,84,0
0,71,84,0
0,68,89,0
0,73,94,0
0,76,91,0
0,64,123,0
0,68,90,16
0,73,92,0
0,76,107,0
0,36,95,16
0,42,56,0
0,33,100,0
0,68,92,0
0,73,94,0
0,76,90,0
0,38,109,16
0,36,95,0
0,42,89,0
0,32,105,0
0,68,92,0
0,73,94,0
0,76,91,0
0,42,53,152
0,68,92,0
0,73,90,0
0,76,94,0
0,68,94,16
0,73,94,0
0,76,92,0
0,36,95,16
0,42,89,0
0,44,100,0
0,64,113,0
0,68,111,0
0,71,112,0
0,68,94,0
0,71,93,0
0,76,93,0
0,36,95,112
0,42,55,0
0,32,105,0
0,68,90,16
0,71,94,0
0,76,94,0
0,38,109,16
0,42,89,0
0,44,100,0
0,90,92,0
0,68,92,0
0,71,93,0
0,76,93,0
0,42,54,56
0,42,56,92
0,68,93,0
0,71,90,0
0,76,92,0
0,61,127,0
0,63,127,16
0,36,95,16
0,42,89,0
0,30,102,0
0,73,110,0
0,66,110,0
0,69,111,0
0,85,90,0
0,66,83,0
0,69,87,0
0,66,89,0
0,69,91,0
0,73,90,0
0,64,123,0
0,42,55,56
0,66,89,0
0,69,90,0
0,73,92,0
0,36,95,16
0,42,54,0
0,66,93,0
0,69,89,0
0,73,90,0
0,63,126,0
0,42,53,16
0,64,124,0
0,36,95,16
0,38,109,0
0,42,89,0
0,87,91,0
0,66,93,0
0,69,93,0
0,73,89,0
0,42,56,16
0,64,127,0
0,42,56,92
0,36,95,16
0,42,53,0
0,66,92,0
0,69,89,0
0,73,93,0
0,64,125,0
0,36,95,16
0,42,89,0
0,35,103,0
0,69,109,0
0,73,111,0
0,76,113,0
0,88,90,0
0,64,83,0
0,69,90,0
0,73,92,0
0,76,90,0
0,42,54,56
0,42,56,16
0,69,92,0
0,73,93,0
0,76,90,0
0,63,127,0
0,42,54,56
0,69,92,0
0,73,93,0
0,76,94,0
0,38,109,16
0,42,89,0
0,33,102,0
0,71,110,0
0,78,113,0
0,75,112,0
0,85,88,0
0,71,85,0
0,66,87,0
0,71,91,0
0,75,94,0
0,78,92,0
0,61,127,0
0,42,56,56
0,46,95,16
0,71,90,0
0,75,91,0
0,78,93,0
0,63,123,0
0,36,95,16
0,42,89,0
0,32,100,0
0,63,111,0
0,68,113,0
0,71,113,0
0,83,90,0
0,68,86,0
0,68,91,0
0,71,89,0
0,75,89,0
0,59,123,0
0,42,54,56
0,68,89,0
0,71,93,0
0,75,89,0
0,42,53,56
0,68,94,0
0,71,89,0
0,75,89,0
0,42,56,56
0,36,95,16
0,38,109,0
0,42,89,0
0,71,119,0
0,68,89,0
0,71,89,0
0,75,92,0
0,42,54,16
0,73,119,0
0,42,55,16
0,68,119,0
0,68,90,0
0,71,90,0
0,75,90,0
0,36,95,16
0,42,53,0
0,32,103,0
0,63,119,0
0,68,119,0
0,71,119,0
0,68,90,0
0,71,92,0
0,75,92,0
0,36,95,16
0,42,89,0
0,32,103,0
0,68,94,0
0,71,94,0
0,75,91,0
0,42,54,56
0,42,53,92
0,42,56,16
0,68,90,0
0,71,90,0
0,75,93,0
0,38,109,16
0,42,89,0
0,63,113,0
0,68,89,0
0,71,91,0
0,75,93,0
0,59,125,0
0,42,54,16
0,61,121,0
0,42,54,92
0,68,92,0
0,71,92,0
0,75,93,0
0,42,56,16
0,56,124,0
0,36,95,16
0,42,89,0
0,37,102,0
0,59,119,0
0,63,119,0
0,66,119,0
0,68,98,0
0,71,97,0
0,75,98,0
0,42,55,92
0,42,55,16
0,71,119,0
0,68,96,0
0,71,97,0
0,75,97,0
0,42,55,92
0,36,95,16
0,38,109,0
0,42,89,0
0,37,103,0
0,75,119,0
0,68,98,0
0,71,96,0
0,75,98,0
0,42,56,92
0,36,95,16
0,42,55,0
0,37,105,0
0,78,119,0
0,68,98,0
0,71,98,0
0,75,101,0
0,42,53,92
0,36,95,16
0,49,89,0
0,37,102,0
0,65,119,0
0,80,119,0
0,68,99,0
0,73,98,0
0,77,97,0
0,66,119,16
0,74,119,0
0,73,119,16
0,65,119,0
0,56,123,0
0,46,96,16
0,57,127,0
0,59,124,16
0,62,119,16
0,71,119,0
0,36,95,16
0,42,89,0
0,42,104,0
0,80,112,0
0,83,113,0
0,56,127,0
0,42,55,92
0,42,53,16
0,52,125,0
0,42,55,92
0,42,89,16
0,80,110,0
0,52,124,0
0,42,54,92
0,42,55,16
0,80,111,0
0,83,111,0
0,49,125,0
0,36,95,16
0,42,53,0
0,42,106,0
0,71,113,0
0,52,121,0
0,36,95,16
0,42,89,0
0,42,105,0
0,76,110,0
0,42,54,92
0,42,54,16
0,80,109,0
0,42,53,92
0,42,89,16
0,85,112,0
0,42,53,16
0,73,111,0
0,42,56,16
0,76,113,0
0,42,56,16
0,81,112,0
0,47,127,0
0,36,95,16
0,57,89,0
0,47,101,0
0,81,110,0
0,85,109,0
0,88,110,0
0,64,87,0
0,69,89,0
0,73,89,0
0,57,121,0
0,57,127,16
0,57,127,16
0,56,122,16
0,52,122,16
0,47,127,16
0,46,99,16
0,52,126,0
0,54,122,16
0,52,126,16
0,51,93,16
0,52,100,0
0,68,110,0
0,76,114,0
0,76,112,0
0,51,91,16
0,66,109,0
0,75,114,0
0,75,107,0
0,51,92,16
0,68,112,0
0,76,115,0
0,76,111,0
0,51,93,16
0,64,109,0
0,71,113,0
0,71,112,0
0,51,91,92
0,51,92,16
0,56,113,0
0,64,116,0
0,64,112,0
0,51,92,16
0,57,111,0
0,66,113,0
0,66,108,0
0,51,91,8
0,59,112,0
0,68,116,0
0,68,110,0
0,51,92,16
0,59,112,0
0,68,113,0
0,68,107,0
0,51,91,16
0,40,106,0
0,51,93,16
0,61,112,0
0,69,113,0
0,69,108,0
0,51,91,16
0,57,110,0
0,66,114,0
0,66,111,0
0,51,93,92
0,45,102,16
0,59,112,0
0,62,112,0
0,55,109,0
0,62,110,0
0,67,109,0
0,64,111,16
0,93,91,0
0,92,90,24
0,91,89,12
0,90,88,12
0,89,87,12
0,88,85,12
0,87,84,12
0,86,83,12
0,45,108,12
0,33,102,0
0,57,113,0
0,61,112,0
