track,note,velocity,time
1,87,90,24
1,85,90,0
1,78,90,0
1,78,90,32
1,77,90,0
1,75,90,0
1,85,90,0
1,84,90,0
1,80,90,0
1,75,90,120
1,70,90,0
1,68,90,0
1,67,90,0
1,70,90,0
1,75,90,0
1,70,90,0
1,78,90,0
1,70,90,0
1,77,90,0
1,70,90,0
1,78,90,0
1,70,90,0
1,80,90,0
1,82,90,0
1,75,90,0
1,78,90,0
1,78,90,0
1,70,90,0
1,75,90,0
1,87,90,0
1,82,90,0
1,85,90,0
1,84,90,0
1,77,90,0
1,78,90,0
1,73,90,0
1,75,90,0
1,87,90,0
1,82,90,0
1,85,90,0
1,84,90,0
1,80,90,0
1,79,90,0
1,70,90,0
1,75,90,0
1,73,90,0
1,77,90,0
1,70,90,0
1,78,90,0
1,80,90,0
1,82,90,0
1,78,90,120
1,85,90,0
1,87,90,0
1,70,101,7196
1,75,101,0
1,68,101,0
1,73,101,0
1,70,101,0
1,75,101,0
1,70,101,0
1,75,101,0
1,70,101,0
1,75,101,0
1,68,101,0
1,73,101,0
1,70,101,0
1,75,101,0
1,70,101,0
1,75,101,0
1,70,87,0
1,75,87,0
1,70,39,420
1,75,39,0
1,68,39,0
1,73,39,0
1,70,39,0
1,75,39,0
1,70,39,0
1,75,39,0
1,70,39,0
1,75,39,0
1,68,37,0
1,73,37,0
1,70,36,0
1,75,36,0
1,70,35,0
1,75,35,0
1,70,34,0
1,75,34,0
1,66,101,12
1,54,101,0
1,66,101,0
1,54,101,0
1,66,101,0
1,54,101,0
1,68,101,60
1,56,101,0
1,68,101,0
1,56,101,0
1,68,101,0
1,56,101,0
1,70,101,180
1,58,101,0
1,73,80,12
1,72,80,0
1,68,80,0
1,70,80,0
1,63,80,0
1,68,80,0
1,65,80,0
1,61,80,0
1,85,80,1680
1,84,80,0
1,80,80,0
1,82,80,0
1,75,101,60
1,75,101,0
1,75,101,0
1,75,101,0
1,75,101,120
1,75,101,0
1,75,101,0
1,75,101,0
1,80,101,300
1,80,101,0
1,80,101,0
1,80,101,0
1,79,101,120
1,79,101,0
1,79,101,0
1,79,101,0
1,77,101,300
1,77,101,0
1,77,101,0
1,77,101,0
1,77,101,120
1,73,101,0
1,73,101,0
1,73,101,0
1,73,101,0
1,73,101,120
1,73,101,60
1,73,101,0
1,73,101,0
1,73,101,0
1,73,101,0
1,73,101,60
1,73,101,0
1,70,101,240
1,70,101,0
1,70,101,0
1,70,101,0
1,70,101,60
1,70,101,0
1,70,101,60
1,70,101,60
1,70,101,0
1,70,101,60
1,70,101,0
1,70,101,0
1,70,101,0
1,70,101,0
1,70,101,60
1,70,101,0
1,70,101,60
1,70,101,0
1,70,101,0
1,70,101,60
1,70,101,0
1,70,101,60
1,70,101,60
1,68,101,660
1,67,101,0
1,68,101,0
1,70,101,0
1,63,101,0
1,68,101,0
1,66,101,0
1,65,101,0
1,65,101,0
1,61,101,0
1,73,101,0
1,70,94,240
1,70,93,0
1,70,93,0
1,70,92,0
1,70,90,60
1,70,90,0
1,70,88,60
1,70,86,60
1,70,86,0
1,70,84,60
1,70,83,0
1,70,83,0
1,70,82,0
1,70,81,0
1,70,79,60
1,70,79,0
1,70,77,60
1,70,76,0
1,70,75,0
1,70,74,60
1,70,73,0
1,70,72,60
1,70,70,60
1,68,61,660
1,67,60,0
1,68,59,0
1,70,58,0
1,63,58,0
1,68,57,0
1,66,56,0
1,65,55,0
1,65,53,0
1,61,52,0
1,73,50,0
1,70,44,240
1,70,43,0
1,70,43,0
1,70,42,0
1,70,40,60
1,70,40,0
1,70,38,60
1,70,36,60
1,70,36,0
1,70,34,60
1,70,33,0
1,70,33,0
1,70,32,0
1,70,31,0
1,70,29,60
1,70,29,0
1,70,27,60
1,70,26,0
1,70,25,0
1,70,24,60
1,70,23,0
1,70,22,60
1,70,20,60
1,68,11,660
1,67,10,0
1,68,9,0
1,70,8,0
1,63,8,0
1,68,7,0
1,66,6,0
1,65,5,0
1,65,3,0
1,61,2,0
2,87,80,240
2,82,80,0
2,85,80,0
2,87,80,0
2,87,80,0
2,82,80,0
2,85,80,0
2,87,80,0
2,87,80,0
2,82,80,0
2,85,80,0
2,87,80,0
2,87,80,0
2,82,80,0
2,85,80,0
2,87,80,0
2,87,80,0
2,82,80,0
2,85,80,0
2,87,80,0
2,87,80,0
2,82,80,0
2,85,80,0
2,87,80,0
2,87,80,0
2,82,80,0
2,85,80,0
2,87,80,0
2,87,80,0
2,82,80,0
2,85,80,0
2,87,80,0
2,87,80,0
2,82,80,0
2,85,80,0
2,87,80,0
2,87,80,0
2,87,96,8340
2,82,96,0
2,85,96,0
2,87,96,0
2,87,96,0
2,82,96,0
2,85,96,0
2,87,96,0
2,87,96,0
2,82,96,0
2,85,96,0
2,87,96,0
2,87,96,0
2,82,96,0
2,85,96,0
2,87,96,0
2,87,96,0
2,82,96,0
2,85,96,0
2,87,96,0
2,87,96,0
2,82,96,0
2,85,96,0
2,87,96,0
2,87,96,0
2,82,96,0
2,85,96,0
2,87,96,0
2,87,96,0
2,82,96,0
2,85,96,0
2,87,96,0
2,87,96,0
2,82,96,0
2,85,96,0
2,87,96,0
2,87,96,0
2,82,96,0
2,85,96,0
2,87,96,0
2,87,96,0
2,82,96,0
2,85,96,0
2,87,96,0
2,87,96,0
2,82,96,0
2,85,96,0
2,87,96,0
2,73,96,0
2,87,96,8160
2,82,96,0
2,85,96,0
2,87,96,0
2,87,96,0
2,82,96,0
2,85,96,0
2,87,96,0
2,87,96,0
2,82,96,0
2,85,96,0
2,87,96,0
2,87,96,0
2,82,96,0
2,85,96,0
2,87,96,0
2,87,96,0
2,82,96,0
2,85,96,0
2,87,96,0
2,87,96,0
2,82,96,0
2,85,96,0
2,87,96,0
2,87,96,0
2,82,96,0
2,85,96,0
2,87,96,0
2,87,96,0
2,82,96,0
2,85,96,0
2,87,96,0
2,87,96,0
2,82,96,0
2,85,96,0
2,87,96,0
2,87,96,0
2,82,96,0
2,85,96,0
2,87,96,0
2,87,96,0
2,82,96,0
2,85,96,0
2,87,96,0
2,87,96,0
2,82,96,0
2,85,96,0
2,87,96,0
2,85,96,0
2,75,64,2880
2,75,64,120
2,70,64,60
2,73,64,0
2,75,64,60
2,75,64,60
2,75,64,0
2,70,64,60
2,73,64,0
2,75,64,60
2,75,64,120
2,70,64,60
2,73,64,0
2,75,64,60
2,75,64,60
2,75,64,0
2,70,64,60
2,73,64,0
2,75,64,60
2,75,64,120
2,70,64,60
2,73,64,0
2,75,64,60
2,75,64,60
2,75,64,0
2,70,64,60
2,73,64,0
2,75,64,60
2,75,64,120
2,70,64,60
2,73,64,0
2,75,64,60
2,75,64,60
2,75,64,0
2,70,64,60
2,73,64,0
2,75,64,60
2,75,64,120
2,70,64,60
2,73,64,0
2,75,64,60
2,75,64,60
2,75,64,0
2,70,64,60
2,73,64,0
2,75,64,60
2,75,64,120
2,70,64,60
2,73,64,0
2,75,64,60
2,75,64,60
2,75,64,0
2,70,64,60
2,73,64,0
2,75,64,60
2,75,64,120
2,70,64,60
2,73,64,0
2,75,64,60
2,75,64,60
2,75,64,0
2,70,64,60
2,73,64,0
2,75,64,60
2,75,64,120
2,70,64,60
2,73,64,0
2,75,64,60
2,75,64,60
2,75,64,0
2,70,64,60
2,73,64,0
2,75,64,60
2,75,64,120
2,70,64,60
2,73,64,0
2,75,64,60
2,75,64,60
2,75,64,0
2,70,64,60
2,73,64,0
2,75,64,60
2,75,64,120
2,70,64,60
2,73,64,0
2,75,64,60
2,75,64,60
2,75,64,0
2,70,64,60
2,73,64,0
2,75,64,60
2,75,64,120
2,70,64,60
2,73,64,0
2,75,64,60
2,75,64,60
2,75,64,0
2,70,64,60
2,73,64,0
2,75,88,60
2,75,88,0
2,75,88,0
2,75,88,60
2,75,88,0
2,75,88,60
2,75,88,120
2,75,101,300
2,75,101,0
2,75,101,0
2,75,101,60
2,75,101,0
2,75,101,60
2,75,75,480
2,75,75,0
2,73,75,0
2,73,75,0
2,70,75,0
2,73,75,0
2,70,75,60
2,70,75,0
2,73,75,0
2,75,75,0
2,75,75,0
2,73,75,0
2,73,75,0
2,70,75,0
2,73,75,0
2,70,75,60
2,70,75,0
2,73,75,0
2,75,75,0
2,75,75,0
2,73,75,0
2,73,75,0
2,70,75,0
2,73,75,0
2,70,75,60
2,70,75,0
2,73,75,0
2,75,75,0
2,75,75,0
2,73,75,0
2,73,75,0
2,70,75,0
2,73,75,0
2,70,75,60
2,70,75,0
2,73,75,0
2,75,75,960
2,75,75,0
2,73,75,0
2,73,75,0
2,70,75,0
2,73,75,0
2,70,75,60
2,70,75,0
2,73,75,0
2,75,75,0
2,75,75,0
2,73,75,0
2,73,75,0
2,70,75,0
2,73,75,0
2,70,75,60
2,70,75,0
2,73,75,0
2,75,75,0
2,75,75,0
2,73,75,0
2,73,75,0
2,70,75,0
2,73,75,0
2,70,75,60
2,70,75,0
2,73,75,0
2,75,75,0
2,75,75,120
2,70,75,60
2,73,75,0
2,75,75,60
2,75,75,60
2,75,75,0
2,70,75,60
2,73,75,0
2,75,75,60
2,75,75,120
2,70,75,60
2,73,75,0
2,75,75,60
2,75,75,60
2,75,75,0
2,70,75,60
2,73,75,0
2,75,75,60
2,75,75,120
2,70,75,60
2,73,75,0
2,75,75,60
2,75,75,60
2,75,75,0
2,70,75,60
2,73,75,0
2,75,75,60
2,75,75,120
2,70,75,60
2,73,75,0
2,75,75,60
2,75,75,60
2,75,75,0
2,70,75,60
2,73,75,0
2,75,75,60
2,75,75,120
2,70,75,60
2,73,75,0
2,75,75,60
2,75,75,60
2,75,75,0
2,70,75,60
2,73,75,0
2,75,75,60
2,75,75,120
2,70,75,60
2,73,75,0
2,75,75,60
2,75,75,60
2,75,75,0
2,70,75,60
2,73,75,0
2,75,75,60
2,75,75,120
2,70,75,60
2,73,75,0
2,75,75,60
2,75,75,60
2,75,75,0
2,70,75,60
2,73,75,0
2,75,75,60
2,75,75,120
2,70,75,60
2,73,75,0
2,68,75,60
2,66,75,0
2,61,75,0
2,66,75,0
2,63,75,0
2,61,75,0
2,54,75,0
2,56,75,0
2,70,75,0
2,70,75,60
2,73,75,0
2,75,75,0
2,70,75,0
2,70,75,0
2,70,75,0
2,73,75,0
2,75,75,0
2,70,75,0
2,70,75,60
2,73,75,0
2,75,75,0
2,70,75,0
2,70,75,0
2,70,75,0
2,73,75,0
2,75,75,0
2,70,75,0
2,70,75,60
2,73,75,0
2,75,75,0
2,70,75,0
2,75,75,0
2,70,75,0
2,70,75,0
2,73,75,0
2,75,75,0
2,70,75,0
2,70,75,60
2,73,75,0
2,75,75,0
2,70,75,0
2,75,75,0
2,70,75,0
2,70,75,0
2,73,75,0
2,75,75,0
2,70,75,0
2,70,75,60
2,73,75,0
2,75,75,0
2,70,75,0
2,75,75,0
2,70,75,0
2,70,75,0
2,73,75,0
2,75,75,0
2,70,75,0
2,70,75,60
2,73,75,0
2,75,75,0
2,70,75,0
2,75,75,0
2,70,75,0
2,70,75,0
2,73,75,0
2,75,75,0
2,75,88,0
2,75,88,0
2,75,88,0
2,75,88,60
2,75,88,0
2,75,88,60
2,75,88,120
2,68,88,120
2,63,88,0
2,66,88,0
2,68,88,0
2,69,88,0
2,70,88,0
2,73,88,0
2,75,88,0
2,80,88,0
2,75,88,0
2,78,88,0
2,80,88,0
2,81,88,0
2,82,88,0
2,85,88,0
2,87,88,0
2,75,88,0
2,75,75,120
2,75,75,0
2,75,75,0
2,70,75,0
2,73,75,0
2,75,75,0
2,75,75,0
2,75,75,0
2,70,75,0
2,73,75,0
2,75,75,0
2,75,75,0
2,75,75,0
2,70,75,0
2,73,75,0
2,75,75,0
2,75,75,0
2,75,75,0
2,70,75,0
2,73,75,0
2,75,75,0
2,75,75,0
2,75,75,0
2,70,75,0
2,73,75,0
2,75,75,0
2,75,75,0
2,75,75,0
2,70,75,0
2,73,75,0
2,75,75,0
2,75,75,0
2,75,75,0
2,70,75,0
2,73,75,0
2,75,75,0
2,75,75,0
2,75,75,0
2,70,75,0
2,73,75,0
2,75,75,0
2,75,75,0
2,75,75,0
2,70,75,0
2,73,75,0
2,75,75,0
2,75,75,0
2,75,75,0
2,70,75,0
2,73,75,0
2,75,75,0
2,75,75,0
2,75,75,0
2,70,75,0
2,73,75,0
2,75,75,0
2,75,75,0
2,75,75,0
2,70,75,0
2,73,75,0
2,75,75,0
2,75,75,0
2,75,75,0
2,70,75,0
2,73,75,0
2,75,75,0
2,75,75,0
2,75,75,0
2,70,75,0
2,73,75,0
2,75,75,0
2,75,75,0
2,75,75,0
2,70,75,0
2,73,75,0
2,75,75,0
2,75,75,0
2,75,75,0
2,70,75,0
2,73,75,0
2,75,75,0
2,75,75,0
2,75,75,0
2,70,75,0
2,73,75,0
2,75,75,0
2,75,75,0
2,75,75,0
2,70,75,0
2,73,75,0
2,75,75,0
2,75,75,0
2,75,75,0
2,70,75,0
2,73,75,0
2,75,75,0
2,75,75,0
2,75,75,0
2,70,75,0
2,73,75,0
2,75,75,0
2,75,75,0
2,75,75,0
2,70,75,0
2,73,75,0
2,75,75,0
2,75,75,0
2,75,75,0
2,70,75,0
2,73,75,0
2,75,75,0
2,75,75,0
2,75,75,0
2,70,75,0
2,73,75,0
2,75,75,0
2,75,75,0
2,75,75,0
2,70,75,0
2,73,75,0
2,75,75,0
2,75,74,0
2,75,73,0
2,70,72,0
2,73,72,0
2,75,70,0
2,75,69,0
2,75,69,0
2,70,67,0
2,73,67,0
2,75,66,0
2,75,64,0
2,75,64,0
2,70,63,0
2,73,62,0
2,75,61,0
2,75,60,0
2,75,59,0
2,70,58,0
2,73,57,0
2,75,56,0
2,75,55,0
2,75,54,0
2,70,54,0
2,73,53,0
2,75,51,0
2,75,51,0
2,75,50,0
2,70,48,0
2,73,48,0
2,75,47,0
2,75,45,0
2,75,45,0
2,70,44,0
2,73,43,0
2,75,42,0
2,75,41,0
2,75,40,0
2,70,39,0
2,73,39,0
2,75,37,0
2,75,36,0
2,75,36,0
2,70,35,0
2,73,34,0
2,75,33,0
2,75,32,0
2,75,31,0
2,70,30,0
2,73,30,0
2,75,28,0
2,75,27,0
2,75,27,0
2,70,25,0
2,73,24,0
2,75,24,0
2,75,22,0
2,75,21,0
2,70,21,0
2,73,20,0
2,75,18,0
2,75,18,0
2,75,17,0
2,70,16,0
2,73,15,0
2,75,14,0
2,75,13,0
2,75,12,0
2,70,11,0
2,73,11,0
2,75,9,0
2,75,8,0
2,75,8,0
2,70,6,0
2,73,6,0
2,75,5,0
2,75,3,0
2,75,3,0
2,70,2,0
2,73,1,0
3,68,82,920
3,73,82,20
3,78,82,20
3,75,82,0
3,78,82,0
3,75,82,0
3,70,82,0
3,82,82,0
3,80,82,0
3,73,82,0
3,75,82,0
3,82,82,0
3,82,82,0
3,68,82,0
3,70,82,0
3,70,82,0
3,75,82,0
3,82,82,0
3,80,82,0
3,82,82,0
3,63,86,948
3,51,86,0
3,51,86,0
3,63,86,0
3,63,86,0
3,51,86,0
3,63,86,0
3,51,86,0
3,63,86,0
3,51,86,0
3,51,86,0
3,63,86,0
3,63,86,0
3,51,86,0
3,63,86,0
3,51,86,0
3,63,86,0
3,51,86,0
3,51,86,0
3,63,86,0
3,63,86,0
3,51,86,0
3,63,86,0
3,51,86,0
3,63,86,0
3,51,86,0
3,51,86,0
3,63,86,0
3,63,86,0
3,51,86,0
3,63,86,0
3,51,86,0
3,63,86,0
3,51,86,0
3,51,86,0
3,63,86,0
3,63,86,0
3,51,86,0
3,63,86,0
3,51,86,0
3,63,86,0
3,51,86,0
3,51,86,0
3,63,86,0
3,63,86,0
3,51,86,0
3,63,86,0
3,51,86,0
3,63,86,0
3,51,86,0
3,51,86,0
3,63,86,0
3,63,86,0
3,51,86,0
3,63,86,0
3,51,86,0
3,63,86,0
3,51,86,0
3,51,86,0
3,63,86,0
3,63,86,0
3,51,86,0
3,63,86,0
