track,note,velocity,time
1,72,127,0
1,72,127,0
1,72,127,0
1,72,127,0
1,72,127,0
1,72,127,0
1,72,127,0
1,72,127,0
1,72,127,0
1,72,127,0
1,72,127,0
1,72,127,0
1,72,127,0
1,72,127,0
1,72,127,0
1,72,127,0
1,60,127,24
1,60,127,0
1,60,127,0
2,65,127,3840
2,72,127,0
2,69,127,0
2,65,127,0
2,72,127,0
2,72,127,0
2,72,127,0
2,69,127,0
2,65,127,0
2,67,127,0
2,67,127,0
2,66,127,0
2,67,127,0
2,72,127,0
2,72,127,0
2,73,127,192
2,68,127,0
2,77,127,0
2,75,127,0
2,77,127,0
2,77,127,0
2,77,127,0
2,75,127,0
2,73,127,0
2,75,127,0
2,75,127,0
2,72,127,0
2,73,127,0
2,75,127,0
2,75,127,0
2,75,127,0
2,73,127,0
2,72,127,0
2,70,127,0
2,73,127,0
2,72,127,0
2,65,127,0
2,73,127,0
2,73,127,0
2,73,127,0
2,72,127,0
2,70,127,0
2,73,127,0
2,73,127,0
2,72,127,0
2,70,127,0
2,73,127,0
2,73,127,0
2,73,127,0
2,72,127,0
2,70,127,0
2,72,127,0
2,72,127,0
2,72,127,48
2,72,127,48
2,72,127,0
2,72,127,48
2,72,127,48
2,72,127,0
2,72,127,48
2,72,127,48
2,72,127,0
2,72,127,48
2,65,127,48
2,72,127,0
2,69,127,0
2,65,127,0
2,72,127,0
2,72,127,0
2,72,127,0
2,69,127,0
2,65,127,0
2,67,127,0
2,67,127,0
2,66,127,0
2,67,127,0
2,72,127,0
2,72,127,0
2,73,127,192
2,68,127,0
2,77,127,0
2,75,127,0
2,77,127,0
2,77,127,0
2,77,127,0
2,75,127,0
2,73,127,0
2,75,127,0
2,75,127,0
2,72,127,0
2,73,127,0
2,75,127,0
2,75,127,0
2,75,127,48
2,68,127,144
2,70,127,0
2,73,127,0
2,72,127,0
2,70,127,0
2,73,127,0
2,73,127,0
2,73,127,0
2,72,127,0
2,65,127,0
2,73,127,0
2,73,127,0
2,72,127,0
2,70,127,0
2,73,127,0
2,73,127,0
2,73,127,0
2,72,127,0
2,70,127,0
2,72,127,0
2,72,127,0
2,72,127,48
2,72,127,48
2,72,127,0
2,72,127,48
2,72,127,48
2,72,127,0
2,72,127,48
2,72,127,48
2,72,127,0
2,72,127,48
2,68,127,48
2,63,127,0
2,72,127,0
2,70,127,0
2,72,127,0
2,72,127,0
2,72,127,0
2,68,127,0
2,63,127,0
2,70,127,0
2,70,127,0
2,67,127,0
2,68,127,0
2,70,127,0
2,63,127,48
2,67,127,0
2,63,127,0
2,65,127,0
2,68,127,0
2,67,127,0
2,60,127,0
2,68,127,0
2,68,127,0
2,68,127,0
2,67,127,0
2,65,127,0
2,68,127,0
2,68,127,0
2,67,127,0
2,65,127,0
2,68,127,0
2,68,127,0
2,68,127,0
2,67,127,0
2,65,127,0
2,67,127,0
2,67,127,768
2,76,127,0
2,72,127,0
2,67,127,0
2,76,127,0
2,76,127,0
2,76,127,0
2,72,127,0
2,67,127,0
2,69,127,0
2,77,127,0
2,72,127,0
2,69,127,0
2,77,127,0
2,77,127,0
2,77,127,0
2,72,127,0
2,69,127,0
2,67,127,0
2,76,127,0
2,72,127,0
2,52,127,0
2,53,127,0
2,67,127,0
2,54,127,0
2,76,127,0
2,55,127,0
2,56,127,0
2,76,127,0
2,57,127,0
2,58,127,0
2,76,127,0
2,59,127,0
2,72,127,0
2,60,127,0
2,61,127,0
2,67,127,0
2,62,127,0
2,63,127,0
2,69,127,0
2,64,127,0
2,65,127,0
2,77,127,0
2,66,127,0
2,67,127,0
2,72,127,0
2,68,127,0
2,69,127,0
2,69,127,0
2,70,127,12
2,77,127,0
2,71,127,0
2,72,127,0
2,77,127,0
2,73,127,0
2,74,127,0
2,75,127,0
2,76,127,0
2,77,127,0
2,79,127,0
2,80,127,0
2,76,127,5952
2,72,127,0
2,67,127,0
2,69,127,48
2,72,127,0
2,77,127,0
2,76,127,528
2,72,127,0
2,67,127,0
2,65,127,48
2,70,127,0
2,74,127,0
2,74,127,336
2,77,127,0
2,70,127,0
2,81,127,96
2,77,127,0
2,72,127,0
2,72,127,48
2,76,127,0
2,79,127,0
2,65,127,720
2,72,127,0
2,69,127,0
2,65,127,0
2,72,127,0
2,72,127,0
2,72,127,0
2,69,127,0
2,65,127,0
2,67,127,0
2,67,127,0
2,66,127,0
2,67,127,0
2,72,127,0
2,72,127,0
2,73,127,192
2,68,127,0
2,77,127,0
2,75,127,0
2,77,127,0
2,77,127,0
2,77,127,0
2,75,127,0
2,73,127,0
2,75,127,0
2,75,127,0
2,72,127,0
2,73,127,0
2,75,127,0
2,75,127,0
2,75,127,0
2,73,127,0
2,72,127,0
2,70,127,0
2,73,127,0
2,72,127,0
2,65,127,0
2,73,127,0
2,73,127,0
2,73,127,0
2,72,127,0
2,70,127,0
2,73,127,0
2,73,127,0
2,72,127,0
2,70,127,0
2,73,127,0
2,73,127,0
2,73,127,0
2,72,127,0
2,70,127,0
2,72,127,0
2,72,127,0
2,72,127,48
2,72,127,48
2,72,127,0
2,72,127,48
2,72,127,48
2,72,127,0
2,72,127,48
2,72,127,48
2,72,127,0
2,72,127,48
2,65,127,48
2,72,127,0
2,69,127,0
2,65,127,0
2,72,127,0
2,72,127,0
2,72,127,0
2,69,127,0
2,65,127,0
2,67,127,0
2,67,127,0
2,66,127,0
2,67,127,0
2,72,127,0
2,72,127,0
2,73,127,192
2,68,127,0
2,77,127,0
2,75,127,0
2,77,127,0
2,77,127,0
2,77,127,0
2,75,127,0
2,73,127,0
2,75,127,0
2,75,127,0
2,72,127,0
2,73,127,0
2,75,127,0
2,75,127,0
2,75,127,48
2,68,127,144
2,70,127,0
2,73,127,0
2,72,127,0
2,70,127,0
2,73,127,0
2,73,127,0
2,73,127,0
2,72,127,0
2,65,127,0
2,73,127,0
2,73,127,0
2,72,127,0
2,70,127,0
2,73,127,0
2,73,127,0
2,73,127,0
2,72,127,0
2,70,127,0
2,72,127,0
2,72,127,0
2,72,127,48
2,72,127,48
2,72,127,0
2,72,127,48
2,72,127,48
2,72,127,0
2,72,127,48
2,72,127,48
2,72,127,0
2,72,127,48
2,68,127,48
2,63,127,0
2,72,127,0
2,70,127,0
2,72,127,0
2,72,127,0
2,72,127,0
2,68,127,0
2,63,127,0
2,70,127,0
2,70,127,0
2,67,127,0
2,68,127,0
2,70,127,0
2,63,127,48
2,67,127,0
2,63,127,0
2,65,127,0
2,68,127,0
2,67,127,0
2,60,127,0
2,68,127,0
2,68,127,0
2,68,127,0
2,67,127,0
2,65,127,0
2,68,127,0
2,68,127,0
2,67,127,0
2,65,127,0
2,68,127,0
2,68,127,0
2,68,127,0
2,67,127,0
2,65,127,0
2,67,127,0
2,67,127,0
2,76,127,0
2,72,127,0
2,67,127,0
2,76,127,0
2,76,127,0
2,76,127,0
2,72,127,0
2,67,127,0
2,69,127,0
2,77,127,0
2,72,127,0
2,69,127,0
2,77,127,0
2,77,127,0
2,77,127,0
2,72,127,0
2,69,127,0
2,67,127,0
2,76,127,0
2,72,127,0
2,52,127,0
2,53,127,0
2,67,127,0
2,54,127,0
2,76,127,0
2,55,127,0
2,56,127,0
2,76,127,0
2,57,127,0
2,58,127,0
2,76,127,0
2,59,127,0
2,72,127,0
2,60,127,0
2,61,127,0
2,67,127,0
2,62,127,0
2,63,127,0
2,69,127,0
2,64,127,0
2,65,127,0
2,77,127,0
2,66,127,0
2,67,127,0
2,72,127,0
2,68,127,0
2,69,127,0
2,69,127,0
2,70,127,0
2,77,127,0
2,71,127,0
2,72,127,0
2,77,127,0
2,73,127,0
2,74,127,0
2,75,127,0
2,76,127,0
2,77,127,0
2,79,127,0
2,80,127,0
2,76,127,5376
2,72,127,0
2,67,127,0
2,69,127,48
2,72,127,0
2,77,127,0
2,76,127,528
2,72,127,0
2,67,127,0
2,65,127,48
2,70,127,0
2,74,127,0
2,76,127,336
2,72,127,0
2,67,127,0
2,81,127,96
2,76,127,0
2,73,127,0
2,69,127,48
2,74,127,0
2,78,127,0
2,64,127,13776
2,61,127,0
2,64,127,0
2,61,127,0
2,64,127,48
2,64,127,0
2,61,127,0
2,66,127,96
2,62,127,0
2,66,127,0
2,62,127,0
2,66,127,48
2,66,127,0
2,62,127,0
2,67,127,96
2,62,127,0
2,67,127,0
2,62,127,0
2,67,127,48
2,67,127,0
2,62,127,0
2,61,127,96
2,64,127,0
2,61,127,0
2,64,127,0
2,61,127,288
2,64,127,0
2,61,127,0
2,64,127,0
2,61,127,0
2,64,127,48
2,64,127,0
2,61,127,0
2,66,127,96
2,62,127,0
2,66,127,0
2,62,127,0
2,66,127,48
2,66,127,0
2,62,127,0
2,67,127,96
2,62,127,0
2,67,127,0
2,62,127,0
2,67,127,48
2,67,127,0
2,62,127,0
2,61,127,96
2,64,127,0
2,61,127,0
2,64,127,0
2,61,127,288
2,64,127,0
2,61,127,0
2,64,127,0
2,61,127,0
2,64,127,48
2,64,127,0
2,61,127,0
2,66,127,96
2,62,127,0
2,66,127,0
2,62,127,0
2,66,127,48
2,66,127,0
2,62,127,0
2,67,127,96
2,62,127,0
2,67,127,0
2,62,127,0
2,67,127,48
2,67,127,0
2,62,127,0
2,61,127,96
2,64,127,0
2,61,127,0
2,64,127,0
2,71,127,384
2,67,127,0
2,62,127,0
2,62,127,96
2,67,127,0
2,71,127,0
2,73,127,672
2,65,127,0
2,73,127,0
2,66,127,0
2,73,127,0
2,67,127,0
2,73,127,0
2,68,127,0
2,69,127,0
2,73,127,0
2,57,127,48
2,56,127,0
2,57,127,0
2,59,127,0
2,57,127,0
2,56,127,0
2,57,127,0
2,60,127,0
2,57,127,0
2,56,127,0
2,57,127,0
2,61,127,0
2,57,127,0
2,56,127,0
2,57,127,0
2,62,127,0
2,57,127,0
2,56,127,0
2,57,127,0
2,63,127,0
2,57,127,0
2,56,127,0
2,57,127,0
2,64,127,0
2,65,127,144
2,69,127,0
2,70,127,0
2,65,127,0
2,71,127,0
2,67,127,0
2,72,127,0
2,68,127,0
2,73,127,0
2,69,127,0
2,62,127,96
2,74,127,0
2,62,127,0
2,74,127,0
2,74,127,0
2,62,127,0
2,72,127,12960
2,72,127,0
2,72,127,0
2,72,127,0
2,72,127,0
2,72,127,0
2,72,127,0
2,72,127,0
2,72,127,0
2,72,127,0
2,72,127,0
2,72,127,0
2,72,127,0
2,72,127,0
2,72,127,0
2,72,127,0
2,72,127,0
2,72,127,0
2,72,127,0
2,72,127,0
2,72,127,0
2,70,127,0
2,70,127,0
2,70,127,0
2,70,127,0
2,70,127,0
2,70,127,0
2,70,127,0
2,70,127,0
2,70,127,0
2,70,127,0
2,70,127,0
2,70,127,0
2,70,127,0
2,70,127,0
2,70,127,0
2,70,127,0
2,70,127,0
2,70,127,0
2,70,127,0
2,70,127,0
2,67,127,0
2,67,127,0
2,67,127,0
2,67,127,0
2,67,127,0
2,67,127,0
2,67,127,0
2,67,127,0
2,67,127,0
2,67,127,0
2,67,127,0
2,67,127,0
2,67,127,0
2,67,127,0
2,67,127,0
2,67,127,0
2,67,127,0
2,67,127,0
2,67,127,0
2,67,127,0
2,67,127,0
2,67,127,0
2,67,127,0
2,67,127,0
2,67,127,0
2,67,127,0
2,67,127,0
2,67,127,0
2,67,127,0
2,67,127,0
2,67,127,0
2,67,127,0
2,67,127,0
2,67,127,0
2,67,127,0
2,67,127,0
2,67,127,0
2,67,127,0
2,67,127,0
2,67,127,0
2,67,127,0
2,67,127,0
2,67,127,0
2,67,127,0
2,69,127,0
2,69,127,0
2,69,127,0
2,69,127,0
2,69,127,0
2,69,127,0
2,69,127,0
2,69,127,0
2,69,127,0
2,69,127,0
2,69,127,0
2,69,127,0
2,69,127,0
2,69,127,0
2,69,127,0
2,69,127,0
2,69,127,0
2,69,127,0
2,69,127,0
2,69,127,0
2,69,127,0
2,69,127,0
2,67,127,0
2,67,127,0
2,67,127,0
2,67,127,0
2,67,127,0
2,67,127,0
2,67,127,0
2,67,127,0
2,67,127,0
2,67,127,0
2,67,127,0
2,67,127,0
2,67,127,0
2,67,127,0
2,67,127,0
2,67,127,0
2,67,127,0
2,67,127,0
2,64,127,0
2,64,127,0
2,64,127,0
2,64,127,0
2,64,127,0
2,64,127,0
2,64,127,0
2,64,127,0
2,64,127,0
2,64,127,0
2,64,127,0
2,64,127,0
2,64,127,0
2,64,127,0
2,64,127,0
2,64,127,0
2,64,127,0
2,64,127,0
2,64,127,0
2,64,127,0
2,64,127,0
2,64,127,0
2,64,127,0
2,64,127,0
2,64,127,0
2,64,127,0
2,64,127,0
2,64,127,0
2,64,127,0
2,64,127,0
2,64,127,0
2,64,127,0
2,64,127,0
2,64,127,0
2,64,127,0
2,64,127,0
2,64,127,0
2,74,127,0
2,73,127,0
2,71,127,0
2,69,127,0
2,76,127,0
2,76,127,0
2,76,127,0
2,76,127,384
2,76,127,0
2,76,127,0
2,60,127,384
2,64,127,0
2,69,127,0
2,69,127,48
2,64,127,0
2,60,127,0
2,60,127,144
2,64,127,0
2,69,127,0
2,69,127,48
2,64,127,0
2,60,127,0
2,62,127,144
2,64,127,0
2,68,127,0
2,64,127,48
2,62,127,0
2,68,127,0
2,62,127,48
2,64,127,0
2,68,127,0
2,69,127,384
2,64,127,0
2,60,127,0
2,69,127,48
2,60,127,0
2,64,127,0
2,69,127,48
2,64,127,0
2,60,127,0
2,60,127,384
2,64,127,0
2,69,127,0
2,69,127,48
2,64,127,0
2,60,127,0
2,60,127,144
2,64,127,0
2,69,127,0
2,69,127,48
2,64,127,0
2,60,127,0
2,68,127,144
2,64,127,0
2,62,127,0
2,62,127,48
2,64,127,0
2,68,127,0
2,68,127,48
2,64,127,0
2,62,127,0
2,62,127,384
2,64,127,0
2,68,127,0
2,68,127,48
2,64,127,0
2,62,127,0
2,62,127,144
2,64,127,0
2,68,127,0
2,68,127,48
2,64,127,0
2,62,127,0
2,69,127,144
2,64,127,0
2,60,127,0
2,60,127,48
2,64,127,0
2,69,127,0
2,69,127,48
2,64,127,0
2,60,127,0
2,67,127,384
2,69,127,0
2,73,127,0
2,73,127,48
2,69,127,0
2,67,127,0
2,67,127,144
2,69,127,0
2,73,127,0
2,73,127,48
2,69,127,0
2,67,127,0
2,74,127,144
2,69,127,0
2,65,127,0
2,65,127,48
2,69,127,0
2,74,127,0
2,74,127,48
2,69,127,0
2,65,127,0
2,69,127,384
2,71,127,0
2,75,127,0
2,75,127,48
2,71,127,0
2,69,127,0
2,69,127,144
2,71,127,0
2,75,127,0
2,75,127,48
2,71,127,0
2,69,127,0
2,74,127,144
2,71,127,0
2,68,127,0
2,68,127,48
2,71,127,0
2,74,127,0
2,76,127,48
2,71,127,0
2,68,127,0
2,62,127,10368
2,59,127,0
2,62,127,0
2,59,127,0
2,62,127,48
2,62,127,0
2,59,127,0
2,64,127,96
2,60,127,0
2,64,127,0
2,60,127,0
2,64,127,48
2,64,127,0
2,60,127,0
2,65,127,96
2,60,127,0
2,65,127,0
2,60,127,0
2,65,127,48
2,65,127,0
2,60,127,0
2,59,127,96
2,62,127,0
2,59,127,0
2,62,127,0
2,62,127,192
2,59,127,0
2,62,127,0
2,59,127,0
2,62,127,0
2,59,127,0
2,62,127,48
2,62,127,0
2,59,127,0
2,64,127,96
2,60,127,0
2,64,127,0
2,60,127,0
2,64,127,48
2,64,127,0
2,60,127,0
2,65,127,96
2,60,127,0
2,65,127,0
2,60,127,0
2,65,127,48
2,65,127,0
2,60,127,0
2,59,127,96
2,62,127,0
2,59,127,0
2,62,127,0
2,62,127,8064
2,59,127,0
2,62,127,0
2,59,127,0
2,62,127,48
2,62,127,0
2,59,127,0
2,64,127,96
2,60,127,0
2,64,127,0
2,60,127,0
2,64,127,48
2,64,127,0
2,60,127,0
2,65,127,96
2,60,127,0
2,65,127,0
2,60,127,0
2,65,127,48
2,65,127,0
2,60,127,0
2,59,127,96
2,62,127,0
2,59,127,0
