track,note,velocity,time
1,70,64,192
1,68,61,0
1,67,49,264
1,67,58,0
1,63,49,192
1,65,52,0
1,67,43,256
1,68,58,0
1,68,49,192
1,67,52,0
1,65,43,256
1,65,58,0
1,65,49,192
1,67,52,0
1,68,43,256
1,67,58,0
1,70,49,192
1,68,52,160
1,67,43,256
1,67,58,0
1,63,49,960
1,65,52,160
1,67,43,256
1,68,58,0
1,68,49,960
1,67,52,160
1,65,43,256
1,65,58,0
1,65,49,960
1,67,52,160
1,68,43,256
1,67,58,0
1,68,49,960
1,65,52,160
1,62,43,256
1,63,58,0
1,63,49,960
1,65,52,160
1,67,43,256
1,69,58,0
1,72,49,960
1,75,52,160
1,74,46,256
1,70,58,0
1,70,49,960
1,68,52,160
1,67,43,256
1,67,58,0
1,63,49,960
1,65,52,160
1,67,43,256
1,68,58,0
1,68,49,960
1,67,52,160
1,65,43,256
1,65,58,0
1,65,49,960
1,67,52,160
1,68,43,256
1,67,58,0
1,68,49,960
1,65,52,160
1,62,43,256
1,63,58,0
1,63,49,960
1,65,52,160
1,67,43,256
1,69,58,0
1,72,49,960
1,75,52,160
1,74,46,256
1,70,58,0
1,70,49,960
1,72,32,64
1,73,52,80
1,70,46,176
1,70,58,0
1,70,49,960
1,72,32,64
1,73,52,80
1,70,46,176
1,70,58,0
1,70,49,960
1,72,32,64
1,73,52,80
1,70,46,176
1,70,58,0
1,70,49,960
1,72,32,64
1,73,52,80
1,70,46,176
1,70,58,0
1,70,49,960
1,72,32,64
1,73,52,80
1,70,46,176
1,70,58,0
1,70,49,960
1,72,32,64
1,73,52,80
1,70,46,176
1,70,58,0
1,70,49,960
1,72,32,64
1,73,52,80
1,70,46,176
1,70,52,0
1,70,64,1312
1,68,61,192
1,67,49,264
1,67,58,0
1,63,49,960
1,65,52,160
1,67,43,256
1,68,58,0
1,68,49,960
1,67,52,160
1,65,43,256
1,65,58,0
1,65,49,960
1,67,52,160
1,68,43,256
1,67,58,0
1,68,49,960
1,65,52,160
1,62,43,256
1,63,58,0
1,63,49,960
1,65,52,160
1,67,43,256
1,69,58,0
1,72,49,960
1,75,52,160
1,74,46,256
1,70,58,0
1,70,49,960
1,68,52,160
1,67,43,256
1,67,58,0
1,63,49,960
1,65,52,160
1,67,43,256
1,68,58,0
1,68,49,960
1,67,52,160
1,65,43,256
1,65,58,0
1,65,49,960
1,67,52,160
1,68,43,256
1,67,58,0
1,68,49,960
1,65,52,160
1,62,43,256
1,63,58,0
1,63,49,960
1,65,52,160
1,67,43,256
1,69,58,0
1,72,49,960
1,75,52,160
1,74,46,256
1,70,58,0
1,70,49,960
1,72,32,64
1,73,52,80
1,70,46,176
1,70,58,0
1,70,49,960
1,72,32,64
1,73,52,80
1,70,46,176
1,70,58,0
1,70,49,960
1,72,32,64
1,73,52,80
1,70,46,176
1,70,58,0
1,70,49,960
1,72,32,64
1,73,52,80
1,70,46,176
1,70,58,0
1,70,49,960
1,72,32,64
1,73,52,80
1,70,46,176
1,70,58,0
1,70,49,960
1,72,32,64
1,73,52,80
1,70,46,176
1,70,58,0
1,70,49,960
1,72,32,64
1,73,52,80
1,70,46,176
1,70,58,0
1,70,49,960
1,72,32,64
1,73,52,80
1,70,46,176
1,70,49,0
1,65,52,11104
1,65,32,1152
1,63,52,352
1,65,40,1136
1,61,49,360
1,63,32,1328
1,65,52,184
1,58,49,1520
1,61,32,1128
1,56,46,352
1,53,32,1128
1,58,32,352
1,63,58,1088
1,65,46,40
1,63,46,176
1,61,40,80
1,65,61,72
1,70,49,344
1,65,52,11104
1,65,32,1152
1,63,52,352
1,65,40,1136
1,61,49,360
1,63,32,1328
1,65,52,184
1,58,49,1520
1,61,32,1128
1,56,46,352
1,53,32,1128
1,58,32,352
1,63,58,1088
1,65,46,40
1,63,46,176
1,61,40,80
1,65,61,72
2,70,36,53760
2,70,28,152
2,70,34,168
2,70,28,168
2,70,36,152
2,70,36,344
2,70,28,152
2,70,34,168
2,70,28,168
2,71,36,152
2,71,28,152
2,71,34,168
2,72,36,768
2,72,28,152
2,72,34,168
2,72,28,168
2,72,36,152
2,72,28,152
2,72,34,168
2,72,28,168
2,70,36,152
2,70,28,152
2,70,34,168
2,70,28,168
2,70,36,152
3,55,43,19968
3,58,29,0
3,63,37,0
3,55,33,0
3,58,43,0
3,63,35,0
3,55,37,0
3,58,33,0
3,55,39,0
3,58,25,0
3,63,39,0
3,56,43,0
3,63,37,0
3,56,33,0
3,63,35,0
3,62,33,376
3,56,37,0
3,56,39,0
3,63,39,0
3,56,43,0
3,63,37,0
3,56,33,0
3,63,35,0
3,56,37,376
3,62,33,0
3,62,39,0
3,56,39,0
3,62,37,0
3,55,43,0
3,62,35,0
3,55,33,0
3,56,37,376
3,62,33,0
3,62,39,0
3,55,39,0
3,60,29,0
3,55,43,0
3,63,37,0
3,60,43,0
3,55,33,0
3,63,35,0
3,63,32,0
3,55,37,0
3,58,33,0
3,55,39,0
3,58,25,0
3,63,39,0
3,57,43,0
3,60,29,0
3,63,37,0
3,57,33,0
3,60,43,0
3,63,35,0
3,60,37,0
3,63,33,0
3,67,32,0
3,60,39,0
3,63,25,0
3,67,39,0
3,58,58,0
3,53,46,192
3,58,52,168
3,65,46,160
3,70,58,168
3,63,35,12264
3,55,23,0
3,58,31,0
3,55,23,384
3,58,35,0
3,55,31,0
3,58,23,0
3,51,39,0
3,63,23,352
3,60,31,0
3,56,39,0
3,62,23,0
3,56,31,0
3,60,31,0
3,56,35,0
3,60,23,0
3,63,39,0
3,34,31,0
3,62,35,0
3,58,27,0
3,58,39,384
3,53,35,0
3,46,31,0
3,62,31,176
3,53,39,0
3,58,31,0
3,62,35,360
3,59,43,0
3,55,27,0
3,55,39,0
3,59,31,0
3,62,39,0
3,62,35,0
3,59,39,0
3,56,31,0
3,56,27,0
3,59,27,0
3,62,35,0
3,63,35,0
3,60,43,0
3,55,27,0
3,63,39,0
3,60,31,0
3,55,39,0
3,58,39,0
3,63,35,0
3,55,31,0
3,58,27,0
3,63,35,0
3,55,27,0
3,63,35,0
3,57,43,0
3,53,27,0
3,63,39,0
3,57,31,0
3,53,39,0
3,67,31,0
3,63,35,0
3,57,39,0
3,67,27,0
3,63,35,0
3,57,27,0
3,65,35,0
3,62,43,0
3,58,27,0
3,58,39,0
3,62,31,0
3,65,39,0
3,58,31,0
3,65,35,0
3,62,39,0
3,56,61,9760
3,62,49,192
3,68,46,168
3,74,49,176
4,58,53,30720
4,61,39,0
4,65,47,0
4,58,43,0
4,61,53,0
4,65,45,0
4,58,47,0
4,61,43,0
4,65,42,0
4,58,49,0
4,61,45,0
4,65,49,0
4,58,53,0
4,61,39,0
4,65,47,0
4,58,43,0
4,61,53,0
4,65,45,0
4,58,47,0
4,61,43,0
4,65,42,0
4,58,49,0
4,61,45,0
4,65,49,0
4,58,53,0
4,61,39,0
4,65,47,0
4,58,43,0
4,61,49,0
4,65,45,0
4,58,47,0
4,61,43,0
4,65,42,0
4,58,49,0
4,61,41,0
4,65,49,0
4,58,53,0
4,61,39,0
4,65,47,0
4,58,43,0
4,61,53,0
4,65,45,0
4,58,47,0
4,61,43,0
4,65,42,0
4,58,49,0
4,61,41,0
4,65,49,0
4,58,53,0
4,61,39,0
4,65,47,0
4,58,43,0
4,61,53,0
4,65,45,0
4,58,47,0
4,61,43,0
4,65,42,0
4,58,49,0
4,61,45,0
4,65,49,0
4,58,53,0
4,61,39,0
4,65,47,0
4,58,43,0
4,61,53,0
4,65,45,0
4,58,47,0
4,61,43,0
4,65,42,0
4,58,49,0
4,61,41,0
4,65,49,0
4,62,53,0
4,65,49,0
4,70,53,0
4,58,53,21472
4,61,39,0
4,65,47,0
4,58,43,0
4,61,53,0
4,65,45,0
4,58,47,0
4,61,43,0
4,65,42,0
4,58,49,0
4,61,35,0
4,65,49,0
4,58,53,0
4,61,39,0
4,65,47,0
4,58,43,0
4,61,53,0
4,65,45,0
4,58,47,0
4,61,43,0
4,65,42,0
4,58,49,0
4,61,41,0
4,65,49,0
4,58,53,0
4,61,39,0
4,65,47,0
4,58,43,0
4,61,53,0
4,65,45,0
4,58,47,0
4,61,43,0
4,65,42,0
4,58,49,0
4,61,45,0
4,65,49,0
4,58,53,0
4,61,39,0
4,65,47,0
4,58,43,0
4,61,53,0
4,65,45,0
4,58,47,0
4,61,43,0
4,65,42,0
4,58,49,0
4,61,45,0
4,65,49,0
4,58,53,0
4,61,41,0
4,65,47,0
4,58,43,0
4,61,53,0
4,65,45,0
4,58,47,0
4,61,43,0
4,65,42,0
4,58,49,0
4,61,41,0
4,65,49,0
4,58,53,0
4,61,39,0
4,65,47,0
4,58,43,0
4,61,53,0
4,65,45,0
4,58,47,0
4,61,43,0
4,65,42,0
4,58,49,0
4,61,41,0
4,65,49,0
4,58,53,0
4,61,39,0
4,65,47,0
4,58,43,0
4,61,53,0
4,65,45,0
4,58,47,0
4,61,43,0
4,65,42,0
4,58,49,0
4,61,41,0
4,65,49,0
4,58,53,0
4,61,39,0
4,65,47,0
4,58,43,0
4,61,53,0
4,65,45,0
4,58,47,0
4,61,43,0
4,65,42,0
4,58,49,0
4,61,45,0
4,65,49,0
4,58,53,0
4,61,39,0
4,65,47,0
4,58,43,0
4,61,53,0
4,65,45,0
4,58,47,0
4,61,43,0
4,65,42,0
4,58,49,0
4,61,45,0
4,65,49,0
4,58,53,0
4,61,39,0
4,65,47,0
4,58,43,0
4,61,53,0
4,65,45,0
4,58,47,0
4,61,43,0
4,65,42,0
4,58,49,0
4,61,41,0
4,65,49,0
4,58,53,0
4,61,39,0
4,65,47,0
4,58,43,0
4,61,53,0
4,65,45,0
4,58,47,0
4,61,43,0
4,65,42,0
4,58,49,0
4,61,41,0
4,65,45,0
4,58,45,0
4,61,39,0
4,65,47,0
4,58,43,0
4,61,53,0
4,65,45,0
4,58,47,0
4,61,43,0
4,65,42,0
4,58,49,0
4,61,45,0
4,65,49,0
4,58,53,0
4,61,39,0
4,65,47,0
4,58,43,0
4,61,53,0
4,65,45,0
4,58,47,0
4,61,43,0
4,65,42,0
4,58,49,0
4,61,41,0
4,65,49,0
4,58,53,0
4,61,39,0
4,65,47,0
4,58,43,0
4,61,53,0
4,65,45,0
4,58,47,0
4,61,43,0
4,65,42,0
4,58,49,0
4,61,45,0
4,65,49,0
4,58,53,0
4,61,39,0
4,65,47,0
4,58,43,0
4,61,53,0
4,65,45,0
4,58,47,0
4,61,43,0
4,65,42,0
4,58,49,0
4,61,41,0
4,65,49,0
4,58,53,0
4,61,39,0
4,65,47,0
4,58,43,0
4,61,45,0
4,65,45,0
4,58,47,0
4,61,43,0
4,65,42,0
4,58,49,0
4,61,35,0
4,65,49,0
4,58,53,0
4,61,39,0
4,65,47,0
4,58,43,0
4,61,53,0
4,65,45,0
4,58,47,0
4,61,43,0
4,65,42,0
4,58,49,0
4,61,41,0
4,65,49,0
4,58,53,0
4,61,39,0
4,65,47,0
4,58,43,0
4,61,53,0
4,65,45,0
4,58,47,0
4,61,43,0
4,65,42,0
4,58,49,0
4,61,45,0
4,65,49,0
4,58,53,0
4,61,45,0
4,65,47,0
4,58,43,0
4,61,53,0
4,65,45,0
4,58,47,0
4,61,43,0
4,65,42,0
4,58,49,0
4,61,45,0
4,65,49,0
4,58,53,0
4,61,39,0
4,65,47,0
4,58,43,0
4,61,53,0
4,65,45,0
4,58,47,0
4,61,43,0
4,65,42,0
4,58,49,0
4,61,41,0
4,65,49,0
4,58,53,0
4,61,39,0
4,65,47,0
4,58,43,0
4,61,53,0
4,65,45,0
4,58,47,0
4,61,43,0
4,65,42,0
4,58,49,0
4,61,45,0
4,65,49,0
4,58,53,0
4,61,45,0
4,65,47,0
4,58,43,0
4,61,53,0
4,65,45,0
4,58,47,0
4,61,43,0
4,65,42,0
4,58,49,0
4,61,41,0
4,65,49,0
4,58,53,0
4,61,39,0
4,65,47,0
4,58,43,0
4,61,53,0
4,65,45,0
4,58,47,0
4,61,43,0
4,65,42,0
4,58,49,0
4,61,41,0
4,65,49,0
4,58,53,0
4,61,39,0
4,65,47,0
4,58,43,0
4,61,53,0
4,65,45,0
4,58,47,0
4,61,43,0
4,65,42,0
4,58,49,0
4,61,35,0
4,65,49,0
4,58,53,0
4,61,39,0
4,65,47,0
4,58,43,0
4,61,53,0
4,65,45,0
4,58,47,0
4,61,43,0
4,65,42,0
4,58,49,0
4,61,35,0
4,65,49,0
4,58,53,0
4,61,39,0
4,65,47,0
4,58,43,0
4,61,53,0
4,65,45,0
4,58,47,0
4,61,43,0
4,65,42,0
4,58,49,0
4,61,35,0
4,65,49,0
4,58,53,0
4,61,39,0
4,65,47,0
4,58,43,0
4,61,53,0
4,65,45,0
4,58,47,0
4,61,43,0
4,65,42,0
4,58,49,0
4,61,35,0
4,65,49,0
4,58,53,0
4,61,39,0
4,65,47,0
4,58,43,0
4,61,53,0
4,65,45,0
4,58,47,0
4,61,43,0
4,65,42,0
4,58,49,0
4,61,35,0
4,65,49,0
4,58,53,0
4,61,39,0
4,65,47,0
4,58,43,0
4,61,53,0
4,65,45,0
4,58,47,0
4,61,43,0
4,65,42,0
4,58,49,0
4,61,35,0
4,65,49,0
4,58,53,0
4,61,39,0
4,65,47,0
4,58,43,0
4,61,53,0
4,65,45,0
4,58,47,0
4,61,43,0
4,65,42,0
4,58,49,0
4,61,35,0
4,65,49,0
4,58,53,0
4,61,39,0
4,65,47,0
4,58,43,0
4,61,53,0
4,65,45,0
4,58,47,0
4,61,43,0
4,65,42,0
4,58,49,0
4,61,35,0
4,65,49,0
4,58,53,0
4,61,39,0
4,65,47,0
4,58,43,0
4,61,53,0
4,65,45,0
4,58,47,0
4,61,43,0
4,65,42,0
4,58,49,0
4,61,35,0
4,65,49,0
4,58,53,0
4,61,39,0
4,65,47,0
4,58,43,0
4,61,53,0
4,65,45,0
4,58,47,0
4,61,43,0
4,65,42,0
4,58,49,0
4,61,35,0
4,65,49,0
4,58,53,0
4,61,39,0
4,65,47,0
4,58,43,0
4,61,53,0
4,65,45,0
4,58,47,0
4,61,43,0
4,65,42,0
4,58,49,0
4,61,35,0
4,65,49,0
4,58,53,0
4,61,39,0
4,65,47,0
4,58,43,0
4,61,53,0
4,65,45,0
4,58,47,0
4,61,43,0
4,65,42,0
4,58,49,0
4,61,35,0
4,65,49,0
4,58,53,0
4,61,39,0
4,65,47,0
4,58,43,0
4,61,53,0
4,65,45,0
4,58,47,0
4,61,43,0
4,65,42,0
4,58,49,0
4,61,35,0
4,65,49,0
4,58,53,0
4,61,39,0
4,65,47,0
4,58,43,0
4,61,53,0
4,65,45,0
4,58,47,0
4,61,43,0
4,65,42,0
4,58,49,0
4,61,35,0
4,65,49,0
4,58,53,0
4,61,39,0
4,65,47,0
4,58,43,0
4,61,53,0
4,65,45,0
4,58,47,0
4,61,43,0
4,65,42,0
4,58,49,0
4,61,35,0
4,65,49,0
4,58,53,0
4,61,39,0
4,65,47,0
4,58,43,0
4,61,53,0
4,65,45,0
5,80,36,67584
5,82,25,768
5,82,42,0
5,84,28,0
5,85,42,0
5,87,25,0
5,89,31,0
5,89,28,0
5,90,31,0
5,89,25,0
5,70,40,0
5,73,40,48
5,73,46,0
5,75,49,48
5,76,52,36
5,77,55,40
5,80,52,40
5,81,55,0
5,82,55,48
5,85,52,40
5,85,58,0
5,87,58,48
5,88,58,0
5,89,61,48
5,92,61,40
5,93,64,44
5,94,40,0
5,94,50,72
5,99,44,96
5,97,55,72
5,96,44,80
5,94,53,80
5,92,55,80
5,89,55,104
5,88,47,112
5,87,50,120
5,85,44,0
5,82,50,128
5,85,53,104
5,82,53,360
5,80,42,88
5,77,44,104
5,75,50,0
5,75,55,0
5,77,50,128
5,75,58,168
5,73,53,160
5,70,58,160
5,70,47,0
5,87,50,576
5,88,53,24
5,89,53,48
5,92,53,48
5,93,55,56
5,94,44,56
5,88,53,48
5,89,47,40
5,87,42,48
5,85,44,48
5,82,50,0
5,80,53,64
