track,note,velocity,time
1,43,127,0
1,43,0,192
1,38,127,96
1,38,0,96
1,41,127,96
1,41,0,192
1,43,127,0
1,43,0,96
1,43,127,0
1,70,127,72
1,70,0,24
1,79,127,0
1,71,127,0
1,43,0,96
1,79,0,0
1,71,0,0
1,67,127,0
1,67,0,96
1,38,127,0
1,65,127,0
1,38,0,96
1,65,0,0
1,71,127,0
1,67,127,0
1,71,0,96
1,67,0,0
1,65,127,0
1,41,127,0
1,65,0,32
1,67,127,0
1,67,0,32
1,65,127,0
1,65,0,32
1,62,127,0
1,62,0,96
1,41,0,0
1,43,127,0
1,58,127,0
1,43,0,96
1,58,0,0
1,59,127,0
1,43,127,0
1,59,0,96
1,67,127,0
1,67,0,96
1,43,0,0
1,38,127,96
1,38,0,96
1,62,127,96
1,70,127,0
1,41,127,0
1,62,0,96
1,70,0,0
1,67,127,0
1,67,0,96
1,41,0,0
1,43,127,0
1,65,127,0
1,43,0,96
1,65,0,0
1,62,127,0
1,43,127,0
1,62,0,48
1,60,127,0
1,60,0,48
1,58,127,0
1,58,0,96
1,43,0,0
1,38,127,96
1,38,0,96
1,55,127,96
1,41,127,0
1,55,0,96
1,58,127,0
1,58,0,48
1,59,127,0
1,41,0,48
1,43,127,0
1,67,127,0
1,43,0,96
1,43,127,0
1,43,0,192
1,38,127,96
1,59,0,96
1,38,0,0
1,67,0,0
1,55,127,96
1,41,127,0
1,55,0,72
1,59,127,0
1,59,0,24
1,59,127,0
1,62,127,0
1,59,0,72
1,62,0,0
1,59,127,0
1,59,0,24
1,41,0,0
1,43,127,0
1,62,127,0
1,59,127,0
1,43,0,96
1,62,0,0
1,59,0,0
1,55,127,0
1,43,127,0
1,55,0,96
1,53,127,0
1,53,0,96
1,43,0,0
1,53,127,0
1,53,0,96
1,38,127,0
1,50,127,0
1,38,0,96
1,50,0,0
1,53,127,0
1,41,127,96
1,53,0,96
1,55,127,0
1,41,0,96
1,55,0,0
1,43,127,0
1,53,127,0
1,43,0,96
1,53,0,0
1,55,127,0
1,43,127,0
1,55,0,96
1,55,127,0
1,55,0,96
1,43,0,0
1,38,127,96
1,38,0,96
1,40,127,96
1,91,127,96
1,82,127,0
1,91,0,48
1,82,0,0
1,83,127,0
1,40,0,48
1,83,0,0
1,43,127,0
1,79,127,0
1,43,0,96
1,79,0,0
1,43,127,0
1,43,0,192
1,67,127,0
1,62,127,0
1,59,127,0
1,67,0,96
1,62,0,0
1,59,0,0
1,38,127,0
1,60,127,0
1,57,127,0
1,65,127,0
1,38,0,96
1,41,127,96
1,41,0,192
1,43,127,0
1,43,0,96
1,60,0,0
1,57,0,0
1,65,0,0
1,43,127,0
1,62,127,96
1,62,0,96
1,43,0,0
1,71,127,0
1,71,0,96
1,38,127,0
1,67,127,0
1,38,0,96
1,67,0,0
1,69,127,0
1,69,0,96
1,41,127,0
1,74,127,0
1,41,0,192
1,74,0,0
1,43,127,0
1,71,127,0
1,67,127,0
1,62,127,0
1,43,0,96
1,71,0,0
1,67,0,0
1,62,0,0
1,43,127,0
1,67,127,96
1,62,127,0
1,59,127,0
1,43,0,96
1,67,0,96
1,62,0,0
1,59,0,0
1,38,127,0
1,65,127,0
1,60,127,0
1,57,127,0
1,38,0,96
1,41,127,96
1,65,0,96
1,60,0,0
1,57,0,0
1,69,127,0
1,60,127,0
1,65,127,0
1,41,0,96
1,43,127,0
1,43,0,96
1,69,0,0
1,60,0,0
1,65,0,0
1,43,127,0
1,67,127,0
1,62,127,0
1,59,127,0
1,43,0,192
1,67,0,96
1,62,0,0
1,59,0,0
1,38,127,0
1,62,127,0
1,57,127,0
1,53,127,0
1,38,0,96
1,41,127,96
1,57,0,96
1,53,0,0
1,59,127,0
1,55,127,0
1,41,0,96
1,59,0,0
1,55,0,0
1,43,127,0
1,57,127,0
1,53,127,0
1,43,0,96
1,43,127,0
1,43,0,192
1,57,0,0
1,53,0,0
1,59,127,0
1,55,127,0
1,59,0,96
1,55,0,0
1,38,127,0
1,57,127,0
1,53,127,0
1,38,0,96
1,41,127,96
1,41,0,192
1,43,127,0
1,43,0,96
1,62,0,0
1,57,0,0
1,53,0,0
1,43,127,0
1,62,127,96
1,62,0,96
1,43,0,0
1,71,127,0
1,71,0,96
1,38,127,0
1,67,127,0
1,38,0,96
1,67,0,0
1,69,127,0
1,69,0,96
1,41,127,0
1,74,127,0
1,41,0,192
1,43,127,0
1,43,0,96
1,74,0,0
1,71,127,0
1,67,127,0
1,62,127,0
1,43,127,0
1,71,0,96
1,67,0,0
1,62,0,0
1,67,127,0
1,62,127,0
1,59,127,0
1,67,0,96
1,62,0,0
1,59,0,0
1,43,0,0
1,38,127,96
1,65,127,0
1,60,127,0
1,57,127,0
1,38,0,96
1,41,127,96
1,65,0,96
1,60,0,0
1,57,0,0
1,60,127,0
1,64,127,0
1,69,127,0
1,41,0,96
1,43,127,0
1,43,0,96
1,60,0,0
1,64,0,0
1,69,0,0
1,43,127,0
1,62,127,0
1,59,127,0
1,67,127,0
1,43,0,192
1,62,0,96
1,59,0,0
1,38,127,0
1,57,127,0
1,60,127,0
1,38,0,96
1,41,127,96
1,41,0,192
1,43,127,0
1,43,0,96
1,57,0,0
1,60,0,0
1,43,127,0
1,62,127,96
1,59,127,0
1,62,0,96
1,43,0,0
1,59,0,0
1,38,127,96
1,57,127,0
1,60,127,0
1,38,0,96
1,41,127,96
1,41,0,192
1,43,127,0
1,43,0,96
1,57,0,0
1,60,0,0
1,67,0,0
1,36,127,0
1,72,127,96
1,72,0,96
1,36,0,0
1,76,127,0
1,76,0,96
1,72,127,0
1,43,127,0
1,72,0,96
1,43,0,0
1,74,127,0
1,74,0,96
1,79,127,0
1,46,127,0
1,79,0,192
1,46,0,0
1,76,127,0
1,72,127,0
1,67,127,0
1,48,127,0
1,76,0,96
1,72,0,0
1,67,0,0
1,48,0,0
1,36,127,0
1,72,127,96
1,67,127,0
1,64,127,0
1,72,0,96
1,36,0,0
1,67,0,0
1,64,0,0
1,65,127,96
1,70,127,0
1,74,127,0
1,43,127,0
1,43,0,96
1,46,127,96
1,46,0,192
1,48,127,0
1,65,0,96
1,70,0,0
1,74,0,0
1,48,0,0
1,36,127,0
1,72,127,96
1,72,0,96
1,36,0,0
1,76,127,0
1,76,0,96
1,72,127,0
1,43,127,0
1,72,0,96
1,43,0,0
1,74,127,0
1,74,0,96
1,79,127,0
1,46,127,0
1,79,0,192
1,46,0,0
1,76,127,0
1,72,127,0
1,67,127,0
1,48,127,0
1,76,0,96
1,72,0,0
1,67,0,0
1,48,0,0
1,36,127,0
1,36,0,96
1,72,127,0
1,67,127,0
1,64,127,0
1,72,0,96
1,67,0,0
1,64,0,0
1,38,127,96
1,50,127,0
1,62,127,0
1,74,127,0
1,38,0,96
1,50,0,0
1,62,0,0
1,74,0,0
1,38,127,0
1,50,127,0
1,62,127,0
1,74,127,0
1,38,0,96
1,50,0,0
1,62,0,0
1,74,0,0
1,41,127,96
1,77,127,0
1,65,127,0
1,53,127,0
1,41,0,96
1,77,0,0
1,65,0,0
1,53,0,0
1,43,127,0
1,55,127,0
1,67,127,0
1,79,127,0
1,43,0,96
1,55,0,0
1,67,0,0
1,79,0,0
1,43,127,0
1,62,127,96
1,62,0,96
1,43,0,0
1,71,127,0
1,71,0,96
1,38,127,0
1,67,127,0
1,38,0,96
1,67,0,0
1,69,127,0
1,69,0,96
1,41,127,0
1,74,127,0
1,41,0,192
1,74,0,0
1,43,127,0
1,71,127,0
1,67,127,0
1,62,127,0
1,43,0,96
1,71,0,0
1,67,0,0
1,62,0,0
1,43,127,0
1,67,127,96
1,59,127,0
1,62,127,0
1,43,0,96
1,67,0,96
1,59,0,0
1,62,0,0
1,38,127,0
1,60,127,0
1,57,127,0
1,65,127,0
1,38,0,96
1,41,127,96
1,60,0,96
1,57,0,0
1,65,0,0
1,65,127,0
1,69,127,0
1,60,127,0
1,41,0,96
1,43,127,0
1,43,0,96
1,65,0,0
1,69,0,0
1,60,0,0
1,43,127,0
1,62,127,0
1,59,127,0
1,67,127,0
1,43,0,192
1,62,0,96
1,59,0,0
1,38,127,0
1,60,127,0
1,57,127,0
1,38,0,96
1,41,127,96
1,41,0,192
1,43,127,0
1,43,0,96
1,60,0,0
1,57,0,0
1,67,0,0
1,43,127,0
1,43,0,192
1,59,127,0
1,62,127,0
1,67,127,0
1,59,0,96
1,62,0,0
1,67,0,0
1,38,127,0
1,65,127,0
1,57,127,0
1,60,127,0
1,38,0,96
1,41,127,96
1,41,0,192
1,43,127,0
1,43,0,96
1,65,0,0
1,57,0,0
1,60,0,0
1,43,127,0
1,74,127,96
1,74,0,96
1,43,0,0
1,74,127,0
1,83,127,0
1,74,0,96
1,83,0,0
1,38,127,0
1,79,127,0
1,38,0,96
1,79,0,0
1,81,127,0
1,77,127,0
1,81,0,96
1,77,0,0
1,41,127,0
1,86,127,0
1,41,0,192
1,86,0,0
1,43,127,0
1,83,127,0
1,79,127,0
1,74,127,0
1,43,0,96
1,83,0,0
1,79,0,0
1,74,0,0
1,43,127,0
1,79,127,96
1,74,127,0
1,71,127,0
1,43,0,96
1,79,0,96
1,74,0,0
1,71,0,0
1,38,127,0
1,72,127,0
1,69,127,0
1,77,127,0
1,38,0,96
1,41,127,96
1,72,0,96
1,69,0,0
1,77,0,0
1,72,127,0
1,76,127,0
1,81,127,0
1,41,0,96
1,43,127,0
1,43,0,96
1,72,0,0
1,76,0,0
1,81,0,0
1,43,127,0
1,79,127,0
1,74,127,0
1,71,127,0
1,43,0,192
1,79,0,96
1,74,0,0
1,71,0,0
1,38,127,0
1,74,127,0
1,69,127,0
1,65,127,0
1,38,0,96
1,41,127,96
1,41,0,192
1,43,127,0
1,43,0,96
1,74,0,0
1,69,0,0
1,65,0,0
1,43,127,0
1,79,127,96
1,70,127,0
1,79,0,48
1,70,0,0
1,71,127,0
1,43,0,48
1,71,0,0
1,67,127,0
1,67,0,96
1,38,127,0
1,65,127,0
1,38,0,96
1,65,0,0
1,62,127,0
1,62,0,48
1,60,127,0
1,60,0,48
1,58,127,0
1,41,127,0
1,58,0,96
1,59,127,0
1,59,0,96
1,41,0,0
1,43,127,0
1,67,127,0
1,43,0,96
1,67,0,0
1,43,127,0
1,74,127,96
1,74,0,96
1,43,0,0
1,74,127,0
1,83,127,0
1,74,0,96
1,83,0,0
1,38,127,0
1,79,127,0
1,38,0,96
1,79,0,0
1,81,127,0
1,77,127,0
1,81,0,96
1,77,0,0
1,41,127,0
1,86,127,0
1,41,0,192
1,43,127,0
1,43,0,96
1,86,0,0
1,74,127,0
1,79,127,0
1,83,127,0
1,43,127,0
1,74,0,96
1,79,0,0
1,83,0,0
1,79,127,0
1,74,127,0
1,71,127,0
1,43,0,96
1,79,0,96
1,74,0,0
1,71,0,0
1,38,127,0
1,77,127,0
1,72,127,0
1,69,127,0
1,38,0,96
1,41,127,96
1,77,0,96
1,72,0,0
1,69,0,0
1,81,127,0
1,76,127,0
1,72,127,0
1,41,0,96
1,43,127,0
1,43,0,96
1,81,0,0
1,76,0,0
1,72,0,0
1,43,127,0
1,79,127,0
1,74,127,0
1,71,127,0
1,43,0,192
1,38,127,96
1,38,0,96
1,41,127,96
1,79,0,96
1,74,0,0
1,71,0,0
1,82,127,0
1,82,0,48
1,83,127,0
1,41,0,48
1,83,0,0
1,91,127,0
1,43,127,0
1,91,0,48
1,83,127,0
1,83,0,48
1,43,0,0
1,79,127,0
1,43,127,0
1,79,0,48
1,77,127,0
1,77,0,48
1,74,127,0
1,74,0,48
1,72,127,0
1,72,0,48
1,43,0,0
1,70,127,0
1,70,0,48
1,71,127,0
1,71,0,48
1,79,127,0
1,38,127,0
1,79,0,48
1,71,127,0
1,71,0,48
1,38,0,0
1,67,127,0
1,67,0,48
1,65,127,0
1,65,0,48
1,62,127,0
1,41,127,0
1,62,0,48
1,60,127,0
1,60,0,48
1,58,127,0
1,58,0,24
1,59,127,0
1,59,0,72
1,41,0,0
1,43,127,0
1,67,127,0
1,43,0,96
1,67,0,0
1,36,127,0
1,64,127,0
1,55,127,0
1,36,0,192
1,64,0,0
1,55,0,0
1,76,127,0
1,67,127,0
1,76,0,96
1,72,127,0
1,43,127,0
1,72,0,96
1,43,0,0
1,67,0,0
1,74,127,0
1,65,127,0
1,70,127,0
1,74,0,96
1,79,127,0
1,46,127,0
1,79,0,192
1,46,0,0
1,65,0,0
1,70,0,0
1,76,127,0
1,72,127,0
1,67,127,0
1,48,127,0
1,76,0,96
1,72,0,0
1,67,0,0
1,48,0,0
1,36,127,0
1,72,127,96
1,67,127,0
1,64,127,0
1,72,0,96
1,36,0,0
1,67,0,0
1,64,0,0
1,65,127,96
1,70,127,0
1,74,127,0
1,43,127,0
1,43,0,96
1,46,127,96
1,46,0,192
1,48,127,0
1,65,0,96
1,70,0,0
1,74,0,0
1,48,0,0
1,36,127,0
1,36,0,192
1,76,127,0
1,67,127,0
1,76,0,96
1,72,127,0
1,43,127,0
1,72,0,96
1,43,0,0
1,67,0,0
1,74,127,0
1,65,127,0
1,70,127,0
1,74,0,96
1,79,127,0
1,46,127,0
1,79,0,192
1,46,0,0
1,65,0,0
1,70,0,0
1,76,127,0
1,72,127,0
1,67,127,0
1,48,127,0
1,76,0,96
1,72,0,0
1,67,0,0
1,48,0,0
1,36,127,0
1,36,0,96
1,72,127,0
1,67,127,0
1,64,127,0
1,72,0,96
1,67,0,0
1,64,0,0
1,38,127,96
1,50,127,0
1,62,127,0
1,74,127,0
1,38,0,96
1,50,0,0
1,62,0,0
1,74,0,0
1,38,127,0
1,50,127,0
1,62,127,0
1,74,127,0
1,38,0,96
1,50,0,0
1,62,0,0
1,74,0,0
1,41,127,96
1,77,127,0
1,65,127,0
1,53,127,0
1,41,0,96
1,77,0,0
1,65,0,0
1,53,0,0
1,43,127,0
1,55,127,0
1,67,127,0
1,79,127,0
1,43,0,96
1,55,0,0
1,67,0,0
1,79,0,0
1,43,127,0
1,79,127,96
1,79,0,96
1,43,0,0
1,86,127,0
1,82,127,0
1,86,0,48
1,82,0,0
1,83,127,0
1,83,0,48
1,38,127,0
1,79,127,0
1,38,0,96
1,79,0,0
1,80,127,0
1,80,0,24
1,81,127,0
1,81,0,72
1,41,127,0
1,86,127,0
1,41,0,192
1,86,0,0
1,82,127,0
1,43,127,0
1,82,0,24
1,83,127,0
1,74,127,0
1,83,0,72
1,43,0,0
1,74,0,0
1,43,127,0
1,79,127,96
1,74,127,0
1,71,127,0
1,43,0,96
1,79,0,96
1,74,0,0
1,71,0,0
1,38,127,0
1,77,127,0
1,72,127,0
1,69,127,0
1,38,0,96
1,41,127,96
1,77,0,96
1,72,0,0
1,69,0,0
1,72,127,0
1,81,127,0
1,41,0,96
1,43,127,0
1,43,0,96
1,72,0,0
1,81,0,0
1,70,127,0
1,43,127,0
1,70,0,24
1,71,127,0
1,79,127,0
1,43,0,168
1,38,127,96
1,71,0,96
1,38,0,0
1,79,0,0
1,41,127,96
1,67,127,0
1,67,0,96
1,70,127,0
1,70,0,24
1,71,127,0
1,74,127,0
1,41,0,72
1,71,0,0
1,74,0,0
1,70,127,0
1,43,127,0
1,70,0,24
1,74,127,0
1,71,127,0
1,74,0,72
1,43,0,0
1,71,0,0
1,67,127,0
1,43,127,0
1,67,0,192
1,43,0,0
1,55,127,192
1,55,0,96
1,58,127,0
1,58,0,96
1,59,127,0
1,59,0,96
1,67,127,0
1,67,0,96
1,58,127,0
1,43,127,0
1,58,0,24
1,59,127,0
1,59,0,72
1,58,127,0
1,58,0,24
1,59,127,0
1,59,0,72
1,43,0,0
1,55,127,0
1,55,0,96
1,38,127,0
1,38,0,96
1,41,127,96
1,41,0,192
1,43,127,0
1,43,0,96
1,43,127,0
1,67,127,96
1,67,0,96
1,43,0,0
1,70,127,0
1,70,0,24
1,74,127,0
1,71,127,0
1,74,0,72
1,71,0,0
1,38,127,0
1,76,127,0
