track,note,velocity,time
0,46,127,1920
0,58,127,0
0,85,127,0
0,85,0,240
0,94,127,0
0,90,127,240
0,94,0,32
0,90,0,3328
0,84,127,0
0,92,127,240
0,84,0,8
0,89,127,232
0,92,0,4
0,89,0,3288
0,83,127,68
0,90,127,240
0,83,0,32
0,87,127,208
0,90,0,24
0,87,0,3284
0,82,127,52
0,89,127,240
0,82,0,36
0,85,127,204
0,89,0,4
0,85,0,72
0,58,0,700
0,46,0,12
0,85,127,4
0,46,127,8
0,58,127,8
0,94,127,216
0,85,0,16
0,90,127,224
0,94,0,44
0,90,0,3276
0,84,127,40
0,84,0,224
0,92,127,16
0,89,127,240
0,92,0,16
0,89,0,3312
0,83,127,32
0,90,127,240
0,83,0,20
0,87,127,220
0,90,0,40
0,87,0,3236
0,82,127,84
0,89,127,240
0,82,0,36
0,85,127,204
0,89,0,32
0,85,0,2544
0,58,0,1804
0,46,0,8
0,46,127,96
0,85,127,36
0,82,127,0
0,82,0,1904
0,46,0,4
0,53,127,0
0,81,127,12
0,84,127,0
0,85,0,12
0,85,127,468
0,82,127,0
0,84,0,20
0,81,0,16
0,84,127,204
0,87,127,0
0,85,0,52
0,82,0,24
0,85,127,404
0,82,127,0
0,87,0,4
0,84,0,8
0,84,127,228
0,81,127,0
0,85,0,56
0,82,0,12
0,81,0,380
0,84,0,0
0,85,127,32
0,82,127,0
0,53,0,20
0,46,127,4
0,46,0,1848
0,53,127,16
0,84,127,32
0,81,127,0
0,82,0,16
0,85,0,20
0,82,127,444
0,85,127,0
0,81,0,16
0,84,0,20
0,84,127,204
0,87,127,0
0,85,0,40
0,82,0,28
0,87,0,308
0,85,127,104
0,89,127,0
0,84,0,36
0,87,127,204
0,90,127,0
0,85,0,56
0,89,0,12
0,53,0,360
0,49,127,16
0,87,0,24
0,90,0,4
0,89,127,8
0,85,127,0
0,49,0,1848
0,56,127,16
0,85,0,28
0,89,0,20
0,87,127,8
0,84,127,0
0,85,127,480
0,89,127,0
0,87,0,28
0,84,0,12
0,90,127,200
0,87,127,0
0,89,0,52
0,85,0,40
0,87,0,360
0,89,127,28
0,85,127,0
0,90,0,16
0,84,127,224
0,87,127,0
0,85,0,64
0,89,0,8
0,87,0,388
0,84,0,12
0,49,127,0
0,56,0,4
0,89,127,4
0,85,127,0
0,89,0,1888
0,85,0,8
0,49,0,4
0,56,127,8
0,87,127,12
0,84,127,0
0,85,127,480
0,89,127,0
0,87,0,28
0,84,0,28
0,87,127,184
0,90,127,0
0,89,0,32
0,85,0,32
0,87,0,404
0,89,127,12
0,85,127,0
0,90,0,32
0,87,127,208
0,84,127,0
0,85,0,56
0,89,0,16
0,87,0,376
0,53,127,24
0,84,0,4
0,61,127,0
0,87,127,0
0,90,127,0
0,56,0,20
0,87,0,240
0,90,0,8
0,87,127,52
0,84,127,0
0,61,0,160
0,62,127,0
0,84,0,144
0,87,0,4
0,62,0,88
0,85,127,0
0,61,127,0
0,89,127,0
0,85,0,324
0,89,0,8
0,82,127,52
0,85,127,0
0,61,0,188
0,62,127,0
0,82,0,160
0,85,0,12
0,53,0,36
0,62,0,16
0,87,127,0
0,53,127,0
0,84,127,0
0,61,127,0
0,84,0,180
0,87,0,20
0,61,0,32
0,81,127,0
0,84,127,0
0,61,127,140
0,81,0,84
0,84,0,20
0,85,127,44
0,82,127,0
0,61,0,152
0,61,127,0
0,82,0,16
0,85,0,20
0,82,127,84
0,79,127,0
0,61,0,220
0,79,0,100
0,82,0,52
0,81,127,20
0,61,127,0
0,84,127,0
0,61,0,584
0,62,127,0
0,62,0,240
0,61,127,0
0,61,0,720
0,62,127,0
0,62,0,240
0,61,127,0
0,61,0,480
0,61,127,240
0,61,0,480
0,61,127,0
0,61,0,480
0,81,0,188
0,53,0,16
0,46,127,16
0,84,0,4
0,70,127,8
0,61,127,0
0,77,127,0
0,73,127,0
0,61,0,720
0,62,127,0
0,62,0,240
0,61,127,0
0,61,0,720
0,62,127,0
0,62,0,240
0,61,127,0
0,61,0,264
0,61,127,240
0,61,0,480
0,61,127,0
0,73,0,320
0,77,0,32
0,70,0,40
0,61,0,88
0,61,127,240
0,70,127,0
0,78,127,0
0,73,127,0
0,61,0,44
0,62,127,0
0,62,0,240
0,61,127,0
0,61,0,720
0,62,127,0
0,62,0,240
0,61,127,0
0,61,0,480
0,61,127,240
0,61,0,480
0,61,127,0
0,73,0,336
0,78,0,4
0,70,0,36
0,61,0,104
0,70,127,8
0,78,127,0
0,75,127,0
0,61,127,0
0,61,0,720
0,62,127,0
0,62,0,240
0,61,127,0
0,61,0,164
0,62,127,0
0,62,0,240
0,61,127,0
0,61,0,480
0,61,127,240
0,61,0,480
0,61,127,0
0,78,0,336
0,75,0,16
0,70,0,24
0,61,0,104
0,73,127,240
0,77,127,0
0,70,127,0
0,61,127,0
0,61,0,716
0,62,127,0
0,62,0,240
0,61,127,0
0,61,0,720
0,62,127,0
0,62,0,240
0,61,127,0
0,61,0,428
0,82,127,240
0,94,127,0
0,61,127,0
0,82,0,304
0,94,0,25
0,61,0,151
0,61,127,0
0,82,127,0
0,94,127,0
0,77,0,88
0,73,0,12
0,70,0,12
0,82,0,334
0,94,0,5
0,61,0,29
0,73,127,8
0,78,127,0
0,61,127,0
0,70,127,0
0,61,0,720
0,62,127,0
0,62,0,240
0,61,127,0
0,61,0,720
0,62,127,0
0,62,0,240
0,61,127,0
0,61,0,24
0,82,127,240
0,61,127,0
0,94,127,0
0,82,0,303
0,94,0,8
0,61,0,169
0,61,127,0
0,94,127,0
0,82,127,0
0,73,0,228
0,78,0,56
0,70,0,20
0,61,0,176
0,82,0,20
0,94,0,16
0,70,127,20
0,75,127,0
0,78,127,0
0,61,127,0
0,61,0,720
0,62,127,0
0,62,0,240
0,61,127,0
0,61,0,720
0,62,127,0
0,62,0,48
0,61,127,0
0,61,0,480
0,94,127,240
0,61,127,0
0,82,127,0
0,94,0,303
0,82,0,14
0,61,0,163
0,94,127,0
0,61,127,0
0,82,127,0
0,78,0,240
0,75,0,16
0,70,0,36
0,61,0,188
0,94,0,116
0,82,0,26
0,61,127,56
0,73,127,0
0,36,127,0
0,70,127,0
0,77,127,0
0,36,0,120
0,36,127,360
0,36,0,120
0,61,0,120
0,62,127,0
0,62,0,240
0,36,127,0
0,61,127,0
0,36,0,120
0,36,127,360
0,36,0,120
0,61,0,120
0,62,127,0
0,62,0,36
0,61,127,0
0,36,127,0
0,36,0,120
0,61,0,360
0,36,127,0
0,36,0,120
0,61,127,120
0,82,127,0
0,94,127,0
0,36,127,240
0,36,0,120
0,94,0,13
0,82,0,19
0,61,0,88
0,61,127,0
0,82,127,0
0,94,127,0
0,36,127,240
0,73,0,24
0,77,0,24
0,70,0,16
0,36,0,56
0,61,0,120
0,82,0,69
0,94,0,21
0,78,127,16
0,70,127,0
0,61,127,0
0,36,127,0
0,44,127,0
0,73,127,0
0,44,0,120
0,36,0,0
0,44,127,0
0,44,0,120
0,44,127,0
0,44,0,120
0,44,127,0
0,44,0,120
0,36,127,0
0,44,127,0
0,44,0,120
0,36,0,0
0,44,127,0
0,44,0,120
0,61,0,0
0,44,127,0
0,62,127,0
0,44,0,120
0,44,127,0
0,44,0,120
0,62,0,0
0,44,127,0
0,36,127,0
0,61,127,0
0,36,0,120
0,44,0,0
0,44,127,0
0,44,0,120
0,44,127,0
0,44,0,120
0,44,127,0
0,44,0,120
0,44,127,0
0,36,127,0
0,36,0,120
0,44,0,0
0,44,127,0
0,44,0,120
0,61,0,0
0,62,127,0
0,44,127,0
0,44,0,120
0,44,127,0
0,44,0,20
0,62,0,0
0,36,127,0
0,44,127,0
0,61,127,0
0,44,0,120
0,36,0,0
0,44,127,0
0,44,0,120
0,44,127,0
0,44,0,120
0,44,127,0
0,44,0,120
0,61,0,0
0,44,127,0
0,36,127,0
0,36,0,120
0,44,0,0
0,44,127,0
0,44,0,120
0,44,127,0
0,82,127,0
0,94,127,0
0,61,127,0
0,44,0,120
0,44,127,0
0,44,0,120
0,36,127,0
0,44,127,0
0,44,0,120
0,36,0,0
0,44,127,0
0,94,0,42
0,82,0,0
0,44,0,78
0,61,0,0
0,44,127,0
0,61,127,0
0,94,127,0
0,82,127,0
0,44,0,120
0,44,127,0
0,44,0,120
0,44,127,0
0,36,127,0
0,73,0,84
0,78,0,4
0,70,0,8
0,44,0,24
0,36,0,0
0,44,127,0
0,44,0,120
0,61,0,0
0,44,127,0
0,44,0,120
0,44,127,0
0,94,0,50
0,82,0,9
0,44,0,24
0,36,127,0
0,75,127,0
0,61,127,0
0,70,127,0
0,78,127,0
0,44,127,0
0,44,0,120
0,36,0,0
0,44,127,0
0,44,0,120
0,44,127,0
0,44,0,120
0,44,127,0
0,44,0,120
0,36,127,0
0,44,127,0
0,44,0,120
0,36,0,0
0,44,127,0
0,44,0,120
0,61,0,0
0,62,127,0
0,44,127,0
0,44,0,120
0,44,127,0
0,44,0,120
0,62,0,0
0,36,127,0
0,61,127,0
0,44,127,0
0,44,0,120
0,36,0,0
0,44,127,0
0,44,0,120
0,44,127,0
0,44,0,120
0,44,127,0
0,44,0,120
0,44,127,0
0,36,127,0
0,36,0,88
0,44,0,0
0,44,127,0
0,44,0,120
0,61,0,0
0,62,127,0
0,44,127,0
0,44,0,120
0,44,127,0
0,44,0,120
0,62,0,0
0,61,127,0
0,44,127,0
0,36,127,0
0,36,0,120
0,44,0,0
0,44,127,0
0,44,0,120
0,44,127,0
0,44,0,120
0,44,127,0
0,44,0,120
0,61,0,0
0,36,127,0
0,44,127,0
0,44,0,120
0,36,0,0
0,44,127,0
0,44,0,120
0,61,127,0
0,94,127,0
0,82,127,0
0,44,127,0
0,44,0,120
0,44,127,0
0,44,0,120
0,36,127,0
0,44,127,0
0,44,0,120
0,36,0,0
0,44,127,0
0,82,0,8
0,94,0,3
0,44,0,109
0,61,0,0
0,82,127,0
0,94,127,0
0,61,127,0
0,44,127,0
0,44,0,120
0,44,127,0
0,44,0,120
0,36,127,0
0,44,127,0
0,44,0,120
0,36,0,0
0,78,0,0
0,44,127,0
0,75,0,12
0,70,0,0
0,61,0,108
0,44,0,0
0,44,127,0
0,82,0,119
0,44,0,1
0,44,127,0
0,94,0,4
0,44,0,12
0,73,127,0
0,44,127,0
0,36,127,0
0,70,127,0
0,58,127,0
0,61,127,0
0,77,127,0
0,58,0,115
0,44,0,5
0,36,0,0
0,44,127,0
0,58,127,0
0,58,0,115
0,44,0,5
0,58,127,0
0,44,127,0
0,44,0,120
0,44,127,0
0,58,0,115
0,44,0,5
0,36,127,0
0,44,127,0
0,44,0,120
0,36,0,0
0,44,127,0
0,44,0,120
0,61,0,0
0,58,127,0
0,44,127,0
0,62,127,0
0,44,0,120
0,44,127,0
0,58,0,115
0,62,0,5
0,44,0,0
0,36,127,0
0,61,127,0
0,44,127,0
0,58,127,0
0,58,0,115
0,44,0,5
0,36,0,0
0,58,127,0
0,44,127,0
0,58,0,15
0,44,0,5
0,44,127,0
0,58,127,0
0,44,0,120
0,44,127,0
0,58,0,115
0,44,0,5
0,36,127,0
0,44,127,0
0,44,0,120
0,36,0,0
0,44,127,0
0,44,0,120
0,61,0,0
0,62,127,0
0,58,127,0
0,44,127,0
0,44,0,120
0,44,127,0
0,58,0,115
0,62,0,5
0,44,0,0
0,61,127,0
0,36,127,0
0,44,127,0
0,44,0,120
0,36,0,0
0,44,127,0
0,44,0,120
0,58,127,0
0,44,127,0
0,44,0,120
0,44,127,0
0,58,0,115
0,61,0,5
0,44,0,0
0,58,127,0
0,44,127,0
0,36,127,0
0,58,0,115
0,44,0,5
0,36,0,0
0,44,127,0
0,58,127,0
0,58,0,115
0,44,0,5
0,82,127,0
0,94,127,0
0,58,127,0
0,44,127,0
0,61,127,0
0,44,0,120
0,44,127,0
0,58,0,115
0,44,0,5
0,58,127,0
0,36,127,0
0,44,127,0
0,58,0,115
0,94,0,0
0,82,0,0
0,36,0,5
0,44,0,0
0,58,127,0
0,44,127,0
0,58,0,115
0,61,0,5
0,44,0,0
0,58,127,0
0,44,127,0
0,61,127,0
0,82,127,0
0,94,127,0
0,44,0,120
0,44,127,0
0,58,0,115
0,44,0,5
0,44,127,0
0,36,127,0
0,77,0,116
0,36,0,4
0,44,0,0
0,73,0,0
0,44,127,0
0,70,0,8
0,61,0,112
0,44,0,0
0,58,127,0
0,44,127,0
0,44,0,120
0,44,127,0
0,94,0,32
0,82,0,23
0,58,0,19
0,44,0,5
0,73,127,0
0,44,127,0
0,58,127,0
0,78,127,0
0,36,127,0
0,61,127,0
0,70,127,0
0,58,0,115
0,44,0,5
0,36,0,0
0,58,127,0
0,44,127,0
0,58,0,115
0,44,0,5
0,44,127,0
0,58,127,0
0,44,0,120
0,44,127,0
0,58,0,115
0,44,0,5
0,44,127,0
0,58,127,0
0,36,127,0
0,58,0,115
0,36,0,5
0,44,0,0
0,58,127,0
0,44,127,0
0,58,0,115
0,61,0,5
0,44,0,0
0,44,127,0
0,58,127,0
0,62,127,0
0,44,0,120
0,44,127,0
0,58,0,19
0,62,0,5
0,44,0,0
0,61,127,0
0,36,127,0
0,44,127,0
0,58,127,0
0,58,0,115
0,44,0,5
0,36,0,0
0,44,127,0
0,58,127,0
0,58,0,115
0,44,0,5
0,58,127,0
0,44,127,0
0,44,0,120
0,44,127,0
0,58,0,115
0,44,0,5
0,36,127,0
0,44,127,0
0,44,0,120
0,36,0,0
0,44,127,0
0,44,0,120
0,61,0,0
0,44,127,0
0,58,127,0
0,62,127,0
0,44,0,120
0,44,127,0
0,58,0,115
0,62,0,5
0,44,0,0
0,44,127,0
0,56,127,0
0,36,127,0
0,61,127,0
0,56,0,115
0,36,0,5
0,44,0,0
0,44,127,0
0,55,127,0
0,55,0,115
0,44,0,5
0,44,127,0
0,54,127,0
0,54,0,115
0,44,0,5
0,44,127,0
0,53,127,0
0,53,0,115
0,61,0,5
0,44,0,0
0,36,127,0
0,44,127,0
0,52,127,0
0,52,0,115
0,36,0,5
0,44,0,0
0,44,127,0
0,51,127,0
0,51,0,115
0,44,0,5
0,82,127,0
0,61,127,0
0,44,127,0
0,50,127,0
0,94,127,0
0,50,0,115
0,44,0,5
0,44,127,0
0,49,127,0
0,49,0,115
0,44,0,5
0,44,127,0
0,36,127,0
0,48,127,0
0,82,0,51
0,94,0,10
0,48,0,54
0,44,0,5
0,36,0,0
0,44,127,0
0,47,127,0
0,47,0,115
0,61,0,5
0,44,0,0
0,46,127,0
0,94,127,0
0,82,127,0
0,44,127,0
0,61,127,0
0,46,0,115
0,44,0,5
0,46,127,0
0,44,127,0
0,46,0,115
0,44,0,5
0,58,127,0
0,44,127,0
0,36,127,0
0,78,0,32
0,73,0,12
0,70,0,36
0,44,0,40
0,36,0,0
0,44,127,0
0,58,0,115
0,61,0,5
0,44,0,0
0,44,127,0
0,58,127,0
0,94,0,41
0,82,0,24
0,44,0,55
0,44,127,0
0,58,0,31
0,44,0,0
0,36,127,0
0,44,127,0
0,75,127,0
0,61,127,0
0,58,127,0
0,78,127,0
0,70,127,0
0,58,0,115
0,44,0,5
0,36,0,0
0,58,127,0
0,44,127,0
0,58,0,115
0,44,0,5
0,58,127,0
0,44,127,0
0,44,0,120
0,44,127,0
0,58,0,115
0,44,0,5
0,36,127,0
0,44,127,0
0,44,0,120
0,36,0,0
0,44,127,0
0,44,0,120
0,61,0,0
0,62,127,0
0,58,127,0
0,44,127,0
0,44,0,120
0,44,127,0
0,58,0,115
0,62,0,5
0,44,0,0
0,36,127,0
0,58,127,0
0,44,127,0
0,61,127,0
0,58,0,103
0,44,0,5
0,36,0,0
0,58,127,0
0,44,127,0
0,58,0,115
0,44,0,5
0,44,127,0
0,58,127,0
0,44,0,120
0,44,127,0
0,58,0,115
0,44,0,5
0,36,127,0
0,44,127,0
0,44,0,120
0,36,0,0
0,44,127,0
0,44,0,120
0,61,0,0
0,62,127,0
0,58,127,0
0,44,127,0
0,44,0,120
