track,note,velocity,time
1,44,100,6912
1,32,100,0
1,42,100,0
1,30,100,0
1,37,100,0
1,25,100,0
1,44,100,0
1,32,100,0
1,42,100,0
1,30,100,0
1,37,100,0
1,25,100,0
1,44,100,0
1,32,100,0
1,44,100,48
1,32,100,0
1,42,100,0
1,30,100,0
1,25,100,0
1,37,100,0
1,44,100,0
1,32,100,0
1,44,100,0
1,32,100,0
1,30,100,0
1,42,100,0
1,25,100,0
1,37,100,0
1,44,100,0
1,32,100,0
1,44,100,0
1,32,100,0
1,30,100,0
1,42,100,0
1,25,100,0
1,37,100,0
1,44,100,0
1,32,100,0
1,42,100,0
1,30,100,0
1,25,100,24
1,37,100,0
1,39,100,0
1,27,100,0
1,44,100,0
1,32,100,0
1,43,100,0
1,31,100,0
1,42,100,0
1,30,100,0
1,35,100,24
1,47,100,0
1,46,100,0
1,34,100,0
1,44,100,0
1,32,100,0
1,43,100,0
1,31,100,0
1,42,100,0
1,30,100,0
1,47,100,24
1,35,100,0
1,46,100,0
1,34,100,0
1,42,100,0
1,30,100,0
1,44,100,24
1,32,100,0
1,42,100,0
1,30,100,0
1,37,100,24
1,25,100,0
1,32,100,0
1,44,100,0
1,44,100,0
1,32,100,0
1,42,100,0
1,30,100,0
1,25,100,0
1,37,100,0
1,44,100,0
1,32,100,0
1,44,100,0
1,32,100,0
1,42,100,0
1,30,100,0
1,25,100,0
1,37,100,0
1,44,100,0
1,32,100,0
1,44,100,0
1,32,100,0
1,30,100,0
1,42,100,0
1,25,100,0
1,37,100,0
1,44,100,0
1,32,100,0
1,42,100,0
1,30,100,0
1,25,100,24
1,37,100,0
1,39,100,0
1,27,100,0
1,44,100,0
1,32,100,0
1,43,100,0
1,31,100,0
1,42,100,0
1,30,100,0
1,35,100,24
1,47,100,0
1,46,100,0
1,34,100,0
1,44,100,0
1,32,100,0
1,43,100,0
1,31,100,0
1,42,100,0
1,30,100,0
1,35,100,24
1,47,100,0
1,46,100,0
1,34,100,0
1,44,100,0
1,32,100,0
1,43,100,0
1,31,100,0
1,42,100,0
1,30,100,0
1,47,100,24
1,35,100,0
1,46,100,0
1,34,100,0
1,42,100,0
1,30,100,0
1,44,100,24
1,32,100,0
1,42,100,0
1,30,100,0
1,37,100,24
1,25,100,0
1,44,100,0
1,32,100,0
1,42,100,24
1,30,100,0
1,25,100,24
1,37,100,0
1,44,100,24
1,32,100,0
1,44,100,0
1,32,100,0
1,44,100,0
1,32,100,0
1,44,100,0
1,32,100,0
1,44,100,0
1,32,100,0
1,44,100,0
1,32,100,0
1,44,100,0
1,32,100,0
1,44,100,0
1,32,100,0
1,44,100,0
1,32,100,0
1,44,100,0
1,32,100,0
1,44,100,0
1,32,100,0
1,44,100,0
1,32,100,0
1,44,100,0
1,32,100,0
1,44,100,0
1,32,100,0
1,44,100,0
1,32,100,0
1,32,100,0
2,44,100,6912
2,32,100,0
2,42,100,0
2,30,100,0
2,37,100,0
2,25,100,0
2,44,100,0
2,32,100,0
2,42,100,0
2,30,100,0
2,37,100,0
2,25,100,0
2,44,100,0
2,32,100,0
2,44,100,72
2,32,100,0
2,42,100,0
2,30,100,0
2,25,100,0
2,37,100,0
2,44,100,0
2,32,100,0
2,44,100,48
2,32,100,0
2,30,100,0
2,42,100,0
2,25,100,0
2,37,100,0
2,44,100,0
2,32,100,0
2,44,100,0
2,32,100,0
2,30,100,0
2,42,100,0
2,25,100,0
2,37,100,0
2,44,100,0
2,32,100,0
2,42,100,0
2,30,100,0
2,25,100,24
2,37,100,0
2,39,100,0
2,27,100,0
2,44,100,24
2,32,100,0
2,43,100,0
2,31,100,0
2,42,100,0
2,30,100,0
2,35,100,24
2,47,100,0
2,46,100,0
2,34,100,0
2,44,100,0
2,32,100,0
2,43,100,0
2,31,100,0
2,42,100,0
2,30,100,0
2,47,100,24
2,35,100,0
2,46,100,0
2,34,100,0
2,42,100,0
2,30,100,0
2,44,100,24
2,32,100,0
2,42,100,0
2,30,100,0
2,37,100,24
2,25,100,0
2,32,100,0
2,44,100,0
2,44,100,0
2,32,100,0
2,42,100,0
2,30,100,0
2,25,100,0
2,37,100,0
2,44,100,0
2,32,100,0
2,44,100,48
2,32,100,0
2,42,100,0
2,30,100,0
2,25,100,0
2,37,100,0
2,44,100,0
2,32,100,0
2,44,100,48
2,32,100,0
2,30,100,0
2,42,100,0
2,25,100,0
2,37,100,0
2,44,100,0
2,32,100,0
2,42,100,0
2,30,100,0
2,25,100,24
2,37,100,0
2,39,100,0
2,27,100,0
2,44,100,24
2,32,100,0
2,43,100,0
2,31,100,0
2,42,100,0
2,30,100,0
2,35,100,24
2,47,100,0
2,46,100,0
2,34,100,0
2,44,100,0
2,32,100,0
2,43,100,0
2,31,100,0
2,42,100,0
2,30,100,0
2,35,100,24
2,47,100,0
2,46,100,0
2,34,100,0
2,44,100,0
2,32,100,0
2,43,100,0
2,31,100,0
2,42,100,0
2,30,100,0
2,47,100,24
2,35,100,0
2,46,100,0
2,34,100,0
2,42,100,0
2,30,100,0
2,44,100,24
2,32,100,0
2,42,100,0
2,30,100,0
2,37,100,24
2,25,100,0
2,44,100,0
2,32,100,0
2,42,100,0
2,30,100,0
2,25,100,24
2,37,100,0
2,44,100,0
2,32,100,0
2,44,100,48
2,32,100,0
2,44,100,0
2,32,100,0
2,44,100,0
2,32,100,0
2,44,100,0
2,32,100,0
2,44,100,0
2,32,100,0
2,44,100,0
2,32,100,0
2,44,100,0
2,32,100,0
2,44,100,0
2,32,100,0
2,44,100,0
2,32,100,0
2,44,100,0
2,32,100,0
2,44,100,0
2,32,100,0
2,44,100,0
2,32,100,0
2,44,100,0
2,32,100,0
2,44,100,0
2,32,100,0
2,32,100,0
3,68,100,16128
3,66,100,48
3,65,100,48
3,63,100,48
3,61,100,24
3,63,100,24
3,68,100,72
3,66,100,48
3,65,100,48
3,63,100,48
3,61,100,24
3,63,100,24
3,68,100,48
3,70,100,24
3,71,100,24
3,70,100,0
3,71,100,24
3,73,100,24
3,71,100,0
3,73,100,0
3,75,100,0
3,68,100,72
3,70,100,24
3,71,100,24
3,70,100,0
3,71,100,24
3,73,100,24
3,71,100,0
3,73,100,0
3,75,100,0
3,77,100,0
3,78,100,0
3,77,100,48
3,75,100,24
3,73,100,24
3,75,100,48
3,71,100,48
3,68,100,0
3,63,80,0
3,73,100,0
3,70,100,0
3,75,100,0
3,71,100,0
3,75,100,24
3,71,100,0
3,67,80,0
3,73,100,0
3,70,100,0
3,66,80,0
3,75,100,0
3,71,100,0
3,66,80,0
3,76,100,0
3,73,100,0
3,78,100,0
3,75,100,0
3,78,100,0
3,75,100,0
3,70,80,0
3,76,100,0
3,73,100,0
3,75,100,0
3,71,100,0
3,71,100,24
3,68,100,0
3,63,80,0
3,73,100,0
3,70,100,0
3,75,100,0
3,71,100,0
3,75,100,24
3,71,100,0
3,67,80,0
3,73,100,0
3,70,100,0
3,66,80,0
3,75,100,0
3,71,100,0
3,66,80,0
3,76,100,0
3,73,100,0
3,78,100,0
3,75,100,0
3,78,100,24
3,75,100,0
3,70,80,0
3,80,100,0
3,76,100,0
3,66,80,0
3,82,100,0
3,78,100,0
3,83,100,0
3,80,100,0
3,75,80,0
3,82,100,48
3,78,100,0
3,73,80,0
3,80,100,48
3,77,100,0
3,73,80,0
3,56,100,0
3,68,100,0
3,66,100,24
3,65,100,0
3,63,100,48
3,61,100,0
3,63,100,24
3,68,100,48
3,66,100,48
3,65,100,48
3,63,100,48
3,61,100,0
3,63,100,24
3,68,100,48
3,70,100,72
3,71,100,48
3,70,100,0
3,71,100,24
3,73,100,48
3,71,100,0
3,73,100,0
3,75,100,48
3,77,100,48
3,78,100,48
3,77,100,0
3,78,100,0
3,77,100,24
3,75,100,48
3,73,100,0
3,75,100,48
3,71,100,48
3,68,100,0
3,63,80,0
3,73,100,0
3,70,100,0
3,75,100,0
3,71,100,0
3,75,100,24
3,71,100,0
3,67,80,0
3,73,100,0
3,70,100,0
3,66,80,0
3,75,100,0
3,71,100,0
3,66,80,0
3,76,100,0
3,73,100,0
3,78,100,0
3,75,100,0
3,78,100,0
3,75,100,0
3,70,80,0
3,76,100,0
3,73,100,0
3,75,100,0
3,71,100,0
3,71,100,24
3,68,100,0
3,63,80,0
3,73,100,0
3,70,100,0
3,75,100,0
3,71,100,0
3,75,100,24
3,71,100,0
3,67,80,0
3,73,100,0
3,70,100,0
3,66,80,0
3,75,100,0
3,71,100,0
3,66,80,0
3,76,100,0
3,73,100,0
3,78,100,0
3,75,100,0
3,78,100,0
3,75,100,0
3,70,80,0
3,76,100,0
3,73,100,0
3,75,100,0
3,71,100,0
3,71,100,24
3,68,100,0
3,63,80,0
3,73,100,0
3,70,100,0
3,75,100,0
3,71,100,0
3,75,100,24
3,71,100,0
3,67,80,0
3,73,100,0
3,70,100,0
3,66,80,0
3,75,100,0
3,71,100,0
3,66,80,0
3,76,100,0
3,73,100,0
3,78,100,0
3,75,100,0
3,78,100,24
3,75,100,0
3,70,80,0
3,80,100,0
3,76,100,0
3,66,80,0
3,82,100,0
3,78,100,0
3,83,100,0
3,80,100,0
3,75,80,0
3,82,100,0
3,78,100,0
3,73,80,0
3,80,100,0
3,77,100,0
3,73,80,0
3,68,100,0
3,66,100,72
3,65,100,72
3,63,100,48
3,61,100,0
3,63,100,48
3,64,80,72
3,68,100,0
3,67,100,48
3,63,80,0
3,66,100,48
3,62,80,0
3,61,80,48
3,65,100,0
3,60,80,48
3,64,100,0
3,63,100,48
3,59,80,0
3,58,80,48
3,62,100,0
3,57,80,48
3,61,100,0
3,56,80,48
3,60,100,0
3,64,100,48
3,60,80,0
3,56,80,0
3,63,100,48
3,59,80,0
3,56,80,0
3,58,80,48
3,62,100,0
3,56,80,0
3,61,100,48
3,57,80,0
3,49,80,0
3,56,80,48
3,60,100,0
3,51,80,0
3,60,100,0
3,56,80,0
3,51,80,0
4,68,100,16128
4,66,100,48
4,65,100,48
4,63,100,48
4,61,100,24
4,63,100,24
4,68,100,72
4,66,100,48
4,65,100,48
4,63,100,48
4,61,100,24
4,63,100,24
4,68,100,48
4,70,100,24
4,71,100,24
4,70,100,0
4,71,100,24
4,73,100,24
4,71,100,0
4,73,100,0
4,75,100,0
4,68,100,72
4,70,100,24
4,71,100,24
4,70,100,0
4,71,100,24
4,73,100,24
4,71,100,0
4,73,100,0
4,75,100,0
4,77,100,0
4,78,100,0
4,77,100,48
4,75,100,24
4,73,100,24
4,75,100,48
4,71,100,48
4,68,100,0
4,63,80,0
4,73,100,0
4,70,100,0
4,75,100,0
4,71,100,0
4,75,100,24
4,71,100,0
4,67,80,0
4,73,100,0
4,70,100,0
4,66,80,0
4,75,100,0
4,71,100,0
4,66,80,0
4,76,100,0
4,73,100,0
4,78,100,0
4,75,100,0
4,78,100,0
4,75,100,0
4,70,80,0
4,76,100,0
4,73,100,0
4,75,100,0
4,71,100,0
4,71,100,24
4,68,100,0
4,63,80,0
4,73,100,0
4,70,100,0
4,75,100,0
4,71,100,0
4,75,100,24
4,71,100,0
4,67,80,0
4,73,100,0
4,70,100,0
4,66,80,0
4,75,100,0
4,71,100,0
4,66,80,0
4,76,100,0
4,73,100,0
4,78,100,0
4,75,100,0
4,78,100,24
4,75,100,0
4,70,80,0
4,80,100,0
4,76,100,0
4,66,80,0
4,82,100,0
4,78,100,0
4,83,100,0
4,80,100,0
4,75,80,0
4,82,100,48
4,78,100,0
4,73,80,0
4,80,100,48
4,77,100,0
4,73,80,0
4,56,100,0
4,68,100,0
4,66,100,24
4,65,100,0
4,63,100,48
4,61,100,0
4,63,100,24
4,68,100,48
4,66,100,48
4,65,100,48
4,63,100,48
4,61,100,0
4,63,100,24
4,68,100,48
4,70,100,72
4,71,100,48
4,70,100,0
4,71,100,24
4,73,100,48
4,71,100,0
4,73,100,0
4,75,100,48
4,77,100,48
4,78,100,48
4,77,100,0
4,78,100,0
4,77,100,24
4,75,100,48
4,73,100,0
4,75,100,48
4,68,100,24648
4,66,100,72
4,65,100,72
4,63,100,48
4,61,100,0
4,63,100,48
4,68,100,72
4,67,100,48
4,66,100,48
4,65,100,48
4,64,100,48
4,63,100,48
4,62,100,48
4,61,100,48
4,60,100,48
4,64,100,48
4,63,100,48
4,62,100,48
4,61,100,48
4,56,100,48
4,60,100,0
4,51,100,0
4,60,100,0
4,56,100,0
4,51,100,0
5,51,127,102528
5,56,127,0
5,51,127,32
5,56,127,32
5,59,127,32
5,63,127,32
5,56,127,32
5,59,127,32
5,63,127,32
5,68,127,32
5,63,127,32
5,68,127,32
5,70,127,32
5,71,127,32
5,75,127,32
5,79,127,32
5,80,127,32
5,82,127,48
5,83,127,0
5,82,127,48
5,80,127,48
5,78,127,24
5,78,127,48
5,80,127,24
5,78,127,0
5,78,127,48
5,80,127,24
5,78,127,0
5,76,127,24
5,75,127,32
5,73,127,32
5,63,127,168
5,68,127,24
5,70,127,24
5,71,127,24
5,75,127,24
5,73,127,24
5,71,127,24
5,70,127,24
5,68,127,24
5,70,127,24
5,71,127,984
5,78,127,24
5,85,127,24
5,82,127,24
5,83,127,24
5,71,127,48
5,75,127,48
5,80,127,48
5,82,127,48
5,80,127,6
5,82,127,24
5,83,127,72
5,78,127,24
5,75,127,24
5,71,127,24
5,66,127,48
5,75,127,24
5,71,127,32
5,73,127,8
5,78,127,24
5,75,127,8
5,66,127,32
5,66,127,152
5,63,127,32
5,66,127,32
5,62,127,32
5,63,127,32
5,66,127,32
5,66,127,48
5,63,127,32
5,75,127,192
5,74,127,6
5,75,127,24
5,74,127,24
5,75,127,72
5,74,127,6
5,75,127,24
5,83,127,120
5,82,127,24
5,80,127,24
5,83,127,24
5,82,127,24
5,80,127,24
5,83,127,24
5,82,127,24
5,80,127,0
5,78,127,48
5,77,127,24
5,75,127,24
5,73,127,24
5,71,127,24
5,70,127,24
5,68,127,24
6,51,127,102528
6,56,127,0
6,51,127,32
6,56,127,32
6,59,127,32
6,63,127,32
6,56,127,32
6,59,127,32
6,63,127,32
6,68,127,32
6,63,127,32
6,68,127,32
6,70,127,32
6,71,127,32
6,75,127,32
6,79,127,32
6,80,127,32
6,82,127,48
6,83,127,0
6,82,127,48
6,80,127,48
6,78,127,24
6,78,127,48
6,80,127,24
6,78,127,0
6,78,127,48
6,80,127,24
6,78,127,0
6,76,127,24
6,75,127,32
6,73,127,32
6,63,127,168
6,68,127,24
6,70,127,24
6,71,127,24
6,75,127,24
6,73,127,24
6,71,127,24
6,70,127,24
6,68,127,24
6,70,127,24
6,71,127,984
6,78,127,24
6,85,127,24
6,82,127,24
6,83,127,24
6,71,127,48
6,75,127,48
6,80,127,48
6,82,127,48
6,80,127,6
6,82,127,24
6,83,127,72
6,78,127,24
6,75,127,24
6,71,127,24
6,66,127,48
6,75,127,24
6,71,127,32
6,73,127,8
6,78,127,24
6,75,127,8
6,66,127,32
6,66,127,152
6,63,127,32
6,66,127,32
6,62,127,32
6,63,127,32
6,66,127,32
6,66,127,48
6,63,127,32
6,75,127,192
6,74,127,6
6,75,127,24
6,74,127,24
6,75,127,72
6,74,127,6
6,75,127,24
6,83,127,120
6,82,127,24
6,80,127,24
6,83,127,24
6,82,127,24
6,80,127,24
6,83,127,24
6,82,127,24
6,80,127,0
6,78,127,48
6,77,127,24
6,75,127,24
6,73,127,24
6,71,127,24
6,70,127,24
6,68,127,24
7,41,80,73056
7,41,100,48
7,47,60,144
7,47,70,48
7,47,80,48
7,47,90,48
7,41,60,168
7,41,90,48
7,72,127,46
7,88,127,0
7,37,100,432
7,37,100,48
7,43,90,528
7,43,90,120
7,48,100,312
7,48,100,72
7,76,127,72
7,76,127,48
7,76,127,48
7,36,80,48
7,36,80,48
7,36,80,336
7,36,80,48
7,40,100,48
7,40,100,48
7,33,100,48
7,33,100,48
7,33,100,48
7,84,80,144
7,84,110,32
7,84,110,48
7,84,120,48
7,43,100,416
7,43,100,120
7,43,100,216
7,34,100,48
