track,note,velocity,time
1,31,80,7170
1,36,80,6
1,34,80,406
1,36,80,26
1,31,80,378
1,34,80,140
1,31,80,10
1,36,80,6
1,34,80,406
1,36,80,26
1,36,80,42
1,34,80,148
1,31,80,10
1,36,80,6
1,34,80,406
1,36,80,26
1,31,80,378
1,34,80,140
1,31,80,10
1,36,80,6
1,34,80,406
1,36,80,26
1,36,80,50
1,34,80,140
1,31,80,10
1,36,80,6
1,34,80,406
1,36,80,26
1,31,80,378
1,34,80,140
1,31,80,10
1,36,80,6
1,34,80,406
1,36,80,26
1,36,80,34
1,34,80,0
1,31,80,10
1,36,100,6
1,34,80,406
1,36,80,26
1,31,80,378
1,34,80,140
1,31,80,10
1,36,80,6
1,34,80,406
1,36,80,26
1,36,80,34
1,34,80,0
1,31,80,10
1,36,80,6
1,34,80,406
1,36,80,26
1,31,80,378
1,34,80,140
1,31,80,10
1,38,80,6
1,36,80,406
1,38,80,26
1,38,80,34
1,36,80,0
1,33,80,10
1,38,80,6
1,36,80,406
1,38,80,206
1,38,80,26
1,36,80,148
1,33,80,234
1,41,80,84
1,39,80,318
1,36,80,208
1,41,80,48
1,39,80,128
1,36,80,228
1,41,80,192
1,39,80,128
1,36,80,16
1,36,80,48
1,39,80,128
1,36,80,16
1,36,80,8
1,34,80,406
1,36,80,26
1,31,80,378
1,34,80,140
1,31,80,10
1,36,80,6
1,34,80,406
1,36,80,206
1,36,80,50
1,34,80,140
1,31,80,88
1,34,80,100
1,36,80,8
1,34,80,406
1,36,80,26
1,31,80,378
1,34,80,140
1,31,80,10
1,36,80,6
1,34,80,406
1,36,80,26
1,36,80,42
1,34,80,148
1,31,80,10
1,38,80,6
1,36,80,406
1,38,80,206
1,38,80,26
1,36,80,148
1,33,80,234
1,38,80,0
1,36,80,406
1,38,80,26
1,38,80,34
1,36,80,0
1,33,80,10
1,41,80,6
1,39,80,384
1,36,80,208
1,41,80,48
1,39,80,128
1,36,80,0
1,41,80,64
1,39,80,128
1,36,80,64
1,39,80,96
1,36,80,88
1,34,80,64
1,31,80,88
1,34,80,8
1,31,80,48
1,34,80,96
1,36,80,24
1,34,80,406
1,36,80,26
1,31,80,378
1,34,80,140
1,31,80,10
1,36,80,6
1,34,80,406
1,36,80,26
1,36,80,42
1,34,80,148
1,31,80,10
1,36,80,6
1,34,80,406
1,36,80,26
1,31,80,378
1,34,80,140
1,31,80,10
1,36,80,6
1,34,80,406
1,36,80,26
1,36,80,42
1,34,80,148
1,31,80,10
1,38,80,6
1,36,80,406
1,38,80,206
1,38,80,26
1,36,80,148
1,33,80,234
1,38,80,0
1,36,80,406
1,38,80,26
1,38,80,34
1,36,80,0
1,33,80,10
1,41,80,6
1,39,80,384
1,36,80,208
1,41,80,48
1,39,80,128
1,36,80,0
1,36,80,0
1,41,80,64
1,39,80,128
1,36,80,64
1,39,80,96
1,36,80,88
1,34,80,64
1,31,80,88
1,34,80,8
1,31,80,48
1,34,80,96
1,36,80,24
1,34,80,406
1,36,80,26
1,31,80,42
1,34,80,148
1,31,80,10
1,36,80,6
1,34,80,406
1,36,80,206
1,36,80,42
1,34,80,148
1,31,80,6
1,38,80,6
1,36,80,406
1,38,80,206
1,38,80,66
1,36,80,148
1,33,80,234
1,38,80,0
1,36,80,406
1,38,80,26
1,38,80,34
1,36,80,0
1,33,80,10
1,41,80,6
1,39,80,384
1,36,80,208
1,41,80,48
1,39,80,128
1,36,80,228
1,41,80,192
1,39,80,128
1,36,80,16
1,36,80,48
1,39,80,128
1,36,80,16
1,36,80,8
1,34,80,406
1,36,80,26
1,31,80,42
1,34,80,148
1,31,80,10
1,36,80,6
1,34,80,406
1,36,80,206
1,36,80,42
1,34,80,148
1,31,80,6
1,38,80,6
1,36,80,406
1,38,80,206
1,38,80,66
1,36,80,148
1,33,80,234
1,38,80,0
1,36,80,406
1,38,80,26
1,38,80,34
1,36,80,0
1,33,80,10
1,41,80,6
1,39,80,384
1,36,80,208
1,41,80,48
1,39,80,128
1,36,80,0
1,36,80,0
1,41,80,64
1,39,80,128
1,36,80,64
1,39,80,96
1,36,80,88
1,34,80,64
1,31,80,88
1,34,80,8
1,31,80,48
1,34,80,96
1,36,80,24
1,34,80,406
1,36,80,26
1,31,80,42
1,34,80,148
1,31,80,10
1,36,80,6
1,34,80,406
1,36,80,206
1,36,80,42
1,34,80,148
1,31,80,6
1,38,80,6
1,36,80,406
1,38,80,206
1,38,80,66
1,36,80,148
1,33,80,234
1,38,80,0
1,36,80,406
1,38,80,26
1,38,80,34
1,36,80,0
1,33,80,10
1,41,80,6
1,39,80,384
1,36,80,208
1,41,80,48
1,39,80,128
1,36,80,0
1,36,80,0
1,41,80,64
1,39,80,128
1,36,80,64
1,39,80,96
1,36,80,88
1,34,80,64
1,31,80,88
1,34,80,8
1,31,80,48
1,34,80,96
1,36,80,24
1,34,80,406
1,36,80,26
1,36,80,34
1,34,80,0
1,31,80,10
1,36,100,6
1,34,80,406
1,36,80,26
1,31,80,378
1,34,80,140
1,31,80,10
1,36,80,6
1,34,80,406
1,36,80,26
1,36,80,34
1,34,80,0
1,31,80,10
1,36,80,6
1,34,80,406
1,36,80,26
1,31,80,378
1,34,80,140
1,31,80,10
1,38,80,6
1,36,80,406
1,38,80,26
1,38,80,34
1,36,80,0
1,33,80,10
1,38,80,6
1,36,80,406
1,38,80,206
1,38,80,26
1,36,80,148
1,33,80,234
1,41,80,84
1,39,80,318
1,36,80,208
1,41,80,48
1,39,80,128
1,36,80,228
1,41,80,192
1,39,80,128
1,36,80,16
1,36,80,48
1,39,80,128
1,36,80,16
1,36,80,8
1,34,80,406
1,36,80,26
1,31,80,378
1,34,80,140
1,31,80,10
1,36,80,6
1,34,80,406
1,36,80,206
1,36,80,42
1,34,80,148
1,31,80,96
1,34,80,102
1,36,80,6
1,34,80,406
1,36,80,26
1,31,80,378
1,34,80,140
1,31,80,10
1,36,80,6
1,34,80,406
1,36,80,26
1,36,80,42
1,34,80,148
1,31,80,10
1,38,80,6
1,36,80,406
1,38,80,206
1,38,80,26
1,36,80,148
1,33,80,234
1,38,80,0
1,36,80,406
1,38,80,26
1,38,80,34
1,36,80,0
1,33,80,10
1,41,80,6
1,39,80,384
1,36,80,208
1,41,80,48
1,39,80,128
1,36,80,0
1,41,80,64
1,39,80,128
1,36,80,64
1,39,80,96
1,36,80,88
1,34,80,64
1,31,80,88
1,34,80,8
1,31,80,48
1,34,80,96
1,36,80,24
1,34,80,406
1,36,80,26
1,31,80,378
1,34,80,140
1,31,80,10
1,36,80,6
1,34,80,406
1,36,80,26
1,36,80,42
1,34,80,148
1,31,80,10
1,36,80,6
1,34,80,406
1,36,80,206
1,36,80,42
1,34,80,148
1,31,80,96
1,34,80,102
1,36,80,6
1,34,80,406
1,36,80,26
1,36,80,42
1,34,80,148
1,31,80,10
1,38,80,6
1,36,80,406
1,38,80,206
1,38,80,26
1,36,80,148
1,33,80,234
1,38,80,0
1,36,80,406
1,38,80,26
1,38,80,34
1,36,80,0
1,33,80,10
1,41,80,6
1,39,80,384
1,36,80,208
1,41,80,48
1,39,80,128
1,36,80,0
1,36,80,0
1,41,80,64
1,39,80,128
1,36,80,64
1,39,80,96
1,36,80,88
1,34,80,64
1,31,80,88
1,34,80,8
1,31,80,48
1,34,80,96
1,36,80,24
1,34,80,406
1,36,80,26
1,31,80,42
1,34,80,148
1,31,80,10
1,36,80,6
1,34,80,406
1,36,80,206
1,36,80,42
1,34,80,148
1,31,80,6
1,38,80,6
1,36,80,406
1,38,80,206
1,38,80,66
1,36,80,148
1,33,80,234
1,38,80,0
1,36,80,406
1,38,80,26
1,38,80,34
1,36,80,0
1,33,80,10
1,41,80,6
1,39,80,384
1,36,80,208
1,41,80,48
1,39,80,128
1,36,80,228
1,41,80,192
1,39,80,128
1,36,80,16
1,36,80,48
1,39,80,128
1,36,80,16
1,36,80,8
1,34,80,406
1,36,80,26
1,31,80,42
1,34,80,148
1,31,80,10
1,36,80,6
1,34,80,406
1,36,80,206
1,36,80,42
1,34,80,148
1,31,80,6
1,38,80,6
1,36,80,406
1,38,80,206
1,38,80,66
1,36,80,148
1,33,80,234
1,38,80,0
1,36,80,406
1,38,80,26
1,38,80,34
1,36,80,0
1,33,80,10
1,41,80,6
1,39,80,384
1,36,80,208
1,41,80,48
1,39,80,128
1,36,80,0
1,36,80,0
1,41,80,64
1,39,80,128
1,36,80,64
1,39,80,96
1,36,80,88
1,34,80,64
1,31,80,88
1,34,80,8
1,31,80,48
1,34,80,96
1,36,80,24
1,34,80,406
1,36,80,26
1,31,80,42
1,34,80,148
1,31,80,10
1,36,80,6
1,34,80,406
1,36,80,206
1,36,80,42
1,34,80,148
1,31,80,6
1,38,80,6
1,36,80,406
1,38,80,206
1,38,80,66
1,36,80,148
1,33,80,234
1,38,80,0
1,36,80,406
1,38,80,26
1,38,80,34
1,36,80,0
1,33,80,10
1,41,80,6
1,39,80,384
1,36,80,208
1,41,80,48
1,39,80,128
1,36,80,228
1,41,80,192
1,39,80,128
1,36,80,16
1,36,80,48
1,39,80,128
1,36,80,16
1,36,80,8
1,34,80,406
1,36,80,26
1,31,80,42
1,34,80,148
1,31,80,10
1,36,80,6
1,34,80,406
1,36,80,206
1,36,80,42
1,34,80,148
1,31,80,6
1,38,80,6
1,36,80,406
1,38,80,206
1,38,80,66
1,36,80,148
1,33,80,234
1,38,80,0
1,36,80,406
1,38,80,26
1,38,80,34
1,36,80,0
1,33,80,10
1,41,80,6
1,39,80,384
1,36,80,208
1,41,80,48
1,39,80,128
1,36,80,0
1,36,80,0
1,41,80,64
1,39,80,128
1,36,80,64
1,39,80,96
1,36,80,88
1,34,80,64
1,31,80,88
1,34,80,8
1,31,80,48
1,34,80,96
1,36,80,24
1,34,80,406
1,36,80,26
1,31,80,42
1,34,80,148
1,31,80,10
1,36,80,6
1,34,80,406
1,36,80,206
1,36,80,42
1,34,80,148
1,31,80,6
1,38,80,6
1,36,80,406
1,38,80,206
1,38,80,66
1,36,80,148
1,33,80,234
1,38,80,0
1,36,80,406
1,38,80,26
1,38,80,34
1,36,80,0
1,33,80,10
1,41,80,6
1,39,80,384
1,36,80,208
1,41,80,48
1,39,80,128
1,36,80,228
1,41,80,192
1,39,80,128
1,36,80,16
1,36,80,48
1,39,80,128
1,36,80,16
1,36,80,8
1,34,80,406
1,36,80,26
1,31,80,42
1,34,80,148
1,31,80,10
1,36,80,6
1,34,80,406
1,36,80,206
1,36,80,42
1,34,80,148
1,31,80,6
1,38,80,6
1,36,80,406
1,38,80,206
1,38,80,66
1,36,80,148
1,33,80,234
1,38,80,0
1,36,80,406
1,38,80,26
1,38,80,34
1,36,80,0
1,33,80,10
1,41,80,6
1,39,80,384
1,36,80,208
1,41,80,48
1,39,80,128
1,36,80,0
1,36,80,0
1,41,80,64
1,39,80,128
1,36,80,64
1,39,80,96
1,36,80,88
1,34,80,64
1,31,80,88
1,34,80,8
1,31,80,48
1,34,80,48
1,36,80,24
1,34,80,22
1,36,80,26
1,31,80,42
1,34,80,12
1,31,80,10
1,36,80,6
1,34,80,22
1,36,80,62
1,36,80,42
1,34,80,12
1,31,80,6
1,38,80,6
1,36,80,22
1,38,80,62
1,38,80,56
1,36,80,12
1,33,80,66
1,38,80,0
1,36,80,22
1,38,80,26
1,38,80,34
1,36,80,0
1,33,80,10
1,41,80,6
1,39,80,192
1,36,80,64
1,41,80,48
1,39,80,128
1,36,75,0
1,36,70,0
1,41,65,64
1,39,60,128
1,36,55,64
1,39,50,64
1,36,45,88
1,34,40,64
1,31,35,64
1,34,30,8
1,31,25,48
1,34,20,32
2,60,20,128
2,60,15,72
2,60,10,88
2,60,7,80
2,60,5,48
2,60,3,112
2,60,1,84
2,60,55,240
2,60,50,160
2,60,45,158
2,60,40,242
2,60,35,174
2,60,55,270
2,60,50,160
2,60,45,158
2,60,40,242
2,60,35,174
2,60,55,270
2,60,50,160
2,60,45,158
2,60,40,242
2,60,35,174
2,60,55,270
2,60,50,160
2,60,45,158
2,60,40,242
2,60,35,174
2,60,55,270
2,60,50,160
2,60,45,158
2,60,40,242
2,60,35,174
2,60,60,270
2,60,55,160
2,60,50,158
2,60,50,242
2,60,40,174
2,60,60,270
2,60,55,160
2,60,50,158
2,60,50,242
2,60,40,174
2,60,60,270
2,60,55,160
2,60,50,158
2,60,50,242
2,60,40,174
2,60,60,270
2,60,55,160
2,60,50,158
2,60,50,242
2,60,40,174
2,62,60,270
2,62,55,160
2,62,50,158
2,62,50,242
2,62,40,174
2,62,60,270
2,62,55,160
2,62,50,158
2,62,50,242
2,62,40,174
2,60,60,270
2,60,55,160
2,60,50,158
2,60,50,242
2,60,40,174
2,60,60,270
2,60,55,160
2,60,50,158
2,60,50,242
2,60,40,174
2,60,60,270
2,60,55,160
2,60,50,158
2,60,50,242
2,60,40,174
2,60,60,270
2,60,55,160
2,60,50,158
2,60,50,242
2,60,40,174
2,60,60,270
2,60,55,160
2,60,50,158
2,60,50,242
2,60,40,174
2,60,60,270
2,60,55,160
2,60,50,158
2,60,50,242
2,60,40,174
2,62,60,270
2,62,55,160
2,62,50,158
2,62,50,242
2,62,40,174
2,62,60,270
2,62,55,160
2,62,50,158
2,62,50,242
2,62,40,174
2,60,60,270
2,60,55,160
2,60,50,158
2,60,50,242
2,60,40,174
2,60,60,270
2,60,55,160
2,60,50,158
2,60,50,242
2,60,40,174
2,60,60,270
2,60,55,160
2,60,50,158
2,60,50,242
2,60,40,174
2,60,60,270
2,60,55,160
2,60,50,158
2,60,50,242
2,60,40,174
2,60,60,270
2,60,55,160
2,60,50,158
2,60,50,242
2,60,40,174
2,60,60,270
2,60,55,160
2,60,50,158
2,60,50,242
2,60,40,174
2,62,60,270
2,62,55,160
2,62,50,158
2,62,50,242
2,62,40,174
2,62,60,270
2,62,55,160
2,62,50,158
2,62,50,242
2,62,40,174
2,60,60,270
2,60,55,160
2,60,50,158
2,60,50,242
2,60,40,174
2,60,60,270
2,60,55,160
2,60,50,158
2,60,50,242
2,60,40,174
2,60,60,9486
2,60,55,160
2,60,50,158
2,60,50,242
2,60,40,174
2,60,60,270
2,60,55,160
2,60,50,158
2,60,50,242
2,60,40,174
2,62,60,278
2,62,55,152
2,62,50,158
2,62,50,242
2,62,40,174
2,62,60,270
2,62,55,160
2,62,50,158
2,62,50,242
2,62,40,174
2,60,60,270
2,60,55,160
2,60,50,158
2,60,50,242
2,60,40,174
2,60,60,270
2,60,55,160
2,60,50,158
2,60,50,242
2,60,40,174
2,60,60,270
2,60,55,160
2,60,50,158
2,60,50,242
2,60,40,174
2,60,60,270
2,60,55,160
2,60,50,158
2,60,50,242
2,60,40,174
2,62,60,270
2,62,55,160
2,62,50,158
2,62,50,242
2,62,40,174
2,62,60,270
2,62,55,160
2,62,50,158
2,62,50,242
2,62,40,174
2,60,60,270
2,60,55,160
2,60,50,158
2,60,50,242
2,60,40,174
2,60,60,270
2,60,55,160
2,60,50,158
2,60,50,242
2,60,40,174
2,60,60,270
2,60,55,160
2,60,50,158
2,60,50,242
2,60,40,174
2,60,60,270
2,60,55,160
2,60,50,158
2,60,50,242
2,60,40,174
2,60,60,278
2,60,55,152
2,60,50,158
2,60,50,242
2,60,40,174
2,60,60,270
2,60,55,160
2,60,50,158
2,60,50,242
2,60,40,174
2,62,60,270
2,62,55,160
2,62,50,158
2,62,50,242
2,62,40,174
2,62,60,270
2,62,55,160
2,62,50,158
2,62,50,242
2,62,40,174
2,60,60,270
2,60,55,160
2,60,50,158
2,60,50,242
2,60,40,174
2,60,60,270
2,60,55,160
2,60,50,158
2,60,50,242
2,60,40,174
2,60,60,270
2,60,55,160
2,60,50,158
2,60,50,242
2,60,40,174
2,60,60,270
2,60,55,160
2,60,50,158
2,60,50,242
2,60,40,174
2,60,60,270
2,60,55,160
2,60,50,158
2,60,50,242
2,60,40,174
2,60,60,270
2,60,55,160
2,60,50,158
