track,note,velocity,time
1,41,90,384
1,29,90,0
1,41,89,0
1,29,89,0
1,41,89,0
1,29,89,0
1,41,89,0
1,29,89,0
1,41,89,0
1,29,89,0
1,41,89,0
1,29,88,0
1,41,88,0
1,29,88,0
1,41,88,0
1,29,88,0
1,41,88,0
1,29,88,0
1,41,88,0
1,29,88,0
1,41,87,0
1,27,90,0
1,39,90,0
1,26,89,0
1,38,89,0
1,24,88,0
1,36,88,0
1,21,88,0
1,33,88,0
1,29,90,0
1,41,90,0
1,29,90,0
1,41,90,0
1,29,90,0
1,41,90,0
1,29,90,0
1,41,90,0
1,29,90,0
1,41,89,0
1,29,89,0
1,41,89,0
1,29,89,0
1,41,89,0
1,29,89,0
1,41,89,0
1,29,89,0
1,41,89,0
1,29,89,0
1,41,89,0
1,29,89,0
1,41,89,0
1,29,89,0
1,41,89,0
1,29,89,0
1,41,89,0
1,29,89,0
1,41,89,0
1,27,90,0
1,39,90,0
1,26,89,0
1,38,89,0
1,24,88,0
1,36,88,0
1,21,87,0
1,33,87,0
1,29,89,0
1,41,89,0
1,29,89,0
1,41,89,0
1,29,89,0
1,41,89,0
1,29,89,0
1,41,89,0
1,29,89,0
1,41,89,0
1,29,89,0
1,41,89,0
1,29,89,0
1,41,89,0
1,29,89,0
1,41,89,0
1,29,89,0
1,41,89,0
1,29,89,0
1,41,89,0
1,29,89,0
1,41,88,0
1,29,88,0
1,41,88,0
1,29,88,0
1,41,88,0
1,29,88,0
1,41,88,0
1,41,90,0
1,29,90,0
1,41,89,0
1,29,89,0
1,37,88,0
1,25,88,0
1,37,88,0
1,25,88,0
1,26,87,0
1,38,88,0
1,26,88,0
1,38,88,0
1,26,88,0
1,38,88,0
1,26,88,0
1,38,88,0
1,26,88,0
1,38,88,0
1,26,88,0
1,38,88,0
1,26,88,0
1,38,88,0
1,26,88,0
1,38,88,0
1,26,88,0
1,38,88,0
1,26,88,0
1,38,88,0
1,26,88,0
1,38,88,0
1,26,88,0
1,38,88,0
1,26,88,0
1,38,88,0
1,26,88,0
1,38,88,0
1,26,88,0
1,38,88,0
1,26,88,0
1,38,88,0
1,29,88,0
1,41,88,0
1,29,87,0
1,41,87,0
1,29,87,0
1,41,87,0
1,29,87,0
1,41,87,0
1,29,87,0
1,41,87,0
1,29,87,0
1,41,87,0
1,29,87,0
1,41,87,0
1,29,87,0
1,41,87,0
1,29,87,0
1,41,87,0
1,29,87,0
1,41,87,0
1,29,87,0
1,41,87,0
1,29,87,0
1,41,87,0
1,29,87,0
1,41,87,0
1,29,87,0
1,41,87,0
1,41,90,0
1,29,90,0
1,41,89,0
1,29,89,0
1,37,88,0
1,25,88,0
1,37,88,0
1,25,88,0
1,29,90,0
1,41,90,0
1,29,90,0
1,41,90,0
1,29,90,0
1,41,90,0
1,29,90,0
1,41,90,0
1,29,90,0
1,41,90,0
1,29,89,0
1,41,89,0
1,27,89,0
1,39,89,0
1,26,89,0
1,38,89,0
1,24,89,0
1,36,89,0
1,21,89,0
1,33,89,0
1,29,89,0
1,41,89,0
1,29,89,0
1,41,89,0
1,29,89,0
1,41,89,0
1,29,89,0
1,41,89,0
1,29,89,0
1,41,89,0
1,29,89,0
1,41,89,0
1,29,89,0
1,41,89,0
1,29,89,0
1,41,89,0
1,25,89,0
1,37,89,0
1,25,89,0
1,37,89,0
1,26,89,0
1,38,89,0
1,26,89,0
1,38,89,0
1,26,89,0
1,38,89,0
1,26,89,0
1,38,89,0
1,26,89,0
1,38,89,0
1,26,89,0
1,38,89,0
1,26,89,0
1,38,89,0
1,26,89,0
1,38,89,0
1,26,89,0
1,38,89,0
1,26,89,0
1,38,89,0
1,26,89,0
1,38,89,0
1,26,89,0
1,38,89,0
1,26,89,0
1,38,89,0
1,26,89,0
1,38,89,0
1,26,89,0
1,38,88,0
1,26,88,0
1,38,88,0
1,33,88,0
1,45,88,0
1,33,88,0
1,45,88,0
1,33,88,0
1,45,88,0
1,33,88,0
1,45,88,0
1,33,88,0
1,45,88,0
1,33,88,0
1,45,88,0
1,33,88,0
1,45,88,0
1,33,88,0
1,45,88,0
1,31,88,0
1,43,88,0
1,31,88,0
1,43,88,0
1,31,88,0
1,43,88,0
1,31,88,0
1,43,88,0
1,31,88,0
1,43,88,0
1,31,88,0
1,43,88,0
1,31,88,0
1,43,88,0
1,31,88,0
1,43,88,0
1,29,88,0
1,41,88,0
1,29,88,0
1,41,88,0
1,29,88,0
1,41,88,0
1,29,88,0
1,41,88,0
1,29,88,0
1,41,88,0
1,29,88,0
1,41,88,0
1,29,88,0
1,41,88,0
1,29,88,0
1,41,88,0
1,24,87,0
1,36,87,0
1,24,87,0
1,36,87,0
1,24,87,0
1,36,87,0
1,24,87,0
1,36,87,0
1,24,87,0
1,36,87,0
1,24,87,0
1,36,87,0
1,24,87,0
1,36,87,0
1,24,87,0
1,36,87,0
1,24,87,0
1,36,87,0
1,24,87,0
1,36,87,0
1,24,87,0
1,36,87,0
1,24,87,0
1,36,87,0
1,24,87,0
1,36,87,0
1,24,87,0
1,36,87,0
1,24,87,0
1,36,87,0
1,24,87,0
1,36,87,0
1,29,95,0
1,41,95,0
1,29,95,0
1,41,95,0
1,29,95,0
1,41,95,0
1,29,95,0
1,41,95,0
1,29,95,0
1,41,95,0
1,29,95,0
1,41,95,0
1,29,95,0
1,41,95,0
1,29,95,0
1,41,95,0
1,29,95,0
1,41,95,0
1,29,95,0
1,41,95,0
1,29,95,0
1,41,95,0
1,29,95,0
1,41,95,0
1,29,95,0
1,41,95,0
1,29,95,0
1,41,95,0
1,29,95,0
1,41,95,0
1,29,95,0
1,41,95,0
1,26,95,0
1,38,95,0
1,26,95,0
1,38,95,0
1,26,95,0
1,38,95,0
1,26,95,0
1,38,95,0
1,26,95,0
1,38,95,0
1,26,95,0
1,38,95,0
1,26,95,0
1,38,95,0
1,26,95,0
1,38,95,0
1,26,95,0
1,38,95,0
1,26,95,0
1,38,94,0
1,26,94,0
1,38,94,0
1,26,94,0
1,38,94,0
1,26,94,0
1,38,94,0
1,26,94,0
1,38,94,0
1,26,94,0
1,38,94,0
1,26,94,0
1,38,94,0
1,33,94,0
1,45,94,0
1,33,94,0
1,45,94,0
1,33,94,0
1,45,94,0
1,33,94,0
1,45,94,0
1,33,94,0
1,45,94,0
1,33,94,0
1,45,94,0
1,33,94,0
1,45,94,0
1,33,94,0
1,45,94,0
1,31,94,0
1,43,94,0
1,31,94,0
1,43,94,0
1,31,94,0
1,43,94,0
1,31,94,0
1,43,94,0
1,31,94,0
1,43,94,0
1,31,94,0
1,43,94,0
1,31,94,0
1,43,94,0
1,31,94,0
1,43,94,0
1,29,94,0
1,41,94,0
1,29,94,0
1,41,94,0
1,29,94,0
1,41,94,0
1,29,93,0
1,41,93,0
1,29,93,0
1,41,93,0
1,29,93,0
1,41,93,0
1,29,93,0
1,41,93,0
1,29,93,0
1,41,93,0
1,24,93,0
1,36,93,0
1,24,93,0
1,36,93,0
1,24,93,0
1,36,93,0
1,24,93,0
1,36,93,0
1,24,93,0
1,24,93,0
1,36,93,0
1,24,93,0
1,36,93,0
1,24,93,0
1,36,93,0
1,24,93,0
1,36,93,0
1,24,93,0
1,36,93,0
1,24,93,0
1,36,93,0
1,24,93,0
1,36,93,0
1,24,93,0
1,36,93,0
1,24,93,0
1,36,93,0
1,24,93,0
1,36,93,0
1,24,93,0
1,36,93,0
1,33,95,5376
1,45,95,0
1,31,95,0
1,43,95,0
1,29,94,0
1,41,94,0
1,27,94,0
1,39,94,0
1,26,94,0
1,38,94,0
1,24,94,0
1,36,94,0
1,22,93,0
1,34,93,0
1,21,93,0
1,33,93,0
1,19,93,0
1,31,93,0
1,29,95,0
1,41,95,0
1,29,95,0
1,41,95,0
1,29,95,0
1,41,95,0
1,29,95,0
1,41,95,0
1,29,95,0
1,41,95,0
1,29,95,0
1,41,95,0
1,29,95,0
1,41,95,0
1,29,95,0
1,41,95,0
1,29,95,0
1,41,95,0
1,29,95,0
1,41,95,0
1,29,95,0
1,41,95,0
1,29,95,0
1,41,95,0
1,29,95,0
1,41,95,0
1,29,95,0
1,41,95,0
1,29,95,0
1,41,95,0
1,29,95,0
1,41,95,0
1,29,95,0
1,41,95,0
1,29,95,0
1,41,94,0
1,29,94,0
1,41,94,0
1,29,94,0
1,41,94,0
1,29,94,0
1,41,94,0
1,29,94,0
1,41,94,0
1,29,94,0
1,41,94,0
1,29,94,0
1,41,94,0
1,29,94,0
1,41,94,0
1,29,94,0
1,41,94,0
1,29,94,0
1,41,94,0
1,29,94,0
1,41,94,0
1,29,94,0
1,41,94,0
1,29,94,0
1,41,94,0
1,29,94,0
1,41,94,0
1,29,94,0
1,41,94,0
1,26,94,0
1,38,94,0
1,26,94,0
1,38,94,0
1,26,94,0
1,38,93,0
1,26,93,0
1,38,93,0
1,26,93,0
1,38,93,0
1,26,93,0
1,38,93,0
1,26,93,0
1,38,93,0
1,26,93,0
1,38,93,0
1,26,93,0
1,38,93,0
1,26,93,0
1,38,93,0
1,26,93,0
1,38,93,0
1,26,93,0
1,38,93,0
1,26,93,0
1,38,93,0
1,26,93,0
1,38,93,0
1,26,93,0
1,38,93,0
1,26,93,0
1,38,93,0
1,29,98,0
1,41,98,0
1,29,98,0
1,41,98,0
1,29,98,0
1,41,98,0
1,29,98,0
1,41,98,0
1,29,98,0
1,41,98,0
1,29,98,0
1,41,98,0
1,29,98,0
1,41,98,0
1,29,98,0
1,41,98,0
1,29,98,0
1,41,98,0
1,29,98,0
1,41,98,0
1,29,98,0
1,41,98,0
1,29,98,0
1,41,97,0
1,29,97,0
1,41,97,0
1,29,97,0
1,41,97,0
1,29,97,0
1,41,97,0
1,29,97,0
1,41,97,0
1,26,97,0
1,38,97,0
1,26,97,0
1,38,97,0
1,26,97,0
1,38,97,0
1,26,97,0
1,38,97,0
1,26,97,0
1,38,97,0
1,26,97,0
1,38,97,0
1,26,97,0
1,38,97,0
1,26,97,0
1,38,97,0
1,26,96,0
1,38,96,0
1,26,96,0
1,38,96,0
1,26,96,0
1,38,96,0
1,26,96,0
1,38,96,0
1,26,96,0
1,38,96,0
1,26,96,0
1,38,96,0
1,26,96,0
1,38,96,0
1,26,96,0
1,38,96,0
1,33,96,0
1,45,96,0
1,33,96,0
1,45,96,0
1,33,96,0
1,45,96,0
1,33,96,0
1,45,96,0
1,33,96,0
1,45,95,0
1,33,95,0
1,45,95,0
1,33,95,0
1,45,95,0
1,33,95,0
1,45,95,0
1,31,95,0
1,43,95,0
1,31,95,0
1,43,95,0
1,31,95,0
1,43,95,0
1,31,95,0
1,43,95,0
1,31,95,0
1,43,95,0
1,31,95,0
1,43,95,0
1,31,95,0
1,43,95,0
1,31,95,0
1,43,95,0
1,29,95,0
1,41,95,0
1,29,95,0
1,41,94,0
1,29,94,0
1,41,94,0
1,29,94,0
1,41,94,0
1,29,94,0
1,41,94,0
1,29,94,0
1,41,94,0
1,29,94,0
1,41,94,0
1,29,94,0
1,41,94,0
1,24,94,0
1,36,94,0
1,24,94,0
1,36,94,0
1,24,94,0
1,36,94,0
1,24,94,0
1,36,94,0
1,24,94,0
1,36,94,0
1,24,94,0
1,36,94,0
1,24,93,0
1,36,93,0
1,24,93,0
1,36,93,0
1,24,93,0
1,36,93,0
1,24,93,0
1,36,93,0
1,24,93,0
1,36,93,0
1,24,93,0
1,36,93,0
1,24,93,0
1,36,93,0
1,24,93,0
1,36,93,0
1,24,93,0
1,36,93,0
1,24,93,0
1,36,93,0
1,29,95,0
1,29,95,0
1,29,95,0
1,29,95,0
1,29,95,0
1,29,95,0
1,29,95,192
1,29,95,0
1,29,95,0
1,29,95,0
1,29,95,0
1,29,95,192
1,29,95,0
1,29,95,0
1,29,95,0
1,29,95,0
1,21,95,96
1,29,95,0
1,29,95,0
1,29,95,0
1,29,95,0
1,29,95,0
1,26,95,288
1,26,95,0
1,26,95,0
1,26,95,0
1,26,95,0
1,26,95,192
1,26,95,0
1,26,95,0
1,26,95,0
1,26,95,0
1,26,95,192
1,26,95,0
1,26,95,0
1,26,94,0
1,26,94,0
1,26,94,192
1,26,94,0
1,26,94,0
1,26,94,0
1,26,94,0
1,33,94,192
1,45,94,0
1,33,94,0
1,45,94,0
1,33,94,0
1,45,94,0
1,33,94,0
1,45,94,0
1,33,94,0
1,45,94,0
1,33,94,0
1,45,94,0
1,33,94,0
1,45,94,0
1,33,94,0
1,45,94,0
1,31,94,0
1,43,94,0
1,31,94,0
1,43,94,0
1,31,94,0
1,43,94,0
1,31,94,0
1,43,94,0
1,31,94,0
1,43,94,0
1,31,94,0
1,43,94,0
1,31,94,0
1,43,94,0
1,31,94,0
1,43,94,0
1,29,94,0
1,41,94,0
1,29,94,0
1,41,94,0
1,29,94,0
1,41,94,0
1,29,93,0
1,41,93,0
1,29,93,0
1,41,93,0
1,29,93,0
1,41,93,0
1,29,93,0
1,41,93,0
1,29,93,0
1,41,93,0
1,24,93,0
1,36,93,0
1,24,93,0
1,36,93,0
1,24,93,0
1,36,93,0
1,24,93,0
1,36,93,0
1,24,93,0
1,36,93,0
1,24,93,0
1,36,93,0
1,24,93,0
1,36,93,0
1,24,93,0
1,36,93,0
1,24,93,0
1,36,93,0
1,24,93,0
1,36,93,0
1,24,93,0
1,36,93,0
1,24,93,0
1,36,93,0
1,24,93,0
1,36,93,0
1,24,93,0
1,36,93,0
1,24,93,0
1,36,93,0
1,24,93,0
1,36,93,0
1,29,95,0
1,29,95,0
1,29,95,0
1,29,95,0
1,29,95,0
1,29,95,192
1,29,95,0
1,29,95,0
1,29,95,0
1,29,95,192
1,29,95,0
1,29,95,0
1,29,95,0
1,29,95,0
1,29,95,192
1,29,95,0
1,29,95,0
1,29,95,0
1,26,95,192
1,26,95,0
1,26,95,0
1,26,95,0
1,26,95,0
1,26,95,192
1,26,95,0
1,26,95,0
1,26,95,0
1,26,95,192
1,26,95,0
1,26,95,0
1,26,94,0
1,26,94,0
1,26,94,192
1,26,94,0
1,26,94,0
1,26,94,0
1,33,94,192
1,45,94,0
1,33,94,0
1,45,94,0
1,33,94,0
1,45,94,0
1,33,94,0
1,45,94,0
1,33,94,0
1,45,94,0
1,33,94,0
1,45,94,0
1,33,94,0
1,45,94,0
1,33,94,0
1,45,94,0
1,31,94,0
1,43,94,0
1,31,94,0
1,43,94,0
1,31,94,0
1,43,94,0
1,31,94,0
1,43,94,0
1,31,94,0
1,43,94,0
1,31,94,0
1,43,94,0
1,31,94,0
1,43,94,0
1,31,94,0
1,43,94,0
1,29,94,0
1,41,94,0
1,29,94,0
1,41,94,0
1,29,94,0
1,41,94,0
1,29,93,0
1,41,93,0
1,29,93,0
1,41,93,0
1,29,93,0
1,41,93,0
1,29,93,0
1,41,93,0
1,29,93,0
1,41,93,0
1,24,95,0
1,36,95,0
1,24,95,0
1,36,95,0
1,24,95,0
1,36,95,0
1,24,95,0
1,36,95,0
1,24,95,0
1,36,95,0
1,24,95,0
1,36,95,0
1,24,94,0
1,36,94,0
1,24,94,0
1,36,94,0
1,24,94,0
1,36,94,0
1,24,94,0
1,36,94,0
1,24,94,0
1,36,94,0
1,24,94,0
1,36,93,0
1,24,93,0
1,36,93,0
1,24,93,0
1,36,93,0
1,24,93,0
1,36,93,0
1,24,93,0
1,36,93,0
1,24,98,0
1,36,98,0
1,24,99,0
1,36,99,0
1,24,101,0
1,36,101,0
1,24,103,0
1,36,103,0
1,24,104,0
1,36,104,0
1,24,106,0
1,36,106,0
1,24,107,0
1,36,107,0
1,24,109,0
1,36,109,0
1,24,111,0
1,36,111,0
1,24,113,0
1,36,113,0
1,24,115,0
1,36,115,0
1,24,118,0
1,36,118,0
1,24,127,0
1,36,127,0
2,65,101,2784
2,69,101,0
2,72,101,0
2,65,101,0
2,69,101,0
2,72,101,0
2,64,101,0
2,67,101,0
2,72,101,0
2,74,101,96
2,70,101,0
2,65,101,0
2,65,101,0
2,70,101,0
