track,note,velocity,time
0,77,87,1504
0,72,85,0
0,65,76,0
0,72,79,0
0,41,94,0
0,35,81,0
0,42,51,0
0,77,91,16
0,72,91,0
0,72,70,0
0,42,47,0
0,65,74,0
0,39,85,0
0,51,84,48
0,56,84,0
0,41,81,0
0,35,76,0
0,40,63,0
0,42,52,0
0,53,84,16
0,51,80,16
0,34,77,16
0,42,54,0
0,48,87,16
0,72,71,16
0,77,81,0
0,46,82,0
0,34,77,0
0,35,81,0
0,42,51,0
0,42,54,64
0,72,65,32
0,44,80,0
0,77,77,16
0,35,76,48
0,40,63,0
0,42,56,0
0,34,87,112
0,42,48,0
0,60,82,16
0,36,91,16
0,35,81,0
0,42,52,0
0,72,63,0
0,77,68,0
0,42,48,112
0,77,83,48
0,72,74,0
0,53,85,0
0,56,80,0
0,34,90,0
0,36,90,16
0,35,76,0
0,40,63,0
0,42,52,0
0,63,85,16
0,65,66,48
0,37,87,0
0,42,45,0
0,68,68,48
0,37,76,0
0,35,81,0
0,42,52,0
0,63,68,0
0,68,86,48
0,42,45,16
0,68,86,0
0,65,84,48
0,65,65,32
0,68,80,16
0,35,76,0
0,40,63,0
0,42,51,0
0,70,86,0
0,41,90,16
0,42,45,0
0,72,85,0
0,77,83,0
0,65,79,16
0,72,87,0
0,41,94,0
0,35,78,0
0,42,52,0
0,72,85,64
0,77,95,0
0,68,82,0
0,72,96,16
0,65,83,0
0,72,81,0
0,42,46,0
0,39,94,16
0,51,86,32
0,56,87,0
0,41,94,0
0,35,76,0
0,40,63,0
0,42,61,0
0,53,70,0
0,51,80,48
0,36,91,0
0,42,47,0
0,48,80,32
0,34,94,0
0,77,83,32
0,72,63,0
0,46,80,16
0,35,81,0
0,42,51,0
0,42,46,96
0,72,68,0
0,44,79,0
0,77,65,16
0,35,76,32
0,40,63,0
0,42,48,0
0,44,46,32
0,36,91,16
0,42,46,0
0,60,86,16
0,77,78,32
0,72,63,0
0,36,94,0
0,80,75,0
0,68,75,0
0,35,81,0
0,42,46,0
0,82,70,32
0,70,70,0
0,42,48,0
0,53,87,0
0,77,85,0
0,56,79,0
0,72,81,16
0,34,94,0
0,36,94,48
0,79,77,0
0,67,77,0
0,35,76,0
0,40,63,0
0,42,50,0
0,63,77,0
0,80,79,32
0,68,79,0
0,60,20,16
0,37,90,0
0,42,47,0
0,70,74,32
0,32,90,16
0,35,81,0
0,42,48,0
0,63,51,0
0,68,63,0
0,63,39,16
0,68,79,0
0,80,94,0
0,34,87,16
0,42,50,0
0,77,95,0
0,65,66,16
0,65,77,0
0,80,86,0
0,68,84,16
0,27,90,0
0,35,78,0
0,40,63,0
0,42,50,0
0,63,42,0
0,70,86,0
0,82,89,0
0,70,81,16
0,65,79,0
0,77,88,16
0,41,87,0
0,35,81,0
0,42,51,0
0,72,83,0
0,72,83,0
0,68,83,0
0,72,89,0
0,65,85,0
0,72,101,16
0,77,100,0
0,72,79,0
0,42,56,0
0,39,85,0
0,51,84,48
0,56,84,0
0,41,87,0
0,35,81,0
0,40,63,0
0,42,59,0
0,53,84,16
0,51,80,16
0,34,85,16
0,42,45,0
0,48,87,16
0,77,85,16
0,72,78,16
0,46,82,0
0,34,90,0
0,35,81,0
0,42,50,0
0,42,48,96
0,72,78,32
0,77,85,0
0,44,80,0
0,35,81,32
0,40,63,0
0,42,51,0
0,36,90,16
0,42,48,0
0,60,82,64
0,72,72,16
0,77,81,0
0,36,90,0
0,35,81,0
0,42,50,0
0,42,45,112
0,77,86,48
0,72,74,16
0,53,85,0
0,56,80,0
0,34,85,0
0,36,94,16
0,35,76,0
0,40,58,0
0,42,52,0
0,63,81,16
0,65,65,48
0,37,94,0
0,42,55,0
0,37,87,48
0,68,69,0
0,35,81,0
0,42,59,0
0,63,64,0
0,68,86,48
0,68,86,0
0,42,45,16
0,65,84,48
0,65,72,32
0,68,80,0
0,35,76,0
0,40,58,0
0,42,59,0
0,70,86,32
0,41,86,16
0,42,56,0
0,77,83,16
0,65,83,0
0,72,81,0
0,41,91,0
0,35,81,0
0,42,59,0
0,72,81,0
0,41,90,0
0,72,85,0
0,72,96,0
0,68,82,0
0,77,91,16
0,72,87,0
0,42,56,0
0,65,76,0
0,44,85,0
0,51,86,32
0,56,87,0
0,41,85,0
0,35,76,0
0,40,63,0
0,42,61,0
0,53,70,0
0,51,80,48
0,36,85,0
0,42,56,0
0,48,80,16
0,72,68,48
0,77,69,0
0,46,80,16
0,35,81,0
0,42,54,0
0,42,50,112
0,77,78,16
0,72,69,0
0,44,79,0
0,35,76,32
0,40,58,0
0,42,56,0
0,36,87,16
0,42,48,0
0,44,46,0
0,60,86,64
0,77,68,16
0,68,73,0
0,72,64,16
0,36,91,0
0,80,73,0
0,35,81,0
0,42,48,0
0,71,68,0
0,82,62,0
0,70,62,0
0,42,48,16
0,53,87,0
0,77,74,0
0,56,79,0
0,34,85,0
0,72,69,0
0,79,72,32
0,67,72,0
0,36,87,16
0,35,78,0
0,40,63,0
0,42,48,0
0,63,78,0
0,60,78,0
0,37,94,48
0,77,70,0
0,65,70,0
0,42,48,0
0,63,68,32
0,68,71,0
0,32,92,32
0,35,78,0
0,42,54,0
0,68,72,0
0,63,71,16
0,68,79,0
0,80,94,0
0,34,91,16
0,35,78,0
0,42,50,0
0,63,68,0
0,65,78,0
0,77,95,0
0,65,66,16
0,80,86,32
0,68,84,16
0,27,90,0
0,35,81,0
0,40,63,0
0,42,63,0
0,70,86,0
0,82,89,0
0,63,65,64
0,70,63,0
0,67,68,0
0,41,94,0
0,35,81,0
0,42,55,0
0,53,79,112
0,42,52,0
0,56,80,0
0,39,85,48
0,51,82,32
0,41,81,0
0,35,76,0
0,40,63,0
0,42,58,0
0,53,79,16
0,58,55,48
0,68,64,0
0,65,66,0
0,51,79,0
0,34,77,0
0,42,50,0
0,61,69,0
0,48,57,16
0,46,80,16
0,34,77,0
0,35,76,0
0,42,51,0
0,42,52,64
0,44,87,16
0,35,76,0
0,40,58,0
0,42,55,0
0,34,87,112
0,42,55,0
0,58,80,16
0,70,68,0
0,58,63,16
0,63,81,0
0,36,91,0
0,35,76,0
0,42,55,0
0,42,51,112
0,56,82,32
0,61,63,0
0,65,71,0
0,34,90,0
0,36,90,32
0,35,76,0
0,40,51,0
0,42,47,0
0,61,65,112
0,65,65,0
0,60,64,0
0,68,63,0
0,37,87,0
0,42,45,0
0,37,76,48
0,35,76,0
0,42,52,0
0,56,86,96
0,42,55,16
0,53,87,32
0,56,87,48
0,35,78,0
0,40,58,0
0,42,55,0
0,58,80,0
0,41,90,32
0,42,50,0
0,70,68,16
0,63,71,0
0,67,63,0
0,41,94,16
0,35,76,0
0,42,45,0
0,53,79,96
0,56,87,16
0,42,55,0
0,39,94,64
0,51,80,16
0,41,94,16
0,35,76,0
0,40,58,0
0,42,55,0
0,53,85,0
0,68,68,16
0,58,63,0
0,65,64,0
0,51,80,0
0,61,68,16
0,36,91,0
0,42,57,0
0,48,57,16
0,34,94,16
0,46,68,48
0,35,78,16
0,42,47,0
0,42,50,96
0,44,84,16
0,35,76,64
0,40,63,0
0,42,56,0
0,36,91,0
0,42,52,0
0,58,82,16
0,70,77,16
0,58,65,0
0,63,81,0
0,36,94,16
0,35,78,0
0,42,47,0
0,42,47,96
0,56,86,16
0,61,78,16
0,65,63,0
0,34,94,0
0,68,53,0
0,36,94,32
0,35,76,0
0,40,63,0
0,42,56,0
0,68,62,80
0,60,65,0
0,65,77,16
0,37,90,0
0,42,48,0
0,61,64,0
0,32,90,128
0,35,81,0
0,42,56,0
0,56,86,112
0,34,87,0
0,42,48,0
0,53,80,32
0,56,84,48
0,27,90,0
0,35,76,0
0,40,63,0
0,42,55,0
0,58,82,0
0,42,45,48
0,70,68,16
0,63,74,0
0,67,81,0
0,41,87,16
0,35,81,0
0,42,58,0
0,53,79,112
0,56,79,0
0,42,47,0
0,39,85,48
0,51,82,48
0,41,87,0
0,35,76,0
0,40,58,0
0,42,58,0
0,53,79,0
0,58,64,48
0,51,87,0
0,34,85,0
0,42,45,0
0,68,68,0
0,65,63,0
0,61,72,0
0,48,64,16
0,34,90,32
0,35,76,0
0,42,56,0
0,46,80,0
0,42,46,96
0,44,87,16
0,35,76,32
0,40,58,0
0,42,50,0
0,36,90,16
0,42,42,0
0,58,82,16
0,70,77,0
0,58,66,0
0,63,78,0
0,36,90,16
0,35,81,0
0,42,58,0
0,42,48,112
0,65,69,16
0,61,68,0
0,60,68,0
0,56,84,0
0,34,85,0
0,68,66,0
0,36,94,16
0,35,76,0
0,40,58,0
0,42,51,0
0,68,68,96
0,60,65,0
0,61,65,16
0,65,81,0
0,37,94,0
0,42,45,0
0,37,87,48
0,35,81,0
0,42,50,0
0,56,82,96
0,42,43,16
0,53,72,64
0,56,85,48
0,35,78,0
0,40,63,0
0,42,52,0
0,58,80,48
0,41,86,0
0,42,50,0
0,70,65,32
0,63,71,0
0,67,71,0
0,41,91,16
0,35,81,0
0,42,52,0
0,41,90,16
0,53,82,32
0,56,79,0
0,42,50,0
0,44,85,64
0,51,79,48
0,41,85,0
0,35,76,0
0,40,58,0
0,42,54,0
0,53,78,0
0,58,58,48
0,65,66,0
0,51,78,0
0,36,85,0
0,42,48,0
0,68,61,0
0,61,68,0
0,48,62,16
0,46,80,80
0,35,76,0
0,42,52,0
0,42,50,112
0,44,87,48
0,35,76,16
0,40,63,0
0,42,59,0
0,36,87,0
0,42,50,0
0,58,82,0
0,70,77,16
0,63,81,0
0,58,63,0
0,36,91,0
0,35,76,0
0,42,54,0
0,42,52,112
0,60,68,32
0,65,66,0
0,56,79,0
0,34,85,0
0,61,45,0
0,68,61,0
0,36,87,16
0,35,76,0
0,40,58,0
0,42,51,0
0,68,64,112
0,60,56,0
0,61,68,0
0,65,78,0
0,37,94,0
0,42,51,0
0,32,92,128
0,35,78,0
0,42,50,0
0,56,86,96
0,34,91,16
0,35,76,0
0,42,51,0
0,53,80,0
0,56,84,48
0,27,90,0
0,35,76,0
0,40,63,0
0,42,52,0
0,58,82,16
0,42,52,0
0,44,46,0
0,70,68,112
0,58,61,0
0,65,65,0
0,61,68,0
0,65,66,0
0,34,86,0
0,35,78,0
0,35,76,0
0,42,50,0
0,65,81,48
0,42,56,0
0,35,76,144
0,40,63,0
0,42,50,0
0,65,81,96
0,42,48,16
0,65,79,48
0,34,87,16
0,34,94,48
0,35,76,0
0,42,47,0
0,65,74,0
0,42,45,0
0,34,73,64
0,70,63,32
0,58,63,0
0,63,77,0
0,41,91,16
0,35,76,0
0,40,63,0
0,42,52,0
0,63,64,0
0,42,48,16
0,70,68,0
0,63,85,0
0,61,74,0
0,65,76,0
0,39,90,0
0,35,76,0
0,42,50,0
0,65,76,64
0,42,45,16
0,35,76,144
0,40,63,0
0,42,48,0
0,65,79,112
0,42,47,0
0,65,81,48
0,27,87,16
0,27,92,48
0,35,78,0
0,42,50,0
0,65,66,0
0,42,50,16
0,70,65,64
0,58,68,0
0,61,66,0
0,63,60,0
0,63,77,16
0,35,78,0
0,40,63,0
0,42,51,0
0,41,86,32
0,40,56,0
0,42,51,0
0,40,43,16
0,72,81,0
0,77,88,0
0,65,85,0
0,41,94,0
0,48,89,0
0,35,81,0
0,42,48,0
0,57,40,0
0,72,83,0
0,48,85,0
0,68,83,0
0,72,101,16
0,77,100,0
0,72,79,0
0,65,94,0
0,72,92,0
0,42,50,0
0,39,85,0
0,51,78,16
0,51,84,16
0,56,84,0
0,41,81,0
0,35,76,0
0,40,63,0
0,42,52,0
0,39,47,0
0,53,84,0
0,51,80,0
0,34,77,16
0,53,100,0
0,42,48,0
0,48,87,16
0,77,85,16
0,72,78,16
0,46,82,0
0,34,77,0
0,35,76,0
0,42,51,0
0,42,47,64
0,72,78,16
0,77,85,0
0,44,80,0
0,35,76,32
0,40,63,0
0,42,59,0
0,39,47,0
0,72,89,80
0,80,68,0
0,34,87,16
0,42,50,0
0,60,82,16
0,79,85,0
0,72,72,16
0,77,81,0
0,36,91,0
0,70,98,0
0,35,76,0
0,42,48,0
0,42,51,64
0,77,86,48
0,72,74,16
0,53,85,0
0,56,80,0
0,34,90,0
0,36,90,16
0,35,78,0
0,40,63,0
0,42,52,0
0,39,47,0
0,63,81,0
0,79,87,32
0,65,65,16
0,37,87,0
0,70,85,0
0,42,46,0
0,37,76,48
0,68,69,0
0,68,70,0
0,77,85,0
0,35,76,0
0,42,51,0
0,63,64,16
0,68,86,32
0,68,86,0
0,42,54,16
0,65,84,48
0,65,72,48
0,68,80,0
0,35,76,0
0,40,63,0
0,42,56,0
0,39,47,0
0,70,86,0
0,41,90,16
0,42,50,0
0,72,83,0
0,65,83,0
0,77,83,13
0,65,64,0
0,72,79,0
0,41,94,0
0,48,91,0
0,35,76,0
0,42,47,0
0,72,81,0
0,72,85,0
0,72,96,0
0,68,82,0
0,72,79,0
0,65,83,0
0,77,91,16
0,48,82,0
0,42,47,0
0,39,94,0
0,51,86,16
0,56,87,0
0,41,94,0
0,51,60,0
0,35,78,0
0,40,63,0
0,42,56,0
0,39,47,0
0,53,70,0
0,51,80,48
0,36,91,0
0,53,85,0
0,42,51,0
0,48,80,32
0,34,94,0
0,72,68,48
0,77,69,0
0,46,80,0
0,35,76,0
0,42,44,0
0,42,52,112
0,77,78,16
0,72,69,0
0,44,79,0
0,35,76,32
0,40,63,0
0,42,54,0
0,39,47,0
0,36,91,48
0,42,50,0
0,60,86,16
0,77,68,16
0,72,64,16
0,36,94,0
0,77,60,0
0,80,60,0
0,35,76,0
0,42,56,0
0,71,68,0
0,42,54,112
0,53,87,0
0,77,74,0
0,56,79,0
0,34,94,0
0,72,69,0
0,36,94,48
0,75,70,0
0,79,87,0
0,35,76,0
0,40,63,0
0,42,52,0
0,39,47,0
0,63,78,16
0,60,78,0
0,37,90,48
0,42,44,0
0,63,68,48
0,68,71,0
0,32,90,16
0,75,74,0
0,35,76,0
0,42,51,0
0,68,72,0
0,63,71,16
0,68,79,0
0,34,87,16
0,35,76,0
0,42,52,0
0,63,68,0
0,65,78,0
0,65,66,16
0,68,84,0
0,27,90,0
0,77,87,0
0,35,76,0
0,40,63,0
0,42,59,0
0,39,47,0
0,70,86,0
0,44,46,48
0,63,65,48
0,70,63,0
0,67,68,0
0,41,87,0
0,35,81,0
0,42,51,0
0,53,79,96
0,42,47,0
0,56,80,0
0,39,85,48
0,51,82,32
0,41,87,0
0,35,76,0
0,40,63,0
0,42,52,0
0,53,79,0
0,58,55,32
0,68,64,0
0,65,66,0
0,51,79,0
0,34,85,0
0,42,54,0
0,61,69,0
0,48,57,16
0,46,80,32
0,34,90,0
0,35,76,0
0,42,51,0
0,42,54,96
0,44,87,16
0,35,81,0
0,40,63,0
0,42,56,0
0,36,90,16
0,42,48,0
0,70,82,16
0,58,80,0
0,70,68,0
0,58,63,16
0,63,81,0
0,36,90,0
0,72,87,0
0,35,76,0
0,42,52,0
0,77,64,0
0,75,82,16
0,42,48,16
0,56,82,16
0,61,63,0
0,65,71,0
0,34,85,0
0,72,80,0
0,36,94,32
0,75,87,0
0,35,78,0
0,40,63,0
0,42,52,0
0,72,68,16
0,61,65,32
0,65,65,0
0,60,64,0
0,68,63,0
0,37,94,0
0,68,58,0
0,42,45,0
0,37,87,16
0,65,80,0
0,70,93,0
0,35,76,0
0,42,52,0
0,75,102,16
0,56,86,0
0,72,95,16
0,42,45,0
0,53,87,16
0,56,87,48
0,35,76,0
0,40,63,0
0,42,51,0
0,58,80,0
0,41,86,32
0,42,45,0
0,70,68,16
0,63,71,0
0,67,63,0
0,41,91,16
0,35,76,0
0,42,52,0
0,41,90,16
0,53,79,16
0,56,87,16
0,42,46,0
0,44,85,64
0,51,80,32
0,41,85,16
0,35,76,0
0,40,63,0
0,42,61,0
0,53,85,0
0,68,68,32
0,58,63,0
0,65,64,0
0,51,80,0
0,61,68,16
0,36,85,0
0,42,47,0
0,48,57,0
0,46,68,48
