track,note,velocity,time
0,70,64,15
0,68,36,854
0,60,90,0
0,60,0,50
0,60,81,0
0,60,0,56
0,60,72,0
0,60,0,68
0,60,63,0
0,60,0,62
0,60,54,0
0,60,0,76
0,60,44,0
0,60,0,62
0,68,0,48
0,75,32,4
0,60,52,0
0,60,0,60
0,43,73,644
0,43,0,46
0,36,87,18
0,36,76,0
0,36,111,0
0,42,52,0
0,48,81,0
0,36,0,4
0,42,0,0
0,42,52,60
0,42,0,4
0,48,0,26
0,36,97,34
0,46,71,0
0,60,61,0
0,36,0,4
0,46,0,0
0,36,0,46
0,60,0,4
0,27,92,10
0,34,77,0
0,42,52,0
0,48,59,0
0,27,0,4
0,42,0,0
0,48,0,30
0,42,43,30
0,60,59,0
0,42,0,4
0,34,0,56
0,60,0,0
0,36,79,4
0,36,115,0
0,42,40,0
0,48,75,0
0,36,0,4
0,42,0,0
0,42,52,60
0,60,71,0
0,42,0,4
0,48,0,4
0,60,0,26
0,42,52,30
0,60,67,0
0,42,0,4
0,36,0,44
0,60,0,8
0,31,105,8
0,36,97,0
0,42,48,0
0,48,62,0
0,36,0,4
0,42,0,0
0,48,0,46
0,31,0,8
0,27,92,6
0,34,93,0
0,42,48,0
0,60,66,0
0,74,71,0
0,27,0,4
0,42,0,0
0,74,0,0
0,75,0,28
0,60,0,22
0,42,48,10
0,48,63,0
0,42,0,4
0,34,0,36
0,48,0,6
0,68,38,2
0,31,96,16
0,42,52,0
0,60,71,0
0,42,0,4
0,31,0,54
0,60,0,2
0,36,87,4
0,36,111,0
0,42,52,0
0,48,81,0
0,36,0,4
0,42,0,0
0,42,52,60
0,42,0,4
0,48,0,26
0,36,97,34
0,46,71,0
0,60,61,0
0,36,0,4
0,46,0,0
0,36,0,46
0,60,0,4
0,27,92,10
0,34,77,0
0,42,52,0
0,48,59,0
0,27,0,4
0,42,0,0
0,48,0,30
0,42,43,30
0,60,59,0
0,42,0,4
0,34,0,56
0,60,0,0
0,36,79,4
0,36,115,0
0,42,40,0
0,48,75,0
0,36,0,4
0,42,0,0
0,42,52,60
0,60,71,0
0,42,0,4
0,48,0,4
0,60,0,26
0,42,52,30
0,60,67,0
0,42,0,4
0,36,0,44
0,60,0,8
0,31,105,8
0,36,97,0
0,42,48,0
0,48,62,0
0,36,0,4
0,42,0,0
0,48,0,46
0,31,0,8
0,27,92,6
0,34,93,0
0,42,48,0
0,60,66,0
0,74,71,0
0,27,0,4
0,42,0,0
0,74,0,0
0,60,0,50
0,42,48,10
0,48,63,0
0,42,0,4
0,34,0,36
0,48,0,6
0,31,96,18
0,42,52,0
0,60,71,0
0,42,0,4
0,31,0,54
0,60,0,2
0,36,87,4
0,36,111,0
0,42,52,0
0,48,81,0
0,36,0,4
0,42,0,0
0,42,52,60
0,42,0,4
0,48,0,26
0,36,97,34
0,46,71,0
0,60,61,0
0,36,0,4
0,46,0,0
0,36,0,46
0,60,0,4
0,27,92,10
0,34,77,0
0,42,52,0
0,48,59,0
0,27,0,4
0,42,0,0
0,48,0,30
0,42,43,30
0,60,59,0
0,42,0,4
0,34,0,56
0,60,0,0
0,36,79,4
0,36,115,0
0,42,40,0
0,48,75,0
0,36,0,4
0,42,0,0
0,42,52,60
0,60,71,0
0,42,0,4
0,48,0,4
0,60,0,26
0,42,52,30
0,60,67,0
0,42,0,4
0,36,0,44
0,60,0,8
0,31,105,8
0,36,97,0
0,42,48,0
0,48,62,0
0,36,0,4
0,42,0,0
0,48,0,46
0,31,0,8
0,27,92,6
0,34,93,0
0,42,48,0
0,60,66,0
0,74,71,0
0,27,0,4
0,42,0,0
0,74,0,0
0,60,0,50
0,42,48,10
0,48,63,0
0,42,0,4
0,34,0,36
0,48,0,6
0,31,96,18
0,42,52,0
0,60,71,0
0,42,0,4
0,70,0,34
0,68,0,4
0,31,0,16
0,60,0,2
0,36,87,4
0,36,111,0
0,42,52,0
0,48,81,0
0,36,0,4
0,42,0,0
0,42,52,60
0,42,0,4
0,48,0,26
0,36,97,34
0,46,71,0
0,60,61,0
0,36,0,4
0,46,0,0
0,36,0,46
0,60,0,4
0,27,92,10
0,34,77,0
0,42,52,0
0,48,59,0
0,27,0,4
0,42,0,0
0,48,0,30
0,42,43,30
0,60,59,0
0,42,0,4
0,34,0,56
0,60,0,0
0,36,79,4
0,36,115,0
0,42,40,0
0,48,75,0
0,36,0,4
0,42,0,0
0,42,52,60
0,60,71,0
0,42,0,4
0,48,0,4
0,60,0,26
0,42,52,30
0,60,67,0
0,42,0,4
0,36,0,44
0,60,0,8
0,31,105,8
0,36,97,0
0,42,48,0
0,48,62,0
0,36,0,4
0,42,0,0
0,48,0,46
0,31,0,8
0,27,92,6
0,34,93,0
0,42,48,0
0,60,66,0
0,74,71,0
0,27,0,4
0,42,0,0
0,74,0,0
0,60,0,50
0,42,48,10
0,48,63,0
0,42,0,4
0,34,0,36
0,48,0,6
0,31,96,18
0,42,52,0
0,60,71,0
0,42,0,4
0,31,0,54
0,36,0,2
0,60,0,0
0,36,102,4
0,36,87,0
0,36,111,0
0,42,52,0
0,48,81,0
0,55,57,0
0,55,46,0
0,60,64,0
0,60,45,0
0,63,40,0
0,72,80,0
0,72,93,0
0,36,0,4
0,42,0,0
0,42,52,60
0,42,0,4
0,48,0,26
0,36,97,34
0,46,71,0
0,60,61,0
0,36,0,4
0,46,0,0
0,36,0,46
0,60,0,4
0,27,92,10
0,34,77,0
0,42,52,0
0,48,59,0
0,27,0,4
0,42,0,0
0,48,0,30
0,42,43,30
0,60,59,0
0,42,0,4
0,72,0,34
0,72,0,2
0,34,0,20
0,60,0,0
0,36,79,4
0,36,115,0
0,42,40,0
0,48,75,0
0,67,92,0
0,67,90,0
0,36,0,4
0,42,0,0
0,67,0,56
0,42,52,4
0,60,71,0
0,63,86,0
0,63,96,0
0,42,0,4
0,48,0,4
0,67,0,22
0,60,0,4
0,42,52,30
0,60,67,0
0,42,0,4
0,63,0,42
0,36,0,2
0,60,0,8
0,31,105,8
0,36,97,0
0,42,48,0
0,48,62,0
0,67,82,0
0,67,88,0
0,36,0,4
0,42,0,0
0,63,0,0
0,48,0,46
0,31,0,8
0,27,92,6
0,34,93,0
0,42,48,0
0,60,66,0
0,74,71,0
0,27,0,4
0,42,0,0
0,74,0,0
0,60,0,50
0,42,48,10
0,48,63,0
0,42,0,4
0,67,0,32
0,34,0,4
0,67,0,2
0,48,0,4
0,68,38,2
0,31,96,16
0,42,52,0
0,60,71,0
0,60,70,0
0,60,80,0
0,42,0,4
0,31,0,54
0,60,0,2
0,36,87,4
0,36,111,0
0,42,52,0
0,48,81,0
0,36,0,4
0,42,0,0
0,42,52,60
0,42,0,4
0,48,0,26
0,36,97,34
0,46,71,0
0,60,61,0
0,36,0,4
0,46,0,0
0,36,0,46
0,60,0,4
0,27,92,10
0,34,77,0
0,42,52,0
0,48,59,0
0,27,0,4
0,42,0,0
0,48,0,30
0,42,43,30
0,60,59,0
0,42,0,4
0,34,0,56
0,60,0,0
0,36,79,4
0,36,115,0
0,42,40,0
0,48,75,0
0,36,0,4
0,42,0,0
0,60,0,42
0,42,52,18
0,60,71,0
0,42,0,4
0,48,0,4
0,60,0,26
0,42,52,30
0,60,67,0
0,42,0,4
0,36,0,44
0,60,0,8
0,31,105,8
0,36,97,0
0,42,48,0
0,48,62,0
0,36,0,4
0,42,0,0
0,48,0,46
0,31,0,8
0,27,92,6
0,34,93,0
0,42,48,0
0,60,66,0
0,74,71,0
0,27,0,4
0,42,0,0
0,74,0,0
0,60,0,50
0,42,48,10
0,48,63,0
0,42,0,4
0,34,0,36
0,48,0,6
0,31,96,18
0,42,52,0
0,60,71,0
0,42,0,4
0,55,0,26
0,60,0,0
0,60,0,16
0,31,0,12
0,36,0,2
0,60,0,0
0,36,105,4
0,36,87,0
0,36,111,0
0,42,52,0
0,48,81,0
0,55,80,0
0,60,76,0
0,72,95,0
0,72,105,0
0,36,0,4
0,42,0,0
0,42,52,60
0,42,0,4
0,48,0,26
0,36,97,34
0,46,71,0
0,60,61,0
0,36,0,4
0,46,0,0
0,36,0,46
0,60,0,4
0,27,92,10
0,34,77,0
0,42,52,0
0,48,59,0
0,27,0,4
0,42,0,0
0,48,0,30
0,42,43,30
0,60,59,0
0,42,0,4
0,72,0,12
0,72,0,4
0,34,0,40
0,60,0,0
0,36,79,4
0,36,115,0
0,42,40,0
0,48,75,0
0,67,89,0
0,67,99,0
0,36,0,4
0,42,0,0
0,67,0,56
0,42,52,4
0,60,71,0
0,63,89,0
0,63,96,0
0,42,0,4
0,48,0,4
0,67,0,24
0,60,0,2
0,42,52,30
0,60,67,0
0,42,0,4
0,36,0,44
0,63,0,6
0,60,0,2
0,31,105,8
0,36,97,0
0,42,48,0
0,48,62,0
0,63,0,0
0,67,76,0
0,67,86,0
0,36,0,4
0,42,0,0
0,48,0,46
0,31,0,8
0,27,92,6
0,34,93,0
0,42,48,0
0,60,66,0
0,74,71,0
0,27,0,4
0,42,0,0
0,74,0,0
0,60,0,50
0,42,48,10
0,48,63,0
0,42,0,4
0,67,0,30
0,34,0,6
0,67,0,0
0,48,0,6
0,31,96,18
0,42,52,0
0,60,71,0
0,60,66,0
0,60,82,0
0,42,0,4
0,68,0,38
0,31,0,16
0,60,0,2
0,36,87,4
0,36,111,0
0,42,52,0
0,48,81,0
0,36,0,4
0,42,0,0
0,42,52,60
0,42,0,4
0,48,0,26
0,36,97,34
0,46,71,0
0,60,61,0
0,36,0,4
0,46,0,0
0,36,0,46
0,60,0,4
0,27,92,10
0,34,77,0
0,42,52,0
0,48,59,0
0,27,0,4
0,42,0,0
0,48,0,30
0,42,43,30
0,60,59,0
0,42,0,4
0,34,0,56
0,60,0,0
0,36,79,4
0,36,115,0
0,42,40,0
0,48,75,0
0,36,0,4
0,42,0,0
0,42,52,60
0,60,71,0
0,42,0,4
0,48,0,4
0,60,0,26
0,42,52,30
0,60,67,0
0,42,0,4
0,36,0,44
0,60,0,8
0,31,105,8
0,36,97,0
0,42,48,0
0,48,62,0
0,36,0,4
0,42,0,0
0,60,0,44
0,48,0,2
0,31,0,8
0,27,92,6
0,34,93,0
0,42,48,0
0,60,66,0
0,74,71,0
0,27,0,4
0,42,0,0
0,74,0,0
0,60,0,50
0,42,48,10
0,48,63,0
0,42,0,4
0,34,0,36
0,48,0,6
0,31,96,18
0,42,52,0
0,60,71,0
0,42,0,4
0,55,0,10
0,60,0,0
0,60,0,38
0,31,0,6
0,36,0,2
0,55,0,0
0,60,0,0
0,60,0,0
0,63,0,0
0,31,108,4
0,36,111,0
0,38,87,0
0,42,52,0
0,50,81,0
0,58,41,0
0,62,50,0
0,62,63,0
0,67,40,0
0,70,66,0
0,70,78,0
0,70,93,0
0,36,0,4
0,42,0,0
0,42,52,60
0,42,0,4
0,50,0,24
0,36,97,36
0,46,71,0
0,62,88,0
0,36,0,4
0,46,0,0
0,62,0,34
0,38,0,12
0,27,92,14
0,36,87,0
0,42,52,0
0,50,69,0
0,27,0,4
0,42,0,0
0,50,0,20
0,42,43,40
0,62,79,0
0,42,0,4
0,70,0,12
0,62,0,6
0,70,0,2
0,36,0,30
0,36,115,10
0,38,93,0
0,42,40,0
0,50,93,0
0,69,86,0
0,69,93,0
0,36,0,4
0,42,0,0
0,50,0,46
0,69,0,10
0,42,52,4
0,62,99,0
0,67,89,0
0,67,90,0
0,42,0,4
0,69,0,36
0,62,0,6
0,42,52,18
0,42,0,4
0,67,0,50
0,38,0,6
0,33,90,4
0,36,97,0
0,42,48,0
0,50,45,0
0,69,89,0
0,69,84,0
0,36,0,4
0,42,0,0
0,67,0,6
0,50,0,18
0,33,0,20
0,27,92,16
0,36,93,0
0,42,48,0
0,62,81,0
0,74,71,0
0,27,0,4
0,42,0,0
0,74,0,0
0,62,0,30
0,42,48,30
0,50,44,0
0,42,0,4
0,50,0,18
0,69,0,0
0,69,0,16
0,36,0,22
0,33,87,4
0,42,52,0
0,62,99,0
0,62,68,0
0,62,84,0
0,42,0,4
0,62,0,28
0,33,0,16
0,36,111,16
0,38,83,0
0,42,52,0
0,50,93,0
0,36,0,4
0,42,0,0
0,42,52,60
0,42,0,4
0,50,0,50
0,36,97,10
0,46,71,0
0,62,88,0
0,36,0,4
0,46,0,0
0,62,0,32
0,38,0,14
0,27,92,14
0,36,85,0
0,42,52,0
0,50,63,0
0,27,0,4
0,42,0,0
0,50,0,16
0,42,43,44
0,62,58,0
0,42,0,4
0,62,0,12
0,36,0,36
0,36,115,12
0,38,83,0
0,42,40,0
0,50,83,0
0,36,0,4
0,42,0,0
0,50,0,56
0,42,52,4
0,62,99,0
0,42,0,4
0,42,52,60
0,62,0,0
0,42,0,4
0,38,0,56
0,33,87,4
0,36,97,0
0,42,48,0
0,50,38,0
0,36,0,4
0,42,0,0
0,33,0,52
0,50,0,2
0,27,92,6
0,36,87,0
0,42,48,0
0,62,93,0
0,74,71,0
0,27,0,4
0,42,0,0
0,74,0,0
0,62,0,38
0,62,0,6
0,62,0,0
0,42,48,16
0,42,0,4
0,36,0,46
0,33,87,14
0,42,52,0
0,50,39,0
0,62,90,0
0,42,0,4
0,50,0,6
0,62,0,4
0,67,0,0
0,70,0,0
0,62,0,18
0,31,0,28
0,33,0,0
0,58,0,1
0,62,0,0
0,36,102,3
0,36,87,0
0,36,111,0
0,42,52,0
0,48,81,0
0,55,57,0
0,55,46,0
0,60,64,0
0,60,45,0
0,63,40,0
0,72,80,0
0,72,93,0
0,36,0,4
0,42,0,0
0,42,52,60
0,42,0,4
0,48,0,26
0,36,97,34
0,46,71,0
0,60,61,0
0,36,0,4
0,46,0,0
0,36,0,46
0,60,0,4
0,27,92,10
0,34,77,0
0,42,52,0
0,48,59,0
0,27,0,4
0,42,0,0
0,48,0,30
0,42,43,30
0,60,59,0
0,42,0,4
0,72,0,34
0,72,0,2
0,34,0,20
0,60,0,0
0,36,79,4
0,36,115,0
0,42,40,0
0,48,75,0
0,67,92,0
0,67,90,0
0,36,0,4
0,42,0,0
0,67,0,56
0,42,52,4
0,60,71,0
0,63,86,0
0,63,96,0
0,42,0,4
0,48,0,4
0,67,0,22
0,60,0,4
0,42,52,30
0,60,67,0
0,42,0,4
0,63,0,42
0,36,0,2
0,60,0,8
0,31,105,8
0,36,97,0
0,42,48,0
0,48,62,0
0,67,82,0
0,67,88,0
0,36,0,4
0,42,0,0
0,63,0,0
0,48,0,46
0,31,0,8
0,27,92,6
0,34,93,0
0,42,48,0
0,60,66,0
0,74,71,0
0,27,0,4
0,42,0,0
0,74,0,0
0,60,0,50
0,42,48,10
0,48,63,0
0,42,0,4
0,67,0,32
0,34,0,4
0,67,0,2
0,48,0,4
0,68,38,2
0,31,96,16
0,42,52,0
0,60,71,0
0,60,70,0
0,60,80,0
0,42,0,4
0,31,0,54
0,60,0,2
0,36,87,4
0,36,111,0
0,42,52,0
0,48,81,0
0,36,0,4
0,42,0,0
0,42,52,60
0,42,0,4
0,48,0,26
0,36,97,34
0,46,71,0
0,60,61,0
0,36,0,4
0,46,0,0
0,36,0,46
0,60,0,4
0,27,92,10
0,34,77,0
0,42,52,0
0,48,59,0
0,27,0,4
0,42,0,0
0,48,0,30
0,42,43,30
0,60,59,0
0,42,0,4
0,34,0,56
0,60,0,0
0,36,79,4
0,36,115,0
0,42,40,0
0,48,75,0
0,36,0,4
0,42,0,0
0,60,0,42
0,42,52,18
0,60,71,0
0,42,0,4
0,48,0,4
0,60,0,26
0,42,52,30
0,60,67,0
0,42,0,4
0,36,0,44
0,60,0,8
0,31,105,8
0,36,97,0
0,42,48,0
0,48,62,0
0,36,0,4
0,42,0,0
0,48,0,46
0,31,0,8
0,27,92,6
0,34,93,0
0,42,48,0
0,60,66,0
0,74,71,0
0,27,0,4
0,42,0,0
0,74,0,0
0,60,0,50
0,42,48,10
0,48,63,0
0,42,0,4
0,34,0,36
0,48,0,6
0,31,96,18
0,42,52,0
