track,note,velocity,time
0,53,85,0
0,53,85,0
0,53,85,52
0,53,85,0
0,53,85,60
0,53,85,0
0,53,85,48
0,53,85,4
0,53,85,52
0,53,85,0
0,53,85,52
0,53,85,0
0,53,85,52
0,53,85,0
0,53,85,56
0,53,85,0
0,53,85,56
0,53,85,0
0,53,85,52
0,53,85,0
0,53,85,48
0,53,85,0
0,53,85,56
0,53,85,0
0,53,85,52
0,53,85,0
0,53,85,48
0,53,85,0
0,53,85,56
0,53,85,0
0,53,85,0
0,53,92,4
0,41,127,0
0,53,85,56
0,53,85,0
0,53,85,52
0,53,85,0
0,53,85,56
0,53,85,0
0,53,85,52
0,53,85,4
0,53,85,52
0,53,85,0
0,53,85,52
0,53,85,4
0,53,85,56
0,53,85,0
0,53,85,48
0,53,85,4
0,53,85,56
0,53,85,0
0,53,85,52
0,53,85,4
0,53,85,52
0,53,85,0
0,53,85,48
0,53,85,4
0,53,85,56
0,53,85,0
0,53,85,52
0,53,85,4
0,53,85,52
0,53,85,0
0,53,85,8
0,53,92,4
0,53,85,56
0,53,85,0
0,53,85,52
0,53,85,0
0,53,85,56
0,53,85,0
0,53,85,44
0,53,85,8
0,53,85,48
0,53,85,0
0,53,85,52
0,53,85,0
0,53,85,48
0,53,85,4
0,53,85,52
0,53,85,0
0,53,85,48
0,53,85,0
0,53,85,52
0,53,85,0
0,53,85,52
0,53,85,0
0,53,85,56
0,53,85,0
0,53,85,52
0,53,85,0
0,67,101,4
0,53,85,48
0,68,107,0
0,53,85,4
0,70,99,24
0,53,85,4
0,53,85,4
0,53,85,0
0,53,92,0
0,72,96,0
0,41,127,0
0,53,85,48
0,53,85,0
0,70,107,48
0,53,85,4
0,53,85,0
0,68,97,28
0,53,85,4
0,53,85,0
0,70,112,40
0,53,85,8
0,53,85,0
0,53,85,52
0,53,85,0
0,68,89,44
0,53,85,4
0,53,85,0
0,67,106,44
0,53,85,4
0,53,85,0
0,53,85,52
0,53,85,0
0,68,112,0
0,53,85,48
0,53,85,0
0,53,85,48
0,67,120,0
0,53,85,4
0,65,103,32
0,53,85,4
0,53,85,4
0,53,85,0
0,53,85,0
0,67,120,48
0,53,85,4
0,53,85,4
0,68,112,40
0,53,85,4
0,53,85,0
0,70,107,40
0,53,85,4
0,53,85,4
0,72,101,0
0,53,85,4
0,53,92,0
0,53,85,52
0,53,85,4
0,70,117,48
0,53,85,4
0,53,85,0
0,68,107,32
0,53,85,4
0,53,85,4
0,53,85,48
0,53,85,0
0,70,112,0
0,53,85,48
0,53,85,4
0,53,85,52
0,53,85,0
0,68,99,0
0,67,111,40
0,53,85,4
0,53,85,4
0,68,117,48
0,53,85,4
0,53,85,0
0,53,85,52
0,53,85,4
0,53,85,44
0,53,85,0
0,67,106,0
0,53,85,20
0,65,103,4
0,53,85,0
0,53,85,12
0,53,85,0
0,53,85,48
0,53,85,4
0,65,117,0
0,67,107,44
0,53,85,4
0,53,85,0
0,68,112,44
0,53,85,8
0,53,85,0
0,70,122,48
0,53,85,4
0,53,92,0
0,53,85,48
0,53,85,8
0,72,91,36
0,53,85,4
0,53,85,0
0,53,85,52
0,53,85,0
0,53,85,52
0,53,85,0
0,53,85,52
0,53,85,0
0,53,85,52
0,53,85,0
0,53,85,48
0,53,85,4
0,53,85,56
0,53,85,0
0,53,85,52
0,53,85,0
0,53,85,52
0,53,85,0
0,53,85,52
0,53,85,0
0,53,85,52
0,53,85,0
0,53,85,4
0,53,85,0
0,65,106,0
0,67,111,32
0,53,85,4
0,53,85,0
0,68,104,4
0,53,85,4
0,53,85,0
0,70,112,44
0,53,85,0
0,53,92,0
0,41,127,0
0,53,85,4
0,53,85,0
0,53,85,4
0,53,85,4
0,72,98,0
0,65,123,8
0,53,85,4
0,53,85,4
0,53,85,4
0,53,85,4
0,53,85,8
0,53,85,0
0,53,85,44
0,53,85,4
0,53,85,52
0,53,85,0
0,53,85,12
0,53,85,4
0,53,85,28
0,53,85,0
0,53,85,44
0,53,85,4
0,53,85,28
0,53,85,0
0,53,85,4
0,53,85,4
0,67,114,4
0,53,85,4
0,53,85,0
0,68,104,44
0,53,85,4
0,53,85,4
0,70,99,4
0,53,85,4
0,53,85,0
0,72,97,24
0,53,85,0
0,53,92,0
0,53,85,48
0,53,85,4
0,70,122,44
0,53,85,8
0,53,85,0
0,68,99,36
0,53,85,4
0,53,85,0
0,70,117,44
0,53,85,8
0,53,85,0
0,53,85,52
0,53,85,0
0,68,107,44
0,53,85,8
0,53,85,0
0,53,85,48
0,53,85,0
0,67,103,4
0,53,85,52
0,53,85,0
0,68,117,0
0,53,85,52
0,53,85,0
0,67,114,48
0,53,85,8
0,53,85,0
0,65,107,20
0,53,85,4
0,53,85,0
0,53,85,16
0,53,85,0
0,53,85,48
0,53,85,0
0,67,106,4
0,53,85,52
0,53,85,0
0,68,117,0
0,70,107,48
0,53,85,4
0,53,85,0
0,72,98,36
0,53,85,0
0,53,92,0
0,53,85,52
0,53,85,4
0,70,117,52
0,53,85,4
0,53,85,0
0,68,112,32
0,53,85,4
0,53,85,0
0,53,85,52
0,53,85,0
0,70,112,0
0,53,85,52
0,53,85,0
0,68,104,48
0,53,85,4
0,53,85,0
0,67,111,44
0,53,85,4
0,53,85,0
0,53,85,4
0,53,85,0
0,68,112,0
0,53,85,52
0,53,85,4
0,53,85,52
0,53,85,0
0,67,117,0
0,65,106,20
0,53,85,4
0,53,85,4
0,53,85,16
0,53,85,0
0,65,107,48
0,53,85,4
0,53,85,4
0,67,114,36
0,53,85,4
0,53,85,0
0,68,117,44
0,53,85,4
0,53,85,4
0,70,112,44
0,53,85,4
0,53,92,0
0,53,85,52
0,53,85,4
0,53,85,52
0,53,85,0
0,72,103,0
0,53,85,48
0,53,85,4
0,53,85,52
0,53,85,0
0,53,85,48
0,53,85,4
0,53,85,52
0,53,85,0
0,53,85,52
0,53,85,4
0,53,85,56
0,53,85,0
0,53,85,48
0,53,85,4
0,53,85,52
0,53,85,0
0,53,85,52
0,53,85,0
0,53,85,52
0,53,85,0
0,65,114,44
0,53,85,8
0,53,85,0
0,67,114,36
0,53,85,4
0,53,85,0
0,68,112,44
0,53,85,8
0,53,85,0
0,70,112,48
0,53,85,0
0,53,92,0
0,41,127,0
0,53,85,52
0,53,85,0
0,72,101,48
0,53,85,4
0,53,85,0
0,65,111,12
0,53,85,8
0,53,85,0
0,53,85,56
0,53,85,0
0,53,85,48
0,53,85,4
0,53,85,52
0,53,85,0
0,53,85,56
0,53,85,0
0,53,85,56
0,53,85,0
0,53,85,52
0,53,85,0
0,53,85,48
0,53,85,0
0,53,85,52
0,53,85,0
0,53,85,44
0,53,85,4
0,53,85,56
0,53,85,0
0,53,85,52
0,53,85,0
0,53,85,52
0,53,85,0
0,72,101,44
0,53,85,0
0,53,92,0
0,81,84,4
0,53,85,52
0,53,85,0
0,70,117,48
0,53,85,4
0,53,85,4
0,68,104,36
0,53,85,4
0,53,85,0
0,70,112,44
0,53,85,4
0,53,85,4
0,53,85,56
0,53,85,0
0,53,85,48
0,53,85,4
0,68,107,0
0,53,85,44
0,53,85,0
0,67,120,0
0,68,122,40
0,53,85,4
0,53,85,4
0,53,85,52
0,53,85,0
0,67,101,48
0,53,85,4
0,53,85,4
0,65,93,12
0,53,85,4
0,53,85,0
0,53,85,48
0,53,85,4
0,53,85,20
0,53,85,0
0,67,120,0
0,53,85,44
0,53,85,4
0,68,112,0
0,70,112,48
0,53,85,4
0,53,85,0
0,72,97,28
0,53,85,0
0,53,92,0
0,81,83,0
0,53,85,52
0,53,85,0
0,70,117,44
0,53,85,4
0,53,85,4
0,53,85,40
0,53,85,0
0,68,112,0
0,70,112,36
0,53,85,8
0,53,85,0
0,53,85,52
0,53,85,0
0,68,107,44
0,53,85,8
0,53,85,0
0,67,114,44
0,53,85,4
0,53,85,0
0,68,112,40
0,53,85,8
0,53,85,0
0,53,85,52
0,53,85,0
0,67,123,44
0,53,85,8
0,53,85,0
0,65,106,40
0,53,85,4
0,53,85,0
0,53,85,16
0,53,85,0
0,65,114,52
0,53,85,4
0,53,85,0
0,67,114,16
0,53,85,4
0,53,85,0
0,53,85,48
0,53,85,0
0,68,117,4
0,53,85,0
0,70,122,0
0,81,87,0
0,53,92,4
0,53,85,56
0,53,85,0
0,72,103,40
0,53,85,4
0,53,85,0
0,53,85,0
0,53,85,4
0,53,85,52
0,53,85,0
0,53,85,52
0,53,85,0
0,53,85,52
0,53,85,0
0,53,85,48
0,53,85,0
0,53,85,52
0,53,85,0
0,53,85,52
0,53,85,4
0,53,85,52
0,53,85,0
0,53,85,52
0,53,85,4
0,53,85,52
0,53,85,0
0,65,106,44
0,53,85,4
0,53,85,4
0,67,111,44
0,53,85,4
0,53,85,0
0,68,104,40
0,53,85,4
0,53,85,4
0,70,127,44
0,41,127,4
0,53,85,4
0,81,88,0
0,53,92,0
0,53,85,48
0,53,85,4
0,72,98,48
0,53,85,4
0,53,85,0
0,65,111,16
0,53,85,4
0,53,85,4
0,53,85,52
0,53,85,0
0,53,85,52
0,53,85,4
0,53,85,48
0,53,85,4
0,53,85,48
0,53,85,4
0,53,85,52
0,53,85,0
0,53,85,48
0,53,85,4
0,53,85,52
0,53,85,0
0,53,85,52
0,53,85,0
0,53,85,48
0,53,85,4
0,67,111,44
0,53,85,4
0,53,85,4
0,53,85,48
0,53,85,0
0,68,112,4
0,70,104,44
0,53,85,8
0,53,85,0
0,72,97,40
0,53,85,0
0,81,87,0
0,53,92,4
0,53,85,56
0,53,85,0
0,70,122,48
0,53,85,4
0,53,85,0
0,53,85,40
0,53,85,0
0,68,104,0
0,70,117,44
0,53,85,4
0,53,85,0
0,53,85,52
0,53,85,0
0,53,85,52
0,53,85,0
0,68,107,4
0,67,107,40
0,53,85,8
0,53,85,0
0,68,122,40
0,53,85,4
0,53,85,4
0,53,85,56
0,53,85,0
0,53,85,52
0,53,85,0
0,67,114,4
0,53,85,40
0,53,85,0
0,65,111,0
0,53,85,48
0,53,85,0
0,67,103,48
0,53,85,4
0,53,85,0
0,68,112,36
0,53,85,4
0,53,85,0
0,70,122,48
0,53,85,4
0,53,85,0
0,53,85,0
0,53,92,0
0,72,98,4
0,81,83,0
0,53,85,52
0,53,85,0
0,53,85,48
0,53,85,4
0,70,112,0
0,68,99,48
0,53,85,4
0,53,85,0
0,53,85,44
0,70,117,0
0,53,85,4
0,53,85,56
0,53,85,0
0,68,89,44
0,53,85,4
0,53,85,4
0,53,85,48
0,53,85,0
0,67,103,0
0,68,112,40
0,53,85,4
0,53,85,4
0,53,85,52
0,53,85,0
0,67,114,44
0,53,85,4
0,53,85,4
0,65,98,40
0,53,85,4
0,53,85,0
0,53,85,4
0,53,85,4
0,65,111,52
0,53,85,4
0,53,85,0
0,53,85,36
0,53,85,4
0,67,123,0
0,53,85,48
0,53,85,0
0,68,112,0
0,70,117,36
0,81,86,4
0,53,85,0
0,53,92,4
0,53,85,52
0,53,85,0
0,53,85,52
0,53,85,0
0,72,107,0
0,53,85,52
0,53,85,0
0,53,85,52
0,53,85,0
0,53,85,52
0,53,85,0
0,53,85,44
0,53,85,8
0,53,85,52
0,53,85,0
0,53,85,52
0,53,85,0
0,53,85,56
0,53,85,0
0,53,85,52
0,53,85,0
0,53,85,52
0,53,85,0
0,53,85,52
0,53,85,0
0,65,114,48
0,53,85,4
0,53,85,0
0,67,103,8
0,53,85,4
0,53,85,0
0,68,112,48
0,53,85,4
0,53,85,4
0,70,117,48
0,53,85,0
0,41,127,4
0,81,86,0
0,53,92,0
0,53,85,52
0,53,85,0
0,72,103,48
0,53,85,4
0,53,85,0
0,65,117,12
0,53,85,4
0,53,85,0
0,53,85,52
0,53,85,0
0,53,85,52
0,53,85,0
0,53,85,52
0,53,85,0
0,53,85,48
0,53,85,4
0,53,85,52
0,53,85,0
0,53,85,48
0,53,85,4
0,53,85,52
0,53,85,0
0,53,85,52
0,53,85,4
0,53,85,52
0,53,85,0
0,53,85,28
0,53,85,4
0,53,85,24
0,53,85,0
0,53,85,48
0,53,85,4
0,63,120,20
0,72,105,0
0,53,85,4
0,77,88,0
0,53,92,4
0,65,120,36
0,53,85,8
0,53,85,4
0,63,120,8
0,53,85,4
0,53,85,0
0,77,92,4
0,72,108,4
0,65,120,32
0,53,85,12
0,53,85,4
0,53,85,36
0,53,85,0
0,53,85,48
0,53,85,4
0,53,85,52
0,53,85,0
0,53,85,48
0,53,85,4
0,53,85,56
0,53,85,0
0,53,85,52
0,53,85,4
0,53,85,52
0,53,85,0
0,53,85,48
0,53,85,4
0,53,85,52
0,53,85,0
0,53,85,56
0,53,85,0
0,53,85,0
0,53,85,4
0,53,85,52
0,53,85,0
0,53,85,0
0,53,92,0
0,63,120,0
0,77,86,4
0,72,105,0
0,65,120,28
0,53,85,12
0,53,85,0
0,63,120,20
0,53,85,4
0,53,85,0
0,72,99,4
0,77,92,0
0,65,120,32
0,53,85,16
0,53,85,0
0,53,85,8
0,53,85,0
0,53,85,52
0,53,85,0
0,53,85,52
0,53,85,0
0,53,85,52
0,53,85,0
0,53,85,52
0,53,85,0
0,84,85,4
0,53,85,52
0,53,85,0
0,53,85,52
0,53,85,0
0,53,85,52
0,53,85,0
0,53,85,48
0,53,85,4
0,53,85,52
0,53,85,0
0,53,85,48
0,53,85,4
0,53,85,52
0,53,85,0
0,63,120,4
0,53,85,0
0,53,92,0
0,77,88,0
0,72,105,4
0,65,120,4
0,53,85,16
0,53,85,0
0,53,85,4
0,53,85,4
0,53,85,52
0,53,85,0
0,53,85,44
0,53,85,4
0,53,85,32
0,53,85,0
0,53,85,52
0,53,85,4
0,53,85,52
0,53,85,0
0,63,120,8
0,53,85,4
0,53,85,4
0,77,92,8
0,72,112,4
0,65,120,32
0,53,85,8
0,53,85,0
0,53,85,16
0,53,85,4
0,53,85,52
0,53,85,0
0,53,85,52
0,53,85,4
0,53,85,56
0,53,85,0
0,53,85,48
0,53,85,4
0,53,85,52
0,53,85,0
0,63,120,4
0,53,85,0
0,53,92,4
0,77,83,4
0,72,99,4
0,65,120,32
0,53,85,16
0,53,85,0
0,63,120,32
0,53,85,8
0,53,85,0
0,77,92,20
0,72,108,4
0,65,120,32
0,53,85,12
0,53,85,4
0,53,85,40
0,53,85,0
0,53,85,52
0,53,85,0
0,53,85,52
0,53,85,0
0,53,85,52
0,53,85,0
0,53,85,56
0,53,85,0
0,53,85,52
0,53,85,0
0,53,85,52
0,53,85,0
0,53,85,52
0,53,85,0
0,53,85,52
0,53,85,0
0,53,85,52
0,53,85,0
0,67,98,8
0,68,93,40
0,53,85,12
0,53,85,0
0,70,95,48
0,53,85,4
0,53,85,0
0,52,60,16
0,53,85,0
0,53,92,0
0,72,93,4
0,53,85,48
0,53,85,0
0,70,104,48
0,53,85,4
0,53,85,0
0,68,86,36
0,53,85,8
0,53,85,0
0,70,112,52
0,53,85,4
0,53,85,0
0,53,85,56
0,53,85,0
0,68,89,44
0,53,85,4
0,53,85,0
0,67,86,40
0,53,85,8
0,53,85,0
0,53,85,52
0,53,85,0
0,68,112,0
0,53,85,52
0,53,85,4
0,67,107,44
0,53,85,4
0,53,85,0
0,65,93,32
0,53,85,4
0,53,85,4
0,53,85,48
0,53,85,4
0,53,85,36
0,53,85,4
0,67,107,0
0,53,85,40
0,53,85,0
0,41,126,4
0,68,107,4
0,70,107,36
0,53,85,4
0,53,85,4
0,72,96,44
0,53,85,4
0,53,92,0
0,29,120,0
0,53,85,36
0,53,85,4
0,70,104,40
0,53,85,12
0,53,85,0
0,68,88,40
0,53,85,8
0,53,85,4
0,70,107,44
0,53,85,8
0,53,85,0
0,53,85,48
0,53,85,4
0,68,88,48
0,53,85,4
0,53,85,0
0,67,91,36
0,53,85,12
0,53,85,4
0,53,85,48
0,53,85,4
0,68,112,0
0,53,85,48
0,53,85,4
0,67,107,44
0,53,85,4
0,53,85,0
0,65,101,40
0,53,85,8
