track,note,velocity,time
1,65,106,768
1,72,80,0
1,69,118,0
1,65,106,0
1,72,127,0
1,72,115,0
1,72,109,0
1,69,115,0
1,65,112,0
1,67,106,0
1,67,80,0
1,66,118,0
1,67,106,0
1,72,127,0
1,72,115,0
1,73,106,384
1,68,80,0
1,77,118,0
1,75,106,0
1,77,127,0
1,77,115,0
1,77,109,0
1,75,115,0
1,73,112,0
1,75,106,0
1,75,80,0
1,72,118,0
1,73,106,0
1,75,127,0
1,75,115,0
1,75,109,0
1,73,115,0
1,72,112,0
1,70,106,0
1,73,80,0
1,72,118,0
1,65,106,0
1,73,127,0
1,73,115,0
1,73,109,0
1,72,115,0
1,70,112,0
1,73,106,0
1,73,80,0
1,72,118,0
1,70,106,0
1,73,127,0
1,73,115,0
1,73,109,0
1,72,115,0
1,70,112,0
1,72,95,0
1,72,84,0
1,72,104,96
1,72,101,96
1,72,84,0
1,72,101,96
1,72,95,96
1,72,84,0
1,72,104,96
1,72,101,96
1,72,84,0
1,72,101,96
1,65,106,96
1,72,80,0
1,69,118,0
1,65,106,0
1,72,127,0
1,72,115,0
1,72,109,0
1,69,115,0
1,65,112,0
1,67,106,0
1,67,80,0
1,66,118,0
1,67,106,0
1,72,127,0
1,72,115,0
1,73,106,384
1,68,80,0
1,77,118,0
1,75,106,0
1,77,127,0
1,77,115,0
1,77,109,0
1,75,115,0
1,73,112,0
1,75,106,0
1,75,80,0
1,72,118,0
1,73,106,0
1,75,127,0
1,75,109,96
1,68,112,288
1,70,106,0
1,73,80,0
1,72,118,0
1,70,106,0
1,73,127,0
1,73,115,0
1,73,109,0
1,72,115,0
1,65,112,0
1,73,106,0
1,73,80,0
1,72,118,0
1,70,106,0
1,73,127,0
1,73,115,0
1,73,109,0
1,72,115,0
1,70,112,0
1,72,95,0
1,72,84,0
1,72,104,96
1,72,101,96
1,72,84,0
1,72,101,96
1,72,95,96
1,72,84,0
1,72,104,96
1,72,101,96
1,72,84,0
1,72,101,96
1,68,106,96
1,63,80,0
1,72,118,0
1,70,106,0
1,72,127,0
1,72,115,0
1,72,109,0
1,68,115,0
1,63,112,0
1,70,106,0
1,70,80,0
1,67,118,0
1,68,106,0
1,70,127,0
1,63,115,96
1,67,115,0
1,63,112,0
1,65,106,0
1,68,80,0
1,67,118,0
1,60,106,0
1,68,127,0
1,68,115,0
1,68,109,0
1,67,115,0
1,65,112,0
1,68,106,0
1,68,80,0
1,67,118,0
1,65,106,0
1,68,127,0
1,68,115,0
1,68,109,0
1,67,115,0
1,65,112,0
1,67,87,0
1,67,106,1536
1,76,80,0
1,72,118,0
1,67,106,0
1,76,127,0
1,76,115,0
1,76,109,0
1,72,115,0
1,67,112,0
1,69,106,0
1,77,80,0
1,72,118,0
1,69,106,0
1,77,127,0
1,77,115,0
1,77,109,0
1,72,115,0
1,69,112,0
1,72,118,0
1,67,106,0
1,76,127,0
1,76,115,0
1,76,109,0
1,72,115,0
1,67,112,0
1,69,106,0
1,77,80,0
1,72,118,0
1,69,106,0
1,77,127,0
1,77,115,0
1,71,87,12768
1,72,87,0
1,76,91,0
1,69,99,96
1,72,87,0
1,77,83,0
1,71,91,1056
1,72,83,0
1,76,91,0
1,65,91,96
1,70,99,0
1,74,87,0
1,70,83,672
1,74,83,0
1,77,95,0
1,81,87,192
1,77,95,0
1,72,87,0
1,79,79,96
1,76,87,0
1,72,87,0
1,58,98,69024
1,53,101,0
1,58,84,0
1,57,101,0
1,58,98,0
1,57,84,0
1,55,98,0
1,58,95,0
1,55,84,0
1,51,90,0
1,48,98,0
1,51,81,0
1,49,87,0
1,69,95,384
1,78,84,0
1,74,101,0
1,69,81,0
1,78,98,0
1,78,101,0
1,78,95,0
1,74,107,0
1,69,104,0
1,71,101,0
1,79,98,0
1,74,107,0
1,71,98,0
1,79,107,0
1,79,107,0
1,79,95,0
1,74,95,0
1,71,101,0
1,69,95,0
1,78,84,0
1,74,101,0
1,69,81,0
1,78,98,0
1,78,101,0
1,78,95,0
1,74,107,0
1,69,104,0
1,71,101,0
1,79,98,0
1,74,107,0
1,71,98,0
1,79,107,0
1,79,107,0
1,79,95,0
1,74,95,0
1,71,101,0
1,64,113,83808
1,59,98,0
1,56,98,0
1,53,113,0
1,52,116,0
1,64,113,2592
1,60,98,0
1,57,98,0
1,52,113,0
1,48,116,0
1,47,98,0
1,46,113,0
1,45,110,0
1,52,113,2304
1,53,98,0
1,56,98,0
1,59,113,0
1,62,116,0
1,64,113,2592
1,60,98,0
1,57,98,0
1,52,113,0
1,50,116,0
1,47,98,0
1,48,113,0
1,49,110,0
1,56,113,2304
1,57,98,0
1,62,98,0
1,65,113,0
1,64,113,2592
1,59,98,0
1,56,98,0
1,52,113,0
1,56,116,0
1,59,98,0
1,62,113,0
1,67,110,0
1,67,104,0
1,67,101,0
1,67,113,0
1,67,113,864
1,67,107,0
1,67,104,0
1,69,101,0
1,69,101,0
1,69,101,0
1,69,113,0
1,69,113,864
1,69,107,0
1,69,104,0
1,67,110,0
1,67,104,0
1,67,101,0
1,67,113,0
1,67,113,864
1,67,107,0
1,67,104,0
1,69,101,0
1,69,101,0
1,69,101,0
1,69,113,0
1,69,113,864
1,69,107,0
1,69,104,0
1,67,98,0
1,67,104,0
1,67,101,0
1,67,113,0
1,67,113,864
1,67,107,0
1,67,104,0
1,65,101,0
1,65,104,0
1,65,101,0
1,65,113,0
1,65,113,864
1,65,107,0
1,65,104,0
1,65,104,0
1,65,104,0
1,65,101,0
1,65,113,0
1,65,113,864
1,65,107,0
1,65,104,0
1,65,98,0
1,65,104,0
1,65,101,0
1,65,113,0
1,65,113,864
1,65,107,0
1,65,104,0
1,67,98,0
1,67,104,0
1,67,101,0
1,67,113,0
1,65,103,48768
1,69,107,0
1,72,87,0
1,65,103,96
1,69,99,0
1,72,107,0
1,60,98,192
1,65,107,0
1,60,95,0
1,65,101,0
1,69,95,0
1,72,104,0
1,67,104,1248
1,68,93,0
1,69,98,0
1,77,90,0
1,72,113,0
1,69,119,0
1,79,104,0
1,74,110,0
1,71,95,0
1,81,122,0
1,67,98,192
1,66,90,0
1,67,98,0
1,69,116,0
1,67,98,0
1,66,81,0
1,67,93,0
1,70,119,0
1,67,93,0
1,66,87,0
1,67,93,0
1,71,119,0
1,67,93,0
1,66,87,0
1,67,98,0
1,72,116,0
1,67,95,0
1,66,87,0
1,67,98,0
1,73,119,0
1,67,90,0
1,66,81,0
1,67,90,0
1,74,122,0
1,67,90,0
1,66,69,0
1,67,52,0
1,69,49,0
1,71,66,0
1,72,72,0
1,73,84,0
1,74,87,0
1,76,93,0
1,77,95,0
1,78,104,0
1,79,110,0
1,81,113,0
1,82,116,0
1,83,127,0
1,84,127,0
1,36,107,0
1,84,116,384
1,84,116,0
1,57,127,0
1,69,127,0
2,65,106,64512
2,72,80,0
2,69,118,0
2,65,106,0
2,72,127,0
2,72,115,0
2,72,109,0
2,69,115,0
2,65,112,0
2,67,106,0
2,67,80,0
2,66,118,0
2,67,106,0
2,72,127,0
2,72,115,0
2,73,106,384
2,68,80,0
2,77,118,0
2,75,106,0
2,77,127,0
2,77,115,0
2,77,109,0
2,75,115,0
2,73,112,0
2,75,106,0
2,75,80,0
2,72,118,0
2,73,106,0
2,75,127,0
2,75,115,0
2,75,109,0
2,73,115,0
2,72,112,0
2,70,106,0
2,73,80,0
2,72,118,0
2,65,106,0
2,73,127,0
2,73,115,0
2,73,109,0
2,72,115,0
2,70,112,0
2,73,106,0
2,73,80,0
2,72,118,0
2,70,106,0
2,73,127,0
2,73,115,0
2,73,109,0
2,72,115,0
2,70,112,0
2,72,95,0
2,72,84,0
2,72,104,96
2,72,101,96
2,72,84,0
2,72,101,96
2,72,95,96
2,72,84,0
2,72,104,96
2,72,101,96
2,72,84,0
2,72,101,96
2,65,106,96
2,72,80,0
2,69,118,0
2,65,106,0
2,72,127,0
2,72,115,0
2,72,109,0
2,69,115,0
2,65,112,0
2,67,106,0
2,67,80,0
2,66,118,0
2,67,106,0
2,72,127,0
2,72,115,0
2,73,106,384
2,68,80,0
2,77,118,0
2,75,106,0
2,77,127,0
2,77,115,0
2,77,109,0
2,75,115,0
2,73,112,0
2,75,106,0
2,75,80,0
2,72,118,0
2,73,106,0
2,75,127,0
2,75,109,96
2,68,112,288
2,70,106,0
2,73,80,0
2,72,118,0
2,70,106,0
2,73,127,0
2,73,115,0
2,73,109,0
2,72,115,0
2,65,112,0
2,73,106,0
2,73,80,0
2,72,118,0
2,70,106,0
2,73,127,0
2,73,115,0
2,73,109,0
2,72,115,0
2,70,112,0
2,72,95,0
2,72,84,0
2,72,104,96
2,72,101,96
2,72,84,0
2,72,101,96
2,72,95,96
2,72,84,0
2,72,104,96
2,72,101,96
2,72,84,0
2,72,101,96
2,68,106,96
2,63,80,0
2,72,118,0
2,70,106,0
2,72,127,0
2,72,115,0
2,72,109,0
2,68,115,0
2,63,112,0
2,70,106,0
2,70,80,0
2,67,118,0
2,68,106,0
2,70,127,0
2,63,115,96
2,67,115,0
2,63,112,0
2,65,106,0
2,68,80,0
2,67,118,0
2,60,106,0
2,68,127,0
2,68,115,0
2,68,109,0
2,67,115,0
2,65,112,0
2,68,106,0
2,68,80,0
2,67,118,0
2,65,106,0
2,68,127,0
2,68,115,0
2,68,109,0
2,67,115,0
2,65,112,0
2,67,87,0
2,67,106,1536
2,76,80,0
2,72,118,0
2,67,106,0
2,76,127,0
2,76,115,0
2,76,109,0
2,72,115,0
2,67,112,0
2,69,106,0
2,77,80,0
2,72,118,0
2,69,106,0
2,77,127,0
2,77,115,0
2,77,109,0
2,72,115,0
2,69,112,0
2,72,118,0
2,67,106,0
2,76,127,0
2,76,115,0
2,76,109,0
2,72,115,0
2,67,112,0
2,69,106,0
2,77,80,0
2,72,118,0
2,69,106,0
2,77,127,0
2,77,115,0
2,71,87,12768
2,72,87,0
2,76,91,0
2,69,99,96
2,72,87,0
2,77,83,0
2,71,91,1056
2,72,83,0
2,76,91,0
2,65,91,96
2,70,99,0
2,74,87,0
2,76,95,672
2,72,83,0
2,67,83,0
2,76,95,192
2,73,87,0
2,81,87,0
2,69,87,96
2,74,87,0
2,78,79,0
2,64,95,27552
2,61,101,0
2,64,101,0
2,61,110,0
2,64,110,96
2,64,93,0
2,61,95,0
2,66,98,192
2,62,81,0
2,66,90,0
2,62,104,0
2,65,95,96
2,65,95,0
2,62,113,0
2,69,113,192
2,62,98,0
2,69,107,0
2,62,95,0
2,69,116,96
2,69,113,0
2,62,101,0
2,61,119,192
2,64,98,0
2,61,107,0
2,64,101,0
2,61,113,576
2,64,95,0
2,61,104,0
2,64,101,0
2,61,98,0
2,64,101,96
2,64,116,0
2,61,101,0
2,66,101,192
2,62,113,0
2,66,98,0
2,62,110,0
2,66,107,96
2,66,113,0
2,62,101,0
2,69,113,192
2,62,98,0
2,69,107,0
2,62,95,0
2,69,116,96
2,69,113,0
2,62,101,0
2,61,119,192
2,64,98,0
2,61,107,0
2,64,101,0
2,61,113,576
2,64,95,0
2,61,104,0
2,64,101,0
2,61,98,0
2,64,101,96
2,64,116,0
2,61,101,0
2,66,101,192
2,62,113,0
2,66,98,0
2,62,110,0
2,66,107,96
2,66,113,0
2,62,101,0
2,69,113,192
2,62,98,0
2,69,107,0
2,62,95,0
2,69,116,96
2,69,113,0
2,62,101,0
2,61,119,192
2,64,98,0
2,61,107,0
2,64,101,0
2,62,103,768
2,67,87,0
2,71,99,0
2,62,99,192
2,67,103,0
2,71,103,0
2,65,99,1344
2,73,110,0
2,66,91,0
2,73,107,0
2,67,103,0
2,73,119,0
2,68,99,0
2,73,111,0
2,69,103,0
2,73,107,0
2,57,107,96
2,56,107,0
2,57,87,0
2,59,95,0
2,57,110,0
2,56,110,0
2,57,107,0
2,60,116,0
2,57,107,0
2,56,107,0
2,57,122,0
2,61,110,0
2,57,104,0
2,56,122,0
2,57,101,0
2,62,90,0
2,57,95,0
2,56,98,0
2,57,95,0
2,63,104,0
2,57,107,0
2,56,107,0
2,57,107,0
2,64,104,0
2,69,103,288
2,65,87,0
2,65,111,0
2,70,107,0
2,71,83,0
2,67,111,0
2,68,99,0
2,72,107,0
2,69,99,0
2,73,107,0
2,74,99,192
2,62,103,0
2,74,99,0
2,62,87,0
2,74,103,0
2,62,103,0
2,72,95,25920
2,72,104,0
2,72,90,0
2,72,104,0
2,72,98,0
2,72,101,0
2,72,104,0
2,72,98,0
2,72,110,0
2,72,113,0
2,72,95,0
2,72,101,0
2,72,107,0
2,72,113,0
2,72,107,0
2,72,104,0
2,72,101,0
2,72,101,0
2,72,104,0
2,72,113,0
2,70,101,0
2,70,95,0
2,70,107,0
2,70,101,0
2,70,101,0
2,70,107,0
2,70,113,0
2,70,110,0
2,70,98,0
2,70,101,0
2,70,119,0
2,70,113,0
2,70,98,0
2,70,113,0
2,70,98,0
2,70,98,0
2,70,101,0
2,70,98,0
2,70,110,0
2,70,110,0
2,67,116,0
2,67,110,0
2,67,110,0
2,67,107,0
2,67,113,0
2,67,101,0
2,67,107,0
2,67,110,0
2,67,116,0
2,67,101,0
2,67,110,0
2,67,90,0
2,67,110,0
2,67,107,0
2,67,107,0
2,67,104,0
2,67,95,0
2,67,119,0
2,67,95,0
2,67,101,0
2,67,101,0
2,67,107,0
2,67,104,0
2,67,110,0
2,67,107,0
2,67,113,0
2,67,101,0
2,67,107,0
2,67,110,0
2,67,116,0
2,67,101,0
2,67,110,0
2,67,90,0
2,67,110,0
2,67,107,0
2,67,107,0
2,67,104,0
2,67,95,0
2,67,119,0
2,67,95,0
2,67,101,0
2,67,101,0
2,67,107,0
2,67,104,0
2,69,113,0
2,69,113,0
2,69,98,0
2,69,110,0
2,69,101,0
2,69,101,0
2,69,122,0
2,69,113,0
2,69,101,0
2,69,98,0
2,69,107,0
2,69,113,0
2,69,113,0
2,69,98,0
2,69,110,0
2,69,101,0
2,69,101,0
2,69,122,0
2,69,113,0
2,69,101,0
2,69,98,0
2,69,107,0
2,67,113,0
2,67,101,0
2,67,119,0
2,67,101,0
2,67,107,0
2,67,107,0
2,67,104,0
2,67,101,0
2,67,101,0
2,67,107,0
2,67,110,0
2,67,116,0
2,67,98,0
2,67,101,0
2,67,107,0
2,67,95,0
2,67,113,0
2,67,98,0
2,64,113,0
2,64,119,0
2,64,110,0
2,64,101,0
2,64,113,0
2,64,125,0
2,64,119,0
2,64,110,0
2,64,116,0
2,64,113,0
2,64,98,0
2,64,110,0
2,64,95,0
2,64,107,0
2,64,110,0
2,64,101,0
2,64,113,0
2,64,125,0
2,64,119,0
2,64,110,0
2,64,116,0
2,64,113,0
2,64,98,0
2,64,110,0
2,64,95,0
2,64,107,0
2,64,110,0
2,64,101,0
2,64,113,0
2,64,125,0
2,64,119,0
2,64,110,0
2,64,116,0
2,64,113,0
2,64,98,0
2,64,95,0
2,64,107,0
2,74,107,0
2,74,87,0
2,74,81,0
2,74,75,0
2,74,78,0
2,74,81,0
2,74,90,0
2,74,95,0
2,73,107,0
2,73,75,0
2,73,64,0
2,73,64,0
2,73,64,0
2,73,75,0
2,73,81,0
2,73,95,0
2,71,110,0
2,71,95,0
2,71,66,0
2,71,64,0
2,71,64,0
2,71,84,0
2,71,95,0
2,71,101,0
2,69,110,0
2,69,81,0
2,69,64,0
2,69,64,0
2,69,64,0
2,69,66,0
2,69,90,0
2,69,107,0
2,76,104,0
2,76,95,0
2,76,107,0
2,76,104,768
2,76,95,0
2,76,107,0
2,60,111,768
2,64,99,0
2,69,111,0
2,60,91,96
2,64,107,0
2,69,111,0
2,69,111,288
2,64,99,0
2,60,111,0
2,69,111,96
2,64,107,0
2,60,91,0
2,62,107,288
2,64,91,0
2,68,111,0
2,62,107,96
2,64,87,0
2,68,103,0
2,62,107,96
2,64,95,0
2,68,111,0
2,68,111,768
2,64,91,0
2,62,107,0
2,68,103,96
2,64,87,0
2,62,107,0
2,62,107,288
2,64,91,0
2,68,111,0
2,62,107,96
