track,note,velocity,time
1,24,90,768
1,96,55,384
1,24,90,384
1,96,55,600
1,24,90,384
1,96,55,576
1,24,80,384
1,96,45,576
1,24,80,360
1,96,45,504
1,24,80,312
1,96,45,120
1,24,80,120
1,96,45,120
1,24,80,120
1,96,45,120
1,24,80,120
1,96,45,120
1,24,80,120
1,96,45,72
1,24,80,48
1,96,45,120
1,24,80,120
1,96,45,120
1,24,80,120
1,96,45,120
1,24,80,120
1,96,45,120
1,24,80,120
1,96,45,120
1,24,80,120
1,96,45,120
1,24,80,120
1,96,45,120
1,24,80,120
1,96,45,120
1,24,80,120
1,96,45,120
1,24,80,120
1,96,45,120
1,24,80,120
1,96,45,120
1,24,80,120
1,96,45,120
1,24,80,120
1,96,45,120
1,24,80,120
1,96,45,120
1,24,80,120
1,96,45,120
1,24,80,120
1,96,45,120
1,24,80,120
1,96,45,120
1,24,80,120
1,96,45,120
2,99,50,0
2,99,50,72
2,99,60,1656
2,99,50,168
2,99,50,2592
2,99,50,168
2,99,50,3720
2,99,50,72
2,99,50,6286
2,99,50,958
2,99,50,72
2,99,50,4986
2,99,50,96
2,99,60,2040
2,99,60,5692
2,99,50,48
2,99,50,3288
2,99,50,168
2,99,50,3720
2,99,50,72
2,99,50,6286
2,99,50,958
2,99,50,72
2,99,50,4986
2,99,50,96
2,99,60,2040
2,99,60,5692
2,99,50,48
2,99,50,3288
2,99,50,168
2,99,50,3720
2,99,50,72
2,99,50,6286
2,99,50,958
2,99,50,72
2,99,50,4986
2,99,50,96
2,99,60,2040
2,99,60,5692
2,99,50,48
2,99,50,3288
2,99,50,168
2,99,50,3720
2,99,50,72
2,99,50,6286
2,99,50,958
2,99,50,72
2,99,50,4986
2,99,50,96
2,99,60,2040
2,99,60,5692
2,99,50,48
2,99,50,3288
2,99,50,168
2,99,50,3720
2,99,50,72
2,99,50,6286
2,99,50,958
2,99,50,72
2,99,50,4986
2,99,50,96
2,99,60,2040
2,99,60,5692
2,99,50,48
2,99,50,264
2,99,50,168
2,99,50,264
2,99,50,72
3,52,90,23784
3,53,90,24
3,56,90,216
3,56,90,72
3,55,90,24
3,55,90,72
3,53,90,24
3,53,90,72
3,51,90,24
3,48,90,24
3,46,90,24
3,48,90,24
3,42,90,192
3,43,90,24
3,46,90,24
3,48,90,24
3,51,90,24
3,48,90,48
3,53,90,24
3,51,90,24
3,53,90,24
3,56,90,48
3,56,90,72
3,55,90,24
3,55,90,72
3,53,90,24
3,53,90,72
3,51,90,24
3,48,90,24
3,46,90,26
3,48,90,38
3,59,90,72
3,60,90,24
3,54,90,72
3,55,90,24
3,48,90,96
3,50,90,48
3,51,90,48
3,53,90,24
3,56,90,72
3,56,90,72
3,55,90,24
3,55,90,72
3,53,90,24
3,53,90,72
3,51,90,48
3,55,90,24
3,48,90,24
3,42,90,24
3,43,90,24
3,46,90,24
3,48,90,24
3,51,90,24
3,48,90,48
3,53,90,24
3,51,90,24
3,53,90,48
3,56,90,120
3,56,90,72
3,55,90,24
3,55,90,72
3,53,90,24
3,53,90,72
3,51,90,24
3,48,90,24
3,46,90,26
3,48,90,38
3,48,90,192
3,50,90,24
3,51,90,24
3,54,90,24
3,55,90,24
3,57,90,24
3,55,90,24
3,57,90,24
3,58,90,24
3,60,90,24
3,62,90,24
3,63,90,24
3,48,90,24
3,50,90,24
3,51,90,24
3,54,90,0
3,55,90,24
3,57,90,24
3,55,90,0
3,57,90,24
3,58,90,24
3,60,90,0
3,62,90,24
3,63,90,24
3,52,90,24
3,53,90,24
3,55,90,24
3,56,90,24
3,57,90,24
3,59,90,24
3,57,90,0
3,59,90,24
3,60,90,24
3,62,90,0
3,64,90,24
3,65,90,24
3,52,90,24
3,53,90,24
3,55,90,24
3,56,90,0
3,57,90,24
3,59,90,24
3,57,90,0
3,59,90,24
3,60,90,24
3,62,90,24
3,64,90,24
3,65,90,24
3,60,90,0
3,63,90,0
3,58,90,24
3,57,90,24
3,55,90,0
3,53,90,24
3,51,90,24
3,60,90,24
3,58,90,24
3,57,90,24
3,55,90,0
3,53,90,24
3,51,90,24
3,53,90,24
3,56,90,96
3,56,90,72
3,55,90,24
3,55,90,72
3,53,90,24
3,53,90,72
3,51,90,24
3,48,90,24
3,46,90,24
3,48,90,24
3,51,90,24
3,48,90,24
3,42,90,24
3,43,90,24
3,46,90,24
3,48,90,24
3,51,90,24
3,48,90,24
3,53,90,0
3,51,90,24
3,53,90,24
3,48,90,48
3,51,90,24
3,53,90,24
3,56,90,120
3,56,90,72
3,55,90,24
3,55,90,72
3,53,90,24
3,53,90,72
3,51,90,48
3,55,90,24
3,48,90,24
3,48,90,72
3,46,90,24
3,48,90,24
3,59,90,72
3,60,90,0
3,54,90,48
3,55,90,48
3,48,90,72
3,50,90,48
3,51,90,48
3,53,90,0
3,51,90,24
3,53,90,24
3,51,90,48
3,53,90,24
3,56,90,72
3,56,90,72
3,55,90,48
3,55,90,72
3,53,90,48
3,53,90,72
3,51,90,48
3,55,90,0
3,48,90,24
3,48,90,72
3,46,90,48
3,48,90,48
3,42,90,48
3,43,90,24
3,46,90,24
3,48,90,24
3,51,90,24
3,55,90,24
3,53,90,0
3,51,90,48
3,53,90,48
3,51,90,48
3,53,90,24
3,56,90,96
3,56,90,72
3,55,90,48
3,55,90,72
3,53,90,48
3,53,90,72
3,51,90,48
3,48,90,24
3,46,90,48
3,48,90,24
3,51,90,24
3,48,90,48
3,51,90,24
3,53,90,24
3,54,90,24
3,55,90,24
3,58,90,24
3,59,90,24
3,60,90,0
3,54,90,24
3,55,90,24
3,48,90,72
3,50,90,24
3,51,90,24
3,53,90,0
3,51,90,48
3,53,90,24
3,51,90,48
3,53,90,24
3,56,90,96
3,56,90,72
3,55,90,48
3,55,90,72
3,53,90,72
3,53,90,72
3,51,90,72
3,55,90,24
3,48,90,48
3,48,90,72
3,46,90,48
3,48,90,96
3,48,90,240
3,50,90,24
3,51,90,24
3,54,90,24
3,55,90,24
3,57,90,24
3,55,90,0
3,57,90,24
3,58,90,24
3,60,90,0
3,62,90,24
3,63,90,24
3,48,90,24
3,50,90,24
3,51,90,24
3,54,90,24
3,55,90,24
3,57,90,24
3,55,90,0
3,57,90,24
3,58,90,24
3,60,90,24
3,62,90,24
3,63,90,24
3,52,90,24
3,53,90,24
3,55,90,24
3,56,90,0
3,57,90,24
3,59,90,24
3,57,90,24
3,59,90,24
3,60,90,48
3,62,90,0
3,64,90,48
3,65,90,24
3,52,90,24
3,53,90,24
3,55,90,24
3,56,90,0
3,57,90,24
3,59,90,24
3,57,90,0
3,59,90,24
3,60,90,48
3,62,90,0
3,64,90,24
3,65,90,24
3,60,90,24
3,63,90,0
3,58,90,24
3,57,90,24
3,55,90,0
3,53,90,24
3,51,90,24
3,60,90,24
3,58,90,24
3,57,90,24
3,55,90,0
3,53,90,48
3,51,90,24
3,53,90,0
3,56,90,96
3,56,90,72
3,55,90,48
3,55,90,72
3,53,90,48
3,53,90,72
3,51,90,48
3,48,90,24
3,46,90,24
3,48,90,24
3,51,90,24
3,48,90,48
3,42,90,24
3,43,90,24
3,46,90,24
3,48,90,24
3,51,90,24
3,48,90,24
3,53,90,0
3,51,90,48
3,53,90,48
3,48,90,48
3,51,90,24
3,53,90,48
3,56,90,120
3,56,90,72
3,55,90,48
3,55,90,72
3,53,90,48
3,53,90,72
3,51,90,48
3,55,90,24
3,48,90,24
3,48,90,72
3,46,90,24
3,48,90,48
3,51,90,144
3,53,90,24
3,54,90,24
3,55,90,24
3,58,90,24
3,59,90,24
3,60,90,24
3,54,90,72
3,55,90,24
3,48,90,72
3,50,90,24
3,51,90,24
3,53,90,0
3,51,90,48
3,53,90,24
3,51,90,48
3,53,90,24
3,56,90,96
3,56,90,72
3,55,90,48
3,55,90,72
3,53,90,48
3,53,90,72
3,51,90,72
3,48,90,48
3,46,90,48
3,48,90,24
3,51,90,24
3,48,90,48
3,42,90,24
3,43,90,24
3,46,90,24
3,48,90,24
3,51,90,24
3,48,90,48
3,53,90,0
3,51,90,24
3,53,90,48
3,48,90,48
3,51,90,48
3,53,90,24
3,56,90,96
3,56,90,72
3,55,90,48
3,55,90,72
3,53,90,48
3,53,90,72
3,51,90,48
3,55,90,24
3,48,90,24
3,48,90,72
3,46,90,24
3,48,90,48
3,51,90,96
3,53,90,24
3,54,90,24
3,55,90,24
3,58,90,24
3,59,80,24
3,60,70,24
3,54,60,24
3,55,40,48
3,48,20,24
3,50,10,48
3,51,5,48
3,53,1,0
4,66,60,50112
4,67,60,576
4,69,60,528
4,72,60,312
4,70,60,528
4,72,60,552
4,70,60,360
4,72,60,528
4,74,60,552
4,75,60,336
4,77,60,504
4,79,60,552
4,66,60,0
4,67,60,576
4,69,60,528
4,72,60,360
4,70,60,528
4,72,60,552
4,70,60,360
4,72,60,528
4,74,60,552
4,75,60,336
4,77,60,504
4,79,60,552
4,68,60,0
4,69,60,576
4,71,60,552
4,74,60,336
4,72,60,0
4,74,60,576
4,72,60,360
4,74,60,552
4,76,60,528
4,77,60,336
4,79,60,552
4,81,60,552
4,68,60,24
4,69,60,576
4,71,60,552
4,74,60,336
4,72,60,0
4,74,60,0
4,72,60,384
4,74,60,552
4,76,60,528
4,77,60,336
4,79,60,552
4,81,60,552
4,75,60,24
4,74,60,576
4,72,60,552
4,70,60,312
4,69,60,504
4,67,60,552
4,72,60,336
4,70,60,528
4,69,60,552
4,67,60,312
4,65,60,0
4,63,60,576
4,65,60,312
4,66,60,32088
4,67,60,576
4,69,60,528
4,72,60,312
4,70,60,528
4,72,60,552
4,70,60,360
4,72,60,528
4,74,60,552
4,75,60,336
4,77,60,504
4,79,60,552
4,66,60,0
4,67,60,576
4,69,60,528
4,72,60,360
4,70,60,528
4,72,60,552
4,70,60,360
4,72,60,528
4,74,60,552
4,75,60,336
4,77,60,504
4,79,60,552
4,68,60,0
4,69,60,576
4,71,60,552
4,74,60,336
4,72,60,0
4,74,60,576
4,72,60,360
4,74,60,552
4,76,60,528
4,77,60,336
4,79,60,552
4,81,60,552
4,68,60,24
4,69,60,576
4,71,60,552
4,74,60,336
4,72,60,0
4,74,60,0
4,72,60,384
4,74,60,552
4,76,60,528
4,77,60,336
4,79,60,552
4,81,60,552
4,75,60,24
4,74,60,576
4,72,60,552
4,70,60,312
4,69,60,504
4,67,60,552
4,72,60,336
4,70,60,528
4,69,60,552
4,67,60,312
4,65,60,0
4,63,60,576
4,65,60,312
4,72,70,720
4,70,70,168
4,67,70,168
4,65,70,168
4,67,70,744
4,70,70,168
4,72,70,192
4,75,70,336
4,72,70,168
4,77,70,744
4,75,70,144
4,70,80,0
4,67,70,0
4,65,70,0
4,67,70,0
4,70,70,24
4,67,70,0
4,72,70,192
4,70,70,312
4,67,70,0
4,65,70,0
4,67,70,0
4,75,70,24
4,75,70,24
4,72,70,0
4,77,70,192
4,75,70,144
4,72,70,0
4,75,70,576
4,72,70,0
4,77,70,0
4,75,70,0
4,79,70,192
4,77,70,168
4,72,70,144
4,70,70,72
4,66,70,0
4,67,70,192
4,72,70,0
4,72,70,0
4,75,70,384
4,72,70,0
4,67,70,192
4,77,70,0
4,75,70,0
4,72,70,0
4,77,70,192
4,79,70,0
4,77,70,0
4,75,70,0
4,72,70,0
4,75,70,0
4,72,70,0
4,75,70,192
4,77,70,0
4,75,70,192
4,72,70,0
4,77,70,0
4,75,70,0
4,72,70,192
4,67,70,120
4,70,70,144
4,72,70,168
4,66,70,360
4,67,70,168
4,77,70,144
4,75,70,168
4,72,70,144
4,70,70,168
4,75,70,144
4,72,70,144
4,70,70,0
4,72,70,192
4,67,70,0
4,75,70,24
4,75,70,0
4,75,70,72
4,72,70,0
4,70,70,0
4,75,70,144
4,72,70,24
4,75,70,384
4,72,70,0
4,77,70,0
4,75,70,0
4,79,70,192
4,77,70,168
4,72,70,144
4,70,70,192
4,66,70,0
4,67,70,192
4,72,70,0
4,72,70,0
4,75,60,72
4,72,50,0
4,75,40,0
4,77,30,0
4,75,20,0
4,72,10,0
5,38,64,50112
5,38,64,0
5,43,64,0
5,43,64,0
5,38,64,0
5,38,64,0
5,43,64,0
5,43,64,0
5,40,64,0
5,40,64,0
5,45,64,0
5,45,64,0
5,40,64,0
5,40,64,0
5,45,64,0
5,45,64,0
5,48,64,0
5,43,64,24
5,48,64,24
5,46,64,576
5,45,64,528
5,43,64,360
5,41,64,0
5,39,64,576
5,41,64,360
5,44,64,96
5,44,64,24
5,43,64,192
5,43,64,24
5,41,64,192
5,41,64,24
5,39,64,192
5,36,64,144
5,34,64,24
5,36,64,192
5,39,64,168
5,36,64,312
5,30,64,24
5,31,64,24
5,34,64,0
5,36,64,0
5,39,64,0
5,36,64,384
5,41,64,168
5,39,64,0
5,41,64,0
5,36,64,0
5,39,64,0
5,41,64,0
5,44,64,0
5,44,64,24
5,43,64,192
5,43,64,24
5,41,64,192
5,41,64,24
5,39,64,192
5,43,64,144
5,36,64,360
5,36,64,24
5,34,64,192
5,36,64,0
5,47,64,1536
5,48,64,168
5,42,64,0
5,43,64,0
5,36,64,384
5,38,64,0
5,39,64,0
5,41,64,0
5,39,64,0
5,41,64,168
5,39,64,0
5,41,64,0
5,44,64,144
5,44,64,24
5,43,64,0
5,43,64,24
5,41,64,0
5,41,64,24
5,39,64,0
5,43,64,192
5,36,64,0
5,36,64,0
5,34,64,0
5,36,64,384
5,30,64,336
5,31,64,24
5,34,64,0
5,36,64,0
5,39,64,0
5,43,64,384
5,41,64,168
5,39,64,0
5,41,64,0
5,39,64,0
5,41,64,0
5,44,64,360
5,44,64,24
5,43,64,192
5,43,64,24
5,41,64,192
5,41,64,24
5,39,64,192
5,36,64,144
5,34,64,0
5,36,64,0
5,39,64,192
5,36,64,0
5,39,64,576
5,41,64,144
5,42,64,144
5,43,64,168
5,46,64,144
5,47,64,144
5,48,64,144
5,42,64,360
5,43,64,168
5,36,64,0
5,38,64,192
5,39,64,168
5,41,64,168
5,39,64,0
5,41,64,192
5,39,64,0
5,41,64,384
5,44,64,0
5,44,64,24
5,43,64,0
5,43,64,24
5,41,64,0
5,41,64,24
5,39,64,0
5,43,64,192
5,36,64,552
5,36,64,0
5,34,64,192
5,36,64,0
5,38,64,240
5,38,64,0
5,43,64,0
5,43,64,0
5,38,64,0
5,38,64,0
5,43,64,0
5,43,64,0
5,40,64,0
5,40,64,0
5,45,64,0
5,45,64,0
5,40,64,0
5,40,64,0
5,45,64,0
5,45,64,0
5,48,64,0
5,43,64,24
5,48,70,0
5,46,70,576
5,45,70,528
5,43,70,360
5,41,70,0
5,39,70,576
5,41,70,360
5,44,70,96
5,44,70,24
5,43,70,192
5,43,70,24
5,41,70,192
5,41,70,24
5,39,70,192
5,36,70,144
5,34,70,24
5,36,70,192
5,39,70,168
5,36,70,312
5,30,70,24
5,31,70,24
5,34,70,0
5,36,70,0
5,39,70,0
5,36,70,384
5,41,70,168
5,39,70,0
5,41,70,0
5,36,70,0
5,39,70,0
5,41,70,0
5,44,70,0
5,44,70,24
5,43,70,192
5,43,70,24
5,41,70,192
5,41,70,24
5,39,70,192
5,43,70,144
5,36,70,360
5,36,70,24
5,34,70,192
5,36,70,0
5,36,70,0
5,39,70,384
5,41,70,144
5,42,70,144
5,43,70,168
5,46,70,144
5,47,70,144
5,48,70,144
5,42,70,360
5,43,70,168
5,36,70,0
5,38,70,192
5,39,70,168
5,41,70,168
5,39,70,0
5,41,70,192
5,39,70,0
5,41,70,384
5,44,70,0
5,44,70,24
5,43,70,0
5,43,70,24
5,41,70,0
5,41,70,24
5,39,70,0
5,36,70,192
5,34,70,552
5,36,70,168
5,39,70,144
5,36,70,0
5,30,70,0
5,31,70,24
5,34,70,0
5,36,70,0
5,39,70,0
5,36,70,192
5,41,70,168
5,39,70,0
5,41,70,0
5,36,70,0
5,39,70,0
5,41,70,0
5,44,70,168
5,44,70,24
5,43,70,192
5,43,70,24
5,41,70,192
5,41,70,24
5,39,70,192
5,43,70,144
5,36,70,360
5,36,70,24
