track,note,velocity,time
0,38,110,1127
0,40,110,627
0,40,110,51
0,40,110,51
0,40,110,51
0,38,110,51
0,40,110,51
0,40,110,51
0,40,110,51
0,40,110,51
0,29,96,51
0,41,96,0
0,42,110,0
0,36,110,0
0,41,96,3
0,29,96,3
0,42,110,0
0,41,96,3
0,42,110,0
0,36,110,0
0,29,96,51
0,36,110,0
0,56,110,0
0,69,110,0
0,41,96,3
0,29,96,3
0,69,110,0
0,36,110,51
0,69,110,0
0,36,110,3
0,69,110,0
0,29,96,51
0,41,96,3
0,69,110,0
0,29,96,3
0,36,110,0
0,69,110,0
0,40,110,0
0,24,96,3
0,41,96,0
0,36,96,0
0,36,110,0
0,56,110,0
0,69,110,0
0,40,110,0
0,29,96,3
0,41,96,3
0,41,96,0
0,69,110,0
0,36,110,51
0,69,110,0
0,29,96,3
0,29,96,0
0,36,110,0
0,69,110,0
0,41,96,3
0,29,96,3
0,69,110,0
0,41,96,3
0,69,110,0
0,36,110,0
0,29,96,51
0,69,110,0
0,36,110,0
0,41,96,3
0,29,96,3
0,69,110,0
0,69,110,51
0,56,110,0
0,36,110,0
0,69,110,3
0,36,110,0
0,29,96,51
0,41,96,3
0,69,110,0
0,29,96,3
0,69,110,0
0,36,110,0
0,24,96,3
0,36,96,0
0,41,96,0
0,69,110,0
0,56,110,0
0,36,110,0
0,29,96,3
0,41,96,3
0,36,96,0
0,69,110,0
0,69,110,51
0,36,110,0
0,29,96,3
0,41,96,0
0,69,110,0
0,36,110,0
0,41,96,3
0,29,96,3
0,69,110,0
0,41,96,3
0,36,110,0
0,69,110,0
0,46,110,0
0,29,96,51
0,36,110,0
0,69,110,0
0,56,110,0
0,46,110,0
0,41,96,3
0,29,96,3
0,69,110,0
0,36,110,51
0,69,110,0
0,36,110,3
0,69,110,0
0,29,96,51
0,41,96,3
0,69,110,0
0,29,96,3
0,36,110,0
0,69,110,0
0,38,110,0
0,24,96,3
0,41,96,0
0,36,96,0
0,36,110,0
0,69,110,0
0,56,110,0
0,39,110,0
0,29,96,3
0,41,96,3
0,41,96,0
0,69,110,0
0,36,110,51
0,69,110,0
0,29,96,0
0,29,96,0
0,36,110,0
0,69,110,0
0,36,110,0
0,41,96,3
0,29,96,3
0,69,110,0
0,41,96,3
0,69,110,0
0,36,110,0
0,46,110,0
0,29,96,51
0,69,110,0
0,36,110,0
0,46,110,0
0,41,96,3
0,29,96,3
0,69,110,0
0,69,110,51
0,36,110,0
0,56,110,0
0,69,110,3
0,36,110,0
0,29,96,51
0,41,96,3
0,69,110,0
0,29,96,3
0,69,110,0
0,36,110,0
0,38,110,0
0,24,96,3
0,36,96,0
0,41,96,0
0,69,110,0
0,56,110,0
0,36,110,0
0,29,96,3
0,38,110,0
0,41,96,3
0,36,96,0
0,69,110,0
0,38,110,0
0,69,110,51
0,36,110,0
0,29,96,3
0,41,96,0
0,65,96,0
0,69,110,0
0,36,110,0
0,41,96,3
0,29,96,3
0,72,96,0
0,69,110,0
0,41,96,3
0,36,110,0
0,69,110,0
0,46,110,0
0,29,96,3
0,69,96,0
0,36,110,0
0,69,110,0
0,56,110,0
0,46,110,0
0,41,96,3
0,29,96,3
0,65,96,0
0,69,110,0
0,72,96,3
0,36,110,0
0,69,110,0
0,36,110,3
0,69,110,0
0,29,96,3
0,72,96,0
0,41,96,3
0,69,110,0
0,29,96,3
0,72,96,0
0,36,110,0
0,69,110,0
0,40,110,0
0,24,96,3
0,41,96,0
0,36,96,0
0,69,96,0
0,36,110,0
0,69,110,0
0,56,110,0
0,40,110,0
0,29,96,3
0,41,96,3
0,41,96,0
0,65,96,0
0,69,110,0
0,36,110,51
0,69,110,0
0,36,96,0
0,36,96,0
0,67,96,0
0,36,110,0
0,69,110,0
0,36,110,0
0,48,96,3
0,36,96,3
0,67,96,0
0,69,110,0
0,48,96,3
0,69,110,0
0,36,110,0
0,46,110,0
0,24,96,3
0,66,96,0
0,69,110,0
0,36,110,0
0,46,110,0
0,48,96,3
0,36,96,3
0,67,96,0
0,69,110,0
0,72,96,3
0,69,110,0
0,36,110,0
0,56,110,0
0,69,110,3
0,36,110,0
0,36,96,3
0,72,96,0
0,48,96,3
0,69,110,0
0,36,96,3
0,69,110,0
0,36,110,0
0,31,96,0
0,36,96,0
0,36,96,0
0,69,110,0
0,36,110,0
0,56,110,0
0,36,96,3
0,48,96,3
0,32,96,0
0,69,110,0
0,69,110,51
0,36,110,0
0,37,96,3
0,37,96,0
0,73,96,0
0,69,110,0
0,36,110,0
0,49,96,3
0,37,96,3
0,68,96,0
0,69,110,0
0,49,96,3
0,36,110,0
0,69,110,0
0,46,110,0
0,25,96,3
0,77,96,0
0,36,110,0
0,69,110,0
0,56,110,0
0,46,110,0
0,49,96,3
0,37,96,3
0,75,96,0
0,69,110,0
0,77,96,3
0,36,110,0
0,69,110,0
0,36,110,3
0,69,110,0
0,37,96,3
0,77,96,0
0,49,96,3
0,69,110,0
0,37,96,3
0,77,96,0
0,36,110,0
0,69,110,0
0,38,110,0
0,32,96,3
0,37,96,0
0,32,96,0
0,75,96,0
0,36,110,0
0,69,110,0
0,56,110,0
0,39,110,0
0,37,96,3
0,49,96,3
0,37,96,0
0,73,96,0
0,69,110,0
0,36,110,51
0,69,110,0
0,32,96,0
0,32,96,0
0,75,96,0
0,36,110,0
0,69,110,0
0,36,110,0
0,44,96,3
0,32,96,3
0,75,96,0
0,69,110,0
0,44,96,3
0,69,110,0
0,36,110,0
0,46,110,0
0,32,96,3
0,72,96,0
0,69,110,0
0,36,110,0
0,46,110,0
0,44,96,3
0,32,96,3
0,73,96,0
0,69,110,0
0,75,96,3
0,69,110,0
0,36,110,0
0,56,110,0
0,69,110,3
0,36,110,0
0,32,96,3
0,75,96,0
0,44,96,3
0,32,96,0
0,69,110,0
0,32,96,3
0,75,96,0
0,69,110,0
0,36,110,0
0,38,110,0
0,27,96,0
0,32,96,0
0,32,96,0
0,73,96,0
0,69,110,0
0,36,110,0
0,56,110,0
0,32,96,3
0,38,110,0
0,44,96,3
0,32,96,0
0,72,96,0
0,69,110,0
0,38,110,0
0,69,110,51
0,36,110,0
0,34,127,3
0,34,96,0
0,70,96,0
0,69,110,0
0,36,110,0
0,46,115,3
0,34,121,3
0,73,96,0
0,69,110,0
0,46,118,3
0,36,110,0
0,69,110,0
0,46,110,0
0,34,96,3
0,72,96,0
0,36,110,0
0,69,110,0
0,56,110,0
0,46,110,0
0,46,118,3
0,34,127,3
0,65,96,0
0,69,110,0
0,73,96,3
0,36,110,0
0,69,110,0
0,34,96,3
0,36,110,0
0,69,110,0
0,34,113,3
0,73,96,0
0,46,100,3
0,34,96,0
0,69,110,0
0,34,118,3
0,73,96,0
0,36,110,0
0,69,110,0
0,40,110,0
0,29,127,0
0,34,96,0
0,34,96,0
0,72,96,0
0,36,110,0
0,69,110,0
0,56,110,0
0,40,110,0
0,34,127,3
0,46,127,3
0,32,96,0
0,70,96,0
0,69,110,0
0,36,110,51
0,69,110,0
0,32,126,0
0,32,96,0
0,73,96,0
0,36,110,0
0,69,110,0
0,36,110,0
0,44,121,3
0,32,127,3
0,73,96,0
0,69,110,0
0,44,127,3
0,69,110,0
0,36,110,0
0,46,110,0
0,32,96,3
0,72,96,0
0,69,110,0
0,36,110,0
0,46,110,0
0,44,123,3
0,32,127,3
0,70,96,0
0,69,110,0
0,73,96,3
0,69,110,0
0,36,110,0
0,56,110,0
0,69,110,3
0,36,110,0
0,32,123,3
0,73,96,0
0,44,126,3
0,69,110,0
0,32,127,3
0,73,96,0
0,69,110,0
0,36,110,0
0,27,127,0
0,32,96,0
0,32,96,0
0,72,96,0
0,69,110,0
0,36,110,0
0,56,110,0
0,32,115,3
0,44,121,3
0,32,96,0
0,70,96,0
0,69,110,0
0,69,110,51
0,36,110,0
0,36,127,3
0,36,96,0
0,72,96,0
0,69,110,0
0,36,110,0
0,48,121,3
0,36,127,3
0,72,96,0
0,69,110,0
0,48,114,3
0,36,110,0
0,69,110,0
0,46,110,0
0,24,96,3
0,36,110,0
0,69,110,0
0,56,110,0
0,46,110,0
0,48,127,3
0,72,96,0
0,36,127,3
0,69,110,0
0,36,110,3
0,69,110,0
0,72,96,3
0,36,110,0
0,69,110,0
0,36,121,51
0,48,110,3
0,72,96,0
0,69,110,0
0,36,127,3
0,36,110,0
0,69,110,0
0,38,110,0
0,31,127,3
0,36,96,0
0,31,96,0
0,36,110,0
0,69,110,0
0,56,110,0
0,39,110,0
0,36,127,3
0,72,96,0
0,48,127,3
0,36,96,0
0,69,110,0
0,36,110,3
0,69,110,0
0,36,127,0
0,24,96,0
0,72,96,0
0,36,110,0
0,69,110,0
0,36,110,0
0,48,118,3
0,36,127,3
0,72,96,0
0,69,110,0
0,48,127,3
0,69,110,0
0,36,110,0
0,46,110,0
0,24,96,3
0,69,110,0
0,36,110,0
0,46,110,0
0,48,127,3
0,72,96,0
0,36,127,3
0,69,110,0
0,69,110,3
0,36,110,0
0,56,110,0
0,72,96,3
0,69,110,0
0,36,110,0
0,36,113,51
0,38,110,0
0,48,117,3
0,31,96,0
0,72,96,0
0,69,110,0
0,38,110,0
0,36,125,3
0,69,110,0
0,38,110,0
0,31,127,3
0,31,96,0
0,36,96,0
0,69,110,0
0,56,110,0
0,38,110,0
0,36,127,3
0,72,96,0
0,38,110,0
0,48,127,3
0,36,96,0
0,69,110,0
0,38,110,0
0,69,110,3
0,36,110,0
0,29,121,3
0,41,96,0
0,65,96,0
0,69,110,0
0,36,110,0
0,41,113,3
0,29,127,3
0,72,96,0
0,69,110,0
0,41,127,3
0,36,110,0
0,69,110,0
0,46,110,0
0,29,96,3
0,69,96,0
0,36,110,0
0,69,110,0
0,56,110,0
0,46,110,0
0,41,127,3
0,29,127,3
0,65,96,0
0,69,110,0
0,72,96,3
0,36,110,0
0,69,110,0
0,36,110,3
0,69,110,0
0,29,123,3
0,72,96,0
0,41,117,3
0,41,96,0
0,69,110,0
0,29,127,3
0,72,96,0
0,36,110,0
0,69,110,0
0,40,110,0
0,24,127,3
0,41,96,0
0,36,96,0
0,69,96,0
0,36,110,0
0,69,110,0
0,56,110,0
0,40,110,0
0,29,127,3
0,41,127,3
0,41,96,0
0,65,96,0
0,69,110,0
0,36,110,51
0,69,110,0
0,36,127,0
0,36,96,0
0,67,96,0
0,36,110,0
0,69,110,0
0,36,110,0
0,48,117,3
0,36,111,3
0,67,96,0
0,69,110,0
0,48,117,3
0,69,110,0
0,36,110,0
0,46,110,0
0,24,96,3
0,66,96,0
0,69,110,0
0,36,110,0
0,46,110,0
0,48,120,3
0,36,127,3
0,67,96,0
0,69,110,0
0,72,96,3
0,69,110,0
0,36,110,0
0,56,110,0
0,69,110,3
0,36,110,0
0,36,117,3
0,72,96,0
0,48,127,3
0,36,96,0
0,69,110,0
0,36,120,3
0,69,110,0
0,36,110,0
0,31,127,0
0,36,96,0
0,36,96,0
0,69,110,0
0,36,110,0
0,56,110,0
0,36,127,3
0,48,127,3
0,31,96,0
0,69,110,0
0,69,110,51
0,36,110,0
0,37,127,3
0,37,96,0
0,73,96,0
0,69,110,0
0,36,110,0
0,49,123,3
0,37,127,3
0,68,96,0
0,69,110,0
0,49,121,3
0,36,110,0
0,69,110,0
0,46,110,0
0,25,96,3
0,77,96,0
0,36,110,0
0,69,110,0
0,56,110,0
0,46,110,0
0,49,101,3
0,37,126,3
0,75,96,0
0,69,110,0
0,77,96,3
0,36,110,0
0,69,110,0
0,36,110,3
0,69,110,0
0,37,127,3
0,77,96,0
0,49,123,3
0,37,96,0
0,69,110,0
0,37,127,3
0,77,96,0
0,36,110,0
0,69,110,0
0,38,110,0
0,32,127,3
0,37,96,0
0,32,96,0
0,75,96,0
0,36,110,0
0,69,110,0
0,56,110,0
0,39,110,0
0,37,127,3
0,49,115,3
0,37,96,0
0,73,96,0
0,69,110,0
0,36,110,51
0,69,110,0
0,32,127,0
0,32,96,0
0,75,96,0
0,36,110,0
0,69,110,0
0,36,110,0
0,44,121,3
0,32,123,3
0,75,96,0
0,69,110,0
0,44,115,3
0,69,110,0
0,36,110,0
0,46,110,0
0,32,96,3
0,72,96,0
0,69,110,0
0,36,110,0
0,46,110,0
0,44,121,3
0,32,118,3
0,73,96,0
0,69,110,0
0,75,96,3
0,69,110,0
0,36,110,0
0,56,110,0
0,69,110,3
0,36,110,0
0,32,105,3
0,38,110,0
0,44,115,3
0,39,96,0
0,75,96,0
0,69,110,0
0,38,110,0
0,32,115,3
0,69,110,0
0,38,110,0
0,27,127,3
0,39,96,0
0,44,96,0
0,69,110,0
0,56,110,0
0,38,110,0
0,32,127,3
0,38,110,0
0,44,121,3
0,32,96,0
0,69,110,0
0,38,110,0
0,68,96,51
0,69,110,0
0,36,110,0
0,34,113,3
0,34,96,0
0,70,96,0
0,69,110,0
0,36,110,0
0,46,95,3
0,34,107,3
0,73,96,0
0,69,110,0
0,46,118,3
0,36,110,0
0,69,110,0
0,46,110,0
0,34,96,3
0,72,96,0
0,36,110,0
0,69,110,0
0,56,110,0
0,46,110,0
0,46,127,3
0,34,127,3
0,70,96,0
0,69,110,0
0,73,96,3
0,36,110,0
0,69,110,0
0,36,110,3
0,69,110,0
0,34,127,51
0,46,107,3
0,73,96,0
0,69,110,0
0,34,126,3
0,73,96,0
0,36,110,0
0,69,110,0
0,40,110,0
0,29,127,3
0,34,96,0
0,32,96,0
0,72,96,0
0,36,110,0
0,69,110,0
0,56,110,0
0,40,110,0
0,34,123,3
0,46,127,3
0,37,96,0
0,65,96,0
0,69,110,0
0,36,110,51
0,69,110,0
0,30,121,0
0,30,96,0
0,73,96,0
0,36,110,0
0,69,110,0
0,36,110,0
0,46,110,0
0,42,126,3
0,30,127,3
0,73,96,0
0,69,110,0
0,42,127,3
0,69,110,0
0,36,110,0
0,46,110,0
0,30,96,3
0,72,96,0
0,69,110,0
0,36,110,0
0,46,110,0
0,42,123,3
0,30,127,3
0,70,96,0
0,69,110,0
0,73,96,3
0,69,110,0
0,36,110,0
0,56,110,0
0,69,110,3
0,36,110,0
0,30,127,3
0,73,96,0
0,42,126,3
0,69,110,0
0,30,127,3
0,73,96,0
0,69,110,0
0,36,110,0
0,25,127,3
0,30,96,0
0,42,96,0
0,72,96,0
0,69,110,0
0,36,110,0
0,56,110,0
0,32,127,3
0,44,127,3
0,30,96,0
0,70,96,0
0,69,110,0
0,69,110,51
0,36,110,0
0,36,127,3
0,36,96,0
0,72,96,0
0,72,110,0
0,69,110,0
0,36,110,0
0,46,110,0
0,72,110,3
0,48,127,3
0,72,110,0
0,72,110,3
0,36,127,3
0,72,96,0
0,72,110,0
0,69,110,0
0,72,110,3
0,48,127,3
0,72,110,0
0,36,110,0
0,69,110,0
0,46,110,0
0,72,110,3
0,24,96,3
0,72,110,0
0,36,110,0
0,69,110,0
0,56,110,0
0,46,110,0
0,72,110,3
0,48,127,3
0,72,96,0
0,72,110,0
0,72,110,3
0,36,127,3
0,72,110,0
0,69,110,0
0,72,110,3
0,72,110,3
0,36,110,0
0,69,110,0
0,72,110,3
0,72,96,3
0,72,110,0
0,36,110,0
0,69,110,0
0,72,110,3
0,36,127,3
0,72,110,0
0,72,110,3
0,48,127,3
0,72,96,0
0,72,110,0
0,69,110,0
0,72,110,3
0,36,127,3
0,72,110,0
0,36,110,0
0,69,110,0
0,38,110,0
0,72,110,3
0,31,127,0
0,36,96,0
0,36,96,0
0,72,110,0
0,36,110,0
0,69,110,0
0,56,110,0
0,39,110,0
0,72,110,3
0,36,127,3
0,72,96,0
0,72,110,0
0,72,110,3
0,48,127,3
0,36,96,0
0,72,110,0
0,69,110,0
0,72,110,3
0,72,110,3
0,36,110,0
0,69,110,0
0,72,110,3
0,36,127,0
0,24,96,0
0,72,96,0
0,72,110,0
0,36,110,0
0,69,110,0
0,36,110,0
0,46,110,0
0,72,110,3
0,48,120,3
0,72,110,0
0,72,110,3
0,36,127,3
