track,note,velocity,time
1,70,100,1152
1,60,100,192
1,67,100,24
1,60,100,192
1,70,100,24
1,60,100,192
1,67,100,24
1,60,100,192
1,68,100,24
1,60,100,192
1,65,100,24
1,60,100,192
1,68,100,24
1,60,100,192
1,65,100,24
1,60,100,192
1,70,100,24
1,60,100,192
1,67,100,24
1,60,100,192
1,70,100,24
1,60,100,192
1,67,100,24
1,60,100,192
1,68,100,24
1,60,100,192
1,65,100,24
1,60,100,192
1,68,100,24
1,60,100,192
1,65,100,24
1,60,100,192
1,70,100,24
1,60,100,192
1,67,100,24
1,60,100,192
1,70,100,24
1,60,100,192
1,67,100,24
1,60,100,192
1,68,100,24
1,60,100,192
1,65,100,24
1,60,100,192
1,68,100,24
1,60,100,192
1,65,100,24
1,60,100,192
1,70,100,24
1,60,100,192
1,67,100,24
1,60,100,192
1,70,100,24
1,60,100,192
1,67,100,24
1,60,100,192
1,68,100,24
1,60,100,192
1,65,100,24
1,60,100,192
1,68,100,24
1,60,100,192
1,65,100,24
1,60,100,192
1,70,100,24
1,60,100,192
1,67,100,24
1,60,100,192
1,70,100,24
1,60,100,192
1,67,100,24
1,60,100,192
1,68,100,24
1,60,100,192
1,65,100,24
1,60,100,192
1,68,100,24
1,60,100,192
1,65,100,24
1,60,100,192
1,73,100,24
1,64,100,192
1,70,100,24
1,64,100,192
1,73,100,24
1,64,100,192
1,70,100,24
1,64,100,192
1,72,100,24
1,65,100,192
1,68,100,24
1,65,100,192
1,72,100,24
1,65,100,192
1,68,100,24
1,65,100,192
1,74,100,24
1,65,100,192
1,71,100,48
1,65,100,168
1,74,100,24
1,65,100,192
1,71,100,24
1,65,100,192
1,76,100,24
1,67,100,192
1,72,100,24
1,67,100,192
1,76,100,24
1,70,100,24
1,60,100,192
1,67,100,24
1,60,100,192
1,70,100,24
1,60,100,192
1,67,100,24
1,60,100,192
1,68,100,24
1,60,100,192
1,65,100,24
1,60,100,192
1,68,100,24
1,60,100,192
1,65,100,24
1,60,100,192
1,70,100,24
1,60,100,192
1,67,100,24
1,60,100,192
1,70,100,24
1,60,100,192
1,67,100,24
1,60,100,192
1,68,100,24
1,60,100,192
1,65,100,24
1,60,100,192
1,68,100,24
1,60,100,192
1,65,100,24
1,60,100,192
1,70,100,24
1,60,100,192
1,67,100,24
1,60,100,192
1,70,100,24
1,60,100,192
1,67,100,24
1,60,100,192
1,68,100,24
1,60,100,192
1,65,100,24
1,60,100,192
1,68,100,24
1,60,100,192
1,65,100,24
1,60,100,192
1,67,100,24
1,58,100,192
1,64,100,24
1,58,100,216
1,67,100,0
1,58,100,192
1,64,100,24
1,58,100,168
1,65,100,48
1,57,100,192
1,62,100,24
1,57,100,192
1,65,100,24
1,57,100,192
1,62,100,24
1,57,100,192
1,64,100,24
1,57,100,192
1,64,100,24
1,57,100,192
1,64,100,24
1,57,100,192
1,64,100,24
1,67,100,192
1,65,100,24
1,57,100,192
1,65,100,24
1,57,100,192
1,65,100,24
1,57,100,192
1,65,100,24
1,67,100,192
1,64,100,24
1,57,100,192
1,64,100,24
1,57,100,192
1,64,100,24
1,57,100,192
1,64,100,24
1,67,100,192
1,65,100,24
1,57,100,192
1,65,100,24
1,57,100,192
1,65,100,24
1,57,100,192
1,65,100,24
1,67,100,192
1,69,100,24
1,66,100,0
1,62,100,192
1,69,100,24
1,66,100,0
1,62,100,192
1,66,100,24
1,69,100,0
1,62,100,192
1,69,100,24
1,66,100,0
1,72,100,192
1,70,100,24
1,67,100,0
1,62,100,192
1,67,100,24
1,70,100,0
1,62,100,192
1,70,100,24
1,67,100,0
1,62,100,192
1,67,100,24
1,70,100,0
1,72,100,192
1,69,100,24
1,66,100,0
1,62,100,192
1,69,100,24
1,66,100,0
1,62,100,192
1,66,100,24
1,69,100,0
1,62,100,192
1,69,100,24
1,66,100,0
1,72,100,192
1,70,100,24
1,67,100,0
1,62,100,192
1,67,100,24
1,70,100,0
1,62,100,192
1,70,100,24
1,67,100,0
1,62,100,192
1,67,100,24
1,70,100,0
1,62,100,192
1,66,100,24
1,71,100,0
1,63,100,192
1,66,100,24
1,71,100,0
1,63,100,192
1,71,100,24
1,63,100,192
1,66,100,24
1,71,100,0
1,63,100,192
1,67,100,24
1,71,100,0
1,64,100,192
1,67,100,24
1,71,100,0
1,64,100,192
1,67,100,24
1,71,100,0
1,64,100,192
1,67,100,24
1,71,100,0
1,64,100,192
1,67,100,24
1,62,100,192
1,67,100,24
1,62,100,192
1,67,100,24
1,62,100,192
1,67,100,24
1,62,100,192
1,70,100,24
1,60,100,192
1,67,100,24
1,60,100,192
1,70,100,24
1,60,100,192
1,67,100,24
1,60,100,192
1,68,100,24
1,60,100,192
1,65,100,24
1,60,100,192
1,68,100,24
1,60,100,192
1,65,100,24
1,60,100,192
1,70,100,24
1,60,100,192
1,67,100,24
1,60,100,192
1,70,100,24
1,60,100,192
1,67,100,24
1,60,100,192
1,68,100,24
1,60,100,192
1,65,100,24
1,60,100,192
1,68,100,24
1,60,100,192
1,65,100,24
1,60,100,192
1,70,100,24
1,60,100,192
1,67,100,24
1,60,100,192
1,70,100,24
1,60,100,192
1,67,100,24
1,60,100,192
1,68,100,24
1,60,100,192
1,65,100,24
1,60,100,192
1,68,100,24
1,60,100,192
1,65,100,24
1,60,100,192
1,73,100,24
1,64,100,192
1,70,100,24
1,64,100,192
1,73,100,24
1,64,100,192
1,70,100,24
1,64,100,192
1,72,100,24
1,65,100,192
1,68,100,24
1,65,100,192
1,72,100,24
1,65,100,192
1,68,100,24
1,65,100,192
1,74,100,24
1,65,100,192
1,71,100,48
1,65,100,168
1,74,100,24
1,65,100,192
1,71,100,24
1,65,100,192
1,76,100,24
1,67,100,192
1,72,100,24
1,67,100,192
1,76,100,24
1,70,100,24
1,60,100,192
1,67,100,24
1,60,100,192
1,70,100,24
1,60,100,192
1,67,100,24
1,60,100,192
1,68,100,24
1,60,100,192
1,65,100,24
1,60,100,192
1,68,100,24
1,60,100,192
1,65,100,24
1,60,100,192
1,70,100,24
1,60,100,192
1,67,100,24
1,60,100,192
1,70,100,24
1,60,100,192
1,67,100,24
1,60,100,192
1,68,100,24
1,60,100,192
1,65,100,24
1,60,100,192
1,68,100,24
1,60,100,192
1,65,100,24
1,60,100,192
1,70,100,24
1,60,100,192
1,67,100,24
1,60,100,192
1,70,100,24
1,60,100,192
1,67,100,24
1,60,100,192
1,68,100,24
1,60,100,192
1,65,100,24
1,60,100,192
1,68,100,24
1,60,100,192
1,65,100,24
1,60,100,192
1,67,100,24
1,58,100,192
1,64,100,24
1,58,100,216
1,67,100,0
1,58,100,192
1,64,100,24
1,58,100,168
1,65,100,48
1,57,100,192
1,62,100,24
1,57,100,192
1,65,100,24
1,57,100,192
1,62,100,24
1,57,100,192
1,64,100,24
1,57,100,192
1,64,100,24
1,57,100,192
1,64,100,24
1,57,100,192
1,64,100,24
1,67,100,192
1,65,100,24
1,57,100,192
1,65,100,24
1,57,100,192
1,65,100,24
1,57,100,192
1,65,100,24
1,67,100,192
1,64,100,24
1,57,100,192
1,64,100,24
1,57,100,192
1,64,100,24
1,57,100,192
1,64,100,24
1,67,100,192
1,65,100,24
1,57,100,192
1,65,100,24
1,57,100,192
1,65,100,24
1,57,100,192
1,65,100,24
1,67,100,192
1,69,100,24
1,66,100,0
1,62,100,192
1,69,100,24
1,66,100,0
1,62,100,192
1,66,100,24
1,69,100,0
1,62,100,192
1,69,100,24
1,66,100,0
1,72,100,192
1,70,100,24
1,67,100,0
1,62,100,192
1,67,100,24
1,70,100,0
1,62,100,192
1,70,100,24
1,67,100,0
1,62,100,192
1,67,100,24
1,70,100,0
1,72,100,192
1,69,100,24
1,66,100,0
1,62,100,192
1,69,100,24
1,66,100,0
1,62,100,192
1,66,100,24
1,69,100,0
1,62,100,192
1,69,100,24
1,66,100,0
1,72,100,192
1,70,100,24
1,67,100,0
1,62,100,192
1,67,100,24
1,70,100,0
1,62,100,192
1,70,100,24
1,67,100,0
1,62,100,192
1,67,100,24
1,70,100,0
1,62,100,192
1,66,100,24
1,71,100,0
1,63,100,192
1,66,100,24
1,71,100,0
1,63,100,192
1,71,100,24
1,63,100,192
1,66,100,24
1,71,100,0
1,63,100,192
1,67,100,24
1,71,100,0
1,64,100,192
1,67,100,24
1,71,100,0
1,64,100,192
1,67,100,24
1,71,100,0
1,64,100,192
1,67,100,24
1,71,100,0
1,64,100,192
1,67,100,24
1,62,100,192
1,67,100,24
1,62,100,192
1,67,100,24
1,62,100,192
1,67,100,24
1,62,100,192
1,70,100,24
1,60,100,192
1,67,100,24
1,60,100,192
1,70,100,24
1,60,100,192
1,67,100,24
1,60,100,192
1,68,100,24
1,60,100,192
1,65,100,24
1,60,100,192
1,68,100,24
1,60,100,192
1,65,100,24
1,60,100,192
1,70,100,24
1,60,100,192
1,67,100,24
1,60,100,192
1,70,100,24
1,60,100,192
1,67,100,24
1,60,100,192
1,68,100,24
1,60,100,192
1,65,100,24
1,60,100,192
1,68,100,24
1,60,100,192
1,65,100,24
1,60,100,192
1,70,100,24
1,60,100,192
1,67,100,24
1,60,100,192
1,70,100,24
1,60,100,192
1,67,100,24
1,60,100,192
1,68,100,24
1,60,100,192
1,65,100,24
1,60,100,192
1,68,100,24
1,60,100,192
1,65,100,24
1,60,100,192
1,67,100,24
1,58,100,192
1,64,100,24
1,58,100,216
1,67,100,0
1,58,100,192
1,64,100,24
1,58,100,168
1,65,100,48
1,57,100,192
1,62,100,24
1,57,100,192
1,65,100,24
1,57,100,192
1,62,100,24
1,57,100,192
1,60,100,24
1,64,100,0
1,62,100,0
1,65,100,0
1,65,100,24
1,69,100,0
1,64,100,0
1,67,100,0
1,67,100,24
1,70,100,0
1,65,100,0
1,69,100,0
1,64,100,24
1,67,100,0
1,65,100,0
1,62,100,0
1,61,100,24
1,64,100,0
1,57,100,24
1,64,100,24
1,73,100,1536
1,76,100,1536
1,79,100,1536
1,81,100,1536
1,61,100,72
1,57,100,0
1,61,100,24
1,57,100,0
1,61,100,24
1,57,100,0
1,62,100,0
1,59,100,0
1,61,100,24
1,64,100,0
1,61,100,24
1,64,100,0
1,61,100,24
1,64,100,0
1,62,100,0
1,65,100,0
1,67,100,24
1,64,100,0
1,67,100,24
1,64,100,0
1,67,100,24
1,64,100,0
1,69,100,0
1,65,100,0
1,70,100,24
1,67,100,0
1,70,100,24
1,67,100,0
1,70,100,24
1,67,100,0
1,69,100,0
1,65,100,0
1,67,100,24
1,64,100,0
1,67,100,24
1,64,100,0
1,67,100,24
1,64,100,0
1,65,100,0
1,62,100,0
1,61,100,24
1,64,100,0
1,61,100,24
1,64,100,0
1,61,100,24
1,64,100,0
1,70,100,24
1,77,100,24
1,70,100,48
1,76,100,0
1,70,100,0
1,74,100,0
1,72,100,24
1,76,100,24
1,72,100,48
1,77,100,0
1,72,100,0
1,79,100,0
1,74,100,24
1,77,100,24
1,74,100,48
1,77,100,0
1,74,100,0
1,81,100,0
1,74,100,24
1,77,100,24
1,74,100,48
1,77,100,0
1,74,100,0
1,81,100,0
1,70,100,24
1,77,100,24
1,70,100,48
1,76,100,0
1,70,100,0
1,74,100,0
1,72,100,24
1,76,100,24
1,72,100,48
1,77,100,0
1,72,100,0
1,79,100,0
1,74,100,24
1,77,100,24
1,74,100,48
1,77,100,0
1,74,100,0
1,81,100,0
1,74,100,24
1,77,100,24
1,74,100,48
1,77,100,0
1,74,100,0
1,81,100,0
1,76,100,24
1,82,100,0
1,76,100,0
1,76,100,72
1,82,100,0
1,76,100,0
1,74,100,48
1,81,100,0
1,74,100,0
1,74,100,48
1,81,100,0
1,74,100,0
1,73,100,24
1,79,100,0
1,73,100,0
1,73,100,72
1,79,100,0
1,73,100,0
1,70,100,24
1,77,100,0
1,70,100,0
1,70,100,72
1,77,100,0
1,70,100,0
1,73,100,24
1,76,100,0
1,76,100,24
1,73,100,0
1,76,100,24
1,73,100,0
1,74,100,0
1,77,100,0
1,76,100,0
1,79,100,0
1,76,100,24
1,79,100,0
1,76,100,24
1,79,100,0
1,77,100,0
1,81,100,0
1,79,100,24
1,82,100,0
1,79,100,24
1,82,100,0
1,79,100,24
1,82,100,0
1,77,100,0
1,81,100,0
1,79,100,24
1,76,100,0
1,79,100,24
1,76,100,0
1,79,100,24
1,76,100,0
1,74,100,0
1,77,100,0
1,73,100,24
1,76,100,0
1,73,100,24
1,76,100,0
1,73,100,24
1,76,100,0
1,70,100,0
1,77,100,24
1,70,100,48
1,76,100,0
1,70,100,0
1,74,100,0
1,72,100,24
1,76,100,24
1,72,100,48
1,77,100,0
1,72,100,0
1,79,100,0
1,74,100,24
1,77,100,24
1,74,100,48
1,77,100,0
1,74,100,0
1,81,100,0
1,74,100,24
1,77,100,24
1,74,100,48
1,77,100,0
1,74,100,0
1,81,100,0
1,70,100,24
1,77,100,24
1,70,100,48
1,76,100,0
1,70,100,0
1,74,100,0
1,72,100,24
1,76,100,24
1,72,100,48
1,77,100,0
1,72,100,0
1,79,100,0
1,74,100,24
1,77,100,24
1,74,100,48
1,77,100,0
1,74,100,0
1,81,100,0
1,74,100,24
1,77,100,24
1,74,100,48
1,77,100,0
1,74,100,0
1,81,100,0
1,76,100,24
1,82,100,0
1,76,100,0
1,76,100,72
1,82,100,0
1,76,100,0
1,74,100,48
1,81,100,0
1,74,100,0
1,74,100,48
1,81,100,0
1,74,100,0
1,73,100,24
1,79,100,0
1,73,100,0
1,73,100,72
1,79,100,0
1,73,100,0
1,70,100,24
1,77,100,0
1,70,100,0
1,70,100,72
1,77,100,0
1,70,100,0
1,73,100,24
1,76,100,0
1,76,100,24
1,73,100,0
1,76,100,24
1,73,100,0
1,74,100,0
1,77,100,0
1,76,100,0
1,79,100,0
1,76,100,24
1,79,100,0
1,76,100,24
1,79,100,0
1,77,100,0
1,81,100,0
1,79,100,24
1,82,100,0
1,79,100,24
1,82,100,0
1,79,100,24
1,82,100,0
1,77,100,0
1,81,100,0
1,79,100,24
1,76,100,0
1,79,100,24
1,76,100,0
1,79,100,24
1,76,100,0
1,74,100,0
1,77,100,0
1,73,100,24
1,76,100,0
1,73,100,24
1,76,100,0
1,73,100,24
1,76,100,0
1,70,100,0
1,60,100,192
1,67,100,24
1,60,100,192
1,70,100,24
1,60,100,192
1,67,100,24
1,60,100,192
1,68,100,24
1,60,100,192
1,65,100,24
1,60,100,192
1,68,100,24
1,60,100,192
1,65,100,24
1,60,100,192
1,70,100,24
1,60,100,192
1,67,100,24
1,60,100,192
1,70,100,24
1,60,100,192
1,67,100,24
1,60,100,192
1,68,100,24
1,60,100,192
1,65,100,24
1,60,100,192
1,68,100,24
1,60,100,192
1,65,100,24
1,60,100,192
1,70,100,24
1,60,100,192
1,67,100,24
1,60,100,192
1,70,100,24
1,60,100,192
1,67,100,24
1,60,100,192
1,68,100,24
1,60,100,192
1,65,100,24
1,60,100,192
1,68,100,24
1,60,100,192
1,65,100,24
1,60,100,192
1,73,100,24
1,64,100,192
1,70,100,24
1,64,100,192
1,73,100,24
1,64,100,192
1,70,100,24
1,64,100,192
1,72,100,24
1,65,100,192
1,68,100,24
1,65,100,192
1,72,100,24
1,65,100,192
1,68,100,24
1,65,100,192
1,74,100,24
1,65,100,192
1,71,100,48
1,65,100,168
1,74,100,24
1,65,100,192
1,71,100,24
1,65,100,192
1,76,100,24
1,67,100,192
1,72,100,24
1,67,100,192
1,76,100,24
1,70,100,24
1,60,100,192
1,67,100,24
1,60,100,192
1,70,100,24
1,60,100,192
1,67,100,24
1,60,100,192
1,68,100,24
1,60,100,192
1,65,100,24
1,60,100,192
1,68,100,24
1,60,100,192
1,65,100,24
1,60,100,192
1,70,100,24
1,60,100,192
1,67,100,24
1,60,100,192
1,70,100,24
1,60,100,192
1,67,100,24
1,60,100,192
1,68,100,24
1,60,100,192
1,65,100,24
1,60,100,192
1,68,100,24
1,60,100,192
1,65,100,24
1,60,100,192
1,70,100,24
