track,note,velocity,time
1,63,64,10752
1,67,64,0
1,60,64,0
1,65,64,0
1,60,64,0
1,56,64,0
1,62,64,0
1,65,64,0
1,56,64,0
1,68,64,24
1,59,64,0
1,65,64,0
1,62,64,0
1,65,64,0
1,62,64,0
1,67,64,0
1,59,64,0
1,60,64,1488
1,63,64,0
1,55,64,0
1,62,64,0
1,58,64,0
1,55,64,0
1,62,64,24
1,58,64,0
1,53,64,0
1,62,64,24
1,58,64,0
1,56,64,0
1,55,64,0
1,58,64,0
1,62,64,0
1,60,64,0
1,58,64,0
1,55,64,0
1,50,64,0
1,57,64,0
1,60,64,0
1,60,64,0
1,50,64,0
1,53,64,0
1,55,64,0
1,53,64,0
1,50,64,0
1,59,64,0
1,67,60,0
1,63,60,0
1,79,40,24
1,75,60,0
1,72,60,0
1,60,40,0
1,63,40,0
1,68,40,0
1,72,40,0
1,77,50,0
1,72,40,0
1,68,40,0
1,65,40,0
1,62,40,0
1,74,40,0
1,77,50,0
1,80,40,0
1,77,40,0
1,74,40,0
1,68,40,0
1,65,40,0
1,62,40,0
1,79,40,0
1,74,40,0
1,67,40,0
1,65,40,0
1,62,40,0
1,65,40,24
1,77,40,0
1,60,40,0
1,63,40,0
1,67,40,0
1,72,40,0
1,75,40,0
1,74,40,0
1,70,40,0
1,67,40,0
1,62,40,0
1,58,40,0
1,74,40,24
1,70,40,0
1,68,40,0
1,65,40,0
1,58,40,0
1,74,40,24
1,74,40,0
1,70,40,0
1,67,40,0
1,62,40,0
1,58,40,0
1,72,40,0
1,67,40,0
1,63,40,0
1,60,40,0
1,55,40,0
1,69,40,0
1,62,40,0
1,60,40,0
1,57,40,0
1,72,40,0
1,72,40,0
1,65,40,0
1,62,40,0
1,60,40,0
1,71,40,0
1,67,40,0
1,65,40,0
1,62,40,0
1,55,40,0
1,55,40,0
1,60,40,0
1,63,40,0
1,67,40,0
1,72,40,0
1,72,40,24
1,72,40,0
1,67,40,0
1,63,40,0
1,60,40,0
1,55,40,0
2,60,60,1536
2,55,60,0
2,63,60,0
2,55,60,24
2,48,60,24
2,60,60,0
2,63,60,0
2,67,60,3048
2,36,60,0
2,48,60,22
2,63,60,0
2,60,60,0
2,55,60,0
2,72,60,61392
2,67,60,0
2,63,60,0
2,60,60,0
2,55,60,0
2,72,60,0
2,67,60,0
2,63,60,0
2,60,60,0
2,55,60,0
2,55,50,61464
2,60,50,0
2,63,50,0
2,67,50,0
2,72,50,0
2,72,40,0
2,67,40,0
2,63,40,0
2,60,40,0
2,55,40,0
3,48,100,10728
3,36,100,0
3,34,100,0
3,46,100,0
3,44,100,0
3,32,100,0
3,32,100,0
3,44,100,0
3,34,100,0
3,46,100,0
3,34,100,0
3,46,100,0
3,31,100,0
3,43,100,0
3,31,100,24
3,43,100,0
3,36,100,0
3,48,100,0
3,48,100,0
3,36,64,0
3,34,100,0
3,46,100,0
3,46,100,0
3,34,100,0
3,32,100,24
3,44,100,0
3,32,100,0
3,44,100,0
3,39,100,0
3,51,100,0
3,39,100,0
3,51,100,0
3,42,127,0
3,42,127,24
3,32,127,0
3,44,100,0
3,31,127,24
3,43,100,0
3,31,127,24
3,48,100,0
3,36,127,0
3,34,127,0
3,46,100,0
3,32,127,0
3,44,80,0
3,44,80,0
3,32,127,24
3,34,127,0
3,46,100,0
3,34,127,0
3,46,100,0
3,47,100,24
3,35,127,0
3,31,127,0
3,43,100,0
3,48,100,1512
3,36,127,0
3,48,100,0
3,36,127,0
3,46,100,0
3,34,127,0
3,34,127,0
3,46,100,0
3,32,127,0
3,44,100,0
3,32,127,0
3,44,100,22
3,39,100,0
3,51,100,0
3,39,100,24
3,51,127,0
3,42,100,408
3,43,100,192
3,46,100,120
3,51,100,24
3,42,127,360
3,30,127,0
3,30,127,24
3,44,100,0
3,32,127,0
3,31,127,24
3,43,100,0
3,36,127,0
3,48,100,0
3,36,127,0
3,48,100,0
3,36,127,24
3,48,100,0
3,36,127,0
3,48,100,0
3,48,100,24
3,36,100,0
3,34,100,0
3,46,100,0
3,44,100,0
3,32,100,0
3,32,100,0
3,44,100,0
3,34,100,0
3,46,100,0
3,34,100,0
3,46,100,0
3,31,100,0
3,43,100,0
3,31,100,24
3,43,100,0
3,24,127,0
3,36,100,0
3,48,100,0
3,34,127,0
3,22,127,0
3,46,100,0
3,34,100,0
3,46,100,0
3,32,100,0
3,44,100,0
3,32,100,0
3,44,100,0
3,32,100,0
3,44,100,0
3,39,100,0
3,51,100,0
3,39,100,0
3,43,100,0
3,41,100,48
3,39,100,24
3,43,100,72
3,46,100,24
3,51,100,48
3,42,100,384
3,30,127,0
3,42,100,24
3,32,127,0
3,44,100,0
3,31,127,0
3,43,100,0
3,36,100,0
3,48,100,0
3,34,100,0
3,46,100,0
3,44,100,0
3,32,100,0
3,32,100,0
3,44,100,0
3,34,100,0
3,46,100,0
3,34,100,0
3,46,100,0
3,31,100,0
3,43,100,0
3,31,100,24
3,43,100,0
3,36,100,0
3,48,100,0
3,34,127,0
3,46,100,0
3,34,127,0
3,46,100,0
3,32,127,0
3,44,100,0
3,32,127,0
3,44,100,0
3,32,127,0
3,44,100,0
3,39,100,0
3,51,100,0
3,39,100,24
3,51,100,0
3,43,100,576
3,46,100,120
3,51,100,48
3,42,100,24
3,50,100,0
3,42,100,0
3,32,127,0
3,44,100,0
3,31,127,96
3,43,100,0
3,36,127,0
3,48,100,0
3,36,127,0
3,48,100,0
3,48,100,24
3,36,127,0
3,48,100,0
4,63,64,78312
4,67,64,0
4,60,64,0
4,67,64,0
4,63,64,0
4,60,64,0
4,65,64,0
4,60,64,0
4,56,64,0
4,62,64,0
4,65,64,0
4,56,64,0
4,65,64,0
4,62,64,0
4,68,64,24
4,59,64,0
4,65,64,0
4,62,64,0
4,67,64,0
4,59,64,0
4,60,64,1488
4,63,64,0
4,55,64,0
4,62,64,0
4,58,64,0
4,55,64,0
4,62,64,24
4,58,64,0
4,53,64,0
4,62,64,0
4,58,64,0
4,56,64,0
4,55,64,0
4,58,64,0
4,62,64,0
4,60,64,0
4,58,64,0
4,55,64,0
4,50,64,0
4,57,64,0
4,60,64,0
4,60,64,0
4,50,64,0
4,53,64,0
4,55,64,0
4,53,64,0
4,50,64,0
4,59,64,0
4,63,64,48
4,67,64,0
4,60,64,0
4,67,64,24
4,63,64,0
4,60,64,0
4,65,64,0
4,60,64,0
4,56,64,0
4,62,64,0
4,65,64,0
4,56,64,0
4,59,64,0
4,68,64,0
4,65,64,0
4,62,64,0
4,65,64,0
4,62,64,0
4,67,64,0
4,59,64,0
4,60,64,1488
4,63,64,0
4,55,64,0
4,62,64,0
4,58,64,0
4,55,64,0
4,62,64,24
4,58,64,0
4,53,64,0
4,62,64,0
4,58,64,0
4,56,64,0
4,58,64,24
4,55,64,0
4,58,64,0
4,62,64,0
4,60,64,0
4,55,64,0
4,51,64,24
4,50,64,0
4,57,64,0
4,60,64,0
4,60,64,0
4,50,64,0
4,53,64,0
4,55,64,0
4,53,64,0
4,50,64,0
4,59,64,0
4,67,40,0
4,63,40,0
4,60,40,0
4,55,40,0
4,48,64,1536
4,72,40,0
4,67,40,0
4,63,40,0
4,60,40,0
4,55,40,0
4,48,64,0
5,67,60,10752
5,65,70,24
5,68,60,24
5,67,60,24
5,65,60,0
5,63,60,384
5,62,60,0
5,60,64,0
5,59,64,0
5,79,60,24
5,77,60,0
5,80,60,0
5,79,60,24
5,77,60,0
5,75,60,24
5,74,60,3048
5,74,60,24
5,72,60,0
5,71,60,0
5,72,64,24
5,67,60,0
5,65,60,24
5,68,60,0
5,67,60,0
5,65,60,0
5,63,60,24
5,62,60,0
5,60,64,0
5,59,64,24
5,79,60,72
5,77,60,24
5,80,60,0
5,79,60,24
5,77,60,0
5,75,60,24
5,74,60,24
5,72,64,24
5,71,64,24
5,60,60,24
6,49,100,384
6,50,100,0
6,52,100,0
6,49,100,120
6,50,100,0
6,52,100,0
6,50,100,48
6,49,100,0
6,52,100,0
6,49,100,120
6,50,100,0
6,52,100,0
6,50,100,48
6,49,100,0
6,52,100,0
6,50,100,384
6,49,100,0
6,52,100,0
6,50,100,120
6,49,100,0
6,52,100,0
6,50,100,48
6,49,100,0
6,52,100,0
6,50,100,384
6,49,100,0
6,52,100,0
6,50,100,120
6,49,100,0
6,52,100,0
6,50,100,48
6,49,100,0
6,52,100,0
6,50,100,384
6,49,100,0
6,52,100,0
6,50,100,120
6,49,100,0
6,52,100,0
6,50,100,48
6,49,100,0
6,52,100,0
6,49,100,120
6,50,100,0
6,52,100,0
6,49,100,48
6,50,100,0
6,52,100,0
6,49,100,384
6,50,100,0
6,52,100,0
6,49,100,120
6,50,100,0
6,52,100,0
6,49,100,48
6,50,100,0
6,52,100,0
6,49,100,384
6,50,100,0
6,52,100,0
6,49,100,120
6,50,100,0
6,52,100,0
6,49,100,48
6,50,100,0
6,52,100,0
6,49,100,384
6,50,100,0
6,52,100,0
6,49,100,120
6,50,100,0
6,52,100,0
6,49,100,48
6,50,100,0
6,52,100,0
7,63,80,109056
7,67,80,0
7,60,80,0
7,65,80,0
7,60,80,0
7,56,80,0
7,62,80,0
7,59,80,0
7,68,80,0
7,62,80,0
7,65,80,0
7,67,64,24
7,63,80,0
7,55,80,0
7,60,80,0
7,62,80,0
7,58,80,0
7,55,80,0
7,53,80,1512
7,62,80,0
7,58,80,0
7,56,80,0
7,58,80,24
7,55,80,1488
7,60,64,0
7,51,64,24
7,50,80,0
7,57,80,0
7,60,80,0
7,50,80,0
7,53,80,0
7,55,80,1536
7,59,80,0
7,67,70,0
7,63,70,0
7,60,70,0
7,48,80,24
7,72,50,1512
7,55,80,0
8,37,80,312
8,31,80,22
8,31,80,144
8,37,80,96
8,31,80,22
8,31,80,144
8,37,80,24
8,31,80,22
8,31,80,144
8,37,80,96
8,31,80,22
8,31,80,144
8,37,80,24
8,31,80,22
8,31,80,144
8,37,80,312
8,31,80,22
8,31,80,144
8,37,80,96
8,31,80,22
8,31,80,144
8,37,80,24
8,31,80,22
8,31,80,144
8,37,80,312
8,31,80,22
8,31,80,144
8,37,80,96
8,31,80,22
8,31,80,144
8,37,80,24
8,31,80,22
8,31,80,144
8,37,80,312
8,31,80,22
8,31,80,144
8,37,80,96
8,31,80,22
8,31,80,144
8,37,80,24
8,31,80,22
8,31,80,144
8,37,80,96
8,31,80,22
8,31,80,144
8,37,80,24
8,31,80,22
8,31,80,144
8,37,80,312
8,31,80,22
8,31,80,144
8,37,80,96
8,31,80,22
8,31,80,144
8,37,80,24
8,31,80,22
8,31,80,144
8,37,80,312
8,31,80,22
8,31,80,144
8,37,80,96
8,31,80,22
8,31,80,144
8,37,80,24
8,31,80,22
8,31,80,144
8,37,80,312
8,31,80,22
8,31,80,144
8,37,80,96
8,31,80,22
8,31,80,144
8,37,80,24
8,31,80,22
8,31,80,144
9,40,1,0
9,40,1,46
9,40,3,48
9,40,6,48
9,40,8,48
9,40,10,48
9,40,11,48
9,40,13,48
9,40,15,48
9,40,18,48
9,40,23,48
9,40,29,48
9,40,33,48
9,40,39,48
9,40,44,48
9,40,52,48
9,40,58,48
9,40,64,48
9,40,70,48
9,40,80,48
9,40,84,48
9,40,88,48
9,39,127,0
9,40,64,24
9,36,127,0
9,46,127,0
9,38,100,0
9,37,127,96
9,37,127,528
9,36,127,144
9,35,64,316
9,36,127,120
9,38,127,672
9,39,127,0
9,46,127,0
9,36,100,672
9,37,127,96
9,37,127,528
9,36,100,136
9,36,64,314
9,36,127,148
9,55,127,480
9,38,127,120
9,39,127,0
9,46,127,0
9,53,127,0
9,38,80,72
9,38,80,46
9,38,80,46
9,38,80,46
9,38,80,46
9,46,127,190
9,36,127,0
9,36,100,120
9,46,127,0
9,37,127,96
9,37,127,528
9,46,127,0
9,36,100,136
9,36,64,314
9,36,100,148
9,40,80,144
9,40,80,46
9,40,80,46
9,40,80,46
9,40,80,46
9,38,80,382
9,53,80,0
9,38,80,46
9,53,80,0
9,38,80,46
9,53,80,0
9,38,80,46
9,53,80,0
9,38,80,46
9,53,80,0
9,38,80,46
9,53,80,0
9,38,80,46
9,53,80,0
9,38,80,46
9,53,80,0
9,48,64,46
9,38,80,0
9,46,127,168
9,36,127,0
9,36,100,48
9,42,64,0
9,42,64,96
9,37,127,0
9,42,64,128
9,42,64,128
9,37,127,128
9,42,64,0
9,36,100,120
9,42,64,8
9,42,64,128
9,36,64,116
9,42,64,12
9,36,100,128
9,42,64,0
9,42,64,128
9,42,64,128
9,42,64,128
9,38,127,128
9,39,64,0
9,46,127,0
9,42,64,48
9,42,64,128
9,46,127,128
9,36,100,48
9,42,64,0
9,42,64,96
9,37,127,0
9,42,64,128
9,42,64,128
9,37,127,128
9,42,64,0
9,36,100,120
9,42,64,8
9,42,64,128
9,36,64,116
9,42,64,12
9,36,100,128
9,42,64,0
9,42,64,128
9,42,64,128
9,42,64,128
9,38,127,128
9,39,64,0
9,46,127,0
9,42,64,48
9,42,64,128
9,46,127,128
9,36,100,48
9,42,64,0
9,42,64,96
9,37,127,0
9,42,64,128
9,42,64,128
9,37,127,128
9,42,64,0
9,36,100,120
9,42,64,8
9,42,64,128
9,36,64,116
9,42,64,12
9,36,100,128
9,42,64,0
9,42,64,128
9,42,64,128
9,46,127,0
9,42,64,96
9,38,127,128
9,39,64,0
9,46,127,0
9,42,64,48
9,42,64,128
9,46,127,0
9,40,127,96
9,57,127,0
9,36,100,96
9,42,64,0
9,42,64,96
9,37,127,0
9,42,64,128
9,42,64,128
9,37,127,128
9,42,64,0
9,36,100,120
9,42,64,8
9,42,64,128
9,36,64,116
9,42,64,12
9,36,100,128
9,42,64,0
9,42,64,128
9,42,64,128
9,42,64,128
9,38,127,128
9,39,64,0
9,46,127,0
9,42,64,48
9,42,64,128
9,46,127,0
9,46,127,72
9,36,100,48
9,42,64,0
9,42,64,96
9,37,127,0
9,42,64,128
9,42,64,128
9,37,127,128
9,42,64,0
9,36,100,120
9,42,64,8
9,42,64,128
9,36,64,116
9,42,64,12
9,36,100,128
9,42,64,0
9,42,64,128
9,42,64,128
9,42,64,128
9,38,127,128
9,39,64,0
9,46,127,0
9,42,64,48
9,42,64,128
9,46,127,128
9,36,100,48
9,42,64,0
9,42,64,96
9,37,127,0
9,42,64,128
9,42,64,128
9,37,127,128
9,42,64,0
9,36,100,120
9,42,64,8
9,42,64,128
9,36,64,116
9,42,64,12
9,36,100,128
9,42,64,0
9,42,64,128
9,42,64,128
9,42,64,128
9,38,127,128
9,39,64,0
9,46,127,0
9,42,64,48
9,40,80,0
9,40,80,46
9,40,80,32
9,40,80,46
9,42,64,46
9,40,80,0
9,46,127,128
9,36,100,48
9,42,64,0
9,42,64,96
9,37,127,0
9,42,64,128
9,42,64,128
9,37,127,128
9,42,64,0
9,36,100,120
9,42,64,8
9,42,64,128
9,36,64,116
9,42,64,12
9,36,100,128
9,42,64,0
9,42,64,128
9,42,64,128
9,42,64,128
9,38,127,128
9,39,64,0
9,46,127,0
9,42,64,48
9,42,64,128
9,46,127,128
9,36,100,48
9,42,64,0
9,42,64,96
9,37,127,0
9,42,64,128
9,42,64,128
9,37,127,128
9,42,64,0
9,36,100,120
9,42,64,8
9,42,64,128
9,36,64,116
9,42,64,12
9,36,100,128
9,42,64,0
9,42,64,128
9,42,64,128
9,42,64,128
9,38,127,128
9,39,64,0
9,46,127,0
9,42,64,48
9,40,80,0
9,40,80,46
9,40,80,32
9,40,80,46
9,42,64,46
9,40,80,0
9,46,127,128
9,36,100,48
9,42,64,0
9,42,64,96
9,37,127,0
9,42,64,128
9,42,64,128
9,37,127,128
9,42,64,0
9,36,100,120
9,42,64,8
9,42,64,128
9,36,64,116
9,42,64,12
9,36,100,128
9,42,64,0
9,42,64,128
9,42,64,128
9,42,64,128
9,38,127,128
9,39,64,0
9,46,127,0
9,42,64,48
9,42,64,128
9,38,100,0
9,39,100,0
9,46,127,0
9,46,127,72
9,36,100,48
9,42,64,0
