track,note,velocity,time
0,75,100,324
0,104,120,0
0,32,127,0
0,44,127,0
0,54,100,1
0,54,0,2
0,104,0,1
0,104,70,1
0,104,0,1
0,104,120,1
0,54,90,0
0,54,0,1
0,104,0,1
0,104,70,0
0,104,0,1
0,104,120,0
0,54,97,1
0,54,0,1
0,104,0,1
0,104,70,1
0,104,0,1
0,104,120,1
0,54,96,1
0,54,0,1
0,104,0,1
0,104,70,0
0,104,0,1
0,104,120,1
0,54,100,0
0,54,0,2
0,104,0,1
0,104,70,0
0,104,0,1
0,104,125,0
0,54,96,0
0,54,0,1
0,104,0,1
0,104,70,1
0,104,0,1
0,104,120,1
0,54,98,1
0,54,0,1
0,104,0,1
0,104,70,1
0,104,0,1
0,104,120,0
0,54,99,1
0,54,0,1
0,104,0,1
0,104,70,1
0,104,0,1
0,104,120,0
0,54,100,1
0,54,0,1
0,104,0,1
0,104,70,1
0,104,0,1
0,104,120,1
0,54,90,1
0,54,0,2
0,104,0,1
0,104,70,0
0,104,0,1
0,104,120,1
0,54,97,0
0,54,0,1
0,104,0,1
0,104,70,0
0,104,0,1
0,104,120,1
0,54,96,1
0,54,0,1
0,104,0,1
0,104,70,1
0,104,0,1
0,104,120,1
0,54,100,0
0,54,0,1
0,104,0,1
0,104,70,0
0,104,0,1
0,104,125,1
0,54,96,0
0,54,0,1
0,104,0,1
0,104,70,1
0,104,0,1
0,104,120,0
0,54,98,1
0,54,0,1
0,104,0,1
0,104,70,1
0,104,0,1
0,104,120,1
0,54,99,0
0,54,0,2
0,104,0,1
0,104,70,0
0,104,0,1
0,104,120,1
0,59,127,0
0,120,80,0
0,56,127,0
0,61,127,0
0,66,127,0
0,54,100,1
0,54,0,1
0,104,0,1
0,120,0,1
0,104,70,0
0,104,0,1
0,104,120,1
0,120,80,0
0,54,90,0
0,54,0,1
0,104,0,1
0,120,0,1
0,104,70,0
0,104,0,1
0,104,120,0
0,108,80,0
0,54,97,0
0,54,0,2
0,104,0,1
0,104,70,0
0,108,0,1
0,104,0,1
0,104,120,0
0,54,96,0
0,54,0,1
0,104,0,1
0,104,70,1
0,108,80,0
0,104,0,1
0,108,0,1
0,104,120,0
0,54,100,0
0,54,0,1
0,104,0,1
0,108,80,1
0,104,70,0
0,104,0,1
0,108,0,1
0,104,125,0
0,54,96,0
0,54,0,1
0,104,0,1
0,104,70,1
0,120,80,0
0,120,0,1
0,104,0,1
0,108,80,1
0,104,120,0
0,54,98,0
0,54,0,2
0,104,0,1
0,108,0,1
0,104,70,0
0,104,0,1
0,108,80,0
0,104,120,0
0,54,99,1
0,54,0,1
0,104,0,1
0,108,0,1
0,104,70,0
0,104,0,1
0,120,80,0
0,104,120,0
0,54,100,1
0,54,0,1
0,104,0,1
0,120,0,1
0,104,70,0
0,104,0,1
0,104,120,1
0,120,80,0
0,54,90,1
0,54,0,1
0,104,0,1
0,120,0,1
0,104,70,0
0,104,0,1
0,108,80,0
0,104,120,0
0,54,97,1
0,54,0,1
0,104,0,1
0,104,70,0
0,108,0,1
0,104,0,1
0,104,120,1
0,54,96,0
0,54,0,2
0,104,0,1
0,108,80,1
0,104,70,0
0,104,0,1
0,108,0,1
0,104,120,0
0,54,100,0
0,54,0,1
0,104,0,1
0,120,80,0
0,104,70,0
0,120,0,1
0,104,0,1
0,104,125,0
0,108,80,0
0,54,96,1
0,54,0,1
0,104,0,1
0,108,0,1
0,104,70,0
0,104,0,1
0,108,80,1
0,104,120,0
0,54,98,0
0,54,0,1
0,104,0,1
0,104,70,0
0,104,0,1
0,108,0,1
0,104,120,0
0,54,99,0
0,54,0,2
0,104,0,1
0,104,70,1
0,104,0,1
0,104,120,1
0,120,80,0
0,54,100,0
0,54,0,1
0,104,0,1
0,120,0,1
0,104,70,0
0,104,0,1
0,104,120,0
0,120,80,0
0,54,90,1
0,54,0,2
0,104,0,1
0,120,0,1
0,104,70,0
0,104,0,1
0,104,120,1
0,108,80,0
0,54,97,1
0,54,0,2
0,104,0,1
0,104,70,1
0,108,0,1
0,104,0,1
0,104,120,0
0,54,96,0
0,54,0,1
0,104,0,1
0,104,70,1
0,108,80,0
0,104,0,1
0,108,0,1
0,104,120,0
0,54,100,1
0,54,0,1
0,104,0,1
0,104,70,0
0,108,80,0
0,104,0,1
0,108,0,1
0,104,125,0
0,54,96,1
0,54,0,2
0,104,0,1
0,120,80,0
0,104,70,0
0,120,0,1
0,104,0,1
0,108,80,1
0,104,120,0
0,54,98,1
0,54,0,2
0,104,0,1
0,108,0,1
0,104,70,0
0,104,0,1
0,104,120,1
0,108,80,0
0,54,99,1
0,54,0,1
0,104,0,1
0,108,0,1
0,104,70,0
0,104,0,1
0,59,0,0
0,61,0,0
0,66,0,0
0,56,0,0
0,120,80,1
0,68,127,0
0,104,120,0
0,61,127,0
0,63,127,0
0,54,100,1
0,54,0,10
0,104,0,18
0,120,0,1
0,104,70,0
0,104,0,29
0,120,80,1
0,104,120,0
0,54,90,1
0,54,0,11
0,104,0,17
0,120,0,1
0,104,70,0
0,104,0,29
0,108,80,1
0,104,120,0
0,54,97,1
0,54,0,8
0,104,0,20
0,104,70,1
0,108,0,15
0,104,0,14
0,104,120,1
0,54,96,1
0,54,0,9
0,104,0,19
0,104,70,1
0,108,80,0
0,104,0,29
0,108,0,1
0,104,120,0
0,54,100,1
0,8,127,9
0,54,0,2
0,9,127,1
0,9,0,8
0,11,123,1
0,8,0,7
0,104,0,0
0,104,70,1
0,120,80,0
0,11,0,8
0,120,0,7
0,15,112,2
0,17,115,6
0,15,0,3
0,104,0,3
0,108,80,1
0,104,125,0
0,54,96,1
0,17,0,1
0,19,92,2
0,54,0,9
0,19,0,5
0,20,79,10
0,104,0,1
0,108,0,1
0,104,70,0
0,20,0,14
0,22,77,6
0,22,0,2
0,104,0,7
0,104,120,1
0,108,80,0
0,54,98,1
0,54,0,8
0,24,74,1
0,26,81,17
0,104,0,2
0,104,70,1
0,27,80,11
0,22,118,4
0,22,0,3
0,24,0,2
0,29,79,4
0,104,0,5
0,108,0,1
0,104,120,0
0,28,94,0
0,26,0,1
0,54,99,0
0,31,83,5
0,28,0,1
0,54,0,4
0,27,0,1
0,30,99,0
0,32,85,6
0,30,0,2
0,29,0,3
0,34,84,5
0,33,107,0
0,104,0,1
0,104,70,1
0,31,0,4
0,33,0,5
0,35,116,1
0,36,87,0
0,32,0,4
0,38,88,7
0,35,0,2
0,37,112,0
0,34,0,2
0,75,0,4
0,104,0,0
0,44,0,0
0,32,0,0
0,63,0,1
0,61,0,0
0,68,0,0
0,42,32,0
0,41,127,0
0,36,2,0
0,36,0,3
0,42,0,0
0,39,90,0
0,37,0,1
0,36,0,2
0,40,104,4
0,42,27,0
0,42,0,3
0,41,90,0
0,36,109,2
0,38,0,1
0,36,0,1
0,42,29,3
0,40,0,2
0,42,125,0
0,41,0,1
0,42,0,0
0,43,92,0
0,39,0,4
0,42,31,3
0,36,1,0
0,36,0,3
0,42,0,0
0,42,0,0
0,44,104,0
0,41,0,3
0,45,115,3
0,42,33,1
0,36,3,0
0,46,104,2
0,36,0,1
0,42,0,0
0,43,0,2
0,45,0,5
0,47,127,0
0,42,35,0
0,36,5,0
0,48,110,1
0,36,0,2
0,42,0,0
0,44,0,1
0,47,0,6
0,42,37,0
0,50,110,0
0,49,127,0
0,36,7,0
0,36,0,3
0,46,0,0
0,42,0,0
0,49,0,5
0,51,125,0
0,42,39,2
0,36,9,0
0,48,0,1
0,46,119,0
0,42,0,2
0,36,0,0
0,46,0,2
0,53,122,0
0,52,126,0
0,50,0,3
0,48,121,1
0,36,11,1
0,42,41,0
0,52,0,1
0,36,0,2
0,42,0,0
0,55,127,0
0,48,0,1
0,51,0,1
0,41,114,3
0,36,13,2
0,42,43,0
0,53,0,1
0,56,122,1
0,36,0,1
0,42,0,0
0,51,111,1
0,51,0,4
0,55,0,1
0,42,45,1
0,36,15,0
0,53,122,0
0,58,127,0
0,36,0,3
0,42,0,0
0,53,0,2
0,56,0,0
0,60,127,2
0,36,17,3
0,42,47,0
0,42,0,3
0,58,0,0
0,36,0,0
0,41,0,1
0,62,127,1
0,60,0,5
0,36,19,0
0,42,49,0
0,42,0,3
0,36,0,0
0,63,127,0
0,62,0,1
0,63,0,5
0,42,51,1
0,36,21,0
0,36,0,3
0,42,0,0
0,42,53,7
0,36,23,0
0,36,0,3
0,42,0,0
0,42,55,7
0,36,25,0
0,36,0,3
0,42,0,0
0,42,57,7
0,36,27,0
0,36,0,3
0,42,0,0
0,42,59,7
0,36,29,0
0,36,0,3
0,42,0,0
0,42,61,7
0,36,31,0
0,41,90,1
0,36,0,2
0,42,0,0
0,42,63,7
0,36,33,0
0,36,0,3
0,42,0,0
0,42,65,7
0,36,35,0
0,36,0,3
0,42,0,0
0,41,0,7
0,42,67,0
0,36,37,0
0,36,0,3
0,42,0,0
0,42,69,7
0,36,39,0
0,36,0,3
0,42,0,0
0,42,71,7
0,36,41,0
0,36,0,3
0,42,0,0
0,36,43,7
0,42,73,0
0,61,127,0
0,73,127,0
0,66,127,0
0,70,127,0
0,42,0,3
0,36,0,0
0,36,45,7
0,42,75,0
0,42,0,3
0,36,0,0
0,42,77,7
0,36,47,0
0,36,0,3
0,42,0,0
0,36,49,7
0,42,79,0
0,42,0,3
0,36,0,0
0,41,68,0
0,42,81,7
0,36,51,0
0,36,0,3
0,42,0,0
0,42,83,7
0,36,53,0
0,36,0,3
0,42,0,0
0,36,55,7
0,42,85,0
0,42,0,3
0,36,0,0
0,41,0,1
0,36,57,6
0,42,87,0
0,42,0,3
0,36,0,0
0,61,0,7
0,73,0,0
0,70,0,0
0,66,0,0
0,61,127,0
0,73,127,0
0,66,127,0
0,36,59,0
0,42,89,0
0,70,127,0
0,42,0,3
0,36,0,0
0,36,61,7
0,42,91,0
0,42,0,3
0,36,0,0
0,42,93,7
0,36,63,0
0,36,0,3
0,42,0,0
0,42,95,7
0,36,65,0
0,36,0,3
0,42,0,0
0,42,97,7
0,36,67,0
0,36,0,3
0,42,0,0
0,41,52,0
0,42,99,7
0,36,69,0
0,36,0,3
0,42,0,0
0,42,101,7
0,36,71,0
0,36,0,3
0,42,0,0
0,36,73,7
0,42,103,0
0,42,0,3
0,36,0,0
0,70,0,7
0,73,0,0
0,61,0,0
0,41,0,0
0,66,0,0
0,61,127,0
0,36,76,0
0,73,127,0
0,42,106,0
0,70,127,0
0,66,127,0
0,42,0,3
0,36,0,0
0,42,108,7
0,36,78,0
0,36,0,3
0,42,0,0
0,36,80,7
0,42,110,0
0,42,0,3
0,36,0,0
0,42,112,7
0,36,82,0
0,36,0,3
0,42,0,0
0,42,114,7
0,36,84,0
0,36,0,3
0,42,0,0
0,36,86,7
0,42,116,0
0,42,0,3
0,36,0,0
0,41,44,3
0,36,88,4
0,42,118,0
0,42,0,3
0,36,0,0
0,42,120,7
0,36,90,0
0,36,0,3
0,42,0,0
0,41,0,3
0,70,0,4
0,61,0,0
0,66,0,0
0,73,0,0
0,32,122,0
0,44,124,0
0,68,123,0
0,59,123,0
0,63,124,0
0,32,100,0
0,36,127,1
0,42,95,0
0,42,0,10
0,36,0,0
0,32,0,4
0,32,0,2
0,32,122,13
0,32,100,0
0,42,66,1
0,42,0,11
0,32,0,3
0,32,0,2
0,44,100,13
0,32,122,0
0,28,70,1
0,42,98,0
0,42,0,8
0,28,0,0
0,32,0,6
0,44,0,2
0,44,100,13
0,32,120,0
0,42,96,1
0,42,0,8
0,32,0,6
0,44,0,2
0,32,100,13
0,32,122,0
0,42,108,1
0,28,59,0
0,38,125,0
0,36,127,0
0,36,0,11
0,38,0,0
0,28,0,0
0,42,0,1
0,32,0,2
0,32,0,2
0,32,121,13
0,32,100,0
0,42,73,1
0,42,0,6
0,32,0,8
0,32,0,2
0,32,122,13
0,44,100,0
0,42,55,1
0,42,0,8
0,32,0,6
0,44,0,2
0,32,115,13
0,44,100,0
0,28,69,1
0,42,74,0
0,42,0,10
0,28,0,0
0,32,0,4
0,44,0,2
0,32,120,13
0,32,100,0
0,42,90,1
0,36,127,0
0,36,0,2
0,42,0,0
0,32,0,1
0,32,0,2
0,32,100,13
0,32,118,0
0,42,75,1
0,42,0,8
0,32,0,6
0,32,0,2
0,32,122,13
0,44,100,0
0,28,60,1
0,42,59,0
0,42,0,10
0,28,0,0
0,32,0,4
0,44,0,2
0,44,100,13
0,32,121,0
0,42,75,1
0,42,0,10
0,32,0,4
0,44,0,2
0,32,100,13
0,32,123,0
0,42,91,1
0,38,120,0
0,36,127,0
0,28,56,1
0,36,0,12
0,28,0,1
0,32,0,0
0,38,0,1
0,42,0,0
0,32,0,1
0,32,100,13
0,32,124,0
0,42,71,1
0,42,0,9
0,32,0,5
0,32,0,2
0,68,0,3
0,63,0,1
0,44,0,0
0,59,0,6
0,44,100,3
0,34,120,0
0,42,57,1
0,28,62,0
0,28,0,10
0,42,0,1
0,34,0,3
0,44,0,2
0,44,100,13
0,34,125,0
0,42,75,1
0,28,63,0
0,28,0,12
0,42,0,0
0,66,124,0
0,63,123,0
0,59,121,1
0,34,0,1
0,47,126,1
0,44,0,1
0,35,100,13
0,35,121,0
0,36,127,1
0,42,95,0
0,42,0,8
0,36,0,0
0,35,0,6
0,35,0,2
0,35,122,13
0,35,100,0
0,42,66,1
0,42,0,10
0,35,0,4
0,35,0,2
0,35,122,13
0,47,100,0
0,42,98,1
0,42,0,10
0,35,0,4
0,47,0,2
0,47,100,13
0,35,124,0
0,42,96,1
0,42,0,11
0,35,0,3
0,47,0,2
0,35,120,13
0,35,100,0
0,42,108,1
0,38,125,0
0,36,122,0
0,36,0,8
0,38,0,0
0,42,0,2
0,35,0,4
0,35,0,2
0,35,122,13
0,35,100,0
0,42,73,1
0,42,0,10
0,35,0,4
0,35,0,2
0,47,100,13
0,35,121,0
0,42,55,1
0,42,0,11
0,35,0,3
0,47,0,2
0,47,100,13
0,35,122,0
0,42,74,1
0,28,84,0
0,28,0,7
0,42,0,0
0,35,0,7
0,47,0,2
0,35,114,13
0,35,100,0
0,36,127,1
0,42,90,0
0,42,0,10
0,36,0,0
0,35,0,4
0,35,0,2
0,35,120,13
0,35,100,0
0,42,75,1
0,42,0,10
0,35,0,4
0,35,0,2
0,47,100,13
0,35,115,0
0,42,59,1
0,28,84,0
0,28,0,12
0,42,0,0
0,35,0,2
0,47,0,2
0,35,112,13
0,47,100,0
0,42,75,1
0,42,0,7
0,35,0,7
0,47,0,2
0,35,100,4
0,35,117,0
0,42,91,1
0,38,120,0
0,36,125,0
0,36,0,9
0,38,0,1
0,42,0,0
0,35,0,4
0,35,0,2
0,63,0,4
0,59,0,2
0,66,0,6
0,35,118,1
0,35,100,0
0,42,71,1
0,47,0,6
0,42,0,5
0,35,0,3
0,35,0,2
0,47,100,13
0,37,123,0
0,28,63,1
0,42,57,0
0,28,0,12
0,42,0,1
0,37,0,1
0,47,0,2
0,39,123,13
0,47,100,0
0,28,62,1
0,42,75,0
0,42,0,9
0,28,0,0
0,68,122,3
0,64,122,0
0,39,0,2
0,59,121,0
0,47,0,2
0,52,127,0
0,40,121,7
0,40,100,0
0,42,95,1
0,36,127,0
0,36,0,10
0,42,0,0
0,40,0,4
0,40,0,2
0,40,122,13
0,40,100,0
0,42,66,1
0,42,0,12
0,40,0,2
0,40,0,2
0,52,100,13
0,40,122,0
0,42,98,1
0,42,0,7
0,40,0,7
0,52,0,2
0,42,96,13
0,52,100,0
0,40,120,0
0,42,0,9
0,40,0,6
0,52,0,2
0,40,119,13
0,40,100,0
0,36,127,1
0,42,108,0
0,38,125,0
0,36,0,10
0,38,0,1
0,42,0,0
0,40,0,3
0,40,0,2
0,40,100,13
0,40,121,0
0,42,73,1
0,42,0,13
0,40,0,1
0,40,0,2
0,40,118,13
0,52,100,0
0,42,55,1
0,42,0,7
0,40,0,7
0,52,0,2
0,52,100,13
0,40,121,0
0,28,84,1
0,42,74,0
