track,note,velocity,time
1,34,111,0
1,34,0,80
1,34,111,0
1,34,0,80
1,34,111,0
1,34,0,80
1,34,111,0
1,34,0,80
1,41,111,40
1,41,0,20
1,34,111,0
1,34,0,80
1,34,111,40
1,34,0,20
1,39,111,0
1,39,0,80
1,39,111,40
1,39,0,20
1,32,111,0
1,32,0,80
1,31,111,40
1,31,0,20
1,29,111,4
1,29,0,80
1,29,111,40
1,29,0,20
1,31,111,4
1,31,0,80
1,31,111,40
1,31,0,20
1,36,111,4
1,36,0,80
1,36,111,40
1,36,0,20
1,41,111,4
1,41,0,80
1,36,111,40
1,36,0,20
1,41,111,4
1,41,0,80
1,33,111,40
1,33,0,20
1,34,111,4
1,34,0,80
1,34,111,40
1,34,0,20
1,39,111,4
1,39,0,80
1,39,111,40
1,39,0,20
1,44,111,4
1,44,0,80
1,43,111,40
1,43,0,20
1,41,111,4
1,41,0,80
1,41,111,40
1,41,0,20
1,31,111,4
1,31,0,80
1,37,111,40
1,37,0,20
1,31,111,4
1,31,0,80
1,31,111,40
1,31,0,20
1,34,111,4
1,34,0,80
1,41,111,40
1,41,0,20
1,34,111,4
1,34,0,40
1,36,111,8
1,36,0,40
1,38,111,8
1,38,0,40
1,39,111,8
1,39,0,80
1,34,111,40
1,34,0,20
1,39,111,4
1,39,0,80
1,34,111,40
1,34,0,20
1,39,111,4
1,39,0,80
1,34,111,16
1,34,0,20
1,39,111,28
1,39,0,40
1,41,111,8
1,41,0,40
1,43,111,8
1,43,0,40
1,36,111,8
1,36,0,80
1,31,111,40
1,31,0,20
1,36,111,4
1,36,0,40
1,38,111,8
1,38,0,40
1,40,111,8
1,40,0,40
1,41,111,8
1,41,0,80
1,36,111,40
1,36,0,20
1,41,111,4
1,41,0,80
1,41,111,40
1,41,0,20
1,34,111,4
1,34,0,80
1,29,111,40
1,29,0,20
1,34,111,4
1,34,0,80
1,34,111,40
1,34,0,20
1,39,111,4
1,39,0,80
1,38,111,40
1,38,0,20
1,36,111,4
1,36,0,80
1,43,111,40
1,43,0,20
1,41,111,4
1,41,0,80
1,41,111,40
1,41,0,20
1,34,111,4
1,34,0,80
1,34,111,0
1,34,0,80
1,34,111,40
1,34,0,20
1,39,111,0
1,39,0,80
1,39,111,40
1,39,0,20
1,32,111,0
1,32,0,80
1,31,111,40
1,31,0,20
1,29,111,4
1,29,0,80
1,29,111,40
1,29,0,20
1,31,111,4
1,31,0,80
1,31,111,40
1,31,0,20
1,36,111,4
1,36,0,80
1,36,111,40
1,36,0,20
1,41,111,4
1,41,0,80
1,36,111,40
1,36,0,20
1,41,111,4
1,41,0,80
1,33,111,40
1,33,0,20
1,34,111,4
1,34,0,80
1,34,111,40
1,34,0,20
1,39,111,4
1,39,0,80
1,39,111,40
1,39,0,20
1,44,111,4
1,44,0,80
1,43,111,40
1,43,0,20
1,41,111,4
1,41,0,80
1,41,111,40
1,41,0,20
1,31,111,4
1,31,0,80
1,37,111,40
1,37,0,20
1,31,111,4
1,31,0,80
1,31,111,40
1,31,0,20
1,34,111,4
1,34,0,80
1,41,111,40
1,41,0,20
1,34,111,4
1,34,0,40
1,36,111,8
1,36,0,40
1,38,111,8
1,38,0,40
1,39,111,8
1,39,0,80
1,34,111,40
1,34,0,20
1,39,111,4
1,39,0,80
1,34,111,40
1,34,0,20
1,39,111,4
1,39,0,80
1,34,111,16
1,34,0,20
1,39,111,28
1,39,0,40
1,41,111,8
1,41,0,40
1,43,111,8
1,43,0,40
1,36,111,8
1,36,0,80
1,31,111,40
1,31,0,20
1,36,111,4
1,36,0,40
1,38,111,8
1,38,0,40
1,40,111,8
1,40,0,40
1,41,111,8
1,41,0,80
1,36,111,40
1,36,0,20
1,41,111,4
1,41,0,80
1,41,111,40
1,41,0,20
1,34,111,4
1,34,0,80
1,29,111,40
1,29,0,20
1,34,111,4
1,34,0,80
1,34,111,40
1,34,0,20
1,31,111,4
1,31,0,80
1,31,111,40
1,31,0,20
1,31,111,4
1,31,0,120
1,36,111,24
1,36,0,80
1,36,111,40
1,36,0,20
1,41,111,4
1,41,0,80
1,41,111,40
1,41,0,20
1,34,111,4
1,34,0,80
1,34,111,40
1,34,0,20
1,31,111,4
1,31,0,80
1,31,111,40
1,31,0,20
1,36,111,4
1,36,0,80
1,36,111,40
1,36,0,20
1,41,111,4
1,41,0,80
1,41,111,40
1,41,0,20
1,34,111,4
1,34,0,80
1,34,111,40
1,34,0,20
1,34,111,4
1,34,0,80
1,34,111,40
1,34,0,20
1,34,111,4
1,34,0,96
1,34,111,24
1,34,0,24
1,44,111,0
1,44,0,48
1,39,111,0
1,39,0,48
1,34,111,0
1,34,0,48
1,32,111,0
1,32,0,144
1,32,111,0
1,32,0,144
1,39,111,0
1,39,0,288
2,61,79,576
2,65,79,0
2,70,79,0
2,70,0,40
2,65,0,0
2,61,0,0
2,61,79,8
2,65,79,0
2,70,79,0
2,70,0,40
2,65,0,0
2,61,0,0
2,61,79,8
2,65,79,0
2,70,79,0
2,70,0,40
2,65,0,0
2,61,0,0
2,63,79,8
2,67,79,0
2,70,79,0
2,70,0,40
2,67,0,0
2,63,0,0
2,63,79,8
2,67,79,0
2,70,79,0
2,70,0,40
2,67,0,0
2,63,0,0
2,63,79,8
2,67,79,0
2,70,79,0
2,70,0,40
2,67,0,0
2,63,0,0
2,60,79,8
2,63,79,0
2,68,79,0
2,68,0,40
2,63,0,0
2,60,0,0
2,60,79,8
2,63,79,0
2,68,79,0
2,68,0,40
2,63,0,0
2,60,0,0
2,60,79,8
2,63,79,0
2,68,79,0
2,68,0,40
2,63,0,0
2,60,0,0
2,60,79,8
2,65,79,0
2,68,79,0
2,68,0,40
2,65,0,0
2,60,0,0
2,60,79,8
2,65,79,0
2,68,79,0
2,68,0,40
2,65,0,0
2,60,0,0
2,60,79,8
2,65,79,0
2,68,79,0
2,68,0,40
2,65,0,0
2,60,0,0
2,62,79,8
2,65,79,0
2,67,79,0
2,70,79,0
2,70,0,40
2,62,0,0
2,65,0,0
2,67,0,0
2,62,79,8
2,65,79,0
2,67,79,0
2,70,79,0
2,70,0,40
2,62,0,0
2,65,0,0
2,67,0,0
2,62,79,8
2,65,79,0
2,67,79,0
2,70,79,0
2,70,0,40
2,62,0,0
2,65,0,0
2,67,0,0
2,64,79,8
2,67,79,0
2,70,79,0
2,72,79,0
2,72,0,40
2,64,0,0
2,67,0,0
2,70,0,0
2,64,79,8
2,67,79,0
2,70,79,0
2,72,79,0
2,72,0,40
2,64,0,0
2,67,0,0
2,70,0,0
2,64,79,8
2,67,79,0
2,70,79,0
2,72,79,0
2,72,0,40
2,64,0,0
2,67,0,0
2,70,0,0
2,65,79,8
2,68,79,0
2,72,79,0
2,72,0,40
2,68,0,0
2,65,0,0
2,65,79,8
2,68,79,0
2,72,79,0
2,72,0,40
2,68,0,0
2,65,0,0
2,63,79,8
2,67,79,0
2,70,79,0
2,70,0,40
2,67,0,0
2,63,0,0
2,60,79,8
2,63,79,0
2,65,79,0
2,69,79,0
2,69,0,40
2,60,0,0
2,63,0,0
2,65,0,0
2,60,79,8
2,63,79,0
2,65,79,0
2,69,79,0
2,69,0,40
2,60,0,0
2,63,0,0
2,65,0,0
2,60,79,8
2,63,79,0
2,65,79,0
2,69,79,0
2,69,0,40
2,60,0,0
2,63,0,0
2,65,0,0
2,61,79,8
2,65,79,0
2,70,79,0
2,70,0,40
2,65,0,0
2,61,0,0
2,61,79,8
2,65,79,0
2,70,79,0
2,70,0,40
2,65,0,0
2,61,0,0
2,61,79,8
2,65,79,0
2,70,79,0
2,70,0,40
2,65,0,0
2,61,0,0
2,63,79,8
2,67,79,0
2,70,79,0
2,70,0,40
2,67,0,0
2,63,0,0
2,63,79,8
2,67,79,0
2,70,79,0
2,70,0,40
2,67,0,0
2,63,0,0
2,63,79,8
2,67,79,0
2,70,79,0
2,70,0,40
2,67,0,0
2,63,0,0
2,60,79,8
2,63,79,0
2,68,79,0
2,68,0,40
2,63,0,0
2,60,0,0
2,60,79,8
2,63,79,0
2,68,79,0
2,68,0,40
2,63,0,0
2,60,0,0
2,63,79,8
2,67,79,0
2,70,79,0
2,70,0,40
2,67,0,0
2,63,0,0
2,65,79,8
2,68,79,0
2,72,79,0
2,72,0,40
2,68,0,0
2,65,0,0
2,65,79,8
2,68,79,0
2,72,79,0
2,72,0,40
2,68,0,0
2,65,0,0
2,65,79,8
2,68,79,0
2,72,79,0
2,72,0,40
2,68,0,0
2,65,0,0
2,62,79,8
2,67,79,0
2,71,79,0
2,71,0,40
2,67,0,0
2,62,0,0
2,62,79,8
2,67,79,0
2,71,79,0
2,71,0,40
2,67,0,0
2,62,0,0
2,62,79,8
2,67,79,0
2,71,79,0
2,71,0,40
2,67,0,0
2,62,0,0
2,62,79,8
2,67,79,0
2,71,79,0
2,71,0,40
2,67,0,0
2,62,0,0
2,62,79,8
2,67,79,0
2,71,79,0
2,71,0,40
2,67,0,0
2,62,0,0
2,62,79,8
2,67,79,0
2,71,79,0
2,71,0,40
2,67,0,0
2,62,0,0
2,58,79,8
2,62,79,0
2,65,79,0
2,68,79,0
2,68,0,40
2,58,0,0
2,62,0,0
2,65,0,0
2,58,79,8
2,62,79,0
2,65,79,0
2,68,79,0
2,68,0,40
2,58,0,0
2,62,0,0
2,65,0,0
2,58,79,8
2,61,79,0
2,65,79,0
2,68,79,0
2,68,0,40
2,58,0,0
2,61,0,0
2,65,0,0
2,58,79,0
2,62,79,12
2,58,0,16
2,65,79,8
2,62,0,16
2,65,0,24
2,68,79,8
2,68,0,40
2,84,79,0
2,87,79,0
2,87,0,5
2,84,0,0
2,83,79,0
2,86,79,0
2,86,0,5
2,83,0,0
2,82,79,0
2,85,79,0
2,85,0,5
2,82,0,0
2,81,79,0
2,84,79,0
2,84,0,5
2,81,0,0
2,80,79,0
2,83,79,0
2,83,0,5
2,80,0,0
2,79,79,0
2,82,79,0
2,82,0,5
2,79,0,0
2,78,79,0
2,81,79,0
2,81,0,5
2,78,0,0
2,77,79,0
2,80,79,0
2,80,0,5
2,77,0,0
2,76,79,0
2,79,79,0
2,79,0,5
2,76,0,0
2,75,79,0
2,78,79,0
2,78,0,5
2,75,0,0
2,74,79,0
2,77,79,0
2,77,0,5
2,74,0,0
2,73,79,0
2,76,79,0
2,76,0,5
2,73,0,0
2,72,79,0
2,75,79,0
2,75,0,5
2,72,0,0
2,71,79,0
2,74,79,0
2,74,0,5
2,71,0,0
2,70,79,0
2,73,79,0
2,73,0,5
2,70,0,0
2,69,79,0
2,72,79,0
2,72,0,5
2,69,0,0
2,68,79,0
2,71,79,0
2,71,0,5
2,68,0,0
2,67,79,0
2,70,79,0
2,70,0,5
2,67,0,0
2,66,79,0
2,69,79,0
2,69,0,5
2,66,0,0
2,65,79,0
2,68,79,0
2,68,0,5
2,65,0,0
2,64,79,0
2,67,79,0
2,67,0,5
2,64,0,0
2,63,79,0
2,66,79,0
2,66,0,5
2,63,0,0
2,62,79,0
2,65,79,0
2,65,0,5
2,62,0,0
2,61,79,0
2,64,79,0
2,64,0,5
2,61,0,0
2,51,79,0
2,55,79,0
2,58,79,0
2,62,79,0
2,62,0,66
2,51,0,0
2,55,0,0
2,58,0,0
2,61,79,24
2,63,79,24
2,61,0,16
2,67,79,8
2,70,79,0
2,63,0,16
2,70,0,64
2,67,0,0
2,61,79,16
2,63,79,0
2,67,79,0
2,70,79,0
2,70,0,80
2,61,0,0
2,63,0,0
2,67,0,0
2,61,79,16
2,61,0,10
2,63,79,2
2,63,0,10
2,67,79,2
2,67,0,10
2,70,79,2
2,70,0,10
2,64,79,2
2,67,79,12
2,70,79,12
2,72,79,12
2,64,0,4
2,67,0,12
2,70,0,12
2,72,0,12
2,64,79,65
2,67,79,0
2,70,79,0
2,72,79,0
2,72,0,80
2,64,0,0
2,67,0,0
2,70,0,0
2,65,79,64
2,65,0,40
2,68,79,8
2,68,0,40
2,72,79,8
2,72,0,40
2,65,79,8
2,68,79,24
2,65,0,16
2,72,79,8
2,68,0,16
2,75,79,8
2,72,0,16
2,75,0,24
2,58,79,32
2,62,79,24
2,65,79,24
2,68,79,24
2,58,0,8
2,62,0,24
2,68,0,8
2,65,0,16
2,62,79,16
2,65,79,0
2,68,79,0
2,70,79,0
2,70,0,80
2,62,0,0
2,65,0,0
2,68,0,0
2,63,79,64
2,67,79,24
2,63,0,16
2,70,79,8
2,67,0,16
2,70,0,24
2,65,79,8
2,70,79,0
2,74,79,0
2,74,0,40
2,70,0,0
2,65,0,0
2,63,79,8
2,63,0,40
2,67,79,8
2,67,0,40
2,72,79,8
2,72,0,40
2,65,79,8
2,68,79,24
2,65,0,16
2,72,79,8
2,68,0,16
2,72,0,24
2,65,79,8
2,68,79,0
2,72,79,0
2,72,0,40
2,68,0,0
2,65,0,0
2,65,79,8
2,68,79,24
2,65,0,16
2,70,79,8
2,68,0,16
2,74,79,8
2,70,0,16
2,62,79,8
2,65,79,0
2,68,79,0
2,70,79,0
2,74,0,16
2,68,0,24
2,62,0,0
2,65,0,0
2,70,0,0
2,61,79,0
2,65,79,0
2,70,79,0
2,70,0,40
2,65,0,0
2,61,0,0
2,61,79,8
2,65,79,0
2,70,79,0
2,70,0,40
2,65,0,0
2,61,0,0
2,61,79,8
2,65,79,0
2,70,79,0
2,70,0,40
2,65,0,0
2,61,0,0
2,63,79,8
2,67,79,0
2,70,79,0
2,70,0,40
2,67,0,0
2,63,0,0
2,63,79,8
2,67,79,0
2,70,79,0
2,70,0,40
2,67,0,0
2,63,0,0
2,63,79,8
2,67,79,0
2,70,79,0
2,70,0,40
2,67,0,0
2,63,0,0
2,60,79,8
2,63,79,0
2,68,79,0
2,68,0,40
2,63,0,0
2,60,0,0
2,60,79,8
2,63,79,0
2,68,79,0
2,68,0,40
2,63,0,0
2,60,0,0
2,60,79,8
2,63,79,0
2,68,79,0
2,68,0,40
2,63,0,0
2,60,0,0
2,60,79,8
2,65,79,0
2,68,79,0
2,68,0,40
2,65,0,0
2,60,0,0
2,60,79,8
2,65,79,0
2,68,79,0
2,68,0,40
2,65,0,0
2,60,0,0
2,60,79,8
2,65,79,0
2,68,79,0
2,68,0,40
2,65,0,0
2,60,0,0
2,62,79,8
2,65,79,0
2,67,79,0
2,70,79,0
2,70,0,40
2,62,0,0
2,65,0,0
2,67,0,0
2,62,79,8
2,65,79,0
2,67,79,0
2,70,79,0
2,70,0,40
2,62,0,0
2,65,0,0
2,67,0,0
2,62,79,8
2,65,79,0
2,67,79,0
2,70,79,0
2,70,0,40
2,62,0,0
2,65,0,0
2,67,0,0
2,64,79,8
2,67,79,0
2,70,79,0
2,72,79,0
2,72,0,40
2,64,0,0
2,67,0,0
2,70,0,0
2,64,79,8
2,67,79,0
2,70,79,0
2,72,79,0
2,72,0,40
2,64,0,0
2,67,0,0
2,70,0,0
2,64,79,8
2,67,79,0
2,70,79,0
2,72,79,0
2,72,0,40
2,64,0,0
2,67,0,0
2,70,0,0
2,65,79,8
2,68,79,0
2,72,79,0
2,72,0,40
2,68,0,0
2,65,0,0
2,65,79,8
2,68,79,0
2,72,79,0
2,72,0,40
2,68,0,0
2,65,0,0
2,63,79,8
2,67,79,0
2,70,79,0
2,70,0,40
2,67,0,0
2,63,0,0
2,60,79,8
2,63,79,0
2,65,79,0
2,69,79,0
2,69,0,40
2,60,0,0
2,63,0,0
2,65,0,0
2,60,79,8
2,63,79,0
2,65,79,0
2,69,79,0
2,69,0,40
2,60,0,0
2,63,0,0
2,65,0,0
2,60,79,8
2,63,79,0
2,65,79,0
2,69,79,0
2,69,0,40
2,60,0,0
2,63,0,0
2,65,0,0
2,61,79,8
2,65,79,0
2,70,79,0
2,70,0,40
2,65,0,0
2,61,0,0
2,61,79,8
2,65,79,0
2,70,79,0
2,70,0,40
2,65,0,0
2,61,0,0
2,61,79,8
2,65,79,0
2,70,79,0
2,70,0,40
2,65,0,0
2,61,0,0
