track,note,velocity,time
1,33,105,1152
1,45,83,1536
1,45,84,88
1,33,83,8
1,45,84,30
1,33,95,78
1,33,77,80
1,45,80,32
1,45,84,84
1,45,71,88
1,40,87,64
1,33,93,26
1,45,84,24
1,45,71,80
1,45,81,104
1,40,71,48
1,40,77,58
1,38,108,34
1,33,108,110
1,38,95,24
1,38,93,72
1,38,91,144
1,44,90,48
1,44,90,88
1,37,78,28
1,37,87,72
1,42,97,28
1,42,93,112
1,35,82,36
1,35,76,32
1,40,108,30
1,40,83,84
1,40,95,136
1,40,105,142
1,40,95,80
1,38,93,114
1,38,86,92
1,37,78,42
1,37,93,96
1,35,89,56
1,35,91,80
1,40,100,36
1,40,89,54
1,45,105,98
1,45,98,98
1,33,100,20
1,33,100,68
1,40,95,30
1,40,93,114
1,42,105,10
1,44,101,50
1,33,118,94
1,33,105,144
1,33,105,128
1,45,108,40
1,33,105,28
1,33,105,120
1,33,105,150
1,33,108,112
1,33,111,162
1,33,105,104
1,33,111,126
1,45,105,24
1,33,105,40
1,33,108,114
1,33,105,174
1,33,105,88
1,40,105,62
1,33,102,24
1,33,100,106
1,33,105,120
1,45,98,4
1,33,102,28
1,33,102,116
1,33,105,192
1,33,114,94
1,33,105,100
1,33,118,78
1,33,105,148
1,33,111,142
1,33,121,120
1,40,71,68
1,40,77,58
1,38,108,34
1,33,108,110
1,38,95,24
1,38,93,72
1,38,91,144
1,44,90,48
1,44,90,88
1,37,78,28
1,37,87,72
1,42,97,28
1,42,93,112
1,35,82,36
1,35,76,32
1,40,108,30
1,40,83,84
1,40,95,136
1,40,105,142
1,40,95,80
1,38,93,114
1,38,86,92
1,37,78,42
1,37,93,96
1,35,89,56
1,35,91,80
1,40,100,36
1,40,89,54
1,45,105,98
1,45,98,98
1,33,100,20
1,33,100,68
1,46,115,30
1,46,105,88
1,46,110,116
1,34,101,192
1,46,105,24
1,46,93,74
1,45,91,34
1,33,105,30
1,45,95,8
1,45,89,72
1,33,108,20
1,43,91,32
1,43,89,70
1,39,110,66
1,39,105,58
1,51,82,18
1,39,93,192
1,41,102,40
1,41,89,96
1,29,121,32
1,29,121,90
1,29,118,116
1,39,108,116
1,34,108,110
1,39,95,24
1,39,93,72
1,39,91,144
1,45,90,48
1,45,90,88
1,38,78,28
1,38,87,72
1,43,97,28
1,43,93,112
1,36,82,36
1,36,76,32
1,41,108,30
1,41,83,84
1,41,95,136
1,41,105,142
1,41,95,80
1,39,93,114
1,39,86,92
1,38,78,42
1,38,93,96
1,36,89,56
1,36,91,80
1,41,100,36
1,41,89,54
1,46,105,98
1,46,98,98
1,34,100,20
1,34,100,68
1,42,80,30
1,42,59,88
1,42,59,70
1,42,60,66
1,42,78,70
1,42,72,72
1,42,87,66
1,42,87,72
1,35,108,76
1,35,89,116
1,35,93,92
1,35,98,98
1,37,90,40
1,37,93,108
1,37,93,94
1,37,93,96
1,33,98,48
1,33,84,76
1,33,95,96
1,33,91,96
1,42,93,46
1,42,105,90
1,44,82,74
1,46,101,62
1,35,105,34
1,35,91,106
1,35,98,88
1,35,93,88
1,37,93,42
1,37,93,122
1,37,97,96
1,37,93,124
1,33,95,54
1,33,91,108
1,33,98,96
1,33,93,92
1,42,97,38
1,42,97,110
1,44,87,56
1,46,93,90
1,40,108,130
1,35,108,110
1,40,95,24
1,40,93,72
1,40,91,144
1,46,90,48
1,46,90,88
1,39,78,28
1,39,87,72
1,44,97,28
1,44,93,112
1,37,82,36
1,37,76,32
1,42,108,30
1,42,83,84
1,42,95,136
1,42,105,142
1,42,95,80
1,40,93,114
1,40,86,92
1,39,78,42
1,39,93,96
1,37,89,56
1,37,91,80
1,42,100,36
1,42,89,54
1,52,83,98
1,52,67,68
1,51,65,26
1,51,82,84
1,49,90,28
1,49,82,78
1,42,85,24
1,42,101,60
1,47,105,68
1,47,87,104
1,47,105,142
1,35,118,16
2,93,116,1152
2,88,112,0
2,90,111,192
2,85,88,12
2,88,103,24
2,90,96,192
2,92,101,32
2,93,100,8
2,86,107,0
2,88,101,28
2,81,94,192
2,85,111,2
2,86,88,0
2,88,98,192
2,93,116,38
2,88,112,0
2,90,111,192
2,85,88,12
2,88,103,24
2,90,96,192
2,92,101,32
2,93,100,8
2,86,107,192
2,90,111,16
2,83,93,18
2,86,107,8
2,88,105,192
2,90,86,10
2,64,83,46
2,93,116,0
2,57,81,0
2,61,79,0
2,88,112,0
2,90,111,192
2,85,88,12
2,88,103,24
2,90,96,192
2,92,101,32
2,57,79,8
2,93,100,0
2,66,88,0
2,62,84,0
2,86,107,0
2,88,101,28
2,83,94,192
2,85,111,2
2,86,88,0
2,88,98,192
2,67,88,38
2,95,112,0
2,62,94,0
2,59,81,0
2,86,97,192
2,91,98,158
2,86,105,0
2,88,103,0
2,91,94,0
2,86,97,192
2,66,90,58
2,90,92,0
2,59,80,0
2,62,87,0
2,86,94,176
2,88,103,164
2,93,88,12
2,90,111,8
2,68,99,102
2,88,101,0
2,64,93,0
2,59,77,0
2,61,88,104
2,93,116,0
2,57,77,0
2,64,88,0
2,88,112,0
2,90,111,192
2,85,88,12
2,57,97,24
2,88,103,0
2,61,79,170
2,90,96,0
2,92,101,32
2,66,88,8
2,93,100,0
2,62,93,0
2,57,75,0
2,86,107,0
2,88,101,28
2,83,94,192
2,85,111,2
2,86,88,0
2,88,98,192
2,62,83,38
2,95,112,0
2,59,77,0
2,67,81,0
2,86,97,192
2,91,98,158
2,86,105,0
2,88,103,0
2,91,94,0
2,86,97,192
2,66,81,52
2,62,77,0
2,90,92,0
2,59,77,0
2,86,94,176
2,88,103,164
2,93,88,0
2,59,81,102
2,68,86,0
2,64,90,0
2,90,111,8
2,88,101,192
2,61,99,96
2,69,97,0
2,66,96,0
2,50,94,0
2,61,101,104
2,69,93,0
2,64,105,64
2,69,100,0
2,66,104,54
2,69,95,0
2,61,90,0
2,59,90,68
2,44,99,0
2,61,99,0
2,66,92,0
2,59,91,40
2,61,104,0
2,66,90,0
2,49,78,276
2,56,90,0
2,61,83,0
2,65,89,0
2,56,75,80
2,65,88,0
2,61,83,0
2,49,90,180
2,66,84,92
2,61,81,0
2,57,77,0
2,57,93,64
2,57,65,48
2,66,94,0
2,61,94,0
2,59,57,80
2,57,68,0
2,63,88,140
2,59,85,0
2,66,79,0
2,59,85,86
2,66,90,0
2,63,92,0
2,56,79,304
2,64,82,0
2,59,88,0
2,56,81,58
2,56,59,72
2,64,84,0
2,59,85,0
2,56,86,96
2,64,87,0
2,59,95,0
2,56,99,4
2,59,94,38
2,66,94,150
2,62,95,0
2,57,87,0
2,49,86,112
2,61,84,0
2,57,78,0
2,64,82,0
2,47,105,70
2,62,90,0
2,66,94,0
2,57,79,0
2,52,100,32
2,66,96,0
2,62,95,0
2,57,85,0
2,45,97,96
2,64,93,0
2,61,94,0
2,57,94,0
2,57,95,12
2,61,115,106
2,64,97,96
2,57,97,128
2,64,95,0
2,61,94,0
2,56,90,6
2,59,105,0
2,64,95,0
2,54,94,30
2,57,114,0
2,62,98,0
2,56,96,10
2,59,101,0
2,64,93,0
2,64,83,148
2,93,116,0
2,57,81,0
2,61,79,0
2,88,112,0
2,90,111,192
2,85,88,12
2,88,103,24
2,90,96,192
2,92,101,32
2,57,79,8
2,93,100,0
2,66,88,0
2,62,84,0
2,86,107,0
2,88,101,28
2,83,94,192
2,85,111,2
2,86,88,0
2,88,98,192
2,67,88,38
2,95,112,0
2,62,94,0
2,59,81,0
2,86,97,192
2,91,98,158
2,86,105,0
2,88,103,0
2,91,94,0
2,86,97,192
2,66,90,58
2,90,92,0
2,59,80,0
2,62,87,0
2,86,94,176
2,88,103,164
2,93,88,12
2,90,111,8
2,68,99,102
2,88,101,0
2,64,93,0
2,59,77,0
2,61,88,104
2,93,116,0
2,57,77,0
2,64,88,0
2,88,112,0
2,90,111,192
2,85,88,12
2,57,97,24
2,88,103,0
2,61,79,170
2,90,96,0
2,92,101,32
2,66,88,8
2,93,100,0
2,62,93,0
2,57,75,0
2,86,107,0
2,88,101,28
2,83,94,192
2,85,111,2
2,86,88,0
2,88,98,192
2,62,83,38
2,95,112,0
2,59,77,0
2,67,81,0
2,86,97,192
2,91,98,158
2,86,105,0
2,88,103,0
2,91,94,0
2,86,97,192
2,66,81,52
2,62,77,0
2,90,92,0
2,59,77,0
2,86,94,176
2,88,103,164
2,93,88,0
2,59,81,102
2,68,86,0
2,64,90,0
2,90,111,8
2,88,101,192
2,61,99,96
2,69,97,0
2,66,96,0
2,50,94,0
2,61,101,104
2,69,93,0
2,64,105,64
2,69,100,0
2,66,104,54
2,69,95,0
2,61,90,0
2,59,90,68
2,44,99,0
2,61,99,0
2,66,92,0
2,59,91,40
2,61,104,0
2,66,90,0
2,49,78,276
2,56,90,0
2,61,83,0
2,65,89,0
2,56,75,80
2,65,88,0
2,61,83,0
2,49,90,180
2,66,84,92
2,61,81,0
2,57,77,0
2,57,93,64
2,57,65,48
2,66,94,0
2,61,94,0
2,59,57,80
2,57,68,0
2,63,88,140
2,59,85,0
2,66,79,0
2,59,85,86
2,66,90,0
2,63,92,0
2,56,79,304
2,64,82,0
2,59,88,0
2,56,81,58
2,56,59,72
2,64,84,0
2,59,85,0
2,56,86,96
2,64,87,0
2,59,95,0
2,56,99,4
2,59,94,38
2,66,94,150
2,62,95,0
2,57,87,0
2,49,86,112
2,61,84,0
2,57,78,0
2,64,82,0
2,47,105,70
2,62,90,0
2,66,94,0
2,57,79,0
2,52,100,32
2,66,96,0
2,62,95,0
2,57,85,0
2,45,100,96
2,61,86,0
2,64,98,0
2,69,94,0
2,45,109,84
2,61,107,152
2,64,98,166
2,69,105,158
2,58,96,72
2,65,101,0
2,62,114,0
2,46,104,0
2,58,78,170
2,62,98,0
2,65,89,0
2,62,97,0
2,65,90,0
2,58,79,0
2,46,115,192
2,62,94,104
2,58,73,0
2,65,86,0
2,45,90,288
2,60,100,0
2,57,91,0
2,64,91,0
2,57,93,150
2,60,103,0
2,64,93,0
2,60,98,122
2,57,91,0
2,64,91,0
2,45,107,134
2,57,100,0
2,60,109,0
2,64,98,0
2,43,107,6
2,55,100,0
2,58,104,0
2,62,100,0
2,58,94,144
2,67,95,0
2,51,77,0
2,63,101,0
2,39,86,0
2,67,98,64
2,58,90,0
2,63,94,0
2,53,76,110
2,57,90,0
2,60,94,0
2,41,84,0
2,65,89,0
2,41,91,90
2,53,88,0
2,60,105,0
2,57,98,0
2,65,100,0
2,53,89,88
2,41,98,0
2,60,105,0
2,57,98,0
2,65,98,0
2,60,107,112
2,57,103,0
2,53,95,0
2,41,101,0
2,65,100,0
2,51,94,106
2,67,96,0
2,70,97,0
2,62,99,0
2,70,93,104
2,62,101,0
2,70,100,64
2,65,105,0
2,62,90,54
2,70,95,0
2,67,104,0
2,67,92,68
2,62,99,0
2,45,99,0
2,60,90,0
2,67,90,40
2,62,104,0
2,60,91,0
2,66,89,276
2,62,83,0
2,57,90,0
2,50,78,0
2,62,83,80
2,66,88,0
2,57,75,0
2,50,90,180
2,58,77,92
2,62,81,0
2,67,84,0
2,58,93,64
2,62,94,48
2,67,94,0
2,58,65,0
2,58,68,80
2,60,57,0
2,67,79,140
2,60,85,0
2,64,88,0
2,64,92,86
2,67,90,0
2,60,85,0
2,60,88,304
2,65,82,0
2,57,79,0
2,57,81,58
2,60,85,72
2,65,84,0
2,57,59,0
2,60,95,96
2,65,87,0
2,57,86,0
2,57,99,4
2,60,94,38
2,58,87,150
2,63,95,0
2,67,94,0
2,65,82,112
2,58,78,0
2,62,84,0
2,50,86,0
2,58,79,70
2,67,94,0
2,63,90,0
2,48,105,0
2,58,85,32
2,63,95,0
2,67,96,0
2,53,100,0
2,70,94,96
2,65,98,0
2,62,86,0
2,46,100,0
2,46,109,84
2,62,107,152
2,65,98,166
2,70,105,158
2,42,78,72
2,54,73,0
2,61,90,0
2,58,78,0
2,66,84,0
2,54,70,86
2,61,84,0
2,58,74,0
2,66,84,0
2,42,73,0
2,61,96,80
2,58,81,0
2,66,88,0
2,42,79,0
2,54,79,0
2,61,101,80
2,58,83,0
2,66,88,0
2,54,78,0
2,42,86,0
2,58,88,74
2,54,88,0
2,61,107,0
2,42,94,0
2,66,94,0
2,54,88,74
2,42,90,0
2,61,107,0
2,58,90,0
2,66,90,0
2,61,111,72
2,58,92,0
2,54,88,0
2,66,94,0
2,42,94,0
2,61,111,80
2,58,94,0
2,54,96,0
2,66,96,0
2,42,96,0
2,47,105,68
2,59,97,0
2,66,104,0
2,63,101,0
2,47,95,78
2,63,94,0
2,66,96,0
2,59,85,0
2,47,105,66
2,66,104,0
2,63,104,0
2,59,85,0
2,59,105,78
2,66,115,44
2,63,111,0
2,59,73,0
2,68,107,304
2,59,89,0
2,64,105,0
2,49,107,0
2,49,101,98
2,68,99,0
2,64,107,0
2,59,91,0
2,64,109,80
2,68,101,0
2,59,89,0
2,49,104,0
2,59,93,74
2,68,107,0
2,64,112,0
2,49,101,0
2,64,97,148
2,45,101,0
2,61,104,0
2,57,100,0
2,57,94,106
2,64,97,0
2,61,96,0
2,64,98,82
2,57,97,0
2,61,99,0
2,54,94,428
2,42,94,0
2,61,94,0
2,58,111,0
2,58,99,88
2,61,92,0
2,54,78,0
2,42,83,0
2,59,101,54
2,54,83,0
2,42,92,0
2,61,96,0
2,61,96,76
2,54,90,0
2,58,104,0
2,42,83,0
2,47,105,78
2,59,97,0
2,66,104,0
2,63,101,0
2,47,95,78
2,63,94,0
2,66,96,0
2,59,85,0
2,47,105,66
2,66,104,0
2,63,104,0
2,59,85,0
2,59,105,78
2,66,115,44
2,63,111,0
2,59,73,0
2,68,107,304
2,59,89,0
2,64,105,0
2,49,107,0
2,49,101,98
2,68,99,0
2,64,107,0
2,59,91,0
2,64,109,80
2,68,101,0
2,59,89,0
2,49,104,0
2,59,93,74
2,68,107,0
2,64,112,0
2,49,101,0
2,64,97,148
2,45,101,0
2,61,104,0
2,57,100,0
2,57,94,106
2,64,97,0
2,61,96,0
2,64,98,82
2,57,97,0
2,61,99,0
2,54,94,428
2,42,94,0
2,61,94,0
2,58,111,0
2,58,99,88
2,61,92,0
2,54,78,0
2,42,83,0
2,59,101,54
2,54,83,0
2,42,92,0
2,61,96,0
2,61,96,76
2,54,90,0
2,58,104,0
2,42,83,0
2,63,99,78
2,71,97,0
2,68,96,0
2,52,94,0
2,63,101,104
2,71,93,0
2,66,105,64
2,71,100,0
2,68,104,54
2,71,95,0
2,63,90,0
2,61,90,68
2,46,99,0
2,63,99,0
2,68,92,0
2,61,91,40
2,63,104,0
2,68,90,0
2,51,78,276
2,58,90,0
2,63,83,0
2,67,89,0
2,58,75,80
2,67,88,0
2,63,83,0
2,51,90,180
2,68,84,92
2,63,81,0
2,59,77,0
2,59,93,64
2,59,65,48
2,68,94,0
2,63,94,0
2,59,68,80
2,65,88,140
2,61,85,0
2,68,79,0
2,61,85,86
2,68,90,0
2,65,92,0
2,58,79,304
2,66,82,0
2,61,88,0
2,58,81,58
2,58,59,72
2,66,84,0
2,61,85,0
2,58,86,96
2,66,87,0
2,61,95,0
2,58,99,4
2,61,94,38
2,68,94,150
2,64,95,0
2,59,87,0
2,51,86,112
2,63,84,0
2,59,78,0
2,66,82,0
2,49,105,70
2,64,90,0
2,68,94,0
2,59,79,0
2,54,100,32
2,68,96,0
2,64,95,0
2,59,85,0
2,68,94,96
2,64,95,0
2,59,87,0
2,51,86,112
2,63,84,0
2,59,78,0
2,66,82,0
2,49,105,70
2,64,90,0
2,68,94,0
2,59,79,0
2,54,100,32
2,68,96,0
2,64,95,0
2,59,85,0
2,95,116,96
2,90,112,0
2,92,111,192
2,87,88,12
2,90,103,24
2,92,96,192
2,94,101,32
2,95,94,8
2,88,95,192
2,90,111,14
2,85,107,192
2,90,111,372
2,92,94,2
2,92,68,24
2,94,111,0
2,94,104,40
2,86,87,0
2,94,99,192
2,98,103,98
2,86,77,370
