track,note,velocity,time
3,40,98,1923
3,40,0,31
3,40,99,56
3,40,0,29
3,40,106,65
3,40,0,31
3,40,99,85
3,40,0,30
3,40,103,29
3,40,0,32
3,40,100,93
3,40,0,31
3,40,101,57
3,40,0,31
3,40,103,60
3,40,0,31
3,40,106,89
3,40,0,31
3,40,101,28
3,40,0,31
3,40,102,88
3,40,0,30
3,40,98,60
3,40,0,30
3,40,106,62
3,40,0,30
3,40,97,91
3,40,0,32
3,40,97,27
3,40,0,32
3,40,97,86
3,40,0,31
3,40,97,59
3,40,0,31
3,40,99,58
3,40,0,31
3,40,102,88
3,40,0,32
3,40,97,29
3,40,0,32
3,40,101,91
3,40,0,29
3,40,97,60
3,40,0,32
3,40,97,56
3,40,0,29
3,40,101,90
3,40,0,29
3,40,103,32
3,40,0,29
3,40,104,95
3,40,0,30
3,40,99,59
3,40,0,29
3,40,103,61
3,40,0,31
3,40,101,87
3,40,0,32
3,40,98,26
3,40,0,31
3,40,98,91
3,40,0,31
3,40,98,61
3,40,0,32
3,40,99,57
3,40,0,31
3,40,97,88
3,40,0,30
3,40,98,32
3,40,0,32
3,35,100,87
3,35,0,30
3,35,103,58
3,35,0,30
3,35,101,64
3,35,0,31
3,35,96,89
3,35,0,30
3,35,100,25
3,35,0,32
3,33,98,92
3,33,0,29
3,33,96,60
3,33,0,32
3,33,100,57
3,33,0,32
3,33,99,88
3,33,0,32
3,33,95,29
3,33,0,30
3,33,97,88
3,33,0,30
3,33,97,60
3,33,0,29
3,33,95,61
3,33,0,30
3,33,103,91
3,33,0,30
3,33,102,33
3,33,0,31
3,40,106,84
3,40,0,30
3,40,98,63
3,40,0,31
3,40,95,60
3,40,0,30
3,40,102,87
3,40,0,31
3,40,102,29
3,40,0,29
3,35,99,91
3,35,0,30
3,35,105,60
3,35,0,29
3,35,102,65
3,35,0,29
3,35,106,91
3,35,0,31
3,35,104,27
3,35,0,29
3,40,101,90
3,40,0,32
3,40,101,58
3,40,0,30
3,40,96,61
3,40,0,30
3,40,106,89
3,40,0,32
3,40,97,30
3,40,0,29
3,40,106,91
3,40,0,30
3,40,96,56
3,40,0,29
3,40,102,61
3,40,0,30
3,40,105,93
3,40,0,32
3,40,99,26
3,40,0,29
3,40,95,93
3,40,0,30
3,40,104,57
3,40,0,29
3,40,99,65
3,40,0,30
3,40,97,91
3,40,0,32
3,40,104,25
3,40,0,30
3,40,106,93
3,40,0,32
3,40,97,57
3,40,0,31
3,40,103,56
3,40,0,29
3,40,104,92
3,40,0,30
3,40,97,31
3,40,0,32
3,35,99,26
3,35,0,58
3,28,102,1
3,28,0,60
3,40,100,61
3,40,0,301
3,35,102,1
3,35,0,60
3,33,98,1
3,33,0,61
3,33,104,56
3,33,0,59
3,33,99,60
3,33,0,61
3,35,104,31
3,35,0,30
3,35,95,1
3,35,0,26
3,35,98,1
3,35,0,31
3,35,96,1
3,35,0,31
3,28,102,29
3,28,0,62
3,40,97,56
3,40,0,293
3,35,101,7
3,35,0,59
3,33,96,6
3,33,0,62
3,33,103,58
3,33,0,60
3,33,97,58
3,33,0,60
3,35,105,32
3,35,0,26
3,35,105,1
3,35,0,28
3,35,100,1
3,35,0,30
3,35,98,2
3,35,0,29
3,28,95,33
3,28,0,61
3,40,96,55
3,40,0,298
3,35,99,1
3,35,0,60
3,33,104,1
3,33,0,60
3,33,99,63
3,33,0,60
3,33,101,60
3,33,0,59
3,35,96,30
3,35,0,30
3,35,96,1
3,35,0,26
3,35,97,1
3,35,0,29
3,35,104,3
3,35,0,29
3,40,96,30
3,40,0,32
3,40,105,58
3,40,0,30
3,40,98,63
3,40,0,30
3,40,96,87
3,40,0,29
3,40,102,33
3,40,0,30
3,40,98,90
3,40,0,29
3,40,96,59
3,40,0,32
3,40,96,59
3,40,0,29
3,40,96,92
3,40,0,31
3,40,101,25
3,40,0,29
3,41,99,94
3,41,0,29
3,41,102,60
3,41,0,31
3,41,99,57
3,41,0,29
3,41,100,96
3,41,0,31
3,41,97,25
3,41,0,31
3,41,103,89
3,41,0,31
3,41,95,61
3,41,0,30
3,41,104,57
3,41,0,32
3,41,98,88
3,41,0,31
3,41,103,33
3,41,0,32
3,41,103,85
3,41,0,31
3,41,100,60
3,41,0,29
3,41,98,62
3,41,0,32
3,41,101,85
3,41,0,30
3,41,104,33
3,41,0,32
3,41,96,86
3,41,0,32
3,41,103,58
3,41,0,32
3,41,104,60
3,41,0,29
3,41,96,93
3,41,0,29
3,41,101,28
3,41,0,32
3,41,99,86
3,41,0,30
3,41,98,61
3,41,0,30
3,41,105,60
3,41,0,29
3,41,96,90
3,41,0,30
3,41,105,35
3,41,0,30
3,36,101,87
3,36,0,31
3,36,102,58
3,36,0,30
3,36,102,62
3,36,0,32
3,36,95,87
3,36,0,31
3,36,99,28
3,36,0,31
3,34,105,91
3,34,0,29
3,34,98,63
3,34,0,32
3,34,98,56
3,34,0,30
3,34,95,90
3,34,0,29
3,34,96,33
3,34,0,32
3,34,98,85
3,34,0,29
3,34,97,62
3,34,0,29
3,34,97,60
3,34,0,32
3,34,95,87
3,34,0,31
3,34,104,33
3,34,0,29
3,41,105,88
3,41,0,30
3,41,106,59
3,41,0,29
3,41,103,61
3,41,0,29
3,41,98,95
3,41,0,31
3,41,97,24
3,41,0,31
3,36,100,94
3,36,0,29
3,36,105,60
3,36,0,30
3,36,99,56
3,36,0,32
3,36,99,89
3,36,0,31
3,36,97,33
3,36,0,31
3,41,103,88
3,41,0,31
3,41,96,55
3,41,0,31
3,41,103,63
3,41,0,32
3,41,103,89
3,41,0,30
3,41,95,27
3,41,0,32
3,41,98,91
3,41,0,31
3,41,105,54
3,41,0,30
3,41,99,65
3,41,0,30
3,41,102,89
3,41,0,29
3,41,98,29
3,41,0,30
3,41,104,91
3,41,0,32
3,41,97,56
3,41,0,31
3,41,101,58
3,41,0,29
3,41,96,92
3,41,0,30
3,41,95,30
3,41,0,30
3,41,106,94
3,41,0,32
3,41,101,54
3,41,0,32
3,41,102,57
3,41,0,29
3,41,100,95
3,41,0,29
3,41,96,31
3,41,0,31
3,36,100,25
3,36,0,60
3,41,98,5
3,41,0,60
3,41,99,60
3,41,0,296
3,36,99,3
3,36,0,59
3,34,103,1
3,34,0,61
3,34,100,56
3,34,0,62
3,34,99,58
3,34,0,59
3,36,101,33
3,36,0,31
3,36,101,1
3,36,0,29
3,36,101,1
3,36,0,25
3,36,105,1
3,36,0,31
3,41,101,30
3,41,0,61
3,41,105,57
3,41,0,299
3,36,102,1
3,36,0,60
3,34,104,5
3,34,0,61
3,34,98,54
3,34,0,62
3,34,105,62
3,34,0,62
3,36,104,28
3,36,0,25
3,36,104,1
3,36,0,31
3,36,95,4
3,36,0,29
3,36,101,1
3,36,0,30
3,41,104,27
3,41,0,61
3,41,105,57
3,41,0,298
3,36,99,2
3,36,0,59
3,34,104,5
3,34,0,61
3,34,103,59
3,34,0,60
3,34,99,58
3,34,0,60
3,36,103,33
3,36,0,28
3,36,101,1
3,36,0,28
3,36,101,1
3,36,0,30
3,36,103,1
3,36,0,32
3,41,98,27
3,41,0,30
3,41,99,59
3,41,0,29
3,41,101,61
3,41,0,32
3,41,104,88
3,41,0,32
3,41,97,29
3,41,0,32
3,41,103,85
3,41,0,31
3,41,105,62
3,41,0,31
3,41,105,58
3,41,0,31
3,41,95,88
3,41,0,30
3,41,102,34
3,41,0,32
3,41,99,83
3,41,0,61
3,41,101,60
3,41,0,298
3,36,99,5
3,36,0,60
3,34,95,1
3,34,0,60
3,34,104,59
3,34,0,62
3,34,106,54
3,34,0,59
3,36,101,31
3,36,0,30
3,36,95,1
3,36,0,30
3,36,98,2
3,36,0,31
3,36,102,1
3,36,0,30
3,41,106,30
3,41,0,59
3,41,97,58
3,41,0,299
3,36,97,1
3,36,0,62
3,34,98,1
3,34,0,59
3,34,97,61
3,34,0,62
3,34,100,54
3,34,0,59
3,36,97,35
3,36,0,28
3,36,103,1
3,36,0,30
3,36,101,1
3,36,0,28
3,36,99,1
3,36,0,30
3,41,106,27
3,41,0,62
3,41,101,62
3,41,0,297
3,36,100,1
3,36,0,59
3,34,102,1
3,34,0,60
3,34,97,62
3,34,0,59
3,34,98,57
3,34,0,62
3,36,105,28
3,36,0,30
3,36,104,3
3,36,0,25
3,36,98,1
3,36,0,29
3,36,95,1
3,36,0,32
3,41,105,29
3,41,0,60
3,41,97,59
3,41,0,298
3,36,98,3
3,36,0,60
3,34,102,1
3,34,0,61
3,34,96,57
3,34,0,59
3,34,103,64
3,34,0,61
3,36,99,29
3,36,0,28
3,36,104,1
3,36,0,29
3,36,96,4
3,36,0,29
3,36,95,1
3,36,0,29
3,41,105,31
3,41,0,59
3,41,99,56
3,41,0,301
3,36,98,2
3,36,0,56
3,34,95,1
3,34,0,61
3,34,96,60
3,34,0,62
3,34,101,60
3,34,0,62
3,36,104,28
3,36,0,29
3,36,98,1
3,36,0,29
3,36,105,1
3,36,0,31
3,36,98,1
3,36,0,31
3,41,102,24
3,41,0,59
3,41,102,62
3,41,0,298
3,36,106,1
3,36,0,62
3,34,101,2
3,34,0,60
3,34,102,57
3,34,0,59
3,34,103,62
3,34,0,62
3,36,96,27
3,36,0,31
3,36,97,1
3,36,0,29
3,36,100,3
3,36,0,28
3,36,100,1
3,36,0,32
3,41,102,24
3,41,0,61
3,41,95,59
3,41,0,295
3,36,102,10
3,36,0,59
3,34,100,1
3,34,0,61
3,34,100,56
3,34,0,60
3,34,102,62
3,34,0,62
3,36,96,27
3,36,0,26
3,36,106,1
3,36,0,31
3,36,97,4
3,36,0,27
3,36,100,1
3,36,0,32
3,41,106,30
3,41,0,59
3,41,102,58
3,41,0,299
3,36,103,2
3,36,0,38
3,34,97,1
3,34,0,5
3,34,98,63
3,34,0,53
3,34,101,26
3,34,0,60
3,36,103,32
3,36,0,12
3,36,100,1
3,36,0,29
3,36,103,2
3,36,0,26
3,36,96,1
3,36,0,8
3,41,100,30
3,41,0,59
3,41,105,59
3,41,0,54
3,36,95,1
3,36,0,53
3,34,97,1
3,34,0,60
3,34,102,64
3,34,0,21
3,34,101,5
3,34,0,34
3,36,105,19
3,36,0,29
3,36,100,1
3,36,0,28
3,36,99,1
3,36,0,9
3,36,98,1
3,36,0,20
3,41,98,20
3,41,0,6
3,41,100,29
3,41,0,13
3,36,102,1
3,36,0,14
3,34,95,4
3,34,0,12
3,34,101,35
3,34,0,40
3,34,99,26
3,34,0,25
3,36,106,20
3,36,0,6
3,36,97,2
3,36,0,13
3,36,104,1
3,36,0,14
3,36,97,1
3,36,0,14
4,52,97,962
4,52,0,30
4,52,104,28
4,52,0,8
4,52,106,26
4,52,0,32
4,52,100,28
4,52,0,9
4,52,98,20
4,52,0,30
4,52,99,28
4,52,0,8
4,52,99,24
4,52,0,7
4,52,100,20
4,52,0,32
4,52,100,32
4,52,0,31
4,52,96,28
4,52,0,8
4,52,101,19
4,52,0,7
4,52,98,24
4,52,0,29
4,52,95,29
4,52,0,7
4,52,105,26
4,52,0,29
4,52,101,28
4,52,0,9
4,52,105,21
4,52,0,29
4,52,96,31
4,52,0,8
4,52,104,22
4,52,0,7
4,52,105,24
4,52,0,31
4,52,105,33
4,52,0,31
4,52,96,24
4,52,0,8
4,52,100,24
4,52,0,8
4,52,104,21
4,52,0,31
4,52,95,31
4,52,0,7
4,52,98,21
4,52,0,31
4,52,95,30
4,52,0,9
4,52,105,22
4,52,0,29
4,52,96,30
4,52,0,7
4,52,97,25
4,52,0,8
4,52,98,20
4,52,0,32
4,52,98,26
4,52,0,32
4,52,96,28
4,52,0,7
4,52,101,27
4,52,0,8
4,52,105,19
4,52,0,32
4,52,101,30
4,52,0,8
4,52,97,24
4,52,0,30
4,52,101,30
4,52,0,9
4,52,96,19
4,52,0,32
4,52,98,29
4,52,0,8
4,52,99,21
4,52,0,8
4,52,99,24
4,52,0,31
4,52,97,28
4,52,0,31
4,52,99,26
4,52,0,7
4,52,102,25
4,52,0,8
4,52,102,21
4,52,0,29
4,52,102,32
4,52,0,8
4,52,103,20
4,52,0,32
4,52,101,32
4,52,0,10
4,52,101,20
4,52,0,29
4,52,102,26
4,52,0,8
4,52,106,22
4,52,0,7
4,52,103,23
4,52,0,31
4,52,100,30
4,52,0,32
4,52,102,32
4,52,0,7
4,52,97,18
4,52,0,8
4,52,98,25
4,52,0,32
4,52,104,27
4,52,0,7
4,52,100,21
4,52,0,29
4,52,95,36
4,52,0,9
4,52,100,17
4,52,0,30
4,52,99,31
4,52,0,7
4,52,99,26
4,52,0,7
4,52,105,19
4,52,0,29
4,52,102,31
4,52,0,31
4,52,106,32
4,52,0,8
4,52,97,21
4,52,0,7
4,52,104,20
4,52,0,29
4,52,98,36
4,52,0,7
4,52,97,21
4,52,0,31
4,52,105,27
4,52,0,9
4,52,105,22
4,52,0,31
4,52,97,32
4,52,0,8
4,52,98,18
4,52,0,7
4,52,106,24
4,52,0,29
4,52,105,31
4,52,0,31
4,52,103,31
4,52,0,8
4,52,101,20
4,52,0,8
4,52,95,21
4,52,0,30
4,52,103,32
4,52,0,8
4,52,103,20
4,52,0,30
4,52,99,31
4,52,0,9
4,52,98,24
4,52,0,30
4,52,101,28
4,52,0,8
4,52,95,21
4,52,0,8
4,52,104,24
4,52,0,31
4,52,105,30
4,52,0,32
4,52,96,23
4,52,0,7
4,52,98,26
4,52,0,8
4,52,100,19
4,52,0,32
4,52,106,29
4,52,0,7
4,52,96,26
4,52,0,32
4,52,106,24
4,52,0,9
4,52,99,21
4,52,0,32
4,52,100,33
4,52,0,8
4,52,95,20
4,52,0,8
4,52,101,21
4,52,0,29
4,52,103,32
4,52,0,30
4,52,95,27
4,52,0,8
4,52,97,22
4,52,0,8
4,47,98,27
4,47,0,30
4,47,98,25
4,47,0,8
4,47,103,25
4,47,0,29
4,47,103,29
4,47,0,10
4,47,100,21
4,47,0,29
4,47,105,31
4,47,0,7
4,47,106,25
4,47,0,7
4,47,97,20
4,47,0,30
4,47,102,29
4,47,0,31
4,47,101,32
4,47,0,7
4,47,104,20
4,47,0,8
4,57,98,22
4,57,0,31
4,57,105,32
4,57,0,8
4,57,98,23
4,57,0,31
4,57,106,28
4,57,0,9
4,57,101,19
4,57,0,31
4,57,99,28
4,57,0,8
4,57,96,23
4,57,0,8
4,57,99,23
4,57,0,32
4,57,99,30
4,57,0,30
4,57,100,26
4,57,0,7
4,57,102,25
4,57,0,8
4,57,96,20
4,57,0,31
4,57,103,31
4,57,0,8
4,57,101,20
4,57,0,30
4,57,98,30
4,57,0,9
4,57,100,25
4,57,0,29
4,57,105,29
4,57,0,7
4,57,98,22
4,57,0,7
4,57,99,24
4,57,0,29
4,57,101,33
4,57,0,32
4,57,95,29
4,57,0,7
4,57,106,18
4,57,0,7
4,52,99,26
4,52,0,30
4,52,98,28
4,52,0,7
4,52,97,25
4,52,0,31
4,52,105,30
4,52,0,9
4,52,101,18
4,52,0,31
4,52,101,28
4,52,0,8
4,52,97,22
4,52,0,7
4,52,102,25
4,52,0,31
4,52,97,30
4,52,0,30
4,52,99,28
4,52,0,8
4,52,104,22
4,52,0,7
4,47,97,22
4,47,0,32
4,47,97,32
4,47,0,8
4,47,104,22
4,47,0,32
4,47,100,24
4,47,0,10
4,47,106,22
4,47,0,29
4,47,95,29
4,47,0,8
4,47,105,27
4,47,0,7
4,47,98,18
4,47,0,31
4,47,97,31
4,47,0,29
4,47,99,34
4,47,0,8
4,47,98,19
4,47,0,8
4,52,101,22
4,52,0,32
4,52,100,29
4,52,0,8
4,52,106,19
4,52,0,31
4,52,95,33
4,52,0,9
4,52,105,18
4,52,0,32
4,52,106,27
4,52,0,8
4,52,103,26
4,52,0,8
4,52,101,23
4,52,0,29
4,52,100,29
4,52,0,29
4,52,102,31
4,52,0,7
4,52,100,20
4,52,0,8
4,52,105,27
4,52,0,29
4,52,101,26
4,52,0,7
4,52,97,28
4,52,0,29
