track,note,velocity,time
0,43,125,508
0,71,85,0
0,62,80,0
0,59,75,0
0,55,75,0
0,55,90,0
0,43,90,0
0,40,85,0
0,43,115,0
0,43,96,4
0,55,124,0
0,95,100,4
0,40,25,12
0,40,25,20
0,55,60,0
0,40,40,0
0,40,25,4
0,59,80,4
0,40,70,20
0,62,110,32
0,56,115,0
0,40,117,4
0,40,85,176
0,59,87,4
0,38,82,0
0,50,110,0
0,38,95,4
0,38,100,0
0,62,80,32
0,67,105,0
0,67,110,4
0,40,45,8
0,71,122,20
0,71,122,0
0,71,120,0
0,38,85,4
0,50,113,0
0,62,87,8
0,40,73,0
0,38,98,8
0,38,100,0
0,43,93,8
0,55,121,0
0,40,116,4
0,67,100,4
0,56,115,0
0,43,120,8
0,43,115,0
0,42,87,4
0,54,115,0
0,66,85,4
0,40,75,0
0,42,110,4
0,42,110,0
0,40,85,8
0,52,113,0
0,64,80,0
0,52,90,0
0,40,90,0
0,40,85,0
0,40,107,4
0,40,107,0
0,95,95,12
0,40,25,136
0,40,25,0
0,71,115,0
0,55,60,4
0,71,107,0
0,71,107,0
0,40,40,0
0,40,25,4
0,59,80,0
0,40,70,8
0,64,110,0
0,56,115,0
0,40,117,4
0,71,115,4
0,71,110,16
0,71,110,0
0,35,90,4
0,47,118,0
0,40,75,0
0,35,80,4
0,35,100,0
0,59,87,0
0,40,25,88
0,67,110,4
0,71,105,0
0,71,110,12
0,71,110,0
0,40,85,8
0,35,93,4
0,47,121,0
0,40,45,0
0,35,80,4
0,64,87,0
0,35,100,0
0,40,60,36
0,40,115,24
0,40,115,0
0,40,90,4
0,52,118,0
0,64,95,0
0,56,115,0
0,40,116,0
0,59,74,0
0,38,99,0
0,50,127,0
0,38,110,4
0,67,92,0
0,38,110,0
0,40,95,4
0,67,100,4
0,67,100,0
0,72,85,0
0,60,80,0
0,48,85,0
0,36,85,0
0,40,85,0
0,36,96,4
0,48,124,0
0,36,105,4
0,36,105,0
0,96,105,8
0,69,115,8
0,69,110,32
0,69,110,0
0,40,25,12
0,40,25,20
0,67,105,0
0,67,102,8
0,67,102,0
0,40,40,4
0,55,60,4
0,40,25,12
0,60,80,16
0,40,70,4
0,56,115,12
0,64,110,4
0,40,117,0
0,43,95,4
0,43,99,0
0,55,127,0
0,40,85,0
0,43,100,0
0,60,80,4
0,40,45,100
0,67,110,4
0,43,85,56
0,55,113,0
0,40,73,4
0,43,82,8
0,64,82,0
0,43,100,0
0,40,90,12
0,52,118,0
0,40,116,12
0,64,90,4
0,56,115,0
0,40,98,4
0,40,100,0
0,36,96,0
0,48,124,0
0,60,72,4
0,36,90,8
0,40,75,0
0,36,100,0
0,74,85,0
0,62,80,0
0,57,75,0
0,54,70,0
0,50,85,0
0,38,85,0
0,38,90,0
0,50,118,0
0,40,85,0
0,38,125,0
0,38,115,0
0,98,120,4
0,71,114,0
0,71,115,0
0,71,115,0
0,40,25,12
0,40,25,20
0,69,105,0
0,69,105,8
0,69,105,0
0,57,65,4
0,40,40,0
0,40,25,8
0,62,85,20
0,40,70,0
0,56,115,8
0,40,117,4
0,66,110,4
0,38,90,180
0,50,118,0
0,40,75,4
0,62,95,4
0,38,115,4
0,38,115,0
0,40,55,80
0,69,120,16
0,40,85,68
0,40,45,80
0,38,85,4
0,50,113,0
0,66,90,4
0,38,105,4
0,38,105,0
0,40,65,24
0,40,110,8
0,40,110,0
0,40,93,8
0,52,121,0
0,56,115,0
0,40,116,0
0,66,110,4
0,62,74,4
0,42,115,12
0,42,87,0
0,54,115,0
0,40,95,0
0,42,115,0
0,71,85,0
0,62,80,0
0,59,75,0
0,55,75,0
0,55,90,0
0,43,90,0
0,40,85,0
0,43,125,4
0,43,115,0
0,43,96,4
0,55,124,0
0,95,100,4
0,40,25,12
0,40,25,20
0,55,60,0
0,40,40,0
0,40,25,4
0,59,80,4
0,40,70,20
0,62,110,32
0,56,115,0
0,40,117,4
0,38,87,168
0,50,115,0
0,40,85,0
0,59,87,4
0,38,98,16
0,38,100,0
0,62,80,32
0,67,105,0
0,67,110,12
0,71,116,0
0,71,116,0
0,40,45,0
0,71,120,0
0,38,85,8
0,50,113,0
0,62,87,4
0,40,73,0
0,38,93,4
0,38,100,0
0,43,93,0
0,55,121,0
0,40,116,4
0,67,100,0
0,56,115,0
0,43,120,4
0,43,115,0
0,66,85,28
0,42,80,0
0,54,108,0
0,42,110,0
0,42,110,0
0,40,75,0
0,40,105,0
0,64,80,0
0,52,90,0
0,40,90,0
0,40,85,0
0,40,105,0
0,40,96,4
0,52,124,0
0,95,105,28
0,40,25,124
0,40,25,12
0,71,115,0
0,55,60,12
0,40,40,12
0,71,110,0
0,71,110,0
0,40,25,0
0,59,80,0
0,40,70,8
0,64,110,0
0,56,115,0
0,40,117,4
0,71,110,4
0,71,110,0
0,71,115,0
0,35,80,0
0,47,108,0
0,40,75,4
0,35,87,4
0,35,100,0
0,59,87,4
0,40,65,88
0,67,110,4
0,71,105,0
0,71,107,0
0,71,107,0
0,40,85,8
0,40,65,0
0,64,87,4
0,35,78,4
0,35,93,0
0,47,121,0
0,35,100,0
0,40,65,24
0,40,115,4
0,40,115,0
0,64,95,8
0,56,115,0
0,40,116,0
0,40,96,4
0,52,124,0
0,59,74,0
0,38,110,4
0,67,92,0
0,38,96,0
0,50,124,0
0,38,110,0
0,40,95,0
0,67,100,0
0,67,100,0
0,36,105,0
0,72,85,0
0,60,80,0
0,48,85,0
0,36,85,0
0,40,85,0
0,36,105,0
0,36,93,8
0,48,121,0
0,96,105,12
0,69,115,4
0,69,102,20
0,69,102,0
0,40,25,12
0,40,25,20
0,67,105,0
0,40,40,12
0,55,60,4
0,67,98,8
0,67,98,0
0,40,25,4
0,60,80,16
0,40,70,4
0,56,115,12
0,64,110,4
0,40,117,0
0,43,85,0
0,55,113,0
0,40,75,4
0,43,110,4
0,43,110,0
0,60,80,4
0,40,75,88
0,67,110,8
0,40,85,20
0,43,100,80
0,43,87,0
0,55,115,0
0,40,60,0
0,43,100,0
0,64,82,4
0,40,65,20
0,40,94,8
0,40,90,0
0,52,118,0
0,40,100,0
0,64,90,4
0,56,115,0
0,40,116,0
0,36,90,12
0,48,118,0
0,60,72,4
0,36,87,4
0,36,100,0
0,40,95,0
0,38,125,0
0,74,85,0
0,62,80,0
0,57,75,0
0,54,70,0
0,50,85,0
0,38,85,0
0,38,93,0
0,50,121,0
0,40,85,0
0,38,115,0
0,98,120,4
0,71,114,0
0,71,100,4
0,71,100,0
0,40,25,12
0,40,25,20
0,69,105,0
0,57,65,20
0,40,40,0
0,69,102,8
0,69,102,0
0,40,25,0
0,62,85,20
0,40,70,0
0,56,115,8
0,40,117,4
0,66,110,4
0,40,75,4
0,38,115,4
0,38,115,0
0,62,95,4
0,38,96,0
0,50,124,0
0,40,55,0
0,69,120,0
0,40,85,8
0,38,105,48
0,40,45,0
0,38,105,0
0,66,90,8
0,38,87,20
0,50,115,0
0,40,65,4
0,40,89,4
0,40,100,0
0,56,115,8
0,40,116,0
0,66,110,8
0,40,93,4
0,52,121,0
0,42,98,4
0,62,74,0
0,42,100,0
0,42,90,4
0,54,118,0
0,40,95,0
0,43,125,0
0,40,85,0
0,43,115,0
0,43,87,4
0,55,115,0
0,71,110,0
0,40,10,100
0,40,15,28
0,55,60,8
0,40,25,12
0,40,35,20
0,59,80,4
0,40,50,20
0,62,80,24
0,59,70,0
0,62,80,0
0,59,70,0
0,67,90,4
0,67,90,0
0,56,105,0
0,40,105,0
0,62,110,4
0,71,113,16
0,38,82,12
0,50,110,0
0,40,85,4
0,59,87,0
0,38,95,4
0,38,100,0
0,67,110,88
0,71,117,4
0,40,45,4
0,38,85,64
0,50,113,0
0,62,87,8
0,40,73,0
0,59,65,8
0,59,65,0
0,62,80,4
0,62,80,0
0,67,90,4
0,67,90,0
0,38,98,4
0,38,100,0
0,43,87,24
0,55,115,0
0,56,105,16
0,40,95,0
0,67,100,4
0,71,115,4
0,43,120,12
0,43,115,0
0,42,87,28
0,54,115,0
0,66,85,8
0,40,75,0
0,42,110,4
0,42,110,0
0,40,87,28
0,52,115,0
0,40,85,0
0,40,107,4
0,40,107,0
0,71,115,4
0,40,25,120
0,40,25,28
0,55,60,16
0,40,40,0
0,40,25,4
0,59,80,4
0,40,70,20
0,64,80,24
0,59,70,0
0,64,80,0
0,59,70,0
0,67,90,4
0,67,90,0
0,56,105,0
0,40,105,0
0,64,110,4
0,71,113,0
0,40,85,120
0,35,80,4
0,35,100,0
0,35,87,4
0,47,115,0
0,59,87,4
0,67,110,84
0,40,45,8
0,71,117,4
0,35,80,76
0,64,87,0
0,40,73,0
0,35,100,0
0,59,70,8
0,59,70,0
0,64,80,4
0,64,80,0
0,67,90,4
0,67,90,0
0,35,90,4
0,47,118,0
0,40,115,24
0,40,115,0
0,56,105,4
0,40,116,0
0,64,95,0
0,40,96,4
0,52,124,0
0,59,74,24
0,38,110,4
0,38,93,0
0,50,121,0
0,38,110,0
0,40,75,0
0,36,93,124
0,48,121,0
0,40,85,0
0,36,105,8
0,36,105,0
0,72,115,8
0,40,10,128
0,40,15,28
0,40,25,12
0,55,60,4
0,40,35,12
0,60,80,16
0,40,50,4
0,60,80,4
0,55,70,0
0,60,80,0
0,55,70,0
0,64,90,4
0,64,90,0
0,56,105,0
0,40,105,0
0,64,110,8
0,72,120,0
0,43,99,112
0,55,127,0
0,43,95,8
0,40,85,0
0,43,100,0
0,60,80,4
0,72,115,76
0,40,45,0
0,67,110,4
0,43,87,60
0,55,115,0
0,40,73,0
0,55,70,8
0,43,82,0
0,55,70,0
0,64,82,0
0,43,100,0
0,60,80,4
0,60,80,0
0,64,90,4
0,64,90,0
0,40,90,20
0,52,118,0
0,56,105,4
0,40,95,0
0,64,90,4
0,40,98,4
0,40,100,0
0,72,106,8
0,60,72,4
0,36,90,4
0,48,118,0
0,36,90,4
0,40,75,0
0,36,100,0
0,40,85,0
0,38,125,8
0,38,90,0
0,50,118,0
0,38,115,0
0,74,113,0
0,40,25,116
0,40,25,28
0,57,65,12
0,40,40,0
0,40,25,12
0,62,85,20
0,40,70,0
0,62,80,28
0,57,70,0
0,62,80,0
0,57,70,0
0,66,90,4
0,66,90,0
0,72,115,0
0,56,105,0
0,40,105,0
0,66,110,4
0,38,87,12
0,50,115,0
0,40,85,12
0,62,95,4
0,38,115,4
0,38,115,0
0,40,55,16
0,69,106,0
0,69,120,12
0,40,85,72
0,38,87,68
0,50,115,0
0,40,45,12
0,66,90,4
0,57,70,4
0,38,105,0
0,57,70,0
0,38,105,0
0,62,80,4
0,62,80,0
0,66,90,4
0,66,90,0
0,40,65,16
0,40,90,8
0,52,118,0
0,40,110,12
0,40,110,0
0,56,105,4
0,40,116,0
0,66,110,4
0,42,87,32
0,54,115,0
0,62,74,4
0,42,115,12
0,42,115,0
0,40,95,4
0,43,99,0
0,55,127,0
0,40,85,0
0,43,125,4
0,43,115,0
0,71,106,12
0,40,10,124
0,40,15,28
0,55,60,24
0,40,25,12
0,40,35,16
0,59,80,4
0,40,50,20
0,62,80,24
0,59,70,0
0,62,80,0
0,59,70,0
0,67,90,4
0,67,90,0
0,56,105,0
0,40,105,0
0,62,110,4
0,71,115,0
0,38,85,0
0,50,113,0
0,40,85,12
0,59,87,4
0,38,98,8
0,38,100,0
0,71,113,0
0,67,110,0
0,40,45,8
0,38,87,72
0,50,115,0
0,62,87,4
0,40,73,0
0,59,65,8
0,38,93,0
0,59,65,0
0,38,100,0
0,62,80,4
0,62,80,0
0,67,90,4
0,67,90,0
0,43,87,16
0,55,115,0
0,56,105,12
0,40,95,0
0,71,117,0
0,67,100,0
0,43,120,4
0,43,115,0
0,42,90,16
0,54,118,0
0,66,85,12
0,42,110,0
0,42,110,0
0,40,75,0
0,71,100,4
0,40,105,0
0,40,90,0
0,52,118,0
0,40,85,0
0,40,105,0
0,71,106,12
0,40,25,80
0,40,25,28
0,55,60,20
0,40,40,12
0,40,25,12
0,59,80,4
0,40,70,20
0,64,80,24
0,59,70,0
0,64,80,0
0,59,70,0
0,67,90,4
0,67,90,0
0,71,115,0
0,56,105,0
0,40,105,0
0,64,110,4
0,35,93,120
0,47,121,0
0,40,85,0
0,35,87,4
0,35,100,0
0,59,87,4
0,67,110,80
0,40,55,0
0,71,120,0
0,40,85,12
0,35,90,72
0,47,118,0
0,64,87,8
0,40,45,0
0,35,78,4
0,35,100,0
0,59,70,4
0,59,70,0
0,64,80,4
0,64,80,0
0,67,90,4
0,67,90,0
0,40,65,16
0,40,115,4
0,40,115,0
0,56,105,4
0,64,95,0
0,40,87,0
0,52,115,0
0,40,116,0
0,59,74,24
0,38,110,4
0,38,110,0
0,38,96,4
0,50,124,0
0,40,95,4
0,36,105,0
0,40,85,0
0,36,105,0
0,72,117,8
0,36,93,4
0,48,121,0
0,40,10,68
0,40,15,28
0,40,25,12
0,55,60,4
0,40,35,12
0,60,80,16
0,40,50,4
0,60,80,4
0,55,70,0
0,60,80,0
0,55,70,0
0,64,90,4
0,64,90,0
0,56,105,0
0,40,105,0
0,64,110,8
0,72,115,12
0,43,85,100
0,55,113,0
0,40,85,20
0,43,110,4
0,43,110,0
0,60,80,4
0,72,113,0
0,40,45,4
0,67,110,4
0,43,100,108
0,43,96,0
0,55,124,0
0,43,100,0
0,40,73,4
0,55,70,8
0,55,70,0
0,64,82,0
0,60,80,4
0,60,80,0
0,64,90,4
0,64,90,0
0,40,94,8
0,40,90,0
0,52,118,0
0,56,105,0
0,40,95,0
0,40,100,0
0,72,115,4
0,64,90,0
0,36,93,0
0,48,121,0
0,60,72,4
0,36,87,4
0,36,100,0
0,40,75,4
0,38,125,0
0,40,85,0
0,38,115,0
0,38,96,4
0,50,124,0
0,74,115,0
0,40,25,116
0,40,25,28
0,57,65,20
0,40,40,0
0,40,25,20
0,62,85,20
0,40,70,0
0,62,80,28
0,57,70,0
0,62,80,0
0,57,70,0
0,66,90,4
0,66,90,0
0,72,113,0
0,56,105,0
0,40,105,0
0,66,110,4
0,38,96,8
0,50,124,0
0,40,85,4
0,38,115,4
0,38,115,0
0,62,95,4
0,40,75,12
0,69,102,0
0,69,120,0
0,40,85,56
0,38,105,76
0,38,105,0
0,40,55,4
0,66,90,4
0,57,70,4
0,57,70,0
0,62,80,4
0,62,80,0
0,66,90,4
0,66,90,0
0,38,82,0
0,50,110,0
0,40,75,16
0,40,89,4
0,40,100,0
0,56,105,4
0,40,116,0
0,66,110,4
0,40,93,0
0,52,121,0
0,42,98,4
0,62,74,0
0,42,100,0
0,42,87,4
0,54,115,0
0,40,95,4
0,43,125,0
0,40,85,0
0,43,115,0
0,74,113,0
0,43,85,8
0,55,113,0
0,40,10,108
0,98,85,0
0,59,95,0
0,55,70,0
0,43,90,0
0,50,70,0
0,40,15,24
0,55,60,8
0,40,25,4
0,40,35,12
0,59,80,4
0,40,50,8
0,62,80,12
0,59,70,0
0,62,80,0
0,59,70,0
0,74,102,0
0,67,90,4
0,67,90,0
0,56,105,0
0,40,105,0
0,62,110,4
0,38,93,96
0,50,121,0
0,98,65,4
0,55,70,16
0,59,95,0
0,43,90,0
0,50,70,0
0,40,85,4
0,59,87,4
0,38,95,4
0,38,100,0
0,74,102,68
0,59,100,0
0,55,95,0
0,50,95,0
0,43,95,0
0,67,110,4
0,40,45,8
0,98,75,0
0,38,90,32
0,50,118,0
0,62,87,4
0,40,73,0
0,59,65,8
0,59,65,0
0,62,80,4
0,62,80,0
0,59,95,0
0,55,70,0
0,43,80,0
0,50,70,0
0,98,55,0
0,67,90,4
0,67,90,0
0,38,98,4
0,38,100,0
0,59,100,28
0,55,95,0
0,43,95,0
0,50,95,0
0,43,90,4
0,55,118,0
0,56,105,0
0,40,95,0
0,67,100,0
0,43,120,12
0,74,113,0
0,98,65,0
0,43,115,0
0,66,85,8
0,42,87,0
0,54,115,0
0,40,75,0
0,42,110,4
0,42,110,0
