track,note,velocity,time
0,74,115,1683
0,69,115,0
0,66,115,0
0,62,115,0
0,57,85,28
0,54,85,0
0,50,85,0
0,38,85,0
0,38,108,12
0,66,127,0
0,69,45,0
0,57,127,0
0,69,0,1
0,45,100,65
0,69,30,0
0,69,0,1
0,50,93,191
0,69,30,0
0,69,0,1
0,52,96,191
0,69,45,0
0,69,0,1
0,50,0,31
0,54,108,65
0,69,45,0
0,69,0,1
0,52,0,9
0,52,104,182
0,69,30,0
0,69,0,1
0,45,0,76
0,50,103,69
0,69,30,0
0,69,0,1
0,52,0,24
0,45,101,167
0,69,30,0
0,69,0,1
0,54,0,13
0,50,0,5
0,69,45,65
0,69,0,1
0,62,101,191
0,69,30,0
0,69,0,1
0,38,0,84
0,45,0,32
0,62,0,72
0,57,101,3
0,69,30,0
0,69,0,1
0,62,103,3
0,69,45,0
0,69,0,1
0,57,0,87
0,69,108,104
0,66,127,0
0,69,45,0
0,57,127,0
0,54,65,0
0,54,0,1
0,69,0,0
0,64,127,191
0,69,30,0
0,69,0,1
0,66,0,42
0,62,127,149
0,69,30,0
0,53,65,0
0,53,0,1
0,69,0,0
0,64,0,18
0,62,0,62
0,57,0,0
0,64,127,3
0,69,30,0
0,59,127,0
0,53,65,0
0,53,0,1
0,69,0,0
0,62,0,99
0,69,0,28
0,76,115,11
0,71,115,0
0,68,115,0
0,64,115,0
0,59,85,15
0,56,85,0
0,52,85,0
0,40,85,0
0,40,120,12
0,69,45,0
0,69,0,1
0,47,99,191
0,69,30,0
0,69,0,1
0,52,93,1
0,69,30,0
0,69,0,1
0,54,99,191
0,69,45,0
0,69,0,1
0,52,0,182
0,54,0,3
0,56,113,6
0,69,45,0
0,69,0,1
0,54,102,2
0,69,30,0
0,69,0,1
0,52,106,65
0,69,30,0
0,69,0,1
0,47,0,95
0,47,103,96
0,69,30,0
0,69,0,1
0,59,105,3
0,68,127,0
0,69,45,0
0,59,127,0
0,54,65,0
0,54,0,1
0,69,0,0
0,59,0,173
0,61,94,18
0,69,127,0
0,69,30,0
0,53,65,0
0,53,0,1
0,69,0,0
0,68,0,36
0,69,0,106
0,61,0,31
0,59,93,18
0,68,127,0
0,69,30,0
0,53,65,0
0,53,0,1
0,69,0,0
0,68,0,147
0,57,95,44
0,66,127,0
0,69,45,0
0,54,65,0
0,54,0,1
0,69,0,0
0,59,0,27
0,52,0,7
0,52,111,64
0,69,45,0
0,54,46,0
0,54,0,1
0,69,0,0
0,59,92,65
0,68,127,0
0,69,30,0
0,69,0,1
0,57,0,10
0,66,0,11
0,68,0,151
0,59,0,14
0,40,0,2
0,57,83,3
0,64,127,0
0,69,30,0
0,69,0,1
0,66,127,191
0,69,30,0
0,69,0,1
0,64,0,37
0,47,0,54
0,56,0,10
0,54,0,1
0,64,0,38
0,68,0,0
0,71,0,0
0,76,0,0
0,52,0,1
0,74,115,10
0,69,115,0
0,66,115,0
0,62,115,0
0,40,0,13
0,52,0,0
0,56,0,0
0,59,0,0
0,57,85,15
0,54,85,0
0,50,85,0
0,38,85,0
0,38,108,12
0,69,45,0
0,69,0,1
0,45,100,191
0,69,30,0
0,69,0,1
0,50,93,191
0,69,30,0
0,69,0,1
0,52,96,191
0,69,45,0
0,69,0,1
0,57,0,3
0,50,0,28
0,54,108,65
0,69,45,0
0,69,0,1
0,52,0,9
0,52,104,182
0,69,30,0
0,69,0,1
0,45,0,122
0,50,103,69
0,69,30,0
0,69,0,1
0,52,0,24
0,45,101,167
0,69,30,0
0,69,0,1
0,54,0,13
0,50,0,5
0,69,45,173
0,69,0,1
0,62,101,191
0,69,30,0
0,69,0,1
0,38,0,84
0,45,0,32
0,62,0,72
0,57,101,3
0,69,30,0
0,69,0,1
0,59,0,62
0,62,103,3
0,69,45,0
0,69,0,1
0,57,0,27
0,69,108,3
0,66,127,0
0,69,45,0
0,57,127,0
0,54,65,0
0,54,0,1
0,69,0,0
0,64,127,191
0,69,30,0
0,69,0,1
0,66,0,56
0,62,127,135
0,69,30,0
0,53,65,0
0,53,0,1
0,69,0,0
0,64,0,11
0,62,0,177
0,57,0,0
0,64,127,3
0,69,30,0
0,59,127,0
0,53,65,0
0,53,0,1
0,69,0,0
0,62,0,99
0,69,0,28
0,62,0,13
0,66,0,0
0,69,0,0
0,74,0,0
0,76,115,11
0,71,115,0
0,68,115,0
0,64,115,0
0,38,0,13
0,50,0,0
0,54,0,0
0,57,0,0
0,59,85,15
0,56,85,0
0,52,85,0
0,40,85,0
0,40,120,12
0,69,45,0
0,69,0,1
0,47,99,191
0,69,30,0
0,69,0,1
0,52,93,65
0,69,30,0
0,69,0,1
0,54,99,191
0,69,45,0
0,69,0,1
0,52,0,182
0,54,0,3
0,56,113,6
0,69,45,0
0,69,0,1
0,54,102,191
0,69,30,0
0,69,0,1
0,52,106,191
0,69,30,0
0,69,0,1
0,47,0,95
0,64,0,32
0,47,103,3
0,69,30,0
0,69,0,1
0,59,105,191
0,68,127,0
0,69,45,0
0,59,127,0
0,54,65,0
0,54,0,1
0,69,0,0
0,61,105,65
0,69,127,0
0,69,30,0
0,53,65,0
0,53,0,1
0,69,0,0
0,59,0,3
0,68,0,26
0,69,0,120
0,59,103,42
0,68,127,0
0,69,30,0
0,53,65,0
0,53,0,1
0,69,0,0
0,61,0,4
0,68,0,152
0,57,96,13
0,66,127,0
0,69,45,0
0,54,65,0
0,54,0,1
0,69,0,0
0,59,0,1
0,52,0,33
0,52,111,157
0,69,45,0
0,54,46,0
0,54,0,1
0,69,0,0
0,57,0,186
0,59,98,5
0,68,127,0
0,69,30,0
0,69,0,1
0,66,0,24
0,68,0,160
0,40,0,4
0,64,127,3
0,69,30,0
0,69,0,1
0,69,30,191
0,69,0,1
0,47,0,28
0,56,0,10
0,54,0,1
0,64,0,14
0,68,0,0
0,71,0,0
0,76,0,0
0,52,0,1
0,74,115,5
0,69,115,0
0,66,115,0
0,62,115,0
0,40,0,13
0,52,0,0
0,56,0,0
0,59,0,0
0,59,0,5
0,57,95,0
0,54,95,0
0,50,95,0
0,38,95,0
0,64,0,9
0,66,88,3
0,66,127,0
0,69,45,0
0,62,90,0
0,57,92,0
0,38,92,0
0,69,0,1
0,69,30,191
0,69,0,1
0,69,30,112
0,69,0,1
0,66,105,0
0,69,45,0
0,69,0,1
0,66,91,0
0,66,105,0
0,69,45,0
0,62,88,0
0,57,88,0
0,69,0,1
0,66,0,81
0,66,105,0
0,69,30,0
0,69,0,1
0,66,0,59
0,66,105,0
0,69,30,0
0,69,0,1
0,59,0,34
0,66,0,24
0,67,105,0
0,69,30,0
0,69,0,1
0,38,0,58
0,62,0,9
0,57,0,5
0,66,0,22
0,62,0,41
0,66,0,0
0,69,0,0
0,74,0,0
0,79,115,11
0,74,115,0
0,71,115,0
0,67,115,0
0,50,0,13
0,54,0,0
0,57,0,0
0,62,95,15
0,59,95,0
0,55,95,0
0,67,92,3
0,69,45,0
0,69,0,1
0,67,0,0
0,69,30,0
0,59,105,0
0,69,0,1
0,59,0,77
0,57,93,0
0,59,105,0
0,69,30,0
0,69,0,1
0,59,0,70
0,62,91,0
0,59,105,0
0,69,45,0
0,69,0,1
0,57,0,67
0,69,45,124
0,69,0,1
0,59,0,22
0,67,0,51
0,57,88,0
0,57,105,0
0,69,30,0
0,69,0,1
0,57,0,54
0,57,105,0
0,69,30,0
0,69,0,1
0,57,0,186
0,69,30,5
0,69,0,1
0,67,0,140
0,71,0,0
0,74,0,0
0,79,0,0
0,81,115,11
0,76,115,0
0,73,115,0
0,69,115,0
0,55,0,13
0,59,0,0
0,62,0,0
0,57,0,14
0,64,95,1
0,61,95,0
0,57,95,0
0,62,0,4
0,57,105,0
0,69,45,0
0,69,0,1
0,57,0,73
0,57,105,0
0,69,30,0
0,69,0,1
0,61,103,191
0,69,30,0
0,69,0,1
0,69,101,191
0,69,45,0
0,69,0,1
0,69,45,140
0,69,0,1
0,64,83,65
0,69,30,0
0,69,0,1
0,61,0,47
0,61,81,88
0,69,30,0
0,69,0,1
0,57,72,191
0,69,30,0
0,69,0,1
0,73,92,2
0,73,127,0
0,69,45,0
0,61,88,0
0,64,127,0
0,57,88,0
0,52,84,0
0,38,93,0
0,69,0,1
0,57,0,7
0,64,0,10
0,73,0,156
0,74,96,3
0,74,127,0
0,69,30,0
0,69,0,1
0,73,0,17
0,74,0,171
0,73,96,3
0,73,127,0
0,69,30,0
0,69,0,1
0,74,0,23
0,73,0,165
0,73,0,1
0,71,99,2
0,71,127,0
0,69,45,0
0,69,0,1
0,50,95,65
0,69,45,0
0,69,0,1
0,71,0,169
0,71,0,19
0,69,86,3
0,69,127,0
0,69,30,0
0,69,0,1
0,69,0,186
0,69,0,2
0,67,98,3
0,67,127,0
0,69,30,0
0,69,0,1
0,67,0,26
0,52,0,37
0,66,90,3
0,66,127,0
0,69,30,0
0,69,0,1
0,57,0,132
0,69,0,8
0,73,0,0
0,76,0,0
0,81,0,0
0,74,115,11
0,69,115,0
0,66,115,0
0,62,115,0
0,57,0,13
0,61,0,0
0,64,0,0
0,38,0,0
0,57,95,15
0,54,95,0
0,50,95,0
0,38,95,0
0,66,0,9
0,50,0,0
0,38,0,0
0,61,0,0
0,66,88,3
0,69,45,0
0,62,89,0
0,57,86,0
0,38,92,0
0,69,0,1
0,69,30,191
0,69,0,1
0,69,30,191
0,69,0,1
0,57,0,42
0,62,0,48
0,57,87,0
0,66,105,0
0,69,45,0
0,69,0,1
0,66,0,67
0,66,0,62
0,66,0,59
0,64,0,0
0,62,86,0
0,66,105,0
0,69,45,0
0,69,0,1
0,66,0,78
0,64,92,0
0,66,105,0
0,69,30,0
0,69,0,1
0,66,0,23
0,66,99,0
0,66,105,0
0,69,30,0
0,69,0,1
0,62,0,11
0,66,0,89
0,64,0,22
0,57,0,50
0,66,0,16
0,67,92,0
0,67,105,0
0,69,30,0
0,62,89,0
0,69,0,1
0,79,115,11
0,74,115,0
0,71,115,0
0,67,115,0
0,62,95,15
0,59,95,0
0,55,95,0
0,69,45,12
0,69,0,1
0,67,0,156
0,59,105,0
0,69,30,0
0,69,0,1
0,59,0,13
0,57,85,0
0,59,105,0
0,69,30,0
0,69,0,1
0,62,0,7
0,67,0,14
0,62,96,0
0,59,105,0
0,69,45,0
0,69,0,1
0,69,45,191
0,69,0,1
0,57,0,188
0,59,0,0
0,59,86,0
0,57,105,0
0,69,30,0
0,69,0,1
0,69,30,191
0,69,0,1
0,57,0,188
0,69,30,3
0,69,0,1
0,59,0,64
0,57,105,0
0,67,0,45
0,71,0,0
0,74,0,0
0,79,0,0
0,57,0,10
0,81,115,1
0,76,115,0
0,73,115,0
0,69,115,0
0,62,0,5
0,55,0,8
0,59,0,0
0,62,0,0
0,64,95,15
0,61,95,0
0,57,95,0
0,38,0,9
0,64,88,0
0,57,105,0
0,69,45,0
0,61,86,0
0,57,80,0
0,50,90,0
0,38,92,0
0,69,0,1
0,69,30,65
0,69,0,1
0,69,30,48
0,69,0,1
0,61,0,118
0,57,0,39
0,64,0,32
0,69,101,2
0,69,45,0
0,64,93,0
0,69,0,1
0,69,45,191
0,69,0,1
0,69,0,181
0,64,0,7
0,64,98,3
0,69,30,0
0,61,93,0
0,69,0,1
0,69,30,191
0,69,0,1
0,69,30,191
0,69,0,1
0,73,92,65
0,73,127,0
0,69,45,0
0,64,127,0
0,69,0,1
0,73,0,188
0,74,96,3
0,74,127,0
0,69,30,0
0,69,0,1
0,73,0,17
0,74,0,171
0,73,96,3
0,73,127,0
0,69,30,0
0,69,0,1
0,74,0,23
0,73,0,165
0,73,0,1
0,71,99,2
0,71,127,0
0,69,45,0
0,69,0,1
0,69,45,191
0,69,0,1
0,71,0,169
0,71,0,19
0,69,86,3
0,69,127,0
0,69,30,0
0,69,0,1
0,69,0,61
0,67,98,3
0,67,127,0
0,69,30,0
0,69,0,1
0,64,0,19
0,61,0,17
0,67,0,25
0,50,0,5
0,38,0,16
0,67,0,16
0,66,90,3
0,66,127,0
0,69,30,0
0,69,0,1
0,69,0,21
0,73,0,0
0,76,0,0
0,81,0,0
0,83,115,11
0,78,115,0
0,74,115,0
0,71,115,0
0,57,0,13
0,61,0,0
0,64,0,0
0,38,0,0
0,66,95,15
0,62,95,0
0,59,95,0
0,47,95,0
0,66,93,3
0,66,115,0
0,69,45,0
0,62,94,0
0,62,115,0
0,47,94,0
0,59,115,0
0,69,0,1
0,59,94,191
0,69,30,0
0,69,0,1
0,62,0,21
0,66,0,117
0,62,90,53
0,69,30,0
0,69,0,1
0,64,0,188
0,64,83,3
0,69,45,0
0,69,0,1
0,74,105,0
0,74,0,68
0,66,0,57
0,66,93,0
0,74,105,0
0,69,45,0
0,69,0,1
0,74,0,61
0,74,105,0
0,74,0,50
0,69,30,14
0,69,0,1
0,74,105,0
0,74,0,7
0,74,105,0
0,69,30,0
0,69,0,1
0,74,0,161
0,69,30,30
0,69,0,1
0,66,105,0
0,69,45,128
0,69,0,1
0,59,0,70
0,62,0,13
0,64,0,54
0,66,0,7
0,59,96,47
0,69,30,0
0,69,0,1
0,66,0,12
0,62,86,179
0,69,30,0
0,69,0,1
0,64,91,191
0,69,45,0
0,69,0,1
0,66,105,0
0,62,0,16
0,66,94,0
0,66,105,0
0,69,45,0
0,69,0,1
0,64,0,43
0,67,105,0
0,66,0,12
0,64,92,52
0,69,30,0
0,69,0,1
0,67,0,31
0,66,105,0
0,59,0,40
0,66,0,78
0,62,90,0
0,62,105,0
0,69,30,0
0,69,0,1
0,62,0,133
0,59,93,58
0,69,30,0
0,69,0,1
0,59,105,0
0,66,0,21
0,62,0,45
0,71,0,11
0,74,0,0
0,78,0,0
0,83,0,0
0,64,0,1
0,78,115,5
0,73,115,0
0,70,115,0
0,66,115,0
0,59,0,5
0,47,0,8
0,59,0,0
0,62,0,0
0,66,0,0
0,59,0,3
0,62,0,0
0,66,0,0
0,66,95,5
0,61,95,0
0,58,95,0
0,46,95,0
0,47,0,9
0,66,93,3
0,66,115,0
0,69,45,0
0,61,94,0
0,61,115,0
0,58,94,0
0,58,115,0
0,46,93,0
0,69,0,1
0,54,90,191
0,69,30,0
0,69,0,1
0,59,0,123
0,56,94,0
0,73,105,0
0,69,30,0
0,69,0,1
0,73,0,72
0,54,0,28
0,58,0,88
0,58,103,0
0,73,105,0
0,69,45,0
0,69,0,1
0,56,0,19
0,69,45,20
0,69,0,1
0,73,105,0
0,69,30,0
0,69,0,1
0,73,0,3
0,73,105,0
0,69,30,0
0,69,0,1
0,73,0,74
0,73,105,0
0,69,30,0
0,69,0,1
0,58,0,188
0,46,0,0
0,61,0,0
0,61,83,3
0,69,45,0
0,58,81,0
0,54,82,0
0,46,88,0
0,69,0,1
0,66,0,60
0,73,0,8
0,70,105,0
0,69,30,0
0,69,0,1
0,70,0,106
0,58,0,82
0,58,92,0
0,66,105,0
0,69,30,0
0,69,0,1
0,66,0,6
0,66,94,0
0,66,105,0
0,69,45,0
0,69,0,1
0,66,0,141
0,69,45,50
0,69,0,1
0,61,0,188
0,61,99,3
0,69,30,0
0,69,0,1
0,58,0,163
0,64,105,0
0,69,30,0
0,69,0,1
0,62,105,0
0,61,0,51
0,69,30,13
0,69,0,1
0,62,0,60
0,59,105,0
0,66,0,77
0,70,0,0
0,73,0,0
0,78,0,0
0,83,115,11
0,78,115,0
0,74,115,0
0,71,115,0
0,46,0,13
0,58,0,0
0,61,0,0
0,66,0,0
0,66,95,7
0,62,95,0
0,59,95,0
0,47,95,0
0,66,0,9
0,46,0,0
0,54,0,0
0,66,93,3
0,66,115,0
0,69,45,0
0,62,93,0
0,62,115,0
0,59,96,0
0,59,115,0
0,47,95,0
0,69,0,1
0,69,30,191
0,69,0,1
0,59,0,62
0,69,30,3
0,69,0,1
0,59,0,187
0,71,105,0
0,69,45,0
0,69,0,1
0,47,0,5
0,66,0,31
0,62,0,4
0,71,0,26
0,71,0,74
0,74,0,0
0,78,0,0
