track,note,velocity,time
0,74,43,0
0,79,48,0
0,81,43,0
0,74,55,0
0,79,58,0
0,81,51,0
0,67,73,242
0,79,80,0
0,69,67,568
0,81,75,0
0,66,66,99
0,78,79,0
0,67,68,27
0,79,70,0
0,55,41,227
0,62,40,0
0,55,53,0
0,62,48,0
0,69,75,5
0,81,77,0
0,66,70,8
0,78,74,0
0,67,73,9
0,79,75,0
0,57,49,120
0,39,113,73
0,57,55,3
0,47,97,3
0,66,74,3
0,78,80,0
0,39,114,32
0,67,65,0
0,79,76,0
0,45,97,2
0,69,73,0
0,81,79,0
0,39,77,310
0,39,111,23
0,66,76,0
0,78,77,0
0,43,77,190
0,67,50,97
0,31,119,0
0,35,127,0
0,42,87,0
0,31,50,0
0,55,50,0
0,59,51,0
0,62,51,0
0,82,67,0
0,67,105,4
0,62,50,55
0,82,54,12
0,62,51,58
0,82,47,12
0,31,116,49
0,67,51,0
0,82,45,12
0,35,98,48
0,39,88,0
0,42,106,0
0,62,50,0
0,82,66,12
0,62,50,58
0,82,47,12
0,67,104,50
0,31,117,8
0,67,51,0
0,82,52,12
0,62,51,50
0,82,44,12
0,35,127,58
0,42,87,0
0,62,50,0
0,82,69,12
0,67,105,5
0,67,50,5
0,82,51,12
0,31,119,52
0,62,51,0
0,82,48,12
0,62,50,19
0,82,50,12
0,31,118,49
0,35,101,0
0,39,89,0
0,42,107,0
0,67,51,0
0,82,67,12
0,31,115,49
0,62,51,0
0,82,51,12
0,67,50,14
0,82,52,12
0,62,51,47
0,82,40,12
0,31,118,58
0,35,126,0
0,42,86,0
0,67,50,0
0,82,67,12
0,62,50,25
0,82,54,12
0,62,51,0
0,82,47,12
0,31,118,53
0,67,51,0
0,82,45,12
0,66,105,40
0,35,99,5
0,39,88,0
0,42,107,0
0,62,50,0
0,82,66,12
0,62,50,58
0,82,47,12
0,67,104,26
0,31,119,3
0,67,51,0
0,82,52,12
0,62,51,45
0,82,44,12
0,69,105,48
0,35,126,10
0,42,86,0
0,62,50,0
0,82,69,12
0,67,50,58
0,82,51,12
0,31,117,48
0,62,51,0
0,82,48,12
0,62,50,7
0,82,50,12
0,66,104,49
0,31,116,4
0,35,100,0
0,39,88,0
0,42,106,0
0,67,51,0
0,82,67,12
0,31,116,55
0,62,51,0
0,82,51,12
0,67,50,58
0,82,52,12
0,62,51,58
0,82,40,12
0,31,117,58
0,35,127,0
0,42,87,0
0,67,50,0
0,67,104,7
0,82,67,5
0,62,50,48
0,82,54,12
0,62,51,58
0,82,47,12
0,31,115,58
0,67,51,0
0,82,45,12
0,35,99,53
0,39,89,0
0,42,107,0
0,62,50,0
0,82,66,9
0,62,50,29
0,82,47,12
0,67,105,49
0,31,114,9
0,67,51,0
0,82,52,12
0,62,51,53
0,82,44,12
0,35,126,58
0,42,86,0
0,62,50,0
0,82,69,12
0,67,105,3
0,67,50,13
0,82,51,12
0,31,114,55
0,62,51,0
0,82,48,12
0,62,50,55
0,82,50,12
0,31,117,58
0,35,100,0
0,39,89,0
0,42,106,0
0,67,51,0
0,82,67,12
0,31,116,58
0,62,51,0
0,82,51,6
0,67,50,58
0,82,52,12
0,62,51,27
0,82,40,12
0,31,119,58
0,35,127,0
0,42,87,0
0,67,50,0
0,82,67,12
0,62,50,55
0,82,54,12
0,62,51,58
0,82,47,12
0,31,117,48
0,67,51,0
0,82,45,12
0,66,104,43
0,35,99,7
0,39,88,0
0,42,107,0
0,62,50,0
0,82,66,2
0,62,50,58
0,82,47,12
0,67,104,15
0,31,118,29
0,67,51,0
0,82,52,12
0,62,51,55
0,82,44,12
0,69,105,50
0,35,126,8
0,42,86,0
0,62,50,0
0,82,69,12
0,67,50,55
0,82,51,12
0,31,119,52
0,62,51,0
0,82,48,12
0,62,50,19
0,82,50,12
0,66,105,37
0,31,116,7
0,35,100,0
0,39,88,0
0,42,106,0
0,67,51,0
0,82,67,12
0,31,116,55
0,62,51,0
0,82,51,12
0,67,50,58
0,82,52,12
0,62,51,58
0,82,40,12
0,31,119,58
0,35,127,0
0,42,87,0
0,67,50,0
0,82,67,12
0,67,104,1
0,62,50,45
0,82,54,12
0,62,51,58
0,82,47,12
0,31,117,54
0,67,51,0
0,82,45,12
0,35,98,54
0,39,89,0
0,42,106,0
0,62,50,0
0,82,66,12
0,62,50,58
0,82,47,12
0,31,116,47
0,67,51,0
0,67,104,3
0,82,52,9
0,62,51,45
0,82,44,12
0,35,127,38
0,42,87,0
0,62,50,0
0,82,69,12
0,69,105,14
0,67,50,48
0,82,51,12
0,31,116,57
0,62,51,0
0,82,48,12
0,62,50,33
0,82,50,12
0,31,119,39
0,35,101,0
0,39,89,0
0,42,107,0
0,67,51,0
0,66,104,11
0,82,67,1
0,31,117,53
0,62,51,0
0,82,51,12
0,67,50,54
0,67,105,6
0,82,52,6
0,62,51,52
0,82,40,12
0,31,118,58
0,35,126,0
0,42,86,0
0,55,69,0
0,67,50,0
0,82,67,12
0,62,50,55
0,82,54,12
0,62,51,58
0,82,47,5
0,31,116,39
0,67,51,0
0,82,45,12
0,66,105,24
0,35,99,30
0,39,88,0
0,42,107,0
0,54,68,0
0,62,50,0
0,82,66,12
0,62,50,58
0,82,47,12
0,67,104,20
0,31,115,32
0,55,69,0
0,67,51,0
0,82,52,12
0,62,51,48
0,82,44,12
0,69,105,3
0,35,126,5
0,42,86,0
0,57,69,0
0,62,50,0
0,82,69,12
0,31,116,40
0,67,50,0
0,82,51,12
0,31,117,50
0,62,51,0
0,82,48,12
0,62,50,45
0,82,50,12
0,66,104,5
0,31,117,4
0,35,100,0
0,39,88,0
0,42,106,0
0,54,68,0
0,67,51,0
0,82,67,11
0,31,114,49
0,62,51,0
0,82,51,12
0,67,50,58
0,82,52,12
0,62,51,20
0,82,40,12
0,26,117,3
0,35,127,0
0,42,87,0
0,52,67,0
0,26,50,0
0,54,50,0
0,57,51,0
0,69,50,0
0,64,104,8
0,82,67,4
0,62,50,54
0,82,54,12
0,62,51,58
0,82,47,12
0,26,116,58
0,69,51,0
0,82,45,12
0,35,99,50
0,39,89,0
0,42,107,0
0,66,68,0
0,69,54,0
0,74,45,0
0,62,50,0
0,82,66,12
0,62,50,58
0,82,47,12
0,26,118,49
0,50,66,0
0,69,51,0
0,82,52,12
0,62,105,4
0,62,51,43
0,82,44,12
0,35,126,58
0,42,86,0
0,62,50,0
0,82,69,12
0,62,105,6
0,69,50,2
0,82,51,4
0,26,117,2
0,62,51,0
0,82,48,4
0,62,50,2
0,82,50,4
0,26,115,2
0,35,100,0
0,39,88,0
0,42,106,0
0,69,51,0
0,82,67,4
0,26,118,2
0,62,51,0
0,82,51,4
0,69,50,58
0,82,52,12
0,62,51,49
0,82,40,12
0,26,118,55
0,35,127,0
0,42,87,0
0,69,50,0
0,82,67,12
0,62,50,34
0,82,54,12
0,62,51,47
0,82,47,12
0,26,115,29
0,69,51,0
0,82,45,12
0,35,99,47
0,39,89,0
0,42,107,0
0,86,59,0
0,62,50,0
0,82,66,10
0,62,50,18
0,82,47,12
0,26,119,48
0,39,89,0
0,69,51,0
0,82,52,12
0,62,51,49
0,82,44,12
0,35,126,58
0,42,86,0
0,84,58,0
0,69,50,0
0,82,69,12
0,39,88,8
0,62,50,0
0,82,51,12
0,26,116,58
0,69,51,0
0,82,48,12
0,62,50,58
0,82,50,0
0,26,118,3
0,35,100,0
0,39,89,0
0,42,106,0
0,69,51,0
0,82,67,5
0,26,117,40
0,28,114,0
0,69,51,0
0,82,51,12
0,83,59,47
0,62,50,0
0,82,52,12
0,69,51,3
0,82,40,12
0,69,104,40
0,33,117,4
0,35,127,0
0,42,87,0
0,81,59,0
0,33,51,0
0,52,50,0
0,57,50,0
0,60,51,0
0,69,50,0
0,82,67,11
0,64,50,17
0,82,54,12
0,64,51,58
0,82,47,12
0,33,119,47
0,69,51,0
0,82,45,12
0,35,98,49
0,39,88,0
0,42,106,0
0,64,50,0
0,82,66,12
0,64,50,50
0,82,47,12
0,69,104,21
0,33,118,17
0,69,51,0
0,82,52,12
0,64,51,53
0,82,44,12
0,69,105,56
0,35,127,2
0,42,87,0
0,64,50,0
0,82,69,12
0,69,50,45
0,82,51,7
0,33,117,57
0,64,51,0
0,82,48,12
0,64,50,58
0,82,50,12
0,33,118,40
0,35,101,0
0,39,88,0
0,42,107,0
0,93,48,0
0,69,51,0
0,82,67,1
0,64,51,54
0,82,51,2
0,69,50,58
0,82,52,12
0,64,51,57
0,82,40,12
0,36,114,58
0,35,126,0
0,42,86,0
0,88,47,0
0,36,50,0
0,55,51,0
0,67,50,0
0,82,67,7
0,60,50,55
0,82,54,12
0,60,51,58
0,82,47,12
0,36,117,42
0,67,51,0
0,82,45,12
0,35,99,55
0,39,89,0
0,42,107,0
0,60,50,0
0,82,66,0
0,67,105,13
0,60,50,58
0,82,47,12
0,36,115,45
0,67,51,0
0,69,104,8
0,82,52,4
0,60,51,57
0,82,44,12
0,35,126,58
0,42,86,0
0,60,50,0
0,71,104,11
0,82,69,1
0,67,50,18
0,82,51,12
0,36,114,58
0,60,51,0
0,82,48,12
0,60,50,19
0,82,50,12
0,67,105,5
0,36,116,2
0,35,100,0
0,39,89,0
0,42,106,0
0,67,51,0
0,82,67,9
0,36,117,48
0,60,51,0
0,82,51,12
0,40,115,23
0,67,50,0
0,82,52,12
0,60,51,58
0,82,40,12
0,33,116,47
0,35,127,0
0,42,87,0
0,84,42,0
0,33,51,0
0,57,50,0
0,69,50,0
0,69,104,0
0,82,67,7
0,64,50,58
0,82,54,12
0,64,51,58
0,82,47,12
0,33,118,49
0,69,51,0
0,82,45,12
0,35,99,58
0,39,88,0
0,42,107,0
0,64,50,0
0,82,66,12
0,64,50,2
0,82,47,12
0,69,105,38
0,33,119,19
0,69,51,0
0,82,52,12
0,64,51,58
0,82,44,12
0,69,105,58
0,35,126,0
0,42,86,0
0,64,50,0
0,82,69,12
0,69,50,44
0,82,51,12
0,33,116,18
0,64,51,0
0,82,48,12
0,64,50,5
0,82,50,10
0,33,119,57
0,35,100,0
0,39,88,0
0,42,106,0
0,93,44,0
0,69,51,0
0,82,67,4
0,33,117,58
0,64,51,0
0,82,51,12
0,35,118,39
0,69,50,0
0,82,52,12
0,64,51,58
0,82,40,12
0,36,119,58
0,35,127,0
0,42,87,0
0,88,47,0
0,36,51,0
0,55,50,0
0,67,50,0
0,82,67,7
0,60,50,58
0,82,54,7
0,60,51,8
0,82,47,12
0,36,114,44
0,67,51,0
0,82,45,12
0,67,104,29
0,35,99,23
0,39,89,0
0,42,107,0
0,60,50,0
0,82,66,12
0,60,50,58
0,82,47,12
0,69,105,12
0,36,114,35
0,67,51,0
0,82,52,12
0,60,51,47
0,82,44,12
0,71,104,31
0,35,126,27
0,42,86,0
0,60,50,0
0,82,69,12
0,67,50,17
0,82,51,12
0,36,119,52
0,60,51,0
0,82,48,12
0,60,50,58
0,82,50,12
0,67,104,1
0,36,115,3
0,35,100,0
0,39,89,0
0,42,106,0
0,67,51,0
0,82,67,1
0,36,118,43
0,60,51,0
0,82,51,12
0,40,114,7
0,67,50,0
0,82,52,12
0,60,51,52
0,82,40,12
0,69,105,4
0,33,117,8
0,35,127,0
0,42,87,0
0,33,50,0
0,57,51,0
0,69,50,0
0,82,67,12
0,64,50,55
0,82,54,12
0,64,51,58
0,82,47,0
0,69,105,30
0,33,117,13
0,69,51,0
0,82,45,12
0,35,98,54
0,39,88,0
0,42,106,0
0,64,50,0
0,82,66,12
0,64,50,29
0,82,47,12
0,69,104,13
0,33,118,37
0,69,51,0
0,82,52,12
0,64,51,49
0,82,44,12
0,35,127,58
0,42,87,0
0,64,50,0
0,67,104,10
0,82,69,2
0,69,50,49
0,82,51,1
0,33,114,58
0,64,51,0
0,82,48,7
0,67,105,43
0,64,50,10
0,82,50,12
0,35,101,58
0,39,88,0
0,42,107,0
0,69,51,0
0,82,67,12
0,33,119,24
0,64,51,0
0,82,51,12
0,67,105,11
0,69,50,44
0,82,52,12
0,64,51,58
0,82,40,12
0,33,114,55
0,35,126,0
0,42,86,0
0,69,50,0
0,66,104,7
0,82,67,5
0,64,50,53
0,82,54,12
0,64,51,58
0,82,47,12
0,33,117,55
0,66,104,0
0,69,51,0
0,82,45,12
0,35,99,45
0,39,89,0
0,42,107,0
0,64,50,0
0,82,66,12
0,64,50,12
0,82,47,12
0,66,105,18
0,33,119,35
0,69,51,0
0,82,52,12
0,64,51,50
0,82,44,12
0,35,126,58
0,42,86,0
0,64,50,0
0,64,104,5
0,82,69,7
0,69,50,5
0,82,51,12
0,33,118,58
0,64,51,0
0,82,48,12
0,64,50,58
0,82,50,4
0,33,117,2
0,35,100,0
0,39,88,0
0,42,106,0
0,69,51,0
0,82,67,4
0,33,116,55
0,64,51,0
0,82,51,12
0,66,105,45
0,69,50,13
0,82,52,12
0,64,51,48
0,82,40,12
0,36,116,28
0,35,127,0
0,42,87,0
0,36,51,0
0,55,50,0
0,67,50,0
0,82,67,7
0,67,105,28
0,62,50,58
0,82,54,12
0,62,51,58
0,82,47,12
0,66,104,44
0,36,119,3
0,67,51,0
0,82,45,5
0,35,99,29
0,39,89,0
0,42,107,0
0,60,50,0
0,82,66,12
0,60,50,27
0,82,47,6
0,64,105,20
0,36,119,28
0,67,51,0
0,82,52,12
0,60,51,40
0,82,44,12
0,35,126,35
0,42,86,0
0,60,50,0
0,67,104,7
0,82,69,5
0,67,50,4
0,82,51,12
0,36,116,57
0,60,51,0
0,82,48,12
0,60,50,58
0,82,50,12
0,66,104,2
0,35,100,7
0,39,89,0
0,42,106,0
0,67,51,0
0,82,67,12
0,36,114,55
0,60,51,0
0,82,51,12
0,67,50,8
0,82,52,12
0,38,50,12
0,54,51,0
0,57,51,0
0,62,50,0
0,60,51,0
0,82,40,12
0,62,105,9
0,26,117,9
0,35,127,0
0,42,87,0
0,69,50,0
0,82,67,12
0,62,50,2
0,82,54,4
0,62,51,58
0,82,47,12
0,26,115,40
0,69,51,0
0,82,45,12
0,35,99,39
0,39,88,0
0,42,107,0
0,62,50,0
0,82,66,12
0,62,50,37
0,82,47,12
0,26,116,49
0,69,51,0
0,82,52,12
0,62,51,57
0,82,44,12
0,35,126,58
0,42,86,0
0,62,50,0
0,82,69,12
0,69,50,49
0,82,51,10
0,26,114,53
0,62,51,0
0,82,48,12
0,62,50,58
0,82,50,12
0,57,105,48
0,26,115,3
0,35,100,0
0,39,89,0
0,42,106,0
0,69,51,0
0,82,67,0
0,26,114,42
0,62,51,0
0,82,51,12
0,69,50,57
0,82,52,12
0,62,51,50
0,82,40,9
0,59,104,36
0,31,115,19
0,35,127,0
0,42,87,0
0,31,50,0
0,55,51,0
0,59,50,0
0,67,50,0
0,82,67,12
0,62,50,38
0,82,54,12
0,62,51,58
0,82,47,12
0,31,117,43
0,67,51,0
0,82,45,12
0,35,98,39
0,39,88,0
0,42,106,0
0,62,50,0
0,82,66,12
0,62,50,23
0,82,47,12
0,31,116,40
0,67,51,0
0,82,52,12
0,62,51,37
0,82,44,12
0,35,127,58
0,42,87,0
0,62,50,0
0,82,69,12
0,67,50,2
0,82,51,12
0,31,117,48
0,62,51,0
0,82,48,12
0,62,50,58
0,82,50,12
0,31,114,2
0,35,101,0
0,39,88,0
0,42,107,0
0,67,61,0
0,69,64,0
0,74,48,0
0,67,51,0
0,82,67,4
0,31,114,2
0,62,51,0
0,82,51,4
0,67,50,2
0,82,52,4
0,62,51,2
0,82,40,4
0,26,119,2
0,35,126,0
0,42,86,0
0,45,66,0
0,38,51,0
0,50,51,0
0,54,50,0
0,57,51,0
0,69,50,0
0,82,67,9
0,62,50,52
0,82,54,12
0,62,51,58
0,82,47,12
0,26,115,43
0,43,70,0
0,69,51,0
0,82,45,12
0,35,99,45
0,39,89,0
0,42,107,0
0,62,50,0
0,82,66,12
0,62,50,12
0,82,47,12
0,26,114,45
0,41,65,0
0,69,51,0
0,82,52,12
0,62,51,47
