track,note,velocity,time
0,52,62,381
0,49,68,0
0,35,81,0
0,54,36,0
0,33,68,0
0,45,83,5
0,33,85,0
0,69,96,0
0,64,50,10
0,69,50,10
0,61,50,5
0,54,36,185
0,61,76,0
0,82,36,185
0,54,36,0
0,64,72,10
0,54,36,185
0,63,75,0
0,61,57,5
0,69,48,45
0,54,36,0
0,62,70,0
0,69,80,5
0,69,48,185
0,54,36,0
0,33,67,75
0,54,36,0
0,64,72,0
0,64,71,5
0,33,69,25
0,54,36,0
0,64,64,0
0,61,45,5
0,35,81,150
0,54,36,0
0,33,85,5
0,45,48,0
0,69,90,0
0,54,36,80
0,61,47,15
0,82,36,10
0,54,36,0
0,64,80,5
0,54,36,5
0,63,68,0
0,61,47,10
0,69,48,0
0,54,36,0
0,39,66,0
0,62,72,0
0,69,85,5
0,61,52,5
0,61,91,3
0,69,48,0
0,54,36,0
0,64,50,4
0,64,104,10
0,54,36,0
0,39,66,0
0,64,69,0
0,69,52,3
0,69,102,4
0,54,36,0
0,64,72,0
0,33,64,0
0,71,51,0
0,64,50,0
0,61,50,0
0,35,81,0
0,54,36,0
0,71,102,20
0,59,115,1
0,54,36,10
0,59,115,1
0,82,36,50
0,54,36,0
0,59,115,1
0,61,76,16
0,69,52,10
0,54,36,23
0,63,75,0
0,57,115,8
0,69,95,17
0,69,48,50
0,54,36,0
0,62,70,0
0,69,48,30
0,54,36,0
0,57,115,7
0,33,64,5
0,54,36,0
0,64,72,0
0,61,50,10
0,61,78,15
0,35,67,2
0,54,36,0
0,64,64,0
0,62,52,5
0,62,93,10
0,35,81,88
0,54,36,0
0,54,36,185
0,57,115,15
0,82,36,80
0,54,36,0
0,57,115,4
0,68,51,6
0,56,115,17
0,54,36,3
0,63,68,0
0,56,115,12
0,69,48,5
0,54,36,0
0,62,72,0
0,54,115,28
0,66,50,2
0,69,48,0
0,54,36,0
0,54,36,18
0,64,69,0
0,54,115,2
0,64,49,0
0,35,65,5
0,54,36,0
0,64,72,0
0,52,115,8
0,61,62,1
0,62,90,2
0,64,97,0
0,37,62,5
0,35,81,0
0,54,36,0
0,71,49,3
0,59,115,1
0,64,50,14
0,54,36,50
0,59,115,15
0,59,115,75
0,82,36,3
0,54,36,0
0,69,50,5
0,54,36,5
0,63,75,0
0,57,115,18
0,69,48,185
0,54,36,0
0,62,70,0
0,69,48,9
0,54,36,0
0,56,115,10
0,54,36,90
0,64,72,0
0,57,115,6
0,54,36,35
0,64,64,0
0,61,115,1
0,66,86,13
0,66,49,48
0,57,52,10
0,62,50,5
0,38,66,30
0,35,81,0
0,54,36,0
0,61,115,61
0,54,36,7
0,61,115,65
0,82,36,16
0,54,36,0
0,62,115,11
0,54,36,4
0,63,68,0
0,61,115,3
0,69,48,2
0,54,36,0
0,39,66,0
0,62,72,0
0,69,48,15
0,54,36,0
0,68,85,5
0,59,115,5
0,68,52,15
0,54,36,5
0,39,66,0
0,64,69,0
0,69,94,5
0,69,50,0
0,64,90,40
0,40,63,0
0,64,52,0
0,54,36,0
0,64,72,0
0,33,67,15
0,35,81,0
0,54,36,0
0,59,115,35
0,59,52,57
0,54,36,56
0,59,102,10
0,59,115,8
0,59,115,82
0,82,36,6
0,54,36,0
0,57,52,105
0,54,36,57
0,63,75,0
0,57,63,0
0,57,87,15
0,57,115,6
0,69,48,20
0,54,36,0
0,62,70,0
0,57,115,182
0,69,48,3
0,54,36,0
0,57,115,14
0,33,68,6
0,54,36,0
0,64,72,0
0,57,115,86
0,28,64,7
0,54,36,0
0,64,64,0
0,69,52,41
0,61,50,35
0,40,64,20
0,35,81,0
0,54,36,0
0,57,115,3
0,64,90,7
0,54,36,71
0,57,115,5
0,56,115,5
0,82,36,0
0,54,36,0
0,54,36,55
0,63,68,0
0,71,109,5
0,59,115,11
0,71,50,80
0,64,50,10
0,68,50,5
0,69,48,0
0,54,36,0
0,62,72,0
0,69,48,40
0,54,36,0
0,64,107,0
0,54,36,0
0,64,69,0
0,52,115,7
0,66,106,45
0,42,62,5
0,54,36,0
0,64,72,0
0,54,115,27
0,62,50,80
0,69,51,10
0,66,52,0
0,38,56,0
0,54,58,0
0,50,62,0
0,42,54,0
0,50,64,0
0,35,81,5
0,54,36,0
0,38,65,0
0,54,36,10
0,82,36,15
0,54,36,0
0,54,36,24
0,63,75,0
0,37,59,10
0,49,55,0
0,37,64,5
0,69,48,0
0,54,36,0
0,62,70,0
0,69,48,40
0,54,36,0
0,54,36,17
0,64,72,0
0,69,50,80
0,74,52,5
0,66,50,10
0,62,115,6
0,35,67,6
0,54,36,0
0,64,64,0
0,74,114,10
0,66,105,0
0,47,59,0
0,35,54,0
0,35,81,50
0,54,36,0
0,74,52,42
0,62,115,15
0,54,36,5
0,74,109,5
0,66,103,0
0,74,52,17
0,82,36,30
0,54,36,0
0,62,115,3
0,74,113,2
0,66,96,0
0,73,52,10
0,61,115,19
0,73,105,6
0,54,36,0
0,63,68,0
0,73,50,0
0,64,52,10
0,40,57,0
0,52,54,0
0,68,52,5
0,61,115,15
0,40,68,0
0,69,48,0
0,54,36,0
0,39,66,0
0,62,72,0
0,73,100,5
0,68,93,0
0,64,93,0
0,52,65,5
0,56,66,0
0,59,68,0
0,69,48,7
0,54,36,0
0,59,115,37
0,71,50,10
0,40,65,15
0,54,36,0
0,39,66,0
0,64,69,0
0,71,100,5
0,28,66,185
0,54,36,0
0,64,72,0
0,71,90,0
0,33,63,0
0,33,61,0
0,45,56,0
0,61,61,0
0,71,50,0
0,61,52,0
0,35,81,0
0,54,36,0
0,49,68,5
0,59,65,0
0,59,115,28
0,54,36,9
0,59,115,12
0,59,115,6
0,82,36,2
0,54,36,0
0,61,70,5
0,69,52,44
0,54,36,17
0,63,75,0
0,57,68,0
0,69,92,5
0,57,115,9
0,69,48,80
0,54,36,0
0,62,70,0
0,37,68,35
0,69,48,0
0,54,36,0
0,61,85,10
0,61,50,5
0,33,64,10
0,54,36,0
0,64,72,0
0,62,59,0
0,62,52,5
0,47,54,0
0,35,63,10
0,54,36,0
0,64,64,0
0,62,93,15
0,35,81,156
0,54,36,0
0,54,36,185
0,69,76,0
0,57,115,1
0,57,115,58
0,82,36,7
0,54,36,0
0,69,95,15
0,56,115,161
0,68,49,5
0,54,36,0
0,63,68,0
0,68,85,1
0,56,115,4
0,69,48,16
0,54,36,0
0,62,72,0
0,68,74,10
0,66,49,8
0,54,115,18
0,69,48,0
0,54,36,0
0,66,88,5
0,54,115,29
0,40,69,7
0,54,36,0
0,64,69,0
0,66,77,5
0,64,52,82
0,64,98,0
0,42,64,0
0,54,36,0
0,64,72,0
0,52,115,0
0,71,49,9
0,37,63,0
0,64,50,0
0,64,61,0
0,35,81,0
0,54,36,0
0,71,91,3
0,49,61,5
0,59,115,1
0,59,115,67
0,54,36,7
0,59,115,69
0,61,73,16
0,82,36,0
0,54,36,0
0,69,52,34
0,54,36,5
0,63,75,0
0,69,95,5
0,57,115,14
0,69,48,15
0,54,36,0
0,62,70,0
0,62,91,14
0,47,73,5
0,56,115,15
0,62,85,5
0,40,65,0
0,69,48,0
0,54,36,0
0,45,80,43
0,61,93,15
0,37,62,5
0,54,36,0
0,64,72,0
0,61,85,3
0,57,115,2
0,50,74,0
0,66,89,10
0,66,52,5
0,66,100,5
0,38,68,0
0,54,36,0
0,64,64,0
0,48,95,0
0,61,115,2
0,35,81,0
0,54,36,0
0,64,87,10
0,49,74,2
0,61,115,8
0,64,99,12
0,54,36,0
0,62,93,67
0,47,73,5
0,61,115,4
0,62,102,6
0,82,36,0
0,54,36,0
0,54,36,65
0,63,68,0
0,45,95,0
0,62,115,2
0,61,68,0
0,56,68,0
0,61,102,0
0,69,48,0
0,54,36,0
0,62,72,0
0,45,95,0
0,49,81,5
0,61,93,10
0,59,115,1
0,50,81,25
0,62,87,10
0,62,105,5
0,38,68,0
0,69,48,0
0,54,36,0
0,61,115,1
0,71,50,49
0,47,81,2
0,59,90,0
0,59,105,0
0,40,64,0
0,35,105,0
0,54,36,0
0,64,69,0
0,43,95,0
0,62,115,16
0,61,90,10
0,49,80,0
0,73,50,5
0,61,104,5
0,42,64,0
0,54,36,0
0,64,72,0
0,69,115,25
0,42,100,0
0,54,94,0
0,73,96,0
0,69,105,0
0,66,100,0
0,30,62,0
0,69,52,0
0,81,50,0
0,73,50,0
0,35,105,0
0,54,36,0
0,49,75,0
0,69,68,10
0,61,65,0
0,66,67,0
0,73,68,0
0,54,56,6
0,42,61,10
0,54,36,130
0,82,36,113
0,54,36,0
0,68,87,15
0,64,75,0
0,54,36,17
0,63,75,0
0,69,48,8
0,54,36,0
0,54,38,0
0,38,105,0
0,62,70,0
0,69,105,0
0,66,96,0
0,73,100,0
0,69,48,24
0,54,36,0
0,30,64,0
0,68,86,35
0,64,100,0
0,54,36,0
0,64,72,0
0,30,68,35
0,54,36,0
0,64,64,0
0,69,115,1
0,40,105,18
0,69,95,0
0,73,95,0
0,66,93,0
0,52,59,15
0,40,56,5
0,28,62,0
0,35,105,0
0,54,36,0
0,69,115,6
0,54,36,37
0,69,115,13
0,71,52,31
0,68,50,5
0,68,89,9
0,64,82,0
0,68,115,3
0,82,36,7
0,54,36,0
0,68,115,23
0,54,36,27
0,63,68,0
0,69,50,90
0,73,52,10
0,69,102,15
0,66,90,0
0,66,115,8
0,69,48,2
0,54,36,0
0,54,38,0
0,39,66,0
0,38,105,0
0,62,72,0
0,64,69,0
0,68,64,0
0,28,66,90
0,69,48,0
0,54,36,0
0,71,52,5
0,68,52,2
0,68,79,10
0,64,85,0
0,54,36,0
0,39,66,0
0,64,69,0
0,64,115,0
0,28,64,27
0,54,36,0
0,64,72,0
0,69,115,24
0,66,51,150
0,62,105,10
0,74,101,0
0,69,98,0
0,66,99,0
0,69,52,0
0,50,56,0
0,38,61,0
0,26,65,0
0,35,105,0
0,54,36,0
0,74,69,5
0,62,64,0
0,69,59,0
0,66,61,0
0,54,36,2
0,82,36,100
0,54,36,0
0,64,89,10
0,62,101,165
0,54,36,10
0,63,75,0
0,64,50,130
0,68,50,10
0,64,63,0
0,61,61,0
0,69,48,10
0,54,36,0
0,54,38,0
0,38,105,0
0,62,70,0
0,37,64,0
0,49,57,0
0,69,105,0
0,61,100,0
0,66,102,0
0,61,62,5
0,69,48,17
0,54,36,0
0,35,105,58
0,54,36,0
0,64,72,0
0,61,100,5
0,64,98,0
0,35,63,25
0,54,36,0
0,64,64,0
0,69,115,4
0,62,110,11
0,69,108,0
0,66,103,0
0,47,55,20
0,59,59,10
0,62,52,23
0,66,49,5
0,62,67,25
0,59,67,0
0,69,115,0
0,35,105,5
0,54,36,0
0,54,36,51
0,66,99,0
0,69,115,1
0,69,115,33
0,64,96,6
0,82,36,0
0,54,36,0
0,69,115,31
0,62,108,3
0,52,107,0
0,74,108,0
0,69,106,0
0,66,103,0
0,54,36,0
0,63,68,0
0,83,50,20
0,64,59,10
0,40,66,5
0,69,48,0
0,54,36,0
0,54,38,0
0,39,66,0
0,38,105,0
0,62,72,0
0,52,60,5
0,66,94,150
0,69,48,0
0,54,36,0
0,71,115,4
0,64,90,40
0,28,68,0
0,54,36,0
0,39,66,0
0,64,69,0
0,68,115,27
0,30,65,43
0,35,105,0
0,54,36,0
0,64,72,0
0,69,115,22
0,64,51,5
0,81,49,5
0,57,50,5
0,45,60,0
0,57,58,10
0,33,105,0
0,45,104,0
0,33,64,0
0,57,67,0
0,35,105,0
0,54,36,0
0,54,36,185
0,57,93,5
0,59,100,65
0,82,36,0
0,54,36,0
0,69,107,20
0,62,106,0
0,33,63,0
0,54,36,0
0,63,75,0
0,46,80,0
0,69,48,185
0,54,36,0
0,54,38,0
0,38,105,0
0,62,70,0
0,42,52,0
0,59,107,5
0,69,48,0
0,54,36,0
0,54,36,30
0,64,72,0
0,54,36,75
0,64,64,0
0,61,52,140
0,61,62,20
0,73,64,0
0,64,61,0
0,33,105,5
0,45,102,0
0,52,105,0
0,61,102,0
0,57,97,0
0,33,65,0
0,35,105,0
0,54,36,0
0,69,115,50
0,54,36,5
0,69,115,82
0,82,36,1
0,54,36,0
0,45,95,0
0,69,115,66
0,54,36,0
0,63,68,0
0,64,51,4
0,57,51,10
0,61,50,5
0,69,48,0
0,54,36,0
0,54,38,0
0,39,66,0
0,38,105,0
0,62,72,0
0,33,66,0
0,69,115,2
0,69,48,40
0,54,36,0
0,69,115,3
0,57,102,0
0,64,109,0
0,61,107,0
0,35,105,22
0,54,36,0
0,39,66,0
0,64,69,0
0,43,95,0
0,28,68,0
0,68,115,4
0,30,65,15
0,54,36,0
0,64,72,0
0,66,115,13
0,66,103,0
0,57,102,0
0,62,103,0
0,26,69,0
0,62,52,0
0,57,52,0
0,66,52,0
0,78,83,0
0,35,105,0
0,54,36,0
0,49,75,0
0,62,67,0
0,57,68,0
0,66,65,0
0,62,58,5
0,50,59,10
0,54,36,127
0,82,36,185
0,54,36,0
0,66,115,49
0,54,36,11
0,63,75,0
0,66,115,12
0,69,48,8
0,54,36,0
0,54,38,0
0,38,105,0
0,62,70,0
0,66,115,26
0,69,48,10
0,54,36,0
0,64,104,0
0,61,98,0
0,30,62,0
0,68,115,12
0,54,36,84
0,64,72,0
0,33,64,0
0,69,115,0
0,59,51,13
0,59,61,5
0,71,65,0
0,71,50,5
0,66,101,5
0,62,99,0
0,35,65,10
0,54,36,0
0,64,64,0
0,83,79,15
0,71,115,3
0,35,105,58
0,54,36,0
0,71,115,22
0,54,36,21
0,73,115,95
0,82,36,39
0,54,36,0
0,71,115,46
0,54,36,32
0,63,68,0
0,69,48,15
0,54,36,0
0,54,38,0
0,39,66,0
0,38,105,0
0,62,72,0
0,78,85,65
0,66,50,15
0,35,68,20
0,69,48,0
0,54,36,0
0,68,115,3
0,54,36,25
0,39,66,0
0,64,69,0
0,66,115,0
0,56,50,5
0,64,50,10
0,61,52,5
0,76,79,0
0,64,63,0
0,64,102,20
0,61,96,0
0,56,92,0
0,37,64,0
0,56,68,0
0,61,66,0
0,54,36,0
0,64,72,0
0,64,115,9
0,35,105,120
0,54,36,0
0,49,59,5
0,61,56,10
0,54,36,185
0,82,36,78
0,54,36,0
0,64,115,14
0,64,115,52
0,54,36,6
0,63,75,0
0,64,115,32
0,69,48,4
0,54,36,0
0,54,38,0
0,38,105,0
0,62,70,0
0,64,52,30
0,76,77,10
0,66,115,27
0,28,68,5
0,69,48,0
0,54,36,0
0,64,104,10
0,61,95,0
0,68,115,3
0,29,68,0
0,54,36,0
0,64,72,0
0,66,52,23
0,57,50,10
0,78,77,0
0,69,115,21
0,66,101,4
0,57,95,0
0,61,97,0
0,57,61,5
0,69,66,0
0,54,36,5
0,64,64,0
0,30,67,0
0,35,105,150
0,54,36,0
0,64,52,49
0,76,84,15
0,54,36,25
0,64,104,0
0,69,115,1
0,82,36,77
0,54,36,0
0,69,115,1
0,78,82,21
0,66,50,10
0,66,102,15
0,61,102,0
0,69,115,0
0,54,36,0
0,63,68,0
0,69,48,91
0,54,36,0
0,54,38,0
0,39,66,0
0,38,105,0
0,62,72,0
0,69,115,6
0,81,78,37
0,69,49,25
0,69,115,6
0,64,106,9
0,28,66,0
0,35,105,0
0,69,48,0
0,54,36,0
0,68,115,14
0,54,36,0
0,39,66,0
0,64,69,0
0,28,64,21
0,54,36,0
0,64,72,0
0,66,115,12
0,62,56,10
0,50,62,15
0,26,64,15
0,57,51,0
0,62,52,0
0,66,50,0
0,35,105,0
0,54,36,0
0,49,75,0
0,66,99,0
0,57,95,0
0,62,97,0
0,66,63,0
0,57,69,0
0,62,65,0
0,54,36,98
0,82,36,185
0,54,36,0
0,66,115,2
0,54,36,15
0,63,75,0
0,66,115,46
0,66,63,47
0,69,48,0
0,54,36,0
0,54,38,0
0,38,105,0
0,62,70,0
0,66,115,24
0,30,64,25
0,69,48,0
0,54,36,0
0,68,65,0
0,64,99,5
0,61,95,0
0,68,115,0
0,33,68,185
