track,note,velocity,time
0,60,87,0
0,55,86,4
0,36,78,0
0,48,83,0
0,52,85,2
0,60,66,4
0,48,54,4
0,55,62,2
0,36,37,0
0,52,59,2
0,55,77,60
0,52,77,4
0,55,32,8
0,52,32,4
0,55,77,28
0,52,77,4
0,55,34,8
0,52,32,4
0,59,91,16
0,59,81,12
0,55,85,0
0,60,88,0
0,52,82,4
0,55,59,0
0,60,70,0
0,52,50,2
0,59,90,32
0,59,79,12
0,57,86,72
0,53,82,4
0,48,82,2
0,57,64,2
0,41,81,0
0,48,49,4
0,53,50,0
0,41,47,2
0,48,75,44
0,53,77,0
0,48,27,12
0,53,31,0
0,48,77,60
0,38,77,0
0,53,76,4
0,48,32,4
0,38,33,0
0,53,30,4
0,57,87,24
0,57,67,12
0,48,84,0
0,53,81,2
0,53,45,10
0,48,57,0
0,53,86,16
0,53,61,12
0,55,85,0
0,52,81,4
0,48,80,0
0,36,79,0
0,55,59,2
0,52,45,4
0,48,41,4
0,36,40,0
0,60,83,60
0,52,81,4
0,55,82,0
0,60,53,8
0,52,46,4
0,55,50,0
0,59,82,88
0,55,81,4
0,52,80,4
0,59,48,4
0,55,45,4
0,52,42,4
0,59,89,52
0,55,88,0
0,52,86,4
0,59,76,4
0,55,69,2
0,52,61,4
0,59,90,4
0,59,80,12
0,60,95,8
0,60,97,4
0,53,88,12
0,41,85,0
0,57,89,0
0,48,83,4
0,53,69,4
0,41,58,0
0,57,75,0
0,48,54,4
0,60,90,44
0,57,87,0
0,53,87,4
0,57,67,8
0,60,78,2
0,53,65,2
0,62,90,16
0,62,80,8
0,64,98,12
0,64,104,4
0,53,83,32
0,57,84,0
0,60,84,0
0,38,82,4
0,50,85,0
0,53,53,8
0,57,55,0
0,60,57,0
0,38,49,4
0,50,58,0
0,57,74,12
0,53,77,8
0,57,24,4
0,53,32,8
0,62,89,36
0,62,71,10
0,64,89,4
0,55,84,4
0,60,89,0
0,48,85,2
0,36,83,0
0,64,73,6
0,36,53,4
0,48,59,0
0,55,56,0
0,60,72,0
0,60,77,20
0,55,77,4
0,60,31,8
0,55,33,4
0,52,86,48
0,40,86,0
0,55,76,4
0,52,64,4
0,40,64,0
0,60,77,0
0,55,30,4
0,60,32,4
0,64,85,52
0,60,85,8
0,64,59,4
0,55,82,0
0,60,59,8
0,55,49,4
0,64,89,4
0,55,84,4
0,60,88,0
0,64,74,4
0,55,57,4
0,60,68,0
0,64,89,0
0,55,87,0
0,60,89,0
0,64,76,8
0,55,67,4
0,60,74,0
0,62,90,0
0,55,89,4
0,60,87,0
0,62,80,8
0,55,72,4
0,60,67,0
0,57,87,4
0,41,83,0
0,57,66,4
0,53,82,0
0,48,84,0
0,41,51,8
0,48,56,4
0,53,49,2
0,57,83,64
0,53,81,8
0,57,53,4
0,48,80,0
0,53,46,8
0,48,42,4
0,38,80,4
0,53,77,4
0,48,78,0
0,38,41,4
0,53,34,4
0,48,36,0
0,60,80,40
0,53,88,0
0,60,43,12
0,53,69,0
0,60,81,16
0,53,89,0
0,60,47,12
0,53,71,0
0,55,88,0
0,55,70,4
0,60,84,0
0,52,80,0
0,36,82,0
0,48,80,0
0,60,57,2
0,52,42,0
0,48,43,0
0,36,49,2
0,55,79,0
0,52,80,0
0,55,39,0
0,52,42,0
0,59,81,20
0,59,47,12
0,52,78,0
0,55,79,0
0,52,37,12
0,55,40,0
0,59,89,48
0,55,87,4
0,52,84,4
0,59,71,4
0,55,66,4
0,52,56,4
0,60,89,176
0,60,73,4
0,57,83,4
0,53,84,4
0,60,87,0
0,41,82,0
0,48,83,0
0,57,52,4
0,53,55,4
0,60,65,0
0,41,48,4
0,48,51,0
0,57,78,96
0,48,77,4
0,57,36,8
0,53,76,0
0,48,34,4
0,53,30,4
0,38,78,144
0,50,79,8
0,57,77,0
0,38,37,4
0,53,77,4
0,50,40,4
0,57,34,0
0,53,34,8
0,57,86,12
0,53,82,2
0,60,87,0
0,53,50,8
0,60,66,0
0,57,62,0
0,55,83,8
0,60,85,0
0,36,82,0
0,52,83,0
0,48,82,0
0,55,54,8
0,60,58,0
0,36,49,4
0,52,51,0
0,48,49,0
0,52,76,136
0,55,76,0
0,52,29,12
0,55,28,0
0,52,74,4
0,55,74,4
0,52,24,8
0,55,23,4
0,60,87,76
0,60,65,12
0,52,82,28
0,52,49,12
0,55,86,76
0,55,63,12
0,52,81,8
0,55,81,0
0,36,75,0
0,62,84,0
0,48,77,0
0,55,47,12
0,36,26,0
0,62,56,0
0,48,33,0
0,52,47,2
0,55,76,8
0,52,76,0
0,62,79,2
0,62,40,10
0,55,30,0
0,52,29,0
0,64,80,32
0,64,41,12
0,43,25,8
0,43,42,24
0,43,41,16
0,40,40,8
0,36,45,8
0,53,80,4
0,57,81,0
0,41,81,0
0,60,82,4
0,48,80,4
0,41,45,4
0,53,41,2
0,57,46,0
0,60,49,2
0,48,41,4
0,38,79,144
0,38,40,12
0,57,76,108
0,57,30,12
0,53,74,8
0,45,31,4
0,53,23,8
0,43,39,20
0,43,39,4
0,41,28,16
0,40,34,32
0,60,81,40
0,55,81,4
0,36,80,4
0,52,79,2
0,60,47,2
0,48,79,0
0,55,47,4
0,52,40,4
0,36,42,0
0,48,39,4
0,36,33,54
0,36,45,48
0,52,77,64
0,55,78,8
0,52,34,4
0,55,36,8
0,59,82,64
0,55,78,4
0,52,77,0
0,59,50,6
0,52,32,4
0,55,37,0
0,43,52,16
0,59,85,16
0,55,77,0
0,48,71,4
0,52,77,0
0,59,60,8
0,55,33,0
0,52,32,4
0,59,82,60
0,59,50,12
0,47,54,4
0,53,80,20
0,60,82,0
0,57,82,0
0,41,82,4
0,53,41,8
0,60,50,0
0,57,48,0
0,41,48,4
0,47,60,2
0,45,66,8
0,57,77,24
0,53,75,8
0,57,31,4
0,53,26,8
0,50,80,8
0,38,81,0
0,57,77,0
0,53,77,4
0,50,41,4
0,38,45,0
0,57,33,0
0,53,34,4
0,57,76,84
0,57,29,12
0,53,76,4
0,53,30,12
0,43,47,40
0,60,83,4
0,48,81,0
0,43,62,4
0,36,79,0
0,52,79,4
0,55,80,0
0,60,54,4
0,48,45,0
0,36,38,4
0,52,39,4
0,55,44,0
0,48,71,16
0,48,63,4
0,52,79,148
0,55,80,0
0,60,82,0
0,55,41,12
0,60,49,0
0,52,39,2
0,59,82,16
0,52,79,4
0,55,80,0
0,59,50,8
0,52,39,4
0,55,43,0
0,59,87,132
0,55,83,0
0,52,82,0
0,59,65,8
0,55,51,0
0,52,49,0
0,55,86,24
0,55,63,12
0,57,84,8
0,41,83,0
0,53,82,0
0,60,84,0
0,57,55,8
0,41,52,0
0,53,49,4
0,60,57,0
0,53,80,128
0,57,80,0
0,53,43,12
0,57,44,0
0,48,46,40
0,48,56,44
0,47,57,24
0,45,62,0
0,43,60,48
0,57,79,24
0,38,84,0
0,50,83,4
0,53,79,0
0,57,40,4
0,38,55,4
0,53,39,2
0,50,51,2
0,41,57,4
0,38,51,24
0,57,82,80
0,60,81,0
0,53,80,4
0,57,50,8
0,60,47,0
0,53,44,4
0,45,42,64
0,53,65,4
0,60,80,8
0,48,77,4
0,55,80,0
0,52,80,0
0,36,78,4
0,60,42,4
0,52,44,4
0,55,42,2
0,48,33,0
0,36,37,2
0,52,56,0
0,52,68,20
0,60,84,140
0,55,81,0
0,52,79,4
0,60,56,8
0,55,45,0
0,52,40,4
0,59,82,48
0,55,80,0
0,52,81,4
0,59,49,4
0,55,43,0
0,52,45,4
0,52,81,188
0,59,82,0
0,55,82,0
0,52,45,12
0,59,50,0
0,55,48,0
0,52,51,4
0,52,62,28
0,53,71,16
0,53,64,16
0,57,85,4
0,53,83,4
0,60,86,0
0,41,83,0
0,57,59,8
0,53,51,4
0,60,63,0
0,41,53,0
0,53,83,92
0,57,83,0
0,53,52,12
0,57,54,0
0,57,82,116
0,50,80,4
0,38,82,0
0,53,81,0
0,57,48,8
0,50,42,4
0,38,50,0
0,53,46,0
0,53,65,4
0,60,86,72
0,57,85,0
0,60,61,12
0,57,60,0
0,53,63,20
0,53,78,4
0,53,35,12
0,53,62,0
0,53,85,32
0,57,76,0
0,53,59,8
0,57,29,4
0,53,63,24
0,53,62,24
0,48,82,4
0,55,82,0
0,60,84,0
0,36,80,4
0,52,82,0
0,50,65,0
0,48,49,4
0,55,49,0
0,60,57,0
0,36,43,4
0,52,50,0
0,52,58,60
0,55,88,64
0,60,89,0
0,52,86,4
0,55,69,8
0,60,73,0
0,52,63,4
0,52,80,12
0,52,44,12
0,52,86,120
0,55,87,0
0,59,89,0
0,59,76,4
0,52,64,2
0,55,65,0
0,55,87,152
0,59,90,0
0,52,86,4
0,55,65,8
0,59,80,0
0,52,63,4
0,52,69,72
0,52,77,40
0,55,83,20
0,59,85,0
0,52,83,4
0,55,54,8
0,59,60,0
0,52,51,4
0,52,71,2
0,50,74,16
0,60,87,0
0,41,86,0
0,57,87,0
0,53,83,2
0,53,52,10
0,60,65,0
0,41,64,0
0,57,66,0
0,48,77,24
0,48,77,4
0,57,85,12
0,60,85,0
0,53,83,4
0,57,59,8
0,60,58,0
0,53,51,4
0,57,80,60
0,53,80,4
0,38,84,4
0,57,43,4
0,50,80,0
0,53,43,4
0,38,55,4
0,50,41,2
0,53,77,36
0,53,32,12
0,60,89,132
0,53,87,4
0,57,89,0
0,60,75,8
0,53,65,4
0,57,74,0
0,43,66,0
0,53,73,12
0,53,89,28
0,60,92,0
0,57,91,0
0,53,76,4
0,60,84,0
0,57,81,0
0,53,74,28
0,53,81,18
0,48,85,8
0,55,86,2
0,60,88,0
0,36,87,0
0,52,86,2
0,48,58,4
0,55,64,4
0,60,68,0
0,36,66,0
0,52,62,4
0,55,87,4
0,55,94,8
0,60,87,40
0,52,83,4
0,55,86,0
0,60,65,8
0,52,54,4
0,55,63,0
0,55,79,60
0,59,82,0
0,52,80,8
0,55,39,4
0,59,48,0
0,52,43,8
0,55,76,100
0,59,79,8
0,55,28,4
0,52,77,0
0,59,38,8
0,52,31,4
0,55,77,68
0,59,78,24
0,55,77,0
0,52,77,4
0,59,36,4
0,55,34,0
0,52,32,4
0,55,86,20
0,57,86,30
0,60,86,2
0,57,85,0
0,41,83,0
0,53,83,2
0,60,62,8
0,57,58,0
0,41,51,0
0,53,53,4
0,57,86,16
0,55,74,20
0,53,70,4
0,53,82,44
0,57,81,0
0,53,49,12
0,57,46,0
0,53,61,116
0,50,80,28
0,60,81,4
0,38,80,0
0,57,82,0
0,53,80,0
0,50,43,4
0,38,44,4
0,57,48,0
0,60,46,2
0,53,43,2
0,57,87,8
0,53,86,12
0,57,87,0
0,60,87,0
0,53,61,12
0,57,66,0
0,60,66,0
0,57,82,20
0,53,84,40
0,60,88,0
0,57,86,0
0,60,68,8
0,57,62,0
0,53,56,2
0,57,84,14
0,60,102,24
0,52,86,16
0,55,86,0
0,60,89,0
0,48,87,0
0,36,89,4
0,52,63,8
0,55,63,0
0,60,74,0
0,48,66,0
0,36,76,2
0,84,25,20
0,72,33,0
0,60,106,24
0,55,80,60
0,52,78,8
0,55,42,4
0,52,36,8
0,55,64,20
0,55,86,84
0,52,86,4
0,55,62,8
0,52,62,4
0,52,84,84
0,55,83,0
0,52,55,12
0,55,54,0
0,59,91,16
0,59,81,4
0,59,74,0
0,60,90,24
0,55,89,0
0,48,87,0
0,36,89,0
0,52,88,0
0,60,102,4
0,60,80,0
0,55,73,0
0,48,66,0
0,36,76,0
0,52,70,0
0,60,31,8
0,55,89,4
0,52,88,4
0,55,73,8
0,52,69,4
0,55,90,48
0,52,89,4
0,55,80,8
0,52,77,4
0,55,89,40
0,52,90,4
0,55,77,8
0,52,80,4
0,71,73,4
0,83,63,0
0,59,89,0
0,59,84,8
0,59,71,0
0,48,92,4
0,36,94,0
0,55,96,4
0,60,96,0
0,52,94,4
0,48,87,4
0,36,91,0
0,55,99,4
0,60,99,0
0,72,73,0
0,84,72,2
0,52,92,2
0,60,104,0
0,60,62,32
0,55,88,20
0,52,87,4
0,55,69,8
0,52,66,4
0,55,92,84
0,52,90,4
0,55,86,8
0,52,79,4
0,52,88,52
0,55,88,0
0,52,70,12
0,55,70,0
0,48,82,0
0,48,49,0
0,55,89,12
0,36,91,4
0,52,89,0
0,48,89,4
0,55,76,4
0,36,83,4
0,52,76,0
0,48,75,4
0,55,83,120
0,52,86,4
0,55,53,8
0,52,62,4
0,83,66,8
0,71,71,2
0,59,89,0
0,52,83,6
0,59,73,4
0,59,97,0
0,52,53,4
0,48,91,20
0,55,90,0
0,60,95,0
0,36,94,2
0,52,89,0
0,84,68,4
0,48,82,4
0,55,80,0
0,60,96,0
0,36,91,4
0,52,77,0
0,72,75,2
0,60,109,4
0,59,99,8
0,55,91,12
0,52,91,4
0,59,93,0
0,55,81,8
0,52,81,4
0,59,88,0
0,83,67,12
0,71,69,4
0,55,92,20
0,57,93,4
0,60,95,0
0,41,95,2
0,53,92,0
0,57,89,4
0,53,84,4
0,41,94,0
0,60,97,0
0,81,77,16
0,69,70,4
0,55,106,0
0,57,102,4
0,57,83,44
0,53,81,8
0,57,51,4
0,53,46,8
0,57,89,88
0,53,89,4
0,57,74,8
0,53,72,4
0,57,75,60
0,53,75,4
0,57,26,8
0,53,26,4
0,50,86,4
0,57,79,0
0,53,81,4
0,38,87,2
0,50,64,6
0,57,40,0
0,38,67,4
0,53,47,0
0,57,77,40
0,53,82,0
0,57,32,4
0,53,49,0
0,59,90,20
0,59,80,12
0,59,89,4
0,83,67,8
0,71,81,4
0,57,96,16
0,60,96,0
0,72,79,4
0,53,90,0
0,57,99,8
0,60,100,0
0,84,72,2
0,53,80,2
0,60,89,0
0,62,90,12
0,60,84,56
0,57,86,8
0,60,57,4
0,53,88,0
0,57,64,8
0,53,70,4
0,74,68,4
0,86,70,0
0,55,83,52
0,60,90,4
0,48,87,0
0,55,89,0
0,36,93,4
0,52,89,0
0,60,80,8
0,48,67,0
0,55,76,0
0,36,89,4
0,52,73,0
0,79,73,92
0,67,64,4
0,55,80,36
0,52,78,8
0,55,42,4
0,52,36,8
0,60,86,88
0,52,84,0
0,55,86,0
0,60,61,12
0,52,56,0
0,55,61,0
0,52,82,76
0,52,48,12
0,59,89,24
0,55,86,4
0,52,85,4
0,59,73,4
0,55,64,4
0,52,58,4
0,52,86,76
0,52,61,8
0,83,76,8
0,71,77,0
0,52,89,40
0,55,92,0
0,59,94,0
0,59,89,8
0,55,85,4
0,59,92,0
0,52,76,2
0,72,70,4
0,84,71,4
0,60,104,4
0,52,89,0
0,55,89,0
0,60,95,0
0,52,73,4
0,55,75,0
0,60,97,0
0,59,97,20
0,71,70,28
0,83,73,0
0,55,90,12
0,59,89,0
0,52,90,8
0,55,78,4
0,59,77,0
0,52,80,8
0,55,74,16
0,60,89,4
0,41,93,0
0,53,87,0
0,57,89,0
0,79,66,4
0,67,66,0
0,60,77,8
0,41,89,0
0,53,67,0
0,57,74,0
0,55,96,16
0,69,70,2
0,57,82,0
0,81,75,8
0,57,81,28
0,57,46,12
0,53,75,8
0,53,27,12
0,53,87,112
0,57,89,0
0,57,73,12
0,53,66,2
0,57,78,56
0,57,36,12
0,53,78,0
0,53,35,12
0,50,85,104
0,53,83,4
0,38,88,0
0,57,81,0
0,50,60,4
0,53,51,4
0,38,69,0
0,57,47,0
0,57,81,12
0,57,45,12
0,83,74,4
0,71,81,0
0,59,90,20
0,53,83,8
0,59,80,4
0,53,51,8
0,59,94,0
0,72,82,16
0,84,64,4
0,57,90,8
0,53,88,4
0,60,95,0
0,57,80,8
0,53,70,4
0,60,94,0
0,60,106,0
0,53,86,16
0,57,88,0
0,60,90,0
0,53,64,12
0,57,70,0
0,60,80,0
0,86,78,0
0,74,74,0
0,62,96,2
0,60,90,8
0,55,88,0
0,36,92,2
0,52,89,0
0,48,91,0
0,60,80,6
0,55,68,0
0,36,84,4
0,52,72,0
0,48,81,0
0,62,104,28
