track,note,velocity,time
0,50,45,190
0,47,60,165
0,43,41,165
0,29,96,0
0,35,94,0
0,69,60,0
0,53,25,0
0,60,38,0
0,65,41,0
0,69,39,0
0,42,53,5
0,29,99,45
0,42,58,0
0,69,56,20
0,54,71,0
0,29,96,45
0,42,60,120
0,42,62,45
0,69,57,45
0,62,72,0
0,69,47,165
0,62,62,0
0,79,47,0
0,91,61,0
0,81,47,165
0,93,61,0
0,69,57,0
0,75,70,0
0,35,94,165
0,69,45,0
0,84,34,0
0,96,65,0
0,81,35,165
0,93,45,0
0,35,94,0
0,69,60,0
0,64,33,0
0,67,32,0
0,29,95,165
0,42,62,0
0,79,41,0
0,91,53,0
0,29,96,45
0,42,60,0
0,69,56,17
0,54,80,0
0,81,35,0
0,93,45,0
0,29,95,45
0,29,98,2
0,79,40,0
0,91,51,0
0,42,64,0
0,42,66,45
0,69,57,25
0,81,34,0
0,93,43,0
0,79,37,165
0,91,47,0
0,69,47,0
0,69,57,165
0,75,70,0
0,77,35,0
0,89,45,0
0,79,35,165
0,91,44,0
0,69,45,0
0,35,94,5
0,69,60,0
0,42,53,0
0,53,32,0
0,58,33,0
0,62,38,0
0,74,35,0
0,86,45,0
0,42,35,45
0,42,53,45
0,29,96,45
0,42,58,0
0,69,56,15
0,54,71,0
0,29,98,45
0,29,98,2
0,42,60,0
0,42,62,45
0,69,57,45
0,62,72,0
0,69,47,165
0,62,52,0
0,35,94,20
0,69,57,0
0,75,70,0
0,35,94,165
0,69,45,0
0,42,27,0
0,42,47,45
0,69,60,45
0,42,60,0
0,42,36,45
0,42,40,45
0,42,58,45
0,69,56,45
0,54,80,0
0,42,42,45
0,42,60,45
0,42,48,45
0,69,57,45
0,62,72,0
0,42,37,0
0,55,43,0
0,42,51,45
0,69,47,45
0,62,62,0
0,42,60,0
0,41,61,0
0,42,39,45
0,69,57,45
0,42,64,0
0,41,83,0
0,75,70,0
0,42,44,45
0,69,45,45
0,42,40,0
0,41,88,0
0,42,55,45
0,35,94,2
0,69,60,0
0,42,60,0
0,53,32,0
0,60,38,0
0,65,38,0
0,69,45,0
0,81,58,0
0,93,65,0
0,42,36,45
0,29,95,45
0,42,53,0
0,29,97,45
0,42,58,0
0,69,56,30
0,54,71,0
0,29,99,45
0,42,60,120
0,29,99,40
0,42,62,0
0,69,57,45
0,62,72,0
0,69,47,5
0,62,62,0
0,79,47,0
0,91,61,0
0,81,47,165
0,93,61,0
0,35,94,0
0,69,57,0
0,75,70,0
0,35,94,165
0,69,45,0
0,84,34,0
0,96,65,0
0,81,35,165
0,93,45,0
0,69,60,0
0,42,60,0
0,64,43,0
0,67,36,0
0,42,36,45
0,29,95,45
0,42,62,0
0,79,41,0
0,91,53,0
0,29,96,45
0,42,60,0
0,69,56,45
0,54,80,0
0,81,35,0
0,93,45,0
0,29,98,40
0,29,99,67
0,79,40,0
0,91,51,0
0,42,64,0
0,42,66,45
0,69,57,25
0,81,34,0
0,93,43,0
0,79,37,165
0,91,47,0
0,35,94,0
0,69,47,0
0,69,57,165
0,75,70,0
0,77,35,0
0,89,45,0
0,79,35,165
0,91,44,0
0,35,94,0
0,69,45,0
0,35,94,5
0,69,60,0
0,42,60,0
0,53,36,0
0,58,41,0
0,62,43,0
0,74,35,0
0,86,45,0
0,42,36,42
0,29,98,45
0,42,53,0
0,29,96,45
0,42,58,0
0,69,56,45
0,54,71,0
0,29,96,40
0,29,97,67
0,42,60,0
0,42,62,45
0,69,57,25
0,62,72,0
0,69,47,165
0,62,52,0
0,69,57,20
0,75,70,0
0,35,94,165
0,69,45,0
0,42,49,0
0,42,36,60
0,42,47,45
0,42,39,45
0,29,95,45
0,35,94,0
0,69,57,0
0,42,52,0
0,42,52,45
0,69,47,45
0,42,40,0
0,42,55,37
0,69,57,45
0,54,71,0
0,42,62,0
0,42,59,165
0,42,45,45
0,69,57,0
0,42,37,0
0,55,39,0
0,42,42,20
0,35,94,40
0,69,47,0
0,42,37,0
0,69,57,165
0,42,56,0
0,75,70,0
0,42,39,45
0,35,94,45
0,42,55,0
0,42,48,45
0,29,99,2
0,35,94,0
0,69,60,0
0,42,53,0
0,53,25,0
0,60,38,0
0,65,41,0
0,69,39,0
0,69,115,32
0,42,35,45
0,42,53,14
0,69,115,11
0,29,96,45
0,42,58,0
0,69,56,42
0,54,71,0
0,69,115,20
0,29,98,45
0,29,97,53
0,42,60,0
0,69,115,7
0,42,62,45
0,70,115,0
0,69,57,2
0,62,72,0
0,69,47,37
0,62,62,0
0,69,115,6
0,69,57,165
0,75,70,0
0,35,94,10
0,69,45,0
0,60,115,1
0,35,94,165
0,69,60,0
0,42,53,0
0,64,33,0
0,67,32,0
0,84,61,0
0,88,49,0
0,42,35,45
0,29,97,45
0,42,53,0
0,29,98,15
0,42,58,0
0,69,56,45
0,54,80,0
0,29,98,15
0,29,96,57
0,42,60,0
0,69,115,19
0,42,62,45
0,69,57,45
0,70,115,8
0,69,47,165
0,69,57,99
0,75,64,0
0,69,45,165
0,42,27,0
0,42,47,45
0,69,115,4
0,22,95,17
0,35,94,0
0,69,60,0
0,42,53,0
0,53,32,0
0,58,33,0
0,62,38,0
0,86,36,0
0,98,32,0
0,62,115,1
0,42,35,45
0,42,53,15
0,29,99,45
0,42,58,0
0,69,56,45
0,54,71,0
0,29,99,45
0,42,60,120
0,29,96,45
0,42,62,0
0,69,57,27
0,62,72,0
0,69,47,165
0,62,62,0
0,35,94,165
0,69,57,0
0,75,64,0
0,35,94,165
0,69,45,0
0,42,27,0
0,42,47,45
0,22,98,45
0,69,60,0
0,42,53,0
0,42,35,45
0,42,53,45
0,29,99,45
0,42,58,0
0,69,56,20
0,54,80,0
0,29,97,45
0,42,60,120
0,69,115,1
0,42,62,45
0,70,115,45
0,69,57,0
0,62,72,0
0,69,47,23
0,62,62,0
0,69,115,6
0,69,57,165
0,75,64,0
0,62,115,15
0,35,94,1
0,69,45,0
0,42,27,0
0,42,47,45
0,22,96,45
0,35,94,0
0,69,60,0
0,42,53,0
0,86,49,0
0,98,49,0
0,42,35,45
0,42,53,45
0,29,96,45
0,42,58,0
0,69,56,20
0,54,71,0
0,29,95,45
0,42,60,120
0,69,115,2
0,42,62,45
0,69,57,4
0,62,72,0
0,70,115,8
0,69,47,165
0,62,62,0
0,69,115,22
0,35,94,12
0,69,57,0
0,75,64,0
0,35,94,165
0,69,45,0
0,62,115,19
0,31,99,2
0,35,84,0
0,69,60,0
0,42,53,0
0,55,32,0
0,58,33,0
0,62,38,0
0,65,32,0
0,77,57,0
0,89,73,0
0,42,35,45
0,42,53,45
0,42,58,45
0,69,56,45
0,54,80,0
0,31,98,45
0,42,60,120
0,69,115,6
0,42,62,45
0,69,57,45
0,62,72,0
0,70,115,9
0,69,47,165
0,62,62,0
0,69,57,165
0,75,64,0
0,69,115,66
0,69,45,5
0,29,96,2
0,35,94,0
0,69,60,0
0,42,53,0
0,53,25,0
0,60,38,0
0,65,41,0
0,69,39,0
0,81,69,0
0,93,61,0
0,60,115,7
0,42,35,45
0,42,53,45
0,29,95,2
0,42,58,0
0,69,56,45
0,54,71,0
0,29,95,45
0,42,60,83
0,42,62,45
0,69,57,45
0,62,72,0
0,69,47,165
0,62,62,0
0,69,57,165
0,75,64,0
0,35,94,165
0,69,45,0
0,42,27,0
0,79,49,0
0,91,45,0
0,42,47,45
0,36,98,2
0,35,94,0
0,69,60,0
0,42,60,0
0,48,25,0
0,60,38,0
0,64,41,0
0,67,39,0
0,42,36,45
0,69,47,45
0,42,40,0
0,42,58,45
0,69,56,45
0,54,80,0
0,72,49,0
0,84,65,0
0,42,42,45
0,42,60,0
0,84,77,0
0,96,77,0
0,42,48,45
0,69,57,45
0,42,37,0
0,42,51,45
0,69,45,45
0,42,60,0
0,41,62,0
0,42,39,45
0,69,57,2
0,42,64,0
0,75,70,0
0,82,76,0
0,94,76,0
0,42,44,45
0,42,40,2
0,41,95,0
0,65,41,0
0,69,39,0
0,77,57,0
0,84,73,0
0,89,57,0
0,93,61,0
0,42,55,45
0,69,115,0
0,29,98,2
0,35,94,0
0,69,60,0
0,42,53,0
0,53,25,0
0,60,38,0
0,42,35,45
0,42,53,45
0,69,115,14
0,29,97,45
0,42,58,0
0,69,56,39
0,54,71,0
0,69,115,23
0,29,95,45
0,29,97,58
0,42,60,0
0,69,115,6
0,42,62,45
0,69,57,0
0,62,72,0
0,70,115,8
0,69,47,12
0,62,62,0
0,69,115,24
0,69,57,165
0,75,70,0
0,35,94,5
0,69,45,0
0,60,115,8
0,35,94,2
0,69,60,0
0,42,53,0
0,64,33,0
0,67,32,0
0,84,61,0
0,88,49,0
0,42,35,45
0,29,99,45
0,42,53,0
0,29,98,15
0,42,58,0
0,69,56,45
0,54,80,0
0,29,99,15
0,29,95,57
0,42,60,0
0,69,115,14
0,42,62,45
0,72,74,45
0,69,57,0
0,70,115,19
0,69,47,165
0,69,57,23
0,75,64,0
0,69,115,12
0,69,45,1
0,62,115,20
0,22,96,2
0,70,72,0
0,74,76,0
0,35,94,0
0,69,60,0
0,42,53,0
0,53,32,0
0,58,33,0
0,62,38,0
0,86,36,0
0,98,32,0
0,42,35,45
0,42,53,15
0,29,95,45
0,42,58,0
0,69,56,45
0,54,71,0
0,29,96,45
0,42,60,38
0,29,99,45
0,42,62,0
0,69,57,27
0,62,72,0
0,69,47,165
0,62,62,0
0,35,94,165
0,69,57,0
0,75,64,0
0,35,94,165
0,69,45,0
0,42,27,0
0,42,47,45
0,22,99,45
0,69,60,0
0,42,53,0
0,42,35,45
0,42,53,45
0,29,95,45
0,42,58,0
0,69,56,20
0,54,80,0
0,29,97,45
0,69,115,104
0,42,60,16
0,42,62,45
0,70,115,34
0,69,57,1
0,62,72,0
0,69,47,3
0,62,62,0
0,69,115,3
0,69,57,165
0,75,64,0
0,62,115,15
0,35,94,4
0,69,45,0
0,42,27,0
0,42,47,45
0,22,98,0
0,70,62,0
0,35,94,0
0,69,60,0
0,42,53,0
0,86,49,0
0,98,49,0
0,42,35,45
0,42,53,45
0,29,96,45
0,42,58,0
0,69,56,20
0,54,71,0
0,29,99,45
0,69,115,54
0,42,60,11
0,42,62,45
0,70,115,31
0,69,57,14
0,62,72,0
0,69,47,165
0,62,62,0
0,69,115,0
0,35,94,4
0,69,57,0
0,75,64,0
0,35,94,165
0,69,45,0
0,62,115,2
0,55,32,0
0,58,33,0
0,62,38,0
0,65,32,0
0,35,84,0
0,69,60,0
0,42,53,0
0,77,57,0
0,89,73,0
0,31,98,0
0,72,74,0
0,42,35,20
0,62,115,28
0,42,53,12
0,42,58,10
0,69,56,30
0,54,80,0
0,31,95,45
0,42,60,17
0,69,115,5
0,42,62,45
0,69,57,45
0,62,72,0
0,70,115,27
0,69,47,165
0,62,62,0
0,69,57,165
0,75,64,0
0,69,115,20
0,69,45,165
0,60,115,12
0,29,96,2
0,69,74,0
0,60,80,0
0,35,94,0
0,69,60,0
0,42,53,0
0,53,25,0
0,60,38,0
0,65,41,0
0,69,39,0
0,81,69,0
0,93,61,0
0,42,35,45
0,42,53,45
0,29,97,2
0,42,58,0
0,69,56,45
0,54,71,0
0,29,96,45
0,42,60,120
0,42,62,37
0,65,71,45
0,69,57,0
0,62,72,0
0,69,47,165
0,62,62,0
0,69,57,165
0,75,64,0
0,35,94,85
0,69,45,0
0,42,27,0
0,42,47,45
0,36,96,2
0,67,71,0
0,35,94,0
0,69,60,0
0,42,53,0
0,48,25,0
0,60,38,0
0,65,41,0
0,67,39,0
0,42,35,45
0,42,53,45
0,58,79,2
0,42,58,0
0,69,56,45
0,54,71,0
0,57,88,2
0,42,60,0
0,42,62,45
0,55,82,2
0,69,57,0
0,67,115,13
0,69,47,165
0,69,57,30
0,75,64,0
0,65,115,4
0,36,97,2
0,53,86,0
0,35,94,0
0,69,45,0
0,42,27,0
0,42,47,45
0,36,98,2
0,48,67,0
0,57,64,0
0,69,74,0
0,72,66,0
0,35,94,0
0,69,60,0
0,42,53,0
0,48,39,0
0,60,41,0
0,65,43,0
0,69,40,0
0,60,115,8
0,42,35,45
0,42,53,45
0,42,58,45
0,69,56,45
0,54,71,0
0,70,60,165
0,42,60,0
0,69,75,0
0,42,62,0
0,67,71,0
0,69,57,0
0,42,53,0
0,42,35,45
0,69,47,45
0,42,53,0
0,42,58,45
0,70,90,0
0,69,57,45
0,70,71,0
0,75,70,0
0,70,50,45
0,36,98,2
0,65,78,0
0,35,94,0
0,69,45,0
0,70,35,0
0,70,90,20
0,36,97,2
0,60,56,0
0,67,54,0
0,67,62,0
0,72,74,0
0,35,94,0
0,69,60,0
0,42,53,0
0,70,46,0
0,48,35,0
0,60,39,0
0,65,43,0
0,67,39,0
0,42,35,45
0,70,32,0
0,42,53,45
0,70,15,0
0,42,58,45
0,69,56,45
0,54,80,0
0,58,88,45
0,42,60,0
0,69,115,23
0,57,85,45
0,42,62,0
0,55,90,45
0,69,57,0
0,42,53,0
0,67,115,31
0,42,35,13
0,69,47,45
0,42,53,0
0,42,58,45
0,70,90,0
0,69,57,45
0,70,71,0
0,75,64,0
0,70,50,45
0,65,115,6
0,53,80,10
0,69,45,0
0,42,27,0
0,70,35,0
0,42,47,45
0,70,90,0
0,34,99,0
0,46,69,0
0,53,86,0
0,70,63,0
0,74,71,0
0,35,94,0
0,69,60,0
0,42,53,0
0,70,46,0
0,46,38,0
0,58,40,0
0,62,43,0
0,65,43,0
0,70,38,0
0,62,115,16
0,42,35,20
0,70,32,0
0,42,53,40
0,70,15,0
0,42,58,45
0,69,56,45
0,54,71,0
0,34,98,2
0,42,60,0
0,42,62,45
0,29,98,2
0,58,52,0
0,62,62,0
0,65,62,0
0,69,57,0
0,42,53,0
0,53,97,0
0,42,35,45
0,69,47,45
0,42,53,0
0,42,58,0
0,70,90,0
0,53,95,0
0,31,95,2
0,35,94,0
0,69,57,0
0,70,71,0
0,75,64,0
0,70,50,45
0,53,97,0
0,34,95,0
0,69,45,0
0,54,65,0
0,42,27,0
0,70,35,0
0,42,47,45
0,70,90,0
0,35,81,0
0,69,60,0
0,42,53,0
0,70,46,0
0,29,97,0
0,42,35,20
0,70,32,0
0,42,53,17
0,70,15,0
0,42,58,45
0,69,115,45
0,69,56,0
0,58,112,0
0,62,124,0
0,65,124,0
0,70,112,0
0,42,60,165
0,42,62,45
0,67,115,17
0,77,88,2
0,69,57,0
0,42,53,0
0,57,124,0
0,69,124,0
0,42,35,45
0,35,70,2
0,69,47,0
0,42,53,0
0,55,116,0
0,67,124,0
0,65,115,6
0,42,58,45
0,70,90,0
0,69,57,45
0,70,71,0
0,75,64,0
0,70,50,45
0,84,59,2
0,69,45,0
0,54,71,0
0,42,27,0
0,70,35,0
0,60,124,0
0,65,124,0
0,69,120,0
0,72,115,3
0,42,47,45
0,70,90,0
0,29,99,2
0,69,70,0
0,72,73,0
0,57,51,0
0,60,49,0
0,65,59,0
0,69,60,0
0,35,113,0
0,42,53,0
0,70,46,0
0,53,40,0
0,57,43,0
0,60,47,0
0,65,47,0
0,69,49,0
0,42,35,45
0,70,32,0
0,42,53,45
0,70,15,0
0,29,95,2
0,42,58,0
0,69,115,38
0,81,59,7
0,40,109,0
0,69,56,0
0,29,99,45
0,29,98,57
0,42,60,0
0,42,62,45
0,67,115,22
0,69,57,23
0,42,53,0
0,42,35,45
0,65,115,9
0,84,59,3
0,69,47,0
0,35,113,0
0,42,53,0
0,42,58,27
0,70,90,0
0,69,57,45
0,70,71,0
0,75,64,0
0,70,50,45
0,72,115,22
0,69,45,23
0,70,35,0
0,70,90,45
0,29,98,2
0,60,85,0
0,81,59,0
0,69,60,0
0,35,113,0
0,42,53,0
0,70,46,0
0,53,40,0
0,57,32,0
0,60,40,0
0,64,49,0
0,67,49,0
0,69,49,0
0,64,98,0
0,67,106,0
0,69,106,0
0,42,35,45
0,70,32,0
0,42,53,45
0,70,15,0
0,42,58,45
0,57,90,45
