track,note,velocity,time
0,45,50,4
0,50,47,2
0,53,54,4
0,57,49,0
0,57,82,5
0,62,70,0
0,38,79,0
0,69,56,0
0,81,56,0
0,74,60,0
0,62,96,0
0,62,46,2
0,65,94,7
0,74,49,0
0,50,66,0
0,74,48,68
0,64,93,0
0,65,93,58
0,74,32,0
0,53,66,0
0,62,91,14
0,65,96,150
0,77,31,0
0,76,31,140
0,64,90,0
0,60,87,162
0,72,31,0
0,62,96,60
0,65,96,24
0,50,66,0
0,64,88,140
0,65,93,87
0,53,66,0
0,77,32,382
0,65,90,0
0,64,85,4
0,76,32,0
0,36,83,2
0,55,90,0
0,60,86,0
0,67,56,0
0,79,56,0
0,72,60,0
0,60,100,0
0,64,90,142
0,72,50,0
0,48,66,0
0,72,38,41
0,62,94,0
0,64,90,2
0,72,31,0
0,52,66,0
0,60,94,101
0,67,93,147
0,65,102,145
0,67,94,147
0,64,61,10
0,76,58,0
0,33,86,0
0,52,78,0
0,60,96,0
0,69,60,0
0,69,43,153
0,48,66,0
0,69,38,2
0,69,36,28
0,52,66,0
0,67,96,0
0,65,93,11
0,64,88,10
0,60,94,39
0,57,90,21
0,57,82,0
0,62,70,0
0,38,79,0
0,69,58,0
0,62,96,0
0,74,60,0
0,62,115,3
0,62,46,6
0,74,49,25
0,50,66,0
0,65,94,0
0,62,115,40
0,64,93,0
0,74,48,0
0,74,32,132
0,53,66,0
0,65,93,0
0,62,91,0
0,65,96,40
0,77,31,0
0,76,31,140
0,64,90,0
0,60,87,1
0,72,31,0
0,26,91,0
0,62,96,0
0,50,75,5
0,65,96,2
0,50,66,0
0,86,51,9
0,64,88,0
0,65,93,11
0,53,66,0
0,93,79,11
0,77,32,61
0,65,90,0
0,91,85,6
0,64,85,0
0,76,32,0
0,60,115,29
0,88,73,2
0,36,83,0
0,55,90,0
0,60,86,0
0,67,56,0
0,79,56,0
0,67,115,0
0,72,60,0
0,60,100,0
0,48,64,6
0,72,50,23
0,48,66,0
0,67,115,12
0,67,115,47
0,72,38,8
0,69,115,10
0,72,31,3
0,52,66,0
0,67,115,3
0,33,86,10
0,52,78,0
0,64,61,0
0,76,58,0
0,69,60,0
0,69,43,160
0,48,66,0
0,69,38,32
0,67,115,20
0,69,36,10
0,52,66,0
0,67,78,0
0,67,115,27
0,67,75,17
0,65,115,29
0,65,70,16
0,65,115,26
0,65,76,1
0,64,115,24
0,64,72,0
0,62,115,8
0,38,77,2
0,50,55,0
0,65,72,0
0,74,55,0
0,81,51,0
0,50,43,0
0,57,39,0
0,62,78,0
0,62,60,0
0,50,45,10
0,57,53,0
0,62,52,0
0,50,66,0
0,65,76,0
0,50,56,7
0,57,65,0
0,64,75,0
0,62,41,0
0,50,61,52
0,57,67,0
0,62,27,0
0,53,66,0
0,65,75,0
0,50,47,0
0,57,56,0
0,62,73,0
0,65,78,40
0,50,32,0
0,57,26,0
0,50,20,0
0,57,20,0
0,64,72,0
0,50,15,10
0,57,15,0
0,60,69,0
0,65,91,117
0,41,51,0
0,48,51,0
0,60,51,0
0,72,49,1
0,53,66,0
0,64,40,180
0,72,54,0
0,53,66,2
0,65,53,0
0,72,58,0
0,62,46,34
0,65,57,0
0,65,39,33
0,65,69,21
0,64,49,0
0,60,115,8
0,72,115,0
0,36,83,6
0,55,55,0
0,60,55,0
0,64,45,0
0,72,60,0
0,60,100,0
0,72,115,6
0,60,50,2
0,72,50,0
0,48,66,0
0,72,115,4
0,67,69,2
0,72,38,0
0,74,115,0
0,60,69,6
0,72,31,0
0,52,66,0
0,72,115,100
0,64,59,16
0,55,84,0
0,60,87,0
0,60,49,170
0,60,68,3
0,57,66,2
0,33,97,0
0,52,55,0
0,60,55,0
0,69,60,0
0,69,43,2
0,48,66,0
0,64,60,38
0,69,38,0
0,72,115,35
0,72,60,10
0,69,36,0
0,52,66,0
0,72,78,0
0,72,115,2
0,72,60,17
0,72,75,0
0,69,115,39
0,69,60,2
0,69,70,0
0,67,115,7
0,67,60,11
0,67,76,0
0,65,115,7
0,65,60,2
0,65,72,0
0,53,81,4
0,62,115,7
0,62,99,1
0,38,85,0
0,57,73,0
0,38,77,0
0,62,66,0
0,69,102,3
0,65,69,0
0,64,73,2
0,67,94,0
0,69,89,21
0,65,66,0
0,62,66,0
0,65,84,0
0,74,51,0
0,77,51,0
0,64,58,10
0,67,87,0
0,76,62,0
0,79,74,0
0,60,62,7
0,72,62,0
0,64,84,0
0,57,66,3
0,60,86,0
0,69,51,0
0,72,62,0
0,50,66,0
0,62,86,0
0,62,74,0
0,69,72,0
0,50,71,0
0,57,51,0
0,50,62,2
0,62,72,0
0,50,85,3
0,62,85,0
0,62,92,2
0,62,115,26
0,52,77,28
0,64,68,0
0,52,85,3
0,64,85,2
0,64,92,2
0,64,115,31
0,53,85,20
0,65,85,0
0,53,85,0
0,65,85,3
0,41,81,0
0,65,99,0
0,65,115,32
0,52,85,7
0,64,85,0
0,52,85,0
0,64,85,2
0,64,115,11
0,64,83,14
0,50,85,219
0,62,85,10
0,62,115,5
0,50,77,2
0,62,81,0
0,62,81,0
0,48,85,9
0,60,85,0
0,60,115,28
0,36,76,1
0,55,63,0
0,60,100,0
0,72,60,0
0,60,103,27
0,72,50,78
0,48,66,0
0,52,85,50
0,64,115,3
0,64,85,5
0,64,105,32
0,72,38,92
0,65,115,18
0,53,85,7
0,65,85,0
0,65,100,6
0,72,31,0
0,52,66,0
0,67,115,0
0,67,85,1
0,55,85,0
0,67,108,4
0,33,73,0
0,52,51,0
0,69,60,0
0,69,43,60
0,48,66,0
0,69,38,145
0,69,36,14
0,52,66,0
0,52,85,1
0,64,85,2
0,64,100,12
0,64,115,21
0,50,85,16
0,62,85,3
0,62,107,2
0,62,115,12
0,60,85,16
0,48,85,5
0,60,108,5
0,60,115,4
0,50,85,28
0,62,85,0
0,62,115,2
0,62,111,3
0,50,43,2
0,57,39,0
0,74,35,0
0,38,77,0
0,50,55,0
0,62,60,0
0,62,84,0
0,50,45,23
0,57,53,0
0,77,35,0
0,65,82,0
0,62,52,0
0,50,66,0
0,50,56,30
0,57,65,0
0,76,35,0
0,62,41,0
0,64,81,0
0,50,61,3
0,57,67,0
0,77,35,0
0,65,81,0
0,62,27,0
0,53,66,0
0,50,47,22
0,57,56,0
0,74,35,0
0,62,79,0
0,50,32,4
0,57,26,0
0,77,35,0
0,65,84,0
0,50,20,135
0,57,20,0
0,76,35,0
0,64,78,0
0,57,15,15
0,50,15,0
0,72,35,0
0,60,75,0
0,65,69,10
0,41,62,0
0,53,85,0
0,60,51,0
0,77,36,0
0,74,87,29
0,53,66,0
0,72,90,22
0,74,73,2
0,53,66,0
0,69,76,130
0,72,92,5
0,69,61,80
0,81,61,3
0,65,47,17
0,67,89,0
0,67,61,180
0,79,61,3
0,55,115,6
0,65,81,0
0,64,61,8
0,76,61,0
0,67,115,6
0,60,66,0
0,64,71,0
0,36,90,0
0,55,55,0
0,60,55,0
0,72,60,0
0,60,100,0
0,67,115,20
0,72,50,4
0,48,66,0
0,67,115,8
0,72,38,18
0,69,115,5
0,72,31,15
0,52,66,0
0,67,115,30
0,55,62,3
0,60,65,0
0,57,66,2
0,60,55,0
0,52,55,0
0,33,103,0
0,69,60,0
0,69,43,2
0,48,66,0
0,69,38,13
0,88,65,9
0,76,65,2
0,67,115,14
0,69,36,15
0,52,66,0
0,67,84,0
0,67,115,24
0,67,81,9
0,79,65,7
0,91,65,13
0,65,115,9
0,65,76,9
0,65,115,30
0,65,82,13
0,64,115,15
0,64,78,5
0,74,61,5
0,86,61,7
0,62,115,16
0,50,109,12
0,38,67,5
0,62,65,0
0,38,109,0
0,38,81,66
0,65,62,0
0,64,61,2
0,41,79,0
0,65,57,0
0,52,109,5
0,62,59,40
0,53,109,6
0,65,62,3
0,52,109,63
0,64,62,27
0,53,109,147
0,60,66,10
0,57,109,72
0,50,66,2
0,62,75,0
0,38,109,0
0,38,82,75
0,57,85,12
0,69,75,3
0,81,68,2
0,41,82,2
0,81,82,0
0,55,85,2
0,67,85,0
0,79,68,7
0,41,73,2
0,77,79,0
0,77,80,0
0,74,83,0
0,53,85,10
0,77,68,22
0,65,85,10
0,72,84,12
0,72,115,3
0,76,54,8
0,81,54,0
0,88,53,0
0,45,85,0
0,52,85,0
0,60,62,0
0,64,56,0
0,76,52,8
0,72,115,42
0,76,30,12
0,81,34,0
0,36,72,0
0,72,115,45
0,76,30,10
0,81,30,0
0,74,115,2
0,76,30,14
0,81,30,0
0,40,78,0
0,72,115,126
0,84,54,50
0,36,85,0
0,48,85,0
0,60,55,0
0,64,57,0
0,36,77,180
0,84,40,0
0,84,30,172
0,72,115,42
0,84,30,30
0,40,56,0
0,88,51,0
0,76,69,3
0,72,115,48
0,69,115,162
0,79,51,13
0,91,46,7
0,67,115,18
0,65,115,11
0,62,115,44
0,62,58,4
0,81,53,0
0,86,51,0
0,65,96,0
0,38,85,0
0,50,85,0
0,62,85,0
0,65,85,0
0,86,47,5
0,74,69,10
0,69,98,20
0,65,85,0
0,69,85,0
0,38,73,0
0,65,60,0
0,81,30,25
0,86,30,0
0,64,68,2
0,81,30,0
0,86,30,0
0,67,112,0
0,64,85,0
0,67,85,0
0,41,73,0
0,65,59,0
0,69,95,0
0,65,85,0
0,69,85,0
0,81,30,67
0,86,30,0
0,62,66,10
0,65,104,0
0,62,85,0
0,64,62,7
0,67,103,0
0,64,85,0
0,67,85,0
0,60,62,80
0,64,88,0
0,60,85,0
0,64,85,0
0,57,69,0
0,57,85,0
0,60,85,0
0,60,98,0
0,38,76,0
0,38,78,0
0,50,73,0
0,62,98,0
0,38,85,0
0,50,85,0
0,62,85,112
0,74,85,3
0,86,59,5
0,62,115,45
0,64,85,3
0,76,85,2
0,88,59,0
0,64,115,5
0,65,85,95
0,77,85,3
0,89,59,0
0,45,114,3
0,41,85,0
0,53,85,0
0,65,115,19
0,52,35,0
0,45,36,5
0,52,37,7
0,45,39,28
0,52,40,20
0,45,42,15
0,64,85,27
0,88,59,3
0,52,44,5
0,76,85,7
0,64,115,12
0,45,47,25
0,52,49,0
0,45,53,2
0,52,56,37
0,45,60,35
0,52,64,2
0,62,115,9
0,62,85,0
0,86,59,2
0,74,85,0
0,45,69,2
0,52,74,42
0,45,81,3
0,52,90,0
0,45,100,0
0,60,115,12
0,60,85,0
0,72,85,10
0,84,59,3
0,36,86,2
0,55,98,0
0,60,94,0
0,64,78,0
0,36,85,0
0,52,85,0
0,60,85,0
0,49,70,0
0,35,121,0
0,42,60,106
0,55,92,0
0,60,98,0
0,64,90,0
0,88,59,2
0,76,85,0
0,64,85,0
0,64,115,6
0,55,92,15
0,60,98,0
0,64,92,0
0,40,90,0
0,42,100,0
0,77,85,3
0,65,85,2
0,89,59,5
0,65,115,8
0,42,68,0
0,35,101,0
0,36,88,0
0,55,80,0
0,60,88,0
0,64,76,0
0,91,59,68
0,67,85,0
0,79,85,0
0,67,115,0
0,36,91,70
0,55,90,0
0,60,98,0
0,64,92,0
0,42,92,0
0,35,119,0
0,55,80,165
0,60,86,0
0,64,84,0
0,42,54,0
0,40,92,79
0,42,99,0
0,55,84,0
0,60,94,0
0,64,94,0
0,42,68,45
0,36,87,0
0,55,88,0
0,60,86,0
0,64,86,0
0,33,82,12
0,57,78,0
0,60,86,0
0,64,82,0
0,42,90,0
0,35,121,0
0,33,85,0
0,57,52,165
0,60,66,0
0,64,72,0
0,42,60,0
0,40,88,10
0,42,97,0
0,57,72,0
0,60,70,0
0,64,80,0
0,42,66,7
0,35,117,0
0,33,88,0
0,57,60,0
0,60,70,0
0,64,80,0
0,64,85,16
0,76,85,3
0,64,115,46
0,57,52,6
0,60,66,0
0,64,76,0
0,33,92,0
0,42,92,0
0,35,127,0
0,62,74,83
0,74,77,12
0,62,115,11
0,57,50,11
0,60,70,0
0,64,72,0
0,42,49,0
0,60,85,68
0,72,79,0
0,33,77,67
0,57,52,0
0,60,76,0
0,64,80,0
0,40,86,0
0,42,99,0
0,60,115,0
0,36,90,0
0,57,60,0
0,60,62,0
0,64,66,0
0,42,58,0
0,74,77,73
0,62,74,7
0,38,93,69
0,57,76,0
0,62,84,0
0,65,82,0
0,26,85,0
0,38,85,0
0,53,85,0
0,42,95,0
0,35,121,0
0,62,115,5
0,42,54,130
0,57,85,0
0,57,58,0
0,62,70,0
0,65,68,0
0,57,62,165
0,62,64,0
0,65,70,0
0,55,85,0
0,40,77,0
0,42,97,0
0,45,85,95
0,57,74,0
0,62,74,0
0,65,66,0
0,42,63,0
0,35,109,0
0,57,85,0
0,38,89,2
0,57,66,0
0,62,70,0
0,65,74,0
0,53,85,0
0,42,92,0
0,35,127,0
0,42,70,4
0,55,85,0
0,33,92,0
0,57,70,0
0,62,78,0
0,65,68,0
0,40,86,7
0,42,99,0
0,52,85,0
0,38,87,0
0,57,80,0
0,62,88,0
0,65,76,0
0,57,80,2
0,62,76,0
0,65,76,0
0,42,65,0
0,48,85,0
0,62,85,0
0,74,59,0
0,57,82,160
0,60,72,0
0,65,84,0
0,50,111,0
0,65,59,0
0,77,59,0
0,42,95,0
0,35,127,0
0,74,99,5
0,42,44,0
0,41,85,0
0,57,74,0
0,60,62,0
0,65,78,0
0,72,102,10
0,40,94,0
0,42,97,0
0,57,86,0
0,60,80,0
0,65,88,0
0,74,103,21
0,42,77,0
0,35,107,0
0,41,79,0
0,57,54,0
0,60,60,0
0,65,54,0
0,69,102,46
0,42,97,0
0,57,46,0
0,60,68,0
0,65,54,0
0,72,105,18
0,42,61,0
0,35,86,0
0,50,84,0
0,57,64,0
0,60,54,0
0,65,80,0
0,35,112,17
0,67,91,28
0,40,85,0
0,42,102,0
0,47,68,0
0,57,80,0
0,60,80,0
0,65,76,0
0,65,92,78
0,42,80,0
0,43,88,0
0,41,89,0
0,57,58,0
0,60,54,0
0,65,82,0
0,67,115,2
0,64,115,3
0,55,48,2
0,60,74,0
0,64,84,0
0,36,86,0
0,64,102,0
0,42,100,0
0,35,123,0
0,52,85,0
0,60,85,0
0,42,60,36
0,55,80,0
0,60,76,0
0,64,74,0
0,64,115,1
0,67,115,4
0,64,115,46
0,67,115,0
0,55,92,11
0,60,104,0
0,64,90,0
0,40,81,0
0,42,100,0
0,69,115,26
0,65,115,7
0,55,82,9
0,60,80,0
0,64,80,0
0,36,89,0
0,42,68,0
0,67,115,17
0,64,115,0
0,55,84,18
0,60,84,0
0,64,80,0
0,36,89,0
0,42,92,0
0,35,75,0
0,55,84,165
0,60,76,0
0,64,76,0
0,42,54,0
0,35,111,0
0,55,88,165
0,60,86,0
0,64,78,0
0,40,76,0
0,42,99,0
0,36,91,120
0,55,80,0
0,60,64,0
0,64,72,0
0,42,68,0
0,35,85,0
0,33,88,0
0,57,72,0
0,60,62,0
0,42,90,0
0,35,123,0
0,57,62,165
0,60,52,0
0,64,60,0
0,42,60,0
0,57,70,165
0,60,74,0
0,64,72,0
0,40,83,0
0,42,97,0
0,67,115,120
0,57,68,2
0,60,62,0
0,64,62,0
0,33,86,0
0,42,66,0
0,55,85,0
0,67,85,0
0,67,115,18
0,57,70,4
0,60,68,0
0,64,72,0
0,33,86,0
0,42,92,0
0,35,81,0
0,76,58,0
0,55,85,0
0,64,66,0
0,67,66,0
0,65,115,10
0,57,62,2
0,60,72,0
0,64,78,0
0,42,49,0
0,35,119,0
0,79,63,0
0,53,85,0
0,65,85,0
0,67,85,0
0,65,115,14
0,33,92,15
0,57,82,0
0,60,74,0
0,64,78,0
0,40,77,0
0,42,99,0
0,53,85,0
0,65,85,0
0,64,115,20
0,36,89,2
0,57,66,0
0,60,68,0
0,64,70,0
0,42,58,0
0,35,73,0
0,52,85,0
0,64,85,0
0,62,115,10
0,38,90,2
0,57,80,0
0,62,80,0
0,65,86,0
0,42,95,0
0,35,127,0
0,50,85,0
0,57,85,0
0,62,85,0
0,74,52,0
0,42,54,9
0,57,74,0
0,62,72,0
