track,note,velocity,time
1,67,104,51456
1,69,115,192
1,70,104,4
1,72,127,88
1,67,94,44
1,69,115,0
1,67,127,26
1,65,127,16
1,65,115,108
1,67,115,0
1,67,115,88
1,70,115,100
1,67,115,4
1,67,104,114
1,65,127,52
1,65,94,120
1,67,104,96
1,65,104,188
1,62,115,12
1,62,115,124
1,60,127,192
1,58,104,10
1,55,104,746
1,67,127,0
1,57,115,10
1,69,115,0
1,58,104,36
1,70,115,0
1,60,127,96
1,72,115,0
1,58,94,12
1,70,115,0
1,62,127,106
1,74,115,0
1,58,104,84
1,70,115,0
1,60,94,48
1,72,115,24
1,58,104,6
1,70,127,0
1,67,127,428
1,70,104,0
1,65,115,56
1,69,94,0
1,62,127,72
1,67,115,0
1,60,127,32
1,65,94,0
1,60,115,108
1,67,104,0
1,65,104,48
1,62,115,12
1,58,104,16
1,62,104,0
1,60,115,118
1,62,79,0
1,62,104,0
1,62,104,14
1,65,115,0
1,58,115,6
1,62,115,0
1,67,127,980
1,69,115,192
1,70,115,78
1,72,127,116
1,67,94,48
1,69,115,0
1,67,127,4
1,65,115,12
1,65,115,136
1,67,115,18
1,67,104,96
1,70,127,124
1,67,104,16
1,67,104,142
1,62,127,22
1,65,115,108
1,67,115,192
1,67,127,134
1,55,104,1896
1,67,127,0
1,57,104,192
1,69,115,0
1,58,115,52
1,70,104,0
1,60,127,104
1,72,127,0
1,58,104,0
1,70,94,0
1,62,127,116
1,74,104,0
1,58,104,80
1,70,104,0
1,60,94,24
1,72,127,0
1,58,115,2
1,70,115,0
1,67,115,232
1,74,115,116
1,75,127,70
1,74,115,112
1,72,104,82
1,70,127,100
1,67,115,16
1,74,127,0
1,75,104,72
1,74,127,64
1,72,127,8
1,70,115,52
1,67,115,16
1,72,127,48
1,70,115,12
1,72,104,56
1,70,127,0
1,67,104,23840
1,69,115,192
1,70,104,4
1,72,127,88
1,67,94,44
1,69,115,0
1,67,127,26
1,65,127,16
1,65,115,108
1,67,115,0
1,67,115,88
1,70,115,100
1,67,115,4
1,67,104,114
1,65,127,52
1,65,94,120
1,67,104,96
1,65,104,188
1,62,115,12
1,62,115,124
1,60,127,192
1,58,104,10
1,55,104,746
1,67,127,0
1,57,115,10
1,69,115,0
1,58,104,36
1,70,115,0
1,60,127,96
1,72,115,0
1,58,94,12
1,70,115,0
1,62,127,106
1,74,115,0
1,58,104,84
1,70,115,0
1,60,94,48
1,72,115,24
1,58,104,6
1,70,127,0
1,67,127,428
1,70,104,0
1,65,115,56
1,69,94,0
1,62,127,72
1,67,115,0
1,60,127,32
1,65,94,0
1,60,115,108
1,67,104,0
1,65,104,48
1,62,115,12
1,58,104,16
1,62,104,0
1,60,115,118
1,62,79,0
1,62,104,0
1,62,104,14
1,65,115,0
1,58,115,6
1,62,115,0
1,67,127,980
1,69,115,192
1,70,115,78
1,72,127,116
1,67,94,48
1,69,115,0
1,67,127,4
1,65,115,12
1,65,115,136
1,67,115,18
1,67,104,96
1,70,127,124
1,67,104,16
1,67,104,142
1,62,127,22
1,65,115,108
1,67,115,192
1,67,127,134
1,55,104,1896
1,67,127,0
1,57,104,192
1,69,115,0
1,58,115,52
1,70,104,0
1,60,127,104
1,72,127,0
1,58,104,0
1,70,94,0
1,62,127,116
1,74,104,0
1,58,104,80
1,70,104,0
1,60,94,24
1,72,127,0
1,58,115,2
1,70,115,0
1,67,115,232
1,74,115,116
1,75,127,70
1,74,115,112
1,72,104,82
1,70,127,100
1,67,115,16
1,74,127,0
1,75,104,72
1,74,127,64
1,72,127,8
1,70,115,52
1,67,115,16
1,72,127,48
1,70,115,12
1,72,104,56
1,70,127,0
1,67,104,12896
1,72,127,116
1,70,115,16
1,67,127,90
1,65,127,6
1,67,86,4084
1,72,115,44
1,70,115,32
1,67,115,108
1,65,115,4
1,67,104,8
1,70,127,96
1,55,104,103014
1,67,127,0
1,57,115,10
1,69,115,0
1,58,104,36
1,70,115,0
1,60,127,96
1,72,115,0
1,58,94,12
1,70,115,0
1,62,127,106
1,74,115,0
1,58,104,84
1,70,115,0
1,60,94,48
1,72,115,24
1,58,104,6
1,70,127,0
1,70,104,428
1,69,94,76
1,67,115,72
1,65,104,28
1,67,104,112
1,65,104,48
1,62,115,48
1,62,104,16
1,62,104,118
1,65,115,14
1,62,115,12
1,55,104,7124
1,67,127,0
1,57,104,192
1,69,115,0
1,58,115,52
1,70,104,0
1,60,127,104
1,72,127,0
1,58,104,0
1,70,94,0
1,62,127,116
1,74,104,0
1,58,104,80
1,70,104,0
1,60,94,24
1,72,127,0
1,58,115,2
1,70,115,0
1,72,127,15016
1,74,127,0
1,72,127,144
1,70,127,96
1,72,115,112
1,73,104,48
1,72,115,108
1,70,127,24
1,72,127,160
1,70,127,56
1,67,127,174
1,67,127,216
1,65,104,96
1,67,127,80
1,72,115,582
1,74,115,48
1,72,127,138
1,70,127,168
1,72,127,112
1,73,104,96
1,72,127,10
1,70,115,72
1,72,68,48
1,70,115,114
1,71,104,360
1,72,127,0
1,70,127,46
1,70,115,118
1,67,127,4
1,67,127,140
1,65,115,192
1,65,115,132
1,62,127,0
1,62,127,138
1,58,127,192
1,60,115,128
1,62,115,48
1,60,104,8
1,58,104,96
1,60,94,48
1,62,127,60
1,72,115,17394
1,74,115,0
1,72,127,24
1,72,115,126
1,73,105,0
1,72,127,96
1,72,115,118
1,73,104,10
1,72,104,96
1,70,115,28
1,67,127,44
1,67,115,106
1,70,127,20
2,55,115,26880
2,67,115,0
2,55,104,104
2,67,104,0
2,58,127,88
2,70,127,0
2,55,104,68
2,67,104,0
2,62,115,22
2,74,115,0
2,62,94,116
2,74,94,0
2,62,127,96
2,74,127,0
2,55,104,1632
2,67,104,0
2,62,127,10
2,74,127,0
2,63,115,96
2,75,115,0
2,62,127,104
2,74,127,0
2,58,104,16
2,70,104,0
2,60,127,106
2,72,127,0
2,60,115,126
2,72,115,0
2,74,115,48
2,62,115,34
2,60,127,18
2,72,127,0
2,55,115,1616
2,67,115,0
2,55,127,84
2,67,127,0
2,58,127,74
2,70,127,0
2,55,115,16
2,67,115,0
2,62,115,30
2,74,115,0
2,62,115,106
2,74,115,0
2,60,115,102
2,72,115,0
2,74,115,48
2,62,115,30
2,55,79,1600
2,67,79,0
2,62,127,34
2,74,127,0
2,63,115,96
2,75,115,0
2,62,127,116
2,74,127,0
2,58,104,24
2,70,104,0
2,60,127,112
2,72,127,0
2,60,94,128
2,72,94,0
2,74,104,48
2,62,104,38
2,60,94,20
2,72,94,0
2,55,127,1648
2,67,127,0
2,55,104,98
2,67,104,0
2,58,115,72
2,70,115,0
2,55,104,28
2,67,104,0
2,62,127,0
2,74,127,0
2,62,127,120
2,74,127,0
2,60,115,112
2,72,115,0
2,74,115,48
2,62,115,20
2,67,94,1656
2,55,94,48
2,62,127,0
2,74,127,0
2,63,115,110
2,75,115,0
2,62,127,112
2,74,127,0
2,58,104,28
2,70,104,0
2,60,127,116
2,72,127,0
2,60,104,144
2,72,104,0
2,74,115,48
2,62,115,32
2,60,115,24
2,72,115,0
2,55,115,1632
2,67,115,0
2,55,115,102
2,67,115,0
2,58,127,96
2,70,127,0
2,55,104,4
2,67,104,0
2,62,127,48
2,74,127,0
2,62,127,108
2,74,127,0
2,60,127,112
2,72,127,0
2,74,115,48
2,62,115,20
2,67,104,1600
2,62,115,16
2,74,115,0
2,63,104,112
2,75,104,0
2,62,127,132
2,74,127,0
2,58,104,46
2,70,104,0
2,60,127,120
2,72,127,0
2,60,115,122
2,72,115,0
2,74,104,48
2,62,104,36
2,60,94,40
2,72,94,0
2,55,115,26224
2,67,115,0
2,55,104,104
2,67,104,0
2,58,127,88
2,70,127,0
2,55,104,68
2,67,104,0
2,62,115,22
2,74,115,0
2,62,94,116
2,74,94,0
2,62,127,96
2,74,127,0
2,55,104,1632
2,67,104,0
2,62,127,10
2,74,127,0
2,63,115,96
2,75,115,0
2,62,127,104
2,74,127,0
2,58,104,16
2,70,104,0
2,60,127,106
2,72,127,0
2,60,115,126
2,72,115,0
2,74,115,48
2,62,115,34
2,60,127,18
2,72,127,0
2,55,115,1616
2,67,115,0
2,55,127,84
2,67,127,0
2,58,127,74
2,70,127,0
2,55,115,16
2,67,115,0
2,62,115,30
2,74,115,0
2,62,115,106
2,74,115,0
2,60,115,102
2,72,115,0
2,74,115,48
2,62,115,30
2,55,79,1600
2,67,79,0
2,62,127,34
2,74,127,0
2,63,115,96
2,75,115,0
2,62,127,116
2,74,127,0
2,58,104,24
2,70,104,0
2,60,127,112
2,72,127,0
2,60,94,128
2,72,94,0
2,74,104,48
2,62,104,38
2,60,94,20
2,72,94,0
2,55,127,1648
2,67,127,0
2,55,104,98
2,67,104,0
2,58,115,72
2,70,115,0
2,55,104,28
2,67,104,0
2,62,127,0
2,74,127,0
2,62,127,120
2,74,127,0
2,60,115,112
2,72,115,0
2,74,115,48
2,62,115,20
2,67,94,1656
2,55,94,48
2,62,127,0
2,74,127,0
2,63,115,110
2,75,115,0
2,62,127,112
2,74,127,0
2,58,104,28
2,70,104,0
2,60,127,116
2,72,127,0
2,60,104,144
2,72,104,0
2,74,115,48
2,62,115,32
2,60,115,24
2,72,115,0
2,55,115,1632
2,67,115,0
2,55,115,102
2,67,115,0
2,58,127,96
2,70,127,0
2,55,104,4
2,67,104,0
2,62,127,48
2,74,127,0
2,62,127,108
2,74,127,0
2,60,127,112
2,72,127,0
2,74,115,48
2,62,115,20
2,67,104,1600
2,62,115,16
2,74,115,0
2,63,104,112
2,75,104,0
2,62,127,132
2,74,127,0
2,58,104,46
2,70,104,0
2,60,127,120
2,72,127,0
2,60,115,122
2,72,115,0
2,74,104,48
2,62,104,36
2,60,94,40
2,72,94,0
2,55,115,26224
2,67,115,0
2,55,104,104
2,67,104,0
2,58,127,88
2,70,127,0
2,55,104,68
2,67,104,0
2,62,115,22
2,74,115,0
2,62,94,116
2,74,94,0
2,62,127,96
2,74,127,0
2,55,104,1632
2,67,104,0
2,62,127,10
2,74,127,0
2,63,115,96
2,75,115,0
2,62,127,104
2,74,127,0
2,58,104,16
2,70,104,0
2,60,127,106
2,72,127,0
2,60,115,126
2,72,115,0
2,74,115,48
2,62,115,34
2,60,127,18
2,72,127,0
2,55,115,1616
2,67,115,0
2,55,127,84
2,67,127,0
2,58,127,74
2,70,127,0
2,55,115,16
2,67,115,0
2,62,115,30
2,74,115,0
2,62,115,106
2,74,115,0
2,60,115,102
2,72,115,0
2,74,115,48
2,62,115,30
2,55,79,1600
2,67,79,0
2,62,127,34
2,74,127,0
2,63,115,96
2,75,115,0
2,62,127,116
2,74,127,0
2,58,104,24
2,70,104,0
2,60,127,112
2,72,127,0
2,60,94,128
2,72,94,0
2,74,104,48
2,62,104,38
2,60,94,20
2,72,94,0
2,55,127,1648
2,67,127,0
2,55,104,98
2,67,104,0
2,58,115,72
2,70,115,0
2,55,104,28
2,67,104,0
2,62,127,0
2,74,127,0
2,62,127,120
2,74,127,0
2,60,115,112
2,72,115,0
2,74,115,48
2,62,115,20
2,67,94,1656
2,55,94,48
2,62,127,0
2,74,127,0
2,63,115,110
2,75,115,0
2,62,127,112
2,74,127,0
2,58,104,28
2,70,104,0
2,60,127,116
2,72,127,0
2,60,104,144
2,72,104,0
2,74,115,48
2,62,115,32
2,60,115,24
2,72,115,0
2,55,115,1632
2,67,115,0
2,55,115,102
2,67,115,0
2,58,127,96
2,70,127,0
2,55,104,4
2,67,104,0
2,62,127,48
2,74,127,0
2,62,127,108
2,74,127,0
2,60,127,112
2,72,127,0
2,74,115,48
2,62,115,20
2,67,104,1600
2,62,115,16
2,74,115,0
2,63,104,112
2,75,104,0
2,62,127,132
2,74,127,0
2,58,104,46
2,70,104,0
2,60,127,120
2,72,127,0
2,60,115,122
2,72,115,0
2,74,104,48
2,62,104,36
2,60,94,40
2,72,94,0
2,55,115,23152
2,67,115,0
2,55,104,104
2,67,104,0
2,58,127,88
2,70,127,0
2,55,104,68
2,67,104,0
2,62,115,22
2,74,115,0
2,62,94,116
2,74,94,0
2,62,127,96
2,74,127,0
2,55,104,1632
2,67,104,0
2,62,127,10
2,74,127,0
2,63,115,96
2,75,115,0
2,62,127,104
2,74,127,0
2,58,104,16
2,70,104,0
2,60,127,106
2,72,127,0
2,60,115,126
2,72,115,0
2,74,115,48
2,62,115,34
2,60,127,18
2,72,127,0
2,55,115,1616
2,67,115,0
2,55,127,84
2,67,127,0
2,58,127,74
2,70,127,0
2,55,115,16
2,67,115,0
2,62,115,30
2,74,115,0
2,62,115,106
2,74,115,0
2,60,115,102
2,72,115,0
2,74,115,48
2,62,115,30
2,55,79,1600
2,67,79,0
2,62,127,34
2,74,127,0
2,63,115,96
2,75,115,0
2,62,127,116
2,74,127,0
2,58,104,24
2,70,104,0
2,60,127,112
2,72,127,0
2,60,94,128
2,72,94,0
2,74,104,48
2,62,104,38
2,60,94,20
2,72,94,0
2,55,127,1648
2,67,127,0
2,55,104,98
2,67,104,0
2,58,115,72
2,70,115,0
2,55,104,28
2,67,104,0
2,62,127,0
2,74,127,0
2,62,127,120
2,74,127,0
2,60,115,112
2,72,115,0
2,74,115,48
2,62,115,20
2,67,94,1656
2,55,94,48
2,62,127,0
2,74,127,0
2,63,115,110
2,75,115,0
2,62,127,112
2,74,127,0
2,58,104,28
2,70,104,0
2,60,127,116
2,72,127,0
2,60,104,144
2,72,104,0
2,74,115,48
2,62,115,32
2,60,115,24
2,72,115,0
2,55,115,1632
2,67,115,0
2,55,115,102
2,67,115,0
2,58,127,96
2,70,127,0
2,55,104,4
2,67,104,0
2,62,127,48
2,74,127,0
2,62,127,108
2,74,127,0
2,60,127,112
2,72,127,0
2,74,115,48
2,62,115,20
2,67,104,1600
2,62,115,16
2,74,115,0
2,63,104,112
2,75,104,0
2,62,127,132
2,74,127,0
2,58,104,46
2,70,104,0
2,60,127,120
2,72,127,0
2,60,115,122
2,72,115,0
2,74,104,48
2,62,104,36
2,60,94,40
2,72,94,0
2,55,115,75376
2,67,115,0
2,55,104,104
2,67,104,0
2,58,127,88
2,70,127,0
2,55,104,68
2,67,104,0
2,62,115,22
2,74,115,0
2,62,94,116
2,74,94,0
2,62,127,96
2,74,127,0
2,55,115,4800
2,67,115,0
2,55,127,84
2,67,127,0
2,58,127,74
2,70,127,0
2,55,115,16
2,67,115,0
2,62,115,30
2,74,115,0
2,62,115,106
2,74,115,0
2,60,115,102
2,72,115,0
2,74,115,48
2,62,115,30
2,55,127,4768
2,67,127,0
2,55,104,98
2,67,104,0
2,58,115,72
2,70,115,0
2,55,104,28
2,67,104,0
2,62,127,0
2,74,127,0
2,62,127,120
2,74,127,0
2,60,115,112
2,72,115,0
2,74,115,48
2,62,115,20
2,55,115,4776
2,67,115,0
2,55,115,102
2,67,115,0
2,58,127,96
2,70,127,0
2,55,104,4
2,67,104,0
2,62,127,48
2,74,127,0
2,62,127,108
2,74,127,0
2,60,127,112
2,72,127,0
2,74,115,48
2,62,115,20
2,55,115,4768
2,67,115,0
2,55,104,104
2,67,104,0
2,58,127,88
2,70,127,0
2,55,104,68
2,67,104,0
2,62,115,22
2,74,115,0
2,62,94,116
2,74,94,0
2,62,127,96
2,74,127,0
2,55,104,1632
2,67,104,0
2,62,127,10
2,74,127,0
2,63,115,96
2,75,115,0
2,62,127,104
2,74,127,0
2,58,104,16
2,70,104,0
2,60,127,106
2,72,127,0
2,60,115,126
2,72,115,0
2,74,115,48
2,62,115,34
2,60,127,18
2,72,127,0
2,55,115,1616
2,67,115,0
2,55,127,84
2,67,127,0
2,58,127,74
2,70,127,0
2,55,115,16
2,67,115,0
2,62,115,30
2,74,115,0
2,62,115,106
2,74,115,0
2,60,115,102
2,72,115,0
2,74,115,48
2,62,115,30
2,55,79,1600
2,67,79,0
2,62,127,34
2,74,127,0
2,63,115,96
2,75,115,0
2,62,127,116
2,74,127,0
2,58,104,24
2,70,104,0
2,60,127,112
2,72,127,0
2,60,94,128
2,72,94,0
2,74,104,48
2,62,104,38
2,60,94,20
