track,note,velocity,time
0,45,86,20
0,45,86,30
0,33,126,0
0,45,126,0
0,52,66,0
0,55,79,0
0,60,79,0
0,35,108,0
0,42,121,0
0,52,45,0
0,64,37,0
0,52,41,57
0,55,41,0
0,60,48,0
0,42,95,0
0,42,121,0
0,62,121,0
0,52,49,0
0,55,58,0
0,60,65,0
0,42,55,0
0,35,86,30
0,42,95,0
0,33,75,0
0,45,75,0
0,52,34,0
0,55,39,0
0,60,28,0
0,33,83,82
0,45,83,0
0,52,60,0
0,55,69,0
0,60,64,0
0,35,108,0
0,42,121,0
0,42,95,90
0,52,42,0
0,55,45,0
0,60,36,0
0,52,58,150
0,55,66,0
0,60,68,0
0,42,121,0
0,62,121,0
0,42,55,18
0,42,95,30
0,33,82,0
0,45,77,0
0,52,32,0
0,55,34,0
0,60,28,0
0,33,86,90
0,45,86,0
0,52,60,0
0,55,69,0
0,60,70,0
0,35,108,0
0,42,121,0
0,42,95,108
0,52,33,0
0,55,42,0
0,60,40,0
0,52,60,168
0,55,65,0
0,60,66,0
0,42,121,0
0,62,121,0
0,42,55,18
0,35,86,30
0,42,95,0
0,33,79,0
0,45,73,0
0,33,77,0
0,45,80,0
0,52,58,0
0,55,61,0
0,60,65,0
0,35,108,0
0,42,121,0
0,42,114,0
0,52,105,0
0,42,95,0
0,42,57,15
0,42,121,20
0,62,121,0
0,55,106,0
0,42,57,39
0,42,95,20
0,33,76,0
0,45,69,0
0,60,69,0
0,42,57,90
0,33,96,0
0,45,96,0
0,52,79,0
0,55,79,0
0,60,89,0
0,35,108,0
0,42,121,0
0,64,105,0
0,52,45,0
0,64,37,0
0,64,105,62
0,64,105,0
0,42,95,0
0,52,41,0
0,55,41,0
0,60,48,0
0,64,105,8
0,52,49,109
0,55,58,0
0,60,65,0
0,42,121,0
0,62,121,0
0,64,105,0
0,42,60,0
0,64,105,30
0,35,86,0
0,42,95,0
0,33,75,0
0,45,75,0
0,52,34,0
0,55,39,0
0,60,28,0
0,64,105,59
0,33,83,82
0,45,83,0
0,52,60,0
0,55,69,0
0,60,64,0
0,35,108,0
0,42,121,0
0,57,105,48
0,64,105,5
0,42,95,0
0,52,42,0
0,55,45,0
0,60,36,0
0,64,105,120
0,52,58,0
0,55,66,0
0,60,68,0
0,42,121,0
0,62,121,0
0,64,105,0
0,42,58,18
0,64,105,30
0,42,95,0
0,33,82,0
0,45,77,0
0,52,32,0
0,55,34,0
0,60,28,0
0,64,105,0
0,31,98,0
0,43,98,0
0,52,81,0
0,55,81,0
0,60,91,0
0,35,108,0
0,42,121,0
0,42,95,0
0,52,41,0
0,55,41,0
0,60,48,0
0,57,105,8
0,42,58,19
0,64,105,14
0,42,121,0
0,62,121,0
0,52,49,0
0,55,58,0
0,60,65,0
0,64,105,0
0,64,105,30
0,31,75,0
0,43,75,0
0,52,34,0
0,55,39,0
0,60,28,0
0,35,86,0
0,42,95,0
0,64,105,59
0,35,108,82
0,42,121,0
0,31,83,0
0,43,83,0
0,52,60,0
0,55,69,0
0,60,64,0
0,57,105,70
0,64,105,13
0,52,98,0
0,60,36,0
0,42,95,0
0,64,105,30
0,64,105,35
0,42,121,0
0,62,121,0
0,55,101,0
0,64,105,0
0,42,58,20
0,42,95,0
0,31,82,0
0,43,77,0
0,60,58,0
0,64,105,60
0,26,105,0
0,38,105,0
0,53,98,0
0,57,98,0
0,60,108,0
0,35,108,0
0,42,121,0
0,67,105,0
0,53,43,0
0,65,43,0
0,42,95,57
0,53,41,0
0,57,41,0
0,60,48,0
0,53,49,109
0,57,58,0
0,60,65,0
0,42,121,0
0,62,121,0
0,65,105,0
0,42,55,0
0,35,86,30
0,42,95,0
0,26,65,0
0,38,65,0
0,53,34,0
0,57,39,0
0,60,28,0
0,52,43,53
0,64,43,0
0,26,102,0
0,38,102,0
0,52,95,0
0,57,95,0
0,60,95,0
0,35,108,0
0,42,121,0
0,42,95,90
0,52,42,0
0,57,45,0
0,60,36,0
0,52,58,150
0,57,66,0
0,60,68,0
0,42,121,0
0,62,121,0
0,42,55,18
0,42,95,30
0,26,72,0
0,38,67,0
0,52,32,0
0,57,34,0
0,60,28,0
0,26,108,0
0,38,108,0
0,55,101,0
0,57,101,0
0,60,111,0
0,35,108,0
0,42,121,0
0,55,41,0
0,67,41,0
0,42,95,57
0,55,41,0
0,57,41,0
0,60,48,0
0,55,49,109
0,57,58,0
0,60,65,0
0,42,121,0
0,62,121,0
0,42,55,0
0,26,65,0
0,38,65,0
0,55,34,0
0,57,39,0
0,60,28,0
0,35,86,0
0,42,95,0
0,53,40,0
0,65,40,0
0,26,105,0
0,38,105,0
0,53,98,0
0,57,98,0
0,60,98,0
0,35,108,0
0,42,121,0
0,53,55,0
0,57,55,0
0,60,55,0
0,42,95,0
0,42,121,109
0,62,121,0
0,53,78,0
0,57,78,0
0,60,78,0
0,62,105,89
0,26,85,0
0,38,85,0
0,53,78,0
0,57,78,0
0,60,78,0
0,42,95,0
0,62,105,49
0,42,57,0
0,31,112,0
0,43,112,0
0,50,95,0
0,53,95,0
0,60,115,0
0,35,108,0
0,42,121,0
0,62,105,0
0,55,105,24
0,62,105,57
0,42,95,0
0,50,41,0
0,53,41,0
0,60,58,0
0,62,105,109
0,50,49,0
0,53,58,0
0,60,75,0
0,42,121,0
0,62,121,0
0,42,60,0
0,62,105,30
0,35,86,0
0,42,95,0
0,31,75,0
0,43,75,0
0,50,34,0
0,53,39,0
0,60,38,0
0,62,105,0
0,31,83,82
0,43,83,0
0,50,60,0
0,53,69,0
0,60,74,0
0,35,108,0
0,42,121,0
0,62,105,42
0,62,105,60
0,42,95,0
0,50,42,0
0,53,45,0
0,60,46,0
0,62,105,30
0,50,58,120
0,53,66,0
0,60,78,0
0,42,121,0
0,62,121,0
0,55,105,0
0,42,58,18
0,62,105,30
0,42,95,0
0,31,82,0
0,43,77,0
0,50,32,0
0,53,34,0
0,60,38,0
0,62,105,58
0,31,91,0
0,43,91,0
0,50,74,0
0,53,74,0
0,59,94,0
0,35,108,0
0,42,121,0
0,55,105,60
0,62,105,0
0,42,95,0
0,50,41,0
0,53,41,0
0,59,58,0
0,62,105,17
0,42,58,19
0,62,105,30
0,42,121,0
0,62,121,0
0,50,49,0
0,53,58,0
0,59,75,0
0,62,105,15
0,62,105,34
0,31,75,0
0,43,75,0
0,50,34,0
0,53,39,0
0,59,38,0
0,35,86,0
0,42,95,0
0,62,105,49
0,35,108,82
0,42,121,0
0,31,83,0
0,43,83,0
0,50,60,0
0,53,69,0
0,59,74,0
0,62,105,25
0,43,97,0
0,50,42,0
0,53,45,0
0,59,46,0
0,42,95,0
0,62,105,30
0,62,105,33
0,42,121,0
0,62,121,0
0,50,98,0
0,53,66,0
0,59,78,0
0,42,58,18
0,62,105,10
0,42,95,30
0,31,82,0
0,50,32,0
0,53,34,0
0,59,38,0
0,60,105,20
0,52,79,38
0,36,106,0
0,48,106,0
0,55,79,0
0,35,108,0
0,42,121,0
0,60,105,0
0,48,43,0
0,60,43,0
0,60,127,25
0,52,46,32
0,55,46,0
0,60,63,0
0,42,95,0
0,42,121,62
0,62,121,0
0,52,54,0
0,55,63,0
0,60,80,0
0,42,55,0
0,35,86,30
0,42,95,0
0,36,80,0
0,48,80,0
0,52,39,0
0,55,44,0
0,60,43,0
0,47,43,25
0,59,43,0
0,36,88,0
0,48,88,0
0,52,65,0
0,55,74,0
0,59,95,0
0,35,108,0
0,42,121,0
0,42,95,90
0,52,47,0
0,55,50,0
0,59,51,0
0,52,63,150
0,55,71,0
0,59,83,0
0,42,121,0
0,62,121,0
0,42,55,18
0,42,95,30
0,36,87,0
0,48,82,0
0,52,37,0
0,55,39,0
0,59,43,0
0,36,96,0
0,48,96,0
0,52,79,0
0,55,79,0
0,62,109,0
0,35,108,0
0,42,121,0
0,50,41,0
0,62,41,0
0,42,95,57
0,52,46,0
0,55,46,0
0,62,63,0
0,52,54,109
0,55,63,0
0,62,80,0
0,42,121,0
0,62,121,0
0,42,55,0
0,35,86,30
0,42,95,0
0,36,80,0
0,48,80,0
0,52,39,0
0,55,44,0
0,62,43,0
0,36,88,0
0,48,88,0
0,52,65,0
0,55,74,0
0,60,89,0
0,35,108,0
0,42,121,0
0,48,40,0
0,60,40,0
0,52,47,25
0,55,50,0
0,60,51,0
0,42,95,0
0,42,121,150
0,62,121,0
0,52,63,0
0,55,71,0
0,60,83,0
0,36,87,108
0,48,82,0
0,52,37,0
0,55,39,0
0,60,43,0
0,42,95,0
0,42,48,60
0,42,57,10
0,42,69,20
0,33,101,0
0,45,101,0
0,52,84,0
0,55,84,0
0,60,107,0
0,35,108,0
0,42,121,0
0,72,105,0
0,72,105,0
0,42,95,0
0,52,46,0
0,55,46,0
0,60,53,0
0,72,105,109
0,52,54,0
0,55,63,0
0,60,70,0
0,42,121,0
0,62,121,0
0,42,60,0
0,72,105,30
0,35,86,0
0,42,95,0
0,33,80,0
0,45,80,0
0,52,39,0
0,55,44,0
0,60,33,0
0,72,105,49
0,33,88,82
0,45,88,0
0,52,65,0
0,55,74,0
0,60,69,0
0,35,108,0
0,42,121,0
0,72,105,39
0,72,105,60
0,42,95,0
0,52,47,0
0,55,50,0
0,60,41,0
0,72,105,30
0,72,105,59
0,52,63,0
0,55,71,0
0,60,73,0
0,42,121,0
0,62,121,0
0,42,58,18
0,42,95,0
0,33,87,0
0,45,82,0
0,52,37,0
0,55,39,0
0,60,33,0
0,69,105,20
0,31,103,0
0,43,103,0
0,52,86,0
0,55,86,0
0,60,96,0
0,35,108,0
0,42,121,0
0,72,105,0
0,42,95,57
0,52,46,0
0,55,46,0
0,60,53,0
0,42,58,19
0,42,121,30
0,62,121,0
0,52,54,0
0,55,63,0
0,60,70,0
0,31,80,38
0,43,80,0
0,52,39,0
0,55,44,0
0,60,33,0
0,35,86,0
0,42,95,0
0,35,108,82
0,42,121,0
0,31,88,0
0,43,88,0
0,52,65,0
0,55,74,0
0,60,69,0
0,72,105,60
0,72,105,57
0,52,103,0
0,60,41,0
0,42,95,0
0,72,105,30
0,72,105,42
0,42,121,0
0,62,121,0
0,55,106,0
0,42,58,20
0,72,105,10
0,42,95,30
0,31,87,0
0,43,82,0
0,60,63,0
0,26,105,0
0,38,105,0
0,53,98,0
0,57,98,0
0,60,108,0
0,35,108,0
0,42,121,0
0,53,50,0
0,71,105,53
0,42,95,0
0,53,41,0
0,57,41,0
0,60,48,0
0,69,105,17
0,53,49,109
0,57,58,0
0,60,65,0
0,42,121,0
0,62,121,0
0,42,55,0
0,35,86,29
0,42,95,0
0,26,65,0
0,38,65,0
0,53,34,0
0,57,39,0
0,60,28,0
0,52,50,53
0,26,102,0
0,38,102,0
0,52,95,0
0,57,95,0
0,60,95,0
0,35,108,0
0,42,121,0
0,52,42,0
0,57,45,0
0,60,36,0
0,42,95,0
0,42,121,150
0,62,121,0
0,52,58,0
0,57,66,0
0,60,68,0
0,42,55,18
0,42,95,30
0,26,72,0
0,38,67,0
0,52,32,0
0,57,34,0
0,60,28,0
0,42,86,10
0,32,101,0
0,44,101,0
0,52,84,0
0,56,99,0
0,59,94,0
0,35,108,0
0,46,86,0
0,59,45,0
0,64,105,60
0,71,105,5
0,42,95,0
0,52,46,0
0,56,46,0
0,59,53,0
0,71,105,17
0,72,105,33
0,52,54,0
0,56,63,0
0,59,70,0
0,42,121,0
0,62,121,0
0,42,55,0
0,35,86,30
0,42,95,0
0,32,80,0
0,44,80,0
0,52,39,0
0,56,44,0
0,59,33,0
0,71,105,38
0,42,57,2
0,33,88,2
0,45,88,0
0,52,65,0
0,55,93,0
0,60,110,0
0,35,108,0
0,46,86,0
0,64,105,0
0,60,45,0
0,52,47,90
0,55,50,0
0,60,41,0
0,42,95,0
0,42,121,150
0,62,121,0
0,52,63,0
0,55,71,0
0,60,73,0
0,33,87,108
0,45,82,0
0,52,37,0
0,55,39,0
0,60,33,0
0,42,95,0
0,42,57,0
0,26,101,0
0,38,101,0
0,53,84,0
0,57,84,0
0,62,104,0
0,35,108,0
0,46,86,0
0,53,45,0
0,57,45,0
0,62,45,0
0,65,105,60
0,65,105,5
0,42,95,0
0,53,46,0
0,57,46,0
0,62,53,0
0,65,105,17
0,67,105,33
0,53,54,0
0,57,63,0
0,62,70,0
0,42,121,0
0,62,121,0
0,42,60,0
0,35,86,30
0,42,95,0
0,26,80,0
0,38,80,0
0,53,39,0
0,57,44,0
0,62,33,0
0,69,105,38
0,31,88,2
0,43,88,0
0,50,75,0
0,55,84,0
0,59,89,0
0,35,108,0
0,46,86,0
0,62,105,0
0,50,45,0
0,55,45,0
0,59,45,0
0,50,47,0
0,55,50,0
0,59,41,0
0,42,95,0
0,50,63,125
0,55,71,0
0,59,73,0
0,42,121,0
0,62,121,0
0,42,58,18
0,42,95,30
0,31,87,0
0,43,82,0
0,50,37,0
0,55,39,0
0,59,33,0
0,32,101,0
0,44,101,0
0,52,84,0
0,56,99,0
0,59,94,0
0,35,108,0
0,46,57,0
0,52,45,0
0,56,45,0
0,59,45,0
0,64,105,60
0,64,105,5
0,42,95,0
0,52,46,0
0,56,46,0
0,59,53,0
0,65,105,17
0,42,58,19
0,65,105,30
0,42,121,0
0,62,121,0
0,52,54,0
0,56,63,0
0,59,70,0
0,32,80,38
0,44,80,0
0,52,39,0
0,56,44,0
0,59,33,0
0,35,86,0
0,42,95,0
0,64,105,38
0,33,88,2
0,45,88,0
0,52,65,0
0,55,93,0
0,60,110,0
0,35,108,0
0,46,57,0
0,60,105,0
0,48,45,0
0,57,45,0
0,60,45,0
0,52,47,90
0,55,50,0
0,60,41,0
0,42,95,0
0,42,121,150
0,62,121,0
0,52,63,0
0,55,71,0
0,60,73,0
0,42,58,18
0,42,95,30
0,33,87,0
0,45,82,0
0,52,37,0
0,55,39,0
0,60,33,0
0,29,101,0
0,41,101,0
0,53,84,0
0,57,84,0
0,62,97,0
0,35,108,0
0,46,86,0
0,53,45,0
0,53,45,0
0,62,45,0
0,60,105,60
0,64,105,5
0,42,95,0
0,53,46,0
0,57,46,0
0,62,53,0
0,64,105,17
0,64,105,33
0,53,54,0
0,57,63,0
0,62,70,0
0,42,121,0
0,62,121,0
0,42,55,0
0,64,105,9
0,35,86,30
0,42,95,0
0,29,80,0
0,41,80,0
0,53,39,0
0,57,44,0
0,62,33,0
0,62,105,9
0,31,98,2
0,43,98,0
0,50,75,0
0,55,84,0
0,59,94,0
0,35,108,0
0,46,86,0
0,59,105,0
0,50,45,0
0,55,45,0
0,59,45,0
0,50,47,90
0,55,50,0
0,59,41,0
0,42,57,0
0,42,121,150
0,62,121,0
0,50,63,0
0,55,71,0
0,59,73,0
0,42,55,18
0,42,95,30
0,31,87,0
0,43,82,0
0,50,37,0
0,55,39,0
0,59,33,0
0,32,101,0
0,44,101,0
0,52,84,0
0,56,99,0
0,62,94,0
0,35,108,0
0,46,86,0
0,52,45,0
0,56,45,0
0,62,45,0
0,42,95,57
0,52,46,0
0,56,46,0
0,62,53,0
0,52,54,0
0,56,63,0
0,62,70,0
0,42,121,0
0,62,121,0
0,42,55,0
0,35,86,30
0,42,95,0
0,32,80,0
0,44,80,0
0,52,39,0
0,56,44,0
0,62,33,0
0,52,45,0
0,57,45,0
0,62,45,0
0,33,89,0
0,45,89,0
0,52,72,0
0,57,72,0
0,62,72,0
0,35,108,0
0,42,114,0
0,45,94,90
0,52,77,0
0,57,77,0
0,62,77,0
0,42,95,0
0,42,121,120
0,62,121,0
0,45,99,0
0,52,82,0
0,57,82,0
0,62,82,0
0,60,105,0
0,33,104,0
0,45,104,0
0,52,87,0
0,57,87,0
0,62,87,0
0,42,95,0
0,60,105,0
0,60,105,0
0,42,57,0
0,33,109,0
0,45,109,0
0,52,92,0
0,57,92,0
0,60,92,0
0,35,108,0
0,42,121,0
0,60,45,0
0,60,105,0
0,42,86,10
0,46,57,20
0,45,114,0
0,52,97,0
0,57,97,0
0,60,97,0
