track,note,velocity,time
2,33,87,390
2,33,82,92
2,33,83,41
2,28,78,12
2,33,82,4
2,33,76,73
2,33,78,51
2,28,76,23
2,33,82,96
2,33,79,94
2,33,78,49
2,28,74,13
2,33,78,0
2,33,78,114
2,33,76,51
2,28,82,15
2,28,0,82
2,33,86,14
2,33,74,41
2,33,80,36
2,33,82,44
2,33,76,49
2,33,79,48
2,31,78,19
2,29,78,9
2,29,81,44
2,29,78,43
2,29,87,57
2,29,85,48
2,29,83,37
2,28,76,192
2,26,79,14
2,26,82,37
2,26,83,43
2,28,82,19
2,28,81,38
2,32,86,6
2,33,82,9
2,33,76,42
2,33,82,40
2,36,75,33
2,36,75,24
2,36,65,33
2,36,78,36
2,38,84,19
2,38,82,28
2,26,92,12
2,26,81,21
2,28,72,10
2,29,78,4
2,29,82,47
2,29,81,28
2,36,80,98
2,36,75,63
2,36,72,47
2,36,76,56
2,31,77,4
2,31,78,50
2,31,78,44
2,29,91,81
2,29,75,104
2,29,82,34
2,29,76,18
2,29,73,64
2,26,87,13
2,26,84,57
2,26,90,35
2,26,81,42
2,36,83,62
2,36,76,78
2,36,82,41
2,36,76,38
2,36,76,24
2,31,81,17
2,33,86,12
2,33,74,41
2,33,80,36
2,33,82,44
2,33,76,49
2,33,79,48
2,31,78,19
2,29,78,9
2,29,81,44
2,29,78,43
2,29,87,57
2,29,85,48
2,29,83,37
2,28,76,192
2,26,79,14
2,26,82,37
2,26,83,43
2,28,82,19
2,28,81,38
2,32,86,6
2,33,82,9
2,33,76,42
2,33,82,40
2,36,75,33
2,36,75,24
2,36,65,33
2,36,78,36
2,38,84,19
2,38,82,28
2,26,92,12
2,26,81,21
2,28,72,10
2,29,78,4
2,29,82,47
2,29,81,28
2,36,80,98
2,36,75,63
2,36,72,47
2,36,76,56
2,31,77,4
2,31,78,50
2,31,78,44
2,29,91,81
2,29,75,104
2,29,82,34
2,29,76,18
2,29,73,64
2,26,87,13
2,26,84,57
2,26,90,35
2,26,81,42
2,36,83,62
2,36,76,78
2,36,82,41
2,36,76,38
2,36,76,24
2,31,81,17
2,29,112,12
2,26,107,768
2,28,94,12
2,31,100,5
2,31,94,12
2,31,50,18
2,24,94,14
2,24,96,52
2,24,96,28
2,28,90,92
2,28,87,49
2,28,87,36
2,28,82,46
2,29,84,96
2,29,86,51
2,29,85,37
2,26,90,124
2,26,83,56
2,26,84,26
2,29,73,288
2,31,84,15
2,31,88,68
2,31,78,35
2,29,90,140
2,29,82,59
2,29,87,28
2,24,100,52
2,24,89,160
2,24,94,18
2,26,81,80
2,28,83,3
2,28,82,94
2,28,88,23
2,29,84,138
2,29,80,85
2,29,84,40
2,26,82,127
2,26,83,64
2,26,86,32
2,28,81,18
2,29,74,16
2,31,89,8
2,31,76,72
2,31,87,33
2,28,88,118
2,28,84,64
2,28,88,22
2,29,86,154
2,29,88,69
2,29,85,33
2,26,89,144
2,26,83,71
2,26,90,25
2,28,89,141
2,28,86,73
2,28,85,25
2,29,82,31
2,31,90,7
2,31,91,71
2,31,87,32
2,24,100,200
2,24,89,160
2,24,94,18
2,26,81,80
2,28,83,3
2,28,82,94
2,28,88,23
2,29,84,138
2,29,80,85
2,29,84,40
2,26,82,127
2,26,83,64
2,26,86,32
2,28,81,18
2,29,74,16
2,31,89,8
2,31,76,72
2,31,87,33
2,28,88,118
2,28,84,64
2,28,88,22
2,29,86,154
2,29,88,69
2,29,85,33
2,26,89,144
2,26,83,71
2,26,90,25
2,28,89,141
2,28,86,73
2,28,85,25
2,29,82,31
2,31,90,7
2,31,91,71
2,31,87,32
2,36,98,200
2,36,82,49
2,35,82,9
2,33,86,37
2,33,74,41
2,33,80,36
2,33,82,44
2,33,76,49
2,33,79,48
2,31,78,19
2,29,78,9
2,29,81,44
2,29,78,43
2,29,87,57
2,29,85,48
2,29,83,37
2,28,76,192
2,26,79,14
2,26,82,37
2,26,83,43
2,28,82,19
2,28,81,38
2,32,86,6
2,33,82,9
2,33,76,42
2,33,82,40
2,36,75,33
2,36,75,24
2,36,65,33
2,36,78,36
2,38,84,19
2,38,82,28
2,26,92,12
2,26,81,21
2,28,72,10
2,29,78,4
2,29,82,47
2,29,81,28
2,36,80,98
2,36,75,63
2,36,72,47
2,36,76,56
2,31,77,4
2,31,78,50
2,31,78,44
2,29,91,81
2,29,75,104
2,29,82,34
2,29,76,18
2,29,73,64
2,26,87,13
2,26,84,57
2,26,90,35
2,26,81,42
2,36,83,62
2,36,76,78
2,36,82,41
2,36,76,38
2,36,76,24
2,31,81,17
2,29,112,12
2,26,107,768
2,28,94,12
2,31,100,5
2,31,94,12
2,31,50,18
2,24,94,14
2,24,96,52
2,24,96,28
2,28,90,92
2,28,87,49
2,28,87,36
2,28,82,46
2,29,84,96
2,29,86,51
2,29,85,37
2,26,90,124
2,26,83,56
2,26,84,26
2,29,73,288
2,31,84,15
2,31,88,68
2,31,78,35
2,29,90,140
2,29,82,59
2,29,87,28
2,24,100,52
2,24,89,160
2,24,94,18
2,26,81,80
2,28,83,3
2,28,82,94
2,28,88,23
2,29,84,138
2,29,80,85
2,29,84,40
2,26,82,127
2,26,83,64
2,26,86,32
2,28,81,18
2,29,74,16
2,31,89,8
2,31,76,72
2,31,87,33
2,28,88,118
2,28,84,64
2,28,88,22
2,29,86,154
2,29,88,69
2,29,85,33
2,26,89,144
2,26,83,71
2,26,90,25
2,28,89,141
2,28,86,73
2,28,85,25
2,29,82,31
2,31,90,7
2,31,91,71
2,31,87,32
2,27,94,200
2,27,96,52
2,27,96,28
2,31,90,92
2,31,87,49
2,31,87,36
2,31,82,46
2,32,84,96
2,32,86,51
2,32,85,37
2,29,90,124
2,29,83,56
2,29,84,26
2,32,73,288
2,34,84,15
2,34,88,68
2,34,78,35
2,32,90,140
2,32,82,59
2,32,87,28
2,27,100,52
2,27,89,160
2,27,94,18
2,29,81,80
2,31,83,3
2,31,82,94
2,31,88,23
2,32,84,138
2,32,80,85
2,32,84,40
2,29,82,127
2,29,83,64
2,29,86,32
2,31,81,18
2,32,74,16
2,34,89,8
2,34,76,72
2,34,87,33
2,31,88,118
2,31,84,64
2,31,88,22
2,32,86,154
2,32,88,69
2,32,85,33
2,29,89,144
2,29,83,71
2,29,90,25
2,31,89,141
2,31,86,73
2,31,85,25
2,32,82,31
2,34,90,7
2,34,91,71
2,34,87,32
2,27,100,200
2,27,89,160
2,27,94,18
2,29,81,80
2,31,83,3
2,31,82,94
2,31,88,23
2,32,84,138
2,32,80,85
2,32,84,40
2,29,82,127
2,29,83,64
2,29,86,32
2,31,81,18
2,32,74,16
2,34,89,8
2,34,76,72
2,34,87,33
2,31,88,118
2,31,84,64
2,31,88,22
2,32,86,154
2,32,88,69
2,32,85,33
2,29,89,144
2,29,83,71
2,29,90,25
2,31,89,141
2,31,86,73
2,31,85,25
2,32,82,31
2,34,90,7
2,34,91,71
2,34,87,32
2,27,100,200
2,27,89,160
2,27,94,18
2,29,81,80
2,31,83,3
2,31,82,94
2,31,88,23
2,32,84,138
2,32,80,85
2,32,84,40
2,29,82,127
2,29,83,64
2,29,86,32
2,31,81,18
2,32,74,16
2,34,89,8
2,34,76,72
2,34,87,33
2,31,88,118
2,31,84,64
2,31,88,22
2,32,86,154
2,32,88,69
2,32,85,33
2,29,89,144
2,29,83,71
2,29,90,25
2,31,89,141
2,31,86,73
2,31,85,25
2,32,82,31
2,34,90,7
2,34,91,71
2,34,87,32
2,34,70,104
2,27,91,4
3,57,81,16498
3,59,79,11
3,60,77,745
3,64,85,8
3,65,74,76
3,69,85,46
3,67,90,90
3,65,80,40
3,64,80,34
3,62,57,384
3,72,71,123
3,74,101,24
3,72,84,45
3,71,81,184
3,69,80,49
3,65,92,13
3,64,92,92
3,62,87,7
3,60,95,192
3,55,97,758
3,81,112,161
3,86,101,1152
3,81,88,4
3,79,104,48
3,67,93,1611
3,72,91,912
3,71,96,380
3,69,95,4
3,69,93,17
3,67,100,384
3,91,86,0
3,65,94,748
3,77,94,0
3,89,80,0
3,48,104,3
3,55,92,0
3,60,104,0
3,64,92,0
3,76,77,0
3,88,62,0
3,48,92,116
3,55,85,0
3,60,103,0
3,48,97,19
3,55,97,0
3,60,94,0
3,48,75,48
3,55,85,0
3,60,95,0
3,50,84,96
3,62,86,0
3,52,92,7
3,60,97,0
3,64,85,0
3,52,89,104
3,60,96,0
3,64,92,0
3,52,94,16
3,60,100,0
3,64,94,0
3,53,97,196
3,60,90,0
3,65,94,0
3,53,86,113
3,60,87,0
3,65,87,0
3,53,100,4
3,60,85,0
3,65,92,0
3,53,87,46
3,60,90,0
3,65,93,0
3,52,79,8
3,64,84,0
3,50,85,3
3,57,79,0
3,62,78,0
3,50,96,123
3,57,82,0
3,62,90,0
3,50,95,16
3,57,85,0
3,62,93,0
3,55,85,214
3,67,85,0
3,55,89,150
3,67,93,0
3,55,90,7
3,67,63,0
3,55,90,34
3,67,97,0
3,53,81,14
3,65,83,0
3,52,83,10
3,64,90,0
3,59,100,2
3,52,85,48
3,64,85,0
3,52,95,62
3,60,103,0
3,64,93,0
3,53,87,6
3,65,89,0
3,55,79,10
3,67,84,0
3,57,85,6
3,69,90,0
3,57,85,70
3,69,85,0
3,57,91,16
3,69,91,0
3,57,85,32
3,69,91,0
3,55,84,4
3,67,85,0
3,53,87,9
3,57,93,0
3,65,81,0
3,53,86,87
3,65,79,0
3,53,89,9
3,65,88,0
3,52,96,223
3,55,112,0
3,64,99,0
3,52,92,110
3,64,92,0
3,52,95,19
3,64,94,0
3,52,89,45
3,64,86,0
3,67,90,0
3,53,88,0
3,65,95,0
3,69,97,0
3,55,85,96
3,67,96,0
3,71,92,0
3,55,103,85
3,67,93,0
3,71,91,0
3,55,92,23
3,67,87,0
3,71,84,0
3,48,104,53
3,55,92,0
3,60,104,0
3,72,90,0
3,48,92,116
3,55,85,0
3,60,103,0
3,72,89,0
3,48,97,13
3,55,97,0
3,60,94,0
3,72,87,0
3,48,75,38
3,55,85,0
3,60,95,0
3,72,85,0
3,50,84,11
3,62,86,0
3,74,93,0
3,52,92,7
3,60,97,0
3,64,85,0
3,76,94,0
3,52,89,104
3,60,96,0
3,64,92,0
3,65,99,0
3,76,85,0
3,52,94,16
3,60,100,0
3,64,94,0
3,76,72,0
3,53,97,196
3,60,90,0
3,65,94,0
3,77,93,0
3,53,86,110
3,60,87,0
3,65,87,0
3,77,93,0
3,53,100,4
3,60,85,0
3,65,92,0
3,77,93,0
3,53,87,46
3,60,90,0
3,65,93,0
3,77,94,0
3,52,79,8
3,64,84,0
3,76,87,0
3,50,85,3
3,57,79,0
3,62,78,0
3,74,92,0
3,50,96,120
3,57,82,0
3,62,90,0
3,74,85,0
3,50,95,16
3,57,85,0
3,62,93,0
3,74,90,0
3,64,88,22
3,76,87,0
3,65,91,1
3,77,90,0
3,55,85,93
3,67,89,0
3,79,93,0
3,55,89,113
3,67,104,0
3,79,94,0
3,55,90,19
3,67,99,0
3,79,94,0
3,55,90,40
3,67,100,0
3,79,91,0
3,53,81,8
3,65,87,0
3,77,81,0
3,52,83,4
3,64,93,0
3,76,86,0
3,59,100,2
3,52,85,48
3,64,85,0
3,64,95,48
3,76,85,0
3,52,95,29
3,60,103,0
3,64,95,0
3,76,87,0
3,53,87,6
3,65,93,0
3,77,87,0
3,55,79,7
3,67,91,0
3,79,85,0
3,57,85,6
3,69,90,0
3,81,94,0
3,57,85,78
3,69,93,0
3,81,90,0
3,57,91,24
3,69,90,0
3,81,93,0
3,57,85,32
3,69,94,0
3,81,89,0
3,55,84,10
3,67,91,0
3,79,79,0
3,53,87,4
3,57,93,0
3,65,95,0
3,77,90,0
3,69,91,9
3,81,93,0
3,53,86,96
3,65,79,0
3,53,89,1
3,65,88,0
3,74,85,0
3,86,87,0
3,69,91,127
3,81,91,0
3,52,96,10
3,55,112,0
3,64,99,0
3,67,97,0
3,79,77,0
3,52,92,110
3,64,92,0
3,52,95,19
3,64,94,0
3,52,89,45
3,64,86,0
3,67,90,0
3,53,88,0
3,65,95,0
3,69,97,0
3,55,85,96
3,67,96,0
3,71,92,0
3,62,95,4
3,74,91,0
3,55,103,85
3,67,93,0
3,71,91,0
3,55,92,23
3,67,91,0
3,71,84,0
3,79,87,0
3,62,85,6
3,74,87,0
3,60,87,53
3,72,79,0
3,57,81,378
3,65,89,1536
3,64,88,1344
3,62,75,175
3,59,79,11
3,60,77,768
3,60,91,278
3,62,96,17
3,64,87,192
3,64,85,560
3,65,74,162
3,69,85,933
3,67,90,179
3,65,80,285
3,64,80,85
3,62,57,752
3,72,71,152
3,74,101,24
3,72,84,45
3,71,81,192
3,69,80,182
3,65,92,936
3,64,92,171
3,62,87,7
3,60,95,192
3,55,97,758
3,81,112,161
3,86,101,1152
3,81,88,4
3,79,104,48
3,67,93,1611
3,72,91,912
3,71,96,380
3,69,95,4
3,69,93,17
3,67,100,384
3,91,86,0
3,65,94,748
3,77,94,0
3,89,80,0
3,48,104,3
3,55,92,0
3,60,104,0
3,64,92,0
3,76,92,0
3,88,78,0
3,48,92,116
3,55,85,0
3,60,103,0
3,48,97,19
3,55,97,0
3,60,94,0
3,48,75,48
3,55,85,0
3,60,95,0
3,50,84,96
3,62,86,0
3,52,92,7
3,60,97,0
3,64,85,0
3,52,89,104
3,60,96,0
3,64,92,0
3,52,94,16
3,60,100,0
3,64,94,0
3,53,97,196
3,60,90,0
3,65,94,0
3,53,86,113
3,60,87,0
3,65,87,0
3,53,100,4
3,60,85,0
3,65,92,0
3,53,87,46
3,60,90,0
3,65,93,0
3,52,79,8
3,64,84,0
3,50,85,3
3,57,79,0
3,62,78,0
3,50,96,123
3,57,82,0
3,62,90,0
3,50,95,16
3,57,85,0
3,62,93,0
3,55,85,214
3,67,85,0
3,55,89,150
3,67,93,0
3,55,90,7
3,67,63,0
3,55,90,34
3,67,97,0
3,53,81,14
3,65,83,0
3,52,83,10
3,64,90,0
3,59,100,2
3,52,85,48
3,64,85,0
3,52,95,62
3,60,103,0
3,64,93,0
3,53,87,6
3,65,89,0
3,55,79,10
3,67,84,0
3,57,85,6
3,69,90,0
3,57,85,70
3,69,85,0
3,57,91,16
3,69,91,0
3,57,85,32
3,69,91,0
3,55,84,4
3,67,85,0
3,53,87,9
3,57,93,0
3,65,81,0
3,53,86,87
3,65,79,0
3,53,89,9
3,65,88,0
3,52,96,223
3,55,112,0
3,64,99,0
3,52,92,110
3,64,92,0
3,52,95,19
3,64,94,0
3,52,89,45
3,64,86,0
3,67,90,0
3,53,88,0
3,65,95,0
3,69,97,0
3,55,85,96
3,67,96,0
3,71,92,0
3,55,103,85
3,67,93,0
3,71,91,0
3,55,92,23
3,67,87,0
3,71,84,0
3,79,92,48
3,91,104,0
3,70,93,149
3,75,91,1056
3,87,73,0
3,99,77,0
3,74,96,364
3,86,84,0
3,98,74,0
3,72,95,4
3,84,81,0
3,96,78,0
3,72,93,17
3,70,100,384
3,82,83,0
3,94,88,0
3,68,94,748
3,80,85,0
3,92,99,0
3,79,81,320
3,91,91,0
3,51,104,3
3,58,92,0
3,63,104,0
3,67,92,0
3,79,92,0
3,91,78,0
3,51,92,116
3,58,85,0
3,63,103,0
3,51,97,19
3,58,97,0
3,63,94,0
3,51,75,48
3,58,85,0
3,63,95,0
3,53,84,96
3,65,86,0
3,55,92,7
3,63,97,0
3,67,85,0
3,55,89,104
3,63,96,0
3,67,92,0
3,55,94,16
3,63,100,0
3,67,94,0
3,56,97,196
3,63,90,0
3,68,94,0
3,56,86,113
3,63,87,0
3,68,87,0
3,56,100,4
3,63,85,0
3,68,92,0
3,56,87,46
3,63,90,0
3,68,93,0
3,55,79,8
3,67,84,0
3,53,85,3
3,60,79,0
3,65,78,0
3,53,96,123
3,60,82,0
3,65,90,0
3,53,95,16
3,60,85,0
3,65,93,0
3,58,85,214
3,70,85,0
3,58,89,150
3,70,93,0
3,58,90,7
3,70,63,0
3,58,90,34
