track,note,velocity,time
0,54,111,0
0,59,113,0
0,23,109,0
0,59,117,0
0,54,81,0
0,59,76,0
0,54,70,0
0,63,70,0
0,35,61,0
0,47,61,0
0,54,61,0
0,59,76,0
0,63,61,0
0,69,90,0
0,42,127,0
0,35,127,0
0,54,76,40
0,69,45,0
0,59,77,0
0,69,45,0
0,42,65,0
0,54,71,40
0,69,45,0
0,42,65,0
0,54,73,40
0,69,90,0
0,42,127,0
0,40,100,0
0,59,77,35
0,69,45,0
0,54,65,0
0,23,112,0
0,69,45,0
0,42,65,0
0,35,100,0
0,35,61,0
0,47,61,0
0,54,61,0
0,59,76,0
0,63,61,0
0,54,75,40
0,69,45,0
0,42,65,0
0,59,86,40
0,69,90,0
0,42,127,0
0,54,76,40
0,69,45,0
0,54,85,0
0,69,45,0
0,42,65,0
0,35,100,0
0,59,86,0
0,69,45,0
0,42,65,0
0,54,71,35
0,69,90,0
0,42,127,0
0,40,100,0
0,35,64,0
0,47,64,0
0,54,64,0
0,59,79,0
0,63,64,0
0,54,80,0
0,69,45,0
0,59,79,0
0,69,45,0
0,46,40,0
0,54,57,0
0,69,45,0
0,27,106,0
0,54,74,0
0,69,90,0
0,42,127,0
0,35,127,0
0,39,64,0
0,51,64,0
0,54,64,0
0,58,79,0
0,63,64,0
0,58,76,0
0,58,83,40
0,69,45,0
0,54,66,0
0,69,45,0
0,42,65,0
0,54,84,40
0,69,45,0
0,42,65,0
0,58,79,40
0,69,90,0
0,42,127,0
0,40,100,0
0,54,71,25
0,69,45,0
0,54,85,0
0,27,106,0
0,69,45,0
0,42,65,0
0,35,100,0
0,39,70,0
0,51,70,0
0,54,70,0
0,58,85,0
0,63,70,0
0,58,85,40
0,69,45,0
0,42,65,0
0,54,82,0
0,69,90,0
0,42,127,0
0,54,82,40
0,69,45,0
0,58,67,0
0,69,45,0
0,42,65,0
0,35,100,0
0,54,72,40
0,69,45,0
0,42,65,0
0,54,111,35
0,54,72,0
0,69,90,0
0,42,127,0
0,40,100,0
0,39,67,0
0,51,67,0
0,54,67,0
0,58,82,0
0,63,67,0
0,58,77,0
0,69,45,0
0,59,113,0
0,54,69,0
0,69,45,0
0,46,40,0
0,54,74,0
0,69,45,0
0,23,109,0
0,59,117,0
0,54,81,0
0,69,90,0
0,42,127,0
0,35,127,0
0,35,61,0
0,47,61,0
0,54,61,0
0,59,76,0
0,63,61,0
0,59,76,0
0,54,70,0
0,63,70,0
0,54,76,40
0,69,45,0
0,59,77,0
0,69,45,0
0,42,65,0
0,54,71,40
0,69,45,0
0,42,65,0
0,54,73,40
0,69,90,0
0,42,127,0
0,40,100,0
0,59,77,35
0,69,45,0
0,54,65,0
0,23,112,0
0,69,45,0
0,42,65,0
0,35,100,0
0,35,61,0
0,47,61,0
0,54,61,0
0,59,76,0
0,63,61,0
0,54,75,40
0,69,45,0
0,42,65,0
0,59,86,40
0,69,90,0
0,42,127,0
0,54,76,40
0,69,45,0
0,54,85,0
0,69,45,0
0,42,65,0
0,35,100,0
0,59,86,0
0,69,45,0
0,42,65,0
0,54,71,35
0,69,90,0
0,42,127,0
0,40,100,0
0,35,64,0
0,47,64,0
0,54,64,0
0,59,79,0
0,63,64,0
0,54,80,40
0,69,45,0
0,59,79,0
0,69,45,0
0,46,40,0
0,54,57,40
0,69,45,0
0,27,106,0
0,54,74,0
0,69,90,0
0,42,127,0
0,35,127,0
0,39,64,0
0,51,64,0
0,54,64,0
0,58,79,0
0,63,64,0
0,58,76,0
0,58,83,40
0,69,45,0
0,54,66,0
0,69,45,0
0,42,65,0
0,54,84,40
0,69,45,0
0,42,65,0
0,58,79,40
0,69,90,0
0,42,127,0
0,40,100,0
0,54,71,25
0,69,45,0
0,54,85,0
0,27,106,0
0,69,45,0
0,42,65,0
0,35,100,0
0,39,70,0
0,51,70,0
0,54,70,0
0,58,85,0
0,63,70,0
0,58,85,40
0,69,45,0
0,42,65,0
0,54,82,40
0,69,90,0
0,42,127,0
0,54,82,40
0,69,45,0
0,58,67,0
0,69,45,0
0,42,65,0
0,35,100,0
0,54,72,40
0,69,45,0
0,42,65,0
0,54,111,0
0,54,72,0
0,69,90,0
0,42,127,0
0,40,100,0
0,39,67,0
0,51,67,0
0,54,67,0
0,58,82,0
0,63,67,0
0,58,77,0
0,69,45,0
0,59,113,0
0,54,69,0
0,69,45,0
0,46,40,0
0,54,74,0
0,69,45,0
0,23,109,0
0,59,117,0
0,54,81,0
0,71,105,0
0,69,90,0
0,42,127,0
0,35,127,0
0,35,61,0
0,47,61,0
0,54,61,0
0,59,76,0
0,63,61,0
0,59,76,0
0,54,70,0
0,63,70,0
0,54,76,40
0,69,45,0
0,59,77,0
0,71,105,0
0,69,45,0
0,42,65,0
0,71,105,40
0,54,71,0
0,69,45,0
0,42,65,0
0,54,73,35
0,69,90,0
0,42,127,0
0,40,100,0
0,59,77,35
0,71,105,0
0,69,45,0
0,54,65,0
0,71,105,0
0,23,112,0
0,69,45,0
0,42,65,0
0,35,100,0
0,35,61,0
0,47,61,0
0,54,61,0
0,59,76,0
0,63,61,0
0,54,75,40
0,69,45,0
0,42,65,0
0,59,86,0
0,69,90,0
0,42,127,0
0,54,76,40
0,69,45,0
0,54,85,0
0,71,105,0
0,69,45,0
0,42,65,0
0,35,100,0
0,59,86,0
0,69,45,0
0,42,65,0
0,54,71,35
0,73,105,0
0,69,90,0
0,42,127,0
0,40,100,0
0,35,64,0
0,47,64,0
0,54,64,0
0,59,79,0
0,63,64,0
0,54,80,40
0,69,45,0
0,59,79,0
0,75,105,0
0,69,45,0
0,46,40,0
0,54,57,40
0,69,45,0
0,27,106,0
0,54,74,0
0,70,105,0
0,69,90,0
0,42,127,0
0,35,127,0
0,39,64,0
0,51,64,0
0,54,64,0
0,58,79,0
0,63,64,0
0,58,76,0
0,58,83,40
0,69,45,0
0,54,66,0
0,70,105,0
0,69,45,0
0,42,65,0
0,70,105,40
0,54,84,0
0,69,45,0
0,42,65,0
0,58,79,5
0,69,90,0
0,42,127,0
0,40,100,0
0,54,71,25
0,70,105,0
0,69,45,0
0,54,85,0
0,70,105,0
0,27,106,0
0,69,45,0
0,42,65,0
0,35,100,0
0,39,70,0
0,51,70,0
0,54,70,0
0,58,85,0
0,63,70,0
0,70,105,40
0,58,85,0
0,69,45,0
0,42,65,0
0,54,82,40
0,69,90,0
0,42,127,0
0,54,82,40
0,69,45,0
0,58,67,0
0,69,45,0
0,42,65,0
0,35,100,0
0,54,72,40
0,69,45,0
0,42,65,0
0,54,72,35
0,68,105,0
0,69,90,0
0,42,127,0
0,40,100,0
0,39,67,0
0,51,67,0
0,54,67,0
0,58,82,0
0,63,67,0
0,58,77,0
0,69,45,0
0,27,106,30
0,54,69,0
0,66,105,0
0,69,45,0
0,46,40,0
0,54,74,40
0,69,45,0
0,28,109,0
0,54,81,0
0,68,105,0
0,69,90,0
0,42,127,0
0,35,127,0
0,64,61,0
0,56,61,0
0,52,61,0
0,40,61,0
0,59,76,0
0,59,76,0
0,56,70,0
0,64,70,0
0,54,76,40
0,69,45,0
0,59,77,0
0,68,105,0
0,69,45,0
0,42,65,0
0,68,105,40
0,54,71,0
0,69,45,0
0,42,65,0
0,54,73,25
0,69,90,0
0,42,127,0
0,40,100,0
0,59,77,35
0,68,105,0
0,69,45,0
0,54,65,0
0,68,105,0
0,28,112,0
0,69,45,0
0,42,65,0
0,35,100,0
0,64,61,0
0,56,61,0
0,52,61,0
0,40,61,0
0,59,76,0
0,54,75,40
0,69,45,0
0,42,65,0
0,59,86,40
0,69,90,0
0,42,127,0
0,54,76,30
0,69,45,0
0,54,85,0
0,68,105,0
0,69,45,0
0,42,65,0
0,35,100,0
0,59,86,40
0,69,45,0
0,42,65,0
0,54,71,35
0,70,105,0
0,69,90,0
0,42,127,0
0,40,100,0
0,64,64,0
0,56,64,0
0,52,64,0
0,40,64,0
0,59,79,0
0,54,80,40
0,69,45,0
0,59,79,0
0,71,105,0
0,28,106,0
0,69,45,0
0,46,40,0
0,54,57,40
0,69,45,0
0,23,106,0
0,54,74,0
0,66,105,0
0,69,90,0
0,42,127,0
0,35,127,0
0,59,79,0
0,47,64,0
0,35,64,0
0,54,64,0
0,63,64,0
0,54,70,0
0,63,70,0
0,59,83,40
0,69,45,0
0,54,66,0
0,69,45,0
0,42,65,0
0,54,84,40
0,69,45,0
0,42,65,0
0,59,79,40
0,69,90,0
0,42,127,0
0,40,100,0
0,54,71,25
0,69,45,0
0,54,85,0
0,23,106,0
0,69,45,0
0,42,65,0
0,35,100,0
0,59,85,0
0,47,70,0
0,35,70,0
0,54,70,0
0,63,70,0
0,59,85,0
0,69,45,0
0,42,65,0
0,54,82,0
0,69,90,0
0,42,127,0
0,54,82,0
0,69,45,0
0,59,67,0
0,66,105,0
0,69,45,0
0,42,65,0
0,35,100,0
0,54,72,40
0,69,45,0
0,42,65,0
0,54,72,35
0,71,105,0
0,69,90,0
0,42,127,0
0,40,100,0
0,59,82,0
0,47,67,0
0,35,67,0
0,54,67,0
0,63,67,0
0,59,77,0
0,69,45,0
0,54,69,40
0,73,105,0
0,69,45,0
0,46,40,0
0,73,73,0
0,61,73,0
0,54,74,40
0,69,45,0
0,23,109,0
0,54,81,0
0,75,105,0
0,69,90,0
0,42,127,0
0,35,127,0
0,35,61,0
0,47,61,0
0,54,61,0
0,59,76,0
0,63,61,0
0,59,76,0
0,54,70,0
0,63,70,0
0,63,61,0
0,75,61,0
0,54,76,0
0,69,45,0
0,59,77,0
0,75,105,0
0,69,45,0
0,42,65,0
0,75,105,40
0,54,71,0
0,69,45,0
0,42,65,0
0,54,73,25
0,69,90,0
0,42,127,0
0,40,100,0
0,59,77,35
0,75,105,0
0,69,45,0
0,54,65,0
0,75,105,0
0,23,112,0
0,69,45,0
0,42,65,0
0,35,100,0
0,35,61,0
0,47,61,0
0,54,61,0
0,59,76,0
0,63,61,0
0,73,105,0
0,54,75,0
0,69,45,0
0,42,65,0
0,59,86,0
0,69,90,0
0,42,127,0
0,54,76,40
0,69,45,0
0,54,85,0
0,69,45,0
0,42,65,0
0,35,100,0
0,59,86,40
0,69,45,0
0,42,65,0
0,54,71,35
0,69,90,0
0,42,127,0
0,40,100,0
0,35,64,0
0,47,64,0
0,54,64,0
0,59,79,0
0,63,64,0
0,54,80,40
0,69,45,0
0,59,79,0
0,71,105,0
0,69,45,0
0,46,40,0
0,73,105,25
0,54,57,0
0,69,45,0
0,27,106,0
0,54,74,0
0,75,105,0
0,69,90,0
0,42,127,0
0,35,127,0
0,39,64,0
0,51,64,0
0,54,64,0
0,58,79,0
0,63,64,0
0,58,76,0
0,58,83,0
0,69,45,0
0,54,66,0
0,75,105,0
0,69,45,0
0,42,65,0
0,75,105,40
0,54,84,0
0,69,45,0
0,42,65,0
0,58,79,25
0,69,90,0
0,42,127,0
0,40,100,0
0,54,71,25
0,75,105,0
0,69,45,0
0,54,85,0
0,75,105,0
0,27,106,0
0,69,45,0
0,42,65,0
0,35,100,0
0,39,70,0
0,51,70,0
0,54,70,0
0,58,85,0
0,63,70,0
0,73,105,0
0,58,85,0
0,69,45,0
0,42,65,0
0,54,82,0
0,69,90,0
0,42,127,0
0,54,82,40
0,69,45,0
0,58,67,0
0,69,45,0
0,42,65,0
0,35,100,0
0,54,72,40
0,69,45,0
0,42,65,0
0,54,72,35
0,69,90,0
0,42,127,0
0,40,100,0
0,39,67,0
0,51,67,0
0,54,67,0
0,58,82,0
0,63,67,0
0,58,77,0
0,69,45,0
0,27,106,20
0,54,69,0
0,71,105,0
0,69,45,0
0,46,40,0
0,73,105,25
0,54,74,0
0,69,45,0
0,28,109,0
0,54,81,0
0,75,105,0
0,69,90,0
0,42,127,0
0,35,127,0
0,63,85,0
0,56,61,0
0,54,61,0
0,40,61,0
0,59,76,0
0,59,76,0
0,56,70,0
0,63,70,0
0,54,76,40
0,69,45,0
0,59,77,0
0,75,105,0
0,69,45,0
0,42,65,0
0,75,105,40
0,54,71,0
0,69,45,0
0,42,65,0
0,54,73,35
0,69,90,0
0,42,127,0
0,40,100,0
0,59,77,35
0,75,105,0
0,69,45,0
0,54,65,0
0,75,105,0
0,28,112,0
0,69,45,0
0,42,65,0
0,35,100,0
0,61,61,0
0,56,61,0
0,52,61,0
0,40,61,0
0,59,76,0
0,73,70,0
0,61,70,0
0,54,75,40
0,69,45,0
0,42,65,0
0,59,86,0
0,69,90,0
0,42,127,0
0,54,76,40
0,69,45,0
0,54,85,0
0,76,105,0
0,69,45,0
0,42,65,0
0,35,100,0
0,59,86,40
0,69,45,0
0,42,65,0
0,54,71,15
0,75,105,0
0,69,90,0
0,42,127,0
0,40,100,0
0,56,64,0
0,52,64,0
0,40,64,0
0,59,99,0
0,59,70,0
0,71,67,0
0,73,105,40
0,54,80,0
0,69,45,0
0,59,79,0
0,28,106,0
0,69,45,0
0,46,40,0
0,54,57,40
0,69,45,0
0,23,106,0
0,54,74,0
0,75,105,0
0,69,90,0
0,42,127,0
0,35,127,0
0,59,79,0
0,47,64,0
0,35,64,0
0,54,64,0
0,63,64,0
0,54,70,0
0,63,70,0
0,75,61,0
0,63,67,0
0,59,83,40
0,69,45,0
0,54,66,0
0,69,45,0
0,42,65,0
0,54,84,40
0,69,45,0
0,42,65,0
0,59,79,40
0,69,90,0
0,42,127,0
0,40,100,0
0,54,71,25
0,69,45,0
0,54,85,0
0,23,106,0
0,69,45,0
0,42,65,0
0,35,100,0
0,59,85,0
0,47,70,0
0,35,70,0
0,54,70,0
0,63,70,0
0,59,85,0
0,69,45,0
0,42,65,0
0,54,82,0
0,69,90,0
0,42,127,0
0,54,82,0
0,69,45,0
0,59,67,0
0,76,105,0
0,69,45,0
0,42,65,0
0,35,100,0
0,54,72,40
0,69,45,0
0,42,65,0
0,54,72,0
0,75,105,0
0,69,90,0
0,42,127,0
0,40,100,0
0,59,82,0
0,47,67,0
0,35,67,0
0,54,67,0
0,63,67,0
0,59,77,0
0,69,45,0
0,34,96,0
0,54,69,0
0,73,105,0
0,69,45,0
0,46,40,0
0,54,74,40
0,69,45,0
0,32,109,0
0,71,105,0
0,69,90,0
0,49,70,0
0,35,127,0
0,56,61,0
0,44,61,0
0,59,76,0
0,63,61,0
0,56,70,0
0,59,76,0
0,63,70,0
0,63,73,0
0,83,73,0
0,83,127,0
0,69,45,60
0,71,105,60
0,69,45,0
0,42,65,0
0,71,105,60
0,69,45,0
0,42,65,0
0,69,90,60
0,42,127,0
0,40,100,0
0,71,105,35
0,69,45,0
0,32,112,35
0,71,105,0
0,69,45,0
0,42,65,0
0,35,100,0
0,56,61,0
0,44,61,0
0,59,76,0
0,63,61,0
0,69,45,60
0,42,65,0
0,69,90,0
0,42,127,0
0,69,45,60
0,71,105,60
0,69,45,0
0,42,65,0
0,35,100,0
0,69,45,60
0,42,65,0
0,73,105,35
0,69,90,0
0,42,127,0
0,40,100,0
0,56,64,0
0,44,64,0
0,59,79,0
0,63,64,0
0,75,105,0
0,69,45,0
0,32,106,10
0,69,45,0
0,46,40,0
0,69,45,60
0,30,106,0
0,70,105,0
0,69,90,0
0,42,127,0
0,35,127,0
0,42,64,0
0,54,64,0
0,58,79,0
0,63,64,0
0,58,70,0
0,82,127,0
0,82,76,0
0,69,45,20
0,70,105,60
0,69,45,0
0,42,65,0
0,70,105,60
0,69,45,0
0,42,65,0
0,35,100,0
0,69,90,60
0,42,127,0
0,40,100,0
0,69,45,25
0,30,106,35
0,70,105,0
0,69,45,0
0,42,65,0
0,35,100,0
0,42,70,0
0,54,70,0
0,58,85,0
0,63,70,0
0,69,45,60
0,42,65,0
0,70,105,0
0,69,90,0
0,42,127,0
0,78,79,0
0,69,45,20
0,66,105,60
0,69,45,0
0,42,65,0
0,35,100,0
0,69,45,60
0,42,65,0
0,69,90,35
0,42,127,0
0,40,100,0
0,42,67,0
0,54,67,0
0,58,82,0
0,63,67,0
0,69,45,0
