track,note,velocity,time
1,31,127,432
1,36,127,0
1,40,127,6
1,38,127,6
1,43,115,80
1,43,95,98
1,43,91,56
1,40,87,100
1,40,103,108
1,40,85,30
1,40,97,0
1,38,107,288
1,36,111,456
1,36,91,24
1,36,107,24
1,35,107,26
1,33,107,26
1,33,95,16
1,38,111,14
1,43,99,0
1,43,91,82
1,42,119,12
1,40,123,24
1,40,117,68
1,38,111,0
1,38,112,40
1,36,111,0
1,36,107,32
1,33,97,24
1,38,103,24
1,36,107,288
1,38,117,360
1,45,100,78
1,43,114,16
1,43,97,8
1,43,112,40
1,43,94,24
1,43,107,32
1,43,91,12
1,43,112,40
1,38,91,40
1,36,127,16
1,38,127,20
1,31,123,32
1,40,127,768
1,36,127,30
1,38,127,768
1,31,127,16
1,40,127,768
1,36,127,2
1,35,127,70
1,40,127,768
1,38,127,16
1,36,127,8
1,38,127,768
1,36,127,756
1,36,127,146
1,38,127,384
1,31,127,788
1,43,115,22
1,43,95,98
1,43,91,56
1,40,87,100
1,40,103,108
1,40,85,30
1,40,97,0
1,38,107,288
1,36,111,456
1,36,91,24
1,36,107,24
1,35,107,26
1,33,107,26
1,33,95,16
1,38,111,14
1,43,99,0
1,43,91,82
1,42,119,12
1,40,123,24
1,40,117,68
1,38,111,0
1,38,112,40
1,36,111,0
1,36,107,32
1,33,97,24
1,38,103,24
1,36,107,288
1,38,117,360
1,45,100,78
1,43,114,16
1,43,97,8
1,43,112,40
1,43,94,24
1,43,107,32
1,43,91,12
1,43,112,40
1,38,91,40
1,36,127,16
1,38,127,20
1,31,123,32
1,40,127,768
1,36,127,30
1,38,127,768
1,31,127,16
1,40,127,768
1,36,127,2
1,35,127,70
1,40,127,768
1,38,127,16
1,36,127,8
1,38,127,768
1,36,127,756
1,36,127,146
1,38,127,384
1,31,127,766
1,43,127,384
1,38,114,354
1,31,127,48
1,43,115,80
1,38,111,76
1,31,127,18
1,43,127,74
1,38,111,58
1,31,123,6
1,36,127,0
1,38,127,20
1,31,123,32
1,40,127,768
1,36,127,30
1,38,127,768
1,31,127,16
1,40,127,768
1,36,127,2
1,35,127,70
1,40,127,768
1,38,127,16
1,36,127,8
1,38,127,768
1,36,127,756
1,36,127,1530
1,38,127,20
1,31,123,32
1,40,127,768
1,36,127,30
1,38,127,768
1,31,127,16
1,40,127,768
1,36,127,2
1,35,127,70
1,40,127,768
1,38,127,16
1,36,127,8
1,38,127,768
1,36,127,756
1,36,127,146
1,38,127,384
1,31,127,766
1,36,127,0
1,40,127,6
1,38,127,6
2,50,78,442
2,62,82,0
2,43,70,0
2,59,82,0
2,55,82,0
2,59,78,70
2,64,78,2
2,55,62,2
2,48,54,8
2,52,70,2
2,67,62,16
2,59,66,2
2,64,70,4
2,55,62,2
2,52,62,6
2,69,46,38
2,66,26,4
2,50,70,2
2,57,82,0
2,62,82,0
2,64,65,1152
2,52,73,0
2,50,65,768
2,62,65,0
2,54,69,6
2,66,65,0
2,55,65,382
2,67,49,0
2,64,69,96
2,52,65,0
2,62,64,8
2,50,64,0
2,60,45,2116
2,52,45,0
2,64,45,0
2,54,67,0
2,62,67,0
2,66,67,0
2,67,41,28
2,59,41,2
2,62,41,0
2,50,41,4
2,55,41,2
2,43,42,2
2,64,26,1152
2,52,26,0
2,50,33,768
2,62,33,0
2,54,36,6
2,66,36,0
2,55,39,382
2,67,39,0
2,64,51,96
2,52,51,0
2,62,57,8
2,50,57,0
2,64,52,2116
2,60,52,0
2,52,52,0
2,54,64,384
2,62,64,0
2,66,64,0
2,64,48,7776
2,52,48,0
2,50,53,768
2,62,53,0
2,54,55,6
2,66,55,0
2,55,58,382
2,67,58,0
2,64,67,96
2,52,67,0
2,62,72,8
2,50,72,0
2,64,66,1732
2,55,66,0
2,60,66,0
2,62,67,750
2,66,68,2
2,57,68,2
2,59,79,4
2,55,79,0
2,67,79,0
2,66,46,592
2,64,75,22
2,52,75,0
2,55,84,28
2,60,84,2
2,64,83,2
2,66,73,760
2,62,73,2
2,57,73,0
2,62,83,0
2,59,83,0
2,67,83,4
2,55,83,2
2,64,69,70
2,59,69,2
2,52,69,6
2,64,80,4
2,52,80,0
2,50,66,768
2,62,66,0
2,54,78,6
2,66,78,0
2,55,90,382
2,67,90,0
2,64,59,96
2,52,59,0
2,62,73,8
2,50,73,0
2,64,48,2116
2,60,48,0
2,52,48,0
2,54,69,384
2,62,69,0
2,66,69,0
2,50,47,14
2,62,47,0
2,43,47,0
2,59,47,0
2,55,47,0
2,59,45,70
2,64,45,2
2,55,45,2
2,48,45,8
2,52,45,2
2,67,43,16
2,59,43,2
2,64,43,4
2,55,43,2
2,52,43,6
2,69,41,38
2,66,41,4
2,50,41,2
2,57,41,0
2,62,36,0
2,62,36,6
2,67,50,2
2,59,33,2
2,55,33,0
3,59,73,6424
3,60,79,16
3,62,93,16
3,62,70,24
3,62,87,8
3,62,70,24
3,62,89,40
3,62,87,28
3,62,93,8
3,62,90,32
3,62,93,8
3,59,65,192
3,59,81,210
3,62,82,0
3,67,85,96
3,67,89,1662
3,67,97,30
3,64,77,38
3,64,79,1648
3,66,82,102
3,67,84,4
3,71,96,92
3,69,77,18
3,66,81,92
3,64,81,24
3,62,85,96
3,62,76,664
3,64,90,96
3,66,82,230
3,67,96,14
3,64,93,864
3,66,90,96
3,67,87,70
3,69,93,80
3,64,79,8
3,66,77,90
3,64,93,2
3,66,81,0
3,67,89,0
3,69,93,12
3,69,76,12
3,69,87,0
3,69,73,16
3,69,84,8
3,67,85,204
3,71,77,50
3,69,77,148
3,67,85,72
3,74,101,2184
3,74,97,50
3,72,93,58
3,71,97,58
3,67,85,4
3,69,85,760
3,69,93,28
3,69,97,52
3,71,89,26
3,67,93,2
3,74,101,348
3,74,97,38
3,72,93,46
3,71,93,50
3,67,97,0
3,76,97,4
3,74,97,10
3,72,89,236
3,71,97,0
3,69,93,76
3,71,89,104
3,71,84,24
3,74,101,298
3,74,97,66
3,72,89,32
3,71,93,50
3,67,89,0
3,71,93,56
3,69,89,12
3,69,93,56
3,71,85,96
3,67,85,62
3,74,89,486
3,74,97,46
3,72,93,40
3,71,89,56
3,67,93,238
3,76,97,406
3,74,101,270
3,72,89,72
3,71,81,18
3,72,97,32
3,71,89,0
3,72,93,46
3,71,89,192
3,72,85,62
3,71,79,184
3,74,90,224
3,74,81,34
3,72,85,24
3,71,85,24
3,67,89,96
3,72,101,3074
3,72,97,20
3,71,82,144
3,67,76,12
3,59,80,1616
3,60,86,16
3,62,100,16
3,62,77,24
3,62,94,8
3,62,77,24
3,62,96,40
3,62,94,28
3,62,100,8
3,62,97,32
3,62,100,8
3,59,72,192
3,59,88,210
3,62,89,0
3,67,92,96
3,67,96,1662
3,67,104,30
3,64,84,38
3,64,86,1648
3,66,89,102
3,67,91,4
3,71,103,92
3,69,84,18
3,66,88,92
3,64,88,24
3,62,92,96
3,62,83,664
3,64,97,96
3,66,89,230
3,67,103,14
3,64,100,864
3,66,97,96
3,67,94,70
3,69,100,80
3,64,86,8
3,66,84,90
3,64,100,2
3,66,88,0
3,67,96,0
3,69,100,12
3,69,83,12
3,69,94,0
3,69,80,16
3,69,91,8
3,67,92,204
3,71,84,50
3,69,84,148
3,67,92,72
3,74,108,2184
3,74,104,50
3,72,100,58
3,71,104,58
3,67,92,4
3,69,92,760
3,69,100,28
3,69,104,52
3,71,96,26
3,67,100,2
3,74,108,348
3,74,104,38
3,72,100,46
3,71,100,50
3,67,104,0
3,76,104,4
3,74,104,10
3,72,96,236
3,71,104,0
3,69,100,76
3,71,96,104
3,71,91,24
3,74,108,298
3,74,104,66
3,72,96,32
3,71,100,50
3,67,96,0
3,71,100,56
3,69,96,12
3,69,100,56
3,71,92,96
3,67,92,62
3,74,96,486
3,74,104,46
3,72,100,40
3,71,96,56
3,67,100,238
3,76,104,406
3,74,108,270
3,72,96,72
3,71,88,18
3,72,104,32
3,71,96,0
3,72,100,46
3,71,96,192
3,72,92,62
3,71,86,184
3,74,97,224
3,74,88,34
3,72,92,24
3,71,92,24
3,67,96,96
3,72,108,3074
3,72,104,20
3,71,89,144
3,67,83,12
3,69,99,1800
3,69,103,52
3,71,91,110
3,67,103,2
3,72,95,2044
3,71,91,0
3,69,85,112
3,71,79,128
3,71,91,18
3,74,107,534
3,74,103,66
3,72,95,32
3,71,99,50
3,67,95,0
3,71,99,56
3,69,95,12
3,69,99,56
3,71,91,96
3,67,91,62
3,74,95,486
3,74,103,46
3,72,99,40
3,71,95,56
3,67,99,238
3,76,103,406
3,74,107,270
3,72,95,72
3,71,87,18
3,72,103,32
3,71,95,0
3,72,99,46
3,71,95,192
3,72,91,62
3,71,85,184
3,74,107,214
3,74,103,50
3,72,99,58
3,71,103,58
3,67,91,4
3,69,91,760
3,69,99,28
3,69,103,52
3,71,95,26
3,67,99,2
3,74,103,342
3,74,99,18
3,74,79,8
3,74,79,20
3,72,99,92
3,72,99,18
3,71,103,0
3,71,95,6
3,67,99,266
3,67,103,2
3,76,99,2
3,76,99,0
3,74,87,368
3,74,91,8
3,72,87,74
3,72,87,32
3,69,83,178
3,71,79,122
3,74,107,432
3,74,103,66
3,72,95,32
3,71,99,50
3,67,95,0
3,71,99,56
3,69,95,12
3,69,99,56
3,71,91,96
3,67,91,62
3,74,95,486
3,74,103,46
3,72,99,40
3,71,95,56
3,67,99,238
3,76,103,406
3,74,107,270
3,72,95,72
3,71,87,18
3,72,103,32
3,71,95,0
3,72,99,46
3,71,95,192
3,72,91,62
3,71,85,184
3,74,96,224
3,74,87,34
3,72,91,24
3,71,91,24
3,67,95,96
3,72,107,3074
3,72,103,20
3,71,88,144
3,67,82,12
4,59,32,363
4,43,52,0
4,50,52,0
4,55,28,2
4,48,4,1532
4,52,44,0
4,64,36,4
4,59,16,0
4,52,48,4
4,57,1,1544
4,50,40,4
4,66,40,4
4,62,28,0
4,55,46,40
4,50,30,0
4,43,38,0
4,52,50,6
4,40,46,10
4,67,105,0
4,47,23,8
4,66,95,276
4,59,90,284
4,64,102,190
4,62,91,234
4,55,99,260
4,71,82,184
4,47,58,0
4,59,62,0
4,69,93,2
4,67,95,10
4,60,50,14
4,48,62,4
4,64,95,12
4,59,66,1126
4,47,58,12
4,55,55,42
4,57,54,180
4,45,50,8
4,57,63,4
4,43,6,134
4,55,38,0
4,50,6,4
4,62,99,960
4,54,62,186
4,42,66,4
4,64,103,2
4,66,105,206
4,55,54,126
4,67,108,2
4,43,46,0
4,66,96,268
4,59,91,246
4,76,73,0
4,64,79,8
4,62,79,0
4,74,79,0
4,67,88,360
4,55,88,0
4,60,34,92
4,57,70,4
4,48,34,2
4,69,70,6
4,59,34,1272
4,47,1,0
4,57,58,0
4,45,50,0
4,51,14,8
4,55,42,0
4,52,50,2
4,43,42,4
4,57,54,40
4,45,38,4
4,55,50,332
4,43,26,2
4,50,42,12
4,64,91,198
4,52,91,0
4,66,88,0
4,54,88,0
4,55,91,0
4,67,91,0
4,62,122,0
4,50,122,0
4,52,122,192
4,64,122,0
4,64,88,56
4,52,91,0
4,62,94,0
4,50,97,0
4,67,122,1088
4,55,122,8
4,54,122,224
4,66,122,0
4,64,122,4
4,52,122,0
4,62,122,366
4,50,122,0
4,48,122,6
4,60,122,0
4,62,122,768
4,59,122,0
4,47,122,0
4,50,122,30
4,66,119,0
4,62,111,0
4,67,122,70
4,64,122,0
4,55,122,0
4,54,122,170
4,62,122,0
4,66,122,0
4,59,122,14
4,50,122,0
4,62,122,0
4,55,122,6
4,67,122,0
4,64,122,0
4,54,122,62
4,62,122,0
4,66,122,0
4,59,122,40
4,62,122,0
4,50,122,0
4,64,87,26
4,52,120,8
4,54,106,8
4,57,106,0
4,62,106,0
4,72,113,24
4,60,122,0
4,71,107,10
4,59,122,0
4,72,108,62
4,60,122,8
4,71,107,10
4,59,122,8
4,60,122,60
4,72,108,8
4,71,105,10
4,59,122,8
4,62,122,54
4,59,122,216
4,55,122,118
4,52,98,8
4,48,100,0
4,54,100,48
4,50,106,0
4,57,106,8
4,55,75,3968
4,50,59,0
4,43,67,0
4,71,27,0
4,69,100,1508
4,67,94,0
4,79,102,0
4,52,79,6
4,40,75,10
4,47,52,8
4,78,98,248
4,71,93,284
4,76,102,190
4,74,94,234
4,67,102,260
4,71,93,184
4,47,87,0
4,59,91,0
4,69,104,2
4,67,106,10
4,64,106,4
4,60,79,10
4,48,91,4
4,62,93,0
4,59,95,22
4,47,87,12
4,60,87,0
4,57,83,16
4,45,79,8
4,43,35,134
4,55,67,0
4,50,35,4
4,74,76,932
4,62,76,0
4,76,76,192
4,64,76,0
4,54,91,22
4,42,95,4
4,78,73,0
4,66,110,8
4,79,81,0
4,67,81,0
4,55,83,18
4,43,75,6
4,78,76,0
4,66,76,0
4,71,70,0
4,59,70,0
4,76,84,0
4,64,90,8
4,62,90,0
4,74,90,0
4,67,99,360
4,55,99,0
4,57,81,96
4,69,81,8
4,60,63,16
4,48,63,6
4,59,63,1300
4,47,24,0
4,57,87,20
4,45,79,8
4,51,43,8
4,55,71,0
4,52,79,2
4,43,71,4
4,74,71,28
4,57,83,12
4,45,67,4
4,79,71,304
4,55,79,28
4,43,55,2
4,50,71,8
4,64,91,76
4,52,91,0
4,66,79,0
4,54,79,0
4,55,82,0
4,67,82,0
4,62,122,0
4,50,122,0
4,52,122,192
4,64,120,0
4,64,79,56
4,52,82,0
4,62,85,0
4,50,88,0
4,67,122,1088
4,55,122,8
4,54,122,224
4,66,122,0
4,64,122,4
4,52,122,0
4,62,122,366
4,50,122,0
4,48,122,6
4,60,122,0
4,71,118,768
4,62,118,0
4,59,118,0
4,74,118,30
4,66,110,0
4,62,102,0
4,79,122,54
4,67,122,16
4,64,122,0
4,78,122,170
4,62,122,0
4,66,122,0
4,74,122,14
4,59,122,0
4,62,122,0
4,76,122,6
4,67,122,0
4,74,122,272
4,66,122,0
4,71,122,40
4,62,122,0
4,67,108,26
4,64,108,0
4,66,97,48
4,57,97,0
4,62,97,0
4,72,117,48
4,60,117,0
4,71,122,10
4,59,122,0
4,72,99,62
4,60,122,8
4,71,98,10
4,59,122,8
4,60,122,60
4,72,99,8
4,71,96,10
4,59,122,8
4,62,122,54
4,59,122,216
4,55,122,118
4,52,89,8
4,48,91,0
4,54,91,48
4,50,97,0
4,57,97,8
4,64,91,2432
4,52,91,0
4,66,79,738
4,54,79,0
4,55,82,0
4,67,82,0
4,62,122,0
4,50,122,0
4,52,122,192
4,64,120,0
4,64,79,56
4,52,82,0
4,62,85,0
4,50,88,0
4,67,122,1088
4,55,122,8
4,54,122,224
4,66,122,0
4,64,122,4
4,52,122,0
4,62,122,366
4,50,122,0
4,48,122,6
4,60,122,0
4,71,118,768
4,62,118,0
4,59,118,0
4,74,118,30
4,66,110,0
4,62,102,0
4,79,122,54
4,67,122,16
4,64,122,0
4,78,122,170
4,62,122,0
4,66,122,0
4,74,122,14
4,59,122,0
4,62,122,0
4,76,122,6
4,67,122,0
4,74,122,272
4,66,122,0
4,71,122,40
4,62,122,0
4,67,108,26
4,64,108,0
4,66,97,48
4,57,97,0
4,62,97,0
4,72,117,48
4,60,117,0
4,71,122,10
4,59,122,0
4,72,99,62
4,60,122,8
4,71,98,10
4,59,122,8
4,60,122,60
4,72,99,8
4,71,96,10
4,59,122,8
4,64,91,700
4,52,91,0
4,66,79,0
4,54,79,0
4,55,82,0
4,67,82,0
4,62,122,0
4,50,122,0
4,52,122,192
4,64,120,0
4,64,79,56
4,52,82,0
4,62,85,0
4,50,88,0
4,67,122,1088
4,55,122,8
4,54,122,224
4,66,122,0
4,64,122,4
4,52,122,0
4,62,122,366
4,50,122,0
4,48,122,6
4,60,122,0
4,71,118,768
4,62,118,0
4,59,118,0
4,74,118,30
4,66,110,0
4,62,102,0
4,79,122,54
4,67,122,16
4,64,122,0
4,78,122,170
4,62,122,0
4,66,122,0
4,74,122,14
4,59,122,0
4,62,122,0
4,76,122,6
4,67,122,0
4,74,122,272
4,66,122,0
