track,note,velocity,time
1,49,56,528
1,44,63,4
1,49,62,2
1,44,58,2
1,49,61,4
1,47,59,14
1,46,62,2
1,45,61,2
1,45,48,28
1,49,59,2
1,47,60,2
1,46,62,4
1,45,61,2
1,45,48,28
1,49,59,2
1,47,60,2
1,46,62,4
1,45,61,2
1,45,48,28
1,49,59,2
1,47,60,2
1,46,62,4
1,45,61,2
1,45,48,28
1,49,59,2
1,44,59,24
1,48,59,24
1,30,59,24
1,35,59,24
1,32,72,24
1,32,79,4
1,33,78,44
1,33,77,2
1,37,77,84
1,39,74,84
1,32,72,6
1,32,79,4
1,33,78,44
1,37,77,12
1,39,74,84
1,32,75,6
1,33,75,12
1,37,77,12
1,39,74,84
1,56,89,6
1,52,74,2
1,52,64,30
1,52,61,128
1,52,76,424
1,52,70,14
1,52,64,128
1,52,61,128
1,37,80,424
1,35,78,14
1,34,81,2
1,34,75,30
1,33,80,2
1,37,78,28
1,35,79,2
1,34,81,4
1,33,80,2
1,37,78,12
1,35,79,2
1,34,81,4
1,33,80,2
1,37,78,28
1,35,79,2
1,34,80,4
1,34,76,28
1,33,81,2
1,37,78,2
1,37,70,24
1,44,74,2
1,44,68,24
1,32,78,2
1,30,78,24
1,30,70,24
1,35,78,2
1,32,74,24
1,32,81,4
1,33,80,44
1,33,79,2
1,37,79,84
1,39,76,84
1,32,74,6
1,32,81,4
1,33,80,44
1,33,79,2
1,37,79,84
1,39,76,84
1,32,74,6
1,32,81,4
1,33,80,44
1,33,79,2
1,37,79,84
1,39,76,84
1,37,84,6
1,35,82,14
1,34,85,2
1,34,79,30
1,33,84,2
1,37,82,28
1,35,83,2
1,34,85,4
1,33,84,2
1,37,82,12
1,35,83,2
1,34,85,4
1,33,84,2
1,37,82,28
1,35,83,2
1,34,84,4
1,34,80,28
1,33,85,2
1,37,82,2
1,37,74,24
1,44,78,2
1,44,72,24
1,32,82,2
1,30,82,24
1,30,74,24
1,35,82,2
1,32,78,24
1,32,85,4
1,33,84,44
1,33,83,2
1,37,83,84
1,39,80,84
1,32,78,6
1,32,85,4
1,33,84,44
1,33,83,2
1,37,83,84
1,39,80,84
1,32,78,6
1,32,85,4
1,33,84,44
1,33,83,2
1,37,83,84
1,39,80,84
1,52,80,6
1,52,70,30
1,52,67,128
1,52,82,424
1,52,76,14
1,52,70,128
1,52,67,128
1,32,79,424
1,32,86,4
1,33,85,44
1,33,84,2
1,37,84,84
1,39,81,84
1,32,79,6
1,32,86,4
1,33,85,44
1,33,84,2
1,37,84,84
1,39,81,84
1,32,79,6
1,32,86,4
1,33,85,44
1,33,84,2
1,37,84,84
1,39,81,84
1,52,81,6
1,52,71,30
1,52,68,128
1,52,83,424
1,52,77,14
1,52,71,128
1,52,68,128
1,40,83,424
2,56,76,590
2,61,76,0
2,64,76,0
2,64,76,84
2,68,74,0
2,56,76,2
2,61,76,0
2,56,75,84
2,61,75,0
2,64,76,2
2,68,75,4
2,64,77,68
2,68,74,2
2,56,76,4
2,61,76,0
2,56,76,80
2,61,76,0
2,68,74,0
2,64,76,2
2,56,75,82
2,61,75,0
2,64,76,0
2,68,75,0
2,68,73,76
2,56,76,2
2,61,76,0
2,64,76,2
2,56,75,82
2,61,75,0
2,68,74,2
2,64,75,2
2,68,73,102
2,64,75,2
2,56,74,2
2,61,74,0
2,68,70,76
2,64,75,4
2,56,75,2
2,61,75,0
2,56,75,92
2,61,75,0
2,68,72,2
2,64,77,2
2,68,73,104
2,64,76,2
2,56,75,6
2,61,75,0
2,58,69,94
2,68,70,4
2,61,73,2
2,64,72,4
2,68,74,94
2,61,76,2
2,58,72,2
2,64,77,2
2,57,74,82
2,64,71,2
2,66,76,0
2,61,74,4
2,61,77,90
2,64,70,2
2,66,76,0
2,57,76,2
2,68,71,92
2,64,74,2
2,56,74,8
2,61,74,0
2,64,75,84
2,68,74,0
2,56,75,4
2,61,75,0
2,64,76,88
2,56,76,2
2,61,76,0
2,68,75,0
2,64,75,72
2,56,74,2
2,61,74,0
2,68,74,0
2,58,69,88
2,68,70,4
2,61,73,2
2,64,72,4
2,68,74,94
2,61,76,2
2,58,72,2
2,64,77,2
2,57,74,82
2,64,71,2
2,66,76,0
2,61,74,4
2,61,77,90
2,64,70,2
2,66,76,0
2,57,76,2
2,68,71,92
2,64,74,2
2,56,74,8
2,61,74,0
2,64,75,84
2,68,74,0
2,56,75,4
2,61,75,0
2,64,76,88
2,56,76,2
2,61,76,0
2,68,75,0
2,64,75,72
2,56,74,2
2,61,74,0
2,68,74,0
2,58,69,88
2,68,70,4
2,61,73,2
2,64,72,4
2,68,74,94
2,61,76,2
2,58,72,2
2,64,77,2
2,57,74,82
2,64,71,2
2,66,76,0
2,61,74,4
2,61,77,90
2,64,70,2
2,66,76,0
2,57,76,2
2,68,71,92
2,64,74,2
2,56,74,8
2,61,74,0
2,64,75,84
2,68,74,0
2,56,75,4
2,61,75,0
2,64,76,88
2,56,76,2
2,61,76,0
2,68,75,0
2,64,75,72
2,56,74,2
2,61,74,0
2,68,74,0
2,58,69,88
2,68,70,4
2,61,73,2
2,64,72,4
2,68,74,94
2,61,76,2
2,58,72,2
2,64,77,2
2,57,74,82
2,64,71,2
2,66,76,0
2,61,74,4
2,61,77,90
2,64,70,2
2,66,76,0
2,57,76,2
2,68,71,92
2,64,74,2
2,56,74,8
2,61,74,0
2,64,75,84
2,68,74,0
2,56,75,4
2,61,75,0
2,64,76,88
2,56,76,2
2,61,76,0
2,68,75,0
2,64,75,72
2,56,74,2
2,61,74,0
2,68,74,0
2,56,69,88
2,68,70,4
2,60,73,2
2,64,72,4
2,68,74,94
2,60,76,2
2,56,72,2
2,64,77,2
2,56,74,82
2,63,71,2
2,68,76,0
2,60,74,4
2,60,77,90
2,63,70,2
2,68,76,0
2,56,76,2
2,68,71,92
2,64,74,2
2,57,74,8
2,61,74,0
2,64,75,84
2,68,74,0
2,57,75,4
2,61,75,0
2,64,76,88
2,57,76,2
2,61,76,0
2,68,75,0
2,64,75,72
2,57,74,2
2,61,74,0
2,68,74,0
2,68,71,98
2,64,74,2
2,57,74,8
2,61,74,0
2,64,75,84
2,68,74,0
2,57,75,4
2,61,75,0
2,64,76,88
2,57,76,2
2,61,76,0
2,68,75,0
2,63,75,72
2,57,74,2
2,59,70,0
2,66,74,0
2,56,81,102
2,59,81,0
2,63,81,0
2,68,81,0
2,63,81,84
2,68,79,0
2,56,81,2
2,59,81,0
2,57,80,84
2,61,80,0
2,64,81,2
2,68,80,4
2,64,73,68
2,68,71,2
2,57,72,4
2,61,71,0
2,64,77,82
2,57,77,6
2,61,76,0
2,61,80,82
2,64,81,0
2,68,76,0
2,69,76,76
2,61,81,2
2,63,81,0
2,66,81,2
2,61,70,82
2,63,72,0
2,69,69,2
2,66,69,2
2,56,81,110
2,59,81,0
2,63,81,0
2,68,81,0
2,63,81,84
2,68,79,0
2,56,81,2
2,59,81,0
2,57,80,84
2,61,80,0
2,64,81,2
2,68,80,4
2,64,73,68
2,68,71,2
2,57,72,4
2,61,71,0
2,64,77,82
2,57,77,6
2,61,76,0
2,61,80,82
2,64,81,0
2,68,76,0
2,69,76,76
2,61,81,2
2,63,81,0
2,66,81,2
2,61,70,82
2,63,72,0
2,69,69,2
2,66,69,2
2,56,81,110
2,59,81,0
2,63,81,0
2,68,81,0
2,63,81,84
2,68,79,0
2,56,81,2
2,59,81,0
2,57,80,84
2,61,80,0
2,64,81,2
2,68,80,4
2,64,73,68
2,68,71,2
2,57,72,4
2,61,71,0
2,64,77,82
2,57,77,6
2,61,76,0
2,61,80,82
2,64,81,0
2,68,76,0
2,69,76,76
2,61,81,2
2,63,81,0
2,66,81,2
2,61,70,82
2,63,72,0
2,69,69,2
2,66,69,2
2,68,79,106
2,64,79,2
2,59,79,8
2,64,72,84
2,68,72,0
2,59,71,4
2,64,81,14
2,58,81,2
2,61,81,0
2,68,80,0
2,68,82,12
2,64,79,2
2,59,79,8
2,64,81,14
2,58,81,2
2,68,80,0
2,68,75,14
2,56,80,2
2,64,80,0
2,61,80,2
2,68,75,96
2,64,80,4
2,56,80,2
2,61,80,0
2,56,80,92
2,61,80,0
2,68,77,2
2,64,82,2
2,68,78,104
2,64,81,2
2,56,80,6
2,61,80,0
2,58,74,94
2,68,75,4
2,61,78,2
2,64,77,4
2,68,79,94
2,61,81,2
2,58,77,2
2,64,82,2
2,57,79,82
2,64,76,2
2,66,81,0
2,61,79,4
2,61,82,90
2,64,75,2
2,66,81,0
2,57,81,2
2,68,76,92
2,64,79,2
2,56,79,8
2,61,79,0
2,64,80,84
2,68,79,0
2,56,80,4
2,61,80,0
2,64,81,88
2,56,81,2
2,61,81,0
2,68,80,0
2,64,80,72
2,56,79,2
2,61,79,0
2,68,79,0
2,58,74,88
2,68,75,4
2,61,78,2
2,64,77,4
2,68,79,94
2,61,81,2
2,58,77,2
2,64,82,2
2,57,79,82
2,64,76,2
2,66,81,0
2,61,79,4
2,61,82,90
2,64,75,2
2,66,81,0
2,57,81,2
2,68,76,92
2,64,79,2
2,56,79,8
2,61,79,0
2,64,80,84
2,68,79,0
2,56,80,4
2,61,80,0
2,64,81,88
2,56,81,2
2,61,81,0
2,68,80,0
2,64,80,72
2,56,79,2
2,61,79,0
2,68,79,0
2,58,74,88
2,68,75,4
2,61,78,2
2,64,77,4
2,68,79,94
2,61,81,2
2,58,77,2
2,64,82,2
2,57,79,82
2,64,76,2
2,66,81,0
2,61,79,4
2,61,82,90
2,64,75,2
2,66,81,0
2,57,81,2
2,68,76,92
2,64,79,2
2,56,79,8
2,61,79,0
2,64,80,84
2,68,79,0
2,56,80,4
2,61,80,0
2,64,81,88
2,56,81,2
2,61,81,0
2,68,80,0
2,64,80,72
2,56,79,2
2,61,79,0
2,68,79,0
2,58,74,88
2,68,75,4
2,61,78,2
2,64,77,4
2,68,79,94
2,61,81,2
2,58,77,2
2,64,82,2
2,57,79,82
2,64,76,2
2,66,81,0
2,61,79,4
2,61,82,90
2,64,75,2
2,66,81,0
2,57,81,2
2,68,76,92
2,64,79,2
2,56,79,8
2,61,79,0
2,64,80,84
2,68,79,0
2,56,80,4
2,61,80,0
2,64,81,88
2,56,81,2
2,61,81,0
2,68,80,0
2,64,80,72
2,56,79,2
2,61,79,0
2,68,79,0
2,56,74,88
2,68,75,4
2,60,78,2
2,64,77,4
2,68,79,94
2,60,81,2
2,56,77,2
2,64,82,2
2,56,79,82
2,63,76,2
2,68,81,0
2,60,79,4
2,60,82,90
2,63,75,2
2,68,81,0
2,56,81,2
2,68,76,92
2,64,79,2
2,57,79,8
2,61,79,0
2,64,80,84
2,68,79,0
2,57,80,4
2,61,80,0
2,64,81,88
2,57,81,2
2,61,81,0
2,68,80,0
2,64,80,72
2,57,79,2
2,61,79,0
2,68,79,0
2,68,76,98
2,64,79,2
2,57,79,8
2,61,79,0
2,64,80,84
2,68,79,0
2,57,80,4
2,61,80,0
2,64,81,88
2,57,81,2
2,61,81,0
2,68,80,0
2,63,80,72
2,57,79,2
2,59,75,0
2,66,79,0
2,56,83,102
2,59,83,0
2,63,83,0
2,68,83,0
2,63,83,84
2,68,81,0
2,56,83,2
2,59,83,0
2,57,82,84
2,61,82,0
2,64,83,2
2,69,82,4
2,64,75,68
2,69,73,2
2,57,74,4
2,61,73,0
2,64,79,82
2,57,79,6
2,61,78,0
2,61,82,82
2,64,83,0
2,68,78,0
2,69,78,76
2,61,83,2
2,63,83,0
2,66,83,2
2,61,72,82
2,63,74,0
2,69,71,2
2,66,71,2
2,56,83,110
2,59,83,0
2,63,83,0
2,68,83,0
2,63,83,84
2,68,81,0
2,56,83,2
2,59,83,0
2,57,82,84
2,61,82,0
2,64,83,2
2,68,82,4
2,64,75,68
2,68,73,2
2,57,74,4
2,61,73,0
2,64,79,82
2,57,79,6
2,61,78,0
2,61,82,82
2,64,83,0
2,68,78,0
2,69,78,76
2,61,83,2
2,63,83,0
2,66,83,2
2,61,72,82
2,63,74,0
2,69,71,2
2,66,71,2
2,56,83,110
2,59,83,0
2,63,83,0
2,68,83,0
2,63,83,84
2,68,81,0
2,56,83,2
2,59,83,0
2,57,82,84
2,61,82,0
2,64,83,2
2,68,82,4
2,64,75,68
2,68,73,2
2,57,74,4
2,61,73,0
2,64,79,82
2,57,79,6
2,61,78,0
2,61,82,82
2,64,83,0
2,68,78,0
2,71,78,76
2,59,83,2
2,63,83,0
2,66,83,2
2,59,72,82
2,63,74,0
2,71,71,2
2,66,71,2
2,68,79,108
2,64,84,2
2,61,84,2
2,58,78,88
2,68,79,4
2,61,82,2
2,64,81,4
2,57,83,90
2,64,80,2
2,66,85,0
2,61,83,4
2,68,79,116
2,64,84,2
2,61,84,2
2,58,78,88
2,68,79,4
2,61,82,2
2,64,81,4
2,57,83,90
2,64,80,2
2,66,85,0
2,61,83,4
2,68,80,114
2,64,83,2
2,61,83,8
2,64,84,84
2,68,83,0
2,61,84,4
2,64,85,88
2,61,85,2
2,68,84,0
2,64,84,72
2,61,83,2
2,68,83,0
2,58,78,88
2,61,82,6
2,64,81,4
2,61,85,96
2,58,81,2
2,64,86,2
2,57,83,82
2,66,85,2
2,61,83,4
2,61,86,90
2,66,85,2
2,57,85,2
2,68,80,92
2,64,83,2
2,61,83,8
2,64,84,84
2,68,83,0
2,61,84,4
2,64,85,88
2,61,85,2
2,68,84,0
2,64,84,72
2,61,83,2
2,68,83,0
2,58,78,88
2,61,82,6
2,64,81,4
2,61,85,96
2,58,81,2
2,64,86,2
2,57,83,82
2,66,85,2
2,61,83,4
2,61,86,90
2,66,85,2
2,57,85,2
2,68,80,92
2,64,83,2
2,61,83,8
2,64,84,84
2,68,83,0
2,61,84,4
2,64,85,88
2,61,85,2
2,68,84,0
2,64,84,72
2,61,83,2
2,68,83,0
2,68,79,92
2,60,82,2
2,64,81,4
2,68,83,96
2,60,85,2
2,64,86,4
2,63,80,84
2,68,85,0
2,60,83,4
2,60,86,90
2,63,79,2
2,68,85,0
2,68,80,92
2,64,83,2
2,61,83,8
2,64,84,84
2,68,83,0
2,61,84,4
2,64,85,88
2,61,85,2
2,68,84,0
2,64,84,72
2,61,83,2
2,68,83,0
2,68,80,98
2,64,83,2
2,61,83,8
2,64,84,84
2,68,83,0
2,61,84,4
2,64,85,88
2,61,85,2
2,68,84,0
2,63,84,72
2,59,79,2
2,66,83,0
2,56,87,102
2,59,87,0
2,63,87,0
2,68,87,0
2,63,87,84
2,68,85,0
2,56,87,2
2,59,87,0
2,57,86,84
2,61,86,0
2,64,87,2
2,68,86,4
2,64,79,68
2,68,77,2
2,57,78,4
2,61,77,0
2,64,83,82
2,57,83,6
2,61,82,0
2,61,86,82
2,64,87,0
2,68,82,0
2,69,82,76
2,61,87,2
2,63,87,0
2,66,87,2
2,61,76,82
2,63,78,0
2,69,75,2
2,66,75,2
2,56,87,110
2,59,87,0
2,63,87,0
2,68,87,0
2,63,87,84
2,68,85,0
2,56,87,2
2,59,87,0
2,57,86,84
2,61,86,0
2,64,87,2
2,68,86,4
2,64,79,68
2,68,77,2
2,57,78,4
2,61,77,0
2,64,83,82
2,57,83,6
2,61,82,0
2,61,86,82
2,64,87,0
2,68,82,0
2,69,82,76
2,61,87,2
2,63,87,0
2,66,87,2
2,61,76,82
2,63,78,0
2,69,75,2
2,66,75,2
2,56,87,110
2,59,87,0
2,63,87,0
2,68,87,0
2,63,87,84
2,68,85,0
2,56,87,2
2,59,87,0
2,57,86,84
2,61,86,0
2,64,87,2
2,68,86,4
2,64,79,68
2,68,77,2
2,57,78,4
2,61,77,0
2,64,83,82
2,57,83,6
2,61,82,0
2,61,86,82
2,64,87,0
2,68,82,0
2,69,82,76
2,61,87,2
2,63,87,0
2,66,87,2
2,61,76,82
2,63,78,0
2,69,75,2
2,66,75,2
2,68,85,106
2,64,85,2
2,59,85,8
2,64,78,84
2,68,78,0
2,59,77,4
2,64,87,14
2,58,87,2
