track,note,velocity,time
1,62,123,9742
1,62,92,36
1,60,89,0
1,58,95,28
1,57,86,2
1,58,76,2
1,60,81,20
1,62,80,36
1,63,115,60
1,63,92,44
1,62,83,10
1,60,99,36
1,59,92,20
1,60,91,12
1,62,86,20
1,63,81,18
1,64,88,20
1,65,88,0
1,65,62,20
1,63,86,18
1,62,100,36
1,60,96,20
1,62,100,18
1,63,94,28
1,65,86,44
1,65,91,26
1,65,96,26
1,65,84,28
1,65,93,36
1,59,105,20
1,60,93,2
1,65,81,34
1,70,118,1722
1,69,92,26
1,67,92,18
1,65,86,20
1,62,88,10
1,70,105,18
1,69,95,28
1,67,104,742
1,65,91,10
1,62,96,18
1,58,101,28
1,69,100,18
1,67,105,28
1,65,90,640
1,62,106,28
1,57,100,18
1,62,106,0
1,69,98,10
1,67,102,28
1,65,77,8
1,72,114,18
1,70,95,600
1,69,81,10
1,67,108,18
1,63,97,20
1,70,105,20
1,69,96,54
1,67,116,742
1,65,101,8
1,63,115,194
1,60,111,10
1,69,114,20
1,67,112,12
1,65,94,0
1,63,107,18
1,59,94,20
1,60,111,208
1,69,102,226
1,67,105,26
1,65,95,20
1,70,101,10
1,69,98,20
1,67,93,2
1,65,91,12
1,62,83,20
1,70,101,10
1,69,88,38
1,67,106,26
1,69,91,12
1,67,90,46
1,65,96,20
1,62,96,18
1,58,99,34
1,69,108,26
1,67,112,28
1,65,96,650
1,62,118,36
1,57,104,28
1,58,112,10
1,70,112,66
1,70,115,62
1,72,118,44
1,72,125,70
1,70,110,62
1,72,114,60
1,72,112,96
1,70,110,54
1,72,111,54
1,72,88,20
1,70,110,52
1,65,100,34
1,72,123,18
1,72,118,70
1,70,115,38
1,72,112,52
1,72,112,78
1,70,105,44
1,72,118,54
1,72,125,86
1,70,110,44
1,74,120,54
1,72,123,34
1,70,118,28
1,69,116,0
1,67,94,10
1,65,93,26
1,62,97,10
1,70,110,18
1,69,104,44
1,67,105,672
1,65,94,20
1,62,101,26
1,58,103,28
1,69,106,28
1,67,109,36
1,65,95,20
1,67,99,20
1,69,92,28
1,70,90,26
1,70,118,392
1,69,92,26
1,67,92,18
1,65,86,20
1,62,88,10
1,70,105,18
1,69,95,28
1,67,104,742
1,65,91,10
1,62,96,18
1,58,101,28
1,69,100,18
1,67,105,28
1,65,90,640
1,62,106,28
1,57,100,18
1,62,106,0
1,69,98,10
1,67,102,28
1,65,77,8
1,72,114,18
1,70,95,600
1,69,81,10
1,67,108,18
1,63,97,20
1,70,105,20
1,69,96,54
1,67,116,742
1,65,101,8
1,63,115,194
1,60,111,10
1,69,114,20
1,67,112,12
1,65,94,0
1,63,107,18
1,59,94,20
1,60,111,208
1,69,102,226
1,67,105,26
1,65,95,20
1,70,101,10
1,69,98,20
1,67,93,2
1,65,91,12
1,62,83,20
1,70,101,10
1,69,88,38
1,67,106,26
1,69,91,12
1,67,90,46
1,65,96,20
1,62,96,18
1,58,99,34
1,69,108,26
1,67,112,28
1,65,96,650
1,62,118,36
1,57,104,28
1,58,112,10
1,70,112,66
1,70,115,62
1,72,118,44
1,72,125,70
1,70,110,62
1,72,114,60
1,72,112,96
1,70,110,54
1,72,111,54
1,72,88,20
1,70,110,52
1,65,100,34
1,72,123,18
1,72,118,70
1,70,115,38
1,72,112,52
1,72,112,78
1,70,105,44
1,72,118,54
1,72,125,86
1,70,110,44
1,74,120,54
1,72,123,34
1,70,118,28
1,69,116,0
1,67,94,10
1,65,93,26
1,62,97,10
1,70,110,18
1,69,104,44
1,67,105,672
1,65,94,20
1,62,101,26
1,58,103,28
1,69,106,28
1,67,109,146
1,65,95,612
1,67,99,20
1,74,117,8
1,70,90,1538
2,46,64,3814
2,45,53,20
2,43,46,36
2,41,57,28
2,38,52,10
2,41,55,20
2,45,52,18
2,41,51,28
2,38,52,30
2,39,54,20
2,43,61,10
2,41,45,38
2,36,57,36
2,46,62,46
2,46,79,10692
2,45,80,58
2,43,88,70
2,41,97,88
2,38,80,46
2,45,83,28
2,43,101,80
2,41,94,88
2,38,97,60
2,33,71,18
2,38,88,28
2,34,89,46
2,38,97,80
2,41,85,36
2,38,90,38
2,37,92,104
2,34,75,20
2,37,81,20
2,36,94,56
2,39,100,62
2,43,90,46
2,41,94,54
2,45,80,36
2,43,80,36
2,41,74,28
2,39,84,36
2,36,85,38
2,36,88,54
2,43,90,86
2,41,88,80
2,39,96,98
2,36,74,44
2,41,75,38
2,39,92,70
2,36,97,96
2,33,88,28
2,36,82,20
2,39,79,36
2,36,97,36
2,36,90,104
2,39,89,28
2,41,99,46
2,41,76,2
2,36,76,4
2,39,81,28
2,41,83,38
2,34,96,46
2,34,86,72
2,37,83,60
2,41,85,90
2,45,74,10
2,48,85,26
2,46,79,54
2,45,62,72
2,43,78,100
2,41,97,96
2,38,94,62
2,41,85,70
2,45,85,80
2,43,99,62
2,41,82,36
2,38,90,36
2,34,86,64
2,38,94,86
2,41,85,44
2,38,88,46
2,34,75,28
2,38,76,36
2,32,89,28
2,38,86,28
2,39,104,6
2,31,97,70
2,34,96,62
2,39,96,120
2,39,104,106
2,43,97,96
2,46,81,54
2,42,96,38
2,39,100,62
2,42,81,20
2,46,89,38
2,46,92,62
2,45,99,96
2,43,101,70
2,41,110,80
2,38,57,20
2,41,88,30
2,43,104,64
2,46,89,80
2,43,94,78
2,38,92,26
2,43,76,20
2,46,77,38
2,36,99,28
2,36,97,96
2,40,76,30
2,46,73,38
2,41,107,64
2,41,104,112
2,51,86,2
2,50,86,2
2,48,86,2
2,46,92,16
2,45,90,88
2,43,79,106
2,45,99,140
2,43,78,28
2,41,82,46
2,38,92,46
2,40,94,78
2,41,101,96
2,45,90,88
2,43,70,12
2,41,58,20
2,36,90,64
2,39,92,88
2,43,79,44
2,41,99,64
2,45,90,88
2,34,96,96
2,35,97,96
2,36,89,88
2,35,78,62
2,36,80,54
2,39,64,28
2,41,82,28
2,46,79,76
2,45,80,58
2,43,88,70
2,41,97,88
2,38,80,46
2,45,83,28
2,43,101,80
2,41,94,88
2,38,97,60
2,33,71,18
2,38,88,28
2,34,89,46
2,38,97,80
2,41,85,36
2,38,90,38
2,37,92,104
2,34,75,20
2,37,81,20
2,36,94,56
2,39,100,62
2,43,90,46
2,41,94,54
2,45,80,36
2,43,80,36
2,41,74,28
2,39,84,36
2,36,85,38
2,36,88,54
2,43,90,86
2,41,88,80
2,39,96,98
2,36,74,44
2,41,75,38
2,39,92,70
2,36,97,96
2,33,88,28
2,36,82,20
2,39,79,36
2,36,97,36
2,36,90,104
2,39,89,28
2,41,99,46
2,41,76,2
2,36,76,4
2,39,81,28
2,41,83,38
2,34,96,46
2,34,86,72
2,37,83,60
2,41,85,90
2,45,74,10
2,48,85,26
2,46,79,54
2,45,62,72
2,43,78,100
2,41,97,96
2,38,94,62
2,41,85,70
2,45,85,80
2,43,99,62
2,41,82,36
2,38,90,36
2,34,86,64
2,38,94,86
2,41,85,44
2,38,88,46
2,34,75,28
2,38,76,36
2,32,89,28
2,38,86,28
2,39,104,6
2,31,97,70
2,34,96,62
2,39,96,120
2,39,104,106
2,43,97,96
2,46,81,54
2,42,96,38
2,39,100,62
2,42,81,20
2,46,89,38
2,46,92,62
2,45,99,96
2,43,101,70
2,41,110,80
2,38,57,20
2,41,88,30
2,43,104,64
2,46,89,80
2,43,94,78
2,38,92,26
2,43,76,20
2,46,77,38
2,36,99,28
2,36,97,96
2,40,76,30
2,46,73,38
2,41,107,64
2,41,104,112
2,46,92,16
2,45,90,88
2,43,79,106
2,45,99,140
2,43,78,28
2,41,82,46
2,38,92,46
2,40,94,78
2,41,101,96
2,45,90,88
2,43,70,12
2,41,58,20
2,36,90,64
2,39,92,88
2,43,79,44
2,41,99,64
2,41,90,0
2,46,64,780
2,45,53,20
2,43,46,36
2,41,57,28
2,38,52,10
2,41,55,20
2,45,52,18
2,41,51,28
2,38,52,30
2,39,54,20
2,43,61,10
2,41,45,38
2,36,57,36
2,46,62,46
4,65,74,3574
4,70,96,0
4,62,86,736
4,58,89,238
4,50,88,2
4,69,69,0
4,57,82,26
4,53,82,26
4,67,72,36
4,63,59,2
4,51,75,0
4,65,64,52
4,69,75,12
4,60,67,2
4,41,83,0
4,46,89,28
4,62,69,0
4,58,55,14
4,63,71,2352
4,60,66,2
4,67,73,0
4,63,51,120
4,53,70,12
4,69,83,0
4,70,53,18
4,62,58,12
4,65,56,14
4,58,71,12
4,59,64,18
4,71,61,2
4,65,54,2
4,65,44,26
4,53,64,12
4,72,64,0
4,58,59,1534
4,62,66,2
4,46,69,14
4,57,63,26
4,50,64,12
4,58,68,18
4,67,67,2
4,46,63,16
4,65,60,44
4,63,69,12
4,48,67,12
4,60,68,0
4,60,57,10
4,65,60,0
4,53,66,16
4,67,73,18
4,63,73,2
4,48,85,14
4,53,68,0
4,69,72,12
4,63,69,2
4,48,78,20
4,60,63,0
4,63,68,0
4,70,73,18
4,63,44,8
4,53,68,2
4,69,75,0
4,46,68,18
4,61,77,0
4,58,64,16
4,53,68,10
4,65,64,0
4,60,85,6
4,46,79,26
4,65,66,2
4,70,79,0
4,62,73,18
4,50,67,18
4,62,62,0
4,65,70,2
4,69,74,0
4,70,84,0
4,62,66,2
4,65,72,0
4,46,73,18
4,62,73,62
4,65,74,0
4,68,86,0
4,63,86,18
4,51,86,2
4,67,85,0
4,70,75,36
4,75,77,0
4,66,68,392
4,65,55,26
4,74,72,2
4,58,79,14
4,67,99,54
4,74,88,0
4,55,88,16
4,70,84,44
4,67,78,0
4,48,90,14
4,53,73,26
4,72,86,2
4,79,76,0
4,77,76,34
4,69,76,12
4,70,59,28
4,74,50,12
4,58,64,14
4,50,75,28
4,74,62,0
4,65,55,2
4,69,73,0
4,62,53,1086
4,60,71,62
4,63,69,0
4,67,78,0
4,48,76,18
4,53,69,20
4,69,66,0
4,63,68,14
4,60,68,2
4,65,66,70
4,62,71,2
4,62,64,178
4,65,66,0
4,60,72,194
4,63,79,0
4,67,90,0
4,60,70,148
4,63,73,0
4,69,79,2
4,46,69,168
4,57,63,36
4,50,64,12
4,58,68,18
4,67,67,2
4,46,63,16
4,65,60,44
4,63,69,12
4,48,67,12
4,60,68,0
4,60,57,10
4,65,60,0
4,53,66,16
4,67,73,18
4,63,73,2
4,48,85,14
4,53,68,0
4,69,72,12
4,63,69,2
4,48,78,20
4,60,63,0
4,63,68,0
4,70,73,18
4,63,44,8
4,53,68,2
4,69,75,0
4,46,68,18
4,61,77,0
4,58,64,16
4,53,68,10
4,65,64,0
4,60,85,6
4,46,79,26
4,65,66,2
4,70,79,0
4,62,73,18
4,50,67,18
4,62,62,0
4,65,70,2
4,69,74,0
4,70,84,0
4,62,66,2
4,65,72,0
4,46,73,18
4,62,73,62
4,65,74,0
4,68,86,0
4,63,86,18
4,51,86,2
4,67,85,0
4,70,75,36
4,75,77,0
4,66,68,392
4,65,55,26
4,74,72,2
4,58,79,14
4,67,99,54
4,74,88,0
4,55,88,16
4,70,84,44
4,67,78,0
4,48,90,14
4,53,73,26
4,72,86,2
4,79,76,0
4,77,76,34
4,69,76,12
4,70,59,28
4,74,50,12
4,58,64,14
4,50,75,28
4,74,62,0
4,65,55,2
4,69,73,0
4,62,53,1086
4,60,71,62
4,63,69,0
4,67,78,0
4,48,76,18
4,53,69,20
4,69,66,0
4,63,68,14
4,60,68,2
4,65,74,54
4,70,96,0
4,62,86,736
4,58,89,238
4,50,88,2
4,69,69,0
4,57,82,26
4,53,82,26
4,67,72,36
4,63,59,2
4,51,75,0
4,65,64,52
4,69,75,12
4,60,67,2
4,41,83,0
4,70,116,20
4,46,89,8
4,58,55,14
5,70,99,3478
5,82,121,0
5,69,75,8
5,81,75,0
5,67,102,12
5,79,102,0
5,65,77,20
5,77,77,0
5,62,88,0
5,74,88,0
5,70,103,8
5,82,103,0
5,69,86,24
5,81,86,0
5,67,97,512
5,79,97,0
5,65,87,16
5,77,87,0
5,62,86,28
5,74,86,0
5,58,88,28
5,70,88,0
5,69,83,28
5,81,83,0
5,67,100,24
5,79,100,0
5,65,83,28
5,77,83,0
5,67,84,28
5,79,84,0
5,69,79,44
5,81,79,0
5,70,86,28
5,82,86,0
5,70,121,73860
5,69,75,8
5,67,102,12
5,65,77,20
5,62,88,0
5,70,103,8
5,69,86,24
5,67,97,512
5,65,87,16
5,62,86,28
5,58,88,28
5,69,83,28
5,67,100,24
5,65,83,28
5,77,83,0
5,67,84,28
5,79,84,0
5,69,79,44
5,81,79,0
5,70,86,28
5,82,86,0
6,62,75,3334
6,65,74,0
6,70,81,0
6,62,71,130
6,70,84,0
6,65,71,2
6,65,70,148
6,62,66,2
6,74,86,0
6,69,97,122
6,62,70,12
6,65,75,0
6,69,97,112
6,62,79,2
6,65,79,0
6,65,79,104
6,62,73,2
6,74,86,0
6,67,92,132
6,58,84,12
6,63,84,0
6,60,97,112
6,63,100,0
6,69,86,2
6,70,100,196
6,65,62,28
6,70,79,28
6,74,65,44
6,77,68,28
6,82,68,28
6,74,43,44
6,77,63,46
6,82,73,30
6,58,71,424
6,46,86,2
6,53,71,0
6,62,76,0
6,43,85,88
6,53,71,14
6,59,80,0
6,62,82,0
6,48,82,46
6,55,69,0
6,60,92,2
6,63,89,0
6,60,94,28
6,65,75,0
6,41,90,2
6,57,83,0
6,58,81,46
6,62,88,0
6,46,96,2
6,53,82,0
6,56,84,70
6,47,90,2
6,59,78,0
6,53,78,2
6,62,82,0
6,53,70,18
6,63,89,0
6,57,88,14
6,41,88,2
6,60,97,0
6,41,99,2
6,53,82,88
6,57,65,64
6,60,73,46
6,57,55,10
6,60,63,74
6,63,68,0
6,60,60,28
6,63,77,56
6,65,66,62
6,69,66,34
6,72,66,64
6,75,56,36
6,77,70,12
6,58,71,1322
6,46,89,2
6,53,73,0
6,62,75,0
6,65,60,2
6,58,69,116
6,62,76,0
6,53,69,2
6,65,65,0
6,53,68,26
6,46,96,106
6,62,101,12
6,58,81,2
6,65,60,14
6,50,85,64
6,53,70,12
6,57,86,2
6,62,86,0
6,57,78,176
6,65,78,0
6,62,85,2
6,65,76,182
6,62,70,2
6,69,97,0
6,62,69,96
6,65,70,0
6,74,76,2
6,45,75,20
6,46,89,36
6,53,45,12
6,53,69,88
6,58,77,12
6,62,92,0
6,53,73,46
6,58,77,0
6,62,83,2
6,58,89,54
6,61,92,0
6,64,83,0
6,46,81,18
6,48,97,30
6,55,60,140
6,55,57,2
6,63,100,12
6,58,89,2
6,60,104,0
6,43,88,36
6,41,97,0
6,53,82,18
6,57,88,126
6,60,92,0
6,63,84,0
6,53,62,12
6,63,86,118
6,57,82,2
6,60,83,0
6,48,70,28
6,47,70,12
6,55,62,28
6,55,61,52
6,63,86,2
6,58,79,14
6,60,90,2
6,55,74,28
6,58,84,0
6,60,97,2
6,63,86,0
6,55,86,60
6,58,92,2
6,60,99,0
6,63,92,0
6,43,88,10
6,41,104,66
6,53,62,18
6,53,51,28
6,63,89,10
6,57,86,2
6,60,97,2
6,60,82,62
6,53,68,2
6,63,77,0
6,57,80,2
6,53,72,192
6,63,86,0
6,57,85,2
6,60,94,0
6,46,89,62
6,48,107,54
6,55,68,62
6,55,46,12
6,58,81,10
6,63,86,2
6,60,82,2
6,58,56,2
6,60,75,0
6,63,56,0
6,41,94,28
6,53,61,36
6,63,84,10
6,57,80,2
6,60,85,0
6,44,30,282
6,46,96,74
6,58,96,2
6,61,96,2
6,64,82,0
6,55,88,2
6,58,100,82
6,55,90,2
6,61,100,0
6,64,90,0
6,55,68,0
6,58,68,2
6,64,66,16
6,41,90,0
6,57,86,28
6,63,96,0
6,60,101,2
6,65,79,0
6,57,86,38
6,63,100,0
6,60,107,2
6,65,78,0
6,46,96,52
6,53,63,114
6,53,60,52
6,58,86,12
6,62,88,2
6,65,72,0
6,53,66,56
6,62,82,0
6,58,75,2
6,65,67,0
6,46,92,0
6,58,81,56
6,65,62,0
6,53,69,2
6,62,74,0
