track,note,velocity,time
1,67,104,32160
1,69,115,120
1,70,104,2
1,72,127,55
1,69,115,27
1,67,94,0
1,67,127,16
1,65,127,9
1,65,115,67
1,67,115,120
1,67,115,54
1,70,115,62
1,67,115,2
1,67,104,71
1,65,127,32
1,65,94,74
1,67,104,60
1,65,104,117
1,62,115,7
1,62,115,77
1,60,127,120
1,58,104,6
1,67,127,466
1,55,104,0
1,69,115,6
1,57,115,0
1,70,115,22
1,58,104,0
1,72,115,60
1,60,127,0
1,70,115,7
1,58,94,0
1,74,115,66
1,62,127,0
1,70,115,52
1,58,104,0
1,60,94,30
1,72,115,14
1,70,127,3
1,58,104,0
1,67,127,267
1,70,104,0
1,65,115,35
1,69,94,0
1,62,127,45
1,67,115,0
1,60,127,19
1,65,94,0
1,60,115,67
1,67,104,0
1,65,104,30
1,62,115,7
1,58,104,10
1,62,104,0
1,62,79,73
1,60,115,0
1,62,104,0
1,62,104,8
1,65,115,0
1,58,115,3
1,62,115,0
1,67,127,612
1,69,115,120
1,70,115,48
1,72,127,72
1,69,115,29
1,67,94,0
1,67,127,2
1,65,115,7
1,65,115,84
1,67,115,11
1,67,104,60
1,70,127,77
1,67,104,10
1,67,104,88
1,62,127,13
1,65,115,67
1,67,115,120
1,67,127,83
1,67,127,1185
1,55,104,0
1,69,115,120
1,57,104,0
1,70,104,32
1,58,115,0
1,72,127,64
1,60,127,0
1,70,94,0
1,58,104,0
1,74,104,72
1,62,127,0
1,70,104,49
1,58,104,0
1,72,127,15
1,60,94,0
1,70,115,1
1,58,115,0
1,67,115,144
1,74,115,72
1,75,127,43
1,74,115,70
1,72,104,51
1,70,127,62
1,67,115,10
1,74,127,0
1,75,104,45
1,74,127,40
1,72,127,4
1,70,115,32
1,67,115,9
1,72,127,30
1,70,115,7
1,72,104,34
1,70,127,60
1,67,104,14900
1,69,115,120
1,70,104,2
1,72,127,55
1,69,115,27
1,67,94,0
1,67,127,16
1,65,127,9
1,65,115,67
1,67,115,120
1,67,115,54
1,70,115,62
1,67,115,2
1,67,104,71
1,65,127,32
1,65,94,74
1,67,104,60
1,65,104,117
1,62,115,7
1,62,115,77
1,60,127,120
1,58,104,6
1,67,127,466
1,55,104,0
1,69,115,6
1,57,115,0
1,70,115,22
1,58,104,0
1,72,115,60
1,60,127,0
1,70,115,7
1,58,94,0
1,74,115,66
1,62,127,0
1,70,115,52
1,58,104,0
1,60,94,30
1,72,115,14
1,70,127,3
1,58,104,0
1,67,127,267
1,70,104,0
1,65,115,35
1,69,94,0
1,62,127,45
1,67,115,0
1,60,127,19
1,65,94,0
1,60,115,67
1,67,104,0
1,65,104,30
1,62,115,7
1,58,104,10
1,62,104,0
1,62,79,73
1,60,115,0
1,62,104,0
1,62,104,8
1,65,115,0
1,58,115,3
1,62,115,0
1,67,127,612
1,69,115,120
1,70,115,48
1,72,127,72
1,69,115,29
1,67,94,0
1,67,127,2
1,65,115,7
1,65,115,84
1,67,115,11
1,67,104,60
1,70,127,77
1,67,104,10
1,67,104,88
1,62,127,13
1,65,115,67
1,67,115,120
1,67,127,83
1,67,127,1185
1,55,104,0
1,69,115,120
1,57,104,0
1,70,104,32
1,58,115,0
1,72,127,64
1,60,127,0
1,70,94,0
1,58,104,0
1,74,104,72
1,62,127,0
1,70,104,49
1,58,104,0
1,72,127,15
1,60,94,0
1,70,115,1
1,58,115,0
1,67,115,144
1,74,115,72
1,75,127,43
1,74,115,70
1,72,104,51
1,70,127,62
1,67,115,10
1,74,127,0
1,75,104,45
1,74,127,40
1,72,127,4
1,70,115,32
1,67,115,9
1,72,127,30
1,70,115,7
1,72,104,34
1,70,127,60
1,67,104,8060
1,72,127,72
1,70,115,10
1,67,127,56
1,65,127,3
1,67,86,2552
1,72,115,27
1,70,115,20
1,67,115,67
1,65,115,2
1,67,104,5
1,70,127,60
1,67,127,64383
1,55,104,0
1,69,115,6
1,57,115,0
1,70,115,22
1,58,104,0
1,72,115,60
1,60,127,0
1,70,115,7
1,58,94,0
1,74,115,66
1,62,127,0
1,70,115,52
1,58,104,0
1,60,94,30
1,72,115,14
1,70,127,3
1,58,104,0
1,70,104,267
1,69,94,47
1,67,115,45
1,65,104,17
1,67,104,69
1,65,104,30
1,62,115,30
1,62,104,10
1,62,104,73
1,65,115,8
1,62,115,7
1,67,127,4452
1,55,104,0
1,69,115,120
1,57,104,0
1,70,104,32
1,58,115,0
1,72,127,64
1,60,127,0
1,70,94,0
1,58,104,0
1,74,104,72
1,62,127,0
1,70,104,49
1,58,104,0
1,72,127,15
1,60,94,0
1,70,115,1
1,58,115,0
1,74,127,9384
1,72,127,0
1,72,127,90
1,70,127,59
1,72,115,70
1,73,104,30
1,72,115,67
1,70,127,14
1,72,127,100
1,70,127,35
1,67,127,108
1,67,127,135
1,65,104,60
1,67,127,49
1,72,115,363
1,74,115,30
1,72,127,86
1,70,127,105
1,72,127,69
1,73,104,60
1,72,127,6
1,70,115,45
1,72,68,30
1,70,115,71
1,71,104,224
1,72,127,0
1,70,127,28
1,70,115,73
1,67,127,2
1,67,127,87
1,65,115,120
1,65,115,82
1,62,127,120
1,62,127,86
1,58,127,120
1,60,115,80
1,62,115,30
1,60,104,5
1,58,104,60
1,60,94,29
1,62,127,37
1,74,115,10871
1,72,115,0
1,72,127,15
1,72,115,78
1,73,105,60
1,72,127,59
1,72,115,73
1,73,104,6
1,72,104,60
1,70,115,17
1,67,127,27
1,67,115,66
1,70,127,12
2,55,115,16800
2,67,115,0
2,55,104,64
2,67,104,0
2,58,127,55
2,70,127,0
2,55,104,42
2,67,104,0
2,62,115,13
2,74,115,0
2,62,94,72
2,74,94,0
2,62,127,60
2,74,127,0
2,55,104,1019
2,67,104,0
2,62,127,6
2,74,127,0
2,63,115,59
2,75,115,0
2,62,127,65
2,74,127,0
2,58,104,10
2,70,104,0
2,60,127,66
2,72,127,0
2,60,115,78
2,72,115,0
2,74,115,30
2,62,115,21
2,60,127,11
2,72,127,0
2,55,115,1010
2,67,115,0
2,55,127,52
2,67,127,0
2,58,127,46
2,70,127,0
2,55,115,9
2,67,115,0
2,62,115,18
2,74,115,0
2,62,115,66
2,74,115,0
2,60,115,63
2,72,115,0
2,74,115,30
2,62,115,18
2,55,79,999
2,67,79,0
2,62,127,21
2,74,127,0
2,63,115,59
2,75,115,0
2,62,127,72
2,74,127,0
2,58,104,15
2,70,104,0
2,60,127,69
2,72,127,0
2,60,94,80
2,72,94,0
2,74,104,30
2,62,104,23
2,60,94,12
2,72,94,0
2,55,127,1030
2,67,127,0
2,55,104,61
2,67,104,0
2,58,115,44
2,70,115,0
2,55,104,17
2,67,104,0
2,62,127,0
2,74,127,0
2,62,127,74
2,74,127,0
2,60,115,69
2,72,115,0
2,74,115,30
2,62,115,12
2,67,94,1035
2,62,127,30
2,55,94,0
2,74,127,0
2,63,115,68
2,75,115,0
2,62,127,70
2,74,127,0
2,58,104,17
2,70,104,0
2,60,127,72
2,72,127,0
2,60,104,89
2,72,104,0
2,74,115,30
2,62,115,20
2,60,115,14
2,72,115,0
2,55,115,1020
2,67,115,0
2,55,115,63
2,67,115,0
2,58,127,60
2,70,127,0
2,55,104,2
2,67,104,0
2,62,127,29
2,74,127,0
2,62,127,67
2,74,127,0
2,60,127,70
2,72,127,0
2,74,115,30
2,62,115,12
2,67,104,999
2,62,115,10
2,74,115,0
2,63,104,70
2,75,104,0
2,62,127,82
2,74,127,0
2,58,104,28
2,70,104,0
2,60,127,74
2,72,127,0
2,60,115,76
2,72,115,0
2,74,104,30
2,62,104,22
2,60,94,25
2,72,94,0
2,55,115,16389
2,67,115,0
2,55,104,64
2,67,104,0
2,58,127,55
2,70,127,0
2,55,104,42
2,67,104,0
2,62,115,13
2,74,115,0
2,62,94,72
2,74,94,0
2,62,127,60
2,74,127,0
2,55,104,1019
2,67,104,0
2,62,127,6
2,74,127,0
2,63,115,59
2,75,115,0
2,62,127,65
2,74,127,0
2,58,104,10
2,70,104,0
2,60,127,66
2,72,127,0
2,60,115,78
2,72,115,0
2,74,115,30
2,62,115,21
2,60,127,11
2,72,127,0
2,55,115,1010
2,67,115,0
2,55,127,52
2,67,127,0
2,58,127,46
2,70,127,0
2,55,115,9
2,67,115,0
2,62,115,18
2,74,115,0
2,62,115,66
2,74,115,0
2,60,115,63
2,72,115,0
2,74,115,30
2,62,115,18
2,55,79,999
2,67,79,0
2,62,127,21
2,74,127,0
2,63,115,59
2,75,115,0
2,62,127,72
2,74,127,0
2,58,104,15
2,70,104,0
2,60,127,69
2,72,127,0
2,60,94,80
2,72,94,0
2,74,104,30
2,62,104,23
2,60,94,12
2,72,94,0
2,55,127,1030
2,67,127,0
2,55,104,61
2,67,104,0
2,58,115,44
2,70,115,0
2,55,104,17
2,67,104,0
2,62,127,0
2,74,127,0
2,62,127,74
2,74,127,0
2,60,115,69
2,72,115,0
2,74,115,30
2,62,115,12
2,67,94,1035
2,62,127,30
2,55,94,0
2,74,127,0
2,63,115,68
2,75,115,0
2,62,127,70
2,74,127,0
2,58,104,17
2,70,104,0
2,60,127,72
2,72,127,0
2,60,104,89
2,72,104,0
2,74,115,30
2,62,115,20
2,60,115,14
2,72,115,0
2,55,115,1020
2,67,115,0
2,55,115,63
2,67,115,0
2,58,127,60
2,70,127,0
2,55,104,2
2,67,104,0
2,62,127,29
2,74,127,0
2,62,127,67
2,74,127,0
2,60,127,70
2,72,127,0
2,74,115,30
2,62,115,12
2,67,104,999
2,62,115,10
2,74,115,0
2,63,104,70
2,75,104,0
2,62,127,82
2,74,127,0
2,58,104,28
2,70,104,0
2,60,127,74
2,72,127,0
2,60,115,76
2,72,115,0
2,74,104,30
2,62,104,22
2,60,94,25
2,72,94,0
2,55,115,16389
2,67,115,0
2,55,104,64
2,67,104,0
2,58,127,55
2,70,127,0
2,55,104,42
2,67,104,0
2,62,115,13
2,74,115,0
2,62,94,72
2,74,94,0
2,62,127,60
2,74,127,0
2,55,104,1019
2,67,104,0
2,62,127,6
2,74,127,0
2,63,115,59
2,75,115,0
2,62,127,65
2,74,127,0
2,58,104,10
2,70,104,0
2,60,127,66
2,72,127,0
2,60,115,78
2,72,115,0
2,74,115,30
2,62,115,21
2,60,127,11
2,72,127,0
2,55,115,1010
2,67,115,0
2,55,127,52
2,67,127,0
2,58,127,46
2,70,127,0
2,55,115,9
2,67,115,0
2,62,115,18
2,74,115,0
2,62,115,66
2,74,115,0
2,60,115,63
2,72,115,0
2,74,115,30
2,62,115,18
2,55,79,999
2,67,79,0
2,62,127,21
2,74,127,0
2,63,115,59
2,75,115,0
2,62,127,72
2,74,127,0
2,58,104,15
2,70,104,0
2,60,127,69
2,72,127,0
2,60,94,80
2,72,94,0
2,74,104,30
2,62,104,23
2,60,94,12
2,72,94,0
2,55,127,1030
2,67,127,0
2,55,104,61
2,67,104,0
2,58,115,44
2,70,115,0
2,55,104,17
2,67,104,0
2,62,127,0
2,74,127,0
2,62,127,74
2,74,127,0
2,60,115,69
2,72,115,0
2,74,115,30
2,62,115,12
2,67,94,1035
2,62,127,30
2,55,94,0
2,74,127,0
2,63,115,68
2,75,115,0
2,62,127,70
2,74,127,0
2,58,104,17
2,70,104,0
2,60,127,72
2,72,127,0
2,60,104,89
2,72,104,0
2,74,115,30
2,62,115,20
2,60,115,14
2,72,115,0
2,55,115,1020
2,67,115,0
2,55,115,63
2,67,115,0
2,58,127,60
2,70,127,0
2,55,104,2
2,67,104,0
2,62,127,29
2,74,127,0
2,62,127,67
2,74,127,0
2,60,127,70
2,72,127,0
2,74,115,30
2,62,115,12
2,67,104,999
2,62,115,10
2,74,115,0
2,63,104,70
2,75,104,0
2,62,127,82
2,74,127,0
2,58,104,28
2,70,104,0
2,60,127,74
2,72,127,0
2,60,115,76
2,72,115,0
2,74,104,30
2,62,104,22
2,60,94,25
2,72,94,0
2,55,115,14469
2,67,115,0
2,55,104,64
2,67,104,0
2,58,127,55
2,70,127,0
2,55,104,42
2,67,104,0
2,62,115,13
2,74,115,0
2,62,94,72
2,74,94,0
2,62,127,60
2,74,127,0
2,55,104,1019
2,67,104,0
2,62,127,6
2,74,127,0
2,63,115,59
2,75,115,0
2,62,127,65
2,74,127,0
2,58,104,10
2,70,104,0
2,60,127,66
2,72,127,0
2,60,115,78
2,72,115,0
2,74,115,30
2,62,115,21
2,60,127,11
2,72,127,0
2,55,115,1010
2,67,115,0
2,55,127,52
2,67,127,0
2,58,127,46
2,70,127,0
2,55,115,9
2,67,115,0
2,62,115,18
2,74,115,0
2,62,115,66
2,74,115,0
2,60,115,63
2,72,115,0
2,74,115,30
2,62,115,18
2,55,79,999
2,67,79,0
2,62,127,21
2,74,127,0
2,63,115,59
2,75,115,0
2,62,127,72
2,74,127,0
2,58,104,15
2,70,104,0
2,60,127,69
2,72,127,0
2,60,94,80
2,72,94,0
2,74,104,30
2,62,104,23
2,60,94,12
2,72,94,0
2,55,127,1030
2,67,127,0
2,55,104,61
2,67,104,0
2,58,115,44
2,70,115,0
2,55,104,17
2,67,104,0
2,62,127,0
2,74,127,0
2,62,127,74
2,74,127,0
2,60,115,69
2,72,115,0
2,74,115,30
2,62,115,12
2,67,94,1035
2,62,127,30
2,55,94,0
2,74,127,0
2,63,115,68
2,75,115,0
2,62,127,70
2,74,127,0
2,58,104,17
2,70,104,0
2,60,127,72
2,72,127,0
2,60,104,89
2,72,104,0
2,74,115,30
2,62,115,20
2,60,115,14
2,72,115,0
2,55,115,1020
2,67,115,0
2,55,115,63
2,67,115,0
2,58,127,60
2,70,127,0
2,55,104,2
2,67,104,0
2,62,127,29
2,74,127,0
2,62,127,67
2,74,127,0
2,60,127,70
2,72,127,0
2,74,115,30
2,62,115,12
2,67,104,999
2,62,115,10
2,74,115,0
2,63,104,70
2,75,104,0
2,62,127,82
2,74,127,0
2,58,104,28
2,70,104,0
2,60,127,74
2,72,127,0
2,60,115,76
2,72,115,0
2,74,104,30
2,62,104,22
2,60,94,25
2,72,94,0
2,55,115,47109
2,67,115,0
2,55,104,64
2,67,104,0
2,58,127,55
2,70,127,0
2,55,104,42
2,67,104,0
2,62,115,13
2,74,115,0
2,62,94,72
2,74,94,0
2,62,127,60
2,74,127,0
2,55,115,2999
2,67,115,0
2,55,127,52
2,67,127,0
2,58,127,46
2,70,127,0
2,55,115,9
2,67,115,0
2,62,115,18
2,74,115,0
2,62,115,66
2,74,115,0
2,60,115,63
2,72,115,0
2,74,115,30
2,62,115,18
2,55,127,2979
2,67,127,0
2,55,104,61
2,67,104,0
2,58,115,44
2,70,115,0
2,55,104,17
2,67,104,0
2,62,127,0
2,74,127,0
2,62,127,74
2,74,127,0
2,60,115,69
2,72,115,0
2,74,115,30
2,62,115,12
2,55,115,2985
2,67,115,0
2,55,115,63
2,67,115,0
2,58,127,60
2,70,127,0
2,55,104,2
2,67,104,0
2,62,127,29
2,74,127,0
2,62,127,67
2,74,127,0
2,60,127,70
2,72,127,0
2,74,115,30
2,62,115,12
2,55,115,2979
2,67,115,0
2,55,104,64
2,67,104,0
2,58,127,55
2,70,127,0
2,55,104,42
2,67,104,0
2,62,115,13
2,74,115,0
2,62,94,72
2,74,94,0
2,62,127,60
2,74,127,0
2,55,104,1019
2,67,104,0
2,62,127,6
2,74,127,0
2,63,115,59
2,75,115,0
2,62,127,65
2,74,127,0
2,58,104,10
2,70,104,0
2,60,127,66
2,72,127,0
2,60,115,78
2,72,115,0
2,74,115,30
2,62,115,21
2,60,127,11
2,72,127,0
2,55,115,1010
2,67,115,0
2,55,127,52
2,67,127,0
2,58,127,46
2,70,127,0
2,55,115,9
2,67,115,0
2,62,115,18
2,74,115,0
2,62,115,66
2,74,115,0
2,60,115,63
2,72,115,0
2,74,115,30
2,62,115,18
2,55,79,999
2,67,79,0
2,62,127,21
2,74,127,0
2,63,115,59
2,75,115,0
2,62,127,72
2,74,127,0
2,58,104,15
2,70,104,0
2,60,127,69
2,72,127,0
2,60,94,80
2,72,94,0
2,74,104,30
2,62,104,23
2,60,94,12
