track,note,velocity,time
1,44,72,1980
1,34,72,2
1,44,72,2
1,34,72,2
1,44,72,2
1,34,72,2
1,44,72,2
1,34,72,2
1,39,72,2
1,39,72,24
1,47,72,2
1,34,72,2
1,39,72,2
1,34,72,1408
1,34,72,30
1,39,72,30
1,39,72,30
1,44,72,30
1,39,72,30
1,44,72,30
1,36,72,30
1,35,72,2
1,34,72,2
1,34,72,30
1,39,72,30
1,39,72,30
1,44,72,30
1,39,72,30
1,44,72,30
1,36,72,30
1,35,72,2
1,34,72,2
1,34,72,30
1,39,72,30
1,39,72,30
1,44,72,30
1,39,72,30
1,44,72,30
1,36,72,30
1,35,72,2
1,34,72,2
1,39,72,30
1,34,72,30
1,38,72,24
1,39,72,2
1,43,72,20
1,44,72,20
1,44,72,1536
1,42,72,2
1,35,72,2
1,40,72,2
1,40,50,154
1,35,72,2
1,28,82,2
1,40,72,288
1,40,50,154
1,37,72,2
1,28,82,2
1,40,72,288
1,40,50,154
1,35,72,2
1,28,82,2
1,40,72,288
1,40,50,154
1,35,72,2
1,28,82,2
1,41,72,288
1,34,72,2
1,35,72,2
1,47,72,10
1,34,72,2
1,39,72,50
1,34,72,2
1,34,52,256
1,36,72,320
1,35,72,2
1,34,72,2
1,34,72,30
1,39,72,30
1,39,72,30
1,44,72,30
1,39,72,30
1,44,72,30
1,36,72,30
1,35,72,2
1,34,72,2
1,34,72,30
1,39,72,30
1,39,72,30
1,36,72,30
1,36,72,30
1,41,72,30
1,41,72,30
1,41,72,64
1,34,72,64
1,34,72,30
1,37,72,30
1,37,72,30
1,39,72,30
1,36,72,30
1,36,72,30
1,48,72,2
1,41,72,2
1,34,72,30
1,34,72,30
1,39,72,30
1,39,72,30
1,43,72,2
1,44,72,2
1,34,72,2
1,41,72,2
1,40,72,2
1,39,72,2
1,43,72,512
1,42,72,2
1,41,72,2
1,41,72,2
1,41,72,2
1,43,72,2
1,36,72,2
1,34,72,2
1,34,72,2
1,34,72,2
1,38,72,2
1,51,72,2
1,50,72,2
1,48,72,2
1,46,72,2
1,39,72,2
1,39,72,2
1,43,72,2
1,36,72,2
1,41,72,2
1,41,72,2
1,41,72,2
1,43,72,2
1,36,72,2
1,34,72,2
1,34,72,2
1,34,72,2
1,38,72,2
1,39,72,2
1,39,72,2
1,46,72,2
1,44,72,2
1,43,72,2
1,39,50,2
1,43,72,2
1,42,72,2
1,38,50,2
1,42,72,2
1,41,72,2
1,41,72,2
1,41,72,2
1,43,72,2
1,36,72,2
1,34,72,2
1,34,72,2
1,34,72,2
1,38,72,2
1,51,72,2
1,50,72,2
1,48,72,2
1,46,72,2
1,39,72,2
1,39,72,2
1,43,72,2
1,36,72,2
1,41,72,2
1,41,72,2
1,41,72,2
1,38,72,2
1,34,72,2
1,34,72,2
1,34,72,2
1,38,72,2
1,39,72,2
1,42,72,2176
1,42,72,2
1,35,72,2
1,35,72,2
1,39,72,2
1,39,72,2
1,40,72,2
1,40,72,2
1,41,72,2
1,41,72,2
1,42,72,384
1,39,72,2
1,39,72,2
1,35,72,2
1,35,72,2
1,42,72,2
1,47,72,2
1,42,72,2
1,35,72,2
1,36,72,2
1,36,72,2
1,36,72,2
1,36,72,2
1,40,72,2
1,41,72,2
1,36,72,2
1,33,72,2
1,29,72,2
1,34,72,2
1,43,72,1984
1,42,72,2
1,41,72,2
1,41,72,2
1,41,72,2
1,43,72,2
1,36,72,2
1,34,72,2
1,34,72,2
1,34,72,2
1,38,72,2
1,51,72,2
1,50,72,2
1,48,72,2
1,46,72,2
1,39,72,2
1,39,72,2
1,43,72,2
1,36,72,2
1,41,72,2
1,41,72,2
1,41,72,2
1,33,72,2
1,34,72,2
1,34,72,2
1,34,72,2
1,46,72,2
1,44,72,2
1,43,72,2
1,43,72,2
1,43,72,2
1,36,50,2
1,37,72,2
1,35,50,2
1,36,72,2
1,43,72,2
1,38,50,2
1,36,72,2
1,36,72,2
1,41,72,2
1,41,72,2
1,41,72,2
1,41,72,2
1,43,72,2
1,44,72,2
1,44,72,2
1,44,72,2
1,44,72,2
1,44,72,2
1,39,72,2
1,39,72,2
1,46,72,2
1,44,72,2
1,43,72,2
1,43,72,2
1,37,72,2
1,36,72,2
1,36,72,2
1,41,72,2
1,41,72,2
1,41,72,2
1,43,72,2
1,44,72,2
1,34,72,2
1,34,72,2944
1,34,72,236
1,39,72,222
1,39,72,2
1,27,72,2
2,58,71,8764
2,61,71,0
2,65,71,0
2,58,71,708
2,61,71,0
2,65,71,0
2,55,71,708
2,58,71,0
2,63,71,0
2,55,71,708
2,58,71,0
2,63,71,0
2,56,71,708
2,60,71,0
2,63,71,0
2,56,71,708
2,60,71,0
2,63,71,0
2,56,71,708
2,60,71,0
2,63,71,0
2,56,71,708
2,60,71,0
2,63,71,0
2,58,71,708
2,61,71,0
2,63,71,0
2,58,71,708
2,61,71,0
2,63,71,0
2,55,71,708
2,58,71,0
2,63,71,0
2,55,71,708
2,58,71,0
2,63,71,0
2,56,71,708
2,60,71,0
2,63,71,0
2,55,71,708
2,58,71,0
2,61,71,0
2,63,71,0
2,56,71,708
2,60,71,0
2,63,71,0
2,56,71,708
2,59,71,0
2,62,71,0
2,58,71,708
2,61,71,0
2,65,71,0
2,58,71,708
2,61,71,0
2,65,71,0
2,55,71,708
2,58,71,0
2,63,71,0
2,55,71,708
2,58,71,0
2,63,71,0
2,56,71,708
2,60,71,0
2,63,71,0
2,56,71,708
2,60,71,0
2,63,71,0
2,56,71,708
2,60,71,0
2,63,71,0
2,56,71,708
2,60,71,0
2,63,71,0
2,58,65,708
2,61,65,0
2,65,65,0
2,58,65,708
2,61,65,0
2,65,65,0
2,58,65,708
2,61,65,0
2,65,65,0
2,58,65,708
2,61,65,0
2,65,65,0
2,56,65,324
2,60,65,0
2,63,65,0
2,54,64,2244
2,57,64,0
2,59,64,0
2,63,64,0
2,57,49,54
2,59,49,0
2,63,49,0
2,52,106,494
2,56,106,0
2,52,106,704
2,56,106,0
2,52,106,704
2,57,106,0
2,52,106,704
2,57,106,0
2,52,106,704
2,56,106,0
2,52,106,704
2,56,106,0
2,52,106,704
2,56,106,0
2,52,106,704
2,56,106,0
2,53,106,704
2,58,106,0
2,53,106,704
2,58,106,0
2,54,106,704
2,59,106,0
2,53,106,704
2,58,106,0
2,53,94,2112
2,56,94,0
2,61,94,0
2,58,94,64
2,56,71,802
2,59,71,0
2,62,71,0
2,58,71,708
2,61,71,0
2,65,71,0
2,58,71,708
2,61,71,0
2,65,71,0
2,55,71,708
2,58,71,0
2,63,71,0
2,55,71,708
2,58,71,0
2,63,71,0
2,56,71,708
2,60,71,0
2,63,71,0
2,56,71,708
2,60,71,0
2,63,71,0
2,56,71,708
2,60,71,0
2,63,71,0
2,56,71,708
2,60,71,0
2,63,71,0
2,58,71,708
2,61,71,0
2,63,71,0
2,58,71,708
2,61,71,0
2,63,71,0
2,55,71,708
2,58,71,0
2,63,71,0
2,55,71,708
2,58,71,0
2,63,71,0
2,58,71,708
2,60,71,0
2,63,71,0
2,66,71,0
2,58,71,708
2,60,71,0
2,63,71,0
2,66,71,0
2,57,71,708
2,60,71,0
2,63,71,0
2,65,71,0
2,57,71,708
2,60,71,0
2,63,71,0
2,65,71,0
2,58,71,708
2,61,71,0
2,65,71,0
2,58,71,708
2,61,71,0
2,65,71,0
2,56,71,708
2,61,71,0
2,64,71,0
2,56,71,708
2,61,71,0
2,64,71,0
2,56,71,708
2,60,71,0
2,63,71,0
2,56,71,708
2,60,71,0
2,63,71,0
2,56,71,708
2,60,71,0
2,63,71,0
2,56,71,708
2,60,71,0
2,65,71,0
2,58,71,708
2,61,71,0
2,64,71,0
2,58,71,708
2,61,71,0
2,64,71,0
2,55,71,708
2,58,71,0
2,63,71,0
2,55,71,708
2,58,71,0
2,63,71,0
2,58,71,708
2,61,71,0
2,65,71,0
2,58,71,324
2,61,71,0
2,65,71,0
2,58,71,324
2,61,71,0
2,65,71,0
2,56,71,196
2,60,71,0
2,63,71,0
2,56,80,1988
2,60,80,0
2,63,80,0
2,65,80,0
2,56,80,706
2,60,80,0
2,63,80,0
2,65,80,0
2,58,80,702
2,62,80,0
2,65,80,0
2,58,80,698
2,62,80,0
2,65,80,0
2,55,80,686
2,58,80,0
2,62,80,0
2,65,80,0
2,55,80,694
2,58,80,0
2,62,80,0
2,65,80,0
2,55,80,692
2,58,80,0
2,63,80,0
2,55,80,678
2,58,80,0
2,63,80,0
2,56,80,686
2,60,80,0
2,63,80,0
2,65,80,0
2,56,80,706
2,60,80,0
2,63,80,0
2,65,80,0
2,58,80,702
2,62,80,0
2,65,80,0
2,58,80,698
2,62,80,0
2,65,80,0
2,55,80,686
2,58,80,0
2,63,80,0
2,55,80,694
2,58,80,0
2,63,80,0
2,56,80,2228
2,60,80,0
2,63,80,0
2,65,80,0
2,56,80,706
2,60,80,0
2,63,80,0
2,65,80,0
2,58,80,702
2,62,80,0
2,65,80,0
2,58,80,698
2,62,80,0
2,65,80,0
2,55,80,686
2,58,80,0
2,62,80,0
2,65,80,0
2,55,80,694
2,58,80,0
2,62,80,0
2,65,80,0
2,55,80,692
2,58,80,0
2,63,80,0
2,55,80,678
2,58,80,0
2,63,80,0
2,56,80,686
2,60,80,0
2,63,80,0
2,65,80,0
2,56,80,706
2,60,80,0
2,63,80,0
2,65,80,0
2,58,80,702
2,62,80,0
2,65,80,0
2,58,80,698
2,62,80,0
2,65,80,0
2,55,80,174
2,58,80,0
2,63,80,0
2,54,80,3510
2,59,80,0
2,63,80,0
2,54,80,706
2,59,80,0
2,63,80,0
2,56,80,702
2,59,80,0
2,64,80,0
2,56,80,698
2,59,80,0
2,61,80,0
2,65,80,0
2,59,80,686
2,63,80,0
2,66,80,0
2,54,80,694
2,59,80,0
2,63,80,0
2,54,80,692
2,59,80,0
2,63,80,0
2,54,80,678
2,59,80,0
2,63,80,0
2,58,80,686
2,60,80,0
2,63,80,0
2,65,80,0
2,58,80,708
2,60,80,0
2,63,80,0
2,65,80,0
2,57,80,720
2,60,80,0
2,63,80,0
2,65,80,0
2,57,80,700
2,60,80,0
2,63,80,0
2,65,80,0
2,53,80,332
2,56,80,0
2,58,80,0
2,62,80,0
2,56,80,3404
2,60,80,0
2,63,80,0
2,65,80,0
2,56,80,706
2,60,80,0
2,63,80,0
2,65,80,0
2,58,80,702
2,62,80,0
2,65,80,0
2,58,80,698
2,62,80,0
2,65,80,0
2,55,80,686
2,58,80,0
2,62,80,0
2,65,80,0
2,55,80,694
2,58,80,0
2,62,80,0
2,65,80,0
2,55,80,692
2,58,80,0
2,63,80,0
2,55,80,678
2,58,80,0
2,63,80,0
2,56,80,686
2,60,80,0
2,63,80,0
2,65,80,0
2,56,80,706
2,60,80,0
2,63,80,0
2,65,80,0
2,58,80,702
2,62,80,0
2,65,80,0
2,58,80,698
2,62,80,0
2,65,80,0
2,55,80,686
2,58,80,0
2,62,80,0
2,65,80,0
2,55,80,694
2,58,80,0
2,62,80,0
2,65,80,0
2,55,80,692
2,58,80,0
2,60,80,0
2,64,80,0
2,55,80,694
2,58,80,0
2,60,80,0
2,64,80,0
2,53,80,692
2,56,80,0
2,60,80,0
2,63,80,0
2,53,80,648
2,56,80,0
2,60,80,0
2,63,80,0
2,53,80,646
2,56,80,0
2,59,80,0
2,63,80,0
2,53,80,688
2,56,80,0
2,59,80,0
2,63,80,0
2,51,80,678
2,55,80,0
2,58,80,0
2,62,80,0
2,51,80,700
2,55,80,0
2,58,80,0
2,62,80,0
2,51,80,704
2,55,80,0
2,58,80,0
2,62,80,0
2,51,80,694
2,55,80,0
2,58,80,0
2,62,80,0
2,53,80,702
2,56,80,0
2,59,80,0
2,63,80,0
2,53,80,708
2,56,80,0
2,59,80,0
2,63,80,0
2,53,80,186
2,56,80,0
2,58,80,0
2,62,80,0
2,51,95,2988
2,58,91,0
2,62,101,4
2,66,114,0
2,51,101,104
2,58,93,0
2,63,104,48
2,67,104,0
2,55,91,74
2,61,85,2
2,51,99,2
2,58,81,0
2,65,103,0
3,63,84,7452
3,62,84,272
3,61,84,130
3,63,79,256
3,65,73,30
3,67,92,184
3,65,73,282
3,63,59,8
3,63,90,190
3,60,61,8
3,63,77,256
3,65,75,10
3,67,81,168
3,65,76,174
3,63,67,8
3,61,81,146
3,67,66,388
3,67,75,134
3,67,80,118
3,68,67,118
3,67,74,2
3,65,80,150
3,60,64,2
3,63,87,448
3,62,78,108
3,61,75,2
3,63,62,112
3,65,75,16
3,67,71,116
3,65,71,18
3,63,68,2
3,63,77,126
3,60,57,66
3,63,62,112
3,65,73,2
3,67,81,208
3,65,84,136
3,63,71,42
3,61,71,118
3,72,77,188
3,72,77,62
3,72,83,242
3,72,84,228
3,68,77,18
3,65,70,762
3,61,49,170
3,58,41,32
3,55,52,184
3,60,71,48
3,71,94,1832
3,71,70,112
3,71,90,82
3,68,94,614
3,68,81,236
3,64,88,256
3,64,90,624
3,64,63,152
3,64,78,84
3,64,94,152
3,71,96,380
3,71,96,236
3,70,73,204
3,70,94,366
3,70,90,130
3,70,104,276
3,72,99,694
3,72,107,212
3,72,107,226
3,72,94,656
3,63,81,814
3,62,72,2
3,61,71,2
3,67,76,256
3,67,78,62
3,67,84,152
3,65,73,40
3,63,69,2
3,63,87,156
3,60,62,56
3,67,83,144
3,67,78,68
3,67,94,162
3,65,83,2
3,63,75,2
3,63,87,136
3,61,52,40
3,75,90,284
3,75,79,74
3,75,84,162
3,75,94,76
3,75,90,168
3,75,94,126
3,75,84,590
3,75,75,146
3,73,68,4
3,75,77,298
3,75,84,102
3,75,94,166
3,75,90,164
3,73,87,128
3,72,88,140
3,72,84,826
3,72,83,90
3,72,92,176
3,70,63,52
3,68,81,120
3,68,84,160
3,68,90,2
3,72,94,124
3,72,92,122
3,67,80,8
3,72,90,244
3,72,92,228
3,68,90,2
4,80,122,1884
4,76,122,2
4,76,122,256
4,75,122,2
4,75,122,256
4,73,122,2
4,73,122,256
4,68,122,2
4,70,122,2
4,72,122,2
4,75,122,256
4,78,122,256
4,76,122,2
4,75,122,2
4,72,79,57216
4,72,79,6
4,70,79,2
4,72,79,2
4,72,101,5016
4,75,99,156
4,79,96,16
4,77,94,160
4,75,94,28
4,72,107,64
4,68,104,66
4,67,101,88
4,70,99,1190
4,72,92,44
4,74,101,146
4,77,92,58
4,75,94,124
4,79,96,48
4,74,99,118
4,72,96,36
4,72,109,1368
4,75,89,18
4,79,104,56
4,82,95,64
4,82,115,126
4,79,112,188
4,77,101,1264
4,75,109,176
4,77,97,30
4,75,104,2
4,74,95,38
4,72,101,52
4,70,95,16
4,67,81,46
4,65,101,50
4,63,99,2
4,62,88,38
4,63,89,30
4,67,97,44
4,70,86,38
4,72,104,58
4,69,109,128
4,72,104,874
4,75,99,52
4,79,107,56
4,82,116,94
4,82,122,166
4,79,113,144
4,69,83,90
4,68,71,2
4,67,75,692
4,70,84,22
4,74,107,30
4,77,122,178
4,75,112,44
4,70,104,22
4,68,103,52
4,67,102,32
4,74,98,66
4,72,96,22
4,70,96,34
4,67,83,44
4,79,108,896
4,79,105,200
4,77,96,240
4,75,117,148
4,72,73,2
4,68,105,136
4,67,79,6
4,70,90,1132
4,72,94,200
4,75,62,6
4,79,99,58
4,82,109,18
4,79,84,10
4,73,116,4450
4,75,110,270
4,75,116,290
4,78,104,60
4,75,94,12
4,78,104,22
4,78,110,124
4,78,122,244
4,75,99,2
4,76,104,162
4,77,92,22
4,75,90,2
4,74,88,168
4,72,76,2
4,74,107,108
4,75,116,154
4,79,104,34
4,77,104,126
4,79,104,30
4,80,118,46
4,79,107,126
4,77,104,126
4,82,104,4
4,72,109,1142
4,75,89,18
4,79,104,56
4,82,95,64
4,82,115,126
4,79,112,188
4,67,99,1490
4,70,94,34
4,74,96,84
4,77,101,74
4,75,104,68
4,70,104,98
4,67,104,80
4,62,92,54
4,63,94,48
4,67,90,66
4,70,84,68
4,74,92,74
4,72,90,60
4,70,94,54
