track,note,velocity,time
3,54,104,1718
3,59,118,0
3,63,101,0
3,59,0,69
3,54,0,0
3,63,0,2
3,54,104,314
3,59,118,0
3,63,101,0
3,59,0,55
3,63,0,9
3,54,0,1
3,56,93,317
3,64,108,0
3,61,101,0
3,61,0,61
3,56,0,13
3,64,0,6
3,56,101,305
3,64,109,0
3,61,105,0
3,64,0,66
3,61,0,1
3,56,0,12
3,58,101,305
3,54,96,0
3,61,104,0
3,58,0,59
3,61,0,10
3,54,0,1
3,54,101,315
3,58,107,0
3,61,105,0
3,58,0,54
3,61,0,11
3,54,0,6
3,59,116,311
3,52,109,0
3,56,105,0
3,56,0,55
3,59,0,2
3,52,0,12
3,52,105,316
3,56,101,0
3,59,111,0
3,56,0,72
3,59,0,12
3,52,0,4
3,54,104,296
3,59,118,0
3,63,101,0
3,59,0,69
3,54,0,0
3,63,0,2
3,54,104,314
3,59,118,0
3,63,101,0
3,59,0,55
3,63,0,9
3,54,0,1
3,56,93,317
3,64,108,0
3,61,101,0
3,61,0,61
3,56,0,13
3,64,0,6
3,56,101,305
3,64,109,0
3,61,105,0
3,64,0,66
3,61,0,1
3,56,0,12
3,58,101,305
3,54,96,0
3,61,104,0
3,58,0,59
3,61,0,10
3,54,0,1
3,54,101,315
3,58,107,0
3,61,105,0
3,58,0,54
3,61,0,11
3,54,0,6
3,59,116,311
3,52,109,0
3,56,105,0
3,56,0,55
3,59,0,2
3,52,0,12
3,52,105,316
3,56,101,0
3,59,111,0
3,56,0,72
3,59,0,12
3,52,0,4
3,63,93,296
3,54,98,0
3,59,112,0
3,59,0,76
3,63,0,3
3,54,0,1
3,63,93,305
3,59,116,0
3,54,98,0
3,59,0,59
3,63,0,7
3,54,0,5
3,61,98,311
3,58,93,0
3,54,96,0
3,58,0,58
3,61,0,10
3,54,0,6
3,54,98,311
3,58,101,0
3,61,101,0
3,58,0,59
3,61,0,6
3,54,0,2
3,61,96,317
3,56,93,0
3,64,108,0
3,61,0,59
3,56,0,13
3,64,0,5
3,56,96,308
3,61,104,0
3,64,109,0
3,61,0,59
3,56,0,18
3,64,0,4
3,59,114,301
3,54,101,0
3,63,101,0
3,59,0,54
3,54,0,17
3,63,0,16
3,54,93,298
3,61,101,0
3,58,105,0
3,58,0,70
3,54,0,4
3,61,0,5
3,63,93,305
3,54,98,0
3,59,112,0
3,59,0,76
3,63,0,3
3,54,0,1
3,63,93,305
3,59,116,0
3,54,98,0
3,59,0,59
3,63,0,7
3,54,0,5
3,61,98,311
3,58,93,0
3,54,96,0
3,58,0,58
3,61,0,10
3,54,0,6
3,54,98,311
3,58,101,0
3,61,101,0
3,58,0,59
3,61,0,6
3,54,0,2
3,61,96,317
3,56,93,0
3,64,108,0
3,61,0,59
3,56,0,13
3,64,0,5
3,56,96,308
3,61,104,0
3,64,109,0
3,61,0,59
3,56,0,18
3,64,0,4
3,59,114,301
3,54,101,0
3,63,101,0
3,59,0,54
3,54,0,17
3,63,0,16
3,82,100,106
3,54,93,192
3,61,101,0
3,58,105,0
3,78,105,0
3,82,0,21
3,78,0,21
3,58,0,28
3,54,0,4
3,61,0,5
3,63,93,305
3,54,98,0
3,59,112,0
3,59,0,76
3,63,0,3
3,54,0,1
3,63,93,305
3,59,116,0
3,54,98,0
3,59,0,59
3,63,0,7
3,54,0,5
3,61,98,311
3,58,93,0
3,54,96,0
3,58,0,58
3,61,0,10
3,54,0,6
3,54,98,311
3,58,101,0
3,61,101,0
3,58,0,59
3,61,0,6
3,54,0,2
3,61,96,317
3,56,93,0
3,64,108,0
3,61,0,59
3,56,0,13
3,64,0,5
3,56,96,308
3,61,104,0
3,64,109,0
3,61,0,59
3,56,0,18
3,64,0,4
3,59,114,301
3,54,101,0
3,63,101,0
3,59,0,54
3,54,0,17
3,63,0,16
3,54,93,298
3,61,101,0
3,58,105,0
3,58,0,70
3,54,0,4
3,61,0,5
3,63,93,305
3,54,98,0
3,59,112,0
3,59,0,76
3,63,0,3
3,54,0,1
3,63,93,305
3,59,116,0
3,54,98,0
3,59,0,59
3,63,0,7
3,54,0,5
3,61,98,311
3,58,93,0
3,54,96,0
3,58,0,58
3,61,0,10
3,54,0,6
3,54,98,311
3,58,101,0
3,61,101,0
3,58,0,59
3,61,0,6
3,54,0,2
3,61,96,317
3,56,93,0
3,64,108,0
3,61,0,59
3,56,0,13
3,64,0,5
3,56,96,308
3,61,104,0
3,64,109,0
3,61,0,59
3,56,0,18
3,64,0,4
3,59,114,301
3,54,101,0
3,63,101,0
3,59,0,54
3,54,0,17
3,63,0,16
3,54,93,298
3,61,101,0
3,58,105,0
3,58,0,70
3,54,0,4
3,61,0,5
3,63,93,305
3,54,98,0
3,59,112,0
3,59,0,76
3,63,0,3
3,54,0,1
3,63,93,305
3,59,116,0
3,54,98,0
3,59,0,59
3,63,0,7
3,54,0,5
3,61,98,311
3,58,93,0
3,54,96,0
3,58,0,58
3,61,0,10
3,54,0,6
3,54,98,311
3,58,101,0
3,61,101,0
3,58,0,59
3,61,0,6
3,54,0,2
3,61,96,317
3,56,93,0
3,64,108,0
3,61,0,59
3,56,0,13
3,64,0,5
3,56,96,308
3,61,104,0
3,64,109,0
3,61,0,59
3,56,0,18
3,64,0,4
3,59,114,301
3,54,101,0
3,63,101,0
3,59,0,54
3,54,0,17
3,63,0,16
3,54,93,298
3,61,101,0
3,58,105,0
3,58,0,70
3,54,0,4
3,61,0,5
3,63,93,305
3,54,98,0
3,59,112,0
3,59,0,76
3,63,0,3
3,54,0,1
3,63,93,305
3,59,116,0
3,54,98,0
3,59,0,59
3,63,0,7
3,54,0,5
3,61,98,311
3,58,93,0
3,54,96,0
3,58,0,58
3,61,0,10
3,54,0,6
3,54,98,311
3,58,101,0
3,61,101,0
3,58,0,59
3,61,0,6
3,54,0,2
3,61,96,317
3,56,93,0
3,64,108,0
3,61,0,59
3,56,0,13
3,64,0,5
3,56,96,308
3,61,104,0
3,64,109,0
3,61,0,59
3,56,0,18
3,64,0,4
3,59,114,301
3,54,101,0
3,63,101,0
3,59,0,54
3,54,0,17
3,63,0,16
3,82,100,106
3,54,93,192
3,61,101,0
3,58,105,0
3,78,105,0
3,82,0,21
3,78,0,21
3,58,0,28
3,54,0,4
3,61,0,5
3,63,93,305
3,54,98,0
3,59,112,0
3,59,0,76
3,63,0,3
3,54,0,1
3,63,93,305
3,59,116,0
3,54,98,0
3,59,0,59
3,63,0,7
3,54,0,5
3,61,98,311
3,58,93,0
3,54,96,0
3,58,0,58
3,61,0,10
3,54,0,6
3,54,98,311
3,58,101,0
3,61,101,0
3,58,0,59
3,61,0,6
3,54,0,2
3,61,96,317
3,56,93,0
3,64,108,0
3,61,0,59
3,56,0,13
3,64,0,5
3,56,96,308
3,61,104,0
3,64,109,0
3,61,0,59
3,56,0,18
3,64,0,4
3,59,114,301
3,54,101,0
3,63,101,0
3,59,0,54
3,54,0,17
3,63,0,16
3,54,93,298
3,61,101,0
3,58,105,0
3,58,0,70
3,54,0,4
3,61,0,5
3,63,93,305
3,54,98,0
3,59,112,0
3,59,0,76
3,63,0,3
3,54,0,1
3,63,93,305
3,59,116,0
3,54,98,0
3,59,0,59
3,63,0,7
3,54,0,5
3,61,98,311
3,58,93,0
3,54,96,0
3,58,0,58
3,61,0,10
3,54,0,6
3,54,98,311
3,58,101,0
3,61,101,0
3,58,0,59
3,61,0,6
3,54,0,2
3,54,80,1853
3,59,108,0
3,63,90,0
3,59,0,94
3,63,0,1
3,54,0,3
3,54,93,287
3,63,93,0
3,59,111,0
3,59,0,94
3,63,0,2
3,54,0,1
3,56,88,285
3,59,108,0
3,64,107,0
3,56,0,98
3,59,0,3
3,64,0,13
3,56,86,271
3,64,104,0
3,59,109,0
3,56,0,107
3,59,0,3
3,64,0,4
3,61,93,270
3,54,88,0
3,58,93,0
3,58,0,97
3,61,0,1
3,54,0,7
3,54,96,280
3,61,96,0
3,58,98,0
3,58,0,89
3,61,0,5
3,54,0,6
3,56,86,282
3,64,104,0
3,59,107,0
3,56,0,94
3,59,0,5
3,64,0,6
3,56,84,280
3,59,108,0
3,64,107,0
3,56,0,97
3,59,0,4
3,64,0,12
3,54,80,271
3,59,108,0
3,63,90,0
3,59,0,94
3,63,0,1
3,54,0,3
3,54,93,287
3,63,93,0
3,59,111,0
3,59,0,94
3,63,0,2
3,54,0,1
3,56,88,285
3,59,108,0
3,64,107,0
3,56,0,98
3,59,0,3
3,64,0,13
3,56,86,271
3,64,104,0
3,59,109,0
3,56,0,107
3,59,0,3
3,64,0,4
3,61,93,270
3,54,88,0
3,58,93,0
3,58,0,97
3,61,0,1
3,54,0,7
3,54,96,280
3,61,96,0
3,58,98,0
3,58,0,89
3,61,0,5
3,54,0,6
3,56,86,282
3,64,104,0
3,59,107,0
3,56,0,94
3,59,0,5
3,64,0,6
3,56,84,280
3,59,108,0
3,64,107,0
3,56,0,97
3,59,0,4
3,64,0,12
3,54,80,271
3,59,108,0
3,63,90,0
3,59,0,94
3,63,0,1
3,54,0,3
3,54,93,287
3,63,93,0
3,59,111,0
3,59,0,94
3,63,0,2
3,54,0,1
3,56,88,285
3,59,108,0
3,64,107,0
3,56,0,98
3,59,0,3
3,64,0,13
3,56,86,271
3,64,104,0
3,59,109,0
3,56,0,107
3,59,0,3
3,64,0,4
3,61,93,270
3,54,88,0
3,58,93,0
3,58,0,97
3,61,0,1
3,54,0,7
3,54,96,280
3,61,96,0
3,58,98,0
3,58,0,89
3,61,0,5
3,54,0,6
3,56,86,282
3,64,104,0
3,59,107,0
3,56,0,94
3,59,0,5
3,64,0,6
3,56,84,280
3,59,108,0
3,64,107,0
3,56,0,97
3,59,0,4
3,64,0,12
3,54,80,271
3,59,108,0
3,63,90,0
3,59,0,94
3,63,0,1
3,54,0,3
3,54,93,287
3,63,93,0
3,59,111,0
3,59,0,94
3,63,0,2
3,54,0,1
3,56,88,285
3,59,108,0
3,64,107,0
3,56,0,98
3,59,0,3
3,64,0,13
3,56,86,271
3,64,104,0
3,59,109,0
3,56,0,107
3,59,0,3
3,64,0,4
3,61,93,270
3,54,88,0
3,58,93,0
3,58,0,97
3,61,0,1
3,54,0,7
3,54,96,280
3,61,96,0
3,58,98,0
3,58,0,89
3,61,0,5
3,54,0,6
3,56,86,282
3,64,104,0
3,59,107,0
3,56,0,94
3,59,0,5
3,64,0,6
3,56,84,280
3,59,108,0
3,64,107,0
3,56,0,97
3,59,0,4
3,64,0,12
3,54,80,271
3,59,108,0
3,63,90,0
3,59,0,94
3,63,0,1
3,54,0,3
3,54,93,287
3,63,93,0
3,59,111,0
3,59,0,94
3,63,0,2
3,54,0,1
3,56,88,285
3,59,108,0
3,64,107,0
3,56,0,98
3,59,0,3
3,64,0,13
3,56,86,271
3,64,104,0
3,59,109,0
3,56,0,107
3,59,0,3
3,64,0,4
3,61,93,270
3,54,88,0
3,58,93,0
3,58,0,97
3,61,0,1
3,54,0,7
3,54,96,280
3,61,96,0
3,58,98,0
3,58,0,89
3,61,0,5
3,54,0,6
3,56,86,282
3,64,104,0
3,59,107,0
3,56,0,94
3,59,0,5
3,64,0,6
3,56,84,280
3,59,108,0
3,64,107,0
3,56,0,97
3,59,0,4
3,64,0,12
3,54,80,271
3,59,108,0
3,63,90,0
3,59,0,94
3,63,0,1
3,54,0,3
3,54,93,287
3,63,93,0
3,59,111,0
3,59,0,94
3,63,0,2
3,54,0,1
3,56,88,285
3,59,108,0
3,64,107,0
3,56,0,98
3,59,0,3
3,64,0,13
3,56,86,271
3,64,104,0
3,59,109,0
3,56,0,107
3,59,0,3
3,64,0,4
3,61,93,270
3,54,88,0
3,58,93,0
3,58,0,97
3,61,0,1
3,54,0,7
3,54,96,280
3,61,96,0
3,58,98,0
3,58,0,89
3,61,0,5
3,54,0,6
3,56,86,282
3,64,104,0
3,59,107,0
3,56,0,94
3,59,0,5
3,64,0,6
3,56,84,280
3,59,108,0
3,64,107,0
3,56,0,97
3,59,0,4
3,64,0,12
3,63,93,271
3,54,98,0
3,59,112,0
3,59,0,76
3,63,0,3
3,54,0,1
3,63,93,305
3,59,116,0
3,54,98,0
3,59,0,59
3,63,0,7
3,54,0,5
3,61,98,311
3,58,93,0
3,54,96,0
3,58,0,58
3,61,0,10
3,54,0,6
3,54,98,311
3,58,101,0
3,61,101,0
3,58,0,59
3,61,0,6
3,54,0,2
3,61,96,317
3,56,93,0
3,64,108,0
3,61,0,59
3,56,0,13
3,64,0,5
3,56,96,308
3,61,104,0
3,64,109,0
3,61,0,59
3,56,0,18
3,64,0,4
3,59,114,301
3,54,101,0
3,63,101,0
3,59,0,54
3,54,0,17
3,63,0,16
3,54,93,298
3,61,101,0
3,58,105,0
3,58,0,70
3,54,0,4
3,61,0,5
3,63,93,305
3,54,98,0
3,59,112,0
3,59,0,76
3,63,0,3
3,54,0,1
3,63,93,305
3,59,116,0
3,54,98,0
3,59,0,59
3,63,0,7
3,54,0,5
3,61,98,311
3,58,93,0
3,54,96,0
3,58,0,58
3,61,0,10
3,54,0,6
3,54,98,311
3,58,101,0
3,61,101,0
3,58,0,59
3,61,0,6
3,54,0,2
3,61,96,317
3,56,93,0
3,64,108,0
3,61,0,59
3,56,0,13
3,64,0,5
3,56,96,308
3,61,104,0
3,64,109,0
3,61,0,59
3,56,0,18
3,64,0,4
3,59,114,301
3,54,101,0
3,63,101,0
3,59,0,54
3,54,0,17
3,63,0,16
3,82,100,106
3,54,93,192
3,61,101,0
3,58,105,0
3,78,105,0
3,82,0,21
3,78,0,21
3,58,0,28
3,54,0,4
3,61,0,5
3,63,93,305
3,54,98,0
3,59,112,0
3,59,0,76
3,63,0,3
3,54,0,1
3,63,93,305
3,59,116,0
3,54,98,0
3,59,0,59
3,63,0,7
3,54,0,5
3,61,98,311
3,58,93,0
3,54,96,0
3,58,0,58
3,61,0,10
3,54,0,6
3,54,98,311
3,58,101,0
3,61,101,0
3,58,0,59
3,61,0,6
3,54,0,2
3,61,96,317
3,56,93,0
3,64,108,0
3,61,0,59
3,56,0,13
3,64,0,5
3,56,96,308
3,61,104,0
3,64,109,0
3,61,0,59
3,56,0,18
3,64,0,4
3,59,114,301
3,54,101,0
3,63,101,0
3,59,0,54
3,54,0,17
3,63,0,16
3,54,93,298
3,61,101,0
3,58,105,0
3,58,0,70
3,54,0,4
3,61,0,5
3,63,93,305
3,54,98,0
3,59,112,0
3,59,0,76
3,63,0,3
3,54,0,1
3,63,93,305
3,59,116,0
3,54,98,0
3,59,0,59
3,63,0,7
3,54,0,5
3,61,98,311
3,58,93,0
3,54,96,0
3,58,0,58
3,61,0,10
3,54,0,6
3,54,98,311
3,58,101,0
3,61,101,0
3,58,0,59
3,61,0,6
3,54,0,2
3,61,96,317
3,56,93,0
3,64,108,0
3,61,0,59
3,56,0,13
3,64,0,5
3,56,96,308
3,61,104,0
3,64,109,0
3,61,0,59
3,56,0,18
3,64,0,4
3,59,84,301
3,54,84,0
3,63,84,0
3,59,0,54
3,54,0,17
3,63,0,16
3,54,75,298
3,61,75,0
3,58,75,0
3,58,0,70
3,54,0,4
3,61,0,5
3,63,93,305
3,54,98,0
3,59,112,0
3,59,0,76
3,63,0,3
3,54,0,1
3,63,93,305
3,59,116,0
3,54,98,0
3,59,0,59
3,63,0,7
3,54,0,5
3,61,98,311
3,58,93,0
3,54,96,0
3,58,0,58
3,61,0,10
3,54,0,6
3,54,98,311
3,58,101,0
3,61,101,0
3,58,0,59
3,61,0,6
3,54,0,2
3,61,96,317
3,56,93,0
3,64,108,0
3,61,0,59
3,56,0,13
3,64,0,5
3,56,96,308
3,61,104,0
3,64,109,0
3,61,0,59
3,56,0,18
3,64,0,4
3,59,114,301
3,54,101,0
3,63,101,0
3,59,0,54
3,54,0,17
3,63,0,16
3,54,93,298
3,61,101,0
3,58,105,0
3,58,0,70
3,54,0,4
3,61,0,5
3,63,93,305
3,54,98,0
3,59,112,0
3,59,0,76
