track,note,velocity,time
1,35,101,1536
1,35,98,350
1,35,89,440
1,35,92,344
1,35,89,144
1,35,86,258
1,35,86,258
1,35,86,234
1,35,86,230
1,35,86,200
1,35,86,222
1,35,86,206
1,35,86,198
1,35,83,194
1,35,83,186
1,35,89,204
1,35,92,318
1,35,92,308
1,35,104,150
1,35,101,236
1,35,104,212
1,35,98,510
1,35,95,582
1,35,95,614
1,35,86,686
1,35,86,654
1,35,89,268
1,35,86,1028
1,35,86,664
1,35,89,264
1,35,92,1052
1,35,89,656
1,35,95,274
1,35,95,1046
1,35,86,680
1,35,95,284
1,35,89,1026
1,35,89,672
1,35,95,282
1,35,95,1032
1,35,86,660
1,35,98,286
1,35,95,1070
1,35,89,632
1,35,98,280
1,35,95,1054
1,35,95,660
1,35,101,272
1,35,86,992
1,35,86,654
1,35,89,268
1,35,86,1028
1,35,86,664
1,35,89,264
1,35,92,1052
1,35,89,656
1,35,95,274
1,35,95,1046
1,35,86,680
1,35,95,284
1,35,89,1026
1,35,89,672
1,35,95,282
1,35,95,1032
1,35,86,660
1,35,98,286
1,35,95,1070
1,35,89,632
1,35,98,280
1,35,95,1054
1,35,95,660
1,35,101,272
1,35,95,992
1,35,98,636
1,35,101,254
1,35,101,992
1,35,101,630
1,35,101,254
1,35,101,996
1,35,95,608
1,35,101,254
1,35,98,994
1,35,98,644
1,35,101,258
1,35,101,984
1,35,98,636
1,35,101,272
1,35,101,1020
1,35,101,646
1,35,101,256
1,35,98,1012
1,35,101,648
1,35,101,272
1,35,101,1016
1,35,101,648
1,35,101,282
1,35,95,668
1,35,74,298
1,35,71,1004
1,35,71,1024
1,35,74,996
1,35,74,1010
1,35,80,1018
1,35,71,1006
1,35,80,1000
1,35,86,998
1,35,86,880
1,35,95,994
1,35,95,980
1,35,89,578
1,35,86,280
1,35,92,580
1,35,98,260
1,35,101,952
1,35,92,614
1,35,95,270
1,35,101,1058
1,35,89,662
1,35,101,286
1,35,98,1050
1,35,95,666
1,35,104,272
1,35,98,512
1,35,101,272
1,35,98,700
1,35,101,278
1,35,101,1072
1,35,98,692
1,35,101,268
1,35,101,1058
1,35,98,664
1,35,101,258
1,35,98,1076
1,35,89,658
1,35,98,296
1,35,92,642
1,35,104,300
1,35,98,510
1,35,95,582
1,35,95,614
1,35,86,686
1,35,86,654
1,35,89,268
1,35,86,1028
1,35,86,664
1,35,89,264
1,35,92,1052
1,35,89,656
1,35,95,274
1,35,95,1046
1,35,86,680
1,35,95,284
1,35,89,1026
1,35,89,672
1,35,95,282
1,35,95,1032
1,35,86,660
1,35,98,286
1,35,95,1070
1,35,89,632
1,35,98,280
1,35,95,1054
1,35,95,660
1,35,101,272
1,35,86,992
1,35,86,654
1,35,89,268
1,35,86,1028
1,35,86,664
1,35,89,264
1,35,92,1052
1,35,89,656
1,35,95,274
1,35,95,1046
1,35,86,680
1,35,95,284
1,35,89,1026
1,35,89,672
1,35,95,282
1,35,95,1032
1,35,86,660
1,35,98,286
1,35,95,1070
1,35,89,632
1,35,98,280
1,35,95,1054
1,35,95,660
1,35,101,272
1,35,95,992
1,35,98,636
1,35,101,254
1,35,101,992
1,35,101,630
1,35,101,254
1,35,101,996
1,35,95,608
1,35,101,254
1,35,98,994
1,35,98,644
1,35,101,258
1,35,101,984
1,35,98,636
1,35,101,272
1,35,101,1020
1,35,101,646
1,35,101,256
1,35,98,1012
1,35,101,648
1,35,101,272
1,35,101,1016
1,35,101,648
1,35,101,282
1,35,95,668
1,35,74,298
1,35,71,1004
1,35,71,1024
1,35,74,996
1,35,74,1010
1,35,80,1018
1,35,71,1006
1,35,80,1000
1,35,86,998
1,35,86,880
1,35,95,994
1,35,95,980
1,35,89,578
1,35,86,280
1,35,92,580
1,35,98,260
1,35,101,952
1,35,92,614
1,35,95,270
1,35,101,1058
1,35,89,662
1,35,101,286
1,35,98,1050
1,35,95,666
1,35,104,272
1,35,98,512
1,35,101,272
1,35,98,700
1,35,101,278
1,35,101,1072
1,35,98,692
1,35,101,268
1,35,101,1058
1,35,98,664
1,35,101,258
1,35,98,1076
1,35,89,658
1,35,98,296
1,35,92,642
1,35,101,300
1,35,98,700
1,35,101,278
1,35,101,1072
1,35,98,692
1,35,101,268
1,35,101,1058
1,35,98,664
1,35,101,258
1,35,98,1076
1,35,101,1788
1,35,104,240
1,35,101,1782
1,35,101,242
1,35,101,1758
1,35,104,240
1,35,95,1778
1,35,101,252
1,35,104,1742
1,35,107,216
2,38,71,2302
2,38,62,308
2,38,60,106
2,38,71,110
2,38,71,290
2,38,71,276
2,38,66,116
2,38,74,98
2,38,83,280
2,38,66,260
2,38,60,96
2,38,74,114
2,38,80,270
2,38,62,266
2,38,71,124
2,38,83,86
2,38,74,264
2,38,80,250
2,38,83,282
2,38,83,256
2,38,77,256
2,38,74,262
2,38,74,264
2,38,71,252
2,38,74,254
2,38,77,244
2,38,86,238
2,38,83,220
2,38,86,202
2,38,89,5662
2,38,92,2138
2,38,86,2154
2,38,89,2182
2,38,86,2178
2,38,86,2164
2,38,86,2182
2,38,86,2182
2,38,86,2182
2,38,89,2182
2,38,86,2162
2,38,89,2182
2,38,86,2178
2,38,86,2164
2,38,86,2182
2,38,86,2182
2,38,86,2182
2,38,74,1030
2,38,68,274
2,38,71,92
2,38,80,100
2,38,86,290
2,38,92,296
2,38,92,276
2,38,98,1428
2,38,101,2202
2,38,104,2172
2,38,104,2166
2,38,104,2154
2,38,104,2124
2,38,104,2132
2,38,104,2118
2,38,89,656
2,38,74,1438
2,38,80,2156
2,38,71,2192
2,38,83,2178
2,38,86,2198
2,38,89,1046
2,38,89,652
2,38,83,246
2,38,77,264
2,38,80,252
2,38,104,1398
2,38,104,2180
2,38,101,2200
2,38,104,2138
2,38,104,2138
2,38,104,2184
2,38,104,2228
2,38,86,2122
2,38,86,650
2,38,89,1408
2,38,92,2138
2,38,86,2154
2,38,89,2182
2,38,86,2178
2,38,86,2164
2,38,86,2182
2,38,86,2182
2,38,86,2182
2,38,89,2182
2,38,86,2162
2,38,89,2182
2,38,86,2178
2,38,86,2164
2,38,86,2182
2,38,86,2182
2,38,86,2182
2,38,74,1030
2,38,68,274
2,38,71,92
2,38,80,100
2,38,86,290
2,38,92,296
2,38,92,276
2,38,98,1428
2,38,101,2202
2,38,104,2172
2,38,104,2166
2,38,104,2154
2,38,104,2124
2,38,104,2132
2,38,104,2118
2,38,89,656
2,38,74,1438
2,38,80,2156
2,38,71,2192
2,38,83,2178
2,38,86,2198
2,38,89,1046
2,38,89,652
2,38,83,246
2,38,77,264
2,38,80,252
2,38,104,1398
2,38,104,2180
2,38,101,2200
2,38,104,2138
2,38,104,2138
2,38,104,2184
2,38,104,2228
2,38,86,2122
2,38,86,650
2,38,104,1408
2,38,104,2184
2,38,104,2228
2,38,95,2122
2,38,104,2182
2,38,104,2186
2,38,104,2160
2,38,98,2930
2,38,104,260
3,42,64,2398
3,42,48,166
3,42,54,250
3,42,58,254
3,42,42,264
3,42,60,270
3,42,50,252
3,42,52,296
3,42,60,264
3,42,54,250
3,42,62,302
3,42,60,254
3,42,64,242
3,42,58,248
3,42,56,248
3,42,64,248
3,42,58,242
3,42,58,244
3,42,58,250
3,42,52,250
3,42,60,252
3,42,60,234
3,42,60,234
3,42,54,236
3,42,54,234
3,42,50,216
3,42,48,228
3,42,50,232
3,42,46,246
3,42,46,248
3,42,58,260
3,42,52,242
3,42,50,240
3,42,60,244
3,42,52,242
3,42,60,246
3,42,74,224
3,42,60,260
3,42,50,72
3,42,68,80
3,42,77,264
3,42,74,266
3,42,80,256
3,42,83,254
3,42,71,260
3,42,71,72
3,42,77,72
3,42,92,248
3,42,83,250
3,42,83,156
3,42,71,358
3,42,68,286
3,42,64,76
3,42,60,102
3,42,64,272
3,42,62,260
3,42,62,268
3,42,74,272
3,42,58,274
3,42,52,114
3,42,66,118
3,42,62,270
3,42,62,276
3,42,66,278
3,42,74,270
3,42,60,272
3,42,60,100
3,42,71,114
3,42,71,274
3,42,60,268
3,42,68,284
3,42,71,266
3,42,71,266
3,42,64,94
3,42,58,106
3,42,71,308
3,42,62,274
3,42,60,308
3,42,71,308
3,42,68,276
3,42,64,106
3,42,71,100
3,42,71,284
3,42,66,284
3,42,64,306
3,42,71,272
3,42,56,272
3,42,60,134
3,42,62,82
3,42,71,268
3,42,68,270
3,42,68,266
3,42,66,270
3,42,58,266
3,42,62,124
3,42,62,80
3,42,68,258
3,42,66,274
3,42,71,266
3,42,64,258
3,42,60,272
3,42,66,118
3,42,58,78
3,42,66,258
3,42,68,250
3,42,71,264
3,42,71,250
3,42,68,286
3,42,64,76
3,42,60,102
3,42,64,272
3,42,62,260
3,42,62,268
3,42,74,272
3,42,58,274
3,42,52,114
3,42,66,118
3,42,62,270
3,42,62,276
3,42,66,278
3,42,74,270
3,42,60,272
3,42,60,100
3,42,71,114
3,42,71,274
3,42,60,268
3,42,68,284
3,42,71,266
3,42,71,266
3,42,64,94
3,42,58,106
3,42,71,308
3,42,62,274
3,42,60,308
3,42,71,308
3,42,68,276
3,42,64,106
3,42,71,100
3,42,71,284
3,42,66,284
3,42,64,306
3,42,71,272
3,42,56,272
3,42,60,134
3,42,62,82
3,42,71,268
3,42,68,270
3,42,68,266
3,42,66,270
3,42,58,266
3,42,62,124
3,42,62,80
3,42,68,258
3,42,66,274
3,42,71,266
3,42,64,258
3,42,60,272
3,42,66,118
3,42,58,78
3,42,66,258
3,42,68,250
3,42,71,264
3,42,86,250
3,42,74,272
3,42,58,76
3,42,68,98
3,44,89,244
3,42,71,280
3,42,83,268
3,42,86,258
3,42,77,262
3,42,66,88
3,42,77,96
3,44,95,246
3,42,71,268
3,42,83,272
3,42,89,250
3,42,71,268
3,42,74,110
3,42,71,94
3,44,86,232
3,42,80,284
3,42,77,284
3,42,86,282
3,42,83,270
3,42,71,76
3,42,86,84
3,44,86,256
3,42,80,276
3,42,86,282
3,42,86,262
3,42,86,270
3,42,68,82
3,42,86,86
3,44,89,258
3,42,77,278
3,42,86,276
3,42,89,272
3,42,80,270
3,42,64,84
3,42,86,108
3,44,89,260
3,42,74,274
3,42,71,296
3,42,86,258
3,42,68,260
3,42,60,126
3,42,83,130
3,44,92,210
3,42,71,282
3,42,80,280
3,49,98,242
3,42,58,280
3,42,68,92
3,42,86,80
3,42,86,256
3,42,74,278
3,42,86,270
3,42,66,300
3,42,62,318
3,42,54,68
3,42,71,110
3,44,71,288
3,44,52,318
3,44,46,126
3,44,62,128
3,42,64,324
3,42,60,276
3,42,60,128
3,42,68,116
3,44,62,284
3,44,58,284
3,44,54,128
3,44,71,138
3,42,68,306
3,42,60,292
3,42,64,134
3,42,74,132
3,44,74,282
3,44,60,284
3,44,60,116
3,44,71,130
3,42,68,288
3,42,64,300
3,42,64,128
3,42,74,120
3,44,77,290
3,44,66,282
3,44,62,108
3,44,77,114
3,42,66,274
3,42,62,276
3,42,74,290
3,42,89,276
3,42,89,254
3,42,83,256
3,42,89,258
3,42,86,254
3,42,95,246
3,42,95,238
3,42,80,68
3,42,86,80
3,42,64,76
3,42,89,98
3,42,80,88
3,42,66,86
3,42,54,312
3,42,46,130
3,42,64,106
3,42,80,288
3,42,71,318
3,42,74,300
3,42,83,302
3,42,64,292
3,42,60,122
3,42,62,80
3,42,86,306
3,42,86,310
3,42,89,312
3,42,89,308
3,42,58,308
3,42,58,130
3,42,77,102
3,42,89,272
3,42,89,290
3,42,86,278
3,42,86,308
3,42,86,284
3,42,52,124
3,42,68,110
3,42,86,74
3,42,92,82
3,42,89,282
3,42,71,112
3,42,80,96
3,42,77,84
3,42,89,78
3,42,77,278
3,42,66,102
3,42,71,80
3,42,92,276
3,42,89,280
3,42,86,278
3,42,92,294
3,42,86,288
3,42,58,112
3,42,74,120
3,42,95,278
3,42,62,88
3,42,68,84
3,42,64,88
3,42,74,92
3,42,74,82
3,42,86,84
3,42,89,282
3,42,60,86
3,42,77,88
3,42,101,276
3,42,95,286
3,42,92,282
3,42,101,286
3,42,89,284
3,42,71,92
3,42,71,90
3,42,71,64
3,42,77,84
3,42,71,94
3,42,71,94
3,42,74,86
3,42,71,78
3,42,74,72
3,42,74,88
3,42,60,260
3,42,50,72
3,42,68,80
3,42,77,264
3,42,74,266
3,42,80,256
3,42,83,254
3,42,71,260
3,42,71,72
3,42,77,72
3,42,92,248
3,42,83,250
3,42,83,156
3,42,71,358
3,42,68,286
3,42,64,76
3,42,60,102
3,42,64,272
3,42,62,260
3,42,62,268
3,42,74,272
3,42,58,274
3,42,52,114
3,42,66,118
3,42,62,270
3,42,62,276
3,42,66,278
3,42,74,270
3,42,60,272
3,42,60,100
3,42,71,114
3,42,71,274
3,42,60,268
3,42,68,284
3,42,71,266
3,42,71,266
3,42,64,94
3,42,58,106
3,42,71,308
3,42,62,274
3,42,60,308
3,42,71,308
3,42,68,276
3,42,64,106
3,42,71,100
3,42,71,284
3,42,66,284
3,42,64,306
3,42,71,272
3,42,56,272
3,42,60,134
3,42,62,82
3,42,71,268
3,42,68,270
3,42,68,266
3,42,66,270
3,42,58,266
3,42,62,124
3,42,62,80
3,42,68,258
3,42,66,274
3,42,71,266
3,42,64,258
3,42,60,272
3,42,66,118
3,42,58,78
3,42,66,258
3,42,68,250
3,42,71,264
3,42,71,250
3,42,68,286
3,42,64,76
3,42,60,102
3,42,64,272
3,42,62,260
3,42,62,268
3,42,74,272
3,42,58,274
3,42,52,114
3,42,66,118
3,42,62,270
3,42,62,276
3,42,66,278
3,42,74,270
3,42,60,272
3,42,60,100
3,42,71,114
3,42,71,274
3,42,60,268
3,42,68,284
3,42,71,266
3,42,71,266
3,42,64,94
3,42,58,106
3,42,71,308
3,42,62,274
3,42,60,308
3,42,71,308
3,42,68,276
3,42,64,106
3,42,71,100
3,42,71,284
3,42,66,284
3,42,64,306
3,42,71,272
3,42,56,272
3,42,60,134
3,42,62,82
3,42,71,268
3,42,68,270
3,42,68,266
3,42,66,270
3,42,58,266
3,42,62,124
3,42,62,80
3,42,68,258
3,42,66,274
3,42,71,266
3,42,64,258
3,42,60,272
3,42,66,118
3,42,58,78
3,42,66,258
3,42,68,250
3,42,71,264
3,42,86,250
3,42,74,272
3,42,58,76
3,42,68,98
3,44,89,244
3,42,71,280
3,42,83,268
3,42,86,258
3,42,77,262
3,42,66,88
3,42,77,96
3,44,95,246
3,42,71,268
3,42,83,272
3,42,89,250
3,42,71,268
3,42,74,110
3,42,71,94
3,44,86,232
3,42,80,284
3,42,77,284
3,42,86,282
3,42,83,270
3,42,71,76
3,42,86,84
3,44,86,256
3,42,80,276
3,42,86,282
3,42,86,262
3,42,86,270
3,42,68,82
3,42,86,86
3,44,89,258
3,42,77,278
3,42,86,276
3,42,89,272
3,42,80,270
3,42,64,84
3,42,86,108
3,44,89,260
3,42,74,274
3,42,71,296
3,42,86,258
3,42,68,260
3,42,60,126
3,42,83,130
3,44,92,210
3,42,71,282
3,42,80,280
3,49,98,242
3,42,58,280
3,42,68,92
3,42,86,80
3,42,86,256
3,42,74,278
3,42,86,270
3,42,66,300
3,42,62,318
3,42,54,68
3,42,71,110
3,44,71,288
3,44,52,318
3,44,46,126
3,44,62,128
3,42,64,324
3,42,60,276
3,42,60,128
3,42,68,116
3,44,62,284
3,44,58,284
3,44,54,128
3,44,71,138
3,42,68,306
3,42,60,292
3,42,64,134
3,42,74,132
3,44,74,282
3,44,60,284
3,44,60,116
3,44,71,130
3,42,68,288
3,42,64,300
3,42,64,128
3,42,74,120
3,44,77,290
3,44,66,282
3,44,62,108
3,44,77,114
3,42,66,274
3,42,62,276
3,42,74,290
3,42,89,276
3,42,89,254
3,42,83,256
3,42,89,258
3,42,86,254
3,42,95,246
3,42,95,238
3,42,80,68
3,42,86,80
3,42,64,76
3,42,89,98
3,42,80,88
3,42,66,86
3,42,54,312
3,42,46,130
3,42,64,106
3,42,80,288
3,42,71,318
3,42,74,300
3,42,83,302
3,42,64,292
3,42,60,122
3,42,62,80
3,42,86,306
3,42,86,310
3,42,89,312
3,42,89,308
3,42,58,308
3,42,58,130
3,42,77,102
3,42,89,272
3,42,89,290
3,42,86,278
3,42,86,308
3,42,86,284
3,42,52,124
3,42,68,110
3,42,86,74
