track,note,velocity,time
1,64,82,485
1,66,79,0
1,64,0,5
1,69,76,45
1,66,0,10
1,69,0,35
1,62,59,10
1,66,56,0
1,36,123,10
1,69,80,0
1,38,103,0
1,69,62,0
1,66,51,0
1,74,63,0
1,71,75,0
1,66,75,0
1,62,65,0
1,42,112,0
1,42,0,5
1,36,0,0
1,69,0,0
1,66,0,5
1,69,0,0
1,74,0,5
1,38,0,20
1,42,97,5
1,42,0,5
1,66,0,5
1,71,0,10
1,62,0,0
1,36,89,10
1,69,48,0
1,69,65,0
1,66,57,0
1,74,68,0
1,38,101,0
1,69,0,5
1,36,0,0
1,69,0,5
1,66,0,0
1,74,0,5
1,38,0,10
1,38,104,5
1,69,108,0
1,71,79,0
1,33,108,0
1,42,105,0
1,66,84,0
1,62,78,0
1,42,0,5
1,38,0,0
1,69,0,0
1,71,0,40
1,69,62,10
1,47,102,5
1,69,72,0
1,74,70,0
1,66,63,0
1,35,113,0
1,42,99,0
1,42,0,5
1,66,0,0
1,47,0,0
1,62,0,0
1,69,0,5
1,33,0,0
1,74,0,5
1,66,0,0
1,69,0,5
1,71,79,35
1,66,86,0
1,62,75,0
1,36,121,5
1,69,80,0
1,42,106,0
1,38,110,0
1,42,0,5
1,69,0,0
1,36,0,0
1,35,0,0
1,69,63,50
1,74,70,5
1,69,68,0
1,66,55,0
1,42,99,0
1,71,0,0
1,42,0,5
1,38,0,0
1,74,0,5
1,69,0,0
1,66,0,0
1,66,0,0
1,69,48,20
1,69,0,5
1,42,105,20
1,38,107,5
1,69,108,0
1,66,89,0
1,74,71,0
1,66,61,0
1,69,72,0
1,69,0,0
1,42,0,5
1,69,0,0
1,38,0,0
1,66,0,5
1,74,0,0
1,69,0,0
1,69,64,20
1,66,55,0
1,74,63,0
1,66,0,5
1,66,0,5
1,69,0,0
1,74,0,0
1,62,0,5
1,42,99,10
1,47,106,5
1,33,91,0
1,71,82,0
1,62,85,0
1,66,86,0
1,47,0,5
1,42,0,0
1,35,98,20
1,33,0,5
1,71,0,5
1,62,0,5
1,66,0,0
1,38,109,15
1,35,0,0
1,36,123,5
1,69,80,0
1,66,52,0
1,69,66,0
1,74,66,0
1,42,108,0
1,42,0,5
1,69,0,0
1,36,0,0
1,66,0,5
1,69,0,0
1,74,0,5
1,38,0,20
1,42,100,25
1,73,84,0
1,62,78,0
1,66,89,0
1,42,0,5
1,38,103,20
1,36,89,5
1,69,48,0
1,66,60,0
1,69,72,0
1,74,70,0
1,69,0,5
1,36,0,0
1,69,0,5
1,66,0,0
1,74,0,0
1,38,0,10
1,33,106,5
1,38,104,5
1,42,102,0
1,69,108,0
1,69,0,5
1,42,0,0
1,38,0,0
1,47,102,55
1,35,103,0
1,74,76,0
1,66,66,0
1,69,76,0
1,42,92,0
1,42,0,5
1,47,0,0
1,33,0,0
1,69,0,5
1,66,0,0
1,74,0,0
1,38,105,45
1,35,0,0
1,36,121,5
1,69,80,0
1,42,104,0
1,42,0,5
1,69,0,0
1,36,0,0
1,38,0,50
1,66,0,0
1,73,0,0
1,66,59,5
1,69,70,0
1,74,70,0
1,42,97,0
1,42,0,5
1,62,0,0
1,69,0,5
1,66,0,0
1,74,0,0
1,69,48,20
1,69,0,5
1,38,107,25
1,69,108,0
1,74,80,0
1,66,63,0
1,69,75,0
1,69,74,0
1,66,77,0
1,62,73,0
1,42,105,0
1,42,0,5
1,69,0,0
1,38,0,0
1,74,0,5
1,69,0,0
1,66,0,0
1,69,65,20
1,74,63,0
1,66,56,0
1,62,0,0
1,66,0,5
1,69,0,5
1,69,0,0
1,74,0,0
1,66,0,5
1,33,106,10
1,47,106,5
1,42,101,0
1,62,69,0
1,42,0,5
1,47,0,0
1,62,0,5
1,69,64,15
1,64,73,5
1,61,69,0
1,33,0,10
1,61,56,10
1,64,67,0
1,66,0,5
1,36,123,5
1,69,80,0
1,69,59,0
1,64,52,0
1,73,54,0
1,42,107,0
1,33,111,0
1,62,0,0
1,69,0,5
1,42,0,0
1,36,0,0
1,69,0,10
1,73,0,0
1,64,0,0
1,42,97,40
1,42,0,10
1,33,0,15
1,36,89,10
1,69,48,0
1,73,56,0
1,64,57,0
1,69,66,0
1,69,0,5
1,36,0,0
1,61,72,10
1,58,74,0
1,64,0,0
1,73,0,5
1,69,0,0
1,42,104,5
1,38,104,5
1,69,108,0
1,62,103,0
1,59,103,0
1,61,0,0
1,58,0,0
1,38,0,5
1,42,0,0
1,69,0,0
1,61,0,15
1,69,0,10
1,64,0,0
1,42,95,25
1,33,106,0
1,47,102,5
1,64,61,0
1,69,67,0
1,73,60,0
1,64,62,0
1,69,66,0
1,61,51,0
1,47,0,5
1,42,0,0
1,73,0,10
1,64,0,0
1,69,0,0
1,33,0,25
1,61,98,15
1,42,104,0
1,36,121,5
1,69,80,0
1,33,101,0
1,57,90,0
1,62,0,0
1,69,0,5
1,36,0,0
1,42,0,0
1,59,0,15
1,42,94,35
1,73,54,5
1,69,63,0
1,64,55,0
1,42,0,5
1,33,0,5
1,64,0,0
1,69,0,5
1,73,0,0
1,69,48,15
1,69,0,5
1,38,107,25
1,69,108,0
1,64,59,0
1,69,69,0
1,73,57,0
1,42,107,0
1,66,79,0
1,42,0,5
1,38,0,0
1,64,0,0
1,69,0,0
1,69,0,5
1,64,0,0
1,73,0,0
1,69,63,20
1,64,52,0
1,73,61,0
1,33,108,10
1,73,0,5
1,64,0,0
1,69,0,0
1,42,99,10
1,61,0,0
1,47,106,5
1,30,95,0
1,33,0,0
1,47,0,5
1,69,0,0
1,42,0,0
1,64,0,0
1,30,0,20
1,61,0,0
1,57,0,25
1,42,109,5
1,36,123,5
1,69,80,0
1,73,61,0
1,69,70,0
1,64,61,0
1,69,62,0
1,64,65,0
1,61,52,0
1,33,104,0
1,69,79,0
1,69,0,5
1,36,0,0
1,42,0,0
1,66,0,0
1,73,0,5
1,69,0,0
1,64,0,5
1,42,98,40
1,42,0,10
1,33,0,20
1,36,89,5
1,69,48,0
1,64,52,0
1,69,65,0
1,73,57,0
1,69,0,5
1,36,0,0
1,64,0,5
1,69,0,5
1,73,0,0
1,61,83,5
1,58,83,5
1,38,104,5
1,69,108,0
1,42,105,0
1,58,0,0
1,61,0,0
1,59,97,5
1,62,101,0
1,42,0,0
1,38,0,0
1,69,0,0
1,61,0,5
1,64,0,5
1,69,0,0
1,69,68,40
1,42,99,5
1,47,102,0
1,33,101,0
1,69,68,0
1,73,68,0
1,64,57,0
1,61,54,0
1,64,64,0
1,47,0,5
1,42,0,0
1,64,0,10
1,73,0,0
1,69,0,0
1,33,0,25
1,42,99,15
1,36,121,5
1,69,80,0
1,33,108,0
1,61,68,0
1,62,0,0
1,57,76,5
1,69,0,0
1,42,0,0
1,36,0,0
1,59,0,5
1,61,0,10
1,64,0,10
1,69,0,15
1,42,99,10
1,38,107,5
1,69,70,0
1,64,63,0
1,73,63,0
1,64,97,0
1,38,0,5
1,42,0,0
1,73,0,5
1,69,0,0
1,64,0,0
1,33,0,0
1,69,48,20
1,69,0,5
1,38,107,25
1,69,108,0
1,64,63,0
1,69,70,0
1,73,60,0
1,42,106,0
1,66,89,0
1,42,0,5
1,69,0,0
1,38,0,0
1,64,0,0
1,64,0,5
1,73,0,0
1,69,0,0
1,69,59,20
1,64,57,0
1,73,65,0
1,73,0,15
1,69,0,0
1,64,0,5
1,69,90,5
1,46,112,5
1,47,106,0
1,47,0,5
1,46,0,0
1,66,0,30
1,69,0,0
1,61,0,15
1,74,66,5
1,57,0,0
1,36,123,5
1,69,80,0
1,69,58,0
1,66,49,0
1,74,63,0
1,38,103,0
1,71,82,0
1,66,81,0
1,62,66,0
1,78,56,0
1,42,112,0
1,61,0,0
1,69,0,0
1,69,0,5
1,36,0,0
1,42,0,0
1,74,0,5
1,69,0,0
1,66,0,0
1,38,0,30
1,42,97,20
1,42,0,5
1,66,0,10
1,71,0,10
1,62,0,0
1,36,89,5
1,69,48,0
1,69,63,0
1,66,49,0
1,74,63,0
1,38,90,0
1,69,0,5
1,36,0,0
1,66,0,5
1,69,0,0
1,74,0,0
1,38,0,10
1,33,96,5
1,38,104,5
1,69,108,0
1,71,86,0
1,66,92,0
1,62,80,0
1,42,105,0
1,42,0,5
1,69,0,0
1,38,0,0
1,71,0,40
1,35,103,10
1,47,102,5
1,74,68,0
1,66,51,0
1,69,69,0
1,69,73,0
1,42,99,0
1,42,0,5
1,47,0,0
1,33,0,0
1,66,0,0
1,66,0,5
1,62,0,0
1,74,0,5
1,69,0,0
1,69,0,10
1,62,75,30
1,36,121,5
1,69,80,0
1,42,106,0
1,71,83,0
1,66,89,0
1,38,107,0
1,35,0,0
1,36,0,5
1,42,0,0
1,69,0,0
1,38,0,50
1,69,63,5
1,74,63,0
1,66,44,0
1,42,99,0
1,69,67,0
1,71,0,0
1,42,0,5
1,66,0,0
1,66,0,5
1,74,0,0
1,69,0,0
1,69,48,20
1,69,0,5
1,42,105,20
1,66,92,0
1,38,107,5
1,69,108,0
1,74,69,0
1,69,71,0
1,66,55,0
1,69,0,0
1,74,0,5
1,69,0,0
1,42,0,0
1,38,0,0
1,69,0,5
1,66,0,0
1,66,46,20
1,69,63,0
1,74,59,0
1,74,0,10
1,66,0,0
1,66,0,0
1,69,0,0
1,62,0,5
1,42,99,10
1,47,106,5
1,66,92,0
1,71,82,0
1,62,92,0
1,33,95,0
1,47,0,5
1,42,0,0
1,33,0,15
1,35,97,10
1,71,0,10
1,62,0,5
1,66,0,5
1,38,113,5
1,35,0,0
1,36,123,5
1,69,80,0
1,66,55,0
1,74,68,0
1,69,70,0
1,42,108,0
1,42,0,5
1,69,0,0
1,36,0,0
1,66,0,5
1,69,0,0
1,74,0,0
1,42,100,50
1,62,83,0
1,66,89,0
1,73,86,0
1,38,0,0
1,42,0,5
1,36,89,25
1,69,48,0
1,74,64,0
1,66,53,0
1,69,69,0
1,38,97,0
1,69,0,5
1,36,0,0
1,66,0,5
1,74,0,0
1,69,0,5
1,38,0,5
1,33,108,5
1,38,104,5
1,42,102,0
1,69,108,0
1,69,0,5
1,42,0,0
1,38,0,0
1,35,110,50
1,33,0,0
1,47,102,5
1,74,71,0
1,69,76,0
1,66,57,0
1,42,92,0
1,42,0,5
1,47,0,0
1,74,0,5
1,66,0,0
1,69,0,5
1,35,0,30
1,38,108,10
1,36,121,5
1,69,80,0
1,42,104,0
1,42,0,5
1,69,0,0
1,36,0,0
1,73,0,40
1,66,0,5
1,38,0,0
1,74,73,10
1,69,72,0
1,66,59,0
1,42,97,0
1,42,0,5
1,62,0,0
1,69,0,5
1,74,0,0
1,66,0,0
1,69,48,20
1,69,0,5
1,69,88,20
1,62,88,0
1,66,96,0
1,38,107,5
1,69,108,0
1,74,73,0
1,69,73,0
1,66,61,0
1,42,105,0
1,42,0,5
1,69,0,0
1,38,0,0
1,69,0,5
1,74,0,0
1,66,0,0
1,69,65,20
1,66,60,0
1,74,63,0
1,62,0,0
1,74,0,15
1,69,0,0
1,66,0,0
1,66,0,0
1,69,0,5
1,33,106,5
1,47,106,5
1,42,101,0
1,62,76,0
1,62,0,5
1,47,0,0
1,42,0,0
1,69,72,20
1,64,82,5
1,61,77,0
1,78,0,15
1,33,0,0
1,76,70,5
1,74,0,0
1,73,60,5
1,36,123,5
1,69,80,0
1,73,63,0
1,64,57,0
1,69,62,0
1,42,107,0
1,33,95,0
1,42,0,5
1,69,0,0
1,36,0,0
1,73,0,10
1,69,0,0
1,64,0,0
1,42,97,40
1,33,0,5
1,42,0,5
1,36,89,25
1,69,48,0
1,69,68,0
1,73,57,0
1,64,61,0
1,69,0,5
1,36,0,0
1,73,0,5
1,69,0,5
1,64,0,0
1,69,92,5
1,64,90,0
1,42,104,5
1,38,104,5
1,69,108,0
1,66,83,5
1,69,0,0
1,38,0,0
1,42,0,0
1,61,0,5
1,69,0,0
1,64,0,10
1,64,0,0
1,69,0,0
1,71,75,5
1,42,95,30
1,69,66,0
1,64,66,0
1,61,56,0
1,47,102,5
1,64,64,0
1,69,73,0
1,73,70,0
1,33,108,0
1,47,0,5
1,42,0,0
1,69,0,5
1,64,0,0
1,73,0,0
1,33,0,30
1,64,83,10
1,69,75,0
1,71,0,0
1,42,104,5
1,66,0,0
1,36,121,5
1,69,80,0
1,33,102,0
1,69,0,5
1,36,0,0
1,42,0,0
1,42,94,50
1,64,63,5
1,73,66,0
1,69,69,0
1,42,0,5
1,73,0,5
1,64,0,0
1,69,0,0
1,33,0,5
1,69,48,15
1,69,0,5
1,78,65,20
1,38,107,5
1,69,108,0
1,64,65,0
1,73,65,0
1,69,72,0
1,42,107,0
1,42,0,5
1,38,0,0
1,76,0,0
1,73,0,0
1,69,0,0
1,64,0,5
1,69,0,0
1,69,62,20
1,64,54,0
1,73,57,0
1,33,107,10
1,73,0,0
1,64,0,5
1,69,0,0
1,69,0,5
1,42,99,5
1,47,106,5
1,30,98,0
1,61,0,0
1,33,0,0
1,47,0,5
1,42,0,0
1,64,0,0
1,64,0,20
1,69,0,0
1,30,0,25
1,69,65,5
1,42,109,0
1,36,123,5
1,69,80,0
1,81,72,0
1,64,63,0
1,69,70,0
1,73,61,0
1,64,66,0
1,61,51,0
1,33,107,0
1,69,0,5
1,42,0,0
1,78,0,0
1,36,0,0
1,69,0,5
1,64,0,0
1,73,0,0
1,42,98,45
1,42,0,10
1,33,0,0
1,36,89,25
1,69,48,0
1,69,71,0
1,73,68,0
1,64,63,0
1,69,0,5
1,36,0,0
1,64,0,5
1,69,0,0
1,73,0,0
1,69,87,10
1,64,85,0
1,38,104,10
1,69,108,0
1,42,105,0
1,66,76,5
1,71,79,0
1,42,0,0
1,69,0,0
1,38,0,0
1,61,0,5
1,69,0,5
1,64,0,0
1,64,0,5
1,69,0,5
1,61,58,30
1,64,67,0
1,69,69,0
1,33,111,0
1,42,99,5
1,47,102,0
1,73,66,0
1,69,71,0
1,64,63,0
1,47,0,5
1,42,0,0
1,64,0,5
1,69,0,0
1,73,0,5
1,33,0,25
1,71,0,10
1,69,76,5
1,42,99,0
1,36,121,5
1,69,80,0
1,33,113,0
1,64,80,0
1,66,0,0
1,69,0,5
1,42,0,0
1,36,0,0
1,61,0,10
1,64,0,10
1,69,0,10
1,42,99,20
1,38,107,5
1,69,72,0
1,64,63,0
1,73,66,0
1,64,99,0
1,38,0,5
1,42,0,0
1,73,0,5
1,69,0,0
1,64,0,0
1,33,0,10
1,69,48,10
1,69,0,5
1,38,107,25
1,69,108,0
1,73,54,0
1,69,67,0
1,64,59,0
1,42,106,0
1,66,96,0
1,42,0,5
1,73,0,0
1,69,0,0
1,38,0,0
1,69,0,5
1,64,0,0
1,64,0,0
1,69,66,20
1,64,56,0
1,73,63,0
1,73,0,10
1,64,0,5
1,69,0,0
1,69,88,10
1,42,96,5
1,47,106,0
1,66,0,0
1,47,0,5
1,42,0,0
1,69,0,5
1,64,0,5
1,81,0,25
1,73,0,10
1,69,0,0
1,36,123,10
1,49,99,0
1,69,80,0
1,66,54,0
1,74,63,0
1,69,65,0
1,62,76,0
1,66,71,0
1,71,69,0
1,38,122,0
1,42,112,0
1,42,0,5
1,69,0,0
1,36,0,0
1,49,0,0
1,66,0,10
1,74,0,0
1,69,0,0
1,42,97,45
1,38,0,0
1,42,0,5
1,66,0,15
1,36,89,10
1,69,48,0
1,66,57,0
1,74,71,0
1,69,72,0
1,38,95,0
1,71,0,0
1,62,0,0
1,69,0,5
1,36,0,0
1,66,0,5
1,69,0,0
1,74,0,0
1,38,0,5
1,33,117,10
1,71,76,0
1,66,81,0
1,62,82,0
1,38,104,5
1,69,108,0
1,42,105,0
1,42,0,5
1,38,0,0
1,69,0,0
1,71,0,50
1,47,102,5
1,74,71,0
1,69,75,0
1,66,63,0
1,69,64,0
1,35,110,0
1,42,99,0
1,42,0,5
1,33,0,0
1,74,0,0
1,47,0,0
1,69,0,5
1,66,0,0
1,62,0,5
1,66,0,0
