track,note,velocity,time
1,65,55,672
1,67,60,0
1,70,65,16
1,74,70,96
1,79,75,64
1,77,70,144
1,72,55,0
1,67,65,0
1,65,55,0
1,67,60,0
1,70,65,8
1,74,70,96
1,79,75,48
1,77,60,144
1,79,70,0
1,79,55,0
1,75,65,8
1,65,55,0
1,67,60,0
1,70,65,8
1,74,70,96
1,79,75,48
1,77,70,144
1,72,60,0
1,67,65,0
1,70,75,0
1,65,70,0
1,62,65,8
1,58,75,8
1,57,70,8
1,51,75,0
1,71,75,0
1,67,65,96
1,64,60,64
1,72,73,16
1,69,63,96
1,67,57,64
1,74,70,16
1,71,60,96
1,69,55,64
1,76,65,16
1,72,60,96
1,70,55,64
1,77,60,16
1,74,53,96
1,71,50,64
1,65,55,16
1,67,60,0
1,70,65,16
1,74,70,96
1,79,75,64
1,77,70,144
1,72,60,0
1,67,65,0
1,65,55,0
1,67,60,0
1,70,65,8
1,74,70,96
1,79,75,48
1,77,60,144
1,79,70,0
1,79,55,0
1,75,65,8
1,65,55,0
1,67,60,0
1,70,65,8
1,74,70,96
1,79,75,48
1,77,70,144
1,72,60,0
1,67,65,0
1,70,75,0
1,65,70,0
1,62,65,8
1,58,75,8
1,57,70,8
1,51,75,0
1,71,75,0
1,67,65,96
1,64,60,64
1,72,73,16
1,69,63,96
1,67,57,64
1,74,70,16
1,71,60,96
1,69,55,64
1,76,65,16
1,72,60,96
1,70,55,64
1,77,60,16
1,74,53,96
1,71,50,64
1,65,55,8
1,67,60,0
1,70,65,16
1,74,70,96
1,79,75,64
1,77,70,144
1,72,60,0
1,67,65,0
1,65,55,0
1,67,60,0
1,70,65,8
1,74,70,96
1,79,75,48
1,77,60,144
1,79,70,0
1,79,55,0
1,75,65,8
1,65,55,0
1,67,60,0
1,70,65,8
1,74,70,96
1,79,75,48
1,77,70,144
1,72,60,0
1,67,65,0
1,70,75,0
1,65,70,0
1,62,65,8
1,58,75,8
1,57,70,8
1,51,75,0
1,71,75,0
1,67,65,96
1,64,60,64
1,72,73,16
1,69,63,96
1,67,57,64
1,74,70,16
1,71,60,96
1,69,55,64
1,76,65,16
1,72,60,96
1,71,55,64
1,64,65,8
1,69,75,0
1,69,75,96
1,74,75,8
1,67,75,16
1,74,75,8
1,66,75,0
1,74,75,8
1,52,85,0
1,57,95,0
1,66,75,192
1,71,75,8
1,64,75,56
1,71,75,8
1,62,75,0
1,71,75,8
1,52,76,0
1,57,85,0
1,52,105,0
1,52,100,992
1,57,110,0
1,52,100,1152
1,57,110,0
1,40,105,0
1,52,100,992
1,57,110,0
1,52,100,1152
1,57,110,0
1,52,100,1152
1,57,110,0
1,52,100,1152
1,57,110,0
1,52,100,1152
1,57,110,0
1,55,105,192
1,50,100,800
1,55,100,0
1,50,95,992
1,55,100,0
1,45,105,0
1,48,65,0
1,55,65,88
1,60,65,8
1,55,65,80
1,60,65,8
1,55,65,80
1,60,65,8
1,55,65,80
1,60,65,8
1,55,65,80
1,60,65,8
1,55,65,80
1,60,65,8
1,55,65,80
1,60,65,8
1,55,65,40
1,60,65,8
1,55,65,80
1,60,65,8
1,55,65,80
1,60,65,8
1,55,65,80
1,60,65,8
1,53,65,80
1,60,65,8
1,53,65,40
1,60,65,8
1,52,100,2672
1,57,90,0
1,52,105,232
1,52,100,992
1,57,110,0
1,52,100,1152
1,57,110,0
1,40,105,0
1,52,100,992
1,57,110,0
1,52,100,1152
1,57,110,0
1,52,100,1152
1,57,110,0
1,52,100,1152
1,57,110,0
1,52,100,1152
1,57,110,0
1,55,105,192
1,50,100,800
1,55,100,0
1,50,95,992
1,55,100,0
1,45,105,0
1,48,65,0
1,55,65,88
1,60,65,8
1,55,65,80
1,60,65,8
1,55,65,80
1,60,65,8
1,55,65,80
1,60,65,8
1,55,65,80
1,60,65,8
1,55,65,80
1,60,65,8
1,55,65,80
1,60,65,8
1,55,65,40
1,60,65,8
1,55,65,80
1,60,65,8
1,55,65,80
1,60,65,8
1,55,65,80
1,60,65,8
1,53,65,80
1,60,65,8
1,53,65,40
1,60,65,8
1,52,100,2672
1,57,110,0
1,52,105,192
1,52,100,992
1,57,110,0
1,52,100,1152
1,57,110,0
1,40,105,0
1,52,100,992
1,57,110,0
1,52,100,1152
1,57,110,0
1,52,100,1152
1,57,110,0
1,52,100,1152
1,57,110,0
1,52,100,1152
1,57,110,0
1,55,105,192
1,50,100,800
1,55,100,0
1,50,100,968
1,55,105,0
1,45,105,0
1,65,90,16
1,67,60,0
1,70,65,16
1,74,70,96
1,79,75,64
1,77,70,144
1,72,60,0
1,67,65,0
1,65,55,0
1,67,60,0
1,70,65,8
1,74,70,96
1,79,75,48
1,77,60,144
1,79,70,0
1,79,55,0
1,75,65,8
1,65,55,0
1,67,60,0
1,70,65,8
1,74,70,96
1,79,75,48
1,77,70,144
1,72,60,0
1,67,65,0
1,70,75,0
1,65,70,0
1,62,65,8
1,58,75,8
1,57,70,8
1,51,75,0
1,71,75,0
1,67,65,96
1,64,60,64
1,72,73,16
1,69,63,96
1,67,57,64
1,74,70,16
1,71,60,96
1,69,55,64
1,76,65,16
1,72,60,96
1,70,55,64
1,77,60,16
1,74,53,96
1,71,50,64
1,65,55,8
1,67,60,0
1,70,65,16
1,74,70,96
1,79,75,64
1,77,70,144
1,72,60,0
1,67,65,0
1,65,55,0
1,67,60,0
1,70,65,8
1,74,70,96
1,79,75,48
1,77,60,144
1,79,70,0
1,79,55,0
1,75,65,8
1,65,55,0
1,67,60,0
1,70,65,8
1,74,70,96
1,79,75,48
1,77,70,144
1,72,60,0
1,67,65,0
1,70,75,0
1,65,70,0
1,62,65,8
1,58,75,8
1,57,70,8
1,51,75,0
1,71,75,0
1,67,65,96
1,64,60,64
1,72,73,16
1,69,63,96
1,67,57,64
1,74,70,16
1,71,60,96
1,69,55,64
1,76,65,16
1,72,60,96
1,70,55,64
1,52,65,16
1,57,75,0
1,52,100,0
1,52,100,968
1,57,110,0
1,52,100,1152
1,57,110,0
1,40,105,0
1,52,100,992
1,57,110,0
1,52,100,1152
1,57,110,0
1,52,100,1152
1,57,110,0
1,52,100,1152
1,57,110,0
1,52,100,1152
1,57,110,0
1,55,105,192
1,50,100,800
1,55,100,0
1,57,125,0
1,56,85,192
1,57,95,8
1,59,105,8
1,59,90,144
1,61,100,8
1,63,110,8
1,64,85,144
1,66,90,0
1,68,100,0
1,64,90,8
1,66,95,0
1,68,105,0
1,66,95,8
1,68,100,0
1,69,105,0
1,66,100,8
1,68,105,0
1,69,110,0
1,68,105,8
1,69,110,0
1,71,115,0
1,69,110,8
1,68,105,0
1,66,100,48
1,66,95,0
1,68,100,48
1,69,105,0
1,68,110,0
1,66,105,48
1,64,100,0
1,63,95,0
1,61,85,48
1,59,80,0
1,61,85,0
1,63,95,48
1,64,100,0
1,64,110,0
1,64,105,0
1,66,105,0
1,66,110,0
1,68,115,48
1,66,110,0
1,64,105,0
1,63,100,0
1,63,95,0
1,61,90,48
1,59,85,0
1,57,90,0
1,59,85,48
1,61,90,0
1,61,95,0
1,63,100,48
1,64,105,0
1,66,110,0
1,64,95,0
1,63,85,8
1,63,100,0
1,63,95,0
1,61,90,48
1,59,85,0
1,57,90,0
1,59,85,48
1,61,90,0
1,61,95,0
1,63,100,48
1,64,105,0
1,66,110,0
1,64,95,0
1,63,85,8
2,65,90,2976
2,67,95,0
2,69,100,0
2,74,105,0
2,79,110,96
2,77,105,128
2,72,100,0
2,67,95,96
2,63,90,8
2,65,95,0
2,67,100,0
2,72,105,0
2,77,110,96
2,75,105,128
2,70,105,0
2,65,95,96
2,63,90,8
2,65,95,0
2,67,100,0
2,72,105,0
2,77,110,96
2,75,105,128
2,70,100,0
2,62,95,96
2,65,90,13744
2,67,95,0
2,69,100,0
2,74,105,0
2,79,110,96
2,77,105,128
2,72,100,0
2,67,95,96
2,65,90,8
2,67,95,0
2,69,100,0
2,74,105,0
2,79,110,96
2,77,105,128
2,72,100,0
2,67,95,96
2,65,90,8
2,67,95,0
2,69,100,0
2,74,105,0
2,79,110,96
2,77,105,128
2,72,100,0
2,67,95,96
2,63,90,8
2,65,90,0
2,67,100,0
2,72,105,0
2,77,110,96
2,75,105,128
2,70,100,0
2,65,95,96
2,63,90,8
2,65,95,0
2,67,100,0
2,72,105,0
2,77,110,96
2,75,105,128
2,70,100,0
2,62,90,96
2,65,90,41392
2,67,95,0
2,69,100,0
2,74,105,0
2,79,110,96
2,77,105,128
2,72,100,0
2,67,95,96
2,65,90,8
2,67,95,0
2,69,100,0
2,74,105,0
2,79,110,96
2,77,105,128
2,72,100,0
2,67,95,96
2,65,90,8
2,67,95,0
2,69,100,0
2,74,105,0
2,79,110,96
2,77,105,128
2,72,100,0
2,67,95,96
2,63,90,8
2,65,90,0
2,67,100,0
2,72,105,0
2,77,110,96
2,75,105,128
2,70,100,0
2,65,95,96
2,63,90,8
2,65,95,0
2,67,100,0
2,72,105,0
2,77,110,96
2,75,105,128
2,74,90,8
2,70,100,8
2,65,90,8
2,72,105,16
2,67,81,0
2,64,90,96
2,74,100,16
2,69,95,0
2,66,90,96
2,76,100,16
2,73,95,0
2,75,100,96
2,76,110,16
2,56,85,0
2,57,95,8
2,59,105,8
2,59,90,40
2,61,100,8
2,63,110,8
2,64,85,144
2,66,90,0
2,68,100,0
2,64,90,8
2,66,95,0
2,68,105,0
2,66,95,8
2,68,100,0
2,69,105,0
2,66,100,8
2,68,105,0
2,69,110,0
2,68,105,8
2,69,110,0
2,71,115,0
2,69,110,8
2,68,105,0
2,66,100,48
2,66,95,0
2,68,100,48
2,69,105,0
2,68,110,0
2,66,105,48
2,64,100,0
2,63,95,0
2,61,85,48
2,59,80,0
2,61,85,0
2,63,95,48
2,64,100,0
2,64,110,0
2,64,105,0
2,66,105,0
2,66,110,0
2,68,115,48
2,66,110,0
2,64,105,0
2,63,100,0
2,63,95,0
2,61,90,48
2,59,85,0
2,57,90,0
2,59,85,48
2,61,90,0
2,61,95,0
2,63,100,48
2,64,105,0
2,66,110,0
2,64,95,0
2,63,85,8
2,63,100,0
2,63,95,0
2,61,90,48
2,59,85,0
2,57,90,0
2,59,85,48
2,61,90,0
2,61,95,0
2,63,100,48
2,64,105,0
2,66,110,0
2,64,95,0
2,63,85,8
3,56,100,1536
3,52,100,0
3,59,100,8
3,64,100,8
3,56,100,832
3,52,100,0
3,59,100,8
3,64,100,8
3,59,100,832
3,54,100,0
3,62,100,8
3,66,100,8
3,59,100,832
3,54,100,0
3,62,100,8
3,66,100,8
3,56,100,832
3,52,100,0
3,59,100,8
3,64,100,8
3,56,100,832
3,52,100,0
3,59,100,8
3,64,100,8
3,56,100,832
3,52,100,0
3,59,100,8
3,64,100,8
3,59,115,576
3,54,110,0
3,62,105,8
3,66,100,8
3,59,100,832
3,54,100,0
3,62,100,8
3,66,100,8
3,59,100,832
3,54,100,0
3,62,100,8
3,66,100,8
3,59,100,832
3,54,100,0
3,62,100,8
3,66,100,8
3,59,100,832
3,54,100,0
3,62,100,8
3,66,100,8
3,59,100,832
3,55,100,0
3,50,100,8
3,67,100,8
3,59,100,832
3,55,100,0
3,67,100,8
3,74,100,8
3,59,100,832
3,55,100,0
3,67,100,8
3,74,100,8
3,55,100,576
3,52,100,0
3,60,100,8
3,64,100,8
3,57,100,832
3,52,100,0
3,60,100,8
3,64,100,8
3,57,100,832
3,53,100,0
3,62,100,8
3,65,100,8
3,57,100,832
3,53,100,0
3,60,100,8
3,65,100,8
3,57,100,832
3,53,100,0
3,62,100,8
3,65,100,8
3,57,100,640
3,53,100,0
3,62,100,8
3,65,100,8
3,57,100,448
3,53,100,0
3,62,100,8
3,65,100,8
3,57,100,448
3,53,100,0
3,62,100,8
3,65,100,8
3,57,100,448
3,53,100,0
3,62,100,8
3,65,100,8
3,56,100,640
3,52,100,0
3,59,100,8
3,64,100,8
3,56,100,832
3,52,100,0
3,59,100,8
3,64,100,8
3,59,100,832
3,54,100,0
3,62,100,8
3,66,100,8
3,59,100,832
3,54,100,0
3,62,100,8
3,66,100,8
3,56,100,832
3,52,100,0
3,59,100,8
3,64,100,8
3,56,100,832
3,52,100,0
3,59,100,8
3,64,100,8
3,56,100,832
3,52,100,0
3,59,100,8
3,64,100,8
3,59,100,832
3,54,100,0
3,62,100,8
3,66,100,8
3,59,100,832
3,54,100,0
3,62,100,8
3,66,100,8
3,59,100,832
3,54,100,0
3,62,100,8
3,66,100,8
3,59,100,832
3,54,100,0
3,62,100,8
3,66,100,8
3,59,100,832
3,54,100,0
3,62,100,8
3,66,100,8
3,59,100,832
3,55,100,0
3,50,100,8
3,67,100,8
3,59,100,832
3,55,100,0
3,67,100,8
3,74,100,8
3,59,100,832
3,55,100,0
3,67,100,8
3,74,100,8
3,55,100,832
3,52,100,0
3,60,100,8
3,64,100,8
3,57,100,832
3,52,100,0
3,60,100,8
3,64,100,8
3,57,100,832
3,53,100,0
3,62,100,8
3,65,100,8
3,57,100,832
3,53,100,0
3,60,100,8
3,65,100,8
3,57,100,832
3,53,100,0
3,62,100,8
3,65,100,8
3,57,100,640
3,53,100,0
3,62,100,8
3,65,100,8
3,57,100,448
3,53,100,0
3,62,100,8
3,65,100,8
3,57,100,448
3,53,100,0
3,62,100,8
3,65,100,8
3,57,100,448
3,53,100,0
3,62,100,8
3,65,100,8
3,56,100,640
3,52,100,0
3,59,100,8
3,64,100,8
3,56,100,832
3,52,100,0
3,59,100,8
3,64,100,8
3,59,100,832
3,54,100,0
3,62,100,8
3,66,100,8
3,59,100,832
3,54,100,0
3,62,100,8
3,66,100,8
3,56,100,832
3,52,100,0
3,59,100,8
3,64,100,8
3,56,100,832
3,52,100,0
3,59,100,8
3,64,100,8
3,56,100,832
3,52,100,0
3,59,100,8
3,64,100,8
3,59,100,832
3,54,100,0
3,62,100,8
3,66,100,8
3,59,100,832
3,54,100,0
3,62,100,8
3,66,100,8
3,59,100,832
3,54,100,0
3,62,100,8
3,66,100,8
3,59,100,832
3,54,100,0
3,62,100,8
3,66,100,8
3,59,100,832
3,54,100,0
3,62,100,8
3,66,100,8
3,59,100,832
3,55,100,0
3,50,100,8
3,67,100,8
3,59,100,832
3,55,100,0
3,67,100,8
3,74,100,8
3,59,100,832
3,55,100,0
3,67,100,8
3,74,100,8
3,56,100,14080
3,52,100,0
3,59,100,8
3,64,100,8
3,56,100,832
3,52,100,0
3,59,100,8
3,64,100,8
3,59,100,832
3,54,100,0
3,62,100,8
3,66,100,8
3,59,100,832
3,54,100,0
3,62,100,8
3,66,100,8
3,56,100,832
3,52,100,0
3,59,100,8
3,64,100,8
3,56,100,832
3,52,100,0
3,59,100,8
3,64,100,8
3,56,100,832
3,52,100,0
3,59,100,8
3,64,100,8
3,59,100,832
3,54,100,0
3,62,100,8
3,66,100,8
3,59,100,832
3,54,100,0
3,62,100,8
3,66,100,8
3,59,100,832
3,54,100,0
3,62,100,8
3,66,100,8
3,59,100,832
3,54,100,0
3,62,100,8
3,66,100,8
3,59,100,832
3,54,100,0
3,62,100,8
3,66,100,8
3,59,100,832
3,55,100,0
3,50,100,8
3,67,100,8
3,59,100,832
3,55,100,0
3,67,100,8
3,74,100,8
3,59,100,832
3,55,100,0
3,67,100,8
3,74,100,8
3,55,100,832
3,52,100,0
3,60,100,8
3,64,100,8
3,57,100,832
3,52,100,0
3,60,100,8
3,64,100,8
3,57,100,832
3,53,100,0
3,62,100,8
3,65,100,8
3,57,100,832
3,53,100,0
3,60,100,8
3,65,100,8
3,57,100,832
3,53,100,0
3,62,100,8
3,65,100,8
3,57,100,640
3,53,100,0
3,62,100,8
3,65,100,8
3,57,100,448
3,53,100,0
3,62,100,8
3,65,100,8
3,57,100,448
3,53,100,0
3,62,100,8
3,65,100,8
3,57,100,448
3,53,100,0
3,62,100,8
3,65,100,8
3,56,85,384
3,57,95,8
3,59,105,8
3,59,90,144
3,61,100,8
3,63,110,8
3,64,85,144
3,66,90,0
3,68,100,0
3,64,90,8
3,66,95,0
