track,note,velocity,time
1,55,110,1920
1,59,110,0
1,62,110,0
1,62,0,1800
1,59,0,0
1,55,0,0
1,55,110,120
1,60,110,0
1,64,110,0
1,64,0,1800
1,60,0,0
1,55,0,0
1,55,110,120
1,59,110,0
1,62,110,0
1,62,0,1800
1,59,0,0
1,55,0,0
1,55,110,120
1,60,110,0
1,64,110,0
1,64,0,1800
1,60,0,0
1,55,0,0
1,55,110,120
1,59,110,0
1,62,110,0
1,62,0,1800
1,59,0,0
1,55,0,0
1,56,110,120
1,59,110,0
1,62,110,0
1,62,0,1800
1,59,0,0
1,56,0,0
1,57,110,120
1,60,110,0
1,64,110,0
1,64,0,1800
1,60,0,0
1,57,0,0
1,57,110,120
1,60,110,0
1,64,110,0
1,64,0,840
1,60,0,0
1,57,0,0
1,67,110,120
1,67,0,840
1,55,110,120
1,60,110,0
1,63,110,0
1,63,0,1800
1,60,0,0
1,55,0,0
1,55,110,120
1,59,110,0
1,62,110,0
1,62,0,1800
1,59,0,0
1,55,0,0
1,54,110,120
1,57,110,0
1,62,110,0
1,62,0,1800
1,57,0,0
1,54,0,0
1,55,110,120
1,59,110,0
1,62,110,0
1,62,0,840
1,59,0,0
1,55,0,0
1,55,110,360
1,55,0,235
1,55,110,5
1,62,110,0
1,66,110,0
1,66,0,400
1,62,0,0
1,55,0,0
1,55,110,80
1,59,110,0
1,62,110,0
1,62,0,1800
1,59,0,0
1,55,0,0
1,55,110,120
1,60,110,0
1,64,110,0
1,64,0,1800
1,60,0,0
1,55,0,0
1,57,110,120
1,62,110,0
1,66,110,0
1,66,0,840
1,62,0,0
1,57,0,0
1,57,110,120
1,62,110,0
1,66,110,0
1,66,0,840
1,62,0,0
1,57,0,0
1,55,110,120
1,59,110,0
1,62,110,0
1,62,0,1800
1,59,0,0
1,55,0,0
1,57,110,120
1,59,110,0
1,63,110,0
1,66,110,0
1,66,0,400
1,57,0,0
1,59,0,0
1,63,0,0
1,57,110,560
1,63,110,0
1,66,110,0
1,66,0,400
1,63,0,0
1,57,0,0
1,59,110,140
1,59,0,415
1,64,110,5
1,64,0,55
1,67,110,5
1,67,0,820
1,62,110,80
1,62,0,840
1,61,110,120
1,64,110,0
1,67,110,0
1,67,0,840
1,64,0,0
1,61,0,0
1,57,110,120
1,61,110,0
1,64,110,0
1,64,0,840
1,61,0,0
1,57,0,0
1,57,110,120
1,62,110,0
1,66,110,0
1,66,0,1195
1,62,0,0
1,57,0,0
1,57,110,5
1,57,0,235
1,62,110,5
1,62,0,400
1,55,110,80
1,59,110,0
1,62,110,0
1,62,0,1800
1,59,0,0
1,55,0,0
1,55,110,120
1,60,110,0
1,64,110,0
1,64,0,1800
1,60,0,0
1,55,0,0
1,57,110,120
1,62,110,0
1,66,110,0
1,66,0,1800
1,62,0,0
1,57,0,0
1,55,110,120
1,59,110,0
1,62,110,0
1,62,0,1800
1,59,0,0
1,55,0,0
1,59,110,120
1,63,110,0
1,66,110,0
1,66,0,840
1,63,0,0
1,59,0,0
1,57,110,120
1,63,110,0
1,66,110,0
1,66,0,840
1,63,0,0
1,57,0,0
1,59,110,120
1,64,110,0
1,67,110,0
1,67,0,840
1,64,0,0
1,59,0,0
1,62,110,120
1,62,0,840
1,57,110,120
1,61,110,0
1,64,110,0
1,64,0,840
1,61,0,0
1,57,0,0
1,57,110,120
1,61,110,0
1,64,110,0
1,64,0,840
1,61,0,0
1,57,0,0
1,57,110,120
1,62,110,0
1,66,110,0
1,66,0,1800
1,62,0,0
1,57,0,0
1,57,110,120
1,62,110,0
1,66,110,0
1,66,0,1800
1,62,0,0
1,57,0,0
1,55,110,120
1,59,110,0
1,62,110,0
1,62,0,1800
1,59,0,0
1,55,0,0
1,56,110,120
1,59,110,0
1,62,110,0
1,62,0,1800
1,59,0,0
1,56,0,0
1,57,110,120
1,60,110,0
1,64,110,0
1,64,0,840
1,60,0,0
1,57,0,0
1,57,110,120
1,64,110,0
1,64,0,840
1,57,0,0
1,57,110,120
1,60,110,0
1,64,110,0
1,64,0,1800
1,60,0,0
1,57,0,0
1,55,110,120
1,60,110,0
1,63,110,0
1,63,0,1800
1,60,0,0
1,55,0,0
1,55,110,120
1,59,110,0
1,62,110,0
1,62,0,1800
1,59,0,0
1,55,0,0
1,57,110,120
1,62,110,0
1,66,110,0
1,66,0,1800
1,62,0,0
1,57,0,0
1,55,110,120
1,59,110,0
1,62,110,0
1,62,0,1800
1,59,0,0
1,55,0,0
1,55,110,120
1,60,110,0
1,64,110,0
1,64,0,1800
1,60,0,0
1,55,0,0
1,55,110,120
1,59,110,0
1,62,110,0
1,62,0,1800
1,59,0,0
1,55,0,0
1,55,110,120
1,60,110,0
1,64,110,0
1,64,0,1800
1,60,0,0
1,55,0,0
1,57,110,120
1,62,110,0
1,66,110,0
1,66,0,1800
1,62,0,0
1,57,0,0
1,55,110,120
1,59,110,0
1,62,110,0
1,62,0,1800
1,59,0,0
1,55,0,0
1,59,110,120
1,63,110,0
1,66,110,0
1,66,0,840
1,63,0,0
1,59,0,0
1,59,110,120
1,63,110,0
1,66,110,0
1,66,0,840
1,63,0,0
1,59,0,0
1,59,110,120
1,64,110,0
1,67,110,0
1,67,0,840
1,64,0,0
1,59,0,0
1,62,110,120
1,62,0,840
1,61,110,120
1,64,110,0
1,64,0,840
1,61,0,0
1,57,110,120
1,61,110,0
1,64,110,0
1,67,110,0
1,67,0,840
1,57,0,0
1,61,0,0
1,64,0,0
1,57,110,120
1,62,110,0
1,66,110,0
1,66,0,1320
1,62,0,0
1,57,0,0
1,62,110,120
1,62,0,400
1,55,110,80
1,59,110,0
1,62,110,0
1,62,0,1800
1,59,0,0
1,55,0,0
1,55,110,120
1,60,110,0
1,64,110,0
1,64,0,1800
1,60,0,0
1,55,0,0
1,57,110,120
1,62,110,0
1,66,110,0
1,66,0,840
1,62,0,0
1,57,0,0
1,57,110,120
1,62,110,0
1,66,110,0
1,66,0,840
1,62,0,0
1,57,0,0
1,55,110,120
1,59,110,0
1,62,110,0
1,62,0,1800
1,59,0,0
1,55,0,0
1,59,110,120
1,63,110,0
1,66,110,0
1,66,0,840
1,63,0,0
1,59,0,0
1,59,110,120
1,63,110,0
1,66,110,0
1,66,0,840
1,63,0,0
1,59,0,0
1,64,110,120
1,67,110,0
1,67,0,840
1,64,0,0
1,62,110,120
1,62,0,840
1,57,110,120
1,61,110,0
1,64,110,0
1,64,0,840
1,61,0,0
1,57,0,0
1,57,110,120
1,61,110,0
1,64,110,0
1,64,0,840
1,61,0,0
1,57,0,0
1,57,110,120
1,62,110,0
1,66,110,0
1,66,0,1320
1,62,0,0
1,57,0,0
1,57,110,120
1,62,110,0
1,66,110,0
1,66,0,400
1,62,0,0
1,57,0,0
1,57,110,80
1,62,110,0
1,66,110,0
1,66,0,1800
1,62,0,0
1,57,0,0
1,55,110,120
1,59,110,0
1,62,110,0
1,62,0,1800
1,59,0,0
1,55,0,0
1,56,110,120
1,59,110,0
1,62,110,0
1,62,0,1800
1,59,0,0
1,56,0,0
1,57,110,120
1,60,110,0
1,64,110,0
1,64,0,1800
1,60,0,0
1,57,0,0
1,57,110,120
1,60,110,0
1,64,110,0
1,64,0,840
1,60,0,0
1,57,0,0
1,57,110,120
1,67,110,0
1,67,0,400
1,57,0,0
1,57,110,80
1,60,110,0
1,64,110,0
1,64,0,400
1,60,0,0
1,57,0,0
1,55,110,80
1,60,110,0
1,63,110,0
1,63,0,1800
1,60,0,0
1,55,0,0
1,55,110,120
1,59,110,0
1,62,110,0
1,62,0,1800
1,59,0,0
1,55,0,0
1,57,110,120
1,62,110,0
1,66,110,0
1,66,0,1800
1,62,0,0
1,57,0,0
1,55,110,120
1,59,110,0
1,62,110,0
1,62,0,1320
1,59,0,0
1,55,0,0
1,57,110,120
1,62,110,0
1,66,110,0
1,66,0,400
1,62,0,0
1,57,0,0
1,55,110,80
1,59,110,0
1,62,110,0
1,62,0,1800
1,59,0,0
1,55,0,0
1,56,110,120
1,59,110,0
1,62,110,0
1,62,0,400
1,59,0,0
1,56,0,0
1,56,110,560
1,59,110,0
1,59,0,840
1,56,0,0
1,57,110,120
1,60,110,0
1,64,110,0
1,64,0,840
1,60,0,0
1,57,0,0
1,57,110,120
1,60,110,0
1,60,0,840
1,57,0,0
1,57,110,120
1,60,110,0
1,64,110,0
1,64,0,840
1,60,0,0
1,57,0,0
1,57,110,120
1,60,110,0
1,67,110,0
1,67,0,400
1,60,0,0
1,57,0,0
1,57,110,80
1,60,110,0
1,64,110,0
1,64,0,400
1,60,0,0
1,57,0,0
1,55,110,80
1,60,110,0
1,63,110,0
1,63,0,1800
1,60,0,0
1,55,0,0
1,55,110,120
1,55,0,55
1,59,110,5
1,62,110,0
1,62,0,1740
1,59,0,0
1,54,110,120
1,57,110,0
1,62,110,0
1,62,0,1800
1,57,0,0
1,54,0,0
1,55,110,120
1,59,110,0
1,62,110,0
1,62,0,1800
1,59,0,0
1,55,0,0
1,55,110,120
1,60,110,0
1,64,110,0
1,64,0,1800
1,60,0,0
1,55,0,0
1,55,110,180
1,59,110,0
1,62,110,0
1,62,0,1740
1,59,0,0
1,55,0,0
1,55,110,120
1,60,110,0
1,64,110,0
1,64,0,1800
1,60,0,0
1,55,0,0
1,55,110,120
1,59,110,0
1,59,0,55
1,55,0,0
1,62,110,5
1,62,0,1740
2,43,110,1920
2,43,0,1800
2,43,110,120
2,43,0,1800
2,43,110,120
2,43,0,1800
2,43,110,120
2,43,0,1800
2,43,110,120
2,43,0,1800
2,44,110,120
2,44,0,1320
2,45,110,600
2,45,0,1800
2,45,110,120
2,45,0,840
2,45,110,120
2,45,0,840
2,48,110,120
2,48,0,1800
2,43,110,120
2,43,0,1800
2,50,110,120
2,50,0,1800
2,43,110,120
2,43,0,400
2,50,110,320
2,50,0,235
2,50,110,5
2,50,0,640
2,50,110,80
2,50,0,235
2,43,110,5
2,43,0,1800
2,43,110,120
2,43,0,1800
2,50,110,120
2,50,0,840
2,50,110,120
2,50,0,840
2,43,110,120
2,43,0,1800
2,51,110,180
2,51,0,820
2,47,110,80
2,47,0,840
2,52,110,120
2,52,0,840
2,50,110,120
2,50,0,840
2,49,110,120
2,49,0,840
2,45,110,180
2,45,0,820
2,50,110,80
2,50,0,640
2,50,110,80
2,50,0,235
2,50,110,5
2,50,0,640
2,50,110,80
2,50,0,235
2,43,110,5
2,43,0,1800
2,43,110,120
2,43,0,1800
2,50,110,120
2,50,0,840
2,50,110,120
2,50,0,840
2,43,110,120
2,43,0,1800
2,47,110,120
2,47,0,55
2,51,110,5
2,51,0,820
2,51,110,80
2,51,0,840
2,52,110,120
2,52,0,840
2,50,110,120
2,50,0,840
2,49,110,840
2,49,0,235
2,45,110,5
2,45,0,840
2,50,110,120
2,50,0,640
2,50,110,80
2,50,0,235
2,50,110,5
2,50,0,840
2,50,110,180
2,50,0,1740
2,43,110,120
2,43,0,1800
2,44,110,120
2,44,0,1800
2,45,110,120
2,45,0,840
2,45,110,120
2,45,0,840
2,45,110,120
2,45,0,1800
2,48,110,120
2,48,0,1800
2,43,110,120
2,43,0,1800
2,50,110,120
2,50,0,840
2,50,110,120
2,50,0,840
2,43,110,120
2,43,0,1800
2,43,110,120
2,43,0,1800
2,43,110,120
2,43,0,1800
2,43,110,120
2,43,0,1675
2,43,110,5
2,43,0,235
2,50,110,5
2,50,0,1800
2,43,110,120
2,43,0,1800
2,51,110,120
2,51,0,1800
2,52,110,120
2,52,0,840
2,50,110,120
2,50,0,840
2,49,110,120
2,49,0,840
2,45,110,120
2,45,0,840
2,50,110,120
2,50,0,1800
2,43,110,120
2,43,0,1675
2,43,110,5
2,43,0,235
2,43,110,5
2,43,0,1675
2,43,110,5
2,43,0,235
2,43,110,5
2,43,0,840
2,50,110,120
2,50,0,840
2,43,110,120
2,43,0,1800
2,51,110,120
2,51,0,1800
2,52,110,120
2,52,0,840
2,50,110,120
2,50,0,840
2,49,110,120
2,49,0,840
2,45,110,120
2,45,0,1015
2,50,110,5
2,50,0,1615
2,50,110,5
2,50,0,235
2,50,110,5
2,50,0,1800
2,43,110,120
2,43,0,1800
2,44,110,120
2,44,0,1800
2,45,110,120
2,45,0,840
2,45,110,120
2,45,0,840
2,45,110,120
2,45,0,840
2,45,110,120
2,45,0,840
2,48,110,120
2,48,0,1800
2,43,110,120
2,43,0,1800
2,50,110,120
2,50,0,1800
2,43,110,120
2,43,0,1195
2,43,110,5
2,43,0,235
2,50,110,5
2,50,0,535
2,43,110,5
2,43,0,1740
2,44,110,120
2,44,0,840
2,44,110,120
2,44,0,840
2,45,110,120
2,45,0,840
2,45,110,120
2,45,0,840
2,45,110,120
2,45,0,840
2,45,110,120
2,45,0,840
2,48,110,120
2,48,0,1975
2,43,110,5
2,43,0,1740
2,50,110,120
2,50,0,1800
2,43,110,120
2,43,0,1800
2,43,110,120
2,43,0,1800
2,43,110,180
2,43,0,1740
2,43,110,120
2,43,0,1800
2,43,110,180
2,43,0,2260
3,86,110,2160
3,86,0,55
3,79,110,5
3,83,110,0
3,83,0,55
3,79,0,0
3,78,110,5
3,84,110,0
3,84,0,55
3,78,0,0
3,81,110,5
3,81,0,55
3,76,110,5
3,79,110,0
3,83,110,0
3,83,0,115
3,79,0,0
3,76,0,0
3,78,110,5
3,81,110,0
3,84,110,0
3,84,0,115
3,81,0,0
3,78,0,0
3,79,110,5
3,83,110,0
3,86,110,0
3,86,0,235
3,83,0,0
3,79,0,0
3,84,110,5
3,84,0,55
3,76,110,0
3,79,110,0
3,79,0,820
3,76,0,0
3,76,110,0
3,79,110,0
3,79,0,115
3,76,0,0
3,74,110,5
3,78,110,0
3,78,0,115
3,74,0,0
3,72,110,5
3,76,110,0
3,76,0,115
3,72,0,0
3,74,110,5
3,78,110,0
3,78,0,175
3,74,0,0
3,76,110,5
3,79,110,0
3,79,0,175
3,76,0,0
3,71,110,0
3,74,110,0
3,74,0,415
3,71,0,0
3,79,110,180
3,83,110,0
3,86,110,0
3,86,0,55
3,83,0,0
3,79,0,0
3,78,110,5
3,81,110,0
3,84,110,0
3,84,0,115
3,81,0,0
3,78,0,0
3,76,110,5
3,79,110,0
3,83,110,0
3,83,0,115
3,79,0,0
3,76,0,0
3,81,110,5
3,84,110,0
3,84,0,55
3,81,0,0
3,78,110,5
3,78,0,55
3,83,110,5
3,86,110,0
3,86,0,55
3,83,0,0
3,79,110,5
3,79,0,175
3,76,110,0
3,79,110,0
3,84,110,0
3,84,0,820
3,79,0,0
3,76,0,0
3,76,110,60
3,79,110,0
3,79,0,115
3,76,0,0
3,74,110,5
3,78,110,0
3,78,0,55
3,74,0,0
3,76,110,5
3,76,0,55
3,72,110,5
3,72,0,115
3,74,110,5
3,78,110,0
3,78,0,115
3,74,0,0
3,76,110,5
3,79,110,0
3,79,0,175
3,76,0,0
3,71,110,0
3,74,110,0
3,74,0,820
3,71,0,0
3,86,110,240
3,86,0,55
3,79,110,5
3,83,110,0
3,83,0,55
3,79,0,0
3,78,110,5
3,84,110,0
3,84,0,55
3,78,0,0
3,81,110,5
3,81,0,55
3,76,110,5
3,79,110,0
3,83,110,0
3,83,0,115
3,79,0,0
3,76,0,0
3,78,110,5
3,81,110,0
3,84,110,0
3,84,0,115
3,81,0,0
3,78,0,0
3,79,110,5
3,83,110,0
3,86,110,0
3,86,0,235
3,83,0,0
3,79,0,0
3,84,110,5
3,84,0,55
3,76,110,0
3,79,110,0
3,79,0,820
3,76,0,0
3,76,110,0
3,79,110,0
3,79,0,115
3,76,0,0
3,74,110,5
3,78,110,0
3,78,0,115
3,74,0,0
3,72,110,5
3,76,110,0
3,76,0,115
3,72,0,0
3,74,110,5
3,78,110,0
3,78,0,175
3,74,0,0
3,76,110,5
3,79,110,0
3,79,0,175
3,76,0,0
3,86,110,62645
3,86,0,55
3,79,110,5
3,83,110,0
3,83,0,55
3,79,0,0
3,78,110,5
3,84,110,0
3,84,0,55
3,78,0,0
3,81,110,5
3,81,0,55
3,76,110,5
3,79,110,0
3,83,110,0
3,83,0,115
3,79,0,0
3,76,0,0
3,78,110,5
3,81,110,0
3,84,110,0
3,84,0,115
