track,note,velocity,time
1,48,102,3352
1,43,89,1800
1,48,0,52
1,36,82,68
1,43,0,52
1,36,0,1864
1,48,95,4
1,48,0,372
1,36,94,0
1,36,0,156
1,36,100,192
1,36,0,868
1,43,80,92
1,43,0,68
1,43,88,52
1,43,0,84
1,43,95,36
1,50,78,1800
1,43,0,28
1,50,0,92
1,43,95,0
1,50,78,1800
1,43,0,28
1,55,98,92
1,50,0,40
1,50,95,1760
1,55,0,28
1,50,0,56
1,43,95,36
1,50,78,1800
1,43,0,28
1,50,0,92
1,36,97,0
1,36,0,1772
1,43,85,28
1,43,0,120
1,41,95,0
1,48,78,1800
1,41,0,28
1,48,0,92
1,36,93,0
1,36,0,612
1,43,90,0
1,43,0,360
1,48,95,0
1,48,0,448
1,36,88,20
1,36,0,308
1,43,95,172
1,50,78,1800
1,43,0,28
1,50,0,92
1,36,109,16
1,36,0,728
1,36,106,84
1,48,90,132
1,36,0,24
1,48,90,136
1,48,0,4
1,48,0,132
1,43,74,0
1,43,0,116
1,41,86,56
1,41,0,136
1,39,94,20
1,39,0,144
1,36,80,36
1,36,0,156
1,43,95,0
1,50,78,1800
1,43,0,28
1,55,98,92
1,50,0,40
1,50,95,1760
1,55,0,28
1,50,0,56
1,43,95,36
1,50,78,1800
1,43,0,28
1,55,98,92
1,50,0,40
1,50,95,1760
1,55,0,28
1,50,0,56
1,41,98,36
1,48,81,1800
1,41,0,28
1,48,0,92
1,48,98,0
1,48,0,372
1,36,97,0
1,36,0,156
1,36,103,192
1,36,0,868
1,43,83,92
1,43,0,68
1,43,91,52
1,43,0,84
1,43,98,36
1,50,81,1800
1,43,0,28
1,50,0,92
1,36,100,0
1,36,0,316
1,36,93,84
1,48,88,80
1,36,0,44
1,48,0,192
1,36,97,4
1,36,0,240
1,48,105,0
1,48,0,148
1,48,105,212
1,48,0,600
1,41,98,0
1,48,81,1800
1,41,0,28
1,48,0,92
1,36,93,0
1,48,100,720
1,36,0,28
1,48,0,1052
1,43,91,0
1,43,0,68
1,43,98,52
1,50,81,1800
1,43,0,28
1,55,101,92
1,50,0,40
1,50,98,1760
1,55,0,28
1,50,0,56
1,36,99,36
1,36,0,304
1,36,106,56
1,43,88,120
1,36,0,56
1,48,101,184
1,43,0,84
1,48,0,864
1,43,83,12
1,43,0,116
1,43,83,4
1,43,0,120
1,36,101,0
1,36,0,232
1,36,105,128
1,43,92,120
1,36,0,56
1,48,89,184
1,43,0,100
1,48,0,1100
1,36,98,0
1,43,95,720
1,36,0,80
1,43,0,716
1,43,73,164
1,43,0,84
1,43,90,36
1,43,0,120
1,43,98,0
1,50,81,1800
1,43,0,28
1,50,0,92
1,43,98,0
1,50,81,1800
1,43,0,28
1,55,101,92
1,50,0,40
1,50,98,1760
1,55,0,28
1,50,0,56
1,43,98,36
1,50,81,1800
1,43,0,28
1,50,0,92
1,48,98,0
1,48,0,372
1,36,97,0
1,36,0,156
1,36,103,192
1,36,0,868
1,43,83,92
1,43,0,68
1,43,91,52
1,43,0,84
1,41,98,36
1,48,81,1800
1,41,0,28
1,48,0,92
1,36,107,0
1,36,0,664
1,36,96,56
1,36,0,492
1,36,73,108
1,36,0,116
1,45,98,4
1,45,0,136
1,36,99,0
1,43,92,104
1,36,0,4
1,43,0,204
1,43,98,32
1,50,81,1800
1,43,0,28
1,50,0,92
1,36,100,0
1,36,0,1772
1,43,88,28
1,43,0,120
1,43,98,0
1,50,81,1800
1,43,0,28
1,55,101,92
1,50,0,40
1,50,98,1760
1,55,0,28
1,50,0,56
1,43,98,36
1,50,81,1800
1,43,0,28
1,55,101,92
1,50,0,40
1,50,98,1760
1,55,0,28
1,50,0,56
1,41,98,36
1,48,81,1800
1,41,0,28
1,48,0,92
1,36,113,0
1,43,68,360
1,36,0,28
1,52,99,92
1,43,0,28
1,52,0,124
1,36,99,0
1,43,89,88
1,36,0,32
1,48,100,88
1,43,0,24
1,48,0,1056
1,43,98,0
1,50,81,1800
1,43,0,28
1,50,0,92
1,36,98,0
1,43,99,720
1,36,0,8
1,43,0,68
1,43,86,44
1,43,0,84
1,48,105,36
1,43,85,360
1,48,0,48
1,43,0,36
1,36,98,36
1,38,89,120
1,36,0,44
1,40,95,76
1,38,0,16
1,40,0,224
1,41,98,0
1,48,81,1800
1,41,0,28
1,48,0,92
1,36,107,0
1,36,0,664
1,36,96,56
1,36,0,492
1,36,73,108
1,36,0,116
1,45,98,4
1,45,0,136
1,36,99,0
1,43,92,104
1,36,0,4
1,43,0,204
1,43,98,32
1,50,81,1800
1,43,0,28
1,55,101,92
1,50,0,40
1,50,98,1760
1,55,0,28
1,50,0,56
1,36,94,36
1,43,93,720
1,36,0,96
1,43,0,116
1,48,88,28
1,43,86,480
1,48,0,12
1,36,98,468
1,43,0,52
1,43,91,668
1,36,0,32
1,48,90,208
1,43,0,32
1,43,89,448
1,48,0,28
1,43,0,284
1,36,95,168
1,43,92,720
1,36,0,80
1,43,0,716
1,43,70,164
1,43,0,84
1,43,87,36
1,43,0,120
1,43,95,0
1,50,78,1800
1,43,0,28
1,50,0,92
1,43,95,0
1,50,78,1800
1,43,0,28
1,55,98,92
1,50,0,40
1,50,95,1760
1,55,0,28
1,50,0,56
1,43,95,36
1,50,78,1800
1,43,0,28
1,50,0,92
1,36,104,0
1,36,0,724
1,36,103,116
1,36,0,108
1,48,93,12
1,48,92,120
1,48,0,44
1,43,66,76
1,48,0,4
1,42,96,116
1,43,0,32
1,42,0,76
1,41,78,12
1,40,102,120
1,41,0,52
1,40,0,108
1,41,95,200
1,48,78,1800
1,41,0,28
1,48,0,92
1,36,100,0
1,36,0,720
1,48,97,0
1,36,81,840
1,48,0,40
1,36,0,40
1,43,79,40
1,43,0,60
1,43,92,60
1,43,0,88
1,43,95,32
1,50,78,1800
1,43,0,28
1,50,0,92
1,36,89,0
1,48,94,720
1,36,0,36
1,48,0,1164
1,43,95,0
1,50,78,1800
1,43,0,28
1,55,98,92
1,50,0,40
1,50,95,1760
1,55,0,28
1,50,0,56
1,43,95,36
1,50,78,1800
1,43,0,28
1,55,98,92
1,50,0,40
1,50,95,1760
1,55,0,28
1,50,0,56
1,41,98,36
1,48,81,1800
1,41,0,28
1,48,0,92
1,36,107,0
1,36,0,664
1,36,96,56
1,36,0,492
1,36,73,108
1,36,0,116
1,45,98,4
1,45,0,136
1,36,99,0
1,43,92,104
1,36,0,4
1,43,0,204
1,43,98,32
1,50,81,1800
1,43,0,28
1,50,0,92
1,36,104,0
1,43,64,360
1,36,0,32
1,43,0,72
1,52,112,16
1,43,91,120
1,52,0,20
1,43,0,60
1,36,91,40
1,36,0,104
1,48,105,16
1,48,0,120
1,41,93,0
1,41,0,464
1,43,96,16
1,43,0,292
1,41,98,188
1,48,81,1800
1,41,0,28
1,48,0,92
1,36,93,0
1,48,100,720
1,36,0,28
1,48,0,1052
1,43,91,0
1,43,0,68
1,43,98,52
1,50,81,1800
1,43,0,28
1,50,0,92
1,43,98,0
1,50,81,1800
1,43,0,28
1,50,0,92
1,43,98,0
1,50,81,20
1,43,0,28
1,50,0,36
1,43,98,0
1,50,81,4
1,43,0,28
1,50,0,20
1,43,98,0
1,50,81,40
1,43,0,16
1,50,0,56
2,60,63,3355
2,64,63,0
2,67,63,0
2,67,0,1572
2,64,0,0
2,60,0,0
2,60,60,108
2,64,60,0
2,67,60,0
2,67,0,64
2,64,0,0
2,60,0,0
2,60,58,176
2,64,58,0
2,67,58,0
2,67,0,1912
2,64,0,0
2,60,0,0
2,60,60,0
2,72,60,0
2,64,60,0
2,67,60,0
2,67,0,1840
2,60,0,0
2,72,0,0
2,64,0,0
2,55,57,80
2,59,60,0
2,50,62,0
2,50,0,1016
2,55,0,12
2,59,0,20
2,55,62,152
2,59,60,0
2,50,64,0
2,50,0,720
2,59,0,0
2,55,0,0
2,67,63,8
2,59,63,0
2,74,63,0
2,74,0,1572
2,59,0,0
2,67,0,0
2,67,60,108
2,59,60,0
2,74,60,0
2,74,0,64
2,59,0,0
2,67,0,0
2,67,58,176
2,59,58,0
2,74,58,0
2,74,0,1912
2,59,0,0
2,67,0,0
2,67,60,0
2,59,60,0
2,74,60,0
2,74,0,1840
2,59,0,0
2,67,0,0
2,60,57,80
2,64,60,0
2,55,62,0
2,55,0,1016
2,60,0,12
2,64,0,20
2,60,62,152
2,64,60,0
2,55,64,0
2,55,0,720
2,64,0,0
2,60,0,0
2,65,60,0
2,57,60,0
2,72,60,0
2,72,0,1840
2,57,0,0
2,65,0,0
2,60,60,80
2,72,60,0
2,64,60,0
2,67,60,0
2,67,0,1840
2,60,0,0
2,72,0,0
2,64,0,0
2,67,60,80
2,59,60,0
2,74,60,0
2,74,0,1840
2,59,0,0
2,67,0,0
2,60,60,80
2,72,60,0
2,64,60,0
2,67,60,0
2,67,0,1840
2,60,0,0
2,72,0,0
2,64,0,0
2,67,63,88
2,59,63,0
2,74,63,0
2,74,0,1572
2,59,0,0
2,67,0,0
2,67,60,108
2,59,60,0
2,74,60,0
2,74,0,64
2,59,0,0
2,67,0,0
2,67,58,176
2,59,58,0
2,74,58,0
2,74,0,1912
2,59,0,0
2,67,0,0
2,67,63,8
2,59,63,0
2,74,63,0
2,74,0,1572
2,59,0,0
2,67,0,0
2,67,60,108
2,59,60,0
2,74,60,0
2,74,0,64
2,59,0,0
2,67,0,0
2,67,58,176
2,59,58,0
2,74,58,0
2,74,0,1912
2,59,0,0
2,67,0,0
2,65,61,12
2,60,54,4
2,69,61,4
2,72,61,0
2,67,65,964
2,69,0,20
2,69,61,224
2,67,0,116
2,72,0,576
2,65,0,0
2,60,0,0
2,69,0,0
2,55,57,0
2,60,57,16
2,72,70,0
2,64,68,4
2,67,36,8
2,67,0,44
2,65,63,88
2,67,72,120
2,65,0,16
2,60,0,1624
2,64,0,0
2,55,0,0
2,67,0,0
2,72,0,0
2,55,70,0
2,59,77,0
2,50,73,0
2,62,62,960
2,64,53,240
2,67,41,240
2,69,43,240
2,69,0,240
2,64,0,0
2,59,0,0
2,50,0,0
2,55,0,0
2,67,0,0
2,62,0,0
2,52,48,0
2,67,69,0
2,55,55,240
2,62,65,240
2,60,53,0
2,64,72,240
2,62,0,132
2,67,0,108
2,55,0,0
2,52,0,0
2,64,0,0
2,60,0,0
2,60,54,0
2,52,60,0
2,55,52,0
2,67,64,0
2,65,64,240
2,67,0,8
2,64,70,232
2,65,0,48
2,55,0,432
2,60,0,0
2,52,0,0
2,64,0,0
2,65,70,0
2,69,77,0
2,60,73,0
2,72,62,960
2,74,53,240
2,77,41,240
2,79,43,240
2,79,0,240
2,74,0,0
2,69,0,0
2,60,0,0
2,65,0,0
2,77,0,0
2,72,0,0
2,72,65,480
2,67,67,0
2,64,59,0
2,67,0,296
2,72,0,0
2,64,0,4
2,72,57,180
2,67,55,0
2,64,46,0
2,67,0,80
2,64,0,4
2,72,0,12
2,72,65,144
2,64,67,0
2,67,67,0
2,67,0,720
2,64,0,0
2,72,0,0
2,62,60,0
2,59,60,0
2,55,60,0
2,55,0,3732
2,59,0,0
2,62,0,0
2,64,60,108
2,60,60,0
2,55,60,0
2,55,0,3732
2,60,0,0
2,64,0,0
2,76,73,108
2,64,54,0
2,67,75,0
2,60,48,0
2,55,54,0
2,74,57,240
2,72,64,240
2,74,0,80
2,60,0,1276
2,55,0,8
2,64,0,0
2,67,0,4
2,72,0,0
2,76,0,16
2,62,60,64
2,59,60,0
2,55,60,0
2,55,0,1912
2,59,0,0
2,62,0,0
2,62,60,0
2,59,60,0
2,55,60,0
2,55,0,3732
2,59,0,0
2,62,0,0
2,62,58,108
2,59,58,0
2,55,58,0
2,55,0,892
2,59,0,0
2,62,0,0
2,62,58,80
2,59,58,0
2,55,58,0
2,55,0,132
2,59,0,0
2,62,0,0
2,62,66,116
2,59,66,0
2,55,66,0
2,55,0,700
2,59,0,0
2,62,0,0
2,60,61,12
2,55,54,4
2,64,61,4
2,67,61,0
2,62,65,964
2,64,0,20
2,64,61,224
2,62,0,116
2,67,0,576
2,60,0,0
2,55,0,0
2,64,0,0
2,65,70,0
2,69,77,0
2,60,73,0
2,72,62,960
2,74,53,240
2,77,41,240
2,79,43,240
2,79,0,240
2,74,0,0
2,69,0,0
2,60,0,0
2,65,0,0
2,77,0,0
2,72,0,0
2,64,60,8
2,60,60,0
2,55,60,0
2,55,0,1912
2,60,0,0
2,64,0,0
2,59,71,0
2,55,55,0
2,50,55,0
2,67,71,960
2,62,59,240
2,62,0,720
2,50,0,0
2,59,0,0
2,55,0,0
2,67,0,0
2,64,65,0
2,60,65,0
2,55,65,0
2,72,69,960
2,55,0,12
2,64,0,0
2,60,0,0
2,67,65,228
2,64,42,240
2,60,60,240
2,60,0,240
2,72,0,0
2,67,0,0
2,64,0,0
2,62,60,0
2,59,60,0
2,55,60,0
2,55,0,3732
2,59,0,0
2,62,0,0
2,62,60,108
2,59,60,0
2,55,60,0
2,55,0,3732
2,59,0,0
2,62,0,0
2,65,60,116
2,60,60,0
2,57,60,0
2,57,0,1912
2,60,0,0
2,65,0,0
2,60,60,0
2,72,60,0
2,64,60,0
2,67,60,0
2,67,0,1920
2,60,0,0
2,72,0,0
2,64,0,0
2,59,71,0
2,55,55,0
2,50,55,0
2,67,71,960
2,62,59,240
2,62,0,720
2,50,0,0
2,59,0,0
2,55,0,0
2,67,0,0
2,60,60,12
2,55,58,4
2,52,71,0
2,72,71,232
2,67,52,248
2,64,52,224
2,64,0,240
2,55,0,0
2,52,0,0
2,60,0,0
2,67,0,0
2,72,0,0
2,64,60,0
2,60,60,0
2,58,60,0
2,67,60,0
2,67,0,960
2,64,0,0
2,60,0,0
2,58,0,0
2,69,71,0
2,65,55,0
2,60,55,0
2,77,71,960
2,72,59,240
2,72,0,720
2,60,0,0
2,69,0,0
2,65,0,0
2,77,0,0
2,64,60,8
2,60,60,0
2,55,60,0
2,55,0,1912
2,60,0,0
2,64,0,0
2,62,60,0
2,59,60,0
2,55,60,0
2,55,0,3732
2,59,0,0
2,62,0,0
2,60,63,116
2,72,63,0
2,64,63,0
2,67,63,0
2,67,0,1572
2,60,0,0
2,72,0,0
2,64,0,0
2,60,60,108
2,72,60,0
2,64,60,0
2,67,60,0
2,67,0,64
2,60,0,0
2,72,0,0
2,64,0,0
2,60,58,176
2,72,58,0
2,64,58,0
2,67,58,0
2,67,0,1912
2,60,0,0
2,72,0,0
2,64,0,0
2,60,60,0
2,64,60,0
2,67,60,0
2,67,0,1840
2,64,0,0
2,60,0,0
2,55,57,80
2,59,60,0
2,50,62,0
2,50,0,1016
2,55,0,12
2,59,0,20
2,55,62,152
2,59,60,0
2,50,64,0
2,50,0,720
2,59,0,0
2,55,0,0
2,67,63,8
2,59,63,0
2,62,63,0
2,62,0,1572
2,59,0,0
2,67,0,0
2,67,60,108
2,59,60,0
2,62,60,0
2,62,0,64
2,59,0,0
2,67,0,0
2,67,58,176
2,59,58,0
2,62,58,0
2,62,0,1912
2,59,0,0
2,67,0,0
2,55,57,0
2,59,60,0
2,50,62,0
2,50,0,1016
2,55,0,12
2,59,0,20
2,55,62,152
2,59,60,0
2,50,64,0
2,50,0,720
2,59,0,0
2,55,0,0
2,60,57,0
2,64,60,0
2,55,62,0
2,55,0,1016
2,60,0,12
2,64,0,20
2,60,62,152
2,64,60,0
2,55,64,0
2,55,0,720
2,64,0,0
2,60,0,0
2,65,60,0
2,57,60,0
2,60,60,0
2,60,0,1840
2,57,0,0
2,65,0,0
2,60,60,80
2,72,60,0
2,64,60,0
2,67,60,0
2,67,0,1840
2,60,0,0
2,72,0,0
2,64,0,0
2,67,60,80
2,59,60,0
2,74,60,0
2,74,0,1840
2,59,0,0
2,67,0,0
2,60,57,80
2,64,60,0
2,55,62,0
2,55,0,1016
2,60,0,12
2,64,0,20
2,60,62,152
2,64,60,0
2,55,64,0
2,55,0,720
2,64,0,0
2,60,0,0
2,67,63,8
2,59,63,0
2,74,63,0
2,74,0,1572
2,59,0,0
2,67,0,0
2,67,60,108
2,59,60,0
2,74,60,0
2,74,0,64
2,59,0,0
2,67,0,0
2,67,58,176
2,59,58,0
