track,note,velocity,time
1,64,89,1528
1,60,81,102
1,60,84,0
1,55,86,4
1,60,84,0
1,64,89,2
1,60,85,114
1,60,88,100
1,55,88,122
1,60,89,2
1,59,86,214
1,55,86,6
1,55,87,0
1,50,89,8
1,55,86,4
1,60,87,528
1,55,88,4
1,60,86,2
1,60,84,4
1,57,81,4
1,55,86,0
1,60,84,2
1,55,87,136
1,60,84,10
1,64,89,180
1,60,83,90
1,60,86,232
1,50,74,52
1,55,86,0
1,60,80,12
1,59,87,180
1,55,86,12
1,55,84,240
1,50,88,110
1,55,84,8
1,55,86,260
1,55,86,174
1,60,83,376
1,55,77,26
1,60,88,92
1,55,85,234
1,60,84,236
1,55,85,0
1,60,86,6
1,64,89,346
1,60,85,172
1,50,72,78
1,55,88,6
1,60,87,0
1,59,79,4
1,55,84,0
1,55,88,2
1,62,85,94
1,60,85,232
1,55,86,0
1,64,88,180
1,60,84,104
1,60,83,0
1,50,70,2
1,55,88,6
1,60,88,6
1,59,86,182
1,55,86,0
1,55,84,0
1,55,86,2
1,58,83,2
1,64,90,4
1,60,83,96
1,60,85,102
1,50,72,30
1,55,88,2
1,60,88,10
1,60,77,40
1,60,84,156
1,60,86,186
1,63,86,386
1,60,86,0
1,55,85,4
1,60,86,0
1,64,90,104
1,60,86,108
1,60,88,96
1,57,83,164
1,55,87,2
1,59,84,88
1,55,87,4
1,55,88,0
1,50,86,88
1,55,86,210
1,55,86,0
1,60,85,2
1,60,88,492
1,62,88,2
1,62,82,6
1,57,83,6
1,64,90,228
1,60,84,98
1,60,88,0
1,55,87,6
1,60,84,188
1,55,80,26
1,60,85,38
1,55,86,0
1,60,83,44
1,57,79,142
1,60,87,0
1,59,84,140
1,55,88,100
1,55,88,0
1,50,89,160
1,55,86,4
1,52,88,112
1,52,84,0
1,57,88,146
1,57,89,12
1,59,69,4574
1,60,80,128
1,60,78,20
1,60,80,4
1,60,80,4
1,63,83,0
1,60,83,106
1,50,74,436
1,55,84,0
1,64,89,0
1,60,86,106
1,60,85,102
1,55,86,134
1,60,83,4
1,62,80,0
1,59,78,220
1,55,84,96
1,55,84,242
1,50,86,68
1,60,84,4
1,57,88,36
1,57,81,2
1,55,86,2
1,60,88,0
1,64,86,36
1,60,83,104
1,55,86,156
1,63,85,194
1,60,83,6
1,60,86,30
1,59,82,176
1,55,85,8
1,55,85,12
1,45,69,50
1,50,89,38
1,55,80,28
1,55,86,0
1,57,86,14
1,58,88,6
1,55,89,0
1,64,88,190
1,60,81,0
1,50,80,266
1,55,88,0
1,59,82,90
1,55,84,0
1,55,87,2
1,55,89,204
1,59,88,0
1,60,84,192
1,57,85,0
1,55,87,2
1,60,83,0
1,60,86,4
1,60,86,4
1,60,89,2
1,60,82,458
1,60,84,0
1,50,81,186
1,55,88,58
1,64,89,178
1,60,82,98
1,60,84,242
1,60,88,98
1,59,83,170
1,64,85,0
1,55,80,0
1,50,77,84
1,55,88,4
1,60,83,200
1,62,85,160
1,64,90,12
1,60,86,0
1,64,88,190
1,60,82,0
1,50,80,180
1,55,88,0
1,64,90,0
1,60,83,0
1,60,84,192
1,60,88,0
1,59,80,176
1,55,87,174
1,55,86,4
1,55,74,10
1,45,77,46
1,50,80,16
1,50,88,8
1,52,83,24
1,57,87,0
1,57,87,0
1,60,82,102
1,55,81,0
1,64,88,4
1,60,84,0
1,60,84,8
1,55,89,280
1,60,82,14
1,62,80,6
1,59,82,152
1,55,85,222
1,55,79,0
1,50,83,90
1,55,84,2
1,60,80,186
1,57,87,2
1,57,79,2
1,55,85,2
1,60,88,0
1,64,86,176
1,60,82,0
1,50,71,108
1,55,90,18
1,60,78,0
1,64,82,196
1,60,84,10
1,60,82,0
1,57,79,4
1,60,86,2
1,59,80,184
1,55,84,232
1,55,82,6
1,50,83,188
1,55,88,12
1,62,90,0
1,58,84,16
1,64,89,0
1,60,80,2
1,65,89,0
1,66,84,0
1,64,81,6
1,60,84,106
1,60,80,0
1,50,81,198
1,55,86,4
1,59,84,130
1,55,84,4
1,50,77,168
1,55,87,0
1,64,90,102
1,60,84,130
1,60,86,0
1,57,80,156
1,60,84,0
1,60,79,2
1,60,86,160
1,55,84,6
1,55,84,152
1,64,88,4
1,60,82,0
1,60,80,2
1,55,88,78
1,60,76,4
1,64,85,98
1,60,83,0
1,60,82,0
1,55,78,242
1,60,87,0
1,59,80,144
1,55,82,96
1,55,86,0
1,50,90,10
1,60,72,78
1,55,81,4
1,55,84,226
1,55,88,274
1,60,89,6
1,64,89,54
1,60,86,0
1,55,89,64
1,60,77,6
1,59,90,2
1,64,90,2
1,60,73,0
1,60,87,184
1,60,89,116
1,59,84,0
1,57,79,2
1,59,87,0
1,59,83,2
1,50,75,240
1,55,84,50
1,52,88,48
1,52,85,96
1,50,74,98
1,57,88,4
1,64,90,0
1,60,84,0
1,55,89,78
1,60,80,2
1,64,90,188
1,60,83,0
1,60,85,196
1,60,88,32
1,62,81,0
1,57,76,4
1,60,83,178
1,55,84,0
1,55,83,0
1,50,74,190
1,55,86,4
1,59,79,190
1,55,84,2
1,55,87,0
1,57,83,282
1,60,88,0
1,64,84,180
1,60,86,92
1,60,86,0
1,55,85,12
1,59,81,0
1,64,89,114
1,60,84,218
1,60,88,180
1,57,83,12
1,59,78,226
1,55,82,2
1,50,73,160
1,55,82,4
1,57,78,282
1,57,82,194
2,33,124,1144
2,29,106,0
2,29,110,432
2,29,112,34
2,36,106,494
2,38,114,94
2,36,112,90
2,41,125,90
2,41,120,468
2,41,116,24
2,36,125,774
2,36,120,456
2,36,114,30
2,43,116,494
2,45,118,0
2,33,114,192
2,33,120,432
2,33,114,42
2,33,126,376
2,36,124,0
2,38,114,0
2,38,125,430
2,38,114,32
2,28,114,498
2,29,114,94
2,30,122,74
2,31,120,0
2,43,120,432
2,43,108,36
2,43,126,486
2,38,124,96
2,36,118,4
2,36,106,434
2,36,114,38
2,43,110,578
2,45,122,94
2,33,127,14
2,33,114,432
2,33,116,36
2,33,108,382
2,36,108,194
2,38,114,2
2,38,125,456
2,38,122,26
2,28,108,482
2,29,116,96
2,30,112,60
2,31,112,70
2,38,108,440
2,43,106,98
2,38,102,468
2,43,124,96
2,38,104,72
2,36,114,60
2,36,108,456
2,36,112,38
2,29,114,594
2,30,90,94
2,31,122,0
2,31,102,4
2,36,118,16
2,31,114,8
2,29,127,16
2,36,106,432
2,41,106,96
2,38,108,488
2,41,124,96
2,38,110,82
2,40,106,84
2,35,104,460
2,28,124,96
2,38,126,352
2,40,110,190
2,41,114,182
2,41,125,422
2,41,120,36
2,29,102,596
2,30,108,94
2,31,126,80
2,31,120,30
2,31,110,62
2,31,108,66
2,41,122,110
2,41,112,92
2,38,104,26
2,38,110,64
2,36,102,94
2,36,98,90
2,38,108,66
2,36,110,192
2,38,120,78
2,41,120,94
2,41,108,76
2,38,110,100
2,38,104,52
2,36,110,96
2,36,114,88
2,38,114,100
2,36,110,194
2,38,116,8
2,36,122,98
2,36,126,92
2,33,114,60
2,33,96,72
2,31,98,90
2,31,100,66
2,33,112,10
2,31,114,190
2,33,118,64
2,45,116,190
2,35,106,34
2,47,114,194
2,36,108,60
2,48,116,192
2,40,112,58
2,52,110,194
2,41,120,62
2,41,112,100
2,38,116,68
2,38,114,54
2,36,110,94
2,36,110,86
2,38,100,98
2,36,102,2
2,38,116,94
2,41,118,96
2,41,112,76
2,38,114,72
2,38,110,68
2,36,102,96
2,36,110,86
2,38,106,94
2,36,110,196
2,38,116,62
2,36,122,4
2,36,114,94
2,33,114,80
2,33,114,80
2,31,110,94
2,31,112,98
2,33,112,68
2,31,98,194
2,28,120,52
2,28,102,58
2,31,114,96
2,33,120,160
2,33,120,242
2,29,122,160
2,29,126,142
2,28,98,384
2,41,124,216
2,41,116,384
2,41,124,2
2,41,120,288
2,29,125,95
2,30,92,0
2,31,114,168
2,31,106,14
2,31,114,14
2,31,127,194
2,38,114,766
2,38,125,430
2,38,114,32
2,28,114,498
2,29,114,94
2,30,122,74
2,31,120,0
2,31,120,432
2,31,108,36
2,43,126,486
2,38,124,96
2,36,118,4
2,36,106,434
2,36,114,38
2,43,110,578
2,45,122,94
2,33,127,14
2,33,114,432
2,33,116,36
2,33,108,382
2,36,108,194
2,38,114,2
2,38,125,456
2,38,122,26
2,28,108,482
2,29,116,96
2,30,112,60
2,31,112,70
2,38,108,440
2,43,106,98
2,38,102,468
2,43,124,96
2,38,104,72
2,36,114,60
2,36,108,456
2,36,112,38
2,29,114,594
2,30,90,94
2,31,122,0
2,34,102,4
2,36,118,16
2,31,114,8
2,29,127,16
2,36,112,340
2,38,102,96
2,41,127,72
2,41,127,560
2,40,114,26
2,40,114,424
2,40,120,34
2,38,120,380
2,40,114,190
2,41,124,188
2,41,112,468
2,41,110,10
2,41,112,92
2,28,116,388
2,29,127,96
2,30,110,70
2,31,120,78
2,31,116,24
2,31,122,36
2,31,120,20
2,41,122,0
2,41,112,92
2,38,104,26
2,38,110,64
2,36,102,94
2,36,98,90
2,38,108,66
2,36,110,192
2,38,120,78
2,41,120,94
2,41,108,76
2,38,110,100
2,38,104,52
2,36,110,96
2,36,114,88
2,38,114,100
2,36,110,194
2,38,116,8
2,36,122,98
2,36,126,92
2,33,114,60
2,33,96,72
2,31,98,90
2,31,100,66
2,33,112,10
2,31,114,190
2,33,118,64
2,45,116,190
2,35,106,34
2,47,114,194
2,36,108,60
2,48,116,192
2,40,112,58
2,52,110,194
2,41,120,62
2,41,112,100
2,38,116,68
2,38,114,54
2,36,110,94
2,36,110,86
2,38,100,98
2,36,102,2
2,38,116,94
2,41,118,96
2,41,112,76
2,38,114,72
2,38,110,68
2,36,102,96
2,36,110,86
2,38,106,94
2,36,110,196
2,38,116,62
2,36,122,4
2,36,114,94
2,33,114,80
2,33,114,80
2,31,110,94
2,31,112,98
2,33,112,68
2,31,98,194
2,28,120,52
2,28,102,58
2,31,114,96
2,33,120,160
2,33,120,242
2,38,114,162
2,38,125,430
2,38,114,32
2,28,114,498
2,29,114,94
2,30,122,74
2,31,120,0
2,40,114,342
2,41,114,92
2,43,126,80
2,40,114,466
2,43,110,94
2,38,104,92
2,36,118,80
2,36,106,434
2,36,114,38
2,43,110,578
2,45,122,94
2,33,127,14
2,33,114,432
2,33,116,36
2,33,108,382
2,36,108,194
2,38,116,0
2,33,84,298
2,38,104,94
2,38,108,20
2,28,108,484
2,29,118,94
2,30,104,14
2,31,124,4
2,31,114,430
2,31,100,28
2,31,125,582
2,36,125,8
2,36,122,428
2,36,116,30
2,28,108,496
2,29,116,96
2,30,114,72
2,31,118,72
2,34,112,4
2,36,110,4
2,31,114,384
2,29,104,44
2,36,110,300
2,38,102,92
2,41,126,84
2,38,108,458
2,41,116,94
2,40,114,30
2,40,120,366
2,40,114,76
2,40,124,596
2,41,114,192
2,41,127,430
2,41,114,32
2,28,108,516
2,29,122,94
2,30,94,70
2,31,125,2
2,31,118,384
2,31,116,187
2,31,104,193
2,31,116,2
2,31,118,188
2,31,114,6
2,41,122,0
2,41,112,92
2,38,104,26
2,38,110,64
2,36,102,94
2,36,98,90
2,38,108,66
2,36,110,192
2,38,120,78
2,41,120,94
2,41,108,76
2,38,110,100
2,38,104,52
2,36,110,96
2,36,114,88
2,38,114,100
2,36,110,194
2,38,116,8
2,36,122,98
2,36,126,92
2,33,114,60
2,33,96,72
2,31,98,90
2,31,100,66
2,33,112,10
2,31,114,190
2,33,118,64
2,45,116,190
2,35,106,34
2,47,114,194
2,36,108,60
2,48,116,192
2,40,112,58
2,52,110,194
2,41,120,62
2,41,112,100
2,38,116,68
2,38,114,54
2,36,110,94
2,36,110,86
2,38,100,98
2,36,102,2
2,38,116,94
2,41,118,96
2,41,112,76
2,38,114,72
2,38,110,68
2,36,102,96
2,36,110,86
2,38,106,94
2,36,110,196
2,38,116,62
2,36,122,4
2,36,114,94
2,33,114,80
2,33,114,80
2,31,110,94
2,31,112,98
2,33,112,68
2,31,98,194
2,28,120,52
2,28,102,58
2,31,114,96
2,33,120,160
2,33,120,242
2,41,122,162
2,41,112,92
2,38,104,26
2,38,110,64
2,36,102,94
2,36,98,90
2,38,108,66
2,36,110,192
2,38,120,78
2,41,120,94
2,41,108,76
2,38,110,100
2,38,104,52
2,36,110,96
2,36,114,88
2,38,114,100
2,36,110,194
2,38,116,8
2,36,122,98
2,36,126,92
2,33,114,60
2,33,96,72
2,31,98,90
2,31,100,66
2,33,112,10
2,31,114,190
2,33,118,64
2,45,116,190
2,35,106,34
2,47,114,194
2,36,108,60
2,48,116,192
2,40,112,58
2,52,110,194
2,41,120,62
2,41,112,100
2,38,116,68
2,38,114,54
2,36,110,94
2,36,110,86
2,38,100,98
2,36,102,2
2,38,116,94
2,41,118,96
2,41,112,76
2,38,114,72
2,38,110,68
2,36,102,96
2,36,110,86
2,38,106,94
2,36,110,196
2,38,116,62
2,36,122,4
2,36,114,94
2,33,114,80
2,33,114,80
2,31,110,94
2,31,112,98
2,33,112,68
2,31,98,194
2,28,120,52
2,28,102,58
2,31,114,96
2,33,120,160
2,33,120,242
3,81,78,1220
3,77,104,36
3,76,116,34
3,60,4,22
3,65,40,4
3,72,104,2
3,69,59,14
3,72,74,14
3,69,92,2
3,65,90,2
3,64,74,4
3,65,102,948
3,72,86,0
3,64,94,2
3,69,104,0
3,60,92,56
3,64,90,2
3,71,86,0
3,67,86,2
3,60,96,888
3,64,100,0
3,71,88,2
3,67,94,2
3,64,96,8
3,69,104,0
3,72,90,2
3,67,94,0
3,74,76,126
3,67,98,2
3,64,86,0
3,71,90,0
3,76,82,0
3,67,61,2
3,72,88,0
3,69,73,2
3,67,82,118
3,69,100,0
3,72,100,0
3,69,88,72
3,62,100,2
3,60,98,0
3,65,104,4
3,62,80,182
3,65,90,2
3,72,92,0
3,69,102,0
3,72,96,52
3,62,92,2
3,65,94,0
3,69,104,2
3,71,65,24
3,67,82,2
3,64,88,0
3,60,78,2
3,64,92,50
3,69,100,0
3,72,86,0
3,67,100,0
3,74,94,142
3,67,98,2
3,64,94,0
3,71,110,0
3,72,92,260
3,67,82,2
3,69,98,0
3,76,94,0
3,72,104,88
3,69,104,2
3,67,94,2
3,60,104,84
3,69,88,2
3,62,102,0
3,65,100,0
3,72,74,14
3,62,82,2
3,65,96,0
3,69,92,2
3,60,82,52
3,64,88,8
3,67,86,8
3,71,102,10
3,67,96,32
3,64,74,2
3,71,104,194
3,70,86,68
3,67,88,0
3,74,96,0
3,70,86,224
3,77,94,0
3,67,86,2
3,74,98,0
3,67,90,30
3,72,100,0
3,76,102,0
3,70,90,2
3,70,82,160
3,67,82,2
3,74,88,0
3,72,106,38
3,69,106,0
3,76,102,0
3,65,96,0
3,65,82,756
3,72,90,0
3,69,100,4
3,64,96,214
3,71,88,0
3,62,74,2
3,67,96,0
3,79,100,630
3,64,80,72
3,65,94,0
3,72,69,0
3,69,94,0
3,72,94,122
3,65,78,4
3,67,100,4
3,72,104,68
3,67,92,0
3,65,84,2
3,74,94,20
3,67,100,8
3,65,96,0
3,64,86,10
3,69,94,0
3,72,86,0
3,65,98,2
3,60,92,488
3,64,90,12
3,65,86,6
3,69,67,32
3,59,76,54
3,60,102,16
3,64,98,4
3,67,43,32
3,72,102,10
3,69,96,2
3,71,108,14
3,74,98,4
3,72,108,12
3,76,116,4
3,72,102,172
3,79,104,2
3,72,90,12
3,65,96,4
3,69,102,0
3,64,88,2
3,69,69,20
3,65,88,4
3,64,86,0
3,60,90,2
3,69,104,358
3,72,104,0
3,69,114,106
3,72,114,0
3,60,88,76
3,67,102,0
3,64,100,0
3,71,88,0
3,64,102,26
3,67,106,0
3,71,104,0
3,74,94,0
3,74,78,74
3,64,82,2
3,67,92,4
3,71,98,0
3,73,84,242
3,67,98,0
3,64,82,4
3,69,96,0
3,76,98,8
3,65,92,2
3,69,104,2
3,72,100,0
3,72,96,956
3,71,110,30
3,76,104,0
3,79,104,20
