track,note,velocity,time
1,37,104,8360
1,37,104,150
1,37,104,150
1,39,104,102
1,39,104,54
1,39,104,150
1,39,104,54
1,39,104,102
1,36,104,102
1,36,104,150
1,36,104,150
1,41,104,102
1,41,104,54
1,41,104,150
1,41,104,54
1,41,104,102
1,37,104,102
1,37,104,150
1,37,104,150
1,39,104,102
1,39,104,54
1,39,104,150
1,39,104,54
1,39,104,102
1,41,104,102
1,41,104,150
1,39,104,150
1,41,104,102
1,41,104,54
1,41,104,150
1,41,104,54
1,41,104,102
1,37,104,102
1,37,104,150
1,37,104,150
1,39,104,102
1,39,104,54
1,39,104,150
1,39,104,54
1,39,104,102
1,36,104,102
1,36,104,150
1,36,104,150
1,41,104,102
1,41,104,54
1,41,104,150
1,41,104,54
1,41,104,102
1,37,104,102
1,37,104,150
1,37,104,150
1,39,104,102
1,39,104,54
1,39,104,150
1,39,104,54
1,39,104,102
1,41,104,102
1,41,104,150
1,39,104,150
1,41,104,102
1,41,104,54
1,41,104,150
1,41,104,54
1,41,104,102
1,37,104,102
1,37,104,150
1,37,104,150
1,39,104,102
1,39,104,54
1,39,104,150
1,39,104,54
1,39,104,102
1,36,104,102
1,36,104,150
1,36,104,150
1,41,104,102
1,41,104,54
1,41,104,150
1,41,104,54
1,41,104,102
1,37,104,102
1,37,104,150
1,37,104,150
1,39,104,102
1,39,104,54
1,39,104,150
1,39,104,54
1,39,104,102
1,41,104,102
1,41,104,150
1,39,104,150
1,41,104,102
1,41,104,54
1,41,104,150
1,41,104,54
1,41,104,102
1,37,104,102
1,37,104,150
1,37,104,150
1,39,104,102
1,39,104,54
1,39,104,150
1,39,104,54
1,39,104,102
1,36,104,102
1,36,104,150
1,36,104,150
1,41,104,102
1,41,104,54
1,41,104,150
1,41,104,54
1,41,104,102
1,37,104,102
1,37,104,150
1,37,104,150
1,39,104,102
1,39,104,54
1,39,104,150
1,39,104,54
1,39,104,102
1,41,104,102
1,41,104,150
1,39,104,150
1,41,104,102
1,41,104,54
1,41,104,150
1,41,104,54
1,41,104,102
1,37,104,102
1,37,73,54
1,37,104,34
1,37,73,54
1,37,104,34
1,39,104,102
1,39,104,54
1,39,104,150
1,39,104,54
1,39,73,6
1,39,104,72
1,39,104,102
1,39,73,54
1,39,104,34
1,39,73,54
1,39,104,34
1,41,104,102
1,41,104,54
1,41,104,150
1,41,104,54
1,41,73,6
1,41,104,72
1,37,104,102
1,37,73,54
1,37,104,34
1,37,73,54
1,37,104,34
1,39,104,102
1,39,104,54
1,39,104,150
1,39,104,54
1,39,73,6
1,39,104,72
1,39,104,102
1,39,73,54
1,39,104,34
1,39,73,54
1,39,104,34
1,37,104,102
1,37,104,54
1,37,104,150
1,37,104,54
1,37,73,6
1,37,104,72
1,37,104,102
1,37,73,54
1,37,104,34
1,37,73,54
1,37,104,34
1,39,104,102
1,39,104,54
1,39,104,150
1,39,104,54
1,39,73,6
1,39,104,72
1,39,104,102
1,39,73,54
1,39,104,34
1,39,73,54
1,39,104,34
1,41,104,102
1,41,104,54
1,41,104,150
1,41,104,54
1,41,73,6
1,41,104,72
1,37,104,102
1,37,73,54
1,37,104,34
1,37,73,54
1,37,104,34
1,39,104,102
1,39,104,54
1,39,104,150
1,39,104,54
1,39,73,6
1,39,104,72
1,39,104,102
1,39,73,54
1,39,104,34
1,39,73,54
1,39,104,34
1,37,104,870
1,37,104,150
1,37,104,150
1,39,104,102
1,39,104,54
1,39,104,150
1,39,104,54
1,39,104,102
1,36,104,102
1,36,104,150
1,36,104,150
1,41,104,102
1,41,104,54
1,41,104,150
1,41,104,54
1,41,104,102
1,37,104,102
1,37,104,150
1,37,104,150
1,39,104,102
1,39,104,54
1,39,104,150
1,39,104,54
1,39,104,102
1,41,104,102
1,41,104,150
1,39,104,150
1,41,104,102
1,41,104,54
1,41,104,150
1,41,104,54
1,41,104,102
1,37,104,102
1,37,104,150
1,37,104,150
1,39,104,102
1,39,104,54
1,39,104,150
1,39,104,54
1,39,104,102
1,36,104,102
1,36,104,150
1,36,104,150
1,41,104,102
1,41,104,54
1,41,104,150
1,41,104,54
1,41,104,102
1,37,104,102
1,37,104,150
1,37,104,150
1,39,104,102
1,39,104,54
1,39,104,150
1,39,104,54
1,39,104,102
1,41,104,102
1,41,104,150
1,39,104,150
1,41,104,102
1,41,104,54
1,41,104,150
1,41,104,54
1,41,104,102
1,37,104,102
1,37,104,150
1,37,104,150
1,39,104,102
1,39,104,54
1,39,104,150
1,39,104,54
1,39,104,102
1,36,104,102
1,36,104,150
1,36,104,150
1,41,104,102
1,41,104,54
1,41,104,150
1,41,104,54
1,41,104,102
1,37,104,102
1,37,104,150
1,37,104,150
1,39,104,102
1,39,104,54
1,39,104,150
1,39,104,54
1,39,104,102
1,41,104,102
1,41,104,150
1,39,104,150
1,41,104,102
1,41,104,54
1,41,104,150
1,41,104,54
1,41,104,102
1,37,104,102
1,37,104,150
1,37,104,150
1,39,104,102
1,39,104,54
1,39,104,150
1,39,104,54
1,39,104,102
1,36,104,102
1,36,104,150
1,36,104,150
1,41,104,102
1,41,104,54
1,41,104,150
1,41,104,54
1,41,104,102
1,37,104,102
1,37,104,150
1,37,104,150
1,39,104,102
1,39,104,54
1,39,104,150
1,39,104,54
1,39,104,102
1,41,104,102
1,41,104,150
1,39,104,150
1,41,104,102
1,41,104,54
1,41,104,150
1,41,104,54
1,41,104,102
1,37,104,102
1,37,73,54
1,37,104,34
1,37,73,54
1,37,104,34
1,39,104,102
1,39,104,54
1,39,104,150
1,39,104,54
1,39,73,6
1,39,104,72
1,39,104,102
1,39,73,54
1,39,104,34
1,39,73,54
1,39,104,34
1,41,104,102
1,41,104,54
1,41,104,150
1,41,104,54
1,41,73,6
1,41,104,72
1,37,104,102
1,37,73,54
1,37,104,34
1,37,73,54
1,37,104,34
1,39,104,102
1,39,104,54
1,39,104,150
1,39,104,54
1,39,73,6
1,39,104,72
1,39,104,102
1,39,73,54
1,39,104,34
1,39,73,54
1,39,104,34
1,37,104,102
1,37,104,54
1,37,104,150
1,37,104,54
1,37,73,6
1,37,104,72
1,37,104,102
1,37,73,54
1,37,104,34
1,37,73,54
1,37,104,34
1,39,104,102
1,39,104,54
1,39,104,150
1,39,104,54
1,39,73,6
1,39,104,72
1,39,104,102
1,39,73,54
1,39,104,34
1,39,73,54
1,39,104,34
1,41,104,102
1,41,104,54
1,41,104,150
1,41,104,54
1,41,73,6
1,41,104,72
1,37,104,102
1,37,73,54
1,37,104,34
1,37,73,54
1,37,104,34
1,39,104,102
1,39,104,54
1,39,104,150
1,39,104,54
1,39,73,6
1,39,104,72
1,39,104,102
1,39,73,54
1,39,104,34
1,39,73,54
1,39,104,34
1,37,104,870
1,37,104,150
1,37,104,150
1,39,104,102
1,39,104,54
1,39,104,150
1,39,104,54
1,39,104,102
1,36,104,102
1,36,104,150
1,36,104,150
1,41,104,102
1,41,104,54
1,41,104,150
1,41,104,54
1,41,104,102
1,37,104,102
1,37,104,150
1,37,104,150
1,39,104,102
1,39,104,54
1,39,104,150
1,39,104,54
1,39,104,102
1,41,104,102
1,41,104,150
1,39,104,150
1,41,104,102
1,41,104,54
1,41,104,150
1,41,104,54
1,41,104,102
1,37,104,102
1,37,104,150
1,37,104,150
1,39,104,102
1,39,104,54
1,39,104,150
1,39,104,54
1,39,104,102
1,36,104,102
1,36,104,150
1,36,104,150
1,41,104,102
1,41,104,54
1,41,104,150
1,41,104,54
1,41,104,102
1,37,104,102
1,37,104,150
1,37,104,150
1,39,104,102
1,39,104,54
1,39,104,150
1,39,104,54
1,39,104,102
1,41,104,102
1,41,104,150
1,39,104,150
1,41,104,102
1,41,104,54
1,41,104,150
1,41,104,54
1,41,104,102
1,37,104,102
1,37,104,150
1,37,104,150
1,39,104,102
1,39,104,54
1,39,104,150
1,39,104,54
1,39,104,102
1,36,104,102
1,36,104,150
1,36,104,150
1,41,104,102
1,41,104,54
1,41,104,150
1,41,104,54
1,41,104,102
1,37,104,102
1,37,104,150
1,37,104,150
1,39,104,102
1,39,104,54
1,39,104,150
1,39,104,54
1,39,104,102
1,41,104,102
1,41,104,150
1,39,104,150
1,41,104,102
1,41,104,54
1,41,104,150
1,41,104,54
1,41,104,102
1,37,104,102
1,37,104,150
1,37,104,150
1,39,104,102
1,39,104,54
1,39,104,150
1,39,104,54
1,39,104,102
1,36,104,102
1,36,104,150
1,36,104,150
1,41,104,102
1,41,104,54
1,41,104,150
1,41,104,54
1,41,104,102
1,37,104,102
1,37,104,150
1,37,104,150
1,39,104,102
1,39,104,54
1,39,104,150
1,39,104,54
1,39,104,102
1,41,104,102
1,41,104,150
1,39,104,150
1,41,104,102
1,41,104,54
1,41,104,150
1,41,104,54
1,41,104,102
1,37,104,102
1,37,104,150
1,37,104,150
1,39,104,102
1,39,104,54
1,39,104,150
1,39,104,54
1,39,104,102
1,36,104,102
1,36,104,150
1,36,104,150
1,41,104,102
1,41,104,54
1,41,104,150
1,41,104,54
1,41,104,102
1,37,104,102
1,37,104,150
1,37,104,150
1,39,104,102
1,39,104,54
1,39,104,150
1,39,104,54
1,39,104,102
1,41,104,102
1,41,104,150
1,39,104,150
1,41,104,102
1,41,104,54
1,41,104,150
1,41,104,54
1,41,104,102
1,41,104,102
1,41,73,54
1,41,104,0
1,41,73,54
1,36,104,96
1,29,104,102
1,29,104,6
1,29,73,6
1,29,104,72
1,29,104,6
1,29,73,6
1,36,104,72
1,29,104,102
1,29,73,54
1,29,104,0
1,29,73,54
1,32,104,96
1,37,104,102
1,37,104,6
1,37,73,6
1,37,104,72
1,37,104,6
1,37,73,6
1,36,104,72
1,41,104,102
1,41,73,54
1,41,104,0
1,41,73,54
1,36,104,96
1,29,104,102
1,29,73,54
1,29,104,0
1,29,73,54
1,36,104,96
1,29,104,102
1,29,104,6
1,29,73,6
1,29,104,72
1,29,104,6
1,29,73,6
1,32,104,72
1,37,104,102
1,37,73,54
1,37,104,0
1,37,73,54
1,36,104,96
1,41,104,102
1,41,73,54
1,41,104,0
1,41,73,54
1,36,104,96
1,29,104,102
1,29,104,6
1,29,73,6
1,29,104,72
1,29,104,6
1,29,73,6
1,36,104,72
1,29,104,102
1,29,73,54
1,29,104,0
1,29,73,54
1,32,104,96
1,37,104,102
1,37,104,6
1,37,73,6
1,37,104,72
1,37,104,6
1,37,73,6
1,36,104,72
1,41,104,102
1,41,73,54
1,41,104,0
1,41,73,54
1,36,104,96
1,29,104,102
1,29,73,54
1,29,104,0
1,29,73,54
1,36,104,96
1,29,104,102
1,29,104,6
1,29,73,6
1,29,104,72
1,29,104,6
1,29,73,6
1,32,104,72
1,37,104,102
1,37,73,54
1,37,104,0
1,37,73,54
1,36,104,96
1,41,104,102
1,41,73,54
1,41,104,0
1,41,73,54
1,36,104,96
1,29,104,102
1,29,104,6
1,29,73,6
1,29,104,72
1,29,104,6
1,29,73,6
1,36,104,72
1,29,104,102
1,29,73,54
1,29,104,0
1,29,73,54
1,32,104,96
1,37,104,102
1,37,104,6
1,37,73,6
1,37,104,72
1,37,104,6
1,37,73,6
1,36,104,72
1,41,104,102
1,41,73,54
1,41,104,0
1,41,73,54
1,36,104,96
1,29,104,102
1,29,73,54
1,29,104,0
1,29,73,54
1,36,104,96
1,29,104,102
1,29,104,6
1,29,73,6
1,29,104,72
1,29,104,6
1,29,73,6
1,32,104,72
1,37,104,102
1,37,73,54
1,37,104,0
1,37,73,54
1,36,104,96
1,41,104,102
1,41,73,54
1,41,104,0
1,41,73,54
1,36,104,96
1,29,104,102
1,29,104,6
1,29,73,6
1,29,104,72
1,29,104,6
1,29,73,6
1,36,104,72
1,29,104,102
1,29,73,54
1,29,104,0
1,29,73,54
1,32,104,96
1,37,104,102
1,37,104,6
1,37,73,6
1,37,104,72
1,37,104,6
1,37,73,6
1,36,104,72
1,41,104,102
1,41,73,54
1,41,104,0
1,41,73,54
1,36,104,96
1,29,104,102
1,29,73,54
1,29,104,0
1,29,73,54
1,36,104,96
1,29,104,102
1,29,104,6
1,29,73,6
1,29,104,72
1,29,104,6
1,29,73,6
1,32,104,72
1,37,104,102
1,37,73,54
1,37,104,0
1,37,73,54
1,36,104,96
1,41,104,102
1,41,73,54
1,41,104,0
1,41,73,54
1,36,104,96
1,29,104,102
1,29,104,6
1,29,73,6
1,29,104,72
1,29,104,6
1,29,73,6
1,36,104,72
1,29,104,102
1,29,73,54
1,29,104,0
1,29,73,54
1,32,104,96
1,37,104,102
1,37,104,6
1,37,73,6
1,37,104,72
1,37,104,6
1,37,73,6
1,36,104,72
1,41,104,102
1,41,73,54
1,41,104,0
1,41,73,54
1,36,104,96
1,29,104,102
1,29,73,54
1,29,104,0
1,29,73,54
1,36,104,96
1,29,104,102
1,37,104,1446
1,37,104,150
1,37,104,150
1,39,104,102
1,39,104,54
1,39,104,150
1,39,104,54
1,39,104,102
1,39,104,102
1,39,104,150
1,39,104,150
1,41,104,102
1,41,104,54
1,41,104,150
1,41,104,54
1,41,104,102
1,37,104,102
1,37,104,150
1,37,104,150
1,39,104,102
1,39,104,54
1,39,104,150
1,39,104,54
1,39,104,102
1,39,104,102
1,39,104,150
1,39,104,150
1,37,104,102
1,37,104,54
1,37,104,150
1,37,104,54
1,37,104,102
1,37,104,102
1,37,104,150
1,37,104,150
1,39,104,102
1,39,104,54
1,39,104,150
1,39,104,54
1,39,104,102
1,39,104,102
1,39,104,150
1,39,104,150
1,41,104,102
1,41,104,54
1,41,104,150
1,41,104,54
1,41,104,102
1,37,104,102
1,37,104,150
1,37,104,150
1,39,104,102
1,39,104,54
1,39,104,150
1,39,104,54
1,39,104,102
1,39,104,102
1,39,104,150
1,39,104,150
1,37,104,870
1,37,104,150
1,37,104,150
1,39,104,102
1,39,104,54
1,39,104,150
1,39,104,54
1,39,104,102
1,36,104,102
1,36,104,150
1,36,104,150
1,41,104,102
1,41,104,54
1,41,104,150
1,41,104,54
1,41,104,102
1,37,104,102
1,37,104,150
1,37,104,150
1,39,104,102
1,39,104,54
1,39,104,150
1,39,104,54
1,39,104,102
1,41,104,102
1,41,104,150
1,39,104,150
1,41,104,102
1,41,104,54
1,41,104,150
1,41,104,54
1,41,104,102
1,37,104,102
1,37,104,150
1,37,104,150
1,39,104,102
1,39,104,54
1,39,104,150
1,39,104,54
1,39,104,102
1,36,104,102
1,36,104,150
1,36,104,150
1,41,104,102
1,41,104,54
1,41,104,150
1,41,104,54
1,41,104,102
1,37,104,102
1,37,104,150
1,37,104,150
1,39,104,102
1,39,104,54
1,39,104,150
1,39,104,54
1,39,104,102
1,41,104,102
1,41,104,150
1,39,104,150
1,41,104,102
1,41,104,54
1,41,104,150
1,41,104,54
1,41,104,102
1,37,104,102
1,37,104,150
1,37,104,150
1,39,104,102
1,39,104,54
1,39,104,150
1,39,104,54
1,39,104,102
1,36,104,102
1,36,104,150
1,36,104,150
1,41,104,102
1,41,104,54
1,41,104,150
1,41,104,54
1,41,104,102
1,37,104,102
1,37,104,150
1,37,104,150
1,39,104,102
1,39,104,54
1,39,104,150
1,39,104,54
1,39,104,102
1,41,104,102
1,41,104,150
1,39,104,150
1,41,104,102
1,41,104,54
1,41,104,150
1,41,104,54
1,41,104,102
1,37,104,102
1,37,104,96
1,37,104,96
1,39,104,0
1,39,104,54
1,39,104,0
1,39,104,54
1,39,104,0
1,36,104,102
1,36,104,150
1,36,104,150
1,41,104,96
1,41,104,54
1,41,104,96
1,41,104,54
1,41,104,96
1,37,104,0
1,37,104,0
1,37,104,0
1,39,104,102
1,39,104,0
1,39,104,150
1,39,104,0
1,39,104,102
1,41,104,96
1,41,104,96
1,39,104,96
1,41,104,0
1,41,104,54
1,41,104,0
1,41,104,54
1,41,104,0
1,37,104,102
1,37,104,150
1,37,104,150
1,39,104,96
1,39,104,54
1,39,104,96
1,39,104,54
1,39,104,96
1,36,104,0
1,36,104,0
1,36,104,0
1,41,104,102
1,41,104,0
1,41,104,150
