track,note,velocity,time
0,52,115,42
0,40,94,16
0,52,29,0
0,59,28,0
0,64,27,0
0,52,35,76
0,59,34,0
0,64,33,0
0,52,42,76
0,59,41,0
0,64,40,0
0,52,51,76
0,59,50,0
0,64,49,0
0,52,56,38
0,59,55,0
0,64,54,0
0,52,61,76
0,59,60,0
0,64,59,0
0,52,64,70
0,59,63,0
0,64,62,0
0,52,64,20
0,59,63,0
0,64,62,0
0,52,64,76
0,59,63,0
0,64,62,0
0,52,64,52
0,59,63,0
0,64,62,0
0,52,64,76
0,59,63,0
0,64,62,0
0,52,64,76
0,59,63,0
0,64,62,0
0,52,64,76
0,59,63,0
0,64,62,0
0,52,64,76
0,59,63,0
0,64,62,0
0,52,64,12
0,59,63,0
0,64,62,0
0,52,64,76
0,59,63,0
0,64,62,0
0,40,91,36
0,59,95,2
0,64,95,0
0,69,95,0
0,52,64,16
0,57,80,0
0,59,63,0
0,64,62,0
0,52,64,76
0,59,63,0
0,64,62,0
0,52,64,24
0,59,63,0
0,64,62,0
0,52,64,76
0,59,63,0
0,64,62,0
0,52,64,8
0,59,63,0
0,64,62,0
0,52,64,24
0,59,63,0
0,64,62,0
0,52,64,76
0,59,63,0
0,64,62,0
0,52,64,76
0,59,63,0
0,64,62,0
0,52,64,76
0,59,63,0
0,64,62,0
0,52,64,76
0,59,63,0
0,64,62,0
0,52,64,54
0,59,63,0
0,64,62,0
0,52,64,14
0,59,63,0
0,64,62,0
0,59,100,36
0,66,100,0
0,71,100,0
0,52,64,12
0,59,63,0
0,59,80,0
0,64,62,0
0,52,64,48
0,59,63,0
0,64,62,0
0,52,64,48
0,59,63,0
0,64,62,0
0,52,64,46
0,59,63,0
0,64,62,0
0,52,64,4
0,59,63,0
0,64,62,0
0,52,64,24
0,59,63,0
0,64,62,0
0,52,64,40
0,59,63,0
0,64,62,0
0,52,64,58
0,59,63,0
0,64,62,0
0,52,64,16
0,59,63,0
0,64,62,0
0,52,64,34
0,59,63,0
0,64,62,0
0,52,64,34
0,59,63,0
0,64,62,0
0,52,64,12
0,59,63,0
0,64,62,0
0,52,64,30
0,59,63,0
0,64,62,0
0,52,64,8
0,59,63,0
0,64,62,0
0,52,64,26
0,59,63,0
0,64,62,0
0,52,64,24
0,59,63,0
0,64,62,0
0,76,55,46
0,83,55,0
0,88,55,0
0,52,64,16
0,59,63,0
0,64,62,0
0,52,64,22
0,59,63,0
0,64,62,0
0,52,64,20
0,59,63,0
0,64,62,0
0,52,64,12
0,59,63,0
0,64,62,0
0,52,64,16
0,59,63,0
0,64,62,0
0,52,64,4
0,59,63,0
0,64,62,0
0,52,64,72
0,59,63,0
0,64,62,0
0,52,64,16
0,59,63,0
0,64,62,0
0,76,29,26
0,83,28,0
0,88,27,0
0,76,35,24
0,83,34,0
0,88,33,0
0,76,42,42
0,83,41,0
0,88,40,0
0,76,51,76
0,83,50,0
0,88,49,0
0,76,56,20
0,83,55,0
0,88,54,0
0,76,61,38
0,83,60,0
0,88,59,0
0,76,64,16
0,83,63,0
0,88,62,0
0,76,64,14
0,83,63,0
0,88,62,0
0,76,64,14
0,83,63,0
0,88,62,0
0,76,64,12
0,83,63,0
0,88,62,0
0,76,64,30
0,83,63,0
0,88,62,0
0,76,64,36
0,83,63,0
0,88,62,0
0,76,64,14
0,83,63,0
0,88,62,0
0,76,64,44
0,83,63,0
0,88,62,0
0,76,64,8
0,83,63,0
0,88,62,0
0,76,64,20
0,83,63,0
0,88,62,0
0,76,64,18
0,83,63,0
0,88,62,0
0,76,64,16
0,83,63,0
0,88,62,0
0,76,64,24
0,83,63,0
0,88,62,0
0,76,64,76
0,83,63,0
0,88,62,0
0,76,64,8
0,83,63,0
0,88,62,0
0,76,64,76
0,83,63,0
0,88,62,0
0,76,64,8
0,83,63,0
0,88,62,0
0,76,64,26
0,83,63,0
0,88,62,0
0,76,64,44
0,83,63,0
0,88,62,0
0,76,64,62
0,83,63,0
0,88,62,0
0,76,64,76
0,83,63,0
0,88,62,0
0,76,64,38
0,83,63,0
0,88,62,0
0,76,64,16
0,83,63,0
0,88,62,0
0,76,64,56
0,83,63,0
0,88,62,0
0,76,64,32
0,83,63,0
0,88,62,0
0,76,64,12
0,83,63,0
0,88,62,0
0,76,64,30
0,83,63,0
0,88,62,0
0,76,64,28
0,83,63,0
0,88,62,0
0,76,64,8
0,83,63,0
0,88,62,0
0,76,64,44
0,83,63,0
0,88,62,0
0,76,64,42
0,83,63,0
0,88,62,0
0,76,64,40
0,83,63,0
0,88,62,0
0,76,64,20
0,83,63,0
0,88,62,0
0,76,64,38
0,83,63,0
0,88,62,0
0,76,64,16
0,83,63,0
0,88,62,0
0,79,110,14
0,76,64,16
0,83,63,0
0,88,62,0
0,76,64,12
0,83,63,0
0,88,62,0
0,76,64,32
0,83,63,0
0,88,62,0
0,76,64,28
0,83,63,0
0,88,62,0
0,76,64,8
0,83,63,0
0,88,62,0
0,76,64,6
0,83,63,0
0,88,62,0
0,76,64,18
0,83,63,0
0,88,62,0
0,76,64,76
0,83,63,0
0,88,62,0
0,76,64,16
0,83,63,0
0,88,62,0
0,76,64,18
0,83,63,0
0,88,62,0
0,76,64,16
0,83,63,0
0,88,62,0
0,76,110,16
0,64,99,42
0,74,110,16
0,76,110,8
0,88,29,14
0,95,28,0
0,100,27,0
0,88,35,12
0,95,34,0
0,100,33,0
0,88,42,30
0,95,41,0
0,100,40,0
0,88,51,48
0,95,50,0
0,100,49,0
0,69,99,2
0,88,56,8
0,95,55,0
0,100,54,0
0,88,61,24
0,95,60,0
0,100,59,0
0,88,64,24
0,95,63,0
0,100,62,0
0,88,64,20
0,95,63,0
0,100,62,0
0,88,64,58
0,95,63,0
0,100,62,0
0,88,64,16
0,95,63,0
0,100,62,0
0,88,64,16
0,95,63,0
0,100,62,0
0,88,64,34
0,95,63,0
0,100,62,0
0,71,99,10
0,88,64,12
0,95,63,0
0,100,62,0
0,88,64,10
0,95,63,0
0,100,62,0
0,88,64,24
0,95,63,0
0,100,62,0
0,88,64,46
0,95,63,0
0,100,62,0
0,88,64,6
0,95,63,0
0,100,62,0
0,88,64,76
0,95,63,0
0,100,62,0
0,88,64,22
0,95,63,0
0,100,62,0
0,71,100,64
0,88,64,12
0,95,63,0
0,100,62,0
0,59,100,4
0,64,100,8
0,88,64,20
0,95,63,0
0,100,62,0
0,76,99,14
0,88,64,60
0,95,63,0
0,100,62,0
0,88,64,34
0,95,63,0
0,100,62,0
0,88,64,76
0,95,63,0
0,100,62,0
0,88,64,42
0,95,63,0
0,100,62,0
0,88,64,76
0,95,63,0
0,100,62,0
0,88,64,44
0,95,63,0
0,100,62,0
0,88,64,76
0,95,63,0
0,100,62,0
0,69,100,0
0,64,65,18
0,88,64,24
0,95,63,0
0,100,62,0
0,88,64,76
0,95,63,0
0,100,62,0
0,74,99,4
0,88,64,38
0,95,63,0
0,100,62,0
0,88,64,76
0,95,63,0
0,100,62,0
0,88,64,16
0,95,63,0
0,100,62,0
0,88,64,76
0,95,63,0
0,100,62,0
0,88,64,8
0,95,63,0
0,100,62,0
0,88,64,76
0,95,63,0
0,100,62,0
0,88,64,76
0,95,63,0
0,100,62,0
0,88,64,76
0,95,63,0
0,100,62,0
0,71,90,68
0,78,90,2
0,88,64,0
0,95,63,0
0,100,62,0
0,88,64,76
0,95,63,0
0,100,62,0
0,88,64,76
0,95,63,0
0,100,62,0
0,88,64,64
0,95,63,0
0,100,62,0
0,88,64,76
0,95,63,0
0,100,62,0
0,88,64,58
0,95,63,0
0,100,62,0
0,88,64,76
0,95,63,0
0,100,62,0
0,88,64,50
0,95,63,0
0,100,62,0
0,88,64,76
0,95,63,0
0,100,62,0
0,88,64,44
0,95,63,0
0,100,62,0
0,76,90,28
0,81,90,0
0,88,64,6
0,95,63,0
0,100,62,0
0,88,64,76
0,95,63,0
0,100,62,0
0,88,64,76
0,95,63,0
0,100,62,0
0,88,64,4
0,95,63,0
0,100,62,0
0,58,95,70
0,88,64,6
0,95,63,0
0,100,62,0
0,88,64,2
0,95,63,0
0,100,62,0
0,88,64,6
0,95,63,0
0,100,62,0
0,88,64,6
0,95,63,0
0,100,62,0
0,88,64,6
0,95,63,0
0,100,62,0
0,88,64,6
0,95,63,0
0,100,62,0
0,88,64,6
0,95,63,0
0,100,62,0
0,88,64,6
0,95,63,0
0,100,62,0
0,88,64,6
0,95,63,0
0,100,62,0
0,88,64,6
0,95,63,0
0,100,62,0
0,88,64,6
0,95,63,0
0,100,62,0
0,88,64,6
0,95,63,0
0,100,62,0
0,40,108,0
0,49,77,0
0,28,103,2
0,55,108,2
0,67,97,0
0,55,95,2
0,88,64,0
0,95,63,0
0,100,62,0
0,88,64,76
0,95,63,0
0,100,62,0
0,52,108,2
0,64,97,0
0,52,95,2
0,88,64,0
0,95,63,0
0,100,62,0
0,88,64,76
0,95,63,0
0,100,62,0
0,57,108,2
0,69,97,0
0,57,95,2
0,88,64,0
0,95,63,0
0,100,62,0
0,88,64,76
0,95,63,0
0,100,62,0
0,52,108,2
0,64,97,0
0,52,95,2
0,88,64,0
0,95,63,0
0,100,62,0
0,88,64,76
0,95,63,0
0,100,62,0
0,59,108,2
0,71,97,0
0,59,95,2
0,88,64,0
0,95,63,0
0,100,62,0
0,88,64,76
0,95,63,0
0,100,62,0
0,52,108,2
0,64,97,0
0,52,95,2
0,88,64,0
0,95,63,0
0,100,62,0
0,88,64,66
0,95,63,0
0,100,62,0
0,60,108,2
0,72,97,0
0,60,95,2
0,88,64,0
0,95,63,0
0,100,62,0
0,88,64,56
0,95,63,0
0,100,62,0
0,59,108,2
0,71,97,0
0,59,95,2
0,88,64,0
0,95,63,0
0,100,62,0
0,88,64,48
0,95,63,0
0,100,62,0
0,42,108,24
0,30,96,0
0,47,98,2
0,59,87,0
0,47,85,2
0,88,64,0
0,95,63,0
0,100,62,0
0,88,64,36
0,95,63,0
0,100,62,0
0,59,108,2
0,71,97,0
0,59,95,2
0,88,64,0
0,95,63,0
0,100,62,0
0,88,64,24
0,95,63,0
0,100,62,0
0,60,108,2
0,72,97,0
0,60,95,2
0,88,64,0
0,95,63,0
0,100,62,0
0,88,64,16
0,95,63,0
0,100,62,0
0,47,98,2
0,59,87,0
0,47,85,2
0,88,64,0
0,95,63,0
0,100,62,0
0,88,64,76
0,95,63,0
0,100,62,0
0,59,108,2
0,71,97,0
0,59,95,2
0,88,64,0
0,95,63,0
0,100,62,0
0,88,64,76
0,95,63,0
0,100,62,0
0,47,98,2
0,59,87,0
0,47,85,2
0,88,64,0
0,95,63,0
0,100,62,0
0,88,64,76
0,95,63,0
0,100,62,0
0,57,108,2
0,69,97,0
0,57,95,2
0,88,64,0
0,95,63,0
0,100,62,0
0,88,64,76
0,95,63,0
0,100,62,0
0,47,98,2
0,59,87,0
0,47,85,2
0,88,64,0
0,95,63,0
0,100,62,0
0,88,64,76
0,95,63,0
0,100,62,0
0,43,108,2
0,31,103,0
0,55,108,2
0,67,97,0
0,55,95,2
0,52,108,2
0,64,97,0
0,52,95,2
0,57,108,2
0,69,97,0
0,57,95,2
0,52,108,2
0,64,97,0
0,52,95,2
0,59,108,2
0,71,97,0
0,59,95,2
0,52,108,2
0,64,97,0
0,52,95,2
0,60,108,2
0,72,97,0
0,60,95,2
0,59,108,2
0,71,97,0
0,59,95,2
0,47,108,20
0,35,102,0
0,47,98,2
0,59,87,0
0,47,85,2
0,59,108,2
0,71,97,0
0,59,95,2
0,60,108,2
0,72,97,0
0,60,95,2
0,47,98,2
0,59,87,0
0,47,85,2
0,59,108,2
0,71,97,0
0,59,95,2
0,47,98,2
0,59,87,0
0,47,85,2
0,57,108,2
0,69,97,0
0,57,95,2
0,47,98,2
0,59,87,0
0,47,85,2
0,40,108,2
0,36,93,4
0,54,70,2
0,28,101,0
0,55,108,2
0,67,97,0
0,55,95,2
0,54,46,76
0,54,37,76
0,52,108,2
0,64,97,0
0,52,95,2
0,54,30,76
0,40,81,74
0,54,70,2
0,57,108,2
0,69,97,0
0,57,95,2
0,54,46,76
0,54,37,76
0,52,108,2
0,64,97,0
0,52,95,2
0,40,81,74
0,54,30,2
0,36,73,74
0,54,70,2
0,59,108,2
0,71,97,0
0,59,95,2
0,40,81,74
0,54,46,2
0,36,73,74
0,54,37,2
0,52,108,2
0,64,97,0
0,52,95,2
0,54,30,76
0,40,81,74
0,54,70,2
0,60,108,2
0,72,97,0
0,60,95,2
0,54,46,76
0,36,73,74
0,54,37,2
0,59,108,2
0,71,97,0
0,59,95,2
0,54,30,76
0,42,108,22
0,36,93,4
0,54,70,2
0,30,92,0
0,47,98,2
0,59,87,0
0,47,85,2
0,54,46,76
0,54,37,76
0,59,108,2
0,71,97,0
0,59,95,2
0,54,30,76
0,40,81,74
0,54,70,2
0,60,108,2
0,72,97,0
0,60,95,2
0,54,46,76
0,54,37,76
0,47,98,2
0,59,87,0
0,47,85,2
0,40,81,74
0,54,30,2
0,36,73,74
0,54,70,2
0,59,108,2
0,71,97,0
0,59,95,2
0,40,81,74
0,54,46,2
0,36,73,74
0,54,37,2
0,47,98,2
0,59,87,0
0,47,85,2
0,54,30,76
0,40,81,74
0,54,70,2
0,57,108,2
0,69,97,0
0,57,95,2
0,54,46,76
0,36,73,74
0,54,37,2
0,47,98,2
0,59,87,0
0,47,85,2
0,54,30,76
0,43,108,16
0,36,93,4
0,54,70,2
0,31,103,0
0,55,108,2
0,67,97,0
0,55,95,2
0,54,46,76
0,54,37,76
0,52,108,2
0,64,97,0
0,52,95,2
0,54,30,76
0,40,81,74
0,54,70,2
0,57,108,2
0,69,97,0
0,57,95,2
0,54,46,76
0,54,37,76
0,52,108,2
0,64,97,0
0,52,95,2
0,40,81,74
0,54,30,2
0,36,73,74
0,54,70,2
0,59,108,2
0,71,97,0
0,59,95,2
0,40,81,74
0,54,46,2
0,36,73,74
0,54,37,2
0,52,108,2
0,64,97,0
0,52,95,2
0,54,30,76
0,40,81,74
0,54,70,2
0,60,108,2
0,72,97,0
0,60,95,2
0,54,46,76
0,36,73,74
0,54,37,2
0,59,108,2
0,71,97,0
0,59,95,2
0,54,30,76
0,47,108,2
0,36,93,4
0,38,48,0
0,54,70,2
0,79,110,0
0,35,103,0
0,47,98,2
0,59,87,0
0,47,85,2
0,38,52,74
0,54,46,2
0,38,55,74
0,54,37,2
0,59,108,2
0,71,97,0
0,59,95,2
0,38,60,74
0,54,30,2
0,38,63,74
0,40,81,0
0,54,70,2
0,60,108,2
0,72,97,0
0,60,95,2
0,38,67,16
0,54,46,2
0,38,71,74
0,54,37,2
0,47,98,2
0,59,87,0
0,47,85,2
0,38,74,74
0,40,81,0
0,54,30,2
0,36,73,74
0,38,78,0
0,54,70,2
0,59,108,2
0,71,97,0
0,59,95,2
0,38,82,74
0,40,81,0
0,54,46,2
0,36,73,74
0,38,86,0
0,54,37,2
0,47,98,2
0,59,87,0
0,47,85,2
0,38,90,74
0,54,30,2
0,76,110,36
0,38,93,4
0,40,81,0
0,54,70,2
0,57,108,2
0,69,97,0
0,57,95,2
0,38,97,74
0,54,46,2
0,36,73,74
0,38,97,0
0,54,37,2
0,47,98,2
0,59,87,0
0,47,85,0
0,74,110,10
0,38,93,74
0,54,30,2
0,59,81,42
0,64,81,0
0,67,81,0
0,35,110,4
0,42,82,0
0,57,75,0
0,54,70,2
0,40,99,0
0,40,107,2
0,55,108,0
0,67,97,0
0,55,95,2
0,76,110,30
0,42,62,12
0,54,46,2
0,52,107,4
0,46,72,12
0,54,37,2
0,52,99,0
0,40,107,2
0,52,108,0
0,64,97,0
0,52,95,2
0,42,50,12
0,54,30,2
0,52,107,4
0,35,110,12
0,38,97,0
0,40,65,0
0,42,82,0
0,54,70,2
0,39,92,0
0,40,99,0
0,40,107,2
0,57,108,0
0,69,97,0
0,57,95,2
0,42,62,12
0,54,46,2
0,52,107,4
0,46,72,12
0,54,37,2
0,52,99,0
