track,note,velocity,time
0,62,87,3522
0,65,93,28
0,67,96,26
0,62,64,176
0,58,64,0
0,55,64,0
0,70,87,24
0,69,87,112
0,70,87,144
0,67,87,144
0,62,84,136
0,70,87,8
0,63,75,34
0,69,87,10
0,62,81,38
0,70,87,8
0,65,92,28
0,67,87,6
0,62,64,16
0,53,64,0
0,58,64,0
0,70,87,24
0,62,90,82
0,69,87,4
0,70,87,144
0,65,87,144
0,70,87,144
0,69,87,144
0,62,84,140
0,70,87,4
0,65,88,18
0,65,87,12
0,62,64,16
0,57,64,0
0,53,64,0
0,69,87,24
0,62,92,78
0,67,87,4
0,69,87,144
0,65,87,144
0,69,87,144
0,67,87,100
0,62,88,134
0,69,87,10
0,60,93,22
0,65,87,2
0,57,64,16
0,53,64,0
0,60,64,0
0,69,87,24
0,67,87,144
0,69,87,144
0,65,87,144
0,69,87,144
0,67,87,144
0,69,87,144
0,65,87,144
0,58,64,16
0,55,64,0
0,62,64,0
0,70,87,24
0,43,126,0
0,69,126,118
0,69,87,0
0,70,87,144
0,43,126,0
0,67,87,122
0,69,126,0
0,43,116,60
0,62,84,6
0,70,87,8
0,63,75,34
0,69,126,10
0,69,87,0
0,43,126,0
0,62,81,38
0,70,87,8
0,65,92,28
0,67,87,6
0,69,126,0
0,41,126,0
0,58,64,16
0,62,64,0
0,53,64,0
0,70,87,24
0,34,126,0
0,62,90,82
0,69,126,4
0,69,87,0
0,70,87,144
0,34,126,0
0,65,87,122
0,69,126,0
0,34,116,60
0,70,87,14
0,69,126,144
0,36,126,0
0,69,87,0
0,62,84,118
0,70,87,4
0,65,88,18
0,39,126,12
0,65,87,0
0,69,126,0
0,62,64,16
0,53,64,0
0,57,64,0
0,38,126,24
0,69,87,0
0,62,92,78
0,69,126,4
0,67,87,0
0,38,126,144
0,69,87,0
0,65,87,122
0,69,126,0
0,38,116,60
0,69,87,14
0,69,126,100
0,38,126,0
0,67,87,0
0,62,88,112
0,69,87,10
0,60,93,22
0,39,126,2
0,65,87,0
0,69,126,0
0,60,64,16
0,53,64,0
0,57,64,0
0,69,87,24
0,41,126,0
0,67,87,118
0,69,126,0
0,41,126,144
0,69,87,0
0,65,87,122
0,69,126,0
0,41,116,60
0,69,87,14
0,69,126,144
0,38,126,0
0,67,87,0
0,69,87,122
0,69,126,144
0,41,126,0
0,65,87,0
0,55,64,16
0,58,64,0
0,62,64,0
0,43,126,24
0,74,87,0
0,70,87,0
0,42,95,0
0,54,94,0
0,43,87,0
0,67,87,0
0,43,87,22
0,42,95,0
0,43,87,4
0,42,95,0
0,69,126,0
0,43,87,48
0,42,95,0
0,70,87,20
0,67,87,0
0,74,87,0
0,43,126,8
0,54,103,0
0,43,87,0
0,42,95,0
0,43,87,26
0,42,95,0
0,69,126,14
0,43,87,0
0,42,95,0
0,42,95,44
0,43,87,0
0,43,116,12
0,54,71,0
0,74,87,6
0,70,87,0
0,67,87,0
0,54,95,8
0,42,95,0
0,43,87,0
0,42,95,46
0,43,87,0
0,69,126,30
0,43,126,0
0,43,87,0
0,42,95,0
0,70,87,18
0,74,87,0
0,67,87,0
0,43,87,8
0,42,95,0
0,54,95,26
0,43,87,0
0,42,95,0
0,43,87,12
0,42,95,0
0,67,87,36
0,70,87,0
0,75,87,0
0,43,87,8
0,69,126,0
0,41,126,0
0,42,95,0
0,42,95,24
0,43,87,0
0,54,71,12
0,62,64,8
0,58,64,0
0,53,64,0
0,67,87,16
0,74,87,0
0,70,87,0
0,34,126,8
0,54,94,0
0,42,95,0
0,46,87,0
0,42,95,22
0,46,87,0
0,42,95,12
0,46,87,0
0,69,126,0
0,42,95,48
0,46,87,0
0,70,87,20
0,74,87,0
0,65,87,0
0,54,103,8
0,42,95,0
0,46,87,0
0,34,126,0
0,42,95,26
0,46,87,0
0,69,126,14
0,46,87,0
0,42,95,0
0,42,95,44
0,46,87,0
0,54,71,12
0,34,116,0
0,70,87,6
0,65,87,0
0,74,87,0
0,42,95,8
0,54,95,0
0,46,87,0
0,46,87,46
0,42,95,0
0,69,126,30
0,36,126,0
0,46,87,0
0,42,95,0
0,65,87,18
0,74,87,0
0,70,87,0
0,46,87,8
0,42,95,0
0,54,95,26
0,42,95,0
0,46,87,0
0,46,87,12
0,42,95,0
0,75,87,36
0,70,87,0
0,67,87,0
0,69,126,8
0,46,87,0
0,42,95,0
0,39,126,0
0,42,95,24
0,46,87,0
0,54,71,12
0,57,64,8
0,62,64,0
0,53,64,0
0,65,87,16
0,69,87,0
0,74,87,0
0,54,94,8
0,38,126,0
0,50,87,0
0,42,95,0
0,42,95,22
0,50,87,0
0,69,126,12
0,42,95,0
0,50,87,0
0,42,95,48
0,50,87,0
0,74,87,20
0,65,87,0
0,69,87,0
0,54,103,8
0,38,126,0
0,50,87,0
0,42,95,0
0,50,87,26
0,42,95,0
0,69,126,14
0,42,95,0
0,50,87,0
0,42,95,44
0,50,87,0
0,38,116,12
0,54,71,0
0,74,87,6
0,65,87,0
0,69,87,0
0,42,95,8
0,50,87,0
0,54,95,0
0,42,95,46
0,50,87,0
0,50,87,30
0,69,126,0
0,42,95,0
0,38,126,0
0,74,87,18
0,69,87,0
0,65,87,0
0,42,95,8
0,50,87,0
0,42,95,26
0,50,87,0
0,54,95,0
0,50,87,12
0,42,95,0
0,67,87,36
0,75,87,0
0,70,87,0
0,42,95,8
0,39,126,0
0,50,87,0
0,69,126,0
0,50,87,24
0,42,95,0
0,54,71,12
0,60,64,8
0,53,64,0
0,57,64,0
0,69,87,16
0,72,87,0
0,77,87,0
0,54,94,8
0,48,87,0
0,41,126,0
0,42,95,0
0,48,87,22
0,42,95,0
0,69,126,12
0,48,87,0
0,42,95,0
0,48,87,48
0,42,95,0
0,69,87,20
0,77,87,0
0,72,87,0
0,42,95,8
0,48,87,0
0,41,126,0
0,54,103,0
0,48,87,26
0,42,95,0
0,42,95,14
0,48,87,0
0,69,126,0
0,48,87,44
0,42,95,0
0,54,71,12
0,41,116,0
0,69,87,6
0,72,87,0
0,77,87,0
0,48,87,8
0,42,95,0
0,54,95,0
0,48,87,46
0,42,95,0
0,62,87,22
0,48,87,8
0,38,126,0
0,69,126,0
0,42,95,0
0,72,87,18
0,77,87,0
0,69,87,0
0,48,87,8
0,42,95,0
0,65,93,16
0,54,95,10
0,48,87,0
0,42,95,0
0,42,95,12
0,48,87,0
0,77,87,26
0,69,87,0
0,67,96,0
0,72,87,0
0,48,87,8
0,41,126,0
0,42,95,0
0,69,126,0
0,48,87,24
0,42,95,0
0,54,71,12
0,58,64,8
0,55,64,0
0,62,64,0
0,67,87,16
0,70,87,0
0,74,87,0
0,42,95,8
0,43,87,0
0,43,126,0
0,36,127,0
0,54,94,0
0,49,64,0
0,43,87,16
0,42,95,0
0,43,87,12
0,69,126,0
0,42,95,0
0,70,70,0
0,43,87,48
0,42,95,0
0,70,87,12
0,70,87,20
0,67,87,0
0,74,87,0
0,43,126,8
0,40,103,0
0,36,127,0
0,54,103,0
0,42,95,0
0,43,87,0
0,43,87,26
0,42,95,0
0,42,95,14
0,70,70,0
0,69,126,0
0,43,87,0
0,42,95,44
0,43,87,0
0,40,69,12
0,43,116,0
0,70,87,0
0,54,71,0
0,67,87,6
0,74,87,0
0,70,87,0
0,54,95,8
0,36,127,0
0,43,87,0
0,42,95,0
0,43,87,46
0,42,95,0
0,43,87,30
0,42,95,0
0,43,126,0
0,70,70,0
0,69,126,0
0,74,87,18
0,67,87,0
0,70,87,0
0,43,87,8
0,42,95,0
0,70,87,12
0,36,127,26
0,42,95,0
0,54,95,0
0,43,87,0
0,40,103,0
0,42,95,12
0,43,87,0
0,70,87,36
0,67,87,0
0,75,87,0
0,43,87,8
0,70,70,0
0,41,126,0
0,42,95,0
0,69,126,0
0,43,87,24
0,42,95,0
0,70,87,12
0,54,71,0
0,53,64,8
0,58,64,0
0,62,64,0
0,67,87,16
0,74,87,0
0,70,87,0
0,36,127,8
0,34,126,0
0,42,95,0
0,54,94,0
0,46,87,0
0,42,95,22
0,46,87,0
0,70,70,12
0,69,126,0
0,46,87,0
0,42,95,0
0,46,87,48
0,42,95,0
0,70,87,12
0,65,87,20
0,74,87,0
0,70,87,0
0,40,103,8
0,46,87,0
0,34,126,0
0,42,95,0
0,54,103,0
0,36,127,0
0,42,95,26
0,46,87,0
0,46,87,14
0,70,70,0
0,69,126,0
0,42,95,0
0,42,95,44
0,46,87,0
0,70,87,12
0,40,69,0
0,54,71,0
0,34,116,0
0,70,87,6
0,65,87,0
0,74,87,0
0,36,127,8
0,54,95,0
0,42,95,0
0,46,87,0
0,42,95,46
0,46,87,0
0,46,87,30
0,69,126,0
0,36,126,0
0,42,95,0
0,70,70,0
0,65,87,18
0,70,87,0
0,74,87,0
0,42,95,8
0,46,87,0
0,70,87,12
0,40,103,26
0,42,95,0
0,36,127,0
0,46,87,0
0,54,95,0
0,42,95,12
0,46,87,0
0,67,87,36
0,75,87,0
0,70,87,0
0,39,126,8
0,46,87,0
0,69,126,0
0,70,70,0
0,42,95,0
0,46,87,24
0,42,95,0
0,54,71,12
0,70,87,0
0,62,64,8
0,57,64,0
0,53,64,0
0,65,87,16
0,69,87,0
0,74,87,0
0,38,126,8
0,42,95,0
0,50,87,0
0,36,127,0
0,54,94,0
0,50,87,22
0,42,95,0
0,70,70,12
0,42,95,0
0,69,126,0
0,50,87,0
0,42,95,48
0,50,87,0
0,70,87,12
0,65,87,20
0,74,87,0
0,69,87,0
0,36,127,8
0,54,103,0
0,42,95,0
0,38,126,0
0,40,103,0
0,50,87,0
0,50,87,26
0,42,95,0
0,69,126,14
0,42,95,0
0,50,87,0
0,70,70,0
0,42,95,44
0,50,87,0
0,70,87,12
0,40,69,0
0,54,71,0
0,38,116,0
0,69,87,6
0,65,87,0
0,74,87,0
0,54,95,8
0,42,95,0
0,50,87,0
0,36,127,0
0,50,87,46
0,42,95,0
0,70,70,30
0,42,95,0
0,50,87,0
0,69,126,0
0,38,126,0
0,69,87,18
0,74,87,0
0,65,87,0
0,50,87,8
0,42,95,0
0,70,87,12
0,40,103,26
0,54,95,0
0,36,127,0
0,42,95,0
0,50,87,0
0,50,87,12
0,42,95,0
0,67,87,36
0,75,87,0
0,70,87,0
0,69,126,8
0,39,126,0
0,50,87,0
0,70,70,0
0,42,95,0
0,50,87,24
0,42,95,0
0,70,87,12
0,54,71,0
0,53,64,8
0,57,64,0
0,60,64,0
0,77,87,16
0,72,87,0
0,69,87,0
0,36,127,8
0,41,126,0
0,54,94,0
0,48,87,0
0,42,95,0
0,48,87,22
0,42,95,0
0,42,95,12
0,69,126,0
0,70,70,0
0,48,87,0
0,42,95,48
0,48,87,0
0,70,87,12
0,72,87,20
0,69,87,0
0,77,87,0
0,36,127,8
0,41,126,0
0,42,95,0
0,40,103,0
0,48,87,0
0,54,103,0
0,48,87,26
0,42,95,0
0,48,87,14
0,69,126,0
0,42,95,0
0,70,70,0
0,48,87,44
0,42,95,0
0,40,69,12
0,70,87,0
0,41,116,0
0,54,71,0
0,69,87,6
0,72,87,0
0,77,87,0
0,48,87,8
0,42,95,0
0,36,127,0
0,54,95,0
0,42,95,46
0,48,87,0
0,38,126,30
0,69,126,0
0,42,95,0
0,70,70,0
0,48,87,0
0,77,87,18
0,69,87,0
0,72,87,0
0,48,87,8
0,42,95,0
0,70,87,12
0,54,95,26
0,48,87,0
0,42,95,0
0,36,127,0
0,40,103,0
0,48,87,12
0,42,95,0
0,69,87,36
0,77,87,0
0,72,87,0
0,70,70,8
0,42,95,0
0,69,126,0
0,41,126,0
0,36,127,0
0,48,87,0
0,42,95,24
0,48,87,0
0,54,71,12
0,70,87,0
0,62,64,8
0,58,64,0
0,55,64,0
0,70,87,24
0,42,95,0
0,43,87,0
0,43,126,0
0,54,94,0
0,36,127,0
0,43,87,22
0,42,95,0
0,69,87,42
0,42,95,0
0,43,87,0
0,70,70,0
0,69,126,0
0,43,87,48
0,42,95,0
0,70,87,12
0,40,103,28
0,54,103,0
0,42,95,0
0,36,127,0
0,70,87,0
0,43,126,0
0,43,87,0
0,43,87,26
0,42,95,0
0,70,70,36
0,42,95,0
0,67,87,0
0,69,126,0
0,43,87,0
0,42,95,44
0,43,87,0
0,70,87,12
0,40,69,0
0,54,71,0
0,43,116,0
0,70,87,14
0,43,87,0
0,42,95,0
0,54,95,0
0,36,127,0
0,43,87,46
0,42,95,0
0,69,126,46
0,42,95,0
0,69,87,0
0,70,70,0
0,43,126,0
0,43,87,0
0,43,87,26
0,42,95,0
0,70,87,12
0,43,87,26
0,70,87,0
0,36,127,0
0,40,103,0
0,54,95,0
0,42,95,0
0,43,87,38
0,42,95,0
0,67,87,44
0,42,95,0
0,43,87,0
0,69,126,0
0,41,126,0
0,70,70,0
0,42,95,24
0,43,87,0
0,54,71,12
0,70,87,0
0,58,64,16
0,53,64,0
0,62,64,0
0,46,87,24
0,36,127,0
0,42,95,0
0,70,87,0
0,54,94,0
0,34,126,0
0,46,87,22
0,42,95,0
0,46,87,42
0,69,126,0
0,42,95,0
0,70,70,0
0,69,87,0
0,42,95,48
0,46,87,0
0,70,87,12
0,42,95,28
0,40,103,0
0,36,127,0
0,46,87,0
0,70,87,0
0,54,103,0
0,34,126,0
0,42,95,26
0,46,87,0
0,46,87,36
0,69,126,0
0,42,95,0
0,65,87,0
0,70,70,0
0,46,87,44
0,42,95,0
0,34,116,12
0,40,69,0
0,54,71,0
0,70,87,0
0,42,95,14
0,54,95,0
0,46,87,0
0,70,87,0
0,36,127,0
0,42,95,46
0,46,87,0
0,46,87,46
0,36,126,0
0,69,87,0
0,69,126,0
0,42,95,0
0,70,70,0
0,46,87,26
0,42,95,0
0,70,87,12
0,40,103,26
0,42,95,0
0,54,95,0
0,70,87,0
0,36,127,0
0,46,87,0
0,42,95,38
0,46,87,0
0,70,70,44
0,69,126,0
0,39,126,0
0,46,87,0
0,42,95,0
0,65,87,0
0,42,95,24
0,46,87,0
0,54,71,12
0,70,87,0
0,53,64,16
0,62,64,0
0,57,64,0
0,38,126,24
0,50,87,0
0,36,127,0
0,69,87,0
0,54,94,0
0,42,95,0
0,42,95,22
0,50,87,0
0,70,70,42
0,50,87,0
0,42,95,0
0,67,87,0
0,69,126,0
0,42,95,48
0,50,87,0
0,70,87,12
0,50,87,28
0,54,103,0
0,69,87,0
0,38,126,0
0,40,103,0
0,42,95,0
0,36,127,0
0,50,87,26
0,42,95,0
0,70,70,36
0,50,87,0
0,42,95,0
0,65,87,0
0,69,126,0
0,42,95,44
0,50,87,0
0,40,69,12
0,54,71,0
0,38,116,0
0,70,87,0
0,36,127,14
0,69,87,0
0,42,95,0
0,54,95,0
0,50,87,0
0,42,95,46
0,50,87,0
0,67,87,46
0,50,87,0
0,70,70,0
0,38,126,0
0,42,95,0
0,69,126,0
0,42,95,26
0,50,87,0
0,70,87,12
0,54,95,26
0,42,95,0
0,40,103,0
0,36,127,0
0,69,87,0
0,50,87,0
0,42,95,38
0,50,87,0
0,70,70,44
0,65,87,0
0,69,126,0
0,42,95,0
0,50,87,0
0,39,126,0
0,42,95,24
0,50,87,0
0,70,87,12
0,54,71,0
0,53,64,16
0,57,64,0
0,60,64,0
0,69,87,24
0,42,95,0
0,36,127,0
0,41,126,0
0,54,94,0
0,48,87,0
0,48,87,22
0,42,95,0
0,48,87,42
0,67,87,0
0,42,95,0
0,69,126,0
0,70,70,0
0,42,95,48
0,48,87,0
0,70,87,12
0,48,87,28
0,54,103,0
0,42,95,0
0,41,126,0
0,69,87,0
0,36,127,0
0,40,103,0
0,48,87,26
0,42,95,0
0,48,87,36
0,69,126,0
0,42,95,0
0,65,87,0
0,70,70,0
0,48,87,44
0,42,95,0
0,54,71,12
0,41,116,0
0,40,69,0
0,70,87,0
0,48,87,14
0,36,127,0
0,69,87,0
0,54,95,0
0,42,95,0
0,48,87,46
0,42,95,0
0,38,126,46
0,48,87,0
0,70,70,0
