track,note,velocity,time
1,44,77,13488
1,44,77,48
1,44,77,48
1,44,77,48
1,44,77,48
1,44,77,48
1,44,77,48
1,44,77,48
1,44,77,48
1,44,77,48
1,44,77,48
1,44,77,48
1,44,77,48
1,44,77,48
1,44,77,48
1,44,77,48
1,47,77,48
1,47,77,48
1,47,77,48
1,47,77,48
1,47,77,48
1,47,77,48
1,47,77,48
1,47,77,48
1,47,77,48
1,47,77,48
1,47,77,48
1,47,77,48
1,47,77,48
1,47,77,48
1,47,77,48
1,47,77,48
1,51,77,48
1,51,77,48
1,51,77,48
1,51,77,48
1,51,77,48
1,51,77,48
1,51,77,48
1,51,77,48
1,51,77,48
1,51,77,48
1,51,77,48
1,51,77,48
1,51,77,48
1,51,77,48
1,51,77,48
1,51,77,48
1,54,77,48
1,54,77,48
1,54,77,48
1,54,77,48
1,54,77,48
1,54,77,48
1,54,77,48
1,54,77,48
1,54,77,48
1,54,77,48
1,54,77,48
1,54,77,48
1,54,77,48
1,54,77,48
1,54,77,48
1,54,77,48
1,44,77,48
1,44,77,48
1,44,77,48
1,44,77,48
1,44,77,48
1,44,77,48
1,44,77,48
1,44,77,48
1,44,77,48
1,44,77,48
1,44,77,48
1,44,77,48
1,44,77,48
1,44,77,48
1,44,77,48
1,44,77,48
1,47,77,48
1,47,77,48
1,47,77,48
1,47,77,48
1,47,77,48
1,47,77,48
1,47,77,48
1,47,77,48
1,47,77,48
1,47,77,48
1,47,77,48
1,47,77,48
1,47,77,48
1,47,77,48
1,47,77,48
1,47,77,48
1,51,77,48
1,51,77,48
1,51,77,48
1,51,77,48
1,51,77,48
1,51,77,48
1,51,77,48
1,51,77,48
1,51,77,48
1,51,77,48
1,51,77,48
1,51,77,48
1,51,77,48
1,51,77,48
1,51,77,48
1,51,77,48
1,54,77,48
1,54,77,48
1,54,77,48
1,54,77,48
1,54,77,48
1,54,77,48
1,54,77,48
1,54,77,48
1,54,77,48
1,54,77,48
1,54,77,48
1,54,77,48
1,54,77,48
1,54,77,48
1,54,77,48
1,54,77,48
1,44,77,48
1,44,77,48
1,44,77,48
1,44,77,48
1,44,77,48
1,44,77,48
1,44,77,48
1,44,77,48
1,44,77,48
1,44,77,48
1,44,77,48
1,44,77,48
1,44,77,48
1,44,77,48
1,44,77,48
1,44,77,48
1,47,77,48
1,47,77,48
1,47,77,48
1,47,77,48
1,47,77,48
1,47,77,48
1,47,77,48
1,47,77,48
1,47,77,48
1,47,77,48
1,47,77,48
1,47,77,48
1,47,77,48
1,47,77,48
1,47,77,48
1,47,77,48
1,51,77,48
1,51,77,48
1,51,77,48
1,51,77,48
1,51,77,48
1,51,77,48
1,51,77,48
1,51,77,48
1,51,77,48
1,51,77,48
1,51,77,48
1,51,77,48
1,51,77,48
1,51,77,48
1,51,77,48
1,51,77,48
1,54,77,48
1,54,77,48
1,54,77,48
1,54,77,48
1,54,77,48
1,54,77,48
1,54,77,48
1,54,77,48
1,54,77,48
1,54,77,48
1,54,77,48
1,54,77,48
1,54,77,48
1,54,77,48
1,54,77,48
1,54,77,48
1,44,77,48
1,44,77,48
1,44,77,48
1,44,77,48
1,44,77,48
1,44,77,48
1,44,77,48
1,44,77,48
1,44,77,48
1,44,77,48
1,44,77,48
1,44,77,48
1,44,77,48
1,44,77,48
1,44,77,48
1,44,77,48
1,47,77,48
1,47,77,48
1,47,77,48
1,47,77,48
1,47,77,48
1,47,77,48
1,47,77,48
1,47,77,48
1,47,77,48
1,47,77,48
1,47,77,48
1,47,77,48
1,47,77,48
1,47,77,48
1,47,77,48
1,47,77,48
1,51,77,48
1,51,77,48
1,51,77,48
1,51,77,48
1,51,77,48
1,51,77,48
1,51,77,48
1,51,77,48
1,51,77,48
1,51,77,48
1,51,77,48
1,51,77,48
1,51,77,48
1,51,77,48
1,51,77,48
1,51,77,48
1,54,77,48
1,54,77,48
1,54,77,48
1,54,77,48
1,54,77,48
1,54,77,48
1,54,77,48
1,54,77,48
1,54,77,48
1,54,77,48
1,54,77,48
1,54,77,48
1,54,77,48
1,54,77,48
1,54,77,48
1,54,77,48
1,44,77,48
1,44,77,48
1,44,77,48
1,44,77,48
1,44,77,48
1,44,77,48
1,44,77,48
1,44,77,48
1,44,77,48
1,44,77,48
1,44,77,48
1,44,77,48
1,44,77,48
1,44,77,48
1,44,77,48
1,44,77,48
1,47,77,48
1,47,77,48
1,47,77,48
1,47,77,48
1,47,77,48
1,47,77,48
1,47,77,48
1,47,77,48
1,47,77,48
1,47,77,48
1,47,77,48
1,47,77,48
1,47,77,48
1,47,77,48
1,47,77,48
1,47,77,48
1,51,77,48
1,51,77,48
1,51,77,48
1,51,77,48
1,51,77,48
1,51,77,48
1,51,77,48
1,51,77,48
1,51,77,48
1,51,77,48
1,51,77,48
1,51,77,48
1,51,77,48
1,51,77,48
1,51,77,48
1,51,77,48
1,54,77,48
1,54,77,48
1,54,77,48
1,54,77,48
1,54,77,48
1,54,77,48
1,54,77,48
1,54,77,48
1,54,77,48
1,54,77,48
1,54,77,48
1,54,77,48
1,54,77,48
1,54,77,48
1,54,77,48
1,54,77,48
1,44,77,48
1,44,77,48
1,44,77,48
1,44,77,48
1,44,77,48
1,44,77,48
1,44,77,48
1,44,77,48
1,44,77,48
1,44,77,48
1,44,77,48
1,44,77,48
1,44,77,48
1,44,77,48
1,44,77,48
1,44,77,48
1,47,77,48
1,47,77,48
1,47,77,48
1,47,77,48
1,47,77,48
1,47,77,48
1,47,77,48
1,47,77,48
1,47,77,48
1,47,77,48
1,47,77,48
1,47,77,48
1,47,77,48
1,47,77,48
1,47,77,48
1,47,77,48
1,51,77,48
1,51,77,48
1,51,77,48
1,51,77,48
1,51,77,48
1,51,77,48
1,51,77,48
1,51,77,48
1,51,77,48
1,51,77,48
1,51,77,48
1,51,77,48
1,51,77,48
1,51,77,48
1,51,77,48
1,51,77,48
1,54,77,48
1,54,77,48
1,54,77,48
1,54,77,48
1,54,77,48
1,54,77,48
1,54,77,48
1,54,77,48
1,54,77,48
1,54,77,48
1,54,77,48
1,54,77,48
1,54,77,48
1,54,77,48
1,54,77,48
1,54,77,48
1,44,77,48
1,44,77,48
1,44,77,48
1,44,77,48
1,44,77,48
1,44,77,48
1,44,77,48
1,44,77,48
1,44,77,48
1,44,77,48
1,44,77,48
1,44,77,48
1,44,77,48
1,44,77,48
1,44,77,48
1,44,77,48
1,47,77,48
1,47,77,48
1,47,77,48
1,47,77,48
1,47,77,48
1,47,77,48
1,47,77,48
1,47,77,48
1,47,77,48
1,47,77,48
1,47,77,48
1,47,77,48
1,47,77,48
1,47,77,48
1,47,77,48
1,47,77,48
1,51,77,48
1,51,77,48
1,51,77,48
1,51,77,48
1,51,77,48
1,51,77,48
1,51,77,48
1,51,77,48
1,51,77,48
1,51,77,48
1,51,77,48
1,51,77,48
1,51,77,48
1,51,77,48
1,51,77,48
1,51,77,48
1,54,77,48
1,54,77,48
1,54,77,48
1,54,77,48
1,54,77,48
1,54,77,48
1,54,77,48
1,54,77,48
1,54,77,48
1,54,77,48
1,54,77,48
1,54,77,48
1,54,77,48
1,54,77,48
1,54,77,48
1,54,77,48
1,44,77,48
1,44,77,48
1,44,77,48
1,44,77,48
1,44,77,48
1,44,77,48
1,44,77,48
1,44,77,48
1,44,77,48
1,44,77,48
1,44,77,48
1,44,77,48
1,44,77,48
1,44,77,48
1,44,77,48
1,44,77,48
1,47,77,48
1,47,77,48
1,47,77,48
1,47,77,48
1,47,77,48
1,47,77,48
1,47,77,48
1,47,77,48
1,47,77,48
1,47,77,48
1,47,77,48
1,47,77,48
1,47,77,48
1,47,77,48
1,47,77,48
1,47,77,48
1,51,77,48
1,51,77,48
1,51,77,48
1,51,77,48
1,51,77,48
1,51,77,48
1,51,77,48
1,51,77,48
1,51,77,48
1,51,77,48
1,51,77,48
1,51,77,48
1,51,77,48
1,51,77,48
1,51,77,48
1,51,77,48
1,54,77,48
1,54,77,48
1,54,77,48
1,54,77,48
1,54,77,48
1,54,77,48
1,54,77,48
1,54,77,48
1,54,77,48
1,54,77,48
1,54,77,48
1,54,77,48
1,54,77,48
1,54,77,48
1,54,77,48
1,54,77,48
1,44,77,48
1,44,77,48
1,44,77,48
1,44,77,48
1,44,77,48
1,44,77,48
1,44,77,48
1,44,77,48
1,44,77,48
1,44,77,48
1,44,77,48
1,44,77,48
1,44,77,48
1,44,77,48
1,44,77,48
1,44,77,48
1,47,77,48
1,47,77,48
1,47,77,48
1,47,77,48
1,47,77,48
1,47,77,48
1,47,77,48
1,47,77,48
1,47,77,48
1,47,77,48
1,47,77,48
1,47,77,48
1,47,77,48
1,47,77,48
1,47,77,48
1,47,77,48
1,51,77,48
1,51,77,48
1,51,77,48
1,51,77,48
1,51,77,48
1,51,77,48
1,51,77,48
1,51,77,48
1,51,77,48
1,51,77,48
1,51,77,48
1,51,77,48
1,51,77,48
1,51,77,48
1,51,77,48
1,51,77,48
1,54,77,48
1,54,77,48
1,54,77,48
1,54,77,48
1,54,77,48
1,54,77,48
1,54,77,48
1,54,77,48
1,54,77,48
1,54,77,48
1,54,77,48
1,54,77,48
1,52,127,48
1,73,12,6082
1,6,6,2270
1,17,8,100
1,1,121,16
1,32,6,12
1,44,77,9452
1,44,77,48
1,44,77,48
1,44,77,48
1,44,77,48
1,44,77,48
1,44,77,48
1,44,77,48
1,44,77,48
1,44,77,48
1,44,77,48
1,44,77,48
1,44,77,48
1,44,77,48
1,47,77,48
1,47,77,48
1,47,77,48
1,47,77,48
1,47,77,48
1,47,77,48
1,47,77,48
1,47,77,48
1,47,77,48
1,47,77,48
1,47,77,48
1,47,77,48
1,47,77,48
1,47,77,48
1,47,77,48
1,47,77,48
1,51,77,48
1,51,77,48
1,51,77,48
1,51,77,48
1,51,77,48
1,51,77,48
1,51,77,48
1,51,77,48
1,51,77,48
1,51,77,48
1,51,77,48
1,51,77,48
1,51,77,48
1,51,77,48
1,51,77,48
1,51,77,48
1,54,77,48
1,54,77,48
1,54,77,48
1,54,77,48
1,54,77,48
1,54,77,48
1,54,77,48
1,54,77,48
1,54,77,48
1,54,77,48
1,54,77,48
1,54,77,48
1,54,77,48
1,54,77,48
1,54,77,48
1,54,77,48
1,44,77,48
1,44,77,48
1,44,77,48
1,44,77,48
1,44,77,48
1,44,77,48
1,44,77,48
1,44,77,48
1,44,77,48
1,44,77,48
1,44,77,48
1,44,77,48
1,44,77,48
1,44,77,48
1,44,77,48
1,44,77,48
1,47,77,48
1,47,77,48
1,47,77,48
1,47,77,48
1,47,77,48
1,47,77,48
1,47,77,48
1,47,77,48
1,47,77,48
1,47,77,48
1,47,77,48
1,47,77,48
1,47,77,48
1,47,77,48
1,47,77,48
1,47,77,48
1,51,77,48
1,51,77,48
1,51,77,48
1,51,77,48
1,51,77,48
1,51,77,48
1,51,77,48
1,51,77,48
1,51,77,48
1,51,77,48
1,51,77,48
1,51,77,48
1,51,77,48
1,51,77,48
1,51,77,48
1,51,77,48
1,54,77,48
1,54,77,48
1,54,77,48
1,54,77,48
1,54,77,48
1,54,77,48
1,54,77,48
1,54,77,48
1,54,77,48
1,54,77,48
1,54,77,48
1,54,77,48
1,54,77,48
1,54,77,48
1,54,77,48
1,54,77,48
1,44,77,48
1,44,77,48
1,44,77,48
1,44,77,48
1,44,77,48
1,44,77,48
1,44,77,48
1,44,77,48
1,44,77,48
1,44,77,48
1,44,77,48
1,44,77,48
1,44,77,48
1,44,77,48
1,44,77,48
1,44,77,48
1,47,77,48
1,47,77,48
1,47,77,48
1,47,77,48
1,47,77,48
1,47,77,48
1,47,77,48
1,47,77,48
1,47,77,48
1,47,77,48
1,47,77,48
1,47,77,48
1,47,77,48
1,47,77,48
1,47,77,48
1,47,77,48
1,51,77,48
1,51,77,48
1,51,77,48
1,51,77,48
1,51,77,48
1,51,77,48
1,51,77,48
1,51,77,48
1,51,77,48
1,51,77,48
1,51,77,48
1,51,77,48
1,51,77,48
1,51,77,48
1,51,77,48
1,51,77,48
1,54,77,48
1,54,77,48
1,54,77,48
1,54,77,48
1,54,77,48
1,54,77,48
1,54,77,48
1,54,77,48
1,54,77,10
1,54,77,48
1,54,77,2
1,54,77,42
1,54,77,48
1,54,77,48
1,54,77,48
1,54,77,48
1,44,77,48
1,44,77,48
1,44,77,48
1,44,77,48
1,44,77,48
1,44,77,48
1,44,77,48
1,44,77,48
1,44,77,48
1,44,77,48
1,44,77,48
1,44,77,48
1,44,77,48
1,44,77,48
1,44,77,48
1,44,77,48
1,47,77,48
1,47,77,48
1,47,77,48
1,47,77,48
1,47,77,48
1,47,77,48
1,47,77,48
1,47,77,48
1,47,77,48
1,47,77,48
1,47,77,48
1,47,77,48
1,47,77,48
1,47,77,48
1,47,77,48
1,47,77,48
1,51,77,48
1,51,77,48
1,51,77,48
1,51,77,48
1,51,77,48
1,51,77,48
1,51,77,48
1,51,77,48
1,51,77,48
1,51,77,48
1,51,77,48
1,51,77,48
1,51,77,48
1,51,77,48
1,51,77,48
1,51,77,48
1,54,77,48
1,54,77,48
1,54,77,48
1,54,77,48
1,54,77,48
1,54,77,48
1,54,77,48
1,54,77,48
1,54,77,48
1,54,77,48
1,54,77,48
1,54,77,48
1,54,77,48
1,54,77,48
1,54,77,48
1,54,77,48
1,44,77,48
1,44,77,48
1,44,77,48
1,44,77,48
1,44,77,48
1,44,77,48
1,44,77,48
1,44,77,48
1,44,77,48
1,44,77,48
1,44,77,48
1,44,77,48
1,44,77,48
1,44,77,48
1,44,77,48
1,44,77,48
1,47,77,48
1,47,77,48
1,47,77,48
1,47,77,48
1,47,77,48
1,47,77,48
1,47,77,48
1,47,77,48
1,47,77,48
1,47,77,48
1,47,77,48
1,47,77,48
1,47,77,48
1,47,77,48
1,47,77,48
1,47,77,48
1,51,77,48
1,51,77,48
1,51,77,48
1,51,77,48
1,51,77,48
1,51,77,48
1,51,77,48
1,51,77,48
1,51,77,48
1,51,77,48
1,51,77,48
1,51,77,48
1,51,77,48
1,51,77,48
1,51,77,48
1,51,77,48
1,54,77,48
1,54,77,48
1,54,77,48
1,54,77,48
1,54,77,48
1,54,77,48
1,54,77,48
1,54,77,48
1,54,77,48
1,54,77,48
1,54,77,48
1,54,77,48
1,54,77,48
1,54,77,48
1,54,77,48
1,54,77,48
1,44,77,48
1,44,77,48
1,44,77,48
1,44,77,48
1,44,77,48
1,44,77,48
1,44,77,48
1,44,77,48
1,44,77,48
1,44,77,48
1,44,77,48
1,44,77,48
1,44,77,48
1,44,77,48
1,44,77,48
1,44,77,48
1,47,77,48
1,47,77,48
1,47,77,48
1,47,77,48
1,47,77,48
1,47,77,48
1,47,77,48
1,47,77,48
1,47,77,48
1,47,77,48
1,47,77,48
1,47,77,48
1,47,77,48
1,47,77,48
1,47,77,48
1,47,77,48
1,51,77,48
1,51,77,48
1,51,77,48
1,51,77,48
1,51,77,48
1,51,77,48
1,51,77,48
1,51,77,48
1,51,77,48
1,51,77,48
1,51,77,48
1,51,77,48
1,51,77,48
1,51,77,48
1,51,77,48
1,51,77,48
1,54,77,48
1,54,77,48
1,54,77,48
1,54,77,48
1,54,77,48
1,54,77,48
1,54,77,48
1,54,77,48
1,54,77,48
1,54,77,48
1,54,77,48
1,54,77,48
1,54,77,48
1,54,77,48
1,54,77,48
1,54,77,48
1,44,77,48
1,44,77,48
1,44,77,48
1,44,77,48
1,44,77,48
1,44,77,48
1,44,77,48
1,44,77,48
1,44,77,48
1,44,77,48
1,44,77,48
1,44,77,48
1,44,77,48
1,44,77,48
1,44,77,48
1,44,77,48
1,47,77,48
1,47,77,48
1,47,77,48
1,47,77,48
1,47,77,48
1,47,77,48
1,47,77,48
1,47,77,48
1,47,77,48
1,47,77,48
1,47,77,48
1,47,77,48
1,47,77,48
1,47,77,48
1,47,77,48
1,47,77,48
1,51,77,48
1,51,77,48
1,51,77,48
1,51,77,48
1,51,77,48
1,51,77,48
1,51,77,48
1,51,77,48
