track,note,velocity,time
0,42,100,760
0,42,85,368
0,42,85,0
0,42,85,156
0,67,48,348
0,48,93,8
0,36,60,0
0,55,60,12
0,60,64,16
0,67,60,16
0,63,60,0
0,60,60,0
0,60,91,12
0,48,73,0
0,48,73,8
0,60,91,24
0,48,64,0
0,48,64,28
0,63,91,32
0,48,73,0
0,60,100,8
0,48,73,28
0,60,91,24
0,48,64,0
0,48,64,28
0,65,91,32
0,48,73,0
0,48,73,28
0,60,91,24
0,48,64,0
0,48,64,28
0,63,91,32
0,48,73,0
0,48,73,28
0,62,91,24
0,48,64,0
0,48,64,28
0,46,60,8
0,51,60,0
0,58,60,0
0,67,60,0
0,60,91,12
0,51,73,0
0,51,73,28
0,60,91,24
0,51,64,0
0,51,64,28
0,63,91,32
0,51,73,0
0,51,73,28
0,60,91,24
0,51,64,0
0,51,64,28
0,65,91,32
0,51,73,0
0,51,73,28
0,60,91,24
0,51,64,0
0,51,64,28
0,63,91,32
0,51,73,0
0,51,73,28
0,62,91,24
0,51,64,0
0,51,64,28
0,62,60,8
0,65,60,0
0,60,91,12
0,50,73,0
0,50,73,28
0,60,91,24
0,50,64,0
0,50,64,28
0,60,91,20
0,63,91,12
0,50,73,0
0,50,73,28
0,60,91,24
0,50,64,0
0,50,64,28
0,65,91,32
0,50,73,0
0,50,73,28
0,60,91,8
0,60,91,16
0,50,64,0
0,50,64,28
0,63,91,32
0,50,73,0
0,50,73,28
0,62,91,24
0,50,64,0
0,50,64,28
0,48,60,16
0,41,64,0
0,65,60,0
0,60,60,0
0,57,60,0
0,60,91,4
0,48,73,0
0,63,100,4
0,48,73,28
0,60,91,8
0,48,64,0
0,60,91,8
0,48,64,28
0,63,91,32
0,48,73,0
0,48,73,28
0,58,90,12
0,60,91,12
0,48,64,0
0,48,64,28
0,65,91,32
0,48,73,0
0,48,73,28
0,60,87,4
0,60,91,20
0,48,64,0
0,48,64,28
0,65,91,32
0,48,73,0
0,48,73,28
0,67,91,24
0,48,64,0
0,48,64,12
0,48,64,8
0,36,64,0
0,67,60,0
0,63,60,0
0,60,60,0
0,60,91,12
0,48,73,0
0,44,65,0
0,70,69,0
0,48,73,28
0,70,87,0
0,60,91,24
0,48,64,0
0,46,73,0
0,70,64,0
0,48,64,28
0,70,73,0
0,63,91,32
0,48,73,0
0,44,65,0
0,70,64,0
0,60,100,8
0,48,73,28
0,70,87,0
0,60,91,24
0,48,64,0
0,46,73,0
0,70,73,0
0,48,64,28
0,70,69,0
0,65,91,32
0,48,73,0
0,44,65,0
0,70,66,0
0,48,73,28
0,70,84,0
0,60,91,24
0,48,64,0
0,46,73,0
0,70,64,0
0,48,64,28
0,70,73,0
0,63,91,32
0,48,73,0
0,44,65,0
0,70,66,0
0,48,73,28
0,70,87,0
0,62,91,24
0,48,64,0
0,46,73,0
0,70,73,0
0,48,64,28
0,70,75,0
0,51,60,8
0,46,60,0
0,58,60,0
0,67,60,0
0,60,91,4
0,51,73,0
0,44,65,0
0,70,69,0
0,51,73,28
0,70,87,0
0,60,91,24
0,51,64,0
0,46,73,0
0,70,64,0
0,51,64,28
0,70,73,0
0,63,91,32
0,51,73,0
0,44,65,0
0,70,64,0
0,51,73,28
0,70,87,0
0,60,91,24
0,51,64,0
0,46,73,0
0,70,73,0
0,51,64,28
0,70,69,0
0,65,91,32
0,51,73,0
0,44,65,0
0,70,66,0
0,51,73,28
0,70,84,0
0,60,91,24
0,51,64,0
0,46,73,0
0,70,64,0
0,51,64,28
0,70,73,0
0,63,91,32
0,51,73,0
0,44,65,0
0,70,66,0
0,51,73,28
0,70,87,0
0,62,91,24
0,51,64,0
0,46,73,0
0,70,73,0
0,51,64,28
0,70,75,0
0,50,60,16
0,62,60,0
0,65,60,0
0,60,91,8
0,50,73,0
0,44,65,0
0,70,69,0
0,50,73,28
0,70,87,0
0,60,91,24
0,50,64,0
0,46,73,0
0,70,64,0
0,50,64,28
0,70,73,0
0,60,91,20
0,63,91,12
0,50,73,0
0,44,65,0
0,70,64,0
0,50,73,28
0,70,87,0
0,60,91,24
0,50,64,0
0,46,73,0
0,70,73,0
0,50,64,28
0,70,69,0
0,65,91,32
0,50,73,0
0,44,65,0
0,70,66,0
0,50,73,28
0,70,84,0
0,60,91,8
0,60,91,16
0,50,64,0
0,46,73,0
0,70,64,0
0,50,64,28
0,70,73,0
0,63,91,32
0,50,73,0
0,44,65,0
0,70,66,0
0,50,73,28
0,70,87,0
0,62,91,24
0,50,64,0
0,46,73,0
0,70,73,0
0,50,64,28
0,70,75,0
0,67,91,12
0,48,60,4
0,41,64,0
0,65,60,0
0,60,60,0
0,57,60,0
0,60,93,4
0,48,73,0
0,44,65,0
0,70,69,0
0,48,73,28
0,70,87,0
0,60,90,24
0,48,64,0
0,46,73,0
0,70,64,0
0,65,93,4
0,48,64,28
0,70,73,0
0,63,78,32
0,48,73,0
0,44,65,0
0,70,64,0
0,48,73,28
0,70,87,0
0,60,78,24
0,48,64,0
0,46,73,0
0,70,73,0
0,67,91,8
0,48,64,28
0,70,69,0
0,65,72,32
0,48,73,0
0,44,65,0
0,70,66,0
0,48,73,28
0,70,84,0
0,60,64,24
0,65,91,0
0,48,64,0
0,46,73,0
0,70,64,0
0,48,64,28
0,70,73,0
0,48,73,32
0,44,65,0
0,70,66,0
0,48,73,52
0,70,87,0
0,48,64,24
0,46,73,0
0,70,73,0
0,48,64,60
0,70,75,0
0,67,48,12
0,55,60,8
0,63,81,32
0,60,73,96
0,65,91,32
0,40,23,224
0,40,26,24
0,40,31,24
0,40,34,16
0,63,82,8
0,40,34,24
0,40,37,24
0,40,40,24
0,60,64,12
0,40,40,12
0,40,52,16
0,40,52,20
0,40,55,28
0,40,61,24
0,40,72,24
0,40,78,24
0,40,78,24
0,40,72,24
0,36,64,12
0,67,60,0
0,63,60,0
0,60,60,0
0,36,100,12
0,72,92,0
0,48,73,0
0,36,100,0
0,42,65,0
0,49,73,0
0,70,69,0
0,82,44,0
0,48,73,4
0,42,65,0
0,70,87,0
0,82,44,0
0,67,55,24
0,48,64,0
0,46,73,0
0,70,64,0
0,82,46,0
0,48,64,40
0,70,73,0
0,82,46,0
0,36,100,32
0,72,91,0
0,48,73,0
0,36,100,0
0,38,82,0
0,44,65,0
0,70,64,0
0,48,73,52
0,70,87,0
0,67,55,24
0,48,64,0
0,46,73,0
0,70,73,0
0,48,64,60
0,38,58,0
0,70,69,0
0,36,100,32
0,72,91,0
0,48,73,0
0,36,100,0
0,44,65,0
0,70,66,0
0,48,73,40
0,70,84,0
0,67,72,24
0,48,64,0
0,46,73,0
0,70,64,0
0,36,91,28
0,70,82,0
0,48,64,0
0,70,73,0
0,36,100,24
0,72,91,0
0,48,73,0
0,36,100,0
0,38,82,0
0,44,65,0
0,70,66,0
0,48,73,52
0,70,87,0
0,34,100,24
0,75,91,0
0,48,64,0
0,46,73,0
0,70,73,0
0,69,44,0
0,48,64,40
0,70,75,0
0,69,44,0
0,39,60,8
0,58,60,0
0,67,60,0
0,39,100,4
0,72,92,0
0,51,73,0
0,36,100,0
0,42,65,0
0,70,69,0
0,82,44,0
0,51,73,40
0,42,65,0
0,70,87,0
0,82,44,0
0,67,55,24
0,51,64,0
0,46,73,0
0,70,64,0
0,82,46,0
0,51,64,40
0,70,73,0
0,82,46,0
0,39,100,32
0,72,91,0
0,51,73,0
0,36,100,0
0,38,82,0
0,44,65,0
0,70,64,0
0,51,73,52
0,70,87,0
0,67,55,24
0,51,64,0
0,46,73,0
0,70,73,0
0,51,64,60
0,70,69,0
0,39,100,32
0,72,91,0
0,51,73,0
0,36,100,0
0,44,65,0
0,70,66,0
0,51,73,40
0,70,84,0
0,67,72,24
0,51,64,0
0,46,73,0
0,70,64,0
0,39,91,28
0,70,82,0
0,51,64,0
0,70,73,0
0,39,100,24
0,72,91,0
0,51,73,0
0,36,100,0
0,38,82,0
0,44,65,0
0,70,66,0
0,51,73,52
0,70,87,0
0,39,100,24
0,77,91,0
0,51,64,0
0,46,73,0
0,70,73,0
0,69,44,0
0,51,64,40
0,70,75,0
0,69,44,0
0,34,64,0
0,62,60,0
0,65,60,0
0,34,100,8
0,72,92,0
0,46,73,0
0,36,100,0
0,42,65,0
0,70,69,0
0,82,44,0
0,46,73,40
0,42,65,0
0,70,87,0
0,82,44,0
0,65,55,24
0,46,64,0
0,46,73,0
0,70,64,0
0,82,46,0
0,46,64,40
0,70,73,0
0,82,46,0
0,34,100,32
0,72,91,0
0,46,73,0
0,36,100,0
0,38,82,0
0,44,65,0
0,70,64,0
0,46,73,52
0,70,87,0
0,65,55,24
0,46,64,0
0,46,73,0
0,70,73,0
0,46,64,60
0,38,58,0
0,70,69,0
0,34,100,32
0,72,91,0
0,46,73,0
0,36,100,0
0,44,65,0
0,70,66,0
0,46,73,40
0,70,84,0
0,65,72,24
0,46,64,0
0,46,73,0
0,70,64,0
0,34,91,28
0,70,82,0
0,46,64,0
0,70,73,0
0,34,100,24
0,72,91,0
0,46,73,0
0,36,100,0
0,38,82,0
0,44,65,0
0,70,66,0
0,46,73,52
0,70,87,0
0,34,100,24
0,75,91,0
0,46,64,0
0,46,73,0
0,70,73,0
0,69,44,0
0,46,64,40
0,70,75,0
0,69,44,0
0,41,64,16
0,65,60,0
0,60,60,0
0,57,60,0
0,29,100,8
0,72,92,0
0,48,73,0
0,36,100,0
0,42,65,0
0,70,69,0
0,82,44,0
0,48,73,40
0,42,65,0
0,70,87,0
0,82,44,0
0,65,55,24
0,48,64,0
0,46,73,0
0,70,64,0
0,82,46,0
0,48,64,40
0,70,73,0
0,82,46,0
0,29,100,32
0,72,91,0
0,48,73,0
0,36,100,0
0,38,82,0
0,44,65,0
0,70,64,0
0,48,73,52
0,70,87,0
0,65,55,24
0,48,64,0
0,46,73,0
0,70,73,0
0,48,64,60
0,70,69,0
0,29,100,32
0,75,91,0
0,48,73,0
0,36,100,0
0,44,65,0
0,70,66,0
0,48,73,40
0,70,84,0
0,65,72,24
0,48,64,0
0,46,73,0
0,70,64,0
0,29,91,28
0,67,82,0
0,48,64,0
0,70,73,0
0,31,100,24
0,70,91,0
0,48,73,0
0,36,100,0
0,38,82,0
0,44,65,0
0,70,66,0
0,48,73,52
0,70,87,0
0,34,100,24
0,72,91,0
0,48,64,0
0,36,100,0
0,46,73,0
0,70,73,0
0,69,44,0
0,48,64,40
0,70,75,0
0,69,44,0
0,36,64,12
0,67,60,0
0,63,60,0
0,60,60,0
0,36,100,0
0,72,92,0
0,48,73,0
0,36,100,0
0,42,65,0
0,70,69,0
0,82,44,0
0,48,73,40
0,42,65,0
0,70,87,0
0,82,44,0
0,67,55,0
0,48,64,0
0,46,73,0
0,70,64,0
0,82,46,0
0,48,64,40
0,70,73,0
0,82,46,0
0,36,100,32
0,72,91,0
0,48,73,0
0,36,100,0
0,38,82,0
0,44,65,0
0,70,64,0
0,48,73,52
0,70,87,0
0,67,55,24
0,48,64,0
0,46,73,0
0,70,73,0
0,48,64,60
0,38,58,0
0,70,69,0
0,36,100,32
0,72,91,0
0,48,73,0
0,36,100,0
0,44,65,0
0,70,66,0
0,48,73,40
0,70,84,0
0,67,72,24
0,48,64,0
0,46,73,0
0,70,64,0
0,36,91,28
0,70,82,0
0,48,64,0
0,70,73,0
0,36,100,24
0,72,91,0
0,48,73,0
0,36,100,0
0,38,82,0
0,44,65,0
0,70,66,0
0,48,73,52
0,70,87,0
0,34,100,24
0,75,91,0
0,48,64,0
0,46,73,0
0,70,73,0
0,69,44,0
0,48,64,40
0,70,75,0
0,69,44,0
0,39,60,8
0,58,60,0
0,67,60,0
0,39,100,4
0,72,92,0
0,51,73,0
0,36,100,0
0,42,65,0
0,70,69,0
0,82,44,0
0,51,73,40
0,42,65,0
0,70,87,0
0,82,44,0
0,67,55,24
0,51,64,0
0,46,73,0
0,70,64,0
0,82,46,0
0,51,64,40
0,70,73,0
0,82,46,0
0,39,100,32
0,72,91,0
0,51,73,0
0,36,100,0
0,38,82,0
0,44,65,0
0,70,64,0
0,51,73,52
0,70,87,0
0,67,55,24
0,51,64,0
0,46,73,0
0,70,73,0
0,51,64,60
0,70,69,0
0,39,100,32
0,72,91,0
0,51,73,0
0,36,100,0
0,44,65,0
0,70,66,0
0,51,73,40
0,70,84,0
0,67,72,24
0,51,64,0
0,46,73,0
0,70,64,0
0,39,91,28
0,70,82,0
0,51,64,0
0,70,73,0
0,39,100,24
0,72,91,0
0,51,73,0
0,36,100,0
0,38,82,0
0,44,65,0
0,70,66,0
0,51,73,52
0,70,87,0
0,39,100,24
0,77,91,0
0,51,64,0
0,46,73,0
0,70,73,0
0,69,44,0
0,51,64,40
0,70,75,0
0,69,44,0
0,34,64,0
0,62,60,0
0,65,60,0
0,34,100,8
0,72,92,0
0,46,73,0
0,36,100,0
0,42,65,0
0,70,69,0
0,82,44,0
0,46,73,40
0,42,65,0
0,70,87,0
0,82,44,0
0,65,55,24
0,46,64,0
0,46,73,0
0,70,64,0
0,82,46,0
0,46,64,40
0,70,73,0
0,82,46,0
0,34,100,32
0,72,91,0
0,46,73,0
0,36,100,0
0,38,82,0
0,44,65,0
0,70,64,0
0,46,73,52
0,70,87,0
0,65,55,24
0,46,64,0
0,46,73,0
0,70,73,0
0,46,64,60
0,38,58,0
0,70,69,0
0,34,100,32
0,72,91,0
0,46,73,0
0,36,100,0
0,44,65,0
0,70,66,0
0,46,73,40
0,70,84,0
0,65,72,24
0,46,64,0
0,46,73,0
0,70,64,0
0,34,91,28
0,70,82,0
0,46,64,0
0,70,73,0
0,34,100,24
0,72,91,0
0,46,73,0
0,36,100,0
0,38,82,0
0,44,65,0
0,70,66,0
0,46,73,52
0,70,87,0
0,34,100,24
0,75,91,0
0,46,64,0
0,46,73,0
0,70,73,0
0,69,44,0
0,46,64,40
0,70,75,0
0,69,44,0
0,41,64,16
0,65,60,0
0,60,60,0
0,57,60,0
0,29,100,8
0,72,92,0
0,48,73,0
0,36,100,0
0,42,65,0
0,70,69,0
0,82,44,0
0,48,73,40
0,42,65,0
0,70,87,0
0,82,44,0
0,65,55,24
0,48,64,0
0,46,73,0
0,70,64,0
0,82,46,0
0,48,64,40
0,70,73,0
0,82,46,0
0,29,100,32
0,72,91,0
0,48,73,0
0,36,100,0
0,38,82,0
0,44,65,0
0,70,64,0
0,39,82,0
0,48,73,12
0,70,87,0
0,65,55,24
0,48,64,0
0,46,73,0
0,70,73,0
0,48,64,60
0,38,58,0
0,70,69,0
0,29,100,32
0,72,91,0
0,48,73,0
0,36,100,0
0,44,65,0
0,70,66,0
0,48,73,40
0,70,84,0
0,39,73,0
0,67,72,24
0,48,64,0
0,46,73,0
0,70,64,0
0,29,91,28
0,70,82,0
0,48,64,0
0,70,73,0
0,31,100,24
0,72,91,0
0,48,73,0
0,44,65,0
0,70,66,0
0,39,82,0
0,48,73,12
0,70,87,0
0,34,100,24
0,75,91,0
0,48,64,0
0,46,73,0
0,70,73,0
0,69,44,0
0,48,64,40
0,70,75,0
0,69,44,0
0,36,100,8
0,60,73,0
0,48,73,0
0,36,100,0
0,42,65,0
0,49,73,0
0,70,69,0
0,82,44,0
0,48,73,4
0,42,65,0
0,70,87,0
0,82,44,0
0,67,73,24
0,48,64,0
0,46,73,0
0,70,64,0
0,82,46,0
0,48,64,40
0,70,73,0
0,82,46,0
0,36,100,32
0,60,73,0
0,48,73,0
0,36,100,0
0,38,82,0
0,44,65,0
0,70,64,0
0,60,91,4
0,48,73,52
0,70,87,0
0,67,73,24
0,48,64,0
0,46,73,0
0,70,73,0
0,48,64,60
0,38,58,0
0,70,69,0
0,36,100,32
0,60,73,0
0,48,73,0
0,36,100,0
0,44,65,0
0,70,66,0
0,48,73,40
0,70,84,0
0,67,73,24
0,48,64,0
0,46,73,0
0,70,64,0
0,62,95,0
0,36,91,12
0,67,73,0
0,48,64,0
0,70,73,0
0,36,100,24
0,60,73,0
0,48,73,0
