track,note,velocity,time
0,24,125,2226
0,79,89,2
0,72,92,2
0,60,80,20
0,63,80,0
0,67,80,0
0,36,109,54
0,60,84,2
0,48,100,58
0,36,96,58
0,60,84,2
0,48,96,58
0,36,96,58
0,63,84,2
0,48,96,58
0,36,96,58
0,60,84,2
0,48,96,58
0,36,96,58
0,65,84,2
0,48,96,58
0,36,96,58
0,60,84,2
0,48,96,58
0,36,96,58
0,63,84,2
0,48,96,58
0,34,96,58
0,62,84,2
0,46,96,58
0,58,80,2
0,63,80,0
0,67,80,0
0,39,92,22
0,39,96,4
0,60,84,2
0,51,96,58
0,39,96,58
0,60,84,2
0,51,96,58
0,39,96,58
0,63,84,2
0,51,96,58
0,39,96,58
0,60,84,2
0,51,96,58
0,39,96,58
0,65,84,2
0,51,96,58
0,39,96,58
0,60,84,2
0,51,96,58
0,39,96,58
0,63,84,2
0,51,96,58
0,39,96,58
0,62,84,2
0,51,96,58
0,58,80,2
0,62,80,0
0,65,80,0
0,34,92,2
0,38,96,4
0,60,84,2
0,50,96,58
0,38,96,58
0,60,84,2
0,50,96,58
0,38,96,58
0,63,84,2
0,50,96,58
0,38,96,58
0,60,84,2
0,50,96,58
0,38,96,58
0,65,84,2
0,50,96,58
0,38,96,58
0,60,84,2
0,50,96,58
0,38,96,58
0,63,84,2
0,50,96,58
0,38,96,58
0,62,84,2
0,50,96,58
0,57,80,2
0,60,80,0
0,65,80,0
0,29,92,2
0,36,96,4
0,60,84,2
0,48,96,58
0,36,96,58
0,60,84,2
0,48,96,58
0,36,96,58
0,63,84,2
0,48,96,58
0,36,96,58
0,60,84,2
0,48,96,58
0,36,96,58
0,65,84,2
0,48,96,58
0,36,96,58
0,60,84,2
0,48,96,58
0,36,96,58
0,65,84,2
0,48,96,58
0,34,96,58
0,67,84,2
0,46,96,58
0,60,80,2
0,63,80,0
0,67,80,0
0,42,73,8
0,36,92,4
0,36,109,4
0,60,84,2
0,42,59,50
0,48,100,8
0,46,62,50
0,69,51,0
0,36,96,8
0,60,84,2
0,42,59,50
0,48,96,8
0,42,69,50
0,36,96,8
0,63,84,2
0,42,59,50
0,48,96,8
0,46,62,50
0,69,51,0
0,36,96,8
0,60,84,2
0,42,59,50
0,48,96,8
0,42,73,50
0,36,96,8
0,65,84,2
0,42,59,50
0,48,96,8
0,46,62,50
0,69,51,0
0,36,96,8
0,60,84,2
0,42,59,50
0,48,96,8
0,42,69,50
0,36,96,8
0,63,84,2
0,42,59,50
0,48,96,8
0,46,62,50
0,69,51,0
0,34,96,8
0,62,84,2
0,42,59,50
0,46,96,8
0,58,80,2
0,63,80,0
0,67,80,0
0,42,73,46
0,39,92,2
0,39,96,4
0,60,84,2
0,42,59,50
0,51,96,8
0,46,62,50
0,69,51,0
0,39,96,8
0,60,84,2
0,42,59,50
0,51,96,8
0,42,69,50
0,39,96,8
0,63,84,2
0,42,59,50
0,51,96,8
0,46,62,50
0,69,51,0
0,39,96,8
0,60,84,2
0,42,59,50
0,51,96,8
0,42,73,50
0,39,96,8
0,65,84,2
0,42,59,50
0,51,96,8
0,46,62,50
0,69,51,0
0,39,96,8
0,60,84,2
0,42,59,50
0,51,96,8
0,42,69,50
0,39,96,8
0,63,84,2
0,42,59,50
0,51,96,8
0,46,62,50
0,69,51,0
0,39,96,8
0,62,84,2
0,42,59,50
0,51,96,8
0,58,80,2
0,62,80,0
0,65,80,0
0,42,73,46
0,34,92,2
0,38,96,4
0,60,84,2
0,42,59,50
0,50,96,8
0,46,62,50
0,69,51,0
0,38,96,8
0,60,84,2
0,42,59,50
0,50,96,8
0,42,69,50
0,38,96,8
0,63,84,2
0,42,59,50
0,50,96,8
0,46,62,50
0,69,51,0
0,38,96,8
0,60,84,2
0,42,59,50
0,50,96,8
0,42,73,50
0,38,96,8
0,65,84,2
0,42,59,50
0,50,96,8
0,46,62,50
0,69,51,0
0,38,96,8
0,60,84,2
0,42,59,50
0,50,96,8
0,42,69,50
0,38,96,8
0,63,84,2
0,42,59,50
0,50,96,8
0,46,62,50
0,69,51,0
0,38,96,8
0,62,84,2
0,42,59,50
0,50,96,8
0,57,80,2
0,60,80,0
0,65,80,0
0,42,73,46
0,29,92,2
0,36,96,4
0,60,84,2
0,42,59,50
0,48,96,8
0,46,62,50
0,69,51,0
0,36,96,8
0,60,84,2
0,42,59,50
0,48,96,8
0,42,69,50
0,36,96,8
0,63,84,2
0,42,59,50
0,48,96,8
0,46,62,50
0,69,51,0
0,36,96,8
0,60,73,2
0,42,59,50
0,48,96,8
0,42,73,50
0,36,96,8
0,65,61,2
0,42,59,50
0,48,96,8
0,46,62,50
0,69,51,0
0,36,96,8
0,60,50,2
0,42,59,50
0,48,96,8
0,42,69,50
0,36,96,8
0,42,59,50
0,48,96,8
0,46,62,50
0,69,51,0
0,34,96,8
0,42,59,50
0,46,96,8
0,67,64,56
0,38,55,144
0,38,45,28
0,38,40,28
0,38,31,28
0,38,47,28
0,38,38,28
0,38,54,28
0,38,45,28
0,38,61,28
0,38,52,28
0,38,68,28
0,38,59,28
0,38,75,28
0,38,65,28
0,38,80,28
0,38,70,28
0,38,85,28
0,38,75,28
0,38,90,28
0,38,80,28
0,38,95,28
0,38,85,28
0,38,100,28
0,38,90,28
0,60,80,2
0,63,80,0
0,67,80,0
0,35,110,28
0,42,73,0
0,49,87,0
0,36,92,0
0,36,104,0
0,36,109,4
0,72,120,0
0,42,59,50
0,48,100,8
0,46,62,0
0,69,51,0
0,36,96,8
0,42,59,50
0,48,96,8
0,35,108,50
0,38,106,0
0,42,69,0
0,39,82,2
0,36,104,2
0,36,96,4
0,72,120,0
0,42,59,50
0,48,96,8
0,46,62,0
0,69,51,0
0,36,96,8
0,42,59,50
0,48,96,8
0,35,110,50
0,42,73,0
0,36,104,4
0,36,96,4
0,72,124,0
0,42,59,50
0,48,96,8
0,46,62,16
0,69,51,0
0,36,96,2
0,67,118,0
0,42,59,50
0,36,104,4
0,48,96,2
0,70,118,0
0,35,108,36
0,38,106,0
0,42,69,0
0,39,82,2
0,36,104,2
0,36,96,2
0,72,124,0
0,42,59,50
0,48,96,8
0,46,62,50
0,69,51,0
0,34,104,2
0,34,96,2
0,75,118,0
0,42,59,50
0,46,96,8
0,58,80,2
0,63,80,0
0,67,80,0
0,35,110,46
0,42,73,0
0,39,92,2
0,39,104,0
0,39,96,2
0,72,120,0
0,42,59,50
0,51,96,8
0,46,62,0
0,69,51,0
0,39,96,8
0,42,59,50
0,51,96,8
0,35,108,50
0,38,106,0
0,42,69,0
0,39,82,2
0,39,104,2
0,39,96,4
0,72,120,0
0,42,59,50
0,51,96,8
0,46,62,0
0,69,51,0
0,39,96,8
0,42,59,50
0,51,96,8
0,35,110,50
0,42,73,0
0,39,104,4
0,39,96,4
0,72,124,0
0,42,59,50
0,51,96,8
0,46,62,16
0,69,51,0
0,39,96,2
0,67,118,0
0,42,59,50
0,39,104,4
0,51,96,2
0,70,118,0
0,35,108,36
0,38,106,0
0,42,69,0
0,39,82,2
0,39,104,2
0,39,96,2
0,72,124,0
0,42,59,50
0,51,96,8
0,46,62,32
0,69,51,0
0,39,104,4
0,39,96,2
0,77,118,0
0,42,59,50
0,51,96,8
0,58,80,2
0,62,80,0
0,65,80,0
0,35,110,8
0,42,73,0
0,34,92,2
0,34,104,0
0,38,96,2
0,72,120,0
0,42,59,50
0,50,96,8
0,46,62,0
0,69,51,0
0,38,96,8
0,42,59,50
0,50,96,8
0,35,108,50
0,38,106,0
0,42,69,0
0,39,82,2
0,34,104,2
0,38,96,4
0,72,120,0
0,42,59,50
0,50,96,8
0,46,62,0
0,69,51,0
0,38,96,8
0,38,98,50
0,42,59,0
0,50,96,8
0,35,110,50
0,42,73,0
0,34,104,4
0,38,96,4
0,72,124,0
0,42,59,50
0,50,96,8
0,46,62,16
0,69,51,0
0,38,96,2
0,65,118,0
0,42,59,50
0,34,104,4
0,50,96,2
0,70,118,0
0,35,108,36
0,38,106,0
0,42,69,0
0,39,82,2
0,34,104,2
0,38,96,2
0,72,124,0
0,42,59,50
0,50,96,8
0,46,62,50
0,69,51,0
0,34,104,2
0,38,96,2
0,75,118,0
0,42,59,50
0,50,96,8
0,57,80,2
0,60,80,0
0,65,80,0
0,35,110,46
0,42,73,0
0,29,104,2
0,41,92,0
0,36,96,2
0,72,120,0
0,42,59,50
0,48,96,8
0,46,62,0
0,69,51,0
0,36,96,8
0,42,59,50
0,48,96,8
0,35,108,50
0,38,106,0
0,42,69,0
0,39,82,2
0,29,104,2
0,36,96,4
0,72,120,0
0,42,59,50
0,48,96,8
0,46,62,0
0,69,51,0
0,36,96,8
0,42,59,50
0,48,96,8
0,35,110,50
0,42,73,0
0,29,104,4
0,36,96,4
0,72,124,0
0,42,59,50
0,48,96,8
0,46,62,16
0,69,51,0
0,36,96,2
0,65,118,0
0,35,104,50
0,42,59,0
0,29,104,4
0,48,96,2
0,67,118,0
0,35,108,36
0,38,106,0
0,42,69,0
0,39,82,2
0,31,104,2
0,36,96,2
0,70,124,0
0,42,59,50
0,48,96,8
0,35,104,28
0,46,62,0
0,69,51,0
0,34,104,4
0,34,96,2
0,72,118,0
0,42,59,50
0,46,96,8
0,60,80,2
0,63,80,0
0,67,80,0
0,35,110,8
0,42,73,0
0,36,92,4
0,36,104,0
0,36,109,4
0,72,120,0
0,42,59,50
0,48,100,8
0,46,62,0
0,69,51,0
0,36,96,8
0,42,59,50
0,48,96,8
0,35,108,50
0,38,106,0
0,42,69,0
0,39,82,2
0,36,104,2
0,36,96,4
0,72,120,0
0,42,59,50
0,48,96,8
0,46,62,0
0,69,51,0
0,36,96,8
0,38,98,50
0,42,59,0
0,48,96,8
0,35,110,50
0,42,73,0
0,36,104,4
0,36,96,4
0,72,124,0
0,42,59,50
0,48,96,8
0,46,62,16
0,69,51,0
0,36,96,2
0,67,118,0
0,42,59,50
0,36,104,4
0,48,96,2
0,70,118,0
0,35,108,36
0,38,106,0
0,42,69,0
0,39,82,2
0,36,104,2
0,36,96,2
0,72,124,0
0,42,59,50
0,48,96,8
0,46,62,50
0,69,51,0
0,34,104,2
0,34,96,2
0,75,118,0
0,42,59,50
0,46,96,8
0,58,80,2
0,63,80,0
0,67,80,0
0,35,110,46
0,42,73,0
0,39,92,2
0,39,104,0
0,39,96,2
0,72,120,0
0,42,59,50
0,51,96,8
0,46,62,0
0,69,51,0
0,39,96,8
0,42,59,50
0,51,96,8
0,35,108,50
0,38,106,0
0,42,69,0
0,39,82,2
0,39,104,2
0,39,96,4
0,72,120,0
0,42,59,50
0,51,96,8
0,46,62,0
0,69,51,0
0,39,96,8
0,42,59,50
0,51,96,8
0,35,110,50
0,42,73,0
0,39,104,4
0,39,96,4
0,72,124,0
0,42,59,50
0,51,96,8
0,46,62,16
0,69,51,0
0,39,96,2
0,67,118,0
0,42,59,50
0,39,104,4
0,51,96,2
0,70,118,0
0,35,108,36
0,38,106,0
0,42,69,0
0,39,82,2
0,39,104,2
0,39,96,2
0,72,124,0
0,42,59,50
0,51,96,8
0,46,62,32
0,69,51,0
0,39,104,4
0,39,96,2
0,77,118,0
0,42,59,50
0,51,96,8
0,58,80,2
0,62,80,0
0,65,80,0
0,35,110,8
0,42,73,0
0,34,92,2
0,34,104,0
0,38,96,2
0,72,120,0
0,42,59,50
0,50,96,8
0,46,62,0
0,69,51,0
0,38,96,8
0,42,59,50
0,50,96,8
0,35,108,50
0,38,106,0
0,42,69,0
0,39,82,2
0,34,104,2
0,38,96,4
0,72,120,0
0,42,59,50
0,50,96,8
0,46,62,0
0,69,51,0
0,38,96,8
0,38,98,50
0,42,59,0
0,50,96,8
0,35,110,50
0,42,73,0
0,34,104,4
0,38,96,4
0,72,124,0
0,42,59,50
0,50,96,8
0,46,62,16
0,69,51,0
0,38,96,2
0,65,118,0
0,42,59,50
0,34,104,4
0,50,96,2
0,70,118,0
0,35,108,36
0,38,106,0
0,42,69,0
0,39,82,2
0,34,104,2
0,38,96,2
0,72,124,0
0,42,59,50
0,50,96,8
0,46,62,50
0,69,51,0
0,34,104,2
0,38,96,2
0,75,118,0
0,42,59,50
0,50,96,8
0,57,80,2
0,60,80,0
0,65,80,0
0,35,110,46
0,42,73,0
0,29,104,2
0,41,92,0
0,36,96,2
0,72,120,0
0,42,59,50
0,48,96,8
0,46,62,0
0,69,51,0
0,39,77,2
0,36,96,6
0,42,59,50
0,48,96,8
0,35,108,50
0,38,106,0
0,42,69,0
0,39,87,2
0,29,104,2
0,36,96,4
0,72,120,0
0,42,59,50
0,48,96,8
0,46,62,0
0,69,51,0
0,39,69,2
0,36,96,6
0,42,59,50
0,48,96,8
0,35,110,50
0,42,73,0
0,29,104,4
0,36,96,4
0,72,124,0
0,42,59,50
0,39,93,2
0,48,96,6
0,46,62,16
0,69,51,0
0,36,96,2
0,65,118,0
0,42,59,50
0,39,89,2
0,29,104,2
0,48,96,2
0,67,118,0
0,42,69,36
0,39,96,2
0,31,104,2
0,36,96,2
0,72,124,0
0,42,59,50
0,48,96,8
0,46,62,28
0,69,51,0
0,34,104,4
0,34,96,2
0,75,118,0
0,42,59,50
0,46,96,8
0,60,80,2
0,63,80,0
0,67,80,0
0,35,110,8
0,42,73,0
0,49,87,0
0,36,92,2
0,36,104,0
0,60,84,0
0,36,109,2
0,42,59,50
0,48,100,8
0,46,62,4
0,69,51,0
0,67,80,2
0,36,96,2
0,42,59,50
0,48,96,8
0,35,108,50
0,38,106,0
0,42,69,0
0,39,82,2
0,36,104,0
0,60,84,2
0,36,96,2
0,42,59,50
0,48,96,8
0,46,62,4
0,69,51,0
0,67,81,2
0,36,96,2
0,38,98,50
0,42,59,0
0,48,96,8
0,35,110,50
0,42,73,0
0,36,104,0
0,60,82,2
0,36,96,2
0,42,59,50
0,48,96,8
0,46,62,16
0,69,51,0
0,67,83,2
0,36,96,2
0,42,59,50
0,36,104,4
0,48,96,4
0,35,108,36
0,38,106,0
0,42,69,0
0,39,82,2
0,36,104,0
0,60,84,2
0,36,96,2
0,42,59,50
0,48,96,8
0,46,62,50
0,69,51,0
0,34,104,0
0,67,82,2
0,34,96,2
0,42,59,50
0,46,96,8
0,58,80,2
0,63,80,0
0,67,80,0
0,35,110,46
0,42,73,0
0,39,92,0
0,39,104,0
0,60,84,2
0,39,96,2
0,42,59,50
0,51,96,8
0,46,62,4
0,69,51,0
0,67,84,2
0,39,96,2
0,42,59,50
0,51,96,8
0,35,108,50
0,38,106,0
0,42,69,0
0,39,82,2
0,39,104,0
0,60,85,2
0,39,96,2
0,42,59,50
0,51,96,8
0,46,62,4
0,69,51,0
0,67,85,2
0,39,96,2
0,42,59,50
0,51,96,8
0,35,110,50
0,42,73,0
0,39,104,0
0,60,86,2
0,39,96,2
0,42,59,50
0,51,96,8
0,46,62,16
0,69,51,0
0,65,87,2
0,39,96,2
0,42,59,50
0,39,104,4
0,51,96,4
0,35,108,36
0,38,106,0
0,42,69,0
0,39,82,2
0,39,104,0
0,60,85,2
0,39,96,2
0,42,59,50
0,51,96,8
0,46,62,32
0,69,51,0
0,39,104,0
0,65,85,2
0,39,96,2
0,42,59,50
0,51,96,8
0,58,80,2
0,62,80,0
0,65,80,0
0,35,110,8
0,42,73,0
0,34,92,0
0,34,104,0
0,60,85,2
0,38,96,2
0,42,59,50
0,50,96,8
0,46,62,4
0,69,51,0
0,65,80,2
0,38,96,2
0,42,59,50
0,50,96,8
0,35,108,50
0,38,106,0
0,42,69,0
0,39,82,2
0,34,104,0
0,60,84,2
0,38,96,2
0,42,59,50
0,50,96,8
0,46,62,4
0,69,51,0
0,65,81,2
0,38,96,2
0,38,98,50
0,42,59,0
0,50,96,8
0,35,110,50
0,42,73,0
0,34,104,0
0,60,82,2
0,38,96,2
0,42,59,50
0,50,96,8
0,46,62,16
0,69,51,0
0,65,85,2
0,38,96,2
0,42,59,50
0,34,104,4
0,50,96,4
0,35,108,36
0,38,106,0
