track,note,velocity,time
2,38,109,1316
2,38,109,38
2,36,98,17
2,38,104,44
2,43,95,17
2,41,98,7
2,33,104,30
2,45,98,25
2,43,109,42
2,38,98,18
2,43,120,3
2,31,91,16
2,28,104,35
2,36,109,12
2,29,114,49
2,36,109,5
2,38,104,96
2,41,98,16
2,40,114,5
2,35,98,7
2,40,109,2
2,33,114,2
2,33,109,12
2,33,109,25
2,36,114,7
2,37,109,30
2,38,109,22
2,38,109,38
2,36,98,17
2,38,104,44
2,43,95,17
2,41,98,7
2,33,104,30
2,45,98,25
2,43,109,42
2,38,98,18
2,43,120,3
2,31,91,16
2,28,104,35
2,36,109,12
2,29,114,49
2,36,109,5
2,38,104,96
2,41,98,16
2,40,114,5
2,35,98,7
2,40,109,2
2,33,114,2
2,33,109,12
2,33,109,25
2,36,114,7
2,37,109,30
2,38,109,22
2,38,109,38
2,36,98,17
2,38,104,44
2,43,95,17
2,41,98,7
2,33,104,30
2,45,98,25
2,43,109,42
2,38,98,18
2,43,120,3
2,31,91,16
2,28,104,35
2,36,109,12
2,29,114,49
2,36,109,5
2,38,104,96
2,41,98,16
2,40,114,5
2,35,98,7
2,40,109,2
2,33,114,2
2,33,109,12
2,33,109,25
2,36,114,7
2,37,109,30
2,38,109,22
2,38,109,38
2,36,98,17
2,38,104,44
2,43,95,17
2,41,98,7
2,33,104,30
2,45,98,25
2,43,109,42
2,38,98,18
2,43,120,3
2,31,91,16
2,28,104,35
2,36,109,12
2,29,114,49
2,36,109,5
2,38,104,96
2,41,98,16
2,40,114,5
2,35,98,7
2,40,109,2
2,33,114,2
2,33,109,12
2,33,109,25
2,36,114,7
2,37,109,30
2,38,109,22
2,38,109,38
2,36,98,17
2,38,104,44
2,43,95,17
2,41,98,7
2,33,104,30
2,45,98,25
2,43,109,42
2,38,98,18
2,43,120,3
2,31,91,16
2,28,104,35
2,36,109,12
2,29,114,49
2,36,109,5
2,38,104,96
2,41,98,16
2,40,114,5
2,35,98,7
2,40,109,2
2,33,114,2
2,33,109,12
2,38,109,73
2,38,109,38
2,36,98,17
2,38,104,44
2,43,95,17
2,41,98,7
2,33,104,30
2,45,98,25
2,43,109,42
2,38,98,18
2,43,120,3
2,31,91,16
2,28,104,35
2,36,109,12
2,29,114,49
2,36,109,5
2,38,104,96
2,41,98,16
2,40,114,5
2,35,98,7
2,40,109,2
2,33,114,2
2,33,109,48
2,38,109,1
2,38,109,38
2,36,98,17
2,38,104,44
2,43,95,17
2,41,98,7
2,33,104,30
2,45,98,25
2,43,109,42
2,38,98,18
2,43,120,3
2,31,91,16
2,28,104,35
2,36,109,12
2,29,114,49
2,36,109,5
2,38,104,96
2,41,98,16
2,40,114,5
2,35,98,7
2,40,109,2
2,33,114,2
2,33,109,12
2,33,109,25
2,36,114,7
2,37,109,30
2,38,109,22
2,38,109,38
2,36,98,17
2,38,104,44
2,43,95,17
2,41,98,7
2,33,104,30
2,45,98,25
2,43,109,42
2,38,98,18
2,43,120,3
2,31,91,16
2,28,104,35
2,36,109,12
2,29,114,49
2,36,109,5
2,38,104,96
2,41,98,16
2,40,114,5
2,35,98,7
2,40,109,2
2,33,114,2
2,33,109,12
2,33,109,25
2,36,114,7
2,37,109,30
2,38,109,22
2,38,109,38
2,36,98,17
2,38,104,44
2,43,95,17
2,41,98,7
2,33,104,30
2,45,98,25
2,43,109,42
2,38,98,18
2,43,120,3
2,31,91,16
2,28,104,35
2,36,109,12
2,29,114,49
2,36,109,5
2,38,104,96
2,41,98,16
2,40,114,5
2,35,98,7
2,40,109,2
2,33,114,2
2,33,109,12
2,33,109,25
2,36,114,7
2,37,109,30
2,38,109,22
2,38,109,38
2,36,98,17
2,38,104,44
2,43,95,17
2,41,98,7
2,33,104,30
2,45,98,25
2,43,109,42
2,38,98,18
2,43,120,3
2,31,91,16
2,28,104,35
2,36,109,12
2,29,114,49
2,36,109,5
2,38,104,96
2,41,98,16
2,40,114,5
2,35,98,7
2,40,109,2
2,33,114,2
2,33,109,12
2,33,109,25
2,36,114,7
2,37,109,30
2,38,109,22
2,38,109,38
2,36,98,17
2,38,104,44
2,43,95,17
2,41,98,7
2,33,104,30
2,45,98,25
2,43,109,42
2,38,98,18
2,43,120,3
2,31,91,16
2,28,104,35
2,36,109,12
2,29,114,49
2,36,109,5
2,38,104,96
2,41,98,16
2,40,114,5
2,35,98,7
2,40,109,2
2,33,114,2
2,33,109,12
2,38,109,73
2,38,109,38
2,36,98,17
2,38,104,44
2,43,95,17
2,41,98,7
2,33,104,30
2,45,98,25
2,43,109,42
2,38,98,18
2,43,120,3
2,31,91,16
2,28,104,35
2,36,109,12
2,29,114,49
2,36,109,5
2,38,104,96
2,41,98,16
2,40,114,5
2,35,98,7
2,40,109,2
2,33,114,2
2,33,109,48
2,38,109,1
2,38,109,38
2,36,98,17
2,38,104,44
2,43,95,17
2,41,98,7
2,33,104,30
2,45,98,25
2,43,109,42
2,38,98,18
2,43,120,3
2,31,91,16
2,28,104,35
2,36,109,12
2,29,114,49
2,36,109,5
2,38,104,96
2,41,98,16
2,40,114,5
2,35,98,7
2,40,109,2
2,33,114,2
2,33,109,12
2,33,109,25
2,36,114,7
2,37,109,30
2,38,109,22
2,38,109,38
2,36,98,17
2,38,104,44
2,43,95,17
2,41,98,7
2,33,104,30
2,45,98,25
2,43,109,42
2,38,98,18
2,43,120,3
2,31,91,16
2,28,104,35
2,36,109,12
2,29,114,49
2,36,109,5
2,38,104,96
2,41,98,16
2,40,114,5
2,35,98,7
2,40,109,2
2,33,114,2
2,33,109,12
2,33,109,25
2,36,114,7
2,37,109,30
2,38,109,22
2,38,109,38
2,36,98,17
2,38,104,44
2,43,95,17
2,41,98,7
2,33,104,30
2,45,98,25
2,43,109,42
2,38,98,18
2,43,120,3
2,31,91,16
2,28,104,35
2,36,109,12
2,29,114,49
2,36,109,5
2,38,104,96
2,41,98,16
2,40,114,5
2,35,98,7
2,40,109,2
2,33,114,2
2,33,109,12
2,33,109,25
2,36,114,7
2,37,109,30
2,38,109,22
2,38,109,38
2,36,98,17
2,38,104,44
2,43,95,17
2,41,98,7
2,33,104,30
2,45,98,25
2,43,109,42
2,38,98,18
2,43,120,3
2,31,91,16
2,28,104,35
2,36,109,12
2,29,114,49
2,36,109,5
2,38,104,96
2,41,98,16
2,40,114,5
2,35,98,7
2,40,109,2
2,33,114,2
2,33,109,12
2,33,109,25
2,36,114,7
2,37,109,30
2,38,109,22
2,38,109,38
2,36,98,17
2,38,104,44
2,43,95,17
2,41,98,7
2,33,104,30
2,45,98,25
2,43,109,42
2,38,98,18
2,43,120,3
2,31,91,16
2,28,104,35
2,36,109,12
2,29,114,49
2,36,109,5
2,38,104,96
2,41,98,16
2,40,114,5
2,35,98,7
2,40,109,2
2,33,114,2
2,33,109,12
2,33,109,25
2,36,114,7
2,37,109,30
2,38,109,22
2,38,109,38
2,36,98,17
2,38,104,44
2,43,95,17
2,41,98,7
2,33,104,30
2,45,98,25
2,43,109,42
2,38,98,18
2,43,120,3
2,31,91,16
2,28,104,35
2,36,109,12
2,29,114,49
2,36,109,5
2,38,104,96
2,41,98,16
2,40,114,5
2,35,98,7
2,40,109,2
2,33,114,2
2,33,109,12
2,33,109,25
2,36,114,7
2,37,109,30
2,38,109,22
2,38,109,38
2,36,98,17
2,38,104,44
2,43,95,17
2,41,98,7
2,33,104,30
2,45,98,25
2,43,109,42
2,38,98,18
2,43,120,3
2,31,91,16
2,28,104,35
2,36,109,12
2,29,114,49
2,36,109,5
2,38,104,96
2,41,98,16
2,40,114,5
2,35,98,7
2,40,109,2
2,33,114,2
2,33,109,12
2,38,109,73
2,38,109,38
2,36,98,17
2,38,104,44
2,43,95,17
2,41,98,7
2,33,104,30
2,45,98,25
2,43,109,42
2,38,98,18
2,43,120,3
2,31,91,16
2,28,104,35
2,36,109,12
2,29,114,49
2,36,109,5
2,38,104,96
2,41,98,16
2,40,114,5
2,33,114,7
2,33,109,48
2,38,109,1
2,38,109,38
2,36,98,17
2,38,104,44
2,43,95,17
2,41,98,7
2,33,104,30
2,45,98,25
2,43,109,42
2,38,98,18
2,43,120,3
2,31,91,16
2,28,104,35
2,36,109,12
2,29,114,49
2,36,109,5
2,38,104,96
2,41,98,16
2,40,114,5
2,35,98,7
2,40,109,2
2,33,114,2
2,33,109,12
2,33,109,25
2,36,114,7
2,37,109,30
2,38,109,22
2,38,109,38
2,36,98,17
2,38,104,44
2,43,95,17
2,41,98,7
2,33,104,30
2,45,98,25
2,43,109,42
2,38,98,18
2,43,120,3
2,31,91,16
2,28,104,35
2,36,109,12
2,29,114,49
2,36,109,5
2,38,104,96
2,41,98,16
2,40,114,5
2,35,98,7
2,40,109,2
2,33,114,2
2,33,109,12
2,33,109,25
2,36,114,7
2,37,109,30
2,38,109,22
2,38,109,38
2,36,98,17
2,38,104,44
2,43,95,17
2,41,98,7
2,33,104,30
2,45,98,25
2,43,109,42
2,38,98,18
2,43,120,3
2,31,91,16
2,28,104,35
2,36,109,12
2,29,114,49
2,36,109,5
2,38,104,96
2,41,98,16
2,40,114,5
2,35,98,7
2,40,109,2
2,33,114,2
2,33,109,12
2,33,109,25
2,36,114,7
2,37,109,30
2,38,109,22
2,38,109,38
2,36,98,17
2,38,104,44
2,43,95,17
2,41,98,7
2,33,104,30
2,45,98,25
2,43,109,42
2,38,98,18
2,43,120,3
2,31,91,16
2,28,104,35
2,36,109,12
2,29,114,49
2,36,109,5
2,38,104,96
2,41,98,16
2,40,114,5
2,35,98,7
2,40,109,2
2,33,114,2
2,33,109,12
2,33,109,25
2,36,114,7
2,37,109,30
2,38,109,22
2,38,109,38
2,36,98,17
2,38,104,44
2,43,95,17
2,41,98,7
2,33,104,30
2,45,98,25
2,43,109,42
2,38,98,18
2,43,120,3
2,31,91,16
2,28,104,35
2,36,109,12
2,29,114,49
2,36,109,5
2,38,104,96
2,41,98,16
2,40,114,5
2,35,98,7
2,40,109,2
2,33,114,2
2,33,109,12
2,33,109,25
2,36,114,7
2,37,109,30
2,38,109,22
2,38,109,38
2,36,98,17
2,38,104,44
2,43,95,17
2,41,98,7
2,33,104,30
2,45,98,25
2,43,109,42
2,38,98,18
2,43,120,3
2,31,91,16
2,28,104,35
2,36,109,12
2,29,114,49
2,36,109,5
2,38,104,96
2,41,98,16
2,40,114,5
2,35,98,7
2,40,109,2
2,33,114,2
2,33,109,12
2,33,109,25
2,36,114,7
2,37,109,30
2,38,109,22
2,38,109,38
2,36,98,17
2,38,104,44
2,43,95,17
2,41,98,7
2,33,104,30
2,45,98,25
2,43,109,42
2,38,98,18
2,43,120,3
2,31,91,16
2,28,104,35
2,36,109,12
2,29,114,49
2,36,109,5
2,38,104,96
2,41,98,16
2,40,114,5
2,35,98,7
2,40,109,2
2,33,114,2
2,33,109,12
2,33,109,25
2,36,114,7
2,37,109,30
2,38,109,22
2,38,109,38
2,36,98,17
2,38,104,44
2,43,95,17
2,41,98,7
2,33,104,30
2,45,98,25
2,43,109,42
2,38,98,18
2,43,120,3
2,31,91,16
2,28,104,35
2,36,109,12
2,29,114,49
2,36,109,5
2,38,104,96
2,41,98,16
2,40,114,5
2,35,98,7
2,40,109,2
2,33,114,2
2,33,109,12
2,33,109,25
2,36,114,7
2,37,109,30
2,38,109,22
2,38,109,38
2,36,98,17
2,38,104,44
2,43,95,17
2,41,98,7
3,62,109,1396
3,68,114,10
3,69,104,0
3,74,98,0
3,67,104,174
3,65,85,89
3,62,80,74
3,62,109,50
3,74,114,0
3,65,95,6
3,67,104,62
3,74,104,0
3,67,104,68
3,68,114,0
3,69,91,0
3,72,109,0
3,67,95,15
3,71,95,0
3,65,98,71
3,69,85,0
3,62,98,5
3,67,114,167
3,68,114,96
3,69,114,0
3,72,109,77
3,74,120,87
3,67,109,9
3,68,104,4
3,72,82,0
3,69,114,12
3,72,91,0
3,67,109,1
3,67,85,57
3,71,67,0
3,62,98,4
3,64,104,88
3,67,114,11
3,72,109,30
3,69,104,96
3,68,87,88
3,67,109,3
3,65,109,16
3,62,109,119
3,68,114,10
3,69,104,0
3,74,98,0
3,67,104,174
3,65,85,89
3,62,80,74
3,62,109,50
3,74,114,0
3,65,95,6
3,67,104,62
3,74,104,0
3,67,104,68
3,68,114,0
3,69,91,0
3,72,109,0
3,67,95,15
3,71,95,0
3,65,98,71
3,69,85,0
3,62,98,5
3,67,114,167
3,68,114,96
3,69,114,0
3,72,109,77
3,74,120,87
3,67,109,9
3,68,104,4
3,72,82,0
3,69,114,12
3,72,91,0
3,67,109,1
3,67,85,57
3,71,67,0
3,62,98,4
3,64,104,88
3,67,114,11
3,72,109,30
3,69,104,96
3,68,87,88
3,67,109,3
3,65,109,16
3,50,98,23
3,53,109,0
3,57,91,96
3,60,104,96
3,65,104,0
3,69,109,0
3,60,85,26
3,59,114,68
3,62,114,0
3,67,120,0
3,57,95,4
3,60,104,0
3,65,98,0
3,55,98,18
3,60,82,0
3,64,85,0
3,57,95,1
3,59,85,0
3,62,85,0
3,67,80,0
3,40,104,3
3,48,88,0
3,55,91,0
3,60,114,192
3,67,104,0
3,41,91,9
3,48,85,0
3,57,88,0
3,60,91,0
3,65,88,0
3,60,82,25
3,62,98,0
3,65,80,0
3,69,98,0
3,52,95,39
3,55,85,0
3,59,109,0
3,62,104,0
3,67,98,0
3,59,104,7
3,62,91,0
3,45,95,10
3,55,88,0
3,60,95,0
3,67,95,0
3,50,98,104
3,53,109,0
3,57,91,96
3,60,104,96
3,65,104,0
3,69,109,0
3,60,85,26
3,59,114,68
3,62,114,0
3,67,120,0
3,57,95,4
3,60,104,0
3,65,98,0
3,55,98,18
3,60,82,0
3,64,85,0
3,57,95,1
3,59,85,0
3,62,85,0
3,67,80,0
3,40,104,3
3,48,88,0
3,55,91,0
3,60,114,192
3,67,104,0
3,41,91,9
3,48,85,0
3,57,88,0
3,60,91,0
3,65,88,0
3,60,82,25
3,62,98,0
3,65,80,0
3,69,98,0
3,52,95,39
3,55,85,0
3,59,109,0
3,62,104,0
3,67,98,0
3,59,104,7
3,62,91,0
3,45,95,10
3,55,88,0
3,60,95,0
3,67,95,0
3,50,98,104
3,53,109,0
3,57,91,96
3,60,104,96
3,65,104,0
3,69,109,0
3,60,85,26
3,59,114,68
3,62,114,0
3,67,120,0
3,57,95,4
3,60,104,0
3,65,98,0
3,55,98,18
3,60,82,0
3,64,85,0
3,57,95,1
3,59,85,0
3,62,85,0
3,67,80,0
3,40,104,3
3,48,88,0
3,55,91,0
3,60,114,192
3,67,104,0
3,41,91,9
3,48,85,0
3,57,88,0
3,60,91,0
3,65,88,0
3,60,82,25
3,62,98,0
3,65,80,0
3,69,98,0
3,52,95,39
3,55,85,0
3,59,109,0
3,62,104,0
3,67,98,0
3,59,104,7
3,62,91,0
3,45,95,10
3,55,88,0
3,60,95,0
3,67,95,0
3,50,98,104
3,53,109,0
3,57,91,96
3,60,104,96
3,65,104,0
3,69,109,0
3,60,85,26
3,59,114,68
3,62,114,0
3,67,120,0
3,57,95,4
3,60,104,0
3,65,98,0
3,55,98,18
3,60,82,0
3,64,85,0
3,57,95,1
3,59,85,0
3,62,85,0
3,67,80,0
3,40,104,3
3,48,88,0
3,55,91,0
3,60,114,192
3,67,104,0
3,41,91,9
3,48,85,0
3,57,88,0
3,60,91,0
3,65,88,0
3,60,82,25
3,62,98,0
3,65,80,0
3,69,98,0
3,52,95,39
3,55,85,0
3,59,109,0
3,62,104,0
3,67,98,0
3,59,104,7
3,62,91,0
3,45,95,10
3,55,88,0
3,60,95,0
3,67,95,0
3,62,109,200
3,68,114,10
3,69,104,0
3,74,98,0
3,67,104,174
3,65,85,89
3,62,80,74
3,62,109,50
3,74,114,0
3,65,95,6
3,67,104,62
3,74,104,0
3,67,104,68
3,68,114,0
3,69,91,0
3,72,109,0
3,67,95,15
3,71,95,0
3,65,98,71
3,69,85,0
3,62,98,5
3,67,114,167
