track,note,velocity,time
0,42,120,4
0,42,80,200
0,42,120,752
0,42,80,368
0,42,80,368
0,42,80,368
0,40,81,4
0,52,81,0
0,59,99,16
0,71,99,0
0,59,96,4
0,71,96,0
0,59,99,12
0,71,99,0
0,59,96,0
0,71,96,0
0,59,99,24
0,71,99,0
0,59,96,54
0,71,96,0
0,59,99,56
0,71,99,0
0,59,97,54
0,71,97,0
0,59,99,56
0,71,99,0
0,59,96,54
0,71,96,0
0,59,98,56
0,71,98,0
0,59,97,54
0,71,97,0
0,59,99,56
0,71,99,0
0,59,97,54
0,71,97,0
0,40,123,20
0,52,123,0
0,57,123,0
0,59,123,0
0,64,123,0
0,59,99,56
0,71,99,0
0,59,97,54
0,71,97,0
0,59,99,56
0,71,99,0
0,59,96,54
0,71,96,0
0,59,99,56
0,71,99,0
0,59,96,54
0,71,96,0
0,59,99,56
0,71,99,0
0,59,96,54
0,71,96,0
0,59,99,56
0,71,99,0
0,59,97,54
0,71,97,0
0,59,99,56
0,71,99,0
0,59,96,54
0,71,96,0
0,76,77,52
0,78,96,0
0,59,98,4
0,71,98,0
0,59,97,54
0,71,97,0
0,59,99,56
0,71,99,0
0,59,97,54
0,71,97,0
0,59,99,56
0,71,99,0
0,59,97,54
0,71,97,0
0,59,99,56
0,71,99,0
0,59,96,4
0,71,96,0
0,59,99,12
0,71,99,0
0,59,96,16
0,71,96,0
0,59,99,8
0,71,99,0
0,59,96,28
0,71,96,0
0,59,99,4
0,71,99,0
0,59,97,8
0,71,97,0
0,57,121,0
0,59,121,0
0,64,121,0
0,81,103,0
0,59,99,16
0,71,99,0
0,59,96,20
0,71,96,0
0,28,127,8
0,59,98,28
0,71,98,0
0,59,97,0
0,71,97,0
0,59,99,8
0,71,99,0
0,59,97,12
0,71,97,0
0,95,78,0
0,93,73,0
0,59,99,20
0,71,99,0
0,95,74,0
0,59,97,24
0,71,97,0
0,93,66,0
0,95,70,0
0,59,99,0
0,71,99,0
0,93,82,0
0,95,78,0
0,59,96,4
0,71,96,0
0,93,66,0
0,59,99,12
0,71,99,0
0,95,78,0
0,93,79,0
0,59,96,10
0,71,96,0
0,78,100,24
0,83,89,0
0,95,86,0
0,59,99,24
0,71,99,0
0,93,70,0
0,95,85,0
0,59,96,28
0,71,96,0
0,93,71,0
0,95,89,0
0,59,99,4
0,71,99,0
0,93,49,0
0,59,97,8
0,71,97,0
0,95,89,0
0,93,79,0
0,59,99,16
0,71,99,0
0,95,85,0
0,59,96,20
0,71,96,0
0,93,76,0
0,95,91,0
0,59,98,28
0,71,98,0
0,93,79,0
0,59,97,0
0,71,97,0
0,95,80,0
0,40,121,0
0,52,121,0
0,57,121,0
0,93,81,0
0,59,99,8
0,71,99,0
0,95,78,0
0,90,73,0
0,59,97,12
0,71,97,0
0,95,74,0
0,59,99,8
0,71,99,0
0,90,66,0
0,95,70,0
0,59,97,24
0,71,97,0
0,90,82,4
0,95,78,4
0,90,66,10
0,95,78,4
0,90,79,8
0,95,86,4
0,90,70,6
0,95,85,4
0,90,71,4
0,95,89,4
0,90,49,6
0,95,89,4
0,90,79,4
0,95,85,4
0,90,76,4
0,95,91,6
0,90,79,4
0,95,80,4
0,90,81,20
0,95,78,4
0,88,73,4
0,95,74,4
0,88,66,8
0,95,70,14
0,88,82,4
0,95,78,4
0,88,66,0
0,57,121,0
0,59,121,0
0,64,121,0
0,95,78,0
0,88,79,0
0,95,86,0
0,88,70,0
0,95,85,0
0,88,71,0
0,69,89,0
0,67,127,0
0,69,69,0
0,69,49,0
0,64,96,0
0,64,76,0
0,67,97,0
0,64,56,0
0,69,111,0
0,62,127,0
0,40,121,0
0,52,121,0
0,57,121,0
0,69,91,0
0,67,76,0
0,64,127,0
0,69,71,54
0,71,124,46
0,62,97,4
0,71,104,76
0,67,54,32
0,76,75,38
0,78,89,0
0,64,97,4
0,71,84,76
0,76,122,0
0,62,76,4
0,76,102,112
0,64,76,4
0,76,82,114
0,74,121,40
0,62,54,4
0,81,89,28
0,57,121,4
0,59,121,0
0,64,121,0
0,74,101,40
0,64,54,0
0,74,81,40
0,78,84,50
0,83,75,0
0,40,121,4
0,52,121,0
0,57,121,0
0,69,127,0
0,28,127,58
0,49,114,4
0,55,127,0
0,67,127,0
0,52,126,4
0,64,126,0
0,57,127,4
0,69,127,0
0,52,120,14
0,64,120,0
0,59,127,4
0,71,127,0
0,52,123,4
0,64,123,0
0,60,123,4
0,72,123,0
0,59,127,8
0,71,127,0
0,30,127,2
0,47,123,4
0,59,123,0
0,59,127,4
0,71,127,0
0,60,117,26
0,72,117,0
0,47,127,14
0,59,127,0
0,59,127,4
0,71,127,0
0,47,126,4
0,59,126,0
0,57,127,4
0,69,127,0
0,47,127,16
0,59,127,0
0,31,127,2
0,55,127,4
0,67,127,0
0,52,123,4
0,64,123,0
0,57,127,4
0,69,127,0
0,52,123,4
0,64,123,0
0,59,127,4
0,71,127,0
0,52,123,4
0,64,123,0
0,60,123,4
0,72,123,0
0,59,127,4
0,71,127,0
0,35,127,2
0,47,127,24
0,59,127,0
0,59,127,4
0,71,127,0
0,60,117,4
0,72,117,0
0,47,125,24
0,59,125,0
0,59,127,4
0,71,127,0
0,47,120,4
0,59,120,0
0,57,127,4
0,69,127,0
0,47,120,4
0,59,120,0
0,28,127,2
0,35,87,18
0,54,96,0
0,55,127,0
0,67,127,0
0,54,65,80
0,54,91,4
0,52,126,0
0,64,126,0
0,54,65,80
0,38,98,4
0,54,96,0
0,57,127,0
0,69,127,0
0,54,65,80
0,54,96,14
0,52,120,0
0,64,120,0
0,38,73,80
0,54,65,0
0,54,96,4
0,59,127,0
0,71,127,0
0,38,64,80
0,54,65,0
0,35,65,48
0,54,96,4
0,52,123,0
0,64,123,0
0,54,70,80
0,38,100,4
0,54,96,0
0,60,123,0
0,72,123,0
0,54,65,80
0,54,96,8
0,59,127,0
0,71,127,0
0,54,65,80
0,30,127,2
0,35,87,4
0,54,96,0
0,47,123,0
0,59,123,0
0,54,65,80
0,54,91,4
0,59,127,0
0,71,127,0
0,54,65,80
0,38,98,26
0,54,96,0
0,60,117,0
0,72,117,0
0,54,65,80
0,54,96,14
0,47,127,0
0,59,127,0
0,38,73,80
0,54,65,0
0,54,96,4
0,59,127,0
0,71,127,0
0,38,64,80
0,54,65,0
0,35,65,48
0,54,96,4
0,47,126,0
0,59,126,0
0,54,70,80
0,38,100,4
0,54,96,0
0,57,127,0
0,69,127,0
0,54,65,80
0,54,96,16
0,47,127,0
0,59,127,0
0,54,65,80
0,31,127,2
0,35,87,4
0,54,96,0
0,55,127,0
0,67,127,0
0,54,65,80
0,54,91,4
0,52,123,0
0,64,123,0
0,54,65,80
0,38,98,4
0,54,96,0
0,57,127,0
0,69,127,0
0,54,65,80
0,54,96,4
0,52,123,0
0,64,123,0
0,38,73,80
0,54,65,0
0,54,96,4
0,59,127,0
0,71,127,0
0,38,64,80
0,54,65,0
0,35,65,48
0,54,96,4
0,52,123,0
0,64,123,0
0,54,70,80
0,38,100,4
0,54,96,0
0,60,123,0
0,72,123,0
0,54,65,80
0,54,96,4
0,59,127,0
0,71,127,0
0,54,65,80
0,35,127,2
0,35,87,24
0,40,70,0
0,54,96,0
0,47,127,0
0,59,127,0
0,67,127,0
0,40,56,80
0,54,65,0
0,40,76,4
0,54,91,0
0,59,127,0
0,71,127,0
0,40,70,80
0,54,65,0
0,38,98,4
0,40,82,0
0,54,96,0
0,60,117,0
0,72,117,0
0,40,73,80
0,54,65,0
0,40,88,24
0,54,96,0
0,47,125,0
0,59,125,0
0,38,73,80
0,40,76,0
0,54,65,0
0,40,100,4
0,54,96,0
0,59,127,0
0,71,127,0
0,67,93,0
0,38,64,80
0,40,82,0
0,54,65,0
0,35,65,48
0,40,100,4
0,54,96,0
0,47,120,0
0,59,120,0
0,40,81,80
0,54,70,0
0,38,100,4
0,40,106,0
0,54,96,0
0,57,127,0
0,69,127,0
0,62,127,0
0,40,88,80
0,54,65,0
0,40,112,4
0,54,96,0
0,47,120,0
0,59,120,0
0,64,127,0
0,40,94,80
0,54,65,0
0,59,85,0
0,64,85,0
0,67,85,0
0,36,127,18
0,42,1,0
0,54,110,0
0,57,116,0
0,40,127,0
0,55,127,0
0,67,127,0
0,67,72,0
0,54,79,80
0,46,112,4
0,54,105,0
0,52,127,0
0,52,126,0
0,64,126,0
0,54,79,80
0,28,127,4
0,36,127,0
0,38,98,0
0,40,115,0
0,42,1,0
0,54,110,0
0,40,127,0
0,57,127,0
0,69,127,0
0,62,93,0
0,54,79,34
0,46,112,4
0,54,110,0
0,52,127,0
0,52,120,0
0,64,120,0
0,64,93,0
0,38,73,80
0,54,79,0
0,36,127,4
0,42,1,0
0,54,110,0
0,40,127,0
0,59,127,0
0,71,127,0
0,38,64,80
0,54,79,0
0,46,112,4
0,54,110,0
0,52,127,0
0,52,123,0
0,64,123,0
0,54,84,80
0,28,127,4
0,36,127,0
0,38,100,0
0,40,115,0
0,42,1,0
0,54,110,0
0,40,127,0
0,60,123,0
0,72,123,0
0,62,72,0
0,54,79,34
0,46,112,4
0,54,110,0
0,52,127,0
0,59,127,0
0,71,127,0
0,64,72,0
0,54,79,80
0,59,85,4
0,62,85,0
0,66,85,0
0,36,127,4
0,42,1,0
0,54,110,0
0,35,127,0
0,47,123,0
0,59,123,0
0,54,79,80
0,46,112,4
0,54,105,0
0,47,127,0
0,59,127,0
0,71,127,0
0,54,79,80
0,28,127,26
0,36,127,0
0,38,98,0
0,40,115,0
0,42,1,0
0,54,110,0
0,35,127,0
0,60,117,0
0,72,117,0
0,54,79,34
0,46,112,14
0,54,110,0
0,47,127,0
0,47,127,0
0,59,127,0
0,38,73,80
0,54,79,0
0,36,127,4
0,42,1,0
0,54,110,0
0,35,127,0
0,59,127,0
0,71,127,0
0,38,64,80
0,54,79,0
0,46,112,4
0,54,110,0
0,47,127,0
0,47,126,0
0,59,126,0
0,54,84,80
0,28,127,4
0,36,127,0
0,38,100,0
0,40,115,0
0,42,1,0
0,54,110,0
0,35,127,0
0,57,127,0
0,69,127,0
0,54,79,80
0,46,112,16
0,54,110,0
0,47,127,0
0,47,127,0
0,59,127,0
0,54,79,80
0,59,85,4
0,64,85,0
0,67,84,0
0,36,127,4
0,42,1,0
0,54,110,0
0,40,127,0
0,55,127,0
0,67,127,0
0,54,79,80
0,46,112,4
0,54,105,0
0,52,127,0
0,52,123,0
0,64,123,0
0,54,79,80
0,28,127,4
0,36,127,0
0,38,98,0
0,40,115,0
0,42,1,0
0,54,110,0
0,40,127,0
0,57,127,0
0,69,127,0
0,54,79,80
0,46,112,4
0,54,110,0
0,52,127,0
0,52,123,0
0,64,123,0
0,38,73,80
0,54,79,0
0,36,127,4
0,42,1,0
0,54,110,0
0,40,127,0
0,59,127,0
0,71,127,0
0,38,64,80
0,54,79,0
0,46,112,4
0,54,110,0
0,52,127,0
0,52,123,0
0,64,123,0
0,54,84,80
0,28,127,4
0,36,127,0
0,38,100,0
0,40,115,0
0,42,1,0
0,54,110,0
0,40,127,0
0,60,123,0
0,72,123,0
0,54,79,80
0,46,112,4
0,54,110,0
0,52,127,0
0,59,127,0
0,71,127,0
0,54,79,80
0,59,85,4
0,62,85,0
0,66,85,0
0,36,127,24
0,42,1,0
0,54,110,0
0,35,127,0
0,47,127,0
0,59,127,0
0,54,79,80
0,46,112,4
0,54,105,0
0,47,127,0
0,59,127,0
0,71,127,0
0,54,79,80
0,28,127,4
0,36,127,0
0,38,98,0
0,40,115,0
0,42,1,0
0,54,110,0
0,35,127,0
0,60,117,0
0,72,117,0
0,54,79,80
0,46,112,24
0,54,110,0
0,47,127,0
0,47,125,0
0,59,125,0
0,38,73,80
0,54,79,0
0,71,81,8
0,83,66,0
0,36,127,4
0,42,1,0
0,54,110,0
0,35,127,0
0,59,127,0
0,71,127,0
0,38,64,80
0,54,79,0
0,46,112,4
0,54,110,0
0,47,127,0
0,47,120,0
0,59,120,0
0,54,84,80
0,28,127,4
0,36,127,0
0,38,100,0
0,40,115,0
0,42,1,0
0,54,110,0
0,35,127,0
0,57,127,0
0,69,127,0
0,54,79,80
0,46,112,4
0,54,110,0
0,47,127,0
0,47,120,0
0,59,120,0
0,54,79,80
0,60,85,4
0,64,85,0
0,67,85,0
0,72,81,0
0,84,66,0
0,36,127,18
0,42,1,0
0,54,110,0
0,36,127,0
0,55,127,0
0,67,127,0
0,54,79,80
0,46,112,4
0,54,105,0
0,48,127,0
0,52,126,0
0,64,126,0
0,54,79,80
0,28,127,4
0,36,127,0
0,38,98,0
0,40,115,0
0,42,1,0
0,54,110,0
0,36,127,0
0,57,127,0
0,69,127,0
0,54,79,80
0,46,112,14
0,54,110,0
0,48,127,0
0,52,120,0
0,64,120,0
0,38,73,80
0,54,79,0
0,36,127,4
0,42,1,0
0,54,110,0
0,36,127,0
0,59,127,0
0,71,127,0
0,38,64,80
0,54,79,0
0,46,112,4
0,54,110,0
0,48,127,0
0,52,123,0
0,64,123,0
0,54,84,80
0,28,127,4
0,36,127,0
0,38,100,0
0,40,115,0
0,42,1,0
0,54,110,0
0,36,127,0
0,60,123,0
0,72,123,0
0,54,79,80
0,46,112,8
0,54,110,0
0,48,127,0
0,59,127,0
0,71,127,0
0,54,79,80
0,55,85,4
0,59,85,0
0,62,85,0
0,67,81,0
0,79,66,0
0,36,127,4
0,42,1,0
0,54,110,0
0,31,127,0
0,47,123,0
0,59,123,0
0,54,79,80
0,46,112,4
0,54,105,0
0,43,127,0
0,59,127,0
0,71,127,0
0,54,79,80
0,28,127,26
0,36,127,0
0,38,98,0
0,40,115,0
0,42,1,0
0,54,110,0
0,31,127,0
0,60,117,0
0,72,117,0
0,54,79,80
0,46,112,14
0,54,110,0
0,43,127,0
0,47,127,0
0,59,127,0
0,38,73,80
0,54,79,0
0,36,127,4
0,42,1,0
0,54,110,0
0,31,127,0
0,59,127,0
0,71,127,0
0,38,64,80
0,54,79,0
0,46,112,4
0,54,110,0
0,43,127,0
0,47,126,0
0,59,126,0
0,54,84,80
0,28,127,4
0,36,127,0
0,38,100,0
0,40,115,0
0,42,1,0
0,54,110,0
0,31,127,0
0,57,127,0
0,69,127,0
0,54,79,80
0,46,112,16
0,54,110,0
0,43,127,0
0,47,127,0
0,59,127,0
0,54,79,80
0,57,85,4
0,60,85,0
0,64,85,0
0,69,81,0
0,81,66,0
0,36,127,4
0,42,1,0
0,54,110,0
0,33,127,0
0,55,127,0
0,67,127,0
0,54,79,80
0,46,112,4
0,54,105,0
0,45,127,0
0,52,123,0
0,64,123,0
0,54,79,80
0,28,127,4
0,36,127,0
0,38,98,0
0,40,115,0
0,42,1,0
0,54,110,0
0,33,127,0
0,57,127,0
0,69,127,0
0,54,79,80
0,46,112,4
0,54,110,0
0,45,127,0
0,52,123,0
0,64,123,0
0,38,73,80
0,54,79,0
0,36,127,4
0,42,1,0
0,54,110,0
0,33,127,0
0,59,127,0
0,71,127,0
0,38,64,80
0,54,79,0
0,46,112,4
0,54,110,0
0,45,127,0
0,52,123,0
0,64,123,0
0,54,84,80
0,28,127,4
0,36,127,0
0,38,100,0
0,40,115,0
0,42,1,0
0,54,110,0
0,33,127,0
0,60,123,0
0,72,123,0
0,54,79,80
0,46,112,4
0,54,110,0
0,45,127,0
0,59,127,0
0,71,127,0
0,54,79,80
0,59,85,4
0,63,85,0
0,66,85,0
0,71,81,0
0,83,66,0
0,36,127,24
0,42,1,0
0,54,110,0
0,35,127,0
0,47,127,0
0,59,127,0
0,54,79,80
0,46,112,4
0,54,105,0
0,47,127,0
0,59,127,0
0,71,127,0
0,54,79,80
0,28,127,4
0,36,127,0
0,38,98,0
0,40,115,0
0,42,1,0
0,54,110,0
0,35,127,0
0,60,117,0
0,72,117,0
0,54,79,80
0,46,112,24
0,54,110,0
0,47,127,0
0,47,125,0
0,59,125,0
0,38,73,80
0,54,79,0
0,36,127,4
0,42,1,0
