track,note,velocity,time
1,40,94,29372
1,52,109,4
1,40,94,4
1,52,109,4
1,40,94,4
1,52,109,4
1,40,94,4
1,52,109,4
1,35,94,4
1,47,109,4
1,35,94,4
1,47,109,4
1,35,94,4
1,47,109,4
1,35,94,4
1,47,109,4
1,40,94,4
1,52,109,4
1,40,94,4
1,52,109,4
1,40,94,4
1,52,109,4
1,40,94,4
1,52,109,4
1,35,94,4
1,47,109,4
1,35,94,4
1,47,109,4
1,35,94,4
1,47,109,4
1,35,94,4
1,47,109,4
1,36,94,4
1,48,109,4
1,36,94,4
1,48,109,4
1,36,94,4
1,48,109,4
1,36,94,4
1,48,109,4
1,31,94,4
1,43,109,4
1,31,94,4
1,43,109,4
1,31,94,4
1,43,109,4
1,31,94,4
1,43,109,4
1,33,94,4
1,45,109,4
1,33,94,4
1,45,109,4
1,33,94,4
1,45,109,4
1,33,94,4
1,45,109,4
1,35,94,4
1,47,109,4
1,35,94,4
1,47,109,4
1,35,94,4
1,47,109,4
1,35,94,4
1,47,109,4
1,40,94,4
1,52,109,4
1,40,94,4
1,52,109,4
1,40,94,4
1,52,109,4
1,40,94,4
1,52,109,4
1,35,94,4
1,47,109,4
1,35,94,4
1,47,109,4
1,35,94,4
1,47,109,4
1,35,94,4
1,47,109,4
1,40,94,4
1,52,109,4
1,40,94,4
1,52,109,4
1,40,94,4
1,52,109,4
1,40,94,4
1,52,109,4
1,35,94,4
1,47,109,4
1,35,94,4
1,47,109,4
1,35,94,4
1,47,109,4
1,35,94,4
1,47,109,4
1,40,94,4
1,52,109,4
1,40,94,4
1,52,109,4
1,40,94,4
1,52,109,4
1,40,94,4
1,52,109,4
1,35,94,4
1,47,109,4
1,35,94,4
1,47,109,4
1,35,94,4
1,47,109,4
1,35,94,4
1,47,109,4
1,40,94,4
1,52,109,4
1,40,94,4
1,52,109,4
1,40,94,4
1,52,109,4
1,40,94,4
1,52,109,4
1,35,94,4
1,47,109,4
1,35,94,4
1,47,109,4
1,35,94,4
1,47,109,4
1,35,94,4
1,47,109,4
1,36,94,4
1,48,109,4
1,36,94,4
1,48,109,4
1,36,94,4
1,48,109,4
1,36,94,4
1,48,109,4
1,31,94,4
1,43,109,4
1,31,94,4
1,43,109,4
1,31,94,4
1,43,109,4
1,31,94,4
1,43,109,4
1,33,94,4
1,45,109,4
1,33,94,4
1,45,109,4
1,33,94,4
1,45,109,4
1,33,94,4
1,45,109,4
1,35,94,4
1,47,109,4
1,35,94,4
1,47,109,4
1,35,94,4
1,47,109,4
1,35,94,4
1,47,109,4
1,40,94,4
1,52,109,4
1,40,94,4
1,52,109,4
1,40,94,4
1,52,109,4
1,40,94,4
1,52,109,4
1,35,94,4
1,47,109,4
1,35,94,4
1,47,109,4
1,35,94,4
1,47,109,4
1,35,94,4
1,47,109,4
1,40,94,4
1,52,109,4
1,40,94,4
1,52,109,4
1,40,94,4
1,52,109,4
1,40,94,4
1,52,109,4
1,35,94,4
1,47,109,4
1,35,94,4
1,47,109,4
1,35,94,4
1,47,109,4
1,35,94,4
1,47,109,4
1,36,94,4
1,48,109,4
1,36,94,4
1,48,109,4
1,36,94,4
1,48,109,4
1,36,94,4
1,48,109,4
1,31,94,4
1,43,109,4
1,31,94,4
1,43,109,4
1,31,94,4
1,43,109,4
1,31,94,4
1,43,109,4
1,33,94,4
1,45,109,4
1,33,94,4
1,45,109,4
1,33,94,4
1,45,109,4
1,33,94,4
1,45,109,4
1,40,94,1540
1,52,109,4
1,40,94,4
1,52,109,4
1,40,94,4
1,52,109,4
1,40,94,4
1,52,109,4
1,35,94,4
1,47,109,4
1,35,94,4
1,47,109,4
1,35,94,4
1,47,109,4
1,35,94,4
1,47,109,4
1,40,94,4
1,52,109,4
1,40,94,4
1,52,109,4
1,40,94,4
1,52,109,4
1,40,94,4
1,52,109,4
1,35,94,4
1,47,109,4
1,35,94,4
1,47,109,4
1,35,94,4
1,47,109,4
1,35,94,4
1,47,109,4
1,36,94,4
1,48,109,4
1,36,94,4
1,48,109,4
1,36,94,4
1,48,109,4
1,36,94,4
1,48,109,4
1,31,94,4
1,43,109,4
1,31,94,4
1,43,109,4
1,31,94,4
1,43,109,4
1,31,94,4
1,43,109,4
1,33,94,4
1,45,109,4
1,33,94,4
1,45,109,4
1,33,94,4
1,45,109,4
1,33,94,4
1,45,109,4
1,35,94,4
1,47,109,4
1,35,94,4
1,47,109,4
1,35,94,4
1,47,109,4
1,35,94,4
1,47,109,4
1,40,94,4
1,52,109,4
1,40,94,4
1,52,109,4
1,40,94,4
1,52,109,4
1,40,94,4
1,52,109,4
1,35,94,4
1,47,109,4
1,35,94,4
1,47,109,4
1,35,94,4
1,47,109,4
1,35,94,4
1,47,109,4
1,40,94,4
1,52,109,4
1,40,94,4
1,52,109,4
1,40,94,4
1,52,109,4
1,40,94,4
1,52,109,4
1,35,94,4
1,47,109,4
1,35,94,4
1,47,109,4
1,35,94,4
1,47,109,4
1,35,94,4
1,47,109,4
1,36,94,4
1,48,109,4
1,36,94,4
1,48,109,4
1,36,94,4
1,48,109,4
1,36,94,4
1,48,109,4
1,31,94,4
1,43,109,4
1,31,94,4
1,43,109,4
1,31,94,4
1,43,109,4
1,31,94,4
1,43,109,4
1,33,94,4
1,45,109,4
1,33,94,4
1,45,109,4
1,33,94,4
1,45,109,4
1,33,94,4
1,45,109,4
1,35,94,4
1,47,109,4
1,35,94,4
1,47,109,4
1,35,94,4
1,47,109,4
1,35,94,4
1,47,109,4
1,40,94,4
1,52,109,4
1,40,94,4
1,52,109,4
1,40,94,4
1,52,109,4
1,40,94,4
1,52,109,4
1,35,94,4
1,47,109,4
1,35,94,4
1,47,109,4
1,35,94,4
1,47,109,4
1,35,94,4
1,47,109,4
1,40,94,4
1,52,109,4
1,40,94,4
1,52,109,4
1,40,94,4
1,52,109,4
1,40,94,4
1,52,109,4
1,35,94,4
1,47,109,4
1,35,94,4
1,47,109,4
1,35,94,4
1,47,109,4
1,35,94,4
1,47,109,4
1,36,94,4
1,48,109,4
1,36,94,4
1,48,109,4
1,36,94,4
1,48,109,4
1,36,94,4
1,48,109,4
1,31,94,4
1,43,109,4
1,31,94,4
1,43,109,4
1,31,94,4
1,43,109,4
1,31,94,4
1,43,109,4
1,33,94,4
1,45,109,4
1,33,94,4
1,45,109,4
1,33,94,4
1,45,109,4
1,33,94,4
1,45,109,4
1,35,94,4
1,47,109,4
1,35,94,4
1,47,109,4
1,35,94,4
1,47,109,4
1,35,94,4
1,47,109,4
1,40,94,4
1,52,109,4
1,40,94,4
1,52,109,4
1,40,94,4
1,52,109,4
1,40,94,4
1,52,109,4
1,35,94,4
1,47,109,4
1,35,94,4
1,47,109,4
1,35,94,4
1,47,109,4
1,35,94,4
1,47,109,4
1,40,94,4
1,52,109,4
1,40,94,4
1,52,109,4
1,40,94,4
1,52,109,4
1,40,94,4
1,52,109,4
1,35,94,4
1,47,109,4
1,35,94,4
1,47,109,4
1,35,94,4
1,47,109,4
1,35,94,4
1,47,109,4
1,36,94,4
1,48,109,4
1,36,94,4
1,48,109,4
1,36,94,4
1,48,109,4
1,36,94,4
1,48,109,4
1,31,94,4
1,43,109,4
1,31,94,4
1,43,109,4
1,31,94,4
1,43,109,4
1,31,94,4
1,43,109,4
1,33,94,4
1,45,109,4
1,33,94,4
1,45,109,4
1,33,94,4
1,45,109,4
1,33,94,4
1,45,109,4
1,40,94,1540
1,52,109,4
1,40,94,4
1,52,109,4
1,40,94,4
1,52,109,4
1,40,94,4
1,52,109,4
1,35,94,4
1,47,109,4
1,35,94,4
1,47,109,4
1,35,94,4
1,47,109,4
1,35,94,4
1,47,109,4
1,40,94,4
1,52,109,4
1,40,94,4
1,52,109,4
1,40,94,4
1,52,109,4
1,40,94,4
1,52,109,4
1,35,94,40
1,47,109,4
1,35,94,4
1,47,109,4
1,35,94,4
1,47,109,4
1,35,94,4
1,47,109,4
1,36,94,4
1,48,109,4
1,36,94,4
1,48,109,4
1,36,94,4
1,48,109,4
1,36,94,4
1,48,109,4
1,31,94,4
1,43,109,4
1,31,94,4
1,43,109,4
1,31,94,4
1,43,109,4
1,31,94,4
1,43,109,4
1,33,94,4
1,45,109,4
1,33,94,4
1,45,109,4
1,33,94,4
1,45,109,4
1,33,94,4
1,45,109,4
1,35,94,4
1,47,109,4
1,35,94,4
1,47,109,4
1,35,94,4
1,47,109,4
1,35,94,4
1,47,109,4
1,40,94,4
1,52,109,4
1,40,94,4
1,52,109,4
1,40,94,4
1,52,109,4
1,40,94,4
1,52,109,4
1,35,94,4
1,47,109,4
1,35,94,4
1,47,109,4
1,35,94,4
1,47,109,4
1,35,94,4
1,47,109,4
1,40,94,4
1,52,109,4
1,40,94,4
1,52,109,4
1,40,94,4
1,52,109,4
1,40,94,4
1,52,109,4
1,35,94,4
1,47,109,4
1,35,94,4
1,47,109,4
1,35,94,4
1,47,109,4
1,35,94,4
1,47,109,4
1,36,94,4
1,48,109,4
1,36,94,4
1,48,109,4
1,36,94,4
1,48,109,4
1,36,94,4
1,48,109,4
1,31,94,4
1,43,109,4
1,31,94,4
1,43,109,4
1,31,94,4
1,43,109,4
1,31,94,4
1,43,109,4
1,33,94,4
1,45,109,4
1,33,94,4
1,45,109,4
1,33,94,4
1,45,109,4
1,33,94,4
1,45,109,4
1,35,94,4
1,47,109,4
1,35,94,4
1,47,109,4
1,35,94,4
1,47,109,4
1,35,94,4
1,47,109,4
1,40,94,13828
1,52,109,4
1,40,94,4
1,52,109,4
1,40,94,4
1,52,109,4
1,40,94,4
1,52,109,4
1,35,94,4
1,47,109,4
1,35,94,4
1,47,109,4
1,35,94,4
1,47,109,4
1,35,94,4
1,47,109,4
1,40,94,4
1,52,109,4
1,40,94,4
1,52,109,4
1,40,94,4
1,52,109,4
1,40,94,4
1,52,109,4
1,35,94,4
1,47,109,4
1,35,94,4
1,47,109,4
1,35,94,4
1,47,109,4
1,35,94,4
1,47,109,4
1,40,94,4
1,52,109,4
1,40,94,4
1,52,109,4
1,40,94,4
1,52,109,4
1,40,94,4
1,52,109,4
1,35,94,4
1,47,109,4
1,35,94,4
1,47,109,4
1,35,94,4
1,47,109,4
1,35,94,4
1,47,109,4
1,40,94,4
1,52,109,4
1,40,94,4
1,52,109,4
1,40,94,4
1,52,109,4
1,40,94,4
1,52,109,4
1,35,94,4
1,47,109,4
1,35,94,4
1,47,109,4
1,35,94,4
1,47,109,4
1,35,94,4
1,47,109,4
1,36,94,4
1,48,109,4
1,36,94,4
1,48,109,4
1,36,94,4
1,48,109,4
1,36,94,4
1,48,109,4
1,31,94,4
1,43,109,4
1,31,94,4
1,43,109,4
1,31,94,4
1,43,109,4
1,31,94,4
1,43,109,4
1,33,94,4
1,45,109,4
1,33,94,4
1,45,109,4
1,33,94,4
1,45,109,4
1,33,94,4
1,45,109,4
1,35,94,4
1,47,109,4
1,35,94,4
1,47,109,4
1,35,94,4
1,47,109,4
1,35,94,4
1,47,109,4
1,40,94,4
1,52,109,4
1,40,94,4
1,52,109,4
1,40,94,4
1,52,109,4
1,40,94,4
1,52,109,4
1,35,94,4
1,47,109,4
1,35,94,4
1,47,109,4
1,35,94,4
1,47,109,4
1,35,94,4
1,47,109,4
1,40,94,4
1,52,109,4
1,40,94,4
1,52,109,4
1,40,94,4
1,52,109,4
1,40,94,4
1,52,109,4
1,35,94,4
1,47,109,4
1,35,94,4
1,47,109,4
1,35,94,4
1,47,109,4
1,35,94,4
1,47,109,4
1,36,94,4
1,48,109,4
1,36,94,4
1,48,109,4
1,36,94,4
1,48,109,4
1,36,94,4
1,48,109,4
1,31,94,4
1,43,109,4
1,31,94,4
1,43,109,4
1,31,94,4
1,43,109,4
1,31,94,4
1,43,109,4
1,33,94,4
1,45,109,4
1,33,94,4
1,45,109,4
1,33,94,4
1,45,109,4
1,33,94,4
1,45,109,4
1,35,94,4
1,47,109,4
1,35,94,4
1,47,109,4
1,35,94,4
1,47,109,4
1,35,94,4
1,47,109,4
1,40,94,4
1,52,109,4
1,40,94,4
1,52,109,4
1,40,94,4
1,52,109,4
1,40,94,4
1,52,109,4
1,35,94,4
1,47,109,4
1,35,94,4
1,47,109,4
1,35,94,4
1,47,109,4
1,35,94,4
1,47,109,4
1,40,94,4
1,52,109,4
1,40,94,4
1,52,109,4
1,40,94,4
1,52,109,4
1,40,94,4
1,52,109,4
1,35,94,4
1,47,109,4
1,35,94,4
1,47,109,4
1,35,94,4
1,47,109,4
1,35,94,4
1,47,109,4
1,36,94,4
1,48,109,4
1,36,94,4
1,48,109,4
1,36,94,4
1,48,109,4
1,36,94,4
1,48,109,4
1,31,94,4
1,43,109,4
1,31,94,4
1,43,109,4
1,31,94,4
1,43,109,4
1,31,94,4
1,43,109,4
1,33,94,4
1,45,109,4
1,33,94,4
1,45,109,4
1,33,94,4
1,45,109,4
1,33,94,4
1,45,109,4
1,35,94,4
1,47,109,4
1,35,94,4
1,47,109,4
1,35,94,4
1,47,109,4
1,35,94,4
1,47,109,4
2,28,53,11306
2,55,95,76
2,40,80,0
2,67,80,0
2,28,70,0
2,52,95,4
2,64,80,0
2,69,80,4
2,57,95,0
2,52,95,4
2,64,80,0
2,71,80,4
2,59,95,0
2,64,80,4
2,52,95,0
2,72,80,4
2,60,95,0
2,71,80,4
2,59,95,0
2,30,80,4
2,47,80,0
2,59,95,4
2,71,80,0
2,60,95,4
2,72,80,0
2,47,80,4
2,59,95,4
2,71,80,0
2,47,80,4
2,69,80,4
2,57,95,0
2,47,80,4
2,55,95,4
2,31,70,0
2,67,80,0
2,43,80,0
2,52,95,4
2,64,80,0
2,57,95,4
2,69,80,0
2,52,95,4
2,64,80,0
2,71,80,4
2,59,95,0
2,52,95,4
2,64,80,0
2,72,80,4
2,60,95,0
2,71,80,4
2,59,95,0
2,47,80,4
2,35,80,0
2,71,80,4
2,59,95,0
2,72,80,4
2,60,95,0
2,47,80,4
2,59,95,4
2,71,80,0
2,47,80,4
2,69,80,4
2,57,95,0
2,47,80,4
2,55,95,4
2,28,70,0
2,40,80,0
2,67,80,0
2,64,80,4
2,52,95,0
2,69,80,4
2,57,95,0
2,64,80,4
2,52,95,0
2,71,80,4
2,59,95,0
2,64,80,4
2,52,95,0
2,72,80,4
2,60,95,0
2,59,95,4
2,71,80,0
2,47,80,4
2,30,80,0
2,71,80,4
2,59,95,0
2,72,80,4
2,60,95,0
2,47,80,4
2,71,80,4
2,59,95,0
2,47,80,4
2,69,80,4
2,57,95,0
2,47,80,4
2,43,80,4
2,67,80,0
2,55,95,0
2,31,70,0
2,64,80,4
2,52,95,0
2,57,95,4
2,69,80,0
2,64,80,4
2,52,95,0
2,71,80,4
2,59,95,0
2,52,95,4
2,64,80,0
2,60,95,4
2,72,80,0
2,71,80,4
2,59,95,0
2,35,80,4
2,47,80,0
2,71,80,4
2,59,95,0
2,60,95,4
2,72,80,0
2,47,80,4
2,71,80,4
2,59,95,0
2,47,80,4
2,69,80,4
2,57,95,0
2,47,80,4
2,40,80,4
2,67,80,0
2,55,95,0
2,64,80,4
2,52,95,0
2,69,80,4
2,57,95,0
2,64,80,4
2,52,95,0
2,59,95,4
2,71,80,0
2,64,80,4
2,52,95,0
2,60,95,4
2,72,80,0
2,59,95,4
2,71,80,0
2,47,80,4
2,59,95,4
2,71,80,0
2,60,95,4
2,72,80,0
2,47,80,4
2,59,95,4
2,71,80,0
2,47,80,4
2,69,80,4
2,57,95,0
2,47,80,4
2,40,80,4
2,55,95,0
2,67,80,0
2,64,80,4
2,52,95,0
2,57,95,4
2,69,80,0
2,52,95,4
2,64,80,0
2,59,95,4
2,71,80,0
2,52,95,4
2,64,80,0
2,72,80,4
2,60,95,0
2,71,80,4
2,59,95,0
2,47,80,4
2,71,80,4
2,59,95,0
2,60,95,4
2,72,80,0
2,47,80,4
2,59,95,4
2,71,80,0
2,47,80,4
2,69,80,4
2,57,95,0
2,47,80,4
2,67,80,4
