track,note,velocity,time
0,57,56,729
0,60,56,2
0,60,88,0
0,64,90,2
0,45,116,2
0,64,92,0
0,69,100,0
0,57,67,0
0,60,91,0
0,64,87,0
0,60,63,4
0,69,92,1
0,64,96,2
0,57,71,10
0,59,91,7
0,64,104,0
0,59,79,1
0,64,93,0
0,69,95,0
0,45,93,3
0,57,69,4
0,59,92,1
0,64,91,0
0,69,93,1
0,59,67,2
0,64,94,0
0,57,77,12
0,60,94,8
0,64,92,0
0,64,93,2
0,60,88,0
0,69,100,0
0,45,99,2
0,57,44,11
0,64,78,6
0,60,95,0
0,60,92,3
0,69,104,0
0,64,95,0
0,57,66,17
0,57,65,12
0,45,104,4
0,59,88,0
0,59,76,0
0,64,90,0
0,64,107,0
0,69,100,1
0,57,65,15
0,60,93,0
0,60,89,2
0,64,92,0
0,45,99,2
0,64,96,0
0,69,107,0
0,57,29,8
0,60,88,6
0,64,83,0
0,69,92,2
0,60,99,0
0,64,95,0
0,60,65,12
0,45,96,4
0,60,95,0
0,69,90,0
0,64,94,0
0,60,63,1
0,64,52,0
0,57,61,8
0,69,92,4
0,64,100,0
0,60,107,0
0,60,82,2
0,64,82,0
0,60,46,14
0,57,61,5
0,64,103,3
0,60,95,0
0,69,102,1
0,60,99,0
0,43,111,2
0,64,93,1
0,69,93,4
0,60,96,0
0,64,92,0
0,64,52,2
0,57,62,10
0,60,72,0
0,60,96,8
0,69,96,0
0,64,103,0
0,64,84,0
0,60,93,0
0,43,90,4
0,60,30,6
0,64,48,4
0,69,95,3
0,60,100,0
0,64,93,1
0,60,77,16
0,53,55,6
0,62,77,2
0,57,83,0
0,50,107,2
0,69,100,0
0,65,103,0
0,62,95,0
0,65,104,6
0,57,88,0
0,53,65,0
0,69,94,2
0,62,89,0
0,62,90,0
0,62,44,12
0,62,76,3
0,69,91,0
0,65,94,1
0,50,92,2
0,57,58,0
0,53,55,0
0,62,59,0
0,62,36,11
0,62,65,6
0,65,99,2
0,69,92,0
0,62,86,0
0,62,59,12
0,65,91,4
0,53,68,0
0,69,88,0
0,62,86,0
0,57,87,2
0,48,100,2
0,62,90,0
0,62,29,8
0,62,64,4
0,57,69,0
0,65,93,2
0,62,78,0
0,69,93,0
0,62,48,9
0,57,69,8
0,62,67,0
0,65,90,0
0,69,93,0
0,62,76,0
0,48,93,4
0,62,25,8
0,69,87,11
0,65,86,0
0,62,80,0
0,62,40,8
0,53,71,6
0,57,79,2
0,62,81,0
0,47,108,2
0,62,84,0
0,65,90,0
0,69,92,0
0,62,22,8
0,65,93,6
0,62,50,0
0,69,93,2
0,62,84,0
0,62,40,12
0,57,63,4
0,65,93,1
0,69,93,0
0,62,80,0
0,62,65,0
0,47,94,2
0,62,28,10
0,57,75,8
0,62,70,0
0,53,64,1
0,65,94,2
0,62,79,0
0,69,99,0
0,52,48,16
0,40,115,4
0,64,84,0
0,59,71,0
0,56,85,0
0,68,119,1
0,59,100,1
0,64,99,6
0,56,54,0
0,59,72,2
0,68,123,0
0,59,65,0
0,59,63,12
0,64,99,4
0,59,68,0
0,68,120,1
0,40,95,3
0,56,69,0
0,59,87,0
0,59,49,8
0,59,59,6
0,64,88,0
0,68,120,2
0,56,63,0
0,59,77,0
0,59,60,10
0,57,68,3
0,60,100,0
0,60,87,1
0,64,96,1
0,64,90,0
0,45,103,2
0,69,100,0
0,64,59,8
0,60,85,0
0,60,103,1
0,64,94,0
0,69,99,1
0,60,46,14
0,60,95,6
0,57,64,0
0,64,80,0
0,45,91,4
0,60,99,0
0,64,95,0
0,69,91,0
0,60,66,6
0,64,50,4
0,60,104,4
0,64,96,0
0,69,99,1
0,60,61,12
0,53,60,5
0,50,104,3
0,69,83,0
0,62,69,0
0,65,93,0
0,57,85,0
0,62,88,0
0,62,41,12
0,57,58,3
0,53,45,1
0,62,68,0
0,69,100,2
0,65,104,0
0,62,90,0
0,62,27,9
0,50,61,0
0,42,108,3
0,62,82,0
0,54,76,0
0,57,84,0
0,66,93,4
0,57,104,0
0,59,86,13
0,52,62,1
0,45,92,0
0,44,116,0
0,64,99,0
0,68,127,0
0,47,104,0
0,56,96,0
0,59,81,0
0,43,62,41
0,45,81,0
0,48,69,17
0,52,87,3
0,60,82,0
0,57,113,0
0,57,127,0
0,64,91,1
0,69,95,1
0,48,86,0
0,57,82,0
0,52,88,0
0,33,118,2
0,60,49,0
0,69,54,0
0,64,58,0
0,36,120,0
0,42,104,0
0,54,63,0
0,42,55,30
0,60,100,12
0,64,111,1
0,69,112,0
0,57,47,1
0,37,119,2
0,42,123,0
0,54,116,0
0,60,63,2
0,33,111,2
0,36,120,0
0,42,99,0
0,54,23,0
0,52,63,4
0,57,69,0
0,48,59,12
0,52,85,2
0,33,114,2
0,57,103,0
0,36,119,0
0,42,104,0
0,54,50,0
0,64,103,8
0,60,104,0
0,69,108,0
0,42,79,12
0,54,27,0
0,64,107,6
0,69,108,2
0,60,111,0
0,37,119,0
0,42,112,0
0,54,116,0
0,46,115,19
0,54,36,0
0,60,87,8
0,48,83,2
0,64,93,0
0,52,92,0
0,57,81,1
0,69,115,1
0,48,70,0
0,31,118,2
0,52,86,0
0,69,35,0
0,60,34,0
0,64,50,0
0,36,127,0
0,42,119,0
0,54,50,0
0,57,100,0
0,42,88,18
0,54,37,0
0,64,107,13
0,60,123,0
0,69,108,2
0,37,116,0
0,42,115,0
0,54,108,0
0,69,71,2
0,31,107,2
0,64,65,0
0,60,96,0
0,36,120,0
0,42,84,0
0,54,40,0
0,48,86,3
0,52,94,1
0,48,47,16
0,52,81,1
0,31,114,3
0,57,95,0
0,36,123,0
0,42,96,0
0,54,51,0
0,60,99,8
0,64,115,1
0,69,112,0
0,46,112,22
0,54,37,0
0,60,107,8
0,37,116,0
0,42,112,0
0,54,119,0
0,64,111,0
0,69,115,0
0,46,111,20
0,54,34,0
0,50,59,5
0,57,39,2
0,62,64,0
0,53,80,0
0,65,82,1
0,50,88,1
0,53,87,0
0,38,106,2
0,69,115,0
0,57,103,0
0,62,45,0
0,65,56,0
0,36,127,0
0,42,119,0
0,54,45,0
0,42,88,16
0,54,45,0
0,65,91,9
0,62,71,0
0,69,86,1
0,37,115,2
0,42,119,0
0,54,108,0
0,65,94,5
0,62,82,0
0,69,94,0
0,38,104,3
0,36,123,0
0,42,69,0
0,54,38,0
0,50,81,3
0,57,77,0
0,53,92,0
0,50,58,16
0,53,84,1
0,38,95,3
0,57,94,0
0,36,123,0
0,42,108,0
0,54,47,0
0,62,86,7
0,65,119,1
0,69,120,1
0,42,89,24
0,54,51,0
0,62,80,5
0,65,96,1
0,69,100,0
0,37,116,6
0,42,112,0
0,54,111,0
0,46,103,18
0,54,36,0
0,50,64,3
0,62,69,1
0,50,82,2
0,57,82,0
0,53,78,0
0,53,85,0
0,65,96,0
0,69,115,2
0,57,103,0
0,36,100,2
0,62,21,0
0,69,63,0
0,65,69,0
0,36,119,0
0,42,116,0
0,54,39,0
0,42,77,19
0,54,45,0
0,62,78,9
0,65,94,0
0,69,108,0
0,37,116,3
0,42,119,0
0,54,112,0
0,65,72,4
0,62,60,0
0,69,88,0
0,36,95,4
0,36,120,0
0,42,107,0
0,54,47,0
0,50,63,0
0,57,65,0
0,53,92,1
0,50,64,2
0,53,79,2
0,57,96,0
0,36,100,4
0,36,120,0
0,42,111,0
0,54,45,0
0,62,68,0
0,65,115,1
0,69,123,0
0,42,93,26
0,54,51,0
0,62,81,8
0,65,100,0
0,69,99,0
0,37,116,2
0,42,119,0
0,54,115,0
0,46,96,28
0,54,46,0
0,62,78,10
0,50,81,0
0,50,71,0
0,53,83,0
0,65,91,0
0,53,84,0
0,57,82,1
0,57,96,0
0,69,112,1
0,35,111,2
0,69,39,0
0,65,56,0
0,36,123,0
0,42,115,0
0,54,61,0
0,42,85,16
0,54,43,0
0,65,107,12
0,62,84,0
0,69,111,0
0,37,116,0
0,42,119,0
0,54,115,0
0,35,104,6
0,69,81,0
0,65,93,0
0,62,65,0
0,36,124,0
0,42,104,0
0,54,57,0
0,57,60,2
0,50,74,0
0,53,92,2
0,50,62,20
0,53,84,1
0,57,107,1
0,35,110,2
0,36,120,0
0,42,104,0
0,54,68,0
0,65,107,4
0,62,73,0
0,69,125,0
0,42,111,24
0,54,50,0
0,65,95,8
0,62,79,0
0,69,92,0
0,37,115,0
0,46,112,0
0,54,115,0
0,42,103,0
0,54,47,0
0,56,54,4
0,47,64,0
0,52,61,0
0,59,72,1
0,64,91,0
0,56,66,0
0,52,78,1
0,28,107,2
0,68,120,0
0,59,95,0
0,64,56,0
0,68,67,0
0,36,127,0
0,46,115,0
0,54,92,0
0,42,103,30
0,54,46,0
0,59,89,9
0,64,91,1
0,68,115,0
0,37,116,2
0,42,115,0
0,54,108,0
0,64,86,6
0,59,64,0
0,68,93,0
0,28,114,6
0,36,120,0
0,42,100,0
0,54,52,0
0,47,84,1
0,56,63,1
0,52,99,2
0,52,53,16
0,56,61,2
0,59,96,2
0,28,111,4
0,36,127,0
0,42,108,0
0,54,63,0
0,64,90,12
0,59,81,0
0,68,120,0
0,42,99,20
0,54,41,0
0,59,85,9
0,64,111,1
0,68,127,0
0,37,116,2
0,42,116,0
0,54,115,0
0,42,85,30
0,54,45,0
0,57,77,15
0,48,77,1
0,48,64,0
0,64,100,1
0,60,93,0
0,52,91,0
0,57,96,0
0,33,106,2
0,69,111,0
0,60,54,0
0,69,45,0
0,36,127,0
0,42,111,0
0,54,56,0
0,42,73,16
0,54,58,0
0,64,96,16
0,37,119,0
0,42,116,0
0,54,115,0
0,69,96,0
0,60,103,0
0,69,77,4
0,64,70,0
0,60,90,0
0,33,110,3
0,36,123,0
0,42,107,0
0,54,59,0
0,57,59,3
0,48,73,0
0,52,90,0
0,48,67,16
0,52,86,0
0,33,106,3
0,57,99,0
0,36,124,0
0,42,115,0
0,54,68,0
0,60,108,5
0,64,111,1
0,69,111,0
0,42,88,18
0,54,46,0
0,69,93,8
0,64,94,0
0,60,100,0
0,37,116,4
0,42,119,0
0,54,119,0
0,42,92,28
0,54,48,0
0,49,44,2
0,52,74,0
0,61,89,2
0,45,91,0
0,57,73,0
0,52,87,0
0,49,103,0
0,64,108,0
0,57,103,0
0,33,103,4
0,61,48,0
0,36,124,0
0,42,112,0
0,54,75,0
0,42,62,2
0,54,51,0
0,57,85,12
0,61,108,0
0,37,112,0
0,46,116,0
0,54,119,0
0,64,119,0
0,49,68,2
0,57,65,4
0,33,103,2
0,61,48,0
0,57,77,0
0,36,123,0
0,42,111,0
0,54,57,0
0,50,90,4
0,62,108,1
0,35,118,2
0,59,78,0
0,62,81,0
0,36,124,0
0,42,119,0
0,54,78,0
0,59,95,0
0,46,116,0
0,54,46,0
0,47,76,7
0,37,114,3
0,61,112,0
0,64,111,0
0,52,90,0
0,61,63,0
0,64,52,0
0,37,115,0
0,42,121,0
0,54,115,0
0,45,71,0
0,36,99,2
0,46,119,0
0,54,61,0
0,62,88,8
0,65,95,0
0,69,111,0
0,57,100,0
0,50,76,1
0,53,94,1
0,38,106,2
0,57,108,0
0,62,37,0
0,69,52,0
0,65,49,0
0,36,124,0
0,42,107,0
0,54,59,0
0,42,52,16
0,54,25,0
0,62,89,8
0,65,103,0
0,69,96,0
0,37,123,4
0,42,115,0
0,54,116,0
0,38,111,16
0,36,124,0
0,42,61,0
0,54,36,0
0,69,107,0
0,50,70,14
0,53,86,2
0,57,104,0
0,38,110,4
0,36,120,0
0,42,99,0
0,54,44,0
0,62,90,1
0,69,119,2
0,65,123,0
0,46,104,16
0,54,38,0
0,65,94,6
0,69,103,2
0,62,90,0
0,40,127,0
0,42,111,0
0,54,115,0
0,46,108,8
0,54,33,0
0,57,79,0
0,62,71,8
0,67,107,1
0,71,127,1
0,55,86,0
0,31,115,2
0,59,104,0
0,71,81,0
0,67,45,0
0,36,127,0
0,42,111,0
0,54,40,0
0,42,84,19
0,54,41,0
0,62,85,9
0,71,127,0
0,67,103,1
0,37,120,2
0,42,112,0
0,54,119,0
0,31,114,24
0,36,115,0
0,42,77,0
0,54,38,0
0,62,90,0
0,67,115,0
0,71,127,0
0,50,75,14
0,55,90,2
0,59,96,0
0,31,117,4
0,36,124,0
0,42,96,0
0,54,39,0
0,67,65,2
0,71,105,0
0,42,59,19
0,54,31,0
0,62,88,8
0,67,107,0
0,71,127,0
0,40,127,4
0,42,116,0
0,54,119,0
0,46,92,11
0,54,42,0
0,71,127,8
0,60,96,0
0,64,94,0
0,67,94,1
0,36,111,2
0,48,65,0
0,60,63,0
0,71,54,0
0,64,54,0
0,67,45,0
0,36,127,0
0,42,104,0
0,54,46,0
0,52,84,0
0,59,92,0
0,55,88,0
0,42,89,20
0,54,44,0
0,64,96,10
0,71,127,2
0,60,96,0
0,67,96,0
0,37,116,0
0,42,112,0
0,54,115,0
0,60,62,5
0,36,112,7
0,36,124,0
0,42,100,0
0,54,45,0
0,64,100,0
0,60,100,0
0,71,127,0
0,67,95,1
0,59,86,16
0,52,88,1
0,48,69,0
0,55,77,0
0,36,115,3
0,36,124,0
0,42,104,0
0,54,51,0
0,71,127,6
0,64,94,1
0,60,107,0
0,67,96,1
0,42,81,16
0,54,38,0
0,40,127,8
0,42,111,0
0,54,115,0
0,71,127,0
0,64,108,0
0,60,108,0
0,67,107,0
0,42,85,6
0,54,42,0
0,57,91,13
0,69,103,1
0,60,99,0
0,65,99,0
0,64,92,0
0,48,58,0
0,52,88,0
0,29,115,2
0,53,76,0
0,69,52,0
0,65,66,0
0,64,60,0
0,36,127,0
0,42,115,0
0,54,48,0
0,42,92,24
0,54,40,0
0,69,90,12
0,64,96,0
0,65,90,0
0,60,104,0
0,37,116,4
0,42,112,0
0,54,112,0
0,60,56,4
0,29,111,8
0,36,127,0
0,42,96,0
0,54,45,0
0,64,103,4
0,60,104,0
0,69,93,0
0,65,103,0
0,29,114,20
0,57,91,0
0,52,92,0
0,36,124,0
0,42,104,0
0,54,49,0
0,48,75,0
0,53,74,0
0,69,96,1
0,64,99,0
0,60,117,1
0,65,93,0
0,46,99,22
0,54,42,0
0,69,92,8
0,40,127,0
0,42,115,0
0,54,108,0
0,64,100,0
0,60,111,0
0,65,107,0
0,46,99,0
0,54,42,0
0,59,84,2
0,47,77,0
0,62,107,1
0,50,87,0
0,35,107,3
0,65,127,0
0,53,103,0
0,62,43,0
0,59,54,0
0,36,127,0
0,42,111,0
0,54,42,0
0,42,103,20
0,54,38,0
0,59,86,8
0,65,99,0
0,62,90,0
0,37,119,4
0,42,116,0
0,54,115,0
0,35,112,22
0,36,124,0
0,42,104,0
0,54,43,0
0,59,89,2
0,62,98,0
0,65,112,0
0,35,114,20
0,50,92,0
0,47,82,0
0,53,103,0
0,36,127,0
0,42,112,0
0,54,43,0
0,59,82,7
0,62,103,1
0,65,108,0
0,42,89,20
0,54,44,0
0,62,92,8
0,59,93,0
0,65,108,0
0,40,127,4
0,42,119,0
0,54,111,0
0,46,103,12
0,54,46,0
0,47,64,4
0,50,87,2
0,62,67,2
0,52,104,0
0,64,95,0
0,59,70,0
0,68,123,2
0,40,106,2
0,64,57,0
0,62,53,0
0,36,124,0
0,42,116,0
0,54,61,0
0,42,78,15
0,54,40,0
0,59,86,10
0,62,90,0
0,64,100,0
0,68,115,0
0,37,116,4
0,42,116,0
0,54,112,0
0,68,77,4
0,64,67,0
0,59,65,4
0,40,110,4
0,36,124,0
0,42,104,0
0,54,47,0
0,59,58,3
0,62,74,1
0,64,103,1
0,68,111,2
0,47,57,7
0,50,71,0
0,52,88,1
0,28,103,3
0,56,85,0
0,64,54,0
0,68,68,0
0,36,120,0
0,42,115,0
0,54,57,0
0,62,82,7
0,59,88,0
0,68,103,0
0,64,89,0
0,42,92,15
0,54,44,0
0,59,81,8
0,62,89,0
0,40,127,0
0,42,119,0
0,54,112,0
0,68,103,0
0,64,84,0
0,28,110,0
0,46,104,0
0,54,47,0
0,60,96,8
