track,note,velocity,time
1,67,96,0
1,64,96,0
1,48,110,0
1,60,96,0
1,60,0,372
1,67,0,0
1,64,0,0
1,48,0,0
1,65,96,12
1,53,110,0
1,60,96,0
1,67,96,0
1,65,92,264
1,65,0,22
1,67,100,2
1,65,106,48
1,67,0,3
1,67,100,21
1,65,0,1
1,67,0,16
1,67,0,4
1,60,0,0
1,65,0,0
1,53,0,3
1,48,110,0
1,67,96,0
1,64,96,0
1,60,96,0
1,64,0,376
1,48,0,0
1,67,0,1
1,60,0,0
1,65,96,7
1,53,110,0
1,60,96,0
1,67,96,0
1,65,96,264
1,65,0,23
1,67,96,1
1,65,96,48
1,67,0,4
1,67,96,20
1,65,0,1
1,65,0,9
1,60,0,0
1,67,0,0
1,67,0,10
1,53,0,4
1,67,96,0
1,60,96,0
1,48,110,0
1,64,96,0
1,64,0,372
1,67,0,0
1,60,0,0
1,48,0,0
1,60,96,12
1,65,96,0
1,67,96,0
1,53,110,0
1,65,92,264
1,65,0,22
1,67,100,2
1,65,106,48
1,67,0,3
1,67,100,21
1,65,0,1
1,67,0,16
1,67,0,4
1,60,0,0
1,65,0,0
1,53,0,3
1,60,96,0
1,67,96,0
1,48,110,0
1,64,96,0
1,64,0,376
1,48,0,0
1,67,0,1
1,60,0,0
1,65,96,7
1,67,96,0
1,60,96,0
1,53,110,0
1,77,80,264
1,65,96,0
1,65,0,23
1,79,80,1
1,67,96,0
1,77,0,1
1,65,96,47
1,77,80,0
1,79,0,2
1,67,0,2
1,79,76,20
1,67,96,0
1,77,0,1
1,65,0,0
1,67,0,9
1,60,0,0
1,65,0,0
1,67,0,10
1,79,0,2
1,53,0,2
1,72,68,0
1,60,96,0
1,48,110,0
1,64,96,0
1,67,96,0
1,72,0,346
1,64,0,26
1,60,0,0
1,48,0,0
1,67,0,0
1,65,90,12
1,67,90,0
1,60,96,0
1,53,110,0
1,60,0,381
1,53,0,3
1,60,96,0
1,48,110,0
1,67,96,0
1,64,96,0
1,67,0,3
1,65,0,0
1,48,0,373
1,64,0,0
1,67,0,1
1,60,0,0
1,67,96,7
1,65,96,0
1,60,96,0
1,53,110,0
1,65,96,264
1,65,0,23
1,67,96,1
1,65,96,48
1,67,0,4
1,67,96,20
1,65,0,1
1,65,0,9
1,60,0,0
1,67,0,0
1,67,0,10
1,53,0,4
1,60,96,0
1,67,96,0
1,64,96,0
1,48,110,0
1,48,0,372
1,60,0,0
1,67,0,0
1,64,0,0
1,65,96,12
1,60,96,0
1,67,96,0
1,53,110,0
1,67,0,381
1,65,0,0
1,60,0,0
1,53,0,3
1,67,96,0
1,64,96,0
1,60,96,0
1,48,110,0
1,48,0,376
1,64,0,0
1,60,0,1
1,67,0,0
1,53,110,7
1,65,96,0
1,60,96,0
1,67,96,0
1,67,0,370
1,60,0,0
1,65,0,0
1,53,0,14
1,71,86,0
1,72,100,0
1,69,106,0
1,64,106,0
1,57,110,0
1,71,0,2
1,64,92,70
1,69,86,24
1,69,0,18
1,64,0,4
1,69,90,2
1,72,96,0
1,64,54,0
1,72,0,52
1,69,0,1
1,64,0,0
1,69,100,19
1,64,92,0
1,72,96,0
1,64,0,51
1,69,0,3
1,72,0,3
1,64,96,15
1,69,70,24
1,69,0,14
1,64,0,6
1,69,96,4
1,72,100,0
1,64,78,0
1,72,0,43
1,69,0,2
1,64,0,1
1,69,0,5
1,57,0,1
1,72,0,0
1,64,0,1
1,67,90,19
1,71,86,0
1,62,92,0
1,55,90,0
1,62,84,72
1,67,76,24
1,67,0,17
1,71,84,7
1,67,80,0
1,71,0,48
1,67,0,2
1,62,0,3
1,71,90,19
1,62,92,0
1,67,92,0
1,62,0,53
1,67,0,2
1,71,0,3
1,62,92,14
1,67,76,24
1,67,0,15
1,62,0,3
1,62,76,6
1,71,100,0
1,67,96,0
1,67,0,40
1,71,0,0
1,55,0,3
1,62,0,0
1,71,0,6
1,62,0,2
1,67,0,2
1,72,106,19
1,57,106,0
1,64,100,0
1,69,106,0
1,64,86,72
1,69,84,24
1,69,0,13
1,72,90,11
1,69,78,0
1,64,0,48
1,72,0,3
1,69,0,1
1,72,90,20
1,69,92,0
1,64,86,0
1,64,0,49
1,69,0,4
1,72,0,2
1,64,96,17
1,69,76,24
1,69,0,12
1,64,0,3
1,69,92,9
1,64,78,0
1,72,100,0
1,72,0,41
1,69,0,2
1,64,0,2
1,69,0,1
1,72,0,2
1,57,0,1
1,64,0,1
1,62,100,22
1,71,96,0
1,55,106,0
1,67,100,0
1,62,92,72
1,67,76,24
1,67,0,17
1,71,90,7
1,67,76,0
1,71,0,48
1,62,0,4
1,67,0,0
1,62,92,20
1,67,92,0
1,71,90,0
1,62,0,55
1,67,0,2
1,71,0,2
1,62,92,13
1,67,84,24
1,67,0,14
1,67,84,10
1,71,92,0
1,67,0,41
1,55,0,1
1,62,0,0
1,71,0,0
1,71,0,4
1,67,0,3
1,62,0,0
1,77,90,23
1,50,94,0
1,69,96,0
1,72,100,0
1,62,96,0
1,69,78,144
1,74,72,24
1,77,86,24
1,74,0,2
1,69,0,7
1,74,74,63
1,77,0,3
1,69,92,45
1,74,0,1
1,69,0,43
1,50,0,20
1,72,0,0
1,77,0,1
1,69,0,0
1,62,0,1
1,76,94,6
1,60,94,0
1,71,94,0
1,59,94,0
1,48,98,0
1,67,94,0
1,59,0,2
1,64,74,142
1,67,66,24
1,64,0,24
1,69,84,0
1,67,0,3
1,67,86,69
1,69,0,6
1,67,0,41
1,64,90,1
1,64,0,56
1,60,0,4
1,71,0,2
1,67,0,0
1,76,0,1
1,48,0,8
1,62,96,1
1,77,90,0
1,69,96,0
1,72,100,0
1,50,94,0
1,50,0,376
1,72,0,0
1,69,0,1
1,77,0,0
1,62,0,1
1,70,84,6
1,63,76,0
1,51,64,0
1,67,76,0
1,75,72,0
1,69,80,72
1,77,70,0
1,74,78,0
1,50,62,0
1,62,60,0
1,75,0,2
1,67,0,1
1,70,0,0
1,63,0,2
1,51,0,1
1,74,0,59
1,69,0,0
1,77,0,1
1,62,0,1
1,50,0,0
1,53,90,29
1,67,86,0
1,60,90,0
1,65,96,0
1,65,0,400
1,53,0,0
1,67,0,0
1,60,0,0
1,67,90,8
1,48,106,0
1,60,92,0
1,64,100,0
1,64,0,373
1,67,0,1
1,48,0,0
1,60,0,0
1,67,92,10
1,60,90,0
1,65,100,0
1,53,100,0
1,65,92,264
1,67,92,24
1,65,0,4
1,67,0,44
1,65,84,0
1,67,84,24
1,65,0,4
1,67,0,13
1,65,0,1
1,67,0,1
1,60,0,0
1,53,0,0
1,48,110,5
1,60,86,0
1,64,92,0
1,67,86,0
1,67,0,375
1,64,0,0
1,60,0,0
1,48,0,1
1,65,96,8
1,67,90,0
1,53,96,0
1,60,90,0
1,65,92,264
1,67,86,24
1,65,0,2
1,65,96,46
1,67,0,1
1,67,80,23
1,65,0,2
1,65,0,1
1,60,0,1
1,67,0,0
1,53,0,2
1,60,86,18
1,64,92,0
1,48,106,0
1,67,80,0
1,67,0,9
1,67,0,364
1,64,0,0
1,60,0,0
1,48,0,3
1,53,100,8
1,67,86,0
1,65,90,0
1,60,84,0
1,60,0,379
1,65,0,0
1,67,0,0
1,53,0,3
1,64,92,2
1,48,110,0
1,67,78,0
1,60,86,0
1,67,0,371
1,60,0,1
1,64,0,1
1,48,0,2
1,67,84,9
1,65,92,0
1,60,84,0
1,53,96,0
1,65,96,264
1,67,86,24
1,65,0,4
1,65,96,44
1,67,0,4
1,67,90,20
1,65,0,4
1,67,0,14
1,53,0,1
1,67,0,1
1,65,0,0
1,60,0,0
1,67,84,4
1,60,90,0
1,48,100,0
1,64,96,0
1,65,96,384
1,53,100,0
1,67,86,0
1,60,92,0
1,60,0,1
1,67,0,0
1,48,0,0
1,64,0,0
1,65,0,379
1,60,0,0
1,67,0,1
1,53,0,1
1,60,80,2
1,48,100,0
1,64,90,0
1,67,84,0
1,67,0,380
1,60,0,0
1,64,0,1
1,48,0,0
1,67,90,3
1,53,96,0
1,65,96,0
1,60,86,0
1,60,0,369
1,65,0,0
1,67,0,0
1,53,0,2
1,69,92,13
1,64,90,0
1,57,110,0
1,72,90,0
1,64,62,72
1,69,68,24
1,72,86,24
1,72,0,52
1,64,0,4
1,69,0,1
1,72,74,15
1,64,66,0
1,69,78,0
1,64,0,56
1,69,0,5
1,72,0,1
1,64,86,10
1,69,68,24
1,72,90,24
1,72,0,35
1,72,0,1
1,69,0,0
1,57,0,0
1,69,0,0
1,64,0,1
1,64,0,1
1,55,84,34
1,71,90,0
1,62,90,0
1,67,92,0
1,62,78,72
1,67,68,24
1,71,84,24
1,71,0,49
1,62,0,3
1,67,0,0
1,71,74,20
1,67,80,0
1,62,64,0
1,62,0,48
1,67,0,8
1,71,0,1
1,62,72,15
1,67,60,24
1,67,0,16
1,62,0,5
1,67,84,3
1,71,86,0
1,62,62,0
1,62,0,39
1,71,0,0
1,67,0,1
1,55,0,1
1,71,0,9
1,62,0,1
1,67,0,1
1,64,86,20
1,57,92,0
1,69,96,0
1,72,92,0
1,64,64,72
1,69,68,24
1,69,0,19
1,69,72,5
1,72,86,0
1,72,0,53
1,69,0,2
1,64,0,1
1,64,70,16
1,72,70,0
1,69,76,0
1,64,0,55
1,69,0,5
1,72,0,2
1,64,74,10
1,69,74,24
1,69,0,16
1,69,76,8
1,72,90,0
1,72,0,38
1,69,0,0
1,57,0,1
1,64,0,1
1,72,0,19
1,64,0,1
1,69,0,2
1,62,96,10
1,69,66,0
1,67,92,0
1,65,84,0
1,55,92,0
1,71,92,0
1,69,0,1
1,65,0,1
1,62,60,70
1,67,68,24
1,71,84,24
1,71,0,50
1,62,0,0
1,67,0,2
1,71,70,20
1,67,74,0
1,62,68,0
1,62,84,72
1,62,74,0
1,67,86,24
1,67,60,0
1,67,0,13
1,62,0,0
1,71,0,0
1,67,0,3
1,55,0,1
1,62,0,0
1,71,0,0
1,67,0,0
1,67,0,1
1,67,64,6
1,67,80,0
1,71,70,0
1,71,92,0
1,62,0,15
1,71,0,2
1,67,0,2
1,62,0,24
1,71,0,1
1,67,0,3
1,69,76,25
1,62,86,0
1,50,68,0
1,69,90,0
1,77,86,0
1,50,80,0
1,77,70,0
1,72,78,0
1,72,96,0
1,69,0,53
1,77,0,15
1,69,84,4
1,72,0,2
1,72,58,22
1,69,0,14
1,72,0,2
1,72,96,8
1,77,92,0
1,69,90,0
1,69,0,54
1,77,0,0
1,72,0,1
1,72,100,17
1,69,84,0
1,77,86,0
1,62,0,58
1,50,0,1
1,62,74,13
1,62,78,0
1,62,0,16
1,77,0,0
1,72,0,3
1,69,0,1
1,69,64,4
1,72,76,0
1,72,0,11
1,77,90,13
1,72,84,0
1,50,0,49
1,72,0,1
1,69,0,0
1,77,0,0
1,62,0,2
1,77,0,0
1,69,0,1
1,72,0,0
1,76,74,19
1,71,96,0
1,67,90,0
1,71,86,0
1,48,76,0
1,48,92,0
1,60,70,0
1,67,76,0
1,59,62,0
1,76,86,0
1,59,0,2
1,67,0,54
1,71,0,6
1,76,0,2
1,67,74,8
1,71,68,24
1,71,0,15
1,67,0,3
1,67,76,6
1,71,96,0
1,76,96,0
1,76,0,52
1,71,0,0
1,67,0,0
1,67,86,20
1,76,90,0
1,71,92,0
1,48,0,54
1,60,0,1
1,60,90,17
1,71,0,3
1,76,0,1
1,67,0,0
1,67,90,20
1,71,60,0
1,71,0,3
1,71,100,21
1,76,106,0
1,71,0,43
1,48,0,0
1,76,0,1
1,67,0,0
1,67,0,2
1,76,0,1
1,60,0,1
1,71,0,0
1,72,100,24
1,60,78,0
1,69,86,0
1,50,80,0
1,69,86,0
1,77,84,0
1,77,84,0
1,76,74,0
1,50,92,0
1,62,84,0
1,74,92,0
1,76,0,2
1,60,0,0
1,69,0,58
1,74,0,6
1,77,0,2
1,69,78,4
1,74,76,24
1,74,0,21
1,74,86,3
1,77,96,0
1,77,0,56
1,74,0,0
1,69,0,3
1,77,90,13
1,74,92,0
1,69,86,0
1,69,0,162
1,77,0,0
1,72,0,1
1,50,0,1
1,74,0,18
1,62,0,0
1,69,0,0
1,50,0,1
1,77,0,0
1,51,70,9
1,67,80,0
1,70,92,0
1,75,86,0
1,63,78,0
1,75,0,66
1,70,0,0
1,67,0,0
1,63,0,1
1,51,0,4
1,62,62,1
1,77,66,0
1,50,62,0
1,74,70,0
1,69,70,0
1,74,0,68
1,50,0,0
1,62,0,0
1,77,0,0
1,69,0,1
1,67,100,27
1,60,90,0
1,53,100,0
1,65,100,0
1,65,0,389
1,67,0,1
1,53,0,18
1,60,0,0
1,64,96,0
1,60,96,0
1,48,110,0
1,67,96,0
1,67,0,372
1,64,0,0
1,60,0,0
1,48,0,0
1,60,96,12
1,67,96,0
1,53,110,0
1,65,96,0
1,65,92,264
1,65,0,22
1,67,100,2
1,65,106,48
1,67,0,3
1,67,100,21
1,65,0,1
1,67,0,16
1,65,0,4
1,60,0,0
1,67,0,0
1,53,0,3
1,67,96,0
1,48,110,0
1,64,96,0
1,60,96,0
1,64,0,376
1,48,0,0
1,67,0,1
1,60,0,0
1,53,110,7
1,67,96,0
1,65,96,0
1,60,96,0
1,65,96,264
1,65,0,23
1,67,96,1
1,65,96,48
1,67,0,4
1,67,96,20
1,65,0,1
1,65,0,9
1,60,0,0
1,67,0,0
1,67,0,10
1,53,0,4
1,67,96,0
1,64,96,0
1,48,110,0
1,60,96,0
1,60,0,372
1,67,0,0
1,64,0,0
1,48,0,0
1,67,96,12
1,60,96,0
1,65,96,0
1,53,110,0
1,65,92,264
1,65,0,22
1,67,100,2
1,65,106,48
1,67,0,3
1,67,100,21
1,65,0,1
1,67,0,16
1,65,0,4
1,67,0,0
1,60,0,0
1,53,0,3
1,67,96,0
1,60,96,0
1,64,96,0
1,48,110,0
1,48,0,376
1,64,0,0
1,60,0,1
1,67,0,0
1,67,96,7
1,65,96,0
1,60,96,0
1,53,110,0
1,60,0,370
1,67,0,0
1,65,0,0
1,53,0,14
1,69,106,0
1,72,100,0
1,64,106,0
1,57,110,0
1,71,86,0
1,71,0,2
1,64,92,70
1,69,86,24
1,69,0,18
1,64,0,4
1,72,96,2
1,64,54,0
1,69,90,0
1,72,0,52
1,64,0,1
1,69,0,0
1,64,92,19
1,72,96,0
1,69,100,0
1,64,0,51
1,69,0,3
1,72,0,3
1,64,96,15
1,69,70,24
1,69,0,14
1,64,0,6
1,64,78,4
1,69,96,0
1,72,100,0
1,72,0,43
1,69,0,2
1,64,0,1
1,69,0,5
1,72,0,1
1,57,0,0
1,64,0,1
1,67,90,19
1,62,92,0
1,55,90,0
1,71,86,0
1,62,84,72
1,67,76,24
1,67,0,17
1,67,80,7
1,71,84,0
1,71,0,48
1,67,0,2
1,62,0,3
1,67,92,19
1,62,92,0
1,71,90,0
1,62,0,53
1,67,0,2
1,71,0,3
1,62,92,14
1,67,76,24
1,67,0,15
1,62,0,3
1,67,96,6
1,71,100,0
1,62,76,0
1,71,0,40
1,67,0,0
1,55,0,3
1,62,0,0
1,71,0,6
1,62,0,2
1,67,0,2
1,57,106,19
1,69,106,0
1,72,106,0
1,64,100,0
1,64,86,72
1,69,84,24
1,69,0,13
1,69,78,11
1,72,90,0
1,64,0,48
1,72,0,3
1,69,0,1
1,69,92,20
1,72,90,0
1,64,86,0
1,64,0,49
1,69,0,4
1,72,0,2
1,64,96,17
1,69,76,24
1,69,0,12
1,64,0,3
1,72,100,9
1,69,92,0
1,64,78,0
1,72,0,41
1,69,0,2
1,64,0,2
1,69,0,1
1,72,0,2
1,57,0,1
1,64,0,1
1,71,96,22
1,62,100,0
1,67,100,0
1,55,106,0
1,62,92,72
1,67,76,24
1,67,0,17
1,71,90,7
1,67,76,0
1,71,0,48
1,62,0,4
1,67,0,0
1,62,92,20
1,67,92,0
1,71,90,0
1,62,0,55
1,67,0,2
1,71,0,2
1,62,92,13
1,67,84,24
1,67,0,14
1,71,92,10
