track,note,velocity,time
0,43,101,1623
0,45,99,188
0,86,99,188
0,55,108,0
0,58,104,0
0,62,107,0
0,55,104,0
0,58,108,0
0,62,106,0
0,55,92,0
0,58,102,0
0,62,98,0
0,27,98,0
0,35,123,0
0,55,105,0
0,82,105,16
0,62,107,0
0,46,101,0
0,27,92,52
0,35,110,0
0,42,109,0
0,37,94,160
0,44,95,188
0,56,102,12
0,60,101,0
0,63,99,0
0,87,109,16
0,56,94,0
0,60,94,0
0,63,94,0
0,56,102,0
0,60,103,0
0,63,107,0
0,32,97,0
0,35,119,0
0,42,107,0
0,53,80,0
0,35,108,8
0,44,99,0
0,53,92,0
0,35,112,40
0,42,91,0
0,39,93,0
0,37,108,0
0,81,49,8
0,32,92,0
0,42,108,0
0,44,104,40
0,81,55,12
0,82,106,0
0,34,104,0
0,44,109,0
0,86,99,0
0,67,90,0
0,55,96,0
0,58,108,0
0,62,103,0
0,55,107,0
0,58,94,0
0,62,97,0
0,27,94,0
0,35,115,0
0,82,95,8
0,62,109,0
0,42,94,0
0,81,53,52
0,27,91,0
0,35,113,0
0,44,94,0
0,37,109,44
0,44,103,188
0,70,112,12
0,56,109,0
0,60,97,0
0,63,103,0
0,87,97,16
0,53,90,0
0,63,91,0
0,67,103,0
0,56,106,0
0,60,98,0
0,63,107,0
0,32,94,0
0,35,116,0
0,44,100,0
0,35,106,0
0,44,90,8
0,68,115,0
0,67,117,16
0,35,119,0
0,42,92,0
0,89,89,12
0,65,114,0
0,89,101,0
0,39,90,0
0,37,93,0
0,65,119,64
0,32,100,0
0,46,107,0
0,65,112,8
0,82,94,0
0,34,92,0
0,44,106,0
0,67,114,16
0,86,105,0
0,58,110,0
0,55,107,0
0,58,106,0
0,62,98,0
0,55,103,0
0,58,90,0
0,62,101,0
0,55,101,0
0,58,91,0
0,62,90,0
0,27,98,0
0,35,115,0
0,82,96,48
0,62,104,0
0,74,94,0
0,46,105,0
0,84,106,108
0,27,106,0
0,35,108,0
0,42,90,0
0,37,91,84
0,44,100,44
0,56,98,12
0,60,108,0
0,63,101,0
0,87,91,16
0,53,104,0
0,58,106,0
0,67,106,0
0,56,101,0
0,60,107,0
0,63,105,0
0,32,103,0
0,35,124,0
0,42,109,0
0,53,78,0
0,35,105,152
0,89,86,188
0,89,96,0
0,44,91,0
0,53,78,0
0,82,90,112
0,82,95,0
0,35,117,0
0,42,100,0
0,89,101,112
0,89,100,0
0,39,92,0
0,37,102,0
0,89,86,112
0,89,97,0
0,81,62,0
0,32,99,0
0,42,109,0
0,44,106,16
0,81,59,12
0,82,97,0
0,34,90,0
0,44,94,0
0,86,98,0
0,70,96,0
0,74,101,0
0,55,99,0
0,58,100,0
0,62,93,0
0,55,99,0
0,58,100,0
0,62,102,0
0,27,98,0
0,35,124,0
0,82,92,8
0,62,107,0
0,42,97,0
0,67,92,16
0,70,101,0
0,81,44,0
0,27,90,0
0,35,107,0
0,44,99,0
0,37,91,112
0,44,95,188
0,56,104,12
0,60,108,0
0,63,94,0
0,87,108,16
0,63,108,0
0,67,97,0
0,56,108,0
0,60,92,0
0,63,98,0
0,32,93,0
0,35,109,0
0,44,99,0
0,35,116,152
0,74,100,188
0,44,108,0
0,75,106,188
0,35,108,0
0,42,91,0
0,70,115,12
0,39,105,0
0,37,105,0
0,32,97,16
0,46,106,0
0,82,103,12
0,34,107,0
0,44,95,0
0,27,100,0
0,35,123,0
0,55,99,0
0,62,91,12
0,42,100,0
0,72,107,92
0,58,86,96
0,62,102,0
0,58,96,0
0,62,99,0
0,43,93,0
0,35,111,0
0,42,106,0
0,72,106,16
0,37,108,4
0,72,115,12
0,42,90,0
0,70,110,16
0,58,99,16
0,62,100,0
0,58,107,0
0,62,90,0
0,27,98,0
0,35,112,0
0,42,96,0
0,53,88,0
0,60,101,12
0,63,86,0
0,60,109,0
0,63,105,0
0,34,94,0
0,35,124,0
0,42,95,16
0,53,87,0
0,35,120,108
0,42,106,0
0,60,89,188
0,63,99,0
0,60,101,0
0,63,91,0
0,39,108,0
0,39,101,0
0,37,109,0
0,81,62,12
0,42,102,0
0,81,61,188
0,82,101,0
0,34,106,0
0,42,92,0
0,62,90,12
0,65,95,0
0,62,108,0
0,65,96,0
0,27,95,0
0,35,112,0
0,62,92,16
0,42,101,0
0,81,62,108
0,35,109,0
0,42,96,0
0,62,92,188
0,65,88,0
0,62,98,0
0,65,98,0
0,39,90,0
0,37,99,0
0,42,91,32
0,39,99,0
0,60,90,8
0,63,90,0
0,60,98,0
0,63,106,0
0,27,109,0
0,35,108,0
0,42,95,0
0,34,91,12
0,35,105,0
0,70,98,20
0,42,91,0
0,35,119,68
0,42,104,0
0,67,117,188
0,39,104,0
0,39,93,0
0,37,90,0
0,67,119,12
0,38,103,0
0,35,120,0
0,42,104,0
0,70,103,12
0,82,105,0
0,34,92,0
0,35,112,0
0,46,99,0
0,65,103,12
0,82,96,0
0,74,122,0
0,58,100,0
0,62,99,0
0,67,109,0
0,65,112,0
0,31,98,0
0,35,112,0
0,55,91,0
0,62,103,12
0,42,105,0
0,82,90,4
0,35,118,0
0,42,102,0
0,77,96,0
0,79,99,16
0,37,98,0
0,42,92,12
0,31,105,16
0,35,115,0
0,42,98,0
0,53,88,0
0,38,96,12
0,35,115,0
0,42,98,0
0,53,79,0
0,35,116,12
0,42,94,0
0,39,91,100
0,37,93,0
0,65,104,124
0,82,92,0
0,70,122,0
0,81,43,0
0,42,109,0
0,65,107,16
0,82,92,0
0,70,113,0
0,81,61,0
0,82,95,0
0,31,107,0
0,42,102,0
0,65,90,12
0,82,92,0
0,70,116,0
0,56,93,0
0,60,99,0
0,63,109,0
0,65,97,0
0,63,113,0
0,29,103,0
0,35,116,0
0,63,105,16
0,80,93,0
0,68,118,0
0,62,103,0
0,42,98,0
0,81,53,12
0,35,122,0
0,42,92,0
0,55,103,0
0,74,90,16
0,79,104,0
0,74,87,0
0,79,87,0
0,74,109,0
0,79,95,0
0,37,103,0
0,77,93,16
0,77,100,0
0,77,93,0
0,42,91,0
0,29,108,20
0,35,115,0
0,42,106,0
0,55,102,0
0,62,103,8
0,67,91,0
0,36,94,0
0,35,120,0
0,65,97,48
0,42,92,0
0,42,100,52
0,35,116,60
0,42,100,0
0,55,105,0
0,62,98,12
0,67,95,0
0,39,92,0
0,35,99,0
0,37,104,0
0,65,99,4
0,42,93,0
0,82,101,144
0,42,104,0
0,55,93,0
0,74,102,12
0,79,97,0
0,74,87,0
0,79,93,0
0,74,96,0
0,79,109,0
0,34,107,0
0,35,107,0
0,77,90,16
0,77,101,0
0,77,107,0
0,62,91,0
0,42,99,0
0,35,113,112
0,42,92,0
0,74,105,12
0,79,106,0
0,74,90,0
0,79,91,0
0,74,100,0
0,79,106,0
0,37,109,0
0,77,98,16
0,77,93,0
0,77,106,0
0,42,90,0
0,34,101,112
0,35,114,0
0,42,92,0
0,53,91,0
0,62,90,12
0,67,100,0
0,34,108,0
0,35,114,0
0,65,98,48
0,42,103,0
0,53,79,0
0,35,123,12
0,42,95,0
0,39,93,16
0,43,107,0
0,37,100,0
0,81,47,12
0,41,99,0
0,42,94,0
0,81,45,12
0,82,100,0
0,38,90,0
0,42,98,0
0,56,109,8
0,60,109,0
0,63,90,0
0,63,89,0
0,63,113,0
0,29,109,0
0,35,118,0
0,62,103,28
0,42,101,0
0,81,58,40
0,35,105,0
0,42,92,0
0,37,106,8
0,70,110,56
0,42,93,0
0,70,111,24
0,29,105,0
0,35,105,0
0,42,100,0
0,70,110,12
0,29,106,0
0,35,115,0
0,70,103,92
0,70,91,0
0,42,92,0
0,70,122,12
0,35,112,0
0,42,104,0
0,70,122,16
0,60,90,0
0,72,94,0
0,60,110,0
0,39,97,0
0,29,98,0
0,37,104,0
0,68,120,16
0,63,101,12
0,75,97,0
0,63,102,0
0,36,104,0
0,35,115,0
0,42,102,0
0,65,89,12
0,77,100,0
0,65,102,0
0,82,93,0
0,39,95,0
0,35,109,0
0,46,102,0
0,58,93,12
0,62,99,0
0,67,109,0
0,79,101,0
0,67,102,0
0,34,101,0
0,35,116,0
0,82,84,16
0,70,116,0
0,62,97,0
0,42,100,0
0,79,96,12
0,67,111,0
0,35,108,0
0,42,107,0
0,37,100,188
0,70,110,188
0,42,93,0
0,70,119,16
0,34,97,0
0,35,117,0
0,42,90,0
0,53,75,0
0,75,120,8
0,66,103,0
0,78,90,0
0,66,118,0
0,34,90,0
0,35,113,0
0,70,100,16
0,42,98,0
0,53,80,0
0,75,117,12
0,35,120,0
0,42,100,0
0,72,109,16
0,39,101,0
0,38,93,0
0,37,91,0
0,70,120,16
0,81,56,0
0,42,103,0
0,81,52,16
0,82,108,0
0,42,109,0
0,58,91,0
0,62,103,0
0,65,98,0
0,77,102,0
0,39,96,0
0,35,117,0
0,62,97,32
0,42,105,0
0,81,45,56
0,35,121,0
0,42,106,0
0,37,100,16
0,42,108,188
0,27,97,188
0,35,106,0
0,42,100,0
0,74,85,12
0,27,98,0
0,35,111,0
0,77,88,16
0,70,95,0
0,42,90,0
0,70,103,16
0,75,102,0
0,27,97,0
0,35,115,0
0,42,108,0
0,75,116,16
0,74,89,0
0,39,91,0
0,39,104,0
0,37,104,0
0,70,109,12
0,70,103,0
0,34,101,0
0,42,91,0
0,68,119,12
0,68,85,0
0,82,93,0
0,32,97,0
0,42,103,0
0,67,120,12
0,55,100,0
0,59,96,0
0,67,107,0
0,67,100,0
0,67,100,0
0,31,101,0
0,35,109,0
0,70,113,16
0,62,101,0
0,42,94,0
0,35,110,4
0,42,92,0
0,37,94,0
0,33,102,12
0,42,105,0
0,67,113,0
0,72,109,0
0,70,108,12
0,34,109,0
0,35,107,0
0,42,99,0
0,53,82,0
0,75,97,32
0,71,110,16
0,77,103,12
0,75,105,0
0,78,102,0
0,35,93,0
0,35,120,0
0,79,102,16
0,77,118,40
0,74,95,0
0,79,99,0
0,70,91,0
0,42,94,0
0,53,88,0
0,77,106,80
0,74,101,0
0,79,93,0
0,35,109,0
0,35,115,0
0,42,108,0
0,79,105,12
0,77,104,16
0,67,109,0
0,71,101,0
0,78,97,0
0,39,91,0
0,40,93,0
0,77,109,60
0,79,103,16
0,75,100,0
0,81,49,0
0,34,100,0
0,42,98,0
0,81,53,12
0,82,103,0
0,35,101,0
0,42,100,0
0,75,106,12
0,72,105,16
0,67,94,12
0,72,96,0
0,63,84,0
0,67,103,0
0,72,99,0
0,72,106,0
0,55,96,0
0,60,95,0
0,63,102,0
0,75,109,0
0,36,96,0
0,35,121,0
0,55,106,0
0,77,102,32
0,75,93,12
0,62,104,0
0,42,108,0
0,81,43,8
0,36,108,0
0,35,116,0
0,42,99,0
0,27,101,40
0,37,98,0
0,72,120,64
0,42,107,48
0,72,113,12
0,27,109,0
0,35,106,0
0,42,93,0
0,77,120,12
0,24,95,0
0,35,117,0
0,75,108,16
0,42,106,0
0,77,104,12
0,24,103,40
0,35,119,0
0,42,98,0
0,75,107,4
0,39,103,16
0,37,93,0
0,29,93,56
0,35,111,0
0,42,105,0
0,82,94,4
0,30,92,0
0,35,120,0
0,46,96,0
0,70,86,0
0,58,105,0
0,62,101,0
0,65,93,0
0,31,91,0
0,35,106,0
0,74,110,188
0,62,107,0
0,42,98,0
0,74,112,108
0,31,106,0
0,35,122,0
0,42,108,0
0,74,103,16
0,37,102,0
0,70,114,16
0,42,109,0
0,72,115,16
0,34,100,0
0,35,118,0
0,42,97,0
0,53,88,0
0,70,119,12
0,38,99,0
0,35,116,0
0,42,98,16
0,53,83,0
0,38,103,108
0,35,117,0
0,42,102,0
0,39,97,108
0,37,92,0
0,81,58,188
0,36,101,0
0,42,98,0
0,67,99,12
0,70,95,0
0,81,61,0
0,82,96,0
0,30,105,0
0,42,95,0
0,68,91,0
0,56,96,0
0,60,93,0
0,63,101,0
0,65,105,0
0,68,109,0
0,29,93,0
0,35,108,0
0,62,104,188
0,70,107,0
0,42,108,0
0,70,104,16
0,81,56,0
0,29,93,0
0,35,114,0
0,42,104,0
0,70,109,16
0,37,92,0
0,68,105,16
0,42,95,0
0,29,94,16
0,35,117,0
0,42,106,0
0,72,98,0
0,58,99,0
0,62,106,0
0,67,98,0
0,58,93,0
0,62,96,0
0,67,99,0
0,34,95,0
0,35,120,0
0,70,108,188
0,42,104,0
0,70,106,16
0,34,104,12
0,35,108,0
0,42,95,0
0,70,116,0
0,39,97,108
0,37,99,0
0,75,120,8
0,70,104,4
0,42,102,0
0,63,107,16
0,82,105,0
0,34,98,0
0,42,98,0
0,67,87,0
0,51,92,0
0,55,98,0
0,58,98,0
0,62,91,0
0,62,106,0
0,67,102,0
0,70,97,0
0,27,101,0
0,35,123,0
0,67,105,12
0,70,111,0
0,62,95,0
0,70,106,0
0,27,109,12
0,46,109,0
0,37,97,140
0,40,102,0
0,27,103,380
0,35,107,0
0,44,96,0
0,44,102,92
0,27,90,12
0,35,105,0
0,37,99,0
0,62,106,0
0,71,106,0
0,79,108,0
0,71,103,0
0,67,104,0
0,71,111,0
0,67,90,0
0,79,104,0
0,62,103,0
0,67,107,0
0,31,101,0
0,40,106,0
0,49,109,0
0,81,48,376
0,81,50,188
0,82,93,0
0,72,84,0
0,60,99,0
0,63,90,0
0,36,91,0
0,35,112,0
0,62,90,12
0,42,90,0
0,81,48,188
0,36,101,0
0,35,116,0
0,42,108,0
0,27,93,12
0,37,101,0
0,75,107,188
0,42,92,0
0,72,113,16
0,27,92,0
0,35,116,0
0,42,105,0
0,77,122,12
0,31,96,0
0,35,120,0
0,75,103,12
0,42,96,0
0,31,102,16
0,35,105,0
0,42,92,0
0,67,86,12
0,39,94,0
0,24,97,0
0,37,92,0
0,36,100,8
0,67,89,4
0,35,119,0
0,42,108,0
0,72,94,16
0,82,99,0
0,29,106,0
0,35,116,0
0,46,103,0
0,70,84,0
0,58,107,0
0,62,104,0
0,65,100,0
0,31,105,0
0,35,111,0
0,74,122,12
0,62,93,0
0,42,105,0
0,74,111,16
0,31,103,0
0,35,110,0
0,42,104,0
0,74,104,12
0,34,101,0
0,37,107,0
0,70,108,12
0,42,103,0
0,72,112,16
0,34,108,0
0,35,111,0
0,42,107,0
0,72,110,12
0,38,109,0
0,35,119,0
0,70,116,12
0,42,102,0
0,38,107,16
0,35,106,0
0,42,93,0
0,91,91,12
0,39,98,0
0,43,99,0
0,37,96,0
0,81,61,12
0,43,102,0
0,42,92,0
0,81,51,12
0,82,100,0
0,42,105,0
0,42,102,0
0,75,86,0
0,87,92,0
0,60,77,0
0,63,77,0
0,41,96,0
0,35,116,0
0,42,96,0
0,72,119,60
0,60,79,0
0,63,79,0
0,41,103,0
0,35,119,0
0,42,104,0
0,72,114,60
0,60,81,0
0,63,81,0
0,81,55,0
0,41,106,0
0,35,114,0
0,42,104,0
0,72,121,20
0,60,84,0
0,63,84,0
0,39,90,0
0,35,116,0
0,42,91,0
0,72,103,60
0,60,86,0
0,63,86,0
0,39,100,0
0,35,122,0
0,42,97,0
0,72,115,16
0,60,88,0
0,63,88,0
0,39,109,0
0,35,107,0
0,42,95,0
0,63,90,60
0,72,90,0
0,75,90,0
0,38,96,0
0,35,109,0
0,42,105,0
0,63,93,60
0,72,93,0
0,75,93,0
0,38,109,0
0,35,105,0
0,42,108,0
0,72,105,60
0,63,95,0
0,72,95,0
0,75,95,0
0,38,100,0
0,35,110,0
0,40,91,0
0,42,108,0
0,79,121,16
0,63,97,0
0,72,97,0
0,75,97,0
0,36,91,0
0,35,107,0
0,40,94,0
0,42,92,0
0,63,99,16
0,72,99,0
0,75,99,0
0,36,102,0
0,35,113,0
0,40,103,0
0,42,94,0
0,77,118,16
0,75,120,16
0,63,102,0
0,72,102,0
0,75,102,0
0,82,96,0
0,36,103,0
0,35,107,0
0,40,95,0
0,42,99,0
0,79,109,16
0,63,104,0
0,72,104,0
0,75,104,0
0,34,91,0
0,35,105,0
0,40,98,0
0,42,94,0
0,77,110,16
