track,note,velocity,time
1,69,101,6144
1,71,101,0
1,73,101,0
1,73,101,0
1,76,101,32
1,74,101,0
1,73,101,0
1,71,101,0
1,71,101,0
1,71,101,0
1,73,101,0
1,71,101,0
1,71,101,0
1,73,101,0
1,74,101,0
1,74,101,0
1,74,101,0
1,74,101,0
1,69,101,0
1,71,101,0
1,73,101,0
1,76,101,112
1,74,101,0
1,73,101,0
1,73,101,0
1,73,101,0
1,69,101,32
1,71,101,0
1,71,101,0
1,73,101,0
1,71,101,0
1,73,101,16
1,74,101,0
1,74,101,0
1,74,101,0
1,73,101,0
1,73,101,0
1,73,101,0
1,71,101,0
1,64,101,208
1,66,101,0
1,69,101,0
1,69,101,0
1,71,101,0
1,69,101,0
1,71,101,0
1,71,101,0
1,69,101,0
1,64,101,768
1,64,101,0
1,69,101,0
1,69,101,0
1,69,101,0
1,69,101,0
1,64,101,0
1,69,101,0
1,71,101,192
1,73,101,0
1,73,101,0
1,71,101,0
1,73,101,0
1,74,101,0
1,74,101,0
1,74,101,0
1,74,101,0
1,74,101,0
1,74,101,0
1,74,101,0
1,74,101,0
1,74,101,0
1,74,101,0
1,76,101,0
1,78,101,0
1,76,101,0
1,73,101,0
1,73,101,0
1,74,101,0
1,74,101,0
1,74,101,0
1,73,101,0
1,71,101,0
1,64,101,160
1,66,101,0
1,69,101,0
1,69,101,0
1,71,101,0
1,69,101,0
1,71,101,0
1,71,101,0
1,69,101,0
1,69,101,1872
1,71,101,0
1,73,101,0
1,73,101,0
1,76,101,32
1,74,101,0
1,73,101,0
1,71,101,0
1,71,101,0
1,71,101,0
1,73,101,0
1,71,101,0
1,71,101,0
1,73,101,0
1,74,101,0
1,74,101,0
1,74,101,0
1,74,101,0
1,69,101,0
1,71,101,0
1,73,101,0
1,76,101,224
1,74,101,0
1,73,101,0
1,73,101,0
1,73,101,0
1,69,101,0
1,71,101,0
1,71,101,0
1,73,101,0
1,71,101,0
1,73,101,16
1,74,101,0
1,74,101,0
1,74,101,0
1,73,101,0
1,73,101,0
1,73,101,0
1,71,101,0
1,64,101,0
1,66,101,0
1,69,101,0
1,69,101,0
1,71,101,0
1,69,101,0
1,71,101,0
1,71,101,0
1,69,101,0
1,64,101,704
1,64,101,0
1,69,101,0
1,69,101,0
1,69,101,0
1,69,101,0
1,64,101,48
1,69,101,0
1,71,101,192
1,73,101,0
1,73,101,0
1,71,101,0
1,73,101,0
1,74,101,0
1,74,101,0
1,74,101,0
1,74,101,0
1,74,101,0
1,74,101,0
1,74,101,0
1,74,101,0
1,74,101,0
1,74,101,0
1,76,101,0
1,78,101,0
1,76,101,0
1,73,101,0
1,73,101,0
1,74,101,0
1,74,101,0
1,74,101,0
1,73,101,0
1,71,101,0
1,64,101,48
1,66,101,0
1,69,101,0
1,69,101,0
1,71,101,0
1,69,101,0
1,71,101,0
1,71,101,0
1,69,101,0
1,74,101,864
1,69,101,112
1,74,101,0
1,74,101,0
1,74,101,0
1,74,101,0
1,76,101,0
1,74,101,0
1,73,101,0
1,73,101,0
1,74,101,0
1,76,101,0
1,73,101,0
1,69,101,0
1,74,101,0
1,74,101,0
1,74,101,0
1,74,101,0
1,73,101,0
1,74,101,0
1,76,101,0
1,73,101,144
1,74,101,0
1,74,101,0
1,74,101,0
1,73,101,0
1,74,101,0
1,73,101,0
1,71,101,0
1,64,101,64
1,64,101,0
1,66,101,0
1,69,101,0
1,69,101,0
1,71,101,0
1,69,101,0
1,71,101,0
1,71,101,0
1,69,101,0
1,69,101,1760
1,71,101,0
1,73,101,0
1,73,101,0
1,76,101,32
1,74,101,0
1,73,101,0
1,71,101,0
1,71,101,0
1,71,101,0
1,73,101,0
1,71,101,0
1,71,101,0
1,73,101,0
1,74,101,0
1,74,101,0
1,74,101,0
1,74,101,0
1,69,101,0
1,71,101,0
1,73,101,0
1,76,101,128
1,74,101,0
1,73,101,0
1,73,101,0
1,73,101,0
1,69,101,0
1,71,101,0
1,71,101,0
1,73,101,0
1,71,101,0
1,73,101,0
1,74,101,0
1,74,101,0
1,74,101,0
1,73,101,0
1,73,101,0
1,73,101,0
1,71,101,0
1,64,101,224
1,66,101,0
1,69,101,0
1,69,101,0
1,71,101,0
1,69,101,0
1,71,101,0
1,71,101,0
1,69,101,0
1,64,101,752
1,64,101,0
1,69,101,0
1,69,101,0
1,69,101,0
1,69,101,0
1,64,101,0
1,69,101,0
1,71,101,192
1,73,101,0
1,73,101,0
1,71,101,0
1,73,101,0
1,74,101,0
1,74,101,0
1,74,101,0
1,74,101,0
1,74,101,0
1,74,101,0
1,74,101,0
1,74,101,0
1,74,101,0
1,74,101,0
1,76,101,0
1,78,101,0
1,76,101,0
1,73,101,0
1,73,101,0
1,74,101,0
1,74,101,0
1,74,101,0
1,73,101,0
1,71,101,0
1,64,101,48
1,66,101,0
1,69,101,0
1,69,101,0
1,71,101,0
1,69,101,0
1,71,101,0
1,71,101,0
1,69,101,0
1,64,101,32
1,64,101,0
1,69,101,0
1,69,101,0
1,69,101,0
1,69,101,0
1,64,101,0
1,69,101,0
1,71,101,192
1,73,101,0
1,73,101,0
1,71,101,0
1,73,101,0
1,74,101,0
1,74,101,0
1,74,101,0
1,74,101,0
1,74,101,0
1,74,101,0
1,74,101,0
1,74,101,0
1,74,101,0
1,74,101,0
1,76,101,0
1,78,101,0
1,76,101,0
1,73,101,0
1,73,101,0
1,74,101,0
1,74,101,0
1,74,101,0
1,73,101,0
1,71,101,0
1,64,101,48
1,66,101,0
1,69,101,0
1,69,101,0
1,71,101,0
1,69,101,0
1,71,101,0
1,71,101,0
1,69,101,0
1,71,101,48
1,71,101,0
1,69,101,0
1,71,101,112
1,71,101,0
1,69,101,0
1,71,101,48
1,71,101,0
1,69,101,0
2,73,69,19200
2,73,69,32
2,73,69,32
2,73,69,24
2,73,69,152
2,73,69,24
2,74,69,8
2,76,69,0
2,76,69,128
2,74,69,0
2,76,69,88
2,78,69,24
2,78,69,40
2,78,69,38
2,78,69,24
2,78,69,120
2,78,69,24
2,78,69,24
2,78,69,32
2,78,69,120
2,78,69,32
2,80,69,24
2,81,69,16
2,81,69,24
2,76,69,24
2,76,69,64
2,78,69,24
2,78,69,40
2,78,69,216
2,76,69,24
2,74,69,0
2,76,69,552
2,74,69,32
2,74,69,104
2,74,69,24
2,76,69,32
2,73,69,32
2,74,69,40
2,74,69,120
2,73,69,40
2,73,69,15688
2,73,69,32
2,73,69,32
2,73,69,24
2,73,69,152
2,73,69,24
2,74,69,8
2,76,69,0
2,76,69,128
2,74,69,0
2,76,69,88
2,78,69,24
2,78,69,40
2,78,69,38
2,78,69,24
2,78,69,120
2,78,69,24
2,78,69,24
2,78,69,32
2,78,69,120
2,78,69,32
2,80,69,24
2,81,69,16
2,81,69,24
2,76,69,24
2,76,69,64
2,78,69,24
2,78,69,40
2,78,69,216
2,76,69,24
2,74,69,0
2,76,69,552
2,74,69,32
2,74,69,104
2,74,69,24
2,76,69,32
2,73,69,32
2,74,69,40
2,74,69,120
2,73,69,40
2,78,69,1864
2,74,69,304
2,77,69,24
2,77,69,24
2,77,69,120
2,77,69,24
2,79,69,32
2,77,69,120
2,76,69,120
2,76,69,32
2,78,69,120
2,81,69,24
2,76,69,112
2,73,69,40
2,78,69,120
2,78,69,192
2,78,69,24
2,78,69,24
2,76,69,14
2,78,69,16
2,81,69,16
2,76,69,576
2,78,69,24
2,78,69,80
2,78,69,24
2,76,69,120
2,78,69,16
2,76,69,0
2,74,69,32
2,76,69,592
2,76,69,24
2,74,69,24
2,74,69,64
2,74,69,24
2,76,69,24
2,74,69,32
2,74,69,32
2,74,69,88
2,73,69,24
2,73,69,15582
2,73,69,32
2,73,69,32
2,73,69,24
2,73,69,152
2,73,69,24
2,74,69,8
2,76,69,0
2,76,69,128
2,74,69,0
2,76,69,88
2,78,69,24
2,78,69,40
2,78,69,38
2,78,69,24
2,78,69,120
2,78,69,24
2,78,69,24
2,78,69,32
2,78,69,120
2,78,69,32
2,80,69,24
2,81,69,16
2,81,69,24
2,76,69,24
2,76,69,64
2,78,69,24
2,78,69,40
2,78,69,216
2,76,69,24
2,74,69,0
2,76,69,552
2,74,69,32
2,74,69,104
2,74,69,24
2,76,69,32
2,73,69,32
2,74,69,40
2,74,69,120
2,73,69,40
2,73,69,712
2,73,69,32
2,73,69,32
2,73,69,24
2,73,69,152
2,73,69,24
2,74,69,8
2,76,69,0
2,76,69,128
2,74,69,0
2,76,69,88
2,78,69,24
2,78,69,40
2,78,69,38
2,78,69,24
2,78,69,120
2,78,69,24
2,78,69,24
2,78,69,32
2,78,69,120
2,78,69,32
2,80,69,24
2,81,69,16
2,81,69,24
2,76,69,24
2,76,69,64
2,78,69,24
2,78,69,40
2,78,69,216
2,76,69,24
2,74,69,0
2,76,69,552
2,74,69,32
2,74,69,104
2,74,69,24
2,76,69,32
2,73,69,32
2,74,69,40
2,74,69,120
2,73,69,40
2,74,69,520
2,74,69,120
2,73,69,40
2,74,69,520
2,74,69,120
2,73,69,40
2,74,69,520
2,74,69,120
2,73,69,40
3,45,48,768
3,52,48,192
3,57,48,192
3,61,48,80
3,57,48,80
3,52,48,80
3,45,48,80
3,57,48,80
3,61,48,192
3,64,48,80
3,61,48,80
3,57,48,80
3,45,48,80
3,52,48,80
3,57,48,192
3,64,48,80
3,61,48,80
3,57,48,80
3,45,48,80
3,57,48,80
3,52,48,192
3,61,48,80
3,57,48,80
3,52,48,80
3,45,57,80
3,52,57,128
3,57,57,192
3,64,57,128
3,61,57,128
3,57,57,128
3,40,57,128
3,47,57,128
3,52,57,192
3,56,57,128
3,52,57,128
3,47,57,128
3,50,57,128
3,57,57,128
3,62,57,192
3,66,57,128
3,62,57,128
3,57,57,128
3,45,57,128
3,52,57,128
3,57,57,192
3,61,57,128
3,57,57,128
3,52,57,128
3,42,57,128
3,49,57,128
3,54,57,192
3,57,57,96
3,49,57,96
3,54,57,96
3,40,57,96
3,52,57,96
3,56,57,192
3,59,57,128
3,56,57,128
3,55,57,128
3,50,57,160
3,54,57,8
3,57,57,16
3,62,57,16
3,49,57,64
3,54,57,0
3,57,57,32
3,61,57,16
3,47,57,64
3,52,57,16
3,56,57,16
3,59,57,16
3,64,57,528
3,59,57,80
3,56,57,16
3,50,57,0
3,54,57,16
3,57,57,16
3,62,57,16
3,54,57,24
3,66,57,192
3,62,57,0
3,57,57,0
3,61,57,416
3,69,57,192
3,64,57,64
3,61,57,64
3,45,57,40
3,57,57,64
3,52,57,0
3,49,57,192
3,61,57,0
3,64,57,184
3,69,57,0
3,64,57,0
3,61,57,88
3,61,52,8
3,64,52,0
3,57,52,0
3,45,52,0
3,61,56,40
3,57,56,32
3,45,48,24
3,64,48,0
3,61,48,0
3,57,48,0
3,61,56,40
3,57,56,40
3,57,48,0
3,61,48,0
3,64,48,0
3,45,48,0
3,61,56,0
3,57,56,192
3,56,52,16
3,59,52,0
3,64,52,0
3,52,52,0
3,59,57,24
3,56,57,32
3,57,48,0
3,54,48,0
3,62,48,0
3,50,48,0
3,54,57,24
3,57,57,40
3,62,57,16
3,50,57,0
3,57,57,24
3,54,57,40
3,50,48,16
3,57,48,0
3,54,48,0
3,62,48,0
3,57,57,24
3,54,57,24
3,54,57,0
3,50,57,0
3,57,57,0
3,62,57,40
3,52,57,0
3,45,57,0
3,61,57,0
3,57,57,32
3,52,57,40
3,50,52,0
3,59,52,0
3,54,52,0
3,54,57,24
3,59,57,24
3,64,44,0
3,52,44,0
3,56,44,0
3,59,44,0
3,64,57,48
3,59,57,0
3,56,57,0
3,52,57,0
3,57,48,0
3,50,48,0
3,62,48,0
3,54,48,0
3,62,44,24
3,54,44,0
3,57,44,0
3,50,44,0
3,57,57,16
3,54,57,40
3,45,48,0
3,52,48,192
3,61,57,192
3,57,48,0
3,64,48,192
3,69,57,0
3,64,57,24
3,57,48,40
3,61,57,0
3,45,48,24
3,64,57,16
3,69,57,0
3,57,48,0
3,61,57,192
3,69,57,0
3,61,48,0
3,57,48,0
3,64,57,0
3,61,57,0
3,52,48,0
3,61,57,0
3,57,48,0
3,45,48,0
3,57,48,16
3,69,57,0
3,64,57,0
3,61,57,192
3,61,48,32
3,69,57,0
3,57,48,0
3,64,57,0
3,61,57,0
3,52,48,0
3,45,57,0
3,64,57,128
3,52,57,0
3,69,57,0
3,57,57,0
3,69,57,128
3,64,57,0
3,61,57,0
3,57,57,128
3,40,57,128
3,56,57,128
3,47,57,0
3,52,57,0
3,56,57,128
3,52,57,128
3,47,57,128
3,50,57,128
3,57,57,128
3,62,57,192
3,66,57,128
3,62,57,128
3,57,57,128
3,45,57,128
3,52,57,128
3,57,57,192
3,61,57,128
3,57,57,128
3,52,57,128
3,42,57,128
3,49,57,128
3,54,57,192
3,57,57,96
3,49,57,96
3,54,57,96
3,40,57,96
3,52,57,96
3,56,57,192
3,59,57,128
3,56,57,128
3,55,57,128
3,50,57,160
3,54,57,8
3,57,57,16
3,62,57,16
3,54,57,64
3,49,57,0
3,57,57,32
3,61,57,16
3,47,57,64
3,52,57,16
3,56,57,16
3,59,57,16
3,64,57,528
3,59,57,80
3,56,57,16
3,50,57,0
3,54,57,16
3,57,57,16
3,62,57,16
3,54,57,24
3,66,57,192
3,62,57,0
3,57,57,0
3,61,57,416
3,69,57,192
3,64,57,64
3,61,57,64
3,45,57,40
3,57,57,64
3,52,57,0
3,61,57,192
3,49,57,0
3,64,57,184
3,69,57,0
3,64,57,0
3,61,57,88
3,45,52,8
3,64,52,0
3,57,52,0
3,61,52,0
3,61,56,40
3,57,56,32
3,64,48,24
3,57,48,0
3,45,48,0
3,61,48,0
3,61,56,40
3,57,56,40
3,61,48,0
3,57,48,0
3,45,48,0
3,64,48,0
3,61,56,40
3,57,56,40
3,56,52,16
3,64,52,0
3,52,52,0
3,59,52,0
3,59,57,24
3,56,57,32
3,54,48,0
3,57,48,0
3,62,48,0
3,50,48,0
3,54,57,24
3,57,57,40
3,62,57,16
3,50,57,0
3,57,57,24
3,54,57,40
3,62,48,16
3,57,48,0
3,50,48,0
3,54,48,0
3,57,57,24
3,54,57,24
3,54,57,0
3,50,57,0
3,57,57,0
3,62,57,40
3,61,57,0
3,52,57,0
3,45,57,0
3,57,57,32
3,52,57,40
3,50,52,0
3,59,52,0
3,54,52,0
3,54,57,24
3,59,57,24
3,52,44,0
3,64,44,0
3,59,44,0
3,56,44,0
3,64,57,48
3,59,57,0
3,52,57,0
3,56,57,0
3,57,48,0
3,62,48,0
3,50,48,0
3,54,48,0
3,50,44,24
3,54,44,0
3,57,44,0
3,62,44,0
3,57,57,16
3,54,57,40
3,45,48,0
3,52,48,192
3,61,57,192
3,57,48,0
3,69,57,192
3,64,48,0
3,64,57,24
3,57,48,40
3,61,57,0
3,45,48,24
3,57,48,16
3,69,57,0
3,64,57,0
3,61,57,192
3,69,57,0
3,61,48,0
3,57,48,0
3,64,57,0
3,61,57,0
3,62,57,0
3,74,57,0
3,69,57,192
3,57,57,0
3,54,57,192
3,66,57,0
3,74,57,24
3,62,57,0
3,69,57,72
3,57,57,0
3,54,57,72
3,66,57,0
3,62,57,24
3,74,57,0
3,57,57,72
3,69,57,0
3,66,57,72
3,54,57,0
3,62,57,24
3,74,57,0
3,57,57,72
3,69,57,0
3,66,57,72
3,54,57,0
3,53,57,16
3,65,57,0
3,57,57,0
3,69,57,0
3,74,57,192
3,50,57,192
3,62,57,0
3,57,57,56
3,53,57,0
3,65,57,0
3,69,57,0
3,74,57,56
3,50,57,56
3,62,57,0
3,57,57,0
3,45,57,0
3,52,57,192
3,69,57,0
3,64,57,0
3,49,57,192
3,61,57,0
3,69,57,48
3,64,57,32
3,52,57,0
3,61,57,80
3,49,57,0
3,52,52,0
3,64,52,0
3,56,57,0
3,59,52,0
3,52,57,40
3,64,57,0
3,59,57,48
3,56,57,32
3,57,57,0
3,64,57,0
3,45,57,0
3,61,57,192
3,57,57,20
3,69,57,20
