track,note,velocity,time
1,65,113,52996
1,65,85,88
1,64,95,48
1,62,102,88
1,64,81,104
1,60,85,20
1,67,125,1884
1,67,117,104
1,65,108,92
1,64,108,92
1,65,117,2352
1,65,95,88
1,67,95,56
1,65,90,52
1,64,95,96
1,60,95,92
1,67,113,1820
1,67,108,104
1,65,113,80
1,64,108,84
1,65,113,2348
1,65,108,96
1,64,95,52
1,62,102,72
1,64,85,92
1,60,90,128
1,67,121,1912
1,67,121,100
1,65,117,92
1,64,117,76
1,65,108,2388
1,65,85,88
1,67,102,68
1,65,90,72
1,64,108,100
1,60,95,80
1,67,121,1836
1,67,117,100
1,65,117,92
1,64,108,60
1,65,108,2292
1,65,95,88
1,64,102,72
1,62,108,72
1,65,113,20792
1,65,90,88
1,64,102,200
1,62,95,8
1,64,74,92
1,60,69,76
1,67,113,1900
1,67,108,88
1,65,102,88
1,64,95,92
1,65,113,2384
1,65,95,92
1,67,95,72
1,65,102,72
1,64,113,104
1,60,90,100
1,67,113,1912
1,67,113,112
1,65,113,88
1,64,113,68
1,65,113,2364
1,65,102,108
1,64,95,32
1,62,102,80
1,64,90,124
1,60,108,148
1,67,121,1912
1,67,113,112
1,65,117,108
1,64,113,92
1,65,117,2360
1,65,108,124
1,67,108,112
1,65,117,92
1,64,113,120
1,60,113,144
1,67,90,1932
1,67,108,112
1,65,102,100
1,64,113,100
1,65,113,2404
1,65,108,120
1,67,95,112
1,65,113,104
1,64,113,112
1,60,95,196
1,67,117,28040
1,67,108,116
1,65,117,100
1,64,113,84
1,65,117,2352
1,65,102,108
1,67,95,92
1,65,108,68
1,64,117,100
1,60,102,156
1,67,121,1940
1,67,117,112
1,65,117,100
1,64,113,92
1,65,113,2396
1,65,108,100
1,64,95,112
1,62,108,104
1,64,90,132
1,60,113,168
1,67,113,1940
1,67,108,112
1,65,113,88
1,64,113,92
1,65,113,2392
1,65,113,116
1,67,102,112
1,65,113,80
1,64,117,112
1,60,113,136
1,67,102,1900
1,67,108,100
1,65,108,100
1,64,102,88
1,65,113,2388
1,65,117,124
1,67,102,116
1,65,113,104
1,64,117,124
1,60,108,188
1,67,117,1952
1,67,113,112
1,65,108,108
1,64,108,100
1,65,113,2404
1,65,108,124
1,67,95,104
1,65,121,92
1,64,117,120
1,60,117,188
1,67,108,1932
1,67,102,112
1,65,102,108
1,64,95,100
1,65,117,2404
1,65,108,112
1,67,90,112
1,65,113,80
1,64,113,124
1,60,113,164
2,57,69,23044
2,57,69,120
2,57,69,124
2,60,69,108
2,60,69,48
2,60,69,104
2,55,69,120
2,55,69,232
2,57,69,124
2,57,69,128
2,57,69,144
2,60,69,124
2,60,69,44
2,60,69,128
2,55,69,128
2,55,69,232
2,57,69,136
2,57,69,124
2,57,69,132
2,60,69,132
2,60,69,48
2,60,69,132
2,55,69,120
2,55,69,240
2,57,69,128
2,57,69,132
2,57,69,144
2,60,69,140
2,60,69,48
2,60,69,124
2,55,69,120
2,55,69,236
2,57,69,128
2,57,69,128
2,57,69,140
2,60,69,124
2,60,69,36
2,60,69,116
2,55,69,132
2,55,69,228
2,57,69,128
2,57,69,144
2,57,69,132
2,60,69,132
2,60,69,36
2,60,69,116
2,55,69,120
2,55,69,228
2,57,69,132
2,57,69,128
2,57,69,136
2,60,69,136
2,60,69,44
2,60,69,128
2,55,69,116
2,55,69,240
2,57,69,124
2,57,69,124
2,57,69,144
2,60,69,128
2,60,69,48
2,60,69,128
2,55,69,120
2,55,69,228
2,57,69,128
2,57,69,116
2,57,69,136
2,60,69,120
2,60,69,32
2,60,69,120
2,55,69,140
2,55,69,232
2,57,69,132
2,57,69,120
2,57,69,136
2,60,69,128
2,60,69,32
2,60,69,116
2,55,69,128
2,55,69,228
2,57,69,132
2,57,69,128
2,57,69,136
2,60,69,128
2,60,69,44
2,60,69,120
2,55,69,128
2,55,69,224
2,57,69,136
2,57,69,128
2,57,69,136
2,60,69,132
2,60,69,40
2,60,69,128
2,55,69,128
2,55,69,236
2,57,69,132
2,57,69,132
2,57,69,136
2,60,69,132
2,60,69,32
2,60,69,120
2,55,69,108
2,55,69,216
2,57,69,136
2,57,69,132
2,57,69,124
2,60,69,120
2,60,69,24
2,60,69,108
2,55,69,100
2,55,69,216
2,57,69,112
2,57,69,112
2,57,69,132
2,60,69,108
2,60,69,32
2,60,69,120
2,55,69,108
2,55,69,204
2,57,69,112
2,57,69,104
2,57,69,136
2,60,69,124
2,60,69,32
2,60,69,120
2,55,69,128
2,55,69,216
2,57,69,6248
2,57,69,120
2,57,69,144
2,60,69,140
2,60,69,44
2,60,69,136
2,55,69,136
2,55,69,228
2,57,69,124
2,57,69,132
2,57,69,132
2,60,69,132
2,60,69,44
2,60,69,100
2,55,69,120
2,55,69,216
2,57,69,120
2,57,69,136
2,57,69,132
2,60,69,124
2,60,69,56
2,60,69,116
2,55,69,116
2,55,69,228
2,57,69,132
2,57,69,124
2,57,69,120
2,60,69,116
2,60,69,44
2,60,69,132
2,55,69,116
2,55,69,208
2,57,69,132
2,57,69,124
2,57,69,136
2,60,69,128
2,60,69,36
2,60,69,116
2,55,69,120
2,55,69,228
2,57,69,120
2,57,69,140
2,57,69,132
2,60,69,128
2,60,69,44
2,60,69,120
2,55,69,120
2,55,69,228
2,57,69,132
2,57,69,140
2,57,69,132
2,60,69,132
2,60,69,44
2,60,69,124
2,55,69,116
2,55,69,220
2,57,69,104
2,57,69,120
2,57,69,124
2,60,69,108
2,60,69,36
2,60,69,132
2,55,69,116
2,55,69,208
2,57,69,116
2,57,69,128
2,57,69,132
2,60,69,124
2,60,69,44
2,60,69,120
2,55,69,120
2,55,69,208
2,57,69,112
2,57,69,124
2,57,69,120
2,60,69,112
2,60,69,44
2,60,69,120
2,55,69,120
2,55,69,212
2,57,69,128
2,57,69,124
2,57,69,132
2,60,69,120
2,60,69,44
2,60,69,116
2,55,69,120
2,55,69,220
2,57,69,120
2,57,69,132
2,57,69,132
2,60,69,124
2,60,69,44
2,60,69,124
2,55,69,116
2,55,69,232
2,57,69,100
2,57,69,120
2,57,69,124
2,60,69,120
2,60,69,48
2,60,69,116
2,55,69,128
2,55,69,220
2,57,69,132
2,57,69,132
2,57,69,124
2,60,69,120
2,60,69,44
2,60,69,116
2,55,69,128
2,55,69,228
2,57,69,120
2,57,69,120
2,57,69,132
2,60,69,120
2,60,69,48
2,60,69,128
2,55,69,128
2,55,69,220
2,57,69,112
2,57,69,128
2,57,69,132
2,60,69,124
2,60,69,56
2,60,69,116
2,55,69,120
2,55,69,216
2,57,69,3192
2,57,69,124
2,57,69,144
2,60,69,132
2,60,69,44
2,60,69,128
2,55,69,136
2,55,69,204
2,57,69,112
2,57,69,120
2,57,69,132
2,60,69,116
2,60,69,32
2,60,69,128
2,55,69,116
2,55,69,216
2,57,69,104
2,57,69,128
2,57,69,132
2,60,69,116
2,60,69,44
2,60,69,128
2,55,69,108
2,55,69,164
2,57,69,92
2,57,69,112
2,57,69,136
2,60,69,132
2,60,69,44
2,60,69,128
2,55,69,120
2,55,69,216
2,57,69,92
2,57,69,124
2,57,69,124
2,60,69,116
2,60,69,44
2,60,69,120
2,55,69,120
2,55,69,220
2,57,69,124
2,57,69,132
2,57,69,120
2,60,69,132
2,60,69,44
2,60,69,112
2,55,69,120
2,55,69,212
2,57,69,104
2,57,69,112
2,57,69,136
2,60,69,112
2,60,69,44
2,60,69,116
2,55,69,108
2,55,69,200
2,57,69,112
2,57,69,120
2,57,69,132
2,60,69,124
2,60,69,44
2,60,69,116
2,55,69,120
2,55,69,208
2,57,69,6248
2,57,69,120
2,57,69,128
2,60,69,124
2,60,69,48
2,60,69,128
2,55,69,128
2,55,69,228
2,57,69,132
2,57,69,128
2,57,69,132
2,60,69,116
2,60,69,56
2,60,69,140
2,55,69,132
2,55,69,212
2,57,69,104
2,57,69,128
2,57,69,128
2,60,69,120
2,60,69,44
2,60,69,116
2,55,69,128
2,55,69,240
2,57,69,36
2,57,69,136
2,57,69,136
2,60,69,116
2,60,69,48
2,60,69,116
2,55,69,116
2,55,69,216
2,57,69,124
2,57,69,132
2,57,69,140
2,60,69,124
2,60,69,56
2,60,69,116
2,55,69,108
2,55,69,220
2,57,69,120
2,57,69,120
2,57,69,132
2,60,69,108
2,60,69,44
2,60,69,104
2,55,69,108
2,55,69,216
2,57,69,120
2,57,69,128
2,57,69,144
2,60,69,116
2,60,69,48
2,60,69,116
2,55,69,116
2,55,69,232
2,57,69,132
2,57,69,132
2,57,69,136
2,60,69,120
2,60,69,44
2,60,69,136
2,55,69,128
2,55,69,216
2,57,69,116
2,57,69,120
2,57,69,132
2,60,69,120
2,60,69,44
2,60,69,116
2,55,69,128
2,55,69,220
2,57,69,120
2,57,69,136
2,57,69,136
2,60,69,120
2,60,69,48
2,60,69,128
2,55,69,120
2,55,69,216
2,57,69,108
2,57,69,132
2,57,69,136
2,60,69,116
2,60,69,56
2,60,69,124
2,55,69,120
2,55,69,208
2,57,69,124
2,57,69,132
2,57,69,136
2,60,69,116
2,60,69,32
2,60,69,128
2,55,69,120
2,55,69,212
2,57,69,116
2,57,69,120
2,57,69,132
2,60,69,120
2,60,69,44
2,60,69,124
2,55,69,112
2,55,69,216
2,57,69,120
2,57,69,144
2,57,69,132
2,60,69,124
2,60,69,44
2,60,69,128
2,55,69,120
2,55,69,220
2,57,69,124
2,57,69,132
2,57,69,124
2,60,69,124
2,60,69,56
2,60,69,132
2,55,69,116
2,55,69,220
2,57,69,120
2,57,69,120
2,57,69,132
2,60,69,128
2,60,69,48
2,60,69,132
2,55,69,120
2,55,69,232
2,57,69,32388
2,57,69,112
2,57,69,124
2,60,69,92
2,60,69,48
2,60,69,104
2,55,69,108
2,55,69,148
2,57,69,92
2,57,69,120
2,57,69,124
2,60,69,120
2,60,69,48
2,60,69,116
2,55,69,108
2,55,69,220
2,57,69,44
2,57,69,112
2,57,69,124
2,60,69,108
2,60,69,48
2,60,69,104
2,55,69,36
2,55,69,160
2,57,69,88
2,57,69,108
2,57,69,124
2,60,69,100
2,60,69,36
2,60,69,124
2,55,69,100
2,55,69,152
2,57,69,56
2,57,69,108
2,57,69,124
2,60,69,108
2,60,69,32
2,60,69,128
2,55,69,108
2,55,69,196
2,57,69,40
2,57,69,112
2,57,69,124
2,60,69,124
2,60,69,56
2,60,69,128
2,55,69,120
2,55,69,200
2,57,69,16
2,57,69,128
2,57,69,136
2,60,69,108
2,60,69,48
2,60,69,104
2,55,69,88
2,55,69,188
2,57,69,72
2,57,69,116
2,57,69,124
2,60,69,92
2,60,69,48
2,60,69,108
2,55,69,100
2,55,69,180
2,57,69,44
2,57,69,120
2,57,69,124
2,60,69,108
2,60,69,36
2,60,69,96
2,55,69,108
2,55,69,200
2,57,69,80
2,57,69,112
2,57,69,124
2,60,69,116
2,60,69,48
2,60,69,116
2,55,69,108
2,55,69,188
2,57,69,80
2,57,69,128
2,57,69,132
2,60,69,124
2,60,69,48
2,60,69,100
2,55,69,96
2,55,69,196
2,57,69,44
2,57,69,116
2,57,69,124
2,60,69,116
2,60,69,48
2,60,69,116
2,55,69,120
2,55,69,208
2,57,69,76
2,57,69,120
2,57,69,124
2,60,69,124
2,60,69,48
2,60,69,116
2,55,69,140
2,55,69,208
2,57,69,84
2,57,69,108
2,57,69,124
2,60,69,104
2,60,69,36
2,60,69,104
2,55,69,108
2,55,69,164
2,57,69,52
2,57,69,120
2,57,69,124
2,60,69,108
2,60,69,44
2,60,69,116
2,55,69,120
2,55,69,188
2,57,69,52
2,57,69,120
2,57,69,136
2,60,69,108
2,60,69,44
2,60,69,104
2,55,69,120
2,55,69,152
2,57,69,64
2,57,69,116
2,57,69,120
2,60,69,112
2,60,69,48
2,60,69,108
2,55,69,112
2,55,69,188
2,57,69,52
2,57,69,120
2,57,69,132
2,60,69,108
2,60,69,48
2,60,69,128
2,55,69,128
2,55,69,152
2,57,69,52
2,57,69,116
2,57,69,132
2,60,69,116
2,60,69,56
2,60,69,120
2,55,69,120
2,55,69,160
2,57,69,64
2,57,69,124
2,57,69,132
2,60,69,112
2,60,69,48
2,60,69,112
2,55,69,112
2,55,69,184
2,57,69,48
3,57,74,124420
3,60,74,0
3,64,74,0
3,62,74,56
3,55,74,4
3,59,74,0
3,60,74,24
3,53,74,20
3,57,74,0
3,59,74,56
3,56,74,0
3,52,74,0
3,64,74,28
3,64,74,12
3,57,74,0
3,60,74,4
3,62,74,28
3,59,74,0
3,55,74,0
3,60,74,40
3,57,74,0
3,53,74,0
3,52,74,184
3,59,74,0
3,56,74,4
3,64,74,28
4,57,55,124356
4,60,55,8
4,64,55,28
4,69,90,32
4,72,80,28
4,69,72,12
4,72,73,12
4,72,65,72
4,69,64,0
4,74,53,184
4,72,59,176
4,69,73,376
4,71,67,80
4,72,73,0
4,69,63,12
4,74,66,88
4,72,71,0
4,71,67,12
4,69,74,92
4,55,64,4
4,59,54,4
4,71,75,28
4,62,69,0
4,67,71,48
4,67,75,4
4,67,73,168
4,71,75,40
4,67,74,8
4,67,90,92
4,72,78,8
4,71,78,96
4,69,78,44
4,67,71,16
4,53,69,20
4,57,58,16
4,60,62,0
4,69,80,16
4,72,75,12
4,69,62,12
4,74,67,16
4,74,62,64
4,72,71,84
4,65,81,108
4,67,73,80
4,69,83,12
4,53,57,60
4,57,57,0
4,62,59,0
4,72,75,92
4,71,70,32
4,53,53,68
4,57,56,0
4,60,56,4
4,69,88,0
4,52,55,52
4,71,76,0
4,56,61,12
4,59,55,20
4,64,78,264
4,66,76,24
4,68,74,60
4,68,80,84
4,52,53,36
4,69,73,28
4,59,47,16
4,56,66,8
4,71,75,24
4,64,49,8
4,71,73,116
4,72,74,80
4,74,76,0
4,76,71,128
4,57,77,20
4,60,58,112
4,69,73,0
4,69,83,44
4,64,37,8
4,69,85,44
4,69,90,40
4,76,76,8
4,69,76,172
4,69,78,36
4,69,83,28
4,69,88,64
4,69,72,20
4,76,55,40
4,76,75,0
4,76,78,32
4,50,45,28
4,55,65,96
4,59,55,0
4,62,67,36
4,71,75,40
4,72,71,24
4,74,76,8
4,72,74,24
4,71,74,8
4,72,80,20
4,71,73,12
4,69,70,8
4,71,71,0
4,69,80,8
4,67,78,28
4,67,93,88
4,74,85,8
4,67,76,88
4,48,43,60
4,72,80,12
4,53,69,8
4,57,36,0
4,60,65,32
4,71,80,8
4,69,85,12
4,69,88,72
4,76,80,28
4,72,78,60
4,69,85,8
4,76,80,176
4,72,80,76
4,69,83,96
4,76,75,176
4,72,70,172
4,69,73,12
4,52,74,36
4,56,64,16
4,59,59,4
4,64,55,16
4,69,74,136
4,52,60,12
4,56,55,0
4,59,54,4
4,64,50,0
4,68,70,12
4,56,62,24
4,52,59,0
4,59,69,4
4,64,56,0
4,66,78,4
4,52,81,32
4,68,79,0
4,64,57,0
4,56,64,4
4,59,69,0
4,68,80,96
4,69,81,24
4,71,80,0
4,52,64,0
4,56,68,20
4,72,74,24
4,74,73,12
4,59,56,24
4,76,83,4
4,64,59,16
4,76,69,28
5,50,43,264
5,53,57,60
5,57,53,56
5,65,65,204
5,62,57,0
5,65,67,36
5,62,55,0
5,65,69,44
5,69,74,0
5,69,58,72
5,65,53,0
5,64,55,48
5,67,55,0
5,64,47,68
5,67,51,0
5,60,44,72
5,64,43,4
5,64,39,80
5,60,40,4
5,50,54,176
5,53,56,48
5,57,56,76
5,65,74,192
5,62,69,0
5,62,54,24
5,65,64,0
5,67,81,52
5,70,64,0
5,70,66,72
5,67,77,0
5,65,59,64
5,69,69,4
5,65,58,104
5,69,67,0
5,64,56,68
5,67,65,0
5,67,59,92
5,64,53,4
5,65,59,100
5,62,53,0
5,60,46,100
5,64,49,0
6,60,64,4608
6,55,64,4
6,64,57,0
6,64,60,300
6,55,74,0
6,60,67,4
6,65,58,196
6,57,59,0
6,60,64,4
6,65,59,204
6,57,56,0
6,60,57,0
6,65,60,304
6,60,64,0
6,57,64,4
6,62,65,132
6,67,72,4
6,59,64,0
6,62,65,320
