track,note,velocity,time
1,74,106,2268
1,81,106,0
1,69,106,110
1,78,106,0
1,74,106,110
1,81,106,0
1,78,106,238
1,86,106,0
1,74,106,238
1,81,106,0
1,69,106,110
1,78,106,0
1,66,106,110
1,74,106,0
1,74,106,494
1,81,106,0
1,69,106,110
1,78,106,0
1,74,106,110
1,81,106,0
1,78,106,238
1,86,106,0
1,74,106,238
1,81,106,0
1,69,106,110
1,78,106,0
1,66,106,110
1,74,106,0
1,73,106,494
1,81,106,0
1,69,106,110
1,76,106,0
1,73,106,110
1,81,106,0
1,76,106,238
1,85,106,0
1,73,106,238
1,81,106,0
1,69,106,110
1,76,106,0
1,64,106,110
1,73,106,0
1,73,106,494
1,81,106,0
1,69,106,110
1,76,106,0
1,73,106,110
1,81,106,0
1,76,106,238
1,85,106,0
1,73,106,238
1,81,106,0
1,69,106,110
1,76,106,0
1,64,106,110
1,73,106,0
1,71,106,494
1,80,106,0
1,68,106,110
1,76,106,0
1,71,106,110
1,80,106,0
1,76,106,238
1,83,106,0
1,71,106,238
1,80,106,0
1,68,106,110
1,76,106,0
1,64,106,104
1,71,106,6
1,71,106,494
1,80,106,0
1,68,106,110
1,76,106,0
1,71,106,110
1,80,106,0
1,76,106,238
1,83,106,0
1,71,106,238
1,80,106,0
1,68,106,110
1,76,106,0
1,64,106,110
1,71,106,0
1,74,106,28142
1,81,106,0
1,69,106,110
1,78,106,0
1,74,106,110
1,81,106,0
1,78,106,238
1,86,106,0
1,74,106,238
1,81,106,0
1,69,106,110
1,78,106,0
1,66,106,110
1,74,106,0
1,74,106,494
1,81,106,0
1,69,106,110
1,78,106,0
1,74,106,110
1,81,106,0
1,78,106,238
1,86,106,0
1,74,106,238
1,81,106,0
1,69,106,110
1,78,106,0
1,66,106,110
1,74,106,0
1,73,106,494
1,81,106,0
1,69,106,110
1,76,106,0
1,73,106,110
1,81,106,0
1,76,106,238
1,85,106,0
1,73,106,238
1,81,106,0
1,69,106,110
1,76,106,0
1,64,106,110
1,73,106,0
1,73,106,494
1,81,106,0
1,69,106,110
1,76,106,0
1,73,106,110
1,81,106,0
1,76,106,238
1,85,106,0
1,73,106,238
1,81,106,0
1,69,106,110
1,76,106,0
1,64,106,110
1,73,106,0
1,71,106,494
1,80,106,0
1,68,106,110
1,76,106,0
1,71,106,110
1,80,106,0
1,76,106,238
1,83,106,0
1,71,106,238
1,80,106,0
1,68,106,110
1,76,106,0
1,64,106,104
1,71,106,6
1,71,106,494
1,80,106,0
1,68,106,110
1,76,106,0
1,71,106,110
1,80,106,0
1,76,106,238
1,83,106,0
1,71,106,238
1,80,106,0
1,68,106,110
1,76,106,0
1,64,106,110
1,71,106,0
1,73,106,494
1,81,106,0
1,69,106,110
1,76,106,0
1,73,106,110
1,81,106,0
1,76,106,238
1,85,106,0
1,73,106,238
1,81,106,0
1,69,106,110
1,76,106,0
1,64,106,110
1,73,106,0
1,76,106,494
1,85,106,0
1,73,106,110
1,81,106,0
1,76,106,110
1,85,106,0
1,81,106,238
1,88,106,0
1,76,106,238
1,85,106,0
1,73,106,110
1,81,106,0
1,69,106,110
1,76,106,0
1,74,106,494
1,81,106,0
1,69,106,110
1,78,106,0
1,74,106,110
1,81,106,0
1,78,106,238
1,86,106,0
1,74,106,238
1,81,106,0
1,69,106,110
1,78,106,0
1,66,106,110
1,74,106,0
1,74,106,494
1,81,106,0
1,69,106,110
1,78,106,0
1,74,106,110
1,81,106,0
1,78,106,238
1,86,106,0
1,74,106,238
1,81,106,0
1,69,106,110
1,78,106,0
1,66,106,110
1,74,106,0
1,73,106,494
1,81,106,0
1,69,106,110
1,76,106,0
1,73,106,110
1,81,106,0
1,76,106,238
1,85,106,0
1,73,106,238
1,81,106,0
1,69,106,110
1,76,106,0
1,64,106,110
1,73,106,0
1,73,106,494
1,81,106,0
1,69,106,110
1,76,106,0
1,73,106,110
1,81,106,0
1,76,106,238
1,85,106,0
1,73,106,238
1,81,106,0
1,69,106,110
1,76,106,0
1,64,106,110
1,73,106,0
1,71,106,494
1,80,106,0
1,68,106,110
1,76,106,0
1,71,106,110
1,80,106,0
1,76,106,238
1,83,106,0
1,71,106,238
1,80,106,0
1,68,106,110
1,76,106,0
1,64,106,104
1,71,106,6
1,71,106,494
1,80,106,0
1,68,106,110
1,76,106,0
1,71,106,110
1,80,106,0
1,76,106,238
1,83,106,0
1,71,106,238
1,80,106,0
1,68,106,110
1,76,106,0
1,64,106,110
1,71,106,0
1,73,106,494
1,81,106,0
1,69,106,110
1,76,106,0
1,73,106,110
1,81,106,0
1,76,106,238
1,85,106,0
1,73,106,238
1,81,106,0
1,69,106,110
1,76,106,0
1,64,106,110
1,73,106,0
1,73,106,494
1,81,106,0
1,69,106,110
1,76,106,0
1,73,106,110
1,81,106,0
1,76,106,238
1,85,106,0
1,73,106,238
1,81,106,0
1,69,106,110
1,76,106,0
1,64,106,110
1,73,106,0
1,71,106,494
1,80,106,0
1,68,106,110
1,76,106,0
1,71,106,110
1,80,106,0
1,76,106,238
1,83,106,0
1,71,106,238
1,80,106,0
1,68,106,110
1,76,106,0
1,64,106,104
1,71,106,6
1,71,106,494
1,80,106,0
1,68,106,110
1,76,106,0
1,71,106,110
1,80,106,0
1,76,106,238
1,83,106,0
1,71,106,238
1,80,106,0
1,68,106,110
1,76,106,0
1,64,106,110
1,71,106,0
1,74,106,28142
1,81,106,0
1,69,106,110
1,78,106,0
1,74,106,110
1,81,106,0
1,78,106,238
1,86,106,0
1,74,106,238
1,81,106,0
1,69,106,110
1,78,106,0
1,66,106,110
1,74,106,0
1,74,106,494
1,81,106,0
1,69,106,110
1,78,106,0
1,74,106,110
1,81,106,0
1,78,106,238
1,86,106,0
1,74,106,238
1,81,106,0
1,69,106,110
1,78,106,0
1,66,106,110
1,74,106,0
1,73,106,494
1,81,106,0
1,69,106,110
1,76,106,0
1,73,106,110
1,81,106,0
1,76,106,238
1,85,106,0
1,73,106,238
1,81,106,0
1,69,106,110
1,76,106,0
1,64,106,110
1,73,106,0
1,73,106,494
1,81,106,0
1,69,106,110
1,76,106,0
1,73,106,110
1,81,106,0
1,76,106,238
1,85,106,0
1,73,106,238
1,81,106,0
1,69,106,110
1,76,106,0
1,64,106,110
1,73,106,0
1,71,106,494
1,80,106,0
1,68,106,110
1,76,106,0
1,71,106,110
1,80,106,0
1,76,106,238
1,83,106,0
1,71,106,238
1,80,106,0
1,68,106,110
1,76,106,0
1,64,106,104
1,71,106,6
1,71,106,494
1,80,106,0
1,68,106,110
1,76,106,0
1,71,106,110
1,80,106,0
1,76,106,238
1,83,106,0
1,71,106,238
1,80,106,0
1,68,106,110
1,76,106,0
1,64,106,110
1,71,106,0
1,73,106,494
1,81,106,0
1,69,106,110
1,76,106,0
1,73,106,110
1,81,106,0
1,76,106,238
1,85,106,0
1,73,106,238
1,81,106,0
1,69,106,110
1,76,106,0
1,64,106,110
1,73,106,0
1,76,106,494
1,85,106,0
1,73,106,110
1,81,106,0
1,76,106,110
1,85,106,0
1,81,106,238
1,88,106,0
1,76,106,238
1,85,106,0
1,73,106,110
1,81,106,0
1,69,106,110
1,76,106,0
1,74,106,494
1,81,106,0
1,69,106,110
1,78,106,0
1,74,106,110
1,81,106,0
1,78,106,238
1,86,106,0
1,74,106,238
1,81,106,0
1,69,106,110
1,78,106,0
1,66,106,110
1,74,106,0
1,74,106,494
1,81,106,0
1,69,106,110
1,78,106,0
1,74,106,110
1,81,106,0
1,78,106,238
1,86,106,0
1,74,106,238
1,81,106,0
1,69,106,110
1,78,106,0
1,66,106,110
1,74,106,0
1,73,106,494
1,81,106,0
1,69,106,110
1,76,106,0
1,73,106,110
1,81,106,0
1,76,106,238
1,85,106,0
1,73,106,238
1,81,106,0
1,69,106,110
1,76,106,0
1,64,106,110
1,73,106,0
1,73,106,494
1,81,106,0
1,69,106,110
1,76,106,0
1,73,106,110
1,81,106,0
1,76,106,238
1,85,106,0
1,73,106,238
1,81,106,0
1,69,106,110
1,76,106,0
1,64,106,110
1,73,106,0
1,71,106,494
1,80,106,0
1,68,106,110
1,76,106,0
1,71,106,110
1,80,106,0
1,76,106,238
1,83,106,0
1,71,106,238
1,80,106,0
1,68,106,110
1,76,106,0
1,64,106,104
1,71,106,6
1,71,106,494
1,80,106,0
1,68,106,110
1,76,106,0
1,71,106,110
1,80,106,0
1,76,106,238
1,83,106,0
1,71,106,238
1,80,106,0
1,68,106,110
1,76,106,0
1,64,106,110
1,71,106,0
1,73,106,494
1,81,106,0
1,69,106,110
1,76,106,0
1,73,106,110
1,81,106,0
1,76,106,238
1,85,106,0
1,73,106,238
1,81,106,0
1,69,106,110
1,76,106,0
1,64,106,110
1,73,106,0
1,77,106,494
1,86,106,0
1,74,106,110
1,82,106,0
1,77,106,110
1,86,106,0
1,82,106,238
1,89,106,0
1,77,106,238
1,86,106,0
1,74,106,110
1,82,106,0
1,70,106,110
1,77,106,0
1,75,106,494
1,82,106,0
1,70,106,110
1,79,106,0
1,75,106,110
1,82,106,0
1,79,106,238
1,87,106,0
1,75,106,238
1,82,106,0
1,70,106,110
1,79,106,0
1,67,106,110
1,75,106,0
1,75,106,494
1,82,106,0
1,70,106,110
1,79,106,0
1,75,106,110
1,82,106,0
1,79,106,238
1,87,106,0
1,75,106,238
1,82,106,0
1,70,106,110
1,79,106,0
1,67,106,110
1,75,106,0
1,74,106,494
1,82,106,0
1,70,106,110
1,77,106,0
1,74,106,110
1,82,106,0
1,77,106,238
1,86,106,0
1,74,106,238
1,82,106,0
1,70,106,110
1,77,106,0
1,65,106,110
1,74,106,0
1,74,106,494
1,82,106,0
1,70,106,110
1,77,106,0
1,74,106,110
1,82,106,0
1,77,106,238
1,86,106,0
1,74,106,238
1,82,106,0
1,70,106,110
1,77,106,0
1,65,106,110
1,74,106,0
1,72,106,494
1,81,106,0
1,69,106,110
1,77,106,0
1,72,106,110
1,81,106,0
1,77,106,238
1,84,106,0
1,72,106,238
1,81,106,0
1,69,106,110
1,77,106,0
1,65,106,104
1,72,106,6
1,72,106,494
1,81,106,0
1,69,106,110
1,77,106,0
1,72,106,110
1,81,106,0
1,77,106,238
1,84,106,0
1,72,106,238
1,81,106,0
1,69,106,110
1,77,106,0
1,65,106,110
1,72,106,0
1,74,106,494
1,82,106,0
1,70,106,110
1,77,106,0
1,74,106,110
1,82,106,0
1,77,106,238
1,86,106,0
1,74,106,238
1,82,106,0
1,70,106,110
1,77,106,0
1,65,106,110
1,74,106,0
1,77,106,494
1,86,106,0
1,74,106,110
1,82,106,0
1,77,106,110
1,86,106,0
1,82,106,238
1,89,106,0
1,77,106,238
1,86,106,0
1,74,106,110
1,82,106,0
1,70,106,110
1,77,106,0
1,75,106,494
1,82,106,0
1,70,106,110
1,79,106,0
1,75,106,110
1,82,106,0
1,79,106,238
1,87,106,0
1,75,106,238
1,82,106,0
1,70,106,110
1,79,106,0
1,67,106,110
1,75,106,0
1,75,106,494
1,82,106,0
1,70,106,110
1,79,106,0
1,75,106,110
1,82,106,0
1,79,106,238
1,87,106,0
1,75,106,238
1,82,106,0
1,70,106,110
1,79,106,0
1,67,106,110
1,75,106,0
1,74,106,494
1,82,106,0
1,70,106,110
1,77,106,0
1,74,106,110
1,82,106,0
1,77,106,238
1,86,106,0
1,74,106,238
1,82,106,0
1,70,106,110
1,77,106,0
1,65,106,110
1,74,106,0
1,74,106,494
1,82,106,0
1,70,106,110
1,77,106,0
1,74,106,110
1,82,106,0
1,77,106,238
1,86,106,0
1,74,106,238
1,82,106,0
1,70,106,110
1,77,106,0
1,65,106,110
1,74,106,0
1,72,106,494
1,81,106,0
1,69,106,110
1,77,106,0
1,72,106,110
1,81,106,0
1,77,106,238
1,84,106,0
1,72,106,238
1,81,106,0
1,69,106,110
1,77,106,0
1,65,106,104
1,72,106,6
1,72,106,494
1,81,106,0
1,69,106,110
1,77,106,0
1,72,106,110
1,81,106,0
1,77,106,238
1,84,106,0
1,72,106,238
1,81,106,0
1,69,106,110
1,77,106,0
1,65,106,110
1,72,106,0
1,74,106,494
1,82,106,0
1,70,106,110
1,77,106,0
1,74,106,110
1,82,106,0
1,77,106,238
1,86,106,0
1,74,106,238
1,82,106,0
1,70,106,110
1,77,106,0
1,65,106,110
1,74,106,0
1,74,106,494
1,82,106,0
1,70,106,110
1,77,106,0
1,74,106,110
1,82,106,0
1,77,106,238
1,86,106,0
1,74,106,238
1,82,106,0
1,70,106,110
1,77,106,0
1,65,106,110
1,74,106,0
1,72,106,494
1,81,106,0
1,69,106,110
1,77,106,0
1,72,106,110
1,81,106,0
1,77,106,238
1,84,106,0
1,72,106,238
1,81,106,0
1,69,106,110
1,77,106,0
1,65,106,104
1,72,106,6
1,72,106,494
1,81,106,0
1,69,106,110
1,77,106,0
1,72,106,110
1,81,106,0
1,77,106,238
1,84,106,0
1,72,106,238
1,81,106,0
1,69,106,110
1,77,106,0
1,65,106,110
1,72,106,0
1,74,106,494
1,82,106,0
1,70,106,110
1,77,106,0
1,74,106,110
1,82,106,0
1,77,106,238
1,86,106,0
1,74,106,238
1,82,106,0
1,70,106,110
1,77,106,0
1,65,106,110
1,74,106,0
1,75,106,494
1,82,106,0
1,70,106,110
1,79,106,0
1,75,106,110
1,82,106,0
1,79,106,238
1,87,106,0
1,77,106,238
1,84,106,0
1,72,106,110
1,81,106,0
1,77,106,110
1,84,106,0
1,81,106,238
1,89,106,0
1,77,120,1134
1,79,107,76
1,77,86,72
1,74,107,58
1,70,119,56
2,38,127,2212
2,42,127,60
2,45,127,12
2,42,127,36
2,45,127,24
2,38,127,12
2,42,127,60
2,45,127,12
2,38,127,36
2,37,127,12
2,35,127,12
2,33,127,12
2,37,127,60
2,40,127,12
2,37,127,36
2,40,127,24
2,33,127,12
2,37,127,60
2,40,127,0
2,37,127,36
2,40,127,24
2,28,127,12
2,32,127,60
2,35,127,12
2,32,127,36
2,35,127,24
2,28,127,10
2,32,127,60
2,35,127,12
2,32,127,36
2,35,127,24
2,33,127,12
2,33,127,60
2,33,127,12
2,33,127,70
2,33,127,60
2,33,127,12
2,33,127,70
2,33,127,60
2,33,127,12
2,33,127,70
2,33,127,60
2,33,127,12
2,33,127,70
2,33,127,60
2,33,127,12
2,40,127,70
2,40,127,60
2,40,127,12
2,40,127,70
2,40,127,60
2,40,127,12
2,40,127,70
2,40,127,60
2,40,127,12
2,40,127,70
2,40,127,60
2,40,127,12
2,33,127,70
2,33,127,60
2,33,127,12
2,33,127,70
2,33,127,60
2,33,127,12
2,33,127,70
2,33,127,60
2,33,127,12
2,33,127,70
2,33,127,60
2,33,127,12
2,40,127,70
2,40,127,60
2,40,127,12
2,38,127,70
2,38,127,60
2,38,127,12
2,33,127,70
2,33,127,60
2,33,127,12
2,40,127,70
2,40,127,60
2,40,127,12
2,33,120,70
2,33,123,124
2,33,123,102
2,35,120,20
2,35,120,102
2,37,119,4
2,37,114,90
2,38,127,128
2,42,127,60
2,45,127,12
2,42,127,36
2,45,127,24
2,38,127,12
2,42,127,60
2,45,127,12
2,38,127,36
2,37,127,12
2,35,127,12
2,33,127,12
2,37,127,60
2,40,127,12
2,37,127,36
2,40,127,24
2,33,127,12
2,37,127,60
2,40,127,0
2,37,127,36
2,40,127,24
2,28,127,12
2,32,127,60
2,35,127,12
2,32,127,36
2,35,127,24
2,28,127,10
2,32,127,60
2,35,127,12
2,32,127,36
2,35,127,24
2,33,127,12
2,37,127,70
2,40,127,18
2,37,127,18
2,40,127,256
2,33,127,8
2,33,127,70
2,33,127,98
2,35,127,22
2,35,127,88
2,37,127,128
2,37,127,102
2,38,127,128
2,42,127,60
2,45,127,12
2,42,127,36
2,45,127,24
2,38,127,12
2,42,127,60
2,45,127,12
2,38,127,36
2,37,127,12
2,35,127,12
2,33,127,12
2,37,127,60
2,40,127,12
2,37,127,36
2,40,127,24
2,33,127,12
2,37,127,60
2,40,127,0
2,37,127,36
2,40,127,24
