track,note,velocity,time
1,62,127,2140
1,57,127,0
1,53,127,0
1,53,53,30
1,57,87,80
1,62,74,256
1,62,100,268
1,54,127,0
1,57,127,0
1,58,127,86
1,55,120,0
1,62,127,0
1,94,127,542
1,93,100,132
1,93,100,128
1,91,120,0
1,86,112,138
1,82,127,132
1,81,127,140
1,79,112,134
1,74,127,132
1,73,127,78
1,64,127,0
1,69,120,0
1,65,97,110
1,74,100,0
1,62,90,0
1,69,100,0
1,86,70,0
1,81,94,68
1,77,97,42
1,76,87,38
1,74,112,68
1,62,112,48
1,57,112,0
1,53,100,0
1,53,52,76
1,57,74,376
1,62,87,192
1,52,112,256
1,61,96,0
1,57,100,0
1,52,100,86
1,61,127,0
1,57,94,0
1,62,87,326
1,53,66,0
1,57,90,0
1,53,68,160
1,57,76,128
1,62,94,258
1,54,127,0
1,57,92,0
1,54,1,24
1,62,85,96
1,54,77,114
1,57,85,192
1,55,100,264
1,62,112,0
1,58,106,0
1,55,68,28
1,58,69,100
1,62,76,192
1,57,94,84
1,62,97,0
1,53,90,0
1,61,106,318
1,57,94,0
1,52,112,0
1,50,92,306
1,62,97,0
1,57,100,0
1,54,127,0
1,54,127,158
1,62,127,0
1,57,127,0
1,54,99,102
1,62,112,390
1,54,111,146
1,52,127,0
1,61,127,0
1,57,127,0
1,81,62,1378
1,83,73,42
1,85,82,40
1,88,91,36
1,93,100,42
1,52,99,84
1,57,116,128
1,52,84,92
1,57,127,0
1,61,127,0
1,52,127,0
1,52,79,150
1,61,111,142
1,57,120,158
1,52,112,66
1,57,127,0
1,62,127,0
1,54,127,0
1,90,80,960
1,81,80,0
1,86,82,4
1,78,82,0
1,74,85,58
1,81,85,0
1,54,103,116
1,57,91,182
1,54,86,114
1,62,127,0
1,57,127,0
1,54,127,0
1,55,127,0
1,59,127,0
1,62,127,0
1,74,44,1414
1,79,56,30
1,81,64,20
1,83,86,52
1,86,97,30
1,55,104,126
1,59,112,172
1,55,104,72
1,62,127,0
1,57,127,0
1,54,127,0
1,61,127,0
1,52,112,0
1,57,127,0
1,62,127,0
1,57,127,0
1,54,127,0
1,74,49,1336
1,76,79,54
1,78,96,16
1,81,86,64
1,86,79,40
1,62,66,0
1,65,87,0
1,69,94,0
1,74,94,0
1,62,47,204
1,81,100,192
1,89,83,0
1,79,90,304
1,88,97,0
1,77,100,320
1,86,94,0
1,62,29,238
1,81,92,192
1,77,92,0
1,79,74,20
1,76,83,0
1,62,112,60
1,57,112,0
1,53,100,0
1,74,90,12
1,77,85,4
1,53,52,76
1,57,74,376
1,62,87,192
1,52,112,256
1,61,96,0
1,57,100,0
1,52,100,86
1,61,127,0
1,57,94,0
1,62,87,326
1,53,66,0
1,57,90,0
1,53,68,160
1,57,76,128
1,62,94,258
1,54,127,0
1,57,92,0
1,54,1,24
1,62,85,96
1,54,77,114
1,57,85,192
1,55,100,264
1,62,112,0
1,58,106,0
1,55,68,28
1,58,69,100
1,62,76,192
1,57,94,84
1,62,97,0
1,53,90,0
1,61,106,318
1,57,94,0
1,52,112,0
1,50,92,306
1,62,97,0
1,57,100,0
1,54,127,0
1,54,127,158
1,62,127,0
1,57,127,0
1,54,99,102
1,62,112,390
1,54,111,146
1,52,127,0
1,61,127,0
1,57,127,0
1,81,62,1378
1,83,73,42
1,85,82,40
1,88,91,36
1,93,100,42
1,52,99,84
1,57,116,128
1,52,84,92
1,57,127,0
1,61,127,0
1,52,127,0
1,52,79,150
1,61,111,142
1,57,120,158
1,52,112,66
1,57,127,0
1,62,127,0
1,54,127,0
1,90,80,960
1,81,80,0
1,86,82,4
1,78,82,0
1,74,85,58
1,81,85,0
1,54,103,116
1,57,91,182
1,54,86,114
1,62,127,0
1,57,127,0
1,54,127,0
1,55,127,0
1,59,127,0
1,62,127,0
1,74,44,1414
1,79,56,30
1,81,64,20
1,83,86,52
1,86,97,30
1,55,104,126
1,59,112,172
1,55,104,72
1,62,127,0
1,57,127,0
1,54,127,0
1,61,127,0
1,52,112,0
1,57,127,0
1,62,127,0
1,57,127,0
1,54,127,0
1,62,127,1520
1,53,127,0
1,58,127,0
1,55,127,0
1,63,127,0
1,58,127,0
1,55,99,102
1,63,112,390
1,55,111,146
1,53,127,0
1,62,127,0
1,58,127,0
1,82,62,1378
1,84,73,42
1,86,82,40
1,89,91,36
1,94,100,42
1,53,99,84
1,58,116,128
1,53,84,92
1,58,127,0
1,62,127,0
1,53,127,0
1,53,79,150
1,62,111,142
1,58,120,158
1,53,112,66
1,58,127,0
1,63,127,0
1,55,127,0
1,91,80,960
1,82,80,0
1,87,82,4
1,79,82,0
1,75,85,58
1,82,85,0
1,55,103,116
1,58,91,182
1,55,86,114
1,63,127,0
1,58,127,0
1,55,127,0
1,56,127,0
1,60,127,0
1,63,127,0
1,75,44,1414
1,80,56,30
1,82,64,20
1,84,86,52
1,87,97,30
1,56,104,126
1,60,112,172
1,56,104,72
1,63,127,0
1,58,127,0
1,55,127,0
1,62,127,0
1,53,112,0
1,58,127,0
1,63,127,0
1,58,127,0
1,55,127,0
1,68,49,1352
1,70,79,54
1,72,96,16
1,75,86,64
1,80,79,40
1,63,127,72
1,58,127,0
1,55,127,0
1,62,127,0
1,53,112,0
1,58,127,0
1,51,92,0
1,63,97,0
1,58,100,0
1,55,127,0
1,63,80,170
1,58,100,4
1,39,75,2
1,51,80,0
1,67,97,0
2,38,127,2212
2,41,127,194
2,45,127,32
2,38,127,20
2,42,127,124
2,45,127,38
2,31,127,12
2,34,127,146
2,38,127,44
2,31,127,42
2,34,127,132
2,38,127,46
2,33,127,22
2,37,127,160
2,40,127,576
2,33,127,4
2,37,127,148
2,40,127,42
2,38,127,384
2,41,127,186
2,45,127,6
2,38,127,8
2,41,127,214
2,45,127,576
2,38,127,38
2,41,127,36
2,45,127,576
2,38,127,34
2,41,127,576
2,45,127,26
2,33,100,384
2,37,127,520
2,40,112,572
2,33,112,24
2,37,127,4
2,40,120,10
2,33,127,14
2,37,127,20
2,40,100,576
2,33,112,362
2,37,127,8
2,40,100,4
2,38,120,8
2,41,127,40
2,45,127,576
2,38,127,10
2,41,120,16
2,45,127,10
2,38,112,384
2,42,127,554
2,45,120,572
2,38,112,20
2,42,127,4
2,45,112,576
2,31,92,380
2,34,112,48
2,38,100,10
2,31,97,16
2,34,112,576
2,31,94,62
2,38,112,0
2,41,127,576
2,45,120,6
2,33,94,384
2,37,112,18
2,40,112,8
2,38,127,10
2,38,127,44
2,42,127,40
2,45,127,34
2,38,127,14
2,42,127,50
2,42,127,70
2,45,100,8
2,33,120,384
2,37,127,570
2,40,94,26
2,33,112,384
2,37,127,20
2,37,127,62
2,40,97,192
2,33,127,382
2,37,127,18
2,40,97,26
2,33,112,8
2,37,106,32
2,37,127,52
2,40,92,20
2,38,127,384
2,42,127,48
2,45,120,40
2,38,127,384
2,42,112,36
2,42,127,78
2,45,127,48
2,38,120,22
2,42,127,2
2,45,120,44
2,38,120,384
2,42,112,26
2,42,127,76
2,45,112,50
2,31,100,384
2,35,92,564
2,38,97,52
2,31,97,8
2,35,100,576
2,38,94,566
2,38,127,46
2,42,127,40
2,45,120,50
2,33,97,384
2,37,127,0
2,40,81,52
2,38,127,10
2,42,127,28
2,45,112,30
2,38,127,0
2,42,112,576
2,42,112,84
2,45,120,192
2,38,127,140
2,41,127,0
2,45,126,6
2,38,120,384
2,41,127,562
2,45,127,558
2,38,127,42
2,41,127,36
2,45,127,576
2,38,127,34
2,41,127,576
2,45,127,26
2,33,100,384
2,37,127,520
2,40,112,572
2,33,112,24
2,37,127,4
2,40,120,10
2,33,127,14
2,37,127,20
2,40,100,576
2,33,112,362
2,37,127,8
2,40,100,4
2,38,120,8
2,41,127,40
2,45,127,576
2,38,127,10
2,41,120,16
2,45,127,10
2,38,112,384
2,42,127,554
2,45,120,572
2,38,112,20
2,42,127,4
2,45,112,576
2,31,92,380
2,34,112,48
2,38,100,10
2,31,97,16
2,34,112,576
2,31,94,62
2,38,112,0
2,41,127,576
2,45,120,6
2,33,94,384
2,37,112,18
2,40,112,8
2,38,127,10
2,38,127,44
2,42,127,40
2,45,127,34
2,38,127,14
2,42,127,50
2,42,127,70
2,45,100,8
2,33,120,384
2,37,127,570
2,40,94,26
2,33,112,384
2,37,127,20
2,37,127,62
2,40,97,192
2,33,127,382
2,37,127,18
2,40,97,26
2,33,112,8
2,37,106,32
2,37,127,52
2,40,92,20
2,38,127,384
2,42,127,48
2,45,120,40
2,38,127,384
2,42,112,36
2,42,127,78
2,45,127,48
2,38,120,22
2,42,127,2
2,45,120,44
2,38,120,384
2,42,112,26
2,42,127,76
2,45,112,50
2,31,100,384
2,35,92,564
2,38,97,52
2,31,97,8
2,35,100,576
2,38,94,566
2,38,127,46
2,42,127,40
2,45,120,50
2,33,97,384
2,37,127,0
2,40,81,52
2,38,127,10
2,42,127,28
2,45,112,30
2,34,127,0
2,34,127,90
2,34,127,102
2,36,127,192
2,38,127,364
2,39,127,50
2,43,127,40
2,46,127,34
2,39,127,14
2,43,127,50
2,43,127,70
2,46,100,8
2,34,120,384
2,38,127,570
2,41,94,26
2,34,112,384
2,38,127,20
2,38,127,62
2,41,97,192
2,34,127,382
2,38,127,18
2,41,97,26
2,34,112,8
2,38,106,32
2,38,127,52
2,41,92,20
2,39,127,384
2,43,127,48
2,46,120,40
2,39,127,384
2,43,112,36
2,43,127,78
2,46,127,48
2,39,120,22
2,43,127,2
2,46,120,44
2,39,120,384
2,43,112,26
2,43,127,76
2,46,112,50
2,32,100,384
2,36,92,564
2,39,97,52
2,32,97,8
2,36,100,576
2,39,94,566
2,39,127,46
2,43,127,40
2,46,120,50
2,34,97,384
2,38,127,0
2,41,81,52
2,39,127,10
2,43,127,28
2,46,112,30
2,32,127,0
2,36,120,20
2,39,127,10
2,39,127,0
2,43,127,40
2,46,120,50
2,34,97,384
2,38,127,0
2,41,81,52
2,39,127,10
2,39,127,44
3,45,61,2542
3,47,66,6
3,50,63,24
3,53,100,8
3,57,112,34
3,62,127,38
3,65,127,96
3,62,97,22
3,57,63,42
3,65,120,192
3,62,74,184
3,57,56,16
3,66,127,192
3,62,85,54
3,57,74,314
3,67,97,64
3,62,72,28
3,58,77,192
3,67,94,86
3,62,74,192
3,58,27,262
3,62,90,132
3,58,67,26
3,55,87,192
3,62,100,34
3,58,80,384
3,55,74,38
3,64,97,28
3,61,64,18
3,57,72,20
3,64,112,192
3,61,93,352
3,57,74,332
3,64,66,52
3,61,56,30
3,57,68,118
3,64,100,192
3,61,77,318
3,57,66,2
3,65,74,92
3,62,72,158
3,57,72,70
3,65,112,180
3,62,94,338
3,57,64,8
3,65,94,192
3,62,76,126
3,57,74,112
3,65,100,142
3,62,85,100
3,57,81,178
3,65,94,4
3,57,87,192
3,62,76,156
3,65,97,192
3,62,92,12
3,57,63,372
3,65,92,158
3,57,90,142
3,62,74,182
3,65,97,192
3,62,81,350
3,57,66,364
3,64,97,168
3,57,74,138
3,61,69,144
3,64,92,192
3,61,83,326
3,57,70,336
3,64,94,146
3,57,85,148
3,61,69,158
3,64,90,192
3,61,93,340
3,57,76,136
3,64,94,98
3,57,56,158
3,61,72,158
3,64,92,192
3,61,72,176
3,57,66,8
3,64,85,112
3,61,75,192
3,57,83,92
3,67,83,154
3,57,63,202
3,61,33,384
3,65,94,96
3,57,52,192
3,62,72,178
3,65,92,192
3,62,90,8
3,57,64,354
3,65,92,170
3,62,74,192
3,57,68,162
3,65,83,72
3,62,83,16
3,57,53,366
3,66,83,176
3,57,66,150
3,62,70,132
3,66,80,192
3,62,83,346
3,57,41,348
3,66,86,88
3,57,64,140
3,62,70,130
3,66,83,192
3,62,83,342
3,57,55,308
3,67,83,82
3,58,77,160
3,62,68,182
3,67,85,192
3,62,70,46
3,58,58,6
3,67,83,192
3,58,56,150
3,62,68,156
3,67,70,192
3,62,74,332
3,58,37,246
3,65,70,22
3,57,63,16
3,62,68,192
3,65,87,192
3,62,83,346
3,57,66,328
3,64,83,182
3,57,74,118
3,61,64,174
3,64,83,192
3,61,75,330
3,57,47,22
3,50,113,3144
3,57,104,8
3,62,97,8
3,66,89,8
3,69,46,8
3,50,71,4
3,57,67,4
3,62,66,4
3,66,61,0
3,69,34,0
3,69,86,0
3,66,114,0
3,62,100,10
3,57,80,4
3,50,36,8
3,57,59,4
3,62,59,0
3,69,34,0
3,66,71,0
3,62,59,4
3,57,47,6
3,50,36,10
3,50,114,4
3,57,114,8
3,62,114,6
3,66,114,0
3,69,71,0
3,69,34,20
3,66,71,0
3,62,59,0
3,57,47,10
3,50,36,10
3,50,113,0
3,57,104,8
3,62,97,6
3,66,89,4
3,69,46,8
3,50,71,210
3,57,67,8
3,62,66,4
3,66,61,0
3,69,34,0
3,69,86,0
3,66,114,0
3,62,100,10
3,57,80,4
3,50,36,8
3,57,59,4
3,62,59,0
3,69,34,0
3,66,71,0
3,62,59,4
3,57,47,6
3,50,36,10
3,50,114,4
3,57,114,8
3,62,114,6
3,66,114,0
3,69,71,0
3,69,34,20
3,66,71,0
3,62,59,0
3,57,47,10
3,50,36,10
3,52,113,16
3,57,104,0
3,61,97,8
3,64,89,6
3,69,46,4
3,52,71,4
3,57,67,8
3,61,66,4
3,64,61,0
3,69,34,0
3,69,86,0
3,64,114,0
3,61,100,10
3,57,80,4
3,52,36,8
3,57,59,4
3,61,59,0
3,69,34,0
3,64,71,0
3,61,59,4
3,57,47,6
3,52,36,10
3,52,114,4
3,57,114,8
3,61,114,6
3,64,114,0
3,69,71,0
3,69,34,20
3,64,71,0
3,61,59,0
3,57,47,10
3,52,36,10
3,52,113,0
3,57,104,8
3,61,97,6
3,64,89,4
3,69,46,8
3,52,71,210
3,57,67,8
3,61,66,4
3,64,61,0
3,69,34,0
3,69,86,0
3,64,114,0
3,61,100,10
3,57,80,4
3,52,36,8
3,57,59,4
3,61,59,0
3,69,34,0
3,64,71,0
3,61,59,4
3,57,47,6
3,52,36,10
3,52,114,4
3,57,114,8
3,61,114,6
3,64,114,0
3,69,71,0
3,69,34,20
3,64,71,0
3,61,59,0
3,57,47,10
3,52,36,10
3,52,113,16
3,57,104,0
3,61,97,8
3,64,89,6
3,69,46,4
3,52,71,218
3,57,67,8
3,61,66,4
3,64,61,0
3,69,34,0
3,69,86,0
3,64,114,0
3,61,100,10
3,57,80,4
3,52,36,8
3,57,59,4
3,61,59,0
3,69,34,0
3,64,71,0
3,61,59,4
3,57,47,6
3,52,36,10
3,52,114,4
3,57,114,8
3,61,114,6
3,64,114,0
3,69,71,0
3,69,34,20
3,64,71,0
3,61,59,0
3,57,47,10
3,52,36,10
3,52,113,0
3,57,104,8
3,61,97,6
3,64,89,4
3,69,46,8
3,52,71,210
3,57,67,8
3,61,66,4
3,64,61,0
3,69,34,0
3,69,86,0
3,64,114,0
3,61,100,10
3,57,80,4
3,52,36,8
3,57,59,4
3,61,59,0
3,69,34,0
3,64,71,0
3,61,59,4
3,57,47,6
3,52,36,10
3,52,114,4
3,57,114,8
3,61,114,6
3,64,114,0
3,69,71,0
3,69,34,20
3,64,71,0
3,61,59,0
3,57,47,10
3,52,36,10
3,50,113,16
3,57,104,0
3,62,97,8
3,66,89,6
3,69,46,4
3,50,71,4
3,57,67,8
3,62,66,4
3,66,61,0
3,69,34,0
3,69,86,0
3,66,114,0
3,62,100,10
3,57,80,4
3,50,36,8
3,57,59,4
3,62,59,0
3,69,34,0
3,66,71,0
3,62,59,4
3,57,47,6
3,50,36,10
3,50,114,4
3,57,114,8
3,62,114,6
3,66,114,0
3,69,71,0
3,69,34,20
3,66,71,0
3,62,59,0
3,57,47,10
3,50,36,10
3,50,113,0
3,57,104,8
3,62,97,6
3,66,89,4
3,69,46,8
3,50,71,210
3,57,67,8
3,62,66,4
3,66,61,0
3,69,34,0
3,69,86,0
3,66,114,0
3,62,100,10
3,57,80,4
3,50,36,8
3,57,59,4
3,62,59,0
3,69,34,0
3,66,71,0
