track,note,velocity,time
2,36,105,3072
2,36,105,360
2,36,105,360
2,36,105,360
2,36,105,360
2,36,105,360
2,36,105,360
2,36,105,360
2,36,105,360
2,36,105,360
2,36,105,360
2,36,105,360
2,36,105,360
2,36,105,360
2,36,105,360
2,36,105,360
2,36,105,360
2,36,105,360
2,36,105,360
2,36,105,360
2,36,105,360
2,36,105,360
2,36,105,360
2,36,105,360
2,36,105,360
2,36,105,360
2,36,105,360
2,36,105,360
2,36,105,360
2,36,105,360
2,36,105,360
2,36,105,360
2,36,105,360
2,36,105,360
2,36,105,360
2,36,105,360
2,36,105,360
2,36,105,360
2,36,105,360
2,36,105,360
2,36,105,360
2,36,105,360
2,36,105,360
2,36,105,360
2,36,105,360
2,36,105,360
2,36,105,360
2,36,105,360
2,36,105,360
2,36,105,360
2,36,105,360
2,36,105,360
2,36,105,360
2,36,105,360
2,36,105,360
2,36,105,360
2,36,105,360
2,36,105,360
2,36,105,360
2,36,105,360
2,36,105,360
2,36,105,360
2,36,105,360
2,36,105,360
2,36,105,360
2,36,105,360
2,36,105,360
2,36,105,360
2,36,105,360
2,36,105,360
2,36,105,360
2,36,105,360
2,36,105,360
2,36,105,360
2,36,105,360
2,36,105,360
2,36,105,360
2,36,105,360
2,36,105,360
2,36,105,360
2,36,105,360
2,36,105,360
2,36,105,360
2,36,105,360
2,36,105,360
2,36,105,360
2,36,105,360
2,36,105,360
2,36,105,360
2,36,105,360
2,36,105,360
2,36,105,360
2,36,105,360
2,36,105,360
2,36,105,360
2,36,105,360
2,36,105,360
2,36,105,360
2,36,105,360
2,36,105,360
2,36,105,360
2,36,105,360
2,36,105,360
2,36,105,360
2,36,105,360
2,36,105,360
2,36,105,360
2,36,105,360
2,36,105,360
2,36,105,360
2,36,105,360
2,36,105,360
2,36,105,360
2,36,105,360
2,36,105,360
2,36,105,360
2,36,105,360
2,36,105,360
2,36,105,360
2,36,105,360
2,36,105,360
2,36,105,360
2,36,105,360
2,36,105,360
2,36,105,360
2,36,105,360
2,36,105,360
2,36,105,360
2,36,105,360
2,36,105,360
2,36,105,360
2,36,105,360
2,36,105,360
2,36,105,360
2,36,105,360
2,36,105,360
2,36,105,360
2,36,105,360
2,36,105,360
2,36,105,360
2,36,105,360
2,36,105,360
2,36,105,360
2,36,105,360
2,36,105,360
2,36,105,360
2,36,105,360
2,36,105,360
2,36,105,360
2,36,105,360
2,36,105,360
2,36,105,360
2,36,105,360
2,36,105,360
2,36,105,360
2,36,105,360
2,36,105,360
2,36,105,360
2,36,105,360
2,36,105,360
2,36,105,360
2,36,105,360
2,36,105,360
2,36,105,360
2,36,105,360
2,36,105,360
2,36,105,360
2,36,105,360
2,36,105,360
2,36,105,360
2,36,105,360
2,36,105,360
2,36,105,360
2,36,105,360
2,36,105,360
2,36,105,360
2,36,105,360
2,36,105,360
2,36,105,360
2,36,105,360
2,36,105,360
2,36,105,360
2,36,105,360
2,36,105,360
2,36,105,360
2,36,105,360
2,36,105,360
2,36,105,360
2,36,105,360
2,36,105,360
2,36,105,360
2,36,105,360
2,36,105,360
2,36,105,360
2,36,105,360
2,36,105,360
2,36,105,360
2,36,105,360
2,36,105,360
2,36,105,360
2,36,105,360
2,36,105,360
2,36,105,360
2,36,105,360
2,36,105,360
2,36,105,360
2,36,105,360
2,36,105,360
2,36,105,360
2,36,105,360
2,36,105,360
2,36,105,360
2,36,105,360
2,36,105,360
2,36,105,360
2,36,105,360
2,36,105,360
2,36,105,360
2,36,105,360
2,36,105,360
2,36,105,360
2,36,105,360
2,36,105,360
2,36,105,360
2,36,105,360
2,36,105,360
2,36,105,360
2,36,105,360
2,36,105,360
2,36,105,360
2,36,105,360
2,36,105,360
2,36,105,360
2,36,105,360
2,36,105,360
2,36,105,360
2,36,105,360
2,36,105,360
2,36,105,360
2,36,105,360
2,36,105,360
2,36,105,360
2,36,105,360
2,36,105,360
2,36,105,360
2,36,105,360
2,36,105,360
2,36,105,360
2,36,105,360
2,36,105,360
2,36,105,360
2,36,105,360
2,36,105,360
2,36,105,360
2,36,105,360
2,36,105,360
2,36,105,360
2,36,105,360
2,36,105,360
2,36,105,360
2,36,105,360
2,36,105,360
2,36,105,360
2,36,105,360
2,36,105,360
2,36,105,360
2,36,105,360
2,36,105,360
2,36,105,360
2,36,105,360
2,36,105,360
2,36,105,360
2,36,105,360
2,36,105,360
2,36,105,360
2,36,105,360
2,36,105,360
2,36,105,360
2,36,105,360
2,36,105,360
2,36,105,360
2,36,105,360
2,36,105,360
2,36,105,360
2,36,105,360
2,36,105,360
2,36,105,360
2,36,105,360
2,36,105,360
2,36,105,360
2,36,105,360
2,36,105,360
2,36,105,360
2,36,105,360
2,36,105,360
2,36,105,360
2,36,105,360
2,36,105,360
2,36,105,360
2,36,105,360
2,36,105,360
2,36,105,360
2,36,105,360
2,36,105,360
2,36,105,360
2,36,105,360
2,36,105,360
2,36,105,360
2,36,105,360
2,36,105,360
2,36,105,360
2,36,105,360
2,36,105,360
2,36,105,360
2,36,105,360
2,36,105,360
2,36,105,360
2,36,105,360
2,36,105,360
2,36,105,360
2,36,105,360
2,36,105,360
3,38,105,3456
3,38,105,744
3,38,105,744
3,38,105,744
3,38,105,744
3,38,105,744
3,38,105,744
3,38,105,744
3,38,105,744
3,38,105,744
3,38,105,744
3,38,105,744
3,38,105,744
3,38,105,744
3,38,105,744
3,38,105,744
3,38,105,744
3,38,105,744
3,38,105,744
3,38,105,744
3,38,105,744
3,38,105,744
3,38,105,744
3,38,105,744
3,38,105,744
3,38,105,744
3,38,105,744
3,38,105,744
3,38,105,744
3,38,105,744
3,38,105,744
3,38,105,744
3,38,105,744
3,38,105,744
3,38,105,744
3,38,105,744
3,38,105,744
3,38,105,744
3,38,105,744
3,38,105,744
3,38,105,744
3,38,105,744
3,38,105,744
3,38,105,744
3,38,105,744
3,38,105,744
3,38,105,744
3,38,105,744
3,38,105,744
3,38,105,744
3,38,105,744
3,38,105,744
3,38,105,744
3,38,105,744
3,38,105,744
3,38,105,744
3,38,105,744
3,38,105,744
3,38,105,744
3,38,105,744
3,38,105,744
3,38,105,744
3,38,105,744
3,38,105,744
3,38,105,744
3,38,105,744
3,38,105,744
3,38,105,744
3,38,105,744
3,38,105,744
3,38,105,744
3,38,105,744
3,38,105,744
3,38,105,744
3,38,105,744
3,38,105,744
3,38,105,744
3,38,105,744
3,38,105,744
3,38,105,744
3,38,105,744
3,38,105,744
3,38,105,744
3,38,105,744
3,38,105,744
3,38,105,744
3,38,105,744
3,38,105,744
3,38,105,744
3,38,105,744
3,38,105,744
3,38,105,744
3,38,105,744
3,38,105,744
3,38,105,744
3,38,105,744
3,38,105,744
3,38,105,744
3,38,105,744
3,38,105,744
3,38,105,744
3,38,105,744
3,38,105,744
3,38,105,744
3,38,105,744
3,38,105,744
3,38,105,744
3,38,105,744
3,38,105,744
3,38,105,744
3,38,105,744
3,38,105,744
3,38,105,744
3,38,105,744
3,38,105,744
3,38,105,744
3,38,105,744
3,38,105,744
3,38,105,744
3,38,105,744
3,38,105,744
3,38,105,744
3,38,105,744
3,38,105,744
3,38,105,744
3,38,105,744
3,38,105,744
3,38,105,744
3,38,105,744
3,38,105,744
3,38,105,744
3,38,105,744
3,38,105,744
3,38,105,744
3,38,105,744
3,38,105,744
3,38,105,744
3,38,105,744
3,38,105,744
3,38,105,744
3,38,105,744
3,38,105,744
3,38,105,744
3,38,105,744
3,38,105,744
3,38,105,744
3,38,105,744
3,38,105,744
3,38,105,744
3,38,105,744
3,38,105,744
3,38,105,744
3,38,105,744
3,38,105,744
3,38,105,744
3,38,105,744
3,38,105,744
3,38,105,744
3,38,105,744
3,38,105,744
3,38,105,744
4,54,38,3072
4,54,38,72
4,54,48,72
4,54,38,168
4,54,38,72
4,54,48,72
4,54,38,168
4,54,38,72
4,54,48,72
4,54,38,168
4,54,38,72
4,54,48,72
4,54,38,168
4,54,38,72
4,54,48,72
4,54,38,168
4,54,38,72
4,54,48,72
4,54,38,168
4,54,38,72
4,54,48,72
4,54,38,168
4,54,38,72
4,54,48,72
4,54,38,168
4,54,38,72
4,54,48,72
4,54,38,168
4,54,38,72
4,54,48,72
4,54,38,168
4,54,38,72
4,54,48,72
4,54,38,168
4,54,38,72
4,54,48,72
4,54,38,168
4,54,38,72
4,54,48,72
4,54,38,168
4,54,38,72
4,54,48,72
4,54,38,168
4,54,38,72
4,54,48,72
4,54,38,168
4,54,38,72
4,54,48,72
4,54,38,168
4,54,38,72
4,54,48,72
4,54,38,168
4,54,38,72
4,54,48,72
4,54,38,168
4,54,38,72
4,54,48,72
4,54,38,168
4,54,38,72
4,54,48,72
4,54,38,168
4,54,38,72
4,54,48,72
4,54,38,168
4,54,38,72
4,54,48,72
4,54,38,168
4,54,38,72
4,54,48,72
4,54,38,168
4,54,38,72
4,54,48,72
4,54,38,168
4,54,38,72
4,54,48,72
4,54,38,168
4,54,38,72
4,54,48,72
4,54,38,168
4,54,38,72
4,54,48,72
4,54,38,168
4,54,38,72
4,54,48,72
4,54,38,168
4,54,38,72
4,54,48,72
4,54,38,168
4,54,38,72
4,54,48,72
4,54,38,168
4,54,38,72
4,54,48,72
4,54,38,168
4,54,38,72
4,54,48,72
4,54,38,168
4,54,38,72
4,54,48,72
4,54,38,168
4,54,38,72
4,54,48,72
4,54,38,168
4,54,38,72
4,54,48,72
4,54,38,168
4,54,38,72
4,54,48,72
4,54,38,168
4,54,38,72
4,54,48,72
4,54,38,168
4,54,38,72
4,54,48,72
4,54,38,168
4,54,38,72
4,54,48,72
4,54,38,168
4,54,38,72
4,54,48,72
4,54,38,12456
4,54,38,72
4,54,48,72
4,54,38,168
4,54,38,72
4,54,48,72
4,54,38,168
4,54,38,72
4,54,48,72
4,54,38,168
4,54,38,72
4,54,48,72
4,54,38,168
4,54,38,72
4,54,48,72
4,54,38,168
4,54,38,72
4,54,48,72
4,54,38,168
4,54,38,72
4,54,48,72
4,54,38,168
4,54,38,72
4,54,48,72
4,54,38,168
4,54,38,72
4,54,48,72
4,54,38,168
4,54,38,72
4,54,48,72
4,54,38,168
4,54,38,72
4,54,48,72
4,54,38,168
4,54,38,72
4,54,48,72
4,54,38,168
4,54,38,72
4,54,48,72
4,54,38,168
4,54,38,72
4,54,48,72
4,54,38,168
4,54,38,72
4,54,48,72
4,54,38,168
4,54,38,72
4,54,48,72
4,54,38,168
4,54,38,72
4,54,48,72
4,54,38,168
4,54,38,72
4,54,48,72
4,54,38,168
4,54,38,72
4,54,48,72
4,54,38,168
4,54,38,72
4,54,48,72
4,54,38,168
4,54,38,72
4,54,48,72
4,54,38,168
4,54,38,72
4,54,48,72
4,54,38,168
4,54,38,72
4,54,48,72
4,54,38,168
4,54,38,72
4,54,48,72
4,54,38,168
4,54,38,72
4,54,48,72
4,54,38,168
4,54,38,72
4,54,48,72
4,54,38,168
4,54,38,72
4,54,48,72
4,54,38,168
4,54,38,72
4,54,48,72
4,54,38,168
4,54,38,72
4,54,48,72
4,54,38,168
4,54,38,72
4,54,48,72
4,54,38,168
4,54,38,72
4,54,48,72
4,54,38,168
4,54,38,72
4,54,48,72
4,54,38,168
4,54,38,72
4,54,48,72
4,54,38,168
4,54,38,72
4,54,48,72
4,54,38,168
4,54,38,72
4,54,48,72
4,54,38,168
4,54,38,72
4,54,48,72
4,54,38,168
4,54,38,72
4,54,48,72
4,54,38,168
4,54,38,72
4,54,48,72
4,54,38,168
4,54,38,72
4,54,48,72
4,54,38,168
4,54,38,72
4,54,48,72
4,54,38,168
4,54,38,72
4,54,48,72
4,54,38,168
4,54,38,72
4,54,48,72
4,54,38,168
4,54,38,72
4,54,48,72
4,54,38,168
4,54,38,72
4,54,48,72
4,54,38,168
4,54,38,72
4,54,48,72
4,54,38,168
4,54,38,72
4,54,48,72
4,54,38,168
4,54,38,72
4,54,48,72
4,54,38,168
4,54,38,72
4,54,48,72
4,54,38,168
4,54,38,72
4,54,48,72
4,54,38,168
4,54,38,72
4,54,48,72
4,54,38,168
4,54,38,72
4,54,48,72
4,54,38,168
4,54,38,72
4,54,48,72
4,54,38,168
4,54,38,72
4,54,48,72
4,54,38,168
4,54,38,72
4,54,48,72
4,54,38,168
4,54,38,72
4,54,48,72
4,54,38,168
4,54,38,72
4,54,48,72
4,54,38,168
4,54,38,72
4,54,48,72
4,54,38,168
4,54,38,72
4,54,48,72
4,54,38,168
4,54,38,72
4,54,48,72
4,54,38,168
4,54,38,72
4,54,48,72
4,54,38,168
4,54,38,72
4,54,48,72
4,54,38,168
4,54,38,72
4,54,48,72
4,54,38,168
4,54,38,72
4,54,48,72
4,54,38,168
4,54,38,72
4,54,48,72
4,54,38,168
4,54,38,72
4,54,48,72
4,54,38,168
4,54,38,72
4,54,48,72
4,54,38,168
4,54,38,72
4,54,48,72
4,54,38,168
4,54,38,72
4,54,48,72
4,54,38,13992
4,54,38,72
4,54,48,72
4,54,38,168
4,54,38,72
4,54,48,72
4,54,38,168
4,54,38,72
4,54,48,72
4,54,38,168
4,54,38,72
4,54,48,72
4,54,38,168
4,54,38,72
4,54,48,72
4,54,38,168
4,54,38,72
4,54,48,72
4,54,38,168
4,54,38,72
4,54,48,72
4,54,38,168
4,54,38,72
4,54,48,72
4,54,38,168
4,54,38,72
4,54,48,72
4,54,38,168
4,54,38,72
4,54,48,72
4,54,38,168
4,54,38,72
4,54,48,72
4,54,38,168
4,54,38,72
4,54,48,72
4,54,38,168
4,54,38,72
4,54,48,72
4,54,38,168
4,54,38,72
4,54,48,72
4,54,38,168
4,54,38,72
4,54,48,72
4,54,38,168
4,54,38,72
4,54,48,72
4,54,38,168
4,54,38,72
4,54,48,72
4,54,38,168
4,54,38,72
4,54,48,72
4,54,38,168
4,54,38,72
4,54,48,72
4,54,38,168
4,54,38,72
4,54,48,72
4,54,38,168
4,54,38,72
4,54,48,72
4,54,38,168
4,54,38,72
4,54,48,72
4,54,38,168
4,54,38,72
4,54,48,72
4,54,38,168
4,54,38,72
4,54,48,72
4,54,38,168
4,54,38,72
4,54,48,72
4,54,38,168
4,54,38,72
4,54,48,72
4,54,38,168
4,54,38,72
4,54,48,72
4,54,38,168
4,54,38,72
4,54,48,72
4,54,38,168
4,54,38,72
4,54,48,72
4,54,38,168
4,54,38,72
4,54,48,72
4,54,38,168
4,54,38,72
4,54,48,72
4,54,38,168
4,54,38,72
4,54,48,72
4,54,38,168
4,54,38,72
4,54,48,72
4,54,38,168
4,54,38,72
4,54,48,72
4,54,38,168
4,54,38,72
4,54,48,72
4,54,38,168
4,54,38,72
4,54,48,72
4,54,38,168
4,54,38,72
4,54,48,72
4,54,38,168
4,54,38,72
4,54,48,72
4,54,38,168
4,54,38,72
4,54,48,72
4,54,38,168
4,54,38,72
4,54,48,72
4,54,38,168
4,54,38,72
4,54,48,72
4,54,38,168
4,54,38,72
4,54,48,72
4,54,38,168
4,54,38,72
4,54,48,72
4,54,38,168
4,54,38,72
4,54,48,72
4,54,38,168
4,54,38,72
4,54,48,72
4,54,38,168
4,54,38,72
4,54,48,72
4,54,38,168
4,54,38,72
4,54,48,72
4,54,38,168
4,54,38,72
4,54,48,72
4,54,38,168
4,54,38,72
4,54,48,72
4,54,38,168
4,54,38,72
4,54,48,72
4,54,38,168
4,54,38,72
4,54,48,72
4,54,38,168
4,54,38,72
4,54,48,72
4,54,38,168
4,54,38,72
4,54,48,72
4,54,38,168
4,54,38,72
4,54,48,72
4,54,38,168
4,54,38,72
4,54,48,72
4,54,38,168
4,54,38,72
4,54,48,72
4,54,38,168
4,54,38,72
4,54,48,72
4,54,38,168
4,54,38,72
4,54,48,72
4,54,38,168
4,54,38,72
4,54,48,72
4,54,38,168
4,54,38,72
4,54,48,72
4,54,38,168
4,54,38,72
4,54,48,72
4,54,38,168
4,54,38,72
4,54,48,72
4,54,38,168
4,54,38,72
4,54,48,72
4,54,38,168
4,54,38,72
4,54,48,72
4,54,38,168
