track,note,velocity,time
1,69,68,2672
1,66,44,0
1,74,61,0
1,66,44,74
1,69,68,192
1,74,70,154
1,81,75,318
1,74,75,0
1,78,74,324
1,69,74,0
1,74,72,310
1,66,72,0
1,64,46,474
1,69,68,0
1,73,51,0
1,81,75,910
1,88,75,0
1,76,73,310
1,85,73,0
1,81,71,314
1,73,71,0
1,74,72,512
1,69,50,0
1,71,61,640
1,68,27,0
1,64,63,0
1,81,66,636
1,90,46,160
1,88,56,12
1,85,55,10
1,81,83,76
1,78,75,52
1,76,61,0
1,64,63,0
1,69,74,6
1,73,54,26
1,64,41,976
1,69,41,6
1,73,41,40
1,76,42,50
1,68,56,2482
1,71,62,0
1,76,65,26
1,66,62,972
1,74,62,0
1,69,62,0
1,69,54,94
1,73,54,4
1,64,54,2
1,73,54,104
1,64,54,6
1,69,54,0
1,85,58,458
1,83,59,124
1,81,61,120
1,76,62,138
1,73,63,142
1,71,65,154
1,69,66,140
1,61,67,140
1,69,87,0
1,64,74,0
1,64,58,1642
1,69,66,38
1,73,72,46
1,62,27,2908
1,68,56,8
1,71,46,36
1,74,42,24
1,64,46,552
1,69,83,26
1,73,58,54
1,76,55,870
1,68,72,2
1,74,70,4
1,71,85,0
1,80,47,286
1,83,47,2
1,78,47,2
1,76,47,10
1,73,5,80
1,69,92,4
1,64,72,2
1,65,63,306
1,69,85,26
1,74,83,42
1,64,66,456
1,69,81,32
1,73,72,0
1,64,68,470
1,69,85,22
1,73,64,48
1,65,58,126
1,68,93,36
1,73,75,36
1,66,60,418
1,69,70,48
1,74,68,26
1,66,58,798
1,71,74,38
1,74,76,20
1,66,44,24
1,70,54,24
1,73,58,26
1,66,56,384
1,71,64,38
1,74,70,24
1,64,55,934
1,68,77,8
1,71,83,60
1,74,21,4
1,64,56,408
1,69,76,30
1,73,72,34
1,64,53,298
1,68,72,16
1,71,81,54
1,74,21,2
1,64,50,330
1,69,76,24
1,73,51,32
1,65,56,278
1,69,76,22
1,74,72,2
1,64,66,342
1,69,72,26
1,73,51,38
1,64,55,778
1,69,81,28
1,73,77,22
1,66,20,282
1,69,85,32
1,74,81,6
1,66,54,10
1,74,56,8
1,71,68,10
1,66,12,76
1,64,68,468
1,69,70,44
1,73,56,26
1,73,58,510
1,66,69,2
1,69,87,10
1,66,54,108
1,74,55,4
1,71,83,8
1,64,70,196
1,68,46,0
1,74,46,10
1,71,83,2
1,73,51,220
1,69,81,8
1,64,42,4
1,81,75,182
1,90,74,16
1,88,73,192
1,85,72,184
1,81,71,192
1,78,70,64
1,76,69,24
1,73,68,192
1,64,63,166
1,69,72,34
1,64,55,2986
1,69,76,20
1,73,75,52
1,76,52,22
1,85,58,908
1,88,64,2
1,83,64,4
1,93,56,8
1,68,60,106
1,71,70,34
1,76,74,32
1,66,75,1198
1,74,72,2
1,69,76,2
1,69,64,70
1,64,63,4
1,73,48,8
1,69,66,102
1,64,66,2
1,73,69,2
1,64,55,3230
1,69,76,20
1,73,75,52
1,76,52,22
1,85,58,908
1,88,64,2
1,83,64,4
1,93,56,8
1,68,60,106
1,71,70,34
1,76,74,32
1,61,69,1138
1,64,74,58
1,69,61,22
1,64,63,478
1,68,83,32
1,71,74,56
1,73,5,152
1,69,92,4
1,64,72,2
1,65,63,306
1,69,85,26
1,74,83,42
1,64,66,456
1,69,81,32
1,73,72,0
1,76,90,872
1,83,74,194
1,88,92,0
1,85,77,0
1,64,68,470
1,69,85,4
1,73,64,40
1,65,58,126
1,68,93,36
1,73,75,36
1,66,60,418
1,69,70,48
1,74,68,26
1,86,70,172
1,88,74,56
1,93,74,0
1,90,78,192
1,86,82,0
1,74,81,152
1,76,81,202
1,81,81,0
1,78,81,192
1,74,81,6
1,66,58,522
1,71,74,38
1,74,76,20
1,66,44,24
1,70,54,24
1,73,58,26
1,66,56,384
1,71,64,38
1,74,70,24
1,95,67,812
1,90,68,72
1,88,69,34
1,86,70,64
1,83,70,32
1,64,55,10
1,68,77,4
1,71,83,60
1,74,21,4
1,64,56,408
1,69,76,30
1,73,72,34
1,64,53,298
1,68,72,16
1,71,81,54
1,74,21,2
1,92,69,2
1,90,70,192
1,88,71,184
1,83,72,176
1,80,73,192
1,78,73,56
1,76,74,6
1,71,75,112
1,64,50,120
1,69,76,24
1,73,51,32
1,65,56,278
1,69,76,22
1,74,72,2
1,64,66,342
1,69,72,26
1,73,51,38
1,81,70,652
1,88,70,10
1,85,67,0
1,93,64,16
1,88,64,40
1,81,90,16
1,85,46,10
1,76,61,12
1,64,55,280
1,69,81,28
1,73,77,16
1,88,58,12
1,81,19,0
1,66,20,282
1,69,85,32
1,74,81,6
1,74,90,872
1,81,90,42
1,76,90,0
1,78,88,178
1,81,86,142
1,86,86,0
1,88,84,2
1,81,82,124
1,90,82,0
1,86,82,0
1,66,54,10
1,74,56,8
1,71,68,10
1,66,12,76
1,64,68,468
1,69,70,44
1,73,56,26
1,73,58,510
1,66,69,2
1,69,87,10
1,66,54,108
1,74,55,4
1,71,83,8
1,64,70,196
1,68,46,0
1,74,46,10
1,71,83,2
1,73,51,220
1,69,81,8
1,64,42,4
1,81,75,182
1,90,74,16
1,88,73,192
1,85,72,184
1,81,71,192
1,78,70,64
1,76,69,24
1,73,68,192
1,64,63,166
1,69,72,34
1,66,54,4
1,74,55,4
1,71,83,8
1,64,70,196
1,68,46,0
1,74,46,10
1,71,83,2
2,38,120,2272
2,38,120,158
2,38,120,120
2,45,120,34
2,38,120,20
2,38,120,146
2,38,120,118
2,45,120,384
2,33,120,0
2,33,120,136
2,33,120,120
2,40,120,36
2,33,120,32
2,33,120,148
2,35,120,192
2,37,120,362
2,38,120,36
2,38,120,154
2,38,120,104
2,45,120,384
2,40,120,42
2,40,120,146
2,40,120,112
2,47,120,384
2,33,120,14
2,33,120,112
2,33,120,108
2,40,120,384
2,33,120,18
2,33,120,126
2,33,120,106
2,40,120,384
2,33,120,82
2,33,120,160
2,33,120,114
2,40,120,384
2,33,120,8
2,33,120,178
2,33,120,114
2,40,120,384
2,33,120,8
2,33,120,164
2,33,120,110
2,40,120,4
2,33,120,6
2,33,120,174
2,33,120,118
2,40,120,384
2,28,120,380
2,28,120,156
2,28,120,114
2,35,120,6
2,28,120,26
2,28,120,160
2,28,120,110
2,35,120,384
2,38,120,32
2,33,120,90
2,33,120,128
2,40,120,10
2,33,120,38
2,33,120,134
2,40,120,4
2,40,120,112
2,40,120,150
2,33,120,40
2,33,120,160
2,33,120,114
2,40,120,384
2,33,120,8
2,33,120,178
2,33,120,114
2,40,120,384
2,33,120,8
2,33,120,164
2,33,120,110
2,40,120,4
2,33,120,6
2,33,120,174
2,33,120,118
2,40,120,384
2,28,120,380
2,28,120,156
2,28,120,114
2,35,120,6
2,28,120,26
2,28,120,160
2,28,120,110
2,35,120,384
2,33,112,32
2,33,120,150
2,33,120,124
2,40,120,52
2,28,120,4
2,28,120,56
2,30,119,12
2,32,122,88
2,33,120,42
2,33,120,130
2,37,120,0
2,40,120,4
2,38,120,2
2,38,120,134
2,41,120,192
2,45,120,378
2,33,120,16
2,33,120,138
2,37,120,4
2,40,120,384
2,33,120,18
2,33,120,122
2,37,120,192
2,40,120,382
2,33,120,8
2,33,120,150
2,37,120,192
2,40,120,8
2,37,120,0
2,37,120,130
2,41,120,16
2,44,120,0
2,38,120,32
2,38,120,140
2,42,120,192
2,45,120,370
2,38,120,26
2,45,120,10
2,38,120,18
2,37,120,24
2,35,120,384
2,35,120,110
2,38,120,192
2,42,120,0
2,30,120,16
2,30,120,114
2,34,120,2
2,37,120,384
2,35,120,22
2,35,120,142
2,38,120,192
2,42,120,354
2,35,120,0
2,35,120,124
2,38,120,192
2,42,120,362
2,28,120,10
2,28,120,128
2,32,120,192
2,35,120,24
2,28,120,0
2,28,120,126
2,30,120,192
2,32,120,24
2,33,120,34
2,33,120,126
2,37,120,192
2,40,120,362
2,28,120,6
2,28,120,102
2,30,120,10
2,32,120,12
2,33,120,384
2,33,120,130
2,37,120,0
2,40,120,4
2,38,120,2
2,38,120,134
2,41,120,192
2,45,120,378
2,33,120,16
2,33,120,138
2,37,120,4
2,40,120,384
2,33,120,18
2,33,120,122
2,37,120,192
2,40,120,382
2,33,120,8
2,33,120,150
2,37,120,192
2,40,120,8
2,33,116,0
2,42,120,96
2,40,120,14
2,33,120,6
2,38,120,20
2,38,120,122
2,42,120,2
2,45,122,16
2,38,120,0
2,38,120,142
2,42,120,0
2,45,120,30
2,35,120,24
2,35,120,94
2,38,120,192
2,42,120,4
2,35,120,28
2,35,120,70
2,38,120,192
2,42,120,14
2,33,120,20
2,33,120,126
2,37,120,192
2,40,120,34
2,30,120,0
2,30,120,76
2,33,120,6
2,37,120,24
2,35,120,0
2,35,120,120
2,38,120,4
2,42,120,16
2,28,120,0
2,28,120,76
2,30,120,0
2,32,120,4
2,33,120,2
2,33,120,88
2,33,120,86
2,40,120,34
2,33,122,0
2,33,122,146
2,40,125,192
2,28,122,34
2,33,120,48
2,33,120,160
2,33,120,114
2,40,120,384
2,33,120,8
2,33,120,178
2,33,120,114
2,40,120,384
2,33,120,8
2,33,120,164
2,33,120,110
2,40,120,4
2,33,120,6
2,33,120,174
2,33,120,118
2,40,120,384
2,28,120,380
2,28,120,156
2,28,120,114
2,35,120,6
2,28,120,26
2,28,120,160
2,28,120,110
2,35,120,384
2,38,120,32
2,33,120,90
2,33,120,128
2,40,120,10
2,33,120,38
2,33,120,134
2,40,120,4
2,40,120,112
2,40,120,150
2,33,120,40
2,33,120,160
2,33,120,114
2,40,120,384
2,33,120,8
2,33,120,178
2,33,120,114
2,40,120,384
2,33,120,8
2,33,120,164
2,33,120,110
2,40,120,4
2,33,120,6
2,33,120,174
2,33,120,118
2,40,120,384
2,28,120,380
2,28,120,156
2,28,120,114
2,35,120,6
2,28,120,26
2,28,120,160
2,28,120,110
2,35,120,384
2,33,112,32
2,33,120,150
2,33,120,124
2,40,120,52
2,28,120,4
2,28,120,56
2,30,119,12
2,32,122,88
2,33,120,42
2,33,120,130
2,37,120,0
2,40,120,4
2,38,120,2
2,38,120,134
2,41,120,192
2,45,120,378
2,33,120,16
2,33,120,138
2,37,120,4
2,40,120,384
2,33,120,18
2,33,120,122
2,37,120,192
2,40,120,382
2,33,120,8
2,33,120,150
2,37,120,192
2,40,120,8
2,37,120,0
2,37,120,130
2,41,120,16
2,44,120,0
2,38,120,32
2,38,120,140
2,42,120,192
2,45,120,370
2,38,120,26
2,45,120,10
2,38,120,18
2,37,120,24
2,35,120,384
2,35,120,110
2,38,120,192
2,42,120,0
2,30,120,16
2,30,120,114
2,34,120,2
2,37,120,384
2,35,120,22
2,35,120,142
2,38,120,192
2,42,120,354
2,35,120,0
2,35,120,124
2,38,120,192
2,42,120,362
2,28,120,10
2,28,120,128
2,32,120,192
2,35,120,24
2,28,120,0
2,28,120,126
2,30,120,192
2,32,120,24
2,33,120,34
2,33,120,126
2,37,120,192
2,40,120,362
2,28,120,6
2,28,120,102
2,30,120,10
2,32,120,12
2,33,120,384
2,33,120,130
2,37,120,0
2,40,120,4
2,38,120,2
2,38,120,134
2,41,120,192
2,45,120,378
2,33,120,16
2,33,120,138
2,37,120,4
2,40,120,384
2,33,120,18
2,33,120,122
2,37,120,192
2,40,120,382
2,33,120,8
2,33,120,150
2,37,120,192
2,40,120,8
2,33,116,0
2,42,120,96
2,40,120,14
2,33,120,6
2,38,120,20
2,38,120,122
2,42,120,2
2,45,122,16
2,38,120,0
2,38,120,142
2,42,120,0
2,45,120,30
2,35,120,24
2,35,120,94
2,38,120,192
2,42,120,4
2,35,120,28
2,35,120,70
2,38,120,192
2,42,120,14
2,33,120,20
2,33,120,126
2,37,120,192
2,40,120,34
2,30,120,0
2,30,120,76
2,33,120,6
2,37,120,24
2,35,120,0
2,35,120,120
2,38,120,4
2,42,120,16
2,28,120,0
2,28,120,76
2,30,120,0
2,32,120,4
2,33,120,2
2,33,120,88
2,33,120,86
2,40,120,34
2,33,122,0
2,33,122,146
2,40,125,192
2,28,122,34
2,35,120,48
2,35,120,120
2,38,120,4
2,42,120,16
2,28,120,0
2,28,120,76
2,30,120,0
2,32,120,4
2,33,127,2
2,33,127,140
2,37,127,20
2,40,127,12
2,38,126,8
2,38,126,148
2,41,126,8
2,45,125,384
2,33,125,32
2,33,125,176
2,40,125,192
2,28,125,2
2,33,127,20
3,50,98,2180
3,57,104,8
3,62,110,8
3,66,116,8
3,69,122,8
3,66,66,0
3,62,61,2
3,57,56,8
3,50,52,6
3,50,93,166
3,57,85,2
3,62,78,0
3,66,71,8
3,69,125,2
3,66,105,10
3,62,85,2
3,57,69,2
3,50,58,148
3,57,47,6
3,62,36,0
3,69,52,2
3,66,61,2
3,62,51,2
3,57,41,10
3,50,107,162
3,57,106,0
3,62,106,0
3,66,105,4
3,69,105,8
3,50,98,192
3,57,104,8
3,62,110,0
3,66,116,2
3,69,122,6
3,66,66,0
3,62,61,2
3,57,56,8
3,50,52,6
3,50,93,4
3,57,85,2
3,62,78,0
3,66,71,8
3,69,125,2
3,66,105,10
3,62,85,2
3,57,69,2
3,50,58,148
3,57,47,6
3,62,36,0
3,69,52,2
3,66,61,2
3,62,51,2
3,57,41,10
3,50,107,162
3,57,106,0
3,62,106,0
3,66,105,4
3,69,105,8
3,52,98,192
3,57,104,8
3,61,110,0
3,64,116,2
3,69,122,6
3,64,66,0
3,61,61,2
3,57,56,8
3,52,52,6
3,52,93,166
3,57,85,2
3,61,78,0
3,64,71,8
3,69,125,2
3,64,105,10
3,61,85,2
3,57,69,2
3,52,58,148
3,57,47,6
3,61,36,0
3,69,52,2
3,64,61,2
3,61,51,2
3,57,41,10
3,52,107,162
3,57,106,0
3,61,106,0
3,64,105,4
3,69,105,8
3,52,98,192
3,57,104,8
3,61,110,0
3,64,116,2
3,69,122,6
3,64,66,0
3,61,61,2
3,57,56,8
3,52,52,6
3,52,93,4
3,57,85,2
3,61,78,0
3,64,71,8
3,69,125,2
3,64,105,10
3,61,85,2
3,57,69,2
3,52,58,148
3,57,47,6
3,61,36,0
3,69,52,2
3,64,61,2
3,61,51,2
3,57,41,10
3,52,107,162
3,57,106,0
3,61,106,0
3,64,105,4
3,69,105,8
3,50,98,192
3,57,104,8
3,62,110,0
3,66,116,2
3,69,122,6
3,66,66,0
3,62,61,2
3,57,56,8
3,50,52,6
3,50,93,166
3,57,85,2
3,62,78,0
3,66,71,8
3,69,125,2
3,66,105,10
3,62,85,2
3,57,69,2
3,50,58,148
3,57,47,6
3,62,36,0
3,69,52,2
3,66,61,2
3,62,51,2
3,57,41,10
3,50,107,162
3,57,106,0
3,62,106,0
3,66,105,4
3,69,105,8
3,52,98,192
3,56,104,8
3,62,110,0
3,64,116,2
3,68,122,6
3,64,66,0
3,62,61,2
3,56,56,8
3,52,52,6
3,52,93,166
3,56,85,2
3,62,78,0
3,64,71,8
3,68,125,2
3,64,105,10
3,62,85,2
3,56,69,2
3,52,58,148
3,56,47,6
3,62,36,0
3,68,52,2
3,64,61,2
3,62,51,2
3,56,41,10
3,52,107,162
3,56,106,0
3,62,106,0
3,64,105,4
3,68,105,8
3,52,98,192
3,57,104,8
3,61,110,0
3,64,116,2
3,69,122,6
3,64,66,0
3,61,61,2
3,57,56,8
3,52,52,6
3,52,93,4
3,57,85,2
3,61,78,0
3,64,71,8
3,69,125,2
3,64,105,10
3,61,85,2
3,57,69,2
3,52,58,148
3,57,47,6
3,61,36,0
3,69,52,2
3,64,61,2
3,61,51,2
3,57,41,10
3,52,107,162
3,57,106,0
3,61,106,0
3,64,105,4
3,69,105,8
3,52,98,192
3,57,104,8
3,61,110,0
3,64,116,2
3,69,122,6
3,64,66,0
3,61,61,2
3,57,56,8
3,52,52,6
3,52,93,4
3,57,85,2
3,61,78,0
3,64,71,8
3,69,125,2
3,64,105,10
3,61,85,2
3,57,69,2
3,52,58,148
3,57,47,6
3,61,36,0
3,69,52,2
