track,note,velocity,time
0,79,84,2
0,76,89,0
0,74,89,0
0,79,94,24
0,76,97,0
0,74,97,0
0,67,82,62
0,72,84,24
0,79,87,0
0,76,89,0
0,72,109,24
0,76,109,0
0,79,97,0
0,67,80,63
0,74,82,24
0,76,87,0
0,79,87,0
0,76,87,16
0,79,82,0
0,76,92,8
0,74,99,0
0,79,92,0
0,67,91,63
0,76,82,24
0,72,74,0
0,79,75,0
0,76,97,24
0,72,97,0
0,79,97,0
0,67,85,63
0,74,82,22
0,76,89,0
0,79,99,0
0,74,87,0
0,74,80,22
0,76,103,2
0,74,103,0
0,79,92,0
0,67,74,7
0,67,80,2
0,72,84,22
0,72,87,0
0,76,87,0
0,79,74,0
0,72,77,22
0,76,97,2
0,79,92,0
0,72,90,0
0,67,74,8
0,67,82,1
0,74,77,0
0,76,82,2
0,74,84,0
0,79,80,0
0,52,74,1
0,55,74,20
0,62,74,0
0,36,82,2
0,67,84,0
0,64,77,0
0,62,89,0
0,67,92,24
0,64,87,0
0,62,97,0
0,62,74,1
0,67,93,2
0,62,87,0
0,64,87,0
0,60,75,15
0,62,74,10
0,67,94,2
0,62,92,0
0,64,92,0
0,64,74,12
0,36,75,2
0,62,82,0
0,60,75,0
0,64,82,0
0,67,74,0
0,59,77,1
0,47,87,2
0,59,87,0
0,64,93,0
0,66,80,0
0,64,109,3
0,59,94,0
0,66,97,0
0,47,87,13
0,63,93,0
0,59,80,0
0,66,93,0
0,63,94,24
0,59,97,0
0,66,94,0
0,59,75,30
0,62,87,1
0,42,84,1
0,66,74,1
0,35,84,2
0,66,80,0
0,57,84,0
0,62,99,0
0,62,97,3
0,57,85,0
0,66,87,0
0,62,84,24
0,66,82,0
0,57,74,0
0,59,74,62
0,62,84,22
0,66,92,2
0,62,97,0
0,57,84,0
0,67,82,1
0,40,82,3
0,67,89,0
0,62,99,0
0,59,82,0
0,67,90,3
0,62,97,0
0,59,87,0
0,64,82,24
0,59,80,0
0,67,75,0
0,64,99,24
0,67,97,0
0,59,109,0
0,43,82,1
0,52,74,22
0,36,84,2
0,64,89,0
0,67,93,0
0,55,84,17
0,67,92,24
0,64,92,0
0,62,75,1
0,67,84,6
0,64,84,0
0,62,84,0
0,67,92,6
0,64,99,0
0,62,103,0
0,43,74,3
0,52,77,22
0,67,84,2
0,48,84,0
0,60,74,0
0,64,99,0
0,55,82,26
0,67,90,24
0,60,85,0
0,64,103,0
0,64,77,56
0,62,80,1
0,64,87,2
0,67,84,0
0,62,93,0
0,67,97,3
0,62,103,0
0,64,109,0
0,52,77,22
0,43,84,2
0,59,82,0
0,55,84,0
0,62,84,0
0,55,82,16
0,62,94,24
0,55,94,0
0,59,92,0
0,62,84,1
0,62,89,6
0,57,74,0
0,55,74,0
0,66,74,0
0,66,90,3
0,57,84,0
0,62,99,0
0,62,93,2
0,57,82,0
0,66,80,0
0,52,74,1
0,55,74,20
0,35,39,32
0,50,90,1
0,50,84,0
0,49,97,2
0,49,99,0
0,35,90,2
0,74,104,3
0,74,93,4
0,67,64,0
0,64,57,0
0,62,69,0
0,62,74,0
0,48,99,2
0,36,82,0
0,67,84,0
0,64,77,0
0,62,89,0
0,44,60,2
0,35,99,0
0,67,72,2
0,64,67,0
0,62,77,0
0,44,79,0
0,67,92,1
0,64,87,0
0,62,97,0
0,67,73,1
0,62,67,0
0,64,67,0
0,62,74,0
0,55,92,0
0,67,93,0
0,62,87,0
0,64,87,0
0,44,42,2
0,35,59,0
0,60,75,2
0,72,89,2
0,72,89,1
0,67,74,2
0,62,72,0
0,64,72,0
0,44,84,0
0,62,74,0
0,67,94,1
0,62,92,0
0,64,92,0
0,62,62,6
0,60,55,0
0,64,62,0
0,67,54,0
0,64,74,0
0,36,75,2
0,62,82,0
0,60,75,0
0,64,82,0
0,67,74,0
0,48,50,0
0,35,76,2
0,71,89,1
0,71,84,0
0,59,67,0
0,64,73,0
0,66,60,0
0,59,77,0
0,47,87,2
0,59,87,0
0,64,93,0
0,66,80,0
0,47,94,0
0,44,60,1
0,35,99,0
0,64,89,1
0,59,74,0
0,66,77,0
0,44,79,0
0,64,109,1
0,59,94,0
0,66,97,0
0,63,73,2
0,59,60,0
0,66,73,0
0,47,87,2
0,63,93,0
0,59,80,0
0,66,93,0
0,54,92,0
0,44,42,2
0,35,59,0
0,63,74,3
0,59,77,0
0,66,74,0
0,44,84,0
0,63,94,1
0,59,97,0
0,66,94,0
0,59,75,2
0,62,87,1
0,42,84,1
0,35,76,1
0,71,84,12
0,71,99,0
0,66,60,1
0,57,64,0
0,62,79,0
0,66,74,0
0,47,109,2
0,35,84,0
0,66,80,0
0,57,84,0
0,62,99,0
0,44,60,2
0,35,99,0
0,62,77,1
0,57,65,0
0,66,67,0
0,44,79,0
0,62,97,1
0,57,85,0
0,66,87,0
0,78,80,6
0,78,82,0
0,62,64,2
0,66,62,0
0,57,54,0
0,54,90,2
0,62,84,0
0,66,82,0
0,57,74,0
0,44,42,2
0,35,59,0
0,59,74,5
0,66,72,4
0,62,77,0
0,57,64,0
0,44,84,0
0,62,84,0
0,66,92,1
0,62,97,0
0,57,84,0
0,67,82,1
0,35,76,1
0,79,84,6
0,79,82,2
0,67,69,1
0,62,79,0
0,59,62,0
0,52,97,2
0,40,82,0
0,67,89,0
0,62,99,0
0,59,82,0
0,44,60,2
0,35,99,0
0,78,84,2
0,78,82,2
0,67,70,1
0,62,77,0
0,59,67,0
0,44,79,0
0,67,90,1
0,62,97,0
0,59,87,0
0,52,92,6
0,76,84,3
0,76,84,2
0,64,62,2
0,59,60,0
0,67,55,0
0,64,82,0
0,59,80,0
0,67,75,0
0,47,92,0
0,44,42,0
0,35,59,0
0,64,79,5
0,67,77,0
0,59,89,0
0,44,84,0
0,64,99,1
0,67,97,0
0,59,109,0
0,52,103,0
0,43,82,1
0,35,76,1
0,76,104,2
0,76,104,1
0,52,74,2
0,64,69,0
0,67,73,0
0,48,85,0
0,36,84,0
0,64,89,0
0,67,93,0
0,44,60,2
0,35,99,0
0,55,84,3
0,67,72,2
0,64,72,0
0,44,79,0
0,67,92,1
0,64,92,0
0,62,75,1
0,74,93,3
0,74,93,2
0,67,64,2
0,64,64,0
0,62,64,0
0,67,84,2
0,64,84,0
0,62,84,0
0,55,84,0
0,44,42,1
0,35,59,0
0,67,72,4
0,64,79,0
0,62,83,0
0,44,84,0
0,67,92,1
0,64,99,0
0,62,103,0
0,48,50,2
0,43,74,0
0,35,76,0
0,79,99,3
0,79,99,0
0,67,64,2
0,60,54,0
0,64,79,0
0,52,77,0
0,48,94,2
0,67,84,0
0,48,84,0
0,60,74,0
0,64,99,0
0,44,60,2
0,35,99,0
0,55,82,3
0,67,70,2
0,60,65,0
0,64,83,0
0,44,79,0
0,67,90,1
0,60,85,0
0,64,103,0
0,64,77,10
0,74,99,0
0,74,99,0
0,64,67,1
0,67,64,0
0,62,73,0
0,62,80,0
0,55,97,1
0,64,87,0
0,67,84,0
0,62,93,0
0,44,42,2
0,35,59,0
0,67,77,1
0,62,83,0
0,64,89,0
0,44,84,0
0,67,97,1
0,62,103,0
0,64,109,0
0,48,50,2
0,35,76,1
0,74,111,3
0,74,111,0
0,67,67,2
0,59,62,0
0,62,79,0
0,52,77,0
0,43,84,2
0,67,87,0
0,59,82,0
0,62,99,0
0,43,92,0
0,44,60,2
0,35,99,0
0,55,82,1
0,67,64,2
0,59,64,0
0,62,83,0
0,44,79,0
0,67,84,1
0,59,84,0
0,62,103,0
0,62,84,1
0,62,69,4
0,66,60,0
0,57,62,0
0,50,99,2
0,62,89,0
0,66,80,0
0,57,82,0
0,44,42,1
0,35,59,0
0,66,72,1
0,57,70,0
0,62,83,0
0,44,84,0
0,66,92,1
0,57,90,0
0,62,103,0
0,50,50,0
0,35,76,1
0,57,64,2
0,65,64,0
0,62,79,0
0,57,84,2
0,65,84,0
0,62,99,0
0,55,97,0
0,35,99,2
0,51,49,0
0,57,74,9
0,62,83,0
0,65,79,0
0,48,92,0
0,57,94,1
0,62,103,0
0,65,99,0
0,45,87,0
0,57,67,6
0,62,79,0
0,65,64,0
0,45,84,0
0,57,87,1
0,62,99,0
0,65,84,0
0,62,79,6
0,59,84,0
0,62,99,1
0,59,104,0
0,50,113,8
0,53,112,0
0,45,90,0
0,55,106,0
0,57,117,0
0,59,106,0
0,62,105,0
0,41,94,0
0,65,110,0
0,67,115,0
0,55,116,3
0,41,92,0
0,57,108,0
0,59,113,0
0,62,117,0
0,65,104,0
0,65,67,0
0,62,73,0
0,57,73,0
0,41,92,0
0,67,114,0
0,65,87,1
0,62,93,0
0,57,93,0
0,71,110,0
0,74,117,0
0,77,109,0
0,72,94,0
0,55,94,0
0,79,91,0
0,55,92,0
0,64,122,0
0,48,109,2
0,36,94,0
0,55,90,0
0,64,94,0
0,60,92,0
0,35,127,1
0,53,40,0
0,55,92,1
0,81,72,1
0,44,89,0
0,57,94,0
0,57,87,0
0,57,95,1
0,60,94,0
0,64,95,0
0,42,25,4
0,57,94,3
0,42,52,0
0,83,88,1
0,59,92,0
0,42,50,0
0,59,90,0
0,55,104,1
0,60,84,0
0,59,92,0
0,64,92,0
0,44,52,0
0,35,94,0
0,42,25,2
0,59,94,8
0,42,52,0
0,81,70,1
0,57,84,0
0,57,90,0
0,44,94,0
0,60,97,1
0,57,107,0
0,64,104,0
0,42,25,4
0,55,84,7
0,42,52,0
0,43,50,0
0,35,111,2
0,79,86,1
0,55,94,0
0,42,50,0
0,55,92,0
0,55,85,1
0,60,84,0
0,64,87,0
0,48,102,0
0,44,70,2
0,35,124,0
0,42,25,27
0,55,94,9
0,42,52,0
0,81,70,1
0,57,94,0
0,44,89,0
0,57,84,0
0,60,94,0
0,57,100,0
0,64,94,0
0,42,25,7
0,57,87,10
0,42,52,0
0,83,89,1
0,59,94,0
0,42,50,0
0,59,87,0
0,59,92,0
0,64,87,0
0,60,90,0
0,55,100,0
0,44,52,0
0,35,100,0
0,42,25,6
0,79,72,5
0,59,92,0
0,42,52,0
0,81,71,1
0,91,83,0
0,44,94,0
0,57,90,0
0,60,100,1
0,57,104,0
0,64,97,0
0,48,104,0
0,57,94,4
0,35,73,0
0,42,25,0
0,79,91,1
0,79,64,0
0,55,94,0
0,42,52,0
0,35,104,2
0,62,97,1
0,66,127,1
0,86,85,0
0,62,99,0
0,42,50,0
0,57,99,0
0,47,92,1
0,62,94,0
0,57,94,0
0,54,90,0
0,47,102,0
0,44,70,2
0,35,119,0
0,42,25,1
0,62,94,1
0,42,52,0
0,64,94,3
0,44,89,0
0,62,104,1
0,57,100,0
0,54,94,0
0,42,25,6
0,64,85,5
0,42,52,0
0,35,84,3
0,86,66,0
0,78,69,0
0,66,90,0
0,42,50,0
0,54,84,1
0,57,92,0
0,62,94,0
0,54,97,0
0,44,52,1
0,35,100,0
0,42,25,5
0,66,92,10
0,42,52,0
0,44,94,3
0,57,102,1
0,54,95,0
0,62,102,0
0,64,85,2
0,42,25,0
0,62,90,2
0,42,52,0
0,47,50,1
0,35,95,2
0,74,72,1
0,42,50,0
0,66,97,0
0,76,82,0
0,54,84,1
0,57,90,0
0,62,87,0
0,52,95,0
0,44,70,1
0,35,102,0
0,42,25,3
0,42,52,1
0,74,64,1
0,44,89,0
0,54,95,1
0,57,107,0
0,62,102,0
0,42,25,2
0,42,52,4
0,71,75,0
0,35,84,2
0,69,75,1
0,64,92,1
0,88,74,1
0,42,50,0
0,59,94,0
0,68,111,0
0,71,84,0
0,47,102,1
0,64,97,0
0,56,85,0
0,52,92,0
0,59,94,0
0,44,52,1
0,35,100,0
0,42,25,3
0,42,52,2
0,56,96,1
0,88,74,0
0,44,94,0
0,64,97,0
0,52,97,0
0,64,104,0
0,59,95,0
0,56,94,0
0,59,115,0
0,64,104,0
0,68,111,0
0,35,64,0
0,42,25,0
0,71,110,0
0,76,104,0
0,68,105,0
0,71,97,0
0,66,92,0
0,42,52,0
0,76,104,0
0,52,50,1
0,35,98,1
0,80,113,0
0,83,105,0
0,88,106,0
0,64,103,0
0,86,75,0
0,74,72,0
0,59,70,0
0,64,74,0
0,55,70,0
0,67,94,0
0,42,50,0
0,67,127,0
0,55,109,0
0,74,88,0
0,59,90,1
0,64,94,0
0,55,90,0
0,36,94,0
0,48,100,0
0,44,70,1
0,35,119,0
0,42,25,6
0,67,94,1
0,42,52,0
0,67,103,2
0,44,89,0
0,42,25,4
0,67,94,0
0,42,52,0
0,36,92,1
0,35,84,0
0,84,83,1
0,72,86,0
0,64,79,0
0,59,89,0
0,55,79,0
0,67,99,0
0,42,50,0
0,72,79,0
0,55,102,1
0,64,99,0
0,59,109,0
0,55,99,0
0,44,52,0
0,35,100,0
0,67,97,2
0,42,25,0
0,67,109,2
0,42,52,0
0,44,94,1
0,42,25,2
0,67,94,4
0,42,52,0
0,47,50,1
0,36,99,0
0,35,95,2
0,83,89,1
0,71,86,0
0,59,70,0
0,55,64,0
0,64,67,0
0,67,109,0
0,42,50,0
0,71,88,0
0,48,97,1
0,59,90,0
0,55,84,0
0,64,87,0
0,44,70,1
0,35,119,0
0,42,25,6
0,67,92,2
0,42,52,0
0,67,109,8
0,44,89,0
0,42,25,7
0,67,97,7
0,42,52,0
0,36,85,1
0,35,84,2
0,81,82,1
0,69,72,0
0,59,72,0
0,55,67,0
0,64,72,0
0,67,103,0
0,42,50,0
0,69,94,0
0,55,97,1
0,59,92,0
0,55,87,0
0,64,92,0
0,44,52,0
0,35,100,0
0,42,25,6
0,64,84,2
0,42,52,0
0,59,74,1
0,64,77,0
0,55,82,0
0,66,94,0
0,44,94,0
0,48,100,1
0,59,94,0
0,64,97,0
0,55,102,0
0,42,25,4
0,67,97,7
0,42,52,0
0,35,95,3
0,62,74,1
0,54,72,0
0,57,83,0
0,69,97,0
0,50,127,0
0,62,94,0
0,54,92,0
0,38,90,0
0,57,103,0
0,35,127,2
0,51,89,0
0,93,72,3
0,91,80,0
0,90,87,0
0,88,72,0
0,86,77,0
0,81,77,144
0,79,82,0
0,78,80,0
0,76,89,0
0,74,66,0
0,48,93,160
0,52,84,1
0,45,80,25
0,45,84,31
0,55,84,20
0,43,89,0
0,35,97,1
0,74,104,26
0,74,93,0
0,67,64,2
0,64,57,0
0,62,69,0
0,62,74,0
0,62,99,0
0,48,109,2
0,36,82,0
0,67,84,0
0,64,77,0
0,62,89,0
0,44,80,2
0,35,104,0
0,67,72,4
0,64,67,0
0,62,77,0
0,44,99,0
0,67,92,1
0,64,87,0
0,62,97,0
0,67,73,1
0,62,67,0
0,64,67,0
0,62,74,0
0,67,93,0
0,62,87,0
0,64,87,0
0,55,92,0
0,44,62,2
0,35,95,0
0,60,75,2
0,72,84,0
0,72,89,1
0,67,74,1
0,62,72,0
0,64,72,0
0,44,104,0
0,62,74,0
0,60,93,0
0,67,94,1
0,62,92,0
0,64,92,0
0,62,62,5
0,60,55,0
0,64,62,0
0,67,54,0
0,64,74,0
0,36,75,2
0,62,82,0
0,60,75,0
0,64,82,0
0,67,74,0
0,35,90,2
0,71,89,1
0,71,84,0
0,59,67,0
0,64,73,0
0,66,60,0
0,59,77,0
0,59,84,0
0,57,84,0
0,64,82,0
0,47,94,2
0,47,87,0
0,59,87,0
0,64,93,0
0,66,80,0
0,44,80,1
0,35,104,0
0,57,82,11
0,64,84,0
0,64,89,4
0,59,74,0
0,66,77,0
0,44,99,0
0,64,109,1
0,59,94,0
0,66,97,0
0,63,87,2
0,59,99,0
0,66,74,0
0,63,73,1
0,59,60,0
0,66,73,0
0,54,90,0
0,47,87,0
0,63,93,0
0,59,80,0
0,66,93,0
0,44,62,2
0,35,95,0
0,63,74,3
0,59,77,0
0,66,74,0
0,44,104,0
0,63,94,0
0,59,97,0
0,66,94,0
0,59,75,2
0,62,87,0
0,42,84,0
0,35,90,1
0,71,89,7
0,71,104,0
0,66,60,1
0,57,64,0
0,62,79,0
0,59,104,0
0,66,74,0
