track,note,velocity,time
1,69,109,957
1,69,101,88
1,69,98,90
1,69,112,54
1,33,113,0
1,37,110,0
1,69,107,24
1,69,96,6
1,55,1,192
1,55,101,0
1,37,110,0
1,69,108,6
1,69,95,6
1,37,110,192
1,55,1,2
1,55,103,0
1,69,107,6
1,69,96,6
1,55,1,192
1,55,101,0
1,37,110,0
1,69,108,6
1,69,95,6
1,37,110,192
1,55,1,2
1,55,103,0
1,69,107,6
1,69,96,6
1,55,1,192
1,55,101,0
1,37,110,0
1,69,108,6
1,69,95,6
1,37,110,192
1,55,1,2
1,55,103,0
1,69,107,6
1,69,96,6
1,55,1,192
1,55,101,0
1,37,110,0
1,69,108,6
1,69,95,6
1,37,110,10
1,55,1,2
1,55,103,0
1,31,117,188
1,31,96,6
1,69,107,0
1,33,123,28
1,31,123,6
1,69,96,0
1,55,1,188
1,55,101,0
1,37,110,0
1,31,118,188
1,31,91,6
1,69,108,0
1,33,120,6
1,31,120,6
1,69,95,0
1,37,110,188
1,55,1,2
1,55,103,0
1,31,117,188
1,31,96,6
1,69,107,0
1,33,123,28
1,31,123,6
1,69,96,0
1,55,1,188
1,55,101,0
1,37,110,0
1,31,118,188
1,31,91,6
1,69,108,0
1,33,120,6
1,31,120,6
1,69,95,0
1,37,110,188
1,55,1,2
1,55,103,0
1,31,117,188
1,31,96,6
1,69,107,0
1,33,123,28
1,31,123,6
1,69,96,0
1,55,1,188
1,55,101,0
1,37,110,0
1,31,118,188
1,31,91,6
1,69,108,0
1,33,120,6
1,31,120,6
1,69,95,0
1,36,121,188
1,37,110,0
1,55,1,2
1,55,103,0
1,31,117,188
1,31,96,6
1,69,107,0
1,33,123,28
1,36,121,0
1,31,123,6
1,69,96,0
1,36,121,188
1,37,110,0
1,31,118,188
1,31,91,6
1,69,108,0
1,33,120,92
1,36,121,0
1,31,120,6
1,69,95,0
1,36,121,188
1,37,110,0
1,31,117,188
1,31,96,6
1,69,107,0
1,33,123,92
1,36,121,0
1,31,123,6
1,69,96,0
1,36,121,188
1,37,110,0
1,31,118,188
1,31,91,6
1,69,108,0
1,33,120,92
1,36,121,0
1,31,120,6
1,69,95,0
1,36,121,188
1,37,110,0
1,31,117,188
1,31,96,6
1,69,107,0
1,33,123,92
1,36,121,0
1,31,123,6
1,69,96,0
1,36,121,188
1,37,110,0
1,31,118,188
1,31,91,6
1,69,108,0
1,33,120,92
1,36,121,0
1,31,120,6
1,69,95,0
1,36,121,188
1,37,110,0
1,31,117,188
1,31,96,6
1,69,107,0
1,33,123,92
1,36,121,0
1,31,123,6
1,69,96,0
1,36,121,188
1,37,110,0
1,31,118,188
1,31,91,6
1,69,108,0
1,33,120,92
1,36,121,0
1,31,120,6
1,69,95,0
1,36,121,188
1,37,110,0
1,31,117,188
1,42,100,0
1,33,98,6
1,31,96,0
1,69,107,0
1,33,94,54
1,33,123,0
1,36,121,0
1,33,109,6
1,31,123,0
1,42,100,0
1,69,96,0
1,33,98,114
1,36,121,0
1,37,110,0
1,31,118,92
1,42,100,0
1,33,70,6
1,31,91,0
1,69,108,0
1,33,85,42
1,33,120,0
1,36,121,0
1,33,101,6
1,31,120,0
1,42,100,0
1,69,95,0
1,33,98,82
1,36,121,0
1,37,110,0
1,31,117,92
1,42,100,0
1,33,98,6
1,31,96,0
1,69,107,0
1,33,94,54
1,33,123,0
1,36,121,0
1,33,109,6
1,31,123,0
1,42,100,0
1,69,96,0
1,33,98,114
1,36,121,0
1,37,110,0
1,31,118,92
1,42,100,0
1,33,70,6
1,31,91,0
1,69,108,0
1,33,85,42
1,33,120,0
1,36,121,0
1,33,101,6
1,31,120,0
1,42,100,0
1,69,95,0
1,33,98,82
1,36,121,0
1,37,110,0
1,31,117,92
1,42,100,0
1,33,98,6
1,31,96,0
1,69,107,0
1,33,94,54
1,33,123,0
1,36,121,0
1,33,109,6
1,31,123,0
1,42,100,0
1,69,96,0
1,33,98,114
1,36,121,0
1,37,110,0
1,31,118,92
1,42,100,0
1,33,70,6
1,31,91,0
1,69,108,0
1,33,85,42
1,33,120,0
1,36,121,0
1,33,101,6
1,31,120,0
1,42,100,0
1,69,95,0
1,33,98,82
1,36,121,0
1,37,110,0
1,31,117,92
1,42,100,0
1,33,98,6
1,31,96,0
1,69,107,0
1,33,94,54
1,33,123,0
1,36,121,0
1,33,109,6
1,31,123,0
1,42,100,0
1,69,96,0
1,33,98,114
1,36,121,0
1,37,110,0
1,31,118,92
1,42,100,0
1,33,70,6
1,31,91,0
1,69,108,0
1,33,85,42
1,33,120,0
1,36,121,0
1,33,101,6
1,31,120,0
1,42,100,0
1,69,95,0
1,37,110,82
1,31,117,188
1,42,100,0
1,31,96,6
1,69,107,0
1,33,123,92
1,31,123,6
1,42,100,0
1,69,96,0
1,72,84,106
1,37,110,82
1,31,118,188
1,42,100,0
1,31,91,6
1,69,108,0
1,33,120,92
1,31,120,6
1,42,100,0
1,69,95,0
1,57,6,10
1,49,77,0
1,57,122,0
1,69,114,40
1,31,117,0
1,31,96,28
1,69,122,4
1,33,123,0
1,39,110,0
1,69,110,76
1,31,123,0
1,69,114,56
1,31,118,192
1,31,91,22
1,33,120,92
1,39,110,0
1,31,120,188
1,69,117,189
1,31,117,0
1,31,96,92
1,69,121,72
1,33,123,0
1,39,110,0
1,69,107,104
1,31,123,0
1,69,114,66
1,31,118,192
1,31,91,6
1,33,120,92
1,39,110,0
1,31,120,188
1,57,122,0
1,69,112,190
1,31,117,0
1,31,96,28
1,69,122,4
1,33,123,0
1,39,110,0
1,69,107,104
1,31,123,0
1,69,114,94
1,31,118,192
1,31,91,58
1,69,119,92
1,33,120,0
1,39,110,0
1,31,120,188
1,69,114,110
1,31,117,189
1,31,96,2
1,69,123,92
1,33,123,0
1,39,110,0
1,69,103,114
1,31,123,0
1,69,117,78
1,31,118,192
1,31,91,92
1,33,120,90
1,39,110,0
1,31,120,188
1,57,122,0
1,69,114,190
1,31,117,0
1,31,96,28
1,69,118,4
1,33,123,0
1,39,110,0
1,69,97,76
1,31,123,0
1,69,114,56
1,31,118,192
1,31,91,22
1,33,120,92
1,39,110,0
1,31,120,188
1,57,122,0
1,69,117,190
1,31,117,0
1,31,96,28
1,69,119,4
1,33,123,0
1,39,110,0
1,69,107,104
1,31,123,0
1,69,114,66
1,31,108,192
1,31,81,6
1,33,110,92
1,39,110,0
1,31,110,188
1,57,122,0
1,69,112,190
1,31,97,0
1,31,76,28
1,69,121,4
1,33,103,0
1,39,110,0
1,69,103,104
1,31,103,0
1,69,114,94
1,31,88,192
1,31,61,58
1,69,119,92
1,33,90,0
1,39,110,0
1,31,90,188
1,69,114,110
1,57,122,0
1,31,77,190
1,31,56,2
1,69,107,4
1,33,83,0
1,39,110,0
1,69,103,114
1,31,83,0
1,69,117,78
1,39,110,90
1,39,90,188
1,36,123,188
1,38,29,0
1,41,117,0
1,45,109,0
1,49,77,0
1,38,37,92
1,69,97,92
1,72,97,0
1,76,115,0
1,38,70,0
1,76,115,0
1,38,29,52
1,69,97,6
1,72,97,0
1,76,115,0
1,38,70,0
1,76,115,0
1,38,21,92
1,38,29,16
1,69,97,6
1,72,97,0
1,76,115,0
1,38,70,0
1,76,115,0
1,38,29,20
1,38,37,92
1,69,91,6
1,72,91,0
1,76,109,0
1,38,70,0
1,76,109,0
1,38,37,50
1,69,97,6
1,72,97,0
1,76,115,0
1,38,70,0
1,76,115,0
1,38,29,92
1,38,29,20
1,69,88,6
1,72,88,0
1,76,106,0
1,38,70,0
1,76,106,0
1,38,29,92
1,38,37,90
1,64,97,92
1,67,97,0
1,71,115,0
1,38,70,0
1,71,115,0
1,38,29,50
1,64,97,6
1,67,97,0
1,71,115,0
1,38,70,0
1,71,115,0
1,38,21,92
1,38,29,16
1,64,97,6
1,67,97,0
1,71,115,0
1,38,70,0
1,71,115,0
1,38,29,20
1,38,37,92
1,64,91,6
1,67,91,0
1,71,109,0
1,38,70,0
1,71,109,0
1,38,37,50
1,64,97,6
1,67,97,0
1,71,115,0
1,38,70,0
1,71,115,0
1,38,29,92
1,38,29,20
1,64,88,6
1,67,88,0
1,71,106,0
1,38,70,0
1,71,106,0
1,38,29,2
1,38,37,92
1,67,97,92
1,70,97,0
1,74,115,0
1,38,70,0
1,74,115,0
1,38,29,52
1,67,97,6
1,70,97,0
1,74,115,0
1,38,70,0
1,74,115,0
1,38,21,92
1,38,29,16
1,67,97,6
1,70,97,0
1,74,115,0
1,38,70,0
1,74,115,0
1,38,29,20
1,38,37,92
1,67,91,6
1,70,91,0
1,74,109,0
1,38,70,0
1,74,109,0
1,38,37,50
1,67,97,6
1,70,97,0
1,74,115,0
1,38,70,0
1,74,115,0
1,38,29,92
1,38,29,20
1,67,88,6
1,70,88,0
1,74,106,0
1,38,70,0
1,74,106,0
1,38,29,92
1,38,37,90
1,62,97,6
1,65,97,0
1,69,115,0
1,38,70,0
1,69,115,0
1,38,29,50
1,62,97,6
1,65,97,0
1,69,115,0
1,38,70,0
1,69,115,0
1,38,21,92
1,38,29,16
1,62,97,6
1,65,97,0
1,69,115,0
1,38,70,0
1,69,115,0
1,38,29,20
1,38,37,92
1,62,91,6
1,65,91,0
1,69,109,0
1,38,70,0
1,69,109,0
1,38,37,50
1,62,97,6
1,65,97,0
1,69,115,0
1,38,70,0
1,69,115,0
1,38,29,92
1,38,29,20
1,62,88,6
1,65,88,0
1,69,106,0
1,38,70,0
1,69,106,0
1,36,122,26
1,38,39,0
1,41,117,0
1,45,109,0
1,49,77,0
1,38,47,92
1,69,97,0
1,72,97,0
1,76,115,0
1,88,90,0
1,38,80,0
1,76,115,0
1,38,39,52
1,69,97,6
1,72,97,0
1,76,115,0
1,88,90,0
1,38,80,0
1,39,110,0
1,76,115,0
1,38,31,92
1,38,39,16
1,69,97,6
1,72,97,0
1,76,115,0
1,88,90,0
1,38,80,0
1,76,115,0
1,38,39,20
1,38,47,92
1,69,91,6
1,72,91,0
1,76,109,0
1,88,84,0
1,38,80,0
1,76,109,0
1,38,47,50
1,69,97,6
1,72,97,0
1,76,115,0
1,88,90,0
1,38,80,0
1,39,110,0
1,76,115,0
1,38,39,92
1,38,39,20
1,69,88,6
1,72,88,0
1,76,106,0
1,88,81,0
1,38,80,0
1,76,106,0
1,38,39,92
1,38,47,90
1,64,97,6
1,67,97,0
1,71,115,0
1,83,90,0
1,38,80,0
1,71,115,0
1,38,39,50
1,64,97,6
1,67,97,0
1,71,115,0
1,83,90,0
1,38,80,0
1,39,110,0
1,71,115,0
1,38,31,92
1,38,39,16
1,64,97,6
1,67,97,0
1,71,115,0
1,83,90,0
1,38,80,0
1,71,115,0
1,38,39,20
1,38,47,92
1,64,91,6
1,67,91,0
1,71,109,0
1,83,84,0
1,38,80,0
1,71,109,0
1,38,47,50
1,64,97,6
1,67,97,0
1,71,115,0
1,83,90,0
1,38,80,0
1,39,110,0
1,71,115,0
1,38,39,92
1,38,39,20
1,64,88,6
1,67,88,0
1,71,106,0
1,83,81,0
1,38,80,0
1,71,106,0
1,38,39,2
1,38,47,92
1,67,97,6
1,70,97,0
1,74,115,0
1,86,90,0
1,38,80,0
1,74,115,0
1,38,39,52
1,67,97,6
1,70,97,0
1,74,115,0
1,86,90,0
1,38,80,0
1,39,110,0
1,74,115,0
1,38,31,92
1,38,39,16
1,67,97,6
1,70,97,0
1,74,115,0
1,86,90,0
1,38,80,0
1,74,115,0
1,38,39,20
1,38,47,92
1,67,91,6
1,70,91,0
1,74,109,0
1,86,84,0
1,38,80,0
1,74,109,0
1,38,47,50
1,67,97,6
1,70,97,0
1,74,115,0
1,86,90,0
1,38,80,0
1,39,110,0
1,74,115,0
1,38,39,92
1,38,39,20
1,67,88,6
1,70,88,0
1,74,106,0
1,86,81,0
1,38,80,0
1,74,106,0
1,38,39,92
1,38,47,90
1,62,97,6
1,65,97,0
1,69,115,0
1,81,90,0
1,38,80,0
1,69,115,0
1,38,39,50
1,62,97,6
1,65,97,0
1,69,115,0
1,81,90,0
1,38,80,0
1,39,110,0
1,69,115,0
1,38,31,92
1,38,39,16
1,62,97,6
1,65,97,0
1,69,115,0
1,81,90,0
1,38,80,0
1,69,115,0
1,38,39,20
1,38,47,92
1,62,91,6
1,65,91,0
1,69,109,0
1,81,84,0
1,38,80,0
1,69,109,0
1,38,47,50
1,62,97,6
1,65,97,0
1,69,115,0
1,81,90,0
1,38,80,0
1,39,110,0
1,69,115,0
1,38,39,92
1,38,39,20
1,62,88,6
1,65,88,0
1,69,106,0
1,81,81,0
1,38,80,0
1,69,106,0
1,45,61,26
1,36,121,0
1,38,49,0
1,41,119,0
1,45,109,0
1,49,77,0
1,45,69,20
1,38,57,0
1,45,102,6
1,69,97,0
1,72,97,0
1,76,115,0
1,84,82,0
1,88,100,0
1,38,90,0
1,76,115,0
1,45,61,20
1,38,49,0
1,45,102,6
1,69,97,0
1,72,97,0
1,76,115,0
1,84,82,0
1,88,100,0
1,38,90,0
1,39,110,0
1,76,115,0
1,45,53,20
1,38,41,0
1,45,61,16
1,38,49,0
1,45,102,6
1,69,97,0
1,72,97,0
1,76,115,0
1,84,82,0
1,88,100,0
1,38,90,0
1,76,115,0
1,45,61,20
1,38,49,0
1,45,69,20
1,38,57,0
1,45,102,6
1,69,91,0
1,72,91,0
1,76,109,0
1,84,76,0
1,88,94,0
1,38,90,0
1,76,109,0
1,45,69,20
1,38,57,0
1,45,102,6
1,69,97,0
1,72,97,0
1,76,115,0
1,84,82,0
1,88,100,0
1,38,90,0
1,39,110,0
1,76,115,0
1,45,61,20
1,38,49,0
1,45,61,20
1,38,49,0
1,45,102,6
1,69,88,0
1,72,88,0
1,76,106,0
1,84,73,0
1,88,91,0
1,38,90,0
1,76,106,0
1,40,61,20
1,38,49,0
1,40,69,20
1,38,57,0
1,40,102,6
1,64,97,0
1,67,97,0
1,71,115,0
1,79,82,0
1,83,100,0
1,38,90,0
1,71,115,0
1,40,61,20
1,38,49,0
1,40,102,6
1,64,97,0
1,67,97,0
1,71,115,0
1,79,82,0
1,83,100,0
1,38,90,0
1,39,110,0
1,71,115,0
1,40,53,20
1,38,41,0
1,40,61,16
1,38,49,0
1,40,102,6
1,64,97,0
1,67,97,0
1,71,115,0
1,79,82,0
1,83,100,0
1,38,90,0
1,71,115,0
1,40,61,20
1,38,49,0
1,40,69,20
1,38,57,0
1,40,102,6
1,64,91,0
1,67,91,0
1,71,109,0
1,79,76,0
1,83,94,0
1,38,90,0
1,71,109,0
1,40,69,20
1,38,57,0
1,40,102,6
1,64,97,0
1,67,97,0
1,71,115,0
1,79,82,0
1,83,100,0
1,38,90,0
1,39,110,0
1,71,115,0
1,40,61,20
1,38,49,0
1,40,61,20
1,38,49,0
1,40,102,6
1,64,88,0
1,67,88,0
1,71,106,0
1,79,73,0
1,83,91,0
1,38,90,0
1,71,106,0
1,43,61,2
1,38,49,0
1,43,69,20
1,38,57,0
1,43,102,6
1,67,97,0
1,70,97,0
1,74,115,0
1,82,82,0
1,86,100,0
1,38,90,0
1,74,115,0
1,43,61,20
1,38,49,0
1,43,102,6
1,67,97,0
1,70,97,0
1,74,115,0
1,82,82,0
1,86,100,0
1,38,90,0
1,39,110,0
1,74,115,0
1,43,53,20
1,38,41,0
1,43,61,16
1,38,49,0
1,43,102,6
1,67,97,0
1,70,97,0
1,74,115,0
1,82,82,0
1,86,100,0
1,38,90,0
1,74,115,0
1,43,61,20
1,38,49,0
1,43,69,20
1,38,57,0
1,43,102,6
1,67,91,0
1,70,91,0
1,74,109,0
1,82,76,0
1,86,94,0
1,38,90,0
1,74,109,0
1,43,69,20
1,38,57,0
1,43,102,6
1,67,97,0
1,70,97,0
1,74,115,0
1,82,82,0
1,86,100,0
1,38,90,0
1,39,110,0
1,74,115,0
1,43,61,20
1,38,49,0
1,43,61,20
1,38,49,0
1,43,102,6
1,67,88,0
1,70,88,0
1,74,106,0
1,82,73,0
1,86,91,0
