track,note,velocity,time
1,59,85,4800
1,59,0,270
1,59,93,90
1,59,0,106
1,56,85,14
1,56,0,295
1,56,76,65
1,56,0,108
1,52,82,12
1,52,0,295
1,52,82,65
1,52,0,66
1,54,87,54
1,54,0,277
1,54,93,83
1,54,0,83
1,59,93,37
1,59,0,289
1,59,95,71
1,59,0,109
1,52,85,11
1,52,0,186
1,52,102,54
1,52,0,144
1,47,107,96
1,47,0,119
1,42,116,481
1,42,0,118
1,44,113,2
1,44,0,101
1,46,102,19
1,46,0,104
1,47,100,16
1,47,0,274
1,47,107,86
1,47,0,101
1,44,98,19
1,44,0,263
1,44,100,97
1,44,0,96
1,40,95,24
1,52,102,240
1,40,0,1
1,40,87,119
1,52,0,2
1,40,0,83
1,42,105,35
1,42,0,46
1,42,102,74
1,42,0,224
1,46,100,16
1,46,0,50
1,47,98,70
1,47,0,264
1,47,107,96
1,47,0,110
1,44,102,10
1,44,0,253
1,44,100,107
1,44,0,105
1,40,102,15
1,40,0,229
1,52,100,11
1,40,93,120
1,52,0,4
1,40,0,70
1,42,100,46
1,42,0,53
1,42,105,67
1,42,0,110
1,44,98,10
1,44,0,100
1,46,85,20
1,46,0,68
1,47,105,52
1,47,0,258
1,47,105,102
1,47,0,100
1,46,102,20
1,46,0,249
1,46,98,111
1,46,0,86
1,44,100,34
1,44,0,263
1,44,102,97
1,44,0,76
1,51,100,44
1,51,0,189
1,51,105,51
1,51,0,191
1,49,110,49
1,49,0,265
1,49,105,95
1,44,105,120
1,49,0,8
1,44,0,211
1,49,105,21
1,44,105,120
1,49,0,4
1,44,0,53
1,42,127,63
1,42,0,120
1,42,119,480
1,42,0,113
1,44,116,7
1,44,0,112
1,46,119,8
1,46,0,92
1,47,100,28
1,47,0,274
1,47,107,86
1,47,0,101
1,44,98,19
1,44,0,263
1,44,100,97
1,44,0,96
1,40,95,24
1,52,102,240
1,40,0,1
1,40,87,119
1,52,0,2
1,40,0,83
1,42,105,35
1,42,0,46
1,42,102,74
1,42,0,224
1,46,100,16
1,46,0,50
1,47,98,70
1,47,0,264
1,47,107,96
1,47,0,110
1,44,102,10
1,44,0,253
1,44,100,107
1,44,0,105
1,40,102,15
1,40,0,229
1,52,100,11
1,40,93,120
1,52,0,4
1,40,0,70
1,42,100,46
1,42,0,53
1,42,105,67
1,42,0,110
1,44,98,10
1,44,0,100
1,46,85,20
1,46,0,68
1,47,105,52
1,47,0,258
1,47,105,102
1,47,0,100
1,46,102,20
1,46,0,249
1,46,98,111
1,46,0,86
1,44,100,34
1,44,0,263
1,44,102,97
1,44,0,76
1,51,105,44
1,51,0,181
1,51,102,59
1,51,0,167
1,49,107,73
1,49,0,240
1,49,113,120
1,49,0,76
1,42,105,44
1,54,105,240
1,42,0,4
1,54,0,100
1,42,110,16
1,42,0,104
1,47,119,16
1,47,0,117
1,47,113,843
1,47,0,280
1,47,105,80
1,47,0,97
1,40,95,23
1,40,0,300
1,40,100,60
1,40,0,112
1,47,105,8
1,47,0,293
1,47,105,67
1,47,0,120
1,40,105,0
1,40,0,236
1,47,105,4
1,47,0,227
1,45,93,13
1,45,0,277
1,45,107,83
1,45,0,117
1,52,105,3
1,52,0,294
1,52,100,66
1,52,0,117
1,45,89,3
1,45,0,327
1,45,102,33
1,45,0,109
1,52,102,11
1,45,100,240
1,52,0,3
1,45,0,120
1,45,107,117
1,45,0,289
1,45,107,71
1,45,0,114
1,50,113,6
1,50,0,313
1,50,110,47
1,50,0,98
1,45,102,22
1,45,0,290
1,45,113,70
1,45,0,112
1,50,105,8
1,50,0,312
1,43,105,168
1,43,0,318
1,55,100,42
1,55,0,70
1,55,95,50
1,50,95,120
1,55,0,7
1,43,100,113
1,50,0,38
1,55,95,82
1,43,0,7
1,55,0,106
1,42,110,7
1,42,0,330
1,54,85,30
1,54,0,84
1,54,87,36
1,49,100,120
1,54,0,6
1,49,0,112
1,54,102,2
1,54,0,116
1,49,100,4
1,49,0,109
1,42,122,11
1,42,0,131
1,42,122,469
1,42,0,119
1,44,100,1
1,44,0,92
1,46,102,28
1,46,0,92
1,47,100,28
1,47,0,274
1,47,107,86
1,47,0,101
1,44,98,19
1,44,0,263
1,44,100,97
1,44,0,96
1,40,95,24
1,52,102,240
1,40,0,1
1,40,87,119
1,52,0,2
1,40,0,83
1,42,105,35
1,42,0,46
1,42,102,74
1,42,0,224
1,46,100,16
1,46,0,50
1,47,98,70
1,47,0,264
1,47,107,96
1,47,0,110
1,44,102,10
1,44,0,253
1,44,100,107
1,44,0,105
1,40,102,15
1,40,0,229
1,52,100,11
1,40,93,120
1,52,0,4
1,40,0,70
1,42,100,46
1,42,0,53
1,42,105,67
1,42,0,110
1,44,98,10
1,44,0,100
1,46,85,20
1,46,0,68
1,47,105,52
1,47,0,258
1,47,105,102
1,47,0,100
1,46,102,20
1,46,0,249
1,46,98,111
1,46,0,86
1,44,100,34
1,44,0,263
1,44,102,97
1,44,0,76
1,51,105,44
1,51,0,181
1,51,102,59
1,51,0,167
1,49,107,73
1,49,0,240
1,49,113,120
1,49,0,76
1,42,105,44
1,54,105,240
1,42,0,4
1,54,0,100
1,42,110,16
1,42,0,104
1,47,119,16
1,47,0,117
1,47,113,843
1,47,0,280
1,47,105,80
1,47,0,97
1,40,95,23
1,40,0,300
1,40,100,60
1,40,0,112
1,47,105,8
1,47,0,293
1,47,105,67
1,47,0,120
1,40,105,0
1,40,0,236
1,47,105,4
1,47,0,227
1,45,93,13
1,45,0,277
1,45,107,83
1,45,0,117
1,52,105,3
1,52,0,294
1,52,100,66
1,52,0,117
1,45,89,3
1,45,0,327
1,45,102,33
1,45,0,109
1,52,102,11
1,45,100,240
1,52,0,3
1,45,0,120
1,45,107,117
1,45,0,289
1,45,107,71
1,45,0,114
1,50,113,6
1,50,0,313
1,50,110,47
1,50,0,98
1,45,102,22
1,45,0,290
1,45,113,70
1,45,0,112
1,50,105,8
1,50,0,312
1,43,105,168
1,43,0,318
1,55,100,42
1,55,0,70
1,55,95,50
1,50,95,120
1,55,0,7
1,43,100,113
1,50,0,38
1,55,95,82
1,43,0,7
1,55,0,106
1,42,110,7
1,42,0,330
1,54,85,30
1,54,0,84
1,54,87,36
1,49,100,120
1,54,0,6
1,49,0,112
1,54,102,2
1,54,0,116
1,49,100,4
1,49,0,109
1,42,122,11
1,42,0,131
1,42,122,469
1,42,0,119
1,44,100,1
1,44,0,92
1,46,102,28
1,46,0,92
1,47,100,28
1,47,0,274
1,47,107,86
1,47,0,101
1,44,98,19
1,44,0,263
1,44,100,97
1,44,0,96
1,40,95,24
1,52,102,240
1,40,0,1
1,40,87,119
1,52,0,2
1,40,0,83
1,42,105,35
1,42,0,46
1,42,102,74
1,42,0,224
1,46,100,16
1,46,0,50
1,47,98,70
1,47,0,264
1,47,107,96
1,47,0,110
1,44,102,10
1,44,0,253
1,44,100,107
1,44,0,105
1,40,102,15
1,40,0,229
1,52,100,11
1,40,93,120
1,52,0,4
1,40,0,70
1,42,100,46
1,42,0,53
1,42,105,67
1,42,0,110
1,44,98,10
1,44,0,100
1,46,85,20
1,46,0,68
1,47,105,52
1,47,0,258
1,47,105,102
1,47,0,100
1,46,102,20
1,46,0,249
1,46,98,111
1,46,0,86
1,44,100,34
1,44,0,263
1,44,102,97
1,44,0,76
1,51,105,44
1,51,0,181
1,51,102,59
1,51,0,167
1,49,107,73
1,49,0,240
1,49,113,120
1,49,0,76
1,42,105,44
1,54,105,240
1,42,0,4
1,54,0,100
1,42,110,16
1,42,0,104
1,47,119,16
1,47,0,286
1,47,110,74
1,47,0,102
1,44,105,18
1,44,0,239
1,44,102,121
1,44,0,110
1,40,98,10
1,40,0,240
1,52,102,0
1,52,0,118
1,40,105,2
1,40,0,63
1,42,105,57
1,42,0,46
1,42,113,74
1,42,0,175
1,42,110,65
1,42,0,96
1,47,105,24
1,47,0,279
1,47,105,81
1,47,0,106
1,44,100,14
1,44,0,267
1,44,102,93
1,44,0,96
1,40,98,24
1,52,102,240
1,40,0,8
1,52,0,94
1,40,102,18
1,40,0,97
1,42,102,23
1,42,0,43
1,42,105,77
1,42,0,99
1,44,119,21
1,44,0,108
1,46,110,12
1,46,0,81
1,47,119,39
1,47,0,292
1,47,116,68
1,47,0,57
1,44,107,63
1,44,0,292
1,44,113,68
1,44,0,83
1,40,100,37
1,52,102,240
1,40,0,9
1,52,0,101
1,40,102,10
1,40,0,65
1,42,105,55
1,42,0,51
1,42,113,69
1,42,0,111
1,54,107,9
1,54,0,93
1,42,107,27
1,42,0,80
1,47,119,40
1,47,0,197
1,47,119,43
1,47,0,199
1,40,105,41
1,40,0,54
1,40,102,66
1,40,0,165
1,40,105,75
1,40,0,92
1,47,127,28
1,47,0,114
1,44,113,666
1,44,0,32
1,46,102,28
1,46,0,104
2,75,80,960
2,83,91,0
2,78,95,0
2,75,0,172
2,78,0,5
2,83,0,3
2,75,64,60
2,83,93,0
2,78,93,0
2,75,0,41
2,78,0,4
2,83,0,7
2,83,87,68
2,75,78,0
2,78,87,0
2,78,0,41
2,75,0,1
2,83,0,6
2,83,87,72
2,75,76,0
2,78,89,0
2,78,0,41
2,75,0,3
2,83,0,3
2,83,105,73
2,75,87,0
2,78,100,0
2,75,0,150
2,78,0,2
2,83,0,0
2,80,98,88
2,76,102,0
2,83,89,0
2,76,0,489
2,83,0,10
2,80,0,2
2,82,102,99
2,78,98,0
2,82,0,42
2,78,0,5
2,82,98,73
2,78,91,0
2,82,0,45
2,78,0,1
2,82,98,74
2,78,89,0
2,78,0,42
2,82,0,3
2,78,87,75
2,82,98,0
2,78,0,39
2,82,0,4
2,75,85,77
2,83,98,0
2,78,100,0
2,83,0,164
2,75,0,4
2,78,0,8
2,75,70,64
2,83,93,0
2,78,93,0
2,78,0,40
2,75,0,0
2,83,0,5
2,83,87,75
2,75,64,0
2,78,89,0
2,75,0,36
2,83,0,2
2,78,0,3
2,75,85,79
2,83,95,0
2,78,95,0
2,78,0,33
2,75,0,0
2,83,0,5
2,83,102,82
2,75,87,0
2,78,105,0
2,75,0,43
2,83,0,8
2,78,0,1
2,76,89,188
2,83,95,0
2,80,100,0
2,76,0,474
2,80,0,10
2,83,0,2
2,82,98,114
2,78,95,0
2,82,0,41
2,78,0,6
2,78,91,73
2,82,100,0
2,82,0,41
2,78,0,3
2,82,102,76
2,78,95,0
2,82,0,40
2,78,0,1
2,82,107,79
2,78,100,0
2,82,0,34
2,78,0,4
2,63,85,82
2,47,72,0
2,59,70,0
2,66,82,0
2,66,0,197
2,59,0,8
2,63,0,1
2,59,74,5
2,66,89,0
2,63,87,0
2,47,0,53
2,59,0,3
2,63,0,55
2,59,91,9
2,66,0,23
2,59,0,23
2,59,98,16
2,56,93,0
2,63,98,0
2,56,0,74
2,59,0,5
2,63,0,8
2,59,89,20
2,63,89,0
2,56,82,0
2,63,0,103
2,59,0,4
2,56,0,13
2,56,74,120
2,59,87,0
2,52,68,0
2,40,91,95
2,47,105,37
2,52,0,24
2,59,0,2
2,56,0,5
2,47,0,56
2,40,0,27
2,59,98,6
2,56,98,0
2,52,82,0
2,52,0,71
2,59,0,32
2,56,0,2
2,52,95,15
2,52,0,48
2,61,98,12
2,58,95,0
2,54,85,0
2,42,85,0
2,61,0,72
2,54,0,2
2,58,0,3
2,42,0,19
2,61,102,39
2,58,102,0
2,54,85,0
2,58,0,36
2,54,0,6
2,61,0,8
2,66,95,28
2,63,91,0
2,59,89,0
2,47,98,0
2,59,0,44
2,66,0,0
2,63,0,4
2,63,93,49
2,59,98,0
2,66,102,0
2,47,0,24
2,63,0,48
2,59,0,1
2,66,0,5
2,52,98,43
2,59,85,0
2,64,93,0
2,68,95,0
2,59,0,81
2,59,89,39
2,64,0,14
2,68,0,14
2,59,0,11
2,64,105,55
2,68,107,0
2,59,102,0
2,52,0,16
2,59,0,51
2,64,0,4
2,68,0,4
2,54,107,29
2,63,110,0
2,66,105,0
2,47,107,0
2,59,100,0
2,63,0,78
2,54,0,6
2,59,0,0
2,66,0,2
2,47,0,2
2,59,82,872
2,66,89,0
2,63,93,0
2,47,98,0
2,63,0,88
2,59,0,3
2,66,0,0
2,61,107,57
2,66,100,0
2,47,0,24
2,61,0,71
2,59,93,25
2,66,0,15
2,59,0,31
2,56,78,3
2,63,89,0
2,59,87,0
2,44,85,0
2,56,0,164
2,63,0,4
2,59,0,8
2,56,85,64
2,59,100,0
2,63,98,0
2,56,0,31
2,44,0,6
2,59,0,57
2,56,85,15
2,63,0,20
2,56,0,29
2,52,78,41
2,59,85,0
2,56,93,0
2,59,0,60
2,52,0,2
2,56,0,1
2,52,85,57
2,56,93,0
2,59,91,0
2,52,0,23
2,56,0,19
2,59,0,2
2,58,91,51
2,61,95,0
2,54,91,0
2,42,85,120
2,61,0,21
2,54,0,4
2,58,0,2
2,61,93,93
2,54,87,0
2,58,100,0
2,58,0,33
2,61,0,1
2,54,0,3
2,42,0,73
2,54,89,10
2,58,100,0
2,61,102,0
2,54,0,62
2,58,0,4
2,61,0,23
2,54,78,50
2,66,91,0
2,59,89,0
2,47,78,0
2,63,95,0
2,59,0,177
2,66,0,2
2,63,0,10
2,63,102,10
2,66,105,0
2,59,95,0
2,54,0,3
2,47,0,18
2,63,0,11
2,66,0,2
2,59,0,10
2,59,100,154
2,56,82,0
2,63,85,0
2,59,0,46
2,56,0,5
2,63,0,2
2,63,93,67
2,59,98,0
2,56,85,0
2,63,0,47
2,56,0,3
2,59,0,4
2,56,82,64
2,59,98,0
2,63,93,0
2,63,0,51
2,59,0,0
2,56,0,3
2,40,98,63
2,56,91,120
2,52,80,0
2,59,91,0
2,40,0,32
2,52,0,25
2,56,0,7
2,59,0,5
2,61,91,60
2,54,87,0
2,58,100,0
2,42,87,111
2,61,0,29
2,54,0,2
2,58,0,5
2,58,95,84
2,61,95,0
2,54,85,0
2,58,0,41
2,61,0,2
2,54,0,2
2,61,100,75
2,54,93,0
2,58,102,0
2,54,0,75
2,58,0,1
2,61,0,2
2,61,105,42
2,58,102,0
2,54,95,0
2,58,0,55
2,54,0,1
2,61,0,7
2,42,0,12
2,59,98,45
2,63,100,0
2,47,95,0
2,66,100,0
2,59,0,180
2,66,0,3
2,63,0,5
2,47,0,43
2,63,105,9
2,59,95,0
2,66,100,0
2,66,0,85
2,63,0,10
2,59,0,13
2,46,85,12
2,46,0,59
2,51,93,61
2,55,91,0
2,58,100,0
2,51,0,41
2,55,0,12
2,58,0,3
2,58,105,64
2,51,100,0
2,55,100,0
2,58,0,177
2,51,0,1
2,55,0,9
2,55,85,53
2,51,82,0
2,58,98,0
2,51,0,51
2,55,0,16
2,58,0,9
2,44,107,44
2,51,95,120
2,51,0,68
2,59,102,52
2,56,93,0
2,63,105,0
2,59,0,33
2,56,0,7
2,63,0,3
2,59,107,77
2,63,98,0
2,56,91,0
2,51,85,120
2,51,0,105
2,51,91,15
2,59,0,56
2,63,0,1
2,56,0,9
2,51,0,30
2,59,107,24
2,63,102,0
2,56,105,0
2,59,0,86
2,56,0,6
2,44,0,1
2,63,0,12
2,65,93,135
2,49,105,0
2,59,102,0
2,56,95,0
2,65,0,273
2,59,0,2
2,56,0,2
2,49,0,16
2,65,91,67
2,59,100,0
2,56,85,0
2,59,0,26
2,65,0,3
2,56,0,2
2,59,105,89
2,56,95,0
2,65,100,0
2,49,110,120
2,65,0,38
2,59,0,2
2,56,0,6
2,49,0,11
2,56,89,14
2,65,95,0
2,59,102,0
2,59,0,46
2,65,0,4
2,56,0,8
2,54,102,14
2,61,107,0
2,58,107,0
2,42,105,0
2,54,0,83
2,58,0,8
2,42,0,2
2,61,0,4
2,59,82,863
2,66,89,0
2,63,93,0
2,47,98,0
2,63,0,88
2,59,0,3
2,66,0,0
2,61,107,57
2,66,100,0
2,47,0,24
2,61,0,71
2,59,93,25
2,66,0,15
2,59,0,31
2,56,78,3
2,63,89,0
2,59,87,0
2,44,85,0
