track,note,velocity,time
0,42,75,229
0,42,0,3
0,42,75,93
0,42,0,3
0,42,75,93
0,42,0,3
0,42,75,93
0,42,0,3
0,63,60,93
0,82,80,0
0,67,40,6
0,67,30,0
0,82,0,5
0,70,50,6
0,70,40,0
0,82,80,0
0,82,0,47
0,75,60,1
0,75,50,0
0,79,60,0
0,79,0,23
0,63,0,0
0,58,40,25
0,82,80,0
0,82,0,23
0,67,0,0
0,67,0,0
0,67,40,25
0,67,30,0
0,84,80,0
0,70,0,5
0,70,0,0
0,70,50,6
0,70,40,0
0,75,0,5
0,84,0,0
0,75,0,0
0,75,60,6
0,75,50,0
0,79,60,0
0,79,0,23
0,58,0,0
0,63,60,25
0,82,80,0
0,67,0,5
0,67,0,0
0,67,40,6
0,67,30,0
0,82,0,5
0,70,0,0
0,70,0,0
0,70,50,6
0,70,40,0
0,82,80,0
0,75,0,23
0,75,0,0
0,82,0,24
0,74,60,1
0,74,50,0
0,79,60,0
0,79,0,23
0,63,0,0
0,58,40,25
0,82,80,0
0,82,0,23
0,67,0,0
0,67,0,0
0,67,40,25
0,67,30,0
0,84,80,0
0,70,0,5
0,70,0,0
0,70,50,6
0,70,40,0
0,74,0,5
0,84,0,0
0,74,0,0
0,74,60,6
0,74,50,0
0,79,60,0
0,79,0,23
0,58,0,0
0,63,60,25
0,80,80,0
0,67,0,5
0,67,0,0
0,65,40,6
0,65,30,0
0,80,0,5
0,70,0,0
0,70,0,0
0,68,50,6
0,68,40,0
0,82,80,0
0,74,0,5
0,74,0,0
0,72,60,6
0,72,50,0
0,82,0,5
0,63,0,0
0,58,40,6
0,80,80,0
0,65,0,23
0,65,0,0
0,80,0,24
0,65,40,1
0,65,30,0
0,79,60,0
0,79,0,23
0,68,0,0
0,68,0,0
0,68,50,25
0,68,40,0
0,77,60,0
0,77,0,23
0,72,0,0
0,72,0,0
0,72,60,25
0,72,50,0
0,72,80,0
0,58,0,23
0,63,60,25
0,65,0,23
0,65,0,0
0,65,40,25
0,65,30,0
0,68,0,5
0,68,0,0
0,68,50,6
0,68,40,0
0,72,0,5
0,72,0,0
0,72,60,6
0,72,50,0
0,63,0,5
0,58,40,6
0,65,0,5
0,65,0,0
0,65,40,6
0,65,30,0
0,68,0,5
0,68,0,0
0,68,50,6
0,68,40,0
0,72,0,5
0,72,0,0
0,72,60,6
0,72,50,0
0,58,0,23
0,72,0,0
0,63,60,25
0,67,80,0
0,75,100,0
0,70,80,0
0,65,0,11
0,65,0,0
0,67,40,6
0,67,30,0
0,70,0,11
0,68,0,0
0,68,0,0
0,70,50,6
0,70,40,0
0,70,80,0
0,72,0,11
0,72,0,0
0,70,0,5
0,75,60,1
0,75,50,0
0,67,60,0
0,67,0,11
0,63,0,0
0,58,40,6
0,70,80,0
0,70,0,11
0,67,0,0
0,67,0,0
0,67,40,6
0,67,30,0
0,72,80,0
0,70,0,11
0,70,0,0
0,70,50,6
0,70,40,0
0,75,0,11
0,75,0,0
0,72,0,0
0,75,60,6
0,75,50,0
0,67,60,0
0,67,0,11
0,58,0,0
0,75,0,5
0,63,60,1
0,74,100,0
0,70,80,0
0,67,0,23
0,67,0,0
0,67,40,25
0,67,30,0
0,70,0,23
0,70,0,0
0,70,0,0
0,70,50,25
0,70,40,0
0,70,80,0
0,75,0,23
0,75,0,0
0,70,0,24
0,74,60,1
0,74,50,0
0,67,60,0
0,67,0,23
0,63,0,0
0,58,40,25
0,70,80,0
0,70,0,23
0,67,0,0
0,67,0,0
0,67,40,25
0,67,30,0
0,72,80,0
0,70,0,23
0,70,0,0
0,70,50,25
0,70,40,0
0,74,0,23
0,72,0,0
0,74,0,0
0,74,60,25
0,74,50,0
0,67,60,0
0,67,0,23
0,58,0,0
0,74,0,24
0,67,0,0
0,63,60,1
0,68,80,0
0,72,100,0
0,68,80,0
0,67,0,23
0,67,0,0
0,65,40,25
0,65,30,0
0,70,0,23
0,68,0,0
0,70,0,0
0,68,50,25
0,68,40,0
0,70,80,0
0,74,0,23
0,74,0,0
0,72,60,25
0,72,50,0
0,70,0,23
0,63,0,0
0,58,40,25
0,68,80,0
0,65,0,23
0,65,0,0
0,68,0,24
0,65,40,1
0,65,30,0
0,67,60,0
0,67,0,23
0,68,0,0
0,68,0,0
0,68,50,25
0,68,40,0
0,65,60,0
0,65,0,23
0,72,0,0
0,72,0,0
0,72,60,25
0,72,50,0
0,58,60,0
0,58,0,23
0,72,0,24
0,63,60,1
0,74,100,0
0,65,0,5
0,65,0,0
0,65,40,6
0,65,30,0
0,68,0,5
0,68,0,0
0,70,50,6
0,70,40,0
0,72,0,5
0,72,0,0
0,74,60,6
0,74,50,0
0,63,0,5
0,58,40,6
0,65,0,5
0,65,0,0
0,65,40,6
0,65,30,0
0,70,0,5
0,70,0,0
0,70,50,6
0,70,40,0
0,74,0,5
0,74,0,0
0,74,60,6
0,74,50,0
0,58,0,5
0,58,0,0
0,74,0,5
0,68,0,0
0,63,60,1
0,55,120,0
0,65,0,23
0,65,0,0
0,67,40,25
0,67,30,0
0,70,0,23
0,70,0,0
0,70,50,25
0,70,40,0
0,74,0,23
0,74,0,0
0,75,60,25
0,75,50,0
0,63,0,23
0,58,50,25
0,67,0,23
0,67,0,0
0,67,40,25
0,67,30,0
0,70,0,23
0,70,0,0
0,70,50,25
0,70,40,0
0,75,0,23
0,75,0,0
0,75,60,25
0,75,50,0
0,58,0,23
0,55,0,24
0,63,60,1
0,67,0,23
0,67,0,0
0,67,40,25
0,67,30,0
0,70,0,23
0,70,0,0
0,70,50,25
0,70,40,0
0,75,0,23
0,75,0,0
0,74,60,25
0,74,50,0
0,63,0,23
0,58,50,25
0,55,120,0
0,67,0,23
0,67,0,0
0,55,0,24
0,67,40,1
0,55,120,0
0,67,30,0
0,70,0,23
0,70,0,0
0,55,0,24
0,70,50,1
0,58,70,0
0,70,40,0
0,74,0,23
0,74,0,0
0,75,60,25
0,75,50,0
0,58,0,23
0,58,0,24
0,63,60,1
0,56,120,0
0,67,0,23
0,67,0,0
0,65,40,25
0,65,30,0
0,70,0,23
0,70,0,0
0,68,50,25
0,68,40,0
0,75,0,23
0,75,0,0
0,72,60,25
0,72,50,0
0,63,0,23
0,58,50,25
0,65,0,23
0,65,0,0
0,65,40,25
0,65,30,0
0,68,0,23
0,68,0,0
0,68,50,25
0,68,40,0
0,72,0,23
0,72,0,0
0,72,60,25
0,72,50,0
0,58,0,23
0,56,0,24
0,63,60,1
0,65,0,23
0,65,0,0
0,65,40,25
0,65,30,0
0,68,0,23
0,68,0,0
0,68,50,25
0,68,40,0
0,72,0,23
0,72,0,0
0,72,60,25
0,72,50,0
0,63,0,23
0,58,50,25
0,56,120,0
0,65,0,23
0,65,0,0
0,56,0,24
0,65,40,1
0,56,120,0
0,65,30,0
0,68,0,23
0,68,0,0
0,56,0,24
0,68,50,1
0,60,70,0
0,68,40,0
0,72,0,23
0,72,0,0
0,72,60,25
0,72,50,0
0,58,0,23
0,60,0,24
0,63,60,1
0,58,120,0
0,65,0,23
0,65,0,0
0,67,40,25
0,67,30,0
0,68,0,23
0,68,0,0
0,70,50,25
0,70,40,0
0,72,0,23
0,72,0,0
0,75,60,25
0,75,50,0
0,63,0,23
0,58,50,25
0,67,0,23
0,67,0,0
0,67,40,25
0,67,30,0
0,70,0,23
0,70,0,0
0,70,50,25
0,70,40,0
0,75,0,23
0,75,0,0
0,75,60,25
0,75,50,0
0,58,0,23
0,58,0,24
0,63,60,1
0,67,0,23
0,67,0,0
0,67,40,25
0,67,30,0
0,70,0,23
0,70,0,0
0,70,50,25
0,70,40,0
0,75,0,23
0,75,0,0
0,75,60,25
0,75,50,0
0,63,0,23
0,58,50,25
0,58,120,0
0,67,0,23
0,67,0,0
0,58,0,24
0,67,40,1
0,58,120,0
0,67,30,0
0,70,0,23
0,70,0,0
0,58,0,24
0,70,50,1
0,63,70,0
0,70,40,0
0,75,0,23
0,75,0,0
0,75,60,25
0,75,50,0
0,58,0,23
0,63,60,25
0,67,0,23
0,67,0,0
0,65,40,25
0,65,30,0
0,70,0,23
0,70,0,0
0,63,0,24
0,68,50,1
0,61,120,0
0,68,40,0
0,75,0,23
0,75,0,0
0,73,60,25
0,73,50,0
0,63,0,23
0,58,50,25
0,65,0,23
0,65,0,0
0,65,40,25
0,65,30,0
0,68,0,23
0,68,0,0
0,68,50,25
0,68,40,0
0,73,0,23
0,73,0,0
0,73,60,25
0,73,50,0
0,58,0,23
0,63,60,25
0,65,0,23
0,65,0,0
0,77,30,25
0,80,30,0
0,68,0,23
0,68,0,0
0,80,0,24
0,77,0,0
0,75,35,1
0,79,35,0
0,73,0,23
0,73,0,0
0,75,0,24
0,79,0,0
0,73,40,1
0,77,40,0
0,63,0,23
0,61,0,24
0,73,0,0
0,77,0,0
0,72,45,1
0,75,45,0
0,75,0,47
0,72,0,0
0,70,50,1
0,73,50,0
0,73,0,47
0,70,0,0
0,68,55,1
0,72,55,0
0,72,0,47
0,68,0,0
0,67,60,1
0,70,60,0
0,70,0,47
0,67,0,0
0,56,60,1
0,63,50,96
0,68,50,0
0,72,50,0
0,60,120,0
0,60,0,191
0,68,0,0
0,56,0,0
0,63,0,0
0,72,0,0
0,55,60,1
0,63,60,0
0,68,60,0
0,72,60,0
0,60,120,0
0,60,0,95
0,68,0,0
0,55,0,0
0,63,0,0
0,72,0,0
0,53,60,0
0,63,60,0
0,68,60,0
0,72,60,0
0,60,120,0
0,60,0,95
0,75,50,1
0,63,120,0
0,53,0,95
0,46,60,1
0,68,0,95
0,75,0,0
0,72,0,0
0,63,0,0
0,63,0,0
0,56,50,1
0,62,50,0
0,67,50,0
0,55,120,0
0,55,0,95
0,62,0,0
0,46,0,0
0,56,0,0
0,67,0,0
0,51,60,1
0,58,120,0
0,58,40,48
0,63,50,48
0,67,60,48
0,51,0,23
0,46,50,25
0,58,0,23
0,63,0,24
0,63,40,1
0,67,0,47
0,67,50,1
0,70,60,48
0,46,0,23
0,58,0,24
0,51,60,1
0,70,80,0
0,63,0,5
0,67,0,5
0,67,40,1
0,70,0,5
0,70,50,1
0,75,100,0
0,75,60,12
0,51,0,5
0,75,0,5
0,63,50,1
0,79,50,0
0,79,100,0
0,67,0,5
0,70,0,5
0,70,40,1
0,79,0,5
0,62,60,1
0,77,60,0
0,77,100,0
0,75,0,11
0,70,0,11
0,70,40,1
0,79,0,5
0,63,0,0
0,77,0,5
0,70,0,0
0,60,60,1
0,67,80,0
0,72,80,0
0,75,100,0
0,67,40,48
0,62,0,23
0,77,0,0
0,72,50,25
0,63,120,0
0,70,0,11
0,75,60,12
0,60,0,11
0,58,50,6
0,67,0,5
0,67,40,6
0,72,0,5
0,63,0,11
0,72,50,1
0,63,120,0
0,75,0,11
0,75,60,12
0,58,0,5
0,63,0,5
0,57,60,1
0,63,120,0
0,67,0,5
0,67,40,6
0,72,0,11
0,63,0,11
0,72,50,1
0,67,120,0
0,75,0,11
0,75,60,6
0,72,0,5
0,65,50,1
0,72,50,0
0,67,0,5
0,67,0,11
0,53,100,1
0,75,0,5
0,72,0,5
0,75,0,0
0,72,0,0
0,67,0,0
0,65,0,0
0,57,0,0
0,53,0,0
0,53,60,1
0,56,120,0
0,63,40,48
0,68,50,48
0,72,60,48
0,53,0,23
0,53,50,25
0,63,0,23
0,63,40,25
0,68,0,23
0,68,50,25
0,72,0,23
0,72,60,25
0,53,0,23
0,56,0,24
0,62,50,1
0,70,50,0
0,68,0,23
0,72,0,0
0,63,0,0
0,62,0,24
0,70,0,0
0,63,55,1
0,72,55,0
0,72,0,47
0,63,0,0
0,65,60,1
0,74,60,0
0,74,0,47
0,65,0,0
0,63,65,1
0,72,65,0
0,72,0,47
0,63,0,0
0,62,70,1
0,70,70,0
0,70,0,47
0,62,0,0
0,60,65,1
0,68,65,0
0,46,40,0
0,46,0,3
0,68,0,44
0,60,0,0
0,58,60,1
0,67,60,0
0,44,40,0
0,44,0,3
0,67,0,44
0,58,0,0
0,56,55,1
0,65,55,0
0,35,20,0
0,35,0,3
0,65,0,44
0,56,0,0
0,51,70,1
0,51,60,0
0,55,120,0
0,51,100,0
0,58,100,0
0,63,100,0
0,67,100,0
0,35,50,0
0,35,0,3
0,58,40,45
0,77,60,36
0,80,60,0
0,80,0,11
0,77,0,0
0,63,50,1
0,75,60,0
0,79,80,0
0,44,60,0
0,44,0,3
0,75,0,44
0,79,0,0
0,67,60,1
0,70,40,0
0,77,60,0
0,35,30,0
0,35,0,3
0,51,0,20
0,77,0,0
0,70,0,0
0,51,0,24
0,46,70,1
0,46,50,0
0,75,60,0
0,79,80,0
0,35,50,0
0,35,0,3
0,58,0,20
0,79,0,0
0,75,0,0
0,58,40,25
0,77,60,0
0,80,80,0
0,63,0,23
0,63,50,25
0,44,60,0
0,44,0,3
0,67,0,20
0,77,0,0
0,80,0,0
0,67,60,25
0,79,60,0
0,82,80,0
0,46,0,23
0,46,0,24
0,55,0,0
0,51,70,1
0,51,60,0
0,35,50,0
0,35,0,3
0,58,0,20
0,58,40,25
0,63,0,5
0,63,50,6
0,44,60,0
0,44,0,3
0,67,0,5
0,67,60,6
0,35,30,0
0,35,0,3
0,51,0,5
0,51,0,5
0,46,70,1
0,46,50,0
0,55,120,0
0,35,50,0
0,35,0,3
0,58,0,5
0,55,0,5
0,58,40,1
0,55,120,0
0,63,0,5
0,55,0,5
0,63,50,1
0,58,80,0
0,44,60,0
0,44,0,3
0,67,0,5
0,79,0,5
0,82,0,0
0,67,60,1
0,46,0,23
0,46,0,24
0,58,0,0
0,63,0,0
0,67,0,0
0,58,0,0
0,51,70,1
0,51,60,0
0,56,120,0
0,60,100,0
0,65,100,0
0,68,100,0
0,35,50,0
0,35,0,3
0,58,0,20
0,60,40,25
0,63,0,23
0,79,60,13
0,82,60,0
0,82,0,11
0,79,0,0
0,65,50,1
0,77,60,0
0,80,80,0
0,44,60,0
0,44,0,3
0,67,0,20
0,77,0,24
0,80,0,0
0,68,60,1
0,72,40,0
0,79,60,0
0,35,30,0
0,35,0,3
0,51,0,20
0,79,0,0
0,72,0,0
0,51,0,24
0,46,70,1
0,46,50,0
0,77,60,0
0,80,80,0
0,35,50,0
0,35,0,3
0,60,0,20
0,80,0,0
0,77,0,0
0,60,40,25
0,79,60,0
0,82,80,0
0,65,0,23
0,65,50,25
0,44,60,0
0,44,0,3
0,68,0,20
0,79,0,0
0,82,0,0
0,68,60,25
0,80,60,0
0,84,80,0
0,46,0,23
0,46,0,24
0,56,0,0
0,51,70,1
0,51,60,0
0,35,50,0
0,35,0,3
0,60,0,20
0,60,40,25
0,65,0,5
0,65,50,6
0,44,60,0
0,44,0,3
0,68,0,5
0,68,60,6
0,35,30,0
0,35,0,3
0,51,0,5
0,51,0,5
0,46,70,1
0,46,50,0
0,56,120,0
0,35,50,0
0,35,0,3
0,60,0,5
0,60,40,6
0,65,0,5
0,56,0,5
0,65,50,1
0,60,120,0
0,44,60,0
0,44,0,3
0,68,0,5
0,80,0,5
0,84,0,0
0,68,60,1
0,46,0,23
0,60,0,24
0,65,0,0
0,46,0,0
0,68,0,0
0,60,0,0
0,51,70,1
0,51,60,0
0,58,120,0
0,58,100,0
0,63,100,0
0,67,100,0
0,79,60,0
0,82,80,0
0,35,50,0
0,35,0,3
0,60,0,5
0,58,40,6
0,65,0,5
0,58,0,5
0,63,50,1
0,58,120,0
0,44,60,0
0,44,0,3
0,68,0,5
0,67,60,6
0,35,30,0
0,35,0,3
0,51,0,5
0,51,0,5
0,46,70,1
0,46,50,0
0,35,50,0
0,35,0,3
0,58,0,5
0,58,40,6
0,63,0,5
0,58,0,5
0,63,50,1
0,55,120,0
0,44,60,0
0,44,0,3
0,67,0,5
0,67,60,6
0,46,0,5
0,46,0,5
0,82,0,0
0,55,0,0
0,79,0,0
0,51,70,1
0,51,60,0
0,58,120,0
0,35,50,0
0,35,0,3
0,58,0,20
0,58,40,25
