track,note,velocity,time
1,52,126,1997
1,52,0,47
1,55,126,49
1,55,0,47
1,62,126,49
1,62,0,95
1,62,126,97
1,62,0,63
1,60,86,1
1,60,0,31
1,62,126,1
1,62,0,63
1,64,86,1
1,64,0,95
1,59,126,1
1,59,0,159
1,59,106,97
1,59,0,31
1,62,86,1
1,62,0,31
1,66,126,1
1,66,0,95
1,59,126,161
1,59,0,31
1,62,86,1
1,62,0,63
1,67,126,1
1,67,0,127
1,52,126,289
1,52,0,63
1,55,86,1
1,55,0,95
1,62,126,1
1,62,0,127
1,52,126,97
1,52,0,63
1,55,126,1
1,55,0,95
1,64,86,1
1,64,0,31
1,62,126,1
1,62,0,95
1,52,126,97
1,52,0,63
1,55,86,1
1,55,0,95
1,62,126,1
1,62,0,223
1,52,126,193
1,52,0,47
1,55,126,49
1,55,0,47
1,62,126,49
1,62,0,95
1,62,126,97
1,62,0,63
1,60,86,1
1,60,0,31
1,62,126,1
1,62,0,63
1,64,86,1
1,64,0,95
1,59,126,1
1,59,0,159
1,59,106,97
1,59,0,31
1,62,86,1
1,62,0,31
1,66,126,1
1,66,0,95
1,59,126,161
1,59,0,31
1,62,86,1
1,62,0,63
1,67,126,1
1,67,0,127
1,52,126,289
1,52,0,63
1,55,86,1
1,55,0,95
1,62,126,1
1,62,0,127
1,52,126,97
1,52,0,63
1,55,126,1
1,55,0,95
1,64,86,1
1,64,0,31
1,62,126,1
1,62,0,95
1,52,126,97
1,52,0,63
1,55,86,1
1,55,0,95
1,62,126,1
1,62,0,223
1,55,126,385
1,55,0,63
1,55,106,1
1,55,0,31
1,57,126,1
1,57,0,63
1,57,106,1
1,57,0,31
1,59,126,1
1,59,0,63
1,59,106,1
1,59,0,31
1,57,126,1
1,57,0,63
1,55,106,1
1,55,0,31
1,55,126,1
1,55,0,63
1,55,106,1
1,55,0,31
1,57,126,1
1,57,0,63
1,57,106,1
1,57,0,31
1,59,126,1
1,59,0,63
1,59,106,1
1,59,0,31
1,57,126,33
1,57,0,31
1,55,106,1
1,55,0,31
1,62,126,1
1,62,0,63
1,62,106,1
1,62,0,31
1,64,126,1
1,64,0,63
1,64,106,1
1,64,0,31
1,66,126,1
1,66,0,31
1,66,106,1
1,66,0,31
1,64,126,1
1,64,0,95
1,62,106,1
1,62,0,95
1,66,126,1
1,66,0,127
1,64,126,97
1,64,0,63
1,66,106,1
1,66,0,31
1,67,126,1
1,67,0,63
1,67,106,1
1,67,0,31
1,67,126,1
1,67,0,63
1,67,106,1
1,67,0,31
1,67,126,1
1,67,0,31
1,67,106,1
1,67,0,31
1,67,126,1
1,67,0,95
1,67,106,1
1,67,0,31
1,67,126,1
1,67,0,63
1,67,106,1
1,67,0,31
1,67,126,1
1,67,0,63
1,67,106,1
1,67,0,31
1,67,126,1
1,67,0,63
1,64,106,1
1,64,0,31
1,66,126,1
1,66,0,63
1,67,106,1
1,67,0,31
1,69,126,1
1,69,0,191
1,52,126,385
1,52,0,47
1,55,126,49
1,55,0,47
1,62,126,49
1,62,0,95
1,62,126,97
1,62,0,63
1,60,106,1
1,60,0,31
1,62,126,1
1,62,0,63
1,64,106,1
1,64,0,95
1,59,126,1
1,59,0,159
1,59,126,97
1,59,0,31
1,62,106,1
1,62,0,31
1,66,126,1
1,66,0,95
1,59,126,161
1,59,0,31
1,62,106,1
1,62,0,63
1,67,126,1
1,67,0,127
1,52,126,289
1,52,0,63
1,55,106,1
1,55,0,95
1,62,126,1
1,62,0,127
1,52,126,97
1,52,0,63
1,55,126,1
1,55,0,95
1,64,106,1
1,64,0,31
1,62,126,1
1,62,0,95
1,66,126,97
1,66,0,63
1,62,106,1
1,62,0,95
1,62,126,1
1,62,0,31
1,59,106,1
1,59,0,287
1,56,126,3361
1,56,0,63
1,56,106,1
1,56,0,31
1,58,126,1
1,58,0,63
1,58,106,1
1,58,0,31
1,60,126,1
1,60,0,63
1,60,106,1
1,60,0,31
1,58,126,1
1,58,0,63
1,56,106,1
1,56,0,31
1,56,126,1
1,56,0,63
1,56,106,1
1,56,0,31
1,58,126,1
1,58,0,63
1,58,106,1
1,58,0,31
1,60,126,1
1,60,0,63
1,60,106,1
1,60,0,31
1,58,126,33
1,58,0,31
1,56,106,1
1,56,0,31
1,63,126,1
1,63,0,63
1,63,106,1
1,63,0,31
1,65,126,1
1,65,0,63
1,65,106,1
1,65,0,31
1,67,126,1
1,67,0,31
1,67,106,1
1,67,0,31
1,65,126,1
1,65,0,95
1,63,106,1
1,63,0,95
1,67,126,1
1,67,0,127
1,65,126,97
1,65,0,63
1,67,106,1
1,67,0,31
1,68,126,1
1,68,0,63
1,68,106,1
1,68,0,31
1,68,126,1
1,68,0,63
1,68,106,1
1,68,0,31
1,68,126,1
1,68,0,31
1,68,106,1
1,68,0,31
1,68,126,1
1,68,0,95
1,68,106,1
1,68,0,31
1,68,126,1
1,68,0,63
1,68,106,1
1,68,0,31
1,68,126,1
1,68,0,63
1,68,106,1
1,68,0,31
1,68,126,1
1,68,0,63
1,65,106,1
1,65,0,31
1,67,126,1
1,67,0,63
1,68,106,1
1,68,0,31
1,70,126,1
1,70,0,191
1,53,126,385
1,53,0,47
1,56,126,49
1,56,0,47
1,63,126,49
1,63,0,95
1,63,126,97
1,63,0,63
1,61,106,1
1,61,0,31
1,63,126,1
1,63,0,63
1,65,106,1
1,65,0,95
1,60,126,1
1,60,0,159
1,60,126,97
1,60,0,31
1,63,106,1
1,63,0,31
1,67,126,1
1,67,0,95
1,60,126,161
1,60,0,31
1,63,106,1
1,63,0,63
1,68,126,1
1,68,0,127
1,53,126,289
1,53,0,63
1,56,106,1
1,56,0,95
1,63,126,1
1,63,0,127
1,53,126,97
1,53,0,63
1,56,126,1
1,56,0,95
1,65,106,1
1,65,0,31
1,63,126,1
1,63,0,95
1,67,126,97
1,67,0,63
1,63,106,1
1,63,0,95
1,63,126,1
1,63,0,31
1,60,106,1
1,60,0,191
1,53,126,385
1,53,0,63
1,56,106,1
1,56,0,95
1,63,126,1
1,63,0,127
1,53,126,97
1,53,0,63
1,56,126,1
1,56,0,95
1,65,106,1
1,65,0,31
1,63,126,1
1,63,0,335
1,53,126,49
1,53,0,63
1,56,106,1
1,56,0,95
1,63,126,1
1,63,0,991
1,68,126,385
1,68,0,287
1,67,126,1
1,67,0,31
1,68,116,1
1,68,0,31
1,67,106,1
1,67,0,31
1,65,126,1
1,65,0,335
1,67,126,49
1,67,0,63
1,63,106,1
1,63,0,95
1,60,126,1
1,60,0,415
1,68,126,193
1,68,0,287
1,67,126,1
1,67,0,31
1,68,116,1
1,68,0,31
1,67,106,1
1,67,0,31
1,65,126,1
1,65,0,335
1,67,126,49
1,67,0,63
1,63,106,1
1,63,0,95
1,60,126,1
1,60,0,415
1,68,126,161
1,68,0,17
1,67,126,1
1,67,0,1
1,68,116,1
1,68,0,9
1,67,106,1
1,67,0,17
1,65,126,1
1,65,0,17
1,67,126,18
1,67,0,9
1,63,106,1
1,63,0,9
1,60,126,1
1,60,0,17
1,68,126,18
1,68,0,11
1,67,126,1
1,67,0,19
1,68,116,1
1,68,0,3
1,67,106,1
1,67,0,11
1,65,126,1
1,65,0,11
1,67,126,12
1,67,0,3
1,63,106,1
1,63,0,3
1,60,126,1
1,60,0,11
2,38,104,5204
2,38,0,31
2,37,101,1
2,37,0,32
2,36,97,3
2,36,0,167
2,43,98,27
2,43,0,167
2,35,101,22
2,35,0,167
2,42,96,25
2,42,0,167
2,35,100,23
2,35,0,167
2,42,100,26
2,42,0,167
2,40,100,28
2,40,0,167
2,35,104,25
2,35,0,94
2,40,104,0
2,40,0,96
2,36,101,1
2,36,0,167
2,43,102,22
2,43,0,167
2,36,102,29
2,36,0,167
2,43,103,24
2,43,0,167
2,31,96,27
2,31,0,168
2,38,98,22
2,38,0,167
2,31,96,22
2,31,0,359
2,36,104,29
2,36,0,167
2,43,101,21
2,43,0,167
2,36,102,30
2,36,0,135
2,36,78,23
2,36,0,31
2,43,96,3
2,43,0,90
2,36,100,1
2,36,0,95
2,35,99,1
2,35,0,168
2,42,101,28
2,42,0,167
2,40,101,26
2,40,0,167
2,35,101,23
2,35,0,94
2,40,103,1
2,40,0,95
2,36,104,2
2,36,0,168
2,43,104,22
2,43,0,167
2,36,101,28
2,36,0,167
2,43,101,22
2,43,0,95
2,36,103,5
2,36,0,94
2,38,100,1
2,38,0,743
2,36,96,22
2,36,0,167
2,43,98,26
2,43,0,167
2,35,101,23
2,35,0,168
2,42,98,25
2,42,0,167
2,47,80,90
2,47,0,23
2,54,104,11
2,54,0,48
2,53,84,14
2,53,0,29
2,52,97,1
2,52,0,63
2,50,80,4
2,50,0,31
2,47,100,3
2,47,0,71
2,40,103,22
2,40,0,191
2,40,98,63
2,40,0,128
2,36,103,4
2,36,0,167
2,43,103,25
2,43,0,167
2,36,97,21
2,36,0,167
2,43,99,27
2,43,0,63
2,48,98,4
2,48,0,31
2,40,96,1
2,40,0,93
2,43,102,1
2,43,0,191
2,38,102,3
2,38,0,157
2,38,96,1
2,38,0,31
2,43,103,1
2,43,0,119
2,37,103,263
2,37,0,167
2,44,103,28
2,44,0,155
2,37,83,1
2,37,0,31
2,36,97,4
2,36,0,167
2,43,99,26
2,43,0,167
2,36,104,22
2,36,0,168
2,43,96,25
2,43,0,167
2,41,98,25
2,41,0,168
2,41,99,22
2,41,0,168
2,37,103,25
2,37,0,167
2,44,96,25
2,44,0,167
2,37,96,29
2,37,0,155
2,39,78,1
2,39,0,31
2,41,104,4
2,41,0,95
2,37,102,2
2,37,0,91
2,32,96,1
2,32,0,167
2,39,104,26
2,39,0,167
2,44,100,27
2,44,0,360
2,37,102,21
2,37,0,167
2,44,96,27
2,44,0,167
2,37,98,25
2,37,0,135
2,49,83,22
2,49,0,31
2,44,103,1
2,44,0,31
2,41,76,35
2,41,0,31
2,37,97,3
2,37,0,95
2,36,99,1
2,36,0,167
2,43,102,23
2,43,0,167
2,41,98,26
2,41,0,167
2,41,98,23
2,41,0,167
2,37,100,27
2,37,0,167
2,44,99,24
2,44,0,168
2,37,102,26
2,37,0,167
2,44,102,22
2,44,0,95
2,37,96,1
2,37,0,95
2,39,102,1
2,39,0,487
2,37,102,281
2,37,0,167
2,44,104,24
2,44,0,192
2,36,100,3
2,36,0,167
2,43,100,23
2,43,0,191
2,36,100,5
2,36,0,167
2,43,100,24
2,43,0,168
2,41,101,25
2,41,0,167
2,41,96,22
2,41,0,167
2,37,100,28
2,37,0,167
2,44,98,23
2,44,0,167
2,37,102,24
2,37,0,167
2,44,103,25
2,44,0,31
2,41,80,34
2,41,0,32
2,37,103,2
2,37,0,94
2,44,102,1
2,44,0,167
2,39,97,22
2,39,0,167
2,44,102,26
2,44,0,359
2,37,99,25
2,37,0,167
2,44,104,25
2,44,0,167
2,37,102,26
2,37,0,156
2,32,80,1
2,32,0,31
2,37,103,4
2,37,0,384
2,37,97,1534
2,37,0,167
2,44,96,27
2,44,0,167
2,37,99,23
2,37,0,136
2,39,100,26
2,39,0,31
2,41,97,1
2,41,0,95
2,37,100,3
2,37,0,93
2,44,100,1
2,44,0,167
2,39,98,22
2,39,0,135
2,32,96,25
2,32,0,72
2,34,101,28
2,34,0,71
2,36,96,26
2,36,0,71
2,39,104,22
2,39,0,72
2,36,100,24
2,36,0,30
2,37,103,1
2,37,0,167
2,44,98,27
2,44,0,167
2,37,100,22
2,37,0,135
2,39,100,30
2,39,0,26
2,41,97,1
2,41,0,95
2,37,102,3
2,37,0,96
2,44,98,2
2,44,0,167
2,39,100,21
2,39,0,135
2,32,100,25
2,32,0,71
2,34,103,28
2,34,0,71
2,36,104,25
2,36,0,71
2,39,97,26
2,39,0,72
2,37,99,24
2,37,0,10
2,44,100,8
2,44,0,17
2,37,96,20
2,37,0,12
2,39,104,9
2,39,0,15
2,41,99,1
2,41,0,15
2,44,103,19
2,44,0,18
2,39,103,18
2,39,0,18
2,36,97,19
2,36,0,10
2,39,104,7
2,39,0,14
2,41,103,6
2,41,0,11
2,32,102,1
2,32,0,15
2,36,100,1
2,36,0,14
2,37,101,1
2,37,0,8
2,44,100,13
2,44,0,12
2,37,101,10
2,37,0,1
2,39,98,3
2,39,0,10
2,41,98,4
2,41,0,11
2,44,97,0
2,44,0,9
2,32,96,1
2,32,0,9
2,39,99,10
2,39,0,1
2,32,100,3
2,32,0,2
2,34,101,1
2,34,0,24
2,36,98,1
2,36,0,24
2,39,100,5
2,39,0,4
2,36,103,2
2,36,0,31
3,79,77,658
3,76,49,0
3,74,104,0
3,74,0,94
3,76,0,0
3,79,0,0
3,76,52,1
3,74,101,0
3,79,82,1
3,67,79,63
3,67,0,30
3,76,0,0
3,74,0,0
3,79,0,1
3,72,97,1
3,79,78,0
3,76,71,1
3,79,0,93
3,72,0,0
3,76,0,1
3,72,100,1
3,79,77,1
3,76,66,0
3,67,76,64
3,72,0,29
3,79,0,1
3,76,0,0
3,67,0,0
3,79,83,1
3,76,53,0
3,74,103,1
3,76,0,61
3,79,0,0
3,74,0,1
3,76,84,1
3,79,59,1
3,76,0,29
3,79,0,1
3,76,52,1
3,79,76,1
3,74,99,0
3,67,79,63
3,67,0,30
3,76,0,0
3,74,0,1
3,79,0,0
3,72,99,1
3,76,71,0
3,79,80,1
3,76,0,93
3,79,0,1
3,72,0,0
3,79,82,1
3,76,72,1
3,72,96,0
3,67,84,64
3,79,0,29
3,76,0,1
3,72,0,0
3,67,0,1
3,76,47,0
3,79,83,1
3,74,102,0
3,76,0,93
3,74,0,1
3,79,0,0
3,79,79,1
3,74,100,1
3,76,50,0
3,67,83,64
3,79,0,29
3,74,0,1
3,76,0,0
3,67,0,0
3,79,83,1
3,72,103,0
3,76,68,0
3,76,0,94
3,72,0,0
3,79,0,0
3,76,68,2
3,72,100,0
3,79,77,1
3,67,82,63
3,67,0,30
3,76,0,0
3,72,0,0
3,79,0,1
3,76,50,2
3,74,104,0
3,79,77,0
3,79,0,382
3,74,0,0
3,76,0,0
3,62,92,1
3,67,93,1
3,36,68,0
3,64,89,0
3,64,0,94
3,62,0,0
3,67,0,0
3,64,73,1
3,62,67,1
3,67,72,0
3,67,0,94
3,62,0,0
3,64,0,0
3,67,76,1
3,64,84,1
3,62,84,0
3,67,0,93
3,62,0,1
3,64,0,0
3,62,94,1
3,67,89,1
3,64,92,0
3,62,0,61
3,60,72,2
3,60,0,30
3,64,0,1
3,67,0,0
3,36,0,0
3,66,87,1
3,35,71,1
3,64,94,0
3,59,93,0
3,66,0,93
3,59,0,1
3,64,0,0
3,66,69,1
3,64,72,1
3,59,71,0
3,66,0,93
3,59,0,1
3,64,0,0
3,59,80,1
3,63,80,1
3,66,78,0
3,59,0,93
3,66,0,1
3,63,0,0
3,63,90,1
3,66,91,0
3,59,93,1
3,35,0,62
3,42,51,1
3,42,0,30
3,63,0,0
3,66,0,0
3,59,0,2
3,57,92,1
3,62,88,0
3,66,90,0
3,35,70,0
3,66,0,94
3,57,0,0
3,62,0,0
3,62,67,2
3,66,68,0
3,57,74,0
3,57,0,94
3,66,0,0
3,62,0,0
3,66,76,1
3,57,76,1
3,62,76,0
3,66,0,93
3,62,0,1
3,57,0,0
3,62,94,1
3,66,94,0
3,57,87,1
3,35,0,62
3,47,48,2
3,62,0,29
3,66,0,0
3,57,0,1
3,47,0,0
3,67,94,2
3,40,73,0
3,59,88,0
3,62,89,0
3,62,0,94
3,67,0,0
3,59,0,1
3,67,70,0
3,62,74,0
3,59,70,1
3,62,0,93
3,67,0,0
3,59,0,1
3,67,83,2
3,64,83,0
3,59,78,0
3,59,0,94
3,64,0,0
3,67,0,0
3,67,87,1
3,64,93,0
3,59,90,1
3,64,0,93
3,40,0,1
3,67,0,0
3,59,0,1
3,36,70,0
3,59,88,0
3,67,88,1
3,64,87,0
3,64,0,94
3,67,0,0
3,59,0,0
3,67,74,1
3,59,74,1
3,64,69,0
3,67,0,93
3,64,0,1
