track,note,velocity,time
1,42,61,13800
1,42,61,766
1,42,61,766
1,42,54,766
1,42,61,766
1,42,71,766
1,42,40,766
1,35,45,1790
1,35,89,126
1,42,116,382
1,35,5,254
1,35,89,126
1,42,116,382
1,35,45,254
1,35,89,126
1,42,116,382
1,35,36,254
1,35,101,126
1,42,116,382
1,35,36,254
1,35,89,126
1,42,100,382
1,35,36,254
1,35,89,126
1,42,100,382
1,35,36,254
1,35,89,126
1,42,100,382
1,35,36,254
1,35,89,126
1,42,100,382
1,35,36,254
1,35,89,126
1,42,116,382
1,35,36,254
1,35,89,126
1,42,100,382
1,35,36,254
1,35,89,126
1,42,116,382
1,35,45,254
1,35,89,126
1,42,116,382
1,35,36,254
1,35,89,126
1,42,100,382
1,35,29,254
1,35,89,126
1,42,116,382
1,35,45,254
1,35,72,126
1,48,59,894
1,45,80,126
1,45,95,126
1,45,80,126
1,41,80,126
1,35,101,126
1,42,116,382
1,35,45,254
1,35,89,126
1,42,116,382
1,35,36,254
1,35,89,126
1,42,116,382
1,35,29,254
1,35,89,126
1,42,116,382
1,35,20,254
1,35,89,126
1,42,116,382
1,35,29,254
1,35,101,126
1,42,116,382
1,35,20,254
1,35,89,126
1,42,100,382
1,35,29,254
1,35,89,126
1,42,100,382
1,35,16,254
1,35,89,126
1,42,116,382
1,35,36,254
1,35,101,126
1,42,116,382
1,35,36,254
1,35,89,126
1,42,116,382
1,35,36,254
1,35,89,126
1,42,116,382
1,35,29,254
1,35,89,126
1,48,118,2174
1,45,75,292
1,41,97,38
1,35,58,190
1,51,100,80
1,35,89,0
1,42,116,338
1,35,5,254
1,35,89,126
1,42,116,382
1,35,45,254
1,35,89,126
1,42,116,382
1,35,36,254
1,35,101,126
1,42,116,382
1,35,36,254
1,35,89,126
1,42,100,382
1,35,36,254
1,35,89,126
1,42,100,382
1,35,36,254
1,35,89,126
1,42,100,382
1,35,36,254
1,35,89,126
1,42,100,382
1,35,36,254
1,35,89,126
1,42,116,382
1,35,36,254
1,35,89,126
1,42,100,382
1,35,36,254
1,35,89,126
1,42,116,382
1,35,45,254
1,35,89,126
1,42,116,382
1,35,36,254
1,35,89,126
1,42,100,382
1,35,29,254
1,35,89,126
1,42,116,382
1,35,45,254
1,35,72,126
1,35,89,1534
1,42,116,382
1,35,5,254
1,35,89,126
1,42,116,382
1,35,45,254
1,35,89,126
1,42,116,382
1,35,36,254
1,35,101,126
1,42,116,382
1,35,36,254
1,35,89,126
1,42,100,382
1,35,36,254
1,35,89,126
1,42,100,382
1,35,36,254
1,35,89,126
1,42,100,382
1,35,36,254
1,35,89,126
1,42,100,382
1,35,36,254
1,35,89,126
1,42,116,382
1,35,36,254
1,35,89,126
1,42,100,382
1,35,36,254
1,35,89,126
1,42,116,382
1,35,45,254
1,35,89,126
1,42,116,382
1,35,36,254
1,35,89,126
1,42,100,382
1,35,29,254
1,35,89,126
1,42,116,382
1,35,45,254
1,51,100,126
1,35,72,0
1,48,52,458
1,48,81,72
1,48,125,80
1,48,59,48
1,45,70,0
1,45,80,84
1,45,95,126
1,45,80,126
1,41,80,126
1,51,113,126
1,35,101,0
1,42,116,338
1,35,45,254
1,35,89,126
1,42,116,382
1,35,36,254
1,35,89,126
1,42,116,382
1,35,29,254
1,35,89,126
1,42,116,382
1,35,20,254
1,35,89,126
1,42,116,382
1,35,29,254
1,35,101,126
1,42,116,382
1,35,20,254
1,35,89,126
1,42,100,382
1,35,29,254
1,35,89,126
1,42,100,382
1,35,16,254
1,35,89,126
1,42,116,382
1,35,36,254
1,35,101,126
1,42,116,382
1,35,36,254
1,35,89,126
1,42,116,382
1,35,36,254
1,35,89,126
1,42,116,382
1,35,29,254
1,51,29,126
1,35,89,0
1,51,31,0
1,51,33,0
1,51,36,0
1,51,38,0
1,51,40,0
1,48,92,16
1,51,43,0
1,51,45,0
1,51,47,0
1,48,92,0
1,51,50,0
1,51,52,0
1,48,92,32
1,51,55,0
1,51,57,0
1,51,59,0
1,45,92,16
1,51,62,0
1,51,64,0
1,51,66,0
1,45,92,0
1,51,69,0
1,51,71,0
1,45,92,32
1,51,73,0
1,51,76,0
1,51,78,0
1,45,92,16
1,51,81,0
1,51,83,0
1,51,85,0
1,41,92,0
1,51,88,0
1,51,90,0
1,41,92,32
1,51,92,0
1,51,95,0
1,51,97,0
1,41,92,16
1,35,89,96
1,35,89,1534
1,42,116,382
1,35,5,254
1,35,89,126
1,42,116,382
1,35,45,254
1,35,89,126
1,42,116,382
1,35,36,254
1,35,101,126
1,42,116,382
1,35,36,254
1,35,89,126
1,42,100,382
1,35,36,254
1,35,89,126
1,42,100,382
1,35,36,254
1,35,89,126
1,42,100,382
1,35,36,254
1,35,89,126
1,42,100,382
1,35,36,254
1,35,89,126
1,42,116,382
1,35,36,254
1,35,89,126
1,42,100,382
1,35,36,254
1,35,89,126
1,42,116,382
1,35,45,254
1,35,89,126
1,42,116,382
1,35,36,254
1,35,89,126
1,42,100,382
1,35,29,254
1,35,89,126
1,42,116,382
1,35,45,254
1,35,72,126
1,35,89,1534
1,42,116,382
1,35,36,254
1,35,89,126
1,42,100,382
1,35,36,254
1,35,89,126
1,42,116,382
1,35,45,254
1,35,89,126
1,42,116,382
1,42,54,3838
1,46,83,638
1,42,100,126
1,42,61,126
1,35,57,126
1,35,101,126
1,42,100,382
1,42,100,766
1,46,54,1406
1,42,100,126
1,42,44,126
1,35,36,126
1,49,61,126
1,35,72,0
1,42,100,382
1,35,29,254
1,35,89,126
1,42,116,382
1,35,45,254
1,35,101,126
1,42,116,382
1,35,29,254
1,35,101,126
1,42,116,382
1,35,36,254
1,35,101,126
1,42,116,382
1,35,36,254
1,35,101,126
1,42,116,382
1,35,29,254
1,35,101,126
1,42,116,382
1,35,36,254
1,35,101,126
1,42,116,382
1,35,57,254
1,49,61,126
1,35,72,0
1,42,100,382
1,35,29,254
1,35,89,126
1,42,116,382
1,35,45,254
1,35,101,126
1,42,116,382
1,35,29,254
1,35,101,126
1,42,116,382
1,35,36,254
1,35,101,126
1,42,116,382
1,35,36,254
1,35,101,126
1,42,116,382
1,35,29,254
1,35,72,126
1,42,116,382
1,35,36,254
1,35,45,126
1,42,100,126
1,41,112,126
1,41,124,126
1,49,116,254
1,35,101,0
1,42,100,510
1,35,45,254
1,35,89,126
1,42,116,382
1,35,45,254
1,35,101,126
1,42,116,382
1,35,29,254
1,35,101,126
1,42,116,382
1,35,36,254
1,35,101,126
1,42,116,382
1,35,36,254
1,35,101,126
1,42,116,382
1,35,29,254
1,35,101,126
1,42,116,382
1,35,36,254
1,35,101,126
1,42,116,382
1,35,57,254
1,49,61,126
1,35,72,0
1,42,100,382
1,35,29,254
1,35,89,126
1,42,116,382
1,35,45,254
1,35,101,126
1,42,116,382
1,35,29,254
1,35,101,126
1,42,116,382
1,35,36,254
1,51,91,126
1,35,95,0
1,51,63,182
1,51,83,308
2,74,84,1896
2,76,84,0
2,79,84,0
2,76,84,80
2,79,84,0
2,74,75,0
2,67,96,8
2,76,111,118
2,79,84,0
2,72,84,0
2,72,84,56
2,79,84,0
2,76,96,0
2,67,84,8
2,76,96,128
2,74,84,0
2,79,96,240
2,74,84,112
2,76,96,0
2,67,111,256
2,79,84,112
2,76,84,0
2,72,75,0
2,79,84,74
2,76,96,0
2,72,84,0
2,67,84,2
2,76,84,120
2,74,96,0
2,79,96,0
2,79,84,74
2,76,96,0
2,74,84,0
2,67,84,6
2,76,84,126
2,72,75,0
2,79,96,0
2,79,75,76
2,76,75,0
2,72,84,0
2,67,96,2
2,79,96,116
2,76,96,0
2,74,111,0
2,62,84,324
2,67,84,0
2,64,96,0
2,48,84,0
2,64,84,60
2,62,75,0
2,67,68,0
2,62,68,162
2,67,68,0
2,64,68,0
2,67,68,126
2,62,84,0
2,64,84,0
2,48,84,76
2,59,68,42
2,57,63,0
2,64,84,0
2,47,111,0
2,57,59,82
2,64,75,0
2,57,51,4
2,57,68,70
2,63,99,0
2,57,68,114
2,63,87,0
2,54,64,46
2,62,75,72
2,66,87,0
2,57,68,0
2,47,84,0
2,66,77,38
2,62,84,0
2,57,75,0
2,57,55,78
2,57,84,52
2,66,99,0
2,62,96,0
2,57,96,150
2,66,116,0
2,62,111,0
2,47,96,18
2,59,96,24
2,67,84,0
2,52,111,0
2,62,96,0
2,59,75,102
2,67,84,0
2,62,75,0
2,67,96,156
2,64,84,0
2,59,84,0
2,59,96,42
2,67,75,0
2,62,84,0
2,50,84,70
2,67,68,40
2,62,84,0
2,64,84,0
2,48,84,0
2,64,68,112
2,62,68,0
2,67,75,0
2,55,63,150
2,60,75,128
2,64,84,0
2,67,84,0
2,67,75,128
2,64,75,0
2,60,75,0
2,55,84,18
2,64,84,124
2,48,111,0
2,62,96,0
2,67,96,210
2,64,96,98
2,62,111,0
2,55,84,34
2,64,84,128
2,60,84,0
2,67,96,0
2,50,75,10
2,52,84,50
2,55,68,0
2,67,75,0
2,60,68,0
2,64,75,0
2,55,68,16
2,57,96,36
2,62,111,0
2,66,87,0
2,43,96,0
2,66,64,98
2,62,63,0
2,57,63,0
2,57,68,106
2,66,70,116
2,62,84,0
2,66,99,154
2,57,75,0
2,62,111,0
2,57,59,14
2,50,63,0
2,57,84,36
2,66,87,0
2,62,84,0
2,43,127,0
2,50,84,26
2,49,99,32
2,67,96,10
2,64,111,0
2,62,111,0
2,48,96,0
2,67,84,52
2,64,96,0
2,62,96,0
2,48,84,26
2,67,84,24
2,55,84,0
2,60,75,0
2,43,96,0
2,64,96,0
2,60,68,64
2,55,75,0
2,67,84,0
2,64,84,0
2,48,84,24
2,57,84,30
2,64,84,0
2,47,111,0
2,57,68,86
2,64,96,0
2,57,63,114
2,63,87,78
2,57,75,0
2,63,116,0
2,57,68,64
2,62,75,0
2,66,87,0
2,47,96,0
2,57,75,116
2,66,87,0
2,62,96,0
2,57,68,94
2,62,75,92
2,47,96,0
2,66,70,0
2,57,59,66
2,66,77,68
2,62,84,0
2,57,59,62
2,59,96,48
2,67,111,0
2,62,96,0
2,52,96,0
2,66,87,44
2,57,75,0
2,62,96,0
2,57,68,34
2,55,111,4
2,64,96,0
2,52,84,22
2,55,68,82
2,64,84,36
2,50,84,16
2,67,84,34
2,64,111,0
2,62,127,0
2,48,111,0
2,64,75,94
2,67,84,0
2,62,84,0
2,55,75,40
2,43,111,128
2,67,84,0
2,64,84,0
2,60,84,0
2,67,111,88
2,64,96,0
2,60,84,0
2,55,75,4
2,67,96,70
2,62,127,0
2,48,111,0
2,64,111,0
2,67,96,4
2,62,75,122
2,64,75,0
2,55,84,2
2,67,96,128
2,64,111,0
2,60,84,0
2,50,84,24
2,67,84,26
2,52,84,0
2,64,84,0
2,60,96,0
2,55,68,0
2,50,68,4
2,55,68,0
2,43,111,24
2,66,77,0
2,57,75,0
2,62,96,0
2,62,96,82
2,66,87,0
2,57,68,116
2,57,68,30
2,50,96,0
2,62,111,0
2,66,116,0
2,57,75,84
2,62,111,104
2,66,116,0
2,50,96,100
2,62,111,22
2,43,127,0
2,71,84,0
2,69,111,60
2,60,84,0
2,59,111,80
2,67,84,0
2,59,96,32
2,67,84,0
2,67,111,70
2,60,96,0
2,67,75,66
2,59,84,0
2,59,111,34
2,67,96,0
2,54,75,56
2,57,84,0
2,62,75,0
2,43,84,50
2,57,68,0
2,55,111,12
2,48,127,0
2,64,75,0
2,60,84,0
2,60,75,12
2,64,84,0
2,55,84,0
2,60,111,62
2,64,96,0
2,57,75,0
2,48,84,60
2,60,55,0
2,57,68,0
2,64,46,0
2,59,111,60
2,64,111,0
2,60,111,0
2,43,111,0
2,59,75,38
2,57,96,70
2,64,111,0
2,60,127,0
2,43,96,148
2,48,111,0
2,55,84,0
2,60,96,0
2,64,84,0
2,55,75,38
2,57,96,40
2,64,84,0
2,60,84,0
2,48,96,68
2,64,111,88
2,60,84,0
2,59,96,0
2,43,96,0
2,59,63,54
2,48,96,0
2,57,111,0
2,60,96,0
2,64,96,0
2,43,84,10
2,55,75,0
2,57,84,26
2,47,127,0
2,66,127,0
2,62,127,0
2,57,68,48
2,57,96,56
2,66,87,0
2,62,111,0
2,47,84,76
2,57,84,0
2,62,111,50
2,57,111,0
2,66,116,0
2,47,68,40
2,57,111,6
2,66,127,0
2,62,127,0
2,47,84,256
2,52,96,94
2,57,111,0
2,66,116,0
2,62,111,0
2,62,111,92
2,66,99,0
2,57,96,0
2,52,96,6
2,66,116,114
2,62,96,0
2,56,99,0
2,62,111,86
2,66,116,0
2,56,87,0
2,50,111,104
2,48,111,30
2,67,127,0
2,64,111,0
2,62,111,0
2,62,96,96
2,67,84,0
2,64,84,0
2,48,96,4
2,67,96,108
2,64,96,0
2,60,111,0
2,43,127,0
2,60,111,84
2,67,96,0
2,64,111,0
2,43,104,12
2,59,104,20
2,62,104,0
2,67,104,0
2,48,104,0
2,67,105,96
2,59,105,0
2,62,105,0
2,48,105,136
2,57,106,10
2,64,106,0
2,67,106,0
2,60,106,0
2,43,106,0
2,57,106,74
2,57,106,30
2,64,106,0
2,67,106,0
2,60,106,0
2,48,106,0
2,57,107,70
2,69,107,52
2,57,107,0
2,66,107,0
2,62,107,0
2,50,107,0
2,50,96,62
2,49,87,34
2,67,96,2
2,64,111,0
2,62,111,0
2,48,96,0
2,67,84,52
2,64,96,0
2,62,96,0
2,48,84,26
2,67,84,24
2,55,84,0
2,60,75,0
2,43,96,0
2,64,96,0
2,60,68,64
2,55,75,0
2,67,84,0
2,64,84,0
2,48,84,24
2,57,84,30
2,64,84,0
2,47,111,0
2,57,68,86
2,64,96,0
2,57,63,114
2,63,120,78
2,57,98,116
2,63,98,0
2,57,97,56
2,62,97,128
2,66,97,0
2,47,97,0
2,57,97,116
2,66,97,0
2,62,97,0
2,57,96,94
2,62,96,92
2,47,96,0
2,66,96,0
2,57,96,66
2,66,96,68
2,62,96,0
2,57,95,62
2,59,95,48
2,67,95,0
2,62,95,0
2,52,95,0
2,66,95,44
2,57,95,0
2,62,95,0
2,57,95,34
2,55,111,4
2,64,96,0
2,52,84,22
2,55,68,82
2,64,84,36
2,50,98,16
2,67,98,34
2,64,98,0
2,62,98,0
2,48,98,0
2,64,98,94
2,67,98,0
2,62,98,0
2,55,98,40
2,43,98,128
2,67,98,0
2,64,98,0
2,60,98,0
2,67,98,88
2,64,98,0
2,60,98,0
2,55,75,4
2,67,114,70
2,62,114,0
2,48,114,0
2,64,114,0
2,67,115,4
2,62,115,122
2,64,115,0
2,55,116,2
2,67,117,128
2,64,117,0
2,60,117,0
2,50,110,24
2,67,109,26
2,52,109,0
2,64,109,0
2,60,109,0
2,55,109,0
2,50,108,4
2,55,108,0
2,43,111,24
2,66,77,0
2,57,75,0
2,62,96,0
2,62,111,82
2,66,111,0
2,57,112,116
2,57,112,30
2,50,112,0
2,62,112,0
2,66,112,0
2,57,112,84
2,62,113,104
2,66,113,0
2,50,113,100
2,59,113,22
2,57,113,0
2,43,113,0
2,66,113,0
2,62,113,0
2,68,96,794
2,65,111,0
2,63,111,0
2,49,96,0
2,68,84,52
2,65,96,0
2,63,96,0
2,49,84,26
2,68,84,24
2,56,84,0
2,61,75,0
2,44,96,0
2,65,96,0
2,61,68,64
2,56,75,0
2,68,84,0
2,65,84,0
2,49,84,24
2,58,84,30
2,65,84,0
2,48,111,0
2,58,68,86
2,65,96,0
2,58,63,114
2,64,87,78
2,58,75,6
2,64,116,116
2,58,68,0
2,63,75,128
2,67,87,0
2,48,96,0
2,58,75,116
2,67,87,0
2,63,96,0
2,58,68,94
2,63,75,92
2,48,96,0
2,67,70,0
2,58,59,66
2,67,77,68
2,63,84,0
2,58,59,62
2,60,96,48
2,68,111,0
2,63,96,0
2,53,96,0
2,67,87,44
2,58,75,0
2,63,96,0
2,58,68,34
2,56,111,4
2,65,96,0
2,53,84,22
2,56,68,82
2,65,84,36
2,51,84,16
2,68,84,34
2,65,111,0
2,63,127,0
2,49,111,0
