track,note,velocity,time
2,73,79,48
2,73,0,24
2,74,79,0
2,74,0,24
2,76,79,0
2,76,0,96
2,74,79,0
2,74,0,48
2,73,79,0
2,73,0,48
2,71,79,0
2,71,0,24
2,69,79,0
2,69,0,24
2,71,79,0
2,71,0,24
2,73,79,0
2,73,0,24
2,71,79,0
2,71,0,48
2,69,79,48
2,69,0,24
2,62,79,0
2,62,0,24
2,62,79,0
2,62,0,96
2,69,79,0
2,69,0,24
2,66,79,0
2,66,0,24
2,69,79,0
2,69,0,48
2,69,79,0
2,69,0,24
2,66,79,0
2,66,0,24
2,64,79,0
2,64,0,24
2,66,79,0
2,66,0,24
2,61,79,0
2,61,0,48
2,57,79,0
2,57,0,96
2,73,79,48
2,73,0,24
2,74,79,0
2,74,0,24
2,76,79,0
2,76,0,96
2,74,79,0
2,74,0,48
2,73,79,0
2,73,0,48
2,71,79,0
2,71,0,24
2,69,79,0
2,69,0,24
2,71,79,0
2,71,0,24
2,73,79,0
2,73,0,24
2,71,79,0
2,71,0,48
2,69,79,48
2,69,0,24
2,62,79,0
2,62,0,24
2,62,79,0
2,62,0,96
2,69,79,0
2,69,0,24
2,66,79,0
2,66,0,24
2,69,79,0
2,69,0,48
2,69,79,0
2,69,0,24
2,66,79,0
2,66,0,24
2,64,79,0
2,64,0,24
2,66,79,0
2,66,0,24
2,61,79,0
2,61,0,48
2,57,79,0
2,61,79,0
2,57,0,12
2,61,0,0
2,62,79,0
2,62,0,12
2,64,79,0
2,64,0,12
2,66,79,0
2,66,0,12
2,68,79,0
2,68,0,12
2,76,95,216
2,76,0,12
2,77,79,0
2,77,0,12
2,79,79,0
2,79,0,96
2,77,95,24
2,77,0,12
2,76,79,0
2,76,0,12
2,74,79,0
2,74,0,12
2,72,79,0
2,72,0,12
2,74,79,0
2,74,0,12
2,76,79,0
2,76,0,12
2,74,79,0
2,74,0,48
2,72,95,12
2,72,0,24
2,65,95,0
2,65,0,12
2,65,95,0
2,65,0,60
2,72,95,0
2,72,0,24
2,69,79,0
2,69,0,12
2,72,95,0
2,72,0,24
2,72,79,0
2,72,0,12
2,69,79,0
2,69,0,12
2,72,95,0
2,72,0,36
2,69,79,0
2,69,0,12
2,67,95,0
2,67,0,36
2,69,79,0
2,69,0,12
2,64,95,0
2,64,0,24
2,60,95,0
2,60,0,24
2,76,95,72
2,76,0,12
2,77,95,0
2,77,0,12
2,79,95,0
2,79,0,96
2,77,95,24
2,77,0,12
2,76,79,0
2,76,0,12
2,74,79,0
2,74,0,12
2,72,79,0
2,72,0,12
2,74,79,0
2,74,0,12
2,76,79,0
2,76,0,12
2,74,79,0
2,74,0,48
2,72,95,12
2,72,0,24
2,65,95,0
2,65,0,12
2,65,95,0
2,65,0,60
2,72,95,0
2,72,0,24
2,69,79,0
2,69,0,12
2,72,95,0
2,72,0,24
2,72,79,0
2,72,0,12
2,69,79,0
2,69,0,12
2,72,95,0
2,72,0,36
2,69,79,0
2,69,0,12
2,67,95,0
2,67,0,36
2,69,79,0
2,69,0,12
2,64,95,0
2,64,0,24
2,60,79,0
2,60,0,48
2,60,79,0
2,60,0,12
2,60,79,0
2,60,0,12
2,60,95,0
2,60,0,24
2,60,79,0
2,60,0,12
2,60,79,0
2,60,0,12
2,60,95,0
2,60,0,24
2,60,79,0
2,60,0,12
2,60,79,0
2,60,0,12
2,60,95,0
2,60,0,24
2,60,79,0
2,60,0,12
2,60,79,0
2,60,0,12
2,60,95,0
2,60,0,24
2,60,79,0
2,60,0,12
2,60,79,0
2,60,0,12
2,65,95,0
2,65,0,24
2,65,79,0
2,65,0,12
2,65,79,0
2,65,0,12
2,65,95,0
2,65,0,24
2,65,79,0
2,65,0,12
2,65,79,0
2,65,0,12
2,65,95,0
2,65,0,24
2,65,79,0
2,65,0,12
2,65,79,0
2,65,0,12
2,65,95,0
2,65,0,48
2,72,95,0
2,72,0,36
2,65,79,0
2,65,0,12
2,65,79,0
2,65,0,24
2,60,79,0
2,60,0,12
2,60,79,0
2,60,0,12
2,60,95,0
2,60,0,24
2,60,79,0
2,60,0,12
2,60,79,0
2,60,0,12
2,60,95,0
2,60,0,24
2,60,79,0
2,60,0,12
2,62,79,0
2,62,0,12
2,64,95,0
2,64,0,60
2,65,79,0
2,65,0,12
2,64,79,0
2,64,0,24
2,62,95,0
2,62,0,24
2,60,79,48
2,60,0,12
2,60,79,0
2,60,0,12
2,60,95,0
2,60,0,24
2,60,79,0
2,60,0,12
2,60,79,0
2,60,0,12
2,60,95,0
2,60,0,24
2,60,79,0
2,60,0,12
2,60,79,0
2,60,0,12
2,60,95,0
2,60,0,24
2,60,79,0
2,60,0,12
2,60,79,0
2,60,0,12
2,60,95,0
2,60,0,24
2,60,79,0
2,60,0,12
2,60,79,0
2,60,0,12
2,65,95,0
2,65,0,24
2,65,79,0
2,65,0,12
2,65,79,0
2,65,0,12
2,65,95,0
2,65,0,24
2,65,79,0
2,65,0,12
2,65,79,0
2,65,0,12
2,65,95,0
2,65,0,24
2,65,79,0
2,65,0,12
2,65,79,0
2,65,0,12
2,65,95,0
2,65,0,48
2,72,95,0
2,72,0,36
2,65,79,0
2,65,0,12
2,65,79,0
2,65,0,24
2,60,79,0
2,60,0,12
2,60,79,0
2,60,0,12
2,60,95,0
2,60,0,24
2,60,79,0
2,60,0,12
2,60,79,0
2,60,0,12
2,60,95,0
2,60,0,24
2,60,79,0
2,60,0,12
2,62,79,0
2,62,0,12
2,64,95,0
2,64,0,24
2,64,63,0
2,64,0,12
2,64,63,0
2,64,0,12
2,64,63,0
2,64,0,24
2,65,63,0
2,65,0,12
2,64,63,0
2,64,0,12
2,62,95,0
2,62,0,12
2,64,95,0
2,64,0,12
2,65,95,0
2,65,0,12
2,64,95,0
2,64,0,12
2,67,95,0
2,67,0,24
2,65,95,0
2,65,0,24
2,64,95,0
2,64,0,24
2,76,95,0
2,76,0,2
2,77,79,10
2,77,0,12
2,79,79,0
2,79,0,120
2,77,79,0
2,77,0,12
2,76,79,0
2,76,0,12
2,74,95,0
2,74,0,12
2,72,79,0
2,72,0,12
2,74,79,0
2,74,0,12
2,76,79,0
2,76,0,12
2,74,95,0
2,74,0,48
2,72,95,12
2,72,0,24
2,65,79,0
2,65,0,12
2,65,95,0
2,65,0,60
2,72,95,0
2,72,0,24
2,69,79,0
2,69,0,12
2,72,95,0
2,72,0,24
2,72,79,0
2,72,0,12
2,69,79,0
2,69,0,12
2,72,95,0
2,72,0,36
2,69,79,0
2,69,0,12
2,67,95,0
2,67,0,36
2,69,79,0
2,69,0,12
2,64,95,0
2,64,0,24
2,60,95,0
2,60,0,72
2,76,95,24
2,76,0,12
2,77,95,0
2,77,0,12
2,79,95,0
2,79,0,120
2,77,95,0
2,77,0,12
2,76,79,0
2,76,0,12
2,74,79,0
2,74,0,12
2,72,79,0
2,72,0,12
2,74,79,0
2,74,0,12
2,76,79,0
2,76,0,12
2,74,79,0
2,74,0,48
2,72,95,12
2,72,0,24
2,65,79,0
2,65,0,12
2,65,79,0
2,65,0,60
2,72,95,0
2,72,0,24
2,69,79,0
2,69,0,12
2,72,95,0
2,72,0,24
2,72,79,0
2,72,0,12
2,69,79,0
2,69,0,12
2,72,95,0
2,72,0,36
2,69,79,0
2,69,0,12
2,67,95,0
2,67,0,36
2,69,79,0
2,69,0,12
2,64,95,0
2,64,0,24
2,60,95,0
2,60,0,72
2,76,95,24
2,76,0,12
2,77,95,0
2,77,0,12
2,79,95,0
2,79,0,48
2,77,79,72
2,77,0,12
2,76,79,0
2,76,0,12
2,74,79,0
2,74,0,12
2,72,79,0
2,72,0,12
2,74,79,0
2,74,0,12
2,76,79,0
2,76,0,12
2,74,79,0
2,74,0,48
2,72,95,12
2,72,0,24
2,65,79,0
2,65,0,12
2,65,95,0
2,65,0,60
2,72,95,0
2,72,0,24
2,69,79,0
2,69,0,12
2,72,95,0
2,72,0,24
2,72,79,0
2,72,0,12
2,69,79,0
2,69,0,12
2,72,95,0
2,72,0,36
2,69,79,0
2,69,0,12
2,67,95,0
2,67,0,36
2,69,79,0
2,69,0,12
2,64,95,0
2,64,0,24
2,60,79,0
2,60,0,24
2,76,95,72
2,76,0,12
2,77,95,0
2,77,0,12
2,79,95,0
2,79,0,120
2,77,79,0
2,77,0,12
2,76,79,0
2,76,0,12
2,74,79,0
2,74,0,12
2,72,79,0
2,72,0,12
2,74,79,0
2,74,0,12
2,76,79,0
2,76,0,12
2,74,79,0
2,74,0,48
2,72,95,12
2,72,0,24
2,65,79,0
2,65,0,12
2,65,79,0
2,65,0,60
2,72,95,0
2,72,0,24
2,69,79,0
2,69,0,12
2,72,95,0
2,72,0,24
2,72,79,0
2,72,0,12
2,69,79,0
2,69,0,12
2,72,95,0
2,72,0,36
2,69,79,0
2,69,0,12
2,67,95,0
2,67,0,36
2,69,79,0
2,69,0,12
2,64,95,0
2,64,0,24
2,60,79,0
2,60,95,48
2,60,0,12
2,60,95,0
2,60,0,12
2,61,95,0
2,61,0,24
2,61,79,0
2,61,0,12
2,61,79,0
2,61,0,12
2,61,95,0
2,61,0,24
2,61,79,0
2,61,0,12
2,61,79,0
2,61,0,12
2,61,95,0
2,61,0,24
2,61,79,0
2,61,0,12
2,61,79,0
2,61,0,12
2,61,95,0
2,61,0,24
2,61,79,0
2,61,0,12
2,61,79,0
2,61,0,12
2,66,95,0
2,66,0,24
2,66,79,0
2,66,0,12
2,66,79,0
2,66,0,12
2,66,95,0
2,66,0,24
2,66,79,0
2,66,0,12
2,66,79,0
2,66,0,12
2,66,95,0
2,66,0,24
2,66,79,0
2,66,0,12
2,66,79,0
2,66,0,12
2,66,95,0
2,66,0,48
2,73,111,0
2,73,0,36
2,66,79,0
2,66,0,12
2,66,95,0
2,66,0,24
2,66,79,0
2,66,0,12
2,66,79,0
2,66,0,12
2,66,95,0
2,66,0,24
2,66,79,0
2,66,0,12
2,66,79,0
2,66,0,12
2,66,95,0
2,66,0,24
2,61,95,0
2,61,0,12
2,63,95,0
2,63,0,12
2,65,95,0
2,65,0,60
2,66,95,0
2,66,0,12
2,65,79,0
2,65,0,24
2,63,95,0
2,63,0,24
2,61,95,48
2,61,0,12
2,61,95,0
2,61,0,12
2,61,95,0
2,61,0,24
2,61,79,0
2,61,0,12
2,61,79,0
2,61,0,12
2,61,79,0
2,61,0,24
2,61,79,0
2,61,0,12
2,61,79,0
2,61,0,12
2,61,95,0
2,61,0,24
2,61,79,0
2,61,0,12
2,61,79,0
2,61,0,12
2,61,95,0
2,61,0,24
2,61,79,0
2,61,0,12
2,61,79,0
2,61,0,12
2,66,95,0
2,66,0,24
2,66,79,0
2,66,0,12
2,66,79,0
2,66,0,12
2,66,95,0
2,66,0,24
2,61,79,0
2,61,0,12
2,61,79,0
2,61,0,12
2,66,95,0
2,66,0,24
2,66,79,0
2,66,0,12
2,66,79,0
2,66,0,12
2,66,95,0
2,66,0,48
2,73,111,0
2,73,0,36
2,66,79,0
2,66,0,12
2,66,79,0
2,66,0,24
2,66,79,0
2,66,0,12
2,66,79,0
2,66,0,12
2,66,95,0
2,66,0,24
2,66,79,0
2,66,0,12
2,66,79,0
2,66,0,12
2,66,95,0
2,66,0,24
2,61,95,0
2,61,0,12
2,63,95,0
2,63,0,12
2,65,95,0
2,65,0,60
2,66,79,0
2,66,0,12
2,65,79,0
2,65,0,24
2,63,95,0
2,63,0,12
2,65,95,0
2,65,0,12
2,66,95,0
2,66,0,12
2,65,95,0
2,65,0,12
2,68,95,0
2,68,0,24
2,66,95,0
2,66,0,24
2,65,95,0
2,65,0,24
2,76,95,96
2,76,0,12
2,77,95,0
2,77,0,12
2,79,95,0
2,79,0,120
2,77,95,0
2,77,0,12
2,76,95,0
2,76,0,12
2,74,95,0
2,74,0,12
2,72,95,0
2,72,0,12
2,74,95,0
2,74,0,12
2,76,95,0
2,76,0,12
2,74,95,0
2,74,0,48
2,72,111,12
2,72,0,24
2,65,95,0
2,65,0,12
2,65,79,0
2,65,0,60
2,72,111,0
2,72,0,24
2,69,79,0
2,69,0,12
2,72,111,0
2,72,0,24
2,72,95,0
2,72,0,12
2,69,95,0
2,69,0,12
2,72,111,0
2,72,0,36
2,69,95,0
2,69,0,12
2,67,111,0
2,67,0,36
2,69,95,0
2,69,0,12
2,64,111,0
2,64,0,24
2,60,95,0
2,60,0,24
2,76,95,72
2,76,0,12
2,77,95,0
2,77,0,12
2,79,95,0
2,79,0,120
2,77,79,0
2,77,0,12
2,76,79,0
2,76,0,12
2,74,79,0
2,74,0,12
2,72,79,0
2,72,0,12
2,74,79,0
2,74,0,12
2,76,79,0
2,76,0,12
2,74,79,0
2,74,0,48
2,72,95,12
2,72,0,24
2,65,79,0
2,65,0,12
2,65,95,0
2,65,0,60
2,72,95,0
2,72,0,24
2,69,79,0
2,69,0,12
2,72,95,0
2,72,0,24
2,72,79,0
2,72,0,12
2,69,79,0
2,69,0,12
2,72,95,0
2,72,0,36
2,69,79,0
2,69,0,12
2,67,95,0
2,67,0,36
2,69,79,0
2,69,0,12
2,64,79,0
2,64,0,24
2,60,79,0
2,60,0,24
2,79,95,72
2,79,0,12
2,80,95,0
2,80,0,12
2,82,95,0
2,82,0,120
2,80,79,0
2,80,0,12
2,79,79,0
2,79,0,12
2,77,79,0
2,77,0,12
2,75,79,0
2,75,0,12
2,77,79,0
2,77,0,12
2,79,79,0
2,79,0,12
2,77,79,0
2,77,0,48
2,75,95,12
2,75,0,24
2,68,79,0
2,68,0,12
2,68,95,0
2,68,0,60
2,75,95,0
2,75,0,24
2,72,79,0
2,72,0,12
2,75,95,0
2,75,0,24
2,75,79,0
2,75,0,12
2,72,79,0
2,72,0,12
2,75,95,0
2,75,0,36
2,72,79,0
2,72,0,12
2,70,95,0
2,70,0,36
2,72,79,0
2,72,0,12
2,67,95,0
2,67,0,24
2,63,95,0
2,63,0,24
2,79,95,72
2,79,0,12
2,80,95,0
2,80,0,12
2,82,95,0
2,82,0,120
2,80,79,0
2,80,0,12
2,79,79,0
2,79,0,12
2,77,79,0
2,77,0,12
2,75,79,0
2,75,0,12
2,77,79,0
2,77,0,12
2,79,79,0
2,79,0,12
2,77,79,0
2,77,0,48
2,75,95,12
2,75,0,24
2,68,79,0
2,68,0,12
2,68,95,0
2,68,0,60
2,75,95,0
2,75,0,24
2,72,79,0
2,72,0,12
2,75,95,0
2,75,0,24
2,75,79,0
2,75,0,12
2,72,79,0
2,72,0,12
2,75,95,0
2,75,0,36
2,72,79,0
2,72,0,12
2,70,95,0
2,70,0,36
2,72,79,0
2,72,0,12
2,67,95,0
2,67,0,24
2,63,95,0
2,63,0,24
2,75,79,0
2,79,79,0
2,84,79,0
2,75,0,12
2,79,0,0
2,84,0,0
2,74,79,0
2,78,79,0
2,83,79,0
2,74,0,12
2,78,0,0
2,83,0,0
2,73,79,0
2,77,79,0
2,82,79,0
2,73,0,12
2,77,0,0
2,82,0,0
2,72,79,0
2,76,79,0
2,81,79,0
2,72,0,12
2,76,0,0
2,81,0,0
2,71,79,0
2,75,79,0
2,80,79,0
2,71,0,192
2,75,0,0
2,80,0,0
3,64,79,0
3,69,79,0
3,64,0,96
3,69,0,0
3,68,79,0
3,71,79,0
3,68,0,144
3,71,0,0
3,66,79,0
3,66,0,144
3,66,79,0
3,66,0,144
3,66,79,0
3,66,0,96
3,64,79,288
3,69,79,0
3,64,0,144
3,69,0,0
3,68,79,0
3,71,79,0
3,68,0,144
3,71,0,0
3,66,79,0
3,66,0,144
3,66,79,0
3,66,0,144
3,66,79,0
3,66,0,96
3,69,95,0
3,69,0,180
3,72,95,24
3,72,0,12
3,74,79,0
3,74,0,12
3,72,95,0
3,76,95,0
3,72,0,48
3,76,0,0
3,67,95,0
3,71,95,0
3,74,95,0
3,67,0,96
3,71,0,0
3,74,0,0
3,65,95,0
3,69,95,0
3,65,0,48
3,69,0,0
3,65,95,0
3,69,95,0
3,65,0,48
