track,note,velocity,time
0,89,66,2392
0,88,60,48
0,86,65,28
0,72,71,20
0,36,91,0
0,51,83,4
0,57,45,0
0,53,54,0
0,53,39,4
0,41,81,4
0,48,17,0
0,84,65,4
0,57,51,4
0,51,74,4
0,54,73,92
0,60,59,4
0,51,75,8
0,54,67,0
0,41,68,76
0,54,67,4
0,51,108,4
0,36,100,0
0,36,111,140
0,51,115,0
0,69,64,0
0,72,66,4
0,69,71,36
0,51,77,4
0,65,60,0
0,37,107,8
0,72,63,4
0,69,62,0
0,51,123,0
0,54,79,8
0,80,86,60
0,81,88,0
0,40,70,28
0,51,74,8
0,84,88,8
0,50,62,28
0,51,82,4
0,36,91,0
0,38,76,0
0,53,47,0
0,74,72,0
0,57,50,0
0,50,56,0
0,86,71,12
0,53,56,4
0,51,70,4
0,89,67,0
0,54,58,76
0,57,58,4
0,54,69,4
0,51,79,4
0,36,103,128
0,51,79,0
0,38,75,8
0,54,73,0
0,74,82,120
0,51,108,4
0,65,69,4
0,36,117,0
0,69,73,0
0,51,80,4
0,37,127,176
0,51,119,0
0,74,80,0
0,54,80,0
0,65,67,0
0,88,53,100
0,40,77,0
0,51,72,4
0,89,91,24
0,72,65,24
0,53,64,0
0,51,96,4
0,36,103,0
0,57,51,0
0,48,47,0
0,53,42,0
0,41,73,0
0,85,84,20
0,86,71,8
0,57,57,108
0,51,75,8
0,88,55,0
0,54,73,48
0,86,55,12
0,84,61,20
0,60,60,4
0,51,86,4
0,54,67,4
0,41,72,112
0,36,103,0
0,51,93,0
0,54,67,0
0,51,104,136
0,36,100,0
0,72,67,4
0,69,62,0
0,69,69,8
0,65,67,4
0,51,83,4
0,80,79,8
0,84,81,8
0,72,67,4
0,69,54,0
0,51,119,4
0,37,127,0
0,54,79,8
0,81,81,4
0,79,73,4
0,51,88,36
0,77,73,60
0,67,75,28
0,74,64,0
0,53,49,4
0,50,55,0
0,43,80,0
0,58,60,0
0,36,106,0
0,51,96,4
0,79,75,4
0,51,70,16
0,81,62,0
0,79,59,40
0,77,60,0
0,54,58,0
0,62,63,28
0,58,61,8
0,65,71,0
0,51,88,4
0,55,59,0
0,54,69,8
0,69,66,52
0,36,111,0
0,51,98,0
0,43,81,8
0,54,73,0
0,36,49,12
0,51,119,4
0,36,111,0
0,62,74,4
0,51,86,0
0,72,80,8
0,73,71,72
0,37,107,8
0,52,49,0
0,58,51,0
0,54,80,0
0,51,127,0
0,74,68,0
0,51,111,92
0,36,81,0
0,72,60,0
0,53,59,0
0,48,50,0
0,57,62,0
0,53,50,0
0,57,50,0
0,42,119,4
0,36,100,0
0,29,81,4
0,72,54,0
0,42,70,104
0,54,73,12
0,53,46,44
0,57,51,0
0,42,92,4
0,54,67,0
0,60,67,92
0,54,67,0
0,42,92,0
0,36,113,0
0,29,81,12
0,36,108,136
0,62,69,0
0,42,107,0
0,65,68,0
0,42,58,4
0,60,78,12
0,65,75,8
0,37,115,0
0,42,127,4
0,54,79,0
0,46,78,92
0,72,79,0
0,29,67,8
0,62,75,4
0,50,49,0
0,57,49,4
0,53,45,4
0,36,123,8
0,58,62,0
0,42,96,0
0,69,74,4
0,34,81,0
0,42,75,172
0,54,58,92
0,62,56,28
0,65,64,0
0,42,89,16
0,54,69,4
0,34,81,24
0,36,98,8
0,53,58,0
0,42,111,0
0,54,73,4
0,42,122,120
0,58,66,0
0,36,117,0
0,42,60,180
0,37,100,104
0,62,60,4
0,65,69,0
0,42,125,0
0,54,80,4
0,64,84,104
0,46,84,4
0,67,76,0
0,65,87,20
0,57,54,0
0,52,41,0
0,48,45,4
0,57,54,0
0,36,113,4
0,72,75,0
0,42,46,4
0,33,81,0
0,64,83,0
0,42,82,164
0,54,73,100
0,42,76,36
0,67,62,4
0,64,64,0
0,54,67,8
0,33,74,116
0,36,106,12
0,52,53,0
0,42,119,0
0,54,67,0
0,42,122,4
0,57,54,0
0,36,113,4
0,42,79,176
0,67,92,120
0,67,52,4
0,64,63,0
0,40,75,4
0,42,125,12
0,37,96,4
0,54,79,8
0,52,55,0
0,46,89,0
0,53,53,4
0,65,82,0
0,38,77,0
0,50,46,4
0,50,63,0
0,42,100,4
0,36,111,0
0,42,79,164
0,54,58,100
0,69,69,4
0,65,47,4
0,42,119,12
0,54,69,8
0,38,74,104
0,57,46,12
0,36,120,4
0,42,107,0
0,54,73,4
0,38,81,116
0,36,123,4
0,76,82,0
0,42,115,0
0,62,61,0
0,42,89,180
0,74,77,84
0,33,77,72
0,37,127,4
0,42,127,0
0,54,80,4
0,42,94,120
0,72,82,4
0,36,100,40
0,55,60,4
0,42,107,0
0,62,83,0
0,58,55,0
0,65,54,0
0,69,66,0
0,31,74,0
0,50,33,0
0,53,37,0
0,42,75,148
0,54,73,88
0,58,53,40
0,62,54,0
0,42,84,4
0,54,67,0
0,31,70,64
0,42,89,12
0,36,108,0
0,54,67,0
0,67,68,0
0,36,108,136
0,42,111,0
0,65,61,8
0,42,63,180
0,58,51,80
0,55,27,0
0,62,49,0
0,37,127,4
0,42,119,0
0,54,79,8
0,64,77,40
0,46,75,32
0,31,70,4
0,65,82,48
0,53,50,4
0,50,32,4
0,57,50,0
0,38,80,8
0,50,51,0
0,64,84,0
0,42,107,0
0,36,113,0
0,42,84,172
0,54,58,92
0,42,107,0
0,60,68,0
0,57,55,4
0,60,46,0
0,54,69,4
0,36,103,124
0,42,92,4
0,38,72,4
0,76,74,0
0,54,73,0
0,42,125,108
0,36,117,4
0,76,70,4
0,77,70,20
0,42,84,4
0,77,72,24
0,33,77,0
0,54,80,8
0,60,54,0
0,37,115,0
0,42,127,0
0,57,45,4
0,74,75,24
0,42,92,92
0,72,80,0
0,62,80,12
0,31,80,4
0,36,111,0
0,58,56,0
0,42,122,0
0,55,49,0
0,69,62,4
0,53,48,4
0,50,31,0
0,42,84,176
0,54,73,92
0,42,111,12
0,62,57,4
0,54,67,0
0,58,60,0
0,42,100,104
0,31,81,0
0,36,111,0
0,70,72,0
0,54,67,0
0,42,122,0
0,36,117,0
0,67,62,8
0,65,43,0
0,42,43,180
0,62,56,92
0,37,122,0
0,58,58,0
0,42,127,0
0,54,79,8
0,64,92,80
0,46,87,0
0,31,80,4
0,65,92,4
0,53,55,4
0,36,113,4
0,42,125,0
0,36,81,4
0,58,65,4
0,53,37,0
0,50,41,0
0,67,92,0
0,42,87,176
0,54,58,88
0,55,57,12
0,58,54,0
0,72,92,8
0,54,69,0
0,42,122,0
0,69,58,72
0,60,88,0
0,36,81,0
0,42,122,4
0,36,127,0
0,54,73,4
0,62,63,24
0,42,107,4
0,62,87,8
0,38,127,32
0,36,81,4
0,65,86,0
0,58,58,84
0,42,111,0
0,31,81,0
0,54,80,0
0,55,42,0
0,52,30,0
0,47,106,24
0,45,98,0
0,43,123,0
0,62,87,0
0,60,69,36
0,65,69,0
0,57,59,0
0,57,55,4
0,53,48,0
0,49,119,0
0,36,93,0
0,67,79,0
0,29,81,4
0,42,76,176
0,54,73,12
0,57,53,40
0,92,73,4
0,53,47,0
0,54,67,4
0,42,127,0
0,93,60,4
0,91,64,40
0,72,92,52
0,60,68,8
0,54,67,0
0,42,111,0
0,29,78,4
0,36,96,0
0,89,65,0
0,74,92,56
0,62,64,0
0,36,120,4
0,42,115,0
0,29,81,4
0,77,92,152
0,65,78,4
0,42,96,4
0,65,78,60
0,77,92,0
0,42,125,0
0,38,126,8
0,54,79,0
0,84,92,96
0,36,81,12
0,46,125,4
0,72,79,4
0,34,81,0
0,36,100,0
0,57,65,0
0,58,66,0
0,69,73,0
0,65,69,0
0,42,119,0
0,81,84,0
0,62,67,0
0,42,84,140
0,84,57,4
0,86,75,80
0,54,58,8
0,65,57,20
0,42,119,0
0,62,53,0
0,54,69,4
0,89,82,4
0,34,76,36
0,36,78,0
0,42,96,4
0,53,54,0
0,91,79,4
0,54,73,0
0,34,77,84
0,92,81,0
0,36,113,4
0,42,115,0
0,58,66,4
0,93,70,0
0,42,82,160
0,96,68,8
0,41,81,148
0,62,54,4
0,65,54,4
0,42,119,4
0,54,80,0
0,38,89,0
0,82,92,52
0,65,85,4
0,34,81,0
0,46,104,8
0,67,75,0
0,84,92,8
0,76,78,0
0,33,80,4
0,42,107,4
0,57,63,0
0,36,120,0
0,64,79,0
0,67,69,0
0,72,67,0
0,60,61,0
0,64,63,4
0,42,78,168
0,54,73,96
0,64,51,44
0,42,100,0
0,67,51,0
0,54,67,4
0,33,78,104
0,42,96,8
0,36,93,4
0,54,67,4
0,52,59,0
0,98,77,4
0,96,64,40
0,33,74,32
0,95,66,0
0,42,119,4
0,36,106,4
0,57,57,0
0,93,53,12
0,91,66,16
0,89,69,12
0,42,92,24
0,88,57,40
0,67,88,4
0,45,78,0
0,79,92,0
0,64,46,0
0,67,59,0
0,38,100,4
0,42,119,0
0,54,79,8
0,89,61,16
0,52,62,24
0,42,82,8
0,91,70,8
0,40,69,0
0,91,77,12
0,77,90,0
0,65,79,0
0,38,81,0
0,50,62,4
0,42,111,4
0,69,62,0
0,60,56,0
0,36,111,0
0,65,64,0
0,93,59,20
0,42,73,44
0,91,59,8
0,89,60,24
0,54,58,48
0,69,51,32
0,65,50,0
0,42,96,8
0,54,69,8
0,38,81,0
0,57,56,0
0,42,94,4
0,36,89,0
0,54,73,0
0,88,92,76
0,76,73,0
0,38,81,8
0,62,66,4
0,36,111,0
0,42,122,0
0,42,96,176
0,86,92,52
0,74,75,4
0,33,74,0
0,42,115,8
0,38,100,0
0,54,80,4
0,84,86,12
0,72,82,44
0,46,111,0
0,81,90,0
0,31,81,0
0,65,67,8
0,58,63,0
0,62,58,0
0,42,111,0
0,36,111,0
0,55,60,4
0,69,72,0
0,65,56,4
0,42,79,180
0,54,73,92
0,62,53,4
0,58,65,0
0,42,107,0
0,54,67,4
0,79,79,88
0,42,94,12
0,54,67,4
0,36,98,0
0,67,67,0
0,31,77,4
0,77,85,100
0,42,111,4
0,36,106,0
0,65,59,4
0,31,78,0
0,42,79,176
0,85,78,36
0,86,65,8
0,38,98,4
0,42,115,0
0,55,34,4
0,62,53,0
0,58,52,0
0,54,79,8
0,88,71,24
0,42,84,80
0,89,72,64
0,50,62,0
0,42,111,4
0,36,111,0
0,38,81,0
0,65,63,4
0,57,60,4
0,60,64,0
0,88,74,12
0,42,82,160
0,89,57,44
0,88,58,24
0,54,58,4
0,86,59,16
0,57,54,20
0,84,57,0
0,53,52,0
0,42,119,0
0,54,69,4
0,38,79,84
0,88,84,4
0,76,64,8
0,42,111,0
0,36,96,0
0,54,73,0
0,36,106,92
0,42,115,0
0,76,74,8
0,38,81,0
0,89,92,8
0,77,68,12
0,42,100,4
0,77,73,56
0,53,44,8
0,57,54,0
0,38,89,4
0,33,81,0
0,54,80,0
0,42,119,0
0,86,92,12
0,74,74,4
0,72,75,88
0,46,100,4
0,84,92,0
0,58,62,8
0,31,81,4
0,65,59,4
0,62,62,0
0,55,62,4
0,42,125,0
0,36,123,0
0,69,71,4
0,81,92,0
0,42,82,168
0,54,73,96
0,62,59,4
0,58,58,0
0,42,119,4
0,54,67,4
0,82,91,60
0,31,79,8
0,42,115,8
0,70,74,0
0,36,103,0
0,54,67,0
0,79,84,0
0,42,107,4
0,36,117,0
0,67,65,4
0,65,60,0
0,31,81,4
0,42,89,180
0,58,60,100
0,62,53,0
0,86,68,4
0,42,122,0
0,38,91,0
0,54,79,8
0,88,76,28
0,42,87,80
0,89,74,0
0,58,62,20
0,55,58,0
0,36,78,0
0,36,98,4
0,42,94,0
0,90,84,8
0,91,75,0
0,38,122,28
0,38,127,4
0,96,69,12
0,54,58,12
0,96,65,24
0,48,58,4
0,42,96,0
0,54,69,0
0,60,91,4
0,36,77,12
0,45,117,8
0,60,69,4
0,43,117,4
0,54,73,0
0,62,89,8
0,36,81,8
0,42,94,0
0,62,69,4
0,65,91,148
0,65,80,0
0,45,123,4
0,44,89,4
0,65,91,12
0,65,71,0
0,45,126,8
0,31,81,4
0,54,80,4
0,43,113,20
0,72,91,68
0,72,77,4
0,41,127,0
0,95,54,0
0,94,59,4
0,93,65,24
0,60,67,12
0,64,66,4
0,57,55,0
0,29,81,4
0,69,68,4
0,36,126,0
0,69,79,0
0,53,52,0
0,49,122,0
0,84,92,0
0,54,109,4
0,54,71,52
0,57,46,52
0,54,81,0
0,42,100,4
0,54,67,44
0,64,57,24
0,60,46,0
0,42,70,0
0,38,103,0
0,54,110,0
0,65,117,8
0,72,121,0
0,77,119,0
0,54,61,36
0,54,81,36
0,29,81,0
0,42,75,4
0,54,67,40
0,54,109,4
0,58,57,0
0,36,98,4
0,65,56,0
0,34,81,0
0,62,67,0
0,62,50,0
0,65,50,0
0,42,71,0
0,89,74,4
0,54,61,40
0,91,70,8
0,54,84,32
0,42,79,4
0,36,86,4
0,54,54,36
0,93,71,4
0,54,106,32
0,58,57,4
0,42,127,0
0,38,113,0
0,54,62,24
0,91,60,4
0,82,86,4
0,34,81,8
0,89,78,0
0,46,119,0
0,54,85,0
0,81,78,16
0,36,66,8
0,54,72,8
0,82,92,4
0,60,57,20
0,57,60,0
0,42,125,4
0,36,120,0
0,86,62,0
0,29,79,0
0,54,109,0
0,65,68,4
0,57,56,4
0,60,65,0
0,81,86,24
0,54,71,20
0,84,59,0
0,55,54,0
0,54,81,0
0,77,91,0
0,42,94,8
0,54,67,44
0,53,57,44
0,38,86,0
0,54,110,0
0,42,127,0
0,72,119,4
0,65,115,0
0,77,115,4
0,54,61,40
0,29,81,36
0,54,81,0
0,42,104,0
0,54,67,28
0,42,79,4
0,58,51,12
0,65,62,4
0,34,81,0
0,62,64,4
0,70,79,8
0,54,109,0
0,62,65,4
0,53,63,0
0,46,61,0
0,42,122,0
0,65,48,4
0,36,123,0
0,54,61,40
0,54,84,32
0,42,111,4
0,38,127,0
0,84,57,4
0,54,54,32
0,86,83,8
0,64,68,0
0,60,68,0
0,55,59,0
0,36,81,4
0,64,72,0
0,67,69,0
0,72,67,4
0,55,63,0
0,48,61,0
0,54,106,0
0,79,81,4
0,89,81,0
0,42,127,0
0,67,87,8
0,54,62,20
0,47,126,0
0,91,81,12
0,43,127,36
0,54,85,0
0,54,72,24
0,92,68,12
0,93,72,0
0,36,106,0
0,66,89,0
0,50,52,0
0,57,45,0
0,49,127,0
0,54,58,0
0,81,87,4
0,54,109,0
0,38,81,0
0,57,53,8
0,62,62,0
0,66,69,0
0,54,71,52
0,74,82,52
0,54,81,0
0,51,108,4
0,86,92,4
0,80,80,0
0,80,72,44
0,54,67,0
0,69,70,48
0,81,83,0
0,81,90,0
0,51,127,0
0,54,110,0
0,38,113,4
0,69,116,0
0,74,116,0
0,62,106,0
0,54,61,40
0,78,88,24
0,66,82,0
0,80,80,4
0,54,81,0
0,38,81,0
0,51,111,4
0,54,67,8
0,80,76,4
0,31,72,0
0,59,63,4
0,69,68,4
0,67,65,0
0,81,88,0
0,54,109,0
0,59,61,0
0,55,61,0
0,51,123,0
0,36,103,0
0,81,87,4
0,54,61,40
0,83,82,16
0,71,82,8
0,54,84,4
0,36,103,0
0,80,76,0
0,51,126,0
0,54,54,36
0,80,72,0
0,74,91,4
0,62,80,16
0,54,106,4
0,81,83,4
0,51,127,0
0,38,108,0
0,54,62,24
0,79,83,8
0,31,81,8
0,67,64,4
0,80,76,0
0,54,85,0
0,51,115,4
0,54,72,36
0,80,72,0
0,78,90,4
0,38,81,0
0,66,78,4
0,51,127,4
0,81,80,0
0,36,113,0
0,50,36,4
0,57,49,0
0,54,109,0
0,66,68,0
0,57,56,0
0,62,53,4
0,54,71,52
0,76,78,4
0,64,70,0
0,80,69,0
0,54,81,0
0,51,108,0
0,54,67,44
0,80,73,0
0,78,92,24
0,51,127,8
0,66,65,0
0,38,113,0
0,54,110,4
0,81,81,0
0,62,116,0
0,69,116,0
0,74,115,0
0,54,61,8
0,54,81,12
0,51,111,4
0,80,76,0
0,38,81,4
0,54,67,40
