track,note,velocity,time
3,42,63,1512
3,42,62,380
3,42,62,380
3,42,61,380
3,51,88,380
3,35,98,0
3,42,53,188
3,37,87,188
3,42,68,0
3,42,57,188
3,35,76,0
3,42,79,188
3,35,96,0
3,42,38,188
3,42,81,188
3,37,88,0
3,42,56,188
3,35,75,0
3,42,78,188
3,35,100,0
3,42,50,188
3,42,83,188
3,37,93,0
3,42,64,188
3,35,79,0
3,42,79,188
3,35,102,0
3,42,57,188
3,42,76,188
3,37,98,0
3,42,60,188
3,35,80,0
3,42,76,188
3,35,104,0
3,42,52,188
3,42,78,188
3,37,98,0
3,42,59,188
3,35,82,0
3,42,78,188
3,35,105,0
3,42,33,188
3,42,85,188
3,37,95,0
3,35,77,188
3,42,42,0
3,35,104,188
3,42,80,0
3,42,49,188
3,42,87,188
3,37,91,0
3,42,51,188
3,35,71,0
3,42,73,188
3,35,104,0
3,46,63,188
3,37,95,188
3,42,70,0
3,35,78,188
3,42,56,0
3,35,105,188
3,51,81,0
3,42,73,1148
3,42,77,764
3,42,70,764
3,42,78,764
3,48,78,188
3,45,94,380
3,41,71,284
3,41,68,92
3,51,77,188
3,36,77,0
3,37,78,380
3,42,85,0
3,42,46,188
3,36,69,0
3,36,93,188
3,42,78,0
3,42,54,188
3,37,92,188
3,42,79,0
3,36,74,188
3,42,49,0
3,36,97,188
3,42,81,0
3,42,48,188
3,42,85,188
3,37,91,0
3,42,61,188
3,36,78,0
3,42,62,188
3,46,78,188
3,42,83,188
3,37,88,0
3,42,64,188
3,36,78,0
3,51,77,188
3,36,77,0
3,37,78,380
3,42,85,0
3,42,46,188
3,36,69,0
3,36,93,188
3,42,78,0
3,42,54,188
3,37,92,188
3,42,79,0
3,36,74,188
3,42,49,0
3,36,97,188
3,42,81,0
3,42,48,188
3,42,85,188
3,37,91,0
3,42,61,188
3,36,78,0
3,42,62,188
3,46,78,188
3,42,83,188
3,37,88,0
3,42,64,188
3,36,78,0
3,42,77,188
3,36,77,0
3,42,77,188
3,37,78,188
3,42,85,0
3,42,46,188
3,36,69,0
3,36,93,188
3,42,78,0
3,42,54,188
3,37,92,188
3,42,79,0
3,36,74,188
3,42,49,0
3,36,97,188
3,42,81,0
3,42,48,188
3,42,85,188
3,37,91,0
3,42,61,188
3,36,78,0
3,42,62,188
3,46,78,188
3,42,83,188
3,37,88,0
3,42,64,188
3,36,78,0
3,42,77,188
3,36,77,0
3,42,77,188
3,37,78,188
3,42,85,0
3,42,46,188
3,36,69,0
3,36,93,188
3,42,78,0
3,42,54,188
3,37,92,188
3,42,79,0
3,36,74,188
3,42,49,0
3,36,97,188
3,42,81,0
3,42,48,188
3,42,85,188
3,37,91,0
3,42,61,188
3,36,78,0
3,42,62,188
3,46,78,188
3,42,83,188
3,37,88,0
3,42,64,188
3,36,78,0
3,42,77,188
3,36,77,0
3,42,77,188
3,37,78,188
3,42,85,0
3,42,46,188
3,36,69,0
3,36,93,188
3,42,78,0
3,42,54,188
3,37,92,188
3,42,79,0
3,36,74,188
3,42,49,0
3,51,104,188
3,35,112,0
3,48,100,572
3,45,102,380
3,41,74,284
3,41,101,92
3,51,77,188
3,36,77,0
3,37,78,380
3,42,85,0
3,42,46,188
3,36,69,0
3,36,93,188
3,42,78,0
3,42,54,188
3,37,92,188
3,42,79,0
3,36,74,188
3,42,49,0
3,36,97,188
3,42,81,0
3,42,48,188
3,42,85,188
3,37,91,0
3,42,61,188
3,36,78,0
3,42,62,188
3,46,78,188
3,42,83,188
3,37,88,0
3,42,64,188
3,36,78,0
3,42,77,188
3,36,77,0
3,42,77,188
3,37,78,188
3,42,85,0
3,42,46,188
3,36,69,0
3,36,93,188
3,42,78,0
3,42,54,188
3,37,92,188
3,42,79,0
3,36,74,188
3,42,49,0
3,36,97,188
3,42,81,0
3,42,48,188
3,42,85,188
3,37,91,0
3,42,61,188
3,36,78,0
3,42,62,188
3,46,78,188
3,42,83,188
3,37,88,0
3,42,64,188
3,36,78,0
3,42,77,188
3,36,77,0
3,42,77,188
3,37,78,188
3,42,85,0
3,42,46,188
3,36,69,0
3,36,93,188
3,42,78,0
3,42,54,188
3,37,92,188
3,42,79,0
3,36,74,188
3,42,49,0
3,36,97,188
3,42,81,0
3,42,48,188
3,42,85,188
3,37,91,0
3,42,61,188
3,36,78,0
3,42,62,188
3,46,78,188
3,42,83,188
3,37,88,0
3,42,64,188
3,36,78,0
3,42,77,188
3,36,77,0
3,42,77,188
3,37,78,188
3,42,85,0
3,42,46,188
3,36,69,0
3,36,93,188
3,42,78,0
3,42,54,188
3,37,92,188
3,42,79,0
3,36,74,188
3,42,49,0
3,51,104,188
3,35,112,0
3,48,100,572
3,45,102,380
3,41,74,284
3,41,101,92
3,49,88,188
3,35,109,0
3,40,97,380
3,46,85,0
3,42,74,188
3,40,76,92
3,42,70,92
3,35,82,0
3,35,96,188
3,42,89,0
3,42,96,188
3,40,88,0
3,35,90,92
3,42,78,92
3,40,65,92
3,42,92,92
3,35,84,0
3,42,88,188
3,35,80,92
3,40,93,92
3,42,101,0
3,35,98,188
3,46,78,0
3,42,88,188
3,40,76,92
3,42,88,92
3,35,97,0
3,40,97,188
3,42,91,0
3,40,90,92
3,48,96,92
3,35,85,92
3,49,64,92
3,35,100,0
3,35,94,188
3,42,87,188
3,40,89,0
3,42,81,188
3,40,69,92
3,42,89,92
3,35,82,0
3,42,89,188
3,35,82,92
3,40,101,92
3,42,103,0
3,46,86,188
3,40,68,92
3,42,87,92
3,35,104,0
3,42,104,188
3,35,82,92
3,42,101,92
3,40,94,0
3,40,64,92
3,42,82,92
3,40,85,92
3,42,95,92
3,40,37,92
3,46,92,92
3,35,90,0
3,40,85,188
3,42,103,0
3,48,91,188
3,35,89,92
3,49,99,92
3,35,107,0
3,46,80,188
3,42,101,188
3,40,98,0
3,42,80,188
3,40,70,92
3,42,96,92
3,35,84,0
3,35,98,188
3,42,86,0
3,42,98,188
3,40,93,0
3,35,90,92
3,42,78,92
3,40,76,92
3,42,91,92
3,35,97,0
3,42,75,188
3,35,80,0
3,42,93,188
3,40,98,0
3,46,86,188
3,42,87,188
3,40,69,92
3,42,89,92
3,35,94,0
3,40,86,188
3,40,69,92
3,45,98,92
3,49,70,188
3,35,102,0
3,51,56,380
3,35,87,188
3,51,59,188
3,51,83,380
3,35,76,188
3,35,104,188
3,51,93,0
3,42,75,380
3,42,73,380
3,48,96,188
3,45,86,284
3,41,89,92
3,51,88,188
3,35,98,0
3,42,53,188
3,37,87,188
3,42,68,0
3,42,57,188
3,35,76,0
3,42,79,188
3,35,96,0
3,42,38,188
3,42,81,188
3,37,88,0
3,42,56,188
3,35,75,0
3,42,78,188
3,35,100,0
3,42,50,188
3,42,83,188
3,37,93,0
3,42,64,188
3,35,79,0
3,42,79,188
3,35,102,0
3,42,57,188
3,42,76,188
3,37,98,0
3,42,60,188
3,35,80,0
3,42,76,188
3,35,104,0
3,42,52,188
3,42,78,188
3,37,98,0
3,42,59,188
3,35,82,0
3,42,78,188
3,35,105,0
3,42,33,188
3,42,85,188
3,37,95,0
3,35,77,188
3,42,42,0
3,35,104,188
3,42,80,0
3,42,49,188
3,42,87,188
3,37,91,0
3,42,51,188
3,35,71,0
3,42,73,188
3,35,104,0
3,46,63,188
3,37,95,188
3,42,70,0
3,35,78,188
3,42,56,0
3,35,105,188
3,51,81,0
3,42,73,1148
3,42,77,764
3,42,70,764
3,42,78,764
3,48,78,188
3,45,94,380
3,41,71,284
3,41,68,92
3,51,77,188
3,36,77,0
3,37,78,380
3,42,85,0
3,42,46,188
3,36,69,0
3,36,93,188
3,42,78,0
3,42,54,188
3,37,92,188
3,42,79,0
3,36,74,188
3,42,49,0
3,36,97,188
3,42,81,0
3,42,48,188
3,42,85,188
3,37,91,0
3,42,61,188
3,36,78,0
3,42,62,188
3,46,78,188
3,42,83,188
3,37,88,0
3,42,64,188
3,36,78,0
3,51,77,188
3,36,77,0
3,37,78,380
3,42,85,0
3,42,46,188
3,36,69,0
3,36,93,188
3,42,78,0
3,42,54,188
3,37,92,188
3,42,79,0
3,36,74,188
3,42,49,0
3,36,97,188
3,42,81,0
3,42,48,188
3,42,85,188
3,37,91,0
3,42,61,188
3,36,78,0
3,42,62,188
3,46,78,188
3,42,83,188
3,37,88,0
3,42,64,188
3,36,78,0
3,42,77,188
3,36,77,0
3,42,77,188
3,37,78,188
3,42,85,0
3,42,46,188
3,36,69,0
3,36,93,188
3,42,78,0
3,42,54,188
3,37,92,188
3,42,79,0
3,36,74,188
3,42,49,0
3,36,97,188
3,42,81,0
3,42,48,188
3,42,85,188
3,37,91,0
3,42,61,188
3,36,78,0
3,42,62,188
3,46,78,188
3,42,83,188
3,37,88,0
3,42,64,188
3,36,78,0
3,42,77,188
3,36,77,0
3,42,77,188
3,37,78,188
3,42,85,0
3,42,46,188
3,36,69,0
3,36,93,188
3,42,78,0
3,42,54,188
3,37,92,188
3,42,79,0
3,36,74,188
3,42,49,0
3,36,97,188
3,42,81,0
3,42,48,188
3,42,85,188
3,37,91,0
3,42,61,188
3,36,78,0
3,42,62,188
3,46,78,188
3,42,83,188
3,37,88,0
3,42,64,188
3,36,78,0
3,42,77,188
3,36,77,0
3,42,77,188
3,37,78,188
3,42,85,0
3,42,46,188
3,36,69,0
3,36,93,188
3,42,78,0
3,42,54,188
3,37,92,188
3,42,79,0
3,36,74,188
3,42,49,0
3,51,104,188
3,35,112,0
3,48,100,572
3,45,102,380
3,41,74,284
3,41,101,92
3,51,77,188
3,36,77,0
3,37,78,380
3,42,85,0
3,42,46,188
3,36,69,0
3,36,93,188
3,42,78,0
3,42,54,188
3,37,92,188
3,42,79,0
3,36,74,188
3,42,49,0
3,36,97,188
3,42,81,0
3,42,48,188
3,42,85,188
3,37,91,0
3,42,61,188
3,36,78,0
3,42,62,188
3,46,78,188
3,42,83,188
3,37,88,0
3,42,64,188
3,36,78,0
3,42,77,188
3,36,77,0
3,42,77,188
3,37,78,188
3,42,85,0
3,42,46,188
3,36,69,0
3,36,93,188
3,42,78,0
3,42,54,188
3,37,92,188
3,42,79,0
3,36,74,188
3,42,49,0
3,36,97,188
3,42,81,0
3,42,48,188
3,42,85,188
3,37,91,0
3,42,61,188
3,36,78,0
3,42,62,188
3,46,78,188
3,42,83,188
3,37,88,0
3,42,64,188
3,36,78,0
3,42,77,188
3,36,77,0
3,42,77,188
3,37,78,188
3,42,85,0
3,42,46,188
3,36,69,0
3,36,93,188
3,42,78,0
3,42,54,188
3,37,92,188
3,42,79,0
3,36,74,188
3,42,49,0
3,36,97,188
3,42,81,0
3,42,48,188
3,42,85,188
3,37,91,0
3,42,61,188
3,36,78,0
3,42,62,188
3,46,78,188
3,42,83,188
3,37,88,0
3,42,64,188
3,36,78,0
3,42,77,188
3,36,77,0
3,42,77,188
3,37,78,188
3,42,85,0
3,42,46,188
3,36,69,0
3,36,93,188
3,42,78,0
3,42,54,188
3,37,92,188
3,42,79,0
3,36,74,188
3,42,49,0
3,51,104,188
3,35,112,0
3,48,100,572
3,45,102,380
3,41,74,284
3,41,101,92
3,49,88,188
3,35,109,0
3,40,97,380
3,46,85,0
3,42,74,188
3,40,76,92
3,42,70,92
3,35,82,0
3,35,96,188
3,42,89,0
3,42,96,188
3,40,88,0
3,35,90,92
3,42,78,92
3,40,65,92
3,42,92,92
3,35,84,0
3,42,88,188
3,35,80,92
3,40,93,92
3,42,101,0
3,35,98,188
3,46,78,0
3,42,88,188
3,40,76,92
3,42,88,92
3,35,97,0
3,40,97,188
3,42,91,0
3,40,90,92
3,48,96,92
3,35,85,92
3,49,64,92
3,35,100,0
3,35,94,188
3,42,87,188
3,40,89,0
3,42,81,188
3,40,69,92
3,42,89,92
3,35,82,0
3,42,89,188
3,35,82,92
3,40,101,92
3,42,103,0
3,46,86,188
3,40,68,92
3,42,87,92
3,35,104,0
3,42,104,188
3,35,82,92
3,42,101,92
3,40,94,0
3,40,64,92
3,42,82,92
3,40,85,92
3,42,95,92
3,40,37,92
3,46,92,92
3,35,90,0
3,40,85,188
3,42,103,0
3,48,91,188
3,35,89,92
3,49,99,92
3,35,107,0
3,46,80,188
3,42,101,188
3,40,98,0
3,42,80,188
3,40,70,92
3,42,96,92
3,35,84,0
3,35,98,188
3,42,86,0
3,42,98,188
3,40,93,0
3,35,90,92
3,42,78,92
3,40,76,92
3,42,91,92
3,35,97,0
3,42,75,188
3,35,80,0
3,42,93,188
3,40,98,0
3,46,86,188
3,42,87,188
3,40,69,92
3,42,89,92
3,35,94,0
3,40,86,188
3,40,69,92
3,45,98,92
3,49,70,188
3,35,102,0
3,51,56,380
3,35,87,188
3,51,59,188
3,51,83,380
3,35,76,188
3,35,111,188
3,52,100,0
3,42,88,380
3,42,83,380
3,40,118,188
3,42,67,188
3,42,83,380
3,48,101,188
3,40,96,380
3,48,105,188
3,45,112,284
3,41,94,92
3,41,111,188
3,49,88,188
3,35,109,0
3,40,97,380
3,46,85,0
3,42,74,188
3,40,76,92
3,42,70,92
3,35,82,0
3,35,96,188
3,42,89,0
3,42,96,188
3,40,88,0
3,35,90,92
3,42,78,92
3,40,65,92
3,42,92,92
3,35,84,0
3,42,88,188
3,35,80,92
3,40,93,92
3,42,101,0
3,35,98,188
3,46,78,0
3,42,88,188
3,40,76,92
3,42,88,92
3,35,97,0
3,40,97,188
3,42,91,0
3,40,90,92
3,48,96,92
3,35,85,92
3,49,64,92
3,35,100,0
3,35,94,188
3,42,87,188
3,40,89,0
3,42,81,188
3,40,69,92
3,42,89,92
3,35,82,0
3,42,89,188
3,35,82,92
3,40,101,92
3,42,103,0
3,46,86,188
3,40,68,92
3,42,87,92
3,35,104,0
3,42,104,188
3,35,82,92
3,42,101,92
3,40,94,0
3,40,64,92
3,42,82,92
3,40,85,92
3,42,95,92
3,40,37,92
3,46,92,92
3,35,90,0
3,40,85,188
3,42,103,0
3,48,91,188
3,35,89,92
3,49,99,92
3,35,107,0
3,46,80,188
3,42,101,188
3,40,98,0
3,42,80,188
3,40,70,92
3,42,96,92
3,35,84,0
3,35,98,188
3,42,86,0
3,42,98,188
3,40,93,0
3,35,90,92
3,42,78,92
3,40,76,92
3,42,91,92
3,35,97,0
3,42,75,188
3,35,80,0
3,42,93,188
3,40,98,0
3,46,86,188
3,42,87,188
3,40,69,92
3,42,89,92
3,35,94,0
3,40,86,188
3,40,69,92
3,45,98,92
3,49,70,188
3,35,102,0
3,51,56,380
3,35,87,188
3,51,59,188
3,51,83,380
3,35,76,188
3,35,104,188
3,51,93,0
4,54,103,41472
4,54,58,92
4,54,63,92
4,54,59,92
4,54,108,92
4,54,57,92
4,54,61,92
4,54,72,92
4,54,103,92
4,54,64,92
4,54,64,92
4,54,69,92
4,54,103,92
4,54,68,92
4,54,70,92
4,54,70,92
4,54,103,92
4,54,65,92
4,54,70,92
4,54,59,92
4,54,103,92
4,54,57,92
4,54,87,92
4,54,63,92
4,54,108,92
4,54,61,92
4,54,91,92
4,54,48,92
4,54,108,92
4,54,58,92
4,54,95,92
4,54,59,92
4,54,103,92
4,54,58,92
4,54,63,92
4,54,59,92
4,54,108,92
4,54,57,92
4,54,61,92
4,54,72,92
4,54,103,92
4,54,64,92
4,54,64,92
4,54,69,92
4,54,103,92
4,54,68,92
4,54,70,92
4,54,70,92
4,54,103,92
4,54,65,92
4,54,70,92
4,54,59,92
4,54,103,92
4,54,57,92
4,54,87,92
4,54,63,92
4,54,108,92
4,54,61,92
4,54,91,92
4,54,48,92
4,54,108,92
4,54,58,92
4,54,95,92
4,54,59,92
4,54,103,92
4,54,58,92
4,54,63,92
4,54,59,92
4,54,108,92
4,54,57,92
4,54,61,92
4,54,72,92
4,54,103,92
4,54,64,92
4,54,64,92
4,54,69,92
4,54,103,92
4,54,68,92
4,54,70,92
4,54,70,92
4,54,103,92
4,54,65,92
4,54,70,92
4,54,59,92
4,54,103,92
4,54,57,92
4,54,87,92
