track,note,velocity,time
1,31,80,4188
1,31,85,68
1,33,85,128
1,34,78,108
1,36,82,120
1,36,79,184
1,38,70,128
1,40,71,104
1,41,70,120
1,34,68,168
1,34,76,140
1,29,78,132
1,34,83,356
1,33,74,0
1,40,78,12
1,33,85,12
1,45,87,40
1,33,80,36
1,33,75,156
1,40,85,4
1,33,89,4
1,38,82,32
1,43,94,56
1,41,95,48
1,38,95,24
1,36,95,8
1,34,95,132
1,34,95,184
1,29,89,8
1,31,92,4
1,29,83,260
1,34,88,0
1,29,92,156
1,34,83,4
1,36,92,388
1,29,89,4
1,29,78,192
1,36,92,144
1,36,85,92
1,38,87,16
1,41,78,0
1,43,83,108
1,43,88,12
1,41,95,20
1,38,81,12
1,36,89,8
1,34,95,132
1,34,95,220
1,29,87,132
1,34,95,8
1,33,92,48
1,40,95,52
1,33,89,28
1,45,95,36
1,40,85,4
1,33,85,16
1,33,95,208
1,40,87,36
1,33,87,52
1,45,89,16
1,33,78,4
1,38,83,136
1,48,87,8
1,48,90,24
1,45,85,32
1,41,95,40
1,38,95,16
1,36,95,128
1,34,95,24
1,34,95,224
1,29,95,132
1,31,95,16
1,29,80,8
1,34,95,36
1,29,95,192
1,34,83,152
1,36,92,60
1,29,82,20
1,29,89,212
1,36,89,128
1,36,78,192
1,41,95,116
1,29,95,352
1,29,95,84
1,31,95,132
1,31,95,104
1,33,95,128
1,33,95,88
1,34,97,120
1,34,93,192
1,29,95,132
1,31,95,364
1,29,89,232
1,34,95,128
1,34,95,220
1,29,85,136
1,34,95,348
1,33,92,384
1,33,91,196
1,40,95,4
1,33,87,20
1,38,95,8
1,50,95,28
1,45,95,120
1,38,95,8
1,41,95,0
1,38,89,24
1,34,95,128
1,34,95,168
1,34,95,44
1,29,95,516
1,31,95,120
1,34,83,116
1,34,95,160
1,34,95,36
1,33,95,384
1,34,85,0
1,36,95,48
1,36,95,96
1,34,95,136
1,34,95,104
1,33,87,16
1,33,95,20
1,31,95,4
1,29,95,388
1,34,95,24
1,34,67,188
1,29,92,136
1,34,93,8
1,33,85,56
1,40,89,52
1,33,85,36
1,45,95,24
1,40,85,12
1,33,92,28
1,33,95,152
1,40,92,20
1,33,89,392
1,40,95,16
1,33,95,16
1,38,89,132
1,48,87,44
1,48,87,32
1,45,87,260
1,43,95,120
1,41,95,8
1,38,95,128
1,34,95,12
1,34,95,176
1,29,92,16
1,31,95,388
1,29,87,224
1,34,81,16
1,29,95,156
1,34,95,132
1,36,95,0
1,29,95,8
1,29,87,16
1,36,92,8
1,29,85,200
1,36,95,120
1,41,95,128
1,43,87,40
1,43,95,8
1,41,95,96
1,38,95,4
1,36,95,124
1,34,95,124
1,34,95,96
1,29,95,132
1,31,95,368
1,34,93,376
1,29,95,144
1,34,95,132
1,36,95,364
1,29,95,376
1,29,95,136
1,36,95,132
1,29,74,480
1,36,92,16
1,41,95,132
1,29,82,80
1,36,95,8
1,41,95,4
1,36,95,44
1,29,92,20
1,34,95,124
1,34,95,152
1,29,95,12
1,31,95,216
1,29,89,4
1,34,85,128
1,29,95,20
1,34,95,16
1,36,95,28
1,29,95,4
1,29,85,20
1,36,95,132
1,36,87,76
1,41,95,8
1,43,95,48
1,43,95,16
1,41,95,128
1,38,95,8
1,36,95,20
1,34,95,116
1,34,85,32
1,34,95,76
1,29,95,24
1,31,95,192
1,29,75,136
1,34,93,124
1,29,95,60
1,34,95,40
1,36,95,20
1,29,89,8
1,29,85,208
1,36,89,132
1,36,80,156
1,41,95,132
1,29,95,132
1,31,95,132
1,31,95,112
1,33,95,128
1,33,87,64
2,55,49,4164
2,58,49,0
2,62,49,0
2,58,45,76
2,48,43,4
2,53,56,32
2,60,56,0
2,46,52,724
2,53,60,96
2,55,58,92
2,53,56,24
2,46,42,132
2,45,56,136
2,52,43,4
2,55,58,128
2,52,50,228
2,45,39,128
2,57,53,428
2,60,50,252
2,57,48,116
2,64,53,0
2,62,57,376
2,57,48,0
2,55,56,128
2,57,41,0
2,53,50,128
2,46,54,28
2,53,60,0
2,55,60,48
2,46,29,4
2,53,60,4
2,55,56,20
2,53,59,40
2,57,59,0
2,48,60,28
2,53,53,248
2,57,58,108
2,55,35,248
2,53,53,104
2,46,44,252
2,53,60,252
2,55,58,92
2,53,56,24
2,46,42,132
2,45,56,136
2,52,36,4
2,55,58,128
2,52,50,228
2,45,39,128
2,57,53,760
2,60,50,252
2,57,48,116
2,64,53,0
2,62,59,260
2,57,48,0
2,55,56,128
2,57,41,0
2,53,50,128
2,46,54,28
2,53,60,0
2,55,60,48
2,46,29,4
2,53,60,4
2,55,56,20
2,53,59,40
2,57,59,0
2,57,60,28
2,60,53,248
2,63,60,0
2,62,55,16
2,60,60,128
2,58,60,244
2,57,56,128
2,53,46,360
2,46,37,16
2,53,56,0
2,46,50,116
2,53,65,0
2,45,58,72
2,52,53,0
2,57,35,16
2,60,56,0
2,57,60,56
2,59,49,8
2,60,53,128
2,57,50,0
2,62,58,0
2,58,60,88
2,62,48,0
2,65,50,60
2,58,60,4
2,58,60,52
2,65,43,0
2,58,60,84
2,65,60,0
2,60,60,120
2,64,50,24
2,62,56,132
2,60,50,12
2,58,60,128
2,62,50,236
2,60,60,112
2,58,42,236
2,57,60,16
2,60,39,24
2,58,56,32
2,57,41,0
2,55,56,128
2,46,47,40
2,53,60,252
2,55,58,92
2,53,56,24
2,46,42,132
2,45,56,136
2,52,42,4
2,55,58,128
2,52,50,228
2,45,39,128
2,57,53,760
2,60,50,252
2,57,48,116
2,64,53,0
2,62,60,376
2,57,48,0
2,55,56,128
2,57,41,0
2,53,50,128
2,46,54,36
2,53,60,0
2,55,60,40
2,46,29,4
2,53,60,4
2,55,56,20
2,53,59,40
2,57,59,0
2,53,60,28
2,57,53,244
2,60,58,4
2,57,48,248
2,55,56,104
2,53,56,80
2,50,50,80
2,48,53,96
2,46,54,36
2,53,60,0
2,55,60,40
2,46,29,4
2,53,60,4
2,55,56,20
2,53,59,40
2,57,59,0
2,53,60,28
2,57,53,244
2,60,58,4
2,57,48,56
2,55,56,92
2,53,56,236
2,50,50,124
2,48,53,24
2,46,54,36
2,53,60,0
2,55,60,40
2,46,29,4
2,53,60,4
2,55,56,20
2,53,59,40
2,57,59,0
2,53,60,28
2,57,53,68
2,60,58,4
2,57,48,76
2,55,56,84
2,53,56,76
2,50,50,80
2,48,53,248
2,46,54,36
2,53,60,0
2,55,60,40
2,46,29,4
2,53,60,4
2,55,56,20
2,53,59,40
2,57,59,0
2,53,60,28
2,57,53,148
2,60,58,4
2,57,48,204
2,55,56,120
2,53,56,132
2,50,50,124
2,48,53,260
3,65,61,3384
3,69,59,376
3,72,69,364
3,74,69,232
3,67,63,104
3,65,48,4
3,67,61,148
3,69,60,568
3,70,69,76
3,72,62,8
3,74,69,232
3,67,54,100
3,65,51,0
3,67,56,144
3,65,61,616
3,69,57,128
3,62,54,92
3,65,66,364
3,72,69,392
3,65,49,228
3,62,67,0
3,72,67,84
3,70,69,244
3,72,69,128
3,74,69,0
3,69,54,4
3,67,48,360
3,62,61,0
3,61,55,56
3,67,55,0
3,69,69,84
3,72,66,84
3,67,53,0
3,76,64,4
3,69,58,4
3,72,69,140
3,77,69,380
3,69,48,4
3,62,69,316
3,65,69,240
3,72,69,28
3,62,69,56
3,65,69,0
3,74,66,92
3,72,69,0
3,62,68,52
3,65,67,12
3,72,69,0
3,62,69,172
3,65,69,192
3,72,69,8
3,62,67,384
3,65,56,0
3,72,69,96
3,70,69,0
3,72,69,304
3,74,69,0
3,69,70,76
3,67,59,364
3,62,59,0
3,61,55,60
3,67,55,0
3,69,65,96
3,72,65,84
3,67,57,8
3,76,67,4
3,69,59,4
3,72,69,148
3,77,69,68
3,69,62,4
3,62,69,248
3,65,69,0
3,72,67,0
3,62,62,144
3,65,67,0
3,74,69,132
3,72,67,144
3,62,69,108
3,65,60,68
3,72,69,60
3,62,65,132
3,65,69,0
3,65,57,72
3,67,58,16
3,67,55,84
3,69,63,0
3,69,62,76
3,67,63,132
3,67,59,28
3,62,54,120
3,65,68,12
3,65,68,68
3,67,52,16
3,67,59,80
3,69,66,16
3,69,51,64
3,67,64,0
3,65,69,92
3,72,69,44
3,69,60,4
3,72,51,72
3,74,69,136
3,74,51,72
3,76,69,0
3,76,66,128
3,74,66,4
3,72,49,0
3,76,68,56
3,67,59,16
3,72,69,8
3,66,69,0
3,72,67,16
3,74,69,12
3,76,69,212
3,77,69,40
3,74,66,8
3,72,65,4
3,77,68,80
3,77,69,72
3,77,69,92
3,74,58,56
3,70,69,0
3,77,69,4
3,77,57,100
3,77,67,84
3,77,69,132
3,74,55,72
3,77,69,0
3,69,58,4
3,77,69,120
3,77,67,88
3,77,67,136
3,67,47,64
3,74,48,0
3,77,69,4
3,77,69,92
3,76,67,4
3,77,69,12
3,76,69,40
3,79,69,0
3,72,69,4
3,74,67,0
3,70,66,0
3,72,61,12
3,76,61,0
3,62,67,200
3,65,69,148
3,72,69,172
3,62,64,368
3,65,48,0
3,72,69,88
3,70,65,4
3,72,69,284
3,74,69,108
3,69,60,8
3,67,56,380
3,62,59,0
3,61,61,104
3,67,61,0
3,69,69,108
3,72,68,84
3,67,69,0
3,76,65,8
3,69,58,36
3,72,69,140
3,77,69,0
3,69,59,4
3,62,69,200
3,65,67,228
3,72,69,376
3,62,69,888
3,65,68,0
3,74,69,0
3,72,67,0
3,62,69,40
3,65,67,4
3,72,69,0
3,62,67,152
3,65,69,0
3,72,69,368
3,62,69,128
3,65,69,4
3,74,69,104
3,72,69,148
3,62,67,72
3,65,69,8
3,72,69,0
3,62,69,76
3,65,69,12
3,72,68,56
3,62,69,96
3,65,64,4
3,74,69,12
3,72,67,32
3,62,65,52
3,65,67,0
3,72,67,16
3,62,69,96
3,65,69,84
3,72,69,60
3,62,68,96
3,65,69,148
3,74,67,60
3,72,69,0
3,62,67,80
3,65,59,4
3,72,69,24
4,58,29,8728
4,65,20,8
4,62,44,4
4,64,36,60
4,57,33,0
4,62,36,4
4,61,40,0
4,64,31,12
4,55,48,8
4,60,48,0
4,65,29,28
4,62,33,4
4,57,29,0
4,58,33,60
4,65,46,0
4,62,44,12
4,65,41,64
4,57,36,0
4,60,46,4
4,58,19,76
4,65,36,0
4,62,46,8
4,62,41,68
4,64,46,0
4,57,44,0
4,61,33,12
4,64,41,44
4,60,48,0
4,55,41,4
4,65,22,12
4,62,44,0
4,57,31,4
4,58,40,60
4,65,48,0
4,62,46,4
4,65,29,44
4,57,24,0
4,60,44,4
4,63,48,92
4,58,37,32
4,62,48,4
4,65,46,0
4,57,36,20
4,60,48,0
4,64,48,0
4,66,29,40
4,60,48,4
4,57,22,0
4,65,48,36
4,60,48,0
4,62,48,4
4,58,48,768
4,57,48,28
4,55,39,760
4,64,44,28
4,60,41,4
4,55,46,0
4,62,26,0
4,58,48,4
4,53,46,4
4,60,48,20
4,57,29,4
4,64,44,0
4,55,44,24
4,58,37,0
4,62,44,4
4,65,33,32
4,58,48,0
4,62,48,4
4,64,41,52
4,62,39,4
4,57,48,0
4,61,48,16
4,64,48,52
4,55,33,4
4,60,48,0
4,65,31,20
4,62,44,0
4,57,29,4
4,65,29,40
4,58,22,4
4,62,39,8
4,57,36,44
4,65,33,0
4,60,46,0
4,65,48,40
4,58,48,4
4,62,48,4
4,60,48,48
4,65,41,0
4,57,33,0
4,58,20,40
4,65,24,0
4,62,48,4
4,57,44,52
4,65,48,0
4,60,48,0
4,62,44,48
4,65,31,0
4,58,27,4
4,65,33,56
4,57,24,4
4,60,44,0
5,72,65,4880
5,74,64,0
5,67,64,144
5,65,64,0
5,67,63,148
5,67,61,92
5,69,61,0
5,65,60,8
5,62,60,224
5,60,60,0
5,77,84,4868
5,76,84,36
5,74,84,4
5,72,84,540
5,65,84,16
5,65,79,64
5,64,79,208
5,62,74,384
5,60,71,0
5,76,84,4576
5,74,84,8
5,69,84,592
5,67,84,68
5,69,84,84
5,69,84,5040
5,72,84,4
5,77,84,8
5,76,84,36
5,74,84,0
5,72,84,8
5,65,84,384
5,65,84,148
5,64,83,12
5,62,84,8
5,64,83,1508
5,65,76,60
5,60,77,96
5,62,84,356
5,65,84,16
5,72,84,4
5,62,84,68
5,65,84,4
5,74,84,100
5,72,84,136
5,62,84,32
5,65,84,16
5,72,84,12
5,62,84,116
5,65,84,4
5,72,84,12
5,62,84,48
5,65,84,4
5,74,84,0
5,72,79,0
5,62,84,32
5,65,84,8
5,72,81,12
5,62,84,280
5,65,84,12
5,72,84,4
5,62,84,84
5,65,84,8
5,74,84,48
5,72,84,44
5,62,84,60
5,65,84,0
5,72,84,8
6,84,54,3768
6,62,67,168
6,65,64,156
6,72,64,12
6,70,71,1024
6,72,74,120
6,74,59,4
6,69,62,140
6,69,73,80
6,72,74,104
6,76,64,12
6,69,73,152
6,72,74,140
6,77,69,36
6,62,74,136
6,65,62,24
6,72,67,16
6,62,74,80
6,65,64,0
6,74,64,8
6,72,64,144
6,62,74,104
6,65,69,8
6,72,69,12
6,77,72,12
6,79,72,396
6,81,66,308
6,79,71,356
6,77,76,368
6,79,74,372
6,81,70,364
6,79,71,512
6,77,81,72
6,84,81,104
6,81,81,1148
6,84,80,240
6,86,80,120
6,88,77,1380
6,89,71,120
6,91,70,1392
6,89,70,116
6,88,71,0
6,89,70,240
6,91,64,120
6,74,74,184
6,77,74,100
6,84,74,152
6,82,63,0
6,84,74,16
6,86,62,20
6,81,70,20
6,81,74,80
6,84,74,4
6,88,73,12
6,81,74,1032
6,84,62,16
6,89,67,20
6,74,74,136
6,77,74,28
6,84,69,12
6,74,74,92
6,77,74,16
6,86,74,96
6,84,73,16
6,74,74,76
6,77,74,24
6,84,74,24
6,89,74,152
6,88,69,12
6,89,62,124
6,88,67,128
6,86,65,128
6,88,58,1508
6,84,59,8
6,81,60,408
6,89,73,124
6,88,73,224
6,89,65,44
6,88,64,12
6,86,60,136
6,88,60,12
6,84,64,16
6,81,62,0
6,89,67,100
6,88,56,0
6,89,53,4
6,88,59,136
6,86,62,124
6,88,55,64
6,84,59,8
6,81,51,252
7,69,54,47072
7,74,70,4
7,69,56,124
7,74,72,4
7,73,74,152
7,69,47,4
7,72,77,128
7,67,49,4
7,72,67,116
7,67,51,4
7,72,72,160
7,67,47,4
7,69,49,132
7,77,87,0
7,76,40,12
7,67,67,4
7,74,63,52
7,65,67,4
7,64,59,0
7,72,77,0
7,65,49,16
7,62,60,4
7,77,56,356
7,74,56,0
7,76,67,0
7,72,57,4
7,74,46,128
7,77,57,0
7,72,51,100
7,76,65,8
7,74,51,12
7,70,39,0
7,76,77,88
7,72,65,4
7,69,59,32
7,72,70,4
7,65,67,32
7,69,74,0
7,77,74,24
7,74,57,0
7,72,59,32
7,76,74,0
7,74,46,40
7,77,70,0
7,72,67,28
7,76,59,4
7,70,47,16
7,74,56,0
7,72,72,48
7,76,77,0
7,69,37,36
7,72,59,4
7,69,63,52
7,65,54,0
7,77,65,60
7,74,56,4
7,76,67,4
7,72,80,4
7,77,72,100
7,74,45,4
7,72,59,100
7,76,77,4
7,70,56,8
7,74,49,8
7,72,65,60
7,76,72,0
7,69,60,32
7,72,72,4
7,69,47,52
7,65,47,4
8,84,60,19932
8,86,67,4
8,89,64,56
8,91,65,60
8,92,66,48
8,93,59,20
8,91,45,4
8,89,44,12
8,91,59,40
8,93,19,36
8,91,63,32
8,89,55,36
8,93,72,2620
8,96,72,48
8,98,73,104
8,96,55,20
8,92,64,876
8,96,53,8
8,93,64,0
8,91,54,0
8,89,62,8
8,80,68,1132
8,84,68,4
8,81,70,4
8,80,68,56
8,84,69,8
8,81,70,8
8,79,68,92
8,77,72,96
8,84,72,28
8,79,67,8
8,81,59,40
8,79,56,48
8,77,62,16
8,103,70,348
8,100,72,52
8,98,62,32
8,96,72,44
8,91,70,392
8,88,67,44
8,86,67,32
8,84,68,16
8,92,43,3988
8,93,61,0
8,96,88,36
8,97,89,72
