track,note,velocity,time
3,74,74,1
3,74,0,54
3,67,62,5
3,67,0,60
3,71,73,0
3,71,0,42
3,74,85,15
3,74,0,33
3,79,102,27
3,79,0,3
3,74,69,7
3,71,85,60
3,74,0,13
3,71,0,37
3,67,72,10
3,67,0,45
3,78,79,15
3,69,65,20
3,78,0,12
3,74,88,48
3,69,0,11
3,74,0,24
3,78,85,22
3,78,0,33
3,81,101,27
3,81,0,11
3,78,71,12
3,74,77,60
3,78,0,2
3,74,0,55
3,69,73,0
3,69,0,3
3,76,94,3
3,76,0,29
3,67,74,4
3,72,90,57
3,67,0,8
3,72,0,38
3,76,77,14
3,76,0,53
3,79,96,3
3,79,0,26
3,76,72,3
3,72,77,60
3,76,0,5
3,72,0,45
3,67,76,7
3,78,83,6
3,67,0,6
3,69,69,27
3,78,0,12
3,74,81,50
3,69,0,13
3,74,0,44
3,78,81,1
3,78,0,18
3,81,96,1
3,78,71,42
3,81,0,4
3,74,72,56
3,78,0,11
3,69,68,51
3,74,0,1
3,69,0,59
3,74,98,1
3,67,60,4
3,74,0,7
3,71,72,53
3,67,0,20
3,74,83,37
3,71,0,4
3,79,99,58
3,74,0,3
3,74,85,16
3,79,0,3
3,71,87,57
3,74,0,2
3,71,0,48
3,67,77,10
3,67,0,18
3,78,83,2
3,69,72,35
3,78,0,8
3,74,88,55
3,69,0,5
3,74,0,50
3,78,81,4
3,78,0,8
3,81,94,12
3,78,62,41
3,81,0,1
3,78,0,46
3,74,79,13
3,74,0,57
3,69,70,3
3,69,0,27
3,76,89,3
3,76,0,30
3,67,69,13
3,72,91,60
3,67,0,6
3,72,0,36
3,76,78,18
3,76,0,10
3,79,99,8
3,79,0,31
3,76,74,10
3,76,0,57
3,72,81,5
3,72,0,57
3,67,70,1
3,78,78,20
3,67,0,5
3,69,69,33
3,78,0,10
3,74,85,50
3,69,0,12
3,78,78,48
3,74,0,2
3,78,0,17
3,81,94,5
3,78,71,35
3,81,0,7
3,74,73,53
3,78,0,1
3,74,0,54
3,69,65,7
3,69,0,33
3,67,68,26
3,55,72,24
3,67,0,9
3,59,87,51
3,55,0,6
3,59,0,17
3,67,101,35
3,55,74,21
3,67,0,23
3,59,68,27
3,55,0,21
3,59,0,9
3,67,94,33
3,55,73,57
3,67,0,11
3,55,0,30
3,59,81,22
3,59,0,23
3,67,99,37
3,55,74,38
3,67,0,16
3,62,78,38
3,55,0,5
3,62,0,38
3,67,99,17
3,55,77,16
3,67,0,28
3,59,77,32
3,55,0,30
3,67,84,30
3,59,0,5
3,67,0,40
3,64,106,18
3,57,72,47
3,64,0,6
3,61,71,42
3,57,0,8
3,61,0,47
3,67,96,5
3,57,67,15
3,67,0,22
3,61,78,38
3,57,0,13
3,61,0,35
3,64,85,14
3,64,0,53
3,57,74,5
3,57,0,3
3,67,95,17
3,57,61,51
3,67,0,21
3,64,88,39
3,57,0,10
3,64,0,40
3,67,92,10
3,57,70,5
3,67,0,30
3,64,84,30
3,57,0,15
3,64,0,22
3,67,88,23
3,67,0,58
3,57,70,2
3,57,0,51
3,60,84,6
3,67,80,6
3,60,0,11
3,57,79,52
3,67,0,17
3,60,90,40
3,57,0,19
3,67,101,26
3,60,0,3
3,57,77,44
3,67,0,26
3,64,92,35
3,57,0,4
3,57,98,56
3,64,0,13
3,60,80,35
3,57,0,25
3,60,0,7
3,64,79,8
3,64,0,50
3,57,69,8
3,60,90,60
3,57,0,15
3,63,91,7
3,60,0,6
3,55,71,54
3,63,0,17
3,60,84,41
3,55,0,40
3,60,0,13
3,63,93,7
3,63,0,26
3,62,90,22
3,55,69,7
3,62,0,2
3,59,74,58
3,55,0,18
3,67,95,42
3,59,0,7
3,55,72,46
3,67,0,27
3,59,64,7
3,55,0,45
3,67,89,13
3,59,0,8
3,55,77,52
3,67,0,23
3,67,98,29
3,55,0,2
3,55,82,16
3,67,0,19
3,59,85,41
3,55,0,43
3,62,88,17
3,59,0,42
3,62,0,16
3,66,88,5
3,54,79,52
3,66,0,26
3,59,73,2
3,54,0,50
3,66,91,8
3,59,0,13
3,66,0,37
3,64,90,8
3,55,74,60
3,64,0,40
3,59,77,2
3,55,0,31
3,67,99,29
3,59,0,15
3,55,87,28
3,67,0,24
3,59,65,3
3,55,0,48
3,64,87,12
3,59,0,13
3,64,0,44
3,55,83,3
3,67,94,41
3,55,0,1
3,55,73,23
3,67,0,21
3,59,84,39
3,55,0,48
3,67,102,15
3,59,0,10
3,55,84,44
3,67,0,24
3,59,82,16
3,62,80,60
3,55,0,2
3,59,0,14
3,55,92,44
3,62,0,8
3,55,0,37
3,67,88,13
3,57,65,60
3,67,0,11
3,61,72,15
3,57,0,37
3,61,0,23
3,67,95,0
3,57,77,50
3,67,0,47
3,61,71,13
3,57,0,8
3,67,94,45
3,61,0,15
3,57,78,26
3,67,0,9
3,61,88,29
3,57,0,11
3,64,89,51
3,61,0,6
3,64,0,30
3,67,74,8
3,57,77,60
3,61,89,46
3,57,0,16
3,67,0,0
3,67,102,21
3,61,0,7
3,57,75,11
3,67,0,28
3,61,74,29
3,57,0,20
3,66,101,21
3,61,0,12
3,57,69,50
3,66,0,18
3,61,59,40
3,57,0,22
3,61,0,30
3,66,83,8
3,57,79,39
3,66,0,18
3,61,83,38
3,57,0,13
3,61,0,40
3,66,99,7
3,57,77,60
3,66,0,13
3,57,0,12
3,66,99,8
3,55,84,4
3,59,82,59
3,66,0,5
3,55,0,31
3,66,99,25
3,59,0,7
3,55,76,50
3,59,83,45
3,66,0,26
3,55,0,1
3,66,97,33
3,59,0,17
3,55,89,43
3,66,0,11
3,55,0,10
3,64,83,17
3,55,56,60
3,64,0,8
3,59,89,39
3,55,0,20
3,59,0,27
3,64,106,13
3,55,72,46
3,64,0,2
3,59,78,39
3,55,0,31
3,59,0,27
3,64,99,2
3,55,80,60
3,64,0,22
3,55,0,14
3,62,90,12
3,57,74,17
3,62,0,6
3,62,82,54
3,57,0,10
3,67,76,52
3,62,0,5
3,57,84,41
3,67,0,8
3,62,78,28
3,57,0,33
3,62,0,28
3,67,96,2
3,57,74,57
3,67,0,1
3,57,0,2
3,62,95,18
3,55,65,3
3,62,0,3
3,59,80,57
3,79,70,3
3,55,0,15
3,67,90,42
3,83,73,3
3,59,0,4
3,55,81,40
3,67,0,16
3,59,81,18
3,74,69,2
3,83,0,1
3,79,0,2
3,55,0,12
3,67,98,43
3,79,74,0
3,74,0,3
3,59,0,0
3,83,80,57
3,55,79,0
3,67,0,22
3,59,95,20
3,55,0,30
3,67,98,30
3,59,0,16
3,79,0,14
3,83,0,1
3,55,79,29
3,67,0,3
3,59,73,31
3,55,0,19
3,59,0,27
3,67,77,5
3,67,0,5
3,62,87,2
3,55,82,60
3,59,80,15
3,62,0,11
3,55,0,21
3,59,0,9
3,64,101,4
3,55,83,58
3,64,0,48
3,61,52,12
3,55,0,23
3,64,98,37
3,61,0,7
3,55,64,48
3,64,0,6
3,57,78,44
3,55,0,30
3,61,99,2
3,57,0,10
3,61,0,50
3,64,94,0
3,55,77,48
3,64,0,8
3,61,81,39
3,55,0,25
3,61,0,17
3,64,85,18
3,57,63,56
3,64,0,3
3,61,76,55
3,57,0,26
3,61,0,3
3,67,101,3
3,57,72,60
3,67,0,10
3,61,67,38
3,57,0,22
3,61,0,16
3,67,96,12
3,57,70,60
3,67,0,56
3,60,73,4
3,57,0,42
3,67,87,4
3,60,0,7
3,57,69,31
3,67,0,30
3,60,79,10
3,57,0,27
3,64,104,4
3,60,0,5
3,57,68,3
3,64,0,5
3,57,0,9
3,63,103,5
3,55,74,57
3,63,0,20
3,60,84,40
3,55,0,32
3,63,117,31
3,60,0,4
3,55,64,55
3,63,0,14
3,60,62,27
3,55,0,14
3,60,0,2
3,63,89,9
3,55,70,46
3,63,0,8
3,62,90,2
3,55,0,7
3,55,68,53
3,62,0,13
3,59,81,18
3,55,0,17
3,67,88,43
3,59,0,8
3,55,87,52
3,67,0,30
3,59,84,25
3,55,0,23
3,59,0,30
3,67,98,7
3,55,85,23
3,67,0,16
3,67,99,35
3,55,0,3
3,55,90,26
3,67,0,15
3,59,92,45
3,55,0,16
3,67,101,44
3,59,0,7
3,67,0,13
3,66,108,40
3,54,95,50
3,66,0,17
3,59,70,30
3,54,0,29
3,59,0,26
3,66,95,2
3,66,0,36
3,64,98,7
3,55,76,60
3,64,0,18
3,59,84,40
3,55,0,12
3,67,102,43
3,59,0,11
3,55,85,36
3,67,0,16
3,59,77,15
3,55,0,20
3,64,101,1
3,59,0,2
3,55,84,8
3,64,0,8
3,62,99,25
3,55,0,8
3,55,78,52
3,62,0,12
3,59,79,27
3,55,0,20
3,67,102,40
3,55,90,45
3,59,0,13
3,67,0,23
3,59,69,22
3,55,0,23
3,62,84,7
3,59,0,20
3,55,83,40
3,62,0,17
3,55,0,26
3,67,96,11
3,57,74,60
3,67,0,38
3,61,81,1
3,57,0,22
3,61,0,35
3,67,102,3
3,57,70,56
3,85,95,3
3,61,76,33
3,85,0,1
3,86,102,2
3,67,0,2
3,57,0,17
3,67,94,16
3,86,0,1
3,61,0,1
3,88,102,1
3,88,0,52
3,57,73,5
3,86,101,0
3,67,0,21
3,86,0,30
3,61,88,2
3,85,85,0
3,57,0,21
3,85,0,16
3,64,95,2
3,83,74,0
3,61,0,2
3,64,0,19
3,83,0,1
3,81,95,2
3,67,90,0
3,79,89,60
3,57,74,0
3,81,0,1
3,79,0,9
3,81,98,8
3,61,81,16
3,81,0,1
3,67,0,0
3,79,78,3
3,79,0,17
3,81,80,9
3,57,0,1
3,81,0,9
3,79,69,7
3,67,110,12
3,61,0,2
3,79,0,7
3,81,84,6
3,81,0,12
3,79,81,6
3,79,0,22
3,57,75,5
3,81,74,2
3,67,0,1
3,79,78,11
3,81,0,5
3,79,0,22
3,78,81,7
3,61,74,2
3,57,0,15
3,78,0,5
3,79,79,3
3,78,89,19
3,79,0,2
3,66,97,1
3,61,0,13
3,57,68,47
3,66,0,18
3,61,58,34
3,57,0,7
3,61,0,14
3,78,0,2
3,66,101,40
3,57,61,49
3,66,0,2
3,57,0,49
3,61,75,2
3,61,0,27
3,66,99,18
3,66,0,33
3,57,57,5
3,57,0,31
3,66,101,12
3,55,79,60
3,59,79,46
3,66,0,15
3,55,0,5
3,59,0,37
3,66,99,3
3,55,77,57
3,66,0,25
3,59,87,15
3,55,0,2
3,59,0,45
3,66,101,15
3,66,0,36
3,55,81,2
3,55,0,40
3,64,96,7
3,55,69,60
3,64,0,22
3,59,87,27
3,55,0,3
3,59,0,57
3,64,104,2
3,55,61,55
3,64,0,41
3,59,81,15
3,55,0,18
3,59,0,35
3,64,104,7
3,55,68,46
3,64,0,21
3,59,82,39
3,55,0,13
3,59,0,47
3,64,98,2
3,55,68,59
3,64,0,16
3,59,88,6
3,55,0,11
3,59,0,20
3,64,110,26
3,55,70,51
3,64,0,5
3,59,85,50
3,55,0,11
3,59,0,25
3,64,101,24
3,64,0,32
3,66,106,32
3,66,0,19
3,57,75,32
3,57,0,56
3,59,89,4
3,66,93,54
3,59,0,16
3,57,70,44
3,66,0,14
3,59,78,6
3,57,0,5
3,59,0,41
3,66,99,16
3,57,62,58
3,66,0,3
3,57,0,33
3,64,99,5
3,55,72,60
3,64,0,28
3,59,79,16
3,55,0,21
3,64,96,39
3,59,0,11
3,62,91,10
3,64,0,3
3,55,73,57
3,62,0,20
3,59,85,5
3,55,0,43
3,62,91,17
3,59,0,1
3,62,0,44
3,64,108,2
3,55,72,60
3,64,0,35
3,59,72,20
3,55,0,13
3,59,0,30
3,64,98,17
3,55,70,5
3,64,0,12
3,59,77,48
3,55,0,8
3,59,0,13
3,64,102,39
3,64,0,48
3,55,81,12
3,55,0,35
3,62,98,6
3,62,0,52
3,57,68,8
3,57,0,44
3,62,84,8
3,62,0,51
3,67,96,9
3,67,0,44
3,57,88,12
3,57,0,51
3,62,85,9
3,66,103,37
3,62,0,1
3,57,70,15
3,66,0,17
3,57,0,19
3,74,74,1
3,74,0,55
3,67,62,5
3,67,0,60
3,71,73,0
3,71,0,42
3,74,85,15
3,74,0,33
3,79,102,27
3,79,0,3
3,74,69,7
3,71,85,60
3,74,0,13
3,71,0,37
3,67,72,10
3,67,0,45
3,78,79,15
3,69,65,20
3,78,0,12
3,74,88,48
3,69,0,11
3,74,0,24
3,78,85,22
3,78,0,33
3,81,101,27
3,81,0,11
3,78,71,12
3,74,77,60
3,78,0,2
3,74,0,55
3,69,73,0
3,69,0,3
3,76,94,3
3,76,0,29
3,67,74,4
3,72,90,57
3,67,0,8
3,72,0,38
3,76,77,14
3,76,0,53
3,79,96,3
3,79,0,26
3,76,72,3
3,72,77,60
3,76,0,5
3,72,0,45
3,67,76,7
3,78,83,6
3,67,0,6
3,69,69,27
3,78,0,12
3,74,81,50
3,69,0,13
3,74,0,44
3,78,81,1
3,78,0,18
3,81,96,1
3,78,71,42
3,81,0,4
3,74,72,56
3,78,0,11
3,69,68,51
3,74,0,1
3,69,0,59
3,74,98,1
3,67,60,4
3,74,0,7
3,71,72,53
3,67,0,20
3,74,83,37
3,71,0,4
3,79,99,58
3,74,0,3
3,74,85,16
3,79,0,3
3,71,87,57
3,74,0,2
3,71,0,48
3,67,77,10
3,67,0,18
3,78,83,2
3,69,72,35
3,78,0,8
3,74,88,55
3,69,0,5
3,74,0,50
3,78,81,4
3,78,0,8
3,81,94,12
3,78,62,41
3,81,0,1
3,78,0,46
3,74,79,13
3,74,0,57
3,69,70,3
3,69,0,27
3,76,89,3
3,76,0,30
3,67,69,13
3,72,91,60
3,67,0,6
3,72,0,36
3,76,78,18
3,76,0,10
3,79,99,8
3,79,0,31
3,76,74,10
3,76,0,57
3,72,81,5
3,72,0,57
3,67,70,1
3,78,78,20
3,67,0,5
3,69,69,33
3,78,0,10
3,74,85,50
3,69,0,12
3,78,78,48
3,74,0,2
3,78,0,17
3,81,94,5
3,78,71,35
3,81,0,7
3,74,73,53
3,78,0,1
3,74,0,54
3,69,65,7
3,69,0,33
3,67,66,26
3,55,58,35
3,67,0,12
3,59,66,47
3,55,0,9
3,59,0,23
3,67,102,26
3,55,67,30
3,67,0,16
3,62,77,12
3,55,0,6
3,62,0,42
3,67,95,12
3,67,0,57
3,55,65,1
3,59,77,60
3,55,0,11
3,59,0,42
3,67,98,7
3,55,64,10
3,67,0,31
3,55,0,24
3,62,82,5
3,62,0,45
3,67,94,15
3,55,62,60
3,67,0,3
3,59,83,57
3,55,0,3
3,59,0,52
3,67,90,5
3,67,0,17
3,64,101,13
3,55,83,58
3,64,0,48
3,61,52,12
3,55,0,23
3,64,98,37
3,61,0,7
3,55,64,48
3,64,0,6
3,57,78,44
3,55,0,30
3,61,99,2
3,57,0,10
3,61,0,50
3,64,94,0
3,55,77,48
3,64,0,8
3,61,81,39
3,55,0,25
3,61,0,17
3,64,85,18
3,57,63,56
3,64,0,3
3,61,76,55
3,57,0,26
3,61,0,3
3,67,101,3
3,57,72,60
3,67,0,10
3,61,67,38
3,57,0,22
3,61,0,16
3,67,96,12
3,57,70,60
3,67,0,56
3,60,73,4
3,57,0,42
3,67,87,4
3,60,0,7
3,57,69,31
3,67,0,30
3,60,79,10
3,57,0,27
3,64,104,4
3,60,0,5
3,57,68,3
3,64,0,5
3,57,0,9
3,63,103,5
3,55,74,57
3,63,0,20
3,60,84,40
3,55,0,32
3,63,117,31
3,60,0,4
3,55,64,55
3,63,0,14
3,60,62,27
3,55,0,14
3,60,0,2
3,63,89,9
3,55,70,46
3,63,0,8
3,62,90,2
3,55,0,7
3,55,68,53
3,62,0,13
3,59,81,18
3,55,0,17
3,67,88,43
3,59,0,8
3,55,87,52
3,67,0,30
3,59,84,25
3,55,0,23
3,59,0,30
3,67,98,7
3,55,85,23
3,67,0,16
3,67,99,35
3,55,0,3
3,55,90,26
3,67,0,15
3,59,92,45
3,55,0,16
3,67,101,44
3,59,0,7
3,67,0,13
