track,note,velocity,time
0,69,98,1536
0,73,102,0
0,57,103,0
0,64,83,96
0,73,94,108
0,69,94,0
0,64,100,96
0,64,82,0
0,66,97,0
0,73,96,0
0,69,100,0
0,64,84,0
0,69,104,0
0,73,94,0
0,69,102,0
0,69,93,0
0,64,87,0
0,76,106,0
0,50,93,0
0,73,95,0
0,69,90,0
0,73,97,0
0,66,75,192
0,73,93,160
0,69,95,0
0,66,77,152
0,73,88,148
0,69,90,0
0,66,67,0
0,69,87,188
0,73,90,0
0,66,80,0
0,57,100,24
0,73,88,0
0,69,91,0
0,64,84,0
0,69,90,192
0,73,90,0
0,64,89,0
0,64,98,0
0,73,92,0
0,69,90,0
0,66,100,0
0,69,104,0
0,64,91,0
0,69,104,0
0,73,97,0
0,69,97,0
0,76,93,0
0,64,89,0
0,73,91,0
0,50,93,0
0,69,88,0
0,73,102,0
0,66,87,0
0,73,94,192
0,69,98,0
0,66,86,184
0,69,89,0
0,73,93,0
0,66,87,0
0,73,96,0
0,69,98,0
0,66,99,0
0,73,106,0
0,45,111,0
0,69,104,0
0,64,87,192
0,73,98,180
0,69,100,0
0,64,95,120
0,52,80,0
0,54,80,40
0,69,94,0
0,73,97,0
0,64,96,28
0,57,91,0
0,57,91,44
0,73,93,96
0,69,94,0
0,64,90,12
0,64,86,0
0,61,93,12
0,50,113,0
0,73,102,0
0,69,98,0
0,66,85,0
0,73,90,184
0,69,100,0
0,66,85,152
0,69,95,152
0,73,86,0
0,66,88,4
0,73,97,148
0,69,102,0
0,62,102,56
0,66,87,0
0,68,91,12
0,64,87,0
0,49,111,0
0,71,95,0
0,64,88,60
0,64,84,0
0,71,95,168
0,68,93,0
0,64,79,8
0,68,87,0
0,71,92,0
0,64,86,24
0,68,87,36
0,71,102,0
0,49,101,108
0,64,67,0
0,73,98,28
0,69,91,0
0,68,99,0
0,54,103,0
0,66,84,60
0,73,47,108
0,68,93,0
0,66,86,88
0,73,94,4
0,68,94,0
0,68,104,0
0,66,99,56
0,73,102,96
0,68,96,0
0,66,86,8
0,64,87,0
0,62,102,16
0,66,94,0
0,47,115,0
0,61,98,0
0,57,93,8
0,66,90,32
0,62,96,0
0,59,91,60
0,57,93,0
0,57,104,20
0,66,97,96
0,61,101,0
0,57,78,112
0,66,100,84
0,62,104,0
0,57,90,80
0,54,98,12
0,61,98,0
0,57,88,116
0,68,94,152
0,54,94,56
0,68,81,96
0,68,99,64
0,68,108,0
0,54,97,24
0,69,72,0
0,69,101,72
0,69,99,4
0,73,107,0
0,66,87,4
0,64,96,32
0,54,92,0
0,61,110,8
0,57,85,0
0,47,117,0
0,62,97,0
0,66,94,0
0,54,92,100
0,57,89,156
0,62,98,0
0,66,95,0
0,62,91,44
0,54,95,0
0,61,78,16
0,59,102,16
0,66,96,0
0,62,98,0
0,57,89,0
0,47,86,8
0,54,88,0
0,62,100,88
0,66,95,0
0,57,92,0
0,57,82,36
0,69,99,120
0,52,102,0
0,40,102,0
0,66,97,0
0,62,103,0
0,52,89,64
0,52,105,0
0,69,114,4
0,54,109,0
0,62,114,0
0,66,110,0
0,52,108,40
0,48,104,0
0,52,102,0
0,57,108,0
0,59,93,32
0,66,97,0
0,57,92,0
0,54,108,0
0,62,99,0
0,50,115,40
0,52,99,8
0,54,110,16
0,56,103,16
0,40,125,16
0,62,97,0
0,52,110,0
0,57,94,0
0,45,105,0
0,59,93,16
0,61,90,12
0,62,96,16
0,57,118,0
0,64,99,16
0,66,103,16
0,68,96,16
0,59,108,0
0,64,86,0
0,68,112,0
0,64,118,0
0,69,99,16
0,71,96,16
0,73,102,16
0,41,84,0
0,74,97,16
0,76,98,16
0,28,125,4
0,78,96,0
0,66,89,0
0,40,103,0
0,54,88,0
0,41,122,0
0,80,103,16
0,81,99,12
0,83,101,0
0,61,108,0
0,85,99,16
0,86,97,16
0,45,111,4
0,68,93,0
0,59,101,0
0,33,127,0
0,52,91,0
0,61,103,0
0,88,107,0
0,64,102,0
0,69,104,0
0,45,118,0
0,73,106,0
0,51,108,0
0,35,125,0
0,64,87,88
0,37,110,180
0,42,99,0
0,54,119,0
0,73,98,0
0,69,100,0
0,42,47,48
0,64,95,0
0,33,127,0
0,52,92,0
0,35,87,0
0,54,110,32
0,42,106,72
0,69,94,0
0,73,97,0
0,64,96,8
0,59,73,0
0,57,109,0
0,42,48,0
0,57,97,0
0,73,93,96
0,42,108,0
0,37,108,0
0,54,117,0
0,59,64,0
0,64,93,0
0,69,94,0
0,68,91,0
0,37,127,32
0,42,49,0
0,35,74,0
0,64,86,0
0,64,100,0
0,42,106,0
0,38,126,0
0,66,93,0
0,69,103,0
0,50,113,0
0,50,104,0
0,73,102,0
0,66,107,0
0,61,102,0
0,61,88,0
0,69,98,0
0,35,118,0
0,61,104,0
0,66,85,0
0,42,46,0
0,54,117,108
0,73,90,0
0,42,110,0
0,69,100,0
0,37,104,0
0,66,85,48
0,35,85,0
0,38,127,0
0,42,56,0
0,69,95,152
0,73,86,0
0,42,114,0
0,42,55,4
0,66,88,0
0,37,110,148
0,73,97,0
0,42,112,0
0,54,119,0
0,69,102,0
0,35,86,44
0,62,118,0
0,66,87,0
0,38,125,0
0,42,53,0
0,64,93,0
0,59,93,0
0,59,83,0
0,64,121,0
0,49,111,0
0,56,100,0
0,37,125,0
0,71,95,0
0,42,112,0
0,35,123,0
0,49,112,0
0,68,91,0
0,64,87,0
0,59,87,60
0,64,84,0
0,42,49,0
0,37,110,148
0,71,95,0
0,42,108,0
0,54,119,0
0,68,93,0
0,64,97,0
0,35,102,20
0,56,85,0
0,37,122,0
0,42,52,0
0,64,79,0
0,68,87,0
0,59,87,0
0,71,92,0
0,42,106,0
0,64,89,24
0,42,38,0
0,64,86,0
0,56,82,36
0,37,106,0
0,42,106,0
0,68,87,0
0,54,119,0
0,71,102,0
0,42,55,0
0,49,101,0
0,35,90,0
0,59,93,0
0,64,67,0
0,44,103,0
0,49,98,4
0,57,93,0
0,42,104,0
0,54,103,0
0,35,121,0
0,42,112,0
0,64,89,0
0,68,99,0
0,57,115,0
0,69,91,0
0,73,98,0
0,42,96,0
0,49,95,0
0,66,84,60
0,59,93,0
0,42,101,0
0,73,47,108
0,68,93,0
0,37,110,0
0,42,110,0
0,54,119,0
0,64,89,0
0,42,103,0
0,30,119,0
0,35,114,0
0,66,86,0
0,57,91,0
0,42,89,12
0,68,110,0
0,73,94,0
0,59,82,0
0,68,94,0
0,64,88,36
0,42,103,0
0,66,106,72
0,73,102,28
0,68,96,0
0,42,103,0
0,37,106,0
0,54,121,0
0,35,102,8
0,30,117,0
0,42,78,0
0,66,86,0
0,64,87,0
0,47,115,0
0,61,117,0
0,54,84,0
0,62,89,0
0,62,102,0
0,62,81,0
0,57,82,0
0,35,120,0
0,57,93,0
0,47,97,0
0,42,106,0
0,35,109,0
0,66,94,0
0,61,85,0
0,57,93,8
0,42,48,0
0,66,90,32
0,42,106,0
0,37,108,0
0,54,119,0
0,62,96,0
0,35,93,76
0,42,50,0
0,57,93,0
0,59,100,0
0,35,120,0
0,57,109,20
0,66,97,56
0,61,101,0
0,42,106,0
0,59,96,0
0,42,48,112
0,57,78,0
0,42,103,64
0,37,110,0
0,54,117,0
0,66,100,0
0,62,104,0
0,57,90,80
0,42,34,0
0,35,72,52
0,57,93,0
0,35,112,0
0,54,98,0
0,64,91,0
0,59,94,0
0,30,114,0
0,56,89,0
0,61,98,0
0,42,96,0
0,64,97,0
0,49,95,0
0,42,95,0
0,57,88,68
0,42,38,0
0,57,98,0
0,68,94,100
0,59,93,0
0,42,101,0
0,54,117,0
0,37,110,0
0,35,96,56
0,42,42,0
0,54,94,0
0,30,114,0
0,64,98,0
0,68,78,56
0,68,99,72
0,42,95,0
0,68,108,0
0,69,97,8
0,54,97,20
0,42,33,0
0,69,105,80
0,69,99,4
0,42,101,0
0,37,106,0
0,73,107,0
0,54,119,0
0,66,91,4
0,42,45,20
0,33,102,0
0,35,77,0
0,64,81,0
0,54,92,0
0,30,112,4
0,42,103,0
0,57,85,0
0,62,91,0
0,57,101,0
0,35,121,0
0,35,111,0
0,47,117,0
0,62,97,0
0,66,94,0
0,47,107,0
0,62,97,0
0,54,89,0
0,61,112,0
0,61,92,0
0,57,86,0
0,42,38,24
0,54,92,0
0,42,99,4
0,57,89,0
0,62,98,0
0,54,119,0
0,37,106,0
0,66,95,0
0,62,84,48
0,35,112,0
0,42,48,0
0,54,95,0
0,35,104,0
0,61,98,24
0,59,105,48
0,59,105,0
0,66,96,0
0,62,98,0
0,57,89,0
0,42,95,0
0,47,86,8
0,69,102,0
0,54,88,0
0,42,40,0
0,66,92,0
0,62,99,24
0,57,92,0
0,62,100,0
0,37,108,0
0,42,98,0
0,66,95,0
0,54,119,0
0,37,108,0
0,57,82,16
0,42,41,0
0,38,102,0
0,35,74,0
0,42,98,40
0,64,109,0
0,76,112,0
0,66,97,0
0,35,109,0
0,62,103,0
0,69,99,0
0,52,102,0
0,40,98,0
0,40,97,0
0,40,102,0
0,52,89,64
0,42,43,0
0,54,119,4
0,42,103,0
0,37,106,0
0,69,114,0
0,62,114,0
0,66,110,0
0,52,108,4
0,52,105,0
0,35,94,0
0,28,114,0
0,42,67,0
0,62,99,0
0,66,97,0
0,57,92,0
0,42,104,0
0,54,110,0
0,64,91,0
0,57,105,44
0,52,110,0
0,48,112,0
0,64,118,20
0,35,96,0
0,59,108,0
0,54,121,0
0,68,112,0
0,57,105,0
0,45,80,80
0,64,107,48
0,45,114,0
0,40,103,0
0,28,109,0
0,35,82,8
0,61,114,0
0,57,102,0
0,52,104,0
0,33,127,0
0,45,127,0
0,35,118,0
0,61,103,0
0,49,86,0
0,52,100,0
0,33,125,0
0,61,112,0
0,33,116,40
0,46,73,0
0,52,67,0
0,57,118,0
0,81,105,0
0,54,119,0
0,52,107,0
0,61,112,0
0,64,118,0
0,69,93,0
0,40,125,0
0,42,108,0
0,73,93,0
0,64,93,0
0,73,106,0
0,42,68,28
0,52,80,0
0,40,89,32
0,64,93,0
0,38,123,0
0,37,115,0
0,52,89,0
0,50,120,0
0,54,99,0
0,71,108,0
0,61,93,0
0,38,118,0
0,42,86,0
0,35,87,0
0,61,112,0
0,57,104,0
0,54,112,0
0,40,73,8
0,73,97,0
0,38,127,40
0,69,92,0
0,35,84,0
0,38,111,0
0,42,79,0
0,64,67,24
0,57,109,76
0,66,117,0
0,61,98,0
0,40,114,0
0,54,117,0
0,54,103,0
0,52,100,0
0,42,99,0
0,64,88,12
0,52,75,12
0,46,85,0
0,42,107,0
0,40,120,12
0,40,77,0
0,40,98,0
0,45,122,0
0,33,127,0
0,61,100,0
0,61,96,0
0,52,97,0
0,35,112,0
0,33,111,0
0,52,107,0
0,42,87,0
0,57,101,0
0,33,127,40
0,35,89,0
0,42,67,0
0,33,101,0
0,59,105,0
0,61,89,0
0,81,107,36
0,42,108,0
0,64,123,0
0,40,114,0
0,57,118,0
0,52,104,0
0,61,112,0
0,73,98,0
0,54,117,0
0,59,99,0
0,57,102,44
0,52,112,40
0,52,86,0
0,42,70,0
0,33,82,16
0,40,74,0
0,37,112,0
0,38,120,8
0,35,87,0
0,54,108,0
0,57,105,0
0,50,115,0
0,61,101,0
0,42,70,0
0,54,106,0
0,38,112,0
0,54,107,0
0,40,82,52
0,35,101,4
0,38,112,0
0,57,101,0
0,46,83,0
0,38,116,0
0,54,83,0
0,40,112,0
0,42,108,0
0,59,112,0
0,52,109,0
0,56,109,0
0,40,123,0
0,59,114,0
0,54,119,0
0,52,111,0
0,40,118,0
0,59,127,0
0,56,110,0
0,35,86,80
0,42,74,24
0,52,87,0
0,40,89,52
0,54,106,0
0,61,121,0
0,42,123,0
0,58,97,0
0,58,110,0
0,42,109,0
0,49,114,0
0,58,93,0
0,42,121,0
0,35,118,0
0,49,86,0
0,42,112,24
0,42,123,0
0,46,73,0
0,66,123,0
0,42,108,44
0,78,125,0
0,61,119,0
0,61,121,0
0,54,119,0
0,54,103,0
0,70,104,0
0,58,109,0
0,40,125,0
0,61,110,0
0,54,84,52
0,42,68,0
0,58,93,0
0,47,116,40
0,61,123,0
0,40,89,0
0,42,110,0
0,58,110,0
0,63,114,0
0,54,107,0
0,51,102,0
0,42,86,0
0,35,87,0
0,35,127,0
0,40,73,0
0,35,84,32
0,47,113,0
0,63,117,0
0,35,125,0
0,42,79,0
0,54,115,68
0,42,99,0
0,40,114,0
0,54,119,0
0,54,112,0
0,63,117,0
0,58,115,0
0,59,107,40
0,39,121,0
0,46,85,0
0,54,91,0
0,37,104,4
0,40,77,0
0,49,100,0
0,54,112,0
0,58,110,0
0,42,109,0
0,35,112,0
0,61,112,0
0,58,117,0
0,49,104,0
0,42,119,0
0,42,87,0
0,35,89,36
0,56,100,0
0,42,67,0
0,42,117,0
0,42,97,0
0,58,114,40
0,42,108,20
0,61,125,0
0,70,107,0
0,54,112,0
0,40,114,0
0,54,119,0
0,78,121,0
0,58,117,0
0,61,119,0
0,54,88,64
0,42,70,0
0,58,66,0
0,47,113,28
0,61,92,0
0,30,123,0
0,40,74,0
0,63,110,28
0,51,94,0
0,35,87,0
0,68,100,0
0,35,108,0
0,58,102,0
0,54,98,0
0,42,70,0
0,73,89,28
0,40,82,0
0,70,86,0
0,35,101,0
0,47,109,0
0,68,91,0
0,35,112,0
0,46,83,0
0,66,81,12
0,63,103,0
0,56,103,0
0,68,99,44
0,56,114,0
0,40,112,0
0,42,108,0
0,54,121,0
0,35,86,8
0,58,91,0
0,66,94,0
0,37,106,0
0,54,117,4
0,54,98,0
0,42,74,0
0,63,96,0
0,39,112,0
0,37,97,8
0,49,99,0
0,61,89,0
0,40,89,0
0,49,117,12
0,42,107,0
0,61,102,0
0,58,102,0
0,54,110,0
0,42,107,0
0,35,118,0
0,58,104,0
0,42,86,0
0,61,107,32
0,42,106,0
0,42,119,0
0,66,117,0
0,58,84,0
0,46,73,0
0,61,117,32
0,70,103,0
0,61,127,0
0,61,127,0
0,58,115,0
0,54,110,0
0,40,125,0
0,78,119,0
0,42,108,0
0,54,119,0
0,58,104,40
0,42,68,0
0,54,86,0
0,47,109,28
0,61,119,0
0,40,89,0
0,30,115,0
0,58,103,32
0,35,112,0
0,54,100,0
0,63,115,0
0,42,86,0
0,35,87,0
0,51,103,0
0,40,73,28
0,35,115,52
0,35,84,0
0,63,106,0
0,42,79,0
0,47,108,0
0,54,107,28
0,40,114,24
0,54,117,0
0,42,99,0
0,54,117,0
0,63,119,0
0,58,114,0
0,59,102,56
0,51,103,0
0,46,85,0
0,49,96,0
0,37,115,0
0,58,117,0
0,40,77,0
0,58,107,0
0,61,115,0
0,58,112,0
0,42,114,0
0,54,106,0
0,35,112,0
0,49,106,0
0,42,87,0
0,42,100,0
0,35,89,40
0,42,67,0
0,42,100,0
0,42,106,0
0,63,102,20
0,42,108,0
0,54,109,0
0,61,119,0
0,78,119,0
0,58,115,0
0,40,114,0
0,54,117,0
0,70,100,0
0,61,119,0
0,61,89,0
0,54,87,8
0,42,70,0
0,40,74,80
0,30,127,0
0,47,118,0
0,58,79,0
0,51,104,0
0,35,87,0
0,42,70,0
0,35,120,0
0,54,102,0
0,61,102,0
0,63,115,0
0,58,104,0
0,40,82,4
0,63,91,0
0,35,101,48
0,46,83,0
0,58,102,0
0,47,109,0
0,35,127,0
0,63,115,12
0,40,112,0
0,66,96,0
0,58,112,0
0,54,115,0
0,42,108,0
0,54,119,0
0,56,82,0
0,63,97,0
0,61,127,0
0,35,86,4
0,54,83,0
0,47,107,32
0,37,87,0
0,42,74,0
0,56,96,8
0,35,108,0
0,40,89,0
0,62,115,0
0,35,118,0
0,57,111,0
0,60,115,0
0,49,86,0
0,65,96,0
0,65,104,0
0,57,93,0
0,34,125,0
0,62,84,0
0,60,95,0
0,46,121,0
0,46,73,36
0,65,122,0
0,34,125,0
0,65,104,56
0,40,125,0
0,65,115,0
0,42,108,0
