track,note,velocity,time
1,50,119,0
1,48,113,0
1,43,113,0
1,38,113,0
1,50,107,0
1,48,113,0
1,43,119,0
1,38,113,0
1,34,113,0
1,33,113,96
1,34,107,0
1,33,127,96
1,34,119,0
1,33,127,96
1,31,113,0
1,29,119,96
1,50,102,0
1,46,113,0
1,43,113,0
1,40,102,0
1,38,113,96
1,34,113,12
1,31,113,80
1,28,113,76
1,33,127,108
1,33,64,3264
1,38,72,0
1,33,93,0
1,38,107,0
1,45,89,0
1,50,113,0
1,37,80,0
1,31,80,0
1,32,89,0
1,37,89,0
1,33,98,0
1,33,72,0
1,38,93,0
1,37,80,0
1,31,85,0
1,32,93,0
1,37,89,0
1,33,80,0
1,34,113,0
1,33,113,96
1,34,107,0
1,33,119,96
1,34,107,0
1,33,107,96
1,31,107,0
1,29,119,96
1,50,113,0
1,46,102,96
1,43,107,88
1,40,107,84
1,38,113,84
1,34,119,96
1,31,119,78
1,28,119,76
1,33,127,92
1,34,72,0
1,34,48,0
1,33,72,0
1,33,58,0
1,38,71,0
1,33,58,0
1,31,72,0
1,31,59,0
1,29,81,0
1,34,72,0
1,36,89,0
1,38,89,0
1,34,69,0
1,38,76,0
1,39,93,0
1,41,82,0
1,39,85,0
1,38,89,0
1,47,80,0
1,45,76,0
1,41,85,0
1,38,89,0
1,36,89,0
1,36,85,0
1,39,64,0
1,36,77,0
1,34,68,0
1,39,80,0
1,41,76,0
1,43,79,0
1,45,83,0
1,39,62,0
1,39,55,0
1,38,93,0
1,38,64,0
1,42,79,0
1,43,88,0
1,43,72,0
1,41,85,0
1,38,65,0
1,39,82,0
1,43,70,252
1,39,62,256
1,36,72,0
1,36,62,0
1,34,98,0
1,29,64,0
1,31,81,0
1,34,93,0
1,34,72,0
1,29,64,256
1,34,80,0
1,41,67,0
1,38,71,0
1,34,85,0
1,34,73,0
1,29,65,0
1,31,69,0
1,29,69,0
1,34,98,0
1,33,67,0
1,31,72,0
1,29,66,0
1,34,76,0
1,34,72,0
1,29,66,256
1,34,97,0
1,35,121,0
1,36,121,0
1,31,106,0
1,36,125,0
1,37,121,0
1,37,127,0
1,37,127,0
1,37,127,0
1,38,127,0
1,34,127,10944
1,33,127,96
1,34,127,0
1,33,127,96
1,34,127,0
1,33,127,96
1,31,119,0
1,29,113,96
1,50,113,0
1,46,119,96
1,43,119,86
1,40,113,86
1,38,119,96
1,34,113,96
1,31,113,88
1,28,119,74
1,33,127,116
1,38,127,0
1,26,113,0
1,38,113,0
1,38,113,192
1,38,113,768
1,38,113,192
1,38,119,768
1,38,119,192
1,38,119,768
2,38,85,2494
2,74,107,2
2,67,113,0
2,50,64,0
2,69,89,0
2,62,89,0
2,50,80,0
2,50,80,24
2,72,102,24
2,65,113,0
2,67,85,0
2,60,107,0
2,38,93,192
2,60,89,0
2,69,93,0
2,62,113,0
2,38,89,0
2,64,89,0
2,58,89,96
2,50,76,0
2,67,107,0
2,60,113,0
2,38,93,0
2,62,80,0
2,55,89,24
2,38,85,0
2,65,113,0
2,58,107,0
2,50,76,0
2,60,76,0
2,53,85,96
2,50,76,24
2,62,98,0
2,55,113,0
2,38,98,0
2,57,72,0
2,50,80,0
2,50,72,24
2,74,107,192
2,67,113,0
2,69,89,0
2,62,93,0
2,38,89,192
2,62,89,0
2,72,93,0
2,65,93,0
2,50,80,0
2,67,89,0
2,60,98,96
2,50,64,24
2,38,89,0
2,69,107,0
2,62,113,0
2,50,72,0
2,64,89,0
2,58,89,24
2,50,76,0
2,50,85,24
2,58,102,0
2,67,102,0
2,60,113,0
2,62,89,0
2,55,102,96
2,38,89,0
2,65,102,0
2,58,113,0
2,50,89,0
2,60,89,0
2,53,93,96
2,53,80,0
2,50,85,0
2,62,93,0
2,55,107,0
2,57,93,0
2,50,93,96
2,50,107,24
2,74,113,24
2,69,119,0
2,46,107,0
2,58,107,0
2,70,76,0
2,65,68,0
2,72,107,24
2,67,119,0
2,45,107,0
2,57,102,0
2,64,104,0
2,67,104,0
2,69,108,0
2,69,113,8
2,67,104,0
2,64,104,0
2,67,108,0
2,69,100,0
2,72,113,0
2,69,87,0
2,67,104,0
2,64,104,0
2,74,107,0
2,69,127,0
2,46,113,0
2,58,119,0
2,70,89,0
2,65,76,0
2,67,113,24
2,72,102,0
2,45,119,0
2,57,113,0
2,74,102,24
2,69,127,0
2,46,119,0
2,58,119,0
2,70,98,0
2,65,89,0
2,67,119,0
2,72,107,0
2,45,119,0
2,57,113,0
2,69,74,0
2,67,90,0
2,64,102,0
2,65,119,0
2,70,107,0
2,43,119,0
2,55,113,0
2,67,102,0
2,62,76,0
2,69,107,0
2,64,119,0
2,53,113,0
2,41,113,0
2,74,89,24
2,62,89,0
2,70,80,0
2,58,80,0
2,67,93,0
2,55,93,0
2,64,93,0
2,52,93,0
2,62,85,96
2,50,85,0
2,58,102,0
2,46,102,0
2,55,98,112
2,43,98,0
2,52,102,112
2,40,102,0
2,45,102,112
2,33,102,0
2,62,80,24
2,38,102,0
2,50,102,0
2,57,64,0
2,62,64,0
2,58,64,0
2,62,64,0
2,55,64,0
2,62,65,0
2,57,65,0
2,62,65,0
2,53,65,0
2,62,66,0
2,55,66,0
2,62,66,0
2,52,66,0
2,33,107,0
2,45,93,0
2,62,66,0
2,38,98,0
2,50,107,0
2,62,67,96
2,57,67,0
2,62,67,0
2,58,68,0
2,62,68,0
2,55,68,0
2,62,68,0
2,57,69,0
2,62,69,0
2,53,69,0
2,62,69,0
2,55,69,0
2,62,70,0
2,52,70,0
2,21,98,0
2,33,93,0
2,62,70,0
2,50,70,0
2,38,107,0
2,26,102,0
2,62,71,0
2,57,71,0
2,62,71,0
2,58,71,0
2,62,72,0
2,55,72,0
2,62,72,0
2,57,72,0
2,62,72,0
2,53,73,0
2,62,73,0
2,55,73,0
2,62,73,0
2,52,74,0
2,21,107,0
2,33,98,0
2,62,74,0
2,50,74,0
2,38,113,0
2,26,107,0
2,62,74,0
2,57,75,0
2,62,75,0
2,58,75,0
2,62,75,0
2,55,75,0
2,62,76,0
2,57,76,0
2,62,76,0
2,53,76,0
2,62,77,0
2,55,77,0
2,62,77,0
2,52,77,0
2,21,113,0
2,33,107,0
2,62,78,0
2,77,63,0
2,74,97,0
2,38,119,0
2,26,113,0
2,69,85,96
2,65,89,72
2,76,97,72
2,69,86,72
2,65,82,72
2,77,91,72
2,69,85,72
2,65,82,72
2,76,98,72
2,69,85,72
2,65,89,72
2,74,83,0
2,69,75,72
2,65,67,72
2,69,70,72
2,72,82,0
2,69,74,0
2,65,68,0
2,69,72,96
2,70,59,84
2,62,57,96
2,67,80,84
2,70,62,88
2,74,72,0
2,70,62,96
2,70,60,16
2,67,72,0
2,62,68,0
2,67,76,0
2,70,64,0
2,63,62,92
2,67,76,96
2,75,76,68
2,70,59,64
2,67,76,56
2,63,53,56
2,72,55,0
2,60,50,96
2,63,59,40
2,68,68,80
2,60,60,0
2,63,60,76
2,68,68,42
2,63,76,0
2,72,76,0
2,65,53,96
2,68,62,72
2,72,76,72
2,77,80,80
2,72,89,88
2,68,89,8
2,72,93,16
2,68,93,16
2,65,89,16
2,74,80,16
2,64,72,96
2,67,64,88
2,69,62,0
2,64,62,0
2,67,72,96
2,67,51,24
2,69,64,96
2,74,76,80
2,67,62,80
2,69,85,72
2,74,93,0
2,67,98,96
2,69,107,0
2,67,107,96
2,77,113,0
2,69,93,96
2,65,93,0
2,79,107,96
2,69,93,88
2,65,113,90
2,77,102,0
2,69,98,96
2,65,98,72
2,76,107,64
2,69,89,88
2,65,85,68
2,74,89,80
2,69,76,80
2,65,85,0
2,69,89,96
2,72,68,0
2,69,59,96
2,65,80,88
2,69,62,0
2,70,60,0
2,62,59,0
2,67,76,0
2,70,60,0
2,74,80,0
2,70,62,0
2,70,72,24
2,67,80,0
2,62,76,0
2,70,68,0
2,67,72,96
2,63,55,0
2,67,57,0
2,63,40,96
2,75,62,0
2,70,62,72
2,67,68,72
2,63,56,0
2,72,57,96
2,60,59,72
2,63,62,88
2,68,80,80
2,63,76,0
2,68,72,0
2,63,79,48
2,60,83,0
2,63,92,48
2,68,88,80
2,65,80,80
2,68,89,88
2,77,98,72
2,72,107,72
2,68,76,0
2,72,76,0
2,68,64,48
2,65,62,0
2,68,59,48
2,72,68,80
2,74,68,0
2,64,52,96
2,67,62,88
2,69,64,0
2,64,56,0
2,67,62,96
2,69,72,184
2,67,68,72
2,64,57,80
2,76,102,88
2,64,80,88
2,77,107,88
2,64,92,88
2,73,119,88
2,64,98,88
2,74,119,0
2,69,127,0
2,58,113,0
2,46,113,0
2,70,102,96
2,65,85,0
2,67,127,0
2,72,119,0
2,45,107,0
2,57,93,0
2,69,127,24
2,74,113,0
2,58,113,0
2,46,113,0
2,70,93,96
2,65,89,0
2,72,102,0
2,67,113,0
2,45,119,0
2,57,113,0
2,64,104,0
2,67,104,0
2,69,108,0
2,69,113,8
2,67,104,0
2,64,104,0
2,67,108,0
2,69,100,0
2,72,113,0
2,69,87,0
2,67,104,0
2,64,104,0
2,69,119,0
2,74,113,0
2,58,119,0
2,46,107,0
2,70,98,0
2,65,76,0
2,67,119,0
2,72,113,0
2,45,113,0
2,57,107,0
2,65,113,24
2,70,113,0
2,55,102,0
2,43,113,0
2,67,89,0
2,62,85,0
2,64,119,0
2,69,113,0
2,41,119,0
2,53,107,0
2,70,107,0
2,50,93,0
2,67,107,0
2,46,72,0
2,64,113,0
2,43,85,0
2,60,102,0
2,40,80,0
2,58,107,96
2,38,98,0
2,55,107,0
2,34,107,0
2,52,127,96
2,31,113,0
2,48,102,96
2,28,113,0
2,57,113,96
2,33,107,0
2,53,57,36864
2,62,57,0
2,46,113,0
2,58,107,0
2,54,54,0
2,62,50,0
2,60,55,0
2,57,102,0
2,50,93,0
2,57,68,0
2,60,75,0
2,66,91,0
2,62,76,0
2,58,76,0
2,53,49,0
2,62,50,0
2,58,98,0
2,65,64,0
2,68,76,0
2,74,80,0
2,70,68,0
2,67,85,0
2,51,93,0
2,70,59,0
2,67,90,0
2,79,85,0
2,70,74,0
2,63,98,0
2,67,68,0
2,75,60,0
2,71,76,0
2,77,80,0
2,62,102,0
2,71,72,0
2,71,76,0
2,74,72,0
2,75,72,0
2,60,89,0
2,72,68,0
2,67,47,0
2,75,55,0
2,58,85,0
2,61,68,384
2,58,56,0
2,61,64,0
2,63,73,0
2,58,77,0
2,63,72,0
2,57,93,0
2,57,67,0
2,60,63,0
2,63,65,0
2,60,71,0
2,63,77,0
2,66,87,0
2,69,90,0
2,66,85,12
2,62,80,4
2,63,77,4
2,60,74,0
2,57,69,0
2,54,67,0
2,62,89,0
2,55,80,0
2,50,89,0
2,58,64,4
2,62,72,0
2,58,76,0
2,62,77,128
2,65,77,0
2,57,69,0
2,60,85,0
2,55,68,0
2,61,64,0
2,63,80,0
2,58,98,0
2,58,59,480
2,62,68,96
2,58,62,64
2,65,72,0
2,62,72,96
2,70,82,0
2,62,86,80
2,67,86,72
2,58,89,0
2,46,98,0
2,63,74,186
2,58,69,80
2,63,78,0
2,67,90,0
2,63,74,0
2,67,95,88
2,58,99,0
2,63,94,96
2,63,82,24
2,62,86,0
2,58,89,0
2,46,89,0
2,65,76,96
2,70,86,72
2,65,70,72
2,70,86,80
2,74,80,0
2,77,77,0
2,70,66,0
2,74,66,48
2,70,58,32
2,65,47,12
2,70,62,32
2,74,75,0
2,67,89,0
2,58,85,0
2,46,89,0
2,70,76,96
2,79,96,88
2,67,89,88
2,70,82,0
2,75,78,96
2,75,72,24
2,70,70,48
2,67,82,22
2,70,72,0
2,75,62,0
2,79,76,0
2,75,76,0
2,77,62,0
2,58,85,0
2,46,80,0
2,72,68,96
2,69,76,0
2,72,72,0
2,69,72,0
2,65,68,0
2,60,62,0
2,57,62,0
2,60,76,0
2,57,80,0
2,53,85,0
2,34,85,0
2,46,89,0
2,63,76,0
2,58,72,0
2,55,72,0
2,67,68,0
2,58,59,0
2,55,68,0
2,63,62,0
2,58,57,0
2,55,72,0
2,63,64,0
2,58,76,0
2,55,85,0
2,34,98,0
2,46,102,0
2,58,72,0
2,62,72,0
2,53,72,0
2,50,76,0
2,53,85,0
2,58,89,0
2,50,92,0
2,53,89,0
2,58,89,0
2,50,84,0
2,53,85,0
2,58,85,0
2,53,85,0
2,62,85,0
2,53,76,0
2,58,85,0
2,53,93,0
2,47,108,0
2,35,108,0
2,59,72,0
2,55,72,0
2,62,72,0
2,59,89,0
2,55,92,0
2,59,93,0
2,62,89,0
2,65,89,0
2,59,85,0
2,62,89,0
2,65,93,0
2,71,95,0
2,62,89,0
2,67,85,0
2,65,89,0
2,36,111,0
2,48,107,0
2,60,85,0
2,63,85,0
2,55,85,0
2,60,80,0
2,63,76,0
2,67,81,0
2,63,86,0
2,60,90,0
2,63,86,0
2,67,85,0
2,63,84,0
2,60,80,0
2,63,76,0
2,60,89,0
2,60,85,0
2,63,85,0
2,60,89,0
2,56,86,0
2,36,111,0
2,48,107,0
2,60,89,0
2,56,89,0
2,63,81,0
2,60,76,0
2,63,72,0
2,60,72,0
2,63,78,0
2,66,80,0
2,63,80,0
2,60,84,0
2,63,81,0
2,60,88,0
2,56,86,0
2,63,88,0
2,61,74,0
2,37,111,0
2,49,107,0
2,56,74,0
2,61,83,0
2,64,92,0
2,56,80,0
2,61,88,0
2,64,97,0
2,56,84,0
2,61,96,0
2,64,101,0
2,56,89,0
2,61,92,0
2,64,101,0
2,56,93,0
2,61,101,0
2,64,109,0
2,64,102,0
2,37,111,0
2,49,111,0
2,76,102,0
2,69,113,0
2,64,102,0
2,76,102,0
2,69,113,0
2,64,113,0
2,37,111,0
2,76,107,0
2,69,107,0
2,64,107,0
2,76,107,0
2,69,107,0
2,64,102,0
2,37,111,0
2,76,102,0
2,69,113,92
2,64,113,4
2,61,107,0
2,49,110,0
2,37,116,0
2,68,107,96
2,73,102,84
2,76,102,84
2,73,107,82
2,68,107,80
2,61,107,0
2,37,123,0
2,49,119,0
2,56,102,92
2,61,107,84
2,64,102,88
2,68,107,76
2,73,107,84
2,76,93,0
2,37,117,0
2,49,125,0
2,73,113,96
2,68,113,82
2,69,127,0
2,37,127,0
2,49,127,0
2,73,113,76
2,76,113,0
2,73,119,96
2,76,119,0
2,69,127,0
2,49,127,0
2,37,121,0
2,67,127,86
2,67,127,0
2,64,113,96
2,76,127,0
2,69,127,96
2,64,119,92
2,62,127,0
2,53,127,0
2,77,119,0
2,50,123,0
2,38,118,0
2,57,127,0
2,69,113,0
2,65,110,0
2,76,119,0
2,69,113,0
2,65,107,0
2,77,127,0
2,69,114,0
2,65,105,0
2,76,119,96
2,69,113,72
2,65,102,56
2,74,119,80
2,69,111,80
2,65,98,80
2,72,119,80
2,69,113,0
2,65,107,72
2,72,107,80
2,69,102,80
2,70,89,0
2,55,76,0
2,43,89,0
2,62,85,96
2,67,87,88
2,70,93,88
2,74,98,0
2,70,95,0
2,70,93,24
2,67,85,0
2,62,77,0
2,70,80,0
2,55,80,0
2,43,89,0
2,67,76,0
2,63,62,0
2,67,77,0
2,75,89,0
2,70,89,0
2,67,80,0
2,63,70,0
2,72,72,0
2,56,72,0
2,44,85,0
2,60,62,96
2,63,74,88
2,68,76,88
2,63,80,88
2,68,85,40
2,63,89,32
2,60,93,32
2,63,93,40
2,68,93,80
2,65,89,0
2,49,93,0
2,68,72,88
2,77,78,0
2,72,85,96
2,68,71,0
2,72,71,0
2,68,63,0
2,65,59,0
2,68,71,0
2,72,76,96
2,74,76,0
2,45,93,0
2,64,72,96
2,67,89,82
2,69,96,80
2,67,76,80
2,69,92,80
2,73,97,0
2,57,93,0
2,67,72,80
2,69,89,88
2,74,105,80
2,67,76,88
2,69,90,88
2,76,111,80
2,67,80,88
2,69,89,88
2,65,98,88
2,50,89,72
2,77,118,0
2,69,94,96
2,65,104,80
2,76,116,88
2,69,89,88
2,65,102,0
2,74,116,0
2,69,85,0
