track,note,velocity,time
1,74,74,4
1,67,62,16
1,71,73,0
1,74,85,48
1,79,102,84
1,74,69,20
1,71,85,192
1,67,72,32
1,78,79,48
1,69,65,64
1,74,88,152
1,78,85,72
1,81,101,84
1,78,71,36
1,74,77,192
1,69,73,0
1,76,94,8
1,67,74,12
1,72,90,184
1,76,77,44
1,79,96,8
1,76,72,8
1,72,77,192
1,67,76,24
1,78,83,20
1,69,69,88
1,74,81,156
1,78,81,4
1,81,96,0
1,78,71,136
1,74,72,180
1,69,68,160
1,74,98,4
1,67,60,12
1,71,72,168
1,74,83,120
1,79,99,184
1,74,85,52
1,71,87,184
1,67,77,32
1,78,83,4
1,69,72,112
1,74,88,176
1,78,81,12
1,81,94,40
1,78,62,132
1,74,79,40
1,69,70,8
1,76,89,8
1,67,69,40
1,72,91,192
1,76,78,56
1,79,99,24
1,76,74,32
1,72,81,12
1,67,70,4
1,78,78,64
1,69,69,108
1,74,85,160
1,78,78,152
1,81,94,16
1,78,71,112
1,74,73,168
1,69,65,20
1,67,68,84
1,55,72,76
1,59,87,160
1,67,101,112
1,55,74,68
1,59,68,84
1,67,94,104
1,55,73,184
1,59,81,68
1,67,99,116
1,55,74,120
1,62,78,120
1,67,99,52
1,55,77,52
1,59,77,104
1,67,84,96
1,64,106,56
1,57,72,152
1,61,71,136
1,67,96,16
1,57,67,48
1,61,78,120
1,64,85,40
1,57,74,16
1,67,95,52
1,57,61,164
1,64,88,124
1,67,92,32
1,57,70,16
1,64,84,96
1,67,88,72
1,57,70,4
1,60,84,20
1,67,80,20
1,57,79,164
1,60,90,128
1,67,101,84
1,57,77,140
1,64,92,108
1,57,98,180
1,60,80,112
1,64,79,24
1,57,69,28
1,60,90,192
1,63,91,24
1,55,71,172
1,60,84,132
1,63,93,20
1,62,90,72
1,55,69,24
1,59,74,184
1,67,95,132
1,55,72,148
1,59,64,20
1,67,89,40
1,55,77,168
1,67,98,92
1,55,82,52
1,59,85,132
1,62,88,52
1,66,88,12
1,54,79,168
1,59,73,4
1,66,91,24
1,64,90,28
1,55,74,192
1,59,77,8
1,67,99,92
1,55,87,88
1,59,65,12
1,64,87,40
1,55,83,8
1,67,94,132
1,55,73,76
1,59,84,124
1,67,102,44
1,55,84,140
1,59,82,52
1,62,80,192
1,55,92,140
1,67,88,44
1,57,65,192
1,61,72,48
1,67,95,0
1,57,77,160
1,61,71,40
1,67,94,144
1,57,78,84
1,61,88,92
1,64,89,160
1,67,74,28
1,57,77,192
1,61,89,148
1,67,102,68
1,57,75,36
1,61,74,92
1,66,101,68
1,57,69,156
1,61,59,128
1,66,83,24
1,57,79,124
1,61,83,120
1,66,99,20
1,57,77,192
1,66,99,24
1,55,84,12
1,59,82,188
1,66,99,80
1,55,76,160
1,59,83,144
1,66,97,104
1,55,89,136
1,64,83,56
1,55,56,192
1,59,89,124
1,64,106,40
1,55,72,148
1,59,78,124
1,64,99,4
1,55,80,192
1,62,90,36
1,57,74,56
1,62,82,172
1,67,76,164
1,57,84,132
1,62,78,92
1,67,96,4
1,57,74,184
1,62,95,56
1,55,65,12
1,59,80,180
1,79,70,8
1,67,90,132
1,83,73,8
1,55,81,128
1,59,81,60
1,74,69,4
1,67,98,136
1,79,74,0
1,55,79,180
1,83,80,0
1,59,95,64
1,67,98,96
1,55,79,92
1,59,73,96
1,67,77,16
1,62,87,4
1,55,82,192
1,59,80,48
1,64,101,8
1,55,83,188
1,61,52,40
1,64,98,116
1,55,64,152
1,57,78,140
1,61,99,8
1,64,94,0
1,55,77,156
1,61,81,124
1,64,85,56
1,57,63,180
1,61,76,176
1,67,101,8
1,57,72,192
1,61,67,120
1,67,96,40
1,57,70,192
1,60,73,12
1,67,87,12
1,57,69,100
1,60,79,32
1,64,104,12
1,57,68,12
1,63,103,12
1,55,74,184
1,60,84,128
1,63,117,96
1,55,64,172
1,60,62,84
1,63,89,28
1,55,70,148
1,62,90,8
1,55,68,168
1,59,81,60
1,67,88,136
1,55,87,164
1,59,84,80
1,67,98,20
1,55,85,76
1,67,99,112
1,55,90,84
1,59,92,144
1,67,101,140
1,66,108,128
1,54,95,160
1,59,70,96
1,66,95,8
1,64,98,20
1,55,76,192
1,59,84,128
1,67,102,140
1,55,85,116
1,59,77,48
1,64,101,4
1,55,84,28
1,62,99,80
1,55,78,164
1,59,79,88
1,67,102,128
1,55,90,144
1,59,69,68
1,62,84,24
1,55,83,128
1,67,96,36
1,57,74,192
1,61,81,4
1,67,102,8
1,57,70,180
1,85,95,8
1,61,76,108
1,86,102,4
1,67,94,52
1,88,102,0
1,57,73,16
1,86,101,0
1,61,88,4
1,85,85,0
1,64,95,4
1,83,74,0
1,67,90,4
1,81,95,0
1,57,74,192
1,79,89,0
1,81,98,24
1,61,81,52
1,79,78,8
1,81,80,28
1,79,69,20
1,67,110,40
1,81,84,20
1,79,81,16
1,57,75,16
1,81,74,4
1,79,78,32
1,78,81,20
1,61,74,8
1,79,79,8
1,78,89,60
1,66,97,4
1,57,68,148
1,61,58,108
1,66,101,128
1,57,61,156
1,61,75,8
1,66,99,60
1,57,57,16
1,66,101,40
1,55,79,192
1,59,79,148
1,66,99,8
1,55,77,184
1,59,87,48
1,66,101,44
1,55,81,8
1,64,96,24
1,55,69,192
1,59,87,88
1,64,104,4
1,55,61,176
1,59,81,48
1,64,104,20
1,55,68,148
1,59,82,124
1,64,98,4
1,55,68,188
1,59,88,20
1,64,110,84
1,55,70,164
1,59,85,160
1,64,101,76
1,66,106,100
1,57,75,100
1,59,89,12
1,66,93,172
1,57,70,140
1,59,78,20
1,66,99,48
1,57,62,188
1,64,99,16
1,55,72,192
1,59,79,52
1,64,96,124
1,62,91,32
1,55,73,180
1,59,85,16
1,62,91,52
1,64,108,8
1,55,72,192
1,59,72,64
1,64,98,52
1,55,70,16
1,59,77,152
1,64,102,124
1,55,81,36
1,62,98,20
1,57,68,24
1,62,84,24
1,67,96,28
1,57,88,36
1,62,85,28
1,66,103,120
1,57,70,48
1,74,74,4
1,67,62,16
1,71,73,0
1,74,85,48
1,79,102,84
1,74,69,20
1,71,85,192
1,67,72,32
1,78,79,48
1,69,65,64
1,74,88,152
1,78,85,72
1,81,101,84
1,78,71,36
1,74,77,192
1,69,73,0
1,76,94,8
1,67,74,12
1,72,90,184
1,76,77,44
1,79,96,8
1,76,72,8
1,72,77,192
1,67,76,24
1,78,83,20
1,69,69,88
1,74,81,156
1,78,81,4
1,81,96,0
1,78,71,136
1,74,72,180
1,69,68,160
1,74,98,4
1,67,60,12
1,71,72,168
1,74,83,120
1,79,99,184
1,74,85,52
1,71,87,184
1,67,77,32
1,78,83,4
1,69,72,112
1,74,88,176
1,78,81,12
1,81,94,40
1,78,62,132
1,74,79,40
1,69,70,8
1,76,89,8
1,67,69,40
1,72,91,192
1,76,78,56
1,79,99,24
1,76,74,32
1,72,81,12
1,67,70,4
1,78,78,64
1,69,69,108
1,74,85,160
1,78,78,152
1,81,94,16
1,78,71,112
1,74,73,168
1,69,65,20
1,67,66,84
1,55,58,112
1,59,66,148
1,67,102,84
1,55,67,96
1,62,77,36
1,67,95,36
1,55,65,4
1,59,77,192
1,67,98,20
1,55,64,32
1,62,82,16
1,67,94,48
1,55,62,192
1,59,83,180
1,67,90,16
1,64,101,40
1,55,83,188
1,61,52,40
1,64,98,116
1,55,64,152
1,57,78,140
1,61,99,8
1,64,94,0
1,55,77,156
1,61,81,124
1,64,85,56
1,57,63,180
1,61,76,176
1,67,101,8
1,57,72,192
1,61,67,120
1,67,96,40
1,57,70,192
1,60,73,12
1,67,87,12
1,57,69,100
1,60,79,32
1,64,104,12
1,57,68,12
1,63,103,12
1,55,74,184
1,60,84,128
1,63,117,96
1,55,64,172
1,60,62,84
1,63,89,28
1,55,70,148
1,62,90,8
1,55,68,168
1,59,81,60
1,67,88,136
1,55,87,164
1,59,84,80
1,67,98,20
1,55,85,76
1,67,99,112
1,55,90,84
1,59,92,144
1,67,101,140
1,66,108,128
1,54,95,160
1,59,70,96
1,66,95,8
1,64,98,20
1,55,76,192
1,59,84,128
1,67,102,140
1,55,85,116
1,59,77,48
1,64,101,4
1,55,84,28
1,62,99,80
1,55,78,164
1,59,79,88
1,67,102,128
1,55,90,144
1,59,69,68
1,62,84,24
1,55,83,128
1,67,96,36
1,57,74,192
1,61,81,4
1,67,102,8
1,57,70,180
1,85,91,8
1,61,76,108
1,86,95,0
1,67,94,4
1,88,96,0
1,57,73,184
1,86,96,0
1,61,88,4
1,85,93,4
1,64,95,0
1,83,74,0
1,67,90,8
1,81,92,0
1,57,74,12
1,79,84,0
1,81,87,20
1,79,77,4
1,61,81,8
1,81,70,40
1,79,71,4
1,67,110,56
1,81,84,24
1,79,77,8
1,57,75,16
1,81,80,8
1,79,74,4
1,81,84,0
1,61,74,64
1,79,77,4
1,78,81,0
1,79,78,48
1,66,97,12
1,78,76,28
1,57,68,104
1,61,58,108
1,66,101,36
1,57,61,156
1,61,75,8
1,66,99,60
1,57,57,16
1,66,101,40
1,55,79,192
1,59,79,148
1,66,99,8
1,55,77,184
1,59,87,48
1,66,101,44
1,55,81,8
1,64,96,24
1,55,69,192
1,59,87,88
1,64,104,4
1,55,61,176
1,59,81,48
1,64,104,20
1,55,68,148
1,59,82,124
1,64,98,4
1,55,68,188
1,59,88,20
1,64,110,84
1,55,70,164
1,59,85,160
1,64,101,76
1,66,106,100
1,57,75,100
1,59,89,12
1,66,93,172
1,57,70,140
1,59,78,20
1,66,99,48
1,57,62,188
1,64,99,16
1,55,72,192
1,59,79,52
1,64,96,124
1,62,91,32
1,55,73,180
1,59,85,16
1,62,91,52
1,64,108,8
1,55,72,192
1,59,72,64
1,64,98,52
1,55,70,16
1,59,77,152
1,64,102,124
1,55,81,36
1,62,98,20
1,57,68,24
1,62,84,24
1,67,96,28
1,57,88,36
1,62,85,28
1,66,103,120
1,57,70,48
1,74,74,4
1,67,62,16
1,71,73,0
1,74,85,48
1,79,102,84
1,74,69,20
1,71,85,192
1,67,72,32
1,78,79,48
1,69,65,64
1,74,88,152
1,78,85,72
1,81,101,84
1,78,71,36
1,74,77,192
1,69,73,0
1,76,94,8
1,67,74,12
1,72,90,184
1,76,77,44
1,79,96,8
1,76,72,8
1,72,77,192
1,67,76,24
1,78,83,20
1,69,69,88
1,74,81,156
1,78,81,4
1,81,96,0
1,78,71,136
1,74,72,180
1,69,68,160
1,74,98,4
1,67,60,12
1,71,72,168
1,74,83,120
1,79,99,184
1,74,85,52
1,71,87,184
1,67,77,32
1,78,83,4
1,69,72,112
1,74,88,176
1,78,81,12
1,81,94,40
1,78,62,132
1,74,79,40
1,69,70,8
1,76,89,8
1,67,69,40
1,72,91,192
1,76,78,56
1,79,99,24
1,76,74,32
1,72,81,12
1,67,70,4
1,78,78,64
1,69,69,108
1,74,85,160
1,78,78,152
1,81,94,16
1,78,71,112
1,74,73,168
1,69,65,20
1,60,84,84
1,62,82,0
1,67,77,0
1,59,81,24
1,83,84,756
1,84,80,192
1,83,77,0
1,81,80,188
1,83,73,8
1,81,80,100
1,83,74,0
2,31,88,1116
2,55,86,4
2,55,82,12
2,55,83,8
2,50,92,96
2,31,84,8
2,43,81,764
2,43,78,12
2,43,78,4
2,43,83,4
2,50,80,948
2,55,91,384
2,55,90,68
2,54,85,208
2,52,86,20
2,52,84,96
2,50,86,200
2,49,83,8
2,57,90,4
2,49,83,528
2,48,89,752
2,57,87,0
2,48,91,20
2,47,85,0
2,55,93,76
2,55,88,24
2,54,92,20
2,52,88,40
2,47,88,1160
2,50,87,16
2,49,89,60
2,45,90,4
2,37,84,16
2,38,86,52
2,43,88,1532
2,36,88,8
2,38,85,4
2,50,92,1140
2,55,87,8
2,54,84,8
2,52,85,24
2,50,85,16
2,49,84,772
2,57,86,44
2,49,85,4
2,48,90,764
2,57,90,12
2,48,86,664
2,47,85,8
2,55,93,48
2,55,89,48
2,54,91,20
2,52,89,24
2,47,95,1160
2,50,87,0
2,50,82,12
2,49,85,16
2,45,84,16
2,37,88,32
2,37,86,4
2,45,86,368
2,38,86,368
2,38,83,64
2,38,85,56
2,31,83,8
2,31,83,52
2,38,90,196
2,36,85,752
2,36,87,24
2,36,87,68
2,43,85,572
2,48,87,24
2,47,88,200
2,43,86,184
2,36,86,8
2,35,90,108
2,35,75,40
2,38,86,584
2,40,86,0
2,38,89,8
2,36,92,36
2,36,83,72
2,36,88,64
2,38,88,24
2,38,83,60
2,42,90,204
2,43,90,8
2,43,89,72
2,43,84,80
2,43,90,68
2,31,86,24
2,43,88,4
2,43,89,96
2,43,86,88
2,43,86,288
2,55,91,160
2,54,86,776
2,52,87,12
2,50,88,12
2,49,89,760
2,57,89,40
2,49,86,0
2,48,90,4
2,57,90,8
2,48,89,12
2,47,89,4
2,55,96,48
2,54,87,44
2,52,87,28
2,47,89,4
2,50,88,12
2,49,88,1448
2,45,91,16
2,37,82,4
2,38,95,36
2,45,85,1148
2,43,90,372
2,36,83,16
2,43,82,1328
2,48,84,156
2,48,86,84
2,43,85,388
2,36,88,544
2,35,85,196
2,35,90,100
2,40,90,200
2,38,86,16
2,36,86,20
2,38,88,88
2,42,86,780
2,43,92,104
2,43,85,92
2,43,86,72
2,43,85,84
2,43,80,208
2,31,85,28
2,43,88,32
2,43,87,52
2,31,85,60
2,43,82,8
2,31,84,760
3,67,79,7228
3,62,78,0
3,71,74,0
3,62,63,20
3,66,81,0
3,69,84,0
3,66,66,28
3,69,74,0
3,62,65,4
3,60,67,8
3,67,70,4
3,64,65,0
3,64,59,28
3,67,75,20
3,64,67,0
3,62,72,0
3,69,74,8
3,62,55,24
3,59,58,0
3,67,59,0
3,59,70,6896
3,55,64,0
3,67,77,0
3,62,67,16
3,67,78,4
3,71,77,0
3,69,74,8
3,66,75,0
3,67,65,16
3,62,50,0
3,59,72,4
3,64,69,0
3,61,76,12
3,54,71,1504
3,61,75,4
3,57,69,0
3,66,85,0
3,55,75,4
3,59,78,8
3,66,76,0
3,62,74,20
3,59,67,1296
3,55,62,0
3,64,77,4
3,60,74,0
3,57,66,4
3,67,73,4
3,62,74,0
3,60,77,4
3,66,78,4
3,59,60,0
3,62,61,0
3,67,65,0
3,55,53,4
3,61,49,0
3,64,64,4
3,60,71,144
3,64,71,4
3,63,56,1532
3,59,60,12
3,67,69,0
3,55,62,0
3,67,80,28
3,71,84,0
3,62,69,0
3,69,77,0
3,66,83,0
3,67,74,12
3,59,80,0
3,64,67,4
3,61,64,12
3,61,71,1508
3,54,61,0
3,57,68,0
3,66,75,0
3,55,55,0
3,59,55,8
3,62,67,12
3,67,54,4
3,60,64,4
3,64,59,0
3,66,57,4
3,62,62,0
3,57,60,8
3,59,67,4
3,64,63,16
3,67,67,0
3,67,67,0
3,64,63,0
3,59,67,0
3,60,68,0
3,62,60,1540
3,57,62,0
3,66,75,748
3,62,58,8
3,67,65,0
3,59,39,4
3,67,80,4572
3,71,86,0
3,66,68,0
3,69,73,12
3,64,78,12
3,67,70,0
3,66,61,4
3,69,71,4
3,59,67,8
3,62,70,8
3,67,74,4
3,55,60,7648
3,59,66,0
3,67,91,8
3,62,89,8
3,71,102,0
3,67,94,0
3,69,80,4
3,66,78,0
3,67,89,12
3,62,74,0
3,64,85,0
3,59,66,4
3,61,61,8
3,54,47,176
3,66,68,0
3,61,61,0
3,57,61,0
3,62,60,0
3,59,48,0
3,55,62,0
3,60,58,0
3,64,67,0
3,67,67,4
3,66,65,8
3,62,62,4
3,57,55,0
3,67,54,44
3,64,69,8
3,59,78,0
3,66,68,768
3,60,94,32
3,64,57,4
3,55,51,4
3,62,67,16
3,60,67,0
3,67,67,0
3,57,59,4
3,66,71,20
3,67,60,4
3,62,57,0
3,59,53,0
3,67,68,5292
3,71,74,0
3,62,74,4
3,66,64,8
3,69,64,0
3,67,71,4
3,64,56,4
3,66,52,28
3,69,64,8
3,67,74,48
3,62,47,0
3,60,55,0
3,59,55,12
4,67,95,13356
