track,note,velocity,time
1,51,81,20328
1,35,96,0
1,42,72,190
1,42,87,190
1,37,93,0
1,54,116,0
1,42,73,190
1,35,68,0
1,35,98,190
1,42,86,0
1,42,62,190
1,37,106,190
1,42,100,0
1,54,122,0
1,42,54,190
1,42,87,190
1,35,96,0
1,42,56,190
1,42,109,190
1,37,101,0
1,54,120,0
1,42,76,190
1,35,67,0
1,42,88,190
1,35,98,0
1,42,67,190
1,37,109,190
1,42,97,0
1,54,120,0
1,42,72,190
1,35,100,190
1,42,78,0
1,42,74,190
1,37,112,190
1,42,103,0
1,54,118,0
1,42,69,190
1,35,65,0
1,35,100,190
1,42,84,0
1,42,73,190
1,37,106,190
1,42,86,0
1,54,120,0
1,42,70,190
1,35,92,190
1,42,81,0
1,42,65,190
1,37,111,190
1,42,90,0
1,54,118,0
1,42,76,190
1,35,74,0
1,35,104,190
1,42,89,0
1,42,69,190
1,37,111,190
1,42,94,0
1,54,116,0
1,42,71,190
1,35,98,190
1,42,89,0
1,42,61,190
1,42,81,190
1,37,104,0
1,54,116,0
1,35,79,190
1,42,78,0
1,35,90,190
1,46,82,0
1,40,69,190
1,40,110,190
1,54,122,0
1,45,89,94
1,41,106,94
1,51,97,190
1,35,110,0
1,51,75,190
1,40,106,190
1,51,103,0
1,54,120,0
1,35,104,190
1,51,82,0
1,51,86,190
1,35,99,0
1,51,76,190
1,51,106,190
1,40,113,0
1,54,120,0
1,51,76,190
1,35,108,190
1,51,84,0
1,51,73,190
1,51,103,190
1,40,119,0
1,54,118,0
1,35,76,190
1,51,71,0
1,35,126,190
1,51,85,0
1,51,74,190
1,40,124,190
1,51,104,0
1,54,120,0
1,51,72,190
1,51,89,190
1,35,105,0
1,51,74,190
1,40,115,190
1,51,95,0
1,54,118,0
1,51,81,190
1,35,77,0
1,51,106,190
1,35,104,0
1,40,51,190
1,51,74,0
1,40,101,190
1,54,116,0
1,48,88,94
1,41,93,94
1,35,108,190
1,51,97,0
1,51,69,190
1,51,100,190
1,40,106,0
1,54,116,0
1,51,74,190
1,35,75,0
1,51,97,190
1,35,104,0
1,51,74,190
1,40,112,190
1,51,111,0
1,54,122,0
1,51,74,190
1,35,108,190
1,51,89,0
1,51,74,190
1,51,101,190
1,40,112,0
1,54,120,0
1,51,74,190
1,35,74,0
1,35,102,190
1,51,103,0
1,51,69,190
1,40,110,190
1,51,97,0
1,54,120,0
1,51,69,190
1,49,78,190
1,35,98,0
1,51,78,190
1,51,106,190
1,40,110,0
1,54,118,0
1,51,72,190
1,35,75,0
1,35,109,190
1,51,101,0
1,51,76,190
1,40,119,190
1,51,109,0
1,54,120,0
1,51,70,190
1,51,99,190
1,35,95,0
1,51,67,190
1,51,104,190
1,40,108,0
1,54,118,0
1,35,73,190
1,51,72,0
1,35,105,190
1,51,97,0
1,51,74,190
1,51,106,190
1,40,117,0
1,54,116,0
1,51,77,190
1,35,108,190
1,51,97,0
1,51,69,190
1,51,100,190
1,40,106,0
1,54,116,0
1,51,74,190
1,35,75,0
1,51,97,190
1,35,104,0
1,51,74,190
1,40,112,190
1,51,111,0
1,54,122,0
1,51,74,190
1,35,108,190
1,51,89,0
1,51,74,190
1,51,101,190
1,40,112,0
1,54,120,0
1,51,74,190
1,35,74,0
1,35,102,190
1,51,103,0
1,51,69,190
1,40,110,190
1,51,97,0
1,54,120,0
1,51,69,190
1,49,78,190
1,35,98,0
1,51,78,190
1,51,106,190
1,40,110,0
1,54,118,0
1,51,72,190
1,35,75,0
1,51,81,190
1,35,96,0
1,42,72,190
1,42,87,190
1,37,93,0
1,54,116,0
1,42,73,190
1,35,68,0
1,35,98,190
1,42,86,0
1,42,62,190
1,37,106,190
1,42,100,0
1,54,122,0
1,42,54,190
1,42,87,190
1,35,96,0
1,42,56,190
1,42,109,190
1,37,101,0
1,54,120,0
1,42,76,190
1,35,67,0
1,42,88,190
1,35,98,0
1,42,67,190
1,37,109,190
1,42,97,0
1,54,120,0
1,42,72,190
1,35,100,190
1,42,78,0
1,42,74,190
1,37,112,190
1,42,103,0
1,54,118,0
1,42,69,190
1,35,65,0
1,35,100,190
1,42,84,0
1,42,73,190
1,37,106,190
1,42,86,0
1,54,120,0
1,42,70,190
1,35,92,190
1,42,81,0
1,42,65,190
1,37,111,190
1,42,90,0
1,54,118,0
1,42,76,190
1,35,74,0
1,35,104,190
1,42,89,0
1,42,69,190
1,37,111,190
1,42,94,0
1,54,116,0
1,42,71,190
1,35,98,190
1,42,89,0
1,42,61,190
1,42,81,190
1,37,104,0
1,54,116,0
1,35,79,190
1,42,78,0
1,35,90,190
1,46,82,0
1,40,69,190
1,40,110,190
1,54,122,0
1,45,89,94
1,41,106,94
1,51,97,190
1,35,110,0
1,51,75,190
1,40,106,190
1,51,103,0
1,54,116,0
1,35,104,190
1,51,82,0
1,51,86,190
1,35,99,0
1,51,76,190
1,51,106,190
1,40,113,0
1,54,122,0
1,51,76,190
1,35,108,190
1,51,84,0
1,51,73,190
1,51,103,190
1,40,119,0
1,54,120,0
1,35,76,190
1,51,71,0
1,35,126,190
1,51,85,0
1,51,74,190
1,40,124,190
1,51,104,0
1,54,120,0
1,51,72,190
1,51,89,190
1,35,105,0
1,51,74,190
1,40,115,190
1,51,95,0
1,54,118,0
1,51,81,190
1,35,77,0
1,51,106,190
1,35,104,0
1,40,51,190
1,51,74,0
1,40,101,190
1,54,120,0
1,48,88,94
1,41,93,94
1,35,108,190
1,51,97,0
1,51,69,190
1,51,100,190
1,40,106,0
1,54,116,0
1,51,74,190
1,35,75,0
1,51,97,190
1,35,104,0
1,51,74,190
1,40,112,190
1,51,111,0
1,54,122,0
1,51,74,190
1,35,108,190
1,51,89,0
1,51,74,190
1,51,101,190
1,40,112,0
1,54,120,0
1,51,74,190
1,35,74,0
1,35,102,190
1,51,103,0
1,51,69,190
1,40,110,190
1,51,97,0
1,54,120,0
1,51,69,190
1,49,78,190
1,35,98,0
1,51,78,190
1,51,106,190
1,40,110,0
1,54,118,0
1,51,72,190
1,35,75,0
1,35,109,190
1,51,101,0
1,51,76,190
1,40,119,190
1,51,109,0
1,54,120,0
1,51,70,190
1,35,110,190
1,51,86,0
1,51,63,190
1,51,89,190
1,40,106,0
1,54,118,0
1,35,86,190
1,51,72,0
1,35,112,190
1,51,112,0
1,40,124,190
1,35,90,190
1,54,116,0
1,45,112,94
1,41,117,94
1,35,108,190
1,49,97,0
1,51,69,190
1,51,100,190
1,40,106,0
1,54,116,0
1,51,74,190
1,35,75,0
1,51,97,190
1,35,104,0
1,51,74,190
1,40,112,190
1,51,111,0
1,54,122,0
1,51,74,190
1,35,108,190
1,51,89,0
1,51,74,190
1,51,101,190
1,40,112,0
1,54,120,0
1,51,74,190
1,35,74,0
1,35,102,190
1,51,103,0
1,51,69,190
1,40,110,190
1,51,97,0
1,54,120,0
1,51,69,190
1,35,108,190
1,51,89,0
1,51,74,190
1,51,101,190
1,40,112,0
1,54,118,0
1,51,74,190
1,35,74,0
1,35,102,190
1,51,103,0
1,51,69,190
1,40,110,190
1,51,97,0
1,54,116,0
1,51,69,190
1,35,102,190
1,51,103,0
1,51,69,190
1,40,110,190
1,51,97,0
1,54,122,0
1,51,69,190
1,51,86,190
1,35,101,0
1,42,86,382
1,37,89,0
1,54,120,0
1,35,77,190
1,42,68,0
1,35,92,190
1,42,77,0
1,42,72,190
1,45,90,190
1,54,120,0
1,45,71,94
1,45,93,94
1,45,106,94
1,42,86,94
1,35,90,0
1,42,58,190
1,42,99,190
1,37,106,0
1,54,118,0
1,35,62,190
1,42,64,0
1,42,90,190
1,35,97,0
1,42,67,190
1,42,89,190
1,37,103,0
1,54,120,0
1,42,72,190
1,42,86,190
1,35,104,0
1,42,71,190
1,37,96,190
1,42,95,0
1,54,118,0
1,35,72,190
1,42,71,0
1,35,108,190
1,42,81,0
1,42,74,190
1,45,75,190
1,54,116,0
1,45,76,94
1,45,109,94
1,45,105,94
1,42,81,94
1,35,97,0
1,42,74,190
1,37,101,190
1,42,78,0
1,54,116,0
1,42,27,190
1,35,79,0
1,35,100,190
1,48,109,190
1,48,105,286
1,45,106,30
1,41,107,62
1,48,110,190
1,48,97,94
1,45,110,190
1,45,102,94
1,45,110,94
1,41,110,94
1,49,101,190
1,42,69,190
1,37,116,190
1,42,91,0
1,54,116,0
1,35,102,190
1,42,88,0
1,35,119,190
1,42,101,0
1,42,78,190
1,42,111,190
1,37,114,0
1,54,122,0
1,42,87,190
1,35,84,0
1,42,109,190
1,35,120,0
1,42,76,190
1,42,107,190
1,37,114,0
1,54,120,0
1,42,73,190
1,35,85,0
1,35,120,190
1,42,109,0
1,42,72,190
1,42,114,190
1,37,112,0
1,54,120,0
1,35,92,190
1,42,76,0
1,35,117,190
1,42,103,0
1,42,77,190
1,42,120,190
1,37,116,0
1,54,118,0
1,35,96,190
1,42,81,0
1,35,120,190
1,42,95,0
1,42,72,190
1,42,107,190
1,37,118,0
1,54,120,0
1,42,84,190
1,35,94,0
1,35,119,190
1,42,104,0
1,42,74,190
1,37,118,190
1,42,116,0
1,54,118,0
1,42,81,190
1,35,91,0
1,35,108,190
1,42,112,0
1,40,105,190
1,54,116,190
1,40,124,94
1,45,124,94
1,35,126,190
1,49,104,0
1,37,114,382
1,42,103,0
1,54,116,0
1,35,84,190
1,35,112,190
1,42,107,0
1,42,72,190
1,37,120,190
1,42,120,0
1,54,122,0
1,42,81,190
1,35,106,190
1,42,103,0
1,42,76,190
1,42,112,190
1,37,118,0
1,54,120,0
1,42,80,190
1,35,95,0
1,35,109,190
1,42,93,0
1,42,76,190
1,42,104,190
1,37,116,0
1,54,120,0
1,42,81,190
1,35,82,0
1,42,97,190
1,35,110,0
1,42,72,190
1,37,114,190
1,42,97,0
1,54,118,0
1,42,87,190
1,35,90,0
1,42,93,190
1,35,109,0
1,42,67,190
1,37,112,190
1,42,87,0
1,54,120,0
1,42,68,190
1,35,86,0
1,49,86,190
1,35,113,0
1,35,117,382
1,49,90,0
1,54,118,0
1,49,104,382
1,35,119,0
1,40,79,94
1,40,83,94
1,40,90,94
1,40,110,94
1,54,116,0
1,45,127,94
1,41,122,94
1,35,115,190
1,49,96,0
1,54,116,0
1,54,62,94
1,35,113,94
1,51,96,0
1,54,62,0
1,54,62,94
1,40,119,94
1,51,114,0
1,54,116,0
1,54,70,94
1,51,109,94
1,54,59,0
1,35,74,94
1,54,67,0
1,35,117,94
1,51,107,0
1,54,120,0
1,54,80,94
1,35,119,94
1,51,106,0
1,54,64,0
1,54,77,94
1,40,126,94
1,51,127,0
1,54,120,0
1,54,81,94
1,51,107,94
1,54,75,0
1,35,92,94
1,54,76,0
1,35,124,94
1,51,111,0
1,54,118,0
1,54,90,94
1,51,107,94
1,35,119,0
1,54,70,0
1,54,83,94
1,51,116,94
1,40,122,0
1,54,120,0
1,54,86,94
1,51,106,94
1,54,67,0
1,35,89,94
1,54,73,0
1,51,112,94
1,35,117,0
1,54,120,0
1,54,74,94
1,35,117,94
1,51,112,0
1,54,65,0
1,54,74,94
1,40,117,94
1,51,114,0
1,54,120,0
1,54,70,94
1,51,112,94
1,54,70,0
1,35,83,94
1,54,78,0
1,35,117,94
1,49,89,0
1,54,122,0
1,54,80,94
1,35,113,94
1,51,93,0
1,54,81,0
1,54,81,94
1,40,117,94
1,51,116,0
1,54,120,0
1,54,74,94
1,51,100,94
1,54,74,0
1,35,84,94
1,54,85,0
1,35,119,94
1,51,107,0
1,54,120,0
1,54,86,94
1,51,103,94
1,35,113,0
1,54,71,0
1,54,81,94
1,40,126,94
1,51,116,0
1,54,125,0
1,54,81,94
1,51,111,94
1,54,73,0
1,35,84,94
1,54,81,0
1,35,117,94
1,49,90,0
1,54,122,0
1,54,90,94
1,35,110,94
1,51,100,0
1,54,72,0
1,54,86,94
1,40,124,94
1,51,106,0
1,54,125,0
1,54,83,94
1,51,114,94
1,54,86,0
1,35,79,94
1,54,90,0
1,35,106,94
1,51,104,0
1,54,122,0
1,40,104,94
1,54,76,0
1,40,112,94
1,54,87,0
1,35,112,94
1,46,122,0
1,54,83,0
1,54,120,94
1,40,93,94
1,54,84,0
1,40,115,94
1,54,78,0
1,40,109,94
1,54,93,0
1,35,110,94
1,49,100,0
1,54,116,0
1,54,62,94
1,51,81,94
1,35,109,0
1,54,62,0
1,54,62,94
1,51,114,94
1,40,120,0
1,54,116,0
1,54,70,94
1,51,106,94
1,54,59,0
1,35,87,94
1,54,67,0
1,51,112,94
1,35,110,0
1,54,120,0
1,54,80,94
1,51,112,94
1,35,109,0
1,54,64,0
1,54,77,94
1,51,120,94
1,40,127,0
1,54,120,0
1,54,81,94
1,51,112,94
1,54,75,0
1,35,84,94
1,54,76,0
1,51,112,94
1,35,122,0
1,54,118,0
1,54,90,94
1,51,109,94
1,35,117,0
1,54,70,0
1,54,83,94
1,40,126,94
1,51,116,0
1,54,120,0
1,54,86,94
1,51,106,94
1,54,67,0
1,35,92,94
1,54,73,0
1,51,109,94
1,35,110,0
1,54,120,0
1,54,74,94
1,51,104,94
1,35,117,0
1,54,65,0
1,54,74,94
1,40,124,94
1,51,111,0
1,54,120,0
1,54,70,94
1,51,99,94
1,54,70,0
1,35,82,94
1,54,78,0
1,35,117,94
1,51,120,0
1,54,122,0
1,54,80,94
1,35,112,94
1,51,103,0
1,54,81,0
1,54,81,94
1,51,116,94
1,40,122,0
1,54,120,0
1,54,74,94
1,51,107,94
1,54,74,0
1,35,82,94
1,54,85,0
1,35,119,94
1,51,107,0
1,54,120,0
1,54,86,94
1,35,119,94
1,51,104,0
1,54,71,0
1,54,81,94
1,51,116,94
1,40,127,0
1,54,125,0
1,54,81,94
1,51,111,94
1,54,73,0
1,35,85,94
1,54,81,0
1,35,120,94
1,49,86,0
1,54,122,0
1,54,90,94
1,54,72,94
1,54,86,94
1,35,124,94
1,49,97,0
1,54,125,0
1,54,83,94
1,54,86,94
1,54,90,94
1,35,110,94
1,49,114,0
1,54,122,0
1,40,79,94
1,54,76,0
1,40,98,94
1,54,87,0
1,40,110,94
1,54,83,0
1,40,124,94
1,54,120,0
1,45,127,94
1,54,84,0
1,41,105,94
1,54,78,0
1,35,115,94
1,54,93,0
1,35,122,94
1,49,103,0
1,54,116,0
1,54,62,94
1,51,106,94
1,35,109,0
1,54,62,0
1,54,62,94
1,40,106,94
1,51,106,0
1,54,116,0
1,35,115,94
1,54,70,0
1,51,94,94
1,54,59,0
1,35,95,94
1,54,67,0
1,35,122,94
1,51,111,0
1,54,120,0
1,54,80,94
1,35,102,94
1,51,101,0
1,54,64,0
1,54,77,94
1,40,122,94
1,51,116,0
1,54,120,0
1,54,81,94
1,51,116,94
1,54,75,0
1,35,87,94
1,54,76,0
1,35,119,94
1,51,111,0
1,54,118,0
1,54,90,94
1,51,107,94
1,54,70,0
1,54,83,94
1,40,119,94
1,51,111,0
1,54,120,0
1,54,86,94
1,51,112,94
1,54,67,0
1,35,82,94
1,54,73,0
1,35,119,94
1,51,109,0
1,54,120,0
1,54,74,94
1,35,94,94
1,51,100,0
1,54,65,0
1,54,74,94
1,51,112,94
1,40,124,0
1,54,120,0
1,54,70,94
1,51,101,94
1,54,70,0
1,35,80,94
1,54,78,0
1,35,119,94
1,51,104,0
1,54,122,0
1,54,80,94
1,35,113,94
1,51,101,0
1,54,81,0
1,54,81,94
1,51,120,94
1,40,119,0
1,54,120,0
1,54,74,94
1,51,104,94
1,54,74,0
1,35,80,94
1,54,85,0
1,35,117,94
1,51,111,0
1,54,120,0
1,54,86,94
1,35,112,94
1,51,107,0
1,54,71,0
1,54,81,94
1,40,126,94
1,51,104,0
1,54,125,0
1,54,81,94
1,51,112,94
1,54,73,0
1,35,82,94
1,54,81,0
1,35,117,94
1,51,109,0
1,54,122,0
1,54,90,94
1,35,110,94
1,51,107,0
1,54,72,0
1,54,86,94
1,40,122,94
1,51,111,0
1,54,125,0
1,54,83,94
1,51,106,94
