track,note,velocity,time
0,42,84,383
0,42,65,92
0,42,64,38
0,42,64,93
0,60,68,91
0,64,75,0
0,60,64,0
0,36,94,0
0,36,103,0
0,42,94,1
0,76,80,0
0,67,69,0
0,79,102,2
0,76,67,2
0,67,91,1
0,42,73,1
0,76,75,11
0,72,86,1
0,42,75,1
0,36,89,3
0,79,89,0
0,76,72,1
0,36,93,0
0,42,82,0
0,42,92,4
0,36,108,1
0,42,68,6
0,37,107,5
0,42,104,0
0,54,79,0
0,74,73,0
0,72,77,2
0,31,100,0
0,42,68,0
0,32,82,7
0,71,74,4
0,33,98,0
0,60,56,0
0,36,93,0
0,57,53,0
0,42,84,0
0,64,63,0
0,72,67,3
0,69,88,0
0,42,73,1
0,71,73,6
0,76,83,0
0,42,73,1
0,76,81,1
0,81,89,0
0,69,69,1
0,33,89,0
0,42,82,0
0,36,113,1
0,74,80,11
0,36,106,2
0,42,96,0
0,45,89,4
0,76,72,1
0,42,78,2
0,45,91,3
0,64,77,0
0,72,71,1
0,37,119,0
0,42,107,0
0,54,65,0
0,43,89,18
0,69,67,6
0,40,81,1
0,46,94,0
0,64,69,16
0,67,77,0
0,36,84,0
0,42,92,0
0,36,113,1
0,67,66,1
0,48,57,2
0,42,65,42
0,67,86,1
0,55,57,3
0,72,86,23
0,42,76,1
0,57,53,2
0,79,86,21
0,36,81,1
0,42,75,0
0,36,103,0
0,55,60,1
0,42,92,0
0,36,108,0
0,42,63,3
0,31,82,0
0,52,67,0
0,54,62,0
0,37,87,1
0,42,100,0
0,36,94,4
0,46,89,1
0,65,69,4
0,60,59,0
0,38,87,1
0,50,68,0
0,36,108,1
0,42,104,0
0,65,57,2
0,62,62,0
0,69,63,2
0,43,68,3
0,31,70,0
0,36,93,1
0,51,100,0
0,74,63,0
0,79,59,4
0,54,53,1
0,60,65,1
0,54,60,5
0,54,71,1
0,60,82,0
0,62,78,0
0,64,82,0
0,52,45,0
0,55,45,0
0,60,45,0
0,48,53,0
0,55,65,0
0,36,91,0
0,42,111,0
0,36,100,0
0,72,68,15
0,42,66,0
0,76,75,0
0,42,76,1
0,67,78,1
0,42,78,15
0,79,73,1
0,36,76,0
0,36,98,0
0,84,88,17
0,42,104,1
0,67,77,0
0,36,103,0
0,64,72,2
0,79,69,1
0,42,78,0
0,67,77,43
0,31,96,1
0,76,71,0
0,42,107,0
0,54,80,0
0,37,122,1
0,64,69,42
0,36,94,1
0,42,76,0
0,72,65,1
0,59,41,1
0,64,64,2
0,55,69,0
0,69,76,0
0,47,63,0
0,35,91,1
0,36,103,0
0,42,92,1
0,67,72,5
0,71,79,1
0,42,66,0
0,76,68,43
0,42,73,1
0,79,70,23
0,64,73,0
0,42,89,0
0,35,94,1
0,36,103,0
0,83,85,44
0,42,107,0
0,36,98,0
0,79,76,34
0,42,89,1
0,43,87,1
0,76,66,0
0,64,78,1
0,54,84,0
0,42,119,1
0,37,100,0
0,35,91,2
0,67,77,0
0,71,64,0
0,46,104,1
0,52,66,2
0,60,47,0
0,45,64,0
0,33,76,0
0,69,74,0
0,52,36,1
0,42,89,0
0,36,100,0
0,57,49,1
0,42,59,43
0,69,71,0
0,71,80,4
0,72,81,2
0,42,84,0
0,33,86,7
0,76,76,0
0,42,79,0
0,36,86,0
0,81,87,45
0,36,91,0
0,42,100,0
0,64,80,0
0,67,71,21
0,42,57,0
0,76,70,1
0,72,79,34
0,54,78,1
0,42,107,0
0,37,89,0
0,69,64,16
0,46,75,1
0,67,73,0
0,55,38,0
0,31,98,1
0,69,75,0
0,42,100,0
0,36,106,0
0,43,59,1
0,67,70,32
0,42,70,1
0,72,75,43
0,60,66,1
0,64,59,0
0,42,96,1
0,76,82,4
0,52,61,1
0,42,89,0
0,36,93,0
0,31,78,1
0,81,89,44
0,42,115,0
0,55,62,0
0,36,98,0
0,42,82,22
0,76,69,1
0,43,94,3
0,64,69,0
0,72,81,1
0,54,86,0
0,37,119,0
0,42,125,0
0,36,89,24
0,67,68,0
0,67,71,0
0,46,92,0
0,69,81,2
0,29,87,0
0,36,103,0
0,42,96,0
0,57,53,1
0,60,58,0
0,53,39,1
0,60,55,1
0,57,57,2
0,53,35,1
0,42,65,41
0,65,74,0
0,72,84,6
0,42,96,0
0,76,78,1
0,76,65,44
0,36,113,0
0,42,94,0
0,36,83,1
0,42,111,9
0,36,98,0
0,74,82,1
0,41,94,0
0,81,87,0
0,42,75,0
0,72,74,1
0,76,64,1
0,37,122,31
0,42,122,0
0,72,69,1
0,54,89,0
0,36,84,5
0,42,87,0
0,65,67,0
0,41,98,20
0,52,41,3
0,59,48,1
0,55,32,0
0,40,87,0
0,71,79,0
0,52,64,0
0,36,100,0
0,42,100,1
0,64,71,41
0,42,75,0
0,71,81,43
0,42,89,1
0,55,46,3
0,59,58,0
0,76,75,12
0,67,74,0
0,36,100,1
0,42,89,0
0,40,94,1
0,64,73,1
0,79,83,1
0,42,107,0
0,36,111,0
0,67,72,36
0,42,76,1
0,76,75,0
0,35,100,1
0,37,107,0
0,42,107,1
0,54,85,0
0,71,85,0
0,40,83,2
0,64,62,0
0,46,73,0
0,64,69,1
0,38,94,1
0,50,58,1
0,36,111,0
0,62,72,0
0,42,111,1
0,57,48,1
0,53,42,0
0,60,26,1
0,62,70,43
0,42,75,1
0,57,69,43
0,60,71,0
0,69,73,0
0,42,100,1
0,52,61,9
0,38,83,2
0,74,93,0
0,42,96,0
0,36,103,1
0,53,66,43
0,77,86,1
0,42,119,0
0,36,108,0
0,65,62,37
0,74,84,0
0,42,65,0
0,67,70,0
0,57,76,4
0,60,76,0
0,37,127,0
0,42,122,0
0,69,68,1
0,33,100,0
0,54,82,0
0,69,66,40
0,62,78,1
0,42,84,0
0,38,81,1
0,72,76,2
0,55,60,1
0,31,100,1
0,42,122,0
0,36,106,0
0,67,59,23
0,42,84,1
0,60,67,42
0,57,51,0
0,69,71,1
0,69,68,0
0,42,104,1
0,53,61,16
0,74,70,2
0,31,83,0
0,42,104,1
0,36,113,1
0,50,58,0
0,67,71,1
0,77,88,0
0,36,108,0
0,42,115,1
0,60,82,38
0,38,84,0
0,74,63,0
0,60,98,1
0,42,92,0
0,54,50,1
0,54,75,8
0,54,90,0
0,69,65,1
0,43,86,0
0,37,122,0
0,60,79,1
0,42,122,0
0,60,67,0
0,67,71,0
0,46,107,0
0,62,72,0
0,62,93,1
0,55,50,1
0,60,46,1
0,64,56,0
0,36,87,1
0,64,79,1
0,55,69,0
0,48,62,1
0,42,111,0
0,36,113,0
0,64,100,2
0,42,65,40
0,72,76,1
0,67,97,39
0,67,79,5
0,42,87,1
0,76,82,0
0,79,80,24
0,36,103,0
0,36,84,0
0,42,100,0
0,67,103,15
0,67,79,2
0,84,94,0
0,42,111,1
0,36,106,0
0,64,89,17
0,64,72,2
0,42,84,0
0,79,67,1
0,67,93,35
0,67,72,1
0,31,87,0
0,76,77,0
0,54,86,1
0,37,100,0
0,42,115,0
0,64,93,29
0,64,66,1
0,72,76,0
0,36,89,0
0,42,82,1
0,59,48,9
0,64,64,1
0,69,76,0
0,47,63,0
0,55,69,0
0,69,96,1
0,35,98,0
0,36,111,0
0,42,107,0
0,67,72,2
0,71,78,0
0,42,82,1
0,67,91,0
0,76,80,42
0,42,82,1
0,35,96,1
0,64,94,0
0,79,77,0
0,42,92,0
0,64,77,1
0,36,108,0
0,83,84,44
0,42,107,0
0,36,106,0
0,42,78,41
0,79,67,1
0,76,81,16
0,64,75,1
0,37,111,0
0,42,119,0
0,31,94,0
0,54,85,1
0,67,91,34
0,71,77,2
0,46,104,0
0,35,98,0
0,67,76,0
0,69,90,5
0,60,50,0
0,57,51,1
0,42,96,0
0,33,94,0
0,69,72,0
0,36,106,0
0,45,63,1
0,52,66,0
0,42,58,36
0,69,71,1
0,71,94,1
0,42,94,1
0,71,81,0
0,72,84,2
0,42,96,44
0,36,103,0
0,76,74,0
0,33,86,1
0,55,56,33
0,64,90,0
0,55,69,1
0,31,100,0
0,42,115,0
0,36,103,0
0,81,90,1
0,64,75,0
0,42,76,26
0,76,68,1
0,67,72,0
0,67,97,0
0,72,75,45
0,37,96,0
0,54,87,0
0,42,111,1
0,69,92,25
0,69,50,1
0,40,100,0
0,46,75,1
0,64,58,1
0,69,71,0
0,57,52,13
0,29,100,4
0,42,104,0
0,36,113,0
0,53,63,1
0,65,76,28
0,42,79,0
0,72,71,44
0,57,63,0
0,60,63,0
0,42,100,0
0,36,111,3
0,81,90,1
0,42,100,0
0,59,58,8
0,57,50,1
0,62,57,0
0,65,58,2
0,71,77,0
0,71,106,0
0,71,84,0
0,67,58,0
0,42,122,0
0,76,86,1
0,36,120,0
0,38,91,0
0,62,69,0
0,42,84,22
0,74,75,2
0,56,58,4
0,59,69,0
0,74,106,1
0,35,86,1
0,42,119,0
0,37,127,0
0,54,89,0
0,72,89,0
0,74,86,0
0,64,70,0
0,68,81,0
0,74,73,0
0,46,107,44
0,71,86,1
0,64,38,3
0,57,50,1
0,72,104,1
0,60,54,0
0,33,100,1
0,36,117,0
0,42,111,0
0,72,85,0
0,72,87,0
0,60,60,1
0,64,53,0
0,57,42,1
0,71,97,3
0,71,77,1
0,69,72,1
0,42,63,0
0,71,78,1
0,69,97,40
0,69,73,0
0,72,71,0
0,69,71,1
0,42,82,0
0,33,100,19
0,69,77,0
0,76,83,1
0,42,92,0
0,36,98,0
0,69,78,1
0,81,89,44
0,42,111,0
0,36,113,1
0,71,101,31
0,71,84,0
0,71,85,0
0,42,76,0
0,76,73,1
0,72,77,4
0,72,71,1
0,72,88,0
0,37,115,0
0,54,91,0
0,72,100,0
0,42,115,0
0,40,100,0
0,71,73,0
0,46,84,1
0,71,81,0
0,69,71,0
0,71,93,1
0,45,100,1
0,55,49,1
0,60,68,2
0,64,58,0
0,64,58,1
0,43,100,0
0,55,58,0
0,72,81,0
0,60,52,1
0,72,103,1
0,36,120,0
0,42,119,0
0,72,85,2
0,71,97,1
0,71,77,0
0,71,83,1
0,67,72,0
0,42,82,0
0,72,78,44
0,42,84,1
0,69,76,0
0,69,100,2
0,69,68,0
0,76,78,0
0,43,100,1
0,36,113,0
0,42,107,0
0,42,104,44
0,81,87,0
0,36,106,0
0,42,78,26
0,76,71,1
0,69,80,17
0,69,80,0
0,54,99,1
0,72,86,0
0,37,125,1
0,42,125,0
0,38,89,7
0,71,85,0
0,71,102,0
0,71,81,0
0,31,91,0
0,67,63,0
0,46,78,0
0,72,85,0
0,72,79,0
0,53,55,0
0,60,66,0
0,57,62,0
0,72,102,1
0,36,111,0
0,29,100,0
0,64,58,0
0,42,119,1
0,60,49,0
0,57,51,1
0,65,70,42
0,42,68,1
0,42,119,16
0,72,75,0
0,72,88,1
0,72,76,0
0,42,107,6
0,36,117,0
0,29,84,1
0,76,76,0
0,53,48,3
0,60,58,0
0,57,53,0
0,69,73,2
0,38,100,0
0,69,94,0
0,53,57,0
0,57,52,0
0,69,77,0
0,36,113,0
0,42,111,0
0,50,59,0
0,81,84,1
0,62,23,2
0,72,77,0
0,42,61,0
0,76,66,0
0,72,89,0
0,72,100,1
0,72,76,1
0,37,127,0
0,42,127,1
0,54,93,0
0,74,106,10
0,62,56,0
0,74,86,1
0,76,60,0
0,74,85,1
0,42,94,0
0,53,54,0
0,55,69,1
0,31,100,0
0,60,58,0
0,57,51,0
0,67,78,0
0,36,113,0
0,42,115,1
0,42,92,44
0,69,75,2
0,72,84,18
0,65,66,0
0,69,63,0
0,42,119,0
0,77,97,8
0,42,125,0
0,36,117,0
0,31,94,1
0,72,92,11
0,69,78,0
0,36,111,1
0,84,106,0
0,69,79,0
0,81,87,0
0,42,125,1
0,31,100,0
0,72,83,0
0,67,77,1
0,38,127,32
0,77,80,1
0,54,69,1
0,54,72,2
0,55,58,0
0,59,58,0
0,62,58,1
0,86,101,0
0,74,94,0
0,71,83,1
0,38,127,2
0,54,87,0
0,31,100,1
0,71,78,0
0,74,76,0
0,72,83,1
0,74,78,17
0,45,103,3
0,76,84,6
0,43,123,3
0,77,92,1
0,79,94,13
0,81,92,6
0,83,94,2
0,72,83,0
0,76,84,0
0,88,100,1
0,55,53,1
0,36,100,0
0,60,69,0
0,67,78,0
0,76,83,0
0,49,127,0
0,36,103,0
0,54,98,1
0,60,58,0
0,64,57,0
0,84,102,2
0,54,72,15
0,76,69,17
0,54,75,0
0,72,82,1
0,76,88,0
0,42,84,0
0,54,60,0
0,72,87,18
0,76,88,0
0,76,72,1
0,54,98,0
0,42,127,1
0,38,120,0
0,54,69,0
0,72,85,14
0,76,84,1
0,31,100,4
0,76,82,0
0,42,107,0
0,36,93,1
0,54,73,0
0,54,58,20
0,36,100,19
0,36,113,0
0,42,127,0
0,54,100,1
0,54,70,20
0,42,104,18
0,54,79,1
0,54,61,21
0,74,89,0
0,31,100,0
0,38,98,0
0,42,127,0
0,74,77,1
0,54,100,0
0,86,101,1
0,67,75,0
0,54,65,19
0,84,94,15
0,42,111,0
0,72,82,0
0,67,86,0
0,32,98,1
0,54,76,0
0,72,93,2
0,54,70,16
0,64,78,5
0,71,86,1
0,83,100,0
0,33,100,0
0,60,61,0
0,42,127,0
0,36,111,0
0,71,80,0
0,64,58,0
0,57,58,0
0,57,42,1
0,54,98,0
0,64,56,0
0,60,58,0
0,54,72,19
0,72,66,14
0,72,82,0
0,42,89,0
0,54,75,0
0,64,67,1
0,84,87,1
0,54,60,20
0,71,74,0
0,71,87,0
0,64,78,0
0,83,89,1
0,38,108,0
0,42,127,0
0,54,98,0
0,54,69,2
0,64,80,3
0,69,77,0
0,33,100,3
0,42,111,0
0,69,69,1
0,36,96,0
0,54,73,0
0,81,87,0
0,54,58,18
0,36,113,19
0,42,127,0
0,54,100,1
0,54,70,21
0,40,100,18
0,42,100,0
0,54,79,1
0,54,61,7
0,64,76,3
0,42,127,2
0,33,100,0
0,64,74,0
0,38,98,0
0,54,100,0
0,76,94,1
0,54,65,21
0,46,115,3
0,35,96,0
0,54,76,0
0,54,70,19
0,55,56,10
0,60,50,2
0,79,92,1
0,67,81,0
0,36,94,0
0,64,58,0
0,36,108,0
0,42,127,0
0,54,98,1
0,64,64,0
0,67,73,0
0,48,59,1
0,54,72,19
0,42,92,20
0,54,75,0
0,55,60,2
0,54,60,19
0,42,127,19
0,54,98,0
0,38,98,1
0,57,59,1
0,54,69,19
0,31,91,3
0,42,122,0
0,36,100,1
0,54,73,0
0,55,55,0
0,54,58,20
0,36,100,19
0,36,113,1
0,42,127,0
0,54,100,0
0,54,70,12
0,36,100,18
0,42,107,1
0,67,82,0
0,54,79,0
0,54,61,21
0,60,69,18
0,42,127,0
0,54,100,0
0,38,93,1
0,76,90,1
0,54,65,20
0,59,66,18
0,42,115,1
0,31,100,0
0,54,76,0
0,72,84,2
0,54,70,19
0,57,56,8
0,64,56,1
0,57,59,1
0,60,58,0
0,42,127,0
0,36,113,0
0,33,100,0
0,54,98,0
0,71,83,0
0,54,72,19
0,42,107,20
0,54,75,0
0,72,76,1
0,54,60,17
0,60,59,3
0,42,127,2
0,38,106,0
0,54,98,0
0,71,77,0
0,54,69,19
0,59,68,18
0,42,125,1
0,40,100,0
0,54,73,0
0,36,91,0
0,69,67,2
0,54,58,20
0,57,51,13
0,45,100,0
0,42,127,1
0,36,126,0
0,54,100,0
0,54,70,1
0,54,79,1
0,42,115,1
0,43,100,18
0,54,61,2
0,40,100,2
0,42,115,0
0,84,106,0
0,38,127,0
0,54,100,0
0,72,84,1
0,72,82,0
0,69,73,0
0,64,54,2
0,45,106,18
0,54,65,1
0,74,76,0
0,38,100,0
0,86,98,0
0,71,72,0
0,54,76,1
0,74,83,1
0,43,120,0
0,54,70,18
0,36,100,6
0,76,79,0
0,55,58,0
0,88,98,1
0,67,67,1
0,54,98,0
0,76,61,0
0,72,85,0
0,49,127,0
0,67,63,0
0,36,123,0
0,60,58,0
0,64,58,0
0,60,69,2
0,54,72,18
