track,note,velocity,time
1,57,63,1136
1,62,57,0
1,54,48,0
1,28,68,0
1,57,73,4
1,62,79,0
1,54,56,0
1,28,70,4
1,28,74,4
1,54,44,0
1,57,55,0
1,62,59,0
1,54,59,4
1,62,74,0
1,57,71,0
1,28,69,4
1,54,55,68
1,28,77,0
1,57,71,0
1,62,66,0
1,35,46,4
1,54,60,4
1,57,75,0
1,62,74,0
1,28,75,4
1,54,67,4
1,57,80,0
1,62,77,0
1,28,76,0
1,54,61,4
1,62,76,0
1,57,76,0
1,28,67,4
1,40,64,40
1,59,58,0
1,54,58,0
1,56,56,0
1,28,67,0
1,52,63,0
1,56,68,4
1,54,61,0
1,52,71,0
1,59,66,0
1,28,78,4
1,28,78,4
1,59,59,0
1,54,78,0
1,52,74,0
1,56,64,4
1,59,76,4
1,56,81,0
1,52,73,0
1,54,63,0
1,28,78,4
1,28,41,0
1,54,73,4
1,52,73,0
1,56,81,0
1,59,73,0
1,28,74,4
1,71,89,192
1,66,81,0
1,68,77,0
1,59,79,0
1,28,78,4
1,28,82,4
1,64,88,0
1,71,87,0
1,68,76,0
1,59,84,192
1,63,94,4
1,68,84,0
1,71,94,0
1,59,82,0
1,28,78,4
1,66,53,8
1,57,79,0
1,54,79,0
1,62,79,0
1,28,79,0
1,57,83,4
1,62,82,0
1,54,73,0
1,28,74,4
1,66,53,4
1,28,71,0
1,57,77,0
1,62,75,0
1,54,63,0
1,66,84,4
1,62,90,0
1,57,91,0
1,28,74,4
1,62,62,40
1,54,66,0
1,57,70,0
1,28,55,0
1,54,81,4
1,62,90,0
1,57,90,0
1,28,73,4
1,28,76,4
1,57,75,0
1,54,65,0
1,62,75,0
1,54,82,4
1,57,91,0
1,62,89,0
1,28,80,4
1,61,64,28
1,57,71,0
1,28,71,0
1,64,70,0
1,56,62,192
1,61,83,4
1,64,86,0
1,57,89,0
1,56,66,4
1,28,78,0
1,61,75,4
1,57,84,0
1,64,80,0
1,28,80,0
1,56,61,4
1,61,84,4
1,57,93,0
1,64,93,0
1,56,67,4
1,28,76,72
1,61,67,0
1,57,78,0
1,64,75,0
1,56,70,192
1,61,78,4
1,57,90,0
1,64,83,0
1,28,88,4
1,56,60,0
1,61,83,4
1,64,87,0
1,57,86,0
1,28,93,0
1,56,64,4
1,61,92,4
1,64,94,0
1,57,90,0
1,56,64,4
1,55,76,12
1,60,75,0
1,64,76,0
1,33,75,0
1,64,90,4
1,55,97,0
1,60,96,0
1,33,85,4
1,33,80,0
1,64,80,4
1,60,80,0
1,55,80,0
1,64,97,4
1,55,101,0
1,60,97,0
1,33,78,4
1,60,90,8
1,64,86,0
1,55,90,0
1,33,82,0
1,60,98,4
1,64,93,0
1,55,97,0
1,33,75,4
1,26,96,44
1,38,75,0
1,60,89,0
1,64,83,0
1,55,90,0
1,64,95,4
1,60,100,0
1,55,101,0
1,26,73,4
1,28,72,16
1,54,68,0
1,56,77,0
1,63,75,0
1,59,87,0
1,63,95,4
1,59,101,0
1,56,94,0
1,54,78,4
1,28,108,4
1,63,85,4
1,56,78,0
1,59,83,0
1,28,93,0
1,54,77,4
1,63,94,4
1,56,99,0
1,59,105,0
1,54,76,0
1,28,108,4
1,58,91,12
1,54,82,0
1,28,89,0
1,61,83,0
1,54,55,4
1,61,95,4
1,58,103,0
1,54,89,0
1,28,108,4
1,28,82,4
1,61,92,0
1,58,99,0
1,54,84,4
1,61,101,4
1,58,101,0
1,54,74,4
1,61,70,28
1,64,78,0
1,33,83,0
1,57,85,0
1,59,82,0
1,61,88,4
1,57,95,0
1,59,97,0
1,64,96,0
1,33,80,4
1,56,87,40
1,59,95,0
1,64,87,0
1,32,75,0
1,56,99,4
1,59,107,0
1,64,98,0
1,32,83,4
1,64,83,68
1,54,66,0
1,57,84,0
1,61,64,0
1,30,73,0
1,61,83,4
1,54,97,0
1,57,104,0
1,64,104,0
1,30,88,4
1,35,90,76
1,57,93,0
1,61,99,0
1,64,101,0
1,66,105,68
1,63,107,0
1,59,98,0
1,23,81,4
1,66,89,4
1,68,81,0
1,59,90,0
1,64,89,0
1,66,92,4
1,68,94,0
1,64,93,0
1,59,80,0
1,59,77,4
1,68,81,4
1,59,78,0
1,64,80,0
1,68,109,4
1,64,104,0
1,59,84,4
1,61,70,4
1,66,74,0
1,64,87,4
1,57,80,0
1,61,101,4
1,66,99,0
1,64,107,0
1,57,102,0
1,61,89,4
1,66,89,0
1,64,100,0
1,57,71,4
1,61,92,4
1,64,102,0
1,66,92,0
1,57,76,4
1,63,97,16
1,59,91,0
1,66,99,0
1,68,99,0
1,66,97,4
1,68,95,0
1,63,95,0
1,63,94,4
1,66,95,0
1,68,95,0
1,59,66,4
1,66,97,0
1,63,94,0
1,68,99,4
1,61,84,8
1,64,89,0
1,57,89,0
1,66,84,0
1,61,99,4
1,66,101,0
1,64,105,0
1,61,63,0
1,66,53,4
1,64,56,0
1,57,78,4
1,61,107,4
1,66,105,0
1,64,110,0
1,57,65,4
1,66,92,72
1,61,99,0
1,64,104,0
1,57,98,0
1,66,103,52
1,63,105,0
1,68,103,0
1,59,102,0
1,61,94,4
1,66,89,0
1,57,94,0
1,64,89,0
1,66,99,132
1,63,103,0
1,59,96,0
1,68,99,0
1,66,89,140
1,61,95,0
1,64,95,0
1,57,95,0
1,66,99,52
1,68,97,0
1,63,103,0
1,59,101,0
1,56,99,384
1,52,81,192
1,47,83,192
1,54,63,16
1,62,78,0
1,57,78,0
1,40,69,0
1,28,75,0
1,74,68,156
1,86,67,4
1,73,58,252
1,85,77,0
1,81,62,264
1,69,63,4
1,78,71,248
1,66,63,0
1,62,63,4
1,74,72,0
1,73,71,4
1,61,53,0
1,52,68,44
1,66,58,0
1,68,48,0
1,71,59,0
1,66,72,4
1,68,68,0
1,71,70,0
1,66,57,4
1,68,48,0
1,71,61,0
1,66,68,4
1,68,61,0
1,71,61,0
1,59,65,192
1,64,71,4
1,68,65,0
1,71,68,0
1,68,69,4
1,64,78,0
1,71,75,0
1,68,77,4
1,64,80,0
1,71,78,0
1,68,94,4
1,71,97,0
1,64,100,0
1,57,63,36
1,62,57,0
1,54,48,0
1,28,68,0
1,57,73,4
1,62,79,0
1,54,56,0
1,28,70,4
1,28,74,4
1,54,44,0
1,57,55,0
1,62,59,0
1,54,59,4
1,62,74,0
1,57,71,0
1,28,69,4
1,54,55,68
1,28,77,0
1,57,71,0
1,62,66,0
1,35,46,4
1,54,60,4
1,57,75,0
1,62,74,0
1,28,75,4
1,54,67,4
1,57,80,0
1,62,77,0
1,28,76,0
1,54,61,4
1,62,76,0
1,57,76,0
1,28,67,4
1,40,64,40
1,59,58,0
1,54,58,0
1,56,56,0
1,28,67,0
1,52,63,0
1,56,68,4
1,54,61,0
1,52,71,0
1,59,66,0
1,28,78,4
1,28,78,4
1,59,59,0
1,54,78,0
1,52,74,0
1,56,64,4
1,59,76,4
1,56,81,0
1,52,73,0
1,54,63,0
1,28,78,4
1,28,41,0
1,54,73,4
1,52,73,0
1,56,81,0
1,59,73,0
1,28,74,4
1,59,89,0
1,54,77,0
1,52,81,0
1,56,89,4
1,28,78,4
1,63,87,0
1,59,76,0
1,54,88,0
1,28,82,0
1,63,94,4
1,59,84,0
1,54,94,0
1,28,78,4
1,66,53,8
1,57,79,0
1,54,79,0
1,62,79,0
1,28,79,0
1,57,83,4
1,62,82,0
1,54,73,0
1,28,74,4
1,66,53,4
1,28,71,0
1,57,77,0
1,62,75,0
1,54,63,0
1,66,84,4
1,62,90,0
1,57,91,0
1,28,74,4
1,62,62,40
1,54,66,0
1,57,70,0
1,28,55,0
1,54,81,4
1,62,90,0
1,57,90,0
1,28,73,4
1,28,76,4
1,57,75,0
1,54,65,0
1,62,75,0
1,54,82,4
1,57,91,0
1,62,89,0
1,28,80,4
1,61,64,28
1,57,71,0
1,28,71,0
1,64,70,0
1,56,62,192
1,61,83,4
1,64,86,0
1,57,89,0
1,56,66,4
1,28,78,0
1,61,75,4
1,57,84,0
1,64,80,0
1,28,80,0
1,56,61,4
1,61,84,4
1,57,93,0
1,64,93,0
1,56,67,4
1,28,76,72
1,61,67,0
1,57,78,0
1,64,75,0
1,56,70,192
1,61,78,4
1,57,90,0
1,64,83,0
1,28,88,4
1,56,60,0
1,61,83,4
1,64,87,0
1,57,86,0
1,28,93,0
1,56,64,4
1,61,92,4
1,64,94,0
1,57,90,0
1,56,64,4
1,55,76,12
1,60,75,0
1,64,76,0
1,33,75,0
1,64,90,4
1,55,97,0
1,60,96,0
1,33,85,4
1,33,80,0
1,64,80,4
1,60,80,0
1,55,80,0
1,64,97,4
1,55,101,0
1,60,97,0
1,33,78,4
1,60,90,8
1,64,86,0
1,55,90,0
1,33,82,0
1,60,98,4
1,64,93,0
1,55,97,0
1,33,75,4
1,26,96,44
1,38,75,0
1,60,89,0
1,64,83,0
1,55,90,0
1,64,95,4
1,60,100,0
1,55,101,0
1,26,73,4
1,28,72,16
1,54,68,0
1,56,77,0
1,63,75,0
1,59,87,0
1,63,95,4
1,59,101,0
1,56,94,0
1,54,78,4
1,28,108,4
1,63,85,4
1,56,78,0
1,59,83,0
1,28,93,0
1,54,77,4
1,63,94,4
1,56,99,0
1,59,105,0
1,54,76,0
1,28,108,4
1,58,91,12
1,54,82,0
1,28,89,0
1,61,83,0
1,54,55,4
1,61,95,4
1,58,103,0
1,54,89,0
1,28,108,4
1,28,82,4
1,61,92,0
1,58,99,0
1,54,84,4
1,61,101,4
1,58,101,0
1,54,74,4
1,61,70,28
1,64,78,0
1,33,83,0
1,57,85,0
1,59,82,0
1,61,88,4
1,57,95,0
1,59,97,0
1,64,96,0
1,33,80,4
1,56,87,40
1,59,95,0
1,64,87,0
1,32,75,0
1,56,99,4
1,59,107,0
1,64,98,0
1,32,83,4
1,64,83,68
1,54,66,0
1,57,84,0
1,61,64,0
1,30,73,0
1,61,83,4
1,54,97,0
1,57,104,0
1,64,104,0
1,30,88,4
1,35,90,76
1,57,93,0
1,61,99,0
1,64,101,0
1,66,105,68
1,63,107,0
1,59,98,0
1,23,81,4
1,68,81,4
1,59,90,0
1,64,89,0
1,68,94,4
1,64,93,0
1,59,80,0
1,68,81,4
1,59,78,0
1,64,80,0
1,68,109,4
1,64,104,0
1,61,70,384
1,66,74,0
1,57,80,8
1,61,101,4
1,66,99,0
1,57,102,0
1,64,100,4
1,61,89,0
1,66,89,0
1,61,92,4
1,64,102,0
1,66,92,0
1,63,97,16
1,59,91,0
1,68,99,0
1,68,95,0
1,63,95,0
1,59,97,4
1,63,94,4
1,68,95,0
1,63,94,0
1,68,99,4
1,61,84,8
1,57,89,0
1,66,84,0
1,57,105,4
1,61,99,0
1,66,101,0
1,61,63,0
1,57,56,4
1,66,53,0
1,61,107,4
1,66,105,0
1,64,110,0
1,66,92,72
1,61,99,0
1,57,98,0
1,59,105,52
1,64,103,0
1,68,103,0
1,61,94,4
1,66,89,0
1,57,94,0
1,59,103,132
1,64,99,0
1,68,99,0
1,66,89,144
1,61,95,0
1,57,95,0
1,64,99,52
1,68,97,0
1,59,101,0
1,56,99,384
1,52,81,100
1,47,83,4
1,54,63,12
1,62,78,0
1,57,78,0
1,40,69,0
1,28,75,0
1,74,68,156
1,86,67,4
1,73,58,256
1,85,77,0
1,69,63,256
1,81,62,0
1,78,71,256
1,66,63,0
1,62,63,4
1,74,72,0
1,73,71,4
1,61,53,0
1,59,68,44
1,52,68,0
1,66,58,0
1,68,48,0
1,71,59,0
1,66,72,4
1,68,68,0
1,71,70,0
1,66,57,4
1,68,48,0
1,71,61,0
1,66,68,4
1,68,61,0
1,71,61,0
1,64,71,4
1,68,65,0
1,71,68,0
1,35,102,180
1,47,114,4
1,34,99,16
1,46,111,0
1,33,97,52
1,45,112,0
1,44,109,12
1,32,107,0
1,30,109,52
1,42,111,0
1,68,81,56
1,59,90,0
1,64,89,0
1,68,94,4
1,64,93,0
1,68,81,4
1,59,78,0
1,64,80,0
1,68,109,4
1,64,104,0
1,61,70,384
1,66,74,0
1,57,80,8
1,61,101,4
1,66,99,0
1,57,102,0
1,64,100,4
1,61,89,0
1,66,89,0
1,61,92,4
1,64,102,0
1,66,92,0
1,64,91,16
1,66,99,0
1,68,99,0
1,64,95,4
1,66,97,0
1,68,95,0
1,63,94,196
1,66,95,4
1,68,95,0
1,59,66,192
1,66,97,0
1,63,94,0
1,68,99,4
1,64,89,8
1,61,84,0
1,66,84,0
1,61,99,4
1,66,101,0
1,64,105,0
1,61,63,0
1,66,53,4
1,64,56,0
1,61,107,4
1,66,105,0
1,64,110,0
1,66,92,72
1,61,99,0
1,57,98,0
1,59,105,52
1,68,103,0
1,64,103,0
1,61,94,384
1,66,89,0
1,57,94,0
1,59,103,132
1,64,99,0
1,68,99,0
1,57,98,140
1,61,99,0
1,66,92,0
1,59,105,52
1,64,103,0
1,68,103,0
1,61,94,384
1,66,89,0
1,57,94,0
1,59,103,132
1,64,99,0
1,68,99,0
1,66,91,144
1,61,95,0
1,57,98,0
1,68,87,4
1,59,66,4
1,64,87,0
1,66,97,8
1,61,97,0
1,69,105,0
1,59,93,0
1,68,105,0
1,64,108,0
1,66,99,8
1,61,99,0
1,57,96,8
1,56,88,0
1,59,94,4
1,64,100,0
1,57,90,8
1,62,98,0
1,66,88,0
1,64,116,52
1,61,110,0
1,57,105,0
1,59,110,4
1,57,94,0
1,63,103,0
1,68,81,68
1,59,90,0
1,64,89,0
1,68,94,4
1,64,93,0
1,68,81,4
1,59,78,0
1,64,80,0
1,68,109,4
1,64,104,0
1,61,70,384
1,66,74,0
1,57,80,8
1,61,101,4
1,66,99,0
1,57,102,0
1,64,100,4
1,61,89,0
1,66,89,0
1,61,92,4
1,64,102,0
1,66,92,0
1,64,91,16
1,66,99,0
1,68,99,0
1,64,95,4
1,66,97,0
1,68,95,0
1,63,94,196
1,66,95,4
1,68,95,0
1,59,66,192
1,66,97,0
1,63,94,0
1,68,99,4
1,64,89,8
1,61,84,0
1,66,84,0
1,61,99,4
1,66,101,0
1,64,105,0
1,61,63,0
1,66,53,4
1,64,56,0
1,61,107,4
1,66,105,0
1,64,110,0
1,66,92,72
1,61,99,0
1,57,98,0
1,59,105,28
1,68,103,0
1,64,103,0
1,61,94,28
1,66,89,0
1,57,94,0
1,59,103,28
1,64,99,0
1,68,99,0
1,57,98,64
1,61,99,0
1,66,92,0
1,59,105,28
1,64,103,0
1,68,103,0
1,61,94,60
1,66,89,0
1,57,94,0
1,59,103,60
1,64,99,0
1,68,99,0
1,66,91,36
1,61,95,0
1,57,98,0
1,68,87,4
1,59,66,4
1,64,87,0
1,66,97,4
1,61,97,0
1,69,105,0
1,59,93,0
1,68,105,0
1,64,108,0
1,66,99,8
1,61,99,0
1,57,96,4
1,56,88,0
1,59,94,4
1,64,100,0
1,57,90,8
1,62,98,0
1,66,88,0
1,64,116,32
1,61,110,0
1,57,105,0
1,59,110,4
1,57,94,0
1,63,103,0
1,66,114,68
1,68,111,0
1,59,112,0
1,64,114,0
2,52,78,11876
2,59,88,0
2,54,76,8
2,42,105,96
2,33,82,92
2,33,81,96
2,33,84,36
2,33,87,48
2,50,85,32
2,40,94,64
2,40,98,80
2,40,92,32
2,40,101,88
2,40,90,68
2,40,102,68
2,40,91,76
2,45,98,16
2,45,98,100
2,44,99,28
2,44,96,76
2,42,102,32
2,42,100,104
2,47,96,32
2,42,100,192
2,35,82,4
2,40,118,200
2,40,110,112
2,40,110,40
2,35,97,64
2,40,107,72
2,40,105,132
2,40,102,48
2,35,93,76
2,40,112,68
2,40,114,92
2,40,110,48
2,35,97,84
2,40,112,76
2,40,101,92
2,40,112,80
2,35,101,112
2,37,99,4
2,40,97,52
2,40,118,140
2,35,101,48
2,40,107,32
2,40,116,144
2,40,107,184
2,35,95,44
2,40,112,52
2,40,90,128
2,50,78,0
2,47,75,312
2,40,75,168
2,40,42,212
2,40,90,92
2,40,76,72
2,40,89,40
