track,note,velocity,time
1,1,1,0
1,65,74,1492
1,62,74,4
1,70,74,0
1,62,74,2080
1,65,74,4
1,70,74,4
1,62,74,1964
1,70,74,0
1,65,74,4
1,62,74,1356
1,53,74,4
1,58,74,0
1,57,74,164
1,60,74,12
1,58,74,8
1,62,74,4
1,60,74,168
1,57,74,4
1,58,74,216
1,62,74,0
1,65,74,276
1,57,74,0
1,63,74,12
1,60,74,4
1,58,74,16
1,62,74,4
1,60,74,4
1,57,74,4
1,63,74,12
1,58,74,0
1,62,74,4
1,59,74,676
1,66,74,8
1,63,74,4
1,64,74,48
1,58,74,20
1,61,74,1540
1,66,74,36
1,59,74,4
1,63,74,8
1,63,74,176
1,64,74,28
1,58,74,4
1,61,74,8
1,59,74,36
1,66,74,4
1,63,74,12
1,71,74,160
1,64,74,112
1,66,74,0
1,70,74,12
1,63,74,188
1,71,74,12
1,66,74,4
1,59,74,420
1,63,74,16
1,66,74,4
1,58,74,96
1,64,74,4
1,61,74,20
1,63,74,152
1,59,74,0
1,64,74,80
1,58,74,36
1,61,74,4
1,63,74,64
1,59,74,8
1,58,74,52
1,61,74,16
1,64,74,12
1,59,74,60
1,63,74,8
1,64,74,152
1,58,74,4
1,61,74,24
1,66,74,4
1,59,74,8
1,63,74,12
1,64,74,56
1,58,74,12
1,61,74,24
1,59,74,60
1,63,74,4
1,64,74,52
1,61,74,4
1,58,74,12
1,59,74,48
1,63,74,0
1,71,74,100
1,64,74,376
1,66,74,4
1,70,74,4
1,71,74,80
1,66,74,4
1,63,74,0
2,1,1,0
2,82,85,1540
2,70,85,0
2,82,87,48
2,70,80,0
2,82,83,116
2,70,87,0
2,82,64,124
2,70,72,0
2,65,80,28
2,77,83,0
2,82,96,88
2,70,83,0
2,70,87,2224
2,82,93,0
2,70,83,68
2,82,83,4
2,82,91,116
2,70,87,0
2,82,56,124
2,70,76,0
2,77,91,32
2,65,83,0
2,70,91,104
2,82,96,0
2,65,87,6644
2,53,68,0
2,58,89,8
2,70,93,0
2,72,103,9508
2,74,89,96
2,75,59,12
2,76,85,92
2,77,98,88
2,72,105,184
2,74,105,2392
2,70,98,40
2,67,98,4
2,65,85,188
2,72,103,2116
2,74,89,96
2,75,58,4
2,76,89,92
2,77,89,4
2,72,85,188
2,74,103,2384
2,70,89,52
2,67,100,20
2,65,96,4
2,72,108,2136
2,74,80,96
2,75,56,0
2,76,89,92
2,77,91,76
2,72,83,180
2,74,93,2380
2,70,83,28
2,67,78,12
2,65,87,4
2,73,83,2408
2,75,70,0
2,76,83,96
2,77,91,84
2,78,103,20
2,73,105,20
2,75,100,2336
2,71,96,0
2,68,83,100
2,66,80,184
2,66,85,544
2,66,58,244
2,73,83,1404
2,75,83,96
2,76,89,4
2,77,87,4
2,78,91,24
2,73,103,16
2,78,72,604
2,78,80,248
2,75,91,1396
2,71,93,0
2,68,85,100
2,66,85,172
2,71,98,260
2,71,96,1324
2,71,85,144
2,68,76,20
2,66,70,192
2,71,91,188
2,71,89,132
2,68,80,0
2,66,70,192
2,71,91,8
2,71,91,1388
2,71,76,124
2,68,78,96
2,66,57,184
2,71,91,24
2,71,76,296
2,75,62,124
2,78,83,124
2,78,85,44
2,76,80,128
2,78,89,48
2,80,93,128
2,82,83,124
2,82,91,40
2,80,87,100
2,78,89,40
2,76,100,128
2,78,85,136
2,78,87,52
2,76,96,124
2,75,100,48
2,73,93,132
2,71,98,124
2,80,85,2384
2,78,85,36
2,78,87,136
2,73,85,20
2,80,87,1944
2,78,89,24
2,78,85,128
2,75,66,16
2,73,83,2064
2,75,72,96
2,76,61,76
2,77,89,84
2,78,91,8
2,73,105,284
2,78,66,884
2,78,58,240
2,75,98,1116
2,71,89,0
2,68,83,100
2,66,85,180
2,66,57,388
2,78,34,0
2,66,57,252
2,78,66,0
2,66,87,244
2,78,68,0
2,80,87,916
2,78,91,40
2,78,98,128
2,73,87,28
2,75,89,2004
2,71,93,0
2,68,89,100
2,66,91,252
2,73,103,1976
2,75,100,0
2,76,89,12
2,77,96,92
2,78,93,20
2,73,108,288
2,78,85,612
2,78,72,248
2,75,89,1392
2,71,87,0
2,68,78,100
2,66,80,0
2,80,98,2008
2,78,96,52
2,78,89,132
2,73,85,52
2,80,91,2072
2,78,98,100
2,78,87,132
2,75,83,20
2,78,62,880
2,66,53,0
2,66,58,232
2,78,68,0
2,73,108,1088
2,75,89,4
2,76,78,16
2,77,91,92
2,78,89,20
2,73,105,288
2,75,89,2316
2,71,87,284
2,68,80,92
2,66,83,184
2,71,89,524
2,59,74,0
2,71,76,2992
2,59,83,0
2,71,68,3000
2,59,89,0
2,78,70,1840
2,66,76,0
2,83,89,92
2,71,89,0
3,70,127,7288
3,67,122,24
3,70,127,36
3,74,127,1512
3,70,123,956
3,67,121,16
3,70,121,20
3,74,127,0
3,62,127,972
3,65,122,36
3,67,114,36
3,62,127,44
3,65,127,72
3,67,121,92
3,65,127,4
3,62,127,112
3,65,127,100
3,60,127,12
3,65,127,656
3,65,127,116
3,69,127,84
3,69,127,60
3,67,127,116
3,65,127,88
3,67,114,24
3,65,127,16
3,65,127,100
3,62,122,16
3,62,127,736
3,65,127,184
3,67,127,180
3,62,127,112
3,65,127,76
3,67,127,12
3,65,127,40
3,62,127,12
3,65,127,0
3,60,127,16
3,65,127,180
3,65,127,140
3,69,127,12
3,69,127,132
3,67,127,84
3,65,127,80
3,62,127,24
3,62,127,112
3,60,127,48
3,58,127,24
3,70,127,296
3,70,127,84
3,70,127,96
3,67,127,4
3,65,127,176
3,70,127,124
3,67,127,8
3,65,127,108
3,65,127,108
3,60,127,4
3,65,127,104
3,65,127,112
3,69,127,60
3,69,127,128
3,67,127,88
3,65,127,76
3,67,127,8
3,65,127,0
3,65,127,100
3,62,127,28
3,70,127,8
3,70,127,92
3,70,125,160
3,67,127,316
3,65,127,4
3,70,127,100
3,67,127,368
3,65,127,12
3,65,127,128
3,60,127,16
3,65,127,12
3,65,127,112
3,69,127,96
3,69,127,168
3,67,127,16
3,65,127,0
3,67,127,0
3,65,127,24
3,62,127,12
3,58,127,144
3,71,127,564
3,71,127,84
3,71,127,96
3,68,122,284
3,66,127,0
3,71,127,20
3,68,120,12
3,66,127,8
3,66,122,88
3,61,127,16
3,66,127,0
3,66,127,192
3,70,127,16
3,70,127,120
3,68,127,108
3,66,127,12
3,68,127,16
3,66,127,304
3,66,127,112
3,63,118,12
3,71,127,12
3,71,127,144
3,71,127,120
3,68,127,16
3,66,127,188
3,71,127,96
3,68,125,304
3,66,125,244
3,66,127,112
3,61,125,12
3,66,120,192
3,66,127,100
3,70,127,28
3,70,125,164
3,68,127,112
3,66,127,0
3,66,125,144
3,63,127,148
3,61,121,88
3,59,124,28
3,71,127,396
3,68,119,12
3,71,127,188
3,75,120,12
3,71,127,940
3,68,116,20
3,71,124,0
3,75,114,8
3,63,119,3456
3,66,127,200
3,68,127,4
3,63,120,116
3,66,127,264
3,68,127,196
3,66,127,120
3,63,123,136
3,66,127,92
3,61,122,16
3,66,127,756
3,66,127,148
3,70,124,8
3,70,127,156
3,68,122,112
3,66,127,128
3,68,117,116
3,66,127,8
3,66,127,116
3,63,114,20
3,63,120,140
3,66,127,184
3,68,125,4
3,63,120,128
3,66,127,116
3,68,127,44
3,66,127,176
3,63,120,144
3,66,127,64
3,61,121,20
3,66,127,764
3,66,127,132
3,70,127,8
3,70,108,152
3,68,112,4
3,66,127,4
3,68,125,88
3,68,120,140
3,66,127,80
3,63,127,4
3,61,127,108
3,59,127,8
3,71,127,280
3,71,127,96
3,71,127,84
3,68,123,20
3,66,127,0
3,71,127,24
3,68,121,8
3,66,127,156
3,66,127,108
3,61,119,8
3,66,127,20
3,70,125,96
3,70,127,120
3,68,127,24
3,66,127,276
3,68,127,4
3,66,127,304
3,63,127,4
3,61,127,100
3,59,127,136
3,71,127,80
3,71,127,180
3,71,127,100
3,68,121,20
3,66,127,8
3,71,127,8
3,68,119,288
3,66,127,264
3,66,127,72
3,61,125,0
3,66,127,876
3,66,127,84
3,70,127,64
3,70,127,132
3,68,127,92
3,66,127,12
3,63,122,8
3,63,127,32
3,61,124,12
3,59,127,104
3,71,127,120
3,71,127,92
3,71,127,76
3,68,127,372
3,66,120,28
3,71,127,92
3,68,121,356
3,66,127,188
3,66,127,112
3,61,127,264
3,70,127,876
3,70,127,88
3,70,127,92
3,68,122,16
3,66,127,252
3,68,127,196
3,66,127,276
3,63,121,264
3,61,127,88
3,63,122,80
3,71,127,4
3,71,127,72
3,71,127,132
3,68,127,292
3,66,127,120
3,71,127,72
3,68,127,52
3,66,127,296
3,66,127,84
3,61,123,292
3,66,127,740
3,66,127,132
3,70,127,8
3,70,127,116
3,68,124,20
3,66,127,8
3,63,127,24
3,63,125,72
3,61,127,12
3,59,127,0
3,71,127,268
3,68,127,16
3,71,127,16
3,75,127,1540
3,71,127,1036
3,68,122,0
3,71,127,40
3,75,127,0
3,71,127,980
3,68,119,8
3,71,127,12
3,75,127,0
4,36,87,1444
4,42,116,92
4,42,90,4
4,42,67,52
4,36,87,44
4,42,121,0
4,42,78,44
4,42,84,16
4,42,66,52
4,36,87,36
4,42,119,4
4,42,65,32
4,42,82,36
4,69,84,0
4,42,69,32
4,69,84,0
4,36,87,32
4,42,121,0
4,42,67,32
4,42,72,36
4,44,105,56
4,36,87,40
4,42,101,0
4,42,74,48
4,42,84,24
4,42,71,52
4,36,87,36
4,42,127,0
4,42,63,36
4,42,76,32
4,42,107,52
4,36,87,32
4,42,86,0
4,42,82,56
4,42,124,36
4,69,84,0
4,42,80,20
4,69,84,0
4,36,87,20
4,42,121,0
4,42,82,36
4,42,84,32
4,42,74,48
4,36,87,36
4,42,119,4
4,42,73,36
4,42,96,32
4,42,80,44
4,36,87,36
4,42,103,0
4,42,78,44
4,42,103,32
4,42,72,40
4,36,87,36
4,42,121,4
4,42,72,36
4,42,84,36
4,69,84,0
4,42,73,36
4,69,84,0
4,36,87,28
4,42,109,0
4,42,80,44
4,42,96,24
4,44,99,56
4,36,87,40
4,42,103,4
4,42,80,40
4,42,92,16
4,42,74,52
4,36,87,44
4,42,121,0
4,42,66,40
4,42,84,44
4,42,75,48
4,36,87,32
4,42,121,4
4,42,74,36
4,42,86,32
4,69,84,0
4,42,71,40
4,69,84,0
4,36,87,16
4,42,121,0
4,42,80,44
4,42,94,24
4,44,105,48
4,36,87,44
4,42,101,0
4,49,84,0
4,42,80,48
4,42,99,28
4,42,71,44
4,36,87,44
4,42,119,0
4,42,67,40
4,42,88,32
4,42,73,48
4,36,87,40
4,42,109,0
4,42,78,40
4,42,90,32
4,42,73,40
4,36,87,40
4,42,112,0
4,42,72,40
4,36,87,36
4,42,96,0
4,42,74,48
4,36,87,40
4,42,119,4
4,42,71,36
4,42,72,28
4,42,71,44
4,36,87,32
4,42,109,0
4,73,84,0
4,42,75,24
4,42,84,28
4,42,72,36
4,36,87,44
4,42,116,0
4,42,71,40
4,42,96,32
4,42,71,48
4,36,87,44
4,42,103,0
4,42,71,48
4,42,119,48
4,42,72,44
4,36,87,44
4,42,121,4
4,42,74,44
4,42,101,8
4,42,73,44
4,36,87,32
4,42,112,0
4,42,74,36
4,42,99,36
4,42,71,48
4,36,87,40
4,42,109,4
4,42,80,36
4,42,96,32
4,42,77,44
4,36,87,36
4,42,112,0
4,42,73,4
4,36,87,32
4,42,88,0
4,42,73,4
4,36,87,48
4,42,127,4
4,49,84,0
4,73,84,208
4,36,87,656
4,42,109,4
4,49,84,0
4,42,86,24
4,42,92,20
4,69,84,4
4,42,72,40
4,69,84,4
4,36,87,20
4,42,107,0
4,42,74,40
4,42,101,32
4,42,67,40
4,36,87,40
4,42,105,0
4,42,69,40
4,42,96,20
4,75,84,0
4,42,82,40
4,75,84,4
4,36,87,28
4,42,107,0
4,42,77,44
4,42,92,16
4,44,94,52
4,36,87,48
4,42,109,4
4,42,71,44
4,42,99,32
4,69,84,4
4,42,71,28
4,69,84,4
4,36,87,12
4,42,112,0
4,42,69,32
4,42,94,32
4,42,74,44
4,36,87,32
4,42,107,0
4,42,70,36
4,42,103,28
4,75,84,0
4,42,73,28
4,75,84,4
4,36,87,16
4,42,114,0
4,42,74,32
4,42,101,28
4,42,69,32
4,36,87,40
4,42,109,0
4,42,74,36
4,42,96,24
4,69,84,4
4,42,71,40
4,69,84,4
4,36,87,12
4,42,107,0
4,42,74,32
4,42,96,12
4,42,75,36
4,36,87,32
4,42,107,0
4,42,73,36
4,42,99,12
4,75,84,0
4,42,75,32
4,75,84,4
4,36,87,24
4,42,112,0
4,42,68,32
4,42,99,4
4,42,80,36
4,36,87,36
4,42,109,0
4,42,73,40
4,42,86,16
4,69,84,4
4,42,71,28
4,69,84,4
4,36,87,12
4,42,105,0
4,42,72,36
4,42,101,24
4,42,72,40
4,36,87,40
4,42,101,0
4,42,73,32
4,42,94,20
4,75,84,0
4,42,70,36
4,75,84,4
4,36,87,24
4,42,116,0
4,42,71,48
4,42,103,8
4,44,86,48
4,36,87,40
4,42,105,4
4,42,69,52
4,42,99,12
4,69,84,4
4,42,77,40
4,69,84,4
4,36,87,12
4,42,116,0
4,42,71,32
4,42,94,32
4,42,74,40
4,36,87,36
4,42,105,0
4,42,71,40
4,42,86,16
4,75,84,0
4,42,73,40
4,75,84,4
4,36,87,28
4,42,114,0
4,42,71,32
4,42,86,28
4,42,72,40
4,36,87,44
4,42,114,0
4,42,71,40
4,42,88,12
4,69,84,4
4,42,74,40
4,69,84,4
4,36,87,16
4,42,114,0
4,42,71,40
4,42,80,28
4,42,71,48
4,36,87,40
4,42,109,0
4,42,66,40
4,42,109,32
4,75,84,4
4,42,67,32
4,75,84,4
4,36,87,4
4,42,114,0
4,42,66,32
4,42,88,36
4,42,77,48
4,36,87,48
4,42,99,0
4,42,84,48
4,42,96,16
4,69,84,4
4,42,82,32
4,69,84,4
4,36,87,8
4,42,112,0
4,42,75,44
4,42,94,36
4,42,76,44
4,36,87,36
4,42,105,0
4,42,72,40
4,42,92,16
4,75,84,0
4,42,76,24
4,75,84,4
4,36,87,8
4,42,107,0
4,42,78,44
4,42,105,12
4,44,92,56
4,36,87,48
4,42,107,4
4,42,77,56
4,42,101,24
4,69,84,4
4,42,77,36
4,69,84,4
4,36,87,12
4,42,121,0
4,42,78,36
4,42,90,28
4,42,72,44
4,36,87,40
4,42,119,0
4,42,73,36
4,42,114,40
4,75,84,4
4,42,74,36
4,75,84,4
4,36,87,40
4,42,107,0
4,42,72,40
4,42,99,24
4,42,88,40
4,36,87,36
4,42,105,4
4,49,84,0
4,42,71,40
4,42,78,20
4,69,84,4
4,42,77,40
4,69,84,0
4,36,87,8
4,42,121,0
4,42,73,36
4,42,82,32
4,42,73,40
4,36,87,36
4,42,109,0
4,42,72,40
4,42,101,4
4,75,84,0
4,42,74,40
4,36,87,16
4,42,119,0
4,42,71,28
4,42,92,32
4,42,72,36
4,36,87,40
4,42,114,0
4,42,71,32
4,42,77,4
4,69,84,4
4,42,71,36
4,69,84,4
4,36,87,16
4,42,112,0
4,42,74,32
4,42,86,36
4,42,71,44
4,36,87,44
4,42,105,0
4,42,71,44
4,42,105,20
4,42,82,48
4,75,84,4
4,36,87,8
4,42,112,0
4,42,82,48
4,42,105,40
4,44,94,52
4,36,87,48
4,42,114,4
4,42,76,52
4,42,84,12
4,69,84,4
4,42,67,36
4,69,84,4
4,36,87,16
4,42,112,0
4,42,78,36
4,42,96,36
4,42,66,44
4,36,87,40
4,42,109,0
4,42,71,36
4,42,94,24
4,75,84,0
4,42,69,40
4,75,84,4
4,36,87,0
4,42,109,0
4,42,72,32
4,42,80,40
4,42,68,48
4,36,87,40
4,42,116,0
4,42,69,36
4,42,77,20
4,69,84,4
4,42,69,40
4,69,84,4
4,36,87,20
4,42,119,0
4,42,73,28
4,42,84,32
4,42,69,40
4,36,87,40
4,42,119,0
4,42,68,36
4,42,109,24
4,75,84,4
4,42,68,36
4,75,84,4
4,36,87,4
4,42,119,0
