track,note,velocity,time
1,41,98,2656
1,48,106,1244
1,53,109,20
1,48,94,0
1,48,90,36
1,45,102,396
1,43,97,0
1,41,95,96
1,38,103,4
1,41,115,4
1,48,99,960
1,48,97,120
1,48,88,20
1,29,115,592
1,29,115,80
1,29,115,76
1,29,115,88
1,29,115,76
1,31,115,20
1,33,115,192
1,37,115,372
1,33,115,164
1,38,115,12
1,35,115,4
1,36,115,388
1,36,98,44
1,36,115,88
1,33,106,576
1,34,115,80
1,36,115,76
1,36,115,52
1,37,115,192
1,33,115,32
1,38,108,384
1,50,106,12
1,48,105,56
1,47,104,4
1,43,115,208
1,36,115,364
1,33,115,20
1,34,115,192
1,36,98,172
1,36,108,128
1,36,103,40
1,33,115,192
1,34,114,184
1,36,91,172
1,36,106,76
1,36,98,124
1,33,115,348
1,34,114,180
1,36,103,0
1,36,101,84
1,36,103,68
1,29,115,476
1,29,112,56
1,29,115,40
1,29,115,48
1,29,115,48
1,29,115,52
1,36,92,580
1,29,105,172
1,29,115,72
1,29,115,20
1,31,115,192
1,33,115,180
1,37,115,376
1,33,115,168
1,38,115,4
1,36,112,188
1,35,115,184
1,36,115,364
1,36,115,56
1,36,112,60
1,33,115,388
1,34,115,168
1,36,115,180
1,36,115,96
1,37,115,8
1,33,115,196
1,40,115,176
1,37,110,180
1,38,115,184
1,50,108,40
1,48,115,100
1,47,115,92
1,43,115,172
1,38,112,116
1,36,115,88
1,36,108,84
1,36,95,76
1,33,115,380
1,34,115,184
1,36,115,172
1,36,112,88
1,36,115,128
1,43,99,12
1,41,104,80
1,38,101,4
1,36,115,0
1,36,115,52
1,36,115,92
1,33,115,388
1,34,106,176
1,36,101,192
1,36,115,100
1,36,112,132
1,36,115,44
1,34,115,8
1,33,115,4
1,37,115,384
1,33,115,0
1,38,115,12
1,33,115,384
1,31,115,28
1,43,115,384
1,38,115,88
1,31,115,84
1,36,115,4
1,36,115,76
1,36,115,140
1,43,106,16
1,43,110,8
1,40,110,96
1,36,115,8
1,29,115,20
1,29,115,52
1,29,115,60
1,36,115,576
1,29,115,176
1,41,115,564
1,29,115,188
1,36,115,44
1,29,115,8
1,41,115,572
1,29,115,76
1,29,115,52
1,29,115,76
1,36,115,576
1,29,115,12
1,29,115,64
1,31,115,8
1,33,115,192
1,37,115,372
1,33,115,4
1,38,115,0
1,35,115,12
1,36,115,376
1,36,115,92
1,36,115,124
1,33,115,388
1,34,115,172
1,36,115,0
1,36,115,116
1,37,115,84
1,50,96,36
1,50,94,4
1,45,99,96
1,43,115,68
1,38,115,16
1,36,115,32
1,35,115,76
1,31,115,84
1,36,115,88
1,36,115,76
1,36,115,68
1,33,115,388
1,34,102,160
1,36,115,176
1,36,103,84
1,36,112,124
1,43,106,24
1,41,115,72
1,38,112,16
1,36,115,0
1,36,112,116
1,36,103,92
1,33,115,384
1,34,115,180
1,36,108,172
1,36,101,64
1,36,108,108
1,33,106,384
1,34,115,180
1,36,106,180
1,36,101,100
1,36,101,136
1,43,91,0
1,43,96,4
1,40,103,12
1,36,106,20
1,36,112,72
1,36,115,116
1,34,97,4
1,36,88,20
1,36,80,64
1,36,88,100
1,31,78,0
1,36,90,36
1,31,86,576
1,29,115,16
1,29,86,28
1,29,101,72
1,33,115,576
1,34,99,0
1,36,98,100
1,36,102,52
1,29,112,20
1,29,95,84
1,29,95,104
1,33,91,24
1,34,77,96
1,36,106,92
1,29,115,108
1,40,115,40
1,39,115,52
1,38,115,44
1,37,115,68
1,36,115,44
1,36,115,64
1,35,115,24
1,35,115,72
1,36,115,60
1,36,111,28
1,36,115,4
1,33,115,100
1,31,115,88
1,29,115,48
1,36,115,8
1,41,115,96
1,40,115,88
1,36,115,32
1,40,115,96
1,39,115,4
1,41,115,52
1,39,115,4
1,38,115,96
1,34,115,36
1,38,115,96
1,37,115,84
1,37,115,76
1,36,115,8
1,36,115,76
1,34,115,192
1,36,115,8
1,29,115,24
1,36,115,20
1,36,115,8
1,33,115,4
1,31,115,96
1,29,115,84
1,29,115,48
1,36,115,100
1,41,115,76
1,40,115,92
1,36,115,60
1,40,115,8
1,39,115,12
1,36,115,52
1,39,115,20
1,38,115,20
1,34,115,76
1,38,115,0
1,37,115,16
1,37,115,20
1,36,115,52
1,36,115,76
1,35,115,28
1,35,115,64
1,36,115,60
1,36,115,56
1,33,115,8
1,31,115,96
1,29,115,12
1,29,115,52
1,36,115,8
1,41,115,96
1,40,115,84
1,40,115,60
1,36,115,4
1,40,115,96
1,39,115,80
1,36,115,28
1,39,115,4
1,38,115,4
1,34,115,20
1,38,115,4
1,34,115,36
1,37,115,88
1,37,115,64
1,39,115,96
1,36,115,0
1,36,115,16
1,34,115,68
1,36,115,8
1,29,115,12
1,36,115,72
1,41,115,12
1,36,115,4
1,29,115,8
1,36,115,48
1,41,115,76
1,36,115,56
1,40,115,4
1,36,115,20
1,40,115,96
1,39,115,48
1,41,115,16
1,39,115,100
1,38,115,88
1,34,115,24
1,38,115,0
1,37,115,12
1,37,115,28
1,36,115,0
1,36,115,76
1,35,115,4
1,35,115,0
1,36,115,32
1,36,115,8
1,38,115,16
1,36,115,92
1,33,115,68
1,31,115,80
1,29,115,28
1,29,115,48
1,36,115,0
1,41,115,4
1,40,115,96
1,36,115,0
1,40,115,100
1,36,115,0
1,39,115,12
1,41,115,32
1,39,115,92
1,38,115,12
1,34,115,8
1,38,115,0
1,37,115,192
1,37,115,52
1,36,115,4
1,36,115,44
1,34,115,196
1,36,115,268
1,29,115,16
1,36,115,196
1,41,115,104
2,53,40,2632
2,57,41,0
2,60,48,0
2,53,58,12
2,58,34,0
2,62,55,0
2,53,44,32
2,60,63,0
2,57,37,0
2,53,44,36
2,58,44,0
2,62,58,0
2,53,35,36
2,57,41,0
2,60,63,4
2,53,55,40
2,58,59,0
2,62,55,0
2,58,70,40
2,55,72,0
2,48,42,32
2,53,46,592
2,57,38,376
2,60,44,0
2,57,58,48
2,60,63,0
2,53,35,32
2,58,51,0
2,53,46,48
2,55,55,0
2,58,62,0
2,53,72,28
2,57,46,8
2,60,55,0
2,57,46,44
2,60,55,0
2,58,39,52
2,53,37,4
2,55,51,0
2,57,61,68
2,61,47,0
2,57,51,16
2,53,53,0
2,47,68,4
2,48,46,8
2,57,51,4
2,48,44,60
2,58,66,0
2,55,68,40
2,48,53,0
2,49,59,44
2,55,78,0
2,50,30,72
2,53,63,0
2,47,61,32
2,50,41,20
2,53,68,0
2,57,61,164
2,53,66,40
2,57,61,0
2,58,42,36
2,53,48,4
2,55,48,0
2,53,61,40
2,57,61,0
2,53,51,36
2,55,53,0
2,58,44,0
2,53,53,48
2,57,68,0
2,55,53,44
2,58,44,0
2,53,51,0
2,57,63,56
2,53,46,0
2,53,41,44
2,55,46,0
2,58,49,0
2,53,46,532
2,57,38,376
2,60,44,0
2,57,58,48
2,60,63,0
2,53,35,32
2,58,51,0
2,53,46,48
2,58,62,0
2,55,55,4
2,53,72,28
2,57,46,8
2,60,55,0
2,57,46,44
2,60,55,0
2,58,39,52
2,53,37,4
2,55,51,0
2,57,61,68
2,61,47,0
2,57,51,16
2,53,53,0
2,47,68,4
2,48,46,8
2,57,51,4
2,48,44,60
2,58,66,0
2,55,68,40
2,48,53,0
2,49,59,44
2,55,78,0
2,50,30,72
2,53,63,0
2,47,61,32
2,50,41,192
2,53,68,0
2,57,61,112
2,53,66,40
2,57,61,0
2,58,42,36
2,53,48,4
2,55,48,0
2,53,61,40
2,57,61,0
2,53,51,36
2,55,53,0
2,58,44,0
2,53,53,48
2,57,68,0
2,55,53,44
2,58,44,0
2,53,51,0
2,57,63,56
2,53,46,0
2,53,41,44
2,55,46,0
2,58,49,0
2,57,53,96
2,60,53,0
2,50,41,32
2,60,68,0
2,61,70,44
2,55,53,0
2,58,74,0
2,58,53,0
2,62,48,0
2,65,48,0
2,55,68,388
2,55,40,48
2,58,59,0
2,53,46,40
2,57,38,376
2,60,44,0
2,57,58,48
2,60,63,0
2,53,35,32
2,58,51,0
2,53,46,48
2,58,62,0
2,55,55,4
2,53,72,28
2,57,46,8
2,60,55,0
2,57,46,44
2,60,55,0
2,58,39,52
2,53,37,4
2,55,51,0
2,57,61,68
2,61,47,0
2,57,51,16
2,53,53,0
2,47,68,4
2,48,46,8
2,57,51,4
2,48,44,60
2,58,66,0
2,55,68,40
2,48,53,0
2,49,59,44
2,55,78,0
2,50,30,72
2,53,63,0
2,47,61,32
2,50,41,12
2,53,68,0
2,57,61,8
2,53,66,40
2,57,61,0
2,58,42,36
2,53,48,4
2,55,48,0
2,53,61,40
2,57,61,0
2,53,51,36
2,55,53,0
2,58,44,0
2,53,53,48
2,57,68,0
2,55,53,44
2,58,44,0
2,53,51,0
2,57,63,56
2,53,46,0
2,53,41,44
2,55,46,0
2,58,49,0
2,53,53,96
2,57,61,0
2,58,51,16
2,53,53,0
2,55,38,0
2,57,61,24
2,53,46,4
2,58,62,52
2,53,41,0
2,55,33,0
2,53,46,48
2,57,58,0
2,55,48,64
2,58,66,0
2,53,63,8
2,52,48,380
2,48,63,380
2,53,53,44
2,57,51,8
2,60,58,0
2,57,58,44
2,60,55,0
2,55,32,44
2,62,48,0
2,58,34,4
2,53,46,4
2,52,58,388
2,48,55,4
2,53,66,88
2,57,55,12
2,60,63,0
2,57,58,64
2,60,61,0
2,55,51,12
2,58,49,0
2,62,58,0
2,53,66,384
2,52,58,372
2,48,46,8
2,53,68,44
2,53,55,104
2,52,55,80
2,52,63,76
2,51,66,104
2,51,59,60
2,50,51,52
2,50,53,60
2,49,70,88
2,49,59,72
2,48,58,80
2,48,48,52
2,47,55,96
2,47,58,64
2,48,61,80
2,55,63,384
2,53,68,24
2,53,61,104
2,52,63,108
2,52,63,72
2,51,70,108
2,51,62,44
2,50,55,40
2,50,63,64
2,49,70,100
2,49,70,64
2,48,66,88
2,48,58,72
2,46,55,72
2,53,61,0
2,48,51,8
2,55,63,4
2,53,72,392
2,48,55,0
2,53,68,44
2,53,55,104
2,52,55,80
2,52,63,76
2,51,66,104
2,51,59,60
2,50,51,52
2,50,53,60
2,49,70,88
2,49,59,72
2,48,58,80
2,48,48,52
2,47,55,96
2,47,58,64
2,48,61,80
2,55,63,384
2,53,68,24
2,53,61,104
2,52,63,108
2,52,63,72
2,51,70,108
2,51,62,44
2,50,55,40
2,50,63,64
2,49,70,100
2,49,70,64
2,48,66,12
2,48,58,72
2,46,55,72
2,53,61,0
2,48,51,8
2,55,63,4
2,53,72,20
2,48,55,0
2,53,68,44
2,53,55,104
2,52,55,80
2,52,63,20
2,51,66,40
2,51,59,60
2,50,51,52
2,50,53,60
2,49,70,88
2,49,59,28
2,48,58,80
2,48,48,52
2,47,55,96
2,47,58,0
2,48,61,40
2,55,63,92
2,53,68,24
2,53,61,104
2,52,63,108
2,52,63,72
2,51,70,108
2,51,62,44
2,50,55,40
2,50,63,0
2,49,70,100
2,49,70,64
2,48,66,88
2,48,58,72
2,46,55,72
2,53,61,0
2,48,51,8
2,55,63,4
2,53,72,380
2,48,55,0
3,65,70,2636
3,72,83,4
3,72,73,76
3,72,73,60
3,74,81,184
3,65,56,0
3,72,82,0
3,67,57,4
3,70,79,188
3,69,76,180
3,70,79,168
3,64,67,168
3,72,81,4
3,69,68,176
3,72,80,180
3,65,78,388
3,67,76,4
3,69,80,192
3,70,84,184
3,72,83,20
3,65,65,16
3,72,73,60
3,72,80,40
3,74,81,184
3,67,59,108
3,65,58,0
3,72,83,4
3,70,76,188
3,69,68,0
3,70,80,184
3,72,83,16
3,64,62,12
3,67,71,0
3,60,81,28
3,62,72,192
3,64,70,0
3,67,76,196
3,66,84,0
3,65,63,12
3,61,82,68
3,62,87,184
3,69,83,168
3,68,88,172
3,64,72,20
3,67,75,12
3,67,77,56
3,69,80,0
3,70,82,0
3,72,60,8
3,69,80,564
3,72,88,180
3,72,85,56
3,72,75,68
3,72,83,64
3,74,84,8
3,72,82,208
3,64,73,0
3,70,79,180
3,69,82,0
3,70,84,196
3,69,75,4
3,64,75,164
3,69,69,184
3,67,80,156
3,65,84,172
3,64,75,0
3,62,82,196
3,65,81,176
3,60,84,0
3,60,76,40
3,65,82,184
3,60,81,172
3,62,86,176
3,65,87,0
3,70,92,12
3,74,84,196
3,72,82,8
3,64,81,0
3,69,74,376
3,64,73,4
3,69,68,84
3,70,90,0
3,69,68,12
3,67,78,12
3,65,85,188
3,62,85,376
3,72,79,236
3,72,74,36
3,72,79,36
3,72,84,48
3,74,75,200
3,72,72,180
3,70,78,196
3,74,83,176
3,72,79,180
3,70,85,188
3,69,74,4
3,72,81,200
3,67,65,8
3,60,80,8
3,72,84,204
3,72,78,44
3,72,87,88
3,72,81,88
3,74,83,192
3,72,80,0
3,70,83,0
3,74,72,0
3,72,81,0
3,70,78,196
3,69,73,4
3,72,75,196
3,67,69,52
3,60,80,8
3,62,75,8
3,64,78,188
3,67,71,8
3,66,82,8
3,65,71,24
3,61,85,140
3,62,83,0
3,69,80,192
3,68,84,188
3,67,82,12
3,64,60,8
3,67,68,20
3,69,84,184
3,70,87,0
3,72,77,28
3,69,73,568
3,72,87,184
3,72,84,68
3,72,82,72
3,72,83,92
3,74,72,16
3,72,85,4
3,64,74,4
3,70,82,180
3,69,82,0
3,70,84,196
3,69,75,12
3,64,83,112
3,69,81,180
3,67,79,0
3,65,83,0
3,64,79,192
3,62,76,40
3,65,82,176
3,60,84,8
3,60,71,40
3,65,81,192
3,60,81,168
3,62,85,188
3,65,80,0
3,70,85,12
3,74,82,184
3,64,73,8
3,72,73,0
3,69,85,368
3,64,79,12
3,69,81,80
3,70,84,4
3,69,68,0
3,67,75,196
3,65,75,52
3,62,80,0
3,72,81,216
3,72,73,36
3,72,81,48
3,72,84,76
3,74,81,8
3,72,76,200
3,70,84,180
3,74,74,196
3,72,89,192
3,70,79,164
3,69,73,188
3,72,79,184
3,67,70,180
3,60,84,556
3,72,91,204
3,72,77,40
3,72,81,88
3,72,77,100
3,74,84,184
3,72,74,8
3,70,81,4
3,74,65,12
3,72,80,192
3,70,77,192
3,69,73,4
3,72,78,0
3,67,73,28
3,65,78,12
3,67,76,0
3,69,82,100
3,69,71,40
3,69,79,56
3,74,83,180
3,72,81,20
3,69,75,4
3,67,77,212
3,69,71,0
3,70,92,4
3,70,83,56
3,70,82,92
3,73,77,16
3,72,75,68
3,64,77,136
3,60,82,0
3,62,84,0
3,64,83,176
3,67,87,0
3,66,85,564
3,65,88,8
3,61,77,4
3,62,90,192
3,69,77,180
3,68,89,180
3,64,66,16
3,67,72,0
3,69,74,396
3,70,89,164
3,72,80,8
3,69,73,568
3,72,83,184
3,72,83,80
3,72,80,56
3,72,84,80
3,74,78,0
3,72,84,8
3,65,88,8
3,70,86,180
3,69,72,12
3,70,82,188
3,69,74,36
3,64,68,4
3,69,79,204
3,67,73,4
3,65,74,0
3,64,81,184
3,62,83,20
3,65,80,180
3,60,83,172
3,60,74,40
3,65,81,192
3,60,84,172
3,62,85,192
3,65,68,192
3,70,85,4
3,74,86,0
3,72,81,20
3,64,63,4
3,69,73,4
3,64,71,20
3,69,74,76
3,70,85,192
3,69,72,12
3,67,76,0
3,65,84,176
3,62,83,372
3,72,81,168
3,72,69,36
3,72,88,56
3,72,77,84
3,74,80,24
3,72,78,0
3,70,83,196
3,74,72,192
3,72,83,192
3,70,79,180
3,69,73,4
3,72,80,180
3,67,72,8
3,60,77,48
3,72,87,208
3,72,74,56
3,72,80,88
3,72,77,96
3,74,87,196
3,72,71,16
3,70,83,0
3,74,67,4
3,72,77,8
3,70,77,184
3,69,65,4
3,72,75,188
3,67,80,16
3,72,81,4
3,72,81,64
3,72,81,92
3,72,78,96
3,74,87,0
3,72,75,0
3,70,85,0
3,74,72,188
3,72,80,84
3,70,82,4
3,69,73,0
3,72,77,188
3,67,78,16
3,65,79,376
3,67,74,0
3,69,80,192
3,69,73,60
3,69,76,88
3,72,81,192
