track,note,velocity,time
3,64,98,2155
3,64,0,107
3,67,85,13
3,67,0,94
3,74,92,26
3,74,0,205
3,74,89,35
3,74,0,50
3,72,80,30
3,72,0,34
3,74,77,6
3,74,0,58
3,76,80,22
3,76,0,37
3,71,85,3
3,71,0,251
3,71,92,69
3,71,0,32
3,74,83,8
3,74,0,39
3,78,82,41
3,78,0,260
3,71,98,100
3,71,0,33
3,74,80,7
3,74,0,27
3,79,89,53
3,79,0,384
3,64,103,136
3,64,0,60
3,67,87,20
3,67,0,40
3,74,98,80
3,74,0,151
3,64,98,129
3,64,0,58
3,67,85,22
3,67,0,36
3,76,92,84
3,76,0,36
3,74,85,4
3,74,0,123
3,64,100,117
3,64,0,54
3,67,92,26
3,67,0,35
3,74,92,85
3,74,0,381
3,64,98,139
3,64,0,86
3,67,85,34
3,67,0,62
3,74,92,58
3,74,0,196
3,74,98,44
3,74,0,63
3,72,92,17
3,72,0,49
3,74,98,31
3,74,0,31
3,76,80,9
3,76,0,25
3,71,80,55
3,71,0,220
3,71,89,60
3,71,0,34
3,74,83,6
3,74,0,30
3,78,98,50
3,78,0,259
3,71,95,101
3,71,0,30
3,74,89,10
3,74,0,27
3,79,89,53
3,79,0,384
3,64,95,136
3,64,0,58
3,67,89,22
3,67,0,38
3,74,98,82
3,74,0,158
3,64,98,122
3,64,0,54
3,67,85,26
3,67,0,31
3,76,85,89
3,76,0,33
3,74,83,7
3,74,0,138
3,64,89,102
3,64,0,61
3,67,89,19
3,67,0,31
3,74,89,89
3,74,0,511
3,67,89,249
3,67,0,52
3,67,85,28
3,67,0,32
3,69,85,8
3,69,0,44
3,69,87,36
3,69,0,30
3,71,89,10
3,71,0,43
3,71,87,37
3,71,0,31
3,69,85,9
3,69,0,44
3,69,83,36
3,69,0,27
3,67,85,13
3,67,0,48
3,67,85,32
3,67,0,29
3,69,83,11
3,69,0,33
3,69,83,47
3,69,0,24
3,71,89,16
3,71,0,46
3,71,92,34
3,71,0,29
3,69,92,11
3,69,0,52
3,67,92,28
3,67,0,19
3,74,89,21
3,74,0,44
3,74,87,36
3,74,0,31
3,76,95,9
3,76,0,40
3,76,78,40
3,76,0,23
3,78,83,17
3,78,0,44
3,78,83,36
3,78,0,31
3,76,80,9
3,76,0,50
3,74,85,30
3,74,0,29
3,78,92,11
3,78,0,277
3,76,95,83
3,76,0,52
3,78,74,28
3,78,0,28
3,79,80,12
3,79,0,39
3,79,80,41
3,79,0,28
3,79,83,12
3,79,0,40
3,79,79,40
3,79,0,32
3,79,83,8
3,79,0,40
3,79,79,40
3,79,0,30
3,79,83,10
3,79,0,40
3,79,77,40
3,79,0,29
3,79,80,11
3,79,0,42
3,79,77,38
3,79,0,30
3,79,83,10
3,79,0,33
3,79,80,47
3,79,0,27
3,79,87,13
3,79,0,36
3,76,92,44
3,76,0,25
3,78,83,15
3,78,0,30
3,79,83,50
3,79,0,32
3,81,85,8
3,81,0,376
3,64,103,344
3,64,0,83
3,67,89,37
3,67,0,59
3,74,98,61
3,74,0,200
3,74,92,40
3,74,0,55
3,72,83,25
3,72,0,23
3,74,83,17
3,74,0,53
3,76,80,27
3,76,0,28
3,71,89,12
3,71,0,218
3,71,98,102
3,71,0,28
3,74,85,12
3,74,0,27
3,78,83,53
3,78,0,237
3,71,98,123
3,71,0,33
3,74,89,7
3,74,0,24
3,79,92,56
3,79,0,374
3,64,103,146
3,64,0,51
3,67,89,29
3,67,0,30
3,74,98,90
3,74,0,137
3,64,103,143
3,64,0,51
3,67,89,29
3,67,0,27
3,76,98,93
3,76,0,30
3,74,89,10
3,74,0,120
3,64,100,120
3,64,0,49
3,67,89,31
3,67,0,32
3,74,103,88
3,74,0,233
3,68,98,4367
3,68,0,47
3,68,89,33
3,68,0,31
3,70,80,9
3,70,0,46
3,70,79,34
3,70,0,34
3,72,83,6
3,72,0,44
3,72,80,36
3,72,0,31
3,70,83,9
3,70,0,40
3,70,79,40
3,70,0,30
3,68,82,10
3,68,0,35
3,68,83,45
3,68,0,29
3,70,80,11
3,70,0,35
3,70,80,45
3,70,0,32
3,72,79,8
3,72,0,42
3,72,83,38
3,72,0,26
3,70,85,14
3,70,0,51
3,68,85,29
3,68,0,21
3,75,98,19
3,75,0,44
3,75,83,36
3,75,0,32
3,77,89,8
3,77,0,35
3,77,80,45
3,77,0,23
3,79,85,17
3,79,0,48
3,79,87,32
3,79,0,31
3,77,77,9
3,77,0,40
3,75,89,40
3,75,0,26
3,79,98,14
3,79,0,272
3,77,89,88
3,77,0,51
3,79,72,29
3,79,0,28
3,80,83,12
3,80,0,45
3,80,80,35
3,80,0,29
3,80,78,11
3,80,0,35
3,80,77,45
3,80,0,29
3,80,78,11
3,80,0,39
3,80,76,41
3,80,0,29
3,80,80,11
3,80,0,40
3,80,72,40
3,80,0,27
3,80,78,13
3,80,0,42
3,80,78,38
3,80,0,26
3,80,74,14
3,80,0,42
3,80,72,38
3,80,0,29
3,80,79,11
3,80,0,36
3,77,80,44
3,77,0,29
3,79,80,11
3,79,0,34
3,80,77,46
3,80,0,38
3,82,83,2
3,82,0,452
3,65,98,268
3,65,0,85
3,68,85,35
3,68,0,55
3,75,89,65
3,75,0,194
3,75,89,46
3,75,0,53
3,73,85,27
3,73,0,34
3,75,83,6
3,75,0,54
3,77,79,26
3,77,0,27
3,72,92,13
3,72,0,190
3,72,98,130
3,72,0,37
3,75,80,3
3,75,0,38
3,79,89,42
3,79,0,240
3,72,98,120
3,75,85,40
3,72,0,2
3,75,0,28
3,80,89,50
3,80,0,355
3,65,98,165
3,65,0,62
3,68,85,18
3,68,0,34
3,75,92,86
3,75,0,147
3,65,98,133
3,65,0,54
3,68,83,26
3,68,0,32
3,77,100,88
3,77,0,35
3,75,89,5
3,75,0,128
3,65,98,112
3,65,0,60
3,68,87,20
3,68,0,31
3,75,92,89
3,75,0,383
3,65,103,377
3,65,0,61
3,68,87,19
3,68,0,46
3,75,92,74
3,75,0,185
3,65,98,95
3,65,0,57
3,68,89,23
3,68,0,33
3,77,92,87
3,77,0,32
3,75,92,8
3,75,0,175
3,65,98,65
3,65,0,68
3,68,85,12
3,68,0,29
3,75,98,131
3,75,0,821
3,80,98,1099
3,80,0,301
3,79,87,59
3,79,0,27
3,80,74,13
3,80,0,29
3,79,78,11
3,79,0,33
3,77,85,7
3,77,0,383
3,79,92,97
3,79,0,50
3,75,92,30
3,75,0,47
3,75,89,73
3,75,0,521
3,80,92,239
3,80,0,300
3,79,85,60
3,79,0,28
3,80,80,12
3,80,0,29
3,79,72,11
3,79,0,26
3,77,83,14
3,77,0,408
3,79,92,72
3,79,0,61
3,75,98,19
3,75,0,46
3,75,89,74
3,75,0,637
3,80,95,83
3,80,0,372
3,79,80,28
3,79,0,30
3,80,77,10
3,80,0,30
3,79,77,10
3,79,0,26
3,77,83,14
3,77,0,425
3,79,89,55
3,79,0,54
3,75,98,26
3,75,0,37
3,75,89,83
3,75,0,558
3,80,92,202
3,80,0,330
3,79,80,30
3,79,0,29
3,80,78,11
3,80,0,29
3,79,78,11
3,79,0,28
3,77,80,12
3,77,0,411
3,79,85,69
3,79,0,64
3,75,83,16
3,75,0,67
3,75,87,53
3,75,0,493
4,36,125,6235
4,36,0,233
4,43,127,7
4,43,0,228
4,35,127,12
4,35,0,226
4,42,127,14
4,42,0,198
4,35,127,42
4,35,0,234
4,42,127,6
4,42,0,199
4,28,127,41
4,28,0,182
4,35,127,18
4,35,0,39
4,40,109,1
4,40,0,113
4,35,127,7
4,35,0,104
4,36,112,16
4,36,0,185
4,43,108,55
4,43,0,161
4,31,127,39
4,36,127,40
4,31,0,4
4,36,0,205
4,43,114,31
4,43,0,193
4,31,127,47
4,31,0,233
4,38,127,7
4,38,0,213
4,43,120,27
4,43,0,202
4,43,116,38
4,43,0,113
4,38,109,7
4,38,0,98
4,36,127,22
4,36,0,170
4,36,125,30
4,43,120,40
4,36,0,5
4,43,0,211
4,36,127,24
4,36,0,170
4,36,123,30
4,43,112,40
4,36,0,5
4,43,0,217
4,35,127,18
4,35,0,160
4,35,120,40
4,42,115,40
4,35,0,6
4,42,0,207
4,40,114,27
4,40,0,228
4,35,116,12
4,40,112,120
4,35,0,1
4,40,0,97
4,36,127,22
4,36,0,217
4,43,120,23
4,43,0,218
4,36,123,22
4,36,0,230
4,43,111,10
4,43,0,210
4,38,127,30
4,38,0,609
4,36,127,351
4,36,0,141
4,36,127,59
4,36,0,39
4,43,112,1
4,43,0,195
4,35,127,45
4,35,0,134
4,35,127,66
4,35,0,38
4,42,126,2
4,42,0,140
4,47,105,20
4,47,0,26
4,42,127,14
4,42,0,36
4,35,127,4
4,35,0,142
4,35,127,58
4,35,0,40
4,42,118,0
4,42,0,215
4,40,118,25
4,40,0,140
4,43,127,60
4,43,0,47
4,47,120,73
4,47,0,65
4,43,127,15
4,43,0,32
4,40,108,8
4,40,0,34
4,36,127,6
4,36,0,122
4,36,127,78
4,36,0,40
4,31,127,0
4,31,0,182
4,36,127,58
4,36,0,137
4,36,127,63
4,43,118,40
4,36,0,1
4,43,0,189
4,31,127,50
4,31,0,131
4,38,116,109
4,38,0,140
4,43,116,20
4,43,0,26
4,38,116,14
4,38,0,38
4,31,127,2
4,31,0,93
4,37,125,387
4,37,0,233
4,44,127,7
4,44,0,228
4,36,127,12
4,36,0,226
4,43,127,14
4,43,0,198
4,36,127,42
4,36,0,234
4,43,127,6
4,43,0,199
4,29,127,41
4,29,0,182
4,36,127,18
4,36,0,39
4,41,109,1
4,41,0,113
4,36,127,7
4,36,0,104
4,37,112,16
4,37,0,185
4,44,108,55
4,44,0,161
4,32,127,39
4,37,127,40
4,32,0,4
4,37,0,205
4,44,114,31
4,44,0,193
4,32,127,47
4,32,0,233
4,39,127,7
4,39,0,213
4,44,120,27
4,44,0,202
4,44,116,38
4,44,0,113
4,39,109,7
4,39,0,98
4,37,127,22
4,37,0,170
4,37,125,30
4,44,120,40
4,37,0,5
4,44,0,211
4,37,127,24
4,37,0,170
4,37,123,30
4,44,112,40
4,37,0,5
4,44,0,217
4,36,127,18
4,36,0,160
4,36,120,40
4,43,115,40
4,36,0,6
4,43,0,207
4,41,114,27
4,41,0,228
4,36,116,12
4,41,112,120
4,36,0,1
4,41,0,97
4,37,127,22
4,37,0,217
4,44,120,23
4,44,0,218
4,37,123,22
4,37,0,230
4,44,111,10
4,44,0,210
4,39,127,30
4,39,0,609
4,37,127,351
4,37,0,141
4,37,127,59
4,37,0,39
4,44,112,1
4,44,0,195
4,36,127,45
4,36,0,134
4,36,127,66
4,36,0,38
4,43,126,2
4,43,0,140
4,48,105,20
4,48,0,26
4,43,127,14
4,43,0,36
4,36,127,4
4,36,0,142
4,36,127,58
4,36,0,40
4,43,118,0
4,43,0,215
4,41,118,25
4,41,0,140
4,44,127,60
4,44,0,47
4,48,120,73
4,48,0,65
4,44,127,15
4,44,0,32
4,41,108,8
4,41,0,34
4,37,127,6
4,37,0,122
4,37,127,78
4,37,0,40
4,32,127,0
4,32,0,182
4,37,127,58
4,37,0,137
4,37,127,63
4,44,118,40
4,37,0,1
4,44,0,189
4,32,127,50
4,32,0,131
4,39,116,109
4,39,0,140
4,44,116,20
4,44,0,26
4,39,116,14
4,39,0,38
4,32,127,2
4,32,0,93
4,37,126,387
4,37,0,204
4,44,107,36
4,44,0,161
4,32,127,39
4,37,118,40
4,32,0,6
4,37,0,202
4,37,88,32
4,37,0,447
4,37,127,1953
4,37,0,224
4,44,115,16
4,44,0,154
4,36,109,46
4,36,0,36
4,37,90,4
4,37,0,184
4,43,111,16
4,44,101,40
4,43,0,3
4,44,0,225
4,32,118,12
4,32,0,193
4,37,110,7
4,39,88,40
4,37,0,4
4,39,0,219
4,32,118,17
4,32,0,192
4,38,102,8
4,39,80,40
4,38,0,7
4,39,0,71
4,32,110,2
4,39,99,40
4,32,0,6
4,39,0,103
4,37,126,11
4,37,0,181
4,43,116,19
4,43,0,38
4,44,99,2
4,44,0,184
4,36,116,16
4,37,105,40
4,36,0,6
4,37,0,230
4,44,88,4
4,44,0,233
4,32,110,7
4,32,0,175
4,32,107,25
4,39,77,40
4,32,0,5
4,39,0,169
4,39,90,26
4,32,95,40
4,39,0,3
4,32,0,151
4,32,105,46
4,32,0,84
4,34,107,36
4,34,0,48
4,37,127,72
4,37,0,270
4,44,118,10
4,44,0,194
4,36,109,6
4,36,0,40
4,37,101,0
4,37,0,186
4,43,101,14
4,43,0,39
4,44,86,1
4,44,0,235
4,32,112,5
4,39,99,240
4,32,0,2
4,39,0,181
4,31,111,17
4,32,115,40
4,31,0,8
4,32,0,183
4,39,115,9
4,39,0,115
4,37,115,5
4,36,116,40
4,37,0,6
4,36,0,108
4,37,118,6
4,37,0,183
4,43,109,17
4,44,110,40
4,43,0,8
4,44,0,219
4,37,115,13
4,37,0,230
4,44,112,10
4,31,108,200
4,44,0,4
4,32,118,36
4,31,0,2
4,32,0,956
5,67,74,1435
5,74,83,0
5,79,83,0
5,79,0,24
5,67,0,1
5,74,0,2
5,74,86,40
5,79,85,0
5,67,79,0
5,67,0,48
5,79,0,9
5,74,0,1
5,67,78,22
5,67,0,7
5,72,83,18
5,79,75,0
5,67,54,0
5,67,0,45
5,72,0,0
5,79,0,1
5,67,80,42
5,72,85,0
5,79,82,0
5,67,0,41
5,79,0,22
5,72,0,2
5,67,82,15
5,67,0,23
5,74,88,13
5,67,85,0
5,79,85,0
5,67,0,422
5,79,0,1
5,74,0,1
5,36,74,56
5,60,68,0
5,64,73,0
5,62,71,0
5,67,73,0
5,36,0,40
5,67,0,15
5,62,0,1
5,60,0,0
5,64,0,3
5,62,78,32
5,67,76,0
5,60,71,0
5,64,79,0
5,67,0,60
5,62,0,2
5,60,0,3
5,64,0,1
5,62,73,54
5,67,73,0
5,60,69,0
5,64,73,0
5,62,0,64
5,60,0,3
5,64,0,3
5,67,0,0
5,62,75,50
5,64,79,0
5,60,73,0
5,67,76,0
5,62,0,70
5,64,0,3
5,67,0,1
5,60,0,0
5,64,76,28
5,59,72,0
5,47,75,0
5,66,71,0
5,64,0,43
5,66,0,1
5,59,0,3
5,47,0,4
5,64,83,39
5,59,74,0
5,66,77,0
5,64,0,37
5,59,0,4
5,66,0,3
5,66,73,76
5,63,71,0
5,59,65,0
5,47,62,0
5,63,0,15
5,66,0,0
5,59,0,5
5,47,0,35
5,66,71,2
5,63,69,0
5,59,68,0
5,66,0,34
5,63,0,1
5,59,0,4
5,57,68,14
5,62,73,0
5,66,69,0
5,47,73,0
5,47,0,54
5,66,0,0
5,62,0,0
5,57,0,1
5,62,79,45
5,66,69,0
5,57,70,0
5,66,0,87
5,57,0,2
5,62,0,0
5,62,78,31
5,66,73,0
5,57,69,0
5,66,0,66
5,62,0,1
5,57,0,1
5,62,80,52
5,66,73,0
5,57,72,0
5,66,0,55
5,62,0,0
5,57,0,2
5,40,88,35
5,62,79,0
5,59,75,0
5,67,72,0
5,59,0,59
5,67,0,1
5,62,0,2
5,40,0,2
5,59,80,32
5,62,83,0
5,67,79,0
5,59,0,67
5,62,0,4
5,67,0,2
5,67,85,47
5,59,85,0
5,64,86,0
5,59,0,24
5,67,0,0
5,64,0,4
5,64,76,26
5,59,78,0
5,67,78,0
5,59,0,46
5,64,0,1
5,67,0,3
5,36,92,22
5,52,76,0
5,48,75,0
5,55,80,0
5,59,76,0
5,67,78,0
5,59,0,64
5,67,0,2
5,59,80,38
5,67,80,0
5,59,0,45
5,67,0,24
5,62,85,51
5,67,79,0
5,62,0,57
5,67,0,4
5,62,86,59
5,67,79,0
5,52,0,50
5,55,0,1
5,48,0,0
5,67,0,10
5,62,0,3
5,60,80,56
5,55,68,0
5,52,64,0
5,67,71,0
5,48,71,0
5,60,0,24
5,67,0,2
5,60,76,30
5,67,75,0
5,60,0,41
5,67,0,13
5,62,80,66
5,67,69,0
5,67,0,24
5,62,0,0
5,62,76,29
5,67,74,0
