track,note,velocity,time
0,33,96,1724
0,33,101,16
0,35,99,16
0,38,94,16
0,35,97,208
0,64,71,16
0,38,96,0
0,64,66,188
0,54,77,188
0,63,72,0
0,54,80,16
0,64,73,0
0,38,98,0
0,64,67,16
0,38,100,0
0,54,85,16
0,64,68,0
0,63,70,188
0,38,98,0
0,64,73,188
0,64,67,188
0,64,68,188
0,54,80,16
0,63,68,0
0,33,103,0
0,54,78,16
0,64,66,0
0,33,102,0
0,64,75,16
0,35,97,0
0,54,76,16
0,64,72,0
0,38,101,0
0,63,66,16
0,64,68,188
0,35,102,0
0,64,70,16
0,38,94,0
0,64,72,188
0,54,77,188
0,63,71,0
0,54,84,16
0,64,72,0
0,38,102,0
0,64,68,16
0,38,97,0
0,54,82,16
0,64,72,0
0,63,67,188
0,38,99,0
0,64,75,188
0,64,67,188
0,64,70,188
0,54,82,16
0,63,71,0
0,33,98,0
0,54,80,16
0,64,75,0
0,33,100,0
0,64,69,16
0,35,97,0
0,54,81,16
0,64,72,0
0,38,100,0
0,63,66,16
0,64,72,188
0,35,97,0
0,64,67,16
0,38,96,0
0,57,59,0
0,62,60,0
0,66,55,0
0,62,64,0
0,64,74,120
0,54,78,12
0,63,73,0
0,57,74,0
0,62,79,0
0,66,78,0
0,54,78,16
0,64,75,0
0,38,96,0
0,64,67,16
0,38,99,0
0,57,54,0
0,62,57,0
0,66,54,0
0,62,65,0
0,54,77,16
0,64,75,0
0,63,67,12
0,38,95,0
0,57,75,0
0,62,75,0
0,66,75,0
0,64,71,32
0,64,67,24
0,57,60,0
0,62,56,0
0,66,56,0
0,62,64,0
0,64,70,188
0,54,83,12
0,63,71,0
0,33,95,0
0,57,77,0
0,62,82,0
0,66,83,0
0,62,68,0
0,54,77,16
0,64,68,0
0,33,103,0
0,57,60,0
0,62,59,0
0,66,63,0
0,62,69,0
0,64,75,16
0,35,103,0
0,54,84,12
0,64,67,0
0,38,102,0
0,57,78,0
0,62,76,0
0,66,80,0
0,62,64,0
0,63,71,16
0,57,81,0
0,62,77,0
0,66,74,0
0,62,65,0
0,64,70,32
0,35,94,0
0,64,70,16
0,38,94,0
0,59,59,0
0,62,62,0
0,67,54,0
0,62,72,0
0,64,66,188
0,54,79,12
0,63,70,0
0,59,82,0
0,62,80,0
0,67,83,0
0,54,82,16
0,64,75,0
0,38,102,0
0,64,67,16
0,38,97,0
0,59,60,0
0,62,55,0
0,67,55,0
0,62,65,0
0,54,80,16
0,64,74,0
0,63,75,12
0,38,97,0
0,59,81,0
0,62,83,0
0,67,78,0
0,64,68,32
0,64,73,24
0,59,55,0
0,62,60,0
0,67,57,0
0,62,68,0
0,64,74,24
0,45,89,12
0,54,83,0
0,63,73,0
0,33,95,0
0,59,78,0
0,62,83,0
0,67,82,0
0,62,68,0
0,45,96,16
0,54,76,0
0,64,72,0
0,33,96,0
0,59,56,0
0,62,61,0
0,67,61,0
0,62,67,0
0,41,90,16
0,64,74,0
0,35,101,0
0,41,96,12
0,54,83,0
0,64,71,0
0,38,99,0
0,59,79,0
0,62,81,0
0,67,76,0
0,62,70,0
0,45,98,16
0,63,72,0
0,59,81,0
0,62,79,0
0,67,81,0
0,62,69,0
0,45,94,24
0,64,70,0
0,35,103,0
0,36,118,16
0,49,122,0
0,64,70,0
0,38,95,0
0,59,54,0
0,64,60,0
0,67,60,0
0,64,65,0
0,64,74,188
0,38,122,12
0,54,83,0
0,63,70,0
0,59,77,0
0,64,77,0
0,67,80,0
0,54,84,32
0,64,68,0
0,38,100,0
0,36,121,16
0,64,73,0
0,38,100,0
0,59,55,0
0,64,60,0
0,67,54,0
0,64,71,0
0,36,90,16
0,54,76,0
0,64,75,0
0,38,123,12
0,63,74,0
0,38,103,0
0,59,77,0
0,64,82,0
0,67,75,0
0,36,91,32
0,64,67,0
0,36,121,24
0,64,71,0
0,59,58,0
0,64,57,0
0,67,61,0
0,64,65,0
0,64,75,24
0,38,117,12
0,54,80,0
0,63,68,0
0,33,102,0
0,59,78,0
0,64,78,0
0,67,83,0
0,64,66,0
0,54,84,16
0,64,72,0
0,33,101,0
0,59,57,0
0,64,54,0
0,67,63,0
0,64,70,0
0,36,115,16
0,64,71,0
0,35,102,0
0,36,93,12
0,54,82,0
0,64,66,0
0,38,101,0
0,59,82,0
0,64,78,0
0,67,80,0
0,64,72,0
0,38,115,16
0,63,71,0
0,59,78,0
0,64,79,0
0,67,76,0
0,64,72,0
0,36,91,24
0,64,72,0
0,35,99,0
0,36,120,16
0,64,70,0
0,38,96,0
0,57,58,0
0,62,58,0
0,66,56,0
0,62,68,0
0,64,74,188
0,38,121,12
0,54,79,0
0,63,66,0
0,57,75,0
0,62,77,0
0,66,74,0
0,54,81,16
0,64,72,0
0,38,95,0
0,36,116,16
0,64,68,0
0,38,99,0
0,57,56,0
0,62,55,0
0,66,57,0
0,62,69,0
0,36,94,16
0,54,82,0
0,64,71,0
0,38,119,12
0,63,67,0
0,38,96,0
0,57,83,0
0,62,75,0
0,66,83,0
0,36,90,32
0,64,74,0
0,36,118,24
0,64,75,0
0,57,55,0
0,62,60,0
0,66,57,0
0,62,71,0
0,64,66,24
0,38,121,12
0,54,80,0
0,63,68,0
0,30,97,0
0,57,79,0
0,62,79,0
0,66,80,0
0,62,65,0
0,54,78,16
0,64,67,0
0,30,94,0
0,57,58,0
0,62,63,0
0,66,60,0
0,62,68,0
0,36,122,16
0,64,74,0
0,31,103,0
0,36,90,12
0,54,81,0
0,64,73,0
0,31,100,0
0,57,83,0
0,62,81,0
0,66,78,0
0,62,71,0
0,38,121,16
0,63,71,0
0,33,96,0
0,57,77,0
0,62,75,0
0,66,78,0
0,62,66,0
0,66,118,0
0,36,96,16
0,64,73,0
0,33,99,0
0,36,120,16
0,64,69,0
0,38,99,0
0,57,58,0
0,62,56,0
0,66,63,0
0,69,121,0
0,64,118,92
0,64,66,92
0,66,115,0
0,38,118,12
0,54,82,0
0,63,71,0
0,57,77,0
0,62,80,0
0,66,80,0
0,54,83,16
0,64,70,0
0,38,95,0
0,36,122,16
0,64,67,0
0,38,99,0
0,57,58,0
0,62,63,0
0,66,61,0
0,36,98,16
0,54,76,0
0,64,74,0
0,38,120,12
0,63,66,0
0,38,94,0
0,57,81,0
0,62,80,0
0,66,81,0
0,36,95,32
0,64,68,0
0,36,121,188
0,64,75,0
0,57,54,0
0,62,56,0
0,66,54,0
0,64,121,0
0,64,68,188
0,38,115,12
0,54,77,0
0,63,70,0
0,33,103,0
0,57,82,0
0,62,81,0
0,66,78,0
0,62,122,0
0,54,78,16
0,64,75,0
0,33,94,0
0,57,62,0
0,62,63,0
0,66,60,0
0,36,123,16
0,64,67,0
0,35,100,0
0,62,114,0
0,36,96,12
0,54,80,0
0,64,66,0
0,38,95,0
0,57,83,0
0,62,79,0
0,66,78,0
0,38,121,16
0,63,69,0
0,57,75,0
0,62,83,0
0,66,81,0
0,64,117,0
0,36,92,32
0,64,67,0
0,35,98,0
0,36,121,16
0,64,72,0
0,38,94,0
0,59,59,0
0,62,62,0
0,67,60,0
0,64,70,188
0,38,122,12
0,54,77,0
0,63,74,0
0,59,77,0
0,62,78,0
0,67,80,0
0,67,86,0
0,71,89,0
0,74,84,0
0,66,114,0
0,54,84,12
0,64,68,0
0,38,102,0
0,67,90,0
0,71,85,0
0,74,90,0
0,36,115,12
0,64,68,0
0,38,102,0
0,59,54,0
0,62,62,0
0,67,55,0
0,67,84,0
0,71,91,0
0,74,91,0
0,36,98,12
0,54,85,0
0,64,73,0
0,67,90,0
0,71,84,0
0,74,90,0
0,38,114,12
0,63,71,0
0,38,97,0
0,59,75,0
0,62,82,0
0,67,83,0
0,36,98,32
0,64,70,0
0,67,89,0
0,71,85,0
0,74,86,0
0,36,121,12
0,64,72,0
0,59,61,0
0,62,56,0
0,67,55,0
0,64,75,188
0,67,87,0
0,71,89,0
0,74,92,0
0,38,115,12
0,54,77,0
0,63,75,0
0,33,103,0
0,59,82,0
0,62,78,0
0,67,80,0
0,67,87,0
0,71,92,0
0,76,83,0
0,54,84,12
0,64,69,0
0,33,97,0
0,59,55,0
0,62,56,0
0,67,62,0
0,36,120,16
0,64,67,0
0,35,95,0
0,67,83,0
0,71,85,0
0,74,88,0
0,59,118,0
0,36,95,12
0,54,82,0
0,64,71,0
0,38,97,0
0,59,80,0
0,62,75,0
0,67,82,0
0,62,114,0
0,38,119,16
0,63,75,0
0,59,75,0
0,62,77,0
0,67,78,0
0,36,97,24
0,64,68,0
0,35,98,0
0,64,118,0
0,36,117,12
0,64,66,0
0,38,100,0
0,59,54,0
0,64,59,0
0,67,62,0
0,64,75,24
0,66,123,0
0,38,120,12
0,54,84,0
0,63,73,0
0,59,83,0
0,64,81,0
0,67,75,0
0,54,77,16
0,64,70,0
0,38,96,0
0,36,123,16
0,64,73,0
0,38,99,0
0,59,58,0
0,64,61,0
0,67,54,0
0,36,98,16
0,54,78,0
0,64,73,0
0,38,118,12
0,63,69,0
0,38,100,0
0,59,79,0
0,64,80,0
0,67,82,0
0,66,116,0
0,36,92,32
0,64,72,0
0,36,116,24
0,64,69,0
0,59,54,0
0,64,62,0
0,67,54,0
0,64,115,0
0,64,69,188
0,38,118,12
0,54,81,0
0,63,73,0
0,33,103,0
0,59,76,0
0,64,78,0
0,67,74,0
0,62,121,0
0,54,84,16
0,64,69,0
0,33,94,0
0,59,62,0
0,64,61,0
0,67,58,0
0,36,118,16
0,64,69,0
0,35,96,0
0,62,117,0
0,36,97,12
0,54,84,0
0,64,71,0
0,38,97,0
0,59,80,0
0,64,81,0
0,67,80,0
0,38,123,16
0,63,69,0
0,59,75,0
0,64,74,0
0,67,74,0
0,62,121,0
0,36,98,32
0,64,69,0
0,35,99,0
0,36,114,16
0,64,71,0
0,38,103,0
0,57,59,0
0,62,61,0
0,66,56,0
0,64,74,24
0,57,119,0
0,38,120,12
0,54,83,0
0,63,71,0
0,57,74,0
0,62,75,0
0,66,83,0
0,62,85,0
0,66,92,0
0,69,86,0
0,59,114,0
0,54,80,12
0,64,71,0
0,38,94,0
0,62,85,0
0,66,83,0
0,69,84,0
0,36,123,12
0,64,68,0
0,38,101,0
0,57,54,0
0,62,62,0
0,66,57,0
0,62,90,0
0,66,84,0
0,69,91,0
0,36,99,12
0,54,78,0
0,64,66,0
0,62,91,0
0,66,85,0
0,69,86,0
0,38,119,12
0,63,67,0
0,38,95,0
0,57,75,0
0,62,82,0
0,66,82,0
0,36,95,32
0,64,73,0
0,62,90,0
0,66,90,0
0,69,88,0
0,36,118,12
0,64,75,0
0,57,55,0
0,62,60,0
0,66,60,0
0,64,73,188
0,62,83,0
0,66,84,0
0,69,91,0
0,38,120,12
0,54,84,0
0,63,67,0
0,33,97,0
0,57,77,0
0,62,82,0
0,66,83,0
0,62,91,0
0,67,91,0
0,71,91,0
0,62,116,0
0,54,79,12
0,64,68,0
0,33,100,0
0,57,59,0
0,62,58,0
0,66,58,0
0,36,115,16
0,64,70,0
0,35,95,0
0,66,89,0
0,69,88,0
0,74,85,0
0,66,120,0
0,36,94,12
0,54,84,0
0,64,66,0
0,38,95,0
0,57,82,0
0,62,80,0
0,66,77,0
0,69,119,0
0,38,117,16
0,63,66,0
0,57,81,0
0,62,83,0
0,66,78,0
0,36,97,24
0,64,72,0
0,35,99,0
0,69,116,0
0,36,118,12
0,64,75,0
0,38,97,0
0,57,63,0
0,62,54,0
0,66,57,0
0,64,68,24
0,71,120,0
0,38,116,12
0,54,81,0
0,63,74,0
0,57,81,0
0,62,76,0
0,66,74,0
0,54,81,32
0,64,68,0
0,38,96,0
0,36,121,16
0,64,72,0
0,38,97,0
0,57,59,0
0,62,58,0
0,66,56,0
0,36,93,16
0,54,84,0
0,64,69,0
0,38,114,12
0,63,74,0
0,38,95,0
0,57,77,0
0,62,82,0
0,66,77,0
0,36,94,32
0,64,75,0
0,36,115,188
0,64,73,0
0,57,54,0
0,62,56,0
0,66,62,0
0,62,123,0
0,64,67,24
0,38,119,12
0,54,79,0
0,63,73,0
0,33,94,0
0,57,75,0
0,62,82,0
0,66,77,0
0,54,85,16
0,64,73,0
0,33,102,0
0,57,55,0
0,62,57,0
0,66,54,0
0,62,118,0
0,36,116,16
0,64,73,0
0,35,98,0
0,36,97,12
0,54,76,0
0,64,75,0
0,38,102,0
0,57,81,0
0,62,81,0
0,66,81,0
0,62,119,0
0,38,116,16
0,63,73,0
0,57,82,0
0,62,79,0
0,66,79,0
0,36,96,24
0,64,72,0
0,35,101,0
0,64,117,0
0,36,122,16
0,64,68,0
0,38,96,0
0,59,55,0
0,62,54,0
0,67,62,0
0,64,73,188
0,38,119,12
0,54,85,0
0,63,71,0
0,59,80,0
0,62,81,0
0,67,74,0
0,67,89,0
0,71,92,0
0,74,83,0
0,66,116,0
0,54,83,0
0,64,72,0
0,38,101,0
0,67,87,0
0,71,85,0
0,74,88,0
0,36,117,12
0,64,68,0
0,38,96,0
0,59,57,0
0,62,59,0
0,67,57,0
0,67,91,0
0,71,86,0
0,74,83,0
0,36,97,0
0,54,78,0
0,64,71,0
0,67,87,0
0,71,88,0
0,74,85,0
0,38,120,12
0,63,69,0
0,38,99,0
0,59,75,0
0,62,78,0
0,67,80,0
0,36,99,32
0,64,71,0
0,67,88,0
0,71,92,0
0,74,85,0
0,36,123,12
0,64,70,0
0,59,58,0
0,62,62,0
0,67,59,0
0,64,75,188
0,67,92,0
0,71,83,0
0,74,87,0
0,38,122,12
0,54,82,0
0,63,75,0
0,33,96,0
0,59,83,0
0,62,78,0
0,67,79,0
0,67,89,0
0,71,88,0
0,76,83,0
0,54,79,12
0,64,70,0
0,33,94,0
0,59,58,0
0,62,63,0
0,67,58,0
0,57,115,0
0,36,119,16
0,64,67,0
0,35,94,0
0,67,90,0
0,71,89,0
0,74,91,0
0,59,120,0
0,36,95,12
0,54,84,0
0,64,66,0
0,38,102,0
0,59,82,0
0,62,75,0
0,67,83,0
0,38,122,16
0,63,74,0
0,59,76,0
0,62,83,0
0,67,77,0
0,62,118,0
0,36,98,32
0,64,66,0
0,35,99,0
0,36,122,12
0,64,69,0
0,38,99,0
0,59,63,0
0,64,59,0
0,67,54,0
0,66,117,0
0,64,72,132
0,38,117,12
0,54,83,0
0,63,70,0
0,59,75,0
0,64,82,0
0,67,79,0
0,64,120,0
0,54,79,16
0,64,73,0
0,38,102,0
0,36,114,16
0,64,73,0
0,38,103,0
0,59,58,0
0,64,56,0
0,67,59,0
0,64,116,0
0,36,91,16
0,54,83,0
0,64,68,0
0,62,116,0
0,38,120,12
0,63,66,0
0,38,95,0
0,59,78,0
0,64,77,0
0,67,82,0
0,59,118,0
0,36,92,24
0,64,70,0
0,57,120,0
0,36,122,24
0,64,69,0
0,59,59,0
0,64,56,0
0,67,63,0
0,64,68,188
0,38,115,12
0,54,79,0
0,63,73,0
0,33,97,0
0,59,77,0
0,64,79,0
0,67,82,0
0,59,122,0
0,54,79,16
0,64,66,0
0,33,103,0
0,59,54,0
0,64,62,0
0,67,59,0
0,36,117,16
0,64,72,0
0,35,102,0
0,69,118,0
0,36,93,12
0,54,76,0
0,64,69,0
0,38,100,0
0,59,83,0
0,64,74,0
0,67,74,0
0,38,116,16
0,63,68,0
0,59,80,0
0,64,75,0
0,67,76,0
0,66,114,0
0,36,92,24
0,64,74,0
0,35,102,0
0,66,123,0
0,36,117,16
0,64,70,0
0,38,95,0
0,57,54,0
0,62,58,0
0,66,54,0
0,64,73,188
0,38,122,12
0,54,77,0
0,63,73,0
0,57,78,0
0,62,77,0
0,66,80,0
0,54,65,0
0,57,72,0
0,62,71,0
0,54,84,16
0,64,75,0
0,38,103,0
0,54,72,0
0,57,68,0
0,62,70,0
0,36,120,16
0,64,74,0
0,38,98,0
0,57,59,0
0,62,59,0
0,66,58,0
0,54,72,0
0,57,69,0
0,62,67,0
0,36,90,16
0,54,85,0
0,64,73,0
0,55,67,0
0,59,73,0
