track,note,velocity,time
2,74,108,837
2,74,0,55
2,71,108,60
2,71,0,120
2,69,108,0
2,69,0,120
2,71,108,0
2,71,0,60
2,69,108,0
2,69,0,60
2,71,108,0
2,71,0,60
2,69,108,0
2,69,0,60
2,71,108,0
2,71,0,60
2,69,108,0
2,69,0,60
2,71,108,0
2,71,0,120
2,66,108,0
2,66,0,120
2,74,108,0
2,74,0,55
2,71,108,60
2,71,0,120
2,66,108,0
2,66,0,120
2,64,108,0
2,64,0,120
2,66,108,0
2,66,0,120
2,64,108,0
2,64,0,60
2,62,108,0
2,62,0,60
2,66,108,0
2,66,0,120
2,64,108,0
2,64,0,60
2,62,108,0
2,62,0,55
2,74,108,60
2,74,0,60
2,74,108,0
2,74,0,60
2,74,108,0
2,74,0,60
2,74,108,0
2,74,0,60
2,74,108,0
2,74,0,180
2,74,108,0
2,74,0,60
2,76,108,0
2,76,0,120
2,74,108,0
2,74,0,60
2,71,108,0
2,71,0,180
2,66,108,0
2,66,0,120
2,74,108,0
2,74,0,60
2,74,108,0
2,74,0,60
2,74,108,0
2,74,0,60
2,74,108,0
2,74,0,60
2,74,108,0
2,74,0,60
2,74,108,0
2,74,0,60
2,74,108,0
2,74,0,60
2,74,108,0
2,74,0,120
2,76,108,0
2,76,0,60
2,74,108,0
2,74,0,55
2,74,108,120
2,74,0,60
2,74,108,0
2,74,0,60
2,74,108,0
2,74,0,180
2,74,108,0
2,74,0,60
2,74,108,0
2,74,0,60
2,74,108,0
2,74,0,60
2,76,108,0
2,76,0,60
2,74,108,0
2,74,0,55
2,76,108,360
2,76,0,60
2,76,108,0
2,76,0,60
2,76,108,0
2,76,0,120
2,76,108,0
2,76,0,60
2,76,108,0
2,76,0,60
2,76,108,0
2,76,0,60
2,76,108,0
2,76,0,60
2,78,108,0
2,78,0,60
2,76,108,0
2,76,0,55
2,66,108,360
2,66,0,120
2,69,108,0
2,69,0,60
2,66,108,0
2,66,0,120
2,62,108,0
2,62,0,60
2,66,108,0
2,66,0,120
2,62,108,0
2,62,0,60
2,66,108,0
2,66,0,180
2,62,108,0
2,62,0,120
2,59,108,120
2,59,0,60
2,59,108,0
2,59,0,60
2,62,108,0
2,62,0,60
2,62,108,0
2,62,0,120
2,66,108,0
2,66,0,120
2,64,108,0
2,64,0,60
2,62,108,0
2,62,0,60
2,64,108,0
2,64,0,60
2,59,108,0
2,59,0,60
2,62,108,0
2,62,0,175
2,67,108,60
2,67,0,60
2,67,108,0
2,67,0,60
2,67,108,0
2,67,0,60
2,67,108,0
2,67,0,120
2,62,108,0
2,62,0,120
2,67,108,0
2,67,0,60
2,67,108,0
2,67,0,120
2,67,108,0
2,67,0,175
2,69,108,180
2,69,0,60
2,69,108,0
2,69,0,60
2,66,108,0
2,66,0,60
2,69,108,0
2,69,0,60
2,66,108,0
2,66,0,120
2,69,108,0
2,69,0,60
2,71,108,0
2,71,0,60
2,69,108,0
2,69,0,60
2,71,108,0
2,71,0,120
2,66,108,0
2,66,0,115
2,66,108,240
2,66,0,60
2,66,108,0
2,66,0,60
2,69,108,0
2,69,0,60
2,66,108,0
2,66,0,60
2,66,108,0
2,66,0,120
2,66,108,0
2,66,0,60
2,64,108,0
2,64,0,60
2,62,108,0
2,62,0,60
2,64,108,0
2,64,0,60
2,66,108,0
2,66,0,120
2,64,108,0
2,64,0,60
2,62,108,0
2,62,0,55
2,59,108,120
2,59,0,120
2,62,108,0
2,62,0,120
2,66,108,0
2,66,0,120
2,64,108,0
2,64,0,60
2,62,108,0
2,62,0,120
2,64,108,0
2,64,0,60
2,59,108,0
2,59,0,60
2,62,108,0
2,62,0,115
2,67,108,120
2,67,0,60
2,67,108,0
2,67,0,60
2,67,108,0
2,67,0,60
2,67,108,0
2,67,0,115
2,62,108,60
2,62,0,60
2,67,108,0
2,67,0,60
2,67,108,0
2,67,0,120
2,69,108,0
2,69,0,120
2,67,108,0
2,67,0,115
2,69,108,180
2,69,0,60
2,66,108,0
2,66,0,60
2,69,108,0
2,69,0,60
2,66,108,0
2,66,0,60
2,69,108,0
2,69,0,60
2,66,108,0
2,66,0,60
2,71,108,0
2,71,0,60
2,66,108,0
2,66,0,120
2,69,108,0
2,69,0,55
2,69,108,60
2,69,0,60
2,71,108,0
2,71,0,60
2,69,108,0
2,69,0,60
2,71,108,0
2,71,0,120
2,66,108,0
2,66,0,115
2,71,108,480
2,71,0,180
2,66,108,0
2,66,0,115
2,71,108,420
2,71,0,180
2,66,108,0
2,66,0,115
2,62,108,60
2,62,0,60
2,64,108,0
2,64,0,60
2,66,108,0
2,66,0,120
2,64,108,0
2,64,0,120
2,66,108,0
2,66,0,120
2,64,108,0
2,64,0,120
2,62,108,0
2,62,0,235
2,71,108,60
2,71,0,60
2,66,108,0
2,66,0,120
2,69,108,0
2,69,0,60
2,66,108,0
2,66,0,55
2,71,108,8520
2,71,0,60
2,71,108,0
2,71,0,60
2,69,108,0
2,69,0,60
2,69,108,0
2,69,0,60
2,66,108,0
2,66,0,60
2,66,108,0
2,66,0,60
2,64,108,0
2,64,0,60
2,62,108,0
2,62,0,55
2,71,108,180
2,71,0,120
2,69,108,0
2,69,0,60
2,66,108,0
2,66,0,60
2,64,108,0
2,64,0,60
2,66,108,0
2,66,0,60
2,66,108,0
2,66,0,60
2,66,108,0
2,66,0,60
2,62,108,0
2,62,0,55
2,66,108,180
2,66,0,240
2,66,108,0
2,66,0,180
2,62,108,0
2,62,0,60
2,64,108,0
2,64,0,60
2,66,108,0
2,66,0,120
2,62,108,0
2,62,0,115
2,69,108,600
2,69,0,120
2,71,108,0
2,71,0,60
2,69,108,0
2,69,0,60
2,66,108,0
2,66,0,60
2,69,108,0
2,69,0,120
2,66,108,0
2,66,0,60
2,69,108,0
2,69,0,60
2,66,108,0
2,66,0,60
2,71,108,0
2,71,0,120
2,69,108,0
2,69,0,60
2,71,108,0
2,71,0,120
2,69,108,0
2,69,0,60
2,71,108,0
2,71,0,60
2,69,108,0
2,69,0,60
2,66,108,0
2,66,0,115
2,66,108,120
2,66,0,60
2,66,108,0
2,66,0,60
2,64,108,0
2,64,0,60
2,62,108,0
2,62,0,55
2,71,108,180
2,71,0,120
2,69,108,0
2,69,0,60
2,66,108,0
2,66,0,60
2,64,108,0
2,64,0,60
2,66,108,0
2,66,0,60
2,66,108,0
2,66,0,60
2,64,108,0
2,64,0,60
2,62,108,0
2,62,0,60
2,66,108,0
2,66,0,60
2,66,108,0
2,66,0,60
2,64,108,0
2,64,0,60
2,62,108,0
2,62,0,55
2,66,108,180
2,66,0,120
2,64,108,0
2,64,0,60
2,62,108,0
2,62,0,60
2,64,108,0
2,64,0,60
2,66,108,0
2,66,0,120
2,64,108,0
2,64,0,120
2,62,108,0
2,62,0,115
2,66,108,540
2,66,0,60
2,71,108,0
2,71,0,60
2,69,108,0
2,69,0,60
2,66,108,0
2,66,0,60
2,69,108,0
2,69,0,120
2,66,108,0
2,66,0,120
2,69,108,0
2,69,0,60
2,71,108,0
2,71,0,60
2,69,108,0
2,69,0,60
2,66,108,0
2,66,0,60
2,69,108,0
2,69,0,120
2,66,108,0
2,66,0,115
2,71,108,60
2,71,0,60
2,71,108,0
2,71,0,60
2,69,108,0
2,69,0,60
2,69,108,0
2,69,0,60
2,66,108,0
2,66,0,60
2,66,108,0
2,66,0,60
2,64,108,0
2,64,0,60
2,62,108,0
2,62,0,55
2,71,108,180
2,71,0,120
2,69,108,0
2,69,0,60
2,66,108,0
2,66,0,60
2,64,108,0
2,64,0,60
2,66,108,0
2,66,0,60
2,66,108,0
2,66,0,60
2,66,108,0
2,66,0,60
2,62,108,0
2,62,0,55
2,66,108,180
2,66,0,240
2,66,108,0
2,66,0,180
2,62,108,0
2,62,0,60
2,64,108,0
2,64,0,60
2,66,108,0
2,66,0,120
2,62,108,0
2,62,0,115
2,69,108,600
2,69,0,120
2,71,108,0
2,71,0,60
2,69,108,0
2,69,0,60
2,66,108,0
2,66,0,60
2,69,108,0
2,69,0,120
2,66,108,0
2,66,0,60
2,69,108,0
2,69,0,60
2,66,108,0
2,66,0,60
2,71,108,0
2,71,0,120
2,69,108,0
2,69,0,60
2,71,108,0
2,71,0,120
2,69,108,0
2,69,0,60
2,71,108,0
2,71,0,60
2,69,108,0
2,69,0,60
2,66,108,0
2,66,0,115
2,66,108,120
2,66,0,60
2,66,108,0
2,66,0,60
2,64,108,0
2,64,0,60
2,62,108,0
2,62,0,55
2,71,108,180
2,71,0,120
2,69,108,0
2,69,0,60
2,66,108,0
2,66,0,60
2,64,108,0
2,64,0,60
2,66,108,0
2,66,0,60
2,66,108,0
2,66,0,60
2,64,108,0
2,64,0,60
2,62,108,0
2,62,0,60
2,66,108,0
2,66,0,60
2,66,108,0
2,66,0,60
2,64,108,0
2,64,0,60
2,62,108,0
2,62,0,55
2,66,108,180
2,66,0,120
2,64,108,0
2,64,0,60
2,62,108,0
2,62,0,60
2,64,108,0
2,64,0,60
2,66,108,0
2,66,0,120
2,64,108,0
2,64,0,120
2,62,108,0
2,62,0,115
2,66,108,540
2,66,0,60
2,71,108,0
2,71,0,60
2,69,108,0
2,69,0,60
2,66,108,0
2,66,0,60
2,69,108,0
2,69,0,120
2,66,108,0
2,66,0,120
2,69,108,0
2,69,0,60
2,71,108,0
2,71,0,60
2,69,108,0
2,69,0,60
2,66,108,0
2,66,0,60
2,69,108,0
2,69,0,120
2,66,108,0
2,66,0,115
2,71,108,60
2,71,0,60
2,71,108,0
2,71,0,60
2,69,108,0
2,69,0,60
2,69,108,0
2,69,0,60
2,66,108,0
2,66,0,60
2,66,108,0
2,66,0,60
2,64,108,0
2,64,0,60
2,62,108,0
2,62,0,55
2,71,108,180
2,71,0,120
2,69,108,0
2,69,0,60
2,66,108,0
2,66,0,60
2,64,108,0
2,64,0,60
2,66,108,0
2,66,0,60
2,66,108,0
2,66,0,60
2,66,108,0
2,66,0,60
2,62,108,0
2,62,0,55
2,66,108,180
2,66,0,240
2,66,108,0
2,66,0,180
2,62,108,0
2,62,0,60
2,64,108,0
2,64,0,60
2,66,108,0
2,66,0,120
2,62,108,0
2,62,0,115
2,69,108,600
2,69,0,120
2,71,108,0
2,71,0,60
2,69,108,0
2,69,0,60
2,66,108,0
2,66,0,60
2,69,108,0
2,69,0,120
2,66,108,0
2,66,0,60
2,69,108,0
2,69,0,60
2,66,108,0
2,66,0,60
2,71,108,0
2,71,0,120
2,69,108,0
2,69,0,60
2,71,108,0
2,71,0,120
2,69,108,0
2,69,0,60
2,71,108,0
2,71,0,60
2,69,108,0
2,69,0,60
2,66,108,0
2,66,0,7
2,66,108,12
2,66,0,12
2,66,108,0
2,66,0,12
2,64,108,0
2,64,0,8
2,62,108,0
2,62,0,3
2,71,108,8
2,71,0,8
2,69,108,0
2,69,0,4
2,66,108,0
2,66,0,4
2,64,108,0
2,64,0,4
2,66,108,0
2,66,0,4
2,66,108,0
2,66,0,4
2,64,108,0
2,64,0,4
2,62,108,0
2,62,0,15
2,66,108,0
2,66,0,15
2,66,108,0
2,66,0,15
2,64,108,0
2,64,0,15
2,62,108,0
2,62,0,10
2,66,108,12
2,66,0,12
2,64,108,0
2,64,0,12
2,62,108,0
2,62,0,12
2,64,108,0
2,64,0,12
3,57,65,2819
3,62,65,0
3,66,65,0
3,66,0,114
3,62,0,0
3,57,0,0
3,57,60,6
3,62,60,0
3,66,60,0
3,66,0,75
3,62,0,0
3,57,0,0
3,66,65,45
3,62,65,0
3,57,65,0
3,57,0,114
3,62,0,0
3,66,0,0
3,57,57,6
3,62,57,0
3,66,57,0
3,66,0,83
3,62,0,0
3,57,0,0
3,57,65,37
3,62,65,0
3,66,65,0
3,66,0,114
3,62,0,0
3,57,0,0
3,57,48,6
3,62,48,0
3,66,48,0
3,66,0,85
3,62,0,0
3,57,0,0
3,57,65,35
3,62,65,0
3,66,65,0
3,66,0,114
3,62,0,0
3,57,0,0
3,57,57,6
3,62,57,0
3,66,57,0
3,66,0,57
3,62,0,0
3,57,0,0
3,54,67,67
3,59,67,0
3,62,67,0
3,62,0,25
3,59,0,0
3,54,0,0
3,54,54,1
3,59,54,0
3,62,54,0
3,62,0,66
3,59,0,0
3,54,0,0
3,54,60,24
3,59,60,0
3,62,60,0
3,62,0,61
3,59,0,0
3,54,0,0
3,62,60,1
3,59,60,0
3,54,60,0
3,54,0,57
3,59,0,0
3,62,0,0
3,54,65,1
3,59,65,0
3,62,65,0
3,62,0,114
3,59,0,0
3,54,0,0
3,54,57,6
3,59,57,0
3,62,57,0
3,62,0,83
3,59,0,0
3,54,0,0
3,54,65,37
3,59,65,0
3,62,65,0
3,62,0,33
3,59,0,0
3,54,0,0
3,54,54,1
3,59,54,0
3,62,54,0
3,62,0,84
3,59,0,0
3,54,0,0
3,62,48,2
3,59,48,0
3,54,48,0
3,54,0,63
3,59,0,0
3,62,0,0
3,54,60,1
3,59,60,0
3,62,60,0
3,62,0,55
3,59,0,0
3,54,0,0
3,62,65,1
3,59,65,0
3,54,65,0
3,54,0,114
3,59,0,0
3,62,0,0
3,54,57,6
3,59,57,0
3,62,57,0
3,62,0,57
3,59,0,0
3,54,0,0
3,55,65,63
3,59,65,0
3,62,65,0
3,62,0,114
3,59,0,0
3,55,0,0
3,55,60,6
3,59,60,0
3,62,60,0
3,62,0,61
3,59,0,0
3,55,0,0
3,55,60,1
3,59,60,0
3,62,60,0
3,62,0,57
3,59,0,0
3,55,0,0
3,55,65,1
3,59,65,0
3,62,65,0
3,62,0,114
3,59,0,0
3,55,0,0
3,62,57,6
3,59,57,0
3,55,57,0
3,55,0,83
3,59,0,0
3,62,0,0
3,55,65,37
3,59,65,0
3,62,65,0
3,62,0,114
3,59,0,0
3,55,0,0
3,55,48,6
3,59,48,0
3,62,48,0
3,62,0,63
3,59,0,0
3,55,0,0
3,62,60,1
3,59,60,0
3,55,60,0
3,55,0,55
3,59,0,0
3,62,0,0
3,55,65,1
3,59,65,0
3,62,65,0
3,62,0,114
3,59,0,0
3,55,0,0
3,55,57,6
3,59,57,0
3,62,57,0
3,62,0,57
3,59,0,0
3,55,0,0
3,57,65,63
3,61,65,0
3,64,65,0
3,64,0,114
3,61,0,0
3,57,0,0
3,64,60,6
3,61,60,0
3,57,60,0
3,57,0,61
3,61,0,0
3,64,0,0
3,57,60,1
3,61,60,0
3,64,60,0
3,64,0,57
3,61,0,0
3,57,0,0
3,57,65,1
3,61,65,0
3,64,65,0
3,64,0,114
3,61,0,0
3,57,0,0
3,57,57,6
3,61,57,0
3,64,57,0
3,64,0,60
3,61,0,0
3,57,0,0
3,57,65,60
3,61,65,0
3,64,65,0
3,64,0,114
3,61,0,0
3,57,0,0
3,57,60,6
3,61,60,0
3,64,60,0
3,64,0,51
3,61,0,0
3,57,0,0
3,57,70,309
3,62,70,0
3,66,70,0
3,66,0,114
3,62,0,0
3,57,0,0
3,57,70,6
3,62,70,0
3,66,70,0
3,66,0,77
3,62,0,0
3,57,0,0
3,57,70,43
3,62,70,0
3,66,70,0
3,66,0,114
3,62,0,0
3,57,0,0
3,57,70,6
3,62,70,0
3,66,70,0
3,66,0,71
3,62,0,0
3,57,0,0
3,66,70,49
3,62,70,0
3,57,70,0
3,57,0,114
3,62,0,0
3,66,0,0
3,66,70,6
3,62,70,0
3,57,70,0
3,57,0,65
3,62,0,0
3,66,0,0
3,57,70,55
3,62,70,0
3,66,70,0
3,66,0,114
3,62,0,0
3,57,0,0
3,57,70,6
3,62,70,0
3,66,70,0
3,66,0,57
3,62,0,0
3,57,0,0
3,59,74,63
3,62,74,0
3,66,74,0
3,66,0,114
3,62,0,0
3,59,0,0
3,59,69,6
3,62,69,0
3,66,69,0
3,66,0,75
3,62,0,0
3,59,0,0
3,66,74,45
3,62,74,0
3,59,74,0
3,59,0,114
3,62,0,0
3,66,0,0
3,59,66,6
3,62,66,0
3,66,66,0
3,66,0,51
3,62,0,0
3,59,0,0
