track,note,velocity,time
1,60,83,1136
1,67,85,0
1,72,89,0
1,75,81,0
1,75,80,4
1,58,73,192
1,77,93,184
1,63,65,168
1,67,69,4
1,56,71,0
1,72,77,4
1,75,66,8
1,79,92,4
1,55,83,376
1,63,69,4
1,68,66,0
1,53,76,0
1,72,86,0
1,67,73,0
1,75,72,172
1,58,78,36
1,63,69,8
1,68,62,0
1,72,81,8
1,75,71,8
1,56,68,172
1,77,85,0
1,63,69,20
1,79,68,0
1,75,71,0
1,70,64,0
1,55,80,4
1,74,72,48
1,56,69,4
1,63,77,0
1,72,82,0
1,68,69,0
1,67,68,12
1,75,76,180
1,75,79,4
1,72,79,4
1,63,65,28
1,58,73,4
1,68,64,4
1,72,81,28
1,75,79,8
1,80,89,8
1,79,80,160
1,75,82,4
1,72,80,4
1,46,63,4
1,58,69,0
1,55,63,0
1,63,64,0
1,62,83,0
1,58,76,0
1,62,83,0
1,63,70,4
1,55,67,4
1,56,49,4
1,63,60,0
1,46,61,0
1,60,86,0
1,53,58,4
1,56,89,4
1,63,81,0
1,60,86,0
1,46,82,4
1,46,73,0
1,62,90,0
1,63,68,0
1,55,76,0
1,58,68,196
1,62,83,4
1,55,79,0
1,63,72,0
1,58,75,4
1,46,69,4
1,56,59,0
1,63,54,0
1,60,77,4
1,53,54,0
1,56,74,4
1,63,76,0
1,53,77,0
1,60,74,4
1,46,76,4
1,67,57,16
1,63,81,4
1,58,73,0
1,55,78,0
1,51,70,0
1,55,57,4
1,63,76,4
1,58,73,0
1,55,56,4
1,65,57,0
1,50,75,0
1,58,68,0
1,55,76,0
1,62,79,0
1,55,52,4
1,58,80,4
1,62,86,0
1,55,75,4
1,49,69,4
1,58,64,0
1,61,64,0
1,65,77,0
1,55,59,192
1,58,80,4
1,61,76,0
1,65,87,0
1,55,63,4
1,58,66,32
1,64,61,0
1,60,75,0
1,48,71,0
1,55,59,192
1,64,81,4
1,60,79,0
1,58,72,0
1,55,54,4
1,65,73,16
1,63,73,0
1,56,68,0
1,60,86,4
1,48,76,0
1,41,83,0
1,63,83,4
1,60,95,0
1,56,87,0
1,53,71,192
1,58,69,4
1,43,83,0
1,62,80,0
1,55,79,0
1,53,68,0
1,62,87,4
1,58,87,0
1,55,87,0
1,53,64,4
1,44,65,12
1,63,65,0
1,56,65,0
1,60,83,0
1,55,71,0
1,55,65,4
1,63,88,0
1,60,95,4
1,56,92,0
1,55,76,4
1,43,76,16
1,58,65,0
1,62,76,0
1,55,77,0
1,53,64,0
1,53,63,4
1,62,89,4
1,55,98,0
1,58,86,0
1,53,64,4
1,60,88,16
1,48,79,0
1,58,71,0
1,63,83,0
1,55,80,0
1,58,79,4
1,60,81,0
1,63,71,0
1,67,83,0
1,60,74,4
1,63,75,0
1,56,76,0
1,58,80,0
1,55,78,0
1,56,68,0
1,65,77,0
1,63,82,0
1,41,79,0
1,60,93,0
1,46,68,28
1,65,75,0
1,60,83,0
1,56,60,4
1,62,83,0
1,44,71,184
1,43,77,0
1,55,75,0
1,58,77,0
1,63,81,8
1,62,87,0
1,58,82,0
1,55,81,4
1,55,75,4
1,56,75,0
1,65,87,0
1,63,75,0
1,41,87,0
1,60,88,0
1,63,73,4
1,65,95,0
1,60,81,0
1,56,80,4
1,63,69,4
1,65,77,0
1,46,81,0
1,56,64,0
1,60,83,0
1,56,62,4
1,63,88,4
1,65,96,0
1,60,85,0
1,56,79,4
1,63,49,32
1,46,70,0
1,62,88,0
1,58,76,0
1,55,71,0
1,63,69,4
1,58,74,0
1,62,93,0
1,55,92,4
1,56,74,12
1,63,68,0
1,46,72,0
1,53,65,4
1,60,84,0
1,56,69,4
1,63,73,0
1,60,88,0
1,53,64,4
1,46,67,12
1,58,69,0
1,63,57,0
1,62,77,0
1,55,62,0
1,63,77,4
1,58,76,0
1,62,88,0
1,55,78,4
1,63,53,12
1,46,63,0
1,56,70,0
1,60,85,0
1,53,58,4
1,63,85,4
1,56,78,0
1,60,91,0
1,53,72,4
1,48,70,73748
1,53,72,92
1,57,68,96
1,60,65,92
1,65,63,100
1,69,72,96
1,72,73,92
1,77,77,96
1,48,74,4
1,55,80,8
1,58,79,12
1,62,80,8
1,65,78,8
1,70,62,4
1,74,73,4
1,77,85,96
1,48,80,84
1,53,78,96
1,57,83,4
1,60,80,92
1,65,73,92
1,69,65,96
1,72,70,4
1,77,79,4
1,48,60,4
1,55,75,4
1,58,72,100
1,62,77,8
1,65,74,104
1,70,64,12
1,74,72,12
1,77,78,96
1,41,77,8
1,48,70,48
1,55,66,96
1,57,69,92
1,60,66,84
1,65,72,100
1,69,73,100
1,72,62,96
1,77,69,104
1,81,66,108
1,84,76,108
1,89,66,100
1,93,64,96
1,101,66,36
2,34,79,19548
2,46,86,16
2,34,83,4
2,39,77,112
2,50,71,28
2,49,55,36
2,48,68,48
2,41,70,764
2,43,71,20
2,44,66,40
2,43,73,36
2,48,75,48
2,46,68,36
2,44,72,20
2,43,80,36
2,41,81,24
2,34,72,44
2,43,81,40
2,38,78,36
2,41,78,12
2,41,82,56
2,36,70,20
2,34,64,24
2,34,67,100
2,34,67,52
2,34,73,92
2,34,72,28
2,29,55,56
2,34,86,44
2,34,73,44
2,29,56,52
2,34,82,48
2,34,53,52
2,34,82,44
2,34,80,44
2,34,51,24
2,35,81,40
2,36,84,8
2,43,85,48
2,44,73,24
2,41,86,12
2,34,79,24
2,34,72,24
2,39,78,44
2,34,89,104
2,34,56,52
2,39,68,24
2,41,52,8
2,43,86,16
2,44,73,64
2,41,78,28
2,41,57,32
2,36,80,80
2,34,80,52
2,41,79,48
2,36,82,4
2,43,64,120
2,44,72,20
2,41,78,104
2,34,72,20
2,31,52,20
2,31,83,88
2,43,80,0
2,43,84,96
2,44,77,4
2,41,85,112
2,34,82,32
2,34,65,48
2,41,91,28
2,41,92,72
2,34,94,52
2,34,90,44
2,39,86,108
2,46,64,12
2,38,82,4
2,46,60,8
2,37,81,0
2,46,65,4
2,36,80,0
2,41,71,84
2,43,73,12
2,44,61,84
2,43,75,52
2,48,73,24
2,46,66,8
2,44,73,8
2,43,85,12
2,41,82,56
2,34,84,8
2,31,85,76
2,38,78,4
2,43,69,0
2,38,76,96
2,31,79,8
2,41,79,32
2,36,79,8
2,34,70,4
2,34,86,84
2,34,92,88
2,34,90,28
2,34,100,48
2,34,92,12
2,34,98,48
2,34,104,4
2,29,93,76
2,34,106,8
2,34,109,56
2,34,92,44
2,34,115,8
2,34,100,40
2,34,104,12
2,35,106,20
2,36,89,12
2,36,97,48
2,43,96,44
2,44,104,24
2,39,98,100
2,44,109,36
2,44,115,104
2,43,95,16
2,41,97,8
2,36,88,8
2,41,107,16
2,36,97,96
2,34,80,28
2,41,107,0
2,40,89,8
2,39,102,32
2,36,81,8
2,34,96,16
2,34,86,48
2,36,90,12
2,39,78,4
2,41,85,16
2,43,88,20
2,43,70,16
2,43,102,16
2,43,78,40
2,44,102,4
2,44,90,80
2,41,102,88
2,36,73,12
2,41,115,16
2,36,97,44
2,35,96,0
2,34,106,28
2,34,103,40
2,34,112,60
2,34,116,40
2,35,116,0
2,36,102,4
2,43,109,148
2,44,92,32
2,44,94,100
2,41,77,104
2,36,88,72
2,34,84,108
2,31,93,48
2,43,103,192
2,44,90,88
2,41,93,48
2,36,95,72
2,35,90,16
2,34,96,20
2,34,94,80
2,34,83,64
2,43,82,124
2,38,96,68
2,36,92,8
2,48,96,12
2,36,91,68
2,36,82,16
2,36,100,12
2,41,74,76
2,48,67,116
2,40,82,4
2,48,78,68
2,39,76,576
2,47,52,76
2,48,78,8
2,38,83,12
2,43,71,44
2,45,75,20
2,46,55,24
2,45,75,44
2,50,75,12
2,48,76,44
2,46,72,20
2,45,85,44
2,43,81,12
2,36,79,28
2,33,83,32
2,43,66,0
2,45,88,12
2,43,81,32
2,43,81,48
2,36,90,24
2,36,85,76
2,36,93,68
2,36,102,56
2,36,72,60
2,36,102,24
2,37,107,76
2,37,117,48
2,38,115,36
2,38,96,12
2,45,79,52
2,46,98,8
2,46,109,96
2,43,100,104
2,38,84,52
2,36,105,8
2,34,82,36
2,33,102,24
2,33,97,80
2,34,100,72
2,33,103,44
2,31,95,28
2,33,111,52
2,34,96,28
2,36,107,48
2,29,50,3748
3,67,63,22604
3,58,49,0
3,63,59,0
3,63,64,4
3,67,77,0
3,58,43,4
3,67,50,32
3,58,37,0
3,62,62,0
3,65,62,0
3,58,36,4
3,67,65,4
3,65,65,0
3,62,73,0
3,58,49,4
3,61,59,0
3,65,67,4
3,58,50,0
3,58,14,4
3,61,74,4
3,65,71,0
3,58,43,4
3,60,67,56
3,58,46,0
3,64,69,0
3,67,58,4
3,60,73,0
3,64,72,0
3,58,42,4
3,56,59,4
3,60,60,0
3,51,46,0
3,56,71,4
3,60,72,0
3,51,41,4
3,53,59,200
3,62,62,0
3,58,58,0
3,53,51,4
3,58,81,4
3,62,82,0
3,53,58,4
3,63,48,28
3,55,53,4
3,60,62,0
3,55,39,4
3,63,83,4
3,60,83,0
3,55,37,4
3,62,65,16
3,58,55,4
3,53,49,0
3,53,52,4
3,58,77,4
3,62,79,0
3,53,57,4
3,67,68,60
3,58,54,0
3,63,63,0
3,60,65,184
3,58,45,4
3,63,59,0
3,67,61,0
3,60,55,176
3,58,48,4
3,67,65,0
3,63,56,0
3,63,48,4
3,58,34,0
3,67,61,0
3,60,52,188
3,63,59,0
3,56,59,4
3,65,65,0
3,60,72,0
3,60,59,4
3,65,56,0
3,56,42,0
3,62,70,0
3,58,57,28
3,63,59,0
3,55,59,0
3,62,59,4
3,62,65,0
3,58,53,0
3,55,51,4
3,63,73,32
3,56,63,0
3,60,72,4
3,63,59,8
3,60,72,0
3,56,64,0
3,53,58,192
3,56,65,0
3,65,65,0
3,63,58,0
3,60,72,0
3,63,63,0
3,60,72,0
3,65,52,4
3,56,59,4
3,63,60,16
3,58,53,0
3,62,72,0
3,55,53,0
3,58,53,24
3,67,65,0
3,63,60,0
3,62,68,0
3,58,41,4
3,68,55,4
3,63,59,0
3,65,68,0
3,60,58,0
3,65,58,12
3,56,46,0
3,60,70,0
3,63,59,0
3,56,45,4
3,58,64,44
3,63,67,0
3,62,75,0
3,55,62,0
3,58,54,16
3,67,68,0
3,62,72,0
3,63,59,0
3,65,57,28
3,56,53,0
3,63,66,0
3,60,76,0
3,59,62,0
3,65,65,4
3,62,71,0
3,63,65,16
3,55,70,0
3,60,72,0
3,55,51,4
3,63,73,4
3,60,77,0
3,55,51,4
3,63,53,4
3,55,59,0
3,60,61,0
3,55,40,4
3,63,70,4
3,60,77,0
3,55,47,4
3,63,67,20
3,60,73,0
3,56,76,0
3,56,62,4
3,62,73,0
3,60,73,0
3,65,62,16
3,58,59,0
3,62,63,0
3,55,57,0
3,63,64,4
3,58,66,4
3,55,65,4
3,60,62,0
3,58,71,4
3,62,72,0
3,53,64,4
3,58,76,4
3,62,73,0
3,53,61,4
3,58,62,28
3,63,64,0
3,60,67,0
3,55,62,0
3,63,76,0
3,58,77,4
3,60,78,0
3,55,58,4
3,60,71,68
3,56,71,0
3,51,60,0
3,63,76,388
3,53,54,24
3,62,58,0
3,63,56,0
3,55,51,0
3,62,54,4
3,53,49,0
3,63,65,84
3,55,65,0
3,62,67,0
3,53,62,0
3,55,63,280
3,63,53,0
3,60,65,0
3,55,45,4
3,60,69,4
3,63,58,0
3,55,55,4
3,63,69,0
3,60,72,4
3,55,57,188
3,60,72,4
3,63,63,0
3,55,60,4
3,56,55,20
3,63,52,0
3,60,70,0
3,53,46,196
3,56,57,0
3,62,60,0
3,60,65,4
3,53,47,188
3,65,63,4
3,58,60,0
3,62,65,0
3,55,54,184
3,63,62,4
3,58,61,0
3,55,56,164
3,58,67,4
3,62,70,0
3,53,65,0
3,53,37,4
3,58,73,4
3,62,77,0
3,53,58,4
3,51,58,20
3,60,65,0
3,58,65,0
3,55,79,4
3,51,40,4
3,58,74,4
3,60,71,0
3,55,84,0
3,56,53,16
3,60,65,0
3,63,54,0
3,56,43,4
3,63,74,4
3,60,82,0
3,56,59,4
3,56,56,16
3,65,60,4
3,60,62,4
3,62,65,0
3,56,35,4
3,65,65,0
3,60,68,4
3,62,70,0
3,56,37,4
3,63,64,16
3,60,75,0
3,56,59,200
3,63,76,4
3,60,77,0
3,56,67,4
3,60,77,4
3,62,72,0
3,65,79,0
3,56,76,0
3,63,70,760
3,58,70,0
3,67,73,4
3,63,70,4
3,67,70,0
3,58,58,4
3,58,63,16
3,67,73,0
3,62,73,0
3,58,59,4
3,62,77,4
3,67,75,0
3,58,62,4
3,61,59,16
3,67,61,0
3,65,79,0
3,58,59,0
3,58,48,4
3,67,54,4
3,61,60,0
3,65,75,0
3,58,49,4
3,64,48,4
3,58,59,4
3,60,65,0
3,55,58,4
3,55,47,4
3,60,78,4
3,64,73,0
3,58,70,0
3,55,72,4
3,60,75,12
3,56,69,0
3,51,71,0
3,51,59,4
3,56,77,4
3,60,75,0
3,51,42,4
3,58,79,16
3,62,77,0
3,53,66,4
3,53,56,4
3,53,63,4
3,62,78,0
3,58,85,0
3,53,41,4
3,63,67,20
3,60,73,0
3,55,65,0
3,55,34,4
3,63,87,4
3,60,89,0
3,55,45,4
3,53,65,16
3,62,72,4
3,58,79,0
3,53,70,4
3,62,79,0
3,58,87,0
3,63,67,4
3,58,60,0
3,67,54,0
3,63,71,0
3,58,73,4
3,67,79,0
3,58,36,4
3,67,79,4
3,63,67,0
3,58,48,4
3,67,75,4
3,63,65,0
3,58,74,0
3,60,51,192
3,56,71,12
3,63,66,0
3,60,76,4
3,62,71,16
3,60,67,0
3,56,63,0
3,63,66,16
3,55,67,0
3,58,76,0
3,58,71,0
3,62,69,0
3,53,65,0
3,56,64,36
3,63,65,0
3,60,64,0
3,63,70,4
3,60,75,0
3,56,52,4
3,63,73,20
3,60,77,4
3,56,76,0
3,62,83,0
3,56,76,0
3,60,75,0
3,63,70,8
3,62,76,0
3,55,73,0
3,58,77,0
3,58,70,0
3,63,62,0
3,62,80,4
3,55,71,4
3,63,65,12
3,56,67,0
3,53,62,4
3,60,78,4
3,63,66,4
3,56,70,0
3,60,83,0
3,53,54,4
3,63,53,24
3,55,72,4
3,62,77,0
3,58,76,0
3,58,77,4
3,63,69,0
3,62,83,0
3,56,91,52
3,63,85,0
3,53,84,0
3,60,86,0
3,53,38,4
3,56,76,4
3,63,74,0
3,53,72,0
3,60,72,0
3,62,56,200
3,59,72,0
3,55,73,0
3,63,71,4
3,58,83,0
3,55,77,0
3,63,83,4
3,58,81,0
3,55,58,4
3,58,83,12
3,63,81,0
3,55,79,0
3,60,58,200
3,63,71,4
3,58,81,0
3,55,76,4
3,60,63,184
3,63,83,16
3,60,82,0
3,56,71,0
3,62,83,4
3,56,79,0
3,58,76,0
3,63,83,4
3,58,83,0
3,55,78,0
3,63,85,4
3,58,83,0
3,55,50,4
3,58,89,16
3,53,72,4
3,62,87,0
3,58,89,4
3,62,90,0
3,53,79,0
3,53,62,4
3,58,102,24
3,63,99,0
3,60,87,4
3,55,80,0
3,63,108,0
3,60,92,0
3,58,87,4
3,55,45,4
3,63,87,32
3,56,81,0
3,60,71,12
3,63,87,0
3,60,75,4
3,56,34,4
3,62,87,56
3,56,81,0
3,60,75,8
3,62,91,0
3,56,89,0
3,60,76,4
3,62,78,24
3,58,79,4
3,63,77,0
3,55,82,0
3,63,83,4
3,58,81,0
3,55,65,4
3,63,79,8
3,55,78,0
3,58,85,0
3,60,62,192
3,63,76,0
3,58,87,4
3,55,71,0
3,60,61,4
3,63,79,16
3,56,79,0
3,60,82,0
3,56,66,0
3,62,75,4
3,60,72,0
3,58,59,4
3,62,66,0
3,53,55,0
3,58,77,4
3,62,89,0
3,53,54,4
3,58,77,20
3,62,78,0
3,53,71,0
3,62,86,0
3,58,81,4
3,53,51,4
3,55,72,20
3,58,76,0
3,63,66,0
3,60,76,0
3,63,76,4
