track,note,velocity,time
2,53,102,9404
2,55,93,10
2,56,87,16
2,58,96,18
2,60,102,54
2,67,99,0
2,65,87,32
2,60,89,52
2,56,87,0
2,58,81,6
2,60,84,20
2,56,91,80
2,53,87,86
2,53,102,190
2,55,102,10
2,56,87,16
2,53,87,8
2,63,93,38
2,65,93,4
2,60,96,36
2,53,102,312
2,55,93,10
2,56,87,16
2,58,96,18
2,60,102,54
2,67,99,0
2,65,87,32
2,60,89,52
2,56,87,0
2,58,81,0
2,60,84,20
2,56,91,80
2,53,87,86
2,55,107,384
2,56,96,18
2,53,93,92
2,60,102,6
2,58,99,8
2,56,107,6
2,53,99,0
2,61,99,736
2,63,93,8
2,65,87,12
2,66,87,74
2,65,89,60
2,63,89,4
2,61,93,52
2,63,93,30
2,65,93,132
2,56,84,10
2,56,116,66
2,56,107,278
2,61,99,42
2,63,96,10
2,65,84,12
2,66,102,60
2,65,89,62
2,63,102,64
2,61,93,8
2,63,102,54
2,65,93,14
2,61,107,66
2,62,119,82
2,64,113,74
2,65,107,18
2,64,113,70
2,67,104,70
2,65,102,74
2,68,107,6
2,67,107,2
2,67,104,26
2,55,96,86
2,55,89,22
2,55,84,72
2,55,89,78
2,55,96,12
2,58,107,60
2,55,87,4
2,59,102,54
2,55,83,10
2,60,93,50
2,62,89,0
2,58,107,70
2,60,87,36
2,55,91,24
2,53,93,194
2,55,96,48
2,56,88,10
2,58,102,50
2,60,102,52
2,67,102,76
2,65,84,64
2,60,93,72
2,56,102,42
2,58,93,10
2,60,87,12
2,56,96,70
2,53,96,82
2,53,96,272
2,55,107,16
2,56,99,14
2,53,96,18
2,63,104,56
2,65,102,4
2,60,102,66
2,53,96,274
2,55,93,10
2,56,87,68
2,58,89,56
2,60,102,74
2,67,99,8
2,65,91,6
2,60,87,6
2,56,102,36
2,58,89,10
2,60,81,16
2,56,84,74
2,53,87,82
2,53,93,364
2,55,99,90
2,56,99,12
2,53,87,14
2,59,96,4
2,58,84,10
2,56,91,4
2,53,88,8
2,62,107,20374
2,64,87,4
2,65,93,12
2,64,96,24
2,67,96,48
2,65,89,0
2,68,99,4
2,67,87,0
2,67,87,38
2,55,72,4
2,55,89,40
2,55,96,228
2,55,91,22
2,58,113,28
2,55,89,0
2,59,107,26
2,55,84,8
2,60,96,12
2,62,89,6
2,58,87,40
2,57,91,54
2,55,78,4
2,53,102,328
2,55,93,10
2,56,87,16
2,58,96,18
2,60,102,54
2,67,99,6
2,65,87,32
2,60,89,52
2,56,87,6
2,58,81,0
2,60,84,20
2,56,91,80
2,53,87,86
2,53,102,192
2,55,102,10
2,56,87,16
2,53,87,8
2,63,93,38
2,65,93,6
2,60,96,36
2,53,102,316
2,55,93,10
2,56,87,16
2,58,96,18
2,60,102,54
2,67,99,4
2,65,87,32
2,60,89,52
2,56,87,0
2,58,81,6
2,60,84,20
2,56,91,80
2,53,87,86
2,55,107,384
2,56,96,18
2,53,93,92
2,60,102,10
2,58,99,8
2,56,107,0
2,53,99,0
2,55,107,912
2,56,96,18
2,53,93,92
2,60,102,6
2,58,99,8
2,56,107,2
2,53,99,0
3,63,26,59904
3,61,30,0
3,66,32,0
3,58,36,0
3,63,35,0
3,56,43,0
3,61,36,0
3,66,41,0
3,60,48,0
3,63,37,0
3,56,38,0
3,66,42,0
3,56,23,0
3,60,37,0
3,65,49,0
3,61,41,0
3,56,27,0
3,65,43,0
3,63,26,0
3,61,17,0
3,58,38,0
3,66,44,0
3,63,26,0
3,61,33,0
3,66,41,0
3,56,42,0
3,60,43,0
3,56,33,0
3,66,33,0
3,63,31,0
3,56,27,0
3,65,53,0
3,60,42,0
3,56,33,0
3,61,42,0
3,65,43,0
4,41,64,1536
4,41,58,62
4,41,56,58
4,39,64,44
4,39,58,60
4,39,67,62
4,37,53,44
4,37,58,66
4,37,61,62
4,38,63,26
4,38,67,60
4,38,64,66
4,31,64,14
4,31,55,44
4,31,62,58
4,31,56,44
4,36,64,2
4,36,60,70
4,36,58,58
4,29,67,60
4,29,64,66
4,29,63,58
4,34,69,70
4,34,69,176
4,36,62,26
4,29,64,20
4,29,62,62
4,29,62,60
4,34,64,48
4,34,69,202
4,41,64,80
4,41,64,74
4,41,63,66
4,41,64,46
4,41,62,76
4,41,67,66
4,41,67,58
4,41,64,62
4,41,69,68
4,34,69,34
4,34,73,66
4,34,68,62
4,41,67,48
4,41,60,52
4,41,64,60
4,37,53,38
4,37,61,58
4,37,62,68
4,36,64,50
4,36,61,40
4,36,64,62
4,36,61,44
4,36,63,46
4,36,61,66
4,41,64,94
4,41,64,74
4,41,63,66
4,41,64,46
4,41,62,76
4,41,67,66
4,41,67,58
4,41,64,62
4,41,69,68
4,34,69,34
4,34,73,66
4,34,68,62
4,37,51,48
4,37,53,32
4,37,64,36
4,36,67,46
4,36,53,32
4,36,58,40
4,29,67,46
4,29,64,80
4,29,62,68
4,28,63,58
4,29,67,96
4,53,47,386
4,48,49,64
4,39,69,4
4,39,61,50
4,39,63,46
4,32,62,8
4,32,58,52
4,32,61,50
4,37,56,28
4,37,62,40
4,37,64,62
4,34,64,16
4,34,63,54
4,34,61,58
4,37,51,42
4,39,53,8
4,39,71,48
4,39,67,58
4,32,62,16
4,32,56,48
4,32,62,58
4,37,64,14
4,37,51,42
4,37,58,66
4,32,53,28
4,37,51,2
4,37,48,46
4,37,51,54
4,38,64,10
4,38,63,40
4,38,63,58
4,31,64,8
4,31,56,44
4,31,62,54
4,36,62,2
4,36,53,56
4,36,61,60
4,31,56,46
4,36,61,2
4,36,47,60
4,36,56,58
4,34,63,12
4,34,58,66
4,34,58,52
4,31,69,6
4,31,62,38
4,31,62,58
4,36,61,42
4,31,52,64
4,36,53,6
4,36,58,72
4,41,64,38
4,41,64,74
4,41,63,66
4,41,64,46
4,41,62,76
4,41,67,66
4,41,67,58
4,41,64,62
4,41,69,68
4,34,69,34
4,34,73,66
4,34,68,62
4,41,67,48
4,41,60,52
4,41,64,60
4,37,53,38
4,37,61,58
4,37,62,68
4,36,64,50
4,36,61,40
4,36,64,62
4,36,61,44
4,36,63,46
4,36,61,66
4,41,64,94
4,41,64,74
4,41,63,66
4,41,64,46
4,41,62,76
4,41,67,66
4,41,67,58
4,41,64,62
4,41,69,68
4,34,69,34
4,34,73,66
4,34,68,62
4,37,51,48
4,37,53,32
4,37,64,36
4,36,67,46
4,36,53,32
4,36,58,40
4,29,67,46
4,29,64,66
4,29,63,58
4,34,69,70
4,34,69,176
4,36,62,26
4,29,64,20
4,29,62,62
4,29,62,60
4,34,64,48
4,34,69,202
4,41,64,80
4,41,64,74
4,41,63,66
4,41,64,46
4,41,62,76
4,41,67,66
4,41,67,58
4,41,64,62
4,41,69,68
4,34,69,34
4,34,73,66
4,34,68,62
4,41,67,48
4,41,60,52
4,41,64,60
4,37,53,38
4,37,61,58
4,37,62,68
4,36,64,50
4,36,61,40
4,36,64,62
4,36,61,44
4,36,63,46
4,36,61,66
4,41,64,94
4,41,64,74
4,41,63,66
4,41,64,46
4,41,62,76
4,41,67,66
4,41,67,58
4,41,64,62
4,41,69,68
4,34,69,34
4,34,73,66
4,34,68,62
4,37,51,48
4,37,53,32
4,37,64,36
4,36,67,46
4,36,53,32
4,36,58,40
4,29,67,46
4,29,64,80
4,29,62,68
4,28,63,58
4,29,67,96
4,53,47,386
4,48,49,64
4,39,69,4
4,39,61,50
4,39,63,46
4,32,62,8
4,32,58,52
4,32,61,50
4,37,56,28
4,37,62,40
4,37,64,62
4,34,64,16
4,34,63,54
4,34,61,58
4,37,51,42
4,39,53,8
4,39,71,48
4,39,67,58
4,32,62,16
4,32,56,48
4,32,62,58
4,37,64,14
4,37,51,42
4,37,58,66
4,32,53,28
4,37,51,2
4,37,48,46
4,37,51,54
4,38,64,10
4,38,63,40
4,38,63,58
4,31,64,8
4,31,56,44
4,31,62,54
4,36,62,2
4,36,53,56
4,36,61,60
4,31,56,46
4,36,61,2
4,36,47,60
4,36,56,58
4,34,63,12
4,34,58,66
4,34,58,52
4,31,69,6
4,31,62,38
4,31,62,58
4,36,61,42
4,31,52,64
4,36,53,6
4,36,58,72
4,41,64,38
4,41,64,74
4,41,63,66
4,41,64,46
4,41,62,76
4,41,67,66
4,41,67,58
4,41,64,62
4,41,69,68
4,34,69,34
4,34,73,66
4,34,68,62
4,41,67,48
4,41,60,52
4,41,64,60
4,37,53,38
4,37,61,58
4,37,62,68
4,36,64,50
4,36,61,40
4,36,64,62
4,36,61,44
4,36,63,46
4,36,61,66
4,41,64,94
4,41,64,74
4,41,63,66
4,41,64,46
4,41,62,76
4,41,67,66
4,41,67,58
4,41,64,62
4,41,69,68
4,34,69,34
4,34,73,66
4,34,68,62
4,37,51,48
4,37,53,32
4,37,64,36
4,36,67,46
4,36,53,32
4,36,58,40
4,29,67,46
4,29,64,80
4,29,62,68
4,28,63,58
4,39,69,0
4,39,67,38
4,37,73,42
4,36,69,42
4,41,64,78
4,41,58,62
4,41,56,58
4,39,64,44
4,39,58,60
4,39,67,62
4,37,53,44
4,37,58,66
4,37,61,62
4,38,63,26
4,38,67,60
4,38,64,66
4,31,64,14
4,31,55,44
4,31,62,58
4,31,56,44
4,36,64,2
4,36,60,70
4,36,58,58
4,29,67,60
4,29,64,66
4,29,63,58
4,34,69,70
4,34,69,176
4,36,62,26
4,29,64,20
4,29,62,62
4,29,62,60
4,34,64,48
4,34,69,202
4,29,64,80
5,65,79,4042
5,67,71,86
5,68,74,86
5,72,83,88
5,77,89,10
5,79,76,86
5,80,83,26
5,82,76,8
5,80,74,158
5,82,55,106
5,84,55,30
5,82,50,36
5,80,62,26
5,82,68,12
5,80,61,320
5,80,63,34
5,79,50,38
5,78,68,14
5,77,66,22
5,86,66,866
5,85,70,10
5,84,83,12
5,82,68,30
5,80,68,46
5,77,74,0
5,75,61,16
5,72,55,12
5,75,71,4
5,77,70,10
5,80,71,2
5,82,66,8
5,84,74,42
5,82,71,42
5,84,56,0
5,82,52,30
5,80,52,36
5,77,63,16
5,85,83,6830
5,84,71,86
5,79,60,30
5,73,68,96
5,72,60,44
5,68,70,6
5,70,74,98
5,72,68,32
5,73,70,8046
5,77,77,94
5,80,71,70
5,84,74,62
5,82,73,80
5,77,66,76
5,73,71,0
5,75,76,0
5,73,83,1902
5,77,72,12
5,80,79,90
5,87,83,68
5,85,74,86
5,80,70,8
5,73,73,48
5,77,74,18
5,67,79,2676
5,79,79,4
5,62,70,10
5,74,67,0
5,79,77,10
5,67,74,6
5,79,83,476
5,67,74,0
5,62,61,6
5,74,47,10
5,79,79,12
5,67,72,2
5,72,77,358
5,84,83,0
5,86,66,12928
5,85,70,10
5,84,83,12
5,82,68,30
5,80,68,46
5,77,74,0
5,75,61,16
5,72,55,12
5,75,71,4
5,77,70,10
5,80,71,2
5,82,66,8
5,84,74,42
5,82,71,42
5,84,56,0
5,82,52,30
5,80,52,36
5,77,63,16
5,79,63,1490
5,79,71,0
5,78,63,20
5,77,71,4
5,79,83,86
5,80,72,12
5,82,68,12
5,84,74,2
5,90,65,2
5,91,81,14
5,89,77,144
5,84,71,198
5,80,72,46
5,82,63,176
5,84,73,78
5,80,71,10
5,77,77,4
5,53,72,236
5,96,89,2
5,92,57,32
5,91,63,44
5,89,58,8
5,86,60,30
5,85,35,6
5,80,68,52
5,79,36,4
5,77,42,14
5,79,34,26
5,80,51,12
5,79,50,12
5,80,48,20
5,79,46,40
5,77,52,18
5,85,72,100
5,85,62,18
5,83,32,14
5,83,62,26
5,80,51,0
5,80,60,34
5,77,62,96
5,77,57,44
5,77,39,64
5,79,66,8
5,80,55,10
5,80,63,38
5,77,65,44
5,84,77,28
5,82,63,42
5,80,57,38
5,79,68,24
5,84,73,4
5,72,55,20
5,72,50,36
5,96,112,132
5,92,80,36
5,89,62,24
5,84,86,8
5,80,97,28
5,88,112,406
5,84,86,40
5,80,41,0
5,77,80,12
5,76,91,22
5,87,99,66
5,84,77,48
5,80,77,30
5,77,64,6
5,75,92,24
5,74,106,386
5,73,77,36
5,72,75,8
5,74,80,40
5,77,86,16
5,79,83,44
5,80,71,30
5,80,94,30
5,80,82,30
5,77,75,6
5,77,61,36
5,73,72,94
5,73,78,38
5,67,72,322
5,70,82,50
5,73,80,4
5,77,96,0
5,80,94,34
5,79,72,14
5,77,78,6
5,77,80,22
5,60,92,84
5,65,97,0
5,77,94,88
5,89,97,0
5,73,70,3136
5,77,77,94
5,80,71,70
5,84,74,62
5,82,73,80
5,77,66,76
5,73,71,0
5,75,76,0
5,73,83,1902
5,77,72,12
5,80,79,90
5,87,83,68
5,85,74,86
5,80,70,8
5,73,73,48
5,77,74,18
5,67,79,2676
5,79,79,4
5,62,70,10
5,74,67,0
5,79,77,10
5,67,74,6
5,79,83,476
5,67,74,0
5,62,61,6
5,74,47,10
5,79,79,12
5,67,72,2
5,72,77,358
5,84,83,0
5,85,83,6858
5,84,71,86
5,79,60,30
5,73,68,96
5,72,60,44
5,68,70,6
5,70,74,98
5,72,68,32
5,65,79,9696
5,67,71,86
5,68,74,86
5,72,83,88
5,77,89,10
5,79,76,86
5,80,83,26
5,82,76,8
5,80,74,158
5,82,55,106
5,84,55,30
5,82,50,36
5,80,62,26
5,82,68,12
5,80,61,320
5,80,63,34
5,79,50,38
5,78,68,14
5,77,66,22
5,86,66,866
5,85,70,10
5,84,83,12
5,82,68,30
5,80,68,46
5,77,74,0
5,75,61,16
5,72,55,12
5,75,71,4
5,77,70,10
5,80,71,2
5,82,66,8
5,84,74,42
5,82,71,42
5,84,56,0
5,82,52,30
5,80,52,36
5,77,63,16
6,36,73,1152
6,36,73,362
6,36,67,256
6,36,76,66
6,36,76,348
6,36,69,246
6,36,69,58
6,36,73,352
6,36,64,250
6,36,71,66
6,36,76,354
6,36,71,252
6,36,76,70
6,36,73,358
6,36,64,250
6,36,71,66
6,36,76,354
6,36,71,252
6,36,76,70
6,36,76,358
6,36,82,266
6,36,79,160
6,36,87,162
6,36,69,166
6,36,73,70
6,36,64,158
6,36,73,68
6,36,73,160
6,36,82,72
6,36,79,264
6,36,76,166
6,36,87,164
6,36,67,840
6,36,62,254
6,36,69,66
6,36,67,352
6,36,62,254
6,36,69,66
6,36,67,352
6,36,62,254
6,36,69,66
6,36,67,352
6,36,62,254
6,36,69,66
6,36,67,352
6,36,62,254
6,36,69,66
6,36,67,352
6,36,62,254
6,36,69,66
6,36,67,352
6,36,62,254
6,36,69,66
6,36,67,352
6,36,62,254
6,36,69,66
6,36,67,352
6,36,62,254
6,36,69,66
6,36,67,352
6,36,62,254
6,36,69,66
6,36,67,352
6,36,62,254
6,36,69,66
6,36,67,352
6,36,62,254
6,36,69,66
6,36,67,352
6,36,62,254
6,36,69,66
6,36,67,352
6,36,62,254
6,36,69,66
6,36,67,352
6,36,62,254
6,36,69,66
6,36,87,352
6,36,87,452
6,36,87,170
6,36,76,72
6,36,67,260
6,36,76,72
6,36,76,358
6,36,67,260
6,36,76,72
6,36,76,358
6,36,67,260
6,36,76,72
6,36,76,358
6,36,67,260
6,36,76,72
6,36,76,358
6,36,67,260
6,36,76,72
6,36,76,358
6,36,67,260
6,36,76,72
6,36,76,358
6,36,67,260
6,36,76,72
6,36,76,358
6,36,67,260
6,36,76,72
6,36,76,358
6,36,67,260
6,36,76,72
6,36,76,358
6,36,67,260
6,36,76,72
6,36,76,358
6,36,67,260
6,36,76,72
6,36,76,358
6,36,67,260
6,36,76,72
6,36,76,358
6,36,67,260
6,36,76,72
6,36,76,358
6,36,67,260
6,36,76,72
6,36,76,358
6,36,87,740
6,36,67,744
6,36,62,254
6,36,69,66
6,36,67,352
6,36,62,254
6,36,69,66
6,36,67,352
6,36,62,254
6,36,69,66
6,36,67,352
6,36,62,254
6,36,69,66
6,36,67,352
6,36,62,254
6,36,69,66
6,36,67,352
6,36,62,254
6,36,69,66
6,36,67,352
6,36,62,254
6,36,69,66
6,36,67,352
6,36,62,254
6,36,69,66
