track,note,velocity,time
1,51,100,1340
1,51,100,9
1,51,100,138
1,51,100,98
1,51,100,23
1,51,100,111
1,51,100,105
1,51,100,87
1,51,100,16
1,51,100,122
1,51,100,96
1,51,100,17
1,51,100,131
1,51,100,103
1,36,110,113
1,42,110,0
1,49,116,0
1,42,110,48
1,40,110,72
1,42,110,0
1,36,110,48
1,42,110,0
1,36,110,48
1,42,110,0
1,42,110,48
1,40,110,72
1,42,110,0
1,42,110,0
1,36,110,72
1,42,110,0
1,42,110,48
1,40,110,72
1,42,110,0
1,36,110,48
1,42,110,0
1,36,110,48
1,42,110,0
1,42,110,48
1,40,110,72
1,42,110,0
1,44,110,48
1,36,110,72
1,42,110,0
1,42,110,48
1,40,110,72
1,42,110,0
1,36,110,48
1,42,110,0
1,36,110,48
1,42,110,0
1,42,110,48
1,40,110,72
1,42,110,0
1,42,110,48
1,36,110,72
1,42,110,0
1,42,110,48
1,40,110,72
1,42,110,0
1,36,110,48
1,42,110,0
1,36,110,48
1,42,110,0
1,42,110,48
1,40,110,72
1,42,110,0
1,44,110,48
1,36,110,72
1,42,110,0
1,42,110,48
1,40,110,72
1,42,110,0
1,36,110,48
1,42,110,0
1,36,110,48
1,42,110,0
1,42,110,48
1,40,110,72
1,42,110,0
1,42,110,48
1,36,110,72
1,42,110,0
1,42,110,48
1,40,110,72
1,42,110,0
1,36,110,48
1,42,110,0
1,36,110,48
1,42,110,0
1,42,110,48
1,40,110,72
1,42,110,0
1,44,110,48
1,36,110,72
1,42,110,0
1,42,110,48
1,40,110,72
1,42,110,0
1,36,110,48
1,42,110,0
1,36,110,48
1,42,110,0
1,42,110,48
1,40,110,72
1,42,110,0
1,42,110,48
1,36,110,72
1,42,110,0
1,42,110,48
1,40,110,72
1,42,110,0
1,36,110,48
1,42,110,0
1,36,110,48
1,42,110,0
1,40,122,48
1,42,110,0
1,40,122,72
1,42,110,0
1,40,122,10
1,40,122,24
1,44,110,0
1,36,110,72
1,42,110,0
1,49,119,0
1,42,110,48
1,40,110,72
1,42,110,0
1,54,110,0
1,36,110,48
1,42,110,0
1,36,110,0
1,42,110,0
1,42,110,48
1,40,110,72
1,42,110,0
1,54,110,0
1,42,110,47
1,36,110,72
1,42,110,0
1,42,110,48
1,40,110,72
1,42,110,0
1,54,110,0
1,36,110,48
1,42,110,0
1,36,110,48
1,42,110,0
1,42,110,48
1,40,110,72
1,42,110,0
1,54,110,0
1,44,110,48
1,36,110,72
1,42,110,0
1,42,110,48
1,40,110,72
1,42,110,0
1,54,110,0
1,36,110,48
1,42,110,0
1,36,110,48
1,42,110,0
1,42,110,48
1,40,110,72
1,42,110,0
1,54,110,0
1,42,110,46
1,36,110,72
1,42,110,0
1,42,110,48
1,40,110,72
1,42,110,0
1,54,110,0
1,36,110,48
1,42,110,0
1,36,110,48
1,42,110,0
1,42,110,48
1,40,110,72
1,42,110,0
1,54,110,0
1,44,110,48
1,36,110,67
1,42,110,0
1,42,110,48
1,40,110,72
1,42,110,0
1,54,110,0
1,36,110,45
1,42,110,0
1,36,110,48
1,42,110,0
1,42,110,48
1,40,110,72
1,42,110,0
1,54,110,0
1,42,110,47
1,36,110,72
1,42,110,0
1,42,110,48
1,40,110,72
1,42,110,0
1,54,110,0
1,36,110,41
1,42,110,0
1,36,110,48
1,42,110,0
1,42,110,48
1,40,110,72
1,42,110,0
1,54,110,0
1,44,110,47
1,36,110,72
1,42,110,0
1,42,110,48
1,40,110,72
1,42,110,0
1,54,110,0
1,36,110,46
1,42,110,0
1,36,110,48
1,42,110,0
1,42,110,48
1,40,110,72
1,42,110,0
1,54,110,0
1,42,110,48
1,36,110,60
1,42,110,0
1,42,110,48
1,40,110,72
1,42,110,0
1,54,110,0
1,36,110,44
1,42,110,0
1,36,110,48
1,42,110,0
1,42,110,48
1,40,119,72
1,42,110,0
1,54,110,0
1,40,119,0
1,40,119,24
1,44,110,0
1,36,110,62
1,42,110,0
1,49,119,0
1,42,110,48
1,40,110,72
1,42,110,0
1,54,110,0
1,36,110,48
1,42,110,0
1,36,110,48
1,42,110,0
1,42,110,48
1,40,110,72
1,42,110,0
1,54,110,0
1,42,110,47
1,36,110,72
1,42,110,0
1,42,110,48
1,40,110,72
1,42,110,0
1,54,110,0
1,36,110,48
1,42,110,0
1,36,110,48
1,42,110,0
1,42,110,48
1,40,110,72
1,42,110,0
1,54,110,0
1,44,110,48
1,36,110,72
1,42,110,0
1,42,110,48
1,40,110,72
1,42,110,0
1,54,110,0
1,36,110,48
1,42,110,0
1,36,110,48
1,42,110,0
1,42,110,48
1,40,110,72
1,42,110,0
1,54,110,0
1,42,110,46
1,36,110,72
1,42,110,0
1,42,110,48
1,40,110,72
1,42,110,0
1,54,110,0
1,36,110,48
1,42,110,0
1,36,110,48
1,42,110,0
1,42,110,48
1,40,110,72
1,42,110,0
1,54,110,0
1,44,110,48
1,36,110,67
1,42,110,0
1,42,110,48
1,40,110,72
1,42,110,0
1,54,110,0
1,36,110,45
1,42,110,0
1,36,110,48
1,42,110,0
1,42,110,48
1,40,110,72
1,42,110,0
1,54,110,0
1,42,110,47
1,36,110,72
1,42,110,0
1,42,110,48
1,40,110,72
1,42,110,0
1,54,110,0
1,36,110,41
1,42,110,0
1,36,110,48
1,42,110,0
1,42,110,48
1,40,110,72
1,42,110,0
1,54,110,0
1,44,110,47
1,36,110,72
1,42,110,0
1,42,110,48
1,40,110,72
1,42,110,0
1,54,110,0
1,36,110,46
1,42,110,0
1,36,110,48
1,42,110,0
1,42,110,48
1,40,110,72
1,42,110,0
1,54,110,0
1,42,110,48
1,36,110,60
1,42,110,0
1,42,110,48
1,40,119,72
1,42,110,0
1,54,110,0
1,36,110,44
1,40,118,0
1,42,110,0
1,40,118,0
1,36,110,24
1,40,118,0
1,42,110,0
1,40,119,0
1,40,117,24
1,42,110,0
1,40,117,72
1,42,110,0
1,54,110,0
1,40,119,3
1,40,119,24
1,44,110,0
1,40,119,14
1,36,110,24
1,42,110,0
1,49,119,0
1,42,110,48
1,40,110,72
1,42,110,0
1,54,110,0
1,36,110,48
1,42,110,0
1,36,110,48
1,42,110,0
1,42,110,0
1,40,110,72
1,42,110,0
1,54,110,0
1,42,110,47
1,36,110,72
1,42,110,0
1,42,110,48
1,40,110,72
1,42,110,0
1,54,110,0
1,36,110,48
1,42,110,0
1,36,110,48
1,42,110,0
1,42,110,48
1,40,110,72
1,42,110,0
1,54,110,0
1,44,110,48
1,36,110,72
1,42,110,0
1,42,110,48
1,40,110,72
1,42,110,0
1,54,110,0
1,36,110,48
1,42,110,0
1,36,110,48
1,42,110,0
1,42,110,48
1,40,110,72
1,42,110,0
1,54,110,0
1,42,110,46
1,36,110,72
1,42,110,0
1,42,110,48
1,40,110,72
1,42,110,0
1,54,110,0
1,36,110,48
1,42,110,0
1,36,110,48
1,42,110,0
1,42,110,48
1,40,110,72
1,42,110,0
1,54,110,0
1,44,110,48
1,36,110,67
1,42,110,0
1,42,110,48
1,40,110,72
1,42,110,0
1,54,110,0
1,36,110,45
1,42,110,0
1,36,110,48
1,42,110,0
1,42,110,48
1,40,110,72
1,42,110,0
1,54,110,0
1,42,110,47
1,36,110,72
1,42,110,0
1,42,110,48
1,40,110,72
1,42,110,0
1,54,110,0
1,36,110,41
1,42,110,0
1,36,110,48
1,42,110,0
1,42,110,48
1,40,110,72
1,42,110,0
1,54,110,0
1,44,110,47
1,36,110,72
1,42,110,0
1,42,110,48
1,40,110,72
1,42,110,0
1,54,110,0
1,36,110,46
1,42,110,0
1,36,110,48
1,42,110,0
1,42,110,48
1,40,110,72
1,42,110,0
1,54,110,0
1,42,110,48
1,36,110,60
1,42,110,0
1,42,110,48
1,40,119,72
1,42,110,0
1,54,110,0
1,36,110,44
1,40,118,0
1,42,110,0
1,40,118,0
1,36,110,24
1,40,118,0
1,42,110,0
1,40,122,48
1,42,110,0
1,40,127,72
1,42,110,0
1,54,110,0
1,40,127,3
1,40,127,24
1,44,110,0
1,36,110,62
1,42,110,0
1,52,122,0
1,49,122,0
1,42,110,48
1,40,110,72
1,42,110,0
1,54,110,0
1,36,110,48
1,42,110,0
1,36,110,48
1,42,110,0
1,42,110,48
1,40,110,72
1,42,110,0
1,54,110,0
1,42,110,47
1,36,110,72
1,42,110,0
1,42,110,48
1,40,110,72
1,42,110,0
1,54,110,0
1,36,110,48
1,42,110,0
1,36,110,48
1,42,110,0
1,42,110,48
1,40,110,72
1,42,110,0
1,54,110,0
1,44,110,48
1,36,110,72
1,42,110,0
1,42,110,48
1,40,110,72
1,42,110,0
1,54,110,0
1,36,110,48
1,42,110,0
1,36,110,48
1,42,110,0
1,42,110,48
1,40,110,72
1,42,110,0
1,54,110,0
1,42,110,46
1,36,110,72
1,42,110,0
1,42,110,48
1,40,110,72
1,42,110,0
1,54,110,0
1,36,110,48
1,42,110,0
1,36,110,48
1,42,110,0
1,42,110,48
1,40,110,72
1,42,110,0
1,54,110,0
1,44,110,48
1,36,110,67
1,42,110,0
1,42,110,48
1,40,110,72
1,42,110,0
1,54,110,0
1,36,110,45
1,42,110,0
1,36,110,48
1,42,110,0
1,42,110,48
1,40,110,72
1,42,110,0
1,54,110,0
1,42,110,47
1,36,110,72
1,42,110,0
1,42,110,48
1,40,110,72
1,42,110,0
1,54,110,0
1,36,110,41
1,42,110,0
1,36,110,48
1,42,110,0
1,42,110,48
1,40,110,72
1,42,110,0
1,54,110,0
1,44,110,47
1,36,110,72
1,42,110,0
1,42,110,48
1,40,110,72
1,42,110,0
1,54,110,0
1,36,110,46
1,42,110,0
1,36,110,48
1,42,110,0
1,42,110,48
1,40,110,72
1,42,110,0
1,54,110,0
1,42,110,48
1,36,110,60
1,42,110,0
1,42,110,48
1,40,119,72
1,42,110,0
1,54,110,0
1,36,110,44
1,40,119,0
1,42,110,0
1,40,122,0
1,36,110,24
1,40,119,0
1,42,110,0
1,40,125,48
1,42,110,0
1,40,125,72
1,42,110,0
1,54,110,0
1,40,125,3
1,40,125,24
1,44,110,0
1,36,110,62
1,42,110,0
1,49,122,0
1,42,110,48
1,40,110,72
1,42,110,0
1,54,110,0
1,36,110,48
1,42,110,0
1,36,110,48
1,42,110,0
1,42,110,24
1,40,110,72
1,42,110,0
1,54,110,0
1,42,110,47
1,36,110,72
1,42,110,0
1,42,110,48
1,40,125,72
1,42,110,0
1,54,110,0
1,36,110,48
1,42,110,0
1,36,110,48
1,42,110,0
1,40,125,48
1,42,110,0
1,40,125,72
1,42,110,0
1,54,110,0
1,40,125,48
1,44,110,0
1,36,110,72
1,42,110,0
1,42,110,48
1,40,110,72
1,42,110,0
1,54,110,0
1,36,110,48
1,42,110,0
1,36,110,48
1,42,110,0
1,42,110,48
1,40,110,72
1,42,110,0
1,54,110,0
1,42,110,46
1,36,110,72
1,42,110,0
1,42,110,48
1,40,110,72
1,42,110,0
1,54,110,0
1,36,110,48
1,42,110,0
1,36,110,48
1,42,110,0
1,42,110,48
1,40,110,72
1,42,110,0
1,54,110,0
1,44,110,48
1,36,110,67
1,42,110,0
1,42,110,48
1,40,110,72
1,42,110,0
1,54,110,0
1,36,110,45
1,42,110,0
1,36,110,48
1,42,110,0
1,42,110,48
1,40,110,72
1,42,110,0
1,54,110,0
1,40,110,0
1,40,119,24
1,42,110,0
1,36,110,72
1,42,110,0
1,42,110,48
1,40,110,72
1,42,110,0
1,54,110,0
1,36,110,41
1,42,110,0
1,36,110,48
1,42,110,0
1,42,110,48
1,40,110,72
1,42,110,0
1,54,110,0
1,44,110,47
1,36,110,72
1,42,110,0
1,42,110,48
1,40,110,72
1,42,110,0
1,54,110,0
1,36,110,46
1,42,110,0
1,36,110,48
1,42,110,0
1,42,110,48
1,40,110,72
1,42,110,0
1,54,110,0
1,42,110,48
1,36,110,60
1,42,110,0
1,42,110,48
1,40,119,72
1,42,110,0
1,54,110,0
1,36,110,44
1,40,121,0
1,42,110,0
1,40,122,0
1,36,110,24
1,40,125,0
1,42,110,0
1,40,125,48
1,42,110,0
1,40,125,72
1,42,110,0
1,54,110,0
1,40,125,0
1,40,125,24
1,44,110,0
1,36,110,62
1,42,110,0
1,52,119,0
1,49,119,0
1,42,110,48
1,40,110,72
1,42,110,0
1,54,110,0
1,36,110,48
1,42,110,0
1,36,110,48
1,42,110,0
1,42,110,48
1,40,110,72
1,42,110,0
1,54,110,0
1,42,110,47
1,36,110,72
1,42,110,0
1,42,110,48
1,40,110,72
1,42,110,0
1,54,110,0
1,36,110,48
1,42,110,0
1,36,110,48
1,42,110,0
1,42,110,48
1,40,110,72
1,42,110,0
1,54,110,0
1,44,110,48
1,36,110,72
1,42,110,0
1,42,110,48
1,40,110,72
1,42,110,0
1,54,110,0
1,36,110,48
1,42,110,0
1,36,110,48
1,42,110,0
1,42,110,48
1,40,110,72
1,42,110,0
1,54,110,0
1,42,110,46
1,36,110,72
1,42,110,0
1,42,110,48
1,40,110,72
1,42,110,0
1,54,110,0
1,36,110,48
1,42,110,0
1,36,110,48
1,42,110,0
1,42,110,48
1,40,110,72
1,42,110,0
1,54,110,0
1,44,110,48
1,36,110,67
1,42,110,0
1,42,110,48
1,40,110,72
1,42,110,0
1,54,110,0
1,36,110,45
1,42,110,0
1,36,110,48
1,42,110,0
1,42,110,48
1,40,110,72
1,42,110,0
1,54,110,0
1,42,110,47
1,36,110,72
1,42,110,0
1,42,110,48
1,40,110,72
1,42,110,0
1,54,110,0
1,36,110,41
1,42,110,0
1,36,110,48
1,42,110,0
1,42,110,48
1,40,110,72
1,42,110,0
1,54,110,0
1,44,110,47
1,36,110,72
1,42,110,0
1,42,110,48
1,40,110,72
1,42,110,0
1,54,110,0
1,36,110,46
1,42,110,0
1,36,110,48
1,42,110,0
1,42,110,48
1,40,110,72
1,42,110,0
1,54,110,0
1,42,110,48
1,36,110,60
1,42,110,0
1,42,110,48
1,40,119,72
1,42,110,0
1,54,110,0
1,36,110,44
1,40,119,0
1,42,110,0
1,40,119,0
1,36,110,24
1,40,120,0
1,42,110,0
1,40,121,0
1,40,122,24
1,42,110,0
1,40,122,24
1,40,122,24
1,42,110,0
1,54,110,0
1,40,125,33
1,44,110,0
1,36,110,62
1,42,110,0
1,49,122,0
1,42,110,48
1,40,110,72
1,42,110,0
1,54,110,0
1,36,110,48
1,42,110,0
1,36,110,48
1,42,110,0
1,42,110,48
1,40,110,48
1,42,110,0
1,54,110,0
1,42,110,47
1,36,110,72
1,42,110,0
1,42,110,48
1,40,110,72
1,42,110,0
1,54,110,0
1,36,110,48
1,42,110,0
1,36,110,48
1,42,110,0
1,42,110,48
1,40,110,72
1,42,110,0
1,54,110,0
1,44,110,48
1,36,110,72
1,42,110,0
1,42,110,48
1,40,110,72
1,42,110,0
1,54,110,0
1,36,110,48
1,42,110,0
1,36,110,48
1,42,110,0
1,42,110,48
1,40,110,72
1,42,110,0
1,54,110,0
1,42,110,46
1,36,110,72
1,42,110,0
1,42,110,48
1,40,116,72
1,42,110,0
1,54,110,0
1,36,110,48
1,42,110,0
1,36,110,48
1,42,110,0
1,40,116,48
1,42,110,0
1,40,116,72
1,42,110,0
1,54,110,0
1,40,116,48
1,44,110,0
1,36,110,67
1,42,110,0
1,42,110,48
1,40,110,72
1,42,110,0
1,54,110,0
1,36,110,45
1,42,110,0
1,36,110,48
1,42,110,0
1,42,110,48
1,40,110,72
1,42,110,0
1,54,110,0
1,42,110,47
1,36,110,72
1,42,110,0
1,42,110,48
1,40,110,72
1,42,110,0
1,54,110,0
1,36,110,41
1,42,110,0
1,36,110,48
1,42,110,0
1,42,110,48
1,40,110,72
1,42,110,0
1,54,110,0
1,44,110,47
1,36,110,72
1,42,110,0
1,42,110,48
1,40,110,72
1,42,110,0
1,54,110,0
1,36,110,46
1,42,110,0
1,36,110,48
1,42,110,0
1,42,110,48
1,40,110,72
1,42,110,0
1,54,110,0
1,42,110,48
1,36,110,60
1,42,110,0
1,42,110,48
