track,note,velocity,time
1,50,92,1136
1,66,92,0
1,74,92,0
1,57,80,180
1,66,81,4
1,62,74,4
1,57,77,12
1,73,84,36
1,64,84,0
1,54,84,4
1,61,71,188
1,66,101,192
1,74,101,0
1,54,72,12
1,43,72,32
1,62,86,0
1,71,83,0
1,50,69,192
1,62,75,8
1,55,74,192
1,62,86,16
1,55,86,0
1,45,86,0
1,59,86,0
1,52,76,184
1,61,83,32
1,64,86,0
1,57,86,8
1,52,83,12
1,66,84,4
1,74,84,0
1,50,84,8
1,57,77,184
1,62,79,192
1,57,79,32
1,73,78,0
1,64,78,0
1,54,78,0
1,57,81,200
1,66,88,184
1,74,92,0
1,57,70,0
1,64,76,8
1,62,90,8
1,71,80,0
1,43,77,4
1,50,75,188
1,59,90,192
1,55,84,192
1,59,77,16
1,55,77,0
1,62,77,0
1,45,77,0
1,52,67,192
1,57,78,32
1,61,78,0
1,64,84,0
1,38,88,12
1,64,88,0
1,57,105,8
1,50,83,0
1,62,90,0
1,66,81,4
1,66,103,8
1,57,103,0
1,50,81,4
1,62,76,12
1,42,77,16
1,61,88,8
1,52,76,0
1,57,80,4
1,49,66,188
1,61,90,0
1,57,105,4
1,49,68,4
1,57,80,4
1,43,81,24
1,62,81,8
1,59,80,0
1,55,86,0
1,57,92,0
1,50,76,192
1,57,98,8
1,62,101,0
1,55,80,0
1,59,95,8
1,50,77,8
1,55,77,8
1,45,86,24
1,62,95,4
1,59,98,0
1,55,76,8
1,52,74,184
1,61,92,36
1,64,95,0
1,57,105,0
1,52,80,12
1,62,86,20
1,66,83,8
1,61,78,0
1,47,86,0
1,59,86,0
1,59,83,8
1,61,88,24
1,66,88,0
1,62,95,0
1,47,71,16
1,59,81,0
1,61,88,16
1,62,95,0
1,47,83,0
1,66,77,8
1,59,77,48
1,61,92,16
1,62,101,0
1,66,90,0
1,59,88,28
1,47,75,0
1,59,86,32
1,62,92,0
1,55,88,0
1,64,95,0
1,40,84,0
1,52,83,0
1,55,67,8
1,59,105,28
1,55,108,0
1,47,92,4
1,62,98,12
1,55,72,0
1,59,92,0
1,59,95,40
1,62,95,0
1,45,95,0
1,55,95,8
1,55,71,32
1,59,101,56
1,61,101,0
1,64,101,0
1,57,101,0
1,45,83,8
1,57,98,8
1,64,98,24
1,38,92,0
1,57,98,0
1,50,90,0
1,62,101,0
1,66,90,0
1,57,65,8
1,62,102,16
1,66,102,8
1,64,102,0
1,57,102,0
1,50,88,0
1,57,90,4
1,61,98,20
1,57,105,4
1,42,88,0
1,49,69,184
1,57,105,40
1,54,98,0
1,49,72,8
1,59,101,8
1,55,90,8
1,43,98,0
1,50,77,180
1,57,119,196
1,62,105,0
1,59,101,8
1,50,83,32
1,55,77,4
1,45,98,36
1,55,92,0
1,59,108,0
1,62,105,0
1,45,88,12
1,55,84,4
1,57,107,60
1,64,107,0
1,61,107,4
1,45,92,16
1,57,98,0
1,47,95,28
1,66,84,0
1,61,88,0
1,62,98,0
1,59,81,192
1,62,101,24
1,61,90,0
1,66,90,0
1,47,74,32
1,61,98,32
1,62,105,0
1,66,98,0
1,47,84,44
1,59,83,4
1,62,105,24
1,61,98,0
1,66,92,0
1,59,101,44
1,47,77,0
1,55,90,32
1,59,101,8
1,64,98,0
1,62,101,0
1,40,83,0
1,52,86,0
1,59,103,16
1,55,103,8
1,40,76,20
1,52,83,4
1,62,92,0
1,55,88,8
1,45,101,36
1,62,101,0
1,59,114,0
1,55,88,4
1,55,83,24
1,61,101,20
1,64,101,0
1,57,98,8
1,59,101,0
1,45,86,180
1,38,95,24
1,69,98,0
1,66,98,0
1,50,95,0
1,64,98,0
1,62,83,4
1,66,88,24
1,69,95,0
1,64,95,8
1,62,86,0
1,50,78,8
1,62,95,4
1,38,86,20
1,50,92,0
1,60,98,4
1,67,98,8
1,64,98,0
1,50,71,4
1,62,95,56
1,66,90,0
1,60,75,0
1,50,86,8
1,60,83,4
1,43,84,16
1,57,105,0
1,59,105,0
1,62,95,8
1,50,84,184
1,57,101,24
1,62,101,0
1,59,92,56
1,50,86,12
1,55,76,96
1,40,98,28
1,62,98,4
1,59,105,0
1,55,92,8
1,52,78,184
1,61,92,28
1,45,98,0
1,64,98,0
1,59,114,0
1,57,105,4
1,57,81,32
1,45,81,0
1,38,98,32
1,64,92,0
1,57,98,0
1,66,92,0
1,50,101,8
1,62,105,0
1,57,74,8
1,66,105,16
1,64,98,0
1,57,108,0
1,62,101,0
1,50,88,128
1,38,105,40
1,64,105,0
1,60,105,8
1,50,101,0
1,67,105,0
1,60,81,16
1,60,105,36
1,62,108,0
1,66,90,0
1,50,84,20
1,43,88,20
1,59,105,0
1,62,98,0
1,57,101,0
1,50,72,188
1,57,100,16
1,62,100,0
1,59,83,8
1,50,84,8
1,40,98,8
1,55,92,0
1,59,95,0
1,62,92,0
1,52,86,8
1,55,95,0
1,62,90,8
1,59,98,0
1,61,98,32
1,57,101,8
1,64,101,0
1,59,90,4
1,57,98,32
1,50,81,24
1,64,98,0
1,66,83,0
1,57,101,0
1,62,98,8
1,38,74,0
1,57,77,8
1,66,98,32
1,57,114,0
1,64,98,0
1,62,101,0
1,50,84,80
1,57,77,8
1,38,98,40
1,67,101,0
1,64,101,0
1,57,105,0
1,60,105,0
1,50,81,20
1,66,92,32
1,60,95,8
1,62,105,0
1,57,98,0
1,57,80,16
1,50,75,0
1,43,83,24
1,59,108,0
1,62,105,0
1,57,98,8
1,50,75,180
1,57,101,36
1,62,108,8
1,57,105,0
1,50,86,0
1,57,105,28
1,62,108,0
1,42,98,4
1,50,80,192
1,57,101,28
1,50,86,8
1,62,78,0
1,40,101,28
1,55,88,0
1,59,101,0
1,62,92,0
1,55,92,20
1,45,90,0
1,62,92,0
1,59,101,4
1,57,98,28
1,69,98,0
1,74,92,0
1,66,88,0
1,64,90,0
1,50,90,4
1,64,67,8
1,62,81,8
1,74,98,4
1,69,105,0
1,66,98,4
1,64,95,0
1,64,80,8
1,73,88,24
1,66,92,8
1,69,101,0
1,64,95,0
1,54,90,0
1,61,88,0
1,64,84,4
1,66,114,24
1,74,105,0
1,61,88,0
1,64,76,8
1,62,88,4
1,69,88,4
1,67,84,8
1,59,92,0
1,71,88,0
1,55,78,0
1,57,86,0
1,59,80,120
1,67,119,8
1,71,108,0
1,69,114,12
1,62,101,0
1,57,101,4
1,59,101,0
1,55,66,8
1,59,78,8
1,69,88,0
1,57,83,0
1,59,95,4
1,64,77,0
1,61,78,0
1,74,98,48
1,50,88,0
1,62,98,0
1,69,114,0
1,66,98,0
1,64,90,4
1,57,88,188
1,74,108,8
1,66,98,8
1,69,114,0
1,64,92,8
1,62,77,8
1,64,84,8
1,73,92,12
1,69,108,0
1,66,98,0
1,54,92,0
1,64,98,0
1,61,72,176
1,69,108,8
1,66,98,0
1,64,105,0
1,61,68,8
1,62,95,16
1,57,95,8
1,55,86,0
1,67,98,0
1,71,92,8
1,59,92,0
1,67,105,8
1,71,108,0
1,59,84,8
1,59,108,8
1,64,105,0
1,55,95,0
1,69,98,4
1,57,11,84
1,71,105,4
1,73,101,96
1,74,108,20
1,64,81,0
1,59,81,0
1,76,108,68
1,78,98,52
1,79,98,96
1,66,90,12
1,69,92,0
1,62,88,4
1,64,88,0
1,81,114,0
1,66,103,24
1,57,103,0
1,50,81,188
1,62,76,4
1,42,77,12
1,61,88,8
1,52,76,0
1,57,80,4
1,49,66,188
1,61,90,0
1,57,105,4
1,49,68,4
1,57,80,4
1,43,81,24
1,62,81,8
1,59,80,0
1,55,86,0
1,57,92,0
1,50,76,192
1,57,98,8
1,62,101,0
1,55,80,0
1,59,95,8
1,50,77,8
1,55,77,8
1,45,86,24
1,62,95,4
1,59,98,0
1,55,76,8
1,52,74,184
1,61,92,36
1,64,95,0
1,57,105,0
1,52,80,12
1,62,86,20
1,66,83,8
1,61,78,0
1,47,86,0
1,59,86,0
1,59,83,8
1,61,88,24
1,66,88,0
1,62,95,0
1,47,71,16
1,59,81,0
1,61,88,16
1,62,95,0
1,47,83,0
1,66,77,8
1,59,77,48
1,61,92,16
1,62,101,0
1,66,90,0
1,59,88,28
1,47,75,0
1,59,86,32
1,62,92,0
1,55,88,0
1,64,95,0
1,40,84,0
1,52,83,0
1,55,67,8
1,59,105,28
1,55,108,0
1,47,92,4
1,62,98,12
1,55,72,0
1,59,92,0
1,59,95,40
1,62,95,0
1,45,95,0
1,55,95,8
1,55,71,32
1,59,101,56
1,61,101,0
1,64,101,0
1,57,101,0
1,45,83,8
1,57,98,8
1,64,98,24
1,38,92,0
1,57,98,0
1,50,90,0
1,62,101,0
1,66,90,0
1,57,65,8
1,62,102,16
1,66,102,8
1,64,102,0
1,57,102,0
1,50,88,0
1,57,90,4
1,61,98,20
1,57,105,4
1,42,88,0
1,49,69,184
1,57,105,40
1,54,98,0
1,49,72,8
1,59,101,8
1,55,90,8
1,43,98,0
1,50,77,180
1,57,119,196
1,62,105,0
1,59,101,8
1,50,83,32
1,55,77,4
1,45,98,36
1,55,92,0
1,59,108,0
1,62,105,0
1,45,88,12
1,55,84,4
1,57,107,60
1,64,107,0
1,61,107,4
1,45,92,16
1,57,98,0
1,47,95,28
1,66,84,0
1,61,88,0
1,62,98,0
1,59,81,192
1,66,90,24
1,62,101,0
1,61,90,0
1,78,98,20
1,66,90,4
1,85,90,4
1,73,88,8
1,61,98,8
1,62,105,0
1,66,98,0
1,86,101,0
1,74,86,4
1,59,83,8
1,71,95,0
1,83,95,0
1,62,105,24
1,61,98,0
1,66,92,0
1,69,84,4
1,59,101,8
1,81,81,0
1,55,90,16
1,59,101,4
1,64,98,0
1,62,101,0
1,52,86,0
1,79,83,4
1,67,73,20
1,59,103,16
1,55,103,8
1,40,76,20
1,52,83,4
1,62,92,0
1,55,88,8
1,45,101,36
1,62,101,0
1,59,114,0
1,55,88,4
1,55,83,24
1,61,101,20
1,64,101,0
1,57,98,8
1,59,101,0
1,45,86,180
1,38,95,24
1,69,98,0
1,66,98,0
1,50,95,0
1,64,98,0
1,62,83,4
1,66,88,24
1,69,95,0
1,64,95,8
1,62,86,0
1,50,78,8
1,62,95,4
1,38,86,20
1,50,92,0
1,60,98,4
1,67,98,8
1,64,98,0
1,50,71,4
1,62,95,56
1,66,90,0
1,60,75,0
1,50,86,8
1,60,83,4
1,43,84,16
1,57,105,0
1,59,105,0
1,62,95,8
1,50,84,184
1,57,101,24
1,62,101,0
1,59,92,56
1,50,86,12
1,55,76,96
1,40,98,28
1,62,98,4
1,59,105,0
1,55,92,8
1,52,78,184
1,61,92,28
1,45,98,0
1,64,98,0
1,59,114,0
1,57,105,4
1,57,81,32
1,45,81,0
1,38,98,32
1,64,92,0
1,57,98,0
1,66,92,0
1,50,101,8
1,62,105,0
1,57,74,8
1,66,105,16
1,64,98,0
1,57,108,0
1,62,101,0
1,50,88,68
1,38,105,40
1,64,105,0
1,60,105,8
1,50,101,0
1,67,105,0
1,60,81,16
1,60,105,36
1,62,108,0
1,66,90,0
1,50,84,20
1,43,88,20
1,59,105,0
1,62,98,0
1,57,101,0
1,50,72,188
1,57,100,8
1,62,100,0
1,59,83,8
1,50,84,0
1,40,98,8
1,55,92,0
1,59,95,0
1,62,92,0
1,52,86,8
1,55,95,0
1,62,90,8
1,59,98,0
1,61,98,32
1,57,101,8
1,64,101,0
1,59,90,4
1,57,98,8
1,50,81,24
1,64,98,0
1,66,83,0
1,57,101,0
1,62,98,8
1,38,74,0
1,57,77,8
1,66,98,32
1,57,114,0
1,64,98,0
1,62,101,0
1,50,84,12
1,57,77,8
1,38,98,40
1,67,101,0
1,64,101,0
1,57,105,0
1,60,105,0
1,50,81,8
1,66,92,32
1,60,95,8
1,62,105,0
1,57,98,0
1,57,80,16
1,50,75,0
1,43,83,24
1,59,108,0
1,62,105,0
1,57,98,8
1,50,75,180
1,57,101,36
1,62,108,8
1,57,105,0
1,50,86,0
1,57,105,28
1,62,108,0
1,42,98,4
1,50,80,192
1,57,101,28
1,50,86,8
1,62,78,0
1,40,101,28
1,55,88,0
1,59,101,0
1,62,92,0
1,55,92,20
1,45,90,0
1,62,92,0
1,59,101,4
1,66,90,36
1,69,92,0
1,64,95,0
1,57,95,192
1,66,92,8
1,69,101,0
1,64,105,0
1,57,95,4
1,62,119,8
1,57,95,88
1,69,105,96
1,62,101,4
1,74,119,96
1,62,90,16
1,47,88,8
1,66,88,0
1,57,98,0
1,59,90,0
1,57,66,8
1,62,108,4
1,66,98,0
1,59,98,0
1,47,75,0
1,57,83,4
1,59,95,12
1,56,88,0
1,64,92,0
1,40,90,0
1,52,81,4
1,59,108,8
1,64,101,0
1,52,84,8
1,56,83,0
1,45,81,8
1,61,84,0
1,56,90,0
1,64,88,4
1,56,38,8
1,61,92,8
1,56,101,0
1,64,101,0
1,52,90,8
1,56,84,0
1,61,98,8
1,56,92,0
1,64,95,0
1,45,95,0
1,56,73,8
1,61,98,8
1,64,101,0
1,56,101,0
1,56,83,8
1,52,76,0
1,66,88,8
1,62,98,0
1,57,101,0
1,59,101,0
1,47,80,0
1,66,101,0
1,57,108,8
1,62,105,0
1,59,105,0
1,47,78,4
1,52,88,8
1,56,92,0
1,59,101,0
1,64,90,0
1,40,90,0
1,47,76,184
1,59,119,4
1,56,101,0
1,52,83,0
1,56,67,0
1,64,92,8
1,54,88,0
1,42,90,0
1,66,98,0
1,61,98,0
1,58,101,8
1,58,70,4
1,66,92,4
1,61,98,0
1,59,108,0
1,49,71,192
1,58,98,24
1,61,90,0
1,66,90,0
1,54,90,0
1,49,67,4
1,54,48,0
1,58,114,0
1,54,101,8
1,49,78,0
1,61,98,8
1,54,88,4
1,44,90,0
1,59,108,0
1,66,88,8
1,63,84,0
1,56,90,0
1,51,66,192
1,59,119,8
1,56,88,0
1,54,81,4
1,56,98,0
1,63,88,0
1,61,92,0
1,56,105,0
1,65,105,8
1,49,88,0
1,56,35,8
1,59,114,0
1,56,98,8
1,49,77,4
1,61,92,0
1,54,77,16
1,42,81,0
1,58,98,0
1,66,90,0
1,61,92,0
1,56,81,0
1,56,50,4
1,58,105,8
1,61,98,0
1,66,88,0
1,54,71,4
1,66,92,0
1,58,101,0
1,42,92,8
1,61,98,0
1,54,88,0
1,54,78,56
1,58,114,8
1,66,88,0
1,61,101,0
1,54,88,8
1,58,98,8
1,63,98,0
1,66,98,0
1,51,101,0
1,58,105,0
1,66,92,8
1,63,101,0
1,51,84,8
1,52,95,8
1,59,95,0
1,66,84,0
1,56,101,0
1,63,92,0
1,59,108,8
1,66,98,0
1,63,92,0
1,56,98,0
1,52,90,8
1,66,90,16
1,58,101,0
1,61,98,0
1,54,88,8
1,42,81,0
1,49,77,192
1,61,90,32
1,66,90,0
1,59,119,0
1,54,77,192
1,58,105,40
1,61,98,0
1,66,98,0
1,49,77,192
1,56,98,192
1,58,98,0
1,49,72,8
1,55,90,4
1,59,95,0
1,62,101,8
1,40,92,0
1,64,83,0
1,52,72,184
1,45,86,16
1,61,83,0
1,57,98,8
1,64,92,0
1,69,92,36
1,62,88,8
1,64,88,0
1,81,114,0
1,66,103,24
1,57,103,0
1,50,81,180
1,62,76,12
1,42,77,16
1,61,88,8
1,52,76,0
1,57,80,4
1,49,66,188
1,61,90,0
1,57,105,4
1,49,68,4
1,57,80,4
1,43,81,24
1,62,81,8
1,59,80,0
1,55,86,0
1,57,92,0
1,50,76,192
1,57,98,8
1,62,101,0
1,55,80,0
1,59,95,8
1,50,77,8
1,55,77,8
1,45,86,24
1,62,95,4
1,59,98,0
1,55,76,8
1,52,74,184
1,61,92,36
1,64,95,0
1,57,105,0
1,52,80,12
1,62,86,20
1,66,83,8
1,61,78,0
1,47,86,0
1,59,86,0
1,59,83,8
1,61,88,24
1,66,88,0
1,62,95,0
1,47,71,16
1,59,81,0
1,61,88,16
1,62,95,0
1,47,83,0
1,66,77,8
1,59,77,48
1,61,92,16
1,62,101,0
1,66,90,0
