track,note,velocity,time
0,60,110,478
0,65,110,0
0,69,110,0
0,72,110,0
0,53,110,0
0,72,0,180
0,69,0,0
0,60,0,0
0,65,0,0
0,60,110,0
0,64,110,0
0,67,110,0
0,72,110,0
0,72,0,240
0,64,0,0
0,67,0,0
0,60,0,0
0,62,110,0
0,65,110,0
0,70,110,0
0,72,110,0
0,62,0,120
0,62,110,0
0,62,0,120
0,72,0,0
0,70,0,0
0,65,0,0
0,72,110,0
0,70,110,0
0,65,110,0
0,62,110,0
0,62,0,60
0,70,0,0
0,65,0,0
0,72,0,0
0,62,110,0
0,65,110,0
0,70,110,0
0,72,110,0
0,72,0,120
0,65,0,0
0,70,0,0
0,62,0,0
0,60,110,0
0,64,110,0
0,67,110,0
0,72,110,0
0,72,0,120
0,64,0,0
0,53,0,0
0,60,0,0
0,67,0,0
0,60,110,0
0,65,110,0
0,69,110,0
0,72,110,0
0,53,110,0
0,72,0,180
0,69,0,0
0,60,0,0
0,65,0,0
0,60,110,0
0,64,110,0
0,67,110,0
0,72,110,0
0,72,0,120
0,72,110,0
0,72,0,60
0,60,110,0
0,60,0,60
0,64,0,0
0,67,0,0
0,60,0,0
0,62,110,0
0,65,110,0
0,70,110,0
0,72,110,0
0,82,110,120
0,82,0,60
0,81,110,0
0,81,0,60
0,77,110,0
0,77,0,60
0,72,110,0
0,72,0,60
0,70,110,0
0,70,0,60
0,69,110,0
0,69,0,60
0,65,110,0
0,65,0,1
0,72,0,0
0,65,0,0
0,53,0,0
0,70,0,0
0,62,0,0
0,53,110,0
0,57,110,0
0,60,110,0
0,62,110,0
0,41,110,0
0,53,79,0
0,57,119,0
0,65,87,0
0,36,91,0
0,49,67,0
0,49,0,1
0,36,0,0
0,29,100,1
0,62,0,58
0,41,0,0
0,65,110,0
0,41,110,0
0,44,75,0
0,44,0,1
0,29,0,1
0,29,100,0
0,65,0,8
0,57,0,0
0,53,0,15
0,65,0,35
0,41,0,0
0,65,110,0
0,41,110,0
0,57,87,0
0,38,91,0
0,38,0,1
0,29,0,1
0,29,100,0
0,57,0,13
0,53,0,45
0,60,0,0
0,57,0,0
0,65,0,0
0,41,0,0
0,52,110,0
0,55,110,0
0,62,110,0
0,41,110,0
0,53,79,0
0,57,119,0
0,65,95,0
0,36,107,0
0,44,107,0
0,29,0,2
0,29,100,0
0,65,0,43
0,57,0,10
0,41,67,0
0,41,0,5
0,41,0,0
0,62,0,0
0,53,0,0
0,60,110,0
0,41,110,0
0,44,0,1
0,36,0,0
0,29,0,1
0,29,100,0
0,40,59,8
0,40,0,5
0,40,51,0
0,40,0,5
0,43,43,0
0,43,0,5
0,43,43,0
0,43,0,5
0,36,43,0
0,36,0,5
0,36,35,0
0,36,0,5
0,48,35,0
0,48,0,5
0,52,51,0
0,52,0,5
0,52,43,0
0,52,0,5
0,55,59,0
0,55,0,5
0,41,0,0
0,41,110,0
0,55,59,0
0,46,75,0
0,46,0,1
0,29,0,1
0,29,100,0
0,55,0,3
0,48,51,0
0,48,0,5
0,48,51,0
0,48,0,5
0,60,67,0
0,60,0,5
0,64,67,0
0,64,0,5
0,64,59,0
0,64,0,5
0,67,67,0
0,67,0,5
0,67,75,0
0,67,0,5
0,60,83,0
0,60,0,5
0,60,75,0
0,60,0,5
0,79,91,5
0,79,0,5
0,41,0,0
0,41,110,0
0,72,75,0
0,79,75,0
0,84,67,0
0,38,91,0
0,44,91,0
0,83,91,0
0,83,0,1
0,44,0,0
0,38,0,0
0,29,0,1
0,29,100,0
0,52,0,58
0,41,0,0
0,72,0,0
0,55,0,0
0,60,0,0
0,84,0,0
0,79,0,0
0,53,110,0
0,58,110,0
0,62,110,0
0,48,110,0
0,94,103,0
0,82,107,0
0,89,103,0
0,58,123,0
0,60,123,0
0,48,123,0
0,36,107,0
0,44,107,0
0,29,0,2
0,36,100,0
0,48,0,28
0,50,110,0
0,36,0,2
0,38,100,0
0,50,0,28
0,41,110,0
0,44,0,1
0,36,0,0
0,38,0,1
0,29,100,0
0,48,0,13
0,60,0,25
0,58,0,5
0,41,0,15
0,41,110,0
0,29,0,2
0,29,100,0
0,82,0,13
0,89,0,0
0,94,0,0
0,70,43,5
0,70,0,5
0,70,51,0
0,70,0,5
0,77,67,0
0,77,0,5
0,77,67,0
0,77,0,5
0,74,67,0
0,74,0,5
0,72,75,0
0,72,0,5
0,70,75,0
0,70,0,5
0,58,75,0
0,58,0,5
0,41,0,0
0,41,110,0
0,38,91,0
0,44,83,0
0,44,0,1
0,38,0,0
0,29,0,1
0,29,100,0
0,65,67,3
0,65,0,5
0,65,67,0
0,65,0,5
0,62,67,0
0,62,0,5
0,60,67,0
0,60,0,5
0,41,0,35
0,41,110,0
0,58,87,0
0,60,103,0
0,70,87,0
0,36,67,0
0,36,0,1
0,29,0,1
0,29,100,0
0,58,0,6
0,41,0,0
0,58,0,0
0,53,0,0
0,62,0,0
0,70,0,0
0,60,0,0
0,53,110,0
0,53,83,0
0,53,87,0
0,57,103,0
0,65,87,0
0,36,91,0
0,44,83,0
0,44,0,1
0,36,0,0
0,29,0,1
0,41,100,0
0,53,0,13
0,65,75,15
0,65,0,10
0,53,0,20
0,60,110,0
0,65,110,0
0,69,110,0
0,53,110,0
0,65,75,0
0,41,0,2
0,41,100,0
0,65,0,13
0,65,0,15
0,57,0,0
0,53,83,0
0,53,0,15
0,65,0,15
0,53,0,0
0,60,0,0
0,53,0,0
0,69,0,0
0,60,110,0
0,65,110,0
0,69,110,0
0,52,110,0
0,65,75,0
0,53,87,0
0,38,91,0
0,44,75,0
0,83,91,0
0,83,0,1
0,44,0,0
0,38,0,0
0,41,0,1
0,40,100,0
0,53,0,8
0,65,0,5
0,65,75,15
0,65,0,15
0,65,0,15
0,69,0,0
0,52,0,0
0,60,0,0
0,60,110,0
0,65,110,0
0,69,110,0
0,52,110,0
0,53,83,0
0,40,0,2
0,40,100,0
0,53,0,18
0,65,75,10
0,65,0,10
0,65,0,20
0,69,0,0
0,60,0,0
0,52,0,0
0,60,110,0
0,65,110,0
0,69,110,0
0,50,110,0
0,50,79,0
0,53,119,0
0,62,87,0
0,36,91,0
0,44,91,0
0,44,0,1
0,36,0,0
0,40,0,1
0,38,100,0
0,60,0,58
0,50,0,0
0,69,0,0
0,65,0,0
0,57,110,0
0,62,110,0
0,65,110,0
0,50,110,0
0,36,91,0
0,36,0,1
0,38,0,1
0,38,100,0
0,53,0,8
0,62,0,0
0,50,0,15
0,50,0,5
0,50,110,0
0,38,0,2
0,38,100,0
0,57,0,28
0,50,0,0
0,62,0,0
0,65,0,0
0,57,110,0
0,62,110,0
0,65,110,0
0,50,110,0
0,53,87,0
0,38,91,0
0,44,83,0
0,44,0,1
0,38,0,0
0,38,0,1
0,38,100,0
0,53,0,13
0,57,0,45
0,65,0,0
0,50,0,0
0,62,0,0
0,57,110,0
0,62,110,0
0,65,110,0
0,50,110,0
0,50,79,0
0,53,119,0
0,62,95,0
0,36,67,0
0,36,0,1
0,38,0,1
0,38,100,0
0,62,0,43
0,53,0,10
0,50,0,5
0,57,0,0
0,65,0,0
0,50,0,0
0,62,0,0
0,53,110,0
0,57,110,0
0,62,110,0
0,50,110,0
0,36,91,0
0,44,83,0
0,44,0,1
0,36,0,0
0,38,0,1
0,38,100,0
0,62,0,58
0,50,0,0
0,53,0,0
0,57,0,0
0,53,110,0
0,57,110,0
0,62,110,0
0,50,110,0
0,46,75,0
0,46,0,1
0,38,0,1
0,38,100,0
0,50,0,6
0,45,110,0
0,81,83,0
0,86,75,0
0,77,75,0
0,38,91,0
0,44,83,0
0,83,91,0
0,83,0,1
0,44,0,0
0,38,0,0
0,38,0,1
0,33,100,0
0,53,0,58
0,45,0,0
0,57,0,0
0,62,0,0
0,86,0,0
0,53,110,0
0,58,110,0
0,62,110,0
0,46,110,0
0,89,103,0
0,94,94,0
0,86,94,0
0,58,123,0
0,62,123,0
0,50,123,0
0,36,107,0
0,44,107,0
0,33,0,2
0,34,100,0
0,81,0,58
0,46,0,0
0,77,0,0
0,46,110,0
0,44,0,1
0,36,0,0
0,34,0,1
0,34,100,0
0,50,0,13
0,94,0,15
0,89,0,0
0,86,0,0
0,62,0,10
0,58,0,5
0,46,0,15
0,46,110,0
0,34,0,2
0,34,100,0
0,101,91,53
0,101,0,5
0,46,0,0
0,46,110,0
0,101,75,0
0,106,67,0
0,94,67,0
0,38,91,0
0,44,83,0
0,44,0,1
0,38,0,0
0,34,0,1
0,34,100,0
0,94,0,48
0,106,0,0
0,101,0,0
0,46,0,10
0,46,110,0
0,106,67,0
0,101,83,0
0,94,83,0
0,58,87,0
0,62,103,0
0,70,87,0
0,36,67,0
0,36,0,1
0,34,0,1
0,34,100,0
0,58,0,58
0,70,0,0
0,58,0,0
0,46,0,0
0,94,0,0
0,106,0,0
0,101,0,0
0,62,0,0
0,62,0,0
0,53,0,0
0,53,110,0
0,58,110,0
0,62,110,0
0,48,110,0
0,106,67,0
0,101,83,0
0,94,83,0
0,58,87,0
0,62,103,0
0,70,87,0
0,36,91,0
0,44,83,0
0,44,0,1
0,36,0,0
0,34,0,1
0,36,100,0
0,48,0,28
0,48,110,0
0,36,0,2
0,36,100,0
0,48,0,28
0,43,110,0
0,46,75,0
0,46,0,1
0,36,0,1
0,31,100,0
0,94,0,23
0,101,0,0
0,106,0,0
0,62,0,5
0,70,0,0
0,94,51,0
0,36,91,0
0,36,0,1
0,94,0,4
0,101,43,0
0,101,0,5
0,98,43,0
0,98,0,5
0,98,51,0
0,98,0,5
0,94,51,0
0,94,0,5
0,82,59,0
0,82,0,5
0,43,0,0
0,62,0,0
0,60,110,0
0,45,110,0
0,82,51,0
0,38,91,0
0,83,91,0
0,83,0,1
0,38,0,0
0,31,0,1
0,33,100,0
0,82,0,3
0,89,51,0
0,89,0,5
0,58,0,0
0,89,59,0
0,89,0,5
0,86,51,0
0,86,0,5
0,86,51,0
0,86,0,5
0,82,51,0
0,82,0,5
0,45,0,30
0,48,110,0
0,36,91,0
0,46,75,0
0,46,0,1
0,36,0,0
0,33,0,1
0,36,100,0
0,60,0,1
0,48,0,0
0,53,0,0
0,58,0,0
0,62,110,0
0,53,110,0
0,57,110,0
0,60,110,0
0,41,110,0
0,53,79,0
0,57,119,0
0,65,87,0
0,36,91,0
0,49,67,0
0,49,0,1
0,36,0,0
0,36,0,1
0,29,100,0
0,62,0,58
0,41,0,0
0,65,110,0
0,41,110,0
0,44,75,0
0,44,0,1
0,29,0,1
0,29,100,0
0,57,0,8
0,65,0,0
0,53,0,15
0,65,0,35
0,41,0,0
0,65,110,0
0,41,110,0
0,57,87,0
0,38,91,0
0,38,0,1
0,29,0,1
0,29,100,0
0,57,0,13
0,57,0,45
0,60,0,0
0,53,0,0
0,65,0,0
0,41,0,0
0,52,110,0
0,55,110,0
0,62,110,0
0,41,110,0
0,53,79,0
0,57,119,0
0,65,95,0
0,36,107,0
0,44,107,0
0,29,0,2
0,29,100,0
0,65,0,43
0,57,0,10
0,41,67,0
0,41,0,5
0,41,0,0
0,53,0,0
0,41,110,0
0,36,0,1
0,44,0,0
0,29,0,1
0,29,100,0
0,40,59,8
0,40,0,5
0,40,51,0
0,40,0,5
0,43,43,0
0,43,0,5
0,43,43,0
0,43,0,5
0,62,0,0
0,65,110,0
0,36,43,0
0,36,0,5
0,36,35,0
0,36,0,5
0,48,35,0
0,48,0,5
0,52,51,0
0,52,0,5
0,52,43,0
0,52,0,5
0,55,59,0
0,55,0,5
0,65,0,0
0,41,0,0
0,65,110,0
0,41,110,0
0,55,59,0
0,46,75,0
0,46,0,1
0,29,0,1
0,29,100,0
0,55,0,3
0,48,51,0
0,48,0,5
0,48,51,0
0,48,0,5
0,60,67,0
0,60,0,5
0,64,67,0
0,64,0,5
0,64,59,0
0,64,0,5
0,67,67,0
0,67,0,5
0,67,75,0
0,67,0,5
0,60,83,0
0,60,0,5
0,60,75,0
0,60,0,5
0,79,91,5
0,79,0,5
0,41,0,0
0,65,0,0
0,65,110,0
0,41,110,0
0,72,75,0
0,79,75,0
0,84,67,0
0,38,91,0
0,44,91,0
0,83,91,0
0,83,0,1
0,44,0,0
0,38,0,0
0,29,0,1
0,29,100,0
0,52,0,58
0,41,0,0
0,72,0,0
0,55,0,0
0,65,0,0
0,84,0,0
0,79,0,0
0,53,110,0
0,58,110,0
0,62,110,0
0,41,110,0
0,94,103,0
0,82,107,0
0,89,103,0
0,58,123,0
0,62,123,0
0,50,123,0
0,36,107,0
0,44,107,0
0,29,0,2
0,29,100,0
0,41,0,58
0,48,110,0
0,44,0,1
0,36,0,0
0,29,0,1
0,36,100,0
0,50,0,13
0,62,0,15
0,48,0,0
0,60,110,0
0,50,110,0
0,36,0,2
0,38,100,0
0,62,0,8
0,58,0,5
0,60,0,15
0,50,0,0
0,60,110,0
0,53,110,0
0,38,0,2
0,41,100,0
0,94,0,13
0,89,0,0
0,82,0,0
0,70,43,5
0,70,0,5
0,70,51,0
0,70,0,5
0,77,67,0
0,77,0,5
0,77,67,0
0,77,0,5
0,74,67,0
0,74,0,5
0,74,75,0
0,74,0,5
0,70,75,0
0,70,0,5
0,58,75,0
0,58,0,5
0,53,0,0
0,53,110,0
0,38,91,0
0,44,83,0
0,44,0,1
0,38,0,0
0,65,67,4
0,65,0,5
0,65,67,0
0,65,0,5
0,62,67,0
0,62,0,5
0,62,67,0
0,62,0,5
0,53,0,35
0,41,110,0
0,58,87,0
0,62,103,0
0,70,87,0
0,36,67,0
0,36,0,1
0,41,0,1
0,29,100,0
0,58,0,6
0,41,0,0
0,53,0,0
0,60,0,0
0,58,110,0
0,62,110,0
0,65,110,0
0,41,110,0
0,58,83,0
0,36,91,0
0,44,83,0
0,44,0,1
0,36,0,0
0,29,0,1
0,29,100,0
0,58,0,13
0,70,75,15
0,70,0,10
0,41,0,20
0,41,110,0
0,70,75,0
0,29,0,2
0,29,100,0
0,70,0,13
0,70,0,15
0,62,0,0
0,58,83,0
0,58,0,15
0,65,0,15
0,58,0,0
0,58,0,0
0,41,0,0
0,62,0,0
0,60,110,0
0,64,110,0
0,67,110,0
0,41,110,0
0,60,75,0
0,48,87,0
0,38,91,0
0,44,75,0
0,83,91,0
0,83,0,1
0,44,0,0
0,38,0,0
0,29,0,1
0,29,100,0
0,48,0,8
0,60,0,5
0,60,75,15
0,60,0,15
0,64,0,15
0,67,0,0
0,41,0,0
0,60,0,0
0,60,110,0
0,41,110,0
0,48,83,0
0,29,0,2
0,29,100,0
0,48,0,18
0,60,75,10
0,60,0,10
0,60,0,20
0,41,0,0
0,69,110,0
0,60,110,0
0,65,110,0
0,41,110,0
0,53,79,0
0,57,119,0
0,65,87,0
0,36,91,0
0,44,91,0
0,44,0,1
0,36,0,0
0,29,0,1
0,29,100,0
0,41,0,58
0,69,0,0
0,69,110,0
0,41,110,0
0,36,91,0
0,36,0,1
0,29,0,1
0,29,100,0
0,65,0,8
0,57,0,0
0,53,0,15
0,41,0,35
0,69,0,0
0,69,110,0
0,41,110,0
0,57,87,0
0,38,91,0
0,44,83,0
0,44,0,1
0,38,0,0
0,29,0,1
0,29,100,0
0,57,0,13
0,60,0,45
0,69,0,0
0,41,0,0
0,65,0,0
0,69,110,0
0,60,110,0
0,64,110,0
0,67,110,0
0,41,110,0
0,53,79,0
0,57,119,0
0,65,95,0
0,36,107,0
0,44,107,0
0,29,0,2
0,29,100,0
0,65,0,43
0,57,0,10
0,69,0,5
0,53,0,0
0,41,0,0
0,69,110,0
0,41,110,0
0,36,0,1
0,44,0,0
0,29,0,1
0,29,100,0
0,41,0,58
0,69,0,0
0,69,110,0
0,41,110,0
0,46,75,0
0,46,0,1
0,29,0,1
0,29,100,0
0,69,0,6
0,41,0,0
0,69,110,0
0,41,110,0
0,79,83,0
0,84,75,0
0,76,75,0
0,38,91,0
0,44,83,0
0,83,91,0
0,83,0,1
0,38,0,0
0,44,0,0
0,29,0,1
