track,note,velocity,time
3,31,127,482
3,31,0,85
3,33,125,35
3,33,0,88
3,35,125,32
3,35,0,75
3,36,127,43
3,60,117,118
3,55,117,1
3,64,117,1
3,36,0,15
3,64,0,45
3,60,0,10
3,55,0,5
3,31,119,47
3,60,117,116
3,55,117,1
3,64,117,1
3,64,0,46
3,60,0,22
3,31,0,35
3,36,127,17
3,55,0,2
3,58,117,117
3,60,117,1
3,55,117,2
3,64,117,0
3,36,0,11
3,64,0,57
3,60,0,8
3,58,0,2
3,55,0,2
3,38,127,40
3,38,0,88
3,58,117,28
3,55,117,1
3,64,117,1
3,60,117,2
3,40,121,2
3,55,0,60
3,60,0,1
3,64,0,0
3,58,0,8
3,40,0,31
3,41,125,16
3,60,117,120
3,57,117,2
3,65,117,0
3,41,0,16
3,60,0,62
3,57,0,0
3,65,0,10
3,36,127,32
3,60,117,117
3,65,117,1
3,57,117,2
3,36,0,101
3,41,127,17
3,57,0,3
3,60,0,7
3,65,0,1
3,60,117,108
3,65,117,1
3,57,117,2
3,41,0,15
3,60,0,99
3,57,0,4
3,40,119,2
3,65,0,4
3,40,0,77
3,65,117,35
3,60,117,1
3,57,117,1
3,38,127,3
3,60,0,73
3,65,0,3
3,38,0,10
3,57,0,3
3,36,127,28
3,60,117,119
3,55,117,1
3,64,117,2
3,36,0,10
3,60,0,65
3,64,0,8
3,55,0,1
3,31,127,36
3,31,0,91
3,60,117,26
3,64,117,1
3,55,117,2
3,36,123,1
3,36,0,77
3,64,0,6
3,60,0,1
3,55,0,17
3,43,127,16
3,59,117,119
3,53,117,1
3,62,117,2
3,55,117,0
3,43,0,16
3,55,0,65
3,59,0,1
3,53,0,4
3,62,0,1
3,38,127,31
3,62,117,120
3,53,117,2
3,55,117,0
3,59,117,1
3,62,0,59
3,53,0,1
3,55,0,2
3,59,0,4
3,38,0,31
3,55,117,20
3,60,117,2
3,64,117,1
3,36,127,2
3,36,0,475
3,64,0,146
3,60,0,8
3,55,0,8
3,43,117,1881
3,31,127,0
3,31,0,78
3,43,0,17
3,45,117,21
3,33,125,3
3,33,0,93
3,45,0,0
3,47,117,24
3,35,125,3
3,47,0,79
3,35,0,17
3,36,127,22
3,60,117,120
3,55,117,2
3,64,117,0
3,36,0,13
3,64,0,49
3,55,0,9
3,60,0,3
3,36,127,46
3,60,117,118
3,64,117,2
3,55,117,0
3,64,0,81
3,60,0,13
3,36,0,9
3,55,0,2
3,43,127,13
3,59,117,119
3,62,117,1
3,55,117,2
3,43,0,11
3,41,127,109
3,62,0,6
3,59,0,3
3,55,0,2
3,59,117,105
3,62,117,1
3,55,117,1
3,55,0,48
3,62,0,9
3,59,0,4
3,41,0,39
3,36,127,20
3,60,117,118
3,55,117,1
3,64,117,1
3,36,0,11
3,64,0,52
3,55,0,3
3,60,0,3
3,43,127,53
3,60,117,117
3,55,117,1
3,64,117,2
3,64,0,55
3,55,0,1
3,60,0,3
3,43,0,46
3,36,127,13
3,60,117,119
3,55,117,1
3,64,117,2
3,36,0,11
3,64,0,51
3,60,0,3
3,55,0,4
3,36,125,51
3,36,0,85
3,53,117,32
3,59,117,1
3,55,117,2
3,62,117,1
3,38,127,2
3,62,0,54
3,55,0,6
3,53,0,0
3,59,0,3
3,38,0,19
3,40,127,33
3,59,117,118
3,55,117,1
3,64,117,1
3,40,0,7
3,64,0,84
3,59,0,7
3,55,0,8
3,40,127,16
3,59,117,117
3,55,117,1
3,64,117,0
3,55,0,51
3,64,0,4
3,59,0,11
3,40,0,38
3,38,127,16
3,62,117,119
3,60,117,1
3,65,117,2
3,57,117,0
3,38,0,14
3,60,0,72
3,65,0,2
3,57,0,5
3,62,0,5
3,43,127,22
3,59,117,116
3,62,117,1
3,55,117,1
3,53,117,2
3,53,0,93
3,62,0,1
3,55,0,2
3,59,0,1
3,43,0,9
3,36,127,12
3,60,117,119
3,55,117,1
3,64,117,2
3,36,0,15
3,55,0,45
3,64,0,1
3,60,0,4
3,43,127,53
3,60,117,119
3,55,117,1
3,64,117,2
3,64,0,60
3,55,0,3
3,60,0,2
3,43,0,40
3,36,127,13
3,60,117,118
3,55,117,1
3,64,117,1
3,36,0,17
3,60,0,58
3,64,0,13
3,55,0,3
3,38,125,31
3,38,0,93
3,55,117,23
3,60,117,1
3,64,117,1
3,40,127,3
3,55,0,50
3,64,0,3
3,60,0,6
3,40,0,19
3,41,127,39
3,57,117,119
3,60,117,1
3,65,117,2
3,41,0,15
3,60,0,63
3,65,0,15
3,57,0,2
3,41,127,26
3,60,117,117
3,57,117,2
3,65,117,0
3,65,0,45
3,60,0,15
3,57,0,12
3,41,0,27
3,43,127,19
3,59,117,119
3,62,117,1
3,53,117,2
3,55,117,0
3,43,0,18
3,43,125,42
3,43,0,16
3,62,0,43
3,43,127,2
3,55,0,1
3,53,0,0
3,59,0,2
3,43,0,80
3,59,117,34
3,62,117,2
3,55,117,1
3,53,117,1
3,41,121,1
3,53,0,61
3,55,0,3
3,62,0,5
3,59,0,14
3,41,0,28
3,40,127,4
3,59,117,119
3,55,117,0
3,64,117,1
3,40,0,8
3,59,0,96
3,64,0,18
3,38,127,0
3,55,0,4
3,59,117,113
3,62,117,1
3,57,117,2
3,65,117,1
3,65,0,92
3,62,0,6
3,59,0,0
3,57,0,8
3,38,0,1
3,33,127,10
3,61,117,119
3,64,117,1
3,57,117,2
3,33,0,14
3,64,0,97
3,33,127,9
3,61,0,4
3,57,0,3
3,33,0,104
3,61,117,6
3,57,117,1
3,64,117,2
3,40,127,1
3,61,0,77
3,57,0,1
3,64,0,1
3,40,0,31
3,38,127,7
3,62,117,119
3,57,117,1
3,65,117,2
3,38,0,15
3,62,0,57
3,65,0,0
3,57,0,4
3,33,127,44
3,62,117,117
3,57,117,1
3,65,117,0
3,33,0,105
3,62,0,12
3,65,0,1
3,38,127,2
3,57,0,1
3,60,117,119
3,65,117,2
3,57,117,0
3,62,117,1
3,38,0,9
3,62,0,67
3,60,0,2
3,57,0,12
3,65,0,4
3,33,127,23
3,33,0,91
3,56,117,27
3,60,117,1
3,62,117,1
3,65,117,2
3,38,127,3
3,65,0,110
3,38,0,3
3,60,0,2
3,43,127,2
3,62,0,1
3,56,0,5
3,60,117,110
3,55,117,1
3,65,117,1
3,43,0,12
3,38,127,110
3,65,0,6
3,60,0,15
3,55,0,2
3,60,117,93
3,65,117,1
3,55,117,1
3,65,0,79
3,60,0,2
3,55,0,5
3,38,0,19
3,59,117,13
3,55,117,1
3,62,117,1
3,43,127,4
3,43,0,56
3,55,0,51
3,59,0,5
3,62,0,1
3,43,117,3
3,31,125,3
3,43,0,88
3,31,0,4
3,45,117,24
3,33,125,1
3,45,0,80
3,33,0,22
3,47,117,17
3,35,125,4
3,47,0,79
3,35,0,26
3,36,127,12
3,60,117,120
3,55,117,2
3,64,117,0
3,36,0,13
3,64,0,49
3,55,0,8
3,60,0,3
3,36,127,47
3,60,117,117
3,64,117,1
3,55,117,2
3,64,0,80
3,60,0,13
3,36,0,12
3,55,0,0
3,43,127,13
3,59,117,119
3,62,117,1
3,55,117,2
3,43,0,10
3,41,127,110
3,62,0,6
3,59,0,4
3,55,0,2
3,59,117,108
3,62,117,1
3,55,117,0
3,55,0,46
3,62,0,9
3,59,0,4
3,41,0,38
3,36,127,20
3,60,117,118
3,55,117,1
3,64,117,1
3,36,0,11
3,64,0,54
3,55,0,2
3,60,0,2
3,43,127,51
3,60,117,119
3,55,117,1
3,64,117,2
3,64,0,55
3,55,0,1
3,60,0,3
3,43,0,44
3,36,127,15
3,60,117,119
3,55,117,1
3,64,117,2
3,36,0,13
3,64,0,49
3,60,0,3
3,55,0,5
3,36,125,50
3,36,0,85
3,53,117,32
3,59,117,1
3,55,117,2
3,62,117,1
3,38,127,1
3,62,0,55
3,55,0,6
3,53,0,0
3,59,0,3
3,38,0,19
3,40,127,33
3,59,117,119
3,55,117,1
3,64,117,2
3,40,0,5
3,64,0,85
3,59,0,5
3,55,0,10
3,40,127,15
3,59,117,118
3,55,117,2
3,64,117,0
3,55,0,50
3,64,0,3
3,59,0,11
3,40,0,37
3,38,127,17
3,62,117,118
3,60,117,1
3,65,117,1
3,57,117,2
3,38,0,11
3,60,0,76
3,65,0,2
3,57,0,4
3,62,0,5
3,43,127,22
3,59,117,116
3,62,117,1
3,55,117,1
3,53,117,2
3,53,0,93
3,62,0,0
3,55,0,3
3,59,0,1
3,43,0,9
3,36,127,12
3,60,117,119
3,55,117,1
3,64,117,0
3,36,0,17
3,64,0,45
3,55,0,0
3,60,0,5
3,43,127,55
3,60,117,117
3,55,117,1
3,64,117,2
3,64,0,60
3,55,0,4
3,60,0,1
3,43,0,41
3,36,127,12
3,60,117,118
3,55,117,1
3,64,117,1
3,36,0,17
3,36,123,45
3,60,0,11
3,36,0,1
3,64,0,13
3,55,0,3
3,38,125,32
3,38,0,93
3,55,117,24
3,60,117,1
3,64,117,2
3,40,127,2
3,55,0,48
3,64,0,5
3,60,0,6
3,40,0,17
3,41,127,40
3,57,117,118
3,60,117,1
3,65,117,1
3,41,0,17
3,60,0,64
3,65,0,14
3,57,0,3
3,41,127,24
3,60,117,116
3,57,117,1
3,65,117,1
3,65,0,45
3,60,0,18
3,57,0,11
3,41,0,26
3,43,127,20
3,59,117,118
3,62,117,1
3,53,117,1
3,55,117,2
3,43,0,19
3,43,125,41
3,43,0,16
3,62,0,42
3,43,127,2
3,55,0,1
3,53,0,0
3,59,0,3
3,43,0,81
3,59,117,33
3,62,117,2
3,55,117,1
3,53,117,1
3,41,121,1
3,53,0,60
3,55,0,5
3,62,0,4
3,59,0,14
3,41,0,28
3,40,127,4
3,59,117,119
3,55,117,1
3,64,117,2
3,40,0,8
3,59,0,94
3,38,127,18
3,64,0,1
3,55,0,2
3,59,117,113
3,62,117,1
3,57,117,1
3,65,117,2
3,65,0,93
3,59,0,8
3,62,0,1
3,57,0,4
3,38,0,2
3,33,127,10
3,61,117,119
3,64,117,1
3,57,117,0
3,33,0,16
3,64,0,99
3,33,127,7
3,61,0,5
3,57,0,1
3,33,0,105
3,61,117,6
3,57,117,1
3,64,117,2
3,40,127,2
3,61,0,76
3,57,0,1
3,64,0,1
3,40,0,33
3,38,127,5
3,62,117,119
3,57,117,1
3,65,117,2
3,60,117,0
3,38,0,15
3,62,0,57
3,60,0,0
3,65,0,1
3,57,0,5
3,33,127,42
3,62,117,116
3,57,117,1
3,65,117,1
3,60,117,2
3,33,0,103
3,62,0,14
3,60,0,1
3,65,0,1
3,38,127,2
3,57,0,1
3,60,117,115
3,65,117,1
3,56,117,2
3,62,117,0
3,38,0,11
3,62,0,66
3,60,0,2
3,56,0,12
3,65,0,3
3,33,127,26
3,33,0,90
3,56,117,27
3,60,117,1
3,62,117,2
3,65,117,1
3,38,127,1
3,65,0,112
3,38,0,3
3,60,0,1
3,43,127,2
3,62,0,2
3,56,0,3
3,60,117,111
3,55,117,1
3,65,117,1
3,43,0,12
3,38,127,110
3,65,0,6
3,60,0,15
3,55,0,2
3,60,117,94
3,65,117,1
3,55,117,2
3,65,0,76
3,60,0,3
3,55,0,4
3,38,0,20
3,59,117,13
3,55,117,1
3,62,117,1
3,43,127,4
3,43,0,56
3,55,0,51
3,59,0,5
3,62,0,1
3,43,117,3
3,31,125,3
3,43,0,88
3,31,0,4
3,45,117,24
3,33,125,1
3,45,0,79
3,33,0,23
3,47,117,17
3,35,125,5
3,47,0,78
3,35,0,25
3,36,127,13
3,60,117,120
3,64,117,2
3,55,117,0
3,36,0,11
3,55,0,86
3,60,0,6
3,64,0,2
3,43,127,13
3,60,117,120
3,55,117,0
3,64,117,2
3,55,0,81
3,64,0,9
3,60,0,4
3,43,0,9
3,36,127,15
3,60,117,119
3,55,117,1
3,64,117,2
3,58,117,0
3,36,0,14
3,55,0,37
3,60,0,4
3,58,0,1
3,64,0,5
3,36,123,4
3,36,0,22
3,38,127,31
3,38,0,86
3,60,117,33
3,64,117,1
3,55,117,2
3,40,125,2
3,55,0,45
3,64,0,9
3,60,0,3
3,40,0,19
3,41,127,40
3,60,117,118
3,65,117,1
3,57,117,1
3,41,0,17
3,57,0,41
3,60,0,6
3,65,0,2
3,36,125,56
3,60,117,117
3,65,117,1
3,57,117,0
3,57,0,50
3,60,0,5
3,65,0,3
3,36,0,47
3,41,127,15
3,60,117,119
3,57,117,1
3,65,117,2
3,41,0,14
3,57,0,19
3,60,0,6
3,65,0,4
3,41,103,22
3,41,0,17
3,40,127,38
3,40,0,91
3,62,117,25
3,65,117,1
3,57,117,1
3,38,127,5
3,57,0,31
3,65,0,19
3,62,0,3
3,38,0,29
3,36,127,33
3,60,117,118
3,64,117,1
3,55,117,1
3,36,0,12
3,55,0,16
3,64,0,28
3,60,0,2
3,43,125,64
3,43,0,87
3,60,117,29
3,64,117,1
3,55,117,1
3,36,127,5
3,55,0,45
3,64,0,7
3,60,0,4
3,36,0,4
3,38,127,55
3,62,117,122
3,57,117,1
3,65,117,0
3,38,0,14
3,57,0,19
3,65,0,9
3,62,0,7
3,43,127,70
3,59,117,117
3,62,117,1
3,55,117,2
3,55,0,46
3,62,0,5
3,59,0,2
3,43,0,53
3,36,127,12
3,60,117,118
3,55,117,1
3,64,117,1
3,36,0,17
3,55,0,22
3,64,0,7
3,60,0,10
3,43,127,66
3,60,117,117
3,64,117,1
3,55,117,2
3,55,0,42
3,64,0,2
3,60,0,11
3,43,0,51
3,36,127,12
3,36,0,45
3,58,117,73
3,60,117,1
3,55,117,1
3,64,117,2
3,36,127,2
3,64,0,54
3,55,0,0
3,60,0,2
3,58,0,6
3,36,0,31
3,38,127,25
3,38,0,91
3,60,117,25
3,55,117,1
3,64,117,1
3,40,121,3
3,64,0,39
3,55,0,7
3,60,0,2
3,40,0,28
3,41,125,40
3,60,117,120
3,65,117,1
3,57,117,2
3,41,0,18
3,57,0,14
3,65,0,8
3,60,0,3
3,36,123,77
3,65,117,117
3,60,117,1
3,57,117,2
3,57,0,75
3,60,0,3
3,65,0,5
3,36,0,20
3,43,127,15
3,59,117,119
3,62,117,1
3,55,117,2
3,53,117,0
3,43,0,11
3,55,0,42
3,53,0,0
3,62,0,2
3,59,0,4
3,38,127,61
3,59,117,117
3,62,117,1
3,55,117,2
3,53,117,0
3,53,0,28
3,55,0,0
3,62,0,13
3,59,0,8
3,38,0,56
3,36,125,12
3,60,117,119
3,64,117,1
3,55,117,1
3,36,0,15
3,55,0,15
3,64,0,16
3,60,0,2
3,31,127,74
3,31,0,91
3,64,117,26
3,60,117,1
3,55,117,2
3,36,114,1
3,55,0,55
3,60,0,2
3,64,0,7
3,36,0,21
3,41,127,32
3,60,117,119
3,65,117,1
3,57,117,2
3,41,0,13
3,60,0,46
3,57,0,4
3,65,0,2
3,41,104,0
3,41,0,30
3,40,121,26
3,40,0,87
3,60,117,25
3,65,117,2
3,57,117,1
3,38,127,4
3,60,0,61
3,57,0,3
3,65,0,2
3,38,0,27
3,36,121,25
3,60,117,119
3,64,117,1
3,55,117,2
3,36,0,10
3,55,0,36
3,60,0,4
3,64,0,5
3,31,125,63
3,31,0,97
3,60,117,21
3,64,117,1
3,55,117,1
3,36,109,3
3,55,0,30
3,60,0,18
3,64,0,1
3,36,0,46
3,38,123,21
3,62,117,123
3,65,117,0
3,57,117,1
3,60,117,1
3,38,0,11
3,60,0,32
3,62,0,2
3,57,0,6
3,65,0,3
3,33,127,64
3,33,0,103
3,59,117,14
3,55,117,1
3,62,117,2
3,53,117,1
3,31,127,2
3,53,0,55
3,55,0,1
3,59,0,1
3,62,0,2
3,31,0,42
3,60,117,13
3,55,117,1
3,64,117,2
3,36,127,2
3,36,0,236
3,55,0,52
3,64,0,1
3,60,0,1
3,43,117,2228
3,31,127,1
3,31,0,78
3,43,0,29
3,45,117,9
3,33,125,3
3,33,0,93
3,45,0,2
3,47,117,22
3,35,125,3
3,47,0,78
3,35,0,18
3,36,127,22
3,60,117,119
