track,note,velocity,time
3,41,40,1241
3,41,0,280
3,41,60,80
3,41,0,580
3,39,60,20
3,39,0,280
3,39,60,80
3,39,0,580
3,37,60,20
3,37,0,300
3,37,60,60
3,37,0,580
3,38,60,20
3,38,0,300
3,38,60,60
3,38,0,580
3,43,60,20
3,43,0,300
3,43,60,60
3,43,0,580
3,36,60,20
3,36,0,240
3,36,60,120
3,36,0,4
3,41,80,4
3,41,0,340
3,53,70,20
3,53,0,240
3,48,80,0
3,48,0,240
3,46,80,0
3,46,0,660
3,29,70,14
3,29,0,30
3,41,80,0
3,41,0,340
3,53,70,20
3,53,0,240
3,48,80,0
3,48,0,240
3,46,80,0
3,46,0,840
3,41,70,240
3,41,0,280
3,41,70,80
3,41,0,480
3,41,70,120
3,41,0,280
3,41,70,80
3,41,0,480
3,41,70,120
3,41,0,280
3,41,70,80
3,41,0,480
3,34,70,120
3,34,0,280
3,34,70,80
3,34,0,480
3,41,70,120
3,41,0,280
3,41,70,80
3,41,0,480
3,37,70,120
3,37,0,280
3,37,70,80
3,37,0,480
3,36,70,120
3,36,0,280
3,36,70,80
3,36,0,480
3,36,70,120
3,36,0,280
3,36,70,80
3,36,0,480
3,41,70,120
3,41,0,280
3,41,70,80
3,41,0,480
3,41,70,120
3,41,0,280
3,41,70,80
3,41,0,480
3,41,70,120
3,41,0,280
3,41,70,80
3,41,0,480
3,34,70,120
3,34,0,280
3,34,70,80
3,34,0,480
3,37,70,120
3,37,0,280
3,37,70,80
3,37,0,480
3,36,70,120
3,36,0,280
3,36,70,80
3,36,0,480
3,41,70,120
3,41,0,280
3,41,70,80
3,41,0,77
3,34,80,0
3,34,0,6
3,41,80,0
3,41,0,360
3,53,70,0
3,53,0,240
3,48,70,0
3,48,0,340
3,39,80,20
3,39,0,360
3,46,80,0
3,46,0,360
3,51,80,0
3,51,0,240
3,44,80,0
3,44,0,360
3,39,80,0
3,39,0,360
3,36,80,0
3,36,0,240
3,37,80,0
3,37,0,360
3,41,80,0
3,41,0,300
3,44,80,60
3,44,0,240
3,46,80,0
3,46,0,360
3,41,80,0
3,41,0,360
3,46,80,0
3,46,0,240
3,39,80,0
3,39,0,240
3,39,80,120
3,39,0,360
3,46,80,0
3,46,0,240
3,44,80,0
3,44,0,375
3,47,80,105
3,47,0,375
3,37,80,105
3,37,0,240
3,37,80,120
3,37,0,360
3,44,80,120
3,44,0,120
3,37,80,0
3,37,0,240
3,37,80,120
3,37,0,480
3,38,80,120
3,38,0,350
3,38,80,10
3,38,0,480
3,43,80,120
3,43,0,250
3,43,80,110
3,43,0,580
3,36,80,20
3,36,0,240
3,36,80,120
3,36,0,480
3,36,80,120
3,36,0,240
3,36,80,120
3,36,0,480
3,46,90,120
3,46,0,360
3,53,90,0
3,53,0,240
3,46,90,0
3,46,0,360
3,43,90,0
3,43,0,360
3,50,90,0
3,50,0,240
3,43,90,0
3,43,0,360
3,48,100,0
3,48,0,830
3,43,90,10
3,43,0,120
3,36,100,0
3,36,0,960
3,41,80,0
3,41,0,280
3,41,80,80
3,41,0,480
3,41,80,120
3,41,0,280
3,41,80,80
3,41,0,480
3,41,80,120
3,41,0,280
3,41,80,80
3,41,0,480
3,34,80,120
3,34,0,280
3,34,80,80
3,34,0,480
3,41,70,120
3,41,0,280
3,41,70,80
3,41,0,480
3,37,70,120
3,37,0,280
3,37,70,80
3,37,0,480
3,36,70,120
3,36,0,320
3,36,70,40
3,36,0,100
3,36,70,20
3,36,0,300
3,36,70,60
3,36,0,100
3,36,70,20
3,36,0,100
3,36,70,20
3,36,0,220
3,36,70,20
3,36,0,100
3,36,70,20
3,36,0,100
3,36,70,20
3,36,0,220
3,41,70,140
3,41,0,280
3,41,70,80
3,41,0,480
3,41,70,120
3,41,0,280
3,41,70,80
3,41,0,480
3,41,70,120
3,41,0,280
3,41,70,80
3,41,0,480
3,34,70,120
3,34,0,280
3,34,70,80
3,34,0,480
3,37,70,120
3,37,0,280
3,37,70,80
3,37,0,480
3,36,70,120
3,36,0,280
3,36,70,80
3,36,0,480
3,41,80,120
3,41,0,340
3,53,80,20
3,53,0,240
3,48,80,0
3,48,0,170
3,46,90,70
3,46,0,600
3,29,90,6
3,29,0,20
3,41,90,0
3,41,0,280
3,53,80,80
3,53,0,240
3,48,80,0
3,48,0,240
3,46,90,0
3,46,0,840
3,41,70,240
3,41,0,280
3,41,70,80
3,41,0,410
3,41,70,190
3,41,0,280
3,41,70,80
3,41,0,400
3,41,70,200
3,41,0,280
3,41,60,80
3,41,0,400
3,46,70,200
3,46,0,280
3,46,60,80
3,46,0,400
3,41,70,200
3,41,0,280
3,41,60,80
3,41,0,400
3,37,70,200
3,37,0,280
3,37,70,80
3,37,0,400
3,36,70,200
3,36,0,320
3,36,70,160
3,36,0,360
3,36,70,120
3,36,0,240
3,36,70,240
3,36,0,120
3,36,70,120
3,36,0,100
3,41,80,140
3,41,0,280
3,41,80,80
3,41,0,400
3,41,80,200
3,41,0,280
3,41,80,80
3,41,0,400
3,41,80,200
3,41,0,280
3,41,80,80
3,41,0,400
3,34,80,200
3,34,0,280
3,34,80,80
3,34,0,410
3,37,70,190
3,37,0,280
3,37,70,80
3,37,0,422
3,36,70,178
3,36,0,280
3,36,70,80
3,36,0,360
3,41,70,240
3,41,0,280
3,41,70,80
3,41,0,420
3,34,70,60
3,34,0,4
3,41,80,0
3,41,0,840
3,39,80,120
3,39,0,240
3,46,80,120
3,46,0,360
3,43,60,120
3,43,0,80
3,44,70,40
3,44,0,240
3,39,80,120
3,39,0,360
3,36,60,120
3,36,0,120
3,37,80,0
3,37,0,240
3,44,80,120
3,44,0,360
3,44,60,120
3,44,0,80
3,46,80,40
3,46,0,240
3,41,80,120
3,41,0,360
3,46,70,120
3,46,0,100
3,39,80,20
3,39,0,240
3,39,80,120
3,39,0,360
3,44,80,240
3,44,0,375
3,47,80,105
3,47,0,375
3,37,80,105
3,37,0,240
3,37,80,240
3,37,0,240
3,37,80,240
3,37,0,240
3,37,80,120
3,37,0,240
3,37,80,120
3,37,0,120
3,38,80,120
3,38,0,350
3,38,80,130
3,38,0,400
3,43,80,80
3,43,0,250
3,43,90,110
3,43,0,480
3,36,80,120
3,36,0,360
3,36,80,120
3,36,0,360
3,36,80,120
3,36,0,360
3,36,80,120
3,36,0,360
3,46,90,120
3,46,0,240
3,53,90,120
3,53,0,100
3,46,90,140
3,46,0,360
3,43,90,0
3,50,60,120
3,43,0,80
3,50,0,40
3,55,70,0
3,55,0,120
3,38,90,0
3,38,0,360
3,43,80,0
3,43,0,240
3,48,100,0
3,48,0,720
3,43,90,120
3,43,0,120
3,36,100,0
3,36,0,960
3,41,80,0
3,41,0,280
3,41,80,80
3,41,0,480
3,41,80,120
3,41,0,280
3,41,80,80
3,41,0,480
3,41,80,120
3,41,0,280
3,41,80,80
3,41,0,480
3,34,80,120
3,34,0,280
3,34,80,80
3,34,0,480
3,41,70,120
3,41,0,280
3,41,70,80
3,41,0,480
3,37,70,120
3,37,0,280
3,37,70,80
3,37,0,480
3,36,70,120
3,36,0,320
3,36,70,40
3,36,0,100
3,36,70,20
3,36,0,300
3,36,70,60
3,36,0,100
3,36,70,20
3,36,0,100
3,36,70,20
3,36,0,220
3,36,70,20
3,36,0,100
3,36,70,20
3,36,0,100
3,36,70,20
3,36,0,220
3,41,80,140
3,41,0,280
3,41,80,80
3,41,0,480
3,41,80,120
3,41,0,280
3,41,80,80
3,41,0,480
3,41,80,120
3,41,0,280
3,41,80,80
3,41,0,480
3,34,80,120
3,34,0,280
3,34,80,80
3,34,0,480
3,37,70,120
3,37,0,280
3,37,70,80
3,37,0,480
3,36,70,120
3,36,0,280
3,36,70,80
3,36,0,480
3,41,70,120
3,41,0,960
3,39,70,0
3,39,0,820
3,37,50,140
3,37,0,920
3,36,35,40
3,36,0,920
3,41,70,40
3,41,0,340
3,41,70,20
3,41,0,580
3,39,70,20
3,39,0,340
3,39,70,20
3,39,0,580
3,37,70,20
3,37,0,340
3,37,70,20
3,37,0,580
3,38,70,20
3,38,0,280
3,38,70,80
3,38,0,520
3,44,70,80
3,44,0,340
3,44,70,20
3,44,0,580
3,36,70,20
3,36,0,340
3,36,70,20
3,36,0,580
3,41,70,20
3,41,0,360
3,41,70,120
3,41,0,360
3,46,70,120
3,46,0,360
3,46,70,120
3,46,0,360
3,41,70,120
3,41,0,360
3,41,70,120
3,41,0,360
3,46,70,120
3,46,0,360
3,46,70,120
3,46,0,360
3,41,70,120
3,41,0,360
3,41,70,120
3,41,0,120
3,41,70,0
3,41,0,240
3,46,70,0
3,46,0,440
3,46,70,40
3,46,0,240
3,46,70,120
3,46,0,220
3,41,70,20
3,41,0,360
3,41,70,120
3,41,0,120
3,41,70,0
3,41,0,240
3,46,70,120
3,46,0,360
3,46,70,120
3,46,0,120
3,46,70,0
3,46,0,240
3,46,70,0
3,46,0,120
3,41,70,0
3,41,0,360
3,41,70,120
3,41,0,120
3,41,70,0
3,41,0,240
3,46,70,120
3,46,0,360
3,46,70,120
3,46,0,120
3,46,70,0
3,46,0,240
3,46,70,0
3,46,0,120
3,41,70,0
3,41,0,360
3,41,70,120
3,41,0,360
3,41,70,0
3,41,0,120
3,46,70,0
3,46,0,240
3,46,70,120
3,46,0,240
3,46,70,0
3,46,0,240
3,46,70,0
3,46,0,120
3,41,70,0
3,41,0,21
3,41,70,20
3,41,0,15
3,46,70,0
3,46,0,14
3,46,70,0
3,46,0,9
3,46,70,8
3,46,0,4
3,46,70,0
3,46,0,2
3,41,70,0
3,41,0,28
3,41,70,26
3,41,0,22
3,41,70,0
3,41,0,20
3,46,70,0
3,46,0,17
3,46,70,16
3,46,0,13
3,46,70,0
3,46,0,132
3,46,70,0
3,46,0,120
4,60,53,4235
4,65,56,120
4,60,0,120
4,67,59,0
4,65,0,120
4,68,62,0
4,67,0,120
4,72,65,0
4,68,0,120
4,77,68,0
4,72,0,120
4,79,71,0
4,77,0,120
4,80,70,0
4,79,0,120
4,80,0,360
4,82,90,120
4,82,0,240
4,80,70,0
4,80,0,120
4,82,50,0
4,82,0,50
4,83,50,0
4,82,40,50
4,83,0,10
4,80,50,40
4,82,0,10
4,82,80,40
4,80,0,10
4,82,0,390
4,80,70,0
4,79,40,288
4,78,40,36
4,80,0,36
4,77,60,0
4,79,0,48
4,78,0,36
4,77,0,876
4,86,50,72
4,85,50,24
4,86,0,6
4,84,70,18
4,85,0,6
4,84,0,54
4,83,60,0
4,83,0,60
4,82,80,0
4,82,0,60
4,80,60,0
4,80,0,60
4,79,60,0
4,79,0,60
4,74,60,0
4,74,0,60
4,74,70,0
4,74,0,60
4,77,50,0
4,77,0,60
4,80,70,0
4,80,0,60
4,77,50,0
4,77,0,60
4,82,70,0
4,82,0,60
4,83,50,0
4,83,0,60
4,82,60,0
4,82,0,60
4,80,60,0
4,80,0,60
4,77,60,0
4,77,0,480
4,85,70,8280
4,85,0,120
4,84,60,0
4,84,0,120
4,79,60,0
4,79,0,120
4,73,65,0
4,73,0,120
4,72,60,0
4,72,0,120
4,68,60,0
4,68,0,120
4,70,50,0
4,71,40,100
4,70,0,20
4,72,50,15
4,71,0,85
4,72,0,395
4,73,70,10185
4,77,60,120
4,73,0,20
4,80,60,100
4,77,0,20
4,83,50,88
4,80,0,12
4,83,0,3
4,84,70,7
4,82,60,110
4,84,0,10
4,82,0,110
4,77,60,0
4,73,65,120
4,77,0,20
4,73,0,90
4,74,50,10
4,75,60,40
4,74,0,20
4,75,0,220
4,77,70,2120
4,77,0,120
4,80,60,0
4,80,0,120
4,84,60,0
4,84,0,120
4,87,70,0
4,87,0,240
4,85,60,0
4,85,0,240
4,84,70,0
4,84,0,120
4,82,70,0
4,82,0,120
4,80,60,0
4,80,0,120
4,77,60,0
4,77,0,120
4,75,50,0
4,75,0,120
4,76,60,10
4,77,50,30
4,76,0,10
4,77,0,470
4,81,50,10268
4,82,60,24
4,81,0,26
4,80,60,82
4,82,0,12
4,81,50,96
4,80,0,12
4,82,70,12
4,81,0,26
4,80,60,82
4,82,0,12
4,80,0,108
4,77,60,0
4,77,0,120
4,75,60,0
4,75,0,120
4,76,50,5
4,77,60,35
4,76,0,25
4,77,0,275
4,73,50,12260
4,73,0,30
4,74,50,0
4,74,0,30
4,77,50,0
4,77,0,30
4,80,50,0
4,80,0,30
4,84,90,0
4,84,0,60
4,82,60,0
4,82,0,60
4,80,60,0
4,80,0,60
4,77,60,0
4,77,0,60
4,74,70,0
4,74,0,60
4,73,60,0
4,73,0,60
4,74,60,0
4,74,0,60
4,72,60,0
4,72,0,60
4,70,80,0
4,70,0,60
4,68,60,0
4,68,0,60
4,67,60,0
4,67,0,60
4,68,60,0
4,68,0,60
4,65,80,0
4,65,0,360
4,67,80,0
4,67,0,240
4,68,80,0
4,68,0,120
4,70,80,0
4,70,0,120
4,72,64,0
4,72,0,240
4,78,50,0
4,79,60,20
4,78,0,10
4,77,80,210
4,79,0,20
4,77,0,220
4,72,80,0
4,72,0,240
4,71,50,15
4,71,0,30
4,70,50,5
4,70,0,30
4,69,50,0
4,69,0,30
4,68,70,10
4,68,0,360
4,70,50,0
4,70,0,120
4,72,60,0
4,72,0,120
4,68,60,0
4,68,0,240
4,65,70,0
4,65,0,480
4,67,70,0
4,67,0,30
4,68,70,15
4,68,0,30
4,70,70,5
4,70,0,30
4,72,70,10
4,72,0,60
4,73,70,0
4,73,0,60
4,74,70,0
4,74,0,60
4,77,80,0
4,77,0,60
4,80,90,0
4,80,0,60
4,84,80,0
4,84,0,60
4,82,80,0
4,82,0,60
4,80,80,0
4,80,0,60
4,79,100,0
4,79,0,60
4,80,70,0
4,80,0,60
4,79,80,0
4,79,0,60
4,77,70,0
4,77,0,60
4,72,70,0
4,72,0,360
4,84,110,0
4,84,0,60
4,80,70,0
4,80,0,60
4,82,90,0
4,82,0,60
4,79,70,0
4,79,0,60
4,80,80,0
4,80,0,60
4,77,60,0
4,77,0,60
4,79,120,0
4,79,0,60
4,75,70,0
4,75,0,60
4,77,80,0
4,77,0,60
4,73,60,0
4,73,0,60
4,71,70,0
4,71,0,300
4,73,64,0
4,73,0,60
4,75,64,0
4,75,0,60
4,77,64,0
4,77,0,60
4,79,100,0
4,79,0,60
4,77,70,0
4,77,0,60
4,75,64,0
4,75,0,60
4,73,60,0
4,73,0,60
4,72,70,0
4,72,0,360
4,78,50,0
4,78,0,30
4,79,50,0
4,79,0,90
4,78,50,0
4,78,0,30
4,79,50,0
4,79,0,90
4,72,70,0
4,72,0,240
4,84,80,0
4,84,0,240
4,85,70,0
4,87,80,48
4,85,0,12
4,85,60,36
4,87,0,12
4,84,80,12
4,85,0,36
4,84,0,24
4,82,70,0
4,82,0,60
4,80,64,0
4,80,0,60
4,79,60,0
4,79,0,60
4,82,120,0
4,82,0,60
4,80,60,0
4,80,0,60
4,79,70,0
4,79,0,60
4,77,80,0
4,77,0,60
4,76,80,0
4,76,0,60
4,77,80,0
4,77,0,60
4,73,64,0
4,73,0,60
4,72,64,0
4,72,0,60
4,77,90,0
4,77,0,60
4,77,120,0
4,77,0,15
4,77,100,165
4,77,0,300
4,67,60,0
4,67,0,120
4,68,60,0
4,68,0,60
4,77,70,0
4,77,0,60
4,72,60,0
4,72,0,60
4,80,120,0
4,80,0,60
4,77,80,0
4,77,0,60
4,78,80,0
4,78,0,60
4,79,70,0
4,79,0,60
4,76,70,0
4,76,0,60
4,72,64,0
4,72,0,60
4,67,70,0
4,67,0,360
4,76,50,0
4,77,60,36
4,76,0,24
4,78,60,12
4,77,0,24
4,79,110,24
4,78,0,12
4,79,0,48
4,77,70,0
4,77,0,60
4,75,70,0
4,75,0,60
4,72,60,0
4,72,0,60
4,77,80,0
4,77,0,60
4,72,80,0
4,72,0,60
4,76,80,0
4,76,0,60
4,75,80,0
4,75,0,300
4,72,90,0
4,72,0,40
4,73,80,44
4,73,0,40
4,74,80,70
4,74,0,30
