track,note,velocity,time
1,24,71,2
1,33,71,64
1,35,71,78
1,36,83,112
1,31,79,132
1,31,83,96
1,36,67,48
1,36,79,50
1,38,79,48
1,40,75,80
1,41,75,84
1,36,67,114
1,36,63,62
1,41,79,16
1,41,71,64
1,40,71,50
1,38,67,98
1,36,79,96
1,31,91,98
1,31,47,82
1,31,75,66
1,33,71,66
1,35,75,78
1,36,79,114
1,43,87,68
1,36,71,68
1,36,55,66
1,41,67,20
1,36,67,84
1,36,75,64
1,41,71,48
1,36,67,114
1,36,67,82
1,41,71,50
1,36,71,48
1,31,71,96
1,33,79,66
1,35,79,80
1,36,127,6
1,36,127,64
1,31,127,20
1,43,63,4
1,43,127,0
1,43,127,84
1,41,63,2
1,29,127,8
1,36,63,4
1,36,127,0
1,36,127,80
1,31,127,48
1,36,127,36
1,36,95,78
1,31,127,20
1,40,63,52
1,40,127,0
1,40,127,66
1,35,127,20
1,43,63,4
1,43,127,0
1,38,127,84
1,43,63,2
1,31,127,0
1,36,63,4
1,36,127,0
1,36,127,82
1,31,127,48
1,36,127,34
1,36,63,0
1,36,95,82
1,31,127,22
1,41,63,48
1,41,127,0
1,41,127,62
1,36,127,18
1,43,63,32
1,43,127,0
1,43,127,82
1,38,127,34
1,40,63,18
1,40,127,0
1,40,127,82
1,35,127,48
1,45,63,4
1,45,127,0
1,33,95,84
1,28,127,18
1,38,63,4
1,38,127,0
1,38,127,66
1,33,127,18
1,38,127,48
1,38,127,82
1,33,127,36
1,43,63,2
1,43,63,4
1,43,127,0
1,43,127,82
1,38,127,48
1,43,127,34
1,43,95,80
1,38,127,20
1,36,63,34
1,36,127,0
1,36,127,64
1,31,127,20
1,43,63,2
1,43,127,0
1,43,127,84
1,38,127,34
1,41,63,0
1,36,63,2
1,36,127,0
1,36,127,84
1,31,127,48
1,36,127,36
1,36,95,82
1,31,127,18
1,40,63,4
1,40,127,0
1,40,127,64
1,35,127,18
1,38,63,4
1,38,63,2
1,38,127,0
1,38,127,82
1,31,127,34
1,43,63,0
1,36,63,6
1,36,127,0
1,36,127,82
1,31,127,48
1,36,127,38
1,36,63,0
1,36,95,80
1,31,127,18
1,41,63,4
1,41,127,0
1,41,127,62
1,36,127,18
1,43,63,30
1,43,127,0
1,43,127,82
1,38,127,34
1,40,63,2
1,40,127,2
1,40,63,0
1,40,127,80
1,35,127,48
1,45,63,18
1,45,127,0
1,33,95,84
1,28,127,20
1,38,63,2
1,38,127,0
1,38,127,64
1,33,127,18
1,38,127,46
1,38,127,84
1,33,127,34
1,43,63,4
1,43,127,0
1,43,127,82
1,38,127,48
1,43,127,36
1,43,95,82
1,38,127,18
1,36,63,18
1,36,127,0
1,36,127,64
1,31,127,18
1,36,127,50
1,36,127,82
1,24,127,36
1,36,63,0
1,41,63,2
1,41,127,0
1,41,127,82
1,36,127,50
1,41,127,38
1,41,95,78
1,36,127,20
1,36,63,2
1,36,127,0
1,36,127,68
1,31,127,20
1,38,63,2
1,38,127,0
1,38,127,84
1,43,63,0
1,31,127,32
1,36,63,2
1,36,127,0
1,36,127,84
1,31,127,48
1,36,127,36
1,36,63,2
1,36,95,0
1,31,127,18
1,41,63,32
1,41,127,0
1,41,127,62
1,36,127,18
1,43,63,2
1,43,127,0
1,43,127,86
1,38,127,32
1,36,63,2
1,36,127,0
1,36,127,86
1,36,63,2
1,24,127,2
1,41,63,2
1,41,127,0
1,41,95,84
1,36,127,18
1,36,63,2
1,36,127,0
1,36,127,68
1,31,127,20
1,38,63,16
1,38,127,0
1,38,127,86
1,43,63,2
1,31,127,8
1,36,63,4
1,36,127,0
1,36,127,82
1,31,127,50
1,36,127,34
1,36,95,84
1,31,127,20
1,36,115,66
1,36,123,86
1,41,127,32
1,36,115,52
1,36,127,64
1,41,123,20
1,36,123,38
1,36,123,52
1,41,123,18
1,36,127,40
1,31,103,38
1,33,111,32
1,35,107,66
1,36,127,4
1,36,127,66
1,31,127,18
1,43,63,4
1,43,127,0
1,43,127,82
1,38,127,36
1,41,63,2
1,36,63,2
1,36,127,0
1,36,127,84
1,31,127,50
1,36,127,38
1,36,95,80
1,31,127,18
1,40,63,2
1,40,127,0
1,40,127,66
1,35,127,18
1,38,63,2
1,38,63,0
1,38,127,0
1,38,127,86
1,43,63,2
1,31,127,22
1,36,63,2
1,36,127,0
1,36,127,82
1,31,127,48
1,36,63,4
1,36,127,0
1,36,95,84
1,31,127,20
1,41,63,48
1,41,127,0
1,41,127,64
1,36,127,18
1,43,63,4
1,43,127,0
1,43,127,84
1,38,127,36
1,40,63,2
1,40,127,0
1,40,127,86
1,35,127,50
1,45,63,4
1,45,127,0
1,33,95,80
1,28,127,18
1,38,63,4
1,38,127,0
1,38,127,62
1,33,127,18
1,38,127,46
1,38,127,82
1,33,127,32
1,43,63,6
1,43,63,0
1,43,127,0
1,43,127,84
1,38,127,48
1,43,127,36
1,43,95,84
1,38,127,18
1,36,63,2
1,36,127,0
1,36,127,64
1,31,127,18
1,43,63,16
1,43,127,0
1,43,127,82
1,41,63,2
1,29,127,6
1,36,63,2
1,36,127,0
1,36,127,82
1,31,127,48
1,36,127,38
1,36,95,84
1,31,127,18
1,40,63,34
1,40,127,0
1,40,127,62
1,35,127,18
1,43,63,4
1,43,127,2
1,38,127,80
1,43,63,0
1,31,127,32
1,36,63,6
1,36,127,0
1,36,127,84
1,31,127,48
1,36,63,4
1,36,127,0
1,36,95,84
1,31,127,20
1,41,63,32
1,41,127,0
1,41,127,96
1,36,127,18
1,43,63,4
1,43,127,0
1,43,127,86
1,38,127,34
1,40,63,4
1,40,127,0
1,40,127,84
1,35,127,48
1,45,63,4
1,45,127,0
1,33,95,82
1,28,127,20
1,38,63,48
1,38,127,0
1,38,127,66
1,33,127,18
1,38,127,50
1,38,127,86
1,33,127,34
1,43,63,4
1,43,127,0
1,43,127,82
1,38,127,48
1,43,127,4
1,43,95,84
1,38,127,18
1,36,63,2
1,36,127,0
1,36,127,66
1,31,127,18
1,36,127,50
1,36,127,82
1,36,63,4
1,24,127,22
1,41,63,2
1,41,127,0
1,41,127,80
1,36,127,48
1,41,127,34
1,41,95,80
1,36,127,18
1,36,63,16
1,36,127,0
1,36,127,62
1,31,127,16
1,38,63,18
1,38,63,4
1,38,127,0
1,38,127,86
1,43,63,4
1,31,127,0
1,36,63,2
1,36,127,0
1,36,127,84
1,31,127,48
1,36,63,2
1,36,127,0
1,36,95,84
1,31,127,18
1,41,63,32
1,41,127,0
1,41,127,66
1,36,127,18
1,43,63,2
1,43,127,0
1,43,127,82
1,38,127,34
1,36,63,4
1,36,127,0
1,36,127,82
1,24,127,48
1,36,63,0
1,41,127,0
1,41,63,0
1,41,95,82
1,36,127,18
1,36,63,4
1,36,127,0
1,36,127,70
1,31,127,20
1,38,63,14
1,38,127,0
1,38,127,84
1,43,63,2
1,31,127,8
1,36,127,4
1,36,63,0
1,36,127,80
1,31,127,50
1,36,127,38
1,36,95,80
1,31,127,20
1,36,115,68
1,36,123,84
1,41,127,32
1,36,115,52
1,36,127,64
1,41,123,24
1,36,123,34
1,36,123,50
1,41,123,18
1,36,127,34
1,31,103,38
1,33,111,34
1,35,107,70
1,36,127,4
1,36,127,70
1,31,127,20
1,43,63,4
1,43,127,0
1,43,127,82
1,29,127,36
1,41,63,0
1,36,63,2
1,36,127,0
1,36,127,82
1,31,127,48
1,36,127,32
1,36,95,82
1,31,127,20
1,40,63,2
1,40,127,0
1,40,127,66
1,35,127,20
1,38,63,4
1,38,63,2
1,38,127,0
1,38,127,84
1,43,63,0
1,31,127,32
1,36,63,2
1,36,127,0
1,36,127,82
1,31,127,48
1,36,63,4
1,36,127,0
1,36,95,80
1,31,127,20
1,41,63,2
1,41,127,0
1,41,127,64
1,36,127,18
1,43,127,48
1,43,63,0
1,43,127,84
1,38,127,38
1,40,63,18
1,40,127,0
1,40,127,86
1,35,127,48
1,45,63,2
1,45,127,0
1,33,95,80
1,28,127,18
1,38,127,68
1,38,63,0
1,38,127,68
1,33,127,18
1,38,127,50
1,38,127,84
1,33,127,34
1,43,63,2
1,43,127,0
1,43,127,88
1,38,127,48
1,43,63,2
1,43,127,0
1,43,95,80
1,38,127,18
1,36,63,2
1,36,127,0
1,36,127,68
1,31,127,18
1,43,63,34
1,43,127,0
1,43,127,84
1,41,63,4
1,29,127,8
1,36,63,2
1,36,127,0
1,36,127,84
1,31,127,48
1,36,127,36
1,36,95,80
1,31,127,20
1,40,63,32
1,40,63,2
1,40,127,0
1,40,127,64
1,35,127,18
1,38,63,2
1,38,127,0
1,38,127,80
1,43,63,2
1,31,127,30
1,36,63,4
1,36,127,0
1,36,127,82
1,31,127,48
1,36,127,34
1,36,63,0
1,36,95,86
1,31,127,18
1,41,63,2
1,41,127,0
1,41,127,62
1,36,127,18
1,43,63,2
1,43,127,0
1,43,127,80
1,38,127,34
1,40,63,34
1,40,127,0
1,40,127,82
1,35,127,46
1,45,63,18
1,45,127,0
1,33,95,82
1,28,127,18
1,41,63,50
1,38,127,0
1,38,63,0
1,38,127,64
1,33,127,18
1,38,127,48
1,38,127,80
1,33,127,34
1,43,63,4
1,43,63,2
1,43,127,0
1,43,127,82
1,38,127,46
1,43,127,4
1,43,95,78
1,38,127,18
1,36,63,50
1,36,127,0
1,36,127,64
1,31,127,18
1,36,127,48
1,36,127,80
1,24,127,34
1,36,63,0
1,41,63,2
1,41,127,0
1,41,127,82
1,36,127,48
1,41,127,38
1,41,95,80
1,36,127,20
1,36,63,4
1,36,127,0
1,36,127,66
1,31,127,18
1,38,63,4
1,38,63,2
1,38,127,0
1,38,127,82
1,41,63,2
1,31,127,2
1,36,63,4
1,36,127,0
1,36,127,80
1,31,127,48
1,36,127,34
1,36,63,2
1,36,95,0
1,31,127,16
1,41,63,4
1,41,127,0
1,41,127,64
1,36,127,16
1,43,63,32
1,43,127,0
1,43,127,84
1,38,127,36
1,36,63,2
1,36,127,0
1,36,127,82
1,36,63,4
1,24,127,0
1,41,63,4
1,41,127,0
1,41,95,84
1,36,127,18
1,36,63,6
1,36,127,0
1,36,127,66
1,31,127,16
1,38,63,16
1,38,63,4
1,38,127,0
1,38,127,84
1,31,127,36
1,43,63,0
1,36,63,2
1,36,127,0
1,36,127,84
1,31,127,48
1,36,127,34
1,36,95,84
1,31,127,20
1,36,127,4
1,36,127,66
1,41,119,20
1,36,127,32
1,36,119,64
1,41,127,36
1,36,127,34
1,36,127,84
1,41,127,18
1,36,115,20
1,31,111,98
1,36,127,30
2,71,123,958
2,67,123,0
2,72,115,50
2,69,119,0
2,71,111,48
2,74,107,0
2,72,119,64
2,76,127,0
2,76,127,48
2,72,99,0
2,72,83,64
2,76,115,0
2,72,75,48
2,76,119,0
2,77,95,30
2,74,115,2
2,72,115,32
2,76,115,0
2,74,115,48
2,71,127,0
2,72,123,36
2,69,123,0
2,69,123,50
2,65,127,0
2,69,127,68
2,72,115,0
2,69,123,48
2,72,123,0
2,69,107,48
2,72,87,0
2,74,99,30
2,71,127,2
2,71,55,36
2,69,119,0
2,72,115,0
2,71,127,36
2,67,119,0
2,65,115,52
2,69,119,0
2,64,127,52
2,67,127,0
2,67,119,50
2,76,115,0
2,65,115,48
2,74,95,0
2,72,119,50
2,64,127,0
2,71,119,50
2,65,127,0
2,65,103,66
2,69,127,0
2,65,119,46
2,71,111,0
2,72,127,64
2,64,127,2
2,64,127,100
2,60,127,0
2,60,119,64
2,64,107,0
2,62,115,36
2,65,99,0
2,57,119,16
2,62,111,0
2,60,123,50
2,64,119,0
2,64,107,50
2,60,119,0
2,62,115,32
2,65,95,0
2,57,119,18
2,62,115,0
2,60,127,64
2,64,115,0
2,60,127,66
2,64,99,0
2,65,95,36
2,62,115,0
2,57,115,30
2,62,115,0
2,64,115,48
2,60,123,0
2,59,127,98
2,67,127,0
2,67,111,64
2,60,127,0
2,62,115,66
2,67,127,0
2,64,103,4
2,60,103,0
2,55,103,0
2,55,103,16
2,60,103,98
2,64,103,182
2,55,103,2
2,71,103,14
2,62,103,190
2,67,103,98
2,69,103,104
2,72,103,0
2,60,103,16
2,64,103,30
2,55,103,196
2,60,103,90
2,64,103,160
2,55,103,2
2,60,103,96
2,55,103,6
2,60,103,90
2,64,103,2
2,67,103,0
2,59,103,16
2,64,103,0
2,67,103,0
2,59,103,20
2,64,103,94
2,67,103,178
2,59,103,2
2,65,103,2
2,57,103,188
2,62,103,94
2,71,103,106
2,74,103,0
2,62,103,16
2,64,103,16
2,55,103,192
2,60,103,96
2,64,103,160
2,55,103,0
2,70,119,0
2,60,103,0
2,55,103,0
2,60,103,94
2,67,103,0
2,64,103,2
2,60,103,16
2,65,103,0
2,69,103,0
2,60,103,20
2,65,103,92
2,69,103,178
2,60,103,4
2,71,103,16
2,62,103,192
2,67,103,96
2,71,103,18
2,74,103,0
2,62,103,18
2,67,103,30
2,59,103,192
2,64,103,96
2,67,103,160
2,59,103,2
2,57,103,10
2,52,103,2
2,57,103,102
2,61,103,2
2,64,103,0
2,65,103,14
2,62,103,2
2,57,103,0
2,57,103,20
2,62,103,94
2,65,103,178
2,57,103,2
2,65,103,96
2,57,103,162
2,62,103,64
2,65,103,18
2,69,103,0
2,57,103,16
2,72,103,4
2,62,103,190
2,67,103,92
2,72,103,158
2,62,103,2
2,67,103,0
2,62,103,0
2,67,103,96
2,71,103,2
2,74,103,0
2,64,103,20
2,60,103,2
2,55,103,0
2,55,103,18
2,60,103,94
2,64,103,180
2,55,103,0
2,71,103,28
2,62,103,192
2,67,103,100
2,69,103,78
2,72,103,0
2,60,103,16
2,64,103,18
2,55,103,192
2,60,103,100
2,64,103,160
2,55,103,0
2,60,103,98
2,55,103,2
2,60,103,98
2,67,103,2
2,64,103,2
2,59,103,10
2,64,103,0
2,67,103,0
2,59,103,18
2,64,103,100
2,67,103,178
2,59,103,2
2,65,103,4
2,57,103,184
2,62,103,96
2,71,103,96
2,74,103,0
2,62,103,18
2,64,103,16
2,55,103,196
2,60,103,92
2,64,103,162
2,55,103,0
2,70,119,2
2,60,103,0
2,55,103,0
2,60,103,94
2,64,103,0
2,67,103,0
2,60,103,10
2,65,103,0
2,69,103,0
2,60,103,22
2,65,103,92
2,69,103,178
2,60,103,2
2,71,103,16
2,62,103,192
2,67,103,100
2,71,103,18
2,74,103,0
2,62,103,16
2,67,103,10
2,59,103,192
2,64,103,96
2,67,103,160
2,59,103,2
2,57,103,16
2,52,103,0
2,57,103,98
2,64,103,2
2,61,103,2
2,65,103,16
2,62,103,0
2,57,103,2
2,57,103,18
2,62,103,96
2,65,103,178
2,57,103,4
2,65,103,90
2,57,103,162
2,62,103,68
2,65,103,18
2,69,103,0
2,57,103,16
2,72,103,20
2,62,103,186
2,67,103,98
2,72,103,158
2,62,103,0
2,67,103,0
2,62,103,2
2,67,103,96
2,74,103,4
2,71,103,0
2,55,103,20
2,60,103,0
2,64,103,0
2,55,103,18
2,60,103,98
2,64,103,178
2,55,103,4
2,64,103,94
2,55,103,162
2,60,103,62
2,67,103,92
2,64,103,2
2,55,103,20
2,69,103,18
2,60,103,192
2,65,103,98
2,69,103,158
2,60,103,2
2,65,103,98
2,60,103,6
2,65,103,90
2,69,103,2
2,72,103,0
2,55,103,18
2,60,103,0
2,64,103,0
2,55,103,22
2,60,103,92
2,64,103,178
2,55,103,2
2,65,103,28
2,57,103,192
2,62,103,98
2,74,103,130
2,71,103,0
2,62,103,18
2,64,103,30
2,55,103,190
2,60,103,100
2,64,103,160
2,55,103,2
2,60,103,98
2,55,103,164
2,60,103,98
2,64,103,2
2,67,103,0
2,60,103,16
2,65,103,0
2,69,103,0
2,60,103,24
2,65,103,90
2,69,103,178
2,60,103,2
2,71,103,14
2,62,103,190
2,67,103,100
2,71,103,18
2,74,103,0
2,62,103,18
2,64,103,6
2,55,103,188
2,60,103,94
2,64,103,88
2,55,103,194
2,65,103,30
2,60,103,6
2,65,103,92
2,69,103,2
