track,note,velocity,time
1,31,105,36080
1,36,107,196
1,36,105,430
1,36,104,842
1,36,105,450
1,29,107,814
1,29,108,434
1,36,108,632
1,29,103,2
1,29,108,412
1,36,107,834
1,36,103,446
1,31,109,660
1,36,108,12
1,36,109,430
1,29,109,842
1,29,110,442
1,36,107,664
1,29,109,12
1,29,107,454
1,33,105,286
1,36,105,82
1,38,105,4
1,31,107,126
1,29,105,36
1,36,108,1128
1,29,105,190
1,31,108,184
1,29,105,28
1,29,108,64
1,29,109,56
1,31,108,194
1,31,108,128
1,36,105,24
1,36,105,68
1,36,107,114
1,31,105,82
1,36,108,128
1,36,107,120
1,36,105,112
1,36,105,112
1,29,103,580
1,29,105,86
1,29,107,126
1,36,108,12
1,29,106,194
1,29,107,66
1,29,108,126
1,31,105,42
1,31,103,86
1,31,107,124
1,29,105,26
1,29,105,102
1,29,105,122
1,31,108,34
1,36,107,8
1,36,105,162
1,36,108,120
1,31,105,578
1,36,109,2
1,36,108,122
1,48,109,70
1,43,108,12
1,36,107,60
1,36,104,52
1,36,105,90
1,36,105,196
1,36,105,100
1,36,107,78
1,31,106,384
1,36,109,178
1,29,100,182
1,29,105,72
1,29,107,112
1,29,106,148
1,29,107,86
1,29,106,110
1,33,104,12
1,36,105,188
1,31,106,20
1,43,100,386
1,31,105,178
1,31,107,62
1,43,99,384
1,31,108,78
1,43,105,382
1,31,106,184
1,29,106,0
1,29,108,52
1,36,108,22
1,36,109,74
1,36,108,118
1,31,105,6
1,36,103,0
1,43,97,190
1,48,107,152
1,55,103,134
1,48,107,134
1,36,104,362
1,31,110,40
1,29,105,38
1,31,105,212
1,29,107,578
1,29,107,118
1,28,108,24
1,26,108,388
1,26,108,66
1,24,106,16
1,36,110,0
1,31,105,650
1,36,104,192
1,36,105,292
1,29,105,826
1,29,108,30
1,36,108,650
1,29,105,192
1,29,105,32
1,36,108,838
1,36,107,70
1,35,107,254
1,33,105,234
1,33,107,4
1,33,108,578
1,31,108,383
1,29,107,188
1,29,107,4
1,29,108,182
1,29,103,660
1,31,107,190
1,31,105,106
1,31,109,192
1,38,105,2
1,43,102,108
1,43,107,144
1,38,103,189
1,43,109,2
1,35,109,16
1,36,108,190
1,38,105,188
1,36,108,180
1,36,105,96
1,36,105,94
1,31,103,2
1,36,109,194
1,36,105,34
1,36,106,104
1,29,104,770
1,29,105,34
1,29,105,120
1,29,109,28
1,29,105,54
1,29,106,74
1,31,105,24
1,31,105,40
1,31,108,86
1,29,105,22
1,29,105,40
1,29,103,82
1,31,105,8
1,36,105,384
1,36,106,46
1,36,105,98
1,31,106,576
1,36,108,180
1,36,105,60
1,43,109,24
1,48,108,22
1,36,107,10
1,36,106,102
1,36,106,102
1,31,105,578
1,36,108,176
1,36,108,114
1,43,109,20
1,31,107,40
1,28,108,190
1,29,108,182
1,29,103,38
1,29,103,104
1,29,101,142
1,29,105,70
1,29,106,90
1,36,103,2
1,38,105,192
1,31,105,32
1,43,98,386
1,31,101,4
1,31,103,52
1,43,99,384
1,31,105,182
1,31,105,68
1,43,99,4
1,31,104,192
1,29,103,12
1,41,99,10
1,31,105,190
1,36,105,14
1,36,104,42
1,36,105,68
1,31,105,22
1,36,105,196
1,43,103,180
1,48,105,116
1,55,105,150
1,48,105,126
1,43,102,14
1,48,102,200
1,38,107,34
1,36,109,572
1,31,108,4
1,33,107,192
1,33,107,68
1,33,107,52
1,33,108,100
1,36,101,16
1,40,105,192
1,38,105,40
1,36,107,576
1,33,107,16
1,31,105,188
1,31,107,72
1,33,105,578
1,35,105,22
1,33,108,8
1,33,108,56
1,37,110,14
1,40,103,166
1,26,108,180
1,26,105,40
1,26,105,62
1,26,106,38
1,26,107,72
1,26,107,96
1,33,103,36
1,38,103,194
1,31,105,62
1,31,107,44
1,31,106,52
1,31,105,40
1,31,105,40
1,31,105,58
1,33,105,24
1,33,105,14
1,33,105,70
1,31,107,46
1,31,104,44
1,31,106,58
1,33,107,386
1,26,105,378
1,26,105,82
1,26,105,76
1,26,105,150
1,33,105,192
1,38,100,138
1,33,105,176
1,26,105,54
1,33,105,192
1,38,104,146
1,33,105,164
1,26,101,166
1,26,108,78
1,26,108,92
1,26,108,106
1,26,105,136
1,26,105,80
1,35,105,188
1,33,108,190
1,26,105,188
1,31,105,178
1,31,106,82
1,31,107,86
1,31,105,110
1,31,105,112
1,31,108,106
1,38,105,2
1,40,107,190
1,33,105,64
1,45,107,382
1,33,98,182
1,40,102,154
1,45,101,112
1,40,103,162
1,37,97,168
1,33,108,164
1,26,109,1254
1,26,107,118
1,26,108,104
1,33,106,30
1,38,98,196
1,38,105,104
1,38,107,104
1,33,105,190
1,26,108,192
1,33,105,2
1,31,107,568
1,43,97,952
1,33,103,28
1,31,105,0
1,43,102,964
1,43,98,60
1,33,105,10
1,31,105,570
1,43,96,956
1,43,101,34
1,33,105,14
1,31,104,578
1,43,101,926
1,43,102,86
1,43,98,100
1,38,106,70
1,33,105,0
1,31,105,10
1,43,103,966
1,43,87,82
1,33,103,34
1,31,103,16
1,43,102,966
1,43,97,56
1,43,105,106
1,38,103,10
1,43,103,194
1,33,105,16
1,31,105,0
1,43,97,966
1,43,103,48
1,33,105,70
1,31,105,0
1,26,64,6
2,76,115,1152
2,72,115,576
2,69,105,282
2,67,99,48
2,67,123,394
2,67,115,6
2,67,125,2
2,69,111,190
2,67,115,160
2,69,121,178
2,72,113,382
2,72,107,64
2,72,109,188
2,72,107,10
2,74,117,189
2,71,111,578
2,69,75,282
2,67,75,8
2,67,113,670
2,67,107,186
2,67,127,12
2,72,107,183
2,72,107,8
2,69,111,8
2,67,107,24
2,72,124,8444
2,72,122,194
2,72,123,191
2,72,124,188
2,71,108,197
2,71,116,20
2,69,113,6
2,72,121,14
2,72,123,194
2,76,120,12
2,76,120,116
2,69,119,196
2,69,115,8
2,69,119,10
2,76,118,2402
2,72,119,10
2,72,121,184
2,72,118,18
2,72,122,4
2,71,113,0
2,69,121,4
2,72,121,6
2,72,121,386
2,72,121,189
2,76,119,185
2,76,118,68
2,76,117,186
2,76,121,10
2,76,123,2
2,72,118,182
2,72,119,102
2,72,123,192
2,70,115,92
2,69,117,4
2,69,121,1148
2,69,122,92
2,69,120,186
2,71,120,12
2,69,123,16
2,69,120,1150
2,69,118,66
2,69,119,190
2,71,118,10
2,69,122,14
2,72,121,1728
2,72,119,188
2,72,121,10
2,72,123,192
2,72,123,378
2,76,118,8
2,76,119,52
2,76,115,12
2,76,123,2
2,76,124,100
2,76,119,192
2,72,123,0
2,70,115,0
2,69,121,2
2,76,123,1142
2,76,121,284
2,74,119,20
2,72,121,2
2,72,122,2
2,72,122,190
2,69,113,91
2,67,121,0
2,76,123,92
2,72,121,20
2,72,121,4
2,76,118,92
2,67,116,10
2,67,119,192
2,72,119,0
2,72,122,192
2,69,116,189
2,69,123,2120
2,71,124,184
2,69,123,14
2,69,123,1246
2,69,123,90
2,69,123,2
2,71,123,28
2,72,121,192
2,71,121,2
2,71,123,4
2,69,122,378
2,67,119,1338
2,76,124,486
2,74,121,188
2,74,122,24
2,72,121,6
2,79,122,104
2,74,115,18
2,74,119,32
2,72,119,4
2,72,123,28
2,72,119,8
2,72,121,192
2,72,122,189
2,76,119,186
2,69,118,36
2,69,118,38
2,72,121,2
2,69,121,0
2,76,121,482
2,76,119,6
2,77,123,26
2,76,119,190
2,72,119,12
2,76,124,192
2,72,121,8
2,71,119,0
2,64,119,478
2,77,121,2
2,76,119,8
2,76,122,2
2,72,116,196
2,77,121,2
2,76,122,12
2,76,120,70
2,72,121,184
2,76,120,2780
2,74,118,18
2,74,120,18
2,72,120,194
2,79,119,100
2,74,118,6
2,74,117,194
2,72,120,189
2,77,119,100
2,77,119,78
2,77,119,184
2,77,121,12
2,72,115,193
2,72,121,190
2,70,115,187
2,69,119,196
2,69,119,186
2,69,123,185
2,67,110,102
2,65,118,92
2,76,119,186
2,76,121,62
2,69,118,8
2,77,119,4
2,76,122,194
2,76,122,104
2,72,120,8
2,71,117,192
2,64,119,574
2,77,122,198
2,76,119,6
2,76,121,34
2,72,120,190
2,77,118,8
2,76,121,192
2,76,121,184
2,76,123,10
2,72,125,4
2,71,118,16
2,67,115,28
2,69,122,1522
2,71,123,198
2,69,121,22
2,69,119,1438
2,71,120,196
2,69,118,12
2,67,119,1308
2,72,121,190
2,72,119,10
2,72,119,2
2,72,118,38
2,72,118,22
2,72,120,28
2,76,119,0
2,76,114,66
2,72,119,194
2,76,114,194
2,76,119,54
2,76,122,188
2,76,121,4
2,74,118,193
2,74,115,68
2,74,118,2
2,74,116,186
2,74,115,12
2,69,116,6
2,76,118,186
2,74,118,200
2,69,119,168
2,76,118,676
2,72,120,4
2,72,115,46
2,72,114,192
2,72,114,95
2,72,115,0
2,72,114,192
2,72,119,1
2,76,121,106
2,76,119,762
2,76,112,62
2,76,117,8
2,76,111,186
2,81,117,8
2,81,116,6
2,77,121,0
2,76,116,388
2,72,120,2
2,77,119,192
2,72,120,194
2,72,122,120
2,71,115,2
2,77,116,1054
2,76,119,14
2,72,119,4
2,71,120,192
2,69,115,8
2,76,124,480
2,74,121,186
2,74,122,24
2,72,121,4
2,79,122,100
2,74,115,30
2,74,119,26
2,72,119,192
2,72,123,4
2,72,119,2
2,72,121,4
2,72,122,186
2,76,119,6
2,69,118,38
2,69,118,36
2,72,121,102
2,69,121,2
2,76,121,478
2,76,119,184
2,77,123,10
2,76,119,4
2,72,119,0
2,76,124,194
2,72,121,10
2,71,119,0
2,64,119,578
2,77,121,2
2,76,119,4
2,76,122,10
2,72,116,196
2,77,121,0
2,76,122,4
2,76,120,68
2,72,121,2
2,76,120,2784
2,74,118,20
2,74,120,12
2,72,120,194
2,79,119,98
2,74,118,8
2,74,117,192
2,72,120,0
2,77,119,100
2,77,119,78
2,77,119,20
2,77,121,42
2,72,115,184
2,72,121,4
2,70,115,6
2,69,119,194
2,69,119,84
2,69,123,6
2,67,110,92
2,65,118,6
2,76,119,192
2,76,121,48
2,67,118,14
2,77,119,8
2,76,122,188
2,76,122,106
2,72,120,4
2,71,117,190
2,65,119,576
2,77,122,196
2,76,119,12
2,76,121,26
2,72,120,198
2,77,118,8
2,76,121,192
2,76,121,60
2,76,123,8
2,72,125,0
2,71,118,12
2,67,115,34
2,74,118,1714
2,74,119,64
2,74,121,6
2,72,123,20
2,71,117,386
2,69,121,178
2,69,118,186
2,64,118,192
2,64,119,188
2,74,122,970
2,74,114,56
2,74,119,4
2,76,124,18
2,71,115,26
2,69,121,190
2,71,119,196
2,72,121,732
2,71,114,0
2,73,121,8
2,74,119,770
2,74,121,180
2,78,121,190
2,76,119,198
2,76,122,2
2,74,116,8
2,81,120,98
2,76,118,376
2,76,118,4
2,74,112,6
2,74,111,192
2,74,112,0
2,74,112,193
2,74,111,188
2,78,120,12
2,71,116,8
2,71,119,2
2,74,121,6
2,71,120,194
2,78,119,382
2,78,120,186
2,79,118,12
2,78,119,188
2,78,118,4
2,76,123,6
2,74,112,14
2,73,119,194
2,66,115,486
2,79,120,190
2,78,119,14
2,78,119,76
2,74,111,200
2,79,119,184
2,78,119,180
2,78,121,190
2,78,120,188
2,76,119,102
2,74,116,8
2,78,123,482
2,78,123,146
2,78,123,162
2,78,123,142
2,76,123,2
2,74,123,0
2,78,122,408
2,76,119,192
2,76,119,94
2,74,114,0
2,71,120,0
2,78,120,12
2,76,115,388
2,76,119,174
2,74,111,10
2,79,115,88
2,79,118,68
2,79,116,190
2,79,120,6
2,74,118,184
2,74,119,44
2,74,121,4
2,71,119,194
2,71,118,24
2,71,121,192
2,69,115,95
2,67,119,0
2,78,120,188
2,78,122,102
2,74,112,12
2,79,119,190
2,78,119,186
2,79,119,18
2,81,109,10
2,79,119,92
2,76,116,80
2,78,120,458
2,78,122,14
2,78,121,188
2,76,119,6
2,76,119,2
2,74,118,4
2,69,112,2
2,69,118,188
2,73,120,12
2,69,119,186
2,71,123,2208
2,73,121,188
2,71,115,6
2,71,118,1526
2,73,121,192
2,74,111,170
2,73,119,184
2,73,119,118
2,71,113,382
2,71,121,1242
2,73,119,198
2,71,115,14
2,71,116,956
2,71,113,4
2,71,119,2
2,73,121,192
2,74,110,4
2,73,118,200
2,73,119,190
2,71,115,186
2,73,123,1148
2,71,115,576
2,78,118,742
2,78,119,94
2,76,119,4
2,74,111,12
2,71,118,194
3,72,115,1154
3,67,115,568
3,65,105,288
3,64,113,2
3,64,119,358
3,64,107,192
3,64,121,4
3,65,113,194
3,64,113,170
3,65,121,180
3,69,117,384
3,69,103,30
3,69,103,188
3,69,107,8
3,71,121,185
3,67,122,36
3,65,107,296
3,62,103,64
3,62,107,630
3,62,107,188
3,64,107,4
3,67,111,198
3,67,109,174
3,65,115,4
3,64,93,196
3,67,120,8450
3,67,118,182
3,67,119,14
3,67,120,2
3,67,104,192
3,65,112,4
3,64,109,188
3,67,117,26
3,67,119,196
3,72,116,10
3,72,116,106
3,65,115,202
3,65,111,14
3,65,115,14
3,72,114,2388
3,67,115,196
3,67,117,2
3,67,114,6
3,67,118,180
3,67,109,12
3,64,117,12
3,67,117,180
3,67,117,6
3,67,117,4
3,72,115,6
3,72,114,60
3,72,113,186
3,72,117,4
3,72,119,6
3,69,114,8
3,69,115,96
3,69,119,4
3,67,111,280
3,65,113,10
3,65,117,1142
3,65,118,86
3,65,116,192
3,67,116,4
3,65,119,16
3,65,116,1148
3,65,114,64
3,65,115,8
3,67,114,2
3,65,118,22
3,79,116,1730
3,79,115,6
3,79,117,18
3,79,118,188
3,79,118,394
3,84,113,184
3,84,114,44
3,84,111,14
3,84,118,188
3,84,119,394
3,84,114,2
3,81,118,2
3,79,110,2
3,77,116,0
3,84,119,1142
3,84,117,284
3,81,114,14
3,79,116,4
3,79,118,6
3,79,117,186
3,77,108,93
3,76,116,0
3,72,119,102
3,67,117,18
3,67,117,190
3,72,114,190
3,64,112,8
3,64,115,12
3,67,115,2
3,67,118,6
3,65,112,2
3,65,119,2116
3,67,120,14
3,65,119,8
3,65,119,1156
3,65,119,26
3,65,119,4
3,67,119,38
3,69,117,190
3,67,117,178
3,67,119,4
3,65,118,0
3,62,115,2
3,72,120,474
3,69,117,10
3,69,118,18
3,67,117,4
3,76,118,104
3,69,111,22
3,69,115,34
3,67,115,190
3,67,119,42
3,67,115,4
3,67,117,196
3,67,118,191
3,72,115,60
3,65,114,30
3,65,114,26
3,67,117,8
3,65,117,184
3,72,117,486
3,72,115,2
3,72,119,26
3,72,115,6
3,67,115,6
3,72,120,2
3,69,117,2
3,67,115,192
3,59,115,476
3,72,117,6
3,72,115,16
3,72,118,184
3,69,112,16
3,72,117,188
3,72,118,10
3,72,116,68
3,67,117,188
3,72,116,2784
3,69,114,20
3,69,116,14
3,67,116,198
3,88,114,100
3,81,113,374
3,81,112,4
3,79,116,2
3,84,114,92
3,84,115,78
3,84,115,194
3,84,117,189
3,81,111,188
3,81,116,192
3,79,110,4
3,77,115,192
3,77,114,176
3,77,118,2
3,74,105,6
3,72,113,2
3,72,115,196
3,72,117,50
3,65,114,12
3,72,115,8
3,72,118,188
3,72,118,198
3,69,116,6
3,67,113,184
3,59,115,582
3,72,118,196
3,71,115,10
3,71,117,34
3,67,116,192
3,72,114,4
3,72,117,2
3,72,117,192
3,72,119,4
3,67,121,4
3,65,114,12
3,64,111,26
3,65,118,1520
3,67,119,198
3,65,117,2
3,65,115,1444
3,67,116,198
3,65,114,8
3,64,115,1296
3,67,117,196
3,67,115,14
3,67,115,12
3,67,114,28
3,67,114,26
3,67,116,32
3,72,115,188
3,72,110,72
3,67,115,188
3,72,110,198
3,72,115,42
3,72,118,16
3,72,117,188
3,69,114,2
3,69,111,66
3,69,114,188
3,69,112,0
3,69,111,203
3,65,112,2
3,72,114,4
3,69,114,202
3,65,115,168
3,72,114,670
3,67,116,4
3,67,111,46
3,67,110,4
3,67,91,8
3,67,111,6
3,67,115,8
3,71,117,182
3,72,115,766
3,72,108,64
3,72,113,182
