track,note,velocity,time
1,69,127,7880
1,71,127,192
1,69,127,8
1,68,127,96
1,66,119,120
1,66,127,152
1,64,123,184
1,62,127,88
1,64,127,120
1,66,127,380
1,68,127,20
1,66,127,8
1,64,127,28
1,64,125,76
1,61,127,36
1,64,126,20
1,66,127,20
1,66,127,72
1,68,127,4
1,69,127,28
1,71,127,72
1,73,127,64
1,71,127,28
1,69,127,68
1,71,127,4
1,69,127,196
1,68,127,112
1,64,127,160
1,66,127,28
1,64,127,4
1,62,127,184
1,64,127,112
1,61,127,144
1,59,127,20
1,57,127,16
1,69,127,8
1,64,127,48
1,61,127,168
1,59,127,20
1,64,127,352
1,66,127,16
1,68,127,40
1,69,127,104
1,71,126,8
1,69,127,56
1,68,127,92
1,64,127,140
1,66,127,36
1,64,127,20
1,62,127,28
1,64,127,84
1,66,127,588
1,68,127,88
1,66,127,8
1,64,127,28
1,64,127,104
1,61,127,20
1,64,127,20
1,66,127,20
1,66,127,112
1,66,127,60
1,68,127,24
1,69,127,20
1,71,127,56
1,73,127,120
1,71,127,16
1,69,127,72
1,71,127,16
1,69,127,180
1,68,127,112
1,64,127,132
1,66,127,20
1,64,127,188
1,62,127,0
1,64,127,60
1,61,127,136
1,59,127,8
1,57,127,12
1,69,127,384
1,64,127,104
1,61,127,388
1,59,127,0
1,64,127,628
1,69,127,16
1,73,127,40
1,73,127,112
1,71,127,40
1,69,127,8
1,69,127,72
1,68,127,284
1,66,127,8
1,66,127,176
1,71,127,8
1,74,127,52
1,74,127,104
1,73,127,56
1,71,127,76
1,71,125,92
1,71,127,36
1,69,127,196
1,68,127,76
1,68,122,56
1,68,126,20
1,66,127,196
1,64,127,20
1,64,127,188
1,62,127,16
1,61,127,32
1,61,127,108
1,62,125,40
1,63,125,8
1,64,127,8
1,64,125,48
1,66,127,292
1,68,127,12
1,69,127,12
1,69,127,80
1,71,127,80
1,72,127,188
1,73,127,100
1,73,127,120
1,71,127,8
1,69,127,40
1,66,127,84
1,64,127,112
1,61,127,100
1,59,127,108
1,57,127,568
1,59,127,20
1,61,127,188
1,61,127,80
1,61,127,112
1,61,127,56
1,62,127,28
1,61,127,8
1,59,127,8
1,57,127,184
1,61,127,200
1,61,127,92
1,61,127,100
1,61,123,48
1,62,127,96
1,61,127,168
1,59,127,244
1,61,127,200
1,62,127,4
1,62,127,80
1,62,127,96
1,62,127,76
1,64,127,16
1,62,127,176
1,61,127,288
1,62,127,8
1,64,127,140
1,64,127,104
1,64,127,92
1,66,127,92
1,64,127,8
1,66,127,92
1,69,127,20
1,71,127,28
1,73,127,84
1,71,127,48
1,69,127,184
1,71,127,28
1,73,127,140
1,71,127,16
1,69,127,80
1,71,127,8
1,69,127,8
1,68,127,112
1,64,127,224
1,66,127,28
1,64,127,8
1,62,127,184
1,64,127,124
1,66,127,340
1,68,127,208
1,66,127,8
1,64,127,16
1,64,127,72
1,61,127,12
1,64,127,8
1,66,127,180
1,66,127,92
1,68,127,208
1,69,127,0
1,71,127,108
1,73,127,76
1,71,125,16
1,69,127,8
1,71,127,184
1,69,127,184
1,68,127,104
1,64,127,156
1,66,127,20
1,64,127,8
1,62,127,8
1,64,127,112
1,61,127,172
1,59,127,12
1,57,127,192
1,69,127,12
1,64,127,12
1,61,127,24
1,59,127,96
1,64,127,268
1,69,127,8
1,73,127,12
1,73,127,84
1,71,126,28
1,69,127,8
1,69,127,68
1,68,127,280
1,66,127,4
1,66,127,352
1,71,125,188
1,74,123,8
1,74,127,104
1,73,125,28
1,71,123,40
1,71,125,48
1,69,125,284
1,68,127,100
1,68,111,80
1,68,122,36
1,66,127,24
1,64,127,4
1,64,123,216
1,62,125,208
1,61,127,80
1,62,127,36
1,63,110,8
1,64,124,16
1,66,127,468
1,68,127,28
1,69,127,48
1,71,127,20
1,72,127,12
1,73,127,8
1,73,127,120
1,71,127,48
1,69,127,64
1,66,127,396
1,64,127,12
1,61,127,36
1,59,125,20
1,57,127,408
1,59,127,8
1,61,127,4
1,61,127,76
1,61,127,64
1,62,121,124
1,61,127,252
1,59,123,4
1,57,118,184
1,61,127,188
1,61,127,100
1,61,127,92
1,62,127,28
1,61,127,272
1,59,127,16
1,61,127,36
1,62,126,40
1,62,127,104
1,62,127,36
1,64,127,8
1,62,127,276
1,61,127,0
1,62,127,20
1,64,127,244
1,64,124,116
1,64,118,68
1,66,127,28
1,64,120,188
1,66,127,148
1,69,127,28
1,71,127,20
1,73,127,960
1,71,127,28
1,69,127,180
1,71,127,180
1,73,127,132
1,71,124,20
1,69,127,56
1,71,126,188
1,69,127,164
1,68,127,120
1,64,127,164
1,66,127,12
1,64,125,8
1,62,124,4
1,64,127,44
1,61,125,216
1,66,127,204
1,68,127,100
1,66,127,0
1,64,121,8
1,64,127,76
1,61,127,108
1,64,119,20
1,66,127,68
1,66,127,120
1,68,121,12
1,69,127,8
1,71,123,40
1,73,127,472
1,71,127,24
1,69,127,44
1,71,127,204
1,69,127,0
1,68,127,112
1,64,127,8
1,66,127,60
1,64,127,12
1,62,127,0
1,64,127,124
1,61,127,148
1,59,127,20
1,57,127,188
1,69,127,4
1,64,121,28
1,61,127,16
1,59,124,28
1,64,127,596
1,69,127,192
1,73,127,12
1,73,127,28
1,71,123,8
1,69,127,192
1,69,127,68
1,68,127,284
1,66,127,12
1,66,127,336
1,71,126,184
1,74,127,16
1,74,127,96
1,73,127,36
1,71,125,56
1,71,127,56
1,69,127,280
1,68,127,108
1,68,127,92
1,68,124,40
1,66,127,16
1,64,127,20
1,64,99,20
1,62,127,20
1,61,127,188
1,61,127,132
1,62,127,56
1,63,118,48
1,64,127,28
1,64,123,48
1,66,127,312
1,68,127,8
1,69,127,24
1,69,127,108
1,71,127,8
1,72,125,176
1,73,127,16
1,73,127,128
1,71,127,40
1,69,127,12
1,66,127,12
1,64,127,8
1,61,127,12
1,59,125,0
1,64,127,840
1,69,127,8
1,73,127,52
1,73,127,112
1,71,127,56
1,69,127,124
1,69,127,120
1,68,126,276
1,66,127,20
1,66,127,408
1,71,125,176
1,74,127,12
1,74,127,112
1,73,127,72
1,71,127,64
1,71,126,100
1,69,127,268
1,68,127,116
1,68,117,120
1,68,121,36
1,66,127,20
1,64,125,24
1,64,127,200
1,62,124,28
1,61,126,96
1,61,127,132
1,62,124,140
1,63,115,20
1,64,127,32
1,66,124,36
1,68,127,8
1,69,127,116
1,69,127,100
1,71,127,20
1,72,125,0
1,73,127,92
1,73,127,120
1,71,127,48
1,69,127,8
1,66,127,20
1,64,127,140
1,61,127,12
1,59,115,8
2,45,123,1540
2,45,114,132
2,45,116,100
2,45,114,128
2,42,116,4
2,40,109,8
2,45,110,20
2,45,112,140
2,45,118,96
2,45,112,112
2,42,114,196
2,40,110,4
2,45,110,20
2,45,113,140
2,45,113,96
2,45,110,108
2,42,114,0
2,40,109,192
2,45,112,28
2,45,112,116
2,45,114,88
2,45,118,132
2,42,115,12
2,40,113,12
2,45,118,60
2,40,118,4
2,45,109,4
2,37,124,12
2,32,120,192
2,37,116,188
2,38,118,16
2,33,112,84
2,38,106,188
2,37,117,16
2,32,117,112
2,37,112,188
2,42,114,24
2,37,115,12
2,42,115,12
2,37,116,0
2,32,117,76
2,37,108,188
2,38,114,16
2,33,118,28
2,40,111,52
2,40,123,116
2,42,124,196
2,44,122,152
2,45,118,4
2,40,114,4
2,37,120,60
2,32,112,4
2,37,112,188
2,38,113,12
2,33,114,24
2,45,113,144
2,40,116,384
2,45,109,4
2,42,122,192
2,37,117,12
2,42,116,4
2,37,118,16
2,32,112,4
2,37,114,188
2,38,110,16
2,33,111,28
2,40,119,92
2,40,127,128
2,42,122,192
2,44,127,0
2,45,112,4
2,40,123,0
2,45,107,188
2,37,127,0
2,32,124,92
2,37,111,188
2,38,127,20
2,33,123,20
2,38,110,188
2,37,116,4
2,32,117,24
2,37,114,188
2,42,116,164
2,37,118,8
2,42,112,16
2,37,118,192
2,32,116,20
2,37,87,0
2,38,118,88
2,33,114,8
2,40,119,64
2,40,123,112
2,42,127,196
2,44,127,4
2,45,116,16
2,40,113,16
2,45,109,188
2,37,124,184
2,32,124,96
2,37,112,188
2,38,118,24
2,33,114,108
2,45,118,84
2,40,126,36
2,42,120,60
2,37,124,12
2,42,118,4
2,37,124,28
2,32,124,36
2,38,112,20
2,33,116,4
2,40,116,112
2,40,127,108
2,42,127,192
2,44,127,180
2,45,114,36
2,40,118,32
2,45,112,4
2,33,123,36
2,35,108,0
2,37,124,188
2,38,118,16
2,38,121,84
2,40,127,8
2,42,127,16
2,30,92,192
2,32,120,32
2,33,127,188
2,35,121,192
2,30,124,68
2,35,109,60
2,35,123,104
2,37,118,196
2,38,113,8
2,40,123,4
2,35,110,24
2,40,113,384
2,40,126,128
2,42,120,192
2,44,117,0
2,45,113,8
2,33,111,188
2,35,126,160
2,36,113,160
2,37,127,40
2,37,122,112
2,38,114,20
2,38,114,84
2,45,116,60
2,45,116,76
2,44,115,188
2,42,127,180
2,37,127,12
2,42,120,188
2,37,127,16
2,32,122,384
2,38,123,28
2,33,127,20
2,40,127,16
2,40,127,108
2,42,120,192
2,44,124,168
2,45,112,16
2,40,119,20
2,45,113,384
2,40,116,20
2,45,112,0
2,37,122,0
2,32,117,32
2,37,127,0
2,32,124,28
2,37,127,188
2,38,118,76
2,33,127,24
2,38,123,4
2,33,116,24
2,38,127,188
2,40,126,28
2,35,126,384
2,40,121,368
2,35,126,380
2,40,127,24
2,47,118,12
2,42,127,384
2,35,127,0
2,42,127,4
2,40,126,44
2,35,127,384
2,40,126,20
2,40,127,116
2,42,127,188
2,44,118,160
2,45,113,16
2,40,119,20
2,37,120,92
2,32,124,24
2,38,113,100
2,33,116,72
2,38,109,192
2,37,118,164
2,32,120,48
2,42,122,48
2,37,118,0
2,42,118,24
2,37,120,12
2,32,124,40
2,38,112,92
2,33,127,72
2,38,111,188
2,40,116,16
2,35,126,188
2,40,123,8
2,44,127,12
2,45,112,24
2,45,121,0
2,40,116,383
2,37,127,92
2,32,127,32
2,38,118,120
2,33,119,48
2,45,119,116
2,40,119,384
2,42,124,380
2,37,127,28
2,42,122,4
2,37,124,8
2,32,127,40
2,38,118,112
2,33,126,44
2,40,114,84
2,40,127,92
2,42,118,196
2,44,122,144
2,45,119,24
2,40,123,16
2,45,127,36
2,33,127,48
2,35,119,20
2,37,124,188
2,38,118,12
2,40,114,8
2,39,104,0
2,42,122,4
2,30,120,192
2,32,122,0
2,33,127,188
2,35,121,20
2,30,127,40
2,35,119,12
2,35,127,120
2,37,122,196
2,38,118,28
2,40,123,8
2,35,113,8
2,40,114,384
2,40,123,40
2,42,122,196
2,44,127,172
2,45,119,24
2,33,127,0
2,35,126,196
2,36,119,176
2,37,127,56
2,37,127,140
2,38,112,44
2,38,123,96
2,42,118,196
2,44,127,8
2,45,118,16
2,45,109,48
2,44,120,20
2,42,127,24
2,37,127,76
2,37,127,140
2,37,127,112
2,38,126,108
2,33,127,88
2,40,127,28
2,40,127,124
2,42,124,16
2,44,122,16
2,45,116,24
2,40,127,72
2,45,114,20
2,40,126,0
2,37,127,104
2,32,117,28
2,37,124,28
2,32,116,12
2,37,127,192
2,38,123,68
2,33,127,16
2,38,119,36
2,33,127,4
2,38,123,188
2,40,126,72
2,35,121,384
2,40,116,28
2,40,127,124
2,42,127,196
2,45,111,4
2,47,121,32
2,42,127,28
2,35,123,12
2,42,127,384
2,40,127,44
2,47,123,384
2,40,121,0
2,40,127,112
2,42,127,196
2,44,124,4
2,45,114,4
2,40,127,20
2,45,110,188
2,37,127,0
2,32,127,84
2,38,126,56
2,33,126,12
2,38,126,188
2,37,124,32
2,32,124,84
2,42,115,36
2,37,124,28
2,42,122,16
2,37,127,8
2,32,124,76
2,38,121,36
2,33,121,36
2,40,116,96
2,40,127,120
2,42,120,196
2,44,127,16
2,45,116,12
2,40,123,8
2,37,124,44
2,32,124,384
2,38,126,20
2,33,116,36
2,45,119,28
2,45,123,60
2,44,122,188
2,42,127,16
2,37,127,48
2,42,124,32
2,37,127,20
2,32,127,384
2,38,126,24
2,33,126,384
2,40,127,28
2,40,127,140
2,42,127,188
2,44,127,0
2,45,121,24
2,40,126,20
2,45,116,24
2,33,114,24
2,35,121,16
2,37,117,188
2,38,126,24
2,38,126,132
2,40,118,12
2,42,124,12
2,30,124,192
2,32,118,8
2,33,123,4
2,35,119,40
2,30,127,56
2,35,118,384
2,35,118,120
2,37,116,196
2,38,114,28
2,40,114,8
2,35,118,8
2,40,109,384
2,40,127,132
2,42,127,192
2,44,127,4
2,45,113,4
2,33,119,44
2,35,121,196
2,36,121,40
2,37,127,100
2,37,124,108
2,38,112,60
2,38,126,112
2,45,118,116
2,45,123,108
2,44,118,20
2,42,127,36
2,37,127,20
2,42,120,12
2,37,127,20
2,32,127,20
2,38,126,40
2,33,123,384
2,40,127,8
2,40,127,132
2,42,124,196
2,44,124,168
2,45,127,28
2,45,123,0
2,40,127,108
2,45,127,56
2,33,121,60
2,35,119,0
2,37,127,52
2,38,116,32
2,38,126,88
2,40,127,12
2,42,127,16
2,30,127,20
2,32,118,8
2,33,126,192
2,35,118,52
2,30,127,68
2,35,118,12
2,35,123,132
2,37,117,196
2,38,116,8
2,40,118,12
2,35,119,384
2,40,114,380
2,40,127,128
2,42,127,196
2,44,120,28
2,45,116,16
2,33,123,28
2,35,118,8
2,36,121,188
2,37,127,80
2,37,127,132
2,38,116,52
2,38,121,124
2,42,118,196
2,44,127,172
2,45,116,12
2,45,127,80
2,44,116,188
2,42,127,16
2,37,127,16
2,42,124,16
2,37,127,32
2,32,124,32
2,37,127,188
2,38,126,116
2,33,126,384
2,38,123,164
2,40,127,72
2,35,113,384
2,45,119,36
2,45,118,152
2,45,113,104
2,45,113,140
2,42,120,88
2,40,114,24
2,45,114,24
2,45,116,188
2,45,121,116
2,45,116,124
2,42,117,192
2,40,114,8
2,45,112,8
2,45,113,160
2,45,114,104
2,45,119,100
2,42,116,12
2,40,110,4
2,45,118,8
2,45,111,164
2,45,119,104
2,45,119,128
2,42,124,40
2,40,126,24
2,33,126,24
3,69,121,1540
3,81,117,0
3,69,127,156
3,81,117,0
3,69,117,40
3,81,109,0
3,81,117,88
3,69,127,0
3,69,127,168
3,81,112,0
3,69,114,32
3,81,114,0
3,66,121,68
3,78,110,0
3,64,95,20
3,76,112,0
3,81,121,40
3,69,100,0
3,69,121,140
3,81,112,0
3,69,114,36
3,81,117,0
3,69,127,88
3,81,121,0
3,69,127,148
3,81,114,0
3,69,121,44
3,81,117,0
3,66,121,40
3,78,117,0
3,64,95,0
3,76,121,0
3,78,76,0
3,69,127,80
3,81,121,0
3,69,127,144
3,81,117,0
3,69,117,44
3,81,125,0
3,69,127,76
3,81,127,0
3,69,127,144
3,81,127,0
3,81,114,36
3,69,121,0
3,66,127,60
3,78,121,0
3,64,98,8
3,76,125,0
3,78,89,0
3,81,127,84
3,69,127,0
3,69,127,104
3,81,127,0
3,69,125,24
3,81,117,0
3,69,127,52
3,81,127,0
3,69,127,116
3,81,125,0
3,69,117,44
3,81,125,0
3,78,121,60
3,66,127,0
3,64,98,0
3,76,117,0
3,69,127,100
3,73,127,0
3,76,105,4
3,61,121,80
3,73,110,0
3,64,114,108
3,68,79,0
3,68,103,52
3,57,98,48
3,62,98,0
3,66,117,0
3,69,105,0
3,62,98,48
3,66,103,32
3,69,104,56
3,56,103,100
3,61,100,0
3,68,96,0
3,64,97,0
3,61,72,40
3,54,110,144
3,66,102,0
3,61,110,0
3,69,100,0
3,61,78,116
3,61,117,16
3,68,101,0
3,64,105,0
3,50,97,112
3,57,114,12
3,62,114,20
3,66,125,0
3,68,102,24
3,64,99,0
3,52,69,44
3,52,104,52
3,53,81,0
3,59,125,16
3,57,104,4
3,69,104,0
3,61,113,32
3,64,96,40
3,69,105,44
3,68,104,36
3,61,113,64
3,64,93,144
3,57,102,44
3,66,97,0
3,62,109,0
