track,note,velocity,time
1,26,84,3740
1,30,74,2
1,31,74,6
1,26,68,80
1,31,74,76
1,26,64,52
1,31,69,62
1,26,72,76
1,31,68,86
1,26,84,52
1,30,74,2
1,31,74,4
1,26,67,82
1,31,74,86
1,26,84,2
1,30,74,6
1,31,69,12
1,26,72,78
1,31,68,76
1,26,84,46
1,30,74,2
1,38,72,2
1,33,67,72
1,38,69,76
1,33,72,44
1,38,68,2
1,36,74,2
1,31,68,72
1,36,74,72
1,31,64,76
1,36,64,40
1,31,69,36
1,26,69,80
1,31,67,80
1,26,66,72
1,30,69,36
1,31,63,38
1,26,69,80
1,31,67,80
1,35,61,76
1,36,67,40
1,38,67,36
1,33,69,80
1,38,67,76
1,33,67,76
1,38,67,80
1,33,68,80
1,26,69,80
1,28,69,76
1,30,68,36
1,31,67,36
1,35,63,80
1,38,67,42
1,31,60,40
1,35,63,76
1,38,61,40
1,31,61,36
1,35,69,80
1,38,61,40
1,31,61,36
1,35,61,80
1,38,63,40
1,31,61,36
1,26,67,80
1,31,62,88
1,26,62,86
1,31,67,44
1,38,66,40
1,33,69,80
1,38,65,88
1,33,67,86
1,38,69,44
1,36,63,44
1,31,63,86
1,36,61,80
1,31,61,80
1,36,67,44
1,31,61,40
1,26,61,92
1,31,61,90
1,26,67,82
1,30,61,46
1,31,65,42
1,26,67,86
1,31,66,80
1,35,65,80
1,36,61,40
1,38,61,36
1,33,65,80
1,38,67,88
1,33,67,86
1,38,61,80
1,33,66,80
1,26,67,88
1,28,61,86
1,30,63,40
1,31,61,36
1,35,61,90
1,38,67,46
1,31,67,42
1,35,67,86
1,38,67,46
1,31,61,46
1,35,61,86
1,38,67,40
1,31,67,36
1,35,67,76
1,38,67,36
1,31,69,36
1,26,69,80
1,31,68,80
1,35,74,80
1,36,69,40
1,38,72,40
1,33,72,84
1,38,63,76
1,33,66,76
1,36,67,40
1,38,68,36
1,33,69,80
1,26,72,80
1,28,65,80
1,30,67,40
1,31,61,36
1,26,68,84
1,31,67,80
1,26,63,80
1,30,68,40
1,31,69,38
1,26,63,80
1,31,63,80
1,31,67,76
1,33,66,40
1,26,66,36
1,33,67,80
1,38,67,80
1,33,67,80
1,38,67,80
1,33,69,80
1,26,61,80
1,28,61,80
1,30,67,40
1,31,67,36
1,35,68,80
1,38,67,40
1,31,67,36
1,35,67,76
1,38,69,40
1,31,67,36
1,35,68,80
1,38,67,40
1,31,67,36
1,35,67,76
1,38,69,36
1,31,67,36
1,35,68,80
1,38,67,36
1,31,67,36
1,35,67,76
1,38,69,40
1,31,67,40
1,35,68,80
1,38,67,44
1,31,67,40
1,35,67,80
1,38,69,40
1,31,67,40
1,35,68,80
1,38,67,40
1,31,67,36
1,35,67,76
1,38,69,40
1,31,67,36
1,35,68,80
1,38,67,40
1,31,67,40
1,35,67,76
1,38,69,44
1,31,61,40
1,26,67,80
1,31,62,82
1,26,62,82
1,31,67,40
1,38,66,36
1,33,69,80
1,38,65,86
1,33,67,78
1,38,69,40
1,36,63,40
1,31,63,86
1,36,61,80
1,31,61,78
1,36,67,36
1,31,61,42
1,26,61,92
1,31,61,86
1,26,67,86
1,30,61,48
1,31,65,46
1,26,67,86
1,31,66,76
1,35,65,76
1,36,61,40
1,38,61,36
1,33,65,80
1,38,67,88
1,33,67,82
1,38,61,80
1,33,66,80
1,26,67,86
1,28,61,82
1,30,63,40
1,31,61,40
1,35,61,86
1,38,67,46
1,31,67,46
1,35,67,86
1,38,67,48
1,31,61,46
1,35,61,86
1,38,67,40
1,31,67,36
1,35,67,76
1,38,67,40
1,31,69,36
1,26,69,80
1,31,68,80
1,35,74,80
1,36,69,40
1,38,72,36
1,33,72,80
1,38,63,80
1,33,66,80
1,36,67,40
1,38,68,36
1,33,69,80
1,26,72,80
1,28,65,80
1,30,67,40
1,31,61,36
1,26,68,80
1,31,67,76
1,26,63,76
1,30,68,36
1,31,69,36
1,26,63,80
1,31,63,80
1,31,67,76
1,33,66,40
1,26,66,36
1,33,67,80
1,38,67,80
1,33,67,80
1,38,67,80
1,33,69,80
1,26,61,76
1,28,61,80
1,30,67,40
1,31,67,40
1,35,68,80
1,38,67,40
1,31,67,36
1,35,67,80
1,38,69,36
1,31,67,36
1,35,68,80
1,38,67,38
1,31,67,36
1,35,67,76
1,38,69,40
1,31,74,36
1,26,68,80
1,31,74,86
1,35,69,82
1,36,66,40
1,38,74,36
1,33,69,80
1,38,74,86
1,33,66,82
1,36,74,76
1,31,66,86
1,36,74,80
1,36,68,76
1,31,74,80
1,26,68,90
1,31,74,86
1,26,64,86
1,30,66,52
1,31,74,46
1,26,67,86
1,31,74,80
1,35,64,76
1,36,68,40
1,38,74,36
1,33,69,80
1,38,69,86
1,33,62,82
1,38,74,80
1,33,62,80
1,38,69,86
1,26,63,82
1,31,74,80
1,26,67,86
1,31,72,86
1,26,62,86
1,31,69,90
1,26,62,86
1,31,74,80
1,26,67,76
1,30,71,50
1,31,74,36
1,35,69,80
1,38,73,36
1,31,74,38
1,35,69,80
1,38,73,40
1,31,74,40
1,35,69,80
1,38,73,44
1,31,74,36
1,35,69,80
1,38,73,44
1,31,74,40
1,35,69,80
1,38,73,36
1,31,74,36
1,35,69,76
1,38,73,40
1,31,74,36
1,35,69,80
1,38,73,44
1,31,74,40
1,35,69,80
1,38,73,40
1,31,74,40
1,26,69,80
1,31,69,86
1,35,62,78
1,36,68,40
1,38,74,36
1,33,67,80
1,38,74,88
1,33,64,82
1,36,74,80
1,31,69,86
1,36,68,80
1,36,62,76
1,31,74,76
1,26,69,86
1,31,72,90
1,26,62,86
1,30,64,50
1,31,74,46
1,26,64,86
1,31,69,80
1,35,69,76
1,36,69,40
1,38,74,36
1,33,69,80
1,38,72,86
1,33,64,82
1,38,74,80
1,33,64,80
1,38,69,86
1,26,61,82
1,31,74,76
1,26,69,80
1,31,72,76
1,26,64,76
1,31,74,80
1,26,64,80
1,31,69,86
1,35,62,86
1,36,66,40
1,38,74,40
1,33,74,80
1,38,69,84
1,33,62,86
1,36,74,76
1,31,66,86
1,36,69,80
1,36,61,80
1,31,74,76
1,26,63,92
1,31,69,86
1,26,63,92
1,30,66,46
1,31,69,46
1,26,64,92
1,31,69,80
1,35,62,80
1,36,64,40
1,38,74,36
1,33,63,80
1,26,69,86
1,33,66,88
1,38,74,80
1,33,64,80
1,26,69,86
1,26,67,86
1,31,74,80
1,26,66,88
1,31,69,90
1,26,64,86
1,31,74,92
1,26,68,90
1,31,70,80
1,26,64,80
1,30,74,36
1,31,67,40
1,35,68,80
1,38,67,36
1,31,67,36
1,35,67,76
1,38,69,36
1,31,67,36
1,35,68,80
1,38,67,44
1,31,67,40
1,35,67,80
1,38,69,44
1,31,67,40
1,35,68,80
1,38,67,40
1,31,67,36
1,35,67,76
1,38,69,40
1,31,67,40
1,35,68,84
1,38,67,40
1,31,67,40
1,35,67,80
1,38,69,40
1,31,67,40
1,35,68,80
1,38,67,40
1,31,67,36
1,35,67,76
1,38,69,36
1,31,67,40
1,35,68,80
1,38,67,44
1,31,67,40
1,35,67,80
1,38,69,40
1,31,67,40
1,35,68,80
1,38,67,40
1,31,67,36
1,35,67,76
1,38,69,36
1,31,67,36
1,35,68,80
1,38,67,44
1,31,67,40
1,35,67,80
1,38,69,40
1,31,74,40
1,35,69,80
1,38,69,40
1,31,74,40
1,31,64,64
1,28,69,60
1,26,62,64
1,31,74,64
2,59,76,23120
2,60,76,28
2,62,76,24
2,59,76,36
2,62,76,16
2,59,76,20
2,62,76,24
2,59,76,16
2,62,76,24
2,59,76,20
2,62,76,16
2,59,76,28
2,62,76,16
2,59,76,24
2,62,76,16
2,59,76,20
2,62,76,20
2,59,76,24
2,66,76,400
2,67,76,22
2,69,76,32
2,66,76,32
2,69,76,16
2,66,76,20
2,69,76,24
2,66,76,24
2,69,76,20
2,66,76,20
2,69,76,20
2,66,76,16
2,69,76,24
2,66,76,16
2,69,76,24
2,66,76,20
2,69,76,20
2,66,76,24
2,64,76,404
2,66,76,24
2,67,76,20
2,64,76,24
2,67,76,20
2,64,76,20
2,67,76,24
2,64,76,16
2,67,76,20
2,64,76,24
2,67,76,16
2,64,76,26
2,67,76,24
2,64,76,16
2,67,76,24
2,64,76,24
2,67,76,24
2,64,76,20
2,67,76,1940
2,69,76,20
2,71,76,24
2,67,76,24
2,71,76,24
2,67,76,16
2,71,76,20
2,67,76,28
2,71,76,20
2,67,76,20
2,71,76,12
2,67,76,28
2,71,76,24
2,67,76,20
2,71,76,20
2,67,76,24
2,71,76,24
2,67,76,20
2,66,76,400
2,67,76,32
2,69,76,24
2,66,76,32
2,69,76,20
2,66,76,20
2,69,76,24
2,66,76,16
2,69,76,20
2,66,76,24
2,69,76,14
2,66,76,28
2,69,76,24
2,66,76,16
2,69,76,20
2,66,76,20
2,69,76,24
2,66,76,16
2,69,76,404
2,71,76,28
2,72,76,28
2,69,76,34
2,72,76,16
2,69,76,20
2,72,76,24
2,69,76,20
2,72,76,20
2,69,76,24
2,72,76,20
2,69,76,16
2,72,76,24
2,69,76,20
2,72,76,16
2,69,76,28
2,72,76,20
2,69,76,20
2,67,79,18072
2,69,79,20
2,71,79,28
2,67,79,28
2,71,79,20
2,67,79,16
2,71,79,20
2,67,79,24
2,71,79,24
2,67,79,20
2,71,79,16
2,67,79,24
2,71,79,24
2,67,79,16
2,71,79,20
2,67,79,26
2,71,79,16
2,67,79,24
2,71,79,16
2,67,79,28
2,71,79,20
2,67,79,16
2,71,79,24
2,67,79,24
2,71,79,20
2,67,79,16
2,71,79,20
2,67,79,24
2,71,79,20
2,67,79,20
2,71,79,20
2,67,79,28
2,71,79,16
2,67,79,24
2,71,79,1166
2,72,79,20
2,74,79,30
2,71,79,24
2,74,79,24
2,71,79,16
2,74,79,24
2,71,79,24
2,74,79,16
2,71,79,24
2,74,79,12
2,71,79,32
2,74,79,16
2,71,79,20
2,74,79,20
2,71,79,20
2,74,79,16
2,71,79,24
2,74,79,16
2,71,79,28
2,74,79,20
2,71,79,20
2,74,79,24
2,71,79,24
2,74,79,24
2,71,79,16
2,74,79,16
2,71,79,24
2,74,79,24
2,71,79,16
2,74,79,20
2,71,79,24
2,74,79,24
2,71,79,16
2,67,79,42644
2,69,79,24
2,71,79,32
2,67,79,16
2,71,79,24
2,67,79,16
2,71,79,20
2,67,79,24
2,71,79,24
2,67,79,16
2,71,79,16
2,67,79,24
2,71,79,20
2,67,79,20
2,71,79,20
2,67,79,24
2,71,79,20
2,67,79,20
2,71,79,20
2,67,79,24
2,71,79,20
2,67,79,24
2,71,79,20
2,67,79,20
2,71,79,16
2,67,79,20
2,71,79,16
2,67,79,24
2,71,79,20
2,67,79,20
2,71,79,20
2,67,79,20
2,71,79,24
2,67,79,16
2,71,79,1172
2,72,79,16
2,74,79,28
2,71,79,34
2,74,79,16
2,71,79,20
2,74,79,20
2,71,79,24
2,74,79,24
2,71,79,20
2,74,79,20
2,71,79,16
2,74,79,20
2,71,79,24
2,74,79,20
2,71,79,16
2,74,79,20
2,71,79,24
2,74,79,16
2,71,79,24
2,74,79,20
2,71,79,24
2,74,79,16
2,71,79,24
2,74,79,16
2,71,79,24
2,74,79,16
2,71,79,32
2,74,79,20
2,71,79,16
2,74,79,22
2,71,79,28
2,74,79,16
2,71,79,20
2,71,79,27668
2,67,79,28
2,71,79,16
2,67,79,20
2,71,79,20
2,67,79,20
2,71,79,24
2,67,79,20
2,71,79,18
2,67,79,16
2,71,79,20
2,67,79,24
2,71,79,16
2,67,79,28
2,71,79,20
2,67,79,24
2,71,79,16
2,67,79,28
2,71,79,16
2,67,79,20
2,71,79,20
2,67,79,24
2,71,79,20
2,67,79,20
2,71,79,16
2,67,79,32
2,71,79,20
2,67,79,20
2,71,79,16
2,67,79,28
2,71,79,26
2,67,79,20
2,71,79,1166
2,72,79,24
2,74,79,20
2,71,79,24
2,74,79,22
2,71,79,20
2,74,79,16
2,71,79,24
2,74,79,20
2,71,79,20
2,74,79,18
2,71,79,28
2,74,79,24
2,71,79,20
2,74,79,16
2,71,79,28
2,74,79,20
2,71,79,20
2,74,79,16
2,71,79,28
2,74,79,16
2,71,79,20
2,74,79,20
2,71,79,22
2,74,79,24
2,71,79,20
2,74,79,16
2,71,79,28
2,74,79,20
2,71,79,20
2,74,79,16
2,71,79,24
2,74,79,20
2,71,79,20
2,67,79,1170
2,69,79,24
2,71,79,28
2,67,79,28
2,71,79,20
2,67,79,16
2,71,79,24
2,67,79,16
2,71,79,20
2,67,79,24
2,71,79,20
2,67,79,20
2,71,79,16
2,67,79,24
2,71,79,16
2,67,79,32
2,71,79,16
2,67,79,24
2,71,79,16
2,67,79,30
2,71,79,16
2,67,79,24
2,71,79,20
2,67,79,20
2,71,79,24
2,67,79,20
2,71,79,16
2,67,79,24
2,71,79,20
2,67,79,24
2,71,79,20
2,67,79,20
2,71,79,16
2,67,79,20
2,71,79,1172
2,72,79,20
2,74,79,28
2,71,79,20
2,74,79,20
2,71,79,24
2,74,79,16
2,71,79,28
2,74,79,16
2,71,79,24
2,74,79,20
2,71,79,20
2,74,79,16
2,71,79,24
2,74,79,16
2,71,79,24
2,74,79,20
2,71,79,20
2,74,79,20
2,71,79,32
2,74,79,20
2,71,79,16
2,74,79,24
2,71,79,20
2,74,79,24
2,71,79,16
2,74,79,14
2,71,79,28
2,74,79,24
2,71,79,20
2,74,79,16
2,71,79,32
2,74,79,16
2,71,79,24
2,67,79,16
2,71,79,28
2,74,79,20
2,67,79,28
2,67,79,20
2,64,79,24
2,62,79,24
2,67,79,24
3,79,71,22974
3,83,71,0
3,79,71,122
3,83,71,0
3,79,71,124
3,83,71,0
3,79,71,122
3,83,71,0
3,78,71,892
3,81,71,0
3,78,71,122
3,81,71,0
3,78,71,124
3,81,71,0
3,78,71,124
3,81,71,2
3,76,71,702
3,79,71,0
3,71,71,6
3,74,71,2
3,72,71,32
3,76,71,2
3,74,71,56
3,78,71,0
3,76,71,52
3,79,71,2
3,78,71,54
3,81,71,0
3,79,71,52
3,82,71,2
3,79,71,52
3,83,71,2
3,74,71,616
3,78,71,0
3,74,71,126
3,78,71,0
3,74,71,124
3,78,71,0
3,74,71,120
3,78,71,2
3,74,71,888
3,78,71,0
3,74,71,126
3,78,71,0
3,74,71,120
3,78,71,0
3,74,71,126
3,78,71,0
3,74,71,700
3,83,71,2
3,72,71,34
3,81,71,0
3,71,71,56
3,79,71,2
3,69,71,44
3,78,71,0
3,71,71,60
3,79,71,2
3,72,71,60
3,81,71,2
3,71,71,56
3,79,71,2
3,79,71,20548
3,83,71,0
3,79,71,122
3,83,71,0
3,79,71,124
3,83,71,0
3,79,71,120
3,83,71,0
3,78,71,892
3,81,71,0
3,78,71,122
3,81,71,0
3,78,71,124
3,81,71,0
3,78,71,120
3,81,71,2
3,76,71,700
3,79,71,2
3,71,71,44
3,74,71,2
3,72,71,50
3,76,71,0
3,74,71,56
3,78,71,2
3,76,71,52
3,79,71,0
3,78,71,32
3,81,71,2
3,79,71,60
3,82,71,2
3,79,71,56
3,83,71,2
3,74,71,624
3,78,71,0
3,74,71,126
3,78,71,0
3,74,71,124
3,78,71,0
3,74,71,120
3,78,71,2
3,74,71,892
3,78,71,0
3,74,71,126
3,78,71,0
3,74,71,124
3,78,71,2
3,74,71,120
3,78,71,0
3,74,71,698
3,83,71,0
3,72,71,46
3,81,71,0
3,71,71,64
3,79,71,0
3,69,71,56
3,78,71,2
3,71,71,54
3,79,71,0
3,72,71,64
3,81,71,2
3,71,71,58
3,79,71,0
3,79,71,14064
3,83,71,0
3,79,71,122
3,83,71,0
3,79,71,120
3,83,71,0
3,79,71,124
3,83,71,2
3,78,71,892
3,81,71,0
3,78,71,120
3,81,71,0
3,78,71,120
3,81,71,0
3,78,71,120
3,81,71,2
3,76,71,700
3,79,71,2
3,71,71,48
3,74,71,2
3,72,71,46
3,76,71,0
3,74,71,64
3,78,71,0
3,76,71,56
