track,note,velocity,time
0,36,127,1534
0,41,104,2
0,48,98,0
0,45,103,166
0,45,93,168
0,45,90,168
0,36,127,170
0,41,96,0
0,48,98,0
0,45,97,166
0,45,92,168
0,45,92,168
0,36,127,170
0,41,96,0
0,48,98,0
0,45,94,166
0,45,94,168
0,45,95,168
0,36,127,170
0,41,96,0
0,48,98,0
0,45,100,166
0,45,95,168
0,45,99,168
0,36,127,170
0,41,101,0
0,48,103,0
0,45,99,166
0,45,94,168
0,45,95,168
0,36,127,168
0,41,102,2
0,48,103,0
0,45,99,166
0,45,95,168
0,45,98,168
0,36,127,170
0,41,105,0
0,48,105,0
0,45,99,166
0,45,96,168
0,45,98,168
0,36,127,168
0,41,103,2
0,48,105,0
0,45,99,166
0,45,93,168
0,45,96,168
0,36,127,170
0,34,94,0
0,46,121,2
0,70,127,0
0,82,127,0
0,46,104,2
0,53,104,0
0,53,89,2
0,58,95,0
0,62,89,0
0,41,99,2
0,48,100,0
0,49,114,2
0,65,127,156
0,45,99,2
0,45,97,16
0,45,96,100
0,65,125,134
0,36,127,0
0,48,103,0
0,41,103,2
0,65,113,38
0,45,96,2
0,65,113,60
0,45,93,2
0,65,115,72
0,45,96,0
0,67,125,66
0,36,127,0
0,48,100,0
0,41,100,2
0,45,97,164
0,67,125,144
0,45,95,2
0,65,116,0
0,45,99,2
0,36,127,168
0,41,101,0
0,48,98,0
0,29,94,166
0,41,85,2
0,65,109,0
0,77,114,0
0,48,89,2
0,41,94,2
0,53,99,0
0,57,92,0
0,60,93,0
0,45,99,2
0,29,94,48
0,41,87,2
0,65,109,0
0,77,112,0
0,41,93,2
0,48,92,0
0,53,94,2
0,57,96,0
0,60,93,0
0,45,96,2
0,45,97,156
0,36,127,38
0,34,94,0
0,70,121,2
0,82,127,0
0,58,102,2
0,46,100,0
0,53,94,0
0,53,103,2
0,62,99,0
0,46,125,2
0,41,105,0
0,48,105,0
0,62,125,158
0,45,99,2
0,45,96,2
0,62,110,32
0,45,97,2
0,65,127,82
0,36,127,0
0,41,103,2
0,48,103,0
0,45,96,164
0,65,125,128
0,45,95,2
0,65,113,60
0,45,94,0
0,67,127,46
0,36,127,0
0,41,103,0
0,48,104,2
0,70,127,0
0,45,98,2
0,45,95,166
0,65,127,152
0,45,97,2
0,36,127,166
0,41,104,2
0,48,101,0
0,34,94,68
0,70,124,2
0,70,127,0
0,46,121,2
0,53,97,0
0,82,127,0
0,46,125,2
0,58,111,0
0,53,115,2
0,62,101,0
0,45,99,0
0,45,98,160
0,45,98,20
0,36,127,2
0,44,115,0
0,70,127,2
0,39,94,0
0,51,92,2
0,58,91,0
0,51,111,2
0,55,115,0
0,58,94,0
0,63,97,2
0,49,114,0
0,44,79,110
0,51,78,2
0,58,82,0
0,38,127,0
0,44,110,2
0,36,94,0
0,82,116,2
0,91,110,0
0,51,98,2
0,58,98,0
0,87,109,0
0,44,76,60
0,82,104,2
0,87,108,0
0,91,105,0
0,51,75,2
0,58,83,0
0,36,127,92
0,44,108,2
0,34,94,0
0,82,99,2
0,91,99,0
0,51,87,2
0,58,92,0
0,87,111,0
0,44,83,60
0,82,111,2
0,91,109,0
0,51,79,2
0,58,84,0
0,87,110,0
0,38,127,36
0,44,106,0
0,36,94,2
0,51,98,0
0,60,102,0
0,44,79,86
0,82,109,2
0,87,109,0
0,91,110,0
0,51,79,2
0,58,86,0
0,36,127,26
0,44,104,0
0,73,127,2
0,39,94,0
0,91,101,0
0,82,99,2
0,87,107,0
0,51,93,2
0,58,94,0
0,44,85,88
0,82,100,2
0,87,104,0
0,91,99,0
0,51,69,2
0,58,82,0
0,38,127,92
0,44,112,0
0,72,115,2
0,36,94,0
0,87,105,0
0,84,114,2
0,92,112,0
0,51,103,2
0,58,100,0
0,44,93,84
0,70,127,2
0,82,117,0
0,87,107,0
0,91,119,2
0,51,65,2
0,58,80,0
0,36,127,42
0,44,108,0
0,34,94,0
0,51,92,2
0,58,96,0
0,44,94,48
0,51,70,2
0,58,84,0
0,38,127,108
0,44,110,0
0,67,127,2
0,36,94,0
0,51,100,2
0,58,107,0
0,58,125,2
0,63,111,0
0,67,111,0
0,51,125,2
0,44,85,84
0,51,81,0
0,58,80,2
0,36,127,24
0,44,108,2
0,65,123,2
0,34,94,0
0,70,121,0
0,46,115,2
0,53,95,0
0,46,92,2
0,65,99,0
0,58,119,2
0,62,106,0
0,44,94,58
0,46,83,2
0,53,84,0
0,38,127,8
0,44,110,0
0,31,94,2
0,82,103,2
0,86,109,0
0,89,109,0
0,46,96,2
0,55,120,0
0,44,93,36
0,82,98,2
0,86,107,0
0,89,103,0
0,46,84,2
0,53,85,0
0,36,127,58
0,44,104,0
0,29,94,0
0,82,105,2
0,86,110,0
0,89,106,0
0,46,91,2
0,53,107,2
0,44,96,76
0,82,104,2
0,86,110,0
0,89,104,0
0,46,83,2
0,53,80,0
0,38,127,38
0,44,119,2
0,31,94,0
0,46,98,0
0,53,111,2
0,44,100,80
0,82,103,2
0,86,105,0
0,89,101,0
0,46,85,2
0,53,89,0
0,36,127,78
0,44,110,0
0,34,94,2
0,82,103,0
0,86,107,0
0,46,100,2
0,55,111,0
0,89,103,0
0,44,97,56
0,82,94,2
0,86,103,0
0,89,95,0
0,46,87,2
0,53,90,0
0,38,127,96
0,44,112,0
0,31,94,2
0,82,94,2
0,87,105,0
0,91,102,0
0,46,98,2
0,53,104,0
0,44,98,68
0,82,104,2
0,86,108,0
0,89,110,0
0,46,80,2
0,53,82,0
0,36,127,40
0,44,105,2
0,29,94,0
0,46,93,2
0,53,99,0
0,44,99,68
0,65,123,2
0,86,107,0
0,46,81,2
0,82,96,0
0,89,107,0
0,53,85,2
0,38,127,56
0,44,119,2
0,31,94,0
0,65,109,2
0,87,106,0
0,91,110,0
0,46,98,2
0,82,105,0
0,53,97,2
0,44,103,32
0,65,115,2
0,82,103,0
0,46,74,2
0,86,105,0
0,89,108,0
0,53,78,2
0,36,127,2
0,44,110,0
0,69,123,2
0,41,94,0
0,84,117,2
0,89,112,0
0,93,114,0
0,41,83,2
0,53,92,0
0,57,108,2
0,60,115,0
0,65,106,0
0,53,119,2
0,65,105,4
0,60,87,2
0,69,79,0
0,44,96,42
0,41,66,2
0,53,81,0
0,38,127,0
0,44,112,2
0,38,94,0
0,69,123,2
0,89,110,0
0,53,99,2
0,84,108,0
0,93,104,0
0,41,85,2
0,44,95,44
0,69,118,2
0,93,114,0
0,53,84,2
0,84,119,0
0,89,127,0
0,41,74,2
0,36,127,30
0,44,97,0
0,36,94,2
0,53,104,0
0,44,86,88
0,89,98,2
0,93,93,0
0,53,94,2
0,60,95,0
0,84,97,0
0,38,127,90
0,44,110,0
0,38,94,2
0,69,110,2
0,84,102,0
0,93,98,0
0,62,104,2
0,89,104,0
0,44,93,48
0,69,115,2
0,84,101,0
0,93,92,0
0,60,95,2
0,89,110,0
0,53,85,2
0,58,116,4
0,67,82,0
0,60,87,4
0,63,91,0
0,36,127,10
0,44,102,0
0,67,127,2
0,39,94,0
0,91,103,0
0,82,108,2
0,87,103,0
0,51,107,2
0,58,111,0
0,51,111,2
0,55,111,0
0,63,96,0
0,44,91,98
0,51,79,2
0,58,94,0
0,38,127,108
0,67,127,2
0,44,112,0
0,36,94,0
0,82,102,2
0,87,105,0
0,90,86,2
0,91,102,0
0,44,94,32
0,67,123,2
0,82,116,0
0,91,114,0
0,51,86,2
0,87,113,0
0,58,96,2
0,36,127,22
0,44,95,0
0,34,94,0
0,51,100,2
0,58,111,0
0,44,85,78
0,82,96,2
0,87,105,0
0,91,99,0
0,51,77,2
0,58,87,0
0,38,127,78
0,44,102,2
0,36,94,0
0,82,101,2
0,87,108,0
0,91,98,0
0,51,107,2
0,60,104,0
0,44,86,60
0,82,100,0
0,87,109,2
0,91,101,0
0,51,92,2
0,58,96,0
0,65,105,28
0,36,127,2
0,44,112,0
0,69,127,2
0,41,94,0
0,84,106,2
0,89,106,0
0,93,85,0
0,53,94,2
0,60,92,0
0,53,124,2
0,57,111,0
0,60,119,0
0,65,106,2
0,60,112,2
0,69,82,0
0,44,87,76
0,69,113,2
0,60,90,0
0,53,88,0
0,38,127,20
0,44,112,0
0,69,116,2
0,38,94,0
0,89,103,2
0,93,92,0
0,53,111,2
0,62,111,0
0,84,97,0
0,44,92,48
0,69,127,2
0,93,105,0
0,53,88,2
0,84,111,0
0,89,114,0
0,60,90,2
0,36,127,26
0,44,99,0
0,36,94,0
0,53,95,2
0,60,102,0
0,44,91,88
0,69,127,2
0,93,99,0
0,84,101,2
0,89,105,0
0,53,89,2
0,60,97,0
0,38,127,92
0,44,110,2
0,38,94,0
0,93,99,0
0,84,103,2
0,89,109,0
0,53,104,2
0,44,93,48
0,84,98,2
0,93,90,0
0,53,89,2
0,60,94,0
0,89,105,0
0,36,127,78
0,44,100,0
0,39,94,0
0,67,127,2
0,82,113,2
0,87,104,0
0,91,99,0
0,51,104,2
0,51,100,0
0,58,103,0
0,58,111,2
0,63,100,0
0,58,95,2
0,63,95,0
0,55,108,0
0,60,84,2
0,44,91,0
0,51,85,2
0,58,88,0
0,38,127,92
0,44,108,0
0,36,94,2
0,67,127,2
0,82,100,0
0,87,102,0
0,60,104,2
0,91,102,0
0,44,95,52
0,67,118,2
0,91,110,0
0,58,103,2
0,82,110,0
0,87,110,0
0,51,87,2
0,36,127,14
0,44,103,0
0,34,94,0
0,51,96,2
0,58,115,0
0,44,96,78
0,82,106,2
0,87,105,0
0,91,109,0
0,51,82,2
0,58,96,0
0,38,127,42
0,44,108,2
0,36,94,0
0,67,127,2
0,82,109,0
0,91,114,0
0,60,107,2
0,87,112,0
0,51,100,2
0,44,91,36
0,51,87,2
0,58,100,0
0,36,127,6
0,44,103,0
0,34,94,0
0,65,127,2
0,58,104,2
0,46,91,0
0,53,95,0
0,46,104,2
0,53,106,0
0,62,96,0
0,58,91,2
0,65,87,0
0,62,84,2
0,44,90,96
0,46,87,2
0,53,92,0
0,38,127,92
0,44,110,2
0,38,94,0
0,82,104,0
0,86,107,2
0,89,104,0
0,46,111,0
0,44,92,20
0,86,102,2
0,89,96,0
0,46,86,2
0,53,94,0
0,82,96,0
0,36,127,16
0,44,102,2
0,41,94,2
0,82,101,0
0,86,103,0
0,46,96,2
0,53,94,0
0,89,104,0
0,44,97,92
0,82,111,2
0,86,111,0
0,46,90,2
0,53,88,0
0,89,110,0
0,38,127,2
0,44,112,0
0,43,94,0
0,46,103,2
0,53,104,0
0,44,90,92
0,41,94,2
0,86,105,0
0,46,81,2
0,82,101,0
0,89,102,0
0,53,82,0
0,36,127,18
0,44,103,0
0,34,94,0
0,82,101,2
0,86,102,0
0,89,103,0
0,46,98,2
0,53,107,2
0,44,92,64
0,82,99,2
0,86,108,0
0,89,92,0
0,46,80,2
0,53,87,0
0,38,127,8
0,44,108,2
0,41,94,0
0,82,100,0
0,87,103,2
0,91,102,0
0,46,103,2
0,55,107,0
0,44,91,60
0,46,94,2
0,82,106,0
0,86,109,0
0,89,107,2
0,46,87,0
0,53,102,0
0,36,127,38
0,44,92,2
0,46,94,2
0,53,86,0
0,67,102,96
0,44,95,0
0,46,86,2
0,53,85,0
0,55,119,2
0,58,125,0
0,51,127,2
0,63,104,0
0,38,127,28
0,44,106,0
0,39,94,2
0,46,90,2
0,53,90,0
0,65,105,0
0,44,91,108
0,46,79,0
0,53,74,2
0,36,127,6
0,44,102,0
0,65,120,2
0,34,94,0
0,70,127,0
0,46,103,2
0,46,94,2
0,58,100,0
0,53,104,0
0,53,106,2
0,62,94,0
0,44,88,92
0,46,86,0
0,53,86,2
0,38,127,102
0,44,115,2
0,38,94,0
0,82,111,0
0,86,112,2
0,89,110,0
0,46,100,2
0,55,111,0
0,44,97,88
0,82,94,2
0,86,106,0
0,89,92,0
0,46,88,2
0,53,87,0
0,36,127,94
0,44,108,0
0,41,94,0
0,82,103,2
0,86,109,0
0,46,98,2
0,53,102,0
0,89,104,0
0,44,98,84
0,82,103,2
0,86,110,0
0,89,108,0
0,46,87,2
0,53,88,0
0,38,127,0
0,44,112,2
0,38,94,0
0,46,98,2
0,55,104,0
0,44,94,92
0,82,100,2
0,86,105,0
0,89,106,0
0,46,84,2
0,53,90,0
0,36,127,26
0,44,112,0
0,34,94,2
0,82,100,0
0,86,103,0
0,46,90,2
0,53,94,0
0,89,103,0
0,44,91,30
0,82,100,2
0,86,108,0
0,46,84,2
0,53,85,0
0,89,103,0
0,38,127,0
0,44,104,2
0,41,94,0
0,82,102,0
0,87,104,2
0,91,107,0
0,46,90,2
0,55,102,0
0,44,97,64
0,46,94,0
0,82,106,2
0,89,112,0
0,46,88,2
0,53,102,0
0,86,110,0
0,36,127,2
0,44,94,0
0,46,84,2
0,53,83,0
0,44,92,94
0,41,94,2
0,65,106,0
0,65,96,2
0,41,74,0
0,53,88,0
0,41,96,2
0,38,127,70
0,44,108,2
0,41,94,0
0,65,94,0
0,41,84,2
0,41,106,2
0,65,127,0
0,53,104,0
0,44,96,32
0,65,105,0
0,41,86,2
0,53,97,0
0,36,127,26
0,44,105,0
0,34,94,0
0,70,123,2
0,82,125,0
0,46,111,2
0,53,92,0
0,46,102,2
0,58,111,0
0,62,101,0
0,53,115,2
0,41,107,0
0,48,106,2
0,49,114,0
0,65,123,156
0,45,99,2
0,45,87,116
0,45,97,96
0,36,127,152
0,65,118,2
0,41,102,2
0,48,101,0
0,65,111,56
0,45,102,0
0,65,110,48
0,45,92,2
0,65,109,52
0,45,97,2
0,67,127,50
0,36,127,0
0,41,101,2
0,48,101,0
0,45,101,164
0,67,116,152
0,45,96,2
0,65,123,166
0,45,97,2
0,36,127,166
0,41,104,2
0,48,106,0
0,29,94,166
0,65,96,2
0,77,109,0
0,53,124,2
0,41,79,0
0,53,104,0
0,41,94,2
0,45,101,0
0,29,94,44
0,65,106,2
0,77,108,0
0,41,92,2
0,41,80,0
0,53,99,0
0,53,103,2
0,45,93,0
0,45,102,162
0,36,127,38
0,34,94,0
0,46,103,2
0,70,123,0
0,82,121,0
0,58,111,2
0,53,97,0
0,46,125,2
0,53,108,0
0,62,94,0
0,41,105,2
0,48,107,0
0,62,123,158
0,45,100,2
0,45,93,148
0,62,113,24
0,45,98,2
0,65,115,72
0,36,127,0
0,48,105,0
0,41,107,2
0,45,101,164
0,65,120,112
0,45,98,2
0,65,111,52
0,45,93,0
0,67,115,42
0,36,127,0
0,41,105,2
0,48,108,0
0,70,124,0
0,45,101,2
0,45,98,166
0,65,127,168
0,45,100,2
0,36,127,168
0,41,105,0
0,48,105,0
0,34,94,128
0,70,124,2
0,82,127,0
0,46,107,2
0,53,102,0
0,70,127,0
0,53,115,2
0,58,111,0
0,46,125,2
0,62,103,0
0,45,100,0
0,45,98,160
0,45,101,168
0,36,127,14
0,44,127,0
0,39,94,0
0,70,127,2
0,70,113,2
0,82,116,0
0,87,116,0
0,55,115,2
0,51,107,0
0,58,87,0
0,51,104,2
0,58,107,0
0,63,104,2
0,49,114,0
0,44,92,16
0,51,75,2
0,58,83,0
0,38,127,28
0,44,112,2
0,36,94,0
0,82,103,2
0,87,105,0
0,91,109,0
0,51,100,2
0,60,90,0
0,44,96,24
0,82,101,2
0,91,106,0
0,51,79,2
0,58,79,0
0,87,109,0
0,36,127,48
0,44,102,2
0,34,94,0
0,82,104,2
0,91,97,0
0,51,96,2
0,87,110,0
0,58,93,2
0,44,88,60
0,82,100,2
0,87,106,0
0,91,103,0
0,51,81,2
0,58,87,0
0,38,127,20
0,44,108,2
0,36,94,0
0,51,96,2
0,60,92,0
0,44,87,58
0,82,106,2
0,87,110,0
0,91,105,0
0,51,79,2
0,58,84,0
0,36,127,18
0,44,108,0
0,39,94,0
0,73,121,2
0,82,100,2
0,87,101,0
0,91,102,0
0,51,98,2
0,58,96,0
0,44,92,68
0,82,103,2
0,87,102,0
0,91,102,0
0,51,77,2
0,58,84,0
0,38,127,16
