track,note,velocity,time
1,41,74,2654
1,43,63,146
1,45,68,56
1,43,60,126
1,41,72,50
1,43,59,132
1,45,66,50
1,43,64,126
1,41,71,36
1,43,66,40
1,41,71,32
1,39,64,26
1,38,67,36
1,36,72,32
1,34,77,40
1,41,69,218
1,34,54,188
1,41,70,208
1,31,65,210
1,31,66,192
1,35,61,170
1,43,65,168
1,36,66,180
1,36,66,206
1,29,66,208
1,29,69,202
1,46,71,230
1,34,71,258
1,41,64,264
1,43,57,90
1,45,66,44
1,43,50,120
1,41,74,46
1,43,60,110
1,45,69,56
1,43,54,128
1,41,74,38
1,43,67,40
1,41,73,34
1,39,71,32
1,38,66,40
1,36,83,40
1,34,71,56
1,41,75,166
1,34,64,174
1,41,74,180
1,34,66,164
1,41,74,188
1,38,67,176
1,39,56,46
1,40,60,26
1,41,70,32
1,43,64,44
1,45,66,40
1,46,69,32
1,41,68,180
1,38,75,166
1,37,63,54
1,36,69,384
1,41,65,188
1,41,65,124
1,36,74,20
1,41,66,202
1,36,76,184
1,41,66,198
1,36,73,188
1,41,68,186
1,36,74,194
1,41,62,198
1,36,68,192
1,41,62,200
1,36,73,186
1,41,60,204
1,36,69,172
1,36,63,142
1,41,76,30
1,34,63,20
1,38,66,216
1,41,72,196
1,43,67,32
1,41,63,42
1,39,68,32
1,38,62,24
1,36,67,36
1,34,63,22
1,41,71,166
1,34,60,180
1,41,72,186
1,34,58,188
1,41,70,186
1,38,66,182
1,39,54,34
1,40,57,26
1,41,67,30
1,43,60,42
1,45,66,42
1,46,60,32
1,43,67,180
1,34,68,172
1,38,68,164
1,39,58,56
1,38,60,24
1,36,71,26
1,34,60,22
1,36,62,24
1,38,69,24
1,39,68,36
1,34,64,200
1,39,71,174
1,34,62,196
1,39,68,190
1,40,72,172
1,41,69,384
1,34,58,174
1,31,68,180
1,38,71,184
1,36,73,166
1,36,76,190
1,41,73,184
1,41,74,192
1,46,55,178
1,45,62,180
1,43,57,182
1,41,63,178
1,39,60,168
1,38,64,196
1,36,75,174
1,29,62,176
1,46,77,126
1,53,80,158
1,46,77,160
1,53,80,166
1,46,73,152
1,53,78,150
1,46,71,102
1,53,80,118
1,53,92,52
1,46,71,38
1,53,80,154
1,50,78,148
1,49,86,68
1,48,78,48
1,53,76,210
1,48,82,230
1,53,79,182
1,48,82,194
1,53,79,184
1,48,83,176
1,53,80,204
1,48,85,184
1,53,79,186
1,48,85,184
1,53,78,128
1,53,74,50
1,53,86,164
1,48,86,28
1,55,78,182
1,48,83,178
1,55,79,206
1,53,82,160
1,55,83,40
1,57,88,10
1,41,107,236
1,41,74,226
1,43,63,146
1,45,68,56
1,43,60,126
1,41,72,50
1,43,59,132
1,45,66,50
1,43,64,126
1,41,71,36
1,43,66,40
1,41,71,32
1,39,64,26
1,38,67,36
1,36,72,32
1,34,71,48
1,41,75,166
1,34,64,174
1,41,74,180
1,34,66,164
1,41,74,188
1,38,67,176
1,39,56,46
1,40,60,26
1,41,70,32
1,43,64,44
1,45,66,40
1,46,69,32
1,41,68,180
1,38,75,166
1,37,63,54
1,36,69,384
1,41,65,188
1,41,65,124
1,36,74,20
1,41,66,202
1,36,76,184
1,41,66,198
1,36,73,188
1,41,68,186
1,36,74,194
1,41,62,198
1,36,68,192
1,41,62,200
1,36,73,186
1,41,60,204
1,36,69,172
1,36,63,142
1,41,76,30
1,34,63,20
1,38,66,216
1,41,72,196
1,43,67,32
1,41,63,42
1,39,68,32
1,38,62,24
1,36,67,36
1,34,63,22
1,41,71,166
1,34,60,180
1,41,72,186
1,34,58,188
1,41,70,186
1,38,66,182
1,39,54,34
1,40,57,26
1,41,67,30
1,43,60,42
1,45,66,42
1,46,60,32
1,43,67,180
1,34,68,172
1,38,68,164
1,39,58,56
1,38,60,24
1,36,71,26
1,34,60,22
1,36,62,24
1,38,69,24
1,39,68,36
1,34,64,200
1,39,71,174
1,34,62,196
1,39,68,190
1,40,72,172
1,41,69,384
1,34,58,174
1,31,68,180
1,38,71,184
1,36,73,166
1,36,76,190
1,41,73,184
1,41,74,192
1,46,55,178
1,45,62,180
1,43,57,182
1,41,63,178
1,39,60,168
1,38,64,196
1,36,75,174
1,29,62,176
1,46,77,126
1,53,80,158
1,46,77,160
1,53,80,166
1,46,73,152
1,53,78,150
1,46,71,102
1,53,80,118
1,53,92,52
1,46,71,38
1,53,80,154
1,50,78,148
1,49,86,68
1,48,78,48
1,53,76,210
1,48,82,230
1,53,79,182
1,48,82,194
1,53,79,184
1,48,83,176
1,53,80,204
1,48,85,184
1,53,79,186
1,48,85,184
1,53,78,128
1,53,74,50
1,53,86,164
1,48,86,28
1,55,78,182
1,48,83,178
1,55,79,206
1,53,82,160
1,55,83,40
1,57,88,10
1,41,107,236
1,41,74,226
1,43,63,146
1,45,68,56
1,43,60,126
1,41,72,50
1,43,59,132
1,45,66,50
1,43,64,126
1,41,71,36
1,43,66,40
1,41,71,32
1,39,64,26
1,38,67,36
1,36,72,32
1,34,71,48
1,41,75,166
1,34,64,174
1,41,74,180
1,34,66,164
1,41,74,188
1,38,67,176
1,39,56,46
1,40,60,26
1,41,70,32
1,43,64,44
1,45,66,40
1,46,69,32
1,41,68,180
1,38,75,166
1,37,63,54
1,36,69,384
1,41,65,188
1,41,65,124
1,36,74,20
1,41,66,202
1,36,76,184
1,41,66,198
1,36,73,188
1,41,68,186
1,36,74,194
1,41,62,198
1,36,68,192
1,41,62,200
1,36,73,186
1,41,60,204
1,36,69,172
1,36,63,142
1,41,76,30
1,34,63,20
1,38,66,216
1,41,72,196
1,43,67,32
1,41,63,42
1,39,68,32
1,38,62,24
1,36,67,36
1,34,63,22
1,41,71,166
1,34,60,180
1,41,72,186
1,34,58,188
1,41,70,186
1,38,66,182
1,39,54,34
1,40,57,26
1,41,67,30
1,43,60,42
1,45,66,42
1,46,60,32
1,43,67,180
1,34,68,172
1,38,68,164
1,39,58,56
1,38,60,24
1,36,71,26
1,34,60,22
1,36,62,24
1,38,69,24
1,39,68,36
1,34,64,200
1,39,71,174
1,34,62,196
1,39,68,190
1,40,72,172
1,41,69,384
1,34,58,174
1,31,68,180
1,38,71,184
1,36,73,166
1,36,76,190
1,41,73,184
1,41,74,192
1,34,86,178
1,41,82,198
1,34,89,226
1,36,80,154
1,37,73,4
1,38,67,136
1,39,77,0
1,34,73,102
1,39,81,138
1,40,74,56
1,41,80,34
1,34,63,194
1,31,86,190
1,38,74,196
1,36,72,194
1,36,80,170
1,41,78,174
1,41,72,166
1,34,86,152
1,34,89,178
1,41,86,2
1,34,92,36
1,34,92,174
1,39,84,36
1,41,85,38
1,41,83,182
1,34,104,150
1,34,119,262
2,69,54,2636
2,79,54,6
2,70,54,10
2,77,54,52
2,69,54,0
2,79,54,0
2,70,54,0
2,77,54,50
2,69,54,4
2,79,54,44
2,70,54,6
2,77,54,42
2,69,54,6
2,79,54,40
2,70,54,4
2,77,54,42
2,69,54,6
2,79,54,36
2,70,54,10
2,79,54,34
2,70,54,10
2,77,54,26
2,69,54,10
2,75,54,40
2,67,54,10
2,77,54,14
2,69,54,10
2,75,54,40
2,67,54,6
2,77,54,0
2,69,54,10
2,75,54,40
2,67,54,6
2,77,54,2
2,69,54,2
2,75,54,46
2,67,54,6
2,77,54,46
2,69,54,6
2,75,54,4
2,67,54,4
2,77,54,42
2,69,54,6
2,75,54,42
2,67,54,4
2,77,54,42
2,69,54,0
2,75,54,38
2,67,54,10
2,79,54,42
2,70,54,10
2,81,54,0
2,72,54,10
2,79,54,36
2,70,54,0
2,81,54,4
2,72,54,4
2,79,54,30
2,70,54,0
2,81,54,38
2,72,54,6
2,79,54,36
2,70,54,4
2,81,54,32
2,72,54,0
2,79,54,32
2,70,54,6
2,81,54,30
2,72,54,10
2,81,54,36
2,72,54,10
2,79,54,18
2,70,54,10
2,74,54,80
2,77,54,4
2,77,54,162
2,74,54,2
2,74,54,66
2,77,54,0
2,74,54,150
2,77,54,6
2,77,54,60
2,74,54,4
2,74,54,170
2,77,54,4
2,77,54,68
2,74,54,4
2,72,54,148
2,77,54,6
2,77,54,68
2,71,54,8
2,77,54,72
2,72,54,4
2,77,54,78
2,74,54,8
2,74,54,94
2,77,54,4
2,77,54,146
2,74,54,6
2,75,54,68
2,79,54,4
2,75,54,114
2,79,54,4
2,75,54,114
2,72,54,6
2,74,54,124
2,77,54,2
2,70,54,118
2,74,54,2
2,77,54,586
2,69,54,4
2,79,54,6
2,70,54,10
2,77,54,52
2,69,54,0
2,79,54,0
2,70,54,0
2,77,54,50
2,69,54,4
2,79,54,44
2,70,54,6
2,77,54,42
2,69,54,6
2,79,54,40
2,70,54,4
2,77,54,42
2,69,54,6
2,79,54,36
2,70,54,10
2,79,54,34
2,70,54,10
2,77,54,26
2,69,54,10
2,75,54,40
2,67,54,10
2,77,54,14
2,69,54,10
2,75,54,40
2,67,54,6
2,77,54,0
2,69,54,10
2,75,54,40
2,67,54,6
2,77,54,2
2,69,54,2
2,75,54,46
2,67,54,6
2,77,54,46
2,69,54,6
2,75,54,4
2,67,54,4
2,77,54,42
2,69,54,6
2,75,54,42
2,67,54,4
2,77,54,42
2,69,54,0
2,75,54,38
2,67,54,10
2,79,54,42
2,70,54,10
2,81,54,0
2,72,54,10
2,79,54,36
2,70,54,0
2,81,54,4
2,72,54,4
2,79,54,30
2,70,54,0
2,81,54,38
2,72,54,6
2,79,54,36
2,70,54,4
2,81,54,32
2,72,54,0
2,79,54,32
2,70,54,6
2,81,54,30
2,72,54,10
2,81,54,36
2,72,54,10
2,79,54,18
2,70,54,10
2,74,54,78
2,77,54,0
2,77,54,150
2,74,54,2
2,74,54,56
2,77,54,0
2,74,54,142
2,77,54,8
2,74,54,56
2,77,54,8
2,74,54,150
2,77,54,18
2,72,54,32
2,75,54,8
2,74,54,140
2,77,54,10
2,70,54,38
2,74,54,8
2,72,54,18
2,75,54,8
2,73,54,36
2,76,54,6
2,74,54,24
2,77,54,18
2,73,54,36
2,76,54,8
2,72,54,14
2,75,54,24
2,70,54,24
2,74,54,16
2,70,54,132
2,74,54,14
2,69,54,10
2,73,54,24
2,70,54,136
2,74,54,8
2,77,54,48
2,82,54,10
2,74,54,16
2,77,54,8
2,70,54,24
2,74,54,14
2,77,54,42
2,82,54,6
2,74,54,40
2,77,54,2
2,70,54,22
2,74,54,22
2,77,54,40
2,82,54,12
2,77,54,30
2,74,54,4
2,70,54,12
2,74,54,24
2,76,54,32
2,82,54,18
2,73,54,10
2,76,54,2
2,70,54,34
2,73,54,4
2,69,54,46
2,72,54,2
2,70,54,34
2,73,54,6
2,71,54,40
2,74,54,4
2,72,54,40
2,75,54,0
2,71,54,38
2,74,54,0
2,73,54,36
2,70,54,4
2,72,54,48
2,69,54,4
2,75,54,700
2,72,54,4
2,75,54,148
2,72,54,4
2,72,54,142
2,75,54,4
2,70,54,136
2,74,54,4
2,74,54,166
2,70,54,4
2,69,54,214
2,77,54,0
2,70,54,10
2,79,54,0
2,69,54,54
2,77,54,0
2,70,54,6
2,79,54,0
2,69,54,4
2,77,54,0
2,70,54,2
2,79,54,0
2,69,54,56
2,77,54,0
2,70,54,4
2,79,54,0
2,69,54,2
2,77,54,0
2,70,54,52
2,79,54,0
2,69,54,4
2,77,54,0
2,70,54,50
2,79,54,0
2,69,54,4
2,77,54,0
2,69,54,260
2,77,54,0
2,75,54,44
2,67,54,2
2,63,54,122
2,72,54,6
2,60,54,36
2,69,54,8
2,69,54,144
2,77,54,10
2,79,54,64
2,70,54,4
2,77,54,40
2,69,54,2
2,70,54,50
2,79,54,6
2,70,54,34
2,79,54,2
2,77,54,6
2,70,54,12
2,75,54,24
2,67,54,14
2,74,54,46
2,65,54,8
2,74,54,64
2,65,54,2
2,70,54,44
2,62,54,2
2,77,54,62
2,69,54,4
2,70,54,38
2,79,54,8
2,69,54,28
2,77,54,10
2,67,54,44
2,75,54,4
2,65,54,24
2,74,54,10
2,63,54,34
2,72,54,12
2,77,54,48
2,74,54,4
2,77,54,166
2,74,54,4
2,77,54,76
2,74,54,4
2,77,54,176
2,74,54,4
2,77,54,78
2,74,54,4
2,74,54,180
2,77,54,0
2,75,54,46
2,72,54,12
2,77,54,140
2,74,54,4
2,75,54,56
2,72,54,6
2,75,54,160
2,79,54,4
2,74,54,40
2,77,54,2
2,75,54,144
2,72,54,6
2,70,54,46
2,74,54,2
2,72,54,42
2,75,54,2
2,76,54,34
2,73,54,14
2,77,54,26
2,74,54,22
2,79,54,30
2,75,54,16
2,81,54,34
2,76,54,16
2,82,54,44
2,74,54,22
2,82,54,146
2,74,54,8
2,80,54,136
2,72,54,4
2,80,54,172
2,72,54,2
2,67,54,168
2,75,54,0
2,75,54,68
2,67,54,2
2,75,54,60
2,67,54,2
2,67,54,72
2,75,54,0
2,75,54,58
2,67,54,2
2,75,54,58
2,67,54,10
2,75,54,48
2,67,54,14
2,82,54,700
2,79,54,4
2,79,54,34
2,75,54,2
2,75,54,54
2,70,54,2
2,82,54,48
2,79,54,4
2,75,54,32
2,79,54,6
2,70,54,50
2,75,54,4
2,79,54,50
2,82,54,6
2,75,54,34
2,79,54,0
2,70,54,38
2,75,54,14
2,79,54,40
2,82,54,20
2,76,54,18
2,79,54,18
2,70,54,22
2,76,54,18
2,74,54,40
2,82,54,16
2,72,54,130
2,79,54,0
2,70,54,32
2,77,54,6
2,75,54,122
2,67,54,14
2,74,54,38
2,65,54,2
2,75,54,678
2,79,54,0
2,75,54,138
2,79,54,0
2,75,54,146
2,72,54,4
2,77,54,148
2,74,54,4
2,74,54,156
2,82,54,6
2,75,54,36
2,84,54,12
2,74,54,28
2,82,54,6
2,72,54,44
2,81,54,8
2,74,54,40
2,82,54,4
2,81,54,36
2,72,54,2
2,70,54,24
2,79,54,10
2,72,54,22
2,81,54,10
2,70,54,18
2,79,54,20
2,69,54,28
2,77,54,18
2,70,54,32
2,79,54,8
2,69,54,36
2,77,54,6
2,75,54,38
2,67,54,6
2,77,54,32
2,69,54,12
2,75,54,36
2,67,54,12
2,65,54,26
2,74,54,0
2,75,54,30
2,67,54,12
2,74,54,26
2,65,54,18
2,72,54,42
2,63,54,2
2,69,54,178
2,77,54,12
2,69,54,70
2,77,54,0
2,70,54,12
2,79,54,0
2,69,54,4
2,77,54,0
2,70,54,48
2,79,54,0
2,70,54,56
2,79,54,0
2,69,54,40
2,77,54,0
2,74,54,304
2,77,54,0
2,74,54,64
2,77,54,0
2,74,54,558
2,77,54,0
2,74,54,64
2,77,54,0
2,74,54,562
2,77,54,0
2,74,54,60
2,77,54,0
2,74,54,562
2,77,54,0
2,74,54,62
2,77,54,0
2,73,54,34
2,76,54,0
2,72,54,30
2,75,54,0
2,70,54,48
2,74,54,0
2,62,54,294
2,65,54,0
2,65,54,50
2,70,54,0
2,70,54,52
2,74,54,0
2,70,54,48
2,74,54,0
2,74,54,48
2,77,54,0
2,70,54,44
2,74,54,0
2,70,54,52
2,73,54,0
2,73,54,52
2,76,54,0
2,70,54,46
2,73,54,0
2,69,54,52
2,72,54,0
2,72,54,162
2,75,54,0
2,72,54,52
2,75,54,0
2,72,54,162
2,75,54,0
2,72,54,58
2,75,54,0
2,74,54,54
2,77,54,0
2,74,54,48
2,78,54,0
2,74,54,50
2,79,54,0
2,75,54,40
2,81,54,0
2,75,54,46
2,82,54,0
2,75,54,46
2,84,54,0
2,75,54,146
2,72,54,6
2,75,54,74
2,72,54,4
2,75,54,532
2,72,54,4
2,75,54,80
2,72,54,6
2,75,54,558
2,72,54,4
2,75,54,78
2,72,54,4
2,75,54,552
2,72,54,4
2,75,54,80
2,72,54,4
2,76,54,334
2,79,54,0
2,77,54,16
2,81,54,0
2,76,54,48
2,79,54,0
2,77,54,14
2,81,54,0
2,76,54,44
2,79,54,0
2,77,54,4
2,81,54,0
2,76,54,2
2,79,54,0
2,77,54,6
2,81,54,0
2,76,54,50
2,79,54,0
2,77,54,4
