track,note,velocity,time
0,79,75,264
0,67,55,1
0,68,52,7
0,72,47,1
0,65,52,0
0,80,82,1
0,68,62,0
0,35,127,2
0,53,68,0
0,41,125,3
0,72,110,3
0,65,110,0
0,80,110,0
0,77,95,5
0,53,0,2
0,35,0,0
0,67,0,2
0,79,0,0
0,51,68,2
0,54,28,0
0,54,0,2
0,51,0,0
0,65,125,3
0,72,125,0
0,68,125,0
0,41,0,1
0,68,0,0
0,80,0,0
0,60,101,2
0,54,50,1
0,77,83,0
0,38,99,0
0,65,112,0
0,65,63,0
0,38,0,2
0,54,0,0
0,68,0,0
0,65,0,0
0,72,0,0
0,68,101,0
0,60,0,1
0,65,0,0
0,68,0,2
0,54,46,15
0,59,78,0
0,59,0,2
0,54,0,0
0,68,125,19
0,68,57,1
0,80,77,0
0,72,125,1
0,65,125,0
0,60,100,1
0,77,0,1
0,65,0,1
0,38,114,1
0,65,120,0
0,54,50,0
0,54,0,2
0,38,0,0
0,65,0,0
0,68,109,0
0,68,0,1
0,72,0,1
0,60,0,9
0,68,0,1
0,65,0,1
0,68,0,12
0,65,0,0
0,54,48,2
0,51,68,0
0,51,0,2
0,54,0,0
0,67,44,11
0,63,48,3
0,72,0,5
0,65,0,0
0,77,0,1
0,80,0,0
0,75,110,1
0,67,110,0
0,60,110,0
0,72,95,0
0,79,98,2
0,67,78,0
0,80,0,1
0,68,0,0
0,35,127,6
0,53,68,0
0,36,125,1
0,53,0,1
0,35,0,0
0,72,0,4
0,51,68,2
0,54,40,1
0,51,0,1
0,54,0,1
0,67,80,1
0,67,0,11
0,63,125,9
0,72,125,1
0,67,125,0
0,67,0,1
0,36,0,0
0,79,0,0
0,63,67,2
0,75,87,0
0,60,72,2
0,31,117,2
0,38,104,0
0,54,50,0
0,55,116,1
0,54,0,1
0,38,0,0
0,63,96,0
0,72,90,0
0,60,0,1
0,72,0,0
0,60,119,1
0,63,0,1
0,67,0,0
0,55,0,3
0,63,0,2
0,60,0,2
0,72,0,2
0,59,78,17
0,54,41,0
0,54,0,2
0,59,0,0
0,67,73,3
0,67,0,12
0,72,125,8
0,63,125,0
0,67,125,0
0,67,67,1
0,79,87,0
0,31,0,1
0,55,98,4
0,63,0,1
0,75,0,0
0,39,112,1
0,54,50,0
0,38,104,0
0,60,116,1
0,38,0,1
0,54,0,0
0,72,0,1
0,72,80,0
0,63,101,0
0,63,0,1
0,67,0,1
0,72,0,9
0,60,0,1
0,55,0,0
0,63,0,0
0,51,68,15
0,54,57,0
0,54,0,2
0,51,0,0
0,72,0,0
0,75,84,0
0,68,49,1
0,67,0,4
0,75,0,2
0,60,0,0
0,67,0,0
0,75,0,0
0,39,0,1
0,63,110,1
0,55,110,0
0,72,110,0
0,44,127,0
0,72,88,1
0,68,105,0
0,38,68,2
0,38,0,1
0,63,0,0
0,78,63,0
0,66,43,0
0,65,48,0
0,67,0,1
0,68,0,0
0,79,0,0
0,72,0,2
0,44,0,0
0,63,0,0
0,72,0,0
0,55,0,0
0,65,110,3
0,80,110,0
0,72,110,0
0,73,38,1
0,78,0,1
0,66,0,0
0,77,83,0
0,41,125,0
0,35,127,0
0,53,68,0
0,65,63,0
0,84,90,1
0,53,0,1
0,35,0,0
0,65,0,0
0,72,0,0
0,80,0,0
0,84,0,1
0,41,0,1
0,37,125,2
0,61,110,1
0,77,110,0
0,68,110,0
0,68,88,3
0,51,68,2
0,54,54,0
0,54,0,2
0,51,0,0
0,77,90,0
0,65,125,7
0,73,125,1
0,68,125,0
0,65,0,1
0,77,0,0
0,37,0,1
0,73,82,1
0,61,62,1
0,56,109,1
0,77,0,1
0,38,99,1
0,54,50,0
0,61,121,1
0,73,87,0
0,54,0,1
0,38,0,0
0,73,0,1
0,65,106,0
0,61,0,1
0,68,0,0
0,65,0,0
0,56,0,1
0,65,0,0
0,73,0,4
0,59,78,4
0,54,37,0
0,68,64,0
0,54,0,2
0,59,0,0
0,68,0,3
0,73,0,5
0,61,0,0
0,65,125,1
0,73,125,0
0,77,73,1
0,68,125,0
0,65,53,0
0,56,103,2
0,61,109,2
0,38,114,0
0,54,50,1
0,73,94,0
0,38,0,1
0,65,98,0
0,54,0,1
0,65,0,0
0,73,0,0
0,68,0,3
0,65,0,3
0,56,0,1
0,61,0,1
0,73,0,7
0,73,0,7
0,51,68,2
0,68,76,2
0,54,52,0
0,51,0,1
0,54,0,1
0,65,0,1
0,37,117,12
0,37,0,1
0,72,38,3
0,63,49,0
0,75,77,3
0,63,57,0
0,68,0,1
0,77,0,1
0,77,0,1
0,65,0,0
0,68,0,0
0,68,0,1
0,61,0,0
0,72,110,1
0,63,110,0
0,63,88,0
0,56,110,0
0,32,125,1
0,53,68,0
0,35,127,0
0,60,75,1
0,35,0,1
0,53,0,0
0,56,89,1
0,60,0,1
0,60,89,1
0,63,89,1
0,51,68,2
0,54,57,1
0,63,85,1
0,54,0,1
0,51,0,0
0,63,0,1
0,56,0,3
0,63,0,1
0,32,0,1
0,60,0,1
0,51,101,2
0,54,50,2
0,38,104,0
0,56,120,2
0,39,117,0
0,38,0,1
0,54,0,0
0,60,71,0
0,60,104,1
0,60,0,1
0,56,0,0
0,51,0,1
0,60,0,2
0,63,0,3
0,54,63,2
0,59,78,0
0,56,80,0
0,59,0,2
0,54,0,0
0,56,0,9
0,39,0,2
0,63,114,0
0,68,114,1
0,60,114,0
0,51,101,1
0,39,112,2
0,54,50,0
0,38,104,0
0,60,62,1
0,38,0,1
0,54,0,0
0,60,112,0
0,68,0,1
0,56,121,0
0,60,0,1
0,63,0,0
0,56,0,1
0,51,0,0
0,60,0,4
0,60,0,1
0,68,0,10
0,72,0,1
0,51,68,1
0,56,54,1
0,54,59,0
0,51,0,1
0,54,0,1
0,67,17,1
0,63,0,1
0,72,0,0
0,56,0,1
0,56,0,0
0,39,0,1
0,70,72,1
0,63,54,0
0,63,110,0
0,79,110,0
0,58,52,0
0,70,110,0
0,39,112,0
0,38,72,4
0,38,0,2
0,59,50,0
0,71,70,0
0,63,0,2
0,75,0,0
0,39,0,0
0,79,0,1
0,70,44,0
0,73,36,0
0,70,0,1
0,63,0,0
0,71,0,1
0,58,0,0
0,70,0,0
0,59,0,0
0,72,82,1
0,63,0,1
0,60,62,0
0,73,79,1
0,55,100,2
0,70,110,1
0,39,125,0
0,79,110,0
0,61,110,0
0,35,127,0
0,53,68,0
0,55,0,1
0,53,0,1
0,35,0,0
0,73,0,2
0,51,68,12
0,54,28,1
0,51,0,1
0,54,0,1
0,67,55,5
0,67,127,2
0,70,127,1
0,61,127,1
0,39,0,1
0,75,114,1
0,61,101,0
0,61,0,2
0,54,50,0
0,38,95,0
0,63,112,1
0,38,0,1
0,54,0,0
0,67,0,0
0,70,0,1
0,67,101,0
0,67,0,2
0,63,0,2
0,61,0,0
0,70,94,0
0,67,0,1
0,75,0,2
0,70,0,2
0,59,78,9
0,54,46,1
0,59,0,1
0,54,0,1
0,73,88,6
0,67,119,15
0,70,119,1
0,73,119,0
0,73,0,5
0,73,0,0
0,70,86,1
0,61,100,0
0,67,0,1
0,34,125,0
0,54,50,0
0,63,120,0
0,38,110,0
0,38,0,2
0,54,0,0
0,70,0,0
0,67,109,0
0,70,74,3
0,61,0,7
0,67,0,2
0,63,0,1
0,70,0,3
0,70,0,4
0,51,68,1
0,54,48,1
0,51,0,1
0,54,0,1
0,73,76,3
0,73,0,4
0,72,0,3
0,60,0,1
0,58,56,1
0,70,76,0
0,34,0,1
0,73,110,3
0,35,127,1
0,53,68,1
0,39,125,0
0,35,0,1
0,53,0,1
0,75,86,5
0,61,86,1
0,70,80,0
0,67,85,0
0,75,0,1
0,54,40,1
0,51,68,0
0,51,0,2
0,54,0,0
0,73,81,2
0,73,0,2
0,68,75,1
0,56,55,1
0,39,0,1
0,70,0,1
0,58,0,0
0,61,0,1
0,63,72,1
0,70,0,1
0,67,0,1
0,54,50,1
0,41,125,0
0,38,100,0
0,61,116,0
0,67,96,1
0,38,0,1
0,54,0,0
0,63,0,1
0,75,78,1
0,63,119,0
0,61,0,1
0,67,0,2
0,63,0,2
0,75,0,2
0,54,41,4
0,59,78,0
0,59,0,2
0,54,0,0
0,79,81,3
0,57,54,1
0,69,74,0
0,56,0,1
0,68,0,0
0,57,0,4
0,69,0,0
0,58,45,1
0,70,65,0
0,73,0,1
0,67,127,1
0,70,127,1
0,61,110,0
0,41,0,2
0,79,0,0
0,61,0,3
0,61,98,1
0,75,98,1
0,67,0,1
0,70,0,1
0,38,100,1
0,54,50,0
0,43,127,0
0,63,116,0
0,54,0,1
0,38,0,0
0,67,101,1
0,75,79,4
0,67,0,6
0,61,0,0
0,63,0,1
0,70,0,7
0,73,0,1
0,75,0,0
0,51,68,1
0,54,57,1
0,51,0,1
0,54,0,1
0,79,66,3
0,67,0,2
0,38,58,1
0,38,0,1
0,69,59,0
0,57,39,0
0,58,0,1
0,70,0,0
0,69,0,1
0,57,0,0
0,72,40,1
0,68,38,0
0,79,0,1
0,75,0,0
0,68,75,2
0,56,55,0
0,61,0,1
0,43,0,0
0,70,0,1
0,79,0,0
0,72,110,1
0,63,110,0
0,56,110,0
0,75,100,1
0,53,68,1
0,35,127,0
0,60,95,0
0,44,125,0
0,35,0,1
0,53,0,0
0,60,0,1
0,54,54,4
0,51,68,0
0,63,74,1
0,51,0,1
0,54,0,0
0,68,0,7
0,72,0,3
0,63,0,5
0,67,30,3
0,72,0,4
0,56,0,1
0,63,0,0
0,75,0,1
0,44,0,0
0,39,125,1
0,63,110,0
0,70,100,0
0,67,125,0
0,70,110,0
0,79,110,0
0,70,125,2
0,63,125,0
0,39,0,1
0,56,0,0
0,68,0,0
0,58,109,2
0,63,85,0
0,51,65,0
0,38,99,1
0,63,121,0
0,54,50,0
0,54,0,1
0,38,0,0
0,75,98,0
0,63,0,1
0,70,49,0
0,73,46,0
0,67,106,0
0,58,0,1
0,67,0,0
0,70,0,0
0,63,0,0
0,67,0,1
0,70,0,1
0,63,0,0
0,79,0,0
0,70,0,0
0,75,0,0
0,61,110,2
0,79,110,0
0,75,61,0
0,70,110,0
0,73,116,1
0,73,0,5
0,75,0,1
0,59,78,4
0,54,37,0
0,54,0,2
0,59,0,0
0,79,81,2
0,39,97,12
0,39,0,4
0,79,0,2
0,67,125,2
0,61,125,1
0,70,125,0
0,51,0,1
0,63,0,0
0,65,127,1
0,53,120,0
0,61,103,0
0,75,105,2
0,63,109,0
0,54,50,1
0,38,110,0
0,37,115,1
0,38,0,1
0,54,0,0
0,67,98,0
0,61,0,1
0,67,0,1
0,70,0,1
0,82,72,1
0,67,0,4
0,61,0,0
0,63,0,0
0,75,0,8
0,82,0,5
0,54,52,7
0,51,68,0
0,51,0,2
0,54,0,0
0,63,0,5
0,73,0,0
0,67,0,0
0,70,0,1
0,79,75,0
0,65,0,3
0,53,0,0
0,37,0,2
0,67,106,2
0,55,86,1
0,79,113,1
0,35,127,1
0,53,68,0
0,79,0,2
0,39,125,0
0,53,0,1
0,35,0,0
0,82,89,1
0,82,0,3
0,79,0,0
0,61,0,0
0,70,0,0
0,79,0,1
0,39,0,0
0,39,115,1
0,85,70,2
0,79,70,1
0,70,83,1
0,38,81,6
0,38,0,2
0,61,125,24
0,67,125,0
0,70,125,1
0,39,0,1
0,56,62,1
0,68,82,0
0,79,0,1
0,61,101,2
0,72,72,0
0,70,0,1
0,67,0,1
0,85,0,0
0,55,0,0
0,39,40,1
0,54,115,0
0,44,121,0
0,63,112,0
0,44,0,1
0,54,0,0
0,61,0,0
0,39,0,0
0,80,63,0
0,67,101,1
0,70,0,1
0,67,0,0
0,54,90,1
0,63,0,1
0,61,0,0
0,67,0,1
0,54,0,0
0,54,80,6
0,54,0,2
0,54,70,5
0,54,0,2
0,54,60,6
0,39,60,0
0,39,0,2
0,54,0,0
0,54,50,6
0,54,0,2
0,54,45,6
0,54,0,2
0,54,40,1
0,54,0,2
0,70,71,0
0,58,51,2
0,56,0,1
0,68,0,0
0,80,0,2
0,72,0,0
0,35,113,1
0,82,75,0
0,54,35,0
0,34,115,0
0,39,100,0
0,44,121,0
0,73,76,0
0,35,0,2
0,44,0,1
0,54,0,0
0,39,0,0
0,54,30,2
0,54,0,2
0,54,25,3
0,54,0,1
0,54,20,2
0,54,0,2
0,54,15,2
0,39,127,1
0,54,0,1
0,58,0,1
0,70,0,0
0,39,0,0
0,71,60,1
0,59,40,1
0,54,10,4
0,54,0,2
0,63,52,9
0,72,38,2
0,68,46,0
0,72,70,2
0,60,50,1
0,34,0,2
0,73,0,0
0,82,0,1
0,49,81,0
0,49,0,1
0,35,127,1
0,53,68,0
0,44,125,0
0,63,110,2
0,56,110,0
0,72,110,0
0,72,100,3
0,53,0,1
0,35,0,0
0,71,0,5
0,59,0,0
0,51,68,8
0,54,28,0
0,54,0,2
0,51,0,0
0,60,125,20
0,56,125,2
0,63,125,0
0,44,0,2
0,56,101,1
0,54,50,1
0,38,99,0
0,56,112,1
0,38,0,1
0,54,0,0
0,56,0,0
0,60,101,0
0,60,0,1
0,63,0,0
0,56,0,4
0,56,0,0
0,60,0,2
0,54,46,20
0,59,78,0
0,59,0,2
0,54,0,0
0,60,125,20
0,56,125,0
0,63,125,1
0,51,100,4
0,38,114,2
0,56,120,0
0,54,50,0
0,54,0,1
0,38,0,0
0,56,0,1
0,60,109,0
0,60,0,1
0,63,0,2
0,51,0,1
0,60,0,2
0,56,0,1
0,68,0,13
0,54,48,2
0,51,68,0
0,72,0,1
0,51,0,1
0,54,0,0
0,67,26,3
0,56,0,3
0,72,0,0
0,63,0,0
0,72,0,1
0,79,110,0
0,63,110,0
0,70,110,0
0,79,100,0
0,79,0,2
0,70,48,3
0,73,43,0
0,58,58,1
0,70,78,0
0,70,0,1
0,63,0,0
0,79,0,0
0,70,110,2
0,61,110,0
0,79,110,0
0,79,88,2
0,75,105,1
0,53,68,0
0,39,125,0
0,35,127,0
0,35,0,2
0,53,0,0
0,72,0,1
0,60,0,0
0,54,40,9
0,51,68,0
0,51,0,2
0,54,0,0
0,67,125,19
0,73,125,2
0,70,125,1
0,39,0,2
0,63,72,2
0,56,56,1
0,68,76,0
0,61,116,1
0,54,50,0
0,41,125,0
0,38,100,0
0,67,96,1
0,38,0,1
0,54,0,0
0,70,0,0
0,73,0,0
0,63,0,1
0,58,0,0
0,70,0,1
0,67,0,0
0,63,119,0
0,61,0,3
0,67,0,2
0,63,0,2
0,59,78,14
0,54,41,1
0,59,0,1
0,54,0,1
0,67,125,8
0,73,125,0
0,70,125,1
0,41,0,1
0,58,53,0
0,70,73,0
0,61,98,3
0,56,0,3
0,68,0,0
0,43,127,1
0,38,100,0
0,54,50,0
0,63,116,0
0,54,0,1
0,38,0,0
0,67,101,0
0,67,0,1
0,70,0,0
0,73,0,0
0,67,0,5
0,61,0,0
0,63,0,0
0,73,0,1
0,70,0,2
0,54,57,1
0,51,68,0
0,51,0,2
0,54,0,0
0,69,61,2
0,57,41,0
0,70,0,1
0,58,0,1
0,67,0,1
0,38,68,3
0,38,0,1
0,75,0,2
0,72,46,0
0,56,55,2
0,68,75,0
0,68,49,0
0,69,0,1
0,57,0,0
0,70,0,1
0,61,0,0
0,79,0,0
0,79,0,0
0,43,0,1
0,63,110,1
0,72,110,0
0,56,110,0
0,63,88,2
0,53,68,1
0,44,125,0
0,35,127,0
0,35,0,2
0,53,0,0
0,51,68,1
0,54,54,0
0,72,90,1
0,54,0,1
0,51,0,0
0,60,125,7
0,68,125,1
0,63,125,0
0,44,0,1
0,51,109,4
0,72,0,1
0,54,50,0
0,38,99,0
0,56,121,1
0,68,87,1
0,38,0,1
0,54,0,0
0,68,0,2
0,60,106,0
0,63,0,1
0,56,0,0
0,60,0,0
0,51,0,0
0,60,0,1
0,68,0,4
0,54,37,3
0,63,64,0
0,59,78,0
0,59,0,2
0,54,0,0
0,63,0,3
0,60,125,6
0,68,125,0
0,63,125,0
