track,note,velocity,time
0,62,74,1548
0,65,72,4
0,72,71,8
0,93,73,0
0,95,74,36
0,96,75,40
0,95,66,24
0,93,69,8
0,93,73,0
0,60,70,4
0,64,57,0
0,71,59,4
0,95,64,36
0,93,64,32
0,91,61,36
0,59,66,92
0,62,53,4
0,69,63,4
0,91,68,16
0,93,76,44
0,91,65,8
0,89,74,28
0,57,68,48
0,67,55,0
0,60,51,0
0,89,68,4
0,91,69,40
0,84,72,240
0,86,71,80
0,54,74,100
0,88,72,4
0,60,67,0
0,64,63,4
0,93,71,44
0,81,62,64
0,81,60,268
0,84,65,156
0,88,72,224
0,60,76,4
0,53,76,0
0,50,76,0
0,91,76,20
0,79,82,100
0,64,71,172
0,43,71,0
0,59,71,0
0,53,71,4
0,69,89,808
0,72,101,4
0,50,89,0
0,57,72,36
0,65,58,20
0,72,76,4
0,71,84,12
0,69,87,8
0,67,92,0
0,71,102,8
0,48,76,0
0,55,72,4
0,64,74,28
0,71,76,4
0,67,89,16
0,69,92,12
0,50,74,4
0,53,53,8
0,57,67,4
0,60,62,16
0,64,64,20
0,69,96,36
0,43,82,4
0,53,63,0
0,69,105,12
0,59,68,4
0,64,71,12
0,62,71,4
0,67,79,8
0,52,68,32
0,43,82,16
0,36,78,0
0,59,75,4
0,64,86,8
0,64,100,24
0,65,97,4
0,47,101,12
0,57,85,4
0,62,86,0
0,65,84,4
0,67,94,12
0,69,97,28
0,62,82,8
0,40,84,0
0,56,72,4
0,71,80,8
0,72,102,8
0,45,85,16
0,60,82,0
0,55,79,0
0,62,82,20
0,60,41,40
0,64,57,0
0,67,76,16
0,72,105,4
0,50,80,12
0,72,84,8
0,72,93,4
0,72,67,8
0,71,96,4
0,50,74,4
0,60,69,4
0,66,66,4
0,71,68,0
0,71,86,8
0,71,68,16
0,67,88,0
0,43,87,4
0,50,78,8
0,53,53,12
0,55,47,4
0,59,67,4
0,67,67,24
0,67,100,0
0,67,90,28
0,38,80,4
0,53,65,0
0,56,56,4
0,68,87,0
0,60,67,16
0,62,64,12
0,68,87,28
0,68,87,0
0,65,91,4
0,43,74,4
0,53,67,8
0,59,55,0
0,63,60,12
0,65,101,4
0,65,90,32
0,58,63,8
0,48,93,12
0,67,96,4
0,62,76,0
0,63,70,4
0,67,80,0
0,67,92,28
0,46,85,0
0,67,93,0
0,63,77,8
0,45,98,12
0,63,81,0
0,55,82,4
0,60,87,0
0,63,78,4
0,43,78,8
0,54,62,0
0,59,68,4
0,57,68,0
0,62,65,4
0,62,93,12
0,62,92,4
0,64,75,8
0,62,92,12
0,57,74,16
0,62,76,4
0,40,76,0
0,62,31,12
0,56,71,0
0,62,96,8
0,62,90,4
0,55,76,4
0,45,98,0
0,60,77,0
0,64,82,0
0,72,96,12
0,72,93,24
0,69,93,4
0,54,68,0
0,38,86,4
0,60,82,0
0,71,97,4
0,62,75,12
0,67,89,8
0,43,82,0
0,53,66,16
0,55,59,16
0,59,66,12
0,67,66,12
0,64,90,4
0,65,87,8
0,69,96,8
0,51,59,0
0,57,57,0
0,48,82,0
0,36,94,0
0,59,67,0
0,67,85,4
0,58,64,4
0,55,74,0
0,64,74,0
0,59,70,4
0,55,65,0
0,51,66,0
0,72,73,0
0,42,66,0
0,64,67,0
0,59,69,0
0,76,67,4
0,79,71,4
0,84,78,0
0,48,63,0
0,55,59,8
0,57,68,4
0,83,74,12
0,51,63,0
0,43,94,0
0,64,60,8
0,42,69,0
0,51,60,0
0,55,67,0
0,64,69,0
0,57,73,0
0,79,76,0
0,41,78,8
0,61,72,8
0,52,75,0
0,52,80,0
0,51,63,0
0,40,82,0
0,55,67,4
0,80,55,0
0,62,73,4
0,62,82,0
0,81,70,4
0,67,52,20
0,67,71,44
0,55,71,0
0,62,76,0
0,51,64,0
0,42,73,0
0,69,94,8
0,45,63,12
0,55,49,0
0,61,70,4
0,33,104,4
0,51,70,0
0,61,69,4
0,65,57,16
0,71,92,16
0,42,76,12
0,55,66,0
0,61,76,0
0,51,70,0
0,65,72,0
0,72,96,8
0,50,68,4
0,60,70,12
0,38,98,4
0,51,59,0
0,53,63,8
0,60,48,0
0,69,81,4
0,65,55,4
0,62,87,4
0,62,93,4
0,42,66,8
0,60,74,0
0,53,60,0
0,51,66,0
0,65,73,0
0,74,84,0
0,77,67,8
0,81,74,8
0,86,76,4
0,50,66,4
0,53,44,12
0,60,67,4
0,33,94,4
0,51,63,0
0,84,68,0
0,65,58,4
0,42,69,4
0,53,65,0
0,51,60,0
0,38,96,0
0,60,74,0
0,65,69,0
0,81,74,8
0,43,69,4
0,53,63,4
0,82,52,8
0,31,102,12
0,51,63,0
0,59,61,0
0,59,73,4
0,65,52,0
0,83,72,0
0,51,64,8
0,65,71,0
0,42,73,0
0,53,74,0
0,59,82,0
0,43,71,12
0,53,63,4
0,43,96,12
0,51,70,0
0,59,60,4
0,65,41,20
0,59,76,0
0,51,70,0
0,65,64,0
0,42,76,0
0,53,68,0
0,62,98,8
0,61,81,12
0,62,92,20
0,50,71,4
0,51,59,4
0,38,97,0
0,57,58,0
0,63,70,4
0,69,100,0
0,62,67,4
0,64,71,4
0,65,61,4
0,65,76,20
0,51,66,0
0,57,73,0
0,62,74,0
0,42,66,0
0,74,82,0
0,77,68,0
0,81,74,4
0,86,76,4
0,50,65,12
0,57,54,0
0,62,74,0
0,84,71,4
0,33,97,0
0,51,63,0
0,60,64,12
0,65,60,8
0,57,74,0
0,60,75,0
0,38,96,0
0,65,76,0
0,42,69,0
0,51,60,0
0,60,71,4
0,81,72,8
0,43,72,12
0,53,63,4
0,82,24,4
0,59,74,4
0,31,105,8
0,51,63,0
0,83,69,4
0,59,72,0
0,59,82,8
0,53,71,0
0,51,64,12
0,42,73,0
0,72,92,4
0,43,67,4
0,53,62,8
0,59,64,4
0,51,70,4
0,43,91,0
0,64,67,0
0,71,97,20
0,53,63,0
0,31,98,0
0,59,71,0
0,42,76,0
0,51,70,0
0,64,63,0
0,67,93,12
0,67,82,28
0,48,68,8
0,64,93,16
0,55,59,4
0,51,59,4
0,36,85,0
0,55,64,12
0,64,72,16
0,64,65,8
0,55,61,0
0,72,73,0
0,59,69,0
0,42,66,0
0,51,66,0
0,76,67,0
0,79,71,0
0,84,78,0
0,48,67,0
0,55,56,4
0,51,63,28
0,31,97,0
0,83,74,0
0,57,71,0
0,64,63,8
0,51,60,56
0,55,63,0
0,42,69,0
0,64,66,0
0,57,76,0
0,79,76,128
0,48,64,108
0,55,53,16
0,36,86,0
0,51,63,0
0,59,57,4
0,80,55,0
0,64,57,12
0,81,70,4
0,48,85,12
0,59,66,4
0,48,69,0
0,64,72,0
0,51,64,0
0,36,85,0
0,42,73,0
0,64,69,4
0,64,87,0
0,50,81,4
0,60,67,0
0,65,46,12
0,65,82,0
0,50,82,0
0,38,88,0
0,65,74,0
0,51,70,0
0,61,72,0
0,51,82,0
0,66,54,4
0,51,88,0
0,39,80,0
0,42,76,0
0,51,70,0
0,66,72,0
0,66,81,8
0,76,67,0
0,36,102,0
0,67,88,0
0,51,59,0
0,67,93,4
0,48,82,0
0,79,77,4
0,55,74,0
0,59,72,16
0,64,72,4
0,91,46,4
0,65,84,12
0,51,66,32
0,42,66,0
0,64,64,0
0,55,69,0
0,59,73,0
0,64,78,8
0,65,82,8
0,48,67,8
0,55,66,8
0,67,88,4
0,79,51,4
0,57,64,0
0,67,92,8
0,51,63,0
0,43,96,0
0,64,61,12
0,91,76,8
0,65,78,4
0,89,69,16
0,57,74,4
0,55,74,0
0,51,60,0
0,42,69,0
0,64,64,0
0,64,72,8
0,88,62,20
0,43,78,16
0,89,74,12
0,65,75,4
0,48,63,8
0,55,63,4
0,59,63,24
0,36,102,0
0,51,63,0
0,64,74,0
0,91,82,0
0,67,80,12
0,64,78,72
0,59,78,0
0,55,73,0
0,51,64,0
0,42,73,0
0,47,65,8
0,57,71,8
0,35,98,0
0,69,81,0
0,51,70,0
0,66,78,4
0,63,70,0
0,57,77,36
0,42,76,0
0,51,70,0
0,63,80,0
0,69,94,4
0,52,76,4
0,71,100,4
0,55,69,0
0,51,59,8
0,71,78,0
0,40,98,0
0,59,76,0
0,64,49,24
0,69,91,32
0,51,66,12
0,55,76,0
0,42,66,0
0,64,78,0
0,59,78,0
0,76,67,8
0,67,82,4
0,79,69,12
0,64,89,12
0,83,72,16
0,88,74,16
0,71,100,0
0,52,60,4
0,55,67,8
0,35,105,8
0,51,63,0
0,63,75,0
0,87,74,4
0,71,82,4
0,69,88,16
0,51,60,8
0,55,78,0
0,63,86,0
0,42,69,0
0,67,78,4
0,83,55,4
0,35,72,4
0,69,84,4
0,52,75,20
0,55,76,12
0,40,92,4
0,51,63,0
0,86,82,4
0,71,90,0
0,62,75,0
0,51,64,40
0,55,72,0
0,42,73,0
0,62,81,0
0,52,64,4
0,55,58,12
0,64,82,8
0,40,92,0
0,76,66,0
0,51,70,0
0,76,62,8
0,61,62,0
0,71,98,8
0,70,93,20
0,55,75,12
0,51,70,0
0,61,82,0
0,42,76,0
0,71,101,4
0,45,74,4
0,55,78,8
0,72,100,4
0,64,85,16
0,45,101,0
0,45,102,0
0,60,83,0
0,57,97,0
0,55,82,0
0,33,102,0
0,51,59,0
0,60,63,0
0,64,70,8
0,64,92,16
0,72,92,60
0,52,96,28
0,60,100,0
0,79,86,28
0,83,89,4
0,62,93,24
0,60,72,8
0,55,80,12
0,42,66,0
0,64,79,0
0,71,94,0
0,60,78,0
0,51,66,0
0,67,91,8
0,64,79,8
0,57,76,16
0,45,75,8
0,55,72,12
0,71,77,4
0,72,67,0
0,45,93,0
0,64,84,0
0,51,63,0
0,60,68,8
0,79,76,8
0,64,71,8
0,69,78,8
0,60,78,12
0,33,94,0
0,51,60,0
0,55,80,0
0,42,69,0
0,64,77,0
0,64,96,8
0,74,105,4
0,79,72,8
0,62,82,4
0,50,73,4
0,51,63,8
0,62,88,0
0,50,105,0
0,71,100,0
0,54,70,0
0,54,78,0
0,38,100,0
0,60,88,0
0,38,94,0
0,72,85,12
0,60,67,4
0,66,87,16
0,64,67,4
0,78,92,4
0,60,94,12
0,66,95,4
0,62,85,0
0,42,73,20
0,64,82,0
0,60,71,0
0,60,78,0
0,54,73,0
0,74,83,0
0,51,64,0
0,64,69,12
0,62,71,24
0,72,81,0
0,66,82,8
0,50,72,4
0,54,60,8
0,78,78,4
0,67,74,4
0,51,70,4
0,38,101,0
0,60,67,8
0,83,92,8
0,64,66,12
0,66,78,8
0,42,76,12
0,51,70,0
0,62,78,0
0,60,81,0
0,54,68,0
0,62,92,16
0,43,76,0
0,53,69,0
0,51,59,4
0,43,96,0
0,59,89,0
0,65,78,0
0,53,85,0
0,43,97,0
0,31,105,0
0,67,92,0
0,55,94,0
0,59,72,4
0,62,101,56
0,50,91,0
0,53,90,20
0,59,88,0
0,65,91,0
0,71,86,28
0,59,83,4
0,51,66,0
0,67,92,0
0,42,66,0
0,53,76,0
0,79,90,4
0,50,71,0
0,61,78,0
0,51,63,0
0,38,92,0
0,43,92,0
0,53,71,0
0,58,69,0
0,58,71,0
0,53,78,0
0,53,63,0
0,62,82,0
0,57,66,4
0,65,62,0
0,69,104,20
0,70,64,0
0,53,68,60
0,42,69,0
0,51,60,0
0,58,68,0
0,67,97,0
0,65,101,0
0,55,84,12
0,62,82,0
0,43,104,8
0,59,101,0
0,43,78,0
0,43,105,0
0,59,93,0
0,53,75,0
0,53,90,0
0,51,63,0
0,53,85,0
0,59,75,0
0,31,102,0
0,65,73,4
0,71,83,16
0,64,97,8
0,65,87,4
0,42,76,8
0,31,86,0
0,69,98,0
0,36,94,0
0,48,89,0
0,51,59,0
0,57,57,0
0,59,67,4
0,67,85,4
0,58,64,4
0,64,74,8
0,59,70,8
0,55,82,24
0,64,78,192
0,72,73,24
0,64,67,0
0,55,65,4
0,59,69,0
0,51,66,8
0,42,66,0
0,76,67,8
0,79,71,8
0,84,78,0
0,48,63,0
0,55,59,12
0,57,68,0
0,83,74,4
0,51,63,0
0,43,94,0
0,64,60,8
0,42,69,0
0,64,69,0
0,51,60,0
0,57,73,0
0,55,67,4
0,79,76,0
0,41,78,0
0,52,75,8
0,61,72,0
0,51,63,4
0,52,96,0
0,40,82,0
0,52,80,0
0,55,67,0
0,80,55,0
0,62,73,4
0,62,82,0
0,81,70,4
0,67,52,20
0,62,79,32
0,67,86,36
0,42,73,44
0,67,71,0
0,55,71,0
0,62,76,0
0,51,64,0
0,69,94,12
0,51,63,4
0,55,49,0
0,61,70,8
0,51,70,4
0,39,104,0
0,61,69,0
0,65,57,4
0,71,92,16
0,55,84,4
0,61,81,4
0,61,76,16
0,55,66,0
0,65,72,0
0,51,70,4
0,42,76,0
0,65,85,8
0,72,96,0
0,50,68,0
0,60,70,4
0,50,91,4
0,51,59,0
0,38,98,0
0,53,63,12
0,60,48,0
0,69,81,12
0,65,55,0
0,57,74,12
0,62,87,8
0,60,75,4
0,62,93,4
0,74,84,16
0,65,76,12
0,51,66,0
0,42,66,0
0,60,74,8
0,53,60,4
0,65,73,0
0,77,67,8
0,81,74,4
0,86,76,16
0,50,66,20
0,53,44,12
0,60,67,0
0,31,94,4
0,51,63,0
0,84,68,4
0,65,58,8
0,60,74,0
0,65,69,0
0,53,65,4
0,51,60,4
0,38,96,0
0,42,69,0
0,81,74,20
0,43,69,0
0,53,63,8
0,82,52,0
0,31,102,12
0,59,61,0
0,51,63,0
0,43,96,0
0,59,73,4
0,83,72,0
0,65,52,0
0,50,82,64
0,53,78,96
0,64,82,8
0,59,76,0
0,51,64,0
0,42,73,0
0,65,71,8
0,59,82,0
0,53,74,4
0,43,71,12
0,53,63,0
0,43,96,12
0,51,70,0
0,59,60,0
0,65,41,20
0,42,76,4
0,51,70,0
0,62,98,8
0,65,64,0
0,59,76,0
0,53,68,0
0,61,81,12
0,62,92,4
0,50,71,4
0,50,97,0
0,38,97,0
0,51,59,0
0,57,58,0
0,63,70,8
0,69,100,0
0,62,67,8
0,64,71,4
0,65,61,4
0,57,74,224
0,74,82,8
0,51,66,4
0,42,66,0
0,65,75,0
0,57,73,4
0,65,76,0
0,62,74,0
0,77,68,16
0,62,68,0
0,81,74,8
0,57,67,4
0,86,76,8
0,50,65,4
0,57,54,0
0,62,74,4
0,33,97,0
0,60,63,0
0,51,63,0
0,84,71,4
0,60,64,8
0,65,60,8
0,51,60,0
0,42,69,0
0,38,96,0
0,60,71,4
0,60,75,0
0,65,76,0
0,57,74,0
0,81,72,4
0,43,72,12
0,53,63,4
0,82,24,4
0,59,74,4
0,43,102,0
0,31,109,0
0,51,63,0
0,83,69,4
0,59,72,0
0,50,85,48
0,53,76,192
0,59,82,4
0,53,71,0
0,42,73,12
0,59,84,0
0,51,64,0
0,71,94,8
0,43,67,0
0,53,62,12
0,59,64,16
0,38,93,4
0,51,70,0
0,64,67,4
0,72,96,8
0,42,76,24
0,51,70,0
0,31,107,0
0,64,63,4
0,59,71,0
0,53,63,4
0,74,98,8
0,54,62,0
0,57,84,0
0,62,86,0
0,35,111,0
0,57,92,0
0,51,59,0
0,47,85,0
0,64,83,0
0,54,91,0
0,57,73,8
0,76,111,0
0,62,85,4
0,54,76,60
0,42,66,0
0,51,66,0
0,62,87,12
0,57,98,0
0,71,82,8
0,74,69,8
0,57,76,4
0,78,73,4
0,62,71,16
0,83,83,12
0,47,80,4
0,54,62,0
0,35,116,0
0,51,63,0
0,64,72,0
0,57,76,4
0,81,86,8
0,62,78,16
0,54,71,12
0,57,92,24
0,54,80,0
0,62,89,0
0,51,60,8
0,62,87,0
0,64,84,0
0,57,84,0
0,42,69,0
0,78,65,0
0,40,83,4
0,80,78,8
0,64,83,12
0,56,89,0
0,51,63,0
0,59,78,0
0,56,61,0
0,56,80,0
0,28,109,0
0,62,64,0
0,64,60,8
0,64,81,52
0,62,89,0
0,56,76,0
0,51,64,4
0,42,73,0
0,40,81,48
0,56,59,8
