track,note,velocity,time
1,54,30,28784
1,57,50,0
1,52,29,0
1,54,38,28
1,57,45,0
1,52,36,0
1,54,36,16
1,57,43,4
1,52,39,0
1,54,48,16
1,57,59,0
1,52,44,0
1,61,37,24
1,51,46,0
1,57,42,0
1,66,45,0
1,66,34,24
1,51,38,0
1,61,43,4
1,57,47,0
1,60,50,24
1,57,46,0
1,51,48,0
1,60,56,28
1,57,48,0
1,51,44,0
1,59,49,20
1,62,49,0
1,55,38,0
1,59,32,16
1,62,30,0
1,55,23,4
1,59,52,12
1,62,57,4
1,55,50,0
1,62,51,8
1,59,57,0
1,55,38,8
1,66,39,8
1,62,53,0
1,59,52,0
1,55,42,0
1,64,40,24
1,59,49,0
1,62,49,0
1,55,45,0
1,61,49,32
1,55,55,0
1,59,57,0
1,55,58,4
1,59,70,12
1,61,53,24
1,61,43,4
1,59,54,0
1,55,47,0
1,66,39,0
1,61,40,24
1,55,46,0
1,64,47,0
1,59,50,0
1,64,36,28
1,60,47,4
1,59,48,0
1,55,43,0
1,60,43,24
1,59,44,0
1,55,39,0
1,57,49,24
1,55,53,0
1,60,52,0
1,60,46,24
1,52,43,0
1,55,59,0
1,54,49,20
1,59,59,0
1,48,52,0
1,54,46,28
1,59,56,0
1,48,47,0
1,54,45,20
1,58,45,0
1,48,37,4
1,54,60,16
1,58,54,4
1,48,57,4
1,54,56,24
1,59,56,0
1,50,56,0
1,54,58,20
1,59,65,4
1,50,62,0
1,54,39,20
1,59,52,0
1,50,38,4
1,54,30,20
1,59,44,4
1,50,33,0
1,54,38,12
1,50,51,0
1,59,53,4
1,59,40,12
1,52,44,0
1,55,56,0
1,48,42,0
1,52,52,20
1,48,45,0
1,59,52,0
1,55,62,0
1,67,38,32
1,52,47,0
1,59,49,0
1,62,49,0
1,55,46,0
1,67,38,20
1,59,50,4
1,62,50,0
1,52,55,0
1,55,48,0
1,54,46,20
1,60,45,0
1,57,56,0
1,52,43,0
1,54,41,20
1,60,47,0
1,57,47,0
1,52,40,0
1,54,39,24
1,60,40,0
1,57,52,0
1,52,41,0
1,54,46,24
1,57,53,0
1,60,48,4
1,52,44,0
1,51,27,28
1,60,51,0
1,57,60,0
1,53,61,0
1,53,56,24
1,57,56,0
1,60,34,0
1,51,30,16
1,54,47,0
1,57,62,0
1,60,44,0
1,51,48,24
1,54,54,0
1,57,65,0
1,60,61,0
1,59,52,28
1,55,52,0
1,52,40,0
1,59,55,24
1,55,60,4
1,52,46,0
1,59,42,16
1,55,48,0
1,52,37,0
1,59,46,28
1,55,53,0
1,52,43,4
1,55,45,24
1,59,43,0
1,50,38,0
1,59,60,16
1,55,60,0
1,50,51,0
1,59,49,24
1,50,44,4
1,55,56,0
1,59,62,20
1,55,63,0
1,50,56,0
1,52,51,28
1,55,55,0
1,59,55,0
1,55,56,20
1,59,55,0
1,52,48,0
1,59,37,24
1,52,34,0
1,55,44,0
1,59,62,24
1,55,58,4
1,52,53,0
1,63,61,24
1,55,70,4
1,52,44,0
1,58,53,0
1,58,56,20
1,55,70,0
1,63,60,0
1,52,58,0
1,58,46,28
1,55,60,0
1,62,54,0
1,52,48,0
1,62,72,16
1,55,73,0
1,58,53,0
1,52,67,0
1,61,40,28
1,57,55,0
1,52,42,0
1,61,46,20
1,57,56,0
1,52,51,0
1,61,27,24
1,57,47,4
1,52,35,0
1,61,48,20
1,57,57,0
1,52,49,0
1,59,46,24
1,57,46,0
1,51,46,0
1,59,45,24
1,57,45,0
1,51,48,4
1,59,48,20
1,57,48,0
1,52,48,0
1,43,57,4
1,48,49,24
1,52,49,24
1,55,49,16
1,57,49,16
1,54,30,0
1,57,50,4
1,52,29,0
1,54,38,28
1,57,45,0
1,52,36,0
1,54,36,16
1,57,43,4
1,52,39,0
1,54,48,16
1,57,59,0
1,52,44,0
1,61,37,24
1,51,46,0
1,57,42,0
1,66,45,0
1,66,34,24
1,51,38,0
1,61,43,4
1,57,47,0
1,60,50,24
1,57,46,0
1,51,48,0
1,60,56,28
1,57,48,0
1,51,44,0
1,59,49,20
1,62,49,0
1,55,38,0
1,59,32,16
1,62,30,0
1,55,23,4
1,59,52,12
1,62,57,4
1,55,50,0
1,62,51,8
1,59,57,0
1,55,38,8
1,66,39,8
1,62,53,0
1,59,52,0
1,55,42,0
1,64,40,24
1,59,49,0
1,62,49,0
1,55,45,0
1,55,55,32
1,59,57,0
1,61,49,0
1,55,58,4
1,59,70,0
1,55,58,4
1,61,53,0
1,61,43,20
1,59,54,0
1,55,47,0
1,66,39,0
1,61,40,24
1,59,50,0
1,55,46,0
1,64,47,0
1,54,39,104
1,51,39,0
1,59,39,0
1,56,39,0
1,52,36,100
1,55,43,4
1,57,48,0
1,60,47,0
1,55,43,4
1,57,39,24
1,60,43,0
1,64,44,0
1,57,49,8
1,55,53,0
1,60,52,0
1,60,46,24
1,52,43,0
1,55,59,0
1,48,52,20
1,54,49,0
1,59,59,0
1,64,42,24
1,59,52,4
1,54,52,0
1,63,47,20
1,54,62,0
1,59,62,0
1,48,62,4
1,54,52,16
1,59,52,4
1,48,52,4
1,50,62,8
1,57,60,0
1,53,56,0
1,59,57,0
1,50,62,20
1,53,59,4
1,57,61,0
1,59,59,0
1,59,44,24
1,50,38,0
1,57,54,0
1,53,50,0
1,57,57,16
1,50,60,0
1,53,54,0
1,59,60,0
1,58,63,24
1,56,61,0
1,50,62,0
1,56,68,24
1,58,62,0
1,50,67,0
1,59,53,28
1,56,41,0
1,50,45,4
1,56,61,16
1,59,65,0
1,50,68,0
1,64,52,28
1,60,52,0
1,55,43,0
1,60,59,28
1,55,56,0
1,64,60,0
1,60,50,20
1,55,39,0
1,64,43,4
1,55,67,16
1,64,68,4
1,60,65,0
1,58,54,28
1,63,50,0
1,55,54,0
1,58,73,24
1,63,61,0
1,55,71,0
1,60,40,16
1,57,64,0
1,51,36,0
1,55,61,0
1,60,62,24
1,57,67,4
1,51,46,0
1,55,68,4
1,59,68,20
1,57,68,0
1,54,56,0
1,50,59,0
1,54,53,24
1,57,62,0
1,50,52,0
1,59,55,20
1,51,47,0
1,55,68,0
1,57,65,24
1,55,62,0
1,51,39,0
1,59,59,16
1,51,59,0
1,55,59,0
1,54,45,20
1,62,56,0
1,59,63,0
1,57,62,0
1,62,68,28
1,54,56,0
1,57,75,0
1,56,41,16
1,60,54,0
1,62,54,4
1,50,49,0
1,56,61,20
1,50,61,0
1,60,61,0
1,59,61,32
1,49,61,0
1,55,61,0
1,59,70,24
1,55,70,0
1,49,70,0
1,49,59,24
1,57,59,0
1,55,59,0
1,55,67,20
1,49,67,0
1,57,67,0
1,48,53,8
1,52,60,20
1,55,70,16
1,59,59,24
1,48,54,4
1,51,64,28
1,55,62,32
1,57,59,16
1,48,64,48
1,51,52,28
1,54,45,16
1,57,59,24
1,43,69,4680
1,50,72,96
1,54,56,116
1,57,65,124
1,59,69,164
1,64,69,184
2,42,77,28764
2,42,78,56
2,35,91,44
2,47,79,28
2,47,70,40
2,40,78,200
2,40,79,84
2,33,94,48
2,45,77,68
2,33,91,160
2,45,83,88
2,38,80,56
2,38,91,68
2,43,81,44
2,43,82,32
2,43,87,40
2,36,84,8
2,48,86,36
2,43,87,44
2,42,92,72
2,42,89,44
2,47,83,28
2,47,80,32
2,35,79,24
2,40,91,72
2,40,85,68
2,40,76,84
2,47,79,12
2,38,85,128
2,38,84,56
2,38,84,72
2,47,77,8
2,37,94,132
2,37,90,56
2,42,96,64
2,42,98,68
2,47,87,72
2,42,73,28
2,47,86,48
2,47,91,60
2,45,88,32
2,35,76,48
2,45,89,20
2,43,78,56
2,42,87,136
2,42,78,44
2,42,57,8
2,35,87,188
2,47,80,48
2,40,65,24
2,40,69,40
2,33,73,32
2,45,66,60
2,45,81,48
2,33,77,40
2,45,69,36
2,38,85,40
2,50,75,56
2,48,81,52
2,48,74,44
2,47,87,60
2,35,77,60
2,47,73,40
2,40,85,12
2,40,77,28
2,45,72,152
2,33,83,56
2,45,84,20
2,47,83,24
2,48,79,28
2,48,72,28
2,41,72,132
2,47,72,116
2,41,80,76
2,40,79,36
2,40,86,76
2,40,86,28
2,33,86,4
2,39,78,28
2,38,84,40
2,38,79,64
2,31,78,4708
3,55,68,1096
3,60,81,24
3,64,69,36
3,69,79,20
3,67,68,28
3,71,86,4
3,74,84,36
3,79,85,48
3,79,78,4
3,55,69,4
3,79,76,4
3,72,79,360
3,55,79,4
3,60,79,4
3,62,80,28
3,65,68,0
3,69,76,4
3,72,83,4
3,74,58,4
3,79,78,4
3,79,86,72
3,79,78,120
3,55,57,4
3,60,79,4
3,64,60,0
3,67,69,8
3,69,75,8
3,74,76,24
3,71,77,4
3,79,88,24
3,55,65,4
3,60,81,4
3,69,73,4
3,62,81,16
3,65,68,12
3,72,83,12
3,74,79,4
3,79,84,16
3,55,74,4
3,60,77,0
3,62,74,20
3,65,68,8
3,69,74,8
3,72,83,4
3,74,75,12
3,79,87,28
3,73,56,48
3,68,53,0
3,71,78,4
3,79,77,0
3,65,63,4
3,71,75,4
3,74,83,0
3,79,84,0
3,55,77,192
3,59,59,480
3,62,62,0
3,64,63,0
3,67,63,0
3,49,66,4
3,55,83,28
3,64,69,20
3,59,70,0
3,71,84,36
3,76,79,32
3,66,67,4
3,64,71,0
3,57,67,8
3,57,67,84
3,57,70,4
3,47,77,0
3,62,72,20
3,66,70,28
3,69,78,16
3,74,78,28
3,69,63,4
3,52,77,0
3,57,78,0
3,66,59,0
3,73,69,0
3,74,72,0
3,62,73,4
3,52,77,4
3,74,72,4
3,71,75,0
3,66,57,0
3,68,72,0
3,56,60,4
3,52,48,0
3,45,76,76
3,52,63,56
3,59,67,16
3,55,72,0
3,62,86,0
3,64,75,24
3,69,86,16
3,64,81,4
3,71,96,184
3,78,81,196
3,76,75,36
3,66,66,0
3,55,79,4
3,61,71,0
3,71,82,4
3,45,54,204
3,88,81,192
3,58,76,12
3,62,76,0
3,57,76,0
3,65,76,0
3,53,76,0
3,43,76,0
3,61,74,0
3,55,74,4
3,45,74,0
3,65,74,0
3,58,74,0
3,62,81,84
3,50,77,0
3,57,77,0
3,65,74,16
3,48,75,12
3,47,80,240
3,65,75,0
3,62,85,0
3,57,72,0
3,40,62,768
3,50,63,0
3,67,73,0
3,70,51,0
3,56,52,4
3,62,71,4
3,45,84,56
3,55,64,16
3,59,62,32
3,60,71,12
3,64,85,16
3,71,82,24
3,69,56,32
3,38,81,308
3,55,82,0
3,50,75,0
3,67,86,0
3,64,81,0
3,60,88,0
3,66,67,4
3,63,70,0
3,57,69,0
3,48,76,0
3,60,79,0
3,47,79,68
3,66,74,0
3,62,82,0
3,57,74,0
3,40,60,4
3,59,65,0
3,62,73,0
3,52,56,0
3,67,51,0
3,55,62,0
3,78,47,272
3,83,62,32
3,86,71,40
3,45,79,12
3,55,61,0
3,60,77,0
3,64,67,0
3,64,67,4
3,60,73,0
3,55,59,0
3,38,86,0
3,54,59,8
3,67,62,16
3,43,62,4
3,53,62,4
3,55,62,0
3,60,62,0
3,62,62,4
3,67,72,4
3,74,73,76
3,79,81,76
3,84,74,92
3,59,75,0
3,64,78,12
3,71,65,16
3,69,58,8
3,74,77,12
3,78,63,4
3,83,79,20
3,78,58,416
3,81,73,80
3,85,69,40
3,88,84,24
3,92,83,16
3,95,88,24
3,92,62,8
3,88,75,428
3,85,71,8
3,81,68,20
3,92,80,16
3,95,94,0
3,92,65,4
3,74,79,1344
3,78,67,0
3,81,81,0
3,85,78,24
3,88,83,12
3,91,85,8
3,97,80,40
3,93,81,56
3,88,75,32
3,81,55,1448
3,84,81,8
3,91,93,12
3,83,92,16
3,84,60,4
3,83,72,36
3,81,77,4
3,71,86,1792
3,74,101,196
3,78,98,16
3,81,94,0
3,85,92,196
3,88,87,20
3,91,81,12
3,95,91,16
3,90,83,12
3,86,81,4
3,81,78,8
3,76,67,16
3,71,50,840
3,72,72,40
3,76,70,28
3,71,70,24
3,72,70,24
3,76,65,24
3,71,65,24
3,72,67,40
3,76,64,20
3,71,65,20
3,72,70,32
3,76,56,12
3,71,60,24
3,72,67,48
3,76,70,16
3,72,60,124
3,69,62,472
3,71,64,32
3,72,69,28
3,74,69,8
3,75,67,12
3,76,68,28
3,77,63,0
3,78,61,40
3,90,66,2920
3,88,74,8
3,90,87,32
3,83,77,44
3,83,69,36
3,76,81,152
3,71,70,4
3,64,60,24
3,73,46,2648
3,74,81,12
3,73,42,1004
3,76,58,96
3,80,63,8
3,81,64,8
3,85,73,24
3,88,85,28
3,92,88,40
3,88,87,48
3,85,67,52
3,80,74,28
3,76,72,24
3,80,69,0
3,73,56,76
3,73,60,112
3,95,74,14676
3,88,81,4
3,94,95,20
3,87,74,60
3,93,84,28
3,86,77,12
3,92,85,20
3,85,72,48
3,91,90,24
3,84,78,8
3,90,84,16
3,83,82,12
3,89,84,0
3,82,71,28
3,88,81,28
3,81,59,20
3,68,69,2272
3,69,81,12
3,78,76,8
3,70,78,32
3,79,90,20
3,71,81,0
3,80,85,8
3,72,85,0
3,81,84,4
3,73,71,0
3,74,67,28
3,78,78,32
3,81,93,28
3,85,98,52
3,86,79,44
3,90,77,80
3,93,89,48
3,96,88,36
3,97,86,0
3,98,90,20
3,99,91,0
3,100,85,12
3,103,93,8
3,79,86,408
3,93,86,32
3,90,92,60
3,85,90,12
3,79,79,16
3,88,75,88
3,84,64,28
3,83,66,16
3,82,73,4
3,79,65,32
3,75,75,24
3,74,77,36
3,73,60,44
3,82,74,156
3,79,64,88
4,67,76,3988
4,67,86,8
4,67,68,4
4,67,63,4
4,60,72,40
4,67,76,36
4,67,67,44
4,67,46,4
4,67,69,484
4,67,92,4
4,72,90,4
4,71,89,4
4,67,82,4
4,64,60,4
4,64,81,876
4,64,65,24
4,64,81,24
4,64,83,44
4,57,76,204
4,64,83,88
4,64,86,12
4,62,79,20
4,64,80,236
4,64,83,4
4,69,82,192
4,68,84,4
4,64,73,216
4,69,83,52
4,69,69,892
4,70,85,8
4,70,88,100
4,67,83,4
4,67,73,44
4,69,71,4
4,70,77,20
4,69,83,96
4,69,71,4
4,57,66,364
4,67,83,12
4,67,76,4
4,65,64,4
4,64,61,4
4,65,67,0
4,64,61,8
4,64,79,484
4,62,81,4
4,72,83,4
4,71,75,52
4,69,71,12
4,62,82,20
4,71,71,192
4,67,69,8
4,59,65,48
4,60,77,4
4,69,67,192
4,67,61,76
4,62,51,4
4,67,59,4
4,59,55,32
4,64,62,116
4,66,67,0
4,67,73,0
4,71,65,4
4,61,69,0
4,66,77,1440
4,63,71,36
4,60,67,32
4,59,50,16
4,59,52,984
4,64,82,0
4,66,84,12
4,67,97,192
4,71,91,180
4,64,74,4
4,69,83,1840
4,66,74,336
4,62,73,0
4,71,90,16
4,72,97,1500
4,71,76,0
4,69,69,12
4,69,69,92
4,69,71,16
4,60,74,320
4,59,62,16
4,69,78,160
4,67,67,8
4,71,83,1844
4,69,90,412
4,67,83,296
4,59,72,144
4,67,83,12
4,59,81,88
4,58,61,0
4,67,83,340
4,66,76,4
4,59,56,1092
4,59,86,16
4,64,74,0
4,66,91,0
4,67,83,44
4,71,82,24
4,61,73,24
4,66,78,920
4,63,70,4
4,60,83,120
4,59,83,12
4,59,60,1820
4,64,94,152
4,66,92,4
4,67,83,436
4,71,90,0
4,64,83,0
4,72,98,804
4,69,98,260
4,66,82,392
4,74,97,4
4,76,103,944
4,74,97,644
4,72,91,632
4,71,90,140
4,72,89,12
4,64,78,140
4,72,87,140
4,74,98,756
4,72,91,516
4,71,97,0
4,69,83,0
4,71,89,8
4,71,83,8
4,71,84,8
4,72,88,1212
4,71,82,0
4,69,81,4
4,68,84,124
4,69,81,8
4,61,73,104
4,69,77,88
4,60,68,736
4,71,101,20
4,69,73,8
4,67,91,12
4,66,70,0
4,67,70,40
5,66,40,28704
5,66,42,4
5,66,48,4
5,66,44,24
5,64,42,16
5,76,60,1532
5,75,51,772
5,74,54,736
5,62,52,1124
