track,note,velocity,time
1,55,100,0
1,55,100,0
1,55,100,704
1,55,100,0
1,55,100,704
1,55,100,0
1,58,100,704
1,55,100,128
1,58,100,128
1,55,100,128
1,55,100,128
1,55,100,0
1,55,100,704
1,55,100,0
1,55,100,704
1,55,100,0
1,55,100,704
1,58,100,128
1,55,100,128
1,55,100,0
1,58,100,128
1,55,100,128
1,55,100,704
1,55,100,704
1,58,100,704
1,55,100,128
1,58,100,128
1,55,100,224
1,55,100,32
1,55,100,704
1,55,100,704
1,58,100,704
1,55,100,128
1,58,100,128
1,55,100,128
1,55,100,128
1,55,100,0
1,55,100,704
1,55,100,0
1,55,100,704
1,55,100,0
1,58,100,704
1,55,100,128
1,58,100,128
1,55,100,128
1,55,100,128
1,55,100,0
1,55,100,704
1,55,100,0
1,55,100,704
1,55,100,0
1,58,100,704
1,55,100,128
1,58,100,128
1,55,100,128
1,55,100,128
1,55,100,0
1,55,100,704
1,55,100,0
1,55,100,704
1,55,100,0
1,58,100,704
1,55,100,128
1,58,100,128
1,55,100,128
1,55,100,128
1,55,100,0
1,55,100,704
1,55,100,0
1,55,100,704
1,55,100,0
1,58,100,704
1,55,100,128
1,58,100,128
1,55,100,128
1,55,100,128
1,55,100,0
1,55,100,704
1,55,100,0
1,55,100,704
1,55,100,0
1,58,100,704
1,55,100,128
1,58,100,128
1,55,100,128
1,55,100,128
1,55,100,0
1,55,100,704
1,55,100,0
1,55,100,704
1,55,100,0
1,58,100,704
1,55,100,128
1,58,100,128
1,55,100,128
1,55,100,128
1,55,100,0
1,55,100,704
1,55,100,0
1,55,100,704
1,55,100,0
1,58,100,704
1,55,100,128
1,58,100,128
1,55,100,128
1,55,100,128
1,55,100,0
1,55,100,704
1,55,100,0
1,55,100,704
1,55,100,0
1,58,100,704
1,55,100,128
1,58,100,128
1,55,100,128
1,55,100,128
1,55,100,0
1,55,100,704
1,55,100,0
1,55,100,704
1,55,100,0
1,58,100,704
1,55,100,128
1,58,100,128
1,55,100,128
1,55,100,128
1,55,100,0
1,55,100,704
1,55,100,0
1,55,100,704
1,55,100,0
1,58,100,704
1,55,100,128
1,58,100,128
1,55,100,128
1,55,100,128
1,55,100,0
1,55,100,704
1,55,100,0
1,55,100,704
1,55,100,0
1,58,100,704
1,55,100,128
1,58,100,128
1,55,100,128
1,55,100,128
1,55,100,0
1,55,100,704
1,55,100,0
1,55,100,704
1,55,100,0
1,58,100,704
1,55,100,128
1,58,100,128
1,55,100,128
1,55,100,128
1,55,100,0
1,55,100,704
1,55,100,0
1,55,100,704
1,55,100,0
1,58,100,704
1,55,100,128
1,58,100,128
1,55,100,128
1,55,100,128
1,55,100,0
1,55,100,704
1,55,100,0
1,55,100,704
1,55,100,0
1,58,100,704
1,55,100,128
1,58,100,128
1,55,100,128
1,55,100,128
1,55,100,0
1,55,100,704
1,55,100,0
1,55,100,704
1,55,100,0
1,58,100,704
1,55,100,128
1,58,100,128
1,55,100,128
1,55,100,128
1,55,100,0
1,55,100,704
1,55,100,0
1,55,100,704
1,55,100,0
1,58,100,704
1,55,100,128
1,58,100,128
1,55,100,128
1,55,100,128
1,55,100,0
1,55,100,704
1,55,100,0
1,55,100,704
1,55,100,0
1,58,100,704
1,55,100,128
1,58,100,128
1,55,100,128
1,55,100,128
1,55,100,0
1,55,100,704
1,55,100,0
1,55,100,704
1,55,100,0
1,58,100,704
1,55,100,128
1,58,100,128
1,55,100,128
1,55,100,128
1,55,100,0
1,55,100,704
1,55,100,0
1,55,100,704
1,55,100,0
1,58,100,704
1,55,100,128
1,58,100,128
1,55,100,128
1,55,100,128
1,55,100,0
1,55,100,704
1,55,100,0
1,55,100,704
1,55,100,0
1,58,100,704
1,55,100,128
1,58,100,128
1,55,100,128
1,55,100,128
1,55,100,0
1,55,100,704
1,55,100,0
1,55,100,704
1,55,100,0
1,58,100,704
1,55,100,128
1,58,100,128
1,55,100,128
1,55,100,128
1,55,100,0
1,55,100,704
1,55,100,0
1,55,100,704
1,55,100,0
1,58,100,704
1,55,100,128
1,58,100,128
1,55,100,128
1,55,100,128
1,55,100,0
1,55,100,704
1,55,100,0
1,55,100,704
1,55,100,0
1,58,100,704
1,55,100,128
1,58,100,128
1,55,100,128
1,55,100,128
1,55,100,0
1,55,100,704
1,55,100,0
1,55,100,704
1,55,100,0
1,58,100,704
1,55,100,128
1,58,100,128
1,55,100,128
1,55,100,128
1,55,100,0
1,55,100,704
1,55,100,0
1,55,100,704
1,55,100,0
1,58,100,704
1,55,100,128
1,58,100,128
1,55,100,128
1,55,100,128
1,55,100,0
1,55,100,704
1,55,100,0
1,55,100,704
1,55,100,0
1,58,100,704
1,55,100,128
1,58,100,128
1,55,100,128
1,55,100,128
1,55,100,0
1,55,100,704
1,55,100,0
1,55,100,704
1,55,100,0
1,58,100,704
1,55,100,128
1,58,100,128
1,55,100,128
1,55,100,128
1,55,100,0
1,55,100,704
1,55,100,0
1,55,100,704
1,55,100,0
1,58,100,704
1,55,100,128
1,58,100,128
1,55,100,128
1,55,100,128
1,55,100,0
1,55,100,704
1,55,100,0
1,55,100,704
1,55,100,0
1,58,100,704
1,55,100,128
1,58,100,128
1,55,100,128
1,55,100,128
1,55,100,0
1,55,100,704
1,55,100,0
1,55,100,704
1,55,100,0
1,58,100,704
1,55,100,128
1,58,100,128
1,55,100,128
1,55,100,128
1,55,100,0
1,55,100,704
1,55,100,0
1,55,100,704
1,55,100,0
1,58,100,704
1,55,100,128
1,58,100,128
1,55,100,128
1,55,100,128
1,55,100,0
1,55,100,704
1,55,100,0
1,55,100,704
1,55,100,0
1,58,100,704
1,55,100,128
1,58,100,128
1,55,100,128
1,55,100,128
1,55,100,0
1,55,100,704
1,55,100,0
1,55,100,704
1,55,100,0
1,58,100,704
1,55,100,128
1,58,100,128
1,55,100,128
1,55,100,128
1,55,100,0
1,55,100,704
1,55,100,0
1,55,100,704
1,55,100,0
1,58,100,704
1,55,100,128
1,58,100,128
1,55,100,128
1,55,100,128
1,55,100,0
1,55,100,704
1,55,100,0
1,55,100,704
1,55,100,0
1,58,100,704
1,55,100,128
1,58,100,128
1,55,100,128
1,55,100,128
1,55,100,0
1,55,100,704
1,55,100,0
1,55,100,704
1,55,100,0
1,58,100,704
1,55,100,128
1,58,100,128
1,55,100,128
1,55,100,128
1,55,100,0
1,55,100,704
1,55,100,0
1,55,100,704
1,55,100,0
1,58,100,704
1,55,100,128
1,58,100,128
1,55,100,128
1,55,100,128
1,55,100,0
1,55,100,704
1,55,100,0
1,55,100,704
1,55,100,0
1,58,100,704
1,55,100,128
1,58,100,128
1,55,100,128
1,55,100,128
1,55,100,0
1,55,100,704
1,55,100,0
1,55,100,704
1,55,100,0
1,58,100,704
1,55,100,128
1,58,100,128
1,55,100,128
1,55,100,128
1,55,100,0
1,55,100,704
1,55,100,0
1,55,100,704
1,55,100,0
1,58,100,704
1,55,100,128
1,58,100,128
1,55,100,128
1,55,100,128
1,55,100,0
1,55,100,704
1,55,100,0
1,55,100,704
1,55,100,0
1,58,100,704
1,55,100,128
1,58,100,128
1,55,100,128
1,55,100,128
1,55,100,0
1,55,100,704
1,55,100,0
1,55,100,704
1,55,100,0
1,58,100,704
1,55,100,128
1,58,100,128
1,55,100,128
1,55,100,128
1,55,100,0
1,55,100,704
1,55,100,0
1,55,100,704
1,55,100,0
1,58,100,704
1,55,100,128
1,58,100,128
1,55,100,128
1,55,100,128
1,55,100,0
1,55,100,704
1,55,100,0
1,55,100,704
1,55,100,0
1,58,100,704
1,55,100,128
1,58,100,128
1,55,100,128
1,55,100,128
1,55,100,0
1,55,100,704
1,55,100,0
1,55,100,704
1,55,100,0
1,58,100,704
1,55,100,128
1,58,100,128
1,55,100,128
1,55,100,128
1,55,100,0
1,55,100,704
1,55,100,0
1,55,100,704
1,55,100,0
1,58,100,704
1,55,100,128
1,58,100,128
1,55,100,128
1,55,100,128
1,55,100,0
1,55,100,704
1,55,100,0
1,55,100,704
1,55,100,0
1,58,100,704
1,55,100,128
1,58,100,128
1,55,100,128
1,55,100,128
1,55,100,0
1,55,100,704
1,55,100,0
1,55,100,704
1,55,100,0
1,58,100,704
1,55,100,128
1,58,100,128
1,55,100,128
1,55,100,128
1,55,100,0
1,55,100,704
1,55,100,0
1,55,100,704
1,55,100,0
1,58,100,704
1,55,100,128
1,58,100,128
1,55,100,128
1,55,100,128
1,55,100,0
1,55,100,704
1,55,100,0
1,55,100,704
1,55,100,0
1,58,100,704
1,55,100,128
1,58,100,128
1,55,100,128
1,55,100,128
1,55,100,0
1,55,100,704
1,55,100,0
1,55,100,704
1,55,100,0
1,58,100,704
1,55,100,128
1,58,100,128
1,55,100,128
1,55,100,128
1,55,100,0
1,55,100,704
1,55,100,0
1,55,100,704
1,55,100,0
1,58,100,704
1,55,100,128
1,58,100,128
1,55,100,128
1,55,100,128
1,55,100,0
1,55,100,704
1,55,100,0
1,55,100,704
1,55,100,0
1,58,100,704
1,55,100,128
1,58,100,128
1,55,100,128
1,55,100,128
1,55,100,0
1,55,100,704
1,55,100,0
1,55,100,704
1,55,100,0
1,58,100,704
1,55,100,128
1,58,100,128
1,55,100,128
1,55,100,128
1,55,100,0
1,55,100,704
1,55,100,0
1,55,100,704
1,55,100,0
1,58,100,704
1,55,100,128
1,58,100,128
1,55,100,128
1,55,100,128
1,55,100,0
1,55,100,704
1,55,100,0
1,55,100,704
1,55,100,0
1,58,100,704
1,55,100,128
1,58,100,128
1,55,100,128
1,55,100,128
1,55,100,0
1,55,100,704
1,55,100,0
1,55,100,704
1,55,100,0
1,55,100,704
1,58,100,128
1,55,100,128
1,58,100,128
1,55,100,128
2,79,100,192
2,67,100,0
2,82,100,32
2,70,100,0
2,81,100,32
2,69,100,0
2,82,100,32
2,70,100,0
2,79,100,32
2,67,100,0
2,79,100,256
2,67,100,0
2,82,100,32
2,70,100,0
2,81,100,32
2,69,100,0
2,82,100,32
2,70,100,0
2,79,100,32
2,67,100,0
2,79,100,256
2,67,100,0
2,82,100,32
2,70,100,0
2,81,100,32
2,69,100,0
2,82,100,32
2,70,100,0
2,79,100,32
2,67,100,0
2,79,100,1024
2,67,100,0
2,82,100,32
2,70,100,0
2,81,100,32
2,69,100,0
2,82,100,32
2,70,100,0
2,79,100,32
2,67,100,0
2,79,100,256
2,67,100,0
2,82,100,32
2,70,100,0
2,81,100,32
2,69,100,0
2,82,100,32
2,70,100,0
2,79,100,32
2,67,100,0
2,79,100,256
2,67,100,0
2,82,100,32
2,70,100,0
2,81,100,32
2,69,100,0
2,82,100,32
2,70,100,0
2,79,100,32
2,67,100,0
2,79,100,1024
2,67,100,0
2,82,100,32
2,70,100,0
2,81,100,32
2,69,100,0
2,82,100,32
2,70,100,0
2,79,100,32
2,67,100,0
2,79,100,256
2,67,100,0
2,82,100,32
2,70,100,0
2,81,100,32
2,69,100,0
2,82,100,32
2,70,100,0
2,79,100,32
2,67,100,0
2,79,100,256
2,67,100,0
2,82,100,32
2,70,100,0
2,81,100,32
2,69,100,0
2,82,100,32
2,70,100,0
2,79,100,32
2,67,100,0
2,79,100,1024
2,67,100,0
2,82,100,32
2,70,100,0
2,81,100,32
2,69,100,0
2,82,100,32
2,70,100,0
2,79,100,32
2,67,100,0
2,79,100,256
2,67,100,0
2,82,100,32
2,70,100,0
2,81,100,32
2,69,100,0
2,82,100,32
2,70,100,0
2,79,100,32
2,67,100,0
2,79,100,256
2,67,100,0
2,82,100,32
2,70,100,0
2,81,100,32
2,69,100,0
2,82,100,32
2,70,100,0
2,79,100,32
2,67,100,0
2,79,100,1024
2,67,100,0
2,82,100,32
2,70,100,0
2,81,100,32
2,69,100,0
2,82,100,32
2,70,100,0
2,79,100,32
2,67,100,0
2,79,100,256
2,67,100,0
2,82,100,32
2,70,100,0
2,81,100,32
2,69,100,0
2,82,100,32
2,70,100,0
2,79,100,32
2,67,100,0
2,79,100,256
2,67,100,0
2,82,100,32
2,70,100,0
2,81,100,32
2,69,100,0
2,82,100,32
2,70,100,0
2,79,100,32
2,67,100,0
2,79,100,1024
2,67,100,0
2,82,100,32
2,70,100,0
2,81,100,32
2,69,100,0
2,82,100,32
2,70,100,0
2,79,100,32
2,67,100,0
2,79,100,256
2,67,100,0
2,82,100,32
2,70,100,0
2,81,100,32
2,69,100,0
2,82,100,32
2,70,100,0
2,79,100,32
2,67,100,0
2,79,100,256
2,67,100,0
2,82,100,32
2,70,100,0
2,81,100,32
2,69,100,0
2,82,100,32
2,70,100,0
2,79,100,32
2,67,100,0
2,79,100,1024
2,67,100,0
2,82,100,32
2,70,100,0
2,81,100,32
2,69,100,0
2,82,100,32
2,70,100,0
2,79,100,32
2,67,100,0
2,79,100,256
2,67,100,0
2,82,100,32
2,70,100,0
2,81,100,32
2,69,100,0
2,82,100,32
2,70,100,0
2,79,100,32
2,67,100,0
2,79,100,256
2,67,100,0
2,82,100,32
2,70,100,0
2,81,100,32
2,69,100,0
2,82,100,32
2,70,100,0
2,79,100,32
2,67,100,0
2,79,100,1024
2,67,100,0
2,82,100,32
2,70,100,0
2,81,100,32
2,69,100,0
2,82,100,32
2,70,100,0
2,79,100,32
2,67,100,0
2,79,100,256
2,67,100,0
2,82,100,32
2,70,100,0
2,81,100,32
2,69,100,0
2,82,100,32
2,70,100,0
2,79,100,32
2,67,100,0
2,79,100,256
2,67,100,0
2,82,100,32
2,70,100,0
2,81,100,32
2,69,100,0
2,82,100,32
2,70,100,0
2,79,100,32
2,67,100,0
2,79,100,1024
2,67,100,0
2,82,100,32
2,70,100,0
2,81,100,32
2,69,100,0
2,82,100,32
2,70,100,0
2,79,100,32
2,67,100,0
2,79,100,256
2,67,100,0
2,82,100,32
2,70,100,0
2,81,100,32
2,69,100,0
2,82,100,32
2,70,100,0
2,79,100,32
2,67,100,0
2,79,100,256
2,67,100,0
2,82,100,32
2,70,100,0
2,81,100,32
2,69,100,0
2,82,100,32
2,70,100,0
2,79,100,32
2,67,100,0
2,79,100,1024
2,67,100,0
2,82,100,32
2,70,100,0
2,81,100,32
2,69,100,0
2,82,100,32
2,70,100,0
2,79,100,32
2,67,100,0
2,79,100,256
2,67,100,0
2,82,100,32
2,70,100,0
2,81,100,32
2,69,100,0
2,82,100,32
2,70,100,0
2,79,100,32
2,67,100,0
2,79,100,256
2,67,100,0
2,82,100,32
2,70,100,0
2,81,100,32
2,69,100,0
2,82,100,32
2,70,100,0
2,79,100,32
2,67,100,0
2,79,100,1024
2,67,100,0
2,82,100,32
2,70,100,0
2,81,100,32
2,69,100,0
2,82,100,32
2,70,100,0
2,79,100,32
2,67,100,0
2,79,100,256
2,67,100,0
2,82,100,32
2,70,100,0
2,81,100,32
2,69,100,0
2,82,100,32
2,70,100,0
2,79,100,32
2,67,100,0
2,79,100,256
2,67,100,0
2,82,100,32
2,70,100,0
2,81,100,32
2,69,100,0
2,82,100,32
2,70,100,0
2,79,100,32
2,67,100,0
2,79,100,1024
2,67,100,0
2,82,100,32
2,70,100,0
2,81,100,32
2,69,100,0
2,82,100,32
2,70,100,0
2,79,100,32
2,67,100,0
2,79,100,256
2,67,100,0
2,82,100,32
2,70,100,0
2,81,100,32
2,69,100,0
2,82,100,32
2,70,100,0
2,79,100,32
2,67,100,0
2,79,100,256
2,67,100,0
2,82,100,32
2,70,100,0
2,81,100,32
2,69,100,0
2,82,100,32
2,70,100,0
2,79,100,32
2,67,100,0
2,79,100,1024
2,67,100,0
2,79,100,0
2,67,100,0
2,82,100,32
2,70,100,0
2,82,100,0
2,70,100,0
2,81,100,32
2,69,100,0
2,81,100,0
2,69,100,0
2,82,100,32
2,70,100,0
2,82,100,0
2,70,100,0
2,79,100,32
2,67,100,0
2,79,100,0
2,67,100,0
2,79,100,256
2,67,100,0
2,79,100,0
2,67,100,0
2,82,100,32
2,70,100,0
2,82,100,0
2,70,100,0
2,81,100,32
2,69,100,0
2,81,100,0
2,69,100,0
2,82,100,32
2,70,100,0
