track,note,velocity,time
1,36,127,6144
1,36,127,336
1,41,127,96
1,41,127,336
1,43,127,96
1,43,127,336
1,41,127,96
1,38,127,96
1,36,127,144
1,36,127,336
1,41,127,96
1,41,127,336
1,43,127,96
1,43,127,336
1,41,127,96
1,38,127,96
1,36,127,144
1,36,127,336
1,41,127,96
1,41,127,336
1,43,127,96
1,43,127,336
1,41,127,96
1,38,127,96
1,36,127,144
1,36,127,336
1,41,127,96
1,41,127,336
1,43,127,96
1,43,127,336
1,41,127,96
1,38,127,96
1,36,127,144
1,36,127,336
1,41,127,96
1,41,127,336
1,43,127,96
1,43,127,336
1,41,127,96
1,38,127,96
1,36,127,144
1,36,127,336
1,41,127,96
1,41,127,336
1,43,127,96
1,43,127,336
1,41,127,96
1,38,127,96
1,36,127,144
1,36,127,336
1,41,127,96
1,41,127,336
1,43,127,96
1,43,127,336
1,41,127,96
1,38,127,96
1,36,127,144
1,36,127,336
1,41,127,96
1,41,127,336
1,43,127,96
1,43,127,336
1,41,127,96
1,38,127,96
1,36,127,144
1,36,127,336
1,41,127,96
1,41,127,336
1,43,127,96
1,43,127,336
1,41,127,96
1,38,127,96
1,36,127,144
1,36,127,336
1,41,127,96
1,41,127,336
1,43,127,96
1,43,127,336
1,41,127,96
1,38,127,96
1,36,127,144
1,36,127,336
1,41,127,96
1,41,127,336
1,43,127,96
1,43,127,336
1,41,127,96
1,38,127,96
1,36,127,144
1,36,127,336
1,41,127,96
1,41,127,336
1,43,127,96
1,43,127,68
1,43,127,68
1,43,127,68
1,43,127,68
1,43,127,68
1,43,127,68
1,43,127,68
1,36,127,68
1,36,127,336
1,41,127,96
1,41,127,336
1,43,127,96
1,43,127,336
1,41,127,96
1,38,127,96
1,36,127,144
1,36,127,336
1,41,127,96
1,41,127,336
1,43,127,96
1,43,127,336
1,41,127,96
1,38,127,96
1,36,127,144
1,36,127,336
1,41,127,96
1,41,127,336
1,43,127,96
1,43,127,336
1,41,127,96
1,38,127,96
1,36,127,144
1,36,127,336
1,41,127,96
1,41,127,336
1,43,127,96
1,43,127,336
1,41,127,96
1,38,127,96
1,36,127,144
1,36,127,336
1,41,127,96
1,41,127,336
1,43,127,96
1,43,127,336
1,41,127,96
1,38,127,96
1,36,127,144
1,36,127,336
1,41,127,96
1,41,127,336
1,43,127,96
1,43,127,336
1,41,127,96
1,38,127,96
1,36,127,144
1,36,127,336
1,41,127,96
1,41,127,336
1,43,127,96
1,43,127,336
1,41,127,96
1,38,127,96
1,36,127,144
1,36,127,336
1,41,127,96
1,41,127,336
1,43,127,96
1,43,127,336
1,41,127,96
1,38,127,96
1,36,127,144
1,36,127,336
1,41,127,96
1,41,127,336
1,43,127,96
1,43,127,336
1,41,127,96
1,38,127,96
1,36,127,144
1,36,127,336
1,41,127,96
1,41,127,336
1,43,127,96
1,43,127,336
1,41,127,96
1,38,127,96
1,36,127,144
1,36,127,336
1,41,127,96
1,41,127,336
1,43,127,96
1,43,127,336
1,41,127,96
1,38,127,96
1,36,127,144
1,36,127,336
1,41,127,96
1,41,127,336
1,43,127,96
1,43,127,336
1,41,127,96
1,38,127,96
1,36,127,144
1,36,127,336
1,41,127,96
1,41,127,336
1,43,127,96
1,43,127,336
1,41,127,96
1,38,127,96
1,36,127,144
1,36,127,336
1,41,127,96
1,41,127,336
1,43,127,96
1,43,127,336
1,41,127,96
1,38,127,96
1,36,127,144
1,36,127,336
1,41,127,96
1,41,127,336
1,43,127,96
1,43,127,336
1,41,127,96
1,38,127,96
1,36,127,144
1,36,127,336
1,41,127,96
1,41,127,336
1,43,127,96
1,43,127,68
1,43,127,68
1,43,127,68
1,43,127,68
1,43,127,68
1,43,127,68
1,43,127,68
1,36,127,68
1,36,127,336
1,41,127,96
1,41,127,336
1,43,127,96
1,43,127,336
1,41,127,96
1,38,127,96
1,36,127,144
1,36,127,336
1,41,127,96
1,41,127,336
1,43,127,96
1,43,127,336
1,41,127,96
1,38,127,96
1,36,127,144
1,36,127,336
1,41,127,96
1,41,127,336
1,43,127,96
1,43,127,336
1,41,127,96
1,38,127,96
1,36,127,144
1,36,127,336
1,41,127,96
1,41,127,336
1,43,127,96
1,43,127,68
1,43,127,68
1,43,127,68
1,43,127,68
1,43,127,68
1,43,127,68
1,43,127,68
1,36,127,68
1,36,127,336
1,41,127,96
1,41,127,336
1,43,127,96
1,43,127,336
1,41,127,96
1,38,127,96
1,36,127,144
1,36,127,336
1,41,127,96
1,41,127,336
1,43,127,96
1,43,127,336
1,41,127,96
1,38,127,96
1,36,127,144
1,36,127,336
1,41,127,96
1,41,127,336
1,43,127,96
1,43,127,336
1,41,127,96
1,38,127,96
1,36,127,144
1,36,127,336
1,41,127,96
1,41,127,336
1,43,127,96
1,43,127,336
1,41,127,96
1,38,127,96
1,36,127,144
1,36,127,336
1,41,127,96
1,41,127,336
1,43,127,96
1,43,127,336
1,41,127,96
1,38,127,96
1,36,127,144
1,36,127,336
1,41,127,96
1,41,127,336
1,43,127,96
1,43,127,68
1,43,127,68
1,43,127,68
1,41,127,68
1,38,127,96
1,36,127,144
2,36,127,0
2,36,124,16
2,36,127,112
2,36,127,0
2,36,124,16
2,36,127,112
2,36,127,0
2,36,124,16
2,36,127,112
2,36,127,0
2,36,124,16
2,36,127,112
3,64,87,9408
3,67,87,0
3,72,87,0
3,64,87,112
3,67,87,0
3,72,87,0
3,65,87,512
3,69,87,0
3,72,87,0
3,65,87,112
3,69,87,0
3,72,87,0
3,67,87,512
3,71,87,0
3,74,87,0
3,67,87,112
3,71,87,0
3,74,87,0
3,65,87,512
3,69,87,0
3,72,87,0
3,65,87,112
3,69,87,0
3,72,87,0
3,64,87,3584
3,67,87,0
3,72,87,0
3,64,87,112
3,67,87,0
3,72,87,0
3,65,87,496
3,69,87,0
3,72,87,0
3,65,87,112
3,69,87,0
3,72,87,0
3,67,87,496
3,71,87,0
3,74,87,0
3,67,87,112
3,71,87,0
3,74,87,0
3,65,87,496
3,69,87,0
3,72,87,0
3,65,87,112
3,69,87,0
3,72,87,0
3,64,87,28144
3,67,87,0
3,72,87,0
3,64,87,112
3,67,87,0
3,72,87,0
3,65,87,496
3,69,87,0
3,72,87,0
3,65,87,112
3,69,87,0
3,72,87,0
3,67,87,496
3,71,87,0
3,74,87,0
3,67,87,112
3,71,87,0
3,74,87,0
3,65,87,496
3,69,87,0
3,72,87,0
3,65,87,112
3,69,87,0
3,72,87,0
3,64,87,3568
3,67,87,0
3,72,87,0
3,64,87,112
3,67,87,0
3,72,87,0
3,65,87,496
3,69,87,0
3,72,87,0
3,65,87,112
3,69,87,0
3,72,87,0
3,67,87,496
3,71,87,0
3,74,87,0
3,67,87,112
3,71,87,0
3,74,87,0
3,65,87,496
3,69,87,0
3,72,87,0
3,65,87,112
3,69,87,0
3,72,87,0
3,64,87,52720
3,67,87,0
3,72,87,0
3,64,87,112
3,67,87,0
3,72,87,0
3,65,87,496
3,69,87,0
3,72,87,0
3,65,87,112
3,69,87,0
3,72,87,0
3,67,87,496
3,71,87,0
3,74,87,0
3,67,87,112
3,71,87,0
3,74,87,0
3,65,87,496
3,69,87,0
3,72,87,0
3,65,87,112
3,69,87,0
3,72,87,0
3,64,87,3568
3,67,87,0
3,72,87,0
3,64,87,112
3,67,87,0
3,72,87,0
3,65,87,496
3,69,87,0
3,72,87,0
3,65,87,112
3,69,87,0
3,72,87,0
3,67,87,496
3,71,87,0
3,74,87,0
3,67,87,112
3,71,87,0
3,74,87,0
3,65,87,496
3,69,87,0
3,72,87,0
3,65,87,112
3,69,87,0
3,72,87,0
3,64,87,3568
3,67,87,0
3,72,87,0
3,64,87,112
3,67,87,0
3,72,87,0
3,65,87,496
3,69,87,0
3,72,87,0
3,65,87,112
3,69,87,0
3,72,87,0
3,67,87,304
3,71,87,0
3,74,87,0
3,67,67,112
3,71,67,0
3,74,67,0
3,67,87,112
3,71,87,0
3,74,87,0
3,67,67,112
3,71,67,0
3,74,67,0
3,67,87,112
3,71,87,0
3,74,87,0
3,67,67,112
3,71,67,0
3,74,67,0
3,67,87,112
3,71,87,0
3,74,87,0
3,67,67,112
3,71,67,0
3,74,67,0
3,64,87,0
3,67,87,0
3,72,87,0
4,64,87,0
4,67,87,0
4,72,87,0
4,65,87,688
4,69,87,0
4,72,87,0
4,67,87,688
4,71,87,0
4,74,87,0
4,65,87,688
4,69,87,0
4,72,87,0
4,64,87,688
4,67,87,0
4,72,87,0
4,65,87,688
4,69,87,0
4,72,87,0
4,67,87,688
4,71,87,0
4,74,87,0
4,65,87,688
4,69,87,0
4,72,87,0
4,64,87,688
4,67,87,0
4,72,87,0
4,65,87,688
4,69,87,0
4,72,87,0
4,67,87,688
4,71,87,0
4,74,87,0
4,65,87,688
4,69,87,0
4,72,87,0
4,64,87,688
4,67,87,0
4,72,87,0
4,65,87,688
4,69,87,0
4,72,87,0
4,67,87,688
4,71,87,0
4,74,87,0
4,65,87,688
4,69,87,0
4,72,87,0
4,64,87,688
4,67,87,0
4,72,87,0
4,65,87,688
4,69,87,0
4,72,87,0
4,67,87,688
4,71,87,0
4,74,87,0
4,65,87,688
4,69,87,0
4,72,87,0
4,64,87,688
4,67,87,0
4,72,87,0
4,65,87,688
4,69,87,0
4,72,87,0
4,67,87,688
4,71,87,0
4,74,87,0
4,65,87,688
4,69,87,0
4,72,87,0
4,64,87,688
4,67,87,0
4,72,87,0
4,65,87,688
4,69,87,0
4,72,87,0
4,67,87,688
4,71,87,0
4,74,87,0
4,65,87,688
4,69,87,0
4,72,87,0
4,64,87,688
4,67,87,0
4,72,87,0
4,65,87,688
4,69,87,0
4,72,87,0
4,67,87,688
4,71,87,0
4,74,87,0
4,65,87,688
4,69,87,0
4,72,87,0
4,64,87,688
4,67,87,0
4,72,87,0
4,65,87,688
4,69,87,0
4,72,87,0
4,67,87,688
4,71,87,0
4,74,87,0
4,65,87,688
4,69,87,0
4,72,87,0
4,64,87,688
4,67,87,0
4,72,87,0
4,65,87,688
4,69,87,0
4,72,87,0
4,67,87,688
4,71,87,0
4,74,87,0
4,65,87,688
4,69,87,0
4,72,87,0
4,64,87,688
4,67,87,0
4,72,87,0
4,65,87,688
4,69,87,0
4,72,87,0
4,67,87,688
4,71,87,0
4,74,87,0
4,65,87,688
4,69,87,0
4,72,87,0
4,64,87,688
4,67,87,0
4,72,87,0
4,65,87,688
4,69,87,0
4,72,87,0
4,67,87,304
4,71,87,0
4,74,87,0
4,67,67,112
4,71,67,0
4,74,67,0
4,67,87,112
4,71,87,0
4,74,87,0
4,67,67,112
4,71,67,0
4,74,67,0
4,67,87,112
4,71,87,0
4,74,87,0
4,67,67,112
4,71,67,0
4,74,67,0
4,67,87,112
4,71,87,0
4,74,87,0
4,67,67,112
4,71,67,0
4,74,67,0
4,64,87,496
4,67,87,0
4,72,87,0
4,65,87,688
4,69,87,0
4,72,87,0
4,67,87,688
4,71,87,0
4,74,87,0
4,65,87,688
4,69,87,0
4,72,87,0
4,64,87,688
4,67,87,0
4,72,87,0
4,65,87,688
4,69,87,0
4,72,87,0
4,67,87,688
4,71,87,0
4,74,87,0
4,65,87,688
4,69,87,0
4,72,87,0
4,64,87,688
4,67,87,0
4,72,87,0
4,65,87,688
4,69,87,0
4,72,87,0
4,67,87,688
4,71,87,0
4,74,87,0
4,65,87,688
4,69,87,0
4,72,87,0
4,64,87,688
4,67,87,0
4,72,87,0
4,65,87,688
4,69,87,0
4,72,87,0
4,67,87,688
4,71,87,0
4,74,87,0
4,65,87,688
4,69,87,0
4,72,87,0
4,64,87,688
4,67,87,0
4,72,87,0
4,65,87,688
4,69,87,0
4,72,87,0
4,67,87,688
4,71,87,0
4,74,87,0
4,65,87,688
4,69,87,0
4,72,87,0
4,64,87,688
4,67,87,0
4,72,87,0
4,65,87,688
4,69,87,0
4,72,87,0
4,67,87,688
4,71,87,0
4,74,87,0
4,65,87,688
4,69,87,0
4,72,87,0
4,64,87,688
4,67,87,0
4,72,87,0
4,65,87,688
4,69,87,0
4,72,87,0
4,67,87,688
4,71,87,0
4,74,87,0
4,65,87,688
4,69,87,0
4,72,87,0
4,64,87,688
4,67,87,0
4,72,87,0
4,65,87,688
4,69,87,0
4,72,87,0
4,67,87,688
4,71,87,0
4,74,87,0
4,65,87,688
4,69,87,0
4,72,87,0
4,64,87,688
4,67,87,0
4,72,87,0
4,65,87,688
4,69,87,0
4,72,87,0
4,67,87,688
4,71,87,0
4,74,87,0
4,65,87,688
4,69,87,0
4,72,87,0
4,64,87,688
4,67,87,0
4,72,87,0
4,65,87,688
4,69,87,0
4,72,87,0
4,67,87,688
4,71,87,0
4,74,87,0
4,65,87,688
4,69,87,0
4,72,87,0
4,64,87,688
4,67,87,0
4,72,87,0
4,65,87,688
4,69,87,0
4,72,87,0
4,67,87,688
4,71,87,0
4,74,87,0
4,65,87,688
4,69,87,0
4,72,87,0
4,64,87,688
4,67,87,0
4,72,87,0
4,65,87,688
4,69,87,0
4,72,87,0
4,67,87,688
4,71,87,0
4,74,87,0
4,65,87,688
4,69,87,0
4,72,87,0
4,64,87,688
4,67,87,0
4,72,87,0
4,65,87,688
4,69,87,0
4,72,87,0
4,67,87,688
4,71,87,0
4,74,87,0
4,65,87,688
4,69,87,0
4,72,87,0
4,64,87,688
4,67,87,0
4,72,87,0
4,65,87,688
4,69,87,0
4,72,87,0
4,67,87,688
4,71,87,0
4,74,87,0
4,65,87,688
4,69,87,0
4,72,87,0
4,64,87,688
4,67,87,0
4,72,87,0
4,65,87,688
4,69,87,0
4,72,87,0
4,67,87,688
4,71,87,0
4,74,87,0
4,65,87,688
4,69,87,0
4,72,87,0
4,64,87,688
4,67,87,0
4,72,87,0
4,65,87,688
4,69,87,0
4,72,87,0
4,67,87,304
4,71,87,0
4,74,87,0
4,67,67,112
4,71,67,0
4,74,67,0
4,67,87,112
4,71,87,0
4,74,87,0
4,67,67,112
4,71,67,0
4,74,67,0
4,67,87,112
4,71,87,0
4,74,87,0
4,67,67,112
4,71,67,0
4,74,67,0
4,67,87,112
4,71,87,0
4,74,87,0
4,67,67,112
4,71,67,0
4,74,67,0
4,64,87,496
4,67,87,0
4,72,87,0
4,65,87,688
4,69,87,0
4,72,87,0
4,67,87,688
4,71,87,0
4,74,87,0
4,65,87,688
4,69,87,0
4,72,87,0
4,64,87,688
4,67,87,0
4,72,87,0
4,65,87,688
4,69,87,0
4,72,87,0
4,67,87,688
4,71,87,0
4,74,87,0
4,65,87,688
4,69,87,0
4,72,87,0
4,64,87,688
4,67,87,0
4,72,87,0
4,65,87,688
4,69,87,0
4,72,87,0
4,67,87,688
4,71,87,0
4,74,87,0
4,65,87,688
4,69,87,0
4,72,87,0
4,64,87,688
4,67,87,0
4,72,87,0
4,65,87,688
4,69,87,0
4,72,87,0
4,67,87,304
4,71,87,0
4,74,87,0
4,67,67,112
4,71,67,0
4,74,67,0
4,67,87,112
4,71,87,0
4,74,87,0
4,67,67,112
4,71,67,0
4,74,67,0
4,67,87,112
4,71,87,0
4,74,87,0
4,67,67,112
4,71,67,0
4,74,67,0
4,67,87,112
4,71,87,0
4,74,87,0
4,67,67,112
4,71,67,0
4,74,67,0
4,64,87,496
4,67,87,0
4,72,87,0
4,65,87,688
4,69,87,0
4,72,87,0
4,67,87,688
4,71,87,0
4,74,87,0
4,65,87,688
4,69,87,0
4,72,87,0
4,64,87,688
4,67,87,0
4,72,87,0
4,65,87,688
4,69,87,0
4,72,87,0
4,67,87,688
4,71,87,0
4,74,87,0
4,65,87,688
4,69,87,0
4,72,87,0
4,64,87,688
4,67,87,0
4,72,87,0
4,65,87,688
4,69,87,0
4,72,87,0
4,67,87,688
4,71,87,0
4,74,87,0
4,65,87,688
4,69,87,0
4,72,87,0
4,64,87,688
4,67,87,0
4,72,87,0
4,65,87,688
4,69,87,0
4,72,87,0
4,67,87,688
4,71,87,0
4,74,87,0
4,65,87,688
4,69,87,0
4,72,87,0
