track,note,velocity,time
0,71,80,585
0,71,82,2
0,71,86,2
0,71,92,3
0,71,84,2
0,71,90,2
0,71,80,3
0,71,80,2
0,71,80,2
0,71,80,3
0,71,82,2
0,71,84,2
0,73,90,2
0,71,80,2
0,69,82,2
0,52,60,2
0,68,84,0
0,68,60,3
0,59,60,0
0,68,88,0
0,64,60,0
0,66,96,3
0,47,60,0
0,66,60,3
0,66,94,0
0,57,60,0
0,63,60,0
0,64,60,3
0,64,60,0
0,64,88,0
0,56,60,0
0,52,60,48
0,52,60,3
0,71,98,3
0,71,96,2
0,71,92,2
0,71,84,3
0,76,88,2
0,71,98,2
0,71,98,3
0,71,98,2
0,71,98,2
0,71,96,3
0,76,92,2
0,71,84,2
0,73,88,3
0,71,98,2
0,54,60,2
0,69,98,0
0,69,96,3
0,61,60,0
0,66,60,0
0,69,60,0
0,49,60,3
0,68,94,0
0,65,60,3
0,68,60,0
0,68,88,0
0,59,60,0
0,66,60,3
0,66,60,0
0,57,60,0
0,66,96,0
0,54,60,48
0,54,60,3
0,66,92,3
0,68,86,2
0,51,60,2
0,59,60,0
0,66,60,0
0,69,94,0
0,69,60,0
0,61,60,2
0,59,60,2
0,69,88,0
0,61,60,2
0,59,60,2
0,69,96,0
0,47,60,0
0,61,60,2
0,69,94,2
0,59,60,0
0,61,60,2
0,52,60,2
0,68,60,0
0,64,60,0
0,59,60,0
0,68,90,0
0,61,60,2
0,59,60,2
0,71,82,0
0,61,60,2
0,59,60,2
0,47,60,0
0,61,60,2
0,66,84,2
0,59,60,0
0,68,88,2
0,61,60,0
0,69,98,2
0,51,60,0
0,69,60,0
0,66,60,0
0,59,60,0
0,61,60,2
0,59,60,2
0,69,98,0
0,61,60,2
0,47,60,2
0,59,60,0
0,69,98,0
0,61,60,2
0,69,98,2
0,59,60,0
0,61,60,2
0,68,60,2
0,52,60,0
0,68,96,0
0,64,60,0
0,59,60,0
0,61,60,2
0,71,92,2
0,59,60,0
0,61,60,2
0,59,60,2
0,64,82,3
0,66,86,2
0,59,60,2
0,68,60,0
0,68,96,0
0,64,60,0
0,52,60,0
0,68,90,3
0,69,82,2
0,68,60,2
0,71,86,0
0,52,60,0
0,64,60,0
0,71,60,0
0,73,94,3
0,75,88,2
0,76,60,2
0,76,96,0
0,71,60,0
0,68,60,0
0,52,60,0
0,76,94,3
0,78,90,2
0,80,80,2
0,76,60,0
0,80,60,0
0,76,80,3
0,71,80,2
0,59,60,2
0,68,80,0
0,64,60,0
0,47,60,0
0,68,60,0
0,68,80,3
0,68,60,0
0,64,60,0
0,59,60,0
0,66,80,3
0,63,60,0
0,66,60,0
0,47,60,0
0,59,60,0
0,63,60,3
0,59,60,0
0,66,60,0
0,71,82,0
0,68,60,3
0,59,60,0
0,64,60,0
0,68,86,0
0,52,60,48
0,52,60,3
0,64,60,3
0,64,92,0
0,66,84,2
0,66,60,0
0,64,60,2
0,52,60,0
0,68,90,0
0,68,60,0
0,64,60,0
0,64,60,3
0,68,80,0
0,68,60,0
0,69,60,2
0,66,60,0
0,69,82,0
0,64,60,2
0,68,60,0
0,52,60,0
0,71,60,0
0,71,86,0
0,73,60,3
0,73,92,0
0,69,60,0
0,75,84,2
0,75,60,0
0,66,60,0
0,76,88,2
0,64,60,0
0,52,60,0
0,68,60,0
0,76,60,0
0,76,60,3
0,76,98,0
0,68,60,0
0,78,60,2
0,78,98,0
0,69,60,0
0,71,60,2
0,80,94,0
0,80,60,0
0,76,90,2
0,71,82,2
0,68,86,2
0,47,60,2
0,68,60,0
0,64,60,0
0,64,92,0
0,59,60,0
0,64,84,3
0,59,60,0
0,68,60,0
0,64,60,0
0,47,60,3
0,63,60,0
0,66,88,0
0,66,60,0
0,59,60,0
0,57,60,0
0,66,98,3
0,63,60,0
0,59,60,0
0,66,60,0
0,57,60,0
0,56,100,3
0,40,64,0
0,64,96,0
0,52,90,0
0,52,100,0
0,64,100,0
0,64,90,0
0,64,100,0
0,40,74,3
0,40,90,3
0,52,100,3
0,59,100,0
0,76,100,0
0,68,100,0
0,64,100,0
0,64,100,0
0,52,100,3
0,64,100,3
0,52,100,0
0,68,100,0
0,59,100,0
0,76,100,0
0,69,100,3
0,63,100,0
0,40,64,0
0,59,100,0
0,52,100,0
0,66,100,0
0,78,90,0
0,80,90,2
0,40,74,3
0,81,90,2
0,40,90,3
0,59,100,3
0,66,100,0
0,81,90,0
0,69,100,0
0,63,100,0
0,52,100,0
0,52,100,3
0,80,90,3
0,52,100,0
0,66,100,0
0,59,100,0
0,69,100,0
0,63,100,0
0,78,90,2
0,52,100,2
0,78,90,0
0,59,100,0
0,40,64,0
0,64,100,0
0,71,100,0
0,40,74,3
0,76,90,2
0,40,90,3
0,76,90,3
0,64,100,0
0,71,100,0
0,59,100,0
0,52,100,0
0,52,100,3
0,75,90,3
0,64,100,0
0,71,100,0
0,52,100,0
0,59,100,0
0,73,90,2
0,63,100,2
0,59,90,0
0,52,90,0
0,52,100,0
0,66,100,0
0,59,100,0
0,57,100,0
0,40,64,0
0,71,90,0
0,40,74,3
0,73,90,4
0,40,90,3
0,59,100,3
0,52,90,0
0,63,100,0
0,57,100,0
0,75,90,0
0,52,100,0
0,59,90,0
0,66,100,0
0,76,90,4
0,52,90,3
0,78,90,0
0,40,64,0
0,59,90,0
0,52,100,0
0,40,74,3
0,80,90,4
0,40,90,3
0,52,90,3
0,59,90,0
0,66,100,0
0,57,100,0
0,59,100,0
0,52,100,0
0,63,100,0
0,78,90,0
0,80,90,4
0,52,100,3
0,76,90,0
0,64,90,0
0,59,100,0
0,64,100,0
0,56,100,0
0,52,90,0
0,40,64,0
0,40,74,3
0,40,90,3
0,52,100,3
0,76,90,0
0,64,90,0
0,68,100,0
0,64,100,0
0,59,100,0
0,52,100,3
0,59,100,3
0,76,90,0
0,52,100,0
0,64,100,0
0,68,100,0
0,63,100,3
0,40,64,0
0,69,100,0
0,52,100,0
0,78,90,0
0,59,100,0
0,66,100,0
0,80,90,1
0,40,74,3
0,81,90,1
0,40,90,3
0,52,100,3
0,69,100,0
0,59,100,0
0,81,90,0
0,66,100,0
0,63,100,0
0,52,100,3
0,59,100,3
0,80,90,0
0,69,100,0
0,66,100,0
0,63,100,0
0,52,100,0
0,78,90,2
0,59,100,2
0,68,100,0
0,52,100,0
0,40,64,0
0,78,90,0
0,64,100,0
0,40,74,3
0,76,90,2
0,40,90,3
0,59,100,3
0,76,90,0
0,52,100,0
0,68,100,0
0,64,100,0
0,52,100,3
0,52,100,3
0,68,100,0
0,64,100,0
0,59,100,0
0,75,90,0
0,73,90,2
0,71,90,2
0,63,100,0
0,52,90,0
0,59,90,0
0,40,64,0
0,52,100,0
0,59,100,0
0,57,100,0
0,66,100,0
0,40,74,3
0,40,90,2
0,73,90,4
0,75,90,2
0,63,100,0
0,57,100,0
0,59,100,0
0,52,90,0
0,52,100,0
0,66,100,0
0,59,90,0
0,76,90,6
0,52,90,2
0,40,64,0
0,80,90,0
0,52,100,0
0,59,90,0
0,78,90,2
0,40,74,3
0,40,90,0
0,76,90,4
0,57,100,2
0,59,100,0
0,66,100,0
0,63,100,0
0,59,90,0
0,78,90,0
0,52,90,0
0,52,100,0
0,80,90,6
0,64,100,2
0,64,90,0
0,40,64,0
0,52,100,0
0,76,90,0
0,64,100,0
0,56,100,0
0,40,74,3
0,40,90,3
0,71,90,3
0,83,90,0
0,59,90,0
0,80,100,0
0,59,90,2
0,71,90,0
0,83,90,0
0,80,100,0
0,83,90,1
0,35,64,0
0,80,100,0
0,71,90,0
0,59,90,0
0,35,74,3
0,35,90,3
0,81,90,3
0,59,100,0
0,59,100,0
0,78,100,0
0,69,90,0
0,71,100,0
0,66,90,0
0,71,90,0
0,40,64,3
0,64,100,0
0,64,100,0
0,64,100,0
0,68,90,0
0,71,90,0
0,64,90,0
0,76,100,0
0,80,90,0
0,40,74,3
0,40,90,3
0,68,90,3
0,64,90,0
0,71,100,0
0,80,90,0
0,68,90,2
0,64,90,0
0,80,90,0
0,71,100,0
0,64,90,1
0,68,90,0
0,35,64,0
0,71,100,0
0,80,90,0
0,35,74,3
0,35,90,3
0,59,90,3
0,59,100,0
0,63,100,0
0,66,90,0
0,78,90,0
0,69,100,0
0,59,100,0
0,71,90,0
0,40,70,3
0,52,100,0
0,64,90,0
0,56,90,0
0,68,100,0
0,64,100,0
0,59,100,0
0,76,90,0
0,40,70,5
0,40,70,5
0,64,90,5
0,40,80,0
0,52,100,0
0,52,90,0
0,52,100,0
0,64,90,0
0,40,80,3
0,40,80,3
0,40,90,3
0,40,90,3
0,52,100,4
0,52,90,0
0,64,90,0
0,52,100,0
0,64,90,0
0,40,90,3
0,52,90,2
0,52,100,0
0,40,64,0
0,64,90,0
0,64,90,0
0,52,100,0
0,40,74,3
0,40,90,3
0,71,60,101
0,71,94,0
0,59,60,0
0,54,60,5
0,66,60,0
0,66,90,0
0,63,80,5
0,63,60,0
0,51,60,0
0,59,82,29
0,61,84,2
0,63,90,2
0,64,80,2
0,66,80,2
0,68,82,2
0,70,86,2
0,71,94,2
0,75,90,3
0,70,60,3
0,54,60,0
0,64,60,0
0,75,80,0
0,73,82,4
0,71,60,2
0,71,86,0
0,63,60,0
0,59,60,0
0,58,60,3
0,46,60,0
0,59,60,3
0,47,60,0
0,48,60,5
0,60,60,0
0,73,92,5
0,64,80,0
0,61,80,0
0,73,70,0
0,49,80,0
0,68,70,5
0,60,80,0
0,68,84,0
0,63,80,0
0,56,80,0
0,64,88,5
0,61,80,0
0,64,70,0
0,56,80,0
0,61,80,0
0,61,98,29
0,63,98,2
0,64,98,2
0,66,98,2
0,68,96,2
0,70,94,2
0,71,88,2
0,73,98,2
0,76,96,3
0,66,60,3
0,54,60,0
0,71,94,0
0,71,60,0
0,63,60,0
0,61,60,5
0,70,60,0
0,70,88,0
0,61,60,51
0,66,90,0
0,64,60,0
0,66,60,0
0,58,60,0
0,56,60,3
0,64,60,0
0,61,60,0
0,68,60,4
0,68,90,0
0,66,60,2
0,64,60,0
0,61,60,0
0,58,60,0
0,66,90,0
0,54,60,3
0,61,60,0
0,64,60,0
0,66,60,3
0,59,60,0
0,63,60,0
0,59,60,0
0,66,90,0
0,63,60,3
0,58,60,0
0,59,60,0
0,68,90,4
0,68,60,0
0,66,90,2
0,66,60,0
0,63,60,0
0,59,60,0
0,59,60,0
0,54,60,3
0,63,60,0
0,59,60,0
0,64,60,3
0,66,90,0
0,66,60,0
0,58,60,0
0,61,60,0
0,58,60,3
0,66,90,0
0,64,60,0
0,66,60,0
0,59,60,0
0,64,60,3
0,61,60,0
0,66,90,0
0,66,60,0
0,58,60,0
0,66,60,3
0,54,60,0
0,64,60,0
0,66,90,0
0,58,60,0
0,59,60,3
0,71,60,0
0,63,60,0
0,71,90,0
0,59,60,0
0,58,60,3
0,63,60,0
0,59,60,0
0,59,60,0
0,59,60,0
0,75,90,0
0,63,60,0
0,54,60,3
0,63,60,0
0,66,90,0
0,59,60,0
0,66,98,3
0,61,60,0
0,58,60,0
0,64,60,0
0,66,90,0
0,68,98,2
0,61,60,2
0,70,98,0
0,64,60,0
0,71,96,2
0,73,94,2
0,54,60,0
0,66,90,0
0,73,88,3
0,64,60,0
0,66,90,0
0,58,60,0
0,59,60,3
0,75,98,0
0,63,60,0
0,66,90,0
0,59,60,0
0,59,60,3
0,63,60,0
0,66,90,0
0,78,96,0
0,54,60,8
0,59,60,3
0,66,90,0
0,75,92,0
0,63,60,0
0,71,86,2
0,70,92,2
0,64,60,0
0,66,60,0
0,61,60,0
0,70,90,0
0,70,90,3
0,66,60,0
0,64,60,0
0,70,84,0
0,54,60,3
0,70,88,0
0,70,90,3
0,70,96,0
0,64,60,0
0,66,60,0
0,63,60,3
0,66,60,0
0,59,60,0
0,71,90,0
0,71,94,0
0,66,90,3
0,66,60,0
0,59,60,8
0,66,60,0
0,71,90,0
0,75,88,0
0,73,98,2
0,51,60,2
0,71,96,0
0,70,92,2
0,68,84,2
0,52,60,0
0,68,90,3
0,64,60,0
0,59,60,0
0,76,90,3
0,76,90,0
0,68,60,0
0,61,60,0
0,75,80,2
0,49,60,2
0,73,82,0
0,71,84,2
0,70,90,2
0,54,60,0
0,61,60,3
0,66,60,0
0,70,90,0
0,64,60,3
0,78,82,0
0,78,90,0
0,73,60,0
0,76,86,2
0,58,60,2
0,75,92,0
0,73,84,2
0,71,88,2
0,75,90,0
0,59,60,0
0,71,60,0
0,71,60,3
0,71,98,0
0,68,60,0
0,56,60,0
0,75,90,0
0,73,98,3
0,73,90,0
0,52,60,0
0,66,60,3
0,73,90,0
0,54,60,0
0,73,98,0
0,70,60,0
0,75,96,3
0,66,60,0
0,71,60,0
0,75,90,0
0,47,60,0
0,54,60,3
0,66,90,0
0,59,60,8
0,71,90,0
0,71,92,48
0,66,60,0
0,51,60,0
0,68,84,3
0,68,90,0
0,64,60,0
0,52,60,0
0,70,90,2
0,60,60,2
0,71,82,0
0,72,84,2
0,73,88,2
0,61,60,0
0,74,96,2
0,75,94,2
0,49,60,0
0,76,88,2
0,54,60,2
0,70,90,0
0,70,96,0
0,71,94,4
0,72,88,3
0,65,60,0
0,73,98,4
0,74,98,3
0,66,60,0
0,75,98,4
0,52,60,4
0,76,96,0
0,77,94,4
0,71,90,3
0,78,88,0
0,51,60,0
0,59,60,0
0,64,60,3
0,76,98,0
0,73,90,0
0,68,60,0
0,52,60,0
0,63,60,3
0,71,90,0
0,75,96,0
0,66,60,0
0,54,60,0
0,70,90,3
0,66,60,0
0,73,94,0
0,52,60,0
0,61,60,0
0,66,60,3
0,78,90,0
0,71,90,0
0,59,60,0
0,51,60,0
0,66,90,8
0,77,80,3
0,49,60,0
0,65,60,0
0,68,90,0
0,61,60,3
0,70,90,0
0,54,60,0
0,76,80,0
0,64,60,0
0,59,60,3
0,63,60,0
0,76,82,0
0,56,60,0
0,71,90,0
0,75,84,2
0,52,60,2
0,64,60,0
0,68,60,0
0,73,90,0
0,75,88,0
0,73,96,2
0,73,92,2
0,54,60,0
0,63,60,0
0,66,60,0
0,71,90,0
0,71,84,2
0,54,60,2
0,64,60,0
0,61,60,0
0,70,90,0
0,71,90,0
0,70,80,2
0,71,100,2
0,47,100,0
0,59,100,0
0,71,82,0
0,35,64,0
0,63,100,0
0,35,74,3
0,35,90,3
0,71,90,3
0,71,100,0
0,59,80,0
0,83,90,0
0,71,90,0
0,59,90,5
0,71,90,0
0,59,90,72
0,47,80,0
0,61,90,2
0,49,80,0
0,51,80,2
0,63,90,0
0,35,64,2
0,64,90,0
0,52,80,0
0,35,74,3
0,35,90,3
0,59,80,3
0,83,90,0
0,71,90,0
0,71,90,8
0,59,90,0
0,68,90,72
0,56,80,0
0,54,80,2
0,66,90,0
0,64,90,2
0,52,80,0
0,35,64,2
0,63,90,0
0,51,80,0
0,35,74,3
0,35,90,3
0,83,90,3
0,59,80,0
0,71,90,0
0,59,90,8
0,71,90,0
0,47,80,72
0,59,90,0
0,61,90,2
0,49,80,0
0,51,80,2
0,63,90,0
0,64,90,2
0,35,64,0
0,52,80,0
0,35,74,3
0,35,90,3
0,71,90,3
0,59,80,0
0,83,90,0
0,59,90,8
0,71,90,0
0,68,90,72
0,56,80,0
0,54,80,2
0,66,90,0
0,52,80,2
0,64,90,0
0,51,80,2
0,35,64,0
0,63,90,0
0,35,74,3
0,35,90,3
0,59,90,3
0,71,90,0
0,47,80,12
0,59,90,2
0,49,80,0
0,61,90,2
0,51,80,2
0,63,90,2
0,64,90,2
0,35,64,0
0,52,80,0
0,35,74,3
0,35,90,3
0,71,90,3
0,59,90,0
0,56,80,12
0,54,80,2
0,68,90,0
0,66,90,2
0,52,80,2
0,64,90,2
0,35,64,2
0,63,90,0
0,51,80,0
0,35,74,3
0,35,90,3
0,71,90,3
0,59,90,0
0,47,80,12
0,49,80,2
0,59,90,0
0,61,90,2
0,51,80,2
0,63,90,2
