track,note,velocity,time
1,62,89,2972
1,60,89,9
1,62,66,22
1,62,88,27
1,60,94,5
1,60,72,24
1,60,88,29
1,53,76,96
1,57,88,7
1,60,82,96
1,67,84,48
1,64,99,86
1,55,88,0
1,60,88,144
1,55,94,55
1,64,98,0
1,60,80,144
1,60,88,85
1,57,88,0
1,53,84,0
1,53,88,24
1,57,82,41
1,55,84,2
1,57,92,15
1,60,88,54
1,53,66,0
1,64,96,25
1,55,94,0
1,60,86,136
1,55,86,23
1,64,84,0
1,60,76,144
1,53,84,64
1,60,80,0
1,57,84,0
1,53,80,12
1,57,84,48
1,55,82,2
1,57,100,48
1,60,86,85
1,53,80,0
1,62,92,5
1,59,74,0
1,55,74,0
1,60,76,14
1,53,76,0
1,57,76,0
1,67,94,192
1,62,92,42
1,60,84,96
1,62,88,7
1,59,78,9
1,55,76,0
1,62,98,0
1,57,86,8
1,53,80,0
1,60,80,0
1,57,88,51
1,60,96,0
1,65,84,0
1,55,86,25
1,60,90,0
1,64,96,0
1,60,98,25
1,62,88,1
1,62,88,5
1,60,98,0
1,55,74,0
1,60,88,6
1,64,80,0
1,55,72,0
1,60,90,35
1,55,78,0
1,62,82,0
1,60,94,12
1,64,90,0
1,55,80,0
1,60,102,4
1,62,94,48
1,60,88,8
1,65,88,0
1,57,90,0
1,60,82,13
1,65,76,0
1,57,70,0
1,65,92,27
1,57,88,7
1,60,96,0
1,67,98,0
1,67,86,20
1,57,82,0
1,60,88,0
1,62,82,4
1,62,88,18
1,60,88,0
1,55,78,0
1,60,88,12
1,55,74,0
1,64,88,0
1,60,84,20
1,55,72,0
1,62,82,0
1,60,94,9
1,55,78,0
1,64,96,0
1,60,90,16
1,62,96,1
1,60,84,10
1,67,84,0
1,57,66,0
1,60,74,10
1,57,76,0
1,65,76,0
1,60,90,16
1,67,88,0
1,57,78,0
1,60,88,12
1,57,72,0
1,65,88,0
1,60,103,9
1,62,84,48
1,59,98,8
1,55,82,0
1,62,90,0
1,60,88,20
1,53,86,0
1,57,90,0
1,60,103,64
1,62,84,48
1,59,88,14
1,55,72,0
1,62,92,0
1,60,86,13
1,57,96,0
1,53,92,0
1,53,29,13
1,57,62,0
1,60,86,14
1,53,66,0
1,57,90,0
1,55,57,11
1,62,72,0
1,59,70,0
1,55,80,10
1,59,98,0
1,62,94,0
1,52,82,2
1,55,82,1
1,60,100,23
1,55,66,61
1,60,58,0
1,52,66,0
1,57,86,51
1,60,90,0
1,53,86,1
1,57,99,48
1,65,84,58
1,60,74,0
1,57,80,0
1,67,100,0
1,65,92,14
1,60,88,1
1,67,100,0
1,57,94,0
1,67,99,4
1,60,88,1
1,55,92,9
1,59,76,48
1,62,45,48
1,55,68,4
1,59,72,29
1,62,82,48
1,55,67,11
1,57,62,10
1,60,60,0
1,53,53,0
1,53,80,6
1,57,45,96
1,60,84,20
1,41,94,5
1,48,90,48
1,52,82,87
1,64,109,0
1,53,96,0
1,65,108,0
1,55,84,0
1,67,104,0
1,60,96,59
1,72,102,0
1,64,108,1
1,52,84,0
1,53,88,48
1,65,104,0
1,55,98,40
1,67,98,0
1,69,92,11
1,60,90,0
1,65,96,0
1,60,92,6
1,64,101,0
1,67,96,0
1,57,94,51
1,60,88,0
1,53,74,0
1,65,100,62
1,57,100,0
1,53,80,12
1,60,76,0
1,59,82,9
1,62,78,0
1,55,72,1
1,55,88,28
1,62,88,0
1,59,98,0
1,53,82,18
1,57,90,0
1,60,76,0
1,55,82,54
1,52,80,0
1,60,86,0
1,53,82,31
1,65,104,0
1,55,90,48
1,67,104,0
1,60,96,7
1,72,98,0
1,52,88,1
1,64,104,0
1,53,96,48
1,65,98,0
1,55,110,40
1,67,90,0
1,55,80,97
1,59,86,0
1,62,84,0
1,57,86,16
1,60,88,0
1,53,80,0
1,59,86,52
1,62,70,0
1,55,78,0
1,53,76,14
1,57,74,0
1,60,78,0
1,60,84,28
1,53,76,0
1,57,88,0
1,52,94,27
1,55,92,0
1,60,82,0
1,50,94,20
1,53,98,0
1,57,88,0
1,60,84,0
1,60,88,23
1,55,86,0
1,52,78,0
1,60,86,7
1,55,72,0
1,62,78,0
1,60,62,9
1,64,78,0
1,55,64,0
1,53,88,42
1,57,80,21
1,60,74,2
1,53,62,21
1,57,82,0
1,60,74,0
1,60,78,96
1,55,62,0
1,62,70,0
1,55,86,63
1,62,82,0
1,59,96,0
1,52,84,56
1,57,90,0
1,60,88,0
1,50,76,26
1,55,86,0
1,59,70,0
1,53,70,50
1,57,64,0
1,48,78,0
1,60,78,14
1,53,74,0
1,57,82,0
1,53,90,18
1,57,98,0
1,60,88,0
1,55,74,0
1,59,88,0
1,62,78,0
1,62,92,10
1,60,90,0
1,55,84,0
1,55,78,17
1,62,88,12
1,60,68,0
1,55,60,13
1,62,86,10
1,55,84,0
1,59,88,0
1,62,99,19
1,60,99,0
1,55,88,0
1,55,74,10
1,62,98,15
1,57,96,3
1,60,102,0
1,65,100,0
1,64,98,1
1,55,96,0
1,52,70,74
1,55,72,22
1,60,88,1
1,53,72,25
1,60,76,0
1,57,86,0
1,60,84,16
1,53,74,49
1,57,76,0
1,53,78,26
1,57,82,0
1,59,78,31
1,62,72,0
1,55,66,1
1,62,53,6
1,55,82,0
1,59,104,0
1,53,88,6
1,57,90,0
1,60,86,0
1,60,70,108
1,55,86,0
1,52,72,0
1,52,58,11
1,55,86,48
1,60,100,0
1,52,78,38
1,55,78,22
1,60,90,1
1,55,88,73
1,62,94,0
1,60,98,0
1,60,90,8
1,55,80,0
1,64,94,0
1,53,57,54
1,57,86,0
1,60,98,22
1,57,72,31
1,53,70,48
1,60,68,0
1,59,84,96
1,62,78,0
1,55,72,1
1,55,72,21
1,59,84,0
1,62,68,15
1,59,78,0
1,55,66,1
1,62,47,10
1,55,82,0
1,59,84,0
1,57,82,5
1,60,76,0
1,53,88,0
1,53,60,22
1,57,72,0
1,60,72,0
1,55,62,29
1,60,74,0
1,52,18,0
1,55,68,133
1,60,66,1
1,64,80,1
1,62,88,155
1,65,90,0
1,57,86,0
1,60,96,37
1,55,84,0
1,64,90,0
1,52,90,26
1,57,90,0
1,60,100,0
1,48,94,10
1,57,106,0
1,50,100,15
1,59,103,0
1,52,103,2
1,60,105,0
1,50,96,6
1,59,106,0
1,48,98,1
1,57,99,0
1,62,100,5
1,65,96,0
1,57,88,0
1,55,86,49
1,60,100,1
1,64,94,0
1,55,92,35
1,59,100,0
1,62,94,0
1,57,92,10
1,60,98,0
1,64,100,0
1,57,72,7
1,64,90,0
1,60,98,0
1,62,92,7
1,59,90,0
1,57,94,0
1,59,80,15
1,62,82,0
1,61,99,13
1,57,86,0
1,64,102,0
1,61,99,13
1,64,100,0
1,57,102,0
1,57,82,8
1,62,92,1
1,64,100,0
1,66,72,8
1,57,84,0
1,62,94,44
1,57,90,0
1,64,103,0
1,62,55,11
1,66,82,0
1,57,84,0
1,59,78,78
1,62,70,1
1,67,84,23
1,62,86,8
1,67,70,0
1,59,70,0
1,59,72,24
1,62,76,0
1,67,76,0
1,67,74,9
1,59,86,0
1,62,92,0
1,57,76,49
1,61,66,0
1,64,78,1
1,64,84,5
1,61,62,0
1,57,61,0
1,64,86,10
1,57,62,0
1,61,60,0
1,62,90,10
1,67,84,0
1,59,86,0
1,59,74,12
1,62,84,0
1,62,88,92
1,64,98,0
1,62,99,12
1,66,82,0
1,57,98,0
1,57,84,24
1,62,82,0
1,64,98,0
1,62,96,6
1,66,80,0
1,57,90,0
1,57,94,18
1,62,90,0
1,66,74,0
1,57,98,9
1,62,98,0
1,66,70,0
1,57,88,10
1,66,70,0
1,62,94,0
1,62,74,10
1,57,58,17
1,66,94,1
1,62,78,7
1,57,86,0
1,64,98,0
1,62,94,14
1,57,82,0
1,55,68,28
1,59,78,1
1,62,86,22
1,55,78,17
1,59,96,0
1,55,84,13
1,59,92,48
1,62,92,6
1,59,78,1
1,59,88,13
1,55,92,48
1,57,84,2
1,61,101,22
1,52,88,144
1,57,92,22
1,61,86,0
1,61,74,20
1,52,80,0
1,57,92,0
1,57,90,331
1,62,76,0
1,54,64,0
1,54,70,8
1,57,96,0
1,62,80,1
1,54,47,11
1,57,90,10
1,62,80,0
1,54,68,0
1,54,74,11
1,57,99,1
1,62,88,0
1,61,76,58
1,57,98,1
1,64,98,1
1,55,94,24
1,59,96,0
1,62,90,1
1,62,92,53
1,64,84,24
1,66,70,14
1,59,86,38
1,64,92,0
1,62,98,80
1,57,84,0
1,64,98,76
1,57,92,0
1,61,94,0
1,59,92,12
1,62,80,0
1,55,82,1
1,61,84,120
1,64,96,0
1,57,94,0
1,55,78,13
1,62,88,0
1,59,90,1
1,61,82,100
1,64,88,0
1,57,90,0
1,55,74,19
1,59,74,0
1,62,80,0
1,57,90,76
1,61,82,0
1,64,96,0
1,55,78,16
1,62,80,1
1,59,90,0
1,62,92,8
1,64,84,24
1,66,70,14
1,59,86,38
1,64,92,0
1,62,98,80
1,57,84,0
1,64,99,76
1,57,88,0
1,61,74,0
1,55,84,18
1,59,94,0
1,62,88,1
1,57,82,98
1,61,76,0
1,64,90,0
1,55,76,13
1,59,86,0
1,62,80,1
1,61,76,50
1,64,90,0
1,57,88,1
1,55,98,24
1,59,94,0
1,62,86,1
1,54,68,58
1,57,98,0
1,62,98,0
2,31,105,9061
2,36,107,48
2,36,105,108
2,36,104,211
2,36,105,113
2,29,107,204
2,29,108,108
2,36,108,158
2,29,103,1
2,29,108,103
2,36,107,209
2,36,103,112
2,31,109,165
2,36,108,3
2,36,109,107
2,29,109,211
2,29,110,111
2,36,107,166
2,29,109,3
2,29,107,113
2,33,105,72
2,36,105,21
2,38,105,6
2,31,107,31
2,29,105,9
2,36,108,309
2,29,105,1
2,31,108,4
2,29,105,7
2,29,108,16
2,29,109,14
2,31,108,2
2,31,108,32
2,36,105,6
2,36,105,17
2,36,107,29
2,31,105,21
2,36,108,32
2,36,107,30
2,36,105,28
2,36,105,28
2,29,103,4
2,29,105,21
2,29,107,31
2,36,108,3
2,29,106,49
2,29,107,16
2,29,108,31
2,31,105,10
2,31,103,22
2,31,107,31
2,29,105,6
2,29,105,25
2,29,105,31
2,31,108,8
2,36,107,6
2,36,105,53
2,36,108,30
2,31,105,11
2,36,109,7
2,36,108,30
2,48,109,18
2,43,108,3
2,36,107,37
2,36,104,13
2,36,105,23
2,36,105,49
2,36,105,25
2,36,107,19
2,31,106,96
2,36,109,4
2,29,100,47
2,29,105,18
2,29,107,28
2,29,106,50
2,29,107,22
2,29,106,27
2,33,104,3
2,36,105,47
2,31,106,5
2,43,100,7
2,31,105,48
2,31,107,16
2,43,99,10
2,31,108,20
2,43,105,0
2,31,106,48
2,29,106,4
2,29,108,13
2,36,108,5
2,36,109,18
2,36,108,29
2,31,105,1
2,36,103,2
2,43,97,48
2,48,107,38
2,55,103,34
2,48,107,33
2,36,104,1
2,31,110,10
2,29,105,15
2,31,105,53
2,29,107,3
2,29,107,29
2,28,108,19
2,26,108,5
2,26,108,16
2,24,106,4
2,36,110,16
2,31,105,162
2,36,104,48
2,36,105,73
2,29,105,206
2,29,108,7
2,36,108,163
2,29,105,2
2,29,105,8
2,36,108,209
2,36,107,26
2,35,107,63
2,33,105,59
2,33,107,1
2,33,108,13
2,31,108,61
2,29,107,62
2,29,107,1
2,29,108,52
2,29,103,165
2,31,107,1
2,31,105,26
2,31,109,1
2,38,105,1
2,43,102,27
2,43,107,1
2,38,103,3
2,43,109,1
2,35,109,4
2,36,108,2
2,38,105,2
2,36,108,49
2,36,105,24
2,36,105,23
2,31,103,3
2,36,109,1
2,36,105,8
2,36,106,26
2,29,104,11
2,29,105,9
2,29,105,30
2,29,109,7
2,29,105,14
2,29,106,18
2,31,105,6
2,31,105,10
2,31,108,21
2,29,105,5
2,29,105,10
2,29,103,20
2,31,105,2
2,36,105,9
2,36,106,12
2,36,105,24
2,31,106,8
2,36,108,1
2,36,105,15
2,43,109,6
2,48,108,5
2,36,107,9
2,36,106,25
2,36,106,25
2,31,105,0
2,36,108,3
2,36,108,28
2,43,109,5
2,31,107,10
2,28,108,48
2,29,108,45
2,29,103,10
2,29,103,26
2,29,101,47
2,29,105,17
2,29,106,22
2,36,103,0
2,38,105,4
2,31,105,8
2,43,98,7
2,31,101,1
2,31,103,13
2,43,99,6
2,31,105,48
2,31,105,17
2,43,99,3
2,31,104,48
2,29,103,3
2,41,99,3
2,31,105,47
2,36,105,3
2,36,104,11
2,36,105,17
2,31,105,5
2,36,105,0
2,43,103,47
2,48,105,29
2,55,105,37
2,48,105,32
2,43,102,4
2,48,102,50
2,38,107,9
2,36,109,12
2,31,108,9
2,33,107,48
2,33,107,17
2,33,107,13
2,33,108,25
2,36,101,4
2,40,105,48
2,38,105,10
2,36,107,11
2,33,107,4
2,31,105,2
2,31,107,18
2,33,105,15
2,35,105,5
2,33,108,12
2,33,108,14
2,37,110,3
2,40,103,1
2,26,108,49
2,26,105,10
2,26,105,15
2,26,106,10
2,26,107,18
2,26,107,24
2,33,103,9
2,38,103,49
2,31,105,15
2,31,107,11
2,31,106,13
2,31,105,10
2,31,105,10
2,31,105,15
2,33,105,25
2,33,105,3
2,33,105,17
2,31,107,11
2,31,104,11
2,31,106,14
2,33,107,7
2,26,105,7
2,26,105,20
2,26,105,19
2,26,105,55
2,33,105,48
2,38,100,3
2,33,105,48
2,26,105,13
2,33,105,48
2,38,104,37
2,33,105,41
2,26,101,1
2,26,108,19
2,26,108,23
2,26,108,27
2,26,105,41
2,26,105,20
2,35,105,4
2,33,108,5
2,26,105,3
2,31,105,49
2,31,106,20
2,31,107,21
2,31,105,53
2,31,105,28
2,31,108,27
2,38,105,0
2,40,107,48
2,33,105,16
2,45,107,11
2,33,98,47
2,40,102,38
2,45,101,28
2,40,103,41
2,37,97,42
2,33,108,41
2,26,109,314
2,26,107,29
2,26,108,26
2,33,106,7
2,38,98,49
2,38,105,26
2,38,107,26
2,33,105,1
2,26,108,2
2,33,105,1
2,31,107,8
2,43,97,240
2,33,103,16
2,31,105,14
2,43,102,241
2,43,98,15
2,33,105,13
2,31,105,13
2,43,96,240
2,43,101,8
2,33,105,19
2,31,104,10
2,43,101,240
2,43,102,24
2,43,98,25
2,38,106,64
2,33,105,0
2,31,105,2
2,43,103,242
2,43,87,20
2,33,103,8
2,31,103,8
2,43,102,242
2,43,97,14
2,43,105,26
2,38,103,3
2,43,103,48
2,33,105,4
2,31,105,6
2,43,97,241
2,43,103,12
2,33,105,31
2,31,105,1
2,26,64,12
3,62,108,2962
3,60,107,7
3,55,105,2
3,62,84,1
3,62,98,14
3,64,101,4
3,62,101,1
3,64,99,4
3,55,96,7
3,60,104,1
3,41,99,0
3,60,103,1
3,48,94,96
3,53,90,49
3,57,92,45
3,57,98,23
3,67,99,47
3,69,62,89
3,72,90,3
3,79,100,5
3,62,68,0
3,55,62,0
3,60,80,0
3,55,74,79
3,60,88,1
3,64,94,0
3,55,88,8
3,60,94,48
3,60,88,26
3,55,72,0
3,62,70,1
3,55,72,83
3,60,88,0
3,64,84,1
3,55,100,20
3,48,98,11
3,41,80,0
3,53,72,89
3,57,94,53
3,60,66,98
3,67,90,45
3,55,84,8
3,57,86,7
3,60,74,48
3,67,94,0
3,53,98,25
3,57,72,9
3,60,84,47
3,65,88,0
3,62,68,0
3,55,62,0
3,60,80,0
3,55,74,79
3,60,88,1
3,64,94,0
3,55,88,8
3,60,94,1
3,60,88,26
3,55,72,0
3,62,70,1
3,55,72,83
3,60,88,0
3,64,84,1
3,55,100,20
3,41,86,7
3,48,90,0
3,53,94,49
3,57,72,50
3,60,76,45
3,69,98,190
3,57,76,10
3,60,76,44
3,67,86,39
3,57,72,71
3,65,72,12
3,62,84,15
3,59,74,0
3,55,76,0
3,53,78,19
3,57,84,1
3,60,90,1
3,67,94,13
3,57,72,40
3,60,72,49
3,62,70,4
3,57,84,24
3,60,72,35
3,62,72,49
