track,note,velocity,time
16,51,56,1498
16,36,56,0
16,51,56,96
16,51,56,68
16,36,56,0
16,51,56,24
16,51,56,18
16,51,56,18
16,51,56,18
16,51,56,18
16,51,56,18
16,51,56,18
16,51,56,18
16,51,56,18
16,51,56,18
16,51,56,18
16,51,56,18
16,51,56,18
16,51,56,18
16,51,56,18
16,51,56,18
16,51,56,18
16,51,56,18
16,51,56,18
16,51,56,18
16,51,56,18
16,51,56,18
16,51,56,18
16,51,56,18
16,36,56,0
16,51,56,186
16,51,56,136
16,36,56,0
16,51,56,84
16,36,56,136
16,51,56,0
16,51,56,40
16,36,56,68
16,51,56,0
16,51,56,24
16,51,56,18
16,51,56,18
16,51,56,18
16,51,56,18
16,51,56,18
16,51,56,18
16,51,56,18
16,51,56,18
16,51,56,18
16,51,56,18
16,51,56,18
16,51,56,18
16,51,56,18
16,51,56,18
16,51,56,18
16,51,56,18
16,51,56,18
16,51,56,18
16,51,56,18
16,51,56,18
16,51,56,18
16,51,56,18
16,36,56,18
16,51,56,0
16,51,56,186
16,36,56,136
16,51,56,0
16,51,56,84
16,36,56,136
16,51,56,0
16,51,56,40
16,36,56,68
16,51,56,0
16,51,56,24
16,51,56,18
16,51,56,18
16,51,56,18
16,51,56,18
16,51,56,18
16,51,56,18
16,51,56,18
16,51,56,18
16,51,56,18
16,51,56,18
16,51,56,18
16,51,56,18
16,51,56,18
16,51,56,18
16,51,56,18
16,51,56,18
16,51,56,18
16,51,56,18
16,51,56,18
16,51,56,18
16,51,56,18
16,51,56,18
16,36,56,18
16,51,56,0
16,51,56,186
16,36,56,136
16,51,56,0
16,51,56,84
16,36,56,136
16,51,56,0
16,51,56,40
16,36,56,68
16,51,56,0
16,51,56,24
16,51,56,18
16,51,56,18
16,51,56,18
16,51,56,18
16,51,56,18
16,51,56,18
16,51,56,18
16,51,56,18
16,51,56,18
16,51,56,18
16,51,56,18
16,51,56,18
16,51,56,18
16,51,56,18
16,51,56,18
16,51,56,18
16,51,56,18
16,51,56,18
16,51,56,18
16,51,56,18
16,51,56,18
16,51,56,18
16,36,56,18
16,51,56,0
16,51,56,186
16,36,56,136
16,51,56,0
16,51,56,84
16,36,56,136
16,51,56,0
16,51,56,40
16,36,56,68
16,51,56,0
16,51,56,24
16,51,56,18
16,51,56,18
16,51,56,18
16,51,56,18
16,51,56,18
16,51,56,18
16,51,56,18
16,51,56,18
16,51,56,18
16,51,56,18
16,51,56,18
16,51,56,18
16,51,56,18
16,51,56,18
16,51,56,18
16,51,56,18
16,51,56,18
16,51,56,18
16,51,56,18
16,51,56,18
16,51,56,18
16,51,56,18
16,36,56,18
16,51,56,0
16,51,56,186
16,36,56,136
16,51,56,0
16,51,56,84
16,36,66,136
16,51,66,5
16,51,66,284
16,42,66,0
16,51,66,236
16,51,66,108
16,42,66,320
16,51,66,4
16,38,66,183
16,36,66,13
16,51,66,2
16,36,89,1
16,51,82,3
16,42,87,180
16,51,57,4
16,51,65,213
16,51,87,66
16,51,66,338
16,42,88,0
16,51,56,240
16,36,92,80
16,51,81,6
16,51,64,295
16,42,88,1
16,51,69,219
16,51,76,82
16,42,88,330
16,51,60,2
16,36,96,203
16,38,96,2
16,51,96,4
16,36,88,6
16,51,91,3
16,51,69,260
16,42,89,4
16,51,69,199
16,51,91,66
16,51,57,386
16,42,91,0
16,51,47,226
16,36,94,74
16,51,94,5
16,51,71,294
16,42,90,0
16,51,54,236
16,51,91,108
16,42,88,320
16,51,58,4
16,38,95,183
16,36,95,13
16,51,95,2
16,36,89,1
16,51,82,3
16,42,87,180
16,51,57,4
16,51,65,213
16,51,87,66
16,51,66,338
16,42,88,0
16,51,56,240
16,36,92,80
16,51,81,6
16,51,64,295
16,42,88,1
16,51,69,219
16,51,76,82
16,42,88,330
16,51,60,2
16,36,96,203
16,38,96,2
16,51,96,4
16,36,88,6
16,51,91,3
16,51,69,260
16,42,89,4
16,51,69,199
16,51,91,66
16,51,57,386
16,42,91,0
16,51,47,226
16,36,94,74
16,51,94,5
16,51,71,294
16,42,90,0
16,51,54,236
16,51,91,108
16,42,88,320
16,51,58,4
16,38,95,183
16,36,95,13
16,51,95,2
16,36,89,1
16,51,82,3
16,42,87,180
16,51,57,4
16,51,65,213
16,51,87,66
16,51,66,338
16,42,88,0
16,51,56,240
16,36,92,80
16,51,81,6
16,51,64,295
16,42,88,1
16,51,69,219
16,51,76,82
16,42,88,330
16,51,60,2
16,36,96,203
16,38,96,2
16,51,96,4
16,36,88,6
16,51,91,3
16,51,69,260
16,42,89,4
16,51,69,199
16,51,91,66
16,51,57,386
16,42,91,0
16,51,47,226
16,36,94,74
16,51,94,5
16,51,71,294
16,42,90,0
16,51,54,236
16,51,91,108
16,42,88,320
16,51,58,4
16,38,95,183
16,36,95,13
16,51,95,2
16,36,89,1
16,51,82,3
16,42,87,180
16,51,57,4
16,51,65,213
16,51,87,66
16,51,66,338
16,42,88,0
16,51,56,240
16,36,92,80
16,51,81,6
16,51,64,295
16,42,88,1
16,51,69,219
16,51,76,82
16,42,88,330
16,51,60,2
16,36,96,203
16,38,96,2
16,51,96,4
16,36,88,6
16,51,91,3
16,51,69,260
16,42,89,4
16,51,69,199
16,51,91,66
16,51,57,386
16,42,91,0
16,51,47,226
16,36,94,74
16,51,94,5
16,51,71,294
16,42,90,0
16,51,54,236
16,51,91,108
16,42,88,320
16,51,58,4
16,38,95,183
16,36,95,13
16,51,95,2
16,36,89,1
16,51,82,3
16,42,87,180
16,51,57,4
16,51,65,213
16,51,87,66
16,51,66,338
16,42,88,0
16,51,56,240
16,36,92,80
16,51,81,6
16,51,64,295
16,42,88,1
16,51,69,219
16,51,76,82
16,42,88,330
16,51,60,2
16,36,96,203
16,38,96,2
16,51,96,4
16,36,88,6
16,51,91,3
16,51,69,260
16,42,89,4
16,51,69,199
16,51,91,66
16,51,57,386
16,42,91,0
16,51,47,226
16,36,94,74
16,51,94,5
16,51,71,294
16,42,90,0
16,51,54,236
16,51,91,108
16,42,88,320
16,51,58,4
16,38,95,183
16,36,95,13
16,51,95,2
16,36,89,1
16,51,82,3
16,42,87,180
16,51,57,4
16,51,65,213
16,51,87,66
16,51,66,338
16,42,88,0
16,51,56,240
16,36,92,80
16,51,81,6
16,51,64,295
16,42,88,1
16,51,69,219
16,51,76,82
16,42,88,330
16,51,60,2
16,36,96,203
16,38,96,2
16,51,96,4
16,36,88,6
16,51,91,3
16,51,69,260
16,42,89,4
16,51,69,199
16,51,91,66
16,51,57,386
16,42,91,0
16,51,47,226
16,36,94,74
16,51,94,5
16,51,71,294
16,42,90,0
16,51,54,236
16,51,91,108
16,42,88,320
16,51,58,4
16,38,95,183
16,36,95,13
16,51,95,2
16,36,89,1
16,51,82,3
16,42,87,180
16,51,57,4
16,51,65,213
16,51,87,66
16,51,66,338
16,42,88,0
16,51,56,240
16,36,92,80
16,51,81,6
16,51,64,295
16,42,88,1
16,51,69,219
16,51,76,82
16,42,88,330
16,51,60,2
16,36,96,203
16,38,96,2
16,51,96,4
16,36,88,6
16,51,91,3
16,51,69,260
16,42,89,4
16,51,69,199
16,51,91,66
16,51,57,386
16,42,91,0
16,51,47,226
16,36,94,74
16,51,94,5
16,51,71,294
16,42,90,0
16,51,54,236
16,51,91,108
16,42,88,320
16,51,58,4
16,38,95,183
16,36,95,13
16,51,95,2
16,36,89,1
16,51,82,3
16,42,87,180
16,51,57,4
16,51,65,213
16,51,87,66
16,51,66,338
16,42,88,0
16,51,56,240
16,36,92,80
16,51,81,6
16,51,64,295
16,42,88,1
16,51,69,219
16,51,76,82
16,42,88,330
16,51,60,2
16,36,96,203
16,38,96,2
16,51,96,4
16,36,88,6
16,51,91,3
16,51,69,260
16,42,89,4
16,51,69,199
16,51,91,66
16,51,57,386
16,42,91,0
16,51,47,226
16,36,94,74
16,51,94,5
16,51,71,294
16,42,90,0
16,51,54,236
16,51,91,108
16,42,88,320
16,51,58,4
16,38,95,183
16,36,95,13
16,51,95,2
16,36,89,1
16,51,82,3
16,42,87,180
16,51,57,4
16,51,65,213
16,51,87,66
16,51,66,338
16,42,88,0
16,51,56,240
16,36,92,80
16,51,81,6
16,51,64,295
16,42,88,1
16,51,69,219
16,51,76,82
16,42,88,330
16,51,60,2
16,36,96,203
16,38,96,2
16,51,96,4
16,36,88,6
16,51,91,3
16,51,69,260
16,42,89,4
16,51,69,199
16,51,91,66
16,51,57,386
16,42,91,0
16,51,47,226
16,36,94,74
16,51,94,5
16,51,71,294
16,42,90,0
16,51,54,236
16,51,91,108
16,42,88,320
16,51,58,4
16,38,95,183
16,36,95,13
16,51,95,2
16,36,89,36
16,51,82,3
16,42,87,180
16,51,57,4
16,51,65,213
16,51,87,66
16,42,88,338
16,51,66,0
16,51,56,240
16,36,92,80
16,51,81,6
16,51,64,295
16,42,88,1
16,51,69,219
16,51,76,82
16,42,88,330
16,51,60,2
16,36,96,203
16,38,96,2
16,51,96,4
16,36,88,6
16,51,91,3
16,51,69,260
16,42,89,4
16,51,69,199
16,51,91,66
16,42,91,386
16,51,57,0
16,51,47,226
16,36,94,74
16,51,94,5
16,42,90,294
16,51,71,0
16,51,54,236
16,51,91,108
16,42,88,320
16,51,58,4
16,38,95,183
16,36,95,13
16,51,95,2
16,36,89,36
16,51,82,3
16,42,87,180
16,51,57,4
16,51,65,213
16,51,87,66
16,42,88,338
16,51,66,0
16,51,56,240
16,36,92,80
16,51,81,6
16,51,64,295
16,42,88,1
16,51,69,219
16,51,76,82
16,42,88,330
16,51,60,2
16,36,96,203
16,38,96,2
16,51,96,4
16,36,56,4
16,51,56,0
16,51,56,96
16,36,56,68
16,51,56,0
16,51,56,24
16,51,56,18
16,51,56,18
16,51,56,18
16,51,56,18
16,51,56,18
16,51,56,18
16,51,56,18
16,51,56,18
16,51,56,18
16,51,56,18
16,51,56,18
16,51,56,18
16,51,56,18
16,51,56,18
16,51,56,18
16,51,56,18
16,51,56,18
16,51,56,18
16,51,56,18
16,51,56,18
16,51,56,18
16,51,56,18
16,36,56,18
16,51,56,0
16,51,56,186
16,36,56,136
16,51,56,0
16,51,56,84
16,51,56,136
16,36,56,0
16,51,56,40
16,51,56,68
16,36,56,0
16,51,56,24
16,51,56,18
16,51,56,18
16,51,56,18
16,51,56,18
16,51,56,18
16,51,56,18
16,51,56,18
16,51,56,18
16,51,56,18
16,51,56,18
16,51,56,18
16,51,56,18
16,51,56,18
16,51,56,18
16,51,56,18
16,51,56,18
16,51,56,18
16,51,56,18
16,51,56,18
16,51,56,18
16,51,56,18
16,51,56,18
16,51,56,18
16,36,56,0
16,51,56,186
16,51,56,136
16,36,56,0
16,51,56,84
16,51,56,136
16,36,56,0
16,51,56,40
16,51,56,68
16,36,56,0
16,51,56,24
16,51,56,18
16,51,56,18
16,51,56,18
16,51,56,18
16,51,56,18
16,51,56,18
16,51,56,18
16,51,56,18
16,51,56,18
16,51,56,18
16,51,56,18
16,51,56,18
16,51,56,18
16,51,56,18
16,51,56,18
16,51,56,18
16,51,56,18
16,51,56,18
16,51,56,18
16,51,56,18
16,51,56,18
16,51,56,18
16,51,56,18
16,36,56,0
16,51,56,186
16,51,56,136
16,36,56,0
16,51,56,84
16,51,56,136
16,36,56,0
16,51,56,40
16,51,56,68
16,36,56,0
16,51,56,24
16,51,56,18
16,51,56,18
16,51,56,18
16,51,56,18
16,51,56,18
16,51,56,18
16,51,56,18
16,51,56,18
16,51,56,18
16,51,56,18
16,51,56,18
16,51,56,18
16,51,56,18
16,51,56,18
16,51,56,18
16,51,56,18
16,51,56,18
16,51,56,18
16,51,56,18
16,51,56,18
16,51,56,18
16,51,56,18
16,51,56,18
16,36,56,0
16,51,56,186
16,51,56,136
16,36,56,0
16,51,56,84
16,51,56,136
16,36,56,0
16,51,56,40
16,51,56,68
16,36,56,0
16,51,56,24
16,51,56,18
16,51,56,18
16,51,56,18
16,51,56,18
16,51,56,18
16,51,56,18
16,51,56,18
16,51,56,18
16,51,56,18
16,51,56,18
16,51,56,18
16,51,56,18
16,51,56,18
16,51,56,18
16,51,56,18
16,51,56,18
16,51,56,18
16,51,56,18
16,51,56,18
16,51,56,18
16,51,56,18
16,51,56,18
16,51,56,18
16,36,56,0
16,51,56,186
16,51,56,136
16,36,56,0
16,51,56,84
16,57,122,131
16,57,55,5
16,57,55,9
16,57,55,8
16,57,55,8
16,57,55,5
16,57,55,8
16,57,56,8
16,57,56,7
16,57,56,8
16,57,56,6
16,57,56,10
16,57,57,12
16,57,57,3
16,57,57,15
16,57,59,19
16,57,59,17
16,57,59,18
16,57,60,18
16,57,60,21
16,57,60,22
16,57,61,19
16,57,61,19
16,57,61,15
16,57,62,16
16,57,62,20
16,57,64,19
16,57,64,16
16,57,64,4
16,57,64,13
16,57,64,4
16,57,65,14
16,57,65,2
16,57,65,14
16,57,65,14
16,57,66,18
16,57,66,19
16,57,66,18
16,57,67,24
16,57,67,28
16,57,67,22
16,57,69,19
17,34,69,1490
17,41,69,84
17,48,69,83
17,30,69,751
17,37,69,103
17,48,69,90
17,41,69,624
17,48,69,109
17,55,69,85
17,37,69,371
17,44,69,86
17,55,69,86
17,36,69,363
17,43,69,92
17,50,69,5
17,48,69,1268
17,36,69,371
17,43,67,37
17,43,67,368
17,36,67,355
17,43,67,7
17,48,67,4
17,42,67,19
17,41,67,4
17,48,67,518
17,45,67,0
17,41,67,2
17,36,67,12
17,35,67,8
17,42,67,400
17,43,67,6
17,44,67,190
17,45,67,6
17,46,67,1
17,34,67,0
17,41,67,114
17,40,67,2
17,40,67,45
17,39,67,4
17,39,67,397
17,44,67,361
17,44,67,66
17,39,67,5
17,32,67,130
17,32,67,39
17,41,67,5
17,39,67,0
17,38,67,1
17,43,67,379
17,50,67,3
17,46,67,16
17,43,67,6
17,43,67,16
17,45,67,111
17,46,67,1
17,34,67,6
17,36,67,5
17,48,67,2
17,41,67,15
17,36,67,611
17,41,67,7
17,48,67,518
17,41,67,8
17,40,67,126
17,35,67,631
17,39,67,129
17,53,67,38
17,52,67,81
17,50,67,91
17,48,67,75
17,47,67,88
17,46,67,0
17,45,67,1
17,45,67,19
17,40,67,115
17,33,67,9
17,38,67,427
17,36,67,384
17,36,67,28
17,35,66,404
17,47,71,364
17,46,75,4
17,34,80,397
17,33,86,0
17,45,90,381
17,39,95,5
17,40,98,193
17,41,100,186
17,42,103,0
17,43,105,9
17,31,105,589
17,43,105,161
17,37,105,423
17,36,105,3
17,43,105,4
17,48,105,184
17,42,105,7
17,41,105,4
17,48,105,527
17,45,105,1
17,41,105,3
17,36,105,378
17,35,105,15
17,35,93,44
17,47,89,184
17,35,80,0
17,34,71,4
17,46,71,7
17,41,71,13
17,40,71,5
17,40,71,24
17,39,71,2
17,39,71,373
17,44,71,367
17,44,71,347
17,32,71,6
17,44,71,376
17,32,71,376
17,44,71,375
17,44,71,35
17,37,71,15
17,37,71,432
17,44,71,513
17,41,71,7
17,42,71,132
17,42,71,418
17,36,71,397
17,42,71,392
17,41,71,332
17,35,70,368
17,34,70,307
17,46,70,499
17,41,70,11
17,40,70,8
17,40,70,20
17,39,70,2
17,39,70,414
17,37,70,287
17,44,70,111
17,51,70,90
17,37,70,1607
17,37,70,32
17,40,70,21
17,47,70,100
17,54,70,93
17,40,70,1462
17,40,70,22
17,45,70,376
17,45,72,23
17,40,74,107
17,33,75,109
17,45,79,368
17,44,81,378
17,44,85,39
17,43,89,4
17,42,93,384
17,41,106,32
17,41,106,20
17,48,106,394
17,41,106,8
17,46,106,389
17,34,106,1
17,46,106,378
17,46,106,30
17,40,106,5
17,40,106,24
17,47,106,393
17,35,106,19
17,33,106,1
17,45,101,358
17,39,94,0
17,39,88,29
17,38,80,2
17,44,80,428
17,43,80,410
17,43,80,378
17,41,80,412
17,48,80,101
17,55,80,4
17,41,80,1266
17,41,80,17
17,37,80,388
17,44,80,76
17,55,80,17
17,37,80,1186
17,37,80,42
17,36,80,17
