track,note,velocity,time
14,44,90,4570
14,42,100,304
14,44,115,0
14,44,55,188
14,44,100,36
14,42,100,304
14,44,115,0
14,44,60,188
14,44,100,36
14,42,100,304
14,44,115,0
14,44,90,188
14,44,100,36
14,40,119,188
14,42,100,36
14,44,115,0
14,45,70,0
14,40,110,0
14,44,80,188
14,45,60,0
14,35,60,0
14,44,90,0
14,42,100,304
14,44,115,0
14,44,55,188
14,44,100,36
14,42,100,304
14,44,115,0
14,44,60,188
14,44,100,36
14,42,100,304
14,44,115,0
14,35,80,176
14,46,80,0
14,44,90,0
14,44,100,48
14,41,70,176
14,44,90,0
14,43,111,0
14,42,100,0
14,44,115,0
14,41,111,48
14,43,110,64
14,44,80,0
14,35,90,0
14,44,90,0
14,38,70,188
14,42,100,36
14,44,115,0
14,44,55,188
14,44,100,36
14,42,100,304
14,44,115,0
14,44,60,188
14,44,100,36
14,38,90,188
14,42,100,36
14,44,115,0
14,44,90,188
14,44,100,36
14,40,119,188
14,42,100,36
14,44,115,0
14,45,70,0
14,40,110,0
14,44,80,188
14,45,60,0
14,44,90,0
14,42,100,304
14,44,115,0
14,44,55,188
14,44,100,36
14,42,100,304
14,44,115,0
14,44,60,188
14,35,100,36
14,38,100,0
14,38,60,48
14,38,50,48
14,38,40,48
14,42,100,0
14,38,30,48
14,48,90,48
14,38,100,48
14,38,60,0
14,38,40,48
14,45,90,48
14,38,60,48
14,42,100,0
14,38,40,48
14,41,90,48
14,38,100,12
14,35,80,36
14,51,90,0
14,49,90,0
14,42,100,304
14,51,115,0
14,51,55,188
14,51,100,36
14,42,100,304
14,51,115,0
14,35,50,188
14,51,60,0
14,35,80,36
14,51,100,0
14,42,100,304
14,51,115,0
14,51,90,188
14,51,100,36
14,42,100,304
14,51,115,0
14,45,70,0
14,35,70,188
14,51,80,0
14,45,60,0
14,35,90,36
14,51,90,0
14,42,100,304
14,51,115,0
14,51,55,188
14,51,100,36
14,42,100,304
14,51,115,0
14,51,60,188
14,51,100,36
14,38,90,176
14,42,100,48
14,51,115,0
14,35,80,176
14,46,80,0
14,51,90,0
14,51,100,48
14,38,70,176
14,42,100,48
14,51,115,0
14,38,70,48
14,38,50,48
14,51,80,0
14,51,90,48
14,42,100,304
14,51,115,0
14,51,55,188
14,51,100,36
14,42,100,304
14,51,115,0
14,51,60,188
14,51,100,36
14,38,90,188
14,42,100,36
14,51,115,0
14,51,90,188
14,51,100,36
14,42,100,304
14,51,115,0
14,45,70,0
14,51,80,188
14,45,60,0
14,51,90,36
14,38,70,188
14,42,100,36
14,51,115,0
14,51,55,188
14,51,100,36
14,42,100,304
14,51,115,0
14,51,60,188
14,41,90,36
14,38,90,48
14,38,60,54
14,38,70,42
14,42,100,0
14,38,90,48
14,48,90,54
14,38,60,42
14,38,60,48
14,41,90,54
14,38,108,42
14,42,100,0
14,38,60,48
14,35,90,54
14,35,80,42
14,51,90,0
14,49,90,0
14,42,100,304
14,51,115,0
14,51,55,188
14,51,100,36
14,42,100,304
14,51,115,0
14,51,60,188
14,35,80,36
14,51,100,0
14,38,90,188
14,42,100,36
14,51,115,0
14,51,90,188
14,51,100,36
14,42,100,304
14,51,115,0
14,45,70,0
14,35,70,188
14,51,80,0
14,45,60,0
14,35,60,36
14,51,90,0
14,42,100,304
14,51,115,0
14,51,55,188
14,51,100,36
14,51,80,188
14,42,100,36
14,51,115,0
14,51,60,188
14,51,100,36
14,42,100,304
14,51,115,0
14,51,90,188
14,51,100,36
14,42,100,304
14,51,115,0
14,45,70,0
14,51,80,188
14,45,60,0
14,51,90,36
14,42,100,304
14,51,115,0
14,51,55,188
14,51,100,36
14,51,80,188
14,42,100,36
14,51,115,0
14,51,60,188
14,35,80,36
14,51,100,0
14,42,100,304
14,51,115,0
14,51,90,188
14,51,100,36
14,42,100,304
14,51,115,0
14,45,70,0
14,35,70,188
14,51,80,0
14,45,60,0
14,51,90,36
14,42,100,304
14,51,115,0
14,51,55,188
14,51,100,36
14,51,80,188
14,42,100,36
14,51,115,0
14,51,60,188
14,41,90,36
14,38,90,48
14,38,60,54
14,38,70,42
14,42,100,0
14,38,90,48
14,48,90,54
14,38,60,42
14,38,60,48
14,41,90,54
14,38,108,42
14,42,100,0
14,38,60,48
14,35,90,54
14,35,90,42
14,51,90,0
14,38,70,188
14,42,100,36
14,51,115,0
14,51,55,188
14,51,100,36
14,42,100,304
14,51,115,0
14,51,60,188
14,35,80,36
14,51,100,0
14,38,90,188
14,42,100,36
14,51,115,0
14,51,90,188
14,51,100,36
14,42,100,304
14,51,115,0
14,45,70,0
14,35,70,188
14,51,80,0
14,45,60,0
14,35,90,36
14,51,90,0
14,42,100,304
14,51,115,0
14,51,55,188
14,51,100,36
14,51,80,188
14,42,100,36
14,51,115,0
14,51,60,188
14,51,100,36
14,42,100,304
14,51,115,0
14,51,90,188
14,51,100,36
14,42,100,304
14,51,115,0
14,45,70,0
14,51,80,188
14,45,60,0
14,51,90,36
14,38,70,188
14,42,100,36
14,51,115,0
14,51,55,188
14,51,100,36
14,51,80,188
14,42,100,36
14,51,115,0
14,51,60,188
14,35,80,36
14,51,100,0
14,42,100,304
14,51,115,0
14,51,90,188
14,51,100,36
14,42,100,304
14,51,115,0
14,45,70,0
14,35,70,188
14,51,80,0
14,45,60,0
14,51,90,36
14,42,100,304
14,51,115,0
14,51,55,188
14,51,100,36
14,42,100,304
14,51,115,0
14,51,60,188
14,35,100,36
14,38,100,0
14,38,60,48
14,38,50,48
14,38,40,48
14,42,100,0
14,38,30,48
14,48,90,48
14,38,60,48
14,38,40,48
14,45,90,48
14,38,60,48
14,42,100,0
14,38,40,48
14,41,90,48
14,35,80,48
14,51,90,0
14,49,90,0
14,42,100,304
14,51,115,0
14,51,55,188
14,51,100,36
14,42,100,304
14,51,115,0
14,51,60,188
14,51,100,36
14,42,100,304
14,51,115,0
14,51,90,188
14,51,100,36
14,42,100,304
14,51,115,0
14,45,70,0
14,51,80,188
14,45,60,0
14,51,90,36
14,42,100,304
14,51,115,0
14,51,55,188
14,51,100,36
14,42,100,304
14,51,115,0
14,51,60,188
14,35,80,36
14,51,100,0
14,42,100,304
14,51,115,0
14,35,80,182
14,46,80,0
14,51,90,0
14,51,100,42
14,38,90,182
14,51,90,0
14,42,100,42
14,51,115,0
14,38,70,48
14,35,70,54
14,38,50,0
14,51,80,0
14,51,90,42
14,38,70,188
14,42,100,36
14,51,115,0
14,51,55,188
14,51,100,36
14,42,100,304
14,51,115,0
14,51,60,188
14,51,100,36
14,38,90,188
14,42,100,36
14,51,115,0
14,51,90,188
14,51,100,36
14,42,100,304
14,51,115,0
14,45,70,0
14,51,80,188
14,45,60,0
14,51,90,36
14,40,90,176
14,40,90,0
14,40,90,512
14,40,90,0
14,40,90,512
14,40,90,0
14,42,100,256
14,42,80,48
14,40,90,48
14,35,70,0
14,42,80,0
14,40,90,0
14,38,100,0
14,42,100,0
14,38,115,48
14,42,70,0
14,51,90,48
14,49,90,0
14,38,70,176
14,42,100,48
14,51,115,0
14,51,55,176
14,51,100,48
14,38,50,176
14,42,100,48
14,51,115,0
14,51,60,176
14,35,80,48
14,51,100,0
14,42,100,304
14,51,115,0
14,51,90,188
14,51,100,36
14,42,100,304
14,51,115,0
14,45,70,0
14,35,70,188
14,51,80,0
14,45,60,0
14,51,90,36
14,42,100,304
14,51,115,0
14,51,55,188
14,51,100,36
14,42,100,304
14,51,115,0
14,51,60,188
14,40,90,36
14,35,80,0
14,51,100,0
14,42,100,128
14,51,115,0
14,51,90,188
14,51,100,36
14,51,90,188
14,40,90,36
14,42,100,0
14,51,115,0
14,45,70,0
14,35,70,12
14,51,80,0
14,45,60,0
14,35,90,36
14,51,90,0
14,42,100,304
14,51,115,0
14,51,55,188
14,40,90,36
14,51,100,0
14,38,50,12
14,42,100,36
14,51,115,0
14,35,70,188
14,51,60,0
14,51,100,36
14,38,90,188
14,40,90,36
14,42,100,0
14,51,115,0
14,51,90,12
14,51,100,36
14,42,100,304
14,51,115,0
14,45,70,0
14,51,80,188
14,45,60,0
14,51,90,36
14,38,70,188
14,42,100,36
14,51,115,0
14,51,55,188
14,51,100,36
14,42,100,304
14,51,115,0
14,51,60,188
14,35,90,36
14,38,90,176
14,46,70,0
14,38,115,304
14,46,70,0
14,45,100,304
14,45,60,48
14,45,60,48
14,41,70,48
14,35,80,48
14,51,90,0
14,49,90,0
14,42,100,304
14,51,115,0
14,51,55,188
14,51,100,36
14,42,100,304
14,51,115,0
14,35,50,188
14,51,60,0
14,35,80,36
14,51,100,0
14,42,100,304
14,51,115,0
14,51,90,188
14,51,100,36
14,42,100,304
14,51,115,0
14,45,70,0
14,35,70,188
14,51,80,0
14,45,60,0
14,35,90,36
14,51,90,0
14,42,100,304
14,51,115,0
14,51,55,188
14,51,100,36
14,42,100,304
14,51,115,0
14,35,70,188
14,51,60,0
14,51,100,36
14,42,100,304
14,51,115,0
14,51,90,176
14,51,100,48
14,38,70,176
14,51,90,0
14,42,100,48
14,51,115,0
14,38,70,48
14,38,50,48
14,51,80,0
14,51,90,48
14,42,100,304
14,51,115,0
14,51,55,188
14,51,100,36
14,42,100,304
14,51,115,0
14,51,60,188
14,35,80,36
14,51,100,0
14,42,100,304
14,51,115,0
14,51,90,188
14,51,100,36
14,42,100,304
14,51,115,0
14,45,70,0
14,35,70,188
14,51,80,0
14,45,60,0
14,51,90,36
14,42,100,304
14,51,115,0
14,51,55,188
14,51,100,36
14,42,100,304
14,51,115,0
14,51,60,188
14,35,100,36
14,38,100,0
14,38,60,48
14,38,50,48
14,38,40,48
14,42,100,0
14,38,30,48
14,48,90,48
14,38,60,48
14,38,40,48
14,45,90,48
14,38,60,48
14,42,100,0
14,38,40,48
14,41,90,48
14,51,90,48
14,42,100,304
14,51,115,0
14,51,55,188
14,51,100,36
14,42,100,304
14,51,115,0
14,51,60,188
14,35,80,36
14,51,100,0
14,42,100,304
14,51,115,0
14,51,90,188
14,51,100,36
14,42,100,304
14,51,115,0
14,45,70,0
14,51,80,188
14,45,60,0
14,35,90,36
14,51,90,0
14,38,70,188
14,42,100,36
14,51,115,0
14,51,55,188
14,51,100,36
14,42,100,304
14,51,115,0
14,51,60,188
14,51,100,36
14,38,90,176
14,42,100,48
14,51,115,0
14,35,80,176
14,46,80,0
14,51,90,0
14,51,100,48
14,38,70,176
14,42,100,48
14,51,115,0
14,38,70,48
14,38,50,48
14,51,80,0
14,51,90,48
14,42,100,304
14,51,115,0
14,51,55,188
14,51,100,36
14,42,100,304
14,51,115,0
14,51,60,188
14,35,80,36
14,51,100,0
14,42,100,304
14,51,115,0
14,51,90,188
14,51,100,36
14,42,100,304
14,51,115,0
14,45,70,0
14,35,70,188
14,51,80,0
14,45,60,0
14,35,90,36
14,51,90,0
14,42,100,304
14,51,115,0
14,51,55,188
14,51,100,36
14,38,50,188
14,42,100,36
14,51,115,0
14,35,70,188
14,51,60,0
14,41,90,0
14,38,90,32
14,38,60,54
14,38,70,20
14,42,100,0
14,38,90,48
14,48,90,54
14,38,60,20
14,38,60,48
14,41,90,54
14,38,91,20
14,42,91,0
14,38,94,48
14,35,96,13
14,38,98,26
14,38,99,24
14,35,99,0
14,51,99,0
14,38,99,0
14,49,103,20
14,42,100,0
14,51,115,0
14,51,55,188
14,51,100,36
14,42,100,304
14,51,115,0
14,35,50,188
14,51,60,0
14,35,80,36
14,51,100,0
14,38,90,188
14,42,100,36
14,51,115,0
14,51,90,188
14,51,100,36
14,38,90,48
14,38,90,0
14,42,100,0
14,45,70,0
14,38,90,0
14,38,90,0
14,38,90,0
14,35,70,12
14,45,60,0
14,51,90,0
14,42,100,304
14,51,115,0
14,51,55,188
14,51,100,36
14,42,100,304
14,51,115,0
14,51,60,188
14,35,80,36
14,51,100,0
14,42,100,304
14,51,115,0
14,35,80,182
14,46,80,0
14,51,90,0
14,36,100,42
14,51,100,0
14,36,90,48
14,41,90,0
14,36,90,0
14,43,90,0
14,42,100,0
14,36,90,0
14,41,90,0
14,36,90,0
14,43,90,0
14,36,90,0
14,41,90,0
14,35,70,6
14,43,90,0
14,36,90,0
14,51,90,0
14,49,115,0
14,42,100,39
14,51,115,0
14,51,55,38
14,51,100,0
14,42,100,304
14,51,115,0
14,51,60,0
14,35,80,36
14,51,100,0
14,42,100,304
14,51,115,0
14,51,90,76
14,36,100,0
14,51,100,0
14,41,90,32
14,36,90,0
14,43,90,0
14,36,90,0
14,42,100,0
14,51,115,0
14,45,70,0
14,41,90,0
14,36,90,0
14,43,90,0
14,36,90,0
14,41,90,0
14,36,90,0
14,35,70,12
14,51,80,0
14,45,60,0
14,51,90,0
14,42,100,304
14,51,115,0
14,51,55,188
14,51,100,36
14,38,90,208
14,42,100,0
14,51,115,0
14,38,90,0
14,38,90,0
14,38,90,0
14,51,60,12
14,35,80,0
14,51,100,0
14,42,100,304
14,51,115,0
14,46,80,182
14,51,90,0
14,51,100,42
14,38,90,182
14,42,100,42
14,51,115,0
14,36,70,48
14,38,70,0
14,36,90,176
14,49,90,0
14,38,90,0
14,36,90,0
14,49,90,0
14,38,90,0
14,36,90,0
14,49,90,0
14,38,90,0
14,36,90,0
14,49,90,0
14,38,90,0
14,36,90,0
14,49,90,0
14,38,90,0
14,36,90,0
14,49,90,0
14,38,90,0
14,36,90,0
14,49,90,0
14,38,90,0
14,36,90,0
14,49,90,0
14,38,90,0
14,36,90,0
14,49,90,0
14,38,90,0
14,36,90,0
14,49,90,0
14,38,90,0
14,36,90,0
14,49,90,0
14,38,90,0
14,36,90,0
14,49,90,0
14,38,90,0
14,57,90,0
14,36,90,0
14,57,36,0
14,57,37,0
14,57,40,0
14,57,41,0
14,57,44,0
14,57,45,0
14,57,46,0
14,57,49,0
14,57,50,0
14,57,52,0
14,57,54,0
14,57,56,0
14,57,57,0
14,57,60,0
14,57,61,0
14,57,62,0
14,57,65,0
14,57,66,0
14,57,69,0
14,57,70,0
14,57,72,0
14,57,74,0
14,57,75,0
14,57,77,0
14,57,79,0
14,57,81,0
14,57,82,0
14,57,85,0
14,57,86,0
14,57,88,0
14,57,90,0
14,49,93,0
14,38,93,0
14,36,93,0
14,49,93,0
14,38,93,0
14,36,93,0
14,49,93,0
14,38,93,0
14,36,93,0
14,49,93,0
14,38,93,0
14,36,93,0
14,49,93,0
14,38,93,0
14,36,93,0
14,49,65,0
14,49,67,0
14,49,69,0
14,49,70,0
14,49,71,0
14,49,74,0
14,49,75,0
14,49,76,0
14,49,77,0
14,49,80,0
14,49,81,0
14,49,82,0
14,49,84,0
14,49,86,0
14,49,88,0
14,49,89,0
14,57,90,0
14,36,90,0
14,57,93,0
14,57,94,0
14,57,40,0
14,57,41,0
14,57,44,0
14,57,45,0
14,57,46,0
14,57,49,0
14,57,50,0
14,57,52,0
14,57,54,0
14,57,56,0
14,57,57,0
14,57,60,0
14,57,61,0
14,57,62,0
14,57,65,0
14,57,66,0
14,57,69,0
14,57,70,0
14,57,72,0
14,57,74,0
14,57,75,0
14,57,77,0
14,57,79,0
14,57,81,0
14,57,82,0
14,57,85,0
14,57,86,0
14,57,88,0
14,57,90,0
14,57,90,0
14,57,90,0
14,57,90,0
14,57,90,0
14,57,90,0
14,57,90,0
14,57,90,0
14,57,90,0
14,57,90,0
14,57,90,0
14,57,90,0
14,57,90,0
14,57,90,0
14,57,90,0
14,57,90,0
14,57,90,0
14,36,90,2304
14,49,90,0
14,38,90,0
14,38,90,0
14,36,90,0
14,38,90,0
14,38,90,0
14,38,90,0
14,38,93,0
14,51,93,0
14,35,93,0
14,49,110,20
14,51,115,0
14,42,100,0
14,51,55,188
14,51,100,36
14,51,115,304
14,42,100,0
14,51,60,188
14,35,50,0
14,51,100,36
14,35,80,0
14,38,90,188
14,51,115,36
14,42,100,0
14,51,90,188
14,51,100,36
14,38,90,48
14,38,90,0
14,38,90,0
14,45,70,0
14,42,100,0
14,38,90,0
14,38,90,0
