track,note,velocity,time
14,49,90,4570
14,51,90,0
14,51,115,304
14,42,100,0
14,51,55,176
14,51,100,48
14,51,115,304
14,42,100,0
14,51,60,176
14,51,100,48
14,51,115,304
14,42,100,0
14,51,90,188
14,51,100,36
14,51,90,188
14,45,70,36
14,51,115,0
14,42,100,0
14,45,60,188
14,51,80,0
14,51,90,36
14,38,70,188
14,51,115,36
14,42,100,0
14,51,55,188
14,51,100,36
14,51,80,188
14,51,115,36
14,42,100,0
14,51,60,188
14,51,100,36
14,51,115,304
14,42,100,0
14,51,90,176
14,46,80,0
14,35,80,0
14,51,100,48
14,38,70,176
14,51,115,48
14,42,100,0
14,38,70,48
14,51,80,48
14,38,50,0
14,51,90,48
14,51,115,304
14,42,100,0
14,51,55,188
14,51,100,36
14,51,80,188
14,38,50,0
14,51,115,36
14,42,100,0
14,51,60,188
14,51,100,36
14,51,115,304
14,42,100,0
14,51,90,188
14,51,100,36
14,45,70,304
14,51,115,0
14,42,100,0
14,45,60,188
14,51,80,0
14,51,90,36
14,38,70,188
14,51,115,36
14,42,100,0
14,51,55,188
14,51,100,36
14,51,115,304
14,42,100,0
14,51,60,188
14,51,90,36
14,35,90,0
14,51,90,304
14,42,70,0
14,42,80,48
14,42,80,48
14,42,100,48
14,42,80,48
14,42,80,48
14,38,90,0
14,35,70,0
14,38,100,48
14,42,100,48
14,46,81,48
14,38,81,0
14,38,81,0
14,51,81,0
14,38,81,0
14,57,69,96
14,51,115,128
14,42,100,0
14,51,55,176
14,51,100,48
14,38,50,176
14,51,115,48
14,42,100,0
14,51,60,176
14,51,100,29
14,38,90,188
14,51,115,36
14,42,100,0
14,51,90,188
14,51,100,36
14,51,90,188
14,45,70,36
14,51,115,0
14,42,100,0
14,45,81,188
14,51,81,0
14,51,89,36
14,51,115,304
14,42,100,0
14,51,55,188
14,51,100,36
14,51,115,304
14,42,100,0
14,38,81,176
14,51,60,12
14,38,85,1
14,51,100,1
14,35,80,0
14,38,89,0
14,51,115,212
14,42,100,0
14,57,81,0
14,51,90,182
14,46,80,0
14,51,100,42
14,51,90,182
14,38,70,0
14,35,50,0
14,51,115,42
14,42,100,0
14,38,72,0
14,38,70,26
14,38,69,48
14,51,80,6
14,35,70,0
14,51,90,39
14,35,90,0
14,51,115,304
14,42,100,0
14,51,55,188
14,51,100,36
14,51,115,304
14,42,100,0
14,51,60,188
14,51,100,36
14,35,80,0
14,51,115,304
14,42,100,0
14,51,90,188
14,51,100,36
14,45,70,304
14,51,115,0
14,42,100,0
14,45,60,188
14,51,80,0
14,35,70,0
14,51,90,36
14,35,90,0
14,51,115,304
14,42,100,0
14,51,55,188
14,51,100,36
14,51,115,304
14,42,100,0
14,51,60,188
14,35,70,0
14,49,70,0
14,35,100,0
14,48,80,84
14,45,80,0
14,42,100,39
14,48,100,122
14,45,100,0
14,41,115,160
14,48,100,48
14,42,100,0
14,38,100,0
14,45,90,48
14,41,90,26
14,49,90,0
14,51,90,0
14,35,80,0
14,51,115,304
14,42,100,0
14,51,55,188
14,51,100,36
14,51,115,304
14,42,100,0
14,51,60,188
14,51,100,36
14,35,80,0
14,38,90,188
14,51,115,36
14,42,100,0
14,51,90,188
14,51,100,36
14,45,70,304
14,51,115,0
14,42,100,0
14,45,60,188
14,51,80,0
14,35,70,0
14,51,90,36
14,35,90,0
14,38,70,188
14,51,115,36
14,42,100,0
14,51,55,188
14,51,100,36
14,51,80,188
14,51,115,36
14,42,100,0
14,51,60,188
14,51,100,36
14,35,80,0
14,51,115,304
14,42,100,0
14,51,90,188
14,51,100,0
14,45,70,0
14,51,115,0
14,42,100,0
14,38,81,0
14,45,60,12
14,51,80,0
14,35,70,0
14,38,81,1
14,51,90,0
14,35,90,0
14,38,81,0
14,38,81,96
14,57,69,0
14,51,115,72
14,42,100,0
14,51,55,36
14,51,100,0
14,38,81,0
14,38,81,96
14,51,80,12
14,38,81,1
14,51,115,1
14,42,100,0
14,38,81,0
14,38,81,24
14,49,69,0
14,51,60,12
14,35,70,0
14,51,100,0
14,51,115,48
14,42,100,0
14,38,81,0
14,38,81,24
14,51,90,12
14,38,81,1
14,51,100,0
14,38,81,0
14,38,81,96
14,57,69,0
14,45,70,72
14,51,115,0
14,42,100,0
14,45,60,36
14,51,80,0
14,51,90,0
14,38,81,0
14,51,115,260
14,42,100,0
14,51,55,124
14,51,100,36
14,51,115,304
14,42,100,0
14,51,60,188
14,38,100,36
14,35,100,0
14,38,60,48
14,38,50,48
14,42,100,48
14,38,40,0
14,38,30,48
14,48,90,48
14,38,60,48
14,38,40,48
14,45,90,48
14,42,100,48
14,38,60,0
14,38,40,48
14,41,90,48
14,49,90,48
14,51,90,0
14,51,115,304
14,42,100,0
14,51,55,176
14,51,100,48
14,51,115,304
14,42,100,0
14,51,60,176
14,51,100,48
14,35,80,0
14,51,115,304
14,42,100,0
14,51,90,188
14,51,100,36
14,45,70,304
14,51,115,0
14,42,100,0
14,45,60,188
14,51,80,0
14,51,90,36
14,35,90,0
14,51,115,304
14,42,100,0
14,51,55,188
14,51,100,36
14,51,115,304
14,42,100,0
14,51,60,188
14,35,70,0
14,51,100,36
14,38,90,188
14,51,115,36
14,42,100,0
14,51,90,188
14,51,100,36
14,45,70,304
14,51,115,0
14,42,100,0
14,45,60,188
14,51,80,0
14,51,90,36
14,35,60,0
14,38,56,176
14,51,115,128
14,42,100,0
14,51,55,188
14,35,56,36
14,38,56,0
14,51,100,0
14,35,56,125
14,38,56,0
14,51,115,29
14,42,100,0
14,38,56,176
14,51,60,12
14,51,100,36
14,35,80,0
14,35,56,304
14,38,56,0
14,51,115,0
14,42,100,0
14,35,56,125
14,38,56,0
14,51,90,12
14,51,100,29
14,38,67,73
14,38,67,14
14,38,56,26
14,51,90,12
14,45,70,36
14,51,115,0
14,42,100,0
14,45,60,188
14,51,80,0
14,35,70,0
14,38,56,36
14,51,90,0
14,38,45,96
14,38,46,14
14,35,56,14
14,38,56,0
14,51,115,0
14,42,100,0
14,35,56,20
14,38,56,0
14,51,55,12
14,51,100,20
14,51,115,304
14,42,100,0
14,51,60,188
14,41,90,36
14,38,90,48
14,38,60,54
14,42,100,42
14,38,70,0
14,38,90,48
14,48,90,54
14,38,60,42
14,38,60,48
14,41,90,54
14,42,100,42
14,38,108,0
14,38,60,48
14,35,90,54
14,51,90,42
14,51,115,304
14,42,100,0
14,51,55,188
14,51,100,36
14,38,50,188
14,51,115,36
14,42,100,0
14,51,60,188
14,51,100,36
14,51,115,304
14,42,100,0
14,51,90,188
14,51,100,36
14,45,70,304
14,51,115,0
14,42,100,0
14,45,60,188
14,51,80,0
14,51,90,36
14,51,115,304
14,42,100,0
14,51,55,188
14,51,100,36
14,51,115,304
14,42,100,0
14,51,60,188
14,51,100,36
14,35,80,0
14,51,115,304
14,42,100,0
14,51,90,182
14,46,80,0
14,51,100,42
14,38,90,182
14,51,115,42
14,42,100,0
14,38,70,48
14,51,80,54
14,38,50,0
14,35,70,0
14,51,90,42
14,35,60,0
14,51,115,304
14,42,100,0
14,51,55,188
14,51,100,36
14,51,115,304
14,42,100,0
14,51,60,188
14,51,100,36
14,51,115,304
14,42,100,0
14,51,90,188
14,51,100,36
14,45,70,304
14,51,115,0
14,42,100,0
14,45,60,188
14,51,80,0
14,51,90,36
14,51,115,304
14,42,100,0
14,51,55,188
14,51,100,36
14,51,115,304
14,42,100,0
14,51,60,188
14,49,70,36
14,35,100,0
14,48,80,176
14,45,80,0
14,42,100,48
14,48,100,176
14,45,100,0
14,41,115,304
14,48,100,48
14,42,100,0
14,38,100,0
14,45,90,48
14,41,90,48
14,49,90,48
14,51,90,0
14,51,115,304
14,42,100,0
14,51,55,176
14,51,100,48
14,51,115,304
14,42,100,0
14,51,60,176
14,51,100,48
14,35,80,0
14,51,115,304
14,42,100,0
14,51,90,188
14,51,100,36
14,45,70,304
14,51,115,0
14,42,100,0
14,45,60,188
14,51,80,0
14,35,70,0
14,51,90,36
14,35,60,0
14,51,115,304
14,42,100,0
14,51,55,188
14,51,100,36
14,51,115,304
14,42,100,0
14,51,60,188
14,51,100,36
14,35,80,0
14,38,90,188
14,51,115,36
14,42,100,0
14,51,90,188
14,51,100,36
14,45,70,304
14,51,115,0
14,42,100,0
14,45,60,188
14,51,80,0
14,35,70,0
14,51,90,36
14,35,90,0
14,51,115,304
14,42,100,0
14,51,55,188
14,51,100,36
14,51,115,304
14,42,100,0
14,51,60,188
14,51,100,36
14,35,80,0
14,51,115,304
14,42,100,0
14,51,90,188
14,51,100,36
14,45,70,304
14,51,115,0
14,42,100,0
14,45,60,188
14,51,80,0
14,51,90,36
14,35,90,0
14,51,115,304
14,42,100,0
14,51,55,188
14,51,100,36
14,51,80,188
14,38,50,0
14,51,115,36
14,42,100,0
14,51,60,188
14,35,70,0
14,38,100,36
14,35,100,0
14,38,60,48
14,38,50,48
14,42,100,48
14,38,40,0
14,38,30,48
14,48,90,48
14,38,60,48
14,38,40,48
14,45,90,48
14,42,100,48
14,38,60,0
14,38,40,48
14,41,90,48
14,49,90,48
14,51,90,0
14,35,80,0
14,51,115,304
14,42,100,0
14,51,55,188
14,51,100,36
14,51,115,304
14,42,100,0
14,51,60,188
14,51,100,36
14,35,80,0
14,51,115,304
14,42,100,0
14,51,90,188
14,51,100,36
14,51,90,188
14,45,70,36
14,51,115,0
14,42,100,0
14,45,60,188
14,51,80,0
14,35,70,0
14,51,90,36
14,51,115,304
14,42,100,0
14,51,55,188
14,51,100,36
14,51,115,304
14,42,100,0
14,51,60,188
14,51,100,36
14,35,80,0
14,51,115,304
14,42,100,0
14,51,90,182
14,46,80,0
14,35,80,0
14,51,100,42
14,35,50,182
14,51,115,42
14,42,100,0
14,38,81,176
14,51,80,6
14,35,70,0
14,38,81,1
14,38,81,1
14,51,90,0
14,51,56,67
14,38,56,0
14,51,115,39
14,42,100,0
14,51,55,188
14,51,100,36
14,51,115,304
14,42,100,0
14,51,60,188
14,51,100,36
14,35,80,0
14,51,115,304
14,42,100,0
14,51,90,188
14,51,100,36
14,45,70,304
14,51,115,0
14,42,100,0
14,38,81,176
14,45,60,12
14,51,80,0
14,35,70,0
14,38,81,1
14,38,81,1
14,51,90,0
14,38,56,67
14,51,115,4
14,42,100,0
14,38,56,176
14,51,55,12
14,38,56,15
14,51,100,0
14,51,115,260
14,42,100,0
14,51,60,188
14,38,56,36
14,51,90,0
14,35,90,0
14,38,56,24
14,51,90,4
14,42,70,0
14,42,80,48
14,57,56,48
14,42,80,0
14,42,100,48
14,42,80,48
14,42,80,48
14,35,70,0
14,38,100,48
14,42,100,48
14,46,90,48
14,38,115,0
14,51,90,20
14,51,115,304
14,42,100,0
14,51,55,188
14,51,100,36
14,51,115,304
14,42,100,0
14,51,60,188
14,51,100,36
14,35,80,0
14,38,90,188
14,51,115,36
14,42,100,0
14,51,90,188
14,51,100,36
14,45,70,304
14,51,115,0
14,42,100,0
14,38,81,176
14,45,60,12
14,51,80,0
14,35,70,0
14,38,81,1
14,38,81,0
14,51,90,0
14,38,70,79
14,51,115,36
14,42,100,0
14,51,55,38
14,51,100,36
14,51,115,231
14,42,100,0
14,51,60,188
14,51,100,0
14,35,80,0
14,38,90,182
14,51,115,42
14,42,100,0
14,51,90,32
14,51,100,42
14,42,110,109
14,38,90,0
14,51,115,42
14,42,100,0
14,38,70,48
14,51,80,54
14,38,50,0
14,35,70,0
14,35,56,768
14,38,56,0
14,35,56,20
14,38,56,0
14,35,56,1172
14,38,56,0
14,35,56,20
14,38,56,0
14,38,70,77
14,51,100,0
14,38,90,48
14,48,90,32
14,38,60,0
14,38,60,48
14,41,90,54
14,38,108,42
14,42,100,0
14,38,60,48
14,35,90,32
14,57,90,0
14,35,90,0
14,38,93,176
14,40,93,1
14,35,93,1
14,38,93,0
14,35,93,250
14,38,93,0
14,35,93,58
14,38,93,0
14,45,93,0
14,45,93,48
14,45,93,48
14,35,93,48
14,38,93,0
14,43,93,0
14,49,93,48
14,51,93,0
14,51,115,304
14,42,100,0
14,51,55,188
14,51,100,36
14,51,80,188
14,51,115,36
14,42,100,0
14,51,60,54
14,51,100,36
14,35,80,0
14,51,115,304
14,42,100,0
14,51,90,188
14,51,100,36
14,45,70,304
14,51,115,0
14,42,100,0
14,45,60,188
14,51,80,0
14,51,90,36
14,51,115,304
14,42,100,0
14,51,55,188
14,51,100,36
14,51,115,304
14,42,100,0
14,51,60,188
14,51,100,36
14,35,80,0
14,51,115,304
14,42,100,0
14,51,90,182
14,35,80,0
14,51,100,42
14,38,90,182
14,51,115,42
14,42,100,0
14,38,70,48
14,51,80,54
14,38,50,0
14,35,70,0
14,51,90,42
14,35,90,0
14,51,115,304
14,42,100,0
14,51,55,188
14,51,100,36
14,51,115,304
14,42,100,0
14,51,60,188
14,35,70,0
14,51,100,36
14,35,80,0
14,38,90,188
14,51,115,36
14,42,100,0
14,51,90,188
14,51,100,36
14,45,70,304
14,51,115,0
14,42,100,0
14,38,81,0
14,45,60,147
14,51,80,0
14,35,70,0
14,51,90,36
14,35,90,0
14,51,115,304
14,42,100,0
14,51,55,188
14,51,100,36
14,51,115,304
14,42,100,0
14,38,81,0
14,51,60,147
14,35,70,0
14,51,100,36
14,51,115,304
14,42,100,0
14,51,90,188
14,51,100,36
14,38,81,176
14,38,81,0
14,45,70,0
14,51,115,0
14,42,100,0
14,38,81,0
14,45,60,147
14,51,80,0
14,51,90,36
14,35,60,0
14,51,115,304
14,42,100,0
14,51,55,188
14,51,100,36
14,51,115,304
14,42,100,0
14,51,60,188
14,51,100,0
14,38,90,115
14,51,115,36
14,42,100,0
14,51,90,38
14,51,100,0
14,51,90,115
14,45,70,36
14,51,115,0
14,42,100,0
14,45,60,38
14,51,80,0
14,51,90,0
14,38,70,188
14,51,115,36
14,42,100,0
14,51,55,188
14,51,100,36
14,38,50,188
14,51,115,36
14,42,100,0
14,51,60,188
14,51,100,36
14,35,80,0
14,51,115,304
14,42,100,0
14,51,90,182
14,35,80,0
14,51,100,42
14,38,90,182
14,51,115,42
14,42,100,0
14,38,70,48
14,51,80,54
14,38,50,0
14,35,70,0
14,51,90,42
14,51,115,304
14,42,100,0
14,51,55,188
14,51,100,36
14,51,80,188
14,51,115,36
14,42,100,0
14,51,60,188
14,51,100,36
14,51,115,304
14,42,100,0
14,51,90,188
14,51,100,36
14,45,70,304
14,51,115,0
14,42,100,0
14,45,60,188
14,51,80,0
14,51,90,36
14,51,115,304
14,42,100,0
14,51,55,188
14,51,100,36
14,51,115,304
14,42,100,0
14,51,60,188
14,41,90,36
14,38,90,48
14,38,60,54
14,42,100,42
14,38,70,0
14,38,90,48
14,48,90,54
14,38,60,42
14,38,60,48
14,41,90,54
14,42,100,42
14,38,108,0
14,38,60,48
14,35,90,54
14,51,90,42
14,38,81,0
14,35,81,0
14,49,56,0
14,35,81,0
14,51,115,64
14,42,100,0
14,51,55,188
14,51,100,36
14,38,81,0
14,35,81,0
14,57,56,0
14,35,81,0
14,51,115,56
14,42,100,0
14,51,60,188
14,41,90,36
14,38,81,0
14,38,90,4
14,38,60,54
14,42,100,42
14,38,70,0
14,38,90,48
14,48,90,54
14,38,60,42
14,38,60,48
14,41,90,54
14,42,100,42
14,38,108,0
14,38,60,48
14,49,69,48
14,35,90,6
14,51,90,42
14,38,70,176
14,51,115,20
14,42,100,0
14,51,55,176
14,51,100,48
14,38,75,0
14,38,70,20
14,51,115,20
14,42,100,0
14,38,108,0
14,38,60,48
14,51,60,48
14,35,100,48
14,51,70,0
14,45,80,64
14,48,80,0
14,42,100,20
14,45,100,103
14,48,100,0
14,35,81,48
14,38,81,0
14,41,115,154
14,35,81,0
14,38,81,0
14,57,81,0
14,42,100,0
14,48,100,0
14,45,90,48
14,41,90,26
14,51,69,48
14,35,80,0
14,38,88,84
14,35,90,20
14,51,90,0
14,38,93,7
14,35,94,20
14,51,94,0
14,38,95,84
14,35,95,20
