track,note,velocity,time
1,35,80,4608
1,49,90,0
1,51,115,0
1,38,88,0
1,51,90,288
1,40,100,0
1,38,88,0
1,38,88,176
1,51,55,6
1,51,115,24
1,38,88,176
1,51,90,29
1,40,100,0
1,51,50,182
1,35,54,42
1,51,115,0
1,38,88,0
1,38,88,176
1,51,80,24
1,40,100,0
1,38,88,176
1,51,50,6
1,51,115,29
1,51,90,304
1,40,100,0
1,38,88,0
1,38,88,176
1,35,60,6
1,51,60,0
1,35,80,24
1,51,115,0
1,38,88,176
1,51,90,29
1,40,100,0
1,51,55,188
1,51,115,36
1,38,88,0
1,38,88,176
1,51,80,24
1,40,100,0
1,35,60,188
1,51,60,0
1,49,88,0
1,35,100,36
1,38,100,0
1,38,60,48
1,38,50,67
1,38,40,29
1,42,100,0
1,38,30,48
1,48,90,67
1,38,60,0
1,38,40,48
1,38,81,32
1,38,81,0
1,41,100,0
1,38,94,0
1,35,94,0
1,38,94,26
1,35,94,0
1,41,90,19
1,35,80,0
1,44,115,0
1,38,70,182
1,42,100,42
1,37,70,0
1,44,90,0
1,44,55,182
1,38,40,42
1,44,115,0
1,42,100,304
1,37,70,0
1,44,90,0
1,44,50,182
1,44,115,42
1,38,40,182
1,42,100,42
1,37,70,0
1,44,100,0
1,38,40,182
1,44,60,0
1,44,115,42
1,38,40,182
1,44,90,0
1,42,100,42
1,37,70,0
1,44,90,0
1,38,50,182
1,44,50,0
1,44,115,42
1,42,100,304
1,37,70,0
1,44,90,0
1,38,40,182
1,44,55,0
1,44,115,42
1,42,100,304
1,37,70,0
1,44,90,0
1,38,40,182
1,44,60,0
1,35,54,42
1,44,115,0
1,42,100,304
1,37,70,0
1,44,80,0
1,44,50,182
1,44,115,42
1,42,100,304
1,37,70,0
1,44,90,0
1,44,60,182
1,35,80,42
1,44,115,0
1,42,100,304
1,37,70,0
1,44,90,0
1,38,40,188
1,44,55,0
1,44,115,36
1,42,100,304
1,37,70,0
1,44,80,0
1,44,60,188
1,35,80,36
1,44,115,0
1,44,70,188
1,42,100,36
1,37,70,0
1,44,100,0
1,38,40,304
1,44,115,0
1,38,50,188
1,42,100,36
1,37,70,0
1,44,90,0
1,44,50,188
1,35,60,36
1,44,120,0
1,44,70,185
1,42,100,39
1,37,70,0
1,44,100,0
1,38,40,185
1,44,55,0
1,35,80,39
1,44,115,0
1,38,80,185
1,35,80,39
1,42,100,0
1,37,70,0
1,49,90,0
1,38,100,185
1,44,60,0
1,35,80,39
1,44,100,0
1,38,90,182
1,44,60,0
1,44,90,42
1,35,40,182
1,44,100,0
1,35,60,42
1,44,90,0
1,38,80,182
1,44,80,42
1,44,60,182
1,44,115,42
1,49,90,0
1,42,100,304
1,37,70,0
1,44,90,0
1,44,55,182
1,38,40,42
1,44,115,0
1,42,100,304
1,37,70,0
1,44,90,0
1,44,50,182
1,35,54,42
1,44,115,0
1,42,100,304
1,37,70,0
1,44,80,0
1,44,50,182
1,44,115,42
1,42,100,304
1,37,70,0
1,44,90,0
1,44,60,182
1,35,80,42
1,44,115,0
1,42,100,304
1,37,70,0
1,44,90,0
1,38,40,188
1,44,55,0
1,44,115,36
1,38,50,188
1,42,100,36
1,37,70,0
1,44,80,0
1,44,60,188
1,44,115,36
1,38,40,182
1,42,100,42
1,37,70,0
1,44,100,0
1,38,40,182
1,44,60,0
1,44,115,42
1,42,100,304
1,37,70,0
1,44,90,0
1,44,50,182
1,44,115,42
1,42,100,304
1,37,70,0
1,44,90,0
1,38,40,182
1,44,55,0
1,44,115,42
1,44,80,182
1,42,100,42
1,37,70,0
1,44,90,0
1,38,40,182
1,44,60,0
1,35,80,42
1,44,115,0
1,44,70,188
1,42,100,36
1,37,70,0
1,44,100,0
1,38,40,304
1,44,115,0
1,42,100,304
1,37,70,0
1,44,90,0
1,44,50,188
1,35,60,36
1,44,120,0
1,42,100,304
1,37,70,0
1,44,100,0
1,38,40,188
1,44,55,0
1,44,115,36
1,40,98,96
1,40,98,0
1,37,98,0
1,49,100,167
1,40,98,0
1,38,98,12
1,38,100,36
1,35,100,0
1,38,60,48
1,38,50,67
1,42,100,29
1,38,40,0
1,38,30,48
1,48,90,67
1,38,60,29
1,38,40,48
1,45,90,67
1,38,81,45
1,38,81,0
1,35,94,0
1,38,94,0
1,41,100,0
1,35,94,173
1,38,94,0
1,45,90,19
1,41,90,0
1,35,90,29
1,42,100,304
1,37,70,0
1,44,90,0
1,38,30,182
1,44,55,0
1,38,40,42
1,44,115,0
1,42,100,304
1,37,70,0
1,44,90,0
1,44,50,13
1,44,115,0
1,38,40,182
1,42,100,42
1,37,70,0
1,44,100,0
1,38,40,182
1,44,60,0
1,44,115,42
1,38,40,182
1,42,100,42
1,37,70,0
1,44,90,0
1,44,50,182
1,35,80,42
1,44,115,0
1,42,100,304
1,37,70,0
1,44,90,0
1,38,40,188
1,44,55,0
1,44,115,36
1,44,70,188
1,42,100,36
1,37,70,0
1,44,80,0
1,44,60,188
1,44,100,36
1,42,100,304
1,37,70,0
1,44,90,0
1,35,80,176
1,44,80,0
1,44,120,48
1,38,70,176
1,42,100,48
1,37,70,0
1,44,115,0
1,38,50,176
1,44,115,48
1,42,100,304
1,37,70,0
1,44,90,0
1,38,40,182
1,44,55,0
1,44,115,42
1,42,100,304
1,37,70,0
1,44,90,0
1,38,40,182
1,44,60,0
1,35,80,42
1,44,115,0
1,42,100,304
1,37,70,0
1,44,100,0
1,38,40,182
1,44,60,0
1,44,115,42
1,38,40,182
1,42,100,42
1,37,70,0
1,44,90,0
1,38,50,182
1,44,50,0
1,35,60,42
1,44,120,0
1,44,70,185
1,42,100,39
1,37,70,0
1,44,100,0
1,38,40,185
1,44,55,0
1,35,80,39
1,44,115,0
1,38,80,185
1,35,80,39
1,42,100,0
1,37,70,0
1,49,90,0
1,38,100,185
1,44,60,0
1,35,80,39
1,44,90,0
1,44,90,304
1,42,80,188
1,42,100,36
1,35,70,188
1,42,60,0
1,38,100,36
1,42,100,0
1,42,70,188
1,35,80,36
1,59,115,0
1,49,90,0
1,44,100,304
1,37,70,0
1,59,90,0
1,38,30,182
1,59,55,0
1,38,40,42
1,59,115,0
1,44,100,304
1,37,70,0
1,59,90,0
1,59,50,182
1,59,115,42
1,59,70,188
1,44,100,36
1,37,70,0
1,59,100,0
1,38,30,188
1,38,40,36
1,59,115,0
1,44,100,304
1,37,70,0
1,59,90,0
1,59,50,188
1,59,115,36
1,44,100,304
1,37,70,0
1,59,90,0
1,38,40,182
1,59,55,0
1,59,115,42
1,59,80,182
1,44,100,42
1,37,70,0
1,59,90,0
1,38,40,182
1,59,60,0
1,59,115,42
1,59,70,188
1,44,100,36
1,37,70,0
1,59,100,0
1,38,30,188
1,38,40,36
1,59,115,0
1,44,100,304
1,37,70,0
1,59,90,0
1,59,50,188
1,35,80,36
1,59,115,0
1,44,100,304
1,37,70,0
1,59,90,0
1,38,40,188
1,59,55,0
1,59,115,36
1,44,100,304
1,37,70,0
1,59,80,0
1,35,60,188
1,59,60,0
1,59,115,36
1,44,100,304
1,37,70,0
1,59,100,0
1,38,40,182
1,59,60,0
1,59,115,42
1,44,100,304
1,37,70,0
1,59,90,0
1,38,50,182
1,59,50,0
1,59,115,42
1,44,100,304
1,37,70,0
1,59,90,0
1,38,40,182
1,59,55,0
1,59,115,42
1,44,100,304
1,37,70,0
1,59,90,0
1,38,40,182
1,59,60,0
1,59,115,0
1,35,54,0
1,59,80,0
1,37,70,0
1,44,100,0
1,59,50,182
1,59,115,0
1,59,90,0
1,37,70,0
1,44,100,0
1,59,60,182
1,35,80,0
1,59,115,0
1,44,100,304
1,37,70,0
1,59,90,0
1,59,55,182
1,38,40,42
1,59,115,0
1,44,100,304
1,37,70,0
1,59,90,0
1,59,50,182
1,35,54,42
1,59,115,0
1,44,100,304
1,37,70,0
1,59,80,0
1,59,50,182
1,59,115,42
1,44,100,304
1,37,70,0
1,59,90,0
1,59,60,182
1,59,115,42
1,44,100,304
1,37,70,0
1,59,90,0
1,38,40,182
1,59,55,0
1,59,115,42
1,44,100,304
1,37,70,0
1,59,90,0
1,38,40,182
1,59,60,0
1,35,80,42
1,59,115,0
1,44,100,304
1,37,70,0
1,59,80,0
1,59,50,182
1,59,115,42
1,44,85,304
1,37,85,0
1,59,85,0
1,36,85,0
1,40,85,0
1,41,85,0
1,35,60,182
1,59,60,0
1,59,115,42
1,44,100,304
1,37,70,0
1,59,90,0
1,38,40,182
1,59,55,0
1,59,115,42
1,59,80,182
1,44,100,42
1,37,70,0
1,59,90,0
1,38,40,182
1,59,60,0
1,35,80,42
1,59,115,0
1,44,100,304
1,37,70,0
1,59,100,0
1,38,40,182
1,59,60,0
1,59,115,42
1,44,100,304
1,37,70,0
1,59,90,0
1,59,50,182
1,35,80,42
1,59,115,0
1,38,70,188
1,44,100,36
1,37,70,0
1,59,90,0
1,38,40,188
1,59,55,0
1,59,115,36
1,38,50,188
1,44,100,36
1,37,70,0
1,59,80,0
1,35,60,188
1,59,60,0
1,35,90,36
1,49,90,0
1,59,115,0
1,38,81,182
1,44,100,42
1,59,90,0
1,35,90,0
1,38,60,182
1,59,55,0
1,35,55,0
1,38,80,42
1,59,115,0
1,35,115,0
1,35,80,182
1,44,100,42
1,45,90,0
1,59,90,0
1,41,80,182
1,35,80,0
1,59,50,0
1,35,80,0
1,59,115,0
1,38,70,182
1,42,100,42
1,37,70,0
1,59,90,0
1,38,30,32
1,59,55,0
1,38,40,42
1,59,115,0
1,42,100,304
1,37,70,0
1,59,90,0
1,59,50,182
1,59,115,42
1,59,70,188
1,42,100,36
1,37,70,0
1,59,100,0
1,38,40,304
1,59,115,0
1,42,100,231
1,37,70,0
1,59,90,0
1,35,80,182
1,41,80,0
1,59,50,6
1,35,60,0
1,59,115,0
1,42,100,304
1,37,70,0
1,59,90,0
1,38,40,182
1,59,55,0
1,59,115,0
1,42,100,304
1,37,70,0
1,59,90,0
1,38,40,182
1,59,60,0
1,59,100,0
1,38,90,176
1,42,100,48
1,37,70,0
1,59,90,0
1,35,80,176
1,59,120,0
1,38,70,176
1,42,100,48
1,37,70,0
1,59,115,0
1,38,50,176
1,59,115,0
1,59,70,188
1,42,100,36
1,37,70,0
1,59,100,0
1,38,40,304
1,59,115,0
1,42,100,304
1,37,70,0
1,59,90,0
1,59,50,188
1,35,80,36
1,59,115,0
1,59,70,188
1,42,100,36
1,37,70,0
1,59,100,0
1,38,30,188
1,38,40,36
1,59,115,0
1,35,88,304
1,40,88,0
1,42,100,0
1,37,70,0
1,59,90,0
1,49,88,0
1,59,50,172
1,35,60,36
1,59,120,0
1,42,100,304
1,37,70,0
1,59,100,0
1,38,40,188
1,59,55,0
1,59,115,36
1,46,85,188
1,35,88,36
1,40,88,0
1,42,100,0
1,37,70,0
1,59,100,0
1,57,88,160
1,38,80,12
1,59,60,0
1,38,100,36
1,35,100,0
1,38,60,48
1,38,50,48
1,38,88,48
1,42,100,0
1,38,88,167
1,48,90,0
1,38,60,39
1,38,40,48
1,45,90,48
1,42,100,48
1,38,60,0
1,38,40,48
1,41,90,48
1,38,81,4
1,38,81,0
1,35,88,0
1,38,88,0
1,35,88,167
1,38,88,0
1,59,70,12
1,59,90,36
1,37,70,0
1,42,100,0
1,59,55,182
1,59,115,42
1,38,40,0
1,59,90,304
1,37,70,0
1,42,100,0
1,59,50,182
1,59,115,42
1,35,80,0
1,59,70,188
1,59,100,36
1,37,70,0
1,42,100,0
1,38,30,188
1,59,115,36
1,38,40,0
1,38,81,240
1,38,81,0
1,38,100,0
1,59,90,0
1,37,70,0
1,42,100,0
1,35,88,176
1,49,88,0
1,59,50,12
1,59,115,21
1,35,88,304
1,38,88,0
1,59,90,0
1,37,70,0
1,42,100,0
1,59,55,179
1,38,81,52
1,38,81,0
1,38,88,0
1,59,115,0
1,38,88,167
1,46,70,12
1,59,80,36
1,37,70,0
1,42,100,0
1,59,60,188
1,59,115,0
1,59,70,188
1,59,100,36
1,37,70,0
1,42,100,0
1,59,115,304
1,38,40,0
1,59,90,304
1,37,70,0
1,42,100,0
1,59,50,188
1,49,90,36
1,59,115,0
1,35,80,0
1,59,90,304
1,37,70,0
1,42,100,0
1,59,55,188
1,38,40,0
1,59,115,36
1,38,50,188
1,59,80,36
1,37,70,0
1,42,100,0
1,59,60,188
1,59,115,36
1,35,80,0
1,59,70,188
1,59,100,36
1,37,70,0
1,42,100,0
1,38,30,188
1,59,115,36
1,38,40,0
1,35,88,176
1,38,88,0
1,59,90,39
1,37,70,0
1,42,100,0
1,35,88,176
1,38,88,0
1,57,88,0
1,59,50,12
1,59,115,36
1,59,90,304
1,37,70,0
1,42,100,0
1,59,55,188
1,38,40,0
1,59,115,36
1,59,80,188
1,59,80,36
1,37,70,0
1,42,100,0
1,59,60,188
1,35,60,0
1,40,86,0
1,59,86,0
1,35,86,0
1,38,86,0
1,41,88,48
1,38,88,0
1,40,89,77
1,38,89,0
1,41,90,77
1,38,90,0
1,40,91,52
1,38,91,0
1,41,93,26
1,38,93,0
1,38,94,0
1,40,94,0
1,43,94,0
1,38,96,77
1,41,96,0
1,45,96,0
1,38,98,77
1,40,98,0
1,43,98,0
1,35,98,6
1,38,81,13
1,38,81,0
1,43,94,0
1,40,94,0
1,38,94,0
1,49,106,26
1,45,100,6
1,35,100,0
1,59,115,0
1,35,70,304
1,40,106,0
1,59,90,0
1,37,70,0
1,42,100,0
1,59,55,182
1,59,115,42
1,38,40,0
1,59,80,182
1,35,70,42
1,40,106,0
1,59,90,0
1,37,70,0
1,42,100,0
1,59,50,182
1,59,115,0
1,35,80,0
1,35,70,304
1,40,106,0
1,59,80,0
1,37,70,0
1,42,100,0
1,59,50,182
1,59,115,42
1,59,90,182
1,35,115,42
1,40,115,0
1,59,90,0
1,59,60,182
1,40,115,42
1,35,115,0
1,59,115,0
1,35,70,304
1,59,90,0
1,37,70,0
1,42,100,0
1,40,106,0
1,59,55,182
1,38,40,0
1,59,115,42
1,35,70,304
1,40,106,0
1,59,90,0
1,37,70,0
1,42,100,0
1,59,60,182
1,38,40,0
1,59,115,42
1,35,70,304
1,40,106,0
1,59,100,0
1,37,70,0
1,42,100,0
1,59,60,182
1,38,40,0
1,59,115,42
1,59,90,182
1,38,40,0
1,35,70,42
1,40,106,0
1,59,90,0
1,37,70,0
1,42,100,0
1,59,50,182
1,59,115,42
1,35,70,304
1,40,106,0
1,59,90,0
1,37,70,0
1,42,100,0
1,59,55,182
1,38,40,0
1,59,115,42
1,46,80,182
1,35,70,42
1,40,106,0
1,59,90,0
1,37,70,0
1,42,100,0
1,59,60,182
1,38,40,0
1,59,115,0
1,35,80,0
1,59,70,76
1,35,70,0
1,40,106,0
1,59,100,0
1,37,70,0
1,42,100,0
1,40,89,64
1,38,89,0
1,35,82,0
1,49,82,0
1,38,81,349
1,38,81,0
1,40,100,0
1,35,100,0
1,38,100,0
1,35,85,176
1,38,85,0
1,40,85,0
1,38,80,1664
1,38,50,57
1,42,100,39
1,38,60,0
1,38,90,48
1,48,90,57
1,38,60,39
1,38,60,48
1,41,90,57
1,42,100,39
1,38,108,0
1,38,70,48
1,35,90,57
1,49,90,39
1,59,115,0
1,35,80,0
1,38,70,182
1,59,90,42
1,37,70,0
1,44,100,0
1,59,55,182
1,59,115,42
1,38,40,0
1,59,90,304
1,37,70,0
1,44,100,0
1,59,50,182
1,59,115,42
1,59,100,304
1,37,70,0
1,44,100,0
1,59,60,182
1,38,40,0
1,59,115,42
1,38,40,182
1,59,90,42
1,37,70,0
1,44,100,0
1,59,50,182
1,59,115,42
1,59,70,188
1,59,100,36
1,37,70,0
1,44,100,0
1,59,115,304
1,38,40,0
1,59,90,304
1,37,70,0
1,44,100,0
1,59,50,188
1,59,115,36
1,35,80,0
1,59,70,188
1,59,100,36
1,37,70,0
1,44,100,0
1,59,115,304
1,38,40,0
1,59,90,304
1,37,70,0
1,44,100,0
1,59,50,188
