track,note,velocity,time
1,36,95,4480
1,49,55,8
1,46,56,4
1,36,72,75
1,42,62,20
1,44,55,229
1,42,109,89
1,37,57,6
1,44,60,227
1,42,59,69
1,36,72,8
1,44,70,219
1,42,117,81
1,37,54,13
1,44,67,212
1,36,72,93
1,42,65,17
1,44,58,207
1,37,61,99
1,42,120,6
1,44,64,218
1,42,69,91
1,36,72,5
1,36,72,225
1,44,71,13
1,42,113,86
1,37,68,9
1,46,120,222
1,44,66,4
1,36,72,11
1,36,72,76
1,42,65,2
1,44,66,243
1,42,111,83
1,37,66,4
1,44,68,241
1,36,72,80
1,42,66,2
1,44,72,246
1,42,114,67
1,37,71,19
1,44,70,224
1,36,72,77
1,42,69,2
1,44,55,223
1,42,120,88
1,37,63,19
1,44,60,209
1,36,72,94
1,42,61,8
1,36,72,219
1,44,54,11
1,37,61,92
1,42,103,4
1,36,72,198
1,44,58,19
1,46,111,1
1,36,72,79
1,42,58,1
1,44,64,227
1,37,54,104
1,42,116,7
1,44,67,214
1,42,56,99
1,36,72,1
1,44,73,229
1,37,66,81
1,42,114,1
1,44,64,237
1,42,69,86
1,36,72,14
1,44,60,223
1,42,107,93
1,37,57,7
1,44,72,226
1,36,72,92
1,42,66,8
1,36,72,216
1,44,66,18
1,37,68,75
1,42,117,12
1,44,71,209
1,46,120,3
1,36,72,5
1,36,72,89
1,42,58,14
1,44,61,208
1,37,55,78
1,42,108,19
1,44,60,210
1,36,72,69
1,42,58,5
1,44,70,235
1,37,71,89
1,42,114,3
1,44,71,230
1,36,72,93
1,42,63,3
1,44,70,198
1,42,105,101
1,37,59,12
1,44,64,214
1,36,72,77
1,42,67,4
1,43,71,213
1,36,72,6
1,44,72,7
1,42,113,90
1,37,71,4
1,47,66,5
1,44,65,207
1,46,115,5
1,36,72,11
1,49,81,6
1,42,62,77
1,36,72,8
1,42,62,2
1,44,55,214
1,42,109,100
1,37,57,3
1,44,60,216
1,36,72,82
1,42,59,6
1,44,70,212
1,37,54,99
1,42,117,7
1,44,67,219
1,36,72,96
1,42,65,8
1,44,58,225
1,37,61,83
1,42,120,4
1,44,64,224
1,42,69,88
1,36,72,7
1,36,72,223
1,44,71,2
1,42,113,93
1,37,68,23
1,44,66,213
1,36,72,2
1,46,120,2
1,36,72,75
1,42,65,6
1,44,66,244
1,37,66,77
1,42,111,4
1,44,68,222
1,42,66,99
1,36,72,10
1,44,72,217
1,37,71,95
1,42,114,4
1,44,70,205
1,42,69,95
1,36,72,9
1,44,55,220
1,37,63,88
1,42,120,12
1,44,60,210
1,42,61,97
1,36,72,2
1,36,72,218
1,44,54,16
1,37,61,80
1,42,103,16
1,36,72,216
1,46,111,3
1,44,58,13
1,36,72,76
1,42,58,9
1,44,64,209
1,42,116,106
1,37,54,9
1,44,67,216
1,42,56,93
1,36,72,2
1,44,73,230
1,42,114,82
1,37,66,10
1,44,64,236
1,36,72,92
1,42,69,4
1,44,60,230
1,37,57,76
1,42,107,3
1,44,72,236
1,36,72,84
1,42,66,20
1,36,72,216
1,44,66,11
1,42,117,69
1,37,68,11
1,36,72,229
1,46,120,2
1,44,71,1
1,36,72,69
1,42,58,9
1,44,61,223
1,37,55,87
1,42,108,13
1,44,60,220
1,36,72,76
1,42,58,2
1,44,70,233
1,42,114,100
1,37,71,3
1,44,71,215
1,36,72,92
1,42,63,9
1,44,70,212
1,37,59,90
1,42,105,1
1,44,64,218
1,42,67,85
1,36,72,11
1,36,72,202
1,43,71,1
1,44,72,12
1,47,66,78
1,37,71,6
1,42,113,6
1,49,94,223
1,44,65,1
1,36,72,1
1,36,72,78
1,42,62,11
1,42,62,4
1,42,62,5
1,44,55,212
1,37,57,102
1,42,109,1
1,44,60,211
1,36,72,91
1,42,59,16
1,44,70,210
1,42,117,80
1,37,54,5
1,44,67,220
1,36,72,104
1,42,65,10
1,44,58,206
1,37,61,109
1,42,120,6
1,44,64,202
1,36,72,103
1,42,69,15
1,44,71,208
1,36,72,4
1,42,113,99
1,37,68,23
1,46,120,213
1,36,72,4
1,44,66,1
1,36,72,84
1,42,65,11
1,44,66,212
1,42,111,99
1,37,66,19
1,44,68,212
1,36,72,83
1,42,66,20
1,44,72,213
1,37,71,87
1,42,114,9
1,44,70,220
1,42,69,91
1,36,72,3
1,44,55,214
1,42,120,92
1,37,63,8
1,44,60,210
1,42,61,108
1,36,72,4
1,36,72,215
1,44,54,10
1,37,61,105
1,42,103,5
1,36,72,201
1,46,111,4
1,44,58,5
1,42,58,87
1,36,72,1
1,44,64,228
1,42,116,102
1,37,54,9
1,44,67,217
1,36,72,86
1,42,56,12
1,44,73,209
1,37,66,90
1,42,114,8
1,44,64,241
1,36,72,86
1,42,69,11
1,44,60,222
1,37,57,106
1,42,107,2
1,44,72,213
1,42,66,103
1,36,72,2
1,36,72,212
1,44,66,5
1,42,117,101
1,37,68,6
1,46,120,205
1,36,72,6
1,44,71,9
1,42,58,84
1,36,72,9
1,44,61,230
1,42,108,83
1,37,55,2
1,44,60,225
1,42,58,88
1,36,72,3
1,44,70,218
1,37,71,98
1,42,114,13
1,44,71,206
1,36,72,1
1,42,63,10
1,44,70,56
1,42,105,8
1,37,59,1
1,44,64,63
1,36,72,90
1,42,67,5
1,43,71,56
1,44,72,7
1,36,72,3
1,40,67,86
1,47,66,2
1,42,113,9
1,40,41,83
1,44,65,56
1,46,115,3
1,36,72,1
1,40,100,8
1,36,72,83
1,36,72,1
1,42,62,3
1,42,62,5
1,49,121,1
1,51,55,230
1,37,57,83
1,40,109,1
1,42,109,1
1,51,102,9
1,51,60,229
1,36,72,75
1,42,59,3
1,51,105,1
1,51,70,201
1,40,117,89
1,42,117,6
1,37,54,13
1,51,115,3
1,51,67,206
1,36,72,95
1,42,65,15
1,51,113,8
1,51,58,214
1,51,102,86
1,40,109,3
1,37,61,4
1,42,120,7
1,51,64,213
1,36,72,96
1,51,118,0
1,42,69,7
1,36,72,233
1,51,71,5
1,42,113,76
1,37,68,4
1,40,117,6
1,51,105,11
1,46,120,217
1,36,72,6
1,51,66,5
1,42,65,80
1,51,107,1
1,36,72,9
1,51,66,241
1,51,114,78
1,40,109,3
1,42,111,12
1,37,66,0
1,51,68,215
1,36,72,88
1,51,103,8
1,42,66,10
1,51,72,224
1,42,114,72
1,37,71,4
1,40,117,16
1,51,108,3
1,51,70,199
1,51,115,101
1,36,72,3
1,42,69,7
1,51,55,198
1,37,63,86
1,40,109,0
1,51,108,5
1,42,120,17
1,51,60,200
1,36,72,108
1,42,61,7
1,51,108,2
1,51,54,204
1,36,72,9
1,37,61,76
1,40,117,8
1,51,115,0
1,42,103,8
1,51,58,215
1,46,111,12
1,36,72,3
1,51,121,87
1,42,58,10
1,36,72,1
1,51,64,216
1,42,116,83
1,37,54,11
1,51,117,7
1,40,109,2
1,51,67,213
1,36,72,94
1,42,56,11
1,51,110,3
1,51,73,224
1,40,117,77
1,37,66,4
1,42,114,1
1,51,103,1
1,51,64,229
1,42,69,98
1,51,103,7
1,36,72,3
1,51,60,228
1,37,57,81
1,51,107,2
1,42,107,3
1,40,109,7
1,51,72,223
1,36,72,79
1,51,112,15
1,42,66,11
1,36,72,214
1,51,66,9
1,42,117,72
1,51,105,5
1,40,117,3
1,37,68,6
1,49,120,208
1,51,71,12
1,36,72,4
1,42,58,88
1,36,72,0
1,51,102,10
1,51,61,204
1,37,55,92
1,40,109,0
1,42,108,14
1,51,116,2
1,51,60,202
1,51,109,85
1,42,58,0
1,36,72,9
1,51,70,237
1,42,114,81
1,51,106,3
1,40,117,8
1,37,71,11
1,51,71,192
1,40,81,57
1,40,81,23
1,36,72,6
1,40,94,15
1,51,119,5
1,51,61,206
1,40,109,76
1,49,109,0
1,42,105,5
1,36,94,2
1,51,116,4
1,40,21,34
1,40,54,132
1,40,115,135
1,40,127,243
1,43,71,3
1,40,117,91
1,47,66,6
1,36,100,7
1,42,113,3
1,40,41,35
1,40,100,134
1,36,72,0
1,46,115,9
1,49,121,77
1,36,72,8
1,42,58,4
1,51,64,216
1,37,54,97
1,42,116,3
1,51,117,12
1,51,67,198
1,36,72,31
1,51,110,12
1,42,56,0
1,51,73,212
1,37,90,88
1,42,90,1
1,51,90,1
1,44,72,9
1,51,64,2
1,36,72,7
1,36,72,72
1,42,62,4
1,44,55,59
1,37,57,98
1,42,109,3
1,44,60,107
1,36,72,89
1,42,59,13
1,44,70,167
1,42,117,76
1,37,54,9
1,44,67,206
1,36,72,90
1,42,65,7
1,44,58,221
1,37,61,87
1,42,120,6
1,44,64,217
1,36,72,95
1,42,69,16
1,36,72,206
1,44,71,18
1,37,68,87
1,42,113,18
1,46,120,214
1,36,72,4
1,44,66,9
1,36,72,80
1,42,65,21
1,40,81,207
1,44,66,5
1,42,111,32
1,37,66,11
1,44,68,238
1,42,66,73
1,36,72,10
1,40,81,6
1,44,72,176
1,37,71,77
1,42,114,7
1,44,70,236
1,36,72,90
1,42,69,7
1,40,81,207
1,44,55,5
1,37,63,30
1,42,120,14
1,44,60,220
1,42,61,96
1,36,72,1
1,36,72,213
1,44,54,0
1,37,61,103
1,42,103,4
1,36,72,211
1,46,111,8
1,44,58,11
1,42,58,86
1,36,72,1
1,44,64,221
1,42,116,95
1,37,54,15
1,44,67,221
1,42,56,86
1,36,72,11
1,44,73,223
1,42,114,76
1,37,66,1
1,40,75,226
1,44,64,6
1,42,69,43
1,36,72,14
1,44,60,235
1,37,57,84
1,42,107,10
1,44,72,220
1,36,72,90
1,42,66,7
1,40,75,209
1,36,72,2
1,44,66,12
1,42,117,44
1,44,71,217
1,36,72,12
1,46,120,6
1,40,69,66
1,36,72,3
1,42,58,12
1,44,61,195
1,42,108,78
1,37,55,4
1,44,60,228
1,36,72,60
1,42,58,5
1,40,75,239
1,44,70,5
1,42,114,21
1,36,71,7
1,40,69,214
1,44,71,4
1,42,63,48
1,36,72,2
1,44,70,212
1,42,105,110
1,37,59,4
1,44,64,220
1,36,72,80
1,42,67,8
1,36,72,215
1,43,71,7
1,44,72,1
1,42,113,73
1,47,66,12
1,37,71,6
1,36,72,207
1,44,65,5
1,46,115,18
1,42,58,1
1,36,72,6
1,40,91,61
1,44,61,1
1,42,108,8
1,40,21,32
1,44,60,62
1,40,54,2
1,40,115,5
1,36,72,2
1,42,58,3
1,44,70,69
1,40,127,1
1,36,71,90
1,40,54,2
1,42,114,5
1,40,69,31
1,36,72,60
1,40,81,3
1,49,120,12
1,36,72,69
1,42,62,11
1,51,55,218
1,51,102,91
1,42,109,1
1,37,57,15
1,51,60,209
1,36,72,84
1,42,59,9
1,51,105,1
1,51,70,209
1,40,69,8
1,42,103,0
1,36,72,15
1,42,64,98
1,37,54,2
1,51,115,14
1,36,68,196
1,51,67,1
1,49,120,5
1,51,113,80
1,42,65,8
1,51,58,219
1,40,88,90
1,42,120,5
1,36,61,6
1,51,102,1
1,40,94,157
1,51,64,0
1,36,64,12
1,40,103,14
1,42,69,2
1,51,118,10
1,40,41,103
1,47,99,107
1,51,71,8
1,36,72,6
1,51,105,91
1,37,68,2
1,40,32,1
1,42,113,3
1,40,48,96
1,40,120,135
1,51,66,1
1,36,72,1
1,49,113,87
1,42,65,0
1,36,72,9
1,51,66,223
1,42,111,84
1,37,66,2
1,51,114,11
1,51,68,223
1,42,66,90
1,51,103,6
1,36,72,1
1,51,72,214
1,51,108,90
1,37,71,9
1,42,114,12
1,51,70,208
1,51,115,84
1,42,69,7
1,40,75,1
1,36,72,2
1,40,94,179
1,51,55,3
1,51,108,37
1,37,63,10
1,42,120,1
1,51,66,209
1,40,82,53
1,40,94,24
1,40,81,19
1,36,72,6
1,51,108,8
1,42,61,7
1,49,115,193
1,36,81,0
1,40,101,3
1,37,61,5
1,42,103,13
1,36,72,214
1,51,58,17
1,51,121,87
1,42,58,1
1,36,72,10
1,51,64,213
1,42,116,90
1,51,117,2
1,37,54,2
1,51,67,215
1,51,110,108
1,36,72,6
1,42,56,12
1,51,73,220
1,37,66,78
1,51,103,7
1,42,114,4
1,51,64,217
1,36,72,100
1,51,103,8
1,40,94,2
1,42,69,1
1,51,60,158
1,42,107,98
1,40,94,4
1,51,107,3
1,37,57,12
1,51,72,162
1,40,88,97
1,42,66,1
1,51,112,6
1,36,72,6
1,51,66,192
1,40,81,23
1,40,81,2
1,42,117,16
1,36,68,11
1,40,117,1
1,51,105,1
1,49,120,207
1,40,101,4
1,36,72,15
1,36,72,84
1,42,58,14
1,51,61,207
1,42,108,86
1,37,55,11
1,51,116,12
1,51,60,220
1,51,109,73
1,42,58,3
1,36,72,9
1,51,70,227
1,42,114,92
1,51,106,10
1,37,71,0
1,51,71,201
1,36,72,99
1,42,63,2
1,51,119,4
1,51,70,220
1,42,105,79
1,51,109,17
1,37,59,3
1,51,64,204
1,36,72,96
1,51,111,3
1,42,67,13
1,36,72,195
1,43,71,2
1,51,72,14
1,51,118,79
1,42,113,8
1,40,113,3
1,37,71,0
1,49,115,203
1,40,115,8
1,36,72,5
1,36,72,67
1,42,62,15
1,51,55,237
1,51,102,82
1,42,109,1
1,37,57,11
1,51,60,210
1,36,72,89
1,42,59,5
1,51,105,2
1,51,70,209
1,37,54,95
1,42,117,2
1,51,115,0
1,51,67,206
1,51,113,101
1,36,72,0
1,42,65,9
1,51,58,216
1,37,61,102
1,51,102,2
1,42,120,1
1,51,64,214
1,36,72,86
1,51,118,9
1,42,69,4
1,36,72,215
1,51,71,2
1,51,105,104
1,42,113,4
1,37,68,3
1,36,72,216
1,46,120,8
1,51,66,2
1,42,65,86
1,36,72,9
1,51,107,6
1,51,66,227
1,37,66,83
1,42,111,4
1,51,114,6
1,51,68,232
1,36,72,68
1,51,103,13
1,42,66,7
1,51,72,220
1,51,108,81
1,37,71,0
1,42,114,16
1,51,70,222
1,51,115,69
1,36,72,8
1,42,69,2
1,51,55,217
1,51,108,88
1,37,63,8
1,42,120,11
1,51,60,212
1,36,72,98
1,51,108,8
1,42,61,4
1,36,72,192
1,51,54,15
1,37,61,94
1,42,103,1
1,51,115,20
1,51,58,198
1,46,111,13
1,36,72,3
1,51,121,79
1,36,72,7
1,42,58,0
1,51,64,77
1,37,54,6
1,42,116,2
1,51,117,6
1,51,67,60
1,42,56,2
1,36,72,6
1,51,110,7
1,51,73,74
1,42,114,3
1,37,66,1
1,51,103,3
1,51,64,63
1,51,103,16
1,42,69,0
1,36,72,12
1,51,60,227
1,42,107,90
1,51,107,8
1,37,57,0
1,51,72,234
1,51,112,80
1,36,72,12
1,42,66,0
1,36,72,211
1,51,66,16
1,51,105,73
1,37,68,6
1,42,117,13
1,36,72,211
1,51,71,2
1,46,120,5
1,42,58,80
1,36,72,5
1,51,102,15
1,51,61,222
1,37,55,70
1,42,108,8
1,51,116,8
1,51,60,219
1,36,72,67
1,51,109,8
1,42,58,4
1,51,70,229
1,37,71,87
1,42,114,8
1,51,106,5
1,51,71,202
1,51,119,2
1,36,72,8
1,42,63,2
1,51,70,62
1,42,105,97
1,51,109,2
1,37,59,3
1,51,64,70
1,42,67,0
1,36,72,8
1,51,111,1
1,43,71,55
1,36,72,1
1,51,72,18
1,51,118,71
1,37,71,7
1,47,66,1
1,42,113,0
1,49,115,64
1,36,72,8
1,36,72,6
1,42,62,7
1,51,55,221
1,42,109,73
1,51,102,12
1,37,57,4
1,51,60,226
1,36,72,63
1,51,105,15
1,42,59,13
1,51,70,201
1,51,115,92
1,42,117,3
1,37,54,8
1,51,67,209
1,36,72,107
1,51,113,2
1,42,65,3
1,51,58,206
1,42,120,94
1,51,102,2
1,37,61,13
1,51,64,210
1,51,118,94
1,36,72,10
1,42,69,2
1,51,71,225
1,36,72,8
1,42,113,101
1,51,105,7
1,37,68,3
1,46,120,216
1,36,72,8
1,51,66,5
1,36,72,74
1,42,65,3
1,51,107,7
1,51,66,238
1,42,111,84
1,37,66,8
1,51,114,1
1,40,75,204
1,36,68,16
1,51,68,1
1,42,66,54
