track,note,velocity,time
1,76,88,3030
1,71,88,0
1,69,88,0
1,76,88,120
1,71,88,0
1,69,88,0
1,64,88,360
1,59,88,0
1,57,88,0
1,74,88,1000
1,69,88,0
1,66,88,0
1,74,88,120
1,69,88,0
1,66,88,0
1,62,88,360
1,57,88,0
1,54,88,0
1,73,88,1000
1,69,88,0
1,64,88,0
1,73,88,120
1,69,88,0
1,64,88,0
1,61,88,360
1,57,88,0
1,52,88,0
1,74,88,1000
1,69,88,0
1,66,88,0
1,74,88,120
1,69,88,0
1,66,88,0
1,62,88,360
1,57,88,0
1,54,88,0
1,76,88,1000
1,71,88,0
1,69,88,0
1,76,88,120
1,71,88,0
1,69,88,0
1,64,88,360
1,59,88,0
1,57,88,0
1,74,88,1000
1,69,88,0
1,66,88,0
1,74,88,120
1,69,88,0
1,66,88,0
1,62,88,360
1,57,88,0
1,54,88,0
1,73,88,1000
1,69,88,0
1,64,88,0
1,73,88,120
1,69,88,0
1,64,88,0
1,61,88,360
1,57,88,0
1,52,88,0
1,74,88,1000
1,69,88,0
1,66,88,0
1,74,88,120
1,69,88,0
1,66,88,0
1,62,88,360
1,57,88,0
1,54,88,0
1,76,88,1000
1,71,88,0
1,69,88,0
1,76,88,120
1,71,88,0
1,69,88,0
1,64,88,360
1,59,88,0
1,57,88,0
1,74,88,1000
1,69,88,0
1,66,88,0
1,74,88,120
1,69,88,0
1,66,88,0
1,62,88,360
1,57,88,0
1,54,88,0
1,73,88,1000
1,69,88,0
1,64,88,0
1,73,88,120
1,69,88,0
1,64,88,0
1,61,88,360
1,57,88,0
1,52,88,0
1,74,88,1000
1,69,88,0
1,66,88,0
1,74,88,120
1,69,88,0
1,66,88,0
1,62,88,360
1,57,88,0
1,54,88,0
1,76,88,1000
1,71,88,0
1,69,88,0
1,76,88,120
1,71,88,0
1,69,88,0
1,64,88,360
1,59,88,0
1,57,88,0
1,74,88,1000
1,69,88,0
1,66,88,0
1,74,88,120
1,69,88,0
1,66,88,0
1,62,88,360
1,57,88,0
1,54,88,0
1,73,88,1000
1,69,88,0
1,64,88,0
1,73,88,120
1,69,88,0
1,64,88,0
1,61,88,360
1,57,88,0
1,52,88,0
1,74,88,1000
1,69,88,0
1,66,88,0
1,74,88,120
1,69,88,0
1,66,88,0
1,62,88,360
1,57,88,0
1,54,88,0
1,89,80,0
1,86,80,20
1,81,80,20
1,91,80,20
1,88,80,40
1,83,80,20
1,89,80,20
1,86,80,20
1,88,80,20
1,84,80,20
1,79,80,20
1,89,80,20
1,86,80,40
1,81,80,20
1,88,80,20
1,84,80,20
1,84,80,20
1,81,80,20
1,77,80,20
1,86,80,20
1,82,80,40
1,77,80,20
1,86,80,20
1,82,80,20
1,77,80,20
1,84,80,20
1,86,80,20
1,89,80,40
1,86,80,20
1,82,80,20
1,89,80,20
1,86,80,20
1,81,80,20
1,91,80,20
1,88,80,40
1,83,80,20
1,89,80,20
1,86,80,20
1,88,80,20
1,84,80,20
1,79,80,20
1,89,80,20
1,86,80,40
1,81,80,20
1,88,80,20
1,84,80,20
1,84,80,20
1,81,80,20
1,77,80,20
1,86,80,20
1,82,80,40
1,77,80,20
1,86,80,20
1,82,80,20
1,77,80,20
1,84,80,20
1,86,80,20
1,77,80,40
1,82,80,20
1,84,80,20
1,89,80,20
1,86,80,20
1,81,80,20
1,91,80,20
1,88,80,40
1,83,80,20
1,89,80,20
1,86,80,20
1,88,80,20
1,84,80,20
1,79,80,20
1,89,80,20
1,86,80,40
1,81,80,20
1,88,80,20
1,84,80,20
1,93,80,20
1,89,80,20
1,84,80,20
1,94,80,20
1,91,80,40
1,86,80,20
1,93,80,20
1,89,80,20
1,89,80,20
1,86,70,20
1,82,60,20
1,89,50,20
1,86,40,40
1,82,30,20
1,89,20,20
1,86,10,20
1,65,88,0
1,62,88,0
1,57,88,0
1,65,88,60
1,62,88,0
1,57,88,0
1,64,88,60
1,60,88,0
1,55,88,0
1,65,88,60
1,62,88,0
1,57,88,0
1,62,88,300
1,57,88,0
1,53,88,0
1,93,64,4820
1,86,64,260
1,88,64,20
1,81,64,20
1,86,64,20
1,93,80,20
2,76,64,2715
2,88,64,20
2,87,64,20
2,85,64,20
2,83,64,40
2,81,64,20
2,80,64,20
2,78,64,20
2,74,64,20
2,86,64,20
2,85,64,20
2,83,64,20
2,81,64,40
2,80,64,20
2,78,64,20
2,76,64,20
2,73,64,20
2,81,64,20
2,80,64,20
2,78,64,20
2,76,64,40
2,74,64,20
2,76,64,2420
2,88,64,20
2,87,64,20
2,85,64,20
2,83,64,40
2,81,64,20
2,80,64,20
2,78,64,20
2,74,64,20
2,86,64,20
2,85,64,20
2,83,64,20
2,81,64,40
2,80,64,20
2,78,64,20
2,76,64,20
2,73,64,20
2,81,64,20
2,80,64,20
2,78,64,20
2,76,64,40
2,74,64,20
2,76,64,2420
2,88,64,20
2,87,64,20
2,85,64,20
2,83,64,40
2,81,64,20
2,80,64,20
2,78,64,20
2,74,64,20
2,86,64,20
2,85,64,20
2,83,64,20
2,81,64,40
2,80,64,20
2,78,64,20
2,76,64,20
2,73,64,20
2,81,64,20
2,80,64,20
2,78,64,20
2,76,64,40
2,74,64,20
2,76,64,2420
2,88,64,20
2,87,64,20
2,85,64,20
2,83,64,40
2,81,64,20
2,80,64,20
2,78,64,20
2,74,64,20
2,86,64,20
2,85,64,20
2,83,64,20
2,81,64,40
2,80,64,20
2,78,64,20
2,76,64,20
2,73,64,20
2,81,64,20
2,80,64,20
2,78,64,20
2,76,64,40
2,74,64,20
3,71,72,2600
3,68,72,0
3,73,72,540
3,69,72,0
3,71,72,540
3,68,72,0
3,69,72,300
3,66,72,0
3,71,72,540
3,68,72,0
3,69,72,540
3,66,72,0
3,69,72,300
3,64,72,0
3,69,72,80
3,66,72,0
3,69,72,60
3,66,72,0
3,71,72,20
3,68,72,0
3,73,72,540
3,69,72,0
3,71,72,540
3,68,72,0
3,69,72,300
3,66,72,0
3,71,72,540
3,68,72,0
3,69,72,540
3,66,72,0
3,69,72,300
3,64,72,0
3,69,72,80
3,66,72,0
3,69,72,60
3,66,72,0
3,71,72,20
3,68,72,0
3,73,72,540
3,69,72,0
3,71,72,540
3,68,72,0
3,69,72,300
3,66,72,0
3,71,72,540
3,68,72,0
3,69,72,540
3,66,72,0
3,69,72,300
3,64,72,0
3,69,72,80
3,66,72,0
3,69,72,60
3,66,72,0
3,71,72,20
3,68,72,0
3,73,72,540
3,69,72,0
3,71,72,540
3,68,72,0
3,69,72,300
3,66,72,0
3,71,72,540
3,68,72,0
3,69,72,540
3,66,72,0
3,69,72,300
3,64,72,0
3,69,72,80
3,66,72,0
3,69,72,60
3,66,72,0
3,65,72,0
3,62,72,0
3,57,72,0
3,67,72,40
3,64,72,0
3,59,72,0
3,65,72,40
3,62,72,0
3,57,72,0
3,64,72,30
3,60,72,0
3,55,72,0
3,65,72,40
3,62,72,0
3,57,72,0
3,64,72,40
3,60,72,0
3,55,72,0
3,60,72,30
3,57,72,0
3,52,72,0
3,62,72,40
3,58,72,0
3,53,72,0
3,62,72,20
3,58,72,0
3,53,72,0
3,65,72,20
3,62,72,0
3,57,72,0
3,67,72,40
3,64,72,0
3,59,72,0
3,65,72,40
3,62,72,0
3,57,72,0
3,64,72,30
3,60,72,0
3,55,72,0
3,65,72,40
3,62,72,0
3,57,72,0
3,64,72,40
3,60,72,0
3,55,72,0
3,60,72,30
3,57,72,0
3,52,72,0
3,62,72,40
3,58,72,0
3,53,72,0
3,62,72,20
3,58,72,0
3,53,72,0
3,65,72,20
3,62,72,0
3,57,72,0
3,67,72,40
3,64,72,0
3,59,72,0
3,65,72,40
3,62,72,0
3,57,72,0
3,64,72,30
3,60,72,0
3,55,72,0
3,65,72,40
3,62,72,0
3,57,72,0
3,67,72,40
3,64,72,0
3,60,72,0
3,60,72,30
3,69,72,0
3,65,72,0
3,70,72,40
3,67,72,0
3,69,72,40
3,65,72,0
3,65,72,30
3,62,72,0
3,58,72,0
3,65,72,20
3,62,72,0
3,65,72,20
3,62,72,0
3,64,72,20
3,60,72,0
3,65,72,20
3,62,72,0
3,62,72,260
3,57,72,0
3,60,72,20
3,58,72,0
3,62,72,20
3,57,72,0
4,40,80,2525
4,28,80,0
4,40,80,120
4,28,80,0
4,40,80,120
4,28,80,0
4,40,80,120
4,28,80,0
4,40,80,120
4,28,80,0
4,40,80,120
4,28,80,0
4,40,80,120
4,28,80,0
4,40,80,120
4,28,80,0
4,40,80,120
4,28,80,0
4,40,80,120
4,28,80,0
4,40,80,120
4,28,80,0
4,40,80,120
4,28,80,0
4,40,80,120
4,28,80,0
4,40,80,120
4,28,80,0
4,40,80,120
4,28,80,0
4,40,80,120
4,28,80,0
4,40,80,120
4,28,80,0
4,40,80,120
4,28,80,0
4,40,80,120
4,28,80,0
4,40,80,120
4,28,80,0
4,40,80,120
4,28,80,0
4,40,80,120
4,28,80,0
4,40,80,360
4,28,80,0
4,40,80,120
4,28,80,0
4,40,80,120
4,28,80,0
4,40,80,120
4,28,80,0
4,40,80,120
4,28,80,0
4,40,80,120
4,28,80,0
4,40,80,120
4,28,80,0
4,40,80,120
4,28,80,0
4,40,80,20
4,28,80,0
4,40,80,120
4,28,80,0
4,40,80,120
4,28,80,0
4,40,80,120
4,28,80,0
4,40,80,120
4,28,80,0
4,40,80,120
4,28,80,0
4,40,80,120
4,28,80,0
4,40,80,120
4,28,80,0
4,40,80,120
4,28,80,0
4,40,80,120
4,28,80,0
4,40,80,120
4,28,80,0
4,40,80,120
4,28,80,0
4,40,80,120
4,28,80,0
4,40,80,120
4,28,80,0
4,40,80,120
4,28,80,0
4,40,80,120
4,28,80,0
4,40,80,120
4,28,80,0
4,40,80,120
4,28,80,0
4,40,80,120
4,28,80,0
4,40,80,120
4,28,80,0
4,40,80,120
4,28,80,0
4,40,80,120
4,28,80,0
4,40,80,120
4,28,80,0
4,40,80,360
4,28,80,0
4,40,80,120
4,28,80,0
4,40,80,120
4,28,80,0
4,40,80,120
4,28,80,0
4,40,80,120
4,28,80,0
4,40,80,120
4,28,80,0
4,40,80,120
4,28,80,0
4,40,80,120
4,28,80,0
4,40,80,20
4,28,80,0
4,40,80,120
4,28,80,0
4,40,80,120
4,28,80,0
4,40,80,120
4,28,80,0
4,40,80,120
4,28,80,0
4,40,80,120
4,28,80,0
4,40,80,120
4,28,80,0
4,40,80,120
4,28,80,0
4,40,80,120
4,28,80,0
4,40,80,120
4,28,80,0
4,40,80,120
4,28,80,0
4,40,80,120
4,28,80,0
4,40,80,120
4,28,80,0
4,40,80,120
4,28,80,0
4,40,80,120
4,28,80,0
4,40,80,120
4,28,80,0
4,40,80,120
4,28,80,0
4,40,80,120
4,28,80,0
4,40,80,120
4,28,80,0
4,40,80,120
4,28,80,0
4,40,80,120
4,28,80,0
4,40,80,120
4,28,80,0
4,40,80,120
4,28,80,0
4,40,80,360
4,28,80,0
4,40,80,120
4,28,80,0
4,40,80,120
4,28,80,0
4,40,80,120
4,28,80,0
4,40,80,120
4,28,80,0
4,40,80,120
4,28,80,0
4,40,80,120
4,28,80,0
4,40,80,120
4,28,80,0
4,40,80,20
4,28,80,0
4,40,80,120
4,28,80,0
4,40,80,120
4,28,80,0
4,40,80,120
4,28,80,0
4,40,80,120
4,28,80,0
4,40,80,120
4,28,80,0
4,40,80,120
4,28,80,0
4,40,80,120
4,28,80,0
4,40,80,120
4,28,80,0
4,40,80,120
4,28,80,0
4,40,80,120
4,28,80,0
4,40,80,120
4,28,80,0
4,40,80,120
4,28,80,0
4,40,80,120
4,28,80,0
4,40,80,120
4,28,80,0
4,40,80,120
4,28,80,0
4,40,80,120
4,28,80,0
4,40,80,120
4,28,80,0
4,40,80,120
4,28,80,0
4,40,80,120
4,28,80,0
4,40,80,120
4,28,80,0
4,40,80,120
4,28,80,0
4,40,80,120
4,28,80,0
4,40,80,360
4,28,80,0
4,40,80,120
4,28,80,0
4,40,80,120
4,28,80,0
4,40,80,360
4,28,80,0
4,40,80,120
4,28,80,0
4,40,80,120
4,28,80,0
4,40,80,360
4,28,80,0
4,50,80,0
4,52,80,40
4,50,80,40
4,48,80,30
4,50,80,40
4,48,80,40
4,45,80,30
4,46,80,40
4,46,80,20
4,50,80,20
4,52,80,40
4,50,80,40
4,48,80,30
4,50,80,40
4,48,80,40
4,45,80,30
4,46,80,40
4,46,80,20
4,50,80,20
4,52,80,40
4,50,80,40
4,48,80,30
4,50,80,40
4,48,80,40
4,45,80,30
4,46,80,20
4,38,80,20
4,38,80,20
4,36,80,20
4,38,80,20
4,26,80,260
5,71,100,17850
5,76,127,0
5,71,120,0
5,52,64,320
5,71,100,20
5,76,127,0
5,71,120,0
5,52,64,320
5,71,110,20
5,61,100,0
5,71,100,0
5,76,127,0
5,71,120,0
5,52,64,320
5,71,100,20
5,76,127,0
5,71,120,0
5,52,64,320
5,71,110,20
5,61,100,0
6,52,72,2375
6,64,64,0
6,54,72,540
6,66,72,0
6,52,72,540
6,64,72,0
6,50,72,300
6,62,72,0
6,52,72,540
6,64,72,0
6,50,72,540
6,62,72,0
6,49,72,300
6,61,72,0
6,50,72,80
6,62,72,0
6,50,72,60
6,62,72,0
6,52,72,20
6,64,64,0
6,54,72,540
6,66,72,0
6,52,72,540
6,64,72,0
6,50,72,300
6,62,72,0
6,52,72,540
6,64,72,0
6,50,72,540
6,62,72,0
6,49,72,300
6,61,72,0
6,50,72,80
6,62,72,0
6,50,72,60
6,62,72,0
6,52,72,20
6,64,64,0
6,54,72,540
6,66,72,0
6,52,72,540
6,64,72,0
6,50,72,300
6,62,72,0
6,52,72,540
6,64,72,0
6,50,72,540
6,62,72,0
6,49,72,300
6,61,72,0
6,50,72,80
6,62,72,0
6,50,72,60
6,62,72,0
6,52,72,20
6,64,64,0
6,54,72,540
6,66,72,0
6,52,72,540
6,64,72,0
6,50,72,300
6,62,72,0
6,52,72,540
6,64,72,0
6,50,72,540
6,62,72,0
6,49,72,300
6,61,72,0
6,50,72,80
6,62,72,0
6,50,72,60
6,62,72,0
6,57,72,23060
6,50,72,0
6,57,72,20
6,50,72,0
6,55,72,20
6,48,72,0
6,57,72,20
6,50,72,0
6,50,72,260
7,77,80,33050
7,79,80,40
7,77,80,40
7,76,80,30
7,77,80,40
7,76,80,40
7,72,80,30
7,74,80,40
7,74,80,30
7,77,80,20
7,79,80,40
7,77,80,40
7,76,80,30
7,77,80,40
7,76,80,40
7,72,80,30
7,74,80,40
7,74,80,30
7,77,80,20
7,79,80,40
7,77,80,40
7,76,80,30
7,77,80,40
7,79,80,40
7,81,80,30
7,82,80,40
7,81,80,40
7,77,80,30
7,77,64,20
7,77,64,20
7,76,64,20
7,77,64,20
7,74,64,270
8,65,96,32985
8,67,96,120
8,65,80,40
8,64,96,80
8,65,96,120
8,64,80,40
8,60,86,80
8,62,96,120
8,62,96,120
8,65,96,20
8,67,96,120
8,65,80,40
8,64,96,80
8,65,96,120
8,64,80,40
8,60,86,80
8,62,96,120
8,62,96,120
8,65,96,20
8,67,96,120
8,65,80,40
8,64,96,80
8,65,96,120
8,67,80,40
8,69,86,80
8,70,96,120
8,69,86,40
8,65,96,80
8,65,96,20
8,65,96,100
8,64,86,100
8,65,96,100
8,62,96,360
9,47,96,1720
9,40,96,20
9,47,96,7220
9,40,96,20
9,47,96,7220
9,40,96,20
9,47,96,7220
9,40,96,20
9,38,96,1880
10,38,50,7700
10,38,64,70
10,38,64,70
10,38,64,70
10,38,50,7430
10,38,64,70
10,38,64,70
10,38,64,70
10,38,50,7430
10,38,64,70
10,38,64,70
10,38,64,70
10,38,50,7430
10,38,64,70
10,38,64,70
10,38,64,70
11,52,80,2105
11,40,80,0
11,52,80,740
11,40,80,0
11,52,80,510
11,40,80,0
11,52,80,740
11,40,80,0
11,52,80,510
11,40,80,0
11,52,80,740
11,40,80,0
11,52,80,510
11,40,80,0
11,52,80,740
11,40,80,0
11,52,80,510
11,40,80,0
11,52,80,740
11,40,80,0
