track,note,velocity,time
0,41,103,1340
0,41,88,0
0,53,95,0
0,51,70,0
0,58,95,76
0,65,88,0
0,70,98,0
0,74,97,0
0,77,102,0
0,70,123,0
0,74,122,0
0,77,127,0
0,57,89,8
0,64,92,0
0,69,104,0
0,73,98,0
0,76,95,0
0,69,127,0
0,73,123,0
0,76,120,0
0,41,88,0
0,35,122,0
0,42,66,0
0,51,65,0
0,57,89,264
0,64,94,0
0,69,95,0
0,73,99,0
0,76,97,0
0,69,120,0
0,73,124,0
0,76,122,0
0,51,66,0
0,56,91,8
0,63,88,0
0,68,101,0
0,72,104,0
0,75,102,0
0,68,126,0
0,72,127,0
0,75,127,0
0,51,72,8
0,41,82,8
0,35,118,0
0,42,70,0
0,51,67,0
0,57,89,252
0,64,89,0
0,69,101,0
0,73,95,0
0,76,95,0
0,69,126,0
0,73,120,0
0,76,120,0
0,56,95,8
0,63,89,0
0,68,98,0
0,72,104,0
0,75,104,0
0,68,123,0
0,72,127,0
0,75,127,0
0,51,69,0
0,51,67,20
0,56,94,116
0,63,89,0
0,68,101,0
0,72,104,0
0,75,99,0
0,68,126,0
0,72,127,0
0,75,124,0
0,41,80,0
0,35,114,0
0,42,70,0
0,51,65,0
0,55,92,8
0,62,92,0
0,67,97,0
0,71,96,0
0,74,96,0
0,67,122,0
0,71,121,0
0,74,121,0
0,51,72,8
0,56,94,12
0,63,95,0
0,68,97,0
0,72,101,0
0,75,99,0
0,68,122,0
0,72,126,0
0,75,124,0
0,55,97,8
0,62,96,0
0,67,96,0
0,71,97,0
0,74,104,0
0,67,121,0
0,71,122,0
0,74,127,0
0,41,86,0
0,40,115,0
0,42,68,0
0,51,68,0
0,41,95,8
0,41,80,0
0,54,94,0
0,61,90,0
0,53,94,0
0,66,95,0
0,70,102,0
0,73,100,0
0,66,120,0
0,70,127,0
0,73,125,0
0,35,115,0
0,51,66,0
0,51,71,124
0,51,71,20
0,41,87,116
0,35,121,0
0,42,73,0
0,51,73,0
0,51,66,380
0,41,84,140
0,35,117,0
0,42,70,0
0,51,66,0
0,48,101,12
0,48,86,0
0,48,94,0
0,60,93,0
0,60,102,0
0,72,99,0
0,84,99,0
0,72,124,0
0,84,124,0
0,36,81,0
0,40,117,0
0,51,70,0
0,60,120,240
0,62,114,0
0,60,121,8
0,62,121,8
0,64,119,8
0,64,39,115
0,57,40,6
0,41,82,7
0,35,123,0
0,53,45,1
0,53,40,88
0,57,41,0
0,64,42,0
0,42,65,7
0,71,98,136
0,68,90,52
0,65,94,39
0,53,42,5
0,57,41,0
0,64,40,0
0,36,82,4
0,35,117,0
0,64,93,16
0,42,71,107
0,53,45,1
0,57,48,0
0,64,46,0
0,62,93,38
0,57,42,5
0,41,82,7
0,35,122,0
0,53,48,1
0,64,47,0
0,40,79,136
0,57,40,88
0,53,44,5
0,64,43,0
0,42,71,2
0,64,121,12
0,43,84,0
0,53,43,6
0,64,43,0
0,65,114,2
0,40,82,0
0,35,117,0
0,57,47,1
0,64,123,8
0,43,88,0
0,40,84,0
0,61,39,0
0,55,44,6
0,65,117,2
0,39,85,0
0,42,69,0
0,51,46,1
0,66,115,0
0,50,39,5
0,38,81,8
0,35,117,0
0,54,48,1
0,60,46,0
0,50,42,88
0,42,69,7
0,54,45,1
0,60,46,0
0,82,97,243
0,54,94,8
0,60,92,0
0,64,89,0
0,78,93,0
0,88,94,0
0,83,98,11
0,54,39,82
0,60,39,2
0,45,87,8
0,35,120,0
0,50,48,1
0,40,79,166
0,42,72,95
0,50,48,1
0,54,48,0
0,60,47,13
0,60,39,74
0,50,44,6
0,70,92,2
0,38,84,0
0,35,123,0
0,54,48,1
0,54,90,3
0,60,97,0
0,64,97,0
0,66,98,0
0,76,94,0
0,71,93,32
0,40,81,6
0,50,43,93
0,60,42,0
0,66,119,2
0,42,73,0
0,54,47,1
0,45,84,12
0,54,42,1
0,50,43,5
0,67,119,2
0,38,83,0
0,35,122,0
0,60,47,14
0,66,114,8
0,40,83,0
0,50,42,1
0,60,41,5
0,67,115,2
0,42,82,0
0,46,117,0
0,54,48,1
0,69,120,0
0,53,39,5
0,57,42,1
0,59,43,5
0,43,88,2
0,35,114,0
0,57,41,95
0,59,43,5
0,42,71,2
0,53,46,1
0,53,41,88
0,59,44,5
0,67,118,2
0,38,79,0
0,35,115,0
0,57,48,1
0,65,121,8
0,40,87,0
0,53,42,1
0,57,42,0
0,59,42,5
0,67,119,2
0,42,67,0
0,69,121,8
0,57,41,5
0,53,43,5
0,43,82,2
0,35,118,0
0,59,46,1
0,69,96,255
0,53,91,4
0,74,89,0
0,59,97,4
0,64,93,0
0,57,42,3
0,53,43,0
0,59,41,0
0,42,73,2
0,57,39,89
0,59,39,0
0,53,43,6
0,67,121,2
0,38,82,0
0,35,119,0
0,65,118,8
0,40,86,0
0,53,40,5
0,57,44,5
0,45,85,2
0,42,68,0
0,60,48,14
0,62,117,8
0,59,41,6
0,69,116,0
0,43,82,0
0,35,122,0
0,53,47,1
0,57,46,0
0,59,92,128
0,57,95,4
0,64,98,4
0,53,44,93
0,57,44,0
0,59,42,0
0,42,64,2
0,86,91,124
0,38,87,16
0,57,39,17
0,59,41,10
0,34,82,2
0,35,114,0
0,53,48,1
0,81,97,15
0,86,91,60
0,81,90,46
0,40,87,0
0,74,96,0
0,53,39,47
0,57,41,3
0,38,85,0
0,42,65,0
0,59,48,14
0,69,92,6
0,62,95,118
0,53,41,1
0,31,81,7
0,35,119,0
0,57,48,1
0,59,46,0
0,57,95,11
0,40,80,240
0,57,40,88
0,59,43,5
0,42,68,2
0,53,45,1
0,67,123,251
0,57,39,82
0,69,116,8
0,38,87,0
0,35,116,0
0,53,48,1
0,59,45,0
0,67,122,8
0,40,88,0
0,53,41,1
0,69,114,7
0,42,68,0
0,57,47,1
0,59,48,13
0,72,115,0
0,55,42,1
0,53,86,7
0,65,95,0
0,65,101,0
0,43,82,0
0,35,123,0
0,65,47,1
0,58,46,1
0,69,104,244
0,72,101,0
0,69,127,0
0,72,126,0
0,65,42,7
0,55,42,1
0,42,68,7
0,58,48,14
0,71,89,246
0,83,92,1
0,84,91,23
0,72,90,14
0,69,104,6
0,72,101,0
0,72,64,0
0,69,127,0
0,72,126,0
0,34,85,0
0,35,121,0
0,65,45,3
0,55,45,1
0,58,46,0
0,40,86,136
0,60,93,4
0,72,89,0
0,35,88,6
0,42,67,0
0,65,45,3
0,55,45,1
0,58,46,0
0,55,41,1
0,58,42,5
0,52,85,2
0,64,93,0
0,64,100,0
0,84,72,0
0,81,71,0
0,36,80,0
0,35,123,0
0,40,86,0
0,64,45,1
0,68,123,72
0,64,42,16
0,58,41,5
0,42,67,2
0,55,48,1
0,69,117,27
0,36,83,140
0,55,40,1
0,67,120,7
0,82,73,0
0,79,64,0
0,37,84,0
0,35,117,0
0,64,46,1
0,58,47,13
0,69,118,8
0,40,82,0
0,64,39,69
0,55,44,6
0,67,118,2
0,42,67,0
0,58,47,14
0,65,117,8
0,53,42,75
0,38,83,7
0,35,120,0
0,57,48,1
0,62,47,19
0,69,101,232
0,74,99,0
0,69,126,0
0,74,124,0
0,40,82,0
0,57,43,6
0,42,65,2
0,53,48,1
0,62,47,19
0,53,40,5
0,57,44,5
0,69,99,2
0,74,102,0
0,69,124,0
0,74,127,0
0,35,122,0
0,40,84,0
0,62,42,0
0,50,103,2
0,62,92,0
0,62,103,0
0,81,73,0
0,77,65,0
0,48,87,0
0,53,41,5
0,57,44,5
0,45,85,2
0,42,73,0
0,62,48,20
0,45,95,8
0,57,95,0
0,57,95,0
0,74,67,0
0,40,84,12
0,92,96,6
0,68,95,8
0,53,41,1
0,64,42,0
0,57,44,5
0,41,100,2
0,53,92,0
0,53,100,0
0,76,68,0
0,38,86,0
0,35,119,0
0,93,95,8
0,69,95,6
0,69,95,230
0,76,96,0
0,69,120,0
0,76,121,0
0,40,81,8
0,40,84,8
0,42,73,0
0,53,47,1
0,57,48,0
0,64,47,0
0,64,114,12
0,53,41,1
0,57,41,0
0,65,114,7
0,74,65,0
0,38,86,0
0,40,86,0
0,62,40,0
0,64,122,8
0,44,88,0
0,48,90,0
0,58,90,0
0,35,117,0
0,63,39,83
0,60,39,0
0,65,118,8
0,32,86,0
0,42,71,0
0,54,45,1
0,67,122,8
0,43,82,0
0,50,103,0
0,43,92,0
0,50,88,0
0,59,92,0
0,59,52,0
0,71,70,0
0,62,65,0
0,31,88,0
0,35,121,0
0,62,43,0
0,53,46,1
0,59,47,8
0,71,99,86
0,74,98,0
0,71,124,0
0,74,123,0
0,40,81,8
0,42,69,0
0,62,41,0
0,53,48,1
0,59,46,0
0,55,42,1
0,60,41,5
0,65,123,2
0,45,73,0
0,52,98,0
0,60,64,0
0,72,98,0
0,76,98,0
0,72,72,0
0,64,65,0
0,72,123,0
0,76,123,0
0,33,85,0
0,40,86,0
0,64,47,1
0,64,119,8
0,45,96,0
0,52,94,0
0,60,90,0
0,35,116,0
0,55,44,6
0,60,43,0
0,64,44,0
0,65,118,2
0,42,66,0
0,67,115,8
0,40,88,0
0,61,42,6
0,64,44,0
0,46,56,2
0,53,100,0
0,46,90,0
0,52,89,0
0,61,93,0
0,61,64,0
0,73,66,0
0,65,73,0
0,34,85,0
0,35,119,0
0,55,47,1
0,73,101,144
0,76,99,0
0,73,126,0
0,76,124,0
0,55,42,1
0,64,42,0
0,61,40,5
0,42,70,2
0,68,115,40
0,59,44,6
0,47,73,2
0,53,99,0
0,62,73,0
0,74,99,0
0,77,96,0
0,74,73,0
0,74,124,0
0,77,121,0
0,35,82,0
0,35,120,0
0,62,40,0
0,53,47,1
0,69,121,15
0,74,115,37
0,47,96,0
0,53,94,0
0,62,96,0
0,40,80,0
0,53,40,5
0,59,43,5
0,62,39,0
0,35,87,2
0,42,70,0
0,69,122,8
0,35,123,128
0,52,41,1
0,67,121,7
0,36,82,0
0,43,96,0
0,48,88,0
0,55,89,0
0,64,95,0
0,64,64,0
0,76,98,0
0,79,99,0
0,76,70,0
0,67,69,0
0,76,123,0
0,79,124,0
0,36,83,0
0,40,114,0
0,42,67,0
0,58,48,14
0,62,48,6
0,68,93,460
0,92,92,12
0,69,90,12
0,93,98,0
0,98,98,146
0,74,95,4
0,69,89,104
0,93,97,0
0,72,95,254
0,96,97,4
0,72,85,146
0,60,123,0
0,74,84,64
0,72,83,56
0,74,82,56
0,72,81,56
0,74,80,56
0,72,79,56
0,74,78,56
0,72,75,8
0,62,119,0
0,74,72,56
0,72,69,56
0,74,66,56
0,72,63,2
0,60,118,0
0,50,80,0
0,74,59,14
0,72,48,8
0,62,116,0
0,48,86,0
0,43,86,12
0,57,40,1
0,64,43,5
0,64,115,2
0,57,68,0
0,41,86,0
0,35,117,0
0,51,66,0
0,53,46,1
0,57,40,88
0,64,41,0
0,42,68,7
0,51,71,0
0,53,47,1
0,72,98,251
0,79,94,0
0,81,95,0
0,88,97,0
0,65,97,4
0,53,43,6
0,79,68,2
0,88,66,0
0,69,65,0
0,84,69,0
0,48,84,0
0,35,119,0
0,51,70,0
0,57,45,1
0,64,45,0
0,80,64,8
0,89,68,0
0,70,64,0
0,85,66,0
0,72,96,0
0,79,90,0
0,81,97,0
0,88,97,0
0,65,98,2
0,51,70,6
0,53,41,5
0,64,41,0
0,57,43,5
0,43,88,2
0,42,64,0
0,51,66,0
0,78,70,8
0,87,64,0
0,68,67,0
0,83,64,0
0,53,39,89
0,57,39,0
0,79,72,8
0,88,70,0
0,69,71,0
0,84,66,0
0,65,97,0
0,72,93,0
0,79,98,0
0,81,93,0
0,88,92,0
0,41,79,0
0,35,121,0
0,51,70,0
0,64,47,1
0,40,79,136
0,51,72,4
0,53,39,82
0,64,39,0
0,57,42,6
0,42,64,7
0,51,72,0
0,64,117,12
0,65,89,0
0,72,92,0
0,79,90,0
0,81,98,0
0,88,96,0
0,50,88,0
0,53,39,1
0,64,40,1
0,65,120,7
0,79,65,0
0,84,73,0
0,65,64,0
0,81,68,0
0,48,80,0
0,35,118,0
0,51,66,0
0,57,47,1
0,64,116,8
0,64,72,0
0,43,82,0
0,40,79,0
0,51,42,5
0,61,40,5
0,41,88,2
0,42,64,0
0,51,71,0
0,55,46,1
0,65,120,8
0,65,67,0
0,50,44,6
0,60,41,0
0,66,123,0
0,66,67,0
0,38,83,0
0,35,118,0
0,51,66,0
0,54,45,1
0,60,39,87
0,54,43,6
0,72,72,2
0,76,65,0
0,81,67,0
0,42,66,0
0,51,71,0
0,50,46,1
0,60,94,235
0,71,96,8
0,74,97,0
0,86,93,0
0,66,97,8
0,81,94,0
0,51,69,8
0,54,43,10
0,45,85,2
0,35,120,0
0,51,65,0
0,50,46,1
0,60,45,0
0,74,91,239
0,81,90,0
0,73,64,8
0,82,73,0
0,67,67,0
0,77,69,0
0,40,82,0
0,60,95,0
0,71,95,4
0,86,98,0
0,66,94,4
0,60,39,2
0,50,43,0
0,42,67,2
0,51,72,0
0,54,48,1
0,71,70,8
0,80,64,0
0,65,73,0
0,75,69,0
0,50,42,1
0,54,43,5
0,72,67,2
0,81,69,0
0,66,65,0
0,76,71,0
0,74,89,0
0,38,85,0
0,35,116,0
0,51,70,0
0,60,95,0
0,71,90,0
0,86,90,0
0,60,46,1
0,66,91,3
0,81,89,4
0,66,114,130
0,40,80,0
0,54,44,93
0,60,43,0
0,42,70,2
0,51,70,0
0,50,47,1
0,60,95,136
0,71,98,0
0,86,95,0
0,43,79,0
0,74,93,4
0,66,98,4
0,81,92,0
0,50,41,3
0,54,41,0
0,60,44,4
0,67,122,2
0,71,97,0
0,77,96,0
0,81,100,0
0,71,122,0
0,77,121,0
0,81,125,0
0,45,85,0
0,35,120,0
0,51,64,0
0,66,114,8
0,40,85,0
0,67,114,8
0,72,100,0
0,78,95,0
0,82,103,0
0,72,125,0
0,78,120,0
0,82,127,0
0,44,81,0
0,42,72,0
0,51,71,0
0,50,46,1
0,54,46,0
0,60,48,2
0,71,100,8
0,74,95,0
0,79,100,0
0,71,125,0
0,74,120,0
0,79,125,0
0,51,69,8
0,59,39,0
0,69,116,0
0,43,88,0
0,35,122,0
0,51,65,0
0,53,46,1
0,62,48,4
0,55,92,8
0,59,88,0
0,74,89,8
0,59,97,4
0,65,97,0
0,69,89,4
0,42,66,2
0,51,64,0
0,62,42,0
0,53,47,1
0,59,48,13
0,55,42,5
0,64,43,5
0,67,123,2
0,57,91,0
0,60,89,0
0,45,79,0
0,35,123,0
0,51,72,0
0,60,46,1
0,65,114,8
0,72,104,0
0,76,103,0
0,79,99,0
0,72,127,0
0,76,127,0
0,79,124,0
0,40,82,0
0,51,71,4
0,64,40,1
0,60,40,5
0,67,114,2
0,42,70,0
0,51,73,0
0,55,47,1
0,68,120,113
0,69,119,3
0,55,39,69
0,61,40,10
0,73,103,2
0,76,102,0
0,79,96,0
0,73,127,0
0,76,127,0
0,79,121,0
0,34,85,0
0,35,120,0
0,51,69,0
0,64,47,1
0,58,92,100
0,61,96,0
0,51,66,8
0,65,97,0
0,59,98,1
0,69,92,4
0,93,94,0
0,86,98,4
0,64,40,9
0,61,43,0
0,42,67,2
0,51,69,0
0,55,48,1
0,53,43,10
0,59,42,0
0,64,44,0
0,67,116,2
0,59,88,0
0,64,89,0
0,35,81,0
0,35,116,0
0,51,71,0
0,65,119,8
0,74,96,0
0,77,98,0
0,81,101,0
0,74,121,0
0,77,123,0
0,81,126,0
0,40,84,0
0,59,43,6
0,42,69,2
0,51,69,0
0,53,46,1
0,64,45,0
0,62,121,8
0,53,39,82
0,59,43,6
0,69,116,2
0,74,99,0
0,77,96,0
0,81,95,0
0,74,124,0
0,77,121,0
0,81,120,0
0,38,88,0
0,35,119,0
0,51,69,0
0,64,48,1
0,74,97,136
0,53,40,1
0,64,42,0
0,57,103,7
0,69,103,0
0,76,98,0
0,42,73,0
0,51,66,0
0,59,45,1
0,75,100,8
0,51,64,8
0,81,108,35
0,64,41,1
