track,note,velocity,time
14,51,90,4608
14,42,100,304
14,51,115,0
14,51,55,188
14,51,100,36
14,42,100,304
14,51,115,0
14,51,60,188
14,35,80,36
14,51,100,0
14,42,100,304
14,51,115,0
14,51,90,188
14,51,100,36
14,42,100,304
14,51,115,0
14,45,70,0
14,35,70,188
14,51,80,0
14,45,60,0
14,51,90,36
14,42,100,304
14,51,115,0
14,51,55,188
14,51,100,36
14,42,100,304
14,51,115,0
14,51,60,188
14,51,100,36
14,42,100,304
14,51,115,0
14,35,80,176
14,46,80,0
14,51,90,0
14,51,100,48
14,38,70,176
14,42,100,48
14,51,115,0
14,38,70,48
14,38,50,48
14,51,80,0
14,51,90,48
14,42,100,304
14,51,115,0
14,51,55,188
14,51,100,36
14,42,100,304
14,51,115,0
14,51,60,188
14,35,80,36
14,51,100,0
14,42,100,304
14,51,115,0
14,51,90,188
14,51,100,36
14,42,100,304
14,51,115,0
14,45,70,0
14,51,80,188
14,45,60,0
14,51,90,36
14,42,100,304
14,51,115,0
14,51,55,188
14,51,100,36
14,42,100,304
14,51,115,0
14,51,60,188
14,51,100,36
14,42,100,304
14,51,115,0
14,51,90,188
14,51,100,36
14,42,100,304
14,51,115,0
14,45,70,0
14,51,80,188
14,45,60,0
14,51,90,36
14,42,100,304
14,51,115,0
14,51,55,188
14,51,100,36
14,42,100,304
14,51,115,0
14,51,60,188
14,35,80,36
14,51,100,0
14,38,90,188
14,42,100,36
14,51,115,0
14,51,90,188
14,51,100,36
14,42,100,304
14,51,115,0
14,45,70,0
14,35,70,188
14,51,80,0
14,45,60,0
14,51,90,36
14,38,70,188
14,42,100,36
14,51,115,0
14,51,55,188
14,51,100,36
14,42,100,304
14,51,115,0
14,51,60,188
14,35,100,36
14,49,70,0
14,45,80,176
14,48,80,0
14,42,100,48
14,45,100,176
14,48,100,0
14,41,115,304
14,38,100,48
14,42,100,0
14,48,100,0
14,45,90,48
14,41,90,48
14,51,90,48
14,42,100,304
14,51,115,0
14,51,55,188
14,51,100,36
14,42,100,304
14,51,115,0
14,51,60,188
14,35,80,36
14,51,100,0
14,42,100,304
14,51,115,0
14,51,90,188
14,51,100,36
14,51,90,188
14,42,100,36
14,51,115,0
14,45,70,0
14,35,70,188
14,51,80,0
14,45,60,0
14,51,90,36
14,42,100,304
14,51,115,0
14,51,55,188
14,51,100,36
14,51,80,188
14,42,100,36
14,51,115,0
14,51,60,188
14,35,80,36
14,51,100,0
14,38,90,188
14,42,100,36
14,51,115,0
14,51,90,188
14,51,100,36
14,42,100,304
14,51,115,0
14,45,70,0
14,51,80,188
14,45,60,0
14,35,90,36
14,51,90,0
14,42,100,304
14,51,115,0
14,51,55,188
14,51,100,36
14,51,80,188
14,42,100,36
14,51,115,0
14,35,70,188
14,51,60,0
14,51,100,36
14,42,100,304
14,51,115,0
14,51,90,188
14,51,100,36
14,42,100,304
14,51,115,0
14,45,70,0
14,51,80,188
14,45,60,0
14,51,90,36
14,42,100,304
14,51,115,0
14,51,55,188
14,51,100,36
14,42,100,304
14,51,115,0
14,51,60,188
14,40,90,0
14,35,90,0
14,51,90,0
14,49,106,176
14,40,106,0
14,42,70,128
14,51,90,0
14,42,80,48
14,42,80,48
14,57,106,47
14,40,106,0
14,42,100,0
14,42,80,48
14,35,70,48
14,42,80,0
14,38,100,48
14,42,100,48
14,40,106,47
14,38,115,0
14,42,70,0
14,49,120,0
14,35,80,0
14,51,90,0
14,42,100,304
14,51,115,0
14,51,55,188
14,51,100,36
14,42,100,304
14,51,115,0
14,35,50,188
14,51,60,0
14,35,80,36
14,51,100,0
14,38,90,188
14,42,100,36
14,51,115,0
14,51,90,188
14,51,100,36
14,42,100,304
14,51,115,0
14,45,70,0
14,35,70,188
14,51,80,0
14,45,60,0
14,51,90,36
14,38,70,188
14,42,100,36
14,51,115,0
14,51,55,188
14,51,100,36
14,42,100,304
14,51,115,0
14,51,60,188
14,35,80,36
14,51,100,0
14,42,100,304
14,51,115,0
14,35,80,182
14,46,80,0
14,51,90,0
14,51,100,42
14,38,90,182
14,42,100,42
14,51,115,0
14,38,70,48
14,35,70,54
14,38,50,0
14,51,80,0
14,51,90,42
14,42,100,304
14,51,115,0
14,51,55,188
14,51,100,36
14,38,50,188
14,42,100,36
14,51,115,0
14,51,60,188
14,35,80,36
14,51,100,0
14,42,100,304
14,51,115,0
14,51,90,188
14,51,100,36
14,42,100,304
14,51,115,0
14,45,70,0
14,35,70,188
14,51,80,0
14,45,60,0
14,51,90,0
14,42,100,96
14,51,115,0
14,51,55,76
14,51,100,36
14,42,100,20
14,51,115,0
14,51,60,19
14,35,100,36
14,49,70,0
14,45,80,103
14,48,80,0
14,42,100,48
14,45,100,176
14,48,100,0
14,41,115,45
14,40,121,48
14,38,100,0
14,42,100,0
14,48,100,0
14,45,90,13
14,41,90,48
14,36,85,48
14,40,85,0
14,36,85,39
14,40,85,0
14,36,85,39
14,40,85,0
14,36,85,39
14,40,85,0
14,36,85,58
14,40,85,0
14,36,85,231
14,40,85,0
14,36,85,231
14,40,85,0
14,40,85,9
14,36,85,32
14,40,85,64
14,36,85,10
14,40,85,0
14,36,85,0
14,40,85,0
14,40,85,20
14,35,100,0
14,38,100,0
14,38,60,48
14,38,50,48
14,38,40,48
14,42,100,0
14,38,30,48
14,48,90,48
14,38,60,48
14,38,40,48
14,45,90,48
14,38,60,48
14,42,100,0
14,38,40,48
14,42,110,48
14,41,90,0
14,35,80,0
14,51,90,0
14,49,90,0
14,36,90,176
14,40,90,0
14,36,90,0
14,40,90,0
14,36,90,192
14,40,90,0
14,36,90,96
14,40,90,0
14,36,90,0
14,40,90,0
14,40,90,48
14,40,90,0
14,36,90,48
14,40,90,0
14,36,90,96
14,40,90,0
14,40,90,192
14,36,90,0
14,40,90,0
14,36,90,192
14,40,90,64
14,36,90,0
14,40,90,0
14,36,90,192
14,40,90,64
14,36,90,0
14,40,90,0
14,36,90,0
14,40,90,0
14,40,81,64
14,48,90,6
14,36,81,0
14,38,60,0
14,38,60,48
14,41,90,54
14,51,115,0
14,36,81,0
14,38,108,0
14,42,100,0
14,38,60,48
14,51,60,48
14,35,90,6
14,51,90,0
14,49,90,0
14,42,100,304
14,51,115,0
14,51,55,176
14,51,100,48
14,42,100,304
14,51,115,0
14,51,60,176
14,51,100,48
14,38,90,188
14,42,100,36
14,51,115,0
14,51,90,188
14,51,100,36
14,42,100,304
14,51,115,0
14,45,70,0
14,51,80,188
14,45,60,0
14,51,90,36
14,38,70,188
14,42,100,36
14,51,115,0
14,51,55,188
14,51,100,36
14,51,80,188
14,42,100,36
14,51,115,0
14,51,60,188
14,51,100,36
14,42,100,304
14,51,115,0
14,51,90,188
14,51,100,36
14,42,100,304
14,51,115,0
14,45,70,0
14,51,80,188
14,45,60,0
14,51,90,36
14,42,100,304
14,51,115,0
14,51,55,188
14,51,100,36
14,51,80,188
14,42,100,36
14,51,115,0
14,51,60,188
14,35,80,36
14,51,100,0
14,38,90,188
14,42,100,36
14,51,115,0
14,51,90,188
14,51,100,36
14,51,90,188
14,42,100,36
14,51,115,0
14,45,70,0
14,35,70,188
14,51,80,0
14,45,60,0
14,36,81,0
14,49,110,0
14,51,90,0
14,38,77,13
14,36,79,16
14,38,79,20
14,38,79,48
14,42,79,0
14,38,80,16
14,38,81,39
14,38,82,48
14,36,82,48
14,38,82,0
14,38,84,48
14,38,85,48
14,38,86,48
14,36,86,48
14,38,86,0
14,42,86,0
14,38,88,16
14,38,89,0
14,38,90,48
14,36,90,48
14,38,90,0
14,41,90,0
14,38,91,48
14,38,93,54
14,36,94,42
14,38,94,0
14,42,94,0
14,38,95,48
14,48,96,51
14,38,96,26
14,36,98,42
14,38,98,0
14,38,100,32
14,41,100,6
14,36,101,0
14,38,101,0
14,42,101,0
14,49,104,0
14,36,104,0
14,38,104,0
14,35,104,6
14,35,101,42
14,51,101,0
14,42,100,0
14,51,115,0
14,51,55,188
14,51,100,36
14,38,50,188
14,42,100,36
14,51,115,0
14,51,60,188
14,35,90,0
14,51,90,0
14,38,70,304
14,51,90,0
14,38,80,48
14,38,80,48
14,38,100,48
14,38,80,48
14,40,106,48
14,35,70,0
14,38,80,0
14,38,100,48
14,38,100,48
14,38,70,48
14,49,90,48
14,38,90,0
14,51,90,0
14,42,100,128
14,51,115,0
14,51,55,188
14,51,100,36
14,42,100,304
14,51,115,0
14,51,60,188
14,40,106,32
14,41,90,0
14,38,90,48
14,38,60,54
14,40,106,42
14,38,70,0
14,42,100,0
14,38,90,48
14,40,106,48
14,43,90,6
14,38,60,0
14,38,60,48
14,41,90,54
14,38,108,42
14,42,100,0
14,38,60,48
14,35,90,54
14,49,110,42
14,40,108,0
14,51,108,0
14,40,106,96
14,42,100,128
14,51,115,0
14,51,55,188
14,40,106,20
14,51,100,0
14,42,100,148
14,51,115,0
14,40,106,176
14,51,60,12
14,35,80,0
14,51,100,0
14,40,106,176
14,42,100,128
14,51,115,0
14,51,90,188
14,40,106,36
14,51,100,0
14,51,90,96
14,40,106,36
14,42,100,0
14,51,115,0
14,45,70,0
14,35,70,96
14,51,80,0
14,45,60,0
14,40,106,36
14,51,90,0
14,38,70,188
14,42,100,20
14,51,115,0
14,40,106,176
14,51,55,12
14,51,100,0
14,42,100,304
14,51,115,0
14,51,103,188
14,51,100,36
14,40,106,304
14,42,100,0
14,51,115,0
14,35,80,84
14,46,80,0
14,51,90,0
14,40,106,48
14,51,100,0
14,40,106,20
14,38,70,0
14,42,100,48
14,51,115,0
14,38,70,48
14,49,110,48
14,38,50,0
14,51,80,0
14,51,90,48
14,42,100,304
14,51,115,0
14,51,55,188
14,51,100,36
14,40,106,304
14,42,100,0
14,51,115,0
14,40,106,39
14,51,60,12
14,35,80,0
14,51,100,0
14,38,90,188
14,42,100,36
14,51,115,0
14,51,90,188
14,51,100,36
14,51,90,188
14,42,100,36
14,51,115,0
14,45,70,0
14,35,70,188
14,51,80,0
14,45,60,0
14,35,60,36
14,51,90,0
14,42,100,304
14,51,115,0
14,51,55,188
14,51,100,36
14,38,50,188
14,42,100,36
14,51,115,0
14,51,60,188
14,51,100,36
14,42,100,304
14,51,115,0
14,35,80,176
14,46,80,0
14,51,90,0
14,51,100,48
14,38,70,176
14,51,90,0
14,42,100,48
14,51,115,0
14,38,70,48
14,38,50,48
14,51,80,0
14,51,90,48
14,42,100,304
14,51,115,0
14,51,55,188
14,51,100,36
14,42,100,304
14,51,115,0
14,51,60,188
14,35,80,36
14,51,100,0
14,38,90,188
14,42,100,36
14,51,115,0
14,51,90,188
14,51,100,36
14,42,100,304
14,51,115,0
14,45,70,0
14,51,80,188
14,45,60,0
14,51,90,36
14,38,70,188
14,42,100,36
14,51,115,0
14,51,55,188
14,51,100,36
14,38,50,188
14,42,100,36
14,51,115,0
14,51,60,188
14,35,100,36
14,38,100,0
14,38,60,48
14,38,50,48
14,38,40,48
14,42,100,0
14,38,30,48
14,48,90,48
14,38,60,48
14,38,40,48
14,45,90,48
14,38,60,48
14,42,100,0
14,38,40,48
14,41,90,48
14,35,80,48
14,51,90,0
14,49,90,0
14,42,100,304
14,51,115,0
14,51,55,188
14,51,100,36
14,42,100,304
14,51,115,0
14,35,50,188
14,51,60,0
14,51,100,36
14,42,100,304
14,51,115,0
14,51,90,188
14,51,100,36
14,42,100,304
14,51,115,0
14,45,70,0
14,51,80,188
14,45,60,0
14,51,90,36
14,42,100,304
14,51,115,0
14,51,55,188
14,51,100,36
14,42,100,304
14,51,115,0
14,51,60,188
14,35,80,36
14,51,100,0
14,42,100,304
14,51,115,0
14,51,90,182
14,51,100,42
14,35,50,182
14,38,70,0
14,42,100,42
14,51,115,0
14,38,70,48
14,35,70,54
14,38,50,0
14,51,80,0
14,51,90,42
14,38,70,188
14,42,100,36
14,51,115,0
14,51,55,188
14,51,100,36
14,42,100,304
14,51,115,0
14,51,60,188
14,35,80,36
14,51,100,0
14,42,100,304
14,51,115,0
14,51,90,188
14,51,100,36
14,51,90,188
14,42,100,36
14,51,115,0
14,45,70,0
14,35,70,188
14,51,80,0
14,45,60,0
14,51,90,36
14,42,100,304
14,51,115,0
14,51,55,188
14,51,100,36
14,38,50,188
14,42,100,36
14,51,115,0
14,51,60,188
14,35,80,36
14,51,100,0
14,42,100,304
14,51,115,0
14,51,90,188
14,51,100,36
14,42,100,304
14,51,115,0
14,45,70,0
14,35,70,188
14,51,80,0
14,45,60,0
14,35,90,36
14,51,90,0
14,38,70,188
14,42,100,36
14,51,115,0
14,51,55,188
14,51,100,36
14,42,100,304
14,51,115,0
14,51,60,188
14,51,100,36
14,38,90,188
14,42,100,36
14,51,115,0
14,51,90,188
14,51,100,36
14,42,100,304
14,51,115,0
14,45,70,0
14,51,80,188
14,45,60,0
14,51,90,36
14,42,100,304
14,51,115,0
14,51,55,188
14,51,100,36
14,38,50,188
14,42,100,36
14,51,115,0
14,51,60,188
14,35,80,36
14,51,100,0
14,42,100,304
14,51,115,0
14,51,90,182
14,51,100,42
14,38,90,182
14,51,90,0
14,42,100,42
14,51,115,0
14,38,70,48
14,35,70,54
14,38,50,0
14,51,80,0
14,51,90,42
14,38,70,188
14,42,100,36
14,51,115,0
14,51,55,188
14,51,100,36
14,42,100,304
14,51,115,0
14,51,60,188
14,51,100,36
14,42,100,304
14,51,115,0
14,51,90,188
14,51,100,36
14,42,100,304
14,51,115,0
14,45,70,0
14,51,80,188
14,45,60,0
14,51,90,36
14,42,100,304
14,51,115,0
14,51,55,188
14,51,100,36
14,42,100,304
14,51,115,0
14,51,60,188
14,35,100,36
14,38,100,0
14,38,60,48
14,38,50,48
14,38,40,48
14,42,100,0
14,38,30,48
14,48,90,48
14,38,60,48
14,38,40,48
14,45,90,48
14,38,60,48
14,42,100,0
14,38,40,48
14,41,90,48
14,51,90,48
14,49,90,0
14,38,70,176
14,42,100,48
14,51,115,0
14,51,55,176
14,51,100,48
14,42,100,304
14,51,115,0
14,51,60,176
14,35,80,48
14,51,100,0
14,42,100,304
14,51,115,0
14,51,90,188
14,51,100,36
14,42,100,304
14,51,115,0
14,45,70,0
14,35,70,188
14,51,80,0
14,45,60,0
14,51,90,36
14,42,100,304
14,51,115,0
14,51,55,188
14,51,100,36
14,42,100,304
14,51,115,0
14,51,60,188
14,35,90,36
14,51,90,0
14,42,70,304
14,51,90,0
14,42,80,48
14,42,80,48
14,42,100,48
14,42,80,48
14,35,70,48
14,42,80,0
14,38,100,48
14,42,100,48
14,38,115,48
14,42,70,0
14,35,80,48
14,51,90,0
14,49,90,0
14,42,100,304
14,51,115,0
14,51,55,176
14,51,100,48
14,42,100,304
14,51,115,0
14,51,60,176
14,35,80,48
14,51,100,0
14,42,100,304
14,51,115,0
14,51,90,188
14,51,100,36
14,42,100,304
14,51,115,0
14,45,70,0
14,35,70,188
14,51,80,0
14,45,60,0
14,35,60,36
14,51,90,0
14,38,70,188
14,42,100,36
14,51,115,0
14,51,55,188
14,51,100,36
14,51,80,188
14,42,100,36
14,51,115,0
14,51,60,188
14,35,100,36
14,38,100,0
14,38,60,48
14,38,50,48
14,38,40,48
14,42,100,0
14,38,30,48
14,48,90,48
14,38,60,48
14,38,40,48
14,45,90,48
14,38,60,48
14,42,100,0
14,38,40,48
14,41,90,48
14,35,80,48
14,51,90,0
14,49,90,0
14,40,106,176
14,42,100,128
14,51,115,0
14,51,55,188
14,40,106,20
14,51,100,0
14,42,100,212
14,51,115,0
14,40,106,19
14,51,60,76
14,40,106,36
14,35,80,0
14,51,100,0
14,38,90,188
14,42,100,0
14,51,115,0
14,40,106,176
14,51,90,12
14,51,100,0
14,51,90,188
14,42,100,36
14,51,115,0
14,45,70,0
14,40,106,176
14,35,70,12
14,51,80,0
14,45,60,0
14,51,90,36
14,38,70,76
14,40,106,36
14,42,100,0
14,51,115,0
14,51,55,108
14,40,106,36
14,51,100,0
14,42,100,224
14,51,115,0
14,40,106,176
14,51,60,12
