track,note,velocity,time
0,52,95,92
0,53,95,28
0,57,91,4
0,55,91,54
0,36,98,132
0,48,59,0
0,52,75,0
0,55,63,0
0,60,60,0
0,38,96,0
0,35,69,0
0,38,94,380
0,44,114,0
0,72,117,12
0,76,117,4
0,79,113,8
0,84,113,18
0,43,98,13
0,38,98,0
0,35,69,0
0,83,120,2
0,59,81,18
0,38,104,354
0,44,114,0
0,79,98,204
0,35,64,80
0,40,94,13
0,57,75,0
0,81,79,0
0,38,98,0
0,35,69,0
0,38,105,380
0,44,114,0
0,57,95,124
0,51,59,10
0,54,59,0
0,57,67,0
0,39,117,0
0,38,100,0
0,35,62,0
0,59,95,166
0,75,56,86
0,78,71,0
0,38,99,0
0,44,114,0
0,60,93,8
0,56,81,26
0,57,89,1
0,38,94,13
0,50,24,0
0,53,57,0
0,57,49,0
0,74,61,0
0,77,51,0
0,38,94,0
0,35,69,0
0,60,73,16
0,50,88,24
0,74,117,120
0,38,95,0
0,44,114,0
0,77,113,0
0,81,117,16
0,86,117,28
0,38,87,13
0,38,98,0
0,35,69,0
0,84,120,14
0,38,104,366
0,44,114,0
0,81,85,206
0,35,64,12
0,43,102,13
0,38,99,0
0,35,69,0
0,82,59,6
0,55,83,4
0,59,65,12
0,83,73,6
0,38,105,298
0,44,114,0
0,55,75,162
0,43,98,13
0,38,99,0
0,35,62,0
0,59,69,4
0,50,95,10
0,49,93,12
0,54,91,32
0,38,100,16
0,44,114,0
0,50,95,22
0,57,95,2
0,50,62,4
0,65,62,0
0,65,63,2
0,74,73,0
0,62,64,0
0,69,64,0
0,38,90,0
0,50,60,0
0,53,75,0
0,57,75,0
0,60,59,0
0,38,95,0
0,35,69,0
0,38,96,276
0,44,114,0
0,74,117,12
0,77,109,8
0,81,113,14
0,86,109,12
0,73,71,2
0,61,67,0
0,45,98,0
0,38,99,0
0,35,69,0
0,85,127,20
0,38,104,356
0,44,114,0
0,81,93,42
0,35,64,64
0,72,71,2
0,60,64,0
0,38,98,0
0,84,93,0
0,38,99,0
0,35,69,0
0,53,69,236
0,57,67,16
0,60,59,0
0,60,95,8
0,38,103,8
0,44,114,0
0,59,93,48
0,59,61,60
0,55,21,16
0,83,73,0
0,67,69,2
0,71,73,0
0,59,65,0
0,67,64,0
0,43,94,0
0,38,98,0
0,35,62,0
0,38,98,0
0,44,114,0
0,55,95,26
0,79,47,130
0,77,24,14
0,52,95,4
0,48,65,20
0,52,63,0
0,55,63,0
0,76,41,0
0,48,61,2
0,64,61,0
0,64,63,2
0,72,71,0
0,60,61,0
0,67,61,0
0,36,98,0
0,59,57,0
0,38,95,0
0,35,69,0
0,38,95,72
0,44,114,0
0,72,127,12
0,76,117,6
0,79,113,12
0,84,109,6
0,71,72,2
0,59,62,0
0,43,98,0
0,38,99,0
0,35,69,0
0,83,117,42
0,38,102,336
0,44,114,0
0,55,56,74
0,79,69,16
0,35,64,10
0,69,72,2
0,57,64,0
0,36,94,0
0,57,67,0
0,76,60,0
0,81,57,0
0,38,100,0
0,35,69,0
0,72,51,12
0,38,102,150
0,44,114,0
0,52,95,12
0,52,61,52
0,38,94,13
0,50,91,0
0,60,85,0
0,62,93,0
0,65,89,0
0,38,99,0
0,35,62,0
0,53,95,12
0,39,109,13
0,51,98,0
0,60,83,0
0,63,85,0
0,66,98,0
0,38,100,0
0,44,114,0
0,54,95,32
0,40,90,0
0,52,89,0
0,64,91,0
0,67,102,0
0,38,95,0
0,35,69,0
0,55,95,8
0,53,95,32
0,38,95,104
0,44,114,0
0,52,95,36
0,53,86,24
0,48,69,32
0,55,52,0
0,36,94,4
0,38,98,0
0,35,69,0
0,55,91,6
0,72,71,358
0,64,87,16
0,67,93,0
0,38,103,0
0,44,114,0
0,35,64,284
0,55,59,7
0,64,63,0
0,64,73,6
0,67,74,0
0,59,59,0
0,67,62,0
0,40,98,0
0,55,69,0
0,59,47,0
0,64,75,0
0,67,81,0
0,71,79,0
0,38,100,0
0,35,69,0
0,62,73,2
0,65,74,0
0,38,105,154
0,44,114,0
0,60,63,2
0,64,71,0
0,62,71,2
0,65,73,0
0,63,63,2
0,67,71,0
0,51,91,22
0,59,53,0
0,63,62,2
0,35,98,6
0,38,98,0
0,35,62,0
0,57,95,0
0,63,93,236
0,67,102,0
0,38,98,144
0,44,114,0
0,69,77,10
0,63,61,16
0,71,77,22
0,52,73,6
0,55,71,0
0,59,61,0
0,62,83,0
0,64,73,0
0,67,73,0
0,71,69,0
0,59,95,0
0,62,63,2
0,64,63,2
0,40,94,0
0,38,96,0
0,35,69,0
0,57,95,38
0,38,94,134
0,44,114,0
0,55,95,22
0,57,95,32
0,51,55,6
0,55,65,0
0,59,59,0
0,63,66,2
0,67,74,2
0,71,75,0
0,47,94,0
0,38,98,0
0,35,69,0
0,59,95,8
0,66,67,2
0,69,74,0
0,67,93,64
0,71,95,0
0,75,102,0
0,38,105,128
0,44,114,0
0,64,75,2
0,67,74,0
0,76,87,14
0,66,65,2
0,69,72,0
0,67,67,2
0,71,72,0
0,35,64,0
0,52,41,14
0,55,61,0
0,59,47,0
0,62,55,0
0,67,73,0
0,71,75,0
0,64,63,2
0,40,98,6
0,38,100,0
0,35,69,0
0,38,104,380
0,44,114,0
0,67,102,0
0,59,76,2
0,63,75,0
0,59,95,18
0,69,87,22
0,58,65,2
0,62,72,0
0,57,73,2
0,61,74,0
0,58,63,0
0,33,94,0
0,45,73,0
0,55,79,0
0,61,91,0
0,67,87,0
0,70,75,0
0,38,98,0
0,35,62,0
0,58,95,96
0,38,100,6
0,44,114,0
0,59,95,88
0,60,95,10
0,57,64,2
0,64,62,0
0,60,71,2
0,69,73,0
0,60,64,0
0,69,62,0
0,33,90,0
0,38,94,0
0,35,69,0
0,57,83,12
0,60,93,256
0,64,105,0
0,69,93,0
0,38,95,112
0,44,114,0
0,67,74,2
0,67,63,0
0,33,94,0
0,38,99,0
0,35,69,0
0,60,83,12
0,64,93,0
0,67,93,0
0,69,87,0
0,38,102,0
0,44,114,0
0,62,95,0
0,60,81,2
0,64,93,0
0,69,93,0
0,72,89,0
0,35,64,4
0,58,88,24
0,59,95,2
0,62,71,2
0,66,73,0
0,60,64,0
0,66,58,0
0,38,105,0
0,38,99,0
0,35,69,0
0,50,95,12
0,66,87,16
0,74,93,0
0,38,105,32
0,44,114,0
0,67,85,8
0,52,102,17
0,62,62,2
0,38,80,6
0,38,98,0
0,35,62,0
0,53,98,8
0,68,83,0
0,38,100,12
0,44,114,0
0,50,95,8
0,54,85,2
0,69,65,7
0,55,95,40
0,55,64,2
0,62,64,0
0,62,71,2
0,65,73,0
0,59,61,0
0,67,64,0
0,43,98,0
0,38,95,0
0,35,69,0
0,55,73,12
0,59,73,0
0,67,65,0
0,71,67,0
0,38,95,368
0,44,114,0
0,61,55,2
0,64,72,0
0,71,89,8
0,60,50,2
0,63,68,0
0,72,81,10
0,59,53,2
0,62,69,0
0,61,61,2
0,58,59,2
0,61,70,0
0,58,58,0
0,37,112,0
0,49,61,0
0,58,63,0
0,67,65,0
0,70,63,0
0,73,67,0
0,38,98,0
0,35,69,0
0,67,91,32
0,70,81,0
0,73,79,0
0,76,93,0
0,38,103,112
0,44,114,0
0,57,95,16
0,67,79,18
0,70,73,0
0,73,83,0
0,55,88,20
0,35,64,30
0,57,59,2
0,62,63,0
0,53,85,2
0,60,57,0
0,62,70,0
0,60,59,0
0,65,63,0
0,38,98,0
0,38,99,0
0,35,69,0
0,50,59,12
0,53,79,0
0,57,67,0
0,65,83,0
0,69,95,0
0,74,83,0
0,38,103,6
0,44,114,0
0,52,95,222
0,55,85,24
0,59,65,6
0,67,85,0
0,43,90,13
0,71,59,0
0,38,99,0
0,53,95,20
0,75,39,8
0,79,77,0
0,57,95,0
0,38,100,6
0,42,87,0
0,44,114,0
0,42,75,22
0,77,71,60
0,55,95,36
0,46,75,28
0,48,61,7
0,64,57,0
0,64,65,4
0,69,72,0
0,60,62,0
0,67,61,0
0,48,94,0
0,48,65,0
0,52,65,0
0,55,67,0
0,38,95,0
0,35,69,0
0,76,59,12
0,59,83,18
0,38,95,144
0,44,114,0
0,72,117,12
0,76,117,4
0,79,113,10
0,84,109,0
0,67,73,2
0,59,64,0
0,43,94,0
0,38,100,0
0,35,69,0
0,83,120,2
0,38,104,374
0,44,114,0
0,79,89,68
0,35,64,80
0,71,73,2
0,57,64,0
0,40,90,0
0,52,73,0
0,57,75,0
0,81,71,0
0,38,98,0
0,35,69,0
0,38,105,16
0,44,114,0
0,55,89,1
0,57,95,4
0,52,52,19
0,63,57,2
0,63,69,2
0,69,73,0
0,66,58,0
0,39,98,0
0,38,100,0
0,35,62,0
0,59,95,2
0,57,91,9
0,51,59,1
0,54,67,0
0,38,99,368
0,44,114,0
0,60,95,38
0,50,61,2
0,62,62,0
0,62,69,2
0,65,62,0
0,38,94,0
0,38,94,0
0,35,69,0
0,50,52,6
0,53,69,4
0,57,63,2
0,62,79,12
0,56,93,12
0,57,89,6
0,38,95,200
0,44,114,0
0,74,113,0
0,77,95,92
0,50,95,26
0,81,95,16
0,86,109,12
0,60,61,2
0,38,94,0
0,38,99,0
0,35,69,0
0,84,113,2
0,38,103,216
0,44,114,0
0,81,75,76
0,35,64,30
0,62,59,2
0,67,71,2
0,59,61,0
0,43,80,0
0,53,52,0
0,55,55,0
0,59,60,0
0,38,100,0
0,35,69,0
0,83,75,12
0,38,103,368
0,44,114,0
0,43,94,13
0,55,85,0
0,38,98,0
0,35,62,0
0,50,95,8
0,49,95,28
0,54,95,2
0,38,100,0
0,44,114,0
0,50,95,26
0,59,95,0
0,43,58,2
0,60,61,0
0,64,74,2
0,57,58,0
0,65,61,0
0,43,98,0
0,55,55,0
0,59,73,0
0,62,75,0
0,38,95,0
0,35,69,0
0,65,63,8
0,65,73,2
0,38,94,0
0,44,114,0
0,76,113,2
0,77,83,6
0,81,95,8
0,88,109,16
0,62,61,2
0,71,73,2
0,59,58,0
0,67,61,0
0,35,112,0
0,38,100,0
0,35,69,0
0,86,127,6
0,38,103,372
0,44,114,0
0,81,102,6
0,35,64,76
0,50,61,2
0,60,61,0
0,64,73,2
0,57,61,0
0,65,61,0
0,38,98,0
0,38,101,0
0,35,69,0
0,83,85,12
0,59,65,240
0,62,67,0
0,65,69,2
0,38,103,0
0,44,114,0
0,59,95,8
0,62,83,34
0,59,61,2
0,76,98,0
0,55,61,2
0,43,102,0
0,38,99,0
0,35,62,0
0,79,83,0
0,71,85,1
0,74,85,1
0,60,95,10
0,69,85,47
0,38,98,13
0,44,114,0
0,76,105,2
0,74,91,1
0,81,91,7
0,62,95,12
0,47,61,2
0,57,61,0
0,54,61,0
0,64,61,0
0,35,94,0
0,54,65,0
0,59,73,0
0,62,81,0
0,38,94,0
0,35,69,0
0,64,95,0
0,38,95,244
0,44,114,0
0,71,117,2
0,74,109,16
0,78,95,2
0,83,105,20
0,35,98,13
0,38,98,0
0,35,69,0
0,81,127,2
0,38,104,368
0,44,114,0
0,59,61,2
0,78,91,24
0,57,61,2
0,35,64,6
0,52,61,2
0,56,61,0
0,52,61,2
0,40,105,0
0,52,77,0
0,56,60,0
0,59,85,0
0,38,99,0
0,35,69,0
0,80,104,10
0,71,91,2
0,38,103,58
0,44,114,0
0,64,95,212
0,70,77,8
0,69,79,64
0,40,102,13
0,38,98,0
0,35,62,0
0,68,81,8
0,63,95,44
0,64,91,4
0,38,100,20
0,44,114,0
0,52,57,12
0,62,65,0
0,65,71,0
0,68,61,0
0,71,79,0
0,74,61,0
0,65,95,0
0,52,77,8
0,55,63,8
0,61,58,0
0,57,63,4
0,65,65,0
0,33,94,0
0,38,94,0
0,35,69,0
0,45,87,28
0,55,87,198
0,57,91,26
0,61,98,0
0,65,105,0
0,38,95,100
0,44,114,0
0,33,90,24
0,38,100,0
0,35,69,0
0,61,73,12
0,64,95,0
0,69,98,0
0,65,83,52
0,71,89,0
0,38,104,0
0,44,114,0
0,64,95,2
0,35,64,14
0,49,60,16
0,52,75,0
0,55,63,2
0,45,94,0
0,38,100,0
0,35,69,0
0,61,95,8
0,67,89,244
0,69,95,0
0,73,98,0
0,38,104,128
0,44,114,0
0,67,75,32
0,69,79,0
0,74,81,0
0,67,87,20
0,69,79,0
0,73,56,0
0,76,65,0
0,64,61,2
0,40,94,0
0,38,100,0
0,35,62,0
0,62,95,24
0,55,75,34
0,38,100,0
0,44,114,0
0,64,95,4
0,50,65,6
0,54,57,0
0,57,73,0
0,60,65,0
0,54,60,2
0,60,60,0
0,62,76,2
0,66,75,0
0,57,60,0
0,66,60,0
0,38,98,0
0,38,95,0
0,35,69,0
0,61,80,6
0,62,95,16
0,66,120,210
0,57,95,30
0,38,93,38
0,44,114,0
0,54,77,46
0,64,71,2
0,67,73,0
0,67,56,0
0,45,94,0
0,38,99,0
0,35,69,0
0,55,105,12
0,67,105,194
0,38,103,112
0,44,114,0
0,35,64,0
0,50,59,2
0,65,61,0
0,65,76,2
0,68,75,0
0,59,61,0
0,68,61,0
0,38,98,0
0,38,98,0
0,35,69,0
0,70,75,1
0,68,127,27
0,56,89,160
0,38,105,128
0,44,114,0
0,67,87,2
0,57,95,4
0,68,105,8
0,66,61,2
0,66,73,2
0,69,74,0
0,60,61,0
0,69,61,0
0,38,102,0
0,38,99,0
0,35,62,0
0,69,87,12
0,56,95,32
0,54,52,22
0,57,65,0
0,62,69,0
0,38,99,28
0,44,114,0
0,66,85,28
0,72,79,0
0,57,95,46
0,64,63,2
0,67,71,0
0,63,76,2
0,66,75,0
0,65,62,2
0,62,62,0
0,65,71,0
0,60,59,0
0,69,64,0
0,38,98,0
0,50,65,0
0,53,77,0
0,57,73,0
0,60,65,0
0,65,79,0
0,69,73,0
0,38,94,0
0,35,69,0
0,65,95,0
0,38,96,244
0,44,114,0
0,45,94,13
0,65,98,0
0,69,105,0
0,72,109,0
0,76,93,0
0,38,99,0
0,35,69,0
0,74,89,20
0,65,83,16
0,69,93,0
0,38,104,112
0,44,114,0
0,65,85,24
0,69,87,0
0,72,79,0
0,76,85,0
0,57,95,36
0,66,75,2
0,67,75,2
0,35,64,0
0,65,71,8
0,68,81,0
0,71,95,0
0,74,83,0
0,55,64,2
0,65,63,0
0,68,74,2
0,59,64,0
0,68,63,0
0,43,80,0
0,38,100,0
0,35,69,0
0,64,85,88
0,38,103,292
0,44,114,0
0,49,91,188
0,50,71,0
0,43,90,0
0,43,105,0
0,38,98,0
0,35,62,0
0,64,91,0
0,65,77,244
0,68,89,0
0,71,102,0
0,76,102,0
0,38,99,0
0,44,114,0
0,48,61,2
0,64,61,0
0,48,79,1
0,64,87,1
0,64,65,2
0,67,72,0
0,60,61,0
0,67,54,0
0,36,98,0
0,72,85,0
0,38,96,0
0,35,69,0
0,67,93,3
0,69,95,1
0,60,95,15
0,38,94,364
0,44,114,0
0,47,94,13
0,38,100,0
0,35,69,0
0,45,94,13
0,38,104,0
0,44,114,0
0,43,90,0
0,43,102,29
0,55,73,42
0,71,73,0
0,64,121,6
0,65,73,0
0,76,73,0
0,38,100,0
0,46,75,0
0,36,64,0
0,50,71,20
0,72,71,0
0,65,117,2
0,65,71,0
0,77,71,0
0,38,83,0
0,38,99,0
0,36,64,0
0,55,70,48
0,71,70,0
0,69,114,0
0,65,70,0
0,75,70,0
0,31,105,0
0,38,99,0
0,42,87,0
0,44,114,0
0,36,64,0
0,42,75,8
0,48,71,22
0,71,71,0
0,67,116,4
0,64,71,0
0,74,71,0
0,46,75,16
0,36,105,53
0,51,75,0
0,35,69,0
0,38,78,13
0,44,114,0
0,51,73,0
0,55,84,238
0,64,85,0
0,76,88,2
0,83,88,11
0,86,88,0
0,62,81,2
0,40,83,0
0,67,78,0
0,72,78,0
0,76,90,0
0,51,68,0
0,35,69,0
0,67,94,34
0,72,94,0
0,62,86,6
0,76,92,2
0,83,87,0
0,86,87,0
0,52,82,3
0,31,78,10
0,64,74,0
