track,note,velocity,time
1,44,80,4608
1,44,100,323
1,44,80,285
1,37,70,304
1,44,100,19
1,44,80,285
1,44,90,323
1,44,80,285
1,37,70,304
1,44,90,19
1,44,80,285
1,44,100,323
1,44,80,285
1,37,70,304
1,44,100,19
1,44,80,285
1,44,90,323
1,44,60,185
1,44,80,20
1,37,70,304
1,44,90,19
1,44,60,185
1,44,80,20
1,44,100,323
1,44,80,285
1,37,70,304
1,44,100,19
1,44,80,285
1,44,90,323
1,44,80,285
1,37,70,304
1,44,90,19
1,44,80,285
1,44,100,323
1,44,80,285
1,37,70,304
1,44,100,19
1,44,80,285
1,44,100,323
1,44,80,285
1,37,70,304
1,44,100,19
1,44,80,285
1,44,90,323
1,44,60,182
1,44,80,23
1,37,60,304
1,44,90,19
1,44,60,182
1,44,80,23
1,44,90,323
1,44,60,185
1,44,80,20
1,37,70,304
1,44,90,19
1,44,60,185
1,44,80,20
1,44,90,323
1,44,60,182
1,44,80,23
1,37,60,304
1,44,90,19
1,44,60,182
1,44,80,23
1,44,90,323
1,44,80,285
1,37,70,304
1,44,90,19
1,44,80,285
1,44,90,323
1,44,60,182
1,44,80,23
1,37,60,304
1,44,90,19
1,44,60,182
1,44,80,23
1,44,90,323
1,44,60,185
1,44,80,20
1,37,70,304
1,44,90,19
1,44,60,185
1,44,80,20
1,44,90,323
1,44,60,185
1,44,80,20
1,37,70,304
1,44,90,19
1,44,60,185
1,44,80,20
1,44,90,323
1,44,60,185
1,44,80,20
1,38,60,204
1,44,90,39
1,38,30,185
1,44,60,0
1,44,80,20
1,44,100,323
1,44,80,285
1,37,70,304
1,44,100,19
1,44,80,285
1,44,100,323
1,44,80,285
1,37,70,304
1,44,100,19
1,44,80,285
1,44,100,323
1,44,80,285
1,37,70,304
1,44,100,19
1,44,80,285
1,44,100,323
1,44,80,285
1,37,70,304
1,44,100,19
1,44,80,285
1,44,90,323
1,44,60,185
1,44,80,20
1,37,70,304
1,44,90,19
1,44,60,185
1,44,80,20
1,44,90,323
1,44,60,185
1,44,80,20
1,37,70,304
1,44,90,19
1,44,60,185
1,44,80,20
1,44,100,323
1,44,80,285
1,37,70,304
1,44,100,19
1,44,80,285
1,44,100,323
1,44,80,285
1,37,70,304
1,44,100,19
1,44,80,285
1,44,90,323
1,44,60,182
1,44,80,23
1,37,60,304
1,44,90,19
1,44,60,182
1,44,80,23
1,44,90,323
1,44,80,285
1,37,70,304
1,44,90,19
1,44,80,285
1,44,90,323
1,44,60,182
1,44,80,23
1,37,60,304
1,44,90,19
1,44,60,182
1,44,80,23
1,44,100,323
1,44,80,285
1,37,70,304
1,44,100,19
1,44,80,285
1,44,100,304
1,44,80,304
1,44,100,304
1,37,70,0
1,44,80,304
1,44,90,304
1,44,80,304
1,44,90,304
1,37,70,0
1,44,80,304
1,44,90,304
1,44,60,204
1,44,80,20
1,44,90,304
1,37,70,0
1,44,60,204
1,44,80,20
1,44,90,304
1,44,60,204
1,44,80,20
1,38,60,204
1,44,90,20
1,38,30,204
1,51,60,0
1,51,80,20
1,49,30,0
1,42,70,304
1,51,100,0
1,51,80,304
1,42,70,304
1,37,70,0
1,51,100,0
1,51,80,304
1,42,70,304
1,51,100,0
1,51,80,304
1,42,70,304
1,37,70,0
1,51,100,0
1,51,80,304
1,42,70,304
1,51,90,0
1,51,60,201
1,51,80,23
1,42,70,304
1,37,60,0
1,51,90,0
1,51,60,201
1,51,80,23
1,42,70,304
1,51,90,0
1,51,60,204
1,51,80,20
1,42,70,304
1,37,70,0
1,51,90,0
1,51,60,204
1,51,80,20
1,42,70,304
1,51,90,0
1,51,60,201
1,51,80,23
1,42,70,304
1,37,60,0
1,51,90,0
1,51,60,201
1,51,80,23
1,42,70,304
1,51,90,0
1,51,60,204
1,51,80,20
1,42,70,304
1,37,70,0
1,51,90,0
1,51,60,204
1,51,80,20
1,42,70,304
1,51,100,0
1,51,80,304
1,42,70,304
1,37,70,0
1,51,100,0
1,51,80,304
1,42,70,304
1,51,90,0
1,51,80,304
1,42,70,304
1,37,70,0
1,51,90,0
1,51,80,304
1,42,70,304
1,51,100,0
1,51,80,304
1,42,70,304
1,37,70,0
1,51,100,0
1,51,80,304
1,42,70,304
1,51,100,0
1,51,80,304
1,42,70,304
1,37,70,0
1,51,100,0
1,51,80,304
1,42,70,304
1,51,90,0
1,51,60,204
1,51,80,20
1,42,70,304
1,37,70,0
1,51,90,0
1,51,60,204
1,51,80,20
1,42,70,304
1,51,90,0
1,51,60,204
1,51,80,20
1,42,70,304
1,37,70,0
1,51,90,0
1,38,69,240
1,38,72,0
1,51,80,0
1,38,80,0
1,57,69,176
1,35,69,0
1,42,70,58
1,51,100,0
1,51,80,304
1,35,69,176
1,38,69,0
1,42,70,58
1,51,100,0
1,51,80,304
1,49,69,0
1,35,69,0
1,42,70,304
1,51,90,0
1,51,60,41
1,51,80,20
1,49,69,0
1,35,69,0
1,42,70,304
1,37,70,0
1,51,90,0
1,51,60,41
1,51,80,20
1,49,69,0
1,35,69,0
1,42,70,304
1,51,90,0
1,51,60,38
1,51,80,0
1,49,69,0
1,35,69,0
1,42,70,212
1,37,60,0
1,51,90,0
1,49,69,13
1,35,69,0
1,51,60,25
1,51,80,23
1,42,70,304
1,51,90,0
1,51,60,169
1,51,80,20
1,35,69,0
1,38,20,112
1,38,40,20
1,42,70,0
1,37,70,0
1,51,90,0
1,35,69,176
1,40,69,0
1,51,60,28
1,51,80,20
1,42,70,304
1,51,100,0
1,51,80,304
1,42,70,304
1,37,70,0
1,51,100,0
1,51,80,304
1,42,70,304
1,51,90,0
1,51,80,304
1,42,70,304
1,37,70,0
1,51,90,0
1,38,69,240
1,38,81,0
1,38,80,0
1,51,80,0
1,35,75,176
1,49,75,0
1,42,70,39
1,51,90,0
1,51,60,201
1,35,75,23
1,40,75,0
1,51,80,0
1,38,81,231
1,38,81,0
1,38,82,0
1,42,70,0
1,51,90,0
1,40,75,176
1,35,75,0
1,57,75,0
1,51,60,25
1,51,80,23
1,35,75,304
1,40,75,0
1,42,70,0
1,51,100,0
1,38,66,231
1,38,71,0
1,38,80,0
1,51,80,0
1,40,75,176
1,35,75,0
1,49,75,0
1,42,70,39
1,51,100,0
1,49,75,96
1,35,75,0
1,40,75,0
1,51,80,0
1,42,70,295
1,51,90,0
1,51,60,204
1,51,80,20
1,42,70,304
1,37,70,0
1,51,90,0
1,51,60,204
1,51,80,20
1,42,70,304
1,51,100,0
1,51,80,304
1,42,70,304
1,37,70,0
1,51,100,0
1,51,80,304
1,42,70,304
1,51,90,0
1,51,60,204
1,51,80,20
1,42,70,304
1,37,70,0
1,51,90,0
1,51,60,204
1,51,80,20
1,38,69,272
1,38,81,0
1,35,75,0
1,38,75,0
1,42,70,0
1,51,90,0
1,40,69,304
1,51,80,0
1,49,75,176
1,35,75,0
1,40,75,0
1,42,70,48
1,37,70,0
1,51,90,0
1,35,75,304
1,40,75,0
1,38,69,1392
1,38,74,0
1,38,80,0
1,49,81,304
1,35,81,0
1,40,81,0
1,57,81,551
1,35,81,0
1,40,81,0
1,49,81,423
1,35,81,0
1,40,81,0
1,38,69,1383
1,38,74,0
1,38,80,0
1,49,81,304
1,35,81,0
1,40,81,0
1,57,81,551
1,35,81,0
1,40,81,0
1,49,81,423
1,35,81,0
1,40,81,0
1,49,81,679
1,35,81,0
1,40,81,0
1,49,81,679
1,35,81,0
1,40,81,0
1,38,69,615
1,38,74,0
1,38,80,0
1,49,81,176
1,35,81,0
1,38,81,0
1,49,81,295
1,57,81,0
1,35,81,0
1,38,81,0
1,35,72,423
1,38,72,0
1,35,66,295
1,38,66,0
1,35,75,295
1,38,75,0
1,35,81,167
1,38,81,0
1,40,50,256
1,42,75,72
1,50,81,0
1,40,52,0
1,50,67,72
1,40,54,0
1,50,46,68
1,40,51,4
1,47,90,0
1,40,74,0
1,47,85,72
1,40,74,0
1,47,98,68
1,40,67,4
1,43,114,72
1,40,113,0
1,43,93,72
1,40,99,0
1,43,127,72
1,40,100,4
1,35,98,232
1,35,91,4
1,40,127,32
1,35,84,332
1,38,84,0
1,35,94,212
1,40,94,0
1,40,81,308
1,35,81,0
1,49,106,0
1,42,70,442
1,51,100,0
1,51,80,304
1,42,70,304
1,51,100,0
1,37,70,0
1,51,80,116
1,42,70,304
1,51,100,0
1,51,80,304
1,42,70,304
1,37,70,0
1,51,100,0
1,51,80,304
1,38,81,0
1,35,81,0
1,42,70,304
1,51,90,0
1,35,75,0
1,35,81,176
1,51,60,28
1,47,100,28
1,40,52,69
1,43,109,81
1,40,127,69
1,44,126,8
1,50,36,85
1,47,45,5
1,47,54,17
1,38,81,5
1,43,67,8
1,38,81,0
1,35,125,4
1,38,125,0
1,35,117,333
1,49,120,0
1,42,70,713
1,37,70,0
1,51,100,0
1,51,80,0
1,42,70,116
1,51,90,0
1,51,80,0
1,42,70,116
1,37,70,0
1,51,90,0
1,51,80,0
1,42,70,304
1,51,100,0
1,51,80,3
1,42,70,304
1,37,70,0
1,51,100,0
1,51,80,304
1,42,70,304
1,51,90,0
1,51,60,204
1,51,80,20
1,42,70,304
1,37,70,0
1,51,90,0
1,51,60,204
1,51,80,20
1,42,70,304
1,51,90,0
1,51,60,201
1,51,80,23
1,42,70,304
1,37,60,0
1,51,90,0
1,51,60,201
1,51,80,23
1,42,70,304
1,51,90,0
1,51,60,204
1,51,80,20
1,42,70,304
1,37,70,0
1,51,90,0
1,51,60,204
1,51,80,20
1,42,70,304
1,51,100,0
1,51,80,304
1,42,70,304
1,37,70,0
1,51,100,0
1,51,80,304
1,42,70,304
1,51,90,0
1,51,80,304
1,42,70,304
1,37,70,0
1,51,90,0
1,51,80,304
1,42,70,304
1,51,90,0
1,51,60,201
1,51,80,23
1,42,70,304
1,37,60,0
1,51,90,0
1,51,60,201
1,51,80,23
1,42,70,304
1,51,100,0
1,51,80,304
1,42,70,304
1,37,70,0
1,51,100,0
1,51,80,304
1,42,70,304
1,51,100,0
1,51,80,304
1,42,70,304
1,37,70,0
1,51,100,0
1,51,80,304
1,42,70,304
1,51,90,0
1,51,60,204
1,51,80,20
1,38,60,204
1,42,70,20
1,51,90,0
1,38,30,204
1,51,60,0
1,51,80,20
1,42,70,304
1,51,90,0
1,51,60,201
1,51,80,23
1,42,70,304
1,37,60,0
1,51,90,0
1,51,60,201
1,51,80,23
1,42,70,304
1,51,90,0
1,51,60,204
1,51,80,20
1,42,70,304
1,37,70,0
1,51,90,0
1,51,60,204
1,51,80,20
1,42,70,304
1,51,90,0
1,51,60,201
1,51,80,23
1,42,70,304
1,37,60,0
1,51,90,0
1,51,60,201
1,51,80,23
1,42,70,304
1,51,90,0
1,51,80,304
1,42,70,304
1,37,70,0
1,51,90,0
1,51,80,304
1,42,70,304
1,51,90,0
1,51,60,204
1,51,80,20
1,42,70,304
1,37,70,0
1,51,90,0
1,51,60,204
1,51,80,20
1,42,70,304
1,51,90,0
1,51,60,204
1,51,80,20
1,42,70,304
1,37,70,0
1,51,90,0
1,51,60,204
1,51,80,20
1,42,70,304
1,51,90,0
1,51,60,204
1,51,80,20
1,42,70,304
1,37,70,0
1,51,90,0
1,51,60,204
1,51,80,20
1,42,70,304
1,51,100,0
1,51,80,304
1,42,70,304
1,37,70,0
1,51,100,0
1,51,80,304
1,42,70,304
1,51,90,0
1,51,60,204
1,51,80,20
1,42,70,304
1,37,70,0
1,51,90,0
1,51,60,204
1,51,80,20
1,42,70,304
1,51,100,0
1,51,80,304
1,42,70,304
1,37,70,0
1,51,100,0
1,51,80,304
1,42,70,304
1,51,100,0
1,51,80,304
1,42,70,304
1,37,70,0
1,51,100,0
1,51,80,304
1,42,70,304
1,51,90,0
1,51,80,304
1,42,70,304
1,37,70,0
1,51,90,0
1,51,80,304
1,42,70,304
1,51,90,0
1,51,60,201
1,51,80,23
1,42,70,304
1,37,60,0
1,51,90,0
1,51,60,201
1,51,80,23
1,42,70,304
1,51,90,0
1,51,80,304
1,42,70,304
1,37,70,0
1,51,90,0
1,51,80,304
1,42,70,304
1,51,90,0
1,51,60,201
1,51,80,23
1,42,70,304
1,37,60,0
1,51,90,0
1,51,60,201
1,51,80,23
1,42,70,304
1,51,90,0
1,51,60,204
1,51,80,20
1,38,20,204
1,38,40,20
1,42,70,0
1,37,70,0
1,51,90,0
1,51,60,204
1,51,80,20
1,42,70,304
1,51,90,0
1,51,60,201
1,51,80,23
1,42,70,304
1,37,60,0
1,51,90,0
1,51,60,201
1,51,80,23
1,42,70,304
1,51,90,0
1,51,80,304
1,42,70,304
1,37,70,0
1,51,90,0
1,51,80,304
1,42,70,304
1,51,90,0
1,51,60,201
1,51,80,23
1,42,70,304
1,37,60,0
1,51,90,0
1,51,60,201
1,51,80,23
1,42,70,304
1,51,90,0
1,51,80,304
1,42,70,304
1,37,70,0
1,51,90,0
1,51,80,304
1,42,70,304
1,51,90,0
1,51,60,201
1,51,80,23
1,42,70,304
1,37,60,0
1,51,90,0
1,51,60,201
1,51,80,23
1,42,70,304
1,51,90,0
1,51,80,304
1,42,70,304
1,37,70,0
1,51,90,0
1,51,80,304
1,42,70,304
1,51,100,0
1,51,80,304
1,42,70,304
1,37,70,0
1,51,100,0
1,51,80,304
1,42,70,304
1,51,90,0
1,51,80,304
1,42,70,304
1,37,70,0
1,51,90,0
1,51,80,304
1,42,70,304
1,51,100,0
1,51,80,304
1,42,70,304
1,37,70,0
1,51,100,0
1,51,80,304
1,42,70,304
1,51,90,0
1,51,80,304
1,42,70,304
1,37,70,0
1,51,90,0
1,51,80,304
1,42,70,304
1,51,90,0
1,51,60,201
1,51,80,23
1,42,70,304
1,37,60,0
1,51,90,0
1,51,60,201
1,51,80,23
1,42,70,304
1,51,90,0
1,51,80,304
1,42,70,304
1,37,70,0
1,51,90,0
1,51,80,304
1,42,70,304
1,51,90,0
1,51,60,204
1,51,80,20
1,42,70,304
1,37,70,0
1,51,90,0
1,51,60,204
1,51,80,20
1,42,70,304
1,51,100,0
1,51,80,304
1,42,70,304
1,37,70,0
1,51,100,0
1,51,80,304
1,42,70,304
1,51,90,0
1,51,60,201
1,51,80,23
1,42,70,304
1,37,60,0
1,51,90,0
1,51,60,201
1,51,80,23
1,42,70,304
1,51,90,0
1,51,60,204
1,51,80,20
1,38,60,204
1,42,70,20
1,51,90,0
1,38,30,204
1,51,60,0
1,51,80,20
1,42,70,304
1,51,100,0
1,51,80,304
1,42,70,304
1,37,70,0
1,51,100,0
1,51,80,304
1,42,70,304
1,51,90,0
1,51,80,304
1,42,70,304
1,37,70,0
1,51,90,0
1,51,80,304
1,42,70,304
1,51,90,0
1,51,60,204
1,51,80,20
1,42,70,304
1,37,70,0
1,51,90,0
1,51,60,204
1,51,80,20
1,42,70,304
1,51,90,0
1,51,60,204
1,51,80,20
1,42,70,304
1,37,70,0
1,51,90,0
1,51,60,204
1,51,80,20
1,42,70,304
1,51,100,0
1,51,80,304
1,42,70,304
1,37,70,0
1,51,100,0
1,51,80,304
1,42,70,304
1,51,90,0
1,51,80,304
1,42,70,304
1,37,70,0
1,51,90,0
1,51,80,304
1,42,70,304
1,51,100,0
1,51,80,304
1,42,70,304
1,37,70,0
1,51,100,0
1,51,80,304
1,42,70,304
1,51,90,0
1,51,60,204
1,51,80,20
1,42,70,304
1,37,70,0
1,51,90,0
1,51,60,204
1,51,80,20
1,42,70,304
1,51,90,0
1,51,60,201
1,51,80,23
1,42,70,304
1,37,60,0
1,51,90,0
1,51,60,201
1,51,80,23
1,42,70,304
1,51,90,0
1,51,80,304
1,42,70,304
1,37,70,0
1,51,90,0
1,51,80,304
1,42,70,304
1,51,90,0
1,51,60,204
1,51,80,20
1,42,70,304
1,37,70,0
1,51,90,0
1,51,60,204
1,51,80,20
1,42,70,304
1,51,90,0
1,51,60,204
1,51,80,20
1,42,70,304
1,37,70,0
1,51,90,0
1,51,60,204
1,51,80,20
1,42,70,304
1,51,90,0
