track,note,velocity,time
14,49,94,4608
14,51,94,0
14,35,94,0
14,51,94,1456
14,57,94,0
14,38,51,1392
14,38,51,0
14,38,51,0
14,51,61,173
14,35,61,0
14,51,72,24
14,35,72,0
14,51,82,24
14,35,82,0
14,51,89,24
14,35,89,0
14,51,90,5
14,35,90,0
14,51,60,109
14,38,90,0
14,46,90,5
14,51,100,32
14,35,40,0
14,51,90,0
14,35,60,0
14,38,80,109
14,46,80,42
14,51,60,32
14,49,90,0
14,51,115,0
14,35,80,0
14,51,90,304
14,37,70,0
14,42,100,0
14,51,55,182
14,51,115,42
14,38,40,0
14,38,50,182
14,51,90,42
14,37,70,0
14,42,100,0
14,51,50,182
14,51,115,42
14,35,80,0
14,51,80,304
14,37,70,0
14,42,100,0
14,51,50,182
14,38,90,0
14,51,115,42
14,51,90,182
14,51,90,42
14,37,70,0
14,42,100,0
14,51,60,182
14,51,115,42
14,38,70,182
14,51,90,42
14,37,70,0
14,42,100,0
14,51,55,182
14,38,40,0
14,51,115,42
14,51,90,304
14,37,70,0
14,42,100,0
14,51,60,182
14,38,40,0
14,51,115,42
14,51,100,304
14,37,70,0
14,42,100,0
14,51,60,182
14,38,40,0
14,51,115,42
14,38,40,182
14,51,90,42
14,37,70,0
14,42,100,0
14,51,50,182
14,51,115,42
14,38,70,182
14,51,90,42
14,37,70,0
14,42,100,0
14,51,55,182
14,38,40,0
14,51,115,42
14,51,80,182
14,51,90,42
14,37,70,0
14,42,100,0
14,51,60,182
14,38,40,0
14,51,115,42
14,35,54,0
14,51,80,304
14,37,70,0
14,42,100,0
14,51,50,182
14,51,115,42
14,51,90,304
14,37,70,0
14,42,100,0
14,51,60,182
14,51,115,42
14,35,80,0
14,51,70,188
14,51,100,36
14,37,70,0
14,42,100,0
14,51,115,304
14,38,40,0
14,51,90,304
14,37,70,0
14,42,100,0
14,51,50,188
14,49,90,36
14,35,80,0
14,38,90,176
14,46,90,48
14,48,50,176
14,48,90,48
14,45,80,176
14,46,70,48
14,41,60,48
14,41,90,48
14,35,54,48
14,53,69,176
14,35,54,128
14,35,54,0
14,53,69,176
14,35,54,128
14,35,54,0
14,53,69,176
14,35,54,128
14,35,54,0
14,53,69,176
14,35,54,128
14,51,80,0
14,35,80,0
14,51,70,115
14,51,100,36
14,37,70,0
14,42,100,0
14,51,115,0
14,38,40,0
14,51,90,77
14,37,70,0
14,42,100,0
14,51,50,38
14,51,115,0
14,35,80,0
14,51,100,304
14,37,70,0
14,42,100,0
14,51,60,182
14,38,40,0
14,51,115,42
14,51,90,304
14,37,70,0
14,42,100,0
14,51,50,182
14,51,115,42
14,35,80,0
14,51,90,304
14,37,70,0
14,42,100,0
14,51,55,188
14,38,40,0
14,51,115,36
14,38,50,188
14,51,80,36
14,37,70,0
14,42,100,0
14,51,60,188
14,51,115,36
14,35,80,0
14,51,80,304
14,37,70,0
14,42,100,0
14,51,50,182
14,51,115,42
14,51,90,304
14,37,70,0
14,42,100,0
14,51,60,182
14,51,115,42
14,35,80,0
14,51,70,188
14,51,100,36
14,37,70,0
14,42,100,0
14,51,115,304
14,38,40,0
14,51,90,304
14,37,70,0
14,42,100,0
14,51,50,188
14,38,100,36
14,35,100,182
14,42,100,42
14,38,89,182
14,48,90,0
14,48,70,70
14,48,90,0
14,42,100,0
14,38,100,70
14,49,90,0
14,51,115,0
14,35,80,0
14,51,90,304
14,37,70,0
14,42,100,0
14,51,55,182
14,51,115,42
14,38,40,0
14,51,90,304
14,37,70,0
14,42,100,0
14,51,50,182
14,51,115,42
14,51,100,304
14,37,70,0
14,42,100,0
14,51,60,182
14,38,40,0
14,51,115,42
14,38,40,182
14,51,90,42
14,37,70,0
14,42,100,0
14,51,50,182
14,51,115,42
14,35,80,0
14,51,90,304
14,37,70,0
14,42,100,0
14,51,55,188
14,38,40,0
14,51,115,36
14,51,80,304
14,37,70,0
14,42,100,0
14,51,60,188
14,51,115,0
14,35,54,0
14,51,80,0
14,37,70,0
14,42,100,0
14,51,50,70
14,51,115,0
14,51,90,0
14,37,70,0
14,42,100,0
14,38,81,64
14,51,60,6
14,35,60,0
14,51,115,0
14,35,80,0
14,38,81,240
14,38,81,0
14,38,81,0
14,51,90,0
14,37,70,0
14,42,100,0
14,57,81,135
14,51,55,12
14,38,40,0
14,51,115,36
14,51,80,304
14,37,70,0
14,42,100,0
14,51,60,188
14,51,115,20
14,35,54,0
14,38,94,176
14,51,80,20
14,37,70,0
14,42,100,0
14,51,50,32
14,51,115,0
14,51,90,77
14,37,70,0
14,42,100,0
14,51,60,182
14,38,81,58
14,38,81,0
14,38,88,0
14,35,81,0
14,51,120,0
14,35,81,301
14,38,81,0
14,51,100,0
14,37,70,0
14,42,100,0
14,35,81,106
14,57,81,0
14,51,55,12
14,38,40,0
14,51,115,5
14,46,85,188
14,51,100,36
14,37,70,0
14,42,100,0
14,51,60,43
14,38,90,0
14,49,90,0
14,35,80,0
14,38,90,103
14,40,94,48
14,46,90,0
14,57,86,0
14,48,50,0
14,48,90,0
14,45,80,103
14,46,70,48
14,41,60,48
14,41,90,26
14,49,90,0
14,51,115,0
14,38,70,182
14,37,100,42
14,51,90,0
14,42,100,0
14,51,55,182
14,38,30,0
14,51,115,42
14,38,40,0
14,51,80,182
14,37,100,42
14,51,90,0
14,42,100,0
14,51,50,182
14,51,115,42
14,38,40,182
14,37,100,42
14,51,100,0
14,42,100,0
14,51,60,182
14,38,40,0
14,51,115,42
14,51,90,182
14,38,40,0
14,37,100,42
14,51,90,0
14,42,100,0
14,51,50,182
14,38,50,0
14,51,115,42
14,51,70,188
14,37,100,36
14,51,100,0
14,42,100,0
14,51,115,304
14,38,40,0
14,38,81,176
14,51,127,12
14,37,100,36
14,38,94,0
14,51,90,0
14,42,100,0
14,49,101,173
14,51,50,12
14,51,115,36
14,35,70,0
14,37,100,304
14,51,100,0
14,42,100,0
14,51,50,188
14,51,115,0
14,51,90,38
14,38,90,0
14,37,100,20
14,51,90,0
14,42,100,0
14,51,69,19
14,35,69,0
14,35,69,0
14,51,69,0
14,35,69,256
14,53,69,0
14,35,69,0
14,51,69,0
14,35,69,0
14,51,69,0
14,51,115,0
14,35,80,0
14,51,90,304
14,37,70,0
14,42,100,0
14,51,55,188
14,38,40,0
14,51,115,36
14,38,56,48
14,38,59,39
14,51,80,12
14,46,70,0
14,38,61,36
14,51,80,0
14,37,70,0
14,42,100,0
14,38,64,39
14,38,66,39
14,51,60,12
14,38,70,36
14,48,90,0
14,38,72,39
14,38,75,39
14,48,50,12
14,38,77,36
14,51,80,0
14,42,100,0
14,38,81,39
14,38,84,39
14,51,127,12
14,38,100,0
14,38,86,36
14,41,100,0
14,57,98,39
14,41,70,12
14,41,100,36
14,42,100,0
14,51,70,188
14,35,70,0
14,38,106,36
14,49,90,0
14,51,115,0
14,35,80,0
14,51,90,231
14,37,70,0
14,42,100,0
14,51,55,182
14,51,115,42
14,38,40,0
14,51,80,182
14,51,90,42
14,37,70,0
14,42,100,0
14,51,50,182
14,51,115,42
14,35,54,0
14,51,80,304
14,37,70,0
14,42,100,0
14,51,50,182
14,51,115,42
14,51,90,304
14,37,70,0
14,42,100,0
14,45,60,182
14,51,60,0
14,51,115,42
14,51,90,304
14,37,70,0
14,42,100,0
14,51,55,182
14,38,40,0
14,51,115,42
14,51,90,304
14,37,70,0
14,42,100,0
14,51,60,182
14,38,40,0
14,51,115,42
14,51,100,304
14,37,70,0
14,42,100,0
14,51,60,182
14,38,40,0
14,51,115,42
14,51,90,182
14,51,90,42
14,37,70,0
14,42,100,0
14,51,50,182
14,38,50,0
14,51,115,42
14,35,80,0
14,38,70,188
14,51,90,36
14,37,70,0
14,42,100,0
14,51,55,188
14,38,40,0
14,51,115,36
14,51,80,188
14,51,80,36
14,37,70,0
14,42,100,0
14,51,60,188
14,35,60,0
14,51,115,36
14,35,80,0
14,51,70,188
14,51,100,36
14,37,70,0
14,42,100,0
14,51,115,304
14,38,40,0
14,51,90,304
14,37,70,0
14,42,100,0
14,51,50,188
14,51,120,36
14,35,60,0
14,46,70,185
14,51,100,39
14,37,70,0
14,42,100,0
14,51,55,185
14,38,40,0
14,51,115,39
14,35,80,0
14,51,80,185
14,38,80,0
14,49,90,39
14,37,70,0
14,42,100,0
14,35,80,0
14,51,60,185
14,38,100,0
14,51,90,39
14,38,100,0
14,35,90,188
14,51,115,36
14,42,100,0
14,51,60,188
14,51,115,36
14,38,100,0
14,35,90,188
14,51,90,36
14,42,100,0
14,38,100,188
14,49,90,36
14,51,115,0
14,35,80,0
14,51,90,304
14,37,70,0
14,42,100,0
14,51,55,182
14,51,115,42
14,38,40,0
14,51,80,182
14,51,90,42
14,37,70,0
14,42,100,0
14,51,50,182
14,51,115,42
14,35,80,0
14,51,100,304
14,37,70,0
14,42,100,0
14,51,60,182
14,38,40,0
14,51,115,42
14,51,90,182
14,51,90,42
14,37,70,0
14,42,100,0
14,51,50,182
14,51,115,42
14,51,70,188
14,51,100,36
14,37,70,0
14,42,100,0
14,51,115,304
14,38,40,0
14,51,90,304
14,37,70,0
14,42,100,0
14,51,50,188
14,51,115,36
14,38,40,182
14,51,100,42
14,37,70,0
14,42,100,0
14,51,60,182
14,38,40,0
14,51,115,42
14,38,40,182
14,51,90,42
14,37,70,0
14,42,100,0
14,51,50,182
14,51,115,42
14,51,90,304
14,37,70,0
14,42,100,0
14,51,55,182
14,38,40,0
14,51,115,42
14,51,90,304
14,37,70,0
14,42,100,0
14,51,60,182
14,38,40,0
14,51,115,0
14,35,54,0
14,51,80,77
14,37,70,0
14,42,100,0
14,51,50,32
14,46,90,0
14,51,115,0
14,51,90,77
14,37,70,0
14,42,100,0
14,51,60,32
14,35,60,0
14,51,115,0
14,35,80,0
14,51,90,39
14,37,70,0
14,42,100,0
14,51,55,76
14,38,40,0
14,51,115,36
14,51,80,0
14,37,70,0
14,42,100,0
14,51,60,38
14,35,94,36
14,41,94,0
14,51,94,0
14,38,100,0
14,35,96,32
14,41,96,0
14,51,96,0
14,35,99,20
14,38,99,0
14,35,96,256
14,57,96,0
14,57,65,32
14,57,57,0
14,57,61,0
14,57,67,0
14,57,71,0
14,57,77,0
14,57,81,0
14,57,88,0
14,57,93,0
14,57,99,0
14,35,94,0
14,38,106,0
14,49,90,0
14,51,115,0
14,35,94,1444
14,38,106,0
14,51,115,0
14,35,94,1444
14,38,106,0
14,51,115,0
14,35,57,256
14,51,57,0
14,35,60,5
14,51,60,0
14,35,65,5
14,51,65,0
14,35,67,5
14,51,67,0
14,43,70,0
14,43,72,0
14,43,75,0
14,35,75,0
14,41,75,0
14,43,77,0
14,41,77,0
14,43,81,0
14,41,81,0
14,38,82,64
14,38,84,0
14,38,85,0
14,57,94,173
14,51,115,512
14,51,80,304
14,37,70,0
14,42,100,0
14,51,60,188
14,51,81,36
14,35,81,0
14,51,81,5
14,51,81,5
14,35,81,0
14,51,81,5
14,51,81,10
14,35,81,0
14,38,81,0
14,51,81,20
14,35,81,0
14,38,81,0
14,49,81,276
14,35,81,0
14,51,90,397
14,37,70,0
14,42,100,0
14,38,81,0
14,57,81,173
14,51,55,6
14,38,40,0
14,51,115,42
14,51,80,182
14,46,80,0
14,51,90,42
14,37,70,0
14,42,100,0
14,51,60,182
14,38,40,0
14,51,90,0
14,38,100,0
14,35,90,115
14,38,75,36
14,51,115,0
14,42,100,0
14,38,76,5
14,51,60,12
14,51,115,36
14,38,79,103
14,35,90,12
14,38,79,5
14,51,90,0
14,42,100,0
14,49,81,5
14,51,115,128
14,35,80,0
14,51,90,304
14,37,70,0
14,42,100,0
14,51,55,182
14,38,30,0
14,51,115,10
14,38,40,0
14,51,90,304
14,37,70,0
14,42,100,0
14,51,50,182
14,35,80,42
14,51,115,0
14,35,94,304
14,38,94,0
14,51,100,0
14,37,70,0
14,42,100,0
14,57,94,20
14,51,60,6
14,38,40,0
14,51,115,42
14,38,40,182
14,51,90,42
14,37,70,0
14,42,100,0
14,51,50,182
14,51,115,42
14,35,80,0
14,51,70,188
14,51,100,36
14,37,70,0
14,42,100,0
14,38,30,188
14,51,115,36
14,38,40,0
14,51,90,304
14,37,70,0
14,42,100,0
14,51,50,188
14,51,115,36
14,35,80,0
14,51,80,304
14,37,70,0
14,42,100,0
14,51,81,176
14,35,81,0
14,51,75,48
14,35,75,0
14,51,70,68
14,35,70,0
14,35,69,0
14,51,69,0
14,35,69,256
14,53,69,0
14,35,69,0
14,51,69,0
14,35,69,0
14,51,69,0
14,35,44,20
14,53,54,256
14,35,44,20
14,35,44,0
14,53,54,256
14,35,44,20
14,35,44,0
14,53,40,384
14,53,44,0
14,53,44,0
14,35,44,0
14,53,44,20
14,35,44,0
14,53,44,20
14,35,44,0
14,57,44,20
14,35,44,0
14,57,22,48
14,57,22,0
14,57,23,0
14,57,25,0
14,57,26,0
14,57,26,0
14,57,27,0
14,57,28,0
14,57,30,0
14,57,30,0
14,57,31,0
14,57,32,0
14,57,33,0
14,57,35,0
14,57,35,0
14,57,36,0
14,57,37,0
14,57,38,0
14,57,38,0
14,57,40,0
14,57,41,0
14,57,42,0
14,57,44,0
14,57,44,0
14,57,45,0
14,57,46,0
14,57,47,0
14,57,47,0
14,57,49,0
14,57,50,0
14,57,51,0
14,57,55,0
14,57,55,48
14,57,55,0
14,57,54,0
14,57,54,0
14,57,54,0
14,57,52,0
14,57,52,0
14,57,51,0
14,57,51,0
14,57,51,0
14,57,50,0
14,57,50,0
14,57,49,0
14,57,49,0
14,57,49,0
14,57,47,0
14,57,47,0
14,57,47,0
14,57,46,0
14,57,46,0
14,57,45,0
14,57,45,0
14,57,45,0
14,57,44,0
14,57,44,0
14,57,42,0
14,57,42,0
14,57,42,0
14,57,41,0
14,57,41,0
14,57,41,0
15,36,94,3072
15,44,94,64
15,29,94,301
15,29,94,24
15,29,94,24
15,29,94,24
15,41,94,5
15,41,94,5
15,34,94,0
15,34,94,13
15,51,105,0
15,46,95,0
15,39,91,0
15,41,100,0
15,39,93,0
15,40,87,0
15,28,64,268
15,42,87,13
15,41,98,0
15,29,98,25
15,35,89,13
15,34,102,0
15,34,98,77
15,39,113,32
15,44,105,20
15,43,87,0
15,31,64,268
15,45,87,13
15,44,100,0
15,44,89,80
15,38,102,268
15,37,102,0
15,37,98,77
15,39,113,32
15,27,91,380
15,39,100,16
15,36,98,4
15,40,102,4
15,36,98,25
15,41,98,0
15,29,91,268
15,41,100,16
15,46,105,4
15,41,95,0
15,34,91,0
15,44,100,0
15,42,93,0
15,43,68,0
15,37,63,61
15,25,60,0
15,36,100,71
15,36,89,80
15,42,102,268
15,41,98,0
15,29,91,268
15,41,100,16
15,34,93,4
15,34,100,55
15,39,99,0
15,39,99,36
15,40,99,384
15,40,99,36
15,41,99,4
15,41,99,36
15,42,99,384
15,42,99,36
15,43,99,0
15,46,102,4
15,43,98,25
15,34,63,0
15,22,60,0
15,33,63,71
15,21,60,0
15,44,93,0
15,44,100,55
15,37,102,0
15,37,98,77
15,39,113,32
15,43,102,10
15,39,98,25
15,36,98,0
15,24,91,268
15,36,100,16
15,41,100,4
15,41,89,80
15,35,102,268
15,34,98,0
15,22,98,25
15,40,89,13
15,39,103,32
15,27,57,6
15,39,76,84
15,37,88,170
15,25,57,0
15,37,76,84
15,39,88,170
15,27,57,0
15,39,76,84
15,43,98,0
15,31,98,25
15,37,89,0
15,36,102,0
15,24,110,48
15,38,102,42
15,39,82,36
15,43,95,26
15,36,100,3
15,44,87,0
15,51,85,384
15,56,91,314
15,51,102,356
15,37,78,252
15,36,105,0
15,38,105,23
15,39,95,55
15,43,98,26
15,36,113,32
15,24,91,76
15,36,100,0
15,36,78,32
15,34,83,32
15,34,78,32
15,22,60,7
15,34,63,71
15,22,60,0
15,35,98,71
15,37,105,13
15,36,103,32
15,24,57,6
15,36,76,77
15,41,63,0
15,29,60,0
15,41,68,71
15,34,63,20
15,22,60,0
15,35,63,71
