track,note,velocity,time
15,57,56,3840
15,57,44,0
15,57,45,0
15,57,45,0
15,57,45,0
15,57,45,0
15,57,46,0
15,57,46,0
15,57,46,0
15,57,46,0
15,57,47,0
15,57,47,0
15,57,47,0
15,57,47,0
15,57,49,0
15,57,49,0
15,57,49,0
15,57,49,0
15,57,50,0
15,57,50,0
15,57,50,0
15,57,50,0
15,57,50,0
15,57,51,0
15,57,51,0
15,57,51,0
15,57,51,0
15,57,52,0
15,57,52,0
15,57,52,0
15,57,52,0
15,57,54,0
15,57,54,0
15,57,54,0
15,57,54,0
15,57,55,0
15,57,55,0
15,57,55,0
15,57,55,0
15,57,56,0
15,57,56,0
15,57,56,0
15,57,56,0
15,57,57,0
15,57,57,0
15,57,57,0
15,57,57,0
15,57,59,0
15,35,60,0
15,42,90,0
15,49,100,0
15,42,100,304
15,51,90,0
15,35,60,188
15,51,90,0
15,42,90,36
15,51,90,0
15,45,54,188
15,38,60,36
15,42,100,0
15,51,90,0
15,35,70,188
15,51,90,0
15,45,54,0
15,35,60,36
15,42,90,0
15,51,90,0
15,38,50,188
15,38,70,36
15,42,100,0
15,51,90,0
15,35,60,188
15,42,90,36
15,51,90,0
15,42,100,304
15,51,90,0
15,38,50,48
15,35,70,60
15,38,50,0
15,35,60,36
15,42,90,0
15,51,90,0
15,38,70,188
15,42,100,36
15,51,90,0
15,35,60,188
15,51,90,0
15,42,90,36
15,51,90,0
15,42,100,304
15,51,90,0
15,51,90,188
15,42,90,36
15,51,90,0
15,35,90,188
15,42,100,36
15,51,90,0
15,42,90,304
15,51,90,0
15,35,90,188
15,51,100,0
15,42,100,36
15,51,90,0
15,35,70,188
15,35,60,36
15,42,90,0
15,51,90,0
15,42,100,304
15,51,90,0
15,35,60,188
15,51,90,0
15,42,90,36
15,51,90,0
15,42,100,304
15,51,90,0
15,35,70,188
15,51,90,0
15,35,60,36
15,42,90,0
15,51,90,0
15,42,100,304
15,51,90,0
15,35,60,188
15,51,90,0
15,42,90,36
15,51,90,0
15,42,100,304
15,51,90,0
15,35,70,188
15,51,90,0
15,42,90,36
15,51,90,0
15,51,90,188
15,42,100,36
15,51,90,0
15,35,60,188
15,42,90,36
15,51,90,0
15,42,100,304
15,51,90,0
15,36,90,304
15,38,90,0
15,57,38,304
15,57,40,0
15,57,41,0
15,57,41,0
15,57,42,0
15,57,44,0
15,57,44,0
15,57,45,0
15,57,45,0
15,57,46,0
15,57,47,0
15,57,47,0
15,57,49,0
15,57,49,0
15,57,50,0
15,57,51,0
15,57,51,0
15,57,52,0
15,57,52,0
15,57,54,0
15,57,55,0
15,57,55,0
15,57,56,0
15,57,57,0
15,35,60,0
15,42,90,0
15,51,90,0
15,38,70,188
15,42,100,36
15,51,90,0
15,35,60,188
15,51,90,0
15,42,90,36
15,51,90,0
15,42,100,304
15,51,90,0
15,51,90,188
15,35,60,36
15,42,90,0
15,51,90,0
15,42,100,304
15,51,90,0
15,35,60,188
15,51,90,0
15,42,90,36
15,51,90,0
15,42,100,304
15,51,90,0
15,35,70,188
15,51,90,0
15,35,60,36
15,42,90,0
15,51,90,0
15,38,50,188
15,38,70,36
15,42,100,0
15,51,90,0
15,35,60,188
15,42,90,36
15,51,90,0
15,42,100,304
15,51,90,0
15,38,50,48
15,35,70,60
15,38,50,0
15,42,90,36
15,51,90,0
15,51,90,188
15,42,100,36
15,51,90,0
15,35,60,188
15,42,90,36
15,51,90,0
15,42,100,304
15,51,90,0
15,35,60,304
15,42,90,0
15,51,90,0
15,38,50,188
15,38,70,36
15,42,100,0
15,51,90,0
15,35,60,188
15,42,90,36
15,51,90,0
15,42,100,304
15,51,90,0
15,38,50,48
15,35,70,60
15,38,50,0
15,35,60,36
15,42,90,0
15,51,90,0
15,42,100,304
15,51,90,0
15,35,60,188
15,51,90,0
15,42,90,36
15,51,90,0
15,42,100,304
15,51,90,0
15,35,70,188
15,51,90,0
15,35,60,36
15,42,90,0
15,51,90,0
15,38,50,188
15,38,70,36
15,42,100,0
15,51,90,0
15,35,60,188
15,42,90,36
15,51,90,0
15,42,100,304
15,51,90,0
15,38,50,48
15,35,70,60
15,38,50,0
15,42,90,36
15,51,90,0
15,42,100,304
15,51,90,0
15,35,60,176
15,51,90,0
15,35,80,48
15,42,90,0
15,51,90,0
15,38,60,176
15,35,80,48
15,38,50,0
15,42,100,0
15,51,90,0
15,38,60,48
15,38,70,48
15,51,90,0
15,42,90,48
15,51,90,0
15,51,90,188
15,42,100,36
15,51,90,0
15,35,60,188
15,42,90,36
15,51,90,0
15,42,100,304
15,51,90,0
15,35,60,304
15,42,90,0
15,51,90,0
15,38,50,188
15,38,70,36
15,42,100,0
15,51,90,0
15,35,60,188
15,42,90,36
15,51,90,0
15,42,100,304
15,51,90,0
15,38,50,48
15,35,70,60
15,38,50,0
15,35,60,36
15,42,90,0
15,51,90,0
15,38,50,188
15,38,70,36
15,42,100,0
15,51,90,0
15,35,60,188
15,42,90,36
15,51,90,0
15,42,100,304
15,51,90,0
15,38,50,48
15,35,70,60
15,38,50,0
15,42,90,36
15,51,90,0
15,51,90,188
15,42,100,36
15,51,90,0
15,35,60,188
15,42,90,36
15,51,90,0
15,42,100,304
15,51,90,0
15,35,60,304
15,42,90,0
15,51,90,0
15,38,50,188
15,38,70,36
15,42,100,0
15,51,90,0
15,35,60,188
15,42,90,36
15,51,90,0
15,42,100,304
15,51,90,0
15,38,50,48
15,35,70,60
15,38,50,0
15,35,60,36
15,42,90,0
15,51,90,0
15,38,70,188
15,42,100,36
15,51,90,0
15,35,60,188
15,51,90,0
15,42,90,36
15,51,90,0
15,42,100,304
15,51,90,0
15,51,90,188
15,42,90,36
15,51,90,0
15,51,90,188
15,42,100,36
15,51,90,0
15,35,60,188
15,42,90,36
15,51,90,0
15,42,100,304
15,51,90,0
15,35,60,20
15,42,90,0
15,51,90,0
15,38,70,64
15,38,70,48
15,42,100,0
15,51,90,0
15,35,60,26
15,38,90,0
15,51,90,0
15,42,90,48
15,51,90,0
15,48,80,48
15,48,90,7
15,35,70,20
15,42,100,0
15,51,90,0
15,45,90,0
15,45,100,48
15,35,80,48
15,51,90,0
15,41,100,0
15,35,60,0
15,42,90,0
15,49,100,0
15,38,50,176
15,38,50,48
15,42,100,0
15,51,90,0
15,35,60,176
15,51,90,0
15,42,90,48
15,51,90,0
15,38,20,176
15,42,100,48
15,51,90,0
15,45,54,0
15,41,54,48
15,35,70,48
15,51,90,0
15,42,90,48
15,51,90,0
15,35,90,188
15,42,100,36
15,51,90,0
15,42,90,304
15,51,90,0
15,35,90,188
15,51,100,0
15,42,100,36
15,51,90,0
15,35,70,188
15,42,90,0
15,51,90,0
15,51,90,57
15,42,100,36
15,51,90,0
15,35,60,38
15,42,90,36
15,51,90,0
15,42,100,20
15,51,90,0
15,35,60,0
15,42,90,0
15,51,90,0
15,38,50,96
15,38,70,36
15,42,100,0
15,51,90,0
15,35,60,0
15,42,90,0
15,51,90,0
15,42,100,20
15,51,90,0
15,38,50,32
15,35,70,57
15,38,50,0
15,36,49,36
15,51,44,169
15,51,44,0
15,36,47,633
15,36,47,0
15,51,44,115
15,51,44,0
15,57,44,0
15,57,30,0
15,57,30,0
15,57,30,0
15,57,30,0
15,57,30,0
15,57,30,0
15,57,31,0
15,57,31,0
15,57,31,0
15,57,31,0
15,57,31,0
15,57,32,0
15,57,32,0
15,57,32,0
15,57,32,0
15,57,32,0
15,57,33,0
15,57,33,0
15,57,33,0
15,57,33,0
15,57,33,0
15,57,35,0
15,57,35,0
15,57,35,0
15,57,35,0
15,57,35,0
15,57,36,0
15,57,36,0
15,57,36,0
15,57,36,0
15,57,36,0
15,57,36,0
15,57,37,0
15,57,37,0
15,57,37,0
15,57,37,0
15,57,37,0
15,57,38,0
15,57,38,0
15,57,38,0
15,57,38,0
15,57,38,0
15,57,40,0
15,57,40,0
15,57,40,0
15,57,40,0
15,57,40,0
15,57,41,0
15,57,41,0
15,57,41,0
15,57,41,0
15,57,41,0
15,57,42,0
15,57,42,0
15,57,42,0
15,57,42,0
15,57,42,0
15,57,42,0
15,57,44,0
15,57,44,0
15,57,44,0
15,57,44,0
15,57,44,0
15,57,81,0
16,39,85,6144
16,39,93,68
16,44,89,0
16,44,100,76
16,44,98,0
16,43,100,0
16,37,100,384
16,36,82,0
16,43,82,384
16,41,78,0
16,44,89,80
16,48,89,26
16,29,66,19
16,41,78,74
16,37,100,141
16,44,100,384
16,43,82,0
16,50,82,384
16,42,89,0
16,42,100,76
16,37,98,0
16,36,85,0
16,36,93,68
16,35,100,0
16,36,100,384
16,35,82,0
16,42,82,384
16,34,82,0
16,48,82,384
16,34,89,0
16,34,100,64
16,34,87,4
16,34,102,0
16,39,82,1152
16,46,82,384
16,44,85,0
16,44,93,68
16,43,82,0
16,50,82,384
16,36,89,0
16,36,100,76
16,42,98,0
16,41,82,0
16,29,82,268
16,43,74,0
16,44,89,0
16,38,91,378
16,37,85,0
16,37,93,68
16,37,87,0
16,43,87,0
16,42,100,0
16,37,100,384
16,36,82,0
16,43,82,384
16,35,82,0
16,42,82,384
16,35,89,0
16,35,100,76
16,42,98,0
16,34,82,0
16,48,82,384
16,34,85,0
16,34,93,68
16,39,100,0
16,40,100,384
16,39,89,0
16,39,100,76
16,45,98,0
16,44,72,0
16,32,85,0
16,39,74,52
16,38,82,45
16,37,82,77
16,36,82,77
16,41,80,77
16,36,76,768
16,34,72,633
16,35,82,61
16,23,70,268
16,34,87,55
16,35,68,0
16,42,63,68
16,40,82,0
16,40,82,16
16,40,82,16
16,34,68,77
16,41,63,68
16,34,82,0
16,39,80,77
16,29,76,768
16,38,72,633
16,39,96,61
16,27,96,640
16,34,96,93
16,34,96,106
16,46,96,68
16,22,96,268
16,44,96,42
16,42,96,384
16,22,96,262
16,40,96,36
16,39,96,23
16,37,96,0
16,36,96,0
16,36,96,0
16,40,95,0
16,41,99,0
16,41,103,64
16,40,104,4
16,41,108,0
16,38,113,0
16,38,101,64
16,38,98,4
16,41,82,0
16,41,67,0
16,46,55,0
16,46,55,57
16,46,55,0
16,34,55,0
16,39,55,0
16,44,55,384
16,51,55,0
16,52,55,0
16,44,55,192
16,51,55,0
16,52,55,0
17,82,81,3072
17,70,81,0
17,62,69,0
17,65,69,0
17,55,69,0
17,70,69,0
17,54,69,0
17,70,69,0
17,62,69,0
17,65,69,0
17,53,69,0
17,55,69,0
17,58,69,0
17,62,69,0
17,58,69,0
17,61,69,0
17,52,69,0
17,67,69,0
17,73,69,0
17,67,69,268
17,51,69,0
17,55,69,0
17,56,69,0
17,60,69,0
17,59,69,0
17,53,69,0
17,75,69,0
17,68,69,268
17,59,69,0
17,53,69,0
17,75,69,0
17,67,69,268
17,58,69,0
17,53,69,0
17,73,69,0
17,68,69,268
17,58,69,0
17,60,69,0
17,52,69,0
17,57,69,0
17,59,69,68
17,61,69,0
17,53,69,0
17,58,69,0
17,58,69,76
17,60,69,0
17,52,69,0
17,57,69,0
17,63,69,0
17,58,69,0
17,78,69,0
17,73,69,268
17,63,69,0
17,56,69,0
17,78,69,0
17,71,69,268
17,79,85,0
17,77,89,0
17,78,91,13
17,79,93,0
17,80,93,0
17,79,96,0
17,82,100,0
17,62,69,0
17,65,69,0
17,55,69,0
17,58,69,0
17,54,69,0
17,70,69,0
17,62,69,0
17,65,69,0
17,55,69,68
17,71,69,0
17,63,69,0
17,66,69,0
17,54,69,76
17,70,69,0
17,62,69,0
17,65,69,0
17,53,69,0
17,67,69,0
17,58,69,0
17,62,69,0
17,74,69,0
17,67,69,268
17,58,69,0
17,52,69,0
17,73,69,0
17,68,69,268
17,51,69,0
17,67,69,0
17,56,69,0
17,60,69,0
17,51,69,80
17,67,69,0
17,56,69,0
17,60,69,0
17,59,69,0
17,63,69,0
17,53,69,0
17,58,69,0
17,60,69,68
17,64,69,0
17,54,69,0
17,59,69,0
17,59,69,76
17,63,69,0
17,53,69,0
17,58,69,0
17,59,69,0
17,63,69,0
17,53,69,0
17,59,69,0
17,63,69,0
17,53,69,0
17,58,69,0
17,53,69,0
17,73,69,0
17,68,69,268
17,58,69,256
17,60,69,0
17,52,69,0
17,69,69,0
17,58,69,256
17,61,69,0
17,63,69,0
17,66,69,0
17,56,69,256
17,71,69,0
17,63,69,0
17,66,69,0
17,56,69,0
17,51,69,0
17,72,69,0
17,67,69,268
17,56,69,256
17,59,69,0
17,62,69,0
17,64,69,0
17,61,70,0
17,56,70,0
17,77,70,0
17,72,67,268
17,61,60,256
17,64,60,0
17,55,60,0
17,72,60,0
17,74,54,0
17,70,54,0
17,75,54,0
17,67,54,0
17,60,54,0
17,60,54,0
17,68,54,0
17,66,54,0
17,54,54,0
17,60,54,71
17,68,54,0
17,66,54,0
17,54,54,0
17,60,54,0
17,63,54,0
17,53,54,0
17,68,54,0
17,75,54,0
17,68,54,268
17,58,54,0
17,61,54,0
17,52,54,0
17,56,54,0
17,72,54,0
17,68,54,268
17,52,54,0
17,67,54,0
17,57,54,0
17,60,54,0
17,52,54,67
17,67,54,0
17,57,54,0
17,60,54,0
17,63,54,0
17,72,54,0
17,69,54,0
17,57,54,0
17,63,54,71
17,72,54,0
17,69,54,0
17,57,54,0
17,57,54,0
17,72,54,0
17,63,54,0
17,67,54,0
17,79,54,0
17,71,54,268
17,70,54,0
17,64,54,0
17,71,54,0
17,57,54,0
17,70,54,0
17,64,54,0
17,71,54,0
17,56,54,0
17,70,54,0
17,64,54,0
17,71,54,0
17,56,54,0
17,62,54,0
17,71,54,0
17,68,54,0
17,56,54,0
17,62,54,71
17,71,54,0
17,68,54,0
17,56,54,0
17,56,54,0
17,72,54,0
17,62,54,0
17,67,54,0
17,78,54,0
17,70,54,268
17,56,59,0
17,58,59,0
17,61,59,0
17,65,59,0
17,39,59,0
17,46,62,0
17,49,67,0
17,51,71,0
17,53,76,0
17,56,80,0
17,70,84,0
17,58,84,0
17,73,89,0
17,61,89,0
17,75,93,0
17,63,93,0
17,39,94,192
17,51,94,0
17,64,69,0
17,70,69,0
17,61,69,0
17,56,69,0
17,61,69,0
17,70,69,0
17,63,69,0
17,55,69,0
17,63,69,0
17,70,69,0
17,55,69,0
17,58,69,0
17,61,69,0
17,52,69,0
17,58,69,0
17,68,69,0
17,61,69,0
17,52,69,0
17,60,69,0
17,65,69,0
17,53,69,0
17,56,69,0
17,65,69,0
17,60,69,0
17,51,69,0
17,60,69,0
17,65,69,0
17,53,69,0
17,56,69,0
17,67,69,0
17,60,69,0
17,51,69,0
17,60,69,0
17,63,69,0
17,54,69,0
17,60,98,0
17,62,98,0
17,54,98,0
17,63,82,0
17,66,82,0
17,54,82,0
17,57,67,0
17,61,67,0
17,51,67,0
17,46,55,0
17,53,55,0
17,56,55,0
17,39,55,0
17,52,55,0
17,44,55,0
17,51,55,0
17,52,55,0
17,58,55,0
17,59,55,0
17,63,55,0
17,64,55,0
17,66,55,0
17,44,55,0
17,51,55,0
17,52,55,0
17,58,55,0
17,59,55,0
17,63,55,0
17,64,55,0
17,66,55,0
17,63,55,0
17,68,55,0
17,75,55,0
17,44,56,1536
18,58,56,5376
18,59,56,0
18,63,56,0
18,68,56,384
18,65,56,0
18,58,56,135
18,60,56,0
18,64,56,249
18,67,56,0
18,60,56,0
18,63,56,0
18,65,56,384
18,67,56,0
18,68,56,0
18,69,56,0
18,66,56,0
18,60,56,135
18,61,56,0
18,63,56,0
18,58,56,1799
18,62,56,0
18,65,56,0
18,64,56,0
18,63,56,128
18,62,56,119
18,61,56,759
18,60,56,512
18,63,56,0
18,67,56,0
18,66,56,0
18,65,56,128
18,63,56,119
18,62,56,631
18,61,56,20
18,60,56,23
18,59,56,23
18,58,56,23
18,66,56,512
18,68,56,0
18,69,56,0
18,68,56,0
18,67,56,128
18,66,56,119
18,63,56,0
18,64,56,0
18,65,56,0
18,64,56,0
18,63,56,0
18,60,56,2688
18,61,56,216
18,62,56,0
18,63,56,16
