track,note,velocity,time
13,42,80,4608
13,42,90,304
13,42,70,192
13,42,70,32
13,42,50,192
13,42,90,32
13,42,70,192
13,42,80,32
13,42,90,304
13,42,70,198
13,42,70,26
13,42,90,304
13,42,70,198
13,42,70,26
13,42,90,304
13,42,70,195
13,42,80,29
13,42,90,304
13,42,70,195
13,42,70,29
13,42,90,304
13,42,70,198
13,42,80,26
13,42,90,304
13,51,73,192
13,42,70,6
13,49,80,10
13,51,80,0
13,42,100,304
13,37,70,0
13,51,90,0
13,38,40,192
13,51,70,0
13,51,80,32
13,42,100,304
13,37,70,0
13,51,90,0
13,38,40,192
13,51,70,0
13,35,70,32
13,51,80,0
13,51,40,198
13,42,80,26
13,37,70,0
13,51,90,0
13,51,70,198
13,38,40,26
13,51,80,0
13,42,100,304
13,37,70,0
13,51,90,0
13,51,70,198
13,51,80,26
13,42,100,304
13,37,70,0
13,51,90,0
13,38,40,192
13,51,70,0
13,51,80,32
13,42,100,304
13,37,70,0
13,51,90,0
13,38,40,192
13,51,70,0
13,51,80,32
13,38,60,192
13,42,80,32
13,37,70,0
13,51,90,0
13,35,70,192
13,51,70,0
13,51,80,32
13,38,70,192
13,42,100,32
13,37,80,0
13,51,90,0
13,38,50,192
13,51,70,0
13,35,70,32
13,51,70,0
13,42,90,304
13,37,60,0
13,51,90,0
13,38,40,195
13,51,70,0
13,51,80,29
13,42,100,304
13,37,70,0
13,51,90,0
13,35,60,195
13,51,70,0
13,35,70,29
13,51,80,0
13,38,40,192
13,42,80,32
13,37,70,0
13,51,90,0
13,38,40,192
13,51,70,0
13,51,80,32
13,42,100,304
13,37,70,0
13,51,90,0
13,51,70,192
13,35,70,32
13,51,70,0
13,42,90,304
13,37,60,0
13,51,90,0
13,38,40,195
13,51,70,0
13,51,80,29
13,38,50,195
13,42,100,29
13,37,70,0
13,51,90,0
13,35,60,195
13,51,70,0
13,35,54,29
13,51,80,0
13,42,70,304
13,37,70,0
13,51,90,0
13,51,70,198
13,51,70,26
13,42,100,304
13,51,90,0
13,51,70,198
13,45,60,0
13,35,70,26
13,51,70,0
13,42,90,304
13,37,60,0
13,51,90,0
13,38,69,0
13,38,69,164
13,51,70,19
13,51,80,29
13,42,100,304
13,37,70,0
13,51,90,0
13,35,60,195
13,51,70,0
13,51,80,29
13,51,40,198
13,38,65,42
13,38,69,0
13,42,80,0
13,38,70,0
13,51,90,0
13,35,70,0
13,49,75,176
13,35,75,0
13,38,30,22
13,51,70,0
13,38,40,26
13,51,80,0
13,42,100,304
13,35,70,0
13,51,90,0
13,38,69,0
13,38,69,164
13,35,69,0
13,51,70,22
13,51,80,26
13,42,100,304
13,37,70,0
13,51,90,0
13,38,40,192
13,51,70,0
13,51,80,32
13,42,100,304
13,37,70,0
13,51,90,0
13,38,40,192
13,51,70,0
13,35,70,32
13,51,80,0
13,42,80,304
13,37,70,0
13,51,90,0
13,38,40,192
13,51,70,0
13,51,80,32
13,42,100,304
13,37,70,0
13,51,90,0
13,51,70,192
13,51,80,32
13,42,100,304
13,37,70,0
13,51,90,0
13,38,40,192
13,51,70,0
13,51,80,32
13,42,100,304
13,37,70,0
13,51,90,0
13,38,40,192
13,51,70,0
13,35,70,32
13,51,80,0
13,42,70,304
13,38,70,0
13,51,90,0
13,35,70,0
13,38,75,176
13,35,75,0
13,57,75,0
13,51,70,22
13,51,70,20
13,42,100,304
13,51,90,0
13,51,70,198
13,45,60,0
13,51,80,26
13,42,100,304
13,37,70,0
13,51,90,0
13,38,40,192
13,51,70,0
13,51,80,32
13,43,91,13
13,41,95,0
13,40,104,0
13,36,104,0
13,40,106,176
13,36,106,0
13,49,106,0
13,40,106,0
13,36,106,0
13,57,106,0
13,40,106,0
13,36,106,0
13,49,106,0
13,40,106,0
13,36,106,0
13,57,106,0
13,38,84,32
13,38,96,39
13,40,106,20
13,49,106,0
13,35,106,22
13,51,80,20
13,51,40,10
13,42,80,20
13,37,70,0
13,51,90,0
13,38,69,84
13,51,70,10
13,38,40,20
13,51,80,0
13,42,100,20
13,37,70,0
13,51,90,0
13,38,69,84
13,51,70,10
13,51,80,0
13,38,40,192
13,42,80,32
13,37,70,0
13,51,90,0
13,38,69,176
13,51,70,16
13,51,80,20
13,38,69,176
13,42,100,20
13,37,70,0
13,51,90,0
13,38,50,192
13,51,70,0
13,35,70,32
13,51,80,0
13,38,69,0
13,51,40,173
13,42,80,26
13,37,70,0
13,51,90,0
13,38,69,176
13,51,70,22
13,38,40,20
13,51,80,0
13,42,100,304
13,37,70,0
13,51,90,0
13,38,69,176
13,51,70,22
13,51,80,20
13,42,80,304
13,37,70,0
13,51,90,0
13,38,69,176
13,35,70,16
13,51,70,0
13,51,80,20
13,38,69,176
13,42,100,20
13,37,80,0
13,51,90,0
13,38,50,192
13,51,70,0
13,51,80,32
13,38,69,0
13,42,100,298
13,37,70,0
13,51,90,0
13,38,69,176
13,51,70,16
13,51,80,20
13,42,100,304
13,37,70,0
13,51,90,0
13,38,69,176
13,51,70,16
13,35,70,20
13,51,80,0
13,38,69,176
13,42,70,29
13,37,70,0
13,51,90,0
13,51,70,198
13,51,70,26
13,38,69,0
13,42,100,260
13,51,90,0
13,38,69,0
13,51,70,154
13,45,60,0
13,35,70,26
13,51,70,0
13,38,69,176
13,42,90,20
13,37,60,0
13,51,90,0
13,38,40,195
13,51,70,0
13,51,80,29
13,38,69,0
13,42,100,292
13,37,70,0
13,51,90,0
13,38,69,176
13,51,70,19
13,35,70,29
13,51,70,0
13,42,80,304
13,37,70,0
13,51,90,0
13,38,69,0
13,38,69,173
13,51,70,22
13,51,80,20
13,38,69,176
13,42,100,29
13,37,80,0
13,51,90,0
13,51,70,198
13,35,60,26
13,51,80,0
13,38,69,0
13,42,100,298
13,37,70,0
13,51,90,0
13,38,69,0
13,38,69,173
13,51,70,16
13,51,80,20
13,42,100,304
13,37,70,0
13,51,90,0
13,38,40,192
13,51,70,0
13,51,80,32
13,38,80,0
13,36,80,0
13,51,40,198
13,38,81,42
13,38,81,0
13,36,70,0
13,51,90,0
13,38,94,0
13,57,100,156
13,36,100,0
13,40,100,0
13,38,40,36
13,38,81,4
13,38,81,0
13,42,100,0
13,37,70,0
13,51,90,0
13,38,94,0
13,36,94,0
13,49,100,134
13,36,100,0
13,51,70,36
13,51,80,32
13,42,100,304
13,38,94,0
13,36,94,0
13,51,90,0
13,38,94,20
13,51,70,61
13,38,94,26
13,36,94,0
13,51,70,0
13,42,100,298
13,38,94,0
13,36,94,0
13,51,90,0
13,38,94,154
13,36,94,0
13,51,70,22
13,51,80,20
13,38,94,176
13,36,94,0
13,42,70,48
13,37,70,0
13,51,90,0
13,38,90,198
13,51,70,0
13,38,94,26
13,36,94,0
13,51,70,0
13,38,94,176
13,36,94,0
13,42,100,29
13,51,90,0
13,51,70,198
13,51,80,26
13,40,94,0
13,36,94,0
13,51,40,173
13,42,80,26
13,37,70,0
13,51,90,0
13,38,30,198
13,51,70,0
13,38,40,26
13,51,80,0
13,42,100,304
13,37,70,0
13,51,90,0
13,51,70,198
13,35,70,26
13,51,80,0
13,38,40,192
13,42,80,32
13,37,70,0
13,51,90,0
13,38,40,192
13,51,70,0
13,51,80,32
13,42,100,304
13,37,70,0
13,51,90,0
13,51,70,192
13,38,56,0
13,51,56,0
13,35,56,0
13,38,57,13
13,38,59,39
13,38,61,39
13,51,61,0
13,35,61,0
13,38,62,39
13,38,65,26
13,41,66,39
13,51,66,0
13,35,66,0
13,38,66,0
13,41,67,39
13,38,67,0
13,41,70,39
13,38,70,0
13,41,71,20
13,51,71,0
13,35,71,0
13,38,71,0
13,41,74,39
13,38,74,0
13,41,75,39
13,38,75,0
13,41,76,0
13,51,76,0
13,35,76,0
13,38,76,0
13,41,79,13
13,38,79,0
13,41,80,39
13,38,80,0
13,41,82,39
13,51,82,0
13,35,82,0
13,38,82,0
13,41,84,39
13,38,84,0
13,41,86,26
13,38,86,0
13,41,88,39
13,51,88,0
13,35,88,0
13,38,88,0
13,43,88,0
13,41,89,39
13,38,89,0
13,43,89,0
13,41,91,39
13,38,91,0
13,43,91,0
13,41,100,20
13,51,100,0
13,35,100,0
13,38,100,0
13,43,100,0
13,35,91,64
13,38,91,0
13,49,110,0
13,57,110,0
13,51,94,0
13,42,100,304
13,37,70,0
13,51,90,0
13,38,40,192
13,51,70,0
13,51,80,32
13,42,100,304
13,37,70,0
13,51,90,0
13,38,40,192
13,51,70,0
13,35,70,20
13,51,80,0
13,42,80,304
13,37,70,0
13,51,90,0
13,38,40,192
13,51,70,0
13,51,80,32
13,38,40,192
13,42,100,32
13,37,70,0
13,51,90,0
13,51,70,192
13,51,80,32
13,42,100,304
13,37,70,0
13,51,90,0
13,38,40,192
13,51,70,0
13,51,80,32
13,42,100,304
13,37,70,0
13,51,90,0
13,38,40,192
13,51,70,0
13,51,66,32
13,38,10,50
13,38,20,50
13,36,55,50
13,38,87,19
13,38,98,0
13,38,49,50
13,51,70,50
13,38,83,50
13,36,64,50
13,47,103,29
13,47,114,22
13,36,86,88
13,43,107,31
13,43,113,2
13,36,84,48
13,47,103,30
13,47,111,2
13,36,95,52
13,38,87,51
13,49,86,50
13,35,70,0
13,51,70,0
13,38,88,176
13,35,88,20
13,38,88,0
13,42,90,0
13,37,60,0
13,51,90,0
13,35,88,164
13,38,88,0
13,51,70,19
13,51,80,29
13,35,88,176
13,57,88,0
13,38,88,0
13,42,100,29
13,37,70,0
13,51,90,0
13,35,60,195
13,51,70,0
13,38,88,29
13,51,80,0
13,38,88,288
13,42,80,0
13,37,70,0
13,51,90,0
13,51,70,180
13,38,88,32
13,51,80,0
13,38,88,154
13,51,60,16
13,42,100,20
13,37,70,0
13,51,90,0
13,35,88,176
13,49,88,0
13,38,88,0
13,51,70,16
13,35,70,23
13,51,70,0
13,42,90,304
13,37,60,0
13,51,90,0
13,51,70,195
13,38,88,29
13,51,80,0
13,38,88,304
13,42,100,0
13,35,70,0
13,51,90,0
13,38,88,173
13,35,60,19
13,51,70,0
13,40,94,148
13,47,103,210
13,44,55,0
13,40,21,82
13,38,81,157
13,38,81,0
13,38,81,0
13,44,55,0
13,49,88,192
13,38,88,0
13,35,80,12
13,51,90,36
13,51,80,188
13,38,88,36
13,35,70,0
13,51,80,0
13,35,88,173
13,38,88,0
13,51,40,22
13,42,80,26
13,51,90,0
13,51,70,198
13,38,40,26
13,51,80,0
13,42,100,304
13,37,70,0
13,51,90,0
13,51,70,198
13,35,70,26
13,51,80,0
13,42,80,304
13,37,70,0
13,51,90,0
13,38,40,192
13,51,70,0
13,51,80,32
13,51,60,192
13,42,100,32
13,37,70,0
13,51,90,0
13,38,50,192
13,51,70,0
13,38,88,32
13,51,80,0
13,38,88,173
13,42,100,29
13,37,70,0
13,51,90,0
13,38,40,192
13,51,70,0
13,51,80,32
13,42,100,304
13,37,70,0
13,51,90,0
13,38,40,192
13,51,70,0
13,35,70,32
13,51,80,0
13,42,70,304
13,37,70,0
13,51,90,0
13,51,70,198
13,51,70,26
13,42,100,304
13,51,90,0
13,51,70,198
13,45,60,0
13,38,88,26
13,35,70,0
13,51,80,0
13,38,88,173
13,51,40,22
13,42,80,26
13,37,70,0
13,51,90,0
13,51,70,198
13,38,40,26
13,51,80,0
13,42,100,304
13,37,70,0
13,51,90,0
13,51,70,198
13,35,70,26
13,51,80,0
13,51,40,198
13,42,80,26
13,37,70,0
13,51,90,0
13,38,30,198
13,51,70,0
13,38,40,26
13,51,80,0
13,38,88,176
13,42,100,20
13,37,70,0
13,51,90,0
13,51,70,198
13,38,88,26
13,35,60,0
13,51,80,0
13,42,100,301
13,37,70,0
13,51,90,0
13,38,88,176
13,51,70,16
13,51,80,20
13,38,81,240
13,38,81,0
13,42,100,0
13,51,90,0
13,35,70,0
13,38,81,0
13,57,86,172
13,51,70,20
13,38,80,0
13,35,90,0
13,38,70,115
13,42,80,36
13,51,90,0
13,38,60,38
13,51,80,0
13,38,80,0
13,51,80,0
13,35,80,115
13,38,50,0
13,40,100,36
13,51,90,0
13,38,70,48
13,38,60,12
13,51,80,0
13,49,90,0
13,35,80,0
13,51,70,0
13,42,80,304
13,37,70,0
13,51,90,0
13,51,70,192
13,38,40,32
13,51,70,0
13,42,100,304
13,37,70,0
13,51,90,0
13,38,90,0
13,35,90,0
13,51,70,192
13,38,70,0
13,35,70,0
13,35,54,32
13,51,80,0
13,38,94,176
13,35,94,0
13,42,70,20
13,37,70,0
13,51,90,0
13,51,70,198
13,51,70,26
13,38,94,0
13,35,94,0
13,42,100,298
13,51,90,0
13,38,94,0
13,35,94,0
13,35,60,192
13,51,70,0
13,35,60,26
13,51,80,0
13,57,94,0
13,38,94,0
13,42,100,292
13,37,70,0
13,51,90,0
13,38,88,176
13,51,70,16
13,51,80,20
13,38,94,0
13,42,100,288
13,37,70,0
13,51,90,0
13,38,94,0
13,38,94,173
13,51,70,16
13,44,55,4
13,40,94,112
13,47,103,210
13,44,55,0
13,40,8,82
13,40,8,0
13,40,94,93
13,44,55,84
13,43,109,112
13,44,55,211
13,40,111,0
13,40,8,109
13,40,66,57
13,40,81,17
13,40,81,0
13,35,70,0
13,51,80,0
13,40,80,0
13,38,88,176
13,49,88,0
13,35,88,0
13,51,40,22
13,42,80,20
13,37,70,0
13,51,90,0
13,38,88,0
13,38,88,164
13,35,88,0
13,51,70,22
13,51,80,26
13,38,88,176
13,42,100,29
13,37,70,0
13,51,90,0
13,51,70,198
13,35,70,26
13,51,80,0
13,38,88,0
13,51,40,182
13,42,80,26
13,37,70,0
13,51,90,0
13,38,88,0
13,35,88,173
13,51,70,22
13,51,80,20
13,38,88,0
13,38,88,173
13,42,100,20
13,37,70,0
13,51,90,0
13,51,70,198
13,35,60,26
13,51,80,0
13,42,100,304
13,37,70,0
13,51,90,0
13,38,88,176
13,57,90,0
13,35,90,0
13,51,70,16
13,51,80,29
13,42,100,304
13,37,70,0
13,51,90,0
13,38,88,0
13,35,88,0
13,38,88,173
13,35,88,0
13,51,70,16
13,51,70,20
13,42,80,304
13,37,70,0
13,51,90,0
13,51,70,198
13,51,80,26
13,38,36,198
13,51,60,0
13,42,100,26
13,37,80,0
13,51,90,0
13,51,70,198
13,35,70,26
13,51,70,0
13,42,90,304
13,37,60,0
13,51,90,0
13,38,40,195
13,51,70,0
13,51,80,29
13,42,80,304
13,37,80,0
13,51,80,0
13,38,80,0
13,38,80,20
13,35,77,74
13,51,77,0
13,35,70,29
13,51,80,0
13,38,94,0
13,57,94,154
13,38,94,0
13,35,94,0
13,42,80,42
13,37,70,0
13,51,90,0
13,38,40,192
13,51,70,0
13,51,80,32
13,42,100,304
13,37,70,0
13,51,90,0
13,51,70,45
13,38,81,48
13,38,81,0
13,51,70,0
13,38,94,0
13,35,94,0
13,38,94,173
13,35,94,0
13,42,90,36
13,37,60,0
13,51,90,0
13,38,94,48
13,35,94,0
13,38,40,55
13,51,70,0
13,51,80,29
13,38,94,0
13,35,94,0
13,38,94,173
13,42,100,13
13,37,70,0
13,51,90,0
13,35,90,0
13,38,94,176
13,35,94,0
13,49,94,0
13,51,70,19
13,51,80,20
13,38,94,176
13,35,94,0
13,49,94,0
13,42,70,29
13,37,70,0
13,51,90,0
13,51,70,198
13,51,70,26
13,38,94,0
13,35,94,0
13,38,100,170
13,42,100,29
13,51,90,0
13,51,70,198
13,35,70,26
13,51,70,0
13,42,90,304
13,51,90,0
13,40,100,0
13,38,40,195
13,51,70,0
13,51,80,29
13,38,94,304
13,42,100,0
13,51,90,0
13,40,100,0
13,38,94,173
13,57,94,0
13,35,60,19
13,51,70,0
13,35,54,29
13,51,80,0
13,42,70,304
13,51,90,0
13,40,100,0
13,51,70,198
13,38,94,26
13,51,70,0
13,38,94,176
13,42,100,29
13,51,90,0
13,40,100,0
13,51,70,198
13,35,70,26
13,51,70,0
13,42,90,304
13,51,90,0
13,40,100,0
13,38,40,195
13,51,70,0
