track,note,velocity,time
1,51,80,4611
1,42,70,296
1,51,90,5
1,51,60,209
1,51,80,21
1,51,90,300
1,42,70,1
1,37,60,10
1,51,60,199
1,51,80,36
1,42,70,293
1,51,90,4
1,51,60,214
1,51,80,20
1,51,90,298
1,42,70,2
1,37,70,1
1,51,60,207
1,51,80,16
1,51,90,307
1,42,70,2
1,51,60,212
1,51,80,27
1,51,90,299
1,37,60,1
1,42,70,8
1,51,60,195
1,51,80,30
1,42,70,298
1,51,90,4
1,51,60,204
1,51,80,31
1,42,70,292
1,37,70,2
1,51,90,9
1,51,60,211
1,51,80,25
1,42,70,305
1,51,90,2
1,51,60,197
1,51,80,23
1,51,90,302
1,37,70,0
1,42,70,10
1,51,60,201
1,51,80,25
1,51,90,295
1,42,70,11
1,51,60,197
1,51,80,30
1,42,70,296
1,37,70,8
1,51,90,3
1,51,60,208
1,51,80,19
1,42,70,303
1,51,90,11
1,51,60,191
1,51,80,36
1,37,60,294
1,51,90,3
1,42,70,8
1,51,60,198
1,51,80,29
1,42,70,299
1,51,90,3
1,51,60,208
1,51,80,22
1,51,90,309
1,42,70,4
1,37,70,7
1,51,60,208
1,51,80,20
1,51,100,298
1,42,70,1
1,51,80,303
1,37,70,303
1,51,100,3
1,42,70,10
1,51,80,300
1,51,90,297
1,42,70,11
1,51,60,199
1,51,80,19
1,51,90,309
1,37,70,8
1,42,70,1
1,51,60,201
1,51,80,19
1,51,100,306
1,42,70,5
1,51,80,298
1,51,100,309
1,37,70,2
1,42,70,8
1,51,80,300
1,42,70,310
1,51,90,2
1,51,80,300
1,51,90,305
1,42,70,0
1,37,70,10
1,51,80,311
1,42,70,296
1,51,100,9
1,51,80,296
1,42,70,305
1,51,100,7
1,37,70,2
1,51,80,310
1,42,70,305
1,51,90,2
1,51,80,300
1,37,70,303
1,42,70,4
1,51,90,0
1,51,80,302
1,51,90,311
1,42,70,3
1,51,60,199
1,51,80,25
1,42,70,297
1,51,90,4
1,37,60,2
1,51,60,209
1,51,80,15
1,51,90,310
1,42,70,10
1,51,60,203
1,51,80,25
1,42,70,301
1,51,90,4
1,37,70,1
1,51,60,208
1,51,80,9
1,42,70,315
1,51,100,1
1,51,80,300
1,37,70,308
1,42,70,9
1,51,100,0
1,51,80,293
1,51,90,309
1,42,70,11
1,51,60,203
1,51,80,22
1,37,70,310
1,42,70,3
1,51,90,1
1,51,60,202
1,51,80,21
1,51,100,300
1,42,70,8
1,51,80,301
1,37,70,303
1,51,100,7
1,42,70,5
1,51,80,308
1,51,90,298
1,42,70,3
1,51,60,206
1,51,80,24
1,42,70,295
1,51,90,1
1,37,70,9
1,51,60,208
1,51,80,16
1,42,70,301
1,51,100,13
1,51,80,305
1,37,70,299
1,51,100,1
1,42,70,6
1,51,80,306
1,51,100,299
1,42,70,11
1,51,80,297
1,37,70,311
1,51,100,3
1,42,70,2
1,51,80,292
1,42,70,312
1,51,90,8
1,51,60,194
1,51,80,28
1,42,70,299
1,37,60,0
1,51,90,10
1,51,60,209
1,51,80,12
1,42,70,311
1,51,100,9
1,51,80,292
1,51,100,308
1,37,70,4
1,42,70,8
1,51,80,307
1,51,90,297
1,42,70,2
1,51,60,218
1,51,80,16
1,51,90,298
1,42,70,4
1,37,70,1
1,51,60,208
1,51,80,29
1,51,90,299
1,42,70,1
1,51,60,212
1,51,80,19
1,51,90,299
1,42,70,5
1,37,70,5
1,51,60,207
1,51,80,7
1,42,70,314
1,51,100,1
1,51,80,301
1,51,100,305
1,42,70,7
1,37,70,7
1,51,80,294
1,51,100,307
1,42,70,5
1,51,80,315
1,42,70,294
1,37,70,0
1,51,100,9
1,51,80,301
1,51,100,305
1,42,70,5
1,51,80,314
1,37,70,299
1,42,70,3
1,51,100,5
1,51,80,296
1,51,90,310
1,42,70,10
1,51,80,295
1,51,90,305
1,42,70,3
1,37,70,12
1,51,80,293
1,42,70,309
1,51,100,4
1,51,80,304
1,51,100,309
1,37,70,1
1,42,70,5
1,51,80,312
1,42,70,292
1,51,90,14
1,51,60,195
1,51,80,18
1,51,90,310
1,36,70,2
1,40,124,6
1,36,73,305
1,49,109,1
1,51,100,380
1,42,70,7
1,51,80,299
1,42,70,307
1,37,70,1
1,51,100,1
1,51,80,310
1,42,70,300
1,51,90,0
1,51,80,307
1,51,90,304
1,37,70,5
1,42,70,2
1,51,80,309
1,42,70,302
1,51,90,4
1,51,60,207
1,51,80,23
1,51,90,300
1,37,70,3
1,42,70,1
1,51,60,207
1,51,80,28
1,42,70,294
1,51,100,14
1,51,80,296
1,51,100,307
1,42,70,3
1,37,70,1
1,51,80,304
1,51,90,313
1,42,70,2
1,51,60,203
1,51,80,23
1,37,70,297
1,42,70,2
1,51,90,12
1,51,60,203
1,51,80,12
1,51,90,311
1,42,70,5
1,51,80,302
1,51,90,308
1,37,70,6
1,42,70,5
1,51,80,298
1,42,70,4
1,51,90,1
1,51,60,82
1,51,80,28
1,42,70,185
1,37,60,2
1,51,90,6
1,40,64,133
1,40,81,0
1,35,81,23
1,40,81,1
1,42,70,300
1,49,121,2
1,35,81,0
1,40,91,2
1,35,81,672
1,40,94,3
1,49,121,6
1,42,70,1
1,49,115,288
1,35,81,2
1,51,90,292
1,42,70,5
1,51,60,192
1,51,80,38
1,42,70,297
1,37,60,3
1,51,90,1
1,40,100,179
1,35,100,7
1,51,60,14
1,51,80,35
1,42,70,299
1,51,100,7
1,51,80,300
1,51,100,306
1,42,70,1
1,37,70,4
1,35,100,176
1,40,100,7
1,51,80,33
1,42,70,303
1,51,100,12
1,51,80,309
1,37,70,295
1,51,100,11
1,42,70,2
1,51,80,304
1,51,100,297
1,42,70,1
1,51,80,302
1,51,100,307
1,37,70,9
1,42,70,4
1,36,81,294
1,40,88,7
1,51,85,5
1,42,70,295
1,51,90,6
1,51,60,204
1,40,89,19
1,36,81,3
1,51,80,0
1,51,90,312
1,42,70,2
1,51,60,205
1,51,80,15
1,40,91,2
1,36,81,7
1,42,70,305
1,51,90,1
1,51,60,213
1,51,80,17
1,36,81,0
1,40,93,11
1,42,70,308
1,51,90,4
1,51,60,212
1,36,81,22
1,40,94,3
1,51,80,0
1,42,70,295
1,51,100,8
1,36,81,298
1,40,96,4
1,51,80,7
1,51,100,293
1,42,70,11
1,40,98,296
1,36,81,2
1,51,80,9
1,36,81,305
1,42,70,0
1,51,90,2
1,36,81,173
1,40,100,7
1,51,80,70
1,36,70,189
1,49,109,1
1,40,94,2
1,36,100,450
1,49,119,2
1,40,100,2
1,51,100,1
1,42,70,1
1,51,80,188
1,40,94,184
1,36,94,2
1,49,121,3
1,42,70,1
1,51,80,190
1,40,100,301
1,36,100,1
1,42,70,0
1,51,90,6
1,51,80,295
1,40,88,2
1,36,88,9
1,36,94,162
1,40,94,4
1,42,70,36
1,51,90,7
1,51,80,306
1,42,70,298
1,51,100,0
1,51,80,317
1,40,100,299
1,42,70,1
1,51,100,7
1,36,100,0
1,49,119,284
1,40,94,8
1,36,94,1
1,42,70,286
1,49,116,175
1,40,94,5
1,36,94,8
1,36,100,409
1,40,100,1
1,49,120,4
1,42,70,5
1,51,80,292
1,51,90,314
1,42,70,2
1,51,60,209
1,51,80,24
1,37,70,300
1,42,70,3
1,51,90,4
1,51,60,193
1,51,80,37
1,42,70,294
1,51,90,6
1,51,80,304
1,51,90,317
1,42,70,0
1,37,70,3
1,51,80,6
1,42,70,184
1,36,106,1
1,40,106,3
1,49,121,1
1,49,121,187
1,36,106,0
1,42,70,0
1,40,106,0
1,51,90,376
1,36,106,4
1,40,106,5
1,42,70,3
1,51,80,308
1,36,100,0
1,40,100,3
1,36,106,166
1,40,106,13
1,51,90,60
1,51,80,296
1,42,70,306
1,51,100,15
1,36,81,293
1,40,94,8
1,51,80,1
1,51,100,271
1,42,70,8
1,40,94,168
1,36,82,2
1,51,80,14
1,42,70,313
1,51,100,3
1,51,80,310
1,51,100,296
1,42,70,10
1,37,70,2
1,51,80,299
1,51,100,301
1,42,70,13
1,51,80,292
1,40,94,0
1,36,81,8
1,51,100,275
1,42,70,8
1,36,82,177
1,40,94,1
1,51,80,19
1,51,100,304
1,42,70,4
1,51,80,299
1,37,70,306
1,51,100,6
1,42,70,1
1,51,80,307
1,42,70,300
1,51,100,9
1,51,80,299
1,42,70,310
1,51,100,0
1,37,70,7
1,51,80,306
1,51,100,298
1,42,70,7
1,51,80,315
1,42,70,292
1,51,100,9
1,37,70,3
1,51,80,299
1,36,81,0
1,40,94,1
1,51,90,3
1,42,70,2
1,51,60,93
1,40,88,15
1,51,80,2
1,40,88,58
1,36,75,6
1,42,70,4
1,51,90,2
1,51,81,57
1,36,81,12
1,40,94,0
1,49,121,381
1,42,70,1
1,40,115,1
1,36,90,5
1,40,106,675
1,36,70,4
1,42,70,4
1,49,101,1
1,49,121,290
1,36,80,7
1,51,90,312
1,42,70,2
1,51,60,191
1,40,88,31
1,36,88,1
1,51,80,2
1,40,94,169
1,36,70,30
1,51,90,6
1,42,70,4
1,49,121,173
1,40,100,1
1,36,86,30
1,42,70,400
1,51,100,14
1,40,88,292
1,51,80,0
1,36,88,12
1,40,94,171
1,36,70,28
1,51,100,6
1,42,70,3
1,40,100,168
1,49,121,4
1,36,86,29
1,51,90,403
1,42,70,1
1,51,60,216
1,36,88,12
1,40,88,10
1,51,80,3
1,40,94,159
1,36,70,42
1,42,70,1
1,51,90,11
1,49,121,170
1,40,100,6
1,36,86,25
1,46,72,76
1,42,70,104
1,51,90,2
1,42,109,5
1,40,127,67
1,51,60,22
1,51,80,7
1,42,70,187
1,36,70,0
1,51,90,2
1,40,121,0
1,49,117,187
1,40,121,2
1,36,91,1
1,42,70,301
1,49,115,170
1,36,92,12
1,40,121,1
1,40,121,410
1,42,70,8
1,49,120,6
1,36,93,0
1,40,121,671
1,42,70,7
1,49,121,2
1,36,94,3
1,40,94,282
1,36,94,1
1,36,81,171
1,40,115,6
1,40,121,417
1,36,88,3
1,51,80,760
1,42,70,314
1,51,90,1
1,51,60,201
1,51,80,36
1,51,90,295
1,37,60,0
1,42,70,6
1,51,60,201
1,51,80,21
1,42,70,313
1,51,90,3
1,51,60,204
1,51,80,21
1,42,70,305
1,37,70,0
1,51,90,5
1,51,60,217
1,51,80,17
1,42,70,304
1,51,90,8
1,51,60,204
1,51,80,11
1,51,90,318
1,37,70,0
1,42,70,1
1,51,60,195
1,51,80,21
1,42,70,308
1,51,90,6
1,51,60,204
1,51,80,28
1,51,90,296
1,42,70,2
1,37,70,1
1,51,60,203
1,51,80,18
1,42,70,315
1,51,90,6
1,51,60,199
1,51,80,28
1,37,60,302
1,42,70,1
1,51,90,5
1,51,60,203
1,51,80,25
1,42,70,300
1,51,90,8
1,51,60,202
1,51,80,20
1,51,90,304
1,37,70,6
1,42,70,1
1,51,60,202
1,51,80,24
1,42,70,300
1,51,90,6
1,51,60,196
1,51,80,36
1,42,70,297
1,37,70,6
1,51,90,0
1,51,60,205
1,51,80,18
1,51,90,305
1,42,70,6
1,51,80,305
1,51,90,301
1,37,70,1
1,42,70,2
1,51,80,312
1,51,90,301
1,42,70,7
1,51,60,209
1,51,80,18
1,37,70,303
1,42,70,5
1,51,90,0
1,51,60,208
1,51,80,23
1,51,90,296
1,42,70,13
1,51,60,198
1,51,80,22
1,42,70,301
1,37,70,11
1,51,90,0
1,51,60,204
1,51,80,21
1,42,70,300
1,51,90,7
1,51,60,207
1,51,80,24
1,51,90,298
1,37,70,7
1,42,70,2
1,51,60,199
1,51,80,22
1,51,90,305
1,42,70,1
1,51,80,299
1,51,90,307
1,37,70,4
1,42,70,7
1,51,80,307
1,51,90,297
1,42,70,2
1,51,60,206
1,51,80,24
1,42,70,298
1,51,90,1
1,37,70,11
1,51,60,204
1,51,80,24
1,51,90,298
1,42,70,3
1,51,60,213
1,51,80,17
1,37,70,305
1,51,90,4
1,42,70,3
1,51,60,215
1,51,80,22
1,42,70,294
1,51,90,10
1,51,60,196
1,51,80,27
1,42,70,304
1,37,70,2
1,51,90,3
1,51,60,205
1,51,80,25
1,51,100,297
1,42,70,8
1,51,80,297
1,42,70,310
1,37,70,6
1,51,100,1
1,51,80,304
1,36,100,5
1,51,100,301
1,42,70,12
1,51,80,297
1,42,70,304
1,37,70,9
1,51,100,3
1,51,80,296
1,51,90,308
1,42,70,11
1,51,80,305
1,51,90,294
1,37,70,4
1,42,70,1
1,51,80,318
1,42,70,292
1,51,100,6
1,51,80,299
1,37,70,305
1,51,100,8
1,42,70,2
1,51,80,302
1,42,70,300
1,51,90,4
1,51,60,211
1,51,80,25
1,37,70,302
1,51,90,3
1,42,70,3
1,51,60,198
1,51,80,24
1,42,70,316
1,51,90,3
1,51,60,193
1,51,80,29
1,42,70,306
1,37,70,0
1,51,90,1
1,51,60,202
1,51,80,24
1,51,90,305
1,42,70,8
1,51,80,305
1,51,90,309
1,37,70,1
1,42,70,5
1,51,80,298
1,51,90,307
1,42,70,2
1,51,60,211
1,51,80,21
1,37,60,300
1,51,90,1
1,42,70,1
1,51,60,212
1,51,80,15
1,51,90,312
1,42,70,1
1,51,80,308
1,51,90,296
1,42,70,10
1,37,70,2
1,51,80,301
1,42,70,311
1,51,90,0
1,51,60,191
1,51,80,29
1,51,90,300
1,37,60,5
1,42,70,6
1,51,60,199
1,51,80,29
1,51,100,298
1,42,70,13
1,51,80,303
1,51,100,299
1,42,70,3
1,37,70,8
1,51,80,298
1,51,90,303
1,42,70,1
1,51,60,216
1,51,80,11
1,51,90,302
1,42,70,0
1,37,60,10
1,51,60,204
1,51,80,18
1,51,90,307
1,42,70,7
1,51,80,301
1,37,70,304
1,51,90,3
1,42,70,12
1,51,80,305
1,51,100,294
1,42,70,13
1,51,80,292
1,37,70,305
1,42,70,10
1,51,100,0
1,51,80,300
1,42,70,299
1,51,90,14
1,51,80,297
1,37,70,314
1,42,70,2
1,51,90,3
1,51,80,299
1,42,70,299
1,51,90,6
1,51,60,205
1,51,80,20
1,37,70,301
1,42,70,1
1,51,90,11
1,51,60,199
1,51,80,24
1,42,70,315
1,51,90,1
1,51,60,197
1,51,80,26
1,35,87,177
1,51,90,124
1,40,67,1
1,40,41,61
1,49,109,109
1,35,100,0
1,40,100,0
1,51,100,512
1,42,70,2
1,51,80,294
1,51,100,308
1,42,70,6
1,37,70,1
1,51,80,307
1,42,70,304
1,51,90,6
1,51,60,195
1,51,80,25
1,37,70,309
1,42,70,4
1,51,90,4
1,51,60,210
1,51,80,15
1,42,70,302
1,51,100,3
1,51,80,311
1,51,100,304
1,37,70,5
1,42,70,4
1,51,80,294
1,42,70,305
1,51,90,4
1,51,60,203
1,51,80,30
1,51,90,302
1,42,70,4
1,37,70,0
1,51,60,216
1,51,80,11
1,42,70,304
1,51,90,7
1,51,60,212
1,51,80,18
1,42,70,301
1,37,60,7
1,51,90,3
1,51,60,210
1,51,80,18
1,51,90,309
1,42,70,3
1,51,80,299
1,51,90,308
1,42,70,4
1,37,70,2
1,51,80,293
1,51,90,311
1,42,70,7
1,51,60,206
1,51,80,9
1,37,70,304
1,42,70,4
1,51,90,6
1,51,60,206
1,51,80,21
1,42,70,296
1,51,100,0
1,51,80,319
1,42,70,297
1,37,70,3
1,51,100,3
1,51,80,311
1,42,70,303
1,51,90,5
1,51,60,210
1,51,80,21
1,42,70,301
1,51,90,3
1,37,70,4
1,51,60,202
1,51,80,22
1,51,100,312
1,42,70,1
1,51,80,298
1,42,70,303
1,51,100,4
1,37,70,3
1,51,80,302
1,51,100,308
1,42,70,5
1,51,80,304
1,51,100,300
1,42,70,1
1,37,70,1
1,51,80,305
1,51,90,308
1,42,70,10
1,51,80,302
1,42,70,300
1,37,70,3
1,51,90,1
1,51,80,314
1,51,100,303
1,42,70,1
1,51,80,311
1,51,100,294
1,42,70,12
1,37,70,0
1,51,80,308
1,51,90,292
1,42,70,1
1,51,60,209
1,51,80,30
1,42,70,300
1,37,70,0
1,51,90,2
