track,note,velocity,time
1,55,59,384
1,64,59,48
1,70,59,48
1,71,59,32
1,60,59,0
1,64,59,0
1,70,59,48
1,71,59,32
1,62,59,0
1,66,59,16
1,72,59,48
1,71,59,32
1,60,59,0
1,64,59,0
1,70,59,48
1,71,59,32
1,55,59,0
1,64,59,16
1,70,59,48
1,71,59,32
1,60,59,0
1,64,59,0
1,70,59,48
1,71,59,32
1,62,59,0
1,66,59,16
1,72,59,48
1,71,59,32
1,60,59,0
1,64,59,0
1,70,59,48
1,71,59,32
1,55,59,0
1,64,59,16
1,70,59,48
1,71,59,32
1,60,59,0
1,64,59,0
1,70,59,48
1,71,59,32
1,62,59,0
1,66,59,16
1,72,59,48
1,71,59,32
1,60,59,0
1,64,59,0
1,70,59,48
1,71,59,32
1,55,59,0
1,64,59,16
1,70,59,48
1,71,59,32
1,60,59,0
1,64,59,0
1,70,59,48
1,71,59,32
1,62,59,0
1,66,59,16
1,72,59,48
1,71,59,32
1,60,59,0
1,64,59,0
1,70,59,48
1,71,59,32
1,55,59,0
1,64,59,16
1,70,59,48
1,71,59,32
1,60,59,0
1,64,59,0
1,70,59,48
1,71,59,32
1,62,59,0
1,66,59,16
1,72,59,48
1,71,59,32
1,60,59,0
1,64,59,0
1,70,59,48
1,71,59,32
1,55,59,0
1,64,59,16
1,70,59,48
1,71,59,32
1,60,59,0
1,64,59,0
1,70,59,48
1,71,59,32
1,62,59,0
1,66,59,16
1,72,59,48
1,71,59,32
1,60,59,0
1,64,59,0
1,70,59,48
1,71,59,32
1,55,59,0
1,64,59,16
1,70,59,48
1,71,59,32
1,60,59,0
1,64,59,0
1,70,59,48
1,71,59,32
1,62,59,0
1,66,59,16
1,72,59,48
1,71,59,32
1,60,59,0
1,64,59,0
1,70,59,48
1,71,59,32
1,55,59,0
1,64,59,16
1,70,59,48
1,71,59,32
1,60,59,0
1,64,59,0
1,70,59,48
1,71,59,32
1,62,59,0
1,66,59,16
1,72,59,48
1,71,59,32
1,60,59,0
1,64,59,0
1,70,59,48
1,71,59,32
1,55,59,3040
1,64,59,48
1,70,59,48
1,71,59,32
1,60,59,0
1,64,59,0
1,70,59,48
1,71,59,32
1,62,59,0
1,66,59,16
1,72,59,48
1,71,59,32
1,60,59,0
1,64,59,0
1,70,59,48
1,71,59,32
1,55,59,0
1,64,59,16
1,70,59,48
1,71,59,32
1,60,59,0
1,64,59,0
1,70,59,48
1,71,59,32
1,62,59,0
1,66,59,16
1,72,59,48
1,71,59,32
1,60,59,0
1,64,59,0
1,70,59,48
1,71,59,32
1,55,59,16864
1,64,59,48
1,70,59,48
1,71,59,32
1,60,59,0
1,64,59,0
1,70,59,48
1,71,59,32
1,62,59,0
1,66,59,16
1,72,59,48
1,71,59,32
1,60,59,0
1,64,59,0
1,70,59,48
1,71,59,32
1,55,59,0
1,64,59,16
1,70,59,48
1,71,59,32
1,60,59,0
1,64,59,0
1,70,59,48
1,71,59,32
1,62,59,0
1,66,59,16
1,72,59,48
1,71,59,32
1,60,59,0
1,64,59,0
1,70,59,48
1,71,59,32
1,55,59,0
1,64,59,16
1,70,59,48
1,71,59,32
1,60,59,0
1,64,59,0
1,70,59,48
1,71,59,32
1,67,59,0
1,76,59,48
1,82,59,20
1,83,59,32
1,72,59,0
1,76,59,0
1,82,59,48
1,83,59,32
1,74,59,0
1,78,59,16
1,84,59,24
1,83,59,32
1,72,59,0
1,76,59,0
1,82,59,48
1,83,59,32
1,67,59,0
1,76,59,16
1,82,59,28
1,83,59,0
1,72,59,0
1,76,59,0
1,82,59,48
1,83,59,32
1,74,59,0
1,78,59,16
1,84,59,32
1,83,59,4
1,72,59,0
1,76,59,0
1,82,59,48
1,83,59,32
2,67,21,6528
2,55,21,0
2,62,21,0
2,71,21,0
2,67,21,16
2,55,21,0
2,62,21,0
2,71,21,0
2,67,21,16
2,55,21,0
2,62,21,0
2,71,21,0
2,67,21,16
2,55,21,0
2,62,21,0
2,71,21,0
2,60,21,16
2,64,21,0
2,67,21,0
2,72,21,0
2,72,21,16
2,67,21,0
2,64,21,0
2,60,21,0
2,72,21,16
2,60,21,0
2,64,21,0
2,67,21,0
2,72,21,16
2,67,21,0
2,64,21,0
2,60,21,0
2,62,21,16
2,69,21,0
2,74,21,0
2,78,21,0
2,78,21,16
2,74,21,0
2,69,21,0
2,62,21,0
2,62,21,16
2,69,21,0
2,74,21,0
2,78,21,0
2,78,21,16
2,74,21,0
2,69,21,0
2,62,21,0
2,60,21,16
2,64,21,0
2,67,21,0
2,72,21,0
2,72,21,16
2,67,21,0
2,64,21,0
2,60,21,0
2,72,21,16
2,60,21,0
2,64,21,0
2,67,21,0
2,72,21,16
2,67,21,0
2,64,21,0
2,60,21,0
2,67,21,16
2,55,21,0
2,62,21,0
2,71,21,0
2,67,21,16
2,55,21,0
2,62,21,0
2,71,21,0
2,67,21,16
2,55,21,0
2,62,21,0
2,71,21,0
2,67,21,16
2,55,21,0
2,62,21,0
2,71,21,0
2,60,21,16
2,64,21,0
2,67,21,0
2,72,21,0
2,72,21,16
2,67,21,0
2,64,21,0
2,60,21,0
2,72,21,16
2,60,21,0
2,64,21,0
2,67,21,0
2,72,21,16
2,67,21,0
2,64,21,0
2,60,21,0
2,62,21,16
2,69,21,0
2,74,21,0
2,78,21,0
2,78,21,16
2,74,21,0
2,69,21,0
2,62,21,0
2,62,21,16
2,69,21,0
2,74,21,0
2,78,21,0
2,78,21,16
2,74,21,0
2,69,21,0
2,62,21,0
2,60,21,16
2,64,21,0
2,67,21,0
2,72,21,0
2,72,21,16
2,67,21,0
2,64,21,0
2,60,21,0
2,72,21,16
2,60,21,0
2,64,21,0
2,67,21,0
2,72,21,16
2,67,21,0
2,64,21,0
2,60,21,0
2,67,21,3088
2,55,21,0
2,62,21,0
2,71,21,0
2,67,21,16
2,55,21,0
2,62,21,0
2,71,21,0
2,67,21,16
2,55,21,0
2,62,21,0
2,71,21,0
2,67,21,16
2,55,21,0
2,62,21,0
2,71,21,0
2,60,21,16
2,64,21,0
2,67,21,0
2,72,21,0
2,72,21,16
2,67,21,0
2,64,21,0
2,60,21,0
2,72,21,16
2,60,21,0
2,64,21,0
2,67,21,0
2,72,21,16
2,67,21,0
2,64,21,0
2,60,21,0
2,62,21,16
2,69,21,0
2,74,21,0
2,78,21,0
2,78,21,16
2,74,21,0
2,69,21,0
2,62,21,0
2,62,21,16
2,69,21,0
2,74,21,0
2,78,21,0
2,78,21,16
2,74,21,0
2,69,21,0
2,62,21,0
2,60,21,16
2,64,21,0
2,67,21,0
2,72,21,0
2,72,21,16
2,67,21,0
2,64,21,0
2,60,21,0
2,72,21,16
2,60,21,0
2,64,21,0
2,67,21,0
2,72,21,16
2,67,21,0
2,64,21,0
2,60,21,0
2,67,21,16
2,55,21,0
2,62,21,0
2,71,21,0
2,67,21,16
2,55,21,0
2,62,21,0
2,71,21,0
2,67,21,16
2,55,21,0
2,62,21,0
2,71,21,0
2,67,21,16
2,55,21,0
2,62,21,0
2,71,21,0
2,60,21,16
2,64,21,0
2,67,21,0
2,72,21,0
2,72,21,16
2,67,21,0
2,64,21,0
2,60,21,0
2,72,21,16
2,60,21,0
2,64,21,0
2,67,21,0
2,72,21,16
2,67,21,0
2,64,21,0
2,60,21,0
2,62,21,16
2,69,21,0
2,74,21,0
2,78,21,0
2,78,21,16
2,74,21,0
2,69,21,0
2,62,21,0
2,62,21,16
2,69,21,0
2,74,21,0
2,78,21,0
2,78,21,16
2,74,21,0
2,69,21,0
2,62,21,0
2,60,21,16
2,64,21,0
2,67,21,0
2,72,21,0
2,72,21,16
2,67,21,0
2,64,21,0
2,60,21,0
2,72,21,16
2,60,21,0
2,64,21,0
2,67,21,0
2,72,21,16
2,67,21,0
2,64,21,0
2,60,21,0
2,58,6,3088
2,70,6,0
2,65,6,0
2,74,6,0
2,58,6,16
2,65,6,0
2,70,6,0
2,74,6,0
2,74,6,16
2,70,6,0
2,65,6,0
2,58,6,0
2,74,6,16
2,70,6,0
2,58,6,0
2,65,6,0
2,63,6,16
2,75,6,0
2,70,6,0
2,58,6,0
2,58,6,16
2,63,6,0
2,70,6,0
2,75,6,0
2,58,6,16
2,63,6,0
2,70,6,0
2,75,6,0
2,58,6,16
2,63,6,0
2,70,6,0
2,75,6,0
2,58,6,8
2,63,6,0
2,70,6,0
2,75,6,0
2,60,6,8
2,65,6,0
2,72,6,0
2,77,6,0
2,60,6,8
2,65,6,0
2,72,6,0
2,77,6,0
2,65,6,8
2,77,6,0
2,72,6,0
2,60,6,0
2,65,6,16
2,77,6,0
2,72,6,0
2,60,6,0
2,60,6,16
2,65,6,0
2,72,6,0
2,77,6,0
2,60,6,8
2,65,6,0
2,72,6,0
2,77,6,0
2,58,6,8
2,63,6,0
2,70,6,0
2,75,6,0
2,58,6,8
2,63,6,0
2,70,6,0
2,75,6,0
2,58,6,8
2,63,6,0
2,70,6,0
2,75,6,0
2,58,6,16
2,63,6,0
2,70,6,0
2,75,6,0
2,58,6,16
2,63,6,0
2,70,6,0
2,75,6,0
2,58,6,8
2,63,6,0
2,70,6,0
2,75,6,0
3,43,64,8064
3,55,64,0
3,50,64,0
3,43,64,16
3,55,64,0
3,50,64,0
3,43,64,16
3,55,64,0
3,50,64,0
3,43,64,16
3,55,64,0
3,50,64,0
3,48,64,16
3,55,64,0
3,60,64,0
3,55,64,16
3,48,64,0
3,60,64,0
3,60,64,16
3,55,64,0
3,48,64,0
3,60,64,16
3,55,64,0
3,48,64,0
3,50,64,16
3,57,64,0
3,62,64,0
3,50,64,16
3,57,64,0
3,62,64,0
3,50,64,16
3,57,64,0
3,62,64,0
3,50,64,16
3,57,64,0
3,62,64,0
3,48,64,16
3,55,64,0
3,60,64,0
3,55,64,16
3,48,64,0
3,60,64,0
3,60,64,16
3,55,64,0
3,48,64,0
3,60,64,16
3,55,64,0
3,48,64,0
3,43,64,16
3,55,64,0
3,50,64,0
3,43,64,16
3,55,64,0
3,50,64,0
3,43,64,16
3,55,64,0
3,50,64,0
3,43,64,16
3,55,64,0
3,50,64,0
3,48,64,16
3,55,64,0
3,60,64,0
3,55,64,16
3,48,64,0
3,60,64,0
3,60,64,16
3,55,64,0
3,48,64,0
3,60,64,16
3,55,64,0
3,48,64,0
3,50,64,16
3,57,64,0
3,62,64,0
3,50,64,16
3,57,64,0
3,62,64,0
3,50,64,16
3,57,64,0
3,62,64,0
3,50,64,16
3,57,64,0
3,62,64,0
3,48,64,16
3,55,64,0
3,60,64,0
3,55,64,16
3,48,64,0
3,60,64,0
3,60,64,16
3,55,64,0
3,48,64,0
3,60,64,16
3,55,64,0
3,48,64,0
3,43,64,3088
3,55,64,0
3,50,64,0
3,43,64,16
3,55,64,0
3,50,64,0
3,43,64,16
3,55,64,0
3,50,64,0
3,43,64,16
3,55,64,0
3,50,64,0
3,48,64,16
3,55,64,0
3,60,64,0
3,55,64,16
3,48,64,0
3,60,64,0
3,60,64,16
3,55,64,0
3,48,64,0
3,60,64,16
3,55,64,0
3,48,64,0
3,50,64,16
3,57,64,0
3,62,64,0
3,50,64,16
3,57,64,0
3,62,64,0
3,50,64,16
3,57,64,0
3,62,64,0
3,50,64,16
3,57,64,0
3,62,64,0
3,48,64,16
3,55,64,0
3,60,64,0
3,55,64,16
3,48,64,0
3,60,64,0
3,60,64,16
3,55,64,0
3,48,64,0
3,60,64,16
3,55,64,0
3,48,64,0
3,43,64,16
3,55,64,0
3,50,64,0
3,43,64,16
3,55,64,0
3,50,64,0
3,43,64,16
3,55,64,0
3,50,64,0
3,43,64,16
3,55,64,0
3,50,64,0
3,48,64,16
3,55,64,0
3,60,64,0
3,55,64,16
3,48,64,0
3,60,64,0
3,60,64,16
3,55,64,0
3,48,64,0
3,60,64,16
3,55,64,0
3,48,64,0
3,50,64,16
3,57,64,0
3,62,64,0
3,50,64,16
3,57,64,0
3,62,64,0
3,50,64,16
3,57,64,0
3,62,64,0
3,50,64,16
3,57,64,0
3,62,64,0
3,48,64,16
3,55,64,0
3,60,64,0
3,55,64,16
3,48,64,0
3,60,64,0
3,60,64,16
3,55,64,0
3,48,64,0
3,60,64,16
3,55,64,0
3,48,64,0
3,43,64,16
3,55,64,0
3,50,64,0
3,43,64,16
3,55,64,0
3,50,64,0
3,43,64,16
3,55,64,0
3,50,64,0
3,43,64,16
3,55,64,0
3,50,64,0
3,48,64,16
3,55,64,0
3,60,64,0
3,55,64,16
3,48,64,0
3,60,64,0
3,60,64,16
3,55,64,0
3,48,64,0
3,60,64,16
3,55,64,0
3,48,64,0
3,50,64,16
3,57,64,0
3,62,64,0
3,50,64,16
3,57,64,0
3,62,64,0
3,50,64,16
3,57,64,0
3,62,64,0
3,50,64,16
3,57,64,0
3,62,64,0
3,48,64,16
3,55,64,0
3,60,64,0
3,55,64,16
3,48,64,0
3,60,64,0
3,60,64,16
3,55,64,0
3,48,64,0
3,60,64,16
3,55,64,0
3,48,64,0
3,43,64,16
3,55,64,0
3,50,64,0
3,43,64,16
3,55,64,0
3,50,64,0
3,43,64,16
3,55,64,0
3,50,64,0
3,43,64,16
3,55,64,0
3,50,64,0
3,48,64,16
3,55,64,0
3,60,64,0
3,55,64,16
3,48,64,0
3,60,64,0
3,60,64,16
3,55,64,0
3,48,64,0
3,60,64,16
3,55,64,0
3,48,64,0
3,50,64,16
3,57,64,0
3,62,64,0
3,50,64,16
3,57,64,0
3,62,64,0
3,50,64,16
3,57,64,0
3,62,64,0
3,50,64,16
3,57,64,0
3,62,64,0
3,48,64,16
3,55,64,0
3,60,64,0
3,55,64,16
3,48,64,0
3,60,64,0
3,60,64,16
3,55,64,0
3,48,64,0
3,60,64,16
3,55,64,0
3,48,64,0
3,46,64,16
3,53,64,0
3,46,64,8
3,53,64,0
3,46,64,8
3,55,64,0
3,46,64,8
3,53,64,0
3,46,64,8
3,53,64,0
3,55,64,16
3,46,64,0
3,46,64,8
3,53,64,0
3,51,64,8
3,58,64,0
3,51,64,8
3,58,64,0
3,51,64,8
3,60,64,0
3,51,64,8
3,58,64,0
3,58,64,8
3,51,64,0
3,60,64,16
3,51,64,0
3,58,64,8
3,51,64,0
3,53,64,8
3,60,64,0
3,53,64,8
3,60,64,0
3,53,64,8
3,62,64,0
3,53,64,8
3,60,64,0
3,53,64,8
3,60,64,0
3,62,64,16
3,53,64,0
3,53,64,8
3,60,64,0
3,51,64,8
3,58,64,0
3,51,64,8
3,58,64,0
3,51,64,8
3,60,64,0
3,51,64,8
3,58,64,0
3,58,64,8
3,51,64,0
3,60,64,16
3,51,64,0
3,58,64,8
3,51,64,0
3,46,64,8
3,53,64,0
3,46,64,8
3,53,64,0
3,46,64,8
3,55,64,0
3,46,64,8
3,53,64,0
3,46,64,8
3,53,64,0
3,55,64,16
3,46,64,0
3,46,64,8
3,53,64,0
3,51,64,8
3,58,64,0
3,51,64,8
3,58,64,0
3,51,64,8
3,60,64,0
3,51,64,8
3,58,64,0
3,58,64,8
3,51,64,0
3,60,64,16
3,51,64,0
3,58,64,8
3,51,64,0
3,53,64,8
3,60,64,0
3,53,64,8
3,60,64,0
3,53,64,8
3,62,64,0
3,53,64,8
3,60,64,0
3,53,64,8
3,60,64,0
3,62,64,16
3,53,64,0
3,53,64,8
3,60,64,0
3,51,64,8
3,58,64,0
3,51,64,8
3,58,64,0
3,51,64,8
3,60,64,0
3,51,64,8
3,58,64,0
3,58,64,8
3,51,64,0
3,60,64,16
3,51,64,0
3,58,64,8
3,51,64,0
3,46,64,8
3,53,64,0
3,46,64,8
3,53,64,0
3,46,64,8
3,55,64,0
3,46,64,8
3,53,64,0
3,46,64,8
3,53,64,0
3,55,64,16
3,46,64,0
3,46,64,8
3,53,64,0
3,51,64,8
3,58,64,0
3,51,64,8
3,58,64,0
3,51,64,8
3,60,64,0
3,51,64,8
3,58,64,0
3,58,64,8
3,51,64,0
3,60,64,16
3,51,64,0
3,58,64,8
3,51,64,0
