track,note,velocity,time
1,60,83,3100
1,65,67,516
1,60,66,6
1,57,67,4
1,48,62,0
1,41,62,2
1,69,83,506
1,57,69,422
1,69,60,2
1,49,61,0
1,61,70,4
1,41,58,6
1,67,61,4
1,41,65,388
1,65,61,2
1,58,74,6
1,50,67,4
1,53,51,0
1,62,71,4
1,46,66,452
1,62,63,6
1,58,74,4
1,53,55,6
1,57,77,78
1,60,69,2
1,53,64,4
1,48,69,10
1,60,66,512
1,57,80,368
1,65,79,0
1,60,71,6
1,48,61,0
1,41,58,2
1,69,88,336
1,50,73,288
1,69,76,0
1,43,63,4
1,59,71,4
1,62,70,0
1,67,69,984
1,62,72,400
1,43,68,2
1,72,68,4
1,53,74,0
1,65,73,4
1,43,61,288
1,50,59,410
1,48,56,292
1,64,51,2
1,52,41,340
1,69,69,736
1,55,67,6
1,41,66,400
1,60,71,0
1,65,72,2
1,48,64,4
1,72,64,6
1,69,69,26
1,72,84,26
1,69,79,48
1,61,72,304
1,65,69,4
1,57,70,2
1,49,61,4
1,41,63,0
1,49,57,160
1,61,67,26
1,65,67,4
1,57,71,2
1,58,79,358
1,65,70,10
1,53,62,0
1,62,73,0
1,46,79,10
1,58,84,114
1,62,74,4
1,53,74,4
1,46,71,0
1,57,78,176
1,53,67,4
1,60,71,6
1,48,73,0
1,60,93,582
1,41,67,314
1,57,86,10
1,65,80,4
1,53,62,0
1,60,78,2
1,69,87,112
1,36,63,394
1,69,71,2
1,48,65,4
1,60,69,4
1,64,72,0
1,67,59,140
1,65,67,10
1,60,70,0
1,57,77,4
1,57,56,348
1,60,46,6
1,53,63,68
1,57,59,76
1,60,54,4
1,53,62,12
1,29,64,188
1,62,72,10
1,58,81,4
1,41,58,2
1,53,64,26
1,62,67,102
1,58,76,4
1,53,55,34
1,58,95,148
1,62,79,6
1,57,84,162
1,55,66,22
1,57,84,92
1,41,68,0
1,29,69,6
1,60,74,0
1,53,72,4
1,53,43,40
1,40,64,68
1,53,66,2
1,57,76,4
1,60,64,4
1,53,58,70
1,38,66,112
1,53,71,2
1,57,77,4
1,60,65,10
1,53,54,36
1,60,64,32
1,52,64,0
1,58,70,4
1,36,67,2
1,55,58,10
1,52,62,50
1,52,70,108
1,38,67,4
1,58,74,0
1,55,64,6
1,60,65,4
1,52,63,38
1,60,60,76
1,58,67,0
1,52,54,4
1,40,66,0
1,55,59,4
1,60,85,14
1,52,72,20
1,62,85,32
1,29,68,6
1,41,69,0
1,53,77,8
1,57,82,2
1,60,76,0
1,65,92,4
1,41,61,62
1,53,66,48
1,60,65,134
1,57,71,4
1,53,64,52
1,69,95,42
1,60,78,4
1,57,85,2
1,53,65,10
1,29,71,52
1,69,68,20
1,57,92,4
1,65,66,2
1,61,74,0
1,61,83,0
1,41,71,0
1,53,70,4
1,29,61,44
1,53,49,104
1,41,72,148
1,61,86,12
1,57,83,6
1,53,67,4
1,53,69,20
1,61,92,26
1,57,95,4
1,41,80,8
1,67,107,14
1,53,63,38
1,46,76,84
1,34,74,6
1,62,88,4
1,58,98,2
1,65,87,0
1,62,78,0
1,58,87,0
1,53,34,4
1,34,63,2
1,53,63,26
1,62,61,96
1,58,70,6
1,53,58,16
1,46,56,96
1,62,81,24
1,58,93,6
1,62,61,2
1,58,72,10
1,53,63,10
1,57,76,30
1,60,71,6
1,29,64,16
1,36,66,14
1,57,83,6
1,48,68,2
1,60,73,0
1,53,73,4
1,53,58,40
1,77,47,16
1,80,90,56
1,84,84,0
1,81,82,16
1,53,15,20
1,57,61,6
1,60,49,0
1,48,55,10
1,82,72,62
1,86,71,6
1,84,74,10
1,80,76,2
1,81,68,0
1,53,55,26
1,77,73,18
1,48,69,36
1,60,72,10
1,57,79,6
1,74,67,24
1,60,85,40
1,62,83,12
1,53,76,16
1,72,42,2
1,29,71,8
1,53,51,2
1,29,63,4
1,60,76,6
1,41,60,0
1,65,91,4
1,57,75,0
1,60,83,2
1,77,44,4
1,53,67,54
1,60,67,60
1,57,71,4
1,53,57,6
1,53,67,12
1,41,72,126
1,57,85,8
1,60,77,2
1,53,71,0
1,69,100,30
1,59,76,168
1,53,74,24
1,69,84,38
1,65,85,4
1,59,87,2
1,62,82,4
1,31,77,38
1,43,72,2
1,59,82,4
1,62,82,2
1,53,88,4
1,31,73,6
1,53,66,22
1,43,57,74
1,53,42,6
1,62,63,14
1,59,63,6
1,53,61,6
1,59,72,54
1,53,76,0
1,62,72,0
1,59,69,2
1,43,62,8
1,67,81,12
1,43,62,28
1,58,92,16
1,36,69,2
1,62,85,0
1,53,81,0
1,31,80,8
1,72,80,16
1,62,83,2
1,65,84,0
1,53,66,64
1,58,81,92
1,62,76,4
1,43,62,2
1,55,51,4
1,55,60,34
1,43,49,130
1,58,83,10
1,62,69,6
1,55,62,4
1,43,57,2
1,36,69,32
1,48,68,0
1,60,77,10
1,55,73,0
1,52,72,4
1,36,57,12
1,52,63,22
1,60,59,118
1,55,60,4
1,52,59,0
1,60,73,76
1,55,69,0
1,40,71,8
1,52,73,0
1,69,82,2
1,64,66,0
1,72,94,22
1,52,68,6
1,29,69,10
1,41,72,2
1,53,72,8
1,60,77,2
1,57,77,0
1,29,64,10
1,69,84,34
1,72,76,4
1,65,77,0
1,53,62,32
1,60,71,110
1,57,77,0
1,53,73,14
1,60,79,110
1,69,92,2
1,57,84,0
1,67,69,2
1,53,83,26
1,65,71,2
1,29,72,172
1,61,83,6
1,61,86,8
1,57,85,6
1,69,69,2
1,57,43,12
1,33,67,32
1,53,57,56
1,61,77,228
1,57,81,2
1,57,26,24
1,53,69,2
1,41,65,80
1,61,87,6
1,67,90,2
1,57,87,4
1,53,71,0
1,62,68,128
1,58,72,0
1,65,71,0
1,34,79,4
1,46,79,4
1,62,81,0
1,58,87,2
1,34,62,0
1,53,69,0
1,62,61,220
1,58,65,10
1,53,62,6
1,46,66,108
1,58,91,12
1,62,80,4
1,53,78,6
1,62,74,0
1,58,84,0
1,53,71,4
1,36,64,58
1,48,70,0
1,57,86,4
1,29,60,2
1,60,78,0
1,53,73,4
1,57,78,12
1,53,63,8
1,60,67,2
1,77,70,42
1,80,89,176
1,84,77,2
1,60,56,0
1,57,64,2
1,53,51,4
1,81,62,6
1,48,62,6
1,82,68,38
1,86,68,16
1,84,72,2
1,80,74,2
1,81,68,12
1,48,65,24
1,60,75,6
1,57,79,2
1,53,69,0
1,60,84,10
1,77,38,16
1,60,82,102
1,65,85,4
1,57,74,2
1,29,73,4
1,41,77,6
1,60,84,4
1,53,82,0
1,57,87,2
1,29,56,10
1,77,53,4
1,53,48,32
1,53,80,160
1,60,81,2
1,57,85,0
1,41,71,4
1,53,70,22
1,41,74,124
1,57,94,16
1,60,84,4
1,53,79,4
1,69,100,22
1,53,70,20
1,60,67,4
1,36,74,122
1,48,78,4
1,52,83,2
1,55,80,4
1,60,82,2
1,69,85,24
1,64,85,2
1,36,67,0
1,52,64,44
1,52,52,64
1,60,69,6
1,55,69,4
1,48,73,10
1,52,65,36
1,55,75,30
1,60,74,2
1,36,78,0
1,52,67,4
1,48,78,0
1,67,86,16
1,36,70,80
1,57,37,12
1,57,90,18
1,53,81,4
1,60,79,0
1,29,69,4
1,41,79,4
1,29,61,2
1,60,77,0
1,57,80,6
1,65,81,0
1,60,70,176
1,57,74,0
1,41,62,6
1,53,57,4
1,53,69,28
1,60,75,90
1,41,63,4
1,57,80,6
1,29,75,10
1,58,95,74
1,41,84,0
1,53,90,6
1,62,86,0
1,62,66,12
1,58,69,4
1,58,88,156
1,41,74,4
1,62,80,0
1,53,81,2
1,53,69,38
1,58,102,118
1,41,77,4
1,62,85,0
1,57,93,172
1,55,69,32
1,29,62,28
1,57,98,18
1,60,82,8
1,53,86,0
1,29,76,2
1,60,67,10
1,41,82,0
1,57,71,6
1,53,72,10
1,45,79,54
1,33,77,4
1,53,77,4
1,57,87,0
1,60,80,2
1,33,55,54
1,53,71,28
1,34,72,16
1,57,91,6
1,60,82,2
1,46,91,0
1,53,78,4
1,34,87,6
1,53,77,26
1,36,71,30
1,48,80,14
1,60,84,2
1,36,72,4
1,55,77,2
1,58,79,0
1,52,74,4
1,52,72,10
1,52,82,92
1,55,77,4
1,60,80,0
1,58,80,6
1,38,82,2
1,52,74,30
1,58,85,32
1,60,81,4
1,52,86,4
1,55,79,0
1,72,117,2
1,40,75,0
1,36,66,48
1,74,94,30
1,72,82,102
1,36,70,6
1,77,92,24
1,72,85,0
1,69,93,2
1,29,60,10
1,29,66,18
1,41,73,0
1,65,87,0
1,57,93,4
1,60,81,0
1,57,80,52
1,41,77,100
1,60,71,38
1,57,48,0
1,48,69,60
1,60,78,64
1,65,81,2
1,57,86,0
1,53,74,8
1,81,97,18
1,77,97,0
1,72,95,4
1,29,66,42
1,79,82,68
1,41,79,36
1,77,82,24
1,65,94,32
1,61,91,2
1,49,85,4
1,57,93,2
1,81,75,16
1,33,67,4
1,73,83,0
1,77,61,4
1,76,70,6
1,61,70,246
1,49,72,10
1,57,72,6
1,57,71,38
1,73,97,48
1,79,86,4
1,45,84,20
1,65,73,6
1,57,80,0
1,61,75,4
1,33,78,40
1,57,82,26
1,34,76,16
1,70,81,20
1,74,80,0
1,77,78,2
1,58,83,8
1,65,63,2
1,62,67,4
1,46,78,10
1,34,77,0
1,53,73,68
1,58,84,76
1,53,69,6
1,62,69,0
1,65,69,4
1,53,69,10
1,65,67,4
1,58,93,8
1,43,69,2
1,31,71,4
1,62,79,2
1,53,67,4
1,65,36,6
1,70,97,10
1,74,90,6
1,34,70,32
1,74,28,62
1,53,82,0
1,65,82,18
1,29,63,38
1,41,79,4
1,29,69,4
1,68,92,8
1,57,93,0
1,72,81,4
1,60,84,0
1,69,79,6
1,53,35,0
1,57,69,112
1,77,64,22
1,80,80,26
1,84,54,6
1,41,54,18
1,65,60,4
1,81,60,2
1,60,65,0
1,57,52,20
1,82,68,68
1,86,63,6
1,80,70,64
1,57,74,0
1,84,74,4
1,81,61,6
1,80,85,68
1,41,61,0
1,86,67,6
1,65,72,0
1,60,65,6
1,57,68,10
1,81,57,8
1,82,51,12
1,36,69,4
1,84,58,16
1,80,71,4
1,72,105,22
1,81,59,20
1,41,56,76
1,74,91,10
1,77,51,2
1,53,82,100
1,65,78,0
1,60,75,6
1,57,74,0
1,29,63,6
1,29,69,0
1,41,71,0
1,72,87,0
1,69,93,0
1,77,93,2
1,41,73,254
1,60,74,12
1,65,79,4
1,57,83,0
1,57,74,52
1,77,98,90
1,41,77,38
1,65,83,2
1,57,90,4
1,60,79,4
1,29,59,40
1,79,94,18
1,77,41,24
1,81,83,0
1,42,88,14
1,30,70,14
1,31,66,84
1,74,92,2
1,77,88,6
1,81,91,4
1,71,87,0
1,53,94,26
1,59,86,2
1,62,82,0
1,31,82,4
1,65,84,0
1,43,82,4
1,53,70,16
1,59,82,112
1,62,80,4
1,53,91,2
1,65,81,0
1,43,85,10
1,53,72,60
1,62,76,14
1,53,88,0
1,43,85,2
1,59,79,0
1,31,66,0
1,79,100,138
1,81,87,102
1,38,80,10
1,81,91,30
1,77,87,4
1,74,94,0
1,84,93,6
1,58,92,16
1,53,87,6
1,62,79,0
1,65,78,4
1,31,93,20
1,36,62,54
1,53,64,60
1,58,83,106
1,53,74,2
1,65,69,4
1,62,68,0
1,43,76,16
1,74,63,10
1,53,58,16
1,77,64,102
1,81,60,0
1,74,67,6
1,58,77,10
1,53,66,4
1,62,60,6
1,65,53,2
1,53,60,6
1,74,50,10
1,43,69,44
1,80,83,32
1,76,72,6
1,60,78,0
1,36,73,4
1,64,80,0
1,36,84,18
1,55,57,48
1,55,63,82
1,64,69,10
1,60,67,0
1,40,69,4
1,72,72,34
1,76,74,106
1,55,62,32
1,80,81,4
1,84,102,22
1,43,81,4
1,60,70,2
1,64,74,4
1,55,58,10
1,79,62,2
1,36,59,20
1,55,60,82
1,72,74,30
1,41,77,58
1,29,56,4
1,77,92,2
1,81,91,0
1,84,92,4
1,72,84,0
1,60,77,0
1,65,82,2
1,57,86,8
1,53,41,188
1,53,77,68
1,65,72,6
1,57,79,0
1,60,69,4
1,43,75,12
1,72,43,28
1,53,54,6
1,65,82,84
1,60,74,0
1,57,85,4
1,53,77,2
1,45,90,4
1,81,93,12
1,72,94,0
1,29,65,20
1,79,80,18
1,53,77,12
1,77,80,52
1,57,94,16
1,65,82,0
1,61,76,4
1,77,91,6
1,49,86,0
1,69,88,10
1,81,82,2
1,73,67,4
1,33,57,4
1,73,30,52
1,57,70,40
1,50,91,102
1,65,79,10
1,62,77,0
1,57,87,4
1,57,67,48
1,69,66,6
1,73,94,6
1,79,93,0
1,69,80,6
1,51,92,16
1,63,96,2
1,57,88,8
1,60,75,2
1,65,69,6
1,33,53,58
1,69,73,0
1,57,62,32
1,34,71,84
1,74,90,20
1,70,100,2
1,77,83,0
1,34,72,48
1,58,87,4
1,46,80,0
1,62,71,2
1,65,72,4
1,53,59,48
1,36,62,90
1,48,69,4
1,58,85,0
1,53,76,2
1,65,73,4
1,62,72,10
1,79,82,0
1,53,75,16
1,34,67,2
1,50,79,0
1,58,87,0
1,38,73,4
1,53,82,0
1,62,69,0
1,65,69,12
1,77,75,4
1,70,63,2
1,74,76,8
1,53,78,10
1,29,59,16
1,65,59,10
1,72,63,4
1,41,71,0
1,48,76,0
1,69,60,6
1,53,82,4
1,60,81,2
1,57,86,4
1,53,73,16
1,77,67,44
1,80,91,114
1,84,82,0
1,53,77,14
1,60,69,0
1,57,76,4
1,81,78,0
1,48,63,6
1,82,72,54
1,86,73,10
1,84,75,10
1,80,70,6
1,81,68,4
1,53,43,4
1,77,68,4
1,60,77,54
1,57,84,4
1,48,81,2
1,53,71,4
1,74,64,44
1,72,98,6
1,53,71,0
1,72,52,14
1,74,86,2
1,36,69,14
1,57,97,22
1,41,84,0
1,72,84,4
1,60,87,0
1,77,88,2
1,69,91,0
1,53,85,0
1,29,80,0
1,29,69,8
1,77,47,8
1,53,69,64
1,41,69,138
1,57,94,16
1,60,84,4
1,53,84,2
1,53,78,10
1,41,77,58
1,57,102,4
1,53,95,0
1,60,93,2
1,81,102,36
1,29,64,16
1,79,74,6
1,53,56,30
1,43,72,6
1,77,73,0
1,60,86,16
1,58,87,2
1,48,82,0
1,36,76,4
1,52,90,4
1,55,81,2
1,76,93,2
1,72,87,0
1,81,92,0
1,36,81,6
1,52,70,16
1,60,80,128
1,52,82,6
1,58,81,0
1,48,83,0
1,55,75,8
1,72,57,12
1,52,68,28
1,43,74,68
1,52,90,22
1,60,82,0
1,55,82,4
1,58,87,0
1,74,90,22
1,79,83,2
1,70,94,0
1,36,64,4
1,52,72,76
1,70,51,30
1,36,70,2
1,29,56,64
1,60,91,0
1,57,95,0
1,41,86,4
1,53,84,2
1,29,82,4
1,72,83,6
1,69,85,4
1,77,85,2
1,69,57,196
1,65,53,2
1,72,54,6
1,60,84,16
1,57,91,4
1,53,82,4
1,41,80,6
1,65,56,22
1,53,78,22
1,65,50,106
1,69,55,12
1,72,56,4
1,41,82,12
1,57,97,10
1,60,88,2
1,53,86,4
1,65,44,2
1,29,54,10
1,41,74,0
1,53,72,16
1,70,62,26
1,74,59,10
1,41,82,58
1,53,94,0
1,62,93,2
1,58,97,0
1,29,74,4
1,53,77,0
1,65,59,16
1,41,82,102
1,53,93,6
1,58,95,0
1,62,88,4
1,70,60,20
1,29,45,2
1,74,49,16
1,65,61,0
1,53,73,14
1,70,62,96
1,74,58,2
1,41,76,6
1,29,50,8
1,53,78,2
1,58,90,6
1,62,83,4
1,65,45,36
1,53,66,16
1,41,83,0
1,69,60,42
1,72,57,14
1,29,40,2
1,53,92,38
1,60,92,0
1,57,91,8
1,29,81,2
1,41,81,4
1,57,44,18
1,53,74,20
1,65,25,22
1,60,93,102
1,53,92,4
1,57,95,0
1,65,50,4
1,69,59,2
1,41,88,4
1,72,54,6
1,29,64,28
1,53,71,38
1,65,59,16
