track,note,velocity,time
1,38,115,14
1,41,115,54
1,45,115,0
1,38,115,0
1,41,115,46
1,45,115,0
1,38,115,0
1,41,115,52
1,45,115,0
1,38,115,0
1,41,115,48
1,45,115,0
1,38,115,0
1,41,115,56
1,45,115,0
1,38,115,0
1,41,115,56
1,45,115,0
1,34,115,0
1,38,115,52
1,41,115,0
1,36,115,0
1,40,115,58
1,43,115,0
1,29,115,0
1,33,115,46
1,36,115,0
1,29,115,0
1,33,115,54
1,36,115,0
1,38,115,0
1,41,115,56
1,45,115,0
1,38,115,0
1,41,115,52
1,45,115,0
1,34,115,0
1,38,115,54
1,41,115,0
1,36,115,0
1,40,115,48
1,43,115,0
1,29,115,0
1,33,115,56
1,36,115,0
1,29,115,0
1,33,115,60
1,36,115,0
1,31,115,0
1,34,115,50
1,38,115,0
1,31,115,0
1,34,115,56
1,38,115,0
1,31,115,0
1,34,115,50
1,38,115,0
1,31,115,0
1,34,115,58
1,38,115,0
1,36,115,0
1,40,115,58
1,43,115,0
1,36,115,0
1,40,115,50
1,43,115,0
1,38,115,0
1,41,115,52
1,45,115,0
1,41,115,94
1,38,115,98
1,40,115,0
1,36,115,0
1,31,115,0
1,34,115,46
1,38,115,0
1,31,115,0
1,34,115,56
1,38,115,0
1,31,115,0
1,34,115,48
1,38,115,0
1,31,115,0
1,34,115,52
1,38,115,0
1,36,115,0
1,40,115,48
1,43,115,0
1,36,115,0
1,40,115,48
1,43,115,0
1,38,115,0
1,41,115,48
1,45,115,0
1,38,115,96
1,38,115,90
1,41,115,0
1,45,115,0
1,38,115,0
1,41,115,54
1,45,115,0
1,38,115,0
1,41,115,54
1,45,115,0
1,34,115,0
1,38,115,58
1,41,115,0
1,36,115,0
1,40,115,48
1,43,115,0
1,29,115,0
1,33,115,50
1,36,115,0
1,29,115,0
1,33,115,56
1,36,115,0
1,38,115,0
1,41,115,54
1,45,115,0
1,38,115,0
1,41,115,58
1,45,115,0
1,34,115,0
1,38,115,48
1,41,115,0
1,36,115,0
1,40,115,54
1,43,115,0
1,29,115,0
1,33,115,54
1,36,115,0
1,29,115,0
1,33,115,46
1,36,115,0
1,31,115,0
1,34,115,52
1,38,115,0
1,31,115,0
1,34,115,50
1,38,115,0
1,31,115,0
1,34,115,52
1,38,115,0
1,31,115,0
1,34,115,46
1,38,115,0
1,36,115,0
1,40,115,58
1,43,115,0
1,36,115,0
1,40,115,48
1,43,115,0
1,38,115,0
1,41,115,58
1,45,115,0
1,41,115,92
1,38,115,98
1,40,115,0
1,36,115,0
1,31,115,0
1,34,115,46
1,38,115,0
1,31,115,0
1,34,115,56
1,38,115,0
1,31,115,0
1,34,115,52
1,38,115,0
1,31,115,0
1,34,115,50
1,38,115,0
1,36,115,0
1,40,115,58
1,43,115,0
1,36,115,0
1,40,115,54
1,43,115,0
1,38,115,0
1,41,115,54
1,45,115,0
1,38,115,102
1,38,115,94
1,41,115,0
1,45,115,0
1,38,115,0
1,41,115,48
1,45,115,0
1,38,115,0
1,41,115,36
1,45,115,0
1,34,115,0
1,38,115,56
1,41,115,0
1,36,115,0
1,40,115,56
1,43,115,0
1,29,115,0
1,33,115,56
1,36,115,0
1,29,115,0
1,33,115,48
1,36,115,0
1,38,115,0
1,41,115,58
1,45,115,0
1,38,115,0
1,41,115,56
1,45,115,0
1,34,115,0
1,38,115,50
1,41,115,0
1,36,115,0
1,40,115,52
1,43,115,0
1,29,115,0
1,33,115,58
1,36,115,0
1,29,115,0
1,33,115,58
1,36,115,0
1,31,115,0
1,34,115,54
1,38,115,0
1,31,115,0
1,34,115,48
1,38,115,0
1,31,115,0
1,34,115,48
1,38,115,0
1,31,115,0
1,34,115,48
1,38,115,0
1,36,115,0
1,40,115,36
1,43,115,0
1,36,115,0
1,40,115,54
1,43,115,0
1,38,115,0
1,41,115,56
1,45,115,0
1,41,115,94
1,38,115,102
1,40,115,0
1,36,115,0
1,31,115,0
1,34,115,56
1,38,115,0
1,31,115,0
1,34,115,54
1,38,115,0
1,31,115,0
1,34,115,48
1,38,115,0
1,31,115,0
1,34,115,56
1,38,115,0
1,36,115,0
1,40,115,50
1,43,115,0
1,36,115,0
1,40,115,60
1,43,115,0
1,38,115,0
1,41,115,38
1,45,115,0
1,38,115,88
1,38,115,102
1,41,115,0
1,45,115,0
1,38,115,0
1,41,115,60
1,45,115,0
1,38,115,0
1,41,115,56
1,45,115,0
1,41,115,0
1,45,115,56
1,48,115,0
1,41,115,0
1,45,115,60
1,48,115,0
1,38,115,0
1,41,115,48
1,45,115,0
1,38,115,0
1,41,115,48
1,45,115,0
1,41,115,0
1,45,115,50
1,48,115,0
1,41,115,0
1,45,115,48
1,48,115,0
1,31,115,0
1,34,115,50
1,38,115,0
1,31,115,0
1,34,115,58
1,38,115,0
1,31,115,0
1,34,115,56
1,38,115,0
1,31,115,0
1,34,115,54
1,38,115,0
1,36,115,0
1,40,115,60
1,43,115,0
1,36,115,0
1,40,115,56
1,43,115,0
1,38,115,0
1,41,115,54
1,45,115,0
1,41,115,96
1,38,115,92
1,40,115,0
1,36,115,0
1,31,115,0
1,34,115,48
1,38,115,0
1,31,115,0
1,34,115,58
1,38,115,0
1,31,115,0
1,34,115,60
1,38,115,0
1,31,115,0
1,34,115,60
1,38,115,0
1,36,115,0
1,40,115,50
1,43,115,0
1,36,115,0
1,40,115,56
1,43,115,0
1,38,115,0
1,41,115,50
1,45,115,0
1,38,115,98
1,38,115,102
1,41,115,0
1,45,115,0
1,38,115,0
1,41,115,56
1,45,115,0
1,38,115,0
1,41,115,56
1,45,115,0
1,34,115,0
1,38,115,58
1,41,115,0
1,36,115,0
1,40,115,56
1,43,115,0
1,29,115,0
1,33,115,50
1,36,115,0
1,29,115,0
1,33,115,56
1,36,115,0
1,38,115,0
1,41,115,58
1,45,115,0
1,38,115,0
1,41,115,58
1,45,115,0
1,34,115,0
1,38,115,58
1,41,115,0
1,36,115,0
1,40,115,56
1,43,115,0
1,29,115,0
1,33,115,50
1,36,115,0
1,29,115,0
1,33,115,50
1,36,115,0
1,31,115,0
1,34,115,52
1,38,115,0
1,31,115,0
1,34,115,56
1,38,115,0
1,31,115,0
1,34,115,56
1,38,115,0
1,31,115,0
1,34,115,46
1,38,115,0
1,36,115,0
1,40,115,50
1,43,115,0
1,36,115,0
1,40,115,54
1,43,115,0
1,38,115,0
1,41,115,58
1,45,115,0
1,41,115,94
1,38,115,92
1,40,115,0
1,36,115,0
1,31,115,0
1,34,115,54
1,38,115,0
1,31,115,0
1,34,115,54
1,38,115,0
1,31,115,0
1,34,115,58
1,38,115,0
1,31,115,0
1,34,115,58
1,38,115,0
1,36,115,0
1,40,115,54
1,43,115,0
1,36,115,0
1,40,115,56
1,43,115,0
1,38,115,0
1,41,115,56
1,45,115,0
1,38,115,88
1,38,115,96
1,41,115,0
1,45,115,0
1,38,115,0
1,41,115,48
1,45,115,0
1,38,115,0
1,41,115,50
1,45,115,0
1,41,115,0
1,45,115,46
1,48,115,0
1,41,115,0
1,45,115,54
1,48,115,0
1,38,115,0
1,41,115,58
1,45,115,0
1,38,115,0
1,41,115,54
1,45,115,0
1,41,115,0
1,45,115,46
1,48,115,0
1,41,115,0
1,45,115,56
1,48,115,0
1,31,115,0
1,34,115,50
1,38,115,0
1,31,115,0
1,34,115,56
1,38,115,0
1,31,115,0
1,34,115,56
1,38,115,0
1,31,115,0
1,34,115,54
1,38,115,0
1,36,115,0
1,40,115,54
1,43,115,0
1,36,115,0
1,40,115,54
1,43,115,0
1,38,115,0
1,41,115,54
1,45,115,0
1,41,115,94
1,38,115,100
1,40,115,0
1,36,115,0
1,31,115,0
1,34,115,50
1,38,115,0
1,31,115,0
1,34,115,54
1,38,115,0
1,31,115,0
1,34,115,54
1,38,115,0
1,31,115,0
1,34,115,60
1,38,115,0
1,36,115,0
1,40,115,56
1,43,115,0
1,36,115,0
1,40,115,50
1,43,115,0
1,38,115,0
1,41,115,56
1,45,115,0
1,38,115,88
1,38,115,96
1,41,115,0
1,45,115,0
1,26,115,0
1,38,115,12102
1,41,115,62
1,45,115,0
1,38,115,0
1,41,115,56
1,45,115,0
1,41,115,0
1,45,115,56
1,48,115,0
1,41,115,0
1,45,115,58
1,48,115,0
1,38,115,0
1,41,115,48
1,45,115,0
1,38,115,0
1,41,115,48
1,45,115,0
1,41,115,0
1,45,115,60
1,48,115,0
1,41,115,0
1,45,115,56
1,48,115,0
1,31,115,0
1,34,115,46
1,38,115,0
1,31,115,0
1,34,115,52
1,38,115,0
1,31,115,0
1,34,115,56
1,38,115,0
1,31,115,0
1,34,115,48
1,38,115,0
1,36,115,0
1,40,115,56
1,43,115,0
1,36,115,0
1,40,115,56
1,43,115,0
1,38,115,0
1,41,115,54
1,45,115,0
1,41,115,90
1,38,115,100
1,40,115,0
1,36,115,0
1,31,115,0
1,34,115,58
1,38,115,0
1,31,115,0
1,34,115,56
1,38,115,0
1,31,115,24
1,34,115,54
1,38,115,0
1,31,115,0
1,34,115,56
1,38,115,0
1,36,115,0
1,40,115,48
1,43,115,0
1,36,115,0
1,40,115,48
1,43,115,0
1,38,115,0
1,41,115,56
1,45,115,0
1,38,115,98
1,38,115,102
1,41,115,0
1,45,115,0
1,26,115,0
1,29,115,1356
1,33,115,48
1,36,115,0
1,29,115,0
1,33,115,46
1,36,115,0
1,26,115,0
1,29,115,54
1,33,115,0
1,26,115,0
1,29,115,58
1,33,115,0
1,29,115,0
1,33,115,50
1,36,115,0
1,29,115,0
1,33,115,56
1,36,115,0
1,26,115,0
1,29,115,48
1,33,115,0
1,26,115,0
1,29,115,52
1,33,115,0
1,29,115,0
1,33,115,56
1,36,115,0
1,29,115,0
1,33,115,56
1,36,115,0
1,26,115,0
1,29,115,48
1,33,115,0
1,26,115,0
1,29,115,50
1,33,115,0
1,29,115,0
1,33,115,60
1,36,115,0
1,29,115,0
1,33,115,48
1,36,115,0
1,26,115,0
1,29,115,58
1,33,115,0
1,26,115,0
1,29,115,54
1,33,115,0
1,29,115,0
1,33,115,56
1,36,115,0
1,29,115,0
1,33,115,50
1,36,115,0
1,26,115,0
1,29,115,56
1,33,115,0
1,26,115,0
1,29,115,56
1,33,115,0
1,29,115,0
1,33,115,48
1,36,115,0
1,29,115,0
1,33,115,56
1,36,115,0
1,26,115,0
1,29,115,58
1,33,115,0
1,26,115,0
1,29,115,50
1,33,115,0
1,29,115,0
1,33,115,60
1,36,115,0
1,29,115,0
1,33,115,60
1,36,115,0
1,26,115,0
1,29,115,60
1,33,115,0
1,26,115,0
1,29,115,56
1,33,115,0
1,29,115,0
1,33,115,52
1,36,115,0
1,29,115,0
1,33,115,56
1,36,115,0
1,26,115,18
1,38,115,640
1,38,115,22
1,38,115,118
1,26,115,24
2,65,57,2
2,69,57,0
2,74,57,0
2,65,57,14
2,69,57,0
2,74,57,0
2,70,57,0
2,64,57,768
2,72,57,0
2,67,57,0
2,65,57,110
2,69,57,0
2,74,57,14
2,70,57,112
2,72,57,84
2,64,57,0
2,67,57,0
2,65,57,72
2,69,57,0
2,74,57,82
2,67,54,0
2,70,57,0
2,64,57,44
2,72,57,0
2,74,54,78
2,69,57,0
2,65,57,0
2,67,54,8
2,70,57,0
2,72,57,20
2,64,57,0
2,69,57,34
2,74,57,0
2,65,57,0
2,65,57,1472
2,69,57,0
2,74,57,0
2,70,57,1518
2,64,57,6
2,72,57,0
2,67,57,0
2,65,57,82
2,69,57,0
2,74,57,2
2,70,57,130
2,72,57,80
2,64,57,0
2,67,57,0
2,65,57,0
2,69,57,0
2,74,57,92
2,67,54,0
2,70,57,0
2,64,57,36
2,72,57,0
2,74,54,68
2,69,57,0
2,65,57,0
2,67,54,2
2,70,57,0
2,64,57,22
2,72,57,0
2,69,57,40
2,74,57,0
2,65,57,0
2,65,57,2
2,69,57,0
2,74,57,0
2,70,57,14
2,64,57,12
2,72,57,0
2,67,57,0
2,65,57,76
2,69,57,0
2,74,57,0
2,70,57,124
2,72,57,86
2,64,57,0
2,67,57,0
2,65,57,4
2,69,57,0
2,74,57,94
2,67,54,0
2,70,57,0
2,64,57,38
2,72,57,0
2,74,54,64
2,69,57,0
2,65,57,0
2,67,54,58
2,70,57,0
2,64,57,34
2,72,57,0
2,69,57,46
2,74,57,0
2,65,57,0
2,69,54,16
2,74,57,0
2,65,54,0
2,72,57,14
2,74,57,16
2,72,57,1536
2,74,57,14
2,67,54,0
2,70,57,0
2,64,57,44
2,72,57,0
2,74,54,78
2,69,57,0
2,65,57,0
2,67,54,60
2,70,57,0
2,64,57,30
2,72,57,0
2,69,57,46
2,74,57,0
2,65,57,0
2,65,57,4
2,69,57,0
2,74,57,0
2,70,57,0
2,64,57,6
2,72,57,0
2,67,57,0
2,65,57,84
2,69,57,0
2,74,57,1526
2,70,57,124
2,72,57,92
2,64,57,0
2,67,57,0
2,65,57,74
2,69,57,0
2,74,57,90
2,67,54,0
2,70,57,0
2,64,57,40
2,72,57,0
2,74,54,66
2,69,57,0
2,65,57,0
2,67,54,54
2,70,57,0
2,64,57,26
2,72,57,0
2,69,57,42
2,74,57,0
2,65,57,0
2,69,54,2
2,74,57,0
2,65,54,0
2,72,57,0
2,74,57,1534
2,72,57,10
2,74,57,1538
2,67,54,0
2,70,57,0
2,64,57,40
2,72,57,0
2,74,54,76
2,69,57,0
2,65,57,0
2,67,54,10
2,70,57,0
2,64,57,20
2,72,57,0
2,69,57,34
2,74,57,0
2,65,57,0
2,69,49,1470
2,65,49,0
2,74,49,20
2,69,54,12036
2,74,57,0
2,65,54,0
2,72,57,2
2,74,57,1534
2,72,57,1526
2,70,57,28
2,67,54,0
2,74,57,0
2,64,57,30
2,72,57,0
2,74,54,66
2,69,57,0
2,65,57,0
2,67,54,46
2,70,57,0
2,64,57,32
2,72,57,0
2,69,57,48
2,74,57,0
2,65,57,0
2,69,49,2
2,65,49,0
2,74,49,0
2,72,57,1306
2,69,54,0
2,65,54,0
2,74,57,8
2,72,57,1534
2,74,57,10
2,72,57,1538
2,74,57,1536
2,72,57,2
2,74,57,1538
2,72,57,14
2,74,57,1538
2,72,57,0
2,74,57,8
2,72,57,4
2,74,57,0
2,72,57,0
2,74,33,54
2,65,33,0
2,69,33,0
2,69,33,562
2,65,33,0
2,74,33,0
2,69,33,38
2,65,33,0
2,69,33,114
2,65,33,0
2,74,33,8
2,69,33,54
2,65,33,0
2,74,33,0
3,62,111,192
3,57,111,0
3,65,111,0
3,62,111,322
3,57,111,0
3,65,111,0
3,62,111,322
3,57,111,0
3,65,111,0
3,62,111,312
3,57,111,0
3,65,111,0
3,62,111,322
3,57,111,0
3,65,111,0
3,62,111,322
3,57,111,0
3,65,111,0
3,62,111,324
3,57,111,0
3,65,111,0
3,69,127,128
3,62,111,190
3,57,111,0
3,65,111,0
3,81,127,18
3,79,127,0
3,80,127,0
3,62,111,98
3,57,111,0
3,65,111,0
3,65,111,316
3,62,111,0
3,57,111,0
3,79,127,0
3,77,127,130
3,62,111,2
3,57,111,0
3,76,127,0
3,65,111,0
3,74,127,14
3,62,111,190
3,57,111,0
3,65,111,0
3,74,127,42
3,62,111,12
3,58,111,0
3,77,127,0
3,65,111,0
3,76,127,124
3,58,111,4
3,62,111,0
3,74,127,0
3,65,111,0
3,72,127,128
3,60,111,166
3,55,111,0
3,74,127,0
3,64,111,0
3,69,127,130
3,60,111,10
3,55,111,0
3,67,127,0
3,64,111,0
3,69,127,128
3,60,111,170
3,57,111,0
3,65,111,0
3,60,111,322
3,57,111,0
3,65,111,0
3,60,111,186
3,57,111,0
3,65,111,0
3,69,127,136
3,65,111,192
3,60,111,0
3,57,111,0
3,81,127,16
3,79,127,0
3,80,127,0
3,62,111,116
3,57,111,0
3,65,111,0
3,62,111,320
3,57,111,0
3,79,127,0
3,65,111,0
3,77,127,126
3,62,111,4
3,57,111,0
3,76,127,0
3,65,111,0
3,74,127,24
3,62,111,188
3,57,111,0
3,65,111,0
3,74,127,30
