track,note,velocity,time
1,36,75,3076
1,36,75,162
1,31,75,22
1,31,75,18
1,36,75,66
1,36,75,162
1,31,75,20
1,31,75,16
1,31,75,66
1,31,75,162
1,38,75,20
1,38,75,14
1,31,75,62
1,31,75,164
1,38,75,20
1,38,75,20
1,36,75,66
1,36,75,166
1,31,75,18
1,31,75,24
1,36,75,68
1,36,75,160
1,31,75,20
1,31,75,18
1,31,75,70
1,31,75,166
1,38,75,18
1,38,75,18
1,31,75,64
1,31,75,166
1,38,75,16
1,38,75,20
1,36,75,70
1,36,75,168
1,31,75,20
1,31,75,18
1,36,75,72
1,36,75,166
1,31,75,20
1,31,75,20
1,31,75,66
1,38,75,0
1,31,75,0
1,38,75,0
1,31,75,0
1,36,75,0
1,31,75,0
1,36,75,0
1,31,75,0
1,36,75,0
1,31,75,0
1,38,75,0
1,31,75,0
1,38,75,0
1,36,75,0
1,31,75,0
1,36,75,0
1,36,75,0
1,31,75,0
1,36,75,0
1,31,75,0
1,38,75,0
1,31,75,0
1,38,75,0
1,36,75,0
1,31,75,0
1,36,75,0
1,31,75,0
1,36,75,0
1,31,75,0
1,38,75,0
1,31,75,0
1,38,75,0
1,36,75,0
1,36,75,0
1,31,75,0
1,36,75,0
1,36,75,0
1,31,75,0
1,36,75,0
1,31,75,0
1,38,75,0
1,31,75,0
1,38,75,0
1,31,75,0
1,36,75,0
1,31,75,0
1,36,75,0
1,31,75,0
1,36,75,0
1,31,75,0
1,38,75,0
1,31,75,0
1,38,75,0
1,36,75,0
1,31,75,0
1,36,75,0
1,36,75,0
1,31,75,0
1,36,75,0
1,29,75,0
1,36,75,0
1,31,75,0
1,31,75,0
1,38,75,0
1,31,75,0
1,36,75,0
1,31,75,1352
1,38,75,0
1,31,75,0
1,38,75,0
1,31,75,0
1,36,75,0
1,31,75,0
1,36,75,0
1,31,75,0
1,36,75,0
1,31,75,0
1,38,75,0
1,31,75,0
1,38,75,0
1,36,75,0
1,31,75,0
1,36,75,0
1,36,75,0
1,31,75,0
1,36,75,0
1,31,75,0
1,38,75,0
1,31,75,0
1,38,75,0
1,36,75,0
1,31,75,0
1,36,75,0
1,31,75,0
1,36,75,0
1,31,75,0
1,38,75,0
1,31,75,0
1,38,75,0
1,36,75,0
1,36,75,0
1,31,75,0
1,36,75,0
1,36,75,0
1,31,75,0
1,36,75,0
1,31,75,0
1,38,75,0
1,31,75,0
1,38,75,0
1,31,75,0
1,36,75,0
1,31,75,0
1,36,75,0
1,31,75,0
1,36,75,0
1,31,75,0
1,38,75,0
1,31,75,0
1,38,75,0
1,36,75,0
1,31,75,0
1,36,75,0
1,36,75,0
1,31,75,0
1,36,75,0
1,29,75,0
1,36,75,0
1,31,75,0
1,31,75,0
1,38,75,0
1,31,75,0
1,36,75,0
1,31,75,1350
1,38,75,0
1,31,75,0
1,38,75,0
1,31,75,0
1,36,75,0
1,31,75,0
1,36,75,0
1,31,75,0
1,36,75,0
1,31,75,0
1,38,75,0
1,31,75,0
1,38,75,0
1,36,75,0
1,31,75,0
1,36,75,0
1,36,75,0
1,31,75,0
1,36,75,0
1,31,75,0
1,38,75,0
1,31,75,0
1,38,75,0
1,36,75,0
1,31,75,0
1,36,75,0
1,31,75,0
1,36,75,0
1,31,75,0
1,38,75,0
1,31,75,0
1,38,75,0
1,36,75,0
1,36,75,0
1,31,75,0
1,36,75,0
1,36,75,0
1,31,75,0
1,36,75,0
1,31,75,0
1,38,75,0
1,31,75,0
1,38,75,0
1,31,75,0
1,36,75,0
1,31,75,0
1,36,75,0
1,31,75,0
1,36,75,0
1,31,75,0
1,38,75,0
1,31,75,0
1,38,75,0
1,36,75,0
1,31,75,0
1,36,75,0
1,36,75,0
1,31,75,0
1,36,75,0
1,31,75,0
1,38,75,0
1,31,75,0
1,38,75,0
1,36,75,0
1,31,75,0
1,36,75,0
1,31,75,0
1,36,75,0
1,31,75,0
1,38,75,0
1,31,75,0
1,38,75,0
1,36,75,0
1,36,75,0
1,31,75,0
1,36,75,0
1,36,75,0
1,31,75,0
1,36,75,0
1,31,75,0
1,38,75,0
1,31,75,0
1,38,75,0
1,31,75,0
1,36,75,0
1,31,75,0
1,36,75,0
1,31,75,0
1,36,75,0
1,31,75,0
1,38,75,0
1,31,75,0
1,38,75,0
1,36,75,0
1,31,75,0
1,36,75,0
1,36,75,0
1,31,75,0
1,36,75,0
1,31,75,0
1,38,75,0
1,31,75,0
1,38,75,0
1,36,75,0
1,31,75,0
1,36,75,0
1,31,75,0
1,36,75,0
1,31,75,0
1,38,75,0
1,31,75,0
1,38,75,0
1,36,75,0
1,36,59,164
1,36,95,0
1,31,75,1030
1,38,75,0
1,31,75,0
1,38,75,0
1,31,75,0
1,36,75,0
1,31,75,0
1,36,75,0
1,31,75,0
1,36,75,0
1,31,75,0
1,38,75,0
1,31,75,0
1,38,75,0
1,36,75,0
1,31,75,0
1,36,75,0
1,36,75,0
1,31,75,0
1,36,75,0
1,29,75,0
1,36,75,0
1,31,75,0
1,31,75,0
1,38,75,0
1,31,75,0
1,36,75,0
1,31,75,1348
1,38,75,0
1,31,75,0
1,38,75,0
1,31,75,0
1,36,75,0
1,31,75,0
1,36,75,0
1,31,75,0
1,36,75,0
1,31,75,0
1,38,75,0
1,31,75,0
1,38,75,0
1,36,75,0
1,31,75,0
1,36,75,0
1,36,75,0
1,31,75,0
1,36,75,0
1,31,75,0
1,38,75,0
1,31,75,0
1,38,75,0
1,36,75,0
1,31,75,0
1,36,75,0
1,31,75,0
1,36,75,0
1,31,75,0
1,38,75,0
1,31,75,0
1,38,75,0
1,36,75,0
1,36,75,0
1,31,75,0
1,36,75,0
1,36,75,0
1,31,75,0
1,36,75,0
1,31,75,0
1,38,75,0
1,31,75,0
1,38,75,0
1,31,75,0
1,36,75,0
1,31,75,0
1,36,75,0
1,31,75,0
1,36,75,0
1,31,75,0
1,38,75,0
1,31,75,0
1,38,75,0
1,36,75,0
1,31,75,0
1,36,75,0
1,36,75,0
1,31,75,0
1,36,75,0
1,31,75,0
1,38,75,0
1,31,75,0
1,38,75,0
1,36,75,0
1,31,75,0
1,36,75,0
1,31,75,0
1,36,75,0
1,31,75,0
1,38,75,0
1,31,75,0
1,38,75,0
1,36,75,0
1,36,75,0
1,31,75,0
1,36,75,0
1,36,75,0
1,31,75,0
1,36,75,0
1,31,75,0
1,38,75,0
1,31,75,0
1,38,75,0
1,31,75,0
1,36,75,0
1,31,75,0
1,36,75,0
1,31,75,0
1,36,75,0
1,31,75,0
1,38,75,0
1,31,75,0
1,38,75,0
1,36,75,0
1,31,75,0
1,36,75,0
1,36,75,0
1,31,75,0
1,36,75,0
1,31,75,0
1,38,75,0
1,31,75,0
1,38,75,0
1,36,75,0
1,31,75,0
1,36,75,0
1,31,75,0
1,36,75,0
1,31,75,0
1,38,75,0
1,31,75,0
1,38,75,0
1,36,75,0
1,36,75,0
1,31,75,0
1,36,75,0
1,36,75,0
1,31,75,0
1,36,75,0
1,31,75,0
1,38,75,0
1,31,75,0
1,38,75,0
1,31,75,0
1,36,75,0
1,31,75,0
1,36,75,0
1,31,75,0
1,36,75,0
1,31,75,0
1,38,75,0
1,31,75,0
1,38,75,0
1,36,75,0
1,31,75,0
1,36,75,0
1,36,75,0
1,31,75,0
1,36,75,0
1,31,75,0
1,38,75,0
1,31,75,0
1,38,75,0
1,36,75,0
1,31,75,0
1,36,75,0
1,31,75,0
1,36,75,0
1,31,75,0
1,38,75,0
1,31,75,0
1,38,75,0
1,36,91,0
2,63,51,6324
2,67,51,16
2,67,51,60
2,63,51,0
2,72,51,40
2,67,51,362
2,63,51,0
2,67,51,82
2,63,51,0
2,72,51,34
2,67,51,364
2,62,51,0
2,62,51,82
2,59,51,0
2,67,51,36
2,67,51,362
2,62,51,0
2,62,51,86
2,59,51,0
2,67,51,32
2,67,51,362
2,63,51,0
2,67,51,72
2,63,51,0
2,72,51,48
2,67,51,358
2,63,51,0
2,67,51,82
2,63,51,0
2,72,51,38
2,67,51,362
2,62,51,0
2,62,51,82
2,59,51,0
2,67,51,34
2,67,51,362
2,62,51,0
2,62,51,76
2,59,51,0
2,67,51,36
2,67,51,368
2,63,51,0
2,63,51,76
2,67,51,0
2,72,51,36
2,67,51,362
2,63,51,0
2,67,51,72
2,63,51,0
2,72,51,36
2,67,51,370
2,62,51,0
2,62,51,74
2,59,51,0
2,67,51,38
2,62,51,356
2,67,51,14
2,62,51,58
2,59,51,0
2,67,51,36
2,67,51,362
2,63,51,0
2,67,51,82
2,63,51,0
2,72,51,36
2,67,51,374
2,63,51,0
2,63,51,82
2,67,51,0
2,72,51,36
2,67,51,364
2,62,51,0
2,62,51,84
2,59,51,0
2,67,51,30
2,67,51,364
2,62,51,0
2,59,51,72
2,62,51,32
2,67,51,12
2,67,51,358
2,63,51,0
2,67,51,82
2,63,51,0
2,72,51,38
2,67,51,364
2,63,51,0
2,63,51,80
2,67,51,0
2,72,51,40
2,67,51,362
2,62,51,0
2,62,51,80
2,59,51,0
2,67,51,36
2,67,51,374
2,62,51,0
2,62,51,72
2,59,51,0
2,67,51,38
2,67,51,364
2,63,51,0
2,63,51,66
2,67,51,0
2,72,51,0
2,67,51,388
2,63,51,0
2,63,51,76
2,67,51,0
2,72,51,42
2,62,51,354
2,67,51,18
2,62,51,58
2,59,51,0
2,67,51,36
2,67,51,362
2,62,51,0
2,62,51,82
2,59,51,0
2,67,51,34
2,67,51,374
2,63,51,0
2,67,51,78
2,63,51,0
2,72,51,34
2,67,51,362
2,63,51,0
2,67,51,84
2,63,51,0
2,72,51,32
2,67,51,372
2,62,51,0
2,59,51,72
2,62,51,32
2,67,51,16
2,67,51,360
2,62,51,0
2,62,51,86
2,59,51,0
2,67,51,40
2,67,51,362
2,63,51,0
2,67,51,78
2,63,51,0
2,72,51,34
2,67,51,362
2,64,51,0
2,67,51,80
2,64,51,0
2,72,51,38
2,68,51,374
2,65,51,0
2,68,51,76
2,65,51,0
2,72,51,34
2,67,51,368
2,62,51,0
2,59,51,74
2,67,51,0
2,71,51,42
2,67,51,172
2,63,51,0
2,72,51,40
2,67,51,13866
2,62,51,0
2,62,51,82
2,59,51,0
2,67,51,32
2,67,51,364
2,62,51,0
2,62,51,78
2,59,51,0
2,67,51,36
2,67,51,368
2,63,51,0
2,67,51,76
2,63,51,0
2,72,51,36
2,67,51,364
2,63,51,0
2,63,51,72
2,67,51,28
2,72,51,8
2,67,51,368
2,62,51,0
2,59,51,70
2,62,51,28
2,67,51,8
2,62,51,348
2,67,51,12
2,62,51,62
2,59,51,0
2,67,51,36
2,67,51,362
2,63,51,0
2,67,51,86
2,63,51,0
2,72,51,36
2,67,51,362
2,64,51,0
2,67,51,80
2,64,51,0
2,72,51,36
2,68,51,360
2,65,51,0
2,68,51,88
2,65,51,0
2,72,51,32
2,67,51,360
2,62,51,0
2,67,51,70
2,59,51,0
2,71,51,46
2,67,51,174
2,63,51,0
2,72,51,36
2,67,51,13868
2,62,51,0
2,62,51,80
2,59,51,0
2,67,51,34
2,67,51,368
2,62,51,0
2,62,51,80
2,59,51,0
2,67,51,32
2,67,51,370
2,63,51,0
2,67,51,86
2,63,51,0
2,72,51,32
2,67,51,364
2,63,51,0
2,63,51,66
2,67,51,32
2,72,51,16
2,62,51,370
2,67,51,10
2,62,51,60
2,59,51,0
2,67,51,40
2,67,51,360
2,62,51,0
2,62,51,84
2,59,51,0
2,67,51,36
2,63,51,362
2,67,51,10
2,63,51,67
2,72,51,28
2,67,51,0
2,67,51,368
2,63,51,0
2,63,51,70
2,67,51,0
2,72,51,38
2,67,51,366
2,62,51,0
2,62,51,72
2,59,51,0
2,67,51,38
2,67,51,378
2,62,51,0
2,62,51,72
2,59,51,0
2,67,51,38
2,63,51,356
2,67,51,16
2,67,51,58
2,63,51,0
2,72,51,34
2,63,51,364
2,67,51,12
2,67,51,71
2,63,51,0
2,72,51,34
2,67,51,360
2,62,51,0
2,62,51,82
2,59,51,0
2,67,51,32
2,62,51,358
2,67,51,4
2,62,51,71
2,59,51,0
2,67,51,34
2,63,51,360
2,67,51,4
2,63,51,59
2,67,51,28
2,72,51,16
2,63,51,364
2,67,51,10
2,67,51,60
2,63,51,0
2,72,51,40
2,62,51,12650
2,67,51,12
2,59,51,56
2,62,51,0
2,67,51,36
2,67,51,364
2,62,51,0
2,62,51,78
2,59,51,0
2,67,51,34
2,67,51,372
2,63,51,0
2,67,51,82
2,63,51,0
2,72,51,34
2,67,51,358
2,63,51,0
2,67,51,86
2,63,51,0
2,72,51,34
2,67,51,360
2,62,51,0
2,59,51,70
2,62,51,34
2,67,51,12
2,62,51,360
2,67,51,12
2,59,51,65
2,67,51,28
2,62,51,0
2,67,51,364
2,63,51,0
2,67,51,82
2,63,51,0
2,72,51,34
2,64,51,362
2,67,51,4
2,67,51,65
2,64,51,0
2,72,51,38
2,68,51,372
2,65,51,0
2,68,51,78
2,65,51,0
2,72,51,38
2,67,51,368
2,62,51,0
2,67,51,74
2,59,51,0
2,71,51,42
2,63,51,178
2,67,51,30
2,72,51,14
3,75,67,6324
3,79,67,16
3,79,67,60
3,75,67,0
3,84,67,40
3,79,67,362
3,75,67,0
3,79,67,82
3,75,67,0
3,84,67,34
3,79,67,364
3,74,67,0
3,74,67,82
3,71,67,0
3,79,67,36
3,79,67,362
3,74,67,0
3,74,67,86
3,71,67,0
3,79,67,32
3,79,67,362
3,75,67,0
3,79,67,72
3,75,67,0
3,84,67,48
3,79,67,358
3,75,67,0
3,79,67,82
3,75,67,0
3,84,67,38
3,79,67,362
3,74,67,0
3,74,67,82
3,71,67,0
3,79,67,34
3,79,67,362
3,74,67,0
3,74,67,76
3,71,67,0
3,79,67,36
3,79,67,368
3,75,67,0
3,75,67,76
3,79,67,0
3,84,67,36
3,79,67,362
3,75,67,0
3,79,67,72
3,75,67,0
3,84,67,36
3,79,67,370
3,74,67,0
3,74,67,74
3,71,67,0
3,79,67,38
3,74,67,356
3,79,67,14
3,74,67,58
3,71,67,0
3,79,67,36
3,79,67,362
3,75,67,0
3,79,67,82
3,75,67,0
3,84,67,36
3,79,67,374
3,75,67,0
3,75,67,82
3,79,67,0
3,84,67,36
3,79,67,364
3,74,67,0
3,74,67,84
3,71,67,0
3,79,67,30
3,79,67,364
3,74,67,0
3,71,67,72
3,74,67,32
3,79,67,12
3,79,67,358
3,75,67,0
3,79,67,82
3,75,67,0
3,84,67,38
3,79,67,364
3,75,67,0
3,75,67,80
3,79,67,0
3,84,67,40
3,79,67,362
3,74,67,0
3,74,67,80
3,71,67,0
3,79,67,36
3,79,67,374
3,74,67,0
3,74,67,72
3,71,67,0
3,79,67,38
3,79,67,364
3,75,67,0
3,75,67,66
3,79,67,0
3,84,67,0
3,79,67,388
3,75,67,0
3,75,67,76
3,79,67,0
3,84,67,42
3,74,67,354
3,79,67,18
3,74,67,58
3,71,67,0
3,79,67,36
3,79,67,362
3,74,67,0
3,74,67,82
3,71,67,0
3,79,67,34
3,79,67,374
3,75,67,0
3,79,67,78
3,75,67,0
3,84,67,34
3,79,67,362
3,75,67,0
3,79,67,84
3,75,67,0
3,84,67,32
3,79,67,372
3,74,67,0
3,71,67,72
3,74,67,32
3,79,67,16
3,79,67,360
3,74,67,0
3,74,67,86
3,71,67,0
3,79,67,40
3,79,67,362
3,75,67,0
3,79,67,78
3,75,67,0
3,84,67,34
3,79,67,362
3,76,67,0
3,79,67,80
3,76,67,0
3,84,67,38
3,80,67,374
3,77,67,0
3,80,67,76
3,77,67,0
3,84,67,34
3,79,67,368
3,74,67,0
3,71,67,74
3,79,67,0
3,83,67,42
3,79,67,172
3,75,67,0
3,84,67,40
3,74,67,1390
3,79,67,0
3,79,67,68
3,74,67,0
3,79,67,80
3,74,67,0
3,83,67,34
3,79,67,0
3,74,67,0
3,83,67,10
3,79,67,20
3,74,67,0
3,74,67,68
3,79,67,16
3,79,67,62
3,74,67,0
3,83,67,38
