track,note,velocity,time
1,38,127,1367
1,38,108,37
1,41,127,1
1,45,127,3
1,38,112,4
1,38,106,42
1,41,127,1
1,45,121,96
1,38,110,13
1,38,97,31
1,41,127,2
1,45,123,96
1,38,113,4
1,38,103,32
1,41,127,48
1,45,127,3
1,38,112,14
1,38,98,32
1,41,127,48
1,45,118,4
1,38,110,13
1,38,86,37
1,41,127,6
1,45,121,96
1,38,105,9
1,38,82,42
1,41,127,11
1,45,112,96
1,38,106,19
1,38,87,32
1,41,121,48
1,45,121,3
1,38,101,4
1,38,82,43
1,41,121,5
1,45,116,96
1,38,103,9
1,38,100,33
1,41,112,48
1,45,108,92
1,34,111,8
1,34,100,17
1,38,116,48
1,41,106,91
1,36,127,8
1,36,118,21
1,40,118,6
1,43,108,4
1,41,112,3
1,41,98,27
1,45,123,48
1,48,123,92
1,41,116,14
1,41,95,27
1,45,121,48
1,48,118,92
1,38,127,8
1,38,106,33
1,41,118,16
1,45,110,96
1,38,123,9
1,38,123,36
1,41,123,11
1,45,100,96
1,34,113,3
1,34,91,33
1,38,108,0
1,41,110,4
1,36,127,96
1,36,127,41
1,40,118,11
1,43,110,96
1,29,127,13
1,29,106,27
1,33,108,1
1,36,112,96
1,29,121,15
1,29,121,41
1,33,97,6
1,36,105,96
1,31,123,9
1,31,112,37
1,34,117,0
1,38,116,96
1,31,123,4
1,31,110,43
1,34,113,1
1,38,110,96
1,31,123,94
1,31,118,42
1,34,126,48
1,38,110,14
1,31,127,4
1,31,121,51
1,34,121,6
1,38,108,8
1,36,112,96
1,36,103,52
1,40,121,48
1,43,113,9
1,36,105,3
1,36,101,37
1,40,112,48
1,43,112,91
1,38,110,2
1,38,105,37
1,41,113,6
1,45,116,23
1,38,110,96
1,38,127,42
1,41,127,15
1,45,105,96
1,31,118,9
1,31,105,37
1,34,107,48
1,38,97,92
1,31,127,73
1,31,100,42
1,34,107,1
1,38,95,96
1,31,127,79
1,31,105,47
1,34,111,48
1,38,91,87
1,31,121,3
1,31,110,51
1,34,107,48
1,38,92,82
1,36,108,95
1,36,105,36
1,40,123,11
1,43,108,8
1,36,127,96
1,36,116,37
1,40,118,6
1,43,88,96
1,38,123,85
1,38,113,32
1,41,116,0
1,45,110,96
1,38,123,94
1,38,110,36
1,41,116,1
1,45,113,3
1,38,101,19
1,38,82,43
1,41,121,5
1,45,116,96
1,38,103,9
1,38,100,33
1,41,112,48
1,45,108,92
1,34,111,8
1,34,100,17
1,38,116,48
1,41,106,91
1,36,127,8
1,36,118,21
1,40,118,6
1,43,108,4
1,41,112,3
1,41,98,27
1,45,123,48
1,48,123,92
1,41,116,14
1,41,95,27
1,45,121,48
1,48,118,92
1,38,127,8
1,38,106,33
1,41,118,16
1,45,110,96
1,38,123,9
1,38,123,36
1,41,123,11
1,45,100,96
1,34,113,3
1,34,91,33
1,38,108,0
1,41,110,4
1,36,127,96
1,36,127,41
1,40,118,11
1,43,110,96
1,29,127,13
1,29,106,27
1,33,108,1
1,36,112,96
1,29,121,15
1,29,121,41
1,33,97,6
1,36,105,96
1,31,123,9
1,31,112,37
1,34,117,0
1,38,116,96
1,31,123,4
1,31,110,43
1,34,113,1
1,38,110,96
1,31,123,94
1,31,118,42
1,34,126,48
1,38,110,14
1,31,127,4
1,31,121,51
1,34,121,6
1,38,108,8
1,36,112,96
1,36,103,52
1,40,121,48
1,43,113,9
1,36,105,3
1,36,101,37
1,40,112,48
1,43,112,91
1,38,110,2
1,38,105,37
1,41,113,6
1,45,116,23
1,38,110,96
1,38,127,42
1,41,127,15
1,45,105,96
1,31,118,9
1,31,105,37
1,34,107,48
1,38,97,92
1,31,127,73
1,31,100,42
1,34,107,1
1,38,95,96
1,31,127,79
1,31,105,47
1,34,111,48
1,38,91,87
1,31,121,3
1,31,110,51
1,34,107,48
1,38,92,82
1,36,108,95
1,36,105,36
1,40,123,11
1,43,108,8
1,36,127,96
1,36,116,37
1,40,118,6
1,43,88,96
1,38,123,85
1,38,113,32
1,41,116,0
1,45,110,96
1,38,123,94
1,38,110,36
1,41,116,1
1,45,113,3
1,38,127,19
1,38,112,32
1,41,127,48
1,45,127,86
1,38,118,9
1,38,98,32
1,41,105,48
1,45,123,92
1,29,127,8
1,29,121,27
1,33,127,48
1,36,121,3
1,29,127,8
1,29,118,41
1,33,121,48
1,36,113,87
1,38,127,89
1,38,113,46
1,41,118,48
1,45,127,86
1,38,110,9
1,38,97,43
1,41,123,48
1,45,118,87
1,29,127,9
1,29,118,43
1,33,103,48
1,36,113,92
1,29,127,19
1,29,127,47
1,33,113,48
1,36,121,92
1,31,123,14
1,31,112,37
1,34,117,0
1,38,116,96
1,31,123,4
1,31,110,43
1,34,113,1
1,38,110,96
1,31,123,94
1,31,118,42
1,34,126,48
1,38,110,14
1,31,127,4
1,31,121,51
1,34,121,6
1,38,108,8
1,36,112,96
1,36,103,52
1,40,121,48
1,43,113,9
1,36,105,3
1,36,101,37
1,40,112,48
1,43,112,91
1,38,110,2
1,38,105,37
1,41,113,6
1,45,116,23
1,38,110,96
1,38,127,42
1,41,127,15
1,45,105,96
1,31,118,9
1,31,105,37
1,34,107,48
1,38,97,92
1,31,127,73
1,31,100,42
1,34,107,1
1,38,95,96
1,31,127,79
1,31,105,47
1,34,111,48
1,38,91,87
1,31,121,3
1,31,110,51
1,34,107,48
1,38,92,82
1,36,108,95
1,36,105,36
1,40,123,11
1,43,108,8
1,36,127,96
1,36,116,37
1,40,118,6
1,43,88,96
1,38,123,85
1,38,113,32
1,41,116,0
1,45,110,96
1,38,123,94
1,38,110,36
1,41,116,1
1,45,113,3
1,26,125,787
1,26,113,1270
1,26,125,1284
1,26,113,1270
1,38,110,1284
1,38,85,32
1,41,101,48
1,45,92,29
1,36,90,0
1,36,80,34
1,40,97,0
1,43,97,18
1,38,83,96
1,38,79,11
1,41,94,6
1,45,92,23
1,36,83,0
1,36,78,29
1,40,92,48
1,43,94,8
1,38,83,3
1,38,70,31
1,41,97,48
1,45,88,19
1,36,82,1
1,36,75,40
1,40,99,48
1,43,97,9
1,38,85,4
1,38,76,32
1,41,97,48
1,45,90,18
1,38,66,0
1,36,72,0
1,36,73,35
1,40,92,48
1,43,99,3
1,38,86,8
1,38,74,27
1,41,99,48
1,45,92,82
1,36,74,0
1,36,75,54
1,40,92,48
1,43,92,13
1,38,80,4
1,38,62,37
1,41,99,48
1,45,88,14
1,36,85,1
1,36,78,35
1,40,88,48
1,43,92,15
1,38,78,4
1,38,63,26
1,41,101,48
1,45,85,20
1,36,74,1
1,36,72,30
1,40,85,48
1,43,88,13
1,38,83,14
1,38,62,32
1,41,86,48
1,45,86,13
1,38,80,11
1,38,66,19
1,41,88,48
1,38,76,13
1,38,101,47
1,41,92,130
1,45,101,3
1,36,85,14
1,36,78,24
1,40,97,55
1,43,101,3
1,38,90,3
1,38,68,24
1,41,104,50
1,45,86,9
1,36,83,3
1,36,82,38
1,40,90,48
1,43,99,4
1,38,94,9
1,38,71,32
1,41,97,48
1,45,83,13
1,36,83,1
1,36,74,39
1,40,85,48
1,43,99,8
1,38,86,4
1,38,66,21
1,41,85,48
1,45,92,13
1,38,78,5
1,38,75,30
1,41,79,48
1,45,94,14
1,38,79,8
1,38,63,27
1,41,88,48
1,45,82,3
1,36,76,6
1,36,74,25
1,40,86,48
1,43,92,4
1,38,82,13
1,41,86,144
1,45,97,135
1,36,75,14
1,36,78,31
1,40,88,48
1,43,88,9
1,38,86,8
1,38,66,27
1,41,88,48
1,45,88,14
1,36,74,1
1,36,71,25
1,40,86,48
1,43,79,78
1,38,78,9
1,38,66,31
1,41,88,48
1,45,79,13
1,38,72,6
1,38,76,14
1,41,83,48
1,38,83,13
1,36,92,51
1,40,82,13
1,43,97,3
1,38,92,8
1,41,92,8
1,45,97,138
1,36,92,18
1,40,80,22
1,43,94,144
1,38,90,24
1,41,78,144
1,45,88,137
1,36,86,18
1,40,82,1
1,43,76,96
1,38,99,79
1,41,80,19
1,45,90,144
1,36,85,34
1,40,80,144
1,43,73,92
1,38,88,90
1,38,85,45
1,41,90,48
1,45,85,92
1,36,97,4
1,40,90,12
1,43,86,96
1,38,101,14
1,38,83,40
1,41,101,21
1,45,80,96
1,36,92,95
1,40,82,12
1,43,80,96
1,38,94,13
1,38,88,50
1,41,85,1
1,45,79,96
1,36,74,4
1,40,82,1
1,43,82,96
1,38,92,9
1,38,86,36
1,41,90,1
1,45,82,14
1,36,88,9
1,40,83,7
1,43,79,4
1,38,99,18
1,38,97,39
1,36,101,34
1,38,99,48
1,33,91,3930
1,33,89,50
1,37,95,0
1,40,103,7
1,33,85,96
1,33,84,46
1,37,90,48
1,40,99,1
1,26,97,10
1,26,96,44
1,29,101,5
1,33,99,96
1,26,108,12
1,26,94,45
1,29,105,0
1,33,97,96
1,33,103,39
1,33,86,22
1,37,95,48
1,40,96,10
1,33,83,15
1,33,83,40
1,37,92,48
1,40,93,0
1,26,99,16
1,26,97,45
1,29,101,9
1,33,96,1
1,26,101,11
1,26,93,50
1,29,96,13
1,33,96,96
1,33,94,48
1,33,87,21
1,37,97,0
1,40,99,11
1,33,82,11
1,33,82,49
1,37,92,18
1,40,91,6
1,26,101,15
1,26,96,55
1,29,96,14
1,33,93,6
1,26,108,10
1,26,94,50
1,29,97,18
1,33,91,96
1,33,85,38
1,33,90,32
1,37,92,9
1,40,94,96
1,33,75,10
1,33,78,43
1,37,80,48
1,40,80,94
1,26,91,10
1,26,89,50
1,29,87,8
1,33,87,0
1,26,97,6
1,26,93,55
1,29,99,9
1,33,87,96
1,33,88,34
1,37,92,144
1,40,90,18
1,33,71,4
1,37,84,144
1,40,83,133
1,26,101,7
1,29,94,144
1,33,94,14
1,26,101,0
1,29,97,7
1,33,97,4
1,33,83,46
1,37,84,144
1,40,90,17
1,33,71,96
1,37,84,143
1,40,92,9
1,26,99,14
1,29,94,4
1,33,97,9
1,26,99,9
1,30,86,144
1,33,94,3
1,31,101,13
1,34,81,144
1,38,85,7
1,33,79,96
1,37,81,141
1,40,90,4
1,26,107,7
1,38,86,384
1,45,88,13
1,49,92,144
1,52,90,18
1,45,71,4
1,49,84,144
1,52,83,133
1,38,101,7
1,41,94,144
1,45,94,14
1,38,101,0
1,41,97,7
1,45,97,4
1,45,83,46
1,49,84,144
1,52,90,17
1,45,71,96
1,49,84,143
1,52,92,9
1,38,99,14
1,41,94,4
1,45,97,9
1,38,99,9
1,42,86,144
1,45,94,3
1,43,101,13
1,46,81,144
1,50,85,7
1,45,79,96
1,49,81,141
1,52,90,4
1,38,107,7
1,50,86,384
1,38,98,13
1,38,83,43
1,41,114,5
1,45,110,96
1,38,100,9
1,38,97,33
1,41,107,48
1,45,104,92
1,34,106,8
1,34,97,17
1,38,110,48
1,41,102,91
1,36,121,8
1,36,112,21
1,40,112,6
1,43,104,4
1,41,107,3
1,41,96,27
1,45,116,48
1,48,116,92
1,41,110,14
1,41,93,27
1,45,114,48
1,48,112,92
1,38,121,8
1,38,102,33
1,41,112,16
1,45,105,96
1,38,116,9
1,38,116,36
1,41,116,11
1,45,97,96
1,34,108,3
1,34,90,33
1,38,104,0
1,41,105,4
1,36,121,96
1,36,123,41
1,40,112,11
1,43,105,96
1,29,119,13
1,29,102,27
1,33,104,1
1,36,107,96
1,29,114,15
1,29,114,41
1,33,95,6
1,36,101,96
1,31,116,9
1,31,107,37
1,34,111,0
1,38,110,96
1,31,116,4
1,31,105,43
1,34,108,1
1,38,105,96
1,31,116,94
1,31,112,42
1,34,118,48
1,38,105,14
1,31,123,4
1,31,114,51
1,34,114,6
1,38,104,8
1,36,107,96
1,36,100,52
1,40,114,48
1,43,108,9
1,36,101,3
1,36,98,37
1,40,107,48
1,43,107,91
1,38,105,2
1,38,101,37
1,41,108,6
1,45,110,23
1,38,105,96
1,38,119,42
1,41,119,15
1,45,101,96
1,31,112,9
1,31,101,37
1,34,103,48
1,38,95,92
1,31,119,73
1,31,97,42
1,34,103,1
1,38,93,96
1,31,121,79
1,31,101,47
1,34,106,48
1,38,90,87
1,31,114,3
1,31,105,51
1,34,103,48
1,38,91,82
1,36,104,95
1,36,101,36
1,40,116,11
1,43,104,8
1,36,119,96
1,36,110,37
1,40,112,6
1,43,88,96
1,38,116,85
1,38,108,32
1,41,110,0
1,45,105,96
1,38,116,94
1,38,105,36
1,41,110,1
1,45,108,3
1,26,119,19
1,26,110,42
1,29,110,48
1,33,102,89
1,26,121,8
1,26,126,41
1,29,112,2
1,33,98,96
1,34,108,12
1,34,111,36
1,38,110,2
1,41,101,96
1,36,126,11
1,36,127,36
1,40,126,18
1,43,102,96
1,26,127,94
1,26,127,67
1,26,127,96
1,26,127,99
1,26,127,55
1,26,127,31
1,38,127,7
2,69,91,1475
2,74,99,0
2,77,88,0
2,77,85,150
2,69,88,0
2,74,99,0
2,77,76,154
2,69,78,0
2,74,93,0
2,69,71,30
2,74,84,0
2,77,73,0
2,74,106,101
2,69,97,0
2,77,90,0
2,69,90,159
2,74,109,0
2,77,84,0
2,74,106,154
2,69,84,0
2,77,79,0
2,74,85,169
2,77,72,0
2,69,74,0
2,69,73,30
2,77,84,0
2,74,95,0
2,74,112,101
2,69,97,0
2,77,85,0
2,69,88,164
2,74,102,0
2,77,87,0
2,74,104,153
2,77,87,0
2,69,88,0
2,74,53,63
2,69,67,89
2,77,68,0
2,76,77,0
2,74,87,0
2,77,77,29
2,69,70,0
2,74,80,0
2,74,109,101
2,69,97,0
2,77,90,0
2,74,112,154
2,69,97,0
2,77,90,0
2,74,51,62
2,76,67,84
2,69,79,0
2,77,90,0
2,74,102,0
2,77,62,62
2,79,81,0
2,80,101,0
2,81,95,10
2,84,93,48
2,86,97,0
2,79,88,58
2,80,97,11
2,77,88,6
2,79,71,0
2,74,104,154
2,77,83,0
2,69,97,0
2,69,95,174
2,74,106,0
2,77,83,0
2,69,95,168
2,74,102,0
2,77,85,0
2,74,69,63
2,69,83,84
2,74,97,0
2,77,81,0
2,70,91,170
2,74,102,0
2,77,88,0
2,70,89,154
2,77,90,0
2,74,99,0
2,67,85,155
2,72,97,0
2,76,87,0
2,67,91,153
2,72,104,0
2,76,97,0
2,72,102,159
2,69,97,0
2,77,87,0
2,77,90,153
2,72,109,0
2,69,102,0
2,72,99,159
2,77,87,0
2,69,95,0
2,72,104,159
2,69,91,0
2,77,80,0
2,74,93,154
2,77,84,0
2,69,78,0
2,77,79,164
2,74,97,0
2,69,83,0
2,69,90,164
2,74,99,0
2,77,80,0
2,77,79,159
2,74,95,0
2,69,83,0
2,73,58,159
2,70,86,0
2,74,93,0
2,77,84,0
2,74,90,153
2,70,84,0
2,77,78,0
2,76,81,148
2,67,78,0
2,72,93,0
2,67,81,153
2,72,95,0
2,76,84,0
2,69,93,148
2,72,99,0
2,77,83,0
2,77,77,158
2,69,87,0
2,72,95,0
2,69,91,148
2,77,83,0
2,72,97,0
2,69,72,149
2,77,84,0
2,72,85,0
2,79,88,144
2,74,97,0
2,70,94,0
2,70,82,154
2,74,99,0
2,79,85,0
2,70,91,148
2,74,99,0
2,79,85,0
2,79,79,149
2,70,94,0
2,74,102,0
2,79,81,149
2,70,89,0
2,74,104,0
2,79,84,149
2,70,84,0
2,74,106,0
2,79,76,150
2,74,95,0
2,70,91,0
2,74,97,149
2,79,88,0
2,70,84,0
2,67,76,154
2,76,85,0
2,72,93,0
2,76,91,149
2,72,97,0
2,67,77,0
2,67,83,148
2,72,102,0
2,76,88,0
2,72,93,149
2,76,83,0
2,67,81,0
2,69,88,149
2,72,104,0
2,77,90,0
2,77,90,149
2,72,106,0
2,69,95,0
2,77,58,57
2,77,73,78
2,69,79,0
2,72,88,0
2,72,90,30
2,69,59,0
2,77,74,0
2,69,97,101
2,72,106,0
2,77,88,0
2,70,84,148
2,79,78,0
2,74,90,0
2,70,84,154
2,74,88,0
2,79,78,0
2,70,91,149
2,74,90,0
2,79,83,0
2,79,78,149
