track,note,velocity,time
1,41,109,1158
1,41,105,276
1,45,105,6
1,48,105,100
1,50,102,100
1,45,109,16
1,40,105,160
1,45,105,32
1,40,105,34
1,45,112,66
1,40,109,34
1,39,105,60
1,36,105,90
1,38,105,76
1,39,105,66
1,32,105,96
1,33,105,54
1,34,105,46
1,38,102,122
1,41,105,54
1,46,105,70
1,43,105,112
1,41,105,28
1,38,105,54
1,41,109,58
1,41,105,276
1,45,105,6
1,48,105,100
1,50,102,100
1,45,109,16
1,40,105,160
1,45,105,32
1,40,105,34
1,45,112,66
1,40,109,34
1,39,105,60
1,36,105,90
1,38,105,76
1,39,105,66
1,32,105,96
1,33,105,54
1,34,105,46
1,38,102,122
1,41,105,54
1,46,105,70
1,43,105,112
1,41,105,28
1,38,105,54
1,41,109,58
1,41,105,276
1,45,105,6
1,48,105,100
1,50,102,100
1,45,109,16
1,40,105,160
1,45,105,32
1,40,105,34
1,45,112,66
1,40,109,34
1,39,105,60
1,36,105,90
1,38,105,76
1,39,105,66
1,32,105,96
1,33,105,54
1,34,105,46
1,38,102,122
1,41,105,54
1,46,105,70
1,43,105,112
1,41,105,28
1,38,105,54
1,41,105,54
1,41,105,64
1,45,105,22
1,48,109,66
1,50,102,74
1,45,109,34
1,45,109,128
1,43,109,54
1,43,109,108
1,40,109,58
1,40,105,82
1,36,105,64
1,38,105,70
1,36,109,72
1,39,109,64
1,36,105,48
1,38,105,76
1,39,105,58
1,32,109,82
1,33,102,42
1,34,109,54
1,34,105,44
1,38,105,36
1,38,105,112
1,41,105,36
1,41,102,80
1,38,105,46
1,39,109,48
1,40,105,64
1,41,105,66
1,45,95,38
1,48,102,26
1,41,102,0
1,45,109,960
1,40,105,102
1,45,105,70
1,40,105,50
1,45,109,44
1,40,109,38
1,39,109,16
1,36,105,48
1,38,105,76
1,39,105,58
1,32,109,82
1,33,102,42
1,34,109,54
1,34,105,44
1,38,105,36
1,38,105,112
1,41,105,36
1,41,102,80
1,43,105,46
1,46,105,26
1,48,109,66
1,43,105,70
1,40,105,50
1,50,99,384
1,52,99,38
1,50,99,12
1,48,109,18
1,46,112,64
1,41,102,102
1,38,102,50
1,34,109,64
1,29,105,26
1,30,105,38
1,31,105,50
1,31,102,80
1,31,105,86
1,31,105,74
1,31,109,108
1,31,102,88
1,31,99,42
1,34,102,194
1,36,102,38
1,36,105,32
1,31,105,96
1,31,105,54
1,31,109,98
1,31,102,86
1,31,105,92
1,31,105,86
1,31,102,48
1,36,102,38
1,36,99,66
1,36,102,22
1,36,105,42
1,36,109,48
1,41,109,80
1,41,105,276
1,45,105,6
1,48,105,100
1,50,102,100
1,45,109,16
1,40,105,160
1,45,105,32
1,40,105,34
1,45,112,66
1,40,109,34
1,39,105,60
1,36,105,90
1,38,105,76
1,39,105,66
1,32,105,96
1,33,105,54
1,34,105,46
1,38,102,122
1,41,105,54
1,46,105,70
1,43,105,112
1,41,105,28
1,38,105,54
1,41,109,58
1,41,105,276
1,45,105,6
1,48,105,100
1,50,102,100
1,45,109,16
1,40,105,160
1,45,105,32
1,40,105,34
1,45,112,66
1,40,109,34
1,39,105,60
1,36,105,90
1,38,105,76
1,39,105,66
1,32,105,96
1,33,105,54
1,34,105,46
1,38,102,122
1,41,105,54
1,46,105,70
1,43,105,112
1,41,105,28
1,38,105,54
1,41,109,58
1,41,105,276
1,45,105,6
1,48,105,100
1,50,102,100
1,45,109,16
1,40,105,160
1,45,105,32
1,40,105,34
1,45,112,66
1,40,109,34
1,39,105,60
1,36,105,90
1,38,105,76
1,39,105,66
1,32,105,96
1,33,105,54
1,34,105,46
1,38,102,122
1,41,105,54
1,46,105,70
1,43,105,112
1,41,105,28
1,38,105,54
1,41,105,54
1,41,105,64
1,45,105,22
1,48,109,66
1,50,102,74
1,45,109,34
1,45,109,128
1,43,109,54
1,43,109,108
1,40,109,58
1,40,105,82
1,36,105,64
1,38,105,70
1,36,109,72
1,39,109,64
1,36,105,48
1,38,105,76
1,39,105,58
1,32,109,82
1,33,102,42
1,34,109,54
1,34,105,44
1,38,105,36
1,38,105,112
1,41,105,36
1,41,102,80
1,38,105,46
1,39,109,48
1,40,105,64
1,41,105,66
1,45,95,38
1,48,102,26
1,41,102,0
1,45,109,960
1,40,105,102
1,45,105,70
1,40,105,50
1,45,109,44
1,40,109,38
1,39,109,16
1,36,105,48
1,38,105,76
1,39,105,58
1,32,109,82
1,33,102,42
1,34,109,54
1,34,105,44
1,38,105,36
1,38,105,112
1,41,105,36
1,41,102,80
1,43,105,46
1,46,105,26
1,41,105,66
1,41,105,64
1,45,105,22
1,48,109,66
1,50,102,74
1,45,109,34
1,45,109,128
1,43,109,54
1,43,109,108
1,40,109,58
1,40,105,82
1,36,105,64
1,38,105,70
1,36,109,72
1,39,109,64
1,36,105,48
1,38,105,76
1,39,105,58
1,32,109,82
1,33,102,42
1,34,109,54
1,34,105,44
1,38,105,36
1,38,105,112
1,41,105,36
1,41,102,80
1,38,105,46
1,39,109,48
1,40,105,64
1,41,105,66
1,41,105,64
1,45,105,22
1,48,109,66
1,50,102,74
1,45,109,34
1,45,109,128
1,43,109,54
1,43,109,108
1,40,109,58
1,40,105,82
1,36,105,64
1,38,105,70
1,36,109,72
1,39,109,64
1,36,105,48
1,38,105,76
1,39,105,58
1,32,109,82
1,33,102,42
1,34,109,54
1,34,105,44
1,38,105,36
1,38,105,112
1,41,105,36
1,41,102,80
1,38,105,46
1,39,109,48
1,40,105,64
1,41,109,66
1,48,66,34
1,45,105,96
1,41,105,12
2,77,117,1152
2,72,120,154
2,77,114,10
2,72,117,192
2,76,114,4
2,84,117,140
2,84,117,36
2,79,114,12
2,75,117,24
2,82,96,52
2,82,114,56
2,81,117,48
2,79,124,8
2,82,120,42
2,72,81,576
2,70,59,0
2,65,81,0
2,70,50,86
2,65,76,0
2,74,52,0
2,65,98,152
2,74,76,154
2,70,74,90
2,77,104,198
2,72,110,0
2,69,88,14
2,72,114,104
2,77,104,180
2,69,78,6
2,72,101,192
2,72,85,68
2,69,104,0
2,76,107,0
2,72,104,90
2,69,47,0
2,69,96,160
2,76,96,48
2,72,81,196
2,75,104,88
2,70,110,0
2,72,104,26
2,74,110,14
2,75,114,112
2,70,56,0
2,72,83,22
2,70,72,8
2,70,101,98
2,74,96,0
2,65,88,766
2,70,85,22
2,70,114,72
2,74,107,0
2,65,114,0
2,70,101,24
2,75,117,0
2,67,120,0
2,70,101,52
2,74,110,0
2,65,117,0
2,72,110,48
2,77,101,30
2,81,120,80
2,72,88,384
2,77,61,194
2,72,56,130
2,81,104,42
2,72,70,100
2,77,93,122
2,77,90,66
2,72,76,200
2,76,98,78
2,72,66,0
2,79,107,0
2,76,93,138
2,72,101,564
2,79,107,186
2,76,101,186
2,75,83,120
2,79,117,0
2,70,54,764
2,75,57,176
2,79,110,106
2,75,21,116
2,79,90,198
2,75,101,64
2,86,120,142
2,89,117,0
2,84,117,98
2,82,101,84
2,84,21,0
2,84,117,170
2,89,117,0
2,82,98,180
2,85,104,72
2,89,114,0
2,86,124,0
2,84,114,54
2,82,98,2
2,81,120,8
2,72,88,384
2,77,61,194
2,72,56,130
2,81,104,42
2,72,70,100
2,77,93,122
2,77,90,66
2,72,76,200
2,76,98,78
2,72,66,0
2,79,107,0
2,76,93,138
2,72,101,564
2,79,107,186
2,76,101,186
2,75,83,120
2,79,117,0
2,70,54,764
2,75,57,176
2,79,110,106
2,75,21,116
2,79,90,198
2,75,101,64
2,77,114,144
2,74,104,0
2,74,21,82
2,74,78,128
2,82,41,18
2,74,64,146
2,82,96,96
2,74,81,106
2,77,107,188
2,74,61,160
2,81,120,48
2,72,88,384
2,77,61,194
2,72,56,130
2,81,104,42
2,72,76,702
2,76,98,78
2,72,66,0
2,79,107,0
2,76,93,138
2,72,101,564
2,79,107,186
2,76,101,186
2,75,83,120
2,79,117,0
2,70,54,764
2,75,57,176
2,79,110,106
2,75,21,116
2,79,90,198
2,75,101,64
2,77,114,144
2,74,104,0
2,74,21,82
2,74,78,128
2,82,41,18
2,74,64,146
2,82,96,96
2,74,81,106
2,77,107,188
2,74,61,160
2,81,120,13872
2,72,88,384
2,77,61,194
2,72,56,130
2,81,104,42
2,72,70,100
2,77,93,122
2,77,90,66
2,72,76,200
2,76,98,78
2,72,66,0
2,79,107,0
2,76,93,138
2,72,101,564
2,79,107,186
2,76,101,186
2,75,83,120
2,79,117,0
2,70,54,764
2,75,57,176
2,79,110,106
2,75,21,116
2,79,90,198
2,75,101,64
2,77,114,144
2,74,104,0
2,74,21,82
2,74,78,128
2,82,41,18
2,74,64,146
2,82,96,96
2,74,81,106
2,77,107,188
2,74,61,160
2,81,120,48
2,72,88,384
2,77,61,194
2,72,56,130
2,81,104,42
2,72,70,100
2,77,93,122
2,77,90,66
2,72,76,200
2,76,98,78
2,72,66,0
2,79,107,0
2,76,93,138
2,72,101,564
2,79,107,186
2,76,101,186
2,75,83,120
2,79,117,0
2,70,54,764
2,75,57,176
2,79,110,106
2,75,21,116
2,79,90,198
2,75,101,64
2,77,114,144
2,74,104,0
2,74,21,82
2,74,78,128
2,82,41,18
2,74,64,146
2,82,96,96
2,74,81,106
2,77,107,188
2,74,61,160
2,81,120,48
2,72,88,384
2,77,61,194
2,72,56,130
2,81,104,42
2,72,70,100
2,77,93,122
2,77,90,66
2,72,76,200
2,76,98,78
2,72,66,0
2,79,107,0
2,76,93,138
2,72,101,564
2,79,107,186
2,76,101,186
2,75,83,120
2,79,117,0
2,70,54,764
2,75,57,176
2,79,110,106
2,75,21,116
2,79,90,198
2,75,101,64
2,86,120,142
2,89,117,0
2,84,117,98
2,82,101,84
2,84,21,0
2,84,117,170
2,89,117,0
2,82,98,180
2,85,104,72
2,89,114,0
2,86,124,0
2,84,114,54
2,82,98,2
2,81,120,8
2,72,88,384
2,77,61,194
2,72,56,130
2,81,104,42
2,72,70,100
2,77,93,122
2,77,90,66
2,72,76,200
2,76,98,78
2,72,66,0
2,79,107,0
2,76,93,138
2,72,101,564
2,79,107,186
2,76,101,186
2,75,83,120
2,79,117,0
2,70,54,764
2,75,57,176
2,79,110,106
2,75,21,116
2,79,90,198
2,75,101,64
2,77,114,144
2,74,104,0
2,74,21,82
2,74,78,128
2,82,41,18
2,74,64,146
2,82,96,96
2,74,81,106
2,77,107,188
2,74,61,160
2,81,120,48
2,72,88,384
2,77,61,194
2,72,56,130
2,81,104,42
2,72,76,702
2,76,98,78
2,72,66,0
2,79,107,0
2,76,93,138
2,72,101,564
2,79,107,186
2,76,101,186
2,75,83,120
2,79,117,0
2,70,54,764
2,75,57,176
2,79,110,106
2,75,21,116
2,79,90,198
2,75,101,64
2,77,114,144
2,74,104,0
2,74,21,82
2,74,78,128
2,82,41,18
2,74,64,146
2,82,96,96
2,74,81,106
2,77,107,188
2,74,61,160
2,81,120,48
2,72,88,384
2,77,61,194
2,72,56,130
2,81,104,42
2,72,70,100
2,77,93,122
2,77,90,66
2,72,76,200
2,76,98,78
2,72,66,0
2,79,107,0
2,76,93,138
2,72,101,564
2,79,107,186
2,76,101,186
2,75,83,120
2,79,117,0
2,70,54,764
2,75,57,176
2,79,110,106
2,75,21,116
2,79,90,198
2,75,101,64
2,77,114,144
2,74,104,0
2,74,21,82
2,74,78,128
2,82,41,18
2,74,64,146
2,82,96,96
2,74,81,106
2,77,107,188
2,74,61,160
2,81,120,48
2,72,88,384
2,77,61,194
2,72,56,130
2,81,104,42
2,72,70,100
2,77,93,122
2,77,90,66
2,72,76,200
2,76,98,78
2,72,66,0
2,79,107,0
2,76,93,138
2,72,101,564
2,79,107,186
2,76,101,186
2,75,83,120
2,79,117,0
2,70,54,764
2,75,57,176
2,79,110,106
2,75,21,116
2,79,90,198
2,75,101,64
2,77,114,144
2,74,104,0
2,74,21,82
2,74,78,128
2,82,41,18
2,74,64,146
2,82,96,96
2,74,81,106
2,77,107,188
2,74,61,160
2,81,120,48
3,81,109,1728
3,84,105,0
3,81,109,992
3,84,109,0
3,84,102,1000
3,81,109,1022
3,84,109,0
3,79,109,1000
3,84,105,0
3,84,105,984
3,79,109,0
3,82,109,986
3,84,105,0
3,86,105,986
3,82,105,0
3,81,109,1002
3,84,105,0
3,81,109,992
3,84,109,0
3,84,102,1000
3,81,109,1022
3,84,109,0
3,79,109,1000
3,84,105,0
3,84,105,984
3,79,109,0
3,82,109,986
3,84,105,0
3,86,105,986
3,82,105,0
3,81,109,1002
3,84,105,0
3,81,109,992
3,84,109,0
3,84,102,1000
3,81,109,1022
3,84,109,0
3,79,109,1000
3,84,105,0
3,84,105,984
3,79,109,0
3,82,109,986
3,84,105,0
3,86,105,986
3,82,105,0
3,81,109,1002
3,84,105,0
3,81,109,992
3,84,109,0
3,84,102,1000
3,81,109,1022
3,84,109,0
3,79,109,1000
3,84,105,0
3,84,105,984
3,79,109,0
3,82,109,986
3,84,105,0
3,86,105,986
3,82,105,0
3,81,109,1002
3,84,105,0
3,84,102,2142
3,81,109,1022
3,84,109,0
3,79,109,1000
3,84,105,0
3,84,105,984
3,79,109,0
3,82,109,986
3,84,105,0
3,86,105,986
3,82,105,0
3,79,92,426
3,84,95,0
3,79,86,126
3,84,95,48
3,79,75,14
3,84,86,0
3,84,105,94
3,79,70,26
3,84,99,78
3,79,99,112
3,82,86,64
3,77,102,0
3,77,102,62
3,77,86,104
3,82,89,48
3,77,86,56
3,82,83,24
3,82,99,30
3,77,92,0
3,77,92,74
3,67,109,106
3,70,89,192
3,74,95,138
3,79,105,138
3,74,99,186
3,70,99,14
3,66,105,0
3,70,68,192
3,74,89,186
3,78,105,30
3,74,102,8
3,70,102,192
3,65,105,20
3,70,89,20
3,74,92,192
3,77,105,20
3,74,95,192
3,70,99,160
3,64,102,0
3,67,102,6
3,72,68,192
3,76,99,170
3,72,102,164
3,67,102,140
3,67,105,30
3,70,78,188
3,74,46,168
3,79,109,142
3,74,99,120
3,70,102,180
3,66,102,176
3,70,63,144
3,74,92,170
3,78,99,168
3,74,89,164
3,70,105,190
3,65,105,26
3,70,102,192
3,74,95,184
3,77,105,8
3,74,95,192
3,70,102,132
3,67,105,10
3,72,95,192
3,76,81,166
3,79,102,48
3,76,83,182
3,84,42,176
3,81,109,616
3,84,105,0
3,81,109,992
3,84,109,0
3,84,102,1000
3,81,109,1022
3,84,109,0
3,79,109,1000
3,84,105,0
3,84,105,984
3,79,109,0
3,82,109,986
3,84,105,0
3,86,105,986
3,82,105,0
3,81,109,1002
3,84,105,0
3,81,109,992
3,84,109,0
3,84,102,1000
3,81,109,1022
3,84,109,0
3,79,109,1000
3,84,105,0
3,84,105,984
3,79,109,0
3,82,109,986
3,84,105,0
3,86,105,986
3,82,105,0
3,81,109,1002
3,84,105,0
3,81,109,992
3,84,109,0
3,84,102,1000
3,81,109,1022
3,84,109,0
3,79,109,1000
3,84,105,0
3,84,105,984
3,79,109,0
3,82,109,986
3,84,105,0
3,86,105,986
3,82,105,0
3,81,109,1002
3,84,105,0
3,81,109,992
3,84,109,0
3,84,102,1000
3,81,109,1022
3,84,109,0
3,79,109,1000
3,84,105,0
3,84,105,984
3,79,109,0
3,82,109,986
3,84,105,0
3,86,105,986
3,82,105,0
3,81,109,1002
3,84,105,0
3,84,102,2142
3,81,109,1022
3,84,109,0
3,79,109,1000
3,84,105,0
3,84,105,984
3,79,109,0
3,82,109,986
3,84,105,0
3,86,105,986
3,82,105,0
3,81,109,1002
3,84,105,0
3,81,109,992
3,84,109,0
3,84,102,1000
3,81,109,1022
3,84,109,0
3,79,109,1000
3,84,105,0
3,84,105,984
3,79,109,0
3,82,109,986
3,84,105,0
3,86,105,986
3,82,105,0
3,81,109,1002
3,84,105,0
3,81,109,992
3,84,109,0
3,84,102,1000
3,81,109,1022
3,84,109,0
3,79,109,1000
3,84,105,0
3,84,105,984
3,79,109,0
3,82,109,986
3,84,105,0
3,86,105,986
3,82,105,0
4,77,105,1728
4,77,102,1002
4,81,112,1012
4,76,105,0
4,76,109,1028
4,75,102,1012
4,75,95,1002
