track,note,velocity,time
1,67,91,21104
1,58,91,0
1,62,91,0
1,63,82,0
1,67,91,92
1,63,82,0
1,58,91,0
1,62,91,0
1,67,91,1172
1,56,91,0
1,60,91,0
1,63,82,0
1,67,91,92
1,63,82,0
1,56,91,0
1,60,91,0
1,65,91,404
1,55,91,0
1,59,91,0
1,63,82,0
1,65,91,92
1,63,82,0
1,55,91,0
1,59,91,0
1,67,91,192
1,58,91,0
1,62,91,0
1,63,82,0
1,67,91,92
1,63,82,0
1,58,91,0
1,62,91,0
1,67,91,1172
1,56,91,0
1,60,91,0
1,63,82,0
1,67,91,92
1,63,82,0
1,56,91,0
1,60,91,0
1,65,91,404
1,55,91,0
1,59,91,0
1,63,82,0
1,65,91,92
1,63,82,0
1,55,91,0
1,59,91,0
1,67,91,404
1,58,91,0
1,62,91,0
1,63,82,0
1,67,91,92
1,63,82,0
1,58,91,0
1,62,91,0
1,67,91,1172
1,56,91,0
1,60,91,0
1,63,82,0
1,67,91,92
1,63,82,0
1,56,91,0
1,60,91,0
1,65,91,404
1,55,91,0
1,59,91,0
1,63,82,0
1,65,91,92
1,63,82,0
1,55,91,0
1,59,91,0
1,67,91,192
1,58,91,0
1,62,91,0
1,63,82,0
1,67,91,92
1,63,82,0
1,58,91,0
1,62,91,0
1,67,91,1172
1,56,91,0
1,60,91,0
1,63,82,0
1,67,91,92
1,63,82,0
1,56,91,0
1,60,91,0
1,65,91,404
1,55,91,0
1,59,91,0
1,63,82,0
1,65,91,92
1,63,82,0
1,55,91,0
1,59,91,0
1,67,91,404
1,58,91,0
1,62,91,0
1,63,82,0
1,67,91,92
1,63,82,0
1,58,91,0
1,62,91,0
1,67,91,1172
1,56,91,0
1,60,91,0
1,63,82,0
1,67,91,92
1,63,82,0
1,56,91,0
1,60,91,0
1,65,91,404
1,55,91,0
1,59,91,0
1,63,82,0
1,65,91,92
1,63,82,0
1,55,91,0
1,59,91,0
1,67,91,192
1,58,91,0
1,62,91,0
1,63,82,0
1,67,91,92
1,63,82,0
1,58,91,0
1,62,91,0
1,67,91,1172
1,56,91,0
1,60,91,0
1,63,82,0
1,67,91,92
1,63,82,0
1,56,91,0
1,60,91,0
1,65,91,404
1,55,91,0
1,59,91,0
1,63,82,0
1,65,91,92
1,63,82,0
1,55,91,0
1,59,91,0
1,67,91,404
1,58,91,0
1,62,91,0
1,63,82,0
1,67,91,92
1,63,82,0
1,58,91,0
1,62,91,0
1,67,91,1172
1,56,91,0
1,60,91,0
1,63,82,0
1,67,91,92
1,63,82,0
1,56,91,0
1,60,91,0
1,65,91,404
1,55,91,0
1,59,91,0
1,63,82,0
1,65,91,92
1,63,82,0
1,55,91,0
1,59,91,0
1,67,91,192
1,58,91,0
1,62,91,0
1,63,82,0
1,67,91,92
1,63,82,0
1,58,91,0
1,62,91,0
1,67,91,1172
1,56,91,0
1,60,91,0
1,63,82,0
1,67,91,92
1,63,82,0
1,56,91,0
1,60,91,0
1,65,91,404
1,55,91,0
1,59,91,0
1,63,82,0
1,67,91,204
1,56,91,0
1,60,91,0
1,63,82,0
1,67,91,186
1,58,91,0
1,63,91,0
1,65,82,0
1,67,91,394
1,56,91,0
1,60,91,0
1,63,82,0
1,67,91,186
1,58,91,0
1,63,91,0
1,65,82,0
1,67,91,394
1,56,91,0
1,60,91,0
1,63,82,0
1,67,91,186
1,58,91,0
1,63,91,0
1,65,82,0
1,67,91,394
1,56,91,0
1,60,91,0
1,63,82,0
1,69,91,186
1,59,91,0
1,61,91,0
1,65,82,0
1,65,91,11146
1,55,91,0
1,60,91,0
1,62,82,0
1,67,91,6346
1,58,91,0
1,62,91,0
1,63,82,0
1,67,91,92
1,63,82,0
1,58,91,0
1,62,91,0
1,67,91,1172
1,56,91,0
1,60,91,0
1,63,82,0
1,67,91,92
1,63,82,0
1,56,91,0
1,60,91,0
1,65,91,404
1,55,91,0
1,59,91,0
1,63,82,0
1,65,91,92
1,63,82,0
1,55,91,0
1,59,91,0
1,67,91,404
1,58,91,0
1,62,91,0
1,63,82,0
1,67,91,92
1,63,82,0
1,58,91,0
1,62,91,0
1,67,91,1172
1,56,91,0
1,60,91,0
1,63,82,0
1,67,91,92
1,63,82,0
1,56,91,0
1,60,91,0
1,65,91,404
1,55,91,0
1,59,91,0
1,63,82,0
1,65,91,92
1,63,82,0
1,55,91,0
1,59,91,0
1,67,91,192
1,58,91,0
1,62,91,0
1,63,82,0
1,67,91,92
1,63,82,0
1,58,91,0
1,62,91,0
1,67,91,1172
1,56,91,0
1,60,91,0
1,63,82,0
1,67,91,92
1,63,82,0
1,56,91,0
1,60,91,0
1,65,91,404
1,55,91,0
1,59,91,0
1,63,82,0
1,65,91,92
1,63,82,0
1,55,91,0
1,59,91,0
1,67,91,404
1,58,91,0
1,62,91,0
1,63,82,0
1,67,91,92
1,63,82,0
1,58,91,0
1,62,91,0
1,67,91,1172
1,56,91,0
1,60,91,0
1,63,82,0
1,67,91,92
1,63,82,0
1,56,91,0
1,60,91,0
1,65,91,404
1,55,91,0
1,59,91,0
1,63,82,0
1,67,91,204
1,56,91,0
1,60,91,0
1,63,82,0
1,67,91,186
1,58,91,0
1,63,91,0
1,65,82,0
1,67,91,394
1,56,91,0
1,60,91,0
1,63,82,0
1,67,91,186
1,58,91,0
1,63,91,0
1,65,82,0
1,67,91,394
1,56,91,0
1,60,91,0
1,63,82,0
1,67,91,186
1,58,91,0
1,63,91,0
1,65,82,0
1,67,91,394
1,56,91,0
1,60,91,0
1,63,82,0
1,69,91,186
1,59,91,0
1,61,91,0
1,65,82,0
1,67,91,24970
1,65,91,0
1,63,91,0
1,58,82,0
1,55,73,378
1,62,82,0
1,65,91,0
1,58,82,0
1,55,82,80
1,60,82,0
1,64,90,0
1,60,82,52
1,62,91,0
1,65,82,0
1,57,91,0
1,67,91,22
1,65,91,0
1,63,91,0
1,58,82,0
1,55,73,378
1,62,82,0
1,65,91,0
1,58,82,0
1,55,82,80
1,60,82,0
1,64,90,0
1,60,82,52
1,62,91,0
1,65,82,0
1,57,91,0
1,65,91,22
1,58,91,0
1,62,91,0
1,67,82,0
1,57,73,378
1,62,82,0
1,65,91,0
1,60,82,0
1,69,87,384
1,67,91,192
1,60,82,20
1,55,73,0
1,64,92,0
1,65,91,52
1,58,91,0
1,62,91,0
1,55,82,0
1,57,82,112
1,61,91,0
1,65,91,0
1,64,93,576
1,69,90,384
1,57,91,12
1,60,91,0
1,64,91,0
1,65,82,0
1,57,91,92
1,65,82,0
1,60,91,0
1,64,91,0
1,57,91,0
1,58,91,0
1,62,91,0
1,65,82,0
1,57,91,92
1,65,82,0
1,58,91,0
1,62,91,0
1,55,91,404
1,57,91,0
1,61,91,0
1,65,82,0
1,55,91,92
1,65,82,0
1,57,91,0
1,61,91,0
1,57,91,404
1,60,91,0
1,64,91,0
1,65,82,0
1,57,91,92
1,65,82,0
1,60,91,0
1,64,91,0
1,57,91,1172
1,58,91,0
1,62,91,0
1,65,82,0
1,57,91,92
1,65,82,0
1,58,91,0
1,62,91,0
1,55,91,404
1,57,91,0
1,61,91,0
1,65,82,0
1,55,91,92
1,65,82,0
1,57,91,0
1,61,91,0
1,57,91,404
1,60,91,0
1,64,91,0
1,65,82,0
1,57,91,92
1,65,82,0
1,60,91,0
1,64,91,0
1,57,91,1172
1,58,91,0
1,62,91,0
1,65,82,0
1,57,91,92
1,65,82,0
1,58,91,0
1,62,91,0
1,55,91,404
1,57,91,0
1,61,91,0
1,65,82,0
1,55,91,92
1,65,82,0
1,57,91,0
1,61,91,0
1,57,91,404
1,60,91,0
1,64,91,0
1,65,82,0
1,57,91,92
1,65,82,0
1,60,91,0
1,64,91,0
1,57,91,1172
1,58,91,0
1,62,91,0
1,65,82,0
1,57,91,92
1,65,82,0
1,58,91,0
1,62,91,0
1,55,91,404
1,57,91,0
1,61,91,0
1,65,82,0
1,55,91,92
1,65,82,0
1,57,91,0
1,61,91,0
1,57,91,404
1,60,91,0
1,64,91,0
1,65,82,0
1,57,91,92
1,65,82,0
1,60,91,0
1,64,91,0
1,57,91,1172
1,58,91,0
1,62,91,0
1,65,82,0
1,57,91,92
1,65,82,0
1,58,91,0
1,62,91,0
1,55,91,404
1,57,91,0
1,61,91,0
1,65,82,0
1,55,91,92
1,65,82,0
1,57,91,0
1,61,91,0
1,57,91,404
1,60,91,0
1,64,91,0
1,65,82,0
1,57,91,92
1,65,82,0
1,60,91,0
1,64,91,0
1,57,91,1172
1,58,91,0
1,62,91,0
1,65,82,0
1,57,91,92
1,65,82,0
1,58,91,0
1,62,91,0
1,55,91,404
1,57,91,0
1,61,91,0
1,65,82,0
1,55,91,92
1,65,82,0
1,57,91,0
1,61,91,0
1,57,91,404
1,60,91,0
1,64,91,0
1,65,82,0
1,57,91,92
1,65,82,0
1,60,91,0
1,64,91,0
1,57,91,1172
1,58,91,0
1,62,91,0
1,65,82,0
1,57,91,92
1,65,82,0
1,58,91,0
1,62,91,0
1,55,91,404
1,57,91,0
1,61,91,0
1,65,82,0
1,55,91,92
1,65,82,0
1,57,91,0
1,61,91,0
1,57,91,404
1,60,91,0
1,64,91,0
1,65,82,0
1,57,91,92
1,65,82,0
1,60,91,0
1,64,91,0
1,57,91,1172
1,58,91,0
1,62,91,0
1,65,82,0
1,57,91,92
1,65,82,0
1,58,91,0
1,62,91,0
1,55,91,404
1,57,91,0
1,61,91,0
1,65,82,0
1,55,91,92
1,65,82,0
1,57,91,0
1,61,91,0
1,69,91,404
1,58,91,0
1,62,91,0
1,65,82,0
1,69,91,186
1,60,91,0
1,65,91,0
1,67,82,0
1,69,91,394
1,58,91,0
1,62,91,0
1,65,82,0
1,69,91,186
1,60,91,0
1,65,91,0
1,67,82,0
1,69,91,394
1,58,91,0
1,62,91,0
1,65,82,0
1,69,91,186
1,60,91,0
1,65,91,0
1,67,82,0
1,69,91,394
1,58,91,0
1,62,91,0
1,65,82,0
1,59,91,186
1,61,91,0
1,63,91,0
1,67,82,0
2,36,100,21084
2,31,100,116
2,36,100,40
2,31,100,32
2,34,100,26
2,34,100,136
2,31,100,26
2,34,100,26
2,32,100,26
2,32,100,124
2,32,100,136
2,32,100,42
2,32,100,48
2,31,100,34
2,31,100,124
2,31,100,132
2,31,100,42
2,31,100,48
2,36,100,34
2,31,100,116
2,36,100,40
2,31,100,32
2,34,100,26
2,34,100,136
2,31,100,26
2,34,100,26
2,32,100,26
2,32,100,124
2,32,100,136
2,32,100,42
2,32,100,48
2,31,100,34
2,31,100,124
2,31,100,132
2,31,100,42
2,31,100,48
2,36,100,34
2,31,100,116
2,36,100,40
2,31,100,32
2,34,100,26
2,34,100,136
2,31,100,26
2,34,100,26
2,32,100,26
2,32,100,124
2,32,100,136
2,32,100,42
2,32,100,48
2,31,100,34
2,31,100,124
2,31,100,132
2,31,100,42
2,31,100,48
2,36,100,34
2,31,100,116
2,36,100,40
2,31,100,32
2,34,100,26
2,34,100,136
2,31,100,26
2,34,100,26
2,32,100,26
2,32,100,124
2,32,100,136
2,32,100,42
2,32,100,48
2,31,100,34
2,31,100,124
2,31,100,132
2,31,100,42
2,31,100,48
2,36,100,34
2,31,100,116
2,36,100,40
2,31,100,32
2,34,100,26
2,34,100,136
2,31,100,26
2,34,100,26
2,32,100,26
2,32,100,124
2,32,100,136
2,32,100,42
2,32,100,48
2,31,100,34
2,31,100,124
2,31,100,132
2,31,100,42
2,31,100,48
2,36,100,34
2,31,100,116
2,36,100,40
2,31,100,32
2,34,100,26
2,34,100,136
2,31,100,26
2,34,100,26
2,32,100,26
2,32,100,124
2,32,100,136
2,32,100,42
2,32,100,48
2,31,100,34
2,31,100,124
2,31,100,132
2,31,100,42
2,31,100,48
2,36,100,34
2,31,100,116
2,36,100,40
2,31,100,32
2,34,100,26
2,34,100,136
2,31,100,26
2,34,100,26
2,32,100,26
2,32,100,124
2,32,100,136
2,32,100,42
2,32,100,48
2,31,100,34
2,31,100,124
2,31,100,132
2,31,100,42
2,31,100,48
2,36,100,34
2,31,100,116
2,36,100,40
2,31,100,32
2,34,100,26
2,34,100,136
2,31,100,26
2,34,100,26
2,32,100,26
2,32,100,124
2,32,100,136
2,32,100,42
2,32,100,48
2,31,100,34
2,31,100,124
2,31,100,132
2,31,100,42
2,31,100,48
2,29,100,34
2,29,100,40
2,29,100,42
2,29,100,42
2,31,100,1008
2,31,100,398
2,31,100,222
2,32,100,876
2,32,100,40
2,32,100,42
2,32,100,42
2,31,100,1008
2,31,100,398
2,31,100,222
2,29,100,876
2,29,100,40
2,29,100,42
2,29,100,42
2,31,100,1008
2,31,100,398
2,31,100,222
2,32,100,876
2,32,100,40
2,32,100,42
2,32,100,42
2,33,100,1008
2,43,111,378
2,45,93,60
2,43,84,38
2,41,84,48
2,38,84,0
2,33,100,16
2,33,100,34
2,36,100,4
2,26,100,96
2,33,100,116
2,38,100,40
2,33,100,32
2,36,100,26
2,36,100,136
2,33,100,26
2,36,100,26
2,26,100,26
2,33,100,116
2,38,100,40
2,33,100,32
2,36,100,26
2,36,100,136
2,33,100,26
2,36,100,26
2,34,100,26
2,29,100,116
2,34,100,40
2,29,100,32
2,31,100,26
2,31,100,136
2,29,100,26
2,31,100,26
2,33,100,26
2,33,100,22
2,33,100,202
2,33,87,506
2,36,101,16
2,33,90,8
2,36,101,96
2,38,91,34
2,26,100,22
2,33,100,116
2,38,100,40
2,33,100,32
2,36,100,26
2,36,100,136
2,33,100,26
2,36,100,26
2,26,100,26
2,33,100,116
2,38,100,40
2,33,100,32
2,36,100,26
2,36,100,136
2,33,100,26
2,36,100,26
2,34,100,26
2,29,100,116
2,34,100,40
2,29,100,32
2,31,100,26
2,31,100,136
2,29,100,26
2,31,100,26
2,33,100,26
2,33,100,22
2,33,100,202
2,33,90,124
2,43,99,92
2,44,99,46
2,43,90,52
2,41,84,48
2,38,87,4
2,36,99,94
2,33,90,82
2,36,99,0
2,38,99,10
2,26,100,24
2,36,100,5764
2,31,100,116
2,36,100,40
2,31,100,32
2,34,100,26
2,34,100,136
2,31,100,26
2,34,100,26
2,32,100,26
2,32,100,124
2,32,100,136
2,32,100,42
2,32,100,48
2,31,100,34
2,31,100,124
2,31,100,132
2,31,100,42
2,31,100,48
2,36,100,34
2,31,100,116
2,36,100,40
2,31,100,32
2,34,100,26
2,34,100,136
2,31,100,26
2,34,100,26
2,32,100,26
2,32,100,124
2,32,100,136
2,32,100,42
2,32,100,48
2,31,100,34
2,31,100,124
2,31,100,132
2,31,100,42
2,31,100,48
2,36,100,34
2,31,100,116
2,36,100,40
2,31,100,32
2,34,100,26
2,34,100,136
2,31,100,26
2,34,100,26
2,32,100,26
2,32,100,124
2,32,100,136
2,32,100,42
2,32,100,48
2,31,100,34
2,31,100,124
2,31,100,132
2,31,100,42
2,31,100,48
2,36,100,34
2,31,100,116
2,36,100,40
2,31,100,32
2,34,100,26
2,34,100,136
2,31,100,26
2,34,100,26
2,32,100,26
2,32,100,124
2,32,100,136
2,32,100,42
2,32,100,48
2,31,100,34
2,31,100,124
2,31,100,132
2,31,100,42
2,31,100,48
2,29,100,34
2,29,100,40
2,29,100,42
2,29,100,42
2,31,100,1008
2,31,100,398
2,31,100,222
2,32,100,876
2,32,100,40
2,32,100,42
2,32,100,42
2,31,100,1008
2,31,100,398
2,31,100,222
2,29,100,876
2,29,100,40
2,29,100,42
2,29,100,42
2,31,100,1008
2,31,100,398
2,31,100,222
2,32,100,876
2,32,100,40
2,32,100,42
2,32,100,42
2,33,100,1008
2,43,111,378
2,45,93,60
2,43,84,38
2,41,84,48
2,38,84,0
2,33,100,16
2,33,100,34
2,36,100,4
2,26,100,96
2,33,100,116
2,38,100,40
2,33,100,32
2,36,100,26
2,36,100,136
2,33,100,26
2,36,100,26
2,26,100,26
2,33,100,116
2,38,100,40
2,33,100,32
2,36,100,26
2,36,100,136
2,33,100,26
2,36,100,26
2,34,100,26
2,29,100,116
2,34,100,40
2,29,100,32
2,31,100,26
2,31,100,136
