track,note,velocity,time
1,69,100,3840
1,62,98,0
1,88,118,0
1,89,107,116
1,61,92,24
1,62,111,0
1,74,96,128
1,86,111,0
1,62,101,0
1,62,86,804
1,88,104,0
1,69,101,0
1,89,112,104
1,62,97,64
1,74,100,106
1,62,88,0
1,86,114,0
1,93,109,832
1,69,105,0
1,62,93,0
1,89,116,0
1,69,101,68
1,91,109,0
1,88,111,0
1,93,94,10
1,69,96,0
1,89,102,0
1,91,107,768
1,69,94,0
1,88,111,0
1,69,104,0
1,91,109,0
1,88,111,0
1,89,111,138
1,69,102,0
1,86,112,0
1,88,121,158
1,69,109,0
1,89,102,394
1,89,109,190
1,88,107,152
1,88,114,144
1,89,105,804
1,89,107,186
1,88,107,170
1,88,107,196
1,89,102,840
1,89,107,144
1,88,104,138
1,89,100,158
1,91,98,48
1,89,90,58
1,88,104,40
1,89,101,430
1,89,101,160
1,88,98,186
1,88,111,144
1,89,96,746
1,89,96,200
1,88,97,174
1,88,101,158
1,89,96,766
1,89,98,170
1,88,93,148
1,89,101,136
1,91,96,40
1,89,84,64
1,88,88,74
1,93,105,590
1,89,102,0
1,93,109,142
1,89,105,0
1,91,107,110
1,88,107,0
1,91,107,106
1,88,112,0
1,93,111,744
1,89,107,0
1,93,111,110
1,89,109,0
1,91,100,126
1,88,105,0
1,91,116,148
1,88,104,0
1,93,104,762
1,89,104,0
1,93,109,138
1,89,107,0
1,91,104,62
1,88,105,0
1,89,104,116
1,86,101,0
1,91,109,64
1,88,109,0
1,89,109,62
1,86,111,0
1,91,104,24
1,88,105,0
1,93,100,420
1,89,102,0
1,93,96,160
1,89,109,0
1,91,105,116
1,88,114,0
1,91,105,142
1,88,121,0
1,93,102,686
1,89,101,0
1,93,102,142
1,89,105,0
1,91,107,48
1,88,105,0
1,91,104,96
1,88,112,0
1,93,101,666
1,89,102,0
1,93,107,106
1,89,107,0
1,91,101,46
1,88,105,0
1,93,102,52
1,89,107,0
1,94,93,48
1,91,97,0
1,93,100,56
1,89,92,0
1,91,96,56
1,88,96,0
1,89,97,96
1,86,94,0
1,91,98,8
1,88,90,0
1,89,98,42
1,86,89,0
1,88,98,20
1,85,103,0
1,62,105,10
1,86,105,0
1,69,105,0
1,74,105,48
1,62,105,0
1,74,105,72
1,86,105,36
1,74,105,48
1,86,105,58
1,74,105,62
1,62,105,56
1,74,105,78
1,86,105,36
1,74,105,62
1,86,105,68
1,74,105,62
1,62,105,72
1,74,105,84
1,86,105,32
1,74,105,64
1,86,105,62
1,74,105,58
1,62,105,74
1,74,105,56
1,86,105,42
1,74,105,74
1,86,105,52
1,74,105,72
1,62,105,46
1,74,105,72
1,86,105,20
1,74,105,72
1,86,105,42
1,74,105,74
1,62,105,16
1,74,105,72
1,86,105,10
1,74,105,68
1,62,105,58
1,74,105,0
1,86,105,0
1,62,105,32
1,86,105,0
1,74,105,0
1,85,105,26
1,62,105,104
1,86,105,0
1,74,105,0
1,62,105,200
1,74,105,0
1,86,105,0
1,64,90,378
1,55,90,0
1,72,90,0
1,67,90,32
1,76,90,0
1,74,90,0
1,55,90,12
1,79,90,36
1,74,90,0
1,64,90,0
1,74,90,0
1,67,90,0
1,55,90,0
1,64,101,244
1,65,102,4
1,64,102,4
1,62,102,4
1,60,103,4
1,72,106,100
1,67,106,94
1,72,106,46
1,76,106,0
1,55,106,0
1,74,106,0
1,67,108,106
1,72,120,106
1,76,120,0
1,74,91,0
1,67,72,104
1,72,120,84
1,76,120,0
1,74,109,0
1,67,66,112
1,72,120,84
1,76,120,0
1,74,107,0
1,67,70,16
1,72,120,80
1,76,120,0
1,74,114,0
1,69,120,94
1,79,120,0
1,67,68,0
1,71,120,96
1,74,120,0
1,62,102,0
1,69,73,0
1,55,100,54
1,62,109,6
1,72,120,4
1,76,120,0
1,74,114,0
1,67,69,94
1,72,120,104
1,76,120,0
1,74,105,0
1,67,72,106
1,72,120,84
1,76,120,0
1,74,111,0
1,67,74,116
1,72,120,78
1,76,120,0
1,74,114,0
1,67,74,8
1,72,120,72
1,76,120,0
1,74,107,0
1,69,120,88
1,79,120,0
1,67,66,0
1,71,120,90
1,74,120,0
1,62,101,0
1,69,69,0
1,72,120,64
1,76,120,0
1,74,116,0
1,67,120,94
1,74,120,0
1,55,94,0
1,67,73,0
1,72,120,64
1,72,120,0
1,60,104,0
1,67,69,0
1,55,91,82
1,62,105,6
1,72,120,8
1,76,120,0
1,74,109,0
1,67,69,88
1,72,120,90
1,76,120,0
1,74,101,0
1,67,69,106
1,72,120,78
1,76,120,0
1,74,104,0
1,67,71,120
1,72,120,88
1,76,120,0
1,74,105,0
1,67,69,4
1,72,120,74
1,76,120,0
1,74,112,0
1,69,120,78
1,79,120,0
1,67,61,0
1,71,120,74
1,74,120,0
1,62,102,0
1,69,69,0
1,55,101,28
1,62,105,14
1,72,120,16
1,76,120,0
1,74,114,0
1,67,71,80
1,72,120,80
1,76,120,0
1,74,105,0
1,67,76,100
1,72,120,78
1,76,120,0
1,74,109,0
1,67,69,106
1,72,120,64
1,76,120,0
1,74,107,0
1,67,69,0
1,72,120,58
1,76,120,0
1,74,111,0
1,69,120,80
1,79,120,0
1,67,68,0
1,71,120,80
1,74,120,0
1,62,100,0
1,69,65,0
1,72,120,72
1,76,120,0
1,74,114,0
1,67,120,84
1,74,120,0
1,55,98,0
1,67,72,0
1,72,120,94
1,72,120,0
1,60,105,0
1,67,69,0
1,72,80,106
1,60,45,126
1,72,80,136
1,60,45,68
1,72,80,78
1,60,45,90
1,72,80,84
1,60,45,104
1,72,80,72
1,60,45,100
1,72,80,68
1,60,45,100
1,72,80,84
1,60,45,100
1,72,80,72
1,60,45,94
1,72,80,68
1,60,45,94
1,72,80,56
1,60,45,74
1,72,80,42
1,60,45,78
1,72,80,48
1,60,45,68
1,72,80,46
1,60,45,88
1,72,80,46
1,60,45,78
1,72,80,48
1,60,45,78
1,72,80,46
1,60,45,80
1,72,80,56
1,60,45,74
1,72,80,48
1,60,45,80
1,72,80,48
1,60,45,84
1,72,80,46
1,60,45,72
1,72,80,46
1,60,45,78
1,72,80,40
1,60,45,62
1,72,80,32
1,55,45,48
1,62,45,0
1,72,102,52
1,76,102,0
1,74,89,0
1,67,79,72
1,72,102,88
1,76,102,0
1,74,89,0
1,67,94,84
1,72,102,88
1,76,102,0
1,74,100,0
1,67,93,80
1,76,102,84
1,72,102,0
1,74,88,0
1,67,86,0
1,76,102,74
1,72,102,0
1,74,81,0
1,79,102,40
1,69,102,0
1,67,85,0
1,74,102,74
1,71,102,0
1,62,97,0
1,69,107,0
1,62,98,58
1,55,98,0
1,76,102,10
1,72,102,0
1,74,94,0
1,67,88,80
1,72,102,88
1,76,102,0
1,74,91,0
1,67,91,74
1,76,102,78
1,72,102,0
1,74,91,0
1,67,86,74
1,76,102,90
1,72,102,0
1,74,83,0
1,67,84,8
1,76,102,74
1,72,102,0
1,74,82,0
1,79,102,46
1,69,102,0
1,67,79,0
1,74,102,74
1,71,102,0
1,69,105,0
1,62,94,0
1,76,102,64
1,72,102,0
1,74,88,0
1,67,102,64
1,74,102,0
1,67,89,0
1,55,82,0
1,72,102,46
1,72,102,0
1,67,107,0
1,60,107,0
1,72,102,84
1,76,102,0
1,74,89,0
1,62,91,50
1,55,85,0
1,67,76,16
1,72,102,104
1,76,102,0
1,74,85,0
1,67,79,88
1,72,102,90
1,76,102,0
1,74,91,0
1,67,82,10
1,72,102,94
1,76,102,0
1,74,87,0
1,67,79,80
1,76,102,90
1,72,102,0
1,74,74,0
1,79,102,68
1,69,102,0
1,67,76,0
1,74,102,80
1,71,102,0
1,62,87,0
1,69,97,0
1,76,102,74
1,72,102,0
1,74,85,0
1,55,98,8
1,62,97,0
1,67,74,72
1,72,102,112
1,76,102,0
1,74,87,0
1,67,78,90
1,76,102,94
1,72,102,0
1,74,89,0
1,67,81,16
1,72,102,100
1,76,102,0
1,74,87,0
1,67,81,110
1,72,102,96
1,76,102,0
1,74,79,0
1,69,102,80
1,79,102,0
1,67,84,0
1,71,102,84
1,74,102,0
1,62,76,0
1,69,98,0
1,72,102,64
1,76,102,0
1,74,82,0
1,67,102,68
1,74,102,0
1,55,75,0
1,67,98,0
1,72,102,84
1,72,102,0
1,60,89,0
1,67,107,0
1,67,78,9688
1,69,70,96
1,67,72,80
1,65,67,78
1,64,82,8
1,67,72,10100
1,69,68,96
1,67,71,90
1,65,69,88
1,64,87,8
1,84,104,10088
1,83,94,0
1,72,82,24
1,84,109,52
1,83,94,0
1,72,68,24
1,84,112,56
1,83,94,0
1,72,63,4
1,84,111,48
1,83,94,0
1,72,66,8
1,84,107,58
1,83,94,0
1,72,72,20
1,84,107,40
1,83,94,0
1,72,70,30
1,84,107,32
1,83,94,0
1,72,68,30
1,84,105,46
1,83,94,0
1,72,68,32
1,84,105,32
1,83,94,0
1,72,75,24
1,84,107,30
1,83,94,0
1,72,71,30
1,84,112,56
1,83,94,0
1,72,63,26
1,84,105,52
1,83,94,0
1,72,62,36
1,84,105,46
1,83,94,0
1,72,69,46
1,84,107,64
1,83,94,0
1,72,71,26
1,84,109,36
1,83,94,0
1,72,67,36
1,84,109,20
1,83,94,0
1,72,72,16
1,84,109,46
1,83,94,0
1,72,71,32
1,84,109,48
1,83,94,0
1,72,72,16
1,84,109,58
1,83,94,0
1,72,70,20
1,84,112,46
1,83,94,0
1,72,65,24
1,84,108,46
1,83,94,0
1,72,82,26
1,84,113,24
1,83,94,0
1,72,76,32
1,84,114,42
1,83,94,0
1,64,110,11584
1,65,110,0
1,64,111,96
1,62,110,78
1,60,127,26
1,86,86,766
1,83,98,0
1,74,86,0
1,71,98,0
1,74,69,192
1,62,69,0
1,76,76,0
1,64,76,0
1,74,72,184
1,62,72,0
1,83,83,26
1,79,94,0
1,71,83,0
1,67,94,0
1,74,84,24
1,62,84,0
1,86,96,192
1,83,93,0
1,74,96,0
1,71,93,0
1,74,82,0
1,62,82,0
1,76,71,184
1,64,71,0
1,74,75,170
1,62,75,0
1,83,88,4
1,79,94,0
1,71,88,0
1,67,94,0
1,74,74,36
1,62,74,0
1,86,94,14
1,83,100,0
1,74,94,0
1,71,100,0
1,74,81,14
1,62,81,0
1,83,87,192
1,79,93,0
1,71,87,0
1,67,93,0
1,74,82,26
1,62,82,0
1,86,93,0
1,83,98,0
1,74,93,0
1,71,98,0
1,74,82,26
1,62,82,0
1,76,78,24
1,64,78,0
1,74,85,48
1,62,85,0
1,84,97,58
1,81,88,0
1,72,97,0
1,69,88,0
1,74,80,24
1,62,80,0
1,83,82,14
1,79,85,0
1,71,82,0
1,67,85,0
1,84,84,48
1,76,83,0
1,72,84,0
1,64,83,0
1,83,76,0
1,74,76,0
1,71,76,0
1,62,76,0
1,81,83,24
1,72,78,0
1,69,83,0
1,60,78,0
1,79,112,174
1,71,87,0
1,67,112,0
1,59,87,0
1,62,112,272
1,59,105,0
1,64,88,26
1,60,67,0
1,62,100,4
1,59,82,0
1,60,78,24
1,57,80,0
1,59,112,26
1,55,96,0
1,86,98,260
1,83,80,0
1,81,90,0
1,74,98,0
1,71,80,0
1,69,90,0
1,74,76,170
1,62,76,0
1,83,90,0
1,79,94,0
1,71,90,0
1,67,94,0
1,74,84,36
1,62,84,0
1,86,107,24
1,83,104,0
1,74,107,0
1,71,104,0
1,74,85,24
1,62,85,0
1,76,116,58
1,64,116,0
1,74,102,14
1,62,102,0
1,84,86,72
1,81,92,0
1,72,86,0
1,69,92,0
1,74,82,14
1,62,82,0
1,83,87,26
1,79,84,0
1,71,87,0
1,67,84,0
1,84,97,4
1,76,79,0
1,72,97,0
1,64,79,0
1,83,78,14
1,74,87,0
1,71,78,0
1,62,87,0
1,81,78,36
1,72,82,0
1,69,78,0
1,60,82,0
1,79,98,0
1,71,93,0
1,67,98,0
1,59,93,0
1,71,30,22816
1,67,23,0
1,62,41,384
1,74,29,4
1,71,42,0
1,62,38,384
1,71,30,4
1,67,37,0
1,62,33,384
1,74,44,4
1,71,38,0
1,62,36,384
1,71,35,4
1,67,38,0
1,62,49,384
1,74,35,4
1,71,41,0
1,62,61,384
1,71,30,3844
1,67,23,0
1,62,41,384
1,74,29,4
1,71,42,0
1,62,38,384
1,71,30,4
1,67,37,0
1,62,33,384
1,74,44,4
1,71,38,0
1,62,36,384
1,71,35,4
1,67,38,0
1,62,49,384
1,74,35,4
1,71,41,0
1,62,61,384
1,55,96,10372
1,62,91,0
1,55,78,88
1,62,83,0
1,62,101,84
1,55,93,0
1,62,100,266
1,55,98,0
1,55,87,84
1,62,91,0
1,55,97,94
1,62,100,0
1,55,89,266
1,62,101,0
1,55,84,84
1,62,91,0
1,55,100,74
1,62,100,0
1,62,63,23296
1,55,44,0
1,62,51,96
1,55,44,0
1,55,45,106
1,62,56,0
1,62,53,298
1,55,42,0
1,62,50,96
1,55,25,0
1,55,40,106
1,62,56,0
1,55,31,276
1,62,43,0
1,62,48,84
1,55,35,0
1,55,41,106
1,62,57,0
1,95,33,14506
1,91,28,0
1,86,26,0
1,62,86,768
1,67,73,24
1,64,73,0
1,62,57,116
1,67,64,14
1,64,64,0
1,62,58,116
1,67,50,58
1,64,50,0
1,62,51,106
1,67,54,42
1,64,54,0
1,62,45,116
1,67,65,192
1,64,65,0
1,62,55,120
1,67,61,42
1,64,61,0
1,62,48,116
1,67,52,8
1,64,52,0
1,62,50,94
1,67,41,192
1,64,41,0
1,62,35,96
1,67,45,192
1,64,45,0
1,62,55,90
1,67,56,14
1,64,56,0
1,62,49,74
1,67,55,40
1,64,55,0
1,62,47,100
1,67,57,32
1,64,57,0
1,62,51,84
1,67,58,42
1,64,58,0
1,62,55,100
1,67,54,8
1,64,54,0
1,62,53,90
1,67,53,192
1,64,53,0
1,62,49,106
1,67,49,8
1,64,49,0
1,62,54,84
1,67,43,192
1,64,43,0
1,62,51,94
1,67,49,16
1,64,49,0
1,62,53,68
1,67,51,192
1,64,51,0
1,62,56,74
1,67,60,192
1,64,60,0
1,62,61,80
1,67,55,192
1,64,55,0
1,62,48,84
1,67,47,40
1,64,47,0
1,62,55,84
1,67,41,192
1,64,41,0
1,62,55,100
1,67,54,32
1,64,54,0
1,62,61,106
1,67,56,192
1,64,56,0
1,62,54,84
1,67,51,192
1,64,51,0
1,62,49,90
1,67,52,192
1,64,52,0
1,62,63,80
1,67,58,8
1,64,58,0
1,62,56,106
1,67,59,192
1,64,59,0
1,62,59,84
1,67,53,8
1,64,53,0
1,62,52,48
1,67,49,14
1,64,49,0
1,62,58,84
1,67,54,24
1,64,54,0
1,62,67,64
1,67,50,8
1,64,50,0
1,62,55,48
1,67,47,40
1,64,47,0
1,62,47,64
1,67,34,192
1,64,34,0
1,62,51,90
1,67,51,8
1,64,51,0
1,62,61,74
1,67,56,192
1,64,56,0
1,62,56,64
1,67,54,8
1,64,54,0
1,62,54,84
1,67,53,14
1,64,53,0
1,62,55,52
1,67,49,32
1,64,49,0
1,62,55,56
1,67,58,192
1,64,58,0
1,62,52,74
1,67,46,32
1,64,46,0
1,62,53,74
1,67,51,24
1,64,51,0
1,62,48,90
1,67,65,192
1,64,65,0
1,69,45,126
1,65,36,0
1,55,48,32
1,69,46,24
1,65,51,0
1,55,43,0
1,67,55,32
1,64,34,0
1,55,37,0
1,67,47,56
1,64,50,0
1,55,44,192
1,69,53,56
1,65,43,0
1,55,48,192
1,69,45,56
1,65,39,0
1,55,48,192
1,67,59,48
1,64,27,0
1,55,43,192
1,67,55,62
1,64,50,0
1,55,41,192
1,69,52,48
1,65,37,0
1,55,39,192
1,69,55,56
1,65,35,0
1,55,40,192
1,67,53,56
1,64,35,0
1,55,46,192
1,67,53,68
1,64,49,0
1,55,45,0
1,69,54,62
1,65,45,0
1,55,48,0
1,69,46,62
1,65,37,0
1,55,49,40
1,74,54,78
1,67,41,0
1,55,46,8
1,62,48,32
1,86,49,192
1,69,45,62
1,65,54,0
1,55,48,32
1,69,46,24
