track,note,velocity,time
1,62,96,6814
1,62,0,60
1,62,93,43
1,62,0,174
1,65,88,19
1,65,0,71
1,70,86,14
1,70,0,174
1,65,84,14
1,65,0,56
1,65,82,43
1,65,0,164
1,67,85,24
1,67,0,66
1,65,90,10
1,65,0,56
1,63,68,15
1,63,0,426
1,63,109,71
1,63,0,42
1,65,99,10
1,65,0,61
1,65,105,24
1,65,0,141
1,72,87,24
1,72,0,276
1,69,95,19
1,69,0,74
1,67,94,20
1,67,0,51
1,65,98,10
1,65,0,52
1,65,87,38
1,65,0,612
1,62,114,93
1,62,0,66
1,62,102,43
1,62,0,158
1,65,97,29
1,65,0,52
1,65,93,47
1,65,0,252
1,65,98,33
1,65,0,80
1,67,105,19
1,67,0,262
1,69,118,14
1,69,0,75
1,70,103,29
1,70,0,298
1,62,127,71
1,62,0,1
1,62,115,56
1,62,0,60
1,60,127,15
1,60,0,253
1,67,114,19
1,67,0,201
1,69,105,10
1,69,0,61
1,67,105,15
1,67,0,61
1,65,111,43
1,65,0,659
1,65,127,85
1,65,0,70
1,75,119,47
1,75,0,151
1,75,88,33
1,75,0,66
1,75,104,37
1,75,0,174
1,74,104,10
1,74,0,66
1,74,106,37
1,74,0,239
1,72,96,33
1,72,0,295
1,65,123,291
1,65,0,61
1,74,114,52
1,74,0,145
1,74,111,38
1,74,0,76
1,72,102,19
1,72,0,196
1,74,103,15
1,74,0,169
1,70,104,19
1,70,0,412
1,65,120,342
1,65,0,80
1,67,116,33
1,67,0,132
1,67,118,38
1,67,0,75
1,69,120,29
1,69,0,188
1,70,103,15
1,70,0,75
1,65,109,10
1,65,0,287
1,70,109,14
1,70,0,446
1,65,126,118
1,65,0,85
1,70,127,19
1,70,0,207
1,74,127,47
1,74,0,104
1,72,119,33
1,72,0,90
1,70,111,10
1,70,0,98
1,72,126,38
1,72,0,512
1,65,127,1056
1,65,0,89
1,74,127,24
1,74,0,47
1,74,127,38
1,74,0,141
1,74,127,57
1,74,0,118
1,70,127,47
1,70,0,132
1,63,127,47
1,63,0,586
1,70,127,174
1,70,0,80
1,72,127,23
1,72,0,104
1,72,127,57
1,72,0,51
1,72,127,57
1,72,0,150
1,69,127,29
1,69,0,89
1,65,109,10
1,65,0,66
1,65,127,33
1,65,0,516
1,67,127,286
1,67,0,46
1,69,123,6
1,69,0,47
1,70,119,15
1,70,0,121
1,70,121,57
1,70,0,38
1,70,124,56
1,70,0,169
1,62,127,19
1,62,0,136
1,60,125,38
1,60,0,327
1,67,127,52
1,67,0,169
1,69,115,14
1,69,0,79
1,67,126,20
1,67,0,56
1,65,120,24
1,65,0,79
1,65,119,38
1,65,0,589
1,70,127,812
1,70,0,1
1,70,106,75
1,70,0,51
1,72,107,10
1,72,0,80
1,74,115,28
1,74,0,117
1,74,105,38
1,74,0,80
1,74,103,38
1,74,0,93
1,70,124,28
1,70,0,132
1,63,126,43
1,63,0,477
1,69,127,299
1,69,0,47
1,70,119,5
1,70,0,47
1,72,127,10
1,72,0,141
1,72,126,42
1,72,0,47
1,72,125,48
1,72,0,154
1,69,120,10
1,69,0,80
1,69,122,56
1,69,0,47
1,67,113,29
1,67,0,57
1,65,109,23
1,65,0,478
1,62,127,192
1,62,0,1
1,62,114,56
1,62,0,52
1,63,124,24
1,63,0,98
1,70,108,24
1,70,0,290
1,70,127,57
1,70,0,71
1,72,112,19
1,72,0,75
1,74,123,28
1,74,0,202
1,72,116,5
1,72,0,75
1,70,126,19
1,70,0,581
1,62,96,2964
1,62,0,60
1,62,93,43
1,62,0,174
1,65,88,19
1,65,0,71
1,70,86,14
1,70,0,174
1,65,84,14
1,65,0,56
1,65,82,43
1,65,0,164
1,67,85,24
1,67,0,66
1,65,90,10
1,65,0,56
1,63,68,15
1,63,0,426
1,63,109,71
1,63,0,42
1,65,99,44
1,65,0,45
1,65,105,11
1,65,0,109
1,72,87,51
1,72,0,276
1,69,95,19
1,69,0,74
1,67,94,20
1,67,0,51
1,65,98,10
1,65,0,52
1,65,87,38
1,65,0,612
1,62,114,93
1,62,0,66
1,62,102,43
1,62,0,158
1,65,97,29
1,65,0,52
1,65,93,47
1,65,0,252
1,65,98,33
1,65,0,80
1,67,105,19
1,67,0,262
1,69,118,14
1,69,0,75
1,70,103,29
1,70,0,298
1,62,127,71
1,62,0,1
1,62,115,56
1,62,0,60
1,60,127,15
1,60,0,253
1,67,114,19
1,67,0,201
1,69,105,10
1,69,0,61
1,67,105,15
1,67,0,61
1,65,111,43
1,65,0,659
1,65,127,85
1,65,0,70
1,75,119,47
1,75,0,151
1,75,88,33
1,75,0,66
1,75,104,37
1,75,0,174
1,74,104,10
1,74,0,66
1,74,106,37
1,74,0,239
1,72,96,33
1,72,0,295
1,65,123,291
1,65,0,61
1,74,114,52
1,74,0,145
1,74,111,38
1,74,0,76
1,72,102,19
1,72,0,196
1,74,103,15
1,74,0,169
1,70,104,19
1,70,0,412
1,65,120,342
1,65,0,80
1,67,116,33
1,67,0,132
1,67,118,38
1,67,0,75
1,69,120,29
1,69,0,188
1,70,103,15
1,70,0,75
1,65,109,10
1,65,0,287
1,70,109,14
1,70,0,446
1,65,126,118
1,65,0,85
1,70,127,19
1,70,0,207
1,74,127,47
1,74,0,104
1,72,119,33
1,72,0,90
1,70,111,10
1,70,0,98
1,72,126,38
1,72,0,512
1,65,127,1056
1,65,0,89
1,74,127,24
1,74,0,47
1,74,127,38
1,74,0,141
1,74,127,57
1,74,0,118
1,70,127,47
1,70,0,132
1,63,127,47
1,63,0,586
1,70,127,174
1,70,0,80
1,72,127,23
1,72,0,104
1,72,127,57
1,72,0,51
1,72,127,57
1,72,0,150
1,69,127,29
1,69,0,89
1,65,109,10
1,65,0,66
1,65,127,33
1,65,0,516
1,67,127,286
1,67,0,46
1,69,123,6
1,69,0,47
1,70,119,15
1,70,0,121
1,70,121,57
1,70,0,38
1,70,124,56
1,70,0,169
1,62,127,19
1,62,0,136
1,60,125,38
1,60,0,327
1,67,127,52
1,67,0,169
1,69,115,14
1,69,0,79
1,67,126,20
1,67,0,56
1,65,120,24
1,65,0,79
1,65,119,38
1,65,0,589
1,70,127,812
1,70,0,1
1,70,106,75
1,70,0,51
1,72,107,10
1,72,0,80
1,74,115,28
1,74,0,117
1,74,105,38
1,74,0,80
1,74,103,38
1,74,0,93
1,70,124,28
1,70,0,132
1,63,126,43
1,63,0,477
1,69,127,299
1,69,0,47
1,70,119,5
1,70,0,47
1,72,127,10
1,72,0,141
1,72,126,42
1,72,0,47
1,72,125,48
1,72,0,154
1,69,120,10
1,69,0,80
1,69,122,56
1,69,0,47
1,67,113,29
1,67,0,57
1,65,109,23
1,65,0,478
1,62,127,192
1,62,0,1
1,62,114,56
1,62,0,52
1,63,124,24
1,63,0,98
1,70,108,24
1,70,0,290
1,70,127,57
1,70,0,71
1,72,112,19
1,72,0,75
1,74,123,28
1,74,0,202
1,72,116,5
1,72,0,75
1,70,126,19
1,70,0,581
1,70,127,1420
1,70,0,85
1,72,125,10
1,72,0,136
1,72,127,52
1,72,0,37
1,72,127,57
1,72,0,338
1,70,119,19
1,70,0,80
1,74,107,28
1,74,0,221
1,72,115,9
1,72,0,216
1,70,127,324
1,70,0,80
1,74,112,14
1,74,0,132
1,72,97,9
1,72,0,66
1,72,127,47
1,72,0,249
1,70,127,19
1,70,0,57
1,70,127,34
1,70,0,482
1,70,126,276
1,70,0,43
1,70,127,61
1,70,0,122
1,70,113,57
1,70,0,28
1,70,127,66
1,70,0,220
1,70,126,56
1,70,0,76
1,69,110,5
1,69,0,20
1,67,111,10
1,67,0,61
1,65,108,19
1,65,0,285
1,67,127,206
1,67,0,89
1,67,127,37
1,67,0,34
1,65,116,10
1,65,0,47
1,65,127,47
1,65,0,89
1,65,127,1574
1,65,0,98
1,74,116,10
1,74,0,141
1,74,108,38
1,74,0,56
1,74,118,43
1,74,0,140
1,70,117,29
1,70,0,146
1,63,124,28
1,63,0,576
1,70,127,207
1,70,0,89
1,72,127,24
1,72,0,122
1,72,126,62
1,72,0,33
1,72,127,70
1,72,0,165
1,69,127,14
1,69,0,79
1,65,120,15
1,65,0,43
1,65,127,52
1,65,0,473
1,67,127,300
1,67,0,46
1,69,127,6
1,69,0,42
1,70,127,24
1,70,0,107
1,70,127,66
1,70,0,33
1,70,127,75
1,70,0,187
1,62,127,20
1,62,0,126
1,60,122,33
1,60,0,238
1,67,126,52
1,67,0,140
1,69,116,5
1,69,0,150
1,67,127,5
1,67,0,75
1,65,119,15
1,65,0,42
1,65,127,47
1,65,0,841
1,70,127,523
1,70,0,71
1,70,121,28
1,70,0,71
1,72,116,9
1,72,0,90
1,74,122,19
1,74,0,150
1,74,112,38
1,74,0,37
1,74,125,66
1,74,0,159
1,70,124,38
1,70,0,136
1,63,126,38
1,63,0,538
1,69,127,230
1,70,124,51
1,69,0,10
1,70,0,38
1,72,127,10
1,72,0,122
1,72,127,57
1,72,0,33
1,72,127,70
1,72,0,155
1,69,114,10
1,69,0,51
1,69,127,57
1,69,0,61
1,69,116,24
1,69,0,47
1,69,127,48
1,67,120,47
1,69,0,0
1,65,98,42
1,67,0,1
1,65,0,365
1,62,127,230
1,62,0,37
1,62,115,24
1,62,0,61
1,63,127,20
1,63,0,107
1,70,103,24
1,70,0,258
1,70,127,52
1,70,0,61
1,70,126,33
1,70,0,61
1,72,127,24
1,72,0,71
1,74,127,28
1,74,0,273
1,75,124,10
1,75,0,99
1,74,127,10
1,74,0,287
1,70,127,5
1,70,0,950
2,46,61,2304
2,46,0,735
2,44,64,33
2,44,0,726
2,43,81,42
2,43,0,762
2,42,74,6
2,42,0,748
2,34,74,20
2,34,0,686
2,34,49,82
2,34,0,639
2,34,94,129
2,34,0,721
2,39,89,47
2,39,0,725
2,34,83,43
2,34,0,688
2,34,85,80
2,34,0,711
2,38,100,57
2,38,0,720
2,43,92,48
2,43,0,726
2,36,96,42
2,36,0,715
2,41,98,53
2,41,0,714
2,36,95,54
2,36,0,719
2,41,86,49
2,41,0,700
2,46,85,68
2,46,0,376
2,45,83,8
2,45,0,353
2,43,86,31
2,43,0,362
2,41,81,22
2,41,0,362
2,39,91,22
2,39,0,742
2,34,89,26
2,34,0,700
2,36,92,68
2,36,0,362
2,38,92,22
2,38,0,348
2,41,102,36
2,41,0,689
2,41,96,79
2,41,0,362
2,48,104,22
2,48,0,174
2,41,92,18
2,41,0,169
2,46,96,23
2,46,0,221
2,46,89,67
2,46,0,85
2,46,78,11
2,46,0,339
2,39,89,45
2,39,0,212
2,39,99,76
2,39,0,75
2,39,91,21
2,39,0,160
2,34,96,32
2,34,0,170
2,41,79,22
2,41,0,208
2,41,104,80
2,41,0,76
2,41,92,20
2,41,0,357
2,38,82,27
2,38,0,216
2,38,100,72
2,38,0,71
2,38,88,25
2,38,0,146
2,38,93,46
2,38,0,142
2,43,89,50
2,43,0,226
2,43,93,62
2,43,0,75
2,43,86,21
2,43,0,335
2,36,95,49
2,36,0,272
2,38,93,16
2,38,0,270
2,40,86,18
2,40,0,171
2,41,85,21
2,41,0,344
2,39,99,40
2,39,0,348
2,38,95,36
2,38,0,359
2,36,98,25
2,36,0,325
2,46,83,59
2,46,0,231
2,46,89,57
2,46,0,76
2,46,74,20
2,46,0,330
2,39,96,54
2,39,0,263
2,34,91,25
2,34,0,76
2,39,76,20
2,39,0,151
2,39,73,41
2,39,0,155
2,41,98,37
2,41,0,211
2,41,100,77
2,41,0,76
2,41,92,20
2,41,0,349
2,38,95,35
2,38,0,217
2,38,100,71
2,38,0,70
2,38,76,26
2,38,0,155
2,38,100,37
2,38,0,146
2,36,95,46
2,36,0,208
2,36,98,80
2,36,0,75
2,36,84,21
2,36,0,348
2,39,96,36
2,39,0,254
2,34,91,34
2,34,0,80
2,39,79,16
2,39,0,325
2,46,96,59
2,46,0,705
2,34,96,63
2,34,0,704
2,34,102,64
2,34,0,705
2,34,99,63
2,34,0,704
2,34,94,64
2,34,0,721
2,39,89,47
2,39,0,725
2,34,83,43
2,34,0,688
2,34,85,80
2,34,0,711
2,38,100,57
2,38,0,720
2,43,92,48
2,43,0,726
2,36,96,42
2,36,0,715
2,41,98,53
2,41,0,714
2,36,95,54
2,36,0,719
2,41,86,49
2,41,0,700
2,46,85,68
2,46,0,376
2,45,83,8
2,45,0,353
2,43,86,31
2,43,0,362
2,41,81,22
2,41,0,362
2,39,91,22
2,39,0,742
2,34,89,26
2,34,0,700
2,36,92,68
2,36,0,362
2,38,92,22
2,38,0,348
2,41,102,36
2,41,0,689
2,41,96,79
2,41,0,362
2,48,104,22
2,48,0,174
2,41,92,18
2,41,0,169
2,46,96,23
2,46,0,221
2,46,89,67
2,46,0,85
2,46,78,11
2,46,0,339
2,39,89,45
2,39,0,212
2,39,99,76
2,39,0,75
2,39,91,21
2,39,0,160
2,34,96,32
2,34,0,170
2,41,79,22
2,41,0,208
2,41,104,80
2,41,0,76
2,41,92,20
2,41,0,357
2,38,82,27
2,38,0,216
2,38,100,72
2,38,0,71
2,38,88,25
2,38,0,146
2,38,93,46
2,38,0,142
2,43,89,50
2,43,0,226
2,43,93,62
2,43,0,75
2,43,86,21
2,43,0,335
2,36,95,49
2,36,0,272
2,38,93,16
2,38,0,270
2,40,86,18
2,40,0,171
2,41,85,21
2,41,0,344
2,39,99,40
2,39,0,348
2,38,95,36
2,38,0,359
2,36,98,25
2,36,0,325
2,46,83,59
2,46,0,231
2,46,89,57
2,46,0,76
2,46,74,20
2,46,0,330
2,39,96,54
2,39,0,263
2,34,91,25
2,34,0,76
2,39,76,20
2,39,0,151
2,39,73,41
2,39,0,155
2,41,98,37
2,41,0,211
2,41,100,77
2,41,0,76
2,41,92,20
2,41,0,349
2,38,95,35
2,38,0,217
2,38,100,71
2,38,0,70
2,38,76,26
2,38,0,155
2,38,100,37
2,38,0,146
2,36,95,46
2,36,0,208
2,36,98,80
2,36,0,75
2,36,84,21
2,36,0,348
2,39,96,36
2,39,0,254
2,34,91,34
2,34,0,80
2,39,79,16
2,39,0,325
2,34,91,59
2,34,0,333
2,34,96,51
2,34,0,207
2,41,107,81
2,41,0,188
2,39,107,4
2,39,0,182
2,34,110,10
2,34,0,146
2,34,110,46
2,34,0,191
2,41,93,97
2,41,0,348
2,41,96,36
2,41,0,310
2,41,104,74
2,41,0,328
2,41,102,56
2,41,0,325
2,41,111,59
2,41,0,332
2,41,111,52
2,41,0,333
2,46,99,51
2,46,0,65
2,46,83,31
2,46,0,56
2,46,89,40
2,46,0,57
2,46,87,39
2,46,0,57
2,46,74,39
2,46,0,57
2,46,87,39
2,46,0,52
2,46,85,44
2,46,0,61
2,46,89,35
2,46,0,61
2,43,86,35
2,43,0,342
2,43,90,42
2,43,0,346
2,38,96,38
2,38,0,329
2,38,102,55
2,38,0,347
2,39,106,37
2,39,0,703
2,41,117,65
2,41,0,726
2,36,95,42
2,36,0,76
2,38,107,20
2,38,0,109
2,39,110,83
2,39,0,130
2,41,114,62
2,41,0,169
2,46,96,119
2,46,0,221
2,46,89,67
2,46,0,85
2,46,78,11
2,46,0,339
2,39,89,45
2,39,0,212
2,39,99,76
2,39,0,75
2,39,91,21
2,39,0,160
2,34,96,32
2,34,0,170
2,41,79,22
2,41,0,208
2,41,104,80
2,41,0,76
2,41,92,20
2,41,0,357
2,38,82,27
2,38,0,216
2,38,100,72
2,38,0,71
2,38,88,25
2,38,0,146
2,38,93,46
2,38,0,142
2,43,89,50
2,43,0,226
2,43,93,62
2,43,0,75
2,43,86,21
2,43,0,335
2,36,95,49
2,36,0,272
2,38,93,16
2,38,0,270
2,40,86,18
2,40,0,171
2,41,85,21
2,41,0,344
2,39,99,40
2,39,0,348
2,38,95,36
2,38,0,359
2,36,98,25
2,36,0,325
2,46,83,59
2,46,0,231
2,46,89,57
2,46,0,76
2,46,74,20
2,46,0,330
2,39,96,54
2,39,0,263
2,34,91,25
2,34,0,76
2,39,76,20
2,39,0,151
