track,note,velocity,time
1,33,113,1496
1,33,0,95
1,28,98,25
1,28,0,105
1,33,102,15
1,33,0,110
1,28,102,10
1,28,0,60
1,33,60,0
1,33,0,50
1,35,98,10
1,35,0,105
1,30,107,15
1,30,0,100
1,35,107,20
1,35,0,105
1,30,102,10
1,30,0,110
1,40,113,15
1,40,0,100
1,35,102,20
1,35,0,105
1,28,102,15
1,28,0,105
1,40,107,15
1,40,0,75
1,28,93,45
1,28,0,110
1,35,102,10
1,35,0,105
1,40,102,15
1,40,0,105
1,35,102,15
1,35,0,100
1,33,102,20
1,33,0,105
1,28,102,15
1,28,0,100
1,33,107,20
1,33,0,110
1,28,102,10
1,28,0,105
1,35,113,15
1,35,0,105
1,30,102,15
1,30,0,105
1,35,107,15
1,35,0,115
1,30,107,5
1,30,0,100
1,40,107,20
1,40,0,105
1,35,98,15
1,35,0,105
1,40,107,15
1,40,0,105
1,35,102,15
1,35,0,95
1,40,102,25
1,40,0,110
1,35,93,10
1,35,0,95
1,40,98,25
1,40,0,105
1,35,102,15
1,35,0,65
1,28,93,55
1,28,0,110
1,35,102,10
1,35,0,105
1,40,102,15
1,40,0,105
1,35,102,15
1,35,0,100
1,33,102,20
1,33,0,105
1,28,102,15
1,28,0,100
1,33,107,20
1,33,0,105
1,28,102,15
1,28,0,105
1,35,113,15
1,35,0,105
1,30,102,15
1,30,0,105
1,35,107,15
1,35,0,115
1,30,107,5
1,30,0,100
1,40,107,20
1,40,0,105
1,35,98,15
1,35,0,105
1,40,107,15
1,40,0,105
1,35,102,15
1,35,0,100
1,40,102,20
1,40,0,110
1,35,93,9
1,35,0,96
1,40,98,25
1,40,0,110
1,35,102,10
1,35,0,70
1,28,93,50
1,28,0,110
1,35,102,10
1,35,0,105
1,40,102,13
1,40,0,107
1,35,102,15
1,35,0,100
1,33,102,20
1,33,0,100
1,28,102,20
1,28,0,100
1,33,107,20
1,33,0,110
1,28,102,10
1,28,0,105
1,35,113,15
1,35,0,110
1,30,102,10
1,30,0,105
1,35,107,15
1,35,0,115
1,30,107,5
1,30,0,100
1,40,107,20
1,40,0,105
1,35,98,15
1,35,0,105
1,40,107,15
1,40,0,105
1,35,102,10
1,35,0,105
1,40,102,20
1,40,0,110
1,35,93,10
1,35,0,95
1,40,98,25
1,40,0,110
1,35,102,10
1,35,0,70
1,28,93,50
1,28,0,110
1,35,102,10
1,35,0,105
1,40,102,14
1,40,0,106
1,35,102,15
1,35,0,100
1,114,1,20
1,114,0,0
1,33,102,0
1,33,0,105
1,28,102,15
1,28,0,100
1,33,107,20
1,33,0,110
1,28,102,10
1,28,0,105
1,35,113,15
1,35,0,105
1,30,102,15
1,30,0,105
1,35,107,15
1,35,0,115
1,30,107,5
1,30,0,100
1,40,107,20
1,40,0,105
1,35,98,15
1,35,0,105
1,40,107,15
1,40,0,105
1,35,102,15
1,35,0,100
1,40,102,20
1,40,0,110
1,35,93,10
1,35,0,95
1,40,98,25
1,40,0,105
1,35,102,15
1,35,0,70
1,28,102,50
1,28,0,100
1,35,107,20
1,35,0,100
1,40,102,20
1,40,0,105
1,35,107,15
1,35,0,55
1,40,89,5
1,40,0,50
1,33,102,10
1,33,0,95
1,28,113,25
1,28,0,90
1,33,113,30
1,33,0,115
1,28,102,5
1,28,0,50
1,33,113,10
1,33,0,40
1,35,102,20
1,35,0,105
1,30,107,15
1,30,0,100
1,35,113,20
1,35,0,105
1,30,107,15
1,30,0,110
1,40,102,10
1,40,0,95
1,35,107,25
1,35,0,110
1,40,107,10
1,40,0,95
1,35,107,25
1,35,0,75
1,28,93,45
1,28,0,110
1,35,102,10
1,35,0,105
1,40,102,15
1,40,0,105
1,35,102,15
1,35,0,100
1,33,102,20
1,33,0,105
1,28,102,15
1,28,0,100
1,33,107,20
1,33,0,110
1,28,102,10
1,28,0,105
1,35,113,15
1,35,0,105
1,30,102,15
1,30,0,105
1,35,107,15
1,35,0,115
1,30,107,5
1,30,0,95
1,40,107,25
1,40,0,105
1,35,98,15
1,35,0,105
1,40,107,15
1,40,0,105
1,35,102,15
1,35,0,100
1,40,102,20
1,40,0,110
1,35,93,10
1,35,0,95
1,40,98,25
1,40,0,105
1,35,102,15
1,35,0,70
1,28,93,50
1,28,0,110
1,35,102,10
1,35,0,105
1,40,102,15
1,40,0,105
1,35,102,15
1,35,0,100
1,33,102,20
1,33,0,105
1,28,102,15
1,28,0,100
1,33,107,20
1,33,0,110
1,28,102,10
1,28,0,105
1,35,113,15
1,35,0,105
1,30,102,15
1,30,0,105
1,35,107,15
1,35,0,115
1,30,107,5
1,30,0,100
1,40,107,20
1,40,0,105
1,35,98,15
1,35,0,105
1,40,107,15
1,40,0,105
1,35,102,15
1,35,0,100
1,40,102,20
1,40,0,110
1,35,93,5
1,35,0,100
1,40,98,25
1,40,0,105
1,35,102,15
1,35,0,65
1,28,93,55
1,28,0,110
1,35,102,10
1,35,0,110
1,40,102,10
1,40,0,105
1,35,102,15
1,35,0,100
1,33,102,20
1,33,0,105
1,28,102,15
1,28,0,100
1,33,107,20
1,33,0,105
1,28,102,10
1,28,0,110
1,35,113,15
1,35,0,105
1,30,102,15
1,30,0,105
1,35,107,15
1,35,0,115
1,30,107,5
1,30,0,100
1,40,107,20
1,40,0,105
1,35,98,15
1,35,0,105
1,40,107,15
1,40,0,105
1,35,102,15
1,35,0,100
1,40,102,20
1,40,0,110
1,35,93,10
1,35,0,95
1,40,98,25
1,40,0,110
1,35,102,10
1,35,0,65
1,28,93,55
1,28,0,110
1,35,102,10
1,35,0,105
1,40,102,10
1,40,0,110
1,35,102,15
1,35,0,100
1,33,102,20
1,33,0,105
1,28,102,15
1,28,0,100
1,33,107,18
1,33,0,112
1,28,102,10
1,28,0,105
1,35,113,15
1,35,0,105
1,30,102,15
1,30,0,105
1,35,107,15
1,35,0,115
1,30,107,5
1,30,0,100
1,40,107,20
1,40,0,100
1,35,98,20
1,35,0,105
1,40,107,15
1,40,0,105
1,35,102,15
1,35,0,100
1,40,102,20
1,40,0,110
1,35,93,10
1,35,0,95
1,40,98,25
1,40,0,105
1,35,102,15
1,35,0,65
1,28,93,55
1,28,0,110
1,35,102,10
1,35,0,105
1,40,102,15
1,40,0,100
1,35,102,20
1,35,0,100
1,33,102,19
1,33,0,106
1,28,102,15
1,28,0,100
1,33,107,20
1,33,0,110
1,28,102,10
1,28,0,105
1,35,113,15
1,35,0,105
1,30,102,15
1,30,0,100
1,35,107,20
1,35,0,115
1,30,107,5
1,30,0,100
1,40,107,20
1,40,0,105
1,35,98,15
1,35,0,100
1,40,107,20
1,40,0,105
1,35,102,15
1,35,0,100
1,40,102,20
1,40,0,110
1,35,93,10
1,35,0,95
1,40,98,23
1,40,0,107
1,35,102,15
1,35,0,65
1,28,102,54
1,28,0,101
1,35,107,20
1,35,0,100
1,40,102,20
1,40,0,105
1,35,107,15
1,35,0,50
1,40,89,10
1,40,0,50
1,33,102,10
1,33,0,95
1,28,113,25
1,28,0,90
1,33,113,30
1,33,0,115
1,28,102,5
1,28,0,50
1,33,113,10
1,33,0,40
1,35,102,20
1,35,0,100
1,30,107,20
1,30,0,100
1,35,113,20
1,35,0,105
1,30,107,15
1,30,0,110
1,40,102,10
1,40,0,95
1,35,107,25
1,35,0,110
1,40,107,9
1,40,0,96
1,35,107,25
1,35,0,75
1,28,93,45
1,28,0,110
1,35,102,10
1,35,0,105
1,40,102,15
1,40,0,105
1,35,102,15
1,35,0,100
1,33,102,20
1,33,0,105
1,28,102,15
1,28,0,100
1,33,107,20
1,33,0,110
1,28,102,10
1,28,0,105
1,35,113,15
1,35,0,105
1,30,102,15
1,30,0,105
1,35,107,15
1,35,0,115
1,30,107,5
1,30,0,100
1,40,107,20
1,40,0,105
1,35,98,15
1,35,0,100
1,40,107,20
1,40,0,105
1,35,102,15
1,35,0,100
1,40,102,20
1,40,0,110
1,35,93,10
1,35,0,95
1,40,98,25
1,40,0,110
1,35,102,10
1,35,0,65
1,28,93,55
1,28,0,110
1,35,102,10
1,35,0,105
1,40,102,15
1,40,0,105
1,35,102,15
1,35,0,100
1,33,102,20
1,33,0,105
1,28,102,15
1,28,0,100
1,33,107,20
1,33,0,110
1,28,102,10
1,28,0,105
1,35,113,15
1,35,0,105
1,30,102,15
1,30,0,105
1,35,107,15
1,35,0,115
1,30,107,5
1,30,0,100
1,40,107,20
1,40,0,100
1,35,98,20
1,35,0,105
1,40,107,15
1,40,0,105
1,35,102,15
1,35,0,100
1,40,102,20
1,40,0,115
1,35,93,5
1,35,0,95
1,40,98,25
1,40,0,105
1,35,102,15
1,35,0,65
1,28,93,55
1,28,0,110
1,35,102,10
1,35,0,105
1,40,102,15
1,40,0,105
1,35,102,15
1,35,0,100
1,33,102,20
1,33,0,105
1,28,102,15
1,28,0,100
1,33,107,20
1,33,0,110
1,28,102,10
1,28,0,105
1,35,113,15
1,35,0,105
1,30,102,15
1,30,0,105
1,35,107,15
1,35,0,115
1,30,107,5
1,30,0,100
1,40,107,15
1,40,0,110
1,35,98,15
1,35,0,104
1,40,107,16
1,40,0,105
1,35,102,15
1,35,0,100
1,40,102,20
1,40,0,110
1,35,93,10
1,35,0,95
1,40,98,25
1,40,0,105
1,35,102,15
1,35,0,70
1,40,102,50
1,40,0,115
1,35,93,5
1,35,0,95
1,40,98,24
1,40,0,111
1,35,102,6
1,35,0,69
1,28,93,55
1,28,0,110
1,35,102,10
1,35,0,105
1,40,102,10
1,40,0,110
1,35,102,15
1,35,0,100
1,33,102,20
1,33,0,105
1,28,102,15
1,28,0,100
1,33,107,15
1,33,0,115
1,28,102,10
1,28,0,105
1,35,113,15
1,35,0,105
1,30,102,15
1,30,0,100
1,35,107,20
1,35,0,115
1,30,107,5
1,30,0,100
1,40,102,20
1,40,0,90
1,35,102,30
1,35,0,85
1,28,119,35
1,28,0,45
1,28,113,195
1,28,0,45
1,28,119,195
1,28,0,55
1,40,119,65
1,40,0,180
1,35,119,0
1,35,0,50
1,40,102,10
1,40,0,45
1,35,127,15
1,35,0,25
1,28,113,35
1,28,0,100
1,35,107,20
1,35,0,105
1,40,113,15
1,40,0,100
1,35,102,20
1,35,0,50
1,40,113,10
1,40,0,30
1,33,113,30
1,33,0,95
1,28,98,25
1,28,0,105
1,33,102,15
1,33,0,110
1,28,102,9
1,28,0,61
1,33,60,0
1,33,0,50
1,35,98,10
1,35,0,105
1,30,107,15
1,30,0,100
1,35,107,20
1,35,0,110
1,30,102,10
1,30,0,105
1,40,113,15
1,40,0,100
1,35,102,20
1,35,0,105
1,28,102,15
1,28,0,105
1,40,107,15
1,40,0,560
2,64,93,1556
2,61,85,0
2,57,80,0
2,52,76,5
2,45,89,0
2,61,0,10
2,52,0,5
2,64,0,0
2,57,0,0
2,45,0,5
2,64,85,90
2,61,80,5
2,57,64,0
2,45,89,0
2,52,59,0
2,52,0,15
2,57,0,0
2,61,0,0
2,64,0,5
2,45,0,0
2,64,89,95
2,57,76,0
2,61,72,5
2,52,72,0
2,45,76,0
2,61,0,10
2,52,0,5
2,64,0,0
2,57,0,0
2,45,0,0
2,57,76,105
2,64,89,0
2,61,72,5
2,52,76,0
2,45,93,0
2,61,0,10
2,52,0,5
2,57,0,0
2,64,0,0
2,45,0,5
2,59,85,90
2,63,93,5
2,66,89,0
2,47,85,0
2,63,0,15
2,59,0,0
2,66,0,5
2,47,0,0
2,59,80,95
2,63,89,0
2,66,93,0
2,47,72,5
2,63,0,10
2,59,0,5
2,66,0,0
2,47,0,0
2,66,89,100
2,59,89,0
2,63,93,0
2,47,85,5
2,63,0,10
2,59,0,0
2,66,0,5
2,47,0,5
2,66,93,100
2,59,76,0
2,63,89,0
2,47,80,0
2,63,0,10
2,59,0,5
2,66,0,5
2,47,0,0
2,73,93,80
2,71,98,0
2,76,102,0
2,68,85,0
2,68,0,10
2,73,0,5
2,71,0,0
2,76,0,0
2,71,102,65
2,73,98,0
2,68,89,0
2,76,107,0
2,76,0,15
2,68,0,0
2,73,0,5
2,71,0,0
2,73,93,95
2,71,98,0
2,68,89,0
2,76,102,0
2,76,0,15
2,68,0,0
2,71,0,0
2,73,0,5
2,73,93,75
2,71,93,0
2,68,76,0
2,76,93,0
2,68,0,75
2,73,0,0
2,71,0,0
2,76,0,5
2,73,93,2030
2,71,98,0
2,76,102,0
2,68,85,0
2,68,0,10
2,73,0,5
2,71,0,0
2,76,0,0
2,71,102,65
2,73,98,0
2,68,89,0
2,76,107,0
2,76,0,15
2,68,0,0
2,71,0,0
2,73,0,5
2,73,93,95
2,71,98,0
2,68,89,0
2,76,102,0
2,76,0,15
2,68,0,0
2,71,0,0
2,73,0,5
2,73,93,75
2,71,93,0
2,68,76,0
2,76,93,0
2,76,0,75
2,73,0,0
2,71,0,0
2,68,0,0
2,73,93,2035
2,71,98,0
2,76,102,0
2,68,85,0
2,68,0,10
2,73,0,5
2,71,0,0
2,76,0,0
2,71,102,65
2,73,98,0
2,68,89,0
2,76,107,0
2,76,0,15
2,68,0,0
2,71,0,0
2,73,0,5
2,73,93,95
2,71,98,0
2,68,89,0
2,76,102,0
2,76,0,15
2,68,0,0
2,71,0,0
2,73,0,5
2,73,93,75
2,71,93,0
2,68,76,0
2,76,93,0
2,68,0,75
2,73,0,0
2,71,0,0
2,76,0,5
2,73,93,2030
2,71,98,0
2,76,102,0
2,68,85,0
2,68,0,10
2,73,0,5
2,71,0,0
2,76,0,0
2,71,102,65
2,73,98,0
2,68,89,0
2,76,107,0
2,76,0,15
2,68,0,0
2,71,0,0
2,73,0,5
2,73,93,95
2,71,98,0
2,68,89,0
2,76,102,0
2,76,0,15
2,68,0,0
2,71,0,0
2,73,0,5
2,73,93,75
2,71,93,0
2,68,76,0
2,76,93,0
2,68,0,75
2,73,0,0
2,71,0,0
2,76,0,5
2,73,93,2030
2,71,98,0
2,76,102,0
2,68,85,0
2,68,0,10
2,73,0,5
2,71,0,0
2,76,0,0
2,71,102,65
2,73,98,0
2,68,89,0
2,76,107,0
2,76,0,15
2,68,0,0
2,71,0,0
2,73,0,5
2,73,93,95
2,71,98,0
2,68,89,0
2,76,102,0
2,76,0,15
2,68,0,0
2,71,0,0
2,73,0,5
2,73,93,75
2,71,93,0
2,68,76,0
2,76,93,0
2,68,0,75
2,73,0,0
2,71,0,0
2,76,0,5
2,56,89,130
2,59,93,0
2,52,102,0
2,61,76,0
2,64,102,0
2,56,0,15
2,61,0,5
2,59,0,0
2,52,0,0
2,64,0,0
2,56,72,100
2,59,85,0
2,52,98,0
2,61,80,0
2,64,102,0
2,56,0,10
2,64,0,5
2,59,0,5
2,61,0,0
2,52,0,5
2,59,89,95
2,52,98,0
2,61,72,0
2,64,98,0
2,59,0,15
2,52,0,5
2,61,0,0
2,64,0,0
2,52,98,100
2,59,89,0
2,64,98,0
2,61,89,0
2,59,0,10
2,64,0,5
2,52,0,5
2,61,0,0
2,57,89,100
2,45,93,0
2,64,89,0
2,61,93,0
2,57,0,15
2,45,0,5
2,64,0,0
2,61,0,0
2,45,93,100
2,57,93,0
2,64,98,0
2,61,98,0
2,61,0,20
2,64,0,0
2,57,0,0
2,45,0,5
2,45,98,90
2,57,93,5
2,61,93,0
2,64,98,0
2,61,0,15
2,64,0,5
2,57,0,0
2,45,0,5
2,57,89,95
2,61,98,0
2,64,102,0
2,45,93,0
2,61,0,15
2,57,0,0
2,45,0,5
2,64,0,5
2,47,93,95
2,66,102,0
2,59,93,0
2,63,98,0
2,63,0,20
2,59,0,0
2,66,0,5
2,47,0,0
2,47,89,95
2,66,102,0
2,59,93,0
2,63,98,0
2,63,0,15
2,59,0,0
2,66,0,5
2,47,0,0
2,47,93,100
2,59,89,0
2,66,98,0
2,63,98,0
2,59,0,15
2,63,0,5
2,66,0,5
2,47,0,0
2,66,98,95
2,59,89,0
2,63,98,0
2,47,85,0
2,63,0,15
2,59,0,0
2,47,0,5
2,66,0,5
2,52,98,95
2,59,93,0
