track,note,velocity,time
2,35,110,6112
2,35,110,339
2,35,110,709
2,35,110,718
2,35,110,728
2,35,110,738
2,35,110,690
2,35,110,735
2,35,110,720
2,35,110,707
2,35,110,716
2,35,110,721
2,35,110,724
2,35,110,693
2,35,110,692
2,35,110,694
2,35,110,700
2,35,110,734
2,35,110,694
2,35,110,721
2,35,110,346
2,35,110,341
2,35,110,719
2,35,110,675
2,35,110,678
2,35,110,705
2,35,110,751
2,35,110,678
2,35,110,736
2,35,110,727
2,35,110,733
2,35,110,687
2,35,110,698
2,35,110,683
2,35,110,722
2,35,110,694
2,35,110,696
2,35,110,708
2,35,110,739
2,35,110,678
2,35,110,680
2,35,110,711
2,35,110,723
2,35,110,724
2,35,110,717
2,35,110,351
2,35,110,332
2,35,110,672
2,35,110,685
2,35,110,684
2,35,110,693
2,35,110,756
2,35,110,706
2,35,110,732
2,35,110,705
2,35,110,691
2,35,110,680
2,35,110,711
2,35,110,725
2,35,110,739
2,35,110,696
2,35,110,682
2,35,110,684
2,35,110,709
2,35,110,685
2,35,110,691
2,35,110,688
2,35,110,674
2,35,110,665
2,35,110,671
2,35,110,672
2,35,110,688
2,35,110,685
2,35,110,679
2,35,110,683
2,35,110,683
2,35,110,672
2,35,110,684
2,35,110,683
2,35,110,700
2,35,110,687
2,35,110,668
2,35,110,693
2,35,110,668
2,35,110,681
2,35,110,698
2,35,110,692
2,35,110,704
2,35,110,660
2,35,110,660
2,35,110,670
2,35,110,673
2,35,110,678
2,35,110,684
2,35,110,683
2,35,110,705
2,35,110,685
2,35,110,676
2,35,110,700
2,35,110,683
2,35,110,682
2,35,110,656
2,35,110,715
2,35,110,732
2,35,110,685
2,35,110,709
2,35,110,709
2,35,110,701
2,35,110,16598
2,35,110,1271
2,35,110,1112
2,35,110,1084
2,35,110,871
2,35,110,804
2,35,110,819
2,35,110,768
2,35,110,747
2,35,110,752
2,35,110,778
2,35,110,751
2,35,110,714
2,35,110,704
2,35,110,717
2,35,110,701
2,35,110,715
2,35,110,692
2,35,110,719
2,35,110,727
2,35,110,750
2,35,110,680
2,35,110,721
2,35,110,686
2,35,110,713
2,35,110,685
2,35,110,741
2,35,110,708
2,35,110,733
2,35,110,700
2,35,110,730
2,35,110,691
2,35,110,697
2,35,110,704
2,35,110,687
2,35,110,680
2,35,110,693
2,35,110,681
2,35,110,678
2,35,110,322
2,35,110,303
3,40,100,5344
3,40,64,20
3,40,31,26
3,40,38,21
3,40,50,27
3,40,53,18
3,40,68,26
3,40,68,17
3,40,66,8845
3,40,64,65
3,40,68,161
3,40,61,5090
3,40,44,15
3,40,57,20
3,40,68,24
3,40,105,15
3,40,54,272
3,40,78,11365
3,40,69,253
3,40,84,58
3,40,60,5322
3,40,67,12
3,40,44,12
3,40,69,13
3,40,87,33
3,40,65,165
3,40,63,241
3,40,78,49
3,40,56,15543
3,40,72,50
3,40,64,74
3,40,97,147
3,40,94,7197
3,40,77,243
3,40,91,51
3,40,42,13595
3,40,65,17
3,40,49,30
3,40,80,28
3,40,94,175
3,40,79,236
3,40,83,54
4,40,110,5726
4,40,112,174
5,37,95,6112
5,37,95,339
5,37,95,709
5,37,95,718
5,37,95,728
5,37,95,738
5,37,95,690
5,37,95,735
5,37,95,720
5,37,95,707
5,37,95,716
5,37,95,721
5,37,95,724
5,37,117,149
5,37,95,520
5,37,95,692
5,37,95,694
5,37,95,700
5,37,95,734
5,37,95,694
5,37,95,721
5,37,95,1454
5,37,95,675
5,37,95,678
5,37,95,705
5,37,95,751
5,37,95,678
5,37,95,736
5,37,95,727
5,37,92,70
5,37,95,639
5,37,95,687
5,37,95,698
5,37,95,683
5,37,95,722
5,37,95,694
5,37,95,696
5,37,95,708
5,37,95,739
5,37,95,678
5,37,95,680
5,37,95,711
5,37,95,723
5,37,95,724
5,37,95,717
5,37,95,1403
5,37,95,685
5,37,95,684
5,37,95,693
5,37,95,756
5,37,95,706
5,37,95,732
5,37,95,705
5,37,95,691
5,37,95,680
5,37,95,711
5,37,95,725
5,37,95,739
5,37,95,696
5,37,95,682
5,37,95,684
5,37,95,709
5,37,95,685
5,37,95,691
5,37,95,688
5,37,95,674
5,37,95,665
5,37,95,671
5,37,95,672
5,37,95,688
5,37,95,685
5,37,95,679
5,37,95,683
5,37,95,683
5,37,95,672
5,37,95,678
5,37,95,684
5,37,95,1414
5,37,95,670
5,37,95,693
5,37,95,668
5,37,95,681
5,37,95,698
5,37,95,692
5,37,95,704
5,37,95,660
5,37,95,660
5,37,95,670
5,37,95,673
5,37,95,678
5,37,95,684
5,37,95,683
5,37,95,705
5,37,95,685
5,37,95,676
5,37,95,700
5,37,95,1389
5,37,95,656
5,37,95,715
5,37,95,732
5,37,95,685
5,37,95,709
5,37,95,709
5,37,95,17323
5,37,95,1271
5,37,95,1112
5,37,95,1084
5,37,95,871
5,37,95,804
5,37,95,819
5,37,95,768
5,37,95,747
5,37,95,752
5,37,95,778
5,37,95,751
5,37,95,714
5,37,95,704
5,37,95,717
5,37,95,701
5,37,95,715
5,37,95,692
5,37,95,719
5,37,95,727
5,37,95,750
5,37,95,680
5,37,95,721
5,37,95,686
5,37,95,713
5,37,95,685
5,37,95,741
5,37,95,708
5,37,95,733
5,37,95,700
5,37,95,730
5,37,95,691
5,37,95,697
5,37,95,704
5,37,95,687
5,37,95,680
5,37,95,693
5,37,95,681
6,42,84,6475
6,42,84,163
6,42,86,332
6,42,88,352
6,42,86,537
6,42,85,162
6,42,91,345
6,42,91,350
6,42,94,352
6,42,87,365
6,42,91,331
6,42,88,337
6,42,84,348
6,42,85,349
6,42,88,352
6,42,88,343
6,42,90,341
6,42,92,345
6,42,80,351
6,42,96,328
6,42,94,351
6,42,93,360
6,42,86,351
6,42,97,342
6,42,87,351
6,42,94,327
6,42,93,343
6,42,95,326
6,42,98,337
6,42,99,336
6,42,101,329
6,42,99,351
6,42,92,359
6,42,93,337
6,42,92,343
6,42,97,344
6,42,93,346
6,42,98,337
6,42,80,338
6,42,88,739
6,42,85,328
6,42,90,326
6,42,88,327
6,42,86,333
6,42,89,327
6,42,85,336
6,42,93,339
6,42,89,366
6,42,96,351
6,42,86,351
6,42,94,317
6,42,94,360
6,42,89,349
6,42,90,345
6,42,93,362
6,42,88,361
6,42,86,343
6,42,90,326
6,42,87,343
6,42,82,327
6,42,87,340
6,42,92,336
6,42,99,326
6,42,93,344
6,42,92,343
6,42,90,337
6,42,99,339
6,42,93,350
6,42,92,335
6,42,94,337
6,42,81,522
6,42,96,163
6,42,89,371
6,42,94,332
6,42,86,323
6,42,83,325
6,42,93,323
6,42,83,343
6,42,87,344
6,42,85,345
6,42,89,338
6,42,90,356
6,42,86,356
6,42,93,343
6,42,82,361
6,42,78,1238
6,42,87,151
6,42,79,327
6,42,82,328
6,42,71,333
6,42,78,322
6,42,81,314
6,42,77,350
6,42,76,356
6,42,82,369
6,42,88,365
6,42,87,337
6,42,77,332
6,42,90,344
6,42,85,526
6,42,90,166
6,42,81,333
6,42,79,702
6,42,85,326
6,42,88,335
6,42,86,343
6,42,83,351
6,42,69,371
6,42,76,357
6,42,62,542
6,42,71,154
6,42,76,309
6,42,80,350
6,42,71,329
6,42,76,323
6,42,71,333
6,42,58,869
6,42,82,146
6,42,82,344
6,42,77,340
6,42,82,333
6,42,76,333
6,42,76,331
6,42,86,318
6,42,83,326
6,42,83,1180
6,42,59,155
6,42,85,331
6,42,92,325
6,42,93,345
6,42,100,305
6,42,104,322
6,42,90,337
6,42,92,337
6,42,87,323
6,42,81,310
6,42,83,354
6,42,86,337
6,42,88,320
6,42,88,329
6,42,81,346
6,42,90,309
6,42,87,682
6,42,96,516
6,42,55,693
6,42,83,145
6,42,83,339
6,42,82,326
6,42,82,328
6,42,79,318
6,42,69,155
6,42,73,151
6,42,76,329
6,42,82,329
6,42,70,341
6,42,75,162
6,42,68,155
6,42,70,317
6,42,73,158
6,42,76,155
6,42,64,327
6,42,63,1393
6,42,69,154
6,42,73,148
6,42,66,321
6,42,66,492
6,42,68,149
6,42,65,154
6,42,71,145
6,42,85,335
6,42,82,310
6,42,77,323
6,42,76,326
6,42,65,339
6,42,68,335
6,42,76,323
6,42,75,337
6,42,77,331
6,42,77,332
6,42,73,339
6,42,79,326
6,42,79,314
6,42,75,338
6,42,79,345
6,42,73,1573
6,42,72,157
6,42,77,322
6,42,82,323
6,42,76,338
6,42,82,329
6,42,77,363
6,42,77,346
6,42,76,346
6,42,76,322
6,42,83,342
6,42,85,346
6,42,78,336
6,42,80,17523
6,42,80,602
6,42,83,638
6,42,81,542
6,42,80,552
6,42,77,542
6,42,78,515
6,42,63,216
6,42,81,624
6,42,79,430
6,42,80,378
6,42,60,182
6,42,75,163
6,42,77,404
6,42,73,375
6,42,82,380
6,42,72,176
6,42,75,532
6,42,85,365
6,42,80,369
6,42,61,169
6,42,83,165
6,42,86,399
6,42,87,367
6,42,85,351
6,42,68,170
6,42,82,535
6,42,50,162
6,42,73,160
6,42,82,338
6,42,66,144
6,42,74,170
6,42,80,337
6,42,65,155
6,42,88,161
6,42,76,347
6,42,56,157
6,42,82,158
6,42,81,348
6,42,69,155
6,42,73,163
6,42,83,327
6,42,68,160
6,42,77,159
6,42,83,344
6,42,65,162
6,42,78,159
6,42,86,350
6,42,69,160
6,42,78,166
6,42,78,354
6,42,68,178
6,42,82,168
6,42,82,350
6,42,61,147
6,42,77,148
6,42,78,337
6,42,68,162
6,42,76,143
6,42,82,334
6,42,71,153
6,42,77,159
6,42,77,347
6,42,70,158
6,42,76,158
6,42,79,336
6,42,66,157
6,42,75,160
6,42,74,341
6,42,69,172
6,42,76,157
6,42,75,349
6,42,64,166
6,42,81,166
6,42,75,349
6,42,69,169
6,42,76,167
6,42,81,343
6,42,68,154
6,42,76,165
6,42,75,339
6,42,69,166
6,42,79,154
6,42,76,336
6,42,69,153
6,42,82,165
6,42,82,333
6,42,71,154
6,42,82,157
6,42,80,336
6,42,76,151
6,42,76,164
6,42,81,334
6,42,69,140
6,42,74,154
6,42,82,328
6,42,76,150
6,42,80,149
6,42,76,342
6,42,70,146
6,42,81,152
6,42,74,336
6,42,69,155
6,42,82,154
6,42,82,319
6,42,79,150
6,42,16,809
7,44,60,4552
7,44,60,365
7,44,60,367
7,44,60,351
7,44,93,372
8,46,91,6287
8,46,83,1450
8,46,83,12690
8,46,82,11821
8,46,66,6210
8,46,83,5070
8,46,82,886
8,46,75,2922
8,46,60,2653
8,46,72,165
8,46,89,149
8,46,83,3851
8,46,78,5969
8,46,68,703
8,46,100,676
8,46,73,4760
8,46,65,2249
8,46,72,6165
8,46,93,1198
8,46,60,4703
8,46,53,163
8,46,56,341
8,46,76,20592
8,46,73,3258
8,46,69,3092
8,46,78,898
8,46,78,701
8,46,82,696
8,46,75,716
8,46,69,702
8,46,76,705
8,46,79,714
8,46,78,726
8,46,87,746
8,46,81,689
8,46,80,685
8,46,71,699
8,46,80,709
8,46,76,700
8,46,76,729
8,46,73,732
8,46,71,718
8,46,80,706
8,46,82,708
8,46,64,716
8,46,83,679
8,46,81,702
8,46,90,668
8,46,83,688
8,46,68,694
8,46,77,669
8,46,100,507
8,46,96,307
9,54,60,5336
9,54,60,362
9,54,60,722
9,54,60,715
9,54,60,717
9,54,60,716
9,54,60,738
9,54,60,711
9,54,60,705
9,54,60,730
9,54,60,719
9,54,60,708
9,54,60,699
9,54,60,726
9,54,60,722
9,54,60,698
9,54,60,691
9,54,60,698
9,54,60,722
9,54,60,695
9,54,60,720
9,54,60,701
9,54,60,723
9,54,60,695
9,54,60,682
9,54,60,689
9,54,60,726
9,54,60,711
9,54,60,711
9,54,60,728
9,54,60,740
9,54,60,717
9,54,60,679
9,54,60,698
9,54,60,688
9,54,60,706
9,54,60,706
9,54,60,703
9,54,60,715
9,54,60,723
9,54,60,677
9,54,60,683
9,54,60,718
9,54,60,727
9,54,60,713
9,54,60,718
9,54,60,706
9,54,60,672
9,54,60,682
9,54,60,668
9,54,60,726
9,54,60,751
9,54,60,708
9,54,60,721
9,54,60,686
9,54,60,698
9,54,60,694
9,54,60,732
9,54,60,735
9,54,60,702
9,54,60,685
9,54,60,690
9,54,60,704
9,54,60,677
9,54,60,714
9,54,60,675
9,54,60,688
9,54,60,666
9,54,60,650
9,54,60,688
9,54,60,674
9,54,60,674
9,54,60,683
9,54,60,678
9,54,60,697
9,54,60,677
9,54,60,681
9,54,60,679
9,54,60,694
9,54,60,693
9,54,60,681
9,54,60,673
9,54,60,692
9,54,60,669
9,54,60,697
9,54,60,685
9,54,60,683
9,54,60,683
9,54,60,681
9,54,60,655
9,54,60,683
9,54,60,654
9,54,60,694
9,54,60,686
9,54,60,688
9,54,60,700
9,54,60,663
9,54,60,689
9,54,60,701
9,54,60,683
9,54,60,677
9,54,60,681
9,54,60,714
9,54,60,725
9,54,60,708
9,54,60,695
9,54,60,17956
9,54,60,1203
9,54,60,1147
9,54,60,980
9,54,60,812
9,54,60,810
9,54,60,790
9,54,60,761
9,54,60,744
9,54,60,756
9,54,60,770
9,54,60,735
9,54,60,716
9,54,60,696
9,54,60,714
9,54,60,719
9,54,60,701
9,54,60,695
9,54,60,724
9,54,60,719
9,54,60,749
9,54,60,698
9,54,60,696
9,54,60,694
9,54,60,692
9,54,60,701
9,54,60,727
9,54,60,717
9,54,60,731
9,54,60,719
9,54,60,715
9,54,60,702
9,54,60,674
9,54,60,709
9,54,60,685
9,54,60,660
9,54,60,700
9,54,60,693
9,54,60,670
9,54,60,319
10,65,80,5344
10,65,44,20
10,65,11,26
10,65,18,21
10,65,30,27
10,65,33,18
10,65,48,26
10,65,48,17
10,65,80,39
10,65,80,174
10,65,36,8584
10,65,34,65
10,65,38,161
10,65,41,5090
10,65,24,15
10,65,37,20
10,65,48,24
10,65,81,15
10,65,54,272
10,65,48,11365
10,65,39,253
10,65,54,58
10,65,62,5488
10,65,40,165
10,65,38,241
10,65,53,49
10,65,36,15543
10,65,52,50
10,65,64,74
10,65,77,147
10,65,69,7192
10,65,70,256
10,65,79,57
10,65,22,13581
10,65,45,17
10,65,29,30
10,65,60,28
10,65,74,175
10,65,59,236
10,65,63,54
10,59,65,8431
10,59,64,196
10,59,51,212
10,59,51,102
10,59,44,114
10,59,52,124
10,59,30,5101
10,59,49,100
10,59,44,105
10,59,34,112
10,59,32,146
10,59,27,201
10,51,49,3798
10,51,36,96
10,51,37,349
10,51,26,289
11,55,80,6115
11,55,73,122109
11,55,81,315
12,41,71,3054
12,53,73,0
12,69,68,197
12,65,66,0
12,60,65,4
12,65,73,292
12,69,70,0
12,60,68,3
12,41,59,23
12,53,56,4
12,69,64,178
12,65,60,2
12,60,52,11
12,69,71,309
12,60,66,4
12,65,69,0
12,41,73,4
12,53,67,1
12,69,75,197
12,65,72,2
12,60,73,3
12,69,71,316
12,65,70,3
12,60,71,1
12,41,75,13
12,53,65,10
12,69,71,183
12,60,70,0
12,65,72,1
12,69,73,319
12,65,73,0
12,60,73,3
12,41,75,21
12,53,70,2
12,69,79,171
12,60,80,1
12,65,81,1
12,60,81,288
12,69,78,0
12,65,83,0
12,41,86,186
12,53,81,3
12,69,85,189
12,65,90,2
12,60,87,3
12,69,85,286
12,60,91,3
12,65,91,0
12,41,78,6
12,53,84,3
12,69,81,11
12,60,85,0
12,65,86,0
12,69,86,300
12,65,91,3
12,60,91,1
12,41,79,6
12,53,72,7
12,69,83,179
12,65,87,4
12,60,83,1
12,65,86,312
12,69,83,2
12,60,87,2
12,41,76,7
12,53,76,5
12,69,79,188
12,60,85,0
12,65,86,0
12,69,80,307
12,65,84,2
12,60,79,4
12,53,73,5
12,41,75,0
12,60,86,8
12,69,80,1
12,65,88,0
12,65,87,315
12,69,80,0
12,60,86,1
12,41,81,16
12,53,72,3
12,65,81,183
12,69,77,0
12,60,80,2
12,65,84,323
12,69,79,0
12,60,83,6
12,41,77,5
12,53,71,1
12,65,85,0
12,69,79,0
12,69,90,305
12,60,87,8
12,65,86,1
12,48,73,68
12,36,78,2
12,64,87,188
12,60,86,1
