track,note,velocity,time
0,52,83,764
0,52,71,2
0,55,94,0
0,60,97,2
0,64,89,2
0,64,75,6
0,64,0,15
0,60,0,11
0,64,0,0
0,52,0,2
0,55,0,0
0,55,54,9
0,64,66,5
0,52,56,2
0,64,71,0
0,60,71,0
0,64,0,34
0,39,97,0
0,55,0,2
0,52,0,0
0,64,0,0
0,52,0,4
0,60,0,0
0,39,0,10
0,55,104,39
0,52,81,0
0,60,98,3
0,64,92,2
0,52,74,0
0,64,0,20
0,55,0,2
0,52,0,2
0,60,0,0
0,52,0,2
0,52,67,15
0,55,82,0
0,60,75,0
0,64,74,2
0,52,63,0
0,64,92,8
0,52,0,20
0,60,0,2
0,64,0,0
0,64,0,0
0,55,0,2
0,52,0,2
0,55,85,13
0,52,72,2
0,64,79,0
0,52,74,1
0,60,91,0
0,64,81,2
0,55,0,28
0,64,0,0
0,64,0,0
0,52,0,3
0,52,0,0
0,60,0,2
0,39,90,12
0,60,40,2
0,60,0,3
0,39,0,9
0,55,30,36
0,55,0,2
0,52,79,47
0,55,102,0
0,60,96,0
0,52,73,0
0,64,89,1
0,64,84,3
0,55,0,26
0,52,0,5
0,52,0,0
0,60,0,2
0,64,0,0
0,55,78,13
0,52,66,0
0,64,67,0
0,60,74,1
0,52,54,0
0,52,0,9
0,52,0,26
0,64,0,3
0,64,0,0
0,60,0,1
0,55,0,2
0,39,100,3
0,39,0,15
0,52,82,33
0,55,100,0
0,64,85,3
0,52,72,0
0,60,92,2
0,64,89,2
0,60,0,21
0,55,0,2
0,64,0,0
0,52,0,1
0,52,0,2
0,52,70,17
0,55,89,0
0,64,72,0
0,52,69,3
0,60,76,2
0,52,0,25
0,55,0,0
0,64,0,0
0,52,0,5
0,64,0,5
0,60,0,2
0,55,100,6
0,52,79,0
0,64,76,0
0,52,79,7
0,60,91,0
0,64,87,1
0,55,0,24
0,52,0,0
0,64,0,0
0,52,0,0
0,64,0,3
0,60,0,2
0,39,103,13
0,39,0,16
0,58,111,76
0,53,84,2
0,62,89,0
0,58,118,4
0,53,96,0
0,62,92,0
0,58,0,19
0,53,0,5
0,62,0,0
0,58,0,0
0,62,0,4
0,53,0,1
0,62,52,10
0,58,63,0
0,53,55,2
0,58,72,3
0,53,66,0
0,62,67,1
0,53,0,29
0,62,0,2
0,58,0,0
0,58,0,5
0,53,0,0
0,39,97,0
0,62,0,1
0,39,0,13
0,58,107,40
0,53,73,3
0,62,85,0
0,58,109,2
0,53,75,2
0,62,85,0
0,58,0,14
0,53,0,1
0,62,0,4
0,58,0,2
0,53,0,0
0,62,0,2
0,58,97,19
0,58,84,2
0,53,65,0
0,53,73,0
0,62,87,0
0,62,78,1
0,58,0,27
0,58,0,2
0,53,0,0
0,53,0,0
0,62,0,0
0,62,0,2
0,58,67,13
0,58,82,3
0,53,64,0
0,62,63,0
0,53,63,0
0,62,73,1
0,58,0,23
0,53,0,0
0,62,0,1
0,58,0,3
0,53,0,0
0,62,0,1
0,39,90,17
0,40,40,2
0,39,0,11
0,40,0,18
0,62,100,62
0,67,85,2
0,55,74,0
0,59,102,2
0,62,82,0
0,55,85,0
0,62,0,24
0,55,0,0
0,59,0,0
0,67,0,1
0,62,0,0
0,55,0,0
0,55,69,17
0,67,79,0
0,62,84,0
0,59,71,2
0,55,63,2
0,62,70,0
0,59,0,32
0,55,0,0
0,62,0,0
0,55,0,4
0,67,0,4
0,62,0,0
0,39,100,6
0,39,0,18
0,62,106,30
0,67,104,0
0,55,87,0
0,62,79,1
0,59,94,0
0,55,75,3
0,62,0,19
0,67,0,2
0,55,0,0
0,55,0,4
0,62,0,2
0,59,0,0
0,55,71,17
0,62,82,0
0,67,76,2
0,59,89,1
0,62,84,0
0,55,0,24
0,62,0,3
0,59,0,0
0,67,0,4
0,62,0,0
0,62,78,16
0,55,66,0
0,67,70,0
0,55,71,2
0,59,94,0
0,62,75,0
0,59,0,22
0,55,0,1
0,62,0,0
0,62,0,2
0,55,0,0
0,67,0,2
0,39,103,23
0,39,0,15
0,72,68,29
0,72,0,26
0,52,71,20
0,55,94,0
0,72,96,2
0,64,89,2
0,52,65,0
0,60,79,4
0,64,57,5
0,72,0,15
0,64,0,3
0,64,0,4
0,55,0,2
0,60,0,5
0,52,0,1
0,55,54,4
0,72,74,3
0,64,66,2
0,52,56,2
0,64,71,0
0,60,71,0
0,64,0,34
0,39,97,0
0,52,0,2
0,55,0,0
0,64,0,0
0,72,0,4
0,52,0,0
0,60,0,0
0,39,0,9
0,55,104,40
0,52,81,0
0,60,98,3
0,72,89,0
0,64,92,2
0,52,74,0
0,64,0,19
0,55,0,2
0,52,0,3
0,60,0,0
0,72,0,0
0,52,0,1
0,52,67,17
0,55,82,0
0,60,75,0
0,64,74,2
0,52,63,0
0,72,94,2
0,64,92,5
0,52,0,21
0,72,0,0
0,60,0,2
0,64,0,0
0,64,0,0
0,55,0,2
0,52,0,1
0,55,85,12
0,52,72,3
0,64,79,0
0,52,74,2
0,60,91,0
0,72,94,0
0,64,81,2
0,55,0,28
0,64,0,0
0,64,0,0
0,52,0,2
0,52,0,0
0,60,0,1
0,39,90,12
0,60,40,2
0,60,0,4
0,72,0,7
0,39,0,2
0,55,30,36
0,55,0,2
0,52,79,48
0,55,102,0
0,60,96,0
0,52,73,0
0,64,89,1
0,64,84,2
0,55,0,27
0,52,0,4
0,52,0,0
0,60,0,2
0,64,0,0
0,72,111,10
0,55,78,4
0,52,66,0
0,64,67,0
0,60,74,1
0,52,54,0
0,52,0,8
0,72,0,9
0,52,0,18
0,64,0,1
0,64,0,0
0,60,0,2
0,55,0,2
0,39,100,3
0,72,85,0
0,39,0,16
0,72,0,8
0,52,82,24
0,72,96,0
0,55,100,1
0,64,85,2
0,52,72,0
0,60,92,1
0,64,89,4
0,72,0,14
0,60,0,5
0,55,0,2
0,64,0,0
0,52,0,3
0,52,0,2
0,72,96,14
0,52,70,2
0,55,89,0
0,64,72,0
0,52,69,4
0,60,76,2
0,72,0,13
0,52,0,11
0,55,0,0
0,64,0,0
0,52,0,6
0,64,0,3
0,60,0,2
0,72,98,5
0,55,100,1
0,52,79,0
0,64,76,0
0,52,79,9
0,60,91,0
0,64,87,1
0,55,0,23
0,52,0,0
0,64,0,0
0,52,0,0
0,72,0,3
0,64,0,1
0,60,0,2
0,39,103,12
0,39,0,15
0,58,111,77
0,53,84,1
0,62,89,0
0,58,118,4
0,53,96,0
0,62,92,0
0,58,0,21
0,53,0,4
0,62,0,0
0,58,0,0
0,62,0,3
0,53,0,2
0,62,52,11
0,58,63,0
0,53,55,2
0,72,111,0
0,58,72,2
0,53,66,0
0,62,67,1
0,72,0,19
0,53,0,9
0,62,0,2
0,58,0,0
0,58,0,6
0,53,0,0
0,39,97,0
0,62,0,1
0,72,85,8
0,39,0,5
0,72,0,18
0,58,107,23
0,53,73,2
0,62,85,0
0,72,82,0
0,58,109,2
0,53,75,2
0,62,85,0
0,58,0,13
0,53,0,2
0,72,0,3
0,62,0,1
0,58,0,2
0,53,0,0
0,62,0,2
0,58,97,19
0,58,84,2
0,53,65,0
0,53,73,0
0,62,87,0
0,72,94,0
0,62,78,1
0,72,0,21
0,58,0,6
0,58,0,2
0,53,0,0
0,53,0,0
0,62,0,0
0,62,0,1
0,58,67,15
0,58,82,2
0,53,64,0
0,62,63,0
0,53,63,0
0,72,82,0
0,62,73,2
0,58,0,22
0,53,0,0
0,62,0,1
0,58,0,3
0,53,0,0
0,62,0,2
0,39,90,15
0,39,0,15
0,72,0,2
0,62,100,77
0,67,85,2
0,55,74,0
0,59,102,2
0,62,82,0
0,55,85,0
0,62,0,23
0,55,0,0
0,59,0,0
0,67,0,2
0,62,0,0
0,55,0,0
0,55,69,17
0,67,79,0
0,62,84,0
0,59,71,1
0,55,63,3
0,62,70,0
0,72,108,0
0,72,0,24
0,59,0,8
0,55,0,0
0,62,0,0
0,55,0,3
0,67,0,5
0,62,0,0
0,39,100,8
0,72,74,0
0,39,0,15
0,72,0,8
0,62,106,22
0,67,104,0
0,55,87,0
0,62,79,3
0,59,94,0
0,72,79,0
0,55,75,2
0,62,0,18
0,67,0,4
0,55,0,0
0,72,0,0
0,55,0,4
0,62,0,2
0,59,0,0
0,62,82,15
0,55,71,0
0,67,76,2
0,72,82,1
0,59,89,2
0,62,84,0
0,72,0,22
0,55,0,2
0,62,0,2
0,59,0,0
0,67,0,4
0,62,0,0
0,62,78,16
0,55,66,0
0,67,70,0
0,72,89,0
0,55,71,1
0,59,94,0
0,62,75,0
0,59,0,22
0,55,0,3
0,62,0,0
0,62,0,1
0,55,0,0
0,67,0,3
0,72,0,3
0,39,103,19
0,39,0,15
0,72,85,29
0,72,0,22
0,52,83,22
0,52,71,2
0,55,94,0
0,60,97,2
0,72,104,0
0,64,89,1
0,64,75,7
0,64,0,15
0,72,0,2
0,60,0,8
0,64,0,0
0,52,0,2
0,55,0,0
0,55,54,10
0,72,96,3
0,64,66,1
0,52,56,3
0,64,71,0
0,60,71,0
0,72,0,23
0,64,0,11
0,39,97,0
0,55,0,2
0,52,0,0
0,64,0,0
0,52,0,4
0,60,0,0
0,72,78,4
0,39,0,5
0,72,0,21
0,55,104,20
0,52,81,0
0,60,98,2
0,72,84,0
0,64,92,2
0,52,74,0
0,64,0,19
0,55,0,2
0,52,0,2
0,60,0,0
0,52,0,2
0,72,0,11
0,52,67,5
0,55,82,0
0,60,75,0
0,64,74,2
0,52,63,0
0,64,92,8
0,52,0,20
0,60,0,2
0,64,0,0
0,64,0,0
0,55,0,2
0,52,0,2
0,55,85,12
0,52,72,3
0,64,79,0
0,52,74,2
0,60,91,0
0,72,84,0
0,64,81,1
0,55,0,29
0,64,0,0
0,64,0,0
0,52,0,2
0,52,0,0
0,60,0,2
0,72,0,8
0,39,90,3
0,60,40,3
0,72,91,0
0,60,0,3
0,39,0,8
0,72,0,12
0,55,30,25
0,72,74,0
0,55,0,2
0,72,0,20
0,72,96,26
0,52,79,2
0,55,102,0
0,60,96,0
0,52,73,0
0,64,89,1
0,64,84,3
0,72,0,18
0,55,0,8
0,52,0,4
0,52,0,0
0,60,0,2
0,64,0,0
0,72,92,10
0,55,78,3
0,52,66,0
0,64,67,0
0,60,74,2
0,52,54,0
0,52,0,8
0,72,0,11
0,52,0,16
0,64,0,2
0,64,0,0
0,60,0,2
0,55,0,2
0,39,100,2
0,72,96,0
0,39,0,15
0,72,0,8
0,52,82,25
0,72,96,0
0,55,100,1
0,64,85,2
0,52,72,0
0,60,92,2
0,64,89,2
0,72,0,20
0,60,0,1
0,55,0,2
0,64,0,0
0,52,0,2
0,52,0,1
0,72,94,15
0,52,70,1
0,55,89,0
0,64,72,0
0,52,69,4
0,60,76,3
0,52,0,24
0,55,0,0
0,64,0,0
0,72,0,3
0,52,0,1
0,64,0,6
0,60,0,1
0,55,100,7
0,52,79,0
0,64,76,0
0,52,79,8
0,60,91,0
0,64,87,1
0,55,0,23
0,52,0,0
0,64,0,0
0,52,0,0
0,64,0,4
0,60,0,2
0,72,96,8
0,39,103,3
0,39,0,16
0,72,0,3
0,72,89,26
0,72,0,22
0,58,111,26
0,72,92,0
0,53,84,2
0,62,89,0
0,58,118,4
0,53,96,0
0,62,92,0
0,72,0,16
0,58,0,3
0,53,0,5
0,62,0,0
0,58,0,0
0,62,0,4
0,53,0,2
0,62,52,9
0,58,63,0
0,53,55,3
0,72,78,0
0,58,72,1
0,53,66,0
0,62,67,3
0,72,0,18
0,53,0,10
0,62,0,1
0,58,0,0
0,58,0,5
0,53,0,0
0,39,97,0
0,62,0,1
0,72,84,9
0,39,0,5
0,72,0,21
0,58,107,20
0,53,73,2
0,62,85,0
0,72,81,0
0,58,109,2
0,53,75,2
0,62,85,0
0,58,0,14
0,53,0,2
0,72,0,2
0,62,0,2
0,58,0,2
0,53,0,0
0,62,0,2
0,58,97,17
0,58,84,3
0,53,65,0
0,53,73,0
0,62,87,0
0,72,94,0
0,62,78,2
0,72,0,19
0,58,0,6
0,58,0,3
0,53,0,0
0,53,0,0
0,62,0,0
0,62,0,2
0,58,67,13
0,58,82,3
0,53,64,0
0,62,63,0
0,53,63,0
0,72,74,0
0,62,73,1
0,72,0,18
0,58,0,5
0,53,0,0
0,62,0,1
0,58,0,3
0,53,0,0
0,62,0,1
0,39,90,16
0,40,40,2
0,72,94,1
0,39,0,12
0,72,0,10
0,40,0,7
0,72,79,19
0,72,0,22
0,62,100,22
0,67,85,2
0,55,74,0
0,72,100,2
0,59,102,2
0,62,82,0
0,55,85,0
0,72,0,19
0,62,0,5
0,55,0,0
0,59,0,0
0,67,0,2
0,62,0,0
0,55,0,0
0,55,69,16
0,67,79,0
0,62,84,0
0,59,71,2
0,55,63,2
0,62,70,0
0,72,85,0
0,72,0,22
0,59,0,10
0,55,0,0
0,62,0,0
0,55,0,3
0,67,0,5
0,62,0,0
0,39,100,8
0,72,91,0
0,39,0,16
0,72,0,4
0,62,106,26
0,67,104,0
0,55,87,0
0,62,79,2
0,59,94,0
0,72,91,0
0,55,75,1
0,62,0,21
0,67,0,2
0,55,0,0
0,55,0,3
0,62,0,2
0,59,0,0
0,72,0,5
0,55,71,12
0,62,82,0
0,67,76,2
0,72,73,0
0,59,89,1
0,62,84,0
0,55,0,25
0,62,0,2
0,72,0,0
0,59,0,0
0,67,0,3
0,62,0,0
0,62,78,17
0,55,66,0
0,67,70,0
0,55,71,2
0,59,94,0
0,62,75,0
0,59,0,21
0,55,0,2
0,62,0,0
0,62,0,2
0,55,0,0
0,67,0,2
0,39,103,23
0,39,0,16
0,72,100,28
0,72,0,20
0,52,83,23
0,52,71,3
0,55,94,0
0,60,97,2
0,72,110,0
0,64,89,2
0,64,75,6
0,72,0,16
0,64,0,0
0,60,0,10
0,64,0,0
0,52,0,2
0,55,0,0
0,55,54,10
0,72,78,2
0,64,66,2
0,52,56,2
0,64,71,0
0,60,71,0
0,72,0,14
0,64,0,20
0,39,97,0
0,55,0,2
0,52,0,0
0,64,0,0
0,52,0,3
0,60,0,0
0,72,94,5
0,39,0,6
0,72,0,17
0,55,104,23
0,52,81,0
0,60,98,2
0,72,79,0
0,64,92,2
0,52,74,0
0,72,0,18
0,64,0,1
0,55,0,3
0,52,0,2
0,60,0,0
0,52,0,2
0,52,67,15
0,55,82,0
0,60,75,0
0,64,74,2
0,52,63,0
0,72,94,3
0,64,92,5
0,72,0,16
0,52,0,5
0,60,0,2
0,64,0,0
0,64,0,0
0,55,0,2
0,52,0,1
0,55,85,13
0,52,72,1
0,64,79,0
0,52,74,3
0,60,91,0
0,72,91,0
0,64,81,1
0,72,0,17
0,55,0,13
0,64,0,0
0,64,0,0
0,52,0,1
0,52,0,0
0,60,0,1
0,39,90,12
0,60,40,3
0,72,111,0
0,60,0,3
0,39,0,9
0,72,0,6
0,55,30,30
0,72,91,0
0,55,0,1
0,72,0,17
0,72,111,30
0,52,79,2
0,55,102,0
0,60,96,0
0,52,73,0
0,64,89,2
0,64,84,2
0,72,0,15
0,55,0,11
0,52,0,4
0,52,0,0
0,60,0,2
0,64,0,0
0,72,91,10
0,55,78,3
0,52,66,0
0,64,67,0
0,60,74,1
0,52,54,0
0,52,0,9
0,72,0,9
0,52,0,18
0,64,0,3
0,64,0,0
0,60,0,1
0,55,0,2
0,39,100,2
0,72,92,0
0,39,0,16
0,72,0,7
0,52,82,25
0,72,98,0
0,55,100,2
0,64,85,2
0,52,72,0
0,60,92,1
0,64,89,3
0,60,0,19
0,55,0,2
0,64,0,0
0,52,0,3
0,72,0,1
0,52,0,1
0,52,70,16
0,55,89,0
0,64,72,0
0,52,69,4
0,60,76,2
0,52,0,24
0,55,0,0
0,64,0,0
0,52,0,6
0,64,0,3
0,60,0,2
0,55,100,7
0,52,79,0
0,64,76,0
0,52,79,8
0,60,91,0
0,64,87,1
0,55,0,23
0,52,0,0
0,64,0,0
0,52,0,0
0,64,0,3
0,60,0,2
