track,note,velocity,time
0,31,100,1
0,31,100,165
0,31,100,163
0,31,100,164
0,44,110,162
0,44,110,157
0,44,110,164
0,44,110,166
0,44,110,167
0,44,110,167
0,44,110,166
0,44,110,168
0,44,110,167
0,44,110,168
0,44,110,168
0,44,110,166
0,36,105,167
0,68,95,0
0,68,75,108
0,68,83,29
0,67,83,28
0,67,95,22
0,40,22,34
0,40,62,19
0,40,116,18
0,68,95,0
0,68,87,29
0,40,120,1
0,36,109,18
0,68,83,0
0,40,120,18
0,68,79,0
0,68,79,15
0,40,100,30
0,67,79,0
0,40,124,21
0,67,91,0
0,36,109,71
0,54,116,0
0,57,104,0
0,68,95,0
0,45,96,1
0,52,116,0
0,57,112,0
0,61,104,0
0,33,124,1
0,69,124,0
0,73,120,0
0,54,88,6
0,52,60,9
0,54,84,0
0,82,120,0
0,33,108,1
0,57,16,0
0,64,88,0
0,45,92,10
0,52,96,0
0,35,124,4
0,54,96,0
0,68,75,0
0,39,124,4
0,40,124,0
0,54,96,0
0,68,83,0
0,33,124,1
0,57,108,0
0,61,108,0
0,69,124,0
0,73,116,1
0,54,96,9
0,67,83,0
0,35,124,2
0,54,96,0
0,67,95,0
0,82,116,0
0,52,56,1
0,64,92,0
0,52,108,12
0,57,108,0
0,61,100,0
0,54,76,3
0,54,96,7
0,68,95,0
0,69,124,0
0,73,112,0
0,45,88,23
0,52,76,0
0,54,88,4
0,68,87,0
0,36,105,18
0,54,88,0
0,68,83,0
0,82,120,0
0,57,92,1
0,61,84,0
0,64,76,0
0,69,120,7
0,73,108,0
0,54,88,3
0,68,79,1
0,39,124,15
0,40,124,0
0,54,108,0
0,68,79,0
0,45,88,6
0,52,80,0
0,64,104,0
0,54,96,3
0,67,79,1
0,54,92,7
0,67,91,0
0,82,116,0
0,57,88,1
0,61,112,0
0,69,124,0
0,73,108,0
0,33,72,8
0,69,88,0
0,74,108,0
0,54,96,3
0,36,105,15
0,45,92,0
0,54,116,0
0,68,95,0
0,50,88,1
0,54,104,0
0,57,108,0
0,62,100,0
0,33,108,1
0,54,88,8
0,35,108,3
0,54,84,0
0,54,68,0
0,82,116,0
0,66,108,1
0,45,88,11
0,50,84,0
0,35,124,3
0,54,96,1
0,68,75,0
0,39,124,13
0,40,124,0
0,54,96,0
0,68,83,0
0,37,120,1
0,54,108,0
0,57,108,0
0,62,112,0
0,69,120,0
0,74,108,0
0,54,96,9
0,67,83,1
0,35,124,12
0,54,96,0
0,67,95,0
0,82,120,0
0,54,64,1
0,66,100,0
0,54,104,13
0,57,108,0
0,62,96,0
0,54,76,4
0,54,96,18
0,68,95,0
0,69,112,0
0,74,108,0
0,45,88,24
0,50,88,0
0,54,88,3
0,68,87,1
0,36,97,3
0,54,88,0
0,68,83,0
0,82,120,0
0,28,120,1
0,54,104,0
0,57,104,0
0,62,92,0
0,66,100,0
0,69,112,10
0,74,108,0
0,54,88,3
0,68,79,1
0,39,124,12
0,40,120,0
0,54,108,0
0,68,79,0
0,28,96,1
0,54,40,0
0,45,84,15
0,50,96,0
0,66,96,0
0,54,96,4
0,67,79,0
0,36,97,5
0,54,92,0
0,67,91,0
0,82,120,0
0,54,92,1
0,57,100,0
0,62,92,0
0,69,120,0
0,74,108,0
0,69,124,12
0,73,124,0
0,54,96,4
0,36,105,4
0,45,96,0
0,54,116,0
0,68,95,0
0,33,108,1
0,52,112,0
0,57,92,0
0,61,92,0
0,33,84,10
0,54,88,1
0,33,124,17
0,52,56,0
0,54,84,0
0,82,116,0
0,64,112,1
0,45,92,8
0,52,92,0
0,35,124,4
0,54,96,0
0,68,75,0
0,39,124,14
0,40,124,0
0,54,96,0
0,68,83,0
0,33,124,1
0,52,108,0
0,57,112,0
0,61,108,0
0,69,120,0
0,73,112,0
0,54,96,2
0,67,83,0
0,35,124,14
0,54,96,0
0,67,95,0
0,82,120,0
0,52,56,1
0,64,88,0
0,52,108,11
0,57,104,0
0,61,100,0
0,54,76,4
0,54,96,17
0,68,95,0
0,69,120,0
0,73,116,0
0,45,96,23
0,52,92,0
0,54,88,4
0,68,87,0
0,36,97,6
0,54,88,0
0,68,83,0
0,82,120,0
0,57,88,1
0,61,88,0
0,64,92,0
0,69,120,7
0,73,112,0
0,54,88,4
0,68,79,0
0,39,124,12
0,40,124,0
0,54,108,0
0,68,79,0
0,52,40,1
0,45,92,15
0,52,92,0
0,64,96,0
0,54,96,4
0,67,79,0
0,54,92,4
0,57,100,0
0,67,91,0
0,82,120,0
0,61,100,1
0,69,112,0
0,73,116,0
0,33,80,5
0,69,96,0
0,74,112,0
0,54,96,4
0,36,105,15
0,45,92,0
0,54,116,0
0,68,95,0
0,50,92,1
0,54,100,0
0,57,104,0
0,62,96,0
0,33,116,1
0,54,88,3
0,54,84,9
0,82,120,0
0,35,104,1
0,54,60,0
0,66,112,0
0,45,88,5
0,50,64,0
0,35,124,4
0,54,96,0
0,68,75,0
0,39,124,2
0,40,124,0
0,54,96,0
0,68,83,0
0,37,124,1
0,54,108,0
0,57,108,0
0,62,92,0
0,69,112,1
0,74,108,0
0,54,96,1
0,67,83,0
0,35,124,4
0,54,96,0
0,67,95,0
0,82,120,0
0,66,100,1
0,54,112,5
0,57,108,0
0,62,100,0
0,54,76,4
0,54,96,2
0,68,95,0
0,69,112,1
0,74,108,0
0,45,76,23
0,50,80,0
0,54,88,4
0,68,87,0
0,40,52,4
0,40,74,5
0,36,101,10
0,40,116,0
0,54,88,0
0,68,83,0
0,82,112,0
0,54,100,1
0,57,92,0
0,62,96,0
0,28,108,1
0,66,84,0
0,69,108,5
0,74,104,0
0,40,112,4
0,54,88,0
0,68,79,0
0,39,124,4
0,40,120,0
0,54,108,0
0,68,79,0
0,40,108,1
0,54,24,0
0,45,92,4
0,50,88,0
0,66,100,0
0,40,124,4
0,54,96,0
0,67,79,0
0,54,92,6
0,54,76,0
0,67,91,0
0,82,120,0
0,40,112,1
0,57,96,0
0,62,72,0
0,69,120,0
0,74,112,1
0,69,124,1
0,73,116,0
0,54,96,4
0,36,109,16
0,45,104,0
0,54,116,0
0,92,95,0
0,33,116,1
0,52,112,0
0,57,112,0
0,61,100,0
0,54,88,2
0,33,116,17
0,54,84,0
0,82,120,0
0,64,96,0
0,45,96,10
0,52,68,0
0,52,88,0
0,35,124,4
0,54,96,0
0,92,75,0
0,39,124,4
0,40,124,0
0,54,96,0
0,92,83,0
0,33,124,1
0,52,108,0
0,57,120,0
0,61,116,0
0,61,120,1
0,69,124,0
0,73,112,0
0,59,112,2
0,54,96,4
0,90,83,0
0,35,124,8
0,54,96,0
0,82,116,0
0,91,95,0
0,64,84,1
0,52,112,12
0,57,112,0
0,59,120,0
0,61,112,0
0,54,76,4
0,54,96,14
0,92,95,0
0,69,124,0
0,73,116,1
0,45,92,23
0,52,84,0
0,54,88,4
0,92,87,0
0,36,105,4
0,54,88,0
0,82,120,0
0,92,83,0
0,52,112,1
0,57,116,0
0,61,112,0
0,61,116,1
0,64,68,0
0,69,116,7
0,73,104,0
0,54,88,4
0,92,79,0
0,39,124,17
0,40,124,0
0,54,108,0
0,92,79,0
0,45,88,6
0,52,84,0
0,64,108,0
0,54,96,4
0,90,79,0
0,52,104,8
0,54,92,0
0,82,116,0
0,91,91,0
0,57,116,1
0,61,108,0
0,69,120,0
0,73,112,0
0,33,36,10
0,68,116,0
0,73,116,0
0,52,76,1
0,54,96,3
0,36,105,3
0,45,100,0
0,54,116,0
0,92,95,0
0,33,116,1
0,52,112,0
0,56,120,0
0,61,120,0
0,61,116,1
0,61,100,4
0,54,88,1
0,35,108,15
0,54,84,0
0,82,116,0
0,64,108,1
0,45,88,11
0,52,88,0
0,61,112,0
0,35,124,4
0,54,96,0
0,92,75,0
0,39,124,11
0,40,124,0
0,54,96,0
0,92,83,0
0,37,124,1
0,52,112,0
0,56,112,0
0,61,116,0
0,68,124,1
0,73,116,0
0,59,104,11
0,54,96,4
0,90,83,0
0,35,124,6
0,54,96,0
0,82,120,0
0,91,95,0
0,64,88,1
0,52,108,2
0,56,116,0
0,59,116,0
0,61,116,0
0,54,76,4
0,54,96,3
0,92,95,0
0,68,120,0
0,73,116,0
0,45,92,23
0,52,92,0
0,54,88,4
0,92,87,0
0,36,97,1
0,54,88,0
0,82,120,0
0,92,83,0
0,28,124,1
0,52,88,0
0,56,116,0
0,61,116,0
0,61,112,1
0,64,88,0
0,68,108,11
0,73,108,0
0,54,88,4
0,92,79,0
0,39,124,12
0,40,120,0
0,54,108,0
0,92,79,0
0,28,108,1
0,45,60,15
0,52,80,0
0,64,104,0
0,54,96,4
0,90,79,0
0,36,97,3
0,54,92,0
0,82,120,0
0,91,91,0
0,56,116,1
0,61,108,0
0,68,116,0
0,73,112,0
0,28,84,12
0,69,116,0
0,73,112,0
0,54,96,4
0,36,105,15
0,54,116,0
0,92,95,0
0,33,124,1
0,45,96,0
0,52,108,0
0,57,112,0
0,61,96,0
0,54,88,2
0,33,112,17
0,54,84,0
0,82,116,0
0,64,96,0
0,45,88,8
0,52,68,0
0,52,92,0
0,35,124,4
0,54,96,0
0,92,75,0
0,39,124,6
0,40,124,0
0,54,96,0
0,92,83,0
0,33,124,1
0,57,112,0
0,61,108,0
0,69,124,0
0,61,120,1
0,73,112,0
0,59,112,2
0,54,96,4
0,90,83,0
0,35,124,2
0,54,96,0
0,91,95,0
0,82,120,1
0,64,88,0
0,52,116,12
0,57,116,0
0,59,120,0
0,61,112,0
0,54,76,4
0,54,96,4
0,92,95,0
0,69,124,0
0,73,116,0
0,45,84,23
0,52,88,0
0,54,88,4
0,92,87,0
0,36,97,3
0,54,88,0
0,82,120,0
0,92,83,0
0,52,92,1
0,57,116,0
0,61,116,0
0,64,80,0
0,61,116,1
0,69,116,8
0,73,112,0
0,54,88,4
0,92,79,0
0,39,124,4
0,40,124,0
0,54,108,0
0,92,79,0
0,45,80,14
0,52,88,0
0,64,88,0
0,54,96,4
0,90,79,0
0,52,80,13
0,54,92,0
0,82,120,0
0,91,91,0
0,57,112,1
0,61,116,0
0,69,120,0
0,73,116,0
0,33,80,9
0,68,120,0
0,73,116,0
0,52,76,1
0,54,96,3
0,36,105,3
0,45,96,0
0,54,116,0
0,92,95,0
0,33,112,1
0,52,116,0
0,56,120,0
0,61,120,0
0,61,116,1
0,61,100,2
0,54,88,1
0,35,108,2
0,54,84,0
0,82,120,0
0,64,104,0
0,45,76,5
0,52,96,0
0,61,112,0
0,35,124,4
0,54,96,0
0,92,75,0
0,39,124,11
0,40,124,0
0,54,96,0
0,92,83,0
0,37,120,1
0,52,108,0
0,56,120,0
0,61,120,0
0,68,116,1
0,73,112,0
0,59,104,15
0,54,96,4
0,90,83,0
0,35,124,20
0,54,96,0
0,82,120,0
0,91,95,0
0,64,88,0
0,52,112,2
0,56,120,0
0,61,112,0
0,59,116,1
0,54,76,3
0,54,96,3
0,92,95,0
0,68,120,0
0,73,116,0
0,28,76,23
0,45,88,0
0,52,96,0
0,54,88,4
0,92,87,0
0,36,101,2
0,54,88,0
0,82,112,0
0,92,83,0
0,28,60,1
0,52,100,0
0,56,116,0
0,61,112,0
0,61,112,1
0,64,80,0
0,68,108,5
0,73,104,0
0,54,88,4
0,92,79,0
0,68,106,9
0,39,124,2
0,40,124,0
0,54,108,0
0,92,79,0
0,28,120,1
0,69,112,3
0,45,76,9
0,52,72,0
0,64,88,0
0,54,96,4
0,90,79,0
0,70,84,5
0,52,108,4
0,54,92,0
0,82,120,0
0,91,91,0
0,56,116,1
0,61,112,0
0,68,116,0
0,73,108,0
0,54,80,9
0,71,120,0
0,74,100,0
0,54,96,2
0,71,64,3
0,36,109,10
0,47,104,0
0,54,116,0
0,92,95,0
0,35,120,1
0,50,112,0
0,54,112,0
0,59,120,0
0,59,108,1
0,59,96,1
0,54,88,2
0,35,104,9
0,54,84,0
0,82,120,0
0,66,108,1
0,47,92,7
0,50,88,0
0,59,112,0
0,35,124,4
0,54,96,0
0,92,75,0
0,39,124,9
0,40,124,0
0,54,96,0
0,92,83,0
0,35,124,1
0,50,112,0
0,54,120,0
0,59,116,0
0,71,112,1
0,74,112,0
0,57,112,6
0,54,96,4
0,90,83,0
0,35,124,1
0,54,96,0
0,82,116,0
0,91,95,0
0,66,92,1
0,40,76,7
0,50,112,0
0,54,116,0
0,59,116,0
0,61,108,1
0,54,76,3
0,40,108,10
0,54,96,0
0,92,95,0
0,71,112,0
0,74,108,0
0,42,92,23
0,47,92,0
0,50,88,0
0,54,88,0
0,92,87,0
0,36,105,2
0,54,88,0
0,92,83,0
0,45,108,1
0,54,116,0
0,59,120,0
0,82,120,0
0,59,96,1
0,66,92,0
0,49,108,5
0,71,108,0
0,74,108,0
0,54,88,3
0,92,79,0
0,39,124,1
0,40,124,0
0,54,108,0
0,92,79,0
0,47,76,6
0,47,92,0
0,50,88,0
0,66,80,1
0,54,96,3
0,90,79,0
0,54,92,6
0,54,112,0
0,82,116,0
0,91,91,0
0,45,100,1
0,59,104,0
0,71,112,0
0,61,112,1
0,74,112,0
0,42,104,10
0,71,112,0
0,76,108,0
0,54,96,1
0,36,105,3
0,47,88,0
0,54,116,0
0,92,95,0
0,40,116,1
0,52,96,0
0,56,112,0
0,59,120,0
0,62,108,1
0,54,88,4
0,40,112,7
0,54,84,0
0,82,116,0
0,68,104,0
0,61,80,1
0,47,72,3
0,52,92,0
0,59,108,0
0,35,124,4
0,54,96,0
0,92,75,0
0,39,124,7
0,40,124,0
0,54,96,0
0,92,83,0
0,40,120,1
0,52,72,0
0,56,116,0
0,59,120,0
0,71,112,1
0,76,104,0
0,61,108,16
0,54,96,4
0,90,83,0
0,35,124,11
0,54,96,0
0,82,120,0
0,91,95,0
0,68,84,1
0,52,112,4
0,56,112,0
0,59,108,0
0,59,116,0
0,54,76,3
0,54,96,2
0,92,95,0
0,71,112,0
0,76,108,0
0,32,88,2
0,47,88,0
0,52,88,0
0,54,88,1
0,92,87,0
0,36,97,4
0,52,112,0
0,54,88,0
0,82,120,0
0,92,83,0
0,32,112,1
0,56,116,0
0,59,116,0
0,68,76,0
0,71,108,11
0,76,108,0
0,54,88,2
0,92,79,0
0,39,124,8
0,40,124,0
0,54,108,0
0,92,79,0
0,33,112,1
0,59,68,0
0,47,52,15
0,52,88,0
0,68,88,0
0,54,96,4
0,90,79,0
0,36,97,10
0,54,92,0
0,82,120,0
0,91,91,0
0,34,116,1
0,52,72,0
0,56,108,0
0,59,116,0
0,71,108,1
0,76,108,0
0,54,68,12
0,71,96,0
0,74,120,0
0,54,54,4
0,36,105,1
0,47,88,0
0,50,108,0
0,54,116,0
0,92,95,0
0,35,120,1
0,54,116,0
0,59,108,0
0,59,116,0
0,59,112,6
0,54,88,4
0,35,104,7
0,54,84,0
0,82,116,0
0,66,100,0
0,47,92,8
0,50,84,0
0,59,120,0
0,35,124,4
0,54,96,0
0,92,75,0
0,39,124,2
0,40,124,0
0,54,96,0
0,92,83,0
0,35,124,1
0,54,112,0
0,59,112,0
0,71,116,0
0,74,112,0
0,57,112,15
0,54,96,0
0,90,83,0
0,35,124,2
0,54,96,0
0,82,120,0
0,91,95,0
0,66,92,1
0,50,108,3
0,54,112,0
0,59,116,0
0,40,76,1
0,61,112,0
0,54,76,3
0,40,108,3
0,54,96,0
0,92,95,0
0,71,112,1
0,74,108,0
0,42,92,23
0,47,88,0
0,50,88,0
0,54,88,4
0,92,87,0
0,36,97,5
0,50,96,0
0,54,88,0
0,82,120,0
0,92,83,0
0,45,108,1
0,54,112,0
0,59,116,0
0,66,76,0
0,59,88,0
0,49,108,6
0,71,108,0
0,74,108,0
0,59,112,1
0,54,88,3
0,92,79,0
0,39,124,1
0,40,124,0
0,54,108,0
0,92,79,0
0,47,76,7
0,47,92,0
0,50,80,0
0,66,84,1
0,54,96,3
0,90,79,0
0,54,92,19
0,54,112,0
0,82,120,0
0,91,91,0
0,45,100,1
0,59,116,0
0,71,108,0
