track,note,velocity,time
0,72,73,1210
0,48,83,905
0,41,101,0
0,45,79,0
0,47,85,0
0,43,89,5
0,62,121,5
0,65,82,0
0,54,82,10
0,69,67,0
0,39,81,5
0,48,89,320
0,45,95,0
0,47,89,0
0,54,88,5
0,41,103,0
0,43,77,5
0,69,71,5
0,65,82,5
0,62,127,0
0,39,93,5
0,63,105,525
0,45,70,25
0,41,84,0
0,54,98,0
0,63,91,20
0,62,103,35
0,62,127,65
0,55,47,10
0,41,73,5
0,45,47,0
0,54,84,15
0,45,67,200
0,41,89,0
0,54,95,10
0,63,102,5
0,63,97,60
0,62,115,20
0,55,51,30
0,45,61,20
0,41,75,5
0,54,90,0
0,62,127,5
0,39,81,170
0,62,121,10
0,65,82,0
0,69,67,0
0,48,83,15
0,41,101,0
0,45,79,0
0,47,85,0
0,43,89,0
0,54,82,5
0,69,71,285
0,54,88,10
0,65,82,5
0,62,127,0
0,48,89,5
0,39,93,0
0,45,95,0
0,47,89,0
0,41,103,5
0,43,77,5
0,63,99,515
0,45,70,25
0,41,84,0
0,54,98,0
0,63,88,20
0,62,103,35
0,62,127,65
0,55,47,10
0,41,73,5
0,45,47,0
0,54,84,15
0,45,67,200
0,41,89,0
0,54,95,10
0,63,102,5
0,63,100,60
0,62,115,20
0,55,51,30
0,45,61,20
0,41,75,5
0,54,90,0
0,62,127,5
0,48,83,175
0,47,71,0
0,40,39,5
0,45,63,0
0,40,31,130
0,48,61,0
0,45,57,5
0,47,55,0
0,40,35,120
0,45,65,0
0,47,67,0
0,48,67,0
0,40,45,135
0,43,79,0
0,45,63,0
0,47,73,0
0,40,45,120
0,45,65,5
0,47,73,0
0,43,79,0
0,40,53,120
0,43,73,5
0,45,61,0
0,47,67,0
0,40,55,115
0,43,83,10
0,45,79,0
0,41,85,5
0,40,55,110
0,41,79,5
0,43,75,0
0,45,67,0
0,41,83,125
0,45,71,0
0,40,65,0
0,43,79,0
0,40,85,95
0,40,127,20
0,47,93,0
0,43,85,5
0,45,85,0
0,31,50,195
0,35,127,210
0,39,86,0
0,43,52,0
0,45,42,0
0,47,42,0
0,48,48,0
0,62,101,0
0,65,67,0
0,69,72,10
0,54,77,5
0,45,38,60
0,48,32,0
0,43,48,0
0,47,30,0
0,47,67,85
0,48,67,0
0,45,63,5
0,43,71,0
0,54,46,20
0,48,50,60
0,43,58,5
0,45,58,0
0,47,56,0
0,35,126,5
0,62,107,0
0,65,67,0
0,69,76,10
0,39,98,5
0,54,83,0
0,48,17,60
0,45,37,5
0,47,27,5
0,43,41,0
0,48,35,80
0,45,37,5
0,47,31,0
0,43,41,5
0,47,68,0
0,45,66,0
0,48,72,0
0,43,72,0
0,48,34,0
0,43,44,0
0,45,44,0
0,47,34,0
0,48,20,0
0,47,40,0
0,45,38,0
0,35,127,0
0,43,48,0
0,56,62,0
0,56,56,45
0,48,27,0
0,47,36,5
0,43,50,0
0,45,44,0
0,56,75,5
0,56,101,45
0,55,57,0
0,48,70,0
0,47,66,0
0,45,66,5
0,43,66,0
0,43,48,85
0,45,44,0
0,47,36,0
0,48,36,0
0,35,127,80
0,48,31,0
0,56,68,0
0,43,38,5
0,45,38,0
0,47,26,0
0,56,62,10
0,48,24,5
0,43,38,5
0,45,42,0
0,47,30,0
0,56,87,0
0,48,62,35
0,43,68,5
0,45,58,0
0,47,56,0
0,55,61,5
0,56,107,0
0,48,34,85
0,47,38,0
0,45,42,5
0,43,54,0
0,35,127,80
0,39,86,0
0,43,52,0
0,45,42,0
0,47,42,0
0,48,48,0
0,62,101,0
0,65,67,0
0,69,72,10
0,54,77,5
0,45,38,60
0,48,32,0
0,43,48,0
0,47,30,0
0,47,67,85
0,48,67,0
0,45,63,5
0,43,71,0
0,54,59,20
0,48,50,60
0,43,58,5
0,45,58,0
0,47,56,0
0,35,105,5
0,62,107,0
0,65,67,0
0,69,76,10
0,39,98,5
0,54,83,0
0,48,17,60
0,45,37,5
0,47,27,5
0,43,41,0
0,48,35,80
0,45,37,5
0,47,31,0
0,43,41,5
0,47,68,80
0,45,66,0
0,48,72,0
0,43,72,5
0,48,34,80
0,43,44,10
0,45,44,0
0,47,34,0
0,48,20,70
0,47,40,5
0,45,38,0
0,35,127,5
0,43,48,0
0,56,62,0
0,56,56,45
0,48,27,0
0,47,36,5
0,43,50,0
0,45,44,0
0,56,75,5
0,56,101,45
0,55,57,0
0,48,70,0
0,47,66,0
0,45,66,5
0,43,66,0
0,43,48,85
0,45,44,0
0,47,36,0
0,48,36,0
0,35,127,65
0,48,31,0
0,56,68,0
0,43,38,5
0,45,38,0
0,47,26,0
0,56,62,40
0,48,24,5
0,43,38,5
0,45,42,0
0,47,30,0
0,56,87,0
0,48,62,35
0,43,68,5
0,45,58,0
0,47,56,0
0,55,61,5
0,56,107,0
0,48,34,85
0,47,38,0
0,45,42,5
0,43,54,0
0,35,127,80
0,39,86,0
0,43,52,0
0,45,42,0
0,47,42,0
0,48,48,0
0,62,101,0
0,65,67,0
0,69,72,10
0,54,77,5
0,45,38,60
0,48,32,0
0,43,48,0
0,47,30,0
0,47,67,85
0,48,67,0
0,45,63,5
0,43,71,0
0,54,59,20
0,48,50,60
0,43,58,5
0,45,58,0
0,47,56,0
0,35,105,5
0,62,107,0
0,65,67,0
0,69,76,0
0,39,98,0
0,54,83,0
0,48,17,0
0,45,37,0
0,47,27,0
0,43,41,0
0,48,35,0
0,45,37,5
0,47,31,0
0,43,41,5
0,47,68,80
0,45,66,0
0,48,72,0
0,43,72,5
0,48,34,80
0,43,44,10
0,45,44,0
0,47,34,0
0,48,20,70
0,47,40,5
0,45,38,0
0,35,127,5
0,43,48,0
0,56,62,0
0,56,56,45
0,48,27,0
0,47,36,5
0,43,50,0
0,45,44,0
0,56,75,5
0,56,101,45
0,55,57,0
0,48,70,0
0,47,66,0
0,45,66,5
0,43,66,0
0,43,48,15
0,45,44,0
0,47,36,0
0,48,36,0
0,35,127,80
0,48,31,0
0,56,68,0
0,43,38,5
0,45,38,0
0,47,26,0
0,56,62,40
0,48,24,5
0,43,38,5
0,45,42,0
0,47,30,0
0,56,87,0
0,48,62,35
0,43,68,5
0,45,58,0
0,47,56,0
0,55,61,5
0,56,107,0
0,48,34,85
0,47,38,0
0,45,42,5
0,43,54,0
0,35,127,80
0,39,86,0
0,43,52,0
0,45,42,0
0,47,42,0
0,48,48,0
0,62,101,0
0,65,67,0
0,69,72,10
0,54,77,5
0,45,38,60
0,48,32,0
0,43,48,0
0,47,30,0
0,47,67,0
0,48,67,0
0,45,63,5
0,43,71,0
0,54,59,20
0,48,50,60
0,43,58,5
0,45,58,0
0,47,56,0
0,35,105,5
0,62,107,0
0,65,67,0
0,69,76,10
0,39,98,5
0,54,83,0
0,48,17,60
0,45,37,5
0,47,27,5
0,43,41,0
0,48,35,80
0,45,37,5
0,47,31,0
0,43,41,5
0,47,68,80
0,45,66,0
0,48,72,0
0,43,72,5
0,48,34,80
0,43,44,10
0,45,44,0
0,47,34,0
0,48,20,70
0,47,40,5
0,45,38,0
0,35,127,5
0,43,48,0
0,56,62,0
0,56,56,40
0,48,27,0
0,47,36,5
0,43,50,0
0,45,44,0
0,56,75,5
0,56,101,45
0,55,57,0
0,48,70,0
0,47,66,0
0,45,66,5
0,43,66,0
0,43,48,85
0,45,44,0
0,47,36,0
0,48,36,0
0,35,127,80
0,48,31,0
0,56,68,0
0,43,38,5
0,45,38,0
0,47,26,0
0,56,62,40
0,48,24,5
0,43,38,5
0,45,42,0
0,47,30,0
0,56,87,0
0,48,62,35
0,43,68,5
0,45,58,0
0,47,56,0
0,55,61,5
0,56,107,0
0,48,34,85
0,47,38,0
0,45,42,5
0,43,54,0
0,35,127,0
0,39,86,0
0,43,52,0
0,45,42,0
0,47,42,0
0,48,48,0
0,62,101,0
0,65,67,0
0,69,72,0
0,54,77,0
0,45,38,0
0,48,32,0
0,43,48,0
0,47,30,0
0,47,67,40
0,48,67,0
0,45,63,5
0,43,71,0
0,40,90,5
0,54,46,15
0,48,50,60
0,43,58,5
0,45,58,0
0,47,56,0
0,40,105,5
0,62,107,0
0,65,67,0
0,69,76,10
0,39,98,5
0,54,83,0
0,48,17,60
0,45,37,5
0,35,126,5
0,47,27,0
0,43,41,0
0,48,35,80
0,45,37,5
0,47,31,0
0,43,41,5
0,47,68,5
0,45,66,0
0,48,72,0
0,40,105,5
0,43,72,0
0,48,34,80
0,43,44,10
0,45,44,0
0,47,34,0
0,48,20,70
0,47,40,5
0,45,38,0
0,35,127,5
0,43,48,0
0,56,52,0
0,56,46,45
0,48,27,0
0,47,36,5
0,43,50,0
0,45,44,0
0,56,65,5
0,56,91,45
0,40,90,0
0,55,57,0
0,48,70,0
0,47,66,0
0,45,66,5
0,43,66,0
0,40,105,80
0,43,48,5
0,45,44,0
0,47,36,0
0,48,36,0
0,35,127,80
0,48,31,0
0,56,58,0
0,43,38,5
0,45,38,0
0,47,26,0
0,56,52,40
0,48,24,5
0,43,38,0
0,45,42,0
0,47,30,0
0,56,77,0
0,48,62,35
0,43,68,5
0,45,58,0
0,47,56,0
0,40,105,5
0,55,61,0
0,56,97,0
0,48,34,85
0,47,38,0
0,45,42,5
0,43,54,0
0,35,127,80
0,39,86,0
0,43,52,0
0,45,42,0
0,47,42,0
0,48,48,0
0,62,101,0
0,65,67,0
0,69,72,10
0,54,77,5
0,45,38,60
0,48,32,0
0,43,48,0
0,47,30,0
0,47,67,85
0,48,67,0
0,45,63,5
0,43,71,0
0,40,90,5
0,54,59,15
0,48,50,60
0,43,58,5
0,45,58,0
0,47,56,0
0,40,105,5
0,62,107,0
0,65,67,0
0,69,76,10
0,39,98,5
0,54,83,0
0,48,17,20
0,45,37,5
0,35,126,5
0,47,27,0
0,43,41,0
0,48,35,80
0,45,37,5
0,47,31,0
0,43,41,5
0,47,68,80
0,45,66,0
0,48,72,0
0,40,105,5
0,43,72,0
0,48,34,80
0,43,44,10
0,45,44,0
0,47,34,0
0,48,20,70
0,47,40,5
0,45,38,0
0,35,127,5
0,43,48,0
0,56,52,0
0,56,46,45
0,48,27,0
0,47,36,5
0,43,50,0
0,45,44,0
0,56,65,5
0,56,91,45
0,40,90,0
0,55,57,0
0,48,70,0
0,47,66,0
0,45,66,5
0,43,66,0
0,40,105,0
0,43,48,0
0,45,44,0
0,47,36,0
0,48,36,0
0,35,127,55
0,48,31,0
0,56,58,0
0,43,38,5
0,45,38,0
0,47,26,0
0,56,52,40
0,48,24,5
0,43,38,5
0,45,42,0
0,47,30,0
0,56,77,0
0,48,62,35
0,43,68,5
0,45,58,0
0,47,56,0
0,40,105,5
0,55,61,0
0,56,97,0
0,48,34,85
0,47,38,0
0,45,42,5
0,43,54,0
0,35,127,80
0,39,86,0
0,43,52,0
0,45,42,0
0,47,42,0
0,48,48,0
0,62,101,0
0,65,67,0
0,69,72,10
0,54,77,5
0,45,38,60
0,48,32,0
0,43,48,0
0,47,30,0
0,47,67,85
0,48,67,0
0,45,63,5
0,43,71,0
0,40,90,5
0,54,59,15
0,48,50,60
0,43,58,5
0,45,58,0
0,47,56,0
0,40,105,5
0,62,107,0
0,65,67,0
0,69,76,10
0,39,98,5
0,54,83,0
0,48,17,60
0,45,37,5
0,35,126,5
0,47,27,0
0,43,41,0
0,48,35,80
0,45,37,5
0,47,31,0
0,43,41,5
0,47,68,80
0,45,66,0
0,48,72,0
0,40,105,5
0,43,72,0
0,48,34,80
0,43,44,10
0,45,44,0
0,47,34,0
0,48,20,70
0,47,40,5
0,45,38,0
0,35,127,5
0,43,48,0
0,56,52,0
0,56,46,45
0,48,27,0
0,47,36,5
0,43,50,0
0,45,44,0
0,56,65,5
0,56,91,45
0,40,90,0
0,55,57,0
0,48,70,0
0,47,66,0
0,45,66,5
0,43,66,0
0,40,105,80
0,43,48,5
0,45,44,0
0,47,36,0
0,48,36,0
0,35,127,80
0,48,31,0
0,56,58,0
0,43,38,5
0,45,38,0
0,47,26,0
0,56,52,40
0,48,24,5
0,43,38,5
0,45,42,0
0,47,30,0
0,56,77,0
0,48,62,35
0,43,68,5
0,45,58,0
0,47,56,0
0,40,105,5
0,55,61,0
0,56,97,0
0,48,34,85
0,47,38,0
0,45,42,5
0,43,54,0
0,35,127,80
0,39,86,0
0,43,52,0
0,45,42,0
0,47,42,0
0,48,48,0
0,62,101,0
0,65,67,0
0,69,72,10
0,54,77,5
0,45,38,60
0,48,32,0
0,43,48,0
0,47,30,0
0,47,67,85
0,48,67,0
0,45,63,5
0,43,71,0
0,40,90,5
0,54,59,15
0,48,50,60
0,43,58,5
0,45,58,0
0,47,56,0
0,40,105,5
0,62,107,0
0,65,67,0
0,69,76,10
0,39,98,5
0,54,83,0
0,48,17,60
0,45,37,5
0,35,126,5
0,47,27,0
0,43,41,0
0,48,35,80
0,45,37,5
0,47,31,0
0,43,41,5
0,47,68,80
0,45,66,0
0,48,72,0
0,40,105,5
0,43,72,0
0,48,34,80
0,43,44,10
0,45,44,0
0,47,34,0
0,48,20,70
0,47,40,5
0,45,38,0
0,35,127,5
0,43,48,0
0,56,52,0
0,56,46,45
0,48,27,0
0,47,36,5
0,43,50,0
0,45,44,0
0,56,65,5
0,56,91,45
0,40,90,0
0,55,57,0
0,48,70,0
0,47,66,0
0,45,66,5
0,43,66,0
0,40,105,80
0,43,48,5
0,45,44,0
0,47,36,0
0,48,36,0
0,35,127,80
0,48,31,0
0,56,58,0
0,43,38,5
0,45,38,0
0,47,26,0
0,56,52,40
0,48,24,5
0,43,38,5
0,45,42,0
0,47,30,0
0,56,77,0
0,48,62,35
0,43,68,5
0,45,58,0
0,47,56,0
0,40,105,5
0,55,61,0
0,56,97,0
0,48,34,85
0,47,38,0
0,45,42,5
0,43,54,0
0,36,127,80
0,35,127,0
0,45,37,0
0,47,37,0
0,48,43,0
0,57,80,0
0,82,50,0
0,45,33,80
0,48,27,0
0,47,25,0
0,47,62,85
0,48,62,0
0,45,58,5
0,40,90,5
0,48,45,5
0,45,53,5
0,47,51,0
0,40,105,5
0,43,127,0
0,48,12,80
0,45,32,5
0,35,126,5
0,82,50,0
0,47,22,0
0,48,30,80
0,45,32,5
0,47,26,0
0,47,63,0
0,45,61,0
0,48,67,0
0,40,105,5
0,36,127,0
0,48,29,85
0,45,39,10
0,47,29,0
0,48,15,70
0,47,35,5
0,45,33,0
0,35,127,5
0,82,50,0
0,34,127,0
0,48,22,85
0,47,31,5
0,45,39,0
0,40,90,85
0,48,65,0
0,47,61,0
0,45,61,5
0,38,127,15
0,40,105,0
0,45,39,5
0,47,31,0
0,48,31,0
0,35,127,80
0,82,50,0
0,48,26,0
0,45,33,5
0,47,21,0
0,48,19,80
0,45,37,5
0,47,25,0
0,48,57,5
0,45,53,5
0,47,51,0
0,40,105,5
0,34,127,0
0,48,29,90
0,47,33,0
0,45,37,5
0,39,127,80
0,35,127,0
0,45,37,0
0,47,37,0
0,48,43,0
0,82,50,0
0,45,33,80
0,48,27,0
0,47,25,0
0,47,62,85
0,48,62,0
0,45,58,5
0,40,90,5
0,48,45,5
0,45,53,5
0,47,51,0
0,40,105,5
0,43,127,0
0,48,12,80
0,45,32,5
0,35,126,5
0,82,50,0
0,47,22,0
0,48,30,80
0,45,32,5
0,47,26,0
0,47,63,15
0,45,61,0
0,48,67,0
0,40,105,5
0,39,127,0
0,48,29,85
0,45,39,10
0,47,29,0
0,48,15,60
0,47,35,5
0,45,33,0
0,35,127,5
0,82,50,0
0,41,127,0
0,48,22,85
0,47,31,5
0,45,39,0
0,40,90,85
0,48,65,0
0,47,61,0
0,45,61,5
0,45,127,30
0,40,105,0
0,45,39,5
0,47,31,0
0,48,31,0
0,35,127,80
0,82,50,0
0,48,26,0
0,45,33,5
0,47,21,0
0,48,19,0
0,45,37,0
0,47,25,0
0,48,57,0
0,45,53,0
0,47,51,0
0,41,127,0
0,40,105,0
0,48,29,0
0,47,33,0
0,45,37,0
