track,note,velocity,time
1,35,87,578
1,30,87,4
1,32,87,4
1,35,87,4
1,35,86,580
1,34,86,388
1,29,86,4
1,32,86,4
1,34,86,10
1,39,85,580
1,35,87,388
1,30,87,4
1,32,87,4
1,35,87,4
1,35,86,580
1,34,86,388
1,29,86,4
1,32,86,4
1,34,86,10
1,39,85,580
1,35,87,388
1,30,87,4
1,32,87,4
1,35,87,4
1,35,86,580
1,34,86,388
1,29,86,4
1,32,86,4
1,34,86,10
1,39,85,580
1,28,96,388
1,28,96,100
1,28,96,148
1,25,96,196
1,25,94,100
1,25,96,124
1,35,87,196
1,30,87,4
1,32,87,4
1,35,87,4
1,35,86,580
1,34,86,388
1,29,86,4
1,32,86,4
1,34,86,10
1,39,85,580
1,35,87,388
1,30,87,4
1,32,87,4
1,35,87,4
1,35,86,580
1,34,86,388
1,29,86,4
1,32,86,4
1,34,86,10
1,39,85,580
1,35,87,388
1,30,87,4
1,32,87,4
1,35,87,4
1,35,86,580
1,34,86,388
1,29,86,4
1,32,86,4
1,34,86,10
1,39,85,580
1,28,96,388
1,28,96,100
1,28,96,148
1,25,96,196
1,25,94,100
1,25,96,124
1,35,87,196
1,30,87,4
1,32,87,4
1,35,87,4
1,35,86,580
1,34,86,388
1,29,86,4
1,32,86,4
1,34,86,10
1,39,85,580
1,35,87,388
1,30,87,4
1,32,87,4
1,35,87,4
1,35,86,580
1,34,86,388
1,29,86,4
1,32,86,4
1,34,86,10
1,39,85,580
1,35,87,388
1,30,87,4
1,32,87,4
1,35,87,4
1,35,86,580
1,34,86,388
1,29,86,4
1,32,86,4
1,34,86,10
1,39,85,580
1,28,96,388
1,28,96,100
1,28,96,148
1,25,96,196
1,25,94,100
1,25,96,124
1,35,87,196
1,30,87,4
1,32,87,4
1,35,87,4
1,35,86,580
1,34,86,388
1,29,86,4
1,32,86,4
1,34,86,10
1,39,85,580
1,28,96,388
1,28,96,100
1,28,96,148
1,25,96,196
1,25,94,100
1,25,96,124
1,35,87,196
1,30,87,4
1,32,87,4
1,35,87,4
1,35,86,580
1,34,86,388
1,29,86,4
1,32,86,4
1,34,86,10
1,39,85,580
1,28,96,388
1,28,96,100
1,28,96,148
1,25,96,196
1,25,94,100
1,25,96,124
1,35,87,196
1,30,87,4
1,32,87,4
1,35,87,4
1,35,86,580
1,34,86,388
1,29,86,4
1,32,86,4
1,34,86,10
1,39,85,580
1,35,87,388
1,30,87,4
1,32,87,4
1,35,87,4
1,35,86,580
1,34,86,388
1,29,86,4
1,32,86,4
1,34,86,10
1,39,85,580
1,35,87,388
1,30,87,4
1,32,87,4
1,35,87,4
1,35,86,580
1,34,86,388
1,29,86,4
1,32,86,4
1,34,86,10
1,39,85,580
1,28,96,388
1,28,96,100
1,28,96,148
1,25,96,196
1,25,94,100
1,25,96,124
1,35,87,196
1,30,87,4
1,32,87,4
1,35,87,4
1,35,86,580
1,34,86,388
1,29,86,4
1,32,86,4
1,34,86,10
1,39,85,580
1,35,87,388
1,30,87,4
1,32,87,4
1,35,87,4
1,35,86,580
1,34,86,388
1,29,86,4
1,32,86,4
1,34,86,10
1,39,85,580
1,35,87,388
1,30,87,4
1,32,87,4
1,35,87,4
1,35,86,580
1,34,86,388
1,29,86,4
1,32,86,4
1,34,86,10
1,39,85,580
1,28,96,388
1,28,96,100
1,28,96,148
1,25,96,196
1,25,96,196
1,35,87,196
1,30,87,4
1,32,87,4
1,35,87,4
1,35,86,580
1,34,86,388
1,29,86,4
1,32,86,4
1,34,86,10
1,39,85,580
1,35,87,388
1,30,87,4
1,32,87,4
1,35,87,4
1,35,86,580
1,34,86,388
1,29,86,4
1,32,86,4
1,34,86,10
1,39,85,580
1,35,87,388
1,30,87,4
1,32,87,4
1,35,87,4
1,35,86,580
1,34,86,388
1,29,86,4
1,32,86,4
1,34,86,10
1,39,85,580
1,28,96,388
1,28,96,100
1,28,96,148
1,25,96,196
1,25,94,100
1,25,96,124
1,35,87,196
1,30,87,4
1,32,87,4
1,35,87,4
1,35,86,580
1,34,86,388
1,29,86,4
1,32,86,4
1,34,86,10
1,39,85,580
1,35,87,388
1,30,87,4
1,32,87,4
1,35,87,4
1,35,86,580
1,34,86,388
1,29,86,4
1,32,86,4
1,34,86,10
1,39,85,580
1,35,87,388
1,30,87,4
1,32,87,4
1,35,87,4
1,35,86,580
1,34,86,388
1,29,86,4
1,32,86,4
1,34,86,10
1,39,85,580
1,28,96,388
1,28,96,100
1,28,96,148
1,25,96,196
1,25,94,100
1,25,96,124
1,35,87,196
1,30,87,4
1,32,87,4
1,35,87,4
1,35,86,580
1,34,86,388
1,29,86,4
1,32,86,4
1,34,86,10
1,39,85,580
1,35,87,388
1,30,87,4
1,32,87,4
1,35,87,4
1,35,86,580
1,34,86,388
1,29,86,4
1,32,86,4
1,34,86,10
1,39,85,580
1,35,87,388
1,30,87,4
1,32,87,4
1,35,87,4
1,35,86,580
1,34,86,388
1,29,86,4
1,32,86,4
1,34,86,10
1,39,85,580
1,28,96,388
1,28,96,100
1,28,96,148
1,25,96,196
1,25,94,100
1,25,96,124
1,35,87,196
1,30,87,4
1,32,87,4
1,35,87,4
1,35,86,580
1,34,86,388
1,29,86,4
1,32,86,4
1,34,86,10
1,39,85,580
1,35,87,388
1,30,87,4
1,32,87,4
1,35,87,4
1,35,86,580
1,34,86,388
1,29,86,4
1,32,86,4
1,34,86,10
1,39,85,580
1,35,87,388
1,30,87,4
1,32,87,4
1,35,87,4
1,35,86,580
1,34,86,388
1,29,86,4
1,32,86,4
1,34,86,10
1,39,85,580
1,28,96,388
1,28,96,100
1,28,96,148
1,25,96,196
1,25,94,100
1,25,96,124
1,35,87,196
1,30,87,4
1,32,87,4
1,35,87,4
1,35,86,580
1,34,86,388
1,29,86,4
1,32,86,4
1,34,86,10
1,39,85,580
1,35,87,388
1,30,87,4
1,32,87,4
1,35,87,4
1,35,86,580
1,34,86,388
1,29,86,4
1,32,86,4
1,34,86,10
1,39,85,580
1,35,87,388
1,30,87,4
1,32,87,4
1,35,87,4
1,35,86,580
1,34,86,388
1,29,86,4
1,32,86,4
1,34,86,10
1,39,85,580
1,28,96,388
1,28,96,100
1,28,96,148
1,25,96,196
1,25,96,196
1,35,87,196
1,30,87,4
1,32,87,4
1,35,87,4
1,35,86,580
1,34,86,388
1,29,86,4
1,32,86,4
1,34,86,10
1,39,85,580
1,35,87,388
1,30,87,4
1,32,87,4
1,35,87,4
1,35,86,580
1,34,86,388
1,29,86,4
1,32,86,4
1,34,86,10
1,39,85,580
1,35,87,388
1,30,87,4
1,32,87,4
1,35,87,4
1,35,86,580
1,34,86,388
1,29,86,4
1,32,86,4
1,34,86,10
1,39,85,580
1,28,96,388
1,28,96,100
1,28,96,148
1,25,96,196
1,25,94,100
1,25,96,124
1,35,87,196
1,30,87,4
1,32,87,4
1,35,87,4
1,35,86,580
1,34,86,388
1,29,86,4
1,32,86,4
1,34,86,10
1,39,85,580
1,35,87,388
1,30,87,4
1,32,87,4
1,35,87,4
1,35,86,580
1,34,86,388
1,29,86,4
1,32,86,4
1,34,86,10
1,39,85,580
1,35,87,388
1,30,87,4
1,32,87,4
1,35,87,4
1,35,86,580
1,34,86,388
1,29,86,4
1,32,86,4
1,34,86,10
1,39,85,580
1,28,96,388
1,28,96,100
1,28,96,148
1,25,96,196
1,25,94,100
1,25,96,124
1,35,87,196
1,30,87,4
1,32,87,4
1,35,87,4
1,35,86,580
1,34,86,388
1,29,86,4
1,32,86,4
1,34,86,10
1,39,85,580
1,35,87,388
1,30,87,4
1,32,87,4
1,35,87,4
1,35,86,580
1,34,86,388
1,29,86,4
1,32,86,4
1,34,86,10
1,39,85,580
1,35,87,388
1,30,87,4
1,32,87,4
1,35,87,4
1,35,86,580
1,34,86,388
1,29,86,4
1,32,86,4
1,34,86,10
1,39,85,580
1,28,96,388
1,28,96,100
1,28,96,148
1,25,96,196
1,25,94,100
1,25,96,124
2,58,87,0
2,59,83,12
2,58,75,98
2,59,75,124
2,58,79,96
2,59,79,110
2,56,92,34
2,51,87,94
2,54,79,20
2,56,67,90
2,58,83,90
2,63,77,70
2,58,71,2
2,56,37,96
2,61,92,0
2,56,67,96
2,54,42,0
2,59,71,22
2,58,66,74
2,54,83,76
2,51,79,26
2,47,86,38
2,51,67,694
2,54,83,56
2,56,87,40
2,58,83,24
2,56,92,28
2,58,96,92
2,61,82,640
2,63,59,90
2,66,82,2
2,65,50,88
2,61,63,100
2,58,59,20
2,56,42,0
2,58,87,40
2,59,83,12
2,58,75,0
2,59,75,124
2,58,79,96
2,59,79,110
2,56,92,4
2,51,87,80
2,54,79,20
2,56,67,90
2,58,83,90
2,63,77,70
2,58,71,2
2,56,37,96
2,61,92,0
2,56,67,96
2,54,42,0
2,59,71,22
2,52,84,70
2,63,92,386
2,61,78,96
2,66,84,108
2,65,76,84
2,61,84,104
2,61,88,142
2,58,75,108
2,63,84,2
2,58,87,0
2,59,83,12
2,58,75,98
2,59,75,124
2,58,79,96
2,59,79,110
2,56,92,34
2,51,87,94
2,54,79,20
2,56,67,90
2,58,83,90
2,63,77,70
2,58,71,2
2,56,37,96
2,61,92,0
2,56,67,96
2,54,42,0
2,59,71,22
2,52,84,70
2,63,92,386
2,61,78,96
2,66,84,108
2,65,76,84
2,61,84,104
2,61,88,142
2,58,75,108
2,63,84,2
2,63,92,4162
2,61,78,96
2,66,84,108
2,65,76,84
2,61,84,104
2,61,88,142
2,58,75,108
2,63,84,2
2,58,83,0
2,59,79,12
2,58,71,98
2,59,71,124
2,58,75,96
2,59,75,110
2,56,88,34
2,51,83,94
2,54,75,20
2,56,63,90
2,58,79,90
2,63,73,70
2,58,67,2
2,56,33,96
2,61,88,0
2,56,63,96
2,54,38,0
2,59,67,22
2,58,62,74
2,54,79,76
2,51,75,26
2,47,82,38
2,51,63,694
2,54,79,56
2,56,83,40
2,58,79,24
2,56,88,28
2,58,92,92
2,61,78,640
2,63,55,90
2,66,78,2
2,65,46,88
2,61,59,100
2,58,55,20
2,56,38,0
2,58,83,40
2,59,79,12
2,58,71,0
2,59,71,124
2,58,75,96
2,59,75,110
2,56,88,4
2,51,83,80
2,54,75,20
2,56,63,90
2,58,79,90
2,63,73,70
2,58,67,2
2,56,33,96
2,61,88,0
2,56,63,96
2,54,38,0
2,59,67,22
2,52,80,70
2,63,88,386
2,61,74,96
2,66,80,108
2,65,72,84
2,61,80,104
2,61,84,142
2,58,71,108
2,63,80,2
2,58,83,0
2,59,79,12
2,58,71,98
2,59,71,124
2,58,75,96
2,59,75,110
2,56,88,34
2,51,83,94
2,54,75,20
2,56,63,90
2,58,79,90
2,63,73,70
2,58,67,2
2,56,33,96
2,61,88,0
2,56,63,96
2,54,38,0
2,59,67,22
2,58,62,74
2,54,79,76
2,51,75,26
2,47,82,38
2,58,87,0
2,59,83,12
2,58,75,98
2,59,75,124
2,58,79,96
2,59,79,110
2,56,92,34
2,51,87,94
2,54,79,20
2,56,67,90
2,58,83,90
2,63,77,70
2,58,71,2
2,56,37,96
2,61,92,0
2,56,67,96
2,54,42,0
2,59,71,22
2,58,66,74
2,54,83,76
2,51,79,26
2,47,86,38
2,51,67,694
2,54,83,56
2,56,87,40
2,58,83,24
2,56,92,28
2,58,96,92
2,61,82,640
2,63,59,90
2,66,82,2
2,65,50,88
2,61,63,100
2,58,59,20
2,56,42,0
2,58,87,40
2,59,83,12
2,58,75,0
2,59,75,124
2,58,79,96
2,59,79,110
2,56,92,4
2,51,87,80
2,54,79,20
2,56,67,90
2,58,83,90
2,63,77,70
2,58,71,2
2,56,37,96
2,61,92,0
2,56,67,96
2,54,42,0
2,59,71,22
2,52,84,70
2,63,92,386
2,61,78,96
2,66,84,108
2,65,76,84
2,61,84,104
2,61,88,142
2,58,75,108
2,63,84,2
2,58,83,0
2,59,79,12
2,58,71,32
2,59,71,124
2,58,75,96
2,59,75,110
2,56,88,34
2,51,83,94
2,54,75,20
2,56,63,90
2,58,79,90
2,63,73,70
2,58,67,2
2,56,33,96
2,61,88,0
2,56,63,96
2,54,38,0
2,59,67,22
2,58,62,74
2,54,79,76
2,51,75,26
2,47,82,38
2,51,63,694
2,54,79,56
2,56,83,40
2,58,79,24
2,56,88,28
2,58,92,92
2,61,78,640
2,63,55,90
2,66,78,2
2,65,46,88
2,61,59,100
2,58,55,20
2,56,38,0
2,58,83,40
2,59,79,12
2,58,71,0
2,59,71,124
2,58,75,96
2,59,75,110
2,56,88,4
2,51,83,80
2,54,75,20
2,56,63,90
2,58,79,90
2,63,73,70
2,58,67,2
2,56,33,96
2,61,88,0
2,56,63,96
2,54,38,0
2,59,67,22
2,52,80,70
2,63,88,386
2,61,74,96
2,66,80,108
2,65,72,84
2,61,80,104
2,61,84,142
2,58,71,108
2,63,80,2
3,66,87,13138
3,66,78,40
3,66,78,36
3,66,66,24
3,66,74,70
3,66,70,4
3,66,45,42
3,66,66,38
3,66,62,56
3,66,91,40
3,66,70,40
3,66,66,44
3,66,78,70
3,66,55,96
3,66,58,50
3,66,32,72
3,66,87,68
3,66,69,8
3,66,75,6
3,66,74,44
3,66,55,54
3,66,91,46
3,66,49,30
3,66,70,56
3,66,49,48
3,66,91,40
3,66,52,38
3,66,70,140
3,66,52,120
3,66,74,36
3,66,87,56
3,66,43,110
3,66,74,40
3,66,91,70
3,66,43,106
3,66,58,48
3,66,91,68
3,66,66,82
3,66,70,112
3,66,37,12
3,66,45,78
3,66,70,36
3,66,40,70
3,66,91,42
3,66,45,56
3,66,74,46
3,66,74,70
3,66,87,28
3,66,74,50
3,66,82,110
3,66,49,114
3,66,87,44
3,66,87,74
3,66,74,8
3,66,55,82
3,66,87,46
3,66,66,80
3,66,96,46
3,66,62,56
3,66,82,52
3,66,82,68
3,66,87,114
3,66,82,112
3,66,40,28
3,66,55,76
3,66,82,54
3,66,91,62
3,66,58,22
3,66,40,76
3,66,78,54
3,66,91,80
3,66,74,8
3,66,10,82
3,66,87,68
3,66,87,82
3,66,66,12
3,66,74,176
3,66,82,80
3,66,55,20
3,66,74,80
3,66,70,20
3,66,70,80
3,66,32,16
3,66,43,78
3,66,70,40
3,66,43,76
3,66,91,42
3,66,70,56
3,66,78,40
3,66,87,78
3,66,62,122
3,66,78,46
3,66,82,76
3,66,78,112
3,66,40,24
3,66,58,80
3,66,87,36
3,66,43,54
3,66,66,46
3,66,26,80
3,66,96,38
3,66,43,54
3,66,91,138
3,66,14,104
3,66,87,40
3,66,87,50
3,66,58,76
3,66,52,90
3,66,91,26
3,66,70,30
3,66,91,24
3,66,87,110
3,66,87,122
3,66,62,100
3,66,78,54
3,66,82,18
3,66,70,144
3,66,62,100
3,66,91,34
3,66,52,56
3,66,91,46
3,66,62,302
3,66,82,54
3,66,87,60
3,66,55,46
3,66,78,42
3,66,82,56
3,66,78,122
3,66,96,30
3,66,62,78
3,66,87,52
3,66,82,54
3,66,106,30
3,66,87,50
3,66,91,12
3,66,74,254
3,66,87,32
3,66,55,74
3,66,91,40
3,66,74,58
3,66,87,128
3,66,66,8
3,66,3,76
3,66,91,46
3,66,87,70
3,66,40,64
3,66,74,52
3,66,87,74
3,66,35,72
3,66,82,52
3,66,91,82
3,66,87,76
3,66,40,86
3,66,91,38
3,66,74,72
3,66,55,34
3,66,40,78
3,66,106,58
3,66,70,66
3,66,87,134
3,66,11,4
3,66,43,72
3,66,70,46
3,66,91,78
3,66,78,70
3,66,52,42
3,66,87,36
3,66,87,60
3,66,82,134
3,66,87,130
3,66,87,98
3,66,55,12
3,66,82,78
3,66,82,56
3,66,74,106
3,66,55,14
3,66,87,178
3,66,87,74
3,66,55,90
3,66,91,18
3,66,87,40
3,66,82,72
3,66,78,74
3,66,91,102
3,66,80,4
3,66,63,76
3,66,78,60
3,66,74,116
3,66,101,16
3,66,78,142
3,66,74,106
3,66,70,18
3,66,58,70
3,66,87,30
3,66,55,56
3,66,52,46
3,66,87,76
