track,note,velocity,time
3,36,100,17281
3,39,119,393
3,36,104,428
3,39,119,390
3,36,102,418
3,39,123,393
3,36,95,183
3,36,102,161
3,39,123,379
3,36,100,409
3,39,119,393
3,36,104,428
3,39,119,390
3,36,102,418
3,39,123,393
3,36,95,183
3,36,102,161
3,39,123,379
3,36,100,409
3,39,119,393
3,36,104,428
3,39,119,390
3,36,102,418
3,39,123,393
3,36,95,183
3,36,102,161
3,39,123,379
3,36,100,409
3,39,119,393
3,36,104,428
3,39,119,390
3,36,102,418
3,39,123,393
3,36,95,183
3,36,102,161
3,48,102,262
3,39,123,60
3,48,91,2
3,36,100,409
3,39,119,393
3,36,104,428
3,39,119,390
3,36,102,418
3,39,123,393
3,36,95,183
3,36,102,161
3,39,123,379
3,36,100,409
3,39,119,393
3,36,104,428
3,39,119,390
3,36,102,418
3,39,123,393
3,36,95,183
3,36,102,161
3,39,123,379
3,36,100,409
3,39,119,393
3,36,104,428
3,39,119,390
3,36,102,418
3,39,123,393
3,36,95,183
3,36,102,161
3,39,123,379
3,36,100,409
3,39,119,393
3,36,104,428
3,39,119,390
3,36,102,418
3,39,123,393
3,36,95,183
3,36,102,161
3,48,100,261
3,48,94,75
3,39,123,0
3,45,97,167
3,36,100,140
3,39,119,393
3,36,104,428
3,39,119,390
3,36,102,418
3,39,123,393
3,36,95,183
3,36,102,161
3,39,123,379
3,36,100,409
3,39,119,393
3,36,104,428
3,39,119,390
3,36,102,418
3,39,123,393
3,36,95,183
3,36,102,161
3,39,123,379
3,36,100,409
3,39,119,393
3,36,104,428
3,39,119,390
3,36,102,418
3,39,123,393
3,36,95,183
3,36,102,161
3,39,123,379
3,36,100,409
3,39,119,393
3,36,104,428
3,39,119,390
3,36,102,418
3,39,123,393
3,36,95,183
3,36,102,161
3,48,100,261
3,48,94,75
3,39,123,0
3,45,97,167
3,36,100,140
3,39,119,393
3,36,104,428
3,39,119,390
3,36,102,418
3,39,123,393
3,36,95,183
3,36,102,161
3,39,123,379
3,36,100,409
3,39,119,393
3,36,104,428
3,39,119,390
3,48,100,1268
3,47,85,53
3,48,92,16
3,48,95,47
3,48,97,164
3,45,95,156
3,45,95,78
3,36,100,181
3,39,119,393
3,36,104,428
3,39,119,390
3,36,102,418
3,39,123,393
3,36,95,183
3,36,102,161
3,39,123,379
3,36,100,409
3,39,119,393
3,36,104,428
3,39,119,390
3,36,102,418
3,39,123,393
3,36,95,183
3,36,102,161
3,48,100,261
3,48,94,75
3,39,123,0
3,45,97,167
3,36,100,140
3,39,119,393
3,36,104,428
3,39,119,390
3,36,102,418
3,39,123,393
3,36,95,183
3,36,102,161
3,39,123,379
3,36,100,409
3,39,119,393
3,36,104,428
3,39,119,390
3,36,102,418
3,39,123,393
3,36,95,183
3,36,102,161
3,48,100,261
3,48,94,75
3,39,123,0
3,45,97,167
3,36,100,140
3,39,119,393
3,36,104,428
3,39,119,390
3,36,102,418
3,39,123,393
3,36,95,183
3,36,102,161
3,39,123,379
3,36,100,409
3,39,119,393
3,36,104,428
3,39,119,390
3,36,102,418
3,39,123,393
3,36,95,183
3,36,102,161
3,39,123,379
3,36,100,409
3,39,119,393
3,36,104,428
3,39,119,390
3,36,102,418
3,39,123,393
3,36,95,183
3,36,102,161
3,39,123,379
3,36,100,409
3,39,119,393
3,36,104,428
3,39,119,390
3,36,102,418
3,39,123,393
3,36,95,183
3,36,102,161
3,39,123,379
3,36,100,409
3,39,119,393
3,36,104,428
3,39,119,390
3,36,102,418
3,39,123,393
3,36,95,183
3,36,102,161
3,39,123,379
3,36,100,409
3,48,100,3153
3,48,94,75
3,39,123,0
3,45,97,167
3,36,100,140
3,39,119,393
3,36,104,428
3,80,102,8
3,39,119,390
3,36,102,418
3,39,123,393
3,36,95,183
3,80,97,14
3,80,102,154
3,36,102,7
3,39,123,379
3,36,100,409
3,39,119,393
3,36,104,428
3,80,107,3
3,39,119,377
3,36,102,418
3,39,123,393
3,36,95,183
3,80,111,149
3,36,102,12
3,39,123,373
3,36,100,409
3,39,119,393
3,36,104,428
3,80,102,8
3,39,119,390
3,36,102,418
3,39,123,393
3,36,95,183
3,80,97,14
3,80,102,154
3,36,102,7
3,39,123,379
3,36,100,409
3,39,119,393
3,36,104,428
3,80,107,3
3,39,119,377
3,48,100,1268
3,47,85,53
3,48,92,16
3,48,95,47
3,48,97,164
3,45,95,156
3,45,95,78
3,36,100,181
3,39,119,393
3,36,104,428
3,39,119,390
3,36,102,418
3,39,123,393
3,36,95,183
3,36,102,161
3,39,123,379
3,36,100,409
3,39,119,393
3,36,104,428
3,39,119,390
3,36,102,418
3,39,123,393
3,36,95,183
3,36,102,161
3,39,123,379
3,36,100,409
3,39,119,393
3,36,104,428
3,39,119,390
3,36,102,418
3,39,123,393
3,36,95,183
3,36,102,161
3,39,123,379
3,36,100,409
3,39,119,393
3,36,104,428
3,39,119,390
3,36,102,418
3,39,123,393
3,36,95,183
3,36,102,161
3,48,100,261
3,48,94,75
3,39,123,0
3,45,97,167
3,36,100,140
3,39,119,393
3,36,104,428
3,80,102,8
3,39,119,390
3,36,102,418
3,39,123,393
3,36,95,183
3,80,97,14
3,80,102,154
3,36,102,7
3,39,123,379
3,36,100,409
3,39,119,393
3,36,104,428
3,80,107,3
3,39,119,377
3,36,102,418
3,39,123,393
3,36,95,183
3,80,111,149
3,36,102,12
3,39,123,373
3,36,100,409
3,39,119,393
3,36,104,428
3,80,102,8
3,39,119,390
3,36,102,418
3,39,123,393
3,36,95,183
3,80,97,14
3,80,102,154
3,36,102,7
3,39,123,379
3,36,100,409
3,39,119,393
3,36,104,428
3,80,107,3
3,39,119,377
3,36,102,418
3,48,100,1235
3,48,94,75
3,39,123,0
3,45,97,167
3,36,100,140
3,39,119,393
3,36,104,428
3,39,119,390
3,36,102,418
3,39,123,393
3,36,95,183
3,36,102,161
3,39,123,379
3,36,100,409
3,39,119,393
3,36,104,428
3,39,119,390
3,36,102,418
3,39,123,393
3,36,95,183
3,36,102,161
3,39,123,379
3,36,100,409
3,39,119,393
3,36,104,428
3,39,119,390
3,36,102,418
3,39,123,393
3,36,95,183
3,36,102,161
3,39,123,379
3,36,100,409
3,39,119,393
3,36,104,428
3,39,119,390
3,36,102,418
3,39,123,393
3,36,95,183
3,36,102,161
3,48,100,261
3,48,94,75
3,39,123,0
3,45,97,167
3,36,100,140
3,39,119,393
3,36,104,428
3,39,119,390
3,36,102,418
3,39,123,393
3,36,95,183
3,36,102,161
3,39,123,379
3,36,100,409
3,39,119,393
3,36,104,428
3,39,119,390
3,36,102,418
3,39,123,393
3,36,95,183
3,36,102,161
3,39,123,379
3,36,100,409
3,39,119,393
3,36,104,428
3,39,119,390
3,36,102,418
3,39,123,393
3,36,95,183
3,36,102,161
3,39,123,379
3,36,100,409
3,39,119,393
3,36,104,428
3,39,119,390
3,36,102,418
3,48,100,1235
3,48,94,75
3,39,123,0
3,45,97,167
3,36,100,140
3,39,119,393
3,36,104,428
3,80,102,8
3,39,119,390
3,36,102,418
3,39,123,393
3,36,95,183
3,80,97,14
3,80,102,154
3,36,102,7
3,39,123,379
3,36,100,409
3,39,119,393
3,36,104,428
3,80,107,3
3,39,119,377
3,36,102,418
3,39,123,393
3,36,95,183
3,80,111,149
3,36,102,12
3,39,123,373
3,36,100,409
3,39,119,393
3,36,104,428
3,80,102,8
3,39,119,390
3,36,102,418
3,39,123,393
3,36,95,183
3,80,97,14
3,80,102,154
3,36,102,7
3,39,123,379
3,36,100,409
3,39,119,393
3,36,104,428
3,80,107,3
3,39,119,377
3,36,102,418
3,39,123,393
3,36,95,183
3,36,102,161
3,48,100,261
3,48,94,75
3,39,123,0
3,45,97,167
3,36,100,140
3,39,119,393
3,36,104,428
3,80,102,8
3,39,119,390
3,36,102,418
3,39,123,393
3,36,95,183
3,80,97,14
3,80,102,154
3,36,102,7
3,39,123,379
3,36,100,409
3,39,119,393
3,36,104,428
3,80,107,3
3,39,119,377
3,36,102,418
3,39,123,393
3,36,95,183
3,80,111,149
3,36,102,12
3,39,123,373
3,36,100,409
3,39,119,393
3,36,104,428
3,80,102,8
3,39,119,390
3,36,102,418
3,39,123,393
3,36,95,183
3,80,97,14
3,80,102,154
3,36,102,7
3,39,123,379
3,36,100,409
3,39,119,393
3,36,104,428
3,80,107,3
3,39,119,377
3,36,102,418
3,39,123,393
3,36,95,183
3,36,102,161
3,48,100,261
3,48,94,75
3,39,123,0
3,45,97,167
3,36,100,140
3,39,119,393
3,36,104,428
3,39,119,390
3,36,102,418
3,39,123,393
3,36,95,183
3,36,102,161
3,39,123,379
3,36,100,409
3,39,119,393
3,36,104,428
3,39,119,390
3,36,102,418
3,39,123,393
3,36,95,183
3,36,102,161
3,39,123,379
3,36,100,409
3,39,119,393
3,36,104,428
3,39,119,390
3,36,102,418
3,39,123,393
3,36,95,183
3,36,102,161
3,39,123,379
3,36,100,409
3,39,119,393
3,36,104,428
3,39,119,390
3,36,102,418
3,39,123,393
3,36,95,183
3,36,102,161
3,48,100,261
3,48,94,75
3,39,123,0
3,45,97,167
4,55,115,17285
4,46,115,2
4,42,102,23
4,42,104,170
4,42,104,180
4,73,107,15
4,70,98,67
4,42,107,94
4,46,111,38
4,42,111,6
4,42,111,174
4,46,115,188
4,42,102,23
4,42,104,170
4,42,104,180
4,73,107,15
4,70,98,67
4,42,107,94
4,46,111,181
4,42,111,6
4,42,111,174
4,46,115,188
4,42,102,23
4,42,104,170
4,42,104,180
4,73,107,15
4,70,98,67
4,42,107,94
4,46,111,181
4,42,111,6
4,42,111,174
4,46,115,188
4,42,102,23
4,42,104,170
4,42,104,180
4,73,107,15
4,70,98,67
4,42,107,94
4,46,111,181
4,42,111,6
4,42,111,174
4,46,115,188
4,42,102,23
4,42,104,170
4,42,104,180
4,73,107,15
4,70,98,67
4,42,107,94
4,46,111,181
4,42,111,6
4,42,111,174
4,46,115,188
4,42,102,23
4,42,104,170
4,42,104,180
4,73,107,15
4,70,98,67
4,42,107,94
4,46,111,181
4,42,111,6
4,42,111,174
4,46,115,188
4,42,102,23
4,42,104,170
4,42,104,180
4,73,107,15
4,70,98,67
4,42,107,94
4,46,111,181
4,42,111,6
4,42,111,174
4,46,115,188
4,42,102,23
4,42,104,170
4,42,104,180
4,73,107,15
4,70,98,67
4,42,107,94
4,46,111,181
4,42,111,6
4,42,111,174
4,55,115,186
4,46,115,2
4,42,102,23
4,42,104,170
4,42,104,180
4,73,107,15
4,70,98,67
4,42,107,94
4,46,111,38
4,42,111,6
4,42,111,174
4,46,115,188
4,42,102,23
4,42,104,170
4,42,104,180
4,73,107,15
4,70,98,67
4,42,107,94
4,46,111,181
4,42,111,6
4,42,111,174
4,46,115,188
4,42,102,23
4,42,104,170
4,42,104,180
4,73,107,15
4,70,98,67
4,42,107,94
4,46,111,181
4,42,111,6
4,42,111,174
4,46,115,188
4,42,102,23
4,42,104,170
4,42,104,180
4,73,107,15
4,70,98,67
4,42,107,94
4,46,111,181
4,42,111,6
4,42,111,174
4,46,115,188
4,42,102,23
4,42,104,170
4,42,104,180
4,73,107,15
4,70,98,67
4,42,107,94
4,46,111,181
4,42,111,6
4,42,111,174
4,46,115,188
4,42,102,23
4,42,104,170
4,42,104,180
4,73,107,15
4,70,98,67
4,42,107,94
4,46,111,181
4,42,111,6
4,42,111,174
4,46,115,188
4,42,102,23
4,42,104,170
4,42,104,180
4,73,107,15
4,70,98,67
4,42,107,94
4,46,111,181
4,42,111,6
4,42,111,174
4,46,115,188
4,42,102,23
4,42,104,170
4,42,104,180
4,73,107,15
4,70,98,67
4,42,107,94
4,46,111,181
4,42,111,6
4,42,111,174
4,55,115,186
4,46,115,2
4,42,102,23
4,42,104,170
4,42,104,180
4,73,107,15
4,70,98,67
4,42,107,94
4,46,111,38
4,42,111,6
4,42,111,174
4,46,115,188
4,42,102,23
4,42,104,170
4,42,104,180
4,73,107,15
4,70,98,67
4,42,107,94
4,46,111,181
4,42,111,6
4,42,111,174
4,46,115,188
4,42,102,23
4,42,104,170
4,42,104,180
4,73,107,15
4,70,98,67
4,42,107,94
4,46,111,181
4,42,111,6
4,42,111,174
4,46,115,188
4,42,102,23
4,42,104,170
4,42,104,180
4,73,107,15
4,70,98,67
4,42,107,94
4,46,111,181
4,42,111,6
4,42,111,174
4,46,115,188
4,42,102,23
4,42,104,170
4,42,104,180
4,73,107,15
4,70,98,67
4,42,107,94
4,46,111,181
4,42,111,6
4,42,111,174
4,46,115,188
4,42,102,23
4,42,104,170
4,42,104,180
4,73,107,15
4,70,98,67
4,42,107,94
4,46,111,181
4,42,111,6
4,42,111,174
4,46,115,188
4,42,102,23
4,42,104,170
4,42,104,180
4,73,107,15
4,70,98,67
4,42,107,94
4,46,111,181
4,42,111,6
4,42,111,174
4,46,115,188
4,42,102,23
4,42,104,170
4,42,104,180
4,73,107,15
4,70,98,67
4,42,107,94
4,46,111,181
4,42,111,6
4,42,111,174
4,46,115,188
4,42,102,23
4,42,104,170
4,42,104,180
4,73,107,15
4,70,98,67
4,42,107,94
4,46,111,181
4,42,111,6
4,42,111,174
4,46,115,188
4,42,102,23
4,42,104,170
4,42,104,180
4,73,107,15
4,70,98,67
4,42,107,94
4,46,111,181
4,42,111,6
4,42,111,174
4,46,115,188
4,42,102,23
4,42,104,170
4,42,104,180
4,73,107,15
4,70,98,67
4,42,107,94
4,46,111,181
4,42,111,6
4,42,111,174
4,55,115,2106
4,46,115,2
4,42,102,23
4,42,104,170
4,42,104,180
4,73,107,15
4,70,98,67
4,42,107,94
4,46,111,38
4,42,111,6
4,42,111,174
4,46,115,188
4,42,102,23
4,42,104,170
4,42,104,180
4,73,107,15
4,70,98,67
4,42,107,94
4,46,111,181
4,42,111,6
4,42,111,174
4,46,115,188
4,42,102,23
4,42,104,170
4,42,104,180
4,73,107,15
4,70,98,67
4,42,107,94
4,46,111,181
4,42,111,6
4,42,111,174
4,46,115,188
4,42,102,23
4,42,104,170
4,42,104,180
4,73,107,15
4,70,98,67
4,42,107,94
4,46,111,181
4,42,111,6
4,42,111,174
4,46,115,188
4,42,102,23
4,42,104,170
4,42,104,180
4,73,107,15
4,70,98,67
4,42,107,94
4,46,111,181
4,42,111,6
4,42,111,174
4,46,115,188
4,42,102,23
4,42,104,170
4,42,104,180
4,73,107,15
4,70,98,67
4,42,107,94
4,46,111,181
4,42,111,6
4,42,111,174
4,46,115,188
4,42,102,23
4,42,104,170
4,42,104,180
4,73,107,15
4,70,98,67
4,42,107,94
4,46,111,181
4,42,111,6
4,42,111,174
4,46,115,188
4,42,102,23
4,42,104,170
4,42,104,180
4,73,107,15
4,70,98,67
4,42,107,94
4,46,111,181
4,42,111,6
4,42,111,174
4,55,115,186
4,46,115,2
4,42,102,23
4,42,104,170
4,42,104,180
4,73,107,15
4,70,98,67
4,42,107,94
4,46,111,38
4,42,111,6
4,42,111,174
4,46,115,188
4,42,102,23
4,42,104,170
4,42,104,180
4,73,107,15
4,70,98,67
4,42,107,94
4,46,111,181
4,42,111,6
4,42,111,174
4,46,115,188
4,42,102,23
4,42,104,170
4,42,104,180
4,73,107,15
4,70,98,67
4,42,107,94
4,46,111,181
4,42,111,6
4,42,111,174
4,46,115,188
4,42,102,23
4,42,104,170
4,42,104,180
4,73,107,15
4,70,98,67
4,42,107,94
4,46,111,181
4,42,111,6
4,42,111,174
4,46,115,188
4,42,102,23
4,42,104,170
4,42,104,180
4,73,107,15
4,70,98,67
4,42,107,94
4,46,111,181
4,42,111,6
4,42,111,174
4,46,115,188
4,42,102,23
4,42,104,170
4,42,104,180
4,73,107,15
4,70,98,67
4,42,107,94
4,46,111,181
4,42,111,6
4,42,111,174
4,46,115,188
4,42,102,23
4,42,104,170
4,42,104,180
4,73,107,15
4,70,98,67
4,42,107,94
4,46,111,181
4,42,111,6
4,42,111,174
4,46,115,188
4,42,102,23
4,42,104,170
4,42,104,180
4,73,107,15
4,70,98,67
