track,note,velocity,time
4,40,67,192
4,34,66,0
4,37,66,0
4,39,66,0
4,41,66,0
4,39,66,0
4,37,66,0
4,32,66,0
4,34,66,0
4,37,66,0
4,39,66,0
4,41,66,0
4,44,66,0
4,46,66,0
4,34,66,0
4,37,66,0
4,39,66,0
4,41,66,0
4,39,66,0
4,37,66,0
4,32,66,0
4,34,66,0
4,37,66,0
4,39,66,0
4,41,66,0
4,44,66,0
4,46,66,0
4,34,66,0
4,37,66,0
4,39,66,0
4,41,66,0
4,39,66,0
4,37,66,0
4,32,66,0
4,34,66,0
4,37,66,0
4,39,66,0
4,41,66,0
4,44,66,0
4,46,66,0
4,34,66,0
4,37,66,0
4,39,66,0
4,41,66,0
4,39,66,0
4,37,66,0
4,32,66,0
4,34,66,0
4,37,66,0
4,39,66,0
4,41,66,0
4,44,66,0
4,46,66,0
4,34,66,0
4,39,58,288
4,54,61,0
4,34,66,0
4,37,66,0
4,39,66,0
4,41,66,0
4,39,66,0
4,37,66,0
4,32,66,0
4,34,66,0
4,37,66,0
4,39,66,0
4,41,66,0
4,44,66,0
4,46,66,0
4,34,66,0
4,37,66,0
4,39,66,0
4,41,66,0
4,39,66,0
4,37,66,0
4,32,66,0
4,34,66,0
4,37,66,0
4,39,66,0
4,41,77,0
4,51,70,18
4,50,70,14
4,46,70,14
4,44,70,14
4,41,70,14
4,39,70,14
4,34,66,48
4,37,66,0
4,39,66,0
4,41,66,0
4,39,66,0
4,37,66,0
4,32,66,0
4,34,66,0
4,37,66,0
4,39,66,0
4,41,66,0
4,44,66,0
4,46,66,0
4,34,66,0
4,37,66,0
4,39,66,0
4,41,66,0
4,39,66,0
4,37,66,0
4,32,66,0
4,34,66,0
4,37,66,0
4,39,66,0
4,41,66,0
4,44,66,0
4,46,66,0
4,34,66,0
4,34,66,672
4,37,66,0
4,39,66,0
4,41,66,0
4,39,66,0
4,37,66,0
4,32,66,0
4,34,66,0
4,37,66,0
4,39,66,0
4,41,66,0
4,44,66,0
4,46,66,0
4,34,66,0
4,37,66,0
4,39,66,0
4,41,66,0
4,39,66,0
4,37,66,0
4,32,66,0
4,34,66,0
4,37,66,0
4,39,66,0
4,41,66,0
4,44,66,0
4,46,66,0
4,34,66,0
4,37,66,0
4,39,66,0
4,41,66,0
4,39,66,0
4,37,66,0
4,32,66,0
4,34,66,0
4,37,66,0
4,39,66,0
4,41,66,0
4,44,66,0
4,46,66,0
4,34,66,0
4,37,66,0
4,39,66,0
4,41,66,0
4,39,66,0
4,37,66,0
4,32,66,0
4,34,66,0
4,37,66,0
4,39,66,0
4,41,66,0
4,44,66,0
4,46,66,0
4,34,66,0
4,37,66,0
4,39,66,0
4,41,66,0
4,39,66,0
4,37,66,0
4,32,66,0
4,34,66,0
4,37,66,0
4,39,66,0
4,41,66,0
4,44,66,0
4,46,66,0
4,34,66,0
4,37,66,0
4,39,66,0
4,41,66,0
4,39,66,0
4,37,66,0
4,32,66,0
4,34,66,0
4,37,66,0
4,39,66,0
4,41,66,0
4,44,66,0
4,46,66,0
4,34,66,0
4,37,66,0
4,39,66,0
4,41,66,0
4,39,66,0
4,37,66,0
4,32,66,0
4,34,66,0
4,37,66,0
4,39,66,0
4,41,66,0
4,44,66,0
4,46,66,0
4,34,66,0
4,37,66,0
4,39,66,0
4,41,66,0
4,32,77,0
4,33,77,48
4,34,77,48
4,34,66,672
4,37,66,0
4,39,66,0
4,41,66,0
4,39,66,0
4,37,66,0
4,32,66,0
4,34,66,0
4,37,66,0
4,39,66,0
4,41,66,0
4,44,66,0
4,46,66,0
4,34,66,0
4,37,66,0
4,39,66,0
4,41,66,0
4,39,66,0
4,37,66,0
4,32,66,0
4,34,66,0
4,37,66,0
4,39,66,0
4,41,66,0
4,44,66,0
4,46,66,0
4,34,66,0
4,37,66,0
4,39,66,0
4,41,66,0
4,39,66,0
4,37,66,0
4,32,66,0
4,34,66,0
4,37,66,0
4,39,66,0
4,41,66,0
4,44,66,0
4,46,66,0
4,34,66,0
4,37,66,0
4,39,66,0
4,41,66,0
4,39,66,0
4,37,66,0
4,32,66,0
4,34,66,0
4,37,66,0
4,39,66,0
4,44,66,0
4,34,66,0
4,37,66,0
4,39,66,0
4,41,66,0
4,39,66,0
4,37,66,0
4,32,66,0
4,34,66,0
4,37,66,0
4,39,66,0
4,41,66,0
4,44,66,0
4,46,66,0
4,34,66,0
4,37,66,0
4,39,66,0
4,41,66,0
4,39,66,0
4,37,66,0
4,32,66,0
4,34,66,0
4,37,66,0
4,39,66,0
4,46,69,0
4,44,69,0
4,41,89,0
4,39,89,18
4,37,89,18
4,35,89,18
4,34,66,18
4,37,66,0
4,39,66,0
4,41,66,0
4,39,66,0
4,37,66,0
4,32,66,0
4,34,66,0
4,37,66,0
4,39,66,0
4,41,66,0
4,44,66,0
4,46,66,0
4,34,66,0
4,37,66,0
4,39,66,0
4,41,66,0
4,39,66,0
4,37,66,0
4,32,66,0
4,34,66,0
4,37,66,0
4,39,66,0
4,41,71,0
4,51,64,18
4,50,64,14
4,46,64,14
4,44,64,14
4,41,64,14
4,39,64,14
4,34,66,48
4,37,66,0
4,39,66,0
4,41,66,0
4,39,66,0
4,37,66,0
4,32,66,0
4,34,66,0
4,37,66,0
4,39,66,0
4,41,66,0
4,44,66,0
4,46,66,0
4,34,66,0
4,37,66,0
4,39,66,0
4,41,66,0
4,39,66,0
4,37,66,0
4,32,66,0
4,34,66,0
4,37,66,0
4,39,66,0
4,41,66,0
4,44,66,0
4,46,66,0
4,34,66,0
4,37,66,0
4,39,66,0
4,41,66,0
4,39,66,0
4,37,66,0
4,32,66,0
4,34,66,0
4,37,66,0
4,39,66,0
4,41,66,0
4,44,66,0
4,46,66,0
4,34,66,0
4,37,66,0
4,39,66,0
4,41,66,0
4,39,66,0
4,37,66,0
4,32,66,0
4,34,66,0
4,37,66,0
4,39,66,0
4,41,66,0
4,44,66,0
4,46,66,0
4,34,66,0
4,34,49,3072
4,37,49,0
4,39,49,0
4,41,49,0
4,39,49,0
4,37,49,0
4,32,49,0
4,34,49,0
4,37,49,0
4,39,49,0
4,41,49,0
4,44,49,0
4,46,49,0
4,34,49,0
4,37,49,0
4,39,49,0
4,41,49,0
4,39,49,0
4,37,49,0
4,32,49,0
4,34,49,0
4,37,49,0
4,39,49,0
4,41,49,0
4,44,49,0
4,46,49,0
4,34,49,0
4,37,49,0
4,39,49,0
4,41,49,0
4,39,49,0
4,37,49,0
4,32,49,0
4,34,49,0
4,37,49,0
4,39,49,0
4,41,49,0
4,44,49,0
4,46,49,0
4,34,49,0
4,37,49,0
4,39,49,0
4,41,49,0
4,32,60,0
4,33,60,48
4,34,71,48
4,34,75,672
4,34,66,322
4,37,66,0
4,39,66,0
4,41,66,0
4,39,66,0
4,37,66,0
4,32,66,0
4,34,66,0
4,37,66,0
4,39,66,0
4,41,66,0
4,44,66,0
4,46,66,0
4,34,66,0
4,37,66,0
4,39,66,0
4,41,66,0
4,39,66,0
4,37,66,0
4,32,66,0
4,34,66,0
4,37,66,0
4,39,66,0
4,41,66,0
4,44,66,0
4,46,66,0
4,34,66,0
4,37,66,0
4,39,66,0
4,41,66,0
4,39,66,0
4,37,66,0
4,32,66,0
4,34,66,0
4,37,66,0
4,39,66,0
4,41,66,0
4,44,66,0
4,46,66,0
4,34,66,0
4,37,66,0
4,39,66,0
4,41,66,0
4,39,66,0
4,37,66,0
4,32,66,0
4,34,66,0
4,34,66,624
4,37,66,0
4,39,66,0
4,41,66,0
4,39,66,0
4,37,66,0
4,32,66,0
4,34,66,0
4,37,66,0
4,39,66,0
4,41,66,0
4,44,66,0
4,46,66,0
4,34,66,0
4,37,66,0
4,39,66,0
4,41,66,0
4,39,66,0
4,37,66,0
4,32,66,0
4,34,66,0
4,37,66,0
4,39,66,0
4,41,66,0
4,44,66,0
4,46,66,0
4,34,66,0
4,37,66,0
4,39,66,0
4,41,66,0
4,39,66,0
4,37,66,0
4,32,66,0
4,34,66,0
4,37,66,0
4,39,66,0
4,41,70,0
4,51,62,18
4,50,62,14
4,46,62,14
4,44,62,14
4,41,62,14
4,39,62,14
4,34,66,48
4,37,66,0
4,39,66,0
4,41,66,0
4,39,66,0
4,37,66,0
4,32,66,0
4,34,66,0
4,37,66,0
4,50,63,0
4,50,65,26
4,50,59,110
4,50,63,26
4,34,66,2
4,37,66,0
4,39,66,0
4,41,66,0
4,39,66,0
4,37,66,0
4,32,66,0
4,34,66,0
4,37,66,0
4,39,66,0
4,41,66,0
4,44,66,0
4,46,66,0
4,34,66,0
4,37,66,0
4,39,66,0
4,41,66,0
4,39,66,0
4,37,66,0
4,32,66,0
4,34,66,0
4,37,66,0
4,39,66,0
4,41,66,0
4,44,66,0
4,46,66,0
4,34,66,0
4,37,66,0
4,39,66,0
4,41,66,0
4,39,66,0
4,37,66,0
4,32,66,0
4,34,66,0
4,37,66,0
4,39,66,0
4,41,66,0
4,44,66,0
4,46,66,0
4,34,66,0
4,37,66,0
4,39,66,0
4,41,66,0
4,39,66,0
4,37,66,0
4,32,66,0
4,34,66,0
4,37,66,0
4,39,66,0
4,41,66,0
4,44,66,0
4,46,66,0
4,34,66,0
4,34,66,624
4,37,66,0
4,39,66,0
4,41,66,0
4,39,66,0
4,37,66,0
4,32,66,0
4,34,66,0
4,37,66,0
4,39,66,0
4,41,66,0
4,44,66,0
4,46,66,0
4,34,66,0
4,37,66,0
4,39,66,0
4,41,66,0
4,39,66,0
4,37,66,0
4,32,66,0
4,34,66,0
4,37,66,0
4,39,66,0
4,41,66,0
4,44,66,0
4,46,66,0
4,34,66,0
4,44,60,480
4,46,64,38
4,49,56,24
4,44,64,0
4,53,56,20
4,53,65,36
4,51,68,66
4,53,60,60
4,49,72,0
4,32,82,78
4,33,82,44
4,34,82,44
4,33,37,3692
4,34,61,16
4,34,61,10
4,32,61,308
4,34,61,24
4,34,61,10
4,37,54,308
4,34,61,16
4,34,61,10
4,45,41,590
4,46,56,6
4,45,56,26
4,44,54,30
4,41,56,22
4,39,79,12
4,37,75,24
4,36,75,24
4,35,66,24
4,34,66,24
4,37,66,0
4,39,66,0
4,41,66,0
4,39,66,0
4,37,66,0
4,32,66,0
4,34,66,0
4,37,66,0
4,39,66,0
4,41,66,0
4,44,66,0
4,46,66,0
4,34,66,0
4,37,66,0
4,39,66,0
4,41,66,0
4,39,66,0
4,37,66,0
4,32,66,0
4,34,66,0
4,37,66,0
4,39,66,0
4,41,66,0
4,44,66,0
4,46,66,0
4,34,66,0
4,37,66,0
4,39,66,0
4,41,66,0
4,39,66,0
4,37,66,0
4,32,66,0
4,34,66,0
4,37,66,0
4,39,66,0
4,41,66,0
4,44,66,0
4,46,66,0
4,34,66,0
4,37,66,0
4,39,66,0
4,41,66,0
4,44,66,0
4,41,55,0
4,51,74,48
4,50,70,14
4,49,70,14
4,46,70,14
4,49,70,14
4,46,65,14
4,44,60,14
4,41,40,14
4,41,86,14
4,44,77,14
4,41,74,14
4,40,86,14
4,39,89,14
4,37,89,14
4,36,89,14
4,35,89,14
4,34,66,14
4,37,66,0
4,39,66,0
4,41,66,0
4,39,66,0
4,37,66,0
4,32,66,0
4,34,66,0
4,37,66,0
4,39,66,0
4,41,66,0
4,44,66,0
4,46,66,0
4,34,66,0
4,37,66,0
4,39,66,0
4,41,66,0
4,39,66,0
4,37,66,0
4,32,66,0
4,34,66,0
4,37,66,0
4,39,66,0
4,41,66,0
4,44,66,0
4,46,66,0
4,34,66,0
4,34,63,6006
4,34,66,438
4,37,66,0
4,39,66,0
4,41,66,0
4,39,66,0
4,37,66,0
4,32,66,0
4,34,66,0
4,37,66,0
4,39,66,0
4,41,66,0
4,44,66,0
4,46,66,0
4,34,66,0
4,37,66,0
4,39,66,0
4,41,66,0
4,39,66,0
4,37,66,0
4,32,66,0
4,34,66,0
4,37,66,0
4,39,66,0
4,41,66,0
4,44,66,0
4,46,66,0
4,34,66,0
4,37,66,0
4,39,66,0
4,41,66,0
4,39,66,0
4,37,66,0
4,32,66,0
4,34,66,0
4,37,66,0
4,39,66,0
4,41,66,0
4,44,66,0
4,46,66,0
4,34,66,0
4,37,66,0
4,39,66,0
4,41,66,0
4,39,66,0
4,37,66,0
4,32,66,0
4,34,66,0
4,37,66,0
4,39,66,0
4,41,66,0
4,44,66,0
4,46,66,0
4,34,66,0
4,34,66,624
4,37,66,0
4,39,66,0
4,41,66,0
4,39,66,0
4,37,66,0
4,32,66,0
4,34,66,0
4,37,66,0
4,39,66,0
4,41,66,0
4,44,66,0
4,46,66,0
4,34,66,0
4,37,66,0
4,39,66,0
4,41,66,0
4,39,66,0
4,37,66,0
4,32,66,0
4,34,66,0
4,37,66,0
4,39,66,0
4,41,66,0
4,44,66,0
4,46,66,0
4,34,66,0
4,37,66,0
4,39,66,0
4,41,66,0
4,39,66,0
4,37,66,0
4,32,66,0
4,34,66,0
4,37,66,0
4,39,66,0
4,41,66,0
4,44,66,0
4,46,66,0
4,34,66,0
4,37,66,0
4,39,66,0
4,41,66,0
4,39,66,0
4,37,66,0
4,32,66,0
4,34,66,0
4,37,66,0
4,39,66,0
4,41,66,0
4,44,66,0
4,46,66,0
4,34,66,0
4,34,61,2640
4,44,57,0
4,34,66,26
4,37,66,0
4,39,66,0
4,41,66,0
4,39,66,0
4,37,66,0
4,32,66,0
4,34,66,0
4,37,66,0
4,39,66,0
4,41,66,0
4,44,66,0
4,46,66,0
4,34,66,0
4,37,66,0
4,39,66,0
4,41,66,0
4,39,66,0
4,37,66,0
4,32,66,0
4,34,81,0
4,34,81,10
4,34,77,32
4,36,77,8
4,36,77,18
4,36,77,40
4,37,80,14
4,37,77,22
4,37,77,50
4,39,77,8
4,39,77,18
4,41,77,14
4,39,66,0
4,41,66,0
4,39,66,0
4,37,66,0
4,32,66,0
4,34,66,0
4,37,66,0
4,39,66,0
4,41,66,0
4,44,66,0
4,46,66,0
4,34,65,0
4,46,65,14
4,46,65,14
4,44,65,14
4,44,65,14
4,44,65,14
4,41,65,14
4,41,65,62
4,40,65,14
4,39,65,14
4,37,65,14
4,39,65,14
4,39,65,42
4,37,73,14
5,61,85,1248
5,61,85,58
5,58,85,32
5,61,85,56
5,58,85,38
5,61,85,14
5,61,85,50
5,58,85,48
5,61,85,16
5,58,85,34
5,61,85,8
5,61,85,48
5,58,85,52
5,61,85,12
5,61,85,50
5,60,85,4
5,58,85,46
5,61,85,190
5,61,85,62
5,58,85,22
5,61,85,60
5,58,85,38
5,61,85,20
5,61,85,52
5,58,85,50
5,61,85,14
5,58,85,32
5,61,85,16
5,61,85,44
5,58,85,52
5,61,85,22
5,58,85,38
5,60,85,14
5,61,85,40
5,61,85,290
5,61,85,28
5,58,85,48
5,61,85,4
5,58,85,60
5,61,85,6
5,61,85,56
5,58,85,50
5,61,85,16
5,58,85,36
5,61,85,18
5,61,85,42
5,58,85,46
5,61,85,18
5,61,85,46
5,60,85,8
5,58,85,36
5,61,85,286
5,61,85,30
5,58,85,50
5,61,85,14
5,58,85,50
5,61,85,20
5,61,85,44
5,58,85,52
5,61,85,6
5,58,85,24
5,61,85,26
5,61,85,32
5,61,85,18
5,61,85,108
5,61,85,14
5,61,85,60
5,61,85,22
5,61,85,16
5,61,85,70
5,61,85,24
5,61,85,54
5,61,85,66
5,61,85,18
5,61,85,20
5,61,85,62
5,61,85,254
5,61,85,74
5,61,85,30
5,61,85,22
5,61,85,76
5,61,85,28
5,61,85,26
5,61,85,72
5,61,85,454
5,61,85,68
5,58,85,18
5,61,85,0
5,61,85,60
5,61,85,250
5,61,85,70
5,58,85,10
5,61,85,48
5,61,85,68
5,58,85,14
5,61,85,48
5,61,85,64
5,61,85,414
5,61,85,56
5,58,85,42
5,61,85,66
5,58,85,44
5,61,85,16
5,61,85,50
5,58,85,48
5,61,85,20
5,58,85,44
5,61,85,12
5,61,85,44
5,58,85,48
5,61,85,8
5,61,85,50
5,60,85,4
