track,note,velocity,time
1,64,127,11500
1,62,127,200
1,64,127,120
1,62,127,120
1,64,127,140
1,62,127,340
1,64,127,120
1,62,127,140
1,64,127,140
1,62,127,100
1,59,127,120
1,62,127,160
1,59,127,80
1,57,127,140
1,59,127,160
1,62,127,840
1,64,127,40
1,62,127,100
1,64,127,140
1,68,127,33360
1,59,127,0
1,64,127,0
1,68,127,240
1,59,127,0
1,64,127,0
1,68,127,360
1,64,127,0
1,59,127,0
1,68,127,240
1,59,127,0
1,64,127,0
1,64,127,5960
1,62,127,40
1,64,127,60
1,62,127,60
1,64,127,80
1,64,127,40
1,62,127,40
1,64,127,120
1,62,127,140
1,64,127,140
1,62,127,100
1,59,127,120
1,62,127,160
1,59,127,80
1,57,127,140
1,59,127,160
1,62,127,840
1,64,127,40
1,62,127,100
1,64,127,140
1,64,127,720
1,62,127,200
1,64,127,120
1,62,127,120
1,64,127,140
1,62,127,340
1,64,127,120
1,62,127,140
1,64,127,140
1,62,127,100
1,59,127,120
1,62,127,160
1,59,127,80
1,57,127,140
1,59,127,160
1,62,127,840
1,64,127,40
1,62,127,100
1,64,127,140
1,64,127,720
1,62,127,200
1,64,127,125
1,62,127,120
1,64,127,145
1,62,127,345
1,64,127,120
1,62,127,145
1,64,127,145
1,62,127,100
1,59,127,125
1,62,127,165
1,59,127,80
1,57,127,145
1,59,127,160
1,62,127,840
1,64,127,45
1,62,127,100
1,64,127,140
1,64,127,54480
1,62,127,40
1,64,127,40
1,62,127,60
1,64,127,80
1,64,127,40
1,62,127,40
1,64,127,120
1,62,127,140
1,64,127,140
1,62,127,100
1,59,127,120
1,62,127,160
1,59,127,80
1,57,127,140
1,59,127,160
1,62,127,840
1,64,127,40
1,62,127,100
1,64,127,140
1,64,127,720
1,62,127,200
1,64,127,120
1,62,127,120
1,64,127,140
1,62,127,340
1,64,127,120
1,62,127,140
1,64,127,140
1,62,127,100
1,59,127,120
1,62,127,160
1,59,127,80
1,57,127,140
1,59,127,160
1,62,127,840
1,64,127,40
1,62,127,100
1,64,127,145
1,64,127,720
1,62,127,200
1,64,127,125
1,62,127,120
1,64,127,140
1,62,127,340
1,64,127,120
1,62,127,145
1,64,127,140
1,62,127,100
1,59,127,120
1,62,127,160
1,59,127,80
1,57,127,140
1,59,127,165
1,62,127,840
1,64,127,40
1,62,127,100
1,64,127,145
2,68,127,63340
2,59,127,0
2,64,127,0
2,68,127,240
2,59,127,0
2,64,127,0
2,68,127,360
2,64,127,0
2,59,127,0
2,68,127,240
2,59,127,0
2,64,127,0
2,68,127,9800
2,66,127,160
2,68,127,60
2,66,127,80
2,68,127,120
2,66,127,120
2,68,127,100
2,66,127,80
2,68,127,100
2,66,127,80
2,62,127,80
2,66,127,100
2,62,127,40
2,61,127,80
2,62,127,80
2,66,127,500
2,68,127,0
2,66,127,80
2,68,127,80
2,68,127,480
2,66,127,160
2,68,127,60
2,66,127,80
2,68,127,120
2,66,127,120
2,68,127,100
2,66,127,80
2,68,127,100
2,66,127,80
2,62,127,80
2,66,127,100
2,62,127,40
2,61,127,80
2,62,127,80
2,66,127,500
2,68,127,0
2,66,127,80
2,68,127,80
2,68,127,65760
2,66,127,160
2,68,127,60
2,66,127,80
2,68,127,120
2,66,127,120
2,68,127,100
2,66,127,80
2,68,127,100
2,66,127,80
2,62,127,80
2,66,127,100
2,62,127,40
2,61,127,80
2,62,127,80
2,66,127,500
2,68,127,0
2,66,127,80
2,68,127,80
2,68,127,480
2,66,127,160
2,68,127,60
2,66,127,80
2,68,127,120
2,66,127,120
2,68,127,100
2,66,127,80
2,68,127,100
2,66,127,80
2,62,127,80
2,66,127,100
2,62,127,40
2,61,127,80
2,62,127,80
2,66,127,500
2,68,127,0
2,66,127,80
2,68,127,80
3,69,127,93100
3,71,127,40
3,69,127,60
3,71,127,120
3,69,127,120
3,71,127,80
3,69,127,60
3,71,127,80
3,69,127,140
3,66,127,40
3,69,127,100
3,66,127,40
3,64,127,80
3,66,127,120
3,69,127,460
3,71,127,60
3,69,127,80
3,71,127,120
3,71,127,76920
3,69,127,180
3,71,127,40
3,69,127,60
3,71,127,120
3,69,127,120
3,71,127,80
3,69,127,60
3,71,127,80
3,69,127,140
3,66,127,40
3,69,127,100
3,66,127,40
3,64,127,80
3,66,127,120
3,69,127,460
3,71,127,60
3,69,127,80
3,71,127,120
4,59,127,92140
4,57,127,100
4,59,127,100
4,57,127,80
4,59,127,100
4,57,127,80
4,59,127,100
4,57,127,80
4,59,127,100
4,57,127,100
4,54,127,60
4,57,127,120
4,54,127,80
4,52,127,100
4,54,127,100
4,57,127,420
4,59,127,80
4,57,127,0
4,59,127,60
4,59,127,76840
4,57,127,100
4,59,127,100
4,57,127,80
4,59,127,100
4,57,127,80
4,59,127,100
4,57,127,80
4,59,127,100
4,57,127,100
4,54,127,60
4,57,127,120
4,54,127,80
4,52,127,100
4,54,127,100
4,57,127,420
4,59,127,80
4,57,127,0
4,59,127,60
5,59,127,24945
5,64,127,0
5,56,127,5
5,59,127,225
5,64,127,5
5,56,127,0
5,56,127,180
5,59,127,0
5,64,127,5
5,56,127,225
5,59,127,0
5,64,127,5
5,59,127,45
5,64,127,0
5,56,127,0
5,59,127,225
5,64,127,0
5,56,127,5
5,56,127,185
5,59,127,0
5,64,127,0
5,56,127,225
5,59,127,5
5,64,127,0
5,59,127,45
5,64,127,0
5,56,127,5
5,59,127,230
5,64,127,0
5,56,127,0
5,56,127,185
5,59,127,0
5,64,127,0
5,56,127,225
5,59,127,5
5,64,127,0
5,59,127,45
5,64,127,5
5,56,127,0
5,59,127,225
5,64,127,5
5,56,127,0
5,56,127,185
5,59,127,0
5,64,127,5
5,56,127,230
5,59,127,0
5,64,127,0
5,59,127,49965
5,64,127,0
5,56,127,5
5,59,127,225
5,64,127,0
5,56,127,5
5,56,127,180
5,59,127,5
5,64,127,0
5,56,127,225
5,59,127,0
5,64,127,5
5,59,127,45
5,64,127,0
5,56,127,5
5,59,127,225
5,64,127,0
5,56,127,5
5,56,127,185
5,59,127,0
5,64,127,0
5,56,127,230
5,59,127,0
5,64,127,0
5,59,127,45
5,64,127,0
5,56,127,0
5,59,127,225
5,64,127,0
5,56,127,5
5,56,127,180
5,59,127,0
5,64,127,5
5,56,127,220
5,59,127,0
5,64,127,0
5,59,127,45
5,64,127,0
5,56,127,5
5,59,127,225
5,64,127,0
5,56,127,5
5,56,127,185
5,59,127,0
5,64,127,0
5,56,127,225
5,59,127,0
5,64,127,0
5,59,127,45
5,64,127,0
5,56,127,5
5,59,127,225
5,64,127,0
5,56,127,5
5,56,127,185
5,59,127,5
5,64,127,0
5,56,127,225
5,59,127,5
5,64,127,0
5,59,127,50
5,64,127,0
5,56,127,0
5,59,127,230
5,64,127,0
5,56,127,5
5,56,127,190
5,59,127,0
5,64,127,0
5,56,127,225
5,59,127,0
5,64,127,5
5,59,127,45
5,64,127,0
5,56,127,0
5,59,127,225
5,64,127,5
5,56,127,0
5,56,127,185
5,59,127,0
5,64,127,5
5,56,127,220
5,59,127,5
5,64,127,0
5,59,127,32680
5,64,127,5
5,56,127,0
5,59,127,225
5,64,127,5
5,56,127,0
6,74,127,24940
6,80,127,0
6,74,127,240
6,76,127,0
6,80,127,0
6,76,127,160
6,74,127,0
6,71,127,240
6,74,127,80
6,71,127,0
6,76,80,160
6,71,127,100
6,76,127,60
6,71,127,0
6,74,127,120
6,71,127,200
6,76,92,0
6,74,127,120
6,76,72,20
6,77,86,0
6,76,127,200
6,71,127,0
6,74,127,5
6,76,127,180
6,71,124,80
6,76,127,100
6,71,127,0
6,74,127,0
6,71,127,140
6,76,127,80
6,74,127,0
6,71,112,0
6,76,98,0
6,74,127,80
6,71,127,0
6,76,127,0
6,76,72,160
6,76,127,60
6,71,127,0
6,74,124,0
6,74,127,20
6,80,127,0
6,74,127,240
6,76,127,0
6,80,127,0
6,76,127,160
6,74,127,0
6,71,127,240
6,74,127,80
6,71,127,0
6,76,80,160
6,71,127,100
6,76,127,60
6,71,127,0
6,74,127,120
6,71,127,200
6,76,92,0
6,74,127,120
6,76,72,20
6,77,86,0
6,76,127,200
6,71,127,5
6,74,127,0
6,76,127,180
6,71,124,80
6,76,127,100
6,71,127,0
6,74,127,0
6,71,127,140
6,76,127,80
6,74,127,0
6,71,112,0
6,76,98,0
6,74,127,80
6,71,127,0
6,76,127,0
6,76,72,160
6,76,127,60
6,71,127,0
6,74,124,0
6,74,127,20
6,80,127,0
6,74,127,240
6,76,127,5
6,80,127,0
6,76,127,160
6,74,127,0
6,71,127,240
6,74,127,80
6,71,127,0
6,76,80,160
6,71,127,100
6,76,127,60
6,71,127,0
6,74,127,120
6,71,127,200
6,76,92,0
6,74,127,120
6,76,72,20
6,77,86,0
6,76,127,200
6,71,127,0
6,74,127,5
6,76,127,180
6,71,124,80
6,76,127,100
6,71,127,0
6,74,127,5
6,71,127,140
6,76,127,80
6,74,127,0
6,71,112,0
6,76,98,0
6,74,127,80
6,71,127,0
6,76,127,0
6,76,72,160
6,76,127,60
6,71,127,0
6,74,124,0
6,74,127,25
6,80,127,0
6,74,127,240
6,76,127,0
6,80,127,0
6,76,127,160
6,74,127,0
6,71,127,240
6,74,127,80
6,71,127,0
6,76,80,160
6,71,127,100
6,76,127,60
6,71,127,0
6,74,127,120
6,71,127,200
6,76,92,0
6,74,127,120
6,76,72,20
6,77,86,0
6,76,127,200
6,71,127,5
6,74,127,0
6,76,127,180
6,71,124,80
6,76,127,100
6,71,127,0
6,74,127,0
6,71,127,140
6,76,127,80
6,74,127,0
6,71,112,0
6,76,98,0
6,74,127,80
6,71,127,0
6,76,127,0
6,76,72,160
6,76,127,60
6,71,127,0
6,74,124,0
6,74,127,49940
6,80,127,0
6,74,127,240
6,76,127,0
6,80,127,0
6,76,127,160
6,74,127,0
6,71,127,240
6,74,127,80
6,71,127,0
6,76,80,160
6,71,127,100
6,76,127,60
6,71,127,0
6,74,127,120
6,71,127,200
6,76,92,0
6,74,127,120
6,76,72,20
6,77,86,0
6,76,127,200
6,71,127,0
6,74,127,5
6,76,127,180
6,71,124,80
6,76,127,100
6,71,127,0
6,74,127,0
6,71,127,140
6,76,127,80
6,74,127,0
6,71,112,0
6,76,98,0
6,74,127,80
6,71,127,0
6,76,127,0
6,76,72,160
6,76,127,60
6,71,127,0
6,74,124,5
6,74,127,20
6,80,127,5
6,74,127,240
6,76,127,0
6,80,127,0
6,76,127,160
6,74,127,0
6,71,127,240
6,74,127,80
6,71,127,0
6,76,80,160
6,71,127,100
6,76,127,60
6,71,127,0
6,74,127,120
6,71,127,200
6,76,92,0
6,74,127,120
6,76,72,20
6,77,86,0
6,76,127,200
6,71,127,5
6,74,127,0
6,76,127,180
6,71,124,80
6,76,127,100
6,71,127,0
6,74,127,0
6,71,127,140
6,76,127,80
6,74,127,0
6,71,112,0
6,76,98,0
6,74,127,80
6,71,127,0
6,76,127,0
6,76,72,160
6,76,127,60
6,71,127,0
6,74,124,0
6,76,127,20
6,71,104,0
6,71,54,120
6,71,104,180
6,76,124,5
6,71,124,620
6,76,127,0
6,71,54,100
6,71,66,180
6,71,112,160
6,76,124,0
6,71,48,80
6,76,127,200
6,71,118,0
6,71,72,60
6,76,127,440
6,71,112,0
6,76,118,260
6,74,80,0
6,71,80,0
6,71,72,240
6,76,118,180
6,71,127,0
6,71,66,120
6,71,54,180
6,76,127,200
6,71,127,0
6,71,104,540
6,76,118,0
6,71,72,180
6,76,127,180
6,71,112,0
6,74,112,0
6,74,127,280
6,76,92,0
6,76,124,300
6,71,112,0
6,71,86,20
6,76,92,0
6,71,28,0
6,71,92,215
6,76,112,0
6,71,34,60
6,71,48,200
6,76,124,200
6,71,112,0
6,71,98,260
6,71,60,140
6,76,72,0
6,74,72,0
6,71,66,240
6,74,112,140
6,76,98,0
6,71,92,0
6,71,98,560
6,76,104,0
6,74,98,0
6,71,80,320
6,71,118,160
6,76,118,0
6,71,80,340
6,76,112,140
6,74,112,0
6,71,118,0
6,71,22,60
6,71,92,180
6,76,118,180
6,71,118,0
6,74,72,0
6,71,80,220
6,76,118,160
6,74,118,0
6,71,104,0
6,71,60,60
6,71,60,160
6,76,127,160
6,74,118,0
6,71,112,0
6,71,118,180
6,76,124,0
6,74,72,0
6,71,112,100
6,76,112,0
6,76,127,380
6,71,112,0
6,76,127,580
6,74,118,0
6,71,124,0
6,71,124,600
6,76,104,0
6,74,127,0
6,74,127,380
6,76,112,0
6,71,98,0
6,71,86,380
6,74,127,160
6,76,124,0
6,71,118,0
6,74,112,580
6,76,104,5
6,71,86,0
6,74,127,340
6,76,118,0
6,71,112,5
6,74,127,580
6,76,127,0
6,71,98,0
6,71,72,380
6,74,124,180
6,76,118,0
6,71,104,0
6,74,118,360
6,76,104,0
6,71,112,0
6,71,80,380
6,74,118,160
6,76,104,0
6,71,80,0
6,74,127,340
6,76,124,0
6,71,104,0
6,74,127,65
6,80,127,0
6,74,127,240
6,76,127,5
6,80,127,0
6,76,127,160
6,74,127,0
6,71,127,240
6,74,127,80
6,71,127,0
6,76,80,160
6,71,127,100
6,76,127,60
6,71,127,0
6,74,127,120
6,71,127,200
6,76,92,0
6,74,127,120
6,76,72,20
6,77,86,0
6,76,127,200
6,71,127,0
6,74,127,0
6,76,127,180
6,71,124,80
6,76,127,100
6,71,127,0
6,74,127,0
6,71,127,140
6,76,127,80
6,74,127,0
6,71,112,0
6,76,98,0
6,74,127,80
6,71,127,0
6,76,127,0
6,76,72,160
6,76,127,60
6,71,127,0
6,74,124,0
6,74,127,20
6,80,127,0
6,74,127,240
6,76,127,5
6,80,127,0
6,76,127,160
6,74,127,0
6,71,127,240
6,74,127,80
6,71,127,0
6,76,80,160
6,71,127,100
6,76,127,60
6,71,127,0
6,74,127,120
6,71,127,200
6,76,92,0
6,74,127,120
6,76,72,20
6,77,86,5
6,76,127,200
6,71,127,0
6,74,127,0
6,76,127,180
6,71,124,80
6,76,127,100
6,71,127,0
6,74,127,0
6,71,127,140
6,76,127,80
6,74,127,0
6,71,112,0
6,76,98,0
6,74,127,80
6,71,127,0
6,76,127,0
6,76,72,160
6,76,127,60
6,71,127,5
6,74,124,0
6,74,127,32660
6,80,127,0
6,74,127,240
6,76,127,0
6,80,127,5
6,71,127,860
6,76,127,20
7,52,127,143980
7,56,127,140
7,59,127,60
7,62,127,40
7,61,127,40
7,59,127,60
7,56,127,60
7,52,127,120
7,56,127,180
7,59,127,40
7,62,127,80
7,61,127,40
7,59,127,60
7,56,127,40
7,52,127,100
7,56,127,200
7,59,127,80
7,62,127,80
7,61,127,60
7,59,127,80
7,56,127,80
7,52,127,120
7,56,127,300
7,59,118,80
7,62,127,100
7,61,127,60
7,59,112,60
7,56,127,60
8,47,127,3340
8,45,127,60
8,40,127,20
8,47,127,360
8,35,127,60
8,47,127,40
8,45,127,0
8,40,127,80
8,47,127,360
8,35,127,60
8,47,127,40
8,45,127,0
8,40,127,80
8,47,127,360
8,35,127,60
8,47,127,40
8,45,127,0
8,40,127,80
8,47,127,360
8,35,127,60
8,47,127,40
8,45,127,0
8,40,127,80
8,47,127,360
8,35,127,60
8,47,127,40
8,45,127,0
8,40,127,80
8,47,127,360
8,35,127,60
8,47,127,40
8,45,127,0
8,40,127,80
8,47,127,360
8,35,127,60
8,47,127,40
8,45,127,0
8,40,127,80
8,47,127,360
8,35,127,60
8,47,127,45
8,45,127,0
8,40,127,80
8,47,127,360
8,35,127,60
8,47,127,40
8,45,127,0
8,40,127,80
8,47,127,360
8,35,127,60
8,47,127,40
8,45,127,0
8,40,127,85
8,47,127,360
8,35,127,60
8,47,127,40
8,45,127,0
8,40,127,100
8,47,127,360
8,35,127,65
8,47,127,40
8,45,127,0
8,40,127,80
8,47,127,360
8,35,127,60
8,47,127,45
8,45,127,0
8,40,127,90
8,47,127,360
8,35,127,60
8,47,127,40
8,45,127,0
8,40,127,80
8,47,127,365
8,35,127,60
8,47,127,40
