track,note,velocity,time
0,72,86,30
0,60,34,0
0,67,34,0
0,64,34,0
0,64,110,0
0,60,110,0
0,55,110,0
0,52,110,0
0,48,110,0
0,55,103,0
0,48,103,0
0,52,90,1
0,60,84,0
0,52,111,0
0,48,117,0
0,55,127,0
0,60,99,1
0,64,127,0
0,55,86,0
0,60,86,0
0,64,86,1
0,64,102,0
0,60,127,0
0,55,127,0
0,52,127,1
0,64,84,1
0,60,111,2
0,55,117,0
0,52,102,1
0,48,111,0
0,60,62,1
0,55,87,1
0,52,99,0
0,48,96,1
0,78,71,14
0,79,94,1
0,55,117,0
0,52,87,1
0,60,127,0
0,64,127,1
0,64,108,1
0,60,105,1
0,55,76,0
0,76,90,0
0,55,78,1
0,52,96,0
0,48,111,1
0,72,86,2
0,53,93,0
0,41,105,0
0,57,93,1
0,48,127,1
0,60,127,0
0,65,34,0
0,69,34,0
0,64,127,0
0,48,102,0
0,53,82,0
0,57,99,1
0,60,96,0
0,57,127,0
0,48,105,0
0,53,127,0
0,60,105,0
0,64,127,0
0,53,84,0
0,57,84,0
0,60,84,2
0,60,127,2
0,57,111,0
0,53,120,0
0,48,114,0
0,64,102,1
0,60,108,1
0,57,127,0
0,53,119,1
0,57,86,3
0,60,86,0
0,57,95,3
0,48,95,1
0,53,95,0
0,76,75,3
0,77,97,1
0,57,114,1
0,60,127,0
0,53,127,0
0,64,102,0
0,64,123,0
0,60,127,0
0,53,97,0
0,57,117,1
0,76,88,0
0,48,69,1
0,53,69,1
0,57,93,1
0,53,93,1
0,48,93,0
0,72,86,1
0,48,127,1
0,52,114,0
0,55,105,0
0,64,34,0
0,67,34,0
0,60,127,0
0,64,102,0
0,55,78,1
0,48,117,0
0,52,90,2
0,60,84,0
0,52,111,0
0,48,117,0
0,55,127,0
0,60,99,1
0,64,127,0
0,55,86,0
0,60,86,0
0,64,86,1
0,64,102,0
0,60,127,0
0,55,127,0
0,52,127,1
0,64,84,1
0,60,111,2
0,55,117,0
0,52,102,1
0,48,111,0
0,60,62,1
0,55,87,1
0,52,99,0
0,48,96,1
0,78,67,0
0,79,94,1
0,55,117,0
0,52,87,1
0,60,127,0
0,64,127,1
0,64,108,1
0,60,105,1
0,55,76,0
0,76,88,0
0,55,78,1
0,52,96,0
0,48,111,1
0,72,86,0
0,53,93,0
0,41,105,0
0,57,93,1
0,48,127,1
0,60,127,0
0,65,34,0
0,69,34,0
0,64,127,0
0,48,102,0
0,53,82,0
0,57,99,1
0,60,96,0
0,57,127,0
0,48,105,0
0,53,127,0
0,60,105,0
0,64,127,0
0,53,84,0
0,57,84,0
0,60,84,2
0,60,127,2
0,57,111,0
0,53,120,0
0,48,114,0
0,76,90,23
0,79,90,0
0,64,102,1
0,81,97,0
0,77,97,0
0,60,108,0
0,57,127,0
0,53,119,1
0,57,86,3
0,60,86,0
0,75,76,18
0,72,92,0
0,76,92,0
0,57,95,0
0,48,95,1
0,53,95,0
0,60,86,1
0,76,72,0
0,57,114,1
0,60,127,0
0,53,127,0
0,64,102,0
0,64,100,0
0,74,79,0
0,64,123,0
0,60,127,0
0,53,97,0
0,57,117,1
0,60,86,0
0,67,89,16
0,74,66,0
0,69,88,0
0,48,69,1
0,60,127,1
0,53,69,0
0,64,100,0
0,71,87,0
0,72,87,3
0,74,86,4
0,76,85,3
0,77,84,2
0,57,93,1
0,79,83,1
0,53,93,0
0,48,93,0
0,60,86,0
0,81,82,2
0,83,81,2
0,72,86,0
0,67,92,1
0,72,92,0
0,36,118,0
0,79,100,0
0,76,100,0
0,84,100,0
0,48,127,0
0,52,114,0
0,55,105,0
0,60,127,0
0,64,102,0
0,60,86,7
0,55,78,1
0,48,117,0
0,52,90,2
0,60,84,0
0,52,111,0
0,48,117,0
0,55,127,0
0,60,99,1
0,64,127,0
0,60,86,11
0,55,86,0
0,60,86,0
0,64,86,1
0,60,100,0
0,60,86,0
0,64,102,0
0,60,127,0
0,55,127,0
0,52,127,1
0,60,100,0
0,64,84,1
0,60,111,2
0,55,117,0
0,52,102,1
0,48,111,0
0,60,86,0
0,60,62,1
0,55,87,1
0,52,99,0
0,48,96,1
0,60,86,2
0,78,86,1
0,73,79,3
0,79,94,1
0,55,117,0
0,67,98,0
0,74,92,0
0,52,87,0
0,60,127,0
0,64,127,1
0,60,100,0
0,64,108,1
0,76,78,1
0,60,105,0
0,55,76,0
0,60,86,0
0,76,90,0
0,71,68,1
0,55,78,1
0,60,100,0
0,67,79,21
0,52,96,0
0,48,111,1
0,60,86,0
0,72,86,2
0,53,93,0
0,41,105,0
0,69,115,0
0,65,98,0
0,81,100,0
0,77,100,0
0,57,93,0
0,48,127,1
0,60,127,0
0,64,127,1
0,60,100,0
0,60,86,0
0,48,102,0
0,53,82,0
0,57,99,1
0,60,96,0
0,57,100,0
0,57,86,0
0,57,127,0
0,48,105,0
0,53,127,0
0,60,105,0
0,64,127,0
0,57,100,0
0,57,86,0
0,53,84,0
0,57,84,0
0,60,84,2
0,57,100,0
0,70,98,1
0,65,78,0
0,60,127,1
0,57,111,0
0,53,120,0
0,48,114,0
0,57,86,0
0,64,102,1
0,65,86,1
0,69,121,0
0,60,108,0
0,57,127,0
0,53,119,1
0,57,86,2
0,57,86,3
0,60,86,0
0,57,100,0
0,57,95,3
0,48,95,1
0,53,95,0
0,57,86,0
0,76,88,3
0,77,97,1
0,57,114,1
0,60,127,0
0,53,127,0
0,64,102,0
0,60,100,0
0,64,123,0
0,60,127,0
0,53,97,0
0,57,117,1
0,60,86,0
0,76,88,0
0,72,64,0
0,67,64,0
0,48,69,0
0,53,69,1
0,57,100,0
0,31,104,0
0,57,93,0
0,53,93,1
0,48,93,0
0,57,86,0
0,74,86,12
0,72,86,1
0,67,105,1
0,76,105,0
0,36,118,0
0,79,100,0
0,76,100,0
0,48,127,0
0,52,114,0
0,55,105,0
0,60,127,0
0,64,102,0
0,60,100,0
0,60,86,0
0,55,78,1
0,48,117,0
0,52,90,2
0,60,84,0
0,60,86,24
0,52,111,0
0,48,117,0
0,55,127,0
0,60,99,1
0,64,127,0
0,57,100,0
0,57,86,0
0,55,86,0
0,60,86,0
0,64,86,1
0,57,100,0
0,60,86,0
0,64,102,0
0,60,127,0
0,55,127,0
0,52,127,1
0,64,84,1
0,60,111,2
0,55,117,0
0,52,102,1
0,48,111,0
0,60,86,0
0,60,62,1
0,55,87,1
0,52,99,0
0,48,96,1
0,57,86,2
0,78,81,0
0,73,79,4
0,79,94,1
0,55,117,0
0,67,108,0
0,74,108,0
0,52,87,0
0,60,127,0
0,64,127,1
0,60,100,0
0,64,108,1
0,76,86,1
0,60,105,0
0,55,76,0
0,60,86,0
0,76,88,0
0,71,66,1
0,55,78,1
0,57,100,0
0,67,80,8
0,52,96,0
0,48,111,1
0,57,86,0
0,72,86,0
0,53,93,0
0,41,105,0
0,69,114,1
0,65,114,0
0,81,100,0
0,77,100,0
0,57,93,0
0,48,127,1
0,60,127,0
0,64,127,1
0,60,100,0
0,48,102,0
0,53,82,0
0,57,99,1
0,60,96,0
0,57,100,0
0,57,86,0
0,57,127,0
0,48,105,0
0,53,127,0
0,60,105,0
0,64,127,0
0,60,100,0
0,57,86,0
0,53,84,0
0,57,84,0
0,60,84,1
0,60,100,0
0,70,92,1
0,65,78,0
0,60,127,1
0,57,111,0
0,53,120,0
0,48,114,0
0,57,100,0
0,64,102,1
0,69,115,1
0,65,74,0
0,60,108,0
0,57,127,0
0,53,119,1
0,57,86,0
0,60,86,0
0,67,98,0
0,60,74,0
0,57,95,1
0,48,95,1
0,53,95,0
0,57,86,1
0,76,72,0
0,57,114,0
0,60,127,0
0,53,127,0
0,64,102,0
0,60,100,0
0,60,64,2
0,65,98,0
0,64,123,0
0,60,127,0
0,53,97,0
0,57,117,0
0,60,86,0
0,74,66,0
0,31,104,0
0,48,69,0
0,53,69,1
0,57,100,0
0,57,93,1
0,53,93,1
0,48,93,0
0,57,86,0
0,72,86,0
0,48,83,1
0,36,97,0
0,36,118,0
0,48,127,0
0,52,127,0
0,60,34,1
0,67,34,0
0,64,34,0
0,55,127,0
0,60,100,0
0,60,114,0
0,64,127,1
0,55,69,24
0,36,104,0
0,55,96,1
0,60,105,0
0,64,93,0
0,60,100,0
0,52,102,2
0,55,82,1
0,48,104,0
0,64,103,15
0,60,103,0
0,48,124,0
0,52,124,0
0,55,124,1
0,60,100,0
0,60,124,0
0,64,124,0
0,64,82,4
0,60,82,0
0,55,79,1
0,60,86,0
0,60,77,1
0,52,99,1
0,55,84,0
0,60,108,0
0,60,100,0
0,65,119,1
0,60,119,0
0,57,119,0
0,65,108,0
0,60,127,0
0,55,108,0
0,53,99,1
0,48,117,0
0,60,86,0
0,55,85,1
0,64,83,0
0,64,127,2
0,60,127,0
0,55,82,0
0,57,86,0
0,52,101,2
0,55,101,0
0,64,108,1
0,55,80,1
0,62,108,1
0,55,108,0
0,48,108,0
0,57,86,2
0,78,86,1
0,79,94,2
0,60,100,0
0,64,127,1
0,60,127,0
0,48,71,1
0,55,108,1
0,52,127,0
0,60,86,0
0,76,90,0
0,67,88,1
0,74,88,0
0,48,65,0
0,52,65,0
0,55,71,0
0,60,71,0
0,60,100,0
0,64,95,0
0,60,95,0
0,76,69,1
0,36,104,0
0,55,95,0
0,52,97,0
0,60,86,0
0,60,125,0
0,65,125,0
0,72,86,1
0,53,125,0
0,41,103,1
0,29,118,0
0,48,125,0
0,41,99,0
0,57,125,0
0,65,34,0
0,69,34,0
0,60,100,0
0,60,86,0
0,48,108,0
0,53,87,0
0,53,103,1
0,57,105,0
0,60,87,0
0,60,100,0
0,60,106,1
0,57,106,0
0,53,106,0
0,57,86,0
0,48,111,0
0,57,90,0
0,65,104,1
0,69,104,0
0,60,104,0
0,53,127,0
0,60,111,0
0,65,127,0
0,60,100,0
0,65,86,5
0,60,91,0
0,60,75,2
0,60,86,0
0,53,110,2
0,57,96,0
0,60,111,0
0,65,87,0
0,65,85,1
0,60,100,0
0,65,121,2
0,60,121,0
0,70,121,0
0,60,114,0
0,58,127,1
0,53,127,0
0,48,127,0
0,41,127,0
0,57,100,0
0,65,127,1
0,60,127,0
0,57,126,0
0,53,125,0
0,60,77,0
0,65,77,0
0,69,77,0
0,48,125,0
0,65,127,1
0,60,127,1
0,55,120,0
0,53,84,0
0,60,62,0
0,67,114,0
0,64,97,0
0,60,86,0
0,76,88,3
0,53,74,0
0,77,97,2
0,64,100,0
0,65,127,1
0,53,80,1
0,60,127,0
0,57,127,1
0,53,99,0
0,48,66,0
0,64,86,0
0,76,88,0
0,57,95,0
0,65,104,0
0,29,118,0
0,60,95,0
0,57,100,0
0,65,112,0
0,60,112,0
0,57,112,1
0,64,86,0
0,31,104,0
0,53,112,0
0,57,86,0
0,72,86,1
0,48,78,1
0,36,92,0
0,24,118,0
0,48,127,0
0,52,127,0
0,64,34,0
0,67,34,0
0,55,127,0
0,60,100,0
0,60,114,0
0,64,127,1
0,55,64,24
0,24,106,0
0,55,96,1
0,60,105,0
0,64,93,0
0,57,100,0
0,52,102,2
0,55,82,1
0,48,104,0
0,64,98,15
0,60,98,0
0,55,60,0
0,48,124,0
0,52,124,0
0,55,124,1
0,57,100,1
0,60,124,0
0,64,124,0
0,64,82,4
0,60,82,0
0,55,74,1
0,57,86,0
0,60,72,1
0,52,99,1
0,55,84,0
0,60,108,0
0,57,100,0
0,65,114,1
0,60,114,0
0,57,114,0
0,65,108,0
0,60,127,0
0,55,108,0
0,53,99,1
0,48,117,0
0,60,86,0
0,55,80,1
0,64,78,0
0,64,127,2
0,60,127,0
0,55,82,0
0,57,86,0
0,52,101,2
0,55,101,0
0,64,108,1
0,55,75,1
0,62,108,1
0,55,108,0
0,48,108,0
0,57,86,2
0,78,81,0
0,79,94,3
0,60,100,0
0,64,127,1
0,60,127,0
0,48,66,1
0,55,108,1
0,52,127,0
0,60,86,0
0,76,88,0
0,67,83,1
0,74,83,0
0,48,65,0
0,52,65,0
0,55,71,0
0,60,71,0
0,60,100,0
0,64,95,0
0,60,95,0
0,76,64,1
0,31,104,0
0,55,95,0
0,52,97,0
0,60,86,0
0,60,125,0
0,65,125,0
0,72,86,0
0,53,125,0
0,41,98,1
0,29,118,0
0,48,125,0
0,41,99,0
0,57,125,0
0,65,34,0
0,69,34,0
0,60,100,0
0,48,108,0
0,53,87,0
0,53,98,1
0,57,105,0
0,60,87,0
0,57,100,0
0,60,106,1
0,57,106,0
0,53,106,0
0,57,86,0
0,48,111,0
0,57,90,0
0,65,99,1
0,69,99,0
0,60,99,0
0,53,127,0
0,60,111,0
0,65,127,0
0,65,100,0
0,65,86,5
0,60,91,0
0,60,70,2
0,65,86,0
0,53,110,2
0,57,96,0
0,60,111,0
0,65,87,0
0,65,80,1
0,64,100,0
0,65,116,2
0,60,116,0
0,70,116,0
0,60,114,0
0,58,127,1
0,53,127,0
0,48,127,0
0,41,127,0
0,60,86,0
0,65,127,1
0,60,127,0
0,57,126,0
0,53,125,0
0,60,72,0
0,65,72,0
0,69,72,0
0,48,125,0
0,60,86,3
0,55,118,1
0,57,100,1
0,65,127,1
0,60,127,0
0,55,120,0
0,53,84,0
0,60,57,0
0,67,109,0
0,64,92,0
0,60,83,2
0,55,86,1
0,53,74,1
0,76,72,0
0,57,100,0
0,62,103,1
0,65,127,1
0,53,75,1
0,60,127,0
0,57,127,1
0,53,99,0
0,48,66,0
0,60,86,0
0,74,66,0
0,57,95,0
0,65,99,0
0,36,104,0
0,60,95,0
0,64,100,0
0,65,112,0
0,60,112,0
0,57,112,0
0,64,81,0
0,53,112,0
0,62,86,0
0,72,86,0
0,48,78,1
0,36,92,0
0,36,118,0
0,48,127,0
0,52,127,1
0,60,34,0
0,67,34,0
0,64,34,0
0,55,127,0
0,60,100,0
0,60,114,0
0,60,89,1
0,64,127,0
0,55,64,24
0,36,104,0
0,55,96,1
0,60,105,0
0,64,93,0
0,60,100,0
0,52,102,2
0,55,82,1
0,48,104,0
0,64,98,15
0,60,98,0
0,55,60,0
0,48,124,0
0,52,124,0
0,55,124,1
0,64,100,1
0,60,124,0
0,64,124,0
0,64,82,4
0,60,82,0
0,55,74,1
0,64,86,0
0,60,72,1
0,52,99,1
0,55,84,0
0,60,108,0
0,62,100,0
0,65,114,1
0,60,114,0
0,57,114,0
0,65,108,0
0,60,127,0
0,55,108,0
0,53,99,1
0,48,117,0
0,60,86,0
0,55,80,1
0,64,78,0
0,64,127,2
0,60,127,0
0,55,82,0
0,60,86,0
0,52,101,2
0,55,101,0
0,64,108,1
0,55,75,1
0,62,108,1
0,55,108,0
0,48,108,0
0,64,86,2
0,78,86,1
0,79,94,2
0,64,127,1
0,60,127,0
0,48,66,1
0,36,110,0
0,55,108,1
0,52,127,0
0,64,86,0
0,76,90,0
0,67,83,1
0,74,83,0
0,28,104,0
0,48,65,0
0,52,65,0
0,55,71,0
0,60,71,0
0,64,100,0
0,64,95,0
0,60,95,0
0,76,64,1
0,55,95,0
0,52,97,0
0,62,86,0
0,60,125,0
0,65,125,0
0,72,86,1
0,53,125,0
0,41,98,1
0,29,118,0
0,48,125,0
0,41,99,0
0,57,125,0
0,65,34,0
0,69,34,0
0,60,100,0
0,48,108,0
0,53,87,0
0,53,98,1
0,57,105,0
0,60,87,0
0,60,100,3
0,60,106,1
0,57,106,0
0,53,106,0
0,48,111,0
0,57,90,0
0,65,99,1
0,69,99,0
0,60,99,0
0,53,127,0
0,60,111,0
0,65,127,0
0,60,100,3
0,65,86,5
0,60,91,0
0,60,70,2
0,60,86,0
0,53,110,2
0,57,96,0
0,60,111,0
0,65,87,0
0,65,80,1
0,57,100,0
0,65,116,2
0,60,116,0
0,70,116,0
0,60,114,0
0,58,127,1
0,53,127,0
0,48,127,0
0,41,127,0
0,57,86,0
0,60,100,0
0,65,127,1
0,60,127,0
0,57,126,0
0,53,125,0
0,60,72,0
0,65,72,0
0,69,72,0
0,48,125,0
