track,note,velocity,time
0,50,103,7
0,74,127,0
0,71,59,0
0,69,59,1
0,78,59,0
0,74,59,0
0,50,59,0
0,26,127,0
0,38,127,0
0,51,83,0
0,67,94,1
0,55,103,24
0,62,89,0
0,66,127,0
0,62,76,24
0,67,94,0
0,62,98,19
0,66,127,0
0,74,127,0
0,51,83,1
0,67,94,1
0,55,103,24
0,62,95,0
0,51,83,0
0,66,127,5
0,51,83,0
0,62,95,21
0,67,94,0
0,51,83,0
0,62,92,0
0,66,127,12
0,38,127,0
0,52,103,0
0,74,127,0
0,76,59,0
0,74,59,0
0,72,59,0
0,52,59,0
0,40,127,1
0,51,83,0
0,67,94,21
0,69,59,20
0,51,83,0
0,60,84,0
0,57,103,0
0,51,83,3
0,66,127,1
0,60,89,18
0,67,94,0
0,60,98,22
0,66,127,1
0,28,127,0
0,74,127,0
0,67,94,5
0,57,103,20
0,60,95,0
0,66,127,1
0,60,95,18
0,67,94,24
0,60,102,21
0,66,127,0
0,40,127,0
0,42,67,0
0,50,103,0
0,74,127,0
0,78,59,0
0,69,59,1
0,71,59,0
0,74,59,0
0,50,59,0
0,38,127,0
0,51,83,0
0,67,94,23
0,55,103,21
0,62,95,0
0,51,83,0
0,66,127,12
0,51,83,0
0,62,98,22
0,67,94,0
0,62,95,22
0,66,127,0
0,74,127,1
0,26,127,0
0,67,94,4
0,55,103,24
0,62,95,0
0,66,127,0
0,62,102,12
0,67,94,0
0,62,102,12
0,51,83,0
0,66,127,0
0,26,127,0
0,51,83,0
0,52,103,0
0,74,127,0
0,74,59,0
0,76,59,0
0,72,59,0
0,69,59,0
0,52,59,0
0,40,127,1
0,51,83,0
0,67,94,21
0,57,103,21
0,60,98,0
0,66,127,3
0,60,98,24
0,67,94,1
0,60,98,24
0,66,127,3
0,28,127,0
0,44,67,0
0,74,127,5
0,28,127,0
0,67,94,4
0,42,84,0
0,57,103,20
0,60,98,0
0,42,89,0
0,66,127,1
0,62,127,0
0,42,83,0
0,60,95,9
0,42,100,0
0,67,94,2
0,42,113,0
0,64,127,1
0,60,102,13
0,46,84,0
0,66,127,0
0,67,127,0
0,43,85,9
0,59,85,0
0,62,85,0
0,57,85,0
0,66,85,0
0,71,59,0
0,69,59,0
0,78,59,1
0,74,59,0
0,50,59,0
0,66,127,0
0,31,127,0
0,70,70,0
0,36,65,45
0,44,56,0
0,44,40,4
0,70,66,5
0,44,40,3
0,31,127,20
0,44,39,0
0,70,47,0
0,31,127,23
0,44,31,0
0,44,37,20
0,47,85,1
0,70,47,0
0,35,127,17
0,44,34,2
0,62,127,4
0,44,40,8
0,63,127,0
0,67,85,0
0,59,85,0
0,48,85,0
0,64,85,0
0,62,85,0
0,64,127,0
0,36,127,0
0,70,70,0
0,46,55,0
0,36,65,45
0,44,40,0
0,44,40,23
0,70,66,23
0,44,33,47
0,44,42,23
0,70,47,47
0,44,36,23
0,44,40,23
0,40,127,0
0,70,47,0
0,33,127,12
0,44,38,1
0,46,55,0
0,44,40,1
0,66,85,0
0,62,85,0
0,57,85,0
0,59,85,0
0,43,85,0
0,31,127,1
0,70,70,0
0,62,127,23
0,36,65,16
0,44,39,0
0,64,127,12
0,44,41,8
0,67,127,8
0,70,66,0
0,66,127,8
0,44,33,1
0,69,127,15
0,44,37,8
0,70,47,47
0,44,33,23
0,31,127,0
0,44,39,0
0,47,85,11
0,35,127,0
0,70,47,0
0,67,127,5
0,44,48,16
0,46,55,0
0,66,127,8
0,44,42,8
0,48,85,0
0,64,85,1
0,62,85,0
0,67,85,0
0,59,85,0
0,67,114,0
0,36,127,0
0,70,70,0
0,36,65,12
0,44,40,0
0,44,40,12
0,70,66,12
0,44,45,47
0,44,40,23
0,70,47,2
0,44,52,1
0,44,42,0
0,40,127,7
0,70,47,0
0,33,127,16
0,72,127,1
0,44,37,0
0,74,127,1
0,44,42,8
0,57,85,0
0,59,85,0
0,66,85,0
0,43,85,0
0,62,85,0
0,71,94,0
0,31,127,1
0,36,82,0
0,70,66,0
0,70,47,23
0,69,127,23
0,36,82,0
0,44,62,0
0,44,41,9
0,69,127,23
0,70,74,0
0,55,48,0
0,38,95,0
0,69,127,36
0,44,54,0
0,44,42,12
0,69,127,23
0,36,82,0
0,70,47,9
0,44,41,23
0,75,127,23
0,44,41,0
0,76,127,0
0,47,85,9
0,35,127,0
0,70,74,0
0,55,40,0
0,38,87,0
0,74,127,1
0,44,40,0
0,44,43,0
0,48,85,0
0,67,85,1
0,64,85,0
0,62,85,0
0,59,85,0
0,67,127,0
0,36,127,0
0,36,82,0
0,70,66,0
0,46,55,0
0,70,47,23
0,67,127,1
0,36,82,0
0,44,48,0
0,44,50,12
0,67,127,23
0,70,74,0
0,55,52,0
0,38,99,0
0,67,127,40
0,44,54,0
0,44,46,15
0,67,102,23
0,36,127,1
0,36,82,0
0,70,53,0
0,44,43,23
0,44,38,1
0,40,127,0
0,70,74,0
0,55,56,0
0,38,103,0
0,33,127,14
0,70,47,0
0,44,40,1
0,46,55,0
0,44,38,1
0,59,85,0
0,57,85,0
0,66,85,0
0,62,85,0
0,43,85,0
0,69,127,0
0,31,127,1
0,36,82,0
0,70,66,0
0,70,47,0
0,69,127,12
0,36,58,0
0,44,44,0
0,44,43,12
0,69,127,12
0,70,74,0
0,55,48,0
0,38,95,0
0,69,127,36
0,44,46,0
0,44,40,17
0,69,127,23
0,36,82,0
0,70,47,12
0,44,56,23
0,31,127,0
0,36,62,0
0,44,45,0
0,75,127,7
0,47,85,1
0,76,127,0
0,35,127,0
0,70,74,0
0,55,40,0
0,38,87,0
0,74,127,5
0,44,48,0
0,46,55,0
0,44,46,12
0,59,85,4
0,64,85,1
0,48,85,0
0,62,85,0
0,67,85,0
0,67,127,0
0,36,127,0
0,36,82,1
0,70,66,0
0,70,47,23
0,67,127,1
0,36,82,0
0,44,50,0
0,66,127,8
0,44,44,0
0,67,127,9
0,70,74,0
0,55,52,0
0,38,99,0
0,69,127,8
0,43,107,0
0,67,101,0
0,71,127,0
0,43,112,0
0,44,62,0
0,72,127,0
0,43,101,0
0,44,50,0
0,67,108,14
0,74,127,0
0,43,78,0
0,36,82,1
0,70,53,0
0,67,92,10
0,55,68,0
0,44,56,0
0,55,68,1
0,44,53,0
0,67,72,23
0,70,74,0
0,55,56,0
0,38,103,0
0,59,72,1
0,70,47,0
0,62,92,10
0,67,52,0
0,44,53,0
0,59,95,0
0,44,52,0
0,62,115,10
0,62,85,0
0,57,85,0
0,59,85,0
0,43,85,0
0,66,85,0
0,36,82,1
0,70,70,0
0,44,56,47
0,44,40,23
0,70,66,23
0,62,89,9
0,44,40,1
0,62,89,15
0,31,127,8
0,44,39,0
0,62,118,13
0,31,127,0
0,36,82,0
0,62,53,3
0,70,47,0
0,62,76,10
0,44,31,0
0,62,84,10
0,44,37,0
0,62,98,4
0,47,85,0
0,35,127,0
0,70,47,1
0,60,86,6
0,60,67,13
0,44,34,0
0,62,65,11
0,44,40,0
0,60,98,1
0,59,85,0
0,67,85,0
0,62,85,0
0,64,85,0
0,36,85,0
0,36,127,1
0,36,82,0
0,70,70,0
0,46,55,0
0,60,92,13
0,36,82,0
0,44,40,0
0,44,40,9
0,70,66,23
0,44,33,47
0,44,42,23
0,36,82,47
0,70,47,0
0,44,36,8
0,44,40,6
0,40,127,0
0,70,47,0
0,59,81,13
0,33,127,0
0,62,65,0
0,44,38,0
0,46,55,0
0,59,86,1
0,44,40,0
0,62,98,0
0,66,85,0
0,43,85,0
0,59,85,0
0,57,85,0
0,62,85,0
0,31,127,1
0,36,82,0
0,70,70,0
0,62,68,9
0,62,76,9
0,44,39,0
0,44,41,7
0,70,66,23
0,59,92,23
0,62,89,7
0,44,33,0
0,59,89,5
0,44,37,0
0,62,95,6
0,36,82,0
0,70,47,7
0,62,89,7
0,44,33,16
0,62,98,13
0,44,39,8
0,62,102,8
0,47,85,0
0,35,127,1
0,70,47,0
0,62,92,0
0,44,48,16
0,46,55,0
0,59,109,12
0,44,42,8
0,55,105,1
0,59,85,0
0,67,85,0
0,62,85,0
0,64,85,0
0,36,85,0
0,36,127,1
0,36,82,0
0,70,70,0
0,55,112,9
0,36,82,0
0,44,40,0
0,44,40,23
0,70,66,23
0,44,45,47
0,44,40,23
0,36,82,46
0,70,47,0
0,44,52,23
0,44,42,23
0,36,127,0
0,70,47,0
0,59,98,23
0,62,102,2
0,44,37,0
0,59,92,1
0,44,42,0
0,62,112,0
0,43,85,0
0,66,85,0
0,59,85,0
0,57,85,0
0,62,85,0
0,31,127,1
0,36,82,0
0,70,66,0
0,70,47,4
0,62,76,7
0,44,62,16
0,62,81,8
0,44,41,8
0,62,95,11
0,70,74,0
0,55,48,0
0,38,95,0
0,59,89,10
0,44,54,16
0,62,105,11
0,44,42,8
0,62,95,9
0,36,82,0
0,70,47,23
0,44,41,23
0,59,95,15
0,31,127,0
0,44,41,0
0,62,105,8
0,47,85,0
0,38,127,0
0,70,74,0
0,55,40,0
0,38,87,0
0,62,76,17
0,44,40,8
0,60,115,11
0,44,43,0
0,55,105,1
0,59,85,0
0,62,85,0
0,64,85,1
0,67,85,0
0,36,85,0
0,36,127,0
0,36,82,0
0,70,66,0
0,46,55,0
0,70,47,23
0,36,82,23
0,44,48,0
0,44,50,23
0,70,74,23
0,55,52,0
0,38,99,0
0,44,54,47
0,44,46,23
0,36,82,0
0,70,53,0
0,44,43,4
0,44,38,4
0,40,127,0
0,70,74,0
0,55,56,0
0,38,103,0
0,59,89,16
0,33,127,0
0,70,47,0
0,62,81,4
0,44,40,0
0,46,55,0
0,59,95,1
0,44,38,0
0,62,112,0
0,62,85,0
0,66,85,0
0,57,85,0
0,59,85,0
0,43,85,0
0,31,127,1
0,36,82,0
0,70,66,0
0,70,47,4
0,62,78,7
0,44,44,16
0,59,95,10
0,44,43,8
0,62,109,5
0,70,74,0
0,55,48,0
0,38,95,0
0,62,72,11
0,44,46,16
0,59,89,6
0,44,40,8
0,62,109,7
0,36,82,0
0,70,47,23
0,59,102,10
0,44,56,0
0,31,127,1
0,44,45,0
0,60,109,5
0,47,85,0
0,35,127,0
0,70,74,0
0,55,40,0
0,38,87,1
0,62,105,8
0,44,48,0
0,46,55,0
0,44,46,23
0,60,95,4
0,64,85,0
0,67,85,0
0,36,85,1
0,62,85,0
0,59,85,0
0,36,127,0
0,59,102,9
0,55,118,3
0,43,127,25
0,48,99,12
0,64,85,0
0,67,85,0
0,36,85,0
0,62,85,0
0,59,85,0
0,48,106,1
0,59,84,4
0,62,92,5
0,59,89,3
0,62,105,0
0,57,85,0
0,59,85,0
0,43,85,0
0,66,85,0
0,62,85,0
0,31,127,0
0,36,82,0
0,70,70,0
0,42,79,0
0,62,81,7
0,42,19,0
0,62,68,6
0,62,106,0
0,66,106,0
0,36,82,0
0,42,43,0
0,44,56,0
0,46,46,1
0,62,102,9
0,42,15,0
0,44,40,0
0,62,86,6
0,66,106,0
0,62,106,0
0,59,106,0
0,57,106,0
0,55,48,0
0,38,95,1
0,70,66,0
0,42,83,0
0,62,86,3
0,42,19,0
0,59,72,3
0,42,39,0
0,44,40,0
0,62,95,1
0,31,127,0
0,36,82,0
0,42,35,0
0,44,39,0
0,66,106,8
0,62,106,0
0,59,106,0
0,57,106,0
0,31,127,0
0,42,79,0
0,46,46,1
0,62,102,12
0,70,47,0
0,42,35,9
0,44,31,0
0,46,46,0
0,66,106,23
0,62,106,0
0,59,106,0
0,57,106,0
0,36,82,0
0,42,23,0
0,44,37,1
0,59,109,5
0,47,85,0
0,35,127,0
0,55,40,0
0,38,87,0
0,70,47,1
0,42,83,0
0,62,112,7
0,62,106,0
0,66,106,0
0,59,106,0
0,57,106,0
0,42,35,0
0,59,102,8
0,42,39,0
0,44,34,0
0,46,46,0
0,55,105,10
0,42,39,0
0,44,40,0
0,59,85,0
0,67,85,0
0,62,85,0
0,64,85,0
0,48,85,0
0,36,127,0
0,36,82,1
0,70,70,0
0,42,79,0
0,55,115,15
0,42,19,0
0,59,106,23
0,62,106,0
0,64,106,0
0,67,106,1
0,36,82,0
0,42,43,0
0,44,40,0
0,46,46,0
0,42,15,12
0,44,40,0
0,67,106,23
0,59,106,0
0,62,106,0
0,64,106,1
0,55,52,0
0,38,99,0
0,70,66,0
0,42,83,0
0,42,19,12
0,59,106,23
0,67,106,0
0,62,106,0
0,64,106,0
0,42,39,0
0,44,33,0
0,36,82,12
0,42,35,0
0,44,42,0
0,59,106,23
0,67,106,0
0,62,106,0
0,42,79,0
0,46,46,0
0,70,47,12
0,42,35,23
0,44,36,0
0,46,46,0
0,64,106,23
0,62,106,0
0,67,106,0
0,71,106,0
0,36,82,0
0,42,23,0
0,44,40,1
0,55,56,23
0,38,103,0
0,70,47,0
0,42,83,0
0,59,81,23
0,42,35,0
0,62,92,0
0,42,39,0
0,44,38,0
0,46,46,0
0,59,102,1
0,36,127,0
0,42,39,0
0,44,40,0
0,62,92,11
0,62,85,0
0,66,85,0
0,43,85,0
0,59,85,0
0,57,85,1
0,31,127,0
0,36,82,0
0,70,70,0
0,42,79,0
0,42,19,6
0,62,86,7
0,62,106,16
0,66,106,0
0,36,82,0
0,42,43,0
0,44,39,0
0,46,46,0
0,62,109,4
0,42,15,8
0,44,41,0
0,62,109,18
0,62,106,0
0,66,106,0
0,57,106,0
0,59,106,0
0,55,48,0
0,38,95,1
0,70,66,0
0,42,83,0
0,42,19,12
0,59,84,4
0,42,39,16
0,44,33,0
0,62,95,11
0,36,82,8
0,42,35,0
0,44,37,0
0,62,102,2
0,66,106,0
0,62,106,0
0,59,106,0
0,57,106,0
0,42,79,0
0,46,46,1
0,70,47,5
0,62,95,7
0,42,35,16
0,44,33,0
0,46,46,0
0,66,106,19
0,62,106,0
0,59,106,0
0,57,106,0
0,36,82,0
0,42,23,0
0,44,39,1
0,60,95,12
0,47,85,0
0,35,127,0
0,55,40,0
0,38,87,0
0,70,47,1
0,42,83,0
0,42,35,4
0,60,89,4
0,42,39,16
0,44,48,0
0,46,46,0
0,62,102,12
0,42,39,8
0,44,42,0
0,60,109,0
0,59,85,0
0,67,85,0
0,62,85,0
0,64,85,0
0,48,85,0
0,36,127,1
0,36,82,0
0,70,70,0
0,42,79,0
0,42,19,21
0,60,102,13
0,59,106,0
0,67,106,0
0,62,106,0
0,64,106,0
0,36,82,1
0,42,43,0
0,44,40,0
0,46,46,0
0,42,15,12
0,44,40,0
0,59,106,18
0,62,106,0
0,64,106,0
0,67,106,1
0,55,48,0
0,38,95,0
0,70,66,0
0,42,83,0
0,42,19,12
0,42,39,23
0,44,45,0
0,36,82,23
0,42,35,0
0,44,40,0
0,62,106,23
0,59,106,0
0,64,106,0
0,67,106,0
0,42,79,0
0,46,46,1
0,70,47,12
0,42,35,23
0,44,52,0
0,46,46,0
0,62,106,23
0,71,106,0
0,64,106,0
0,67,106,0
0,36,82,0
0,42,23,0
0,44,42,1
0,55,40,23
0,38,87,0
0,70,47,0
0,42,83,0
0,59,84,23
0,42,35,0
0,62,95,4
0,42,39,0
0,44,37,0
0,46,46,1
0,59,98,6
0,36,127,0
0,42,39,0
0,44,42,0
0,62,95,10
0,62,85,0
0,43,85,0
0,66,85,0
0,59,85,0
0,57,85,0
0,31,127,1
0,36,82,0
0,70,66,0
0,42,79,0
0,70,47,2
0,42,19,0
0,62,95,7
0,66,106,16
0,62,106,0
0,57,106,0
0,59,106,0
0,36,82,0
0,42,43,0
0,44,62,1
0,46,46,0
0,62,102,4
0,42,15,8
0,44,41,0
0,62,109,10
0,66,106,0
0,62,106,0
0,59,106,0
0,57,106,0
0,55,48,1
0,38,95,0
0,70,74,0
0,42,83,0
0,42,19,12
0,59,102,6
0,42,39,16
0,44,54,0
0,62,98,13
0,36,82,8
0,42,35,0
0,44,42,0
0,62,98,5
0,62,106,0
0,66,106,0
0,59,106,0
0,42,79,0
0,46,46,0
0,70,47,1
0,62,84,7
0,42,35,16
