track,note,velocity,time
0,35,123,65
0,43,103,0
0,54,63,0
0,81,125,10
0,43,90,100
0,54,36,0
0,43,95,70
0,54,27,0
0,54,33,110
0,43,103,70
0,54,62,0
0,40,127,7
0,43,94,55
0,54,31,0
0,43,91,70
0,54,30,0
0,54,22,110
0,66,111,0
0,35,126,0
0,49,89,0
0,50,119,0
0,67,94,0
0,72,93,0
0,45,65,5
0,64,90,5
0,66,110,30
0,66,111,30
0,55,101,0
0,42,99,1
0,66,111,7
0,45,81,17
0,50,100,0
0,64,84,0
0,67,87,0
0,72,85,0
0,67,110,30
0,40,124,1
0,42,120,6
0,55,96,103
0,67,111,60
0,42,95,6
0,62,110,40
0,64,110,20
0,55,97,0
0,35,127,3
0,42,123,4
0,64,111,30
0,64,111,30
0,42,96,8
0,55,103,20
0,62,110,20
0,64,110,10
0,40,123,6
0,42,121,4
0,57,111,20
0,55,96,0
0,42,90,7
0,64,111,2
0,50,118,0
0,64,86,0
0,72,91,0
0,45,59,2
0,35,127,1
0,42,120,0
0,67,90,2
0,64,110,2
0,62,110,8
0,64,111,10
0,35,126,0
0,42,91,5
0,57,110,0
0,45,72,30
0,50,107,0
0,64,86,0
0,67,91,0
0,72,85,0
0,64,111,22
0,42,123,2
0,40,127,6
0,57,111,5
0,64,110,43
0,42,90,3
0,57,111,5
0,64,110,43
0,35,127,5
0,42,122,0
0,57,110,14
0,64,111,34
0,42,93,5
0,62,111,14
0,64,110,14
0,40,124,1
0,42,121,2
0,57,110,30
0,42,92,7
0,35,126,4
0,42,120,0
0,81,122,0
0,45,62,0
0,50,119,0
0,67,94,0
0,64,90,4
0,72,93,0
0,57,111,4
0,66,111,19
0,55,97,0
0,42,99,1
0,64,110,0
0,45,89,25
0,50,110,5
0,64,84,0
0,67,87,0
0,72,85,0
0,66,110,30
0,40,125,1
0,42,120,2
0,55,92,20
0,57,111,20
0,42,95,11
0,57,110,123
0,66,111,20
0,55,92,0
0,35,126,3
0,42,123,4
0,64,111,20
0,66,110,20
0,42,96,8
0,55,99,0
0,64,111,20
0,66,110,10
0,40,122,6
0,42,121,4
0,57,110,20
0,55,93,80
0,42,90,4
0,67,111,2
0,45,66,0
0,50,118,0
0,64,87,0
0,67,90,0
0,72,91,0
0,35,127,3
0,42,120,0
0,66,111,18
0,67,110,15
0,35,127,0
0,42,91,5
0,66,110,10
0,45,81,30
0,50,106,0
0,64,87,0
0,67,90,0
0,72,78,0
0,67,111,10
0,42,123,2
0,40,126,6
0,60,111,0
0,66,110,15
0,42,90,3
0,66,110,13
0,64,111,8
0,66,110,8
0,35,126,5
0,42,122,0
0,57,111,5
0,45,89,15
0,57,111,5
0,53,110,25
0,66,110,0
0,45,67,0
0,50,85,0
0,42,93,5
0,60,82,7
0,67,72,0
0,64,71,3
0,57,111,17
0,62,110,35
0,57,97,0
0,40,125,1
0,64,110,20
0,67,77,54
0,64,76,2
0,60,78,2
0,45,73,1
0,50,86,0
0,66,111,10
0,42,93,87
0,57,111,20
0,33,89,3
0,36,113,0
0,71,1,0
0,35,126,0
0,49,88,0
0,59,89,0
0,55,86,0
0,67,110,1
0,48,91,4
0,55,96,1
0,71,1,10
0,67,110,1
0,71,1,10
0,67,111,2
0,55,72,0
0,42,98,1
0,71,1,10
0,67,111,2
0,67,110,10
0,71,1,0
0,55,67,0
0,40,125,1
0,42,120,2
0,55,61,20
0,42,95,7
0,36,88,33
0,55,52,7
0,67,110,1
0,35,127,2
0,43,109,3
0,42,122,1
0,55,91,14
0,45,100,12
0,67,111,5
0,67,110,25
0,64,100,0
0,55,44,0
0,42,97,8
0,59,98,5
0,48,112,8
0,67,111,12
0,67,111,10
0,55,41,0
0,40,122,6
0,42,121,4
0,55,95,20
0,45,95,13
0,43,113,10
0,55,110,0
0,55,34,0
0,42,90,4
0,67,111,2
0,48,93,0
0,35,127,3
0,42,121,0
0,36,104,1
0,55,86,2
0,67,110,2
0,67,110,50
0,42,90,5
0,67,111,50
0,67,111,54
0,42,122,2
0,40,126,6
0,67,110,47
0,67,110,52
0,42,91,3
0,67,111,33
0,24,88,23
0,67,111,0
0,35,126,5
0,42,123,0
0,31,117,1
0,67,110,0
0,55,90,4
0,33,105,12
0,67,110,63
0,64,101,0
0,42,92,5
0,67,111,58
0,59,99,15
0,36,112,8
0,67,110,59
0,40,125,1
0,42,120,2
0,67,111,0
0,55,78,20
0,38,94,3
0,40,111,7
0,67,111,0
0,67,92,0
0,42,97,7
0,64,85,23
0,46,101,12
0,36,114,15
0,55,110,0
0,35,126,0
0,42,121,0
0,55,87,0
0,48,94,8
0,55,87,2
0,55,73,0
0,42,98,1
0,67,111,32
0,69,110,20
0,55,66,0
0,40,125,1
0,42,120,6
0,55,110,20
0,55,61,0
0,42,95,7
0,36,89,23
0,67,111,7
0,55,52,0
0,35,127,3
0,43,109,3
0,42,122,1
0,45,100,32
0,67,111,4
0,67,110,14
0,64,89,0
0,55,44,0
0,42,97,8
0,59,80,20
0,48,113,8
0,67,110,12
0,67,111,10
0,55,41,0
0,40,122,6
0,42,121,4
0,45,94,113
0,43,112,10
0,55,111,0
0,67,87,0
0,55,35,0
0,46,100,4
0,64,88,0
0,31,81,3
0,67,110,2
0,35,126,3
0,42,120,0
0,36,105,4
0,67,110,22
0,67,111,20
0,59,90,0
0,42,91,5
0,55,77,30
0,67,110,10
0,67,111,20
0,38,110,2
0,42,122,0
0,40,126,6
0,67,111,2
0,67,110,15
0,42,90,3
0,64,85,8
0,43,90,30
0,31,74,3
0,59,80,3
0,67,111,4
0,67,110,20
0,40,117,2
0,41,119,2
0,43,82,30
0,67,110,10
0,67,86,15
0,67,111,8
0,41,126,0
0,64,91,6
0,67,111,14
0,67,110,18
0,43,117,2
0,35,127,3
0,40,127,0
0,43,83,10
0,67,110,10
0,59,85,10
0,69,111,10
0,41,113,0
0,64,111,15
0,36,126,0
0,62,110,0
0,35,127,0
0,49,89,0
0,70,67,0
0,50,98,0
0,65,86,0
0,67,87,0
0,69,74,0
0,72,89,0
0,55,104,0
0,84,111,5
0,69,65,5
0,62,110,5
0,62,111,5
0,70,48,0
0,42,99,1
0,50,103,20
0,65,82,0
0,67,83,0
0,69,76,0
0,72,82,0
0,69,52,10
0,55,110,5
0,62,110,5
0,62,111,0
0,81,113,0
0,40,124,1
0,38,122,2
0,42,121,1
0,69,41,30
0,62,111,10
0,62,110,9
0,70,69,0
0,42,94,7
0,69,51,95
0,62,111,60
0,70,63,0
0,35,126,3
0,42,122,4
0,62,110,30
0,69,50,20
0,53,105,38
0,62,110,0
0,70,56,0
0,42,97,8
0,62,111,38
0,69,51,30
0,62,111,47
0,70,63,0
0,40,123,6
0,42,121,4
0,69,60,63
0,55,115,5
0,62,110,60
0,70,42,0
0,42,90,6
0,69,54,2
0,33,88,5
0,81,122,4
0,62,110,2
0,70,66,0
0,50,99,0
0,65,85,0
0,67,84,0
0,72,86,0
0,55,123,0
0,69,85,2
0,35,127,1
0,42,120,0
0,36,119,2
0,84,113,10
0,69,65,5
0,62,111,10
0,62,111,20
0,70,49,0
0,55,86,0
0,42,91,5
0,36,117,5
0,50,105,15
0,65,84,0
0,67,84,0
0,69,79,0
0,72,82,0
0,69,53,10
0,62,110,10
0,38,118,19
0,62,110,0
0,70,69,0
0,55,116,0
0,42,122,2
0,40,127,6
0,57,97,0
0,69,40,5
0,60,111,10
0,62,110,20
0,70,68,0
0,42,91,3
0,50,105,0
0,69,50,10
0,60,111,10
0,48,98,17
0,62,111,0
0,70,62,0
0,35,126,5
0,42,123,0
0,50,102,0
0,69,51,10
0,55,84,1
0,60,110,9
0,53,101,20
0,62,111,0
0,70,57,0
0,42,92,5
0,55,107,5
0,69,51,10
0,60,110,10
0,55,110,19
0,62,110,0
0,70,63,0
0,40,124,1
0,42,121,2
0,69,60,7
0,55,109,3
0,60,111,7
0,53,104,0
0,62,111,0
0,70,42,0
0,42,96,1
0,50,63,19
0,69,54,0
0,57,110,4
0,36,127,5
0,62,110,0
0,35,126,0
0,42,120,0
0,81,107,0
0,50,107,0
0,67,87,0
0,55,105,0
0,65,86,5
0,69,85,0
0,72,88,0
0,84,111,5
0,69,65,5
0,60,111,5
0,62,111,0
0,70,48,0
0,42,99,1
0,50,100,20
0,65,83,0
0,67,83,0
0,69,80,0
0,72,82,0
0,69,52,10
0,55,110,5
0,62,110,5
0,62,110,0
0,70,69,0
0,40,125,1
0,38,122,2
0,42,121,1
0,69,41,10
0,62,111,10
0,62,110,9
0,70,68,0
0,42,94,7
0,69,51,30
0,60,111,10
0,62,111,19
0,70,63,0
0,35,127,3
0,42,122,2
0,69,50,10
0,62,110,10
0,38,78,8
0,53,105,12
0,65,111,0
0,70,57,0
0,42,97,8
0,69,51,30
0,65,110,3
0,62,110,19
0,70,62,0
0,40,122,6
0,42,121,4
0,69,60,4
0,55,115,4
0,42,100,4
0,70,43,0
0,69,54,4
0,33,88,2
0,81,122,1
0,67,111,4
0,70,66,0
0,50,107,0
0,67,85,0
0,72,86,0
0,55,122,0
0,65,84,4
0,69,85,0
0,35,127,1
0,42,120,0
0,36,119,2
0,84,113,11
0,69,65,5
0,67,111,10
0,67,110,20
0,35,126,0
0,70,48,0
0,55,86,0
0,42,91,5
0,36,117,5
0,50,104,15
0,65,85,0
0,67,85,0
0,69,86,0
0,72,75,0
0,69,53,10
0,67,110,10
0,38,118,19
0,67,111,0
0,70,69,0
0,55,117,0
0,42,122,2
0,40,126,6
0,57,97,0
0,69,40,5
0,62,111,10
0,67,110,20
0,70,69,0
0,42,91,3
0,69,50,30
0,67,110,10
0,67,111,19
0,35,126,0
0,42,121,0
0,70,62,0
0,69,51,30
0,55,84,1
0,45,67,9
0,62,110,0
0,42,90,18
0,53,112,2
0,67,111,0
0,70,56,0
0,50,108,0
0,65,80,0
0,67,81,0
0,60,69,5
0,72,78,0
0,69,51,9
0,67,111,3
0,53,112,13
0,67,110,0
0,40,127,0
0,57,88,0
0,70,63,0
0,49,110,9
0,69,60,3
0,55,108,3
0,64,111,7
0,42,91,20
0,70,43,3
0,31,97,28
0,67,110,4
0,36,123,0
0,62,97,0
0,74,63,0
0,35,127,0
0,49,87,0
0,70,66,0
0,48,113,3
0,71,56,2
0,64,99,5
0,55,100,3
0,59,102,3
0,69,60,12
0,70,48,60
0,42,98,1
0,69,49,4
0,70,69,4
0,40,125,1
0,74,89,4
0,42,120,1
0,69,34,4
0,70,68,0
0,64,90,2
0,76,65,0
0,72,57,3
0,42,95,2
0,74,79,3
0,36,74,35
0,69,47,0
0,43,118,15
0,67,110,0
0,70,63,0
0,35,127,3
0,42,123,4
0,74,68,3
0,45,109,9
0,69,47,5
0,48,127,5
0,65,111,0
0,70,57,0
0,42,96,3
0,74,60,2
0,64,93,7
0,55,90,2
0,60,95,4
0,64,111,30
0,45,120,0
0,69,46,5
0,70,62,10
0,40,122,1
0,42,120,4
0,74,57,0
0,64,110,14
0,59,99,21
0,43,118,4
0,48,88,0
0,62,99,0
0,55,94,2
0,69,57,3
0,40,123,10
0,70,43,0
0,42,91,7
0,74,44,3
0,36,84,20
0,69,50,0
0,74,62,4
0,83,116,0
0,71,57,3
0,33,127,7
0,70,66,0
0,59,102,2
0,62,97,1
0,35,126,3
0,42,121,0
0,62,101,0
0,45,101,1
0,67,58,1
0,55,94,3
0,84,100,5
0,69,60,30
0,83,105,0
0,64,110,10
0,70,48,0
0,42,90,5
0,79,93,5
0,69,49,30
0,76,106,2
0,70,69,8
0,42,122,2
0,74,87,3
0,40,126,3
0,69,35,38
0,83,110,0
0,70,69,10
0,42,91,3
0,55,100,3
0,64,101,2
0,74,79,2
0,60,103,1
0,64,99,1
0,72,54,3
0,76,61,12
0,84,89,10
0,33,101,15
0,69,46,5
0,83,105,0
0,36,116,8
0,67,111,0
0,70,62,0
0,35,126,5
0,42,122,0
0,74,68,5
0,79,86,3
0,33,69,8
0,69,46,4
0,65,111,10
0,76,104,0
0,38,120,0
0,35,127,0
0,70,56,0
0,42,93,5
0,74,61,5
0,69,47,0
0,64,110,10
0,40,122,15
0,70,63,0
0,40,125,1
0,42,121,2
0,74,56,7
0,69,57,5
0,64,110,10
0,62,82,2
0,43,119,8
0,70,43,0
0,42,96,7
0,74,44,3
0,60,89,11
0,69,50,23
0,71,59,6
0,40,127,7
0,74,60,0
0,35,126,0
0,42,121,0
0,70,66,0
0,62,92,0
0,40,100,3
0,59,102,1
0,55,101,4
0,67,60,12
0,50,94,5
0,69,60,3
0,64,111,10
0,70,48,13
0,42,98,1
0,69,49,30
0,62,107,3
0,55,110,7
0,70,69,42
0,74,89,0
0,40,125,1
0,42,120,6
0,69,34,10
0,55,92,15
0,70,68,0
0,55,109,2
0,74,81,3
0,42,95,2
0,40,100,55
0,69,47,5
0,44,117,10
0,47,122,3
0,67,111,5
0,70,63,0
0,35,127,3
0,74,68,2
0,74,83,2
0,42,123,0
0,79,98,3
0,40,53,5
0,69,47,5
0,67,111,10
0,45,123,15
0,35,127,0
0,70,57,0
0,74,60,5
0,42,96,3
0,69,46,0
0,67,110,10
0,43,122,15
0,70,62,5
0,74,57,5
0,40,122,1
0,42,120,4
0,62,82,5
0,40,104,5
0,55,93,0
0,59,94,3
0,69,57,17
0,64,111,10
0,38,105,10
0,42,101,0
0,70,43,0
0,74,45,5
0,40,114,5
0,69,50,25
0,62,110,10
0,41,123,7
0,70,66,0
0,41,92,0
0,56,93,1
0,35,126,0
0,56,73,1
0,72,51,3
0,42,121,1
0,68,65,4
0,68,57,11
0,69,60,63
0,53,113,0
0,70,48,0
0,53,81,1
0,42,90,4
0,60,81,1
0,56,62,5
0,63,64,2
0,69,49,115
0,70,60,0
0,58,75,2
0,58,99,3
0,39,120,0
0,70,69,0
0,42,122,2
0,75,94,3
0,39,97,2
0,40,126,1
0,69,35,25
0,51,79,4
0,51,111,0
0,70,69,0
0,42,91,1
0,58,58,3
0,75,82,0
0,63,66,3
0,60,73,1
0,69,46,18
0,40,127,5
0,36,90,5
0,60,100,2
0,38,122,0
0,72,70,0
0,35,127,0
0,42,120,0
0,70,62,0
0,60,80,1
0,75,69,5
0,38,100,2
0,69,46,13
0,40,126,5
0,35,126,5
0,42,99,3
0,50,77,0
0,50,109,0
0,70,56,0
0,63,65,1
0,60,62,4
0,56,57,0
0,75,60,3
0,69,47,120
0,62,89,5
0,74,69,1
0,62,100,1
0,37,127,3
0,40,127,0
0,70,63,0
0,37,84,5
0,42,107,2
0,75,57,2
0,69,57,4
0,42,100,7
0,49,112,0
0,70,43,0
0,49,76,4
0,75,45,0
0,56,69,2
0,62,73,0
0,36,126,5
0,71,110,0
0,74,1,0
0,74,62,0
0,35,126,0
0,55,119,0
0,70,66,0
0,71,56,5
0,62,97,6
0,48,98,0
0,55,102,4
0,62,93,6
0,59,105,1
0,69,60,0
0,72,111,10
0,76,1,0
0,70,48,60
0,42,99,1
0,67,93,2
0,69,48,0
0,71,111,10
0,74,1,0
0,70,69,60
0,40,125,1
0,74,82,4
0,42,120,2
0,69,35,0
0,72,110,10
0,76,1,0
0,70,68,0
0,76,61,2
0,72,56,3
0,64,96,2
0,42,94,0
0,74,79,3
0,48,102,1
0,64,92,0
0,55,93,4
0,60,94,2
0,40,92,0
0,69,46,0
0,36,107,5
0,71,110,5
0,74,1,0
0,40,127,15
0,70,63,0
0,35,127,3
0,42,123,4
0,74,68,3
0,40,93,113
0,69,47,0
0,41,126,5
0,35,127,0
0,70,57,0
0,42,97,8
0,74,60,2
0,69,47,15
0,43,126,5
0,70,62,0
0,40,122,6
0,42,120,4
0,74,57,0
0,62,79,12
0,66,61,4
0,40,119,14
0,47,105,1
0,66,78,1
0,69,56,3
0,57,83,0
0,62,76,3
0,66,81,2
0,36,122,5
0,70,43,5
0,42,90,7
0,74,45,3
0,36,97,25
0,69,51,0
0,83,116,0
0,71,56,1
0,62,97,0
0,74,61,0
0,33,127,3
0,35,126,0
