track,note,velocity,time
0,49,26,576
0,49,29,0
0,49,33,0
0,49,37,0
0,49,41,0
0,49,45,0
0,49,49,0
0,49,53,0
0,49,57,0
0,49,61,0
0,49,65,0
0,49,69,0
0,59,66,0
0,67,65,2
0,31,122,0
0,43,66,0
0,55,42,0
0,74,103,0
0,55,60,1
0,62,42,0
0,59,60,0
0,66,42,0
0,62,60,0
0,66,60,0
0,62,59,68
0,66,65,3
0,59,86,1
0,62,59,1
0,67,62,2
0,62,59,1
0,66,64,2
0,59,86,16
0,74,103,0
0,62,59,2
0,66,79,2
0,59,86,1
0,62,59,1
0,67,72,2
0,51,91,1
0,62,59,1
0,51,91,32
0,59,86,11
0,67,65,0
0,52,123,0
0,48,66,0
0,55,42,0
0,74,103,0
0,55,60,4
0,60,42,0
0,60,60,0
0,64,42,0
0,64,60,0
0,66,60,0
0,60,59,1
0,66,65,3
0,59,86,0
0,60,59,3
0,67,62,1
0,60,59,2
0,66,64,2
0,59,86,32
0,74,103,2
0,60,59,2
0,66,79,2
0,59,86,1
0,60,59,1
0,59,89,1
0,67,72,1
0,59,97,1
0,60,59,0
0,51,91,31
0,52,122,0
0,59,86,8
0,67,65,0
0,50,108,0
0,43,66,0
0,55,42,0
0,74,103,3
0,55,60,0
0,62,42,0
0,59,60,0
0,66,42,0
0,62,60,0
0,66,60,0
0,62,59,79
0,66,65,2
0,59,86,1
0,62,59,1
0,67,62,1
0,62,59,2
0,66,64,2
0,59,86,16
0,74,103,0
0,62,59,2
0,66,79,2
0,59,86,1
0,62,59,1
0,67,72,0
0,51,91,1
0,62,59,1
0,51,91,23
0,50,112,1
0,59,86,12
0,67,65,0
0,52,114,0
0,48,66,0
0,55,42,0
0,74,103,0
0,55,60,2
0,60,42,0
0,60,60,0
0,64,42,0
0,64,60,0
0,66,60,0
0,60,59,2
0,66,65,2
0,59,86,1
0,60,59,1
0,67,62,2
0,60,59,2
0,66,64,2
0,59,86,33
0,74,103,0
0,44,82,1
0,60,59,1
0,44,69,0
0,66,79,1
0,62,92,31
0,44,87,1
0,60,59,1
0,44,92,1
0,67,72,1
0,64,87,8
0,46,97,1
0,60,59,1
0,67,92,11
0,44,93,12
0,81,97,0
0,62,49,0
0,31,118,0
0,55,55,0
0,55,42,0
0,66,49,0
0,59,55,4
0,62,42,0
0,62,55,0
0,66,42,0
0,66,55,0
0,66,111,3
0,35,122,26
0,70,93,0
0,70,93,28
0,44,93,14
0,70,93,3
0,70,93,10
0,31,123,1
0,44,93,8
0,31,122,6
0,70,93,20
0,70,93,30
0,44,93,17
0,62,49,0
0,35,126,0
0,55,55,0
0,66,49,0
0,59,55,0
0,62,55,3
0,66,55,0
0,44,93,44
0,46,73,30
0,70,93,0
0,70,93,35
0,60,49,3
0,61,49,5
0,62,74,4
0,44,93,7
0,81,97,0
0,60,49,0
0,36,120,0
0,55,55,0
0,55,42,0
0,64,49,2
0,59,55,0
0,60,42,0
0,60,55,0
0,64,42,0
0,64,55,0
0,62,79,14
0,35,122,26
0,70,93,0
0,62,77,19
0,70,93,7
0,44,93,11
0,62,75,9
0,62,66,22
0,70,93,20
0,70,93,32
0,44,93,8
0,70,93,13
0,70,93,2
0,44,93,13
0,60,49,3
0,40,127,0
0,55,55,0
0,64,49,0
0,59,55,0
0,60,55,0
0,64,55,0
0,44,93,3
0,35,103,1
0,46,73,8
0,70,93,0
0,70,93,2
0,44,93,2
0,81,97,0
0,59,49,2
0,31,122,0
0,55,55,0
0,55,42,0
0,62,49,0
0,59,55,3
0,62,42,0
0,62,55,0
0,66,42,0
0,66,55,0
0,62,42,4
0,62,69,3
0,35,122,6
0,70,93,0
0,70,93,21
0,64,85,1
0,44,93,13
0,67,94,17
0,66,111,13
0,70,93,7
0,70,93,20
0,31,116,1
0,69,101,4
0,44,93,3
0,31,124,1
0,70,93,32
0,70,93,3
0,44,93,0
0,59,49,2
0,35,126,0
0,55,55,0
0,62,49,0
0,59,55,0
0,62,55,0
0,66,55,0
0,44,93,9
0,67,94,7
0,46,73,23
0,70,93,0
0,70,93,26
0,66,104,0
0,44,93,9
0,81,97,0
0,60,49,0
0,36,120,0
0,55,55,0
0,55,42,0
0,64,49,0
0,59,55,2
0,60,42,0
0,60,55,0
0,64,42,0
0,64,55,0
0,67,94,37
0,35,122,26
0,70,93,0
0,70,93,28
0,44,93,9
0,70,93,10
0,70,93,3
0,44,93,4
0,70,93,12
0,70,93,4
0,44,93,5
0,40,127,0
0,44,93,4
0,35,103,0
0,46,73,10
0,70,93,0
0,73,67,2
0,74,96,3
0,70,93,2
0,69,43,1
0,36,119,2
0,44,93,0
0,81,97,0
0,55,49,0
0,31,122,0
0,55,55,0
0,71,104,0
0,55,42,0
0,57,49,3
0,57,55,0
0,62,42,0
0,62,49,0
0,59,55,0
0,66,42,0
0,62,55,0
0,69,44,24
0,35,122,2
0,70,93,0
0,70,93,28
0,69,44,13
0,38,103,1
0,44,93,0
0,69,47,4
0,70,93,1
0,70,93,5
0,69,49,2
0,36,119,2
0,44,93,0
0,70,93,1
0,70,93,2
0,76,100,0
0,38,103,25
0,44,93,0
0,55,49,2
0,35,126,0
0,55,55,0
0,57,49,0
0,57,55,0
0,62,49,2
0,59,55,0
0,62,55,0
0,44,93,25
0,74,65,1
0,46,73,17
0,70,93,0
0,71,49,1
0,70,93,5
0,67,84,1
0,36,119,12
0,44,93,0
0,81,97,0
0,55,49,1
0,36,120,0
0,55,55,0
0,55,42,0
0,60,49,0
0,59,55,3
0,60,42,0
0,64,49,0
0,60,55,0
0,64,42,0
0,64,55,0
0,35,122,13
0,70,93,0
0,70,93,7
0,67,42,9
0,38,103,2
0,44,93,0
0,67,43,13
0,70,93,2
0,36,119,31
0,70,93,0
0,67,47,20
0,44,93,2
0,70,93,32
0,70,93,0
0,38,103,25
0,44,93,0
0,55,49,2
0,40,127,0
0,55,55,0
0,60,49,0
0,59,55,0
0,64,49,1
0,60,55,0
0,64,55,0
0,38,72,4
0,44,93,0
0,35,103,0
0,38,72,23
0,46,73,0
0,70,93,0
0,70,93,2
0,69,43,1
0,36,119,2
0,44,93,0
0,81,97,0
0,55,49,1
0,31,122,0
0,55,55,0
0,55,42,0
0,57,49,0
0,57,55,3
0,62,42,0
0,62,49,0
0,59,55,0
0,66,42,0
0,62,55,0
0,38,74,33
0,69,44,7
0,35,122,1
0,38,64,0
0,70,93,0
0,70,93,14
0,69,44,12
0,38,103,2
0,44,93,0
0,69,47,13
0,70,93,2
0,70,93,30
0,31,116,1
0,69,49,20
0,36,119,2
0,44,93,0
0,31,124,1
0,70,93,12
0,70,93,1
0,76,100,0
0,38,103,11
0,44,93,0
0,55,49,2
0,35,126,0
0,55,55,0
0,57,49,0
0,57,55,0
0,62,49,1
0,59,55,0
0,62,55,0
0,44,93,25
0,74,65,0
0,46,73,17
0,70,93,0
0,71,49,1
0,70,93,5
0,67,84,1
0,36,119,12
0,44,93,0
0,81,97,0
0,55,49,1
0,36,120,0
0,55,55,0
0,55,42,0
0,60,49,0
0,59,55,3
0,60,42,0
0,64,49,0
0,60,55,0
0,64,42,0
0,64,55,0
0,62,36,41
0,67,50,8
0,35,122,3
0,70,93,0
0,66,48,3
0,70,93,3
0,67,44,9
0,67,80,1
0,38,103,2
0,44,93,0
0,69,48,26
0,71,46,9
0,67,81,2
0,70,93,1
0,72,27,24
0,36,119,3
0,70,93,0
0,36,114,0
0,73,68,6
0,74,54,0
0,67,85,1
0,44,93,2
0,43,114,1
0,36,114,10
0,70,93,32
0,70,93,5
0,38,103,5
0,44,93,0
0,55,49,0
0,40,127,0
0,55,55,0
0,60,49,0
0,59,55,2
0,64,49,0
0,60,55,0
0,64,55,0
0,44,93,4
0,35,103,0
0,46,73,30
0,70,93,0
0,70,93,1
0,36,119,3
0,44,93,0
0,81,97,0
0,55,49,2
0,31,122,0
0,55,55,0
0,57,49,0
0,57,55,0
0,62,49,2
0,59,55,0
0,62,55,0
0,35,122,26
0,70,93,0
0,70,93,28
0,38,103,14
0,44,93,0
0,70,93,5
0,70,93,32
0,36,119,22
0,44,93,0
0,70,93,1
0,70,93,1
0,38,103,25
0,44,93,0
0,55,49,2
0,35,126,0
0,55,55,0
0,57,49,0
0,57,55,0
0,62,49,2
0,59,55,0
0,62,55,0
0,44,93,44
0,46,73,20
0,70,93,0
0,70,93,5
0,36,119,28
0,44,93,0
0,81,97,0
0,55,49,1
0,36,120,0
0,55,55,0
0,60,49,0
0,59,55,0
0,64,49,3
0,60,55,0
0,64,55,0
0,35,122,26
0,70,93,0
0,70,93,28
0,38,103,14
0,44,93,0
0,70,93,15
0,36,119,32
0,70,93,0
0,44,93,22
0,70,93,32
0,70,93,1
0,38,103,25
0,44,93,0
0,55,49,2
0,40,127,0
0,55,55,0
0,60,49,0
0,59,55,0
0,64,49,3
0,60,55,0
0,64,55,0
0,38,72,4
0,44,93,0
0,35,103,1
0,38,72,23
0,46,73,0
0,70,93,0
0,70,93,1
0,36,119,3
0,44,93,0
0,81,97,0
0,55,49,1
0,31,122,0
0,55,55,0
0,57,49,0
0,57,55,0
0,62,49,3
0,59,55,0
0,62,55,0
0,38,74,44
0,35,122,8
0,38,64,0
0,70,93,0
0,70,93,14
0,38,103,14
0,44,93,0
0,70,93,15
0,70,93,31
0,31,116,1
0,36,119,22
0,44,93,0
0,31,124,0
0,70,93,12
0,70,93,1
0,38,103,11
0,44,93,0
0,55,49,2
0,35,126,0
0,55,55,0
0,57,49,0
0,57,55,0
0,62,49,1
0,59,55,0
0,62,55,0
0,44,93,45
0,46,73,17
0,70,93,0
0,70,93,5
0,36,119,28
0,44,93,0
0,81,97,0
0,55,49,2
0,36,120,0
0,55,55,0
0,60,49,0
0,59,55,0
0,64,49,1
0,60,55,0
0,64,55,0
0,35,122,13
0,70,93,0
0,70,93,28
0,38,103,14
0,44,93,0
0,70,93,12
0,36,119,32
0,70,93,0
0,44,93,22
0,70,93,32
0,70,93,4
0,38,103,5
0,44,93,0
0,55,49,0
0,40,127,0
0,55,55,0
0,60,49,0
0,59,55,1
0,64,49,0
0,60,55,0
0,64,55,0
0,44,93,4
0,35,103,1
0,46,73,30
0,70,93,0
0,70,93,1
0,36,119,3
0,44,93,0
0,81,97,0
0,55,49,1
0,31,122,0
0,55,55,0
0,57,49,0
0,57,55,0
0,62,49,3
0,59,55,0
0,62,55,0
0,35,122,26
0,70,93,0
0,70,93,28
0,38,103,14
0,44,93,0
0,70,93,5
0,70,93,32
0,36,119,22
0,44,93,0
0,70,93,1
0,70,93,1
0,38,103,25
0,44,93,0
0,55,49,2
0,35,126,0
0,55,55,0
0,57,49,0
0,57,55,0
0,62,49,1
0,59,55,0
0,62,55,0
0,44,93,45
0,46,73,20
0,70,93,0
0,70,93,5
0,36,119,28
0,44,93,0
0,81,97,0
0,55,49,2
0,36,120,0
0,55,55,0
0,60,49,0
0,59,55,0
0,64,49,1
0,60,55,0
0,64,55,0
0,35,122,26
0,70,93,0
0,70,93,28
0,38,103,14
0,44,93,0
0,70,93,15
0,36,119,32
0,70,93,0
0,44,93,22
0,70,93,32
0,70,93,1
0,38,103,25
0,44,93,0
0,55,49,2
0,40,127,0
0,55,55,0
0,60,49,0
0,59,55,0
0,64,49,1
0,60,55,0
0,64,55,0
0,38,72,3
0,44,93,0
0,35,103,1
0,38,72,23
0,46,73,0
0,70,93,0
0,70,93,1
0,36,119,3
0,44,93,0
0,81,97,0
0,55,49,1
0,31,122,0
0,55,55,0
0,57,49,0
0,57,55,0
0,62,49,3
0,59,55,0
0,62,55,0
0,38,74,44
0,35,122,8
0,38,64,0
0,70,93,0
0,70,93,14
0,38,103,14
0,44,93,0
0,70,93,15
0,70,93,30
0,31,116,1
0,36,119,22
0,44,93,0
0,31,124,1
0,70,93,12
0,70,93,1
0,38,103,11
0,44,93,0
0,55,49,2
0,35,126,0
0,55,55,0
0,57,49,0
0,57,55,0
0,62,49,2
0,59,55,0
0,62,55,0
0,44,93,44
0,46,73,17
0,70,93,0
0,70,93,5
0,36,119,28
0,44,93,0
0,81,97,0
0,55,49,2
0,36,120,0
0,55,55,0
0,60,49,0
0,59,55,0
0,64,49,2
0,60,55,0
0,64,55,0
0,31,124,193
0,81,93,4
0,50,127,1
0,55,49,35
0,48,127,0
0,55,55,0
0,60,49,0
0,59,55,0
0,64,49,1
0,60,55,0
0,64,55,0
0,36,119,35
0,44,93,0
0,81,97,0
0,55,69,1
0,31,122,0
0,57,69,0
0,59,69,0
0,62,69,0
0,70,93,47
0,35,122,26
0,46,104,0
0,70,93,0
0,55,70,1
0,59,70,0
0,62,70,0
0,66,70,0
0,70,93,14
0,38,103,14
0,44,93,0
0,55,70,2
0,59,70,0
0,62,70,0
0,66,70,0
0,70,93,21
0,70,93,5
0,55,70,1
0,59,70,0
0,62,70,0
0,66,70,0
0,70,93,21
0,36,119,22
0,44,93,0
0,55,70,2
0,59,70,0
0,62,70,0
0,66,70,0
0,70,93,21
0,70,93,1
0,70,93,2
0,55,70,2
0,59,70,0
0,62,70,0
0,71,70,0
0,38,103,25
0,44,93,0
0,55,69,2
0,35,126,0
0,57,69,0
0,59,69,0
0,62,69,0
0,44,93,46
0,46,73,20
0,70,93,0
0,70,93,5
0,36,119,12
0,44,93,0
0,81,97,0
0,55,69,1
0,36,120,0
0,59,69,0
0,60,69,0
0,64,69,0
0,70,93,32
0,35,122,26
0,46,104,0
0,70,93,0
0,55,70,2
0,59,70,0
0,60,70,0
0,64,70,0
0,70,93,15
0,38,103,14
0,44,93,0
0,55,70,1
0,59,70,0
0,60,70,0
0,64,70,0
0,70,93,20
0,70,93,15
0,55,70,1
0,59,70,0
0,60,70,0
0,64,70,0
0,36,119,20
0,70,93,0
0,44,93,22
0,55,70,2
0,59,70,0
0,60,70,0
0,64,70,0
0,70,93,12
0,70,93,32
0,70,93,1
0,55,70,2
0,59,70,0
0,60,70,0
0,71,70,0
0,38,103,25
0,44,93,0
0,55,69,2
0,40,127,0
0,59,69,0
0,60,69,0
0,64,69,0
0,38,72,4
0,44,93,0
0,35,103,1
0,38,72,23
0,46,73,0
0,70,93,0
0,70,93,2
0,36,119,3
0,44,93,0
0,81,97,0
0,55,69,1
0,31,122,0
0,57,69,0
0,59,69,0
0,62,69,0
0,38,74,47
0,70,93,0
0,35,122,8
0,38,64,0
0,46,104,0
0,70,93,0
0,55,70,1
0,59,70,0
0,62,70,0
0,66,70,0
0,70,93,11
0,38,103,14
0,44,93,0
0,55,70,1
0,59,70,0
0,62,70,0
0,66,70,0
0,70,93,20
0,70,93,15
0,55,70,1
0,59,70,0
0,62,70,0
0,66,70,0
0,70,93,18
0,31,116,1
0,36,119,22
0,44,93,0
0,31,124,2
0,55,70,0
0,59,70,0
0,62,70,0
0,66,70,0
0,70,93,10
0,70,93,12
0,70,93,33
0,55,70,0
0,59,70,0
0,62,70,0
0,71,70,0
0,38,103,11
0,44,93,0
0,55,69,1
0,35,126,0
0,57,69,0
0,59,69,0
0,62,69,0
0,44,93,47
0,46,73,17
0,70,93,0
0,70,93,9
0,36,119,4
0,44,93,0
0,81,97,0
0,55,69,1
0,36,120,0
0,59,69,0
0,60,69,0
0,64,69,0
0,70,93,47
0,35,122,13
0,46,104,0
0,70,93,0
0,55,70,2
0,59,70,0
0,60,70,0
0,64,70,0
0,70,93,7
0,38,103,14
0,44,93,0
0,55,70,1
0,59,70,0
0,60,70,0
0,64,70,0
0,70,93,17
0,70,93,12
0,55,70,1
0,59,70,0
0,60,70,0
0,64,70,0
0,36,119,13
0,70,93,0
0,44,93,22
0,55,70,1
0,59,70,0
0,60,70,0
0,64,70,0
0,70,93,32
0,70,93,4
0,55,70,0
0,59,70,0
0,60,70,0
0,71,70,0
0,38,103,5
0,44,93,0
0,55,69,0
0,40,127,0
0,59,69,0
0,60,69,0
0,64,69,0
0,44,93,3
0,35,103,1
0,46,73,14
0,70,93,0
0,70,93,2
