track,note,velocity,time
0,48,124,168
0,55,116,0
0,60,122,0
0,64,112,0
0,64,0,86
0,55,0,2
0,60,0,2
0,48,0,38
0,55,114,16
0,60,116,0
0,64,106,0
0,55,0,12
0,60,0,4
0,64,0,0
0,48,127,32
0,55,124,48
0,60,126,0
0,64,120,0
0,48,0,108
0,60,0,6
0,55,0,2
0,64,0,4
0,48,122,24
0,55,104,0
0,59,120,0
0,62,120,0
0,62,0,112
0,59,0,2
0,55,0,2
0,48,0,20
0,55,104,8
0,59,104,0
0,62,104,0
0,59,0,12
0,62,0,2
0,55,0,2
0,48,127,32
0,55,124,48
0,59,127,0
0,62,124,0
0,62,0,104
0,59,0,2
0,48,0,4
0,55,0,2
0,48,118,32
0,55,106,0
0,57,118,0
0,60,112,0
0,57,0,104
0,60,0,2
0,55,0,2
0,48,0,16
0,55,100,20
0,57,108,0
0,60,106,0
0,55,0,12
0,57,0,0
0,60,0,2
0,48,126,34
0,55,122,5
0,57,126,0
0,60,120,0
0,48,0,106
0,57,0,0
0,55,0,4
0,60,0,0
0,48,122,34
0,55,108,0
0,59,114,0
0,62,114,0
0,59,0,104
0,55,0,2
0,62,0,2
0,48,0,20
0,55,114,16
0,59,116,0
0,62,120,0
0,59,0,12
0,55,0,4
0,62,0,0
0,48,126,32
0,55,126,48
0,59,126,0
0,62,126,0
0,55,0,96
0,59,0,0
0,62,0,0
0,48,0,2
0,48,116,46
0,55,112,0
0,60,116,0
0,64,106,0
0,64,0,94
0,55,0,4
0,60,0,0
0,48,0,26
0,55,114,20
0,60,114,0
0,64,108,0
0,60,0,10
0,55,0,2
0,64,0,2
0,48,126,34
0,55,122,48
0,60,120,0
0,64,114,0
0,48,0,104
0,60,0,2
0,55,0,6
0,64,0,0
0,48,106,32
0,55,98,0
0,59,114,0
0,62,112,0
0,62,0,110
0,55,0,2
0,59,0,0
0,48,0,30
0,55,86,2
0,59,96,0
0,62,98,0
0,62,0,12
0,55,0,2
0,59,0,0
0,48,118,34
0,55,116,48
0,59,122,0
0,62,118,0
0,48,0,104
0,59,0,2
0,62,0,0
0,55,0,6
0,48,110,32
0,55,100,0
0,57,116,0
0,60,108,0
0,57,0,108
0,60,0,2
0,55,0,4
0,55,110,30
0,57,120,0
0,60,106,0
0,57,0,12
0,48,0,4
0,60,0,2
0,55,0,2
0,48,116,28
0,55,116,48
0,57,122,0
0,60,116,0
0,55,0,88
0,57,0,2
0,60,0,0
0,48,0,4
0,48,114,50
0,55,110,0
0,59,112,0
0,62,116,0
0,49,124,192
0,48,0,4
0,62,0,156
0,59,0,2
0,55,0,4
0,49,0,18
0,50,116,8
0,60,120,0
0,65,126,0
0,69,110,0
0,65,0,80
0,69,0,0
0,60,0,2
0,50,0,50
0,60,114,12
0,65,114,0
0,69,94,0
0,65,0,8
0,69,0,2
0,60,0,2
0,50,124,36
0,60,116,48
0,65,116,0
0,69,114,0
0,50,0,98
0,60,0,2
0,65,0,4
0,69,0,2
0,52,108,38
0,62,108,0
0,67,114,0
0,71,104,0
0,67,0,90
0,71,0,0
0,62,0,4
0,52,0,42
0,62,92,8
0,67,104,0
0,71,98,0
0,67,0,14
0,62,0,2
0,71,0,0
0,52,122,32
0,62,120,48
0,67,122,0
0,71,106,0
0,52,0,114
0,67,0,20
0,71,0,0
0,62,0,4
0,45,120,6
0,52,108,0
0,55,106,0
0,57,112,0
0,60,112,0
0,52,0,110
0,60,0,4
0,55,0,4
0,57,0,2
0,45,0,20
0,52,110,4
0,55,106,0
0,57,102,0
0,60,114,0
0,45,122,48
0,52,0,60
0,55,0,14
0,60,0,6
0,45,0,2
0,57,0,2
0,45,118,12
0,55,98,0
0,59,104,0
0,62,112,0
0,55,0,466
0,62,0,0
0,59,0,2
0,45,0,2
0,50,118,10
0,60,114,0
0,65,116,0
0,69,108,0
0,69,0,90
0,60,0,4
0,65,0,4
0,50,0,10
0,60,94,36
0,65,106,0
0,69,100,0
0,60,0,10
0,65,0,0
0,69,0,2
0,50,124,36
0,60,116,48
0,65,118,0
0,69,112,0
0,60,0,108
0,50,0,2
0,65,0,4
0,69,0,2
0,52,108,28
0,62,100,0
0,67,110,0
0,71,102,0
0,71,0,86
0,62,0,6
0,67,0,0
0,52,0,26
0,62,102,26
0,67,102,0
0,71,96,0
0,67,0,10
0,62,0,2
0,71,0,2
0,52,118,34
0,62,116,48
0,67,124,0
0,71,112,0
0,52,0,114
0,62,0,20
0,67,0,2
0,71,0,2
0,45,118,6
0,52,112,0
0,55,108,0
0,57,116,0
0,60,116,0
0,52,0,104
0,60,0,2
0,55,0,2
0,57,0,2
0,45,0,22
0,52,116,12
0,55,114,0
0,57,116,0
0,60,118,0
0,45,122,48
0,55,0,64
0,52,0,2
0,60,0,2
0,57,0,4
0,45,0,10
0,45,118,14
0,55,104,0
0,59,106,0
0,62,114,0
0,62,0,450
0,55,0,2
0,45,0,2
0,59,0,0
0,43,116,26
0,53,112,96
0,55,88,192
0,60,108,192
0,55,110,0
0,55,107,0
0,55,0,48
0,53,0,16
0,55,0,2
0,60,0,4
0,43,0,6
0,36,124,16
0,55,116,0
0,60,122,0
0,64,112,0
0,82,100,0
0,64,110,0
0,82,0,0
0,70,53,44
0,70,0,4
0,64,0,34
0,55,0,2
0,60,0,2
0,82,38,6
0,82,0,4
0,36,0,28
0,64,0,4
0,55,105,0
0,55,114,4
0,60,116,0
0,64,106,0
0,70,49,0
0,70,0,4
0,55,0,8
0,60,0,4
0,64,0,0
0,55,0,22
0,36,127,10
0,82,100,0
0,64,107,0
0,82,0,0
0,64,0,30
0,55,105,0
0,55,124,0
0,60,126,0
0,64,120,0
0,70,56,0
0,70,0,4
0,55,0,28
0,64,110,0
0,82,46,4
0,82,0,4
0,64,0,28
0,55,106,0
0,54,45,8
0,70,35,0
0,54,0,4
0,70,0,0
0,36,0,8
0,60,0,6
0,55,0,2
0,55,0,2
0,64,0,2
0,62,110,0
0,36,122,6
0,55,104,0
0,59,120,0
0,62,120,0
0,82,100,0
0,82,0,4
0,62,0,28
0,60,107,0
0,70,52,6
0,70,0,4
0,60,0,28
0,59,108,0
0,82,43,0
0,82,0,4
0,62,0,12
0,59,0,2
0,55,0,2
0,59,0,18
0,36,0,2
0,55,104,8
0,59,104,0
0,62,104,0
0,70,47,0
0,70,0,4
0,59,0,8
0,62,0,2
0,55,0,2
0,36,127,32
0,54,45,0
0,82,100,0
0,54,0,4
0,82,0,0
0,55,124,44
0,59,127,0
0,62,124,0
0,70,47,0
0,70,0,4
0,82,41,44
0,82,0,4
0,54,48,44
0,70,45,0
0,54,0,4
0,70,0,0
0,62,0,4
0,59,0,2
0,36,0,4
0,55,0,2
0,36,118,32
0,55,106,0
0,57,118,0
0,60,112,0
0,82,100,0
0,82,0,4
0,70,53,44
0,55,108,0
0,70,0,2
0,55,0,24
0,82,38,20
0,64,110,0
0,82,0,2
0,57,0,4
0,60,0,2
0,55,0,2
0,64,0,16
0,36,0,0
0,55,100,20
0,57,108,0
0,60,106,0
0,70,49,0
0,55,104,0
0,70,0,2
0,55,0,8
0,57,0,0
0,60,0,2
0,55,0,14
0,36,126,20
0,82,100,0
0,82,0,4
0,64,112,0
0,64,0,28
0,55,122,14
0,57,126,0
0,60,120,0
0,70,56,0
0,55,105,0
0,70,0,0
0,55,0,28
0,82,46,16
0,82,0,4
0,54,45,44
0,70,35,0
0,54,0,4
0,70,0,0
0,55,104,0
0,36,0,0
0,57,0,0
0,55,0,4
0,60,0,0
0,55,0,34
0,36,122,0
0,55,108,0
0,59,114,0
0,62,114,0
0,82,100,0
0,82,0,4
0,64,110,0
0,64,0,30
0,70,52,12
0,70,0,4
0,62,110,0
0,62,0,36
0,82,43,2
0,82,0,4
0,59,0,4
0,59,110,0
0,55,0,0
0,62,0,2
0,36,0,20
0,59,0,6
0,55,114,10
0,59,116,0
0,62,120,0
0,70,47,0
0,70,0,4
0,59,0,8
0,55,0,4
0,62,0,0
0,36,126,32
0,54,45,0
0,82,100,0
0,55,105,0
0,54,0,0
0,82,0,0
0,55,0,28
0,55,126,16
0,59,126,0
0,62,126,0
0,70,47,0
0,70,0,4
0,55,107,0
0,82,41,42
0,82,0,4
0,55,0,20
0,64,110,0
0,54,48,2
0,70,45,0
0,36,0,2
0,54,0,2
0,70,0,0
0,55,0,28
0,59,0,0
0,62,0,0
0,36,116,16
0,55,112,0
0,60,116,0
0,64,106,0
0,82,100,0
0,82,0,4
0,70,53,44
0,70,0,4
0,64,0,2
0,64,0,40
0,82,38,2
0,55,0,2
0,60,0,0
0,82,0,2
0,36,0,24
0,55,104,0
0,55,114,4
0,60,114,0
0,64,108,0
0,70,49,0
0,70,0,4
0,60,0,6
0,55,0,2
0,64,0,2
0,55,0,4
0,64,109,0
0,36,126,4
0,82,100,0
0,82,0,4
0,64,0,14
0,55,104,0
0,55,122,0
0,60,120,0
0,64,114,0
0,70,56,0
0,70,0,4
0,55,0,32
0,64,111,0
0,82,46,0
0,82,0,4
0,64,0,28
0,55,105,0
0,54,45,4
0,70,35,0
0,54,0,4
0,70,0,0
0,36,0,4
0,60,0,2
0,55,0,6
0,64,0,0
0,55,0,8
0,36,106,24
0,55,98,0
0,59,114,0
0,62,112,0
0,82,100,0
0,62,110,0
0,82,0,2
0,62,0,36
0,70,52,8
0,59,110,0
0,70,0,0
0,59,0,28
0,82,43,16
0,82,0,4
0,62,0,10
0,55,0,2
0,59,0,0
0,36,0,30
0,55,86,2
0,59,96,0
0,62,98,0
0,70,47,0
0,70,0,4
0,62,0,8
0,55,0,2
0,59,0,0
0,36,118,34
0,54,45,0
0,82,100,0
0,54,0,4
0,82,0,0
0,55,107,0
0,55,0,36
0,55,116,4
0,59,122,0
0,62,118,0
0,70,47,0
0,70,0,4
0,55,109,0
0,82,41,38
0,82,0,4
0,55,0,24
0,54,48,20
0,70,45,0
0,64,110,0
0,54,0,0
0,70,0,0
0,36,0,4
0,59,0,2
0,62,0,0
0,55,0,6
0,36,118,32
0,55,106,0
0,57,118,0
0,60,112,0
0,82,100,0
0,82,0,4
0,70,53,44
0,70,0,4
0,64,0,34
0,55,108,0
0,82,38,2
0,82,0,4
0,57,0,4
0,60,0,2
0,55,0,2
0,55,0,8
0,36,0,8
0,55,100,20
0,57,108,0
0,60,106,0
0,70,49,0
0,55,105,0
0,70,0,0
0,55,0,8
0,57,0,0
0,60,0,2
0,55,0,24
0,36,126,10
0,82,100,0
0,82,0,4
0,64,111,0
0,64,0,20
0,64,111,0
0,55,122,0
0,57,126,0
0,60,120,0
0,70,56,0
0,70,0,4
0,64,0,24
0,62,110,0
0,82,46,2
0,82,0,4
0,62,0,32
0,59,109,0
0,54,45,2
0,70,35,0
0,54,0,4
0,70,0,0
0,36,0,6
0,57,0,0
0,55,0,4
0,60,0,0
0,59,0,14
0,36,122,20
0,55,108,0
0,59,114,0
0,62,114,0
0,82,100,0
0,82,0,4
0,70,52,44
0,70,0,4
0,82,43,44
0,82,0,4
0,59,0,4
0,55,0,2
0,62,0,2
0,36,0,20
0,55,114,16
0,59,116,0
0,62,120,0
0,70,47,0
0,70,0,4
0,59,0,8
0,55,0,4
0,62,0,0
0,55,110,0
0,36,126,4
0,54,45,0
0,82,100,0
0,54,0,4
0,82,0,0
0,55,0,16
0,55,108,0
0,55,126,2
0,59,126,0
0,62,126,0
0,70,47,0
0,70,0,4
0,82,41,44
0,82,0,4
0,55,0,16
0,64,110,0
0,54,48,10
0,70,45,0
0,36,0,2
0,54,0,2
0,70,0,0
0,55,0,28
0,59,0,0
0,62,0,0
0,36,124,16
0,55,116,0
0,60,122,0
0,64,112,0
0,82,100,0
0,82,0,4
0,70,53,44
0,70,0,4
0,64,0,8
0,64,0,26
0,55,0,2
0,60,0,2
0,82,38,6
0,82,0,4
0,36,0,28
0,55,106,0
0,55,114,0
0,60,116,0
0,64,106,0
0,70,49,0
0,70,0,4
0,55,0,8
0,60,0,4
0,64,0,0
0,55,0,6
0,64,110,0
0,36,127,0
0,82,100,0
0,82,0,4
0,64,0,18
0,55,124,26
0,60,126,0
0,64,120,0
0,70,56,0
0,55,102,0
0,70,0,2
0,55,0,24
0,64,109,0
0,82,46,2
0,82,0,4
0,64,0,34
0,54,45,10
0,70,35,0
0,55,100,0
0,54,0,0
0,70,0,0
0,36,0,8
0,60,0,6
0,55,0,2
0,64,0,4
0,55,0,10
0,36,122,14
0,55,104,0
0,59,120,0
0,62,120,0
0,82,100,0
0,82,0,4
0,62,110,0
0,70,52,38
0,70,0,4
0,62,0,2
0,59,110,0
0,59,0,26
0,82,43,12
0,82,0,4
0,62,0,12
0,59,0,2
0,55,0,2
0,36,0,20
0,55,104,8
0,59,104,0
0,62,104,0
0,70,47,0
0,70,0,4
0,59,0,8
0,62,0,2
0,55,0,2
0,36,127,32
0,54,45,0
0,82,100,0
0,54,0,4
0,82,0,0
0,55,124,44
0,59,127,0
0,62,124,0
0,70,47,0
0,70,0,4
0,82,41,44
0,82,0,4
0,54,48,44
0,70,45,0
0,54,0,4
0,70,0,0
0,36,0,10
0,62,0,10
0,59,0,2
0,55,0,6
0,36,118,16
0,55,106,0
0,57,118,0
0,60,112,0
0,82,100,0
0,82,0,4
0,70,53,44
0,70,0,4
0,82,38,44
0,82,0,4
0,57,0,4
0,60,0,2
0,55,0,2
0,36,0,16
0,55,100,20
0,57,108,0
0,60,106,0
0,70,49,0
0,70,0,4
0,55,107,0
0,55,0,2
0,57,0,0
0,60,0,2
0,55,0,24
0,36,126,10
0,82,100,0
0,82,0,4
0,64,112,0
0,64,0,24
0,55,122,16
0,57,126,0
0,60,120,0
0,70,56,0
0,70,0,4
0,55,105,0
0,55,0,30
0,82,46,12
0,64,110,0
0,82,0,0
0,64,0,36
0,54,45,8
0,70,35,0
0,55,93,0
0,54,0,0
0,70,0,0
0,36,0,6
0,57,0,0
0,55,0,4
0,60,0,0
0,55,0,26
0,36,122,8
0,55,108,0
0,59,114,0
0,62,114,0
0,82,100,0
0,82,0,4
0,62,108,0
0,70,52,40
0,70,0,4
0,62,0,2
0,59,109,0
0,82,43,34
0,59,0,2
0,82,0,2
0,59,0,4
0,55,0,2
0,62,0,2
0,36,0,20
0,55,114,16
0,59,116,0
0,62,120,0
0,70,47,0
0,70,0,4
0,59,0,8
0,55,0,4
0,62,0,0
0,36,126,32
0,54,45,0
0,82,100,0
0,54,0,4
0,82,0,0
0,55,107,0
0,55,0,24
0,55,126,10
0,59,126,0
0,62,126,0
0,70,47,0
0,70,0,4
0,55,109,0
0,82,41,36
0,82,0,4
0,55,0,30
0,54,48,14
0,70,45,0
0,54,0,4
0,70,0,0
0,64,110,0
0,55,0,18
0,59,0,0
0,62,0,0
0,36,0,18
0,36,116,6
0,55,112,0
0,60,116,0
0,64,106,0
0,82,100,0
0,82,0,4
0,70,53,44
0,70,0,4
0,64,0,24
0,64,0,18
0,82,38,2
0,55,0,2
0,60,0,0
0,82,0,2
0,36,0,24
0,55,107,0
0,55,114,0
0,60,114,0
0,64,108,0
0,70,49,0
0,70,0,4
0,60,0,6
0,55,0,2
0,64,0,2
0,55,0,6
0,36,126,28
0,82,100,0
0,64,111,0
0,82,0,2
0,64,0,30
0,55,122,14
0,60,120,0
0,64,114,0
0,70,56,0
0,70,0,4
0,55,109,0
0,55,0,24
0,64,110,0
0,82,46,0
0,82,0,4
0,64,0,34
0,55,98,0
0,54,45,0
0,70,35,0
0,54,0,4
0,70,0,0
0,36,0,4
0,60,0,2
0,55,0,6
0,64,0,0
0,55,0,20
0,36,106,12
0,55,98,0
0,59,114,0
0,62,112,0
0,82,100,0
0,82,0,4
0,62,109,0
0,62,0,40
0,70,52,0
0,70,0,4
0,59,108,0
0,59,0,26
0,82,43,16
0,82,0,4
0,62,0,10
0,55,0,2
0,59,0,0
0,36,0,30
0,55,86,2
0,59,96,0
0,62,98,0
0,70,47,0
0,70,0,4
0,62,0,8
0,55,0,2
