track,note,velocity,time
3,95,78,12370
3,93,79,20
3,91,61,10
3,89,69,10
3,88,83,15
3,86,85,15
3,84,83,20
3,83,78,20
3,81,83,15
3,79,87,15
3,77,87,15
3,76,81,20
3,74,79,0
3,72,78,0
3,71,68,20
3,69,74,20
3,67,77,20
3,65,76,25
3,64,83,20
3,62,62,0
3,60,63,25
3,59,63,20
3,57,66,20
3,55,66,20
3,53,67,25
3,52,73,20
3,50,76,25
3,48,78,30
3,47,89,30
3,47,81,15
3,71,97,735
3,68,92,255
3,63,87,355
3,59,90,365
3,71,92,3445
3,69,88,250
3,64,92,340
3,59,94,370
3,71,100,185
3,68,100,260
3,63,90,335
3,59,100,355
3,71,94,2555
3,69,100,250
3,64,94,350
3,59,105,375
3,57,76,5800
3,61,77,0
3,64,74,0
3,71,87,715
3,69,85,270
3,64,87,190
3,59,97,340
3,71,87,6160
3,69,85,250
3,64,87,345
3,59,90,365
3,61,84,4645
3,64,88,0
3,69,78,0
3,71,83,0
3,61,83,275
3,64,87,0
3,69,76,10
3,71,74,0
3,61,76,215
3,64,84,0
3,71,81,5
3,61,73,145
3,64,74,0
3,69,78,0
3,71,79,0
3,61,71,145
3,64,78,0
3,69,77,10
3,71,71,0
3,61,94,35
3,64,88,0
3,69,85,0
3,71,85,0
3,59,89,2160
3,63,100,150
3,63,82,35
3,68,100,35
3,63,85,490
3,64,88,5
3,63,87,5
3,59,100,200
3,64,100,515
3,68,94,0
3,64,103,4380
3,66,100,0
3,69,97,0
3,64,87,35
3,66,90,0
3,71,94,0
3,64,94,140
3,66,100,0
3,69,103,0
3,59,68,4950
3,63,81,0
3,68,94,0
3,64,84,835
3,66,97,20
3,68,90,500
3,69,92,435
3,59,92,6770
3,64,108,240
3,66,89,475
3,71,90,475
3,64,75,15410
3,66,61,0
3,68,64,0
3,71,51,15
3,64,67,65
3,66,72,0
3,68,62,0
3,71,53,0
3,64,73,190
3,66,77,0
3,68,73,0
3,71,62,10
3,64,72,195
3,66,63,0
3,68,69,0
3,71,68,0
3,64,71,210
3,66,66,0
3,68,74,0
3,71,59,10
3,64,72,330
3,66,67,0
3,68,64,0
3,71,68,0
3,64,75,230
3,66,77,0
3,68,71,0
3,71,66,0
3,64,68,410
3,66,58,0
3,68,63,0
3,71,45,10
3,64,64,85
3,66,66,0
3,68,61,0
3,71,46,0
3,64,77,210
3,66,73,0
3,68,73,0
3,71,73,0
3,64,68,200
3,66,67,0
3,68,78,0
3,71,64,0
3,64,74,215
3,66,75,0
3,68,73,0
3,71,69,0
3,64,73,330
3,66,75,0
3,68,74,0
3,71,71,0
3,64,79,230
3,66,77,0
3,68,75,0
3,71,75,0
3,64,75,410
3,66,61,0
3,69,64,0
3,71,51,10
3,64,75,75
3,66,67,0
3,69,58,0
3,71,67,0
3,64,74,190
3,66,80,0
3,69,78,0
3,71,73,0
3,64,69,200
3,66,63,0
3,69,64,0
3,71,57,0
3,64,79,210
3,66,78,0
3,69,74,0
3,71,68,0
3,64,78,320
3,66,79,0
3,69,74,0
3,71,69,0
3,64,75,230
3,66,78,0
3,69,74,0
3,71,69,0
3,64,73,410
3,66,77,0
3,69,73,0
3,71,52,0
3,64,74,45
3,66,68,0
3,71,69,0
3,69,67,5
3,64,75,165
3,66,82,0
3,69,75,0
3,71,72,0
3,64,72,195
3,66,73,0
3,69,68,0
3,71,56,0
3,64,77,210
3,66,79,0
3,69,77,0
3,71,66,0
3,64,75,325
3,66,73,0
3,69,69,0
3,71,68,0
3,64,74,235
3,66,75,0
3,69,74,0
3,71,71,0
3,64,75,400
3,66,74,0
3,68,74,0
3,71,62,5
3,64,67,45
3,66,62,0
3,68,49,0
3,71,68,0
3,64,80,185
3,66,79,0
3,68,77,0
3,71,75,0
3,64,67,195
3,66,73,0
3,68,61,0
3,71,63,0
3,64,79,215
3,66,75,0
3,68,75,0
3,71,72,0
3,64,72,320
3,66,75,0
3,68,78,0
3,71,68,0
3,64,75,240
3,66,78,0
3,68,78,0
3,71,71,0
3,64,69,410
3,66,58,0
3,68,63,0
3,71,52,10
3,66,62,50
3,64,67,5
3,68,62,0
3,71,68,0
3,64,78,205
3,66,79,0
3,68,78,0
3,71,71,0
3,64,66,210
3,66,64,0
3,68,51,0
3,71,62,0
3,64,78,215
3,66,75,0
3,68,78,0
3,71,73,0
3,64,77,330
3,66,68,0
3,68,72,0
3,71,66,0
3,64,75,240
3,66,78,0
3,68,80,0
3,71,74,0
3,64,75,415
3,66,74,0
3,69,72,0
3,71,62,0
3,64,69,30
3,66,53,5
3,69,66,0
3,71,74,0
3,64,82,165
3,66,87,0
3,69,80,0
3,71,66,0
3,64,72,195
3,66,66,0
3,69,63,0
3,71,42,10
3,64,77,215
3,66,80,0
3,69,79,0
3,71,75,0
3,64,79,330
3,66,78,0
3,69,72,0
3,71,72,0
3,64,75,230
3,66,74,0
3,69,75,0
3,71,66,0
3,64,71,390
3,66,74,0
3,69,75,0
3,71,57,0
3,64,71,70
3,66,63,5
3,69,61,5
3,71,66,0
3,64,79,185
3,66,80,0
3,69,78,0
3,71,69,0
3,64,61,190
3,66,74,0
3,69,63,0
3,71,43,10
3,64,79,205
3,66,80,0
3,69,77,0
3,71,75,0
3,64,74,320
3,66,74,0
3,69,71,0
3,71,62,0
3,64,74,220
3,66,77,0
3,69,75,0
3,71,74,0
3,64,68,450
3,66,72,0
3,68,73,0
3,71,51,10
3,64,63,90
3,66,77,0
3,68,62,0
3,71,67,0
3,64,72,200
3,66,74,0
3,68,73,0
3,71,74,0
3,64,72,200
3,66,72,0
3,68,62,0
3,71,56,0
3,64,78,220
3,66,82,0
3,68,77,0
3,71,72,0
3,64,78,315
3,66,77,0
3,68,77,0
3,71,74,0
3,64,79,225
3,66,78,0
3,68,79,0
3,71,78,0
3,64,85,7960
3,66,85,0
3,69,87,0
3,71,82,0
3,66,90,85
3,64,83,5
3,69,79,0
3,71,88,0
3,64,90,290
3,66,92,0
3,69,89,0
3,71,84,0
3,64,88,40
3,66,89,0
3,69,85,0
3,71,89,0
3,71,105,3580
3,69,92,340
3,68,89,340
3,66,89,240
3,64,97,10
3,63,100,470
3,66,89,490
3,63,94,465
3,59,100,0
3,59,105,785
3,71,103,10
3,69,87,345
3,68,88,330
3,66,94,245
3,59,84,1870
3,64,94,0
3,68,85,0
3,59,76,20
3,64,100,0
3,69,89,0
3,59,72,30
3,64,90,0
3,68,97,0
3,59,103,745
3,71,100,10
3,69,97,350
3,68,105,335
3,66,94,255
3,64,97,1890
3,68,88,0
3,66,89,10
3,69,85,5
3,68,92,10
3,71,85,0
3,66,94,5
3,69,88,0
3,64,100,980
3,68,85,0
3,59,100,335
3,71,94,5
3,69,92,355
3,68,94,320
3,66,94,255
3,68,100,1890
3,69,97,455
3,71,103,465
3,64,88,250
3,66,103,0
3,71,88,0
3,64,87,200
3,66,89,0
3,71,89,0
3,64,85,195
3,66,89,0
3,71,90,0
3,64,81,195
3,66,87,0
3,71,87,5
3,64,90,320
3,66,97,0
3,71,89,0
3,64,97,225
3,66,103,0
3,71,92,0
3,64,89,485
3,66,94,0
3,71,87,0
3,64,85,195
3,66,84,0
3,71,87,0
3,64,87,195
3,66,83,0
3,71,83,0
3,64,89,200
3,66,97,0
3,71,92,0
3,64,87,325
3,66,103,0
3,71,83,0
3,64,100,230
3,66,92,0
3,71,88,0
3,64,89,505
3,66,87,0
3,71,87,0
3,64,87,200
3,66,85,0
3,71,87,0
3,64,90,200
3,66,85,0
3,71,87,0
3,64,97,210
3,66,100,0
3,71,88,0
3,64,89,320
3,66,90,0
3,71,83,0
3,64,90,235
3,66,85,0
3,71,90,0
3,64,89,485
3,66,92,0
3,71,87,0
3,64,85,195
3,66,87,0
3,71,89,0
3,64,88,200
3,66,85,0
3,71,87,0
3,64,89,205
3,66,88,0
3,71,87,0
3,64,87,315
3,66,90,0
3,71,84,0
3,64,87,245
3,66,90,0
3,71,87,0
3,64,85,510
3,66,83,0
3,71,85,0
3,64,88,200
3,66,83,0
3,71,85,0
3,64,89,195
3,66,88,0
3,71,85,0
3,64,88,205
3,66,88,0
3,71,84,0
3,64,94,310
3,66,94,0
3,71,88,0
3,64,97,230
3,66,87,0
3,71,85,0
3,64,90,505
3,66,87,0
3,71,89,0
3,64,87,200
3,66,84,0
3,71,87,0
3,64,88,195
3,66,83,0
3,71,81,5
3,64,89,195
3,66,84,0
3,71,85,0
3,64,88,320
3,66,97,0
3,71,89,0
3,64,89,230
3,66,87,0
3,71,87,0
3,64,94,500
3,66,85,0
3,71,89,0
3,64,85,195
3,66,84,0
3,71,88,0
3,64,89,190
3,66,84,0
3,71,85,0
3,64,88,190
3,66,85,0
3,71,82,0
3,66,87,335
3,64,88,5
3,71,87,0
3,64,90,280
3,66,84,0
3,71,84,0
3,64,88,455
3,66,83,0
3,71,85,0
3,64,87,200
3,66,79,0
3,71,87,0
3,64,87,200
3,66,85,0
3,71,85,0
3,64,94,205
3,66,105,0
3,71,87,0
3,64,85,315
3,66,89,0
3,71,87,0
3,64,90,240
3,66,84,0
3,71,88,0
3,71,112,14920
3,71,105,165
3,68,105,655
3,71,105,180
3,63,102,385
3,71,100,30
3,69,100,335
3,68,116,340
3,64,105,250
3,61,105,460
3,59,105,5
3,62,105,2500
3,63,103,30
3,66,92,60
3,66,127,165
3,68,105,155
3,71,116,205
3,73,116,150
3,75,120,25
3,73,103,240
3,68,108,10
3,69,108,5
3,68,100,340
3,64,105,15
3,61,103,245
3,59,100,5
3,64,82,47390
3,66,84,0
3,71,84,0
3,64,87,185
3,66,92,0
3,71,85,5
3,64,87,185
3,66,82,0
3,71,83,0
3,64,88,200
3,66,90,0
3,71,87,0
3,64,84,305
3,66,87,0
3,71,87,0
3,64,88,190
3,66,97,0
3,71,85,0
3,64,97,195
3,66,108,0
3,71,92,0
3,66,88,100
3,64,81,10
3,71,87,0
3,64,89,205
3,66,94,0
3,71,87,0
3,64,83,155
3,66,97,0
3,71,84,0
3,64,87,190
3,66,94,0
3,71,87,0
3,64,84,300
3,66,85,0
3,71,78,0
3,64,89,175
3,66,92,0
3,71,89,0
3,64,97,200
3,66,103,0
3,71,100,0
3,64,82,100
3,66,88,0
3,71,84,0
3,64,87,155
3,66,100,0
3,71,87,0
3,64,83,185
3,66,90,0
3,71,83,0
3,64,90,185
3,66,94,0
3,71,87,0
3,64,87,300
3,66,88,0
3,71,85,0
3,64,88,200
3,66,100,0
3,71,88,0
3,64,103,195
3,66,105,0
3,71,100,0
3,64,87,105
3,66,92,0
3,71,89,0
3,64,88,160
3,66,87,0
3,71,84,0
3,64,87,145
3,66,87,0
3,71,87,0
3,64,88,180
3,66,88,0
3,71,89,0
3,64,89,300
3,66,88,0
3,71,85,0
3,64,90,180
3,66,88,0
3,71,88,0
3,64,90,200
3,66,97,0
3,71,97,0
3,64,84,105
3,66,85,0
3,71,84,0
3,64,85,160
3,66,85,0
3,71,87,0
3,64,83,140
3,66,87,0
3,71,84,0
3,64,89,185
3,66,88,0
3,71,87,0
3,64,85,295
3,66,83,0
3,71,87,0
3,64,83,170
3,66,88,0
3,71,89,0
3,64,97,195
3,66,94,0
3,71,100,0
3,64,79,100
3,66,77,0
3,71,87,0
3,64,84,150
3,66,87,0
3,71,85,0
3,64,87,145
3,66,87,0
3,71,89,0
3,64,89,180
3,66,88,0
3,71,87,0
3,64,85,290
3,66,89,0
3,71,88,0
3,64,85,215
3,66,89,0
3,71,88,0
3,64,97,205
3,66,94,0
3,71,97,0
3,64,85,65
3,66,89,0
3,71,85,0
3,64,84,150
3,66,100,0
3,71,87,0
3,64,84,140
3,66,92,0
3,71,88,5
3,64,97,180
3,66,100,0
3,71,90,0
3,64,87,300
3,66,89,0
3,71,88,0
3,64,88,185
3,66,94,0
3,71,89,0
3,64,90,185
3,66,97,0
3,71,97,0
3,64,85,110
3,66,92,0
3,71,85,0
3,64,87,185
3,66,88,0
3,71,88,0
3,64,83,170
3,66,88,0
3,71,85,0
3,64,92,185
3,66,100,0
3,71,92,0
3,64,77,310
3,66,89,0
3,71,90,0
3,64,92,165
3,66,92,0
3,71,97,0
4,40,127,13320
4,40,117,120
4,44,125,15
4,45,117,0
4,47,127,120
4,44,125,110
4,40,117,25
4,40,105,40
4,37,127,105
4,37,112,120
4,40,112,15
4,42,117,0
4,44,127,140
4,40,121,125
4,37,114,15
4,37,104,25
4,32,127,100
4,32,117,105
4,35,109,5
4,37,117,0
4,39,127,115
4,40,117,115
4,42,117,120
4,44,117,110
4,35,123,110
4,35,127,135
4,37,123,20
4,40,110,55
4,42,125,50
4,44,120,35
4,47,120,35
4,49,123,10
4,47,115,25
4,40,127,125
4,40,117,155
4,44,120,15
4,45,123,0
4,47,127,95
4,44,120,110
4,40,104,20
4,40,114,35
4,37,127,95
4,37,120,105
4,40,120,0
4,42,110,120
4,44,119,120
4,40,115,130
4,37,118,20
4,37,113,35
4,32,127,95
4,32,117,110
4,35,125,10
4,37,123,0
4,39,127,125
4,40,114,125
4,42,123,10
4,44,112,15
4,35,112,120
4,35,127,105
4,37,117,0
4,40,112,0
4,42,117,10
4,44,120,0
4,47,120,35
4,49,121,5
4,47,114,10
4,40,127,110
4,40,117,120
4,44,125,15
4,45,117,0
4,47,127,120
4,44,125,110
4,40,117,25
4,40,105,40
4,37,127,105
4,37,112,120
4,40,112,15
4,42,117,0
4,44,127,140
4,40,121,125
4,37,114,15
4,37,104,25
4,32,127,100
4,32,117,105
4,35,109,5
4,37,117,0
4,39,127,115
4,40,117,115
4,42,117,120
4,44,117,110
4,35,120,110
4,35,127,120
4,35,110,135
4,37,120,240
4,37,118,25
4,35,117,20
4,40,120,10
4,42,123,5
4,44,123,0
4,40,127,240
4,40,117,155
4,44,120,15
4,45,123,0
4,47,127,95
4,44,120,110
4,40,104,20
4,40,114,35
4,37,127,95
4,37,120,105
4,40,120,0
4,42,110,120
4,44,119,120
4,40,115,130
4,37,118,20
4,37,113,35
4,32,127,95
4,32,117,110
4,35,125,10
4,37,123,0
4,39,127,125
4,40,114,125
4,42,123,10
4,44,112,15
4,35,112,120
4,35,127,105
4,37,117,0
4,40,112,0
4,42,117,10
4,44,123,0
4,47,120,35
4,49,114,5
4,47,114,10
4,40,127,110
4,40,117,155
4,44,120,15
4,45,123,0
4,47,127,95
4,44,120,110
4,40,104,20
4,40,114,35
4,37,127,95
4,37,120,105
4,40,120,0
4,42,110,120
4,44,119,120
4,47,115,130
4,49,118,20
4,44,127,155
4,32,117,110
4,35,125,10
4,37,123,0
4,39,127,125
4,39,114,125
4,40,123,10
4,42,112,15
4,42,120,115
4,42,127,155
4,40,108,155
4,37,110,120
4,35,127,115
4,42,127,480
4,40,127,20
4,40,117,120
4,44,125,15
4,45,117,0
4,47,127,120
4,44,125,110
4,40,117,25
4,40,105,40
4,37,127,105
4,37,112,120
4,40,112,15
4,42,117,0
4,44,127,140
4,40,121,125
4,37,114,15
4,37,104,25
4,32,127,100
4,32,117,105
4,35,109,5
4,37,117,0
4,39,127,115
4,40,117,115
4,42,117,120
4,44,117,110
4,35,127,110
4,35,127,120
4,37,123,20
4,40,127,30
4,42,127,0
4,44,127,45
4,47,125,0
4,40,127,20
4,40,117,120
4,44,125,15
4,45,117,0
4,47,127,120
4,44,125,110
4,40,117,25
4,40,105,40
4,37,127,105
4,37,112,120
4,40,112,15
4,42,117,0
4,44,127,140
4,40,121,125
4,37,114,15
4,37,104,25
4,32,127,100
4,32,117,105
4,35,109,5
4,37,117,0
4,39,127,115
4,40,117,115
4,42,117,120
4,44,117,110
4,35,120,110
4,35,127,120
4,35,114,135
4,42,127,55
4,42,120,140
4,42,127,15
4,40,127,15
4,40,117,120
4,44,125,15
4,45,117,0
4,47,127,120
4,44,125,110
4,40,117,25
4,40,105,40
4,37,127,105
4,37,112,120
4,40,112,15
4,42,117,0
4,44,127,140
4,40,121,125
4,37,114,15
4,37,104,25
4,32,127,100
4,32,117,105
4,35,109,5
