track,note,velocity,time
1,69,127,4977
1,69,0,71
1,72,127,16
1,72,0,71
1,76,127,49
1,76,0,36
1,76,127,49
1,76,0,595
1,70,127,1189
1,70,0,74
1,72,119,6
1,72,0,55
1,72,127,50
1,72,0,26
1,70,123,25
1,70,0,55
1,76,124,45
1,76,0,271
1,70,119,20
1,70,0,70
1,72,127,16
1,72,0,50
1,72,127,50
1,72,0,55
1,72,127,124
1,72,0,211
1,79,127,2153
1,79,0,28
1,79,127,50
1,79,0,143
1,77,127,69
1,77,0,46
1,75,111,5
1,75,0,65
1,72,126,25
1,72,0,11
1,72,127,54
1,72,0,26
1,75,127,75
1,75,0,216
1,75,127,1065
1,75,0,65
1,77,124,15
1,77,0,21
1,77,127,55
1,77,0,25
1,75,123,16
1,75,0,69
1,79,127,55
1,79,0,289
1,72,126,21
1,72,0,50
1,72,110,45
1,72,0,40
1,72,127,60
1,72,0,11
1,72,127,70
1,72,0,46
1,72,127,99
1,72,0,303
1,77,127,548
1,77,0,25
1,75,119,6
1,75,0,55
1,77,127,50
1,77,0,35
1,75,119,6
1,75,0,60
1,77,127,36
1,77,0,1
1,77,127,59
1,75,116,144
1,77,0,0
1,75,0,70
1,79,127,15
1,79,0,206
1,82,127,830
1,82,0,265
1,75,102,6
1,75,0,84
1,77,109,6
1,77,0,75
1,75,98,11
1,75,0,79
1,77,124,20
1,77,0,75
1,75,81,11
1,75,0,74
1,77,127,26
1,77,0,30
1,75,74,16
1,75,0,41
1,77,127,54
1,77,0,40
1,77,127,94
1,77,0,45
1,76,127,108
1,76,0,182
1,72,113,11
1,72,0,30
1,72,127,59
1,72,0,6
1,75,123,1748
1,75,0,60
1,75,119,31
1,75,0,11
1,75,123,50
1,75,0,50
1,75,119,50
1,75,0,20
1,75,127,55
1,75,0,123
1,72,119,45
1,72,0,104
1,72,127,93
1,72,0,80
1,70,93,6
1,70,0,84
1,72,119,15
1,72,0,99
1,70,111,6
1,72,127,168
1,70,0,11
1,72,0,5
1,75,127,1797
1,75,0,84
1,75,113,16
1,75,0,75
1,75,102,20
1,75,0,65
1,75,102,21
1,75,0,69
1,75,108,45
1,75,0,119
1,72,106,50
1,72,0,114
1,72,124,94
1,72,0,75
1,70,82,15
1,70,0,80
1,72,117,15
1,72,0,144
1,70,113,50
1,70,0,89
1,72,126,6
1,72,0,50
1,77,124,1738
1,77,0,75
1,75,87,10
1,75,0,90
1,77,121,15
1,77,0,79
1,75,113,11
1,75,0,60
1,79,121,65
1,77,124,80
1,79,0,5
1,77,0,40
1,77,127,187
1,77,0,59
1,77,98,25
1,77,0,65
1,75,119,40
1,75,0,89
1,72,126,94
1,72,0,128
1,72,127,74
1,72,0,80
1,75,127,1655
1,75,0,75
1,75,111,20
1,75,0,56
1,75,108,45
1,75,0,45
1,75,100,35
1,75,0,41
1,75,116,74
1,75,0,148
1,72,99,30
1,72,0,70
1,72,124,133
1,72,0,70
1,70,69,11
1,70,0,79
1,72,112,21
1,72,0,89
1,70,96,20
1,72,124,173
1,70,0,11
1,72,0,26
1,77,127,1762
1,77,0,74
1,75,87,11
1,75,0,80
1,77,126,20
1,77,0,74
1,77,127,89
1,77,0,128
1,75,123,55
1,75,0,84
1,79,127,21
1,79,0,16
1,79,127,60
1,79,0,6
1,77,127,251
1,77,0,36
1,77,121,54
1,77,0,30
1,77,117,69
1,77,0,75
1,75,83,11
1,75,0,79
1,79,117,16
1,79,0,65
1,77,127,147
1,77,0,79
1,75,80,11
1,75,0,74
1,77,110,21
1,77,0,74
1,79,100,31
1,79,0,45
1,79,126,49
1,79,0,89
1,77,127,60
1,77,0,65
1,76,124,30
1,72,119,6
1,76,0,0
1,72,0,368
1,69,127,2094
1,69,0,71
1,72,127,16
1,72,0,71
1,76,127,25
1,76,0,472
1,70,127,1285
1,70,0,74
1,72,119,6
1,72,0,55
1,72,127,50
1,72,0,26
1,70,123,25
1,70,0,55
1,76,124,45
1,76,0,271
1,70,119,20
1,70,0,70
1,72,127,16
1,72,0,50
1,72,127,50
1,72,0,55
1,72,127,124
1,72,0,211
1,79,127,2153
1,79,0,28
1,79,127,50
1,79,0,143
1,77,127,69
1,77,0,46
1,75,111,5
1,75,0,65
1,72,126,25
1,72,0,11
1,72,127,54
1,72,0,26
1,75,127,75
1,75,0,216
1,75,127,1065
1,75,0,65
1,77,124,15
1,77,0,21
1,77,127,55
1,77,0,25
1,75,123,16
1,75,0,69
1,79,127,55
1,79,0,289
1,72,126,21
1,72,0,50
1,72,110,45
1,72,0,40
1,72,127,60
1,72,0,11
1,72,127,70
1,72,0,46
1,72,127,99
1,72,0,303
1,77,127,548
1,77,0,25
1,75,119,6
1,75,0,55
1,77,127,50
1,77,0,35
1,75,119,6
1,75,0,60
1,77,127,36
1,77,0,1
1,77,127,59
1,75,116,144
1,77,0,0
1,75,0,70
1,79,127,15
1,79,0,206
1,82,127,830
1,82,0,265
1,75,102,6
1,75,0,84
1,77,109,6
1,77,0,75
1,75,98,11
1,75,0,79
1,77,124,20
1,77,0,75
1,75,81,11
1,75,0,74
1,77,127,26
1,77,0,30
1,75,74,16
1,75,0,41
1,77,127,54
1,77,0,40
1,77,127,94
1,77,0,45
1,76,127,108
1,76,0,182
1,72,113,11
1,72,0,30
1,72,127,59
1,72,0,6
1,75,123,1748
1,75,0,60
1,75,119,31
1,75,0,11
1,75,123,50
1,75,0,50
1,75,119,50
1,75,0,20
1,75,127,55
1,75,0,123
1,72,119,45
1,72,0,104
1,72,127,93
1,72,0,80
1,70,93,6
1,70,0,84
1,72,119,15
1,72,0,99
1,70,111,6
1,72,127,168
1,70,0,11
1,72,0,5
1,75,127,1797
1,75,0,84
1,75,113,16
1,75,0,75
1,75,102,20
1,75,0,65
1,75,102,21
1,75,0,69
1,75,108,45
1,75,0,119
1,72,106,50
1,72,0,114
1,72,124,94
1,72,0,75
1,70,82,15
1,70,0,80
1,72,117,15
1,72,0,144
1,70,113,50
1,70,0,89
1,72,126,6
1,72,0,50
1,77,124,1738
1,77,0,75
1,75,87,10
1,75,0,90
1,77,121,15
1,77,0,79
1,75,113,11
1,75,0,60
1,79,121,65
1,77,124,80
1,79,0,5
1,77,0,40
1,77,127,187
1,77,0,59
1,77,98,25
1,77,0,65
1,75,119,40
1,75,0,89
1,72,126,94
1,72,0,128
1,72,127,74
1,72,0,80
1,75,127,1655
1,75,0,75
1,75,111,20
1,75,0,56
1,75,108,45
1,75,0,45
1,75,100,35
1,75,0,41
1,75,116,74
1,75,0,148
1,72,99,30
1,72,0,70
1,72,124,133
1,72,0,70
1,70,69,11
1,70,0,79
1,72,112,21
1,72,0,89
1,70,96,20
1,72,124,173
1,70,0,11
1,72,0,26
1,77,127,1762
1,77,0,74
1,75,87,11
1,75,0,80
1,77,126,20
1,77,0,74
1,77,127,89
1,77,0,128
1,75,123,55
1,75,0,84
1,79,127,21
1,79,0,16
1,79,127,60
1,79,0,6
1,77,127,251
1,77,0,36
1,77,121,54
1,77,0,30
1,77,117,69
1,77,0,75
1,75,83,11
1,75,0,79
1,79,117,16
1,79,0,65
1,77,127,147
1,77,0,79
1,75,80,11
1,75,0,74
1,77,110,21
1,77,0,74
1,79,100,31
1,79,0,45
1,79,126,49
1,79,0,89
1,77,127,60
1,77,0,65
1,76,124,30
1,72,119,6
1,76,0,0
1,72,0,368
2,36,110,2166
2,36,0,230
2,30,94,61
2,30,0,105
2,31,93,89
2,31,0,105
2,34,114,69
2,34,0,9
2,30,96,120
2,30,0,104
2,31,94,85
2,31,0,100
2,34,107,74
2,34,0,136
2,30,97,99
2,30,0,109
2,31,96,75
2,31,0,110
2,34,101,69
2,34,0,2
2,30,96,109
2,30,0,120
2,31,96,64
2,31,0,130
2,34,97,54
2,34,0,95
2,36,110,2
2,36,0,230
2,30,94,66
2,30,0,105
2,31,93,89
2,31,0,105
2,34,114,69
2,34,0,9
2,30,96,120
2,30,0,104
2,31,94,85
2,31,0,100
2,34,107,74
2,34,0,136
2,30,97,99
2,30,0,109
2,31,96,75
2,31,0,110
2,34,101,69
2,34,0,2
2,30,96,109
2,30,0,120
2,31,96,64
2,31,0,130
2,34,97,54
2,34,0,95
2,36,110,2
2,36,0,230
2,30,94,66
2,30,0,105
2,31,93,89
2,31,0,105
2,34,114,69
2,34,0,9
2,30,96,120
2,30,0,104
2,31,94,85
2,31,0,100
2,34,107,74
2,34,0,136
2,30,97,99
2,30,0,109
2,31,96,75
2,31,0,110
2,34,101,69
2,34,0,2
2,30,96,109
2,30,0,120
2,31,96,64
2,31,0,130
2,34,97,54
2,34,0,95
2,29,99,5
2,29,0,219
2,34,94,70
2,34,0,100
2,36,98,85
2,36,0,110
2,39,103,75
2,39,0,91
2,41,88,1
2,41,0,219
2,34,96,88
2,34,0,86
2,36,96,100
2,36,0,94
2,39,97,90
2,39,0,94
2,41,88,1
2,41,0,199
2,34,92,95
2,34,0,90
2,36,93,104
2,36,0,100
2,39,101,90
2,41,85,106
2,39,0,5
2,41,0,205
2,33,97,94
2,33,0,110
2,34,96,75
2,34,0,96
2,35,98,74
2,35,0,100
2,36,84,11
2,36,0,184
2,30,99,99
2,30,0,85
2,31,93,105
2,31,0,95
2,34,101,89
2,36,84,95
2,34,0,6
2,36,0,209
2,30,101,85
2,30,0,86
2,31,88,99
2,31,0,90
2,34,99,90
2,34,0,85
2,36,84,6
2,36,0,243
2,30,97,70
2,30,0,90
2,31,91,95
2,31,0,85
2,34,101,99
2,34,0,100
2,36,86,5
2,36,0,234
2,30,95,65
2,30,0,67
2,31,88,117
2,31,0,74
2,36,91,118
2,36,0,86
2,31,106,7
2,31,0,220
2,34,91,60
2,34,0,121
2,38,86,75
2,38,0,115
2,41,90,69
2,41,0,106
2,43,82,2
2,43,0,179
2,37,91,113
2,37,0,75
2,38,82,17
2,38,0,76
2,41,65,20
2,41,0,81
2,43,82,15
2,43,0,149
2,41,103,43
2,41,0,120
2,36,110,1417
2,36,0,230
2,30,94,66
2,30,0,105
2,31,93,89
2,31,0,105
2,34,114,69
2,34,0,9
2,30,96,120
2,30,0,104
2,31,94,85
2,31,0,100
2,34,107,74
2,34,0,136
2,30,97,99
2,30,0,109
2,31,96,75
2,31,0,110
2,34,101,69
2,34,0,2
2,29,100,109
2,29,0,58
2,30,106,22
2,30,0,85
2,31,108,19
2,31,0,74
2,34,114,14
2,34,0,90
2,35,114,6
2,35,0,88
2,36,115,9
2,36,0,230
2,30,94,66
2,30,0,105
2,31,93,89
2,31,0,105
2,34,114,69
2,34,0,9
2,30,96,120
2,30,0,104
2,31,94,85
2,31,0,100
2,34,107,74
2,34,0,136
2,30,97,99
2,30,0,109
2,31,96,75
2,31,0,110
2,34,101,69
2,34,0,2
2,30,96,109
2,30,0,120
2,31,96,64
2,31,0,130
2,34,97,54
2,34,0,95
2,36,110,2
2,36,0,230
2,30,94,66
2,30,0,105
2,31,93,89
2,31,0,105
2,34,114,69
2,34,0,9
2,30,96,120
2,30,0,104
2,31,94,85
2,31,0,100
2,34,107,74
2,34,0,136
2,30,97,99
2,30,0,109
2,31,96,75
2,31,0,110
2,34,101,69
2,34,0,2
2,30,96,109
2,30,0,120
2,31,96,64
2,31,0,130
2,34,97,54
2,34,0,95
2,29,99,5
2,29,0,219
2,34,94,70
2,34,0,100
2,36,98,85
2,36,0,110
2,39,103,75
2,39,0,91
2,41,88,1
2,41,0,219
2,34,96,88
2,34,0,86
2,36,96,100
2,36,0,94
2,39,97,90
2,39,0,94
2,41,88,1
2,41,0,199
2,34,92,95
2,34,0,90
2,36,93,104
2,36,0,100
2,39,101,90
2,41,85,106
2,39,0,5
2,41,0,205
2,33,97,94
2,33,0,110
2,34,96,75
2,34,0,96
2,35,98,74
2,35,0,100
2,36,84,11
2,36,0,184
2,30,99,99
2,30,0,85
2,31,93,105
2,31,0,95
2,34,101,89
2,36,84,95
2,34,0,6
2,36,0,209
2,30,101,85
2,30,0,86
2,31,88,99
2,31,0,90
2,34,99,90
2,34,0,85
2,36,84,6
2,36,0,243
2,30,97,70
2,30,0,90
2,31,91,95
2,31,0,85
2,34,101,99
2,34,0,100
2,36,86,5
2,36,0,234
2,30,95,65
2,30,0,67
2,31,88,117
2,31,0,74
2,36,91,118
2,36,0,86
2,31,106,7
2,31,0,220
2,34,91,60
2,34,0,121
2,38,86,75
2,38,0,115
2,41,90,69
2,41,0,106
2,43,82,2
2,43,0,179
2,37,91,113
2,37,0,75
2,38,89,17
2,38,0,76
2,41,99,20
2,41,0,81
2,43,112,15
2,43,0,91
2,42,115,5
2,42,0,95
2,41,103,1
2,41,0,120
2,36,110,1417
2,36,0,230
2,30,94,66
2,30,0,105
2,31,93,89
2,31,0,105
2,34,114,69
2,34,0,9
2,30,96,120
2,30,0,104
2,31,94,85
2,31,0,100
2,34,107,74
2,34,0,136
2,30,97,99
2,30,0,109
2,31,96,75
2,31,0,110
2,34,101,69
2,34,0,2
2,30,96,109
2,30,0,120
2,31,96,64
2,31,0,130
2,34,97,54
2,34,0,95
2,36,110,2
2,36,0,230
2,30,94,66
2,30,0,105
2,31,93,89
2,31,0,105
2,34,114,69
2,34,0,9
2,30,96,120
2,30,0,104
2,31,94,85
2,31,0,100
2,34,107,74
2,34,0,136
2,30,97,99
2,30,0,109
2,31,96,75
2,31,0,110
2,34,101,69
2,34,0,2
2,30,96,109
2,30,0,120
2,31,96,64
2,31,0,130
2,34,97,54
2,34,0,95
2,36,110,2
2,36,0,230
2,30,94,66
2,30,0,105
2,31,93,89
2,31,0,105
2,34,114,69
2,34,0,9
2,30,96,120
2,30,0,104
2,31,94,85
2,31,0,100
2,34,107,74
2,34,0,136
2,30,97,99
2,30,0,109
2,31,96,75
2,31,0,110
2,34,101,69
2,34,0,2
2,30,96,109
2,30,0,120
2,31,96,64
2,31,0,130
2,34,97,54
2,34,0,95
2,29,99,5
2,29,0,219
2,34,94,70
2,34,0,100
2,36,98,85
2,36,0,110
2,39,103,75
2,39,0,91
2,41,88,1
2,41,0,219
2,34,96,88
2,34,0,86
2,36,96,100
2,36,0,94
2,39,97,90
2,39,0,94
2,41,88,1
2,41,0,199
2,34,92,95
2,34,0,90
2,36,93,104
2,36,0,100
2,39,101,90
2,41,85,106
2,39,0,5
2,41,0,205
2,33,97,94
2,33,0,110
2,34,96,75
2,34,0,96
2,35,98,74
2,35,0,100
2,36,84,11
2,36,0,184
2,30,99,99
2,30,0,85
2,31,93,105
2,31,0,95
2,34,101,89
2,36,84,95
2,34,0,6
2,36,0,209
2,30,101,85
2,30,0,86
2,31,88,99
2,31,0,90
2,34,99,90
2,34,0,85
2,36,84,6
2,36,0,243
2,30,97,70
2,30,0,90
2,31,91,95
2,31,0,85
2,34,101,99
2,34,0,100
2,36,86,5
2,36,0,234
2,30,95,65
2,30,0,67
2,31,88,117
2,31,0,74
2,36,91,118
2,36,0,86
2,31,106,7
2,31,0,220
2,34,91,60
2,34,0,121
2,38,86,75
2,38,0,115
2,41,90,69
2,41,0,106
2,43,82,2
2,43,0,179
2,37,91,113
2,37,0,75
2,38,82,17
2,38,0,76
2,41,65,20
2,41,0,81
2,43,82,15
2,43,0,149
2,41,103,43
2,41,0,120
2,36,110,1417
2,36,0,230
2,30,94,66
2,30,0,105
2,31,93,89
2,31,0,105
2,34,114,69
2,34,0,9
2,30,96,120
2,30,0,104
2,31,94,85
2,31,0,100
2,34,107,74
2,34,0,136
2,30,97,99
2,30,0,109
2,31,96,75
2,31,0,110
2,34,101,69
2,34,0,2
2,29,101,109
2,29,0,66
2,30,103,14
2,30,0,76
2,31,107,28
2,31,0,76
2,34,114,12
2,34,0,73
2,35,115,23
2,35,0,92
2,36,117,5
2,36,0,230
2,30,94,66
2,30,0,105
2,31,93,89
2,31,0,105
2,34,114,69
2,34,0,9
2,30,96,120
2,30,0,104
2,31,94,85
2,31,0,100
2,34,107,74
2,34,0,136
2,30,97,99
2,30,0,109
2,31,96,75
2,31,0,110
2,34,101,69
2,34,0,2
