track,note,velocity,time
2,33,91,4246
2,33,0,43
2,38,92,5
2,38,0,78
2,33,91,18
2,38,94,96
2,33,0,4
2,38,0,58
2,33,92,82
2,33,0,36
2,38,95,12
2,38,0,28
2,38,91,20
2,38,0,35
2,38,91,61
2,38,0,35
2,40,91,61
2,40,0,46
2,28,86,50
2,28,0,42
2,33,91,6
2,35,91,96
2,33,0,4
2,37,85,92
2,35,0,4
2,37,0,50
2,42,80,138
2,42,0,46
2,43,91,2
2,43,0,46
2,45,84,2
2,45,0,38
2,45,89,10
2,45,0,94
2,42,84,2
2,42,0,34
2,40,84,14
2,40,0,86
2,35,91,10
2,33,91,96
2,35,0,0
2,33,0,91
2,35,91,5
2,35,0,70
2,33,91,74
2,33,0,38
2,35,91,10
2,35,0,38
2,35,91,10
2,35,0,46
2,33,91,2
2,33,0,42
2,35,91,6
2,35,0,42
2,33,91,54
2,33,0,54
2,31,91,90
2,43,91,192
2,31,0,4
2,43,0,89
2,31,91,3
2,31,0,94
2,33,95,2
2,33,0,190
2,45,91,2
2,45,0,142
2,33,91,2
2,33,0,43
2,38,92,5
2,38,0,78
2,33,91,18
2,38,94,96
2,33,0,4
2,38,0,58
2,33,92,82
2,33,0,36
2,38,95,12
2,38,0,28
2,38,91,20
2,38,0,35
2,38,91,61
2,38,0,35
2,40,91,61
2,40,0,46
2,28,86,50
2,28,0,42
2,33,91,6
2,35,91,96
2,33,0,4
2,37,85,92
2,35,0,4
2,37,0,50
2,42,80,138
2,42,0,46
2,43,91,2
2,43,0,46
2,45,89,50
2,45,0,94
2,42,84,2
2,42,0,34
2,40,84,14
2,40,0,86
2,35,91,10
2,33,91,96
2,35,0,0
2,33,0,91
2,35,91,5
2,35,0,70
2,33,91,74
2,33,0,38
2,35,91,10
2,35,0,38
2,35,91,10
2,35,0,46
2,33,91,2
2,33,0,42
2,35,91,6
2,35,0,42
2,33,91,54
2,33,0,54
2,31,91,90
2,43,91,192
2,31,0,4
2,43,0,89
2,31,91,3
2,31,0,94
2,33,95,2
2,33,0,190
2,45,91,2
2,45,0,162
2,40,95,30
2,40,0,62
2,35,91,82
2,35,0,46
2,38,91,2
2,38,0,46
2,40,91,2
2,40,0,50
2,33,95,46
2,33,0,54
2,50,91,42
2,50,0,46
2,45,91,50
2,45,0,48
2,33,91,48
2,33,0,46
2,33,86,2
2,33,0,42
2,35,91,6
2,38,91,48
2,35,0,3
2,38,0,131
2,38,86,8
2,38,0,47
2,42,78,1
2,45,91,48
2,42,0,4
2,45,0,44
2,47,89,0
2,47,0,46
2,45,91,2
2,50,84,48
2,45,0,2
2,50,0,49
2,50,91,45
2,52,91,22
2,50,0,6
2,52,0,148
2,40,95,19
2,40,0,62
2,35,91,82
2,35,0,46
2,38,91,2
2,38,0,46
2,40,91,2
2,40,0,50
2,33,95,46
2,33,0,54
2,50,91,42
2,50,0,46
2,45,91,50
2,45,0,48
2,33,91,48
2,33,0,46
2,33,86,2
2,33,0,42
2,35,91,6
2,38,100,48
2,35,0,3
2,38,0,49
2,38,98,92
2,38,0,54
2,38,98,90
2,38,0,178
2,37,92,14
2,37,0,54
2,38,91,42
2,39,87,96
2,38,0,2
2,39,0,72
2,40,95,22
2,40,0,62
2,35,91,82
2,35,0,46
2,38,91,2
2,38,0,46
2,40,91,2
2,40,0,50
2,33,95,46
2,33,0,54
2,33,86,42
2,33,0,37
2,35,89,9
2,35,0,42
2,33,84,6
2,33,0,34
2,36,86,14
2,36,0,38
2,33,86,10
2,33,0,34
2,37,76,15
2,37,0,46
2,38,91,49
2,38,0,186
2,37,91,8
2,37,0,186
2,35,91,6
2,35,0,181
2,33,91,11
2,33,0,174
2,40,95,18
2,40,0,62
2,35,91,82
2,35,0,46
2,38,91,2
2,38,0,46
2,40,91,2
2,40,0,50
2,33,95,46
2,33,0,54
2,33,91,44
2,33,0,138
2,45,91,4
2,45,0,93
2,33,91,3
2,33,0,89
2,38,86,5
2,38,0,117
2,38,84,29
2,42,78,46
2,38,0,3
2,38,86,47
2,42,0,0
2,38,0,36
2,47,86,6
2,47,0,46
2,38,59,4
2,38,0,42
2,45,86,5
2,45,0,106
2,45,84,1
2,52,84,9
2,33,91,50
2,52,0,40
2,33,0,3
2,38,92,5
2,38,0,78
2,33,91,18
2,38,94,96
2,33,0,4
2,38,0,58
2,33,92,82
2,33,0,36
2,38,95,12
2,38,0,28
2,38,91,20
2,38,0,35
2,38,91,61
2,38,0,35
2,40,91,61
2,40,0,46
2,28,86,50
2,28,0,42
2,33,91,6
2,35,91,96
2,33,0,4
2,37,85,92
2,35,0,4
2,37,0,50
2,42,80,138
2,42,0,46
2,43,91,2
2,43,0,46
2,45,84,2
2,45,0,38
2,45,89,10
2,45,0,94
2,42,84,2
2,42,0,34
2,40,84,14
2,40,0,86
2,35,91,10
2,33,91,96
2,35,0,0
2,33,0,91
2,35,91,5
2,35,0,70
2,33,91,74
2,33,0,38
2,35,91,10
2,35,0,38
2,35,91,10
2,35,0,46
2,33,91,2
2,33,0,42
2,35,91,6
2,35,0,42
2,33,91,54
2,33,0,54
2,31,91,90
2,43,91,192
2,31,0,4
2,43,0,89
2,31,91,3
2,31,0,94
2,33,95,2
2,33,0,190
2,45,91,2
2,45,0,142
2,33,91,2
2,33,0,43
2,38,92,5
2,38,0,78
2,33,91,18
2,38,94,96
2,33,0,4
2,38,0,58
2,33,92,82
2,33,0,36
2,38,95,12
2,38,0,28
2,38,91,20
2,38,0,35
2,38,91,61
2,38,0,35
2,40,91,61
2,40,0,46
2,28,86,50
2,28,0,42
2,33,91,6
2,35,91,96
2,33,0,4
2,37,85,92
2,35,0,4
2,37,0,50
2,42,80,138
2,42,0,46
2,43,91,2
2,43,0,46
2,45,89,50
2,45,0,94
2,42,84,2
2,42,0,34
2,40,84,14
2,40,0,86
2,35,91,10
2,33,91,96
2,35,0,0
2,33,0,91
2,35,91,5
2,35,0,70
2,33,91,74
2,33,0,38
2,35,91,10
2,35,0,38
2,35,91,10
2,35,0,46
2,33,91,2
2,33,0,42
2,35,91,6
2,35,0,42
2,33,91,54
2,33,0,54
2,31,91,90
2,43,91,192
2,31,0,4
2,43,0,89
2,31,91,3
2,31,0,94
2,33,95,2
2,33,0,190
2,45,91,2
2,45,0,162
2,40,95,30
2,40,0,62
2,35,91,82
2,35,0,46
2,38,91,2
2,38,0,46
2,40,91,2
2,40,0,50
2,33,95,46
2,33,0,54
2,50,91,42
2,50,0,46
2,45,91,50
2,45,0,48
2,33,91,48
2,33,0,46
2,33,86,2
2,33,0,42
2,35,91,6
2,38,91,48
2,35,0,3
2,38,0,131
2,38,86,8
2,38,0,47
2,42,78,1
2,45,91,48
2,42,0,4
2,45,0,44
2,47,89,0
2,47,0,46
2,45,91,2
2,50,84,48
2,45,0,2
2,50,0,49
2,50,91,45
2,52,91,22
2,50,0,6
2,52,0,148
2,40,95,19
2,40,0,62
2,35,91,82
2,35,0,46
2,38,91,2
2,38,0,46
2,40,91,2
2,40,0,50
2,33,95,46
2,33,0,54
2,50,91,42
2,50,0,46
2,45,91,50
2,45,0,48
2,33,91,48
2,33,0,46
2,33,86,2
2,33,0,42
2,35,91,6
2,38,100,48
2,35,0,3
2,38,0,49
2,38,98,92
2,38,0,54
2,38,98,90
2,38,0,178
2,37,92,14
2,37,0,54
2,38,91,42
2,39,87,96
2,38,0,2
2,39,0,72
2,40,95,22
2,40,0,62
2,35,91,82
2,35,0,46
2,38,91,2
2,38,0,46
2,40,91,2
2,40,0,50
2,33,95,46
2,33,0,54
2,33,86,42
2,33,0,37
2,35,89,9
2,35,0,42
2,33,84,6
2,33,0,34
2,36,86,14
2,36,0,38
2,33,86,10
2,33,0,34
2,37,76,15
2,37,0,46
2,38,91,49
2,50,86,98
2,38,0,8
2,50,0,86
2,37,91,2
2,37,0,94
2,49,86,2
2,49,0,94
2,35,91,2
2,35,0,94
2,47,89,2
2,47,0,94
2,33,91,2
2,33,0,94
2,45,89,2
2,45,0,76
2,40,95,20
2,40,0,62
2,35,91,82
2,35,0,46
2,38,91,2
2,38,0,46
2,40,91,2
2,40,0,50
2,33,95,46
2,33,0,54
2,33,91,44
2,33,0,138
2,45,91,4
2,45,0,93
2,33,91,3
2,33,0,89
2,38,86,5
2,38,0,117
2,38,84,29
2,42,78,46
2,38,0,3
2,38,86,47
2,42,0,0
2,38,0,36
2,47,86,6
2,47,0,46
2,38,59,4
2,38,0,42
2,45,86,5
2,45,0,106
2,45,84,1
2,52,84,9
2,52,0,90
2,38,92,8
2,38,0,78
2,33,91,18
2,38,94,96
2,33,0,4
2,38,0,58
2,33,92,82
2,33,0,36
2,38,95,12
2,38,0,28
2,38,91,20
2,38,0,35
2,38,91,61
2,38,0,35
2,40,91,61
2,40,0,46
2,28,86,50
2,28,0,42
2,33,91,6
2,35,91,96
2,33,0,4
2,37,85,92
2,35,0,4
2,37,0,50
2,42,80,138
2,42,0,46
2,43,91,2
2,43,0,46
2,45,84,2
2,45,0,38
2,45,89,10
2,45,0,94
2,42,84,2
2,42,0,34
2,40,84,14
2,40,0,86
2,35,91,10
2,33,91,96
2,35,0,0
2,33,0,91
2,35,91,5
2,35,0,70
2,33,91,74
2,33,0,38
2,35,91,10
2,35,0,38
2,35,91,10
2,35,0,46
2,33,91,2
2,33,0,42
2,35,91,6
2,35,0,42
2,33,91,54
2,33,0,54
2,31,91,90
2,43,91,192
2,31,0,4
2,43,0,89
2,31,91,3
2,31,0,94
2,33,95,2
2,33,0,190
2,45,91,2
2,45,0,142
2,33,91,2
2,33,0,43
2,38,92,5
2,38,0,78
2,33,91,18
2,38,94,96
2,33,0,4
2,38,0,58
2,33,92,82
2,33,0,36
2,38,95,12
2,38,0,28
2,38,91,20
2,38,0,35
2,38,91,61
2,38,0,35
2,40,91,61
2,40,0,46
2,28,86,50
2,28,0,42
2,33,91,6
2,35,91,96
2,33,0,4
2,37,85,92
2,35,0,4
2,37,0,50
2,42,80,138
2,42,0,46
2,43,91,2
2,43,0,46
2,45,89,50
2,45,0,94
2,42,84,2
2,42,0,34
2,40,84,14
2,40,0,86
2,35,91,10
2,33,91,96
2,35,0,0
2,33,0,91
2,35,91,5
2,35,0,70
2,33,91,74
2,33,0,38
2,35,91,10
2,35,0,38
2,35,91,10
2,35,0,46
2,33,91,2
2,33,0,42
2,35,91,6
2,35,0,42
2,33,91,54
2,33,0,54
2,31,91,90
2,43,91,192
2,31,0,4
2,43,0,89
2,31,91,3
2,31,0,94
2,33,95,2
2,33,0,190
2,45,91,2
2,45,0,162
2,38,92,30
2,38,0,78
2,33,91,18
2,38,94,96
2,33,0,4
2,38,0,58
2,33,92,82
2,33,0,36
2,38,95,12
2,38,0,28
2,38,91,20
2,38,0,35
2,38,91,61
2,38,0,35
2,40,91,61
2,40,0,46
2,28,86,50
2,28,0,42
2,33,91,6
2,35,91,96
2,33,0,4
2,37,85,92
2,35,0,4
2,37,0,50
2,42,80,138
2,42,0,46
2,43,91,2
2,43,0,46
2,45,84,2
2,45,0,38
2,45,89,10
2,45,0,94
2,42,84,2
2,42,0,34
2,40,84,14
2,40,0,86
2,35,91,10
2,33,91,96
2,35,0,0
2,33,0,91
2,35,91,5
2,35,0,70
2,33,91,74
2,33,0,38
2,35,91,10
2,35,0,38
2,35,91,10
2,35,0,46
2,33,91,2
2,33,0,42
2,35,91,6
2,35,0,42
2,33,91,54
2,33,0,54
2,31,91,90
2,43,91,192
2,31,0,4
2,43,0,89
2,31,91,3
2,31,0,94
2,33,95,2
2,33,0,190
2,45,91,2
2,45,0,142
2,33,91,2
2,33,0,43
2,38,92,5
2,38,0,78
2,33,91,18
2,38,94,96
2,33,0,4
2,38,0,58
2,33,92,82
2,33,0,36
2,38,95,12
2,38,0,28
2,38,91,20
2,38,0,35
2,38,91,61
2,38,0,35
2,40,91,61
2,40,0,46
2,28,86,50
2,28,0,42
2,33,91,6
2,35,91,96
2,33,0,4
2,37,85,92
2,35,0,4
2,37,0,50
2,42,80,138
2,42,0,46
2,43,91,2
2,43,0,46
2,45,89,50
2,45,0,94
2,42,84,2
2,42,0,34
2,40,84,14
2,40,0,86
2,35,91,10
2,33,91,96
2,35,0,0
2,33,0,91
2,35,91,5
2,35,0,70
2,33,91,74
2,33,0,38
2,35,91,10
2,35,0,38
2,35,91,10
2,35,0,46
2,33,91,2
2,33,0,42
2,35,91,6
2,35,0,42
2,33,91,54
2,33,0,54
2,31,91,90
2,43,91,192
2,31,0,4
2,43,0,89
2,31,91,3
2,31,0,94
2,45,91,5
2,45,0,84
2,43,91,11
2,43,0,92
2,42,85,4
2,42,0,85
2,40,84,8
2,40,0,390
2,40,91,763
2,40,0,62
2,40,89,82
2,40,0,62
2,35,80,231
2,35,0,22
2,40,92,21
2,40,0,42
2,40,91,10
2,40,0,42
2,28,91,242
2,28,0,37
2,33,97,11
2,33,0,32
2,33,91,16
2,33,0,58
2,33,86,136
2,33,0,38
2,35,91,10
2,35,0,34
2,37,90,20
2,37,0,39
2,38,95,6
2,38,0,38
2,38,93,5
2,38,0,38
2,38,95,10
2,38,0,54
2,38,94,42
2,38,0,62
2,35,98,34
2,38,94,48
2,35,0,5
2,38,0,33
2,35,95,58
2,35,0,42
2,38,91,6
2,38,0,38
2,42,78,58
2,42,0,34
2,45,91,14
2,45,0,86
2,35,80,15
2,35,0,22
2,40,92,21
2,40,0,42
2,40,91,10
2,40,0,42
2,28,91,242
2,28,0,37
2,33,97,11
2,33,0,32
2,33,91,16
2,33,0,58
2,45,91,93
2,45,0,62
2,43,95,35
2,43,0,45
2,42,91,47
2,42,0,22
2,42,95,24
2,42,0,39
2,50,91,1
2,52,91,35
2,37,87,9
2,37,0,46
2,38,91,48
2,38,0,40
2,39,85,2
2,39,0,129
2,40,95,18
2,40,0,62
2,35,91,82
2,35,0,46
2,38,91,2
2,38,0,46
2,40,91,2
2,40,0,50
2,33,95,46
2,33,0,54
2,33,86,42
2,33,0,37
2,35,89,9
2,35,0,42
2,33,84,6
2,33,0,34
2,36,86,14
2,36,0,38
2,33,86,10
2,33,0,34
2,37,76,15
2,37,0,46
2,38,91,49
2,50,86,98
2,38,0,8
2,50,0,86
2,37,91,2
2,37,0,94
2,49,86,2
2,49,0,94
2,35,91,2
2,35,0,94
2,47,89,2
2,47,0,94
2,33,91,2
2,33,0,94
2,45,89,2
2,45,0,76
2,40,95,20
2,40,0,62
2,38,91,32
2,38,0,43
2,40,91,16
2,40,0,34
2,38,91,52
2,38,0,39
2,40,91,10
2,40,0,38
2,33,91,12
2,33,0,50
2,33,91,46
2,33,0,138
2,45,91,4
2,45,0,93
2,33,91,3
2,33,0,89
2,38,86,5
2,38,0,117
2,38,84,29
2,42,78,46
2,38,0,3
2,38,86,47
2,42,0,0
2,38,0,36
2,47,86,6
2,47,0,46
2,38,59,4
2,38,0,42
2,45,86,5
2,45,0,106
2,45,84,1
2,52,84,9
2,52,0,90
2,38,92,8
2,38,0,78
2,33,91,18
2,38,94,96
2,33,0,4
2,38,0,58
2,33,92,82
2,33,0,36
2,38,95,12
2,38,0,28
2,38,91,20
2,38,0,35
2,38,91,61
2,38,0,35
2,40,91,61
2,40,0,46
2,28,86,50
2,28,0,42
2,33,91,6
2,35,91,96
2,33,0,4
2,37,85,92
2,35,0,4
2,37,0,50
2,42,80,138
2,42,0,46
2,43,91,2
2,43,0,46
2,45,84,2
2,45,0,38
2,45,89,10
2,45,0,94
2,42,84,2
2,42,0,34
2,40,84,14
2,40,0,86
2,35,91,10
2,33,91,96
2,35,0,0
2,33,0,91
2,35,91,5
2,35,0,70
2,33,91,74
2,33,0,38
2,35,91,10
2,35,0,38
2,35,91,10
2,35,0,46
2,33,91,2
2,33,0,42
2,35,91,6
2,35,0,42
2,33,91,54
2,33,0,54
2,31,91,90
2,43,91,192
2,31,0,4
2,43,0,89
2,31,91,3
2,31,0,94
2,33,95,2
2,33,0,190
2,45,91,2
