track,note,velocity,time
3,38,102,1048
3,38,0,21
3,38,102,26
3,38,0,45
3,33,101,4
3,33,0,46
3,38,100,50
3,38,0,76
3,33,96,260
3,33,0,32
3,38,93,16
3,38,0,28
3,38,98,20
3,38,0,27
3,35,96,21
3,35,0,37
3,35,98,11
3,35,0,36
3,33,96,12
3,33,0,64
3,33,95,32
3,33,0,70
3,28,97,26
3,28,0,74
3,33,95,22
3,33,0,94
3,28,97,338
3,28,0,27
3,31,105,21
3,31,0,30
3,31,98,18
3,31,0,35
3,35,97,13
3,35,0,69
3,38,97,27
3,38,0,65
3,31,99,31
3,31,0,190
3,31,99,242
3,31,0,28
3,33,94,20
3,33,0,30
3,33,89,18
3,33,0,37
3,37,94,11
3,37,0,59
3,40,95,36
3,40,0,58
3,33,96,39
3,33,0,286
3,33,95,146
3,33,0,28
3,38,102,20
3,38,0,21
3,38,96,26
3,38,0,45
3,33,100,4
3,33,0,46
3,38,99,50
3,38,0,76
3,33,97,260
3,33,0,32
3,38,93,16
3,38,0,28
3,38,95,20
3,38,0,27
3,35,95,21
3,35,0,37
3,35,95,11
3,35,0,36
3,33,93,12
3,33,0,64
3,33,98,32
3,33,0,70
3,28,97,26
3,28,0,74
3,33,95,22
3,33,0,94
3,28,102,338
3,28,0,27
3,31,104,21
3,31,0,30
3,31,97,18
3,31,0,35
3,35,97,13
3,35,0,69
3,38,96,27
3,38,0,65
3,31,99,31
3,31,0,190
3,31,95,242
3,31,0,28
3,33,97,20
3,33,0,30
3,33,90,18
3,33,0,37
3,37,89,11
3,37,0,59
3,40,98,36
3,40,0,58
3,33,95,39
3,33,0,286
3,33,96,146
3,33,0,28
3,38,102,20
3,38,0,21
3,38,98,26
3,38,0,45
3,33,96,4
3,33,0,46
3,38,96,50
3,38,0,76
3,33,99,260
3,33,0,32
3,38,95,16
3,38,0,28
3,38,92,20
3,38,0,27
3,35,90,21
3,35,0,37
3,35,94,11
3,35,0,36
3,33,99,12
3,33,0,64
3,33,99,32
3,33,0,70
3,28,97,26
3,28,0,74
3,33,95,22
3,33,0,94
3,28,99,338
3,28,0,27
3,31,104,21
3,31,0,30
3,31,101,18
3,31,0,35
3,35,98,13
3,35,0,69
3,38,100,27
3,38,0,65
3,31,105,31
3,31,0,190
3,31,98,242
3,31,0,28
3,33,98,20
3,33,0,30
3,33,93,18
3,33,0,37
3,37,90,11
3,37,0,59
3,40,103,36
3,40,0,58
3,33,101,39
3,33,0,286
3,33,94,146
3,33,0,28
3,38,101,20
3,38,0,21
3,38,96,26
3,38,0,45
3,33,99,4
3,33,0,46
3,38,100,50
3,38,0,76
3,33,97,260
3,33,0,32
3,38,99,16
3,38,0,28
3,38,94,20
3,38,0,27
3,35,94,21
3,35,0,37
3,35,100,11
3,35,0,36
3,33,98,12
3,33,0,64
3,33,98,32
3,33,0,70
3,28,91,26
3,28,0,74
3,33,90,22
3,33,0,94
3,28,103,338
3,28,0,27
3,31,97,21
3,31,0,30
3,31,97,18
3,31,0,35
3,35,100,13
3,35,0,69
3,38,101,27
3,38,0,65
3,31,101,31
3,31,0,190
3,31,93,242
3,31,0,28
3,33,93,20
3,33,0,30
3,33,89,18
3,33,0,37
3,37,90,11
3,37,0,59
3,40,96,36
3,40,0,58
3,33,96,39
3,33,0,190
3,67,99,3
3,67,0,236
3,33,99,3
3,33,0,28
3,38,104,20
3,38,0,21
3,38,101,26
3,38,0,45
3,33,102,4
3,33,0,46
3,38,102,50
3,38,0,76
3,33,93,260
3,33,0,32
3,38,99,16
3,38,0,28
3,38,97,20
3,38,0,27
3,35,91,21
3,35,0,37
3,35,99,11
3,35,0,36
3,33,95,12
3,33,0,64
3,33,94,32
3,33,0,70
3,28,94,26
3,28,0,74
3,33,94,22
3,33,0,94
3,28,103,338
3,28,0,27
3,31,100,21
3,31,0,30
3,31,96,18
3,31,0,35
3,35,104,13
3,35,0,69
3,38,97,27
3,38,0,65
3,31,104,31
3,31,0,190
3,31,95,242
3,31,0,28
3,33,96,20
3,33,0,30
3,33,92,18
3,33,0,37
3,37,91,11
3,37,0,59
3,40,96,36
3,40,0,58
3,33,98,39
3,33,0,286
3,33,98,146
3,33,0,28
3,38,99,20
3,38,0,21
3,38,100,26
3,38,0,45
3,33,100,4
3,33,0,46
3,38,96,50
3,38,0,76
3,33,93,260
3,33,0,32
3,38,96,16
3,38,0,28
3,38,91,20
3,38,0,27
3,35,94,21
3,35,0,37
3,35,98,11
3,35,0,36
3,33,94,12
3,33,0,64
3,33,98,32
3,33,0,70
3,28,94,26
3,28,0,74
3,33,92,22
3,33,0,94
3,28,98,338
3,28,0,27
3,31,101,21
3,31,0,30
3,31,101,18
3,31,0,35
3,35,99,13
3,35,0,69
3,38,97,27
3,38,0,65
3,31,102,31
3,31,0,190
3,31,97,242
3,31,0,28
3,33,93,20
3,33,0,30
3,33,95,18
3,33,0,37
3,37,93,11
3,37,0,59
3,40,101,36
3,40,0,58
3,33,97,39
3,33,0,286
3,38,103,194
3,38,0,539
3,38,93,37
3,38,0,179
3,31,101,13
3,31,0,540
3,32,96,36
3,32,0,178
3,33,97,13
3,33,0,567
3,32,91,10
3,32,0,179
3,31,93,12
3,31,0,549
3,33,88,27
3,33,0,47
3,35,89,1
3,35,0,95
3,37,93,1
3,37,0,47
3,38,95,2
3,38,0,532
3,38,89,44
3,38,0,183
3,31,87,9
3,31,0,530
3,32,89,45
3,32,0,183
3,33,96,10
3,32,86,576
3,33,0,5
3,32,0,184
3,31,84,3
3,31,0,767
3,38,98,1
3,38,0,21
3,38,100,26
3,38,0,45
3,33,102,4
3,33,0,46
3,38,102,50
3,38,0,76
3,33,95,260
3,33,0,32
3,38,95,16
3,38,0,28
3,38,94,20
3,38,0,27
3,35,90,21
3,35,0,37
3,35,95,11
3,35,0,36
3,33,95,12
3,33,0,64
3,33,96,32
3,33,0,70
3,28,97,26
3,28,0,74
3,33,90,22
3,33,0,94
3,28,101,338
3,28,0,27
3,31,103,21
3,31,0,30
3,31,103,18
3,31,0,35
3,35,101,13
3,35,0,69
3,38,100,27
3,38,0,65
3,31,100,31
3,31,0,142
3,31,94,290
3,31,0,28
3,33,93,20
3,33,0,30
3,33,96,18
3,33,0,37
3,37,91,11
3,37,0,59
3,40,98,36
3,40,0,58
3,33,96,39
3,33,0,142
3,33,100,290
3,33,0,28
3,38,103,20
3,38,0,21
3,38,100,26
3,38,0,45
3,33,96,4
3,33,0,46
3,38,99,50
3,38,0,76
3,33,97,260
3,33,0,32
3,38,95,16
3,38,0,28
3,38,96,20
3,38,0,27
3,35,90,21
3,35,0,37
3,35,94,11
3,35,0,36
3,33,97,12
3,33,0,64
3,33,100,32
3,33,0,70
3,28,92,26
3,28,0,74
3,33,92,22
3,33,0,94
3,28,98,338
3,28,0,27
3,31,103,21
3,31,0,30
3,31,101,18
3,31,0,35
3,35,102,13
3,35,0,69
3,38,98,27
3,38,0,65
3,31,102,31
3,31,0,190
3,31,93,242
3,31,0,28
3,33,95,20
3,33,0,30
3,33,91,18
3,33,0,37
3,37,92,11
3,37,0,59
3,40,100,36
3,40,0,58
3,33,98,39
3,33,0,286
3,33,95,146
3,33,0,28
3,38,98,20
3,38,0,21
3,38,100,26
3,38,0,45
3,33,97,4
3,33,0,46
3,38,103,50
3,38,0,76
3,33,94,260
3,33,0,32
3,38,99,16
3,38,0,28
3,38,91,20
3,38,0,27
3,35,91,21
3,35,0,37
3,35,101,11
3,35,0,36
3,33,96,12
3,33,0,64
3,33,100,32
3,33,0,70
3,28,97,26
3,28,0,74
3,33,97,22
3,33,0,94
3,28,102,338
3,28,0,27
3,31,99,21
3,31,0,30
3,31,103,18
3,31,0,35
3,35,101,13
3,35,0,69
3,38,101,27
3,38,0,65
3,31,99,31
3,31,0,190
3,31,93,242
3,31,0,28
3,33,95,20
3,33,0,30
3,33,91,18
3,33,0,37
3,37,95,11
3,37,0,59
3,40,96,36
3,40,0,58
3,33,100,39
3,33,0,286
3,38,102,194
3,38,0,539
3,38,93,37
3,38,0,179
3,31,95,13
3,31,0,540
3,32,91,36
3,32,0,178
3,33,95,13
3,33,0,567
3,32,89,10
3,32,0,179
3,31,94,12
3,31,0,549
3,33,86,27
3,33,0,47
3,35,91,1
3,35,0,95
3,37,93,1
3,37,0,47
3,38,98,2
3,38,0,532
3,38,87,44
3,38,0,183
3,31,86,9
3,31,0,530
3,32,89,45
3,32,0,183
3,33,92,10
3,32,89,576
3,33,0,5
3,32,0,184
3,31,91,3
3,31,0,767
3,38,98,1
3,38,0,21
3,38,102,26
3,38,0,45
3,33,96,4
3,33,0,46
3,38,96,50
3,38,0,76
3,33,95,260
3,33,0,32
3,38,97,16
3,38,0,28
3,38,98,20
3,38,0,27
3,35,93,21
3,35,0,37
3,35,100,11
3,35,0,36
3,33,92,12
3,33,0,64
3,33,98,32
3,33,0,70
3,28,93,26
3,28,0,74
3,33,97,22
3,33,0,94
3,28,99,338
3,28,0,27
3,31,103,21
3,31,0,30
3,31,102,18
3,31,0,35
3,35,102,13
3,35,0,69
3,38,97,27
3,38,0,65
3,31,105,31
3,31,0,190
3,31,94,242
3,31,0,28
3,33,97,20
3,33,0,30
3,33,93,18
3,33,0,37
3,37,96,11
3,37,0,59
3,40,95,36
3,40,0,58
3,33,99,39
3,33,0,286
3,33,100,146
3,33,0,28
3,38,105,20
3,38,0,21
3,38,103,26
3,38,0,45
3,33,97,4
3,33,0,46
3,38,101,50
3,38,0,76
3,33,94,260
3,33,0,32
3,38,98,16
3,38,0,28
3,38,92,20
3,38,0,27
3,35,91,21
3,35,0,37
3,35,95,11
3,35,0,36
3,33,96,12
3,33,0,64
3,33,95,32
3,33,0,70
3,28,94,26
3,28,0,74
3,33,91,22
3,33,0,94
3,28,100,338
3,28,0,27
3,31,99,21
3,31,0,30
3,31,99,18
3,31,0,35
3,35,104,13
3,35,0,69
3,38,102,27
3,38,0,65
3,31,105,31
3,31,0,142
3,31,101,290
3,31,0,28
3,33,99,20
3,33,0,30
3,33,91,18
3,33,0,37
3,37,94,11
3,37,0,59
3,40,100,36
3,40,0,58
3,33,97,39
3,33,0,142
3,33,96,290
3,33,0,28
3,38,100,20
3,38,0,21
3,38,101,26
3,38,0,45
3,33,101,4
3,33,0,46
3,38,102,50
3,38,0,76
3,33,93,260
3,33,0,32
3,38,97,16
3,38,0,28
3,38,96,20
3,38,0,27
3,35,90,21
3,35,0,37
3,35,101,11
3,35,0,36
3,33,95,12
3,33,0,64
3,33,97,32
3,33,0,70
3,28,96,26
3,28,0,74
3,33,91,22
3,33,0,94
3,28,102,338
3,28,0,27
3,31,97,21
3,31,0,30
3,31,100,18
3,31,0,35
3,35,97,13
3,35,0,69
3,38,103,27
3,38,0,65
3,31,101,31
3,31,0,94
3,31,93,338
3,31,0,28
3,33,99,20
3,33,0,30
3,33,91,18
3,33,0,37
3,37,90,11
3,37,0,59
3,40,99,36
3,40,0,58
3,33,99,39
3,33,0,286
3,33,100,146
3,33,0,28
3,38,102,20
3,38,0,21
3,38,97,26
3,38,0,45
3,33,100,4
3,33,0,46
3,38,100,50
3,38,0,76
3,33,97,260
3,33,0,32
3,38,93,16
3,38,0,28
3,38,92,20
3,38,0,27
3,35,92,21
3,35,0,37
3,35,96,11
3,35,0,36
3,33,92,12
3,33,0,64
3,33,96,32
3,33,0,70
3,28,94,26
3,28,0,74
3,33,92,22
3,33,0,94
3,28,100,338
3,28,0,27
3,31,102,21
3,31,0,30
3,31,100,18
3,31,0,35
3,35,104,13
3,35,0,69
3,38,98,27
3,38,0,65
3,31,99,31
3,31,0,94
3,31,100,338
3,31,0,28
3,33,99,20
3,33,0,30
3,33,95,18
3,33,0,37
3,37,95,11
3,37,0,59
3,40,100,36
3,40,0,58
3,33,98,39
3,33,0,286
3,38,102,194
3,38,0,539
3,38,89,37
3,38,0,179
3,31,98,13
3,31,0,540
3,32,91,36
3,32,0,178
3,33,99,13
3,33,0,567
3,32,87,10
3,32,0,179
3,31,91,12
3,31,0,54
3,38,96,715
3,38,0,532
3,38,88,44
3,38,0,183
3,31,88,9
3,31,0,530
3,32,94,45
3,32,0,183
3,33,96,10
3,33,0,564
3,40,95,12
3,40,0,43
3,35,96,5
3,35,0,46
3,33,91,2
3,33,0,39
3,30,95,8
3,30,0,45
3,31,95,4
3,31,0,28
3,31,97,19
3,31,0,51
3,31,97,47
3,31,0,39
3,31,98,55
3,31,0,24
3,31,92,25
3,31,0,66
3,37,91,126
3,37,0,48
3,33,89,5
3,33,0,31
3,33,89,18
3,33,0,42
3,33,89,54
3,33,0,36
3,33,95,58
3,33,0,26
3,33,94,22
3,33,0,26
3,33,94,24
3,33,0,43
3,33,96,52
3,33,0,39
3,35,94,8
3,35,0,48
3,37,95,0
3,37,0,40
3,40,91,8
3,37,93,48
3,40,0,2
3,37,0,46
3,35,94,0
3,33,96,50
3,35,0,8
3,33,0,29
3,31,92,9
3,31,0,31
3,31,94,19
3,31,0,43
3,31,98,52
3,31,0,41
3,31,91,56
3,31,0,21
3,31,91,26
3,31,0,24
3,31,101,25
3,31,0,61
3,37,91,82
3,37,0,9
3,31,94,7
3,31,0,63
3,31,99,80
3,31,0,22
3,31,96,25
3,31,0,44
3,31,95,52
3,31,0,24
3,31,100,24
3,31,0,37
3,31,91,58
3,31,0,31
3,31,100,19
3,31,0,25
3,33,104,21
3,33,0,33
3,35,100,15
3,35,0,40
3,38,94,8
3,38,0,91
3,40,97,6
3,40,0,45
3,38,100,2
3,35,94,49
3,38,0,1
3,38,98,95
3,35,0,3
3,38,0,18
3,38,99,26
3,38,0,45
3,33,98,4
3,33,0,46
3,38,97,50
3,38,0,76
3,33,93,260
3,33,0,32
3,38,97,16
3,38,0,28
3,38,97,20
3,38,0,27
3,35,92,21
3,35,0,37
3,35,94,11
3,35,0,36
3,33,97,12
3,33,0,64
3,33,95,32
3,33,0,70
3,28,97,26
3,28,0,74
3,33,96,22
3,33,0,94
3,28,97,338
3,28,0,27
3,31,98,21
3,31,0,30
3,31,96,18
3,31,0,35
3,35,101,13
3,35,0,69
3,38,103,27
3,38,0,65
3,31,103,31
3,31,0,190
3,31,96,242
3,31,0,28
3,33,100,20
3,33,0,30
3,33,90,18
3,33,0,37
3,37,94,11
3,37,0,59
3,40,96,36
3,40,0,58
3,33,97,39
3,33,0,286
3,33,99,146
3,33,0,28
3,38,103,20
3,38,0,21
3,38,101,26
3,38,0,45
3,33,98,4
3,33,0,46
3,38,97,50
3,38,0,76
3,33,94,260
3,33,0,32
3,38,95,16
3,38,0,28
3,38,91,20
3,38,0,27
3,35,91,21
3,35,0,37
3,35,100,11
3,35,0,36
3,33,95,12
3,33,0,64
3,33,97,32
3,33,0,70
3,28,90,26
3,28,0,74
3,33,91,22
3,33,0,94
3,28,97,338
3,28,0,27
3,31,102,21
3,31,0,30
3,31,101,18
3,31,0,35
3,35,98,13
3,35,0,69
3,38,97,27
3,38,0,65
3,31,102,31
3,31,0,190
3,31,96,242
3,31,0,28
3,33,97,20
3,33,0,30
3,33,93,18
3,33,0,37
3,37,96,11
3,37,0,59
3,40,96,36
3,40,0,58
3,33,102,39
3,33,0,286
3,38,104,194
3,38,0,21
3,38,102,26
3,38,0,45
3,33,98,4
3,33,0,46
3,38,96,50
3,38,0,76
3,33,94,260
3,33,0,32
3,38,95,16
3,38,0,28
3,38,94,20
3,38,0,27
3,35,95,21
3,35,0,37
3,35,95,11
3,35,0,36
3,33,94,12
3,33,0,64
3,33,94,32
3,33,0,70
3,28,92,26
3,28,0,74
3,33,97,22
3,33,0,94
3,28,103,338
3,28,0,27
3,31,98,21
3,31,0,30
3,31,96,18
3,31,0,35
3,35,104,13
3,35,0,69
3,38,102,27
3,38,0,65
3,31,105,31
3,31,0,190
3,31,95,242
3,31,0,28
3,33,96,20
3,33,0,30
3,33,90,18
3,33,0,37
3,37,89,11
3,37,0,59
3,40,95,36
3,40,0,58
