track,note,velocity,time
1,69,93,109
1,64,104,0
1,61,89,0
1,61,0,79
1,61,72,17
1,69,0,11
1,61,0,7
1,64,0,7
1,64,96,23
1,61,99,0
1,69,99,0
1,61,0,29
1,64,0,1
1,69,0,4
1,69,96,62
1,64,102,0
1,61,89,0
1,64,0,24
1,61,0,1
1,69,0,2
1,61,60,117
1,61,0,22
1,61,91,74
1,64,102,0
1,69,96,0
1,61,0,24
1,64,0,7
1,69,0,8
1,68,88,57
1,64,96,0
1,59,89,0
1,68,0,125
1,59,0,3
1,64,0,7
1,68,102,57
1,64,93,0
1,59,107,0
1,59,0,48
1,64,0,45
1,59,56,3
1,68,0,4
1,59,0,12
1,62,102,32
1,57,96,0
1,66,99,0
1,57,0,30
1,62,0,2
1,66,0,10
1,66,99,54
1,57,91,0
1,62,102,0
1,57,0,37
1,57,62,11
1,66,0,9
1,57,0,7
1,62,0,0
1,61,107,272
1,64,99,0
1,69,104,0
1,61,0,134
1,69,0,11
1,64,0,6
1,64,96,41
1,69,104,0
1,61,96,0
1,61,0,73
1,61,60,23
1,64,0,5
1,69,0,3
1,61,0,4
1,69,96,36
1,61,110,0
1,64,104,0
1,64,0,24
1,61,0,3
1,69,0,5
1,61,104,64
1,69,96,0
1,64,102,0
1,64,0,24
1,61,0,4
1,61,58,20
1,69,0,6
1,61,0,21
1,61,76,69
1,61,0,29
1,64,89,67
1,61,87,0
1,69,93,0
1,61,0,25
1,64,0,1
1,69,0,15
1,64,96,55
1,59,96,0
1,68,93,0
1,59,0,134
1,68,0,11
1,64,0,7
1,68,99,40
1,64,102,0
1,59,102,0
1,59,0,43
1,64,0,22
1,68,0,1
1,59,41,30
1,59,0,14
1,57,107,34
1,62,99,0
1,66,99,0
1,57,0,22
1,62,0,3
1,66,0,4
1,57,99,67
1,66,104,0
1,62,110,0
1,57,0,191
1,66,0,19
1,62,0,3
1,57,62,27
1,66,62,0
1,66,0,11
1,57,0,0
1,64,96,85
1,59,99,0
1,56,96,0
1,56,0,120
1,64,0,1
1,59,0,2
1,56,77,21
1,64,93,0
1,59,88,0
1,59,0,24
1,56,0,0
1,64,0,4
1,64,102,116
1,59,93,0
1,56,99,0
1,56,0,127
1,59,0,3
1,64,0,1
1,64,84,13
1,56,61,0
1,59,83,0
1,56,0,23
1,64,0,3
1,59,0,2
1,56,86,212
1,59,93,0
1,64,91,0
1,59,0,21
1,56,0,5
1,64,0,28
1,62,96,42
1,54,91,0
1,57,89,0
1,54,0,116
1,57,0,4
1,62,0,7
1,62,86,17
1,57,81,0
1,54,83,0
1,54,0,21
1,57,0,3
1,62,0,9
1,57,96,111
1,62,99,0
1,54,91,0
1,54,0,127
1,57,0,6
1,62,0,7
1,62,66,4
1,54,73,0
1,57,78,0
1,54,0,23
1,57,0,6
1,62,0,3
1,62,84,112
1,54,80,0
1,57,91,0
1,57,0,23
1,54,0,3
1,62,0,8
1,54,82,62
1,62,88,0
1,57,91,0
1,57,0,21
1,54,0,8
1,62,0,6
1,56,96,61
1,64,93,0
1,59,88,0
1,56,0,116
1,59,0,1
1,64,0,8
1,64,81,19
1,56,75,0
1,59,81,0
1,56,0,24
1,64,0,0
1,59,0,2
1,59,99,118
1,56,93,0
1,64,96,0
1,56,0,127
1,64,0,4
1,59,0,0
1,64,87,13
1,56,78,0
1,59,86,0
1,56,0,26
1,64,0,11
1,59,0,1
1,64,84,202
1,59,83,0
1,56,81,0
1,59,0,21
1,56,0,9
1,64,0,10
1,57,96,56
1,54,91,0
1,62,99,0
1,57,0,122
1,54,0,2
1,62,0,6
1,57,89,14
1,62,86,0
1,54,75,0
1,57,0,21
1,54,0,3
1,62,0,8
1,54,91,112
1,57,99,0
1,62,107,0
1,54,0,134
1,57,0,1
1,62,0,2
1,54,62,7
1,62,84,0
1,57,83,0
1,54,0,26
1,57,0,8
1,62,0,9
1,54,96,101
1,57,99,0
1,62,99,0
1,54,0,28
1,57,0,2
1,62,0,13
1,54,88,53
1,57,91,0
1,62,86,0
1,54,0,36
1,57,0,3
1,62,0,5
1,64,96,52
1,59,99,0
1,56,96,0
1,56,0,120
1,64,0,1
1,59,0,2
1,56,77,21
1,64,93,0
1,59,88,0
1,59,0,24
1,56,0,0
1,64,0,4
1,64,102,116
1,59,93,0
1,56,99,0
1,56,0,127
1,59,0,3
1,64,0,1
1,64,84,13
1,56,61,0
1,59,83,0
1,56,0,23
1,64,0,3
1,59,0,2
1,56,86,212
1,59,93,0
1,64,91,0
1,59,0,21
1,56,0,5
1,64,0,28
1,62,96,42
1,54,91,0
1,57,89,0
1,54,0,116
1,57,0,4
1,62,0,7
1,62,86,17
1,57,81,0
1,54,83,0
1,54,0,21
1,57,0,3
1,62,0,9
1,57,96,111
1,62,99,0
1,54,91,0
1,54,0,127
1,57,0,6
1,62,0,7
1,62,66,4
1,54,73,0
1,57,78,0
1,54,0,23
1,57,0,6
1,62,0,3
1,62,84,112
1,54,80,0
1,57,91,0
1,57,0,23
1,54,0,3
1,62,0,8
1,54,82,62
1,62,88,0
1,57,91,0
1,57,0,21
1,54,0,8
1,62,0,6
1,56,96,61
1,64,93,0
1,59,88,0
1,56,0,116
1,59,0,1
1,64,0,8
1,64,81,19
1,56,75,0
1,59,81,0
1,56,0,24
1,64,0,0
1,59,0,2
1,59,99,118
1,56,93,0
1,64,96,0
1,56,0,127
1,64,0,4
1,59,0,0
1,64,87,13
1,56,78,0
1,59,86,0
1,56,0,26
1,64,0,11
1,59,0,1
1,64,84,202
1,59,83,0
1,56,81,0
1,59,0,21
1,56,0,9
1,64,0,10
1,57,96,56
1,54,91,0
1,62,99,0
1,57,0,122
1,54,0,2
1,62,0,6
1,57,89,14
1,62,86,0
1,54,75,0
1,57,0,21
1,54,0,3
1,62,0,8
1,54,91,112
1,57,99,0
1,62,107,0
1,54,0,134
1,57,0,1
1,62,0,2
1,54,62,7
1,62,84,0
1,57,83,0
1,54,0,26
1,57,0,8
1,62,0,9
1,54,96,101
1,57,99,0
1,62,99,0
1,54,0,28
1,57,0,2
1,62,0,13
1,54,88,53
1,57,91,0
1,62,86,0
1,54,0,36
1,57,0,3
1,62,0,5
1,64,96,52
1,59,99,0
1,56,93,0
1,56,0,119
1,59,0,2
1,64,0,1
1,64,87,22
1,59,88,0
1,56,81,0
1,64,0,24
1,56,0,2
1,59,0,0
1,59,96,118
1,56,102,0
1,64,96,0
1,56,0,123
1,64,0,8
1,59,0,1
1,64,88,12
1,59,83,0
1,56,83,0
1,56,0,29
1,59,0,0
1,64,0,4
1,64,93,111
1,56,88,0
1,59,88,0
1,56,0,34
1,59,0,8
1,64,0,1
1,64,89,53
1,56,89,0
1,59,96,0
1,59,0,31
1,56,0,5
1,64,0,7
1,54,91,53
1,62,88,0
1,57,91,0
1,54,0,112
1,57,0,8
1,62,0,5
1,62,80,19
1,57,87,0
1,54,88,0
1,54,0,24
1,57,0,4
1,62,0,9
1,57,96,107
1,62,99,0
1,54,91,0
1,54,0,105
1,57,0,7
1,62,0,3
1,62,65,29
1,54,67,0
1,57,62,0
1,62,0,14
1,57,0,7
1,54,0,0
1,62,84,27
1,57,88,0
1,54,68,0
1,57,0,25
1,54,0,1
1,62,0,4
1,57,86,66
1,62,82,0
1,54,82,0
1,54,0,30
1,57,0,5
1,62,0,10
1,62,81,51
1,57,81,0
1,54,68,0
1,57,0,25
1,54,0,10
1,62,0,8
1,59,93,53
1,64,91,0
1,56,89,0
1,56,0,121
1,59,0,3
1,64,0,2
1,64,75,18
1,59,86,0
1,56,80,0
1,64,0,23
1,56,0,3
1,59,0,5
1,64,93,113
1,59,93,0
1,56,91,0
1,56,0,110
1,64,0,9
1,59,0,4
1,64,81,21
1,59,82,0
1,56,87,0
1,59,0,30
1,59,81,18
1,56,0,14
1,64,0,2
1,59,0,15
1,59,89,65
1,56,87,0
1,64,83,0
1,56,0,32
1,59,0,8
1,64,0,3
1,64,86,53
1,56,83,0
1,59,86,0
1,59,0,33
1,56,0,6
1,64,0,19
1,62,99,38
1,57,91,0
1,54,104,0
1,54,0,105
1,57,0,8
1,62,0,8
1,62,87,23
1,57,89,0
1,54,88,0
1,54,0,24
1,57,0,6
1,62,0,4
1,57,96,110
1,54,99,0
1,62,96,0
1,54,0,111
1,57,0,7
1,62,0,1
1,62,87,25
1,54,93,0
1,57,86,0
1,54,0,39
1,57,0,7
1,62,0,3
1,62,91,95
1,54,88,0
1,57,93,0
1,54,0,38
1,57,0,8
1,62,0,4
1,62,93,46
1,54,99,0
1,57,93,0
1,54,0,46
1,57,0,7
1,62,0,2
1,64,96,41
1,59,99,0
1,56,96,0
1,56,0,120
1,64,0,1
1,59,0,2
1,56,77,21
1,64,93,0
1,59,88,0
1,59,0,24
1,56,0,0
1,64,0,4
1,64,102,116
1,59,93,0
1,56,99,0
1,56,0,127
1,59,0,3
1,64,0,1
1,64,84,13
1,56,61,0
1,59,83,0
1,56,0,23
1,64,0,3
1,59,0,2
1,56,86,212
1,59,93,0
1,64,91,0
1,59,0,21
1,56,0,5
1,64,0,28
1,62,96,42
1,54,91,0
1,57,89,0
1,54,0,116
1,57,0,4
1,62,0,7
1,62,86,17
1,57,81,0
1,54,83,0
1,54,0,21
1,57,0,3
1,62,0,9
1,57,96,111
1,62,99,0
1,54,91,0
1,54,0,127
1,57,0,6
1,62,0,7
1,62,66,4
1,54,73,0
1,57,78,0
1,54,0,23
1,57,0,6
1,62,0,3
1,62,84,112
1,54,80,0
1,57,91,0
1,57,0,23
1,54,0,3
1,62,0,8
1,54,82,62
1,62,88,0
1,57,91,0
1,57,0,21
1,54,0,8
1,62,0,6
1,56,96,61
1,64,93,0
1,59,88,0
1,56,0,116
1,59,0,1
1,64,0,8
1,64,81,19
1,56,75,0
1,59,81,0
1,56,0,24
1,64,0,0
1,59,0,2
1,59,99,118
1,56,93,0
1,64,96,0
1,56,0,127
1,64,0,4
1,59,0,0
1,64,87,13
1,56,78,0
1,59,86,0
1,56,0,26
1,64,0,11
1,59,0,1
1,64,84,202
1,59,83,0
1,56,81,0
1,59,0,21
1,56,0,9
1,64,0,10
1,57,96,56
1,54,91,0
1,62,99,0
1,57,0,122
1,54,0,2
1,62,0,6
1,57,89,14
1,62,86,0
1,54,75,0
1,57,0,21
1,54,0,3
1,62,0,8
1,54,91,112
1,57,99,0
1,62,107,0
1,54,0,134
1,57,0,1
1,62,0,2
1,54,62,7
1,62,84,0
1,57,83,0
1,54,0,26
1,57,0,8
1,62,0,9
1,54,96,101
1,57,99,0
1,62,99,0
1,54,0,28
1,57,0,2
1,62,0,13
1,54,88,53
1,57,91,0
1,62,86,0
1,54,0,36
1,57,0,3
1,62,0,5
1,61,104,52
1,54,96,0
1,57,104,0
1,54,0,109
1,57,0,4
1,61,0,4
1,54,80,14
1,57,84,1
1,61,73,2
1,57,0,21
1,54,0,3
1,61,0,2
1,54,93,127
1,57,102,0
1,61,93,1
1,54,0,123
1,57,0,5
1,61,0,5
1,57,83,19
1,54,84,0
1,61,60,2
1,54,0,23
1,57,0,5
1,61,0,6
1,57,89,101
1,54,82,0
1,61,83,0
1,57,0,28
1,54,0,4
1,61,0,7
1,57,83,57
1,54,75,0
1,61,76,0
1,57,0,27
1,54,0,2
1,61,0,7
1,57,96,61
1,54,89,1
1,62,104,1
1,62,0,105
1,54,0,3
1,57,0,5
1,57,86,26
1,62,87,1
1,54,72,0
1,57,0,24
1,54,0,2
1,62,0,6
1,52,87,109
1,56,83,0
1,61,86,0
1,59,93,1
1,56,0,309
1,52,0,1
1,61,0,0
1,59,0,2
1,56,80,72
1,61,75,2
1,52,78,0
1,59,84,3
1,52,0,18
1,56,0,2
1,61,0,6
1,59,0,0
1,54,93,67
1,57,102,0
1,61,84,1
1,54,0,117
1,57,0,4
1,61,0,9
1,57,83,14
1,54,73,1
1,61,72,2
1,54,0,22
1,57,0,2
1,61,0,3
1,54,93,110
1,57,96,0
1,61,91,1
1,54,0,125
1,57,0,4
1,61,0,6
1,57,82,23
1,54,76,0
1,61,73,1
1,57,0,22
1,54,0,6
1,61,0,16
1,61,78,84
1,57,93,1
1,54,81,0
1,54,0,33
1,57,0,1
1,61,0,8
1,61,75,56
1,54,71,2
1,57,86,0
1,57,0,28
1,54,0,3
1,61,0,2
1,57,99,66
1,62,104,2
1,54,91,0
1,62,0,100
1,57,0,0
1,54,0,1
1,54,75,33
1,62,82,0
1,57,81,1
1,57,0,24
1,54,0,3
1,62,0,11
1,59,96,100
1,52,93,0
1,56,87,0
1,61,87,0
1,52,0,263
1,56,0,4
1,61,0,6
1,59,0,6
1,59,86,17
1,56,86,0
1,52,91,0
1,61,81,1
1,52,0,170
1,56,0,0
1,59,0,2
1,61,0,1
1,61,93,23
1,64,102,0
1,69,99,0
1,64,0,100
1,69,0,3
1,61,0,4
1,61,93,82
1,69,91,0
1,64,93,1
1,61,0,70
1,61,78,27
1,69,0,11
1,64,0,1
1,61,0,9
1,64,102,31
1,61,107,0
1,69,99,1
1,64,0,28
1,61,0,2
1,69,0,6
1,69,102,59
1,64,104,0
1,61,91,40
1,64,0,4
1,69,0,8
1,61,0,17
1,69,83,67
1,61,86,0
1,64,86,1
1,64,0,26
1,69,0,1
1,61,0,2
1,69,96,66
1,64,93,2
1,61,93,0
1,61,0,26
1,64,0,0
1,69,0,4
1,64,102,64
1,59,99,0
1,71,96,0
1,68,87,0
1,59,0,60
1,59,82,36
1,64,0,1
1,68,0,2
1,71,0,10
1,59,0,21
1,60,87,62
1,71,104,0
1,68,89,0
1,59,86,0
1,64,88,0
1,60,0,11
1,59,0,37
1,59,81,48
1,71,0,2
1,68,0,4
1,64,0,5
1,59,0,14
1,57,81,23
1,66,104,0
1,62,96,0
1,69,99,0
1,57,0,16
1,62,0,18
1,66,0,5
1,69,0,4
1,57,71,53
1,66,93,0
1,62,110,0
1,69,110,0
1,57,0,8
1,57,89,40
1,66,0,15
1,62,0,1
1,69,0,4
1,57,0,11
1,62,99,65
1,69,99,0
1,66,93,0
1,57,96,0
1,57,0,27
1,62,0,0
1,66,0,7
1,69,0,1
1,69,93,61
1,66,96,0
1,57,96,0
1,62,99,0
1,57,0,22
1,62,0,2
1,69,0,6
1,66,0,4
1,61,99,68
1,69,102,0
1,64,104,0
1,61,0,67
1,61,80,27
1,69,0,2
1,64,0,3
1,61,0,22
1,69,107,63
1,61,116,3
1,64,99,0
1,61,0,66
1,61,87,32
1,69,0,1
1,64,0,11
1,61,0,10
1,61,113,29
1,69,104,0
1,64,113,0
1,61,0,32
1,64,0,6
1,69,0,4
1,64,113,54
1,69,110,0
1,61,113,0
1,61,0,24
1,61,93,24
1,64,0,11
1,69,0,7
1,61,0,17
1,64,107,52
1,69,104,1
1,61,122,1
1,61,0,36
1,64,0,6
1,69,0,4
1,69,99,48
1,64,102,1
1,61,116,0
1,61,0,32
1,64,0,2
1,69,0,5
1,68,89,58
1,59,110,2
1,64,93,0
1,71,99,2
1,59,0,60
1,68,0,32
1,59,67,3
1,64,0,1
1,71,0,8
1,59,0,20
1,64,99,64
1,59,91,0
1,71,96,1
1,68,89,0
1,66,70,7
1,66,0,10
1,59,0,37
1,68,0,50
1,71,0,0
1,59,87,0
1,64,0,6
1,59,0,12
1,69,107,33
1,57,96,1
1,66,96,0
1,62,96,1
1,57,0,26
1,62,0,2
1,66,0,7
1,69,0,3
1,62,110,51
1,66,102,1
1,69,116,0
1,57,63,2
1,64,68,5
1,55,58,2
1,64,0,5
1,57,0,1
1,55,0,1
1,57,96,29
1,69,0,18
1,66,0,2
1,62,0,2
1,57,0,9
1,57,113,62
1,69,102,0
1,62,104,0
1,66,99,0
1,57,0,27
1,62,0,3
1,69,0,7
1,66,0,4
1,57,99,53
1,62,104,0
1,69,113,0
1,66,104,0
1,62,0,72
1,57,0,0
1,66,0,3
1,69,0,2
1,61,93,25
1,64,102,0
1,69,99,0
1,64,0,100
1,69,0,3
1,61,0,4
