track,note,velocity,time
1,28,127,6144
1,28,127,120
1,33,114,384
1,35,96,110
1,37,114,110
1,38,127,126
1,38,118,32
1,38,118,40
1,38,114,90
1,37,127,84
1,37,123,40
1,37,114,30
1,37,109,100
1,38,118,90
1,38,123,66
1,37,127,384
1,38,118,102
1,40,127,116
1,28,127,12
1,28,127,144
1,33,123,374
1,35,103,120
1,37,123,114
1,38,127,120
1,38,123,76
1,38,123,52
1,38,100,70
1,37,123,74
1,37,127,54
1,37,118,48
1,37,103,92
1,38,127,72
1,38,114,52
1,37,123,0
1,37,85,34
1,35,100,92
1,35,109,110
1,33,114,20
1,35,123,92
1,37,127,84
1,30,109,78
1,30,114,204
1,30,100,110
1,33,109,48
1,35,93,94
1,33,96,8
1,38,114,122
1,37,127,88
1,37,123,80
1,35,100,118
1,37,123,116
1,30,109,128
1,30,114,204
1,30,100,110
1,33,109,48
1,35,93,94
1,33,96,8
1,38,114,122
1,37,127,88
1,37,123,80
1,35,100,118
1,37,123,116
1,33,123,128
1,33,109,154
1,33,114,102
1,35,100,88
1,37,123,86
1,38,123,122
1,40,127,136
1,38,127,112
1,38,109,88
1,37,127,106
1,38,123,4
1,33,123,122
1,33,123,160
1,33,100,42
1,35,94,10
1,32,114,118
1,40,99,130
1,37,127,128
1,37,109,24
1,38,127,222
1,38,100,28
1,37,100,96
1,38,123,126
1,40,118,124
1,33,123,86
1,33,109,154
1,33,114,102
1,35,100,88
1,37,123,86
1,38,123,122
1,40,127,136
1,38,127,112
1,38,109,88
1,37,127,106
1,38,123,4
1,33,123,122
1,33,123,160
1,33,100,42
1,35,94,10
1,32,114,118
1,40,99,130
1,37,127,128
1,37,109,24
1,38,127,222
1,38,100,28
1,37,100,96
1,38,123,126
1,40,118,124
1,28,127,86
1,28,127,120
1,33,114,384
1,35,96,110
1,37,114,110
1,38,127,126
1,38,118,32
1,38,118,40
1,38,114,90
1,37,127,84
1,37,123,40
1,37,114,30
1,37,109,100
1,38,118,90
1,38,123,66
1,37,127,384
1,38,118,102
1,40,127,116
1,28,127,12
1,28,127,144
1,33,123,374
1,35,103,120
1,37,123,114
1,38,127,120
1,38,123,76
1,38,123,52
1,38,100,70
1,37,123,74
1,37,127,54
1,37,118,48
1,37,103,92
1,38,127,72
1,38,114,52
1,37,123,0
1,37,85,34
1,35,100,92
1,35,109,110
1,33,114,20
1,35,123,92
1,37,127,84
1,28,127,78
1,28,127,144
1,33,123,374
1,35,103,120
1,37,123,114
1,38,127,120
1,38,123,76
1,38,123,52
1,38,100,70
1,37,123,74
1,37,127,54
1,37,118,48
1,37,103,92
1,38,127,72
1,38,114,52
1,37,123,0
1,37,85,34
1,35,100,92
1,35,109,110
1,33,114,20
1,35,123,92
1,37,127,84
1,28,127,78
1,28,127,120
1,33,114,384
1,35,96,110
1,37,114,110
1,38,127,126
1,38,118,32
1,38,118,40
1,38,114,90
1,37,127,84
1,37,123,40
1,37,114,30
1,37,109,100
1,38,118,90
1,38,123,66
1,37,127,384
1,38,118,102
1,40,127,116
1,30,109,12
1,30,114,204
1,30,100,110
1,33,109,48
1,35,93,94
1,33,96,8
1,38,114,122
1,37,127,88
1,37,123,80
1,35,100,118
1,37,123,116
1,30,109,128
1,30,114,204
1,30,100,110
1,33,109,48
1,35,93,94
1,33,96,8
1,38,114,122
1,37,127,88
1,37,123,80
1,35,100,118
1,37,123,116
1,33,123,128
1,33,109,154
1,33,114,102
1,35,100,88
1,37,123,86
1,38,123,122
1,40,127,136
1,38,127,112
1,38,109,88
1,37,127,106
1,38,123,4
1,33,123,122
1,33,123,160
1,33,100,42
1,35,94,10
1,32,114,118
1,40,99,130
1,37,127,128
1,37,109,24
1,38,127,222
1,38,100,28
1,37,100,96
1,38,123,126
1,40,118,124
1,33,123,86
1,33,109,154
1,33,114,102
1,35,100,88
1,37,123,86
1,38,123,122
1,40,127,136
1,38,127,112
1,38,109,88
1,37,127,106
1,38,123,4
1,33,123,122
1,33,123,160
1,33,100,42
1,35,94,10
1,32,114,118
1,40,99,130
1,37,127,128
1,37,109,24
1,38,127,222
1,38,100,28
1,37,100,96
1,38,123,126
1,40,118,124
1,28,127,86
1,28,127,120
1,33,114,384
1,35,96,110
1,37,114,110
1,38,127,126
1,38,118,32
1,38,118,40
1,38,114,90
1,37,127,84
1,37,123,40
1,37,114,30
1,37,109,100
1,38,118,90
1,38,123,66
1,37,127,384
1,38,118,102
1,40,127,116
1,28,127,12
1,28,127,120
1,33,114,384
1,35,96,110
1,37,114,110
1,38,127,126
1,38,118,32
1,38,118,40
1,38,114,90
1,37,127,84
1,37,123,40
1,37,114,30
1,37,109,100
1,38,118,90
1,38,123,66
1,37,127,384
1,38,118,102
1,40,127,116
1,28,127,12
1,28,127,120
1,33,114,384
1,35,96,110
1,37,114,110
1,38,127,126
1,38,118,32
1,38,118,40
1,38,114,90
1,37,127,84
1,37,123,40
1,37,114,30
1,37,109,100
1,38,118,90
1,38,123,66
1,37,127,384
1,38,118,102
1,40,127,116
1,30,109,12
1,30,114,204
1,30,100,110
1,33,109,48
1,35,93,94
1,33,96,8
1,38,114,122
1,37,127,88
1,37,123,80
1,35,100,118
1,37,123,116
1,30,109,128
1,30,114,204
1,30,100,110
1,33,109,48
1,35,93,94
1,33,96,8
1,38,114,122
1,37,127,88
1,37,123,80
1,35,100,118
1,37,123,116
1,33,123,128
1,33,109,154
1,33,114,102
1,35,100,88
1,37,123,86
1,38,123,122
1,40,127,136
1,38,127,112
1,38,109,88
1,37,127,106
1,38,123,4
1,33,123,122
1,33,123,160
1,33,100,42
1,35,94,10
1,32,114,118
1,40,99,130
1,37,127,128
1,37,109,24
1,38,127,222
1,38,100,28
1,37,100,96
1,38,123,126
1,40,118,124
1,33,123,86
1,33,109,154
1,33,114,102
1,35,100,88
1,37,123,86
1,38,123,122
1,40,127,136
1,38,127,112
1,38,109,88
1,37,127,106
1,38,123,4
1,33,123,122
1,33,123,160
1,33,100,42
1,35,94,10
1,32,114,118
1,40,99,130
1,37,127,128
1,37,109,24
1,38,127,222
1,38,100,28
1,37,100,96
1,38,123,126
1,40,118,124
1,28,127,86
1,28,127,120
1,33,114,384
1,35,96,110
1,37,114,110
1,38,127,126
1,38,118,32
1,38,118,40
1,38,114,90
1,37,127,84
1,37,123,40
1,37,114,30
1,37,109,100
1,38,118,90
1,38,123,66
1,37,127,384
1,38,118,102
1,40,127,116
1,28,127,12
1,28,127,120
1,33,114,384
1,35,96,110
1,37,114,110
1,38,127,126
1,38,118,32
1,38,118,40
1,38,114,90
1,37,127,84
1,37,123,40
1,37,114,30
1,37,109,100
1,38,118,90
1,38,123,66
1,37,127,384
1,38,118,102
1,40,127,116
1,33,123,12
1,33,109,154
1,33,114,102
1,35,100,88
1,37,123,86
1,38,123,122
1,40,127,136
1,38,127,112
1,38,109,88
1,37,127,106
1,38,123,4
1,33,123,122
1,33,123,160
1,33,100,42
1,35,94,10
1,32,114,118
1,40,99,130
1,37,127,128
1,37,109,24
1,38,127,222
1,38,100,28
1,37,100,96
1,38,123,126
1,40,118,124
1,33,123,86
1,33,109,154
1,33,114,102
1,35,100,88
1,37,123,86
1,38,123,122
1,40,127,136
1,38,127,112
1,38,109,88
1,37,127,106
1,38,123,4
1,33,123,122
1,33,123,160
1,33,100,42
1,35,94,10
1,32,114,118
1,40,99,130
1,37,127,128
1,37,109,24
1,38,127,222
1,38,100,28
1,37,100,96
1,38,123,126
1,40,118,124
1,33,123,86
1,33,109,154
1,33,114,102
1,35,100,88
1,37,123,86
1,38,123,122
1,40,127,136
1,38,127,112
1,38,109,88
1,37,127,106
1,38,123,4
1,33,123,122
1,33,123,160
1,33,100,42
1,35,94,10
1,32,114,118
1,40,99,130
1,37,127,128
1,37,109,24
1,38,127,222
1,38,100,28
1,37,100,96
1,38,123,126
1,40,118,124
1,33,123,86
1,33,109,154
1,33,114,102
1,35,100,88
1,37,123,86
1,38,123,122
1,40,127,136
1,38,127,112
1,38,109,88
1,37,127,106
1,38,123,4
1,33,123,122
1,33,123,160
1,33,100,42
1,35,94,10
1,32,114,118
1,40,99,130
1,37,127,128
1,37,109,24
1,38,127,222
1,38,100,28
1,37,100,96
1,38,123,126
1,40,118,124
1,33,123,86
1,33,109,154
1,33,114,102
1,35,100,88
1,37,123,86
1,38,123,122
1,40,127,136
1,38,127,112
1,38,109,88
1,37,127,106
1,38,123,4
1,33,123,122
1,33,123,160
1,33,100,42
1,35,94,10
1,32,114,118
1,40,99,130
1,37,127,128
1,37,109,24
1,38,127,222
1,38,100,28
1,37,100,96
1,38,123,126
1,40,118,124
1,33,123,86
1,33,109,154
1,33,114,102
1,35,100,88
1,37,123,86
1,38,123,122
1,40,127,136
1,38,127,112
1,38,109,88
1,37,127,106
1,38,123,4
1,33,123,122
1,33,123,160
1,33,100,42
1,35,94,10
1,32,114,118
1,40,99,130
1,37,127,128
1,37,109,24
1,38,127,222
1,38,100,28
1,37,100,96
1,38,123,126
1,40,118,124
1,33,123,86
1,33,109,154
1,33,114,102
1,35,100,88
1,37,123,86
1,38,123,122
1,40,127,136
1,38,127,112
1,38,109,88
1,37,127,106
1,38,123,4
1,33,123,122
1,33,123,160
1,33,100,42
1,35,94,10
1,32,114,118
1,40,99,130
1,37,127,128
1,37,109,24
1,38,127,222
1,38,100,28
1,37,100,96
1,38,123,126
1,40,118,124
1,33,123,86
1,33,109,154
1,33,114,102
1,35,100,88
1,37,123,86
1,38,123,122
1,40,127,136
1,38,127,112
1,38,109,88
1,37,127,106
1,38,123,4
1,33,123,122
1,33,123,160
1,33,100,42
1,35,94,10
1,32,114,118
1,40,99,130
1,37,127,128
1,37,109,24
1,38,127,222
1,38,100,28
1,37,100,96
1,38,123,126
1,40,118,124
1,33,123,86
1,33,109,154
1,33,114,102
1,35,100,88
1,37,123,86
1,38,123,122
1,40,127,136
1,38,127,112
1,38,109,88
1,37,127,106
1,38,123,4
1,33,123,122
1,33,123,160
1,33,100,42
1,35,94,10
1,32,114,118
1,40,99,130
1,37,127,128
1,37,109,24
1,38,127,222
1,38,100,28
1,37,100,96
1,38,123,126
1,40,118,124
1,33,127,86
2,57,75,128
2,69,51,4
2,71,93,30
2,57,69,64
2,76,79,68
2,78,79,64
2,57,84,50
2,69,79,0
2,71,96,10
2,57,84,64
2,76,93,56
2,78,79,64
2,57,91,38
2,69,78,64
2,71,90,20
2,57,87,64
2,76,79,56
2,78,87,64
2,57,87,26
2,69,70,64
2,71,93,12
2,57,82,64
2,76,91,48
2,78,87,64
2,57,87,20
2,69,78,64
2,71,96,20
2,57,87,64
2,76,93,44
2,78,93,64
2,57,96,50
2,69,91,8
2,71,91,42
2,57,84,8
2,76,79,36
2,78,91,64
2,57,91,56
2,69,94,64
2,71,91,38
2,57,87,4
2,76,87,34
2,78,96,64
2,57,96,58
2,69,91,64
2,71,93,40
2,57,94,4
2,76,76,32
2,78,96,64
2,57,96,58
2,69,93,64
2,71,87,28
2,57,96,64
2,76,78,40
2,78,91,64
2,57,96,60
2,69,94,64
2,71,93,42
2,57,96,2
2,76,91,30
2,78,96,64
2,57,96,58
2,69,100,64
2,71,87,34
2,57,100,12308
2,69,91,14
2,71,103,30
2,57,91,10
2,76,84,12
2,78,100,10
2,57,96,78
2,69,100,16
2,71,87,24
2,57,96,30
2,76,87,8
2,78,96,30
2,57,94,24
2,69,93,18
2,71,96,20
2,57,96,20
2,76,91,22
2,78,96,6
2,57,96,8
2,69,96,26
2,71,96,24
2,57,94,32
2,76,93,12
2,78,93,16
2,57,100,28
2,69,106,8
2,71,106,18
2,57,96,22
2,76,91,12
2,78,91,20
2,57,100,8
2,69,96,26
2,71,103,22
2,57,100,24
2,76,84,14
2,78,87,12
2,57,100,20
2,69,91,6
2,71,100,10
2,57,84,28
2,76,84,12
2,78,93,12
2,57,96,4
2,69,93,18
2,71,76,22
2,57,100,28
2,76,90,10
2,78,93,14
2,57,100,6
2,69,93,16
2,71,84,28
2,57,96,16
2,76,93,18
2,78,84,12
2,57,96,20
2,69,96,18
2,71,84,16
2,57,96,24
2,76,96,104
2,78,96,6
2,57,100,14
2,69,100,10
2,71,100,6
2,69,103,6252
2,73,63,46
2,76,96,2
2,69,45,50
2,73,96,32
2,76,91,54
2,69,60,38
2,73,87,44
2,76,103,8
2,69,60,54
2,73,100,18
2,76,109,72
2,69,76,64
2,73,84,74
2,76,96,64
2,69,42,60
2,64,84,60
2,68,72,50
2,71,94,8
2,64,75,52
2,68,76,14
2,71,91,54
2,64,78,14
2,68,76,20
2,62,96,16
2,66,61,64
2,69,91,12
2,62,91,44
2,66,91,10
2,69,91,18
2,62,94,20
2,66,76,12
2,69,103,54
2,73,63,46
2,76,96,2
2,69,45,50
2,73,96,32
2,76,91,54
2,69,60,38
2,73,87,44
2,76,103,8
2,69,60,54
2,73,100,18
2,76,109,72
2,69,76,64
2,73,84,74
2,76,96,64
2,69,42,60
2,64,84,60
2,68,72,50
2,71,94,8
2,64,75,52
2,68,76,14
2,71,91,54
2,64,78,14
2,68,76,20
2,62,96,16
2,66,61,64
2,69,91,12
2,62,91,44
2,66,91,10
2,69,91,18
2,62,94,20
2,66,76,12
2,57,100,43062
2,69,91,14
2,71,103,30
2,57,91,10
2,76,84,12
2,78,100,10
2,57,96,78
2,69,100,16
2,71,87,24
2,57,96,30
2,76,87,8
2,78,96,30
2,57,94,24
2,69,93,18
2,71,96,20
2,57,96,20
2,76,91,22
2,78,96,6
2,57,96,8
2,69,96,26
2,71,96,24
2,57,94,32
2,76,93,12
2,78,93,16
2,57,100,28
2,69,106,8
2,71,106,18
2,57,96,22
2,76,91,12
2,78,91,20
2,57,100,8
2,69,96,26
2,71,103,22
2,57,100,24
2,76,84,14
2,78,87,12
2,57,100,20
2,69,91,6
2,71,100,10
2,57,84,28
2,76,84,12
2,78,93,12
2,57,96,4
2,69,93,18
2,71,76,22
2,57,100,28
2,76,90,10
2,78,93,14
2,57,100,6
2,69,93,16
2,71,84,28
2,57,96,16
2,76,93,18
2,78,84,12
2,57,96,20
2,69,96,18
2,71,84,16
2,57,96,24
2,76,96,104
2,78,96,6
2,57,100,14
2,69,100,10
2,71,100,6
2,57,100,108
2,69,91,14
2,71,103,30
2,57,91,10
2,76,84,12
2,78,100,10
2,57,96,78
2,69,100,16
2,71,87,24
2,57,96,30
2,76,87,8
2,78,96,30
2,57,94,24
2,69,93,18
2,71,96,20
2,57,96,20
2,76,91,22
2,78,96,6
2,57,96,8
2,69,96,26
2,71,96,24
2,57,94,32
2,76,93,12
2,78,93,16
2,57,100,28
2,69,106,8
2,71,106,18
2,57,96,22
2,76,91,12
2,78,91,20
2,57,100,8
2,69,96,26
2,71,103,22
2,57,100,24
2,76,84,14
2,78,87,12
2,57,100,20
2,69,91,6
2,71,100,10
2,57,84,28
2,76,84,12
2,78,93,12
2,57,96,4
2,69,93,18
2,71,76,22
2,57,100,28
2,76,90,10
2,78,93,14
2,57,100,6
2,69,93,16
2,71,84,28
2,57,96,16
2,76,93,18
2,78,84,12
2,57,96,20
2,69,96,18
2,71,84,16
2,57,96,24
2,76,96,104
2,78,96,6
2,57,100,14
2,69,100,10
2,71,100,6
2,57,100,24684
2,69,91,14
2,71,103,30
2,57,91,10
2,76,84,12
2,78,100,10
2,57,96,78
2,69,100,16
2,71,87,24
2,57,96,30
2,76,87,8
2,78,96,30
2,57,94,24
2,69,93,18
2,71,96,20
2,57,96,20
2,76,91,22
2,78,96,6
2,57,96,8
2,69,96,26
2,71,96,24
2,57,94,32
2,76,93,12
2,78,93,16
2,57,100,28
2,69,106,8
2,71,106,18
2,57,96,22
2,76,91,12
2,78,91,20
2,57,100,8
2,69,96,26
2,71,103,22
2,57,100,24
2,76,84,14
2,78,87,12
2,57,100,20
2,69,91,6
2,71,100,10
2,57,84,28
2,76,84,12
2,78,93,12
2,57,96,4
2,69,93,18
2,71,76,22
2,57,100,28
2,76,90,10
