track,note,velocity,time
2,33,95,7775
2,33,0,30
2,33,86,15
2,33,0,42
2,35,95,203
2,35,0,32
2,33,86,13
2,33,0,47
2,28,95,195
2,28,0,111
2,33,95,83
2,33,0,23
2,33,90,20
2,33,0,41
2,35,98,201
2,35,0,36
2,33,90,10
2,33,0,44
2,28,98,198
2,28,0,91
2,33,104,103
2,33,0,25
2,33,98,19
2,33,0,34
2,35,95,206
2,35,0,33
2,33,90,15
2,33,0,52
2,28,98,192
2,28,0,98
2,33,98,95
2,33,0,23
2,33,90,20
2,33,0,41
2,35,98,198
2,35,0,34
2,33,90,16
2,33,0,52
2,28,95,187
2,28,0,99
2,33,95,95
2,33,0,30
2,33,86,15
2,33,0,42
2,35,95,203
2,35,0,32
2,33,86,13
2,33,0,47
2,28,95,195
2,28,0,111
2,33,95,83
2,33,0,23
2,33,90,20
2,33,0,41
2,35,98,201
2,35,0,36
2,33,90,10
2,33,0,44
2,28,98,198
2,28,0,91
2,33,104,103
2,33,0,25
2,33,98,19
2,33,0,34
2,35,95,206
2,35,0,33
2,33,90,15
2,33,0,52
2,28,98,192
2,28,0,98
2,33,98,95
2,33,0,23
2,33,90,20
2,33,0,41
2,35,98,198
2,35,0,34
2,33,90,16
2,33,0,52
2,28,95,187
2,28,0,99
2,33,95,95
2,33,0,30
2,33,86,15
2,33,0,42
2,35,95,203
2,35,0,32
2,33,86,13
2,33,0,47
2,28,95,195
2,28,0,111
2,33,95,80
2,33,0,30
2,33,86,15
2,33,0,42
2,35,95,203
2,35,0,32
2,33,86,13
2,33,0,47
2,28,95,195
2,28,0,111
2,33,95,83
2,33,0,23
2,33,90,20
2,33,0,41
2,35,98,201
2,35,0,36
2,33,90,10
2,33,0,44
2,28,98,198
2,28,0,91
2,33,104,103
2,33,0,25
2,33,98,19
2,33,0,34
2,35,95,206
2,35,0,33
2,33,90,15
2,33,0,52
2,28,98,192
2,28,0,98
2,33,98,95
2,33,0,23
2,33,90,20
2,33,0,41
2,35,98,198
2,35,0,34
2,33,90,16
2,33,0,52
2,28,95,187
2,28,0,99
2,33,95,95
2,33,0,30
2,33,86,15
2,33,0,42
2,35,95,203
2,35,0,32
2,33,86,13
2,33,0,47
2,28,95,195
2,28,0,111
2,33,95,83
2,33,0,23
2,33,90,20
2,33,0,41
2,35,98,201
2,35,0,36
2,33,90,10
2,33,0,44
2,28,98,198
2,28,0,91
2,33,104,103
2,33,0,25
2,33,98,19
2,33,0,34
2,35,95,206
2,35,0,33
2,33,90,15
2,33,0,52
2,28,98,192
2,28,0,98
2,33,98,95
2,33,0,23
2,33,90,20
2,33,0,41
2,35,98,198
2,35,0,34
2,33,90,16
2,33,0,52
2,28,95,187
2,28,0,99
2,33,95,95
2,33,0,30
2,33,86,15
2,33,0,24
2,35,95,203
2,35,0,32
2,33,86,13
2,33,0,47
2,28,95,195
2,28,0,111
2,33,95,83
2,33,0,23
2,33,90,20
2,33,0,41
2,35,98,28
2,35,0,36
2,33,90,10
2,33,0,44
2,28,98,116
2,28,0,12
2,33,104,103
2,33,0,25
2,33,98,19
2,33,0,34
2,35,95,206
2,35,0,33
2,33,90,15
2,33,0,52
2,28,98,192
2,28,0,98
2,33,98,95
2,33,0,23
2,33,90,20
2,33,0,41
2,35,98,198
2,35,0,34
2,33,90,16
2,33,0,52
2,28,95,187
2,28,0,99
2,33,95,95
2,33,0,30
2,33,86,15
2,33,0,42
2,35,95,203
2,35,0,32
2,33,86,13
2,33,0,47
2,28,95,195
2,28,0,111
2,33,95,83
2,33,0,23
2,33,90,20
2,33,0,41
2,35,98,201
2,35,0,36
2,33,90,10
2,33,0,44
2,28,98,198
2,28,0,91
2,33,104,103
2,33,0,25
2,33,98,19
2,33,0,34
2,35,95,206
2,35,0,33
2,33,90,15
2,33,0,52
2,28,98,192
2,28,0,98
2,33,98,95
2,33,0,23
2,33,90,20
2,33,0,41
2,35,98,198
2,35,0,34
2,33,90,16
2,33,0,52
2,28,95,187
2,28,0,99
2,31,100,192
2,31,0,33
2,31,100,112
2,31,0,42
2,31,100,96
2,31,0,260
2,43,94,29
2,43,0,34
2,38,86,12
2,38,0,39
2,36,98,14
2,36,0,260
2,31,90,73
2,31,0,36
2,36,98,12
2,36,0,42
2,36,98,59
2,36,0,217
2,36,90,28
2,36,0,23
2,43,98,24
2,43,0,319
2,43,90,14
2,43,0,23
2,41,98,18
2,41,0,315
2,31,90,27
2,31,0,35
2,36,98,5
2,36,0,319
2,31,90,25
2,31,0,31
2,36,98,16
2,36,0,30
2,36,98,59
2,36,0,283
2,29,98,8
2,29,0,278
2,29,83,63
2,29,0,31
2,31,98,10
2,31,0,78
2,32,89,16
2,32,0,80
2,31,98,15
2,31,0,87
2,29,90,15
2,29,0,84
2,36,98,13
2,36,0,283
2,31,90,54
2,31,0,38
2,36,98,12
2,36,0,34
2,36,98,65
2,36,0,204
2,36,90,27
2,36,0,45
2,29,98,14
2,29,0,526
2,40,90,42
2,40,0,38
2,38,83,10
2,38,0,38
2,36,86,5
2,36,0,94
2,33,95,8
2,33,0,30
2,33,86,15
2,33,0,42
2,35,95,203
2,35,0,32
2,33,86,13
2,33,0,47
2,28,95,195
2,28,0,111
2,33,95,83
2,33,0,23
2,33,90,20
2,33,0,41
2,35,98,201
2,35,0,36
2,33,90,10
2,33,0,44
2,28,98,198
2,28,0,91
2,33,104,103
2,33,0,25
2,33,98,19
2,33,0,34
2,35,95,206
2,35,0,33
2,33,90,15
2,33,0,52
2,28,98,192
2,28,0,98
2,33,98,95
2,33,0,23
2,33,90,20
2,33,0,41
2,35,98,198
2,35,0,34
2,33,90,16
2,33,0,52
2,28,95,187
2,28,0,99
2,33,95,95
2,33,0,30
2,33,86,15
2,33,0,42
2,35,95,203
2,35,0,32
2,33,86,13
2,33,0,47
2,28,95,195
2,28,0,111
2,33,95,83
2,33,0,23
2,33,90,20
2,33,0,41
2,35,98,201
2,35,0,36
2,33,90,10
2,33,0,44
2,28,98,198
2,28,0,91
2,33,104,103
2,33,0,25
2,33,98,19
2,33,0,34
2,35,95,206
2,35,0,33
2,33,90,15
2,33,0,52
2,28,98,192
2,28,0,98
2,33,98,95
2,33,0,23
2,33,90,20
2,33,0,41
2,35,98,198
2,35,0,34
2,33,90,16
2,33,0,52
2,28,95,187
2,28,0,99
2,33,95,95
2,33,0,30
2,33,86,15
2,33,0,42
2,35,95,203
2,35,0,32
2,33,86,13
2,33,0,47
2,28,95,195
2,28,0,111
2,33,95,83
2,33,0,23
2,33,90,20
2,33,0,41
2,35,98,201
2,35,0,36
2,33,90,10
2,33,0,44
2,28,98,198
2,28,0,91
2,33,104,103
2,33,0,25
2,33,98,19
2,33,0,34
2,35,95,206
2,35,0,33
2,33,90,15
2,33,0,52
2,28,98,192
2,28,0,98
2,33,98,95
2,33,0,23
2,33,90,20
2,33,0,41
2,35,98,198
2,35,0,34
2,33,90,16
2,33,0,52
2,28,95,187
2,28,0,99
2,33,95,95
2,33,0,30
2,33,86,15
2,33,0,42
2,35,95,203
2,35,0,32
2,33,86,13
2,33,0,47
2,28,95,195
2,28,0,111
2,33,95,83
2,33,0,23
2,33,90,20
2,33,0,41
2,35,98,201
2,35,0,36
2,33,90,10
2,33,0,44
2,28,98,198
2,28,0,91
2,33,104,103
2,33,0,25
2,33,98,19
2,33,0,34
2,35,95,206
2,35,0,33
2,33,90,15
2,33,0,52
2,28,98,192
2,28,0,98
2,33,98,95
2,33,0,23
2,33,90,20
2,33,0,41
2,35,98,198
2,35,0,34
2,33,90,16
2,33,0,52
2,28,95,187
2,28,0,99
2,31,100,192
2,31,0,33
2,31,100,112
2,31,0,42
2,31,100,96
2,31,0,309
2,31,86,26
2,31,0,39
2,36,98,14
2,36,0,319
2,31,90,14
2,31,0,36
2,36,98,12
2,36,0,42
2,36,98,59
2,36,0,217
2,36,90,28
2,36,0,23
2,43,98,24
2,43,0,319
2,43,90,14
2,43,0,23
2,41,98,18
2,41,0,315
2,31,90,27
2,31,0,35
2,36,98,5
2,36,0,319
2,31,90,25
2,31,0,31
2,36,98,16
2,36,0,30
2,36,98,59
2,36,0,283
2,43,94,8
2,43,0,366
2,41,94,16
2,41,0,327
2,31,83,16
2,31,0,31
2,36,98,14
2,36,0,283
2,31,90,54
2,31,0,38
2,36,98,12
2,36,0,34
2,36,98,65
2,36,0,131
2,31,83,10
2,31,0,31
2,36,90,17
2,36,0,35
2,31,90,11
2,31,0,38
2,29,98,17
2,29,0,291
2,29,90,37
2,29,0,14
2,29,92,35
2,29,0,43
2,29,94,53
2,29,0,282
2,33,91,5
2,33,0,239
2,40,88,7
2,40,0,25
2,45,76,26
2,45,0,37
2,45,89,11
2,45,0,44
2,47,71,0
2,47,0,81
2,45,94,8
2,45,0,145
2,40,101,9
2,40,0,58
2,39,84,3
2,39,0,8
2,38,79,3
2,38,0,5
2,37,74,3
2,37,0,7
2,36,71,2
2,36,0,18
2,33,92,21
2,33,0,383
2,33,92,6
2,33,0,386
2,38,92,5
2,38,0,134
2,38,83,13
2,38,0,34
2,38,89,247
2,38,0,53
2,33,81,44
2,33,0,30
2,38,89,17
2,38,0,65
2,38,81,32
2,38,0,30
2,40,78,18
2,40,0,30
2,41,89,17
2,41,0,136
2,41,86,17
2,41,0,26
2,41,89,257
2,41,0,40
2,41,86,101
2,41,0,89
2,41,81,52
2,41,0,35
2,36,89,16
2,36,0,127
2,36,77,21
2,36,0,21
2,36,89,28
2,36,0,41
2,36,92,191
2,36,0,44
2,36,92,104
2,36,0,37
2,36,82,60
2,36,0,84
2,33,89,12
2,33,0,125
2,33,74,18
2,33,0,27
2,33,86,24
2,33,0,78
2,33,78,63
2,33,0,30
2,45,89,20
2,45,0,84
2,33,78,12
2,33,0,37
2,45,86,9
2,45,0,138
2,41,89,3
2,41,0,37
2,40,81,12
2,40,0,48
2,38,99,6
2,38,0,131
2,38,93,16
2,38,0,44
2,38,88,278
2,38,0,61
2,40,93,91
2,40,0,47
2,41,93,90
2,41,0,132
2,41,88,15
2,41,0,45
2,36,83,116
2,36,0,62
2,41,76,2
2,41,0,24
2,43,93,0
2,43,0,171
2,41,89,16
2,41,0,179
2,36,93,12
2,36,0,133
2,36,85,8
2,36,0,48
2,36,86,288
2,36,0,65
2,36,87,87
2,36,0,48
2,29,93,92
2,29,0,137
2,29,86,13
2,29,0,35
2,29,86,152
2,29,0,35
2,29,97,13
2,29,0,182
2,31,100,12
2,31,0,171
2,36,93,16
2,36,0,128
2,36,72,24
2,36,0,41
2,40,88,282
2,40,0,74
2,43,87,20
2,43,0,56
2,40,93,6
2,40,0,118
2,31,93,22
2,31,0,127
2,31,88,18
2,31,0,42
2,31,88,150
2,31,0,33
2,29,97,14
2,29,0,180
2,31,96,11
2,31,0,180
2,33,95,12
2,33,0,134
2,33,90,14
2,33,0,40
2,40,81,147
2,40,0,27
2,45,90,22
2,45,0,178
2,40,88,6
2,40,0,184
2,29,93,18
2,29,0,126
2,29,86,10
2,29,0,53
2,29,90,197
2,29,0,28
2,29,90,66
2,29,0,186
2,31,90,2
2,31,0,82
2,33,84,14
2,33,0,133
2,33,81,14
2,33,0,25
2,40,87,116
2,40,0,67
2,44,78,0
2,44,0,7
2,45,72,3
2,45,0,4
2,46,72,2
2,46,0,6
2,47,73,3
2,45,92,50
2,47,0,2
2,45,0,133
2,40,93,13
2,40,0,180
2,29,90,13
2,29,0,310
2,29,81,30
2,29,0,4
2,29,95,39
2,29,0,45
2,29,95,55
2,29,0,222
2,33,100,60
2,33,0,317
2,33,81,24
2,33,0,8
2,33,90,35
2,33,0,46
2,33,86,56
2,33,0,259
2,31,93,27
2,31,0,330
2,38,83,54
2,38,0,33
2,38,90,61
2,38,0,275
2,39,90,15
2,39,0,265
2,45,83,23
2,45,0,59
2,45,94,14
2,45,0,35
2,47,79,3
2,47,0,38
2,45,92,12
2,45,0,47
2,47,91,14
2,47,0,39
2,47,83,10
2,49,64,31
2,47,0,8
2,49,0,156
2,38,100,11
2,38,0,1475
2,38,100,62
2,38,0,1517
2,30,100,19
2,30,0,695
2,31,100,66
2,31,0,753
2,38,78,19
2,38,0,1480
3,45,98,1761
3,52,102,30
3,56,102,3
3,61,98,13
3,52,0,736
3,45,0,7
3,56,0,5
3,45,95,3
3,61,0,12
3,53,98,5
3,59,99,3
3,64,102,9
3,59,0,702
3,53,0,5
3,45,0,6
3,64,0,9
3,45,97,6
3,52,100,14
3,56,101,6
3,61,106,7
3,45,0,684
3,52,0,31
3,56,0,4
3,61,0,0
3,45,102,14
3,53,102,33
3,59,111,4
3,64,111,1
3,45,0,699
3,53,0,9
3,59,0,6
3,64,0,6
3,45,98,16
3,52,102,14
3,56,102,3
3,61,98,13
3,52,0,736
3,45,0,2
3,56,0,10
3,45,95,3
3,61,0,12
3,53,98,5
3,59,99,3
3,64,102,9
3,59,0,702
3,53,0,5
3,45,0,6
3,64,0,9
3,45,97,6
3,52,100,14
3,56,101,6
3,61,106,7
3,45,0,684
3,52,0,31
3,56,0,4
3,61,0,0
3,45,102,14
3,53,102,33
3,59,111,4
3,64,111,1
3,45,0,756
3,64,0,5
3,53,0,2
3,59,0,3
3,45,98,8
3,52,98,0
3,56,102,2
3,61,100,5
3,52,0,690
3,56,0,11
3,61,0,15
3,45,0,1
3,47,97,17
3,54,98,13
3,57,102,12
3,62,102,9
3,54,0,690
3,57,0,17
3,47,0,9
3,62,0,12
3,49,96,18
3,59,104,8
3,56,98,1
3,64,104,9
3,59,0,699
3,64,0,1
3,56,0,5
3,49,0,18
3,45,100,24
3,56,98,8
3,61,101,3
3,64,102,7
3,45,0,711
3,56,0,28
3,61,0,4
3,45,98,1
3,64,0,1
3,53,98,15
3,59,103,8
3,64,102,3
3,64,0,675
3,59,0,12
3,53,0,2
3,45,0,31
3,45,100,27
3,56,104,8
3,52,99,2
3,61,109,2
3,52,0,711
3,56,0,12
3,45,0,6
3,61,0,9
3,45,102,24
3,53,98,12
3,59,106,10
3,64,108,1
3,59,0,691
3,53,0,15
3,64,0,7
3,45,0,4
3,45,102,26
3,56,106,9
3,52,99,2
3,61,108,9
3,45,0,700
3,52,0,15
3,56,0,4
3,61,0,16
3,52,94,9
3,57,96,12
3,62,100,9
3,66,102,0
3,66,0,738
3,57,0,14
3,52,0,7
3,62,0,0
3,45,98,6
3,52,98,0
3,56,102,2
3,61,100,5
3,52,0,690
3,56,0,11
3,61,0,15
3,45,0,1
3,47,97,17
3,54,98,13
3,57,102,12
3,62,102,9
3,54,0,690
3,57,0,17
3,47,0,9
3,62,0,12
3,49,96,18
3,59,104,8
3,56,98,1
3,64,104,9
3,59,0,699
3,64,0,1
3,56,0,5
3,49,0,18
3,45,100,24
3,56,98,8
3,61,101,3
3,64,102,7
3,45,0,711
3,56,0,28
3,61,0,4
3,64,0,2
3,45,98,23
3,52,98,0
3,56,102,2
3,61,100,5
3,52,0,690
3,56,0,11
3,61,0,15
3,45,0,1
3,47,97,17
3,54,98,13
3,57,102,12
3,62,102,9
3,54,0,690
3,57,0,17
3,47,0,9
3,62,0,12
3,49,96,18
3,59,104,8
3,56,98,1
3,64,104,9
3,59,0,699
3,64,0,1
3,56,0,5
3,49,0,18
3,45,100,24
3,56,98,8
3,61,101,3
3,64,102,7
3,45,0,711
3,56,0,28
3,61,0,4
3,64,0,2
3,45,98,23
3,52,98,0
3,56,102,2
3,61,100,5
3,52,0,347
3,56,0,11
3,61,0,15
3,45,0,1
3,47,97,17
3,54,98,13
3,57,102,12
3,62,102,9
3,54,0,46
3,57,0,17
3,47,0,9
3,62,0,12
3,49,96,18
3,59,104,8
3,56,98,1
3,64,104,9
3,59,0,624
3,64,0,1
3,56,0,5
3,49,0,18
3,45,100,24
3,56,98,8
3,61,101,3
3,64,102,7
3,45,0,711
3,56,0,28
3,61,0,4
3,45,98,1
3,64,0,1
3,53,98,15
3,59,103,8
3,64,102,3
3,64,0,675
3,59,0,12
