track,note,velocity,time
0,52,79,0
0,55,60,7
0,61,71,48
0,55,0,34
0,52,0,46
0,61,0,0
0,62,73,2
0,62,0,46
0,52,27,2
0,61,71,0
0,61,0,46
0,55,48,2
0,52,0,46
0,55,0,0
0,61,70,2
0,52,73,48
0,57,103,0
0,61,0,46
0,55,64,2
0,55,0,46
0,61,64,2
0,61,0,46
0,62,74,2
0,62,0,46
0,61,63,2
0,61,0,46
0,55,70,2
0,52,0,46
0,55,0,0
0,61,71,2
0,52,71,48
0,57,0,46
0,57,98,2
0,61,0,46
0,55,61,2
0,55,0,46
0,61,70,2
0,61,0,46
0,62,73,2
0,62,0,46
0,61,70,2
0,61,0,46
0,55,66,2
0,52,0,46
0,55,0,0
0,61,69,2
0,52,69,48
0,57,0,12
0,57,98,2
0,61,0,46
0,55,66,2
0,61,68,48
0,55,0,34
0,61,0,46
0,62,79,2
0,62,0,46
0,61,71,2
0,61,0,46
0,55,59,2
0,52,0,46
0,55,0,0
0,61,59,2
0,69,72,12
0,52,69,36
0,69,0,1
0,69,64,12
0,57,0,15
0,57,103,1
0,69,0,28
0,69,70,4
0,57,0,4
0,69,0,5
0,67,71,10
0,61,0,31
0,55,64,2
0,67,0,5
0,67,76,17
0,67,0,24
0,67,74,18
0,55,0,4
0,61,64,2
0,67,0,10
0,66,75,10
0,61,0,26
0,62,74,2
0,66,0,8
0,67,74,21
0,62,0,46
0,61,63,2
0,67,0,5
0,61,0,41
0,55,70,2
0,52,0,46
0,55,0,0
0,61,71,2
0,78,87,0
0,62,75,8
0,62,0,11
0,52,71,1
0,62,81,2
0,62,0,2
0,62,75,21
0,57,98,13
0,62,0,3
0,64,74,7
0,64,0,16
0,61,0,6
0,78,0,0
0,55,61,2
0,74,93,0
0,64,74,7
0,64,0,28
0,66,90,3
0,55,0,10
0,61,70,2
0,66,0,6
0,66,68,3
0,61,0,34
0,62,73,2
0,66,0,9
0,67,68,3
0,74,0,10
0,67,0,5
0,66,87,11
0,62,0,6
0,61,70,2
0,69,88,0
0,69,92,0
0,61,0,46
0,55,66,2
0,66,0,9
0,64,76,16
0,52,0,46
0,55,0,0
0,69,0,0
0,69,0,0
0,61,69,2
0,67,109,0
0,67,76,0
0,64,0,8
0,62,66,10
0,62,0,29
0,52,69,19
0,64,72,5
0,57,0,12
0,57,98,2
0,64,0,46
0,67,0,0
0,67,0,0
0,66,113,0
0,62,79,15
0,62,0,23
0,61,0,8
0,55,66,2
0,62,75,0
0,62,0,24
0,62,68,9
0,61,68,39
0,55,0,34
0,62,0,29
0,61,72,8
0,61,0,9
0,62,79,2
0,61,0,20
0,59,70,6
0,59,0,26
0,61,75,17
0,62,0,3
0,61,71,2
0,61,0,15
0,64,72,14
0,61,0,17
0,55,59,2
0,64,0,2
0,66,56,18
0,66,0,16
0,67,81,18
0,52,0,12
0,55,0,0
0,66,0,0
0,61,71,2
0,67,105,0
0,67,0,20
0,52,59,28
0,57,0,46
0,67,0,0
0,69,108,0
0,59,63,16
0,61,0,30
0,55,64,2
0,59,0,5
0,61,76,9
0,61,0,17
0,64,71,15
0,55,0,14
0,69,0,0
0,61,64,2
0,71,108,0
0,64,0,10
0,66,69,19
0,66,0,20
0,67,79,20
0,61,0,6
0,62,74,2
0,67,0,21
0,62,0,25
0,71,0,0
0,61,63,2
0,73,115,0
0,61,72,30
0,61,0,40
0,61,0,6
0,55,70,2
0,64,74,3
0,64,0,24
0,66,72,8
0,66,0,29
0,52,0,9
0,55,0,0
0,73,0,0
0,61,71,2
0,74,111,0
0,67,81,11
0,67,0,43
0,61,0,3
0,55,71,2
0,57,70,6
0,57,0,36
0,55,0,4
0,74,0,0
0,45,97,0
0,52,79,0
0,73,102,0
0,69,84,10
0,69,0,5
0,69,75,3
0,55,60,7
0,69,0,2
0,69,71,10
0,69,0,15
0,69,92,19
0,61,71,5
0,55,0,22
0,69,0,7
0,52,0,15
0,61,0,0
0,62,73,2
0,62,0,22
0,52,27,2
0,61,71,0
0,69,72,4
0,61,0,18
0,73,0,0
0,55,48,2
0,69,102,0
0,69,0,10
0,69,74,16
0,69,0,1
0,52,0,21
0,55,0,0
0,69,75,0
0,61,70,2
0,69,0,21
0,71,96,0
0,69,0,9
0,67,70,8
0,61,0,22
0,55,73,2
0,67,0,5
0,66,74,5
0,66,0,4
0,67,92,31
0,55,0,11
0,52,79,0
0,66,108,0
0,71,0,5
0,67,0,6
0,55,60,7
0,61,71,48
0,67,96,0
0,66,0,8
0,55,0,34
0,52,0,46
0,61,0,0
0,62,73,2
0,62,0,46
0,52,27,2
0,61,71,0
0,73,91,0
0,67,0,7
0,61,0,46
0,55,48,2
0,52,0,22
0,55,0,0
0,73,0,0
0,61,70,2
0,61,100,0
0,61,0,22
0,61,0,0
0,55,73,2
0,62,93,0
0,57,60,1
0,57,0,9
0,55,0,13
0,50,79,0
0,69,74,0
0,69,0,16
0,69,70,12
0,57,60,7
0,69,0,1
0,69,74,3
0,69,0,12
0,69,72,6
0,61,71,18
0,69,0,4
0,67,74,15
0,57,0,3
0,67,0,13
0,50,0,9
0,61,0,0
0,62,73,2
0,66,66,3
0,66,0,10
0,67,87,7
0,62,0,22
0,61,71,2
0,67,0,19
0,66,61,20
0,45,0,2
0,61,0,0
0,57,48,2
0,66,0,22
0,45,92,0
0,64,76,12
0,57,0,22
0,64,0,0
0,61,70,2
0,64,70,7
0,64,0,12
0,64,75,13
0,50,73,11
0,45,0,1
0,45,93,12
0,64,0,14
0,62,72,5
0,62,0,6
0,45,0,8
0,62,74,0
0,45,93,20
0,61,0,22
0,57,64,2
0,62,0,8
0,64,87,2
0,62,0,18
0,57,0,22
0,61,64,2
0,66,92,4
0,64,0,4
0,61,0,38
0,62,74,2
0,45,0,18
0,45,93,9
0,67,95,22
0,66,0,11
0,62,0,4
0,61,63,2
0,45,0,4
0,61,0,46
0,45,93,2
0,57,70,0
0,67,0,2
0,69,99,2
0,50,0,22
0,57,0,0
0,67,76,2
0,67,0,22
0,64,55,2
0,71,99,0
0,69,0,8
0,64,0,22
0,61,69,2
0,61,0,22
0,57,55,2
0,57,81,1
0,57,0,16
0,45,0,6
0,57,0,0
0,71,0,0
0,52,79,2
0,45,97,0
0,69,100,0
0,69,76,6
0,69,0,3
0,69,64,21
0,55,60,7
0,69,0,1
0,69,75,17
0,69,0,4
0,61,71,20
0,69,74,7
0,55,0,22
0,69,0,8
0,67,76,13
0,52,0,22
0,61,0,0
0,62,73,2
0,67,0,9
0,66,72,7
0,66,0,24
0,67,79,17
0,62,0,5
0,52,27,2
0,61,71,0
0,79,102,0
0,69,0,2
0,67,0,22
0,66,68,6
0,61,0,16
0,55,48,2
0,66,0,1
0,67,81,22
0,52,0,22
0,55,0,0
0,61,70,2
0,67,0,6
0,52,73,24
0,64,75,0
0,64,0,10
0,64,75,0
0,64,0,40
0,64,63,0
0,64,0,0
0,66,65,28
0,61,0,18
0,55,64,2
0,78,86,0
0,79,0,1
0,66,0,3
0,62,66,18
0,55,0,46
0,61,64,2
0,62,0,8
0,74,102,24
0,78,0,0
0,61,0,22
0,62,74,2
0,62,0,46
0,61,63,2
0,69,91,12
0,74,0,13
0,61,0,46
0,55,70,2
0,69,0,15
0,67,94,0
0,52,0,22
0,55,0,0
0,61,71,2
0,64,81,9
0,64,0,17
0,61,0,5
0,67,0,0
0,55,71,2
0,78,78,0
0,64,72,3
0,64,0,1
0,64,71,5
0,55,0,17
0,78,0,0
0,50,79,0
0,66,93,0
0,64,0,17
0,66,87,9
0,57,60,7
0,66,0,11
0,67,69,1
0,67,0,16
0,67,87,16
0,61,71,8
0,57,0,22
0,67,0,3
0,66,79,12
0,50,0,7
0,61,0,0
0,62,73,2
0,66,0,22
0,67,96,0
0,66,0,1
0,62,0,21
0,61,71,2
0,45,0,22
0,61,0,0
0,57,48,2
0,69,70,0
0,67,0,2
0,45,92,0
0,57,0,22
0,61,70,2
0,71,102,0
0,69,0,8
0,57,76,15
0,50,73,9
0,45,0,1
0,45,93,12
0,57,0,5
0,57,87,1
0,57,0,16
0,69,100,8
0,71,0,0
0,67,81,1
0,45,0,8
0,67,0,10
0,45,93,10
0,67,75,4
0,61,0,18
0,57,64,2
0,67,0,1
0,67,74,11
0,67,0,17
0,67,77,17
0,57,0,5
0,61,64,2
0,67,0,30
0,66,72,7
0,61,0,39
0,62,74,2
0,66,0,2
0,64,71,1
0,45,0,17
0,64,0,16
0,45,93,9
0,66,74,19
0,62,0,18
0,61,63,2
0,45,0,4
0,61,0,46
0,66,0,0
0,45,93,2
0,57,70,0
0,50,0,22
0,57,0,0
0,61,63,2
0,69,87,9
0,61,0,22
0,57,70,2
0,69,0,7
0,69,74,4
0,69,0,3
0,45,0,19
0,57,0,0
0,69,0,0
0,52,79,2
0,45,97,0
0,79,107,0
0,69,75,8
0,55,60,7
0,69,0,5
0,61,71,19
0,69,79,1
0,69,0,20
0,55,0,2
0,69,66,15
0,79,0,7
0,69,83,2
0,69,0,19
0,52,0,3
0,61,0,0
0,62,73,2
0,78,102,0
0,69,0,9
0,69,72,1
0,69,0,15
0,69,72,10
0,69,0,12
0,62,0,10
0,52,27,2
0,61,71,0
0,69,75,0
0,61,0,22
0,55,48,2
0,78,0,10
0,69,71,2
0,69,0,22
0,74,105,0
0,52,0,22
0,55,0,0
0,61,70,2
0,69,0,1
0,69,79,11
0,52,73,24
0,69,0,2
0,69,74,12
0,69,0,5
0,69,69,25
0,74,0,16
0,69,101,0
0,69,0,28
0,67,69,8
0,67,0,17
0,61,0,5
0,55,64,2
0,67,64,9
0,55,0,22
0,67,0,0
0,61,64,2
0,67,69,0
0,67,0,21
0,66,59,14
0,66,0,44
0,61,0,2
0,62,74,2
0,66,68,7
0,66,0,7
0,66,71,25
0,62,0,14
0,61,63,2
0,66,0,23
0,64,63,1
0,64,0,26
0,61,0,20
0,55,70,2
0,64,71,11
0,64,0,16
0,64,71,1
0,52,0,21
0,55,0,0
0,61,71,2
0,64,0,12
0,62,70,10
0,62,0,18
0,61,0,4
0,55,71,2
0,62,70,2
0,55,0,22
0,69,0,0
0,50,79,0
0,36,79,0
0,42,81,0
0,79,104,0
0,36,0,4
0,42,0,0
0,62,0,16
0,70,27,11
0,70,0,4
0,42,64,7
0,57,60,0
0,42,0,4
0,70,27,11
0,70,0,4
0,38,74,24
0,39,65,0
0,42,81,0
0,61,71,0
0,38,0,4
0,39,0,0
0,42,0,0
0,57,0,22
0,69,72,5
0,70,27,6
0,70,0,4
0,50,0,22
0,61,0,0
0,79,0,0
0,42,64,2
0,62,73,0
0,78,100,0
0,42,0,4
0,69,0,0
0,69,76,12
0,69,0,6
0,36,41,5
0,70,27,0
0,36,0,4
0,70,0,0
0,69,72,10
0,62,0,12
0,36,79,2
0,42,81,0
0,61,71,0
0,36,0,4
0,42,0,0
0,69,0,12
0,69,71,1
0,28,31,10
0,46,26,0
0,70,27,0
0,28,0,4
0,46,0,0
0,70,0,0
0,69,0,11
0,45,0,11
0,61,0,0
0,36,56,2
0,42,64,0
0,57,48,0
0,36,0,4
0,42,0,0
0,69,70,3
0,69,0,17
0,45,92,0
0,70,27,11
0,70,0,4
0,69,79,6
0,57,0,16
0,78,0,0
0,38,74,2
0,39,65,0
0,42,81,0
0,61,70,0
0,74,106,0
0,38,0,4
0,39,0,0
0,42,0,0
0,69,0,4
0,66,72,6
0,70,27,5
0,70,0,4
0,66,0,21
0,46,35,3
0,50,73,0
0,46,0,4
0,45,0,1
0,66,71,9
0,45,93,3
0,70,27,11
0,70,0,4
0,66,0,6
0,71,72,0
0,74,0,6
0,36,79,2
0,42,81,0
0,81,100,0
0,36,0,4
0,42,0,0
0,45,0,8
0,71,0,5
0,70,27,11
0,69,75,3
0,70,0,1
0,45,93,5
0,61,0,22
0,42,64,2
0,57,64,0
0,42,0,4
0,70,27,11
0,70,0,4
0,57,0,22
0,38,74,2
0,39,65,0
0,42,81,0
0,61,64,0
0,38,0,4
0,39,0,0
0,42,0,0
0,69,0,4
0,70,27,7
0,70,0,4
0,61,0,31
0,42,64,2
0,62,74,0
0,42,0,4
0,45,0,18
0,45,93,9
0,36,41,2
0,70,27,0
0,36,0,4
0,70,0,0
0,62,0,31
0,36,79,2
0,42,81,0
0,61,63,0
0,36,0,4
0,42,0,0
0,45,0,4
0,28,31,11
0,46,26,0
0,70,27,0
0,28,0,4
0,46,0,0
0,70,0,0
0,61,0,31
0,36,56,2
0,42,64,0
0,45,93,0
0,57,70,0
0,36,0,4
0,42,0,0
0,70,27,11
0,70,0,4
0,50,0,22
0,57,0,0
0,38,74,2
0,39,65,0
0,42,81,0
0,61,63,0
0,38,0,4
0,39,0,0
0,42,0,0
0,69,81,23
0,70,27,11
0,70,0,4
0,61,0,22
0,46,35,2
0,57,70,0
0,46,0,4
0,69,0,1
0,69,70,7
0,69,0,9
0,70,27,2
0,70,0,4
0,69,75,16
0,45,0,6
0,57,0,0
0,81,0,0
0,52,79,2
0,33,76,0
0,36,78,0
0,42,81,0
0,45,97,0
0,79,107,0
0,36,0,4
0,42,0,0
0,70,27,11
0,70,0,4
0,55,60,7
0,42,64,0
0,42,0,4
0,70,27,11
0,70,0,4
0,61,71,24
0,38,54,0
0,39,45,0
0,42,81,0
0,38,0,4
0,39,0,0
0,42,0,0
0,33,0,2
0,55,0,20
0,33,68,11
0,70,27,0
0,70,0,4
0,79,0,7
0,69,83,0
0,33,0,18
0,52,0,4
0,61,0,0
0,62,73,2
0,35,70,0
0,42,64,0
0,78,102,0
0,42,0,4
0,69,0,5
0,33,61,11
0,36,61,0
0,70,27,0
0,35,0,4
0,36,0,0
0,70,0,0
0,62,0,22
0,52,27,2
0,61,71,0
0,36,99,0
0,42,81,0
0,36,0,4
0,42,0,0
0,69,0,6
0,28,31,11
0,46,26,0
0,70,27,0
0,67,84,1
0,28,0,3
0,46,0,0
0,70,0,0
0,61,0,22
0,55,48,2
0,36,76,0
0,42,64,0
0,36,0,4
0,42,0,0
0,67,0,0
0,78,0,10
0,69,71,2
0,67,75,1
0,69,0,21
0,74,105,0
0,67,0,10
0,70,27,1
0,70,0,4
0,67,75,8
0,52,0,14
0,55,0,0
0,61,70,2
0,38,54,0
0,39,45,0
0,42,81,0
0,38,0,4
0,39,0,0
0,42,0,0
0,33,0,5
0,33,68,12
0,67,0,11
0,66,71,5
0,33,0,4
0,35,72,2
0,70,27,0
0,70,0,4
0,46,35,24
0,52,73,0
0,46,0,4
0,66,0,5
0,64,74,5
0,35,0,5
0,64,0,4
0,33,63,7
0,70,27,0
0,70,0,4
0,66,75,12
0,33,0,9
0,74,0,1
0,33,72,2
0,69,101,0
0,36,99,0
0,42,81,0
0,36,0,4
0,42,0,0
0,70,27,11
0,70,0,4
0,61,0,22
0,55,64,2
0,42,64,0
0,42,0,4
0,66,0,9
0,70,27,11
0,70,0,4
0,55,0,22
0,61,64,2
0,38,74,0
0,39,65,0
0,42,81,0
0,38,0,4
0,39,0,0
0,42,0,0
0,33,0,2
0,33,71,11
0,70,27,0
0,70,0,4
0,62,81,14
0,33,0,15
0,61,0,2
0,62,74,2
0,35,66,0
0,42,64,0
0,42,0,4
0,62,0,7
0,62,84,21
0,33,63,11
0,36,61,0
0,70,27,0
0,36,0,4
0,70,0,0
0,35,0,2
0,33,0,11
0,62,0,1
0,62,0,10
0,33,70,2
0,61,63,0
0,36,99,0
0,42,81,0
0,36,0,4
0,42,0,0
0,62,79,3
0,62,0,6
0,28,31,5
0,46,26,0
0,70,27,0
0,28,0,4
0,46,0,0
0,70,0,0
0,66,79,6
0,61,0,16
0,36,76,2
0,42,64,0
0,55,70,0
0,36,0,4
0,42,0,0
0,66,0,2
0,66,68,1
0,70,27,10
0,70,0,4
0,66,0,8
0,52,0,14
0,55,0,0
0,38,74,2
0,39,65,0
0,42,81,0
0,61,71,0
0,38,0,4
0,39,0,0
0,42,0,0
0,66,81,6
0,33,0,1
