track,note,velocity,time
1,48,53,200
1,92,71,8
1,80,67,0
1,63,61,0
1,87,65,4
1,56,48,8
1,79,70,96
1,82,73,16
1,81,72,16
1,47,45,36
1,80,66,8
1,56,52,4
1,62,52,16
1,77,66,36
1,53,52,84
1,76,68,124
1,75,65,24
1,74,65,24
1,73,67,20
1,55,45,12
1,61,52,4
1,46,45,4
1,72,68,52
1,73,65,72
1,74,66,32
1,75,65,116
1,77,67,44
1,45,49,64
1,54,48,20
1,75,66,0
1,60,52,0
1,69,56,64
1,72,65,8
1,60,50,12
1,72,65,16
1,73,68,48
1,75,65,48
1,46,50,4
1,61,52,20
1,65,55,4
1,56,45,0
1,73,65,68
1,68,53,8
1,65,51,28
1,56,45,72
1,72,65,16
1,61,50,8
1,70,55,104
1,68,59,40
1,65,57,72
1,64,55,92
1,63,57,28
1,51,47,4
1,39,41,192
1,63,55,404
1,87,66,0
1,82,65,0
1,75,65,4
1,47,44,52
1,62,51,12
1,86,70,4
1,57,45,8
1,74,65,4
1,81,65,0
1,46,47,84
1,73,65,0
1,61,53,4
1,52,49,8
1,85,68,0
1,76,65,0
1,80,65,12
1,56,45,0
1,76,65,96
1,72,68,4
1,84,65,0
1,80,65,16
1,61,52,28
1,82,65,12
1,58,45,0
1,68,55,0
1,70,59,4
1,64,55,8
1,68,57,68
1,80,65,16
1,70,55,36
1,82,65,0
1,77,65,8
1,39,53,144
1,49,48,12
1,63,55,12
1,49,45,0
1,55,50,4
1,58,45,20
1,75,65,216
1,63,55,12
1,48,45,24
1,63,55,4
1,58,52,8
1,54,51,12
1,87,70,8
1,75,65,8
1,56,48,164
1,73,66,12
1,85,66,4
1,41,49,28
1,51,45,12
1,84,65,8
1,57,45,0
1,72,65,8
1,82,65,156
1,70,57,0
1,85,68,84
1,46,43,4
1,56,46,0
1,61,50,0
1,73,65,8
1,51,45,8
1,51,45,296
1,39,45,0
1,75,65,236
1,87,65,0
1,82,65,4
1,36,45,52
1,51,49,0
1,92,70,12
1,80,65,0
1,91,65,144
1,79,65,4
1,77,65,96
1,89,65,8
1,87,65,92
1,75,65,12
1,89,64,0
1,77,65,0
1,49,51,60
1,34,46,4
1,35,48,48
1,84,65,28
1,50,45,0
1,83,65,48
1,82,65,48
1,81,65,24
1,80,65,24
1,36,45,28
1,51,45,20
1,79,63,4
1,82,66,72
1,81,63,44
1,80,65,24
1,79,65,32
1,78,65,4
1,77,65,28
1,44,45,4
1,42,45,40
1,57,45,0
1,72,71,0
1,51,48,4
1,75,65,132
1,77,65,68
1,79,65,16
1,41,45,68
1,82,65,4
1,50,47,8
1,56,45,4
1,80,66,256
1,79,65,60
1,77,68,72
1,74,65,68
1,79,65,4
1,35,45,8
1,80,65,116
1,77,65,60
1,79,67,20
1,77,65,88
1,79,65,8
1,39,49,44
1,75,65,8
1,75,65,140
1,72,65,0
1,41,45,84
1,57,45,4
1,51,47,0
1,68,55,92
1,65,55,0
1,46,50,8
1,56,45,0
1,61,50,20
1,70,71,160
1,61,50,0
1,67,55,12
1,39,45,4
1,72,69,80
1,60,55,4
1,67,62,8
1,44,45,120
1,51,46,4
1,53,45,160
1,60,50,12
1,64,55,96
1,65,55,64
1,68,55,36
1,61,55,4
1,56,45,4
1,46,45,8
1,66,55,96
1,54,45,24
1,55,45,24
1,67,55,12
1,68,55,36
1,56,45,12
1,69,55,60
1,57,45,20
1,48,45,24
1,70,55,8
1,63,59,12
1,58,45,8
1,71,55,116
1,72,65,124
1,63,55,20
1,66,55,0
1,69,55,20
1,51,47,48
1,41,45,4
1,57,45,16
1,45,45,324
1,54,45,20
1,60,55,8
1,87,75,0
1,75,74,0
1,74,65,112
1,86,68,4
1,46,45,32
1,52,50,8
1,61,57,0
1,85,65,0
1,56,45,4
1,73,65,4
1,76,65,12
1,80,65,8
1,72,67,100
1,80,65,0
1,76,65,4
1,84,65,16
1,82,65,60
1,70,55,16
1,68,57,68
1,80,65,16
1,49,46,92
1,82,65,16
1,70,55,0
1,55,45,0
1,63,55,4
1,58,45,8
1,76,65,32
1,49,45,60
1,55,45,48
1,58,45,0
1,61,55,8
1,48,45,336
1,51,49,28
1,58,54,4
1,66,62,0
1,54,50,0
1,75,71,4
1,70,55,12
1,73,71,64
1,41,42,40
1,51,45,16
1,72,65,0
1,57,45,4
1,70,57,100
1,46,50,76
1,73,65,0
1,65,55,20
1,53,45,144
1,54,45,16
1,55,45,84
1,75,72,52
1,61,56,8
1,80,72,60
1,44,45,8
1,68,55,0
1,53,45,28
1,60,50,4
1,79,65,76
1,60,50,128
1,56,45,4
1,77,65,64
1,75,65,56
1,77,65,76
1,46,50,4
1,55,45,368
1,59,45,112
1,60,50,52
1,61,55,0
1,62,50,0
1,53,45,12
1,47,45,0
1,56,45,72
1,53,45,0
1,63,55,48
1,60,50,16
1,56,48,80
1,48,45,8
1,53,45,0
1,42,45,20
1,79,65,0
1,57,45,4
1,67,55,0
1,72,64,0
1,75,65,12
1,68,55,132
1,80,65,4
1,41,45,64
1,82,65,4
1,56,45,0
1,70,55,0
1,50,48,4
1,77,65,12
1,80,65,196
1,68,53,4
1,79,65,100
1,67,55,8
1,65,55,88
1,35,45,80
1,79,66,4
1,71,55,0
1,74,65,4
1,67,55,0
1,80,66,100
1,68,55,16
1,56,47,24
1,77,66,120
1,76,66,28
1,75,69,60
1,51,45,0
1,39,41,20
1,41,45,28
1,75,64,8
1,57,45,0
1,51,45,8
1,63,52,8
1,72,65,0
1,68,55,44
1,61,54,0
1,46,45,64
1,46,48,100
1,68,55,4
1,61,55,4
1,39,45,68
1,70,54,8
1,67,55,8
1,61,55,0
1,51,45,112
1,60,52,72
1,44,42,4
1,68,55,8
1,65,55,4
1,63,55,192
1,51,45,0
1,64,55,140
1,42,46,28
1,75,65,4
1,58,45,0
1,49,43,4
1,73,65,20
1,72,65,28
1,61,55,8
1,39,45,8
1,55,45,0
1,70,55,36
1,68,55,40
1,44,42,0
1,60,54,0
1,51,44,0
1,40,43,20
1,47,43,0
1,56,45,0
1,63,54,4
1,66,55,36
1,46,45,40
1,39,45,0
1,54,45,16
1,61,50,76
1,65,50,64
1,38,45,24
1,54,45,4
1,45,40,8
1,60,50,100
1,64,53,48
1,53,45,64
1,56,45,8
1,37,49,12
1,53,49,96
1,44,45,0
1,70,53,160
1,68,57,16
1,77,65,36
1,53,49,12
1,77,66,72
1,65,55,260
1,61,55,4
1,56,48,12
1,77,65,164
1,36,47,56
1,51,45,24
1,77,66,0
1,70,53,16
1,78,65,104
1,58,47,24
1,52,44,20
1,77,65,8
1,56,51,88
1,76,65,8
1,51,45,60
1,41,42,4
1,57,45,12
1,77,67,12
1,77,65,28
1,54,45,28
1,45,45,8
1,60,55,8
1,65,55,8
1,65,56,44
1,53,45,60
1,46,46,16
1,70,55,0
1,61,55,4
1,72,65,40
1,70,56,4
1,69,57,0
1,70,55,76
1,46,45,16
1,77,66,20
1,61,50,188
1,58,47,4
1,65,50,0
1,77,67,0
1,77,65,8
1,71,55,4
1,74,65,4
1,47,52,128
1,56,46,4
1,62,55,8
1,62,55,92
1,79,66,20
1,76,66,108
1,71,55,56
1,77,65,12
1,56,45,0
1,62,55,0
1,47,45,4
1,74,65,4
1,59,45,304
1,65,55,0
1,50,45,8
1,49,45,172
1,64,55,12
1,63,55,36
1,48,45,4
1,56,45,12
1,75,65,296
1,71,55,80
1,72,65,16
1,75,65,128
1,41,45,56
1,80,65,4
1,51,45,0
1,68,55,16
1,63,51,156
1,56,45,4
1,53,45,12
1,75,65,240
1,46,45,24
1,56,45,32
1,80,72,0
1,68,55,0
1,62,55,12
1,75,65,12
1,81,65,128
1,69,55,8
1,82,65,184
1,70,55,4
1,34,46,104
1,50,45,8
1,79,65,264
1,47,42,8
1,74,66,0
1,56,45,0
1,67,55,4
1,62,55,0
1,90,65,200
1,78,65,0
1,77,65,48
1,89,65,8
1,46,45,20
1,55,45,248
1,77,65,112
1,61,55,0
1,76,66,48
1,75,65,8
1,74,65,32
1,73,65,0
1,45,45,12
1,72,66,4
1,54,45,296
1,60,55,44
1,71,55,84
1,72,66,40
1,73,65,28
1,74,65,8
1,75,65,28
1,46,45,0
1,56,45,20
1,52,45,72
1,53,45,28
1,56,45,68
1,60,50,8
1,63,55,68
1,63,55,228
1,51,45,128
1,46,53,8
1,64,55,0
1,61,55,4
1,73,65,4
1,56,45,4
1,52,46,4
1,68,55,0
1,72,65,60
1,70,55,76
1,68,56,0
1,49,46,40
1,61,56,4
1,67,56,8
1,70,55,4
1,58,45,4
1,58,47,24
1,55,45,28
1,63,55,36
1,48,45,20
1,75,69,8
1,66,55,4
1,51,45,0
1,54,45,16
1,58,45,8
1,70,55,0
1,73,65,128
1,41,45,4
1,72,65,20
1,51,45,0
1,70,52,160
1,56,44,52
1,73,71,0
1,46,45,0
1,73,65,88
1,61,55,20
1,55,45,0
1,51,45,8
1,51,45,8
1,75,65,8
1,80,65,20
1,44,45,12
1,79,65,100
1,53,45,128
1,60,55,20
1,77,66,96
1,75,66,76
1,77,66,80
1,46,45,16
1,55,45,260
1,61,50,4
1,84,65,148
1,83,65,48
1,82,65,36
1,81,65,16
1,80,65,0
1,47,45,12
1,79,65,12
1,82,65,76
1,56,45,0
1,81,65,4
1,80,65,16
1,79,65,36
1,48,45,20
1,78,65,0
1,63,55,20
1,58,45,4
1,77,65,8
1,42,45,36
1,79,65,8
1,51,45,0
1,69,55,0
1,57,45,4
1,73,65,0
1,75,65,4
1,74,65,8
1,82,65,12
1,41,45,0
1,74,65,4
1,56,45,0
1,70,55,4
1,50,45,12
1,77,65,0
1,80,65,116
1,68,55,4
1,74,65,8
1,79,65,68
1,67,55,16
1,74,65,8
1,78,69,36
1,66,55,0
1,71,55,20
1,67,55,8
1,74,65,4
1,79,65,0
1,35,45,4
1,80,65,56
1,68,55,4
1,74,65,4
1,71,55,24
1,50,45,12
1,77,65,4
1,65,55,24
1,76,70,72
1,65,55,40
1,36,35,4
1,75,65,52
1,51,45,8
1,75,65,60
1,58,45,28
1,52,48,4
1,42,45,16
1,51,45,52
1,57,56,8
1,41,54,0
1,71,55,48
1,83,72,0
1,45,45,24
1,72,75,8
1,84,75,0
1,54,45,4
1,60,55,20
1,85,75,68
1,73,70,4
1,74,75,40
1,86,73,4
1,87,75,84
1,46,45,12
1,56,51,0
1,75,69,0
1,82,65,8
1,61,58,0
1,80,66,24
1,85,65,12
1,73,65,0
1,87,70,52
1,75,65,12
1,85,65,16
1,73,65,4
1,49,45,20
1,72,65,8
1,60,55,0
1,55,45,40
1,63,55,248
1,67,55,64
1,72,65,8
1,63,55,92
1,51,48,52
1,68,57,0
1,44,45,152
1,60,55,20
1,61,55,100
1,62,55,28
1,41,45,88
1,57,52,8
1,66,55,0
1,51,51,0
1,60,55,40
1,65,55,0
1,53,49,24
1,75,65,48
1,56,45,8
1,61,56,4
1,46,45,8
1,76,65,12
1,65,55,132
1,68,55,8
1,61,55,8
1,75,72,4
1,54,45,112
1,75,66,12
1,39,45,64
1,72,65,32
1,55,45,0
1,70,55,32
1,67,55,268
1,61,53,0
1,63,55,4
1,58,45,8
1,70,55,164
1,48,45,64
1,75,67,4
1,58,45,4
1,54,45,4
1,51,42,4
1,66,51,0
1,51,48,44
1,73,70,20
1,57,45,16
1,73,65,128
1,65,55,20
1,61,55,48
1,72,65,20
1,55,45,8
1,51,45,4
1,65,55,12
1,70,58,12
1,39,45,28
1,67,55,204
1,44,48,60
1,51,45,8
1,68,62,20
1,72,70,116
1,75,64,144
1,77,72,60
1,78,74,132
1,79,65,60
1,56,44,0
1,62,55,0
1,46,45,16
1,78,65,48
1,55,45,28
1,61,56,0
1,77,65,4
1,51,45,44
1,76,65,36
1,75,65,52
1,44,45,8
1,53,45,12
1,60,55,4
1,65,55,0
1,68,55,4
1,72,65,44
1,72,70,48
1,75,65,48
1,79,64,36
1,36,41,16
1,51,45,12
1,79,65,44
1,80,65,44
1,84,65,28
1,87,65,16
1,89,65,16
1,92,65,24
1,39,43,232
1,34,51,52
1,50,55,24
1,82,65,4
1,70,55,8
1,80,63,104
1,68,57,0
1,79,65,96
1,67,56,4
1,65,55,212
1,77,65,8
1,74,65,72
1,35,45,4
1,79,65,8
1,67,55,8
1,80,65,156
1,68,55,12
1,77,65,64
1,65,57,4
1,50,45,8
1,77,65,16
1,36,45,64
1,75,65,40
1,51,45,16
1,75,65,80
1,41,43,44
1,51,45,4
1,57,45,12
1,56,45,60
1,61,55,0
1,46,45,16
1,68,55,144
1,65,55,4
1,39,45,48
1,70,55,0
1,68,55,52
1,72,69,60
1,44,45,8
1,67,57,0
1,51,42,0
1,55,45,160
1,64,55,84
1,65,55,56
1,73,66,52
1,46,45,8
1,55,45,152
1,61,55,164
1,65,55,20
1,66,55,32
1,75,63,48
1,48,45,32
1,58,45,392
1,70,56,8
1,63,55,8
1,56,45,16
1,69,55,24
1,51,45,80
1,41,49,4
1,57,45,0
1,77,75,52
1,60,55,12
1,76,68,20
1,75,65,32
1,74,65,12
1,73,72,80
1,46,42,8
1,61,55,0
1,52,45,0
1,56,45,32
1,64,53,252
1,75,69,48
1,73,68,96
1,49,45,44
1,63,55,4
1,72,65,4
1,55,45,0
1,58,45,8
1,70,56,60
1,63,55,80
1,58,45,8
1,66,57,120
1,54,45,76
1,58,45,0
1,63,55,0
1,75,72,16
1,77,66,80
1,49,45,16
1,41,45,28
1,51,45,12
1,73,70,16
1,57,45,4
1,75,69,172
1,46,45,68
1,61,55,4
1,72,68,12
1,55,45,12
1,70,66,20
1,51,45,160
1,75,65,16
1,44,44,64
1,80,75,16
1,59,45,0
1,53,45,308
1,80,72,12
1,77,69,24
1,46,54,64
1,80,72,12
1,84,72,160
1,80,66,40
1,53,45,8
1,61,55,24
1,77,66,176
1,75,65,72
1,48,45,72
1,51,45,160
1,63,55,200
1,58,45,0
1,51,45,156
1,36,42,4
1,80,65,116
1,68,61,0
1,72,72,92
1,84,72,8
1,51,45,88
1,57,45,4
1,87,75,8
1,42,50,0
1,75,72,0
1,77,75,80
1,89,69,4
1,79,68,8
1,91,72,0
1,41,50,84
1,56,45,8
1,50,45,4
1,94,79,4
1,82,65,8
1,92,78,4
1,80,75,20
1,82,72,192
1,94,72,4
1,35,52,52
1,91,65,12
1,79,65,16
1,78,65,136
1,90,65,4
1,83,65,0
1,77,67,48
1,89,65,0
1,50,44,0
1,87,65,32
1,82,65,12
1,75,65,0
1,36,45,100
1,51,45,28
1,39,45,24
1,57,45,8
1,85,65,24
1,46,42,8
1,73,66,0
1,81,65,12
1,75,66,16
1,87,67,12
1,46,45,28
1,56,45,0
1,84,65,12
1,72,66,4
1,68,56,28
1,80,65,8
1,39,46,48
1,55,45,8
1,49,45,16
1,72,68,4
1,84,71,0
1,51,45,76
1,68,55,16
1,80,65,0
1,44,45,4
1,75,65,4
1,51,45,124
1,44,45,4
1,58,45,116
1,42,45,60
1,63,55,12
1,49,45,0
1,68,55,164
1,64,56,0
1,59,45,12
1,50,48,36
1,68,55,16
1,43,45,0
1,60,55,16
1,65,55,0
1,51,45,64
1,44,45,8
1,56,45,4
1,55,45,180
1,54,45,60
1,77,75,16
1,76,66,36
1,75,66,12
1,74,65,28
1,44,48,24
1,73,66,0
1,72,65,12
1,75,66,24
1,37,45,8
1,72,65,4
1,73,65,28
1,53,45,4
1,68,55,0
1,70,55,76
1,73,65,12
1,61,55,24
1,75,65,76
1,76,70,84
1,80,79,64
1,32,45,28
1,77,66,164
1,56,50,56
1,75,66,8
1,48,45,12
1,73,65,60
1,77,66,64
1,36,51,0
1,51,52,36
1,76,65,180
1,58,46,0
1,77,72,24
1,52,45,8
1,65,55,72
1,41,45,176
1,51,50,8
1,57,49,4
1,76,65,0
1,45,45,156
1,54,55,88
1,60,55,4
1,49,45,40
1,65,55,216
1,53,50,76
1,46,47,8
1,61,58,12
1,70,65,0
1,72,73,60
1,73,72,96
