track,note,velocity,time
1,47,113,13824
1,42,113,814
1,43,99,18
1,42,64,32
1,45,113,42
1,47,113,1382
1,42,113,810
1,43,99,192
1,42,99,16
1,45,127,14
1,45,99,620
1,45,99,48
1,45,88,32
1,45,99,124
1,47,99,46
1,47,99,58
1,42,113,800
1,43,99,6
1,42,113,12
1,45,113,28
1,47,113,1386
1,42,99,800
1,43,99,8
1,42,99,2
1,45,99,18
1,45,99,612
1,45,113,56
1,45,99,38
1,45,99,148
1,47,127,50
1,47,113,88
1,42,113,814
1,43,99,18
1,42,64,32
1,45,113,42
1,40,80,614
1,40,113,68
1,40,80,52
1,42,113,128
1,40,113,40
1,47,113,80
1,42,113,810
1,43,99,192
1,42,99,16
1,45,127,14
1,45,99,620
1,45,99,48
1,45,88,32
1,45,99,124
1,47,99,46
1,47,113,58
1,42,113,814
1,43,99,18
1,42,64,32
1,45,113,42
1,40,80,614
1,40,113,68
1,40,80,52
1,42,113,128
1,40,113,40
1,47,113,80
1,42,113,810
1,43,99,192
1,42,99,16
1,45,127,14
1,45,99,620
1,45,99,48
1,45,88,32
1,45,99,124
1,47,99,46
1,47,113,58
1,42,113,814
1,43,99,18
1,42,64,32
1,45,113,42
1,40,80,614
1,40,113,68
1,40,80,52
1,42,113,128
1,40,113,40
1,47,113,80
1,42,113,810
1,43,99,192
1,42,99,16
1,45,127,14
1,45,99,620
1,45,99,48
1,45,88,32
1,45,99,124
1,47,99,46
1,47,113,58
1,42,113,814
1,43,99,18
1,42,64,32
1,45,113,42
1,40,80,614
1,40,113,68
1,40,80,52
1,42,113,128
1,40,113,40
1,47,113,80
1,42,113,810
1,43,99,192
1,42,99,16
1,45,127,14
1,45,99,620
1,45,99,48
1,45,88,32
1,45,99,124
1,47,99,46
1,40,127,58
1,40,127,852
1,40,127,254
1,42,113,56
1,42,127,822
1,42,127,124
1,47,88,70
1,47,113,856
1,47,88,124
1,42,113,14
1,45,99,38
1,47,71,8
1,45,99,96
1,45,113,426
1,45,113,264
1,47,99,90
1,47,28,2
1,45,99,0
1,40,99,68
1,40,113,824
1,40,127,250
1,42,113,24
1,42,127,812
1,42,113,84
1,42,99,56
1,45,99,40
1,47,99,58
1,47,88,448
1,47,99,472
1,42,113,264
1,54,80,54
1,58,88,44
1,61,88,92
1,62,64,70
1,61,71,26
1,55,71,90
1,54,80,54
1,47,113,72
1,42,113,814
1,43,99,18
1,42,64,32
1,45,113,42
1,40,80,614
1,40,113,68
1,40,80,52
1,42,113,128
1,40,113,40
1,47,113,80
1,42,113,810
1,43,99,192
1,42,99,16
1,45,127,14
1,45,99,620
1,45,99,48
1,45,88,32
1,45,99,124
1,47,99,46
1,47,113,58
1,42,113,814
1,43,99,18
1,42,64,32
1,45,113,42
1,40,80,614
1,40,113,68
1,40,80,52
1,42,113,128
1,40,113,40
1,47,113,80
1,42,113,810
1,43,99,192
1,42,99,16
1,45,127,14
1,45,99,620
1,45,99,48
1,45,88,32
1,45,99,124
1,47,99,46
1,40,113,58
1,42,80,62
1,47,113,128
1,42,113,814
1,43,99,18
1,42,64,32
1,45,113,42
1,40,80,614
1,40,113,68
1,40,80,52
1,42,113,128
1,40,113,40
1,47,113,80
1,42,113,810
1,43,99,192
1,42,99,16
1,45,127,14
1,45,99,620
1,45,99,48
1,45,88,32
1,45,99,124
1,47,99,46
1,47,113,58
1,42,113,814
1,43,99,18
1,42,64,32
1,45,113,42
1,40,80,614
1,40,113,68
1,40,80,52
1,42,113,128
1,40,113,40
1,47,113,80
1,42,113,810
1,43,99,192
1,42,99,16
1,45,127,14
1,45,99,620
1,45,99,48
1,45,88,32
1,45,99,124
1,47,99,46
1,47,113,58
1,42,113,814
1,43,99,18
1,42,64,32
1,45,113,42
1,40,80,614
1,40,113,68
1,40,80,52
1,42,113,128
1,40,113,40
1,47,113,80
1,42,113,810
1,43,99,192
1,42,99,16
1,45,127,14
1,45,99,620
1,45,99,48
1,45,88,32
1,45,99,124
1,47,99,46
1,47,113,58
1,42,113,814
1,43,99,18
1,42,64,32
1,45,113,42
1,40,80,614
1,40,113,68
1,40,80,52
1,42,113,128
1,40,113,40
1,47,113,80
1,42,113,810
1,43,99,192
1,42,99,16
1,45,127,14
1,45,99,620
1,45,99,48
1,45,88,32
1,45,99,124
1,47,99,46
1,40,127,58
1,40,127,852
1,40,127,254
1,42,113,56
1,42,127,822
1,42,127,124
1,47,88,70
1,47,113,856
1,47,88,124
1,42,113,14
1,45,99,38
1,47,71,8
1,45,99,96
1,45,113,426
1,45,113,264
1,47,99,90
1,47,28,2
1,45,99,0
1,40,99,68
1,40,113,824
1,40,127,250
1,42,113,24
1,42,127,812
1,42,113,84
1,42,99,56
1,45,99,40
1,47,99,58
1,47,88,448
1,47,99,472
1,42,113,264
1,54,80,54
1,58,88,44
1,61,88,92
1,62,64,70
1,61,71,26
1,55,71,90
1,54,80,54
1,47,113,72
1,42,113,814
1,43,99,18
1,42,64,32
1,45,113,42
1,40,80,614
1,40,113,68
1,40,80,52
1,42,113,128
1,40,113,40
1,47,113,80
1,42,113,810
1,43,99,192
1,42,99,16
1,45,127,14
1,45,99,620
1,45,99,48
1,45,88,32
1,45,99,124
1,47,99,46
1,47,113,58
1,42,113,814
1,43,99,18
1,42,64,32
1,45,113,42
1,40,80,614
1,40,113,68
1,40,80,52
1,42,113,128
1,40,113,40
1,47,113,80
1,42,113,810
1,43,99,192
1,42,99,16
1,45,127,14
1,45,99,620
1,45,99,48
1,45,88,32
1,45,99,124
1,47,99,46
1,47,113,58
1,42,113,814
1,43,99,18
1,42,64,32
1,45,113,42
1,40,80,614
1,40,113,68
1,40,80,52
1,42,113,128
1,40,113,40
1,47,113,80
1,42,113,810
1,43,99,192
1,42,99,16
1,45,127,14
1,45,99,620
1,45,99,48
1,45,88,32
1,45,99,124
1,47,99,46
1,47,113,58
1,42,113,814
1,43,99,18
1,42,64,32
1,45,113,42
1,40,80,614
1,40,113,68
1,40,80,52
1,42,113,128
1,40,113,40
1,47,113,80
1,42,113,810
1,43,99,192
1,42,99,16
1,45,127,14
1,45,99,620
1,45,99,48
1,45,88,32
1,45,99,124
1,47,99,46
1,40,127,58
1,40,127,852
1,40,127,254
1,42,113,56
1,42,127,822
1,42,127,124
1,47,88,70
1,47,113,856
1,47,88,124
1,42,113,14
1,45,99,38
1,47,71,8
1,45,99,96
1,45,113,426
1,45,113,264
1,47,99,90
1,47,28,2
1,45,99,0
1,40,99,68
1,40,113,824
1,40,127,250
1,42,113,24
1,42,127,812
1,42,113,84
1,42,99,56
1,45,99,40
1,47,99,58
1,47,88,448
1,47,99,472
1,42,113,264
1,54,80,54
1,58,88,44
1,61,88,92
1,62,64,70
1,61,71,26
1,55,71,90
1,54,80,54
1,47,113,12360
1,42,113,814
1,43,99,18
1,42,64,32
1,45,113,42
1,47,113,1382
1,42,113,810
1,43,99,192
1,42,99,16
1,45,127,14
1,45,99,620
1,45,99,48
1,45,88,32
1,45,99,124
1,47,99,46
1,47,99,58
1,42,113,800
1,43,99,6
1,42,113,12
1,45,113,28
1,47,113,1386
1,42,99,800
1,43,99,8
1,42,99,2
1,45,99,18
1,45,99,612
1,45,113,56
1,45,99,38
1,45,99,148
1,47,127,50
1,47,113,88
1,42,113,814
1,43,99,18
1,42,64,32
1,45,113,42
1,40,80,614
1,40,113,68
1,40,80,52
1,42,113,128
1,40,113,40
1,47,113,80
1,42,113,810
1,43,99,192
1,42,99,16
1,45,127,14
1,45,99,620
1,45,99,48
1,45,88,32
1,45,99,124
1,47,99,46
1,47,113,58
1,42,113,814
1,43,99,18
1,42,64,32
1,45,113,42
1,40,80,614
1,40,113,68
1,40,80,52
1,42,113,128
1,40,113,40
1,47,113,80
1,42,113,810
1,43,99,192
1,42,99,16
1,45,127,14
1,45,99,620
1,45,99,48
1,45,88,32
1,45,99,124
1,47,99,46
1,47,113,58
1,42,113,814
1,43,99,18
1,42,64,32
1,45,113,42
1,40,80,614
1,40,113,68
1,40,80,52
1,42,113,128
1,40,113,40
1,47,113,80
1,42,113,810
1,43,99,192
1,42,99,16
1,45,127,14
1,45,99,620
1,45,99,48
1,45,88,32
1,45,99,124
1,47,99,46
1,47,113,58
1,42,113,814
1,43,99,18
1,42,64,32
1,45,113,42
1,40,80,614
1,40,113,68
1,40,80,52
1,42,113,128
1,40,113,40
1,47,113,80
1,42,113,810
1,43,99,192
1,42,99,16
1,45,127,14
1,45,99,620
1,45,99,48
1,45,88,32
1,45,99,124
1,47,99,46
1,47,113,58
2,83,99,1536
2,83,80,60
2,83,64,58
2,71,88,42
2,83,71,26
2,83,80,56
2,71,88,48
2,83,71,16
2,83,80,72
2,71,80,40
2,83,80,14
2,83,80,60
2,71,80,40
2,83,80,18
2,83,80,64
2,71,80,40
2,83,71,16
2,83,71,58
2,71,88,44
2,83,80,16
2,83,80,64
2,83,69,48
2,71,88,36
2,83,71,20
2,83,80,64
2,71,80,48
2,83,80,16
2,83,71,62
2,71,80,40
2,83,71,16
2,83,71,64
2,71,80,42
2,83,80,16
2,83,71,60
2,83,71,54
2,71,88,36
2,83,80,10
2,83,71,60
2,71,80,50
2,83,69,8
2,83,71,70
2,71,80,50
2,83,88,12
2,83,80,64
2,71,71,44
2,83,80,16
2,83,71,64
2,71,71,50
2,83,80,18
2,83,80,60
2,71,80,44
2,83,80,16
2,83,88,70
2,71,71,50
2,83,88,18
2,71,80,58
2,83,80,26
2,83,71,64
2,71,99,48
2,83,71,24
2,83,80,68
2,71,99,52
2,83,80,26
2,83,80,62
2,71,88,58
2,83,80,24
2,83,88,62
2,71,99,48
2,83,80,24
2,71,80,60
2,83,80,28
2,71,99,56
2,83,80,24
2,83,80,60
2,71,88,48
2,83,80,24
2,83,80,64
2,71,88,48
2,83,71,18
2,83,80,62
2,83,71,64
2,83,64,56
2,71,88,62
2,83,71,14
2,83,80,72
2,71,80,60
2,83,80,22
2,83,88,68
2,71,88,56
2,83,80,30
2,83,80,68
2,71,99,48
2,83,80,30
2,83,88,64
2,71,80,58
2,83,69,20
2,83,71,72
2,71,99,62
2,83,99,24
2,83,71,58
2,71,88,48
2,83,88,20
2,83,88,64
2,71,88,52
2,83,88,22
2,83,88,56
2,71,88,58
2,83,99,18
2,83,80,60
2,71,99,56
2,83,88,20
2,71,71,58
2,83,99,24
2,83,80,56
2,71,99,48
2,83,88,26
2,83,80,62
2,71,88,56
2,83,88,22
2,83,80,58
2,71,88,48
2,83,88,20
2,83,80,58
2,71,88,50
2,83,88,18
2,83,71,56
2,71,88,46
2,83,88,24
2,83,80,60
2,71,99,48
2,83,88,24
2,83,88,60
2,71,88,50
2,83,80,22
2,83,71,68
2,71,99,52
2,83,99,30
2,83,80,60
2,71,88,52
2,83,88,30
2,83,99,60
2,71,99,44
2,83,80,28
2,83,71,62
2,71,88,50
2,83,80,20
2,83,71,68
2,71,88,68
2,83,99,30
2,83,80,56
2,71,99,56
2,83,80,26
2,83,69,64
2,83,80,68
2,71,99,50
2,83,71,24
2,83,71,72
2,71,99,52
2,83,80,24
2,71,80,54
2,83,88,28
2,83,88,62
2,71,99,50
2,83,88,24
2,83,80,60
2,71,80,44
2,83,80,22
2,83,80,54
2,71,80,42
2,83,80,24
2,83,71,58
2,71,88,48
2,83,80,24
2,83,80,58
2,71,88,48
2,83,71,24
2,83,80,58
2,71,88,56
2,83,80,26
2,83,80,66
2,71,88,52
2,83,88,22
2,83,71,62
2,71,99,60
2,83,99,20
2,83,88,60
2,71,99,56
2,83,88,24
2,83,71,58
2,71,113,54
2,83,80,30
2,71,99,48
2,83,113,24
2,71,88,0
2,83,80,20
2,83,71,68
2,71,88,68
2,83,99,30
2,83,80,56
2,71,99,56
2,83,80,26
2,83,69,64
2,83,80,68
2,71,99,50
2,83,71,24
2,83,71,72
2,71,99,52
2,83,80,24
2,71,80,54
2,71,88,28
2,83,80,20
2,83,71,68
2,71,88,68
2,83,99,30
2,83,80,56
2,71,99,56
2,83,80,26
2,83,69,64
2,83,80,68
2,71,99,50
2,83,71,24
2,83,71,72
2,71,99,52
2,83,80,24
2,71,80,54
2,83,88,28
2,83,88,62
2,71,99,50
2,83,88,24
2,83,80,60
2,71,80,44
2,83,80,22
2,83,80,54
2,71,80,42
2,83,80,24
2,83,71,58
2,71,88,48
2,83,80,24
2,83,80,58
2,71,88,48
2,83,71,24
2,83,80,58
2,71,88,56
2,83,80,26
2,83,80,66
2,71,88,52
2,83,88,22
2,83,71,62
2,71,99,60
2,83,99,20
2,83,88,60
2,71,99,56
2,83,88,24
2,83,71,58
2,71,113,54
2,83,80,30
2,71,99,48
2,59,99,24600
2,66,99,0
2,62,88,0
2,52,99,0
2,55,113,0
2,61,88,76
2,54,113,0
2,57,71,0
2,64,71,0
2,59,80,0
2,59,99,92
2,66,99,0
2,62,88,0
2,66,99,76
2,62,71,0
2,57,80,0
2,59,99,0
2,59,99,168
2,66,99,0
2,62,88,0
2,52,99,0
2,55,113,0
2,71,88,0
2,61,88,76
2,54,113,0
2,57,71,0
2,64,71,0
2,73,88,0
2,59,80,0
2,69,69,0
2,59,99,92
2,66,99,0
2,62,88,0
2,66,99,76
2,61,80,0
2,70,88,0
2,42,113,0
2,54,80,54
2,58,88,44
2,61,88,92
2,62,64,70
2,61,71,26
2,55,71,90
2,54,80,54
2,59,64,72
2,62,69,0
2,66,80,0
2,47,88,0
2,61,80,100
2,64,64,0
2,57,69,0
2,45,80,0
2,59,71,116
2,47,88,0
2,66,88,0
2,62,80,0
2,61,80,166
2,57,69,0
2,45,80,0
2,64,64,0
2,47,80,112
2,59,80,0
2,62,88,0
2,66,88,0
2,61,80,144
2,57,71,0
2,64,64,0
2,45,69,0
2,59,64,148
2,47,80,0
2,66,88,0
2,62,64,0
2,45,80,146
2,61,80,0
2,57,88,0
2,64,69,0
2,64,60,136
2,67,69,0
2,71,64,0
2,67,71,112
2,66,88,192
2,64,69,158
2,71,64,170
2,69,80,6
2,73,88,384
2,59,99,24704
2,66,99,0
2,62,88,0
2,52,99,0
2,55,113,0
2,61,88,76
2,54,113,0
2,57,71,0
2,64,71,0
2,59,80,0
2,59,99,92
2,66,99,0
2,62,88,0
2,66,99,76
2,62,71,0
2,57,80,0
2,59,99,0
2,59,99,168
2,66,99,0
2,62,88,0
2,52,99,0
2,55,113,0
2,71,88,0
2,61,88,76
2,54,113,0
2,57,71,0
2,64,71,0
2,73,88,0
2,59,80,0
2,69,69,0
2,59,99,92
2,66,99,0
2,62,88,0
2,66,99,76
2,61,80,0
2,70,88,0
2,42,113,0
2,54,80,54
2,58,88,44
2,61,88,92
2,62,64,70
2,61,71,26
2,55,71,90
2,54,80,54
2,59,64,72
2,62,69,0
2,66,80,0
2,47,88,0
2,61,80,100
2,64,64,0
2,57,69,0
2,45,80,0
2,59,71,116
2,47,88,0
2,66,88,0
2,62,80,0
2,61,80,166
2,57,69,0
2,45,80,0
2,64,64,0
2,47,80,112
2,59,80,0
2,62,88,0
2,66,88,0
2,61,80,144
2,57,71,0
2,64,64,0
2,45,69,0
2,59,64,148
2,47,80,0
2,66,88,0
2,62,64,0
2,45,80,146
2,61,80,0
2,57,88,0
2,64,69,0
2,59,64,136
2,62,69,0
2,66,80,0
2,47,88,0
2,61,80,100
2,64,64,0
2,57,69,0
2,45,80,0
2,59,71,116
2,47,88,0
2,66,88,0
2,62,80,0
2,61,80,166
2,57,69,0
2,45,80,0
2,64,64,0
2,47,80,112
2,59,80,0
2,62,88,0
2,66,88,0
2,61,80,144
2,57,71,0
2,64,64,0
2,45,69,0
2,59,64,148
2,47,80,0
2,66,88,0
2,62,64,0
2,45,80,146
2,61,80,0
2,57,88,0
2,64,69,0
2,59,99,136
2,66,99,0
2,62,88,0
2,52,99,0
2,55,113,0
2,61,88,76
2,54,113,0
2,57,71,0
2,64,71,0
2,59,80,0
2,59,99,92
2,66,99,0
2,62,88,0
2,66,99,76
2,62,71,0
2,57,80,0
