track,note,velocity,time
1,48,83,5938
1,47,79,0
1,45,123,16
1,57,91,384
1,45,95,80
1,40,123,0
1,52,75,368
1,40,103,0
1,45,103,0
1,57,63,384
1,45,95,144
1,43,103,0
1,55,71,368
1,43,63,80
1,41,107,0
1,53,83,352
1,41,87,128
1,40,103,32
1,52,83,368
1,40,103,144
1,38,99,16
1,50,83,0
1,43,103,32
1,43,99,32
1,43,91,48
1,43,95,66
1,45,107,0
1,47,107,16
1,45,127,16
1,57,103,400
1,45,127,2
1,40,123,0
1,52,87,0
1,40,99,16
1,45,99,32
1,57,79,384
1,45,67,176
1,43,83,16
1,55,59,384
1,43,95,128
1,41,127,32
1,53,91,368
1,41,107,240
1,40,99,16
1,52,95,384
1,40,99,128
1,38,95,16
1,50,95,0
1,38,103,0
1,43,91,16
1,43,99,48
1,43,107,48
1,45,123,0
1,47,115,2
1,36,127,16
1,48,127,0
1,36,99,48
1,48,107,0
1,38,83,48
1,50,103,0
1,40,115,64
1,52,91,0
1,52,115,98
1,40,115,82
1,41,127,16
1,53,103,2
1,41,115,174
1,43,103,16
1,55,99,368
1,43,91,0
1,45,115,18
1,57,115,366
1,45,83,128
1,43,91,0
1,55,91,400
1,43,87,128
1,42,107,18
1,54,127,382
1,42,127,160
1,43,95,14
1,55,95,0
1,43,91,18
1,47,95,0
1,59,87,0
1,45,115,2
1,57,87,14
1,43,91,16
1,55,95,0
1,38,91,32
1,36,87,64
1,48,87,0
1,47,75,16
1,36,127,176
1,38,103,32
1,50,87,0
1,40,127,64
1,52,79,0
1,52,103,96
1,40,123,0
1,41,107,0
1,53,95,0
1,41,91,0
1,43,95,16
1,55,95,384
1,43,91,142
1,45,103,0
1,57,115,400
1,45,83,80
1,43,87,32
1,55,95,384
1,43,83,112
1,42,127,34
1,43,91,14
1,36,107,18
1,48,95,0
1,57,83,1134
1,55,71,48
1,52,75,16
1,48,91,0
1,45,79,34
1,43,83,2
1,57,83,370
1,45,83,0
1,40,123,16
1,52,95,0
1,40,115,192
1,45,95,32
1,57,83,400
1,45,87,0
1,43,99,0
1,43,95,32
1,55,75,96
1,43,83,128
1,41,107,32
1,41,99,64
1,53,103,0
1,41,99,0
1,40,103,64
1,40,83,64
1,52,87,0
1,40,115,176
1,38,95,46
1,50,83,0
1,43,103,16
1,43,95,80
1,55,95,160
1,43,99,32
1,45,95,0
1,47,95,0
1,45,123,32
1,57,83,416
1,45,95,128
1,40,115,16
1,52,95,16
1,40,99,16
1,45,91,0
1,57,87,0
1,45,103,0
1,43,95,16
1,55,83,368
1,43,91,160
1,41,123,16
1,53,99,0
1,48,83,96
1,41,99,16
1,40,115,64
1,52,83,0
1,40,83,176
1,38,103,64
1,50,95,16
1,38,95,176
1,43,95,48
1,55,103,2
1,43,103,48
1,43,99,48
1,55,91,0
1,45,123,0
1,57,107,0
1,55,95,0
1,43,107,14
1,36,123,34
1,48,123,16
1,36,103,48
1,48,87,0
1,38,91,48
1,50,95,0
1,40,99,48
1,52,95,0
1,52,95,96
1,40,103,0
1,41,103,16
1,53,123,400
1,41,95,144
1,43,99,16
1,55,115,384
1,43,107,128
1,45,127,16
1,57,127,400
1,45,115,128
1,43,103,16
1,55,99,384
1,43,95,112
1,42,103,16
1,54,127,400
1,42,91,144
1,43,107,14
1,55,115,16
1,43,47,16
1,43,95,34
1,55,95,14
1,45,99,0
1,57,95,0
1,47,99,16
1,59,115,16
1,48,127,30
1,60,127,0
1,36,103,384
1,36,103,46
1,48,87,0
1,38,91,48
1,50,87,2
1,40,127,64
1,52,103,0
1,52,95,46
1,40,123,112
1,41,103,32
1,53,103,0
1,41,107,0
1,43,95,32
1,55,87,368
1,43,91,144
1,45,103,18
1,57,127,400
1,45,103,160
1,43,95,14
1,55,95,368
1,43,103,128
1,42,127,48
1,54,127,0
1,54,103,48
1,42,127,80
1,42,91,64
1,43,107,14
1,55,83,0
1,55,123,64
1,43,63,16
1,43,95,112
1,36,127,34
1,48,91,0
1,48,87,48
1,36,91,144
1,36,91,48
1,48,103,0
1,36,103,0
1,48,123,16
1,36,127,112
1,48,127,128
1,36,95,64
1,48,75,16
1,38,91,64
1,50,95,0
1,40,127,64
1,52,115,0
1,52,107,96
1,40,115,112
1,41,115,32
1,53,127,400
1,41,99,112
1,41,127,64
1,43,115,16
1,55,107,384
1,43,95,128
1,40,103,50
1,52,127,384
1,40,107,128
1,45,127,16
1,57,127,384
1,45,91,96
1,38,95,0
1,38,107,80
1,50,107,0
1,38,107,0
1,50,99,0
1,38,95,0
1,43,107,32
1,55,103,192
1,43,127,64
1,43,103,46
1,55,103,48
1,45,127,0
1,57,107,2
1,47,107,16
1,59,95,0
1,48,127,16
1,60,127,16
1,36,127,0
1,48,127,64
1,36,95,48
1,48,91,0
1,38,107,64
1,50,95,0
1,40,127,64
1,52,107,0
1,52,91,0
1,40,115,176
1,41,103,32
1,53,107,18
1,41,107,174
1,43,99,16
1,43,95,48
1,55,107,112
1,43,95,98
1,45,95,16
1,57,123,368
1,45,123,192
1,43,95,16
1,43,91,32
1,55,103,192
1,43,83,146
1,42,127,16
1,42,127,80
1,54,127,0
1,42,107,192
1,43,95,32
1,55,107,0
1,43,3,32
1,36,103,16
1,48,123,0
1,48,67,304
1,53,75,0
1,52,47,0
1,50,39,16
1,48,83,82
1,41,91,16
1,40,47,32
1,38,39,192
1,36,75,336
2,64,63,6130
2,65,71,16
2,67,83,752
2,69,87,752
2,67,83,0
2,64,95,0
2,65,91,3088
2,67,103,0
2,69,103,768
2,71,103,0
2,71,107,32
2,72,103,96
2,74,91,64
2,72,107,0
2,76,107,1166
2,77,95,64
2,79,91,2
2,72,103,0
2,74,115,2
2,76,99,942
2,81,95,0
2,83,91,0
2,84,99,192
2,79,103,384
2,76,91,16
2,74,87,576
2,72,79,0
2,74,95,96
2,67,103,368
2,67,127,48
2,72,123,0
2,74,115,0
2,76,99,752
2,81,127,400
2,83,103,0
2,84,115,0
2,79,123,0
2,76,103,18
2,74,63,752
2,67,83,0
2,69,55,96
2,72,83,0
2,72,83,32
2,67,47,1152
2,65,55,16
2,64,47,0
2,64,83,48
2,62,55,0
2,60,75,0
2,64,95,1152
2,65,87,0
2,67,99,2
2,69,87,0
2,67,103,2
2,64,107,16
2,62,83,16
2,60,103,0
2,65,115,0
2,67,123,16
2,69,127,0
2,71,123,0
2,71,115,32
2,72,103,80
2,74,103,18
2,76,115,2
2,72,127,0
2,79,99,768
2,76,103,0
2,69,103,2
2,81,127,0
2,83,123,0
2,71,127,0
2,72,123,2
2,84,127,0
2,88,107,0
2,76,127,2
2,74,99,926
2,86,95,0
2,84,95,0
2,72,99,2
2,74,107,2
2,86,95,2
2,79,83,382
2,67,103,0
2,72,79,14
2,79,103,16
2,72,127,128
2,79,99,736
2,76,87,0
2,69,91,2
2,81,99,0
2,84,91,0
2,72,75,0
2,71,103,96
2,83,99,2
2,72,103,2
2,84,123,0
2,76,95,0
2,88,123,0
2,76,83,30
2,88,107,16
2,74,87,14
2,86,87,0
2,72,83,0
2,84,87,0
2,74,91,2
2,86,91,0
2,67,91,16
2,79,83,0
2,69,95,0
2,81,91,0
2,72,95,0
2,84,87,0
2,84,95,16
2,72,95,18
2,72,107,0
2,74,103,2304
2,76,127,0
2,74,123,0
2,72,103,0
2,77,103,1024
2,79,95,0
2,79,95,32
2,81,115,464
2,76,83,0
2,77,107,96
2,76,87,16
2,79,103,0
2,84,103,368
2,79,103,0
2,77,103,16
2,74,99,464
2,79,103,368
2,81,127,0
2,83,123,0
2,72,87,0
2,84,103,0
2,76,103,4
2,88,127,0
2,76,107,16
2,88,103,16
2,74,99,592
2,86,115,0
2,72,115,0
2,84,95,2
2,74,127,0
2,86,103,2
2,72,99,0
2,84,103,0
2,65,39,176
2,67,55,784
2,69,51,768
2,72,91,0
2,74,75,496
2,76,59,0
2,77,75,0
2,79,47,304
2,81,35,1232
2,84,59,0
3,43,85,18050
3,45,69,16
3,47,61,0
3,48,77,0
3,50,101,2
3,52,125,0
3,53,127,2
3,55,127,0
3,57,127,0
3,43,101,2
3,59,127,0
3,60,127,2
3,45,41,0
3,47,73,2
3,48,109,2
3,50,113,0
3,52,113,0
3,53,125,0
3,55,113,0
3,57,125,0
3,59,117,0
3,60,127,0
3,62,127,0
3,64,127,0
3,65,127,0
3,67,113,0
3,69,117,0
3,71,105,2
3,72,109,0
3,74,109,2
3,76,117,0
3,77,97,0
3,79,97,16
3,53,93,1168
3,57,93,80
3,60,105,96
3,65,101,96
3,55,105,16
3,59,81,78
3,62,97,96
3,67,113,96
3,57,97,0
3,60,97,98
3,64,109,78
3,69,97,112
3,67,85,0
3,57,57,288
3,54,77,16
3,60,101,0
3,64,101,0
3,69,77,112
3,72,73,16
3,76,105,0
3,81,73,112
3,84,69,16
3,88,97,0
3,55,69,66
3,59,93,0
3,62,109,30
3,67,73,96
3,71,85,32
3,74,101,16
3,79,45,114
3,83,37,32
3,86,93,0
3,60,97,96
3,62,89,18
3,64,105,30
3,67,81,16
3,64,85,80
3,67,109,0
3,72,113,2
3,64,73,32
3,53,97,256
3,57,93,96
3,60,109,80
3,65,89,96
3,55,77,48
3,59,93,96
3,62,93,96
3,67,113,80
3,57,77,112
3,60,97,208
3,64,93,176
3,60,85,96
3,69,117,2
3,67,93,16
3,57,73,112
3,54,89,2
3,60,125,0
3,64,127,2
3,69,97,110
3,72,81,16
3,76,105,0
3,81,93,96
3,84,81,16
3,88,85,0
3,55,77,14
3,59,65,34
3,62,93,14
3,67,93,14
3,71,41,96
3,74,69,0
3,79,77,16
3,83,45,112
3,86,77,16
3,91,77,18
3,60,93,64
3,67,49,448
3,62,57,16
3,60,73,128
3,43,81,12000
3,45,65,32
3,47,127,0
3,48,127,2
3,50,127,0
3,52,113,18
3,53,127,2
3,55,127,0
3,43,77,0
3,57,127,2
3,59,127,2
3,45,33,2
3,47,65,0
3,48,97,0
3,50,97,0
3,52,97,0
3,53,113,2
3,55,125,0
3,57,127,0
3,59,125,0
3,60,127,0
3,62,127,0
3,64,127,0
3,65,125,0
3,67,127,0
3,69,127,2
3,71,127,2
3,72,117,0
3,74,125,2
3,76,125,0
3,77,127,0
3,79,105,2
3,53,89,1026
3,57,73,94
3,60,97,96
3,65,105,96
3,55,105,128
3,59,105,96
3,62,105,96
3,67,109,96
3,57,97,16
3,60,89,208
3,64,81,192
3,55,105,0
3,60,109,192
3,64,113,176
3,57,81,80
3,54,101,16
3,60,127,0
3,64,97,32
3,69,85,96
3,72,69,16
3,76,97,0
3,81,61,112
3,84,93,16
3,88,93,18
3,55,89,18
3,59,101,0
3,62,97,14
3,67,117,0
3,71,81,112
3,74,93,16
3,79,105,0
3,83,37,128
3,86,93,20
3,91,113,0
3,60,127,240
3,62,113,16
3,48,127,0
3,64,117,0
3,67,113,32
3,72,97,112
3,74,97,18
3,76,93,0
3,79,105,0
3,84,85,96
3,86,89,32
3,88,93,16
3,91,85,2
3,60,101,30
3,52,101,16
3,64,105,0
3,67,113,34
3,72,93,80
3,76,93,16
3,79,89,0
3,84,77,112
3,88,89,16
3,91,93,0
3,57,93,0
3,53,101,16
3,60,113,16
3,65,89,18
3,69,73,96
3,72,73,16
3,77,105,0
3,81,61,112
3,84,101,16
3,89,85,16
3,55,93,16
3,59,105,0
3,62,105,12
3,67,101,2
3,71,97,96
3,74,97,16
3,79,97,0
3,83,69,112
3,86,81,16
3,91,97,16
3,57,93,16
3,60,113,206
3,62,101,2
3,55,101,14
3,55,127,18
3,60,127,172
3,64,117,0
3,57,97,66
3,54,101,14
3,60,125,0
3,64,97,36
3,57,105,32
3,60,117,176
3,55,97,30
3,59,93,192
3,62,105,192
3,48,49,16
3,64,89,0
3,67,97,17424
3,72,113,32
3,76,117,32
3,74,117,48
3,72,117,80
3,71,117,80
3,65,73,64
3,69,113,16
3,65,89,48
3,60,101,96
3,67,109,112
3,64,93,112
3,60,97,96
3,69,97,16
3,60,109,112
3,65,97,32
3,69,89,80
3,72,113,0
3,65,89,96
3,69,77,16
3,72,89,0
3,60,117,48
3,64,93,48
3,67,93,16
3,72,105,32
3,76,93,80
3,79,73,48
3,84,93,0
3,88,85,80
3,91,93,0
3,88,85,48
3,88,93,32
3,91,85,32
3,96,113,16
4,55,127,58050
4,60,127,0
4,55,103,0
4,64,127,0
4,64,127,32
4,62,123,272
4,60,127,2
4,62,127,30
4,60,115,0
4,62,103,0
4,63,127,0
4,64,127,0
4,62,103,0
4,60,123,0
4,62,127,16
4,65,71,16
4,67,87,0
4,64,103,2
4,69,115,0
4,67,103,16
4,71,115,0
4,72,91,16
4,74,115,0
4,72,99,80
4,67,127,16
4,65,107,0
4,67,123,0
4,65,99,16
4,64,123,0
4,62,99,0
4,60,127,2
4,62,115,32
4,64,127,2
4,65,107,94
4,67,127,16
4,60,127,2
4,72,103,542
4,75,123,96
4,79,115,0
4,76,127,0
4,74,127,80
4,72,115,16
4,74,127,0
4,72,127,16
4,74,127,0
4,75,127,0
4,76,103,0
4,74,127,2
4,74,99,64
4,72,91,0
4,74,127,0
4,67,107,480
4,64,127,16
4,69,115,16
4,72,123,256
4,71,75,0
4,72,103,16
4,75,115,0
4,79,103,0
4,76,127,0
4,74,91,64
4,72,95,16
4,74,127,32
4,72,127,0
4,69,103,16
4,67,115,0
4,64,127,0
4,62,87,368
4,60,103,16
4,62,123,16
4,67,107,16
4,65,127,0
4,69,127,0
4,72,123,96
4,67,123,48
4,72,107,2
5,65,83,0
5,81,103,20
5,72,87,64
5,77,95,96
5,83,103,16
5,84,95,0
5,64,91,16
5,79,123,0
5,67,91,64
5,72,95,48
5,83,103,16
5,84,107,0
5,62,75,0
5,77,103,0
5,69,95,80
5,74,91,80
5,77,127,80
5,84,107,0
5,60,103,208
5,67,127,0
5,72,99,0
5,76,127,2
5,67,87,224
5,72,103,32
5,76,83,32
5,74,123,0
5,72,107,0
5,71,107,0
5,53,87,0
5,69,127,16
5,60,99,96
5,65,91,80
5,71,123,16
5,72,103,0
5,52,91,16
5,67,127,16
5,55,83,64
5,60,95,48
5,71,127,32
5,72,127,16
5,50,95,16
5,65,123,0
5,57,95,96
5,62,103,32
5,65,127,96
5,72,127,0
5,48,103,240
5,55,127,0
5,60,127,0
5,64,127,2
5,48,127,448
5,60,127,0
5,64,127,0
5,55,127,2
5,47,127,0
5,59,127,2
5,45,127,18
5,57,127,0
5,60,127,0
5,64,127,0
5,57,103,16
5,64,107,16
5,62,103,16
5,40,83,80
5,52,31,16
5,56,83,48
5,64,91,16
5,59,107,16
5,59,127,0
5,65,91,0
5,52,63,48
5,56,71,96
5,59,95,48
5,64,99,0
5,57,91,16
5,59,123,0
5,62,103,0
5,45,91,48
5,57,91,0
5,64,123,80
5,60,127,32
5,57,115,2
5,45,75,32
5,45,87,0
5,59,91,16
5,55,103,32
5,60,127,0
5,64,123,16
5,43,75,64
5,43,79,64
5,64,3,16
5,55,95,82
5,41,95,32
5,57,127,0
5,48,91,96
5,53,87,64
5,59,107,32
5,60,127,0
5,55,115,0
5,40,79,16
5,48,79,96
5,52,79,80
5,59,115,64
5,60,127,16
5,38,87,16
5,53,127,0
5,50,71,96
5,53,87,16
5,57,127,96
5,60,127,16
5,50,67,32
5,43,91,160
5,59,123,0
5,55,103,2
5,62,127,0
5,43,75,32
5,43,87,48
5,55,123,16
5,59,127,0
5,57,115,32
5,60,127,0
5,55,103,32
5,59,127,0
5,62,127,0
5,43,103,16
5,45,115,16
5,60,127,0
5,64,127,0
5,57,127,2
5,57,107,0
5,64,123,80
5,62,107,32
5,40,75,48
5,56,79,16
5,64,99,32
5,59,83,16
5,59,115,48
5,65,99,0
5,52,71,16
5,56,79,80
5,64,87,16
5,59,103,16
5,59,83,32
5,56,91,16
5,62,95,0
5,45,91,16
5,57,103,112
5,64,127,80
5,60,95,16
5,57,115,32
5,60,127,0
5,45,83,64
5,59,99,48
5,55,95,48
5,60,115,0
5,64,123,0
