track,note,velocity,time
2,28,127,480
2,28,0,303
2,30,127,0
2,30,0,57
2,32,122,0
2,32,0,63
2,35,127,0
2,35,0,360
2,37,122,0
2,37,0,57
2,39,104,0
2,39,0,63
2,37,127,0
2,37,0,360
2,39,110,0
2,39,0,57
2,40,127,0
2,40,0,63
2,33,127,0
2,33,0,360
2,39,110,0
2,39,0,57
2,40,122,0
2,40,0,63
2,28,127,0
2,28,0,360
2,30,127,0
2,30,0,57
2,32,127,0
2,32,0,63
2,35,127,0
2,35,0,360
2,37,127,0
2,37,0,57
2,39,110,0
2,39,0,63
2,32,127,0
2,32,0,360
2,44,122,0
2,44,0,57
2,32,127,0
2,32,0,63
2,33,127,0
2,33,0,417
2,39,110,0
2,39,0,63
2,40,127,0
2,40,0,57
2,28,127,0
2,28,0,303
2,30,127,0
2,30,0,57
2,32,122,0
2,32,0,63
2,35,127,0
2,35,0,360
2,37,122,0
2,37,0,57
2,39,104,0
2,39,0,63
2,37,127,0
2,37,0,360
2,39,110,0
2,39,0,57
2,40,127,0
2,40,0,63
2,33,127,0
2,33,0,360
2,39,110,0
2,39,0,57
2,40,122,0
2,40,0,63
2,28,127,0
2,28,0,360
2,30,127,0
2,30,0,57
2,32,127,0
2,32,0,63
2,35,127,0
2,35,0,360
2,37,127,0
2,37,0,57
2,39,110,0
2,39,0,63
2,32,127,0
2,32,0,360
2,44,122,0
2,44,0,57
2,32,127,0
2,32,0,63
2,33,127,0
2,33,0,417
2,39,110,0
2,39,0,63
2,40,127,0
2,40,0,57
2,28,127,0
2,28,0,303
2,30,127,0
2,30,0,57
2,32,122,0
2,32,0,63
2,35,127,0
2,35,0,360
2,37,122,0
2,37,0,57
2,39,104,0
2,39,0,63
2,37,127,0
2,37,0,360
2,39,110,0
2,39,0,57
2,40,127,0
2,40,0,63
2,33,127,0
2,33,0,360
2,39,110,0
2,39,0,57
2,40,122,0
2,40,0,63
2,28,127,0
2,28,0,360
2,30,127,0
2,30,0,57
2,32,127,0
2,32,0,63
2,35,127,0
2,35,0,360
2,37,127,0
2,37,0,57
2,39,110,0
2,39,0,63
2,32,127,0
2,32,0,360
2,44,122,0
2,44,0,57
2,32,127,0
2,32,0,63
2,33,127,0
2,33,0,417
2,39,110,0
2,39,0,63
2,40,127,0
2,40,0,57
2,28,127,0
2,28,0,303
2,30,127,0
2,30,0,57
2,32,122,0
2,32,0,63
2,35,127,0
2,35,0,360
2,37,122,0
2,37,0,57
2,39,104,0
2,39,0,63
2,37,127,0
2,37,0,360
2,39,110,0
2,39,0,57
2,40,127,0
2,40,0,63
2,33,127,0
2,33,0,360
2,39,110,0
2,39,0,57
2,40,122,0
2,40,0,63
2,28,127,0
2,28,0,360
2,30,127,0
2,30,0,57
2,32,127,0
2,32,0,63
2,35,127,0
2,35,0,360
2,37,127,0
2,37,0,57
2,39,110,0
2,39,0,63
2,32,127,0
2,32,0,360
2,44,122,0
2,44,0,57
2,32,127,0
2,32,0,63
2,33,127,0
2,33,0,417
2,39,110,0
2,39,0,63
2,40,127,0
2,40,0,57
2,28,127,0
2,28,0,303
2,30,127,0
2,30,0,57
2,32,122,0
2,32,0,63
2,35,127,0
2,35,0,360
2,37,122,0
2,37,0,57
2,39,104,0
2,39,0,63
2,37,127,0
2,37,0,360
2,39,110,0
2,39,0,57
2,40,127,0
2,40,0,63
2,33,127,0
2,33,0,360
2,39,110,0
2,39,0,57
2,40,122,0
2,40,0,63
2,28,127,0
2,28,0,360
2,30,127,0
2,30,0,57
2,32,127,0
2,32,0,63
2,35,127,0
2,35,0,360
2,37,127,0
2,37,0,57
2,39,110,0
2,39,0,56
2,37,104,4
2,37,0,59
2,32,127,1
2,32,0,29
2,32,117,31
2,32,0,29
2,32,122,31
2,32,0,29
2,32,117,31
2,32,0,29
2,32,117,31
2,32,0,29
2,32,117,31
2,32,0,29
2,32,117,31
2,32,0,29
2,32,122,31
2,32,0,29
2,33,122,31
2,33,0,29
2,33,122,31
2,33,0,29
2,33,122,31
2,33,0,29
2,33,122,31
2,33,0,29
2,33,127,31
2,33,0,59
2,33,127,1
2,33,0,59
2,33,127,1
2,33,0,59
2,33,127,1
2,33,0,59
2,33,122,1
2,33,0,63
2,33,113,0
2,33,0,57
2,33,127,0
2,33,0,63
2,33,117,0
2,33,0,57
2,33,122,0
2,33,0,63
2,33,113,0
2,33,0,57
2,33,117,0
2,33,0,63
2,33,108,0
2,33,0,57
2,33,122,0
2,33,0,63
2,33,127,0
2,33,0,57
2,42,127,0
2,42,0,63
2,44,127,57
2,44,0,63
2,42,127,0
2,42,0,57
2,40,127,0
2,40,0,63
2,37,127,0
2,37,0,57
2,28,122,0
2,28,0,63
2,28,117,0
2,28,0,57
2,28,122,0
2,28,0,63
2,28,108,0
2,28,0,57
2,28,122,0
2,28,0,63
2,28,113,0
2,28,0,57
2,28,122,0
2,28,0,63
2,28,117,0
2,28,0,57
2,28,122,0
2,28,0,63
2,40,117,0
2,40,0,57
2,39,87,0
2,39,0,63
2,40,117,57
2,40,0,63
2,28,108,0
2,28,0,57
2,35,122,0
2,35,0,63
2,40,127,0
2,40,0,57
2,33,122,0
2,33,0,63
2,33,113,0
2,33,0,57
2,33,127,0
2,33,0,63
2,33,117,0
2,33,0,57
2,33,122,0
2,33,0,63
2,33,113,0
2,33,0,57
2,33,117,0
2,33,0,63
2,33,108,0
2,33,0,57
2,33,122,0
2,33,0,63
2,33,127,0
2,33,0,57
2,42,127,0
2,42,0,63
2,44,127,57
2,44,0,63
2,42,127,0
2,42,0,57
2,40,127,0
2,40,0,63
2,37,127,0
2,37,0,57
2,28,122,0
2,28,0,63
2,28,117,0
2,28,0,57
2,28,122,0
2,28,0,63
2,28,108,0
2,28,0,57
2,28,122,0
2,28,0,63
2,28,113,0
2,28,0,57
2,28,122,0
2,28,0,63
2,28,117,0
2,28,0,57
2,28,122,0
2,28,0,63
2,40,117,0
2,40,0,57
2,39,87,0
2,39,0,63
2,40,117,57
2,40,0,63
2,28,108,0
2,28,0,57
2,35,122,0
2,35,0,63
2,40,127,0
2,40,0,57
2,33,122,0
2,33,0,63
2,33,113,0
2,33,0,57
2,33,127,0
2,33,0,63
2,33,117,0
2,33,0,57
2,33,122,0
2,33,0,63
2,33,113,0
2,33,0,57
2,33,117,0
2,33,0,63
2,33,108,0
2,33,0,57
2,33,122,0
2,33,0,63
2,33,127,0
2,33,0,57
2,42,127,0
2,42,0,63
2,44,127,57
2,44,0,63
2,42,127,0
2,42,0,57
2,40,127,0
2,40,0,63
2,37,127,0
2,37,0,57
2,28,122,0
2,28,0,63
2,28,117,0
2,28,0,57
2,28,122,0
2,28,0,63
2,28,108,0
2,28,0,57
2,28,122,0
2,28,0,63
2,28,113,0
2,28,0,57
2,28,122,0
2,28,0,63
2,28,117,0
2,28,0,57
2,28,122,0
2,28,0,63
2,40,117,0
2,40,0,57
2,39,87,0
2,39,0,63
2,40,117,57
2,40,0,63
2,28,108,0
2,28,0,57
2,35,122,0
2,35,0,63
2,40,127,0
2,40,0,57
2,33,122,0
2,33,0,63
2,33,113,0
2,33,0,57
2,33,127,0
2,33,0,63
2,33,117,0
2,33,0,57
2,33,122,0
2,33,0,63
2,33,113,0
2,33,0,57
2,33,117,0
2,33,0,63
2,33,108,0
2,33,0,57
2,33,122,0
2,33,0,63
2,33,127,0
2,33,0,57
2,42,127,0
2,42,0,63
2,44,127,57
2,44,0,63
2,42,127,0
2,42,0,57
2,40,127,0
2,40,0,63
2,37,127,0
2,37,0,57
2,35,127,0
2,28,127,176
2,35,0,7
2,35,127,294
2,28,0,7
2,28,127,114
2,35,0,2
2,33,127,57
2,28,0,6
2,33,0,294
2,28,127,3
2,28,0,303
2,30,127,0
2,30,0,57
2,32,122,0
2,32,0,63
2,35,127,0
2,35,0,360
2,37,122,0
2,37,0,57
2,39,104,0
2,39,0,63
2,37,127,0
2,37,0,360
2,39,110,0
2,39,0,57
2,40,127,0
2,40,0,63
2,33,127,0
2,33,0,360
2,39,110,0
2,39,0,57
2,40,122,0
2,40,0,63
2,28,127,0
2,28,0,360
2,30,127,0
2,30,0,57
2,32,127,0
2,32,0,63
2,35,127,0
2,35,0,360
2,37,127,0
2,37,0,57
2,39,110,0
2,39,0,63
2,32,127,0
2,32,0,360
2,44,122,0
2,44,0,57
2,32,127,0
2,32,0,63
2,33,127,0
2,33,0,417
2,39,110,0
2,39,0,63
2,40,127,0
2,40,0,57
2,28,127,0
2,28,0,303
2,30,127,0
2,30,0,57
2,32,122,0
2,32,0,63
2,35,127,0
2,35,0,360
2,37,122,0
2,37,0,57
2,39,104,0
2,39,0,63
2,37,127,0
2,37,0,360
2,39,110,0
2,39,0,57
2,40,127,0
2,40,0,63
2,33,127,0
2,33,0,360
2,39,110,0
2,39,0,57
2,40,122,0
2,40,0,63
2,28,127,0
2,28,0,360
2,30,127,0
2,30,0,57
2,32,127,0
2,32,0,63
2,35,127,0
2,35,0,360
2,37,127,0
2,37,0,57
2,39,110,0
2,39,0,63
2,32,127,0
2,32,0,360
2,44,122,0
2,44,0,57
2,32,127,0
2,32,0,63
2,33,127,0
2,33,0,417
2,39,110,0
2,39,0,63
2,40,127,0
2,40,0,57
2,28,127,0
2,28,0,303
2,30,127,0
2,30,0,57
2,32,122,0
2,32,0,63
2,35,127,0
2,35,0,360
2,37,122,0
2,37,0,57
2,39,104,0
2,39,0,63
2,37,127,0
2,37,0,360
2,39,110,0
2,39,0,57
2,40,127,0
2,40,0,63
2,33,127,0
2,33,0,360
2,39,110,0
2,39,0,57
2,40,122,0
2,40,0,63
2,28,127,0
2,28,0,360
2,30,127,0
2,32,127,57
2,30,0,1
2,32,0,62
2,35,127,0
2,35,0,360
2,37,127,0
2,37,0,57
2,39,110,0
2,39,0,63
2,32,127,0
2,32,0,50
2,32,127,7
2,32,0,28
2,32,117,32
2,32,0,28
2,32,122,32
2,32,0,28
2,32,117,32
2,32,0,28
2,32,117,32
2,32,0,28
2,32,117,32
2,32,0,28
2,32,117,32
2,32,0,28
2,32,122,32
2,32,0,28
2,33,122,32
2,33,0,29
2,33,122,31
2,33,0,29
2,33,122,31
2,33,0,29
2,33,122,31
2,33,0,29
2,33,127,31
2,33,0,59
2,33,127,1
2,33,0,59
2,33,127,1
2,33,0,59
2,33,127,1
2,33,0,59
2,33,122,1
2,33,0,63
2,33,113,0
2,33,0,57
2,33,127,0
2,33,0,63
2,33,117,0
2,33,0,57
2,33,122,0
2,33,0,63
2,33,113,0
2,33,0,57
2,33,117,0
2,33,0,63
2,33,108,0
2,33,0,57
2,33,122,0
2,33,0,63
2,33,127,0
2,33,0,57
2,42,127,0
2,42,0,63
2,44,127,57
2,44,0,63
2,42,127,0
2,42,0,57
2,40,127,0
2,40,0,63
2,37,127,0
2,37,0,57
2,28,122,0
2,28,0,63
2,28,117,0
2,28,0,57
2,28,122,0
2,28,0,63
2,28,108,0
2,28,0,57
2,28,122,0
2,28,0,63
2,28,113,0
2,28,0,57
2,28,122,0
2,28,0,63
2,28,117,0
2,28,0,57
2,28,122,0
2,28,0,63
2,40,117,0
2,40,0,57
2,39,87,0
2,39,0,63
2,40,117,57
2,40,0,63
2,28,108,0
2,28,0,57
2,35,122,0
2,35,0,63
2,40,127,0
2,40,0,57
2,33,122,0
2,33,0,63
2,33,113,0
2,33,0,57
2,33,127,0
2,33,0,63
2,33,117,0
2,33,0,57
2,33,122,0
2,33,0,63
2,33,113,0
2,33,0,57
2,33,117,0
2,33,0,63
2,33,108,0
2,33,0,57
2,33,122,0
2,33,0,63
2,33,127,0
2,33,0,57
2,42,127,0
2,42,0,63
2,44,127,57
2,44,0,63
2,42,127,0
2,42,0,57
2,40,127,0
2,40,0,63
2,37,127,0
2,37,0,57
2,28,122,0
2,28,0,63
2,28,117,0
2,28,0,57
2,28,122,0
2,28,0,63
2,28,108,0
2,28,0,57
2,28,122,0
2,28,0,63
2,28,113,0
2,28,0,57
2,28,122,0
2,28,0,63
2,28,117,0
2,28,0,57
2,28,122,0
2,28,0,63
2,40,117,0
2,40,0,57
2,39,87,0
2,39,0,63
2,40,117,57
2,40,0,63
2,28,108,0
2,28,0,57
2,35,122,0
2,35,0,63
2,40,127,0
2,40,0,57
2,33,122,0
2,33,0,63
2,33,113,0
2,33,0,57
2,33,127,0
2,33,0,63
2,33,117,0
2,33,0,57
2,33,122,0
2,33,0,63
2,33,113,0
2,33,0,57
2,33,117,0
2,33,0,63
2,33,108,0
2,33,0,57
2,33,122,0
2,33,0,63
2,33,127,0
2,33,0,57
2,42,127,0
2,42,0,63
2,44,127,57
2,44,0,63
2,42,127,0
2,42,0,57
2,40,127,0
2,40,0,63
2,37,127,0
2,37,0,57
2,28,122,0
2,28,0,63
2,28,117,0
2,28,0,57
2,28,122,0
2,28,0,63
2,28,108,0
2,28,0,57
2,28,122,0
2,28,0,63
2,28,113,0
2,28,0,57
2,28,122,0
2,28,0,63
2,28,117,0
2,28,0,57
2,28,122,0
2,28,0,63
2,40,117,0
2,40,0,57
2,39,87,0
2,39,0,63
2,40,117,57
2,40,0,63
2,28,108,0
2,28,0,57
2,35,122,0
2,35,0,63
2,40,127,0
2,40,0,57
2,33,122,0
2,33,0,63
2,33,113,0
2,33,0,57
2,33,127,0
2,33,0,63
2,33,117,0
2,33,0,57
2,33,122,0
2,33,0,63
2,33,113,0
2,33,0,57
2,33,117,0
2,33,0,63
2,33,108,0
2,33,0,57
2,33,122,0
2,33,0,63
2,33,127,0
2,33,0,57
2,42,127,0
2,42,0,63
2,44,127,57
2,44,0,63
2,42,127,0
2,42,0,57
2,40,127,0
2,40,0,63
2,37,127,0
2,37,0,57
2,35,127,0
2,28,127,176
2,35,0,7
2,35,127,294
2,28,0,7
2,28,127,114
2,35,0,2
2,33,127,57
2,28,0,6
2,33,0,294
2,28,127,3
2,28,0,303
2,30,127,0
2,30,0,57
2,32,122,0
2,32,0,63
2,35,127,0
2,35,0,360
2,37,122,0
2,37,0,57
2,39,104,0
2,39,0,63
2,37,127,0
2,37,0,360
2,39,110,0
2,39,0,57
2,40,127,0
2,40,0,63
2,33,127,0
2,33,0,360
2,39,110,0
2,39,0,57
2,40,122,0
2,40,0,63
2,28,127,0
2,28,0,360
2,30,127,0
2,30,0,57
2,32,127,0
2,32,0,63
2,35,127,0
2,35,0,360
2,37,127,0
2,37,0,57
2,39,110,0
2,39,0,63
2,32,127,0
2,32,0,360
2,44,122,0
2,44,0,57
2,32,127,0
2,32,0,63
2,33,127,0
2,33,0,417
2,39,110,0
2,39,0,63
2,40,127,0
2,40,0,57
2,28,127,0
2,28,0,303
2,30,127,0
2,30,0,57
2,32,122,0
2,32,0,63
2,35,127,0
2,35,0,360
2,37,122,0
2,37,0,57
2,39,104,0
2,39,0,63
2,37,127,0
2,37,0,360
2,39,110,0
2,39,0,57
2,40,127,0
2,40,0,63
2,33,127,0
2,33,0,360
2,39,110,0
2,39,0,57
2,40,122,0
2,40,0,63
2,28,127,0
2,28,0,360
2,30,127,0
2,30,0,57
2,32,127,0
2,32,0,63
2,35,127,0
2,35,0,360
2,37,127,0
2,37,0,57
2,39,110,0
2,39,0,63
2,32,127,0
2,32,0,360
2,44,122,0
2,44,0,57
2,32,127,0
2,32,0,63
2,33,127,0
2,33,0,417
2,39,110,0
2,39,0,63
2,40,127,0
2,40,0,57
2,28,127,0
2,28,0,303
2,30,127,0
2,30,0,57
2,32,122,0
2,32,0,63
2,35,127,0
2,35,0,360
2,37,122,0
2,37,0,57
2,39,104,0
2,39,0,63
2,37,127,0
2,37,0,360
2,39,110,0
2,39,0,57
2,40,127,0
2,40,0,63
2,33,127,0
2,33,0,360
2,39,110,0
2,39,0,57
2,40,122,0
2,40,0,63
2,28,127,0
2,28,0,360
2,30,127,0
2,30,0,57
2,32,127,0
2,32,0,63
2,35,127,0
2,35,0,360
2,37,127,0
2,37,0,57
2,39,110,0
2,39,0,63
