track,note,velocity,time
3,71,64,294
3,71,0,48
3,75,64,0
3,75,0,24
3,75,64,0
3,75,0,1
3,71,64,239
3,71,0,32
3,71,64,16
3,71,0,32
3,75,64,16
3,75,0,2
3,76,64,0
3,76,0,48
3,75,64,24
3,75,0,48
3,71,64,24
3,71,0,96
3,76,64,0
3,76,0,32
3,76,64,16
3,76,0,16
3,76,64,8
3,76,0,32
3,80,64,16
3,80,0,16
3,80,64,8
3,80,0,64
3,71,64,32
3,71,0,32
3,71,64,16
3,71,0,32
3,71,64,16
3,71,0,8
3,75,64,6
3,75,0,128
3,71,64,288
3,71,0,48
3,75,64,0
3,75,0,12
3,75,64,0
3,75,0,192
3,71,64,128
3,71,0,32
3,75,64,0
3,75,0,6
3,76,64,0
3,76,0,72
3,75,64,0
3,75,0,72
3,71,64,0
3,71,0,144
3,76,64,12
3,76,0,42
3,76,64,0
3,76,0,24
3,76,64,0
3,76,0,48
3,80,64,0
3,80,0,48
3,80,64,0
3,80,0,72
3,71,64,0
3,71,0,48
3,71,64,0
3,71,0,48
3,76,64,0
3,76,0,18
3,75,64,0
3,75,0,144
3,73,64,0
3,73,0,144
3,71,64,0
3,71,0,6
3,80,64,0
3,80,0,48
3,80,64,0
3,80,0,24
3,80,64,0
3,80,0,24
3,80,64,0
3,80,0,48
3,80,64,0
3,80,0,24
3,80,64,0
3,80,0,48
3,80,64,0
3,80,0,48
3,80,64,0
3,80,0,24
3,80,64,0
3,80,0,48
3,78,64,0
3,78,0,24
3,78,64,0
3,78,0,30
3,78,64,0
3,78,0,72
3,80,64,42
3,80,0,48
3,80,64,0
3,80,0,48
3,80,64,0
3,80,0,24
3,80,64,0
3,80,0,48
3,80,64,0
3,80,0,24
3,80,64,0
3,80,0,48
3,80,64,0
3,80,0,48
3,78,64,0
3,78,0,24
3,78,64,0
3,78,0,96
3,71,64,6
3,71,0,16
3,80,64,6
3,80,0,32
3,80,64,16
3,80,0,16
3,80,64,8
3,80,0,16
3,80,64,8
3,80,0,32
3,80,64,16
3,80,0,16
3,80,64,8
3,80,0,32
3,80,64,16
3,80,0,32
3,80,64,16
3,80,0,32
3,78,64,16
3,78,0,16
3,78,64,8
3,78,0,16
3,78,64,8
3,78,0,10
3,78,64,0
3,78,0,32
3,71,64,16
3,71,0,16
3,71,64,8
3,71,0,80
3,75,64,184
3,75,0,8
3,73,64,0
3,73,0,96
3,75,64,48
3,75,0,16
3,78,64,8
3,78,0,112
3,75,64,56
3,75,0,2
3,73,64,0
3,73,0,64
3,73,64,256
3,73,0,21
3,75,64,11
3,75,0,7
3,76,64,6
3,76,0,48
3,75,64,24
3,75,0,48
3,73,64,24
3,73,0,64
3,71,64,32
3,71,0,96
3,68,64,294
3,68,0,48
3,71,64,0
3,71,0,24
3,71,64,0
3,71,0,96
3,80,64,288
3,80,0,48
3,78,64,0
3,78,0,18
3,75,64,0
3,75,0,64
3,71,64,176
3,71,0,32
3,71,64,16
3,71,0,32
3,75,64,16
3,75,0,2
3,76,64,6
3,76,0,48
3,75,64,24
3,75,0,48
3,71,64,24
3,71,0,96
3,76,64,12
3,76,0,26
3,76,64,16
3,76,0,16
3,76,64,8
3,76,0,32
3,80,64,16
3,80,0,16
3,80,64,8
3,80,0,64
3,71,64,32
3,71,0,32
3,71,64,16
3,71,0,32
3,71,64,16
3,71,0,32
3,75,64,6
3,75,0,122
3,71,64,282
3,71,0,48
3,75,64,0
3,75,0,12
3,75,64,0
3,75,0,192
3,71,64,128
3,71,0,32
3,75,64,0
3,75,0,6
3,76,64,0
3,76,0,72
3,75,64,0
3,75,0,72
3,71,64,0
3,71,0,144
3,76,64,0
3,76,0,48
3,76,64,0
3,76,0,24
3,76,64,0
3,76,0,48
3,80,64,0
3,80,0,48
3,80,64,0
3,80,0,72
3,71,64,0
3,71,0,48
3,71,64,0
3,71,0,48
3,76,64,0
3,76,0,6
3,75,64,0
3,75,0,144
3,73,64,0
3,73,0,144
3,71,64,6
3,71,0,6
3,80,64,0
3,80,0,48
3,80,64,0
3,80,0,24
3,80,64,0
3,80,0,24
3,80,64,0
3,80,0,48
3,80,64,0
3,80,0,24
3,80,64,0
3,80,0,48
3,80,64,0
3,80,0,48
3,80,64,0
3,80,0,24
3,80,64,0
3,80,0,48
3,78,64,0
3,78,0,6
3,78,64,0
3,78,0,30
3,78,64,0
3,78,0,72
3,80,64,48
3,80,0,48
3,80,64,0
3,80,0,48
3,80,64,0
3,80,0,24
3,80,64,0
3,80,0,48
3,80,64,0
3,80,0,24
3,80,64,0
3,80,0,48
3,80,64,0
3,80,0,48
3,78,64,0
3,78,0,24
3,78,64,0
3,78,0,96
3,71,64,6
3,71,0,16
3,80,64,0
3,80,0,32
3,80,64,16
3,80,0,16
3,80,64,8
3,80,0,16
3,80,64,8
3,80,0,32
3,80,64,16
3,80,0,16
3,80,64,8
3,80,0,32
3,80,64,16
3,80,0,32
3,80,64,16
3,80,0,32
3,78,64,16
3,78,0,16
3,78,64,8
3,78,0,16
3,78,64,0
3,78,0,16
3,78,64,0
3,78,0,32
3,71,64,16
3,71,0,16
3,71,64,8
3,71,0,80
3,75,64,184
3,75,0,14
3,73,64,16
3,73,0,90
3,75,64,48
3,75,0,16
3,78,64,8
3,78,0,112
3,75,64,56
3,75,0,2
3,73,64,0
3,73,0,64
3,73,64,256
3,73,0,21
3,75,64,11
3,75,0,7
3,76,64,0
3,76,0,48
3,75,64,24
3,75,0,48
3,73,64,24
3,73,0,64
3,71,64,32
3,71,0,96
3,68,64,294
3,68,0,48
3,71,64,0
3,71,0,24
3,71,64,0
3,71,0,96
3,75,64,54
3,75,0,72
3,73,64,0
3,73,0,72
3,76,64,0
3,76,0,72
3,75,64,0
3,75,0,12
3,75,64,48
3,75,0,72
3,73,64,0
3,73,0,72
3,76,64,0
3,76,0,72
3,75,64,0
3,75,0,72
3,71,64,0
3,71,0,48
3,75,64,42
3,75,0,72
3,73,64,0
3,73,0,72
3,76,64,0
3,76,0,72
3,75,64,0
3,75,0,72
3,71,64,0
3,71,0,18
3,80,64,0
3,80,0,288
3,78,64,0
3,78,0,6
3,75,64,48
3,75,0,72
3,73,64,0
3,73,0,72
3,76,64,0
3,76,0,72
3,75,64,0
3,75,0,12
3,75,64,42
3,75,0,72
3,73,64,0
3,73,0,72
3,76,64,0
3,76,0,72
3,75,64,0
3,75,0,72
3,71,64,0
3,71,0,12
3,75,64,42
3,75,0,72
3,73,64,0
3,73,0,72
3,76,64,0
3,76,0,72
3,75,64,0
3,75,0,72
3,71,64,0
3,71,0,18
3,80,64,0
3,80,0,288
3,78,64,0
3,78,0,18
3,75,64,48
3,75,0,72
3,73,64,0
3,73,0,72
3,76,64,0
3,76,0,72
3,75,64,0
3,75,0,18
3,75,64,48
3,75,0,72
3,73,64,0
3,73,0,72
3,76,64,0
3,76,0,72
3,75,64,0
3,75,0,72
3,71,64,0
3,71,0,6
3,75,64,42
3,75,0,72
3,73,64,0
3,73,0,72
3,76,64,0
3,76,0,72
3,75,64,0
3,75,0,72
3,71,64,0
3,71,0,6
3,80,64,0
3,80,0,288
3,78,64,0
3,78,0,24
3,75,64,48
3,75,0,72
3,73,64,0
3,73,0,72
3,76,64,0
3,76,0,72
3,75,64,0
3,75,0,12
3,75,64,42
3,75,0,72
3,73,64,0
3,73,0,72
3,76,64,0
3,76,0,72
3,75,64,0
3,75,0,72
3,71,64,0
3,71,0,12
3,75,64,42
3,75,0,72
3,73,64,0
3,73,0,72
3,76,64,0
3,76,0,72
3,75,64,0
3,75,0,72
3,71,64,0
3,71,0,30
4,35,64,0
4,47,64,0
4,59,64,48
4,63,64,0
4,47,0,42
4,35,0,0
4,54,64,0
4,59,0,24
4,63,0,0
4,61,64,0
4,54,0,48
4,47,64,0
4,47,0,24
4,61,0,0
4,47,64,0
4,64,64,0
4,59,64,0
4,59,0,72
4,64,0,0
4,63,64,0
4,59,64,0
4,47,0,24
4,35,64,0
4,47,64,0
4,59,0,24
4,63,0,0
4,54,64,0
4,54,0,24
4,61,64,0
4,61,0,24
4,63,64,0
4,63,0,18
4,35,0,0
4,47,0,0
4,32,64,0
4,44,64,0
4,59,64,48
4,63,64,0
4,44,0,48
4,32,0,0
4,44,64,0
4,59,0,24
4,63,0,0
4,61,64,0
4,44,0,48
4,32,64,0
4,32,0,24
4,61,0,0
4,32,64,0
4,59,64,0
4,64,64,0
4,64,0,72
4,59,0,0
4,63,64,0
4,59,64,0
4,32,0,24
4,44,64,0
4,59,0,24
4,63,0,0
4,59,64,0
4,59,0,24
4,61,64,0
4,61,0,24
4,63,64,0
4,63,0,12
4,44,0,0
4,30,64,0
4,42,64,0
4,59,64,48
4,63,64,0
4,42,0,48
4,30,0,0
4,42,64,0
4,59,0,24
4,63,0,0
4,61,64,0
4,42,0,48
4,30,64,0
4,30,0,24
4,61,0,0
4,30,64,0
4,64,64,0
4,59,64,0
4,59,0,72
4,64,0,0
4,63,64,0
4,30,0,24
4,42,64,0
4,63,0,24
4,59,64,0
4,59,0,6
4,42,0,0
4,40,64,0
4,28,64,0
4,56,64,0
4,52,64,0
4,52,0,72
4,56,0,0
4,56,64,0
4,64,64,0
4,28,0,24
4,40,0,0
4,40,64,0
4,28,64,0
4,56,0,24
4,64,0,0
4,58,64,0
4,58,0,24
4,40,0,0
4,28,0,0
4,40,64,0
4,28,64,0
4,59,64,0
4,64,64,0
4,64,0,24
4,40,0,0
4,28,0,0
4,59,0,0
4,35,64,0
4,47,64,0
4,59,64,48
4,63,64,0
4,47,0,16
4,35,0,0
4,59,0,32
4,63,0,0
4,54,64,0
4,61,64,24
4,54,0,24
4,61,0,24
4,47,64,0
4,47,0,16
4,47,64,8
4,59,64,0
4,64,64,0
4,64,0,48
4,59,0,0
4,47,0,16
4,59,64,8
4,63,64,0
4,47,64,24
4,35,64,0
4,63,0,56
4,59,0,0
4,47,0,8
4,35,0,0
4,44,64,0
4,32,64,0
4,59,64,48
4,63,64,0
4,32,0,16
4,44,0,0
4,59,0,32
4,63,0,0
4,44,64,0
4,61,64,24
4,44,0,24
4,61,0,24
4,32,64,0
4,32,0,16
4,32,64,8
4,64,64,0
4,59,64,0
4,59,0,48
4,64,0,0
4,32,0,16
4,63,64,8
4,44,64,24
4,63,0,8
4,59,64,16
4,59,0,16
4,56,64,8
4,44,0,16
4,56,0,8
4,28,64,0
4,40,64,0
4,52,64,0
4,56,64,0
4,56,0,48
4,52,0,0
4,40,0,16
4,28,0,0
4,56,64,8
4,64,64,0
4,40,64,24
4,28,64,0
4,64,0,24
4,56,0,0
4,40,0,8
4,28,0,0
4,40,64,16
4,28,64,0
4,64,64,0
4,59,64,0
4,59,0,32
4,64,0,0
4,28,0,128
4,40,0,0
4,35,64,6
4,47,64,0
4,59,64,48
4,63,64,0
4,63,0,48
4,35,0,0
4,47,0,0
4,59,0,0
4,54,64,0
4,61,64,24
4,61,0,48
4,54,0,0
4,47,64,0
4,47,0,24
4,47,64,0
4,64,64,0
4,59,64,0
4,59,0,48
4,64,0,0
4,63,64,24
4,47,0,24
4,47,64,0
4,35,64,0
4,63,0,8
4,59,64,16
4,59,0,16
4,61,64,8
4,66,64,0
4,66,0,16
4,61,0,0
4,66,64,8
4,63,64,0
4,63,0,4
4,66,0,0
4,35,0,8
4,47,0,0
4,47,64,0
4,35,64,0
4,35,0,1
4,47,0,0
4,59,64,47
4,63,64,0
4,54,64,48
4,63,0,24
4,59,0,0
4,61,64,0
4,54,0,48
4,47,64,0
4,47,0,24
4,61,0,0
4,47,64,0
4,59,64,0
4,64,64,0
4,64,0,72
4,59,0,0
4,63,64,0
4,47,0,24
4,47,64,0
4,35,64,0
4,63,0,24
4,63,64,0
4,63,0,24
4,54,64,0
4,54,0,12
4,35,0,0
4,47,0,0
4,47,64,0
4,35,64,0
4,59,64,48
4,63,64,0
4,35,0,48
4,47,0,0
4,54,64,0
4,59,0,24
4,63,0,0
4,61,64,0
4,54,0,48
4,47,64,0
4,47,0,24
4,61,0,0
4,47,64,0
4,59,64,0
4,64,64,0
4,64,0,72
4,59,0,0
4,63,64,0
4,47,0,24
4,47,64,0
4,35,64,0
4,63,0,24
4,59,64,0
4,59,0,24
4,61,64,0
4,61,0,24
4,63,64,0
4,63,0,6
4,35,0,0
4,47,0,0
4,44,64,0
4,32,64,0
4,59,64,48
4,63,64,0
4,32,0,48
4,44,0,0
4,44,64,0
4,59,0,24
4,63,0,0
4,61,64,0
4,44,0,48
4,32,64,0
4,32,0,24
4,61,0,0
4,32,64,0
4,59,64,0
4,64,64,0
4,64,0,72
4,59,0,0
4,63,64,0
4,32,0,24
4,44,64,0
4,32,64,0
4,63,0,24
4,59,64,0
4,59,0,24
4,56,64,0
4,56,0,12
4,32,0,0
4,44,0,0
4,40,64,0
4,28,64,0
4,52,64,0
4,56,64,0
4,56,0,66
4,52,0,0
4,56,64,0
4,64,64,0
4,28,0,24
4,40,0,0
4,40,64,0
4,28,64,0
4,28,0,48
4,64,0,0
4,56,0,0
4,40,0,0
4,28,64,0
4,40,64,0
4,64,64,0
4,56,64,0
4,56,0,144
4,64,0,0
4,63,64,0
4,63,0,48
4,64,64,0
4,64,0,18
4,40,0,0
4,28,0,0
4,42,64,0
4,30,64,0
4,59,64,0
4,63,64,0
4,68,64,0
4,68,0,72
4,59,0,0
4,63,0,0
4,59,64,0
4,68,64,0
4,63,64,0
4,30,0,24
4,42,0,0
4,42,64,0
4,30,64,0
4,30,0,48
4,68,0,0
4,63,0,0
4,59,0,0
4,42,0,0
4,42,64,0
4,30,64,0
4,58,64,0
4,61,64,0
4,66,64,0
4,66,0,144
4,58,0,0
4,42,0,0
4,30,0,0
4,61,0,0
4,42,64,0
4,58,64,0
4,54,64,0
4,54,0,24
4,58,0,0
4,59,64,0
4,59,0,24
4,61,64,0
4,61,0,24
4,59,64,0
4,59,0,6
4,42,0,0
4,52,64,0
4,40,64,0
4,59,64,0
4,68,64,0
4,64,64,0
4,64,0,48
4,59,0,0
4,68,0,0
4,68,64,0
4,68,0,24
4,68,64,0
4,68,0,24
4,59,64,0
4,64,64,0
4,68,64,0
4,68,0,48
4,59,0,0
4,64,0,0
4,68,64,0
4,68,0,24
4,68,64,0
4,68,0,24
4,40,0,0
4,52,0,0
4,56,64,0
4,44,64,0
4,68,64,0
4,59,64,0
4,63,64,0
4,63,0,24
4,68,0,0
4,59,0,0
4,68,64,0
4,68,0,48
4,68,64,0
4,68,0,24
4,44,0,0
4,56,0,0
4,44,64,0
4,32,64,0
4,59,64,0
4,68,64,0
4,63,64,0
4,63,0,48
4,59,0,0
4,68,0,0
4,66,64,0
4,66,0,24
4,32,0,0
4,44,0,0
4,35,64,0
4,47,64,0
4,66,64,0
4,47,0,6
4,35,0,0
4,47,64,0
4,35,64,0
4,59,64,0
4,63,64,0
4,66,64,0
4,66,0,24
4,59,0,0
4,66,0,0
4,63,0,0
4,66,64,0
4,66,0,1
4,47,0,71
4,35,0,0
4,47,64,0
4,35,64,0
4,54,64,0
4,59,64,0
4,59,0,24
4,54,0,0
4,61,64,0
4,54,64,0
4,54,0,48
4,61,0,0
4,54,64,0
4,64,64,0
4,35,0,24
4,47,0,0
4,35,64,0
4,47,64,0
4,54,0,24
4,64,0,0
4,63,64,0
4,54,64,0
4,54,0,48
4,63,0,0
4,54,64,0
4,61,64,0
4,61,0,24
4,47,0,0
4,35,0,0
4,54,0,0
4,35,64,0
4,47,64,0
4,63,64,0
4,54,64,0
4,54,0,48
4,63,0,0
4,54,64,0
4,59,64,0
4,59,0,6
4,35,0,0
4,47,0,0
4,54,0,0
4,52,64,0
4,40,64,0
4,56,64,0
4,56,0,42
4,68,64,0
4,68,0,48
4,40,0,0
4,52,0,0
4,40,64,0
4,68,64,0
4,64,64,0
4,59,64,0
4,59,0,48
4,64,0,0
4,68,0,0
4,68,64,0
4,40,0,48
4,56,64,0
4,44,64,0
4,59,64,0
