track,note,velocity,time
1,89,97,373
1,89,0,251
1,89,97,31
1,89,0,365
1,84,97,19
1,91,97,96
1,84,0,5
1,91,0,190
1,84,97,4
1,93,97,89
1,84,0,7
1,93,0,450
1,96,97,23
1,96,0,281
1,94,97,9
1,94,0,188
1,93,97,5
1,93,0,184
1,89,97,5
1,91,97,192
1,89,0,11
1,91,0,82
1,93,97,3
1,91,97,92
1,93,0,19
1,91,0,403
1,89,97,62
1,89,0,244
1,89,97,47
1,89,0,380
1,84,97,1
1,91,97,100
1,84,0,5
1,84,97,184
1,91,0,5
1,93,97,86
1,84,0,6
1,93,0,397
1,96,97,81
1,91,97,99
1,87,97,100
1,91,0,48
1,87,0,48
1,94,97,5
1,96,0,11
1,89,97,183
1,86,97,121
1,94,0,90
1,94,97,154
1,89,0,10
1,86,0,5
1,89,97,110
1,86,97,145
1,94,0,14
1,89,0,5
1,93,97,145
1,86,0,10
1,93,0,611
1,62,97,3847
1,65,97,0
1,58,97,0
1,50,97,0
1,58,0,247
1,65,0,0
1,62,0,7
1,50,0,0
1,64,97,33
1,50,97,0
1,60,97,0
1,67,97,0
1,64,0,424
1,50,0,3
1,67,0,8
1,60,0,2
1,64,97,44
1,50,97,0
1,60,97,0
1,67,97,0
1,60,0,239
1,50,0,19
1,64,0,5
1,67,0,8
1,57,97,16
1,62,97,0
1,65,97,0
1,50,97,0
1,57,0,389
1,62,0,2
1,65,0,14
1,50,0,40
1,62,97,35
1,65,97,0
1,46,97,0
1,58,97,0
1,62,0,41
1,58,0,16
1,65,0,12
1,60,97,26
1,57,97,0
1,65,97,0
1,60,0,150
1,57,0,12
1,55,97,31
1,58,97,0
1,55,0,168
1,58,0,5
1,53,97,18
1,57,97,0
1,57,0,112
1,53,0,28
1,46,0,29
1,65,0,9
1,48,97,15
1,65,97,0
1,60,97,0
1,55,97,0
1,48,0,279
1,48,97,8
1,48,0,48
1,60,0,17
1,65,0,3
1,55,0,4
1,64,97,25
1,55,97,0
1,60,97,0
1,48,97,0
1,64,0,297
1,55,0,10
1,48,0,56
1,62,97,20
1,58,97,0
1,65,97,0
1,46,97,0
1,62,0,162
1,58,0,8
1,57,97,23
1,60,0,153
1,57,0,12
1,55,97,27
1,58,97,0
1,55,0,160
1,58,0,5
1,53,97,26
1,57,97,0
1,57,0,109
1,53,0,27
1,65,0,28
1,46,0,16
1,48,97,14
1,65,97,0
1,60,97,0
1,55,97,0
1,48,0,348
1,65,0,6
1,60,0,0
1,55,0,6
1,64,97,23
1,60,97,0
1,55,97,0
1,48,97,0
1,60,0,301
1,64,0,0
1,55,0,8
1,48,0,52
1,62,97,23
1,65,97,0
1,58,97,0
1,46,97,0
1,58,0,163
1,62,0,2
1,60,97,27
1,57,97,0
1,60,0,143
1,57,0,16
1,55,97,33
1,58,97,0
1,55,0,161
1,58,0,8
1,53,97,22
1,57,97,0
1,57,0,109
1,53,0,23
1,65,0,20
1,46,0,28
1,48,97,13
1,60,97,0
1,65,97,0
1,55,97,0
1,48,0,345
1,65,0,6
1,60,0,2
1,55,0,6
1,64,97,25
1,55,97,0
1,48,97,0
1,60,97,0
1,60,0,81
1,48,0,0
1,64,0,0
1,55,0,7
1,53,97,297
1,65,97,0
1,60,97,0
1,69,97,0
1,53,0,207
1,41,97,80
1,69,0,217
1,65,0,8
1,60,0,6
1,69,97,57
1,65,97,0
1,60,97,0
1,41,0,27
1,41,97,0
1,41,0,50
1,69,0,0
1,65,0,0
1,60,0,6
1,67,97,40
1,64,97,0
1,60,97,0
1,41,97,0
1,60,0,146
1,60,97,47
1,67,0,39
1,64,0,14
1,60,0,0
1,41,0,10
1,41,97,33
1,60,97,0
1,69,97,0
1,65,97,0
1,60,0,273
1,60,97,0
1,65,0,58
1,60,0,6
1,41,0,4
1,69,0,4
1,41,97,22
1,41,0,30
1,58,97,50
1,63,97,0
1,41,97,0
1,67,97,0
1,63,0,41
1,58,0,0
1,67,0,7
1,41,0,22
1,65,97,74
1,62,97,0
1,58,97,0
1,41,97,0
1,58,0,281
1,58,97,0
1,58,0,66
1,62,0,2
1,65,0,3
1,41,0,17
1,41,97,8
1,41,0,37
1,65,97,59
1,62,97,0
1,70,97,0
1,41,97,0
1,62,0,155
1,62,97,38
1,70,0,11
1,65,0,12
1,62,0,17
1,41,0,4
1,65,97,51
1,69,97,0
1,60,97,0
1,41,97,0
1,60,0,170
1,60,97,22
1,65,0,86
1,65,97,10
1,41,0,61
1,41,97,35
1,65,0,24
1,69,0,4
1,60,0,10
1,41,0,2
1,41,97,51
1,60,97,0
1,65,97,0
1,69,97,0
1,60,0,190
1,60,97,95
1,60,0,146
1,60,97,47
1,60,0,13
1,69,0,4
1,65,0,0
1,41,0,10
1,69,97,0
1,65,97,0
1,60,97,0
1,41,97,0
1,41,0,94
1,41,97,1
1,65,0,61
1,69,0,11
1,60,0,6
1,67,97,0
1,60,97,0
1,64,97,0
1,60,0,140
1,60,97,50
1,67,0,28
1,64,0,26
1,60,0,12
1,60,97,31
1,65,97,0
1,69,97,0
1,60,0,175
1,60,97,16
1,65,0,45
1,65,97,52
1,41,0,53
1,65,0,4
1,69,0,15
1,60,0,8
1,41,97,15
1,41,0,43
1,41,97,50
1,58,97,0
1,63,97,0
1,67,97,0
1,58,0,138
1,63,0,27
1,67,0,15
1,58,97,7
1,58,0,42
1,41,0,0
1,65,97,53
1,62,97,0
1,58,97,0
1,41,97,0
1,58,0,165
1,58,97,27
1,65,0,36
1,62,0,4
1,65,97,7
1,62,97,0
1,41,0,64
1,65,0,14
1,62,0,2
1,41,97,16
1,58,0,4
1,41,0,41
1,62,97,48
1,65,97,0
1,58,97,0
1,41,97,0
1,58,0,152
1,58,97,41
1,62,0,21
1,65,0,6
1,58,0,9
1,41,0,13
1,41,97,0
1,65,97,0
1,60,97,0
1,69,97,0
1,65,0,257
1,41,0,4
1,60,0,21
1,69,0,0
1,62,97,48
1,57,97,0
1,65,97,0
1,50,97,0
1,62,0,712
1,65,0,4
1,57,0,1
1,50,0,35
1,58,97,17
1,62,97,0
1,65,97,0
1,50,97,0
1,65,0,255
1,62,0,2
1,58,0,4
1,50,0,1
1,64,97,24
1,60,97,0
1,50,97,0
1,67,97,0
1,50,0,445
1,64,0,2
1,60,0,1
1,67,0,2
1,64,97,31
1,60,97,0
1,67,97,0
1,50,97,0
1,60,0,230
1,50,0,24
1,64,0,3
1,67,0,9
1,62,97,21
1,57,97,0
1,65,97,0
1,50,97,0
1,57,0,1169
1,65,0,2
1,62,0,12
1,50,0,18
1,57,97,48
1,50,97,0
1,62,97,0
1,65,97,0
1,57,0,701
1,65,0,10
1,62,0,16
1,50,0,0
1,50,97,40
1,53,97,0
1,58,97,0
1,62,97,0
1,58,0,225
1,53,0,20
1,50,0,13
1,62,0,8
1,50,97,22
1,64,97,0
1,55,97,0
1,60,97,0
1,55,0,401
1,60,0,29
1,50,0,3
1,64,0,2
1,60,97,46
1,67,97,0
1,50,97,0
1,64,97,0
1,60,0,243
1,64,0,12
1,67,0,3
1,50,0,2
1,50,97,27
1,65,97,0
1,57,97,0
1,62,97,0
1,57,0,380
1,65,0,7
1,62,0,2
1,50,0,23
1,46,97,69
1,58,97,0
1,65,97,0
1,62,97,0
1,62,0,174
1,58,0,7
1,65,0,2
1,60,97,8
1,57,97,0
1,65,97,0
1,60,0,142
1,57,0,10
1,58,97,41
1,55,97,0
1,55,0,161
1,58,0,4
1,53,97,25
1,57,97,0
1,57,0,115
1,53,0,26
1,65,0,18
1,46,0,28
1,48,97,6
1,65,97,0
1,60,97,0
1,55,97,0
1,60,0,336
1,48,0,4
1,65,0,2
1,55,0,8
1,55,97,36
1,60,97,0
1,48,97,0
1,64,97,0
1,60,0,18
1,55,0,4
1,64,0,0
1,48,0,64
1,62,97,48
1,58,97,0
1,46,97,0
1,65,97,0
1,62,0,163
1,58,0,9
1,60,97,20
1,57,97,0
1,60,0,151
1,57,0,13
1,58,97,31
1,55,97,0
1,55,0,159
1,58,0,0
1,53,97,30
1,57,97,0
1,57,0,117
1,53,0,21
1,65,0,20
1,46,0,16
1,65,97,19
1,48,97,0
1,55,97,0
1,60,97,0
1,65,0,339
1,48,0,8
1,60,0,0
1,55,0,2
1,48,97,35
1,60,97,0
1,64,97,0
1,55,97,0
1,60,0,275
1,64,0,8
1,55,0,3
1,48,0,14
1,62,97,82
1,58,97,0
1,65,97,0
1,46,97,0
1,62,0,154
1,58,0,8
1,60,97,29
1,57,97,0
1,60,0,165
1,57,0,14
1,55,97,15
1,58,97,0
1,55,0,150
1,58,0,3
1,53,97,37
1,57,97,0
1,57,0,119
1,53,0,24
1,65,0,14
1,46,0,28
1,55,97,9
1,60,97,0
1,65,97,0
1,48,97,0
1,60,0,339
1,48,0,2
1,65,0,4
1,55,0,4
1,48,97,35
1,60,97,0
1,64,97,0
1,55,97,0
1,48,0,89
1,60,0,4
1,64,0,3
1,55,0,4
1,60,97,283
1,65,97,0
1,53,97,0
1,69,97,0
1,60,0,464
1,60,97,15
1,60,0,65
1,69,0,0
1,65,0,4
1,65,97,29
1,69,97,0
1,60,97,0
1,53,0,46
1,53,97,48
1,65,0,63
1,69,0,4
1,53,0,2
1,60,0,4
1,64,97,24
1,53,97,0
1,60,97,0
1,67,97,0
1,60,0,154
1,60,97,39
1,67,0,35
1,64,0,6
1,53,0,14
1,60,0,0
1,65,97,39
1,60,97,0
1,53,97,0
1,69,97,0
1,60,0,265
1,65,0,0
1,69,0,8
1,60,97,16
1,65,97,0
1,69,97,0
1,53,0,44
1,65,0,22
1,60,0,8
1,69,0,10
1,53,97,14
1,53,0,34
1,58,97,48
1,67,97,0
1,53,97,0
1,63,97,0
1,58,0,143
1,53,0,25
1,63,0,5
1,67,0,12
1,58,97,6
1,58,0,32
1,65,97,0
1,62,97,0
1,58,97,0
1,53,97,98
1,58,0,31
1,58,97,18
1,53,0,34
1,62,0,58
1,53,97,4
1,58,0,5
1,65,0,1
1,53,0,32
1,65,97,47
1,62,97,0
1,58,97,0
1,53,97,0
1,58,0,138
1,58,97,48
1,62,0,16
1,65,0,3
1,58,0,20
1,53,0,20
1,57,97,0
1,60,97,0
1,53,97,0
1,65,97,0
1,57,0,169
1,57,97,22
1,60,0,82
1,60,97,0
1,53,0,60
1,53,97,36
1,57,0,12
1,60,0,2
1,65,0,2
1,53,0,23
1,65,97,57
1,60,97,0
1,69,97,0
1,53,97,0
1,60,0,158
1,60,97,35
1,53,0,46
1,53,97,49
1,53,0,39
1,53,97,59
1,60,0,5
1,60,97,43
1,65,0,31
1,69,0,8
1,60,0,14
1,60,97,44
1,65,97,0
1,69,97,0
1,53,0,46
1,53,97,0
1,69,0,60
1,60,0,5
1,65,0,0
1,53,0,0
1,64,97,31
1,60,97,0
1,67,97,0
1,53,97,0
1,60,0,151
1,60,97,41
1,64,0,51
1,67,0,3
1,60,0,6
1,53,0,4
1,65,97,32
1,53,97,0
1,69,97,0
1,60,97,0
1,60,0,167
1,60,97,26
1,65,0,48
1,69,0,40
1,60,0,8
1,65,97,0
1,69,97,0
1,60,97,0
1,53,0,52
1,65,0,10
1,69,0,2
1,60,0,12
1,53,97,20
1,53,0,45
1,67,97,51
1,53,97,0
1,63,97,0
1,58,97,0
1,58,0,146
1,58,97,47
1,67,0,9
1,63,0,13
1,58,0,31
1,53,0,4
1,62,97,38
1,53,97,0
1,65,97,0
1,58,97,0
1,62,0,254
1,62,97,34
1,62,0,54
1,58,0,0
1,65,0,0
1,53,0,0
1,53,97,42
1,53,0,34
1,53,97,62
1,62,97,0
1,70,97,0
1,65,97,0
1,62,0,129
1,62,97,48
1,70,0,16
1,65,0,14
1,53,0,16
1,62,0,0
1,65,97,50
1,60,97,0
1,69,97,0
1,53,97,0
1,53,0,46
1,53,97,52
1,60,0,63
1,60,97,31
1,65,0,34
1,65,97,63
1,53,0,29
1,53,97,0
1,65,0,30
1,69,0,0
1,60,0,12
1,53,0,2
1,69,97,52
1,65,97,0
1,60,97,0
1,53,97,0
1,60,0,142
1,60,97,0
1,65,0,37
1,69,0,21
1,69,97,0
1,65,97,0
1,53,0,34
1,53,97,64
1,60,0,32
1,60,97,49
1,69,0,21
1,65,0,4
1,60,0,29
1,65,97,41
1,69,97,0
1,60,97,0
1,53,0,42
1,53,97,0
1,65,0,33
1,60,0,9
1,69,0,2
1,53,0,4
1,64,97,48
1,53,97,0
1,60,97,0
1,67,97,0
1,60,0,63
1,60,97,33
1,64,0,40
1,64,97,49
1,67,0,24
1,60,0,4
1,53,0,16
1,64,0,0
1,53,97,50
1,65,97,0
1,60,97,0
1,69,97,0
1,53,0,44
1,53,97,55
1,60,0,50
1,60,97,43
1,65,0,60
1,69,0,4
1,60,0,5
1,60,97,29
1,69,97,0
1,65,97,0
1,53,0,41
1,65,0,8
1,69,0,2
1,60,0,0
1,53,97,44
1,53,0,26
1,62,97,0
1,70,97,0
1,65,97,0
1,58,97,0
1,62,0,133
1,62,97,58
1,58,0,32
1,58,97,0
1,58,0,34
1,58,97,65
1,62,0,40
1,62,97,53
1,65,0,18
1,70,0,6
1,62,0,33
1,70,97,40
1,65,97,0
1,62,97,0
1,58,0,46
1,65,0,42
1,70,0,3
1,58,97,5
1,62,0,21
1,58,0,11
1,55,97,0
1,67,97,0
1,70,97,0
1,62,97,0
1,62,0,6
1,62,97,42
1,55,0,10
1,62,0,41
1,70,0,7
1,67,0,8
1,64,97,0
1,60,97,0
1,67,97,0
1,72,97,0
1,64,0,164
1,64,97,28
1,72,0,63
1,67,0,2
1,64,0,13
1,64,97,18
1,72,97,0
1,67,97,0
1,60,0,26
1,72,0,22
1,67,0,4
1,64,0,4
1,65,97,137
1,60,97,0
1,53,97,0
1,69,97,0
1,60,0,154
1,60,97,38
1,53,0,29
1,53,97,67
1,53,0,33
1,53,97,64
1,60,0,26
1,60,97,68
1,69,0,20
1,65,0,0
1,60,0,32
1,69,97,43
1,65,97,0
1,60,97,0
1,53,0,41
1,53,97,56
1,69,0,52
1,65,0,0
1,53,0,2
1,60,0,8
1,53,97,34
1,64,97,0
1,67,97,0
1,60,97,0
1,60,0,159
1,60,97,33
1,64,0,54
1,53,0,7
1,67,0,0
1,60,0,0
1,69,97,36
1,65,97,0
1,53,97,0
1,60,97,0
1,53,0,48
1,53,97,49
1,60,0,52
1,60,97,43
1,69,0,44
1,65,0,4
1,60,0,9
1,69,97,34
1,65,97,0
1,60,97,0
1,53,0,37
1,65,0,19
1,69,0,6
1,60,0,16
1,53,97,19
1,53,0,38
1,63,97,48
1,60,97,0
1,53,97,0
1,68,97,0
1,68,0,28
1,63,0,17
1,60,0,8
1,53,0,28
1,53,97,0
1,63,97,0
1,58,97,0
1,67,97,0
1,58,0,158
1,58,97,33
1,63,0,39
1,67,0,5
1,58,0,8
1,63,97,44
1,58,97,0
1,67,97,0
1,53,0,36
1,63,0,10
1,58,0,0
1,67,0,10
1,53,97,41
1,53,0,33
1,53,97,61
1,70,97,0
1,62,97,0
1,65,97,0
1,62,0,157
1,62,97,37
1,70,0,29
1,65,0,12
1,62,0,3
1,53,0,5
1,60,97,0
1,53,97,0
1,65,97,0
1,69,97,0
1,60,0,140
1,60,97,52
1,69,0,57
1,65,0,2
1,60,0,7
1,60,97,31
1,69,97,0
1,65,97,0
1,53,0,25
1,65,0,42
1,60,0,9
1,69,0,1
1,53,97,19
1,53,0,37
1,53,97,49
1,60,97,0
1,68,97,0
1,63,97,0
1,60,0,9
1,60,97,39
1,68,0,10
1,60,0,16
1,63,0,4
1,53,0,26
1,63,97,0
1,53,97,0
1,67,97,0
1,58,97,0
1,58,0,151
1,58,97,0
1,63,0,9
1,63,97,89
1,53,0,13
1,67,0,48
1,63,0,20
1,53,97,14
1,58,0,15
1,53,0,27
1,53,97,47
1,62,97,0
1,58,97,0
1,67,97,0
1,58,0,132
1,58,97,48
1,62,0,17
1,67,0,12
1,53,0,8
1,58,0,2
