track,note,velocity,time
2,33,127,1080
2,33,0,2
2,33,127,0
2,33,0,1
2,33,127,60
2,33,0,4
2,33,127,558
2,33,0,8
2,33,127,33
2,33,0,5
2,33,127,52
2,33,0,1
2,29,124,3
2,29,0,117
2,29,77,64
2,29,0,12
2,29,104,45
2,29,0,119
2,31,68,61
2,31,0,185
2,31,69,59
2,31,0,13
2,31,113,45
2,36,106,120
2,31,0,2
2,31,72,60
2,36,0,3
2,29,124,55
2,31,0,1
2,29,0,125
2,29,77,55
2,29,0,14
2,29,104,43
2,29,0,127
2,31,68,53
2,31,0,87
2,31,79,36
2,33,113,59
2,31,0,5
2,33,0,52
2,31,69,5
2,40,113,3
2,31,0,1
2,40,0,76
2,40,106,2
2,40,0,104
2,33,127,4
2,33,0,123
2,33,120,58
2,33,0,16
2,33,124,41
2,33,0,121
2,33,119,59
2,33,0,191
2,33,103,53
2,33,0,20
2,33,126,38
2,33,0,93
2,33,120,27
2,33,0,68
2,33,127,52
2,33,0,128
2,33,116,53
2,33,0,19
2,33,124,38
2,33,0,125
2,33,119,55
2,33,0,191
2,33,97,53
2,33,0,18
2,33,126,40
2,35,108,58
2,33,0,7
2,36,120,55
2,35,0,7
2,36,0,54
2,40,120,1
2,40,0,56
2,29,127,2
2,29,0,123
2,29,116,58
2,29,0,14
2,29,124,43
2,29,0,118
2,31,119,62
2,31,0,188
2,31,115,56
2,31,0,16
2,31,126,42
2,31,0,113
2,36,125,7
2,31,115,62
2,36,0,7
2,29,127,51
2,31,0,4
2,29,0,115
2,29,112,62
2,29,0,15
2,29,124,42
2,29,0,127
2,31,119,53
2,31,0,70
2,31,121,53
2,33,121,59
2,31,0,12
2,33,0,48
2,31,111,2
2,31,0,56
2,40,126,2
2,40,0,50
2,40,125,3
2,40,0,54
2,33,127,28
2,33,0,123
2,33,120,58
2,33,0,16
2,33,124,41
2,33,0,121
2,33,119,59
2,33,0,191
2,33,103,53
2,33,0,20
2,33,126,38
2,33,0,93
2,33,120,27
2,33,0,68
2,33,127,52
2,33,0,128
2,33,116,53
2,33,0,19
2,33,124,38
2,33,0,125
2,33,119,55
2,33,0,191
2,33,97,53
2,33,0,18
2,33,126,40
2,35,108,58
2,33,0,7
2,36,120,55
2,35,0,7
2,36,0,54
2,40,120,1
2,40,0,56
2,29,127,2
2,29,0,123
2,29,116,58
2,29,0,14
2,29,124,43
2,29,0,118
2,31,119,62
2,31,0,188
2,31,115,56
2,31,0,16
2,31,126,42
2,31,0,113
2,36,125,7
2,31,115,62
2,36,0,7
2,29,127,51
2,31,0,4
2,29,0,115
2,29,112,62
2,29,0,15
2,29,124,42
2,29,0,127
2,31,119,53
2,31,0,70
2,31,121,53
2,33,121,59
2,31,0,12
2,33,0,48
2,31,111,2
2,31,0,56
2,40,126,2
2,40,0,50
2,40,125,3
2,40,0,54
2,36,127,25
2,36,0,59
2,36,58,1
2,36,0,59
2,36,127,1
2,36,0,59
2,36,67,1
2,36,0,59
2,36,127,1
2,36,0,59
2,36,66,1
2,36,0,59
2,36,127,1
2,36,0,59
2,36,68,1
2,36,0,59
2,36,127,1
2,36,0,59
2,36,71,1
2,36,0,59
2,36,127,1
2,36,0,59
2,36,73,1
2,36,0,59
2,36,127,1
2,36,0,59
2,36,79,1
2,36,0,59
2,36,127,1
2,36,0,59
2,36,66,1
2,36,0,59
2,36,127,1
2,36,0,59
2,36,70,1
2,36,0,59
2,36,127,1
2,36,0,59
2,36,66,1
2,36,0,59
2,36,127,1
2,36,0,59
2,36,73,1
2,36,0,59
2,36,127,1
2,36,0,59
2,36,73,1
2,36,0,59
2,36,127,1
2,36,0,59
2,36,59,1
2,36,0,59
2,36,127,1
2,36,0,59
2,36,81,1
2,36,0,59
2,36,127,1
2,36,0,59
2,36,94,1
2,36,0,59
2,38,122,1
2,38,0,59
2,39,104,1
2,39,0,59
2,32,110,1
2,32,0,59
2,32,49,1
2,32,0,59
2,32,110,1
2,32,0,59
2,32,53,1
2,32,0,59
2,32,110,1
2,32,0,59
2,32,50,1
2,32,0,59
2,32,110,1
2,32,0,59
2,32,76,1
2,32,0,59
2,32,104,1
2,32,0,59
2,32,53,1
2,32,0,59
2,32,127,1
2,32,0,59
2,32,80,1
2,32,0,59
2,34,110,1
2,34,0,59
2,34,110,61
2,34,0,119
2,29,127,4
2,29,0,113
2,29,120,68
2,29,0,14
2,29,124,43
2,29,0,119
2,29,119,61
2,29,0,196
2,29,107,48
2,29,0,13
2,29,126,45
2,29,0,117
2,41,125,3
2,40,111,62
2,41,0,15
2,40,0,43
2,29,117,0
2,29,0,121
2,29,108,60
2,29,0,12
2,29,124,45
2,29,0,121
2,29,119,59
2,29,0,198
2,29,103,46
2,29,0,18
2,29,126,40
2,40,120,58
2,29,0,7
2,40,0,51
2,38,125,4
2,38,0,59
2,36,120,3
2,33,127,58
2,36,0,1
2,33,0,124
2,33,104,56
2,33,0,13
2,33,124,44
2,33,0,121
2,33,119,59
2,33,0,194
2,33,115,50
2,33,0,58
2,29,126,0
2,29,0,50
2,31,125,70
2,31,0,55
2,33,127,65
2,33,0,129
2,33,108,52
2,33,0,15
2,33,124,42
2,33,0,116
2,33,119,64
2,33,0,188
2,33,111,56
2,33,0,14
2,33,126,44
2,33,0,117
2,41,120,3
2,40,115,62
2,41,0,5
2,29,124,53
2,40,0,1
2,29,0,116
2,29,77,64
2,29,0,12
2,29,104,45
2,29,0,119
2,31,68,61
2,31,0,185
2,31,69,59
2,31,0,13
2,31,113,45
2,36,106,120
2,31,0,2
2,31,72,60
2,36,0,3
2,29,124,55
2,31,0,1
2,29,0,125
2,29,77,55
2,29,0,14
2,29,104,43
2,29,0,127
2,31,68,53
2,31,0,87
2,31,79,36
2,33,113,59
2,31,0,5
2,33,0,52
2,31,69,5
2,40,113,3
2,31,0,1
2,40,0,76
2,40,106,2
2,40,0,104
2,33,127,4
2,33,0,123
2,33,120,58
2,33,0,16
2,33,124,41
2,33,0,121
2,33,119,59
2,33,0,191
2,33,103,53
2,33,0,20
2,33,126,38
2,33,0,93
2,33,120,27
2,33,0,68
2,33,127,52
2,33,0,128
2,33,116,53
2,33,0,19
2,33,124,38
2,33,0,125
2,33,119,55
2,33,0,191
2,33,97,53
2,33,0,18
2,33,126,40
2,35,108,58
2,33,0,7
2,36,120,55
2,35,0,7
2,36,0,54
2,40,120,1
2,40,0,56
2,29,127,2
2,29,0,123
2,29,116,58
2,29,0,14
2,29,124,43
2,29,0,118
2,31,119,62
2,31,0,188
2,31,115,56
2,31,0,16
2,31,126,42
2,31,0,113
2,36,125,7
2,31,115,62
2,36,0,7
2,29,127,51
2,31,0,4
2,29,0,115
2,29,112,62
2,29,0,15
2,29,124,42
2,29,0,127
2,31,119,53
2,31,0,70
2,31,121,53
2,33,121,59
2,31,0,12
2,33,0,48
2,31,111,2
2,31,0,56
2,40,126,2
2,40,0,50
2,40,125,3
2,40,0,54
2,33,127,28
2,33,0,123
2,33,120,58
2,33,0,16
2,33,124,41
2,33,0,121
2,33,119,59
2,33,0,191
2,33,103,53
2,33,0,20
2,33,126,38
2,33,0,93
2,33,120,27
2,33,0,68
2,33,127,52
2,33,0,128
2,33,116,53
2,33,0,19
2,33,124,38
2,33,0,125
2,33,119,55
2,33,0,191
2,33,97,53
2,33,0,18
2,33,126,40
2,35,108,58
2,33,0,7
2,36,120,55
2,35,0,7
2,36,0,54
2,40,120,1
2,40,0,56
2,29,127,2
2,29,0,123
2,29,116,58
2,29,0,14
2,29,124,43
2,29,0,118
2,31,119,62
2,31,0,188
2,31,115,56
2,31,0,16
2,31,126,42
2,31,0,113
2,36,125,7
2,31,115,62
2,36,0,7
2,29,127,51
2,31,0,4
2,29,0,115
2,29,112,62
2,29,0,15
2,29,124,42
2,29,0,127
2,31,119,53
2,31,0,70
2,31,121,53
2,33,121,59
2,31,0,12
2,33,0,48
2,31,111,2
2,31,0,56
2,40,126,2
2,40,0,50
2,40,125,3
2,40,0,54
2,36,127,25
2,36,0,59
2,36,58,1
2,36,0,59
2,36,127,1
2,36,0,59
2,36,67,1
2,36,0,59
2,36,127,1
2,36,0,59
2,36,66,1
2,36,0,59
2,36,127,1
2,36,0,59
2,36,68,1
2,36,0,59
2,36,127,1
2,36,0,59
2,36,71,1
2,36,0,59
2,36,127,1
2,36,0,59
2,36,73,1
2,36,0,59
2,36,127,1
2,36,0,59
2,36,79,1
2,36,0,59
2,36,127,1
2,36,0,59
2,36,66,1
2,36,0,59
2,36,127,1
2,36,0,59
2,36,70,1
2,36,0,59
2,36,127,1
2,36,0,59
2,36,66,1
2,36,0,59
2,36,127,1
2,36,0,59
2,36,73,1
2,36,0,59
2,36,127,1
2,36,0,59
2,36,73,1
2,36,0,59
2,36,127,1
2,36,0,59
2,36,59,1
2,36,0,59
2,36,127,1
2,36,0,59
2,36,81,1
2,36,0,59
2,36,127,1
2,36,0,59
2,36,94,1
2,36,0,59
2,38,122,1
2,38,0,59
2,39,104,1
2,39,0,59
2,32,110,1
2,32,0,59
2,32,49,1
2,32,0,59
2,32,110,1
2,32,0,59
2,32,53,1
2,32,0,59
2,32,110,1
2,32,0,59
2,32,50,1
2,32,0,59
2,32,110,1
2,32,0,59
2,32,76,1
2,32,0,59
2,32,104,1
2,32,0,59
2,32,53,1
2,32,0,59
2,32,127,1
2,32,0,59
2,32,80,1
2,32,0,59
2,34,110,1
2,34,0,59
2,34,110,61
2,34,0,119
2,29,127,4
2,29,0,113
2,29,120,68
2,29,0,14
2,29,124,43
2,29,0,119
2,29,119,61
2,29,0,196
2,29,107,48
2,29,0,13
2,29,126,45
2,29,0,117
2,41,125,3
2,40,111,62
2,41,0,15
2,40,0,43
2,29,117,0
2,29,0,121
2,29,108,60
2,29,0,12
2,29,124,45
2,29,0,121
2,29,119,59
2,29,0,198
2,29,103,46
2,29,0,18
2,29,126,40
2,40,120,58
2,29,0,7
2,40,0,51
2,38,125,4
2,38,0,59
2,36,120,3
2,33,127,58
2,36,0,1
2,33,0,124
2,33,104,56
2,33,0,13
2,33,124,44
2,33,0,121
2,33,119,59
2,33,0,194
2,33,115,50
2,33,0,58
2,29,126,0
2,29,0,50
2,31,125,70
2,31,0,55
2,33,127,65
2,33,0,129
2,33,108,52
2,33,0,15
2,33,124,42
2,33,0,116
2,33,119,64
2,33,0,188
2,33,111,56
2,33,0,14
2,33,126,44
2,33,0,117
2,41,120,3
2,40,115,62
2,41,0,5
2,29,127,53
2,40,0,1
2,29,0,112
2,29,120,68
2,29,0,14
2,29,124,43
2,29,0,119
2,29,119,61
2,29,0,196
2,29,107,48
2,29,0,13
2,29,126,45
2,29,0,117
2,41,125,3
2,40,111,62
2,41,0,15
2,40,0,43
2,29,117,0
2,29,0,121
2,29,108,60
2,29,0,12
2,29,124,45
2,29,0,121
2,29,119,59
2,29,0,198
2,29,103,46
2,29,0,18
2,29,126,40
2,40,120,58
2,29,0,7
2,40,0,51
2,38,125,4
2,38,0,59
2,36,120,3
2,33,127,58
2,36,0,1
2,33,0,124
2,33,104,56
2,33,0,13
2,33,124,44
2,33,0,121
2,33,119,59
2,33,0,194
2,33,115,50
2,33,0,58
2,29,126,0
2,29,0,50
2,31,125,70
2,31,0,55
2,33,127,65
2,33,0,129
2,33,108,52
2,33,0,15
2,33,124,42
2,33,0,116
2,33,119,64
2,33,0,188
2,33,111,56
2,33,0,14
2,33,126,44
2,33,0,117
2,41,120,3
2,40,115,62
2,41,0,5
2,36,127,53
2,40,0,1
2,36,0,116
2,36,120,64
2,36,0,18
2,36,124,39
2,36,0,115
2,36,119,65
2,36,0,189
2,36,119,55
2,36,0,15
2,36,126,43
2,36,0,118
2,36,127,122
2,36,0,119
2,36,120,62
2,36,0,19
2,36,124,38
2,36,0,124
2,34,119,56
2,34,0,183
2,33,117,61
2,33,0,13
2,33,126,45
2,31,118,120
2,33,0,2
2,31,0,55
2,29,111,5
2,36,127,58
2,29,0,5
2,36,0,118
2,36,120,58
2,36,0,18
2,36,124,39
2,36,0,125
2,36,119,55
2,36,0,188
2,36,119,56
2,36,0,13
2,36,126,45
2,36,0,123
2,36,127,117
2,36,0,123
2,36,120,58
2,36,0,16
2,36,124,41
2,36,0,115
2,34,119,65
2,34,0,186
2,33,114,58
2,33,0,14
2,33,126,44
2,31,122,120
2,33,0,3
2,29,117,59
2,31,0,3
2,36,127,55
2,29,0,1
2,36,0,116
2,36,120,64
2,36,0,18
2,36,124,39
2,36,0,115
2,36,119,65
2,36,0,189
2,36,119,55
2,36,0,15
2,36,126,43
2,36,0,118
2,36,127,122
2,36,0,119
2,36,120,62
2,36,0,19
2,36,124,38
2,36,0,124
2,34,119,56
2,34,0,183
2,33,117,61
2,33,0,13
2,33,126,45
2,31,118,120
2,33,0,2
2,31,0,55
2,29,111,5
2,36,127,58
2,29,0,5
2,36,0,118
2,36,120,58
2,36,0,18
2,36,124,39
2,36,0,125
2,36,119,55
2,36,0,188
2,36,119,56
2,36,0,13
2,36,126,45
2,36,0,123
2,36,127,117
2,36,0,123
2,36,120,58
2,36,0,16
2,36,124,41
2,36,0,115
2,34,119,65
2,34,0,186
2,33,114,58
2,33,0,14
2,33,126,44
2,31,122,120
2,33,0,3
2,29,117,59
2,31,0,3
2,34,117,52
2,29,0,4
2,34,0,55
2,34,93,1
2,34,0,59
2,34,117,1
2,34,0,59
2,34,99,1
2,34,0,59
2,34,127,1
2,34,0,59
2,34,96,1
2,34,0,59
2,34,117,1
2,34,0,59
2,34,96,1
2,34,0,59
2,34,127,1
2,34,0,59
2,34,96,1
2,34,0,59
2,34,127,1
2,34,0,59
2,34,101,1
2,34,0,59
2,34,127,1
2,34,0,59
2,34,103,1
2,34,0,59
2,34,127,1
2,34,0,59
2,34,114,1
2,34,0,59
2,32,127,1
2,32,0,59
2,32,101,1
2,32,0,59
2,32,117,1
2,32,0,59
2,32,101,1
2,32,0,59
2,32,127,1
2,32,0,59
2,32,99,1
2,32,0,59
2,32,117,1
2,32,0,59
2,32,103,1
2,32,0,59
2,32,117,1
2,32,0,59
2,32,103,1
2,32,0,59
2,32,117,1
2,32,0,59
2,32,106,1
2,32,0,59
2,32,117,1
2,32,0,59
2,32,103,1
2,32,0,59
2,32,117,1
2,32,0,59
2,32,106,1
2,32,0,59
2,34,117,1
2,34,0,59
2,34,88,1
2,34,0,59
2,34,117,1
2,34,0,59
2,34,101,1
2,34,0,59
2,34,117,1
2,34,0,59
2,34,93,1
2,34,0,59
2,34,127,1
2,34,0,59
2,34,111,1
2,34,0,59
2,34,117,1
2,34,0,59
2,34,106,1
2,34,0,59
2,34,127,1
2,34,0,59
2,34,108,1
2,34,0,59
2,34,117,1
2,34,0,59
2,34,108,1
2,34,0,59
2,34,127,1
2,34,0,59
2,34,106,1
2,34,0,59
2,32,117,1
2,32,0,59
2,32,99,1
2,32,0,59
2,32,117,1
2,32,0,59
2,32,103,1
2,32,0,59
2,32,127,1
2,32,0,59
2,32,101,1
2,32,0,59
2,32,117,1
2,32,0,59
2,32,101,1
2,32,0,59
2,32,127,1
2,32,0,59
2,32,106,1
2,32,0,59
2,32,117,1
2,32,0,59
2,32,96,1
2,32,0,59
2,32,127,1
2,32,0,59
2,31,121,1
2,31,0,59
2,32,114,1
2,32,0,59
2,34,117,1
2,34,0,59
2,36,127,4
2,36,0,117
2,36,120,64
2,36,0,18
2,36,124,39
2,36,0,115
2,36,119,65
2,36,0,189
2,36,119,55
2,36,0,15
2,36,126,43
2,36,0,118
2,36,127,122
2,36,0,119
2,36,120,62
2,36,0,19
2,36,124,38
2,36,0,124
2,34,119,56
2,34,0,183
2,33,117,61
2,33,0,13
2,33,126,45
2,31,118,120
2,33,0,2
2,31,0,55
2,29,111,5
2,36,127,58
2,29,0,5
2,36,0,118
2,36,120,58
2,36,0,18
2,36,124,39
2,36,0,125
2,36,119,55
2,36,0,188
2,36,119,56
2,36,0,13
2,36,126,45
2,36,0,123
