track,note,velocity,time
1,48,51,12
1,36,51,0
1,67,51,0
1,66,51,57
1,67,0,23
1,62,51,73
1,66,0,9
1,62,0,80
1,55,51,7
1,55,0,70
1,57,51,122
1,48,0,440
1,36,0,40
1,57,0,136
1,40,51,440
1,67,51,0
1,28,51,0
1,66,51,12
1,67,0,30
1,62,51,66
1,66,0,6
1,62,0,80
1,59,51,10
1,59,0,35
1,52,51,157
1,52,0,34
1,40,0,454
1,28,0,8
1,48,51,560
1,67,51,0
1,36,51,0
1,66,51,29
1,67,0,20
1,62,51,76
1,66,0,9
1,62,0,74
1,55,51,13
1,55,0,64
1,57,51,128
1,48,0,628
1,36,0,64
1,57,0,112
1,40,51,252
1,67,51,0
1,28,51,0
1,66,51,27
1,67,0,32
1,66,0,64
1,62,51,0
1,62,0,48
1,59,51,48
1,59,0,35
1,52,51,157
1,52,0,64
1,59,51,128
1,52,51,0
1,55,51,0
1,55,0,84
1,59,0,1
1,52,0,24
1,59,51,83
1,55,51,0
1,52,51,0
1,55,0,56
1,59,0,4
1,52,0,16
1,55,51,116
1,59,51,0
1,52,51,0
1,55,0,11
1,52,0,9
1,59,0,1
1,59,51,75
1,55,51,0
1,52,51,0
1,59,0,64
1,55,0,22
1,60,51,10
1,28,0,24
1,52,0,17
1,59,51,7
1,40,0,4
1,60,0,16
1,55,51,28
1,59,0,36
1,52,51,60
1,55,0,16
1,52,0,15
1,67,51,65
1,48,51,0
1,36,51,0
1,66,51,16
1,67,0,27
1,62,51,69
1,66,0,17
1,62,0,67
1,55,51,12
1,55,0,56
1,57,51,136
1,36,0,798
1,48,0,21
1,57,0,46
1,67,51,191
1,40,51,0
1,47,51,47
1,66,51,0
1,67,0,28
1,52,51,68
1,62,51,0
1,66,0,7
1,62,0,75
1,59,51,14
1,59,0,132
1,64,51,60
1,59,51,0
1,52,0,445
1,47,0,6
1,40,0,16
1,59,0,232
1,64,0,37
1,67,51,320
1,36,51,0
1,43,51,44
1,66,51,0
1,67,0,33
1,48,51,63
1,62,51,0
1,66,0,1
1,62,0,91
1,55,51,4
1,62,51,192
1,64,51,192
1,43,0,485
1,36,0,13
1,62,0,5
1,55,0,21
1,48,0,4
1,64,0,17
1,67,51,7
1,40,51,0
1,66,51,61
1,47,51,0
1,67,0,47
1,66,0,42
1,52,51,7
1,59,51,96
1,59,0,48
1,55,51,144
1,55,0,124
1,62,51,68
1,59,51,0
1,55,51,0
1,52,0,380
1,47,0,9
1,59,0,30
1,55,0,21
1,62,0,19
1,40,0,6
1,36,51,399
1,48,51,0
1,67,51,0
1,66,51,31
1,67,0,82
1,62,51,14
1,66,0,17
1,55,51,79
1,62,0,1
1,55,0,59
1,57,51,132
1,36,0,774
1,48,0,29
1,57,0,43
1,67,51,17
1,40,51,0
1,47,51,66
1,66,51,0
1,67,0,27
1,66,0,64
1,52,51,5
1,62,51,0
1,62,0,46
1,59,51,50
1,59,0,120
1,64,51,72
1,59,51,0
1,52,0,26
1,64,0,24
1,59,0,24
1,52,51,22
1,52,0,54
1,59,51,42
1,64,51,0
1,55,51,0
1,64,0,186
1,52,51,6
1,59,0,17
1,55,0,3
1,55,51,76
1,55,0,73
1,64,51,23
1,55,51,0
1,52,0,16
1,62,51,80
1,64,0,7
1,55,0,49
1,52,51,40
1,47,0,14
1,52,0,75
1,55,51,7
1,40,0,21
1,55,0,66
1,62,0,4
1,59,51,5
1,59,0,46
1,48,51,50
1,36,51,0
1,55,51,0
1,60,51,0
1,64,51,0
1,64,0,112
1,60,0,7
1,55,0,72
1,60,51,37
1,64,51,0
1,55,51,0
1,48,0,107
1,64,0,79
1,48,51,6
1,60,0,7
1,36,0,10
1,55,0,26
1,48,0,27
1,64,51,26
1,64,0,96
1,62,51,0
1,55,51,96
1,59,51,0
1,40,51,0
1,47,51,28
1,59,0,60
1,62,0,34
1,64,51,2
1,52,51,0
1,64,0,88
1,62,51,8
1,52,0,79
1,47,0,190
1,40,0,15
1,62,0,1
1,52,51,3
1,59,51,0
1,55,0,16
1,52,0,46
1,59,0,30
1,62,51,4
1,47,51,96
1,50,51,44
1,54,51,96
1,57,51,96
1,59,51,0
1,54,0,20
1,59,0,125
1,50,0,11
1,54,51,36
1,57,0,12
1,54,0,72
1,59,51,12
1,62,0,30
1,47,0,18
1,59,0,37
1,55,51,11
1,36,51,96
1,52,51,0
1,43,51,40
1,52,0,22
1,48,51,74
1,55,0,51
1,52,51,45
1,52,0,50
1,55,51,142
1,60,51,96
1,55,0,20
1,43,0,18
1,36,0,9
1,48,0,49
1,62,51,0
1,60,0,8
1,48,51,88
1,64,51,0
1,36,51,0
1,55,51,0
1,60,51,0
1,62,0,5
1,60,0,91
1,64,0,3
1,55,0,62
1,55,51,36
1,60,51,0
1,64,51,0
1,64,0,118
1,55,0,22
1,60,0,10
1,48,0,42
1,64,51,0
1,64,0,23
1,36,0,8
1,48,51,65
1,64,51,0
1,55,51,0
1,36,51,0
1,36,0,26
1,55,0,3
1,64,0,1
1,48,0,2
1,66,51,64
1,50,51,0
1,66,0,14
1,50,0,7
1,59,51,75
1,40,51,0
1,67,51,0
1,47,51,43
1,67,0,4
1,59,0,2
1,52,51,90
1,66,51,0
1,66,0,43
1,59,51,53
1,55,51,0
1,64,51,0
1,64,0,116
1,59,0,7
1,55,0,113
1,47,0,31
1,40,0,9
1,66,51,12
1,52,0,8
1,66,0,41
1,47,51,143
1,57,51,0
1,59,51,0
1,64,51,0
1,50,51,16
1,54,51,96
1,64,0,73
1,62,51,23
1,59,0,32
1,57,0,14
1,62,0,1
1,54,0,33
1,50,0,41
1,47,0,151
1,40,51,16
1,59,51,0
1,55,51,0
1,64,51,0
1,47,51,153
1,52,51,96
1,55,0,2
1,64,0,12
1,59,0,46
1,62,51,36
1,55,51,0
1,62,0,32
1,55,0,20
1,67,51,92
1,67,0,40
1,66,51,104
1,40,0,7
1,66,0,20
1,52,0,15
1,47,0,50
1,64,51,4
1,54,51,0
1,57,51,0
1,42,51,0
1,64,0,101
1,57,0,17
1,54,0,18
1,62,51,63
1,54,51,0
1,42,0,78
1,42,51,18
1,54,0,23
1,62,0,36
1,54,51,37
1,57,51,96
1,54,0,16
1,42,0,76
1,62,51,4
1,57,0,5
1,62,0,72
1,36,51,19
1,55,51,0
1,60,51,0
1,64,51,0
1,55,0,12
1,60,0,8
1,64,0,12
1,43,51,0
1,66,51,96
1,48,51,0
1,66,0,74
1,67,51,22
1,67,0,161
1,69,51,31
1,48,0,8
1,69,0,37
1,43,0,39
1,48,51,12
1,48,0,64
1,36,0,28
1,64,51,4
1,33,51,96
1,57,51,0
1,59,51,0
1,59,0,144
1,57,0,7
1,64,0,12
1,45,51,66
1,33,0,92
1,62,51,4
1,45,0,30
1,62,0,56
1,67,51,10
1,67,0,92
1,66,51,4
1,66,0,84
1,64,51,12
1,64,0,21
1,59,51,75
1,40,51,0
1,55,51,0
1,47,51,16
1,52,51,96
1,55,0,20
1,59,0,16
1,55,51,60
1,59,51,0
1,59,0,24
1,55,0,16
1,62,51,56
1,55,51,0
1,55,0,32
1,62,0,16
1,40,0,67
1,67,51,29
1,67,0,29
1,66,51,67
1,52,0,44
1,66,0,13
1,47,0,46
1,54,51,24
1,64,51,0
1,57,51,0
1,42,51,0
1,64,0,139
1,54,0,33
1,57,0,0
1,54,51,88
1,62,51,0
1,57,51,0
1,42,0,74
1,54,0,106
1,62,0,0
1,42,51,12
1,57,0,79
1,54,51,17
1,54,0,89
1,57,51,7
1,42,0,7
1,57,0,41
1,62,51,0
1,55,51,20
1,48,51,0
1,36,51,0
1,60,51,0
1,64,51,0
1,62,0,5
1,55,0,37
1,60,0,4
1,64,0,23
1,66,51,48
1,66,0,72
1,67,51,72
1,67,0,174
1,69,51,18
1,48,0,11
1,69,0,21
1,48,51,64
1,48,0,64
1,36,0,24
1,64,51,8
1,45,51,96
1,33,51,0
1,57,51,0
1,59,51,0
1,59,0,144
1,57,0,15
1,45,0,14
1,64,0,13
1,45,51,53
1,33,0,38
1,45,0,26
1,62,51,32
1,62,0,94
1,67,51,2
1,67,0,90
1,66,51,6
1,66,0,62
1,64,51,34
1,64,0,23
1,59,51,73
1,40,51,0
1,55,51,0
1,47,51,35
1,52,51,96
1,55,0,3
1,59,0,48
1,55,51,45
1,62,51,0
1,55,0,16
1,62,0,8
1,71,51,72
1,40,0,107
1,71,0,26
1,69,51,11
1,67,51,96
1,52,0,12
1,69,0,10
1,67,0,15
1,47,0,13
1,42,51,1
1,57,51,0
1,69,51,0
1,64,51,0
1,62,51,0
1,69,0,116
1,62,0,56
1,64,0,13
1,57,0,3
1,67,51,54
1,62,51,0
1,64,51,0
1,57,51,0
1,42,0,139
1,42,51,53
1,57,0,16
1,67,0,9
1,64,0,67
1,57,51,4
1,62,0,1
1,42,0,44
1,62,51,51
1,64,51,0
1,57,0,4
1,64,0,13
1,62,0,1
1,48,51,78
1,62,51,0
1,55,51,0
1,60,51,0
1,36,51,0
1,36,0,265
1,48,0,17
1,60,0,6
1,48,51,0
1,36,51,0
1,67,51,0
1,60,51,0
1,55,0,2
1,62,0,28
1,60,0,6
1,36,0,5
1,67,0,4
1,48,0,5
1,48,51,334
1,55,51,0
1,36,51,0
1,60,51,0
1,62,51,0
1,36,0,845
1,60,0,19
1,48,0,0
1,55,0,0
1,62,0,0
1,48,51,0
1,36,51,0
1,67,51,0
1,66,51,96
1,67,0,20
1,62,51,75
1,66,0,24
1,62,0,69
1,55,51,3
1,55,0,66
1,57,51,126
1,36,0,828
1,48,0,41
1,57,0,8
1,67,51,8
1,40,51,0
1,66,51,63
1,47,51,0
1,67,0,27
1,66,0,57
1,52,51,12
1,59,51,96
1,59,0,25
1,64,51,167
1,55,51,0
1,52,0,35
1,64,0,53
1,52,51,8
1,57,51,96
1,62,51,0
1,52,0,148
1,57,0,112
1,55,0,84
1,62,0,3
1,47,0,7
1,40,0,144
1,67,51,6
1,36,51,0
1,43,51,60
1,66,51,0
1,67,0,20
1,66,0,73
1,48,51,3
1,62,51,0
1,48,0,46
1,62,0,14
1,50,51,36
1,55,51,0
1,55,0,64
1,50,0,0
1,57,51,128
1,57,0,110
1,64,51,82
1,62,51,0
1,43,0,494
1,36,0,4
1,62,0,50
1,67,51,9
1,40,51,0
1,64,0,1
1,47,51,54
1,66,51,0
1,67,0,33
1,52,51,63
1,62,51,0
1,66,0,36
1,62,0,21
1,59,51,39
1,52,0,41
1,59,0,11
1,55,51,140
1,52,51,192
1,55,0,3
1,54,51,189
1,52,0,8
1,52,51,88
1,54,0,8
1,55,51,88
1,52,0,2
1,57,51,190
1,55,0,5
1,47,0,75
1,55,51,16
1,57,0,18
1,40,0,7
1,54,51,71
1,55,0,15
1,54,0,13
1,67,51,68
1,36,51,0
1,43,51,5
1,66,51,0
1,67,0,27
1,48,51,69
1,62,51,0
1,66,0,10
1,48,0,65
1,62,0,13
1,50,51,8
1,55,51,0
1,50,0,78
1,55,0,6
1,66,51,108
1,43,0,26
1,48,51,70
1,66,0,66
1,64,51,30
1,57,51,0
1,48,0,138
1,57,0,38
1,64,0,16
1,48,51,0
1,57,51,96
1,57,0,35
1,62,51,61
1,48,0,75
1,64,51,21
1,62,0,6
1,48,51,90
1,36,0,12
1,48,0,56
1,64,0,8
1,57,51,20
1,62,51,96
1,57,0,2
1,62,0,79
1,57,51,15
1,67,51,0
1,40,51,0
1,57,0,30
1,47,51,31
1,66,51,0
1,67,0,24
1,52,51,72
1,66,0,2
1,57,51,94
1,64,51,0
1,64,0,108
1,57,0,24
1,52,0,56
1,64,51,4
1,57,51,0
1,69,51,0
1,47,0,31
1,69,0,41
1,64,0,20
1,52,51,4
1,57,0,7
1,64,51,89
1,57,51,0
1,67,51,0
1,52,0,133
1,67,0,5
1,57,0,52
1,52,51,2
1,64,0,5
1,57,51,91
1,62,51,96
1,57,0,41
1,52,0,50
1,64,51,5
1,62,0,19
1,52,51,77
1,52,0,56
1,40,0,21
1,64,0,14
1,57,51,5
1,57,0,95
1,62,51,1
1,62,0,40
1,64,51,56
1,55,51,0
1,60,51,0
1,48,51,0
1,36,51,0
1,64,0,165
1,60,0,5
1,55,0,19
1,55,51,31
1,60,51,0
1,64,51,0
1,48,0,117
1,48,51,75
1,64,0,2
1,36,0,68
1,55,0,22
1,60,0,2
1,55,51,2
1,64,51,0
1,48,0,32
1,55,0,39
1,62,51,25
1,64,0,18
1,59,51,78
1,40,51,0
1,55,51,0
1,47,51,35
1,52,51,96
1,59,0,53
1,62,0,15
1,64,51,28
1,62,51,96
1,64,0,8
1,55,0,30
1,52,0,25
1,52,51,33
1,40,0,91
1,55,51,5
1,47,0,4
1,62,0,7
1,52,0,32
1,59,51,53
1,55,0,36
1,47,51,60
1,62,51,0
1,59,0,41
1,50,51,31
1,54,51,96
1,62,0,56
1,62,51,40
1,59,51,0
1,54,0,39
1,50,0,121
1,59,0,16
1,54,51,16
1,54,0,73
1,59,51,23
1,47,0,4
1,62,0,8
1,59,0,65
1,55,51,19
1,36,51,96
1,52,51,0
1,43,51,47
1,52,0,19
1,48,51,68
1,55,0,36
1,52,51,60
1,52,0,55
1,60,51,233
1,36,0,68
1,48,0,18
1,62,51,10
1,60,0,16
1,43,0,64
1,62,0,7
1,36,51,9
1,48,51,0
1,55,51,0
1,60,51,0
1,64,51,0
1,64,0,92
1,60,0,3
1,55,0,40
1,55,51,49
1,60,51,0
1,64,51,0
1,48,0,72
1,55,0,107
1,64,0,10
1,48,51,3
1,60,0,12
1,48,0,47
1,60,51,37
1,48,51,0
1,64,51,0
1,55,51,0
1,60,0,20
1,64,0,13
1,55,0,1
1,36,0,1
1,48,0,14
1,38,51,47
1,66,51,0
1,57,51,0
1,50,51,0
1,57,0,22
1,38,0,0
1,66,0,1
1,50,0,9
1,57,51,64
1,40,51,0
1,67,51,0
1,47,51,26
1,67,0,19
1,57,0,24
1,66,51,53
1,52,51,0
1,66,0,44
1,52,0,15
1,59,51,37
1,55,51,0
1,64,51,0
1,64,0,129
1,59,0,5
1,55,0,98
1,47,0,1
1,40,0,6
1,66,51,49
1,66,0,34
1,59,51,158
1,64,51,0
1,57,51,0
1,47,51,0
1,50,51,27
1,54,51,96
1,64,0,72
1,59,0,2
1,57,0,22
1,62,51,0
1,62,0,31
1,54,0,25
1,50,0,333
1,47,0,25
1,59,51,22
1,55,51,0
1,64,51,0
1,40,51,0
1,47,51,62
1,52,51,96
1,55,0,44
1,64,0,12
1,59,0,24
1,55,51,16
1,55,0,62
1,55,51,34
1,62,51,0
1,62,0,45
1,55,0,15
1,67,51,84
1,40,0,12
1,67,0,24
1,66,51,60
1,66,0,72
1,52,0,2
1,47,0,30
1,42,51,4
1,64,51,0
1,57,51,0
1,54,51,0
1,57,0,126
1,64,0,4
1,54,0,34
1,62,51,82
1,57,51,0
1,54,51,0
1,54,0,68
1,62,0,113
1,52,51,11
1,57,0,39
1,52,0,45
1,54,51,12
1,42,0,21
1,54,0,54
1,60,51,117
1,64,51,0
1,48,51,0
1,55,51,0
1,36,51,0
1,55,0,29
1,60,0,2
1,64,0,9
1,66,51,92
1,66,0,51
1,67,51,45
1,67,0,157
1,69,51,35
1,69,0,38
1,48,0,6
1,48,51,52
1,48,0,61
1,36,0,23
1,64,51,12
1,33,51,96
1,57,51,0
1,59,51,0
1,45,51,0
1,59,0,114
1,57,0,5
1,45,0,4
1,64,0,21
1,45,51,58
1,33,0,49
1,45,0,47
1,62,51,0
1,67,51,96
1,62,0,64
1,67,0,26
1,66,51,6
1,66,0,75
1,64,51,21
1,64,0,21
1,55,51,75
1,40,51,0
1,59,51,0
1,47,51,11
1,52,51,96
1,55,0,16
1,59,0,18
1,55,51,62
1,55,0,35
1,55,51,61
1,62,51,0
1,62,0,39
1,55,0,1
1,40,0,54
1,67,51,26
1,67,0,80
1,66,51,40
1,52,0,10
1,66,0,62
1,47,0,53
1,54,51,15
1,42,51,0
