track,note,velocity,time
1,45,68,768
1,64,68,192
1,60,68,0
1,69,68,0
1,59,68,168
1,67,68,0
1,62,68,0
1,64,68,71
1,60,68,0
1,69,68,0
1,59,68,48
1,62,68,0
1,67,68,0
1,52,68,24
1,45,68,24
1,43,68,24
1,64,68,264
1,60,68,0
1,69,68,0
1,59,68,144
1,62,68,0
1,67,68,0
1,64,68,48
1,60,68,0
1,69,68,0
1,55,68,72
1,60,68,0
1,64,68,0
1,48,68,192
1,52,68,25
1,50,68,24
1,62,68,264
1,65,68,0
1,69,68,0
1,64,68,144
1,59,68,0
1,67,68,0
1,59,68,48
1,40,68,0
1,64,68,0
1,62,68,381
1,67,68,0
1,69,68,264
1,45,68,94
1,64,68,287
1,60,68,0
1,69,68,0
1,59,68,167
1,67,68,0
1,62,68,0
1,64,68,72
1,60,68,0
1,69,68,0
1,40,68,96
1,43,68,25
1,45,68,24
1,69,68,216
1,60,68,0
1,64,68,0
1,59,68,168
1,62,68,0
1,67,68,0
1,60,68,73
1,64,68,0
1,69,68,0
1,59,68,73
1,62,68,0
1,67,68,0
1,52,68,0
1,45,68,0
1,43,68,0
1,60,68,217
1,64,68,0
1,69,68,0
1,59,68,145
1,62,68,0
1,67,68,0
1,69,68,72
1,60,68,0
1,64,68,0
1,60,68,73
1,55,68,0
1,64,68,0
1,48,68,192
1,52,68,24
1,50,68,0
1,65,68,240
1,62,68,0
1,69,68,0
1,64,68,144
1,59,68,0
1,67,68,0
1,64,68,48
1,40,68,0
1,59,68,0
1,67,68,24
1,62,68,0
1,69,68,24
1,45,68,96
1,60,68,286
1,64,68,0
1,69,68,0
1,59,68,168
1,67,68,0
1,62,68,0
1,69,68,48
1,60,68,0
1,64,68,0
1,40,68,144
1,43,68,24
1,45,68,24
1,60,68,143
1,64,68,0
1,69,68,0
1,59,68,168
1,62,68,0
1,67,68,0
1,60,68,48
1,64,68,0
1,69,68,0
1,59,68,72
1,62,68,0
1,67,68,0
1,52,68,24
1,45,68,25
1,43,68,0
1,64,68,264
1,60,68,0
1,69,68,0
1,62,68,144
1,59,68,0
1,67,68,0
1,64,68,72
1,60,68,0
1,69,68,0
1,60,68,71
1,55,68,0
1,64,68,0
1,48,68,192
1,52,68,24
1,50,68,96
1,65,68,240
1,62,68,0
1,69,68,0
1,64,68,167
1,59,68,0
1,67,68,0
1,59,68,48
1,40,68,0
1,64,68,0
1,67,68,382
1,62,68,0
1,69,68,24
1,45,68,0
1,64,68,264
1,60,68,0
1,69,68,0
1,59,68,167
1,62,68,0
1,67,68,0
1,64,68,72
1,69,68,0
1,60,68,0
1,45,68,216
1,60,68,285
1,64,68,0
1,69,68,0
1,59,68,144
1,62,68,0
1,67,68,0
1,60,68,95
1,64,68,0
1,69,68,0
1,62,68,95
1,59,68,0
1,67,68,0
1,52,68,0
1,45,68,0
1,43,68,24
1,60,68,239
1,64,68,0
1,69,68,0
1,62,68,167
1,59,68,0
1,67,68,0
1,60,68,71
1,64,68,0
1,69,68,0
1,64,68,96
1,55,68,0
1,60,68,0
1,48,68,192
1,52,68,48
1,50,68,48
1,65,68,264
1,62,68,0
1,69,68,0
1,64,68,168
1,59,68,0
1,67,68,0
1,59,68,72
1,40,68,0
1,64,68,0
1,62,68,381
1,67,68,0
1,69,68,286
1,45,68,94
1,60,68,264
1,64,68,0
1,69,68,0
1,59,68,144
1,62,68,0
1,67,68,0
1,64,68,48
1,60,68,0
1,69,68,0
1,45,68,120
1,64,68,191
1,60,68,0
1,69,68,0
1,59,68,144
1,62,68,0
1,67,68,0
1,69,68,95
1,64,68,0
1,60,68,0
1,59,68,72
1,62,68,0
1,67,68,0
1,52,68,24
1,45,68,96
1,43,68,95
1,64,68,240
1,60,68,0
1,69,68,0
1,59,68,144
1,62,68,0
1,67,68,0
1,64,68,71
1,69,68,0
1,60,68,0
1,55,68,72
1,60,68,0
1,64,68,0
1,48,68,192
1,52,68,24
1,50,68,24
1,67,68,287
1,62,68,0
1,69,68,0
1,59,68,120
1,64,68,0
1,67,68,0
1,64,68,72
1,59,68,0
1,40,68,0
1,67,68,24
1,62,68,0
1,69,68,0
1,60,68,95
1,64,68,0
1,45,68,0
1,40,68,1296
1,43,68,22
1,45,68,24
1,60,68,287
1,64,68,0
1,69,68,0
1,59,68,168
1,67,68,0
1,62,68,0
1,60,68,72
1,64,68,0
1,69,68,0
1,59,68,72
1,62,68,0
1,67,68,0
1,52,68,192
1,45,68,96
1,43,68,95
1,64,68,240
1,60,68,0
1,69,68,0
1,59,68,168
1,62,68,0
1,67,68,0
1,60,68,71
1,69,68,0
1,64,68,0
1,55,68,72
1,64,68,0
1,60,68,0
1,48,68,192
1,52,68,96
1,50,68,0
1,62,68,240
1,65,68,0
1,69,68,0
1,59,68,167
1,64,68,0
1,67,68,0
1,59,68,71
1,40,68,0
1,64,68,0
1,62,68,384
1,67,68,0
1,69,68,0
1,45,68,0
1,60,68,265
1,64,68,0
1,69,68,0
1,59,68,145
1,62,68,0
1,67,68,0
1,64,68,49
1,60,68,0
1,69,68,0
1,40,68,48
1,43,68,96
1,45,68,72
1,64,68,215
1,60,68,0
1,69,68,0
1,59,68,144
1,67,68,0
1,62,68,0
1,60,68,95
1,69,68,0
1,64,68,0
1,62,68,95
1,59,68,0
1,67,68,0
1,52,68,192
1,45,68,95
1,43,68,95
1,60,68,240
1,64,68,0
1,69,68,0
1,59,68,167
1,62,68,0
1,67,68,0
1,64,68,72
1,60,68,0
1,69,68,0
1,55,68,72
1,60,68,0
1,64,68,0
1,48,68,192
1,52,68,96
1,50,68,0
1,62,68,240
1,65,68,0
1,69,68,0
1,59,68,143
1,64,68,0
1,67,68,0
1,40,68,71
1,59,68,0
1,64,68,0
1,62,68,384
1,67,68,0
1,69,68,24
1,45,68,96
1,60,68,264
1,64,68,0
1,69,68,0
1,59,68,168
1,62,68,0
1,67,68,0
1,64,68,95
1,60,68,0
1,69,68,0
1,40,68,24
1,43,68,96
1,45,68,95
1,48,68,95
1,47,68,95
1,45,68,72
1,60,68,288
1,64,68,0
1,69,68,0
1,59,68,167
1,62,68,0
1,67,68,0
1,60,68,96
1,64,68,0
1,69,68,0
1,67,68,96
1,59,68,0
1,62,68,0
1,52,68,192
1,45,68,72
1,43,68,24
1,60,68,263
1,64,68,0
1,69,68,0
1,59,68,168
1,62,68,0
1,67,68,0
1,69,68,72
1,64,68,0
1,60,68,0
1,55,68,96
1,60,68,0
1,64,68,0
1,48,68,192
1,52,68,24
1,50,68,0
1,65,68,262
1,62,68,0
1,69,68,0
1,59,68,144
1,64,68,0
1,67,68,0
1,59,68,72
1,40,68,0
1,64,68,0
1,64,68,0
1,62,68,0
1,67,68,0
1,69,68,24
1,45,68,95
1,60,68,264
1,64,68,0
1,69,68,0
1,62,68,144
1,59,68,0
1,67,68,0
1,64,68,72
1,60,68,0
1,69,68,0
1,40,68,25
1,43,68,96
1,45,68,24
1,60,68,241
1,64,68,0
1,69,68,0
1,59,68,168
1,62,68,0
1,67,68,0
1,60,68,73
1,69,68,0
1,64,68,0
1,59,68,95
1,62,68,0
1,67,68,0
1,52,68,0
1,45,68,96
1,43,68,72
1,64,68,240
1,60,68,0
1,69,68,0
1,59,68,168
1,62,68,0
1,67,68,0
1,64,68,72
1,60,68,0
1,69,68,0
1,55,68,95
1,60,68,0
1,64,68,0
1,48,68,192
1,52,68,96
1,50,68,0
1,65,68,240
1,62,68,0
1,69,68,0
1,59,68,144
1,64,68,0
1,67,68,0
1,40,68,96
1,64,68,0
1,59,68,0
1,62,68,24
1,67,68,0
1,69,68,0
1,60,68,96
1,45,68,0
1,64,68,0
1,53,68,240
1,57,68,96
1,64,68,96
1,69,68,96
1,67,68,12
1,64,68,0
1,62,68,96
1,53,68,95
1,57,68,96
1,62,68,96
1,64,68,0
1,60,68,96
1,57,68,12
1,57,68,12
1,76,68,0
1,64,68,0
1,69,68,96
1,71,68,84
1,72,68,0
1,64,68,0
1,74,68,12
1,72,68,0
1,64,68,0
1,71,68,12
1,72,68,192
1,69,68,72
1,53,68,84
1,57,68,96
1,64,68,0
1,69,68,96
1,72,68,0
1,71,68,96
1,67,68,60
1,64,68,0
1,53,68,143
1,57,68,96
1,60,68,96
1,62,68,192
1,64,68,0
1,67,68,72
1,48,68,36
1,52,68,36
1,55,68,96
1,62,68,96
1,64,68,0
1,59,68,96
1,55,68,192
1,59,68,96
1,62,68,96
1,69,68,0
1,72,68,49
1,67,68,0
1,58,68,144
1,53,68,0
1,62,68,0
1,70,68,0
1,65,68,0
1,45,68,0
1,60,68,25
1,64,68,0
1,69,68,0
1,67,68,168
1,62,68,0
1,59,68,0
1,60,68,96
1,69,68,0
1,64,68,0
1,59,68,101
1,62,68,0
1,67,68,0
1,52,68,9
1,45,68,96
1,43,68,9
1,60,68,240
1,69,68,0
1,59,68,182
1,67,68,0
1,62,68,0
1,60,68,100
1,69,68,0
1,64,68,0
1,55,68,32
1,60,68,0
1,64,68,0
1,48,68,192
1,52,68,10
1,50,68,9
1,62,68,283
1,69,68,0
1,64,68,143
1,59,68,0
1,67,68,0
1,59,68,0
1,40,68,0
1,64,68,0
1,62,68,384
1,67,68,0
1,69,68,7
1,45,68,5
1,60,68,259
1,69,68,0
1,67,68,167
1,59,68,0
1,62,68,0
1,60,68,102
1,69,68,0
1,64,68,0
1,45,68,35
1,69,68,192
1,60,68,0
1,64,68,0
1,62,68,168
1,67,68,0
1,59,68,0
1,69,68,71
1,60,68,0
1,64,68,0
1,59,68,48
1,62,68,0
1,67,68,0
1,52,68,24
1,45,68,24
1,43,68,24
1,64,68,264
1,60,68,0
1,69,68,0
1,59,68,144
1,62,68,0
1,67,68,0
1,64,68,48
1,60,68,0
1,69,68,0
1,55,68,72
1,60,68,0
1,64,68,0
1,48,68,192
1,52,68,25
1,50,68,24
1,62,68,264
1,65,68,0
1,69,68,0
1,64,68,144
1,59,68,0
1,67,68,0
1,59,68,48
1,40,68,0
1,64,68,0
1,62,68,381
1,67,68,0
1,69,68,264
1,45,68,94
1,64,68,287
1,60,68,0
1,69,68,0
1,59,68,167
1,67,68,0
1,62,68,0
1,64,68,72
1,60,68,0
1,69,68,0
1,40,68,96
1,43,68,25
1,45,68,24
1,60,68,192
1,64,68,0
1,69,68,0
1,59,68,167
1,67,68,0
1,62,68,0
1,69,68,71
1,60,68,0
1,64,68,0
1,59,68,96
1,67,68,0
1,62,68,0
1,52,68,192
1,45,68,96
1,43,68,0
1,60,68,240
1,64,68,0
1,69,68,0
1,59,68,168
1,67,68,0
1,62,68,0
1,69,68,96
1,64,68,0
1,60,68,0
1,64,68,121
1,55,68,0
1,60,68,0
1,48,68,192
1,52,68,96
1,50,68,95
1,62,68,240
1,65,68,0
1,69,68,0
1,59,68,144
1,64,68,0
1,67,68,0
1,64,68,95
1,59,68,0
1,40,68,0
1,67,68,361
1,62,68,0
1,69,68,286
1,45,68,72
1,64,68,240
1,60,68,0
1,69,68,0
1,67,68,167
1,59,68,0
1,62,68,0
1,64,68,95
1,60,68,0
1,69,68,0
1,40,68,576
1,43,68,72
1,45,68,95
1,60,68,192
1,64,68,0
1,69,68,0
1,67,68,144
1,59,68,0
1,62,68,0
1,60,68,95
1,64,68,0
1,69,68,0
1,59,68,96
1,67,68,0
1,62,68,0
1,52,68,24
1,45,68,0
1,43,68,0
1,64,68,265
1,60,68,0
1,69,68,0
1,59,68,168
1,67,68,0
1,62,68,0
1,64,68,72
1,69,68,0
1,60,68,0
1,55,68,48
1,64,68,0
1,60,68,0
1,48,68,192
1,52,68,25
1,50,68,0
1,65,68,264
1,62,68,0
1,69,68,0
1,59,68,168
1,67,68,0
1,64,68,0
1,64,68,73
1,59,68,0
1,40,68,0
1,67,68,383
1,62,68,0
1,69,68,286
1,45,68,72
1,60,68,264
1,64,68,0
1,69,68,0
1,67,68,167
1,59,68,0
1,62,68,0
1,69,68,73
1,60,68,0
1,64,68,0
1,40,68,576
1,43,68,71
1,45,68,72
1,64,68,216
1,60,68,0
1,69,68,0
1,67,68,168
1,59,68,0
1,62,68,0
1,64,68,72
1,69,68,0
1,60,68,0
1,67,68,95
1,59,68,0
1,62,68,0
1,52,68,24
1,45,68,0
1,43,68,96
1,60,68,264
1,64,68,0
1,69,68,0
1,59,68,167
1,67,68,0
1,62,68,0
1,60,68,95
1,64,68,0
1,69,68,0
1,64,68,96
1,55,68,0
1,60,68,0
1,48,68,192
1,52,68,24
1,50,68,96
1,65,68,264
1,62,68,0
1,69,68,0
1,59,68,144
1,64,68,0
1,67,68,0
1,64,68,47
1,59,68,0
1,40,68,0
1,67,68,360
1,62,68,0
1,69,68,264
1,45,68,95
1,60,68,264
1,64,68,0
1,69,68,0
1,59,68,168
1,67,68,0
1,62,68,0
1,69,68,71
1,60,68,0
1,64,68,0
1,40,68,48
1,43,68,96
1,45,68,72
1,69,68,383
1,67,68,96
1,60,68,13
1,62,68,96
1,67,68,0
1,64,68,192
1,52,68,191
1,45,68,0
1,43,68,96
1,69,68,216
1,67,68,96
1,60,68,12
1,62,68,96
1,67,68,0
1,64,68,192
1,48,68,191
1,52,68,12
1,50,68,96
1,69,68,216
1,67,68,96
1,52,68,0
1,60,68,12
1,40,68,12
1,62,68,0
1,67,68,0
1,64,68,192
1,43,68,0
1,45,68,0
1,69,68,444
1,67,68,96
1,60,68,13
1,62,68,96
1,67,68,0
1,64,68,192
1,45,68,0
1,60,68,84
1,64,68,96
1,67,68,96
1,71,68,96
1,69,68,84
1,67,68,24
1,69,68,96
1,52,68,552
1,45,68,0
1,43,68,84
1,55,68,192
1,60,68,96
1,62,68,96
1,64,68,95
1,62,68,60
1,67,68,156
1,65,68,120
1,64,68,96
1,65,68,168
1,48,68,0
1,52,68,12
1,50,68,12
1,69,68,372
1,57,68,0
1,62,68,96
1,57,68,12
1,67,68,12
1,59,68,0
1,52,68,0
1,65,68,96
1,40,68,0
1,59,68,132
1,64,68,0
1,65,68,0
1,64,68,120
1,59,68,0
1,65,68,0
1,43,68,12
1,45,68,0
1,67,68,0
1,59,68,0
1,65,68,12
1,64,68,48
1,65,68,96
1,67,68,24
1,65,68,96
1,64,68,12
1,57,68,12
1,60,68,191
1,64,68,0
1,69,68,0
1,59,68,167
1,67,68,0
1,62,68,0
1,60,68,0
1,69,68,0
1,64,68,0
1,59,68,108
1,67,68,0
1,52,68,192
1,45,68,96
1,43,68,0
1,60,68,0
1,64,68,0
1,69,68,0
1,59,68,156
1,67,68,0
1,62,68,0
1,60,68,0
1,64,68,0
1,69,68,0
1,55,68,73
1,64,68,0
1,60,68,0
1,48,68,192
1,52,68,0
1,62,68,0
1,69,68,0
1,65,68,0
1,59,68,156
1,67,68,0
1,64,68,0
1,52,68,0
1,59,68,84
1,40,68,0
1,64,68,0
1,62,68,12
1,67,68,0
1,43,68,11
1,60,68,0
1,45,68,0
1,64,68,0
1,69,68,0
1,60,68,0
1,59,68,118
1,67,68,0
1,62,68,0
1,69,68,95
1,64,68,0
1,60,68,0
2,79,51,76214
2,74,51,12
2,79,51,6
2,72,51,11
2,79,51,4
2,71,51,5
2,79,51,308
2,76,51,11
2,79,51,2
2,74,51,7
2,79,51,6
2,72,51,10
2,79,51,282
2,71,51,4
2,79,51,4
2,76,51,8
2,79,51,2
2,74,51,6
2,79,51,5
2,72,51,8
2,79,51,285
2,71,51,3
2,69,51,1
2,71,51,94
2,72,51,9
2,74,51,11
2,72,51,85
2,71,51,12
2,72,51,24
2,74,51,8
2,72,51,3
2,74,51,24
2,72,51,21
2,71,51,12
2,69,51,30
2,76,51,83
2,79,51,289
2,74,51,0
2,79,51,288
2,72,51,10
2,79,51,8
2,81,51,10
2,76,51,384
2,79,51,4
2,74,51,5
2,79,51,2
2,72,51,9
2,79,51,286
2,81,51,8
2,76,51,3
2,79,51,0
2,74,51,3
2,79,51,8
2,72,51,10
2,79,51,2
2,71,51,4
2,69,51,4
2,71,51,92
