track,note,velocity,time
0,50,64,0
0,69,64,0
0,54,64,0
0,54,0,48
0,69,0,0
0,57,64,0
0,76,64,0
0,57,0,48
0,62,64,0
0,62,0,48
0,57,64,0
0,76,0,48
0,78,64,0
0,78,0,48
0,74,64,0
0,57,0,48
0,62,64,0
0,74,0,48
0,69,64,0
0,62,0,48
0,57,64,0
0,57,0,48
0,62,64,0
0,49,64,0
0,64,64,0
0,69,64,0
0,49,0,48
0,52,64,0
0,52,0,48
0,69,0,0
0,64,0,0
0,57,64,0
0,76,64,0
0,57,0,48
0,61,64,0
0,61,0,48
0,64,64,0
0,76,0,48
0,73,64,0
0,73,0,48
0,64,0,0
0,47,64,0
0,67,64,0
0,71,64,0
0,47,0,48
0,50,64,0
0,50,0,48
0,71,0,0
0,67,0,0
0,55,64,0
0,67,64,0
0,55,0,96
0,59,64,0
0,47,64,0
0,74,64,0
0,66,64,0
0,47,0,48
0,50,64,0
0,50,0,48
0,66,0,0
0,74,0,0
0,54,64,0
0,64,64,0
0,73,64,0
0,54,0,48
0,59,64,0
0,59,0,48
0,54,64,0
0,73,0,48
0,64,0,0
0,66,64,0
0,74,64,0
0,74,0,48
0,66,0,0
0,54,0,0
0,45,64,0
0,73,64,0
0,64,64,0
0,45,0,48
0,49,64,0
0,49,0,48
0,64,0,0
0,73,0,0
0,52,64,0
0,61,64,0
0,69,64,0
0,52,0,48
0,57,64,0
0,69,0,48
0,61,0,0
0,66,64,0
0,43,64,0
0,62,64,0
0,71,64,0
0,43,0,48
0,50,64,0
0,50,0,48
0,55,64,0
0,55,0,48
0,59,64,0
0,59,0,48
0,62,64,0
0,62,0,48
0,62,0,0
0,67,64,0
0,67,0,48
0,71,0,0
0,69,64,0
0,67,64,48
0,67,0,48
0,62,64,0
0,62,0,96
0,59,64,0
0,69,64,0
0,59,0,0
0,69,0,0
0,54,64,0
0,50,64,0
0,57,64,0
0,76,64,0
0,57,0,0
0,64,64,0
0,50,0,48
0,54,0,0
0,62,64,0
0,62,0,48
0,57,64,0
0,78,64,0
0,64,0,0
0,66,64,0
0,74,64,0
0,66,0,0
0,62,64,0
0,74,0,48
0,69,64,0
0,69,64,0
0,62,0,0
0,57,0,0
0,57,64,0
0,69,64,0
0,57,0,0
0,49,64,0
0,57,64,0
0,52,64,0
0,76,64,0
0,52,0,0
0,57,0,0
0,57,64,0
0,64,64,0
0,57,0,1
0,73,64,0
0,64,0,0
0,61,64,0
0,74,64,0
0,61,0,0
0,55,64,0
0,47,64,0
0,62,64,0
0,74,64,0
0,62,0,0
0,47,0,0
0,55,0,0
0,47,64,0
0,66,64,0
0,62,64,0
0,47,0,48
0,54,64,0
0,73,64,0
0,62,0,0
0,66,0,0
0,61,64,0
0,54,0,48
0,59,64,0
0,74,64,0
0,59,0,0
0,54,64,0
0,61,0,48
0,62,64,0
0,73,64,0
0,62,0,0
0,54,0,0
0,45,64,0
0,61,64,0
0,45,0,48
0,52,64,0
0,69,64,0
0,52,0,0
0,61,0,0
0,57,64,0
0,73,64,0
0,57,0,0
0,54,64,0
0,66,64,48
0,71,64,0
0,73,64,0
0,54,0,0
0,43,64,0
0,59,64,0
0,71,64,0
0,43,0,0
0,50,64,0
0,50,0,48
0,55,64,0
0,55,0,48
0,59,0,0
0,59,64,0
0,59,0,1
0,62,64,47
0,62,0,48
0,67,64,0
0,71,0,48
0,71,0,0
0,67,0,0
0,69,64,0
0,69,0,48
0,67,64,0
0,67,0,48
0,62,64,0
0,62,0,48
0,55,64,0
0,55,0,48
0,59,64,0
0,69,64,0
0,59,0,0
0,54,64,0
0,50,64,0
0,57,64,0
0,76,64,0
0,57,0,0
0,64,64,0
0,50,0,48
0,54,0,0
0,62,64,0
0,62,0,48
0,57,64,0
0,78,64,0
0,64,0,0
0,66,64,0
0,74,64,0
0,66,0,0
0,62,64,0
0,74,0,48
0,69,64,0
0,69,64,0
0,62,0,0
0,57,0,0
0,57,64,0
0,69,64,0
0,57,0,0
0,49,64,0
0,57,64,0
0,52,64,0
0,76,64,0
0,52,0,0
0,57,0,0
0,57,64,0
0,64,64,0
0,57,0,1
0,73,64,0
0,64,0,0
0,61,64,0
0,74,64,0
0,61,0,0
0,55,64,0
0,47,64,0
0,62,64,0
0,74,64,0
0,62,0,0
0,47,0,0
0,55,0,0
0,47,64,0
0,66,64,0
0,62,64,0
0,47,0,48
0,54,64,0
0,73,64,0
0,62,0,0
0,66,0,0
0,61,64,0
0,54,0,48
0,59,64,0
0,74,64,0
0,59,0,0
0,54,64,0
0,61,0,48
0,62,64,0
0,73,64,0
0,62,0,0
0,54,0,0
0,45,64,0
0,61,64,0
0,45,0,48
0,52,64,0
0,69,64,0
0,52,0,0
0,61,0,0
0,57,64,0
0,73,64,0
0,57,0,0
0,54,64,0
0,66,64,48
0,71,64,0
0,73,64,0
0,54,0,0
0,43,64,0
0,59,64,0
0,73,0,48
0,71,64,0
0,43,0,0
0,50,64,0
0,50,0,48
0,55,64,0
0,55,0,48
0,59,0,0
0,59,64,0
0,59,0,1
0,62,64,47
0,62,0,48
0,67,64,0
0,71,0,48
0,71,0,0
0,67,0,0
0,69,64,0
0,69,0,48
0,67,64,0
0,67,0,48
0,62,64,0
0,59,64,96
0,76,64,0
0,62,0,0
0,64,64,0
0,76,64,0
0,64,0,0
0,59,0,0
0,55,64,0
0,52,64,0
0,59,64,0
0,64,64,0
0,76,64,0
0,64,0,0
0,55,0,0
0,52,0,0
0,59,0,0
0,55,64,0
0,59,64,0
0,52,64,0
0,64,64,0
0,52,0,96
0,55,0,0
0,59,0,0
0,55,64,0
0,59,64,0
0,52,64,0
0,74,64,0
0,64,0,0
0,62,64,0
0,74,64,0
0,62,0,0
0,52,0,0
0,59,0,0
0,55,0,0
0,55,64,0
0,52,64,0
0,64,64,0
0,74,0,24
0,71,64,0
0,64,0,0
0,59,64,0
0,52,64,0
0,55,64,0
0,55,0,96
0,52,0,0
0,59,0,0
0,52,64,0
0,55,64,0
0,76,64,0
0,64,64,0
0,78,64,0
0,64,0,0
0,55,0,0
0,52,0,0
0,54,64,0
0,47,64,0
0,66,64,0
0,62,64,0
0,76,64,0
0,62,0,0
0,54,0,0
0,47,0,0
0,66,0,0
0,54,64,0
0,47,64,0
0,64,64,0
0,76,0,48
0,74,64,0
0,74,64,0
0,64,0,0
0,47,0,0
0,54,0,0
0,54,64,0
0,47,64,0
0,62,64,0
0,71,64,0
0,62,0,0
0,47,0,0
0,54,0,0
0,47,64,0
0,54,64,0
0,59,64,0
0,71,0,96
0,54,0,0
0,47,0,0
0,47,64,0
0,54,64,0
0,73,64,0
0,54,0,0
0,47,0,0
0,59,0,0
0,57,64,0
0,49,64,0
0,61,64,0
0,74,64,0
0,61,0,0
0,49,0,0
0,57,0,0
0,57,64,0
0,54,64,0
0,50,64,0
0,62,64,0
0,50,0,96
0,57,0,0
0,54,0,0
0,57,64,0
0,54,64,0
0,50,64,0
0,74,64,0
0,50,0,0
0,62,0,0
0,57,0,0
0,54,0,0
0,54,64,0
0,57,64,0
0,50,64,0
0,62,64,0
0,73,64,0
0,62,0,0
0,54,0,0
0,57,0,0
0,50,0,0
0,52,64,0
0,45,64,0
0,61,64,0
0,74,64,0
0,61,0,0
0,45,0,0
0,52,0,0
0,52,64,0
0,45,64,0
0,62,64,0
0,73,64,0
0,62,0,0
0,45,0,0
0,52,0,0
0,52,64,0
0,45,64,0
0,61,64,0
0,73,0,48
0,71,64,0
0,73,64,0
0,61,0,0
0,45,0,0
0,52,0,0
0,43,64,0
0,59,64,0
0,61,64,0
0,73,0,48
0,71,64,0
0,61,0,0
0,59,64,0
0,43,0,48
0,43,64,0
0,43,0,96
0,43,64,0
0,43,64,0
0,61,64,0
0,57,64,0
0,64,64,0
0,43,0,96
0,43,64,0
0,43,0,96
0,43,64,0
0,43,0,96
0,61,0,0
0,57,0,0
0,64,0,0
0,43,64,0
0,59,64,0
0,62,64,0
0,67,64,0
0,43,0,96
0,43,64,0
0,43,0,96
0,43,64,0
0,74,64,0
0,43,0,0
0,59,0,0
0,62,0,0
0,67,0,0
0,43,64,0
0,62,64,0
0,59,64,0
0,50,117,0
0,50,0,23
0,47,117,25
0,47,0,24
0,78,64,0
0,59,0,0
0,62,0,0
0,43,0,0
0,43,64,0
0,66,64,0
0,62,64,0
0,59,64,0
0,45,117,0
0,45,0,23
0,79,64,0
0,59,0,0
0,43,0,0
0,66,0,0
0,62,0,0
0,43,64,0
0,67,64,0
0,62,64,0
0,59,64,0
0,43,117,0
0,43,0,24
0,43,108,24
0,81,64,0
0,59,0,0
0,43,0,0
0,67,0,0
0,62,0,0
0,38,64,0
0,69,64,0
0,43,0,0
0,49,108,0
0,36,102,0
0,51,100,0
0,38,122,4
0,49,0,67
0,51,0,24
0,45,64,1
0,50,64,0
0,66,64,0
0,62,64,0
0,51,89,0
0,51,0,71
0,62,0,25
0,50,0,0
0,45,0,0
0,66,0,0
0,50,64,0
0,45,64,0
0,62,64,0
0,66,64,0
0,51,95,0
0,78,64,0
0,66,0,0
0,69,0,0
0,62,0,0
0,66,64,0
0,66,0,1
0,33,80,10
0,38,0,8
0,51,0,4
0,36,0,24
0,81,64,0
0,50,0,0
0,45,0,0
0,38,0,0
0,38,64,0
0,69,64,0
0,38,113,0
0,38,118,0
0,51,110,0
0,33,0,4
0,51,0,67
0,45,64,25
0,50,64,0
0,62,64,0
0,66,64,0
0,51,97,0
0,51,0,71
0,66,0,25
0,50,0,0
0,45,0,0
0,62,0,0
0,45,64,0
0,50,64,0
0,62,64,0
0,66,64,0
0,51,101,0
0,33,65,40
0,74,64,0
0,66,0,0
0,69,0,0
0,62,0,0
0,62,64,0
0,62,0,1
0,38,0,2
0,31,122,9
0,30,127,5
0,81,64,0
0,45,0,0
0,50,0,0
0,38,0,0
0,42,64,0
0,69,64,0
0,38,0,0
0,51,106,0
0,36,120,0
0,31,0,1
0,51,0,70
0,54,64,25
0,49,64,0
0,61,64,0
0,66,64,0
0,51,101,0
0,51,0,71
0,83,64,0
0,66,0,0
0,69,0,0
0,54,0,0
0,49,0,0
0,61,0,0
0,54,64,0
0,49,64,0
0,71,64,0
0,66,64,0
0,61,64,0
0,51,100,0
0,51,0,71
0,30,0,4
0,36,0,20
0,83,64,0
0,61,0,0
0,54,0,0
0,49,0,0
0,42,0,0
0,66,0,0
0,71,0,0
0,42,64,0
0,71,64,0
0,38,110,0
0,51,110,0
0,30,127,6
0,83,0,42
0,81,64,0
0,71,0,0
0,69,64,0
0,51,0,23
0,49,64,25
0,54,64,0
0,61,64,0
0,66,64,0
0,51,100,0
0,51,0,71
0,66,0,25
0,54,0,0
0,49,0,0
0,61,0,0
0,54,64,0
0,49,64,0
0,61,64,0
0,66,64,0
0,51,101,0
0,81,64,0
0,66,0,0
0,42,0,0
0,54,0,0
0,69,0,0
0,61,0,0
0,49,0,0
0,43,64,0
0,69,64,0
0,51,106,0
0,36,110,0
0,31,106,6
0,51,0,65
0,79,64,0
0,69,0,0
0,55,64,0
0,50,64,0
0,67,64,0
0,62,64,0
0,59,64,0
0,51,100,0
0,51,0,47
0,59,0,49
0,55,0,0
0,50,0,0
0,67,0,0
0,62,0,0
0,55,64,0
0,50,64,0
0,59,64,0
0,62,64,0
0,66,64,0
0,51,98,0
0,31,0,20
0,78,64,0
0,31,87,0
0,31,0,20
0,51,0,3
0,31,97,23
0,36,0,1
0,76,64,0
0,66,0,0
0,55,0,0
0,50,0,0
0,43,0,0
0,62,0,0
0,59,0,0
0,43,64,0
0,64,64,0
0,38,113,0
0,51,106,0
0,51,0,47
0,55,64,49
0,50,64,0
0,59,64,0
0,62,64,0
0,51,100,0
0,51,0,47
0,76,0,49
0,78,64,0
0,62,0,0
0,64,0,0
0,55,0,0
0,50,0,0
0,59,0,0
0,55,64,0
0,50,64,0
0,66,64,0
0,59,64,0
0,33,94,0
0,51,103,0
0,31,0,4
0,35,94,37
0,33,0,5
0,74,64,0
0,79,64,0
0,66,0,0
0,67,64,0
0,36,98,0
0,36,0,23
0,51,0,0
0,81,64,0
0,67,0,0
0,59,0,0
0,43,0,0
0,55,0,0
0,50,0,0
0,48,64,0
0,69,64,0
0,51,102,0
0,36,120,0
0,36,113,3
0,79,64,0
0,69,0,0
0,55,64,0
0,52,64,0
0,60,64,0
0,64,64,0
0,67,64,0
0,51,101,0
0,51,0,47
0,79,0,49
0,78,64,0
0,67,0,0
0,55,0,0
0,52,0,0
0,60,0,0
0,64,0,0
0,55,64,0
0,52,64,0
0,60,64,0
0,66,64,0
0,51,102,0
0,78,64,0
0,66,0,0
0,52,0,0
0,48,0,0
0,55,0,0
0,60,0,0
0,48,64,0
0,66,64,0
0,51,102,0
0,38,118,0
0,78,0,1
0,36,103,3
0,76,64,20
0,66,0,0
0,64,64,0
0,51,0,23
0,76,0,1
0,74,64,0
0,64,0,0
0,62,64,0
0,55,64,48
0,52,64,0
0,51,101,0
0,51,0,47
0,74,0,49
0,52,0,0
0,55,0,0
0,55,64,0
0,52,64,0
0,50,115,0
0,33,85,4
0,36,0,21
0,50,0,22
0,74,64,0
0,62,0,0
0,62,64,0
0,31,85,0
0,48,115,0
0,33,0,4
0,81,64,0
0,62,0,0
0,52,0,0
0,55,0,0
0,48,0,0
0,38,64,0
0,69,64,0
0,49,115,0
0,36,113,0
0,51,113,0
0,38,97,2
0,49,0,39
0,51,0,24
0,45,64,25
0,50,64,0
0,66,64,0
0,62,64,0
0,51,98,0
0,51,0,71
0,62,0,25
0,50,0,0
0,45,0,0
0,66,0,0
0,50,64,0
0,45,64,0
0,62,64,0
0,66,64,0
0,51,101,0
0,78,64,0
0,66,0,0
0,69,0,0
0,62,0,0
0,66,64,0
0,66,0,1
0,38,0,2
0,38,80,17
0,51,0,3
0,38,0,12
0,36,0,12
0,81,64,0
0,50,0,0
0,45,0,0
0,38,0,0
0,38,64,0
0,69,64,0
0,38,110,0
0,51,110,0
0,38,97,1
0,51,0,46
0,45,64,49
0,50,64,0
0,62,64,0
0,66,64,0
0,51,98,0
0,51,0,47
0,66,0,49
0,50,0,0
0,45,0,0
0,62,0,0
0,45,64,0
0,50,64,0
0,62,64,0
0,66,64,0
0,51,101,0
0,51,0,47
0,74,64,0
0,66,0,0
0,69,0,0
0,62,0,0
0,62,64,0
0,62,0,1
0,38,0,0
0,32,127,3
0,31,65,12
0,32,0,3
0,30,127,19
0,38,0,1
0,81,64,0
0,45,0,0
0,50,0,0
0,38,0,0
0,42,64,0
0,69,64,0
0,51,110,0
0,36,115,0
0,31,0,6
0,51,0,41
0,54,64,49
0,49,64,0
0,61,64,0
0,66,64,0
0,51,102,0
0,51,0,47
0,83,64,0
0,66,0,0
0,69,0,0
0,54,0,0
0,49,0,0
0,61,0,0
0,54,64,0
0,49,64,0
0,71,64,0
0,66,64,0
0,61,64,0
0,51,101,0
0,30,0,43
0,51,0,4
0,30,122,23
0,30,0,13
0,36,0,12
0,83,64,0
0,61,0,0
0,54,0,0
0,49,0,0
0,42,0,0
0,66,0,0
0,71,0,0
0,42,64,0
0,71,64,0
0,51,110,0
0,38,108,0
0,30,122,3
0,51,0,44
0,83,0,1
0,81,64,0
0,71,0,0
0,69,64,0
0,49,64,48
0,54,64,0
0,61,64,0
0,66,64,0
0,51,101,0
0,51,0,47
0,30,0,29
0,66,0,20
0,54,0,0
0,49,0,0
0,61,0,0
0,54,64,0
0,49,64,0
0,61,64,0
0,66,64,0
0,51,101,0
0,30,110,3
0,51,0,44
0,81,64,0
0,66,0,0
0,42,0,0
0,54,0,0
0,69,0,0
0,61,0,0
0,49,0,0
0,43,64,0
0,69,64,0
0,36,117,0
0,51,108,0
0,31,122,3
0,79,64,0
0,69,0,0
0,55,64,0
0,50,64,0
0,67,64,0
0,62,64,0
0,59,64,0
0,51,100,0
0,51,0,47
0,59,0,49
0,55,0,0
0,50,0,0
0,67,0,0
0,62,0,0
0,55,64,0
