track,note,velocity,time
0,78,122,0
0,54,123,0
0,78,0,36
0,54,0,24
0,74,106,0
0,57,74,0
0,62,74,0
0,74,0,216
0,62,0,24
0,57,0,0
0,69,89,0
0,54,121,0
0,69,0,216
0,54,0,24
0,78,118,0
0,66,119,0
0,62,119,0
0,57,119,0
0,57,0,120
0,62,0,0
0,66,0,0
0,64,100,0
0,78,0,96
0,64,0,24
0,74,105,0
0,66,125,0
0,62,125,0
0,57,125,0
0,74,0,216
0,66,0,24
0,62,0,0
0,57,0,0
0,69,92,0
0,59,100,0
0,69,0,216
0,59,0,24
0,78,118,0
0,47,116,0
0,78,0,216
0,47,0,24
0,74,102,0
0,50,116,0
0,74,0,216
0,50,0,24
0,69,85,0
0,54,116,0
0,69,0,216
0,54,0,24
0,78,124,0
0,64,106,0
0,78,0,136
0,64,0,24
0,74,111,0
0,57,100,0
0,74,0,216
0,57,0,24
0,69,98,0
0,54,94,0
0,69,0,216
0,54,0,24
0,78,119,0
0,54,114,0
0,78,0,216
0,74,106,24
0,74,0,216
0,54,0,24
0,69,94,0
0,54,111,0
0,69,0,216
0,54,0,24
0,78,119,0
0,64,110,0
0,59,110,0
0,78,0,216
0,59,0,24
0,64,0,0
0,74,105,0
0,62,100,0
0,57,100,0
0,74,0,216
0,57,0,24
0,62,0,0
0,69,91,0
0,59,91,0
0,69,0,216
0,59,0,24
0,69,100,0
0,45,91,0
0,69,0,216
0,45,0,24
0,73,115,0
0,52,102,0
0,73,0,216
0,52,0,24
0,69,100,0
0,57,113,0
0,69,0,216
0,57,0,24
0,76,119,0
0,61,121,0
0,61,0,80
0,64,100,0
0,64,0,80
0,61,120,0
0,76,0,56
0,61,0,24
0,73,104,0
0,57,84,0
0,73,0,36
0,57,0,24
0,69,88,0
0,54,117,0
0,69,0,216
0,54,0,24
0,71,91,0
0,47,89,0
0,71,0,116
0,47,0,24
0,74,104,0
0,50,101,0
0,74,0,216
0,50,0,24
0,78,116,0
0,54,114,0
0,78,0,216
0,54,0,24
0,81,118,0
0,64,122,0
0,64,0,120
0,62,114,0
0,81,0,96
0,62,0,24
0,78,106,0
0,57,105,0
0,78,0,216
0,57,0,24
0,74,94,0
0,54,89,0
0,74,0,216
0,54,0,24
0,73,100,0
0,48,88,0
0,73,0,216
0,48,0,24
0,76,114,0
0,55,102,0
0,76,0,216
0,55,0,24
0,73,100,0
0,60,116,0
0,73,0,216
0,60,0,24
0,81,119,0
0,64,125,0
0,81,0,216
0,64,0,24
0,76,106,0
0,60,113,0
0,76,0,216
0,60,0,24
0,73,93,0
0,55,102,0
0,73,0,216
0,55,0,24
0,78,118,0
0,74,118,0
0,38,100,0
0,50,100,0
0,43,90,0
0,38,90,0
0,38,0,196
0,74,0,0
0,78,0,0
0,38,0,0
0,43,0,0
0,50,0,24
0,74,93,0
0,69,93,0
0,33,100,0
0,45,110,0
0,38,90,0
0,43,90,0
0,43,0,216
0,69,0,0
0,74,0,0
0,33,0,0
0,38,0,0
0,45,0,24
0,78,114,0
0,74,114,0
0,38,100,0
0,50,122,0
0,57,122,0
0,43,90,0
0,38,90,0
0,38,0,216
0,43,0,0
0,74,0,1440
0,78,0,0
0,38,0,0
0,33,100,24
0,38,90,0
0,38,0,216
0,33,0,0
0,74,117,24
0,74,100,0
0,35,100,0
0,36,90,0
0,36,0,216
0,74,0,0
0,35,0,0
0,74,0,24
0,76,117,0
0,76,100,0
0,37,100,0
0,36,90,0
0,36,0,216
0,76,0,0
0,37,0,0
0,57,0,24
0,76,0,0
0,50,0,0
0,78,117,0
0,78,100,0
0,74,100,0
0,69,100,0
0,38,100,0
0,54,100,0
0,36,90,0
0,42,90,0
0,42,0,216
0,69,0,24
0,74,0,0
0,78,0,0
0,69,91,0
0,42,90,0
0,42,0,216
0,69,0,24
0,74,114,0
0,42,90,0
0,36,0,168
0,42,0,48
0,78,0,24
0,74,0,0
0,54,0,0
0,81,119,0
0,64,120,0
0,38,90,0
0,42,90,0
0,42,0,136
0,38,0,0
0,64,0,24
0,81,0,0
0,78,109,0
0,62,110,0
0,42,90,0
0,42,0,216
0,38,0,24
0,78,0,0
0,62,0,0
0,78,117,0
0,74,100,0
0,37,100,0
0,59,101,0
0,36,90,0
0,42,90,0
0,42,0,136
0,36,0,0
0,37,0,24
0,78,0,0
0,74,0,0
0,59,0,0
0,78,117,0
0,78,122,0
0,74,122,0
0,69,122,0
0,35,100,0
0,47,96,0
0,36,90,0
0,42,90,0
0,42,0,216
0,47,0,24
0,74,0,0
0,78,0,0
0,69,0,0
0,69,99,0
0,54,106,0
0,42,90,0
0,36,0,192
0,42,0,24
0,69,0,24
0,54,0,0
0,74,113,0
0,59,119,0
0,36,90,0
0,42,90,0
0,42,0,216
0,36,0,0
0,74,0,24
0,59,0,0
0,78,0,0
0,81,120,0
0,62,119,0
0,59,119,0
0,38,90,0
0,42,90,0
0,42,0,216
0,38,0,0
0,81,0,24
0,78,117,0
0,78,111,0
0,36,90,0
0,42,90,0
0,42,0,216
0,36,0,0
0,78,0,24
0,78,0,0
0,78,117,0
0,74,103,0
0,36,90,0
0,42,90,0
0,42,0,16
0,36,0,0
0,35,0,24
0,59,0,0
0,62,0,0
0,74,0,0
0,78,0,0
0,76,117,0
0,76,116,0
0,72,116,0
0,67,116,0
0,36,100,0
0,52,94,0
0,36,90,0
0,42,90,0
0,42,0,216
0,52,0,24
0,76,0,0
0,74,117,0
0,55,105,0
0,42,90,0
0,42,0,216
0,55,0,24
0,60,116,0
0,42,90,0
0,36,0,168
0,42,0,48
0,74,0,24
0,72,0,0
0,76,0,0
0,67,0,0
0,60,0,0
0,79,126,0
0,72,126,0
0,67,126,0
0,64,122,0
0,38,90,0
0,42,90,0
0,42,0,216
0,38,0,0
0,79,0,24
0,72,0,0
0,67,0,0
0,76,115,0
0,42,90,0
0,42,0,216
0,64,0,24
0,36,0,0
0,76,0,0
0,72,104,0
0,31,100,0
0,60,100,0
0,36,90,0
0,42,90,0
0,42,0,216
0,36,0,0
0,72,0,24
0,31,0,0
0,60,0,0
0,81,117,0
0,76,117,0
0,72,117,0
0,36,100,0
0,52,87,0
0,36,90,0
0,42,90,0
0,42,0,216
0,52,0,24
0,55,101,0
0,42,90,0
0,36,0,192
0,42,0,24
0,76,0,24
0,81,0,0
0,72,0,0
0,55,0,0
0,72,122,0
0,76,122,0
0,79,122,0
0,60,114,0
0,36,90,0
0,42,90,0
0,42,0,216
0,36,0,0
0,60,0,24
0,62,123,0
0,57,123,0
0,38,90,0
0,42,90,0
0,42,0,16
0,38,0,0
0,62,0,24
0,72,0,0
0,79,0,0
0,76,0,0
0,57,0,0
0,74,117,0
0,72,94,0
0,55,116,0
0,60,116,0
0,36,90,0
0,42,90,0
0,42,0,116
0,36,0,0
0,74,0,24
0,72,0,0
0,55,0,0
0,60,0,0
0,76,117,0
0,76,108,0
0,52,108,0
0,36,90,0
0,42,90,0
0,42,0,216
0,36,0,0
0,76,0,24
0,36,0,0
0,76,0,0
0,52,0,0
0,78,117,0
0,78,120,0
0,74,120,0
0,69,120,0
0,38,100,0
0,54,123,0
0,36,90,0
0,42,90,0
0,42,0,216
0,69,0,24
0,74,0,0
0,78,0,0
0,69,100,0
0,42,90,0
0,42,0,216
0,69,0,24
0,74,117,0
0,42,90,0
0,36,0,168
0,42,0,48
0,78,0,24
0,74,0,0
0,54,0,0
0,78,117,0
0,81,126,0
0,62,117,0
0,57,117,0
0,38,90,0
0,42,90,0
0,42,0,116
0,38,0,0
0,81,0,24
0,78,116,0
0,42,90,0
0,42,0,215
0,38,0,24
0,57,0,0
0,62,0,0
0,78,0,0
0,74,105,0
0,37,100,0
0,54,100,0
0,36,90,0
0,42,90,0
0,42,0,216
0,36,0,0
0,37,0,24
0,78,0,0
0,74,0,0
0,54,0,0
0,78,117,0
0,78,121,0
0,74,121,0
0,69,121,0
0,35,100,0
0,47,88,0
0,36,90,0
0,42,90,0
0,42,0,216
0,47,0,24
0,74,0,0
0,78,0,0
0,69,0,0
0,69,100,0
0,54,100,0
0,42,90,0
0,36,0,192
0,42,0,24
0,69,0,24
0,54,0,0
0,74,119,0
0,59,113,0
0,36,90,0
0,42,90,0
0,42,0,216
0,36,0,0
0,74,0,24
0,59,0,0
0,78,0,0
0,81,125,0
0,66,123,0
0,62,123,0
0,59,123,0
0,38,90,0
0,42,90,0
0,42,0,216
0,38,0,0
0,81,0,24
0,78,116,0
0,36,90,0
0,42,90,0
0,42,0,216
0,36,0,0
0,78,0,24
0,79,117,0
0,74,107,0
0,36,90,0
0,42,90,0
0,42,0,216
0,36,0,0
0,79,0,24
0,66,0,0
0,62,0,0
0,59,0,0
0,74,0,0
0,35,0,0
0,78,117,0
0,81,119,0
0,72,119,0
0,76,119,0
0,36,100,0
0,52,93,0
0,36,90,0
0,42,90,0
0,42,0,216
0,52,0,24
0,55,105,0
0,42,90,0
0,42,0,216
0,55,0,24
0,78,0,0
0,76,117,0
0,60,117,0
0,42,90,0
0,36,0,168
0,42,0,48
0,60,0,24
0,64,120,0
0,38,90,0
0,42,90,0
0,42,0,216
0,38,0,0
0,72,0,24
0,76,0,0
0,81,0,0
0,81,121,0
0,76,121,0
0,42,90,0
0,42,0,216
0,36,0,24
0,64,0,0
0,81,0,0
0,76,0,0
0,72,116,0
0,78,116,0
0,31,100,0
0,60,114,0
0,36,90,0
0,42,90,0
0,42,0,216
0,36,0,0
0,72,0,24
0,78,0,0
0,76,0,0
0,60,0,0
0,31,0,0
0,81,113,0
0,76,113,0
0,36,100,0
0,52,98,0
0,36,90,0
0,42,90,0
0,42,0,216
0,76,0,24
0,81,0,0
0,52,0,0
0,72,113,0
0,78,113,0
0,55,109,0
0,42,90,0
0,36,0,192
0,42,0,24
0,78,0,24
0,55,0,0
0,72,0,0
0,74,111,0
0,60,120,0
0,36,90,0
0,42,90,0
0,42,0,216
0,36,0,0
0,60,0,24
0,74,0,0
0,81,112,0
0,76,112,0
0,62,123,0
0,38,90,0
0,42,90,0
0,42,0,96
0,38,0,0
0,76,0,24
0,62,0,0
0,81,0,0
0,74,117,0
0,74,113,0
0,60,114,0
0,36,90,0
0,42,90,0
0,42,0,116
0,36,0,0
0,74,0,24
0,60,0,0
0,74,0,0
0,76,117,0
0,69,114,0
0,57,106,0
0,36,90,0
0,42,90,0
0,42,0,216
0,36,0,0
0,69,0,24
0,36,0,0
0,76,0,0
0,57,0,0
0,78,117,0
0,78,115,0
0,74,115,0
0,69,115,0
0,38,100,0
0,54,116,0
0,36,90,0
0,42,90,0
0,42,0,216
0,78,0,24
0,79,117,0
0,42,90,0
0,42,0,216
0,79,0,24
0,81,117,0
0,42,90,0
0,36,0,168
0,54,0,0
0,42,0,48
0,74,0,24
0,81,0,0
0,69,0,0
0,78,0,0
0,83,117,0
0,81,117,0
0,78,117,0
0,74,117,0
0,64,123,0
0,38,90,0
0,42,90,0
0,42,0,136
0,38,0,0
0,64,0,0
0,59,110,24
0,42,90,0
0,42,0,216
0,59,0,0
0,83,0,24
0,38,0,0
0,81,117,0
0,37,100,0
0,54,97,0
0,36,90,0
0,42,90,0
0,81,0,120
0,83,117,0
0,42,0,96
0,36,0,0
0,54,0,0
0,74,0,24
0,78,0,0
0,81,0,0
0,37,0,0
0,83,0,0
0,81,117,0
0,78,119,0
0,74,119,0
0,69,119,0
0,35,100,0
0,47,89,0
0,36,90,0
0,42,90,0
0,42,0,216
0,47,0,0
0,54,105,24
0,42,90,0
0,36,0,192
0,42,0,24
0,54,0,0
0,59,120,24
0,36,90,0
0,42,90,0
0,42,0,216
0,36,0,0
0,59,0,0
0,69,0,24
0,81,0,0
0,74,0,0
0,78,0,0
0,81,119,0
0,78,119,0
0,74,119,0
0,62,117,0
0,38,90,0
0,42,90,0
0,42,0,216
0,38,0,0
0,78,117,24
0,36,90,0
0,42,90,0
0,42,0,216
0,36,0,0
0,78,0,24
0,81,117,0
0,36,90,0
0,42,90,0
0,62,0,192
0,42,0,24
0,36,0,0
0,74,0,24
0,78,0,0
0,35,0,0
0,81,0,0
0,76,112,0
0,67,112,0
0,72,112,0
0,36,100,0
0,52,90,0
0,36,90,0
0,42,90,0
0,42,0,216
0,52,0,0
0,81,0,24
0,79,117,0
0,55,105,0
0,42,90,0
0,42,0,216
0,55,0,0
0,76,0,24
0,67,0,0
0,72,0,0
0,79,0,0
0,78,117,0
0,72,114,0
0,76,114,0
0,67,114,0
0,60,119,0
0,42,90,0
0,36,0,168
0,42,0,48
0,60,0,0
0,78,0,24
0,72,0,0
0,76,0,0
0,67,0,0
0,76,117,0
0,79,113,0
0,52,120,0
0,38,90,0
0,42,90,0
0,42,0,216
0,52,0,0
0,38,0,0
0,79,0,24
0,76,105,0
0,52,119,0
0,42,90,0
0,42,0,216
0,76,0,24
0,36,0,0
0,72,96,0
0,31,100,0
0,36,90,0
0,42,90,0
0,52,0,192
0,36,0,24
0,42,0,0
0,76,0,24
0,31,0,0
0,72,0,0
0,72,117,0
0,76,117,0
0,81,117,0
0,36,100,0
0,62,120,0
0,36,90,0
0,42,90,0
0,42,0,16
0,78,117,24
0,42,90,0
0,36,0,192
0,42,0,24
0,81,0,24
0,76,0,0
0,72,0,0
0,78,0,0
0,76,117,0
0,72,100,0
0,76,100,0
0,79,100,0
0,36,90,0
0,42,90,0
0,62,0,168
0,42,0,48
0,36,0,0
0,76,0,24
0,74,117,0
0,60,118,0
0,38,90,0
0,42,90,0
0,42,0,156
0,38,0,0
0,60,0,0
0,79,0,24
0,76,0,0
0,36,0,0
0,72,0,0
0,72,95,0
0,31,100,0
0,57,113,0
0,36,90,0
0,42,90,0
0,42,0,216
0,57,0,0
0,36,0,0
0,74,0,24
0,31,0,0
0,72,0,0
0,76,103,0
0,36,100,0
0,55,107,0
0,36,90,0
0,42,90,0
0,42,0,216
0,55,0,0
0,36,0,0
0,36,0,24
0,76,0,0
0,78,117,0
0,78,112,0
0,74,112,0
0,71,112,0
0,35,100,0
0,47,102,0
0,36,90,0
0,49,90,0
0,49,0,216
0,47,0,0
0,54,111,24
0,42,90,0
0,36,0,192
0,42,0,24
0,54,0,0
0,57,119,24
0,36,90,0
0,42,90,0
0,42,0,216
0,36,0,0
0,57,0,0
0,71,0,24
0,78,0,0
0,74,0,0
0,78,0,0
0,78,117,0
0,81,116,0
0,57,126,0
0,62,126,0
0,38,90,0
0,42,90,0
0,42,0,216
0,62,0,0
0,57,0,0
0,38,0,0
0,35,0,24
0,30,100,0
0,57,116,0
0,36,90,0
0,42,90,0
0,42,0,216
0,57,0,0
0,36,0,0
0,78,0,24
0,30,0,0
0,81,117,0
0,35,100,0
0,54,107,0
0,36,90,0
0,42,90,0
0,42,0,216
0,54,0,0
0,36,0,0
0,81,0,24
0,35,0,0
0,81,0,0
0,79,117,0
0,73,100,0
0,36,100,0
0,48,115,0
0,36,90,0
0,42,90,0
0,42,0,216
0,73,0,24
0,76,110,0
0,42,90,0
0,42,0,216
0,76,0,24
0,73,100,0
0,42,90,0
0,36,0,168
0,48,0,0
0,42,0,48
0,73,0,24
0,81,115,0
0,76,115,0
0,73,115,0
0,60,126,0
0,64,126,0
0,38,90,0
0,42,90,0
0,42,0,216
0,38,0,0
0,76,0,24
0,73,0,0
0,81,0,0
0,36,0,0
0,76,109,0
0,38,100,0
0,36,90,0
0,42,90,0
0,42,0,216
0,36,0,0
0,76,0,24
0,38,0,0
0,73,103,0
0,40,100,0
0,36,90,0
0,42,90,0
0,64,0,192
0,60,0,0
0,36,0,24
0,42,0,0
0,79,0,24
0,73,0,0
0,40,0,0
0,78,117,0
0,78,120,0
0,74,120,0
0,42,100,0
0,43,90,0
0,43,0,216
0,78,0,24
0,74,0,0
0,78,0,0
0,76,117,0
0,69,98,0
0,43,90,0
0,43,0,216
0,69,0,24
0,76,0,0
0,74,117,0
0,78,120,0
0,74,120,0
0,43,90,0
0,43,0,216
0,62,106,24
0,62,0,240
