track,note,velocity,time
2,71,79,12480
2,76,79,32
2,78,79,32
2,71,79,900
2,76,79,32
2,78,79,32
2,79,79,32
2,81,79,32
2,79,79,32
2,81,79,32
2,83,79,64
2,81,79,420
2,79,79,516
2,76,79,0
2,71,79,1632
2,76,79,32
2,78,79,32
2,71,79,900
2,76,79,32
2,78,79,32
2,79,79,32
2,81,79,32
2,79,79,32
2,81,79,32
2,79,79,0
2,83,79,32
2,81,79,420
2,79,79,516
2,79,79,904
2,79,79,32
2,81,79,32
2,79,79,32
2,83,95,32
2,81,95,0
2,81,95,324
2,81,95,32
2,79,95,32
2,79,95,32
2,79,95,516
2,79,95,32
2,81,95,32
2,79,95,32
2,83,95,32
2,83,95,0
2,84,95,0
2,83,95,0
2,81,95,0
2,74,95,228
2,81,95,32
2,81,95,32
2,79,95,32
2,79,95,32
2,81,95,160
2,83,95,32
2,83,111,32
2,81,95,452
2,79,95,0
2,78,95,96
2,76,95,32
2,78,95,32
2,79,95,32
2,81,95,256
2,79,95,64
2,78,95,160
2,79,95,32
2,83,95,32
2,81,95,32
2,79,95,0
2,81,95,256
2,79,95,64
2,78,95,160
2,76,95,32
2,78,95,32
2,79,95,32
2,83,95,64
2,81,95,64
2,81,95,32
2,79,95,32
2,78,95,32
2,78,95,32
2,78,95,32
2,79,95,32
2,79,95,32
2,81,95,256
2,79,95,64
2,78,95,160
2,76,95,32
2,78,95,32
2,79,95,32
2,81,95,256
2,79,95,64
2,78,95,160
2,79,95,32
2,83,95,32
2,81,95,32
2,79,95,0
2,81,95,256
2,79,95,64
2,78,95,160
2,76,95,32
2,78,95,32
2,79,95,32
2,83,95,64
2,81,95,64
2,81,95,32
2,79,95,32
2,78,95,32
2,78,95,32
2,78,95,32
2,79,95,32
2,79,95,32
2,71,79,448
2,76,79,32
2,78,79,32
2,71,79,900
2,76,79,32
2,78,79,32
2,79,79,32
2,81,79,32
2,79,79,32
2,81,79,32
2,83,79,64
2,81,79,420
2,79,79,516
2,76,79,0
2,71,79,1632
2,76,79,32
2,78,79,32
2,71,79,900
2,76,79,32
2,78,79,32
2,79,79,32
2,81,79,32
2,79,79,32
2,81,79,32
2,79,79,0
2,83,79,32
2,81,79,420
2,79,79,516
2,79,79,904
2,79,79,32
2,81,79,32
2,79,79,32
2,83,95,32
2,81,95,0
2,81,95,324
2,81,95,32
2,79,95,32
2,79,95,32
2,79,95,516
2,79,95,32
2,81,95,32
2,79,95,32
2,83,95,32
2,83,95,0
2,84,95,0
2,83,95,0
2,81,95,0
2,74,95,228
2,81,95,32
2,81,95,32
2,79,95,32
2,79,95,32
2,81,95,160
2,83,95,32
2,83,111,32
2,81,95,452
2,79,95,0
2,78,95,96
2,76,95,32
2,78,95,32
2,79,95,32
2,81,95,256
2,79,95,64
2,78,95,160
2,79,95,32
2,83,95,32
2,81,95,32
2,79,95,0
2,81,95,256
2,79,95,64
2,78,95,160
2,76,95,32
2,78,95,32
2,79,95,32
2,83,95,64
2,81,95,64
2,81,95,32
2,79,95,32
2,78,95,32
2,78,95,32
2,78,95,32
2,79,95,32
2,79,95,32
2,81,95,256
2,79,95,64
2,78,95,160
2,76,95,32
2,78,95,32
2,79,95,32
2,81,95,256
2,79,95,64
2,78,95,160
2,79,95,32
2,83,95,32
2,81,95,32
2,79,95,0
2,81,95,256
2,79,95,64
2,78,95,160
2,76,95,32
2,78,95,32
2,79,95,32
2,83,95,64
2,81,95,64
2,81,95,32
2,79,95,32
2,78,95,32
2,78,95,32
2,78,95,32
2,79,95,32
2,79,95,32
2,81,95,256
2,79,95,0
2,78,95,96
2,76,95,32
2,78,95,32
2,79,95,32
2,81,95,256
2,79,95,64
2,78,95,160
2,79,95,32
2,83,95,32
2,81,95,32
2,79,95,0
2,81,95,256
2,79,95,64
2,78,95,160
2,76,95,32
2,78,95,32
2,79,95,32
2,83,95,64
2,81,95,64
2,81,95,32
2,79,95,32
2,78,95,32
2,78,95,32
2,78,95,32
2,79,95,32
2,79,95,32
2,81,95,256
2,79,95,64
2,78,95,160
2,76,95,32
2,78,95,32
2,79,95,32
2,81,95,256
2,79,95,64
2,78,95,160
2,79,95,32
2,83,95,32
2,81,95,32
2,79,95,0
2,81,95,256
2,79,95,64
2,78,95,160
2,76,95,32
2,78,95,32
2,79,95,32
2,76,79,1600
2,83,79,132
2,81,79,132
2,79,79,68
2,76,79,68
2,83,79,136
2,81,79,136
2,79,79,68
2,76,79,68
2,83,79,132
2,81,79,132
2,79,79,68
2,78,79,68
2,81,95,6596
2,79,95,0
2,78,95,96
2,76,95,32
2,78,95,32
2,79,95,32
2,81,95,256
2,79,95,64
2,78,95,160
2,79,95,32
2,83,95,32
2,81,95,32
2,79,95,0
2,81,95,256
2,79,95,64
2,78,95,160
2,76,95,32
2,78,95,32
2,79,95,32
2,83,95,64
2,81,95,64
2,81,95,32
2,79,95,32
2,78,95,32
2,78,95,32
2,78,95,32
2,79,95,32
2,79,95,32
2,81,95,256
2,79,95,64
2,78,95,160
2,76,95,32
2,78,95,32
2,79,95,32
2,81,95,256
2,79,95,64
2,78,95,160
2,79,95,32
2,83,95,32
2,81,95,32
2,79,95,0
2,81,95,256
2,79,95,64
2,78,95,160
2,76,95,32
2,78,95,32
2,79,95,32
2,83,95,64
2,81,95,64
2,81,95,32
2,79,95,32
2,78,95,32
2,78,95,32
2,78,95,32
2,79,95,32
2,79,95,32
2,81,95,12544
2,79,95,0
2,78,95,96
2,76,95,32
2,78,95,32
2,79,95,32
2,81,95,256
2,79,95,64
2,78,95,160
2,79,95,32
2,83,95,32
2,81,95,32
2,79,95,0
2,81,95,256
2,79,95,64
2,78,95,160
2,76,95,32
2,78,95,32
2,79,95,32
2,83,95,64
2,81,95,64
2,81,95,32
2,79,95,32
2,78,95,32
2,78,95,32
2,78,95,32
2,79,95,32
2,79,95,32
2,81,95,256
2,79,95,64
2,78,95,160
2,76,95,32
2,78,95,32
2,79,95,32
2,81,95,256
2,79,95,64
2,78,95,160
2,79,95,32
2,83,95,32
2,81,95,32
2,79,95,0
2,81,95,256
2,79,95,64
2,78,95,160
2,76,95,32
2,78,95,32
2,79,95,32
2,83,95,1600
2,83,95,1928
3,76,79,0
3,78,79,132
3,79,95,132
3,76,95,260
3,78,95,132
3,79,95,132
3,76,95,0
3,78,95,132
3,79,95,132
3,76,95,260
3,78,95,132
3,79,95,132
3,67,79,260
3,66,79,32
3,64,79,260
3,67,79,260
3,66,79,32
3,64,79,260
3,67,79,260
3,59,79,132
3,64,79,32
3,66,79,32
3,64,79,260
3,59,79,132
3,64,79,32
3,66,79,32
3,67,79,32
3,69,79,32
3,67,79,32
3,69,79,32
3,71,79,64
3,71,79,196
3,69,79,32
3,67,79,260
3,67,111,452
3,66,111,64
3,62,111,64
3,64,111,64
3,59,79,136
3,64,79,32
3,66,79,32
3,64,79,260
3,59,79,132
3,64,79,32
3,66,79,32
3,67,79,32
3,69,79,32
3,67,79,32
3,69,79,32
3,71,79,64
3,71,79,196
3,69,79,32
3,67,79,260
3,64,79,260
3,67,79,136
3,67,79,32
3,69,79,32
3,67,95,32
3,71,95,32
3,69,95,32
3,71,95,196
3,69,111,32
3,67,111,32
3,67,111,32
3,67,95,132
3,67,95,132
3,67,95,32
3,69,95,32
3,67,95,32
3,71,95,32
3,69,95,32
3,69,95,196
3,69,95,32
3,67,111,32
3,67,111,32
3,69,111,160
3,71,111,32
3,71,111,32
3,71,95,452
3,71,95,64
3,71,95,96
3,71,95,32
3,71,95,32
3,71,95,32
3,71,95,256
3,71,95,64
3,71,95,96
3,71,95,32
3,71,95,32
3,71,95,32
3,71,95,256
3,71,95,64
3,71,95,96
3,71,95,32
3,71,95,32
3,71,95,32
3,71,95,64
3,69,95,64
3,69,95,32
3,67,95,32
3,66,95,32
3,66,95,32
3,66,95,32
3,67,95,32
3,67,95,32
3,71,95,256
3,71,95,64
3,71,95,96
3,71,95,32
3,71,95,32
3,71,95,32
3,71,95,256
3,71,95,64
3,71,95,96
3,71,95,32
3,71,95,32
3,71,95,32
3,71,95,256
3,71,95,64
3,71,95,96
3,71,95,32
3,71,95,32
3,71,95,32
3,71,95,64
3,69,95,64
3,69,95,32
3,67,95,32
3,66,95,32
3,66,95,32
3,66,95,32
3,67,95,32
3,67,95,32
3,67,79,64
3,59,79,132
3,64,79,32
3,66,79,32
3,64,79,260
3,59,79,132
3,64,79,32
3,66,79,32
3,67,79,32
3,69,79,32
3,67,79,32
3,69,79,32
3,71,79,64
3,71,79,196
3,69,79,32
3,67,79,260
3,67,127,452
3,66,127,64
3,62,127,64
3,64,127,64
3,59,79,136
3,64,79,32
3,66,79,32
3,64,79,260
3,59,79,132
3,64,79,32
3,66,79,32
3,67,79,32
3,69,79,32
3,67,79,32
3,69,79,32
3,71,79,64
3,71,79,196
3,69,79,32
3,67,79,260
3,64,79,260
3,67,79,136
3,67,79,32
3,69,79,32
3,67,95,32
3,71,95,32
3,69,95,32
3,71,95,196
3,69,111,32
3,67,111,32
3,67,111,32
3,67,95,132
3,67,95,132
3,67,95,32
3,69,95,32
3,67,95,32
3,71,95,32
3,69,95,32
3,69,95,196
3,69,95,32
3,67,111,32
3,67,111,32
3,69,111,160
3,71,111,32
3,71,111,32
3,71,95,452
3,71,95,64
3,71,95,96
3,71,95,32
3,71,95,32
3,71,95,32
3,71,95,256
3,71,95,64
3,71,95,96
3,71,95,32
3,71,95,32
3,71,95,32
3,71,95,256
3,71,95,64
3,71,95,96
3,71,95,32
3,71,95,32
3,71,95,32
3,71,95,64
3,69,95,64
3,69,95,32
3,67,95,32
3,66,95,32
3,66,95,32
3,66,95,32
3,67,95,32
3,67,95,32
3,71,95,256
3,71,95,64
3,71,95,96
3,71,95,32
3,71,95,32
3,71,95,32
3,71,95,256
3,71,95,64
3,71,95,96
3,71,95,32
3,71,95,32
3,71,95,32
3,71,95,256
3,71,95,64
3,71,95,96
3,71,95,32
3,71,95,32
3,71,95,32
3,71,95,64
3,69,95,64
3,69,95,32
3,67,95,32
3,66,95,32
3,66,95,32
3,66,95,32
3,67,95,32
3,67,95,32
3,71,95,256
3,71,95,64
3,71,95,96
3,71,95,32
3,71,95,32
3,71,95,32
3,71,95,256
3,71,95,64
3,71,95,96
3,71,95,32
3,71,95,32
3,71,95,32
3,71,95,256
3,71,95,64
3,71,95,96
3,71,95,32
3,71,95,32
3,71,95,32
3,71,95,64
3,69,95,64
3,69,95,32
3,67,95,32
3,66,95,32
3,66,95,32
3,66,95,32
3,67,95,32
3,67,95,32
3,71,95,256
3,71,95,64
3,71,95,96
3,71,95,32
3,71,95,32
3,71,95,32
3,71,95,256
3,71,95,64
3,71,95,96
3,71,95,32
3,71,95,32
3,71,95,32
3,71,95,256
3,71,95,64
3,71,95,96
3,71,95,32
3,71,95,32
3,71,95,32
3,71,95,64
3,69,111,64
3,69,111,32
3,67,111,32
3,66,111,32
3,66,111,132
3,76,95,132
3,78,95,140
3,79,95,140
3,76,95,276
3,78,95,140
3,79,95,140
3,76,95,276
3,78,95,132
3,79,95,132
3,76,95,260
3,78,95,132
3,79,95,132
3,76,111,260
3,78,111,140
3,79,111,140
3,76,111,276
3,78,111,140
3,79,111,140
3,76,111,276
3,78,111,132
3,79,111,132
3,76,111,260
3,78,111,132
3,79,127,132
3,71,95,452
3,71,95,64
3,71,95,96
3,71,95,32
3,71,95,32
3,71,95,32
3,71,95,256
3,71,95,64
3,71,95,96
3,71,95,32
3,71,95,32
3,71,95,32
3,71,95,256
3,71,95,64
3,71,95,96
3,71,95,32
3,71,95,32
3,71,95,32
3,71,95,64
3,69,95,64
3,69,95,32
3,67,95,32
3,66,95,32
3,66,95,32
3,66,95,32
3,67,95,32
3,67,95,32
3,71,95,256
3,71,95,64
3,71,95,96
3,71,95,32
3,71,95,32
3,71,95,32
3,71,95,256
3,71,95,64
3,71,95,96
3,71,95,32
3,71,95,32
3,71,95,32
3,71,95,256
3,71,95,64
3,71,95,96
3,71,95,32
3,71,95,32
3,71,95,32
3,71,95,64
3,69,95,64
3,69,95,32
3,67,95,32
3,66,95,32
3,66,95,32
3,66,95,32
3,67,95,32
3,67,95,32
3,71,111,256
3,71,111,64
3,71,111,96
3,71,111,32
3,71,111,32
3,71,111,32
3,71,111,256
3,71,111,64
3,71,111,96
3,71,111,32
3,71,111,32
3,71,111,32
3,71,111,256
3,71,111,64
3,71,111,96
3,71,111,32
3,71,111,32
3,71,111,32
3,71,111,64
3,69,111,64
3,69,111,32
3,67,111,32
3,66,111,32
3,66,111,32
3,66,111,32
3,67,111,32
3,67,111,32
3,71,111,256
3,71,111,64
3,71,111,96
3,71,111,32
3,71,111,32
3,71,111,32
3,71,111,256
3,71,111,64
3,71,111,96
3,71,111,32
3,71,111,32
3,71,111,32
3,71,111,256
3,71,111,64
3,71,111,96
3,71,111,32
3,71,111,32
3,71,111,32
3,71,111,64
3,69,111,64
3,69,111,32
3,67,111,32
3,66,111,32
3,66,111,44
3,66,111,44
3,66,111,44
3,66,111,44
3,66,111,44
3,71,95,236
3,71,95,64
3,71,95,96
3,71,95,32
3,71,95,32
3,71,95,32
3,71,95,256
3,71,95,64
3,71,95,96
3,71,95,32
3,71,95,32
3,71,95,32
3,71,95,256
3,71,95,64
3,71,95,96
3,71,95,32
3,71,95,32
3,71,95,32
3,71,95,64
3,69,95,64
3,69,95,32
3,67,95,32
3,66,95,32
3,66,95,32
3,66,95,32
3,67,95,32
3,67,95,32
3,71,95,256
3,71,95,64
3,71,95,96
3,71,95,32
3,71,95,32
3,71,95,32
3,71,95,256
3,71,95,64
3,71,95,96
3,71,95,32
3,71,95,32
3,71,95,32
3,71,95,256
3,71,95,64
3,71,95,96
3,71,95,32
3,71,95,32
3,71,95,32
3,71,111,64
3,69,111,64
3,69,111,32
3,67,111,32
3,66,111,32
3,66,111,0
3,66,111,44
3,66,111,44
3,66,111,44
3,66,111,44
3,66,111,44
3,76,111,44
3,78,111,136
3,79,111,136
3,76,111,520
3,78,111,136
3,79,111,136
3,76,111,520
3,78,111,136
3,79,111,136
3,71,111,136
3,64,111,32
3,76,111,32
3,76,111,32
4,64,63,96
4,71,63,32
4,64,63,32
4,64,63,128
4,71,63,32
4,64,79,32
4,64,79,128
4,71,79,32
4,64,79,32
4,71,79,32
4,64,79,32
4,71,79,32
4,64,79,32
4,64,79,128
4,71,79,32
4,64,79,32
4,64,79,128
4,71,79,32
4,64,79,32
4,64,79,128
4,71,79,32
4,64,79,32
4,71,79,32
4,64,79,32
4,71,79,32
4,64,79,32
4,64,79,96
4,71,79,32
4,64,79,32
4,64,79,128
4,71,79,32
4,64,79,32
4,64,79,128
4,71,79,32
4,64,79,32
4,71,79,32
4,64,79,32
4,71,79,32
4,64,79,32
4,64,79,128
4,71,79,32
4,64,79,32
4,64,79,128
4,71,79,32
4,64,79,32
4,64,79,128
4,71,79,32
4,64,79,32
4,71,79,32
4,64,79,32
4,71,79,32
4,64,79,64
4,62,79,32
4,60,79,260
4,64,79,260
4,62,79,32
4,60,79,260
4,64,79,260
4,62,79,420
4,60,79,260
4,67,79,1284
4,67,79,196
4,66,79,32
4,64,79,260
4,59,79,1028
4,62,79,424
4,60,79,260
4,67,79,1284
4,67,79,196
4,66,79,32
4,64,79,260
4,60,79,260
4,64,79,136
4,66,95,128
4,67,95,128
4,66,95,32
4,62,111,292
4,64,111,32
4,64,111,0
4,64,95,132
4,64,95,132
4,66,95,128
4,67,95,128
4,67,95,32
4,66,95,0
4,66,95,296
4,64,111,32
4,64,111,32
4,66,111,160
4,67,111,32
4,67,111,32
4,69,95,452
4,67,95,64
4,66,95,96
4,64,95,0
4,66,95,32
4,67,95,32
4,69,95,256
4,67,95,64
4,66,95,96
4,64,95,32
4,66,95,32
4,67,95,32
4,69,95,256
4,67,95,64
4,66,95,96
4,64,95,32
4,66,95,32
4,67,95,32
4,64,95,64
4,64,95,160
4,64,95,32
4,62,95,32
4,63,95,224
