track,note,velocity,time
3,69,64,2304
3,69,0,96
3,76,64,0
3,76,0,144
3,78,64,0
3,78,0,48
3,74,64,0
3,74,0,48
3,69,64,0
3,69,0,48
3,69,64,0
3,69,0,192
3,69,64,0
3,69,0,96
3,76,64,0
3,76,0,144
3,73,64,0
3,73,0,48
3,74,64,0
3,74,0,288
3,74,64,0
3,74,0,96
3,73,64,0
3,73,0,96
3,74,64,0
3,74,0,96
3,73,64,0
3,73,0,96
3,69,64,0
3,69,0,96
3,73,64,0
3,66,64,48
3,66,0,48
3,73,0,0
3,71,64,0
3,73,64,0
3,73,0,48
3,71,64,0
3,71,0,240
3,71,0,0
3,69,64,288
3,69,0,96
3,76,64,0
3,76,0,144
3,78,64,0
3,78,0,48
3,74,64,0
3,74,0,48
3,69,64,0
3,69,0,48
3,69,64,0
3,69,0,192
3,69,64,0
3,69,0,96
3,76,64,0
3,76,0,144
3,73,64,0
3,73,0,48
3,74,64,0
3,74,0,288
3,74,64,0
3,74,0,96
3,73,64,0
3,73,0,96
3,74,64,0
3,74,0,96
3,73,64,0
3,73,0,96
3,69,64,0
3,69,0,96
3,73,64,0
3,66,64,48
3,66,0,48
3,73,0,0
3,71,64,0
3,73,64,0
3,73,0,48
3,71,64,0
3,71,0,240
3,71,0,0
3,76,64,240
3,76,0,48
3,76,64,0
3,76,0,96
3,76,64,0
3,76,0,144
3,74,64,0
3,74,0,48
3,74,64,0
3,74,0,24
3,71,64,0
3,71,0,72
3,76,64,144
3,76,0,48
3,78,64,0
3,78,0,96
3,76,64,0
3,76,0,48
3,74,64,0
3,74,0,48
3,74,64,0
3,74,0,96
3,71,64,0
3,71,0,96
3,73,64,96
3,73,0,96
3,74,64,0
3,74,0,192
3,74,64,0
3,74,0,96
3,73,64,0
3,73,0,96
3,74,64,0
3,74,0,96
3,73,64,0
3,73,0,48
3,71,64,0
3,71,0,48
3,73,64,0
3,73,0,48
3,71,64,0
3,71,0,240
3,74,64,576
3,74,0,96
3,78,64,0
3,78,0,96
3,79,64,0
3,79,0,96
3,81,64,0
3,81,0,240
3,78,64,0
3,78,0,48
3,81,64,0
3,81,0,240
3,74,64,0
3,74,0,48
3,81,64,0
3,81,0,192
3,83,64,0
3,83,0,96
3,83,64,0
3,83,0,48
3,81,64,0
3,81,0,240
3,81,64,0
3,81,0,96
3,79,64,0
3,79,0,144
3,78,64,0
3,78,0,48
3,76,64,0
3,76,0,192
3,78,64,0
3,78,0,48
3,74,64,0
3,79,64,0
3,79,0,48
3,74,0,0
3,81,64,0
3,81,0,96
3,79,64,0
3,79,0,96
3,78,64,0
3,78,0,96
3,78,64,0
3,78,0,1
3,76,64,23
3,76,0,24
3,74,64,0
3,74,0,144
3,74,64,48
3,74,0,48
3,81,64,0
3,81,0,240
3,78,64,0
3,78,0,48
3,81,64,0
3,81,0,240
3,74,64,0
3,74,0,48
3,81,64,0
3,81,0,192
3,83,64,0
3,83,0,96
3,83,64,0
3,83,0,48
3,81,64,0
3,81,0,240
3,81,64,0
3,81,0,96
3,79,64,0
3,79,0,144
3,78,64,0
3,78,0,48
3,76,64,0
3,76,0,192
3,78,64,0
3,78,0,48
3,74,64,0
3,79,64,0
3,79,0,48
3,74,0,0
3,81,64,0
3,81,0,96
3,79,64,0
3,79,0,144
3,78,64,0
3,78,0,48
3,76,64,0
3,76,0,48
3,74,64,0
3,74,0,144
3,74,64,0
3,74,0,48
3,73,64,0
3,73,0,48
3,74,64,0
3,74,0,192
3,69,64,2112
3,69,0,96
3,76,64,0
3,76,0,144
3,78,64,0
3,78,0,48
3,74,64,0
3,74,0,48
3,69,64,0
3,69,0,48
3,69,64,0
3,69,0,192
3,69,64,0
3,69,0,96
3,76,64,0
3,76,0,144
3,73,64,0
3,73,0,48
3,74,64,0
3,74,0,288
3,74,64,0
3,74,0,96
3,73,64,0
3,73,0,96
3,74,64,0
3,74,0,96
3,73,64,0
3,73,0,96
3,69,64,0
3,69,0,96
3,73,64,0
3,66,64,48
3,66,0,48
3,73,0,0
3,71,64,0
3,73,64,0
3,73,0,48
3,71,64,0
3,71,0,240
3,71,0,0
3,69,64,288
3,69,0,96
3,76,64,0
3,76,0,144
3,78,64,0
3,78,0,48
3,74,64,0
3,74,0,48
3,69,64,0
3,69,0,48
3,69,64,0
3,69,0,192
3,69,64,0
3,69,0,96
3,76,64,0
3,76,0,144
3,73,64,0
3,73,0,48
3,74,64,0
3,74,0,288
3,74,64,0
3,74,0,96
3,73,64,0
3,73,0,96
3,74,64,0
3,74,0,96
3,73,64,0
3,73,0,96
3,69,64,0
3,69,0,96
3,73,64,0
3,66,64,48
3,66,0,48
3,73,0,0
3,71,64,0
3,73,64,0
3,73,0,48
3,71,64,0
3,71,0,240
3,71,0,0
3,76,64,240
3,76,0,48
3,76,64,0
3,76,0,96
3,76,64,0
3,76,0,144
3,74,64,0
3,74,0,48
3,74,64,0
3,74,0,24
3,71,64,0
3,71,0,72
3,76,64,144
3,76,0,48
3,78,64,0
3,78,0,96
3,76,64,0
3,76,0,48
3,74,64,0
3,74,0,48
3,74,64,0
3,74,0,96
3,71,64,0
3,71,0,96
3,73,64,96
3,73,0,96
3,74,64,0
3,74,0,192
3,74,64,0
3,74,0,96
3,73,64,0
3,73,0,96
3,74,64,0
3,74,0,96
3,73,64,0
3,73,0,48
3,71,64,0
3,71,0,48
3,73,64,0
3,73,0,48
3,71,64,0
3,71,0,240
3,74,64,576
3,74,0,96
3,78,64,0
3,78,0,96
3,79,64,0
3,79,0,96
3,81,64,0
3,81,0,240
3,78,64,0
3,78,0,48
3,81,64,0
3,81,0,240
3,74,64,0
3,74,0,48
3,81,64,0
3,81,0,192
3,83,64,0
3,83,0,96
3,83,64,0
3,83,0,48
3,81,64,0
3,81,0,240
3,81,64,0
3,81,0,96
3,79,64,0
3,79,0,144
3,78,64,0
3,78,0,48
3,76,64,0
3,76,0,192
3,78,64,0
3,78,0,48
3,74,64,0
3,79,64,0
3,79,0,48
3,74,0,0
3,81,64,0
3,81,0,96
3,79,64,0
3,79,0,96
3,78,64,0
3,78,0,96
3,78,64,0
3,78,0,1
3,76,64,23
3,76,0,24
3,74,64,0
3,74,0,144
3,74,64,48
3,74,0,48
3,81,64,0
3,81,0,240
3,78,64,0
3,78,0,48
3,81,64,0
3,81,0,240
3,74,64,0
3,74,0,48
3,81,64,0
3,81,0,192
3,83,64,0
3,83,0,96
3,83,64,0
3,83,0,48
3,81,64,0
3,81,0,240
3,81,64,0
3,81,0,96
3,79,64,0
3,79,0,144
3,78,64,0
3,78,0,48
3,76,64,0
3,76,0,192
3,78,64,0
3,78,0,48
3,74,64,0
3,79,64,0
3,79,0,48
3,74,0,0
3,81,64,0
3,81,0,96
3,79,64,0
3,79,0,144
3,78,64,0
3,78,0,48
3,76,64,0
3,76,0,48
3,74,64,0
3,74,0,144
3,74,64,0
3,74,0,48
3,73,64,0
3,73,0,48
3,74,64,0
3,74,0,192
4,50,64,0
4,69,64,0
4,50,0,48
4,54,64,0
4,54,0,48
4,69,0,0
4,57,64,0
4,76,64,0
4,57,0,48
4,62,64,0
4,62,0,48
4,57,64,0
4,76,0,48
4,78,64,0
4,78,0,48
4,74,64,0
4,57,0,48
4,62,64,0
4,74,0,48
4,69,64,0
4,62,0,48
4,57,64,0
4,57,0,48
4,62,64,0
4,62,0,12
4,69,0,0
4,49,64,0
4,64,64,0
4,69,64,0
4,49,0,48
4,52,64,0
4,52,0,48
4,69,0,0
4,64,0,0
4,57,64,0
4,76,64,0
4,57,0,48
4,61,64,0
4,61,0,48
4,64,64,0
4,76,0,48
4,73,64,0
4,73,0,48
4,64,0,0
4,47,64,0
4,67,64,0
4,71,64,0
4,47,0,48
4,50,64,0
4,50,0,48
4,71,0,0
4,67,0,0
4,55,64,0
4,67,64,0
4,55,0,96
4,59,64,0
4,59,0,12
4,67,0,0
4,47,64,0
4,74,64,0
4,66,64,0
4,47,0,48
4,50,64,0
4,50,0,48
4,66,0,0
4,74,0,0
4,54,64,0
4,64,64,0
4,73,64,0
4,54,0,48
4,59,64,0
4,59,0,48
4,54,64,0
4,73,0,48
4,64,0,0
4,66,64,0
4,74,64,0
4,74,0,48
4,66,0,0
4,54,0,0
4,45,64,0
4,73,64,0
4,64,64,0
4,45,0,48
4,49,64,0
4,49,0,48
4,64,0,0
4,73,0,0
4,52,64,0
4,61,64,0
4,69,64,0
4,52,0,48
4,57,64,0
4,69,0,48
4,61,0,0
4,66,64,0
4,66,0,24
4,57,0,0
4,43,64,0
4,62,64,0
4,71,64,0
4,43,0,48
4,50,64,0
4,50,0,48
4,55,64,0
4,55,0,48
4,59,64,0
4,59,0,48
4,62,64,0
4,62,0,48
4,62,0,0
4,67,64,0
4,67,0,48
4,71,0,0
4,69,64,0
4,67,64,48
4,67,0,48
4,62,64,0
4,62,0,96
4,59,64,0
4,59,0,12
4,69,0,0
4,54,64,0
4,50,64,0
4,57,64,0
4,57,0,90
4,64,64,0
4,50,0,48
4,54,0,0
4,62,64,0
4,62,0,48
4,57,64,0
4,64,0,48
4,66,64,0
4,66,0,48
4,62,64,0
4,62,0,96
4,57,0,0
4,57,64,0
4,57,0,192
4,49,64,0
4,57,64,0
4,49,0,30
4,52,64,0
4,52,0,48
4,57,0,0
4,57,64,0
4,64,64,0
4,57,0,1
4,64,0,143
4,61,64,0
4,61,0,48
4,55,64,0
4,47,64,0
4,62,64,0
4,62,0,12
4,47,0,0
4,55,0,0
4,47,64,0
4,66,64,0
4,62,64,0
4,47,0,48
4,54,64,0
4,62,0,48
4,66,0,0
4,61,64,0
4,54,0,48
4,59,64,0
4,59,0,48
4,54,64,0
4,61,0,48
4,62,64,0
4,62,0,48
4,54,0,0
4,45,64,0
4,61,64,0
4,45,0,48
4,52,64,0
4,52,0,48
4,61,0,0
4,57,64,0
4,57,0,96
4,54,64,0
4,54,0,12
4,43,64,0
4,59,64,0
4,43,0,42
4,50,64,0
4,50,0,48
4,55,64,0
4,55,0,48
4,59,0,0
4,59,64,0
4,59,0,1
4,62,64,47
4,62,0,48
4,67,64,0
4,67,0,48
4,69,64,0
4,69,0,48
4,67,64,0
4,67,0,48
4,62,64,0
4,62,0,48
4,55,64,0
4,55,0,48
4,59,64,0
4,59,0,12
4,54,64,0
4,50,64,0
4,57,64,0
4,57,0,84
4,64,64,0
4,50,0,48
4,54,0,0
4,62,64,0
4,62,0,48
4,57,64,0
4,64,0,48
4,66,64,0
4,66,0,48
4,62,64,0
4,62,0,96
4,57,0,0
4,57,64,0
4,57,0,6
4,49,64,0
4,57,64,0
4,49,0,36
4,52,64,0
4,52,0,48
4,57,0,0
4,57,64,0
4,64,64,0
4,57,0,1
4,64,0,143
4,61,64,0
4,61,0,48
4,55,64,0
4,47,64,0
4,62,64,0
4,62,0,6
4,47,0,0
4,55,0,0
4,47,64,0
4,66,64,0
4,62,64,0
4,47,0,48
4,54,64,0
4,62,0,48
4,66,0,0
4,61,64,0
4,54,0,48
4,59,64,0
4,59,0,48
4,54,64,0
4,61,0,48
4,62,64,0
4,62,0,48
4,54,0,0
4,45,64,0
4,61,64,0
4,45,0,48
4,52,64,0
4,52,0,48
4,61,0,0
4,57,64,0
4,57,0,96
4,54,64,0
4,54,0,6
4,43,64,0
4,59,64,0
4,43,0,48
4,50,64,0
4,50,0,48
4,55,64,0
4,55,0,48
4,59,0,0
4,59,64,0
4,59,0,1
4,62,64,47
4,62,0,48
4,67,64,0
4,67,0,48
4,69,64,0
4,69,0,48
4,67,64,0
4,67,0,48
4,62,64,0
4,59,64,96
4,62,0,48
4,64,64,0
4,64,0,6
4,59,0,0
4,55,64,0
4,52,64,0
4,59,64,0
4,64,64,0
4,64,0,96
4,55,0,0
4,52,0,0
4,59,0,0
4,55,64,0
4,59,64,0
4,52,64,0
4,64,64,0
4,52,0,96
4,55,0,0
4,59,0,0
4,55,64,0
4,59,64,0
4,52,64,0
4,64,0,48
4,62,64,0
4,62,0,48
4,52,0,0
4,59,0,0
4,55,0,0
4,55,64,0
4,52,64,0
4,64,64,0
4,64,0,24
4,59,64,0
4,52,0,72
4,55,0,0
4,52,64,0
4,55,64,0
4,55,0,96
4,52,0,0
4,59,0,0
4,52,64,0
4,55,64,0
4,64,64,48
4,64,0,6
4,55,0,0
4,52,0,0
4,54,64,0
4,47,64,0
4,66,64,0
4,62,64,0
4,62,0,96
4,54,0,0
4,47,0,0
4,66,0,0
4,54,64,0
4,47,64,0
4,64,64,0
4,64,0,96
4,47,0,0
4,54,0,0
4,54,64,0
4,47,64,0
4,62,64,0
4,62,0,96
4,47,0,0
4,54,0,0
4,47,64,0
4,54,64,0
4,59,64,0
4,54,0,96
4,47,0,0
4,47,64,0
4,54,64,0
4,54,0,18
4,47,0,0
4,59,0,0
4,57,64,0
4,49,64,0
4,61,64,0
4,61,0,90
4,49,0,0
4,57,0,0
4,57,64,0
4,54,64,0
4,50,64,0
4,62,64,0
4,50,0,96
4,57,0,0
4,54,0,0
4,57,64,0
4,54,64,0
4,50,64,0
4,50,0,96
4,62,0,0
4,57,0,0
4,54,0,0
4,54,64,0
4,57,64,0
4,50,64,0
4,62,64,0
4,62,0,12
4,54,0,0
4,57,0,0
4,50,0,0
4,52,64,0
4,45,64,0
4,61,64,0
4,61,0,90
4,45,0,0
4,52,0,0
4,52,64,0
4,45,64,0
4,62,64,0
4,62,0,96
4,45,0,0
4,52,0,0
4,52,64,0
4,45,64,0
4,61,64,0
4,61,0,96
4,45,0,0
4,52,0,0
4,43,64,0
4,59,64,0
4,61,64,0
4,61,0,48
4,59,64,0
4,43,0,48
4,43,64,0
4,43,0,96
4,43,64,0
4,43,0,18
4,59,0,0
4,59,0,0
4,43,64,0
4,61,64,0
4,57,64,0
4,64,64,0
4,43,0,96
4,43,64,0
4,43,0,96
4,43,64,0
4,43,0,96
4,61,0,0
4,57,0,0
4,64,0,0
4,43,64,0
4,59,64,0
4,62,64,0
4,67,64,0
4,43,0,96
4,43,64,0
4,43,0,96
4,43,64,0
4,43,0,6
4,59,0,0
4,62,0,0
4,67,0,0
4,43,64,0
4,62,64,0
4,59,64,0
4,59,0,96
4,62,0,0
4,43,0,0
4,43,64,0
4,66,64,0
4,62,64,0
4,59,64,0
4,59,0,96
4,43,0,0
4,66,0,0
4,62,0,0
4,43,64,0
4,67,64,0
4,62,64,0
4,59,64,0
4,59,0,96
4,43,0,0
4,67,0,0
4,62,0,0
4,38,64,0
4,69,64,0
4,45,64,96
4,50,64,0
4,66,64,0
4,62,64,0
4,62,0,96
4,50,0,0
4,45,0,0
4,66,0,0
4,50,64,0
4,45,64,0
4,62,64,0
4,66,64,0
4,66,0,48
4,69,0,0
4,62,0,0
4,66,64,0
4,66,0,1
4,50,0,47
4,45,0,0
4,38,0,0
4,38,64,0
4,69,64,0
4,45,64,96
4,50,64,0
4,62,64,0
4,66,64,0
4,66,0,96
4,50,0,0
4,45,0,0
4,62,0,0
4,45,64,0
4,50,64,0
4,62,64,0
4,66,64,0
4,66,0,48
4,69,0,0
4,62,0,0
4,62,64,0
4,62,0,1
4,45,0,12
4,50,0,0
4,38,0,0
4,42,64,0
4,69,64,0
4,54,64,96
4,49,64,0
4,61,64,0
4,66,64,0
4,66,0,96
4,69,0,0
4,54,0,0
4,49,0,0
4,61,0,0
4,54,64,0
4,49,64,0
4,71,64,0
4,66,64,0
4,61,64,0
4,61,0,96
4,54,0,0
4,49,0,0
4,42,0,0
4,66,0,0
4,71,0,0
4,42,64,0
4,71,64,0
4,71,0,48
4,69,64,0
4,49,64,48
4,54,64,0
4,61,64,0
4,66,64,0
4,66,0,96
4,54,0,0
4,49,0,0
4,61,0,0
4,54,64,0
4,49,64,0
4,61,64,0
4,66,64,0
4,66,0,6
4,42,0,0
4,54,0,0
4,69,0,0
4,61,0,0
4,49,0,0
4,43,64,0
4,69,64,0
4,69,0,96
4,55,64,0
4,50,64,0
4,67,64,0
