track,note,velocity,time
1,48,51,12
1,36,51,0
1,67,51,0
1,66,51,57
1,62,51,73
1,55,51,7
1,57,51,122
1,40,51,440
1,67,51,0
1,28,51,0
1,66,51,12
1,62,51,66
1,59,51,10
1,52,51,157
1,48,51,560
1,67,51,0
1,36,51,0
1,66,51,29
1,62,51,76
1,55,51,13
1,57,51,128
1,40,51,252
1,67,51,0
1,28,51,0
1,66,51,27
1,62,51,0
1,59,51,48
1,52,51,157
1,59,51,128
1,52,51,0
1,55,51,0
1,59,51,83
1,55,51,0
1,52,51,0
1,55,51,116
1,59,51,0
1,52,51,0
1,59,51,75
1,55,51,0
1,52,51,0
1,60,51,10
1,59,51,7
1,55,51,28
1,52,51,60
1,67,51,65
1,48,51,0
1,36,51,0
1,66,51,16
1,62,51,69
1,55,51,12
1,57,51,136
1,67,51,191
1,40,51,0
1,47,51,47
1,66,51,0
1,52,51,68
1,62,51,0
1,59,51,14
1,64,51,60
1,59,51,0
1,67,51,320
1,36,51,0
1,43,51,44
1,66,51,0
1,48,51,63
1,62,51,0
1,55,51,4
1,62,51,192
1,64,51,192
1,67,51,7
1,40,51,0
1,66,51,61
1,47,51,0
1,52,51,7
1,59,51,96
1,55,51,144
1,62,51,68
1,59,51,0
1,55,51,0
1,36,51,399
1,48,51,0
1,67,51,0
1,66,51,31
1,62,51,14
1,55,51,79
1,57,51,132
1,67,51,17
1,40,51,0
1,47,51,66
1,66,51,0
1,52,51,5
1,62,51,0
1,59,51,50
1,64,51,72
1,59,51,0
1,52,51,22
1,59,51,42
1,64,51,0
1,55,51,0
1,52,51,6
1,55,51,76
1,64,51,23
1,55,51,0
1,62,51,80
1,52,51,40
1,55,51,7
1,59,51,5
1,48,51,50
1,36,51,0
1,55,51,0
1,60,51,0
1,64,51,0
1,60,51,37
1,64,51,0
1,55,51,0
1,48,51,6
1,64,51,26
1,62,51,0
1,55,51,96
1,59,51,0
1,40,51,0
1,47,51,28
1,64,51,2
1,52,51,0
1,62,51,8
1,52,51,3
1,59,51,0
1,62,51,4
1,47,51,96
1,50,51,44
1,54,51,96
1,57,51,96
1,59,51,0
1,54,51,36
1,59,51,12
1,55,51,11
1,36,51,96
1,52,51,0
1,43,51,40
1,48,51,74
1,52,51,45
1,55,51,142
1,60,51,96
1,62,51,0
1,48,51,88
1,64,51,0
1,36,51,0
1,55,51,0
1,60,51,0
1,55,51,36
1,60,51,0
1,64,51,0
1,64,51,0
1,48,51,65
1,64,51,0
1,55,51,0
1,36,51,0
1,66,51,64
1,50,51,0
1,59,51,75
1,40,51,0
1,67,51,0
1,47,51,43
1,52,51,90
1,66,51,0
1,59,51,53
1,55,51,0
1,64,51,0
1,66,51,12
1,47,51,143
1,57,51,0
1,59,51,0
1,64,51,0
1,50,51,16
1,54,51,96
1,62,51,23
1,40,51,16
1,59,51,0
1,55,51,0
1,64,51,0
1,47,51,153
1,52,51,96
1,62,51,36
1,55,51,0
1,67,51,92
1,66,51,104
1,64,51,4
1,54,51,0
1,57,51,0
1,42,51,0
1,62,51,63
1,54,51,0
1,42,51,18
1,54,51,37
1,57,51,96
1,62,51,4
1,36,51,19
1,55,51,0
1,60,51,0
1,64,51,0
1,43,51,0
1,66,51,96
1,48,51,0
1,67,51,22
1,69,51,31
1,48,51,12
1,64,51,4
1,33,51,96
1,57,51,0
1,59,51,0
1,45,51,66
1,62,51,4
1,67,51,10
1,66,51,4
1,64,51,12
1,59,51,75
1,40,51,0
1,55,51,0
1,47,51,16
1,52,51,96
1,55,51,60
1,59,51,0
1,62,51,56
1,55,51,0
1,67,51,29
1,66,51,67
1,54,51,24
1,64,51,0
1,57,51,0
1,42,51,0
1,54,51,88
1,62,51,0
1,57,51,0
1,42,51,12
1,54,51,17
1,57,51,7
1,62,51,0
1,55,51,20
1,48,51,0
1,36,51,0
1,60,51,0
1,64,51,0
1,66,51,48
1,67,51,72
1,69,51,18
1,48,51,64
1,64,51,8
1,45,51,96
1,33,51,0
1,57,51,0
1,59,51,0
1,45,51,53
1,62,51,32
1,67,51,2
1,66,51,6
1,64,51,34
1,59,51,73
1,40,51,0
1,55,51,0
1,47,51,35
1,52,51,96
1,55,51,45
1,62,51,0
1,71,51,72
1,69,51,11
1,67,51,96
1,42,51,1
1,57,51,0
1,69,51,0
1,64,51,0
1,62,51,0
1,67,51,54
1,62,51,0
1,64,51,0
1,57,51,0
1,42,51,53
1,57,51,4
1,62,51,51
1,64,51,0
1,48,51,78
1,62,51,0
1,55,51,0
1,60,51,0
1,36,51,0
1,48,51,0
1,36,51,0
1,67,51,0
1,60,51,0
1,48,51,334
1,55,51,0
1,36,51,0
1,60,51,0
1,62,51,0
1,48,51,0
1,36,51,0
1,67,51,0
1,66,51,96
1,62,51,75
1,55,51,3
1,57,51,126
1,67,51,8
1,40,51,0
1,66,51,63
1,47,51,0
1,52,51,12
1,59,51,96
1,64,51,167
1,55,51,0
1,52,51,8
1,57,51,96
1,62,51,0
1,67,51,6
1,36,51,0
1,43,51,60
1,66,51,0
1,48,51,3
1,62,51,0
1,50,51,36
1,55,51,0
1,57,51,128
1,64,51,82
1,62,51,0
1,67,51,9
1,40,51,0
1,47,51,54
1,66,51,0
1,52,51,63
1,62,51,0
1,59,51,39
1,55,51,140
1,52,51,192
1,54,51,189
1,52,51,88
1,55,51,88
1,57,51,190
1,55,51,16
1,54,51,71
1,67,51,68
1,36,51,0
1,43,51,5
1,66,51,0
1,48,51,69
1,62,51,0
1,50,51,8
1,55,51,0
1,66,51,108
1,48,51,70
1,64,51,30
1,57,51,0
1,48,51,0
1,57,51,96
1,62,51,61
1,64,51,21
1,48,51,90
1,57,51,20
1,62,51,96
1,57,51,15
1,67,51,0
1,40,51,0
1,47,51,31
1,66,51,0
1,52,51,72
1,57,51,94
1,64,51,0
1,64,51,4
1,57,51,0
1,69,51,0
1,52,51,4
1,64,51,89
1,57,51,0
1,67,51,0
1,52,51,2
1,57,51,91
1,62,51,96
1,64,51,5
1,52,51,77
1,57,51,5
1,62,51,1
1,64,51,56
1,55,51,0
1,60,51,0
1,48,51,0
1,36,51,0
1,55,51,31
1,60,51,0
1,64,51,0
1,48,51,75
1,55,51,2
1,64,51,0
1,62,51,25
1,59,51,78
1,40,51,0
1,55,51,0
1,47,51,35
1,52,51,96
1,64,51,28
1,62,51,96
1,52,51,33
1,55,51,5
1,59,51,53
1,47,51,60
1,62,51,0
1,50,51,31
1,54,51,96
1,62,51,40
1,59,51,0
1,54,51,16
1,59,51,23
1,55,51,19
1,36,51,96
1,52,51,0
1,43,51,47
1,48,51,68
1,52,51,60
1,60,51,233
1,62,51,10
1,36,51,9
1,48,51,0
1,55,51,0
1,60,51,0
1,64,51,0
1,55,51,49
1,60,51,0
1,64,51,0
1,48,51,3
1,60,51,37
1,48,51,0
1,64,51,0
1,55,51,0
1,38,51,47
1,66,51,0
1,57,51,0
1,50,51,0
1,57,51,64
1,40,51,0
1,67,51,0
1,47,51,26
1,66,51,53
1,52,51,0
1,59,51,37
1,55,51,0
1,64,51,0
1,66,51,49
1,59,51,158
1,64,51,0
1,57,51,0
1,47,51,0
1,50,51,27
1,54,51,96
1,62,51,0
1,59,51,22
1,55,51,0
1,64,51,0
1,40,51,0
1,47,51,62
1,52,51,96
1,55,51,16
1,55,51,34
1,62,51,0
1,67,51,84
1,66,51,60
1,42,51,4
1,64,51,0
1,57,51,0
1,54,51,0
1,62,51,82
1,57,51,0
1,54,51,0
1,52,51,11
1,54,51,12
1,60,51,117
1,64,51,0
1,48,51,0
1,55,51,0
1,36,51,0
1,66,51,92
1,67,51,45
1,69,51,35
1,48,51,52
1,64,51,12
1,33,51,96
1,57,51,0
1,59,51,0
1,45,51,0
1,45,51,58
1,62,51,0
1,67,51,96
1,66,51,6
1,64,51,21
1,55,51,75
1,40,51,0
1,59,51,0
1,47,51,11
1,52,51,96
1,55,51,62
1,55,51,61
1,62,51,0
1,67,51,26
1,66,51,40
1,54,51,15
1,42,51,0
1,64,51,0
1,57,51,0
1,57,51,44
1,54,51,0
1,62,51,0
1,52,51,140
1,54,51,12
1,57,51,78
1,62,51,47
1,64,51,6
1,60,51,0
1,48,51,0
1,36,51,0
1,55,51,0
1,66,51,72
1,67,51,48
1,69,51,24
1,48,51,62
1,64,51,14
1,33,51,96
1,45,51,0
1,57,51,0
1,59,51,0
1,45,51,57
1,62,51,39
1,67,51,96
1,66,51,8
1,64,51,33
1,55,51,86
1,40,51,0
1,59,51,0
1,47,51,25
1,52,51,27
1,62,51,69
1,55,51,0
1,71,51,86
1,69,51,0
1,67,51,120
1,62,51,10
1,42,51,0
1,69,51,0
1,57,51,0
1,64,51,0
1,57,51,4
1,64,51,0
1,67,51,0
1,62,51,0
1,57,51,31
1,62,51,88
1,42,51,27
1,55,51,64
1,64,51,0
1,60,51,0
1,36,51,0
1,43,51,90
1,57,51,0
1,66,51,0
1,59,51,59
1,67,51,0
1,48,51,19
1,66,51,89
1,55,51,1
1,60,51,0
1,64,51,0
1,48,51,38
1,57,51,96
1,66,51,0
1,59,51,156
1,67,51,0
1,57,51,144
1,66,51,0
1,48,51,51
1,59,51,27
1,40,51,29
1,59,51,0
1,55,51,0
1,52,51,0
1,64,51,0
1,66,51,108
1,57,51,0
1,59,51,60
1,62,51,0
1,67,51,0
1,62,51,107
1,66,51,0
1,57,51,0
1,57,51,123
1,62,51,0
1,69,51,0
1,62,51,128
1,67,51,0
1,57,51,0
1,57,51,124
1,66,51,0
1,64,51,21
1,52,51,65
1,36,51,104
1,55,51,0
1,48,51,0
1,64,51,16
1,60,51,0
1,66,51,76
1,67,51,36
1,66,51,192
1,64,51,31
1,66,51,14
1,67,51,8
1,59,51,5
1,57,51,0
1,62,51,0
1,47,51,0
1,66,51,0
1,40,51,0
1,64,51,0
1,59,51,0
1,55,51,0
1,52,51,0
1,64,51,60
1,59,51,0
1,55,51,0
1,52,51,92
1,55,51,55
1,59,51,24
1,64,51,0
1,57,51,64
1,42,51,0
1,66,51,0
1,54,51,0
1,62,51,26
1,54,51,60
1,67,51,40
1,57,51,0
1,62,51,0
1,66,51,52
1,54,51,95
1,64,51,132
1,60,51,0
1,55,51,0
1,36,51,0
1,48,51,0
1,64,51,40
1,60,51,0
1,55,51,0
1,60,51,44
1,64,51,0
1,55,51,0
1,48,51,44
1,57,51,122
1,64,51,0
1,59,51,0
1,45,51,0
1,33,51,0
1,59,51,62
1,64,51,0
1,57,51,0
1,57,51,19
1,45,51,90
1,57,51,5
1,59,51,15
1,59,51,46
1,40,51,0
1,55,51,0
1,64,51,0
1,52,51,0
1,64,51,62
1,59,51,0
1,55,51,0
1,52,51,119
1,55,51,13
1,59,51,23
1,57,51,77
1,42,51,0
1,66,51,0
1,54,51,0
1,67,51,72
1,62,51,0
1,57,51,0
1,66,51,47
1,57,51,0
1,54,51,8
1,64,51,32
1,60,51,0
1,55,51,0
1,36,51,96
1,48,51,37
1,64,51,115
1,60,51,0
1,55,51,0
1,55,51,52
1,64,51,0
1,60,51,0
1,48,51,48
1,64,51,96
1,66,51,8
1,45,51,20
1,67,51,0
1,33,51,0
1,66,51,127
1,64,51,68
1,57,51,96
1,40,51,128
1,64,51,0
1,59,51,0
1,55,51,0
1,52,51,0
1,59,51,49
1,64,51,0
1,55,51,0
1,52,51,0
1,55,51,28
1,59,51,0
1,64,51,38
1,42,51,56
1,57,51,0
1,66,51,0
1,54,51,0
1,62,51,50
1,54,51,0
1,57,51,23
1,67,51,46
1,57,51,0
1,62,51,0
1,66,51,28
1,62,51,8
1,54,51,4
1,57,51,0
1,62,51,8
1,36,51,73
1,48,51,0
1,64,51,0
1,60,51,0
1,55,51,0
1,60,51,48
1,64,51,0
1,55,51,0
1,48,51,60
1,55,51,40
1,59,51,24
1,33,51,61
1,45,51,0
1,59,51,0
1,57,51,0
1,64,51,0
1,59,51,74
1,57,51,0
1,64,51,0
1,57,51,88
1,59,51,0
1,64,51,0
1,45,51,0
1,64,51,19
1,55,51,0
1,59,51,0
1,52,51,0
1,40,51,0
1,64,51,60
1,59,51,0
1,55,51,0
1,52,51,112
1,55,51,60
1,64,51,18
1,57,51,6
1,54,51,0
1,42,51,0
1,66,51,0
1,67,51,80
1,62,51,0
1,57,51,0
1,62,51,40
1,66,51,0
1,57,51,0
1,54,51,41
1,64,51,3
1,60,51,0
1,55,51,0
1,48,51,0
1,36,51,0
1,55,51,83
1,60,51,0
1,64,51,0
1,64,51,133
1,55,51,0
1,60,51,0
1,48,51,56
1,64,51,15
1,66,51,37
1,45,51,2
1,67,51,0
1,33,51,0
1,66,51,240
1,62,51,7
1,57,51,4
1,52,51,68
1,40,51,0
1,64,51,0
1,67,51,0
1,71,51,0
1,69,51,52
1,71,51,52
1,52,51,0
1,64,51,10
1,71,51,36
1,64,51,0
1,52,51,63
1,69,51,4
1,54,51,0
1,42,51,0
1,71,51,13
1,74,51,48
1,64,51,0
1,54,51,59
1,71,51,20
1,69,51,152
1,71,51,33
1,67,51,22
1,64,51,0
1,48,51,0
1,36,51,0
1,71,51,0
1,67,51,51
1,64,51,0
1,71,51,0
1,48,51,68
1,64,51,30
1,45,51,31
1,64,51,0
1,33,51,0
1,71,51,0
1,66,51,0
1,64,51,72
1,67,51,0
1,71,51,0
1,69,51,7
1,67,51,96
1,45,51,0
1,64,51,51
1,64,51,11
1,52,51,0
1,67,51,0
1,40,51,0
1,64,51,28
1,71,51,0
1,52,51,80
1,69,51,43
1,71,51,5
1,64,51,21
1,52,51,57
1,42,51,8
1,66,51,0
1,54,51,0
1,71,51,0
1,69,51,4
1,64,51,46
1,71,51,0
1,74,51,59
1,64,51,0
1,71,51,7
1,54,51,0
1,64,51,108
1,71,51,0
1,67,51,0
1,48,51,0
1,36,51,0
1,64,51,49
1,67,51,0
1,71,51,0
1,48,51,112
1,64,51,16
1,69,51,48
1,71,51,7
1,69,51,0
1,64,51,0
1,45,51,0
1,33,51,0
1,71,51,38
1,64,51,0
1,69,51,0
1,67,51,34
1,66,51,5
1,64,51,53
1,64,51,16
1,67,51,0
1,71,51,0
1,40,51,0
1,52,51,0
1,69,51,46
1,52,51,0
1,71,51,0
1,64,51,13
1,71,51,32
1,64,51,0
1,52,51,61
1,54,51,3
1,69,51,0
1,42,51,0
1,71,51,16
1,64,51,53
1,74,51,0
1,54,51,64
1,71,51,12
1,69,51,192
1,71,51,0
1,55,51,28
1,64,51,0
1,60,51,0
1,36,51,0
1,48,51,0
1,55,51,56
1,60,51,0
1,64,51,0
1,60,51,68
1,55,51,0
1,64,51,0
1,48,51,64
1,55,51,21
1,57,51,16
1,59,51,0
1,45,51,0
1,33,51,0
1,64,51,0
1,59,51,76
1,57,51,0
1,64,51,0
1,45,51,4
1,57,51,20
1,64,51,12
1,52,51,0
1,67,51,0
1,40,51,0
1,64,51,12
1,71,51,0
1,52,51,61
1,69,51,20
1,71,51,96
1,64,51,20
1,52,51,52
1,42,51,17
1,54,51,0
1,71,51,0
1,69,51,153
1,64,51,44
1,71,51,0
1,54,51,0
1,74,51,42
1,64,51,0
1,71,51,12
1,74,51,44
1,76,51,45
1,72,51,0
1,64,51,10
1,48,51,0
1,67,51,0
1,36,51,0
2,36,87,769
2,43,87,0
2,72,62,30873
2,67,62,1502
2,69,62,1534
2,64,62,1479
2,72,62,1534
2,67,62,1544
2,60,62,1478
2,67,87,19660
2,69,87,713
2,67,87,757
2,69,87,2261
2,72,87,776
2,67,87,2
2,69,87,762
2,72,87,731
2,76,87,0
2,67,87,764
2,69,87,752
2,72,87,734
2,76,87,2
2,67,87,832
3,74,42,25728
3,86,42,6
3,79,42,84
3,91,42,4
3,90,42,7
3,78,42,1
3,88,42,0
3,76,42,3
3,74,42,23660
3,86,42,4
3,91,42,82
3,79,42,4
3,90,42,2
3,78,42,5
3,76,42,8
3,88,42,2
3,48,42,7112
3,60,42,9
3,55,42,4
3,67,42,4
3,72,42,2
3,76,42,18
3,52,42,215
