track,note,velocity,time
1,45,68,1536
1,64,68,384
1,60,68,0
1,69,68,0
1,59,68,336
1,67,68,0
1,62,68,0
1,64,68,142
1,60,68,0
1,69,68,0
1,59,68,96
1,62,68,0
1,67,68,0
1,52,68,48
1,45,68,48
1,43,68,48
1,64,68,528
1,60,68,0
1,69,68,0
1,59,68,288
1,62,68,0
1,67,68,0
1,64,68,96
1,60,68,0
1,69,68,0
1,55,68,144
1,60,68,0
1,64,68,0
1,48,68,384
1,52,68,50
1,50,68,48
1,62,68,528
1,65,68,0
1,69,68,0
1,64,68,288
1,59,68,0
1,67,68,0
1,59,68,96
1,40,68,0
1,64,68,0
1,62,68,762
1,67,68,0
1,69,68,528
1,45,68,188
1,64,68,574
1,60,68,0
1,69,68,0
1,59,68,334
1,67,68,0
1,62,68,0
1,64,68,144
1,60,68,0
1,69,68,0
1,40,68,192
1,43,68,50
1,45,68,48
1,69,68,432
1,60,68,0
1,64,68,0
1,59,68,336
1,62,68,0
1,67,68,0
1,60,68,146
1,64,68,0
1,69,68,0
1,59,68,146
1,62,68,0
1,67,68,0
1,52,68,0
1,45,68,0
1,43,68,0
1,60,68,434
1,64,68,0
1,69,68,0
1,59,68,290
1,62,68,0
1,67,68,0
1,69,68,144
1,60,68,0
1,64,68,0
1,60,68,146
1,55,68,0
1,64,68,0
1,48,68,384
1,52,68,48
1,50,68,0
1,65,68,480
1,62,68,0
1,69,68,0
1,64,68,288
1,59,68,0
1,67,68,0
1,64,68,96
1,40,68,0
1,59,68,0
1,67,68,48
1,62,68,0
1,69,68,48
1,45,68,192
1,60,68,572
1,64,68,0
1,69,68,0
1,59,68,336
1,67,68,0
1,62,68,0
1,69,68,96
1,60,68,0
1,64,68,0
1,40,68,288
1,43,68,48
1,45,68,48
1,60,68,286
1,64,68,0
1,69,68,0
1,59,68,336
1,62,68,0
1,67,68,0
1,60,68,96
1,64,68,0
1,69,68,0
1,59,68,144
1,62,68,0
1,67,68,0
1,52,68,48
1,45,68,50
1,43,68,0
1,64,68,528
1,60,68,0
1,69,68,0
1,62,68,288
1,59,68,0
1,67,68,0
1,64,68,144
1,60,68,0
1,69,68,0
1,60,68,142
1,55,68,0
1,64,68,0
1,48,68,384
1,52,68,48
1,50,68,192
1,65,68,480
1,62,68,0
1,69,68,0
1,64,68,334
1,59,68,0
1,67,68,0
1,59,68,96
1,40,68,0
1,64,68,0
1,67,68,764
1,62,68,0
1,69,68,48
1,45,68,0
1,64,68,528
1,60,68,0
1,69,68,0
1,59,68,334
1,62,68,0
1,67,68,0
1,64,68,144
1,69,68,0
1,60,68,0
1,45,68,432
1,60,68,570
1,64,68,0
1,69,68,0
1,59,68,288
1,62,68,0
1,67,68,0
1,60,68,190
1,64,68,0
1,69,68,0
1,62,68,190
1,59,68,0
1,67,68,0
1,52,68,0
1,45,68,0
1,43,68,48
1,60,68,478
1,64,68,0
1,69,68,0
1,62,68,334
1,59,68,0
1,67,68,0
1,60,68,142
1,64,68,0
1,69,68,0
1,64,68,192
1,55,68,0
1,60,68,0
1,48,68,384
1,52,68,96
1,50,68,96
1,65,68,528
1,62,68,0
1,69,68,0
1,64,68,336
1,59,68,0
1,67,68,0
1,59,68,144
1,40,68,0
1,64,68,0
1,62,68,762
1,67,68,0
1,69,68,572
1,45,68,188
1,60,68,528
1,64,68,0
1,69,68,0
1,59,68,288
1,62,68,0
1,67,68,0
1,64,68,96
1,60,68,0
1,69,68,0
1,45,68,240
1,64,68,382
1,60,68,0
1,69,68,0
1,59,68,288
1,62,68,0
1,67,68,0
1,69,68,190
1,64,68,0
1,60,68,0
1,59,68,144
1,62,68,0
1,67,68,0
1,52,68,48
1,45,68,192
1,43,68,190
1,64,68,480
1,60,68,0
1,69,68,0
1,59,68,288
1,62,68,0
1,67,68,0
1,64,68,142
1,69,68,0
1,60,68,0
1,55,68,144
1,60,68,0
1,64,68,0
1,48,68,384
1,52,68,48
1,50,68,48
1,67,68,574
1,62,68,0
1,69,68,0
1,59,68,240
1,64,68,0
1,67,68,0
1,64,68,144
1,59,68,0
1,40,68,0
1,67,68,48
1,62,68,0
1,69,68,0
1,60,68,190
1,64,68,0
1,45,68,0
1,40,68,2592
1,43,68,44
1,45,68,48
1,60,68,574
1,64,68,0
1,69,68,0
1,59,68,336
1,67,68,0
1,62,68,0
1,60,68,144
1,64,68,0
1,69,68,0
1,59,68,144
1,62,68,0
1,67,68,0
1,52,68,384
1,45,68,192
1,43,68,190
1,64,68,480
1,60,68,0
1,69,68,0
1,59,68,336
1,62,68,0
1,67,68,0
1,60,68,142
1,69,68,0
1,64,68,0
1,55,68,144
1,64,68,0
1,60,68,0
1,48,68,384
1,52,68,192
1,50,68,0
1,62,68,480
1,65,68,0
1,69,68,0
1,59,68,334
1,64,68,0
1,67,68,0
1,59,68,142
1,40,68,0
1,64,68,0
1,62,68,768
1,67,68,0
1,69,68,0
1,45,68,0
1,60,68,530
1,64,68,0
1,69,68,0
1,59,68,290
1,62,68,0
1,67,68,0
1,64,68,98
1,60,68,0
1,69,68,0
1,40,68,96
1,43,68,192
1,45,68,144
1,64,68,430
1,60,68,0
1,69,68,0
1,59,68,288
1,67,68,0
1,62,68,0
1,60,68,190
1,69,68,0
1,64,68,0
1,62,68,190
1,59,68,0
1,67,68,0
1,52,68,384
1,45,68,190
1,43,68,190
1,60,68,480
1,64,68,0
1,69,68,0
1,59,68,334
1,62,68,0
1,67,68,0
1,64,68,144
1,60,68,0
1,69,68,0
1,55,68,144
1,60,68,0
1,64,68,0
1,48,68,384
1,52,68,192
1,50,68,0
1,62,68,480
1,65,68,0
1,69,68,0
1,59,68,286
1,64,68,0
1,67,68,0
1,40,68,142
1,59,68,0
1,64,68,0
1,62,68,768
1,67,68,0
1,69,68,48
1,45,68,192
1,60,68,528
1,64,68,0
1,69,68,0
1,59,68,336
1,62,68,0
1,67,68,0
1,64,68,190
1,60,68,0
1,69,68,0
1,40,68,48
1,43,68,192
1,45,68,190
1,48,68,190
1,47,68,190
1,45,68,144
1,60,68,576
1,64,68,0
1,69,68,0
1,59,68,334
1,62,68,0
1,67,68,0
1,60,68,192
1,64,68,0
1,69,68,0
1,67,68,192
1,59,68,0
1,62,68,0
1,52,68,384
1,45,68,144
1,43,68,48
1,60,68,526
1,64,68,0
1,69,68,0
1,59,68,336
1,62,68,0
1,67,68,0
1,69,68,144
1,64,68,0
1,60,68,0
1,55,68,192
1,60,68,0
1,64,68,0
1,48,68,384
1,52,68,48
1,50,68,0
1,65,68,524
1,62,68,0
1,69,68,0
1,59,68,288
1,64,68,0
1,67,68,0
1,59,68,144
1,40,68,0
1,64,68,0
1,64,68,0
1,62,68,0
1,67,68,0
1,69,68,48
1,45,68,190
1,60,68,528
1,64,68,0
1,69,68,0
1,62,68,288
1,59,68,0
1,67,68,0
1,64,68,144
1,60,68,0
1,69,68,0
1,40,68,50
1,43,68,192
1,45,68,48
1,60,68,482
1,64,68,0
1,69,68,0
1,59,68,336
1,62,68,0
1,67,68,0
1,60,68,146
1,69,68,0
1,64,68,0
1,59,68,190
1,62,68,0
1,67,68,0
1,52,68,0
1,45,68,192
1,43,68,144
1,64,68,480
1,60,68,0
1,69,68,0
1,59,68,336
1,62,68,0
1,67,68,0
1,64,68,144
1,60,68,0
1,69,68,0
1,55,68,190
1,60,68,0
1,64,68,0
1,48,68,384
1,52,68,192
1,50,68,0
1,65,68,480
1,62,68,0
1,69,68,0
1,59,68,288
1,64,68,0
1,67,68,0
1,40,68,192
1,64,68,0
1,59,68,0
1,62,68,48
1,67,68,0
1,69,68,0
1,60,68,192
1,45,68,0
1,64,68,0
1,53,68,480
1,57,68,192
1,64,68,192
1,69,68,192
1,67,68,24
1,64,68,0
1,62,68,192
1,53,68,190
1,57,68,192
1,62,68,192
1,64,68,0
1,60,68,192
1,57,68,24
1,57,68,24
1,76,68,0
1,64,68,0
1,69,68,192
1,71,68,168
1,72,68,0
1,64,68,0
1,74,68,24
1,72,68,0
1,64,68,0
1,71,68,24
1,72,68,384
1,69,68,144
1,53,68,168
1,57,68,192
1,64,68,0
1,69,68,192
1,72,68,0
1,71,68,192
1,67,68,120
1,64,68,0
1,53,68,286
1,57,68,192
1,60,68,192
1,62,68,384
1,64,68,0
1,67,68,144
1,48,68,72
1,52,68,72
1,55,68,192
1,62,68,192
1,64,68,0
1,59,68,192
1,55,68,384
1,59,68,192
1,62,68,192
1,69,68,0
1,72,68,98
1,67,68,0
1,58,68,288
1,53,68,0
1,62,68,0
1,70,68,0
1,65,68,0
1,45,68,0
1,60,68,50
1,64,68,0
1,69,68,0
1,67,68,336
1,62,68,0
1,59,68,0
1,60,68,192
1,69,68,0
1,64,68,0
1,59,68,202
1,62,68,0
1,67,68,0
1,52,68,18
1,45,68,192
1,43,68,18
1,60,68,480
1,69,68,0
1,59,68,364
1,67,68,0
1,62,68,0
1,60,68,200
1,69,68,0
1,64,68,0
1,55,68,64
1,60,68,0
1,64,68,0
1,48,68,384
1,52,68,20
1,50,68,18
1,62,68,566
1,69,68,0
1,64,68,286
1,59,68,0
1,67,68,0
1,59,68,0
1,40,68,0
1,64,68,0
1,62,68,768
1,67,68,0
1,69,68,14
1,45,68,10
1,60,68,518
1,69,68,0
1,67,68,334
1,59,68,0
1,62,68,0
1,60,68,204
1,69,68,0
1,64,68,0
1,45,68,70
1,69,68,384
1,60,68,0
1,64,68,0
1,62,68,336
1,67,68,0
1,59,68,0
1,69,68,142
1,60,68,0
1,64,68,0
1,59,68,96
1,62,68,0
1,67,68,0
1,52,68,48
1,45,68,48
1,43,68,48
1,64,68,528
1,60,68,0
1,69,68,0
1,59,68,288
1,62,68,0
1,67,68,0
1,64,68,96
1,60,68,0
1,69,68,0
1,55,68,144
1,60,68,0
1,64,68,0
1,48,68,384
1,52,68,50
1,50,68,48
1,62,68,528
1,65,68,0
1,69,68,0
1,64,68,288
1,59,68,0
1,67,68,0
1,59,68,96
1,40,68,0
1,64,68,0
1,62,68,762
1,67,68,0
1,69,68,528
1,45,68,188
1,64,68,574
1,60,68,0
1,69,68,0
1,59,68,334
1,67,68,0
1,62,68,0
1,64,68,144
1,60,68,0
1,69,68,0
1,40,68,192
1,43,68,50
1,45,68,48
1,60,68,384
1,64,68,0
1,69,68,0
1,59,68,334
1,67,68,0
1,62,68,0
1,69,68,142
1,60,68,0
1,64,68,0
1,59,68,192
1,67,68,0
1,62,68,0
1,52,68,384
1,45,68,192
1,43,68,0
1,60,68,480
1,64,68,0
1,69,68,0
1,59,68,336
1,67,68,0
1,62,68,0
1,69,68,192
1,64,68,0
1,60,68,0
1,64,68,242
1,55,68,0
1,60,68,0
1,48,68,384
1,52,68,192
1,50,68,190
1,62,68,480
1,65,68,0
1,69,68,0
1,59,68,288
1,64,68,0
1,67,68,0
1,64,68,190
1,59,68,0
1,40,68,0
1,67,68,722
1,62,68,0
1,69,68,572
1,45,68,144
1,64,68,480
1,60,68,0
1,69,68,0
1,67,68,334
1,59,68,0
1,62,68,0
1,64,68,190
1,60,68,0
1,69,68,0
1,40,68,1152
1,43,68,144
1,45,68,190
1,60,68,384
1,64,68,0
1,69,68,0
1,67,68,288
1,59,68,0
1,62,68,0
1,60,68,190
1,64,68,0
1,69,68,0
1,59,68,192
1,67,68,0
1,62,68,0
1,52,68,48
1,45,68,0
1,43,68,0
1,64,68,530
1,60,68,0
1,69,68,0
1,59,68,336
1,67,68,0
1,62,68,0
1,64,68,144
1,69,68,0
1,60,68,0
1,55,68,96
1,64,68,0
1,60,68,0
1,48,68,384
1,52,68,50
1,50,68,0
1,65,68,528
1,62,68,0
1,69,68,0
1,59,68,336
1,67,68,0
1,64,68,0
1,64,68,146
1,59,68,0
1,40,68,0
1,67,68,766
1,62,68,0
1,69,68,572
1,45,68,144
1,60,68,528
1,64,68,0
1,69,68,0
1,67,68,334
1,59,68,0
1,62,68,0
1,69,68,146
1,60,68,0
1,64,68,0
1,40,68,1152
1,43,68,142
1,45,68,144
1,64,68,432
1,60,68,0
1,69,68,0
1,67,68,336
1,59,68,0
1,62,68,0
1,64,68,144
1,69,68,0
1,60,68,0
1,67,68,190
1,59,68,0
1,62,68,0
1,52,68,48
1,45,68,0
1,43,68,192
1,60,68,528
1,64,68,0
1,69,68,0
1,59,68,334
1,67,68,0
1,62,68,0
1,60,68,190
1,64,68,0
1,69,68,0
1,64,68,192
1,55,68,0
1,60,68,0
1,48,68,384
1,52,68,48
1,50,68,192
1,65,68,528
1,62,68,0
1,69,68,0
1,59,68,288
1,64,68,0
1,67,68,0
1,64,68,94
1,59,68,0
1,40,68,0
1,67,68,720
1,62,68,0
1,69,68,528
1,45,68,190
1,60,68,528
1,64,68,0
1,69,68,0
1,59,68,336
1,67,68,0
1,62,68,0
1,69,68,142
1,60,68,0
1,64,68,0
1,40,68,96
1,43,68,192
1,45,68,144
1,69,68,766
1,67,68,192
1,60,68,26
1,62,68,192
1,67,68,0
1,64,68,384
1,52,68,382
1,45,68,0
1,43,68,192
1,69,68,432
1,67,68,192
1,60,68,24
1,62,68,192
1,67,68,0
1,64,68,384
1,48,68,382
1,52,68,24
1,50,68,192
1,69,68,432
1,67,68,192
1,52,68,0
1,60,68,24
1,40,68,24
1,62,68,0
1,67,68,0
1,64,68,384
1,43,68,0
1,45,68,0
1,69,68,888
1,67,68,192
1,60,68,26
1,62,68,192
1,67,68,0
1,64,68,384
1,45,68,0
1,60,68,168
1,64,68,192
1,67,68,192
1,71,68,192
1,69,68,168
1,67,68,48
1,69,68,192
1,52,68,1104
1,45,68,0
1,43,68,168
1,55,68,384
1,60,68,192
1,62,68,192
1,64,68,190
1,62,68,120
1,67,68,312
1,65,68,240
1,64,68,192
1,65,68,336
1,48,68,0
1,52,68,24
1,50,68,24
1,69,68,744
1,57,68,0
1,62,68,192
1,57,68,24
1,67,68,24
1,59,68,0
1,52,68,0
1,65,68,192
1,40,68,0
1,59,68,264
1,64,68,0
1,65,68,0
1,64,68,240
1,59,68,0
1,65,68,0
1,43,68,24
1,45,68,0
1,67,68,0
1,59,68,0
1,65,68,24
1,64,68,96
1,65,68,192
1,67,68,48
1,65,68,192
1,64,68,24
1,57,68,24
1,60,68,382
1,64,68,0
1,69,68,0
1,59,68,334
1,67,68,0
1,62,68,0
1,60,68,0
1,69,68,0
1,64,68,0
1,59,68,216
1,67,68,0
1,52,68,384
1,45,68,192
1,43,68,0
1,60,68,0
1,64,68,0
1,69,68,0
1,59,68,312
1,67,68,0
1,62,68,0
1,60,68,0
1,64,68,0
1,69,68,0
1,55,68,146
1,64,68,0
1,60,68,0
1,48,68,384
1,52,68,0
1,62,68,0
1,69,68,0
1,65,68,0
1,59,68,312
1,67,68,0
1,64,68,0
1,52,68,0
1,59,68,168
1,40,68,0
1,64,68,0
1,62,68,24
1,67,68,0
1,43,68,22
1,60,68,0
1,45,68,0
1,64,68,0
1,69,68,0
1,60,68,0
1,59,68,236
1,67,68,0
1,62,68,0
1,69,68,190
1,64,68,0
1,60,68,0
2,33,93,1536
2,40,93,286
2,33,93,192
2,31,93,186
2,36,93,2680
2,40,93,144
2,38,93,48
2,40,93,1344
2,28,93,144
2,31,93,1336
2,33,93,46
2,28,93,190
2,31,93,192
2,33,93,46
2,40,93,144
2,33,93,192
2,31,93,48
2,36,93,46
2,40,93,46
2,38,93,48
2,40,93,1344
2,28,93,192
2,31,93,0
2,33,93,192
2,28,93,188
2,31,93,192
2,33,93,44
2,40,93,44
2,33,93,192
2,31,93,188
2,36,93,2684
2,40,93,188
2,38,93,48
2,28,93,288
2,31,93,96
2,33,93,192
2,28,93,382
2,31,93,192
2,33,93,0
2,36,93,192
2,35,93,186
2,33,93,192
2,33,93,190
2,33,93,142
2,33,93,190
2,33,93,140
2,33,93,190
2,33,93,142
2,31,93,96
2,31,93,138
2,31,93,96
2,31,93,192
2,31,93,144
2,31,93,144
2,31,93,144
2,36,93,192
2,40,93,48
2,38,93,46
