track,note,velocity,time
1,69,73,14
1,50,65,0
1,54,65,192
1,76,81,0
1,57,70,0
1,62,73,16
1,57,72,192
1,78,69,136
1,74,82,42
1,62,71,0
1,57,75,190
1,69,70,24
1,50,58,0
1,62,63,64
1,69,63,270
1,49,45,0
1,64,60,0
1,52,68,176
1,57,73,116
1,76,82,0
1,61,65,26
1,64,67,192
1,73,65,112
1,74,73,170
1,47,66,0
1,50,63,160
1,54,59,192
1,59,68,8
1,74,61,136
1,47,69,0
1,66,59,0
1,50,72,142
1,64,73,14
1,73,71,0
1,54,69,0
1,59,70,14
1,54,69,56
1,74,56,16
1,66,52,0
1,64,78,10
1,73,76,0
1,45,65,0
1,49,43,4
1,52,58,144
1,69,73,0
1,61,61,0
1,57,77,20
1,66,63,56
1,69,81,96
1,43,77,32
1,71,75,0
1,50,77,90
1,55,73,40
1,59,62,48
1,62,64,122
1,67,60,48
1,69,89,46
1,67,65,100
1,62,71,10
1,55,66,192
1,59,72,20
1,50,54,4
1,57,64,0
1,54,66,176
1,64,89,20
1,62,70,96
1,57,67,0
1,66,66,10
1,62,89,192
1,54,47,190
1,57,63,126
1,57,59,344
1,49,41,0
1,52,47,24
1,64,76,48
1,57,66,0
1,61,47,78
1,47,53,192
1,55,45,0
1,62,65,0
1,47,63,16
1,62,69,0
1,54,62,8
1,61,80,30
1,59,63,32
1,54,56,42
1,62,71,8
1,45,66,192
1,61,71,0
1,52,48,4
1,57,70,192
1,54,40,256
1,59,68,192
1,43,60,0
1,50,67,20
1,55,68,26
1,59,61,42
1,62,70,68
1,67,59,192
1,69,87,72
1,67,67,128
1,62,65,16
1,55,62,192
1,59,76,36
1,57,67,376
1,50,58,0
1,54,55,176
1,64,84,68
1,62,63,184
1,57,63,192
1,66,72,30
1,62,80,192
1,54,42,184
1,57,50,74
1,57,65,8
1,49,57,0
1,52,43,192
1,57,69,52
1,64,76,0
1,61,43,32
1,47,62,192
1,55,54,0
1,62,69,0
1,47,73,30
1,62,80,0
1,54,54,62
1,61,79,192
1,59,55,16
1,54,67,48
1,62,77,94
1,45,70,158
1,61,77,0
1,52,58,168
1,57,72,90
1,54,54,286
1,43,56,14
1,59,69,0
1,50,64,96
1,55,69,14
1,59,69,0
1,62,70,72
1,67,65,192
1,69,83,42
1,67,63,106
1,62,52,16
1,64,71,192
1,52,58,152
1,55,59,0
1,64,66,0
1,59,61,0
1,52,60,104
1,64,72,0
1,59,63,0
1,55,57,0
1,52,50,202
1,59,53,0
1,55,48,0
1,62,50,26
1,52,51,62
1,55,45,0
1,59,53,0
1,64,72,0
1,59,49,24
1,52,52,192
1,55,59,0
1,55,81,0
1,52,71,0
1,64,76,78
1,66,69,192
1,62,73,0
1,54,65,0
1,47,77,0
1,54,64,64
1,47,77,0
1,64,79,0
1,62,85,24
1,47,82,0
1,54,65,0
1,59,53,240
1,47,59,0
1,54,48,0
1,47,71,120
1,54,58,0
1,61,70,10
1,57,72,0
1,49,57,0
1,62,82,164
1,50,67,0
1,54,53,96
1,57,75,192
1,54,68,164
1,62,101,144
1,57,72,122
1,61,65,136
1,45,64,0
1,52,48,42
1,62,85,10
1,61,70,328
1,43,54,16
1,57,53,0
1,61,62,0
1,59,77,192
1,50,67,170
1,55,71,192
1,57,82,30
1,50,71,26
1,64,64,32
1,43,65,0
1,50,61,218
1,55,71,192
1,64,93,90
1,57,98,0
1,55,70,0
1,67,56,48
1,62,67,0
1,59,69,0
1,43,65,0
1,50,46,206
1,55,63,192
1,67,92,88
1,62,87,0
1,59,82,0
1,55,60,0
1,43,63,88
1,59,69,0
1,62,71,0
1,50,56,192
1,59,87,68
1,62,92,0
1,66,88,0
1,55,64,192
1,59,61,106
1,62,79,0
1,67,84,0
1,69,87,240
1,38,81,0
1,45,70,110
1,50,75,192
1,66,79,0
1,62,79,0
1,45,63,376
1,66,61,56
1,38,76,4
1,69,84,0
1,45,67,186
1,66,70,46
1,62,67,0
1,50,62,192
1,62,82,120
1,66,92,0
1,62,75,42
1,50,72,0
1,69,85,30
1,42,62,0
1,49,59,94
1,61,91,120
1,69,90,0
1,66,77,0
1,54,70,52
1,71,67,52
1,61,67,8
1,71,85,0
1,42,69,0
1,69,65,32
1,61,50,8
1,66,77,0
1,49,79,0
1,54,87,154
1,61,99,0
1,66,64,32
1,69,82,190
1,43,72,0
1,50,73,96
1,55,75,184
1,59,74,0
1,67,82,0
1,62,72,0
1,50,52,368
1,66,53,30
1,64,69,0
1,43,63,0
1,50,75,152
1,55,78,16
1,50,73,192
1,66,86,46
1,67,67,30
1,69,73,16
1,48,60,0
1,52,54,148
1,55,68,190
1,67,81,0
1,66,77,26
1,48,65,144
1,66,65,0
1,64,72,96
1,62,67,74
1,52,71,184
1,55,71,192
1,64,84,16
1,57,69,192
1,38,72,126
1,69,82,0
1,45,69,26
1,50,75,8
1,66,72,0
1,62,76,0
1,45,71,46
1,66,65,58
1,69,85,190
1,62,68,0
1,38,75,0
1,45,72,136
1,50,76,48
1,62,77,0
1,66,72,0
1,50,75,94
1,66,88,0
1,62,67,30
1,69,84,14
1,42,69,0
1,49,71,160
1,69,90,110
1,61,84,0
1,66,84,0
1,54,94,384
1,66,71,62
1,61,65,0
1,61,70,72
1,71,84,0
1,42,76,0
1,69,71,160
1,66,82,26
1,49,76,0
1,54,72,122
1,61,99,192
1,66,62,16
1,69,77,144
1,43,70,0
1,50,67,64
1,59,70,190
1,67,75,0
1,62,74,0
1,55,60,32
1,66,56,14
1,50,66,190
1,43,58,0
1,64,65,0
1,50,82,16
1,55,77,192
1,66,65,8
1,67,67,42
1,62,64,168
1,69,73,24
1,48,67,0
1,67,61,14
1,66,49,576
1,64,64,144
1,62,53,154
1,69,73,712
1,50,65,0
1,54,65,192
1,76,81,0
1,57,70,0
1,62,73,16
1,57,72,192
1,78,69,136
1,74,82,42
1,62,71,0
1,57,75,190
1,69,70,24
1,50,58,0
1,62,63,64
1,69,63,270
1,49,45,0
1,64,60,0
1,52,68,176
1,57,73,116
1,76,82,0
1,61,65,26
1,64,67,192
1,73,65,112
1,74,73,170
1,47,66,0
1,50,63,160
1,54,59,192
1,59,68,8
1,74,61,136
1,47,69,0
1,66,59,0
1,50,72,142
1,64,73,14
1,73,71,0
1,54,69,0
1,59,70,14
1,54,69,56
1,74,56,16
1,66,52,0
1,64,78,10
1,73,76,0
1,45,65,0
1,49,43,4
1,52,58,144
1,69,73,0
1,61,61,0
1,57,77,20
1,66,63,56
1,69,81,96
1,43,77,32
1,71,75,0
1,50,77,90
1,55,73,40
1,59,62,48
1,62,64,122
1,67,60,48
1,69,89,46
1,67,65,100
1,62,71,10
1,55,66,192
1,59,72,20
1,50,54,4
1,57,64,0
1,54,66,176
1,64,89,20
1,62,70,96
1,57,67,0
1,66,66,10
1,62,89,192
1,54,47,190
1,57,63,126
1,57,59,344
1,49,41,0
1,52,47,24
1,64,76,48
1,57,66,0
1,61,47,78
1,47,53,192
1,55,45,0
1,62,65,0
1,47,63,16
1,62,69,0
1,54,62,8
1,61,80,30
1,59,63,32
1,54,56,42
1,62,71,8
1,45,66,192
1,61,71,0
1,52,48,4
1,57,70,192
1,54,40,256
1,59,68,192
1,43,60,0
1,50,67,20
1,55,68,26
1,59,61,42
1,62,70,68
1,67,59,192
1,69,87,72
1,67,67,128
1,62,65,16
1,55,62,192
1,59,76,36
1,57,67,376
1,50,58,0
1,54,55,176
1,64,84,68
1,62,63,184
1,57,63,192
1,66,72,30
1,62,80,192
1,54,42,184
1,57,50,74
1,57,65,8
1,49,57,0
1,52,43,192
1,57,69,52
1,64,76,0
1,61,43,32
1,47,62,192
1,55,54,0
1,62,69,0
1,47,73,30
1,62,80,0
1,54,54,62
1,61,79,192
1,59,55,16
1,54,67,48
1,62,77,94
1,45,70,158
1,61,77,0
1,52,58,168
1,57,72,90
1,54,54,286
1,43,56,14
1,59,69,0
1,50,64,96
1,55,69,14
1,59,69,0
1,62,70,72
1,67,65,192
1,69,83,42
1,67,63,106
1,62,52,16
1,64,71,192
1,52,58,152
1,55,59,0
1,64,66,0
1,59,61,0
1,52,60,104
1,64,72,0
1,59,63,0
1,55,57,0
1,52,50,202
1,59,53,0
1,55,48,0
1,62,50,26
1,52,51,62
1,55,45,0
1,59,53,0
1,64,72,0
1,59,49,24
1,52,52,192
1,55,59,0
1,55,81,0
1,52,71,0
1,64,76,78
1,66,69,192
1,62,73,0
1,54,65,0
1,47,77,0
1,54,64,64
1,47,77,0
1,64,79,0
1,62,85,24
1,47,82,0
1,54,65,0
1,59,53,240
1,47,59,0
1,54,48,0
1,47,71,120
1,54,58,0
1,61,70,10
1,57,72,0
1,49,57,0
1,62,82,164
1,50,67,0
1,54,53,96
1,57,75,192
1,54,68,164
1,62,101,144
1,57,72,122
1,61,65,136
1,45,64,0
1,52,48,42
1,62,85,10
1,61,70,328
1,43,54,16
1,57,53,0
1,61,62,0
1,59,77,192
1,50,67,170
1,55,71,192
1,57,82,30
1,50,71,26
1,64,64,32
1,43,65,0
1,50,61,218
1,55,71,192
1,64,93,90
1,57,98,0
1,55,70,0
1,67,56,48
1,62,67,0
1,59,69,0
1,43,65,0
1,50,46,206
1,55,63,192
1,67,92,88
1,62,87,0
1,59,82,0
1,55,60,0
1,43,63,88
1,59,69,0
1,62,71,0
1,50,56,192
1,59,87,68
1,62,92,0
1,66,88,0
1,55,64,192
1,59,61,106
1,62,79,0
1,67,84,0
1,69,87,240
1,38,81,0
1,45,70,110
1,50,75,192
1,66,79,0
1,62,79,0
1,45,63,376
1,66,61,56
1,38,76,4
1,69,84,0
1,45,67,186
1,66,70,46
1,62,67,0
1,50,62,192
1,62,82,120
1,66,92,0
1,62,75,42
1,50,72,0
1,69,85,30
1,42,62,0
1,49,59,94
1,61,91,120
1,69,90,0
1,66,77,0
1,54,70,52
1,71,67,52
1,61,67,8
1,71,85,0
1,42,69,0
1,69,65,32
1,61,50,8
1,66,77,0
1,49,79,0
1,54,87,154
1,61,99,0
1,66,64,32
1,69,82,190
1,43,72,0
1,50,73,96
1,55,75,184
1,59,74,0
1,67,82,0
1,62,72,0
1,50,52,368
1,66,53,30
1,64,69,0
1,43,63,0
1,50,75,152
1,55,78,16
1,50,73,192
1,66,86,46
1,67,67,30
1,69,73,16
1,48,60,0
1,52,54,148
1,55,68,190
1,67,81,0
1,66,77,26
1,48,65,144
1,66,65,0
1,64,72,96
1,62,67,74
1,52,71,184
1,55,71,192
1,64,84,16
1,57,69,192
1,38,72,126
1,69,82,0
1,45,69,26
1,50,75,8
1,66,72,0
1,62,76,0
1,45,71,46
1,66,65,58
1,69,85,190
1,62,68,0
1,38,75,0
1,45,72,136
1,50,76,48
1,62,77,0
1,66,72,0
1,50,75,94
1,66,88,0
1,62,67,30
1,69,84,14
1,42,69,0
1,49,71,160
1,69,90,110
1,61,84,0
1,66,84,0
1,54,94,384
1,66,71,62
1,61,65,0
1,61,70,72
1,71,84,0
1,42,76,0
1,69,71,160
1,66,82,26
1,49,76,0
1,54,72,122
1,61,99,192
1,66,62,16
1,69,77,144
1,43,70,0
1,50,67,64
1,59,70,190
1,67,75,0
1,62,74,0
1,55,60,32
1,66,56,14
1,50,66,190
1,43,58,0
1,64,65,0
1,50,82,16
1,55,77,192
1,66,65,8
1,67,67,42
1,62,64,168
1,69,73,24
1,48,67,0
1,67,61,14
1,66,49,576
1,64,64,144
1,62,53,154
1,69,58,712
1,50,57,0
1,54,46,46
1,76,67,26
1,57,63,0
1,62,57,10
1,57,54,192
1,78,54,10
1,74,70,48
1,62,59,0
1,57,59,184
1,50,37,26
1,69,54,0
1,62,46,8
1,69,55,52
1,48,46,0
1,54,46,168
1,76,67,36
1,60,58,0
1,54,52,58
1,57,59,192
1,60,59,8
1,78,62,0
1,74,72,192
1,57,43,176
1,69,43,16
1,60,47,384
1,69,49,56
1,47,44,0
1,55,45,16
1,76,65,0
1,57,63,0
1,59,43,192
1,50,61,30
1,78,58,10
1,74,71,192
1,48,49,0
1,54,53,10
1,72,63,14
1,57,59,0
1,62,62,0
1,70,51,4
1,64,62,0
1,69,43,330
1,50,48,0
1,66,37,0
1,57,58,24
1,62,60,24
1,64,45,48
1,66,33,192
1,69,49,0
1,74,37,192
1,76,48,192
2,40,68,28800
2,38,68,0
2,35,68,16
2,37,68,1920
2,38,68,16
2,33,68,14
2,31,68,94
2,31,68,80
2,31,68,74
2,31,68,80
2,31,68,0
2,33,68,32
2,36,68,26
2,26,68,16
2,26,68,80
2,26,68,64
2,30,68,192
2,30,68,74
2,33,68,30
2,38,68,14
2,31,68,48
2,38,68,10
2,33,68,40
2,36,68,32
2,36,68,88
2,45,68,16
2,46,68,384
2,26,68,62
2,26,68,96
2,33,68,576
2,38,68,16
2,33,68,192
2,30,68,154
2,30,68,80
2,33,68,14
2,38,68,26
2,31,68,48
2,31,68,104
2,35,68,768
2,38,68,32
2,36,68,24
2,46,68,10
2,38,68,0
2,37,68,0
2,35,68,30
2,43,68,768
2,35,68,0
2,42,68,768
2,45,68,16
2,33,68,10
2,35,68,0
2,31,68,32
2,38,68,0
2,40,68,10
2,38,68,62
2,38,68,94
2,38,68,46
2,37,68,10
2,40,68,26
2,38,68,96
2,35,68,26
2,35,68,90
2,33,68,40
2,37,68,768
2,38,68,16
2,31,68,26
2,38,68,1728
2,40,68,16
2,38,68,58
2,45,68,0
2,43,68,16
2,42,68,192
2,37,68,378
2,35,68,16
2,38,68,16
2,35,68,42
2,37,68,0
2,33,68,10
2,38,68,42
2,31,68,46
2,40,68,64
2,42,68,2112
2,43,68,26
2,35,68,0
2,37,68,26
2,38,68,26
2,40,68,16
2,37,68,192
2,33,68,174
2,31,68,64
2,31,68,80
2,31,68,58
2,35,68,16
2,38,68,32
2,37,68,384
2,35,68,16
2,26,68,14
2,26,68,112
2,33,68,960
2,35,68,80
2,30,68,14
2,30,68,106
2,33,68,768
2,35,68,16
2,31,68,48
2,31,68,126
2,43,68,576
2,38,68,8
2,36,68,62
2,36,68,94
2,43,68,384
2,46,68,8
2,26,68,14
2,26,68,106
2,33,68,576
2,38,68,30
2,30,68,32
2,30,68,192
2,37,68,576
2,42,68,16
2,31,68,24
2,31,68,0
2,38,68,384
2,43,68,16
2,36,68,30
2,38,68,0
2,43,68,16
2,42,68,192
2,36,68,0
2,38,68,26
2,40,68,24
2,35,68,192
2,36,68,16
2,38,68,46
3,50,84,0
3,69,84,0
3,54,84,0
3,57,84,0
3,76,84,0
3,62,84,0
3,57,84,0
3,78,84,0
3,74,84,0
3,62,84,0
3,69,84,0
3,57,84,0
3,62,84,0
3,49,84,0
3,64,84,0
3,69,84,0
3,52,84,0
3,57,84,0
3,76,84,0
3,61,84,0
3,64,84,0
3,73,84,0
3,47,84,0
3,67,84,0
3,71,84,0
3,50,84,0
3,55,84,0
3,67,84,0
3,59,84,0
3,47,84,0
3,74,84,0
3,66,84,0
3,50,84,0
3,54,84,0
3,64,84,0
3,73,84,0
3,59,84,0
3,54,84,0
3,66,84,0
3,74,84,0
3,45,84,0
3,73,84,0
3,64,84,0
3,49,84,0
3,52,84,0
3,61,84,0
3,69,84,0
3,57,84,0
3,66,84,0
3,43,84,0
3,62,84,0
3,71,84,0
3,50,84,0
3,55,84,0
3,59,84,0
3,62,84,0
3,67,84,0
3,69,84,0
3,67,84,192
3,62,84,0
3,59,84,0
3,54,84,0
3,50,84,0
3,57,84,0
3,64,84,0
3,62,84,0
3,57,84,0
3,66,84,0
3,62,84,0
3,57,84,0
3,49,84,0
3,57,84,0
3,52,84,0
3,57,84,0
3,64,84,0
3,61,84,0
3,55,84,0
3,47,84,0
3,62,84,0
3,47,84,0
3,66,84,0
3,62,84,0
3,54,84,0
3,61,84,0
3,59,84,0
3,54,84,0
3,62,84,0
3,45,84,0
3,61,84,0
3,52,84,0
3,57,84,0
3,54,84,0
3,43,84,0
3,59,84,0
3,50,84,0
3,55,84,0
3,59,84,0
