track,note,velocity,time
0,37,85,229
0,37,122,0
0,56,115,40
0,61,96,30
0,61,0,90
0,68,70,0
0,61,71,0
0,65,82,0
0,80,104,0
0,73,107,0
0,73,0,0
0,80,0,0
0,61,0,0
0,68,0,0
0,56,0,0
0,65,0,0
0,80,89,0
0,65,83,0
0,56,73,0
0,68,71,0
0,61,87,0
0,73,89,0
0,73,0,30
0,68,0,0
0,80,0,0
0,78,115,0
0,73,76,0
0,68,78,0
0,68,0,30
0,73,0,0
0,37,0,0
0,61,0,0
0,65,0,0
0,56,0,0
0,78,0,0
0,78,96,0
0,56,59,0
0,65,78,0
0,73,84,0
0,68,89,0
0,61,89,0
0,68,0,30
0,65,0,0
0,78,0,0
0,73,0,0
0,77,86,0
0,68,84,0
0,73,53,0
0,60,62,11
0,63,62,0
0,56,62,0
0,73,0,19
0,77,0,0
0,56,0,0
0,68,0,0
0,61,0,0
0,77,73,0
0,68,100,0
0,56,60,0
0,73,78,0
0,65,82,0
0,61,89,0
0,68,0,30
0,61,0,30
0,73,0,0
0,65,0,0
0,77,0,0
0,56,0,0
0,65,77,0
0,68,100,0
0,75,100,0
0,61,84,0
0,56,19,0
0,41,62,26
0,53,62,0
0,56,0,4
0,61,0,0
0,75,0,0
0,68,0,0
0,65,0,0
0,68,92,0
0,56,82,0
0,73,111,0
0,56,0,30
0,68,0,0
0,41,85,0
0,75,111,0
0,63,96,0
0,61,89,0
0,68,104,0
0,56,59,0
0,37,0,29
0,61,0,91
0,63,0,0
0,61,78,0
0,63,70,0
0,61,0,60
0,56,0,0
0,56,57,0
0,63,0,30
0,56,0,30
0,61,115,0
0,63,111,0
0,56,87,0
0,56,0,30
0,61,0,30
0,41,80,0
0,56,100,0
0,56,0,30
0,63,0,0
0,60,100,0
0,56,70,0
0,63,89,0
0,41,0,30
0,41,0,21
0,60,0,4
0,53,0,1
0,63,0,4
0,41,85,0
0,60,0,30
0,61,92,0
0,56,0,30
0,34,73,4
0,46,73,3
0,61,73,10
0,41,0,13
0,61,0,0
0,75,0,0
0,61,121,0
0,58,121,0
0,53,121,0
0,34,89,0
0,58,0,120
0,41,0,0
0,56,107,0
0,53,0,60
0,68,0,0
0,73,0,0
0,56,0,30
0,61,0,0
0,80,115,0
0,68,73,0
0,73,119,0
0,73,0,30
0,68,0,0
0,80,0,0
0,73,111,0
0,56,79,0
0,68,63,0
0,80,94,0
0,80,0,30
0,68,0,0
0,78,115,0
0,61,46,0
0,68,62,0
0,68,0,30
0,56,0,0
0,61,0,0
0,78,0,0
0,78,100,0
0,68,84,0
0,68,0,30
0,78,0,0
0,73,0,0
0,73,96,0
0,68,89,0
0,77,93,0
0,61,84,0
0,65,85,0
0,56,70,0
0,77,0,30
0,68,0,0
0,73,0,0
0,73,104,0
0,77,83,0
0,68,94,0
0,68,0,30
0,65,0,0
0,61,0,0
0,56,0,0
0,34,0,22
0,56,0,3
0,46,0,1
0,77,0,4
0,68,100,0
0,75,100,0
0,61,92,0
0,56,53,0
0,65,86,0
0,65,0,30
0,73,0,0
0,56,0,0
0,61,0,0
0,68,0,0
0,68,94,0
0,73,104,0
0,56,73,0
0,44,43,21
0,61,0,2
0,56,43,2
0,68,0,5
0,34,0,0
0,75,0,0
0,56,0,0
0,63,100,0
0,68,86,0
0,75,86,0
0,61,78,0
0,56,75,0
0,42,86,0
0,63,0,90
0,56,0,30
0,61,0,0
0,63,78,0
0,56,39,0
0,61,82,0
0,56,0,30
0,61,0,30
0,56,63,0
0,42,66,0
0,63,0,30
0,56,0,29
0,56,99,1
0,61,99,0
0,63,99,0
0,42,0,30
0,42,62,30
0,56,0,30
0,63,0,0
0,61,0,0
0,56,99,0
0,61,99,0
0,63,99,0
0,42,0,29
0,56,0,1
0,56,0,20
0,63,0,3
0,42,89,7
0,61,0,30
0,63,0,0
0,60,109,0
0,44,0,5
0,68,0,25
0,60,0,14
0,42,0,15
0,42,0,0
0,37,104,0
0,56,100,1
0,61,100,0
0,65,100,0
0,73,0,28
0,75,0,0
0,61,66,90
0,65,89,0
0,65,0,2
0,61,0,0
0,56,0,30
0,61,0,58
0,65,0,0
0,56,57,0
0,65,80,30
0,61,87,0
0,61,0,120
0,65,0,0
0,56,0,0
0,65,82,0
0,56,45,0
0,61,89,0
0,56,0,30
0,56,92,30
0,61,0,30
0,65,0,0
0,37,0,30
0,56,0,0
0,56,75,0
0,41,80,0
0,61,89,0
0,63,78,0
0,63,0,120
0,61,0,0
0,56,0,0
0,56,52,0
0,63,66,0
0,61,82,0
0,61,0,120
0,63,0,0
0,56,0,0
0,56,44,0
0,61,89,0
0,63,71,0
0,61,0,90
0,56,0,30
0,63,90,0
0,56,90,0
0,61,90,0
0,61,0,59
0,63,0,1
0,60,91,0
0,56,0,14
0,63,0,15
0,60,0,15
0,41,0,16
0,34,78,0
0,65,66,1
0,56,70,0
0,61,79,0
0,56,0,119
0,65,0,0
0,61,0,1
0,65,96,0
0,61,94,0
0,56,55,0
0,56,71,58
0,56,0,1
0,61,0,31
0,61,92,28
0,65,91,0
0,65,0,2
0,56,0,88
0,61,0,0
0,65,0,0
0,56,42,30
0,65,72,0
0,61,94,0
0,56,0,30
0,61,0,30
0,56,92,0
0,65,0,30
0,56,0,30
0,34,0,0
0,44,92,0
0,63,89,0
0,61,94,0
0,56,82,0
0,56,0,90
0,61,0,0
0,63,0,0
0,56,63,30
0,63,78,0
0,61,94,0
0,56,0,30
0,61,0,30
0,56,87,0
0,56,0,30
0,63,0,0
0,60,98,30
0,63,68,0
0,56,70,0
0,56,0,59
0,60,0,30
0,56,75,0
0,56,0,30
0,63,0,0
0,60,89,0
0,56,79,0
0,60,103,0
0,63,84,0
0,60,0,30
0,61,89,0
0,61,0,30
0,63,115,0
0,63,0,30
0,60,0,30
0,44,0,0
0,56,0,0
0,37,119,0
0,65,46,1
0,61,89,0
0,56,71,0
0,63,0,28
0,61,87,90
0,56,30,0
0,65,82,0
0,65,0,1
0,61,0,1
0,56,0,0
0,56,0,28
0,56,84,30
0,61,0,30
0,61,10,0
0,61,0,30
0,56,0,0
0,65,0,0
0,61,89,0
0,65,93,0
0,56,55,0
0,65,0,90
0,61,0,0
0,56,0,30
0,65,85,0
0,56,45,0
0,61,87,0
0,56,0,30
0,61,0,30
0,65,0,0
0,56,96,0
0,56,0,60
0,37,0,0
0,41,93,0
0,63,89,1
0,61,92,0
0,56,65,0
0,63,79,118
0,61,89,0
0,56,52,0
0,56,0,2
0,63,0,0
0,61,0,0
0,56,0,58
0,61,0,30
0,63,0,0
0,56,61,0
0,63,87,30
0,61,96,0
0,61,0,90
0,63,0,30
0,56,0,0
0,63,79,0
0,61,96,0
0,56,45,0
0,56,0,30
0,61,0,30
0,63,0,0
0,56,78,0
0,56,0,30
0,63,46,0
0,63,0,30
0,41,0,0
0,61,87,0
0,58,71,0
0,30,88,0
0,54,100,0
0,54,0,90
0,58,0,0
0,61,0,30
0,54,76,0
0,58,96,0
0,61,92,0
0,54,0,30
0,58,0,30
0,54,82,0
0,61,0,60
0,61,94,0
0,58,94,0
0,58,0,90
0,61,0,30
0,54,0,0
0,58,94,0
0,61,94,0
0,73,56,32
0,68,56,0
0,66,56,1
0,61,56,10
0,54,56,1
0,56,56,0
0,61,0,16
0,58,0,0
0,54,89,0
0,32,106,3
0,54,0,3
0,32,0,6
0,56,104,5
0,61,96,0
0,54,94,0
0,32,107,0
0,54,0,26
0,54,21,30
0,61,0,30
0,54,0,30
0,56,0,0
0,56,94,0
0,61,94,0
0,73,0,57
0,66,0,2
0,61,0,1
0,56,0,0
0,54,73,0
0,61,0,2
0,63,54,5
0,72,54,0
0,54,0,4
0,51,54,5
0,60,54,1
0,54,0,13
0,45,100,4
0,51,111,0
0,56,94,0
0,60,86,0
0,56,107,5
0,56,0,7
0,45,0,7
0,43,100,0
0,53,86,2
0,56,104,1
0,61,107,1
0,56,0,9
0,53,0,0
0,61,0,1
0,53,82,19
0,56,104,0
0,61,66,1
0,32,0,1
0,56,0,9
0,53,0,4
0,61,0,0
0,32,120,2
0,56,0,1
0,51,0,0
0,43,0,0
0,60,0,0
0,56,89,0
0,60,96,0
0,45,100,0
0,56,111,1
0,30,120,1
0,45,0,1
0,43,93,0
0,32,0,1
0,30,0,12
0,53,86,0
0,56,0,1
0,29,120,0
0,56,115,0
0,56,0,1
0,43,0,0
0,41,111,0
0,51,107,0
0,61,65,3
0,53,0,7
0,56,0,2
0,61,0,11
0,60,0,7
0,51,0,0
0,53,85,1
0,56,104,0
0,68,0,3
0,61,92,0
0,72,0,1
0,51,0,0
0,56,0,0
0,63,0,1
0,60,0,1
0,56,0,2
0,53,0,4
0,61,0,2
0,29,0,13
0,30,0,0
0,56,49,0
0,61,66,0
0,56,84,0
0,65,54,0
0,65,89,0
0,57,110,0
0,36,100,0
0,37,107,0
0,61,84,0
0,41,0,29
0,61,0,30
0,56,0,0
0,65,0,0
0,42,115,0
0,36,0,60
0,65,93,0
0,38,110,0
0,61,89,0
0,42,0,30
0,61,0,30
0,65,0,0
0,56,68,0
0,42,92,0
0,37,0,30
0,38,0,0
0,37,79,0
0,37,0,30
0,56,0,0
0,61,89,0
0,36,100,0
0,65,86,0
0,37,82,0
0,36,0,30
0,42,0,0
0,65,0,30
0,61,0,0
0,36,103,0
0,56,75,0
0,42,89,0
0,56,0,30
0,36,0,30
0,65,89,0
0,61,94,0
0,38,110,0
0,56,63,0
0,56,0,30
0,42,0,0
0,61,0,30
0,65,0,0
0,56,87,0
0,42,96,0
0,56,0,30
0,37,0,0
0,61,100,0
0,65,72,0
0,68,84,0
0,68,0,30
0,65,0,0
0,61,0,0
0,38,0,0
0,36,100,0
0,56,104,0
0,65,104,0
0,37,109,0
0,73,104,0
0,68,104,0
0,65,104,0
0,61,104,0
0,56,0,30
0,42,0,0
0,61,0,30
0,42,104,0
0,56,82,0
0,56,0,30
0,65,0,0
0,68,0,30
0,65,0,0
0,36,0,0
0,65,80,0
0,61,87,0
0,38,108,0
0,42,0,30
0,73,0,0
0,61,0,30
0,42,104,0
0,56,71,0
0,56,0,30
0,37,0,0
0,65,0,0
0,38,0,30
0,36,100,0
0,56,118,0
0,37,105,0
0,65,118,0
0,61,118,0
0,56,0,30
0,42,0,0
0,61,0,30
0,56,75,0
0,42,107,0
0,56,0,30
0,65,0,0
0,61,0,8
0,60,82,20
0,37,0,2
0,36,0,0
0,60,117,0
0,38,109,0
0,65,117,0
0,36,103,0
0,57,0,30
0,60,0,30
0,46,96,0
0,58,84,0
0,58,0,30
0,65,0,0
0,56,0,7
0,61,75,22
0,38,0,1
0,36,0,0
0,58,68,0
0,57,75,0
0,36,111,0
0,61,117,0
0,34,92,0
0,58,117,0
0,65,117,0
0,60,0,2
0,58,0,28
0,46,0,0
0,42,0,0
0,61,0,30
0,58,79,0
0,42,107,0
0,65,0,30
0,58,0,30
0,36,0,0
0,65,85,0
0,38,108,0
0,61,89,0
0,42,0,30
0,61,0,30
0,42,92,0
0,58,78,0
0,34,0,30
0,65,0,0
0,34,75,0
0,34,0,30
0,38,0,0
0,34,89,0
0,65,89,0
0,61,92,0
0,36,111,0
0,36,0,30
0,58,0,0
0,42,0,0
0,61,0,30
0,58,73,0
0,36,96,0
0,42,107,0
0,65,0,30
0,36,0,30
0,58,0,0
0,61,92,0
0,65,89,0
0,38,108,0
0,42,0,30
0,61,0,30
0,42,107,0
0,58,76,0
0,65,0,30
0,34,0,0
0,61,113,2
0,58,113,0
0,65,113,2
0,61,0,11
0,65,0,2
0,58,0,5
0,38,0,8
0,65,113,0
0,65,113,0
0,36,106,0
0,61,113,0
0,34,94,0
0,70,113,3
0,58,0,27
0,42,0,0
0,61,0,30
0,42,104,0
0,58,75,0
0,65,0,30
0,58,0,30
0,36,0,0
0,61,89,0
0,65,85,0
0,38,105,0
0,65,0,1
0,70,0,1
0,42,0,28
0,61,0,30
0,42,96,0
0,58,73,0
0,65,0,30
0,34,0,0
0,38,0,30
0,58,0,0
0,36,100,0
0,65,119,0
0,58,119,0
0,61,119,0
0,34,78,0
0,58,0,30
0,42,0,0
0,61,0,30
0,58,84,0
0,42,100,0
0,65,0,30
0,58,0,30
0,34,0,0
0,36,0,0
0,61,119,0
0,38,106,0
0,32,115,0
0,63,119,0
0,63,61,3
0,65,0,1
0,63,0,56
0,57,0,0
0,61,0,0
0,58,87,0
0,46,87,0
0,45,91,3
0,58,0,27
0,63,0,23
0,66,73,2
0,32,0,5
0,38,0,0
0,57,75,0
0,61,117,0
0,30,111,0
0,58,117,0
0,36,111,0
0,42,0,30
0,46,0,0
0,61,0,30
0,58,0,0
0,42,107,0
0,54,87,0
0,45,0,43
0,36,0,17
0,38,107,0
0,61,82,0
0,58,92,0
0,42,0,30
0,54,0,0
0,30,0,30
0,58,0,0
0,42,92,0
0,54,79,0
0,61,0,30
0,30,96,0
0,30,0,30
0,61,89,0
0,36,111,0
0,30,100,0
0,58,94,0
0,36,0,30
0,54,0,0
0,42,0,0
0,58,0,30
0,36,96,0
0,54,84,0
0,42,92,0
0,38,0,30
0,61,0,0
0,58,89,30
0,61,82,0
0,38,107,0
0,30,0,30
0,54,0,0
0,42,0,0
0,42,89,0
0,42,0,30
0,58,0,0
0,42,100,0
0,30,92,0
0,54,76,0
0,30,0,30
0,36,0,0
0,61,0,0
0,54,115,3
0,61,107,1
0,58,92,1
0,58,0,8
0,61,0,1
0,54,0,3
0,54,56,10
0,54,0,3
0,58,92,0
0,30,111,0
0,36,98,0
0,61,84,0
0,58,96,1
0,61,111,0
0,66,115,1
0,42,0,28
0,58,0,30
0,42,96,0
0,54,71,0
0,38,0,30
0,61,0,0
0,36,0,30
0,61,79,0
0,58,89,0
0,38,109,0
0,61,0,30
0,42,0,0
0,54,0,0
0,58,0,1
0,66,0,5
0,30,0,24
0,58,0,0
0,61,0,0
0,42,100,0
0,54,76,0
0,30,89,30
0,30,0,30
0,54,0,0
0,38,0,0
0,61,84,0
0,30,89,0
0,58,92,0
0,36,106,0
0,42,0,30
0,58,0,30
0,54,70,0
0,42,94,0
0,61,0,30
0,54,0,30
0,36,0,0
0,38,104,0
0,58,87,0
0,61,82,0
0,30,0,30
0,42,0,0
0,58,0,28
0,66,0,1
0,58,0,1
0,61,0,0
0,42,76,0
0,54,87,0
0,30,89,0
0,54,0,5
0,54,0,25
0,57,0,0
0,56,56,29
0,38,0,1
0,30,0,0
0,61,96,0
0,32,100,0
0,63,75,0
0,36,106,0
0,57,75,0
0,63,51,4
0,42,0,26
0,42,96,30
0,56,73,0
0,61,0,30
0,63,0,0
0,36,0,30
0,61,75,0
0,38,100,0
0,63,62,0
0,56,0,30
0,42,0,0
0,61,0,30
0,32,0,0
0,63,0,0
0,56,78,0
0,42,100,0
0,32,75,0
0,32,0,30
0,56,0,30
0,36,108,0
0,61,89,0
0,32,82,0
0,63,79,0
0,36,0,30
0,57,0,0
0,42,0,0
0,63,0,30
0,38,0,0
0,61,0,0
0,42,96,0
0,36,120,0
0,56,73,0
0,63,84,48
0,56,78,1
0,60,98,1
0,56,0,10
0,38,93,0
0,61,89,0
0,63,78,0
0,45,86,0
0,43,70,30
0,63,0,30
0,61,0,0
0,56,76,0
0,41,108,0
0,46,89,0
0,61,0,8
0,32,0,22
0,56,0,0
0,36,0,0
0,56,0,20
0,60,0,0
0,63,0,8
0,56,0,1
0,38,0,1
0,32,80,0
0,63,100,0
0,36,120,0
0,56,100,0
0,60,100,0
0,63,0,4
0,42,0,86
0,46,0,30
0,43,0,30
0,45,0,30
0,41,0,0
0,36,0,90
0,60,0,180
0,63,0,9
0,56,0,0
0,32,0,0
0,37,119,0
0,36,117,0
0,37,127,0
0,56,100,1
0,65,100,0
0,61,100,0
0,61,66,118
0,54,104,0
0,65,89,0
0,65,0,2
0,61,0,0
0,56,0,30
0,65,0,58
0,36,0,0
0,61,0,0
0,56,57,0
0,61,87,30
0,65,80,0
