track,note,velocity,time
1,62,100,1920
1,67,100,0
1,71,100,0
1,62,100,4
1,67,100,0
1,69,100,0
1,62,100,4
1,67,100,0
1,72,100,0
1,62,100,4
1,67,100,0
1,72,100,0
1,62,100,4
1,67,100,0
1,72,100,0
1,62,100,4
1,67,100,0
1,71,100,0
1,62,100,4
1,67,100,0
1,69,100,0
1,62,100,388
1,67,100,0
1,71,100,0
1,62,100,4
1,67,100,0
1,69,100,0
1,62,100,4
1,67,100,0
1,72,100,0
1,62,100,4
1,67,100,0
1,72,100,0
1,62,100,4
1,67,100,0
1,72,100,0
1,62,100,4
1,67,100,0
1,71,100,0
1,62,100,4
1,67,100,0
1,69,100,0
1,62,100,388
1,67,100,0
1,71,100,0
1,62,100,4
1,67,100,0
1,69,100,0
1,62,100,4
1,67,100,0
1,72,100,0
1,62,100,4
1,67,100,0
1,72,100,0
1,62,100,4
1,67,100,0
1,72,100,0
1,62,100,4
1,67,100,0
1,71,100,0
1,62,100,4
1,67,100,0
1,69,100,0
1,62,100,388
1,67,100,0
1,71,100,0
1,62,100,4
1,67,100,0
1,69,100,0
1,66,100,4
1,69,100,0
1,74,100,0
1,66,100,4
1,69,100,0
1,74,100,0
1,66,100,4
1,69,100,0
1,74,100,0
1,71,100,4
1,66,100,0
1,62,100,0
1,62,100,99076
1,67,100,0
1,71,100,0
1,62,100,4
1,67,100,0
1,69,100,0
1,62,100,4
1,67,100,0
1,72,100,0
1,62,100,4
1,67,100,0
1,72,100,0
1,62,100,4
1,67,100,0
1,72,100,0
1,62,100,4
1,67,100,0
1,71,100,0
1,62,100,4
1,67,100,0
1,69,100,0
1,62,100,388
1,67,100,0
1,71,100,0
1,62,100,4
1,67,100,0
1,69,100,0
1,62,100,4
1,67,100,0
1,72,100,0
1,62,100,4
1,67,100,0
1,72,100,0
1,62,100,4
1,67,100,0
1,72,100,0
1,62,100,4
1,67,100,0
1,71,100,0
1,62,100,4
1,67,100,0
1,69,100,0
1,62,100,388
1,67,100,0
1,71,100,0
1,62,100,4
1,67,100,0
1,69,100,0
1,62,100,4
1,67,100,0
1,72,100,0
1,62,100,4
1,67,100,0
1,72,100,0
1,62,100,4
1,67,100,0
1,72,100,0
1,62,100,4
1,67,100,0
1,71,100,0
1,62,100,4
1,67,100,0
1,69,100,0
1,62,100,388
1,67,100,0
1,71,100,0
1,62,100,4
1,67,100,0
1,69,100,0
1,66,100,4
1,69,100,0
1,74,100,0
1,66,100,4
1,69,100,0
1,74,100,0
1,66,100,4
1,69,100,0
1,74,100,0
1,71,100,4
1,66,100,0
1,62,100,0
1,62,100,772
1,67,100,0
1,71,100,0
1,62,100,4
1,67,100,0
1,69,100,0
1,62,100,4
1,67,100,0
1,72,100,0
1,62,100,4
1,67,100,0
1,72,100,0
1,62,100,4
1,67,100,0
1,72,100,0
1,62,100,4
1,67,100,0
1,71,100,0
1,62,100,4
1,67,100,0
1,69,100,0
1,62,100,388
1,67,100,0
1,71,100,0
1,62,100,4
1,67,100,0
1,69,100,0
1,62,100,4
1,67,100,0
1,72,100,0
1,62,100,4
1,67,100,0
1,72,100,0
1,62,100,4
1,67,100,0
1,72,100,0
1,62,100,4
1,67,100,0
1,71,100,0
1,62,100,4
1,67,100,0
1,69,100,0
1,62,100,388
1,67,100,0
1,71,100,0
1,62,100,4
1,67,100,0
1,69,100,0
1,62,100,4
1,67,100,0
1,72,100,0
1,62,100,4
1,67,100,0
1,72,100,0
1,62,100,4
1,67,100,0
1,72,100,0
1,62,100,4
1,67,100,0
1,71,100,0
1,62,100,4
1,67,100,0
1,69,100,0
1,62,100,388
1,67,100,0
1,71,100,0
1,62,100,4
1,67,100,0
1,69,100,0
1,66,100,4
1,69,100,0
1,74,100,0
1,66,100,4
1,69,100,0
1,74,100,0
1,66,100,4
1,69,100,0
1,74,100,0
1,71,100,4
1,66,100,0
1,62,100,0
1,62,100,99076
1,67,100,0
1,71,100,0
1,62,100,4
1,67,100,0
1,69,100,0
1,62,100,4
1,67,100,0
1,72,100,0
1,62,100,4
1,67,100,0
1,72,100,0
1,62,100,4
1,67,100,0
1,72,100,0
1,62,100,4
1,67,100,0
1,71,100,0
1,62,100,4
1,67,100,0
1,69,100,0
1,62,100,388
1,67,100,0
1,71,100,0
1,62,100,4
1,67,100,0
1,69,100,0
1,62,100,4
1,67,100,0
1,72,100,0
1,62,100,4
1,67,100,0
1,72,100,0
1,62,100,4
1,67,100,0
1,72,100,0
1,62,100,4
1,67,100,0
1,71,100,0
1,62,100,4
1,67,100,0
1,69,100,0
1,62,100,388
1,67,100,0
1,71,100,0
1,62,100,4
1,67,100,0
1,69,100,0
1,62,100,4
1,67,100,0
1,72,100,0
1,62,100,4
1,67,100,0
1,72,100,0
1,62,100,4
1,67,100,0
1,72,100,0
1,62,100,4
1,67,100,0
1,71,100,0
1,62,100,4
1,67,100,0
1,69,100,0
1,62,100,388
1,67,100,0
1,71,100,0
1,62,100,4
1,67,100,0
1,69,100,0
1,66,100,4
1,69,100,0
1,74,100,0
1,66,100,4
1,69,100,0
1,74,100,0
1,66,100,4
1,69,100,0
1,74,100,0
1,71,100,4
1,66,100,0
1,62,100,0
1,62,100,388
1,67,100,0
1,71,100,0
2,31,100,1536
2,35,100,4
2,36,100,4
2,31,100,4
2,28,100,4
2,35,100,4
2,36,100,4
2,33,100,4
2,38,100,4
2,38,100,4
2,38,100,4
2,38,100,4
2,38,100,4
2,38,100,4
2,38,100,4
2,28,100,4
2,28,100,4
2,28,100,4
2,28,100,4
2,28,100,4
2,28,100,4
2,28,100,4
2,28,100,4
2,28,100,4
2,28,100,4
2,28,100,4
2,28,100,4
2,28,100,4
2,28,100,4
2,32,100,4
2,33,100,4
2,33,100,4
2,33,100,4
2,33,100,4
2,33,100,4
2,33,100,4
2,33,100,4
2,33,100,4
2,33,100,4
2,33,100,4
2,33,100,4
2,33,100,4
2,33,100,4
2,33,100,4
2,33,100,4
2,35,100,4
2,35,100,4
2,35,100,4
2,35,100,4
2,35,100,4
2,35,100,4
2,35,100,4
2,35,100,4
2,35,100,4
2,35,100,4
2,35,100,4
2,35,100,4
2,35,100,4
2,35,100,4
2,35,100,4
2,28,100,4
2,28,100,4
2,28,100,4
2,28,100,4
2,28,100,4
2,28,100,4
2,28,100,4
2,28,100,4
2,28,100,4
2,39,100,4
2,40,100,4
2,39,100,4
2,40,100,4
2,35,100,4
2,28,100,4
2,28,100,4
2,28,100,4
2,28,100,4
2,28,100,4
2,28,100,4
2,28,100,4
2,28,100,4
2,28,100,4
2,28,100,4
2,28,100,4
2,28,100,4
2,28,100,4
2,28,100,4
2,32,100,4
2,33,100,4
2,33,100,4
2,33,100,4
2,33,100,4
2,33,100,4
2,33,100,4
2,33,100,4
2,33,100,4
2,33,100,4
2,33,100,4
2,33,100,4
2,33,100,4
2,33,100,4
2,33,100,4
2,33,100,4
2,37,100,4
2,37,100,4
2,37,100,4
2,37,100,4
2,37,100,4
2,37,100,4
2,37,100,4
2,33,100,4
2,33,100,4
2,33,100,4
2,35,100,4
2,35,100,4
2,35,100,4
2,28,100,4
2,28,100,4
2,28,100,4
2,28,100,4
2,28,100,4
2,28,100,4
2,28,100,4
2,28,100,4
2,28,100,4
2,28,100,4
2,28,100,4
2,28,100,4
2,28,100,4
2,28,100,4
2,28,100,4
2,28,100,4
2,31,100,4
2,31,100,4
2,31,100,4
2,31,100,4
2,31,100,4
2,31,100,4
2,31,100,4
2,31,100,4
2,31,100,4
2,31,100,4
2,31,100,4
2,31,100,4
2,31,100,4
2,31,100,4
2,35,100,4
2,35,100,4
2,36,100,4
2,36,100,4
2,36,100,4
2,36,100,4
2,36,100,4
2,36,100,4
2,36,100,4
2,36,100,4
2,36,100,4
2,36,100,4
2,36,100,4
2,36,100,4
2,36,100,4
2,36,100,4
2,31,100,4
2,28,100,4
2,28,100,4
2,28,100,4
2,28,100,4
2,28,100,4
2,28,100,4
2,28,100,4
2,28,100,4
2,28,100,4
2,28,100,4
2,28,100,4
2,28,100,4
2,28,100,4
2,28,100,4
2,28,100,4
2,38,100,4
2,38,100,4
2,38,100,4
2,38,100,4
2,38,100,4
2,38,100,4
2,38,100,4
2,38,100,4
2,38,100,4
2,38,100,4
2,38,100,4
2,38,100,4
2,38,100,4
2,38,100,4
2,38,100,4
2,38,100,4
2,31,100,4
2,31,100,4
2,31,100,4
2,31,100,4
2,31,100,4
2,31,100,4
2,31,100,4
2,31,100,4
2,31,100,4
2,31,100,4
2,31,100,4
2,31,100,4
2,31,100,4
2,31,100,4
2,35,100,4
2,35,100,4
2,36,100,4
2,36,100,4
2,36,100,4
2,36,100,4
2,36,100,4
2,36,100,4
2,36,100,4
2,36,100,4
2,36,100,4
2,36,100,4
2,36,100,4
2,36,100,4
2,36,100,4
2,36,100,4
2,31,100,4
2,28,100,4
2,28,100,4
2,28,100,4
2,28,100,4
2,28,100,4
2,28,100,4
2,28,100,4
2,28,100,4
2,28,100,4
2,28,100,4
2,28,100,4
2,28,100,4
2,28,100,4
2,28,100,4
2,28,100,4
2,38,100,4
2,38,100,4
2,38,100,4
2,38,100,4
2,38,100,4
2,38,100,4
2,38,100,4
2,38,100,4
2,38,100,4
2,38,100,4
2,38,100,4
2,38,100,4
2,38,100,4
2,28,100,388
2,28,100,4
2,28,100,4
2,28,100,4
2,28,100,4
2,28,100,4
2,28,100,4
2,28,100,4
2,28,100,4
2,28,100,4
2,28,100,4
2,28,100,4
2,28,100,4
2,28,100,4
2,32,100,4
2,33,100,4
2,33,100,4
2,33,100,4
2,33,100,4
2,33,100,4
2,33,100,4
2,33,100,4
2,33,100,4
2,33,100,4
2,33,100,4
2,33,100,4
2,33,100,4
2,33,100,4
2,33,100,4
2,33,100,4
2,35,100,4
2,35,100,4
2,35,100,4
2,35,100,4
2,35,100,4
2,35,100,4
2,35,100,4
2,35,100,4
2,35,100,4
2,35,100,4
2,35,100,4
2,35,100,4
2,35,100,4
2,35,100,4
2,35,100,4
2,28,100,4
2,28,100,4
2,28,100,4
2,28,100,4
2,28,100,4
2,28,100,4
2,28,100,4
2,28,100,4
2,28,100,4
2,39,100,4
2,40,100,4
2,39,100,4
2,40,100,4
2,35,100,4
2,28,100,4
2,28,100,4
2,28,100,4
2,28,100,4
2,28,100,4
2,28,100,4
2,28,100,4
2,28,100,4
2,28,100,4
2,28,100,4
2,28,100,4
2,28,100,4
2,28,100,4
2,28,100,4
2,32,100,4
2,33,100,4
2,33,100,4
2,33,100,4
2,33,100,4
2,33,100,4
2,33,100,4
2,33,100,4
2,33,100,4
2,33,100,4
2,33,100,4
2,33,100,4
2,33,100,4
2,33,100,4
2,33,100,4
2,33,100,4
2,37,100,4
2,37,100,4
2,37,100,4
2,37,100,4
2,37,100,4
2,37,100,4
2,37,100,4
2,33,100,4
2,33,100,4
2,33,100,4
2,35,100,4
2,35,100,4
2,35,100,4
2,28,100,4
2,28,100,4
2,28,100,4
2,28,100,4
2,28,100,4
2,28,100,4
2,28,100,4
2,28,100,4
2,28,100,4
2,28,100,4
2,28,100,4
2,28,100,4
2,28,100,4
2,28,100,4
2,28,100,4
2,28,100,4
2,31,100,4
2,31,100,4
2,31,100,4
2,31,100,4
2,31,100,4
2,31,100,4
2,31,100,4
2,31,100,4
2,31,100,4
2,31,100,4
2,31,100,4
2,31,100,4
2,31,100,4
2,31,100,4
2,35,100,4
2,35,100,4
2,36,100,4
2,36,100,4
2,36,100,4
2,36,100,4
2,36,100,4
2,36,100,4
2,36,100,4
2,36,100,4
2,36,100,4
2,36,100,4
2,36,100,4
2,36,100,4
2,36,100,4
2,36,100,4
2,31,100,4
2,28,100,4
2,28,100,4
2,28,100,4
2,28,100,4
2,28,100,4
2,28,100,4
2,28,100,4
2,28,100,4
2,28,100,4
2,28,100,4
2,28,100,4
2,28,100,4
2,28,100,4
2,28,100,4
2,28,100,4
2,38,100,4
2,38,100,4
2,38,100,4
2,38,100,4
2,38,100,4
2,38,100,4
2,38,100,4
2,38,100,4
2,38,100,4
2,38,100,4
2,38,100,4
2,38,100,4
2,38,100,4
2,38,100,4
2,38,100,4
2,38,100,4
2,31,100,4
2,31,100,4
2,31,100,4
2,31,100,4
2,31,100,4
2,31,100,4
2,31,100,4
2,31,100,4
2,31,100,4
2,31,100,4
2,31,100,4
2,31,100,4
2,31,100,4
2,31,100,4
2,35,100,4
2,35,100,4
2,36,100,4
2,36,100,4
2,36,100,4
2,36,100,4
2,36,100,4
2,36,100,4
2,36,100,4
2,36,100,4
2,36,100,4
2,36,100,4
2,36,100,4
2,36,100,4
2,36,100,4
2,36,100,4
2,31,100,4
2,28,100,4
2,28,100,4
2,28,100,4
2,28,100,4
2,28,100,4
2,28,100,4
2,28,100,4
2,28,100,4
2,28,100,4
2,28,100,4
2,28,100,4
2,28,100,4
2,28,100,4
2,28,100,4
2,28,100,4
2,38,100,4
2,38,100,4
2,38,100,4
2,38,100,4
2,38,100,4
2,38,100,4
2,38,100,4
2,38,100,4
2,38,100,4
2,38,100,4
2,38,100,4
2,38,100,4
2,38,100,4
2,38,100,4
2,38,100,4
2,38,100,4
2,31,100,4
2,35,100,4
2,36,100,4
2,31,100,4
2,28,100,4
2,35,100,4
2,36,100,4
2,33,100,4
2,38,100,4
2,38,100,4
2,38,100,4
2,38,100,4
2,38,100,4
2,38,100,4
2,38,100,4
2,38,100,4
2,31,100,4
2,31,100,4
2,31,100,4
2,31,100,4
2,31,100,4
2,31,100,4
2,31,100,4
2,31,100,4
2,31,100,4
2,31,100,4
2,31,100,4
2,31,100,4
2,31,100,4
2,31,100,4
2,35,100,4
2,35,100,4
2,36,100,4
2,36,100,4
2,36,100,4
2,36,100,4
2,36,100,4
2,36,100,4
2,36,100,4
2,36,100,4
2,36,100,4
2,36,100,4
2,36,100,4
2,36,100,4
2,36,100,4
2,36,100,4
2,31,100,4
2,28,100,4
2,28,100,4
2,28,100,4
2,28,100,4
2,28,100,4
2,28,100,4
2,28,100,4
2,28,100,4
2,28,100,4
2,28,100,4
2,28,100,4
2,28,100,4
2,28,100,4
2,28,100,4
2,28,100,4
2,28,100,4
2,36,100,4
2,36,100,4
2,36,100,4
2,36,100,4
2,36,100,4
2,36,100,4
2,36,100,4
2,38,100,4
2,38,100,4
2,38,100,4
2,38,100,4
2,38,100,4
2,38,100,4
2,38,100,4
2,38,100,4
2,31,100,4
2,31,100,4
2,31,100,4
2,31,100,4
2,31,100,4
2,31,100,4
2,31,100,4
2,31,100,4
2,31,100,4
2,31,100,4
2,31,100,4
2,31,100,4
2,31,100,4
2,31,100,4
2,31,100,4
2,31,100,4
2,38,100,4
2,38,100,4
2,38,100,4
2,38,100,4
2,38,100,4
2,38,100,4
2,38,100,4
2,38,100,4
2,38,100,4
2,38,100,4
2,38,100,4
2,38,100,4
2,38,100,4
2,38,100,4
2,38,100,4
2,38,100,4
2,29,100,4
2,29,100,4
2,29,100,4
2,29,100,4
2,29,100,4
2,29,100,4
2,29,100,4
2,29,100,4
2,29,100,4
2,29,100,4
2,29,100,4
2,29,100,4
2,29,100,4
2,29,100,4
2,29,100,4
2,29,100,4
2,36,100,4
2,36,100,4
2,36,100,4
2,36,100,4
2,36,100,4
2,36,100,4
2,36,100,4
2,36,100,4
2,36,100,4
2,36,100,4
2,36,100,4
2,36,100,4
2,36,100,4
2,36,100,4
2,36,100,4
2,36,100,4
2,31,100,4
2,31,100,4
2,31,100,4
2,31,100,4
2,31,100,4
2,31,100,4
2,31,100,4
2,31,100,4
2,31,100,4
2,31,100,4
2,31,100,4
2,31,100,4
2,31,100,4
2,31,100,4
2,31,100,4
2,31,100,4
2,38,100,4
2,38,100,4
2,38,100,4
2,38,100,4
2,38,100,4
2,38,100,4
2,38,100,4
2,38,100,4
2,38,100,4
2,38,100,4
2,38,100,4
2,38,100,4
2,38,100,4
2,38,100,4
2,38,100,4
2,38,100,4
2,29,100,4
2,29,100,4
2,29,100,4
