track,note,velocity,time
1,71,79,24960
1,76,79,64
1,78,79,64
1,71,79,1800
1,76,79,64
1,78,79,64
1,79,79,64
1,81,79,64
1,79,79,64
1,81,79,64
1,83,79,128
1,81,79,840
1,79,79,1032
1,76,79,0
1,71,79,3264
1,76,79,64
1,78,79,64
1,71,79,1800
1,76,79,64
1,78,79,64
1,79,79,64
1,81,79,64
1,79,79,64
1,81,79,64
1,79,79,0
1,83,79,64
1,81,79,840
1,79,79,1032
1,79,79,1808
1,79,79,64
1,81,79,64
1,79,79,64
1,83,95,64
1,81,95,0
1,81,95,648
1,81,95,64
1,79,95,64
1,79,95,64
1,79,95,1032
1,79,95,64
1,81,95,64
1,79,95,64
1,83,95,64
1,83,95,0
1,84,95,0
1,83,95,0
1,81,95,0
1,74,95,456
1,81,95,64
1,81,95,64
1,79,95,64
1,79,95,64
1,81,95,320
1,83,95,64
1,83,111,64
1,81,95,904
1,79,95,0
1,78,95,192
1,76,95,64
1,78,95,64
1,79,95,64
1,81,95,512
1,79,95,128
1,78,95,320
1,79,95,64
1,83,95,64
1,81,95,64
1,79,95,0
1,81,95,512
1,79,95,128
1,78,95,320
1,76,95,64
1,78,95,64
1,79,95,64
1,83,95,128
1,81,95,128
1,81,95,64
1,79,95,64
1,78,95,64
1,78,95,64
1,78,95,64
1,79,95,64
1,79,95,64
1,81,95,512
1,79,95,128
1,78,95,320
1,76,95,64
1,78,95,64
1,79,95,64
1,81,95,512
1,79,95,128
1,78,95,320
1,79,95,64
1,83,95,64
1,81,95,64
1,79,95,0
1,81,95,512
1,79,95,128
1,78,95,320
1,76,95,64
1,78,95,64
1,79,95,64
1,83,95,128
1,81,95,128
1,81,95,64
1,79,95,64
1,78,95,64
1,78,95,64
1,78,95,64
1,79,95,64
1,79,95,64
1,71,79,896
1,76,79,64
1,78,79,64
1,71,79,1800
1,76,79,64
1,78,79,64
1,79,79,64
1,81,79,64
1,79,79,64
1,81,79,64
1,83,79,128
1,81,79,840
1,79,79,1032
1,76,79,0
1,71,79,3264
1,76,79,64
1,78,79,64
1,71,79,1800
1,76,79,64
1,78,79,64
1,79,79,64
1,81,79,64
1,79,79,64
1,81,79,64
1,79,79,0
1,83,79,64
1,81,79,840
1,79,79,1032
1,79,79,1808
1,79,79,64
1,81,79,64
1,79,79,64
1,83,95,64
1,81,95,0
1,81,95,648
1,81,95,64
1,79,95,64
1,79,95,64
1,79,95,1032
1,79,95,64
1,81,95,64
1,79,95,64
1,83,95,64
1,83,95,0
1,84,95,0
1,83,95,0
1,81,95,0
1,74,95,456
1,81,95,64
1,81,95,64
1,79,95,64
1,79,95,64
1,81,95,320
1,83,95,64
1,83,111,64
1,81,95,904
1,79,95,0
1,78,95,192
1,76,95,64
1,78,95,64
1,79,95,64
1,81,95,512
1,79,95,128
1,78,95,320
1,79,95,64
1,83,95,64
1,81,95,64
1,79,95,0
1,81,95,512
1,79,95,128
1,78,95,320
1,76,95,64
1,78,95,64
1,79,95,64
1,83,95,128
1,81,95,128
1,81,95,64
1,79,95,64
1,78,95,64
1,78,95,64
1,78,95,64
1,79,95,64
1,79,95,64
1,81,95,512
1,79,95,128
1,78,95,320
1,76,95,64
1,78,95,64
1,79,95,64
1,81,95,512
1,79,95,128
1,78,95,320
1,79,95,64
1,83,95,64
1,81,95,64
1,79,95,0
1,81,95,512
1,79,95,128
1,78,95,320
1,76,95,64
1,78,95,64
1,79,95,64
1,83,95,128
1,81,95,128
1,81,95,64
1,79,95,64
1,78,95,64
1,78,95,64
1,78,95,64
1,79,95,64
1,79,95,64
1,81,95,512
1,79,95,0
1,78,95,192
1,76,95,64
1,78,95,64
1,79,95,64
1,81,95,512
1,79,95,128
1,78,95,320
1,79,95,64
1,83,95,64
1,81,95,64
1,79,95,0
1,81,95,512
1,79,95,128
1,78,95,320
1,76,95,64
1,78,95,64
1,79,95,64
1,83,95,128
1,81,95,128
1,81,95,64
1,79,95,64
1,78,95,64
1,78,95,64
1,78,95,64
1,79,95,64
1,79,95,64
1,81,95,512
1,79,95,128
1,78,95,320
1,76,95,64
1,78,95,64
1,79,95,64
1,81,95,512
1,79,95,128
1,78,95,320
1,79,95,64
1,83,95,64
1,81,95,64
1,79,95,0
1,81,95,512
1,79,95,128
1,78,95,320
1,76,95,64
1,78,95,64
1,79,95,64
1,76,79,3200
1,83,79,264
1,81,79,264
1,79,79,136
1,76,79,136
1,83,79,272
1,81,79,272
1,79,79,136
1,76,79,136
1,83,79,264
1,81,79,264
1,79,79,136
1,78,79,136
1,81,95,13192
1,79,95,0
1,78,95,192
1,76,95,64
1,78,95,64
1,79,95,64
1,81,95,512
1,79,95,128
1,78,95,320
1,79,95,64
1,83,95,64
1,81,95,64
1,79,95,0
1,81,95,512
1,79,95,128
1,78,95,320
1,76,95,64
1,78,95,64
1,79,95,64
1,83,95,128
1,81,95,128
1,81,95,64
1,79,95,64
1,78,95,64
1,78,95,64
1,78,95,64
1,79,95,64
1,79,95,64
1,81,95,512
1,79,95,128
1,78,95,320
1,76,95,64
1,78,95,64
1,79,95,64
1,81,95,512
1,79,95,128
1,78,95,320
1,79,95,64
1,83,95,64
1,81,95,64
1,79,95,0
1,81,95,512
1,79,95,128
1,78,95,320
1,76,95,64
1,78,95,64
1,79,95,64
1,83,95,128
1,81,95,128
1,81,95,64
1,79,95,64
1,78,95,64
1,78,95,64
1,78,95,64
1,79,95,64
1,79,95,64
1,81,95,25088
1,79,95,0
1,78,95,192
1,76,95,64
1,78,95,64
1,79,95,64
1,81,95,512
1,79,95,128
1,78,95,320
1,79,95,64
1,83,95,64
1,81,95,64
1,79,95,0
1,81,95,512
1,79,95,128
1,78,95,320
1,76,95,64
1,78,95,64
1,79,95,64
1,83,95,128
1,81,95,128
1,81,95,64
1,79,95,64
1,78,95,64
1,78,95,64
1,78,95,64
1,79,95,64
1,79,95,64
1,81,95,512
1,79,95,128
1,78,95,320
1,76,95,64
1,78,95,64
1,79,95,64
1,81,95,512
1,79,95,128
1,78,95,320
1,79,95,64
1,83,95,64
1,81,95,64
1,79,95,0
1,81,95,512
1,79,95,128
1,78,95,320
1,76,95,64
1,78,95,64
1,79,95,64
1,83,95,3200
1,83,95,3856
2,40,79,11904
2,40,79,128
2,40,79,128
2,40,79,64
2,40,79,64
2,40,79,64
2,40,79,64
2,40,79,128
2,40,79,128
2,40,79,128
2,40,79,128
2,40,79,128
2,40,79,64
2,40,79,64
2,40,79,64
2,40,79,64
2,40,79,128
2,40,79,128
2,40,79,128
2,40,79,128
2,40,79,128
2,40,79,64
2,40,79,64
2,40,79,64
2,40,79,64
2,40,79,128
2,40,79,128
2,40,79,128
2,40,79,128
2,40,79,128
2,40,79,64
2,40,79,64
2,40,79,64
2,40,79,64
2,40,79,128
2,40,79,128
2,40,79,128
2,40,79,128
2,40,79,128
2,40,79,128
2,40,79,128
2,40,79,128
2,40,79,128
2,40,79,128
2,40,79,128
2,40,79,128
2,40,79,128
2,40,79,128
2,40,79,128
2,40,79,128
2,40,79,128
2,40,79,128
2,40,79,128
2,40,79,128
2,40,79,128
2,40,79,128
2,40,79,128
2,40,79,128
2,40,79,128
2,40,79,128
2,40,79,128
2,40,79,128
2,40,79,128
2,40,79,128
2,40,79,128
2,40,79,128
2,40,79,128
2,40,79,128
2,40,79,128
2,40,79,128
2,40,79,128
2,40,79,128
2,40,79,128
2,40,79,128
2,40,79,128
2,40,79,128
2,40,79,128
2,40,79,128
2,40,79,128
2,40,79,128
2,40,79,128
2,40,79,128
2,40,79,128
2,40,79,128
2,40,79,128
2,40,79,128
2,40,79,128
2,40,79,128
2,40,79,128
2,40,79,128
2,40,79,128
2,40,79,128
2,40,79,128
2,40,79,128
2,40,79,128
2,40,79,128
2,40,79,128
2,40,79,128
2,45,79,128
2,47,95,136
2,48,95,136
2,48,95,128
2,48,95,128
2,48,95,64
2,50,95,64
2,50,95,128
2,50,95,128
2,50,95,128
2,50,111,64
2,45,111,64
2,45,111,64
2,45,95,128
2,45,95,128
2,45,95,128
2,45,95,128
2,45,95,128
2,47,95,128
2,48,95,128
2,48,95,128
2,48,95,128
2,48,95,64
2,50,95,64
2,50,95,128
2,50,95,128
2,50,95,128
2,50,111,64
2,45,111,64
2,45,111,64
2,47,111,320
2,48,111,64
2,48,111,64
2,40,95,520
2,40,95,128
2,40,95,128
2,40,95,128
2,40,95,128
2,40,95,128
2,40,95,128
2,40,95,128
2,38,95,128
2,38,95,128
2,38,95,128
2,38,95,128
2,38,95,128
2,38,95,128
2,38,95,128
2,38,95,128
2,36,95,128
2,36,95,128
2,36,95,128
2,36,95,128
2,36,95,128
2,36,95,128
2,36,95,128
2,36,95,128
2,33,95,128
2,33,95,128
2,33,95,128
2,33,95,128
2,38,95,128
2,38,95,128
2,39,95,128
2,39,95,128
2,40,95,128
2,40,95,128
2,40,95,128
2,40,95,128
2,40,95,128
2,40,95,128
2,40,95,128
2,40,95,128
2,38,95,128
2,38,95,128
2,38,95,128
2,38,95,128
2,38,95,128
2,38,95,128
2,38,95,128
2,38,95,128
2,36,95,128
2,36,95,128
2,36,95,128
2,36,95,128
2,36,95,128
2,36,95,128
2,36,95,128
2,36,95,128
2,33,95,128
2,33,95,128
2,33,95,128
2,33,95,128
2,38,95,128
2,38,95,128
2,39,95,128
2,39,95,128
2,40,79,128
2,40,79,128
2,40,79,128
2,40,79,128
2,40,79,128
2,40,79,128
2,40,79,128
2,40,79,128
2,40,79,128
2,40,79,128
2,40,79,128
2,40,79,128
2,40,79,128
2,40,79,128
2,40,79,128
2,40,79,128
2,40,79,128
2,40,79,128
2,40,79,128
2,40,79,128
2,40,79,128
2,40,79,128
2,40,79,128
2,40,79,128
2,40,79,128
2,40,79,128
2,40,79,128
2,40,79,128
2,40,79,128
2,40,79,128
2,40,79,128
2,40,79,128
2,40,79,128
2,40,79,128
2,40,79,128
2,40,79,128
2,40,79,128
2,40,79,128
2,40,79,128
2,40,79,128
2,40,79,128
2,40,79,128
2,40,79,128
2,40,79,128
2,40,79,128
2,40,79,128
2,40,79,128
2,40,79,128
2,40,79,128
2,40,79,128
2,40,79,128
2,40,79,128
2,40,79,128
2,40,79,128
2,40,79,128
2,40,79,128
2,40,79,128
2,40,79,128
2,40,79,128
2,40,79,128
2,40,79,128
2,40,79,128
2,45,79,128
2,47,95,136
2,48,95,136
2,48,95,128
2,48,95,128
2,48,95,64
2,50,95,64
2,50,95,128
2,50,95,128
2,50,95,128
2,50,111,64
2,45,111,64
2,45,111,64
2,45,95,128
2,45,95,128
2,45,95,128
2,45,95,128
2,45,95,128
2,47,95,128
2,48,95,128
2,48,95,128
2,48,95,128
2,48,95,64
2,50,95,64
2,50,95,128
2,50,95,128
2,50,95,128
2,50,111,64
2,45,111,64
2,45,111,64
2,47,111,320
2,48,111,64
2,48,111,64
2,40,95,520
2,40,95,128
2,40,95,128
2,40,95,128
2,40,95,128
2,40,95,128
2,40,95,128
2,40,95,128
2,38,95,128
2,38,95,128
2,38,95,128
2,38,95,128
2,38,95,128
2,38,95,128
2,38,95,128
2,38,95,128
2,36,95,128
2,36,95,128
2,36,95,128
2,36,95,128
2,36,95,128
2,36,95,128
2,36,95,128
2,36,95,128
2,33,95,128
2,33,95,128
2,33,95,128
2,33,95,128
2,38,95,128
2,38,95,128
2,39,95,128
2,39,95,128
2,40,95,128
2,40,95,128
2,40,95,128
2,40,95,128
2,40,95,128
2,40,95,128
2,40,95,128
2,40,95,128
2,38,95,128
2,38,95,128
2,38,95,128
2,38,95,128
2,38,95,128
2,38,95,128
2,38,95,128
2,38,95,128
2,36,95,128
2,36,95,128
2,36,95,128
2,36,95,128
2,36,95,128
2,36,95,128
2,36,95,128
2,36,95,128
2,33,95,128
2,33,95,128
2,33,95,128
2,33,95,128
2,38,95,128
2,38,95,128
2,39,95,128
2,39,95,128
2,40,95,128
2,40,95,128
2,40,95,128
2,40,95,128
2,40,95,128
2,40,95,128
2,40,95,128
2,40,95,128
2,38,95,128
2,38,95,128
2,38,95,128
2,38,95,128
2,38,95,128
2,38,95,128
2,38,95,128
2,38,95,128
2,36,95,128
2,36,95,128
2,36,95,128
2,36,95,128
2,36,95,128
2,36,95,128
2,36,95,128
2,36,95,128
2,33,95,128
2,33,95,128
2,33,95,128
2,33,95,128
2,38,95,128
2,38,95,128
2,39,95,128
2,39,95,128
2,40,95,128
2,40,95,128
2,40,95,128
2,40,95,128
2,40,95,128
2,40,95,128
2,40,95,128
2,40,95,128
2,38,95,128
2,38,95,128
2,38,95,128
2,38,95,128
2,38,95,128
2,38,95,128
2,38,95,128
2,38,95,128
2,36,95,128
2,36,95,128
2,36,95,128
2,36,95,128
2,36,95,128
2,36,95,128
2,36,95,128
2,36,95,128
2,33,95,128
2,33,95,128
2,33,95,128
2,33,95,128
2,38,95,128
2,38,95,136
2,39,95,136
2,39,95,136
2,40,79,136
2,43,79,552
2,36,95,552
2,33,95,520
2,40,79,520
2,43,79,552
2,36,95,552
2,33,95,520
2,40,95,520
2,40,95,128
2,40,95,128
2,40,95,128
2,40,95,128
2,40,95,128
2,40,95,128
2,40,95,128
2,38,95,128
2,38,95,128
2,38,95,128
2,38,95,128
2,38,95,128
2,38,95,128
2,38,95,128
2,38,95,128
2,36,95,128
2,36,95,128
2,36,95,128
2,36,95,128
2,36,95,128
2,36,95,128
2,36,95,128
2,36,95,128
2,33,95,128
2,33,95,128
2,33,95,128
2,33,95,128
2,38,95,128
2,38,95,128
2,39,95,128
2,39,95,128
2,40,95,128
2,40,95,128
2,40,95,128
2,40,95,128
2,40,95,128
2,40,95,128
2,40,95,128
2,40,95,128
2,38,95,128
2,38,95,128
2,38,95,128
2,38,95,128
2,38,95,128
2,38,95,128
2,38,95,128
2,38,95,128
2,36,95,128
2,36,95,128
2,36,95,128
2,36,95,128
2,36,95,128
2,36,95,128
2,36,95,128
2,36,95,128
2,33,95,128
2,33,95,128
2,33,95,128
2,33,95,128
2,38,95,128
2,38,95,128
2,39,95,128
2,39,95,128
2,40,95,128
2,40,95,128
2,40,95,128
2,40,95,128
2,40,95,128
2,40,95,128
2,40,95,128
2,40,95,128
2,38,95,128
2,38,95,128
2,38,95,128
2,38,95,128
2,38,95,128
2,38,95,128
2,38,95,128
2,38,95,128
2,36,95,128
2,36,95,128
2,36,95,128
2,36,95,128
2,36,95,128
2,36,95,128
2,36,95,128
2,36,95,128
2,33,95,128
2,33,95,128
2,33,95,128
2,33,95,128
2,38,95,128
2,38,95,128
2,39,95,128
2,39,95,128
2,40,95,128
2,40,95,128
2,40,95,128
2,40,95,128
2,40,95,128
2,40,95,128
2,40,95,128
2,40,95,128
2,38,95,128
2,38,95,128
2,38,95,128
2,38,95,128
2,38,95,128
2,38,95,128
2,38,95,128
2,38,95,128
2,36,95,128
2,36,95,128
2,36,95,128
2,36,95,128
2,36,95,128
2,36,95,128
2,36,95,128
2,36,95,128
2,33,95,128
2,33,95,128
2,33,95,128
2,33,95,128
2,38,95,128
2,38,95,88
2,38,95,88
2,39,95,88
2,39,95,88
2,39,95,88
2,40,95,88
2,40,95,128
2,40,95,128
2,40,95,128
2,40,95,128
2,40,95,128
2,40,95,128
2,40,95,128
2,38,95,128
2,38,95,128
2,38,95,128
2,38,95,128
2,38,95,128
2,38,95,128
2,38,95,128
2,38,95,128
2,36,95,128
2,36,95,128
2,36,95,128
2,36,95,128
2,36,95,128
2,36,95,128
2,36,95,128
2,36,95,128
2,33,95,128
2,33,95,128
2,33,95,128
2,33,95,128
2,38,95,128
2,38,95,128
2,39,95,128
2,39,95,128
2,40,95,128
2,40,95,128
2,40,95,128
2,40,95,128
2,40,95,128
2,40,95,128
2,40,95,128
2,40,95,128
2,38,95,128
2,38,95,128
2,38,95,128
2,38,95,128
2,38,95,128
2,38,95,128
2,38,95,128
2,38,95,128
2,36,95,128
2,36,95,128
2,36,95,128
2,36,95,128
2,36,95,128
2,36,95,128
2,36,95,128
2,36,95,128
2,33,95,128
