track,note,velocity,time
1,74,100,1680
1,71,100,0
1,67,100,0
1,74,0,216
1,71,0,0
1,67,0,0
1,74,100,1464
1,69,100,0
1,66,100,0
1,74,0,216
1,69,0,0
1,66,0,0
1,74,100,24
1,69,100,0
1,66,100,0
1,74,0,216
1,69,0,0
1,66,0,0
1,76,100,1704
1,71,100,0
1,67,100,0
1,76,0,216
1,71,0,0
1,67,0,0
1,76,100,260
1,72,100,0
1,67,100,0
1,76,0,1851
1,72,0,0
1,67,0,0
1,76,100,69
1,72,100,0
1,67,100,0
1,76,0,1851
1,72,0,0
1,67,0,0
1,74,100,69
1,71,100,0
1,67,100,0
1,74,0,217
1,71,0,0
1,67,0,0
1,67,100,0
1,69,100,0
1,69,0,24
1,69,100,0
1,69,0,24
1,71,100,0
1,71,0,24
1,67,0,24
1,74,100,0
1,71,100,0
1,67,100,0
1,74,0,1851
1,71,0,0
1,67,0,0
1,74,100,69
1,69,100,0
1,66,100,0
1,74,0,1851
1,66,0,0
1,69,0,0
1,76,100,69
1,71,100,0
1,67,100,0
1,76,0,1851
1,71,0,0
1,67,0,0
1,76,100,69
1,72,100,0
1,67,100,0
1,76,0,1851
1,72,0,0
1,67,0,0
1,74,100,69
1,71,100,0
1,67,100,0
1,74,0,1851
1,71,0,0
1,67,0,0
1,74,100,69
1,69,100,0
1,66,100,0
1,74,0,1851
1,66,0,0
1,69,0,0
1,76,100,69
1,71,100,0
1,67,100,0
1,76,0,1851
1,71,0,0
1,67,0,0
1,76,100,69
1,72,100,0
1,67,100,0
1,76,0,1851
1,72,0,0
1,67,0,0
1,74,100,69
1,71,100,0
1,67,100,0
1,74,0,217
1,71,0,0
1,67,0,0
1,67,100,0
1,69,100,0
1,69,0,24
1,69,100,0
1,69,0,24
1,71,100,0
1,71,0,24
1,67,0,24
1,74,100,10
1,71,100,0
1,67,100,0
1,74,0,1851
1,71,0,0
1,67,0,0
1,74,100,69
1,69,100,0
1,66,100,0
1,74,0,1851
1,66,0,0
1,69,0,0
1,76,100,69
1,71,100,0
1,67,100,0
1,76,0,1851
1,71,0,0
1,67,0,0
1,76,100,69
1,72,100,0
1,67,100,0
1,76,0,1851
1,72,0,0
1,67,0,0
1,74,100,69
1,71,100,0
1,67,100,0
1,74,0,1851
1,71,0,0
1,67,0,0
1,74,100,69
1,69,100,0
1,66,100,0
1,74,0,1851
1,66,0,0
1,69,0,0
1,76,100,69
1,71,100,0
1,67,100,0
1,76,0,1851
1,71,0,0
1,67,0,0
1,76,100,69
1,72,100,0
1,67,100,0
1,76,0,1851
1,72,0,0
1,67,0,0
1,74,100,69
1,71,100,0
1,67,100,0
1,74,0,1851
1,71,0,0
1,67,0,0
1,74,100,69
1,69,100,0
1,66,100,0
1,74,0,1851
1,66,0,0
1,69,0,0
1,76,100,69
1,71,100,0
1,67,100,0
1,76,0,1851
1,71,0,0
1,67,0,0
1,76,100,69
1,72,100,0
1,67,100,0
1,76,0,1851
1,72,0,0
1,67,0,0
1,74,100,69
1,71,100,0
1,67,100,0
1,74,0,1851
1,71,0,0
1,67,0,0
1,74,100,69
1,69,100,0
1,66,100,0
1,74,0,1851
1,66,0,0
1,69,0,0
1,76,100,69
1,71,100,0
1,67,100,0
1,76,0,1851
1,71,0,0
1,67,0,0
1,76,100,69
1,72,100,0
1,67,100,0
1,76,0,1851
1,72,0,0
1,67,0,0
1,74,100,69
1,71,100,0
1,67,100,0
1,74,0,1851
1,71,0,0
1,67,0,0
1,74,100,69
1,69,100,0
1,66,100,0
1,74,0,1851
1,66,0,0
1,69,0,0
1,76,100,69
1,71,100,0
1,67,100,0
1,76,0,1851
1,71,0,0
1,67,0,0
1,76,100,69
1,72,100,0
1,67,100,0
1,76,0,1851
1,72,0,0
1,67,0,0
1,74,100,69
1,71,100,0
1,67,100,0
1,74,0,1851
1,71,0,0
1,67,0,0
1,74,100,69
1,69,100,0
1,66,100,0
1,74,0,1851
1,66,0,0
1,69,0,0
1,76,100,69
1,71,100,0
1,67,100,0
1,76,0,1851
1,71,0,0
1,67,0,0
1,76,100,69
1,72,100,0
1,67,100,0
1,76,0,1851
1,72,0,0
1,67,0,0
1,74,100,69
1,71,100,0
1,67,100,0
1,74,0,1851
1,71,0,0
1,67,0,0
1,74,100,69
1,69,100,0
1,66,100,0
1,74,0,1851
1,66,0,0
1,69,0,0
1,76,100,69
1,71,100,0
1,67,100,0
1,76,0,1851
1,71,0,0
1,67,0,0
1,76,100,69
1,72,100,0
1,67,100,0
1,76,0,1851
1,72,0,0
1,67,0,0
1,74,100,69
1,71,100,0
1,67,100,0
1,74,0,1851
1,71,0,0
1,67,0,0
1,74,100,69
1,69,100,0
1,66,100,0
1,74,0,1851
1,66,0,0
1,69,0,0
1,76,100,69
1,71,100,0
1,67,100,0
1,76,0,1851
1,71,0,0
1,67,0,0
1,76,100,69
1,72,100,0
1,67,100,0
1,76,0,1851
1,72,0,0
1,67,0,0
1,74,100,69
1,71,100,0
1,67,100,0
1,74,0,1851
1,71,0,0
1,67,0,0
1,74,100,69
1,69,100,0
1,66,100,0
1,74,0,1851
1,66,0,0
1,69,0,0
1,76,100,69
1,71,100,0
1,67,100,0
1,76,0,1851
1,71,0,0
1,67,0,0
1,76,100,69
1,72,100,0
1,67,100,0
1,76,0,1851
1,72,0,0
1,67,0,0
1,74,100,69
1,71,100,0
1,67,100,0
1,74,0,1851
1,71,0,0
1,67,0,0
1,74,100,69
1,69,100,0
1,66,100,0
1,74,0,1851
1,66,0,0
1,69,0,0
1,76,100,69
1,71,100,0
1,67,100,0
1,76,0,1851
1,71,0,0
1,67,0,0
1,76,100,69
1,72,100,0
1,67,100,0
1,76,0,1851
1,72,0,0
1,67,0,0
1,74,100,69
1,71,100,0
1,67,100,0
1,74,0,1851
1,71,0,0
1,67,0,0
1,74,100,69
1,69,100,0
1,66,100,0
1,74,0,1851
1,66,0,0
1,69,0,0
1,76,100,69
1,71,100,0
1,67,100,0
1,76,0,1851
1,71,0,0
1,67,0,0
1,76,100,69
1,72,100,0
1,67,100,0
1,76,0,1851
1,72,0,0
1,67,0,0
1,74,100,69
1,71,100,0
1,67,100,0
1,74,0,1851
1,71,0,0
1,67,0,0
1,74,100,69
1,69,100,0
1,66,100,0
1,74,0,1851
1,66,0,0
1,69,0,0
1,76,100,69
1,71,100,0
1,67,100,0
1,76,0,1851
1,71,0,0
1,67,0,0
1,76,100,69
1,72,100,0
1,67,100,0
1,76,0,1851
1,72,0,0
1,67,0,0
1,74,100,69
1,71,100,0
1,67,100,0
1,74,0,1851
1,71,0,0
1,67,0,0
1,74,100,69
1,69,100,0
1,66,100,0
1,74,0,1851
1,66,0,0
1,69,0,0
1,76,100,69
1,71,100,0
1,67,100,0
1,76,0,1851
1,71,0,0
1,67,0,0
1,76,100,69
1,72,100,0
1,67,100,0
1,76,0,1851
1,72,0,0
1,67,0,0
1,74,100,69
1,71,100,0
1,67,100,0
1,74,0,1851
1,71,0,0
1,67,0,0
1,74,100,69
1,69,100,0
1,66,100,0
1,74,0,1851
1,66,0,0
1,69,0,0
1,76,100,69
1,71,100,0
1,67,100,0
1,76,0,1851
1,71,0,0
1,67,0,0
1,76,100,69
1,72,100,0
1,67,100,0
1,76,0,1851
1,72,0,0
1,67,0,0
1,74,100,69
1,71,100,0
1,67,100,0
1,74,0,1851
1,71,0,0
1,67,0,0
1,74,100,69
1,69,100,0
1,66,100,0
1,74,0,1851
1,66,0,0
1,69,0,0
1,76,100,69
1,71,100,0
1,67,100,0
1,76,0,1851
1,71,0,0
1,67,0,0
1,76,100,69
1,72,100,0
1,67,100,0
1,76,0,1851
1,72,0,0
1,67,0,0
1,74,100,69
1,71,100,0
1,67,100,0
1,74,0,1851
1,71,0,0
1,67,0,0
1,74,100,69
1,69,100,0
1,66,100,0
1,74,0,1851
1,66,0,0
1,69,0,0
1,76,100,69
1,71,100,0
1,67,100,0
1,76,0,1851
1,71,0,0
1,67,0,0
1,76,100,69
1,72,100,0
1,67,100,0
1,76,0,1581
1,72,0,0
1,67,0,0
1,74,100,69
1,71,100,0
1,67,100,0
1,74,0,51
1,71,0,0
1,67,0,0
1,74,100,69
1,69,100,0
1,66,100,0
1,74,0,51
1,66,0,0
1,69,0,0
1,76,100,69
1,71,100,0
1,67,100,0
1,76,0,21
1,71,0,0
1,67,0,0
1,76,100,69
1,72,100,0
1,67,100,0
1,76,0,81
1,72,0,0
1,67,0,0
1,74,100,60
1,71,100,0
1,67,100,0
1,74,0,1
1,71,0,0
1,67,0,0
2,83,119,230
2,83,0,177
2,81,113,23
2,81,0,434
2,83,121,46
2,83,0,480
2,81,114,0
2,81,0,1302
2,83,119,200
2,83,0,457
2,84,115,23
2,84,0,434
2,83,121,46
2,83,0,480
2,81,115,0
2,81,0,434
2,83,113,46
2,83,0,3183
2,83,118,40
2,83,0,7
2,81,114,0
2,81,0,434
2,81,119,10
2,81,0,30
2,79,112,0
2,79,0,480
3,31,100,1680
3,31,0,217
3,30,101,1463
3,30,0,217
3,30,104,23
3,30,0,217
3,28,101,1703
3,28,0,217
3,36,102,1703
3,36,0,457
3,35,101,23
3,35,0,217
3,36,104,23
3,36,0,217
3,35,101,23
3,35,0,217
3,36,98,23
3,36,0,217
3,35,101,23
3,35,0,217
3,31,104,23
3,31,0,217
3,36,101,23
3,36,0,457
3,38,101,23
3,38,0,217
3,40,104,23
3,40,0,217
3,38,101,23
3,38,0,217
3,36,98,23
3,36,0,217
3,35,101,23
3,35,0,217
3,33,104,23
3,33,0,217
3,31,101,23
3,31,0,217
3,31,101,263
3,31,0,217
3,31,103,23
3,31,0,217
3,31,101,23
3,31,0,217
3,31,99,23
3,31,0,217
3,30,101,23
3,30,0,217
3,30,103,23
3,30,0,217
3,30,101,23
3,30,0,217
3,30,101,263
3,30,0,217
3,30,103,23
3,30,0,217
3,30,101,23
3,30,0,217
3,30,99,23
3,30,0,217
3,28,101,23
3,28,0,217
3,28,103,23
3,28,0,217
3,28,101,23
3,28,0,217
3,28,103,263
3,28,0,217
3,28,105,23
3,28,0,217
3,28,103,23
3,28,0,217
3,28,101,23
3,28,0,217
3,28,103,23
3,28,0,217
3,28,105,23
3,28,0,217
3,36,103,23
3,36,0,457
3,35,103,23
3,35,0,217
3,36,105,23
3,36,0,217
3,35,103,23
3,35,0,217
3,36,101,23
3,36,0,217
3,35,103,23
3,35,0,217
3,31,105,23
3,31,0,217
3,31,103,23
3,31,0,217
3,31,102,263
3,31,0,217
3,31,104,23
3,31,0,217
3,31,102,23
3,31,0,217
3,31,100,23
3,31,0,217
3,30,102,23
3,30,0,217
3,30,104,23
3,30,0,217
3,30,102,23
3,30,0,217
3,30,102,263
3,30,0,217
3,30,104,23
3,30,0,217
3,30,102,23
3,30,0,217
3,30,100,23
3,30,0,217
3,28,102,23
3,28,0,217
3,28,104,23
3,28,0,217
3,28,102,23
3,28,0,217
3,28,103,263
3,28,0,217
3,28,106,23
3,28,0,217
3,28,103,23
3,28,0,217
3,28,100,23
3,28,0,217
3,28,103,23
3,28,0,217
3,28,106,23
3,28,0,217
3,36,103,23
3,36,0,457
3,35,103,23
3,35,0,217
3,36,105,23
3,36,0,217
3,35,103,23
3,35,0,217
3,36,101,23
3,36,0,217
3,35,103,23
3,35,0,217
3,31,105,23
3,31,0,217
3,31,103,23
3,31,0,217
3,31,103,263
3,31,0,217
3,31,105,23
3,31,0,217
3,31,103,23
3,31,0,217
3,31,101,23
3,31,0,217
3,30,103,23
3,30,0,217
3,30,105,23
3,30,0,217
3,30,103,23
3,30,0,217
3,30,103,263
3,30,0,217
3,30,105,23
3,30,0,217
3,30,103,23
3,30,0,217
3,30,101,23
3,30,0,217
3,28,103,23
3,28,0,217
3,28,105,23
3,28,0,217
3,28,103,23
3,28,0,217
3,28,102,263
3,28,0,217
3,28,106,23
3,28,0,217
3,28,102,23
3,28,0,217
3,28,98,23
3,28,0,217
3,28,102,23
3,28,0,217
3,28,106,23
3,28,0,217
3,36,102,23
3,36,0,457
3,35,102,23
3,35,0,217
3,36,105,23
3,36,0,217
3,35,102,23
3,35,0,217
3,36,99,23
3,36,0,217
3,35,102,23
3,35,0,217
3,31,105,23
3,31,0,217
3,31,102,23
3,31,0,217
3,31,101,263
3,31,0,217
3,31,103,23
3,31,0,217
3,31,101,23
3,31,0,217
3,31,99,23
3,31,0,217
3,30,101,23
3,30,0,217
3,30,103,23
3,30,0,217
3,30,101,23
3,30,0,217
3,30,101,263
3,30,0,217
3,30,103,23
3,30,0,217
3,30,101,23
3,30,0,217
3,30,99,23
3,30,0,217
3,28,101,23
3,28,0,217
3,28,103,23
3,28,0,217
3,28,101,23
3,28,0,217
3,28,101,263
3,28,0,217
3,28,108,23
3,28,0,217
3,30,104,23
3,30,0,217
3,31,100,23
3,31,0,217
3,33,104,23
3,33,0,217
3,35,108,23
3,35,0,217
3,36,104,23
3,36,0,457
3,38,108,23
3,38,0,217
3,40,112,23
3,40,0,217
3,42,108,23
3,42,0,217
3,43,104,23
3,43,0,217
3,45,109,23
3,45,0,217
3,47,112,23
3,47,0,217
3,43,107,23
3,43,0,457
3,31,101,23
3,31,0,217
3,31,103,23
3,31,0,217
3,31,101,23
3,31,0,217
3,31,99,23
3,31,0,217
3,31,101,23
3,31,0,217
3,30,103,23
3,30,0,217
3,30,101,23
3,30,0,457
3,30,101,23
3,30,0,217
3,30,103,23
3,30,0,217
3,30,101,23
3,30,0,217
3,30,99,23
3,30,0,217
3,30,101,23
3,30,0,217
3,28,103,23
3,28,0,217
3,28,101,23
3,28,0,457
3,28,102,23
3,28,0,217
3,28,105,23
3,28,0,217
3,28,102,23
3,28,0,217
3,28,99,23
3,28,0,217
3,28,102,23
3,28,0,217
3,31,105,23
3,31,0,217
3,36,102,23
3,36,0,457
3,35,102,23
3,35,0,217
3,36,105,23
3,36,0,217
3,35,102,23
3,35,0,217
3,36,99,23
3,36,0,217
3,35,102,23
3,35,0,217
3,31,105,23
3,31,0,217
3,31,102,23
3,31,0,457
3,31,105,23
3,31,0,217
3,31,107,23
3,31,0,217
3,31,105,23
3,31,0,217
3,31,103,23
3,31,0,217
3,31,105,23
3,31,0,217
3,30,107,23
3,30,0,217
3,30,105,23
3,30,0,457
3,30,105,23
3,30,0,217
3,30,107,23
3,30,0,217
3,30,105,23
3,30,0,217
3,30,103,23
3,30,0,217
3,30,105,23
3,30,0,217
3,28,107,23
3,28,0,217
3,28,105,23
3,28,0,457
3,28,105,23
3,28,0,217
3,30,108,23
3,30,0,217
3,31,105,23
3,31,0,217
3,31,102,23
3,31,0,217
3,33,105,23
3,33,0,217
3,35,108,23
3,35,0,217
3,36,105,23
3,36,0,457
3,38,105,23
3,38,0,217
3,40,108,23
3,40,0,217
3,38,105,23
3,38,0,217
3,36,102,23
3,36,0,217
3,35,105,23
3,35,0,217
3,33,108,23
3,33,0,217
3,31,105,23
3,31,0,217
3,31,103,263
3,31,0,217
3,31,105,23
3,31,0,217
3,31,103,23
3,31,0,217
3,31,101,23
3,31,0,217
3,30,103,23
3,30,0,217
3,30,105,23
3,30,0,217
3,30,103,23
3,30,0,217
3,30,103,263
3,30,0,217
3,30,105,23
3,30,0,217
3,30,103,23
3,30,0,217
3,30,101,23
3,30,0,217
3,28,103,23
3,28,0,217
3,28,105,23
3,28,0,217
3,28,103,23
3,28,0,217
3,28,102,263
3,28,0,217
3,28,105,23
3,28,0,217
3,28,102,23
3,28,0,217
3,28,99,23
3,28,0,217
3,28,102,23
3,28,0,217
3,28,105,23
3,28,0,217
3,36,102,23
3,36,0,457
3,35,102,23
3,35,0,217
3,36,105,23
3,36,0,217
3,35,102,23
3,35,0,217
3,36,99,23
3,36,0,217
3,35,103,23
3,35,0,217
3,31,105,23
3,31,0,217
3,31,101,23
3,31,0,217
3,31,100,263
3,31,0,217
3,31,104,23
3,31,0,217
3,31,102,23
3,31,0,217
3,31,100,23
3,31,0,217
3,30,102,23
3,30,0,217
3,30,104,23
3,30,0,217
3,30,102,23
3,30,0,217
3,30,102,263
3,30,0,217
3,30,104,23
3,30,0,217
