track,note,velocity,time
1,71,79,15600
1,71,0,80
1,76,79,40
1,76,0,200
1,78,79,40
1,78,0,435
1,71,79,1125
1,71,0,80
1,76,79,40
1,76,0,200
1,78,79,40
1,78,0,200
1,79,79,40
1,79,0,200
1,81,79,40
1,81,0,200
1,79,79,40
1,79,0,80
1,81,79,40
1,81,0,160
1,83,79,80
1,83,0,315
1,81,79,525
1,81,0,435
1,79,79,645
1,79,0,120
1,76,79,0
1,76,0,240
1,71,79,2040
1,71,0,80
1,76,79,40
1,76,0,200
1,78,79,40
1,78,0,435
1,71,79,1125
1,71,0,80
1,76,79,40
1,76,0,200
1,78,79,40
1,78,0,200
1,79,79,40
1,79,0,200
1,81,79,40
1,81,0,200
1,79,79,40
1,79,0,80
1,81,79,40
1,81,0,120
1,79,79,0
1,79,0,80
1,83,79,40
1,83,0,315
1,81,79,525
1,81,0,435
1,79,79,645
1,79,0,310
1,79,79,1130
1,79,0,80
1,79,79,40
1,79,0,80
1,81,79,40
1,81,0,80
1,79,79,40
1,79,0,80
1,83,95,40
1,83,0,840
1,81,95,0
1,81,0,435
1,81,95,405
1,81,0,80
1,81,95,40
1,81,0,200
1,79,95,40
1,79,0,80
1,79,95,40
1,79,0,555
1,79,95,645
1,79,0,80
1,79,95,40
1,79,0,80
1,81,95,40
1,81,0,80
1,79,95,40
1,79,0,80
1,83,95,40
1,83,0,480
1,83,95,0
1,83,0,160
1,84,95,0
1,84,0,160
1,83,95,0
1,83,0,160
1,81,95,0
1,81,0,315
1,74,95,285
1,74,0,80
1,81,95,40
1,81,0,80
1,81,95,40
1,81,0,200
1,79,95,40
1,79,0,80
1,79,95,40
1,79,0,400
1,81,95,200
1,81,0,200
1,83,95,40
1,83,0,80
1,83,111,40
1,83,0,1355
1,81,95,565
1,81,0,240
1,79,95,0
1,79,0,240
1,78,95,120
1,78,0,200
1,76,95,40
1,76,0,200
1,78,95,40
1,78,0,200
1,79,95,40
1,79,0,280
1,81,95,320
1,81,0,160
1,79,95,80
1,79,0,160
1,78,95,200
1,78,0,200
1,79,95,40
1,79,0,200
1,83,95,40
1,83,0,200
1,81,95,40
1,81,0,120
1,79,95,0
1,79,0,160
1,81,95,320
1,81,0,160
1,79,95,80
1,79,0,160
1,78,95,200
1,78,0,200
1,76,95,40
1,76,0,200
1,78,95,40
1,78,0,200
1,79,95,40
1,79,0,280
1,83,95,80
1,83,0,160
1,81,95,80
1,81,0,80
1,81,95,40
1,81,0,200
1,79,95,40
1,79,0,200
1,78,95,40
1,78,0,200
1,78,95,40
1,78,0,200
1,78,95,40
1,78,0,200
1,79,95,40
1,79,0,80
1,79,95,40
1,79,0,160
1,81,95,320
1,81,0,160
1,79,95,80
1,79,0,160
1,78,95,200
1,78,0,200
1,76,95,40
1,76,0,200
1,78,95,40
1,78,0,200
1,79,95,40
1,79,0,280
1,81,95,320
1,81,0,160
1,79,95,80
1,79,0,160
1,78,95,200
1,78,0,200
1,79,95,40
1,79,0,200
1,83,95,40
1,83,0,200
1,81,95,40
1,81,0,120
1,79,95,0
1,79,0,160
1,81,95,320
1,81,0,160
1,79,95,80
1,79,0,160
1,78,95,200
1,78,0,200
1,76,95,40
1,76,0,200
1,78,95,40
1,78,0,200
1,79,95,40
1,79,0,280
1,83,95,80
1,83,0,160
1,81,95,80
1,81,0,80
1,81,95,40
1,81,0,200
1,79,95,40
1,79,0,200
1,78,95,40
1,78,0,200
1,78,95,40
1,78,0,200
1,78,95,40
1,78,0,200
1,79,95,40
1,79,0,80
1,79,95,40
1,79,0,160
1,71,79,560
1,71,0,80
1,76,79,40
1,76,0,200
1,78,79,40
1,78,0,435
1,71,79,1125
1,71,0,80
1,76,79,40
1,76,0,200
1,78,79,40
1,78,0,200
1,79,79,40
1,79,0,200
1,81,79,40
1,81,0,200
1,79,79,40
1,79,0,80
1,81,79,40
1,81,0,160
1,83,79,80
1,83,0,315
1,81,79,525
1,81,0,435
1,79,79,645
1,79,0,120
1,76,79,0
1,76,0,240
1,71,79,2040
1,71,0,80
1,76,79,40
1,76,0,200
1,78,79,40
1,78,0,435
1,71,79,1125
1,71,0,80
1,76,79,40
1,76,0,200
1,78,79,40
1,78,0,200
1,79,79,40
1,79,0,200
1,81,79,40
1,81,0,200
1,79,79,40
1,79,0,80
1,81,79,40
1,81,0,120
1,79,79,0
1,79,0,80
1,83,79,40
1,83,0,315
1,81,79,525
1,81,0,435
1,79,79,645
1,79,0,310
1,79,79,1130
1,79,0,80
1,79,79,40
1,79,0,80
1,81,79,40
1,81,0,80
1,79,79,40
1,79,0,80
1,83,95,40
1,83,0,840
1,81,95,0
1,81,0,435
1,81,95,405
1,81,0,80
1,81,95,40
1,81,0,200
1,79,95,40
1,79,0,80
1,79,95,40
1,79,0,555
1,79,95,645
1,79,0,80
1,79,95,40
1,79,0,80
1,81,95,40
1,81,0,80
1,79,95,40
1,79,0,80
1,83,95,40
1,83,0,480
1,83,95,0
1,83,0,160
1,84,95,0
1,84,0,160
1,83,95,0
1,83,0,160
1,81,95,0
1,81,0,315
1,74,95,285
1,74,0,80
1,81,95,40
1,81,0,80
1,81,95,40
1,81,0,200
1,79,95,40
1,79,0,80
1,79,95,40
1,79,0,400
1,81,95,200
1,81,0,200
1,83,95,40
1,83,0,80
1,83,111,40
1,83,0,1355
1,81,95,565
1,81,0,240
1,79,95,0
1,79,0,240
1,78,95,120
1,78,0,200
1,76,95,40
1,76,0,200
1,78,95,40
1,78,0,200
1,79,95,40
1,79,0,280
1,81,95,320
1,81,0,160
1,79,95,80
1,79,0,160
1,78,95,200
1,78,0,200
1,79,95,40
1,79,0,200
1,83,95,40
1,83,0,200
1,81,95,40
1,81,0,120
1,79,95,0
1,79,0,160
1,81,95,320
1,81,0,160
1,79,95,80
1,79,0,160
1,78,95,200
1,78,0,200
1,76,95,40
1,76,0,200
1,78,95,40
1,78,0,200
1,79,95,40
1,79,0,280
1,83,95,80
1,83,0,160
1,81,95,80
1,81,0,80
1,81,95,40
1,81,0,200
1,79,95,40
1,79,0,200
1,78,95,40
1,78,0,200
1,78,95,40
1,78,0,200
1,78,95,40
1,78,0,200
1,79,95,40
1,79,0,80
1,79,95,40
1,79,0,160
1,81,95,320
1,81,0,160
1,79,95,80
1,79,0,160
1,78,95,200
1,78,0,200
1,76,95,40
1,76,0,200
1,78,95,40
1,78,0,200
1,79,95,40
1,79,0,280
1,81,95,320
1,81,0,160
1,79,95,80
1,79,0,160
1,78,95,200
1,78,0,200
1,79,95,40
1,79,0,200
1,83,95,40
1,83,0,200
1,81,95,40
1,81,0,120
1,79,95,0
1,79,0,160
1,81,95,320
1,81,0,160
1,79,95,80
1,79,0,160
1,78,95,200
1,78,0,200
1,76,95,40
1,76,0,200
1,78,95,40
1,78,0,200
1,79,95,40
1,79,0,280
1,83,95,80
1,83,0,160
1,81,95,80
1,81,0,80
1,81,95,40
1,81,0,200
1,79,95,40
1,79,0,200
1,78,95,40
1,78,0,200
1,78,95,40
1,78,0,200
1,78,95,40
1,78,0,200
1,79,95,40
1,79,0,80
1,79,95,40
1,79,0,160
1,81,95,320
1,81,0,240
1,79,95,0
1,79,0,240
1,78,95,120
1,78,0,200
1,76,95,40
1,76,0,200
1,78,95,40
1,78,0,200
1,79,95,40
1,79,0,280
1,81,95,320
1,81,0,160
1,79,95,80
1,79,0,160
1,78,95,200
1,78,0,200
1,79,95,40
1,79,0,200
1,83,95,40
1,83,0,200
1,81,95,40
1,81,0,120
1,79,95,0
1,79,0,160
1,81,95,320
1,81,0,160
1,79,95,80
1,79,0,160
1,78,95,200
1,78,0,200
1,76,95,40
1,76,0,200
1,78,95,40
1,78,0,200
1,79,95,40
1,79,0,280
1,83,95,80
1,83,0,160
1,81,95,80
1,81,0,80
1,81,95,40
1,81,0,200
1,79,95,40
1,79,0,200
1,78,95,40
1,78,0,200
1,78,95,40
1,78,0,200
1,78,95,40
1,78,0,200
1,79,95,40
1,79,0,80
1,79,95,40
1,79,0,160
1,81,95,320
1,81,0,160
1,79,95,80
1,79,0,160
1,78,95,200
1,78,0,200
1,76,95,40
1,76,0,200
1,78,95,40
1,78,0,200
1,79,95,40
1,79,0,280
1,81,95,320
1,81,0,160
1,79,95,80
1,79,0,160
1,78,95,200
1,78,0,200
1,79,95,40
1,79,0,200
1,83,95,40
1,83,0,200
1,81,95,40
1,81,0,120
1,79,95,0
1,79,0,160
1,81,95,320
1,81,0,160
1,79,95,80
1,79,0,160
1,78,95,200
1,78,0,200
1,76,95,40
1,76,0,200
1,78,95,40
1,78,0,200
1,79,95,40
1,79,0,280
1,76,79,2000
1,76,0,315
1,83,79,165
1,83,0,795
1,81,79,165
1,81,0,155
1,79,79,85
1,79,0,155
1,76,79,85
1,76,0,310
1,83,79,170
1,83,0,790
1,81,79,170
1,81,0,155
1,79,79,85
1,79,0,155
1,76,79,85
1,76,0,315
1,83,79,165
1,83,0,795
1,81,79,165
1,81,0,155
1,79,79,85
1,79,0,155
1,78,79,85
1,78,0,1595
1,81,95,8245
1,81,0,240
1,79,95,0
1,79,0,240
1,78,95,120
1,78,0,200
1,76,95,40
1,76,0,200
1,78,95,40
1,78,0,200
1,79,95,40
1,79,0,280
1,81,95,320
1,81,0,160
1,79,95,80
1,79,0,160
1,78,95,200
1,78,0,200
1,79,95,40
1,79,0,200
1,83,95,40
1,83,0,200
1,81,95,40
1,81,0,120
1,79,95,0
1,79,0,160
1,81,95,320
1,81,0,160
1,79,95,80
1,79,0,160
1,78,95,200
1,78,0,200
1,76,95,40
1,76,0,200
1,78,95,40
1,78,0,200
1,79,95,40
1,79,0,280
1,83,95,80
1,83,0,160
1,81,95,80
1,81,0,80
1,81,95,40
1,81,0,200
1,79,95,40
1,79,0,200
1,78,95,40
1,78,0,200
1,78,95,40
1,78,0,200
1,78,95,40
1,78,0,200
1,79,95,40
1,79,0,80
1,79,95,40
1,79,0,160
1,81,95,320
1,81,0,160
1,79,95,80
1,79,0,160
1,78,95,200
1,78,0,200
1,76,95,40
1,76,0,200
1,78,95,40
1,78,0,200
1,79,95,40
1,79,0,280
1,81,95,320
1,81,0,160
1,79,95,80
1,79,0,160
1,78,95,200
1,78,0,200
1,79,95,40
1,79,0,200
1,83,95,40
1,83,0,200
1,81,95,40
1,81,0,120
1,79,95,0
1,79,0,160
1,81,95,320
1,81,0,160
1,79,95,80
1,79,0,160
1,78,95,200
1,78,0,200
1,76,95,40
1,76,0,200
1,78,95,40
1,78,0,200
1,79,95,40
1,79,0,280
1,83,95,80
1,83,0,160
1,81,95,80
1,81,0,80
1,81,95,40
1,81,0,200
1,79,95,40
1,79,0,200
1,78,95,40
1,78,0,200
1,78,95,40
1,78,0,200
1,78,95,40
1,78,0,200
1,79,95,40
1,79,0,80
1,79,95,40
1,79,0,160
1,81,95,15680
1,81,0,240
1,79,95,0
1,79,0,240
1,78,95,120
1,78,0,200
1,76,95,40
1,76,0,200
1,78,95,40
1,78,0,200
1,79,95,40
1,79,0,280
1,81,95,320
1,81,0,160
1,79,95,80
1,79,0,160
1,78,95,200
1,78,0,200
1,79,95,40
1,79,0,200
1,83,95,40
1,83,0,200
1,81,95,40
1,81,0,120
1,79,95,0
1,79,0,160
1,81,95,320
1,81,0,160
1,79,95,80
1,79,0,160
1,78,95,200
1,78,0,200
1,76,95,40
1,76,0,200
1,78,95,40
1,78,0,200
1,79,95,40
1,79,0,280
1,83,95,80
1,83,0,160
1,81,95,80
1,81,0,80
1,81,95,40
1,81,0,200
1,79,95,40
1,79,0,200
1,78,95,40
1,78,0,200
1,78,95,40
1,78,0,200
1,78,95,40
1,78,0,200
1,79,95,40
1,79,0,80
1,79,95,40
1,79,0,160
1,81,95,320
1,81,0,160
1,79,95,80
1,79,0,160
1,78,95,200
1,78,0,200
1,76,95,40
1,76,0,200
1,78,95,40
1,78,0,200
1,79,95,40
1,79,0,280
1,81,95,320
1,81,0,160
1,79,95,80
1,79,0,160
1,78,95,200
1,78,0,200
1,79,95,40
1,79,0,200
1,83,95,40
1,83,0,200
1,81,95,40
1,81,0,120
1,79,95,0
1,79,0,160
1,81,95,320
1,81,0,160
1,79,95,80
1,79,0,160
1,78,95,200
1,78,0,200
1,76,95,40
1,76,0,200
1,78,95,40
1,78,0,200
1,79,95,40
1,79,0,280
1,83,95,2000
1,83,0,1430
1,83,95,2410
1,83,0,1435
2,76,79,430
2,76,0,75
2,78,79,165
2,78,0,315
2,79,95,165
2,79,0,635
2,76,95,325
2,76,0,315
2,78,95,165
2,78,0,315
2,79,95,165
2,79,0,635
2,76,95,0
2,76,0,315
2,78,95,165
2,78,0,315
2,79,95,165
2,79,0,635
2,76,95,325
2,76,0,315
2,78,95,165
2,78,0,315
2,79,95,165
2,79,0,635
2,67,79,325
2,67,0,800
2,66,79,40
2,66,0,755
2,64,79,325
2,64,0,1595
2,67,79,325
2,67,0,800
2,66,79,40
2,66,0,755
2,64,79,325
2,64,0,1595
2,67,79,325
2,67,0,315
2,59,79,165
2,59,0,80
2,64,79,40
2,64,0,200
2,66,79,40
2,66,0,755
2,64,79,325
2,64,0,315
2,59,79,165
2,59,0,80
2,64,79,40
2,64,0,200
2,66,79,40
2,66,0,200
2,67,79,40
2,67,0,200
2,69,79,40
2,69,0,200
2,67,79,40
2,67,0,80
2,69,79,40
2,69,0,160
2,71,79,80
2,71,0,475
2,71,79,245
2,71,0,80
2,69,79,40
2,69,0,755
2,67,79,325
2,67,0,635
2,67,79,565
2,67,0,160
2,66,79,80
2,66,0,160
2,62,79,80
2,62,0,160
2,64,79,80
2,64,0,310
2,59,79,170
2,59,0,80
2,64,79,40
2,64,0,200
2,66,79,40
2,66,0,755
2,64,79,325
2,64,0,315
2,59,79,165
2,59,0,80
2,64,79,40
2,64,0,200
2,66,79,40
2,66,0,200
2,67,79,40
2,67,0,200
2,69,79,40
2,69,0,200
2,67,79,40
2,67,0,80
2,69,79,40
2,69,0,160
2,71,79,80
2,71,0,475
2,71,79,245
2,71,0,80
2,69,79,40
2,69,0,755
2,67,79,325
2,67,0,635
2,64,79,325
2,64,0,310
2,67,79,170
2,67,0,80
2,67,79,40
2,67,0,80
2,69,79,40
2,69,0,80
2,67,95,40
2,67,0,80
2,71,95,40
2,71,0,800
2,69,95,40
2,69,0,595
2,71,95,245
2,71,0,80
2,69,95,40
2,69,0,200
2,67,95,40
2,67,0,80
2,67,95,40
2,67,0,555
2,67,95,165
2,67,0,315
2,67,95,165
2,67,0,80
2,67,95,40
2,67,0,80
2,69,95,40
2,69,0,80
2,67,95,40
2,67,0,80
2,71,95,40
2,71,0,800
2,69,95,40
2,69,0,595
2,69,95,245
2,69,0,80
2,69,95,40
2,69,0,200
2,67,111,40
2,67,0,80
2,67,111,40
2,67,0,400
2,69,111,200
2,69,0,200
2,71,111,40
2,71,0,80
2,71,111,40
2,71,0,1355
2,71,95,565
2,71,0,160
2,71,95,80
2,71,0,240
2,71,95,120
2,71,0,200
2,71,95,40
2,71,0,200
2,71,95,40
2,71,0,200
2,71,95,40
2,71,0,280
2,71,95,320
2,71,0,160
2,71,95,80
2,71,0,240
2,71,95,120
2,71,0,200
2,71,95,40
2,71,0,200
2,71,95,40
2,71,0,200
2,71,95,40
2,71,0,280
2,71,95,320
2,71,0,160
2,71,95,80
2,71,0,240
2,71,95,120
2,71,0,200
2,71,95,40
2,71,0,200
2,71,95,40
2,71,0,200
2,71,95,40
2,71,0,280
2,71,95,80
2,71,0,160
2,69,95,80
2,69,0,80
2,69,95,40
2,69,0,200
2,67,95,40
2,67,0,200
2,66,95,40
2,66,0,200
2,66,95,40
2,66,0,200
2,66,95,40
2,66,0,200
2,67,95,40
2,67,0,80
2,67,95,40
2,67,0,160
2,71,95,320
2,71,0,160
2,71,95,80
2,71,0,240
2,71,95,120
2,71,0,200
2,71,95,40
2,71,0,200
2,71,95,40
2,71,0,200
2,71,95,40
2,71,0,280
2,71,95,320
2,71,0,160
2,71,95,80
2,71,0,240
