track,note,velocity,time
1,64,73,769
1,64,0,48
1,64,65,243
1,64,0,48
1,64,73,48
1,64,0,48
1,64,68,134
1,64,0,48
1,64,66,48
1,64,0,48
1,64,72,56
1,64,0,48
1,64,69,238
1,64,0,48
1,64,74,54
1,64,0,48
1,64,66,144
1,64,0,48
1,64,65,44
1,64,0,48
1,64,72,47
1,64,0,48
1,64,68,241
1,64,0,48
1,64,73,46
1,64,0,48
1,64,67,154
1,64,0,48
1,64,69,38
1,64,0,48
1,64,71,52
1,64,0,48
1,64,64,246
1,64,0,48
1,64,72,44
1,64,0,48
1,64,61,132
1,64,0,48
1,64,69,52
1,64,0,48
1,64,75,51
1,64,0,48
1,64,65,231
1,64,0,48
1,64,75,56
1,64,0,48
1,64,65,145
1,64,0,48
1,64,69,47
1,64,0,48
1,64,72,49
1,64,0,48
1,64,67,241
1,64,0,48
1,64,69,47
1,64,0,48
1,64,68,136
1,64,0,48
1,64,70,47
1,64,0,48
1,64,70,57
1,64,0,48
1,64,64,229
1,64,0,48
1,64,74,54
1,64,0,48
1,64,66,151
1,64,0,48
1,64,68,46
1,64,0,48
1,64,71,48
1,64,0,48
1,64,65,247
1,64,0,48
1,64,69,48
1,64,0,48
1,64,64,140
1,64,0,48
1,64,68,44
1,64,0,48
1,64,71,50
1,64,0,48
1,64,70,236
1,64,0,48
1,64,73,52
1,64,0,48
1,64,64,149
1,64,0,48
1,64,70,47
1,64,0,48
1,64,74,49
1,64,0,48
1,64,69,233
1,64,0,48
1,64,71,46
1,64,0,48
1,64,70,163
1,64,0,48
1,64,64,34
1,64,0,48
1,64,74,55
1,64,0,48
1,64,70,226
1,64,0,48
1,64,71,53
1,64,0,48
1,64,68,153
1,64,0,48
1,64,68,39
1,64,0,48
1,64,75,57
1,64,0,48
1,64,71,232
1,64,0,48
1,64,71,48
1,64,0,48
1,64,67,148
1,64,0,48
1,64,71,46
1,64,0,48
1,64,71,40
1,64,0,48
1,64,70,238
1,64,0,48
1,64,74,55
1,64,0,48
1,64,68,153
1,64,0,48
1,64,66,32
1,64,0,48
1,64,75,58
1,64,0,48
1,64,65,230
1,64,0,48
1,64,71,48
1,64,0,48
1,64,70,152
1,64,0,48
1,64,68,40
1,64,0,48
1,64,70,55
1,64,0,48
1,64,62,230
1,64,0,48
1,64,69,43
1,64,0,48
1,64,66,144
1,64,0,48
1,64,64,44
1,64,0,48
1,64,75,48
1,64,0,48
1,64,66,248
1,64,0,48
1,64,70,44
1,64,0,48
1,64,66,149
1,64,0,48
1,64,68,45
1,64,0,48
1,64,71,46
1,64,0,48
1,64,66,245
1,64,0,48
1,64,72,51
1,64,0,48
1,64,69,144
1,64,0,48
1,64,64,36
1,64,0,48
1,64,70,59
1,64,0,48
1,64,66,246
1,64,0,48
1,64,70,42
1,64,0,48
1,64,70,144
1,64,0,48
1,64,67,48
1,64,0,48
1,64,73,44
1,64,0,48
1,64,68,247
1,64,0,48
1,64,74,49
1,64,0,48
1,64,68,143
1,64,0,48
1,64,67,44
1,64,0,48
1,64,69,60
1,64,0,48
1,64,70,232
1,64,0,48
1,64,73,54
1,64,0,48
1,64,65,152
1,64,0,48
1,64,68,41
1,64,0,48
1,64,73,54
1,64,0,48
1,64,64,219
1,64,0,48
1,64,75,60
1,64,0,48
1,64,65,136
1,64,0,48
1,64,66,52
1,64,0,48
1,64,70,45
1,64,0,48
1,64,68,233
1,64,0,48
1,64,76,56
1,64,0,48
1,64,67,153
1,64,0,48
1,64,69,39
1,64,0,48
1,64,75,53
1,64,0,48
1,64,68,236
1,64,0,48
1,64,69,47
1,64,0,48
1,64,69,148
1,64,0,48
1,64,68,43
1,64,0,48
1,64,74,49
1,64,0,48
1,64,67,248
1,64,0,48
1,64,72,49
1,64,0,48
1,64,69,151
1,64,0,48
1,64,65,46
1,64,0,48
1,64,72,43
1,64,0,48
1,64,65,233
1,64,0,48
1,64,72,54
1,64,0,48
1,64,70,151
1,64,0,48
1,64,69,38
1,64,0,48
1,64,69,51
1,64,0,48
1,64,67,232
1,64,0,48
1,64,70,56
1,64,0,48
1,64,66,148
1,64,0,48
1,64,65,41
1,64,0,48
1,64,74,48
1,64,0,48
1,64,70,237
1,64,0,48
1,64,72,53
1,64,0,48
1,64,62,150
1,64,0,48
1,64,67,33
1,64,0,48
1,64,70,61
1,64,0,48
1,64,67,229
1,64,0,48
1,64,72,52
1,64,0,48
1,64,67,143
1,64,0,48
1,64,64,44
1,64,0,48
1,64,69,45
1,64,0,48
1,64,67,247
1,64,0,48
1,64,71,47
1,64,0,48
1,64,67,151
1,64,0,48
1,64,68,35
1,64,0,48
1,64,73,51
1,64,0,48
1,64,67,237
1,64,0,48
1,64,73,48
1,64,0,48
1,64,69,143
1,64,0,48
1,64,67,51
1,64,0,48
1,64,74,43
1,64,0,48
1,64,67,231
1,64,0,48
1,64,74,56
1,64,0,48
1,64,65,159
1,64,0,48
1,64,64,41
1,64,0,48
1,64,69,55
1,64,0,48
1,64,67,243
1,64,0,48
1,64,72,54
1,64,0,48
1,64,70,142
1,64,0,48
1,64,66,46
1,64,0,48
1,64,71,38
1,64,0,48
1,64,66,244
1,64,0,48
1,64,69,51
1,64,0,48
1,64,66,160
1,64,0,48
1,64,64,37
1,64,0,48
1,64,71,41
1,64,0,48
1,64,69,233
1,64,0,48
1,64,65,55
1,64,0,48
1,64,65,148
1,64,0,48
1,64,67,43
1,64,0,48
1,64,73,46
1,64,0,48
1,64,68,236
1,64,0,48
1,64,74,50
1,64,0,48
1,64,69,146
1,64,0,48
1,64,64,44
1,64,0,48
1,64,71,50
1,64,0,48
1,64,66,242
1,64,0,48
1,64,72,51
1,64,0,48
1,64,65,149
1,64,0,48
1,64,68,40
1,64,0,48
1,64,72,51
1,64,0,48
1,64,69,233
1,64,0,48
1,64,75,55
1,64,0,48
1,64,64,146
1,64,0,48
1,64,68,40
1,64,0,48
1,64,75,51
1,64,0,48
1,64,68,226
1,64,0,48
1,64,72,62
1,64,0,48
1,64,67,147
1,64,0,48
1,64,66,41
1,64,0,48
1,64,71,46
1,64,0,48
1,64,65,249
1,64,0,48
1,64,72,45
1,64,0,48
1,64,67,150
1,64,0,48
1,64,70,39
1,64,0,48
1,64,71,43
1,64,0,48
1,64,65,240
1,64,0,48
1,64,69,54
1,64,0,48
1,64,68,150
1,64,0,48
1,64,68,42
1,64,0,48
1,64,74,46
1,64,0,48
1,64,67,236
1,64,0,48
1,64,68,50
1,64,0,48
1,64,69,147
1,64,0,48
1,64,69,48
1,64,0,48
1,64,70,52
1,64,0,48
1,64,69,233
1,64,0,48
1,64,73,54
1,64,0,48
1,64,67,142
1,64,0,48
1,64,67,46
1,64,0,48
1,64,71,55
1,64,0,48
1,64,68,227
1,64,0,48
1,64,71,61
1,64,0,48
1,64,65,144
1,64,0,48
1,64,63,41
1,64,0,48
1,64,69,48
1,64,0,48
1,64,68,242
1,64,0,48
1,64,73,56
1,64,0,48
1,64,68,146
1,64,0,48
1,64,64,42
1,64,0,48
1,64,74,44
1,64,0,48
1,64,64,238
1,64,0,48
1,64,72,44
1,64,0,48
1,64,64,154
1,64,0,48
1,64,65,31
1,64,0,48
1,64,72,55
1,64,0,48
1,64,65,245
1,64,0,48
1,64,73,54
1,64,0,48
1,64,67,150
1,64,0,48
1,64,63,37
1,64,0,48
1,64,73,53
1,64,0,48
1,64,65,231
1,64,0,48
1,64,71,56
1,64,0,48
1,64,68,140
1,64,0,48
1,64,69,40
1,64,0,48
1,64,75,52
1,64,0,48
1,64,67,242
1,64,0,48
1,64,69,50
1,64,0,48
1,64,68,159
1,64,0,48
1,64,69,45
1,64,0,48
1,64,74,43
1,64,0,48
1,64,69,225
1,64,0,48
1,64,73,52
1,64,0,48
1,64,70,150
1,64,0,48
1,64,69,36
1,64,0,48
1,64,74,78
1,64,0,48
1,64,71,241
1,64,0,48
1,64,73,48
1,64,0,48
1,64,68,128
1,64,0,48
1,64,64,58
1,64,0,48
1,64,75,51
1,64,0,48
1,64,68,232
1,64,0,48
1,64,75,56
1,64,0,48
1,64,65,141
1,64,0,48
1,64,68,49
1,64,0,48
1,64,72,54
1,64,0,48
1,64,66,246
1,64,0,48
1,64,72,42
1,64,0,48
1,64,67,146
1,64,0,48
1,64,70,46
1,64,0,48
1,64,74,47
1,64,0,48
1,64,64,232
1,64,0,48
1,64,72,54
1,64,0,48
1,64,68,143
1,64,0,48
1,64,62,42
1,64,0,48
1,64,74,43
1,64,0,48
1,64,70,238
1,64,0,48
1,64,71,51
1,64,0,48
1,64,66,147
1,64,0,48
1,64,66,35
1,64,0,48
1,64,72,58
1,64,0,48
1,64,67,239
1,64,0,48
1,64,73,45
1,64,0,48
1,64,63,145
1,64,0,48
1,64,65,40
1,64,0,48
1,64,73,58
1,64,0,48
1,64,66,239
1,64,0,48
1,64,72,44
1,64,0,48
1,64,64,155
1,64,0,48
1,64,65,42
1,64,0,48
1,64,71,44
1,64,0,48
1,64,68,235
1,64,0,48
1,64,72,51
1,64,0,48
1,64,66,156
1,64,0,48
1,64,67,35
1,64,0,48
1,64,73,59
1,64,0,48
1,64,66,233
1,64,0,48
1,64,76,48
1,64,0,48
1,64,68,137
1,64,0,48
1,64,69,48
1,64,0,48
1,64,71,54
1,64,0,48
1,64,66,242
1,64,0,48
1,64,74,49
1,64,0,48
1,64,66,127
1,64,0,48
1,64,69,55
1,64,0,48
1,64,71,57
1,64,0,48
1,64,65,242
1,64,0,48
1,64,74,52
1,64,0,48
1,64,69,148
1,64,0,48
1,64,64,39
1,64,0,48
1,64,75,60
1,64,0,48
1,64,63,233
1,64,0,48
1,64,70,47
1,64,0,48
1,64,65,145
1,64,0,48
1,64,68,43
1,64,0,48
1,64,71,55
1,64,0,48
1,64,68,233
1,64,0,48
1,64,72,49
1,64,0,48
1,64,64,148
1,64,0,48
1,64,70,47
1,64,0,48
1,64,71,43
1,64,0,48
1,64,67,241
1,64,0,48
1,64,73,47
1,64,0,48
1,64,64,152
1,64,0,48
1,64,67,51
1,64,0,48
1,64,73,40
1,64,0,48
1,64,67,237
1,64,0,48
1,64,73,43
1,64,0,48
1,64,65,149
1,64,0,48
1,64,66,53
1,64,0,48
1,64,72,46
1,64,0,48
1,64,70,238
1,64,0,48
1,64,75,46
1,64,0,48
1,64,67,147
1,64,0,48
1,64,67,54
1,64,0,48
1,64,70,49
1,64,0,48
1,64,65,240
1,64,0,48
1,64,74,52
1,64,0,48
1,64,70,140
1,64,0,48
1,64,66,42
1,64,0,48
1,64,70,54
1,64,0,48
1,64,65,240
1,64,0,48
1,64,70,46
1,64,0,48
1,64,66,150
1,64,0,48
1,64,66,40
1,64,0,48
1,64,73,46
1,64,0,48
1,64,67,237
1,64,0,48
1,64,67,50
1,64,0,48
1,64,68,136
1,64,0,48
1,64,74,57
1,64,0,48
1,64,74,39
1,64,0,48
1,64,66,246
1,64,0,48
1,64,72,43
1,64,0,48
1,64,63,151
1,64,0,48
1,64,68,42
1,64,0,48
1,64,72,48
1,64,0,48
1,64,69,248
1,64,0,48
1,64,70,45
1,64,0,48
1,64,65,153
1,64,0,48
1,64,65,49
1,64,0,48
1,64,75,45
1,64,0,48
1,64,68,232
1,64,0,48
1,64,68,48
1,64,0,48
1,64,64,157
1,64,0,48
1,64,66,44
1,64,0,48
1,64,71,47
1,64,0,48
1,64,65,238
1,64,0,48
1,64,70,45
1,64,0,48
1,64,67,157
1,64,0,48
1,64,67,47
1,64,0,48
1,64,73,40
1,64,0,48
1,64,70,230
1,64,0,48
1,64,75,50
1,64,0,48
1,64,70,150
1,64,0,48
1,64,67,41
1,64,0,48
1,64,76,50
1,64,0,48
1,64,61,241
1,64,0,48
1,64,70,50
1,64,0,48
1,64,62,154
1,64,0,48
1,64,66,42
1,64,0,48
1,64,73,48
1,64,0,48
1,64,69,238
1,64,0,48
1,64,75,52
1,64,0,48
1,64,67,148
1,64,0,48
1,64,64,42
1,64,0,48
1,64,72,54
1,64,0,48
1,64,72,238
1,64,0,48
1,64,73,52
1,64,0,48
1,64,69,154
1,64,0,48
1,64,64,40
1,64,0,48
1,64,76,49
1,64,0,48
1,64,68,225
1,64,0,48
1,64,71,53
1,64,0,48
1,64,64,150
1,64,0,48
1,64,70,34
1,64,0,48
1,64,72,50
1,64,0,48
1,64,69,235
1,64,0,48
1,64,71,52
1,64,0,48
1,64,65,160
1,64,0,48
1,64,66,38
1,64,0,48
1,64,75,44
1,64,0,48
1,64,70,234
1,64,0,48
1,64,71,48
1,64,0,48
1,64,63,149
1,64,0,48
1,64,65,41
1,64,0,48
1,64,75,50
1,64,0,48
1,64,69,228
1,64,0,48
1,64,71,48
1,64,0,48
1,64,69,153
1,64,0,48
1,64,69,47
1,64,0,48
1,64,75,53
1,64,0,48
1,64,65,239
1,64,0,48
1,64,71,49
1,64,0,48
1,64,70,136
1,64,0,48
1,64,69,58
1,64,0,48
1,64,70,61
1,64,0,48
1,64,69,240
1,64,0,48
1,64,70,48
1,64,0,48
1,64,65,148
1,64,0,48
1,64,66,35
1,64,0,48
1,64,72,51
1,64,0,48
1,64,68,251
1,64,0,48
1,64,72,49
1,64,0,48
1,64,66,143
1,64,0,48
1,64,64,39
1,64,0,48
1,64,73,54
1,64,0,48
1,64,65,239
1,64,0,48
1,64,72,50
1,64,0,48
1,64,68,146
1,64,0,48
1,64,70,40
1,64,0,48
1,64,73,47
1,64,0,48
1,64,72,239
1,64,0,48
1,64,71,49
1,64,0,48
1,64,65,142
1,64,0,48
1,64,66,46
1,64,0,48
1,64,72,49
1,64,0,48
1,64,67,240
1,64,0,48
1,64,75,50
1,64,0,48
1,64,70,144
1,64,0,48
1,64,70,41
1,64,0,48
1,64,73,50
1,64,0,48
2,63,107,864
2,63,0,48
2,63,109,342
2,63,0,48
2,63,105,338
2,63,0,48
2,63,95,329
2,63,0,48
2,63,95,345
2,63,0,48
2,63,97,326
2,63,0,48
2,63,107,332
2,63,0,48
2,63,111,338
2,63,0,48
2,63,107,338
2,63,0,48
2,63,109,326
2,63,0,48
2,63,109,344
2,63,0,48
2,63,108,342
2,63,0,48
2,63,100,334
2,63,0,48
2,63,101,326
2,63,0,48
2,63,96,344
2,63,0,48
2,63,101,344
2,63,0,48
2,63,100,329
2,63,0,48
2,63,99,337
2,63,0,48
2,63,99,342
2,63,0,48
2,63,100,322
2,63,0,48
2,63,104,344
2,63,0,48
2,63,95,327
2,63,0,48
2,63,107,343
2,63,0,48
2,63,104,342
2,63,0,48
2,63,92,328
2,63,0,48
2,63,97,336
2,63,0,48
2,63,110,334
2,63,0,48
2,63,99,330
2,63,0,48
2,63,109,336
2,63,0,48
2,63,100,330
2,63,0,48
2,63,107,330
2,63,0,48
2,63,98,343
2,63,0,48
2,63,102,336
2,63,0,48
2,63,108,337
2,63,0,48
2,63,96,340
2,63,0,48
2,63,107,344
2,63,0,48
2,63,106,322
2,63,0,48
2,63,103,345
2,63,0,48
2,63,104,341
2,63,0,48
2,63,99,333
2,63,0,48
2,63,108,349
2,63,0,48
2,63,113,328
2,63,0,48
2,63,109,324
2,63,0,48
2,63,107,346
2,63,0,48
2,63,96,334
2,63,0,48
2,63,101,336
2,63,0,48
2,63,107,325
2,63,0,48
2,63,96,347
2,63,0,48
2,63,98,332
2,63,0,48
2,63,103,335
2,63,0,48
2,63,105,335
2,63,0,48
2,63,105,348
2,63,0,48
2,63,112,324
2,63,0,48
2,63,108,339
2,63,0,48
2,63,107,349
2,63,0,48
2,63,107,331
2,63,0,48
2,63,106,329
2,63,0,48
2,63,104,338
2,63,0,48
2,63,110,334
2,63,0,48
2,63,105,336
2,63,0,48
2,63,110,336
2,63,0,48
2,63,100,321
2,63,0,48
2,63,111,351
2,63,0,48
2,63,109,348
2,63,0,48
2,63,108,331
2,63,0,48
2,63,102,344
2,63,0,48
2,63,107,335
2,63,0,48
2,63,108,325
2,63,0,48
2,63,111,337
2,63,0,48
