track,note,velocity,time
1,36,116,10032
1,31,116,388
1,36,109,184
1,36,116,142
1,40,113,270
1,36,113,140
1,31,115,154
1,38,116,88
1,33,117,170
1,38,105,166
1,38,114,144
1,41,114,140
1,38,117,80
1,33,118,112
1,41,113,20
1,36,113,168
1,36,115,124
1,41,114,188
1,41,118,144
1,36,117,176
1,36,113,126
1,41,118,36
1,36,114,92
1,31,112,192
1,31,118,118
1,31,109,176
1,43,114,2
1,48,104,10
1,52,110,0
1,48,110,122
1,36,115,292
1,31,113,154
1,36,115,230
1,28,112,124
1,29,111,150
1,31,114,138
1,38,116,16
1,33,116,192
1,38,116,164
1,41,113,134
1,45,116,2
1,48,116,6
1,41,115,284
1,36,112,222
1,36,105,224
1,41,114,104
1,36,110,62
1,40,113,2
1,41,111,6
1,31,111,20
1,36,113,116
1,31,115,126
1,52,120,20
1,50,117,6
1,48,115,104
1,45,120,164
1,36,115,2
1,31,113,154
1,36,115,230
1,28,112,124
1,29,111,150
1,31,114,138
1,38,116,16
1,33,116,192
1,38,116,164
1,33,113,134
1,38,116,2
1,41,116,6
1,41,115,92
1,36,112,222
1,36,105,224
1,41,115,104
1,33,112,124
1,34,111,150
1,35,114,138
1,36,113,16
1,31,115,126
1,52,106,2
1,48,117,6
1,52,106,2
1,48,117,6
1,36,115,2
1,31,113,154
1,36,115,230
1,28,112,124
1,29,111,150
1,31,114,138
1,38,116,16
1,33,116,192
1,38,116,164
1,41,113,38
1,38,113,14
1,33,113,14
1,41,115,14
1,36,112,222
1,36,110,224
1,40,113,2
1,41,111,6
1,36,110,20
1,40,113,2
1,41,111,6
1,31,111,20
1,36,113,116
1,31,115,126
1,52,106,2
1,48,117,6
1,45,106,2
1,48,117,6
1,36,115,2
1,31,113,154
1,36,115,230
1,28,112,124
1,29,111,150
1,31,114,138
1,38,116,16
1,33,116,192
1,38,116,164
1,41,113,134
1,45,116,2
1,48,116,6
1,53,115,92
1,50,113,30
1,48,112,14
1,45,105,32
1,43,114,8
1,45,110,62
1,43,113,14
1,31,111,6
1,36,113,20
1,31,115,126
1,52,120,20
1,50,117,6
1,48,115,104
1,45,120,164
1,36,115,2
1,31,113,154
1,36,115,230
1,28,112,124
1,29,111,150
1,31,114,138
1,38,116,16
1,33,116,192
1,38,116,164
1,41,113,134
1,45,116,2
1,48,116,6
1,53,115,284
1,50,112,30
1,55,116,32
1,50,116,20
1,55,118,148
1,50,115,66
1,36,113,2
1,31,115,146
1,36,113,118
1,45,119,14
1,43,113,6
1,36,118,40
1,38,123,26
1,50,123,10
1,53,102,14
1,57,108,6
1,36,116,2
1,31,116,388
1,36,109,184
1,36,116,142
1,40,113,270
1,36,113,140
1,31,115,154
1,38,116,88
1,33,117,170
1,38,105,166
1,38,114,144
1,41,114,140
1,38,117,80
1,33,118,112
1,41,113,20
1,36,113,168
1,36,115,124
1,41,114,188
1,41,118,144
1,36,117,176
1,36,113,126
1,41,118,36
1,36,114,92
1,31,112,192
1,31,118,118
1,31,109,176
1,43,114,2
1,48,104,10
1,52,110,0
1,48,110,122
1,36,115,292
1,31,113,154
1,36,115,230
1,28,112,124
1,29,111,150
1,31,114,138
1,38,116,16
1,33,116,192
1,38,116,164
1,41,113,134
1,45,116,2
1,48,116,6
1,41,115,284
1,36,112,222
1,36,105,224
1,41,114,104
1,36,110,62
1,40,113,2
1,41,111,6
1,31,111,20
1,36,113,116
1,31,115,126
1,52,120,20
1,50,117,6
1,48,115,104
1,45,120,164
1,36,115,2
1,31,113,154
1,36,115,230
1,28,112,124
1,29,111,150
1,31,114,138
1,38,116,16
1,33,116,192
1,38,116,164
1,33,113,134
1,38,116,2
1,41,116,6
1,41,115,92
1,36,112,222
1,36,105,224
1,41,115,104
1,33,112,124
1,34,111,150
1,35,114,138
1,36,113,16
1,31,115,126
1,52,106,2
1,48,117,6
1,52,106,2
1,48,117,6
1,36,115,2
1,31,113,154
1,36,115,230
1,28,112,124
1,29,111,150
1,31,114,138
1,38,116,16
1,33,116,192
1,38,116,164
1,41,113,38
1,38,113,14
1,33,113,14
1,41,115,14
1,36,112,222
1,36,110,224
1,40,113,2
1,41,111,6
1,36,110,20
1,40,113,2
1,41,111,6
1,31,111,20
1,36,113,116
1,31,115,126
1,52,106,2
1,48,117,6
1,45,106,2
1,48,117,6
1,36,115,2
1,31,113,154
1,36,115,230
1,28,112,124
1,29,111,150
1,31,114,138
1,38,116,16
1,33,116,192
1,38,116,164
1,41,113,134
1,45,116,2
1,48,116,6
1,53,115,92
1,50,113,30
1,48,112,14
1,45,105,32
1,43,114,8
1,45,110,62
1,43,113,14
1,31,111,6
1,36,113,20
1,31,115,126
1,52,120,20
1,50,117,6
1,48,115,104
1,45,120,164
1,36,115,2
1,31,113,154
1,36,115,230
1,28,112,124
1,29,111,150
1,31,114,138
1,38,116,16
1,33,116,192
1,38,116,164
1,41,113,134
1,45,116,2
1,48,116,6
1,53,115,284
1,50,112,30
1,55,116,32
1,50,116,20
1,55,118,148
1,50,115,66
1,36,113,2
1,31,115,146
1,36,113,118
1,45,119,14
1,43,113,6
1,36,115,40
1,31,113,154
1,36,115,230
1,28,112,124
1,29,111,150
1,31,114,138
1,38,116,16
1,33,116,192
1,38,116,164
1,41,113,134
1,45,116,2
1,48,116,6
1,53,115,92
1,50,113,30
1,48,112,14
1,45,105,32
1,43,114,8
1,45,110,62
1,43,113,14
1,31,111,6
1,36,113,20
1,31,115,126
1,52,120,20
1,50,117,6
1,48,115,104
1,45,120,164
1,36,115,2
1,31,113,154
1,36,115,230
1,28,112,124
1,29,111,150
1,31,114,138
1,38,116,16
1,33,116,192
1,38,116,164
1,41,113,134
1,45,116,2
1,48,116,6
1,53,115,284
1,50,112,30
1,55,116,32
1,50,116,20
1,55,118,148
1,50,115,66
1,36,113,2
1,31,115,146
1,36,113,118
1,45,119,14
1,43,113,6
1,36,115,40
1,31,113,154
1,36,115,126
1,28,112,124
1,29,111,112
1,31,114,138
1,38,116,16
1,33,116,168
1,38,116,14
1,41,113,134
1,45,116,2
1,48,116,6
1,53,115,92
1,50,113,30
1,48,112,14
1,45,105,32
1,43,114,8
1,45,110,62
1,43,113,14
1,31,111,6
1,36,113,20
2,65,73,10016
2,74,78,0
2,77,76,0
2,64,67,6
2,72,75,0
2,76,70,0
2,65,71,6
2,74,77,0
2,77,74,0
2,64,67,6
2,72,76,0
2,76,70,0
2,67,71,6
2,76,80,0
2,79,74,0
2,65,69,6
2,74,78,0
2,77,72,0
2,67,72,6
2,76,77,0
2,79,75,0
2,65,71,6
2,74,79,0
2,77,74,0
2,69,72,164
2,77,81,0
2,81,75,0
2,67,68,6
2,76,76,0
2,79,71,0
2,69,68,6
2,77,76,0
2,81,71,0
2,67,67,6
2,76,79,0
2,79,70,0
2,65,71,6
2,74,76,0
2,77,74,0
2,64,70,6
2,72,77,0
2,76,73,0
2,65,73,37254
2,74,78,0
2,77,76,0
2,64,67,6
2,72,75,0
2,76,70,0
2,65,71,6
2,74,77,0
2,77,74,0
2,64,67,6
2,72,76,0
2,76,70,0
2,67,71,102
2,76,80,0
2,79,74,0
2,65,69,6
2,74,78,0
2,77,72,0
2,67,72,6
2,76,77,0
2,79,75,0
2,65,71,6
2,74,79,0
2,77,74,0
2,69,72,198
2,77,81,0
2,81,75,0
2,67,68,6
2,76,76,0
2,79,71,0
2,67,75,6
2,76,75,0
2,79,75,0
2,65,75,6
2,74,75,0
2,77,75,0
2,65,73,6
2,74,78,0
2,77,76,0
2,64,67,6
2,72,75,0
2,76,70,0
2,65,71,6
2,74,77,0
2,77,74,0
2,64,67,6
2,72,76,0
2,76,70,0
2,65,73,6
2,74,78,0
2,77,76,0
2,64,67,6
2,72,75,0
2,76,70,0
2,65,71,6
2,74,77,0
2,77,74,0
2,64,67,6
2,72,76,0
2,76,70,0
2,67,71,102
2,76,80,0
2,79,74,0
2,65,69,6
2,74,78,0
2,77,72,0
2,67,72,6
2,76,77,0
2,79,75,0
2,65,71,6
2,74,79,0
2,77,74,0
2,69,72,198
2,77,81,0
2,81,75,0
2,67,68,6
2,76,76,0
2,79,71,0
2,67,75,6
2,76,75,0
2,79,75,0
2,65,75,6
2,74,75,0
2,77,75,0
2,65,73,6
2,74,78,0
2,77,76,0
2,64,67,6
2,72,75,0
2,76,70,0
2,65,71,6
2,74,77,0
2,77,74,0
2,64,67,6
2,72,76,0
2,76,70,0
2,65,73,6
2,74,78,0
2,77,76,0
2,64,67,6
2,72,75,0
2,76,70,0
2,65,71,6
2,74,77,0
2,77,74,0
2,64,67,6
2,72,76,0
2,76,70,0
2,67,71,102
2,76,80,0
2,79,74,0
2,65,69,6
2,74,78,0
2,77,72,0
2,67,72,6
2,76,77,0
2,79,75,0
2,69,72,390
2,77,81,0
2,81,75,0
2,67,68,6
2,76,76,0
2,79,71,0
2,69,75,6
2,77,75,0
2,81,75,0
2,67,75,6
2,76,75,0
2,79,75,0
2,65,73,6
2,74,78,0
2,77,76,0
2,64,67,6
2,72,75,0
2,76,70,0
2,65,71,6
2,74,77,0
2,77,74,0
2,64,67,6
2,72,76,0
2,76,70,0
2,67,71,6
2,76,80,0
2,79,74,0
2,65,69,6
2,74,78,0
2,77,72,0
2,67,72,6
2,76,77,0
2,79,75,0
2,65,71,6
2,74,79,0
2,77,74,0
2,69,72,164
2,77,81,0
2,81,75,0
2,67,68,6
2,76,76,0
2,79,71,0
2,69,68,6
2,77,76,0
2,81,71,0
2,67,67,6
2,76,79,0
2,79,70,0
2,65,71,6
2,74,76,0
2,77,74,0
2,64,70,6
2,72,77,0
2,76,73,0
2,65,73,37254
2,74,78,0
2,77,76,0
2,64,67,6
2,72,75,0
2,76,70,0
2,65,71,6
2,74,77,0
2,77,74,0
2,64,67,6
2,72,76,0
2,76,70,0
2,67,71,102
2,76,80,0
2,79,74,0
2,65,69,6
2,74,78,0
2,77,72,0
2,67,72,6
2,76,77,0
2,79,75,0
2,65,71,6
2,74,79,0
2,77,74,0
2,69,72,198
2,77,81,0
2,81,75,0
2,67,68,6
2,76,76,0
2,79,71,0
2,67,75,6
2,76,75,0
2,79,75,0
2,65,75,6
2,74,75,0
2,77,75,0
2,65,73,6
2,74,78,0
2,77,76,0
2,64,67,6
2,72,75,0
2,76,70,0
2,65,71,6
2,74,77,0
2,77,74,0
2,64,67,6
2,72,76,0
2,76,70,0
2,65,73,6
2,74,78,0
2,77,76,0
2,64,67,6
2,72,75,0
2,76,70,0
2,65,71,6
2,74,77,0
2,77,74,0
2,64,67,6
2,72,76,0
2,76,70,0
2,67,71,102
2,76,80,0
2,79,74,0
2,65,69,6
2,74,78,0
2,77,72,0
2,67,72,6
2,76,77,0
2,79,75,0
2,65,71,6
2,74,79,0
2,77,74,0
2,69,72,198
2,77,81,0
2,81,75,0
2,67,68,6
2,76,76,0
2,79,71,0
2,67,75,6
2,76,75,0
2,79,75,0
2,65,75,6
2,74,75,0
2,77,75,0
2,65,73,6
2,74,78,0
2,77,76,0
2,64,67,6
2,72,75,0
2,76,70,0
2,65,71,6
2,74,77,0
2,77,74,0
2,64,67,6
2,72,76,0
2,76,70,0
3,72,124,22302
3,71,121,8
3,72,121,6
3,67,106,14
3,72,125,1184
3,74,126,6
3,76,123,6
3,74,126,6
3,69,110,6
3,81,123,1938
3,81,126,94
3,81,126,98
3,81,125,100
3,81,123,146
3,72,117,116
3,74,119,52
3,72,117,10
3,72,123,2934
3,71,120,6
3,72,120,6
3,71,121,1202
3,72,121,6
3,74,123,6
3,69,114,6
3,81,126,2384
3,81,125,72
3,81,126,130
3,81,124,102
3,72,120,22
3,74,120,6
3,72,116,6
3,72,111,60
3,72,110,72
3,72,122,1746
3,71,118,60
3,72,120,36
3,72,120,1512
3,74,125,116
3,76,121,6
3,74,121,6
3,69,114,20
3,81,121,1698
3,81,125,120
3,81,125,96
3,81,125,82
3,81,124,104
3,72,120,122
3,72,119,96
3,72,113,74
3,74,119,14
3,72,114,6
3,72,122,1688
3,71,121,774
3,72,121,14
3,74,121,6
3,76,122,6
3,74,120,6
3,74,122,676
3,76,121,6
3,77,124,6
3,81,121,26
3,84,126,38
3,83,125,6
3,81,125,6
3,79,121,6
3,76,121,6
3,74,119,6
3,76,119,6
3,79,119,20
3,72,127,2116
3,72,124,110
3,71,125,736
3,72,124,6
3,74,124,6
3,76,123,6
3,74,125,6
3,74,125,856
3,76,124,20
3,77,126,6
3,81,121,26
3,84,126,22
3,83,125,6
3,81,123,6
3,79,120,6
3,76,123,6
3,74,120,6
3,72,119,22
3,71,127,22754
3,72,127,6
3,71,126,6
3,72,125,6
3,72,124,76
3,72,123,1352
3,74,125,42
3,76,125,6
3,74,125,6
3,74,120,66
3,81,125,2072
3,81,127,96
3,81,126,92
3,81,126,104
3,81,125,144
3,72,120,64
3,74,121,60
3,72,118,8
3,72,122,2758
3,71,120,16
3,72,118,12
3,71,119,1466
3,72,120,30
3,74,117,6
3,69,107,28
3,81,126,2298
3,81,125,94
3,81,124,108
3,81,124,88
3,72,118,98
3,72,118,100
3,72,116,102
3,74,117,6
3,72,114,6
3,72,123,1844
3,71,120,6
3,72,120,6
3,72,120,1508
3,74,121,44
3,76,122,6
3,74,118,6
3,69,108,20
3,81,124,1474
3,81,125,94
3,81,122,100
3,81,120,74
3,81,120,82
3,72,116,102
3,72,117,98
3,72,116,102
3,74,117,6
3,72,114,6
3,72,122,1748
3,71,121,774
3,72,121,14
3,74,121,6
3,76,122,6
3,74,120,6
3,74,122,676
3,76,121,6
3,77,124,6
3,81,121,26
3,84,126,38
3,83,125,6
3,81,125,6
3,79,121,6
3,76,121,6
3,74,119,6
3,76,119,6
3,79,119,20
3,72,127,2116
3,72,124,110
3,71,125,736
3,72,124,6
3,74,124,6
3,76,123,6
3,74,125,6
3,74,125,856
3,76,124,20
3,77,126,6
3,81,121,26
3,84,126,22
3,83,125,6
3,81,123,6
3,79,120,6
3,76,123,6
3,74,120,6
3,72,119,22
3,72,122,1476
3,71,121,774
3,72,121,14
3,74,121,6
3,76,122,6
3,74,120,6
3,74,122,676
3,76,121,6
3,77,124,6
3,81,121,26
3,84,126,38
3,83,125,6
3,81,125,6
3,79,121,6
3,76,121,6
3,74,119,6
3,76,119,6
3,79,119,20
3,72,127,2116
3,72,124,110
3,71,125,736
3,72,124,6
3,74,124,6
3,76,123,6
3,74,125,6
3,74,125,856
3,76,124,20
3,77,126,6
3,81,121,26
3,84,126,22
3,83,125,6
3,81,123,6
3,79,120,6
3,76,123,6
3,74,120,6
3,72,119,22
4,60,124,22082
4,59,121,8
4,60,121,6
4,55,106,14
4,60,125,1184
4,62,126,6
4,64,123,6
4,62,126,6
4,57,110,6
4,69,123,1938
4,69,126,94
4,69,126,98
4,69,125,100
4,69,123,146
4,60,117,116
4,62,119,52
4,60,117,10
4,60,123,2934
4,59,120,6
4,60,120,6
4,59,121,1202
4,60,121,6
4,62,123,6
4,57,114,6
4,69,126,2384
4,69,125,72
4,69,126,130
4,69,124,102
4,60,122,4422
4,59,118,60
4,60,120,36
4,60,120,1512
4,62,125,116
4,64,121,6
4,62,121,6
4,57,114,20
4,69,121,1698
4,69,125,120
4,69,125,96
4,69,125,82
4,69,124,104
4,60,120,122
4,60,119,96
4,60,113,74
4,62,119,14
4,60,114,6
4,59,127,47542
4,60,127,6
4,59,126,6
4,60,125,6
4,60,124,76
4,60,123,1352
4,62,125,42
4,64,125,6
4,62,125,6
4,62,120,66
4,69,125,2072
4,69,127,96
4,69,126,92
4,69,126,104
4,69,125,144
4,60,120,64
4,62,121,60
4,60,118,8
4,60,122,2758
4,59,120,16
4,60,118,12
4,59,119,1466
4,60,120,30
4,62,117,6
4,57,107,28
4,69,126,2298
4,69,125,94
4,69,124,108
4,69,124,88
4,60,118,98
4,60,118,100
4,60,116,102
4,62,117,6
4,60,114,6
4,60,123,1844
4,59,120,6
4,60,120,6
4,60,120,1508
4,62,121,44
4,64,122,6
4,62,118,6
4,57,108,20
4,69,124,1474
4,69,125,94
4,69,122,100
