track,note,velocity,time
0,42,126,0
0,42,126,0
0,38,24,0
0,42,126,0
0,45,126,0
0,57,126,0
0,38,24,0
0,48,126,0
0,60,126,0
0,38,126,0
0,47,126,0
0,59,126,0
0,38,24,0
0,45,126,0
0,57,126,0
0,38,24,0
0,42,126,0
0,48,126,0
0,60,126,0
0,38,42,0
0,47,126,0
0,59,126,0
0,38,126,0
0,45,126,0
0,57,126,0
0,38,126,0
0,33,126,1
0,45,126,0
0,76,126,0
0,72,126,0
0,60,126,0
0,64,126,0
0,36,126,0
0,42,126,0
0,49,126,0
0,76,126,8
0,72,108,0
0,60,108,0
0,64,126,0
0,42,42,0
0,76,126,37
0,72,126,0
0,60,126,0
0,64,126,0
0,38,126,0
0,42,126,0
0,33,120,14
0,45,120,0
0,36,126,0
0,29,126,11
0,41,126,0
0,72,126,0
0,69,90,0
0,57,90,0
0,60,126,0
0,36,126,0
0,42,42,0
0,72,126,0
0,69,126,0
0,57,126,0
0,60,126,0
0,29,126,13
0,41,126,0
0,36,126,0
0,42,126,0
0,72,126,21
0,69,126,0
0,57,126,0
0,60,126,0
0,42,42,2
0,72,126,21
0,69,94,0
0,57,94,0
0,60,126,0
0,72,126,16
0,69,122,0
0,57,122,0
0,60,126,0
0,38,126,0
0,42,126,0
0,72,126,12
0,69,120,0
0,57,120,0
0,60,126,0
0,72,126,14
0,69,126,0
0,57,126,0
0,60,126,0
0,36,126,0
0,42,42,0
0,31,126,36
0,43,126,0
0,74,126,0
0,71,126,0
0,59,126,0
0,62,126,0
0,36,126,0
0,42,126,0
0,74,126,14
0,71,114,0
0,59,114,0
0,62,126,0
0,42,42,0
0,74,126,36
0,71,122,0
0,59,122,0
0,62,126,0
0,38,126,0
0,42,126,0
0,36,126,37
0,48,126,0
0,72,126,0
0,60,126,0
0,36,126,0
0,42,42,0
0,72,126,17
0,67,126,0
0,55,126,0
0,60,126,0
0,42,126,11
0,36,126,21
0,48,126,0
0,67,126,0
0,72,126,0
0,60,126,0
0,55,126,0
0,42,42,0
0,24,126,3
0,36,126,0
0,36,126,0
0,42,42,0
0,72,126,21
0,67,126,0
0,55,126,0
0,60,126,0
0,42,42,0
0,36,126,2
0,48,126,0
0,67,126,0
0,72,126,0
0,60,126,0
0,55,126,0
0,38,126,0
0,42,126,0
0,42,42,21
0,24,126,4
0,36,126,0
0,36,126,0
0,42,42,0
0,42,42,19
0,33,126,2
0,45,126,0
0,76,126,0
0,72,126,0
0,60,126,0
0,64,126,0
0,36,126,0
0,42,126,0
0,76,126,16
0,72,126,0
0,60,126,0
0,64,126,0
0,42,42,0
0,76,126,38
0,72,126,0
0,60,126,0
0,64,126,0
0,38,126,0
0,42,126,0
0,33,98,11
0,45,98,0
0,36,126,0
0,33,126,17
0,45,126,0
0,76,126,0
0,72,126,0
0,60,126,0
0,64,126,0
0,36,126,0
0,42,42,0
0,29,126,27
0,41,126,0
0,36,126,0
0,42,126,0
0,69,126,21
0,72,126,0
0,60,126,0
0,57,126,0
0,42,42,6
0,72,126,21
0,69,114,0
0,57,114,0
0,60,126,0
0,72,126,14
0,69,126,0
0,57,126,0
0,60,126,0
0,38,126,0
0,42,126,0
0,72,126,32
0,69,126,0
0,57,126,0
0,60,126,0
0,36,126,0
0,42,42,0
0,71,126,32
0,67,126,0
0,55,126,0
0,59,126,0
0,36,126,0
0,42,126,0
0,36,126,34
0,48,126,0
0,67,126,0
0,71,126,0
0,59,126,0
0,55,126,0
0,42,42,0
0,38,126,0
0,50,126,0
0,71,126,24
0,67,126,0
0,55,126,0
0,59,126,0
0,38,126,0
0,42,126,0
0,36,126,36
0,48,126,0
0,67,126,0
0,72,126,0
0,60,126,0
0,55,126,0
0,36,126,0
0,42,42,0
0,42,126,15
0,36,126,21
0,48,126,0
0,72,126,0
0,67,126,0
0,55,126,0
0,60,126,0
0,38,126,0
0,42,42,0
0,24,126,4
0,36,126,0
0,36,126,0
0,42,42,0
0,72,126,21
0,67,98,0
0,55,98,0
0,60,126,0
0,42,42,0
0,72,126,0
0,67,126,0
0,55,126,0
0,60,126,0
0,38,126,0
0,42,126,0
0,42,42,10
0,36,126,21
0,42,42,0
0,42,42,21
0,33,126,21
0,57,126,0
0,64,126,0
0,60,126,0
0,60,126,0
0,36,126,0
0,42,126,0
0,49,126,0
0,72,116,7
0,60,126,6
0,42,42,0
0,60,126,2
0,38,126,0
0,42,126,0
0,29,126,2
0,36,126,0
0,29,126,16
0,60,126,0
0,57,126,0
0,53,126,0
0,36,126,0
0,42,42,0
0,60,102,13
0,29,126,16
0,36,126,0
0,42,126,0
0,60,126,21
0,42,42,16
0,60,94,21
0,38,126,18
0,42,126,0
0,60,126,10
0,72,120,14
0,36,126,0
0,42,42,0
0,60,126,6
0,31,126,12
0,62,126,0
0,59,126,0
0,55,126,0
0,36,126,0
0,42,126,0
0,60,122,16
0,31,126,16
0,72,126,0
0,42,42,0
0,72,126,5
0,38,126,0
0,42,126,0
0,36,126,32
0,55,126,0
0,60,126,0
0,64,126,0
0,72,126,0
0,36,126,0
0,42,42,0
0,60,126,15
0,42,126,13
0,60,126,11
0,42,42,0
0,36,126,14
0,36,126,0
0,42,42,0
0,60,126,21
0,42,42,0
0,38,126,13
0,42,126,0
0,24,126,1
0,60,126,0
0,42,42,0
0,36,126,2
0,60,126,0
0,36,126,0
0,42,42,0
0,60,126,14
0,42,42,0
0,33,126,14
0,60,126,0
0,57,126,0
0,64,126,0
0,60,92,0
0,36,126,0
0,42,126,0
0,60,126,17
0,60,126,16
0,42,42,0
0,60,126,6
0,38,126,0
0,42,126,0
0,33,126,13
0,36,126,0
0,29,126,11
0,53,126,0
0,60,126,0
0,57,126,0
0,60,126,0
0,36,126,0
0,42,42,0
0,72,126,6
0,29,126,13
0,36,126,0
0,42,126,0
0,60,126,21
0,42,42,14
0,60,126,21
0,38,126,14
0,42,126,0
0,60,126,0
0,29,126,15
0,60,116,0
0,36,126,0
0,42,42,0
0,60,122,2
0,55,126,17
0,62,126,0
0,59,126,0
0,60,96,0
0,36,126,0
0,42,126,0
0,60,126,15
0,31,126,14
0,60,126,0
0,42,42,0
0,72,126,32
0,38,126,0
0,42,126,0
0,31,126,34
0,60,126,0
0,55,126,0
0,64,126,0
0,60,126,0
0,36,126,0
0,42,42,0
0,60,126,9
0,42,126,14
0,36,126,21
0,60,126,0
0,42,42,0
0,36,126,11
0,42,42,0
0,60,126,21
0,42,42,0
0,36,126,14
0,72,126,0
0,38,126,0
0,42,126,0
0,60,126,9
0,42,42,0
0,72,126,2
0,36,126,0
0,42,42,0
0,60,126,7
0,42,42,0
0,33,126,11
0,57,126,0
0,64,126,0
0,60,126,0
0,60,126,0
0,36,126,0
0,42,126,0
0,72,116,7
0,60,126,6
0,42,42,0
0,60,126,2
0,38,126,0
0,42,126,0
0,29,126,2
0,36,126,0
0,29,126,16
0,60,126,0
0,57,126,0
0,53,126,0
0,36,126,0
0,42,42,0
0,60,102,13
0,29,126,16
0,36,126,0
0,42,126,0
0,60,126,21
0,42,42,16
0,60,94,21
0,38,126,18
0,42,126,0
0,60,126,10
0,72,120,14
0,36,126,0
0,42,42,0
0,60,126,6
0,31,126,12
0,62,126,0
0,59,126,0
0,55,126,0
0,36,126,0
0,42,126,0
0,60,122,16
0,31,126,16
0,72,126,0
0,42,42,0
0,72,126,5
0,38,126,0
0,42,126,0
0,36,126,32
0,55,126,0
0,60,126,0
0,64,126,0
0,72,126,0
0,36,126,0
0,42,42,0
0,60,126,15
0,42,126,13
0,60,126,11
0,42,42,0
0,36,126,14
0,36,126,0
0,42,42,0
0,60,126,21
0,42,42,0
0,38,126,13
0,42,126,0
0,24,126,1
0,60,126,0
0,42,42,0
0,36,126,2
0,60,126,0
0,36,126,0
0,42,42,0
0,60,126,14
0,42,42,0
0,33,126,14
0,60,126,0
0,57,126,0
0,64,126,0
0,60,92,0
0,36,126,0
0,42,126,0
0,60,126,17
0,60,126,16
0,42,42,0
0,60,126,6
0,38,126,0
0,42,126,0
0,33,126,13
0,36,126,0
0,29,126,11
0,53,126,0
0,60,126,0
0,57,126,0
0,60,126,0
0,36,126,0
0,42,42,0
0,72,126,6
0,29,126,13
0,36,126,0
0,42,126,0
0,60,126,21
0,42,42,14
0,60,126,21
0,38,126,14
0,42,126,0
0,60,126,0
0,29,126,15
0,60,116,0
0,36,126,0
0,42,42,0
0,60,122,2
0,55,126,17
0,62,126,0
0,59,126,0
0,60,96,0
0,36,126,0
0,42,126,0
0,60,126,15
0,31,126,14
0,60,126,0
0,42,42,0
0,72,126,32
0,38,126,0
0,42,126,0
0,31,126,34
0,60,126,0
0,55,126,0
0,64,126,0
0,60,126,0
0,36,126,0
0,42,42,0
0,60,126,9
0,42,126,14
0,36,126,21
0,60,126,0
0,42,42,0
0,36,126,11
0,42,42,0
0,60,126,21
0,42,42,0
0,36,126,14
0,72,126,0
0,38,126,0
0,42,126,0
0,60,126,9
0,42,42,0
0,72,126,2
0,36,126,0
0,42,42,0
0,60,126,7
0,42,42,0
0,26,126,11
0,60,126,0
0,57,126,0
0,53,126,0
0,50,126,0
0,60,126,0
0,36,126,0
0,42,126,0
0,49,126,0
0,38,126,0
0,42,42,0
0,38,126,25
0,38,126,0
0,42,126,0
0,36,126,21
0,26,126,2
0,36,126,0
0,42,42,0
0,38,126,15
0,36,126,4
0,42,126,0
0,38,126,21
0,42,42,24
0,65,126,45
0,38,126,0
0,42,126,0
0,26,126,21
0,38,126,9
0,36,126,0
0,42,42,0
0,29,126,6
0,60,126,0
0,57,126,0
0,53,126,0
0,36,126,0
0,42,126,0
0,41,126,5
0,42,42,0
0,41,126,36
0,38,126,0
0,42,126,0
0,29,126,2
0,36,126,0
0,42,42,0
0,41,126,19
0,42,126,9
0,41,126,21
0,42,42,0
0,36,126,3
0,42,42,0
0,41,126,21
0,42,42,0
0,67,126,5
0,38,126,0
0,42,126,0
0,29,126,21
0,42,42,0
0,41,126,12
0,65,126,0
0,36,126,0
0,42,42,0
0,42,42,18
0,26,126,0
0,50,126,0
0,77,126,0
0,81,126,0
0,74,126,0
0,36,126,0
0,42,126,0
0,38,126,1
0,53,126,0
0,42,42,0
0,74,126,2
0,79,126,0
0,38,126,1
0,57,126,0
0,38,126,0
0,42,126,0
0,36,126,21
0,26,126,2
0,36,126,0
0,42,42,0
0,38,126,13
0,36,126,4
0,42,126,0
0,38,126,21
0,42,42,24
0,38,126,1
0,42,126,0
0,26,126,4
0,38,126,8
0,36,126,0
0,42,42,0
0,29,126,6
0,60,126,0
0,65,126,0
0,57,126,0
0,53,126,0
0,36,126,0
0,42,126,0
0,41,126,5
0,42,42,0
0,48,126,0
0,41,126,17
0,38,42,0
0,42,126,0
0,45,126,3
0,29,126,21
0,36,126,0
0,42,42,0
0,41,126,8
0,42,126,22
0,41,126,0
0,31,126,11
0,42,42,0
0,55,126,2
0,59,126,0
0,62,126,0
0,67,126,0
0,72,126,0
0,84,126,0
0,36,126,0
0,38,42,0
0,42,42,0
0,42,42,4
0,48,126,0
0,43,126,21
0,38,126,0
0,42,126,0
0,38,126,0
0,42,42,0
0,36,126,17
0,38,42,0
0,42,42,0
0,45,126,0
0,38,126,18
0,42,42,0
0,41,126,0
0,36,126,21
0,67,126,0
0,60,126,0
0,48,126,0
0,64,126,0
0,55,126,0
0,60,126,0
0,36,126,0
0,42,126,0
0,49,126,0
0,60,126,10
0,60,116,14
0,42,42,0
0,36,126,4
0,48,126,6
0,60,126,0
0,38,126,0
0,42,126,0
0,36,126,21
0,29,126,7
0,57,126,0
0,60,126,0
0,53,126,0
0,41,126,0
0,57,126,0
0,72,126,0
0,81,126,0
0,77,126,0
0,72,126,0
0,81,126,0
0,77,126,0
0,36,126,0
0,42,42,0
0,55,126,3
0,81,126,5
0,72,126,0
0,77,126,0
0,81,126,0
0,72,126,0
0,77,126,0
0,36,126,0
0,42,126,0
0,29,126,8
0,60,126,0
0,41,126,8
0,42,42,0
0,60,126,10
0,72,126,0
0,79,126,0
0,76,126,0
0,72,126,0
0,79,126,0
0,76,126,0
0,41,126,8
0,38,126,0
0,42,126,0
0,60,126,21
0,29,126,4
0,57,126,0
0,36,126,0
0,42,42,0
0,55,126,6
0,31,126,6
0,43,126,0
0,62,126,0
0,55,126,0
0,59,126,0
0,60,126,0
0,36,126,0
0,42,126,0
0,60,126,3
0,42,42,5
0,31,126,21
0,43,126,6
0,60,126,0
0,38,126,0
0,42,126,0
0,33,126,10
0,45,126,0
0,57,126,0
0,64,126,0
0,60,126,0
0,57,126,0
0,84,126,0
0,76,126,0
0,81,126,0
0,84,126,0
0,76,126,0
0,81,126,0
0,36,126,0
0,42,42,0
0,55,126,4
0,83,126,6
0,74,126,0
0,79,126,0
0,83,126,0
0,74,126,0
0,79,126,0
0,42,126,0
0,33,126,11
0,60,126,0
0,42,42,0
0,45,126,3
0,36,126,0
0,42,42,0
0,60,126,2
0,84,126,0
0,76,126,0
0,81,126,0
0,84,126,0
0,76,126,0
0,81,126,0
0,42,42,0
0,33,126,3
0,60,126,0
0,38,126,0
0,42,126,0
0,45,126,4
0,60,126,0
0,42,42,0
0,60,126,11
0,36,126,0
0,42,42,0
0,60,126,6
0,42,42,0
0,36,126,3
0,55,126,0
0,48,126,0
0,60,126,0
0,64,126,0
0,60,126,0
0,36,126,0
0,42,126,0
0,60,126,12
0,60,126,8
0,42,42,0
0,60,126,28
0,38,126,0
0,42,126,0
0,36,126,21
0,29,126,4
0,41,126,0
0,53,126,0
0,60,126,0
0,57,126,0
0,57,122,0
0,72,126,0
0,81,126,0
0,77,126,0
0,72,126,0
0,81,126,0
0,77,126,0
0,36,126,0
0,42,42,0
0,55,126,5
0,81,126,8
0,72,126,0
0,77,126,0
0,81,126,0
0,72,126,0
0,77,126,0
0,36,126,0
0,42,126,0
0,29,126,10
0,60,126,0
0,41,126,2
0,42,42,0
0,60,126,10
0,72,126,0
0,79,126,0
0,76,126,0
0,72,126,0
0,79,126,0
0,76,126,0
0,29,126,7
0,38,126,0
0,42,126,0
0,60,126,8
0,41,126,4
0,57,126,0
0,36,126,0
0,42,42,0
0,55,126,4
0,31,126,6
0,50,126,0
0,43,126,0
0,62,126,0
0,55,126,0
0,59,126,0
0,60,126,0
0,36,126,0
0,42,126,0
0,60,126,11
0,60,126,5
0,42,42,0
0,31,126,9
0,43,126,4
0,60,126,0
0,38,126,0
0,42,126,0
0,33,126,3
0,64,126,0
0,60,126,0
0,57,126,0
0,52,126,0
0,45,126,0
0,57,126,0
0,36,126,0
0,42,42,0
0,55,126,3
0,38,42,5
0,42,126,0
0,33,126,12
0,60,126,0
0,38,42,0
0,42,42,0
0,45,126,4
0,36,126,0
0,42,42,0
0,60,126,21
0,38,42,0
0,42,42,0
0,45,126,7
0,42,126,0
0,33,126,0
0,60,126,0
0,38,42,0
0,42,42,0
0,45,126,3
0,57,126,0
0,36,126,0
0,38,126,0
0,42,42,0
0,55,126,4
0,38,42,0
0,42,42,0
0,36,126,6
0,60,126,0
0,55,126,0
0,48,126,0
0,64,126,0
0,60,126,0
0,36,126,0
0,42,126,0
0,49,126,0
0,55,126,21
0,57,126,10
0,42,42,0
0,36,126,4
0,48,126,3
0,60,126,0
0,38,126,0
0,42,126,0
0,36,126,5
0,29,126,5
0,41,126,0
0,60,126,0
0,53,126,0
0,57,126,0
0,60,126,0
0,72,126,0
0,81,126,0
0,77,126,0
0,72,126,0
0,81,126,0
0,77,126,0
0,36,126,0
0,42,42,0
0,60,126,9
0,81,126,8
0,72,126,0
0,77,126,0
0,81,126,0
0,72,126,0
0,77,126,0
0,36,126,0
0,42,126,0
0,60,126,21
0,41,126,1
0,42,42,0
0,60,126,10
0,72,126,0
0,79,126,0
0,76,126,0
0,72,126,0
0,79,126,0
0,76,126,0
0,57,126,2
0,38,126,0
0,42,126,0
0,29,126,4
0,55,126,0
0,41,126,9
0,57,126,0
0,36,126,0
