track,note,velocity,time
0,38,125,96
0,38,115,188
0,46,115,188
0,59,95,188
0,30,121,0
0,36,125,0
0,42,75,0
0,30,115,108
0,42,65,0
0,30,123,108
0,36,115,0
0,38,115,0
0,42,55,0
0,30,103,108
0,42,65,0
0,30,121,0
0,36,120,0
0,42,60,0
0,52,110,0
0,30,117,108
0,42,65,0
0,30,127,108
0,36,115,0
0,38,115,0
0,42,55,0
0,30,105,108
0,42,65,0
0,59,105,108
0,30,123,0
0,36,125,0
0,42,75,0
0,30,127,108
0,42,65,0
0,30,127,108
0,36,115,0
0,38,115,0
0,42,55,0
0,30,111,108
0,42,65,0
0,30,121,84
0,36,120,0
0,42,60,0
0,52,110,0
0,30,127,108
0,42,65,0
0,30,127,108
0,36,115,0
0,38,115,0
0,42,55,0
0,30,127,108
0,42,65,0
0,59,87,108
0,30,113,0
0,36,125,0
0,42,75,0
0,30,103,108
0,42,65,0
0,30,125,0
0,36,115,0
0,38,115,0
0,42,55,0
0,30,127,0
0,42,65,0
0,30,127,108
0,36,120,0
0,42,60,0
0,52,110,0
0,30,125,108
0,42,65,0
0,30,127,108
0,36,115,0
0,38,115,0
0,42,55,0
0,30,127,108
0,42,65,0
0,30,127,108
0,38,125,0
0,59,107,12
0,38,125,0
0,30,127,92
0,36,125,0
0,36,125,12
0,30,103,92
0,38,115,0
0,57,85,12
0,52,115,0
0,30,101,92
0,30,127,76
0,30,127,0
0,38,125,0
0,30,109,108
0,38,115,0
0,78,104,108
0,66,91,0
0,78,78,0
0,66,96,0
0,54,101,0
0,78,114,0
0,30,127,0
0,38,125,0
0,49,115,0
0,30,127,108
0,36,125,0
0,42,75,0
0,49,115,0
0,30,127,108
0,42,65,0
0,76,119,8
0,64,89,0
0,76,75,0
0,64,100,0
0,52,105,0
0,76,127,0
0,30,117,0
0,38,115,0
0,42,55,0
0,30,101,8
0,42,65,0
0,75,114,108
0,63,95,0
0,75,81,0
0,63,96,0
0,51,94,0
0,75,125,0
0,30,111,0
0,36,120,0
0,42,60,0
0,73,122,8
0,61,94,0
0,73,73,0
0,61,91,0
0,49,91,0
0,73,119,0
0,30,111,0
0,42,65,0
0,30,105,8
0,38,115,0
0,42,55,0
0,66,111,108
0,54,99,0
0,66,83,0
0,54,95,0
0,42,92,0
0,66,127,0
0,30,107,0
0,42,65,0
0,76,101,8
0,64,100,0
0,76,87,0
0,64,91,0
0,52,107,0
0,76,118,0
0,30,115,0
0,36,125,0
0,42,75,0
0,66,111,8
0,54,105,0
0,66,78,0
0,54,104,0
0,42,97,0
0,66,127,0
0,30,127,0
0,42,65,0
0,75,118,8
0,63,104,0
0,75,88,0
0,63,96,0
0,51,103,0
0,75,111,0
0,30,101,0
0,38,115,0
0,42,55,0
0,76,102,8
0,64,83,0
0,76,75,0
0,64,100,0
0,52,107,0
0,76,124,0
0,30,127,0
0,42,65,0
0,73,112,8
0,61,105,0
0,73,72,0
0,61,100,0
0,49,99,0
0,73,115,0
0,30,127,0
0,36,120,0
0,42,60,0
0,66,112,8
0,54,105,0
0,66,80,0
0,54,98,0
0,42,100,0
0,66,127,0
0,30,103,0
0,42,65,0
0,69,102,8
0,57,105,0
0,69,76,0
0,57,97,0
0,45,95,0
0,69,115,0
0,30,117,0
0,38,115,0
0,42,55,0
0,74,102,8
0,62,93,0
0,74,86,0
0,62,97,0
0,50,95,0
0,74,125,0
0,33,127,0
0,42,65,0
0,33,103,108
0,36,125,0
0,42,75,0
0,33,113,108
0,42,65,0
0,73,106,8
0,61,85,0
0,73,71,0
0,61,104,0
0,49,93,0
0,73,113,0
0,33,127,0
0,38,115,0
0,42,55,0
0,33,107,8
0,42,65,0
0,71,124,108
0,59,87,0
0,71,80,0
0,59,102,0
0,47,97,0
0,71,121,0
0,35,113,0
0,36,120,0
0,42,60,0
0,69,101,8
0,57,106,0
0,69,88,0
0,57,99,0
0,45,95,0
0,69,123,0
0,33,117,0
0,42,65,0
0,33,117,108
0,38,115,0
0,42,55,0
0,33,113,0
0,42,65,0
0,33,127,24
0,36,125,0
0,42,75,0
0,33,101,108
0,42,65,0
0,69,105,96
0,73,109,0
0,78,113,0
0,66,87,0
0,78,83,0
0,69,77,0
0,73,83,0
0,78,78,0
0,66,103,0
0,69,101,0
0,54,91,0
0,66,124,0
0,73,112,0
0,57,87,0
0,33,127,0
0,38,115,0
0,42,55,0
0,33,127,8
0,42,65,0
0,57,92,16
0,33,101,0
0,36,120,0
0,42,60,0
0,57,90,108
0,33,105,0
0,42,65,0
0,57,99,108
0,33,105,0
0,38,115,0
0,42,55,0
0,90,95,96
0,78,107,0
0,90,76,0
0,66,88,0
0,78,82,0
0,66,90,0
0,54,91,0
0,78,122,0
0,57,99,0
0,30,127,0
0,42,65,0
0,30,127,108
0,36,125,0
0,42,75,0
0,30,127,96
0,42,65,0
0,88,89,8
0,76,124,0
0,88,73,0
0,64,100,0
0,76,78,0
0,64,94,0
0,52,93,0
0,76,124,0
0,30,107,0
0,38,115,0
0,42,55,0
0,30,101,8
0,42,65,0
0,87,89,108
0,75,109,0
0,87,83,0
0,63,104,0
0,75,79,0
0,63,90,0
0,51,94,0
0,75,110,0
0,30,127,0
0,36,120,0
0,42,60,0
0,85,92,8
0,73,100,0
0,85,70,0
0,61,91,0
0,73,72,0
0,61,93,0
0,49,91,0
0,73,118,0
0,30,127,0
0,42,65,0
0,30,127,8
0,38,115,0
0,42,55,0
0,78,99,108
0,66,109,0
0,78,78,0
0,54,98,0
0,66,73,0
0,54,102,0
0,42,96,0
0,66,117,0
0,30,127,0
0,42,65,0
0,88,103,8
0,76,104,0
0,88,72,0
0,64,92,0
0,76,87,0
0,64,91,0
0,52,100,0
0,76,119,0
0,30,127,0
0,36,125,0
0,42,75,0
0,78,92,8
0,66,123,0
0,78,70,0
0,54,106,0
0,66,88,0
0,54,102,0
0,42,104,0
0,66,119,0
0,30,127,0
0,42,65,0
0,87,95,8
0,75,117,0
0,87,83,0
0,63,90,0
0,75,77,0
0,63,99,0
0,51,103,0
0,75,125,0
0,30,127,0
0,38,115,0
0,42,55,0
0,88,90,8
0,76,121,0
0,88,76,0
0,64,86,0
0,76,75,0
0,64,89,0
0,52,106,0
0,76,112,0
0,30,117,0
0,42,65,0
0,85,85,8
0,73,101,0
0,85,83,0
0,61,89,0
0,73,78,0
0,61,92,0
0,49,96,0
0,73,122,0
0,30,127,0
0,36,120,0
0,42,60,0
0,78,102,8
0,66,108,0
0,78,82,0
0,54,83,0
0,66,81,0
0,54,93,0
0,42,107,0
0,66,122,0
0,30,123,0
0,42,65,0
0,81,102,8
0,69,117,0
0,81,72,0
0,57,102,0
0,69,90,0
0,57,104,0
0,45,95,0
0,69,126,0
0,30,127,0
0,38,115,0
0,42,55,0
0,86,87,8
0,74,118,0
0,86,82,0
0,62,88,0
0,74,83,0
0,62,96,0
0,50,95,0
0,74,121,0
0,33,127,0
0,42,65,0
0,33,121,108
0,36,125,0
0,42,75,0
0,33,127,108
0,42,65,0
0,85,86,8
0,73,113,0
0,85,72,0
0,61,98,0
0,73,90,0
0,61,87,0
0,49,103,0
0,73,111,0
0,33,127,0
0,38,115,0
0,42,55,0
0,33,127,8
0,42,65,0
0,83,89,108
0,71,112,0
0,83,79,0
0,59,87,0
0,71,87,0
0,59,104,0
0,47,102,0
0,71,124,0
0,33,125,0
0,36,120,0
0,42,60,0
0,81,99,8
0,69,117,0
0,81,76,0
0,57,87,0
0,69,76,0
0,57,91,0
0,45,100,0
0,69,122,0
0,33,127,0
0,42,65,0
0,33,111,108
0,38,115,0
0,42,55,0
0,28,125,104
0,42,65,0
0,28,127,108
0,36,125,0
0,42,75,0
0,28,127,108
0,42,65,0
0,28,105,108
0,38,115,0
0,42,55,0
0,28,111,108
0,42,65,0
0,28,127,108
0,36,120,0
0,42,60,0
0,28,127,108
0,42,65,0
0,28,127,108
0,38,115,0
0,42,55,0
0,34,103,96
0,42,65,0
0,61,116,0
0,66,121,0
0,70,125,0
0,73,127,0
0,37,121,0
0,36,125,0
0,42,75,0
0,39,127,104
0,42,65,0
0,32,125,108
0,36,115,0
0,38,115,0
0,42,55,0
0,58,111,104
0,61,127,0
0,65,127,0
0,68,127,0
0,34,127,0
0,42,65,0
0,37,127,104
0,36,120,0
0,42,60,0
0,34,123,108
0,42,65,0
0,32,117,108
0,36,115,0
0,38,115,0
0,42,55,0
0,34,107,108
0,42,65,0
0,36,125,108
0,42,75,0
0,34,117,8
0,42,65,0
0,32,127,108
0,36,115,0
0,38,115,0
0,42,55,0
0,34,127,108
0,42,65,0
0,58,101,108
0,36,120,0
0,42,60,0
0,56,110,8
0,34,121,0
0,42,65,0
0,54,113,8
0,32,117,0
0,36,115,0
0,38,115,0
0,42,55,0
0,34,101,108
0,42,65,0
0,53,124,104
0,61,127,0
0,65,113,0
0,68,127,0
0,37,127,0
0,36,125,0
0,42,75,0
0,42,127,104
0,42,65,0
0,41,127,108
0,36,115,0
0,38,115,0
0,42,55,0
0,49,122,104
0,61,115,0
0,63,127,0
0,66,127,0
0,39,103,0
0,42,65,0
0,41,115,104
0,36,120,0
0,42,60,0
0,46,111,8
0,34,103,0
0,42,65,0
0,51,109,8
0,37,107,0
0,36,115,0
0,38,115,0
0,42,55,0
0,39,111,12
0,42,65,0
0,36,125,108
0,42,75,0
0,39,127,188
0,42,65,0
0,37,105,108
0,36,115,0
0,38,115,0
0,42,55,0
0,39,127,8
0,42,65,0
0,36,120,108
0,42,60,0
0,39,109,188
0,42,65,0
0,37,113,108
0,36,115,0
0,38,115,0
0,42,55,0
0,34,127,12
0,42,65,0
0,61,107,0
0,66,112,0
0,70,114,0
0,73,126,0
0,37,127,0
0,36,125,0
0,42,75,0
0,39,127,104
0,42,65,0
0,32,111,108
0,36,115,0
0,38,115,0
0,42,55,0
0,58,102,104
0,61,127,0
0,65,115,0
0,68,127,0
0,34,115,0
0,42,65,0
0,37,103,104
0,36,120,0
0,42,60,0
0,34,127,108
0,42,65,0
0,32,123,108
0,36,115,0
0,38,115,0
0,42,55,0
0,34,127,108
0,42,65,0
0,36,125,108
0,42,75,0
0,34,105,188
0,42,65,0
0,32,119,104
0,36,115,0
0,38,115,0
0,42,55,0
0,34,113,108
0,42,65,0
0,58,113,108
0,36,120,0
0,42,60,0
0,56,120,8
0,34,101,0
0,42,65,0
0,61,100,0
0,32,127,0
0,36,115,0
0,38,115,0
0,42,55,0
0,56,100,8
0,34,109,0
0,42,65,0
0,61,127,108
0,65,122,0
0,68,121,0
0,37,105,0
0,36,125,0
0,42,75,0
0,54,114,8
0,42,127,0
0,42,65,0
0,41,127,108
0,36,115,0
0,38,115,0
0,42,55,0
0,68,95,108
0,61,119,0
0,63,127,0
0,66,116,0
0,39,103,0
0,42,65,0
0,41,113,104
0,36,120,0
0,42,60,0
0,34,117,108
0,42,65,0
0,37,127,12
0,36,115,0
0,38,115,0
0,42,55,0
0,39,103,12
0,42,65,0
0,70,99,8
0,73,96,0
0,77,96,0
0,36,125,0
0,42,75,0
0,68,93,92
0,39,119,8
0,42,65,0
0,37,127,108
0,36,115,0
0,38,115,0
0,42,55,0
0,66,88,8
0,70,102,0
0,73,95,0
0,39,123,0
0,42,65,0
0,36,120,52
0,42,60,0
0,39,127,188
0,42,65,0
0,57,92,108
0,37,105,0
0,36,115,0
0,38,115,0
0,42,55,0
0,34,109,12
0,42,65,0
0,61,121,108
0,66,75,0
0,70,70,0
0,73,60,0
0,37,127,0
0,36,125,0
0,42,75,0
0,39,127,8
0,42,65,0
0,32,101,108
0,36,115,0
0,38,115,0
0,42,55,0
0,58,119,104
0,65,69,0
0,68,84,0
0,70,81,0
0,68,104,0
0,70,86,0
0,34,127,0
0,42,65,0
0,68,98,104
0,70,95,0
0,37,127,0
0,36,120,0
0,42,60,0
0,34,127,104
0,42,65,0
0,65,79,104
0,68,68,0
0,70,80,0
0,68,100,0
0,70,100,0
0,32,111,0
0,36,115,0
0,38,115,0
0,42,55,0
0,34,101,108
0,42,65,0
0,71,90,104
0,36,125,0
0,42,75,0
0,34,121,188
0,42,65,0
0,65,82,104
0,68,78,0
0,70,65,0
0,68,92,0
0,70,95,0
0,32,125,0
0,36,115,0
0,38,115,0
0,42,55,0
0,34,127,108
0,42,65,0
0,63,100,104
0,36,120,0
0,42,60,0
0,52,110,0
0,34,127,144
0,42,65,0
0,65,117,8
0,32,127,108
0,36,115,0
0,38,115,0
0,42,55,0
0,66,112,0
0,34,105,4
0,42,65,0
0,65,106,8
0,61,63,0
0,65,68,0
0,68,60,0
0,37,127,0
0,36,125,0
0,42,75,0
0,42,127,8
0,42,65,0
0,41,117,108
0,36,115,0
0,38,115,0
0,42,55,0
0,61,104,8
0,61,72,0
0,63,63,0
0,66,68,0
0,39,109,0
0,42,65,0
0,41,113,108
0,36,120,0
0,42,60,0
0,58,123,8
0,61,68,0
0,63,70,0
0,66,84,0
0,34,125,0
0,42,65,0
0,63,108,8
0,61,65,0
0,63,69,0
0,66,75,0
0,37,113,0
0,36,115,0
0,38,115,0
0,42,55,0
0,61,71,8
0,63,60,0
0,66,81,0
0,39,117,0
0,42,65,0
0,36,125,104
0,42,75,0
0,39,111,188
0,42,65,0
0,37,107,108
0,36,115,0
0,38,115,0
0,42,55,0
0,39,127,104
0,42,65,0
0,75,120,108
0,78,108,0
0,36,120,0
0,42,60,0
0,75,120,104
0,78,116,0
0,39,101,0
0,42,65,0
0,73,101,104
0,77,104,0
0,37,127,0
0,36,115,0
0,38,115,0
0,42,55,0
0,70,119,12
0,73,109,0
0,34,127,0
0,42,65,0
0,61,105,0
0,70,83,0
0,73,77,0
0,63,88,0
0,66,114,0
0,70,115,0
0,73,126,0
0,37,117,0
0,36,125,0
0,42,75,0
0,39,127,8
0,42,65,0
0,58,115,8
0,66,79,0
0,70,77,0
0,63,89,0
0,65,113,0
0,68,118,0
0,70,115,0
0,32,127,0
0,36,115,0
0,38,115,0
0,42,55,0
0,51,105,0
0,34,119,8
0,42,65,0
0,66,62,108
0,70,70,0
0,73,69,0
0,73,79,0
0,78,79,0
0,75,93,0
0,81,98,0
0,37,127,0
0,36,120,0
0,42,60,0
0,81,98,8
0,81,93,8
0,34,113,0
0,42,65,0
0,81,86,12
0,77,80,92
0,80,62,0
0,82,65,0
0,77,71,0
0,82,74,0
0,87,96,0
0,81,90,0
0,32,107,0
0,36,115,0
0,38,115,0
0,42,55,0
0,34,103,12
0,42,65,0
0,71,96,108
0,65,89,0
0,68,94,0
0,70,99,0
0,61,88,0
0,65,85,0
0,36,125,0
0,42,75,0
0,34,117,188
0,42,65,0
0,32,121,108
0,36,115,0
0,38,115,0
0,42,55,0
0,65,96,8
0,68,102,0
0,70,88,0
0,61,110,0
0,65,100,0
0,34,101,0
0,42,65,0
0,58,111,104
0,36,120,0
0,42,60,0
0,61,112,8
0,34,123,0
0,42,65,0
0,58,103,8
0,32,101,0
0,36,115,0
0,38,115,0
0,42,55,0
0,63,110,0
0,34,123,0
0,42,65,0
0,65,110,108
0,68,118,0
0,70,127,0
0,37,123,0
0,36,125,0
0,42,75,0
0,61,123,8
0,42,115,0
0,42,65,0
0,41,127,12
0,36,115,0
0,38,115,0
0,42,55,0
0,68,126,108
0,70,121,0
0,75,122,0
0,39,111,0
0,42,65,0
0,41,107,104
0,36,120,0
0,42,60,0
0,58,118,12
0,34,127,0
0,42,65,0
0,61,123,8
0,37,105,0
0,36,115,0
0,38,115,0
0,42,55,0
0,63,110,8
0,66,59,0
0,78,62,0
0,66,61,0
0,66,87,0
0,40,103,0
0,42,65,0
0,68,56,8
0,80,63,0
0,68,60,0
0,68,83,0
0,36,125,0
0,42,75,0
0,61,100,8
0,66,49,0
0,78,55,0
0,66,68,0
0,66,86,0
0,40,115,0
0,42,65,0
0,73,53,8
0,85,46,0
0,73,82,0
0,73,85,0
0,40,123,0
0,36,115,0
0,38,115,0
0,42,55,0
0,59,101,8
