track,note,velocity,time
1,69,121,50724
1,67,120,164
1,72,120,4
1,69,120,120
1,74,120,4
1,74,117,96
1,69,117,4
1,72,115,130
1,77,115,4
1,74,115,92
1,79,115,6
1,74,127,104
1,68,127,6
1,79,127,0
1,69,103,5908
1,84,103,0
1,76,103,0
1,81,103,0
1,83,103,768
1,79,103,0
1,74,103,0
1,64,103,24
1,81,103,672
1,72,103,0
1,77,103,0
1,65,103,4
1,60,103,720
1,76,103,30
1,71,103,0
1,79,103,0
1,69,102,16
1,74,102,0
1,77,102,0
1,62,102,10
1,76,102,670
1,72,102,0
1,67,102,0
1,60,102,0
1,75,102,22
1,66,102,0
1,71,102,0
1,59,102,16
1,68,102,0
1,71,102,0
1,76,102,0
1,64,102,30
1,69,102,10
1,84,102,0
1,76,102,0
1,81,102,0
1,83,102,766
1,79,102,0
1,74,102,0
1,64,100,22
1,65,100,670
1,77,100,0
1,72,100,0
1,81,100,0
1,60,100,720
1,76,100,30
1,71,100,0
1,79,100,0
1,69,100,16
1,74,100,0
1,77,100,0
1,62,100,14
1,67,100,668
1,72,100,0
1,76,100,0
1,60,100,0
1,75,100,22
1,66,100,0
1,71,100,0
1,59,100,16
1,68,118,4
1,71,118,0
1,76,118,0
1,64,118,30
1,73,117,10
1,69,117,0
1,76,117,0
1,70,120,1532
1,77,120,0
1,74,120,0
1,76,123,1510
1,72,123,0
1,79,123,0
1,77,126,1532
1,81,126,0
1,74,126,0
1,76,127,1454
1,83,127,0
1,79,127,0
1,84,127,1484
1,81,127,0
1,79,127,734
1,86,127,0
1,83,127,0
1,88,127,764
1,85,127,0
1,81,127,0
1,69,127,24582
1,67,127,164
1,72,127,4
1,69,127,120
1,74,127,4
1,74,127,92
1,69,127,4
1,72,127,130
1,77,127,2
1,74,127,92
1,79,127,4
1,74,127,106
1,68,127,6
1,79,127,0
1,69,108,5908
1,84,108,0
1,76,108,0
1,81,108,0
1,74,108,766
1,79,108,0
1,83,108,0
1,64,108,22
1,65,106,668
1,77,106,0
1,72,106,0
1,81,106,0
1,60,105,722
1,79,105,0
1,71,105,0
1,76,105,0
1,69,105,16
1,74,105,0
1,77,105,0
1,62,105,12
1,67,103,668
1,72,103,0
1,76,103,0
1,60,103,2
1,75,102,22
1,66,102,0
1,71,102,0
1,59,102,16
1,68,102,4
1,71,102,0
1,76,102,0
1,64,102,26
1,69,100,8
1,84,100,0
1,76,100,0
1,81,100,0
1,74,100,764
1,79,100,0
1,83,100,0
1,64,100,22
1,65,99,668
1,77,99,0
1,72,99,0
1,81,99,0
1,60,97,722
1,76,97,30
1,71,97,0
1,79,97,0
1,69,97,16
1,74,97,0
1,77,97,0
1,62,97,12
1,67,96,668
1,72,96,0
1,76,96,0
1,60,96,0
1,75,96,22
1,66,96,0
1,71,96,0
1,59,96,16
1,68,118,2
1,71,118,0
1,76,118,0
1,64,118,32
1,73,99,10
1,69,99,0
1,76,99,0
1,70,102,1532
1,77,102,0
1,74,102,0
1,76,103,1510
1,72,103,0
1,79,103,0
1,77,106,1532
1,81,106,0
1,74,106,0
1,76,108,1456
1,83,108,0
1,79,108,0
1,84,111,1486
1,77,111,0
1,81,111,0
1,79,111,732
1,86,111,0
1,83,111,0
1,88,112,764
1,85,112,0
1,81,112,0
1,69,127,24580
1,67,127,164
1,72,127,6
1,69,127,118
1,74,127,4
1,74,127,92
1,69,127,4
1,72,127,128
1,77,127,2
1,74,127,92
1,79,127,4
1,74,127,106
1,68,127,6
1,79,127,0
1,81,127,5908
1,76,127,0
1,76,127,94
1,81,127,2
1,76,127,92
1,81,127,0
1,76,127,92
1,81,127,2
1,81,127,94
1,76,127,0
1,81,127,94
1,76,127,0
1,81,127,92
1,76,127,0
1,76,127,94
1,81,127,2
1,84,127,94
1,79,127,0
1,76,127,382
1,81,127,0
1,81,127,94
1,76,127,0
1,76,127,94
1,81,127,0
1,76,127,92
1,81,127,2
1,76,127,94
1,81,127,2
1,81,127,92
1,76,127,0
1,86,127,92
1,81,127,0
1,79,127,94
1,84,127,2
1,81,127,94
1,76,127,0
1,81,127,94
1,76,127,0
1,76,127,94
1,81,127,2
1,76,127,92
1,81,127,0
1,81,127,92
1,76,127,0
1,76,127,92
1,81,127,2
1,81,127,94
1,76,127,0
1,81,127,94
1,76,127,0
1,76,127,94
1,81,127,2
1,84,127,94
1,79,127,0
1,81,127,94
1,76,127,0
1,81,127,94
1,76,127,0
1,76,127,94
1,81,127,0
1,76,127,94
1,81,127,0
1,76,127,94
1,81,127,2
1,76,127,92
1,81,127,0
1,81,127,94
1,86,127,0
1,84,127,94
1,79,127,0
1,76,127,94
1,81,127,2
1,88,127,94
1,83,127,0
1,86,127,382
1,81,127,0
1,84,127,380
1,79,127,0
1,81,127,94
1,76,127,0
1,74,127,94
1,79,127,2
1,88,127,286
1,83,127,0
1,86,127,382
1,81,127,0
1,84,127,380
1,79,127,0
1,76,127,94
1,81,127,2
1,79,127,94
1,74,127,0
1,81,127,286
1,76,127,0
1,83,127,286
1,78,127,0
1,84,127,286
1,79,127,0
1,86,127,382
1,81,127,0
1,88,127,382
1,83,127,0
1,89,127,382
1,84,127,0
1,91,127,382
1,86,127,0
1,88,127,382
1,93,127,2
1,86,48,22
1,84,127,64
1,83,127,24
1,81,127,14
1,79,127,10
1,77,127,8
1,76,127,8
1,74,127,10
1,72,127,10
1,71,127,12
1,69,127,8
1,67,127,8
1,65,127,0
1,64,127,8
1,69,127,64468
1,81,127,0
1,76,127,0
1,73,127,0
2,28,127,7274
2,33,127,18
2,28,127,5520
2,33,127,0
2,28,124,4496
2,30,100,214
2,31,112,212
2,32,83,152
2,33,124,0
2,45,127,4034
2,45,127,30
2,48,127,30
2,45,127,192
2,43,127,168
2,40,127,10
2,38,127,28
2,36,127,32
2,33,127,70
2,33,127,186
2,33,126,118
2,31,113,144
2,31,110,42
2,31,127,28
2,33,127,36
2,33,127,2
2,33,127,0
2,33,127,54
2,40,127,578
2,40,127,66
2,40,127,80
2,41,127,214
2,28,127,576
2,36,127,166
2,34,127,576
2,34,127,48
2,34,127,80
2,40,107,4
2,40,127,176
2,28,127,384
2,33,127,350
2,33,127,186
2,33,126,118
2,31,113,144
2,31,110,42
2,31,127,28
2,33,127,38
2,33,127,2
2,33,127,0
2,33,127,56
2,40,127,574
2,40,127,66
2,40,127,80
2,41,127,214
2,28,127,576
2,38,127,168
2,34,127,576
2,34,127,50
2,35,127,80
2,28,107,4
2,40,127,178
2,28,127,384
2,33,127,368
2,33,127,186
2,33,126,118
2,31,113,144
2,31,110,42
2,31,127,28
2,33,127,36
2,33,127,2
2,33,127,0
2,33,127,56
2,40,127,66
2,40,127,80
2,41,127,214
2,28,127,576
2,36,127,164
2,34,127,578
2,34,127,50
2,34,127,78
2,40,107,4
2,40,127,176
2,28,127,384
2,33,127,350
2,33,127,186
2,33,126,118
2,31,113,144
2,31,110,42
2,31,127,28
2,33,127,36
2,33,127,2
2,33,127,2
2,33,127,56
2,40,127,576
2,40,127,68
2,40,127,80
2,41,127,212
2,28,127,576
2,38,127,168
2,34,127,574
2,34,127,48
2,35,127,78
2,28,107,2
2,40,127,176
2,28,127,382
2,33,127,360
2,36,127,82
2,38,127,166
2,26,127,1346
2,26,127,86
2,26,127,2
2,38,127,162
2,41,127,156
2,43,127,34
2,40,127,36
2,28,112,4544
2,30,100,224
2,31,124,196
2,32,100,144
2,33,127,200
2,40,127,11522
2,45,127,384
2,33,127,0
2,33,127,392
2,33,127,92
2,45,127,22
2,45,127,4
2,45,127,0
2,43,127,0
2,40,127,2
2,39,127,16
2,38,127,36
2,36,127,192
2,33,127,46
2,33,127,186
2,33,126,118
2,31,113,144
2,31,110,42
2,31,127,28
2,33,127,38
2,33,127,2
2,33,127,2
2,33,127,56
2,40,127,576
2,40,127,66
2,40,127,80
2,41,127,218
2,28,127,574
2,36,127,166
2,34,127,576
2,34,127,48
2,34,127,80
2,40,107,6
2,40,127,176
2,28,127,384
2,33,127,350
2,33,127,186
2,33,126,116
2,31,113,144
2,31,110,42
2,31,127,28
2,33,127,38
2,33,127,2
2,33,127,0
2,33,127,56
2,40,127,574
2,40,127,66
2,40,127,80
2,41,127,214
2,28,127,576
2,38,127,166
2,34,127,578
2,34,127,50
2,35,127,80
2,28,107,2
2,40,127,176
2,28,127,384
2,33,127,368
2,33,127,186
2,33,126,116
2,31,113,142
2,31,110,40
2,31,127,26
2,33,127,38
2,33,127,0
2,33,127,2
2,33,127,56
2,40,127,576
2,40,127,64
2,40,127,80
2,41,127,216
2,28,127,576
2,36,127,164
2,34,127,576
2,34,127,48
2,34,127,80
2,40,107,4
2,40,127,174
2,28,127,386
2,33,127,348
2,33,127,184
2,33,126,120
2,31,113,144
2,31,110,42
2,31,127,28
2,33,127,38
2,33,127,0
2,33,127,2
2,33,127,56
2,40,127,574
2,40,127,66
2,40,127,80
2,41,127,216
2,28,127,576
2,38,127,166
2,34,127,576
2,34,127,50
2,35,127,80
2,28,107,4
2,40,127,176
2,28,127,384
2,33,127,360
2,36,127,80
2,38,127,168
2,26,127,1344
2,26,127,88
2,26,127,2
2,38,127,162
2,41,127,158
2,43,127,34
2,40,127,38
2,33,127,5906
2,40,127,11522
2,45,127,384
2,33,127,0
2,33,127,392
2,33,127,92
2,45,127,22
2,45,127,14
2,45,127,0
2,43,127,0
2,40,127,0
2,39,127,14
2,38,127,36
2,36,127,190
2,33,127,44
2,33,127,186
2,33,126,118
2,31,113,144
2,31,110,42
2,31,127,28
2,33,127,36
2,33,127,2
2,33,127,2
2,33,127,54
2,40,127,576
2,40,127,66
2,40,127,80
2,41,127,214
2,28,127,574
2,36,127,168
2,34,127,576
2,34,127,50
2,34,127,78
2,40,107,6
2,40,127,176
2,28,127,384
2,33,127,350
2,33,127,186
2,33,126,118
2,31,113,142
2,31,110,42
2,31,127,28
2,33,127,40
2,33,127,4
2,33,127,2
2,33,127,56
2,40,127,576
2,40,127,66
2,40,127,80
2,41,127,212
2,28,127,578
2,38,127,164
2,34,127,578
2,34,127,50
2,35,127,80
2,28,107,2
2,40,127,176
2,28,127,386
2,33,127,372
2,33,127,184
2,33,126,116
2,31,113,142
2,31,110,40
2,31,127,28
2,33,127,40
2,33,127,0
2,33,127,2
2,33,127,56
2,40,127,574
2,40,127,64
2,40,127,78
2,41,127,216
2,28,127,576
2,36,127,168
2,34,127,576
2,34,127,50
2,34,127,80
2,40,107,4
2,40,127,176
2,28,127,384
2,33,127,350
2,33,127,186
2,33,126,116
2,31,113,144
2,31,110,42
2,31,127,28
2,33,127,38
2,33,127,2
2,33,127,0
2,33,127,56
2,40,127,576
2,40,127,66
2,40,127,80
2,41,127,214
2,28,127,576
2,38,127,168
2,34,127,574
2,34,127,50
2,35,127,80
2,28,107,4
2,40,127,176
2,28,127,386
2,33,127,362
2,36,127,80
2,38,127,168
2,26,127,1342
2,26,127,88
2,26,127,0
2,38,127,164
2,41,127,158
2,43,127,34
2,40,127,38
2,33,127,5906
2,33,127,39716
2,28,127,2140
2,28,127,80
2,31,127,24
2,32,127,190
2,33,127,118
2,33,127,186
2,33,126,120
2,31,113,146
2,31,110,44
2,31,127,28
2,33,127,36
2,33,127,2
2,33,127,2
2,33,127,56
2,40,127,576
2,40,127,66
2,40,127,80
2,41,127,214
2,28,127,576
2,36,127,168
2,34,127,576
2,34,127,50
2,34,127,80
2,40,107,4
2,40,127,176
2,28,127,384
2,33,127,350
2,33,127,186
2,33,126,118
2,31,113,146
2,31,110,42
2,31,127,28
2,33,127,38
2,33,127,2
2,33,127,2
2,33,127,56
2,40,127,576
2,40,127,66
2,40,127,80
2,41,127,216
2,28,127,576
2,38,127,168
2,34,127,576
2,34,127,50
2,35,127,80
2,28,107,4
2,40,127,176
2,28,127,384
2,33,127,368
2,33,127,186
2,33,126,118
2,31,113,144
2,31,110,44
2,31,127,28
2,33,127,38
2,33,127,2
2,33,127,2
2,33,127,56
2,40,127,576
2,40,127,68
2,40,127,80
2,41,127,214
2,28,127,576
2,36,127,168
2,34,127,576
2,34,127,48
2,34,127,80
2,40,107,4
2,40,127,176
2,28,127,384
2,33,127,350
2,33,127,186
2,33,126,116
2,31,113,144
2,31,110,42
2,31,127,28
2,33,127,40
2,33,127,2
2,33,127,0
2,33,127,56
2,40,127,576
2,40,127,66
2,40,127,80
2,41,127,214
2,28,127,576
2,38,127,168
2,34,127,576
2,34,127,50
2,35,127,80
2,28,107,4
2,40,127,176
2,28,127,384
2,33,127,358
2,36,127,82
2,38,127,166
2,26,127,1344
2,26,127,88
2,26,127,102
2,38,127,80
2,41,127,158
2,43,127,312
2,40,127,38
2,28,127,4176
2,29,127,210
2,30,127,206
2,31,127,200
2,32,127,22
2,33,127,64
3,43,118,1514
3,45,118,190
3,45,118,190
3,45,118,0
3,45,118,96
3,33,127,382
3,33,127,160
3,43,117,160
3,45,117,190
3,45,116,30
3,45,116,194
3,45,116,96
3,33,127,382
3,33,127,162
3,52,121,160
3,53,121,220
3,41,127,386
3,41,127,158
3,48,121,158
3,37,127,386
3,37,127,160
3,46,121,160
3,52,121,254
3,43,118,766
3,45,118,190
3,45,118,188
3,45,118,62
3,45,118,62
3,33,127,382
3,33,127,158
3,43,117,160
3,45,117,192
3,45,116,32
3,45,116,126
3,45,116,94
3,33,127,384
3,33,127,158
3,52,121,158
3,53,121,222
3,41,127,384
3,41,127,158
3,50,121,160
3,38,127,384
3,38,127,160
3,47,121,160
3,35,121,62
3,52,121,166
3,41,127,30
3,41,127,160
3,43,118,160
3,45,118,190
3,45,118,190
3,45,118,62
3,45,118,62
3,33,127,384
3,33,127,160
3,43,117,160
3,45,117,190
3,45,116,30
3,45,116,126
3,45,116,94
3,33,127,386
3,33,127,160
3,52,121,160
3,53,121,222
3,41,127,384
3,41,127,158
3,48,121,158
3,37,127,386
3,37,127,160
3,46,121,160
3,52,121,254
3,43,118,766
3,45,118,190
3,45,118,190
3,45,118,64
3,45,118,64
3,33,127,382
3,33,127,162
3,43,117,160
3,45,117,0
3,45,116,30
3,45,116,124
3,45,116,94
3,33,127,384
3,33,127,158
3,52,121,160
3,53,121,222
3,41,127,384
3,41,127,158
3,50,121,160
3,38,127,384
3,38,127,160
3,47,121,160
3,35,121,62
3,52,121,166
3,41,127,30
3,41,127,160
3,62,90,160
3,43,118,0
3,64,90,190
3,45,118,0
3,64,90,188
3,45,118,0
3,64,90,62
3,45,118,0
3,64,90,60
3,45,118,0
3,33,127,380
3,33,127,160
3,62,90,160
3,43,117,0
3,64,90,190
3,45,117,0
3,64,90,30
3,45,116,0
3,64,90,124
3,45,116,0
3,64,90,92
3,45,116,0
3,33,127,382
3,33,127,160
3,52,121,160
3,53,121,222
3,41,127,384
3,41,127,158
3,48,121,160
3,37,127,384
3,37,127,160
3,46,121,160
3,52,121,254
3,62,90,768
3,43,118,0
3,64,90,188
3,45,118,0
3,64,90,190
3,45,118,0
3,64,90,62
3,45,118,0
3,64,90,62
3,45,118,0
3,33,127,380
3,33,127,160
3,62,90,160
3,43,117,0
3,64,90,190
3,45,117,0
3,64,90,30
3,45,116,0
3,64,90,126
3,45,116,0
3,64,90,94
3,45,116,0
3,33,127,382
3,33,127,158
3,52,121,160
3,53,121,222
3,41,127,384
3,41,127,158
3,50,121,160
3,38,127,384
3,38,127,160
3,47,121,160
3,35,121,62
3,52,121,166
3,41,127,30
3,41,127,160
3,62,90,160
3,43,118,0
3,64,90,190
3,45,118,0
3,64,90,188
3,45,118,0
3,64,90,60
3,45,118,0
3,64,90,62
3,45,118,0
3,33,127,380
3,33,127,160
3,62,90,160
3,43,117,0
3,64,90,190
3,45,117,0
3,64,90,30
3,45,116,0
3,64,90,124
3,45,116,0
3,64,90,94
3,45,116,0
3,33,127,384
3,33,127,158
3,52,121,160
3,53,121,222
3,41,127,384
3,41,127,158
3,48,121,158
3,37,127,386
3,37,127,160
3,46,121,158
3,52,121,254
3,43,118,768
3,62,90,0
3,64,90,186
3,45,118,0
3,45,118,192
