track,note,velocity,time
1,40,124,13416
1,40,112,382
1,35,124,0
1,48,100,190
1,45,100,94
1,41,93,94
1,35,124,0
1,40,64,2676
1,40,125,40
1,40,124,2654
1,40,112,382
1,35,124,0
1,45,100,190
1,48,100,0
1,45,100,94
1,49,116,94
1,35,124,0
1,45,100,382
1,40,124,1966
1,45,127,384
1,35,112,524
1,40,124,190
1,41,104,958
1,45,127,22
1,35,112,358
1,40,124,190
1,40,112,190
1,40,112,190
1,35,124,0
1,40,124,190
1,40,124,190
1,40,112,190
1,49,116,190
1,35,124,0
1,46,116,382
1,40,112,0
1,35,112,190
1,46,83,190
1,35,112,0
1,46,116,382
1,40,124,0
1,46,100,382
1,35,112,0
1,46,83,382
1,40,124,0
1,35,112,190
1,46,116,190
1,35,112,0
1,46,100,382
1,40,124,0
1,46,95,382
1,35,124,0
1,46,124,382
1,40,124,0
1,46,112,382
1,35,95,190
1,46,112,190
1,40,124,0
1,46,112,382
1,35,95,190
1,46,112,190
1,40,124,0
1,49,116,382
1,35,124,0
1,46,95,382
1,40,124,0
1,49,116,382
1,35,124,0
1,51,100,382
1,40,124,0
1,35,80,382
1,35,95,190
1,46,124,190
1,40,112,0
1,46,68,382
1,35,112,0
1,46,112,382
1,40,124,0
1,46,112,382
1,35,59,0
1,35,68,190
1,46,124,190
1,40,112,0
1,46,95,382
1,35,124,0
1,46,124,382
1,40,124,0
1,46,112,382
1,35,95,190
1,46,112,190
1,40,124,0
1,46,112,382
1,35,95,190
1,46,112,190
1,40,124,0
1,49,116,382
1,35,124,0
1,46,95,382
1,40,124,0
1,49,116,382
1,35,124,0
1,46,116,382
1,40,112,0
1,35,112,190
1,46,83,190
1,35,112,0
1,46,116,382
1,40,124,0
1,46,100,382
1,35,112,0
1,46,83,382
1,40,124,0
1,35,112,190
1,46,116,190
1,35,112,0
1,46,100,382
1,40,124,0
1,46,95,382
1,35,124,0
1,46,124,382
1,40,124,0
1,46,112,382
1,35,95,190
1,46,112,190
1,40,124,0
1,46,112,382
1,35,95,190
1,46,112,190
1,40,124,0
1,49,116,382
1,35,124,0
1,46,95,382
1,40,124,0
1,49,116,382
1,40,124,0
1,51,100,382
1,35,124,0
1,40,124,190
1,35,80,190
1,46,124,382
1,40,112,0
1,46,68,382
1,35,112,0
1,46,112,382
1,40,124,0
1,46,112,382
1,35,59,0
1,35,68,190
1,46,124,190
1,40,112,0
1,46,95,382
1,35,124,0
1,46,124,382
1,40,124,0
1,46,112,382
1,35,95,190
1,46,112,190
1,40,124,0
1,46,112,382
1,35,95,190
1,46,112,190
1,40,124,0
1,49,116,382
1,35,124,0
1,46,95,382
1,40,124,0
1,49,116,382
1,35,112,0
1,40,112,382
1,49,116,190
1,35,112,0
1,40,95,382
1,49,100,190
1,35,124,0
1,40,95,574
1,40,112,382
1,40,124,190
1,35,124,0
1,40,124,190
1,48,100,190
1,48,100,190
1,49,116,190
1,35,124,0
1,40,124,382
1,49,116,190
1,35,124,0
1,40,80,382
1,49,116,190
1,35,112,0
1,40,124,382
1,48,127,190
1,45,116,382
1,45,116,382
1,41,93,190
1,45,116,382
1,35,112,0
1,45,52,190
1,45,80,190
1,45,59,190
1,41,101,190
1,45,112,0
1,45,52,190
1,45,43,190
1,45,80,190
1,41,101,190
1,45,124,0
1,45,39,190
1,45,112,190
1,41,89,190
1,45,124,0
1,45,39,190
1,45,59,190
1,41,101,190
1,45,112,0
1,45,59,190
1,41,89,190
1,45,124,0
1,45,59,190
1,45,95,190
1,45,68,190
1,45,95,190
1,41,89,190
1,45,112,0
1,45,43,190
1,45,52,190
1,41,101,190
1,45,112,0
1,35,95,0
1,45,47,190
1,45,95,190
1,35,112,0
1,41,101,190
1,45,124,0
1,45,95,190
1,35,112,0
1,41,89,190
1,45,124,0
1,41,89,190
1,45,112,0
1,35,112,0
1,41,89,190
1,35,95,0
1,41,93,190
1,35,112,0
1,51,48,766
1,51,54,766
1,51,48,766
1,51,61,766
1,51,61,766
1,51,71,766
1,51,71,766
1,51,71,766
1,51,61,766
1,51,71,766
1,51,83,766
1,51,71,766
1,51,83,766
1,51,71,766
1,51,100,766
1,40,80,382
1,41,76,190
1,41,77,110
1,49,116,78
1,35,124,0
1,51,71,766
1,51,100,766
1,51,100,766
1,49,100,766
1,35,95,0
1,51,83,766
1,51,100,766
1,51,100,766
1,35,59,574
1,49,116,190
1,35,112,0
1,51,83,766
1,51,116,766
1,35,95,0
1,51,61,382
1,51,61,382
1,35,112,0
1,51,61,382
1,49,116,382
1,35,112,0
1,35,95,382
1,35,80,382
1,35,95,382
1,41,89,382
1,40,112,0
1,35,112,0
1,41,101,382
1,40,112,0
1,35,124,0
1,41,101,382
1,40,124,0
1,35,124,0
1,40,95,190
1,41,101,190
1,40,124,0
1,35,124,0
1,40,115,190
1,49,116,190
1,35,124,0
1,51,116,382
1,40,112,0
1,35,80,190
1,51,116,190
1,35,112,0
1,51,116,382
1,40,112,0
1,51,116,382
1,35,112,0
1,51,116,382
1,40,112,0
1,35,112,190
1,51,100,190
1,35,124,0
1,51,116,382
1,40,112,0
1,51,100,382
1,35,112,0
1,51,100,382
1,40,112,0
1,51,100,382
1,35,112,190
1,51,100,190
1,40,112,0
1,51,116,382
1,35,112,190
1,51,116,190
1,40,112,0
1,51,100,382
1,35,124,0
1,51,116,382
1,40,124,0
1,35,112,190
1,49,116,190
1,35,112,0
1,51,116,382
1,40,112,0
1,51,116,382
1,35,124,0
1,51,116,382
1,40,124,0
1,51,100,382
1,35,124,0
1,35,112,190
1,51,116,190
1,40,124,0
1,51,116,382
1,35,124,0
1,51,100,382
1,40,112,0
1,51,116,382
1,35,124,0
1,49,116,382
1,40,112,0
1,51,116,382
1,35,124,190
1,49,100,190
1,40,124,0
1,51,116,382
1,35,124,190
1,51,116,190
1,40,112,0
1,51,116,382
1,35,124,0
1,40,112,190
1,51,100,190
1,40,95,0
1,40,112,190
1,49,100,190
1,35,112,0
1,51,116,382
1,40,112,0
1,51,116,382
1,35,112,0
1,35,68,190
1,51,116,190
1,40,95,0
1,51,116,382
1,35,124,0
1,51,116,382
1,40,112,0
1,35,112,190
1,51,116,190
1,35,124,0
1,51,100,382
1,40,124,0
1,51,100,382
1,35,124,0
1,51,116,382
1,40,124,0
1,51,100,382
1,35,112,190
1,49,100,190
1,40,124,0
1,51,100,382
1,35,112,190
1,51,116,190
1,40,112,0
1,51,100,382
1,35,124,0
1,49,116,382
1,40,124,0
1,35,112,190
1,49,116,190
1,35,124,0
1,51,100,382
1,40,124,0
1,51,100,382
1,35,112,0
1,35,112,190
1,51,116,190
1,40,112,0
1,51,116,382
1,35,124,0
1,51,116,382
1,40,124,0
1,35,112,190
1,51,100,190
1,35,112,0
1,51,100,382
1,40,124,0
1,51,100,382
1,35,112,0
1,49,100,382
1,40,112,0
1,51,116,382
1,35,68,190
1,51,116,190
1,40,124,0
1,51,100,382
1,35,112,190
1,51,116,190
1,40,124,0
1,51,116,382
1,35,124,0
1,40,95,190
1,51,116,190
1,40,112,0
1,40,112,190
1,49,116,190
1,40,124,0
1,35,127,0
1,40,112,382
1,35,127,0
1,40,95,190
1,35,127,190
1,51,100,190
1,40,104,0
1,40,112,190
1,35,127,0
1,51,116,190
1,51,100,190
1,35,127,0
1,40,59,190
1,51,116,190
1,40,112,0
1,35,127,0
1,51,116,382
1,40,100,0
1,35,127,0
1,40,112,190
1,51,116,190
1,41,89,0
1,35,127,0
1,41,89,190
1,49,100,190
1,40,112,0
1,35,127,0
1,51,116,382
1,35,127,0
1,40,124,190
1,51,116,190
1,35,127,0
1,51,116,382
1,40,124,0
1,35,127,0
1,51,100,382
1,35,127,0
1,40,55,238
1,40,57,46
1,40,58,46
1,51,60,46
1,40,60,0
1,35,127,0
1,40,61,46
1,40,63,46
1,40,64,46
1,40,66,46
1,40,67,46
1,40,69,46
1,40,70,46
1,51,72,46
1,40,72,0
1,35,127,0
1,40,73,46
1,40,75,46
1,40,76,46
1,40,78,46
1,40,79,46
1,40,81,46
1,40,82,46
1,51,84,46
1,40,84,0
1,35,127,0
1,40,85,46
1,40,87,46
1,40,88,46
1,40,90,46
1,40,91,46
1,40,93,46
1,40,94,46
1,40,112,46
1,35,112,0
1,40,22,94
1,40,52,94
1,35,59,0
1,40,95,94
1,40,112,94
1,35,112,0
1,40,47,94
1,40,59,94
1,35,68,0
1,40,95,94
1,40,112,94
1,35,124,0
1,40,39,94
1,40,59,94
1,35,112,0
1,40,80,94
1,40,124,94
1,35,124,0
1,40,43,94
1,40,68,94
1,35,80,0
1,40,68,94
1,40,124,94
1,35,124,0
1,40,52,94
1,40,68,94
1,35,112,0
1,40,68,94
1,40,112,94
1,35,124,0
1,40,59,94
1,40,68,94
1,35,112,0
1,40,80,94
1,40,112,94
1,35,112,0
1,40,59,94
1,40,59,94
1,35,112,0
1,40,112,94
1,40,124,94
1,35,124,0
1,40,39,94
1,40,59,94
1,35,95,0
1,40,124,94
1,41,101,94
1,35,124,0
1,40,47,94
1,40,52,94
1,35,112,0
1,40,112,94
1,40,112,94
1,35,124,0
1,40,19,94
1,48,95,94
1,35,112,0
1,40,47,94
1,40,68,94
1,35,124,0
1,40,95,94
1,40,124,94
1,35,112,0
1,40,59,94
1,45,124,94
1,35,112,0
1,40,80,94
1,40,68,94
1,35,112,0
1,40,112,94
1,40,124,94
1,35,124,0
1,40,68,94
1,48,95,94
1,35,95,0
1,40,95,94
1,40,112,94
1,35,112,0
1,40,112,94
1,48,59,94
1,35,112,0
1,48,112,94
1,48,112,94
1,35,124,0
1,45,124,94
1,45,124,94
1,35,59,0
1,45,124,94
1,41,101,94
1,35,124,0
1,41,72,94
1,41,101,94
1,41,89,94
1,41,93,94
1,35,112,0
1,51,48,766
1,51,54,766
1,51,48,766
1,51,61,766
1,51,61,766
1,51,61,766
1,48,8,318
1,48,17,0
1,48,18,0
1,48,20,0
1,48,23,0
1,48,26,0
1,48,31,0
1,48,37,0
1,48,46,0
1,48,52,0
1,48,61,0
1,48,61,0
1,48,64,0
1,48,61,0
1,48,43,0
1,48,34,0
1,48,29,0
1,48,23,0
1,48,20,0
1,51,96,0
1,51,61,704
1,51,71,766
1,51,83,766
1,51,71,766
1,51,83,766
1,51,71,766
1,51,100,766
1,40,80,382
1,41,76,190
1,41,77,110
1,49,116,78
1,35,124,0
1,51,71,766
1,51,100,766
1,51,100,766
1,49,100,766
1,35,95,0
1,51,83,766
1,51,100,766
1,51,100,766
1,35,59,574
1,49,116,190
1,35,112,0
1,51,83,766
1,51,116,766
1,35,95,0
1,51,61,382
1,51,61,382
1,35,112,0
1,51,61,382
1,49,116,382
1,35,112,0
1,35,95,382
1,35,80,382
1,35,95,382
1,41,89,382
1,40,112,0
1,35,112,0
1,41,101,382
1,40,112,0
1,35,124,0
1,41,101,382
1,40,124,0
1,35,124,0
1,40,95,190
1,41,101,190
1,40,124,0
1,35,124,0
1,40,115,190
1,49,116,190
1,35,124,0
1,51,100,382
1,40,124,0
1,35,80,382
1,35,95,190
1,46,124,190
1,40,112,0
1,46,68,382
1,35,112,0
1,46,112,382
1,40,124,0
1,46,112,382
1,35,59,0
1,35,68,190
1,46,124,190
1,40,112,0
1,46,95,382
1,35,124,0
1,46,124,382
1,40,124,0
1,46,112,382
1,35,95,190
1,46,112,190
1,40,124,0
1,46,112,382
1,35,95,190
1,46,112,190
1,40,124,0
1,49,116,382
1,35,124,0
1,46,95,382
1,40,124,0
1,49,116,382
1,35,124,0
1,51,100,382
1,40,124,0
1,35,80,382
1,35,95,190
1,46,124,190
1,40,112,0
1,46,68,382
1,35,112,0
1,46,112,382
1,40,124,0
1,46,112,382
1,35,59,0
1,35,68,190
1,46,124,190
1,40,112,0
1,46,95,382
1,35,124,0
1,46,124,382
1,40,124,0
1,46,112,382
1,35,95,190
1,46,112,190
1,40,124,0
1,46,112,382
1,35,95,190
1,46,112,190
1,40,124,0
1,49,116,382
1,35,124,0
1,46,95,382
1,40,124,0
1,49,116,382
1,35,124,0
1,51,100,382
1,40,124,0
1,35,80,382
1,35,95,190
1,46,124,190
1,40,112,0
1,46,68,382
1,35,112,0
1,46,112,382
1,40,124,0
1,46,112,382
1,35,59,0
1,35,68,190
1,46,124,190
1,40,112,0
1,46,95,382
1,35,124,0
1,46,124,382
1,40,124,0
1,46,112,382
1,35,95,190
1,46,112,190
1,40,124,0
1,46,112,382
1,35,95,190
1,46,112,190
1,40,124,0
1,49,116,382
1,35,124,0
1,46,95,382
1,40,124,0
1,49,116,382
1,35,124,0
1,51,100,382
1,40,124,0
1,35,80,382
1,35,95,190
1,46,124,190
1,40,112,0
1,46,68,382
1,35,112,0
1,46,112,382
1,40,124,0
1,46,112,382
1,35,59,0
1,35,68,190
1,46,124,190
1,40,112,0
1,46,95,382
1,35,124,0
1,46,124,382
1,40,124,0
1,46,112,382
1,35,95,190
1,46,112,190
1,40,124,0
1,46,112,382
1,35,95,190
1,46,112,190
1,40,124,0
1,49,116,382
1,35,124,0
1,46,95,382
1,40,124,0
1,49,116,382
1,35,112,0
1,40,112,382
1,52,116,190
1,35,112,0
1,40,95,382
1,49,100,190
1,35,124,0
1,40,95,574
1,40,112,382
1,40,124,190
1,35,124,0
1,40,124,190
1,48,100,190
1,48,100,190
1,52,116,190
1,35,124,0
1,40,124,382
1,49,116,190
1,35,124,0
1,40,80,382
1,52,116,190
1,35,112,0
1,40,124,382
1,48,127,190
1,45,116,382
1,45,116,382
1,41,93,190
1,49,119,382
1,35,115,0
1,40,39,94
1,40,32,94
1,35,115,0
1,40,47,94
1,40,124,94
1,35,115,0
1,40,47,94
1,45,116,94
1,35,115,0
1,40,43,94
1,40,68,94
1,35,115,0
1,40,47,94
1,40,124,94
1,35,115,0
1,40,43,94
1,48,116,94
1,35,115,0
1,40,47,94
1,40,124,94
1,35,115,0
1,40,59,94
1,48,116,94
1,35,115,0
1,40,22,94
1,40,43,94
1,35,115,0
1,40,52,94
1,40,124,94
1,35,115,0
1,45,44,94
1,45,116,94
1,35,115,0
1,40,47,94
1,40,80,94
1,35,115,0
1,40,68,94
1,40,112,94
1,35,115,0
1,40,52,94
1,40,112,94
1,35,115,0
1,40,47,94
1,40,112,94
1,35,115,0
1,45,100,94
1,45,127,94
1,35,115,0
1,40,30,94
1,40,80,94
1,35,115,0
1,40,68,94
1,40,112,94
1,35,115,0
1,40,52,94
1,48,116,94
1,35,115,0
1,40,39,94
1,40,80,94
1,35,115,0
1,40,52,94
1,40,112,94
1,35,115,0
1,40,68,94
1,45,116,94
1,35,115,0
1,40,30,94
1,40,95,94
1,35,115,0
1,40,68,94
1,48,116,94
1,35,115,0
1,40,32,94
1,40,95,94
1,35,115,0
1,45,116,94
1,40,43,94
1,35,115,0
1,40,80,94
1,41,93,94
1,35,115,0
1,40,68,94
1,35,115,94
1,41,64,94
1,41,71,94
1,35,115,0
1,41,77,94
1,41,84,94
1,35,115,0
1,41,90,94
1,41,97,94
1,35,115,0
1,41,103,94
1,41,110,94
1,40,112,0
1,35,115,0
1,42,54,382
1,42,54,382
1,42,48,382
1,42,61,382
1,42,54,382
1,42,54,382
1,42,54,382
1,42,54,382
1,42,61,382
1,42,61,382
1,42,61,382
1,42,61,382
1,42,54,382
1,42,61,382
1,42,54,382
1,42,83,382
1,42,54,382
1,42,61,382
1,42,61,382
1,42,83,382
1,42,48,382
1,42,54,382
1,42,61,382
1,42,71,382
1,42,61,382
1,42,71,382
1,42,71,382
1,42,61,382
1,42,61,382
1,42,71,382
1,42,61,382
1,42,54,382
1,42,54,382
1,42,54,382
1,42,54,382
1,42,61,382
1,42,54,382
1,42,61,382
1,42,71,382
1,49,100,382
1,35,124,0
1,41,77,382
1,40,124,574
1,48,116,574
1,45,116,574
1,41,93,382
1,41,77,190
1,41,93,190
1,49,116,190
1,35,124,0
1,51,100,382
1,40,124,0
1,35,80,382
1,35,95,190
1,46,124,190
1,40,112,0
