track,note,velocity,time
1,52,127,1712
1,52,0,48
1,50,127,48
1,50,0,208
1,50,127,20
1,50,0,64
1,47,127,24
1,47,0,68
1,45,127,28
1,45,0,228
1,33,127,32
1,33,0,68
1,35,127,28
1,35,0,224
1,36,127,64
1,36,0,472
1,48,127,8
1,36,127,96
1,48,0,16
1,36,0,124
1,35,127,52
1,35,0,620
1,33,127,148
1,45,127,384
1,33,0,4
1,45,0,332
1,31,127,48
1,31,0,376
1,43,127,8
1,43,0,96
1,31,127,0
1,31,0,248
1,38,127,40
1,38,0,488
1,38,127,88
1,38,0,44
1,38,127,52
1,38,0,80
1,33,127,16
1,33,0,368
1,45,127,16
1,33,127,96
1,45,0,12
1,33,0,84
1,45,127,0
1,45,0,176
1,31,127,16
1,31,0,372
1,43,127,12
1,31,127,192
1,43,0,4
1,31,0,140
1,33,127,48
1,33,0,328
1,33,127,56
1,33,0,300
1,35,127,84
1,35,0,460
1,42,127,20
1,42,0,72
1,35,127,24
1,35,0,136
1,35,127,56
1,35,0,364
1,30,127,20
1,30,0,164
1,35,127,28
1,35,0,164
1,31,127,28
1,43,127,480
1,31,0,4
1,38,127,92
1,43,0,4
1,38,0,80
1,43,127,12
1,43,0,80
1,31,127,16
1,43,127,384
1,31,0,4
1,43,0,168
1,31,127,20
1,31,0,160
1,38,127,32
1,38,0,504
1,38,127,72
1,38,0,172
1,33,127,20
1,33,0,384
1,45,127,0
1,33,127,96
1,45,0,16
1,33,0,172
1,45,127,4
1,45,0,96
1,31,127,0
1,29,127,0
1,29,0,16
1,43,127,368
1,31,0,8
1,43,0,172
1,31,127,12
1,31,0,144
1,33,127,48
1,33,0,288
1,45,127,0
1,33,127,192
1,45,0,12
1,33,0,84
1,45,127,0
1,45,0,80
1,38,127,112
1,38,0,372
1,50,127,12
1,38,127,288
1,50,0,8
1,38,0,64
1,36,127,24
1,36,0,192
1,48,127,0
1,36,127,96
1,48,0,4
1,36,0,84
1,48,127,8
1,48,0,92
1,31,127,4
1,31,0,224
1,38,127,64
1,38,0,352
1,50,127,32
1,38,127,96
1,50,0,20
1,50,127,76
1,38,0,4
1,50,0,176
1,31,127,12
1,43,127,384
1,31,0,12
1,43,0,324
1,38,127,48
1,38,0,384
1,50,127,0
1,38,127,96
1,50,0,20
1,38,0,140
1,50,127,32
1,50,0,96
1,33,127,0
1,33,0,380
1,45,127,4
1,33,127,96
1,45,0,36
1,45,127,156
1,33,0,8
1,45,0,80
1,36,127,8
1,48,127,384
1,36,0,8
1,48,0,280
1,36,127,0
1,36,0,104
1,36,127,88
1,36,0,112
1,36,127,80
1,36,0,92
1,48,127,4
1,36,127,96
1,48,0,16
1,36,0,80
1,48,127,0
1,48,0,156
1,38,127,36
1,38,0,1300
1,52,127,236
1,52,0,48
1,50,127,48
1,50,0,208
1,50,127,20
1,50,0,64
1,47,127,24
1,47,0,68
1,45,127,28
1,45,0,228
1,33,127,32
1,33,0,68
1,35,127,28
1,35,0,224
1,36,127,64
1,36,0,472
1,48,127,8
1,36,127,96
1,48,0,16
1,36,0,124
1,35,127,52
1,35,0,620
1,33,127,148
1,45,127,384
1,33,0,4
1,45,0,332
1,31,127,48
1,31,0,376
1,43,127,8
1,43,0,96
1,31,127,0
1,31,0,248
1,38,127,40
1,38,0,488
1,38,127,88
1,38,0,44
1,38,127,52
1,38,0,80
1,33,127,16
1,33,0,368
1,45,127,16
1,33,127,96
1,45,0,12
1,33,0,84
1,45,127,0
1,45,0,176
1,31,127,16
1,31,0,372
1,43,127,12
1,31,127,192
1,43,0,4
1,31,0,140
1,33,127,48
1,33,0,328
1,33,127,56
1,33,0,300
1,35,127,84
1,35,0,460
1,42,127,20
1,42,0,72
1,35,127,24
1,35,0,136
1,35,127,56
1,35,0,364
1,30,127,20
1,30,0,164
1,35,127,28
1,35,0,164
1,31,127,28
1,43,127,480
1,31,0,4
1,38,127,92
1,43,0,4
1,38,0,80
1,43,127,12
1,43,0,80
1,31,127,16
1,43,127,384
1,31,0,4
1,43,0,168
1,31,127,20
1,31,0,160
1,38,127,32
1,38,0,504
1,38,127,72
1,38,0,172
1,33,127,20
1,33,0,384
1,45,127,0
1,33,127,96
1,45,0,16
1,33,0,172
1,45,127,4
1,45,0,96
1,31,127,0
1,29,127,0
1,29,0,16
1,43,127,368
1,31,0,8
1,43,0,172
1,31,127,12
1,31,0,144
1,33,127,48
1,33,0,288
1,45,127,0
1,33,127,192
1,45,0,12
1,33,0,84
1,45,127,0
1,45,0,80
1,38,127,112
1,38,0,372
1,50,127,12
1,38,127,288
1,50,0,8
1,38,0,64
1,36,127,24
1,36,0,192
1,48,127,0
1,36,127,96
1,48,0,4
1,36,0,84
1,48,127,8
1,48,0,92
1,31,127,4
1,31,0,224
1,38,127,64
1,38,0,352
1,50,127,32
1,38,127,96
1,50,0,20
1,50,127,76
1,38,0,4
1,50,0,176
1,31,127,12
1,43,127,384
1,31,0,12
1,43,0,324
1,38,127,48
1,38,0,384
1,50,127,0
1,38,127,96
1,50,0,20
1,38,0,140
1,50,127,32
1,50,0,96
1,33,127,0
1,33,0,380
1,45,127,4
1,33,127,96
1,45,0,36
1,45,127,156
1,33,0,8
1,45,0,80
1,36,127,8
1,48,127,384
1,36,0,8
1,48,0,280
1,36,127,0
1,36,0,104
1,36,127,88
1,36,0,112
1,36,127,80
1,36,0,92
1,48,127,4
1,36,127,96
1,48,0,16
1,36,0,80
1,48,127,0
1,48,0,156
1,38,127,36
1,38,0,320
1,38,127,64
1,33,127,288
1,38,0,12
1,33,0,68
1,38,127,16
1,38,0,80
1,31,127,16
1,31,0,100
1,32,127,92
1,32,0,96
1,33,127,96
1,33,0,144
1,33,127,48
1,33,0,56
1,33,127,40
1,33,0,380
1,45,127,4
1,45,0,248
1,33,127,40
1,33,0,68
1,33,127,124
1,33,0,92
1,45,127,4
1,33,127,192
1,45,0,16
1,45,127,80
1,33,0,16
1,45,0,128
1,45,127,48
1,31,127,96
1,45,0,8
1,31,0,364
1,43,127,12
1,38,127,96
1,43,0,16
1,31,127,80
1,38,0,4
1,31,0,88
1,43,127,4
1,43,0,80
1,38,127,16
1,50,127,288
1,38,0,4
1,50,0,80
1,50,127,108
1,38,127,96
1,50,0,16
1,38,0,72
1,38,127,104
1,38,0,360
1,38,127,24
1,38,0,232
1,38,127,56
1,38,0,88
1,45,127,8
1,45,0,248
1,45,127,40
1,33,127,192
1,45,0,32
1,33,0,64
1,45,127,0
1,45,0,176
1,31,127,16
1,43,127,288
1,31,0,16
1,31,127,80
1,43,0,24
1,31,0,156
1,43,127,12
1,43,0,148
1,38,127,44
1,38,0,312
1,38,127,72
1,38,0,2200
1,38,127,104
1,38,0,96
1,38,127,3360
1,38,0,372
1,50,127,12
1,38,127,288
1,50,0,8
1,38,0,64
1,36,127,24
1,36,0,192
1,48,127,0
1,36,127,96
1,48,0,4
1,36,0,84
1,48,127,8
1,48,0,92
1,31,127,4
1,31,0,224
1,38,127,64
1,38,0,352
1,50,127,32
1,38,127,96
1,50,0,20
1,50,127,76
1,38,0,4
1,50,0,176
1,31,127,12
1,43,127,384
1,31,0,12
1,43,0,324
1,38,127,48
1,38,0,384
1,50,127,0
1,38,127,96
1,50,0,20
1,38,0,140
1,50,127,32
1,50,0,96
1,33,127,0
1,33,0,380
1,45,127,4
1,33,127,96
1,45,0,36
1,45,127,156
1,33,0,8
1,45,0,80
1,36,127,8
1,48,127,384
1,36,0,8
1,48,0,280
1,36,127,0
1,36,0,104
1,36,127,88
1,36,0,112
1,36,127,80
1,36,0,92
1,48,127,4
1,36,127,96
1,48,0,16
1,36,0,80
1,48,127,0
1,48,0,156
1,38,127,36
1,38,0,1300
1,52,127,236
1,52,0,48
1,50,127,48
1,50,0,208
1,50,127,20
1,50,0,64
1,47,127,24
1,47,0,68
1,45,127,28
1,45,0,228
1,33,127,32
1,33,0,68
1,35,127,28
1,35,0,224
1,36,127,64
1,36,0,472
1,48,127,8
1,36,127,96
1,48,0,16
1,36,0,124
1,35,127,52
1,35,0,620
1,33,127,148
1,45,127,384
1,33,0,4
1,45,0,332
1,31,127,48
1,31,0,376
1,43,127,8
1,43,0,96
1,31,127,0
1,31,0,248
1,38,127,40
1,38,0,488
1,38,127,88
1,38,0,44
1,38,127,52
1,38,0,80
1,33,127,16
1,33,0,368
1,45,127,16
1,33,127,96
1,45,0,12
1,33,0,84
1,45,127,0
1,45,0,176
1,31,127,16
1,31,0,372
1,43,127,12
1,31,127,192
1,43,0,4
1,31,0,140
1,33,127,48
1,33,0,328
1,33,127,56
1,33,0,300
1,35,127,84
1,35,0,460
1,42,127,20
1,42,0,72
1,35,127,24
1,35,0,136
1,35,127,56
1,35,0,364
1,30,127,20
1,30,0,164
1,35,127,28
1,35,0,164
1,31,127,28
1,43,127,480
1,31,0,4
1,38,127,92
1,43,0,4
1,38,0,80
1,43,127,12
1,43,0,80
1,31,127,16
1,43,127,384
1,31,0,4
1,43,0,168
1,31,127,20
1,31,0,160
1,38,127,32
1,38,0,504
1,38,127,72
1,38,0,172
1,33,127,20
1,33,0,384
1,45,127,0
1,33,127,96
1,45,0,16
1,33,0,172
1,45,127,4
1,45,0,96
1,31,127,0
1,29,127,0
1,29,0,16
1,43,127,368
1,31,0,8
1,43,0,172
1,31,127,12
1,31,0,144
1,33,127,48
1,33,0,288
1,45,127,0
1,33,127,192
1,45,0,12
1,33,0,84
1,45,127,0
1,45,0,80
1,38,127,112
1,38,0,372
1,50,127,12
1,38,127,288
1,50,0,8
1,38,0,64
1,36,127,24
1,36,0,192
1,48,127,0
1,36,127,96
1,48,0,4
1,36,0,84
1,48,127,8
1,48,0,92
1,31,127,4
1,31,0,224
1,38,127,64
1,38,0,352
1,50,127,32
1,38,127,96
1,50,0,20
1,50,127,76
1,38,0,4
1,50,0,176
1,31,127,12
1,43,127,384
1,31,0,12
1,43,0,324
1,38,127,48
1,38,0,384
1,50,127,0
1,38,127,96
1,50,0,20
1,38,0,140
1,50,127,32
1,50,0,96
1,33,127,0
1,33,0,380
1,45,127,4
1,33,127,96
1,45,0,36
1,45,127,156
1,33,0,8
1,45,0,80
1,36,127,8
1,48,127,384
1,36,0,8
1,48,0,280
1,36,127,0
1,36,0,104
1,36,127,88
1,36,0,112
1,36,127,80
1,36,0,92
1,48,127,4
1,36,127,96
1,48,0,16
1,36,0,80
1,48,127,0
1,48,0,156
1,38,127,36
1,38,0,372
1,50,127,12
1,38,127,288
1,50,0,8
1,38,0,64
1,36,127,24
1,36,0,192
1,48,127,0
1,36,127,96
1,48,0,4
1,36,0,84
1,48,127,8
1,48,0,92
1,31,127,4
1,31,0,224
1,38,127,64
1,38,0,352
1,50,127,32
1,38,127,96
1,50,0,20
1,50,127,76
1,38,0,4
1,50,0,176
1,31,127,12
1,43,127,384
1,31,0,12
1,43,0,324
1,38,127,48
1,38,0,384
1,50,127,0
1,38,127,96
1,50,0,20
1,38,0,140
1,50,127,32
1,50,0,96
1,33,127,0
1,33,0,380
1,45,127,4
1,33,127,96
1,45,0,36
1,45,127,156
1,33,0,8
1,45,0,80
1,36,127,8
1,48,127,384
1,36,0,8
1,48,0,280
1,36,127,0
1,36,0,104
1,36,127,88
1,36,0,112
1,36,127,80
1,36,0,92
1,48,127,4
1,36,127,96
1,48,0,16
1,36,0,80
1,48,127,0
1,48,0,156
1,38,127,36
1,38,0,2772
2,48,101,3248
2,55,101,0
2,60,101,0
2,64,101,0
2,64,0,84
2,60,0,12
2,55,0,8
2,48,0,0
2,55,76,16
2,62,93,0
2,59,81,0
2,59,0,64
2,62,0,8
2,55,0,4
2,62,101,304
2,54,76,0
2,57,101,0
2,57,0,72
2,54,0,12
2,62,0,12
2,59,93,400
2,55,88,0
2,62,101,0
2,59,0,156
2,62,0,4
2,55,0,0
2,62,101,4
2,54,101,0
2,57,101,0
2,57,0,56
2,54,0,4
2,62,0,20
2,66,86,216
2,62,101,0
2,69,101,0
2,66,0,44
2,62,0,4
2,69,0,8
2,45,101,8
2,52,84,0
2,52,0,68
2,45,0,12
2,55,93,4
2,50,81,0
2,59,101,0
2,43,101,0
2,43,0,168
2,50,0,0
2,55,0,4
2,59,0,24
2,57,84,384
2,64,101,0
2,61,86,0
2,52,86,0
2,45,93,0
2,57,0,324
2,61,0,16
2,64,0,8
2,52,0,8
2,45,0,4
2,62,101,16
2,66,98,0
2,59,98,0
2,62,0,928
2,66,0,8
2,59,0,4
2,62,101,60
2,66,98,0
2,59,91,0
2,62,0,64
2,66,0,12
2,59,0,12
2,43,96,4
2,55,93,0
2,59,101,0
2,62,101,0
2,55,0,208
2,62,0,8
2,59,0,8
2,55,101,328
2,59,101,0
2,62,101,0
2,59,0,36
2,55,0,0
2,62,0,12
2,43,0,16
2,57,101,8
2,50,101,0
2,62,101,0
2,54,101,0
2,57,0,148
2,62,0,24
2,54,0,4
2,50,0,24
2,45,98,392
2,52,96,0
2,57,101,0
2,61,98,0
2,64,101,0
2,52,0,144
2,45,0,12
2,61,0,16
2,64,0,4
2,57,0,4
2,43,101,32
2,59,101,0
2,55,101,0
2,62,101,0
2,43,0,184
2,55,0,8
2,59,0,16
2,62,0,4
2,45,101,8
2,57,76,96
2,57,0,48
2,69,101,48
2,57,101,0
2,57,0,44
2,69,0,0
2,57,101,52
2,69,101,0
2,57,0,40
2,69,0,4
2,57,101,52
2,69,101,0
2,57,0,36
2,69,0,12
2,57,101,48
2,69,101,0
2,57,0,32
2,69,0,12
2,57,101,52
2,69,101,0
2,57,0,32
2,69,0,8
2,57,101,56
2,69,101,0
2,57,0,32
2,69,0,8
2,45,0,12
2,69,101,100
2,57,101,0
2,66,101,0
2,62,101,0
2,50,101,0
2,69,0,140
2,62,0,8
2,66,0,8
2,69,101,8
2,62,101,0
2,66,101,0
2,57,0,64
2,50,0,0
2,66,0,4
2,69,0,4
2,62,0,8
2,55,101,20
2,48,101,0
2,64,101,0
2,67,101,0
2,60,101,0
2,55,0,60
2,48,0,20
2,67,0,12
2,64,0,0
2,60,0,8
2,62,101,32
2,55,101,0
2,43,101,0
2,59,101,0
2,43,0,40
2,55,0,12
2,62,0,16
2,59,0,0
2,57,101,112
2,50,101,0
2,69,101,180
2,62,101,0
2,66,98,0
2,69,0,184
2,62,0,12
2,66,0,0
2,57,0,64
2,69,101,0
2,66,101,0
2,62,101,0
2,50,0,16
2,62,0,48
2,66,0,0
2,69,0,4
2,43,101,4
2,59,101,0
2,55,101,0
2,62,101,0
2,62,0,188
2,55,0,4
2,59,0,0
2,55,101,64
2,62,101,0
2,43,0,88
2,55,0,16
2,62,0,24
2,66,101,24
2,62,101,0
2,57,101,0
2,50,101,0
2,62,0,204
2,66,0,8
2,66,101,92
2,62,101,0
2,66,0,44
2,62,0,8
2,62,86,44
2,64,101,0
2,62,0,16
2,57,0,48
2,50,0,24
2,64,0,0
2,62,101,8
2,62,0,52
2,61,101,16
2,57,101,0
2,64,101,0
2,45,101,0
2,52,88,0
2,57,0,136
2,61,0,0
2,64,0,12
2,59,101,80
2,64,101,0
2,59,0,76
2,57,101,20
2,64,0,32
2,45,0,0
2,52,0,12
2,57,0,36
2,64,101,16
2,60,101,0
2,55,101,0
2,48,101,0
2,60,0,40
2,60,74,40
2,64,0,32
2,60,0,20
2,55,0,60
2,55,101,80
2,60,101,96
2,60,0,60
2,64,101,132
2,60,101,0
2,60,0,48
2,64,0,12
2,67,98,132
2,60,93,0
2,64,101,0
2,64,0,44
2,67,0,4
2,60,0,0
2,60,98,48
2,67,98,0
2,64,101,0
2,64,0,32
2,60,0,0
2,67,0,0
2,60,101,64
2,67,101,0
2,64,101,0
2,60,0,28
2,64,0,4
2,67,0,8
2,67,101,56
2,60,101,0
2,64,101,0
2,60,0,28
2,67,0,4
2,64,0,0
2,60,101,64
2,67,101,0
2,64,101,0
2,64,0,32
2,60,0,4
2,67,0,4
2,55,0,52
2,64,101,4
2,67,101,0
2,60,101,0
