track,note,velocity,time
1,36,115,8904
1,36,115,576
1,36,115,192
1,31,115,384
1,33,115,0
1,36,115,192
1,38,115,0
1,38,115,576
1,38,115,192
1,36,115,0
1,31,115,384
1,33,115,0
1,36,115,0
1,33,115,0
1,36,115,0
1,36,115,576
1,31,115,192
1,33,115,0
1,33,115,576
1,28,115,192
1,29,115,0
1,29,115,576
1,28,115,192
1,36,115,0
1,36,101,288
1,31,115,0
1,33,115,0
1,36,101,0
1,36,115,96
1,29,115,0
1,29,115,192
1,29,115,192
1,31,101,192
1,36,115,0
1,31,115,384
1,33,101,0
1,36,115,0
1,33,101,0
1,29,115,0
1,29,115,192
1,29,115,192
1,31,115,192
1,33,115,0
1,33,115,192
1,31,115,0
1,31,101,96
1,31,115,144
1,28,102,0
1,29,115,0
1,29,115,192
1,29,115,192
1,31,115,192
1,36,115,0
1,36,102,288
1,31,115,0
1,33,101,0
1,36,115,0
1,33,102,0
1,29,115,0
1,29,115,192
1,29,115,192
1,29,115,192
1,31,115,0
1,31,115,192
1,31,115,192
1,31,106,0
1,31,115,192
1,36,115,0
1,36,115,0
1,36,115,384
1,31,106,192
1,36,115,0
1,36,115,384
1,36,115,0
1,31,115,192
1,38,115,0
1,38,115,576
1,31,102,192
1,36,115,0
1,31,115,384
1,33,102,0
1,36,115,0
1,33,102,0
1,36,115,0
1,36,115,576
1,31,105,192
1,33,115,0
1,33,115,576
1,28,102,192
1,29,115,0
1,29,115,192
1,29,115,192
1,31,105,192
1,36,115,0
1,36,102,288
1,31,115,0
1,33,102,0
1,36,115,0
1,33,101,0
1,29,115,0
1,29,115,192
1,29,115,192
1,31,105,192
1,36,115,0
1,36,102,288
1,31,115,0
1,33,102,0
1,36,115,0
1,33,102,0
1,29,115,0
1,29,115,192
1,29,115,192
1,31,115,192
1,33,115,0
1,33,115,192
1,31,115,0
1,31,115,0
1,28,106,192
1,29,115,0
1,29,115,192
1,29,115,192
1,31,105,192
1,36,115,0
1,31,115,384
1,33,102,0
1,36,115,0
1,33,101,0
1,29,115,0
1,29,115,192
1,29,115,192
1,36,115,192
1,31,115,0
1,31,115,192
1,31,111,96
1,35,105,0
1,38,115,0
1,40,106,0
1,43,117,0
1,29,80,12096
1,31,80,0
1,31,80,0
1,31,80,0
1,31,80,0
1,33,80,0
1,29,80,0
1,31,80,0
1,35,80,0
1,36,115,0
1,36,115,192
1,36,115,192
1,31,102,192
1,36,115,0
1,36,115,192
1,36,115,192
1,31,103,192
1,38,115,0
1,38,115,576
1,36,115,192
1,36,103,288
1,31,115,0
1,33,102,0
1,36,115,0
1,33,103,0
1,36,115,0
1,36,115,192
1,36,115,192
1,31,102,192
1,33,115,0
1,33,115,192
1,33,115,192
1,28,102,192
1,29,115,0
1,29,115,192
1,29,115,192
1,31,115,192
1,28,115,0
1,28,115,192
1,28,115,0
1,28,103,0
1,28,103,192
1,29,115,0
1,29,115,192
1,29,115,192
1,31,115,192
1,36,115,0
1,36,105,288
1,31,115,0
1,33,102,0
1,36,115,0
1,33,102,0
1,29,115,0
1,29,115,192
1,29,115,192
1,31,115,192
1,33,115,0
1,33,115,192
1,31,115,0
1,31,115,0
1,28,102,192
1,29,115,0
1,29,115,192
1,29,115,192
1,31,115,192
1,36,115,0
1,36,106,288
1,31,115,0
1,33,102,0
1,36,115,0
1,33,102,0
1,29,115,0
1,29,115,192
1,29,115,192
1,36,115,192
1,31,115,0
1,31,115,192
1,31,115,96
1,35,105,0
1,38,115,0
1,40,105,0
1,43,115,0
1,29,115,0
1,29,115,192
1,29,115,192
1,31,103,192
1,36,115,0
1,36,115,192
1,31,115,0
1,33,102,0
1,36,115,0
1,33,102,0
1,29,115,0
1,29,115,192
1,29,115,192
1,31,103,192
1,36,115,0
1,36,115,192
1,36,115,192
1,33,115,192
1,29,115,0
1,29,115,192
1,29,115,192
1,31,103,192
1,36,115,0
1,36,115,192
1,31,115,0
1,33,102,0
1,36,115,0
1,33,102,0
1,29,115,0
1,29,115,192
1,29,115,192
1,31,105,192
1,36,115,0
1,36,106,288
1,31,115,0
1,33,102,0
1,36,115,0
1,33,102,0
1,29,115,0
1,29,115,192
1,29,115,192
1,31,105,192
1,36,115,0
1,36,115,192
1,31,115,0
1,33,102,0
1,36,115,0
1,33,102,0
1,29,115,0
1,29,115,192
1,29,115,192
1,31,102,192
1,36,115,0
1,36,115,192
1,36,115,192
1,33,107,192
1,29,115,0
1,29,115,192
1,29,115,192
1,31,103,192
1,36,115,0
1,36,115,192
1,31,115,0
1,33,102,0
1,36,115,0
1,33,102,0
1,29,115,0
1,29,115,192
1,29,115,192
1,31,105,192
1,36,115,0
1,36,115,288
1,31,115,0
1,33,102,0
1,36,115,0
1,33,102,0
1,29,115,0
1,29,115,192
1,29,115,192
1,31,106,192
1,36,115,0
1,36,115,192
1,31,115,0
1,33,102,0
1,36,115,0
1,33,102,0
1,29,115,0
1,29,115,192
1,29,115,192
1,31,103,192
1,36,115,0
1,36,115,192
1,40,105,0
1,43,115,0
1,45,115,0
1,43,102,0
1,41,115,0
1,29,115,192
1,29,115,192
1,31,102,192
1,36,115,0
1,36,115,192
1,31,115,0
1,33,102,0
1,36,115,0
1,33,102,0
1,29,115,0
1,29,115,192
1,29,115,192
1,31,105,192
1,36,115,0
1,36,102,288
1,45,115,0
1,43,102,0
1,40,115,0
1,36,102,0
1,29,115,0
1,29,115,192
2,84,110,0
2,79,110,0
2,76,110,0
2,72,110,576
2,84,110,0
2,79,110,0
2,79,110,360
2,77,110,0
2,81,110,0
2,76,110,0
2,79,110,0
2,72,110,0
2,76,110,0
2,76,110,72
2,74,110,0
2,77,110,0
2,72,110,0
2,76,110,0
2,72,110,5184
2,84,110,0
2,79,110,0
2,76,110,0
2,72,110,0
2,76,110,0
2,79,110,0
2,88,110,4944
2,89,110,0
2,88,110,0
2,84,81,0
2,77,81,0
2,81,81,0
2,76,81,0
2,79,81,0
2,77,81,0
2,81,81,0
2,76,114,0
2,77,114,0
2,79,114,0
2,74,114,0
2,74,114,24
2,76,114,0
2,77,114,0
2,77,114,24
2,77,81,24
2,79,81,0
2,76,81,0
2,81,81,0
2,77,81,0
2,87,110,0
2,88,110,0
2,77,110,0
2,79,110,0
2,74,110,0
2,86,110,24
2,87,110,144
2,88,110,0
2,86,110,0
2,87,110,144
2,88,110,0
2,86,110,0
2,86,110,168
2,88,110,0
2,72,81,144
2,76,81,0
2,84,81,0
2,79,81,0
2,77,81,0
2,81,81,0
2,86,81,0
2,74,81,0
2,79,110,552
2,77,110,0
2,81,110,0
2,76,110,0
2,79,110,0
2,72,110,0
2,76,110,0
2,76,110,120
2,74,110,0
2,77,110,0
2,76,110,0
2,72,110,0
2,81,84,0
2,77,84,0
2,72,84,0
2,76,84,0
2,84,81,0
2,77,81,0
2,81,81,0
2,76,81,0
2,79,81,0
2,77,81,0
2,81,81,0
2,76,114,0
2,77,114,0
2,79,114,0
2,74,114,0
2,74,114,24
2,76,114,0
2,77,114,0
2,77,114,24
2,77,81,24
2,79,81,0
2,76,81,0
2,81,81,0
2,77,81,0
2,87,110,0
2,88,110,0
2,77,110,0
2,79,110,0
2,74,110,0
2,86,110,24
2,87,110,144
2,88,110,0
2,86,110,0
2,87,110,144
2,88,110,0
2,86,110,0
2,86,110,168
2,88,110,0
2,89,110,6072
2,91,110,0
2,79,110,0
2,84,110,0
2,88,110,0
2,89,110,0
2,89,110,168
2,81,110,96
2,84,110,0
2,86,110,0
2,88,110,0
2,91,110,0
2,85,110,24
2,86,110,0
2,88,110,0
2,86,110,0
2,83,110,72
2,84,110,0
2,86,110,0
2,84,110,0
2,89,110,0
2,88,110,0
2,86,110,0
2,79,110,0
2,77,110,1344
2,74,110,0
2,86,110,96
2,87,110,144
2,88,110,0
2,86,110,0
2,87,110,144
2,88,110,0
2,86,110,0
2,86,110,168
2,88,110,0
2,84,81,144
2,76,81,0
2,72,81,0
2,74,81,0
2,86,81,0
2,81,81,0
2,77,81,0
2,84,84,0
2,76,84,0
2,72,84,0
2,79,84,0
2,81,84,0
2,77,84,0
2,76,84,0
2,83,84,0
2,80,84,0
2,77,110,10752
2,74,110,0
2,79,110,0
2,86,110,192
2,87,110,144
2,88,110,0
2,86,110,0
2,87,110,144
2,88,110,0
2,86,110,0
2,86,110,168
2,88,110,0
2,87,110,96
2,82,110,0
2,88,110,0
2,83,110,0
2,89,110,0
2,84,110,0
2,81,110,0
2,79,110,0
2,88,110,0
2,81,110,0
2,77,110,0
2,76,110,0
2,79,110,0
2,81,110,0
2,77,110,0
2,76,110,0
2,79,110,0
2,81,110,0
2,77,110,0
2,76,110,0
2,79,110,0
2,88,110,0
2,87,110,144
2,88,110,0
2,86,110,0
2,87,110,144
2,88,110,0
2,86,110,0
2,84,110,168
2,84,110,168
2,86,110,0
2,69,87,0
2,65,87,0
2,81,110,0
2,79,110,0
2,86,110,96
2,84,110,0
2,74,110,96
2,74,110,24
2,64,87,0
2,67,87,0
2,76,110,0
2,74,110,192
2,76,110,0
2,74,110,24
2,72,110,48
2,72,110,168
2,79,110,72
2,69,87,0
2,65,87,0
2,81,110,0
2,79,110,0
2,84,110,72
2,86,110,0
2,84,110,0
2,74,110,96
2,74,110,24
2,64,87,0
2,67,87,0
2,76,110,0
2,74,110,192
2,76,110,0
2,74,110,24
2,72,110,48
2,72,110,168
2,74,110,0
2,79,110,0
2,81,110,0
2,65,87,0
2,69,87,0
2,79,110,0
2,84,110,72
2,86,110,0
2,84,110,0
2,67,87,0
2,64,87,0
2,86,110,96
2,84,110,0
2,88,110,0
2,81,110,0
2,86,110,0
2,79,110,168
2,84,110,0
2,86,110,144
2,84,110,0
2,88,110,0
2,81,110,0
2,86,110,0
2,86,110,168
2,81,110,0
2,84,110,0
2,79,110,0
2,65,87,0
2,69,87,0
2,67,87,0
2,64,87,0
2,86,110,192
2,84,110,0
2,88,110,0
2,81,110,0
2,86,110,0
2,79,110,168
2,84,110,0
2,86,110,144
2,84,110,0
2,88,110,0
2,81,110,0
2,86,110,0
2,86,110,168
2,81,110,0
2,84,110,0
2,79,110,0
2,65,87,0
2,69,87,0
2,88,110,192
2,84,110,0
2,89,110,0
2,88,110,72
2,84,110,0
2,89,110,0
2,88,110,192
2,84,110,0
2,89,110,0
2,88,110,72
2,84,110,0
2,89,110,0
2,67,87,0
2,64,87,0
2,86,110,192
2,88,110,0
2,84,110,0
2,86,110,72
2,88,110,0
2,84,110,0
2,86,110,192
2,88,110,0
2,84,110,0
2,86,110,48
2,84,110,0
2,88,110,0
2,86,110,0
2,84,110,0
2,65,87,0
2,69,87,0
2,88,110,192
2,89,110,0
2,84,110,0
2,88,110,72
2,89,110,0
2,84,110,0
2,88,110,192
2,89,110,0
2,84,110,0
2,88,110,48
2,89,110,0
2,84,110,0
2,86,110,0
2,84,110,0
2,67,87,0
2,64,87,0
2,86,110,192
2,84,110,0
2,88,110,0
2,81,110,0
2,86,110,0
2,79,110,168
2,84,110,0
2,86,110,144
2,84,110,0
2,88,110,0
2,81,110,0
2,86,110,0
2,86,110,168
2,81,110,0
2,84,110,0
2,79,110,0
2,81,110,0
2,65,87,0
2,69,87,0
2,76,110,72
2,77,110,0
2,72,110,0
2,74,110,0
2,72,110,0
2,74,110,0
2,67,87,0
2,64,87,0
2,72,110,0
2,76,110,0
2,74,110,192
2,72,110,0
2,76,110,0
2,70,110,72
2,72,110,0
2,76,110,0
2,70,110,0
2,74,110,0
2,77,110,0
2,81,110,0
2,65,87,0
2,69,87,0
2,76,110,96
2,72,110,0
2,77,110,0
2,74,110,0
2,72,110,0
2,76,110,0
2,72,110,0
2,77,110,0
2,74,110,0
2,72,110,0
2,67,87,0
2,64,87,0
2,65,110,96
2,69,110,0
3,69,110,108360
3,67,110,0
3,74,110,96
3,72,110,0
3,62,110,96
3,62,110,24
3,64,110,0
3,62,110,192
3,64,110,0
3,62,110,24
3,60,110,48
3,60,110,168
3,67,110,72
3,69,110,0
3,67,110,0
3,72,110,72
3,74,110,0
3,72,110,0
3,62,110,96
3,62,110,24
3,64,110,0
3,62,110,192
3,64,110,0
3,62,110,24
3,60,110,48
3,60,110,168
3,62,110,0
3,67,110,0
3,69,110,0
3,67,110,0
3,72,110,72
3,74,110,0
3,72,110,0
3,62,110,96
3,62,110,24
3,64,110,0
3,62,110,192
3,64,110,0
3,62,110,24
3,60,110,48
3,60,110,168
3,62,110,0
3,67,110,0
3,69,110,0
3,67,110,0
3,72,110,72
3,74,110,0
3,72,110,0
3,62,110,96
3,62,110,24
3,64,110,0
3,62,110,192
3,64,110,0
3,62,110,24
3,60,110,48
3,60,110,168
3,62,110,0
3,67,110,0
3,69,110,0
3,67,110,0
3,72,110,72
3,74,110,0
3,72,110,0
3,62,110,96
3,62,110,24
3,64,110,0
3,62,110,192
3,64,110,0
3,62,110,24
3,60,110,48
3,60,110,168
3,62,110,0
3,67,110,0
3,69,110,0
3,67,110,0
3,72,110,72
3,74,110,0
3,72,110,0
3,62,110,96
3,62,110,24
3,64,110,0
3,62,110,192
3,64,110,0
3,62,110,24
3,60,110,48
3,60,110,168
3,62,110,0
3,67,110,0
3,69,110,0
3,67,110,0
3,72,110,72
3,74,110,0
3,72,110,0
3,62,110,96
3,62,110,24
3,64,110,0
3,62,110,192
3,64,110,0
3,62,110,24
3,60,110,48
3,60,110,168
3,62,110,0
3,67,110,0
3,69,110,0
3,67,110,0
3,72,110,72
3,74,110,0
3,72,110,0
3,62,110,96
3,62,110,24
3,64,110,0
3,62,110,192
3,64,110,0
3,62,110,24
3,60,110,48
3,60,110,168
3,65,110,192
3,69,110,0
3,60,110,0
3,65,110,192
3,69,110,0
3,60,110,0
4,27,1,0
4,35,110,5832
4,35,110,100
4,42,90,0
4,42,90,584
4,42,90,579
4,41,90,580
4,42,90,0
4,38,50,3
4,38,110,44
4,38,110,47
4,42,90,8
4,49,90,194
4,35,110,0
4,38,110,292
4,42,70,5
4,42,90,144
4,35,110,0
4,42,90,97
4,35,110,0
4,38,110,100
4,42,90,6
4,35,110,0
4,42,90,100
4,35,110,0
4,42,70,99
4,38,110,144
4,42,70,3
4,42,90,144
4,35,110,0
4,42,90,99
4,35,110,0
4,38,110,101
4,42,90,8
4,35,110,0
4,42,90,99
4,35,110,0
4,42,70,100
4,38,110,144
4,42,70,5
4,35,110,144
4,42,90,0
4,42,90,97
4,35,110,0
4,38,110,100
4,42,90,6
4,35,110,0
4,42,90,100
4,35,110,0
4,42,70,99
4,38,110,144
4,42,70,3
4,42,90,144
4,35,110,0
4,42,90,99
4,35,110,0
4,38,110,101
4,42,90,8
4,35,110,0
4,42,90,99
4,35,110,0
4,42,70,100
4,38,110,144
4,42,70,5
4,42,90,144
4,35,110,0
4,42,90,97
4,35,110,0
4,38,110,100
4,42,90,6
4,35,110,0
4,42,90,100
4,35,110,0
4,42,70,99
4,38,110,144
4,42,70,3
4,42,90,144
4,35,110,0
4,42,90,99
4,35,110,0
4,38,110,101
4,42,90,8
4,35,110,0
4,42,90,99
4,35,110,0
4,42,70,100
4,38,110,144
4,42,70,5
4,42,90,144
4,35,110,0
4,42,90,97
4,35,110,0
4,38,110,100
4,42,90,6
4,35,110,0
4,42,90,100
4,35,110,0
4,42,70,99
4,38,110,144
4,42,70,3
4,42,90,144
4,35,110,0
4,42,90,99
4,35,110,0
4,38,110,101
4,42,90,8
4,35,110,0
4,42,90,99
4,35,110,0
4,42,70,100
4,35,90,0
4,42,90,144
4,38,110,0
4,42,70,5
4,42,90,144
4,35,110,0
4,42,90,97
4,35,110,0
4,38,110,100
4,42,90,6
4,35,110,0
4,42,90,100
4,35,110,0
4,42,70,99
4,38,110,144
4,42,70,3
4,42,90,144
4,35,110,0
4,42,90,99
4,35,110,0
4,38,110,101
4,42,90,8
4,35,110,0
4,42,90,99
4,35,110,0
4,42,70,100
4,38,110,144
4,42,70,5
4,42,90,144
4,35,110,0
4,42,90,97
4,35,110,0
