track,note,velocity,time
1,27,87,4188
1,39,87,20
1,34,86,192
1,27,86,180
1,31,86,0
1,34,86,0
1,36,85,4
1,31,85,48
1,36,85,0
1,31,85,48
1,36,84,0
1,36,84,0
1,32,87,4
1,39,86,0
1,27,86,0
1,29,86,0
1,31,86,0
1,36,86,0
1,27,86,0
1,31,86,0
1,29,85,0
1,31,85,4
1,32,85,4
1,33,85,0
1,34,85,0
1,29,85,0
1,34,85,0
1,36,85,0
1,34,84,0
1,31,84,0
1,27,78,0
1,27,78,48
1,27,92,96
1,39,74,4
1,34,76,48
1,36,86,4
1,36,75,108
1,31,84,4
1,36,80,0
1,36,80,0
1,32,87,4
1,31,84,48
1,36,92,0
1,27,86,0
1,31,86,0
1,29,85,8
1,31,85,0
1,34,85,0
1,31,87,4
1,27,78,16
1,27,78,48
1,27,92,96
1,39,74,4
1,34,76,48
1,36,86,0
1,36,75,108
1,31,84,4
1,36,80,0
1,36,80,0
1,32,87,0
1,31,84,48
1,36,92,0
1,27,86,0
1,31,86,0
1,29,85,0
1,31,85,0
1,34,85,0
1,31,87,4
1,34,64,8
1,36,81,0
1,31,81,0
1,36,80,0
1,35,80,0
1,31,80,0
1,35,80,0
1,31,80,0
1,34,80,0
1,31,79,0
1,34,79,0
1,29,79,4
1,33,79,0
1,39,79,28
1,33,79,0
1,29,78,0
1,32,78,0
1,39,78,0
1,32,78,0
1,27,78,0
1,31,78,0
1,36,78,0
1,27,77,0
1,28,77,192
1,29,77,184
1,31,77,0
1,32,77,0
1,33,77,0
1,34,76,0
1,29,76,0
1,34,76,0
1,36,76,0
1,34,76,4
1,31,76,4
1,27,78,8
1,39,78,0
1,34,78,0
1,27,92,0
1,27,72,4
1,27,74,20
1,31,74,76
1,34,76,0
1,36,86,4
1,31,72,4
1,34,78,0
1,36,75,204
1,31,84,4
1,36,80,0
1,36,80,0
1,32,87,0
1,31,81,4
1,32,81,16
1,31,84,8
1,36,92,4
1,27,86,0
1,28,86,0
1,29,85,4
1,31,85,0
1,34,85,0
1,29,81,0
1,34,87,0
1,34,98,4
1,31,90,20
1,27,78,32
1,39,78,0
1,34,78,0
1,27,92,0
1,27,72,8
1,27,74,20
1,31,74,76
1,34,76,0
1,36,86,4
1,31,72,0
1,34,78,0
1,36,75,204
1,31,84,4
1,36,80,0
1,36,80,0
1,32,87,4
1,31,81,4
1,32,81,16
1,31,84,8
1,36,92,0
1,27,86,0
1,28,86,0
1,29,85,4
1,31,85,0
1,34,85,0
1,29,81,0
1,34,87,4
1,34,98,0
1,31,90,20
1,27,78,32
1,27,78,48
1,27,92,96
1,39,74,4
1,34,76,48
1,36,86,4
1,36,75,104
1,31,84,4
1,36,80,0
1,36,80,0
1,32,87,0
1,31,84,48
1,36,92,0
1,27,86,4
1,31,86,0
1,29,85,4
1,31,85,0
1,34,85,0
1,34,98,0
1,31,90,20
1,27,78,28
1,27,78,48
1,27,92,96
1,39,74,4
1,34,76,48
1,36,86,4
1,36,75,104
1,31,84,4
1,36,80,0
1,36,80,0
1,32,87,4
1,31,84,48
1,36,92,0
1,27,86,0
1,31,86,0
1,29,85,0
1,31,85,0
1,34,85,0
1,31,87,4
1,34,64,8
1,36,81,8
1,31,81,0
1,36,80,0
1,35,80,0
1,31,80,0
1,35,80,0
1,31,80,0
1,34,80,8
1,31,79,4
1,34,79,0
1,29,79,0
1,33,79,4
1,39,79,32
1,33,79,0
1,29,78,0
1,32,78,0
1,39,78,4
1,32,78,4
1,27,78,0
1,31,78,0
1,36,78,0
1,27,77,4
1,28,77,188
1,29,77,184
1,31,77,4
1,32,77,0
1,33,77,0
1,34,76,0
1,29,76,0
1,34,76,0
1,36,76,4
1,34,76,0
1,31,76,0
1,27,78,4
1,39,78,0
1,34,78,0
1,27,92,0
1,27,72,4
1,27,74,20
1,31,74,76
1,34,76,0
1,36,86,4
1,31,72,0
1,34,78,0
1,36,75,204
1,31,84,4
1,36,80,0
1,36,80,0
1,32,87,4
1,31,81,4
1,32,81,16
1,31,84,8
1,36,92,0
1,27,86,0
1,28,86,0
1,29,85,8
1,31,85,4
1,34,85,0
1,29,81,0
1,34,87,0
1,34,98,4
1,31,90,20
1,27,78,32
1,39,78,0
1,34,78,0
1,27,92,0
1,27,72,4
1,27,74,20
1,31,74,76
1,34,76,0
1,36,86,4
1,31,72,0
1,34,78,0
1,36,75,204
1,31,84,4
1,36,80,0
1,36,80,0
1,32,87,4
1,31,81,4
1,32,81,16
1,31,84,8
1,36,92,0
1,27,86,0
1,28,86,0
1,29,85,4
1,31,85,4
1,34,85,0
1,29,81,0
1,34,87,4
1,34,98,4
1,31,90,20
1,27,78,28
1,39,87,4
1,34,86,0
1,27,92,192
1,39,84,4
1,31,90,4
1,34,87,4
1,36,86,4
1,36,54,0
1,31,74,28
1,36,75,76
1,31,84,4
1,32,80,0
1,36,80,0
1,32,87,4
1,27,81,0
1,32,80,0
1,31,84,192
1,36,92,0
1,27,86,0
1,31,86,0
1,29,85,96
1,31,85,0
1,34,85,0
1,34,98,0
1,31,90,20
1,27,78,28
1,39,52,320
1,39,72,52
1,39,71,120
1,39,70,112
1,27,78,48
1,39,68,0
1,34,92,96
1,39,68,324
1,39,74,16
1,31,76,0
1,34,76,0
1,36,86,4
1,36,75,104
1,31,84,4
1,36,80,0
1,34,80,0
1,32,87,0
1,27,72,0
1,32,78,16
1,31,84,192
1,36,92,4
1,27,86,0
1,31,86,0
1,31,86,28
1,29,85,68
1,36,85,0
1,29,85,0
1,31,85,0
1,32,85,0
1,34,85,0
1,29,85,0
1,34,85,0
1,31,87,4
1,34,64,8
1,36,81,4
1,31,75,0
1,36,75,0
1,36,87,0
1,35,80,72
1,31,72,4
1,35,72,20
1,38,87,8
1,36,72,0
1,34,80,4
1,31,79,4
1,34,79,0
1,29,79,0
1,33,79,4
1,39,79,28
1,33,79,0
1,29,78,4
1,32,78,0
1,39,78,0
1,32,78,4
1,27,78,0
1,31,78,0
1,36,78,0
1,27,77,0
1,28,77,192
1,29,77,184
1,31,77,4
1,32,77,4
1,33,77,0
1,34,76,0
1,29,76,0
1,34,76,0
1,36,76,0
1,34,76,0
1,31,76,4
1,27,78,4
1,39,78,0
1,34,78,0
1,27,92,0
1,39,92,0
1,31,74,0
1,31,76,0
1,34,76,4
1,36,86,4
1,31,58,4
1,31,68,52
1,36,76,68
1,31,87,40
1,31,72,68
1,34,78,0
1,36,75,204
1,31,84,4
1,36,80,0
1,36,80,0
1,32,87,4
1,39,81,0
1,32,81,4
1,32,81,16
1,31,84,8
1,38,84,4
1,37,84,0
1,36,80,12
1,27,86,0
1,28,86,0
1,29,85,4
1,31,85,4
1,31,87,4
1,32,98,4
1,34,85,24
1,29,81,0
1,34,87,0
1,34,98,4
1,31,90,20
1,27,78,32
1,39,78,0
1,34,78,0
1,27,92,0
1,39,92,0
1,31,74,4
1,31,76,0
1,34,76,0
1,36,86,4
1,31,58,0
1,31,68,52
1,36,76,68
1,31,87,40
1,31,72,68
1,34,78,0
1,36,75,204
1,31,84,4
1,36,80,0
1,36,80,0
1,32,87,4
1,39,81,0
1,32,81,0
1,32,81,16
1,31,84,8
1,38,84,0
1,37,84,4
1,36,80,12
1,27,86,4
1,28,86,0
1,29,85,4
1,31,85,0
1,31,87,0
1,32,98,4
1,34,85,24
1,29,81,4
1,34,87,0
1,34,98,4
1,31,90,20
1,27,78,32
1,39,78,0
1,34,78,0
1,27,92,0
1,39,92,0
1,31,74,0
1,31,76,0
1,34,76,0
1,36,86,4
1,31,58,0
1,31,68,24
1,36,76,40
1,31,87,36
1,31,72,40
1,34,78,4
1,36,75,60
1,31,84,4
1,36,80,0
1,36,80,0
2,46,91,4360
2,48,85,124
2,51,91,120
2,46,91,696
2,48,85,120
2,51,91,120
2,46,91,700
2,48,85,124
2,51,91,124
2,46,91,696
2,48,85,120
2,51,91,124
2,46,90,696
2,48,89,96
2,55,89,48
2,53,88,100
2,51,88,48
2,46,90,240
2,48,89,96
2,55,89,48
2,53,88,96
2,51,88,48
2,46,90,240
2,48,89,100
2,55,89,48
2,53,88,104
2,51,88,48
2,46,91,1392
2,48,85,124
2,51,91,120
2,46,91,696
2,48,85,120
2,51,91,120
2,46,91,696
2,48,85,120
2,51,91,120
2,46,91,696
2,48,85,120
2,51,91,120
2,53,91,120
2,55,91,124
2,46,90,312
2,48,89,96
2,55,89,48
2,53,88,96
2,51,88,48
2,46,90,240
2,48,89,96
2,55,89,48
2,53,88,96
2,51,88,52
2,46,90,240
2,48,89,100
2,55,89,48
2,53,88,100
2,51,88,48
2,46,87,48
2,46,86,480
2,48,85,120
2,51,85,144
2,46,91,316
2,48,85,120
2,51,91,120
2,46,91,696
2,48,85,120
2,51,91,120
2,46,91,696
2,48,85,124
2,51,91,120
2,46,91,696
2,48,85,120
2,51,91,120
2,46,90,696
2,48,89,96
2,55,89,48
2,53,88,96
2,51,88,48
2,46,90,240
2,48,89,96
2,55,89,48
2,53,88,96
2,51,88,48
2,46,90,240
2,48,89,100
2,55,89,48
2,53,88,100
2,51,88,48
2,46,87,48
2,46,86,480
2,48,85,120
2,51,85,148
2,48,84,312
2,50,84,108
2,51,84,96
2,50,84,80
2,48,84,112
2,50,84,300
2,51,83,108
2,53,83,124
2,51,83,96
2,50,83,128
2,51,83,320
2,53,83,120
2,55,83,124
2,53,83,108
2,51,83,120
2,55,83,336
2,58,83,116
2,60,83,136
2,63,83,688
2,60,83,0
2,55,83,0
2,62,82,104
2,58,82,0
2,53,82,4
2,63,82,100
2,60,82,4
2,51,82,0
2,62,82,668
2,58,82,4
2,53,82,0
2,60,82,104
2,55,82,4
2,62,82,104
2,58,82,0
2,63,82,684
2,60,82,0
2,55,82,4
2,62,82,104
2,58,82,0
2,53,82,4
2,63,82,112
2,60,82,0
2,55,82,4
2,55,82,500
2,55,81,488
2,55,81,116
2,48,81,8
2,55,81,100
2,51,81,4
2,46,91,280
2,48,85,124
2,51,91,120
2,46,91,696
2,48,85,124
2,51,91,124
2,53,91,120
2,55,91,120
2,46,91,316
2,48,85,120
2,51,91,120
2,46,91,696
2,48,85,120
2,51,91,120
2,53,91,120
2,55,91,124
2,46,90,316
2,48,89,100
2,55,89,48
2,53,88,96
2,51,88,48
2,46,90,240
2,48,89,100
2,55,89,48
2,53,88,100
2,51,88,52
2,46,90,240
2,48,89,100
2,55,89,52
2,53,88,96
2,51,88,48
2,46,87,48
2,46,86,476
2,48,85,120
2,51,85,144
2,46,91,316
2,48,85,120
2,51,91,120
2,46,91,696
2,48,85,120
2,51,91,120
2,53,91,124
2,55,91,120
2,46,91,316
2,48,85,120
2,51,91,120
2,46,91,696
2,48,85,120
2,51,91,120
2,53,91,124
2,55,91,120
2,46,90,316
2,48,89,100
2,55,89,48
2,53,88,96
2,51,88,48
2,46,90,240
2,48,89,100
2,55,89,48
2,53,88,96
2,51,88,56
2,46,90,240
2,48,89,100
2,55,89,48
2,53,88,96
2,51,88,48
2,46,87,48
2,46,86,476
2,48,85,120
2,51,85,144
2,46,91,316
2,48,85,124
2,51,91,124
2,46,91,696
2,48,85,120
2,51,91,120
2,46,91,696
2,48,85,120
2,51,91,124
2,46,91,696
2,48,85,120
2,51,91,120
2,53,91,124
2,55,91,120
2,46,90,312
2,48,89,96
2,55,89,48
2,53,88,100
2,51,88,48
2,46,90,244
2,48,89,96
2,55,89,48
2,53,88,96
2,51,88,48
2,46,90,240
2,48,89,100
2,55,89,52
2,53,88,96
2,51,88,48
2,46,87,48
2,46,86,484
2,48,85,120
2,51,85,144
2,46,91,316
2,48,85,124
2,51,91,120
2,46,91,696
2,48,85,120
2,51,91,120
2,46,91,696
2,48,85,124
2,51,91,120
2,46,91,696
2,48,85,120
2,51,91,124
2,46,90,696
2,48,89,100
2,55,89,52
2,53,88,96
2,51,88,48
2,46,90,244
2,48,89,96
2,55,89,48
2,53,88,96
2,51,88,48
2,46,90,244
2,48,89,100
2,55,89,48
2,53,88,96
2,51,88,48
2,46,87,52
2,46,86,480
2,48,85,120
2,51,85,144
2,48,84,312
2,50,84,108
2,51,84,100
2,50,84,84
2,48,84,112
2,50,84,300
2,51,83,108
2,53,83,124
2,51,83,96
2,50,83,128
2,51,83,320
2,53,83,116
2,55,83,120
2,53,83,104
2,51,83,124
2,55,83,336
2,58,83,112
2,60,83,136
2,63,83,688
2,60,83,0
2,55,83,4
2,62,82,104
2,58,82,0
2,53,82,4
2,63,82,104
2,60,82,0
2,51,82,0
2,62,82,668
2,58,82,4
2,53,82,0
2,60,82,104
2,55,82,4
2,62,82,104
2,58,82,0
2,63,82,684
2,60,82,0
2,55,82,4
2,62,82,104
2,58,82,4
2,53,82,0
2,63,82,112
2,60,82,0
2,55,82,4
2,55,82,500
2,55,81,488
2,55,81,116
2,48,81,4
2,55,81,96
2,51,81,8
2,46,91,280
2,48,85,120
2,51,91,124
2,46,91,696
2,48,85,120
2,51,91,120
2,53,91,120
2,55,91,120
2,46,91,312
2,48,85,124
2,51,91,120
2,46,91,696
2,48,85,120
2,51,91,124
2,53,91,124
2,55,91,128
2,46,90,316
2,48,89,100
2,55,89,48
2,53,88,96
2,51,88,48
2,46,90,240
2,48,89,100
2,55,89,52
2,53,88,96
2,51,88,48
2,46,90,240
2,48,89,96
2,55,89,52
2,53,88,100
2,51,88,52
2,46,87,56
2,46,86,476
2,48,85,120
2,51,85,148
2,46,91,316
2,48,85,124
2,51,91,120
2,46,91,696
2,48,85,124
2,51,91,120
2,53,91,124
2,55,91,120
2,46,91,312
2,48,85,124
2,51,91,120
2,46,91,696
2,48,85,124
2,51,91,120
2,53,91,124
2,55,91,124
2,46,90,312
2,48,89,100
2,55,89,48
2,53,88,96
2,51,88,52
2,46,90,240
2,48,89,100
2,55,89,48
2,53,88,100
2,51,88,52
2,46,90,240
2,48,89,96
2,55,89,48
2,53,88,96
2,51,88,48
2,46,87,48
2,46,86,480
2,48,85,120
2,51,85,144
2,46,91,316
2,48,85,124
2,51,91,124
2,46,91,696
2,48,85,120
2,51,91,120
2,46,91,696
2,48,85,120
2,51,91,120
2,46,91,696
2,48,85,120
2,51,91,120
2,53,91,120
2,55,91,120
2,46,90,316
2,48,89,96
2,55,89,48
2,53,88,96
2,51,88,48
2,46,90,240
2,48,89,96
2,55,89,48
2,53,88,96
2,51,88,56
2,46,90,240
2,48,89,100
2,55,89,48
2,53,88,96
2,51,88,52
2,46,87,48
2,46,86,480
2,48,85,120
2,51,85,144
2,46,91,316
2,48,85,120
2,51,91,120
2,46,91,696
2,48,85,120
2,51,91,120
2,46,91,700
2,48,85,120
2,51,91,124
2,46,91,700
2,48,85,120
2,51,91,120
2,46,90,696
2,48,89,100
2,55,89,48
2,53,88,96
2,51,88,48
2,46,90,240
2,48,89,104
2,55,89,48
2,53,88,96
2,51,88,52
2,46,90,240
2,48,89,100
2,55,89,48
2,53,88,96
2,51,88,52
2,46,87,48
2,46,86,476
2,48,85,120
2,51,85,148
2,48,89,312
2,50,89,108
2,51,89,96
2,50,89,80
2,48,89,112
2,50,89,304
2,51,88,108
2,53,88,132
2,51,88,100
2,50,88,128
2,51,88,316
2,53,88,120
2,55,88,120
2,53,88,108
2,51,88,120
2,55,88,336
2,58,88,112
2,60,88,136
2,63,88,688
2,60,88,0
2,55,88,4
2,62,87,104
2,58,87,0
2,53,87,4
2,63,87,100
2,60,87,4
2,51,87,0
2,62,87,668
2,58,87,4
2,53,87,0
2,60,87,104
2,55,87,0
2,62,87,104
2,58,87,0
2,63,87,684
2,60,87,0
2,55,87,4
2,62,87,104
2,58,87,4
2,53,87,0
2,63,87,112
2,60,87,4
2,55,87,0
2,55,87,500
2,55,86,488
2,55,86,112
2,48,86,8
2,55,86,100
2,51,86,4
2,46,91,276
2,48,85,124
2,51,91,120
2,46,91,696
2,48,85,120
2,51,91,120
2,53,91,124
2,55,91,120
2,46,91,320
2,48,85,120
2,51,91,120
2,46,91,696
