track,note,velocity,time
1,70,80,626
1,75,78,2
1,79,82,0
1,80,89,18
1,75,74,0
1,70,87,2
1,79,87,190
1,70,64,20
1,77,87,2
1,74,87,0
1,72,87,34
1,70,78,0
1,75,76,0
1,72,87,22
1,75,76,0
1,68,93,2
1,74,82,18
1,67,74,0
1,70,70,2
1,72,85,32
1,68,95,0
1,65,95,0
1,68,82,16
1,72,70,0
1,65,78,0
1,65,59,4
1,68,58,4
1,72,78,10
1,75,82,46
1,79,89,60
1,70,82,0
1,75,85,0
1,80,85,18
1,75,78,0
1,70,91,2
1,79,80,194
1,77,85,18
1,70,80,0
1,74,91,2
1,72,82,24
1,75,68,0
1,70,89,0
1,75,63,18
1,72,85,2
1,68,91,0
1,74,82,22
1,67,82,0
1,70,82,0
1,72,61,28
1,68,95,0
1,65,87,0
1,71,64,2
1,72,91,22
1,68,91,0
1,65,89,2
1,65,57,6
1,68,57,2
1,72,72,12
1,75,78,46
1,70,80,62
1,75,78,2
1,79,82,0
1,80,89,18
1,75,74,0
1,70,87,2
1,79,87,190
1,70,64,20
1,77,87,2
1,74,87,0
1,72,87,34
1,70,78,0
1,75,76,0
1,72,87,22
1,75,76,0
1,68,93,2
1,74,82,18
1,67,74,0
1,70,70,2
1,72,85,32
1,68,95,0
1,65,95,0
1,68,82,16
1,72,70,0
1,65,78,0
1,65,59,4
1,68,58,4
1,72,78,10
1,75,82,46
1,79,89,60
1,70,82,0
1,75,85,0
1,80,85,18
1,75,78,0
1,70,91,2
1,79,80,194
1,77,85,18
1,70,80,0
1,74,91,2
1,72,82,24
1,75,68,0
1,70,89,0
1,75,63,18
1,72,85,2
1,68,91,0
1,74,82,22
1,67,82,0
1,70,82,0
1,72,61,28
1,68,95,0
1,65,87,0
1,71,64,2
1,72,91,22
1,68,91,0
1,65,89,2
1,65,57,6
1,68,57,2
1,72,72,12
1,75,78,46
1,72,100,60
1,75,95,0
1,79,89,0
1,79,91,20
1,75,93,0
1,71,98,0
1,75,76,22
1,79,87,0
1,70,98,2
1,69,82,24
1,72,91,0
1,77,87,2
1,72,85,16
1,75,68,0
1,68,98,2
1,74,89,12
1,70,95,2
1,67,85,0
1,72,87,22
1,68,102,0
1,65,98,2
1,72,85,24
1,68,100,0
1,65,100,0
1,75,85,2
1,65,70,6
1,68,76,0
1,72,72,16
1,75,85,38
1,79,82,40
1,70,68,0
1,75,72,0
1,80,85,134
1,75,78,0
1,70,91,2
1,79,80,194
1,77,85,18
1,70,80,0
1,74,91,2
1,72,82,24
1,75,68,0
1,70,89,0
1,75,63,18
1,72,85,2
1,68,91,0
1,74,82,22
1,67,82,0
1,70,82,0
1,72,61,28
1,68,95,0
1,65,87,0
1,71,64,2
1,72,91,22
1,68,91,0
1,65,89,2
1,65,57,6
1,68,57,2
1,72,72,12
1,75,78,46
1,70,80,62
1,75,78,2
1,79,82,0
1,80,89,18
1,75,74,0
1,70,87,2
1,79,87,190
1,70,64,20
1,77,87,2
1,74,87,0
1,72,87,34
1,70,78,0
1,75,76,0
1,72,87,22
1,75,76,0
1,68,93,2
1,74,82,18
1,67,74,0
1,70,70,2
1,72,85,32
1,68,95,0
1,65,95,0
1,68,82,16
1,72,70,0
1,65,78,0
1,65,59,4
1,68,58,4
1,72,78,10
1,75,82,46
1,79,89,60
1,70,82,0
1,75,85,0
1,80,85,18
1,75,78,0
1,70,91,2
1,79,80,194
1,77,85,18
1,70,80,0
1,74,91,2
1,72,82,24
1,75,68,0
1,70,89,0
1,75,63,18
1,72,85,2
1,68,91,0
1,74,82,22
1,67,82,0
1,70,82,0
1,72,61,28
1,68,95,0
1,65,87,0
1,71,64,2
1,72,91,22
1,68,91,0
1,65,89,2
1,65,57,6
1,68,57,2
1,72,72,12
1,75,78,46
1,72,100,60
1,75,95,0
1,79,89,0
1,79,91,20
1,75,93,0
1,71,98,0
1,75,76,22
1,79,87,0
1,70,98,2
1,69,82,24
1,72,91,0
1,77,87,2
1,72,85,16
1,75,68,0
1,68,98,2
1,74,89,12
1,70,95,2
1,67,85,0
1,72,87,22
1,68,102,0
1,65,98,2
1,72,85,24
1,68,100,0
1,65,100,0
1,75,85,2
1,65,70,6
1,68,76,0
1,72,72,16
1,75,85,38
1,79,82,40
1,70,68,0
1,75,72,0
1,80,85,134
1,75,78,0
1,70,91,2
1,79,80,194
1,77,85,18
1,70,80,0
1,74,91,2
1,72,82,24
1,75,68,0
1,70,89,0
1,75,63,18
1,72,85,2
1,68,91,0
1,74,82,22
1,67,82,0
1,70,82,0
1,72,61,28
1,68,95,0
1,65,87,0
1,71,64,2
1,72,91,22
1,68,91,0
1,65,89,2
1,65,57,6
1,68,57,2
1,72,72,12
1,75,78,46
1,70,80,62
1,75,78,2
1,79,82,0
1,80,89,18
1,75,74,0
1,70,87,2
1,79,87,190
1,70,64,20
1,77,87,2
1,74,87,0
1,72,87,34
1,70,78,0
1,75,76,0
1,72,87,22
1,75,76,0
1,68,93,2
1,74,82,18
1,67,74,0
1,70,70,2
1,72,85,32
1,68,95,0
1,65,95,0
1,68,82,16
1,72,70,0
1,65,78,0
1,65,59,4
1,68,58,4
1,72,78,10
1,75,82,46
1,79,89,60
1,70,82,0
1,75,85,0
1,80,85,18
1,75,78,0
1,70,91,2
1,79,80,194
1,77,85,18
1,70,80,0
1,74,91,2
1,72,82,24
1,75,68,0
1,70,89,0
1,75,63,18
1,72,85,2
1,68,91,0
1,74,82,22
1,67,82,0
1,70,82,0
1,72,61,28
1,68,95,0
1,65,87,0
1,71,64,2
1,72,91,22
1,68,91,0
1,65,89,2
1,65,57,6
1,68,57,2
1,72,72,12
1,75,78,46
1,72,100,60
1,75,95,0
1,79,89,0
1,79,91,20
1,75,93,0
1,71,98,0
1,75,76,22
1,79,87,0
1,70,98,2
1,69,82,24
1,72,91,0
1,77,87,2
1,72,85,16
1,75,68,0
1,68,98,2
1,74,89,12
1,70,95,2
1,67,85,0
1,72,87,22
1,68,102,0
1,65,98,2
1,72,85,24
1,68,100,0
1,65,100,0
1,75,85,2
1,65,70,6
1,68,76,0
1,72,72,16
1,75,85,38
1,79,82,40
1,70,68,0
1,75,72,0
1,80,85,134
1,75,78,0
1,70,91,2
1,79,80,194
1,77,85,18
1,70,80,0
1,74,91,2
1,72,82,24
1,75,68,0
1,70,89,0
1,75,63,18
1,72,85,2
1,68,91,0
1,74,82,22
1,67,82,0
1,70,82,0
1,72,61,28
1,68,95,0
1,65,87,0
1,71,64,2
1,72,91,22
1,68,91,0
1,65,89,2
1,65,57,6
1,68,57,2
1,72,72,12
1,75,78,46
1,79,82,60
1,70,68,0
1,75,72,0
1,80,85,134
1,75,78,0
1,70,91,2
1,79,80,194
1,77,85,18
1,70,80,0
1,74,91,2
1,72,82,24
1,75,68,0
1,70,89,0
1,75,63,18
1,72,85,2
1,68,91,0
1,74,82,22
1,67,82,0
1,70,82,0
1,72,61,28
1,68,95,0
1,65,87,0
1,71,64,2
1,72,91,22
1,68,91,0
1,65,89,2
1,65,57,6
1,68,57,2
1,72,72,12
1,75,78,46
1,79,82,60
1,70,68,0
1,75,72,0
1,80,85,134
1,75,78,0
1,70,91,2
1,79,80,194
1,77,85,18
1,70,80,0
1,74,91,2
1,72,82,24
1,75,68,0
1,70,89,0
1,75,63,18
1,72,85,2
1,68,91,0
1,74,82,22
1,67,82,0
1,70,82,0
1,72,61,28
1,68,95,0
1,65,87,0
1,71,64,2
1,72,91,22
1,68,91,0
1,65,89,2
1,65,57,6
1,68,57,2
1,72,72,12
1,75,78,46
1,79,82,60
1,70,68,0
1,75,72,0
1,80,85,134
1,75,78,0
1,70,91,2
1,79,80,194
1,77,85,18
1,70,80,0
1,74,91,2
1,72,82,24
1,75,68,0
1,70,89,0
1,75,63,18
1,72,85,2
1,68,91,0
1,74,82,22
1,67,82,0
1,70,82,0
1,72,61,28
1,68,95,0
1,65,87,0
1,71,64,2
1,72,91,22
1,68,91,0
1,65,89,2
1,65,57,6
1,68,57,2
1,72,72,12
1,75,78,46
1,70,70,60
1,67,82,0
1,75,98,6
2,46,31,6842
2,48,53,4
2,51,48,0
2,46,33,172
2,48,47,6
2,51,50,4
2,46,43,150
2,48,47,4
2,51,38,4
2,46,39,164
2,48,49,6
2,51,46,0
2,46,51,162
2,48,51,12
2,55,57,8
2,53,47,2
2,51,23,6
2,46,38,92
2,48,47,8
2,55,47,10
2,53,37,8
2,51,45,0
2,46,33,86
2,48,48,2
2,51,32,8
2,46,47,152
2,48,58,8
2,53,60,0
2,46,56,104
2,48,57,24
2,51,49,2
2,46,47,182
2,48,40,12
2,51,38,10
2,46,46,166
2,48,52,6
2,51,48,8
2,46,48,184
2,48,51,4
2,51,45,6
2,46,58,148
2,48,54,6
2,55,53,12
2,53,50,4
2,51,47,60
2,46,52,104
2,48,58,26
2,55,60,12
2,53,52,4
2,51,37,2
2,46,47,84
2,48,53,8
2,51,48,10
2,46,56,194
2,48,55,6
2,53,70,2
2,46,56,3210
2,48,55,0
2,51,49,2
2,46,40,180
2,48,53,0
2,51,51,4
2,46,57,166
2,48,57,20
2,51,46,6
2,46,50,182
2,48,54,2
2,51,48,2
2,46,47,162
2,48,38,6
2,55,68,74
2,53,57,56
2,51,49,2
2,46,53,78
2,48,23,8
2,55,52,2
2,53,59,66
2,51,48,0
2,46,50,82
2,48,47,2
2,51,42,6
2,46,57,172
2,48,55,6
2,53,39,6
2,46,31,104
2,48,53,4
2,51,48,0
2,46,33,172
2,48,47,6
2,51,50,4
2,46,43,150
2,48,47,4
2,51,38,4
2,46,39,164
2,48,49,6
2,51,46,0
2,46,51,162
2,48,51,12
2,55,57,8
2,53,47,2
2,51,23,6
2,46,38,92
2,48,47,8
2,55,47,10
2,53,37,8
2,51,45,0
2,46,33,86
2,48,48,2
2,51,32,8
2,46,47,152
2,48,58,8
2,53,60,0
2,46,56,104
2,48,57,24
2,51,49,2
2,46,47,182
2,48,40,12
2,51,38,10
2,46,46,166
2,48,52,6
2,51,48,8
2,46,48,184
2,48,51,4
2,51,45,6
2,46,58,148
2,48,54,6
2,55,53,12
2,53,50,4
2,51,47,60
2,46,52,104
2,48,58,26
2,55,60,12
2,53,52,4
2,51,37,2
2,46,47,84
2,48,53,8
2,51,48,10
2,46,56,194
2,48,55,6
2,53,70,2
2,46,31,6288
2,48,53,4
2,51,48,0
2,46,33,172
2,48,47,6
2,51,50,4
2,46,43,150
2,48,47,4
2,51,38,4
2,46,39,164
2,48,49,6
2,51,46,0
2,46,51,162
2,48,51,12
2,55,57,8
2,53,47,2
2,51,23,6
2,46,38,92
2,48,47,8
2,55,47,10
2,53,37,8
2,51,45,0
2,46,33,86
2,48,48,2
2,51,32,8
2,46,47,152
2,48,58,8
2,53,60,0
2,46,56,104
2,48,57,24
2,51,49,2
2,46,47,182
2,48,40,12
2,51,38,10
2,46,46,166
2,48,52,6
2,51,48,8
2,46,48,184
2,48,51,4
2,51,45,6
2,46,58,148
2,48,54,6
2,55,53,12
2,53,50,4
2,51,47,60
2,46,52,104
2,48,58,26
2,55,60,12
2,53,52,4
2,51,37,2
2,46,47,84
2,48,53,8
2,51,48,10
2,46,56,194
2,48,55,6
2,53,70,2
2,46,56,3210
2,48,55,0
2,51,49,2
2,46,40,180
2,48,53,0
2,51,51,4
2,46,57,166
2,48,57,20
2,51,46,6
2,46,50,182
2,48,54,2
2,51,48,2
2,46,47,162
2,48,38,6
2,55,68,74
2,53,57,56
2,51,49,2
2,46,53,78
2,48,23,8
2,55,52,2
2,53,59,66
2,51,48,0
2,46,50,82
2,48,47,2
2,51,42,6
2,46,57,172
2,48,55,6
2,53,39,6
2,46,52,96
2,46,56,0
2,48,46,58
2,48,55,0
2,51,47,0
2,51,49,0
2,46,49,168
2,46,40,0
2,48,57,52
2,48,53,0
2,51,51,4
2,46,49,257
2,48,52,59
2,48,57,0
2,51,41,4
2,51,46,0
2,46,50,182
2,46,51,0
2,48,52,56
2,48,54,0
2,51,53,0
2,51,48,0
2,46,47,162
2,46,51,0
2,48,38,6
2,48,51,0
2,55,56,70
2,55,68,0
2,53,57,56
2,53,42,0
2,51,49,56
2,51,49,0
2,46,53,78
2,46,55,0
2,48,36,2
2,48,23,0
2,55,52,64
2,55,10,0
2,53,59,48
2,53,56,0
2,51,30,0
2,46,50,129
2,48,47,2
2,51,42,6
2,46,57,172
2,48,55,6
2,53,39,6
2,46,56,98
2,48,55,0
2,51,49,2
2,46,40,180
2,48,53,0
2,51,51,4
2,46,57,166
2,48,57,20
2,51,46,6
2,46,50,182
2,48,54,2
2,51,48,2
2,46,47,162
2,48,38,6
2,55,68,74
2,53,57,56
2,51,49,2
2,46,53,78
2,48,23,8
2,55,52,2
2,53,59,66
2,51,48,0
2,46,50,82
2,48,47,2
2,51,42,6
2,46,57,172
2,48,55,6
2,53,39,6
2,46,56,98
2,48,55,0
2,51,49,2
2,46,40,180
2,48,53,0
2,51,51,4
2,46,57,166
2,48,57,20
2,51,46,6
2,46,50,182
2,48,54,2
2,51,48,2
2,46,47,162
2,48,38,6
2,55,68,74
2,53,57,56
2,51,49,2
2,46,53,78
2,48,23,8
2,55,52,2
2,53,59,66
2,51,48,0
2,46,50,82
2,48,47,2
2,51,42,6
2,46,57,172
2,48,55,6
2,53,39,6
2,51,66,30
3,87,54,624
3,82,71,2
3,91,72,0
3,92,58,386
3,91,72,182
3,82,38,10
3,86,73,0
3,89,58,8
3,84,64,4
3,87,68,0
3,84,86,10
3,87,63,0
3,80,75,2
3,79,75,12
3,82,62,6
3,86,66,8
3,77,76,6
3,80,63,18
3,84,69,4
3,89,76,74
3,90,54,0
3,87,56,0
3,82,73,0
3,91,82,2
3,87,62,10
3,92,68,2
3,82,81,0
3,91,70,0
3,82,71,8
3,86,70,4
3,89,66,6
3,84,65,4
3,83,53,2
3,87,64,0
3,84,83,10
3,87,56,2
3,80,75,0
3,79,67,0
3,82,68,10
3,86,64,6
3,77,72,0
3,80,68,18
3,84,78,8
3,89,86,388
3,72,85,6152
3,79,76,0
3,84,88,0
3,75,73,0
3,79,76,12
3,75,73,0
3,83,90,2
3,71,86,0
3,72,83,2
3,79,65,12
3,75,60,2
3,70,84,2
3,82,81,0
3,77,54,90
3,81,65,0
3,69,62,2
3,72,70,0
3,75,53,16
3,72,66,0
3,80,73,2
3,68,81,0
3,74,73,38
3,70,75,4
3,67,85,0
3,79,83,0
3,77,88,2
3,68,53,64
3,72,70,2
3,77,86,4
3,65,70,0
3,75,36,4
3,68,57,8
3,75,54,2
3,65,79,0
3,77,73,100
3,90,54,0
3,87,56,0
3,82,73,0
3,91,82,2
3,87,62,10
3,92,68,2
3,82,81,0
3,91,70,0
3,82,71,8
3,86,70,4
3,89,66,6
3,84,65,4
3,83,53,2
3,87,64,0
3,84,83,10
3,87,56,2
3,80,75,0
3,79,67,0
3,82,68,10
3,86,64,6
3,77,72,0
3,80,68,18
3,84,78,8
3,89,86,388
3,72,85,6152
3,79,76,0
3,84,88,0
3,75,73,0
3,79,76,12
3,75,73,0
3,83,90,2
3,71,86,0
3,72,83,2
3,79,65,12
3,75,60,2
3,70,84,2
3,82,81,0
3,77,54,90
3,81,65,0
3,69,62,2
3,72,70,0
3,75,53,16
3,72,66,0
3,80,73,2
3,68,81,0
3,74,73,38
3,70,75,4
3,67,85,0
3,79,83,0
3,77,88,2
3,68,53,64
3,72,70,2
3,77,86,4
3,65,70,0
3,75,36,4
3,68,57,8
3,75,54,2
3,65,79,0
3,77,73,100
3,90,54,0
3,87,56,0
3,82,73,0
3,91,82,2
3,87,62,10
3,92,68,2
3,82,81,0
3,91,70,0
3,82,71,8
3,86,70,4
3,89,66,6
3,84,65,4
3,83,53,2
3,87,64,0
3,84,83,10
3,87,56,2
3,80,75,0
3,79,67,0
3,82,68,10
3,86,64,6
3,77,72,0
3,80,68,18
3,84,78,8
3,89,86,388
3,72,85,6152
3,79,76,0
3,84,88,0
3,75,73,0
