track,note,velocity,time
0,42,50,0
0,42,40,141
0,42,40,141
0,47,83,141
0,45,76,45
0,41,68,45
0,27,87,45
0,67,66,1
0,55,75,0
0,63,75,0
0,57,54,0
0,58,75,1
0,87,50,0
0,91,45,1
0,46,91,42
0,42,45,0
0,42,33,15
0,48,85,13
0,46,48,0
0,51,91,30
0,42,63,0
0,37,103,0
0,39,87,5
0,42,42,0
0,91,45,1
0,91,45,12
0,34,86,1
0,67,73,0
0,42,55,0
0,35,84,0
0,27,86,0
0,63,73,0
0,68,73,1
0,70,73,0
0,75,58,0
0,42,59,0
0,35,84,0
0,92,62,1
0,92,45,0
0,46,91,37
0,42,38,0
0,42,33,14
0,31,86,0
0,48,85,0
0,42,51,0
0,51,91,0
0,67,78,0
0,70,78,1
0,63,78,0
0,75,58,0
0,42,55,0
0,37,101,0
0,91,45,2
0,91,62,0
0,34,86,0
0,42,42,0
0,42,55,45
0,35,82,0
0,36,85,1
0,67,60,0
0,62,92,0
0,58,86,0
0,35,82,0
0,42,61,0
0,89,70,1
0,89,45,0
0,46,91,44
0,42,45,0
0,42,33,15
0,48,85,13
0,46,48,0
0,51,91,31
0,42,63,0
0,37,103,0
0,31,85,12
0,42,42,0
0,89,45,2
0,89,45,0
0,72,55,1
0,42,55,0
0,35,84,0
0,36,85,0
0,63,70,1
0,60,70,0
0,58,70,0
0,77,54,0
0,42,59,0
0,35,84,0
0,72,64,1
0,84,45,1
0,46,91,44
0,42,38,0
0,42,33,14
0,48,85,13
0,42,51,0
0,31,85,0
0,51,91,0
0,77,52,0
0,42,55,0
0,37,101,0
0,89,45,2
0,36,84,0
0,42,42,0
0,35,82,0
0,84,45,6
0,36,84,0
0,60,70,0
0,42,55,0
0,63,70,1
0,72,52,0
0,35,82,0
0,32,87,1
0,63,70,0
0,56,70,0
0,58,70,0
0,35,82,0
0,42,61,0
0,75,66,1
0,87,45,1
0,75,47,0
0,46,90,25
0,42,45,0
0,42,33,8
0,48,89,13
0,46,48,0
0,39,86,0
0,55,89,0
0,42,63,0
0,37,103,0
0,27,86,0
0,53,88,0
0,42,42,0
0,84,45,1
0,87,45,11
0,29,86,0
0,51,88,0
0,42,55,0
0,35,84,0
0,31,86,0
0,55,67,0
0,62,67,0
0,42,59,0
0,58,67,1
0,74,46,0
0,35,84,0
0,74,47,1
0,86,45,0
0,46,90,36
0,42,38,0
0,42,33,8
0,36,86,0
0,48,89,0
0,42,51,0
0,55,89,12
0,42,55,0
0,37,101,0
0,77,66,1
0,84,45,23
0,27,86,0
0,53,88,0
0,42,42,0
0,98,45,0
0,31,86,0
0,51,88,0
0,42,55,0
0,35,82,0
0,29,85,0
0,35,82,0
0,42,61,0
0,56,69,2
0,60,69,0
0,96,45,0
0,72,47,1
0,46,90,40
0,42,45,0
0,42,33,8
0,31,85,1
0,46,48,0
0,48,89,1
0,55,89,12
0,42,63,0
0,37,103,0
0,32,85,1
0,42,42,0
0,53,88,1
0,101,45,0
0,96,45,11
0,33,85,0
0,51,88,0
0,42,55,0
0,35,84,0
0,70,47,2
0,34,85,0
0,42,59,0
0,35,84,0
0,58,67,1
0,91,45,1
0,60,67,0
0,63,67,0
0,67,44,0
0,29,85,0
0,42,38,0
0,42,33,29
0,34,85,0
0,42,51,0
0,36,85,0
0,42,55,0
0,37,101,0
0,101,45,1
0,34,84,0
0,42,42,0
0,31,84,0
0,42,55,0
0,35,82,0
0,27,78,0
0,67,66,1
0,55,75,0
0,63,75,0
0,35,84,0
0,42,61,0
0,58,75,1
0,87,40,0
0,91,45,1
0,46,91,41
0,42,45,0
0,42,33,15
0,48,85,13
0,46,48,0
0,51,91,30
0,42,63,0
0,37,103,0
0,67,66,1
0,70,68,0
0,42,42,12
0,91,45,0
0,70,68,0
0,91,45,10
0,27,78,2
0,42,55,0
0,35,84,0
0,67,64,0
0,27,92,0
0,63,73,0
0,68,73,1
0,70,73,0
0,75,58,0
0,92,62,0
0,42,59,0
0,35,84,0
0,92,45,1
0,70,78,1
0,46,91,0
0,42,38,0
0,39,74,1
0,72,74,0
0,42,33,7
0,48,85,13
0,42,51,0
0,51,91,0
0,67,78,0
0,70,78,1
0,63,78,0
0,75,58,0
0,42,55,0
0,37,101,0
0,91,45,1
0,91,62,1
0,42,42,30
0,34,76,12
0,42,55,0
0,35,82,0
0,36,86,1
0,67,60,0
0,62,92,0
0,35,82,0
0,42,61,0
0,58,86,1
0,89,70,0
0,89,45,0
0,46,91,44
0,42,45,0
0,42,33,14
0,48,85,13
0,46,48,0
0,67,62,2
0,70,76,8
0,51,91,19
0,42,63,0
0,37,103,0
0,74,76,2
0,42,42,16
0,89,45,2
0,89,45,18
0,72,55,1
0,42,55,0
0,35,84,0
0,63,70,0
0,60,70,0
0,42,59,0
0,58,70,1
0,77,54,0
0,72,64,0
0,35,84,0
0,36,75,1
0,84,45,0
0,46,91,0
0,42,38,0
0,67,56,1
0,42,33,14
0,31,84,1
0,48,85,0
0,42,51,0
0,65,68,0
0,51,91,1
0,77,52,0
0,42,55,0
0,37,101,0
0,89,45,1
0,67,64,0
0,65,54,5
0,36,80,0
0,53,91,0
0,42,42,0
0,35,82,0
0,63,58,1
0,84,45,0
0,36,80,0
0,55,91,0
0,58,70,1
0,60,70,0
0,63,70,0
0,42,55,0
0,35,82,0
0,72,52,1
0,32,87,1
0,63,70,0
0,56,70,0
0,58,70,0
0,35,82,0
0,42,61,0
0,75,66,1
0,87,45,0
0,75,47,0
0,46,90,24
0,42,45,0
0,42,33,8
0,48,89,13
0,46,48,0
0,55,89,0
0,42,63,0
0,37,103,0
0,75,78,2
0,53,88,3
0,42,42,0
0,74,93,0
0,84,45,1
0,87,45,1
0,51,88,1
0,42,55,0
0,35,84,0
0,31,84,3
0,55,67,0
0,62,67,1
0,58,67,0
0,42,59,0
0,35,84,0
0,74,46,1
0,74,47,1
0,86,45,0
0,46,90,36
0,72,86,0
0,42,38,0
0,42,33,8
0,36,92,0
0,48,89,0
0,42,51,0
0,55,89,6
0,70,80,0
0,42,55,0
0,37,101,0
0,77,66,1
0,84,45,23
0,27,86,0
0,53,88,0
0,42,42,0
0,68,74,0
0,98,45,0
0,31,86,0
0,42,55,0
0,35,82,0
0,51,88,1
0,35,82,1
0,42,61,0
0,29,85,1
0,56,69,1
0,60,69,0
0,96,45,0
0,72,47,1
0,46,90,40
0,42,45,0
0,42,33,9
0,48,89,13
0,46,48,0
0,31,85,0
0,55,89,0
0,42,63,0
0,37,103,0
0,68,72,2
0,53,88,25
0,101,45,0
0,42,42,0
0,70,78,2
0,96,45,11
0,51,88,1
0,77,80,0
0,42,55,0
0,35,84,0
0,70,47,2
0,34,85,0
0,46,87,0
0,42,59,0
0,35,84,0
0,58,67,2
0,91,45,0
0,60,67,0
0,63,67,0
0,67,44,0
0,77,78,1
0,42,38,24
0,42,33,29
0,42,51,13
0,46,86,0
0,47,61,0
0,37,101,0
0,31,87,1
0,101,45,1
0,48,85,6
0,45,65,0
0,43,67,3
0,35,82,0
0,51,85,0
0,27,78,4
0,67,66,1
0,55,75,0
0,63,75,0
0,42,45,0
0,35,84,0
0,58,75,1
0,87,40,0
0,91,45,1
0,46,91,41
0,42,45,0
0,42,33,14
0,48,85,13
0,46,48,0
0,51,91,30
0,42,63,0
0,37,103,0
0,67,52,2
0,70,78,30
0,42,42,0
0,91,45,1
0,91,45,10
0,27,78,1
0,42,55,0
0,35,84,0
0,70,74,1
0,67,58,0
0,27,92,0
0,63,73,0
0,68,73,1
0,70,73,0
0,75,58,0
0,42,59,0
0,35,84,0
0,92,62,1
0,92,45,1
0,70,72,1
0,46,91,0
0,70,84,0
0,42,38,0
0,39,74,1
0,42,33,12
0,48,85,13
0,42,51,0
0,51,91,0
0,67,78,0
0,70,78,1
0,63,78,0
0,75,58,0
0,42,55,0
0,37,101,0
0,91,45,1
0,91,62,1
0,42,42,30
0,34,76,12
0,42,55,0
0,35,82,0
0,36,86,0
0,67,60,1
0,62,92,0
0,58,86,0
0,35,82,0
0,42,61,0
0,89,70,1
0,89,45,0
0,46,91,44
0,42,45,0
0,42,33,15
0,48,85,13
0,46,48,0
0,67,62,2
0,70,64,7
0,51,91,19
0,42,63,0
0,37,103,0
0,74,76,2
0,42,42,16
0,89,45,2
0,89,45,18
0,72,55,1
0,42,55,0
0,35,84,0
0,63,70,0
0,60,70,0
0,42,59,0
0,58,70,1
0,77,54,0
0,72,64,0
0,35,84,0
0,36,75,1
0,84,45,0
0,46,91,44
0,42,38,0
0,70,56,1
0,42,33,14
0,31,84,1
0,48,85,0
0,42,51,0
0,51,91,0
0,77,52,0
0,42,55,0
0,37,101,0
0,89,45,1
0,67,72,0
0,65,58,1
0,36,80,0
0,42,42,0
0,35,82,0
0,63,64,1
0,84,45,0
0,36,80,0
0,58,70,1
0,60,70,0
0,63,70,0
0,72,52,0
0,42,55,0
0,35,82,0
0,32,87,0
0,63,70,1
0,56,70,0
0,58,70,0
0,35,82,0
0,42,61,0
0,75,66,1
0,87,45,1
0,75,47,0
0,46,90,24
0,42,45,0
0,42,33,8
0,48,89,13
0,46,48,0
0,55,89,0
0,42,63,0
0,37,103,0
0,75,92,2
0,74,86,8
0,53,88,0
0,42,42,0
0,84,45,1
0,87,45,2
0,51,88,1
0,42,55,0
0,35,84,0
0,31,84,7
0,55,67,0
0,62,67,1
0,58,67,0
0,42,59,0
0,35,84,0
0,74,46,1
0,74,47,1
0,86,45,0
0,46,90,0
0,42,38,0
0,72,80,0
0,42,33,8
0,36,92,0
0,48,89,0
0,42,51,0
0,67,68,0
0,55,89,1
0,70,80,0
0,42,55,0
0,37,101,0
0,77,66,1
0,84,45,23
0,27,86,0
0,53,88,0
0,42,42,0
0,98,45,0
0,31,86,0
0,51,88,0
0,42,55,0
0,35,82,0
0,70,80,0
0,29,85,0
0,35,82,0
0,42,61,0
0,56,69,2
0,60,69,0
0,70,92,0
0,96,45,0
0,72,47,1
0,46,90,40
0,42,45,0
0,68,68,0
0,42,33,9
0,48,89,13
0,46,48,0
0,31,85,0
0,55,89,0
0,42,63,0
0,37,103,0
0,53,88,25
0,101,45,0
0,42,42,0
0,68,86,1
0,96,45,11
0,51,88,1
0,77,98,0
0,42,55,0
0,35,84,0
0,70,47,1
0,34,85,0
0,46,87,0
0,42,59,0
0,35,84,0
0,58,67,2
0,91,45,0
0,77,81,0
0,60,67,0
0,63,67,0
0,67,44,0
0,42,38,23
0,42,33,29
0,42,51,13
0,46,86,0
0,47,64,0
0,37,101,0
0,31,87,1
0,101,45,0
0,48,85,1
0,45,68,0
0,75,80,0
0,34,64,2
0,43,70,0
0,35,82,0
0,77,98,0
0,51,85,1
0,36,81,0
0,60,76,0
0,63,74,0
0,57,54,0
0,35,84,0
0,67,52,1
0,96,45,1
0,79,80,0
0,48,84,34
0,42,45,1
0,77,70,0
0,42,33,12
0,50,84,3
0,46,48,1
0,75,68,1
0,51,84,9
0,42,63,1
0,37,103,0
0,99,45,1
0,75,74,0
0,50,84,6
0,31,81,0
0,98,45,0
0,42,42,0
0,75,76,2
0,48,84,0
0,36,80,0
0,60,86,0
0,77,76,0
0,42,55,0
0,35,84,0
0,96,45,1
0,35,80,0
0,65,58,0
0,62,86,1
0,59,63,0
0,79,78,0
0,42,59,0
0,35,84,0
0,95,45,2
0,98,45,0
0,42,38,35
0,50,84,1
0,77,70,1
0,42,33,11
0,51,83,1
0,42,51,0
0,75,70,2
0,31,80,0
0,83,36,0
0,75,70,0
0,42,55,0
0,53,83,1
0,95,45,0
0,37,101,0
0,35,80,0
0,51,83,0
0,42,42,0
0,50,83,18
0,31,80,0
0,62,80,0
0,75,81,0
0,59,74,1
0,65,66,0
0,42,55,0
0,35,82,0
0,34,80,0
0,35,82,0
0,42,61,1
0,82,36,1
0,94,45,0
0,63,80,0
0,67,48,0
0,58,80,0
0,79,78,0
0,42,45,35
0,51,83,1
0,77,78,0
0,42,33,15
0,53,83,1
0,75,80,1
0,46,48,0
0,31,79,0
0,55,83,0
0,75,80,0
0,42,63,0
0,37,103,0
0,94,44,1
0,53,83,0
0,34,79,0
0,42,42,0
0,75,78,1
0,91,44,1
0,51,83,0
0,29,79,1
0,42,55,0
0,35,84,0
0,63,78,1
0,89,44,0
0,77,78,0
0,58,86,1
0,67,39,0
0,63,86,19
0,33,79,0
0,42,59,0
0,35,84,0
0,57,70,1
0,67,54,0
0,87,44,1
0,79,72,1
0,42,38,35
0,55,83,0
0,77,76,0
0,42,33,14
0,58,83,12
0,42,51,1
0,75,78,1
0,60,83,34
0,42,55,1
0,37,101,0
0,94,43,2
0,79,76,0
0,39,79,7
0,33,79,0
0,42,42,0
0,35,82,0
0,91,43,1
0,29,78,0
0,57,62,0
0,42,55,0
0,84,43,1
0,35,82,0
0,32,78,0
0,35,84,0
0,86,43,1
0,42,61,0
0,60,86,0
0,63,70,0
0,56,76,1
0,79,115,2
0,63,83,6
0,60,83,0
0,55,83,0
0,42,45,0
0,79,92,0
0,42,33,10
0,62,82,11
0,58,82,0
0,46,48,0
0,53,82,1
0,79,76,0
0,94,43,11
0,39,78,0
0,63,82,0
0,42,63,0
0,37,103,0
0,60,82,1
0,51,82,0
0,91,43,1
0,79,86,0
0,86,43,0
0,32,78,0
0,42,42,0
0,77,80,0
0,82,43,0
0,27,78,0
0,42,55,0
0,35,84,0
0,75,72,1
0,62,72,0
0,31,78,0
0,42,59,0
0,35,84,0
0,58,74,1
0,84,43,1
0,55,64,0
0,77,80,0
0,62,82,0
0,42,38,0
0,58,82,1
0,53,82,0
0,84,43,0
0,70,80,1
0,42,33,10
0,36,78,0
0,60,82,0
0,42,51,0
0,55,82,1
0,84,43,0
0,72,78,0
0,84,43,25
0,62,82,1
0,58,82,0
0,42,55,0
0,37,101,0
0,70,74,0
0,84,42,0
0,27,77,0
0,42,42,0
0,84,42,6
0,28,77,1
0,42,55,0
0,35,82,0
0,29,77,10
0,60,80,1
0,63,70,0
0,56,74,0
0,35,82,0
0,42,61,0
0,87,42,1
0,79,109,0
0,63,82,9
0,60,82,0
0,42,45,0
0,55,82,1
0,87,42,0
0,79,86,1
0,42,33,10
0,31,77,0
0,62,82,0
0,58,82,0
0,46,48,0
0,53,82,1
0,87,42,0
0,79,92,1
0,63,82,12
0,60,82,0
0,42,63,0
0,37,103,0
0,55,82,1
0,87,42,1
0,32,77,0
0,42,42,0
0,87,42,1
0,87,42,0
0,33,77,0
0,42,55,0
0,35,84,0
0,79,98,1
0,34,76,0
0,55,82,0
0,35,84,0
0,63,66,1
0,60,66,0
0,51,66,0
0,45,81,0
0,91,42,1
0,29,76,0
0,91,42,1
0,42,33,20
0,34,76,0
0,42,51,0
0,91,42,1
0,79,115,1
0,55,81,14
0,36,76,0
0,63,81,0
0,47,64,0
0,67,81,1
0,37,101,0
0,91,42,1
0,75,109,0
0,55,81,0
0,34,76,1
0,48,81,0
0,91,41,0
0,35,82,0
0,45,68,0
0,68,63,1
0,63,85,0
0,65,85,0
0,77,92,0
0,55,81,0
0,91,41,0
0,31,76,1
0,51,81,0
0,63,85,0
0,70,79,0
0,43,70,0
0,35,82,0
0,67,93,1
0,79,92,0
0,67,54,2
0,58,54,0
0,27,78,0
0,35,84,0
0,57,54,0
0,67,71,1
0,63,80,0
0,58,80,0
0,87,40,1
0,63,86,0
0,70,104,0
0,67,89,0
0,79,98,0
0,91,45,1
0,46,91,10
0,42,45,0
0,42,33,15
0,48,85,13
0,46,48,0
0,51,91,30
0,42,63,0
0,37,103,0
0,39,78,0
0,58,68,0
0,77,92,0
0,42,42,0
0,63,64,1
0,67,64,0
0,91,45,0
0,79,92,1
0,91,45,2
0,34,78,0
0,58,62,0
0,42,55,0
0,35,84,0
0,70,80,1
0,63,64,0
0,80,92,5
0,27,92,0
0,63,78,1
0,68,78,0
0,70,78,0
0,75,58,0
0,42,59,0
0,35,84,0
0,92,62,1
0,72,74,0
0,58,64,0
