track,note,velocity,time
1,74,95,414
1,72,67,356
1,74,0,10
1,72,0,49
1,72,95,61
1,72,0,665
1,76,87,354
1,78,67,232
1,76,0,73
1,80,71,157
1,78,0,49
1,80,0,190
1,81,71,0
1,83,76,243
1,81,0,40
1,84,68,199
1,83,0,28
1,83,87,218
1,84,0,27
1,81,68,353
1,83,0,34
1,81,0,132
1,81,79,67
1,79,67,224
1,81,0,32
1,81,64,226
1,79,0,15
1,79,64,86
1,81,0,49
1,79,0,55
1,77,73,3
1,81,68,282
1,77,0,31
1,79,64,184
1,81,0,12
1,81,62,53
1,79,0,12
1,79,55,29
1,81,0,31
1,77,73,153
1,79,0,6
1,76,64,43
1,77,0,43
1,74,73,172
1,76,0,12
1,74,0,15
1,77,79,8
1,76,79,368
1,77,0,34
1,76,0,22
1,76,79,67
1,76,0,34
1,76,73,46
1,74,64,249
1,76,0,30
1,74,0,58
1,72,79,0
1,76,73,43
1,72,0,33
1,74,71,126
1,76,0,34
1,69,84,273
1,74,0,6
1,72,79,429
1,69,0,27
1,76,84,301
1,72,0,29
1,76,0,169
1,76,87,58
1,76,0,173
1,74,87,358
1,72,68,119
1,74,0,45
1,72,0,23
1,72,82,52
1,72,0,1117
1,76,84,684
1,78,76,126
1,76,0,37
1,80,68,71
1,78,0,43
1,80,0,179
1,81,87,8
1,83,84,40
1,81,0,31
1,84,73,215
1,83,0,30
1,84,0,129
1,83,82,101
1,81,66,7
1,81,0,19
1,81,84,420
1,83,0,28
1,81,0,135
1,81,87,76
1,79,82,243
1,81,0,24
1,81,67,221
1,79,0,10
1,79,63,98
1,81,0,49
1,79,0,67
1,77,84,0
1,81,91,206
1,77,0,24
1,79,71,221
1,81,0,23
1,81,71,72
1,79,0,3
1,81,0,77
1,79,58,0
1,81,64,9
1,79,0,6
1,79,58,37
1,81,0,26
1,79,0,162
1,77,84,4
1,76,73,233
1,77,0,37
1,74,79,196
1,76,0,6
1,74,0,218
1,77,91,15
1,76,64,417
1,77,0,28
1,77,68,80
1,76,0,34
1,76,79,132
1,77,0,15
1,77,38,153
1,77,0,34
1,76,0,215
1,76,73,52
1,74,71,187
1,76,0,37
1,72,79,199
1,74,0,3
1,72,0,222
1,76,79,7
1,74,64,227
1,76,0,28
1,76,64,78
1,74,0,8
1,74,73,32
1,76,0,29
1,74,0,58
1,69,84,4
1,69,0,555
1,72,84,138
1,76,84,356
1,72,0,31
1,76,0,169
1,76,82,46
1,76,0,680
2,67,55,430
2,64,55,0
2,60,47,5
2,48,57,6
2,55,56,202
2,67,0,50
2,60,0,10
2,64,0,13
2,48,0,10
2,72,58,167
2,64,47,0
2,60,34,5
2,67,36,10
2,48,60,228
2,55,0,12
2,67,0,5
2,72,0,15
2,64,0,0
2,60,0,6
2,72,46,194
2,60,36,3
2,64,56,3
2,67,53,9
2,60,0,228
2,55,51,2
2,67,0,18
2,64,0,12
2,72,0,10
2,48,0,223
2,64,55,5
2,60,43,0
2,72,36,7
2,67,46,0
2,55,0,10
2,67,0,155
2,72,0,10
2,72,34,65
2,60,0,50
2,64,0,8
2,72,0,42
2,68,57,100
2,71,58,6
2,64,42,0
2,52,60,2
2,56,22,155
2,64,0,170
2,59,67,23
2,71,0,55
2,68,0,22
2,64,62,148
2,52,0,127
2,56,0,100
2,68,52,23
2,71,60,2
2,52,51,5
2,59,0,28
2,64,0,95
2,59,60,55
2,71,0,83
2,68,0,27
2,68,28,70
2,71,57,15
2,76,66,15
2,64,25,6
2,64,0,49
2,76,0,150
2,64,51,10
2,52,0,28
2,76,14,47
2,64,0,28
2,59,0,5
2,68,0,22
2,71,0,10
2,76,0,15
2,69,48,98
2,57,64,0
2,72,32,22
2,76,21,8
2,60,46,155
2,64,64,168
2,69,0,27
2,76,0,70
2,72,0,8
2,69,55,130
2,57,0,125
2,57,55,110
2,76,55,5
2,72,52,5
2,60,0,2
2,64,0,40
2,64,55,90
2,76,0,67
2,72,0,3
2,69,0,40
2,69,32,65
2,76,55,0
2,72,45,12
2,60,52,13
2,76,0,57
2,72,0,5
2,69,0,0
2,57,0,38
2,60,0,37
2,64,0,20
2,71,43,55
2,67,27,3
2,74,43,0
2,55,60,17
2,74,0,55
2,67,0,3
2,71,0,5
2,55,0,50
2,69,56,15
2,53,62,3
2,72,46,0
2,65,29,5
2,60,67,252
2,77,64,22
2,65,0,75
2,65,52,145
2,77,0,73
2,72,0,5
2,53,0,15
2,69,0,12
2,65,0,8
2,60,0,110
2,67,40,7
2,71,51,3
2,55,60,0
2,74,51,12
2,62,51,215
2,74,0,207
2,74,14,30
2,79,55,8
2,59,46,20
2,67,0,5
2,79,0,190
2,67,52,5
2,74,0,18
2,71,0,35
2,55,0,32
2,67,0,23
2,62,0,122
2,69,55,0
2,59,0,8
2,72,45,0
2,53,60,2
2,60,53,202
2,77,58,235
2,53,0,157
2,60,0,6
2,65,64,79
2,77,0,5
2,72,0,5
2,69,0,28
2,65,0,50
2,48,58,140
2,64,63,7
2,67,45,0
2,55,56,155
2,67,0,85
2,64,0,25
2,67,52,72
2,64,53,3
2,60,50,5
2,48,0,80
2,60,0,7
2,64,0,6
2,67,0,0
2,47,55,134
2,67,47,13
2,64,47,2
2,60,27,0
2,60,0,68
2,55,0,5
2,67,0,10
2,64,0,5
2,47,0,42
2,45,64,120
2,60,64,10
2,64,57,6
2,57,25,9
2,57,0,38
2,52,66,167
2,57,63,250
2,69,66,212
2,45,0,13
2,64,0,25
2,57,0,2
2,60,0,13
2,52,0,15
2,69,0,57
2,62,69,118
2,50,64,2
2,54,27,178
2,57,62,247
2,66,41,5
2,69,57,0
2,62,0,43
2,66,0,107
2,62,28,60
2,66,35,38
2,62,0,37
2,50,0,50
2,54,0,28
2,66,0,2
2,57,0,35
2,69,0,15
2,65,73,40
2,53,71,0
2,65,0,120
2,65,56,60
2,69,61,123
2,60,53,95
2,53,0,90
2,60,0,28
2,72,43,102
2,77,66,13
2,72,0,42
2,65,0,0
2,77,0,15
2,69,0,3
2,64,68,192
2,48,64,0
2,67,52,5
2,60,52,0
2,55,57,140
2,72,67,90
2,72,0,106
2,67,0,12
2,64,0,10
2,60,0,18
2,55,0,57
2,48,0,0
2,48,57,104
2,64,66,8
2,67,57,0
2,60,58,0
2,52,45,46
2,60,0,9
2,55,56,95
2,64,0,31
2,60,55,22
2,67,0,49
2,64,64,64
2,67,66,172
2,48,0,178
2,72,66,67
2,48,64,0
2,52,0,25
2,60,0,29
2,55,0,32
2,60,55,145
2,64,0,27
2,55,56,227
2,64,63,3
2,67,0,37
2,72,0,146
2,55,0,11
2,48,0,18
2,67,67,12
2,60,0,46
2,64,0,16
2,67,0,86
2,52,69,95
2,64,68,6
2,56,64,199
2,64,0,31
2,59,69,49
2,64,79,116
2,68,79,117
2,64,0,49
2,71,55,63
2,64,67,100
2,52,0,70
2,76,82,71
2,52,66,0
2,56,0,15
2,59,0,6
2,56,55,31
2,71,0,104
2,68,0,89
2,59,64,43
2,74,64,12
2,64,0,241
2,72,69,2
2,52,0,30
2,56,0,16
2,74,0,4
2,76,0,5
2,59,0,73
2,72,0,105
2,57,71,6
2,69,62,0
2,72,46,9
2,71,64,6
2,71,0,49
2,60,55,181
2,69,0,40
2,64,64,24
2,69,79,120
2,72,0,9
2,72,67,102
2,69,0,43
2,76,45,73
2,69,63,83
2,57,0,77
2,81,64,70
2,57,68,0
2,64,0,7
2,69,0,3
2,64,67,154
2,69,64,24
2,72,0,6
2,57,0,73
2,72,63,16
2,69,0,64
2,64,0,19
2,55,68,0
2,72,0,242
2,69,71,0
2,64,69,0
2,81,0,68
2,72,64,55
2,69,0,29
2,76,0,5
2,55,0,21
2,72,0,9
2,60,0,71
2,64,0,0
2,72,63,0
2,69,64,3
2,53,71,9
2,57,36,141
2,65,73,162
2,60,60,10
2,77,66,224
2,65,0,27
2,69,0,65
2,53,0,70
2,57,0,25
2,72,0,24
2,77,0,16
2,67,56,6
2,71,64,9
2,55,63,6
2,60,0,3
2,74,60,0
2,59,55,181
2,67,0,10
2,62,67,104
2,71,0,110
2,67,66,10
2,74,0,40
2,71,50,31
2,74,64,119
2,67,0,62
2,74,0,46
2,71,0,12
2,55,0,46
2,72,61,77
2,69,63,0
2,65,47,6
2,53,69,9
2,59,0,4
2,62,0,0
2,57,55,183
2,60,67,30
2,77,68,105
2,65,0,18
2,57,0,114
2,60,0,6
2,53,0,9
2,65,66,89
2,77,0,3
2,72,0,15
2,69,0,13
2,65,0,52
2,48,57,141
2,64,57,6
2,65,55,0
2,69,34,6
2,67,35,0
2,69,0,43
2,67,0,6
2,65,0,19
2,67,19,9
2,55,71,126
2,64,0,18
2,60,73,3
2,67,0,100
2,64,68,29
2,60,0,138
2,48,0,9
2,64,0,31
2,60,57,37
2,47,68,9
2,64,56,0
2,64,0,111
2,60,0,4
2,47,0,51
2,55,0,28
2,60,79,36
2,64,68,4
2,45,68,0
2,57,42,6
2,57,0,36
2,52,67,162
2,60,0,105
2,57,66,0
2,64,0,116
2,60,69,0
2,64,68,224
2,45,0,7
2,57,0,15
2,60,0,21
2,52,0,25
2,64,0,64
2,50,73,114
2,62,76,6
2,54,62,181
2,57,66,86
2,66,64,129
2,69,61,116
2,62,0,98
2,74,68,10
2,66,0,107
2,50,0,71
2,54,0,27
2,69,0,0
2,57,0,25
2,74,0,12
2,65,73,12
2,53,79,13
2,69,40,24
2,57,63,141
2,65,0,30
2,60,64,58
2,69,0,55
2,65,42,25
2,69,64,264
2,57,0,15
2,53,0,12
2,65,0,10
2,60,0,18
2,69,0,22
2,72,66,178
2,76,68,0
2,60,60,4
2,64,53,122
2,67,62,18
2,79,64,114
2,79,0,126
2,76,0,3
2,72,0,15
2,64,0,17
2,60,0,18
2,67,0,0
2,57,66,103
2,72,76,3
2,69,79,0
2,76,76,0
2,60,57,123
2,69,0,89
2,64,79,21
2,76,0,77
2,72,0,12
2,69,84,43
2,60,0,83
2,64,0,9
2,57,0,9
2,76,68,136
2,72,64,10
2,69,0,45
2,72,0,6
2,76,0,6
2,68,82,169
2,71,82,0
2,64,79,3
2,52,62,6
2,50,63,9
2,50,0,77
2,56,60,125
2,64,0,43
2,59,79,80
2,68,0,62
2,64,76,52
2,71,0,37
2,68,73,73
2,52,0,65
2,56,0,9
2,59,0,28
2,71,73,24
2,68,0,28
2,64,0,0
2,71,0,70
2,72,79,138
2,69,82,0
2,57,71,6
2,69,0,65
2,64,73,36
2,72,0,86
2,67,76,6
2,57,0,25
2,67,0,69
2,64,0,17
2,55,68,12
2,71,76,6
2,67,41,0
2,74,68,6
2,67,0,163
2,62,69,92
2,67,63,98
2,74,0,19
2,71,0,6
2,55,0,3
2,67,0,52
2,62,0,43
2,69,73,31
2,72,69,0
2,53,67,0
2,65,82,3
2,60,76,30
2,77,73,237
2,57,67,12
2,65,0,28
2,60,0,9
2,77,0,181
2,65,68,6
2,60,62,9
2,69,0,89
2,57,0,28
2,53,0,6
2,65,0,6
2,60,0,71
2,72,0,6
2,55,62,21
2,67,79,0
2,71,76,7
2,59,61,34
2,67,0,98
2,62,73,21
2,67,76,111
2,71,0,15
2,71,67,200
2,55,0,95
2,67,0,64
2,71,0,37
2,62,0,28
2,55,63,21
2,59,0,6
2,71,66,0
2,67,60,0
2,74,71,4
2,71,0,21
2,71,58,12
2,67,0,30
2,59,71,86
2,62,76,117
2,74,0,46
2,59,0,22
2,55,0,41
2,62,0,5
2,67,61,9
2,69,55,0
2,71,0,6
2,69,0,49
2,67,0,4
2,72,64,48
2,71,68,6
2,71,0,19
2,72,0,37
2,67,63,187
2,64,67,0
2,60,68,0
2,48,68,6
2,55,68,144
2,60,0,37
2,60,73,55
2,64,0,31
2,64,73,92
2,52,67,6
2,67,0,23
2,67,67,213
2,48,0,111
2,67,0,58
2,64,0,9
2,60,0,6
2,47,71,46
2,60,63,16
2,64,79,0
2,67,69,0
2,52,0,3
2,55,0,18
2,52,56,178
2,60,0,6
2,55,64,98
2,60,33,47
2,64,0,12
2,47,0,15
2,67,0,37
2,67,61,37
2,45,73,6
2,64,79,6
2,55,0,12
2,67,0,110
2,64,0,13
2,55,73,27
2,64,60,16
2,67,60,0
2,45,0,58
2,60,0,12
2,52,0,18
2,64,0,2
2,67,0,35
2,55,0,19
2,69,79,89
2,57,69,9
2,60,66,138
2,64,79,3
2,72,73,101
2,69,0,65
2,72,0,119
2,72,55,40
2,76,79,6
2,60,0,22
2,64,0,4
2,57,0,5
2,72,0,23
2,76,0,20
2,68,68,160
2,64,64,0
2,71,73,0
2,52,79,12
2,56,58,126
2,64,0,13
2,59,68,55
2,68,0,58
2,64,73,40
2,71,0,64
2,68,64,68
2,71,66,126
2,56,0,6
2,52,0,3
2,64,0,21
2,68,0,4
2,59,0,15
2,71,0,55
2,57,71,123
2,69,76,0
2,72,76,4
2,76,67,8
2,74,68,4
2,74,0,18
2,69,0,10
2,64,66,64
2,69,61,52
2,76,0,34
2,72,0,12
2,57,0,22
2,69,0,21
2,55,66,65
2,64,0,9
2,71,67,0
2,74,66,0
2,67,43,9
2,67,0,12
2,62,67,74
2,67,30,55
2,74,0,40
2,71,0,15
2,55,0,12
2,67,0,43
2,62,0,71
2,53,68,15
2,69,79,6
2,72,76,0
2,65,67,13
2,65,0,86
2,60,68,6
2,65,73,104
2,69,0,15
2,57,66,114
2,69,66,3
2,72,0,40
2,60,0,80
2,72,63,119
2,60,62,13
2,69,0,36
2,65,0,19
2,53,0,92
2,57,0,0
2,72,0,58
2,60,0,9
2,67,79,13
2,71,84,0
2,55,64,6
2,74,48,9
2,72,53,6
2,72,0,22
2,74,0,33
2,59,60,0
2,67,0,83
2,62,73,27
2,67,79,111
2,71,0,15
2,67,0,157
2,67,46,40
2,71,64,6
2,55,0,122
2,67,0,31
2,71,0,34
2,55,64,49
2,59,0,3
2,71,64,3
2,67,55,3
2,74,79,3
2,62,0,40
2,59,56,178
2,67,0,116
2,74,0,7
2,71,0,9
2,62,76,9
2,74,53,9
2,71,56,0
2,67,56,6
2,59,0,37
2,55,0,15
2,62,0,6
2,74,0,19
2,71,0,12
2,67,0,0
2,60,52,175
2,60,0,71
2,60,52,116
2,48,58,33
2,67,43,0
2,64,47,3
2,60,38,0
2,72,64,107
2,60,0,37
2,60,0,0
2,55,45,6
2,67,0,24
2,64,0,10
2,48,0,61
2,72,0,123
2,60,60,6
2,48,48,12
2,60,27,3
2,64,31,0
2,67,28,6
2,55,0,10
2,64,0,187
2,67,0,0
2,60,0,9
2,60,0,0
2,55,52,12
2,72,63,3
2,48,0,62
2,55,0,169
2,60,34,0
2,67,41,0
2,64,48,4
2,48,51,5
2,72,0,3
2,60,55,6
2,64,0,206
2,60,0,18
2,60,0,0
2,67,0,0
2,55,36,6
2,72,58,3
2,48,0,37
2,67,45,196
2,60,37,0
2,55,0,4
2,48,56,0
2,64,53,3
2,60,53,9
2,72,0,6
2,64,0,172
2,55,52,4
2,72,66,2
2,67,0,6
2,60,0,15
2,60,0,0
2,48,0,37
2,55,0,64
2,72,0,20
2,72,55,36
2,76,61,3
2,79,57,3
2,48,58,6
2,76,0,135
2,79,0,9
2,72,0,5
2,55,55,42
2,60,55,104
2,64,53,212
2,48,0,171
2,67,64,65
2,48,64,18
2,55,0,12
2,72,67,191
2,60,0,39
2,60,64,13
2,55,55,9
2,64,0,12
2,48,0,40
2,55,0,12
2,72,0,55
2,64,64,102
2,60,0,40
2,64,0,175
2,67,0,9
2,52,76,27
2,56,53,196
2,59,67,74
2,64,66,104
2,68,53,104
2,64,0,102
2,71,61,9
2,64,64,123
2,52,0,46
2,71,0,58
2,68,0,6
2,52,62,6
2,76,64,4
2,56,0,15
2,59,0,6
2,74,64,59
2,56,47,41
2,76,0,35
2,64,0,197
2,72,63,3
2,59,58,9
2,74,0,58
2,71,62,181
2,52,0,74
2,56,0,9
2,72,0,22
2,59,0,21
2,71,0,86
2,69,51,43
2,72,64,6
