track,note,velocity,time
1,50,56,2672
1,57,63,0
1,62,69,0
1,54,51,0
1,57,66,24
1,66,58,128
1,62,65,14
1,66,44,0
1,57,61,0
1,47,66,0
1,54,71,128
1,61,68,86
1,54,44,128
1,50,55,128
1,54,39,0
1,55,54,12
1,64,59,0
1,59,60,0
1,40,43,0
1,55,60,34
1,59,68,80
1,62,63,128
1,67,55,128
1,71,56,86
1,45,58,16
1,74,60,0
1,66,46,0
1,69,60,0
1,57,55,128
1,66,37,76
1,64,57,62
1,69,65,0
1,57,57,72
1,64,24,32
1,50,56,8
1,57,63,0
1,62,69,0
1,54,51,0
1,57,66,24
1,66,58,128
1,62,65,14
1,66,44,0
1,57,61,0
1,47,66,0
1,54,71,128
1,61,68,86
1,54,44,128
1,50,55,128
1,54,39,0
1,67,72,12
1,76,66,0
1,74,71,0
1,71,75,0
1,52,64,0
1,64,60,128
1,67,64,128
1,74,78,22
1,66,73,0
1,69,83,0
1,50,85,0
1,66,50,0
1,67,62,0
1,71,82,0
1,76,80,0
1,67,72,0
1,64,47,0
1,48,69,0
1,64,52,128
1,67,56,0
1,72,53,128
1,76,47,0
1,59,66,142
1,55,58,0
1,62,73,0
1,45,73,0
1,55,52,44
1,69,68,128
1,57,63,88
1,55,60,106
1,59,94,16
1,69,82,0
1,62,88,0
1,57,79,340
1,62,90,0
1,62,66,324
1,54,44,0
1,57,53,0
1,54,16,40
1,57,39,82
1,62,36,82
1,57,49,62
1,62,54,0
1,59,41,0
1,54,35,0
1,52,50,62
1,57,51,0
1,61,35,0
1,59,57,384
1,52,48,42
1,57,58,0
1,50,52,18
1,61,40,28
1,52,47,0
1,57,56,0
1,59,50,4
1,52,46,54
1,57,52,0
1,50,41,2
1,52,48,0
1,55,46,0
1,59,51,46
1,64,52,0
1,55,44,0
1,57,43,84
1,66,37,0
1,62,46,0
1,57,45,28
1,62,62,82
1,66,34,102
1,59,47,128
1,59,41,116
1,57,45,4
1,57,53,40
1,64,40,0
1,61,39,0
1,59,39,12
1,57,37,42
1,64,29,0
1,64,8,122
1,59,42,126
1,57,34,0
1,64,13,0
1,64,54,78
1,57,55,0
1,62,54,32
1,57,53,0
1,52,58,66
1,57,62,6
1,61,58,0
1,52,75,128
1,62,83,46
1,59,85,0
1,52,80,118
1,62,88,16
1,52,80,0
1,66,92,0
1,55,80,0
1,59,80,0
1,62,88,368
1,54,51,0
1,62,69,0
1,57,63,0
1,50,56,0
1,57,71,24
1,57,66,0
1,66,58,127
1,64,70,0
1,61,89,10
1,62,101,8
1,62,65,14
1,66,44,0
1,47,66,0
1,57,61,0
1,62,97,0
1,57,70,127
1,54,71,0
1,61,68,0
1,61,86,0
1,54,44,127
1,50,55,98
1,61,86,0
1,62,92,0
1,54,39,0
1,55,54,12
1,64,59,0
1,59,60,0
1,62,99,0
1,40,43,0
1,55,60,34
1,59,68,80
1,62,63,128
1,67,82,2
1,67,55,0
1,71,56,10
1,66,100,0
1,62,101,0
1,45,58,0
1,74,60,0
1,66,46,0
1,69,60,0
1,57,55,128
1,66,37,76
1,64,57,62
1,69,65,0
1,61,81,72
1,57,57,0
1,62,83,6
1,64,24,0
1,54,51,8
1,62,69,0
1,57,63,0
1,50,56,0
1,62,99,0
1,57,74,24
1,57,66,0
1,66,58,127
1,64,82,0
1,61,92,8
1,62,97,8
1,62,65,14
1,66,44,0
1,47,66,0
1,57,61,0
1,62,97,0
1,54,71,127
1,57,69,0
1,61,68,0
1,61,86,0
1,62,75,127
1,54,44,0
1,61,89,10
1,50,55,0
1,62,90,0
1,54,39,0
1,71,88,0
1,79,94,0
1,64,94,0
1,67,72,0
1,76,66,0
1,74,71,0
1,71,75,0
1,52,64,0
1,64,60,127
1,67,64,0
1,74,78,22
1,66,73,0
1,50,85,0
1,69,83,0
1,62,107,0
1,78,109,0
1,69,92,0
1,66,50,0
1,74,101,0
1,67,62,0
1,78,100,0
1,67,72,0
1,76,80,0
1,71,82,0
1,67,88,0
1,76,97,0
1,64,47,0
1,48,69,0
1,60,66,0
1,64,52,127
1,67,56,0
1,72,53,12
1,76,47,0
1,59,66,142
1,55,58,0
1,62,73,0
1,45,73,0
1,55,52,44
1,69,68,128
1,57,63,88
1,55,60,106
1,59,94,16
1,69,82,0
1,62,88,0
1,57,79,340
1,62,90,0
1,62,71,310
1,54,53,0
1,57,59,2
1,54,46,56
1,57,85,54
1,54,51,78
1,62,59,44
1,57,50,0
1,54,51,30
1,57,66,8
1,62,69,128
1,62,36,24
1,57,63,0
1,61,68,0
1,59,60,40
1,57,59,54
1,64,62,0
1,62,72,640
1,57,63,22
1,61,73,0
1,59,67,384
1,64,71,58
1,57,60,0
1,62,75,384
1,55,52,30
1,64,62,0
1,59,55,0
1,61,63,28
1,57,66,0
1,59,64,10
1,62,71,0
1,57,54,28
1,54,45,0
1,62,58,0
1,57,55,48
1,62,66,114
1,66,73,128
1,62,66,90
1,57,60,36
1,54,46,108
1,59,54,86
1,57,46,128
1,62,58,44
1,59,60,128
1,57,61,0
1,57,69,12
1,61,58,0
1,64,66,0
1,57,60,10
1,64,58,0
1,59,58,0
1,64,58,56
1,57,62,0
1,62,69,384
1,64,62,12
1,57,58,0
1,61,57,0
1,59,66,0
1,64,68,42
1,57,60,0
1,62,82,2
1,52,58,28
1,57,62,6
1,61,58,0
1,52,75,128
1,62,83,46
1,59,85,0
1,52,80,118
1,62,88,16
1,52,80,0
1,66,92,0
1,55,80,0
1,59,80,0
1,62,88,368
1,54,51,0
1,62,69,0
1,57,63,0
1,50,56,0
1,57,71,24
1,57,66,0
1,66,58,127
1,64,70,0
1,61,89,10
1,62,101,8
1,62,65,14
1,66,44,0
1,47,66,0
1,57,61,0
1,62,97,0
1,57,70,127
1,54,71,0
1,61,68,0
1,61,86,0
1,54,44,127
1,50,55,98
1,61,86,0
1,62,92,0
1,54,39,0
1,55,54,12
1,64,59,0
1,59,60,0
1,62,99,0
1,40,43,0
1,55,60,34
1,59,68,80
1,62,63,128
1,67,82,2
1,67,55,0
1,71,56,10
1,66,100,0
1,62,101,0
1,45,58,0
1,74,60,0
1,66,46,0
1,69,60,0
1,57,55,128
1,66,37,76
1,64,57,62
1,69,65,0
1,61,81,72
1,57,57,0
1,62,83,6
1,64,24,0
1,54,51,8
1,62,69,0
1,57,63,0
1,50,56,0
1,62,99,0
1,57,74,24
1,57,66,0
1,66,58,127
1,64,82,0
1,61,92,8
1,62,97,8
1,62,65,14
1,66,44,0
1,47,66,0
1,57,61,0
1,62,97,0
1,54,71,127
1,57,69,0
1,61,68,0
1,61,86,0
1,62,75,127
1,54,44,0
1,61,89,10
1,50,55,0
1,62,90,0
1,54,39,0
1,71,88,0
1,79,94,0
1,64,94,0
1,67,72,0
1,76,66,0
1,74,71,0
1,71,75,0
1,52,64,0
1,64,60,127
1,67,64,0
1,74,78,22
1,66,73,0
1,50,85,0
1,69,83,0
1,62,107,0
1,78,109,0
1,69,92,0
1,66,50,0
1,74,101,0
1,67,62,0
1,78,100,0
1,67,72,0
1,76,80,0
1,71,82,0
1,67,88,0
1,76,97,0
1,64,47,0
1,48,69,0
1,60,66,0
1,64,52,127
1,67,56,0
1,72,53,12
1,76,47,0
1,54,84,142
1,57,72,128
1,61,59,128
1,66,58,128
1,57,60,40
1,54,57,94
1,59,62,0
1,63,56,0
1,66,86,504
1,63,71,106
1,64,66,4
1,52,62,0
1,55,62,384
1,59,68,12
1,64,62,128
1,57,64,0
1,61,64,0
1,57,63,40
1,61,73,0
1,52,60,64
1,66,69,2
1,54,60,0
1,66,47,22
1,61,51,0
1,57,54,0
1,54,47,22
1,57,70,88
1,63,47,28
1,59,57,0
1,54,46,0
1,54,46,22
1,63,68,2
1,59,76,128
1,54,54,114
1,67,70,50
1,64,70,0
1,59,65,0
1,57,70,32
1,62,76,0
1,66,73,0
1,60,65,16
1,55,60,0
1,64,68,0
1,60,62,44
1,55,61,90
1,55,68,36
1,59,67,0
1,67,69,0
1,62,75,0
1,67,58,50
1,62,63,0
1,59,55,0
1,62,88,216
1,54,51,0
1,62,69,0
1,57,63,0
1,50,56,0
1,57,71,24
1,57,66,0
1,66,58,127
1,64,70,0
1,61,89,10
1,62,101,8
1,62,65,14
1,66,44,0
1,47,66,0
1,57,61,0
1,62,97,0
1,57,70,127
1,54,71,0
1,61,68,0
1,61,86,0
1,54,44,127
1,50,55,98
1,61,86,0
1,62,92,0
1,54,39,0
1,55,54,12
1,64,59,0
1,59,60,0
1,62,99,0
1,40,43,0
1,55,60,34
1,59,68,80
1,62,63,128
1,67,82,2
1,67,55,0
1,71,56,10
1,66,100,0
1,62,101,0
1,45,58,0
1,74,60,0
1,66,46,0
1,69,60,0
1,57,55,128
1,66,37,76
1,64,57,62
1,69,65,0
1,61,81,72
1,57,57,0
1,62,83,6
1,64,24,0
1,54,51,8
1,62,69,0
1,57,63,0
1,50,56,0
1,62,99,0
1,57,74,24
1,57,66,0
1,66,58,127
1,64,82,0
1,61,92,8
1,62,97,8
1,62,65,14
1,66,44,0
1,47,66,0
1,57,61,0
1,62,97,0
1,54,71,127
1,57,69,0
1,61,68,0
1,61,86,0
1,62,75,127
1,54,44,0
1,61,89,10
1,50,55,0
1,62,90,0
1,54,39,0
1,71,88,0
1,79,94,0
1,64,94,0
1,67,72,0
1,76,66,0
1,74,71,0
1,71,75,0
1,52,64,0
1,64,60,127
1,67,64,0
1,74,78,22
1,66,73,0
1,50,85,0
1,69,83,0
1,62,107,0
1,78,109,0
1,69,92,0
1,66,50,0
1,74,101,0
1,67,62,0
1,78,100,0
1,67,72,0
1,76,80,0
1,71,82,0
1,67,88,0
1,76,97,0
1,64,47,0
1,48,69,0
1,60,66,0
1,64,52,127
1,67,56,0
1,57,90,8
1,69,80,0
1,74,79,0
1,64,71,0
1,45,69,0
1,57,99,128
1,62,88,10
1,50,56,0
1,57,63,0
1,62,69,0
1,54,51,0
1,57,71,24
1,57,66,0
1,66,58,127
1,64,70,0
1,61,89,10
1,62,101,8
1,62,65,14
1,66,44,0
1,57,61,0
1,47,66,0
1,62,97,0
1,57,70,127
1,54,71,0
1,61,68,0
1,61,86,0
1,54,44,127
1,61,86,98
1,50,55,0
1,62,92,0
1,54,39,0
1,55,54,12
1,64,59,0
1,59,60,0
1,62,99,0
1,40,43,0
1,55,60,34
1,59,68,80
1,62,63,128
1,67,82,2
1,67,55,0
1,71,56,10
1,66,100,0
1,62,101,0
1,45,58,0
1,74,60,0
1,66,46,0
1,69,60,0
1,57,55,128
1,66,37,76
1,64,57,62
1,69,65,0
1,61,81,72
1,57,57,0
1,62,83,6
1,64,24,0
1,50,56,8
1,57,63,0
1,62,69,0
1,54,51,0
1,62,99,0
1,57,74,24
1,57,66,0
1,66,58,127
1,64,82,0
1,61,92,8
1,62,97,8
1,62,65,14
1,66,44,0
1,57,61,0
1,47,66,0
1,62,97,0
1,54,71,127
1,57,69,0
1,61,68,0
1,61,86,0
1,62,75,127
1,54,44,0
1,61,89,10
1,50,55,0
1,62,90,0
1,54,39,0
1,71,88,0
1,64,94,0
1,79,94,0
1,67,72,0
1,76,66,0
1,74,71,0
1,71,75,0
1,52,64,0
1,64,60,127
1,67,64,0
1,74,78,22
1,66,73,0
1,69,83,0
1,50,85,0
1,62,107,0
1,78,109,0
1,69,92,0
1,66,50,0
1,74,101,0
1,67,62,0
1,78,100,0
1,71,82,0
1,76,80,0
1,67,72,0
1,67,88,0
1,76,97,0
1,64,47,0
1,48,69,0
1,60,66,0
1,64,52,127
1,67,56,0
1,72,53,12
1,76,47,0
1,59,66,142
1,55,58,0
1,62,73,0
1,45,73,0
1,55,52,44
1,62,74,128
1,52,71,0
1,57,73,0
1,69,68,0
1,52,61,88
1,57,63,0
1,45,62,0
1,55,60,0
1,52,65,0
1,62,83,0
1,33,67,0
1,57,69,0
1,52,66,36
1,52,64,28
1,62,73,0
1,57,72,0
1,57,73,30
1,62,92,0
1,52,69,0
1,52,76,0
1,45,86,42
1,52,75,40
1,64,83,0
1,57,86,0
1,62,88,0
1,50,56,0
1,57,63,0
1,62,69,0
1,54,51,0
1,57,71,24
1,57,66,0
1,66,58,64
1,64,70,0
1,61,89,10
1,62,101,8
1,62,65,0
1,66,44,0
1,57,61,0
1,47,66,0
1,62,97,0
1,57,70,127
1,54,71,0
1,61,68,0
1,61,86,0
1,54,44,96
1,61,86,32
1,50,55,0
1,62,92,0
1,54,39,0
1,55,54,0
1,64,59,0
1,59,60,0
1,62,99,0
1,40,43,0
1,55,60,32
1,59,68,80
1,62,63,96
1,67,82,2
1,67,55,0
1,71,56,10
1,66,100,0
1,62,101,0
1,45,58,0
1,74,60,0
1,66,46,0
1,69,60,0
1,57,55,32
1,66,37,76
1,64,57,0
1,69,65,0
1,61,81,72
1,57,57,0
1,62,83,6
1,64,24,0
1,50,56,8
1,57,63,0
1,62,69,0
1,54,51,0
1,62,99,0
1,57,74,24
1,57,66,0
1,66,58,64
1,64,82,0
1,61,92,8
1,62,97,8
1,62,65,14
1,66,44,0
1,57,61,0
1,47,66,0
1,62,97,0
1,54,71,32
1,57,69,0
1,61,68,0
1,61,86,0
1,62,75,0
1,54,44,0
1,61,89,10
1,50,55,0
1,62,90,0
1,54,39,0
1,71,88,0
1,64,94,0
1,79,94,0
1,67,72,0
1,76,66,0
1,74,71,0
1,71,75,0
1,52,64,0
1,64,60,127
1,67,64,0
1,74,78,22
1,66,73,0
1,69,83,0
1,50,85,0
1,62,107,0
1,78,109,0
1,69,92,0
1,66,50,0
1,74,101,0
1,67,62,0
1,78,100,0
1,71,82,0
1,76,80,0
1,67,72,0
1,67,88,0
1,76,97,0
1,64,47,0
1,48,69,0
1,60,66,0
1,64,52,32
1,67,56,0
1,72,53,12
1,76,47,0
1,59,66,0
1,55,58,0
1,62,73,0
1,45,73,0
1,55,52,44
1,62,74,96
1,52,71,0
1,57,73,0
1,69,68,0
1,52,61,88
1,57,63,0
1,45,62,0
1,55,60,0
1,52,65,0
1,62,83,0
1,33,67,0
1,57,69,0
1,52,66,36
1,52,64,28
1,62,73,0
1,57,72,0
1,57,73,30
1,62,92,0
1,52,69,0
1,52,76,0
1,45,86,42
1,52,75,40
1,64,83,0
1,57,86,0
2,38,85,2652
2,40,85,10
2,42,85,128
2,35,85,126
2,40,85,8
2,33,85,768
2,40,85,382
2,45,85,8
2,33,85,4
2,38,85,8
2,40,85,512
2,42,85,4
2,35,85,128
2,42,85,374
2,47,85,8
2,35,85,14
2,40,85,128
2,38,85,380
2,36,85,368
2,35,85,504
2,34,85,0
2,33,85,128
2,45,85,764
2,33,85,272
2,37,85,134
2,38,110,128
2,35,101,0
2,43,97,768
2,43,90,50
2,42,100,128
2,43,101,2
2,50,110,16
2,43,97,4
2,42,100,128
2,41,104,378
2,40,110,372
2,52,107,6
2,45,78,128
2,38,85,0
2,41,85,4
2,35,85,4
2,31,85,768
2,38,85,0
2,31,85,6
2,30,85,2
2,43,85,768
2,50,85,4
2,43,85,0
2,42,85,2
2,41,85,384
2,40,85,376
2,40,85,22
2,35,85,100
2,28,85,2
2,33,85,2
2,40,85,256
2,45,85,2
2,45,104,84
2,33,107,128
2,38,95,20
2,30,95,512
2,33,95,8
2,35,95,6
2,35,95,38
2,40,95,18
2,35,95,4
2,40,95,128
2,33,95,4
2,33,95,50
2,33,95,44
2,45,95,0
2,40,95,2
2,33,95,128
2,38,95,6
2,38,95,0
2,37,95,70
2,36,95,4
2,35,95,0
2,42,95,128
2,47,95,126
2,47,95,60
2,42,95,10
2,35,95,128
2,28,95,6
2,38,95,384
2,36,95,380
2,35,95,500
2,34,95,0
2,33,95,2
2,58,104,110
2,59,94,16
2,58,100,94
2,57,98,108
2,56,80,54
2,55,79,6
2,54,44,6
2,51,31,2
2,33,86,10
2,38,110,12
2,35,101,0
2,43,97,768
2,43,90,50
2,42,100,128
2,43,101,2
2,50,110,16
2,43,97,4
2,42,100,128
