track,note,velocity,time
2,57,100,0
2,60,100,0
2,57,0,60
2,60,0,0
2,57,100,0
2,60,100,0
2,57,0,60
2,60,0,0
2,57,100,0
2,60,100,0
2,57,0,60
2,60,0,0
2,57,100,0
2,60,100,0
2,57,0,60
2,60,0,0
2,57,100,0
2,60,100,0
2,57,0,60
2,60,0,0
2,60,100,0
2,57,100,0
2,60,0,60
2,57,0,0
2,57,100,0
2,60,100,0
2,57,0,60
2,60,0,0
2,57,100,0
2,60,100,0
2,57,0,60
2,60,0,0
2,57,100,0
2,60,100,0
2,57,0,60
2,60,0,0
2,60,100,0
2,57,100,0
2,60,0,60
2,57,0,0
2,60,100,0
2,57,100,0
2,60,0,60
2,57,0,0
2,57,100,0
2,60,100,0
2,57,0,60
2,60,0,0
2,57,100,0
2,60,100,0
2,57,0,60
2,60,0,0
2,60,100,0
2,57,100,0
2,60,0,60
2,57,0,0
2,57,100,0
2,60,100,0
2,57,0,60
2,60,0,0
2,60,100,0
2,57,100,0
2,60,0,60
2,57,0,0
2,60,100,0
2,57,100,0
2,60,0,480
2,57,0,0
2,59,100,0
2,62,100,0
2,59,0,240
2,62,0,0
2,64,100,0
2,67,100,0
2,64,0,240
2,67,0,0
2,69,100,0
2,65,100,0
2,69,0,480
2,65,0,0
2,62,100,0
2,65,100,0
2,62,0,240
2,65,0,0
2,60,100,0
2,64,100,0
2,60,0,240
2,64,0,0
2,60,100,0
2,65,100,0
2,60,0,240
2,65,0,0
2,60,100,120
2,60,0,120
2,62,100,0
2,62,0,120
2,60,100,0
2,62,100,0
2,60,0,60
2,62,0,0
2,59,100,0
2,62,100,0
2,59,0,180
2,62,0,0
2,62,100,0
2,62,0,60
2,58,100,60
2,62,100,0
2,58,0,120
2,62,0,0
2,60,100,0
2,65,100,0
2,60,0,60
2,65,0,0
2,60,100,0
2,65,100,0
2,60,0,180
2,65,0,0
2,57,100,120
2,60,100,0
2,57,0,480
2,60,0,0
2,59,100,0
2,62,100,0
2,59,0,240
2,62,0,0
2,64,100,0
2,67,100,0
2,64,0,240
2,67,0,0
2,69,100,0
2,65,100,0
2,69,0,480
2,65,0,0
2,62,100,0
2,65,100,0
2,62,0,240
2,65,0,0
2,60,100,0
2,64,100,0
2,60,0,240
2,64,0,0
2,60,100,0
2,65,100,0
2,60,0,360
2,65,0,0
2,60,100,0
2,60,0,120
2,62,100,0
2,62,0,120
2,62,100,0
2,60,100,0
2,62,0,60
2,60,0,0
2,59,100,0
2,62,100,0
2,59,0,180
2,62,0,0
2,58,100,120
2,62,100,0
2,58,0,120
2,62,0,0
2,60,100,0
2,65,100,0
2,60,0,60
2,65,0,0
2,60,100,0
2,65,100,0
2,60,0,180
2,65,0,0
2,59,100,120
2,62,100,0
2,59,0,240
2,62,0,0
2,61,100,0
2,64,100,0
2,61,0,240
2,64,0,0
2,65,100,0
2,69,100,0
2,65,0,120
2,69,0,0
2,67,100,0
2,72,100,0
2,67,0,120
2,72,0,0
2,70,100,0
2,74,100,0
2,70,0,120
2,74,0,0
2,65,100,0
2,69,100,0
2,65,0,120
2,69,0,0
2,70,100,0
2,67,100,0
2,70,0,240
2,67,0,0
2,64,100,0
2,67,100,0
2,64,0,240
2,67,0,0
2,60,100,0
2,65,100,0
2,60,0,480
2,65,0,0
2,59,100,0
2,62,100,0
2,59,0,240
2,62,0,0
2,61,100,0
2,64,100,0
2,61,0,240
2,64,0,0
2,65,100,0
2,69,100,0
2,65,0,120
2,69,0,0
2,67,100,0
2,72,100,0
2,67,0,120
2,72,0,0
2,74,100,0
2,70,100,0
2,74,0,120
2,70,0,0
2,69,100,0
2,65,100,0
2,69,0,120
2,65,0,0
2,70,100,0
2,67,100,0
2,70,0,240
2,67,0,0
2,64,100,0
2,67,100,0
2,64,0,240
2,67,0,0
2,77,100,0
2,77,0,480
2,60,100,0
2,57,100,0
2,60,0,480
2,57,0,0
2,59,100,0
2,62,100,0
2,59,0,240
2,62,0,0
2,64,100,0
2,67,100,0
2,64,0,240
2,67,0,0
2,65,100,0
2,69,100,0
2,65,0,480
2,69,0,0
2,65,100,0
2,62,100,0
2,65,0,240
2,62,0,0
2,60,100,0
2,64,100,0
2,60,0,240
2,64,0,0
2,60,100,0
2,65,100,0
2,60,0,360
2,65,0,0
2,60,100,0
2,60,0,120
2,62,100,0
2,62,0,120
2,60,100,0
2,62,100,0
2,60,0,60
2,62,0,0
2,59,100,0
2,62,100,0
2,59,0,180
2,62,0,0
2,58,100,120
2,62,100,0
2,58,0,120
2,62,0,0
2,60,100,0
2,65,100,0
2,60,0,60
2,65,0,0
2,60,100,0
2,65,100,0
2,60,0,180
2,65,0,0
2,59,100,120
2,62,100,0
2,59,0,240
2,62,0,0
2,61,100,0
2,64,100,0
2,61,0,240
2,64,0,0
2,65,100,0
2,69,100,0
2,65,0,120
2,69,0,0
2,67,100,0
2,72,100,0
2,67,0,120
2,72,0,0
2,70,100,0
2,74,100,0
2,70,0,120
2,74,0,0
2,65,100,0
2,69,100,0
2,65,0,120
2,69,0,0
2,70,100,0
2,67,100,0
2,70,0,240
2,67,0,0
2,64,100,0
2,67,100,0
2,64,0,240
2,67,0,0
2,60,100,0
2,65,100,0
2,60,0,480
2,65,0,0
2,59,100,0
2,62,100,0
2,59,0,240
2,62,0,0
2,61,100,0
2,64,100,0
2,61,0,240
2,64,0,0
2,65,100,0
2,69,100,0
2,65,0,120
2,69,0,0
2,67,100,0
2,72,100,0
2,67,0,120
2,72,0,0
2,70,100,0
2,74,100,0
2,70,0,120
2,74,0,0
2,65,100,0
2,69,100,0
2,65,0,120
2,69,0,0
2,70,100,0
2,67,100,0
2,70,0,240
2,67,0,0
2,64,100,0
2,67,100,0
2,64,0,240
2,67,0,0
2,77,100,0
2,77,0,480
2,57,100,0
2,60,100,0
2,57,0,480
2,60,0,0
2,59,100,0
2,62,100,0
2,59,0,240
2,62,0,0
2,64,100,0
2,67,100,0
2,64,0,240
2,67,0,0
2,65,100,0
2,69,100,0
2,65,0,480
2,69,0,0
2,62,100,0
2,65,100,0
2,62,0,240
2,65,0,0
2,60,100,0
2,64,100,0
2,60,0,240
2,64,0,0
2,60,100,0
2,65,100,0
2,60,0,360
2,65,0,0
2,60,100,0
2,60,0,120
2,62,100,0
2,62,0,120
2,69,100,0
2,60,100,0
2,62,100,0
2,69,0,60
2,60,0,0
2,62,0,0
2,59,100,0
2,62,100,0
2,59,0,180
2,62,0,0
2,58,100,120
2,62,100,0
2,58,0,120
2,62,0,0
2,60,100,0
2,65,100,0
2,60,0,60
2,65,0,0
2,60,100,0
2,65,100,0
2,60,0,180
2,65,0,0
2,57,100,120
2,60,100,0
2,57,0,240
2,60,0,0
2,55,100,0
2,62,100,0
2,55,0,240
2,62,0,0
2,58,100,0
2,62,100,0
2,58,0,120
2,62,0,0
2,60,100,0
2,65,100,0
2,60,0,60
2,65,0,0
2,60,100,0
2,65,100,0
2,60,0,180
2,65,0,0
3,53,100,0
3,53,0,480
3,53,100,0
3,53,0,480
3,41,100,0
3,41,0,360
3,53,100,0
3,53,0,120
3,52,100,0
3,52,0,240
3,45,100,0
3,45,0,240
3,50,100,0
3,50,0,360
3,48,100,0
3,48,0,120
3,46,100,0
3,46,0,240
3,48,100,0
3,48,0,240
3,53,100,0
3,53,0,240
3,53,100,0
3,53,0,120
3,52,100,0
3,52,0,120
3,50,100,0
3,50,0,240
3,43,100,0
3,43,0,240
3,46,100,0
3,46,0,120
3,41,100,0
3,41,0,60
3,41,100,0
3,41,0,180
3,48,100,0
3,48,0,120
3,41,100,0
3,41,0,360
3,53,100,0
3,53,0,120
3,52,100,0
3,52,0,240
3,45,100,0
3,45,0,240
3,50,100,0
3,50,0,360
3,48,100,0
3,48,0,120
3,46,100,0
3,46,0,240
3,48,100,0
3,48,0,240
3,53,100,0
3,53,0,240
3,53,100,0
3,53,0,120
3,52,100,0
3,52,0,120
3,50,100,0
3,50,0,240
3,43,100,0
3,43,0,240
3,46,100,0
3,46,0,120
3,41,100,0
3,41,0,60
3,41,100,0
3,41,0,180
3,48,100,0
3,48,0,120
3,45,100,0
3,55,100,0
3,45,0,240
3,55,0,0
3,45,100,0
3,55,100,0
3,45,0,240
3,55,0,0
3,50,100,0
3,50,0,120
3,48,100,0
3,48,0,120
3,46,100,0
3,46,0,120
3,45,100,0
3,45,0,120
3,43,100,0
3,43,0,240
3,48,100,0
3,48,0,240
3,41,100,0
3,41,0,240
3,53,100,0
3,53,0,240
3,45,100,0
3,55,100,0
3,45,0,240
3,55,0,0
3,45,100,0
3,55,100,0
3,45,0,240
3,55,0,0
3,50,100,0
3,50,0,120
3,48,100,0
3,48,0,120
3,46,100,0
3,46,0,120
3,45,100,0
3,45,0,120
3,43,100,0
3,43,0,240
3,48,100,0
3,48,0,240
3,53,100,0
3,53,0,480
3,41,100,0
3,41,0,360
3,53,100,0
3,53,0,120
3,52,100,0
3,52,0,240
3,45,100,0
3,45,0,240
3,50,100,0
3,50,0,360
3,48,100,0
3,48,0,120
3,46,100,0
3,46,0,240
3,48,100,0
3,48,0,240
3,53,100,0
3,53,0,240
3,53,100,0
3,53,0,120
3,52,100,0
3,52,0,120
3,50,100,0
3,50,0,240
3,43,100,0
3,43,0,240
3,46,100,0
3,46,0,120
3,41,100,0
3,41,0,60
3,41,100,0
3,41,0,180
3,48,100,0
3,48,0,120
3,45,100,0
3,55,100,0
3,45,0,240
3,55,0,0
3,45,100,0
3,55,100,0
3,45,0,240
3,55,0,0
3,50,100,0
3,50,0,120
3,48,100,0
3,48,0,120
3,46,100,0
3,46,0,120
3,45,100,0
3,45,0,120
3,43,100,0
3,43,0,240
3,48,100,0
3,48,0,240
3,41,100,0
3,41,0,240
3,53,100,0
3,53,0,240
3,45,100,0
3,55,100,0
3,45,0,240
3,55,0,0
3,45,100,0
3,55,100,0
3,45,0,240
3,55,0,0
3,50,100,0
3,50,0,120
3,48,100,0
3,48,0,120
3,46,100,0
3,46,0,120
3,45,100,0
3,45,0,120
3,43,100,0
3,43,0,240
3,48,100,0
3,48,0,240
3,53,100,0
3,53,0,480
3,41,100,0
3,41,0,360
3,53,100,0
3,53,0,120
3,52,100,0
3,52,0,240
3,45,100,0
3,45,0,240
3,50,100,0
3,50,0,360
3,48,100,0
3,48,0,120
3,46,100,0
3,46,0,240
3,48,100,0
3,48,0,240
3,53,100,0
3,53,0,240
3,53,100,0
3,53,0,120
3,52,100,0
3,52,0,120
3,50,100,0
3,50,0,240
3,43,100,0
3,43,0,240
3,46,100,0
3,46,0,120
3,41,100,0
3,41,0,60
3,41,100,0
3,41,0,180
3,48,100,0
3,48,0,120
3,48,100,0
3,48,0,240
3,47,100,0
3,47,0,240
3,46,100,0
3,46,0,120
3,41,100,0
3,41,0,60
3,41,100,0
3,41,0,180
4,55,127,960
4,55,0,60
4,53,127,0
4,53,0,60
4,53,127,0
4,53,0,360
4,57,127,120
4,57,0,60
4,59,127,0
4,59,0,60
4,61,127,0
4,61,0,60
4,62,127,0
4,62,0,60
4,64,127,0
4,64,0,60
4,65,127,0
4,65,0,60
4,64,127,0
4,64,0,90
4,62,127,0
4,62,0,30
4,62,127,0
4,62,0,360
4,62,127,120
4,62,0,60
4,62,127,0
4,62,0,60
4,60,127,0
4,60,0,60
4,58,127,0
4,58,0,60
4,57,127,0
4,57,0,60
4,55,127,0
4,55,0,60
4,58,127,0
4,58,0,120
4,57,127,0
4,57,0,60
4,57,127,0
4,57,0,180
4,55,127,0
4,55,0,120
4,53,127,0
4,53,0,120
4,57,127,0
4,57,0,60
4,55,127,0
4,55,0,180
4,50,127,0
4,50,0,60
4,53,127,60
4,53,0,120
4,57,127,0
4,57,0,60
4,57,127,0
4,57,0,180
4,55,127,120
4,55,0,60
4,53,127,0
4,53,0,60
4,53,127,0
4,53,0,360
4,57,127,120
4,57,0,60
4,59,127,0
4,59,0,60
4,61,127,0
4,61,0,60
4,62,127,0
4,62,0,60
4,64,127,0
4,64,0,60
4,65,127,0
4,65,0,60
4,64,127,0
4,64,0,90
4,62,127,0
4,62,0,30
4,62,127,0
4,62,0,360
4,62,127,120
4,62,0,60
4,62,127,0
4,62,0,60
4,60,127,0
4,60,0,60
4,58,127,0
4,58,0,60
4,57,127,0
4,57,0,60
4,55,127,0
4,55,0,60
4,58,127,0
4,58,0,120
4,57,127,0
4,57,0,60
4,57,127,0
4,57,0,180
4,55,127,0
4,55,0,120
4,53,127,0
4,53,0,120
4,57,127,0
4,57,0,60
4,55,127,0
4,55,0,180
4,50,127,0
4,50,0,60
4,53,127,60
4,53,0,120
4,57,127,0
4,57,0,60
4,57,127,0
4,57,0,180
4,57,127,120
4,57,0,240
4,57,127,0
4,57,0,240
4,62,127,0
4,62,0,120
4,64,127,0
4,64,0,120
4,65,127,0
4,65,0,120
4,64,127,0
4,64,0,60
4,62,127,0
4,62,0,60
4,64,127,0
4,64,0,180
4,62,127,0
4,62,0,60
4,60,127,0
4,60,0,120
4,62,127,0
4,62,0,120
4,57,127,0
4,57,0,480
4,57,127,0
4,57,0,240
4,57,127,0
4,57,0,240
4,62,127,0
4,62,0,120
4,64,127,0
4,64,0,120
4,65,127,0
4,65,0,120
4,64,127,0
4,64,0,60
4,62,127,0
4,62,0,60
4,64,127,0
4,64,0,180
4,62,127,0
4,62,0,60
4,60,127,0
4,60,0,120
4,64,127,0
4,64,0,120
4,65,127,0
4,60,127,120
4,60,0,120
4,58,127,0
4,58,0,120
4,57,127,0
4,65,0,120
4,57,0,0
4,55,127,0
4,55,0,60
4,53,127,0
4,53,0,60
4,53,127,0
4,53,0,360
4,57,127,120
4,57,0,60
4,59,127,0
4,59,0,60
4,61,127,0
4,61,0,60
4,62,127,0
4,62,0,60
4,64,127,0
4,64,0,60
4,65,127,0
4,65,0,60
4,64,127,0
4,64,0,90
4,62,127,0
4,62,0,30
4,62,127,0
4,62,0,360
4,62,127,120
4,62,0,60
4,62,127,0
4,62,0,60
4,60,127,0
4,60,0,60
4,58,127,0
4,58,0,60
4,57,127,0
4,57,0,60
4,55,127,0
4,55,0,60
4,58,127,0
4,58,0,120
4,57,127,0
4,57,0,60
4,57,127,0
4,57,0,180
4,55,127,0
4,55,0,120
4,53,127,0
4,53,0,120
4,57,127,0
4,57,0,60
4,55,127,0
4,55,0,180
4,50,127,0
4,50,0,60
4,53,127,60
4,53,0,120
4,57,127,0
4,57,0,60
4,57,127,0
4,57,0,180
4,57,127,120
4,57,0,240
4,57,127,0
4,57,0,240
4,62,127,0
4,62,0,120
4,64,127,0
4,64,0,120
4,65,127,0
4,65,0,120
4,64,127,0
4,64,0,60
4,62,127,0
4,62,0,60
4,64,127,0
4,64,0,180
4,62,127,0
4,62,0,60
4,60,127,0
4,60,0,120
4,62,127,0
4,62,0,120
4,57,127,0
4,57,0,480
4,57,127,0
4,57,0,240
4,57,127,0
4,57,0,240
4,62,127,0
4,62,0,120
4,64,127,0
4,64,0,120
4,65,127,0
4,65,0,120
4,64,127,0
4,64,0,60
4,62,127,0
4,62,0,60
4,64,127,0
4,64,0,180
4,62,127,0
4,62,0,60
4,60,127,0
4,60,0,120
4,64,127,0
4,64,0,120
4,65,127,0
4,60,127,120
4,60,0,120
4,58,127,0
4,58,0,120
4,57,127,0
4,65,0,120
4,57,0,0
4,55,127,0
4,55,0,60
4,53,127,0
4,53,0,60
4,53,127,0
4,53,0,360
4,57,127,120
4,57,0,60
4,59,127,0
4,59,0,60
4,61,127,0
4,61,0,60
4,62,127,0
4,62,0,60
4,64,127,0
4,64,0,60
4,65,127,0
4,65,0,60
4,64,127,0
4,64,0,90
4,62,127,0
4,62,0,30
4,62,127,0
4,62,0,360
4,62,127,120
4,62,0,60
4,62,127,0
4,62,0,60
4,60,127,0
4,60,0,60
4,58,127,0
4,58,0,60
4,57,127,0
4,57,0,60
4,55,127,0
4,55,0,60
4,58,127,0
4,58,0,120
4,57,127,0
4,57,0,60
