track,note,velocity,time
1,42,127,960
1,30,127,484
1,34,127,200
1,34,113,216
1,34,102,78
1,34,94,96
1,34,92,80
1,34,90,98
1,34,77,94
1,32,113,80
1,32,99,104
1,31,110,68
1,31,105,88
1,29,120,84
1,29,127,94
1,39,113,68
1,36,98,24
1,34,97,16
1,39,79,48
1,39,72,80
1,34,92,192
1,39,97,80
1,39,90,102
1,36,96,2
1,34,102,48
1,39,113,22
1,39,92,100
1,36,105,8
1,34,113,36
1,39,117,32
1,39,102,84
1,39,99,112
1,39,84,80
1,34,105,192
1,39,102,42
1,32,117,38
1,32,99,92
1,39,117,136
1,39,105,124
1,36,105,0
1,34,109,32
1,39,113,44
1,39,90,86
1,34,99,14
1,39,97,56
1,39,90,88
1,36,101,0
1,34,109,30
1,39,109,26
1,39,90,100
1,36,95,6
1,39,109,72
1,39,99,112
1,36,105,192
1,34,92,32
1,34,109,96
1,34,76,44
1,34,71,62
1,34,90,74
1,34,94,80
1,29,114,102
1,29,112,90
1,34,127,152
1,34,90,72
1,34,105,110
1,39,109,80
1,39,122,122
1,36,103,44
1,36,99,88
1,36,105,136
1,32,113,48
1,32,97,88
1,32,122,170
1,32,117,136
1,32,117,146
1,41,114,82
1,41,117,136
1,37,117,40
1,37,127,126
1,34,109,56
1,34,109,120
1,34,102,128
1,34,92,78
1,34,109,122
1,34,117,120
1,34,122,116
1,34,127,120
1,39,122,238
1,39,102,112
1,36,98,16
1,34,113,0
1,39,117,22
1,39,105,112
1,36,103,30
1,34,113,16
1,39,113,6
1,39,105,98
1,36,96,44
1,34,122,24
1,39,113,2
1,39,92,96
1,36,101,8
1,34,113,48
1,39,109,14
1,39,92,100
1,36,89,16
1,34,113,30
1,39,109,30
1,39,90,98
1,36,96,40
1,34,122,46
1,39,117,10
1,39,97,112
1,36,103,34
1,34,109,24
1,39,113,48
1,39,105,118
1,36,105,42
1,34,117,80
1,44,113,40
1,44,102,100
1,41,98,48
1,39,117,46
1,44,117,34
1,44,102,112
1,41,95,60
1,39,122,44
1,44,127,34
1,44,102,118
1,41,103,20
1,39,117,46
1,44,117,46
1,44,109,104
1,41,110,24
1,39,122,48
1,39,113,110
1,39,113,120
1,36,101,64
1,34,127,38
1,39,113,52
1,39,99,106
1,36,103,54
1,34,122,32
1,39,117,48
1,39,113,130
1,36,110,34
1,34,122,30
1,39,117,40
1,39,105,122
1,36,117,34
1,34,127,58
1,42,127,72
1,34,127,138
1,34,122,196
1,34,113,106
1,34,113,102
1,34,109,120
1,34,99,128
1,34,102,108
1,32,127,80
1,32,109,94
1,31,110,64
1,31,99,84
1,29,114,76
1,29,117,92
1,39,113,80
1,36,98,24
1,34,97,16
1,39,79,48
1,39,72,80
1,34,92,192
1,39,97,80
1,39,90,102
1,36,96,2
1,34,102,48
1,39,113,22
1,39,92,100
1,36,105,8
1,34,113,36
1,39,117,32
1,39,102,84
1,39,99,112
1,39,84,80
1,34,105,192
1,39,102,42
1,32,117,38
1,32,99,92
1,39,117,136
1,39,105,124
1,36,105,0
1,34,109,32
1,39,113,44
1,39,90,86
1,34,99,14
1,39,97,56
1,39,90,88
1,36,101,0
1,34,109,30
1,39,109,26
1,39,90,100
1,36,95,6
1,39,109,72
1,39,99,112
1,36,105,192
1,34,92,32
1,34,109,96
1,34,76,44
1,34,71,62
1,34,90,74
1,34,94,80
1,29,114,102
1,29,112,90
1,34,127,152
1,34,90,72
1,34,105,110
1,39,109,80
1,39,122,122
1,36,103,44
1,36,99,88
1,36,105,136
1,32,113,48
1,32,97,88
1,32,122,170
1,32,117,136
1,32,117,146
1,41,114,82
1,41,117,136
1,37,117,40
1,37,127,126
1,34,109,56
1,34,109,120
1,34,102,128
1,34,92,78
1,34,109,122
1,34,117,120
1,34,122,116
1,34,127,120
1,39,122,238
1,39,102,112
1,36,98,16
1,34,113,0
1,39,117,22
1,39,105,112
1,36,103,30
1,34,113,16
1,39,113,6
1,39,105,98
1,36,96,44
1,34,122,24
1,39,113,2
1,39,92,96
1,36,101,8
1,34,113,48
1,39,109,14
1,39,92,100
1,36,89,16
1,34,113,30
1,39,109,30
1,39,90,98
1,36,96,40
1,34,122,46
1,39,117,10
1,39,97,112
1,36,103,34
1,34,109,24
1,39,113,48
1,39,105,118
1,36,105,42
1,34,117,80
1,44,113,40
1,44,102,100
1,41,98,48
1,39,117,46
1,44,117,34
1,44,102,112
1,41,95,60
1,39,122,44
1,44,127,34
1,44,102,118
1,41,103,20
1,39,117,46
1,44,117,46
1,44,109,104
1,41,110,24
1,39,122,48
1,39,113,110
1,39,113,120
1,36,101,64
1,34,127,38
1,39,113,52
1,39,99,106
1,36,103,54
1,34,122,32
1,39,117,48
1,39,113,130
1,36,110,34
1,34,122,30
1,39,117,40
1,39,105,122
1,36,117,34
1,34,127,58
1,42,127,72
1,34,127,138
1,34,122,196
1,34,113,106
1,34,113,102
1,34,109,120
1,33,99,128
1,33,102,108
1,31,127,80
1,31,109,94
1,30,110,64
1,30,99,84
1,28,114,76
1,28,117,92
1,41,113,80
1,38,98,24
1,36,97,16
1,41,79,48
1,41,72,80
1,36,92,192
1,41,97,80
1,41,90,102
1,38,96,2
1,36,102,48
1,41,113,22
1,41,92,100
1,38,105,8
1,36,113,36
1,41,117,32
1,41,102,84
1,41,99,112
1,41,84,80
1,36,105,192
1,41,102,42
1,34,117,38
1,34,99,92
1,41,117,136
1,41,105,124
1,38,105,0
1,36,109,32
1,41,113,44
1,41,90,86
1,36,99,14
1,41,97,56
1,41,90,88
1,38,101,0
1,36,109,30
1,41,109,26
1,41,90,100
1,38,95,6
1,41,109,72
1,41,99,112
1,38,105,192
1,36,92,32
1,36,109,96
1,36,76,44
1,36,71,62
1,36,90,74
1,36,94,80
1,31,114,102
1,31,112,90
1,36,127,152
1,36,90,72
1,36,105,110
1,41,109,80
1,41,122,122
1,38,103,44
1,38,99,88
1,38,105,136
1,34,113,48
1,34,97,88
1,34,122,170
1,34,117,136
1,34,117,146
1,43,114,82
1,43,117,136
1,39,117,40
1,39,127,126
1,36,109,56
1,36,109,120
1,36,102,128
1,36,92,78
1,36,109,122
1,36,117,120
1,36,122,116
1,36,127,120
1,41,122,238
1,41,102,112
1,38,98,16
1,36,113,0
1,41,117,22
1,41,105,112
1,38,103,30
1,36,113,16
1,41,113,6
1,41,105,98
1,38,96,44
1,36,122,24
1,41,113,2
1,41,92,96
1,38,101,8
1,36,113,48
1,41,109,14
1,41,92,100
1,38,89,16
1,36,113,30
1,41,109,30
1,41,90,98
1,38,96,40
1,36,122,46
1,41,117,10
1,41,97,112
1,38,103,34
1,36,109,24
1,41,113,48
1,41,105,118
1,38,105,42
1,36,117,80
1,46,113,40
1,46,102,100
1,43,98,48
1,41,117,46
1,46,117,34
1,46,102,112
1,43,95,60
1,41,122,44
1,46,127,34
1,46,102,118
1,43,103,20
1,41,117,46
1,46,117,46
1,46,109,104
1,43,110,24
1,41,122,48
1,41,113,110
1,41,113,120
1,38,101,64
1,36,127,38
1,41,113,52
1,41,99,106
1,38,103,54
1,36,122,32
1,41,117,48
1,41,113,130
1,38,110,34
1,36,122,30
1,41,117,40
1,41,105,122
1,38,117,34
1,36,127,58
1,44,127,72
1,37,127,138
1,37,122,196
1,37,113,106
1,37,113,102
1,37,109,120
1,37,117,128
1,37,102,84
1,37,99,112
1,37,84,80
1,32,105,192
1,37,102,42
1,30,117,38
1,30,99,92
1,37,117,136
1,37,105,124
1,34,105,0
1,32,109,32
1,32,109,44
1,32,76,44
1,32,71,62
1,32,90,74
1,32,94,80
1,27,114,102
1,27,112,90
1,32,127,152
1,32,90,72
1,32,105,110
1,37,117,80
1,37,102,84
1,37,99,112
1,37,84,80
1,32,105,192
1,37,102,42
1,30,117,38
1,30,99,92
1,37,117,136
1,37,105,124
1,34,105,0
1,32,109,32
1,32,109,44
1,32,76,44
1,32,71,62
1,32,90,74
1,32,94,80
1,27,114,102
1,27,112,90
1,32,127,152
1,32,90,72
1,32,105,110
1,37,117,80
1,37,102,84
1,37,99,112
1,37,84,80
1,32,105,192
1,37,102,42
1,30,117,38
1,30,99,92
1,37,117,136
1,37,105,124
1,34,105,0
1,32,109,32
1,32,109,44
1,32,76,44
1,32,71,62
1,32,90,74
1,32,94,80
1,27,114,102
1,27,112,90
1,32,127,152
2,51,127,960
2,63,97,0
2,66,117,0
2,70,102,0
2,51,127,232
2,70,90,0
2,63,88,0
2,66,99,0
2,54,127,40
2,61,105,0
2,66,113,0
2,70,105,0
2,54,109,88
2,66,94,0
2,61,90,0
2,70,90,0
2,53,126,30
2,66,90,0
2,70,90,0
2,61,82,0
2,51,122,66
2,66,105,0
2,70,92,0
2,61,94,0
2,51,109,88
2,61,90,0
2,66,97,0
2,70,90,0
2,49,122,88
2,66,105,0
2,70,99,0
2,61,88,0
2,46,127,98
2,70,94,0
2,62,88,0
2,65,98,0
2,46,122,62
2,70,97,0
2,62,88,0
2,65,105,0
2,48,127,80
2,63,84,0
2,67,98,0
2,72,110,0
2,46,127,90
2,62,93,0
2,65,110,0
2,70,105,0
2,67,89,212
2,58,86,0
2,63,88,0
2,51,82,0
2,39,86,0
2,67,83,94
2,63,79,0
2,58,72,0
2,51,81,114
2,39,86,0
2,67,83,90
2,63,79,0
2,58,72,0
2,67,86,110
2,63,77,0
2,58,70,0
2,51,73,16
2,39,77,0
2,67,80,2
2,63,81,0
2,58,72,0
2,51,67,180
2,39,75,0
2,67,88,6
2,63,82,0
2,58,75,0
2,51,75,46
2,39,81,0
2,67,82,92
2,58,72,0
2,63,79,0
2,67,88,110
2,58,76,0
2,63,82,0
2,51,90,0
2,39,92,0
2,67,76,84
2,58,71,0
2,63,73,0
2,51,92,120
2,39,90,0
2,63,92,0
2,67,93,0
2,58,86,0
2,63,102,92
2,67,99,0
2,58,92,0
2,51,84,176
2,39,84,0
2,67,96,0
2,58,84,0
2,63,99,0
2,51,84,192
2,39,79,0
2,67,98,60
2,63,109,0
2,58,90,0
2,60,92,160
2,68,92,0
2,63,94,0
2,68,117,88
2,63,99,0
2,60,88,0
2,58,84,182
2,63,99,0
2,67,89,0
2,39,97,384
2,51,92,0
2,67,88,96
2,63,94,0
2,58,82,0
2,51,86,78
2,39,94,0
2,51,97,126
2,39,90,0
2,67,85,0
2,63,84,0
2,58,79,0
2,67,84,88
2,63,73,0
2,58,69,0
2,51,73,40
2,39,84,0
2,58,67,166
2,63,69,0
2,67,79,0
2,67,87,6
2,58,77,0
2,63,86,0
2,51,90,0
2,39,94,0
2,67,83,192
2,58,73,0
2,63,84,0
2,67,86,84
2,58,76,0
2,63,82,0
2,51,81,192
2,39,86,0
2,63,88,2
2,67,85,0
2,58,75,0
2,67,88,112
2,63,88,0
2,58,77,0
2,51,82,192
2,39,84,0
2,63,90,144
2,67,88,0
2,58,77,0
2,51,88,186
2,39,92,0
2,67,87,164
2,63,86,0
2,58,77,0
2,58,88,72
2,65,88,0
2,62,99,0
2,53,80,0
2,46,88,0
2,58,92,112
2,62,107,0
2,65,96,0
2,53,79,162
2,46,84,0
2,65,92,72
2,62,105,0
2,58,84,0
2,65,96,96
2,62,103,0
2,58,86,0
2,46,102,192
2,53,84,0
2,65,91,112
2,62,101,0
2,58,90,0
2,53,77,84
2,41,88,0
2,57,92,0
2,60,92,0
2,65,91,0
2,41,99,80
2,53,95,0
2,60,99,0
2,57,93,0
2,65,98,0
2,46,99,144
2,56,102,0
2,53,82,0
2,65,98,0
2,62,107,0
2,62,112,54
2,65,101,0
2,56,94,0
2,53,95,126
2,46,105,0
2,67,96,210
2,63,109,0
2,58,99,0
2,55,105,0
2,51,99,0
2,67,99,16
2,63,105,0
2,58,97,0
2,55,92,28
2,48,95,0
2,60,103,22
2,63,102,0
2,67,99,0
2,63,109,90
2,60,101,0
2,67,98,0
2,51,63,296
2,56,76,0
2,60,76,0
2,44,127,0
2,51,92,0
2,56,99,0
2,60,91,0
2,44,122,0
2,56,117,112
2,51,105,0
2,60,101,0
2,44,117,192
2,60,103,64
2,56,113,0
2,51,92,0
2,48,103,72
2,41,112,0
2,53,117,0
2,56,122,0
2,60,105,0
2,61,113,20
2,56,122,0
2,53,107,0
2,53,103,120
2,58,109,0
2,46,117,0
2,62,98,0
2,53,101,120
2,58,109,0
2,62,99,0
2,46,127,0
2,46,122,126
2,53,98,0
2,58,105,0
2,62,96,0
2,46,127,120
2,53,99,0
2,58,109,0
2,62,99,0
2,58,113,144
2,53,103,0
2,46,127,0
2,62,101,0
2,53,99,94
2,58,109,0
2,62,98,0
2,46,127,0
2,53,98,96
2,58,109,0
2,62,99,0
2,46,127,0
2,53,114,104
2,58,122,0
2,62,110,0
2,46,127,0
2,67,101,136
2,58,92,0
2,63,109,0
2,55,95,90
2,51,102,0
2,58,94,128
2,63,113,0
2,67,96,0
2,55,88,126
2,51,99,0
2,58,84,138
2,63,105,0
2,67,88,0
2,67,91,128
2,58,81,0
2,63,94,0
2,51,102,120
2,55,103,0
2,63,105,136
2,67,92,0
2,58,92,0
2,51,64,126
2,55,75,0
2,67,88,320
2,63,90,0
2,58,84,0
2,58,94,138
2,63,102,0
2,67,99,0
2,55,107,8
2,51,109,0
2,63,102,128
2,58,88,0
2,67,93,0
2,55,107,110
2,51,117,0
2,55,105,310
2,51,105,0
2,63,97,128
2,58,88,0
2,67,98,0
2,55,93,106
2,51,99,0
2,58,90,132
2,63,94,0
2,67,91,0
2,58,90,118
2,67,93,0
2,63,105,0
2,55,112,128
2,51,109,0
2,58,67,112
2,63,109,160
2,58,94,0
2,67,99,0
2,58,94,124
2,63,109,0
2,67,101,0
2,63,117,316
2,58,102,0
2,67,110,0
2,51,94,384
2,55,99,0
2,67,92,118
2,63,113,0
2,58,84,0
2,60,80,280
2,68,84,0
2,63,81,0
2,63,102,280
2,60,91,0
2,68,109,0
2,44,109,104
2,60,83,116
2,63,97,0
2,68,102,0
2,63,105,124
2,68,105,0
2,60,89,0
2,44,122,120
2,60,81,112
2,68,86,0
2,63,94,0
2,63,102,128
2,68,105,0
2,60,89,0
2,44,117,52
2,63,102,110
2,68,94,0
2,60,82,0
2,63,109,128
2,68,113,0
2,60,96,0
2,44,117,384
2,68,117,100
2,63,105,0
2,60,95,0
2,63,70,264
2,67,83,0
2,58,70,0
2,51,94,54
2,55,96,0
2,58,81,122
2,63,94,0
2,67,89,0
2,55,96,108
2,51,97,0
2,58,86,120
2,63,92,0
2,67,89,0
2,58,82,120
2,63,86,0
2,67,89,0
2,55,110,80
2,51,109,0
2,58,77,110
2,67,83,0
2,63,88,0
2,63,109,134
2,58,94,0
2,67,101,0
2,55,110,80
2,51,109,0
2,58,86,112
2,63,94,0
2,67,92,0
2,58,105,128
2,63,117,0
2,67,110,0
2,54,127,212
2,61,105,0
2,66,113,0
2,70,105,0
2,54,109,88
2,66,94,0
2,61,90,0
2,70,90,0
2,53,126,30
2,66,90,0
2,70,90,0
2,61,82,0
2,51,122,66
2,66,105,0
2,70,92,0
2,61,94,0
2,51,109,88
2,61,90,0
2,66,97,0
2,70,90,0
2,49,122,88
2,66,105,0
2,70,99,0
2,61,88,0
2,46,127,98
2,70,94,0
2,62,88,0
2,65,98,0
2,46,122,62
2,70,97,0
2,62,88,0
2,65,105,0
2,48,127,80
2,63,84,0
2,67,98,0
2,72,110,0
2,46,127,90
2,62,93,0
2,65,110,0
2,70,105,0
2,67,89,212
2,58,86,0
2,63,88,0
2,51,82,0
2,39,86,0
2,67,83,94
2,63,79,0
2,58,72,0
2,51,81,114
2,39,86,0
2,67,83,90
2,63,79,0
2,58,72,0
2,67,86,110
2,63,77,0
2,58,70,0
2,51,73,16
2,39,77,0
2,67,80,2
2,63,81,0
2,58,72,0
2,51,67,180
2,39,75,0
2,67,88,6
2,63,82,0
2,58,75,0
2,51,75,46
2,39,81,0
2,67,82,92
2,58,72,0
2,63,79,0
2,67,88,110
2,58,76,0
2,63,82,0
2,51,90,0
