track,note,velocity,time
3,66,66,668
3,54,60,0
3,54,0,763
3,66,0,0
3,57,61,2
3,69,66,0
3,57,0,763
3,66,60,3
3,69,0,1
3,54,60,0
3,66,0,764
3,54,0,4
3,57,61,0
3,69,62,1
3,69,0,764
3,62,61,2
3,71,67,0
3,57,0,1
3,66,60,3
3,66,0,757
3,71,0,0
3,69,62,6
3,62,0,2
3,64,60,0
3,60,67,2
3,64,0,761
3,69,0,1
3,60,0,3
3,62,62,0
3,71,62,0
3,66,64,1
3,71,0,762
3,66,0,2
3,62,0,0
3,60,63,4
3,64,54,1
3,69,62,0
3,60,0,762
3,64,0,1
3,62,61,4
3,69,0,1
3,66,60,0
3,71,59,0
3,71,0,759
3,62,0,3
3,66,0,1
3,60,64,4
3,69,62,0
3,64,53,1
3,69,0,762
3,64,0,4
3,60,0,0
3,71,56,1
3,62,64,0
3,66,57,2
3,66,0,761
3,62,0,1
3,71,0,2
3,60,63,1
3,64,55,2
3,69,60,0
3,69,0,762
3,64,0,0
3,60,0,4
3,67,66,2
3,62,64,0
3,71,66,0
3,64,68,768
3,62,0,1
3,64,0,762
3,62,63,5
3,62,0,766
3,64,64,2
3,64,0,758
3,71,0,0
3,67,0,1
3,72,67,9
3,64,67,0
3,67,60,1
3,67,0,383
3,64,0,1
3,69,62,0
3,72,0,1
3,62,63,1
3,66,62,0
3,62,0,376
3,66,0,3
3,71,57,3
3,66,51,0
3,62,59,0
3,69,0,1
3,66,0,377
3,62,0,2
3,64,58,3
3,60,64,1
3,67,59,0
3,71,0,1
3,60,0,378
3,64,0,6
3,67,0,0
3,60,60,1
3,64,65,0
3,67,63,0
3,72,66,187
3,60,0,92
3,71,65,6
3,72,0,40
3,64,0,46
3,71,0,9
3,62,62,1
3,67,0,1
3,69,64,0
3,66,64,3
3,62,0,377
3,66,0,1
3,69,0,0
3,62,67,0
3,71,67,0
3,66,61,1
3,66,0,379
3,71,0,0
3,62,0,4
3,71,66,0
3,67,67,1
3,64,71,0
3,71,0,694
3,64,0,2
3,67,0,1
3,66,63,74
3,62,67,0
3,71,64,0
3,66,0,757
3,71,0,7
3,62,0,1
3,69,66,0
3,64,60,1
3,60,64,1
3,60,0,760
3,64,0,1
3,69,0,0
3,71,64,4
3,62,66,1
3,66,59,0
3,62,0,764
3,71,0,0
3,66,0,3
3,69,66,0
3,64,57,2
3,60,61,1
3,64,0,762
3,71,62,3
3,62,62,0
3,60,0,1
3,66,59,0
3,69,0,1
3,62,0,763
3,64,55,3
3,71,0,1
3,66,0,0
3,69,64,0
3,60,63,1
3,60,0,763
3,69,0,0
3,64,0,0
3,71,66,3
3,62,56,1
3,66,61,0
3,66,0,764
3,62,0,4
3,71,0,0
3,69,62,1
3,60,64,1
3,64,53,0
3,64,0,723
3,60,0,0
3,69,0,13
3,55,65,128
3,59,68,77
3,62,69,113
3,67,67,95
3,62,0,4
3,62,59,45
3,67,0,5
3,62,0,17
3,67,63,1
3,67,0,19
3,62,62,3
3,67,60,51
3,62,0,6
3,67,0,37
3,67,67,6
3,62,60,50
3,67,0,3
3,67,67,17
3,62,0,7
3,67,0,16
3,62,64,1
3,67,67,51
3,59,0,17
3,62,0,1
3,55,0,4
3,67,0,32
3,55,68,89
3,59,67,95
3,66,65,95
3,64,67,48
3,66,0,2
3,67,67,48
3,64,0,4
3,64,64,44
3,67,0,1
3,67,67,22
3,64,0,4
3,64,66,23
3,67,0,9
3,67,65,35
3,64,0,29
3,67,0,4
3,67,65,15
3,64,63,50
3,67,0,3
3,64,0,19
3,67,66,1
3,64,65,20
3,67,0,2
3,64,0,46
3,67,68,7
3,55,0,16
3,59,0,5
3,67,0,35
3,55,65,84
3,59,60,79
3,62,66,97
3,62,0,96
3,67,64,20
3,62,63,44
3,67,0,7
3,67,64,17
3,62,0,3
3,67,0,18
3,62,62,7
3,67,65,44
3,62,0,13
3,67,0,24
3,67,66,11
3,62,59,49
3,67,0,1
3,62,0,22
3,67,69,1
3,67,0,23
3,62,64,0
3,67,68,48
3,62,0,1
3,59,0,28
3,55,0,13
3,67,0,13
3,55,67,91
3,59,63,96
3,66,65,95
3,64,62,50
3,66,0,4
3,67,68,43
3,64,0,5
3,67,0,40
3,64,64,3
3,67,65,23
3,64,0,3
3,67,0,18
3,64,62,6
3,67,65,45
3,64,0,16
3,67,0,24
3,67,66,7
3,64,61,50
3,67,0,4
3,67,66,19
3,64,0,8
3,64,63,16
3,67,0,2
3,67,66,45
3,64,0,6
3,67,0,33
3,59,0,1
3,55,0,0
3,72,64,10
3,67,62,0
3,64,68,0
3,64,0,373
3,67,0,6
3,72,0,3
3,66,61,0
3,62,62,3
3,69,66,0
3,66,0,377
3,69,0,4
3,62,0,0
3,66,60,0
3,71,59,0
3,62,61,3
3,62,0,377
3,66,0,0
3,71,0,1
3,60,47,4
3,64,62,0
3,67,63,0
3,72,62,576
3,71,60,96
3,64,0,15
3,60,0,0
3,72,0,35
3,67,0,34
3,71,0,11
3,62,59,0
3,66,59,1
3,69,65,1
3,62,0,382
3,66,0,1
3,69,0,4
3,71,62,0
3,66,54,0
3,62,68,1
3,62,0,372
3,66,0,2
3,71,0,4
3,64,66,1
3,71,64,0
3,67,62,0
3,67,0,384
3,64,0,0
3,71,0,4
3,55,60,0
3,64,73,0
3,59,64,0
3,60,67,0
3,55,0,363
3,60,0,1
3,59,0,0
3,64,0,3
3,64,70,16
3,59,68,0
3,67,68,0
3,64,0,760
3,67,0,1
3,59,0,0
3,67,61,3
3,60,67,1
3,64,67,0
3,60,0,760
3,64,0,3
3,67,0,1
3,59,66,5
3,64,64,0
3,67,64,0
3,59,0,762
3,67,0,1
3,64,0,0
3,60,67,5
3,64,65,1
3,67,64,0
3,67,0,762
3,64,0,0
3,60,0,0
3,64,64,4
3,67,65,0
3,60,70,0
3,67,0,379
3,60,0,1
3,64,0,3
3,69,64,0
3,66,68,1
3,62,66,0
3,62,0,380
3,66,0,0
3,69,0,0
3,66,63,4
3,59,67,0
3,62,65,0
3,62,0,379
3,59,0,0
3,66,0,1
3,64,67,5
3,60,67,1
3,59,68,0
3,64,0,678
3,59,0,2
3,60,0,0
3,66,60,89
3,62,66,0
3,71,57,0
3,66,0,764
3,71,0,1
3,62,0,0
3,69,60,3
3,60,67,0
3,64,60,1
3,64,0,759
3,60,0,1
3,69,0,0
3,62,64,4
3,71,61,1
3,66,62,0
3,66,0,759
3,71,0,4
3,62,0,3
3,60,63,1
3,69,62,0
3,64,57,1
3,64,0,763
3,69,0,0
3,60,0,3
3,67,64,4
3,62,57,0
3,71,62,0
3,62,0,84
3,62,60,10
3,62,0,90
3,62,60,5
3,62,0,87
3,62,63,9
3,62,0,43
3,62,65,5
3,71,0,43
3,67,0,0
3,67,60,7
3,71,59,0
3,62,0,89
3,62,61,4
3,62,0,77
3,62,60,3
3,62,0,109
3,62,63,5
3,71,0,64
3,71,72,32
3,67,0,4
3,62,0,1
3,67,67,43
3,71,0,10
3,66,62,13
3,67,0,13
3,64,65,12
3,66,0,12
3,64,0,37
3,64,65,1
3,71,67,44
3,64,0,7
3,67,63,42
3,71,0,14
3,66,62,9
3,67,0,20
3,64,64,4
3,66,0,9
3,64,0,36
3,64,60,6
3,71,65,45
3,64,0,24
3,67,63,24
3,71,0,14
3,66,60,11
3,67,0,19
3,64,66,4
3,66,0,12
3,64,0,18
3,64,61,2
3,71,67,64
3,64,0,3
3,67,66,46
3,71,0,12
3,66,58,12
3,67,0,19
3,64,65,4
3,66,0,13
3,64,0,32
3,64,66,4
3,64,0,45
3,67,65,3
3,71,67,1
3,62,62,95
3,62,0,92
3,62,57,4
3,62,0,94
3,62,61,1
3,62,0,45
3,62,63,3
3,67,0,44
3,71,0,5
3,71,58,3
3,67,65,0
3,62,0,85
3,62,58,8
3,62,0,91
3,62,62,5
3,62,0,91
3,62,63,4
3,71,0,58
3,71,68,39
3,62,0,3
3,67,0,0
3,67,65,45
3,71,0,11
3,66,61,13
3,67,0,21
3,64,64,2
3,66,0,18
3,64,0,31
3,64,58,1
3,71,58,47
3,64,0,15
3,67,64,35
3,71,0,12
3,66,61,11
3,67,0,16
3,64,62,8
3,66,0,20
3,64,0,23
3,64,63,5
3,71,62,47
3,64,0,10
3,67,64,39
3,71,0,13
3,66,62,10
3,67,0,14
3,64,63,10
3,66,0,15
3,64,0,32
3,64,62,1
3,71,62,47
3,64,0,11
3,67,65,41
3,71,0,9
3,66,63,14
3,67,0,14
3,64,64,7
3,66,0,12
3,64,0,32
3,64,62,5
3,64,0,47
3,67,65,0
3,71,64,0
3,62,59,96
3,62,0,92
3,62,61,4
3,62,0,93
3,62,64,3
3,62,0,45
3,62,64,7
3,71,0,37
3,67,0,0
3,67,61,8
3,71,64,1
3,62,0,90
3,62,58,4
3,62,0,93
3,62,61,4
3,62,0,91
3,62,58,4
3,71,0,67
3,62,0,27
3,71,69,2
3,67,0,5
3,67,62,43
3,71,0,11
3,66,62,14
3,67,0,8
3,64,64,16
3,66,0,18
3,64,0,30
3,64,64,2
3,71,66,48
3,64,0,17
3,67,65,30
3,71,0,12
3,66,61,12
3,67,0,10
3,64,64,13
3,66,0,15
3,64,0,32
3,64,64,2
3,71,68,47
3,64,0,11
3,67,65,37
3,71,0,9
3,66,63,15
3,67,0,17
3,64,65,6
3,66,0,5
3,64,0,40
3,64,65,5
3,71,68,47
3,64,0,8
3,67,64,40
3,71,0,8
3,66,61,16
3,67,0,22
3,64,66,2
3,66,0,13
3,64,0,34
3,64,62,1
3,64,0,40
3,67,68,8
3,71,68,1
3,62,58,95
3,62,0,91
3,62,61,1
3,62,0,96
3,62,61,3
3,62,0,45
3,62,67,3
3,71,0,45
3,67,0,0
3,67,59,4
3,71,62,0
3,62,0,92
3,62,58,3
3,62,0,92
3,62,60,4
3,62,0,93
3,62,65,3
3,71,0,85
3,71,70,11
3,67,0,4
3,62,0,11
3,67,62,36
3,71,0,15
3,66,61,7
3,67,0,15
3,64,66,8
3,66,0,12
3,64,0,33
3,64,64,5
3,71,66,47
3,64,0,10
3,67,64,37
3,71,0,12
3,66,61,13
3,67,0,18
3,64,64,5
3,66,0,12
3,64,0,32
3,64,56,5
3,71,63,47
3,64,0,6
3,67,63,42
3,71,0,8
3,66,63,17
3,67,0,19
3,64,64,4
3,66,0,10
3,64,0,35
3,64,64,5
3,71,72,47
3,64,0,10
3,67,66,38
3,71,0,9
3,66,63,15
3,67,0,20
3,64,63,3
3,66,0,17
3,64,0,27
3,64,64,5
3,71,67,47
3,67,65,1
3,64,0,4
3,62,59,92
3,62,0,92
3,62,61,4
3,62,0,92
3,62,59,3
3,62,0,45
3,62,63,3
3,71,0,45
3,67,0,3
3,67,61,1
3,71,63,1
3,62,0,91
3,62,57,3
3,62,0,93
3,62,62,4
3,62,0,95
3,62,62,1
3,71,0,72
3,67,0,23
3,71,64,1
3,62,0,8
3,67,64,44
3,71,0,14
3,66,61,8
3,67,0,5
3,64,59,22
3,66,0,2
3,64,0,43
3,64,64,1
3,71,68,45
3,64,0,3
3,67,65,44
3,71,0,10
3,66,59,18
3,67,0,9
3,64,66,14
3,66,0,9
3,64,0,33
3,64,65,4
3,71,63,47
3,64,0,6
3,67,65,42
3,71,0,10
3,66,60,14
3,67,0,9
3,64,64,15
3,66,0,13
3,64,0,32
3,64,63,4
3,71,65,47
3,64,0,10
3,67,64,42
3,71,0,4
3,66,60,20
3,67,0,9
3,64,65,11
3,66,0,5
3,64,0,40
3,64,63,3
3,64,0,46
3,67,66,3
3,71,65,0
3,62,59,96
3,62,0,94
3,62,61,1
3,62,0,93
3,62,62,4
3,62,0,50
3,62,64,1
3,71,0,40
3,67,0,1
3,71,64,4
3,67,63,1
3,62,0,87
3,62,59,7
3,62,0,92
3,62,60,5
3,62,0,92
3,62,62,3
3,71,0,51
3,67,0,45
3,71,68,1
3,62,0,4
3,67,66,47
3,71,0,11
3,66,64,13
3,67,0,5
3,64,66,15
3,66,0,9
3,64,0,39
3,64,64,4
3,71,60,45
3,64,0,3
3,67,63,44
3,71,0,9
3,66,61,19
3,67,0,8
3,64,64,16
3,66,0,8
3,64,0,36
3,64,67,4
3,71,58,44
3,64,0,3
3,67,63,46
3,71,0,13
3,66,59,10
3,67,0,13
3,64,64,11
3,66,0,9
3,64,0,35
3,64,61,4
3,71,61,49
3,64,0,12
3,67,64,38
3,71,0,1
3,66,60,24
3,67,0,9
3,64,65,11
3,66,0,8
3,64,0,37
3,64,64,3
3,67,66,48
3,64,0,1
3,71,66,0
3,62,58,95
3,62,0,93
3,62,59,3
3,62,0,92
3,62,59,4
3,62,0,92
3,62,59,5
3,62,0,92
3,62,60,4
3,62,0,88
3,62,63,8
3,62,0,92
3,62,64,3
3,71,0,44
3,71,65,53
3,62,0,3
3,67,0,2
3,67,63,43
3,71,0,17
3,66,59,6
3,67,0,12
3,64,64,17
3,66,0,5
3,64,0,35
3,64,66,4
3,71,62,48
3,64,0,8
3,67,64,41
3,71,0,7
3,66,61,16
3,67,0,7
3,64,65,17
3,66,0,13
3,64,0,31
3,64,62,5
3,71,64,47
3,64,0,6
3,67,64,0
3,71,0,9
3,66,59,11
3,67,0,2
3,64,64,3
3,66,0,8
3,64,0,3
3,64,63,5
3,71,61,9
3,64,0,2
3,67,64,13
3,71,0,1
3,66,62,6
3,67,0,5
3,64,66,1
3,66,0,8
3,64,0,3
3,64,63,1
3,67,65,6
3,64,0,1
3,71,67,0
3,62,60,12
3,62,0,14
3,62,59,4
3,62,0,5
3,62,62,4
3,62,0,8
3,62,64,4
3,71,0,13
3,67,0,0
3,67,62,1
3,71,64,0
3,62,0,2
3,62,61,5
3,62,0,11
3,62,63,1
3,62,0,1
3,62,64,4
3,71,0,12
3,67,0,9
3,71,64,2
3,62,0,2
3,67,64,0
3,71,0,11
3,66,61,6
3,67,0,4
3,64,65,0
3,66,0,9
3,64,0,1
3,64,66,3
3,71,64,7
3,64,0,3
3,67,65,10
3,71,0,4
3,66,61,6
3,67,0,4
3,64,64,8
3,66,0,13
3,64,0,3
3,64,60,1
3,71,62,3
3,64,0,8
3,67,60,7
3,71,0,5
3,66,61,1
3,67,0,4
3,64,65,6
3,66,0,4
3,64,0,14
3,64,64,0
3,71,61,1
3,64,0,12
3,67,65,4
3,71,0,7
3,66,60,12
3,67,0,9
3,64,66,6
3,66,0,6
3,64,0,9
3,64,67,3
3,67,63,15
3,64,0,1
3,71,60,0
3,62,56,1
3,62,0,373
3,67,0,3
3,71,0,1
4,35,105,663
4,35,0,30
4,30,87,15
4,30,0,33
4,33,101,15
4,33,0,35
4,30,84,12
4,30,0,36
4,33,103,14
4,33,0,39
4,30,92,8
4,30,0,25
4,33,98,72
4,33,0,28
4,35,102,21
4,35,0,36
4,33,95,11
4,33,0,29
4,30,92,18
4,30,0,25
4,33,96,23
4,33,0,27
4,35,102,21
4,35,0,29
4,33,99,19
4,33,0,27
4,38,98,22
4,38,0,30
4,40,102,18
4,40,0,20
4,33,99,29
4,33,0,23
4,33,96,26
4,33,0,23
4,33,98,23
4,33,0,25
4,31,97,25
4,31,0,21
4,33,103,27
4,33,0,32
4,31,101,17
4,31,0,27
4,31,100,65
4,31,0,18
4,33,99,32
4,33,0,21
4,33,96,26
4,33,0,23
4,33,98,25
4,33,0,28
4,31,97,22
4,31,0,20
4,33,103,28
4,33,0,28
4,31,102,21
4,31,0,21
4,28,91,24
4,28,0,47
4,35,107,52
4,35,0,32
4,30,89,16
4,30,0,28
4,33,102,19
4,33,0,29
4,30,87,19
4,30,0,21
4,35,103,27
4,35,0,30
4,30,94,16
4,30,0,25
4,30,90,73
4,30,0,20
4,35,104,27
4,35,0,37
4,30,85,10
4,30,0,33
4,33,102,16
4,33,0,31
4,30,97,15
4,30,0,18
4,38,105,31
4,38,0,32
4,35,99,18
4,35,0,24
4,33,98,24
4,33,0,32
4,35,106,16
4,35,0,22
4,33,103,26
4,33,0,33
