track,note,velocity,time
3,34,95,668
3,34,0,51
3,34,107,41
3,37,78,47
3,34,0,5
3,37,0,45
3,32,101,0
3,32,0,91
3,34,101,485
3,34,0,60
3,34,110,35
3,37,77,49
3,34,0,4
3,37,0,42
3,32,104,3
3,32,0,84
3,37,107,296
3,39,91,25
3,37,0,9
3,41,80,14
3,39,0,7
3,41,0,18
3,41,91,25
3,39,74,23
3,41,0,7
3,37,93,19
3,39,0,13
3,37,0,9
3,34,93,26
3,34,0,64
3,34,101,31
3,37,79,48
3,34,0,8
3,32,107,41
3,37,0,3
3,32,0,82
3,32,85,11
3,32,0,37
3,34,85,107
3,34,0,37
3,34,89,10
3,37,84,47
3,34,0,1
3,37,0,35
3,29,68,65
3,32,87,46
3,29,0,1
3,29,83,46
3,32,0,4
3,29,0,28
3,34,97,17
3,34,0,59
3,34,104,37
3,37,72,47
3,34,0,5
3,32,101,43
3,37,0,4
3,32,0,86
3,32,70,7
3,32,0,47
3,49,107,239
3,51,78,48
3,49,0,3
3,51,0,7
3,51,110,39
3,49,85,48
3,51,0,3
3,49,0,11
3,34,93,38
3,34,0,132
3,34,84,10
3,34,0,126
3,34,84,11
3,34,0,145
3,29,88,1
3,29,0,42
3,29,90,12
3,29,0,78
3,29,92,14
3,29,0,180
3,34,87,14
3,34,0,134
3,34,85,10
3,34,0,130
3,34,85,11
3,34,0,136
3,29,80,5
3,29,0,37
3,29,85,14
3,29,0,85
3,29,97,14
3,29,0,181
3,34,95,13
3,34,0,129
3,34,91,12
3,34,0,128
3,34,85,14
3,34,0,130
3,29,74,8
3,29,0,38
3,29,73,16
3,29,0,84
3,29,81,12
3,29,0,187
3,34,82,10
3,34,0,127
3,34,82,15
3,34,0,130
3,34,81,13
3,34,0,137
3,29,72,6
3,29,0,31
3,29,79,15
3,29,0,88
3,29,87,12
3,29,0,105
3,34,87,88
3,34,0,61
3,34,89,31
3,37,63,49
3,34,0,12
3,32,66,37
3,37,0,3
3,32,0,69
3,34,93,507
3,34,0,60
3,34,99,36
3,37,85,46
3,34,0,5
3,37,0,43
3,32,93,0
3,32,0,84
3,32,81,13
3,32,0,59
3,32,101,320
3,32,0,87
3,34,101,14
3,34,0,62
3,34,99,33
3,37,84,47
3,34,0,3
3,32,93,46
3,37,0,2
3,32,0,91
3,34,91,482
3,34,0,61
3,34,97,35
3,37,85,48
3,34,0,5
3,37,0,42
3,32,97,1
3,32,0,78
3,34,113,19
3,34,0,78
3,29,106,19
3,34,116,386
3,29,0,3
3,34,0,125
3,34,89,13
3,34,0,128
3,34,104,15
3,34,0,168
3,29,72,24
3,29,0,84
3,29,90,13
3,29,0,79
3,29,110,17
3,29,0,89
3,34,107,5
3,34,0,140
3,34,93,6
3,34,0,127
3,34,85,14
3,34,0,181
3,29,84,11
3,29,0,96
3,29,83,5
3,29,0,76
3,29,85,16
3,29,0,93
3,34,99,4
3,34,0,132
3,34,85,11
3,34,0,130
3,34,95,15
3,34,0,139
3,29,77,4
3,29,0,40
3,29,73,8
3,29,0,89
3,29,66,8
3,29,0,79
3,29,81,15
3,34,97,97
3,29,0,2
3,34,0,132
3,34,89,11
3,34,0,130
3,34,89,13
3,34,0,140
3,29,87,5
3,29,0,37
3,29,65,9
3,29,0,92
3,29,81,6
3,29,0,91
3,29,61,6
3,29,0,87
3,34,84,3083
3,34,0,37
3,34,84,57
3,34,0,46
3,32,73,1
3,34,78,49
3,32,0,8
3,34,0,47
3,32,93,474
3,34,81,48
3,32,0,8
3,34,0,61
3,34,77,24
3,32,58,50
3,34,0,13
3,34,71,34
3,32,0,1
3,34,0,72
3,37,85,312
3,39,67,48
3,37,0,7
3,39,0,36
3,41,77,3
3,37,77,49
3,41,0,10
3,37,0,17
3,34,81,22
3,34,0,54
3,34,78,40
3,34,0,53
3,34,60,44
3,34,0,36
3,34,70,11
3,34,0,57
3,34,58,41
3,34,0,34
3,34,82,13
3,34,0,63
3,34,77,33
3,34,0,62
3,34,57,32
3,34,0,36
3,34,84,13
3,34,0,62
3,34,56,39
3,34,0,20
3,34,71,24
3,34,0,67
3,34,68,29
3,34,0,65
3,34,78,79
3,34,0,67
3,34,39,29
3,34,0,17
3,34,64,31
3,34,0,66
3,34,87,3776
3,34,0,46
3,34,95,47
3,37,67,50
3,34,0,12
3,37,0,34
3,32,84,2
3,32,0,59
3,34,89,515
3,34,0,54
3,34,82,42
3,37,74,50
3,34,0,3
3,37,0,32
3,32,89,13
3,32,0,60
3,34,95,36
3,34,0,60
3,34,95,5029
3,34,0,128
3,34,85,14
3,34,0,134
3,34,89,10
3,34,0,133
3,29,79,10
3,29,0,40
3,29,76,9
3,29,0,83
3,29,92,14
3,29,0,170
3,34,99,23
3,34,0,129
3,34,81,13
3,34,0,134
3,34,82,10
3,34,0,138
3,29,80,5
3,29,0,41
3,29,78,9
3,29,0,87
3,29,81,10
3,29,0,186
3,34,82,4
3,34,0,133
3,34,95,13
3,34,0,128
3,34,73,14
3,34,0,131
3,29,81,12
3,29,0,40
3,29,66,9
3,29,0,82
3,29,87,15
3,29,0,180
3,34,84,10
3,34,0,123
3,34,84,5
3,34,0,137
3,34,81,25
3,34,0,127
3,29,74,16
3,29,0,34
3,29,78,13
3,29,0,93
3,29,73,7
3,29,0,160
3,46,91,32
3,46,0,7
3,46,66,41
3,46,0,6
3,46,113,41
3,46,0,40
3,58,74,7
3,58,0,5
3,46,74,43
3,46,0,7
3,46,97,88
3,46,0,40
3,58,74,9
3,58,0,7
3,46,81,41
3,46,0,9
3,46,97,87
3,46,0,26
3,58,81,20
3,58,0,13
3,46,89,36
3,46,0,8
3,46,60,38
3,46,0,6
3,46,97,43
3,46,0,40
3,58,78,7
3,58,0,17
3,46,74,33
3,46,0,6
3,46,67,42
3,46,0,6
3,46,101,42
3,46,0,38
3,58,77,10
3,58,0,7
3,46,78,40
3,46,0,8
3,46,53,41
3,46,0,5
3,46,95,42
3,46,0,43
3,58,66,8
3,58,0,4
3,46,79,42
3,46,0,9
3,46,85,38
3,46,0,8
3,46,99,39
3,46,0,43
3,58,82,7
3,58,0,6
3,46,85,40
3,46,0,15
3,46,56,35
3,46,0,5
3,46,91,42
3,46,0,45
3,58,79,4
3,58,0,12
3,46,84,37
3,46,0,7
3,46,61,41
3,46,0,5
3,46,107,42
3,46,0,41
3,58,79,8
3,58,0,8
3,46,87,39
3,46,0,7
3,46,64,42
3,46,0,5
3,46,104,42
3,46,0,39
3,58,89,9
3,58,0,7
3,46,82,40
3,46,0,9
3,46,101,88
3,46,0,40
3,58,79,7
3,58,0,12
3,46,79,35
3,46,0,8
3,46,101,90
3,46,0,41
3,58,82,6
3,58,0,15
3,46,85,32
3,46,0,9
3,46,66,41
3,46,0,5
3,46,99,42
3,46,0,43
3,58,75,5
3,58,0,16
3,46,91,33
3,46,0,8
3,46,84,40
3,46,0,7
3,46,99,40
3,46,0,46
3,58,72,2
3,58,0,14
3,46,85,35
3,46,0,9
3,46,99,87
3,46,0,42
3,58,68,5
3,58,0,11
3,46,56,38
3,46,0,3
3,46,99,91
3,46,0,44
3,58,67,3
3,58,0,15
3,46,53,86
3,46,0,5
3,46,77,41
3,46,0,36
3,58,67,10
3,58,0,9
3,46,60,40
3,46,0,4
3,46,60,44
3,46,0,4
3,46,97,43
3,46,0,41
3,58,73,8
3,58,0,8
3,46,82,40
3,46,0,12
3,46,81,84
3,46,0,21
3,46,81,76
3,46,0,11
3,46,51,37
3,46,0,6
3,46,70,42
3,46,0,12
3,46,52,37
3,46,0,9
3,32,97,40
3,32,0,3
3,32,99,44
3,32,0,75
3,32,70,20
3,32,0,15
3,32,74,32
3,32,0,12
3,32,97,36
3,32,0,71
3,32,66,26
3,32,0,13
3,32,75,34
3,32,0,12
3,32,91,38
3,32,0,67
3,32,64,28
3,32,0,12
3,32,84,35
3,32,0,13
3,32,87,36
3,32,0,76
3,32,72,21
3,32,0,41
3,31,73,8
3,31,0,16
3,31,80,31
3,31,0,71
3,31,66,27
3,31,0,16
3,31,80,30
3,31,0,16
3,31,78,32
3,31,0,71
3,31,80,26
3,31,0,22
3,31,67,24
3,31,0,18
3,31,83,30
3,31,0,69
3,31,68,25
3,31,0,21
3,31,71,29
3,31,0,18
3,31,79,30
3,31,0,71
3,31,73,25
3,31,0,37
3,30,65,12
3,30,0,14
3,30,77,34
3,30,0,69
3,30,61,26
3,30,0,13
3,30,79,33
3,30,0,13
3,30,75,36
3,30,0,71
3,30,67,26
3,30,0,12
3,30,75,36
3,30,0,13
3,30,77,34
3,30,0,72
3,30,68,23
3,30,0,18
3,30,75,30
3,30,0,18
3,30,89,31
3,30,0,74
3,30,77,23
3,30,0,35
3,34,67,17
3,34,0,12
3,34,95,33
3,34,0,65
3,34,65,29
3,34,0,13
3,34,68,36
3,34,0,12
3,34,89,36
3,34,0,73
3,34,73,22
3,34,0,50
3,29,76,45
3,29,0,16
3,29,80,35
3,29,0,75
3,29,76,21
3,29,0,158
3,34,99,35
3,34,0,128
3,34,89,14
3,34,0,131
3,34,85,13
3,34,0,134
3,29,74,10
3,29,0,31
3,29,87,17
3,29,0,71
3,29,78,25
3,29,0,73
3,29,70,23
3,29,0,94
3,32,61,2
3,32,0,20
3,32,72,28
3,32,0,79
3,32,53,16
3,32,0,19
3,32,64,29
3,32,0,18
3,32,72,31
3,32,0,77
3,32,66,19
3,32,0,28
3,32,62,21
3,32,0,21
3,32,68,25
3,32,0,74
3,32,49,21
3,32,0,18
3,32,68,32
3,32,0,18
3,32,77,28
3,32,0,82
3,32,63,15
3,32,0,45
3,31,73,4
3,31,0,16
3,31,81,32
3,31,0,75
3,31,70,19
3,31,0,23
3,31,63,27
3,31,0,16
3,31,73,32
3,31,0,70
3,31,69,24
3,31,0,23
3,31,69,27
3,31,0,15
3,31,75,33
3,31,0,78
3,31,69,17
3,31,0,24
3,31,74,25
3,31,0,20
3,31,80,28
3,31,0,75
3,31,74,19
3,31,0,42
3,30,70,8
3,30,0,19
3,30,77,30
3,30,0,74
3,30,65,20
3,30,0,18
3,30,64,30
3,30,0,17
3,30,72,31
3,30,0,76
3,30,61,20
3,30,0,21
3,30,60,29
3,30,0,26
3,30,73,21
3,30,0,72
3,30,71,24
3,30,0,41
3,29,70,7
3,29,0,24
3,29,80,22
3,29,0,77
3,29,67,19
3,29,0,43
3,34,78,7
3,34,0,124
3,34,91,20
3,34,0,128
3,34,84,16
3,34,0,5
3,29,64,12
3,29,0,30
3,29,70,11
3,29,0,43
3,29,79,1
3,29,0,22
3,34,73,13
3,34,0,49
3,34,81,14
3,34,0,16
3,34,77,30
3,34,0,23
3,29,64,6
3,29,0,7
3,29,74,16
3,29,0,43
3,29,70,10
3,29,0,30
3,29,75,21
3,29,0,25
3,32,56,18
3,32,0,11
3,32,67,37
3,32,0,54
3,32,56,20
3,32,0,21
3,32,63,13
3,32,0,17
3,32,67,7
3,32,0,27
3,32,59,23
3,32,0,11
3,32,68,33
3,32,0,7
3,32,67,31
3,32,0,14
3,32,44,11
3,32,0,26
3,32,53,18
3,32,0,32
3,32,67,14
3,32,0,42
3,32,65,1
3,32,0,46
3,31,67,3
3,31,0,14
3,31,78,29
3,31,0,17
3,31,70,16
3,31,0,6
3,31,66,20
3,31,0,27
3,31,70,20
3,31,0,36
3,31,64,4
3,31,0,26
3,31,61,23
3,31,0,28
3,31,72,19
3,31,0,18
3,31,66,17
3,31,0,5
3,31,70,25
3,31,0,25
3,31,73,22
3,31,0,41
3,31,72,10
3,31,0,1
3,30,67,5
3,30,0,21
3,30,71,26
3,30,0,16
3,30,62,24
3,30,0,10
3,30,67,24
3,30,0,5
3,30,72,23
3,30,0,44
3,30,62,14
3,30,0,28
3,30,67,10
3,30,0,28
3,30,73,4
3,30,0,23
3,30,72,22
3,29,69,38
3,30,0,1
3,29,0,12
3,29,73,19
3,29,0,9
3,29,65,13
3,29,0,1
3,34,74,15
3,34,0,671
4,34,108,663
4,34,0,39
4,34,109,54
4,34,0,48
4,37,102,0
4,37,0,44
4,32,110,5
4,32,0,3
4,32,111,391
4,32,0,46
4,34,109,0
4,34,0,33
4,34,108,17
4,34,0,31
4,34,106,17
4,34,0,47
4,37,105,0
4,37,0,47
4,32,108,0
4,32,0,13
4,29,110,31
4,29,0,49
4,27,106,0
4,27,0,5
4,34,108,212
4,34,0,35
4,34,104,12
4,34,0,32
4,34,108,17
4,34,0,48
4,37,101,0
4,37,0,42
4,32,108,5
4,32,0,99
4,32,112,431
4,32,0,49
4,34,104,0
4,34,0,35
4,34,104,13
4,34,0,32
4,34,103,15
4,34,0,48
4,37,104,0
4,37,0,45
4,32,108,2
4,32,0,3
4,29,107,4
4,29,0,81
4,29,106,104
4,29,0,49
4,32,108,0
4,32,0,47
4,34,108,49
4,34,0,143
4,34,107,3
4,34,0,139
4,34,105,3
4,34,0,129
4,29,102,15
4,29,0,45
4,29,103,3
4,29,0,95
4,29,107,3
4,29,0,164
4,34,108,26
4,34,0,143
4,34,105,1
4,34,0,141
4,34,105,3
4,34,0,144
4,29,104,1
4,29,0,48
4,29,104,1
4,29,0,95
4,29,105,1
4,29,0,165
4,34,107,24
4,34,0,140
4,34,104,5
4,34,0,141
4,34,105,3
4,34,0,140
4,29,103,3
4,29,0,44
4,29,103,5
4,29,0,97
4,29,104,1
4,29,0,169
4,34,109,21
4,34,0,141
4,34,104,2
4,34,0,142
4,34,103,2
4,34,0,144
4,29,105,0
4,29,0,46
4,29,102,2
4,29,0,94
4,29,104,3
4,29,0,47
4,29,105,1
4,32,108,48
4,29,0,5
4,32,0,90
4,34,111,1
4,34,0,45
4,34,105,2
4,34,0,47
4,34,106,2
4,34,0,48
4,37,104,0
4,37,0,47
4,32,105,0
4,32,0,81
4,34,107,496
4,34,0,57
4,34,109,41
4,34,0,45
4,37,102,0
4,37,0,48
4,32,104,0
4,32,0,62
4,34,107,34
4,34,0,12
4,34,107,346
4,34,0,51
4,34,108,44
4,34,0,48
4,37,101,0
4,37,0,49
4,32,106,0
4,32,0,49
4,34,107,528
4,34,0,53
4,34,108,42
4,34,0,48
4,37,103,0
4,37,0,49
4,32,107,0
4,32,0,66
4,34,107,29
4,34,0,62
4,29,108,36
4,29,0,374
4,34,103,10
4,34,0,139
4,34,103,2
4,34,0,142
4,34,101,2
4,34,0,127
4,29,103,17
4,29,0,46
4,29,104,3
4,29,0,96
4,29,102,1
4,29,0,169
4,34,102,23
4,34,0,140
4,34,100,3
4,34,0,141
4,34,102,2
4,34,0,136
4,29,102,8
4,29,0,46
4,29,103,3
4,29,0,97
4,29,102,1
4,29,0,178
4,34,104,12
4,34,0,144
4,34,103,1
4,34,0,142
4,34,101,3
4,34,0,133
4,29,102,9
4,29,0,47
4,29,101,1
4,29,0,97
4,29,102,1
4,29,0,163
4,34,102,25
4,34,0,143
4,34,102,3
4,34,0,141
4,34,102,1
4,34,0,138
4,29,100,7
4,29,0,44
4,29,100,3
4,29,0,97
4,29,101,1
4,29,0,172
4,34,105,21
4,34,0,34
4,34,100,12
4,34,0,39
4,34,96,8
4,34,0,48
4,32,100,0
4,32,0,50
4,34,103,0
4,34,0,322
4,34,102,255
4,34,0,37
4,34,103,10
4,34,0,69
4,32,102,26
4,32,0,49
4,34,101,0
4,34,0,61
4,32,98,371
4,32,0,38
4,32,101,9
4,32,0,54
4,34,103,44
4,34,0,40
4,34,103,8
4,34,0,84
4,32,100,11
4,32,0,48
4,34,101,0
4,34,0,44
4,32,100,484
4,32,0,47
4,34,103,0
4,34,0,68
4,34,103,29
4,34,0,47
4,32,99,0
4,32,0,49
4,34,103,0
4,34,0,46
4,49,108,195
4,49,0,9
4,49,111,37
4,49,0,8
4,49,110,16
4,49,0,9
4,34,107,257
4,34,0,48
4,34,109,47
4,34,0,48
4,32,101,0
4,32,0,45
4,34,109,5
4,34,0,1
4,34,107,468
4,34,0,45
4,34,105,48
4,34,0,48
4,32,101,0
4,32,0,50
