track,note,velocity,time
0,38,123,509
0,38,0,1
0,38,127,3
0,38,0,1
0,54,85,66
0,54,81,5
0,57,93,8
0,57,90,5
0,62,101,6
0,62,105,1
0,66,66,1
0,54,60,0
0,35,105,0
0,70,72,0
0,39,75,0
0,66,75,0
0,78,92,0
0,59,61,0
0,39,0,1
0,70,0,0
0,35,118,0
0,35,0,1
0,49,85,2
0,49,0,1
0,66,93,5
0,78,0,4
0,66,98,1
0,66,0,2
0,59,0,2
0,35,0,12
0,30,87,15
0,59,57,1
0,70,41,1
0,70,0,1
0,59,0,20
0,30,0,10
0,33,101,15
0,54,63,0
0,38,127,0
0,38,0,1
0,59,71,0
0,70,63,0
0,59,59,0
0,70,0,1
0,62,62,2
0,59,0,16
0,33,0,14
0,30,84,12
0,35,101,2
0,70,52,0
0,59,60,0
0,70,0,1
0,35,0,0
0,59,0,21
0,66,75,6
0,62,0,1
0,59,0,1
0,62,74,0
0,59,65,1
0,30,0,3
0,62,0,11
0,66,0,2
0,62,68,0
0,70,68,0
0,70,0,1
0,33,103,0
0,66,72,1
0,35,117,0
0,59,51,0
0,35,0,1
0,54,0,3
0,59,0,2
0,62,0,2
0,66,0,3
0,59,0,7
0,33,0,20
0,30,92,8
0,59,60,1
0,70,48,1
0,70,0,1
0,59,0,21
0,30,0,1
0,70,67,23
0,70,0,1
0,38,127,0
0,38,0,1
0,33,98,47
0,35,108,0
0,35,0,1
0,70,60,0
0,70,0,1
0,33,0,26
0,70,67,19
0,70,0,1
0,35,116,0
0,35,0,1
0,35,102,0
0,35,0,36
0,33,95,11
0,70,64,0
0,59,66,0
0,70,0,1
0,59,0,22
0,33,0,6
0,54,65,16
0,59,67,1
0,30,92,1
0,70,68,0
0,70,0,1
0,62,72,0
0,38,127,0
0,62,72,0
0,38,0,1
0,66,47,3
0,62,0,16
0,30,0,4
0,33,96,23
0,35,107,1
0,70,60,0
0,66,64,0
0,70,0,1
0,35,0,0
0,66,0,16
0,66,0,2
0,66,76,5
0,33,0,2
0,62,0,0
0,62,70,1
0,59,0,15
0,62,0,2
0,59,60,0
0,66,0,2
0,62,72,0
0,54,0,1
0,35,102,0
0,66,72,0
0,70,64,0
0,66,71,0
0,78,92,0
0,70,0,1
0,59,57,0
0,35,116,2
0,35,0,1
0,62,0,2
0,66,0,3
0,59,0,0
0,78,0,12
0,59,0,1
0,66,0,5
0,35,0,2
0,57,0,17
0,33,99,2
0,39,82,0
0,39,0,1
0,70,63,0
0,59,63,0
0,70,0,1
0,57,0,1
0,62,0,2
0,54,0,1
0,54,0,1
0,62,0,1
0,66,0,0
0,66,0,4
0,59,0,6
0,33,0,9
0,39,75,20
0,39,0,1
0,38,117,0
0,70,72,0
0,70,0,1
0,38,0,0
0,38,98,0
0,78,88,1
0,66,64,1
0,78,0,26
0,38,0,2
0,66,0,2
0,70,65,15
0,79,87,0
0,67,78,0
0,70,0,1
0,40,102,0
0,35,101,0
0,35,0,1
0,79,0,16
0,67,0,1
0,40,0,2
0,52,96,8
0,52,77,0
0,55,85,10
0,55,86,2
0,66,0,5
0,54,0,0
0,57,61,2
0,69,66,0
0,35,111,0
0,70,69,0
0,76,88,0
0,64,83,0
0,60,96,0
0,70,0,1
0,35,0,0
0,33,99,1
0,57,47,0
0,60,109,1
0,64,88,8
0,64,101,2
0,76,0,2
0,64,0,4
0,57,0,3
0,33,0,3
0,70,64,23
0,67,63,0
0,79,61,0
0,70,0,1
0,57,56,0
0,33,96,2
0,79,0,13
0,67,0,4
0,57,0,4
0,33,0,2
0,52,26,21
0,57,66,0
0,33,98,2
0,60,72,0
0,38,117,0
0,70,69,0
0,76,50,0
0,64,49,0
0,70,0,1
0,38,0,0
0,60,70,0
0,64,61,3
0,64,0,11
0,76,0,1
0,33,0,9
0,60,0,1
0,79,41,21
0,67,41,0
0,64,68,1
0,70,69,1
0,70,0,1
0,31,97,0
0,35,102,0
0,35,0,1
0,67,0,13
0,79,0,0
0,64,0,0
0,64,0,3
0,31,0,4
0,60,0,1
0,60,76,1
0,57,0,1
0,64,76,0
0,52,0,1
0,57,61,2
0,52,26,1
0,60,0,14
0,64,0,1
0,60,72,1
0,64,66,0
0,35,111,2
0,70,70,0
0,64,33,0
0,57,60,0
0,70,0,1
0,35,0,0
0,76,32,0
0,33,103,1
0,52,0,4
0,57,0,1
0,60,0,2
0,64,0,2
0,76,0,6
0,64,0,2
0,57,0,7
0,33,0,8
0,70,61,14
0,57,58,0
0,70,0,1
0,31,101,2
0,57,0,23
0,31,0,4
0,38,115,18
0,70,68,0
0,70,0,1
0,38,0,0
0,31,100,46
0,70,59,1
0,70,0,1
0,35,98,1
0,35,0,1
0,31,0,14
0,70,71,30
0,70,0,1
0,35,108,0
0,35,0,1
0,33,99,0
0,76,76,0
0,64,74,0
0,76,0,15
0,64,0,5
0,33,0,1
0,70,65,25
0,70,0,1
0,33,96,0
0,81,76,0
0,69,67,0
0,57,44,0
0,81,0,16
0,57,0,2
0,33,0,5
0,69,0,2
0,52,49,18
0,57,70,2
0,60,70,2
0,70,75,0
0,70,0,1
0,33,98,0
0,38,113,0
0,38,0,1
0,64,65,0
0,59,58,0
0,59,0,16
0,33,0,11
0,70,68,19
0,70,0,1
0,35,103,0
0,69,73,0
0,81,75,0
0,57,56,0
0,35,0,1
0,31,97,1
0,81,0,13
0,64,0,1
0,57,0,3
0,31,0,3
0,69,0,1
0,60,0,0
0,60,63,1
0,64,77,2
0,60,0,10
0,60,0,6
0,52,0,1
0,64,0,0
0,60,63,1
0,64,76,2
0,70,67,1
0,70,0,1
0,35,109,1
0,35,0,1
0,33,103,0
0,60,0,5
0,52,0,1
0,57,0,1
0,64,0,4
0,55,0,11
0,33,0,6
0,64,0,15
0,39,69,2
0,39,0,1
0,70,64,0
0,84,83,0
0,57,64,0
0,70,0,1
0,55,0,0
0,72,71,0
0,31,102,2
0,52,0,1
0,64,0,5
0,60,0,0
0,84,0,7
0,57,0,3
0,31,0,5
0,72,0,2
0,28,91,22
0,38,115,0
0,70,74,0
0,70,0,1
0,38,0,0
0,39,88,1
0,39,0,1
0,28,0,44
0,70,72,1
0,64,71,0
0,76,71,0
0,60,73,0
0,70,0,1
0,35,95,1
0,35,0,1
0,60,0,15
0,64,0,0
0,76,0,0
0,57,104,11
0,54,81,1
0,57,89,8
0,57,0,4
0,62,101,0
0,66,60,3
0,69,0,1
0,54,60,0
0,70,70,1
0,39,64,0
0,62,96,0
0,39,0,1
0,70,0,0
0,78,77,0
0,59,64,0
0,35,110,2
0,66,76,0
0,35,0,1
0,35,107,0
0,66,92,5
0,66,106,2
0,78,0,4
0,66,0,4
0,59,0,1
0,35,0,16
0,70,59,13
0,59,54,0
0,70,0,1
0,30,89,2
0,59,0,16
0,30,0,12
0,78,61,15
0,70,72,1
0,66,61,0
0,70,0,1
0,59,72,0
0,59,51,0
0,38,117,1
0,38,0,1
0,33,102,0
0,54,62,0
0,62,74,1
0,78,0,14
0,59,0,1
0,66,0,1
0,33,0,12
0,35,104,17
0,70,64,0
0,59,54,0
0,70,0,1
0,35,0,0
0,30,87,1
0,59,0,19
0,30,0,2
0,62,0,3
0,62,74,1
0,66,69,1
0,62,0,17
0,66,0,1
0,62,70,0
0,70,67,1
0,78,41,0
0,70,0,1
0,35,106,0
0,66,41,0
0,59,54,0
0,35,0,1
0,66,73,0
0,35,103,1
0,54,0,5
0,62,0,1
0,66,0,2
0,59,0,0
0,59,0,11
0,78,0,0
0,66,0,2
0,35,0,9
0,30,94,16
0,59,57,0
0,70,67,1
0,70,0,1
0,59,0,17
0,30,0,6
0,78,29,21
0,38,111,1
0,70,68,0
0,70,0,1
0,38,0,0
0,66,28,0
0,66,0,18
0,78,0,5
0,70,65,24
0,70,0,1
0,35,97,0
0,35,0,1
0,30,90,1
0,30,0,20
0,70,68,25
0,70,0,1
0,35,109,0
0,35,0,1
0,35,104,0
0,35,0,37
0,70,65,9
0,70,0,1
0,30,85,0
0,59,61,0
0,59,0,20
0,30,0,13
0,54,65,11
0,59,71,1
0,70,70,1
0,70,0,1
0,62,71,0
0,38,120,1
0,62,68,0
0,38,0,1
0,33,102,0
0,62,0,16
0,57,0,9
0,33,0,6
0,62,0,2
0,66,0,6
0,30,97,7
0,70,71,0
0,70,0,1
0,66,63,0
0,35,97,1
0,35,0,1
0,30,0,15
0,66,0,4
0,62,0,1
0,66,74,0
0,62,75,1
0,59,0,2
0,59,69,1
0,59,0,14
0,62,0,2
0,66,0,0
0,59,71,1
0,62,74,1
0,66,75,2
0,70,70,1
0,78,81,0
0,66,64,0
0,70,0,1
0,38,105,0
0,35,108,0
0,59,58,0
0,35,0,1
0,62,0,1
0,54,0,2
0,57,0,1
0,66,0,2
0,59,0,1
0,66,0,8
0,78,0,6
0,59,0,0
0,66,0,1
0,54,0,2
0,62,0,1
0,38,0,6
0,39,74,15
0,39,0,1
0,70,75,0
0,59,64,0
0,70,0,1
0,35,99,1
0,59,0,16
0,35,0,8
0,38,115,22
0,70,81,0
0,39,94,0
0,78,90,0
0,66,77,0
0,39,0,1
0,70,0,0
0,38,0,0
0,33,98,1
0,66,0,23
0,78,0,1
0,33,0,8
0,67,79,13
0,70,74,1
0,79,73,0
0,70,0,1
0,35,106,1
0,35,101,0
0,35,0,1
0,79,0,14
0,67,0,1
0,35,0,6
0,52,88,6
0,55,97,10
0,66,0,2
0,52,74,3
0,54,0,1
0,57,61,0
0,39,79,0
0,39,0,1
0,69,62,0
0,70,74,0
0,70,0,1
0,35,109,1
0,64,73,0
0,57,57,0
0,35,0,1
0,33,103,0
0,76,64,0
0,55,76,1
0,60,105,2
0,60,87,11
0,76,0,2
0,57,0,0
0,64,0,0
0,64,97,4
0,64,81,1
0,33,0,12
0,70,68,12
0,70,0,1
0,57,57,0
0,31,96,2
0,79,60,0
0,67,60,0
0,67,0,17
0,79,0,1
0,57,0,2
0,31,0,0
0,57,65,24
0,70,71,1
0,70,0,1
0,28,98,0
0,60,75,0
0,38,109,0
0,60,66,0
0,38,0,1
0,64,75,1
0,76,51,1
0,64,51,0
0,64,0,15
0,76,0,0
0,60,0,1
0,28,0,9
0,35,96,20
0,70,72,0
0,64,68,0
0,70,0,1
0,35,0,0
0,31,99,0
0,79,43,1
0,67,43,1
0,64,0,14
0,64,0,3
0,67,0,2
0,79,0,0
0,31,0,0
0,60,0,5
0,64,76,0
0,60,71,1
0,60,0,18
0,64,0,0
0,57,0,0
0,57,58,1
0,35,108,0
0,35,0,1
0,70,74,0
0,57,54,0
0,70,0,1
0,33,105,0
0,64,38,1
0,76,38,0
0,57,0,3
0,76,0,12
0,64,0,3
0,57,0,3
0,33,0,9
0,70,69,15
0,70,0,1
0,57,53,0
0,31,102,1
0,57,0,20
0,31,0,1
0,70,75,25
0,70,0,1
0,38,111,0
0,38,0,1
0,70,68,46
0,70,0,1
0,31,103,0
0,35,95,0
0,35,0,1
0,31,0,19
0,70,63,27
0,70,0,1
0,33,107,0
0,35,109,0
0,57,77,0
0,69,76,0
0,35,0,1
0,57,0,19
0,69,0,1
0,33,0,8
0,70,64,18
0,76,81,0
0,64,80,0
0,70,0,1
0,57,61,0
0,31,97,2
0,76,0,13
0,57,0,6
0,31,0,2
0,64,0,1
0,52,60,20
0,57,70,2
0,60,76,2
0,38,103,0
0,70,69,0
0,70,0,1
0,38,0,0
0,28,97,0
0,64,74,1
0,28,0,23
0,60,83,22
0,72,83,0
0,35,102,1
0,60,76,0
0,35,0,1
0,31,97,0
0,70,64,0
0,70,0,1
0,72,0,14
0,31,0,3
0,64,0,1
0,60,0,1
0,60,0,4
0,60,75,1
0,60,0,3
0,64,76,0
0,60,0,2
0,64,0,11
0,57,0,0
0,60,0,2
0,57,68,0
0,60,76,2
0,52,0,1
0,64,74,0
0,35,110,0
0,70,74,0
0,70,0,1
0,35,0,0
0,33,107,0
0,57,58,0
0,52,0,6
0,60,0,1
0,57,0,3
0,64,0,0
0,60,0,7
0,57,0,2
0,33,0,6
0,64,0,7
0,52,0,2
0,55,0,2
0,39,75,9
0,39,0,1
0,35,108,0
0,35,0,1
0,70,64,0
0,57,76,0
0,69,76,0
0,70,0,1
0,57,59,0
0,31,101,1
0,64,0,10
0,55,0,4
0,69,0,5
0,31,0,1
0,57,0,1
0,57,0,1
0,38,123,19
0,38,0,1
0,38,127,3
0,39,90,0
0,39,0,1
0,38,0,0
0,28,105,1
0,70,70,0
0,59,69,0
0,70,0,1
0,59,0,25
0,28,0,4
0,60,81,16
0,72,88,0
0,70,71,1
0,70,0,1
0,60,76,0
0,72,0,14
0,54,93,3
0,60,0,1
0,60,0,4
0,54,72,0
0,57,95,6
0,57,81,3
0,62,93,7
0,69,0,5
0,62,103,1
0,62,61,1
0,71,67,0
0,49,85,0
0,49,0,1
0,57,0,0
0,70,71,1
0,70,0,1
0,71,67,0
0,59,55,0
0,66,60,1
0,35,103,0
0,35,110,0
0,66,91,0
0,35,0,1
0,59,64,0
0,66,94,9
0,59,0,6
0,71,0,2
0,59,0,4
0,35,0,2
0,42,60,22
0,70,65,0
0,72,61,0
0,60,61,0
0,70,0,1
0,42,0,0
0,59,63,0
0,30,95,2
0,72,0,13
0,59,0,2
0,60,0,0
0,30,0,14
0,54,60,15
0,70,71,1
0,70,0,1
0,59,70,0
0,38,100,0
0,42,60,0
0,71,54,0
0,59,54,0
0,42,0,1
0,38,0,0
0,33,101,0
0,62,74,0
0,66,29,7
0,71,0,8
0,59,0,5
0,33,0,3
0,42,47,23
0,60,47,0
0,72,47,0
0,42,0,1
0,30,92,0
0,70,65,0
0,70,0,1
0,35,99,0
0,35,0,1
0,66,0,2
0,60,0,9
0,72,0,1
0,66,75,9
0,62,0,1
0,62,68,1
0,30,0,2
0,62,0,16
0,66,0,1
0,62,65,1
0,66,73,1
0,42,58,0
0,42,0,1
0,70,68,0
0,71,40,0
0,59,40,0
0,70,0,1
0,35,102,0
0,59,54,0
0,35,105,2
0,35,0,1
0,62,0,0
0,54,0,1
0,66,0,1
0,59,0,1
0,71,108,1
0,59,0,6
0,59,0,4
0,71,0,0
0,35,0,6
0,71,0,6
0,69,91,1
0,70,67,16
0,70,0,1
0,30,89,0
0,42,54,0
0,59,54,0
0,42,0,1
0,69,0,4
0,59,0,10
0,30,0,13
0,71,100,1
0,70,74,18
0,70,0,1
0,33,100,0
0,38,113,0
0,38,0,1
0,42,63,0
0,42,0,1
0,71,0,7
0,33,0,14
0,69,99,13
0,42,60,11
0,70,65,0
0,70,0,1
0,42,0,0
0,30,91,0
0,35,100,2
0,35,0,1
0,30,0,19
0,35,100,25
0,70,68,0
0,70,0,1
0,42,67,0
0,42,0,1
0,35,106,1
0,35,0,1
0,35,0,21
0,30,91,23
0,42,66,0
0,42,0,1
0,59,63,0
0,70,64,2
0,70,0,1
0,69,0,1
0,59,0,15
0,30,0,8
0,71,105,10
0,54,43,8
0,33,100,2
0,59,68,0
0,42,71,0
0,42,0,1
0,38,109,0
0,62,61,0
0,38,0,1
0,62,72,0
0,70,72,0
0,70,0,1
0,66,72,1
0,62,0,11
0,71,0,3
0,74,95,5
0,33,0,4
0,74,0,15
0,30,100,6
0,42,60,0
0,70,68,0
0,70,0,1
0,42,0,0
0,35,100,0
0,66,57,0
0,35,0,1
0,66,0,9
0,71,95,2
0,30,0,10
0,66,0,0
0,66,74,2
0,62,0,1
0,62,63,1
0,59,0,17
0,59,68,1
0,62,0,1
0,66,0,0
0,42,66,1
0,42,0,1
0,70,68,0
0,59,56,0
0,70,0,1
0,38,102,0
0,66,69,0
0,35,105,0
0,35,0,1
0,57,0,0
0,54,0,0
0,59,0,3
0,66,0,2
0,59,0,7
0,62,0,1
0,66,0,1
0,54,0,4
0,57,0,2
0,38,0,5
0,54,0,2
0,62,0,5
0,66,0,4
0,42,60,9
0,42,0,1
0,70,68,0
0,59,61,0
0,70,0,1
0,35,98,0
0,59,0,15
0,35,0,5
