track,note,velocity,time
0,38,123,285
0,38,127,3
0,54,85,66
0,54,81,5
0,57,93,8
0,57,90,5
0,62,101,6
0,62,105,1
0,35,105,1
0,66,66,0
0,54,60,0
0,66,75,0
0,78,92,0
0,59,61,0
0,70,72,0
0,39,75,0
0,35,118,1
0,49,85,2
0,66,93,5
0,66,98,1
0,30,87,15
0,59,57,1
0,70,41,1
0,33,101,15
0,54,63,0
0,38,127,1
0,59,71,0
0,59,59,0
0,70,63,0
0,62,62,2
0,30,84,12
0,35,101,2
0,59,60,0
0,70,52,0
0,66,75,6
0,62,74,0
0,59,65,1
0,62,68,0
0,70,68,0
0,33,103,1
0,35,117,1
0,66,72,0
0,59,51,0
0,30,92,8
0,59,60,1
0,70,48,1
0,70,67,23
0,38,127,1
0,35,108,47
0,33,98,0
0,70,60,0
0,70,67,19
0,35,116,1
0,35,102,0
0,33,95,11
0,59,66,0
0,70,64,0
0,54,65,16
0,59,67,1
0,30,92,1
0,70,68,0
0,38,127,1
0,62,72,0
0,62,72,0
0,66,47,3
0,33,96,23
0,35,107,1
0,66,64,0
0,70,60,0
0,66,76,5
0,62,70,1
0,59,60,0
0,62,72,0
0,35,102,1
0,66,72,0
0,66,71,0
0,78,92,0
0,70,64,0
0,59,57,1
0,35,116,2
0,33,99,2
0,39,82,0
0,59,63,1
0,70,63,0
0,39,75,20
0,38,117,1
0,70,72,0
0,38,98,0
0,78,88,1
0,66,64,1
0,79,87,15
0,67,78,0
0,70,65,0
0,35,101,1
0,40,102,0
0,52,96,8
0,52,77,0
0,55,85,10
0,55,86,2
0,35,111,2
0,57,61,0
0,69,66,0
0,60,96,0
0,76,88,0
0,64,83,0
0,70,69,0
0,33,99,1
0,57,47,0
0,60,109,1
0,64,88,8
0,64,101,2
0,67,63,23
0,79,61,0
0,70,64,0
0,57,56,1
0,33,96,2
0,52,26,21
0,57,66,0
0,38,117,2
0,33,98,0
0,60,72,0
0,76,50,0
0,64,49,0
0,70,69,0
0,60,70,0
0,64,61,3
0,79,41,21
0,67,41,0
0,64,68,1
0,70,69,1
0,35,102,1
0,31,97,0
0,60,76,1
0,64,76,0
0,57,61,2
0,52,26,1
0,60,72,1
0,64,66,0
0,35,111,2
0,64,33,0
0,57,60,0
0,70,70,0
0,76,32,0
0,33,103,1
0,57,58,14
0,70,61,0
0,31,101,2
0,38,115,18
0,70,68,0
0,31,100,46
0,70,59,1
0,35,98,1
0,70,71,30
0,35,108,1
0,33,99,0
0,76,76,0
0,64,74,0
0,70,65,25
0,33,96,1
0,81,76,0
0,69,67,0
0,57,44,0
0,52,49,18
0,57,70,2
0,60,70,2
0,70,75,0
0,38,113,1
0,33,98,0
0,64,65,0
0,59,58,0
0,70,68,19
0,35,103,1
0,69,73,0
0,81,75,0
0,57,56,0
0,31,97,1
0,60,63,1
0,64,77,2
0,60,63,1
0,64,76,2
0,70,67,1
0,35,109,1
0,33,103,0
0,39,69,2
0,84,83,1
0,57,64,0
0,70,64,0
0,72,71,0
0,31,102,2
0,38,115,22
0,28,91,0
0,70,74,0
0,39,88,1
0,64,71,1
0,76,71,0
0,60,73,0
0,70,72,0
0,35,95,1
0,57,104,11
0,54,81,1
0,57,89,8
0,62,101,0
0,66,60,3
0,54,60,0
0,62,96,1
0,70,70,0
0,39,64,0
0,78,77,1
0,59,64,0
0,35,110,2
0,66,76,0
0,35,107,0
0,66,92,5
0,66,106,2
0,59,54,13
0,70,59,0
0,30,89,2
0,78,61,15
0,66,61,1
0,70,72,0
0,59,72,1
0,59,51,0
0,38,117,1
0,33,102,0
0,54,62,0
0,62,74,1
0,35,104,17
0,59,54,0
0,70,64,0
0,30,87,1
0,62,74,1
0,66,69,1
0,62,70,0
0,78,41,1
0,70,67,0
0,35,106,1
0,66,41,0
0,59,54,0
0,66,73,0
0,35,103,1
0,30,94,16
0,59,57,0
0,70,67,1
0,78,29,21
0,38,111,1
0,70,68,0
0,66,28,0
0,70,65,24
0,35,97,1
0,30,90,1
0,70,68,25
0,35,109,1
0,35,104,0
0,70,65,9
0,30,85,1
0,59,61,0
0,54,65,11
0,59,71,1
0,70,70,1
0,62,71,1
0,38,120,1
0,62,68,0
0,33,102,0
0,30,97,7
0,70,71,0
0,66,63,1
0,35,97,1
0,66,74,0
0,62,75,1
0,59,69,1
0,59,71,1
0,62,74,1
0,66,75,2
0,78,81,1
0,66,64,0
0,70,70,0
0,35,108,1
0,38,105,0
0,59,58,0
0,39,74,15
0,59,64,1
0,70,75,0
0,35,99,1
0,38,115,22
0,78,90,0
0,66,77,0
0,70,81,0
0,39,94,0
0,33,98,1
0,67,79,13
0,79,73,1
0,70,74,0
0,35,101,1
0,35,106,0
0,52,88,6
0,55,97,10
0,52,74,3
0,57,61,0
0,39,79,0
0,69,62,1
0,70,74,0
0,35,109,1
0,64,73,0
0,57,57,0
0,33,103,0
0,76,64,0
0,55,76,1
0,60,105,2
0,60,87,11
0,64,97,4
0,64,81,1
0,70,68,12
0,57,57,1
0,31,96,2
0,79,60,0
0,67,60,0
0,57,65,24
0,70,71,1
0,38,109,1
0,28,98,0
0,60,75,0
0,60,66,0
0,64,75,1
0,76,51,1
0,64,51,0
0,35,96,20
0,64,68,0
0,70,72,0
0,31,99,0
0,79,43,1
0,67,43,1
0,64,76,0
0,60,71,1
0,35,108,1
0,57,58,0
0,57,54,0
0,70,74,0
0,33,105,1
0,64,38,1
0,76,38,0
0,70,69,15
0,57,53,1
0,31,102,1
0,70,75,25
0,38,111,1
0,70,68,46
0,35,95,1
0,31,103,0
0,70,63,27
0,35,109,1
0,33,107,0
0,57,77,0
0,69,76,0
0,76,81,18
0,64,80,0
0,70,64,0
0,57,61,1
0,31,97,2
0,52,60,20
0,57,70,2
0,38,103,2
0,60,76,0
0,70,69,0
0,28,97,0
0,64,74,1
0,60,83,22
0,72,83,0
0,35,102,1
0,60,76,0
0,31,97,0
0,70,64,0
0,60,75,1
0,64,76,3
0,57,68,0
0,60,76,2
0,35,110,1
0,64,74,0
0,70,74,0
0,33,107,0
0,57,58,0
0,39,75,9
0,35,108,1
0,57,76,0
0,69,76,0
0,70,64,0
0,57,59,1
0,31,101,1
0,38,123,19
0,38,127,3
0,39,90,0
0,28,105,1
0,59,69,0
0,70,70,0
0,60,81,16
0,72,88,0
0,70,71,1
0,60,76,1
0,54,93,3
0,54,72,4
0,57,95,6
0,57,81,3
0,62,93,7
0,62,103,1
0,49,85,1
0,62,61,0
0,71,67,0
0,70,71,1
0,71,67,1
0,59,55,0
0,35,110,1
0,35,103,0
0,66,60,0
0,66,91,0
0,59,64,0
0,66,94,9
0,42,60,22
0,72,61,0
0,60,61,0
0,70,65,0
0,59,63,0
0,30,95,2
0,54,60,15
0,70,71,1
0,38,100,1
0,42,60,0
0,59,70,0
0,71,54,0
0,59,54,0
0,33,101,0
0,62,74,0
0,66,29,7
0,42,47,23
0,60,47,0
0,72,47,0
0,30,92,0
0,70,65,0
0,35,99,1
0,66,75,9
0,62,68,1
0,62,65,1
0,42,58,1
0,66,73,0
0,71,40,0
0,59,40,0
0,70,68,0
0,35,102,1
0,59,54,0
0,35,105,2
0,71,108,0
0,69,91,0
0,70,67,16
0,42,54,1
0,30,89,0
0,59,54,0
0,71,100,0
0,70,74,18
0,38,113,1
0,33,100,0
0,42,63,0
0,69,99,0
0,42,60,11
0,70,65,0
0,30,91,0
0,35,100,2
0,35,100,25
0,70,68,0
0,42,67,1
0,35,106,1
0,42,66,23
0,30,91,0
0,59,63,0
0,70,64,2
0,71,105,0
0,54,43,8
0,42,71,2
0,33,100,0
0,59,68,0
0,38,109,0
0,62,61,0
0,62,72,0
0,70,72,0
0,66,72,1
0,74,95,0
0,42,60,6
0,30,100,0
0,70,68,0
0,35,100,0
0,66,57,0
0,71,95,0
0,66,74,2
0,62,63,1
0,59,68,1
0,42,66,1
0,59,56,0
0,70,68,0
0,35,105,1
0,38,102,0
0,66,69,0
0,42,60,9
0,59,61,0
0,70,68,0
0,35,98,1
0,42,60,25
0,38,107,1
0,70,72,0
0,33,95,0
0,42,58,15
0,70,67,0
0,35,105,0
0,35,102,0
0,52,87,13
0,55,96,8
0,52,66,3
0,55,81,8
0,60,103,2
0,69,62,4
0,60,91,0
0,64,60,0
0,42,65,1
0,70,69,0
0,35,105,0
0,60,67,0
0,72,104,0
0,33,98,1
0,64,97,3
0,64,85,1
0,42,56,17
0,57,63,0
0,70,64,0
0,31,93,0
0,74,98,0
0,57,56,25
0,60,75,2
0,64,76,1
0,38,105,1
0,42,59,0
0,60,63,0
0,70,71,0
0,28,93,0
0,42,45,4
0,64,66,0
0,35,100,0
0,70,67,0
0,31,96,0
0,72,103,0
0,71,98,0
0,60,74,0
0,57,58,1
0,64,76,0
0,57,65,1
0,60,72,0
0,42,54,1
0,57,59,0
0,70,71,0
0,35,106,0
0,33,102,0
0,42,51,2
0,57,62,0
0,70,60,0
0,31,94,0
0,71,99,0
0,42,61,27
0,70,69,0
0,38,105,0
0,28,92,0
0,42,44,26
0,70,67,0
0,69,94,0
0,31,96,0
0,35,97,1
0,42,60,26
0,70,71,0
0,35,104,0
0,33,101,0
0,57,61,20
0,42,55,1
0,31,97,0
0,70,64,0
0,52,29,24
0,57,70,1
0,60,75,1
0,70,75,1
0,38,111,1
0,42,65,0
0,28,93,0
0,64,76,0
0,60,62,0
0,70,68,25
0,35,99,1
0,42,59,0
0,31,95,0
0,64,64,0
0,60,71,2
0,64,75,2
0,57,65,1
0,42,63,1
0,33,101,0
0,60,72,0
0,70,79,0
0,35,106,0
0,57,56,0
0,42,59,23
0,31,98,0
0,70,64,0
0,57,60,0
0,67,108,0
0,28,97,4
0,70,75,0
0,38,107,1
0,42,64,0
0,69,96,0
0,31,103,2
0,70,65,0
0,42,61,1
0,35,97,1
0,54,80,14
0,54,59,2
0,57,76,8
0,57,91,1
0,62,62,0
0,71,62,0
0,71,100,0
0,66,64,0
0,62,93,0
0,42,60,1
0,35,102,0
0,70,72,0
0,35,102,2
0,66,85,2
0,62,99,1
0,66,90,1
0,42,59,6
0,70,72,0
0,59,68,0
0,33,94,2
0,71,96,0
0,54,55,24
0,59,70,1
0,62,70,1
0,42,66,1
0,30,92,0
0,66,73,0
0,70,70,0
0,62,62,0
0,38,100,2
0,71,100,0
0,66,63,0
0,70,65,0
0,42,60,1
0,33,99,0
0,35,98,1
0,62,71,1
0,66,72,2
0,42,57,1
0,70,71,0
0,35,100,0
0,62,52,0
0,59,61,0
0,35,101,0
0,59,64,8
0,69,101,0
0,42,54,0
0,33,94,0
0,70,67,0
0,30,91,27
0,70,70,0
0,42,66,1
0,38,109,0
0,33,97,17
0,70,69,0
0,42,57,1
0,35,99,0
0,71,103,0
0,42,61,5
0,35,98,0
0,35,103,0
0,70,75,0
0,42,64,1
0,59,64,0
0,70,63,0
0,33,93,0
0,74,108,0
0,42,58,24
0,59,69,0
0,38,111,0
0,30,93,0
0,62,72,0
0,70,71,0
0,62,64,0
0,66,72,1
0,35,95,8
0,33,97,0
0,42,58,0
0,66,52,0
0,70,69,0
0,71,95,0
0,62,72,1
0,66,70,1
0,59,68,1
0,35,104,1
0,42,60,0
0,59,61,0
0,70,71,0
0,38,108,0
0,42,57,17
0,59,67,0
0,35,97,1
0,70,68,0
0,42,60,1
0,38,107,0
0,70,75,0
0,33,95,0
0,42,51,18
0,35,97,0
0,70,67,0
0,35,102,0
0,52,68,18
0,52,87,1
0,55,79,3
0,55,94,8
0,60,96,0
0,64,91,2
0,60,101,1
0,60,63,1
0,64,54,1
0,69,62,0
0,42,61,1
0,33,98,0
0,74,102,0
0,35,105,0
0,70,72,0
0,64,91,11
0,74,95,0
0,31,95,0
0,57,67,0
0,42,58,1
0,70,64,0
0,52,60,21
0,60,76,2
0,60,67,1
0,38,105,1
0,42,63,0
0,28,92,0
0,57,71,0
0,64,74,0
0,70,68,0
0,64,64,24
0,70,67,0
0,42,54,1
0,31,97,0
0,35,98,1
0,64,75,8
0,71,103,0
0,60,69,0
0,57,61,0
0,42,64,1
0,70,69,0
0,33,100,0
0,35,105,1
0,42,54,22
0,57,60,0
0,70,68,0
0,31,98,1
0,71,99,0
0,42,60,4
0,38,107,0
0,70,68,0
0,28,92,0
0,42,60,4
0,70,67,0
0,69,104,0
0,35,98,0
0,31,96,0
0,42,61,27
0,70,72,0
0,33,99,0
0,35,104,1
0,42,60,22
0,57,58,0
0,31,94,0
0,70,64,0
0,42,64,24
0,57,68,0
0,38,101,0
0,60,76,0
0,60,65,0
0,70,70,0
0,28,92,0
0,52,56,0
0,64,76,1
0,42,51,11
0,64,64,0
0,70,63,0
0,31,96,0
0,35,95,1
0,64,76,0
0,60,72,1
0,57,68,1
0,60,75,0
0,42,59,1
0,57,53,0
0,70,72,0
0,35,105,0
0,33,98,0
0,64,75,0
0,42,54,16
0,57,66,0
0,70,67,0
0,31,95,1
0,74,109,0
0,42,63,2
0,70,72,0
0,38,101,0
0,28,94,0
0,70,67,2
0,42,59,1
0,31,98,0
0,35,95,1
0,54,69,17
0,54,80,1
0,57,83,1
0,57,94,10
0,62,94,0
0,62,61,4
0,42,65,1
0,66,60,0
0,71,59,0
0,70,71,0
0,83,103,0
0,62,104,1
0,35,105,1
0,35,100,0
0,66,85,6
0,66,94,6
0,42,55,25
0,59,64,0
0,70,67,0
0,30,87,0
0,42,60,16
0,70,70,0
0,62,63,1
0,38,100,1
0,33,90,0
0,83,103,0
0,42,58,6
0,30,90,0
0,66,54,0
0,70,67,0
0,35,93,1
0,81,99,0
0,42,57,1
0,35,104,1
0,59,56,0
0,35,98,0
0,70,72,0
0,42,57,25
0,30,88,0
0,59,65,0
0,70,64,2
0,81,97,0
0,42,60,5
0,70,68,0
0,33,96,0
0,38,97,1
0,78,84,22
0,42,55,4
0,70,65,0
0,30,89,0
0,35,101,2
0,42,60,10
0,70,68,0
0,78,96,0
0,35,100,0
0,35,105,2
0,78,97,0
0,42,56,2
0,30,87,0
0,59,62,0
0,70,64,0
0,42,61,15
0,62,66,0
0,70,62,0
0,33,97,0
0,76,86,1
0,38,101,0
0,76,96,0
0,66,63,2
0,42,52,1
0,30,93,0
0,70,64,0
0,35,95,1
0,42,59,19
0,59,62,0
0,35,98,0
0,70,72,1
0,35,102,1
0,39,75,19
0,42,60,5
0,30,90,0
0,59,69,0
0,70,69,0
0,74,99,0
0,39,88,0
0,42,64,1
0,70,71,1
0,38,109,1
0,33,96,0
0,42,57,22
0,70,68,0
0,30,98,1
0,35,95,2
0,52,87,6
0,52,72,3
0,55,78,0
0,55,94,1
0,83,89,0
0,60,91,2
0,70,72,0
0,42,60,1
0,60,64,0
0,69,62,0
0,64,53,0
0,33,96,1
0,35,102,1
0,60,101,0
0,64,89,1
0,64,93,12
0,83,90,0
0,57,59,1
0,42,60,1
0,70,67,0
0,31,97,1
0,60,65,25
0,38,105,1
0,42,63,0
0,28,90,0
0,70,69,0
0,64,66,2
0,70,67,0
0,81,92,0
0,42,55,1
0,35,94,0
0,31,94,0
0,57,58,24
0,35,102,1
0,42,64,0
0,70,75,0
0,33,97,0
0,81,94,0
0,42,54,0
0,57,65,0
0,31,93,0
0,70,69,0
0,42,60,23
0,28,91,1
0,70,72,0
0,38,105,1
0,42,59,3
0,70,69,1
0,31,93,1
0,35,99,1
0,78,95,0
0,42,61,26
0,70,71,1
0,33,97,1
0,35,102,2
0,42,58,24
0,31,96,0
0,57,62,0
0,70,64,0
0,42,60,21
0,28,94,0
0,60,66,0
0,70,71,0
0,38,107,1
0,42,58,23
0,31,97,0
0,64,61,0
0,70,64,0
0,35,97,1
0,42,60,10
0,35,102,0
0,33,97,0
0,57,58,0
0,70,69,0
0,39,76,11
0,42,48,1
0,71,99,0
0,31,95,0
0,57,63,0
0,70,67,0
0,42,66,23
0,39,96,0
0,28,92,0
0,70,71,0
0,38,105,1
0,74,95,0
0,42,59,20
0,31,100,0
0,70,69,0
