track,note,velocity,time
1,48,100,29568
1,60,100,0
1,48,0,380
1,60,0,0
1,48,100,4
1,60,100,0
1,48,0,380
1,60,0,0
1,48,100,4
1,60,100,0
1,48,0,188
1,60,0,0
1,48,100,4
1,60,100,0
1,48,0,572
1,60,0,0
1,47,100,4
1,59,100,0
1,47,0,188
1,59,0,0
1,47,100,4
1,59,100,0
1,47,0,572
1,59,0,0
1,48,100,388
1,60,100,0
1,48,0,188
1,60,0,0
1,48,100,4
1,60,100,0
1,48,0,188
1,60,0,0
1,48,100,4
1,60,100,0
1,48,0,188
1,60,0,0
1,48,100,4
1,60,100,0
1,48,0,188
1,60,0,0
1,48,100,4
1,60,100,0
1,48,0,380
1,60,0,0
1,48,100,4
1,60,100,0
1,48,0,188
1,60,0,0
1,48,100,4
1,60,100,0
1,48,0,188
1,60,0,0
1,48,100,4
1,60,100,0
1,48,0,380
1,60,0,0
1,47,100,4
1,59,100,0
1,47,0,188
1,59,0,0
1,47,100,4
1,59,100,0
1,47,0,764
1,59,0,0
1,48,100,196
1,60,100,0
1,48,0,188
1,60,0,0
1,48,100,4
1,60,100,0
1,48,0,188
1,60,0,0
1,48,100,4
1,60,100,0
1,48,0,188
1,60,0,0
1,48,100,4
1,60,100,0
1,48,0,188
1,60,0,0
1,48,100,4
1,60,100,0
1,48,0,380
1,60,0,0
1,48,100,4
1,60,100,0
1,48,0,188
1,60,0,0
1,48,100,4
1,60,100,0
1,48,0,188
1,60,0,0
1,48,100,4
1,60,100,0
1,48,0,380
1,60,0,0
1,45,100,4
1,57,100,0
1,45,0,188
1,57,0,0
1,47,100,4
1,59,100,0
1,47,0,380
1,59,0,0
1,48,100,4
1,60,100,0
1,48,0,764
1,60,0,0
1,48,100,3076
1,60,100,0
1,48,0,188
1,60,0,0
1,48,100,4
1,60,100,0
1,48,0,188
1,60,0,0
1,48,100,4
1,60,100,0
1,48,0,188
1,60,0,0
1,48,100,4
1,60,100,0
1,48,0,380
1,60,0,0
1,48,100,4
1,60,100,0
1,48,0,188
1,60,0,0
1,48,100,4
1,60,100,0
1,48,0,188
1,60,0,0
1,48,100,4
1,60,100,0
1,48,0,188
1,60,0,0
1,47,100,4
1,59,100,0
1,47,0,380
1,59,0,0
1,47,100,4
1,59,100,0
1,47,0,764
1,59,0,0
1,48,100,388
1,60,100,0
1,48,0,188
1,60,0,0
1,48,100,4
1,60,100,0
1,48,0,188
1,60,0,0
1,48,100,4
1,60,100,0
1,48,0,188
1,60,0,0
1,48,100,4
1,60,100,0
1,48,0,380
1,60,0,0
1,48,100,4
1,60,100,0
1,48,0,380
1,60,0,0
1,48,100,4
1,60,100,0
1,48,0,188
1,60,0,0
1,47,100,4
1,59,100,0
1,47,0,380
1,59,0,0
1,47,100,4
1,59,100,0
1,47,0,764
1,59,0,0
1,48,100,196
1,60,100,0
1,48,0,188
1,60,0,0
1,48,100,4
1,60,100,0
1,48,0,188
1,60,0,0
1,48,100,4
1,60,100,0
1,48,0,380
1,60,0,0
1,48,100,4
1,60,100,0
1,48,0,188
1,60,0,0
1,48,100,4
1,60,100,0
1,48,0,188
1,60,0,0
1,48,100,4
1,60,100,0
1,48,0,380
1,60,0,0
1,48,100,4
1,60,100,0
1,48,0,188
1,60,0,0
1,47,100,4
1,59,100,0
1,47,0,380
1,59,0,0
1,45,100,388
1,57,100,0
1,45,0,188
1,57,0,0
1,47,100,4
1,59,100,0
1,47,0,380
1,59,0,0
1,47,100,4
1,59,100,0
1,47,0,572
1,59,0,0
1,48,100,4
1,60,100,0
1,48,0,572
1,60,0,0
1,48,100,4
1,60,100,0
1,48,0,380
1,60,0,0
1,48,100,4
1,60,100,0
1,48,0,380
1,60,0,0
1,45,100,4
1,57,100,0
1,45,0,380
1,57,0,0
1,47,100,4
1,59,100,0
1,47,0,380
1,59,0,0
1,48,100,4
1,60,100,0
1,48,0,380
1,60,0,0
1,55,100,4
1,67,100,0
1,55,0,380
1,67,0,0
1,48,100,4
1,60,100,0
1,48,0,188
1,60,0,0
1,48,100,4
1,60,100,0
1,48,0,764
1,60,0,0
1,48,100,1348
1,60,100,0
1,48,0,380
1,60,0,0
1,47,100,4
1,59,100,0
1,47,0,188
1,59,0,0
1,48,100,4
1,60,100,0
1,48,0,380
1,60,0,0
1,48,100,4
1,60,100,0
1,48,0,764
1,60,0,0
1,55,100,1732
1,67,100,0
1,55,0,380
1,67,0,0
1,48,100,4
1,60,100,0
1,48,0,188
1,60,0,0
1,48,100,4
1,60,100,0
1,48,0,764
1,60,0,0
1,48,100,1348
1,60,100,0
1,48,0,380
1,60,0,0
1,47,100,4
1,59,100,0
1,47,0,188
1,59,0,0
1,48,100,4
1,60,100,0
1,48,0,380
1,60,0,0
1,48,100,4
1,60,100,0
1,48,0,764
1,60,0,0
1,55,100,1732
1,67,100,0
1,55,0,380
1,67,0,0
1,48,100,4
1,60,100,0
1,48,0,188
1,60,0,0
1,48,100,4
1,60,100,0
1,48,0,764
1,60,0,0
1,53,100,1348
1,48,100,0
1,65,100,0
1,60,100,0
1,53,0,380
1,65,0,0
1,53,100,4
1,65,100,0
1,53,0,188
1,65,0,0
1,52,100,4
1,64,100,0
1,48,0,188
1,60,0,0
1,52,0,192
1,64,0,0
1,52,100,4
1,64,100,0
1,52,0,380
1,64,0,0
1,50,100,4
1,62,100,0
1,50,0,92
1,62,0,0
1,48,100,4
1,60,100,0
1,48,0,764
1,60,0,0
1,48,100,7780
1,60,100,0
1,48,0,380
1,60,0,0
1,48,100,4
1,60,100,0
1,48,0,380
1,60,0,0
1,48,100,4
1,60,100,0
1,48,0,188
1,60,0,0
1,48,100,4
1,60,100,0
1,48,0,572
1,60,0,0
1,47,100,4
1,59,100,0
1,47,0,188
1,59,0,0
1,47,100,4
1,59,100,0
1,47,0,572
1,59,0,0
1,48,100,388
1,60,100,0
1,48,0,188
1,60,0,0
1,48,100,4
1,60,100,0
1,48,0,188
1,60,0,0
1,48,100,4
1,60,100,0
1,48,0,188
1,60,0,0
1,48,100,4
1,60,100,0
1,48,0,188
1,60,0,0
1,48,100,4
1,60,100,0
1,48,0,380
1,60,0,0
1,48,100,4
1,60,100,0
1,48,0,188
1,60,0,0
1,48,100,4
1,60,100,0
1,48,0,188
1,60,0,0
1,48,100,4
1,60,100,0
1,48,0,380
1,60,0,0
1,47,100,4
1,59,100,0
1,47,0,188
1,59,0,0
1,47,100,4
1,59,100,0
1,47,0,764
1,59,0,0
1,48,100,196
1,60,100,0
1,48,0,188
1,60,0,0
1,48,100,4
1,60,100,0
1,48,0,188
1,60,0,0
1,48,100,4
1,60,100,0
1,48,0,188
1,60,0,0
1,48,100,4
1,60,100,0
1,48,0,188
1,60,0,0
1,48,100,4
1,60,100,0
1,48,0,380
1,60,0,0
1,48,100,4
1,60,100,0
1,48,0,188
1,60,0,0
1,48,100,4
1,60,100,0
1,48,0,188
1,60,0,0
1,48,100,4
1,60,100,0
1,48,0,380
1,60,0,0
1,45,100,4
1,57,100,0
1,45,0,188
1,57,0,0
1,47,100,4
1,59,100,0
1,47,0,380
1,59,0,0
1,48,100,4
1,60,100,0
1,48,0,764
1,60,0,0
1,48,100,3076
1,60,100,0
1,48,0,188
1,60,0,0
1,48,100,4
1,60,100,0
1,48,0,188
1,60,0,0
1,48,100,4
1,60,100,0
1,48,0,188
1,60,0,0
1,48,100,4
1,60,100,0
1,48,0,380
1,60,0,0
1,48,100,4
1,60,100,0
1,48,0,188
1,60,0,0
1,48,100,4
1,60,100,0
1,48,0,188
1,60,0,0
1,48,100,4
1,60,100,0
1,48,0,188
1,60,0,0
1,47,100,4
1,59,100,0
1,47,0,380
1,59,0,0
1,47,100,4
1,59,100,0
1,47,0,764
1,59,0,0
1,48,100,388
1,60,100,0
1,48,0,188
1,60,0,0
1,48,100,4
1,60,100,0
1,48,0,188
1,60,0,0
1,48,100,4
1,60,100,0
1,48,0,188
1,60,0,0
1,48,100,4
1,60,100,0
1,48,0,380
1,60,0,0
1,48,100,4
1,60,100,0
1,48,0,380
1,60,0,0
1,48,100,4
1,60,100,0
1,48,0,188
1,60,0,0
1,47,100,4
1,59,100,0
1,47,0,380
1,59,0,0
1,47,100,4
1,59,100,0
1,47,0,764
1,59,0,0
1,48,100,196
1,60,100,0
1,48,0,188
1,60,0,0
1,48,100,4
1,60,100,0
1,48,0,188
1,60,0,0
1,48,100,4
1,60,100,0
1,48,0,380
1,60,0,0
1,48,100,4
1,60,100,0
1,48,0,188
1,60,0,0
1,48,100,4
1,60,100,0
1,48,0,188
1,60,0,0
1,48,100,4
1,60,100,0
1,48,0,380
1,60,0,0
1,48,100,4
1,60,100,0
1,48,0,188
1,60,0,0
1,47,100,4
1,59,100,0
1,47,0,380
1,59,0,0
1,45,100,388
1,57,100,0
1,45,0,188
1,57,0,0
1,47,100,4
1,59,100,0
1,47,0,380
1,59,0,0
1,47,100,4
1,59,100,0
1,47,0,572
1,59,0,0
1,48,100,4
1,60,100,0
1,48,0,572
1,60,0,0
1,48,100,4
1,60,100,0
1,48,0,380
1,60,0,0
1,48,100,4
1,60,100,0
1,48,0,380
1,60,0,0
1,45,100,4
1,57,100,0
1,45,0,380
1,57,0,0
1,47,100,4
1,59,100,0
1,47,0,380
1,59,0,0
1,48,100,4
1,60,100,0
1,48,0,380
1,60,0,0
1,55,100,4
1,67,100,0
1,55,0,380
1,67,0,0
1,48,100,4
1,60,100,0
1,48,0,188
1,60,0,0
1,48,100,4
1,60,100,0
1,48,0,764
1,60,0,0
1,48,100,1348
1,60,100,0
1,48,0,380
1,60,0,0
1,47,100,4
1,59,100,0
1,47,0,188
1,59,0,0
1,48,100,4
1,60,100,0
1,48,0,380
1,60,0,0
1,48,100,4
1,60,100,0
1,48,0,764
1,60,0,0
1,55,100,1732
1,67,100,0
1,55,0,380
1,67,0,0
1,48,100,4
1,60,100,0
1,48,0,188
1,60,0,0
1,48,100,4
1,60,100,0
1,48,0,764
1,60,0,0
1,48,100,1348
1,60,100,0
1,48,0,380
1,60,0,0
1,47,100,4
1,59,100,0
1,47,0,188
1,59,0,0
1,48,100,4
1,60,100,0
1,48,0,380
1,60,0,0
1,48,100,4
1,60,100,0
1,48,0,764
1,60,0,0
1,55,100,1732
1,67,100,0
1,55,0,380
1,67,0,0
1,48,100,4
1,62,100,0
1,60,100,0
1,74,100,0
1,48,0,188
1,60,0,0
1,48,100,4
1,60,100,0
1,48,0,764
1,60,0,0
1,53,100,1348
1,48,100,0
1,65,100,0
1,60,100,0
1,64,100,192
1,76,100,0
1,64,0,92
1,76,0,0
1,62,100,4
1,74,100,0
1,62,0,92
1,74,0,0
1,53,0,0
1,65,0,0
1,62,0,0
1,74,0,0
1,53,100,4
1,60,100,0
1,65,100,0
1,72,100,0
1,53,0,188
1,65,0,0
1,52,100,4
1,64,100,0
1,48,0,188
1,60,0,0
1,52,100,4
1,64,100,0
1,52,0,188
1,64,0,0
1,52,0,0
1,64,0,0
1,52,100,4
1,64,100,0
1,52,0,380
1,64,0,0
1,50,100,4
1,62,100,0
1,50,0,92
1,62,0,0
1,48,100,4
1,60,100,0
1,60,0,476
1,72,0,0
1,48,0,288
1,60,0,0
1,45,100,18532
1,57,100,0
1,45,0,380
1,57,0,0
1,47,100,4
1,59,100,0
1,47,0,380
1,59,0,0
1,48,100,4
1,60,100,0
1,48,0,380
1,60,0,0
1,55,100,4
1,67,100,0
1,55,0,380
1,67,0,0
1,48,100,4
1,60,100,0
1,48,0,188
1,60,0,0
1,48,100,4
1,60,100,0
1,48,0,764
1,60,0,0
1,53,100,1348
1,48,100,0
1,65,100,0
1,60,100,0
1,53,0,380
1,65,0,0
1,53,100,4
1,65,100,0
1,53,0,188
1,65,0,0
1,52,100,4
1,64,100,0
1,48,0,188
1,60,0,0
1,52,100,4
1,64,100,0
1,52,0,188
1,64,0,0
1,52,0,0
1,64,0,0
1,52,100,4
1,64,100,0
1,52,0,380
1,64,0,0
1,50,100,4
1,62,100,0
1,50,0,92
1,62,0,0
1,48,100,4
1,60,100,0
1,48,0,764
1,60,0,0
1,69,100,9892
1,81,100,0
1,69,0,188
1,81,0,0
1,76,100,4
1,88,100,0
1,76,0,188
1,88,0,0
1,86,100,4
1,74,100,0
1,86,0,956
1,74,0,0
1,84,100,4
1,72,100,0
1,84,0,188
1,72,0,0
1,71,100,4
1,83,100,0
1,71,0,92
1,83,0,0
1,69,100,4
1,81,100,0
1,69,0,1152
1,81,0,0
1,67,100,4128
1,79,100,0
1,67,0,188
1,79,0,0
1,64,100,4
1,76,100,0
1,64,0,188
1,76,0,0
1,62,100,4
1,74,100,0
1,62,0,188
1,74,0,0
1,60,100,4
1,72,100,0
1,60,0,92
1,72,0,0
1,57,100,4
1,69,100,0
1,55,100,288
1,67,100,0
1,57,0,92
1,69,0,0
1,55,0,96
1,67,0,0
1,62,100,4
1,74,100,0
1,62,0,572
1,74,0,0
1,62,100,4
1,74,100,0
1,62,0,188
1,74,0,0
1,60,100,4
1,72,100,0
1,60,0,1344
1,72,0,0
1,57,100,2112
1,69,100,0
1,57,0,380
1,69,0,0
1,81,100,4
1,69,100,0
1,81,0,380
1,69,0,0
1,69,100,4
1,57,100,0
1,69,0,188
1,57,0,0
1,69,100,4
1,57,100,0
1,69,0,1532
1,57,0,0
1,81,100,1156
1,69,100,0
1,81,0,1532
1,69,0,0
1,81,100,4
1,69,100,0
1,81,0,128
1,69,0,0
1,79,100,64
1,67,100,0
1,59,100,1344
1,47,100,0
1,79,0,188
1,67,0,0
1,59,0,192
1,47,0,0
1,60,100,4
1,48,100,0
1,60,0,380
1,48,0,0
1,64,100,4
1,52,100,0
1,64,0,380
1,52,0,0
1,67,100,4
1,55,100,0
1,67,0,380
1,55,0,0
1,69,100,4
1,57,100,0
1,69,0,380
1,57,0,0
1,72,100,4
1,60,100,0
1,72,0,188
1,60,0,0
1,74,100,4
1,62,100,0
1,74,0,380
1,62,0,0
1,72,100,4
1,60,100,0
1,72,0,188
1,60,0,0
1,69,100,4
1,57,100,0
1,69,0,764
1,57,0,0
1,48,100,4
1,60,100,0
1,52,100,0
1,52,0,256
1,48,0,124
1,60,0,0
1,48,100,4
1,60,100,0
1,52,100,0
1,52,0,256
1,48,0,124
1,60,0,0
1,48,100,4
1,60,100,0
1,52,100,0
1,52,0,128
1,48,0,60
1,60,0,0
1,48,100,4
1,60,100,0
1,52,100,0
1,52,0,384
1,48,0,188
1,60,0,0
1,47,100,4
1,59,100,0
1,50,100,0
1,50,0,128
1,47,0,60
1,59,0,0
1,47,100,4
1,59,100,0
1,50,100,0
1,50,0,512
1,47,0,60
1,59,0,0
1,48,100,388
1,60,100,0
1,52,100,0
1,52,0,128
1,48,0,60
1,60,0,0
1,48,100,4
1,60,100,0
1,52,100,0
1,52,0,128
1,48,0,60
1,60,0,0
1,48,100,4
1,60,100,0
1,52,100,0
1,52,0,128
1,48,0,60
1,60,0,0
1,48,100,4
1,60,100,0
1,52,100,0
1,52,0,128
1,48,0,60
1,60,0,0
1,48,100,4
1,60,100,0
1,52,100,0
1,52,0,256
1,48,0,124
1,60,0,0
1,48,100,4
1,60,100,0
1,52,100,0
1,52,0,128
1,48,0,60
1,60,0,0
1,48,100,4
1,60,100,0
1,52,100,0
1,52,0,128
1,48,0,60
1,60,0,0
1,48,100,4
1,60,100,0
1,52,100,0
1,52,0,256
1,48,0,124
1,60,0,0
1,47,100,4
1,59,100,0
1,50,100,0
1,59,0,128
1,50,0,0
1,47,0,60
1,47,100,4
1,59,100,0
1,50,100,0
1,59,0,512
1,50,0,0
1,47,0,252
1,48,100,196
1,60,100,0
1,52,100,0
1,52,0,128
1,48,0,60
1,60,0,0
1,48,100,4
1,60,100,0
1,52,100,0
1,52,0,128
1,48,0,60
1,60,0,0
1,48,100,4
1,60,100,0
1,52,100,0
1,52,0,128
1,48,0,60
1,60,0,0
1,48,100,4
1,60,100,0
1,52,100,0
1,52,0,128
1,48,0,60
1,60,0,0
