track,note,velocity,time
1,45,120,10292
1,45,120,0
1,33,105,48
1,35,100,216
1,36,100,44
1,38,100,216
1,38,95,60
1,31,87,592
1,31,98,60
1,33,100,548
1,35,105,228
1,36,100,56
1,38,105,208
1,38,98,72
1,33,98,1532
1,35,85,232
1,36,105,56
1,38,100,252
1,38,100,64
1,31,87,588
1,31,87,76
1,33,98,516
1,35,85,232
1,36,105,56
1,38,100,252
1,38,100,64
1,31,87,588
1,31,87,76
1,33,98,516
1,35,85,232
1,36,105,56
1,38,100,252
1,38,100,64
1,31,87,588
1,31,87,76
1,33,98,516
1,35,85,232
1,36,105,56
1,38,100,252
1,38,100,64
1,31,87,588
1,31,87,76
1,33,98,516
1,35,85,232
1,36,105,56
1,38,100,252
1,38,100,64
1,31,87,588
1,31,87,76
1,33,98,516
1,35,85,232
1,36,105,56
1,38,100,252
1,38,100,64
1,31,87,588
1,31,87,76
1,33,98,516
1,35,85,232
1,36,105,56
1,38,100,252
1,38,100,64
1,31,87,588
1,31,87,76
1,33,98,516
1,35,85,232
1,36,105,56
1,38,100,252
1,38,100,64
1,31,87,588
1,31,87,76
1,33,98,516
1,35,85,232
1,36,105,56
1,38,100,252
1,38,100,64
1,31,87,588
1,31,87,76
1,33,98,516
1,35,85,232
1,36,105,56
1,38,100,252
1,38,100,64
1,31,87,588
1,31,87,76
1,33,98,516
1,35,85,232
1,36,105,56
1,38,100,252
1,38,100,64
1,31,87,588
1,31,87,76
1,33,98,516
1,35,85,232
1,36,105,56
1,38,100,252
1,38,100,64
1,31,87,588
1,31,87,76
1,33,98,516
1,35,85,232
1,36,105,56
1,38,100,252
1,38,100,64
1,33,98,108
1,35,85,232
1,36,105,56
1,38,100,252
1,38,100,64
1,31,87,588
1,31,87,76
1,33,98,516
1,35,85,232
1,36,105,56
1,38,100,252
1,38,100,64
1,31,87,588
1,31,87,76
1,33,98,516
1,35,85,232
1,36,105,56
1,38,100,252
1,38,100,64
1,31,87,588
1,31,87,76
1,33,98,516
1,35,85,232
1,36,105,56
1,38,100,252
1,38,100,64
1,31,87,588
1,31,87,76
1,33,98,516
1,35,85,232
1,36,105,56
1,38,100,252
1,38,100,64
1,31,87,588
1,31,87,76
1,33,98,516
1,35,85,232
1,36,105,56
1,38,100,252
1,38,100,64
1,31,87,588
1,31,87,76
1,33,98,516
1,35,85,232
1,36,105,56
1,38,100,252
1,38,100,64
1,31,87,588
1,31,87,76
1,33,98,516
1,35,85,232
1,36,105,56
1,38,100,252
1,38,100,64
1,31,87,588
1,31,87,76
1,33,98,516
1,35,85,232
1,36,105,56
1,38,100,252
1,38,100,64
1,31,87,588
1,31,87,76
1,33,98,516
1,35,85,232
1,36,105,56
1,38,100,252
1,38,100,64
1,31,87,588
1,31,87,76
1,33,98,516
1,35,85,232
1,36,105,56
1,38,100,252
1,38,100,64
1,31,87,588
1,31,87,76
1,33,98,516
1,35,85,192
1,36,105,0
1,38,100,192
1,33,102,0
1,37,105,0
1,40,87,0
1,37,107,0
1,35,89,192
1,33,98,192
1,31,102,0
1,28,98,0
1,33,100,0
1,31,100,0
1,28,91,0
1,31,85,0
1,33,85,0
1,37,105,0
1,40,89,0
1,37,105,0
1,35,95,192
1,33,98,192
1,31,98,0
1,28,89,0
1,33,98,0
1,31,98,0
1,28,82,0
1,33,82,0
1,37,105,0
1,40,87,0
1,37,107,0
1,35,89,192
1,33,98,192
1,31,102,0
1,28,98,0
1,33,100,0
1,31,100,0
1,28,91,0
1,31,85,0
1,33,85,0
1,37,105,0
1,40,89,0
1,37,105,0
1,35,95,192
1,33,98,192
1,31,98,0
1,28,89,0
1,33,98,0
1,31,98,0
1,28,82,0
1,33,82,0
1,37,105,0
1,40,87,0
1,37,107,0
1,35,89,192
1,33,98,192
1,31,102,0
1,28,98,0
1,33,100,0
1,31,100,0
1,28,91,0
1,31,85,0
1,33,85,0
1,37,105,0
1,40,89,0
1,37,105,0
1,35,95,192
1,33,98,192
1,31,98,0
1,28,89,0
1,33,98,0
1,31,98,0
1,28,82,0
1,33,82,0
1,33,98,6240
1,35,85,232
1,36,105,56
1,38,100,252
1,38,100,64
1,31,87,588
1,31,87,76
1,33,98,516
1,35,85,232
1,36,105,56
1,38,100,252
1,38,100,64
1,31,87,588
1,31,87,76
1,33,98,516
1,35,85,232
1,36,105,56
1,38,100,252
1,38,100,64
1,33,98,1548
1,35,85,232
1,36,105,56
1,38,100,252
1,38,100,64
1,43,116,796
1,33,98,272
1,35,85,232
1,36,105,56
1,38,100,252
1,38,100,64
1,31,87,588
1,31,87,76
1,33,98,516
1,35,85,232
1,36,105,56
1,38,100,252
1,38,100,64
1,31,87,588
1,31,87,76
1,33,98,516
1,35,85,232
1,36,105,56
1,38,100,252
1,38,100,64
1,31,87,588
1,31,87,76
1,33,98,516
1,35,85,232
1,36,105,56
1,38,100,252
1,38,100,64
1,31,87,588
1,31,87,76
1,62,110,192
1,60,110,40
1,57,110,36
1,57,110,360
1,55,110,28
1,52,110,32
1,50,110,72
1,48,110,36
1,33,98,8
1,35,85,232
1,36,105,56
1,38,100,252
1,38,100,64
1,31,87,588
1,31,87,76
1,33,98,516
1,35,85,232
1,36,105,56
1,38,100,252
1,38,100,64
1,31,87,588
1,31,87,76
1,33,98,516
1,35,85,232
1,36,105,56
1,38,100,252
1,38,100,64
1,31,87,588
1,31,87,76
1,33,98,516
1,35,85,232
1,36,105,56
1,38,100,252
1,38,100,64
1,31,87,588
1,31,87,76
1,33,98,516
1,35,85,232
1,36,105,56
1,38,100,252
1,38,100,64
1,31,87,588
1,31,87,76
1,33,98,516
1,35,85,232
1,36,105,56
1,38,100,252
1,38,100,64
1,31,87,588
1,31,87,76
1,33,98,516
1,35,85,232
1,36,105,56
1,38,100,252
1,38,100,64
1,31,87,588
1,31,87,76
1,33,98,516
1,35,85,192
1,36,105,0
1,38,100,192
1,33,102,0
1,37,105,0
1,40,87,0
1,37,107,0
1,35,89,192
1,33,98,192
1,31,102,0
1,28,98,0
1,33,100,0
1,31,100,0
1,28,91,0
1,31,85,0
1,33,85,0
1,37,105,0
1,40,89,0
1,37,105,0
1,35,95,192
1,33,98,192
1,31,98,0
1,28,89,0
1,33,98,0
1,31,98,0
1,28,82,0
1,33,82,0
1,37,105,0
1,40,87,0
1,37,107,0
1,35,89,192
1,33,98,192
1,31,102,0
1,28,98,0
1,33,100,0
1,31,100,0
1,28,91,0
1,31,85,0
1,33,85,0
1,37,105,0
1,40,89,0
1,37,105,0
1,35,95,192
1,33,98,192
1,31,98,0
1,28,89,0
1,33,98,192
1,31,98,0
1,33,100,192
1,37,106,0
1,40,100,0
1,37,105,0
1,35,100,192
1,33,100,192
1,31,105,0
1,28,100,0
1,33,101,0
1,31,101,0
1,28,100,0
1,31,100,0
1,33,100,0
1,37,107,0
1,40,100,0
1,37,104,0
1,35,104,192
1,31,109,192
1,30,120,0
1,28,120,0
1,29,100,0
1,33,113,0
1,36,110,0
1,33,120,0
1,31,115,192
1,41,100,192
1,39,111,0
1,36,117,0
1,41,120,0
1,39,120,0
1,36,115,0
1,41,120,0
1,29,106,0
1,33,111,0
1,36,120,0
1,33,120,0
1,31,117,8
1,41,120,36
1,39,117,0
1,36,102,0
1,41,120,44
1,39,117,0
1,36,102,0
1,29,115,100
1,33,113,0
1,36,110,0
1,33,120,0
1,31,115,104
1,41,100,12
1,39,111,0
1,36,117,0
1,41,120,0
1,39,120,0
1,36,115,0
1,41,120,0
1,29,115,0
1,33,113,0
1,36,110,0
1,33,120,0
1,31,115,84
1,41,100,112
1,39,111,0
1,36,117,0
1,41,120,0
1,39,120,0
1,36,115,0
1,41,120,0
1,29,115,0
1,33,113,0
1,36,110,0
1,33,120,0
1,31,115,60
1,41,100,88
1,39,111,0
1,36,117,0
1,41,120,0
1,39,120,0
1,36,115,0
1,41,120,0
2,45,100,4536
2,52,100,0
2,57,100,0
2,54,100,0
2,59,100,0
2,47,100,0
2,55,100,0
2,60,100,0
2,48,100,0
2,57,100,192
2,50,100,0
2,62,100,0
2,57,100,0
2,50,100,0
2,62,100,0
2,45,100,0
2,52,100,0
2,57,100,0
2,47,100,0
2,54,100,0
2,59,100,0
2,55,100,0
2,48,100,0
2,60,100,0
2,57,100,192
2,62,100,0
2,50,100,0
2,50,100,0
2,57,100,0
2,62,100,0
2,43,100,8
2,43,100,8
2,50,100,0
2,55,100,0
2,52,100,0
2,45,100,0
2,57,100,0
2,59,100,0
2,54,100,0
2,47,100,0
2,55,100,0
2,60,100,0
2,48,100,0
2,57,100,192
2,50,100,0
2,62,100,0
2,57,100,0
2,50,100,0
2,62,100,0
2,52,100,0
2,45,100,0
2,57,100,0
2,47,100,192
2,59,100,0
2,54,100,0
2,48,100,0
2,55,100,0
2,60,100,0
2,50,100,192
2,57,100,0
2,62,100,0
2,50,100,0
2,57,100,0
2,62,100,0
2,43,110,8
2,43,100,8
2,55,100,0
2,50,100,0
2,52,100,576
2,45,100,0
2,57,100,0
2,47,100,192
2,59,100,0
2,54,100,0
2,48,100,0
2,55,100,0
2,60,100,0
2,50,100,192
2,57,100,0
2,62,100,0
2,50,100,0
2,57,100,0
2,62,100,0
2,52,100,1536
2,45,100,0
2,57,100,0
2,47,100,192
2,59,100,0
2,54,100,0
2,48,100,0
2,55,100,0
2,60,100,0
2,50,100,192
2,57,100,0
2,62,100,0
2,50,100,0
2,57,100,0
2,62,100,0
2,43,110,8
2,43,100,8
2,55,100,0
2,50,100,0
2,64,64,384
2,76,64,192
2,74,64,0
2,67,64,0
2,74,64,0
2,67,64,0
2,64,64,0
2,76,64,192
2,74,64,0
2,67,64,0
2,74,64,0
2,67,64,0
2,64,64,0
2,76,64,192
2,74,64,0
2,67,64,0
2,74,64,0
2,67,64,0
2,64,64,0
2,52,67,16
2,45,71,0
2,57,73,0
2,47,67,192
2,59,72,0
2,54,70,0
2,48,69,0
2,55,70,0
2,60,70,0
2,50,67,192
2,57,67,0
2,62,67,0
2,50,68,0
2,57,68,0
2,62,69,0
2,43,66,8
2,43,72,8
2,55,73,0
2,50,70,0
2,52,66,576
2,45,67,0
2,57,72,0
2,47,69,192
2,59,71,0
2,54,73,0
2,48,71,0
2,55,69,0
2,60,73,0
2,50,71,192
2,57,66,0
2,62,71,0
2,50,66,0
2,57,73,0
2,62,66,0
2,52,71,1536
2,45,73,0
2,57,66,0
2,47,70,192
2,59,73,0
2,54,73,0
2,48,72,0
2,55,69,0
2,60,67,0
2,50,67,192
2,57,66,0
2,62,71,0
2,50,68,0
2,57,68,0
2,62,73,0
2,43,66,8
2,43,72,8
2,55,67,0
2,50,72,0
2,52,66,576
2,45,70,0
2,57,68,0
2,47,70,192
2,59,69,0
2,54,70,0
2,48,67,0
2,55,71,0
2,60,72,0
2,50,70,192
2,57,67,0
2,62,71,0
2,50,70,0
2,57,73,0
2,62,71,0
2,52,70,1536
2,45,73,0
2,57,66,0
2,47,73,192
2,59,71,0
2,54,68,0
2,48,69,0
2,55,68,0
2,60,70,0
2,50,67,192
2,57,71,0
2,62,71,0
2,50,71,0
2,57,67,0
2,62,71,0
2,43,71,8
2,43,68,8
2,55,73,0
2,50,67,0
2,52,70,576
2,45,66,0
2,57,70,0
2,47,73,192
2,59,71,0
2,54,72,0
2,48,69,0
2,55,68,0
2,60,68,0
2,50,66,192
2,57,66,0
2,62,71,0
2,50,67,0
2,57,66,0
2,62,72,0
2,52,72,1536
2,45,71,0
2,57,68,0
2,47,70,192
2,59,68,0
2,54,73,0
2,48,67,0
2,55,73,0
2,60,73,0
2,50,69,192
2,57,66,0
2,62,73,0
2,50,70,0
2,57,72,0
2,62,70,0
2,43,66,8
2,43,72,8
2,55,72,0
2,50,73,0
2,52,70,576
2,45,70,0
2,57,71,0
2,47,71,192
2,59,70,0
2,54,67,0
2,48,68,0
2,55,66,0
2,60,66,0
2,50,71,192
2,57,66,0
2,62,66,0
2,50,66,0
2,57,67,0
2,62,71,0
2,43,70,8
2,43,66,8
2,55,71,0
2,50,73,0
2,69,110,0
2,76,110,4
2,62,110,4
2,55,110,0
2,64,110,24
2,67,110,4
2,60,110,4
2,71,110,4
2,71,110,524
2,64,110,4
2,74,110,0
2,67,110,4
2,76,110,8
2,83,110,0
2,79,110,16
2,72,110,0
2,79,110,8
2,86,110,0
2,95,110,208
2,88,110,0
2,66,110,0
2,59,110,0
2,62,110,0
2,55,110,0
2,64,110,0
2,57,110,0
2,79,110,4
2,72,110,0
2,67,110,4
2,74,110,4
2,71,110,4
2,64,110,0
2,72,110,12
2,79,110,0
2,69,110,0
2,76,110,0
2,67,110,0
2,74,110,0
2,76,110,308
2,69,110,0
2,79,110,88
2,72,110,0
2,81,110,256
2,74,110,0
2,79,110,112
2,72,110,0
2,69,110,120
2,76,110,0
2,71,110,4
2,64,110,0
2,62,110,0
2,55,110,0
2,69,110,60
2,64,110,8
2,64,110,0
2,71,110,0
2,67,110,0
2,74,110,0
2,69,110,0
2,76,110,0
2,88,110,28
2,81,110,0
2,83,110,36
2,76,110,0
2,86,110,68
2,79,110,0
2,88,110,0
2,81,110,0
2,91,110,0
2,84,110,0
2,90,110,0
2,83,110,0
2,91,110,0
2,84,110,0
2,90,110,0
2,83,110,0
2,88,110,0
2,81,110,0
2,86,110,0
2,79,110,0
2,88,110,0
2,81,110,0
2,83,110,0
2,76,110,0
2,86,110,0
2,79,110,0
2,83,110,0
2,76,110,0
2,86,110,0
2,79,110,0
2,83,110,0
2,76,110,0
2,81,110,0
2,74,110,0
2,83,110,0
2,76,110,0
2,81,110,0
2,74,110,0
2,76,110,0
2,69,110,0
2,81,110,0
2,74,110,0
2,81,110,0
2,74,110,0
3,45,100,4536
3,52,100,0
3,57,100,0
3,54,100,0
3,59,100,0
3,47,100,0
3,55,100,0
3,60,100,0
3,48,100,0
3,57,100,192
3,50,100,0
3,62,100,0
3,57,100,0
3,50,100,0
3,62,100,0
3,45,100,0
3,52,100,0
3,57,100,0
3,47,100,0
3,54,100,0
3,59,100,0
3,55,100,0
3,48,100,0
3,60,100,0
3,57,100,0
3,62,100,0
3,50,100,0
3,50,100,0
3,57,100,0
3,62,100,0
3,43,100,8
3,43,100,8
3,50,100,0
3,55,100,0
3,52,100,0
3,45,100,0
3,57,100,0
3,59,100,0
3,54,100,0
3,47,100,0
3,55,100,0
3,60,100,0
3,48,100,0
3,57,100,192
3,50,100,0
3,62,100,0
3,57,100,0
3,50,100,0
3,62,100,0
3,57,66,11128
3,62,82,0
3,57,80,192
3,62,80,0
3,60,62,0
3,55,72,0
3,50,87,0
3,50,82,0
3,60,40,14016
3,59,40,0
3,55,40,0
3,59,40,0
3,55,40,0
3,60,40,1536
3,59,40,0
3,55,40,0
3,59,40,0
3,55,40,0
3,60,40,1728
3,59,40,0
3,55,40,0
3,59,40,0
3,55,40,0
3,60,40,30912
3,59,40,0
3,55,40,0
3,59,40,0
3,55,40,0
3,60,40,1536
3,59,40,0
3,55,40,0
3,59,40,0
3,55,40,0
3,60,40,1728
3,59,40,0
3,55,40,0
3,59,40,0
3,55,40,0
3,74,110,0
3,72,105,8
3,71,101,4
3,69,97,8
3,67,74,196
3,60,40,26016
3,59,40,0
3,55,40,0
3,59,40,0
3,55,40,0
3,60,40,1536
3,59,40,0
3,55,40,0
3,59,40,0
3,55,40,0
3,60,40,1728
3,59,40,0
3,55,40,0
3,59,40,0
3,55,40,0
3,60,40,1536
3,59,40,0
3,55,40,0
3,59,40,0
3,55,40,0
3,60,40,1536
3,59,40,0
3,55,40,0
3,59,40,0
3,55,40,0
3,60,40,1536
3,59,40,0
3,55,40,0
3,59,40,0
3,55,40,0
3,60,40,1728
3,59,40,0
3,55,40,0
3,59,40,0
3,55,40,0
4,69,117,22968
4,64,120,36
4,64,110,52
4,62,117,1072
4,62,112,56
4,64,117,16
4,64,112,60
4,62,115,24
4,62,115,68
4,69,115,356
4,69,110,72
4,69,103,68
4,64,110,76
4,64,105,76
4,62,101,204
4,64,108,56
