track,note,velocity,time
1,27,105,5558
1,27,93,46
1,27,102,42
1,27,105,22
1,27,102,44
1,27,101,30
1,27,111,26
1,27,93,40
1,27,101,20
1,27,102,20
1,27,93,50
1,27,93,14
1,27,105,18
1,27,93,46
1,27,102,42
1,27,105,22
1,27,102,44
1,27,101,30
1,27,111,26
1,27,93,40
1,27,101,20
1,27,102,20
1,27,93,50
1,27,93,14
1,27,105,18
1,27,93,46
1,27,102,42
1,27,105,22
1,27,102,44
1,27,101,30
1,27,111,26
1,27,93,40
1,27,101,20
1,27,102,20
1,27,93,50
1,27,93,14
1,27,105,18
1,27,93,46
1,27,102,42
1,27,105,22
1,27,102,44
1,27,101,30
1,27,111,26
1,27,93,40
1,27,101,20
1,27,102,20
1,27,93,50
1,27,93,14
1,27,105,18
1,27,93,46
1,27,102,42
1,27,105,22
1,27,102,44
1,27,101,30
1,27,111,26
1,27,93,40
1,27,101,20
1,27,102,20
1,27,93,50
1,27,93,14
1,36,102,24
1,36,90,30
1,38,102,14
1,29,107,50
1,41,83,0
1,39,81,44
1,38,89,20
1,36,93,18
1,34,85,14
1,39,81,10
1,38,89,20
1,41,86,18
1,34,85,14
1,27,105,6144
1,39,93,46
1,39,102,42
1,27,105,22
1,39,102,44
1,39,101,30
1,27,111,26
1,39,93,40
1,39,101,20
1,27,102,20
1,39,93,50
1,39,93,14
1,27,105,18
1,39,93,46
1,39,102,42
1,27,105,22
1,39,102,44
1,39,101,30
1,27,111,26
1,39,93,40
1,39,101,20
1,27,102,20
1,39,93,50
1,39,93,14
1,39,105,4626
1,39,93,46
1,39,102,42
1,38,105,22
1,38,102,44
1,38,101,30
1,36,111,26
1,36,93,40
1,36,101,20
1,34,102,20
1,34,93,50
1,34,93,14
1,39,105,18
1,39,93,46
1,39,102,42
1,38,105,22
1,38,102,44
1,38,101,30
1,41,111,26
1,41,93,40
1,41,101,20
1,34,102,20
1,34,93,50
1,34,93,14
1,39,105,18
1,39,93,46
1,39,102,42
1,38,105,22
1,38,102,44
1,38,101,30
1,36,111,26
1,36,93,40
1,36,101,20
1,34,102,20
1,34,93,50
1,34,93,14
1,46,105,18
1,46,93,46
1,46,102,42
1,37,105,28
1,37,93,46
1,37,102,42
1,36,105,22
1,36,102,44
1,36,101,30
1,34,111,26
1,46,90,40
1,34,101,20
1,44,90,20
1,32,93,50
1,32,93,14
1,37,105,18
1,37,93,46
1,49,88,42
1,48,88,22
1,48,80,44
1,48,80,30
1,46,88,26
1,46,88,40
1,34,101,20
1,32,102,20
1,32,93,24
1,32,93,14
1,39,105,18
1,39,93,46
1,39,102,42
1,38,105,22
1,38,102,44
1,53,80,582
1,55,71,4
1,36,99,0
1,51,80,0
1,36,98,40
1,36,101,20
1,34,102,20
1,34,93,50
1,34,93,14
1,39,105,18
1,39,93,46
1,55,86,594
1,38,101,4
1,53,86,0
1,38,102,44
1,53,80,502
1,41,101,12
1,51,80,0
1,41,93,40
1,41,101,20
1,34,102,20
1,34,93,50
1,34,93,14
1,39,105,18
1,39,93,46
1,39,102,42
1,38,105,22
1,38,102,44
1,38,101,30
1,36,111,26
1,36,93,40
1,36,101,20
1,34,102,20
1,34,93,50
1,34,93,14
1,39,105,6162
1,39,93,46
1,55,82,594
1,38,100,12
1,53,78,0
1,38,102,44
1,38,101,30
1,36,102,18
1,36,93,40
1,36,101,20
1,34,102,20
1,34,93,50
1,34,93,14
1,39,105,18
1,39,93,46
1,55,84,594
1,38,102,4
1,53,82,0
1,38,102,22
1,53,84,494
1,41,103,12
1,51,84,0
1,41,93,36
1,41,101,20
1,34,102,20
1,34,93,50
1,34,93,14
1,39,105,18
1,39,93,46
1,39,102,42
1,38,105,22
1,38,102,44
1,38,101,30
1,36,111,26
1,36,93,40
1,36,101,20
1,34,102,20
1,34,93,50
1,34,93,14
1,27,101,18
1,39,73,570
1,39,82,42
1,27,85,22
1,39,82,44
1,39,81,30
1,27,91,26
1,39,73,40
1,39,81,20
1,27,82,20
1,39,73,50
1,39,73,14
1,27,102,18
1,39,73,570
1,27,85,6
1,39,82,44
1,27,91,18
1,39,73,40
1,27,82,28
1,39,73,50
1,27,101,12
2,39,67,4686
2,51,66,4
2,63,74,2
2,67,72,0
2,58,67,2
2,62,72,36
2,65,70,2
2,63,71,40
2,68,70,2
2,65,72,10
2,62,71,4
2,63,72,26
2,67,69,2
2,62,72,22
2,65,72,2
2,63,71,52
2,68,73,4
2,62,71,26
2,65,72,6
2,63,71,40
2,67,71,12
2,65,71,18
2,62,72,6
2,63,71,40
2,68,71,8
2,62,70,42
2,65,71,10
2,67,72,38
2,63,70,6
2,62,72,46
2,65,70,2
2,63,71,44
2,68,72,2
2,65,71,22
2,62,67,2
2,63,71,30
2,67,71,4
2,62,71,42
2,65,72,2
2,63,71,28
2,68,73,2
2,62,70,52
2,65,72,0
2,60,70,0
2,63,71,0
2,70,71,0
2,36,71,8
2,48,68,0
2,38,69,10
2,50,67,8
2,62,71,2
2,65,70,2
2,69,71,2
2,53,70,24
2,41,69,2
2,70,71,0
2,72,71,6
2,55,70,12
2,58,71,0
2,63,70,0
2,67,71,0
2,53,68,22
2,65,70,4
2,62,71,24
2,56,71,16
2,63,69,16
2,68,71,4
2,53,70,16
2,65,71,0
2,62,69,24
2,55,70,24
2,58,71,0
2,63,70,0
2,67,71,0
2,53,68,22
2,65,70,4
2,62,71,24
2,56,71,16
2,63,69,16
2,68,71,4
2,53,70,16
2,65,71,0
2,62,69,24
2,63,71,24
2,67,71,4
2,70,75,4
2,65,71,10
2,62,72,6
2,60,71,40
2,63,71,0
2,68,71,8
2,62,70,42
2,65,71,10
2,67,72,28
2,70,75,0
2,63,70,6
2,62,72,46
2,65,70,2
2,63,71,44
2,68,72,2
2,65,71,22
2,62,67,2
2,70,75,12
2,63,71,10
2,67,71,4
2,62,71,42
2,65,72,2
2,63,71,28
2,68,73,2
2,62,70,52
2,65,72,0
2,75,71,6
2,60,68,8
2,62,67,18
2,74,71,6
2,58,70,42
2,75,65,8
2,58,71,6
2,63,70,0
2,67,71,0
2,70,75,0
2,65,70,26
2,62,71,24
2,63,69,32
2,68,71,4
2,65,71,16
2,62,69,24
2,58,71,14
2,63,70,0
2,67,71,0
2,70,76,0
2,65,70,26
2,62,71,24
2,63,69,32
2,68,71,4
2,65,71,16
2,62,69,24
2,58,71,14
2,63,70,0
2,67,71,0
2,70,75,0
2,65,70,26
2,62,71,24
2,63,69,32
2,68,71,4
2,65,71,16
2,62,69,24
2,63,69,8
2,56,68,4
2,61,67,18
2,68,73,0
2,60,70,18
2,61,67,16
2,66,68,2
2,63,67,14
2,60,69,4
2,61,67,12
2,68,75,2
2,65,67,2
2,60,68,26
2,61,67,12
2,66,67,0
2,63,69,22
2,60,68,4
2,58,71,30
2,63,70,0
2,67,71,0
2,70,76,4
2,65,70,26
2,62,71,24
2,63,69,32
2,68,71,4
2,65,71,16
2,62,69,24
2,58,71,14
2,63,70,0
2,67,71,0
2,70,76,2
2,65,70,26
2,62,71,24
2,63,69,32
2,68,71,4
2,65,71,16
2,62,69,24
2,58,71,16
2,63,70,0
2,67,71,0
2,70,76,2
2,65,70,26
2,62,71,24
2,63,69,32
2,68,71,4
2,65,71,16
2,62,69,24
2,58,71,6160
2,63,70,0
2,67,71,0
2,70,76,0
2,65,70,26
2,62,71,24
2,63,69,32
2,68,71,4
2,65,71,16
2,62,69,24
2,58,71,18
2,63,70,0
2,67,71,0
2,70,76,2
2,65,70,26
2,62,71,24
2,63,69,32
2,68,71,4
2,65,71,16
2,62,69,24
2,58,71,16
2,63,70,0
2,67,71,0
2,70,76,2
2,65,70,26
2,62,71,24
2,63,69,32
2,68,71,4
2,65,71,16
2,62,69,24
2,58,71,16
2,63,70,0
2,67,71,0
2,70,76,0
2,65,70,26
2,62,71,24
2,63,69,32
2,68,71,4
2,65,71,16
2,62,69,24
2,58,71,18
2,63,70,0
2,67,71,0
2,70,76,4
2,65,70,26
2,62,71,24
2,63,69,32
2,68,71,4
2,65,71,16
2,62,69,24
2,58,71,14
2,63,70,0
2,67,71,0
2,70,76,0
3,75,120,18216
3,74,116,8
3,75,116,4
3,72,116,18
3,70,111,12
3,63,116,14
3,63,99,24
3,62,111,146
3,65,107,4
3,63,111,22
3,58,107,12
3,58,103,16
3,63,105,1964
3,62,105,12
3,63,105,18
3,63,105,16
3,72,105,12
3,70,105,8
3,62,103,12
3,58,105,870
3,60,105,20
3,60,105,36
3,55,111,20
3,58,103,12
3,75,107,1240
3,74,107,10
3,75,107,10
3,72,107,6
3,70,103,14
3,62,107,2
3,58,107,592
3,60,103,8
3,58,99,14
3,70,103,4
3,67,107,184
3,65,103,10
3,63,88,4
3,63,110,110
3,65,103,8
3,63,114,3646
3,65,114,16
3,67,111,8
3,65,111,16
3,67,114,18
3,63,111,1396
3,65,114,12
3,67,107,22
3,65,114,16
3,65,111,24
3,65,111,32
3,63,111,1116
3,65,111,12
3,67,111,22
3,65,120,4
3,67,111,20
3,63,111,1158
3,65,107,14
3,67,107,10
3,65,111,18
3,65,112,16
3,65,111,28
3,65,111,32
3,63,112,20
3,68,111,1392
3,67,101,16
3,68,103,4
3,70,116,12
3,70,111,30
3,67,103,16
3,67,107,20
3,63,103,12
3,67,107,22
3,70,114,1504
3,67,111,10
3,63,111,30
3,63,107,16
3,60,111,18
3,58,103,6
3,58,109,82
3,60,111,18
3,58,111,22
3,55,111,12
3,55,111,34
3,55,111,1312
3,58,111,14
3,55,103,194
3,58,103,30
3,55,107,190
3,58,107,30
3,72,111,118
3,70,111,8
3,70,111,38
3,63,111,8
3,63,111,28
3,58,111,10
3,67,107,374
3,65,103,10
3,63,88,4
3,63,110,110
3,65,103,8
3,63,114,3646
3,65,114,16
3,67,111,8
3,65,111,16
3,67,114,18
3,63,111,1396
3,65,114,12
3,67,107,22
3,65,114,16
3,65,111,24
3,65,111,32
3,63,114,1116
3,65,114,16
3,67,111,8
3,65,111,16
3,67,114,18
3,63,111,1396
3,65,114,12
3,67,107,22
3,72,114,16
3,70,111,24
3,70,111,32
3,65,112,20
3,65,112,28
3,67,112,14
3,63,111,338
3,65,111,12
3,67,111,22
3,65,120,4
3,67,111,20
3,63,111,1158
3,65,107,14
3,67,107,10
3,72,111,18
3,70,112,16
3,65,111,28
3,65,111,32
3,63,105,12
3,70,114,11530
3,68,114,14
3,67,111,28
3,65,111,12
3,67,114,12
3,63,111,1338
3,65,114,12
3,67,107,22
3,65,114,16
3,65,111,24
3,65,111,32
3,63,114,1116
3,65,114,16
3,67,111,8
3,65,111,16
3,67,114,18
3,63,111,1396
3,65,114,12
3,67,107,22
3,72,114,16
3,70,111,24
3,70,111,32
3,65,112,20
3,65,112,28
3,67,112,14
3,63,111,338
3,65,111,12
3,67,111,22
3,65,120,4
3,67,111,20
3,63,111,1158
3,65,107,14
3,67,107,10
3,65,111,18
3,65,112,16
3,65,111,28
3,65,111,32
3,63,112,20
3,65,111,902
3,65,111,12
3,63,112,16
3,70,114,1478
3,68,114,16
3,67,111,28
3,65,111,12
3,67,114,12
3,67,111,1338
3,68,114,12
3,70,107,22
3,70,114,16
3,70,111,24
3,70,111,32
3,72,116,908
3,70,116,14
3,67,120,1006
3,68,120,4
3,70,118,18
3,75,118,14
3,75,111,38
3,74,111,20
3,63,111,778
3,65,111,12
3,67,111,22
3,65,120,4
3,67,111,20
3,63,111,1158
3,65,107,14
3,67,107,10
3,65,111,18
3,65,112,16
3,65,111,28
3,65,111,32
3,63,112,20
3,65,111,3776
3,65,111,32
3,63,112,20
4,72,107,55752
4,70,97,16
4,72,99,12
4,75,112,22
4,75,107,30
4,70,99,16
4,70,103,20
4,67,99,12
4,70,103,22
4,70,110,51276
4,70,107,28
4,70,107,12
4,70,110,12
4,67,107,1338
4,68,110,12
4,70,103,22
4,70,110,16
4,70,107,24
4,70,107,32
4,75,110,1116
4,70,110,16
4,70,107,8
4,70,107,16
4,70,110,18
4,67,107,4474
4,68,107,12
4,70,107,22
4,70,116,4
4,70,107,20
5,63,108,88208
5,70,117,2
5,62,109,20
5,70,117,152
5,63,108,2
5,62,109,16
5,63,108,13850
5,70,117,2
5,62,109,20
5,70,117,152
5,63,108,2
5,62,109,16
5,63,108,26
5,70,117,2
5,62,109,20
5,70,117,152
5,63,108,2
5,62,109,16
5,63,108,26
5,70,117,2
5,62,109,20
5,70,117,152
5,63,108,2
5,62,109,16
5,67,103,26
5,75,103,0
5,70,112,2
5,65,104,20
5,74,104,0
5,70,112,292
5,68,103,2
5,72,103,0
5,65,104,16
5,74,104,0
6,67,110,5138
6,68,97,26
6,70,105,20
6,72,101,20
6,70,110,14
6,70,105,98
6,70,109,90
6,72,118,646
6,70,118,28
6,67,110,1162
6,68,97,26
6,70,105,20
6,72,101,20
6,70,110,14
6,70,105,98
6,70,109,90
6,72,118,646
6,70,118,20
6,67,110,1168
6,68,97,26
6,70,105,20
6,72,101,20
6,70,110,14
6,70,105,98
6,70,109,90
6,72,118,646
6,70,118,28
6,67,110,1162
6,68,97,26
6,70,105,20
6,72,101,20
6,70,110,14
6,70,105,98
6,70,109,90
6,72,118,646
6,70,118,20
6,67,110,1168
6,68,97,26
6,70,105,20
6,72,101,20
6,70,110,14
6,70,105,98
6,70,109,90
6,72,118,646
6,70,118,28
6,67,110,1162
6,68,97,26
6,70,105,20
6,72,101,20
6,70,110,14
6,70,105,98
6,70,109,90
6,72,118,646
6,70,118,20
6,67,110,1168
6,68,97,26
6,70,105,20
6,72,101,20
6,70,110,14
6,70,105,98
6,70,109,90
6,72,118,646
6,70,118,28
6,67,110,1162
6,68,97,26
6,70,105,20
6,72,101,20
6,70,110,14
6,70,105,98
6,70,109,90
6,72,118,646
6,70,118,20
6,67,110,1168
6,68,97,26
6,70,105,20
6,72,101,20
6,70,110,14
6,70,105,98
6,70,109,90
6,72,118,646
6,70,118,28
6,67,110,1162
6,68,97,26
6,70,105,20
6,72,101,20
6,70,110,14
6,70,105,98
6,70,109,90
6,72,118,646
6,70,118,20
6,70,99,2894
6,70,109,64
6,70,101,64
6,70,105,76
6,70,105,80
6,70,105,78
6,70,105,66
6,70,101,86
6,70,105,38
6,70,101,22
6,70,109,26
6,70,101,62
6,70,105,66
6,70,97,62
6,70,109,66
6,67,109,24
6,68,109,18
6,70,118,26
6,67,110,16764
6,68,97,26
6,70,105,20
6,72,101,20
6,70,110,14
6,70,105,98
6,70,109,90
6,72,118,646
6,70,118,28
6,67,110,1162
6,68,97,26
6,70,105,20
6,72,101,20
6,70,110,14
6,70,105,98
6,70,109,90
6,72,118,646
6,70,118,20
6,67,110,1168
6,68,97,26
6,70,105,20
6,72,101,20
6,70,110,14
6,70,105,98
6,70,109,90
6,72,118,646
6,70,118,28
6,67,110,1162
6,68,97,26
6,70,105,20
6,72,101,20
6,70,110,14
6,70,105,98
6,70,109,90
6,72,118,646
6,70,118,20
6,70,99,2894
6,70,109,64
6,70,101,64
6,70,105,76
6,70,105,80
6,70,105,78
6,70,105,66
6,70,101,86
6,70,105,38
6,70,101,22
6,70,109,26
6,70,101,62
6,70,105,66
6,70,97,62
6,70,109,66
6,67,109,24
6,68,109,18
6,70,118,26
6,67,110,49020
6,68,97,26
6,70,105,20
6,72,101,20
6,70,110,14
6,70,105,98
6,70,109,90
6,72,118,646
6,70,118,28
6,67,110,1162
6,68,97,26
6,70,105,20
6,72,101,20
6,70,110,14
6,70,105,98
6,70,109,90
6,72,118,646
6,70,118,20
6,67,110,4240
6,68,97,26
6,70,105,20
6,72,101,20
6,70,110,14
6,70,105,98
6,70,109,90
6,72,118,646
6,70,118,28
6,67,110,1162
6,68,97,26
6,70,105,20
6,72,101,20
6,70,110,14
6,70,105,98
6,70,109,90
6,72,118,646
6,70,118,20
6,67,110,1168
6,68,97,26
6,70,105,20
6,72,101,20
6,70,110,14
6,70,105,98
6,70,109,90
6,72,118,646
6,70,118,28
6,67,110,1162
6,68,97,26
6,70,105,20
6,72,101,20
6,70,110,14
6,70,105,98
6,70,109,90
6,72,118,646
