track,note,velocity,time
0,79,88,0
0,81,97,0
0,88,104,0
0,86,109,0
0,84,109,0
0,83,110,0
0,79,96,0
0,42,19,0
0,42,26,15
0,42,46,4
0,38,119,3
0,81,89,0
0,42,90,0
0,35,108,0
0,65,69,0
0,57,76,0
0,62,84,0
0,53,72,0
0,38,103,0
0,65,65,1
0,42,63,1
0,72,68,0
0,38,107,0
0,42,88,2
0,72,64,2
0,38,107,0
0,42,61,1
0,42,89,2
0,40,88,0
0,81,69,0
0,50,107,0
0,81,65,12
0,42,35,0
0,57,65,5
0,53,62,0
0,35,111,1
0,38,98,0
0,65,60,0
0,38,105,0
0,42,78,1
0,38,114,6
0,65,59,0
0,65,56,0
0,57,85,0
0,53,78,0
0,42,89,1
0,84,101,0
0,65,55,1
0,42,37,2
0,72,69,0
0,42,95,2
0,72,65,3
0,42,35,0
0,81,74,0
0,42,93,2
0,40,88,5
0,81,70,0
0,42,90,0
0,42,38,0
0,65,69,1
0,42,87,1
0,65,65,3
0,42,90,1
0,83,101,0
0,31,117,4
0,62,76,0
0,59,72,0
0,67,92,0
0,43,89,0
0,42,90,0
0,35,110,0
0,67,77,0
0,42,63,0
0,67,73,0
0,74,62,2
0,43,93,0
0,42,88,1
0,74,58,1
0,43,107,0
0,42,61,1
0,50,107,1
0,42,89,0
0,40,88,0
0,83,66,1
0,42,35,1
0,83,62,0
0,62,69,9
0,59,69,0
0,35,109,1
0,31,111,0
0,67,64,0
0,43,103,0
0,42,78,1
0,67,70,9
0,67,60,0
0,62,84,0
0,59,88,0
0,42,89,1
0,86,102,0
0,67,66,1
0,42,37,2
0,74,64,2
0,42,95,1
0,74,60,5
0,42,35,0
0,83,62,1
0,42,93,0
0,40,87,1
0,83,58,0
0,42,90,0
0,42,38,0
0,67,69,0
0,42,87,2
0,67,65,1
0,42,90,1
0,86,98,0
0,64,84,1
0,69,85,0
0,60,78,0
0,35,108,0
0,69,74,0
0,42,90,0
0,45,74,0
0,33,111,0
0,69,70,0
0,42,63,1
0,84,89,1
0,76,59,12
0,45,79,0
0,42,88,2
0,81,65,5
0,45,94,1
0,76,55,1
0,42,61,2
0,48,107,0
0,42,89,1
0,40,86,0
0,84,72,0
0,84,92,0
0,84,68,7
0,42,35,1
0,45,101,3
0,35,109,0
0,33,91,0
0,69,65,0
0,64,69,0
0,60,76,0
0,42,78,1
0,33,105,0
0,69,69,0
0,69,61,0
0,42,89,1
0,64,79,0
0,60,79,0
0,69,65,1
0,42,37,2
0,76,64,0
0,42,95,2
0,76,60,0
0,42,35,1
0,84,69,0
0,42,93,0
0,40,86,0
0,31,113,0
0,84,65,0
0,62,79,0
0,43,105,0
0,42,90,0
0,59,78,0
0,67,87,0
0,42,38,1
0,67,74,0
0,42,87,2
0,67,70,2
0,42,90,1
0,35,108,2
0,29,107,0
0,65,73,0
0,41,83,0
0,42,90,0
0,60,81,0
0,57,77,0
0,65,87,0
0,65,69,20
0,42,63,1
0,72,57,0
0,79,81,0
0,42,88,0
0,41,83,0
0,72,53,0
0,41,87,1
0,42,61,1
0,81,93,0
0,42,89,0
0,40,86,0
0,81,65,0
0,48,101,0
0,81,61,2
0,42,35,1
0,88,102,0
0,60,74,1
0,57,72,0
0,35,109,0
0,29,105,0
0,65,69,0
0,41,98,0
0,42,78,1
0,29,103,5
0,65,68,0
0,65,65,0
0,60,84,0
0,57,80,0
0,42,89,1
0,86,101,0
0,65,64,0
0,42,37,1
0,72,57,4
0,42,95,0
0,84,96,0
0,72,53,1
0,42,35,2
0,81,69,0
0,42,93,2
0,83,95,0
0,40,87,0
0,81,65,0
0,42,90,0
0,42,59,5
0,79,82,0
0,65,69,1
0,42,30,1
0,42,48,6
0,65,65,4
0,42,64,5
0,65,68,3
0,41,81,0
0,80,88,0
0,42,90,0
0,35,108,0
0,29,114,0
0,65,78,0
0,57,82,0
0,60,85,0
0,65,64,0
0,42,63,2
0,72,62,4
0,41,69,0
0,42,88,1
0,41,97,2
0,72,58,1
0,42,61,2
0,48,107,2
0,42,89,0
0,40,88,0
0,81,69,0
0,81,65,7
0,42,35,1
0,57,69,0
0,60,70,0
0,35,111,8
0,29,97,0
0,65,59,0
0,41,105,0
0,42,78,1
0,57,83,6
0,60,85,0
0,29,104,1
0,65,64,0
0,65,55,0
0,42,89,1
0,84,100,0
0,65,60,0
0,42,37,2
0,72,62,5
0,42,95,2
0,72,58,3
0,42,35,2
0,81,65,5
0,42,93,2
0,62,75,0
0,40,88,1
0,81,61,0
0,42,90,0
0,42,38,2
0,65,69,2
0,42,30,1
0,42,44,0
0,65,65,1
0,42,69,1
0,83,97,0
0,62,75,0
0,67,82,0
0,31,117,1
0,67,73,0
0,59,76,0
0,43,73,0
0,42,90,1
0,35,110,0
0,67,69,0
0,42,63,2
0,74,59,2
0,43,85,0
0,42,88,1
0,74,55,0
0,43,95,0
0,42,61,2
0,42,89,1
0,40,88,0
0,83,70,0
0,47,107,0
0,83,66,10
0,42,35,1
0,35,109,10
0,31,99,0
0,67,57,0
0,62,84,0
0,59,75,0
0,43,105,0
0,67,83,0
0,42,78,1
0,31,105,10
0,67,62,0
0,67,53,0
0,42,89,1
0,67,79,0
0,62,80,0
0,59,81,0
0,84,99,0
0,67,58,1
0,42,37,0
0,74,59,2
0,42,95,0
0,74,55,1
0,42,35,1
0,83,67,4
0,42,93,2
0,40,87,6
0,83,63,0
0,42,90,0
0,42,38,0
0,67,66,2
0,42,87,1
0,67,62,1
0,42,90,0
0,35,108,0
0,63,71,0
0,42,90,0
0,39,103,0
0,58,89,0
0,67,79,0
0,63,78,0
0,60,55,0
0,39,107,0
0,84,99,0
0,63,67,0
0,42,63,2
0,70,74,1
0,42,88,0
0,70,70,3
0,42,61,0
0,42,89,5
0,40,86,0
0,79,65,0
0,79,61,1
0,42,35,0
0,60,76,0
0,58,65,1
0,63,70,0
0,67,68,0
0,35,109,1
0,39,116,0
0,63,67,0
0,42,78,0
0,60,91,1
0,67,82,0
0,63,86,0
0,58,89,0
0,63,70,1
0,63,63,0
0,42,89,1
0,63,66,1
0,81,80,0
0,42,37,1
0,70,76,0
0,42,95,1
0,84,89,0
0,70,72,0
0,42,35,2
0,79,70,4
0,42,93,1
0,65,71,1
0,57,77,0
0,38,107,0
0,40,86,1
0,38,114,0
0,79,66,0
0,62,70,0
0,60,82,0
0,42,90,0
0,42,38,0
0,63,71,0
0,42,87,1
0,63,67,2
0,42,90,1
0,67,73,1
0,64,77,0
0,55,70,0
0,60,67,0
0,35,108,1
0,36,89,0
0,60,77,0
0,36,103,0
0,42,90,0
0,60,73,2
0,42,63,1
0,67,74,0
0,36,83,1
0,76,90,0
0,42,88,0
0,36,114,1
0,67,70,0
0,42,61,2
0,42,89,0
0,40,86,0
0,76,54,0
0,76,93,0
0,42,35,1
0,76,50,0
0,77,94,0
0,35,109,2
0,60,69,0
0,42,78,1
0,77,96,0
0,60,75,3
0,60,65,0
0,42,89,1
0,60,71,1
0,42,37,2
0,67,76,3
0,42,95,2
0,79,96,0
0,67,72,1
0,46,59,2
0,76,69,0
0,79,102,0
0,42,57,1
0,40,87,0
0,43,114,0
0,76,65,0
0,42,90,0
0,42,38,1
0,77,94,0
0,60,75,0
0,42,87,2
0,60,71,2
0,42,90,1
0,42,90,2
0,35,108,0
0,65,69,0
0,57,76,0
0,62,84,0
0,53,72,0
0,38,103,0
0,38,121,0
0,65,65,3
0,42,63,2
0,72,68,6
0,38,107,0
0,42,88,2
0,45,92,2
0,72,64,0
0,38,107,0
0,42,61,2
0,81,102,0
0,42,89,0
0,40,88,0
0,81,69,0
0,50,107,0
0,81,65,1
0,42,35,0
0,57,65,1
0,53,62,0
0,35,111,0
0,38,89,0
0,65,60,0
0,38,105,0
0,42,78,1
0,38,109,1
0,65,59,0
0,65,56,0
0,57,85,0
0,53,78,0
0,42,89,0
0,65,55,1
0,42,37,2
0,72,69,2
0,42,95,2
0,72,65,3
0,42,35,2
0,81,74,3
0,42,93,2
0,40,88,10
0,81,70,0
0,42,90,0
0,42,38,5
0,65,69,4
0,42,87,1
0,65,65,20
0,42,90,1
0,31,111,15
0,62,76,0
0,59,72,0
0,67,92,0
0,43,89,0
0,42,90,1
0,35,110,0
0,67,77,0
0,42,63,3
0,67,73,0
0,79,95,0
0,74,62,2
0,43,93,0
0,42,88,2
0,74,58,2
0,43,107,0
0,42,61,2
0,50,107,1
0,42,89,0
0,40,88,0
0,79,101,0
0,83,66,1
0,42,35,1
0,83,62,0
0,62,69,1
0,59,69,0
0,76,100,0
0,35,109,0
0,31,102,0
0,67,64,0
0,43,103,0
0,42,78,1
0,67,70,0
0,67,60,0
0,62,84,0
0,59,88,0
0,42,89,1
0,31,105,0
0,76,97,0
0,67,66,1
0,42,37,1
0,74,64,19
0,42,95,2
0,74,100,0
0,74,60,5
0,42,35,0
0,74,94,0
0,83,62,0
0,42,93,0
0,40,87,6
0,83,58,0
0,42,90,0
0,72,94,0
0,42,38,0
0,67,69,1
0,42,87,2
0,28,99,0
0,31,106,2
0,67,65,0
0,42,90,2
0,75,97,0
0,64,79,0
0,69,82,0
0,60,74,0
0,35,108,1
0,69,74,0
0,42,90,0
0,33,106,0
0,45,74,0
0,69,70,0
0,42,63,2
0,76,59,2
0,45,79,0
0,42,88,1
0,45,94,0
0,76,55,1
0,42,61,0
0,48,107,0
0,42,89,0
0,40,86,0
0,84,72,0
0,84,68,5
0,42,35,1
0,79,100,1
0,45,101,4
0,35,109,1
0,33,89,0
0,69,65,0
0,64,70,0
0,60,74,0
0,42,78,1
0,33,109,11
0,69,69,0
0,69,61,0
0,42,89,1
0,64,81,0
0,60,83,0
0,75,106,0
0,69,65,1
0,42,37,1
0,74,93,0
0,76,64,0
0,42,95,2
0,76,60,4
0,42,35,1
0,69,73,0
0,84,69,1
0,42,93,0
0,74,106,1
0,40,86,2
0,84,65,0
0,62,83,0
0,43,105,0
0,42,90,0
0,59,78,0
0,31,109,0
0,67,87,0
0,42,38,0
0,72,86,1
0,67,74,1
0,42,87,2
0,67,70,6
0,42,90,0
0,35,108,5
0,29,106,0
0,65,73,0
0,41,83,0
0,42,90,0
0,60,81,0
0,57,77,0
0,65,87,0
0,65,69,1
0,42,63,1
0,72,57,1
0,42,88,0
0,41,83,0
0,72,53,0
0,41,87,1
0,42,61,1
0,42,89,1
0,40,86,0
0,81,65,0
0,48,101,0
0,81,61,10
0,42,35,1
0,60,74,4
0,57,72,0
0,35,109,1
0,29,81,0
0,65,69,0
0,41,98,0
0,42,78,1
0,29,113,5
0,65,68,0
0,65,65,0
0,60,84,0
0,57,80,0
0,42,89,1
0,76,110,0
0,65,64,0
0,42,37,2
0,72,57,4
0,42,95,2
0,72,53,1
0,42,35,2
0,74,92,0
0,81,69,1
0,42,93,1
0,40,87,4
0,81,65,0
0,42,90,0
0,42,38,5
0,72,98,0
0,65,69,0
0,42,27,0
0,42,42,1
0,65,65,6
0,42,68,0
0,65,68,2
0,41,81,0
0,42,90,1
0,35,108,0
0,29,117,0
0,65,78,0
0,57,82,0
0,60,85,0
0,65,64,3
0,42,63,2
0,74,91,0
0,72,62,2
0,41,69,0
0,42,88,2
0,41,97,2
0,72,58,1
0,42,61,2
0,76,106,0
0,48,107,2
0,42,89,1
0,40,88,0
0,81,69,0
0,81,65,7
0,42,35,1
0,57,69,0
0,60,70,0
0,35,111,1
0,29,99,0
0,65,59,0
0,41,105,0
0,42,78,1
0,57,83,1
0,60,85,0
0,29,114,1
0,65,64,0
0,65,55,0
0,42,89,1
0,65,60,1
0,42,37,2
0,72,62,14
0,42,95,2
0,72,97,0
0,72,58,1
0,42,35,0
0,81,65,6
0,42,93,1
0,62,75,6
0,40,88,0
0,81,61,0
0,42,90,0
0,42,38,2
0,65,69,2
0,42,87,1
0,65,65,1
0,42,90,0
0,62,75,6
0,67,82,0
0,31,113,1
0,67,73,0
0,59,76,0
0,43,73,0
0,42,90,1
0,35,110,0
0,67,69,7
0,42,63,2
0,74,59,17
0,43,85,0
0,42,88,2
0,74,55,1
0,43,95,0
0,42,61,2
0,42,89,1
0,40,88,0
0,83,70,0
0,47,107,0
0,83,66,10
0,42,35,1
0,35,109,10
0,31,100,0
0,67,57,0
0,62,84,0
0,59,75,0
0,43,105,0
0,67,83,0
0,42,78,1
0,31,100,10
0,67,62,0
0,67,53,0
0,42,89,1
0,67,79,0
0,62,80,0
0,59,81,0
0,67,58,0
0,71,107,0
0,42,37,0
0,74,59,3
0,42,95,0
0,74,55,1
0,42,35,1
0,72,92,0
0,83,67,4
0,42,93,1
0,40,87,6
0,83,63,0
0,42,90,0
0,74,106,0
0,42,38,0
0,67,66,1
0,42,87,0
0,67,62,2
0,42,90,2
0,72,100,0
0,35,108,10
0,63,71,0
0,42,90,0
0,39,114,0
0,58,89,0
0,67,79,0
0,63,78,0
0,60,55,0
0,39,107,0
0,63,67,6
0,42,63,2
0,70,74,21
0,42,88,2
0,72,105,0
0,70,70,1
0,42,61,2
0,42,89,6
0,40,86,0
0,79,65,0
0,79,61,11
0,42,35,1
0,60,76,0
0,58,65,1
0,63,70,0
0,67,68,0
0,35,109,1
0,39,112,0
0,63,67,0
0,42,78,1
0,60,91,0
0,67,82,0
0,63,86,0
0,58,89,0
0,63,70,1
0,63,63,0
0,42,89,1
0,63,66,0
0,42,37,1
0,70,76,17
0,42,95,1
0,68,80,0
0,70,72,8
0,42,35,2
0,79,70,0
0,42,93,0
0,72,104,1
0,65,71,0
0,57,77,0
0,38,107,0
0,40,86,1
0,38,107,0
0,79,66,0
0,62,70,0
0,60,82,0
0,42,90,0
0,42,38,0
0,63,71,1
0,42,33,1
0,42,43,2
0,63,67,0
0,42,64,0
0,67,73,1
0,64,77,0
0,55,70,0
0,60,67,0
0,35,108,1
0,36,92,0
0,60,77,0
0,36,103,0
0,42,90,0
0,60,73,3
0,42,63,1
0,76,107,0
0,36,97,2
0,67,74,0
0,42,88,2
0,36,109,0
0,67,70,0
0,42,61,2
0,42,89,0
0,40,86,0
0,76,98,0
0,76,54,1
0,42,35,1
0,36,111,0
0,76,50,0
0,77,107,0
0,35,109,4
0,60,69,0
0,42,78,1
0,60,75,4
0,60,65,0
0,77,90,0
0,42,89,1
0,60,71,1
0,42,37,0
0,79,107,0
0,67,76,1
0,42,95,0
0,67,72,1
0,42,35,0
0,79,107,0
0,76,69,1
0,42,93,0
0,40,87,6
0,43,114,0
0,76,65,0
0,42,90,0
0,77,103,0
0,42,38,5
0,60,75,0
0,46,76,0
0,60,71,0
0,42,71,1
0,79,104,0
0,38,121,2
0,42,90,1
0,35,108,0
0,65,69,0
0,57,76,0
0,62,84,0
0,53,72,0
0,38,103,0
0,65,65,3
0,42,63,2
0,72,68,8
0,38,107,0
0,84,101,1
0,42,88,1
0,38,104,2
0,72,64,0
0,38,107,0
0,42,61,0
0,42,89,2
0,40,88,0
0,86,110,1
0,81,69,0
0,50,107,0
0,81,65,6
0,42,35,1
0,57,65,3
0,53,62,0
0,81,92,0
0,35,111,0
0,38,96,0
0,65,60,0
0,38,105,0
0,42,78,1
0,38,111,1
0,65,59,0
0,65,56,0
0,57,85,0
0,53,78,0
0,42,89,1
0,84,108,5
0,65,55,1
0,42,37,2
0,72,69,18
0,42,95,2
0,72,65,2
0,42,35,1
0,81,74,2
0,42,93,0
0,40,88,0
0,81,70,0
0,42,90,0
0,42,38,5
0,65,69,4
0,42,87,1
0,65,65,22
0,42,90,1
0,31,106,15
0,62,76,0
0,59,72,0
0,67,92,0
0,43,89,0
0,42,90,1
0,35,110,0
0,67,77,0
0,42,63,3
0,67,73,0
0,79,109,0
0,31,106,6
0,74,62,0
0,43,93,0
0,42,31,2
0,42,39,0
0,74,58,2
0,43,107,0
0,42,64,5
0,50,107,0
0,42,89,0
0,40,88,0
0,83,106,0
0,83,66,0
0,42,35,1
0,83,62,0
0,81,107,0
0,62,69,2
0,59,69,0
0,35,109,0
