track,note,velocity,time
1,81,89,669
1,77,73,0
1,77,69,21
1,82,81,0
1,82,69,7
1,77,71,1
1,77,71,14
1,81,85,1
1,81,77,22
1,77,73,1
1,77,75,11
1,82,81,0
1,82,69,11
1,77,71,0
1,77,69,10
1,81,79,0
1,77,71,17
1,81,85,0
1,77,59,12
1,82,73,1
1,77,71,6
1,82,63,0
1,77,63,13
1,81,81,1
1,77,71,26
1,82,69,0
1,77,65,9
1,82,61,0
1,82,63,9
1,77,71,1
1,77,63,18
1,81,77,1
1,77,81,10
1,79,83,0
1,79,71,6
1,77,65,0
1,77,75,8
1,81,85,0
1,77,73,14
1,82,87,0
1,77,79,8
1,82,73,0
1,77,71,12
1,81,85,0
1,81,91,16
1,79,71,47
1,77,67,18
1,74,49,17
1,82,77,14
1,77,69,0
1,77,77,14
1,82,71,0
1,82,79,11
1,77,77,0
1,81,77,13
1,77,77,0
1,77,71,18
1,79,75,0
1,79,75,7
1,77,67,0
1,77,79,17
1,81,79,0
1,79,85,18
1,77,79,0
1,76,83,3
1,81,73,12
1,77,71,0
1,77,71,5
1,79,81,0
1,76,89,3
1,79,77,18
1,77,69,0
1,79,71,11
1,77,69,0
1,79,77,16
1,77,71,0
1,79,77,5
1,77,73,0
1,77,71,4
1,81,85,0
1,77,59,12
1,82,73,1
1,77,71,6
1,82,63,0
1,77,63,13
1,81,81,1
1,77,71,26
1,82,69,0
1,77,65,9
1,82,61,0
1,82,63,9
1,77,71,1
1,77,63,18
1,81,77,1
1,77,81,10
1,79,83,0
1,79,71,6
1,77,65,0
1,77,75,8
1,81,85,0
1,77,73,14
1,82,87,0
1,77,79,8
1,82,73,0
1,77,71,12
1,81,85,0
1,81,91,16
1,79,71,47
1,77,67,18
1,74,49,17
1,82,77,14
1,77,69,0
1,77,77,14
1,82,71,0
1,82,79,11
1,77,77,0
1,81,77,13
1,77,77,0
1,77,71,18
1,79,75,0
1,79,75,7
1,77,67,0
1,77,79,17
1,81,79,0
1,79,85,18
1,77,79,0
1,76,83,3
1,81,73,12
1,77,71,0
1,77,71,5
1,79,81,0
1,76,89,3
1,79,77,18
1,77,69,0
1,79,71,11
1,77,69,0
1,79,77,16
1,77,71,0
1,79,77,5
1,77,73,0
1,73,65,4
1,80,59,1
1,78,71,25
1,82,85,0
1,78,59,12
1,83,73,1
1,78,71,6
1,83,63,0
1,78,63,13
1,82,81,1
1,78,71,26
1,83,69,0
1,78,65,9
1,83,61,0
1,83,63,9
1,78,71,1
1,78,63,18
1,82,77,1
1,78,81,10
1,80,83,0
1,80,71,6
1,78,65,0
1,78,75,8
1,82,85,0
1,78,73,14
1,83,87,0
1,78,79,8
1,83,73,0
1,78,71,12
1,82,85,0
1,82,91,16
1,80,71,47
1,78,67,18
1,75,49,17
1,83,77,14
1,78,69,0
1,78,77,14
1,83,71,0
1,83,79,11
1,78,77,0
1,82,77,13
1,78,77,0
1,78,71,18
1,80,75,0
1,80,75,7
1,78,67,0
1,78,79,17
1,82,79,0
1,80,85,18
1,78,79,0
1,77,83,3
1,82,73,12
1,78,71,0
1,78,71,5
1,80,81,0
1,77,89,3
1,78,69,18
1,68,77,0
1,78,69,11
1,68,71,0
1,78,71,16
1,68,77,0
1,80,77,5
1,78,73,0
1,71,85,4
1,63,67,0
1,73,61,240
1,70,59,7
1,66,57,0
1,63,77,24
1,71,79,1
1,73,61,239
1,70,63,16
1,66,30,1
1,63,73,8
1,71,75,1
1,73,63,241
1,70,63,12
1,66,55,0
1,63,77,13
1,71,69,1
1,73,55,239
1,70,42,12
1,66,59,0
1,63,71,17
1,71,63,0
1,73,57,240
1,70,53,19
1,66,55,1
1,63,53,14
1,71,73,1
1,73,59,239
1,70,55,20
1,66,24,0
1,63,67,5
1,71,69,0
1,73,53,240
1,66,53,16
1,70,59,0
1,63,67,6
1,71,69,0
1,73,53,240
1,66,53,16
1,70,59,0
2,29,96,663
2,29,93,1
2,29,98,1
2,29,96,1
2,29,95,1
2,29,98,1
2,29,98,1
2,29,96,1
2,29,98,1
2,29,98,1
2,36,99,3
2,29,97,1
2,29,95,1
2,33,94,6
2,34,94,0
2,34,92,1
2,36,95,0
2,29,95,0
2,29,95,1
2,29,95,1
2,29,94,1
2,36,95,0
2,29,92,0
2,29,95,5
2,33,95,5
2,34,91,0
2,34,94,1
2,36,95,0
2,29,94,0
2,29,98,1
2,36,98,0
2,29,95,0
2,29,95,1
2,29,95,1
2,31,97,0
2,36,98,2
2,36,96,10
2,29,94,0
2,29,98,11
2,29,98,1
2,31,95,0
2,36,98,5
2,31,95,0
2,36,98,0
2,36,95,9
2,31,94,0
2,36,98,0
2,36,95,8
2,31,96,0
2,36,98,0
2,36,95,11
2,31,95,0
2,36,95,0
2,36,95,5
2,29,94,1
2,29,96,1
2,36,98,2
2,29,91,0
2,29,95,12
2,33,98,2
2,34,88,2
2,34,91,1
2,36,94,0
2,29,94,0
2,29,95,9
2,36,95,0
2,29,95,0
2,29,97,1
2,36,96,2
2,29,93,0
2,29,96,1
2,33,94,0
2,34,94,0
2,34,97,1
2,36,94,0
2,29,94,0
2,29,96,1
2,36,98,0
2,29,95,0
2,29,94,1
2,29,95,1
2,31,98,1
2,36,96,4
2,36,98,1
2,29,94,0
2,29,95,12
2,29,95,24
2,31,97,0
2,36,95,1
2,31,94,0
2,36,93,0
2,36,96,1
2,31,95,0
2,36,98,0
2,36,95,1
2,31,92,0
2,36,98,0
2,36,95,9
2,31,92,0
2,36,96,0
2,36,95,1
2,36,98,1
2,37,94,0
2,37,91,1
2,32,91,0
2,37,94,0
2,37,95,9
2,32,89,0
2,30,94,0
2,30,96,1
2,37,98,2
2,30,91,0
2,30,95,12
2,34,98,2
2,35,88,2
2,35,91,1
2,37,94,0
2,30,94,0
2,30,95,9
2,37,95,0
2,30,95,0
2,30,97,1
2,37,96,2
2,30,93,0
2,30,96,1
2,34,94,0
2,35,94,0
2,35,97,1
2,37,94,0
2,30,94,0
2,30,96,1
2,37,98,0
2,30,95,0
2,30,94,1
2,30,95,1
2,32,98,1
2,37,96,4
2,37,98,1
2,30,94,0
2,30,95,12
2,30,95,24
2,32,97,0
2,37,95,1
2,32,94,0
2,37,93,0
2,37,96,1
2,32,95,0
2,37,98,0
2,37,95,1
2,32,92,0
2,37,98,0
2,37,95,9
2,32,92,0
2,37,96,0
2,37,95,1
2,37,98,1
2,35,94,0
2,35,93,9
2,30,86,5
2,30,92,10
2,30,88,13
2,35,93,0
2,35,94,13
2,30,88,5
2,30,88,6
2,35,91,4
2,35,91,9
2,35,86,9
2,30,85,0
2,30,91,12
2,35,90,8
2,35,88,9
2,35,86,8
2,30,85,0
2,30,88,12
2,35,89,3
2,35,85,14
2,35,85,11
2,30,83,0
2,30,86,9
2,35,91,9
2,35,88,4
2,35,85,17
2,30,94,0
2,30,87,10
2,35,91,7
2,35,88,7
2,35,87,11
2,30,85,0
2,30,86,11
2,35,91,35
2,35,88,7
2,35,87,11
2,30,85,0
2,30,86,11
2,30,85,35
2,30,66,11
3,65,105,675
3,65,110,28
3,65,103,27
3,65,101,33
3,65,95,24
3,65,99,25
3,65,113,3100
3,65,113,11
3,65,109,8
3,65,111,9
3,65,111,12
3,65,111,5
3,66,113,3841
3,66,113,11
3,66,109,8
3,66,111,9
3,66,111,12
3,66,111,5
3,54,109,3072
3,54,103,14
3,54,111,20
3,54,91,12
3,54,99,22
3,54,101,17
3,54,107,21
3,54,107,18
3,54,99,20
3,54,97,14
3,54,99,19
3,54,101,14
3,54,99,16
3,54,95,16
3,54,105,15
3,54,65,17
4,57,121,2189
4,60,117,0
4,65,116,0
4,65,121,14
4,67,121,4
4,65,121,0
4,57,121,42
4,60,121,47
4,65,114,0
4,65,123,14
4,67,121,1
4,65,121,0
4,65,123,96
4,65,119,10
4,65,123,12
4,65,124,12
4,69,118,5
4,65,115,0
4,67,123,0
4,65,119,2
4,62,115,0
4,60,120,0
4,57,118,227
4,60,121,0
4,65,112,0
4,65,120,19
4,67,122,0
4,65,121,0
4,57,121,40
4,60,122,0
4,65,119,0
4,65,119,27
4,67,121,0
4,65,120,0
4,65,122,71
4,65,118,10
4,65,117,12
4,65,121,13
4,69,124,5
4,65,122,0
4,67,124,2
4,65,121,0
4,62,120,0
4,60,121,1
4,62,119,82
4,65,121,0
4,69,119,0
4,65,121,199
4,65,122,27
4,62,118,0
4,67,124,4
4,60,118,33
4,60,122,4
4,62,121,32
4,65,121,0
4,69,124,0
4,72,122,0
4,74,121,3
4,77,120,0
4,65,121,40
4,65,121,28
4,69,117,0
4,67,124,5
4,60,119,20
4,60,121,5
4,62,124,46
4,60,120,2
4,58,87,0
4,60,120,0
4,63,124,45
4,62,122,0
4,60,120,0
4,58,88,0
4,60,120,0
4,63,122,82
4,62,103,8
4,60,121,0
4,58,87,0
4,60,119,0
4,60,124,161
4,72,124,1
4,69,124,238
4,67,122,0
4,65,117,0
4,57,121,19
4,60,122,46
4,65,119,0
4,65,121,21
4,67,122,0
4,65,120,0
4,69,124,102
4,69,122,15
4,69,122,18
4,67,124,0
4,65,118,0
4,65,124,15
4,67,124,0
4,69,121,0
4,65,122,55
4,65,118,9
4,65,120,12
4,65,120,11
4,69,124,7
4,65,122,95
4,67,124,0
4,65,122,3
4,62,113,5
4,60,121,0
4,55,97,189
4,57,120,2
4,60,122,47
4,65,118,0
4,65,124,13
4,67,122,0
4,65,117,1
4,69,123,95
4,69,122,15
4,69,124,20
4,67,122,4
4,65,121,0
4,65,124,25
4,67,124,0
4,69,123,0
4,65,124,52
4,65,117,11
4,65,120,12
4,65,120,11
4,69,124,2
4,65,123,95
4,67,122,0
4,65,121,2
4,62,121,0
4,60,121,0
4,60,124,101
4,65,120,1
4,69,116,0
4,65,118,195
4,65,124,16
4,62,122,0
4,67,124,0
4,60,121,21
4,60,122,7
4,60,124,36
4,65,122,0
4,69,120,0
4,72,122,3
4,74,120,0
4,77,120,0
4,65,119,41
4,65,123,9
4,69,124,0
4,67,124,1
4,60,119,19
4,60,122,3
4,62,124,48
4,60,121,1
4,58,90,0
4,60,121,0
4,63,122,139
4,62,121,0
4,60,121,0
4,58,88,0
4,60,120,0
4,63,122,138
4,62,121,0
4,60,121,2
4,58,89,0
4,60,120,0
4,60,124,188
4,72,124,1
4,69,124,11
4,72,124,2
4,73,124,1
4,58,122,297
4,61,121,47
4,66,124,0
4,66,124,16
4,68,124,0
4,66,122,0
4,70,122,100
4,70,124,12
4,70,124,19
4,68,124,4
4,66,120,0
4,66,124,7
4,68,121,0
4,70,124,0
4,66,117,63
4,66,118,12
4,66,119,12
4,66,120,12
4,70,123,6
4,66,118,0
4,68,121,0
4,66,122,0
4,63,121,2
4,61,120,0
4,58,121,251
4,61,118,47
4,66,117,0
4,66,118,25
4,63,120,1
4,63,121,30
4,66,116,0
4,70,120,81
4,70,124,15
4,70,122,15
4,68,123,5
4,66,117,0
4,66,121,15
4,68,122,0
4,70,121,0
4,66,120,58
4,66,116,11
4,66,117,11
4,66,120,13
4,70,122,9
4,66,120,0
4,68,122,5
4,66,124,2
4,63,118,2
4,61,119,0
4,70,124,94
4,68,124,0
4,70,124,0
4,66,124,162
4,66,124,28
4,63,121,1
4,68,123,0
4,61,120,19
4,61,120,4
4,63,123,34
4,66,121,0
4,70,124,0
4,73,121,0
4,75,124,0
4,78,118,49
4,66,122,36
4,66,124,31
4,63,121,0
4,68,122,0
4,61,115,20
4,61,120,1
4,63,121,59
4,61,119,0
4,64,118,197
4,63,124,0
4,61,117,0
4,59,117,0
4,61,117,0
4,63,122,133
4,63,124,15
4,61,124,2
4,61,124,236
4,73,124,4
4,66,124,236
4,66,120,12
4,66,120,10
4,66,119,12
4,66,122,12
4,68,123,0
4,70,123,7
4,70,124,32
4,68,124,0
4,66,124,1
4,66,118,244
4,66,117,12
4,66,117,11
4,66,120,12
4,70,124,6
4,66,118,4
4,66,121,36
4,66,124,38
4,68,120,0
4,70,122,0
4,66,124,358
4,66,120,12
4,66,120,10
4,66,119,12
4,66,122,12
4,68,123,0
4,70,123,7
4,70,124,33
4,68,124,95
4,66,124,1
4,66,118,244
4,66,117,12
4,66,117,11
4,66,120,12
4,70,124,6
4,66,118,4
4,66,121,36
4,66,124,38
4,68,120,0
4,70,122,0
4,66,124,358
4,66,120,12
4,66,120,10
4,66,119,12
4,66,122,12
4,68,123,0
4,70,123,7
4,70,124,32
4,68,124,0
4,66,124,1
4,66,118,244
4,66,117,12
4,66,117,11
4,66,120,12
4,70,124,6
4,66,118,4
4,66,121,36
4,66,124,38
4,68,120,0
4,70,122,0
4,66,124,358
4,66,120,12
4,66,120,10
4,66,119,12
4,66,122,12
4,68,123,0
4,70,123,7
4,70,124,32
4,68,124,0
4,66,124,1
4,66,118,244
4,66,117,12
4,66,117,11
4,66,120,12
4,70,124,6
4,66,118,4
4,66,121,36
4,66,124,38
5,70,92,3000
5,74,98,0
5,70,95,1
5,74,99,0
5,74,95,1
5,70,90,0
5,70,91,1
5,74,95,0
5,77,95,0
5,74,92,0
5,70,92,0
5,74,96,0
5,70,93,0
5,74,98,1
5,72,98,0
5,69,95,0
5,74,91,0
5,77,91,23
5,70,92,1131
5,74,98,0
5,74,99,1
5,70,95,0
5,74,95,1
5,70,90,0
5,70,91,1
5,74,95,0
5,77,95,0
5,74,92,0
5,70,92,0
5,74,96,0
5,70,93,0
5,74,98,1
5,72,98,0
5,69,95,0
5,74,91,0
5,77,91,0
5,74,98,4203
5,70,92,0
5,70,95,1
5,74,99,0
5,74,95,1
5,70,90,0
5,70,91,1
5,74,95,0
5,77,95,0
5,74,92,0
5,74,96,0
5,70,92,0
5,70,93,0
5,74,98,1
5,72,98,0
5,69,95,0
5,74,91,72
5,77,91,0
5,70,92,1131
5,74,98,0
5,70,95,1
5,74,99,0
5,70,90,1
5,74,95,0
5,70,91,1
5,74,95,0
5,77,95,0
5,74,92,0
5,70,92,0
5,74,96,0
5,70,93,0
5,74,98,1
5,72,98,0
5,69,95,0
5,74,91,72
5,77,91,0
5,65,98,363
5,69,99,0
5,70,96,1
5,65,96,0
5,72,98,1
5,69,99,0
5,65,98,643
5,69,100,0
5,65,97,0
5,70,94,0
5,72,95,1
5,65,89,0
5,74,100,691
5,67,99,0
5,72,96,0
5,74,100,315
5,67,99,0
5,72,95,1
5,67,98,309
5,74,100,1
5,67,74,0
5,72,98,0
5,58,99,4477
5,61,101,0
5,63,98,0
5,66,95,0
5,61,98,0
5,58,100,1
5,58,99,648
5,61,101,0
5,63,98,0
5,66,95,0
5,61,98,0
5,58,100,1
5,63,105,696
5,56,98,0
5,61,91,1
5,56,92,306
5,63,101,0
5,61,95,2
5,56,94,308
5,63,105,0
5,61,94,3
5,66,89,2172
5,63,87,0
5,63,82,0
5,66,85,1
5,63,81,1
5,66,85,0
5,63,82,1
5,66,85,0
5,63,88,1
5,66,89,0
5,68,88,0
5,70,90,0
5,66,85,1
5,66,88,1
5,70,88,0
5,68,84,96
5,66,84,43
5,63,84,297
5,66,88,0
5,63,82,1
5,66,85,0
5,63,81,1
5,66,84,0
5,63,80,1
5,66,84,0
5,63,89,0
5,66,90,1
5,68,88,1
5,70,88,40
5,66,83,0
5,66,85,1
5,70,84,0
5,63,85,301
5,66,89,0
5,63,83,1
5,66,85,0
5,63,82,1
5,66,85,0
5,63,81,1
5,66,85,0
5,63,88,1
5,66,89,0
5,68,89,3
5,66,84,43
5,70,90,0
5,66,88,1
5,70,89,0
5,68,84,95
5,66,82,47
5,66,85,291
5,63,85,0
5,63,82,1
5,66,85,0
5,63,79,1
5,66,82,0
5,66,84,1
5,63,81,0
5,63,85,1
5,66,87,0
5,68,88,96
5,70,87,40
5,66,80,0
5,66,83,1
5,70,83,0
5,66,84,331
5,63,82,0
5,63,81,1
5,66,82,0
5,63,81,0
5,66,85,1
5,66,83,1
5,63,81,0
5,63,86,0
5,66,87,1
5,68,86,1
5,70,89,0
5,66,82,0
