track,note,velocity,time
1,27,110,5086
1,27,104,48
1,27,110,50
1,39,104,42
1,27,110,2
1,27,110,52
1,27,104,60
1,39,104,24
1,27,110,960
1,27,100,52
1,27,104,50
1,39,104,12
1,27,104,36
1,39,104,2
1,27,110,26
1,27,91,24
1,27,110,348
1,27,104,48
1,27,110,50
1,39,104,42
1,27,110,2
1,27,110,52
1,27,104,60
1,39,104,24
1,27,110,960
1,27,100,52
1,27,104,50
1,39,104,12
1,27,104,36
1,39,104,2
1,27,110,26
1,27,91,24
1,27,110,348
1,27,104,48
1,27,110,50
1,39,104,42
1,27,110,2
1,27,110,52
1,27,104,60
1,39,104,24
2,27,127,5086
2,27,110,2
2,27,80,2
2,27,110,2
2,27,100,2
2,27,100,2
2,27,104,2
2,27,87,2
2,27,104,2
2,27,104,2
2,27,95,2
2,27,100,2
2,27,104,2
2,27,110,2
2,27,110,2
2,27,104,2
2,27,104,2
2,27,100,2
2,27,127,72
2,27,110,2
2,27,80,2
2,27,110,2
2,27,100,2
2,27,100,2
2,27,104,2
2,27,87,2
2,27,104,2
2,27,104,2
2,27,95,2
2,27,100,2
2,27,104,2
2,27,110,2
2,27,110,2
2,27,104,2
2,27,104,2
2,27,100,2
2,27,127,72
2,27,110,2
2,27,80,2
2,27,110,2
2,27,100,2
2,27,100,2
2,27,104,2
2,27,87,2
2,27,104,2
2,29,97,1538
2,27,127,12270
2,27,127,2
2,27,127,2
2,27,127,2
2,27,127,2
2,27,127,2
2,27,127,2
2,27,127,2
2,27,127,2
2,39,110,2
2,34,91,2
2,39,104,2
2,27,127,2
2,39,104,2
2,34,83,2
2,39,95,2
2,27,127,2
2,39,95,2
2,34,76,2
2,39,95,2
2,27,110,2
2,39,104,2
2,43,127,2
2,46,127,2
2,27,127,2
2,39,110,2
2,34,91,2
2,39,104,2
2,27,127,2
2,39,104,2
2,34,83,2
2,39,95,2
2,27,127,2
2,39,95,2
2,34,76,2
2,39,95,2
2,27,110,2
2,39,104,2
2,34,83,2
2,39,110,2
2,29,97,1538
2,39,104,2
2,39,104,78
2,38,127,56
2,38,127,48
2,36,127,54
2,36,127,38
2,34,110,50
2,34,110,72
2,39,104,2
2,39,110,72
2,38,122,38
2,38,127,48
2,41,122,34
2,41,101,44
2,34,110,14
2,34,127,52
2,39,104,26
2,39,104,78
2,38,127,56
2,38,127,48
2,36,127,54
2,36,127,38
2,34,110,50
2,34,110,72
2,46,119,2
2,37,125,2
2,37,125,2
2,37,115,2
2,37,115,2
2,49,119,2
2,36,116,2
2,36,103,2
2,36,119,2
2,36,127,2
2,48,127,2
2,46,115,2
2,34,127,2
2,34,115,2
2,34,119,2
2,46,119,2
2,44,119,2
2,32,125,2
2,32,119,2
2,32,125,2
2,32,119,2
2,32,119,2
2,37,119,2
2,37,110,2
2,37,119,2
2,37,110,2
2,49,119,2
2,36,119,2
2,36,116,2
2,36,127,2
2,36,127,2
2,48,127,2
2,34,125,2
2,34,115,2
2,34,125,2
2,34,119,2
2,46,125,2
2,32,127,2
2,32,125,2
2,32,119,2
2,32,125,2
2,39,104,372
2,39,104,78
2,38,127,56
2,38,127,48
2,36,127,54
2,36,127,38
2,34,110,50
2,34,110,72
2,39,104,2
2,39,110,72
2,38,122,38
2,38,127,48
2,41,122,34
2,41,101,44
2,34,110,14
2,34,127,52
2,39,104,26
2,39,104,78
2,38,127,56
2,38,127,48
2,36,127,54
2,36,127,38
2,34,110,50
2,34,110,72
2,39,104,6142
2,39,104,78
2,38,127,56
2,38,127,48
2,36,127,54
2,36,127,38
2,34,110,50
2,34,110,72
2,39,104,2
2,39,104,78
2,38,127,56
2,38,127,48
2,36,127,54
2,36,127,38
2,34,110,50
2,34,110,72
2,39,104,2
2,39,110,72
2,38,122,38
2,38,127,48
2,41,122,34
2,41,101,44
2,34,110,14
2,34,127,52
2,27,127,26
2,27,110,2
2,27,80,2
2,27,110,2
2,27,100,2
2,27,100,2
2,27,104,2
2,27,87,2
2,27,104,2
2,27,104,2
2,27,95,2
2,27,100,2
2,27,104,2
2,27,110,2
2,27,110,2
2,27,104,2
2,27,104,2
2,27,100,2
2,39,80,72
3,53,113,78622
3,51,104,2
3,53,113,31414
3,51,104,2
3,53,113,11446
3,51,104,2
3,55,127,38
3,53,122,2
3,55,127,38
3,53,122,2
3,53,127,2
3,51,95,20
3,55,127,2128
3,55,127,6
3,53,127,12
3,53,127,12
3,51,104,30
4,75,105,17760
4,74,103,20
4,75,105,2
4,72,104,16
4,70,102,2
4,63,102,2
4,63,103,46
4,62,107,10
4,65,105,16
4,63,105,42
4,58,103,28
4,58,105,90
4,63,105,1502
4,62,104,34
4,63,103,44
4,63,103,58
4,72,106,2
4,70,103,18
4,63,103,18
4,62,102,2
4,58,105,18
4,60,106,52
4,60,105,74
4,55,103,76
4,55,105,110
4,75,107,96
4,74,103,2
4,75,100,2
4,72,106,2
4,70,104,2
4,63,103,2
4,62,102,2
4,58,102,2
4,60,107,2
4,58,102,2
4,70,103,14
4,63,99,538
4,65,105,146
4,63,96,2
4,65,97,2
4,63,101,20
4,65,103,2
4,67,102,16
4,65,108,6
4,67,107,24
4,63,106,740
4,63,106,54
4,65,101,2
4,67,102,2
4,65,108,2
4,65,105,60
4,65,107,70
4,63,104,8
4,65,99,8
4,67,101,2
4,65,104,6
4,67,103,6
4,63,99,1044
4,63,101,82
4,65,99,2
4,67,99,2
4,65,99,2
4,65,103,38
4,65,99,66
4,65,99,64
4,63,96,2
4,63,105,80
4,70,110,6568
4,67,105,12
4,67,104,32
4,63,104,42
4,60,110,130
4,58,106,8
4,58,110,384
4,60,110,30
4,58,105,34
4,55,109,30
4,55,110,158
4,58,109,1536
4,58,110,42
4,58,105,388
4,58,110,70
4,58,105,404
4,58,106,84
4,72,110,402
4,70,110,2
4,63,104,88
4,63,110,134
4,58,110,150
4,67,110,464
4,65,109,2
4,63,104,2
4,63,110,100
4,65,109,130
4,63,101,2
4,65,101,2
4,63,110,2444
4,65,110,2
4,67,110,2
4,65,110,2
4,67,110,2
4,63,110,798
4,65,110,2
4,67,110,6
4,65,110,2
4,65,110,46
4,65,110,44
4,63,110,830
4,65,110,2
4,67,110,2
4,65,110,2
4,67,110,2
4,63,104,692
4,63,106,56
4,65,107,12
4,67,107,2
4,72,110,2
4,70,105,2
4,70,105,106
4,65,101,2
4,65,107,88
4,67,110,2
4,63,110,38
4,65,109,40
4,67,110,10
4,65,110,14
4,67,110,12
4,63,106,876
4,63,106,2
4,65,106,4
4,67,110,2
4,72,110,2
4,70,106,26
4,65,110,14
4,65,110,56
4,70,110,14340
4,68,110,2
4,67,110,2
4,65,110,8
4,67,110,2
4,63,110,834
4,63,110,12
4,65,110,34
4,67,110,6
4,65,110,12
4,65,110,56
4,65,110,48
4,63,110,34
4,65,107,20
4,67,110,14
4,65,110,22
4,67,110,20
4,63,110,1022
4,63,110,18
4,65,109,46
4,67,110,38
4,72,110,10
4,70,106,28
4,70,106,100
4,65,109,2
4,65,110,156
4,67,110,16
4,63,110,32
4,65,110,10
4,67,109,18
4,65,110,14
4,67,110,2
4,63,105,948
4,63,106,52
4,65,104,14
4,67,109,2
4,65,108,24
4,65,110,54
4,65,110,44
4,65,109,44
4,63,110,26
4,63,110,46
4,63,110,2
4,65,110,402
4,65,110,108
4,63,102,66
4,63,106,60
4,63,110,34
4,65,107,20
4,67,110,14
4,65,110,22
4,67,110,20
4,63,110,1022
4,63,110,18
4,65,109,46
4,67,110,38
4,72,110,10
4,70,106,28
4,70,106,100
4,65,109,2
4,65,110,156
4,67,110,16
4,63,110,2
4,65,110,1828
4,65,110,124
4,63,107,72
4,63,107,54
5,58,99,0
5,63,83,0
5,65,59,0
5,74,99,0
5,77,99,0
5,78,55,0
5,82,99,0
5,87,75,0
5,39,49,35334
5,63,51,0
5,38,76,6
5,62,54,2
5,36,81,2
5,63,49,22
5,34,64,2
5,62,52,12
5,39,58,2
5,63,34,6
5,38,81,2
5,62,51,2
5,63,45,722
5,41,76,2
5,34,64,2
5,62,49,4
5,67,66,62
5,70,42,18
5,65,57,2
5,68,60,2
5,65,54,2
5,67,64,2
5,65,66,2
5,68,60,2
5,65,62,2
5,67,64,16
5,65,66,2
5,68,60,2
5,65,62,2
5,39,49,4624
5,63,51,0
5,38,76,6
5,62,54,2
5,36,81,2
5,63,49,22
5,34,64,2
5,62,52,12
5,39,58,2
5,63,34,6
5,38,81,2
5,62,51,2
5,63,45,722
5,41,76,2
5,34,64,2
5,62,49,4
5,39,49,62
5,63,51,0
5,38,76,32
5,62,54,26
5,36,81,12
5,63,49,0
5,34,64,1498
5,62,52,16
5,67,103,8
5,68,103,2
5,70,103,2
5,72,103,2
5,73,103,2
5,75,103,2
5,78,103,2
5,80,103,2
5,82,103,2
5,84,103,2
5,85,103,2
5,87,103,2
5,91,103,2
5,92,100,2
5,94,103,768
5,96,103,750
5,97,103,2
5,99,103,768
5,39,49,76
5,63,51,0
5,38,76,6
5,62,54,2
5,36,81,2
5,63,49,22
5,34,64,2
5,62,52,12
5,39,58,2
5,63,34,6
5,38,81,2
5,62,51,2
5,63,45,722
5,41,76,2
5,34,64,2
5,62,49,4
5,39,49,62
5,63,51,0
5,38,76,32
5,62,54,26
5,36,81,12
5,63,49,0
5,34,64,1498
5,62,52,16
5,39,49,6140
5,63,51,0
5,87,100,0
5,38,76,0
5,89,77,14
5,62,54,2
5,86,71,2
5,36,81,2
5,63,49,22
5,87,91,2
5,92,91,2
5,91,91,2
5,34,64,0
5,89,75,2
5,62,52,0
5,86,81,6
5,39,58,2
5,63,34,6
5,39,49,8
5,63,51,0
5,87,100,0
5,38,76,0
5,89,77,14
5,62,54,2
5,86,71,2
5,36,81,2
5,63,49,22
5,87,91,2
5,92,91,2
5,91,91,2
5,34,64,0
5,89,75,2
5,62,52,0
5,86,81,6
5,39,58,2
5,63,34,6
5,38,81,2
5,62,51,2
5,63,45,722
5,41,76,2
5,34,64,2
5,62,49,4
5,39,51,12350
5,55,70,0
5,63,46,0
6,63,100,2
6,67,88,34
6,70,64,18
6,65,79,2
6,68,82,2
6,65,76,2
6,67,86,2
6,65,88,2
6,68,82,2
6,65,84,2
6,67,76,16
6,70,64,18
6,65,71,2
6,68,73,2
6,65,70,2
6,67,75,2
6,65,76,2
6,68,73,2
6,65,74,2
6,67,76,16
6,70,64,18
6,65,71,2
6,68,73,2
6,65,70,2
6,48,88,2
6,70,87,0
6,75,65,0
6,50,88,18
6,69,86,0
6,53,81,480
6,72,77,0
6,77,67,10
6,41,86,126
6,39,71,44
6,63,73,0
6,38,98,6
6,62,76,2
6,36,103,2
6,63,71,22
6,34,86,2
6,62,74,12
6,39,80,2
6,63,56,6
6,38,103,2
6,62,73,2
6,63,67,722
6,41,98,2
6,34,86,2
6,62,71,4
6,67,88,62
6,70,64,18
6,65,79,2
6,68,82,2
6,65,76,2
6,67,86,2
6,65,88,2
6,68,82,2
6,65,84,2
6,67,86,16
6,65,88,2
6,68,82,2
6,65,84,2
6,48,88,16
6,70,87,0
6,75,65,0
6,50,88,18
6,69,86,0
6,53,81,480
6,72,77,0
6,77,67,10
6,41,86,126
6,39,71,44
6,63,73,0
6,38,98,6
6,62,76,2
6,36,103,2
6,63,71,22
6,34,86,2
6,62,74,12
6,39,80,2
6,63,56,6
6,38,103,2
6,62,73,2
6,63,67,722
6,41,98,2
6,34,86,2
6,62,71,4
6,39,71,62
6,63,73,0
6,38,98,32
6,62,76,26
6,36,103,12
6,63,71,0
6,34,86,1498
6,62,74,16
6,58,66,764
6,56,84,20
6,68,84,768
6,72,71,384
6,73,73,38
6,72,90,1152
6,73,72,362
6,72,89,2658
6,73,71,20
6,72,89,2688
6,73,74,366
6,75,78,2290
6,39,71,6
6,63,73,0
6,38,98,6
6,62,76,2
6,36,103,2
6,63,71,22
6,34,86,2
6,62,74,12
6,39,80,2
6,63,56,6
6,38,103,2
6,62,73,2
6,63,67,722
6,41,98,2
6,34,86,2
6,62,71,4
6,39,71,62
6,63,73,0
6,38,98,32
6,62,76,26
6,36,103,12
6,63,71,0
6,34,86,1498
6,62,74,16
6,39,71,6140
6,63,73,0
6,38,98,6
6,62,76,2
6,36,103,2
6,63,71,22
6,34,86,2
6,62,74,12
6,39,80,2
6,63,56,6
6,39,71,8
6,63,73,0
6,38,98,6
6,62,76,2
6,36,103,2
6,63,71,22
6,34,86,2
6,62,74,12
6,39,80,2
6,63,56,6
6,67,76,3834
6,70,64,18
6,65,71,2
6,68,73,2
6,65,70,2
6,67,75,2
6,65,76,2
6,68,73,2
6,65,74,2
6,39,29,16
6,51,40,0
7,67,127,4702
7,68,104,96
7,70,100,0
7,72,127,96
7,70,104,88
7,70,127,174
7,70,127,168
7,67,127,2298
7,68,80,2
7,70,76,2
7,72,91,2
7,70,104,2
7,70,127,160
7,70,127,162
7,67,127,2276
7,68,83,2
7,70,76,2
7,72,91,2
7,70,110,2
7,70,127,166
7,70,127,162
7,67,127,2264
7,68,83,2
7,70,80,2
7,72,83,2
7,70,110,2
7,70,110,180
7,70,110,180
7,67,127,2290
7,68,83,2
7,70,73,2
7,72,101,4
7,70,84,66
7,70,95,176
7,70,95,168
7,67,95,2298
7,68,72,2
7,70,70,2
7,72,77,2
7,70,84,2
7,70,95,160
7,70,95,162
7,67,95,2276
7,68,73,2
7,70,70,2
7,72,77,2
7,70,87,2
7,70,95,166
7,70,95,162
7,67,95,2264
7,68,73,2
7,70,72,2
7,72,73,2
7,70,87,2
7,70,87,180
7,70,87,180
7,67,95,2290
7,68,73,2
7,70,68,2
7,72,82,4
7,70,84,66
7,70,95,176
7,70,95,168
7,67,95,2298
7,68,72,2
7,70,70,2
7,72,77,2
7,70,84,2
7,70,95,160
7,70,95,162
7,70,95,23010
7,67,95,2276
7,68,73,2
7,70,70,2
7,72,77,2
7,70,87,2
7,70,95,166
7,70,95,162
7,67,95,2264
7,68,73,2
7,70,72,2
7,72,73,2
7,70,87,2
7,70,87,180
7,70,87,180
7,67,95,2290
7,68,73,2
7,70,68,2
7,72,82,4
7,70,95,258
7,70,95,162
7,67,95,2264
7,68,73,2
7,70,72,2
7,72,73,2
7,70,87,2
7,70,87,180
7,70,87,180
7,67,95,2290
7,68,73,2
7,70,68,2
7,72,82,4
7,67,102,16962
7,70,102,0
7,65,91,12
7,63,95,16
7,70,100,0
7,65,91,0
7,67,108,13860
7,70,108,0
7,65,82,32
7,63,81,46
7,70,85,0
7,65,75,1536
7,67,108,38
7,70,91,0
7,65,60,6
7,63,46,98
7,68,68,0
7,65,75,22
7,70,76,0
7,67,112,18
7,70,112,0
7,65,86,32
7,63,85,46
7,70,89,0
7,65,79,1536
7,67,112,1158
7,68,80,14
7,70,72,12
7,72,112,0
7,70,127,38
7,70,127,152
7,70,127,162
7,67,127,20
7,68,95,78
7,70,87,12
7,72,86,16
7,70,110,38
7,70,104,148
7,70,127,142
7,67,127,2668
7,70,127,0
7,65,101,32
7,67,127,1160
7,68,95,16
7,70,83,20
7,72,117,10
7,63,100,46
7,70,104,0
7,70,104,2
7,70,110,150
7,70,127,146
7,65,94,1096
7,67,127,28
7,68,91,26
7,70,76,14
7,72,117,4
7,67,109,38
7,70,109,0
7,65,83,32
7,67,109,1160
7,68,77,16
7,70,65,20
7,72,99,10
7,63,82,46
7,70,86,0
7,70,86,2
7,70,92,150
7,70,109,146
7,65,76,1096
7,67,109,28
7,68,73,26
7,70,58,14
7,72,99,4
7,67,107,38
7,70,90,0
7,65,59,6
7,70,84,3170
7,70,95,176
7,70,95,168
7,67,95,2298
7,68,72,2
7,70,70,2
7,72,77,2
7,70,84,2
7,70,95,160
7,70,95,162
7,67,95,2276
7,68,73,2
7,70,70,2
7,72,77,2
7,70,87,2
7,70,95,166
7,70,95,162
7,67,95,2264
7,68,73,2
7,70,72,2
7,72,73,2
7,70,87,2
7,70,87,180
7,70,87,180
8,72,127,6224
8,70,87,2
8,72,127,2786
8,70,87,2
8,72,127,2848
8,70,87,2
8,72,127,2792
8,70,83,2
8,72,127,2816
8,70,87,2
