track,note,velocity,time
0,74,110,64
0,78,110,0
0,81,110,0
0,62,114,0
0,66,114,0
0,69,114,0
0,62,87,0
0,66,87,0
0,69,87,0
0,76,110,32
0,80,110,0
0,83,110,0
0,64,113,0
0,68,113,0
0,71,113,0
0,64,87,0
0,68,87,0
0,71,87,0
0,76,107,16
0,80,107,0
0,83,107,0
0,64,113,0
0,68,113,0
0,71,113,0
0,64,84,0
0,68,84,0
0,71,84,0
0,76,110,56
0,80,110,0
0,83,110,0
0,64,114,0
0,68,114,0
0,71,114,0
0,64,87,0
0,68,87,0
0,71,87,0
0,76,110,68
0,80,110,0
0,83,110,0
0,64,114,0
0,68,114,0
0,71,114,0
0,64,87,0
0,68,87,0
0,71,87,0
0,74,110,11
0,78,110,0
0,81,110,0
0,62,114,0
0,66,114,0
0,69,114,0
0,62,87,0
0,66,87,0
0,69,87,0
0,74,110,67
0,78,110,0
0,81,110,0
0,62,114,0
0,66,114,0
0,69,114,0
0,62,87,0
0,66,87,0
0,69,87,0
0,74,110,68
0,78,110,0
0,81,110,0
0,62,114,0
0,66,114,0
0,69,114,0
0,62,87,0
0,66,87,0
0,69,87,0
0,74,110,70
0,78,110,0
0,81,110,0
0,62,114,0
0,66,114,0
0,69,114,0
0,62,87,0
0,66,87,0
0,69,87,0
0,72,110,8
0,76,110,0
0,79,110,0
0,60,114,0
0,64,114,0
0,67,114,0
0,60,87,0
0,64,87,0
0,67,87,0
0,72,110,69
0,76,110,0
0,79,110,0
0,60,114,0
0,64,114,0
0,67,114,0
0,60,87,0
0,64,87,0
0,67,87,0
0,72,110,70
0,76,110,0
0,79,110,0
0,60,114,0
0,64,114,0
0,67,114,0
0,60,87,0
0,64,87,0
0,67,87,0
0,71,110,64
0,74,110,0
0,83,110,0
0,59,114,0
0,62,114,0
0,71,114,0
0,59,87,0
0,62,87,0
0,71,87,0
0,71,110,12
0,74,110,0
0,83,110,0
0,59,114,0
0,62,114,0
0,71,114,0
0,59,87,0
0,62,87,0
0,71,87,0
0,71,110,65
0,74,110,0
0,83,110,0
0,59,114,0
0,62,114,0
0,71,114,0
0,59,87,0
0,62,87,0
0,71,87,0
0,71,110,70
0,74,110,0
0,83,110,0
0,59,114,0
0,62,114,0
0,71,114,0
0,59,87,0
0,62,87,0
0,71,87,0
0,73,110,67
0,76,110,0
0,81,110,0
0,61,114,0
0,64,114,0
0,69,114,0
0,61,87,0
0,64,87,0
0,69,87,0
0,73,110,50
0,76,110,0
0,81,110,0
0,61,114,0
0,64,114,0
0,69,114,0
0,61,87,0
0,64,87,0
0,69,87,0
0,73,110,64
0,76,110,0
0,81,110,0
0,61,114,0
0,64,114,0
0,69,114,0
0,61,87,0
0,64,87,0
0,69,87,0
0,74,110,405
0,78,110,0
0,81,110,0
0,62,114,0
0,66,114,0
0,69,114,0
0,62,87,0
0,66,87,0
0,69,87,0
0,76,110,32
0,80,110,0
0,83,110,0
0,64,113,0
0,68,113,0
0,71,113,0
0,64,87,0
0,68,87,0
0,71,87,0
0,76,107,16
0,80,107,0
0,83,107,0
0,64,113,0
0,68,113,0
0,71,113,0
0,64,84,0
0,68,84,0
0,71,84,0
0,76,110,56
0,80,110,0
0,83,110,0
0,64,114,0
0,68,114,0
0,71,114,0
0,64,87,0
0,68,87,0
0,71,87,0
0,76,110,68
0,80,110,0
0,83,110,0
0,64,114,0
0,68,114,0
0,71,114,0
0,64,87,0
0,68,87,0
0,71,87,0
0,74,110,11
0,78,110,0
0,81,110,0
0,62,114,0
0,66,114,0
0,69,114,0
0,62,87,0
0,66,87,0
0,69,87,0
0,74,110,67
0,78,110,0
0,81,110,0
0,62,114,0
0,66,114,0
0,69,114,0
0,62,87,0
0,66,87,0
0,69,87,0
0,74,110,68
0,78,110,0
0,81,110,0
0,62,114,0
0,66,114,0
0,69,114,0
0,62,87,0
0,66,87,0
0,69,87,0
0,74,110,70
0,78,110,0
0,81,110,0
0,62,114,0
0,66,114,0
0,69,114,0
0,62,87,0
0,66,87,0
0,69,87,0
0,72,110,8
0,76,110,0
0,79,110,0
0,60,114,0
0,64,114,0
0,67,114,0
0,60,87,0
0,64,87,0
0,67,87,0
0,72,110,69
0,76,110,0
0,79,110,0
0,60,114,0
0,64,114,0
0,67,114,0
0,60,87,0
0,64,87,0
0,67,87,0
0,72,110,70
0,76,110,0
0,79,110,0
0,60,114,0
0,64,114,0
0,67,114,0
0,60,87,0
0,64,87,0
0,67,87,0
0,71,110,64
0,74,110,0
0,83,110,0
0,59,114,0
0,62,114,0
0,71,114,0
0,59,87,0
0,62,87,0
0,71,87,0
0,71,110,12
0,74,110,0
0,83,110,0
0,59,114,0
0,62,114,0
0,71,114,0
0,59,87,0
0,62,87,0
0,71,87,0
0,71,110,65
0,74,110,0
0,83,110,0
0,59,114,0
0,62,114,0
0,71,114,0
0,59,87,0
0,62,87,0
0,71,87,0
0,71,110,70
0,74,110,0
0,83,110,0
0,59,114,0
0,62,114,0
0,71,114,0
0,59,87,0
0,62,87,0
0,71,87,0
0,73,110,67
0,76,110,0
0,81,110,0
0,61,114,0
0,64,114,0
0,69,114,0
0,61,87,0
0,64,87,0
0,69,87,0
0,73,110,50
0,76,110,0
0,81,110,0
0,61,114,0
0,64,114,0
0,69,114,0
0,61,87,0
0,64,87,0
0,69,87,0
0,73,110,64
0,76,110,0
0,81,110,0
0,61,114,0
0,64,114,0
0,69,114,0
0,61,87,0
0,64,87,0
0,69,87,0
0,60,79,3
0,72,95,1
0,69,87,2
0,72,79,8
0,60,81,5
0,69,85,13
0,72,95,1
0,60,81,3
0,69,95,10
0,72,109,0
0,60,100,1
0,70,96,9
0,74,89,1
0,62,107,3
0,69,64,1
0,72,80,0
0,60,87,1
0,65,90,17
0,77,99,6
0,72,99,50
0,76,96,0
0,64,99,1
0,72,86,63
0,69,92,2
0,60,84,1
0,65,76,10
0,60,70,51
0,53,82,2
0,72,89,17
0,69,74,2
0,60,73,4
0,60,90,17
0,72,109,16
0,69,98,0
0,60,100,2
0,69,107,14
0,60,103,0
0,72,109,0
0,70,102,6
0,62,99,1
0,74,99,0
0,60,92,7
0,69,103,1
0,67,84,9
0,55,69,2
0,53,93,55
0,65,103,1
0,57,103,40
0,69,109,0
0,65,87,93
0,62,107,46
0,57,103,47
0,60,82,5
0,69,65,0
0,72,87,0
0,62,81,4
0,70,67,0
0,74,72,0
0,60,84,9
0,69,63,0
0,72,90,0
0,60,103,12
0,69,86,0
0,72,105,0
0,62,93,0
0,70,80,0
0,74,80,0
0,60,87,2
0,69,81,0
0,72,63,0
0,65,90,18
0,72,89,0
0,77,93,0
0,64,100,36
0,72,76,0
0,74,69,0
0,76,75,0
0,67,86,61
0,76,81,0
0,79,74,0
0,65,100,50
0,74,84,0
0,77,95,0
0,79,82,66
0,82,88,0
0,65,92,21
0,72,79,4
0,79,95,3
0,65,73,38
0,72,67,12
0,79,90,48
0,65,81,44
0,72,70,17
0,79,81,3
0,65,93,45
0,72,73,4
0,81,99,4
0,65,95,27
0,79,98,48
0,65,89,36
0,29,91,8
0,53,99,0
0,60,99,0
0,66,98,0
0,35,127,0
0,65,126,1
0,69,125,16
0,65,127,39
0,44,100,0
0,60,68,1
0,65,86,0
0,69,89,0
0,67,127,3
0,44,63,0
0,67,120,2
0,60,86,26
0,65,92,0
0,69,95,0
0,65,127,47
0,60,103,1
0,44,104,0
0,65,127,16
0,60,66,0
0,65,92,0
0,69,93,0
0,62,109,11
0,53,116,3
0,67,118,8
0,29,91,5
0,35,127,0
0,70,125,8
0,67,127,8
0,65,127,11
0,44,65,0
0,62,84,1
0,67,76,0
0,70,82,0
0,44,74,48
0,62,99,31
0,67,98,0
0,70,104,0
0,62,118,5
0,44,84,0
0,62,68,19
0,67,85,0
0,70,82,0
0,53,116,16
0,64,107,1
0,69,109,16
0,29,91,3
0,65,127,0
0,35,126,0
0,44,76,0
0,72,95,5
0,67,127,2
0,44,81,0
0,65,127,3
0,64,75,1
0,69,87,0
0,72,80,0
0,64,86,2
0,44,65,0
0,62,122,9
0,64,109,11
0,69,118,0
0,72,109,0
0,62,127,2
0,64,116,1
0,44,78,0
0,60,127,3
0,69,81,4
0,72,82,0
0,53,96,15
0,62,90,2
0,67,100,4
0,29,91,6
0,35,126,0
0,44,94,0
0,70,120,13
0,44,68,0
0,62,86,1
0,67,90,0
0,70,81,0
0,62,89,5
0,44,61,0
0,62,96,32
0,67,113,0
0,70,100,0
0,62,113,9
0,44,82,0
0,62,51,16
0,67,81,0
0,70,88,0
0,53,103,5
0,60,95,18
0,65,113,6
0,65,127,4
0,29,91,2
0,35,125,0
0,44,98,0
0,69,103,1
0,65,127,0
0,44,74,0
0,67,127,46
0,60,62,1
0,65,89,0
0,69,86,0
0,44,81,22
0,65,127,1
0,60,92,27
0,65,99,0
0,69,100,0
0,67,127,4
0,60,109,8
0,44,85,0
0,65,127,8
0,65,90,5
0,69,87,0
0,53,100,13
0,62,89,3
0,67,116,2
0,29,91,9
0,35,125,0
0,44,100,0
0,70,114,4
0,67,127,4
0,44,65,0
0,65,127,0
0,62,51,1
0,67,39,0
0,70,57,0
0,62,96,1
0,44,66,0
0,62,86,30
0,67,92,0
0,70,90,0
0,62,105,2
0,44,86,0
0,62,98,13
0,67,109,0
0,70,102,0
0,53,89,6
0,64,92,9
0,69,113,12
0,72,111,7
0,29,91,1
0,35,127,0
0,44,98,0
0,44,70,0
0,64,93,1
0,69,98,0
0,72,95,0
0,62,127,3
0,44,81,5
0,65,127,0
0,62,111,7
0,64,86,4
0,69,95,0
0,72,93,0
0,65,127,7
0,64,71,3
0,44,72,0
0,64,96,6
0,69,107,0
0,72,105,0
0,53,105,5
0,62,92,11
0,67,103,10
0,67,127,1
0,29,91,5
0,35,127,0
0,44,102,0
0,70,108,2
0,44,65,0
0,62,70,1
0,67,74,0
0,70,73,0
0,62,93,16
0,44,73,0
0,62,96,1
0,67,111,0
0,70,104,0
0,62,103,7
0,44,82,0
0,65,123,2
0,62,69,22
0,67,79,0
0,70,82,0
0,62,109,1
0,29,91,23
0,53,99,0
0,60,99,0
0,66,98,0
0,35,127,0
0,65,126,1
0,65,127,10
0,69,125,6
0,44,100,0
0,62,101,3
0,60,68,1
0,65,86,0
0,69,89,0
0,60,119,3
0,44,63,0
0,60,86,26
0,65,92,0
0,69,95,0
0,57,122,3
0,60,103,1
0,44,104,0
0,60,66,16
0,65,92,0
0,69,93,0
0,62,109,11
0,53,116,3
0,67,118,1
0,29,91,5
0,35,127,0
0,70,125,4
0,44,65,0
0,62,84,1
0,67,76,0
0,70,82,0
0,44,74,48
0,62,99,31
0,67,98,0
0,70,104,0
0,62,118,5
0,44,84,0
0,62,68,19
0,67,85,0
0,70,82,0
0,53,116,16
0,64,107,1
0,69,109,16
0,29,91,3
0,35,126,0
0,44,76,0
0,72,95,5
0,44,81,0
0,64,75,1
0,69,87,0
0,72,80,0
0,64,86,2
0,44,65,0
0,64,109,28
0,69,118,0
0,72,109,0
0,64,116,3
0,44,78,0
0,69,81,8
0,72,82,0
0,53,96,15
0,62,90,2
0,67,100,4
0,29,91,6
0,35,126,0
0,44,94,0
0,70,120,13
0,44,68,0
0,62,86,1
0,67,90,0
0,70,81,0
0,62,89,5
0,44,61,0
0,62,96,32
0,67,113,0
0,70,100,0
0,62,113,10
0,44,82,0
0,62,51,16
0,67,81,0
0,70,88,0
0,53,103,5
0,60,95,18
0,65,113,6
0,29,91,1
0,53,99,0
0,60,99,0
0,66,98,0
0,35,127,0
0,65,126,1
0,60,107,3
0,65,107,2
0,69,107,0
0,69,125,11
0,44,100,0
0,67,107,0
0,62,107,2
0,70,107,1
0,60,107,3
0,65,107,1
0,60,68,1
0,65,86,0
0,69,89,0
0,69,107,1
0,44,63,0
0,62,107,2
0,67,107,1
0,70,107,1
0,60,86,4
0,65,92,0
0,69,95,0
0,60,107,1
0,65,107,0
0,69,107,2
0,60,103,1
0,44,104,0
0,60,66,16
0,65,92,0
0,69,93,0
0,62,109,16
0,53,116,3
0,62,107,2
0,67,107,2
0,70,107,0
0,67,118,0
0,29,91,5
0,35,127,0
0,70,125,8
0,60,107,2
0,65,107,3
0,69,107,1
0,44,65,0
0,62,107,2
0,67,107,2
0,70,107,0
0,62,84,1
0,67,76,0
0,70,82,0
0,60,107,1
0,65,107,1
0,69,107,0
0,44,74,5
0,62,99,31
0,67,98,0
0,70,104,0
0,62,107,0
0,67,107,1
0,70,107,0
0,62,118,3
0,44,84,0
0,60,107,5
0,65,107,0
0,62,68,1
0,67,85,0
0,70,82,0
0,69,107,0
0,53,116,16
0,64,107,1
0,69,109,16
0,29,91,3
0,35,126,0
0,44,76,0
0,72,95,5
0,62,107,1
0,70,107,2
0,67,107,1
0,60,107,4
0,65,107,0
0,69,107,0
0,44,81,0
0,64,75,1
0,69,87,0
0,72,80,0
0,64,86,2
0,44,65,0
0,64,109,28
0,69,118,0
0,72,109,0
0,65,107,2
0,64,116,1
0,44,78,0
0,60,107,0
0,69,107,1
0,69,81,8
0,72,82,0
0,29,91,2
0,58,114,0
0,62,96,0
0,35,126,0
0,44,94,0
0,70,107,1
0,65,107,1
0,65,105,0
0,62,107,0
0,70,96,12
0,65,99,1
0,70,90,0
0,62,107,40
0,65,107,0
0,70,107,1
0,58,78,0
0,62,55,0
0,44,68,0
0,65,77,4
0,70,81,0
0,58,72,48
0,62,59,0
0,44,61,0
0,65,70,13
0,70,84,0
0,58,81,48
0,62,62,0
0,44,82,0
0,65,62,10
0,70,81,0
0,58,108,2
0,62,99,5
0,65,113,11
0,29,91,5
0,35,127,0
0,70,104,7
0,65,82,1
0,70,78,0
0,58,62,0
0,62,62,0
0,44,100,0
0,65,77,14
0,70,77,0
0,58,59,3
0,62,50,0
0,44,63,0
0,65,92,14
0,70,76,0
0,58,68,3
0,62,60,0
0,44,104,0
0,65,87,3
0,70,67,0
0,58,120,11
0,62,99,5
0,65,113,8
0,29,91,13
0,35,127,0
0,70,117,0
0,65,96,1
0,70,86,0
0,70,127,35
0,58,73,0
0,62,74,0
0,44,65,0
0,65,79,14
0,70,67,0
0,58,74,48
0,62,75,0
0,44,74,0
0,72,127,2
0,65,92,10
0,70,77,0
0,58,92,48
0,62,90,0
0,44,84,0
0,65,98,10
0,70,85,0
0,58,117,1
0,62,87,4
0,65,100,17
0,69,127,5
0,70,94,1
0,29,91,1
0,35,126,0
0,44,76,0
0,65,79,1
0,70,63,0
0,58,82,0
0,62,80,0
0,44,81,0
0,67,127,7
0,65,99,2
0,70,98,0
0,58,81,43
0,62,85,0
0,44,65,0
0,65,127,2
0,65,51,3
0,70,76,0
0,58,90,7
0,62,66,0
0,44,78,0
0,65,74,19
0,70,80,0
0,29,91,11
0,53,99,0
0,60,99,0
0,66,98,0
0,35,127,0
0,65,126,1
0,69,125,16
0,65,127,37
0,44,100,0
0,60,68,0
0,65,86,0
0,69,89,0
0,67,127,3
0,44,63,0
0,65,127,2
0,60,86,26
0,65,92,0
0,69,95,0
0,67,125,1
0,60,103,1
0,44,104,0
0,60,66,16
0,65,92,0
0,69,93,0
0,67,127,0
0,62,109,11
0,53,116,3
0,67,118,8
0,29,91,5
0,35,127,0
0,70,125,8
0,65,127,35
0,67,127,6
0,44,65,0
0,62,84,1
0,67,76,0
0,70,82,0
0,65,127,39
0,44,74,6
0,62,99,21
0,67,98,0
0,70,104,0
0,62,118,1
0,44,84,0
0,62,68,5
0,67,85,0
0,70,82,0
0,53,116,2
0,64,107,1
0,69,109,4
0,29,91,3
0,35,126,0
0,44,76,0
0,72,95,5
0,65,127,42
0,44,81,0
0,67,127,2
0,64,75,1
0,69,87,0
0,72,80,0
0,65,127,1
0,64,86,1
0,44,65,0
0,64,109,28
0,69,118,0
0,72,109,0
0,62,127,3
0,64,116,3
0,44,78,0
0,69,81,8
0,72,82,0
0,62,127,1
0,53,96,15
0,62,90,2
0,67,100,4
0,29,91,6
