track,note,velocity,time
0,37,99,0
0,37,87,19
0,37,87,6
0,49,95,6
0,37,95,7
0,37,93,7
0,37,93,16
0,37,89,5
0,37,95,7
0,49,93,5
0,37,99,43
0,37,87,19
0,37,87,6
0,49,95,6
0,37,95,7
0,37,93,7
0,37,93,14
0,37,89,7
0,37,95,5
0,38,105,7
0,49,93,0
0,47,100,23
0,43,67,23
0,49,67,43
0,36,105,0
0,37,99,0
0,61,84,0
0,68,89,0
0,65,78,0
0,49,107,0
0,61,117,0
0,61,89,12
0,42,3,1
0,42,27,10
0,37,87,0
0,37,87,1
0,58,89,0
0,77,98,0
0,42,8,4
0,37,87,0
0,37,51,0
0,77,67,0
0,38,111,4
0,49,95,0
0,61,114,0
0,42,16,2
0,37,88,0
0,77,92,0
0,42,49,7
0,37,95,0
0,49,89,0
0,37,42,1
0,58,91,0
0,77,60,0
0,37,93,5
0,42,10,2
0,61,114,0
0,37,85,1
0,42,7,1
0,36,105,0
0,77,96,0
0,37,54,6
0,61,106,0
0,46,51,1
0,37,93,0
0,77,55,0
0,37,35,5
0,77,49,0
0,42,21,1
0,37,89,0
0,58,94,0
0,37,23,5
0,37,95,0
0,42,7,1
0,77,38,0
0,61,123,6
0,38,111,1
0,42,32,0
0,49,93,0
0,49,95,0
0,61,92,12
0,42,14,1
0,42,47,13
0,58,78,0
0,47,111,8
0,42,10,0
0,47,100,6
0,42,23,1
0,43,57,0
0,36,105,0
0,37,99,0
0,59,76,0
0,68,91,0
0,63,84,0
0,61,120,0
0,42,3,11
0,61,104,0
0,42,35,10
0,37,87,0
0,37,87,1
0,58,80,0
0,77,98,0
0,42,8,6
0,37,87,0
0,37,51,0
0,77,67,0
0,38,111,4
0,49,95,0
0,61,123,0
0,42,16,2
0,37,88,0
0,77,92,0
0,42,52,7
0,37,95,0
0,47,97,0
0,37,42,1
0,58,91,0
0,77,60,0
0,37,93,5
0,42,8,2
0,61,114,0
0,37,85,3
0,42,7,1
0,36,106,0
0,77,96,0
0,37,54,6
0,61,114,0
0,46,46,1
0,37,93,0
0,77,55,0
0,37,35,5
0,77,49,0
0,42,2,1
0,37,89,0
0,58,80,0
0,37,23,5
0,37,95,0
0,42,7,1
0,77,38,0
0,47,92,6
0,38,111,1
0,42,21,0
0,49,93,0
0,61,121,0
0,42,14,10
0,61,89,0
0,42,37,11
0,58,64,0
0,42,10,3
0,47,111,0
0,54,97,0
0,42,32,1
0,43,55,0
0,36,104,0
0,37,99,0
0,66,99,0
0,70,91,0
0,49,115,0
0,73,115,0
0,61,123,0
0,61,84,0
0,61,119,0
0,42,3,4
0,61,96,0
0,42,36,3
0,37,87,0
0,37,87,1
0,58,91,0
0,77,98,0
0,42,8,3
0,37,87,0
0,37,51,0
0,77,67,0
0,38,111,4
0,49,95,0
0,61,120,0
0,42,16,1
0,37,88,0
0,77,92,0
0,42,51,3
0,37,95,0
0,54,99,0
0,58,88,0
0,37,42,1
0,77,60,0
0,37,93,3
0,42,8,1
0,61,120,0
0,37,85,2
0,42,20,1
0,36,105,0
0,77,96,0
0,37,54,3
0,61,117,0
0,46,48,1
0,37,93,0
0,77,55,0
0,37,35,3
0,77,49,0
0,42,2,1
0,37,89,0
0,58,92,0
0,37,23,3
0,37,95,0
0,42,7,1
0,77,38,0
0,54,99,3
0,38,111,1
0,49,93,0
0,61,122,0
0,42,8,4
0,61,98,0
0,42,43,4
0,58,79,0
0,42,15,5
0,47,111,0
0,52,120,3
0,42,7,1
0,36,106,0
0,37,99,0
0,64,80,0
0,59,77,0
0,68,84,0
0,43,48,0
0,61,120,0
0,42,3,4
0,61,98,0
0,42,37,4
0,37,87,0
0,47,111,0
0,37,87,0
0,58,78,0
0,77,98,0
0,42,8,1
0,37,87,0
0,37,51,0
0,77,67,0
0,38,111,4
0,49,95,0
0,61,123,0
0,42,16,5
0,37,88,0
0,77,92,0
0,42,53,1
0,37,95,0
0,58,84,0
0,61,97,0
0,65,90,0
0,37,42,1
0,49,116,0
0,77,60,0
0,63,117,3
0,37,93,2
0,42,10,2
0,64,87,0
0,37,85,7
0,36,104,1
0,77,96,0
0,37,54,6
0,63,114,0
0,46,48,1
0,37,93,0
0,77,55,0
0,37,35,3
0,77,49,0
0,42,2,1
0,37,89,0
0,61,104,1
0,37,23,2
0,37,95,0
0,42,7,1
0,77,38,0
0,38,111,6
0,49,93,0
0,49,93,0
0,42,23,11
0,42,37,23
0,42,14,19
0,47,111,0
0,42,63,1
0,36,105,0
0,37,99,0
0,61,84,0
0,68,89,0
0,65,78,0
0,49,107,0
0,61,117,0
0,43,54,0
0,61,89,12
0,42,3,1
0,42,27,10
0,37,87,0
0,37,87,1
0,58,89,0
0,77,98,0
0,42,8,4
0,37,87,0
0,37,51,0
0,77,67,0
0,38,111,4
0,49,95,0
0,61,114,0
0,42,16,2
0,37,88,0
0,77,92,0
0,42,49,7
0,37,95,0
0,49,89,0
0,37,42,1
0,58,91,0
0,77,60,0
0,37,93,5
0,42,10,2
0,61,114,0
0,37,85,1
0,61,102,0
0,49,113,0
0,42,7,1
0,36,105,0
0,37,78,0
0,77,96,0
0,37,54,6
0,61,106,0
0,46,51,1
0,37,93,0
0,77,55,0
0,37,35,3
0,77,49,0
0,42,21,1
0,37,89,0
0,58,94,0
0,37,23,5
0,37,95,0
0,42,7,1
0,77,38,0
0,61,123,6
0,39,83,0
0,63,96,0
0,51,104,0
0,38,111,1
0,42,32,0
0,49,93,0
0,49,95,0
0,42,14,12
0,61,92,0
0,42,47,2
0,58,78,0
0,42,10,2
0,47,111,0
0,47,100,6
0,65,91,0
0,53,104,0
0,42,23,1
0,36,105,0
0,37,99,0
0,59,76,0
0,68,91,0
0,43,54,0
0,63,84,0
0,61,120,0
0,41,84,0
0,42,3,11
0,61,104,0
0,42,35,1
0,37,87,0
0,37,87,1
0,58,80,0
0,77,98,0
0,37,87,1
0,42,8,1
0,37,51,0
0,77,67,0
0,54,101,3
0,38,111,1
0,49,95,0
0,61,123,0
0,42,95,0
0,66,88,0
0,42,16,2
0,37,88,0
0,77,92,0
0,42,52,2
0,37,95,0
0,47,97,0
0,37,42,1
0,58,91,0
0,77,60,0
0,37,93,2
0,42,8,1
0,61,114,0
0,37,85,3
0,68,102,0
0,56,107,0
0,42,7,1
0,36,106,0
0,44,80,0
0,77,96,0
0,37,54,6
0,61,114,0
0,46,46,1
0,37,93,0
0,77,55,0
0,37,35,1
0,77,49,0
0,42,2,1
0,37,89,0
0,58,80,0
0,37,23,3
0,37,95,0
0,42,7,1
0,77,38,0
0,47,92,6
0,46,95,0
0,70,99,0
0,58,99,0
0,38,111,1
0,42,7,0
0,49,93,0
0,61,121,0
0,42,14,9
0,61,89,1
0,73,111,10
0,61,116,0
0,42,48,1
0,58,64,0
0,49,107,0
0,42,10,3
0,47,111,0
0,54,97,0
0,42,32,1
0,36,104,0
0,37,99,0
0,61,84,0
0,66,99,0
0,70,91,0
0,43,44,0
0,61,119,0
0,42,3,9
0,61,96,0
0,42,36,8
0,37,87,0
0,37,87,1
0,58,91,0
0,77,98,0
0,42,8,3
0,37,87,0
0,37,51,0
0,77,67,0
0,38,111,4
0,49,95,0
0,61,120,0
0,42,16,24
0,37,88,0
0,77,92,0
0,42,51,7
0,37,95,0
0,54,99,0
0,58,88,0
0,37,42,1
0,77,60,0
0,37,93,5
0,42,8,2
0,61,120,0
0,37,85,2
0,42,20,1
0,36,105,0
0,77,96,0
0,37,54,6
0,61,117,0
0,46,48,1
0,37,93,0
0,77,55,0
0,37,35,5
0,77,49,0
0,42,2,1
0,37,89,0
0,58,92,0
0,37,23,5
0,37,95,0
0,42,7,1
0,77,38,0
0,54,99,6
0,38,111,1
0,49,93,0
0,61,122,0
0,42,8,10
0,61,98,0
0,42,43,7
0,58,79,0
0,42,15,5
0,47,111,0
0,52,120,8
0,42,7,1
0,36,106,0
0,37,99,0
0,64,80,0
0,59,77,0
0,68,84,0
0,43,54,0
0,61,120,0
0,42,3,9
0,61,98,0
0,42,37,6
0,37,87,0
0,47,111,0
0,37,87,0
0,58,78,0
0,77,98,0
0,42,8,1
0,37,87,0
0,37,51,0
0,77,67,0
0,38,106,4
0,49,95,0
0,61,123,0
0,42,16,5
0,37,88,0
0,77,92,0
0,42,53,1
0,37,95,0
0,58,84,0
0,61,97,0
0,65,90,0
0,37,42,1
0,49,116,0
0,77,60,0
0,63,117,3
0,37,93,2
0,42,10,2
0,64,87,0
0,37,85,16
0,36,104,1
0,77,96,0
0,37,54,6
0,63,114,0
0,46,48,1
0,37,93,0
0,77,55,0
0,37,35,4
0,77,49,0
0,42,2,1
0,37,89,0
0,61,104,3
0,37,23,2
0,37,95,0
0,42,7,1
0,77,38,0
0,38,111,4
0,49,93,0
0,49,93,0
0,64,122,10
0,42,7,1
0,76,109,0
0,52,121,0
0,63,91,0
0,42,43,1
0,51,85,0
0,75,85,0
0,42,14,2
0,47,111,0
0,49,83,2
0,77,106,0
0,49,67,0
0,36,105,0
0,37,99,0
0,61,84,0
0,68,89,0
0,65,78,0
0,49,107,0
0,61,117,0
0,73,88,0
0,61,101,0
0,61,89,12
0,42,3,1
0,42,27,10
0,37,87,0
0,58,89,1
0,42,8,0
0,37,87,0
0,78,104,0
0,38,111,1
0,49,95,0
0,61,114,0
0,42,16,2
0,42,49,7
0,37,95,0
0,49,89,0
0,58,91,1
0,37,93,3
0,42,10,2
0,61,114,0
0,80,95,0
0,42,7,0
0,36,105,0
0,61,106,16
0,46,51,1
0,37,93,0
0,42,21,6
0,37,89,0
0,58,94,0
0,37,95,5
0,42,7,1
0,61,123,6
0,38,111,1
0,42,32,0
0,49,93,0
0,49,95,0
0,61,92,12
0,42,14,1
0,42,47,13
0,83,106,0
0,58,78,0
0,47,111,8
0,42,10,0
0,47,100,6
0,42,23,1
0,43,57,0
0,36,105,0
0,37,99,0
0,59,76,0
0,68,91,0
0,63,84,0
0,61,120,0
0,42,3,11
0,61,104,0
0,82,107,0
0,42,35,0
0,37,87,0
0,58,80,1
0,42,8,6
0,37,87,0
0,38,111,6
0,49,95,0
0,61,123,0
0,80,104,0
0,78,91,0
0,42,16,0
0,42,52,7
0,37,95,0
0,47,97,0
0,58,91,1
0,37,93,3
0,76,116,0
0,42,8,0
0,61,114,0
0,42,7,4
0,36,106,0
0,61,114,3
0,46,46,0
0,37,93,0
0,42,2,0
0,37,89,0
0,58,80,0
0,37,95,5
0,42,7,0
0,47,92,3
0,38,111,1
0,42,21,0
0,49,93,0
0,61,121,0
0,42,14,0
0,61,89,0
0,42,37,0
0,58,64,0
0,42,10,3
0,47,111,0
0,54,97,0
0,42,32,1
0,43,55,0
0,36,104,0
0,37,99,0
0,66,99,0
0,70,91,0
0,61,84,0
0,61,119,0
0,42,3,9
0,61,96,0
0,78,101,0
0,42,36,0
0,37,87,0
0,58,91,1
0,42,8,3
0,37,87,0
0,78,107,0
0,38,111,1
0,49,95,0
0,61,120,0
0,42,16,24
0,42,51,5
0,37,95,0
0,54,99,0
0,58,88,0
0,78,101,0
0,37,93,5
0,42,8,2
0,61,120,0
0,42,20,3
0,36,105,0
0,78,98,0
0,61,117,16
0,46,48,1
0,37,93,0
0,42,2,5
0,37,89,0
0,78,98,0
0,58,92,0
0,37,95,5
0,42,7,1
0,54,99,5
0,38,111,1
0,49,93,0
0,61,122,0
0,78,101,0
0,42,8,10
0,61,98,0
0,42,43,7
0,58,79,0
0,42,15,5
0,47,111,0
0,52,120,7
0,42,7,1
0,36,106,0
0,37,99,0
0,64,80,0
0,59,77,0
0,68,84,0
0,80,110,0
0,43,48,0
0,61,120,0
0,42,3,9
0,61,98,0
0,42,37,6
0,37,87,0
0,47,111,0
0,76,104,0
0,58,78,0
0,42,8,1
0,37,87,0
0,38,111,6
0,49,95,0
0,61,123,0
0,42,16,5
0,73,101,0
0,42,53,0
0,37,95,0
0,58,84,0
0,61,97,0
0,65,90,0
0,49,116,1
0,63,117,3
0,37,93,2
0,42,10,2
0,64,87,0
0,36,104,17
0,63,114,16
0,46,48,1
0,37,93,0
0,42,2,5
0,37,89,0
0,61,104,3
0,37,95,2
0,42,7,1
0,68,101,0
0,38,111,1
0,49,93,0
0,49,93,0
0,42,23,11
0,42,37,19
0,42,14,19
0,47,111,0
0,42,68,1
0,36,105,0
0,37,99,0
0,61,84,0
0,68,89,0
0,65,78,0
0,49,107,0
0,61,117,0
0,77,116,0
0,43,54,0
0,61,89,12
0,42,3,1
0,42,27,10
0,37,87,0
0,58,89,1
0,42,8,4
0,37,87,0
0,38,111,6
0,49,95,0
0,61,114,0
0,78,121,0
0,42,16,2
0,42,49,7
0,37,95,0
0,49,89,0
0,58,91,1
0,37,93,3
0,42,10,2
0,61,114,0
0,80,113,0
0,42,7,1
0,36,105,0
0,61,106,16
0,46,51,1
0,37,93,0
0,42,21,6
0,37,89,0
0,58,94,0
0,37,95,5
0,42,7,1
0,61,123,6
0,38,111,1
0,42,32,0
0,49,93,0
0,49,95,0
0,42,14,12
0,61,92,0
0,42,47,13
0,83,114,0
0,58,78,0
0,42,10,9
0,47,111,0
0,47,100,6
0,42,23,1
0,36,105,0
0,37,99,0
0,59,76,0
0,68,91,0
0,43,54,0
0,63,84,0
0,61,120,0
0,42,3,11
0,61,104,0
0,82,104,0
0,42,35,0
0,37,87,0
0,58,80,1
0,37,87,5
0,42,8,1
0,38,111,7
0,49,95,0
0,61,123,0
0,80,113,0
0,78,113,0
0,42,16,0
0,42,52,7
0,37,95,0
0,47,97,0
0,58,91,1
0,37,93,1
0,76,114,0
0,42,8,0
0,61,114,0
0,42,7,0
0,36,106,0
0,61,114,0
0,46,46,1
0,37,93,0
0,42,2,1
0,37,89,0
0,58,80,0
0,37,95,2
0,42,7,1
0,47,92,6
0,38,111,1
0,42,7,0
0,49,93,0
0,61,121,0
0,42,14,9
0,61,89,1
0,42,48,11
0,58,64,0
0,42,10,3
0,47,111,0
0,54,97,0
0,42,32,1
0,36,104,0
0,37,99,0
0,61,84,0
0,66,99,0
0,70,91,0
0,43,44,0
0,61,119,0
0,42,3,9
0,61,96,0
0,42,36,8
0,78,104,0
0,37,87,0
0,58,91,1
0,42,8,3
0,37,87,0
0,78,117,0
0,38,111,0
0,49,95,0
0,61,120,0
0,42,16,24
0,42,51,3
0,37,95,0
0,54,99,0
0,58,88,0
0,78,91,0
0,37,93,5
0,42,8,2
0,61,120,0
0,78,104,0
0,42,20,0
0,36,105,0
0,61,117,16
0,46,48,1
0,37,93,0
0,42,2,6
0,37,89,0
0,78,104,0
0,58,92,0
0,37,95,5
0,42,7,1
0,54,99,3
0,38,111,1
0,49,93,0
0,61,122,0
0,76,102,0
0,42,8,10
0,61,98,0
0,42,43,4
0,80,107,0
0,58,79,0
0,42,15,5
0,47,111,0
0,52,120,8
0,42,7,1
0,36,106,0
0,37,99,0
0,64,80,0
0,59,77,0
0,68,84,0
0,43,54,0
0,61,120,0
0,42,3,9
0,61,98,0
0,83,106,0
0,42,37,1
0,37,87,0
0,47,111,0
0,58,78,0
0,42,8,1
0,37,87,0
0,38,106,6
0,49,95,0
0,61,123,0
0,42,16,5
0,85,104,0
0,42,53,0
0,37,95,0
0,58,84,0
0,61,97,0
0,65,90,0
0,49,116,1
0,63,117,3
0,37,93,2
0,42,10,2
0,64,87,0
0,36,104,17
0,63,114,16
0,46,48,1
0,37,93,0
0,85,107,0
0,42,2,0
0,37,89,0
0,61,104,3
0,37,95,2
0,42,7,1
0,38,111,1
0,49,93,0
0,49,93,0
0,85,107,0
0,42,7,11
0,42,43,0
0,85,85,0
0,42,14,6
0,47,111,0
0,58,79,0
0,63,85,12
0,66,78,2
0,70,81,4
0,78,101,0
0,42,41,0
0,36,105,0
0,39,99,0
0,58,63,0
0,63,66,0
0,66,67,0
0,75,82,7
0,42,13,14
0,63,108,0
0,58,68,1
0,75,89,0
0,42,37,0
0,39,87,0
0,63,66,0
0,61,60,1
