track,note,velocity,time
0,35,127,0
0,36,127,0
0,36,120,0
0,36,120,0
0,48,127,0
0,36,127,7
0,35,85,28
0,60,115,0
0,48,126,0
0,48,120,0
0,60,127,21
0,36,127,0
0,48,117,0
0,35,96,15
0,51,115,0
0,63,127,19
0,48,127,0
0,35,106,22
0,36,124,0
0,48,113,0
0,60,125,16
0,48,127,0
0,35,104,20
0,44,125,0
0,44,117,0
0,56,103,30
0,35,108,20
0,56,127,0
0,44,127,0
0,60,127,18
0,44,127,0
0,35,112,17
0,43,117,0
0,43,119,0
0,43,126,30
0,43,116,0
0,35,106,25
0,55,127,0
0,46,127,0
0,60,127,27
0,46,127,0
0,35,127,19
0,36,127,0
0,36,127,0
0,36,127,0
0,48,127,0
0,36,123,23
0,35,112,30
0,60,127,0
0,48,125,0
0,48,114,0
0,60,127,23
0,36,127,0
0,48,113,0
0,35,114,17
0,51,105,0
0,63,127,21
0,48,127,0
0,35,120,21
0,36,127,0
0,48,114,0
0,60,125,15
0,48,127,0
0,35,127,10
0,44,127,0
0,44,119,0
0,56,104,25
0,35,114,11
0,56,127,0
0,44,127,0
0,60,127,16
0,44,127,0
0,35,110,16
0,43,123,0
0,43,111,0
0,43,123,30
0,43,123,0
0,35,118,21
0,55,127,0
0,46,127,0
0,60,127,13
0,46,127,0
0,35,127,14
0,36,127,0
0,36,120,0
0,36,120,0
0,48,127,0
0,36,127,7
0,35,110,28
0,60,115,0
0,48,126,0
0,48,120,0
0,75,113,0
0,60,127,21
0,36,127,0
0,48,117,0
0,35,110,15
0,51,115,0
0,75,113,0
0,63,127,19
0,48,127,0
0,72,104,0
0,35,116,1
0,36,124,0
0,48,113,0
0,75,102,0
0,60,125,1
0,48,127,0
0,35,121,20
0,44,125,0
0,44,117,0
0,75,97,0
0,56,103,1
0,35,104,20
0,56,127,0
0,44,127,0
0,60,127,18
0,44,127,0
0,75,101,0
0,35,110,17
0,43,117,0
0,43,119,0
0,74,91,1
0,43,126,30
0,43,116,0
0,35,110,12
0,55,127,0
0,46,127,0
0,60,127,27
0,46,127,0
0,75,113,0
0,35,127,1
0,36,127,0
0,36,127,0
0,36,127,0
0,48,127,0
0,75,97,0
0,36,123,1
0,72,98,11
0,35,108,1
0,60,127,0
0,48,125,0
0,48,114,0
0,60,127,7
0,36,127,0
0,48,113,0
0,75,107,0
0,35,111,17
0,51,105,0
0,63,127,21
0,48,127,0
0,72,91,0
0,35,112,1
0,36,127,0
0,48,114,0
0,60,125,15
0,48,127,0
0,75,110,0
0,35,127,1
0,44,127,0
0,44,119,0
0,77,102,0
0,56,104,1
0,35,116,19
0,56,127,0
0,44,127,0
0,60,127,16
0,44,127,0
0,75,101,0
0,35,116,2
0,43,123,0
0,43,111,0
0,74,86,0
0,43,123,1
0,43,123,0
0,35,126,21
0,55,127,0
0,46,127,0
0,60,127,13
0,46,127,0
0,72,91,0
0,75,104,0
0,35,127,1
0,36,127,0
0,36,120,0
0,36,120,0
0,48,127,0
0,36,127,7
0,75,89,0
0,72,87,0
0,35,124,1
0,60,115,0
0,48,126,0
0,48,120,0
0,60,127,4
0,36,127,0
0,48,117,0
0,75,101,0
0,35,126,15
0,51,115,0
0,63,127,2
0,48,127,0
0,35,121,22
0,36,124,0
0,48,113,0
0,75,110,0
0,72,91,0
0,60,125,0
0,48,127,0
0,35,121,20
0,44,125,0
0,44,117,0
0,75,99,0
0,77,104,0
0,56,103,1
0,35,112,20
0,56,127,0
0,44,127,0
0,60,127,18
0,44,127,0
0,75,101,0
0,35,116,1
0,43,117,0
0,43,119,0
0,74,87,8
0,43,126,1
0,43,116,0
0,35,127,25
0,55,127,0
0,46,127,0
0,60,127,17
0,46,127,0
0,75,104,0
0,35,127,0
0,36,127,0
0,36,127,0
0,36,127,0
0,48,127,0
0,36,123,23
0,72,86,0
0,35,123,1
0,60,127,0
0,48,125,0
0,48,114,0
0,75,99,0
0,60,127,1
0,36,127,0
0,48,113,0
0,35,125,17
0,51,105,0
0,63,127,15
0,48,127,0
0,72,95,0
0,35,124,21
0,36,127,0
0,48,114,0
0,60,125,0
0,48,127,0
0,75,116,0
0,35,127,1
0,44,127,0
0,44,119,0
0,75,90,0
0,56,104,1
0,77,98,0
0,35,127,1
0,56,127,0
0,44,127,0
0,60,127,4
0,44,127,0
0,75,102,0
0,35,127,16
0,43,123,0
0,43,111,0
0,43,123,0
0,43,123,0
0,74,108,0
0,35,127,21
0,55,127,0
0,46,127,0
0,60,127,13
0,46,127,0
0,35,127,14
0,36,127,0
0,36,120,0
0,36,120,0
0,48,127,0
0,75,104,0
0,67,78,0
0,36,127,0
0,75,89,0
0,67,65,0
0,63,69,0
0,35,117,1
0,60,115,0
0,48,126,0
0,48,120,0
0,72,100,0
0,60,127,21
0,36,127,0
0,48,117,0
0,75,113,0
0,35,119,0
0,51,115,0
0,67,80,0
0,63,127,19
0,48,127,0
0,72,91,0
0,63,63,0
0,35,120,1
0,36,124,0
0,48,113,0
0,60,125,8
0,48,127,0
0,75,99,0
0,67,82,0
0,35,121,20
0,44,125,0
0,44,117,0
0,65,72,0
0,56,103,0
0,72,94,0
0,35,114,20
0,56,127,0
0,44,127,0
0,60,127,18
0,44,127,0
0,35,117,17
0,43,117,0
0,43,119,0
0,43,126,30
0,43,116,0
0,35,119,0
0,55,127,0
0,46,127,0
0,60,127,27
0,46,127,0
0,67,78,18
0,75,116,0
0,35,127,0
0,36,127,0
0,36,127,0
0,36,127,0
0,48,127,0
0,75,94,0
0,67,68,0
0,36,123,1
0,72,98,0
0,63,61,0
0,35,126,1
0,60,127,0
0,48,125,0
0,48,114,0
0,60,127,23
0,36,127,0
0,48,113,0
0,67,70,0
0,35,126,0
0,51,105,0
0,75,116,0
0,67,76,1
0,63,127,0
0,48,127,0
0,75,91,0
0,72,96,0
0,63,55,0
0,35,124,1
0,36,127,0
0,48,114,0
0,67,76,0
0,75,99,0
0,60,125,0
0,48,127,0
0,35,127,10
0,44,127,0
0,44,119,0
0,68,80,0
0,56,104,0
0,77,100,0
0,35,116,19
0,56,127,0
0,44,127,0
0,60,127,16
0,44,127,0
0,75,99,0
0,67,72,0
0,35,116,1
0,43,123,0
0,43,111,0
0,74,87,1
0,65,74,0
0,43,123,0
0,43,123,0
0,35,126,21
0,55,127,0
0,46,127,0
0,60,127,13
0,46,127,0
0,35,127,14
0,36,127,0
0,36,120,0
0,36,120,0
0,48,127,0
0,75,116,0
0,67,80,0
0,75,93,0
0,36,127,0
0,67,65,1
0,72,97,0
0,63,63,0
0,35,124,1
0,60,115,0
0,48,126,0
0,48,120,0
0,60,127,21
0,36,127,0
0,48,117,0
0,35,126,15
0,51,115,0
0,75,113,0
0,67,68,0
0,67,65,1
0,63,127,1
0,48,127,0
0,75,94,0
0,63,55,0
0,72,97,0
0,35,121,1
0,36,124,0
0,48,113,0
0,67,76,0
0,60,125,0
0,48,127,0
0,75,101,0
0,35,127,20
0,44,125,0
0,44,117,0
0,65,72,0
0,56,103,1
0,72,108,0
0,35,115,20
0,56,127,0
0,44,127,0
0,60,127,18
0,44,127,0
0,35,117,0
0,43,117,0
0,43,119,0
0,43,126,30
0,43,116,0
0,35,117,25
0,55,127,0
0,46,127,0
0,60,127,27
0,46,127,0
0,75,110,0
0,67,80,0
0,35,127,1
0,36,127,0
0,36,127,0
0,36,127,0
0,48,127,0
0,75,84,0
0,67,62,0
0,36,123,1
0,63,61,0
0,72,97,0
0,35,116,0
0,60,127,0
0,48,125,0
0,48,114,0
0,60,127,23
0,36,127,0
0,48,113,0
0,35,117,17
0,51,105,0
0,75,110,0
0,67,80,0
0,63,127,21
0,48,127,0
0,72,86,0
0,63,65,0
0,35,116,1
0,36,127,0
0,48,114,0
0,75,99,0
0,67,80,0
0,60,125,1
0,48,127,0
0,35,127,10
0,44,127,0
0,44,119,0
0,68,77,0
0,56,104,0
0,77,106,0
0,35,117,19
0,56,127,0
0,44,127,0
0,60,127,16
0,44,127,0
0,75,104,0
0,67,70,0
0,35,118,1
0,43,123,0
0,43,111,0
0,74,90,2
0,65,74,0
0,43,123,1
0,43,123,0
0,35,118,21
0,55,127,0
0,46,127,0
0,60,127,13
0,46,127,0
0,72,84,1
0,68,84,0
0,63,84,0
0,35,126,0
0,42,42,0
0,32,127,0
0,84,46,0
0,35,72,31
0,42,42,0
0,42,43,47
0,38,113,0
0,39,82,0
0,44,127,0
0,42,44,31
0,32,127,0
0,35,127,32
0,42,44,0
0,35,76,47
0,42,44,0
0,44,127,0
0,42,44,33
0,38,113,0
0,39,82,0
0,32,127,0
0,42,44,34
0,44,127,0
0,35,127,31
0,42,44,0
0,31,127,0
0,35,69,31
0,42,44,0
0,42,44,47
0,38,113,0
0,39,82,0
0,43,127,0
0,42,43,28
0,31,127,0
0,62,82,0
0,71,82,0
0,67,82,0
0,35,127,0
0,42,43,0
0,83,44,1
0,35,70,47
0,42,41,0
0,43,127,0
0,67,93,28
0,42,41,1
0,38,113,0
0,39,82,0
0,31,127,0
0,65,78,2
0,42,40,1
0,43,127,0
0,63,86,0
0,65,85,0
0,72,79,0
0,63,79,0
0,67,79,0
0,60,79,0
0,35,127,0
0,42,40,0
0,36,127,0
0,79,42,1
0,35,71,29
0,42,40,0
0,42,40,47
0,38,113,0
0,39,82,0
0,48,127,0
0,42,39,1
0,36,127,0
0,66,90,0
0,65,83,3
0,35,127,22
0,42,39,0
0,48,127,0
0,63,79,0
0,35,70,28
0,42,38,0
0,36,127,0
0,82,40,33
0,70,82,0
0,63,82,0
0,67,82,0
0,72,82,0
0,42,38,0
0,38,109,0
0,39,78,0
0,39,127,0
0,42,35,33
0,65,73,7
0,63,82,34
0,63,78,0
0,68,78,0
0,65,78,0
0,72,78,0
0,35,127,0
0,42,38,0
0,41,127,0
0,80,39,1
0,65,92,13
0,35,71,16
0,42,38,0
0,63,92,8
0,65,81,20
0,42,39,12
0,38,105,0
0,39,74,0
0,53,127,0
0,63,90,12
0,60,73,2
0,42,39,1
0,41,127,0
0,35,127,30
0,42,39,0
0,35,71,47
0,42,39,0
0,53,127,0
0,42,39,32
0,38,111,0
0,39,80,0
0,41,127,0
0,42,39,35
0,53,127,0
0,84,36,0
0,68,83,0
0,63,83,0
0,72,83,0
0,35,127,0
0,42,39,0
0,32,127,0
0,35,69,31
0,42,39,0
0,42,39,47
0,38,112,0
0,39,81,0
0,44,127,0
0,42,39,32
0,32,127,0
0,35,127,31
0,42,41,0
0,35,67,47
0,42,41,0
0,44,127,0
0,42,41,32
0,38,113,0
0,39,82,0
0,32,127,0
0,42,43,33
0,44,127,0
0,70,84,2
0,83,37,1
0,71,75,0
0,62,75,0
0,67,75,0
0,35,127,0
0,42,43,0
0,31,127,0
0,35,69,31
0,42,43,0
0,67,79,3
0,42,43,12
0,38,113,0
0,39,82,0
0,43,127,0
0,66,78,5
0,42,43,16
0,31,127,0
0,35,127,5
0,42,43,0
0,43,127,0
0,65,75,0
0,35,72,29
0,42,43,0
0,31,127,0
0,65,74,3
0,42,43,33
0,38,113,0
0,39,82,0
0,46,127,0
0,63,70,0
0,42,43,37
0,35,127,0
0,36,127,0
0,36,120,0
0,36,120,0
0,48,127,0
0,36,127,1
0,60,69,0
0,75,99,0
0,35,117,0
0,60,115,0
0,48,126,0
0,48,120,0
0,67,74,1
0,60,127,21
0,36,127,0
0,48,117,0
0,67,68,1
0,35,119,0
0,51,115,0
0,75,97,0
0,63,127,19
0,48,127,0
0,72,94,0
0,35,120,0
0,36,124,0
0,48,113,0
0,63,69,0
0,60,125,16
0,48,127,0
0,75,95,0
0,67,70,0
0,35,121,1
0,44,125,0
0,44,117,0
0,75,81,0
0,56,103,0
0,67,74,1
0,35,114,20
0,56,127,0
0,44,127,0
0,67,80,1
0,75,93,0
0,60,127,0
0,44,127,0
0,65,56,0
0,35,117,0
0,43,117,0
0,43,119,0
0,74,79,1
0,43,126,30
0,43,116,0
0,35,119,25
0,55,127,0
0,46,127,0
0,60,127,27
0,46,127,0
0,67,80,0
0,75,104,0
0,35,127,0
0,36,127,0
0,36,127,0
0,36,127,0
0,48,127,0
0,75,85,0
0,36,123,0
0,67,68,1
0,72,83,12
0,63,61,0
0,35,126,1
0,60,127,0
0,48,125,0
0,48,114,0
0,60,127,4
0,36,127,0
0,48,113,0
0,75,101,0
0,67,82,0
0,35,126,17
0,51,105,0
0,63,127,21
0,48,127,0
0,72,87,0
0,63,67,0
0,35,124,0
0,36,127,0
0,48,114,0
0,60,125,15
0,48,127,0
0,75,107,0
0,67,84,0
0,35,127,1
0,44,127,0
0,44,119,0
0,68,69,0
0,56,104,1
0,77,91,0
0,35,116,19
0,56,127,0
0,44,127,0
0,60,127,16
0,44,127,0
0,75,93,0
0,67,70,0
0,35,116,1
0,43,123,0
0,43,111,0
0,74,84,0
0,65,70,0
0,43,123,1
0,43,123,0
0,35,126,21
0,55,127,0
0,46,127,0
0,72,80,0
0,60,127,1
0,46,127,0
0,63,70,0
0,75,99,0
0,67,82,0
0,35,127,1
0,36,127,0
0,36,120,0
0,36,120,0
0,48,127,0
0,75,89,0
0,36,127,0
0,67,80,1
0,72,91,0
0,63,61,0
0,35,124,1
0,60,115,0
0,48,126,0
0,48,120,0
0,75,95,0
0,60,127,0
0,36,127,0
0,48,117,0
0,67,78,0
0,35,126,15
0,51,115,0
0,63,127,19
0,48,127,0
0,75,101,0
0,67,72,0
0,35,121,1
0,36,124,0
0,48,113,0
0,72,83,0
0,63,61,0
0,60,125,1
0,48,127,0
0,75,101,0
0,67,67,0
0,35,127,1
0,44,125,0
0,44,117,0
0,68,57,0
0,56,103,1
0,77,104,0
0,35,115,20
0,56,127,0
0,44,127,0
0,60,127,18
0,44,127,0
0,67,72,0
0,75,101,0
0,35,117,1
0,43,117,0
0,43,119,0
0,65,70,0
0,43,126,1
0,43,116,0
0,74,87,1
0,35,117,25
0,55,127,0
0,46,127,0
0,60,127,27
0,46,127,0
0,35,127,19
0,36,127,0
0,36,127,0
0,36,127,0
0,48,127,0
0,75,104,0
0,67,90,0
0,36,123,23
0,72,80,0
0,63,63,0
0,35,116,1
0,60,127,0
0,48,125,0
0,48,114,0
0,60,127,6
0,36,127,0
0,48,113,0
0,75,107,0
0,67,80,0
0,35,117,17
0,51,105,0
0,72,94,0
0,63,127,1
0,48,127,0
0,63,71,0
0,35,116,21
0,36,127,0
0,48,114,0
0,60,125,15
0,48,127,0
0,75,101,0
0,67,90,0
0,35,127,1
0,44,127,0
0,44,119,0
0,75,85,0
0,67,60,1
0,56,104,0
0,77,106,0
0,68,80,0
0,35,117,1
0,56,127,0
0,44,127,0
0,75,85,0
0,60,127,1
0,44,127,0
0,67,64,0
0,35,118,16
0,43,123,0
0,43,111,0
0,74,90,0
0,65,80,0
0,43,123,0
0,43,123,0
0,35,118,21
0,55,127,0
0,46,127,0
0,60,127,13
0,46,127,0
0,72,82,0
0,68,82,0
0,63,82,0
0,35,126,0
0,42,42,0
0,32,127,0
0,84,46,0
0,35,72,31
0,42,42,0
0,42,43,47
0,38,113,0
0,39,82,0
0,44,127,0
0,42,44,31
0,32,127,0
0,35,127,32
0,42,44,0
0,35,76,47
0,42,44,0
0,44,127,0
0,42,44,33
0,38,113,0
0,39,82,0
0,32,127,0
0,42,44,34
0,44,127,0
0,35,127,31
0,42,44,0
0,31,127,0
0,35,69,31
0,42,44,0
0,42,44,47
0,38,113,0
0,39,82,0
0,43,127,0
0,42,43,28
0,31,127,0
0,86,79,28
0,62,85,0
0,71,85,0
0,67,85,0
0,35,127,0
0,42,43,0
0,83,44,1
0,35,70,2
0,42,41,0
0,43,127,0
0,42,41,2
0,38,113,0
0,39,82,0
0,31,127,0
0,86,76,12
0,42,40,17
0,43,127,0
0,84,76,0
0,72,83,0
0,63,83,0
0,67,83,0
0,60,83,0
0,35,127,0
0,42,40,0
0,36,127,0
0,79,42,1
0,86,76,1
0,35,71,29
0,42,40,0
