track,note,velocity,time
0,41,107,96
0,48,88,109
0,60,87,39
0,53,86,5
0,48,0,3
0,65,91,19
0,60,0,10
0,53,0,3
0,68,98,5
0,65,0,30
0,68,0,22
0,67,109,44
0,53,87,65
0,53,0,38
0,67,0,2
0,65,115,61
0,65,0,99
0,41,0,4
0,53,75,6
0,53,0,16
0,58,68,6
0,63,84,11
0,67,90,15
0,39,74,2
0,70,91,3
0,58,0,6
0,63,0,17
0,67,0,6
0,70,0,37
0,46,71,14
0,51,85,55
0,46,0,17
0,51,0,21
0,58,103,23
0,58,0,42
0,63,101,19
0,63,0,59
0,68,90,7
0,68,0,55
0,67,109,18
0,51,80,18
0,65,115,166
0,67,0,2
0,39,0,3
0,51,0,28
0,65,0,24
0,37,88,17
0,44,69,93
0,37,0,28
0,49,93,3
0,44,0,6
0,56,74,4
0,49,0,19
0,61,77,0
0,65,87,18
0,56,0,5
0,68,99,9
0,61,0,19
0,65,0,25
0,68,0,19
0,67,106,39
0,49,70,76
0,67,0,39
0,65,115,69
0,49,0,66
0,37,53,15
0,37,0,19
0,36,83,23
0,48,83,3
0,64,112,5
0,48,53,2
0,55,83,0
0,65,0,1
0,55,0,94
0,64,0,7
0,65,92,28
0,65,0,73
0,36,0,18
0,48,0,31
0,67,88,9
0,67,0,76
0,41,91,34
0,48,0,3
0,53,59,1
0,56,98,0
0,60,87,4
0,65,113,0
0,60,0,79
0,56,0,2
0,48,75,10
0,65,0,29
0,48,0,43
0,53,80,18
0,41,0,4
0,53,0,25
0,53,65,68
0,65,51,6
0,53,0,12
0,65,0,25
0,65,77,19
0,68,85,22
0,53,0,7
0,53,79,1
0,53,45,0
0,72,103,6
0,68,0,17
0,77,106,3
0,65,0,2
0,72,0,12
0,77,0,36
0,53,68,6
0,56,39,14
0,53,0,13
0,72,111,2
0,72,0,54
0,53,0,15
0,60,45,0
0,68,99,6
0,53,33,15
0,56,0,15
0,53,0,3
0,68,0,30
0,65,94,21
0,56,39,6
0,53,37,3
0,60,0,81
0,60,98,9
0,65,0,1
0,41,88,2
0,53,47,0
0,56,0,36
0,60,0,31
0,65,115,18
0,56,45,11
0,41,0,33
0,67,101,43
0,53,0,1
0,65,0,0
0,53,0,7
0,41,75,10
0,60,46,2
0,41,0,13
0,56,0,23
0,67,0,28
0,68,95,16
0,56,44,16
0,68,0,19
0,58,87,46
0,39,93,5
0,63,99,8
0,60,0,5
0,67,87,9
0,51,85,3
0,51,46,0
0,58,45,0
0,63,41,0
0,67,51,0
0,53,0,2
0,58,0,4
0,70,93,2
0,56,0,21
0,67,0,0
0,63,0,3
0,70,0,45
0,55,45,12
0,51,0,84
0,58,45,12
0,55,0,36
0,55,46,60
0,68,101,7
0,68,0,62
0,58,0,15
0,67,93,1
0,51,85,4
0,39,0,1
0,51,44,6
0,55,0,36
0,55,44,60
0,51,0,69
0,39,76,4
0,65,109,8
0,67,0,2
0,51,0,1
0,58,44,12
0,39,0,11
0,55,0,25
0,65,0,1
0,55,44,59
0,37,101,1
0,58,0,0
0,58,0,7
0,63,0,0
0,67,0,0
0,49,95,5
0,53,44,0
0,56,51,0
0,61,47,0
0,65,59,0
0,51,0,8
0,55,0,28
0,56,43,60
0,37,0,10
0,49,93,1
0,49,0,15
0,56,99,24
0,61,88,13
0,65,84,16
0,56,0,2
0,53,0,3
0,68,99,6
0,61,44,6
0,61,0,4
0,56,0,32
0,68,0,28
0,65,0,17
0,56,46,15
0,67,107,3
0,49,84,47
0,67,0,14
0,49,0,18
0,61,0,2
0,53,44,12
0,56,0,36
0,65,91,35
0,56,40,25
0,49,76,75
0,53,0,9
0,49,0,10
0,61,43,2
0,65,0,7
0,56,0,29
0,56,41,60
0,61,0,5
0,48,88,6
0,56,0,1
0,61,0,0
0,65,0,0
0,36,90,1
0,64,113,2
0,48,105,2
0,52,45,0
0,60,64,0
0,64,41,0
0,67,48,0
0,49,0,4
0,56,0,18
0,55,44,60
0,64,0,51
0,36,0,6
0,62,108,5
0,48,0,21
0,52,0,1
0,60,45,12
0,55,0,36
0,62,0,10
0,64,104,49
0,55,45,1
0,64,0,3
0,60,0,33
0,64,0,7
0,67,0,0
0,41,110,5
0,53,45,0
0,65,51,0
0,48,0,8
0,41,95,16
0,56,91,3
0,60,88,0
0,55,0,4
0,65,97,1
0,56,42,47
0,56,0,48
0,60,0,9
0,53,0,27
0,60,44,12
0,65,0,2
0,56,0,34
0,41,0,15
0,56,40,45
0,60,0,5
0,56,58,12
0,65,49,0
0,60,72,4
0,41,79,1
0,68,71,0
0,68,76,1
0,65,76,3
0,56,0,18
0,68,0,21
0,68,75,52
0,60,0,33
0,68,0,19
0,65,0,9
0,53,60,19
0,68,0,68
0,67,77,44
0,60,65,42
0,65,80,35
0,68,84,3
0,41,60,3
0,60,0,13
0,41,0,4
0,41,0,4
0,68,0,34
0,53,0,3
0,65,0,24
0,67,0,4
0,65,78,24
0,65,0,160
0,65,77,31
0,65,0,35
0,39,81,8
0,60,0,3
0,65,0,0
0,41,0,4
0,56,0,0
0,65,0,0
0,39,66,1
0,58,45,0
0,63,41,0
0,67,42,0
0,70,77,2
0,70,0,8
0,68,76,33
0,51,51,6
0,51,0,39
0,68,0,9
0,68,76,42
0,55,78,51
0,58,79,35
0,55,0,7
0,65,86,4
0,58,0,36
0,65,0,42
0,68,0,54
0,39,0,40
0,63,85,22
0,63,0,44
0,37,68,47
0,58,0,0
0,63,0,0
0,67,0,0
0,61,68,2
0,56,68,1
0,37,68,2
0,56,45,0
0,61,47,0
0,65,71,0
0,65,49,0
0,70,77,0
0,39,0,8
0,70,0,34
0,70,78,52
0,56,0,71
0,61,0,1
0,65,0,17
0,70,0,64
0,68,76,31
0,49,72,105
0,68,0,65
0,67,77,25
0,56,71,2
0,37,0,32
0,49,0,35
0,56,0,1
0,37,56,31
0,37,0,24
0,67,0,27
0,67,77,34
0,55,52,21
0,36,71,2
0,48,66,1
0,60,80,0
0,64,85,2
0,56,0,1
0,61,0,0
0,65,0,0
0,36,64,5
0,60,49,0
0,64,41,0
0,67,48,0
0,37,0,18
0,36,0,31
0,67,0,10
0,48,0,11
0,64,0,8
0,55,0,4
0,68,76,5
0,60,0,3
0,68,0,48
0,68,76,53
0,68,0,88
0,65,77,2
0,65,0,5
0,41,67,7
0,56,70,23
0,60,82,2
0,64,0,0
0,67,0,0
0,65,71,2
0,65,78,2
0,41,62,1
0,65,48,0
0,36,0,2
0,41,0,191
0,65,0,57
0,56,52,25
0,41,82,4
0,68,77,1
0,68,0,38
0,56,0,24
0,65,0,8
0,60,0,4
0,68,75,19
0,68,0,39
0,56,83,55
0,68,76,0
0,68,0,44
0,60,74,4
0,56,0,18
0,65,73,28
0,68,75,4
0,60,0,11
0,68,76,28
0,65,0,21
0,68,0,8
0,53,77,11
0,67,91,0
0,68,0,50
0,65,77,29
0,41,0,48
0,67,0,27
0,41,81,19
0,65,85,3
0,53,0,1
0,41,0,12
0,65,0,18
0,65,0,19
0,65,76,45
0,65,0,26
0,60,0,4
0,65,0,0
0,41,0,1
0,39,79,3
0,56,0,0
0,39,59,1
0,58,50,0
0,63,45,0
0,67,45,0
0,70,76,3
0,70,0,38
0,58,72,56
0,67,87,0
0,63,75,2
0,70,76,3
0,70,0,55
0,58,0,9
0,67,0,20
0,70,76,7
0,63,0,3
0,70,0,52
0,65,88,39
0,58,65,2
0,70,76,2
0,58,0,18
0,51,70,77
0,39,0,21
0,65,0,41
0,70,0,0
0,67,87,28
0,67,77,0
0,67,0,56
0,51,0,1
0,39,74,42
0,39,0,34
0,67,0,1
0,67,77,58
0,67,0,35
0,61,69,1
0,68,79,0
0,65,82,2
0,37,73,1
0,49,73,1
0,58,0,2
0,63,0,0
0,67,0,0
0,37,58,5
0,56,44,0
0,61,50,0
0,65,48,0
0,68,76,4
0,39,0,4
0,68,0,36
0,68,74,55
0,68,0,39
0,61,0,42
0,68,0,1
0,65,0,8
0,68,76,3
0,49,0,5
0,68,0,31
0,68,75,58
0,61,77,93
0,49,70,1
0,68,83,0
0,37,0,11
0,68,0,42
0,68,0,11
0,70,79,28
0,65,76,16
0,61,0,36
0,70,0,6
0,37,67,40
0,68,82,1
0,61,66,3
0,49,0,6
0,61,0,30
0,37,0,4
0,65,0,26
0,68,0,9
0,67,77,25
0,36,71,41
0,67,90,0
0,48,68,1
0,60,82,0
0,56,0,2
0,61,0,0
0,65,0,0
0,36,63,5
0,60,49,0
0,64,41,0
0,67,48,0
0,37,0,18
0,67,0,37
0,67,0,3
0,60,0,31
0,36,0,5
0,68,77,8
0,48,0,24
0,68,0,20
0,64,88,46
0,68,76,2
0,64,0,34
0,68,0,55
0,65,75,15
0,65,0,47
0,41,76,28
0,64,0,1
0,67,0,0
0,56,74,2
0,60,83,0
0,65,83,2
0,41,80,1
0,65,54,0
0,65,76,1
0,36,0,7
0,56,0,168
0,60,0,21
0,65,0,18
0,41,0,16
0,65,0,30
0,65,76,31
0,53,70,10
0,56,51,0
0,60,60,0
0,65,66,0
0,41,83,2
0,68,80,0
0,60,77,1
0,65,85,0
0,65,0,23
0,65,0,18
0,60,0,1
0,68,0,6
0,65,77,46
0,68,81,2
0,60,75,4
0,65,84,0
0,60,0,36
0,65,0,7
0,68,0,4
0,65,0,6
0,65,85,37
0,68,78,0
0,65,78,1
0,60,76,1
0,60,0,86
0,53,75,1
0,68,0,26
0,65,0,5
0,65,0,40
0,60,75,32
0,68,75,0
0,65,83,1
0,68,77,0
0,41,0,40
0,60,0,37
0,53,0,1
0,68,0,10
0,41,70,5
0,65,0,0
0,41,0,26
0,68,0,27
0,63,70,3
0,67,76,3
0,70,74,0
0,67,78,3
0,39,72,4
0,60,0,6
0,65,0,0
0,41,0,1
0,53,0,1
0,60,0,0
0,65,0,0
0,56,0,2
0,39,72,1
0,51,61,0
0,63,59,0
0,67,63,0
0,70,0,22
0,63,0,5
0,67,0,10
0,67,0,10
0,63,75,45
0,67,80,0
0,70,74,0
0,67,78,4
0,63,0,46
0,39,0,16
0,67,0,7
0,70,0,9
0,39,74,10
0,51,58,11
0,67,0,44
0,51,0,8
0,63,77,36
0,67,80,1
0,70,74,0
0,67,78,3
0,51,76,89
0,70,0,10
0,63,0,1
0,67,0,17
0,67,0,32
0,70,76,36
0,63,76,4
0,67,79,2
0,67,78,2
0,39,0,13
0,51,0,48
0,63,0,11
0,70,0,6
0,67,0,2
0,39,68,10
0,39,0,35
0,67,0,30
0,68,83,1
0,63,80,1
0,72,84,0
0,68,77,6
0,51,0,36
0,67,0,0
0,39,0,2
0,44,75,1
0,56,61,0
0,60,63,0
0,72,0,2
0,44,74,6
0,63,0,0
0,68,0,7
0,63,72,74
0,68,80,1
0,72,77,0
0,68,0,4
0,68,77,190
0,72,0,74
0,63,0,6
0,68,0,8
0,56,83,2
0,63,89,13
0,68,0,32
0,68,82,59
0,68,78,0
0,44,0,72
0,56,0,5
0,63,0,14
0,72,91,3
0,44,73,2
0,44,0,1
0,46,75,1
0,68,0,17
0,44,0,21
0,68,0,4
0,70,77,49
0,72,0,37
0,56,0,35
0,63,0,0
0,46,0,2
0,48,64,1
0,48,77,0
0,64,48,0
0,70,62,0
0,48,84,2
0,64,85,0
0,73,85,0
0,70,79,2
0,70,0,35
0,70,0,31
0,73,0,11
0,68,77,7
0,72,82,4
0,72,0,65
0,70,86,29
0,68,0,52
0,64,0,11
0,70,0,3
0,67,77,13
0,67,92,7
0,64,87,2
0,67,0,22
0,36,72,5
0,70,0,3
0,67,61,3
0,67,78,1
0,67,0,18
0,64,0,32
0,64,93,38
0,67,0,0
0,65,79,5
0,48,0,10
0,48,82,9
0,64,0,7
0,64,63,3
0,48,0,25
0,36,0,16
0,64,0,29
0,64,73,25
0,64,0,44
0,53,70,40
0,41,77,1
0,48,0,0
0,64,0,0
0,67,0,0
0,60,77,1
0,65,83,0
0,48,0,1
0,41,68,1
0,53,68,0
0,65,67,0
0,65,0,24
0,60,0,12
0,65,0,16
0,65,78,21
0,65,82,1
0,68,74,0
0,60,74,2
0,53,0,31
0,60,0,51
0,68,0,33
0,65,0,2
0,65,0,33
0,68,81,38
0,60,79,1
0,65,83,1
0,65,78,0
0,60,0,92
0,53,91,2
0,65,0,17
0,68,0,2
0,65,0,35
0,65,78,45
0,68,87,1
0,60,81,1
0,65,85,1
0,41,0,38
0,53,0,12
0,41,85,41
0,68,67,0
0,60,0,12
0,68,0,21
0,65,0,4
0,65,0,33
0,65,83,26
0,67,78,0
0,68,76,0
0,60,78,1
0,60,0,26
0,41,0,13
0,65,0,16
0,68,0,24
0,53,0,6
0,60,0,0
0,65,0,0
0,68,0,0
0,41,0,2
0,39,82,1
0,39,69,0
0,51,68,0
0,58,50,0
0,63,60,0
0,67,58,0
0,63,81,65
0,67,85,1
0,70,80,0
0,67,0,2
0,63,0,87
0,67,0,6
0,70,0,1
0,51,77,3
0,67,78,87
0,63,78,5
0,67,85,0
0,70,86,0
0,51,0,2
0,67,0,28
0,67,77,51
0,51,74,7
0,63,0,2
0,67,0,0
0,63,76,3
0,67,0,7
0,67,78,0
0,63,0,4
0,67,0,6
0,70,0,7
0,67,0,42
0,70,82,31
0,63,75,1
0,67,84,0
0,67,78,6
0,39,0,56
0,51,0,2
0,63,0,25
0,39,67,10
0,67,0,8
0,70,0,17
0,67,0,19
0,39,0,12
0,68,77,33
0,65,82,1
0,72,81,0
0,68,78,1
0,37,79,14
0,51,0,7
0,58,0,0
0,63,0,0
0,39,0,2
0,37,68,1
0,49,60,0
0,56,71,0
0,61,64,0
0,65,71,0
0,65,0,28
0,68,0,4
0,72,0,1
0,68,80,60
0,72,84,1
0,65,85,1
0,68,0,65
0,68,76,34
0,49,81,4
0,72,0,35
0,65,0,4
0,68,0,1
0,68,0,3
0,68,76,46
0,65,79,4
0,68,77,0
0,72,83,0
0,49,0,18
0,68,0,52
0,49,75,21
0,70,78,2
0,68,0,41
0,72,0,1
0,65,0,10
0,68,78,45
0,70,0,0
0,72,82,0
0,65,84,1
0,68,77,1
0,49,0,74
0,37,0,7
0,37,73,12
0,68,0,4
0,65,0,4
0,72,0,14
0,37,0,31
0,68,0,51
0,71,78,3
0,39,75,24
0,49,0,0
0,51,75,0
0,56,0,0
0,61,0,0
0,65,0,0
0,63,79,1
0,70,81,0
0,37,0,1
0,67,85,0
0,39,69,1
0,51,65,0
0,58,61,0
0,63,56,0
0,67,65,0
0,70,77,2
0,71,0,4
0,68,78,81
0,70,0,7
0,63,0,31
0,70,0,21
0,67,0,1
0,67,85,32
0,39,0,14
0,51,0,18
0,67,0,27
0,68,0,43
0,77,84,0
0,53,81,45
0,67,84,0
0,72,83,0
0,41,81,1
0,51,0,0
0,58,0,0
0,63,0,0
0,65,87,0
0,67,0,0
0,69,86,1
0,39,0,1
0,41,82,1
0,53,74,0
0,60,61,0
0,65,59,0
0,69,67,0
0,77,0,1130
0,41,0,10
0,53,0,0
0,60,0,0
0,65,0,0
0,69,0,0
0,53,32,96
0,41,0,38
0,72,0,8
0,53,0,1
0,67,0,1
0,69,0,0
0,65,0,8
0,50,35,136
0,57,17,51
0,57,0,1
0,57,20,18
0,57,0,1
0,57,21,17
0,57,0,1
0,57,28,14
0,57,0,1
0,57,28,5
0,57,0,1
0,57,33,19
0,57,0,1
0,57,28,11
0,57,0,1
0,57,31,0
0,57,0,1
0,57,35,2
0,57,0,1
0,57,41,7
0,57,0,1
0,57,35,5
0,57,0,1
0,57,41,19
0,57,0,1
0,57,47,3
0,57,0,1
0,57,42,7
0,57,0,1
0,57,36,1
0,57,0,1
0,57,40,3
0,57,0,1
0,57,45,10
0,57,0,1
0,57,49,9
0,57,0,1
0,57,49,10
0,57,0,1
0,57,51,12
0,57,0,1
0,57,46,15
0,57,0,1
0,57,56,17
0,57,0,1
0,57,50,17
0,57,0,1
0,57,55,10
0,57,0,1
0,57,58,10
0,57,0,1
0,57,49,27
0,57,0,1
