track,note,velocity,time
0,72,93,1596
0,84,87,0
0,79,89,8
0,91,81,0
0,76,90,8
0,88,96,0
0,77,84,8
0,89,80,0
0,84,88,8
0,96,91,0
0,89,85,8
0,101,78,0
0,88,86,200
0,100,89,0
0,84,86,200
0,96,95,0
0,79,84,84
0,91,84,0
0,86,78,392
0,98,96,0
0,48,124,120
0,60,106,0
0,64,122,0
0,67,115,0
0,72,96,0
0,84,92,0
0,79,86,8
0,91,84,0
0,52,115,8
0,60,105,0
0,64,112,0
0,67,112,0
0,76,97,0
0,88,90,0
0,53,127,8
0,60,115,0
0,65,118,0
0,69,114,0
0,77,85,0
0,89,87,0
0,84,80,8
0,96,93,0
0,52,126,8
0,60,106,0
0,64,117,0
0,67,116,0
0,89,82,0
0,101,97,0
0,53,122,200
0,60,119,0
0,65,122,0
0,69,103,0
0,88,96,0
0,100,79,0
0,52,127,200
0,60,122,0
0,64,109,0
0,67,103,0
0,84,91,0
0,96,94,0
0,53,125,200
0,60,107,0
0,65,111,0
0,69,110,0
0,79,83,0
0,91,80,0
0,55,122,8
0,62,117,0
0,67,114,0
0,71,110,0
0,55,121,200
0,62,109,0
0,67,122,0
0,71,114,0
0,86,78,0
0,98,90,0
0,60,127,120
0,72,125,0
0,60,121,0
0,48,127,0
0,60,107,0
0,64,103,0
0,67,109,0
0,72,92,0
0,84,94,0
0,57,127,8
0,69,110,0
0,57,123,0
0,79,83,0
0,91,83,0
0,60,121,4
0,72,126,0
0,60,118,0
0,52,127,0
0,60,122,0
0,64,117,0
0,67,122,0
0,76,87,0
0,88,89,0
0,53,127,8
0,60,115,0
0,65,121,0
0,69,109,0
0,77,86,0
0,89,95,0
0,60,123,8
0,72,121,0
0,60,123,0
0,84,84,0
0,96,84,0
0,57,117,8
0,69,113,0
0,57,127,0
0,52,118,0
0,60,111,0
0,64,117,0
0,67,116,0
0,89,93,0
0,101,92,0
0,60,120,8
0,72,115,0
0,60,119,0
0,53,127,192
0,60,122,0
0,65,116,0
0,69,109,0
0,88,79,0
0,100,78,0
0,60,114,8
0,72,118,0
0,60,125,0
0,52,124,192
0,60,112,0
0,64,106,0
0,67,103,0
0,84,88,0
0,96,93,0
0,60,113,8
0,72,115,0
0,60,127,0
0,53,127,192
0,60,114,0
0,65,108,0
0,69,120,0
0,79,95,0
0,91,91,0
0,64,127,8
0,76,127,0
0,64,118,0
0,55,127,0
0,62,110,0
0,67,108,0
0,71,118,0
0,48,81,0
0,50,93,8
0,52,94,8
0,53,83,8
0,62,124,8
0,74,115,0
0,62,124,0
0,55,121,0
0,62,109,0
0,67,116,0
0,71,107,0
0,53,82,0
0,86,83,0
0,98,93,0
0,55,78,8
0,60,127,8
0,72,125,0
0,60,127,0
0,57,83,0
0,59,83,8
0,48,127,8
0,60,110,0
0,64,109,0
0,67,122,0
0,60,82,0
0,72,85,0
0,84,88,0
0,79,83,8
0,91,78,0
0,52,118,8
0,60,114,0
0,64,115,0
0,67,112,0
0,76,92,0
0,88,85,0
0,53,126,8
0,60,117,0
0,65,112,0
0,69,121,0
0,77,80,0
0,89,81,0
0,84,86,8
0,96,80,0
0,52,117,8
0,60,120,0
0,64,113,0
0,67,107,0
0,89,78,0
0,101,93,0
0,53,127,40
0,60,121,0
0,65,107,0
0,69,111,0
0,88,94,0
0,100,82,0
0,52,121,200
0,60,122,0
0,64,105,0
0,67,114,0
0,84,81,0
0,96,94,0
0,53,121,96
0,60,118,0
0,65,112,0
0,69,120,0
0,79,93,0
0,91,89,0
0,55,127,8
0,62,117,0
0,67,120,0
0,71,111,0
0,43,105,200
0,55,122,0
0,62,117,0
0,67,103,0
0,71,111,0
0,43,89,0
0,55,88,0
0,31,103,0
0,36,108,0
0,38,113,0
0,43,67,0
0,49,123,0
0,60,117,0
0,72,111,0
0,60,122,0
0,48,119,0
0,60,115,0
0,64,105,0
0,67,120,0
0,72,52,0
0,72,79,0
0,84,93,0
0,36,102,0
0,36,117,0
0,42,79,0
0,54,35,0
0,69,36,0
0,72,57,8
0,54,48,0
0,57,116,8
0,69,127,0
0,57,127,0
0,72,58,0
0,79,92,0
0,91,87,0
0,46,92,0
0,54,48,0
0,69,40,0
0,72,66,8
0,54,45,0
0,69,41,0
0,60,117,8
0,72,122,0
0,60,118,0
0,52,115,0
0,60,117,0
0,64,122,0
0,67,122,0
0,72,59,0
0,76,92,0
0,88,82,0
0,39,98,0
0,28,119,0
0,36,124,0
0,38,123,0
0,42,79,0
0,54,39,0
0,69,35,0
0,72,65,8
0,54,42,0
0,53,123,8
0,60,111,0
0,65,105,0
0,69,122,0
0,72,63,0
0,77,83,0
0,89,90,0
0,29,115,0
0,42,78,0
0,54,32,0
0,69,33,0
0,72,54,8
0,54,33,0
0,69,31,0
0,60,127,8
0,72,112,0
0,60,110,0
0,72,60,0
0,84,88,0
0,96,95,0
0,36,109,0
0,42,79,0
0,54,42,0
0,69,47,0
0,72,63,8
0,54,36,0
0,57,127,8
0,69,121,0
0,57,111,0
0,52,120,0
0,60,105,0
0,64,112,0
0,67,116,0
0,72,58,0
0,89,78,0
0,101,95,0
0,28,103,0
0,42,87,0
0,54,33,0
0,69,42,0
0,72,54,8
0,54,46,0
0,69,43,0
0,60,115,8
0,72,120,0
0,60,113,0
0,72,52,0
0,39,90,0
0,36,113,0
0,38,115,0
0,42,88,0
0,54,41,0
0,69,37,0
0,72,60,8
0,54,31,0
0,53,127,8
0,60,120,0
0,65,116,0
0,69,107,0
0,72,60,0
0,88,96,0
0,100,93,0
0,29,116,0
0,42,83,0
0,54,43,0
0,69,30,0
0,72,54,8
0,54,37,0
0,69,49,0
0,60,123,8
0,72,115,0
0,60,114,0
0,72,69,0
0,36,119,0
0,42,92,0
0,54,33,0
0,69,45,0
0,72,69,8
0,54,32,0
0,52,127,8
0,60,110,0
0,64,114,0
0,67,106,0
0,72,62,0
0,84,81,0
0,96,88,0
0,28,101,0
0,46,110,0
0,54,34,0
0,69,43,0
0,72,66,8
0,54,32,0
0,69,37,0
0,60,110,8
0,72,127,0
0,60,120,0
0,72,57,0
0,39,100,0
0,36,114,0
0,38,119,0
0,42,90,0
0,54,46,0
0,69,43,0
0,72,51,8
0,54,43,0
0,53,127,8
0,60,107,0
0,65,104,0
0,69,121,0
0,72,53,0
0,79,83,0
0,91,86,0
0,29,115,0
0,42,94,0
0,54,30,0
0,69,38,0
0,72,56,8
0,54,37,0
0,69,39,0
0,64,118,8
0,76,127,0
0,64,111,0
0,55,126,0
0,62,113,0
0,67,112,0
0,71,103,0
0,72,51,0
0,31,107,0
0,36,123,0
0,42,75,0
0,54,33,0
0,69,33,0
0,72,65,8
0,54,41,0
0,72,52,8
0,42,84,0
0,54,36,0
0,69,39,0
0,72,50,8
0,54,32,0
0,69,48,0
0,62,124,4
0,74,126,0
0,62,123,0
0,55,127,0
0,62,107,0
0,67,105,0
0,71,113,0
0,72,50,0
0,86,94,0
0,98,89,0
0,39,97,0
0,31,103,0
0,36,105,0
0,38,117,0
0,42,80,0
0,54,48,0
0,69,38,0
0,72,69,8
0,54,47,0
0,60,121,8
0,72,123,0
0,60,124,0
0,72,52,0
0,42,82,0
0,54,34,0
0,69,34,0
0,72,52,8
0,54,42,0
0,69,40,0
0,48,115,8
0,60,110,0
0,64,120,0
0,67,107,0
0,72,57,0
0,72,97,0
0,84,91,0
0,36,110,0
0,36,124,0
0,42,81,0
0,54,35,0
0,69,38,0
0,72,60,8
0,54,36,0
0,72,69,8
0,79,89,0
0,91,86,0
0,46,96,0
0,54,40,0
0,69,40,0
0,72,62,8
0,54,46,0
0,69,30,0
0,52,125,8
0,60,104,0
0,64,120,0
0,67,114,0
0,72,65,0
0,76,81,0
0,88,93,0
0,39,92,0
0,28,113,0
0,36,120,0
0,38,106,0
0,42,84,0
0,54,36,0
0,69,39,0
0,72,62,8
0,54,47,0
0,53,117,8
0,60,105,0
0,65,106,0
0,69,109,0
0,72,57,0
0,77,94,0
0,89,90,0
0,29,102,0
0,42,85,0
0,54,49,0
0,69,44,0
0,72,60,8
0,54,30,0
0,69,31,0
0,72,69,8
0,84,92,0
0,96,91,0
0,36,124,0
0,42,80,0
0,54,49,0
0,69,30,0
0,72,57,8
0,54,34,0
0,52,127,8
0,60,105,0
0,64,114,0
0,67,116,0
0,72,63,0
0,89,88,0
0,101,88,0
0,28,104,0
0,42,89,0
0,54,34,0
0,69,34,0
0,72,57,8
0,54,44,0
0,69,49,0
0,72,61,8
0,39,96,0
0,36,120,0
0,38,109,0
0,42,91,0
0,54,47,0
0,69,30,0
0,72,64,8
0,54,38,0
0,53,121,8
0,60,120,0
0,65,104,0
0,69,111,0
0,72,55,0
0,88,80,0
0,100,86,0
0,29,115,0
0,42,85,0
0,54,38,0
0,69,34,0
0,72,52,8
0,54,46,0
0,69,47,0
0,72,51,8
0,36,105,0
0,42,87,0
0,54,36,0
0,69,44,0
0,72,60,8
0,54,41,0
0,52,116,8
0,60,114,0
0,64,108,0
0,67,106,0
0,72,64,0
0,84,82,0
0,96,78,0
0,28,107,0
0,46,93,0
0,54,36,0
0,69,44,0
0,72,64,8
0,54,46,0
0,69,33,0
0,72,54,8
0,39,92,0
0,36,105,0
0,38,116,0
0,42,84,0
0,54,33,0
0,69,42,0
0,72,66,8
0,54,49,0
0,53,125,8
0,60,121,0
0,65,108,0
0,69,106,0
0,72,65,0
0,79,96,0
0,91,83,0
0,42,86,0
0,54,35,0
0,69,45,0
0,72,65,8
0,54,44,0
0,69,45,0
0,55,123,8
0,62,112,0
0,67,112,0
0,71,104,0
0,72,58,0
0,31,101,0
0,36,124,0
0,42,88,0
0,54,41,0
0,69,42,0
0,72,65,8
0,54,34,0
0,72,68,8
0,36,114,0
0,42,78,0
0,54,41,0
0,69,44,0
0,72,66,8
0,54,43,0
0,69,49,0
0,55,125,8
0,62,113,0
0,67,113,0
0,71,106,0
0,72,64,0
0,86,83,0
0,98,95,0
0,39,88,0
0,31,119,0
0,36,113,0
0,38,121,0
0,42,92,0
0,54,30,0
0,69,31,0
0,72,69,8
0,54,48,0
0,72,69,8
0,46,104,0
0,54,49,0
0,69,37,0
0,72,51,8
0,54,41,0
0,69,36,0
0,64,49,0
0,64,71,0
0,67,77,0
0,72,75,0
0,41,85,0
0,41,118,0
0,36,106,0
0,42,79,0
0,54,49,0
0,69,35,0
0,54,42,12
0,41,103,92
0,42,76,0
0,54,47,0
0,69,41,0
0,54,44,12
0,69,39,0
0,39,89,92
0,41,102,0
0,38,121,0
0,42,78,0
0,54,48,0
0,69,30,0
0,54,38,12
0,41,118,92
0,42,83,0
0,54,45,0
0,69,47,0
0,54,33,12
0,69,49,0
0,41,112,92
0,36,107,0
0,42,75,0
0,54,35,0
0,69,49,0
0,54,41,12
0,57,120,92
0,41,115,0
0,42,88,0
0,54,31,0
0,69,30,0
0,54,39,12
0,69,47,0
0,60,127,16
0,39,88,0
0,41,118,0
0,38,105,0
0,42,75,0
0,54,49,0
0,69,42,0
0,62,124,12
0,54,46,0
0,41,101,16
0,42,92,0
0,54,43,0
0,69,33,0
0,64,126,12
0,54,42,0
0,69,43,0
0,41,106,92
0,36,117,0
0,42,81,0
0,54,33,0
0,69,41,0
0,54,40,12
0,62,113,16
0,41,113,0
0,42,86,0
0,54,35,0
0,69,42,0
0,54,36,12
0,69,43,0
0,60,116,16
0,39,97,0
0,41,109,0
0,36,115,0
0,38,119,0
0,42,79,0
0,54,46,0
0,69,39,0
0,62,118,12
0,54,49,0
0,60,115,16
0,41,102,0
0,42,81,0
0,54,44,0
0,69,46,0
0,54,37,12
0,69,38,0
0,64,66,8
0,67,66,0
0,72,66,0
0,41,117,0
0,36,119,0
0,42,79,0
0,54,49,0
0,69,43,0
0,64,71,8
0,67,71,0
0,72,71,0
0,54,43,12
0,64,76,8
0,67,76,0
0,72,76,0
0,64,80,8
0,67,80,0
0,72,80,0
0,41,116,0
0,42,81,0
0,54,40,0
0,69,35,0
0,64,85,8
0,67,85,0
0,72,85,0
0,54,39,12
0,69,30,0
0,64,90,8
0,67,90,0
0,72,90,0
0,64,95,8
0,67,95,0
0,72,95,0
0,39,85,0
0,41,107,0
0,36,122,0
0,38,117,0
0,42,92,0
0,54,49,0
0,69,33,0
0,64,100,8
0,67,100,0
0,72,100,0
0,54,34,12
0,64,104,8
0,67,104,0
0,72,104,0
0,64,109,8
0,67,109,0
0,72,109,0
0,41,105,0
0,42,83,0
0,54,39,0
0,69,49,0
0,64,114,8
0,67,114,0
0,72,114,0
0,54,30,12
0,69,30,0
0,64,119,0
0,67,119,0
0,72,119,0
0,48,115,0
0,60,106,0
0,64,110,0
0,67,103,0
0,36,110,0
0,36,106,0
0,42,80,0
0,54,38,0
0,69,47,0
0,54,44,0
0,42,87,0
0,54,49,0
0,69,32,0
0,54,32,0
0,69,33,0
0,52,127,64
0,60,115,0
0,64,117,0
0,67,110,0
0,39,101,0
0,28,108,0
0,38,108,0
0,42,80,0
0,54,43,0
0,69,38,0
0,54,42,8
0,53,123,12
0,60,107,0
0,65,115,0
0,69,109,0
0,29,107,0
0,42,92,0
0,54,47,0
0,69,42,0
0,54,44,8
0,69,33,0
0,36,120,12
0,42,76,0
0,54,42,0
0,69,38,0
0,54,45,92
0,55,119,92
0,52,118,0
0,60,110,0
0,64,104,0
0,67,114,0
0,28,107,0
0,42,89,0
0,54,31,0
0,69,41,0
0,54,39,8
0,69,45,0
0,57,125,12
0,39,86,0
0,38,106,0
0,42,82,0
0,54,36,0
0,69,43,0
0,55,110,16
0,54,43,0
0,60,110,16
0,53,124,0
0,60,110,0
0,65,106,0
0,69,111,0
0,29,109,0
0,42,85,0
0,54,35,0
0,69,43,0
0,54,47,8
0,69,47,0
0,36,112,12
0,42,82,0
0,54,44,0
0,69,36,0
0,54,36,92
0,52,120,92
0,60,106,0
0,64,113,0
0,67,104,0
0,28,100,0
0,42,90,0
0,54,44,0
0,69,35,0
0,54,35,8
0,69,32,0
0,60,113,16
0,39,102,0
0,38,109,0
0,42,91,0
0,54,45,0
0,69,39,0
0,54,46,92
0,57,120,12
0,53,127,0
0,60,104,0
0,65,111,0
0,69,120,0
0,42,75,0
0,54,48,0
0,69,31,0
0,54,41,8
0,69,36,0
0,60,127,16
0,55,126,0
0,62,106,0
0,67,122,0
0,71,111,0
0,31,108,0
0,36,113,0
0,42,94,0
0,54,49,0
0,69,36,0
0,54,46,92
0,42,85,8
0,54,30,0
0,69,41,0
0,54,35,60
0,69,38,0
0,64,124,16
0,55,123,0
0,62,120,0
0,67,104,0
0,71,105,0
0,39,100,0
0,31,111,0
0,38,108,0
0,42,79,0
0,54,41,0
0,69,40,0
0,54,35,92
0,46,103,0
0,54,30,0
0,69,32,0
0,54,46,0
0,69,32,0
0,64,50,0
0,64,80,0
0,67,86,0
0,72,68,0
0,41,88,0
0,41,114,0
0,36,112,0
0,42,92,0
0,54,36,0
0,69,39,0
0,54,47,12
0,41,100,92
0,42,86,0
0,54,37,0
0,69,33,0
0,54,43,12
0,69,45,0
0,39,101,92
0,41,119,0
0,38,105,0
0,42,80,0
0,54,36,0
0,69,38,0
0,54,43,12
0,41,117,92
0,42,75,0
0,54,45,0
0,69,31,0
0,60,113,12
0,54,46,0
0,69,37,0
0,64,127,16
0,41,104,0
0,36,108,0
0,42,87,0
0,54,30,0
0,69,48,0
0,54,32,12
0,67,125,16
0,41,118,0
0,42,81,0
0,54,43,0
0,69,48,0
0,54,47,12
0,69,39,0
0,69,127,16
0,39,95,0
0,41,100,0
0,38,117,0
0,42,92,0
0,54,36,0
0,69,48,0
0,54,45,12
0,41,106,92
0,42,77,0
0,54,36,0
0,69,33,0
0,54,41,0
0,69,30,0
0,87,101,92
0,41,118,0
0,36,121,0
0,42,85,0
0,54,31,0
0,69,41,0
0,54,30,0
0,64,126,16
0,41,116,0
0,42,90,0
0,54,34,0
0,69,36,0
0,54,39,0
0,69,32,0
0,64,114,16
