track,note,velocity,time
0,44,85,239
0,44,0,8
0,44,85,184
0,44,0,8
0,44,85,184
0,44,0,8
0,44,85,184
0,44,0,8
0,46,127,0
0,58,99,0
0,63,83,0
0,65,59,0
0,74,99,0
0,77,99,0
0,78,55,0
0,82,99,0
0,87,75,0
0,51,127,10
0,63,100,1
0,67,127,8
0,68,104,2
0,70,100,0
0,72,127,13
0,27,110,3
0,27,127,0
0,58,110,0
0,67,88,0
0,70,104,0
0,67,88,0
0,36,104,0
0,82,127,0
0,70,0,6
0,72,0,1
0,70,64,2
0,36,0,1
0,82,0,46
0,70,127,38
0,87,127,2
0,70,0,13
0,87,0,39
0,94,127,44
0,70,127,1
0,70,0,12
0,94,0,48
0,27,0,11
0,27,0,23
0,27,104,1
0,27,110,0
0,36,80,0
0,36,0,10
0,72,127,271
0,27,0,6
0,27,80,1
0,62,113,0
0,62,0,10
0,72,0,76
0,70,87,1
0,70,0,49
0,27,0,31
0,27,0,24
0,58,0,0
0,67,0,0
0,67,0,0
0,27,110,1
0,27,110,0
0,58,104,0
0,65,79,0
0,65,79,0
0,36,104,0
0,36,0,10
0,27,0,257
0,27,0,20
0,39,104,1
0,27,100,0
0,36,80,0
0,36,0,10
0,62,113,278
0,67,127,10
0,62,0,0
0,67,0,41
0,68,80,1
0,68,0,39
0,70,76,1
0,70,0,44
0,72,91,1
0,58,0,45
0,58,110,1
0,72,0,5
0,70,104,1
0,39,0,2
0,27,0,0
0,65,0,0
0,65,0,0
0,27,110,1
0,27,100,0
0,68,82,0
0,68,82,0
0,36,104,0
0,36,0,10
0,70,0,4
0,70,127,80
0,70,0,16
0,70,127,81
0,70,0,15
0,27,0,56
0,27,0,25
0,27,110,1
0,27,104,0
0,36,80,0
0,36,0,10
0,72,127,271
0,62,113,7
0,62,0,10
0,72,0,76
0,70,87,1
0,70,0,23
0,27,0,52
0,58,0,28
0,27,0,1
0,58,91,0
0,68,0,0
0,68,0,0
0,27,104,1
0,27,87,0
0,65,76,0
0,65,76,0
0,36,104,0
0,36,0,10
0,27,0,266
0,27,0,11
0,39,104,1
0,27,104,0
0,36,80,0
0,36,0,10
0,67,127,278
0,62,113,0
0,62,0,10
0,67,0,32
0,68,83,1
0,68,0,44
0,70,76,1
0,70,0,42
0,72,91,1
0,58,0,55
0,72,0,0
0,58,91,1
0,70,110,0
0,27,0,4
0,65,0,0
0,65,0,0
0,27,110,1
0,27,104,0
0,67,86,0
0,67,86,0
0,36,104,0
0,82,104,0
0,39,0,4
0,36,0,6
0,70,0,3
0,82,0,30
0,70,127,53
0,87,110,0
0,70,0,16
0,87,0,15
0,94,110,65
0,70,127,1
0,70,0,16
0,94,0,24
0,27,0,29
0,27,0,25
0,27,100,1
0,27,95,0
0,36,80,0
0,36,0,10
0,72,127,276
0,27,0,1
0,27,100,1
0,62,113,0
0,62,0,10
0,72,0,80
0,70,87,1
0,70,0,42
0,27,0,34
0,58,0,20
0,58,91,1
0,27,0,3
0,67,0,0
0,67,0,0
0,27,104,1
0,27,104,0
0,65,88,0
0,65,88,0
0,36,104,0
0,36,0,10
0,27,0,272
0,27,0,5
0,39,104,1
0,27,110,0
0,36,80,0
0,36,0,10
0,67,127,275
0,62,113,3
0,62,0,10
0,67,0,26
0,68,83,1
0,68,0,44
0,70,80,1
0,70,0,45
0,72,83,1
0,39,0,46
0,72,0,5
0,70,110,1
0,58,0,2
0,60,127,1
0,27,0,8
0,65,0,0
0,65,0,0
0,27,104,1
0,27,110,0
0,68,82,0
0,68,82,0
0,36,104,0
0,70,0,4
0,36,0,6
0,70,110,84
0,70,0,9
0,70,110,90
0,70,0,10
0,27,0,84
0,27,0,0
0,39,104,1
0,27,104,0
0,36,80,0
0,36,0,10
0,72,127,271
0,62,113,7
0,62,0,10
0,72,0,81
0,70,83,1
0,70,0,29
0,39,0,58
0,60,0,6
0,62,94,1
0,27,0,5
0,68,0,0
0,68,0,0
0,27,110,1
0,27,104,0
0,65,84,0
0,65,84,0
0,36,104,0
0,36,0,10
0,27,0,266
0,27,0,11
0,27,91,1
0,27,100,0
0,36,80,0
0,36,0,10
0,62,113,278
0,67,127,4
0,62,0,6
0,27,0,8
0,67,0,26
0,68,83,1
0,68,0,40
0,70,73,1
0,70,0,51
0,72,101,2
0,27,0,17
0,72,0,3
0,70,0,22
0,65,0,3
0,65,0,0
0,62,0,2
0,27,110,6
0,27,127,0
0,58,110,0
0,67,76,0
0,70,84,0
0,67,88,0
0,36,104,0
0,70,0,6
0,70,64,3
0,36,0,1
0,70,95,84
0,70,0,15
0,70,95,84
0,75,105,0
0,70,0,12
0,27,0,59
0,27,0,23
0,27,104,1
0,27,110,0
0,36,80,0
0,36,0,10
0,75,0,86
0,74,103,10
0,75,105,1
0,72,127,39
0,27,0,6
0,27,80,1
0,62,113,0
0,62,0,10
0,75,0,48
0,72,104,8
0,72,0,20
0,70,87,1
0,70,0,49
0,70,102,1
0,27,0,10
0,58,0,0
0,67,0,0
0,67,0,0
0,27,110,1
0,27,110,0
0,58,104,0
0,65,71,0
0,65,79,0
0,36,104,0
0,63,102,1
0,63,0,116
0,63,103,23
0,27,0,23
0,27,0,20
0,39,104,1
0,27,100,0
0,36,80,0
0,36,0,10
0,62,107,5
0,62,113,5
0,67,95,5
0,62,0,0
0,68,72,1
0,62,0,23
0,65,105,8
0,68,0,8
0,70,70,1
0,70,0,44
0,72,77,1
0,65,0,29
0,58,0,16
0,58,110,1
0,63,105,4
0,72,0,1
0,70,84,1
0,39,0,2
0,27,0,0
0,65,0,0
0,65,0,0
0,27,110,1
0,27,100,0
0,68,73,0
0,68,82,0
0,36,104,0
0,36,0,10
0,70,0,4
0,70,95,80
0,58,103,14
0,70,95,47
0,70,0,15
0,58,0,39
0,27,0,17
0,27,0,25
0,27,110,1
0,27,104,0
0,36,80,0
0,58,105,2
0,36,0,8
0,72,127,271
0,62,113,7
0,62,0,10
0,70,87,1
0,58,91,0
0,68,0,0
0,68,0,0
0,27,104,1
0,27,87,0
0,65,70,0
0,65,76,0
0,36,104,0
0,36,0,10
0,39,104,1
0,27,104,0
0,36,80,0
0,36,0,10
0,67,95,278
0,62,113,0
0,62,0,10
0,67,0,32
0,68,73,1
0,68,0,44
0,70,70,1
0,70,0,42
0,72,77,1
0,58,0,55
0,72,0,0
0,58,91,1
0,70,87,0
0,27,0,4
0,65,0,0
0,65,0,0
0,27,110,1
0,27,104,0
0,67,75,0
0,67,86,0
0,36,104,0
0,39,0,4
0,36,0,6
0,70,0,3
0,70,95,83
0,70,0,16
0,63,105,79
0,70,95,2
0,70,0,16
0,27,0,53
0,27,0,25
0,27,100,1
0,27,95,0
0,36,80,0
0,36,0,10
0,62,104,17
0,63,103,22
0,72,127,53
0,27,0,1
0,27,100,1
0,62,113,0
0,62,0,10
0,63,0,19
0,63,103,29
0,72,0,32
0,70,87,1
0,70,0,42
0,63,0,9
0,72,106,1
0,58,0,3
0,58,91,1
0,27,0,3
0,67,0,0
0,67,0,0
0,27,104,1
0,27,104,0
0,65,76,0
0,65,88,0
0,36,104,0
0,70,103,9
0,70,0,95
0,27,0,6
0,63,103,3
0,27,0,2
0,39,104,1
0,27,110,0
0,36,80,0
0,36,0,10
0,63,0,141
0,62,102,1
0,67,95,133
0,62,113,3
0,62,0,10
0,67,0,26
0,68,73,1
0,62,0,40
0,68,0,4
0,70,72,1
0,70,0,45
0,72,73,1
0,39,0,46
0,72,0,5
0,70,87,1
0,58,0,2
0,60,127,1
0,27,0,8
0,65,0,0
0,65,0,0
0,27,104,1
0,27,110,0
0,68,73,0
0,68,82,0
0,36,104,0
0,70,0,4
0,36,0,6
0,70,87,2
0,58,105,7
0,70,87,16
0,70,0,10
0,58,0,22
0,60,106,26
0,27,0,36
0,27,0,0
0,39,104,1
0,27,104,0
0,36,80,0
0,36,0,10
0,60,0,49
0,60,105,37
0,60,0,113
0,55,103,38
0,72,127,34
0,62,113,7
0,62,0,10
0,55,0,48
0,72,0,33
0,70,83,1
0,55,105,21
0,70,0,8
0,39,0,58
0,60,0,6
0,62,94,1
0,27,0,5
0,68,0,0
0,68,0,0
0,27,110,1
0,27,104,0
0,65,74,0
0,65,84,0
0,36,104,0
0,36,0,10
0,27,91,1
0,27,100,0
0,36,80,0
0,36,0,10
0,62,113,278
0,67,95,4
0,62,0,6
0,27,0,8
0,67,0,26
0,68,73,1
0,68,0,40
0,70,68,1
0,70,0,51
0,72,82,2
0,27,0,17
0,72,0,3
0,70,0,22
0,65,0,3
0,65,0,0
0,62,0,2
0,27,110,6
0,27,127,0
0,58,110,0
0,67,76,0
0,70,84,0
0,67,88,0
0,36,104,0
0,70,0,6
0,70,64,3
0,36,0,1
0,70,95,84
0,70,0,15
0,70,95,48
0,75,107,0
0,70,0,12
0,27,104,1
0,27,110,0
0,36,80,0
0,36,0,10
0,75,0,98
0,74,103,1
0,74,0,141
0,75,100,1
0,72,127,30
0,27,0,6
0,27,80,1
0,62,113,0
0,62,0,10
0,72,0,76
0,70,87,1
0,75,0,20
0,72,106,1
0,70,0,28
0,27,0,31
0,27,0,24
0,58,0,0
0,67,0,0
0,67,0,0
0,27,110,1
0,27,110,0
0,58,104,0
0,65,71,0
0,65,79,0
0,36,104,0
0,70,104,1
0,27,0,16
0,27,0,20
0,39,104,1
0,27,100,0
0,36,80,0
0,36,0,10
0,70,0,59
0,63,103,1
0,63,0,125
0,62,102,1
0,62,113,92
0,67,95,10
0,62,0,0
0,67,0,41
0,68,72,1
0,68,0,39
0,70,70,1
0,72,77,1
0,58,110,1
0,72,0,5
0,70,84,1
0,39,0,2
0,27,0,0
0,65,0,0
0,65,0,0
0,27,110,1
0,27,100,0
0,68,73,0
0,68,82,0
0,36,104,0
0,70,95,74
0,58,102,1
0,70,95,5
0,27,110,1
0,27,104,0
0,36,80,0
0,58,0,4
0,60,107,1
0,36,0,5
0,58,102,1
0,72,127,1
0,62,113,7
0,70,87,1
0,58,0,7
0,70,103,7
0,70,0,9
0,27,0,52
0,58,0,28
0,27,0,1
0,58,91,0
0,68,0,0
0,68,0,0
0,27,104,1
0,27,87,0
0,65,70,0
0,65,76,0
0,36,104,0
0,36,0,10
0,39,104,1
0,27,104,0
0,36,80,0
0,36,0,10
0,70,0,89
0,62,113,189
0,62,0,10
0,63,99,70
0,63,0,39
0,58,0,67
0,27,0,5
0,65,0,0
0,65,0,0
0,48,88,1
0,70,87,0
0,75,65,0
0,36,94,0
0,65,105,0
0,39,0,4
0,70,0,5
0,36,0,1
0,36,75,7
0,63,96,1
0,70,0,30
0,75,0,0
0,48,0,6
0,50,88,9
0,69,86,0
0,36,81,0
0,63,0,4
0,65,97,1
0,36,0,5
0,62,93,182
0,62,0,10
0,53,81,38
0,72,77,0
0,50,0,21
0,69,0,7
0,77,67,5
0,70,127,15
0,41,86,48
0,70,0,30
0,29,97,18
0,70,127,0
0,36,83,0
0,36,0,10
0,70,110,12
0,70,110,1
0,70,0,35
0,70,110,31
0,36,71,0
0,36,0,10
0,70,127,11
0,62,95,0
0,62,0,10
0,70,110,13
0,70,127,2
0,62,93,0
0,62,0,10
0,70,0,26
0,70,110,60
0,65,0,23
0,70,0,2
0,70,127,23
0,70,0,21
0,70,110,27
0,36,83,0
0,36,0,10
0,70,0,33
0,70,127,53
0,70,0,34
0,70,110,62
0,70,0,40
0,70,110,56
0,36,83,0
0,36,0,10
0,70,0,13
0,70,127,73
0,70,0,124
0,67,127,20
0,62,75,48
0,62,0,10
0,67,0,85
0,68,110,1
0,77,0,60
0,53,0,7
0,41,0,7
0,72,0,0
0,68,0,5
0,39,49,17
0,63,51,0
0,39,71,0
0,63,73,0
0,70,104,0
0,55,96,0
0,36,91,0
0,54,61,0
0,82,95,0
0,29,0,9
0,36,0,1
0,54,0,0
0,82,0,36
0,54,31,50
0,87,68,0
0,51,71,0
0,54,0,10
0,51,0,7
0,87,0,25
0,54,53,54
0,94,100,0
0,51,63,0
0,58,73,0
0,54,0,10
0,51,0,11
0,58,0,5
0,94,0,26
0,36,100,44
0,54,30,0
0,36,0,10
0,54,0,0
0,63,101,10
0,54,59,1
0,51,68,0
0,58,65,0
0,54,36,9
0,51,73,0
0,58,73,0
0,54,0,10
0,51,0,11
0,58,0,2
0,63,0,2
0,65,103,1
0,54,53,70
0,54,0,10
0,65,0,27
0,67,102,8
0,70,0,42
0,54,28,9
0,54,0,10
0,67,0,58
0,65,108,3
0,39,0,9
0,39,0,0
0,38,76,3
0,38,98,0
0,55,0,5
0,53,71,5
0,36,94,3
0,54,76,0
0,36,0,10
0,54,0,0
0,54,36,86
0,50,88,0
0,58,73,0
0,65,0,5
0,67,107,8
0,50,0,0
0,54,61,10
0,50,86,0
0,58,76,0
0,36,100,35
0,54,46,0
0,36,0,10
0,54,0,0
0,62,54,1
0,62,76,0
0,54,41,12
0,50,81,0
0,58,73,0
0,54,0,10
0,54,34,35
0,50,91,0
0,58,73,0
0,54,0,10
0,50,0,10
0,58,0,11
0,54,61,65
0,62,97,0
0,54,0,10
0,62,0,0
0,54,38,10
0,54,0,10
0,36,81,1
0,36,103,0
0,53,0,4
0,56,81,4
0,63,49,3
0,63,71,0
0,36,86,7
0,54,40,0
0,84,91,0
0,62,0,7
0,62,0,0
0,36,0,3
0,54,0,0
0,84,0,34
0,54,29,52
0,87,91,0
0,51,71,0
0,58,71,0
0,54,0,10
0,51,0,11
0,58,0,7
0,87,0,13
0,54,61,55
0,94,100,0
0,51,65,0
0,58,65,0
0,54,0,10
0,51,0,12
0,58,0,6
0,94,0,10
0,36,98,58
0,54,34,0
0,36,0,10
0,54,0,0
0,63,106,24
0,63,0,20
0,63,106,27
0,54,38,15
0,51,71,0
0,58,49,0
0,54,0,10
0,51,0,14
0,58,0,6
0,63,0,53
0,65,101,1
0,54,31,12
0,51,68,0
0,58,71,0
0,54,0,10
0,51,0,14
0,58,0,8
0,65,0,55
0,67,102,1
0,54,65,8
0,62,104,0
0,54,0,10
0,62,0,0
0,67,0,81
0,65,108,1
0,54,31,4
0,54,0,10
0,56,0,70
0,53,87,5
0,36,0,3
0,36,0,0
0,34,64,1
0,34,86,0
0,36,94,7
0,54,61,0
0,36,0,10
0,54,0,0
0,65,0,44
0,65,105,30
0,54,33,12
0,53,94,0
0,58,76,0
0,54,0,10
0,58,0,17
0,53,0,1
0,65,0,36
0,54,63,32
0,53,88,0
0,58,71,0
0,65,107,3
0,54,0,7
0,53,0,21
0,58,0,1
0,36,98,64
0,54,36,0
0,36,0,10
0,54,0,0
0,62,52,6
0,62,74,0
0,54,45,9
0,50,73,0
0,58,76,0
0,54,0,10
0,54,34,16
0,50,81,0
0,58,83,0
0,54,0,10
0,54,65,66
0,62,97,0
0,54,36,75
0,54,0,10
0,55,81,67
0,34,0,8
0,34,0,0
0,39,58,1
0,39,80,0
0,62,0,3
0,62,0,0
0,53,0,2
0,63,34,1
0,63,56,0
0,36,91,4
0,54,61,0
0,82,95,0
0,36,0,10
0,54,0,0
0,82,0,25
0,54,34,61
0,87,59,0
0,51,68,0
0,58,71,0
0,54,0,10
0,51,0,8
0,58,0,6
0,87,0,17
0,54,61,55
0,94,95,0
0,51,61,0
0,58,65,0
0,54,0,10
0,51,0,8
0,58,0,8
0,94,0,22
0,36,99,48
0,54,31,0
0,36,0,10
0,54,0,0
0,63,104,4
0,54,41,5
0,51,65,0
0,58,53,0
0,54,37,24
0,51,71,0
0,58,91,0
0,54,0,10
0,51,0,10
0,58,0,6
0,63,0,2
0,65,99,4
0,54,68,64
0,54,0,10
0,65,0,40
0,67,101,1
0,54,33,45
0,54,0,10
0,67,0,63
0,65,104,3
0,39,0,9
0,39,0,0
0,38,81,1
0,38,103,0
0,55,0,5
0,53,68,1
0,36,91,4
0,54,47,0
0,36,0,10
0,54,0,0
0,54,33,86
0,50,77,0
0,58,61,0
0,54,0,10
0,50,0,13
0,58,0,3
0,65,0,43
0,67,103,3
