track,note,velocity,time
0,79,96,0
0,71,96,0
0,62,96,0
0,79,96,0
0,71,96,0
0,62,96,0
0,67,96,0
0,55,96,0
0,43,96,0
0,74,96,30
0,74,96,0
0,62,96,0
0,50,96,0
0,38,96,0
0,79,96,3
0,79,96,0
0,67,96,0
0,55,96,0
0,43,96,0
0,74,96,30
0,74,96,0
0,62,96,0
0,50,96,0
0,38,96,0
0,79,96,3
0,79,96,0
0,67,96,0
0,55,96,0
0,43,96,0
0,74,96,3
0,74,96,0
0,62,96,0
0,50,96,0
0,38,96,0
0,79,96,3
0,79,96,0
0,67,96,0
0,55,96,0
0,43,96,0
0,83,96,3
0,83,96,0
0,71,96,0
0,59,96,0
0,47,96,0
0,86,96,3
0,86,96,0
0,74,96,0
0,62,96,0
0,50,96,0
0,84,96,54
0,84,96,0
0,72,96,0
0,60,96,0
0,48,96,0
0,81,96,30
0,81,96,0
0,69,96,0
0,57,96,0
0,45,96,0
0,84,96,3
0,84,96,0
0,72,96,0
0,60,96,0
0,48,96,0
0,81,96,30
0,81,96,0
0,69,96,0
0,57,96,0
0,45,96,0
0,84,96,3
0,84,96,0
0,72,96,0
0,60,96,0
0,48,96,0
0,81,96,3
0,81,96,0
0,69,96,0
0,57,96,0
0,45,96,0
0,78,96,3
0,78,96,0
0,66,96,0
0,54,96,0
0,42,96,0
0,81,96,3
0,81,96,0
0,69,96,0
0,57,96,0
0,45,96,0
0,74,96,3
0,74,96,0
0,62,96,0
0,50,96,0
0,38,96,0
0,79,96,54
0,71,96,0
0,62,96,0
0,62,96,0
0,59,96,0
0,67,96,0
0,55,96,0
0,43,96,0
0,62,96,2
0,59,96,0
0,62,96,2
0,59,96,0
0,67,96,0
0,55,96,0
0,43,96,0
0,62,96,2
0,59,96,0
0,79,96,2
0,62,96,0
0,59,96,0
0,67,96,0
0,55,96,0
0,43,96,0
0,62,96,2
0,59,96,0
0,62,96,2
0,59,96,0
0,67,96,0
0,55,96,0
0,43,96,0
0,62,96,2
0,59,96,0
0,62,96,2
0,59,96,0
0,67,96,0
0,55,96,0
0,43,96,0
0,62,96,2
0,59,96,0
0,83,96,2
0,62,96,0
0,59,96,0
0,67,96,0
0,55,96,0
0,43,96,0
0,62,96,2
0,59,96,0
0,81,96,0
0,62,96,0
0,59,96,0
0,67,96,0
0,55,96,0
0,43,96,0
0,62,96,2
0,59,96,0
0,79,96,2
0,62,96,0
0,59,96,0
0,67,96,0
0,55,96,0
0,43,96,0
0,62,96,2
0,59,96,0
0,81,96,2
0,62,96,0
0,60,96,0
0,69,96,0
0,55,96,0
0,43,96,0
0,79,96,0
0,81,96,0
0,62,96,0
0,60,96,0
0,79,96,0
0,78,96,0
0,62,96,0
0,60,96,0
0,69,96,0
0,55,96,0
0,43,96,0
0,62,96,2
0,60,96,0
0,78,96,2
0,62,96,0
0,60,96,0
0,69,96,0
0,55,96,0
0,43,96,0
0,62,96,2
0,60,96,0
0,62,96,2
0,60,96,0
0,69,96,0
0,55,96,0
0,43,96,0
0,62,96,2
0,60,96,0
0,62,96,2
0,60,96,0
0,69,96,0
0,55,96,0
0,43,96,0
0,62,96,2
0,60,96,0
0,81,96,2
0,62,96,0
0,60,96,0
0,72,96,0
0,55,96,0
0,43,96,0
0,62,96,2
0,60,96,0
0,84,96,0
0,62,96,0
0,60,96,0
0,66,96,0
0,55,96,0
0,43,96,0
0,62,96,2
0,60,96,0
0,78,96,2
0,62,96,0
0,60,96,0
0,69,96,0
0,55,96,0
0,43,96,0
0,62,96,0
0,60,96,0
0,81,96,2
0,62,96,0
0,59,96,0
0,67,96,0
0,55,96,0
0,43,96,0
0,62,96,2
0,59,96,0
0,79,96,0
0,62,96,0
0,59,96,0
0,67,96,0
0,55,96,0
0,43,96,0
0,62,96,2
0,59,96,0
0,79,96,2
0,62,96,0
0,59,96,0
0,67,96,0
0,55,96,0
0,43,96,0
0,62,96,2
0,59,96,0
0,62,96,2
0,59,96,0
0,67,96,0
0,55,96,0
0,43,96,0
0,62,96,2
0,59,96,0
0,62,96,2
0,59,96,0
0,67,96,0
0,55,96,0
0,43,96,0
0,62,96,2
0,59,96,0
0,83,96,2
0,62,96,0
0,59,96,0
0,67,96,0
0,55,96,0
0,43,96,0
0,62,96,2
0,59,96,0
0,81,96,0
0,62,96,0
0,59,96,0
0,67,96,0
0,55,96,0
0,43,96,0
0,62,96,2
0,59,96,0
0,79,96,2
0,62,96,0
0,59,96,0
0,67,96,0
0,55,96,0
0,43,96,0
0,62,96,0
0,59,96,0
0,81,96,2
0,62,96,0
0,60,96,0
0,69,96,0
0,55,96,0
0,43,96,0
0,79,96,0
0,81,96,0
0,62,96,0
0,60,96,0
0,79,96,0
0,78,96,0
0,62,96,0
0,60,96,0
0,69,96,0
0,55,96,0
0,43,96,0
0,62,96,2
0,60,96,0
0,78,96,2
0,62,96,0
0,60,96,0
0,69,96,0
0,55,96,0
0,43,96,0
0,62,96,2
0,60,96,0
0,62,96,2
0,60,96,0
0,69,96,0
0,55,96,0
0,43,96,0
0,62,96,2
0,60,96,0
0,62,96,2
0,60,96,0
0,69,96,0
0,55,96,0
0,43,96,0
0,62,96,2
0,60,96,0
0,81,96,2
0,62,96,0
0,60,96,0
0,72,96,0
0,55,96,0
0,43,96,0
0,62,96,2
0,60,96,0
0,84,96,0
0,62,96,0
0,60,96,0
0,66,96,0
0,55,96,0
0,43,96,0
0,62,96,2
0,60,96,0
0,78,96,2
0,62,96,0
0,60,96,0
0,69,96,0
0,55,96,0
0,43,96,0
0,62,96,0
0,60,96,0
0,79,96,2
0,62,96,0
0,59,96,0
0,62,96,0
0,55,96,0
0,43,96,0
0,62,96,0
0,79,96,2
0,62,96,0
0,55,96,0
0,43,96,0
0,62,96,0
0,79,96,2
0,72,96,0
0,62,96,0
0,57,96,0
0,45,96,0
0,78,96,0
0,62,96,0
0,76,96,0
0,72,96,0
0,62,96,0
0,57,96,0
0,45,96,0
0,78,96,0
0,62,96,0
0,79,96,2
0,74,96,0
0,62,96,0
0,59,96,0
0,47,96,0
0,62,96,0
0,79,96,2
0,74,96,0
0,62,96,0
0,59,96,0
0,47,96,0
0,62,96,0
0,83,96,2
0,72,96,0
0,62,96,0
0,54,96,0
0,42,96,0
0,81,96,0
0,62,96,0
0,79,96,0
0,71,96,0
0,62,96,0
0,54,96,0
0,42,96,0
0,81,96,0
0,69,96,0
0,62,96,0
0,83,96,2
0,67,96,0
0,62,96,0
0,55,96,0
0,43,96,0
0,62,96,0
0,83,96,2
0,67,96,0
0,62,96,0
0,55,96,0
0,43,96,0
0,62,96,0
0,86,96,2
0,66,96,0
0,62,96,0
0,57,96,0
0,45,96,0
0,84,96,0
0,62,96,0
0,83,96,0
0,66,96,0
0,62,96,0
0,57,96,0
0,45,96,0
0,84,96,0
0,62,96,0
0,86,96,2
0,67,96,0
0,62,96,0
0,59,96,0
0,47,96,0
0,74,80,54
0,71,80,0
0,76,80,0
0,72,80,0
0,74,80,12
0,71,80,0
0,54,80,0
0,50,80,0
0,38,80,0
0,72,80,0
0,69,80,0
0,72,80,5
0,69,80,0
0,72,80,6
0,69,80,0
0,55,80,0
0,52,80,0
0,40,80,0
0,71,80,0
0,67,80,0
0,71,80,5
0,67,80,0
0,71,80,6
0,64,80,0
0,60,80,0
0,48,80,0
0,36,80,0
0,69,80,0
0,69,80,5
0,64,80,0
0,60,80,0
0,48,80,0
0,36,80,0
0,67,80,6
0,60,80,0
0,57,80,0
0,50,80,0
0,38,80,0
0,66,80,0
0,64,80,3
0,57,80,0
0,50,80,0
0,50,80,0
0,38,80,0
0,66,80,12
0,67,80,6
0,62,80,0
0,50,80,0
0,47,80,0
0,35,80,0
0,69,80,27
0,66,80,0
0,62,80,0
0,50,80,0
0,38,80,0
0,71,80,27
0,67,80,0
0,62,80,0
0,55,80,0
0,43,80,0
0,74,80,54
0,71,80,0
0,76,80,0
0,72,80,0
0,74,80,12
0,71,80,0
0,66,80,0
0,50,80,0
0,38,80,0
0,72,80,0
0,69,80,0
0,72,80,3
0,69,80,0
0,72,80,12
0,69,80,0
0,72,80,12
0,69,80,0
0,67,80,0
0,52,80,0
0,40,80,0
0,71,80,0
0,67,80,0
0,71,80,3
0,67,80,0
0,71,80,12
0,67,80,0
0,71,80,12
0,64,80,0
0,60,80,0
0,48,80,0
0,36,80,0
0,69,80,0
0,69,80,3
0,64,80,0
0,60,80,0
0,48,80,0
0,36,80,0
0,69,80,3
0,64,80,0
0,60,80,0
0,67,80,3
0,60,80,0
0,57,80,0
0,50,80,0
0,38,80,0
0,66,80,0
0,64,80,0
0,60,80,0
0,57,80,0
0,50,80,0
0,38,80,0
0,66,80,0
0,60,80,0
0,57,80,0
0,67,112,3
0,55,112,0
0,59,112,0
0,55,112,0
0,55,112,0
0,43,112,0
0,55,96,3
0,55,96,0
0,43,96,0
0,55,96,3
0,55,96,0
0,43,96,0
0,55,96,3
0,55,96,0
0,43,96,0
0,55,80,3
0,55,80,0
0,43,80,0
0,69,80,3
0,60,80,0
0,55,80,0
0,55,80,0
0,43,80,0
0,67,80,0
0,59,80,0
0,66,80,0
0,57,80,0
0,67,80,0
0,59,80,0
0,69,80,0
0,60,80,0
0,55,80,0
0,55,80,0
0,43,80,0
0,66,80,0
0,57,80,0
0,55,80,0
0,55,80,0
0,43,80,0
0,71,112,3
0,67,112,0
0,55,112,0
0,55,112,0
0,43,112,0
0,55,96,3
0,55,96,0
0,43,96,0
0,55,96,3
0,55,96,0
0,43,96,0
0,55,96,3
0,55,96,0
0,43,96,0
0,55,80,3
0,55,80,0
0,43,80,0
0,72,80,3
0,69,80,0
0,55,80,0
0,55,80,0
0,43,80,0
0,71,80,0
0,67,80,0
0,69,80,0
0,66,80,0
0,71,80,0
0,67,80,0
0,72,80,0
0,69,80,0
0,55,80,0
0,55,80,0
0,43,80,0
0,69,80,0
0,66,80,0
0,55,80,0
0,55,80,0
0,43,80,0
0,74,80,3
0,71,80,0
0,55,80,0
0,55,80,0
0,43,80,0
0,74,80,2
0,71,80,0
0,74,80,2
0,71,80,0
0,67,80,0
0,55,80,0
0,43,80,0
0,74,80,2
0,71,80,0
0,74,80,2
0,71,80,0
0,67,80,0
0,55,80,0
0,43,80,0
0,74,80,2
0,71,80,0
0,74,80,2
0,71,80,0
0,67,80,0
0,55,80,0
0,43,80,0
0,74,80,2
0,71,80,0
0,76,84,2
0,72,84,0
0,67,84,0
0,55,84,0
0,43,84,0
0,76,84,2
0,72,84,0
0,76,84,2
0,72,84,0
0,67,84,0
0,55,84,0
0,43,84,0
0,76,84,2
0,72,84,0
0,78,84,2
0,72,84,0
0,69,84,0
0,55,84,0
0,43,84,0
0,78,84,2
0,72,84,0
0,78,84,2
0,72,84,0
0,69,84,0
0,55,84,0
0,43,84,0
0,78,84,2
0,72,84,0
0,79,88,2
0,71,88,0
0,67,88,0
0,55,88,0
0,43,88,0
0,79,88,2
0,71,88,0
0,79,88,2
0,71,88,0
0,67,88,0
0,55,88,0
0,43,88,0
0,79,88,2
0,71,88,0
0,81,88,2
0,74,88,0
0,66,88,0
0,54,88,0
0,42,88,0
0,81,88,2
0,74,88,0
0,81,88,2
0,74,88,0
0,66,88,0
0,54,88,0
0,42,88,0
0,81,88,2
0,74,88,0
0,83,92,2
0,74,92,0
0,67,92,0
0,55,92,0
0,43,92,0
0,83,92,2
0,74,92,0
0,83,92,2
0,74,92,0
0,67,92,0
0,55,92,0
0,43,92,0
0,83,92,2
0,74,92,0
0,85,92,2
0,79,92,0
0,64,92,0
0,52,92,0
0,40,92,0
0,85,92,2
0,79,92,0
0,85,92,2
0,79,92,0
0,64,92,0
0,52,92,0
0,40,92,0
0,85,92,2
0,79,92,0
0,86,96,2
0,78,96,0
0,69,96,0
0,62,96,0
0,50,96,0
0,38,96,0
0,78,96,2
0,69,96,0
0,62,96,0
0,78,96,2
0,69,96,0
0,62,96,0
0,78,96,2
0,69,96,0
0,62,96,0
0,78,96,2
0,69,96,0
0,62,96,0
0,78,96,2
0,69,96,0
0,62,96,0
0,81,96,0
0,78,96,0
0,69,96,0
0,62,96,0
0,78,96,2
0,69,96,0
0,62,96,0
0,85,96,2
0,79,96,0
0,69,96,0
0,64,96,0
0,79,96,2
0,69,96,0
0,64,96,0
0,79,96,2
0,69,96,0
0,64,96,0
0,81,96,0
0,79,96,0
0,69,96,0
0,64,96,0
0,85,96,2
0,79,96,0
0,69,96,0
0,64,96,0
0,79,96,2
0,69,96,0
0,64,96,0
0,79,96,2
0,69,96,0
0,64,96,0
0,81,96,0
0,79,96,0
0,69,96,0
0,64,96,0
0,86,96,2
0,78,96,0
0,69,96,0
0,62,96,0
0,50,96,0
0,38,96,0
0,78,96,2
0,69,96,0
0,62,96,0
0,78,96,2
0,69,96,0
0,62,96,0
0,78,96,2
0,69,96,0
0,62,96,0
0,78,96,2
0,69,96,0
0,62,96,0
0,78,96,2
0,69,96,0
0,62,96,0
0,81,96,0
0,78,96,0
0,69,96,0
0,62,96,0
0,78,96,2
0,69,96,0
0,62,96,0
0,85,96,2
0,79,96,0
0,69,96,0
0,64,96,0
0,79,96,2
0,69,96,0
0,64,96,0
0,79,96,2
0,69,96,0
0,64,96,0
0,81,96,0
0,79,96,0
0,69,96,0
0,64,96,0
0,85,96,2
0,79,96,0
0,69,96,0
0,64,96,0
0,79,96,2
0,69,96,0
0,64,96,0
0,79,96,2
0,69,96,0
0,64,96,0
0,81,96,0
0,79,96,0
0,69,96,0
0,64,96,0
0,86,96,2
0,78,96,0
0,74,96,0
0,66,96,0
0,50,96,0
0,38,96,0
0,86,96,3
0,78,96,0
0,78,96,0
0,74,96,0
0,67,96,0
0,52,96,0
0,40,96,0
0,69,96,3
0,54,96,0
0,42,96,0
0,86,96,3
0,78,96,0
0,78,96,0
0,74,96,0
0,67,96,0
0,52,96,0
0,40,96,0
0,66,96,3
0,50,96,0
0,38,96,0
0,86,96,3
0,78,96,0
0,78,96,0
0,74,96,0
0,67,96,0
0,52,96,0
0,40,96,0
0,69,96,3
0,54,96,0
0,42,96,0
0,86,96,3
0,78,96,0
0,78,96,0
0,74,96,0
0,66,96,0
0,50,96,0
0,38,96,0
0,76,96,0
0,76,96,0
0,71,96,0
0,55,96,0
0,43,96,0
0,86,96,0
0,76,96,0
0,76,96,0
0,74,96,0
0,69,96,0
0,57,96,0
0,45,96,0
0,67,96,3
0,59,96,0
0,47,96,0
0,86,96,3
0,76,96,0
0,76,96,0
0,74,96,0
0,69,96,0
0,57,96,0
0,45,96,0
0,71,96,3
0,55,96,0
0,43,96,0
0,86,96,3
0,76,96,0
0,76,96,0
0,74,96,0
0,69,96,0
0,57,96,0
0,45,96,0
0,68,96,3
0,59,96,0
0,47,96,0
0,86,96,3
0,76,96,0
0,76,96,0
0,74,96,0
0,71,96,0
0,56,96,0
0,44,96,0
0,85,96,3
0,76,96,0
0,76,96,0
0,73,96,0
0,69,96,0
0,57,96,0
0,45,96,0
0,76,96,0
0,73,96,0
0,81,96,3
0,76,96,0
0,73,96,0
0,69,96,0
0,57,96,0
0,45,96,0
0,76,96,0
0,73,96,0
0,86,96,3
0,78,96,0
0,74,96,0
0,69,96,0
0,57,96,0
0,45,96,0
0,78,96,0
0,74,96,0
0,81,96,3
0,78,96,0
0,74,96,0
0,69,96,0
0,57,96,0
0,45,96,0
0,78,96,0
0,74,96,0
0,85,96,3
0,76,96,0
0,73,96,0
0,69,96,0
0,57,96,0
0,45,96,0
0,76,96,0
0,73,96,0
0,81,96,3
0,76,96,0
0,73,96,0
0,69,96,0
0,57,96,0
0,45,96,0
0,76,96,0
0,73,96,0
0,86,96,3
0,78,96,0
0,74,96,0
0,69,96,0
0,57,96,0
0,45,96,0
0,78,96,0
0,74,96,0
0,81,96,3
0,78,96,0
0,74,96,0
0,69,96,0
0,57,96,0
0,45,96,0
0,78,96,0
0,74,96,0
0,85,96,3
0,76,96,0
