track,note,velocity,time
1,43,94,6146
1,43,94,182
1,38,90,194
1,38,90,168
1,43,103,194
1,43,103,164
1,38,86,32
1,43,103,388
1,38,103,8
1,40,103,192
1,40,103,172
1,35,94,36
1,35,86,168
1,40,103,14
1,40,94,154
1,35,94,6
1,40,103,16
1,45,103,26
1,45,90,130
1,40,94,192
1,40,90,174
1,45,103,194
1,45,94,150
1,40,94,192
1,45,94,16
1,40,103,192
1,38,103,6
1,38,112,168
1,33,94,16
1,33,86,162
1,38,112,2
1,38,103,128
1,38,103,100
1,38,103,114
1,43,103,56
1,43,94,164
1,38,94,24
1,38,103,214
1,43,94,16
1,43,78,176
1,38,103,192
1,43,94,8
1,38,94,188
1,40,103,10
1,40,94,180
1,35,94,8
1,35,82,176
1,40,103,6
1,40,94,166
1,35,94,14
1,40,103,388
1,35,90,16
1,36,94,96
1,36,90,160
1,43,94,194
1,43,94,226
1,36,94,30
1,36,82,178
1,43,103,8
1,36,94,32
1,38,103,46
1,38,103,150
1,33,94,192
1,33,86,220
1,38,103,10
1,38,94,146
1,38,94,92
1,38,94,96
1,43,94,16
1,43,94,180
1,38,90,194
1,38,90,168
1,43,103,194
1,43,103,166
1,38,86,32
1,43,103,388
1,38,103,8
1,40,103,192
1,40,103,172
1,35,94,36
1,35,86,168
1,40,103,16
1,40,94,154
1,35,94,8
1,40,103,16
1,45,103,24
1,45,90,132
1,40,94,192
1,40,90,176
1,45,103,192
1,45,94,152
1,40,94,188
1,45,94,18
1,40,103,192
1,38,103,4
1,38,112,168
1,33,94,16
1,33,86,164
1,38,112,2
1,38,103,128
1,38,103,100
1,38,103,112
1,43,103,56
1,43,94,168
1,38,94,22
1,38,103,212
1,43,94,14
1,43,78,174
1,38,103,194
1,43,94,8
1,38,94,192
1,40,103,8
1,40,94,184
1,35,94,10
1,35,82,178
1,40,103,6
1,40,94,166
1,35,94,16
1,40,103,384
1,35,90,16
1,36,94,100
1,36,90,160
1,43,94,192
1,43,94,230
1,36,94,36
1,36,82,184
1,43,103,10
1,36,94,34
1,38,103,42
1,38,103,148
1,33,94,194
1,33,86,214
1,38,103,10
1,38,94,146
1,38,94,88
1,38,94,92
1,36,94,16
1,36,86,218
1,43,94,190
1,36,94,36
1,36,94,194
1,43,94,192
1,38,94,32
1,38,94,198
1,45,86,18
1,38,82,766
1,38,103,182
1,45,90,188
1,36,82,22
1,36,103,206
1,43,94,192
1,36,103,42
1,36,94,210
1,43,94,26
1,36,90,26
1,38,112,124
1,43,94,2854
1,43,94,184
1,38,90,190
1,38,90,170
1,43,103,190
1,43,103,166
1,38,86,36
1,43,103,382
1,38,103,8
1,40,103,192
1,40,103,172
1,35,94,36
1,35,86,166
1,40,103,16
1,40,94,158
1,35,94,8
1,40,103,18
1,45,103,30
1,45,90,132
1,40,94,192
1,40,90,176
1,45,103,192
1,45,94,146
1,40,94,192
1,45,94,16
1,40,103,192
1,38,103,4
1,38,112,168
1,33,94,16
1,33,86,160
1,38,112,2
1,38,103,126
1,38,103,98
1,38,103,110
1,43,103,56
1,43,94,162
1,38,94,20
1,38,103,214
1,43,94,16
1,43,78,176
1,38,103,192
1,43,94,8
1,38,94,188
1,40,103,10
1,40,94,184
1,35,94,10
1,35,82,176
1,40,103,4
1,40,94,164
1,35,94,16
1,40,103,384
1,35,90,16
1,36,94,96
1,36,90,160
1,43,94,192
1,43,94,226
1,36,94,32
1,36,82,178
1,43,103,8
1,36,94,32
1,38,103,44
1,38,103,152
1,33,94,192
1,33,86,214
1,38,103,12
1,38,94,144
1,38,94,90
1,38,94,94
1,43,103,16
1,43,94,182
1,38,94,8
1,38,86,186
1,43,94,194
1,43,94,170
1,38,94,190
1,43,94,380
1,38,103,8
1,40,103,4
1,40,94,166
1,35,90,192
1,35,103,178
1,40,103,6
1,40,103,128
1,35,90,10
1,40,103,30
1,45,94,384
1,45,94,146
1,40,103,10
1,40,94,158
1,45,103,6
1,45,94,174
1,40,103,190
1,45,103,38
1,40,90,24
1,38,121,22
1,43,103,2840
1,43,94,166
1,38,94,22
1,38,103,214
1,43,94,14
1,43,78,176
1,38,103,190
1,43,94,6
1,38,94,190
1,40,103,8
1,40,94,182
1,35,94,8
1,35,82,178
1,40,103,4
1,40,94,166
1,35,94,18
1,40,103,380
1,35,90,16
1,36,94,96
1,36,90,160
1,43,94,192
1,43,94,226
1,36,94,34
1,36,82,178
1,43,103,8
1,36,94,28
1,38,103,44
1,38,103,150
1,33,94,194
1,33,86,218
1,38,103,8
1,38,94,146
1,38,94,90
1,38,94,96
1,43,103,14
1,43,94,182
1,38,94,10
1,38,86,184
1,43,94,192
1,43,94,166
1,38,94,190
1,43,94,378
1,38,103,6
1,40,103,4
1,40,94,170
1,35,90,192
1,35,103,184
1,40,103,8
1,40,103,126
1,35,90,10
1,40,103,34
1,45,94,380
1,45,94,144
1,40,103,8
1,40,94,162
1,45,103,6
1,45,94,170
1,40,103,192
1,45,103,38
1,40,90,26
1,38,121,22
1,43,103,2842
1,43,94,166
1,38,94,24
1,38,103,212
1,43,94,18
1,43,78,174
1,38,103,194
1,43,94,10
1,38,94,192
1,40,103,8
1,40,94,182
1,35,94,10
1,35,82,178
1,40,103,6
1,40,94,162
1,35,94,14
1,40,103,386
1,35,90,16
1,36,94,100
1,36,90,164
1,43,94,188
1,43,94,224
1,36,94,32
1,36,82,178
1,43,103,10
1,36,94,32
1,38,103,40
1,38,103,152
1,33,94,196
1,33,86,216
1,38,103,12
1,38,94,150
1,38,94,88
1,38,94,94
1,43,103,18
1,43,94,162
1,38,94,20
1,38,103,216
1,43,94,14
1,43,78,176
1,38,103,192
1,43,94,8
1,38,94,192
1,40,103,10
1,40,94,178
1,35,94,8
1,35,82,178
1,40,103,4
1,40,94,166
1,35,94,18
1,40,103,384
1,35,90,14
1,36,94,98
1,36,90,160
1,43,94,192
1,43,94,226
1,36,94,28
1,36,82,176
1,43,103,12
1,36,94,32
1,38,103,44
1,38,103,150
1,33,94,196
1,33,86,216
1,38,103,10
1,38,94,148
1,38,94,90
1,38,94,92
1,43,103,16
1,43,94,164
1,38,94,22
1,38,103,212
1,43,94,16
1,43,78,174
1,38,103,196
1,43,94,10
1,38,94,188
1,40,103,8
1,40,94,182
1,35,94,8
1,35,82,176
1,40,103,6
1,40,94,164
1,35,94,14
1,40,103,386
1,35,90,16
1,36,94,96
1,36,90,160
1,43,94,194
1,43,94,228
1,36,94,32
1,36,82,178
1,43,103,10
1,36,94,28
1,38,103,44
1,38,103,152
1,33,94,192
1,33,86,216
1,38,103,12
1,38,94,144
1,38,94,88
1,38,94,96
1,43,103,16
1,43,112,314
1,31,127,320
1,31,121,40
2,79,111,6148
2,74,111,0
2,71,93,2
2,71,93,146
2,79,102,2
2,74,102,2
2,71,93,154
2,76,102,4
2,79,102,0
2,71,102,96
2,79,111,0
2,76,111,2
2,71,120,188
2,79,120,2
2,74,120,2
2,71,85,112
2,71,102,128
2,79,120,2
2,74,120,4
2,71,111,150
2,76,102,2
2,79,120,2
2,74,111,56
2,79,111,4
2,71,127,30
2,79,102,2
2,74,85,0
2,71,111,162
2,76,93,2
2,79,111,4
2,71,111,140
2,79,111,2
2,76,102,0
2,71,102,172
2,75,102,2
2,79,111,2
2,71,111,86
2,76,111,2
2,79,120,2
2,71,93,158
2,79,102,2
2,76,102,4
2,71,102,120
2,76,111,2
2,79,111,0
2,71,102,146
2,79,102,2
2,76,102,2
2,79,111,92
2,76,93,0
2,71,102,2
2,71,102,144
2,76,102,2
2,79,111,2
2,71,111,84
2,79,120,2
2,76,120,0
2,76,111,212
2,72,102,2
2,81,102,2
2,76,102,144
2,72,111,0
2,83,89,2
2,72,93,118
2,76,93,2
2,83,93,2
2,72,93,22
2,76,102,2
2,81,102,2
2,81,102,112
2,76,93,0
2,72,89,0
2,76,102,80
2,83,111,0
2,72,93,0
2,83,102,72
2,72,85,0
2,76,102,0
2,72,93,70
2,83,111,4
2,76,111,0
2,83,120,70
2,72,111,2
2,76,120,0
2,72,102,128
2,81,102,2
2,76,102,2
2,81,120,56
2,72,111,0
2,76,120,0
2,74,120,134
2,86,102,2
2,86,120,160
2,74,120,0
2,86,120,172
2,74,120,0
2,74,127,96
2,86,120,2
2,74,127,160
2,86,111,2
2,86,120,100
2,74,120,2
2,74,127,168
2,86,111,4
2,74,120,80
2,86,127,4
2,71,102,350
2,74,102,2
2,79,102,2
2,79,102,140
2,71,102,0
2,74,102,2
2,71,93,186
2,76,89,0
2,79,102,2
2,79,111,86
2,76,111,0
2,71,111,2
2,71,89,122
2,79,93,2
2,74,102,2
2,79,111,122
2,71,111,2
2,74,111,0
2,74,102,142
2,71,85,2
2,79,93,4
2,76,102,92
2,71,93,2
2,79,111,2
2,71,93,168
2,76,93,2
2,79,102,0
2,71,111,92
2,74,120,0
2,79,120,2
2,71,93,208
2,76,102,2
2,79,111,0
2,71,111,136
2,79,111,4
2,76,85,2
2,71,93,160
2,79,111,2
2,75,102,4
2,71,111,60
2,76,120,2
2,79,120,2
2,79,102,152
2,71,89,2
2,76,102,2
2,79,120,126
2,71,102,0
2,76,111,2
2,71,93,154
2,75,102,0
2,79,111,2
2,76,111,72
2,79,111,4
2,71,102,0
2,67,93,346
2,76,111,4
2,72,93,2
2,72,93,138
2,67,111,4
2,76,102,2
2,69,102,106
2,77,111,2
2,72,89,2
2,67,102,40
2,76,120,2
2,72,102,2
2,76,111,102
2,67,102,0
2,72,102,2
2,67,102,78
2,72,102,2
2,76,111,2
2,69,102,110
2,77,120,4
2,72,85,2
2,67,127,42
2,76,120,2
2,72,111,2
2,72,89,366
2,78,81,0
2,81,93,2
2,74,93,0
2,72,93,152
2,78,81,2
2,74,93,2
2,81,102,2
2,81,85,180
2,74,85,2
2,78,69,0
2,72,85,2
2,81,102,102
2,78,93,4
2,72,89,2
2,74,111,2
2,86,120,248
2,74,120,0
2,86,120,128
2,74,120,2
2,74,120,108
2,86,111,4
2,74,127,102
2,86,127,2
2,74,111,596
2,71,93,0
2,79,111,2
2,71,93,144
2,79,102,2
2,74,102,2
2,71,93,154
2,76,102,2
2,79,102,2
2,71,102,98
2,79,111,0
2,76,111,4
2,71,120,186
2,79,120,2
2,74,120,2
2,71,85,112
2,71,102,126
2,79,120,4
2,74,120,2
2,71,111,148
2,76,102,4
2,79,120,2
2,79,111,60
2,74,111,0
2,71,127,30
2,79,102,2
2,74,85,0
2,76,93,166
2,71,111,0
2,79,111,2
2,71,111,144
2,76,102,2
2,79,111,2
2,71,102,172
2,75,102,2
2,79,111,2
2,71,111,84
2,76,111,0
2,79,120,2
2,71,93,158
2,79,102,2
2,76,102,2
2,76,111,120
2,79,111,0
2,71,102,0
2,71,102,146
2,79,102,2
2,76,102,0
2,79,111,90
2,76,93,2
2,71,102,0
2,71,102,144
2,76,102,0
2,79,111,4
2,71,111,84
2,79,120,2
2,76,120,2
2,72,102,214
2,76,111,4
2,81,102,2
2,76,102,140
2,72,111,0
2,83,89,2
2,72,93,120
2,76,93,2
2,83,93,2
2,72,93,24
2,76,102,2
2,81,102,2
2,76,93,112
2,72,89,2
2,81,102,0
2,76,102,82
2,83,111,2
2,72,93,0
2,83,102,74
2,72,85,0
2,76,102,0
2,72,93,70
2,83,111,4
2,76,111,2
2,83,120,74
2,72,111,0
2,76,120,2
2,72,102,128
2,81,102,2
2,76,102,2
2,76,120,54
2,81,120,2
2,72,111,0
2,72,89,132
2,78,81,2
2,74,93,2
2,81,93,0
2,72,93,150
2,81,102,2
2,74,93,0
2,78,81,2
2,81,85,178
2,74,85,2
2,78,69,0
2,72,85,2
2,81,102,100
2,78,93,2
2,72,89,2
2,74,111,2
2,86,120,250
2,74,120,2
2,74,120,124
2,86,120,2
2,86,111,108
2,74,120,0
2,74,127,98
2,86,127,0
2,79,102,602
2,74,102,0
2,71,102,0
2,79,102,136
2,71,102,4
2,74,102,0
2,71,93,186
2,76,89,0
2,79,102,2
2,71,111,88
2,79,111,0
2,76,111,2
2,71,89,124
2,79,93,4
2,74,102,2
2,71,111,120
2,79,111,2
2,74,111,2
2,74,102,142
2,71,85,4
2,79,93,2
2,76,102,88
2,71,93,2
2,79,111,2
2,71,93,172
2,76,93,2
2,79,102,2
2,79,120,84
2,74,120,0
2,71,111,2
2,71,93,202
2,79,111,2
2,76,102,0
2,71,111,140
2,76,85,2
2,79,111,0
2,75,102,162
2,79,111,0
2,71,93,2
2,71,111,60
2,76,120,4
2,79,120,0
2,71,89,158
2,76,102,2
2,79,102,2
2,71,102,124
2,79,120,0
2,76,111,2
2,71,93,150
2,75,102,2
2,79,111,2
2,76,111,68
2,79,111,2
2,71,102,2
2,67,93,348
2,76,111,2
2,72,102,4
2,76,120,100
2,67,111,0
2,72,102,2
2,69,93,98
2,77,111,2
2,72,89,4
2,67,102,64
2,76,111,2
2,72,93,2
2,67,77,140
2,76,85,2
2,72,85,2
2,76,102,118
2,67,102,2
2,72,93,0
2,69,111,64
2,77,127,2
2,72,111,2
2,67,127,198
2,76,120,2
2,72,120,2
2,67,120,102
2,76,120,0
2,72,111,2
2,81,102,132
2,78,89,4
2,72,102,0
2,74,102,0
2,81,111,164
2,72,93,2
2,74,120,4
2,78,102,0
2,81,93,208
2,78,85,2
2,72,102,2
2,74,102,2
2,72,111,114
2,74,102,4
2,78,93,2
2,81,102,2
2,78,89,232
2,81,111,0
2,72,102,2
2,74,102,2
2,74,111,258
2,86,111,2
2,74,111,122
2,86,120,0
2,74,120,120
2,86,120,2
2,74,120,130
2,86,111,2
2,86,120,116
2,74,127,2
2,86,127,124
2,74,120,2
2,48,102,240
2,55,102,384
2,64,102,4
2,60,93,2
2,43,102,36
2,55,93,330
2,64,102,2
2,60,93,2
2,48,111,378
2,55,102,338
2,64,111,2
2,60,102,2
2,43,102,22
2,55,102,350
2,64,111,2
2,60,111,4
2,50,102,16
2,57,102,382
2,66,93,2
2,62,102,2
2,45,102,16
2,57,102,362
2,66,102,2
2,62,102,2
2,50,102,382
2,57,120,362
2,62,102,2
2,66,102,2
2,45,93,20
2,57,102,332
2,66,111,2
2,62,111,2
2,48,93,32
2,55,102,378
2,64,93,2
2,60,93,4
2,43,102,10
2,55,111,364
2,64,111,2
2,60,102,2
2,48,102,18
2,55,102,366
2,64,111,2
2,60,102,4
2,43,111,26
2,48,120,38
2,50,127,30
2,57,111,2
2,66,111,2
2,62,111,2
2,61,45,86
2,74,111,2852
2,71,93,0
2,79,111,2
2,71,93,144
2,74,102,2
2,79,102,0
2,71,93,152
2,76,102,4
2,79,102,2
2,71,102,96
2,76,111,2
2,79,111,0
2,71,120,190
2,79,120,2
2,74,120,2
2,71,85,110
2,74,120,126
2,79,120,0
2,71,102,2
2,76,102,150
2,71,111,0
2,79,120,2
2,74,111,58
2,79,111,4
2,71,127,26
2,79,102,4
2,74,85,2
2,71,111,162
2,76,93,4
2,79,111,2
2,71,111,142
2,79,111,2
2,76,102,2
2,71,102,172
2,75,102,2
2,79,111,2
2,71,111,86
2,76,111,0
2,79,120,2
2,79,102,152
2,71,93,2
2,76,102,2
2,76,111,122
2,79,111,0
2,71,102,2
2,71,102,144
2,79,102,2
2,76,102,2
2,79,111,92
2,76,93,0
2,71,102,2
2,71,102,148
2,76,102,2
2,79,111,2
2,71,111,86
2,79,120,0
2,76,120,2
2,72,102,220
2,81,102,0
2,76,111,2
2,83,89,138
2,76,102,0
2,72,111,2
2,76,93,118
2,83,93,0
2,72,93,2
2,72,93,22
2,81,102,2
2,76,102,2
2,76,93,112
2,72,89,0
2,81,102,0
2,76,102,80
2,83,111,2
2,72,93,0
2,72,85,74
2,83,102,0
2,76,102,0
2,72,93,70
2,83,111,2
2,76,111,2
2,83,120,72
2,72,111,0
2,76,120,2
2,72,102,128
2,81,102,0
2,76,102,4
2,76,120,58
2,81,120,0
2,72,111,2
2,81,102,132
2,78,89,2
2,74,102,2
2,72,102,0
2,81,111,164
2,72,93,0
