track,note,velocity,time
1,31,127,768
1,31,127,78
1,26,127,96
1,26,127,76
1,31,127,96
1,31,127,70
1,31,127,74
1,30,127,96
1,28,127,14
1,28,127,86
1,23,127,96
1,23,127,76
1,28,127,96
1,28,127,70
1,28,127,82
1,26,127,96
1,24,127,180
1,24,127,82
1,31,127,96
1,24,127,44
1,24,127,42
1,24,127,76
1,24,127,66
1,25,127,96
1,26,127,62
1,26,127,98
1,33,127,96
1,33,127,124
1,26,127,96
1,26,127,86
1,28,127,76
1,30,127,10
1,31,127,64
1,31,127,84
1,26,127,96
1,26,127,88
1,31,127,96
1,31,127,60
1,31,127,70
1,30,127,96
1,28,127,10
1,28,127,96
1,23,127,96
1,23,127,78
1,28,127,96
1,28,127,72
1,28,127,74
1,26,127,96
1,24,127,176
1,24,127,96
1,31,127,96
1,31,127,56
1,24,127,96
1,24,127,82
1,24,127,66
1,25,127,96
1,26,127,64
1,30,127,1256
1,31,127,24
1,31,127,78
1,26,127,96
1,26,127,76
1,31,127,96
1,31,127,70
1,31,127,74
1,30,127,96
1,28,127,14
1,28,127,86
1,23,127,96
1,23,127,76
1,28,127,96
1,28,127,70
1,28,127,82
1,26,127,96
1,24,127,180
1,24,127,82
1,31,127,96
1,24,127,44
1,24,127,42
1,24,127,76
1,24,127,66
1,25,127,96
1,26,127,62
1,26,127,98
1,33,127,96
1,33,127,124
1,26,127,96
1,26,127,86
1,28,127,76
1,30,127,10
1,31,127,64
1,31,127,84
1,26,127,96
1,26,127,88
1,31,127,96
1,31,127,60
1,31,127,70
1,30,127,96
1,28,127,10
1,28,127,96
1,23,127,96
1,23,127,78
1,28,127,96
1,28,127,72
1,28,127,74
1,26,127,96
1,24,127,176
1,24,127,96
1,31,127,96
1,31,127,56
1,24,127,96
1,24,127,82
1,24,127,66
1,25,127,96
1,26,127,64
1,30,127,1256
1,31,127,24
1,31,127,78
1,26,127,96
1,26,127,76
1,31,127,96
1,31,127,70
1,31,127,74
1,30,127,96
1,28,127,14
1,28,127,86
1,23,127,96
1,23,127,76
1,28,127,96
1,28,127,70
1,28,127,82
1,26,127,96
1,24,127,180
1,24,127,82
1,31,127,96
1,24,127,44
1,24,127,42
1,24,127,76
1,24,127,66
1,25,127,96
1,26,127,62
1,26,127,98
1,33,127,96
1,33,127,124
1,26,127,96
1,26,127,86
1,28,127,76
1,30,127,10
1,31,127,64
1,31,127,84
1,26,127,96
1,26,127,88
1,31,127,96
1,31,127,60
1,31,127,70
1,30,127,96
1,28,127,10
1,28,127,96
1,23,127,96
1,23,127,78
1,28,127,96
1,28,127,72
1,28,127,74
1,26,127,96
1,24,127,176
1,24,127,96
1,31,127,96
1,31,127,56
1,24,127,96
1,24,127,82
1,24,127,66
1,25,127,96
1,26,127,64
1,30,127,1256
1,31,127,24
1,31,127,78
1,26,127,96
1,26,127,76
1,31,127,96
1,31,127,70
1,31,127,74
1,30,127,96
1,28,127,14
1,28,127,86
1,23,127,96
1,23,127,76
1,28,127,96
1,28,127,70
1,28,127,82
1,26,127,96
1,24,127,180
1,24,127,82
1,31,127,96
1,24,127,44
1,24,127,42
1,24,127,76
1,24,127,66
1,25,127,96
1,26,127,62
1,26,127,98
1,33,127,96
1,33,127,124
1,26,127,96
1,26,127,86
1,28,127,76
1,30,127,10
1,31,127,64
1,31,127,84
1,26,127,96
1,26,127,88
1,31,127,96
1,31,127,60
1,31,127,70
1,30,127,96
1,28,127,10
1,28,127,96
1,23,127,96
1,23,127,78
1,28,127,96
1,28,127,72
1,28,127,74
1,26,127,96
1,24,127,176
1,24,127,96
1,31,127,96
1,31,127,56
1,24,127,96
1,24,127,82
1,24,127,66
1,25,127,96
1,26,127,64
1,30,127,1256
1,31,127,24
1,31,127,78
1,26,127,96
1,26,127,76
1,31,127,96
1,31,127,70
1,31,127,74
1,30,127,96
1,28,127,14
1,28,127,86
1,23,127,96
1,23,127,76
1,28,127,96
1,28,127,70
1,28,127,82
1,26,127,96
1,24,127,180
1,24,127,82
1,31,127,96
1,24,127,44
1,24,127,42
1,24,127,76
1,24,127,66
1,25,127,96
1,26,127,62
1,26,127,98
1,33,127,96
1,33,127,124
1,26,127,96
1,26,127,86
1,28,127,76
1,30,127,10
1,31,127,64
1,31,127,84
1,26,127,96
1,26,127,88
1,31,127,96
1,31,127,60
1,31,127,70
1,30,127,96
1,28,127,10
1,28,127,96
1,23,127,96
1,23,127,78
1,28,127,96
1,28,127,72
1,28,127,74
1,26,127,96
1,24,127,176
1,24,127,96
1,31,127,96
1,31,127,56
1,24,127,96
1,24,127,82
1,24,127,66
1,25,127,96
1,26,127,64
1,30,127,1256
1,31,127,24
1,31,127,78
1,26,127,96
1,26,127,76
1,31,127,96
1,31,127,70
1,31,127,74
1,30,127,96
1,28,127,14
1,28,127,86
1,23,127,96
1,23,127,76
1,28,127,96
1,28,127,70
1,28,127,82
1,26,127,96
1,24,127,180
1,24,127,82
1,31,127,96
1,24,127,44
1,24,127,42
1,24,127,76
1,24,127,66
1,25,127,96
1,26,127,62
1,26,127,98
1,33,127,96
1,33,127,124
1,26,127,96
1,26,127,86
1,28,127,76
1,30,127,10
1,31,127,64
1,31,127,84
1,26,127,96
1,26,127,88
1,31,127,96
1,31,127,60
1,31,127,70
1,30,127,96
1,28,127,10
1,28,127,96
1,23,127,96
1,23,127,78
1,28,127,96
1,28,127,72
1,28,127,74
1,26,127,96
1,24,127,176
1,24,127,96
1,31,127,96
1,31,127,56
1,24,127,96
1,24,127,82
1,24,127,66
1,25,127,96
1,26,127,64
1,30,127,1256
1,31,127,24
1,31,127,78
1,26,127,96
1,26,127,76
1,31,127,96
1,31,127,70
1,31,127,74
1,30,127,96
1,28,127,14
1,28,127,86
1,23,127,96
1,23,127,76
1,28,127,96
1,28,127,70
1,28,127,82
1,26,127,96
1,24,127,180
1,24,127,82
1,31,127,96
1,24,127,44
1,24,127,42
1,24,127,76
1,24,127,66
1,25,127,96
1,26,127,62
1,26,127,98
1,33,127,96
1,33,127,124
1,26,127,96
1,26,127,86
1,28,127,76
1,30,127,10
1,31,127,64
1,31,127,78
1,26,127,96
1,26,127,76
1,31,127,96
1,31,127,70
1,31,127,74
1,30,127,96
1,28,127,14
1,28,127,86
1,23,127,96
1,23,127,76
1,28,127,96
1,28,127,70
1,28,127,82
1,26,127,96
1,24,127,180
1,24,127,82
1,31,127,96
1,24,127,44
1,24,127,42
1,24,127,76
1,24,127,66
1,25,127,96
1,26,127,62
1,26,127,98
1,33,127,96
1,33,127,124
1,26,127,96
1,26,127,86
1,28,127,76
1,30,127,10
1,31,127,64
1,31,127,78
1,26,127,96
1,26,127,76
1,31,127,96
1,31,127,70
1,31,127,74
1,30,127,96
1,28,127,14
1,28,127,86
1,23,127,96
1,23,127,76
1,28,127,96
1,28,127,70
1,28,127,82
1,26,127,96
1,24,127,180
1,24,127,82
1,31,127,96
1,24,127,44
1,24,127,42
1,24,127,76
1,24,127,66
1,25,127,96
1,26,127,62
1,26,127,98
1,33,127,96
1,33,127,124
1,26,127,96
1,26,127,86
1,28,127,76
1,30,127,10
1,31,127,64
1,26,127,568
1,31,127,96
1,19,127,278
2,70,127,960
2,67,127,0
2,71,127,24
2,70,127,112
2,67,127,0
2,71,127,42
2,67,127,0
2,70,127,0
2,67,127,138
2,70,127,52
2,67,127,0
2,71,127,24
2,70,127,78
2,67,127,0
2,71,127,24
2,67,127,36
2,70,127,0
2,71,127,40
2,67,127,0
2,70,127,420
2,67,127,0
2,71,127,24
2,70,127,86
2,67,127,0
2,71,127,24
2,67,127,0
2,67,127,132
2,67,127,40
2,70,127,0
2,71,127,24
2,70,127,78
2,67,127,0
2,71,127,24
2,70,127,18
2,67,127,0
2,67,127,34
2,71,127,0
2,67,127,424
2,64,127,0
2,64,127,102
2,69,127,0
2,64,127,24
2,67,127,0
2,64,127,242
2,67,127,0
2,64,127,48
2,67,127,0
2,64,127,38
2,69,127,0
2,64,127,48
2,67,127,0
2,69,127,98
2,64,127,0
2,64,127,48
2,67,127,0
2,66,127,306
2,69,127,0
2,66,127,36
2,69,127,0
2,66,127,46
2,71,127,0
2,66,127,40
2,69,127,0
2,66,127,232
2,69,127,0
2,66,127,50
2,69,127,0
2,66,127,36
2,71,127,0
2,66,127,42
2,69,127,0
2,66,127,100
2,71,127,0
2,66,127,44
2,69,127,0
2,70,127,6452
2,67,127,0
2,71,127,24
2,70,127,112
2,67,127,0
2,71,127,42
2,67,127,0
2,70,127,0
2,67,127,138
2,70,127,52
2,67,127,0
2,71,127,24
2,70,127,78
2,67,127,0
2,71,127,24
2,67,127,36
2,70,127,0
2,71,127,40
2,67,127,0
2,70,127,420
2,67,127,0
2,71,127,24
2,70,127,86
2,67,127,0
2,71,127,24
2,67,127,0
2,67,127,132
2,67,127,40
2,70,127,0
2,71,127,24
2,70,127,78
2,67,127,0
2,71,127,24
2,70,127,18
2,67,127,0
2,67,127,34
2,71,127,0
2,67,127,424
2,64,127,0
2,64,127,102
2,69,127,0
2,64,127,24
2,67,127,0
2,64,127,242
2,67,127,0
2,64,127,48
2,67,127,0
2,64,127,38
2,69,127,0
2,64,127,48
2,67,127,0
2,69,127,98
2,64,127,0
2,64,127,48
2,67,127,0
2,66,127,306
2,69,127,0
2,66,127,36
2,69,127,0
2,66,127,46
2,71,127,0
2,66,127,40
2,69,127,0
2,66,127,232
2,69,127,0
2,66,127,50
2,69,127,0
2,66,127,36
2,71,127,0
2,66,127,42
2,69,127,0
2,66,127,100
2,71,127,0
2,66,127,44
2,69,127,0
2,70,127,6452
2,67,127,0
2,71,127,24
2,70,127,112
2,67,127,0
2,71,127,42
2,67,127,0
2,70,127,0
2,67,127,138
2,70,127,52
2,67,127,0
2,71,127,24
2,70,127,78
2,67,127,0
2,71,127,24
2,67,127,36
2,70,127,0
2,71,127,40
2,67,127,0
2,70,127,420
2,67,127,0
2,71,127,24
2,70,127,86
2,67,127,0
2,71,127,24
2,67,127,0
2,67,127,132
2,67,127,40
2,70,127,0
2,71,127,24
2,70,127,78
2,67,127,0
2,71,127,24
2,70,127,18
2,67,127,0
2,67,127,34
2,71,127,0
2,67,127,424
2,64,127,0
2,64,127,102
2,69,127,0
2,64,127,24
2,67,127,0
2,64,127,242
2,67,127,0
2,64,127,48
2,67,127,0
2,64,127,38
2,69,127,0
2,64,127,48
2,67,127,0
2,69,127,98
2,64,127,0
2,64,127,48
2,67,127,0
2,66,127,306
2,69,127,0
2,66,127,36
2,69,127,0
2,66,127,46
2,71,127,0
2,66,127,40
2,69,127,0
2,66,127,232
2,69,127,0
2,66,127,50
2,69,127,0
2,66,127,36
2,71,127,0
2,66,127,42
2,69,127,0
2,66,127,100
2,71,127,0
2,66,127,44
2,69,127,0
2,70,127,6452
2,67,127,0
2,71,127,24
2,70,127,112
2,67,127,0
2,71,127,42
2,67,127,0
2,70,127,0
2,67,127,138
2,70,127,52
2,67,127,0
2,71,127,24
2,70,127,78
2,67,127,0
2,71,127,24
2,67,127,36
2,70,127,0
2,71,127,40
2,67,127,0
2,70,127,420
2,67,127,0
2,71,127,24
2,70,127,86
2,67,127,0
2,71,127,24
2,67,127,0
2,67,127,132
2,67,127,40
2,70,127,0
2,71,127,24
2,70,127,78
2,67,127,0
2,71,127,24
2,70,127,18
2,67,127,0
2,67,127,34
2,71,127,0
2,67,127,424
2,64,127,0
2,64,127,102
2,69,127,0
2,64,127,24
2,67,127,0
2,64,127,242
2,67,127,0
2,64,127,48
2,67,127,0
2,64,127,38
2,69,127,0
2,64,127,48
2,67,127,0
2,69,127,98
2,64,127,0
2,64,127,48
2,67,127,0
2,66,127,306
2,69,127,0
2,66,127,36
2,69,127,0
2,66,127,46
2,71,127,0
2,66,127,40
2,69,127,0
2,66,127,232
2,69,127,0
2,66,127,50
2,69,127,0
2,66,127,36
2,71,127,0
2,66,127,42
2,69,127,0
2,66,127,100
2,71,127,0
2,66,127,44
2,69,127,0
2,70,127,6452
2,67,127,0
2,71,127,24
2,70,127,112
2,67,127,0
2,71,127,42
2,67,127,0
2,70,127,0
2,67,127,138
2,70,127,52
2,67,127,0
2,71,127,24
2,70,127,78
2,67,127,0
2,71,127,24
2,67,127,36
2,70,127,0
2,71,127,40
2,67,127,0
2,70,127,420
2,67,127,0
2,71,127,24
2,70,127,86
2,67,127,0
2,71,127,24
2,67,127,0
2,67,127,132
2,67,127,40
2,70,127,0
2,71,127,24
2,70,127,78
2,67,127,0
2,71,127,24
2,70,127,18
2,67,127,0
2,67,127,34
2,71,127,0
2,67,127,424
2,64,127,0
2,64,127,102
2,69,127,0
2,64,127,24
2,67,127,0
2,64,127,242
2,67,127,0
2,64,127,48
2,67,127,0
2,64,127,38
2,69,127,0
2,64,127,48
2,67,127,0
2,69,127,98
2,64,127,0
2,64,127,48
2,67,127,0
2,66,127,306
2,69,127,0
2,66,127,36
2,69,127,0
2,66,127,46
2,71,127,0
2,66,127,40
2,69,127,0
2,66,127,232
2,69,127,0
2,66,127,50
2,69,127,0
2,66,127,36
2,71,127,0
2,66,127,42
2,69,127,0
2,66,127,100
2,71,127,0
2,66,127,44
2,69,127,0
2,70,127,6452
2,67,127,0
2,71,127,24
2,70,127,112
2,67,127,0
2,71,127,42
2,67,127,0
2,70,127,0
2,67,127,138
2,70,127,52
2,67,127,0
2,71,127,24
2,70,127,78
2,67,127,0
2,71,127,24
2,67,127,36
2,70,127,0
2,71,127,40
2,67,127,0
2,70,127,420
2,67,127,0
2,71,127,24
2,70,127,86
2,67,127,0
2,71,127,24
2,67,127,0
2,67,127,132
2,67,127,40
2,70,127,0
2,71,127,24
2,70,127,78
2,67,127,0
2,71,127,24
2,70,127,18
2,67,127,0
2,67,127,34
2,71,127,0
2,67,127,424
2,64,127,0
2,64,127,102
2,69,127,0
2,64,127,24
2,67,127,0
2,64,127,242
2,67,127,0
2,64,127,48
2,67,127,0
2,64,127,38
2,69,127,0
2,64,127,48
2,67,127,0
2,69,127,98
2,64,127,0
2,64,127,48
2,67,127,0
2,66,127,306
2,69,127,0
2,66,127,36
2,69,127,0
2,66,127,46
2,71,127,0
2,66,127,40
2,69,127,0
2,66,127,232
2,69,127,0
2,66,127,50
2,69,127,0
2,66,127,36
2,71,127,0
2,66,127,42
2,69,127,0
2,66,127,100
2,71,127,0
2,66,127,44
2,69,127,0
2,70,127,6452
2,67,127,0
2,71,127,24
2,70,127,112
2,67,127,0
2,71,127,42
2,67,127,0
2,70,127,0
2,67,127,138
2,70,127,52
2,67,127,0
2,71,127,24
2,70,127,78
2,67,127,0
2,71,127,24
2,67,127,36
2,70,127,0
2,71,127,40
2,67,127,0
2,70,127,420
2,67,127,0
2,71,127,24
2,70,127,86
2,67,127,0
2,71,127,24
2,67,127,0
2,67,127,132
2,67,127,40
2,70,127,0
2,71,127,24
2,70,127,78
2,67,127,0
2,71,127,24
2,70,127,18
2,67,127,0
2,67,127,34
2,71,127,0
2,67,127,424
2,64,127,0
2,64,127,102
2,69,127,0
2,64,127,24
2,67,127,0
2,64,127,242
2,67,127,0
2,64,127,48
2,67,127,0
2,64,127,38
2,69,127,0
2,64,127,48
2,67,127,0
2,69,127,98
2,64,127,0
2,64,127,48
2,67,127,0
2,66,127,306
2,69,127,0
2,66,127,36
2,69,127,0
2,66,127,46
2,71,127,0
2,66,127,40
2,69,127,0
2,66,127,232
2,69,127,0
2,66,127,50
2,69,127,0
2,66,127,36
2,71,127,0
2,66,127,42
2,69,127,0
2,66,127,100
2,71,127,0
2,66,127,44
2,69,127,0
2,70,127,308
2,67,127,0
2,71,127,24
2,70,127,112
2,67,127,0
2,71,127,42
2,67,127,0
2,70,127,0
2,67,127,138
2,70,127,52
2,67,127,0
2,71,127,24
2,70,127,78
2,67,127,0
2,71,127,24
2,67,127,36
2,70,127,0
2,71,127,40
2,67,127,0
2,70,127,420
2,67,127,0
2,71,127,24
2,70,127,86
2,67,127,0
2,71,127,24
2,67,127,0
2,67,127,132
