track,note,velocity,time
1,57,100,8256
1,61,100,0
1,62,100,0
1,67,100,0
1,62,100,0
1,61,100,0
1,57,100,0
1,57,100,1728
1,61,100,0
1,62,100,0
1,67,100,0
1,62,100,0
1,61,100,0
1,57,100,0
1,57,100,1728
1,61,100,0
1,62,100,0
1,61,100,0
1,57,100,0
1,57,100,192
1,61,100,0
1,62,100,0
1,61,100,0
1,57,100,0
1,57,100,960
1,61,100,0
1,62,100,0
1,67,100,0
1,62,100,0
1,61,100,0
1,57,100,0
1,57,100,192
1,61,100,0
1,62,100,0
1,67,100,0
1,62,100,0
1,61,100,0
1,57,100,0
1,57,100,1728
1,61,100,0
1,62,100,0
1,61,100,0
1,57,100,0
1,57,100,576
1,61,100,0
1,62,100,0
1,67,100,0
1,62,100,0
1,61,100,0
1,57,100,0
1,61,100,37248
1,57,100,0
1,61,100,0
1,62,100,0
1,67,100,0
1,62,100,0
1,61,100,0
1,57,100,0
1,52,100,0
1,56,110,0
1,59,110,0
1,64,110,0
1,57,100,130944
1,61,100,0
1,62,100,0
1,67,100,0
1,62,100,0
1,61,100,0
1,57,100,0
1,57,100,1728
1,61,100,0
1,62,100,0
1,67,100,0
1,62,100,0
1,61,100,0
1,57,100,0
1,57,100,1728
1,61,100,0
1,62,100,0
1,67,100,0
1,62,100,0
1,61,100,0
1,57,100,0
1,57,100,1728
1,61,100,0
1,62,100,0
1,67,100,0
1,62,100,0
1,61,100,0
1,57,100,0
1,57,100,32448
1,61,100,0
1,62,100,0
1,61,100,0
1,57,100,0
1,57,100,192
1,61,100,0
1,62,99,0
1,61,98,0
1,57,97,0
1,57,90,960
1,61,89,0
1,62,88,0
1,61,87,0
1,57,86,0
1,57,83,192
1,61,82,0
1,62,81,0
1,61,80,0
1,57,79,0
1,57,72,960
1,61,71,0
1,62,69,0
1,61,68,0
1,57,67,0
1,57,65,192
1,61,64,0
1,62,63,0
1,61,61,0
1,57,60,0
1,57,53,960
1,61,52,0
1,62,51,0
1,61,50,0
1,57,49,0
1,57,46,192
1,61,45,0
1,62,44,0
1,61,43,0
1,57,42,0
1,57,35,960
1,61,34,0
1,62,33,0
1,61,32,0
1,57,30,0
1,57,28,192
1,61,27,0
1,62,26,0
1,61,25,0
1,57,24,0
1,57,17,960
1,61,15,0
1,62,14,0
1,61,13,0
1,57,12,0
1,57,10,192
1,61,9,0
1,62,7,0
1,61,6,0
1,57,5,0
2,57,100,8256
2,61,100,0
2,62,100,0
2,67,100,0
2,62,100,0
2,61,100,0
2,57,100,0
2,57,100,1728
2,61,100,0
2,62,100,0
2,67,100,0
2,62,100,0
2,61,100,0
2,57,100,0
2,57,100,1728
2,61,100,0
2,62,100,0
2,61,100,0
2,57,100,0
2,57,100,192
2,61,100,0
2,62,100,0
2,61,100,0
2,57,100,0
2,57,100,960
2,61,100,0
2,62,100,0
2,67,100,0
2,62,100,0
2,61,100,0
2,57,100,0
2,57,100,192
2,61,100,0
2,62,100,0
2,67,100,0
2,62,100,0
2,61,100,0
2,57,100,0
2,57,100,1728
2,61,100,0
2,62,100,0
2,61,100,0
2,57,100,0
2,57,100,576
2,61,100,0
2,62,100,0
2,67,100,0
2,62,100,0
2,61,100,0
2,57,100,0
2,57,100,215232
2,61,100,0
2,62,100,0
2,67,100,0
2,62,100,0
2,61,100,0
2,57,100,0
2,57,100,1728
2,61,100,0
2,62,100,0
2,67,100,0
2,62,100,0
2,61,100,0
2,57,100,0
2,57,100,1728
2,61,100,0
2,62,100,0
2,67,100,0
2,62,100,0
2,61,100,0
2,57,100,0
2,57,100,1728
2,61,100,0
2,62,100,0
2,67,100,0
2,62,100,0
2,61,100,0
2,57,100,0
2,57,100,32448
2,61,100,0
2,62,100,0
2,61,100,0
2,57,100,0
2,57,100,192
2,61,100,0
2,62,99,0
2,61,98,0
2,57,97,0
2,57,90,960
2,61,89,0
2,62,88,0
2,61,87,0
2,57,86,0
2,57,83,192
2,61,82,0
2,62,81,0
2,61,80,0
2,57,79,0
2,57,72,960
2,61,71,0
2,62,69,0
2,61,68,0
2,57,67,0
2,57,65,192
2,61,64,0
2,62,63,0
2,61,61,0
2,57,60,0
2,57,53,960
2,61,52,0
2,62,51,0
2,61,50,0
2,57,49,0
2,57,46,192
2,61,45,0
2,62,44,0
2,61,43,0
2,57,42,0
2,57,35,960
2,61,34,0
2,62,33,0
2,61,32,0
2,57,30,0
2,57,28,192
2,61,27,0
2,62,26,0
2,61,25,0
2,57,24,0
2,57,17,960
2,61,15,0
2,62,14,0
2,61,13,0
2,57,12,0
2,57,10,192
2,61,9,0
2,62,7,0
2,61,6,0
2,57,5,0
3,57,100,8256
3,61,100,0
3,62,100,0
3,67,100,0
3,62,100,0
3,61,100,0
3,57,100,0
3,57,100,1728
3,61,100,0
3,62,100,0
3,67,100,0
3,62,100,0
3,61,100,0
3,57,100,0
3,57,100,1728
3,61,100,0
3,62,100,0
3,61,100,0
3,57,100,0
3,57,100,192
3,61,100,0
3,62,100,0
3,61,100,0
3,57,100,0
3,57,100,960
3,61,100,0
3,62,100,0
3,67,100,0
3,62,100,0
3,61,100,0
3,57,100,0
3,57,100,192
3,61,100,0
3,62,100,0
3,67,100,0
3,62,100,0
3,61,100,0
3,57,100,0
3,57,100,1728
3,61,100,0
3,62,100,0
3,61,100,0
3,57,100,0
3,57,100,576
3,61,100,0
3,62,100,0
3,67,100,0
3,62,100,0
3,61,100,0
3,57,100,0
3,57,100,215232
3,61,100,0
3,62,100,0
3,67,100,0
3,62,100,0
3,61,100,0
3,57,100,0
3,57,100,1728
3,61,100,0
3,62,100,0
3,67,100,0
3,62,100,0
3,61,100,0
3,57,100,0
3,57,100,1728
3,61,100,0
3,62,100,0
3,67,100,0
3,62,100,0
3,61,100,0
3,57,100,0
3,57,100,1728
3,61,100,0
3,62,100,0
3,67,100,0
3,62,100,0
3,61,100,0
3,57,100,0
3,57,100,32448
3,61,100,0
3,62,100,0
3,61,100,0
3,57,100,0
3,57,100,192
3,61,100,0
3,62,99,0
3,61,98,0
3,57,97,0
3,57,90,960
3,61,89,0
3,62,88,0
3,61,87,0
3,57,86,0
3,57,83,192
3,61,82,0
3,62,81,0
3,61,80,0
3,57,79,0
3,57,72,960
3,61,71,0
3,62,69,0
3,61,68,0
3,57,67,0
3,57,65,192
3,61,64,0
3,62,63,0
3,61,61,0
3,57,60,0
3,57,53,960
3,61,52,0
3,62,51,0
3,61,50,0
3,57,49,0
3,57,46,192
3,61,45,0
3,62,44,0
3,61,43,0
3,57,42,0
3,57,35,960
3,61,34,0
3,62,33,0
3,61,32,0
3,57,30,0
3,57,28,192
3,61,27,0
3,62,26,0
3,61,25,0
3,57,24,0
3,57,17,960
3,61,15,0
3,62,14,0
3,61,13,0
3,57,12,0
3,57,10,192
3,61,9,0
3,62,7,0
3,61,6,0
3,57,5,0
4,69,111,2496
4,64,111,0
4,57,111,0
4,52,111,0
4,45,111,0
4,69,101,0
4,64,101,0
4,57,101,0
4,52,101,0
4,45,101,0
4,45,100,0
4,45,100,0
4,69,111,0
4,64,111,0
4,57,111,0
4,52,111,0
4,45,111,0
4,45,100,0
4,45,100,0
4,66,111,0
4,62,111,0
4,57,111,0
4,54,111,0
4,45,111,0
4,66,111,0
4,62,111,0
4,57,111,0
4,54,111,0
4,45,111,0
4,45,100,0
4,45,100,0
4,66,101,0
4,62,101,0
4,57,101,0
4,54,101,0
4,45,101,0
4,45,100,0
4,45,100,0
4,69,111,0
4,64,111,0
4,57,111,0
4,52,111,0
4,45,111,0
4,69,101,0
4,64,101,0
4,57,101,0
4,52,101,0
4,45,101,0
4,45,100,0
4,45,100,0
4,69,111,0
4,64,111,0
4,57,111,0
4,52,111,0
4,45,111,0
4,45,100,0
4,45,100,0
4,69,101,0
4,64,101,0
4,57,101,0
4,52,101,0
4,45,101,0
4,69,111,0
4,64,111,0
4,57,111,0
4,52,111,0
4,45,111,0
4,45,100,0
4,45,100,0
4,69,111,0
4,64,111,0
4,57,111,0
4,52,111,0
4,45,111,0
4,45,100,0
4,45,100,0
4,45,111,0
4,52,111,0
4,64,111,0
4,69,111,0
4,57,111,0
4,69,101,0
4,64,101,0
4,57,101,0
4,52,101,0
4,45,101,0
4,45,100,0
4,45,100,0
4,69,111,0
4,64,111,0
4,57,111,0
4,52,111,0
4,45,111,0
4,45,100,0
4,45,100,0
4,66,111,0
4,62,111,0
4,57,111,0
4,54,111,0
4,45,111,0
4,66,111,0
4,62,111,0
4,57,111,0
4,54,111,0
4,45,111,0
4,45,100,0
4,45,100,0
4,66,101,0
4,62,101,0
4,57,101,0
4,54,101,0
4,45,101,0
4,45,100,0
4,45,100,0
4,69,111,0
4,64,111,0
4,57,111,0
4,52,111,0
4,45,111,0
4,69,101,0
4,64,101,0
4,57,101,0
4,52,101,0
4,45,101,0
4,45,100,0
4,45,100,0
4,69,111,0
4,64,111,0
4,57,111,0
4,52,111,0
4,45,111,0
4,45,100,0
4,45,100,0
4,69,101,0
4,64,101,0
4,57,101,0
4,52,101,0
4,45,101,0
4,69,111,0
4,64,111,0
4,57,111,0
4,52,111,0
4,45,111,0
4,45,100,0
4,45,100,0
4,69,111,0
4,64,111,0
4,57,111,0
4,52,111,0
4,45,111,0
4,45,100,0
4,45,100,0
4,45,111,0
4,52,111,0
4,64,111,0
4,69,111,0
4,57,111,0
4,69,101,0
4,64,101,0
4,57,101,0
4,52,101,0
4,45,101,0
4,45,100,0
4,45,100,0
4,69,111,0
4,64,111,0
4,57,111,0
4,52,111,0
4,45,111,0
4,45,100,0
4,45,100,0
4,66,111,0
4,62,111,0
4,57,111,0
4,54,111,0
4,45,111,0
4,66,111,0
4,62,111,0
4,57,111,0
4,54,111,0
4,45,111,0
4,45,100,0
4,45,100,0
4,66,101,0
4,62,101,0
4,57,101,0
4,54,101,0
4,45,101,0
4,45,100,0
4,45,100,0
4,69,111,0
4,64,111,0
4,57,111,0
4,52,111,0
4,45,111,0
4,69,101,0
4,64,101,0
4,57,101,0
4,52,101,0
4,45,101,0
4,45,100,0
4,45,100,0
4,69,111,0
4,64,111,0
4,57,111,0
4,52,111,0
4,45,111,0
4,45,100,0
4,45,100,0
4,69,101,0
4,64,101,0
4,57,101,0
4,52,101,0
4,45,101,0
4,69,111,0
4,64,111,0
4,57,111,0
4,52,111,0
4,45,111,0
4,45,100,0
4,45,100,0
4,69,111,0
4,64,111,0
4,57,111,0
4,52,111,0
4,45,111,0
4,45,100,0
4,45,100,0
4,45,111,0
4,52,111,0
4,64,111,0
4,69,111,0
4,57,111,0
4,69,101,0
4,64,101,0
4,57,101,0
4,52,101,0
4,45,101,0
4,45,100,0
4,45,100,0
4,69,111,0
4,64,111,0
4,57,111,0
4,52,111,0
4,45,111,0
4,45,100,0
4,45,100,0
4,66,111,0
4,62,111,0
4,57,111,0
4,54,111,0
4,45,111,0
4,66,111,0
4,62,111,0
4,57,111,0
4,54,111,0
4,45,111,0
4,45,100,0
4,45,100,0
4,66,101,0
4,62,101,0
4,57,101,0
4,54,101,0
4,45,101,0
4,45,100,0
4,45,100,0
4,69,111,0
4,64,111,0
4,57,111,0
4,52,111,0
4,45,111,0
4,69,101,0
4,64,101,0
4,57,101,0
4,52,101,0
4,45,101,0
4,45,100,0
4,45,100,0
4,69,111,0
4,64,111,0
4,57,111,0
4,52,111,0
4,45,111,0
4,45,100,0
4,45,100,0
4,69,101,0
4,64,101,0
4,57,101,0
4,52,101,0
4,45,101,0
4,69,101,0
4,64,101,0
4,57,101,0
4,52,101,0
4,45,101,0
4,45,100,0
4,45,100,0
4,69,101,0
4,64,101,0
4,57,101,0
4,52,101,0
4,45,101,0
4,40,101,0
4,43,101,0
4,45,111,0
4,52,111,0
4,64,111,0
4,69,111,0
4,57,111,0
4,69,101,0
4,64,101,0
4,57,101,0
4,52,101,0
4,45,101,0
4,45,100,0
4,45,100,0
4,69,111,0
4,64,111,0
4,57,111,0
4,52,111,0
4,45,111,0
4,45,100,0
4,45,100,0
4,66,111,0
4,62,111,0
4,57,111,0
4,54,111,0
4,45,111,0
4,66,111,0
4,62,111,0
4,57,111,0
4,54,111,0
4,45,111,0
4,45,100,0
4,45,100,0
4,66,101,0
4,62,101,0
4,57,101,0
4,54,101,0
4,45,101,0
4,45,100,0
4,45,100,0
4,69,111,0
4,64,111,0
4,57,111,0
4,52,111,0
4,45,111,0
4,69,101,0
4,64,101,0
4,57,101,0
4,52,101,0
4,45,101,0
4,45,100,0
4,45,100,0
4,69,111,0
4,64,111,0
4,57,111,0
4,52,111,0
4,45,111,0
4,45,100,0
4,45,100,0
4,69,101,0
4,64,101,0
4,57,101,0
4,52,101,0
4,45,101,0
4,69,111,0
4,64,111,0
4,57,111,0
4,52,111,0
4,45,111,0
4,45,100,0
4,45,100,0
4,69,111,0
4,64,111,0
4,57,111,0
4,52,111,0
4,45,111,0
4,45,100,0
4,45,100,0
4,45,111,0
4,52,111,0
4,64,111,0
4,69,111,0
4,57,111,0
4,69,101,0
4,64,101,0
4,57,101,0
4,52,101,0
4,45,101,0
4,45,100,0
4,45,100,0
4,69,111,0
4,64,111,0
4,57,111,0
4,52,111,0
4,45,111,0
4,45,100,0
4,45,100,0
4,66,111,0
4,62,111,0
4,57,111,0
4,54,111,0
4,45,111,0
4,66,111,0
4,62,111,0
4,57,111,0
4,54,111,0
4,45,111,0
4,45,100,0
4,45,100,0
4,66,101,0
4,62,101,0
4,57,101,0
4,54,101,0
4,45,101,0
4,45,100,0
4,45,100,0
4,69,111,0
4,64,111,0
4,57,111,0
4,52,111,0
4,45,111,0
4,69,101,0
4,64,101,0
4,57,101,0
4,52,101,0
4,45,101,0
4,45,100,0
4,45,100,0
4,69,111,0
4,64,111,0
4,57,111,0
4,52,111,0
4,45,111,0
4,45,100,0
4,45,100,0
4,69,101,0
4,64,101,0
4,57,101,0
4,52,101,0
4,45,101,0
4,69,111,0
4,64,111,0
4,57,111,0
4,52,111,0
4,45,111,0
4,45,100,0
4,45,100,0
4,69,111,0
4,64,111,0
4,57,111,0
4,52,111,0
4,45,111,0
4,45,100,0
4,45,100,0
4,45,111,0
4,52,111,0
4,64,111,0
4,69,111,0
4,57,111,0
4,69,101,0
4,64,101,0
4,57,101,0
4,52,101,0
4,45,101,0
4,45,100,0
4,45,100,0
4,69,111,0
4,64,111,0
4,57,111,0
4,52,111,0
4,45,111,0
4,45,100,0
4,45,100,0
4,66,111,0
4,62,111,0
4,57,111,0
4,54,111,0
4,45,111,0
4,66,111,0
4,62,111,0
4,57,111,0
4,54,111,0
4,45,111,0
4,45,100,0
4,45,100,0
4,66,101,0
4,62,101,0
4,57,101,0
4,54,101,0
4,45,101,0
4,45,100,0
4,45,100,0
4,69,111,0
4,64,111,0
4,57,111,0
4,52,111,0
4,45,111,0
4,69,101,0
4,64,101,0
4,57,101,0
4,52,101,0
4,45,101,0
4,45,100,0
4,45,100,0
4,69,111,0
4,64,111,0
4,57,111,0
4,52,111,0
4,45,111,0
4,45,100,0
4,45,100,0
4,69,101,0
4,64,101,0
4,57,101,0
4,52,101,0
4,45,101,0
4,69,101,0
4,64,101,0
4,57,101,0
4,52,101,0
4,45,101,0
4,45,100,0
4,45,100,0
4,69,101,0
4,64,101,0
4,57,101,0
4,52,101,0
4,45,101,0
4,45,100,0
4,47,100,0
4,47,111,0
4,54,111,0
4,59,111,0
4,59,101,0
4,54,101,0
4,47,101,0
4,47,100,0
4,47,100,0
4,59,101,0
4,54,101,0
4,47,101,0
4,47,100,0
4,47,100,0
4,67,111,0
4,62,111,0
4,55,111,0
4,50,111,0
4,43,111,0
4,55,101,0
4,67,101,0
4,62,101,0
4,50,101,0
4,43,101,0
4,43,100,0
4,43,100,0
4,62,101,0
4,55,101,0
4,67,101,0
4,50,101,0
4,43,101,0
4,45,100,0
4,40,100,0
4,61,111,0
4,57,111,0
4,52,111,0
4,45,111,0
4,61,101,0
4,57,101,0
4,52,101,0
4,45,101,0
4,45,100,0
4,45,100,0
