track,note,velocity,time
1,35,127,3444
1,47,120,120
1,28,127,120
1,30,127,120
1,35,127,120
1,47,120,120
1,28,127,120
1,30,127,120
1,35,127,120
1,47,120,120
1,28,127,120
1,30,127,120
1,32,127,120
1,28,127,120
1,30,127,120
1,42,120,120
1,30,120,64
1,32,120,24
1,30,120,24
1,35,127,24
1,47,120,120
1,28,127,120
1,30,127,120
1,35,127,120
1,47,120,120
1,28,127,120
1,30,127,120
1,35,127,120
1,47,120,120
1,28,127,120
1,30,127,120
1,32,127,120
1,28,127,120
1,30,127,120
1,42,120,120
1,30,120,64
1,32,120,24
1,30,120,24
1,35,127,24
1,47,120,120
1,28,127,120
1,30,127,120
1,35,127,120
1,47,120,120
1,28,127,120
1,30,127,120
1,35,127,120
1,47,120,120
1,28,127,120
1,30,127,120
1,32,127,120
1,28,127,120
1,30,127,120
1,42,120,120
1,30,120,64
1,32,120,24
1,30,120,24
1,35,127,24
1,47,127,120
1,28,127,120
1,30,127,120
1,35,127,120
1,47,127,120
1,28,127,120
1,30,127,120
1,35,127,120
1,47,127,120
1,28,127,120
1,30,127,120
1,31,127,120
1,28,127,120
1,30,127,120
1,42,127,120
1,31,127,120
1,28,127,120
1,30,127,120
1,42,127,120
1,30,127,120
1,42,127,120
1,42,127,64
1,44,127,24
1,42,127,24
1,35,127,24
1,47,120,120
1,28,127,120
1,30,127,120
1,35,127,120
1,47,120,120
1,28,127,120
1,30,127,120
1,35,127,120
1,47,120,120
1,28,127,120
1,30,127,120
1,32,127,120
1,28,127,120
1,30,127,120
1,42,120,120
1,30,120,64
1,32,120,24
1,30,120,24
1,35,127,24
1,47,120,120
1,28,127,120
1,30,127,120
1,35,127,120
1,47,120,120
1,28,127,120
1,30,127,120
1,35,127,120
1,47,120,120
1,28,127,120
1,30,127,120
1,32,127,120
1,28,127,120
1,30,127,120
1,42,120,120
1,30,120,64
1,32,120,24
1,30,120,24
1,35,127,24
1,32,127,0
1,30,127,0
1,35,127,0
1,39,127,0
1,42,127,0
1,28,127,0
1,32,127,0
1,35,127,0
1,30,127,0
1,34,127,0
1,37,127,0
1,35,127,0
1,32,127,0
1,30,127,0
1,35,127,0
1,39,127,0
1,42,127,0
1,28,127,0
1,32,127,0
1,35,127,0
1,30,127,0
1,34,127,0
1,37,127,0
1,35,127,0
1,32,127,0
1,30,127,0
1,35,127,0
1,39,127,0
1,42,127,0
1,28,127,0
1,32,127,0
1,35,127,0
1,30,127,0
1,34,127,0
1,37,127,0
1,32,127,0
1,28,127,0
1,30,127,0
1,30,127,576
1,32,127,88
1,35,127,0
1,37,127,0
1,39,127,0
1,37,127,0
1,35,127,0
1,47,120,120
1,28,127,120
1,30,127,120
1,35,127,120
1,47,120,120
1,28,127,120
1,30,127,120
1,35,127,120
1,47,120,120
1,28,127,120
1,30,127,120
1,32,127,120
1,28,127,120
1,30,127,120
1,42,120,120
1,30,120,64
1,32,120,24
1,30,120,24
1,35,114,24
1,28,100,0
1,35,100,0
1,35,80,130
2,59,114,3540
2,63,114,48
2,64,114,48
2,63,114,48
2,59,114,48
2,59,114,144
2,63,114,48
2,64,114,48
2,63,114,48
2,59,114,48
2,56,114,144
2,61,114,48
2,63,114,48
2,61,114,48
2,56,114,48
2,54,114,144
2,59,114,48
2,61,114,48
2,59,114,48
2,54,114,48
2,59,114,144
2,63,114,48
2,64,114,48
2,63,114,48
2,59,114,48
2,59,114,144
2,63,114,48
2,64,114,48
2,63,114,48
2,59,114,48
2,56,114,144
2,61,114,48
2,63,114,48
2,61,114,48
2,56,114,48
2,54,114,144
2,59,114,48
2,61,114,48
2,59,114,48
2,54,114,48
2,59,114,144
2,63,114,48
2,64,114,48
2,63,114,48
2,59,114,48
2,59,114,144
2,63,114,48
2,64,114,48
2,63,114,48
2,59,114,48
2,56,114,144
2,61,114,48
2,63,114,48
2,61,114,48
2,56,114,48
2,54,114,144
2,59,114,48
2,61,114,48
2,59,114,48
2,54,114,48
2,54,115,144
2,59,115,40
2,61,115,40
2,59,115,40
2,54,115,40
2,56,115,136
2,61,115,40
2,63,115,40
2,61,115,40
2,56,115,40
2,54,115,136
2,59,115,40
2,61,115,40
2,59,115,40
2,54,115,40
2,54,115,136
2,58,115,40
2,61,115,40
2,58,115,40
2,54,115,40
2,59,114,136
2,63,114,48
2,64,114,48
2,63,114,48
2,59,114,48
2,59,114,144
2,63,114,48
2,64,114,48
2,63,114,48
2,59,114,48
2,56,114,144
2,61,114,48
2,63,114,48
2,61,114,48
2,56,114,48
2,54,114,144
2,59,114,48
2,61,114,48
2,59,114,48
2,54,114,48
2,59,114,144
2,63,114,48
2,64,114,48
2,63,114,48
2,59,114,48
2,59,114,144
2,63,114,48
2,64,114,48
2,63,114,48
2,59,114,48
2,56,114,144
2,61,114,48
2,63,114,48
2,61,114,48
2,56,114,48
2,54,114,144
2,59,114,48
2,61,114,48
2,59,114,48
2,54,114,48
2,59,114,144
2,63,114,48
2,64,114,48
2,63,114,48
2,59,114,48
2,59,114,144
2,63,114,48
2,64,114,48
2,63,114,48
2,59,114,48
2,56,114,144
2,61,114,48
2,63,114,48
2,61,114,48
2,56,114,48
2,54,114,144
2,59,114,48
2,61,114,48
2,59,114,48
2,54,114,48
2,54,115,144
2,59,115,40
2,61,115,40
2,59,115,40
2,54,115,40
2,56,115,136
2,61,115,40
2,63,115,40
2,61,115,40
2,56,115,40
2,54,115,136
2,59,115,40
2,61,115,40
2,59,115,40
2,54,115,40
2,54,115,136
2,58,115,40
2,61,115,40
2,58,115,40
2,54,115,40
2,59,114,136
2,63,114,48
2,64,114,48
2,63,114,48
2,59,114,48
2,59,114,144
2,63,114,48
2,64,114,48
2,63,114,48
2,59,114,48
2,56,114,144
2,61,114,48
2,63,114,48
2,61,114,48
2,56,114,48
2,54,114,144
2,59,114,48
2,61,114,48
2,59,114,48
2,54,114,48
2,59,114,144
2,63,114,48
2,64,114,48
2,63,114,48
2,59,114,48
2,59,114,144
2,63,114,48
2,64,114,48
2,63,114,48
2,59,114,48
2,56,114,144
2,61,114,48
2,63,114,48
2,61,114,48
2,56,114,48
2,54,114,144
2,59,114,48
2,61,114,48
2,59,114,48
2,54,114,48
2,59,114,144
2,63,114,48
2,64,114,48
2,63,114,48
2,59,114,48
2,59,114,144
2,63,114,48
2,64,114,48
2,63,114,48
2,59,114,48
2,56,114,144
2,61,114,48
2,63,114,48
2,61,114,48
2,56,114,48
2,54,114,144
2,59,114,48
2,61,114,48
2,59,114,48
2,54,114,48
2,54,115,144
2,59,115,40
2,61,115,40
2,59,115,40
2,54,115,40
2,56,115,136
2,61,115,40
2,63,115,40
2,61,115,40
2,56,115,40
2,54,115,136
2,59,115,40
2,61,115,40
2,59,115,40
2,54,115,40
2,54,115,136
2,58,115,40
2,61,115,40
2,58,115,40
2,54,115,40
2,59,113,136
2,61,113,24
2,62,113,24
2,61,113,24
2,59,113,24
2,59,113,120
2,61,113,24
2,62,113,24
2,61,113,24
2,59,113,24
2,47,113,120
2,54,113,24
2,55,113,24
2,54,113,24
2,47,113,24
2,49,113,120
2,52,113,24
2,58,113,24
2,52,113,24
2,49,113,24
2,59,113,120
2,61,113,24
2,62,113,24
2,61,113,24
2,59,113,24
2,59,113,120
2,61,113,24
2,62,113,24
2,61,113,24
2,59,113,24
2,47,113,120
2,54,113,24
2,55,113,24
2,54,113,24
2,47,113,24
2,49,113,120
2,52,113,24
2,58,113,24
2,52,113,24
2,49,113,24
2,59,113,120
2,61,113,24
2,62,113,24
2,61,113,24
2,59,113,24
2,59,113,120
2,61,113,24
2,62,113,24
2,61,113,24
2,59,113,24
2,47,113,120
2,54,113,24
2,55,113,24
2,54,113,24
2,47,113,24
2,49,113,120
2,52,113,24
2,58,113,24
2,52,113,24
2,49,113,24
2,50,123,0
2,57,123,24
2,62,123,24
2,57,123,24
2,50,123,24
2,47,123,120
2,54,123,24
2,55,123,24
2,54,123,24
2,47,123,24
2,49,123,120
2,52,123,24
2,58,123,24
2,52,123,24
2,49,123,24
2,49,123,120
2,52,123,24
2,58,123,24
2,52,123,24
2,49,123,24
2,50,123,120
2,57,123,24
2,62,123,24
2,57,123,24
2,50,123,24
2,47,123,120
2,54,123,24
2,55,123,24
2,54,123,24
2,47,123,24
2,49,123,120
2,52,123,24
2,59,123,24
2,52,123,24
2,49,123,24
2,49,123,120
2,52,123,24
2,59,123,24
2,52,123,24
2,49,123,24
2,49,123,120
2,52,123,24
2,58,123,24
2,52,123,24
2,49,123,24
2,49,123,120
2,52,123,24
2,58,123,24
2,52,123,24
2,49,123,24
2,59,114,0
2,63,114,48
2,64,114,48
2,63,114,48
2,59,114,48
2,59,114,144
2,63,114,48
2,64,114,48
2,63,114,48
2,59,114,48
2,56,114,144
2,61,114,48
2,63,114,48
2,61,114,48
2,56,114,48
2,54,114,144
2,59,114,48
2,61,114,48
2,59,114,48
2,54,114,48
2,59,114,144
2,63,114,48
2,64,114,48
2,63,114,48
2,59,114,48
2,59,114,144
2,63,114,48
2,64,114,48
2,63,114,48
2,59,114,48
2,56,114,144
2,61,114,48
2,63,114,48
2,61,114,48
2,56,114,48
2,54,114,144
2,59,114,48
2,61,114,48
2,59,114,48
2,54,114,48
2,59,114,144
2,63,114,48
2,64,114,48
2,63,114,48
2,59,114,48
2,59,114,144
2,63,114,48
2,64,114,48
2,63,114,48
2,59,114,48
2,56,114,144
2,61,114,48
2,63,114,48
2,61,114,48
2,56,114,48
2,54,114,144
2,59,114,48
2,61,114,48
2,59,114,48
2,54,114,48
2,54,115,144
2,59,115,40
2,61,115,40
2,59,115,40
2,54,115,40
2,56,115,136
2,61,115,40
2,63,115,40
2,61,115,40
2,56,115,40
2,54,115,136
2,59,115,40
2,61,115,40
2,59,115,40
2,54,115,40
2,54,115,136
2,58,115,40
2,61,115,40
2,58,115,40
2,54,115,40
2,59,114,136
2,63,114,48
2,64,114,48
2,63,114,48
2,59,114,48
2,59,114,144
2,63,114,48
2,64,114,48
2,63,114,48
2,59,114,48
2,56,114,144
2,61,114,48
2,63,114,48
2,61,114,48
2,56,114,48
2,54,114,144
2,59,114,48
2,61,114,48
2,59,114,48
2,54,114,48
2,59,114,144
2,63,114,48
2,64,114,48
2,63,114,48
2,59,114,48
2,59,114,144
2,63,114,48
2,64,114,48
2,63,114,48
2,59,114,48
2,56,114,144
2,61,114,48
2,63,114,48
2,61,114,48
2,56,114,48
2,54,114,144
2,59,114,48
2,61,114,48
2,59,114,48
2,54,114,48
2,59,114,144
2,63,114,48
2,64,114,48
2,63,114,48
2,59,114,48
2,59,114,144
2,63,114,48
2,64,114,48
2,63,114,48
2,59,114,48
2,56,114,144
2,61,114,48
2,63,114,48
2,61,114,48
2,56,114,48
2,54,114,144
2,59,114,48
2,61,114,48
2,59,114,48
2,54,114,48
2,54,115,144
2,59,115,40
2,61,115,40
2,59,115,40
2,54,115,40
2,56,115,136
2,61,115,40
2,63,115,40
2,61,115,40
2,56,115,40
2,54,115,136
2,59,115,40
2,61,115,40
2,59,115,40
2,54,115,40
2,54,115,136
2,58,115,40
2,61,115,40
2,58,115,40
2,54,115,40
2,59,114,136
2,63,114,48
2,64,114,48
2,63,114,48
2,59,114,48
2,59,114,144
2,63,114,48
2,64,114,48
2,63,114,48
2,59,114,48
2,56,114,144
2,61,114,48
2,63,114,48
2,61,114,48
2,56,114,48
2,54,114,144
2,59,114,48
2,61,114,48
2,59,114,48
2,54,114,48
2,59,114,144
2,63,114,48
2,64,114,48
2,63,114,48
2,59,114,48
2,59,114,144
2,63,114,48
2,64,114,48
2,63,114,48
2,59,114,48
2,56,114,144
2,61,114,48
2,63,114,48
2,61,114,48
2,56,114,48
2,54,114,144
2,59,114,48
2,61,114,48
2,59,114,48
2,54,114,48
2,59,114,144
2,63,114,48
2,64,114,48
2,63,114,48
2,59,114,48
2,59,114,144
2,63,114,48
2,64,114,48
2,63,114,48
2,59,114,48
2,56,114,144
2,61,114,48
2,63,114,48
2,61,114,48
2,56,114,48
2,54,114,144
2,59,114,48
2,61,114,48
2,59,114,48
2,54,114,48
2,54,115,144
2,59,115,40
2,61,115,40
2,59,115,40
2,54,115,40
2,56,115,136
2,61,115,40
2,63,115,40
2,61,115,40
2,56,115,40
2,54,115,136
2,59,115,40
2,61,115,40
2,59,115,40
2,54,115,40
2,54,115,136
2,58,115,40
2,61,115,40
2,58,115,40
2,54,115,40
2,59,114,136
2,63,114,48
2,64,114,48
2,63,114,48
2,59,114,48
2,59,114,144
2,63,114,48
2,64,114,48
2,63,114,48
2,59,114,48
2,56,114,144
2,61,114,48
2,63,114,48
2,61,114,48
2,56,114,48
2,54,114,144
2,59,114,48
2,61,114,48
2,59,114,48
2,54,114,48
2,59,114,144
2,63,114,48
2,64,114,48
2,63,114,48
2,59,114,48
2,59,114,144
2,63,114,48
2,64,114,48
2,63,114,48
2,59,114,48
2,56,114,144
2,61,114,48
2,63,114,48
2,61,114,48
2,56,114,48
2,54,114,144
2,59,114,48
2,61,114,48
2,59,114,48
2,54,114,48
2,59,114,144
2,63,114,48
2,64,114,48
2,63,114,48
2,59,114,48
2,59,114,144
2,63,114,48
2,64,114,48
2,63,114,48
2,59,114,48
2,56,114,144
2,61,114,48
2,63,114,48
2,61,114,48
2,56,114,48
2,54,114,144
2,59,114,48
2,61,114,48
2,59,114,48
2,54,114,48
2,54,115,144
2,59,115,40
2,61,115,40
2,59,115,40
2,54,115,40
2,56,115,136
2,61,115,40
2,63,115,40
2,61,115,40
2,56,115,40
2,54,115,136
2,59,115,40
2,61,115,40
2,59,115,40
2,54,115,40
2,54,115,136
2,58,115,40
2,61,115,40
2,58,115,40
2,54,115,40
2,59,114,136
2,63,114,48
2,64,114,48
2,63,114,48
2,59,114,48
2,59,114,144
2,63,114,48
2,64,114,48
2,63,114,48
2,59,114,48
2,59,114,144
2,63,114,48
2,64,114,48
2,63,114,48
2,59,114,48
2,59,114,144
2,63,114,48
2,64,114,48
2,63,114,48
2,59,114,48
2,59,114,144
2,63,114,48
2,64,114,48
2,63,114,48
2,59,114,48
2,59,114,144
2,63,114,48
2,64,114,48
2,63,114,48
2,59,114,48
2,59,114,144
2,63,114,48
2,64,114,48
2,63,114,48
2,59,114,48
2,59,114,144
2,63,114,48
2,64,114,48
2,63,114,48
2,59,114,48
3,66,95,29952
3,62,95,24
3,61,95,24
3,54,95,24
3,66,95,1536
3,62,95,24
3,61,95,24
3,54,95,24
3,66,95,1536
3,62,95,24
3,61,95,24
3,54,95,24
3,57,95,0
3,59,95,0
3,62,95,0
3,59,95,0
3,57,95,0
3,54,95,96
3,55,95,0
3,59,95,0
3,55,95,0
3,54,95,0
3,52,95,96
3,58,95,0
3,61,95,0
3,58,95,0
3,52,95,0
3,52,95,96
3,58,95,0
3,61,95,0
3,58,95,0
3,52,95,0
3,57,95,96
3,59,95,0
3,62,95,0
3,59,95,0
3,57,95,0
3,54,95,96
3,55,95,0
3,59,95,0
3,55,95,0
3,54,95,0
3,52,95,96
3,59,95,0
3,61,95,0
3,59,95,0
3,52,95,0
3,52,95,96
3,59,95,0
3,61,95,0
3,59,95,0
3,52,95,0
3,52,95,96
3,58,95,0
3,61,95,0
3,58,95,0
3,52,95,0
3,52,95,96
3,58,95,0
3,61,95,0
3,58,95,0
3,52,95,0
3,59,95,0
3,66,95,0
3,59,95,27072
3,66,95,0
3,59,95,4032
3,66,95,0
3,59,95,4032
3,66,95,0
3,59,95,4032
3,66,95,0
4,82,81,0
4,82,41,88
4,82,81,88
4,82,41,88
4,82,81,88
4,82,41,88
4,82,81,88
4,82,41,88
4,82,81,88
4,82,41,88
4,82,81,88
4,82,41,88
4,82,81,88
4,82,41,88
4,82,81,88
4,82,41,88
4,82,81,88
4,82,41,88
4,82,81,88
4,82,41,88
4,82,81,88
4,82,41,88
4,82,81,88
4,82,41,88
4,70,81,88
4,82,101,0
4,70,81,88
4,82,41,0
4,70,81,88
4,82,101,0
