track,note,velocity,time
1,44,64,480
1,51,64,0
1,51,0,480
1,44,0,0
1,45,64,0
1,52,64,0
1,52,0,480
1,45,0,0
1,47,64,0
1,54,64,0
1,54,0,480
1,47,0,0
1,49,64,0
1,53,64,0
1,53,0,480
1,49,0,0
1,44,64,0
1,51,64,0
1,51,0,480
1,44,0,0
1,45,64,0
1,52,64,0
1,52,0,480
1,45,0,0
1,47,64,0
1,54,64,0
1,54,0,480
1,47,0,0
1,37,64,0
1,49,64,0
1,53,64,0
1,53,0,480
1,49,0,0
1,37,0,0
1,44,64,0
1,51,64,0
1,51,0,480
1,44,0,0
1,45,64,0
1,52,64,0
1,52,0,480
1,45,0,0
1,47,64,0
1,54,64,0
1,54,0,480
1,47,0,0
1,45,64,0
1,52,64,0
1,52,0,480
1,45,0,0
1,44,64,0
1,51,64,0
1,51,0,480
1,44,0,0
1,45,64,0
1,52,64,0
1,52,0,480
1,45,0,0
1,47,64,0
1,54,64,0
1,54,0,480
1,47,0,0
1,45,64,0
1,52,64,0
1,52,0,480
1,45,0,0
1,44,64,0
1,51,64,0
1,51,0,480
1,44,0,0
1,45,64,0
1,52,64,0
1,52,0,480
1,45,0,0
1,47,64,0
1,54,64,0
1,54,0,960
1,47,0,0
1,49,64,1
1,56,64,0
1,45,64,479
1,52,64,0
1,56,0,1
1,49,0,0
1,45,0,479
1,52,0,0
1,42,64,0
1,49,64,0
1,49,0,480
1,42,0,0
1,47,64,0
1,54,64,0
1,54,0,480
1,47,0,0
1,49,64,0
1,56,64,0
1,56,0,480
1,49,0,0
1,52,64,0
1,45,64,0
1,45,0,1800
1,52,0,0
1,64,64,1080
1,64,0,120
1,61,64,0
1,61,0,120
1,64,64,0
1,64,0,120
1,61,64,0
1,61,0,120
1,64,64,0
1,64,0,120
1,61,64,0
1,61,0,120
1,64,64,0
1,64,0,120
1,61,64,0
1,61,0,120
1,44,64,5040
1,51,64,0
1,51,0,480
1,44,0,0
1,45,64,0
1,52,64,0
1,52,0,480
1,45,0,0
1,54,64,0
1,47,64,0
1,47,0,480
1,54,0,0
1,49,64,0
1,37,64,0
1,53,64,0
1,53,0,480
1,37,0,0
1,49,0,0
1,44,64,0
1,51,64,0
1,51,0,480
1,44,0,0
1,45,64,0
1,52,64,0
1,52,0,480
1,45,0,0
1,54,64,0
1,47,64,0
1,47,0,480
1,54,0,0
1,52,64,0
1,45,64,0
1,45,0,480
1,52,0,0
1,44,64,0
1,51,64,0
1,51,0,480
1,44,0,0
1,45,64,0
1,52,64,0
1,52,0,480
1,45,0,0
1,47,64,0
1,54,64,0
1,54,0,480
1,47,0,0
1,52,64,0
1,45,64,0
1,45,0,480
1,52,0,0
1,44,64,0
1,51,64,0
1,51,0,480
1,44,0,0
1,45,64,0
1,52,64,0
1,52,0,480
1,45,0,0
1,47,64,0
1,54,64,0
1,54,0,960
1,47,0,0
1,49,64,1
1,56,64,0
1,45,64,479
1,52,64,0
1,56,0,1
1,49,0,0
1,45,0,479
1,52,0,0
1,42,64,0
1,49,64,0
1,49,0,480
1,42,0,0
1,47,64,0
1,54,64,0
1,54,0,480
1,47,0,0
1,56,64,0
1,49,64,0
1,49,0,480
1,56,0,0
1,45,64,0
1,52,64,0
1,52,0,480
1,45,0,0
1,42,64,0
1,49,64,0
1,49,0,480
1,42,0,0
1,47,64,0
1,54,64,0
1,54,0,480
1,47,0,0
1,49,64,0
1,56,64,0
1,56,0,480
1,49,0,0
1,52,64,0
1,45,64,0
1,45,0,1800
1,52,0,0
2,63,64,8
2,63,0,6
2,64,64,0
2,64,0,4
2,63,64,0
2,63,0,12
2,61,64,0
2,61,0,24
2,59,64,0
2,59,0,98
2,61,64,0
2,61,0,92
2,59,64,0
2,59,0,364
2,61,64,0
2,61,0,22
2,63,64,30
2,63,0,152
2,64,64,0
2,64,0,30
2,63,64,0
2,63,0,30
2,61,64,0
2,61,0,120
2,59,64,0
2,59,0,120
2,61,64,0
2,61,0,206
2,59,64,0
2,63,64,0
2,63,0,4
2,59,0,0
2,56,64,0
2,61,64,0
2,61,0,2
2,56,0,0
2,76,80,10066
2,64,80,0
2,64,0,120
2,76,0,0
2,75,80,0
2,63,80,0
2,63,0,120
2,75,0,0
2,73,80,0
2,66,45,0
2,68,45,0
2,61,80,0
2,61,0,120
2,73,0,0
2,71,80,0
2,59,80,0
2,59,0,120
2,66,0,0
2,68,0,0
2,71,0,0
2,64,80,0
2,76,80,0
2,76,0,120
2,64,0,0
2,63,80,0
2,75,80,0
2,68,45,0
2,66,45,0
2,75,0,120
2,63,0,0
2,61,80,0
2,73,80,0
2,73,0,120
2,66,0,0
2,68,0,0
2,61,0,0
2,59,80,0
2,71,80,0
2,71,0,120
2,59,0,0
2,76,80,0
2,57,80,0
2,57,0,120
2,76,0,0
2,61,80,0
2,88,80,0
2,76,80,0
2,76,0,120
2,88,0,0
2,61,0,0
2,64,80,0
2,87,80,0
2,75,80,0
2,75,0,120
2,87,0,0
2,64,0,0
2,61,80,0
2,75,80,0
2,63,80,0
2,63,0,120
2,75,0,0
2,61,0,0
2,64,80,0
2,83,80,0
2,71,80,0
2,71,0,120
2,83,0,0
2,64,0,0
2,61,80,0
2,85,80,0
2,73,80,0
2,73,0,120
2,85,0,0
2,61,0,0
2,64,80,0
2,81,80,0
2,69,80,0
2,69,0,120
2,81,0,0
2,64,0,0
2,61,80,0
2,83,80,0
2,71,80,0
2,71,0,120
2,83,0,0
2,61,0,0
2,63,80,0
2,63,0,120
2,59,80,0
2,75,80,0
2,63,80,0
2,63,0,60
2,75,0,0
2,73,80,0
2,61,80,0
2,61,0,60
2,73,0,0
2,59,0,0
2,63,80,0
2,75,80,0
2,63,80,0
2,63,0,120
2,75,0,0
2,63,0,0
2,59,80,0
2,71,80,0
2,59,80,0
2,59,0,120
2,71,0,0
2,59,0,0
2,63,80,0
2,73,80,0
2,61,80,0
2,61,0,120
2,73,0,0
2,63,0,0
2,59,80,0
2,75,80,0
2,63,80,0
2,63,0,120
2,75,0,0
2,59,0,0
2,63,80,0
2,80,80,0
2,68,80,0
2,68,0,120
2,80,0,0
2,63,0,0
2,59,80,0
2,78,80,0
2,66,80,0
2,66,0,120
2,78,0,0
2,59,0,0
2,64,80,0
2,80,80,0
2,68,80,0
2,68,0,120
2,80,0,0
2,64,0,0
2,61,80,0
2,83,80,0
2,71,80,0
2,83,0,60
2,71,0,60
2,61,0,0
2,64,80,0
2,76,80,0
2,76,0,120
2,64,0,0
2,63,80,0
2,75,80,0
2,75,0,120
2,63,0,0
2,61,80,0
2,68,45,0
2,66,45,0
2,73,80,0
2,73,0,120
2,61,0,0
2,59,80,0
2,71,80,0
2,71,0,120
2,68,0,0
2,66,0,0
2,59,0,0
2,76,80,0
2,64,80,0
2,64,0,120
2,76,0,0
2,66,45,0
2,68,45,0
2,75,80,0
2,63,80,0
2,63,0,120
2,75,0,0
2,73,80,0
2,61,80,0
2,61,0,120
2,66,0,0
2,68,0,0
2,73,0,0
2,71,80,0
2,59,80,0
2,59,0,120
2,71,0,0
2,57,80,0
2,64,80,0
2,76,80,0
2,76,80,27
2,76,0,93
2,57,0,0
2,64,0,0
2,76,80,0
2,88,80,0
2,61,80,0
2,76,0,27
2,76,0,93
2,88,0,0
2,61,0,0
2,75,80,0
2,87,80,0
2,64,80,0
2,64,0,120
2,87,0,0
2,75,0,0
2,63,80,0
2,75,80,0
2,61,80,0
2,61,0,120
2,75,0,0
2,63,0,0
2,71,80,0
2,83,80,0
2,64,80,0
2,64,0,120
2,83,0,0
2,71,0,0
2,73,80,0
2,85,80,0
2,61,80,0
2,61,0,120
2,85,0,0
2,73,0,0
2,69,80,0
2,81,80,0
2,64,80,0
2,64,0,120
2,81,0,0
2,69,0,0
2,71,80,0
2,83,80,0
2,61,80,0
2,83,0,60
2,61,0,60
2,71,0,0
2,63,80,0
2,63,0,120
2,63,80,0
2,75,80,0
2,59,80,0
2,75,0,60
2,63,0,0
2,61,80,0
2,73,80,0
2,73,0,60
2,61,0,0
2,59,0,0
2,63,80,0
2,75,80,0
2,63,80,0
2,63,0,120
2,75,0,0
2,63,0,0
2,59,80,0
2,71,80,0
2,59,80,0
2,59,0,120
2,71,0,0
2,59,0,0
2,61,80,0
2,73,80,0
2,63,80,0
2,63,0,120
2,73,0,0
2,61,0,0
2,63,80,0
2,75,80,0
2,59,80,0
2,59,0,120
2,75,0,0
2,63,0,0
2,68,80,0
2,80,80,0
2,63,80,0
2,63,0,120
2,80,0,0
2,68,0,0
2,66,80,0
2,78,80,0
2,59,80,0
2,59,0,120
2,78,0,0
2,66,0,0
2,68,80,0
2,80,80,0
2,64,80,0
2,64,0,120
2,80,0,0
2,68,0,0
2,83,80,0
2,61,80,0
2,83,0,60
2,61,0,60
2,73,64,1
2,73,0,120
2,71,64,0
2,71,0,120
2,59,64,0
2,59,0,120
2,61,64,0
2,61,0,120
2,73,64,0
2,73,0,120
2,71,64,0
2,63,64,2
2,71,0,1
2,63,0,116
2,64,64,0
2,64,0,30
2,63,64,0
2,63,0,30
2,61,64,0
2,61,0,120
2,59,64,0
2,59,0,12
2,61,64,0
2,61,0,152
2,63,64,0
2,59,64,0
2,59,0,2
2,63,0,0
2,61,64,0
2,56,64,0
2,56,0,4
2,61,0,0
2,76,80,12000
2,64,80,0
2,64,0,120
2,76,0,0
2,75,80,0
2,63,80,0
2,63,0,120
2,75,0,0
2,73,80,0
2,66,45,0
2,68,45,0
2,61,80,0
2,61,0,120
2,73,0,0
2,71,80,0
2,59,80,0
2,59,0,120
2,66,0,0
2,68,0,0
2,71,0,0
2,64,80,0
2,76,80,0
2,76,0,120
2,64,0,0
2,63,80,0
2,75,80,0
2,68,45,0
2,66,45,0
2,75,0,120
2,63,0,0
2,61,80,0
2,73,80,0
2,73,0,120
2,66,0,0
2,68,0,0
2,61,0,0
2,59,80,0
2,71,80,0
2,71,0,120
2,59,0,0
2,64,80,0
2,57,80,0
2,76,80,0
2,76,80,32
2,76,0,88
2,64,0,0
2,57,0,0
2,61,80,0
2,88,80,0
2,76,80,0
2,76,0,32
2,76,0,88
2,61,0,0
2,88,0,0
2,64,80,0
2,87,80,0
2,75,80,0
2,75,0,120
2,87,0,0
2,64,0,0
2,61,80,0
2,75,80,0
2,63,80,0
2,63,0,120
2,75,0,0
2,61,0,0
2,64,80,0
2,83,80,0
2,71,80,0
2,71,0,120
2,83,0,0
2,64,0,0
2,61,80,0
2,85,80,0
2,73,80,0
2,73,0,120
2,85,0,0
2,61,0,0
2,64,80,0
2,81,80,0
2,69,80,0
2,69,0,120
2,81,0,0
2,64,0,0
2,61,80,0
2,83,80,0
2,71,80,0
2,71,0,120
2,83,0,0
2,61,0,0
2,63,80,0
2,63,0,120
2,59,80,0
2,75,80,0
2,63,80,0
2,63,0,60
2,75,0,0
2,73,80,0
2,61,80,0
2,61,0,60
2,73,0,0
2,59,0,0
2,63,80,0
2,75,80,0
2,63,80,0
2,63,0,120
2,75,0,0
2,63,0,0
2,59,80,0
2,71,80,0
2,59,80,0
2,59,0,120
2,71,0,0
2,59,0,0
2,63,80,0
2,73,80,0
2,61,80,0
2,61,0,120
2,73,0,0
2,63,0,0
2,59,80,0
2,75,80,0
2,63,80,0
2,63,0,120
2,75,0,0
2,59,0,0
2,63,80,0
2,80,80,0
2,68,80,0
2,68,0,120
2,80,0,0
2,63,0,0
2,59,80,0
2,78,80,0
2,66,80,0
2,66,0,120
2,78,0,0
2,59,0,0
2,64,80,0
2,80,80,0
2,68,80,0
2,68,0,120
2,80,0,0
2,64,0,0
2,61,80,0
2,83,80,0
2,71,80,0
2,83,0,60
2,71,0,60
2,61,0,0
2,76,80,0
2,64,80,0
2,64,0,120
2,76,0,0
2,75,80,0
2,63,80,0
2,63,0,120
2,75,0,0
2,73,80,0
2,66,45,0
2,68,45,0
2,61,80,0
2,61,0,120
2,73,0,0
2,71,80,0
2,59,80,0
2,59,0,120
2,66,0,0
2,68,0,0
2,71,0,0
2,64,80,0
2,76,80,0
2,76,0,120
2,64,0,0
2,63,80,0
2,75,80,0
2,68,45,0
2,66,45,0
2,75,0,120
2,63,0,0
2,61,80,0
2,73,80,0
2,73,0,120
2,66,0,0
2,68,0,0
2,61,0,0
2,59,80,0
2,71,80,0
2,71,0,120
2,59,0,0
2,57,80,0
2,64,80,0
2,76,80,0
2,76,80,48
2,76,0,72
2,57,0,0
2,64,0,0
2,61,80,0
2,88,80,0
2,76,80,0
2,76,0,48
2,76,0,72
2,61,0,0
2,88,0,0
2,64,80,0
2,87,80,0
2,75,80,0
2,75,0,120
2,87,0,0
2,64,0,0
2,61,80,0
2,75,80,0
2,63,80,0
2,63,0,120
2,75,0,0
2,61,0,0
2,64,80,0
2,83,80,0
2,71,80,0
2,71,0,120
2,83,0,0
2,64,0,0
2,61,80,0
2,85,80,0
2,73,80,0
2,73,0,120
2,85,0,0
2,61,0,0
2,64,80,0
2,81,80,0
2,69,80,0
2,69,0,120
2,81,0,0
2,64,0,0
2,61,80,0
2,83,80,0
2,71,80,0
2,71,0,120
2,83,0,0
2,61,0,0
2,63,80,0
2,63,0,120
2,59,80,0
2,75,80,0
2,63,80,0
2,63,0,60
2,75,0,0
2,73,80,0
2,61,80,0
2,61,0,60
2,73,0,0
2,59,0,0
2,63,80,0
2,75,80,0
2,63,80,0
2,63,0,120
2,75,0,0
2,63,0,0
2,59,80,0
2,71,80,0
2,59,80,0
2,59,0,120
2,71,0,0
2,59,0,0
2,63,80,0
2,73,80,0
2,61,80,0
2,61,0,120
2,73,0,0
2,63,0,0
2,59,80,0
2,75,80,0
2,63,80,0
2,63,0,120
2,75,0,0
2,59,0,0
2,63,80,0
2,80,80,0
2,68,80,0
2,68,0,120
2,80,0,0
2,63,0,0
2,59,80,0
2,78,80,0
2,66,80,0
2,66,0,120
2,78,0,0
2,59,0,0
2,64,80,0
2,80,80,0
2,68,80,0
2,68,0,120
2,80,0,0
2,64,0,0
2,61,80,0
2,83,80,0
2,71,80,0
2,83,0,60
2,71,0,60
2,61,0,0
2,76,80,0
2,64,80,0
2,64,0,120
2,76,0,0
2,75,80,0
2,63,80,0
2,63,0,120
2,75,0,0
2,73,80,0
2,66,45,0
2,68,45,0
2,61,80,0
2,61,0,120
2,73,0,0
2,71,80,0
2,59,80,0
2,59,0,120
2,66,0,0
2,68,0,0
2,71,0,0
2,64,80,0
2,76,80,0
2,76,0,120
2,64,0,0
2,63,80,0
2,75,80,0
2,68,45,0
2,66,45,0
2,75,0,120
2,63,0,0
2,61,80,0
2,73,80,0
2,73,0,120
2,66,0,0
2,68,0,0
2,61,0,0
2,59,80,0
2,71,80,0
2,71,0,120
2,59,0,0
2,57,80,0
2,64,80,0
2,76,80,0
2,76,80,63
2,76,0,57
2,57,0,0
2,64,0,0
2,61,80,0
2,88,80,0
2,76,80,0
2,76,0,63
2,76,0,57
2,61,0,0
2,88,0,0
2,64,80,0
2,87,80,0
2,75,80,0
2,75,0,120
2,87,0,0
2,64,0,0
2,61,80,0
2,75,80,0
2,63,80,0
2,63,0,120
2,75,0,0
2,61,0,0
2,64,80,0
2,83,80,0
2,71,80,0
2,71,0,120
2,83,0,0
2,64,0,0
2,61,80,0
2,85,80,0
2,73,80,0
2,73,0,120
2,85,0,0
2,61,0,0
2,64,80,0
2,81,80,0
2,69,80,0
2,69,0,120
2,81,0,0
2,64,0,0
2,61,80,0
2,83,80,0
2,71,80,0
2,71,0,120
2,83,0,0
2,61,0,0
2,63,80,0
2,63,0,120
2,59,80,0
2,75,80,0
2,63,80,0
2,63,0,60
2,75,0,0
2,73,80,0
2,61,80,0
2,61,0,60
2,73,0,0
2,59,0,0
2,63,80,0
2,75,80,0
2,63,80,0
2,63,0,120
2,75,0,0
2,63,0,0
2,59,80,0
2,71,80,0
2,59,80,0
2,59,0,120
2,71,0,0
2,59,0,0
2,63,80,0
2,73,80,0
2,61,80,0
2,61,0,120
