track,note,velocity,time
0,72,100,1
0,65,100,0
0,60,100,0
0,41,95,0
0,60,79,0
0,69,87,0
0,65,87,0
0,35,119,0
0,44,87,0
0,72,100,0
0,65,100,0
0,60,100,0
0,44,0,1
0,35,0,0
0,42,79,59
0,42,0,1
0,65,0,59
0,72,0,0
0,72,0,0
0,60,0,0
0,60,0,0
0,65,0,0
0,72,100,0
0,65,100,0
0,60,100,0
0,40,103,0
0,44,87,0
0,72,100,0
0,65,100,0
0,60,100,0
0,44,0,1
0,40,0,0
0,41,0,6
0,41,79,53
0,35,95,0
0,42,71,0
0,42,0,1
0,35,0,0
0,41,0,51
0,65,0,8
0,72,0,0
0,72,0,0
0,65,0,0
0,60,0,0
0,60,0,0
0,72,100,0
0,65,100,0
0,60,100,0
0,36,87,0
0,35,119,0
0,44,79,0
0,72,100,0
0,65,100,0
0,60,100,0
0,44,0,1
0,35,0,0
0,72,0,59
0,60,0,0
0,72,0,0
0,65,0,0
0,60,0,0
0,65,0,0
0,72,100,0
0,65,100,0
0,60,100,0
0,42,63,0
0,72,100,0
0,65,100,0
0,60,100,0
0,42,0,1
0,40,103,59
0,44,87,0
0,44,0,1
0,40,0,0
0,36,0,39
0,60,0,20
0,72,0,0
0,72,0,0
0,65,0,0
0,65,0,0
0,60,0,0
0,72,100,0
0,65,100,0
0,60,100,0
0,42,71,0
0,72,100,0
0,65,100,0
0,60,100,0
0,42,0,1
0,60,0,59
0,72,0,0
0,72,0,0
0,65,0,0
0,65,0,0
0,60,0,0
0,72,100,0
0,65,100,0
0,60,100,0
0,41,95,0
0,35,119,0
0,44,87,0
0,72,100,0
0,65,100,0
0,60,100,0
0,44,0,1
0,35,0,0
0,42,71,59
0,42,0,1
0,41,0,56
0,65,0,3
0,72,0,0
0,72,0,0
0,65,0,0
0,60,0,0
0,60,0,0
0,72,100,0
0,65,100,0
0,60,100,0
0,40,103,0
0,44,79,0
0,72,100,0
0,65,100,0
0,60,100,0
0,44,0,1
0,40,0,0
0,69,0,49
0,60,0,0
0,65,0,0
0,41,79,10
0,35,95,0
0,42,63,0
0,42,0,1
0,35,0,0
0,65,0,59
0,72,0,0
0,60,0,0
0,60,0,0
0,41,0,0
0,72,0,0
0,65,0,0
0,72,100,0
0,65,100,0
0,60,100,0
0,48,87,0
0,72,87,0
0,65,87,0
0,69,95,0
0,35,119,0
0,44,79,0
0,72,100,0
0,65,100,0
0,60,100,0
0,44,0,1
0,35,0,0
0,72,0,59
0,60,0,0
0,72,0,0
0,65,0,0
0,60,0,0
0,65,0,0
0,36,100,0
0,72,100,0
0,65,100,0
0,60,100,0
0,69,63,0
0,42,71,0
0,36,100,0
0,72,100,0
0,65,100,0
0,60,100,0
0,42,0,1
0,69,0,0
0,82,71,29
0,82,0,1
0,48,0,24
0,36,0,5
0,36,0,0
0,39,100,0
0,36,71,0
0,40,103,0
0,44,63,0
0,69,55,0
0,39,100,0
0,69,0,1
0,44,0,0
0,40,0,0
0,72,0,59
0,60,0,0
0,65,0,0
0,60,0,0
0,72,0,0
0,65,0,0
0,39,0,0
0,39,0,0
0,40,100,0
0,72,100,0
0,65,100,0
0,60,100,0
0,46,71,0
0,69,47,0
0,40,100,0
0,72,100,0
0,65,100,0
0,60,100,0
0,69,0,1
0,46,0,0
0,82,63,29
0,82,0,1
0,69,0,1
0,65,0,0
0,72,0,0
0,40,0,28
0,60,0,0
0,36,0,0
0,60,0,0
0,72,0,0
0,72,0,0
0,65,0,0
0,40,0,0
0,65,0,0
0,41,100,0
0,72,100,0
0,65,100,0
0,60,100,0
0,41,95,0
0,77,87,0
0,69,79,0
0,72,87,0
0,35,119,0
0,44,79,0
0,69,55,0
0,41,100,0
0,72,100,0
0,65,100,0
0,60,100,0
0,69,0,1
0,44,0,0
0,35,0,0
0,42,63,59
0,42,0,1
0,41,0,46
0,60,0,13
0,65,0,0
0,72,0,0
0,72,0,0
0,60,0,0
0,65,0,0
0,72,100,0
0,65,100,0
0,60,100,0
0,40,103,0
0,44,79,0
0,72,100,0
0,65,100,0
0,60,100,0
0,44,0,1
0,40,0,0
0,41,0,59
0,41,0,0
0,41,100,0
0,41,79,0
0,35,95,0
0,42,71,0
0,41,100,0
0,42,0,1
0,35,0,0
0,60,0,59
0,65,0,0
0,60,0,0
0,72,0,0
0,41,0,0
0,65,0,0
0,41,0,0
0,41,0,0
0,72,0,0
0,36,100,0
0,72,100,0
0,65,100,0
0,60,100,0
0,36,87,0
0,35,119,0
0,44,87,0
0,36,100,0
0,72,100,0
0,65,100,0
0,60,100,0
0,44,0,1
0,35,0,0
0,65,0,59
0,72,0,0
0,60,0,0
0,36,0,0
0,36,0,0
0,60,0,0
0,65,0,0
0,72,0,0
0,36,100,0
0,72,100,0
0,65,100,0
0,60,100,0
0,42,71,0
0,36,100,0
0,72,100,0
0,65,100,0
0,60,100,0
0,42,0,1
0,36,0,59
0,36,0,0
0,39,100,0
0,40,103,0
0,44,79,0
0,39,100,0
0,44,0,1
0,40,0,0
0,36,0,19
0,65,0,40
0,65,0,0
0,39,0,0
0,60,0,0
0,72,0,0
0,39,0,0
0,72,0,0
0,60,0,0
0,40,100,0
0,72,100,0
0,65,100,0
0,60,100,0
0,42,55,0
0,40,100,0
0,72,100,0
0,65,100,0
0,60,100,0
0,42,0,1
0,77,0,54
0,72,0,0
0,69,0,0
0,40,0,5
0,40,0,0
0,60,0,0
0,60,0,0
0,65,0,0
0,65,0,0
0,72,0,0
0,72,0,0
0,41,100,0
0,41,95,0
0,35,119,0
0,44,87,0
0,41,100,0
0,44,0,1
0,35,0,0
0,72,100,59
0,65,100,0
0,60,100,0
0,69,71,0
0,72,71,0
0,65,79,0
0,42,71,0
0,72,100,0
0,65,100,0
0,60,100,0
0,42,0,1
0,40,103,59
0,44,79,0
0,44,0,1
0,40,0,0
0,41,0,4
0,65,0,28
0,72,0,3
0,69,0,0
0,65,0,24
0,41,0,0
0,60,0,0
0,60,0,0
0,65,0,0
0,41,0,0
0,72,0,0
0,72,0,0
0,72,100,0
0,65,100,0
0,60,100,0
0,41,100,0
0,36,79,0
0,72,79,0
0,69,87,0
0,65,87,0
0,35,95,0
0,42,63,0
0,72,100,0
0,65,100,0
0,60,100,0
0,41,100,0
0,42,0,1
0,35,0,0
0,36,0,57
0,41,0,2
0,41,0,0
0,36,100,0
0,48,87,0
0,35,119,0
0,44,87,0
0,69,63,0
0,36,100,0
0,69,0,1
0,44,0,0
0,35,0,0
0,82,79,29
0,82,0,1
0,65,0,5
0,72,0,6
0,69,0,3
0,36,0,15
0,36,0,0
0,36,100,0
0,65,87,0
0,60,79,0
0,57,55,0
0,42,55,0
0,77,63,0
0,36,100,0
0,77,0,1
0,42,0,0
0,48,0,57
0,72,0,2
0,36,0,0
0,72,0,0
0,65,0,0
0,60,0,0
0,36,0,0
0,60,0,0
0,65,0,0
0,39,100,0
0,65,100,0
0,36,79,0
0,40,103,0
0,44,71,0
0,76,71,0
0,39,100,0
0,65,100,0
0,76,0,1
0,44,0,0
0,40,0,0
0,39,0,59
0,39,0,0
0,65,0,0
0,65,0,0
0,40,100,0
0,67,100,0
0,42,79,0
0,40,100,0
0,67,100,0
0,42,0,1
0,65,0,29
0,60,0,0
0,57,0,0
0,36,0,22
0,40,0,1
0,67,0,0
0,67,0,0
0,40,0,0
0,69,100,0
0,65,100,0
0,60,100,0
0,41,100,0
0,41,95,0
0,60,79,0
0,69,87,0
0,65,87,0
0,35,119,0
0,44,87,0
0,69,100,0
0,65,100,0
0,60,100,0
0,41,100,0
0,44,0,1
0,35,0,0
0,65,0,59
0,69,0,0
0,69,0,0
0,60,0,0
0,60,0,0
0,65,0,0
0,69,100,0
0,42,79,0
0,69,100,0
0,42,0,1
0,69,0,59
0,69,0,0
0,69,100,0
0,72,87,0
0,69,95,0
0,65,79,0
0,40,103,0
0,44,87,0
0,69,100,0
0,44,0,1
0,40,0,0
0,41,0,6
0,69,0,21
0,72,0,0
0,65,0,0
0,41,0,32
0,41,0,0
0,69,0,0
0,69,0,0
0,69,100,0
0,41,100,0
0,41,79,0
0,35,95,0
0,42,71,0
0,69,100,0
0,41,100,0
0,42,0,1
0,35,0,0
0,41,0,51
0,69,0,8
0,69,0,0
0,41,0,0
0,41,0,0
0,60,100,0
0,65,100,0
0,69,100,0
0,36,100,0
0,36,87,0
0,35,119,0
0,44,79,0
0,60,100,0
0,65,100,0
0,69,100,0
0,36,100,0
0,44,0,1
0,35,0,0
0,36,0,59
0,36,0,0
0,36,100,0
0,42,63,0
0,36,100,0
0,42,0,1
0,65,0,59
0,60,0,0
0,65,0,0
0,60,0,0
0,69,0,0
0,36,0,0
0,69,0,0
0,36,0,0
0,67,100,0
0,39,100,0
0,72,87,0
0,69,95,0
0,65,79,0
0,40,103,0
0,44,87,0
0,67,100,0
0,39,100,0
0,44,0,1
0,40,0,0
0,72,0,27
0,65,0,0
0,69,0,0
0,36,0,12
0,67,0,20
0,39,0,0
0,67,0,0
0,39,0,0
0,65,100,0
0,40,100,0
0,42,71,0
0,65,100,0
0,40,100,0
0,42,0,1
0,40,0,59
0,40,0,0
0,65,0,0
0,65,0,0
0,67,100,0
0,41,100,0
0,41,95,0
0,35,119,0
0,44,87,0
0,67,100,0
0,41,100,0
0,44,0,1
0,35,0,0
0,67,0,59
0,67,0,0
0,57,100,0
0,60,100,0
0,65,100,0
0,42,71,0
0,57,100,0
0,60,100,0
0,65,100,0
0,42,0,1
0,41,0,56
0,69,87,3
0,72,79,0
0,65,79,0
0,40,103,0
0,44,79,0
0,44,0,1
0,40,0,0
0,69,0,27
0,65,0,0
0,72,0,0
0,65,0,22
0,69,0,0
0,60,0,0
0,41,0,10
0,41,0,0
0,41,100,0
0,41,79,0
0,35,95,0
0,42,63,0
0,41,100,0
0,42,0,1
0,35,0,0
0,67,100,29
0,67,100,0
0,67,0,30
0,41,0,0
0,41,0,0
0,65,0,0
0,60,0,0
0,60,0,0
0,57,0,0
0,65,0,0
0,41,0,0
0,57,0,0
0,67,0,0
0,69,100,0
0,65,100,0
0,60,100,0
0,36,100,0
0,48,87,0
0,72,87,0
0,65,87,0
0,69,95,0
0,35,119,0
0,44,79,0
0,69,100,0
0,65,100,0
0,60,100,0
0,36,100,0
0,44,0,1
0,35,0,0
0,36,0,59
0,36,0,0
0,36,100,0
0,69,63,0
0,42,71,0
0,36,100,0
0,42,0,1
0,69,0,0
0,82,71,29
0,82,0,1
0,48,0,24
0,69,0,5
0,65,0,0
0,69,0,0
0,60,0,0
0,65,0,0
0,60,0,0
0,64,100,0
0,36,71,0
0,72,95,0
0,69,79,0
0,65,87,0
0,40,103,0
0,44,63,0
0,69,55,0
0,64,100,0
0,69,0,1
0,44,0,0
0,40,0,0
0,65,0,27
0,69,0,0
0,72,0,0
0,64,0,32
0,64,0,0
0,65,100,0
0,46,71,0
0,69,47,0
0,65,100,0
0,69,0,1
0,46,0,0
0,82,63,29
0,82,0,1
0,69,0,1
0,65,0,0
0,72,0,0
0,36,0,28
0,65,0,0
0,36,0,0
0,65,0,0
0,36,0,0
0,67,100,0
0,65,100,0
0,58,100,0
0,36,100,0
0,36,95,0
0,72,87,0
0,65,79,0
0,70,87,0
0,35,119,0
0,44,79,0
0,69,55,0
0,67,100,0
0,65,100,0
0,58,100,0
0,36,100,0
0,69,0,1
0,44,0,0
0,35,0,0
0,42,63,59
0,42,0,1
0,36,0,46
0,65,0,13
0,58,0,0
0,67,0,0
0,67,0,0
0,58,0,0
0,65,0,0
0,67,100,0
0,67,71,0
0,65,87,0
0,70,79,0
0,60,79,0
0,40,103,0
0,44,79,0
0,67,100,0
0,44,0,1
0,40,0,0
0,60,0,27
0,65,0,0
0,67,0,0
0,70,0,0
0,36,0,32
0,36,0,0
0,67,0,0
0,67,0,0
0,67,100,0
0,36,100,0
0,36,79,0
0,35,95,0
0,42,71,0
0,67,100,0
0,36,100,0
0,42,0,1
0,35,0,0
0,67,0,59
0,67,0,0
0,36,0,0
0,36,0,0
0,36,0,0
0,58,100,0
0,67,100,0
0,65,100,0
0,36,100,0
0,31,87,0
0,35,119,0
0,44,87,0
0,58,100,0
0,67,100,0
0,65,100,0
0,36,100,0
0,44,0,1
0,35,0,0
0,67,0,59
0,58,0,0
0,58,0,0
0,65,0,0
0,65,0,0
0,67,0,0
0,65,100,0
0,42,71,0
0,65,100,0
0,42,0,1
0,65,0,59
0,65,0,0
0,67,100,0
0,67,79,0
0,65,79,0
0,70,79,0
0,60,79,0
0,40,103,0
0,44,79,0
0,67,100,0
0,44,0,1
0,40,0,0
0,31,0,19
0,60,0,8
0,65,0,0
0,67,0,0
0,70,0,0
0,36,0,32
0,67,0,0
0,36,0,0
0,67,0,0
0,69,100,0
0,36,100,0
0,42,55,0
0,69,100,0
0,36,100,0
0,42,0,1
0,72,0,54
0,70,0,0
0,65,0,0
0,36,0,5
0,36,0,0
0,69,0,0
0,69,0,0
0,67,100,0
0,60,100,0
0,57,100,0
0,41,100,0
0,41,95,0
0,35,119,0
0,44,87,0
0,67,100,0
0,60,100,0
0,57,100,0
0,41,100,0
0,44,0,1
0,35,0,0
0,69,71,59
0,72,71,0
0,65,79,0
0,42,71,0
0,42,0,1
0,67,0,59
0,67,0,0
0,60,0,0
0,57,0,0
0,60,0,0
0,57,0,0
0,65,100,0
0,72,71,0
0,69,79,0
0,65,71,0
0,40,103,0
0,44,79,0
0,65,100,0
0,44,0,1
0,40,0,0
0,41,0,4
0,69,0,23
0,72,0,0
0,65,0,0
0,65,0,5
0,69,0,3
0,72,0,0
0,41,0,24
0,41,0,0
0,65,0,0
0,65,0,0
0,57,100,0
0,60,100,0
0,65,100,0
0,41,100,0
0,36,79,0
0,72,79,0
0,69,87,0
0,65,87,0
0,35,95,0
0,42,63,0
0,57,100,0
0,60,100,0
0,65,100,0
0,41,100,0
0,42,0,1
0,35,0,0
0,36,0,57
0,41,0,2
0,41,0,0
0,36,100,0
0,45,87,0
0,35,119,0
0,44,87,0
0,69,63,0
0,36,100,0
0,69,0,1
0,44,0,0
0,35,0,0
0,82,79,29
0,82,0,1
0,65,0,5
0,72,0,6
0,69,0,3
0,36,0,15
0,36,0,0
0,36,100,0
0,65,87,0
0,60,79,0
0,57,55,0
0,42,55,0
0,77,63,0
0,36,100,0
0,77,0,1
0,42,0,0
0,45,0,57
0,36,0,2
0,36,0,0
0,39,100,0
0,36,79,0
0,72,87,0
0,69,95,0
0,65,79,0
0,40,103,0
0,44,71,0
0,76,71,0
0,39,100,0
0,76,0,1
0,44,0,0
0,40,0,0
0,65,0,27
0,69,0,0
0,72,0,0
0,39,0,32
0,39,0,0
0,40,100,0
0,42,79,0
0,40,100,0
0,42,0,1
0,57,0,29
0,65,0,0
0,60,0,0
0,36,0,22
0,57,0,8
0,57,0,0
0,60,0,0
0,65,0,0
0,40,0,0
0,60,0,0
0,40,0,0
0,65,0,0
0,41,100,0
0,41,95,0
0,60,79,0
0,69,87,0
0,65,87,0
0,35,119,0
0,44,87,0
0,41,100,0
0,44,0,1
0,35,0,0
0,42,79,59
0,42,0,1
0,72,100,59
0,69,100,0
0,65,100,0
0,72,87,0
0,69,95,0
0,65,79,0
0,40,103,0
0,44,87,0
0,72,100,0
0,69,100,0
0,65,100,0
0,44,0,1
0,40,0,0
0,41,0,6
0,69,0,21
0,72,0,0
0,65,0,0
0,41,0,32
0,41,0,0
0,41,100,0
0,41,79,0
0,35,95,0
0,42,71,0
0,41,100,0
0,42,0,1
0,35,0,0
0,41,0,51
0,69,0,8
0,65,0,0
0,72,0,0
0,41,0,0
0,65,0,0
0,41,0,0
0,69,0,0
0,72,0,0
0,72,100,0
0,69,100,0
0,65,100,0
0,41,100,0
0,36,87,0
0,35,119,0
0,44,79,0
0,72,100,0
0,69,100,0
0,65,100,0
0,41,100,0
0,44,0,1
0,35,0,0
0,42,63,59
0,42,0,1
0,41,0,59
0,41,0,0
