track,note,velocity,time
1,69,115,6720
1,68,115,0
1,69,115,0
1,71,115,0
1,69,115,0
1,69,115,0
1,64,115,0
1,69,115,0
1,69,115,0
1,67,115,384
1,67,115,0
1,67,115,0
1,66,115,0
1,66,115,0
1,66,115,0
1,64,115,0
1,64,115,0
1,64,115,0
1,69,115,768
1,68,115,0
1,69,115,0
1,71,115,0
1,69,115,0
1,69,115,0
1,64,115,0
1,69,115,0
1,69,115,0
1,67,115,576
1,67,115,0
1,67,115,0
1,66,115,0
1,66,115,0
1,66,115,0
1,66,115,0
1,64,115,0
1,64,115,0
1,64,115,960
1,64,115,0
1,64,115,0
1,66,115,0
1,67,115,0
1,66,115,576
1,67,115,0
1,71,115,0
1,69,115,0
1,69,115,0
1,71,115,576
1,73,115,0
1,71,115,0
1,69,115,0
1,69,115,0
1,71,115,0
1,69,115,0
1,69,115,960
1,68,115,0
1,66,115,0
1,66,115,0
1,64,115,0
1,64,115,0
1,64,115,0
1,57,115,960
1,68,115,0
1,69,115,0
1,69,115,0
1,69,115,0
1,68,115,0
1,69,115,0
1,69,115,0
1,69,115,384
1,68,115,0
1,69,115,0
1,69,115,0
1,71,115,0
1,73,115,0
1,71,115,0
1,69,115,384
1,69,115,0
1,71,115,0
1,69,115,0
1,69,115,3072
1,68,115,0
1,69,115,0
1,71,115,0
1,69,115,0
1,69,115,0
1,64,115,0
1,69,115,0
1,69,115,0
1,67,115,384
1,67,115,0
1,67,115,0
1,66,115,0
1,66,115,0
1,66,115,0
1,64,115,0
1,64,115,0
1,64,115,0
1,69,115,768
1,68,115,0
1,69,115,0
1,71,115,0
1,69,115,0
1,69,115,0
1,64,115,0
1,69,115,0
1,69,115,0
1,67,115,576
1,67,115,0
1,66,115,0
1,66,115,0
1,66,115,0
1,64,115,0
1,64,115,0
1,64,115,768
1,64,115,0
1,64,115,0
1,66,115,0
1,67,115,0
1,66,115,576
1,67,115,0
1,71,115,0
1,69,115,0
1,69,115,0
1,71,115,384
1,73,115,0
1,71,115,0
1,69,115,0
1,69,115,0
1,71,115,0
1,69,115,0
1,57,115,960
1,68,115,0
1,66,115,0
1,66,115,192
1,64,115,0
1,64,115,0
1,57,115,576
1,68,115,0
1,69,115,0
1,69,115,0
1,69,115,0
1,68,115,0
1,69,115,0
1,69,115,0
1,69,115,384
1,68,115,0
1,69,115,0
1,69,115,0
1,71,115,0
1,73,115,0
1,71,115,0
1,71,115,0
1,69,115,0
1,71,115,0
1,69,115,0
1,61,115,12096
1,61,115,0
1,62,115,0
1,64,115,0
1,66,115,384
1,67,115,0
1,71,115,0
1,69,115,0
1,69,115,0
1,69,115,576
1,71,115,0
1,73,115,0
1,71,115,0
1,71,115,0
1,69,115,0
1,69,115,0
1,69,115,0
1,71,115,0
1,69,115,0
1,68,115,1344
1,66,115,0
1,66,115,192
1,66,115,0
1,64,115,0
1,57,115,384
1,68,115,0
1,69,115,0
1,69,115,0
1,69,115,0
1,68,115,0
1,69,115,0
1,69,115,0
1,69,115,0
1,68,115,0
1,69,115,0
1,69,115,0
1,71,115,0
1,73,115,0
1,71,115,0
1,71,115,0
1,69,115,0
1,69,115,0
1,71,115,0
1,69,115,0
1,69,115,384
1,69,115,0
1,68,115,0
1,66,115,0
1,66,115,0
1,66,115,0
1,66,115,0
1,64,115,0
1,57,115,960
1,68,115,0
1,69,115,0
1,69,115,0
1,69,115,0
1,69,115,0
1,68,115,0
1,69,115,0
1,69,115,0
1,69,115,0
1,69,115,0
1,68,115,0
1,69,115,0
1,69,115,0
1,69,115,0
1,71,115,0
1,73,115,0
1,71,115,0
1,69,115,0
1,71,115,0
1,68,115,576
1,69,115,0
1,69,115,0
1,69,115,0
1,68,115,0
1,69,115,0
1,69,115,0
1,69,115,0
1,69,115,0
1,68,115,0
1,69,115,0
1,69,115,0
1,69,115,192
1,71,115,0
1,73,115,0
1,71,115,0
1,69,115,0
1,69,115,0
1,71,115,0
1,69,115,0
1,69,115,3648
1,68,115,0
1,69,115,0
1,71,115,0
1,69,115,0
1,69,115,0
1,64,115,0
1,69,115,0
1,69,115,0
1,67,115,384
1,67,115,0
1,67,115,0
1,66,115,0
1,66,115,0
1,66,115,0
1,64,115,0
1,64,115,0
1,64,115,0
1,69,115,768
1,68,115,0
1,69,115,0
1,71,115,0
1,69,115,0
1,69,115,0
1,64,115,0
1,69,115,0
1,69,115,0
1,67,115,576
1,67,115,0
1,67,115,0
1,66,115,0
1,66,115,0
1,66,115,0
1,66,115,0
1,64,115,0
1,64,115,0
1,64,115,960
1,64,115,0
1,64,115,0
1,66,115,0
1,67,115,0
1,66,115,576
1,67,115,0
1,71,115,0
1,69,115,0
1,69,115,0
1,71,115,576
1,73,115,0
1,71,115,0
1,69,115,0
1,69,115,0
1,71,115,0
1,69,115,0
1,69,115,960
1,68,115,0
1,66,115,0
1,66,115,0
1,64,115,0
1,64,115,0
1,57,115,576
1,68,115,0
1,69,115,0
1,69,115,0
1,69,115,0
1,68,115,0
1,69,115,0
1,69,115,0
1,69,115,384
1,68,115,0
1,69,115,0
1,69,115,0
1,71,115,0
1,73,115,0
1,71,115,0
1,71,115,0
1,69,115,0
1,69,115,0
1,71,115,0
1,69,115,0
1,69,115,768
1,68,115,0
1,66,115,0
1,66,115,0
1,66,115,0
1,66,115,0
1,64,115,0
1,57,115,960
1,68,115,0
1,69,115,0
1,69,115,0
1,69,115,0
1,69,115,0
1,68,115,0
1,69,115,0
1,69,115,0
1,69,115,0
1,69,115,0
1,68,115,0
1,69,115,0
1,69,115,0
1,69,115,0
1,71,115,0
1,73,115,0
1,71,115,0
1,69,115,0
1,71,115,0
1,68,115,576
1,69,115,0
1,69,115,0
1,69,115,0
1,68,115,0
1,69,115,0
1,69,115,0
1,69,115,0
1,69,115,0
1,68,115,0
1,69,115,0
1,69,115,0
1,69,115,192
1,71,115,0
1,73,115,0
1,71,115,0
1,69,115,0
1,69,115,0
1,71,115,0
1,69,115,0
2,57,115,6720
2,56,115,0
2,57,115,0
2,59,115,0
2,57,115,0
2,57,115,0
2,52,115,0
2,57,115,0
2,57,115,0
2,55,115,384
2,55,115,0
2,55,115,0
2,54,115,0
2,54,115,0
2,54,115,0
2,52,115,0
2,52,115,0
2,52,115,0
2,57,115,768
2,56,115,0
2,57,115,0
2,59,115,0
2,57,115,0
2,57,115,0
2,52,115,0
2,57,115,0
2,57,115,0
2,55,115,576
2,55,115,0
2,55,115,0
2,54,115,0
2,54,115,0
2,54,115,0
2,54,115,0
2,52,115,0
2,52,115,0
2,52,115,960
2,52,115,0
2,52,115,0
2,54,115,0
2,55,115,0
2,54,115,576
2,55,115,0
2,59,115,0
2,57,115,0
2,57,115,0
2,59,115,576
2,61,115,0
2,59,115,0
2,57,115,0
2,57,115,0
2,59,115,0
2,57,115,0
2,57,115,960
2,56,115,0
2,54,115,0
2,54,115,0
2,52,115,0
2,52,115,0
2,52,115,0
2,45,115,960
2,56,115,0
2,57,115,0
2,57,115,0
2,57,115,0
2,56,115,0
2,57,115,0
2,57,115,0
2,57,115,384
2,56,115,0
2,57,115,0
2,57,115,0
2,59,115,0
2,61,115,0
2,59,115,0
2,57,115,384
2,57,115,0
2,59,115,0
2,57,115,0
2,57,115,3072
2,56,115,0
2,57,115,0
2,59,115,0
2,57,115,0
2,57,115,0
2,52,115,0
2,57,115,0
2,57,115,0
2,55,115,384
2,55,115,0
2,55,115,0
2,54,115,0
2,54,115,0
2,54,115,0
2,52,115,0
2,52,115,0
2,52,115,0
2,57,115,768
2,56,115,0
2,57,115,0
2,59,115,0
2,57,115,0
2,57,115,0
2,52,115,0
2,57,115,0
2,57,115,0
2,55,115,576
2,55,115,0
2,54,115,0
2,54,115,0
2,54,115,0
2,52,115,0
2,52,115,0
2,52,115,768
2,52,115,0
2,52,115,0
2,54,115,0
2,55,115,0
2,54,115,576
2,55,115,0
2,59,115,0
2,57,115,0
2,57,115,0
2,59,115,384
2,61,115,0
2,59,115,0
2,57,115,0
2,57,115,0
2,59,115,0
2,57,115,0
2,45,115,960
2,56,115,0
2,54,115,0
2,54,115,192
2,52,115,0
2,52,115,0
2,45,115,576
2,56,115,0
2,57,115,0
2,57,115,0
2,57,115,0
2,56,115,0
2,57,115,0
2,57,115,0
2,57,115,384
2,56,115,0
2,57,115,0
2,57,115,0
2,59,115,0
2,61,115,0
2,59,115,0
2,59,115,0
2,57,115,0
2,59,115,0
2,57,115,0
2,49,115,12096
2,49,115,0
2,50,115,0
2,52,115,0
2,54,115,384
2,55,115,0
2,59,115,0
2,57,115,0
2,57,115,0
2,57,115,576
2,59,115,0
2,61,115,0
2,59,115,0
2,59,115,0
2,57,115,0
2,57,115,0
2,57,115,0
2,59,115,0
2,57,115,0
2,56,115,1344
2,54,115,0
2,54,115,192
2,54,115,0
2,52,115,0
2,45,115,384
2,56,115,0
2,57,115,0
2,57,115,0
2,57,115,0
2,56,115,0
2,57,115,0
2,57,115,0
2,57,115,0
2,56,115,0
2,57,115,0
2,57,115,0
2,59,115,0
2,61,115,0
2,59,115,0
2,59,115,0
2,57,115,0
2,57,115,0
2,59,115,0
2,57,115,0
2,57,115,384
2,57,115,0
2,56,115,0
2,54,115,0
2,54,115,0
2,54,115,0
2,54,115,0
2,52,115,0
2,45,115,960
2,56,115,0
2,57,115,0
2,57,115,0
2,57,115,0
2,57,115,0
2,56,115,0
2,57,115,0
2,57,115,0
2,57,115,0
2,57,115,0
2,56,115,0
2,57,115,0
2,57,115,0
2,57,115,0
2,59,115,0
2,61,115,0
2,59,115,0
2,57,115,0
2,59,115,0
2,56,115,576
2,57,115,0
2,57,115,0
2,57,115,0
2,56,115,0
2,57,115,0
2,57,115,0
2,57,115,0
2,57,115,0
2,56,115,0
2,57,115,0
2,57,115,0
2,57,115,192
2,59,115,0
2,61,115,0
2,59,115,0
2,57,115,0
2,57,115,0
2,59,115,0
2,57,115,0
2,57,115,3648
2,56,115,0
2,57,115,0
2,59,115,0
2,57,115,0
2,57,115,0
2,52,115,0
2,57,115,0
2,57,115,0
2,55,115,384
2,55,115,0
2,55,115,0
2,54,115,0
2,54,115,0
2,54,115,0
2,52,115,0
2,52,115,0
2,52,115,0
2,57,115,768
2,56,115,0
2,57,115,0
2,59,115,0
2,57,115,0
2,57,115,0
2,52,115,0
2,57,115,0
2,57,115,0
2,55,115,576
2,55,115,0
2,55,115,0
2,54,115,0
2,54,115,0
2,54,115,0
2,54,115,0
2,52,115,0
2,52,115,0
2,52,115,960
2,52,115,0
2,52,115,0
2,54,115,0
2,55,115,0
2,54,115,576
2,55,115,0
2,59,115,0
2,57,115,0
2,57,115,0
2,59,115,576
2,61,115,0
2,59,115,0
2,57,115,0
2,57,115,0
2,59,115,0
2,57,115,0
2,57,115,960
2,56,115,0
2,54,115,0
2,54,115,0
2,52,115,0
2,52,115,0
2,45,115,576
2,56,115,0
2,57,115,0
2,57,115,0
2,57,115,0
2,56,115,0
2,57,115,0
2,57,115,0
2,57,115,384
2,56,115,0
2,57,115,0
2,57,115,0
2,59,115,0
2,61,115,0
2,59,115,0
2,59,115,0
2,57,115,0
2,57,115,0
2,59,115,0
2,57,115,0
2,57,115,768
2,56,115,0
2,54,115,0
2,54,115,0
2,54,115,0
2,54,115,0
2,52,115,0
2,45,115,960
2,56,115,0
2,57,115,0
2,57,115,0
2,57,115,0
2,57,115,0
2,56,115,0
2,57,115,0
2,57,115,0
2,57,115,0
2,57,115,0
2,56,115,0
2,57,115,0
2,57,115,0
2,57,115,0
2,59,115,0
2,61,115,0
2,59,115,0
2,57,115,0
2,59,115,0
2,56,115,576
2,57,115,0
2,57,115,0
2,57,115,0
2,56,115,0
2,57,115,0
2,57,115,0
2,57,115,0
2,57,115,0
2,56,115,0
2,57,115,0
2,57,115,0
2,57,115,192
2,59,115,0
2,61,115,0
2,59,115,0
2,57,115,0
2,57,115,0
2,59,115,0
2,57,115,0
3,52,100,4032
3,57,100,0
3,59,100,0
3,59,100,0
3,61,100,0
3,52,100,0
3,52,100,0
3,57,100,0
3,59,100,0
3,59,100,0
3,61,100,0
3,52,100,0
3,64,100,1152
3,61,100,0
3,61,100,0
3,62,100,0
3,64,100,0
3,61,100,768
3,62,100,0
3,64,100,0
3,61,100,0
3,59,100,0
3,52,100,768
3,54,100,0
3,52,100,0
3,57,100,0
3,49,100,0
3,52,100,0
3,67,100,0
3,66,100,0
3,69,100,0
3,68,100,0
3,69,100,0
3,57,100,384
3,59,100,0
3,61,100,0
3,64,100,0
3,62,100,0
3,61,100,0
3,56,100,768
3,57,100,0
3,59,100,0
3,61,100,0
3,61,100,0
3,62,100,0
3,64,100,0
3,66,100,0
3,68,100,0
3,69,100,0
3,52,100,960
3,57,100,0
3,59,100,0
3,59,100,0
3,61,100,0
3,52,100,0
3,52,100,0
3,57,100,0
3,57,100,0
3,59,100,0
3,59,100,0
3,61,100,0
3,62,100,0
3,59,100,0
3,59,100,0
3,64,100,0
3,61,100,0
3,61,100,0
3,62,100,0
3,64,100,0
3,61,100,768
3,61,100,0
3,62,100,0
3,64,100,0
3,61,100,0
3,59,100,0
3,62,100,768
3,52,100,0
3,54,100,0
3,52,100,0
3,57,100,0
3,49,100,0
3,52,100,0
3,55,100,0
3,54,100,0
3,57,100,0
3,56,100,0
3,57,100,0
3,59,100,0
3,61,100,0
3,64,100,0
3,62,100,0
3,61,100,0
3,56,100,768
3,57,100,0
3,59,100,0
3,61,100,0
3,61,100,0
3,62,100,0
3,64,100,0
3,66,100,0
3,68,100,0
3,69,100,0
3,64,100,384
3,64,100,0
3,64,100,0
3,62,100,0
3,62,100,0
3,62,100,0
3,62,100,0
3,61,100,0
3,61,100,0
3,61,100,0
3,61,100,0
3,59,100,0
3,61,100,0
3,57,100,0
3,52,100,576
3,57,100,0
3,64,100,0
3,64,100,0
3,64,100,0
3,64,100,0
3,62,100,0
3,62,100,0
3,62,100,0
3,62,100,0
3,61,100,0
3,61,100,0
3,61,100,0
3,61,100,0
3,59,100,0
3,61,100,0
3,57,100,0
3,61,100,2688
3,62,100,0
3,64,100,0
3,62,100,0
3,62,100,0
3,61,100,0
3,61,100,0
3,61,100,0
3,62,100,0
3,61,100,0
3,61,100,7872
3,62,100,0
3,64,100,0
3,62,100,0
3,62,100,0
3,61,100,0
3,61,100,0
3,62,100,0
3,61,100,0
3,62,100,3840
3,62,100,0
3,62,100,0
3,62,100,0
3,62,100,0
3,64,100,0
3,64,100,0
3,64,100,0
3,64,100,0
3,64,100,0
3,64,100,0
3,64,100,0
3,64,100,0
3,61,100,0
3,62,100,0
3,64,100,0
3,62,100,0
3,61,100,0
3,62,100,0
3,61,100,576
3,62,100,0
3,62,100,0
3,62,100,0
3,61,100,0
3,64,100,0
3,64,100,0
3,64,100,0
3,64,100,0
3,64,100,0
3,64,100,0
3,64,100,0
3,61,100,192
3,62,100,0
3,64,100,0
3,62,100,0
3,61,100,0
3,61,100,0
3,62,100,0
3,61,100,0
3,52,100,960
3,57,100,0
3,59,100,0
3,59,100,0
3,61,100,0
3,52,100,0
3,52,100,0
3,57,100,0
3,59,100,0
3,59,100,0
3,61,100,0
3,52,100,0
3,64,100,1152
3,61,100,0
3,61,100,0
3,62,100,0
3,64,100,0
3,61,100,768
3,62,100,0
3,64,100,0
3,61,100,0
3,59,100,0
3,52,100,768
3,54,100,0
3,52,100,0
3,57,100,0
3,49,100,0
3,52,100,0
3,67,100,0
3,66,100,0
3,62,100,384
3,64,100,0
3,69,100,0
3,62,100,0
3,61,100,0
3,68,100,0
3,61,100,0
3,62,100,0
3,61,100,0
3,69,100,0
3,57,100,0
3,59,100,0
3,61,100,0
3,64,100,0
3,62,100,0
3,61,100,0
3,56,100,768
3,57,100,0
3,59,100,0
3,61,100,0
3,61,100,0
3,62,100,0
3,64,100,0
3,66,100,0
3,68,100,0
3,69,100,0
3,68,100,0
3,66,100,0
3,64,100,0
3,62,100,0
3,62,100,0
3,62,100,0
3,62,100,0
