track,note,velocity,time
1,40,117,26928
1,35,115,16
1,40,115,6
1,35,113,6
1,40,116,6
1,35,116,6
1,40,118,8
1,35,117,24
1,33,118,6
1,40,121,6
1,33,121,46
1,40,120,6
1,40,122,18
1,35,120,6
1,40,121,6
1,35,119,6
1,40,121,6
1,35,119,6
1,40,119,6
1,35,116,40
1,40,120,6
1,35,116,10
1,40,119,6
1,35,117,6
1,35,120,6
1,42,117,28
1,35,120,6
1,42,117,6
1,40,121,6
1,35,119,6
1,40,121,6
1,35,120,6
1,40,117,6
1,35,115,16
1,40,115,6
1,35,113,6
1,40,116,6
1,35,116,6
1,40,118,8
1,35,117,24
1,33,118,6
1,40,121,6
1,33,121,46
1,40,120,6
1,40,122,18
1,35,120,6
1,40,121,6
1,35,119,6
1,40,121,6
1,35,119,6
1,40,119,6
1,35,116,40
1,40,120,6
1,35,116,10
1,40,119,6
1,35,117,6
1,35,120,6
1,42,117,28
1,35,120,6
1,42,117,6
1,40,121,6
1,35,119,6
1,40,121,6
1,35,120,6
1,41,117,6
1,36,115,16
1,41,115,6
1,36,113,6
1,41,116,6
1,36,116,6
1,41,118,8
1,36,117,24
1,34,118,6
1,41,121,6
1,34,121,46
1,41,120,6
1,41,122,18
1,36,120,6
1,41,121,6
1,36,119,6
1,41,121,6
1,36,119,6
1,41,119,6
1,36,116,40
1,41,120,6
1,36,116,10
1,41,119,6
1,36,117,6
1,36,120,6
1,43,117,28
1,36,120,6
1,43,117,6
1,41,121,6
1,36,119,6
1,41,121,6
1,36,120,6
1,42,117,6
1,37,115,16
1,42,115,6
1,37,113,6
1,42,116,6
1,37,116,6
1,42,118,8
1,37,117,24
1,35,118,6
1,42,121,6
1,35,121,46
1,42,120,6
1,42,122,18
1,37,120,6
1,42,121,6
1,37,119,6
1,42,121,6
1,37,119,6
1,42,119,6
1,37,116,40
1,42,120,6
1,37,116,10
1,42,119,6
1,37,117,6
1,37,120,6
1,44,117,28
1,37,120,6
1,44,117,6
1,42,121,6
1,37,119,6
1,42,121,6
1,37,120,6
1,43,117,6
1,38,115,16
1,43,115,6
1,38,113,6
1,43,116,6
1,38,116,6
1,43,118,8
1,38,117,24
1,36,118,6
1,43,121,6
1,36,121,46
1,43,120,6
1,43,122,18
1,38,120,6
1,43,121,6
1,38,119,6
1,43,121,6
1,38,119,6
1,43,119,6
1,38,116,40
1,43,120,6
1,38,116,10
1,43,119,6
1,38,117,6
1,38,120,6
1,45,117,28
1,38,120,6
1,45,117,6
1,43,121,6
1,38,119,6
1,43,121,6
1,38,120,6
1,43,117,6
1,38,115,16
1,43,115,6
1,38,113,6
1,43,116,6
1,38,116,6
1,43,118,8
1,38,117,24
1,36,118,6
1,43,121,6
1,36,121,46
1,43,120,6
1,43,122,18
1,38,120,6
1,43,121,6
1,38,119,6
1,43,121,6
1,38,119,6
1,43,119,6
1,38,116,40
1,43,120,6
1,38,116,10
1,43,119,6
1,38,117,6
1,38,120,6
1,45,117,28
1,38,120,6
1,45,117,6
1,43,121,6
1,38,119,6
1,43,121,6
1,38,120,6
1,43,117,6
1,38,115,16
1,43,115,6
1,38,113,6
1,43,116,6
1,38,116,6
1,43,118,8
1,38,117,24
1,36,118,6
1,43,121,6
1,36,121,46
1,43,120,6
1,43,122,18
2,71,81,51872
2,64,88,0
2,71,84,2112
2,64,88,0
2,64,90,1976
2,71,83,0
2,64,81,1920
2,71,78,0
2,64,83,2028
2,71,78,0
2,71,81,2022
2,64,84,0
2,71,82,2184
2,64,81,0
2,71,84,2148
2,64,86,0
2,72,81,2016
2,65,88,0
2,65,88,2112
2,72,84,0
2,72,83,1976
2,65,90,0
2,65,81,1920
2,72,78,0
2,65,83,2028
2,72,78,0
2,72,81,2022
2,65,84,0
2,65,81,2184
2,72,82,0
2,65,86,2148
2,72,84,0
2,73,81,2016
2,66,88,0
2,73,84,2112
2,66,88,0
2,73,83,1976
2,66,90,0
2,73,78,1920
2,66,81,0
2,66,83,2028
2,73,78,0
2,73,81,2022
2,66,84,0
2,73,82,2184
2,66,81,0
2,73,84,2148
2,66,86,0
2,67,88,2016
2,74,81,0
2,67,88,2112
2,74,84,0
2,74,83,1976
2,67,90,0
2,74,78,1920
2,67,81,0
2,67,83,2028
2,74,78,0
2,74,81,2022
2,67,84,0
2,67,81,2184
2,74,82,0
2,74,84,2148
2,67,86,0
2,67,88,2016
2,74,81,0
2,74,84,2112
2,67,88,0
2,74,83,1976
2,67,90,0
2,74,78,1920
2,67,81,0
2,67,83,2028
2,74,78,0
2,67,84,2022
2,74,81,0
2,74,82,2184
2,67,81,0
2,74,84,2148
2,67,86,0
2,67,88,2016
2,74,81,0
2,74,84,266
2,67,88,0
2,67,90,16
2,74,83,0
3,44,108,2
3,40,109,2
3,40,109,6
3,44,105,6
3,45,109,6
3,47,110,6
3,47,109,6
3,44,109,6
3,40,106,6
3,45,99,6
3,45,109,6
3,45,100,6
3,49,104,6
3,52,109,6
3,47,107,6
3,44,108,2
3,40,109,2
3,40,109,6
3,44,105,6
3,45,109,6
3,47,110,6
3,40,109,6
3,44,109,6
3,45,106,6
3,47,99,6
3,47,109,6
3,44,108,2
3,40,109,2
3,44,108,2
3,40,109,2
3,40,109,6
3,44,105,6
3,45,109,6
3,47,110,6
3,47,109,6
3,44,109,6
3,40,106,6
3,45,99,6
3,45,109,6
3,45,100,6
3,49,104,6
3,52,109,6
3,47,107,6
3,44,108,2
3,40,109,2
3,40,109,6
3,44,105,6
3,45,109,6
3,47,110,6
3,40,109,6
3,44,109,6
3,45,106,6
3,47,99,6
3,47,109,6
3,44,108,2
3,40,109,2
3,44,108,2
3,40,109,2
3,40,109,6
3,44,105,6
3,45,109,6
3,47,110,6
3,47,109,6
3,44,109,6
3,40,106,6
3,45,99,6
3,45,109,6
3,45,100,6
3,49,104,6
3,52,109,6
3,47,107,6
3,44,108,2
3,40,109,2
3,40,109,6
3,44,105,6
3,45,109,6
3,47,110,6
3,40,109,6
3,44,109,6
3,45,106,6
3,47,99,6
3,47,109,6
3,44,108,2
3,40,109,2
3,40,110,54
3,40,115,8
3,40,108,6
3,40,112,8
3,41,109,8
3,41,109,6
3,45,105,6
3,46,109,6
3,48,110,6
3,48,109,6
3,45,109,6
3,41,106,6
3,46,99,6
3,46,109,6
3,46,100,6
3,50,104,6
3,53,109,6
3,48,107,6
3,45,108,2
3,41,109,2
3,41,109,6
3,45,105,6
3,46,109,6
3,48,110,6
3,41,109,6
3,45,109,6
3,46,106,6
3,48,99,6
3,48,109,6
3,45,108,2
3,41,109,2
3,46,108,2
3,42,109,2
3,42,109,6
3,46,105,6
3,47,109,6
3,49,110,6
3,49,109,6
3,46,109,6
3,42,106,6
3,47,99,6
3,47,109,6
3,47,100,6
3,51,104,6
3,54,109,6
3,49,107,6
3,46,108,2
3,42,109,2
3,42,109,6
3,46,105,6
3,47,109,6
3,49,110,6
3,42,109,6
3,46,109,6
3,47,106,6
3,49,99,6
3,49,109,6
3,46,108,2
3,42,109,2
3,42,112,438
3,43,109,8
3,43,109,6
3,47,105,6
3,48,109,6
3,50,110,6
3,50,109,6
3,47,109,6
3,43,106,6
3,48,99,6
3,48,109,6
3,48,100,6
3,52,104,6
3,55,109,6
3,50,107,6
3,47,108,2
3,43,109,2
3,43,109,6
3,47,105,6
3,48,109,6
3,50,110,6
3,43,109,6
3,47,109,6
3,48,106,6
3,50,99,6
3,50,109,6
3,47,108,2
3,43,109,2
3,47,108,2
3,43,109,2
3,43,109,6
3,47,105,6
3,48,109,6
3,50,110,6
3,50,109,6
3,47,109,6
3,43,106,6
3,48,99,6
3,48,109,6
3,48,100,6
3,52,104,6
3,55,109,6
3,50,107,6
3,47,108,2
3,43,109,2
3,43,109,6
3,47,105,6
3,48,109,6
3,50,110,6
3,43,109,6
3,47,109,6
3,48,106,6
3,50,99,6
3,50,109,6
3,47,108,2
3,43,109,2
3,47,108,2
3,43,109,2
3,43,109,6
3,47,105,6
3,48,109,6
3,50,110,6
3,50,109,6
3,47,109,6
3,43,106,6
3,48,99,6
3,48,109,6
3,48,100,6
3,52,104,6
3,55,109,6
4,64,123,50
4,61,108,6
4,64,122,202
4,64,125,16
4,61,103,22
4,64,121,146
4,64,124,6
4,61,102,6
4,64,123,168
4,64,123,1660
4,61,103,6
4,64,122,168
4,64,127,14
4,61,102,36
4,64,123,156
4,64,125,1680
4,61,96,6
4,64,122,168
4,64,123,1658
4,61,94,34
4,64,122,180
4,64,127,62
4,61,91,22
4,64,122,214
4,65,123,50
4,62,108,6
4,65,122,202
4,65,125,16
4,62,103,22
4,65,121,146
4,65,124,6
4,62,102,6
4,65,123,168
4,65,123,1660
4,62,103,6
4,65,122,168
4,65,127,14
4,62,102,36
4,65,123,156
4,65,125,1680
4,62,96,6
4,65,122,168
4,65,123,1658
4,62,94,34
4,65,122,180
4,65,127,62
4,62,91,22
4,65,122,214
4,65,120,50
4,66,117,6
4,66,118,6
4,65,121,2
4,66,116,6
4,66,119,6
4,66,117,128
4,66,117,6
4,66,118,6
4,68,120,4
4,66,117,6
4,66,116,70
4,66,111,20
4,66,116,28
4,66,105,22
4,66,118,32
4,73,122,6
4,66,116,2
4,66,110,240
4,66,110,6
4,66,116,6
4,66,114,6
4,66,118,6
4,70,118,2
4,66,112,2
4,66,114,370
4,66,116,6
4,70,120,6
4,71,116,6
4,70,118,6
4,66,114,6
4,66,116,6
4,66,116,212
4,66,116,6
4,70,119,6
4,71,120,6
4,72,119,6
4,72,115,6
4,70,113,166
4,66,108,6
4,66,114,74
4,70,111,4
4,66,112,2
4,66,109,6
4,63,114,6
4,66,114,6
4,67,123,50
4,64,108,6
4,67,122,202
4,67,125,16
4,64,103,22
4,67,121,146
4,67,124,6
4,64,102,6
4,67,123,168
4,67,123,1660
4,64,103,6
4,67,122,168
4,67,127,14
4,64,102,36
4,67,123,156
4,67,125,1680
4,64,96,6
4,67,122,168
4,67,123,1658
4,64,94,34
4,67,122,180
4,67,127,62
4,64,91,22
4,67,122,214
4,69,120,844
4,67,114,6
4,67,118,90
4,69,123,96
4,67,115,6
4,67,119,76
4,67,121,468
4,67,120,374
5,40,108,26528
5,40,107,136
5,35,109,376
5,42,85,0
5,39,75,376
5,42,121,0
5,40,109,0
5,42,85,376
5,35,108,0
5,40,108,376
5,39,75,0
5,42,121,0
5,35,109,376
5,42,85,0
5,40,109,376
5,39,75,0
5,42,121,0
5,35,108,376
5,42,85,0
5,40,110,376
5,42,121,0
5,39,75,0
5,35,109,376
5,42,85,0
5,40,109,376
5,42,121,0
5,39,75,0
5,35,108,376
5,42,85,0
5,40,108,376
5,42,121,0
5,39,75,0
5,42,85,376
5,35,109,0
5,42,121,376
5,40,109,0
5,39,75,0
5,35,108,376
5,42,85,0
5,42,121,376
5,39,75,0
5,40,110,0
5,35,109,376
5,42,85,0
5,40,109,376
5,42,121,0
5,39,75,0
5,35,108,376
5,42,85,0
5,42,121,376
5,40,108,0
5,39,75,0
5,35,109,376
5,42,85,0
5,42,121,376
5,40,109,0
5,39,75,0
5,35,108,376
5,42,85,0
5,39,75,376
5,40,110,0
5,42,121,0
5,35,109,376
5,42,85,0
5,42,121,376
5,39,75,0
5,40,109,0
5,35,108,376
5,42,85,0
5,39,75,376
5,40,108,0
5,42,121,0
5,35,109,376
5,42,85,0
5,42,121,376
5,40,109,0
5,39,75,0
5,35,108,376
5,42,85,0
5,42,121,376
5,40,110,0
5,39,75,0
5,42,85,376
5,35,109,0
5,42,121,376
5,39,75,0
5,40,109,0
5,42,85,376
5,35,108,0
5,39,75,376
5,42,121,0
5,40,108,0
5,42,85,376
5,35,109,0
5,39,75,376
5,40,109,0
5,42,121,0
5,42,85,376
5,35,108,0
5,42,121,376
5,39,75,0
5,40,110,0
5,35,109,376
5,42,85,0
5,39,75,376
5,40,109,0
5,42,121,0
5,42,85,376
5,35,108,0
5,39,75,376
5,40,108,0
5,42,121,0
5,42,85,376
5,35,109,0
5,39,75,376
5,40,109,0
5,42,121,0
5,35,108,376
5,42,85,0
5,40,110,376
5,39,75,0
5,42,121,0
5,35,109,376
5,42,85,0
5,40,109,376
5,39,75,0
5,42,121,0
5,35,108,376
5,42,85,0
5,42,121,376
5,40,108,0
5,39,75,0
5,42,85,376
5,35,109,0
5,40,109,376
5,39,75,0
5,42,121,0
5,42,85,376
5,35,108,0
5,42,121,376
5,40,110,0
5,39,75,0
5,35,109,376
5,42,85,0
5,42,121,376
5,40,109,0
5,39,75,0
5,42,85,376
5,35,108,0
5,42,121,376
5,39,75,0
5,40,108,0
5,35,109,376
5,42,85,0
5,40,109,376
5,42,121,0
5,39,75,0
5,42,85,376
5,35,108,0
5,40,100,232
5,40,110,136
5,39,75,0
5,46,104,0
5,42,85,376
5,35,109,0
5,40,109,376
5,42,121,0
5,39,75,0
5,35,108,376
5,42,85,0
5,39,75,376
5,42,121,0
5,40,108,0
5,42,85,376
5,35,109,0
5,42,121,376
5,40,109,0
5,39,75,0
5,35,108,376
5,42,85,0
5,40,110,376
5,42,121,0
5,39,75,0
5,42,85,376
5,35,109,0
5,42,121,376
5,40,109,0
5,39,75,0
5,35,108,376
5,42,85,0
5,42,121,376
5,40,108,0
5,39,75,0
5,35,109,376
5,42,85,0
5,42,121,376
5,40,109,0
5,39,75,0
5,35,108,376
5,42,85,0
5,40,110,376
5,39,75,0
5,42,121,0
5,35,109,376
5,42,85,0
5,39,75,376
5,40,109,0
5,42,121,0
5,42,85,376
5,35,108,0
5,39,75,376
5,40,108,0
5,42,121,0
5,42,85,376
5,35,109,0
5,40,109,376
5,39,75,0
5,42,121,0
5,35,108,376
5,42,85,0
5,42,121,376
5,40,110,0
5,39,75,0
5,42,85,376
5,35,109,0
5,39,75,376
5,42,121,0
5,40,109,0
5,42,85,376
5,35,108,0
5,42,121,376
5,40,108,0
5,39,75,0
5,42,85,376
5,35,109,0
5,39,75,376
5,40,109,0
5,42,121,0
5,42,85,376
5,35,108,0
5,42,121,376
5,40,110,0
5,39,75,0
5,42,85,376
5,35,109,0
5,42,121,376
5,40,109,0
5,39,75,0
5,35,108,376
5,42,85,0
5,42,121,376
5,40,108,0
5,39,75,0
5,42,85,376
5,35,109,0
5,42,121,376
5,39,75,0
5,40,109,0
5,42,85,376
5,35,108,0
5,39,75,376
5,40,110,0
5,42,121,0
5,42,85,376
5,35,109,0
5,42,121,376
5,40,109,0
5,39,75,0
5,35,108,376
5,42,85,0
5,40,108,376
5,39,75,0
5,42,121,0
5,35,109,376
5,42,85,0
5,42,121,376
5,40,109,0
5,39,75,0
5,42,85,376
5,35,108,0
5,40,110,376
5,39,75,0
5,42,121,0
5,35,109,376
5,42,85,0
5,40,109,376
5,39,75,0
5,42,121,0
5,35,108,376
5,42,85,0
5,40,108,376
5,42,121,0
5,39,75,0
5,42,85,376
5,35,109,0
5,40,109,376
5,39,75,0
5,42,121,0
5,42,85,376
5,35,108,0
5,42,121,376
5,40,110,0
5,39,75,0
5,42,85,376
5,35,109,0
5,42,121,376
5,40,109,0
5,39,75,0
5,42,85,376
5,35,108,0
5,39,75,376
5,42,121,0
5,40,108,0
5,35,109,376
5,42,85,0
5,39,75,376
5,40,109,0
5,42,121,0
5,42,85,376
5,35,108,0
5,40,100,232
5,40,110,136
5,39,75,0
5,46,104,0
5,35,109,10
5,42,85,0
5,39,75,376
5,40,109,0
5,42,121,0
5,42,85,376
5,35,108,0
5,42,121,376
5,39,75,0
5,40,108,0
5,42,85,376
5,35,109,0
5,39,75,376
5,40,109,0
5,42,121,0
5,42,85,376
5,35,108,0
5,40,110,376
5,39,75,0
5,42,121,0
5,42,85,376
5,35,109,0
5,40,109,376
5,42,121,0
5,39,75,0
5,35,108,376
5,42,85,0
5,42,121,376
5,39,75,0
5,40,108,0
5,35,109,376
5,42,85,0
5,42,121,376
5,40,109,0
5,39,75,0
5,35,108,376
5,42,85,0
5,40,110,376
5,42,121,0
5,39,75,0
5,35,109,376
5,42,85,0
5,42,121,376
5,40,109,0
5,39,75,0
5,42,85,376
