track,note,velocity,time
2,69,60,6512
2,66,60,0
2,71,65,768
2,64,65,0
2,69,0,4
2,66,0,0
2,69,65,188
2,71,0,4
2,71,70,572
2,69,0,4
2,69,75,380
2,71,0,4
2,72,70,4
2,69,0,4
2,64,0,0
2,71,70,128
2,72,0,4
2,67,70,188
2,71,0,4
2,67,0,192
2,74,70,188
2,69,70,0
2,66,70,0
2,73,70,768
2,64,70,0
2,74,0,4
2,66,0,0
2,72,70,764
2,73,0,4
2,71,70,668
2,67,70,0
2,62,70,0
2,72,0,4
2,69,0,0
2,64,0,0
2,71,0,4
2,67,0,0
2,62,0,0
2,64,70,13252
2,67,70,0
2,64,0,672
2,67,0,0
2,65,70,0
2,69,70,0
2,65,0,96
2,69,0,0
2,69,70,0
2,62,70,0
2,69,0,96
2,62,0,0
2,69,80,2304
2,69,0,192
2,65,80,0
2,62,80,0
2,65,0,128
2,65,80,64
2,62,0,96
2,65,0,96
2,64,80,0
2,64,0,96
2,65,80,0
2,64,80,288
2,64,0,128
2,62,80,64
2,65,0,192
2,62,0,0
2,60,80,0
2,57,80,40
2,60,0,8
2,74,70,144
2,69,70,0
2,57,0,576
2,74,0,192
2,69,0,0
2,73,70,0
2,69,70,0
2,57,75,192
2,57,0,192
2,64,105,0
2,73,0,192
2,69,0,0
2,64,0,0
2,61,85,0
2,61,0,192
2,72,70,0
2,69,70,0
2,57,80,0
2,57,0,576
2,60,80,0
2,72,0,192
2,69,0,0
2,60,0,0
2,60,70,0
2,72,70,0
2,69,80,0
2,60,0,192
2,72,0,0
2,69,0,0
2,59,70,0
2,71,70,0
2,67,80,0
2,59,0,192
2,71,0,0
2,67,0,0
2,62,70,0
2,67,70,0
2,67,0,384
2,62,0,0
2,74,70,0
2,69,70,0
2,74,0,768
2,69,0,0
2,73,70,0
2,69,70,0
2,57,75,192
2,57,0,192
2,64,105,0
2,64,0,192
2,61,85,0
2,73,0,192
2,69,0,0
2,61,0,0
2,72,70,0
2,69,70,0
2,57,70,0
2,72,0,4
2,69,0,0
2,57,0,0
2,60,90,6144
2,65,90,0
2,69,95,480
2,72,100,384
2,65,0,4
2,60,0,0
2,69,0,0
2,72,0,0
2,67,110,4
2,64,110,0
2,67,0,4
2,64,0,0
2,69,100,0
2,65,100,0
2,69,0,80
2,65,0,0
2,69,100,16
2,65,100,0
2,69,0,120
2,65,0,0
2,74,70,4008
2,69,90,0
2,57,30,0
2,74,0,96
2,69,0,0
2,57,0,0
2,74,70,0
2,69,90,0
2,57,30,0
2,74,0,4
2,69,0,0
2,57,0,0
2,72,70,0
2,67,90,0
2,55,30,0
2,67,0,96
2,55,0,0
2,65,90,0
2,53,30,0
2,65,0,64
2,53,0,0
2,72,0,32
2,69,70,0
2,62,90,0
2,50,30,0
2,69,0,96
2,62,0,0
2,50,0,0
2,69,90,768
2,69,0,288
2,65,100,0
2,65,0,80
2,65,100,16
2,65,0,288
2,64,100,0
2,64,0,80
2,65,90,16
2,62,80,0
2,64,100,288
2,64,0,72
2,60,100,216
2,62,0,96
2,65,0,4
2,60,0,0
2,57,100,0
2,57,0,480
2,66,80,0
2,57,60,0
2,71,90,4
2,66,0,4
2,57,0,0
2,69,90,116
2,71,0,8
2,64,80,184
2,69,0,8
2,61,70,184
2,64,0,8
2,57,60,184
2,61,0,8
2,57,0,184
2,71,80,0
2,57,55,0
2,69,75,192
2,71,0,16
2,64,65,176
2,69,0,8
2,57,0,4
2,64,0,0
2,81,100,0
2,69,80,0
2,79,85,116
2,67,75,0
2,81,0,8
2,69,0,0
2,74,60,184
2,62,60,0
2,79,0,8
2,67,0,0
2,74,0,4
2,62,0,0
2,57,60,192
2,66,70,192
2,57,0,8
2,71,90,4
2,66,0,4
2,69,90,124
2,71,0,8
2,64,75,184
2,69,0,8
2,61,60,184
2,64,0,8
2,57,60,184
2,61,0,8
2,71,90,4
2,57,0,4
2,69,70,124
2,71,0,8
2,64,60,184
2,69,0,8
2,69,60,184
2,64,0,8
2,67,60,184
2,69,0,8
2,67,0,4
2,74,85,192
2,74,0,72
2,74,80,24
2,74,0,96
2,74,80,0
2,74,0,96
2,74,80,0
2,74,0,96
2,72,75,0
2,72,0,4
2,71,80,2400
2,71,0,80
2,71,80,16
2,71,0,64
2,71,80,32
2,71,0,96
2,72,80,0
2,72,0,96
2,71,80,0
2,71,0,96
2,72,80,0
2,72,0,4
2,72,75,1008
2,72,0,80
2,72,75,16
2,72,0,96
2,71,75,0
2,71,0,96
2,69,75,0
2,69,0,80
2,72,75,16
2,72,0,864
2,74,75,192
2,74,0,96
2,74,75,0
2,74,0,64
2,74,75,32
2,74,0,96
2,74,75,0
2,74,0,96
2,74,75,0
2,74,0,96
2,72,75,0
2,72,0,96
2,72,75,0
2,72,0,4
2,72,75,1096
2,72,0,96
2,71,75,0
2,71,0,96
2,69,75,0
2,69,0,128
2,72,80,64
2,72,0,92
2,38,105,2588
2,38,0,80
2,41,105,16
2,41,0,96
2,41,105,0
2,41,0,64
2,41,105,32
2,41,0,80
2,38,105,16
2,38,0,4
3,66,80,368
3,64,70,4
3,66,0,4
3,66,70,4
3,64,0,4
3,66,0,4
3,64,70,0
3,64,0,4
3,86,120,384
3,81,120,0
3,86,0,192
3,81,0,0
3,86,120,0
3,81,120,0
3,86,0,192
3,81,0,0
3,86,120,0
3,81,120,0
3,86,0,192
3,81,0,0
3,86,120,0
3,81,120,0
3,86,0,192
3,81,0,0
3,85,120,0
3,81,120,0
3,85,0,192
3,81,0,0
3,85,120,0
3,81,120,0
3,85,0,192
3,81,0,0
3,85,120,0
3,81,120,0
3,85,0,192
3,81,0,0
3,85,120,0
3,81,120,0
3,85,0,192
3,81,0,0
3,84,120,0
3,81,120,0
3,84,0,192
3,81,0,0
3,84,120,0
3,81,120,0
3,84,0,192
3,81,0,0
3,84,110,0
3,81,110,0
3,84,0,192
3,81,0,0
3,84,100,0
3,81,100,0
3,84,0,96
3,81,0,0
3,69,90,960
3,67,86,0
3,65,82,0
3,62,78,0
3,57,74,0
3,69,0,4
3,67,0,0
3,65,0,0
3,62,0,0
3,57,0,0
3,67,90,0
3,67,0,44
3,69,90,4
3,67,86,0
3,65,82,0
3,62,78,0
3,57,74,0
3,69,0,4
3,67,0,0
3,65,0,0
3,62,0,0
3,57,0,0
3,67,90,0
3,67,0,44
3,74,127,768
3,62,80,0
3,74,0,96
3,62,0,0
3,74,127,96
3,62,80,0
3,74,0,96
3,62,0,0
3,74,127,96
3,62,80,0
3,74,0,96
3,62,0,0
3,74,127,96
3,62,80,0
3,74,0,96
3,62,0,0
3,73,127,96
3,61,80,0
3,73,0,96
3,61,0,0
3,73,127,96
3,61,80,0
3,73,0,96
3,61,0,0
3,73,127,96
3,61,80,0
3,73,0,96
3,61,0,0
3,73,127,96
3,61,80,0
3,73,0,96
3,61,0,0
3,72,110,96
3,60,70,0
3,72,0,96
3,60,0,0
3,72,110,96
3,60,70,0
3,72,0,96
3,60,0,0
3,72,110,96
3,60,70,0
3,72,0,96
3,60,0,0
3,72,110,96
3,60,70,0
3,72,0,96
3,60,0,0
3,72,115,21600
3,60,50,0
3,72,0,72
3,60,0,0
3,72,115,120
3,60,50,0
3,72,0,72
3,60,0,0
3,72,115,120
3,60,50,0
3,72,0,72
3,60,0,0
3,72,115,120
3,60,50,0
3,72,0,72
3,60,0,0
3,71,115,120
3,59,50,0
3,71,0,72
3,59,0,0
3,71,115,120
3,59,50,0
3,71,0,72
3,59,0,0
3,71,115,120
3,59,50,0
3,71,0,72
3,59,0,0
3,71,115,120
3,59,50,0
3,71,0,72
3,59,0,0
3,74,127,120
3,62,70,0
3,74,0,72
3,62,0,0
3,74,127,120
3,62,70,0
3,74,0,72
3,62,0,0
3,74,127,120
3,62,70,0
3,74,0,72
3,62,0,0
3,74,127,120
3,62,70,0
3,74,0,72
3,62,0,0
3,73,127,120
3,61,70,0
3,73,0,72
3,61,0,0
3,73,127,120
3,61,70,0
3,73,0,72
3,61,0,0
3,73,127,120
3,61,70,0
3,73,0,72
3,61,0,0
3,73,127,120
3,61,70,0
3,73,0,72
3,61,0,0
3,72,115,120
3,60,70,0
3,72,0,72
3,60,0,0
3,72,115,120
3,60,70,0
3,72,0,72
3,60,0,0
3,72,115,120
3,60,70,0
3,72,0,72
3,60,0,0
3,72,115,120
3,60,70,0
3,72,0,72
3,60,0,0
3,71,120,120
3,59,75,0
3,71,0,48
3,59,0,0
3,71,120,240
3,59,75,0
3,71,0,64
3,59,0,0
3,71,110,128
3,59,65,0
3,71,0,48
3,59,0,0
3,71,100,48
3,59,55,0
3,71,0,48
3,59,0,0
3,71,95,48
3,59,50,0
3,71,0,48
3,59,0,0
3,69,115,92
3,67,100,0
3,65,90,0
3,62,90,0
3,69,0,4
3,67,0,0
3,65,0,0
3,62,0,0
3,53,127,768
3,48,127,0
3,41,127,0
3,53,0,4
3,48,0,0
3,41,0,0
3,81,100,4
3,81,0,96
3,79,100,0
3,79,0,4
3,81,100,0
3,81,0,4
4,83,80,4
4,71,80,0
4,66,70,0
4,62,60,0
4,59,50,0
4,42,50,0
4,81,80,4
4,69,80,0
4,57,50,0
4,83,0,4
4,71,0,0
4,59,0,0
4,81,0,4
4,69,0,0
4,66,0,0
4,62,0,0
4,57,0,0
4,42,0,0
4,83,80,0
4,71,80,0
4,64,80,0
4,61,60,0
4,49,50,0
4,45,30,0
4,40,40,0
4,81,80,196
4,69,80,0
4,83,0,4
4,71,0,0
4,83,75,4
4,71,75,0
4,66,75,0
4,62,35,0
4,50,35,0
4,47,30,0
4,81,0,4
4,69,0,0
4,64,0,4
4,61,0,0
4,49,0,0
4,45,0,0
4,40,0,0
4,83,0,8
4,71,0,0
4,81,75,0
4,69,75,0
4,81,0,4
4,69,0,0
4,66,0,0
4,62,0,0
4,50,0,0
4,47,0,0
4,83,80,0
4,71,80,0
4,64,80,0
4,61,80,0
4,52,50,0
4,40,50,0
4,81,80,4
4,69,80,0
4,83,0,32
4,71,0,0
4,52,0,8
4,40,0,0
4,81,0,4
4,69,0,0
4,64,0,0
4,61,0,0
4,74,127,1056
4,62,127,0
4,50,127,0
4,74,0,88
4,62,0,0
4,50,0,0
4,69,90,1056
4,67,90,0
4,62,90,0
4,69,0,4
4,67,0,0
4,62,0,0
4,81,70,292
4,79,70,0
4,69,70,4
4,81,0,4
4,79,0,0
4,84,100,4
4,81,100,0
4,79,100,0
4,69,0,4
4,84,0,4
4,81,0,0
4,79,0,0
4,81,100,3700
4,79,100,0
4,74,100,0
4,81,0,4
4,79,0,0
4,74,0,0
4,81,100,196
4,79,100,0
4,81,0,4
4,79,0,0
4,74,100,0
4,74,0,4
4,79,100,0
4,74,100,0
4,67,100,0
4,79,0,8
4,74,0,0
4,67,0,0
4,74,127,676
4,62,127,0
4,74,0,32
4,62,0,0
4,72,127,672
4,67,90,0
4,57,55,0
4,55,40,0
4,72,0,96
4,67,0,0
4,57,0,0
4,55,0,0
4,72,127,0
4,67,90,0
4,57,55,0
4,55,40,0
4,57,0,4
4,55,0,0
4,57,120,0
4,55,60,0
4,50,45,0
4,69,30,0
4,72,0,4
4,67,0,0
4,57,0,52
4,55,0,0
4,50,0,0
4,69,0,0
4,74,127,4
4,72,100,0
4,69,90,0
4,65,80,0
4,62,95,4
4,57,95,0
4,53,95,0
4,50,95,0
4,74,0,12
4,72,0,0
4,65,0,0
4,65,95,184
4,67,95,4
4,69,0,4
4,67,0,956
4,65,0,0
4,62,0,0
4,57,0,0
4,53,0,0
4,50,0,0
4,55,95,768
4,50,80,4
4,55,0,4
4,50,0,572
4,49,80,192
4,49,0,576
4,48,80,192
4,48,0,576
4,47,80,192
4,47,0,576
4,50,85,192
4,50,0,480
4,49,85,288
4,49,0,480
4,48,85,288
4,48,0,480
4,47,85,288
4,47,0,480
4,55,85,7968
4,55,0,384
4,57,85,0
4,57,0,384
4,55,85,0
4,55,0,80
4,55,85,16
4,55,0,80
4,55,85,16
4,55,0,80
4,55,85,16
4,55,0,80
4,55,85,16
4,55,0,80
4,55,85,16
4,55,0,80
4,55,60,16
4,55,0,80
4,55,70,16
4,55,0,80
4,55,70,16
4,55,0,80
4,55,72,16
4,55,0,80
4,55,74,16
4,55,0,80
4,55,76,16
4,55,0,80
4,55,78,16
4,55,0,80
4,55,80,16
4,55,0,80
4,55,82,16
4,55,0,80
4,57,70,16
4,57,0,480
4,77,99,196
4,72,99,0
4,77,0,96
4,72,0,0
4,77,99,96
4,72,99,0
4,77,0,96
4,72,0,0
4,75,99,0
4,70,99,0
4,75,0,96
4,70,0,0
4,77,99,96
4,72,99,0
4,72,0,88
4,77,0,8
4,80,99,96
4,75,99,0
4,80,0,96
4,75,0,0
4,82,99,0
4,77,99,0
4,82,0,96
4,77,0,0
4,84,99,0
4,80,99,0
4,84,0,96
4,80,0,0
4,87,99,96
4,82,99,0
4,87,0,96
4,82,0,0
4,89,99,96
4,84,99,0
4,89,0,96
4,84,0,0
4,89,99,0
4,84,99,0
4,89,0,96
4,84,0,0
4,92,99,0
4,87,99,0
4,92,0,96
4,87,0,0
4,94,99,96
4,89,99,0
4,94,0,96
4,89,0,0
4,96,99,96
4,92,99,0
4,96,0,96
4,92,0,0
4,69,45,480
4,57,35,0
4,69,0,48
4,57,0,0
4,74,60,48
4,62,50,0
4,74,0,48
4,62,0,0
4,77,75,48
4,65,65,0
4,77,0,192
4,65,0,0
4,76,75,0
4,64,65,0
4,76,0,192
4,64,0,0
4,69,55,0
4,57,45,0
4,69,0,180
4,57,0,0
4,81,85,12
4,69,75,0
4,81,0,480
4,69,0,0
4,69,50,288
4,57,40,0
4,69,0,56
4,57,0,0
4,74,65,40
4,62,55,0
4,74,0,64
4,62,0,0
4,77,80,32
4,65,70,0
4,77,0,192
4,65,0,0
4,84,90,0
4,72,80,0
4,84,0,96
4,72,0,0
4,83,90,96
4,71,80,0
4,83,0,64
4,71,0,0
4,79,90,128
4,67,80,0
4,79,0,4
4,67,0,0
4,86,40,0
4,81,35,0
4,74,30,0
4,86,0,768
4,81,0,0
4,74,0,0
4,84,40,0
4,79,35,0
4,72,30,0
4,84,0,768
4,79,0,0
4,72,0,0
4,83,40,0
4,76,35,0
4,69,30,0
4,83,0,384
4,81,40,0
4,81,0,320
4,79,40,0
4,76,0,64
4,69,0,0
4,79,0,0
4,81,40,0
4,76,35,0
4,69,30,0
4,81,0,4
4,76,0,0
4,69,0,0
4,86,40,0
4,81,35,0
4,74,30,0
4,86,0,192
4,81,0,0
4,74,0,0
4,84,40,0
4,79,35,0
4,72,30,0
4,81,40,864
4,76,35,0
4,69,30,0
4,84,0,4
4,79,0,0
4,72,0,0
4,81,0,1440
4,76,0,0
4,69,0,0
5,40,50,3056
5,45,52,48
5,40,0,32
5,52,54,12
5,45,0,28
5,57,56,16
5,52,0,12
5,61,58,28
5,57,0,8
5,64,60,32
5,61,0,8
5,69,62,32
5,64,0,8
5,73,64,32
5,69,0,8
5,76,66,32
5,73,0,8
5,81,68,32
5,76,0,8
5,85,70,32
5,81,0,8
5,88,72,32
5,85,0,8
5,90,74,32
5,88,0,8
5,88,72,32
5,90,0,8
5,85,70,32
5,88,0,8
5,81,68,32
5,85,0,8
5,73,66,28
5,81,0,12
5,69,64,24
5,73,0,12
5,61,62,24
5,69,0,12
5,57,60,20
5,61,0,16
5,49,60,16
5,57,0,16
5,45,60,44
5,49,0,20
5,45,0,28
5,35,45,256
5,38,47,96
5,35,0,8
5,42,49,72
5,38,0,4
5,47,50,40
5,42,0,4
5,49,52,36
5,47,0,8
5,50,54,32
5,49,0,8
5,52,56,32
5,50,0,8
5,54,58,32
5,52,0,8
5,57,60,32
5,54,0,8
5,59,62,32
5,57,0,8
5,61,64,32
5,59,0,8
5,62,66,32
5,61,0,8
5,64,68,32
5,62,0,8
5,66,70,32
5,64,0,8
5,69,72,32
5,66,0,8
5,71,74,28
5,69,0,12
5,73,76,24
5,71,0,12
5,74,78,24
