track,note,velocity,time
1,37,116,578
1,37,116,692
1,44,116,692
1,39,96,308
1,32,89,308
1,42,126,116
1,41,93,116
1,39,70,116
1,37,93,116
1,32,93,308
1,37,93,308
1,32,93,308
1,37,93,308
1,32,93,308
1,37,93,308
1,32,93,308
1,37,93,308
1,32,93,308
1,37,93,308
1,41,93,308
1,39,93,308
1,32,93,212
1,31,93,20
1,32,93,212
1,36,93,20
1,36,93,308
1,39,93,212
1,44,93,20
1,32,93,308
1,44,93,308
1,32,93,308
1,44,93,308
1,32,93,308
1,44,93,308
1,32,93,308
1,44,93,308
1,39,93,308
1,36,93,308
1,32,93,308
1,37,93,308
1,44,93,212
1,43,93,20
1,44,93,212
1,46,93,20
1,44,93,212
1,41,93,20
1,39,93,212
1,37,93,20
1,32,93,308
1,37,93,308
1,32,93,308
1,37,93,308
1,32,93,308
1,37,93,308
1,32,93,308
1,37,93,308
1,32,93,308
1,37,93,308
1,41,93,308
1,39,93,308
1,38,101,308
1,39,103,212
1,41,104,20
1,39,103,212
1,36,102,20
1,32,99,212
1,46,93,20
1,39,93,308
1,46,93,308
1,39,93,308
1,44,93,308
1,48,93,308
1,51,93,308
1,56,93,308
1,39,93,308
1,39,93,308
1,39,93,308
1,39,93,308
1,44,93,308
1,51,93,100
1,49,93,20
1,48,93,20
1,46,93,20
1,44,93,20
1,42,93,116
1,41,93,116
1,39,93,116
1,37,93,116
1,32,93,308
1,37,93,308
1,32,93,308
1,37,93,308
1,32,93,308
1,37,93,308
1,32,93,308
1,37,93,308
1,32,93,308
1,37,93,308
1,41,93,308
1,39,93,308
1,32,93,212
1,31,93,20
1,32,93,212
1,36,93,20
1,36,93,308
1,39,93,212
1,44,93,20
1,32,93,308
1,44,93,308
1,32,93,308
1,44,93,308
1,32,93,308
1,44,93,308
1,32,93,308
1,44,93,308
1,39,93,308
1,36,93,308
1,32,93,308
1,37,93,308
1,44,93,212
1,43,93,20
1,44,93,212
1,46,93,20
1,44,93,212
1,41,93,20
1,39,93,212
1,37,93,20
1,32,93,308
1,37,93,308
1,32,93,308
1,37,93,308
1,32,93,308
1,37,93,308
1,32,93,308
1,37,93,308
1,32,93,308
1,37,93,308
1,41,93,308
1,39,93,308
1,38,101,308
1,39,103,212
1,41,104,20
1,39,103,212
1,36,102,20
1,32,99,212
1,46,93,20
1,39,93,308
1,46,93,308
1,39,93,308
1,44,93,308
1,48,93,308
1,51,93,308
1,56,93,308
1,39,93,308
1,39,93,308
1,39,93,308
1,39,93,308
1,44,93,308
1,51,120,100
1,49,108,20
1,48,100,20
1,46,94,20
1,44,90,20
1,44,114,100
1,44,114,196
1,44,114,44
1,42,114,196
1,41,114,196
1,39,114,196
1,38,114,196
1,39,114,100
1,41,114,44
1,39,114,100
1,32,114,44
1,44,114,196
1,44,114,100
1,44,114,44
1,41,114,196
1,39,114,196
1,37,114,196
1,36,114,196
1,37,114,100
1,39,114,44
1,37,114,100
1,32,114,44
1,32,114,196
1,32,114,196
1,39,123,44
1,32,114,292
1,32,114,292
1,32,114,196
1,41,126,44
1,32,114,292
1,32,114,292
1,32,114,196
1,44,126,44
1,43,114,196
1,42,125,44
1,41,114,196
1,39,126,44
1,37,114,196
1,36,126,44
1,34,114,196
1,32,114,44
1,32,114,100
1,34,114,44
1,36,114,44
1,34,114,100
1,32,114,100
1,30,114,100
1,29,114,100
1,27,114,100
1,37,93,100
1,37,93,276
1,37,93,276
1,37,93,282
1,32,93,288
1,32,93,272
1,32,93,296
1,30,93,344
1,30,93,246
1,30,93,262
1,34,93,262
1,37,93,254
1,37,93,258
1,37,93,252
1,32,126,292
1,37,93,196
1,37,93,276
1,41,93,276
1,37,93,282
1,42,93,288
1,42,93,272
1,42,93,296
1,42,110,580
1,42,110,246
1,37,109,262
1,32,110,646
1,32,110,258
1,37,111,252
1,44,114,292
1,44,114,196
1,44,114,44
1,42,114,196
1,41,114,196
1,39,114,196
1,38,114,196
1,39,114,100
1,41,114,44
1,39,114,100
1,32,114,44
1,44,114,196
1,44,114,100
1,44,114,44
1,41,114,196
1,39,114,196
1,37,114,196
1,36,114,196
1,37,114,100
1,39,114,44
1,37,114,100
1,32,114,44
1,32,114,196
1,32,114,196
1,39,123,44
1,32,114,292
1,32,114,292
1,32,114,196
1,41,126,44
1,32,114,292
1,32,114,292
1,32,114,196
1,44,126,44
1,43,114,196
1,42,125,44
1,41,114,196
1,39,126,44
1,37,114,196
1,36,126,44
1,34,114,196
1,32,114,44
1,32,114,100
1,34,114,44
1,36,114,44
1,34,114,100
1,32,114,100
1,30,114,100
1,29,114,100
1,27,114,100
1,37,93,100
1,37,93,276
1,37,93,276
1,37,93,282
1,32,93,288
1,32,93,272
1,32,93,296
1,30,93,344
1,30,93,246
1,30,93,262
1,34,93,262
1,37,93,254
1,37,93,258
1,37,93,252
1,32,126,292
1,37,93,196
1,37,93,276
1,41,93,276
1,37,93,282
1,42,93,288
1,42,93,272
1,42,93,296
1,42,110,580
1,42,110,246
1,37,109,262
1,32,110,646
1,32,110,258
1,37,111,252
1,37,106,292
1,42,93,42
1,37,93,308
1,42,93,308
1,37,93,308
1,42,93,308
1,37,93,308
1,42,93,308
1,37,93,308
1,42,93,308
1,37,93,308
1,34,93,308
1,32,93,308
1,42,93,308
1,42,93,308
1,42,93,308
1,42,93,308
1,37,93,308
1,41,93,308
1,44,93,308
1,49,93,308
1,41,93,308
1,37,93,308
1,41,93,308
1,37,93,308
1,37,93,308
1,41,93,308
1,44,93,308
1,49,93,308
1,37,93,308
1,37,93,308
1,37,93,308
1,37,93,308
1,42,93,308
1,37,93,308
1,34,93,308
1,32,93,308
1,42,103,308
1,42,107,296
1,42,110,296
1,46,113,296
1,42,117,296
1,42,117,296
1,42,117,296
1,37,117,296
1,42,117,296
1,49,117,296
1,46,117,296
1,42,117,296
1,47,116,296
1,47,116,296
1,47,116,296
1,47,107,296
1,37,93,296
1,37,93,296
1,37,93,296
1,37,93,296
1,42,93,296
1,42,93,296
1,42,93,296
1,42,93,296
1,37,93,296
1,37,93,296
1,37,93,296
1,37,93,296
1,42,93,296
1,42,75,104
1,42,81,38
1,42,93,38
1,49,86,0
1,42,93,120
1,46,86,0
1,42,93,104
1,42,93,680
1,37,93,308
1,42,93,308
1,37,93,308
1,42,93,308
1,37,93,308
1,34,93,308
1,32,93,308
1,42,93,308
1,42,93,308
1,42,93,308
1,42,93,308
1,37,93,308
1,41,93,308
1,44,93,308
1,49,93,308
1,41,93,308
1,37,93,308
1,41,93,308
1,37,93,308
1,37,93,308
1,41,93,308
1,44,93,308
1,49,93,308
1,37,93,308
1,37,93,308
1,37,93,308
1,37,93,308
1,42,93,308
1,37,93,308
1,34,93,308
1,32,93,308
1,42,103,308
1,42,107,296
1,42,110,296
1,46,113,296
1,42,117,296
1,42,117,296
1,42,117,296
1,37,117,296
1,42,117,296
1,49,117,296
1,46,117,296
1,42,117,296
1,47,116,296
1,47,116,296
1,47,116,296
1,47,107,296
1,37,93,296
1,37,93,296
1,37,93,296
1,37,93,296
1,42,93,296
1,42,93,296
1,42,93,296
1,42,93,296
1,37,93,296
1,37,93,296
1,37,93,296
1,37,93,296
1,42,93,296
1,42,75,104
1,42,81,38
1,42,93,38
1,49,86,0
1,42,93,120
1,46,86,0
1,42,93,104
1,37,97,680
1,37,97,308
1,37,97,308
1,37,97,308
1,37,97,308
1,41,97,308
1,44,97,308
1,49,97,308
1,42,97,308
1,42,97,308
1,42,97,308
1,42,97,308
1,42,97,308
1,46,97,308
1,49,97,308
1,42,97,308
1,37,97,308
1,37,97,308
1,37,97,308
1,37,97,308
1,37,97,308
1,37,97,308
1,37,97,308
1,37,97,308
1,42,97,308
1,42,97,308
1,42,97,308
1,42,97,308
1,42,97,308
1,42,97,308
1,42,97,308
1,37,97,484
1,37,97,308
1,37,97,308
1,37,97,308
1,37,97,308
1,41,97,308
1,44,97,308
1,49,97,308
1,42,97,308
1,42,97,308
1,42,97,308
1,42,97,308
1,42,97,308
1,46,97,308
1,49,97,308
1,42,97,308
1,47,97,308
1,47,97,308
1,47,97,308
1,42,97,308
1,37,97,308
1,37,97,308
1,37,97,308
1,49,97,580
1,47,97,308
1,46,97,308
1,44,97,308
1,42,97,308
1,42,97,116
1,37,97,116
1,34,97,116
1,30,97,116
1,37,97,484
1,37,97,308
1,37,97,308
1,37,97,308
1,37,97,308
1,41,97,308
1,44,97,308
1,49,97,308
1,42,97,308
1,42,97,308
1,42,97,308
1,42,97,308
1,42,97,308
1,46,97,308
1,49,97,308
1,42,97,308
1,37,97,308
1,37,97,308
1,37,97,308
1,37,97,308
1,37,97,308
1,37,97,308
1,37,97,308
1,37,97,308
1,42,97,308
1,42,97,308
1,42,97,308
1,42,97,308
1,42,97,308
1,42,97,308
1,42,97,308
1,37,97,484
1,37,97,308
1,37,97,308
1,37,97,308
1,37,97,308
1,41,97,308
1,44,97,308
1,49,97,308
1,42,97,308
1,42,97,308
1,42,97,308
1,42,97,308
1,42,97,308
1,46,97,308
1,49,97,308
1,42,97,308
1,47,97,308
1,47,97,308
1,47,97,308
1,42,97,308
1,37,97,308
1,37,97,308
1,37,97,308
1,49,97,580
1,47,97,308
1,46,97,308
1,44,97,308
1,42,97,308
1,42,97,116
1,37,97,116
1,34,97,116
1,30,97,116
2,49,109,762
2,53,103,0
2,56,112,0
2,61,120,0
2,49,109,682
2,53,100,0
2,56,106,0
2,61,112,0
2,51,106,648
2,56,109,0
2,60,100,0
2,51,106,118
2,56,100,0
2,60,100,0
2,51,120,58
2,56,100,0
2,60,103,0
2,51,99,48
2,56,94,0
2,60,43,0
2,51,106,140
2,56,112,0
2,60,107,0
2,44,90,140
2,51,120,0
2,56,112,0
2,60,111,0
2,54,124,116
2,53,100,116
2,51,77,116
2,49,119,116
2,65,109,0
2,61,102,116
2,65,102,0
2,68,102,0
2,44,119,132
2,65,111,0
2,61,102,116
2,65,102,0
2,68,102,0
2,49,119,130
2,65,112,0
2,61,102,116
2,65,102,0
2,68,102,0
2,61,90,26
2,65,90,0
2,68,90,0
2,44,119,48
2,61,102,0
2,65,102,0
2,68,102,0
2,64,114,20
2,61,102,44
2,65,102,0
2,68,102,0
2,66,115,38
2,49,119,44
2,68,115,0
2,61,102,116
2,65,102,0
2,68,102,0
2,44,119,132
2,68,117,0
2,61,102,116
2,65,102,0
2,68,102,0
2,49,119,130
2,68,118,0
2,61,102,116
2,65,102,0
2,68,102,0
2,61,90,26
2,65,90,0
2,68,90,0
2,44,119,48
2,61,102,0
2,65,102,0
2,68,102,0
2,67,120,20
2,61,102,44
2,65,102,0
2,68,102,0
2,72,121,40
2,49,119,44
2,73,121,0
2,61,102,116
2,65,102,0
2,68,102,0
2,44,119,132
2,72,122,0
2,61,102,116
2,65,102,0
2,68,102,0
2,49,119,130
2,70,124,0
2,61,102,116
2,65,102,0
2,68,102,0
2,61,90,26
2,65,90,0
2,68,90,0
2,53,119,48
2,61,102,0
2,65,102,0
2,67,125,0
2,68,102,0
2,61,102,116
2,65,102,0
2,68,102,0
2,68,126,38
2,51,119,44
2,72,114,0
2,60,102,116
2,63,102,0
2,66,102,0
2,44,119,36
2,43,119,20
2,60,102,116
2,63,102,0
2,66,102,0
2,44,119,34
2,48,119,20
2,60,102,4
2,63,102,0
2,66,102,0
2,60,90,26
2,63,90,0
2,66,90,0
2,48,119,48
2,60,102,0
2,63,102,0
2,66,102,0
2,60,102,116
2,63,102,0
2,66,102,0
2,51,122,38
2,56,127,20
2,63,110,0
2,63,102,116
2,66,102,0
2,44,119,132
2,63,112,0
2,60,102,116
2,63,102,0
2,66,102,0
2,56,119,130
2,63,113,0
2,60,102,116
2,63,102,0
2,66,102,0
2,60,90,26
2,63,90,0
2,66,90,0
2,44,119,48
2,60,102,0
2,63,102,0
2,66,102,0
2,62,115,20
2,60,102,44
2,63,102,0
2,66,102,0
2,65,116,38
2,56,119,44
2,66,116,0
2,60,102,116
2,63,102,0
2,66,102,0
2,44,119,132
2,66,117,0
2,60,102,116
2,63,102,0
2,66,102,0
2,56,119,130
2,66,119,0
2,60,102,116
2,63,102,0
2,66,102,0
2,60,90,26
2,63,90,0
2,66,90,0
2,44,119,48
2,60,102,0
2,63,102,0
2,66,102,0
2,65,120,20
2,60,102,44
2,63,102,0
2,66,102,0
2,68,121,40
2,56,119,44
2,72,122,0
2,60,102,116
2,63,102,0
2,66,102,0
2,51,119,132
2,70,123,0
2,60,102,116
2,63,102,0
2,66,102,0
2,48,119,130
2,68,124,0
2,60,102,116
2,63,102,0
2,66,102,0
2,60,90,26
2,63,90,0
2,66,90,0
2,44,119,48
2,60,102,0
2,62,126,0
2,63,102,0
2,66,102,0
2,60,102,116
2,63,102,0
2,66,102,0
2,63,127,38
2,49,119,44
2,65,112,0
2,61,102,2
2,65,102,0
2,68,102,0
2,56,127,36
2,55,127,20
2,61,102,116
2,65,102,0
2,68,102,0
2,56,127,34
2,58,127,20
2,61,102,116
2,65,102,0
2,68,102,0
2,56,127,26
2,61,90,0
2,65,90,0
2,68,90,0
2,53,127,20
2,61,102,0
2,65,102,0
2,68,102,0
2,61,102,116
2,65,102,0
2,68,102,0
2,51,127,38
2,49,119,20
2,65,109,0
2,61,102,116
2,65,102,0
2,68,102,0
2,44,119,132
2,65,111,0
2,61,102,116
2,65,102,0
2,68,102,0
2,49,119,130
2,65,112,0
2,61,102,116
2,65,102,0
2,68,102,0
2,61,90,26
2,65,90,0
2,68,90,0
2,44,119,48
2,61,102,0
2,65,102,0
2,68,102,0
2,64,114,20
2,61,102,44
2,65,102,0
2,68,102,0
2,66,115,38
2,49,119,44
2,68,115,0
2,61,102,116
2,65,102,0
2,68,102,0
2,44,119,132
2,68,117,0
2,61,102,116
2,65,102,0
2,68,102,0
2,49,119,130
2,68,118,0
2,61,102,116
2,65,102,0
2,68,102,0
2,61,90,26
2,65,90,0
2,68,90,0
2,44,119,48
2,61,102,0
2,65,102,0
2,68,102,0
2,67,120,20
2,61,102,44
2,65,102,0
2,68,102,0
2,72,121,40
2,49,119,44
2,73,121,0
2,61,102,116
2,65,102,0
2,68,102,0
2,44,119,132
2,72,122,0
2,61,102,116
2,65,102,0
2,68,102,0
2,49,119,130
2,70,124,0
2,61,102,116
2,65,102,0
2,68,102,0
2,61,90,26
2,65,90,0
2,68,90,0
2,53,119,48
2,61,102,0
2,65,102,0
2,68,102,0
2,61,102,116
2,65,102,0
2,68,102,0
2,61,126,38
2,51,119,44
2,63,114,0
2,60,102,2
2,63,102,0
2,66,102,0
2,50,127,132
2,60,102,116
2,66,102,0
2,51,127,34
2,53,127,20
2,60,102,116
2,63,102,0
2,66,102,0
2,51,127,26
2,60,90,0
2,63,90,0
2,66,90,0
2,48,127,20
2,60,102,0
2,63,102,0
2,66,102,0
2,60,102,116
2,63,102,0
2,66,102,0
2,70,78,6
2,44,125,32
2,72,83,0
2,73,90,20
2,74,104,20
2,58,119,20
2,75,122,0
2,58,102,116
2,63,102,0
2,67,102,0
2,51,119,132
2,63,111,0
2,62,111,20
2,58,102,62
2,63,102,0
2,67,102,0
2,67,111,34
2,58,119,54
2,70,112,0
2,58,102,116
2,63,102,0
2,67,102,0
2,58,90,26
2,63,90,0
2,67,90,0
2,51,119,48
2,58,102,0
2,63,102,0
2,67,102,0
2,58,102,116
2,63,102,0
2,67,102,0
2,70,79,6
2,72,83,32
2,73,89,20
2,74,104,20
2,56,119,20
2,75,122,0
2,60,102,116
2,63,102,0
2,68,102,0
2,60,119,132
2,63,111,0
2,62,111,20
2,60,102,62
2,63,102,0
2,68,102,0
2,68,111,34
2,63,119,54
2,72,112,0
2,60,102,116
2,63,102,0
2,68,102,0
2,60,90,26
2,63,90,0
2,68,90,0
2,60,102,48
2,63,102,0
2,68,119,0
2,60,102,140
2,63,102,0
2,68,102,0
2,51,119,134
2,63,125,0
2,62,109,20
2,58,102,42
2,63,102,0
2,67,102,0
