track,note,velocity,time
1.0,40.0,90.0,1588.0
1.0,40.0,40.0,80.0
1.0,35.0,100.0,272.0
1.0,40.0,90.0,368.0
1.0,40.0,40.0,80.0
1.0,35.0,100.0,176.0
1.0,35.0,100.0,272.0
1.0,40.0,90.0,176.0
1.0,40.0,40.0,80.0
1.0,35.0,100.0,272.0
1.0,40.0,90.0,368.0
1.0,40.0,40.0,80.0
1.0,35.0,100.0,176.0
1.0,35.0,100.0,272.0
1.0,40.0,90.0,176.0
1.0,40.0,40.0,80.0
1.0,35.0,100.0,272.0
1.0,40.0,90.0,368.0
1.0,40.0,40.0,80.0
1.0,35.0,100.0,176.0
1.0,35.0,100.0,272.0
1.0,40.0,90.0,176.0
1.0,40.0,40.0,80.0
1.0,35.0,80.0,176.0
1.0,35.0,100.0,80.0
1.0,42.0,55.0,0.0
1.0,42.0,55.0,176.0
1.0,42.0,55.0,176.0
1.0,40.0,90.0,0.0
1.0,40.0,40.0,80.0
1.0,42.0,55.0,80.0
1.0,35.0,100.0,80.0
1.0,42.0,55.0,80.0
1.0,35.0,100.0,176.0
1.0,42.0,55.0,0.0
1.0,42.0,55.0,176.0
1.0,40.0,90.0,0.0
1.0,40.0,40.0,80.0
1.0,42.0,55.0,80.0
1.0,35.0,100.0,176.0
1.0,42.0,55.0,0.0
1.0,42.0,55.0,176.0
1.0,42.0,55.0,176.0
1.0,40.0,90.0,0.0
1.0,40.0,40.0,80.0
1.0,42.0,55.0,80.0
1.0,35.0,100.0,80.0
1.0,42.0,55.0,80.0
1.0,35.0,100.0,176.0
1.0,42.0,55.0,0.0
1.0,42.0,55.0,176.0
1.0,40.0,90.0,0.0
1.0,40.0,40.0,80.0
1.0,42.0,55.0,80.0
1.0,35.0,100.0,176.0
1.0,42.0,55.0,0.0
1.0,42.0,55.0,176.0
1.0,42.0,55.0,176.0
1.0,40.0,90.0,0.0
1.0,40.0,40.0,80.0
1.0,42.0,55.0,80.0
1.0,35.0,100.0,80.0
1.0,42.0,55.0,80.0
1.0,35.0,100.0,176.0
1.0,42.0,55.0,0.0
1.0,42.0,55.0,176.0
1.0,40.0,90.0,0.0
1.0,40.0,40.0,80.0
1.0,42.0,55.0,80.0
1.0,35.0,100.0,176.0
1.0,42.0,55.0,0.0
1.0,42.0,55.0,176.0
1.0,42.0,55.0,176.0
1.0,40.0,90.0,0.0
1.0,40.0,40.0,80.0
1.0,42.0,55.0,80.0
1.0,35.0,100.0,80.0
1.0,42.0,55.0,80.0
1.0,35.0,100.0,176.0
1.0,42.0,55.0,0.0
1.0,42.0,55.0,176.0
1.0,40.0,90.0,0.0
1.0,40.0,40.0,80.0
1.0,42.0,55.0,80.0
1.0,35.0,100.0,176.0
1.0,42.0,55.0,0.0
1.0,42.0,55.0,176.0
1.0,42.0,55.0,176.0
1.0,40.0,90.0,0.0
1.0,40.0,40.0,80.0
1.0,42.0,55.0,80.0
1.0,35.0,100.0,80.0
1.0,42.0,55.0,80.0
1.0,35.0,100.0,176.0
1.0,42.0,55.0,0.0
1.0,42.0,55.0,176.0
1.0,40.0,90.0,0.0
1.0,40.0,40.0,80.0
1.0,42.0,55.0,80.0
1.0,35.0,100.0,176.0
1.0,42.0,55.0,0.0
1.0,42.0,55.0,176.0
1.0,42.0,55.0,176.0
1.0,40.0,90.0,0.0
1.0,40.0,40.0,80.0
1.0,42.0,55.0,80.0
1.0,35.0,100.0,80.0
1.0,42.0,55.0,80.0
1.0,35.0,100.0,176.0
1.0,42.0,55.0,0.0
1.0,42.0,55.0,176.0
1.0,40.0,90.0,0.0
1.0,40.0,40.0,80.0
1.0,42.0,55.0,80.0
1.0,35.0,100.0,176.0
1.0,42.0,55.0,0.0
1.0,42.0,55.0,176.0
1.0,42.0,55.0,176.0
1.0,40.0,90.0,0.0
1.0,40.0,40.0,80.0
1.0,42.0,55.0,80.0
1.0,35.0,100.0,80.0
1.0,42.0,55.0,80.0
1.0,35.0,100.0,176.0
1.0,42.0,55.0,0.0
1.0,42.0,55.0,176.0
1.0,40.0,90.0,0.0
1.0,40.0,40.0,80.0
1.0,42.0,55.0,80.0
1.0,35.0,100.0,176.0
1.0,42.0,55.0,0.0
1.0,42.0,55.0,176.0
1.0,42.0,55.0,176.0
1.0,40.0,90.0,0.0
1.0,40.0,40.0,80.0
1.0,42.0,55.0,80.0
1.0,35.0,100.0,80.0
1.0,42.0,55.0,80.0
1.0,35.0,100.0,176.0
1.0,42.0,55.0,0.0
1.0,42.0,55.0,176.0
1.0,40.0,90.0,0.0
1.0,40.0,40.0,80.0
1.0,42.0,55.0,80.0
1.0,35.0,100.0,176.0
1.0,42.0,60.0,0.0
1.0,42.0,50.0,80.0
1.0,42.0,50.0,80.0
1.0,42.0,60.0,176.0
1.0,40.0,90.0,0.0
1.0,42.0,50.0,80.0
1.0,40.0,40.0,0.0
1.0,42.0,50.0,80.0
1.0,35.0,100.0,80.0
1.0,42.0,60.0,80.0
1.0,42.0,50.0,80.0
1.0,35.0,100.0,80.0
1.0,46.0,60.0,0.0
1.0,42.0,60.0,176.0
1.0,40.0,90.0,0.0
1.0,42.0,50.0,80.0
1.0,40.0,40.0,0.0
1.0,42.0,50.0,80.0
1.0,42.0,40.0,80.0
1.0,35.0,100.0,80.0
1.0,42.0,60.0,0.0
1.0,42.0,50.0,80.0
1.0,42.0,50.0,80.0
1.0,42.0,60.0,176.0
1.0,40.0,90.0,0.0
1.0,42.0,50.0,80.0
1.0,40.0,40.0,0.0
1.0,42.0,50.0,80.0
1.0,35.0,100.0,80.0
1.0,42.0,60.0,80.0
1.0,42.0,50.0,80.0
1.0,35.0,100.0,80.0
1.0,46.0,60.0,0.0
1.0,42.0,60.0,176.0
1.0,40.0,90.0,0.0
1.0,42.0,50.0,80.0
1.0,40.0,40.0,0.0
1.0,42.0,50.0,80.0
1.0,42.0,40.0,80.0
1.0,35.0,100.0,80.0
1.0,42.0,60.0,0.0
1.0,42.0,50.0,80.0
1.0,42.0,50.0,80.0
1.0,42.0,60.0,176.0
1.0,40.0,90.0,0.0
1.0,42.0,50.0,80.0
1.0,40.0,40.0,0.0
1.0,42.0,50.0,80.0
1.0,35.0,100.0,80.0
1.0,42.0,60.0,80.0
1.0,42.0,50.0,80.0
1.0,35.0,100.0,80.0
1.0,46.0,60.0,0.0
1.0,42.0,60.0,176.0
1.0,40.0,90.0,0.0
1.0,42.0,50.0,80.0
1.0,40.0,40.0,0.0
1.0,42.0,50.0,80.0
1.0,42.0,40.0,80.0
1.0,35.0,100.0,80.0
1.0,42.0,60.0,0.0
1.0,42.0,50.0,80.0
1.0,42.0,50.0,80.0
1.0,42.0,60.0,176.0
1.0,40.0,90.0,0.0
1.0,42.0,50.0,80.0
1.0,40.0,40.0,0.0
1.0,42.0,50.0,80.0
1.0,35.0,100.0,80.0
1.0,42.0,60.0,80.0
1.0,42.0,50.0,80.0
1.0,35.0,100.0,80.0
1.0,46.0,60.0,0.0
1.0,42.0,60.0,176.0
1.0,40.0,90.0,0.0
1.0,35.0,70.0,80.0
1.0,42.0,50.0,0.0
1.0,40.0,40.0,0.0
1.0,42.0,50.0,80.0
1.0,42.0,40.0,80.0
1.0,40.0,80.0,0.0
2.0,70.0,120.0,1728.0
2.0,70.0,120.0,368.0
2.0,70.0,120.0,368.0
2.0,70.0,120.0,368.0
2.0,70.0,120.0,368.0
2.0,70.0,120.0,368.0
2.0,70.0,120.0,368.0
2.0,70.0,120.0,368.0
2.0,70.0,120.0,368.0
2.0,70.0,120.0,368.0
2.0,70.0,120.0,368.0
2.0,70.0,120.0,368.0
2.0,70.0,120.0,368.0
2.0,70.0,120.0,368.0
2.0,70.0,120.0,368.0
2.0,70.0,120.0,368.0
2.0,70.0,120.0,368.0
2.0,70.0,120.0,368.0
2.0,70.0,120.0,368.0
2.0,70.0,120.0,368.0
2.0,70.0,120.0,368.0
2.0,70.0,120.0,368.0
2.0,70.0,120.0,368.0
2.0,70.0,120.0,368.0
2.0,70.0,120.0,368.0
2.0,70.0,120.0,368.0
2.0,70.0,120.0,368.0
2.0,70.0,120.0,368.0
2.0,70.0,120.0,368.0
2.0,70.0,120.0,368.0
2.0,70.0,120.0,368.0
2.0,70.0,120.0,368.0
2.0,70.0,120.0,368.0
2.0,70.0,120.0,368.0
2.0,70.0,120.0,368.0
2.0,70.0,120.0,368.0
2.0,70.0,120.0,368.0
2.0,70.0,120.0,368.0
2.0,70.0,120.0,368.0
2.0,70.0,120.0,368.0
2.0,70.0,120.0,368.0
2.0,70.0,120.0,368.0
2.0,70.0,120.0,368.0
2.0,70.0,120.0,368.0
2.0,70.0,120.0,368.0
2.0,70.0,120.0,368.0
2.0,70.0,120.0,368.0
2.0,70.0,120.0,368.0
2.0,70.0,120.0,368.0
2.0,70.0,120.0,368.0
2.0,70.0,120.0,368.0
2.0,70.0,120.0,368.0
2.0,70.0,120.0,368.0
2.0,70.0,120.0,368.0
2.0,70.0,120.0,368.0
2.0,70.0,120.0,368.0
2.0,70.0,120.0,368.0
2.0,70.0,120.0,368.0
2.0,70.0,120.0,368.0
2.0,70.0,120.0,368.0
2.0,70.0,120.0,368.0
2.0,70.0,120.0,368.0
2.0,70.0,120.0,368.0
2.0,70.0,120.0,368.0
3.0,25.0,100.0,7156.0
3.0,27.0,100.0,16.0
3.0,23.0,100.0,16.0
3.0,30.0,100.0,16.0
3.0,25.0,100.0,16.0
3.0,27.0,100.0,16.0
3.0,23.0,100.0,16.0
3.0,30.0,100.0,16.0
3.0,25.0,100.0,16.0
3.0,27.0,100.0,16.0
3.0,23.0,100.0,16.0
3.0,30.0,100.0,16.0
4.0,68.0,60.0,1324.0
4.0,61.0,100.0,0.0
4.0,68.0,60.0,152.0
4.0,61.0,90.0,0.0
4.0,68.0,50.0,152.0
4.0,61.0,80.0,0.0
4.0,68.0,40.0,152.0
4.0,61.0,60.0,0.0
4.0,68.0,40.0,152.0
4.0,61.0,50.0,0.0
4.0,68.0,30.0,152.0
4.0,61.0,40.0,0.0
4.0,70.0,60.0,16.0
4.0,63.0,100.0,0.0
4.0,70.0,60.0,152.0
4.0,63.0,90.0,0.0
4.0,70.0,50.0,152.0
4.0,63.0,80.0,0.0
4.0,70.0,40.0,152.0
4.0,63.0,60.0,0.0
4.0,70.0,40.0,152.0
4.0,63.0,50.0,0.0
4.0,70.0,30.0,152.0
4.0,63.0,40.0,0.0
4.0,71.0,80.0,16.0
4.0,59.0,100.0,0.0
4.0,71.0,70.0,152.0
4.0,59.0,90.0,0.0
4.0,71.0,50.0,152.0
4.0,59.0,80.0,0.0
4.0,71.0,40.0,152.0
4.0,59.0,60.0,0.0
4.0,71.0,40.0,152.0
4.0,59.0,50.0,0.0
4.0,71.0,30.0,152.0
4.0,59.0,40.0,0.0
4.0,70.0,60.0,16.0
4.0,66.0,100.0,0.0
4.0,70.0,60.0,152.0
4.0,66.0,90.0,0.0
4.0,70.0,50.0,152.0
4.0,66.0,80.0,0.0
4.0,70.0,40.0,152.0
4.0,66.0,60.0,0.0
4.0,70.0,40.0,152.0
4.0,66.0,50.0,0.0
4.0,70.0,20.0,152.0
4.0,66.0,40.0,0.0
4.0,68.0,60.0,16.0
4.0,61.0,100.0,0.0
4.0,68.0,60.0,152.0
4.0,61.0,90.0,0.0
4.0,68.0,50.0,152.0
4.0,61.0,80.0,0.0
4.0,68.0,40.0,152.0
4.0,61.0,60.0,0.0
4.0,68.0,40.0,152.0
4.0,61.0,50.0,0.0
4.0,68.0,30.0,152.0
4.0,61.0,40.0,0.0
4.0,70.0,60.0,16.0
4.0,63.0,100.0,0.0
4.0,70.0,60.0,152.0
4.0,63.0,90.0,0.0
4.0,70.0,50.0,152.0
4.0,63.0,80.0,0.0
4.0,70.0,40.0,152.0
4.0,63.0,60.0,0.0
4.0,70.0,40.0,152.0
4.0,63.0,50.0,0.0
4.0,70.0,30.0,152.0
4.0,63.0,40.0,0.0
4.0,71.0,80.0,16.0
4.0,59.0,100.0,0.0
4.0,71.0,70.0,152.0
4.0,59.0,90.0,0.0
4.0,71.0,50.0,152.0
4.0,59.0,80.0,0.0
4.0,71.0,40.0,152.0
4.0,59.0,60.0,0.0
4.0,71.0,40.0,152.0
4.0,59.0,50.0,0.0
4.0,71.0,30.0,152.0
4.0,59.0,40.0,0.0
4.0,70.0,60.0,16.0
4.0,66.0,100.0,0.0
4.0,70.0,60.0,152.0
4.0,66.0,90.0,0.0
4.0,70.0,50.0,152.0
4.0,66.0,80.0,0.0
4.0,70.0,40.0,152.0
4.0,66.0,60.0,0.0
4.0,70.0,40.0,152.0
4.0,66.0,50.0,0.0
4.0,70.0,20.0,152.0
4.0,66.0,40.0,0.0
4.0,68.0,60.0,16.0
4.0,61.0,100.0,0.0
4.0,68.0,60.0,152.0
4.0,61.0,90.0,0.0
4.0,68.0,50.0,152.0
4.0,61.0,80.0,0.0
4.0,68.0,40.0,152.0
4.0,61.0,60.0,0.0
4.0,68.0,40.0,152.0
4.0,61.0,50.0,0.0
4.0,68.0,30.0,152.0
4.0,61.0,40.0,0.0
4.0,70.0,60.0,16.0
4.0,63.0,100.0,0.0
4.0,70.0,60.0,152.0
4.0,63.0,90.0,0.0
4.0,70.0,50.0,152.0
4.0,63.0,80.0,0.0
4.0,70.0,40.0,152.0
4.0,63.0,60.0,0.0
4.0,70.0,40.0,152.0
4.0,63.0,50.0,0.0
4.0,70.0,30.0,152.0
4.0,63.0,40.0,0.0
4.0,71.0,80.0,16.0
4.0,59.0,100.0,0.0
4.0,71.0,70.0,152.0
4.0,59.0,90.0,0.0
4.0,71.0,50.0,152.0
4.0,59.0,80.0,0.0
4.0,71.0,40.0,152.0
4.0,59.0,60.0,0.0
4.0,71.0,40.0,152.0
4.0,59.0,50.0,0.0
4.0,71.0,30.0,152.0
4.0,59.0,40.0,0.0
4.0,70.0,60.0,16.0
4.0,66.0,100.0,0.0
4.0,70.0,60.0,152.0
4.0,66.0,90.0,0.0
4.0,70.0,50.0,152.0
4.0,66.0,80.0,0.0
4.0,70.0,40.0,152.0
4.0,66.0,60.0,0.0
4.0,70.0,40.0,152.0
4.0,66.0,50.0,0.0
4.0,70.0,20.0,152.0
4.0,66.0,40.0,0.0
4.0,68.0,60.0,16.0
4.0,61.0,100.0,0.0
4.0,68.0,60.0,152.0
4.0,61.0,90.0,0.0
4.0,68.0,50.0,152.0
4.0,61.0,80.0,0.0
4.0,68.0,40.0,152.0
4.0,61.0,60.0,0.0
4.0,68.0,40.0,152.0
4.0,61.0,50.0,0.0
4.0,68.0,30.0,152.0
4.0,61.0,40.0,0.0
4.0,70.0,60.0,16.0
4.0,63.0,100.0,0.0
4.0,70.0,60.0,152.0
4.0,63.0,90.0,0.0
4.0,70.0,50.0,152.0
4.0,63.0,80.0,0.0
4.0,70.0,40.0,152.0
4.0,63.0,60.0,0.0
4.0,70.0,40.0,152.0
4.0,63.0,50.0,0.0
4.0,70.0,30.0,152.0
4.0,63.0,40.0,0.0
4.0,71.0,80.0,16.0
4.0,59.0,100.0,0.0
4.0,71.0,70.0,152.0
4.0,59.0,90.0,0.0
4.0,71.0,50.0,152.0
4.0,59.0,80.0,0.0
4.0,71.0,40.0,152.0
4.0,59.0,60.0,0.0
4.0,71.0,40.0,152.0
4.0,59.0,50.0,0.0
4.0,71.0,30.0,152.0
4.0,59.0,40.0,0.0
4.0,70.0,60.0,16.0
4.0,66.0,100.0,0.0
4.0,70.0,60.0,152.0
4.0,66.0,90.0,0.0
4.0,70.0,50.0,152.0
4.0,66.0,80.0,0.0
4.0,70.0,40.0,152.0
4.0,66.0,60.0,0.0
5.0,61.0,80.0,796.0
5.0,63.0,80.0,4.0
5.0,65.0,80.0,4.0
5.0,66.0,80.0,8.0
5.0,65.0,80.0,10.0
5.0,63.0,80.0,4.0
5.0,61.0,80.0,2.0
5.0,59.0,80.0,8.0
5.0,61.0,80.0,10.0
5.0,63.0,80.0,4.0
5.0,65.0,80.0,8.0
5.0,66.0,80.0,2.0
5.0,65.0,80.0,6.0
5.0,63.0,80.0,8.0
5.0,61.0,80.0,8.0
5.0,59.0,80.0,4.0
5.0,61.0,80.0,8.0
5.0,63.0,80.0,6.0
5.0,65.0,80.0,6.0
5.0,66.0,80.0,0.0
5.0,65.0,80.0,8.0
5.0,63.0,80.0,6.0
5.0,61.0,80.0,10.0
5.0,59.0,80.0,4.0
5.0,61.0,80.0,8.0
5.0,63.0,80.0,4.0
5.0,65.0,80.0,6.0
5.0,66.0,80.0,2.0
5.0,65.0,80.0,12.0
5.0,63.0,80.0,6.0
5.0,61.0,80.0,0.0
5.0,59.0,80.0,8.0
5.0,61.0,80.0,10.0
5.0,63.0,80.0,2.0
5.0,65.0,80.0,10.0
5.0,66.0,80.0,6.0
5.0,65.0,80.0,4.0
5.0,63.0,80.0,2.0
5.0,61.0,80.0,8.0
5.0,59.0,80.0,4.0
5.0,61.0,80.0,6.0
5.0,63.0,80.0,8.0
5.0,65.0,80.0,4.0
5.0,66.0,80.0,8.0
5.0,65.0,80.0,8.0
5.0,63.0,80.0,2.0
5.0,61.0,80.0,8.0
5.0,59.0,80.0,4.0
5.0,61.0,80.0,8.0
5.0,63.0,80.0,4.0
5.0,65.0,80.0,12.0
5.0,66.0,80.0,2.0
5.0,65.0,80.0,6.0
5.0,63.0,80.0,8.0
5.0,61.0,80.0,8.0
5.0,59.0,80.0,4.0
5.0,61.0,80.0,8.0
5.0,63.0,80.0,6.0
5.0,65.0,80.0,0.0
5.0,66.0,80.0,8.0
5.0,65.0,80.0,4.0
5.0,63.0,80.0,6.0
5.0,61.0,80.0,8.0
5.0,59.0,80.0,8.0
5.0,61.0,80.0,4.0
5.0,63.0,80.0,10.0
5.0,65.0,80.0,4.0
5.0,66.0,80.0,8.0
5.0,65.0,80.0,2.0
5.0,63.0,80.0,10.0
5.0,61.0,80.0,0.0
5.0,59.0,80.0,6.0
5.0,61.0,80.0,6.0
5.0,63.0,80.0,8.0
5.0,65.0,80.0,10.0
5.0,66.0,80.0,2.0
5.0,65.0,80.0,10.0
5.0,63.0,80.0,6.0
5.0,61.0,80.0,0.0
5.0,59.0,80.0,6.0
5.0,61.0,80.0,8.0
5.0,63.0,80.0,8.0
5.0,65.0,80.0,6.0
5.0,66.0,80.0,8.0
5.0,65.0,80.0,0.0
5.0,63.0,80.0,8.0
5.0,61.0,80.0,8.0
5.0,59.0,80.0,2.0
5.0,61.0,80.0,6.0
5.0,63.0,80.0,10.0
5.0,65.0,80.0,6.0
5.0,66.0,80.0,6.0
5.0,65.0,80.0,2.0
5.0,63.0,80.0,10.0
5.0,61.0,80.0,4.0
5.0,59.0,80.0,10.0
5.0,61.0,80.0,4.0
5.0,63.0,80.0,6.0
5.0,65.0,80.0,8.0
5.0,66.0,80.0,6.0
5.0,65.0,80.0,0.0
5.0,63.0,80.0,10.0
5.0,61.0,80.0,2.0
5.0,59.0,80.0,6.0
5.0,61.0,80.0,6.0
5.0,63.0,80.0,12.0
5.0,65.0,80.0,0.0
5.0,66.0,80.0,6.0
5.0,65.0,80.0,10.0
5.0,63.0,80.0,8.0
5.0,61.0,80.0,6.0
5.0,59.0,80.0,6.0
5.0,61.0,80.0,2.0
5.0,63.0,80.0,6.0
5.0,65.0,80.0,10.0
5.0,66.0,80.0,2.0
5.0,65.0,80.0,6.0
5.0,63.0,80.0,8.0
5.0,61.0,80.0,6.0
5.0,59.0,80.0,4.0
5.0,61.0,80.0,4.0
5.0,63.0,80.0,6.0
5.0,65.0,80.0,12.0
5.0,66.0,80.0,4.0
5.0,65.0,80.0,2.0
5.0,63.0,80.0,12.0
5.0,61.0,80.0,4.0
5.0,59.0,80.0,4.0
6.0,61.0,50.0,724.0
6.0,65.0,80.0,0.0
6.0,61.0,70.0,12.0
6.0,61.0,50.0,10.0
6.0,65.0,75.0,4.0
6.0,66.0,75.0,10.0
6.0,61.0,60.0,2.0
6.0,61.0,50.0,6.0
6.0,66.0,80.0,2.0
6.0,66.0,70.0,14.0
6.0,61.0,75.0,2.0
6.0,65.0,80.0,10.0
6.0,61.0,50.0,2.0
6.0,61.0,70.0,12.0
6.0,65.0,80.0,8.0
6.0,61.0,50.0,2.0
6.0,61.0,70.0,10.0
6.0,65.0,75.0,12.0
6.0,61.0,50.0,2.0
6.0,61.0,60.0,8.0
6.0,66.0,75.0,4.0
6.0,61.0,50.0,10.0
6.0,66.0,80.0,2.0
6.0,66.0,70.0,10.0
6.0,61.0,75.0,4.0
6.0,61.0,50.0,8.0
6.0,65.0,80.0,2.0
6.0,61.0,70.0,14.0
6.0,65.0,80.0,10.0
6.0,61.0,50.0,4.0
6.0,61.0,70.0,6.0
6.0,65.0,75.0,14.0
6.0,61.0,50.0,2.0
6.0,61.0,60.0,6.0
6.0,66.0,75.0,4.0
6.0,61.0,50.0,8.0
6.0,66.0,80.0,6.0
6.0,66.0,70.0,8.0
6.0,61.0,75.0,2.0
6.0,61.0,50.0,10.0
6.0,65.0,80.0,2.0
6.0,61.0,70.0,12.0
6.0,61.0,50.0,8.0
6.0,65.0,80.0,6.0
6.0,61.0,70.0,14.0
6.0,61.0,50.0,6.0
6.0,65.0,75.0,4.0
6.0,66.0,75.0,12.0
6.0,61.0,60.0,2.0
6.0,61.0,50.0,10.0
6.0,66.0,80.0,2.0
6.0,66.0,70.0,6.0
6.0,61.0,75.0,4.0
6.0,61.0,50.0,14.0
6.0,65.0,80.0,0.0
6.0,61.0,70.0,12.0
6.0,61.0,50.0,6.0
6.0,65.0,80.0,0.0
6.0,61.0,70.0,14.0
6.0,61.0,50.0,12.0
6.0,65.0,75.0,2.0
6.0,61.0,60.0,14.0
6.0,66.0,75.0,0.0
6.0,61.0,50.0,6.0
6.0,66.0,80.0,4.0
6.0,61.0,75.0,10.0
6.0,66.0,70.0,4.0
6.0,65.0,80.0,8.0
6.0,61.0,50.0,4.0
6.0,61.0,70.0,12.0
6.0,65.0,80.0,10.0
6.0,61.0,50.0,2.0
6.0,61.0,70.0,12.0
6.0,65.0,75.0,8.0
6.0,61.0,50.0,4.0
6.0,61.0,60.0,6.0
6.0,66.0,75.0,6.0
6.0,61.0,50.0,8.0
6.0,66.0,80.0,4.0
6.0,66.0,70.0,6.0
6.0,61.0,75.0,6.0
6.0,61.0,50.0,12.0
6.0,65.0,80.0,0.0
6.0,61.0,70.0,10.0
6.0,61.0,50.0,8.0
6.0,65.0,80.0,2.0
6.0,61.0,70.0,12.0
6.0,61.0,50.0,10.0
6.0,65.0,75.0,0.0
6.0,66.0,75.0,10.0
6.0,61.0,60.0,6.0
6.0,61.0,50.0,12.0
6.0,66.0,80.0,0.0
6.0,61.0,75.0,6.0
6.0,66.0,70.0,4.0
6.0,61.0,50.0,8.0
6.0,65.0,80.0,2.0
6.0,61.0,70.0,18.0
6.0,65.0,80.0,8.0
6.0,61.0,50.0,2.0
6.0,61.0,70.0,12.0
6.0,61.0,50.0,12.0
6.0,65.0,75.0,0.0
6.0,66.0,75.0,12.0
6.0,61.0,60.0,2.0
6.0,61.0,50.0,8.0
6.0,66.0,80.0,0.0
6.0,66.0,70.0,10.0
6.0,61.0,75.0,6.0
6.0,61.0,50.0,10.0
6.0,65.0,80.0,0.0
6.0,61.0,70.0,8.0
6.0,65.0,80.0,12.0
6.0,61.0,50.0,2.0
6.0,61.0,70.0,10.0
6.0,61.0,50.0,10.0
6.0,65.0,75.0,4.0
6.0,61.0,60.0,8.0
6.0,66.0,75.0,4.0
6.0,66.0,80.0,10.0
6.0,61.0,50.0,2.0
6.0,66.0,70.0,10.0
6.0,61.0,75.0,2.0
6.0,61.0,50.0,8.0
6.0,65.0,80.0,4.0
6.0,61.0,70.0,16.0
6.0,61.0,50.0,6.0
6.0,65.0,80.0,4.0
6.0,61.0,70.0,18.0
6.0,65.0,75.0,8.0
6.0,61.0,50.0,4.0
6.0,61.0,60.0,6.0
6.0,66.0,75.0,0.0
6.0,61.0,50.0,14.0
6.0,66.0,80.0,2.0
6.0,66.0,70.0,8.0
6.0,61.0,75.0,4.0
6.0,65.0,80.0,8.0
6.0,61.0,50.0,2.0
6.0,61.0,70.0,14.0
6.0,61.0,50.0,8.0
6.0,65.0,80.0,0.0
6.0,61.0,70.0,16.0
6.0,61.0,50.0,10.0
6.0,65.0,75.0,4.0
6.0,66.0,75.0,10.0
6.0,61.0,60.0,2.0
6.0,61.0,50.0,6.0
6.0,66.0,80.0,6.0
6.0,61.0,75.0,10.0
6.0,66.0,70.0,0.0
6.0,65.0,80.0,8.0
6.0,61.0,50.0,2.0
6.0,61.0,70.0,12.0
6.0,61.0,50.0,10.0
6.0,65.0,80.0,6.0
6.0,61.0,70.0,16.0
6.0,65.0,75.0,6.0
6.0,61.0,50.0,2.0
6.0,61.0,60.0,14.0
6.0,66.0,75.0,2.0
6.0,61.0,50.0,8.0
6.0,66.0,80.0,4.0
6.0,66.0,70.0,6.0
6.0,61.0,75.0,6.0
6.0,61.0,50.0,12.0
6.0,65.0,80.0,0.0
6.0,61.0,70.0,8.0
6.0,61.0,50.0,12.0
6.0,65.0,80.0,0.0
6.0,61.0,70.0,6.0
6.0,61.0,50.0,6.0
6.0,65.0,75.0,4.0
6.0,61.0,60.0,8.0
6.0,66.0,75.0,2.0
6.0,61.0,50.0,10.0
6.0,66.0,80.0,4.0
6.0,61.0,75.0,8.0
6.0,66.0,70.0,2.0
6.0,65.0,80.0,10.0
6.0,61.0,50.0,6.0
6.0,61.0,70.0,6.0
6.0,61.0,50.0,12.0
6.0,65.0,80.0,2.0
6.0,61.0,70.0,14.0
6.0,65.0,75.0,12.0
6.0,61.0,50.0,2.0
6.0,61.0,60.0,12.0
6.0,66.0,75.0,2.0
6.0,61.0,50.0,6.0
6.0,66.0,80.0,4.0
6.0,61.0,75.0,10.0
6.0,66.0,70.0,0.0
6.0,61.0,50.0,10.0
6.0,65.0,80.0,0.0
6.0,61.0,70.0,14.0
6.0,61.0,50.0,10.0
6.0,65.0,80.0,2.0
6.0,61.0,70.0,14.0
6.0,61.0,50.0,10.0
6.0,65.0,75.0,4.0
6.0,61.0,60.0,8.0
6.0,66.0,75.0,0.0
6.0,66.0,80.0,16.0
6.0,61.0,50.0,2.0
6.0,61.0,75.0,12.0
6.0,66.0,70.0,0.0
6.0,61.0,50.0,6.0
6.0,65.0,80.0,2.0
6.0,61.0,70.0,14.0
6.0,65.0,80.0,10.0
6.0,61.0,50.0,2.0
6.0,61.0,70.0,14.0
6.0,61.0,50.0,12.0
6.0,65.0,75.0,0.0
6.0,61.0,60.0,10.0
6.0,66.0,75.0,4.0
6.0,61.0,50.0,8.0
6.0,66.0,80.0,2.0
6.0,66.0,70.0,12.0
6.0,61.0,75.0,2.0
6.0,61.0,50.0,6.0
6.0,65.0,80.0,6.0
6.0,61.0,70.0,18.0
6.0,61.0,50.0,6.0
7.0,65.0,90.0,18878.0
7.0,61.0,90.0,0.0
7.0,56.0,90.0,0.0
7.0,68.0,90.0,0.0
7.0,65.0,90.0,154.0
7.0,56.0,90.0,0.0
7.0,68.0,90.0,0.0
7.0,61.0,90.0,0.0
7.0,61.0,90.0,16.0
7.0,65.0,90.0,0.0
7.0,68.0,90.0,0.0
7.0,56.0,90.0,0.0
7.0,58.0,90.0,532.0
7.0,66.0,90.0,0.0
7.0,70.0,90.0,0.0
7.0,63.0,90.0,0.0
7.0,58.0,90.0,116.0
7.0,70.0,90.0,0.0
7.0,66.0,90.0,0.0
7.0,63.0,90.0,0.0
7.0,58.0,90.0,58.0
7.0,63.0,90.0,0.0
7.0,70.0,90.0,0.0
7.0,66.0,90.0,0.0
7.0,54.0,90.0,536.0
7.0,59.0,90.0,0.0
7.0,66.0,90.0,0.0
7.0,63.0,90.0,0.0
7.0,54.0,90.0,128.0
7.0,63.0,90.0,0.0
7.0,66.0,90.0,0.0
7.0,59.0,90.0,0.0
7.0,66.0,90.0,36.0
7.0,63.0,90.0,0.0
7.0,59.0,90.0,0.0
7.0,54.0,90.0,0.0
7.0,58.0,90.0,366.0
7.0,63.0,90.0,0.0
7.0,70.0,90.0,0.0
7.0,66.0,90.0,0.0
7.0,56.0,90.0,28.0
7.0,61.0,90.0,0.0
7.0,68.0,90.0,0.0
7.0,65.0,90.0,0.0
7.0,58.0,90.0,32.0
7.0,63.0,90.0,0.0
7.0,70.0,90.0,0.0
7.0,66.0,90.0,0.0
7.0,58.0,90.0,192.0
7.0,63.0,90.0,0.0
7.0,70.0,90.0,0.0
7.0,66.0,90.0,0.0
7.0,56.0,90.0,36.0
7.0,61.0,90.0,0.0
7.0,68.0,90.0,0.0
7.0,65.0,90.0,0.0
7.0,58.0,90.0,52.0
7.0,63.0,90.0,0.0
7.0,70.0,90.0,0.0
7.0,66.0,90.0,0.0
8.0,56.0,100.0,12484.0
8.0,63.0,100.0,126.0
8.0,63.0,100.0,58.0
8.0,63.0,100.0,44.0
8.0,61.0,100.0,12.0
8.0,58.0,100.0,56.0
8.0,61.0,100.0,96.0
8.0,61.0,100.0,334.0
8.0,61.0,100.0,6.0
8.0,61.0,100.0,8.0
8.0,58.0,100.0,14.0
8.0,61.0,100.0,142.0
8.0,61.0,100.0,2.0
8.0,63.0,100.0,6.0
8.0,61.0,100.0,44.0
8.0,61.0,100.0,2.0
8.0,58.0,100.0,10.0
8.0,61.0,100.0,108.0
8.0,56.0,100.0,200.0
8.0,61.0,100.0,128.0
8.0,63.0,100.0,6.0
8.0,63.0,100.0,128.0
8.0,63.0,100.0,76.0
8.0,61.0,100.0,32.0
8.0,61.0,100.0,128.0
8.0,61.0,100.0,50.0
8.0,56.0,100.0,580.0
8.0,63.0,100.0,124.0
8.0,63.0,100.0,32.0
8.0,61.0,100.0,128.0
8.0,61.0,100.0,8.0
8.0,59.0,100.0,26.0
8.0,59.0,100.0,110.0
8.0,59.0,100.0,44.0
0.0,0.0,0.0,0.0
0.0,0.0,0.0,0.0
0.0,0.0,0.0,0.0
0.0,0.0,0.0,0.0
0.0,0.0,0.0,0.0
0.0,0.0,0.0,0.0
0.0,0.0,0.0,0.0
0.0,0.0,0.0,0.0
0.0,0.0,0.0,0.0
0.0,0.0,0.0,0.0
0.0,0.0,0.0,0.0
0.0,0.0,0.0,0.0
0.0,0.0,0.0,0.0
0.0,0.0,0.0,0.0
0.0,0.0,0.0,0.0
0.0,0.0,0.0,0.0
0.0,0.0,0.0,0.0
0.0,0.0,0.0,0.0
0.0,0.0,0.0,0.0
0.0,0.0,0.0,0.0
0.0,0.0,0.0,0.0
0.0,0.0,0.0,0.0
0.0,0.0,0.0,0.0
0.0,0.0,0.0,0.0
0.0,0.0,0.0,0.0
0.0,0.0,0.0,0.0
0.0,0.0,0.0,0.0
0.0,0.0,0.0,0.0
0.0,0.0,0.0,0.0
0.0,0.0,0.0,0.0
0.0,0.0,0.0,0.0
0.0,0.0,0.0,0.0
0.0,0.0,0.0,0.0
0.0,0.0,0.0,0.0
0.0,0.0,0.0,0.0
0.0,0.0,0.0,0.0
0.0,0.0,0.0,0.0
0.0,0.0,0.0,0.0
0.0,0.0,0.0,0.0
0.0,0.0,0.0,0.0
0.0,0.0,0.0,0.0
0.0,0.0,0.0,0.0
0.0,0.0,0.0,0.0
0.0,0.0,0.0,0.0
0.0,0.0,0.0,0.0
0.0,0.0,0.0,0.0
0.0,0.0,0.0,0.0
0.0,0.0,0.0,0.0
0.0,0.0,0.0,0.0
0.0,0.0,0.0,0.0
0.0,0.0,0.0,0.0
0.0,0.0,0.0,0.0
0.0,0.0,0.0,0.0
0.0,0.0,0.0,0.0
0.0,0.0,0.0,0.0
0.0,0.0,0.0,0.0
0.0,0.0,0.0,0.0
0.0,0.0,0.0,0.0
0.0,0.0,0.0,0.0
0.0,0.0,0.0,0.0
0.0,0.0,0.0,0.0
0.0,0.0,0.0,0.0
0.0,0.0,0.0,0.0
