track,note,velocity,time
1,65,127,0
1,68,127,0
1,67,127,0
1,64,127,0
1,68,127,0
1,65,127,0
1,64,127,0
1,70,127,0
1,65,127,0
1,68,127,0
1,67,127,0
1,64,127,0
1,68,127,0
1,65,127,0
1,64,127,0
1,70,127,0
1,65,127,0
1,68,127,0
1,67,127,0
1,64,127,0
1,68,127,0
1,65,127,0
1,64,127,0
1,70,127,0
1,65,127,0
1,68,127,0
1,67,127,0
1,64,127,0
1,68,127,0
1,65,127,0
1,64,127,0
1,70,127,0
1,65,127,30720
1,68,127,0
1,67,127,0
1,64,127,0
1,68,127,0
1,65,127,0
1,64,127,0
1,70,127,0
1,65,127,0
1,68,127,0
1,67,127,0
1,64,127,0
1,68,127,0
1,65,127,0
1,64,127,0
1,70,127,0
1,65,127,30720
1,68,127,0
1,67,127,0
1,64,127,0
1,68,127,0
1,65,127,0
1,64,127,0
1,70,127,0
1,65,127,0
1,68,127,0
1,67,127,0
1,64,127,0
1,68,127,0
1,65,127,0
1,64,127,0
1,70,127,0
1,65,127,0
1,68,127,0
1,67,127,0
1,64,127,0
1,68,127,0
1,65,127,0
1,64,127,0
1,70,127,0
1,65,127,0
1,68,127,0
1,67,127,0
1,64,127,0
1,68,127,0
1,65,127,0
1,64,127,0
1,70,127,0
1,65,127,0
1,68,127,0
1,67,127,0
1,64,127,0
1,68,127,0
1,65,127,0
1,64,127,0
1,70,127,0
1,65,127,0
1,68,127,0
1,67,127,0
1,64,127,0
1,68,127,0
1,65,127,0
1,64,127,0
1,70,127,0
1,65,127,0
1,68,127,0
1,67,127,0
1,64,127,0
1,68,127,0
1,65,127,0
1,64,127,0
1,70,127,0
1,65,127,0
1,68,127,0
1,67,127,0
1,64,127,0
1,68,127,0
1,65,127,0
1,64,127,0
1,70,127,0
2,68,127,0
2,68,127,3
2,70,127,7
2,67,127,4
2,68,127,4
2,70,127,2
2,68,127,5
2,68,127,5
2,70,127,3
2,64,127,2
2,70,127,0
2,67,127,5
2,68,127,384
2,68,127,3
2,70,127,7
2,67,127,4
2,68,127,4
2,70,127,2
2,68,127,5
2,68,127,5
2,70,127,3
2,64,127,2
2,70,127,0
2,67,127,5
2,68,127,384
2,68,127,3
2,70,127,7
2,67,127,4
2,68,127,4
2,70,127,2
2,68,127,5
2,68,127,5
2,70,127,3
2,64,127,2
2,70,127,0
2,67,127,5
2,68,127,384
2,68,127,3
2,70,127,7
2,67,127,4
2,68,127,4
2,70,127,2
2,68,127,5
2,68,127,5
2,70,127,3
2,64,127,2
2,70,127,0
2,67,127,5
2,68,127,15744
2,68,127,3
2,70,127,7
2,67,127,4
2,68,127,4
2,70,127,2
2,68,127,5
2,68,127,5
2,70,127,3
2,64,127,2
2,70,127,0
2,67,127,5
2,68,127,384
2,68,127,3
2,70,127,7
2,67,127,4
2,68,127,4
2,70,127,2
2,68,127,5
2,68,127,5
2,70,127,3
2,64,127,2
2,70,127,0
2,67,127,5
2,68,127,384
2,68,127,3
2,70,127,7
2,67,127,4
2,68,127,4
2,70,127,2
2,68,127,5
2,68,127,5
2,70,127,3
2,64,127,2
2,70,127,0
2,67,127,5
2,68,127,384
2,68,127,3
2,70,127,7
2,67,127,4
2,68,127,4
2,70,127,2
2,68,127,5
2,68,127,5
2,70,127,3
2,64,127,2
2,70,127,0
2,67,127,5
2,68,127,15744
2,68,127,3
2,70,127,7
2,67,127,4
2,68,127,4
2,70,127,2
2,68,127,5
2,68,127,5
2,70,127,3
2,64,127,2
2,70,127,0
2,67,127,5
2,68,127,384
2,68,127,3
2,70,127,7
2,67,127,4
2,68,127,4
2,70,127,2
2,68,127,5
2,68,127,5
2,70,127,3
2,64,127,2
2,70,127,0
2,67,127,5
2,68,127,384
2,68,127,3
2,70,127,7
2,67,127,4
2,68,127,4
2,70,127,2
2,68,127,5
2,68,127,5
2,70,127,3
2,64,127,2
2,70,127,0
2,67,127,5
2,68,127,384
2,68,127,3
2,70,127,7
2,67,127,4
2,68,127,4
2,70,127,2
2,68,127,5
2,68,127,5
2,70,127,3
2,64,127,2
2,70,127,0
2,67,127,5
2,68,127,384
2,68,127,3
2,70,127,7
2,67,127,4
2,68,127,4
2,70,127,2
2,68,127,5
2,68,127,5
2,70,127,3
2,64,127,2
2,70,127,0
2,67,127,5
2,68,127,384
2,68,127,3
2,70,127,7
2,67,127,4
2,68,127,4
2,70,127,2
2,68,127,5
2,68,127,5
2,70,127,3
2,64,127,2
2,70,127,0
2,67,127,5
2,68,127,384
2,68,127,3
2,70,127,7
2,67,127,4
2,68,127,4
2,70,127,2
2,68,127,5
2,68,127,5
2,70,127,3
2,64,127,2
2,70,127,0
2,67,127,5
2,68,127,384
2,68,127,3
2,70,127,7
2,67,127,4
2,68,127,4
2,70,127,2
2,68,127,5
2,68,127,5
2,70,127,3
2,64,127,2
2,70,127,0
2,67,127,5
2,68,127,384
2,68,127,3
2,70,127,7
2,67,127,4
2,68,127,4
2,70,127,2
2,68,127,5
2,68,127,5
2,70,127,3
2,64,127,2
2,70,127,0
2,67,127,5
2,68,127,384
2,68,127,3
2,70,127,7
2,67,127,4
2,68,127,4
2,70,127,2
2,68,127,5
2,68,127,5
2,70,127,3
2,64,127,2
2,70,127,0
2,67,127,5
3,41,98,7680
3,36,95,288
3,41,104,298
3,36,91,73
3,41,91,290
3,35,109,104
3,40,109,289
3,40,98,307
3,35,98,69
3,43,104,283
3,41,98,55
3,36,95,277
3,41,95,290
3,36,88,85
3,41,95,309
3,35,104,120
3,40,98,294
3,40,98,348
3,35,95,70
3,43,104,317
3,41,98,115
3,36,95,288
3,41,104,298
3,36,91,73
3,41,91,290
3,35,109,104
3,40,109,289
3,40,98,307
3,35,98,69
3,43,104,283
3,41,98,55
3,36,95,277
3,41,95,290
3,36,88,85
3,41,95,309
3,35,104,120
3,40,98,294
3,40,98,348
3,35,95,70
3,43,104,317
3,41,98,115
3,36,95,288
3,41,104,298
3,36,91,73
3,41,91,290
3,35,109,104
3,40,109,289
3,40,98,307
3,35,98,69
3,43,104,283
3,41,98,55
3,36,95,277
3,41,95,290
3,36,88,85
3,41,95,309
3,35,104,120
3,40,98,294
3,40,98,348
3,35,95,70
3,43,104,317
3,41,98,115
3,36,95,288
3,41,104,298
3,36,91,73
3,41,91,290
3,35,109,104
3,40,109,289
3,40,98,307
3,35,98,69
3,43,104,283
3,41,98,55
3,36,95,277
3,41,95,290
3,36,88,85
3,41,95,309
3,35,104,120
3,40,98,294
3,40,98,348
3,35,95,70
3,43,104,317
3,41,98,115
3,36,95,288
3,41,104,298
3,36,91,73
3,41,91,290
3,35,109,104
3,40,109,289
3,40,98,307
3,35,98,69
3,43,104,283
3,41,98,55
3,36,95,277
3,41,95,290
3,36,88,85
3,41,95,309
3,35,104,120
3,40,98,294
3,40,98,348
3,35,95,70
3,43,104,317
3,41,98,115
3,36,95,288
3,41,104,298
3,36,91,73
3,41,91,290
3,35,109,104
3,40,109,289
3,40,98,307
3,35,98,69
3,43,104,283
3,41,98,55
3,36,95,277
3,41,95,290
3,36,88,85
3,41,95,309
3,35,104,120
3,40,98,294
3,40,98,348
3,35,95,70
3,43,104,317
3,41,98,115
3,36,95,288
3,41,104,298
3,36,91,73
3,41,91,290
3,35,109,104
3,40,109,289
3,40,98,307
3,35,98,69
3,43,104,283
3,41,98,55
3,36,95,277
3,41,95,290
3,36,88,85
3,41,95,309
3,35,104,120
3,40,98,294
3,40,98,348
3,35,95,70
3,43,104,317
3,41,98,115
3,36,95,288
3,41,104,298
3,36,91,73
3,41,91,290
3,35,109,104
3,40,109,289
3,40,98,307
3,35,98,69
3,43,104,283
3,41,98,55
3,36,95,277
3,41,95,290
3,36,88,85
3,41,95,309
3,35,104,120
3,40,98,294
3,40,98,348
3,35,95,70
3,43,104,317
3,41,98,115
3,36,95,288
3,41,104,298
3,36,91,73
3,41,91,290
3,35,109,104
3,40,109,289
3,40,98,307
3,35,98,69
3,43,104,283
3,41,98,55
3,36,95,277
3,41,95,290
3,36,88,85
3,41,95,309
3,35,104,120
3,40,98,294
3,40,98,348
3,35,95,70
3,43,104,317
3,41,98,115
3,36,95,288
3,41,104,298
3,36,91,73
3,41,91,290
3,35,109,104
3,40,109,289
3,40,98,307
3,35,98,69
3,43,104,283
3,41,98,55
3,36,95,277
3,41,95,290
3,36,88,85
3,41,95,309
3,35,104,120
3,40,98,294
3,40,98,348
3,35,95,70
3,43,104,317
3,41,98,115
3,36,95,288
3,41,104,298
3,36,91,73
3,41,91,290
3,35,109,104
3,40,109,289
3,40,98,307
3,35,98,69
3,43,104,283
3,41,98,55
3,36,95,277
3,41,95,290
3,36,88,85
3,41,95,309
3,35,104,120
3,40,98,294
3,40,98,348
3,35,95,70
3,43,104,317
3,41,98,115
3,36,95,288
3,41,104,298
3,36,91,73
3,41,91,290
3,35,109,104
3,40,109,289
3,40,98,307
3,35,98,69
3,43,104,283
3,41,98,55
3,36,95,277
3,41,95,290
3,36,88,85
3,41,95,309
3,35,104,120
3,40,98,294
3,40,98,348
3,35,95,70
3,43,104,317
3,41,98,115
3,36,95,288
3,41,104,298
3,36,91,73
3,41,91,290
3,35,109,104
3,40,109,289
3,40,98,307
3,35,98,69
3,43,104,283
3,41,98,55
3,36,95,277
3,41,95,290
3,36,88,85
3,41,95,309
3,35,104,120
3,40,98,294
3,40,98,348
3,35,95,70
3,43,104,317
3,41,98,115
3,36,95,288
3,41,104,298
3,36,91,73
3,41,91,290
3,35,109,104
3,40,109,289
3,40,98,307
3,35,98,69
3,43,104,283
3,41,98,55
3,36,95,277
3,41,95,290
3,36,88,85
3,41,95,309
3,35,104,120
3,40,98,294
3,40,98,348
3,35,95,70
3,43,104,317
3,41,98,115
3,36,95,288
3,41,104,298
3,36,91,73
3,41,91,290
3,35,109,104
3,40,109,289
3,40,98,307
3,35,98,69
3,43,104,283
3,41,98,55
3,36,95,277
3,41,95,290
3,36,88,85
3,41,95,309
3,35,104,120
3,40,98,294
3,40,98,348
3,35,95,70
3,43,104,317
3,41,98,115
3,36,95,288
3,41,104,298
3,36,91,73
3,41,91,290
3,35,109,104
3,40,109,289
3,40,98,307
3,35,98,69
3,43,104,283
3,41,98,55
3,36,95,277
3,41,95,290
3,36,88,85
3,41,95,309
3,35,104,120
3,40,98,294
3,40,98,348
3,35,95,70
3,43,104,317
3,41,98,115
3,36,95,288
3,41,104,298
3,36,91,73
3,41,91,290
3,35,109,104
3,40,109,289
3,40,98,307
3,35,98,69
3,43,104,283
3,41,98,55
3,36,95,277
3,41,95,290
3,36,88,85
3,41,95,309
3,35,104,120
3,40,98,294
3,40,98,348
3,35,95,70
3,43,104,317
3,41,98,115
3,36,95,288
3,41,104,298
3,36,91,73
3,41,91,290
3,35,109,104
3,40,109,289
3,40,98,307
3,35,98,69
3,41,98,12043
3,36,95,288
3,41,104,298
3,36,91,73
3,41,91,290
3,35,109,104
3,40,109,289
3,40,98,307
3,35,98,69
3,43,104,283
3,41,98,55
3,36,95,277
3,41,95,290
3,36,88,85
3,41,95,309
3,35,104,120
3,40,98,294
3,40,98,348
3,35,95,70
3,43,104,317
3,41,98,115
3,36,95,288
3,41,104,298
3,36,91,73
3,41,91,290
3,35,109,104
3,40,109,289
3,40,98,307
3,35,98,69
3,43,104,283
3,41,98,55
3,36,95,277
3,41,95,290
3,36,88,85
3,41,95,309
3,35,104,120
3,40,98,294
3,40,98,348
3,35,95,70
3,43,104,317
4,41,114,15360
4,36,104,224
4,41,109,185
4,36,98,74
4,41,104,272
4,35,104,63
4,40,114,257
4,40,120,274
4,35,109,59
4,43,104,278
4,41,114,79
4,36,104,228
4,41,114,222
4,36,109,49
4,41,104,282
4,35,104,60
4,40,114,242
4,40,120,230
4,35,104,79
4,43,120,274
4,41,114,62
4,36,104,224
4,41,109,185
4,36,98,74
4,41,104,272
4,35,104,63
4,40,114,257
4,40,120,274
4,35,109,59
4,43,104,278
4,41,114,79
4,36,104,228
4,41,114,222
4,36,109,49
4,41,104,282
4,35,104,60
4,40,114,242
4,40,120,230
4,35,104,79
4,43,120,274
4,41,114,62
4,36,104,224
4,41,109,185
4,36,98,74
4,41,104,272
4,35,104,63
4,40,114,257
4,40,120,274
4,35,109,59
4,43,104,278
4,41,114,79
4,36,104,228
4,41,114,222
4,36,109,49
4,41,104,282
4,35,104,60
4,40,114,242
4,40,120,230
4,35,104,79
4,43,120,274
4,41,114,62
4,36,104,224
4,41,109,185
4,36,98,74
4,41,104,272
4,35,104,63
4,40,114,257
4,40,120,274
4,35,109,59
4,43,104,278
4,41,114,79
4,36,104,228
4,41,114,222
4,36,109,49
4,41,104,282
4,35,104,60
4,40,114,242
4,40,120,230
4,35,104,79
4,43,120,274
4,41,114,62
4,36,104,224
4,41,109,185
4,36,98,74
4,41,104,272
4,35,104,63
4,40,114,257
4,40,120,274
4,35,109,59
4,43,104,278
4,41,114,79
4,36,104,228
4,41,114,222
4,36,109,49
4,41,104,282
4,35,104,60
4,40,114,242
4,40,120,230
4,35,104,79
4,43,120,274
4,41,114,62
4,36,104,224
4,41,109,185
4,36,98,74
4,41,104,272
4,35,104,63
4,40,114,257
4,40,120,274
4,35,109,59
4,43,104,278
4,41,114,79
4,36,104,228
4,41,114,222
4,36,109,49
4,41,104,282
4,35,104,60
4,40,114,242
4,40,120,230
4,35,104,79
4,43,120,274
4,41,114,62
4,36,104,224
4,41,109,185
4,36,98,74
4,41,104,272
4,35,104,63
4,40,114,257
4,40,120,274
4,35,109,59
4,43,104,278
4,41,114,79
4,36,104,228
4,41,114,222
4,36,109,49
4,41,104,282
4,35,104,60
4,40,114,242
4,40,120,230
4,35,104,79
4,43,120,274
4,41,114,62
4,36,104,224
4,41,109,185
4,36,98,74
4,41,104,272
4,35,104,63
4,40,114,257
4,40,120,274
4,35,109,59
4,43,104,278
4,41,114,79
4,36,104,228
4,41,114,222
4,36,109,49
4,41,104,282
4,35,104,60
4,40,114,242
4,40,120,230
4,35,104,79
4,43,120,274
4,41,114,62
4,36,104,224
4,41,109,185
4,36,98,74
4,41,104,272
4,35,104,63
4,40,114,257
4,40,120,274
4,35,109,59
4,43,104,278
4,41,114,79
4,36,104,228
4,41,114,222
4,36,109,49
4,41,104,282
4,35,104,60
4,40,114,242
4,40,120,230
4,35,104,79
4,43,120,274
4,41,114,62
4,36,104,224
4,41,109,185
4,36,98,74
4,41,104,272
4,35,104,63
4,40,114,257
4,40,120,274
4,35,109,59
4,43,104,278
4,41,114,79
4,36,104,228
4,41,114,222
4,36,109,49
4,41,104,282
4,35,104,60
4,40,114,242
4,40,120,230
4,35,104,79
4,43,120,274
4,41,114,62
4,36,104,224
4,41,109,185
4,36,98,74
4,41,104,272
4,35,104,63
4,40,114,257
4,40,120,274
4,35,109,59
4,43,104,278
4,41,114,79
4,36,104,228
4,41,114,222
4,36,109,49
4,41,104,282
4,35,104,60
4,40,114,242
4,40,120,230
4,35,104,79
4,43,120,274
4,41,114,62
4,36,104,224
4,41,109,185
4,36,98,74
4,41,104,272
4,35,104,63
4,40,114,257
4,40,120,274
4,35,109,59
4,43,104,278
4,41,114,79
4,36,104,228
4,41,114,222
4,36,109,49
4,41,104,282
4,35,104,60
4,40,114,242
4,40,120,230
4,35,104,79
4,43,120,274
4,41,114,62
4,36,104,224
4,41,109,185
4,36,98,74
4,41,104,272
4,35,104,63
4,40,114,257
4,40,120,274
4,35,109,59
4,43,104,278
4,41,114,79
4,36,104,228
4,41,114,222
4,36,109,49
4,41,104,282
4,35,104,60
4,40,114,242
4,40,120,230
4,35,104,79
4,43,120,274
4,41,114,62
4,36,104,224
4,41,109,185
4,36,98,74
4,41,104,272
4,35,104,63
4,40,114,257
4,40,120,274
4,35,109,59
4,43,104,278
4,41,114,79
4,36,104,228
4,41,114,222
4,36,109,49
4,41,104,282
4,35,104,60
4,40,114,242
4,40,120,230
4,35,104,79
4,43,120,274
4,41,114,62
4,36,104,224
4,41,109,185
