track,note,velocity,time
0,42,120,0
0,42,0,4
0,42,70,92
0,42,0,4
0,42,70,92
0,42,0,4
0,42,70,92
0,42,0,4
0,50,94,0
0,62,94,0
0,54,98,47
0,57,97,48
0,54,0,47
0,54,95,1
0,62,0,24
0,62,120,0
0,62,0,36
0,54,0,0
0,50,0,0
0,57,0,0
0,42,97,179
0,61,94,1
0,49,97,47
0,54,99,48
0,49,0,47
0,49,93,1
0,58,120,24
0,58,0,36
0,42,0,0
0,54,0,0
0,61,0,0
0,49,0,0
0,62,99,179
0,50,94,1
0,54,94,48
0,50,0,23
0,50,98,0
0,57,99,24
0,54,0,48
0,54,95,0
0,62,0,23
0,57,0,1
0,50,0,0
0,54,0,0
0,62,120,0
0,62,0,6
0,50,98,89
0,54,98,0
0,68,100,0
0,54,0,8
0,50,0,0
0,68,0,15
0,52,99,0
0,56,97,0
0,68,97,24
0,56,0,9
0,52,0,0
0,42,97,15
0,61,97,0
0,68,0,1
0,49,99,47
0,54,94,0
0,49,0,47
0,49,94,1
0,58,120,24
0,58,0,36
0,42,0,0
0,54,0,0
0,61,0,0
0,49,0,0
0,50,99,179
0,62,98,0
0,54,98,47
0,57,95,0
0,54,0,46
0,54,97,1
0,62,0,24
0,62,120,1
0,62,0,36
0,54,0,0
0,50,0,0
0,57,0,0
0,49,95,84
0,62,93,0
0,49,0,24
0,47,95,4
0,45,97,19
0,47,0,1
0,45,0,24
0,44,96,4
0,42,98,19
0,44,0,1
0,62,0,0
0,61,95,0
0,49,95,48
0,54,97,47
0,49,0,47
0,49,99,0
0,58,120,25
0,58,0,36
0,42,0,0
0,54,0,0
0,61,0,0
0,49,0,0
0,54,99,83
0,54,0,25
0,52,97,3
0,52,0,21
0,50,93,0
0,50,0,24
0,47,96,4
0,47,0,20
0,49,96,0
0,62,96,0
0,49,0,24
0,50,94,0
0,54,96,24
0,50,0,24
0,50,94,0
0,57,93,0
0,54,0,48
0,54,95,0
0,54,0,24
0,57,0,0
0,50,0,0
0,62,0,0
0,62,120,0
0,62,0,6
0,54,97,89
0,50,93,1
0,68,100,24
0,50,0,8
0,54,0,0
0,68,0,15
0,52,97,0
0,56,99,0
0,68,101,25
0,56,0,8
0,52,0,0
0,68,0,15
0,42,93,1
0,61,93,0
0,49,97,47
0,54,93,0
0,49,0,46
0,49,97,1
0,58,120,25
0,58,0,36
0,42,0,0
0,54,0,0
0,61,0,0
0,49,0,0
0,42,99,179
0,36,100,1
0,36,103,0
0,61,96,0
0,36,0,4
0,42,67,11
0,49,95,0
0,42,0,3
0,42,68,0
0,36,103,0
0,48,100,0
0,54,93,0
0,36,0,4
0,42,0,0
0,49,0,44
0,42,71,0
0,49,96,0
0,42,0,4
0,58,120,0
0,36,97,23
0,42,66,0
0,60,103,1
0,42,0,3
0,36,0,0
0,58,0,9
0,42,0,0
0,49,0,0
0,61,0,0
0,54,0,0
0,42,65,35
0,42,0,4
0,72,98,23
0,42,70,1
0,36,103,0
0,36,0,4
0,42,0,0
0,36,70,24
0,36,0,4
0,36,97,15
0,42,71,1
0,36,0,3
0,42,0,1
0,55,35,0
0,58,71,1
0,58,0,19
0,60,0,0
0,48,0,0
0,36,0,0
0,59,66,0
0,36,97,0
0,72,0,1
0,55,0,0
0,37,102,0
0,80,71,0
0,56,39,0
0,46,38,0
0,68,54,0
0,71,52,0
0,75,52,0
0,64,55,0
0,36,0,3
0,46,0,1
0,56,0,19
0,59,0,1
0,37,0,11
0,63,92,0
0,42,67,0
0,56,38,1
0,59,68,0
0,42,0,3
0,63,0,6
0,38,97,17
0,32,102,0
0,63,90,0
0,42,69,0
0,38,0,3
0,42,0,1
0,32,0,31
0,59,0,12
0,56,0,0
0,42,69,1
0,42,0,4
0,63,0,4
0,63,88,16
0,36,99,3
0,36,0,4
0,39,98,16
0,59,65,0
0,36,99,0
0,56,38,1
0,46,38,0
0,42,68,0
0,36,0,3
0,46,0,1
0,42,0,0
0,63,0,3
0,59,88,17
0,56,0,1
0,42,67,0
0,59,0,1
0,39,0,0
0,35,102,0
0,55,36,0
0,58,69,0
0,42,0,3
0,58,0,2
0,35,0,0
0,55,0,0
0,56,33,0
0,59,69,1
0,37,98,2
0,42,65,2
0,38,101,1
0,42,0,3
0,38,0,1
0,37,0,1
0,59,0,1
0,56,89,2
0,35,102,2
0,59,0,19
0,56,0,1
0,37,102,0
0,42,70,0
0,35,0,3
0,42,0,1
0,56,0,3
0,80,0,16
0,54,86,1
0,58,67,3
0,55,34,0
0,37,0,8
0,55,0,13
0,58,0,0
0,37,100,0
0,80,68,0
0,59,70,0
0,56,37,0
0,46,38,0
0,36,102,0
0,36,0,4
0,46,0,0
0,54,0,6
0,59,0,13
0,56,0,0
0,37,0,12
0,59,68,13
0,56,39,0
0,42,68,0
0,42,0,4
0,42,65,43
0,32,100,1
0,38,100,0
0,42,0,3
0,38,0,1
0,32,0,31
0,56,0,12
0,59,0,0
0,42,66,0
0,42,0,4
0,59,90,20
0,58,67,4
0,27,102,1
0,55,36,0
0,36,103,0
0,27,0,2
0,36,0,2
0,55,0,15
0,56,33,0
0,58,0,0
0,59,0,0
0,27,101,0
0,59,71,0
0,46,38,0
0,36,101,0
0,42,69,0
0,42,0,4
0,36,0,0
0,46,0,0
0,59,0,19
0,56,0,1
0,59,91,0
0,56,35,23
0,59,67,0
0,42,70,1
0,42,0,4
0,27,0,7
0,59,0,1
0,56,78,11
0,28,97,4
0,28,0,4
0,56,0,2
0,28,97,5
0,61,86,0
0,36,99,0
0,42,66,0
0,38,103,0
0,42,0,3
0,36,0,0
0,38,0,1
0,61,0,21
0,56,88,13
0,42,67,0
0,56,0,1
0,59,0,0
0,42,0,3
0,80,0,20
0,58,67,4
0,55,39,1
0,28,0,8
0,56,0,4
0,71,0,7
0,75,0,0
0,68,0,0
0,55,0,0
0,64,0,0
0,80,67,0
0,56,35,0
0,59,66,0
0,36,99,0
0,64,49,0
0,75,50,0
0,58,0,1
0,37,103,0
0,46,38,0
0,71,53,0
0,68,53,0
0,36,0,3
0,46,0,1
0,59,0,20
0,56,0,0
0,37,0,11
0,56,36,12
0,59,68,0
0,42,68,0
0,42,0,4
0,63,90,2
0,42,67,2
0,32,101,1
0,38,101,0
0,42,0,3
0,38,0,1
0,63,0,7
0,59,89,14
0,32,0,10
0,59,0,12
0,56,0,0
0,42,68,1
0,42,0,4
0,59,0,6
0,63,84,4
0,36,99,2
0,36,0,4
0,39,100,0
0,56,37,0
0,59,69,0
0,46,38,0
0,36,100,0
0,42,68,0
0,42,0,1
0,46,0,0
0,36,0,0
0,63,0,9
0,59,85,12
0,56,0,22
0,59,0,0
0,39,0,0
0,55,35,0
0,35,102,1
0,58,70,0
0,42,69,0
0,42,0,2
0,58,0,8
0,35,0,0
0,56,35,0
0,59,67,0
0,55,0,1
0,37,98,3
0,38,100,1
0,42,70,0
0,42,0,1
0,38,0,0
0,59,0,0
0,37,0,12
0,63,82,8
0,35,97,3
0,56,0,1
0,59,0,0
0,37,103,0
0,42,68,0
0,42,0,2
0,35,0,0
0,80,0,5
0,55,35,3
0,58,70,1
0,37,0,1
0,58,0,1
0,80,67,0
0,36,97,0
0,55,0,1
0,37,100,0
0,59,70,0
0,56,37,0
0,46,38,0
0,36,0,1
0,46,0,1
0,59,0,18
0,56,0,0
0,63,0,9
0,37,0,3
0,59,67,12
0,56,34,0
0,42,70,1
0,42,0,4
0,38,98,43
0,32,100,1
0,42,68,0
0,38,0,3
0,42,0,1
0,32,0,31
0,56,0,13
0,59,0,0
0,42,71,0
0,42,0,4
0,63,1,0
0,56,79,3
0,63,103,0
0,27,97,1
0,55,33,0
0,58,69,1
0,36,100,0
0,27,0,3
0,36,0,1
0,56,0,1
0,63,0,4
0,63,0,7
0,66,1,0
0,58,0,2
0,27,97,0
0,59,89,0
0,59,65,0
0,36,99,0
0,42,66,0
0,55,0,0
0,66,97,0
0,56,37,0
0,46,38,0
0,36,0,1
0,42,0,0
0,46,0,1
0,56,0,1
0,59,0,1
0,56,34,4
0,42,67,0
0,59,69,1
0,42,0,3
0,66,0,5
0,27,0,4
0,59,0,4
0,66,0,1
0,66,1,0
0,61,85,2
0,66,101,1
0,36,97,23
0,38,97,0
0,42,66,0
0,28,100,1
0,66,0,1
0,36,0,2
0,42,0,0
0,38,0,0
0,61,0,6
0,66,0,11
0,63,1,0
0,56,85,3
0,63,102,3
0,59,0,21
0,46,67,0
0,56,0,1
0,59,96,0
0,63,96,1
0,68,96,1
0,46,0,1
0,63,0,19
0,28,0,1
0,59,0,1
0,80,0,0
0,63,0,1
0,68,0,1
0,56,0,1
0,58,65,0
0,63,0,1
0,39,100,0
0,55,38,0
0,64,0,18
0,75,0,0
0,39,0,1
0,68,0,0
0,71,0,0
0,55,0,0
0,56,35,0
0,59,67,0
0,71,49,0
0,68,49,0
0,75,50,0
0,58,0,1
0,37,102,0
0,80,69,0
0,59,96,0
0,46,38,0
0,36,103,0
0,64,54,0
0,63,96,1
0,68,96,1
0,36,0,2
0,46,0,0
0,56,0,20
0,59,0,0
0,59,0,0
0,63,0,1
0,68,0,1
0,54,90,0
0,37,0,9
0,54,0,4
0,56,34,7
0,42,66,0
0,56,90,1
0,59,69,0
0,42,0,3
0,56,0,9
0,59,89,5
0,32,97,5
0,38,102,1
0,42,70,0
0,42,0,4
0,38,0,0
0,59,0,6
0,56,88,13
0,32,0,13
0,59,0,11
0,56,0,1
0,42,71,0
0,42,0,4
0,56,0,21
0,36,97,2
0,36,0,4
0,39,99,16
0,59,66,0
0,36,99,0
0,42,67,0
0,56,36,1
0,46,38,0
0,42,0,3
0,36,0,0
0,46,0,1
0,56,82,42
0,56,0,1
0,59,0,1
0,39,0,0
0,35,102,0
0,55,37,0
0,58,69,0
0,42,70,0
0,42,0,4
0,56,0,10
0,55,0,1
0,58,0,0
0,35,0,0
0,59,92,0
0,56,33,0
0,59,65,0
0,37,99,4
0,38,99,3
0,42,66,0
0,42,0,3
0,38,0,0
0,59,0,11
0,37,0,2
0,61,88,8
0,35,97,3
0,37,99,5
0,42,66,0
0,59,0,1
0,56,0,0
0,42,0,3
0,35,0,1
0,80,0,14
0,55,34,0
0,58,71,1
0,61,0,3
0,37,0,2
0,58,0,11
0,80,67,0
0,36,97,0
0,55,0,1
0,37,100,0
0,56,36,0
0,59,69,0
0,46,38,0
0,36,0,3
0,46,0,1
0,56,0,19
0,59,0,0
0,37,0,12
0,63,92,2
0,56,39,0
0,59,69,0
0,42,71,0
0,42,0,1
0,63,0,7
0,63,90,11
0,38,98,20
0,32,101,1
0,42,69,0
0,63,0,1
0,38,0,2
0,42,0,1
0,59,88,21
0,32,0,2
0,59,0,1
0,56,0,0
0,42,70,1
0,42,0,4
0,27,99,2
0,55,35,0
0,36,97,0
0,58,71,1
0,36,0,2
0,27,0,0
0,59,0,9
0,58,0,7
0,27,97,0
0,56,33,0
0,42,65,0
0,36,98,0
0,55,0,1
0,59,69,0
0,46,38,0
0,36,0,3
0,42,0,0
0,46,0,1
0,66,1,1
0,59,0,3
0,63,90,0
0,56,0,1
0,66,101,0
0,63,0,6
0,66,0,1
0,56,38,2
0,59,70,0
0,42,71,0
0,42,0,4
0,27,0,8
0,66,0,8
0,66,1,0
0,66,101,2
0,63,89,0
0,28,99,5
0,28,0,4
0,66,0,11
0,63,0,2
0,38,99,3
0,28,103,0
0,36,100,0
0,42,68,0
0,38,0,3
0,36,0,1
0,42,0,0
0,66,0,16
0,63,1,0
0,63,103,2
0,59,86,0
0,59,0,6
0,56,0,0
0,42,65,0
0,42,0,4
0,63,0,10
0,63,0,3
0,80,0,3
0,55,39,4
0,58,69,0
0,28,0,2
0,71,0,6
0,75,0,0
0,68,0,0
0,64,0,1
0,58,0,0
0,55,0,0
0,37,98,0
0,56,35,0
0,36,99,0
0,75,51,0
0,68,50,0
0,59,0,1
0,80,69,0
0,63,88,0
0,59,71,0
0,46,38,0
0,71,54,0
0,64,55,0
0,36,0,3
0,46,0,1
0,63,0,12
0,59,0,7
0,56,0,1
0,63,84,4
0,37,0,8
0,63,0,3
0,59,67,8
0,63,83,1
0,56,38,0
0,42,69,0
0,42,0,4
0,63,0,10
0,63,84,4
0,63,0,11
0,61,80,6
0,32,97,2
0,38,100,1
0,42,71,0
0,42,0,4
0,38,0,0
0,61,0,14
0,63,82,5
0,32,0,13
0,63,0,5
0,59,85,5
0,56,0,1
0,59,0,1
0,42,69,0
0,42,0,4
0,36,100,0
0,36,0,4
0,59,67,6
0,36,98,0
0,39,101,1
0,56,39,0
0,46,38,0
0,42,70,0
0,36,0,3
0,46,0,1
0,42,0,0
0,59,0,12
0,56,84,4
0,39,0,1
0,56,0,0
0,58,65,0
0,55,34,0
0,42,66,0
0,59,0,1
0,35,100,0
0,42,0,3
0,35,0,20
0,56,34,0
0,59,66,0
0,55,0,1
0,58,0,0
0,37,98,3
0,38,98,1
0,42,69,0
0,38,0,3
0,42,0,1
0,56,0,2
0,37,0,0
0,35,99,11
0,46,65,11
0,56,0,1
0,59,0,0
0,37,101,0
0,46,0,3
0,35,0,1
0,80,0,19
0,54,83,1
0,55,35,3
0,58,69,1
0,54,0,7
0,37,0,0
0,58,0,12
0,56,84,0
0,56,33,0
0,59,66,0
0,55,0,1
0,37,100,0
0,80,70,0
0,46,38,0
0,36,103,0
0,36,0,4
0,46,0,0
0,59,0,20
0,56,0,0
0,37,0,11
0,56,0,10
0,59,66,1
0,42,66,0
0,56,36,1
0,59,84,1
0,42,0,2
0,38,97,29
0,32,101,1
0,42,69,0
0,38,0,3
0,42,0,1
0,32,0,31
0,59,0,11
0,56,0,1
0,42,67,0
0,59,0,1
0,42,0,3
0,66,1,2
0,66,101,1
0,63,82,0
0,36,99,1
0,27,102,0
0,58,68,0
0,55,37,0
0,27,0,2
0,36,0,1
0,58,0,10
0,55,0,0
0,56,35,0
0,59,65,0
0,27,101,1
0,46,38,0
0,36,100,0
0,42,69,0
0,63,0,3
0,42,0,1
0,46,0,0
0,36,0,0
0,66,0,2
0,66,0,14
0,63,1,0
0,56,0,4
0,59,0,0
0,59,84,0
0,63,100,2
0,59,65,0
0,56,36,1
0,42,70,0
0,42,0,2
0,63,0,6
0,27,0,1
0,59,0,6
0,63,0,3
0,66,1,0
0,63,86,1
0,66,103,1
0,28,103,0
0,36,101,0
0,38,101,0
0,42,69,0
0,66,0,2
0,42,0,2
0,36,0,0
0,38,0,0
0,63,0,5
0,66,0,11
0,63,1,0
0,59,85,4
0,63,101,3
0,56,0,20
0,59,0,1
0,46,69,0
0,46,0,4
0,63,0,3
0,59,0,5
0,63,0,8
0,66,1,0
0,28,0,3
0,80,0,0
0,63,83,1
0,66,103,1
0,58,66,1
0,39,100,1
0,55,36,0
0,36,120,0
0,36,0,1
0,75,0,3
0,39,0,1
0,64,0,0
0,55,0,0
0,71,0,0
0,37,99,0
0,58,99,0
0,63,97,0
0,59,97,0
0,75,49,0
0,71,50,0
0,68,0,1
0,58,0,0
0,80,71,0
0,56,39,0
0,59,69,0
0,56,102,0
0,46,38,0
0,36,100,0
0,64,54,0
0,68,52,0
0,36,0,4
0,46,0,0
0,66,0,1
0,63,0,2
0,66,0,13
0,63,1,0
0,56,0,3
0,59,0,0
0,59,82,1
0,63,103,2
0,37,0,10
0,56,34,11
0,59,70,1
0,42,70,0
0,42,0,4
0,59,0,4
0,66,97,1
0,38,99,0
0,63,0,1
0,32,101,0
0,59,100,0
0,42,71,0
0,38,0,3
0,42,0,1
0,32,0,1
0,59,0,1
0,42,66,0
0,56,0,1
0,42,0,1
0,36,100,5
0,36,0,1
0,59,67,0
0,36,99,0
0,42,65,0
0,39,102,1
0,56,37,0
0,46,38,0
0,42,0,2
0,36,0,0
0,46,0,1
0,56,0,1
0,39,0,0
0,35,97,0
0,59,0,1
0,55,38,0
0,58,69,0
0,42,69,0
0,42,0,3
0,58,0,19
0,55,0,0
0,35,0,1
