track,note,velocity,time
0,42,120,0
0,42,0,4
0,42,70,92
0,42,0,4
0,42,70,92
0,42,0,4
0,42,70,92
0,42,0,4
0,69,61,0
0,60,62,0
0,31,62,0
0,57,66,1
0,72,64,0
0,57,49,0
0,36,70,0
0,36,0,4
0,57,0,0
0,57,0,29
0,72,0,0
0,69,0,1
0,60,0,0
0,57,61,5
0,38,63,0
0,31,0,1
0,72,64,0
0,69,65,0
0,60,65,0
0,60,0,23
0,72,0,0
0,69,0,0
0,57,0,1
0,38,0,12
0,57,61,5
0,60,62,0
0,36,67,0
0,69,66,1
0,72,65,0
0,31,65,0
0,57,49,0
0,36,0,3
0,57,0,1
0,72,0,37
0,69,0,0
0,57,0,1
0,60,0,0
0,31,0,5
0,60,61,0
0,69,62,0
0,72,64,1
0,57,65,0
0,38,64,0
0,57,0,23
0,72,0,0
0,60,0,1
0,69,0,0
0,38,0,11
0,57,64,6
0,69,66,0
0,60,66,0
0,72,65,0
0,31,66,0
0,57,49,0
0,36,71,0
0,36,0,4
0,57,0,0
0,69,0,37
0,60,0,0
0,57,0,0
0,72,0,0
0,31,0,6
0,69,61,0
0,57,62,0
0,72,62,0
0,60,67,1
0,38,65,0
0,60,0,23
0,72,0,1
0,69,0,0
0,57,0,0
0,38,0,11
0,31,61,5
0,57,64,1
0,69,64,0
0,60,64,0
0,72,65,0
0,57,49,0
0,36,70,0
0,36,0,4
0,57,0,0
0,57,0,37
0,69,0,0
0,60,0,0
0,72,0,0
0,57,61,6
0,31,0,1
0,69,65,0
0,60,65,0
0,72,65,0
0,38,66,0
0,72,0,23
0,60,0,0
0,69,0,0
0,57,0,1
0,38,0,11
0,82,65,1
0,82,0,4
0,31,94,0
0,57,81,0
0,57,0,3
0,60,96,0
0,82,56,8
0,82,0,4
0,31,0,0
0,38,96,0
0,38,0,11
0,41,96,1
0,82,52,7
0,82,0,4
0,41,0,0
0,46,98,1
0,82,71,8
0,46,0,3
0,82,0,1
0,82,51,43
0,82,0,4
0,41,99,1
0,41,0,47
0,43,96,1
0,82,51,43
0,82,0,4
0,43,0,0
0,36,96,1
0,82,71,44
0,36,0,3
0,82,0,1
0,82,51,43
0,82,0,4
0,82,55,2
0,57,62,3
0,69,62,0
0,72,62,0
0,82,0,1
0,60,65,0
0,82,67,25
0,82,0,4
0,60,0,0
0,72,0,1
0,69,0,0
0,57,0,0
0,82,53,44
0,38,93,3
0,82,0,1
0,29,71,0
0,29,0,4
0,60,61,5
0,72,63,0
0,79,111,0
0,89,111,0
0,41,94,0
0,86,110,0
0,38,0,1
0,57,67,0
0,69,67,0
0,86,0,12
0,79,0,0
0,89,0,0
0,82,52,25
0,82,0,4
0,69,0,0
0,57,0,0
0,72,0,1
0,41,0,0
0,60,0,0
0,43,98,0
0,82,65,1
0,82,0,4
0,43,0,0
0,31,94,0
0,91,96,0
0,82,53,44
0,82,0,4
0,31,0,0
0,38,96,0
0,38,0,47
0,41,94,0
0,44,84,1
0,44,0,4
0,82,53,40
0,46,94,3
0,82,0,1
0,41,0,0
0,82,71,44
0,82,0,4
0,46,0,0
0,82,55,44
0,82,0,4
0,41,96,0
0,41,0,47
0,44,81,0
0,43,96,1
0,44,0,3
0,82,56,41
0,43,0,3
0,82,0,1
0,36,99,0
0,82,65,43
0,82,0,4
0,36,0,0
0,91,0,0
0,85,93,0
0,79,94,0
0,67,94,0
0,89,98,1
0,86,93,5
0,85,0,1
0,67,0,18
0,82,50,19
0,82,0,4
0,89,0,0
0,67,94,0
0,79,0,1
0,86,0,0
0,67,0,24
0,29,66,23
0,86,94,0
0,44,87,1
0,89,98,0
0,79,97,0
0,29,0,3
0,44,0,1
0,89,0,31
0,79,0,0
0,86,0,1
0,82,51,7
0,82,0,4
0,79,95,0
0,67,93,0
0,86,94,0
0,30,69,1
0,89,97,0
0,30,0,4
0,82,66,39
0,82,0,4
0,82,51,44
0,82,0,4
0,89,0,0
0,38,95,0
0,74,111,0
0,77,109,0
0,46,81,0
0,67,0,1
0,86,0,0
0,79,0,0
0,38,99,0
0,90,99,0
0,46,0,3
0,90,0,2
0,91,94,0
0,74,0,13
0,77,0,0
0,38,0,29
0,41,95,0
0,79,109,0
0,42,81,0
0,89,93,0
0,38,0,1
0,91,0,0
0,41,96,0
0,74,115,0
0,38,101,0
0,42,0,3
0,38,0,1
0,74,0,7
0,79,0,1
0,82,52,7
0,65,97,0
0,82,0,1
0,41,0,0
0,43,95,0
0,62,93,0
0,77,110,0
0,36,97,0
0,42,81,0
0,86,93,0
0,89,0,1
0,41,0,0
0,43,97,0
0,74,115,0
0,58,95,1
0,55,94,1
0,42,0,1
0,36,0,0
0,74,0,5
0,77,0,1
0,36,70,6
0,36,0,4
0,82,70,8
0,55,0,2
0,55,79,0
0,43,0,1
0,58,0,0
0,58,83,0
0,36,98,0
0,56,66,0
0,82,0,1
0,43,0,0
0,86,0,0
0,31,97,0
0,31,99,0
0,57,85,0
0,91,97,0
0,62,0,1
0,62,78,0
0,65,0,1
0,65,81,0
0,36,0,1
0,56,0,0
0,57,0,1
0,60,0,3
0,60,97,1
0,82,55,8
0,31,0,3
0,31,0,0
0,38,95,0
0,46,103,0
0,82,0,1
0,38,98,0
0,46,0,3
0,65,0,10
0,65,97,0
0,62,0,1
0,38,0,0
0,62,95,0
0,38,98,0
0,42,82,0
0,38,0,1
0,41,99,0
0,41,98,0
0,56,71,0
0,58,0,1
0,58,93,0
0,55,0,1
0,55,97,0
0,42,0,1
0,38,0,0
0,56,0,1
0,65,0,0
0,62,0,1
0,58,0,2
0,55,0,1
0,82,50,35
0,82,0,4
0,41,0,0
0,41,0,0
0,46,95,0
0,42,81,0
0,46,97,1
0,42,0,3
0,82,69,41
0,65,99,2
0,46,0,1
0,62,96,0
0,42,98,0
0,82,0,1
0,46,0,0
0,56,68,0
0,58,98,1
0,55,96,1
0,42,0,1
0,65,0,1
0,56,0,0
0,62,0,1
0,58,0,2
0,55,0,1
0,82,54,36
0,55,78,2
0,41,93,1
0,58,77,0
0,42,81,0
0,82,0,1
0,41,96,0
0,36,102,0
0,62,80,1
0,65,83,1
0,42,0,1
0,36,0,1
0,55,0,0
0,58,0,1
0,62,0,2
0,65,0,1
0,65,96,38
0,41,0,1
0,62,94,0
0,56,67,0
0,42,82,0
0,41,0,1
0,43,97,0
0,43,96,0
0,38,103,0
0,58,96,1
0,55,99,1
0,56,0,1
0,42,0,0
0,38,0,1
0,65,0,0
0,62,0,1
0,58,0,2
0,55,0,1
0,82,50,35
0,64,95,3
0,82,0,1
0,43,0,0
0,43,0,0
0,36,93,0
0,62,96,0
0,42,83,0
0,36,96,1
0,58,99,1
0,55,93,1
0,42,0,1
0,82,69,41
0,55,0,2
0,55,77,0
0,58,0,1
0,36,0,0
0,58,77,0
0,36,99,0
0,56,67,0
0,82,0,1
0,36,0,0
0,42,102,0
0,62,0,1
0,62,77,0
0,64,0,1
0,64,78,0
0,36,0,1
0,56,0,0
0,42,0,1
0,82,51,39
0,64,0,3
0,64,97,0
0,62,0,1
0,82,0,0
0,62,94,0
0,42,87,1
0,58,0,1
0,58,93,0
0,55,0,1
0,55,96,0
0,64,0,2
0,42,0,0
0,62,0,1
0,58,0,2
0,55,0,1
0,55,83,38
0,58,80,1
0,38,99,0
0,29,65,0
0,42,85,1
0,56,69,0
0,62,82,1
0,64,81,1
0,29,0,1
0,38,0,0
0,56,0,1
0,55,0,0
0,42,0,0
0,58,0,1
0,62,0,2
0,64,0,1
0,82,50,35
0,64,94,3
0,82,0,1
0,62,93,0
0,42,85,1
0,58,93,1
0,55,97,1
0,42,0,2
0,64,0,0
0,62,0,1
0,58,0,2
0,55,0,1
0,82,70,36
0,42,98,3
0,82,0,1
0,56,69,0
0,42,0,3
0,56,0,1
0,82,54,40
0,64,96,2
0,38,93,1
0,62,95,0
0,29,65,0
0,46,82,0
0,82,0,1
0,38,98,0
0,36,102,0
0,58,98,1
0,55,97,1
0,46,0,1
0,29,0,0
0,36,0,1
0,55,0,42
0,55,80,0
0,38,0,1
0,58,0,0
0,41,94,0
0,58,82,0
0,42,83,0
0,56,65,0
0,38,0,1
0,41,96,0
0,38,103,0
0,62,0,1
0,62,81,0
0,64,0,1
0,64,81,0
0,42,0,1
0,56,0,0
0,38,0,1
0,55,0,0
0,58,0,1
0,62,0,2
0,64,0,1
0,82,55,36
0,64,98,2
0,41,0,1
0,43,93,0
0,43,93,0
0,62,98,0
0,82,0,1
0,41,0,0
0,42,86,0
0,58,94,1
0,55,93,1
0,42,0,2
0,64,0,0
0,62,0,1
0,58,0,2
0,55,0,1
0,82,69,36
0,55,83,2
0,58,80,1
0,36,99,0
0,56,65,0
0,82,0,1
0,43,0,0
0,43,0,0
0,31,99,0
0,31,99,0
0,42,102,0
0,62,81,1
0,65,80,1
0,56,0,1
0,36,0,0
0,42,0,1
0,82,55,40
0,31,0,3
0,31,0,0
0,38,93,0
0,46,102,0
0,82,0,1
0,38,97,0
0,46,0,3
0,55,0,43
0,55,97,0
0,38,0,1
0,58,0,0
0,41,95,0
0,58,99,0
0,42,81,0
0,38,0,1
0,41,96,0
0,38,102,0
0,56,69,0
0,62,0,1
0,62,98,0
0,65,0,1
0,65,99,0
0,42,0,1
0,38,0,1
0,56,0,0
0,55,0,0
0,58,0,1
0,62,0,2
0,65,0,1
0,82,56,36
0,65,99,2
0,41,0,1
0,46,93,0
0,62,98,0
0,42,81,0
0,82,0,1
0,41,0,0
0,46,98,0
0,58,96,1
0,55,98,1
0,42,0,1
0,65,0,1
0,62,0,1
0,58,0,2
0,55,0,1
0,82,67,35
0,55,82,3
0,82,0,1
0,46,0,0
0,58,77,0
0,56,67,0
0,46,0,1
0,42,101,0
0,62,82,1
0,65,81,1
0,56,0,1
0,55,0,1
0,42,0,0
0,58,0,1
0,62,0,2
0,65,0,1
0,82,56,36
0,65,97,2
0,41,95,1
0,41,95,0
0,62,98,0
0,82,0,1
0,36,103,0
0,42,87,0
0,58,98,1
0,55,95,1
0,42,0,2
0,36,0,0
0,65,0,0
0,62,0,1
0,58,0,2
0,55,0,1
0,43,94,39
0,41,0,1
0,41,0,0
0,43,98,0
0,38,103,0
0,42,85,0
0,56,71,0
0,56,0,4
0,38,0,0
0,42,0,0
0,82,55,40
0,64,96,2
0,43,0,1
0,62,97,0
0,82,0,1
0,43,0,0
0,36,97,0
0,36,97,0
0,42,85,0
0,58,97,1
0,55,99,1
0,42,0,2
0,36,84,19
0,36,0,4
0,82,65,16
0,55,0,3
0,55,83,0
0,91,0,1
0,82,0,0
0,58,0,0
0,36,0,0
0,36,0,0
0,58,83,0
0,36,99,0
0,42,99,0
0,79,93,0
0,56,70,1
0,89,96,0
0,85,96,0
0,62,0,1
0,62,83,0
0,64,0,1
0,64,80,0
0,36,0,1
0,42,0,0
0,56,0,1
0,85,0,1
0,86,97,1
0,82,50,37
0,64,0,3
0,64,99,0
0,82,0,1
0,62,0,0
0,62,96,0
0,42,85,1
0,58,0,1
0,58,95,0
0,55,0,1
0,55,99,0
0,42,0,2
0,64,0,0
0,62,0,1
0,58,0,2
0,55,0,1
0,55,83,38
0,58,81,1
0,38,101,1
0,42,87,0
0,56,71,0
0,29,71,0
0,62,82,1
0,64,81,1
0,29,0,2
0,56,0,0
0,38,0,0
0,42,0,0
0,89,0,31
0,86,0,0
0,79,0,1
0,82,54,8
0,64,0,2
0,64,98,0
0,62,0,1
0,62,97,0
0,42,81,0
0,82,0,1
0,86,98,0
0,79,97,0
0,89,97,0
0,58,0,1
0,58,95,0
0,55,0,1
0,55,96,0
0,42,0,1
0,64,0,1
0,62,0,1
0,58,0,2
0,55,0,1
0,82,67,35
0,62,98,3
0,82,0,1
0,56,65,0
0,42,98,0
0,42,0,4
0,56,0,0
0,82,54,41
0,62,0,2
0,65,97,0
0,79,0,1
0,86,0,0
0,89,0,0
0,38,94,0
0,38,94,0
0,74,110,0
0,29,65,0
0,82,0,1
0,77,112,0
0,46,86,0
0,36,101,0
0,90,96,0
0,29,0,3
0,36,0,1
0,46,0,0
0,90,0,1
0,91,95,0
0,77,0,12
0,74,0,1
0,65,0,28
0,67,94,0
0,41,94,1
0,79,109,0
0,57,83,0
0,56,67,0
0,38,0,1
0,38,0,0
0,91,0,0
0,41,96,0
0,74,114,0
0,38,101,0
0,89,96,0
0,57,0,3
0,56,0,0
0,38,0,1
0,74,0,7
0,79,0,1
0,82,50,31
0,67,0,3
0,64,96,0
0,41,0,1
0,89,0,0
0,82,0,0
0,43,95,0
0,62,99,0
0,42,83,0
0,55,111,0
0,41,0,1
0,43,99,0
0,74,112,0
0,77,114,0
0,36,101,0
0,86,96,0
0,58,113,0
0,62,113,0
0,65,113,0
0,58,96,1
0,55,95,1
0,42,0,1
0,36,0,1
0,74,0,13
0,77,0,0
0,82,66,26
0,55,0,3
0,55,83,0
0,58,0,1
0,43,0,0
0,62,0,0
0,86,0,0
0,82,0,0
0,58,0,0
0,65,0,0
0,31,94,0
0,58,83,0
0,56,65,0
0,91,95,0
0,55,0,1
0,43,0,0
0,62,96,0
0,31,97,0
0,43,99,0
0,36,102,0
0,57,87,0
0,62,0,1
0,62,83,0
0,64,0,1
0,65,81,0
0,56,0,1
0,36,0,1
0,57,0,0
0,60,0,1
0,60,93,0
0,82,55,37
0,43,0,3
0,31,0,0
0,38,94,0
0,50,95,0
0,46,103,0
0,82,0,1
0,31,0,0
0,38,96,0
0,46,0,3
0,65,0,4
0,65,99,0
0,38,0,1
0,62,0,0
0,62,0,0
0,62,99,0
0,38,98,0
0,56,66,0
0,38,0,1
0,50,0,0
0,64,96,0
0,41,98,0
0,41,97,0
0,53,99,0
0,42,86,0
0,58,0,1
0,58,96,0
0,55,0,1
0,55,96,0
0,38,0,1
0,56,0,0
0,42,0,1
0,65,0,0
0,62,0,1
0,58,0,2
0,55,0,1
0,64,0,27
0,82,56,9
0,53,0,3
0,41,0,0
0,41,0,0
0,46,93,0
0,58,93,0
0,42,83,0
0,82,0,1
0,62,98,0
0,46,99,0
0,42,0,2
0,62,0,32
0,82,71,9
0,46,0,3
0,56,65,0
0,58,0,1
0,46,0,0
0,82,0,0
0,67,99,0
0,42,101,0
0,56,0,2
0,42,0,1
0,82,51,37
0,65,97,3
0,82,0,1
0,62,96,0
0,36,99,0
0,41,97,1
0,41,99,0
0,53,98,0
0,42,85,0
0,58,97,1
0,55,98,1
0,36,0,1
0,42,0,1
0,55,0,4
0,55,81,0
0,41,0,1
0,58,0,0
0,53,0,0
0,41,0,0
0,67,0,0
0,64,94,0
0,43,93,0
0,58,80,0
0,55,95,0
0,43,98,1
0,38,101,0
0,42,87,0
0,56,71,0
0,62,0,1
0,62,78,0
0,65,0,1
0,65,78,0
0,55,0,2
0,38,0,0
0,56,0,0
0,42,0,0
0,58,0,1
0,62,0,2
0,65,0,1
0,64,0,28
0,82,51,7
0,64,94,3
0,82,0,1
0,43,0,0
0,36,93,0
0,62,98,0
0,42,81,0
0,64,109,0
0,43,0,1
0,55,0,0
0,62,98,0
0,36,97,0
0,48,96,0
0,58,114,0
0,55,113,0
0,58,94,1
0,55,95,1
0,42,0,1
0,62,0,32
0,82,66,8
0,55,0,3
0,55,81,0
0,36,0,1
0,58,0,0
0,48,0,0
0,82,0,0
0,55,0,0
0,58,0,0
0,58,79,0
0,36,97,0
0,64,0,1
0,36,0,0
0,67,96,0
0,42,101,0
0,56,71,0
0,62,0,1
0,62,79,0
0,64,0,1
0,64,80,0
0,36,0,1
0,42,0,1
0,56,0,0
0,82,50,37
0,64,0,3
0,64,98,0
0,82,0,1
0,62,0,0
0,62,96,0
0,42,87,1
0,58,0,1
0,58,99,0
0,55,0,1
0,55,94,0
0,42,0,2
0,64,0,0
0,62,0,1
0,58,0,2
0,55,0,1
0,55,79,4
0,67,0,1
0,58,77,0
0,38,97,0
0,42,81,0
0,56,65,0
0,64,99,1
0,62,77,1
0,64,80,1
