track,note,velocity,time
2,25,92,16860
2,25,0,183
2,37,127,17
2,37,0,5
2,32,100,235
2,32,0,8
2,25,96,32
2,25,0,395
2,25,84,45
2,25,0,7
2,25,98,33
2,25,0,165
2,37,126,35
2,37,0,5
2,32,99,235
2,32,0,8
2,25,91,32
2,25,0,226
2,27,77,14
2,27,0,115
2,29,78,5
2,29,0,115
2,30,90,5
2,30,0,183
2,42,127,17
2,42,0,10
2,37,97,230
2,37,0,8
2,30,97,32
2,30,0,335
2,30,84,25
2,30,0,12
2,25,98,0
2,25,0,165
2,37,125,35
2,37,0,5
2,32,99,235
2,32,0,8
2,25,92,32
2,25,0,315
2,32,86,5
2,32,0,155
2,25,94,5
2,25,0,183
2,37,125,17
2,37,0,5
2,32,100,235
2,32,0,8
2,25,96,32
2,25,0,435
2,25,94,45
2,25,0,183
2,37,127,17
2,37,0,5
2,32,96,235
2,32,0,8
2,25,93,32
2,25,0,435
2,32,94,45
2,32,0,165
2,44,125,35
2,44,0,5
2,30,93,235
2,30,0,35
2,32,92,5
2,32,0,416
2,32,100,24
2,32,0,35
2,30,94,5
2,30,0,115
2,32,83,5
2,32,0,115
2,32,65,205
2,32,0,8
2,30,92,32
2,30,0,115
2,32,85,5
2,32,0,115
2,44,111,85
2,44,0,8
2,32,86,32
2,32,0,8
2,25,89,4
2,25,0,183
2,37,126,17
2,37,0,5
2,32,96,235
2,32,0,8
2,25,91,32
2,25,0,395
2,25,84,45
2,25,0,7
2,25,96,33
2,25,0,165
2,37,127,35
2,37,0,5
2,32,96,235
2,32,0,8
2,25,94,32
2,25,0,226
2,27,72,14
2,27,0,115
2,29,78,5
2,29,0,115
2,30,93,5
2,30,0,183
2,42,127,17
2,42,0,10
2,37,93,230
2,37,0,8
2,30,92,32
2,30,0,335
2,30,84,25
2,30,0,2
2,25,97,5
2,25,0,163
2,37,127,35
2,37,0,5
2,32,95,235
2,32,0,8
2,25,96,32
2,25,0,235
2,22,108,5
2,22,0,235
2,25,90,5
2,25,0,183
2,37,124,17
2,37,0,5
2,32,100,235
2,32,0,8
2,25,91,32
2,25,0,435
2,32,127,45
2,32,0,165
2,44,127,35
2,44,0,5
2,30,127,235
2,30,0,35
2,32,127,5
2,32,0,235
2,31,127,5
2,31,0,235
2,30,127,5
2,30,0,155
2,42,127,45
2,42,0,5
2,30,127,235
2,30,0,30
2,29,127,10
2,29,0,222
2,27,127,18
2,27,0,215
2,25,127,25
2,25,0,183
2,37,127,17
2,37,0,5
2,32,127,235
2,32,0,8
2,25,127,32
2,25,0,395
2,25,127,45
2,25,0,7
2,37,127,33
2,49,127,120
2,37,0,1
2,49,0,0
2,37,127,199
2,37,0,26
2,34,127,14
2,34,0,5
2,37,127,35
2,37,0,17
2,34,127,23
2,34,0,6
2,37,127,34
2,37,0,302
2,37,127,18
2,37,0,3
2,34,127,37
2,34,0,97
2,37,127,23
2,37,0,241
2,49,127,79
2,37,127,40
2,37,0,1
2,34,127,79
2,34,0,40
2,37,127,0
2,37,0,310
2,37,127,50
2,37,0,96
2,30,127,24
2,30,0,318
2,30,127,42
2,30,0,3
2,42,127,77
2,42,0,30
2,30,127,10
2,30,0,73
2,42,127,7
2,42,0,2
2,30,127,38
2,30,0,10
2,42,127,70
2,42,0,36
2,30,127,4
2,30,0,26
2,30,127,54
2,30,0,3
2,42,127,77
2,42,0,1
2,37,127,79
2,49,0,118
2,49,127,2
2,37,0,1
2,49,0,0
2,37,127,199
2,37,0,26
2,34,127,14
2,34,0,5
2,37,127,35
2,37,0,17
2,34,127,23
2,34,0,6
2,37,127,34
2,37,0,302
2,37,127,18
2,37,0,3
2,34,127,37
2,34,0,97
2,37,127,23
2,37,0,241
2,49,127,79
2,37,127,40
2,37,0,1
2,34,127,79
2,34,0,40
2,37,127,0
2,37,0,310
2,37,127,50
2,37,0,96
2,32,127,24
2,32,0,318
2,32,127,42
2,32,0,3
2,44,127,77
2,44,0,30
2,32,127,10
2,32,0,73
2,44,127,7
2,44,0,2
2,32,127,38
2,32,0,10
2,44,127,70
2,44,0,36
2,32,127,4
2,32,0,26
2,32,127,54
2,32,0,3
2,44,127,77
2,44,0,1
2,30,127,79
2,30,0,296
2,42,127,24
2,42,0,3
2,30,127,37
2,30,0,73
2,25,127,7
2,25,0,26
2,29,127,14
2,29,0,76
2,29,127,44
2,29,0,117
2,27,127,3
2,27,0,81
2,27,127,39
2,27,0,91
2,25,127,29
2,25,0,155
2,37,127,45
2,37,0,5
2,25,127,155
2,25,0,6
2,25,127,74
2,25,0,23
2,25,127,17
2,25,0,451
2,25,94,7709
2,25,0,183
2,37,124,17
2,37,0,5
2,32,95,235
2,32,0,8
2,25,94,32
2,25,0,395
2,25,84,45
2,25,0,7
2,25,95,33
2,25,0,165
2,37,127,35
2,37,0,5
2,32,96,235
2,32,0,8
2,25,96,32
2,25,0,226
2,27,72,14
2,27,0,115
2,29,79,5
2,29,0,115
2,30,89,5
2,30,0,183
2,42,127,17
2,42,0,10
2,37,94,230
2,37,0,8
2,30,95,32
2,30,0,335
2,30,88,25
2,30,0,2
2,25,94,5
2,25,0,163
2,37,127,35
2,37,0,5
2,32,93,235
2,32,0,8
2,25,95,32
2,25,0,235
2,22,111,5
2,22,0,235
2,25,94,5
2,25,0,183
2,37,127,17
2,37,0,5
2,32,98,235
2,32,0,8
2,25,95,32
2,25,0,435
2,32,94,45
2,32,0,165
2,44,127,35
2,44,0,5
2,30,100,235
2,30,0,35
2,32,92,5
2,32,0,235
2,31,91,5
2,31,0,235
2,30,94,5
2,30,0,155
2,42,127,45
2,42,0,5
2,30,89,235
2,30,0,30
2,29,97,10
2,29,0,222
2,27,91,18
2,27,0,215
2,25,92,25
2,25,0,183
2,37,127,17
2,37,0,5
2,32,100,235
2,32,0,8
2,25,97,32
2,25,0,395
2,25,83,45
2,25,0,7
2,37,123,33
2,49,0,118
2,49,125,2
2,37,0,1
2,49,0,0
2,37,126,199
2,37,0,26
2,34,93,14
2,34,0,5
2,37,51,35
2,37,0,17
2,34,123,23
2,34,0,6
2,37,124,34
2,37,0,302
2,37,72,18
2,37,0,3
2,34,117,37
2,34,0,97
2,37,108,23
2,37,0,241
2,49,82,79
2,37,95,40
2,37,0,1
2,34,113,79
2,34,0,40
2,37,108,0
2,37,0,310
2,37,116,50
2,37,0,96
2,30,112,24
2,30,0,318
2,30,63,42
2,30,0,3
2,42,127,77
2,42,0,30
2,30,104,10
2,30,0,73
2,42,71,7
2,42,0,2
2,30,82,38
2,30,0,10
2,42,123,70
2,42,0,36
2,30,112,4
2,30,0,26
2,30,98,54
2,30,0,3
2,42,60,77
2,42,0,1
2,37,127,79
2,49,0,118
2,49,127,2
2,37,0,1
2,49,0,0
2,37,127,199
2,37,0,26
2,34,97,14
2,34,0,5
2,37,52,35
2,37,0,17
2,34,118,23
2,34,0,6
2,37,126,34
2,37,0,302
2,37,68,18
2,37,0,3
2,34,122,37
2,34,0,97
2,37,112,23
2,37,0,241
2,49,81,79
2,37,96,40
2,37,0,1
2,34,112,79
2,34,0,40
2,37,108,0
2,37,0,310
2,37,115,50
2,37,0,96
2,32,114,24
2,32,0,318
2,32,61,42
2,32,0,3
2,44,126,77
2,44,0,30
2,32,103,10
2,32,0,73
2,44,64,7
2,44,0,2
2,32,87,38
2,32,0,10
2,44,125,70
2,44,0,36
2,32,109,4
2,32,0,26
2,32,97,54
2,32,0,3
2,44,62,77
2,44,0,1
2,30,108,79
2,30,0,296
2,42,125,24
2,42,0,3
2,30,92,37
2,30,0,73
2,25,100,7
2,25,0,26
2,29,101,14
2,29,0,76
2,29,109,44
2,29,0,117
2,27,107,3
2,27,0,81
2,27,113,39
2,27,0,91
2,25,115,29
2,25,0,155
2,37,127,45
2,37,0,5
2,25,78,155
2,25,0,6
2,25,59,74
2,25,0,23
2,25,83,17
2,25,0,451
2,37,123,29
2,49,0,118
2,49,123,2
2,37,0,1
2,49,0,0
2,37,127,199
2,37,0,26
2,34,89,14
2,34,0,5
2,37,48,35
2,37,0,17
2,34,124,23
2,34,0,6
2,37,125,34
2,37,0,302
2,37,74,18
2,37,0,3
2,34,115,37
2,34,0,97
2,37,108,23
2,37,0,241
2,49,81,79
2,37,96,40
2,37,0,1
2,34,113,79
2,34,0,40
2,37,104,0
2,37,0,310
2,37,112,50
2,37,0,96
2,30,117,24
2,30,0,318
2,30,59,42
2,30,0,3
2,42,127,77
2,42,0,30
2,30,104,10
2,30,0,73
2,42,64,7
2,42,0,2
2,30,83,38
2,30,0,10
2,42,124,70
2,42,0,36
2,30,115,4
2,30,0,26
2,30,91,54
2,30,0,3
2,42,64,77
2,42,0,1
2,37,127,79
2,49,0,118
2,49,123,2
2,37,0,1
2,49,0,0
2,37,127,199
2,37,0,26
2,34,96,14
2,34,0,5
2,37,46,35
2,37,0,17
2,34,123,23
2,34,0,6
2,37,124,34
2,37,0,302
2,37,75,18
2,37,0,3
2,34,121,37
2,34,0,97
2,37,108,23
2,37,0,241
2,49,82,79
2,37,99,40
2,37,0,1
2,34,109,79
2,34,0,40
2,37,104,0
2,37,0,310
2,37,118,50
2,37,0,96
2,32,117,24
2,32,0,318
2,32,57,42
2,32,0,3
2,44,123,77
2,44,0,30
2,32,102,10
2,32,0,73
2,44,69,7
2,44,0,2
2,32,89,38
2,32,0,10
2,44,123,70
2,44,0,36
2,32,110,4
2,32,0,26
2,32,98,54
2,32,0,3
2,44,62,77
2,44,0,1
2,30,107,79
2,30,0,296
2,42,127,24
2,42,0,3
2,30,89,37
2,30,0,73
2,25,103,7
2,25,0,26
2,29,105,14
2,29,0,76
2,29,108,44
2,29,0,117
2,27,107,3
2,27,0,81
2,27,116,39
2,27,0,91
2,25,114,29
2,25,0,155
2,37,123,45
2,37,0,5
2,25,81,155
2,25,0,6
2,25,65,74
2,25,0,23
2,25,89,17
2,25,0,451
2,37,127,29
2,49,0,118
2,49,125,2
2,37,0,1
2,49,0,0
2,37,127,199
2,37,0,26
2,34,89,14
2,34,0,5
2,37,48,35
2,37,0,17
2,34,122,23
2,34,0,6
2,37,127,34
2,37,0,302
2,37,69,18
2,37,0,3
2,34,122,37
2,34,0,97
2,37,113,23
2,37,0,241
2,49,86,79
2,37,96,40
2,37,0,1
2,34,106,79
2,34,0,40
2,37,111,0
2,37,0,310
2,37,116,50
2,37,0,96
2,30,113,24
2,30,0,318
2,30,60,42
2,30,0,3
2,42,127,77
2,42,0,30
2,30,100,10
2,30,0,73
2,42,64,7
2,42,0,2
2,30,83,38
2,30,0,10
2,42,127,70
2,42,0,36
2,30,115,4
2,30,0,26
2,30,92,54
2,30,0,3
2,42,59,77
2,42,0,1
2,37,123,79
2,49,0,118
2,49,125,2
2,37,0,1
2,49,0,0
2,37,127,199
2,37,0,26
2,34,91,14
2,34,0,5
2,37,48,35
2,37,0,17
2,34,121,23
2,34,0,6
2,37,126,34
2,37,0,302
2,37,72,18
2,37,0,3
2,34,122,37
2,34,0,97
2,37,106,23
2,37,0,241
2,49,81,79
2,49,0,30
2,37,94,10
2,37,0,1
2,34,113,79
2,34,0,40
2,37,110,0
2,37,0,310
2,37,117,50
2,37,0,96
2,32,117,24
2,32,0,318
2,32,61,42
2,32,0,3
2,44,125,77
2,44,0,30
2,32,101,10
2,32,0,73
2,44,69,7
2,44,0,2
2,32,86,38
2,32,0,10
2,44,126,70
2,44,0,36
2,32,109,4
2,32,0,26
2,32,95,54
2,32,0,3
2,44,61,77
2,44,0,1
2,30,110,79
2,30,0,296
2,42,126,24
2,42,0,3
2,30,90,37
2,30,0,73
2,25,105,7
2,25,0,26
2,29,106,14
2,29,0,76
2,29,111,44
2,29,0,117
2,27,108,3
2,27,0,81
2,27,113,39
2,27,0,91
2,25,119,29
2,25,0,155
2,37,127,45
2,37,0,5
2,25,80,155
2,25,0,6
2,25,62,74
2,25,0,23
2,25,83,17
2,25,0,451
2,25,119,29
2,25,0,130
2,25,49,230
2,25,0,3
2,25,87,77
2,25,0,6
2,25,119,34
2,25,0,57
2,25,122,63
2,25,0,173
2,25,76,27
2,25,0,8
2,22,115,32
2,22,0,103
2,25,120,17
2,25,0,120
2,25,92,320
2,25,0,6
2,25,120,34
2,25,0,62
2,25,119,58
2,25,0,91
2,25,71,29
2,25,0,17
2,25,66,63
2,25,0,3
2,37,124,37
2,37,0,85
2,25,121,35
2,25,0,130
2,25,55,230
2,25,0,3
2,25,87,77
2,25,0,6
2,25,118,34
2,25,0,57
2,25,117,63
2,25,0,173
2,25,76,27
2,25,0,8
2,22,111,32
2,22,0,103
2,25,118,17
2,25,0,120
2,25,87,320
2,25,0,6
2,25,123,34
2,25,0,62
2,25,116,58
2,25,0,91
2,25,70,29
2,25,0,17
2,25,72,63
2,25,0,3
2,37,124,37
2,37,0,85
2,25,125,35
2,25,0,130
3,22,90,16578
3,51,89,0
3,22,0,235
3,51,0,0
4,56,98,17014
4,56,0,116
4,61,97,6
4,61,0,39
4,61,100,83
4,61,0,233
4,58,75,10
4,58,0,9
4,65,101,546
4,65,0,115
4,63,100,5
4,63,0,18
4,65,97,97
4,65,0,23
4,63,97,96
4,63,0,30
4,65,94,94
4,65,0,22
4,56,61,161
4,56,0,9
4,56,103,31
4,56,0,41
4,61,107,85
4,61,0,66
4,61,50,60
4,61,0,12
4,61,101,58
4,58,98,135
4,61,0,2
4,58,0,22
4,56,100,459
4,56,0,34
4,61,100,78
4,61,0,64
4,61,95,15
4,61,0,31
4,58,75,12
4,58,0,71
4,61,96,9
4,61,0,31
4,63,100,92
4,63,0,49
4,61,98,74
4,61,0,157
4,56,100,242
4,56,0,112
4,61,103,8
4,61,0,43
4,61,102,78
4,61,0,69
4,56,57,5
4,56,0,12
4,65,99,150
4,65,0,101
4,63,103,12
4,63,0,65
4,61,62,12
4,61,0,38
4,63,100,3
4,63,0,115
4,65,99,12
4,65,0,37
4,65,101,83
4,65,0,117
4,68,102,9
4,70,98,112
4,68,0,2
4,70,0,116
4,65,100,1
4,65,0,174
4,66,77,6
4,66,0,30
4,65,65,5
4,65,0,16
4,63,98,12
4,65,64,187
4,63,0,8
4,65,0,11
4,63,48,4
4,63,0,30
4,63,95,123
4,63,0,62
4,63,103,55
4,63,0,71
4,61,87,9
4,61,0,23
4,63,102,12
4,63,0,116
4,63,72,85
4,63,0,16
4,63,102,24
4,63,0,71
4,65,100,56
4,65,0,97
4,63,97,17
4,63,0,115
4,65,98,131
4,65,0,113
4,63,100,5
4,63,0,70
4,61,66,11
4,61,0,25
4,63,101,10
4,63,0,118
4,65,76,5
4,65,0,18
4,61,103,227
4,61,0,211
4,56,97,24
4,56,0,78
4,61,96,2
4,61,0,66
4,61,95,54
4,61,0,10
4,61,107,30
4,61,0,66
4,60,89,14
4,60,0,28
4,58,107,12
4,58,0,75
4,56,85,5
4,56,0,35
4,61,98,5
4,61,0,55
4,58,92,65
4,58,0,58
4,61,99,62
4,61,0,106
4,58,103,14
4,58,0,73
4,56,90,127
4,56,0,10
4,56,107,30
4,56,0,51
4,56,90,29
4,56,0,18
4,64,110,22
4,64,0,85
4,63,106,35
4,63,0,61
4,64,113,59
4,64,0,92
4,63,94,28
4,63,0,70
4,64,104,50
4,64,0,65
4,63,95,15
4,63,0,16
4,63,97,24
4,63,0,80
4,61,94,120
4,61,0,17
4,61,111,23
4,61,0,58
4,58,94,22
4,58,0,16
4,61,112,24
4,61,0,55
4,61,112,25
4,61,0,31
4,58,93,9
4,58,0,61
4,56,93,19
4,56,0,22
4,61,113,18
4,61,0,52
4,61,92,28
4,61,0,32
4,58,113,8
4,58,0,58
4,56,95,22
4,56,0,22
4,61,113,18
4,61,0,100
4,58,116,20
4,58,0,87
4,56,110,113
4,56,0,15
4,56,116,25
4,56,0,36
4,56,111,44
4,56,0,27
4,64,109,13
4,64,0,52
4,64,95,28
4,64,0,36
4,63,110,4
4,63,0,60
4,61,93,20
4,61,0,21
4,64,108,19
4,64,0,43
