track,note,velocity,time
0,50,96,1128
0,35,113,188
0,47,98,0
0,36,103,0
0,72,66,0
0,84,67,0
0,74,71,28
0,76,70,4
0,77,65,0
0,79,64,4
0,81,63,4
0,35,122,16
0,42,70,0
0,29,99,0
0,72,64,0
0,84,64,0
0,60,104,0
0,65,69,0
0,69,71,0
0,72,69,0
0,42,65,120
0,65,66,0
0,69,63,0
0,72,70,0
0,42,63,140
0,65,66,0
0,69,71,0
0,72,65,0
0,37,120,140
0,42,71,0
0,54,84,0
0,63,62,0
0,65,59,0
0,72,59,0
0,65,65,0
0,69,65,0
0,72,65,0
0,42,66,20
0,29,97,0
0,57,101,0
0,65,65,0
0,69,66,0
0,72,65,0
0,35,119,16
0,42,68,0
0,33,98,0
0,60,100,0
0,65,67,0
0,69,69,0
0,72,63,0
0,35,117,0
0,42,69,0
0,38,101,0
0,74,64,0
0,86,70,0
0,62,104,0
0,65,69,0
0,69,70,0
0,74,62,0
0,42,70,132
0,65,64,0
0,69,69,0
0,74,62,0
0,42,67,44
0,46,98,92
0,65,68,0
0,69,68,0
0,74,71,0
0,37,114,32
0,42,69,0
0,54,86,0
0,33,94,0
0,65,58,0
0,69,62,0
0,74,63,0
0,65,64,0
0,69,66,0
0,74,67,0
0,42,70,112
0,65,70,0
0,69,65,0
0,74,66,0
0,42,69,140
0,65,64,0
0,69,64,0
0,74,64,0
0,35,115,0
0,42,68,0
0,31,100,0
0,74,71,0
0,86,68,0
0,62,100,0
0,67,71,0
0,70,67,0
0,74,71,0
0,42,63,140
0,67,69,0
0,70,68,0
0,74,65,0
0,42,71,44
0,42,68,92
0,67,63,0
0,70,63,0
0,74,70,0
0,37,118,84
0,42,62,0
0,54,83,0
0,67,61,0
0,70,62,0
0,74,58,0
0,67,63,0
0,70,66,0
0,74,70,0
0,42,67,20
0,58,106,0
0,67,64,0
0,70,68,0
0,74,71,0
0,35,116,16
0,42,69,0
0,34,94,0
0,62,103,0
0,67,71,0
0,70,70,0
0,74,63,0
0,35,113,16
0,42,66,0
0,36,100,0
0,76,63,0
0,88,71,0
0,64,108,0
0,67,67,0
0,72,63,0
0,76,71,0
0,42,68,132
0,67,68,0
0,72,66,0
0,76,67,0
0,42,67,44
0,46,97,92
0,67,67,0
0,72,66,0
0,76,62,0
0,37,122,28
0,42,66,0
0,54,80,0
0,38,94,0
0,67,63,0
0,72,60,0
0,76,63,0
0,74,65,0
0,67,69,0
0,72,63,0
0,76,68,0
0,42,62,20
0,36,103,0
0,67,63,0
0,72,67,0
0,76,71,0
0,76,64,0
0,35,121,20
0,42,69,0
0,33,94,0
0,67,66,0
0,72,68,0
0,76,62,0
0,35,117,0
0,42,69,0
0,29,101,0
0,76,70,0
0,88,68,0
0,64,101,0
0,69,63,0
0,72,68,0
0,76,64,0
0,42,63,140
0,69,71,0
0,72,63,0
0,76,71,0
0,42,68,140
0,69,64,0
0,72,71,0
0,76,70,0
0,37,116,140
0,42,67,0
0,54,82,0
0,65,62,0
0,69,65,0
0,72,61,0
0,69,68,0
0,72,64,0
0,76,64,0
0,42,64,20
0,29,101,0
0,72,63,0
0,84,67,0
0,60,103,0
0,69,71,0
0,72,66,0
0,76,70,0
0,35,115,0
0,42,69,0
0,33,96,0
0,76,66,0
0,88,65,0
0,64,106,0
0,69,70,0
0,72,70,0
0,76,70,0
0,35,122,0
0,42,63,0
0,38,99,0
0,74,63,0
0,77,65,0
0,89,71,0
0,65,107,0
0,69,66,0
0,72,64,0
0,74,64,0
0,42,66,132
0,69,62,0
0,72,67,0
0,74,64,0
0,42,70,44
0,46,98,24
0,69,69,0
0,72,71,0
0,74,67,0
0,37,121,32
0,42,64,0
0,54,82,0
0,33,101,0
0,69,59,0
0,74,65,0
0,77,61,0
0,69,70,0
0,72,66,0
0,74,71,0
0,42,69,112
0,69,70,0
0,72,64,0
0,74,66,0
0,42,71,32
0,77,70,0
0,89,67,0
0,69,69,0
0,72,66,0
0,74,69,0
0,35,121,0
0,42,69,0
0,31,98,0
0,70,70,0
0,81,70,0
0,86,66,0
0,89,71,0
0,93,65,0
0,69,105,0
0,67,63,0
0,70,71,0
0,74,67,0
0,42,62,132
0,67,67,0
0,70,66,0
0,74,65,0
0,42,65,44
0,42,67,16
0,77,70,0
0,82,65,0
0,86,65,0
0,89,67,0
0,67,106,0
0,67,67,0
0,70,63,0
0,74,63,0
0,37,113,140
0,42,71,0
0,54,89,0
0,67,59,0
0,70,60,0
0,74,56,0
0,67,63,0
0,70,66,0
0,74,70,0
0,42,65,12
0,77,72,0
0,82,71,0
0,86,67,0
0,89,66,0
0,65,107,0
0,67,69,0
0,70,68,0
0,74,69,0
0,35,121,32
0,42,62,0
0,34,100,0
0,67,68,0
0,70,62,0
0,74,66,0
0,35,122,16
0,42,62,0
0,50,99,0
0,36,95,0
0,72,72,0
0,76,64,0
0,79,72,0
0,84,65,0
0,88,64,0
0,64,105,0
0,67,65,0
0,70,64,0
0,72,71,0
0,42,66,140
0,47,90,0
0,67,62,0
0,70,64,0
0,72,66,0
0,42,64,44
0,46,97,8
0,76,68,0
0,79,70,0
0,84,65,0
0,88,69,0
0,65,105,0
0,67,64,0
0,70,63,0
0,72,65,0
0,37,115,32
0,42,71,0
0,50,94,0
0,54,84,0
0,38,94,0
0,70,62,0
0,72,56,0
0,76,64,0
0,70,65,0
0,67,63,0
0,70,66,0
0,72,64,0
0,35,113,0
0,42,66,0
0,47,92,0
0,36,97,0
0,67,68,0
0,72,63,0
0,76,69,0
0,79,67,0
0,84,65,0
0,67,107,0
0,67,65,0
0,70,67,0
0,72,66,0
0,35,119,20
0,42,63,0
0,43,90,0
0,33,100,0
0,67,65,0
0,70,69,0
0,72,67,0
0,35,114,8
0,42,69,0
0,29,99,0
0,65,62,0
0,69,68,0
0,72,65,0
0,69,70,0
0,60,58,0
0,65,86,0
0,53,113,0
0,65,89,0
0,69,92,0
0,72,87,0
0,42,71,20
0,65,62,0
0,69,70,0
0,72,64,0
0,42,69,48
0,42,70,92
0,65,70,0
0,69,69,0
0,72,65,0
0,60,115,0
0,37,120,144
0,42,64,0
0,54,86,0
0,65,64,0
0,69,70,0
0,72,62,0
0,65,57,0
0,69,61,0
0,72,64,0
0,42,62,24
0,29,94,0
0,65,69,0
0,69,65,0
0,72,65,0
0,69,117,0
0,35,119,16
0,42,68,0
0,33,99,0
0,65,68,0
0,69,70,0
0,72,62,0
0,53,115,0
0,67,121,0
0,35,114,16
0,42,70,0
0,38,103,0
0,65,63,0
0,69,68,0
0,74,65,0
0,50,112,0
0,74,92,0
0,65,114,0
0,42,71,16
0,65,70,0
0,69,71,0
0,74,70,0
0,67,122,0
0,42,70,16
0,65,64,0
0,69,65,0
0,74,68,0
0,69,120,0
0,37,122,32
0,42,62,0
0,54,89,0
0,33,97,0
0,65,67,0
0,69,66,0
0,74,65,0
0,65,61,0
0,69,57,0
0,74,64,0
0,50,115,0
0,42,67,20
0,65,64,0
0,69,70,0
0,74,66,0
0,52,112,0
0,42,65,56
0,65,63,0
0,69,69,0
0,74,62,0
0,53,108,0
0,35,121,20
0,42,65,0
0,31,100,0
0,67,62,0
0,70,64,0
0,74,65,0
0,62,85,0
0,55,112,0
0,67,91,0
0,70,86,0
0,74,89,0
0,42,66,20
0,67,65,0
0,70,64,0
0,74,66,0
0,42,63,48
0,42,64,92
0,67,64,0
0,70,70,0
0,74,62,0
0,62,115,0
0,37,119,144
0,42,70,0
0,54,87,0
0,67,64,0
0,70,70,0
0,74,71,0
0,67,58,0
0,70,61,0
0,74,63,0
0,42,68,28
0,67,62,0
0,70,62,0
0,74,68,0
0,67,114,0
0,35,122,16
0,42,65,0
0,34,96,0
0,67,63,0
0,70,62,0
0,74,63,0
0,55,106,0
0,65,121,0
0,35,115,16
0,42,65,0
0,36,98,0
0,67,71,0
0,72,69,0
0,76,63,0
0,64,84,0
0,48,110,0
0,72,86,0
0,76,87,0
0,64,119,0
0,42,64,16
0,67,62,0
0,72,65,0
0,76,68,0
0,67,118,0
0,42,69,16
0,67,68,0
0,72,67,0
0,76,71,0
0,60,114,0
0,37,121,32
0,42,70,0
0,54,84,0
0,31,100,0
0,67,62,0
0,72,66,0
0,76,64,0
0,60,62,0
0,64,65,0
0,67,59,0
0,48,114,0
0,42,68,20
0,67,67,0
0,72,67,0
0,76,63,0
0,50,115,0
0,42,71,56
0,67,70,0
0,72,68,0
0,76,63,0
0,52,111,0
0,35,113,28
0,42,63,0
0,29,95,0
0,69,71,0
0,72,65,0
0,76,67,0
0,60,85,0
0,64,84,0
0,53,109,0
0,69,84,0
0,72,90,0
0,76,88,0
0,42,63,56
0,69,67,0
0,72,65,0
0,76,69,0
0,42,65,48
0,42,71,92
0,69,62,0
0,72,63,0
0,76,62,0
0,60,116,0
0,37,113,144
0,42,63,0
0,54,87,0
0,69,64,0
0,72,67,0
0,76,68,0
0,60,65,0
0,65,62,0
0,69,60,0
0,42,66,28
0,29,94,0
0,69,65,0
0,72,70,0
0,76,65,0
0,69,115,0
0,35,120,16
0,42,63,0
0,33,97,0
0,69,66,0
0,72,65,0
0,76,66,0
0,53,114,0
0,67,113,0
0,35,119,16
0,42,71,0
0,38,100,0
0,65,68,0
0,69,67,0
0,72,70,0
0,74,63,0
0,62,81,0
0,65,84,0
0,50,114,0
0,65,88,0
0,69,83,0
0,74,89,0
0,65,119,0
0,42,68,16
0,65,68,0
0,69,71,0
0,74,65,0
0,67,120,0
0,46,94,16
0,65,69,0
0,69,68,0
0,74,64,0
0,69,115,0
0,37,117,32
0,42,63,0
0,54,82,0
0,33,99,0
0,65,70,0
0,69,67,0
0,74,63,0
0,62,58,0
0,65,63,0
0,69,61,0
0,50,108,0
0,42,67,20
0,65,63,0
0,69,64,0
0,74,65,0
0,52,111,0
0,42,71,56
0,65,71,0
0,69,66,0
0,74,70,0
0,53,114,0
0,35,116,28
0,42,66,0
0,31,98,0
0,67,69,0
0,70,67,0
0,74,67,0
0,62,87,0
0,65,89,0
0,55,110,0
0,67,86,0
0,70,88,0
0,74,85,0
0,42,70,56
0,67,66,0
0,70,63,0
0,74,63,0
0,42,67,48
0,42,70,92
0,67,70,0
0,70,62,0
0,74,70,0
0,62,114,0
0,37,119,144
0,42,66,0
0,54,81,0
0,67,67,0
0,70,70,0
0,74,62,0
0,62,64,0
0,67,59,0
0,70,64,0
0,42,63,28
0,31,103,0
0,67,65,0
0,70,65,0
0,74,70,0
0,67,121,0
0,35,121,16
0,42,63,0
0,34,102,0
0,67,63,0
0,70,64,0
0,74,62,0
0,55,107,0
0,65,120,0
0,35,116,16
0,42,68,0
0,36,102,0
0,64,66,0
0,67,68,0
0,72,67,0
0,60,87,0
0,64,89,0
0,48,115,0
0,72,83,0
0,76,92,0
0,64,119,0
0,42,66,16
0,64,69,0
0,67,64,0
0,72,62,0
0,67,113,0
0,46,97,16
0,64,64,0
0,67,63,0
0,72,63,0
0,60,116,0
0,37,117,32
0,42,66,0
0,54,82,0
0,34,100,0
0,64,62,0
0,67,64,0
0,70,66,0
0,60,56,0
0,64,60,0
0,67,57,0
0,72,63,0
0,42,67,20
0,50,92,0
0,64,66,0
0,67,66,0
0,70,66,0
0,72,66,20
0,74,68,20
0,42,67,8
0,47,93,0
0,64,69,0
0,67,65,0
0,70,65,0
0,76,72,20
0,77,69,4
0,79,72,10
0,81,65,8
0,83,68,8
0,35,121,4
0,51,67,0
0,31,95,0
0,62,66,0
0,67,63,0
0,70,63,0
0,84,72,0
0,58,82,0
0,62,80,0
0,67,85,0
0,70,89,0
0,74,88,0
0,51,67,144
0,62,66,0
0,67,66,0
0,70,62,0
0,51,69,144
0,62,62,0
0,67,70,0
0,70,66,0
0,58,118,0
0,38,119,144
0,51,71,0
0,54,84,0
0,62,64,0
0,67,71,0
0,70,62,0
0,51,74,28
0,62,64,0
0,67,65,0
0,70,62,0
0,62,119,0
0,35,121,16
0,51,67,0
0,34,94,0
0,62,65,0
0,67,65,0
0,70,62,0
0,65,122,0
0,35,121,0
0,51,65,0
0,36,97,0
0,64,65,0
0,67,69,0
0,72,66,0
0,60,83,0
0,64,86,0
0,64,91,0
0,67,87,0
0,72,92,0
0,51,71,28
0,64,66,0
0,67,66,0
0,72,66,0
0,64,116,0
0,51,72,16
0,64,70,0
0,67,63,0
0,72,70,0
0,60,119,0
0,38,120,24
0,51,73,0
0,54,87,0
0,34,102,0
0,64,64,0
0,67,71,0
0,72,66,0
0,81,69,0
0,67,70,113
0,51,67,20
0,69,62,0
0,70,66,111
0,51,65,33
0,67,66,0
0,72,63,0
0,35,116,0
0,51,74,0
0,31,97,0
0,67,70,0
0,70,71,0
0,74,63,0
0,79,63,0
0,62,87,0
0,65,87,0
0,70,86,0
0,74,90,0
0,77,85,0
0,58,114,0
0,51,70,144
0,67,64,0
0,70,70,0
0,74,70,0
0,51,67,144
0,67,69,0
0,70,65,0
0,74,68,0
0,38,117,144
0,51,68,0
0,54,80,0
0,67,65,0
0,70,66,0
0,74,67,0
0,51,73,28
0,33,102,0
0,67,67,0
0,70,71,0
0,74,65,0
0,62,122,0
0,35,119,16
0,51,70,0
0,34,94,0
0,67,68,0
0,70,69,0
0,74,63,0
0,65,114,0
0,35,114,16
0,51,73,0
0,36,99,0
0,67,63,0
0,72,65,0
0,76,63,0
0,60,89,0
0,64,82,0
0,67,85,0
0,72,83,0
0,76,92,0
0,64,118,0
0,51,70,144
0,67,64,0
0,72,66,0
0,76,64,0
0,51,73,144
0,67,64,0
0,72,71,0
0,76,71,0
0,38,118,24
0,51,72,0
0,54,84,0
0,34,102,0
0,67,71,0
0,72,65,0
0,76,70,0
0,72,72,0
0,48,110,0
0,64,113,0
0,51,71,16
0,67,63,0
0,72,70,0
0,76,66,0
0,50,115,0
0,65,122,0
0,51,72,16
0,67,67,0
0,72,66,0
0,76,71,0
0,52,113,0
0,67,116,0
0,35,121,16
0,51,74,0
0,33,98,0
0,69,64,0
0,72,64,0
0,76,67,0
0,84,68,0
0,60,89,0
0,64,88,0
0,52,110,0
0,69,92,0
0,72,85,0
0,76,88,0
0,51,73,144
0,69,66,0
0,72,66,0
0,76,69,0
0,51,67,144
0,69,62,0
0,72,70,0
0,76,64,0
0,38,113,28
0,51,69,0
0,54,82,0
0,69,64,0
0,72,62,0
0,76,64,0
0,69,121,0
0,51,70,32
0,33,94,0
0,69,67,0
0,72,68,0
0,76,71,0
0,35,113,20
0,51,72,0
0,36,101,0
0,69,67,0
0,72,67,0
0,76,63,0
0,35,118,20
0,51,66,0
0,38,98,0
0,69,70,0
0,74,63,0
0,77,62,0
0,89,69,0
0,62,88,0
0,65,89,0
0,50,110,0
0,74,92,0
0,77,86,0
0,51,69,120
0,69,71,0
0,74,63,0
0,77,69,0
0,51,68,16
0,69,68,0
0,74,65,0
0,77,69,0
0,88,69,0
0,38,118,16
0,51,74,0
0,54,84,0
0,33,99,0
0,69,69,0
0,74,64,0
0,77,68,0
0,86,68,0
0,50,114,0
0,51,74,28
0,69,62,0
0,74,66,0
0,77,62,0
0,84,65,0
0,52,112,0
0,67,116,0
0,51,74,16
0,69,71,0
0,74,69,0
0,77,69,0
0,81,72,0
0,53,113,0
0,65,116,0
0,82,69,16
0,79,64,37
0,35,121,16
0,51,67,0
0,31,101,0
0,70,69,0
0,74,63,0
0,77,62,0
0,77,71,0
0,65,81,0
0,69,82,0
0,55,107,0
0,67,90,0
0,70,92,0
0,74,84,0
0,67,115,0
0,51,70,132
0,51,69,20
0,51,66,28
0,65,118,0
0,38,118,188
0,51,73,0
0,54,86,0
0,51,67,0
0,31,99,0
0,70,64,0
0,74,67,0
0,77,71,0
0,82,66,0
0,65,84,0
0,35,118,0
0,51,72,0
0,34,102,0
0,70,63,0
0,74,67,0
0,77,66,0
0,86,70,0
0,69,82,0
0,55,108,0
0,35,113,0
0,51,65,0
0,36,97,0
0,70,68,0
0,72,64,0
0,76,68,0
0,72,64,0
