track,note,velocity,time
0,36,109,444
0,36,119,124
0,44,65,220
0,40,57,0
0,46,69,4
0,48,78,8
0,40,74,8
0,49,73,12
0,40,101,4
0,51,76,0
0,40,122,4
0,53,73,0
0,54,70,8
0,56,74,12
0,58,63,12
0,60,61,12
0,61,59,12
0,63,76,12
0,65,74,8
0,36,109,40
0,66,76,0
0,69,68,0
0,73,82,0
0,69,92,0
0,73,84,0
0,90,84,0
0,73,108,0
0,69,114,0
0,49,95,0
0,66,73,12
0,38,110,28
0,42,74,28
0,54,52,0
0,42,79,16
0,38,122,0
0,66,120,0
0,40,103,16
0,42,90,0
0,38,110,0
0,66,71,0
0,69,86,0
0,73,77,0
0,69,93,0
0,73,92,0
0,66,112,0
0,36,72,16
0,42,89,0
0,54,66,0
0,38,119,0
0,66,121,0
0,36,114,16
0,42,79,0
0,54,52,0
0,38,121,0
0,66,86,0
0,69,82,0
0,73,86,0
0,69,97,0
0,73,88,0
0,66,119,0
0,42,92,16
0,38,113,0
0,66,84,0
0,69,80,0
0,73,69,0
0,69,97,0
0,73,92,0
0,66,125,0
0,40,103,16
0,42,93,0
0,38,105,0
0,93,86,0
0,69,109,0
0,42,85,16
0,54,62,0
0,35,110,0
0,66,79,0
0,71,79,0
0,74,73,0
0,71,79,0
0,74,89,0
0,90,82,0
0,69,110,0
0,36,112,20
0,42,89,0
0,54,48,0
0,35,122,0
0,78,114,0
0,42,91,44
0,35,108,0
0,40,103,44
0,42,92,0
0,35,115,0
0,66,82,0
0,71,85,0
0,74,78,0
0,71,80,0
0,74,97,0
0,76,114,0
0,36,72,44
0,42,79,0
0,54,55,0
0,35,124,0
0,36,112,16
0,42,81,0
0,54,57,0
0,35,120,0
0,66,76,0
0,71,78,0
0,74,78,0
0,71,86,0
0,74,84,0
0,74,106,0
0,42,85,12
0,35,112,0
0,66,80,0
0,71,71,0
0,74,75,0
0,71,91,0
0,74,96,0
0,76,101,0
0,66,125,0
0,40,103,12
0,42,81,0
0,35,110,0
0,93,87,0
0,42,79,16
0,54,66,0
0,35,109,0
0,66,82,0
0,69,68,0
0,73,82,0
0,69,98,0
0,73,82,0
0,69,124,0
0,73,108,3
0,90,84,7
0,36,115,44
0,42,93,0
0,54,58,0
0,33,114,0
0,42,85,44
0,33,119,0
0,40,103,44
0,42,85,0
0,33,111,0
0,66,80,0
0,69,68,0
0,73,81,0
0,69,83,0
0,73,98,0
0,36,72,44
0,42,91,0
0,54,50,0
0,33,124,0
0,69,116,0
0,36,118,16
0,42,90,0
0,54,52,0
0,33,124,0
0,66,72,0
0,69,74,0
0,73,76,0
0,69,93,0
0,73,84,0
0,66,112,0
0,42,78,44
0,33,107,0
0,66,78,0
0,69,67,0
0,73,86,0
0,69,92,0
0,73,79,0
0,40,103,16
0,42,81,0
0,30,122,0
0,93,93,0
0,69,122,0
0,42,81,16
0,54,53,0
0,31,110,0
0,66,68,0
0,71,75,0
0,74,80,0
0,71,93,0
0,74,97,0
0,86,82,0
0,62,117,0
0,36,115,29
0,42,90,0
0,57,95,0
0,54,65,0
0,78,111,0
0,42,78,44
0,31,115,0
0,40,103,44
0,42,88,0
0,33,120,0
0,66,74,0
0,71,81,0
0,74,85,0
0,71,95,0
0,74,79,0
0,76,111,0
0,36,84,44
0,42,89,0
0,54,62,0
0,33,110,0
0,36,116,44
0,42,77,0
0,54,54,0
0,35,111,0
0,66,82,0
0,71,81,0
0,74,71,0
0,71,81,0
0,74,83,0
0,74,106,0
0,40,75,116
0,40,98,4
0,42,87,12
0,35,114,0
0,66,84,0
0,71,79,0
0,74,68,0
0,71,96,0
0,74,90,0
0,76,101,0
0,40,112,36
0,40,123,4
0,42,85,0
0,37,113,0
0,38,118,28
0,90,83,0
0,42,82,64
0,54,62,0
0,66,82,0
0,69,69,0
0,73,72,0
0,69,94,0
0,73,85,0
0,73,114,0
0,69,121,0
0,36,117,124
0,42,74,0
0,49,95,0
0,54,59,0
0,42,91,16
0,38,110,0
0,66,121,0
0,40,103,16
0,42,78,0
0,38,123,0
0,66,85,0
0,69,68,0
0,73,78,0
0,69,95,0
0,73,93,0
0,66,106,0
0,36,72,16
0,42,77,0
0,54,53,0
0,38,118,0
0,66,107,0
0,36,114,16
0,42,93,0
0,54,48,0
0,38,116,0
0,66,78,0
0,69,85,0
0,73,75,0
0,69,88,0
0,73,95,0
0,66,112,0
0,42,84,16
0,38,123,0
0,66,72,0
0,69,83,0
0,73,79,0
0,69,97,0
0,73,80,0
0,66,111,0
0,40,103,16
0,42,90,0
0,38,110,0
0,93,81,0
0,69,116,0
0,42,87,28
0,54,49,0
0,35,123,0
0,66,70,0
0,71,77,0
0,74,82,0
0,71,92,0
0,74,90,0
0,90,97,0
0,36,112,16
0,42,74,0
0,54,60,0
0,35,111,0
0,78,114,0
0,69,113,0
0,42,80,44
0,35,107,0
0,40,104,44
0,42,74,0
0,35,112,0
0,66,79,0
0,71,70,0
0,74,83,0
0,71,82,0
0,74,86,0
0,76,117,0
0,36,72,44
0,42,90,0
0,54,54,0
0,35,108,0
0,36,112,44
0,42,84,0
0,54,50,0
0,35,105,0
0,66,79,0
0,71,72,0
0,74,82,0
0,71,98,0
0,74,94,0
0,74,114,0
0,42,93,44
0,35,117,0
0,66,67,0
0,71,83,0
0,74,70,0
0,71,86,0
0,74,85,0
0,76,103,0
0,40,104,28
0,42,76,0
0,35,109,0
0,93,88,0
0,42,88,28
0,54,51,0
0,35,114,0
0,66,68,0
0,69,80,0
0,73,81,0
0,69,85,0
0,73,92,0
0,90,86,0
0,73,111,0
0,66,124,0
0,36,115,16
0,42,88,0
0,54,48,0
0,33,109,0
0,69,123,0
0,42,82,44
0,33,112,0
0,69,108,0
0,40,104,44
0,42,93,0
0,33,106,0
0,66,83,0
0,69,72,0
0,73,71,0
0,69,82,0
0,73,89,0
0,36,72,44
0,42,84,0
0,54,61,0
0,33,106,0
0,69,123,0
0,36,118,16
0,42,77,0
0,54,51,0
0,33,120,0
0,66,70,0
0,69,83,0
0,73,77,0
0,69,87,0
0,73,91,0
0,66,121,0
0,42,74,44
0,33,117,0
0,66,70,0
0,69,73,0
0,73,83,0
0,69,97,0
0,73,85,0
0,40,104,16
0,42,91,0
0,30,111,0
0,93,97,0
0,69,122,0
0,42,93,16
0,57,95,0
0,54,53,0
0,31,115,0
0,66,73,0
0,71,74,0
0,74,67,0
0,71,88,0
0,74,84,0
0,86,98,0
0,62,110,0
0,36,115,84
0,42,90,0
0,54,58,0
0,78,117,0
0,42,88,44
0,31,119,0
0,40,104,44
0,42,93,0
0,33,119,0
0,66,68,0
0,71,73,0
0,74,83,0
0,71,92,0
0,74,97,0
0,76,108,0
0,36,72,44
0,42,87,0
0,54,47,0
0,33,107,0
0,36,116,44
0,42,91,0
0,54,53,0
0,35,115,0
0,66,71,0
0,71,72,0
0,74,81,0
0,71,93,0
0,74,82,0
0,74,101,0
0,40,97,116
0,40,102,28
0,42,78,12
0,35,120,0
0,66,69,0
0,71,82,0
0,74,85,0
0,71,89,0
0,74,94,0
0,76,114,0
0,40,122,36
0,42,83,4
0,37,123,0
0,42,75,40
0,49,95,0
0,54,60,0
0,37,107,0
0,36,102,16
0,54,50,0
0,38,124,0
0,66,73,0
0,69,74,0
0,74,77,0
0,57,76,0
0,62,73,0
0,62,87,0
0,69,97,0
0,74,88,0
0,54,62,44
0,38,119,0
0,69,118,0
0,44,81,16
0,35,113,0
0,66,78,0
0,69,75,0
0,74,76,0
0,57,75,0
0,59,64,0
0,59,87,0
0,69,96,0
0,74,88,0
0,69,113,64
0,36,62,16
0,54,59,0
0,35,107,0
0,36,104,44
0,54,55,0
0,33,120,0
0,66,78,0
0,69,76,0
0,74,69,0
0,57,68,0
0,57,82,0
0,69,85,0
0,74,84,0
0,69,109,0
0,54,47,44
0,35,110,0
0,66,84,0
0,69,84,0
0,74,73,0
0,57,76,0
0,59,67,0
0,59,98,0
0,69,93,0
0,74,80,0
0,44,93,16
0,54,56,44
0,37,122,0
0,64,76,0
0,69,83,0
0,73,84,0
0,52,59,0
0,61,78,0
0,61,94,0
0,64,87,0
0,69,88,0
0,73,93,0
0,66,119,0
0,36,102,16
0,54,57,0
0,69,116,0
0,54,59,44
0,37,114,0
0,44,88,16
0,35,111,0
0,64,73,0
0,69,80,0
0,73,80,0
0,52,72,0
0,59,78,0
0,59,99,0
0,64,87,0
0,69,89,0
0,73,97,0
0,62,108,0
0,74,118,0
0,69,109,0
0,36,62,44
0,54,66,0
0,35,108,0
0,69,113,0
0,36,102,12
0,54,52,0
0,33,121,0
0,64,84,0
0,69,73,0
0,73,81,0
0,52,63,0
0,57,59,0
0,57,81,0
0,64,98,0
0,69,81,0
0,73,92,0
0,61,121,0
0,73,115,0
0,71,109,0
0,54,65,44
0,35,114,0
0,64,71,0
0,69,80,0
0,73,71,0
0,52,75,0
0,59,67,0
0,59,85,0
0,64,83,0
0,69,89,0
0,73,90,0
0,44,85,12
0,59,123,0
0,71,114,0
0,54,62,16
0,36,115,0
0,64,74,0
0,69,85,0
0,72,73,0
0,52,65,0
0,60,77,0
0,60,83,0
0,64,80,0
0,69,90,0
0,72,82,0
0,36,105,12
0,54,49,0
0,60,124,0
0,72,116,0
0,54,58,44
0,36,111,0
0,69,120,0
0,44,87,44
0,35,120,0
0,64,83,0
0,69,72,0
0,72,86,0
0,52,72,0
0,59,60,0
0,59,82,0
0,64,91,0
0,69,86,0
0,72,81,0
0,36,62,16
0,54,64,0
0,35,122,0
0,69,124,0
0,36,108,16
0,54,52,0
0,33,110,0
0,64,67,0
0,69,75,0
0,72,77,0
0,52,72,0
0,57,70,0
0,57,97,0
0,64,96,0
0,69,81,0
0,72,95,0
0,69,111,0
0,54,66,16
0,35,117,0
0,64,82,0
0,69,70,0
0,72,82,0
0,52,75,0
0,59,71,0
0,59,99,0
0,64,89,0
0,69,81,0
0,72,85,0
0,67,118,0
0,44,92,0
0,54,48,44
0,31,124,0
0,62,81,0
0,67,81,0
0,71,70,0
0,55,76,0
0,59,76,0
0,55,92,0
0,62,85,0
0,67,95,0
0,71,84,0
0,66,122,0
0,36,105,16
0,54,49,0
0,64,121,0
0,54,50,44
0,31,105,0
0,44,91,16
0,31,115,0
0,62,70,0
0,67,86,0
0,71,86,0
0,55,62,0
0,64,63,0
0,64,81,0
0,62,84,0
0,67,85,0
0,71,84,0
0,66,106,0
0,36,62,44
0,54,50,0
0,31,110,0
0,62,122,0
0,36,106,44
0,54,65,0
0,31,109,0
0,62,80,0
0,67,86,0
0,71,84,0
0,55,73,0
0,64,59,0
0,64,87,0
0,62,84,0
0,67,96,0
0,71,90,0
0,54,57,44
0,33,123,0
0,62,82,0
0,67,72,0
0,71,86,0
0,55,61,0
0,62,60,0
0,62,89,0
0,62,92,0
0,67,92,0
0,71,84,0
0,44,85,44
0,35,113,0
0,54,61,44
0,38,115,0
0,66,70,0
0,69,73,0
0,74,85,0
0,54,71,0
0,62,63,0
0,62,95,0
0,69,86,0
0,74,94,0
0,36,102,16
0,54,58,0
0,54,55,44
0,38,124,0
0,66,114,0
0,44,81,44
0,35,117,0
0,66,78,0
0,69,77,0
0,74,70,0
0,54,61,0
0,59,64,0
0,59,83,0
0,69,97,0
0,74,93,0
0,69,107,32
0,36,62,16
0,54,66,0
0,35,123,0
0,66,106,0
0,36,104,16
0,54,51,0
0,33,110,0
0,66,82,0
0,69,80,0
0,74,82,0
0,54,72,0
0,57,64,0
0,57,97,0
0,69,91,0
0,74,91,0
0,69,122,0
0,54,49,44
0,35,119,0
0,66,79,0
0,69,71,0
0,74,76,0
0,54,71,0
0,59,66,0
0,59,93,0
0,69,97,0
0,74,84,0
0,44,86,16
0,54,55,44
0,37,105,0
0,64,84,0
0,69,85,0
0,73,71,0
0,52,63,0
0,61,78,0
0,61,94,0
0,64,92,0
0,69,86,0
0,73,86,0
0,66,125,0
0,36,102,16
0,54,51,0
0,64,108,0
0,54,65,44
0,37,112,0
0,44,78,16
0,35,106,0
0,64,83,0
0,69,68,0
0,73,83,0
0,52,70,0
0,59,71,0
0,59,88,0
0,64,83,0
0,69,82,0
0,73,94,0
0,62,108,0
0,74,114,0
0,69,106,0
0,36,62,44
0,54,59,0
0,35,115,0
0,69,115,0
0,36,102,12
0,54,59,0
0,33,114,0
0,64,81,0
0,69,86,0
0,73,74,0
0,52,74,0
0,57,71,0
0,57,84,0
0,64,96,0
0,69,86,0
0,73,83,0
0,61,119,0
0,73,117,0
0,54,57,16
0,35,121,0
0,64,68,0
0,69,79,0
0,73,83,0
0,52,64,0
0,59,66,0
0,59,90,0
0,64,89,0
0,69,95,0
0,73,96,0
0,69,119,0
0,44,78,12
0,59,117,0
0,71,108,0
0,54,62,16
0,36,119,0
0,64,75,0
0,69,85,0
0,72,80,0
0,52,60,0
0,60,61,0
0,60,98,0
0,64,90,0
0,69,93,0
0,72,96,0
0,36,105,12
0,54,48,0
0,60,123,0
0,72,111,0
0,54,59,44
0,36,105,0
0,69,114,0
0,44,79,44
0,35,116,0
0,64,79,0
0,69,71,0
0,72,68,0
0,52,59,0
0,59,62,0
0,59,81,0
0,64,91,0
0,69,97,0
0,72,89,0
0,36,62,16
0,54,62,0
0,35,119,0
0,67,114,0
0,36,108,16
0,54,61,0
0,33,113,0
0,64,70,0
0,69,81,0
0,72,81,0
0,52,63,0
0,57,63,0
0,57,81,0
0,64,91,0
0,69,90,0
0,72,87,0
0,67,119,0
0,54,65,16
0,35,113,0
0,64,74,0
0,69,85,0
0,72,81,0
0,52,78,0
0,59,64,0
0,59,87,0
0,64,82,0
0,69,84,0
0,72,83,0
0,66,125,0
0,44,92,0
0,54,56,44
0,31,120,0
0,62,78,0
0,67,80,0
0,71,74,0
0,50,78,0
0,55,71,0
0,55,100,0
0,62,98,0
0,67,86,0
0,71,95,0
0,64,120,0
0,36,105,16
0,54,59,0
0,64,110,0
0,54,62,44
0,31,123,0
0,44,91,16
0,31,122,0
0,62,76,0
0,67,81,0
0,71,77,0
0,55,67,0
0,64,60,0
0,64,89,0
0,62,80,0
0,67,89,0
0,71,95,0
0,66,116,0
0,36,62,44
0,54,63,0
0,31,122,0
0,62,124,0
0,36,106,44
0,54,53,0
0,31,120,0
0,62,75,0
0,67,75,0
0,71,84,0
0,55,69,0
0,64,61,0
0,64,81,0
0,62,92,0
0,67,98,0
0,71,81,0
0,54,55,44
0,33,106,0
0,62,84,0
0,67,70,0
0,71,78,0
0,55,69,0
0,62,73,0
0,62,81,0
0,62,91,0
0,67,94,0
0,71,85,0
0,44,77,44
0,35,108,0
0,54,62,44
0,38,107,0
0,66,73,0
0,69,82,0
0,74,86,0
0,57,74,0
0,62,77,0
0,62,92,0
0,69,88,0
0,74,81,0
0,36,102,64
0,54,59,0
0,54,91,0
0,57,85,0
0,62,89,0
0,54,60,44
0,38,124,0
0,66,107,0
0,44,74,44
0,35,121,0
0,66,80,0
0,69,76,0
0,74,78,0
0,57,65,0
0,59,73,0
0,59,90,0
0,69,87,0
0,74,82,0
0,36,62,16
0,54,55,0
0,35,109,0
0,36,104,44
0,54,52,0
0,33,110,0
0,66,85,0
0,69,76,0
0,74,83,0
0,57,67,0
0,57,82,0
0,69,86,0
0,74,90,0
0,69,120,0
0,54,54,44
0,35,124,0
0,66,86,0
0,69,68,0
0,74,72,0
0,57,59,0
0,59,77,0
0,59,90,0
0,69,98,0
0,74,96,0
0,44,79,16
0,54,50,28
0,37,123,0
0,64,74,0
0,69,79,0
0,73,84,0
0,57,75,0
0,61,62,0
0,61,91,0
0,64,91,0
0,69,95,0
0,73,85,0
0,52,99,0
0,61,81,0
0,66,118,0
0,36,102,16
0,54,57,0
0,69,107,0
0,54,60,44
0,37,107,0
0,44,77,16
0,35,107,0
0,64,84,0
0,69,81,0
0,73,83,0
0,57,64,0
0,59,72,0
0,59,93,0
0,64,83,0
0,69,84,0
0,73,86,0
0,71,112,0
0,36,62,44
