track,note,velocity,time
0,65,107,384
0,69,102,0
0,60,107,0
0,67,105,0
0,65,101,0
0,64,100,16
0,62,101,16
0,64,109,16
0,61,100,0
0,67,103,0
0,61,108,0
0,64,100,0
0,69,109,16
0,67,104,0
0,65,102,208
0,69,102,0
0,62,100,0
0,62,105,0
0,65,108,16
0,72,107,0
0,69,105,0
0,72,101,8
0,77,109,0
0,67,102,0
0,70,101,0
0,69,108,0
0,64,104,0
0,67,107,0
0,70,107,0
0,64,108,0
0,60,103,0
0,67,105,0
0,65,104,0
0,62,101,0
0,69,100,0
0,65,107,0
0,69,100,0
0,65,102,0
0,72,101,0
0,69,103,0
0,67,105,0
0,36,100,48
0,41,92,0
0,36,102,0
0,58,93,0
0,62,97,0
0,65,95,0
0,58,69,0
0,62,69,0
0,53,70,0
0,36,101,400
0,41,90,0
0,36,103,0
0,58,95,0
0,62,97,0
0,65,93,0
0,58,73,0
0,62,74,0
0,53,71,0
0,77,94,0
0,77,118,0
0,77,99,16
0,77,113,0
0,76,99,16
0,76,111,0
0,74,94,16
0,74,110,0
0,72,97,16
0,72,111,0
0,40,101,96
0,40,106,16
0,72,93,0
0,72,112,0
0,42,95,92
0,70,72,0
0,29,106,0
0,67,91,0
0,57,98,0
0,60,98,0
0,72,75,0
0,81,68,0
0,79,72,0
0,70,74,92
0,42,81,16
0,70,71,0
0,79,70,0
0,81,72,0
0,72,75,0
0,70,74,16
0,79,68,0
0,81,69,0
0,72,75,0
0,36,102,92
0,42,91,0
0,70,71,0
0,70,79,16
0,79,74,0
0,72,75,0
0,81,75,0
0,42,88,16
0,70,71,0
0,79,68,0
0,81,66,0
0,72,72,0
0,70,79,16
0,72,69,0
0,81,67,0
0,79,70,0
0,42,90,16
0,70,70,0
0,65,90,0
0,60,99,0
0,57,93,0
0,72,75,0
0,81,68,0
0,77,67,0
0,70,70,16
0,72,69,0
0,81,72,0
0,77,75,0
0,42,86,16
0,70,77,0
0,70,71,16
0,72,73,0
0,81,70,0
0,77,70,0
0,36,108,16
0,42,94,0
0,70,79,0
0,72,72,0
0,81,73,0
0,77,74,0
0,70,75,16
0,29,109,0
0,69,116,0
0,42,89,16
0,70,76,0
0,36,101,0
0,69,118,0
0,70,71,16
0,37,104,0
0,69,114,0
0,42,96,16
0,70,78,0
0,38,108,0
0,60,90,0
0,67,91,0
0,57,97,0
0,81,66,0
0,79,66,0
0,72,69,0
0,74,112,0
0,70,73,92
0,42,87,16
0,70,76,0
0,79,67,0
0,72,75,0
0,81,71,0
0,74,114,0
0,70,79,16
0,79,72,0
0,81,68,0
0,72,69,0
0,74,115,0
0,36,107,92
0,42,93,0
0,70,75,0
0,70,75,16
0,79,69,0
0,81,72,0
0,72,66,0
0,42,86,16
0,70,72,0
0,26,103,0
0,66,96,0
0,60,98,0
0,57,97,0
0,81,73,0
0,79,66,0
0,72,70,0
0,75,115,0
0,70,76,16
0,81,69,0
0,72,67,0
0,79,69,0
0,74,121,0
0,42,90,16
0,70,77,0
0,81,73,0
0,78,69,0
0,72,71,0
0,70,74,16
0,81,69,0
0,78,72,0
0,72,69,0
0,42,85,16
0,70,70,0
0,75,112,0
0,70,77,16
0,81,70,0
0,78,75,0
0,72,72,0
0,36,101,16
0,42,90,0
0,70,70,0
0,81,75,0
0,78,72,0
0,72,70,0
0,74,119,0
0,70,78,92
0,42,81,16
0,70,72,0
0,72,120,0
0,70,71,92
0,42,94,16
0,70,79,0
0,31,100,0
0,58,92,0
0,62,96,0
0,67,93,0
0,70,73,0
0,74,72,0
0,79,71,0
0,70,113,0
0,70,76,92
0,42,80,16
0,70,75,0
0,70,74,0
0,74,66,0
0,79,66,0
0,70,77,16
0,74,68,0
0,70,70,0
0,79,70,0
0,36,104,92
0,42,96,0
0,70,70,0
0,70,79,16
0,70,67,0
0,74,70,0
0,79,70,0
0,42,89,16
0,70,76,0
0,31,105,0
0,65,95,0
0,58,97,0
0,62,97,0
0,74,71,0
0,70,70,0
0,79,74,0
0,70,73,16
0,74,67,0
0,79,75,0
0,70,73,0
0,42,96,16
0,70,70,0
0,70,75,0
0,74,75,0
0,79,75,0
0,70,77,16
0,79,71,0
0,70,72,0
0,74,68,0
0,42,84,92
0,70,79,0
0,70,73,16
0,74,75,0
0,79,74,0
0,70,72,0
0,36,104,16
0,42,96,0
0,70,77,0
0,70,74,0
0,74,71,0
0,79,69,0
0,70,77,92
0,42,80,16
0,70,73,0
0,72,110,0
0,70,70,16
0,72,117,0
0,42,91,16
0,70,79,0
0,36,102,0
0,65,92,0
0,58,97,0
0,55,94,0
0,70,71,0
0,79,74,0
0,77,74,0
0,72,121,0
0,70,76,92
0,42,87,16
0,70,70,0
0,70,66,0
0,79,69,0
0,77,72,0
0,72,116,0
0,70,72,16
0,77,73,0
0,70,69,0
0,79,75,0
0,72,110,0
0,36,102,92
0,42,97,0
0,70,79,0
0,70,71,16
0,70,68,0
0,77,66,0
0,79,70,0
0,42,80,16
0,70,73,0
0,24,106,0
0,58,95,0
0,55,95,0
0,64,91,0
0,77,69,0
0,70,68,0
0,79,66,0
0,74,120,0
0,70,79,16
0,77,70,0
0,70,74,0
0,79,68,0
0,72,117,0
0,42,96,16
0,70,78,0
0,70,66,0
0,76,66,0
0,79,75,0
0,70,79,16
0,76,73,0
0,70,71,0
0,79,69,0
0,42,80,16
0,70,79,0
0,74,119,0
0,70,72,16
0,70,75,0
0,76,68,0
0,79,68,0
0,36,109,16
0,42,92,0
0,70,77,0
0,76,72,0
0,79,69,0
0,70,67,0
0,72,117,0
0,70,72,92
0,42,85,16
0,70,75,0
0,70,115,0
0,70,76,16
0,69,115,0
0,42,91,16
0,70,72,0
0,29,107,0
0,60,90,0
0,65,90,0
0,57,90,0
0,77,66,0
0,72,66,0
0,81,71,0
0,60,93,0
0,69,115,0
0,70,72,92
0,42,81,16
0,70,78,0
0,77,73,0
0,81,66,0
0,72,74,0
0,70,75,16
0,77,70,0
0,81,74,0
0,72,67,0
0,36,104,92
0,42,91,0
0,70,71,0
0,70,71,16
0,77,69,0
0,81,70,0
0,72,66,0
0,42,84,16
0,70,76,0
0,28,108,0
0,60,97,0
0,64,99,0
0,55,92,0
0,76,74,0
0,79,75,0
0,72,67,0
0,70,79,92
0,42,97,16
0,70,79,0
0,79,69,0
0,76,67,0
0,72,69,0
0,69,120,0
0,70,79,16
0,76,67,0
0,79,71,0
0,72,75,0
0,42,88,16
0,70,72,0
0,70,113,0
0,70,73,16
0,79,68,0
0,76,69,0
0,72,68,0
0,72,110,0
0,36,100,16
0,42,90,0
0,70,74,0
0,76,67,0
0,79,75,0
0,72,74,0
0,70,72,16
0,79,114,0
0,42,83,16
0,70,73,0
0,70,72,16
0,77,111,0
0,42,91,16
0,70,79,0
0,27,108,0
0,60,90,0
0,63,99,0
0,57,91,0
0,75,68,0
0,72,74,0
0,81,72,0
0,77,110,0
0,70,73,92
0,42,89,16
0,70,75,0
0,75,69,0
0,81,71,0
0,72,75,0
0,70,74,16
0,75,68,0
0,81,66,0
0,72,70,0
0,36,106,16
0,42,91,0
0,70,76,0
0,70,76,16
0,75,72,0
0,81,75,0
0,72,73,0
0,42,85,16
0,70,71,0
0,26,103,0
0,58,97,0
0,62,97,0
0,53,91,0
0,77,66,0
0,82,75,0
0,74,70,0
0,62,96,0
0,70,75,16
0,82,69,0
0,77,66,0
0,74,75,0
0,74,111,0
0,42,95,16
0,70,77,0
0,77,71,0
0,82,74,0
0,74,68,0
0,77,119,0
0,70,74,16
0,82,71,0
0,77,71,0
0,74,69,0
0,42,85,16
0,70,77,0
0,79,119,0
0,70,74,16
0,77,67,0
0,82,74,0
0,74,67,0
0,36,100,16
0,42,91,0
0,70,70,0
0,77,74,0
0,82,67,0
0,74,71,0
0,81,116,0
0,70,71,92
0,42,81,16
0,70,77,0
0,77,116,0
0,70,71,92
0,42,97,16
0,70,79,0
0,25,103,0
0,58,92,0
0,61,97,0
0,53,91,0
0,82,74,0
0,77,73,0
0,73,70,0
0,61,92,0
0,70,73,92
0,42,86,16
0,70,74,0
0,82,73,0
0,77,71,0
0,73,72,0
0,70,75,16
0,82,71,0
0,77,74,0
0,73,71,0
0,36,101,92
0,42,95,0
0,70,78,0
0,70,71,16
0,77,73,0
0,82,75,0
0,73,75,0
0,42,84,16
0,70,73,0
0,24,108,0
0,57,92,0
0,60,98,0
0,53,90,0
0,77,66,0
0,81,68,0
0,72,66,0
0,60,97,0
0,70,78,16
0,81,74,0
0,77,75,0
0,72,75,0
0,42,99,16
0,70,76,0
0,77,68,0
0,81,72,0
0,72,67,0
0,77,117,0
0,70,76,16
0,77,69,0
0,81,71,0
0,72,73,0
0,77,118,0
0,42,82,92
0,70,71,0
0,70,78,16
0,77,69,0
0,81,73,0
0,72,66,0
0,77,118,0
0,36,106,16
0,42,92,0
0,70,74,0
0,77,66,0
0,81,70,0
0,72,71,0
0,70,74,16
0,72,112,0
0,42,86,16
0,70,76,0
0,72,113,0
0,70,70,92
0,42,96,16
0,70,78,0
0,24,102,0
0,58,93,0
0,62,97,0
0,65,92,0
0,74,66,0
0,70,70,0
0,77,68,0
0,70,74,92
0,42,85,16
0,70,77,0
0,70,68,0
0,74,74,0
0,77,70,0
0,70,71,16
0,74,70,0
0,77,68,0
0,70,74,0
0,36,105,16
0,42,98,0
0,70,70,0
0,57,99,0
0,70,76,16
0,74,71,0
0,70,66,0
0,77,74,0
0,42,88,16
0,70,76,0
0,24,101,0
0,62,93,0
0,58,95,0
0,65,97,0
0,74,69,0
0,70,66,0
0,77,67,0
0,70,75,16
0,74,75,0
0,70,68,0
0,77,71,0
0,65,118,0
0,42,95,16
0,70,74,0
0,77,67,0
0,74,74,0
0,70,72,0
0,55,93,0
0,77,92,0
0,65,120,0
0,70,78,16
0,77,66,0
0,74,70,0
0,70,72,0
0,42,88,16
0,70,79,0
0,76,98,0
0,64,120,0
0,70,79,16
0,74,74,0
0,77,72,0
0,70,68,0
0,74,95,0
0,62,111,0
0,36,102,16
0,42,92,0
0,70,72,0
0,77,75,0
0,74,70,0
0,70,72,0
0,45,90,16
0,70,79,0
0,76,94,0
0,62,117,0
0,40,100,16
0,42,88,0
0,70,76,0
0,64,113,0
0,40,106,16
0,70,77,0
0,72,92,0
0,36,109,16
0,42,92,0
0,70,70,0
0,41,104,0
0,67,94,0
0,60,97,0
0,57,99,0
0,72,68,0
0,81,70,0
0,79,70,0
0,60,114,0
0,70,76,92
0,42,88,16
0,70,71,0
0,41,101,0
0,79,70,0
0,81,72,0
0,72,73,0
0,70,73,16
0,79,72,0
0,81,66,0
0,72,75,0
0,40,105,16
0,42,92,0
0,70,73,0
0,41,107,0
0,70,72,16
0,41,105,0
0,79,68,0
0,72,75,0
0,81,74,0
0,42,81,16
0,70,78,0
0,41,105,0
0,79,68,0
0,81,75,0
0,72,73,0
0,70,72,16
0,72,68,0
0,81,75,0
0,79,73,0
0,36,105,16
0,42,99,0
0,70,79,0
0,41,101,0
0,60,94,0
0,65,90,0
0,57,93,0
0,72,68,0
0,81,75,0
0,77,71,0
0,70,78,16
0,72,70,0
0,81,71,0
0,77,71,0
0,42,82,16
0,70,73,0
0,41,104,0
0,70,75,16
0,41,106,0
0,72,69,0
0,81,72,0
0,77,74,0
0,40,101,16
0,42,93,0
0,70,79,0
0,45,102,0
0,72,75,0
0,81,69,0
0,77,69,0
0,70,77,92
0,57,117,0
0,42,87,16
0,70,73,0
0,48,109,0
0,57,114,0
0,70,75,16
0,57,114,0
0,36,109,16
0,42,98,0
0,70,74,0
0,50,108,0
0,60,95,0
0,67,97,0
0,57,99,0
0,72,69,0
0,79,75,0
0,81,67,0
0,62,116,0
0,70,77,92
0,42,83,16
0,70,72,0
0,50,100,0
0,79,70,0
0,72,66,0
0,81,70,0
0,62,113,0
0,70,70,16
0,79,69,0
0,81,72,0
0,72,74,0
0,62,114,0
0,40,105,16
0,42,95,0
0,70,74,0
0,50,105,0
0,70,75,16
0,79,72,0
0,81,75,0
0,72,69,0
0,62,111,0
0,42,81,16
0,70,79,0
0,50,104,0
0,60,98,0
0,66,91,0
0,57,94,0
0,79,70,0
0,81,69,0
0,72,70,0
0,70,72,16
0,81,71,0
0,72,67,0
0,79,73,0
0,62,121,0
0,36,102,16
0,42,94,0
0,70,76,0
0,50,102,0
0,81,70,0
0,78,73,0
0,72,73,0
0,70,72,16
0,78,71,0
0,81,69,0
0,72,69,0
0,63,110,0
0,42,85,16
0,70,72,0
0,50,101,0
0,70,74,16
0,81,75,0
0,78,68,0
0,72,73,0
0,62,119,0
0,40,104,16
0,42,94,0
0,70,76,0
0,45,103,0
0,78,70,0
0,81,66,0
0,72,68,0
0,70,72,92
0,42,83,16
0,70,76,0
0,45,108,0
0,60,113,0
0,70,77,16
0,58,119,0
0,36,102,16
0,42,97,0
0,70,71,0
0,43,106,0
0,62,98,0
0,67,90,0
0,58,90,0
0,70,67,0
0,74,70,0
0,79,75,0
0,60,121,0
0,70,73,16
0,58,116,0
0,42,87,16
0,70,74,0
0,43,105,0
0,70,67,0
0,74,67,0
0,79,71,0
0,70,78,16
0,74,69,0
0,70,67,0
0,79,71,0
0,40,107,16
0,42,93,0
0,70,70,0
0,43,100,0
0,70,70,16
0,70,70,0
0,74,72,0
0,79,72,0
0,42,86,16
0,70,72,0
0,43,106,0
0,62,98,0
0,58,96,0
0,65,94,0
0,74,69,0
0,70,73,0
0,79,75,0
0,70,75,16
0,74,73,0
0,79,74,0
0,70,66,0
0,36,101,16
0,42,93,0
0,70,77,0
0,43,102,0
0,70,74,0
0,74,72,0
0,79,69,0
0,70,74,16
0,79,73,0
0,70,69,0
0,74,67,0
0,60,120,0
0,42,87,16
0,70,73,0
0,43,108,0
0,60,117,0
0,70,71,16
0,74,75,0
0,79,73,0
0,70,74,0
0,40,104,16
0,42,99,0
0,70,74,0
0,46,101,0
0,70,69,0
0,74,70,0
0,79,74,0
0,60,120,0
0,70,77,92
0,42,82,16
0,70,75,0
0,46,100,0
0,62,116,0
0,70,71,16
0,60,114,0
0,36,101,16
0,42,96,0
0,70,76,0
0,48,106,0
0,65,99,0
0,58,98,0
0,55,91,0
0,79,67,0
0,77,70,0
0,70,75,0
0,70,74,92
0,42,89,16
0,70,76,0
0,48,106,0
0,70,73,0
0,79,68,0
0,77,70,0
0,62,115,0
0,70,79,16
0,79,75,0
0,77,73,0
0,70,66,0
0,60,121,0
0,40,104,16
0,42,99,0
0,70,73,0
0,48,109,0
0,70,78,16
0,77,67,0
0,79,74,0
0,70,73,0
0,42,86,16
0,70,71,0
0,48,103,0
0,58,97,0
0,64,97,0
0,55,90,0
0,79,66,0
0,70,68,0
0,77,66,0
0,70,79,16
0,79,68,0
0,77,67,0
0,70,74,0
0,57,115,0
0,36,109,16
0,42,91,0
0,70,71,0
0,48,105,0
0,76,66,0
0,70,75,0
0,79,74,0
0,60,121,0
0,70,75,16
0,76,70,0
0,79,72,0
0,70,73,0
0,60,121,0
0,42,84,16
0,70,71,0
0,48,107,0
0,70,78,16
0,79,71,0
0,70,70,0
0,76,72,0
0,60,111,0
0,40,104,16
0,42,91,0
0,70,77,0
0,50,103,0
0,76,70,0
0,79,71,0
0,70,67,0
0,70,73,92
0,40,107,16
0,42,87,0
0,70,77,0
0,50,107,0
0,58,113,0
0,40,107,16
0,70,73,0
0,57,115,0
0,36,108,16
0,42,93,0
0,70,73,0
0,41,106,0
0,60,93,0
0,65,92,0
0,57,97,0
0,69,68,0
0,77,75,0
0,72,71,0
0,72,94,0
0,77,92,0
0,57,120,0
0,70,72,92
0,42,85,16
0,70,78,0
0,41,105,0
0,69,67,0
0,72,66,0
0,77,72,0
0,81,92,0
0,70,76,16
0,69,69,0
0,72,67,0
0,77,71,0
0,40,105,16
0,42,92,0
0,70,73,0
0,41,109,0
0,84,98,0
0,70,79,16
0,69,74,0
0,77,72,0
0,72,68,0
0,42,81,16
0,70,76,0
