track,note,velocity,time
1,60,73,1690
1,57,73,24
1,60,73,192
1,62,73,160
1,62,73,168
1,58,73,768
1,62,73,188
1,64,73,186
1,60,73,132
1,63,73,0
1,64,73,0
1,57,73,12
1,60,73,0
1,60,73,8
1,64,73,0
1,62,73,192
1,65,73,0
1,68,73,32
1,62,73,50
1,69,73,0
1,67,73,0
1,58,73,384
1,65,73,0
1,62,73,16
1,60,73,16
1,64,73,0
1,65,73,382
1,67,73,16
1,60,73,386
1,65,73,0
1,57,73,88
1,60,73,72
1,62,73,174
1,62,73,300
1,58,73,16
1,62,73,8
1,64,73,192
1,60,73,234
1,64,73,0
1,57,73,0
1,60,73,0
1,60,73,0
1,64,73,0
1,62,73,10
1,65,73,0
1,62,73,128
1,65,73,0
1,58,73,24
1,62,73,0
1,62,73,12
1,65,73,0
1,60,73,28
1,64,73,0
1,58,73,144
1,62,73,0
1,60,73,44
1,64,73,2
1,58,73,54
1,62,73,0
1,60,73,44
1,64,73,0
1,60,73,74
1,64,73,2
1,62,73,56
1,65,73,0
1,64,73,160
1,68,73,0
1,65,73,56
1,69,73,0
1,62,73,8
1,65,73,0
1,65,73,0
1,69,73,0
1,64,73,38
1,67,73,0
1,60,73,16
1,64,73,2
1,58,73,28
1,62,73,2
1,60,73,12
1,65,73,2
1,57,73,90
1,60,73,74
1,62,73,170
1,62,73,298
1,58,73,18
1,62,73,8
1,64,73,192
1,60,73,234
1,64,73,0
1,57,73,2
1,60,73,0
1,60,73,0
1,64,73,0
1,62,73,10
1,65,73,0
1,62,73,128
1,65,73,0
1,58,73,26
1,62,73,0
1,62,73,12
1,65,73,0
1,64,73,28
1,67,73,0
1,58,73,142
1,62,73,0
1,60,73,46
1,64,73,0
1,60,73,562
1,64,73,0
1,63,73,360
1,59,73,4
1,58,73,12
1,62,73,0
1,60,73,46
1,64,73,0
1,57,73,76
1,55,73,46
1,62,73,104
1,65,73,2
1,60,73,64
1,65,73,2
1,63,73,158
1,65,73,2
1,63,73,102
1,65,73,2
1,63,73,288
1,65,73,0
1,63,73,120
1,65,73,0
1,58,73,96
1,62,73,0
1,60,73,56
1,64,73,0
1,60,73,64
1,65,73,0
1,60,73,106
1,65,73,2
1,60,73,142
1,65,73,2
1,58,73,144
1,62,73,0
1,60,73,16
1,64,73,0
1,60,73,80
1,65,73,0
1,60,73,74
1,65,73,2
1,60,73,110
1,65,73,2
1,59,73,114
1,63,73,0
1,60,73,52
1,64,73,0
1,59,73,14
1,63,73,0
1,59,73,74
1,63,73,2
1,61,73,34
1,59,73,20
1,63,73,0
1,60,73,28
1,64,73,2
1,62,73,20
1,66,73,2
1,62,73,24
1,67,73,2
1,59,73,88
1,62,73,72
1,64,73,1164
1,60,73,16
1,64,73,8
1,66,73,40
1,62,73,8
1,66,73,0
1,59,73,0
1,62,73,2
1,62,73,0
1,66,73,2
1,64,73,10
1,67,73,0
1,64,73,128
1,67,73,0
1,60,73,24
1,64,73,2
1,64,73,14
1,67,73,0
1,62,73,30
1,66,73,0
1,60,73,146
1,64,73,0
1,62,73,46
1,66,73,0
1,60,73,56
1,64,73,0
1,62,73,46
1,66,73,2
1,62,73,76
1,66,73,0
1,64,73,0
1,67,73,0
1,66,73,160
1,70,73,0
1,67,73,58
1,71,73,0
1,64,73,10
1,67,73,0
1,67,73,0
1,71,73,0
1,66,73,40
1,69,73,0
1,59,73,9618
1,62,73,2
1,55,73,14
1,59,73,2
1,59,73,4
1,62,73,2
1,59,73,14
1,64,73,0
1,66,73,136
1,70,73,0
1,67,73,0
1,71,73,0
1,64,73,0
1,67,73,0
1,67,73,8
1,71,73,0
1,66,73,16
1,69,73,0
1,62,73,56
1,64,73,18
1,66,73,192
1,59,73,50
1,62,73,0
1,67,73,2
1,55,73,16
1,59,73,0
1,59,73,4
1,62,73,2
1,59,73,16
1,64,73,0
1,66,73,136
1,70,73,0
1,67,73,2
1,71,73,0
1,64,73,0
1,67,73,0
1,67,73,10
1,71,73,0
1,66,73,14
1,69,73,0
1,62,73,56
1,64,73,18
1,66,73,192
1,59,73,50
1,62,73,0
1,55,73,14
1,59,73,2
1,59,73,6
1,62,73,2
1,59,73,14
1,64,73,2
1,66,73,136
1,70,73,0
1,67,73,0
1,71,73,0
1,64,73,0
1,67,73,0
1,67,73,8
1,71,73,2
1,66,73,14
1,69,73,0
1,62,73,56
1,64,73,18
1,66,73,192
1,59,73,50
1,62,73,0
1,55,73,14
1,59,73,2
1,59,73,6
1,62,73,2
1,59,73,14
1,64,73,2
1,66,73,136
1,70,73,0
1,67,73,0
1,71,73,0
1,64,73,0
1,67,73,0
1,67,73,10
1,71,73,0
1,66,73,14
1,69,73,0
1,62,73,56
1,64,73,18
1,66,73,192
1,59,73,50
1,62,73,0
1,55,73,14
1,59,73,2
1,59,73,4
1,62,73,2
1,59,73,14
1,64,73,0
1,66,73,136
1,70,73,0
1,67,73,0
1,71,73,0
1,64,73,0
1,67,73,0
1,67,73,8
1,71,73,0
1,66,73,14
1,69,73,2
1,62,73,56
1,64,73,18
1,66,73,192
1,59,73,0
1,62,73,0
1,55,73,2
1,59,73,0
1,59,73,6
1,62,73,2
1,59,73,2
1,64,73,0
1,66,73,136
1,70,73,0
1,67,73,2
1,71,73,0
1,64,73,0
1,67,73,0
1,67,73,10
1,71,73,0
1,66,73,0
1,69,73,0
1,62,73,56
1,64,73,0
1,66,73,188
1,59,73,0
1,62,73,0
1,55,73,2
1,59,73,0
1,59,73,6
1,62,73,2
1,59,73,2
1,64,73,0
1,66,73,136
1,70,73,0
1,67,73,2
1,71,73,0
1,64,73,0
1,67,73,2
1,67,73,8
1,71,73,2
1,66,73,0
1,69,73,0
1,62,73,56
1,64,73,0
1,66,73,188
1,59,73,0
1,62,73,0
1,55,73,2
1,59,73,0
1,59,73,6
1,62,73,2
1,59,73,2
1,64,73,0
1,66,73,136
1,70,73,0
1,67,73,2
1,71,73,0
1,64,73,0
1,67,73,0
1,67,73,8
1,71,73,2
1,66,73,0
1,69,73,2
1,62,73,52
1,64,73,0
1,66,73,188
2,60,91,1112
2,53,93,18
2,53,85,90
2,60,87,192
2,62,85,186
2,57,85,6
2,55,85,22
2,58,85,960
2,60,85,146
2,62,85,60
2,60,85,26
2,57,87,192
2,53,87,26
2,53,78,70
2,60,85,2
2,62,85,6
2,57,85,22
2,55,84,12
2,55,84,74
2,58,83,192
2,60,85,4
2,60,84,40
2,62,85,42
2,60,85,10
2,53,87,10
2,53,87,150
2,60,85,6
2,62,87,192
2,55,93,68
2,55,85,94
2,58,85,192
2,60,87,186
2,57,93,556
2,53,87,10
2,53,87,150
2,60,85,6
2,62,87,192
2,55,93,78
2,55,85,86
2,58,85,192
2,60,87,182
2,57,93,558
2,55,91,10
2,58,90,82
2,60,87,192
2,57,91,34
2,55,93,42
2,58,87,50
2,60,85,30
2,58,90,22
2,57,91,54
2,60,93,62
2,62,89,14
2,57,91,36
2,55,93,78
2,55,91,90
2,62,87,22
2,60,85,42
2,62,87,36
2,60,87,190
2,57,89,186
2,53,87,4
2,53,87,150
2,60,85,6
2,62,87,192
2,55,93,68
2,55,85,94
2,58,85,192
2,60,87,186
2,57,93,556
2,53,87,10
2,53,87,150
2,60,85,6
2,62,87,194
2,55,93,78
2,55,85,86
2,58,85,192
2,60,87,182
2,57,93,556
2,55,91,10
2,58,90,82
2,60,87,192
2,57,91,34
2,55,93,42
2,58,87,50
2,60,85,30
2,58,90,22
2,57,93,56
2,55,91,32
2,60,91,22
2,53,93,44
2,53,91,34
2,52,89,6
2,51,90,12
2,51,92,74
2,51,92,60
2,51,90,70
2,51,92,66
2,58,92,36
2,60,87,36
2,65,87,576
2,65,93,100
2,62,96,30
2,65,89,10
2,58,90,40
2,60,89,576
2,65,91,24
2,65,89,104
2,62,91,18
2,65,87,192
2,54,92,26
2,59,91,578
2,55,93,34
2,60,91,6
2,54,90,574
2,59,89,12
2,60,93,578
2,62,91,88
2,64,93,190
2,66,92,6
2,55,87,42
2,55,87,150
2,62,85,6
2,64,87,192
2,57,93,68
2,57,85,94
2,60,85,192
2,62,87,186
2,59,93,556
2,55,87,10
2,55,87,150
2,62,85,6
2,64,87,192
2,57,93,78
2,57,85,86
2,60,85,192
2,62,87,186
2,59,93,556
2,57,91,10
2,60,90,82
2,62,87,192
2,59,91,32
2,57,93,42
2,60,87,50
2,62,85,30
2,60,90,20
2,59,91,54
2,62,93,62
2,64,89,14
2,59,91,36
2,57,93,78
2,57,91,90
2,64,87,22
2,62,85,42
2,64,87,36
2,62,87,190
2,59,89,182
2,57,91,4
2,60,90,82
2,62,87,192
2,59,91,32
2,57,93,42
2,60,87,50
2,62,85,30
2,60,90,22
2,59,91,54
2,62,93,62
2,64,89,14
2,59,91,36
2,57,93,64
2,57,91,98
2,64,87,22
2,62,85,42
2,64,87,36
2,62,87,190
2,59,89,182
2,55,93,4
2,55,91,138
2,62,89,10
2,64,93,192
2,59,93,12
2,57,91,54
2,57,87,96
2,64,91,34
2,62,89,10
2,55,93,262
2,55,91,138
2,62,89,10
2,64,93,192
2,59,93,12
2,57,91,54
2,57,87,98
2,64,91,34
2,62,89,10
2,55,93,262
2,55,91,138
2,62,89,10
2,64,93,192
2,59,93,12
2,57,91,54
2,57,87,96
2,64,91,34
2,62,89,10
2,55,93,262
2,55,91,138
2,62,89,10
2,64,93,192
2,59,93,12
2,57,91,54
2,57,87,94
2,64,91,34
2,62,89,10
2,55,93,262
2,55,91,138
2,62,89,10
2,64,93,192
2,59,93,12
2,57,91,54
2,57,87,96
2,64,91,34
2,62,89,10
2,55,93,0
2,55,91,0
2,62,89,10
2,64,93,0
2,59,93,12
2,57,91,0
2,57,87,0
2,64,91,34
2,62,89,0
2,55,93,0
2,55,91,0
2,62,89,10
2,64,93,0
2,59,93,12
2,57,91,0
2,57,87,0
2,64,91,34
2,62,89,0
2,55,93,0
2,55,91,0
2,62,89,10
2,64,93,0
2,59,93,12
2,57,91,0
2,57,87,0
2,64,91,34
2,62,89,0
3,69,68,1690
3,72,76,0
3,69,57,54
3,74,68,0
3,70,73,66
3,74,72,0
3,72,76,60
3,76,68,0
3,76,72,108
3,72,76,4
3,74,72,40
3,77,64,0
3,70,64,102
3,74,72,0
3,79,72,2
3,72,68,20
3,76,72,0
3,79,50,2
3,69,52,12
3,72,52,2
3,69,52,26
3,74,52,0
3,70,61,92
3,74,52,0
3,72,60,42
3,76,56,0
3,72,56,98
3,76,49,2
3,74,49,14
3,77,38,0
3,74,52,104
3,77,49,2
3,72,35,24
3,76,32,0
3,67,77,260
3,65,35,4
3,67,35,40
3,70,35,4
3,65,35,80
3,67,35,0
3,67,35,48
3,70,35,0
3,67,35,108
3,69,35,0
3,65,35,56
3,69,35,0
3,70,35,100
3,74,35,0
3,70,59,52
3,67,59,8
3,70,59,44
3,74,59,10
3,69,59,38
3,72,59,10
3,69,52,1150
3,72,52,0
3,69,52,4
3,74,52,0
3,70,61,92
3,74,52,0
3,72,60,42
3,76,56,2
3,70,59,88
3,74,59,8
3,70,59,44
3,73,59,8
3,69,49,46
3,72,56,2
3,69,38,8
3,74,49,0
3,74,52,104
3,77,49,0
3,72,35,24
3,76,32,2
3,67,77,260
3,65,35,6
3,67,35,40
3,70,35,4
3,65,35,80
3,67,35,0
3,67,35,48
3,70,35,0
3,62,88,4738
3,65,97,0
3,64,92,0
3,67,92,0
3,65,84,32
3,69,88,0
3,65,92,96
3,69,92,0
3,65,88,132
3,69,92,0
3,62,88,138
3,65,88,0
3,64,92,576
3,67,88,0
3,65,88,542
3,69,92,0
3,65,84,72
3,69,97,0
3,65,97,124
3,69,92,0
3,63,85,126
3,66,85,0
3,64,92,58
3,67,97,0
3,64,92,34
3,67,88,2
3,64,92,106
3,67,92,2
3,63,89,86
3,66,85,2
3,63,85,36
3,66,89,0
3,63,85,78
3,66,89,2
3,63,89,96
3,66,80,0
3,64,97,78
3,67,101,0
3,66,89,12
3,69,97,0
3,71,79,18
3,74,79,0
3,71,79,26
3,76,79,0
3,72,79,92
3,76,79,0
3,74,79,40
3,78,79,0
3,74,79,98
3,78,79,2
3,76,79,14
3,79,79,0
3,76,79,106
3,79,79,0
3,74,79,26
3,78,79,0
3,69,79,272
3,67,79,4
3,69,79,40
3,72,79,4
3,67,79,82
3,69,79,0
3,69,79,48
3,72,79,0
3,69,79,108
3,71,79,0
3,67,79,56
3,71,79,2
3,72,79,100
3,76,79,0
3,72,79,52
3,69,79,10
3,72,79,44
3,76,79,12
3,69,79,38
3,74,79,12
3,71,92,9192
3,74,92,0
3,67,97,126
3,71,101,0
3,67,101,2
3,71,97,0
3,66,85,104
3,69,97,0
3,71,92,348
3,74,92,0
3,67,97,122
3,71,101,0
3,67,101,92
3,71,97,2
3,66,85,104
3,69,97,0
3,71,92,348
3,74,92,0
3,67,97,122
3,71,101,0
3,67,101,94
3,71,97,0
3,66,85,104
3,69,97,0
3,71,92,348
3,74,92,0
3,67,97,122
3,71,101,0
3,67,101,94
3,71,97,0
3,66,85,104
3,69,97,0
3,71,92,348
3,74,92,0
3,67,97,122
3,71,101,0
3,67,101,94
3,71,97,0
3,66,85,104
3,69,97,0
3,71,92,0
3,74,92,2
3,67,97,0
3,71,101,2
3,67,101,0
3,71,97,0
3,66,85,2
3,69,97,0
3,71,92,2
3,74,92,0
3,67,97,0
3,71,101,2
3,67,101,0
3,71,97,0
3,66,85,2
3,69,97,0
3,71,92,2
3,74,92,0
3,67,97,2
3,71,101,0
3,67,101,2
3,71,97,0
3,66,85,0
3,69,97,0
4,53,78,1688
4,60,82,0
4,72,82,0
4,77,78,2
4,81,78,0
4,53,63,116
4,60,63,0
4,72,66,0
4,77,66,2
4,81,70,0
4,53,56,116
4,60,56,0
4,72,66,0
4,77,59,2
4,81,66,0
4,53,82,118
4,60,82,0
4,72,82,0
4,77,74,2
4,81,78,0
4,53,70,114
4,60,78,0
4,72,74,0
4,77,66,2
4,81,70,0
4,53,70,116
4,60,74,0
4,72,82,0
4,77,78,2
4,81,74,0
4,53,78,116
4,62,87,0
4,72,87,0
4,74,78,2
4,77,78,0
4,81,82,0
4,53,70,112
4,62,74,0
4,72,70,0
4,74,70,2
4,77,59,0
4,81,63,0
4,53,66,112
4,62,66,0
4,72,66,0
4,74,52,2
4,77,56,0
4,81,59,0
4,53,82,114
4,62,78,0
4,72,91,2
4,74,78,0
4,77,82,0
4,81,87,0
4,53,66,112
4,62,70,0
4,72,78,0
4,74,63,0
4,77,70,2
4,81,78,0
4,53,63,112
4,62,70,0
4,72,82,0
4,74,38,0
4,77,74,2
4,81,78,0
4,55,66,112
4,62,78,0
4,74,82,0
4,77,70,2
4,79,82,0
4,82,10,0
4,55,63,112
4,62,78,0
4,74,52,0
4,77,56,0
4,82,54,2
4,55,78,116
4,62,78,0
4,74,70,2
4,77,52,0
4,79,59,0
4,82,70,0
4,55,82,114
4,62,82,0
4,74,70,0
4,77,78,2
4,79,70,0
4,82,79,0
4,55,66,112
4,62,82,0
4,74,78,0
4,77,70,2
4,79,66,0
4,82,70,0
4,55,74,112
4,62,82,0
4,74,66,0
4,77,46,2
4,79,56,0
4,82,75,0
4,55,87,112
4,60,82,0
4,72,78,0
4,76,74,0
4,79,66,2
4,55,78,116
4,60,74,0
4,72,74,0
4,76,59,2
4,79,63,0
4,55,87,116
4,60,78,0
4,72,70,0
4,76,63,0
4,79,59,2
4,55,78,118
4,60,82,0
4,72,82,0
4,76,74,2
4,79,74,0
4,55,82,114
4,60,78,0
4,72,78,0
4,76,63,2
4,79,66,0
4,55,82,116
4,60,74,0
4,72,78,0
4,76,63,2
4,79,66,0
4,57,79,116
4,60,91,0
4,69,95,0
4,72,95,0
4,76,91,2
4,79,95,0
4,57,83,116
4,60,79,0
4,69,83,0
4,72,79,0
4,76,83,2
4,79,83,0
4,57,87,108
4,60,95,0
4,69,91,0
4,72,83,2
4,76,83,0
4,79,87,0
4,57,83,114
