track,note,velocity,time
0,38,114,740
0,38,115,92
0,38,114,284
0,36,94,188
0,38,113,0
0,72,115,0
0,84,116,0
0,38,112,92
0,36,112,92
0,42,69,0
0,54,79,0
0,41,97,0
0,53,69,0
0,57,98,0
0,60,99,0
0,53,101,0
0,72,92,0
0,84,94,0
0,53,70,36
0,42,69,48
0,54,79,0
0,41,98,0
0,53,71,0
0,42,71,48
0,53,68,0
0,36,93,16
0,38,114,0
0,42,68,0
0,49,114,0
0,54,79,0
0,56,80,0
0,41,97,0
0,53,70,0
0,69,113,0
0,81,116,0
0,62,83,0
0,53,67,0
0,42,69,16
0,62,83,0
0,41,100,0
0,53,67,0
0,62,97,0
0,59,101,0
0,55,99,0
0,74,94,0
0,86,96,0
0,42,70,48
0,62,83,0
0,53,70,0
0,36,114,48
0,42,68,0
0,54,79,0
0,56,81,0
0,43,100,0
0,55,70,0
0,67,116,0
0,79,116,0
0,75,79,48
0,55,67,0
0,42,67,16
0,54,82,0
0,43,100,0
0,55,71,0
0,69,115,0
0,81,116,0
0,42,68,0
0,55,70,0
0,36,94,48
0,38,112,0
0,42,69,0
0,54,79,0
0,56,83,0
0,75,79,0
0,43,97,0
0,55,69,0
0,62,79,48
0,55,69,0
0,42,70,16
0,62,80,0
0,43,97,0
0,55,67,0
0,67,112,0
0,79,116,0
0,76,92,0
0,88,96,0
0,42,71,48
0,62,79,0
0,40,100,0
0,52,71,0
0,36,114,48
0,42,70,0
0,54,83,0
0,40,98,0
0,52,71,0
0,62,100,0
0,59,99,0
0,55,97,0
0,52,67,48
0,42,71,48
0,54,79,0
0,40,97,0
0,52,69,0
0,42,71,48
0,52,69,0
0,36,93,16
0,38,112,0
0,42,70,0
0,54,82,0
0,56,82,0
0,40,98,0
0,52,70,0
0,69,116,0
0,81,113,0
0,62,83,0
0,52,70,0
0,42,67,48
0,62,79,0
0,40,101,0
0,52,70,0
0,64,99,0
0,60,99,0
0,57,99,0
0,42,70,48
0,62,83,0
0,38,97,0
0,50,67,0
0,36,111,0
0,42,67,0
0,54,79,0
0,56,79,0
0,45,97,0
0,57,67,0
0,67,112,0
0,79,115,0
0,75,80,48
0,57,68,0
0,42,67,16
0,54,83,0
0,45,101,0
0,57,67,0
0,69,116,0
0,81,116,0
0,42,71,0
0,57,68,0
0,36,95,16
0,38,111,0
0,42,71,0
0,54,83,0
0,56,81,0
0,75,83,0
0,45,99,0
0,57,69,0
0,62,82,48
0,57,71,0
0,36,97,48
0,42,71,0
0,62,81,0
0,45,98,0
0,57,70,0
0,72,116,0
0,84,113,0
0,72,96,0
0,84,92,0
0,42,70,48
0,62,80,0
0,57,68,0
0,36,114,48
0,42,71,0
0,54,80,0
0,38,100,0
0,50,70,0
0,57,97,0
0,60,101,0
0,53,99,0
0,50,67,48
0,42,68,48
0,54,82,0
0,38,97,0
0,50,70,0
0,42,71,48
0,50,67,0
0,36,94,16
0,38,113,0
0,42,67,0
0,49,115,0
0,54,80,0
0,56,79,0
0,38,98,0
0,50,68,0
0,69,112,0
0,81,114,0
0,62,81,0
0,50,67,0
0,42,71,16
0,62,80,0
0,38,99,0
0,50,67,0
0,62,100,0
0,59,100,0
0,55,99,0
0,74,93,0
0,86,93,0
0,42,70,48
0,62,79,0
0,50,71,0
0,36,112,48
0,42,67,0
0,54,80,0
0,56,80,0
0,43,101,0
0,55,71,0
0,67,115,0
0,79,114,0
0,75,83,48
0,55,70,0
0,42,69,16
0,54,80,0
0,43,99,0
0,55,71,0
0,69,115,0
0,81,116,0
0,42,69,0
0,55,68,0
0,36,96,48
0,38,111,0
0,42,70,0
0,54,82,0
0,56,83,0
0,75,80,0
0,43,100,0
0,55,68,0
0,62,81,48
0,55,68,0
0,42,67,16
0,62,83,0
0,43,97,0
0,55,70,0
0,76,95,0
0,88,96,0
0,42,71,0
0,62,83,0
0,36,99,0
0,48,71,0
0,36,115,48
0,42,71,0
0,54,83,0
0,36,100,0
0,48,68,0
0,64,101,0
0,60,99,0
0,55,100,0
0,48,69,48
0,42,68,48
0,54,80,0
0,36,101,0
0,48,70,0
0,42,67,48
0,48,67,0
0,36,94,48
0,38,111,0
0,42,70,0
0,54,81,0
0,56,79,0
0,36,101,0
0,48,71,0
0,62,83,48
0,48,68,0
0,42,70,16
0,62,80,0
0,36,99,0
0,48,70,0
0,77,96,0
0,89,93,0
0,72,89,0
0,84,101,0
0,42,69,48
0,62,82,0
0,36,97,0
0,48,67,0
0,36,115,16
0,42,68,0
0,54,81,0
0,56,82,0
0,36,101,0
0,48,70,0
0,76,93,0
0,88,96,0
0,71,90,0
0,83,97,0
0,38,112,0
0,42,69,0
0,75,82,0
0,48,69,0
0,38,111,16
0,42,67,0
0,54,79,0
0,40,97,0
0,52,69,0
0,67,88,0
0,79,101,0
0,42,68,48
0,52,69,0
0,36,95,16
0,38,115,0
0,42,67,0
0,54,83,0
0,56,79,0
0,75,83,0
0,40,98,0
0,52,68,0
0,64,88,0
0,76,97,0
0,62,80,48
0,52,67,0
0,36,93,16
0,38,114,0
0,42,67,0
0,62,83,0
0,40,97,0
0,52,71,0
0,72,113,0
0,84,112,0
0,72,96,0
0,84,93,0
0,62,91,0
0,74,99,0
0,42,69,48
0,62,80,0
0,52,69,0
0,36,112,16
0,42,71,0
0,54,81,0
0,41,98,0
0,53,69,0
0,57,101,0
0,60,99,0
0,53,98,0
0,53,71,48
0,42,68,48
0,54,83,0
0,41,98,0
0,53,68,0
0,64,90,0
0,76,99,0
0,42,67,48
0,53,68,0
0,36,93,16
0,38,114,0
0,42,69,0
0,49,115,0
0,54,79,0
0,56,79,0
0,41,97,0
0,53,68,0
0,69,114,0
0,81,116,0
0,62,83,0
0,53,70,0
0,42,69,16
0,62,80,0
0,41,99,0
0,53,67,0
0,62,101,0
0,59,99,0
0,55,101,0
0,74,94,0
0,86,96,0
0,42,70,0
0,62,82,0
0,53,70,0
0,36,111,48
0,42,71,0
0,54,83,0
0,56,83,0
0,43,100,0
0,55,70,0
0,67,114,0
0,79,114,0
0,75,80,48
0,55,70,0
0,42,70,16
0,54,80,0
0,43,99,0
0,55,71,0
0,69,114,0
0,81,116,0
0,42,70,0
0,55,68,0
0,36,97,48
0,38,113,0
0,42,69,0
0,54,80,0
0,56,81,0
0,75,82,0
0,43,100,0
0,55,70,0
0,62,81,48
0,55,71,0
0,42,69,16
0,62,81,0
0,43,101,0
0,55,69,0
0,67,112,0
0,79,115,0
0,76,93,0
0,88,93,0
0,42,71,0
0,62,83,0
0,40,100,0
0,52,67,0
0,36,114,48
0,42,67,0
0,54,80,0
0,40,99,0
0,52,68,0
0,62,97,0
0,59,97,0
0,55,97,0
0,52,69,48
0,42,68,48
0,54,80,0
0,40,100,0
0,52,70,0
0,42,67,48
0,52,70,0
0,36,93,16
0,38,111,0
0,42,71,0
0,54,81,0
0,56,79,0
0,40,101,0
0,52,67,0
0,69,113,0
0,81,114,0
0,62,82,0
0,52,71,0
0,42,68,48
0,62,79,0
0,40,99,0
0,52,68,0
0,64,100,0
0,60,99,0
0,57,100,0
0,42,68,48
0,62,81,0
0,38,97,0
0,50,68,0
0,36,112,0
0,42,71,0
0,54,82,0
0,56,82,0
0,45,98,0
0,57,68,0
0,67,113,0
0,79,112,0
0,75,80,48
0,57,69,0
0,42,68,16
0,54,79,0
0,45,100,0
0,57,70,0
0,69,114,0
0,81,113,0
0,42,70,0
0,57,67,0
0,36,97,48
0,38,115,0
0,42,71,0
0,54,80,0
0,56,80,0
0,75,80,0
0,45,100,0
0,57,69,0
0,62,80,48
0,57,71,0
0,36,96,16
0,42,71,0
0,62,82,0
0,45,97,0
0,57,70,0
0,72,114,0
0,84,114,0
0,72,95,0
0,84,94,0
0,42,70,0
0,62,79,0
0,57,70,0
0,36,113,48
0,42,68,0
0,54,83,0
0,38,101,0
0,50,70,0
0,57,99,0
0,60,100,0
0,53,97,0
0,50,68,48
0,42,68,48
0,54,83,0
0,38,98,0
0,50,68,0
0,42,70,48
0,50,68,0
0,36,93,16
0,38,114,0
0,42,71,0
0,54,79,0
0,56,80,0
0,38,101,0
0,50,70,0
0,69,114,0
0,81,113,0
0,62,80,0
0,50,67,0
0,42,68,16
0,62,83,0
0,38,101,0
0,50,70,0
0,59,98,0
0,62,99,0
0,55,99,0
0,74,92,0
0,86,94,0
0,42,67,48
0,62,80,0
0,50,69,0
0,36,111,48
0,42,71,0
0,54,83,0
0,56,82,0
0,43,97,0
0,55,71,0
0,67,115,0
0,79,115,0
0,75,80,48
0,55,70,0
0,42,67,16
0,54,82,0
0,43,98,0
0,55,67,0
0,69,116,0
0,81,112,0
0,42,71,0
0,55,67,0
0,36,94,48
0,38,111,0
0,42,67,0
0,54,81,0
0,56,79,0
0,75,79,0
0,43,98,0
0,55,68,0
0,62,81,48
0,55,69,0
0,42,69,16
0,62,80,0
0,43,99,0
0,55,67,0
0,76,94,0
0,88,96,0
0,42,70,48
0,62,81,0
0,36,101,0
0,48,69,0
0,36,113,48
0,42,70,0
0,54,79,0
0,36,97,0
0,48,68,0
0,64,98,0
0,60,97,0
0,55,100,0
0,48,68,48
0,42,67,48
0,54,83,0
0,36,99,0
0,48,67,0
0,67,116,0
0,79,116,0
0,42,67,0
0,48,68,0
0,36,94,48
0,38,112,0
0,42,69,0
0,54,80,0
0,56,82,0
0,36,98,0
0,48,69,0
0,69,115,0
0,81,112,0
0,62,80,0
0,48,69,0
0,42,67,48
0,62,79,0
0,36,101,0
0,48,70,0
0,42,69,48
0,62,83,0
0,36,98,0
0,48,67,0
0,36,113,48
0,42,70,0
0,54,79,0
0,56,82,0
0,36,100,0
0,48,68,0
0,67,115,0
0,79,112,0
0,38,113,0
0,42,71,0
0,75,80,0
0,48,68,0
0,38,115,48
0,42,70,0
0,54,79,0
0,40,100,0
0,52,70,0
0,42,67,48
0,52,68,0
0,69,116,0
0,81,116,0
0,36,96,0
0,38,112,0
0,42,70,0
0,54,79,0
0,56,83,0
0,75,80,0
0,40,100,0
0,52,71,0
0,68,122,0
0,62,83,48
0,52,67,0
0,36,96,12
0,38,111,0
0,42,68,0
0,62,79,0
0,40,99,0
0,52,70,0
0,69,95,0
0,81,94,0
0,69,120,0
0,42,69,48
0,62,82,0
0,52,70,0
0,36,111,48
0,42,68,0
0,54,80,0
0,45,99,0
0,57,69,0
0,61,99,0
0,57,97,0
0,52,101,0
0,57,69,0
0,42,68,20
0,54,80,0
0,45,97,0
0,57,69,0
0,68,120,0
0,42,67,0
0,57,67,0
0,36,94,12
0,38,112,0
0,42,69,0
0,49,114,0
0,54,81,0
0,56,82,0
0,45,98,0
0,57,70,0
0,69,122,0
0,62,82,0
0,57,69,0
0,42,69,12
0,62,80,0
0,45,99,0
0,57,71,0
0,68,119,0
0,42,69,0
0,62,83,0
0,57,68,0
0,36,112,12
0,42,67,0
0,54,82,0
0,56,80,0
0,45,98,0
0,57,70,0
0,69,120,0
0,75,79,0
0,57,68,0
0,42,67,12
0,54,82,0
0,45,98,0
0,57,67,0
0,64,119,0
0,42,71,0
0,57,71,0
0,36,93,48
0,38,115,0
0,42,67,0
0,54,81,0
0,56,83,0
0,75,81,0
0,45,99,0
0,57,69,0
0,64,120,0
0,62,80,0
0,57,70,0
0,42,68,12
0,62,83,0
0,45,101,0
0,57,68,0
0,69,120,0
0,42,68,0
0,62,83,0
0,44,99,0
0,56,70,0
0,36,113,0
0,42,71,0
0,54,79,0
0,42,97,0
0,54,70,0
0,57,98,0
0,61,98,0
0,54,98,0
0,54,70,0
0,42,71,20
0,54,82,0
0,42,100,0
0,54,67,0
0,68,121,0
0,42,70,0
0,54,69,0
0,36,96,12
0,38,115,0
0,42,67,0
0,54,82,0
0,56,80,0
0,42,100,0
0,54,70,0
0,69,122,0
0,62,83,0
0,54,69,0
0,42,71,12
0,62,80,0
0,42,100,0
0,54,69,0
0,68,118,0
0,42,67,0
0,62,79,0
0,40,97,0
0,52,71,0
0,36,113,0
0,42,69,0
0,54,80,0
0,56,82,0
0,42,99,0
0,54,68,0
0,69,96,0
0,81,94,0
0,69,121,0
0,75,79,0
0,54,67,0
0,42,68,12
0,54,81,0
0,42,97,0
0,54,71,0
0,64,122,0
0,71,95,8
0,83,93,0
0,42,69,0
0,54,70,0
0,36,93,12
0,38,111,0
0,42,67,0
0,54,81,0
0,56,82,0
0,75,82,0
0,42,101,0
0,54,71,0
0,62,83,0
0,54,68,0
0,73,93,28
0,85,96,0
0,42,69,48
0,62,82,0
0,42,99,0
0,54,69,0
0,64,121,0
0,42,70,0
0,62,80,0
0,54,69,0
0,36,112,12
0,42,71,0
0,54,79,0
0,43,98,0
0,55,69,0
0,62,98,0
0,59,98,0
0,55,99,0
0,74,95,0
0,86,96,0
0,67,118,0
0,55,69,0
0,42,69,12
0,54,83,0
0,43,101,0
0,55,68,0
0,67,121,0
0,42,67,0
0,55,69,0
0,36,97,12
0,38,112,0
0,42,69,0
0,54,82,0
0,56,83,0
0,43,101,0
0,55,67,0
0,67,121,0
0,62,80,0
0,55,71,0
0,42,68,12
0,62,80,0
0,43,100,0
0,55,68,0
0,66,118,0
0,42,71,0
0,62,83,0
0,55,71,0
0,36,115,12
0,42,68,0
0,54,81,0
0,56,81,0
0,43,98,0
0,55,70,0
0,67,118,0
0,75,80,0
0,55,67,0
0,42,70,12
0,54,83,0
0,43,98,0
0,55,70,0
0,66,121,0
0,42,69,0
0,55,69,0
0,36,95,12
0,38,114,0
0,42,71,0
0,54,82,0
0,56,81,0
0,75,80,0
0,43,97,0
0,55,71,0
0,67,118,0
0,62,82,0
0,55,68,0
0,42,70,16
0,62,81,0
0,43,101,0
0,55,70,0
0,76,95,0
0,88,92,0
0,42,70,0
0,62,79,0
0,42,97,0
0,54,71,0
0,66,121,0
0,36,114,0
0,42,69,0
0,54,80,0
0,40,97,0
0,52,71,0
0,62,101,0
0,59,99,0
0,56,99,0
0,64,120,0
0,52,71,0
0,42,70,48
0,54,81,0
0,40,101,0
0,52,70,0
0,42,71,0
0,52,68,0
0,36,95,48
0,38,112,0
0,42,71,0
0,54,80,0
0,56,79,0
0,40,98,0
0,52,71,0
0,62,82,0
0,52,70,0
0,42,70,48
0,62,81,0
0,40,98,0
0,52,68,0
0,42,70,0
0,62,79,0
0,38,97,0
0,50,70,0
0,36,111,0
0,42,70,0
0,54,82,0
0,56,83,0
0,40,99,0
0,52,70,0
0,75,83,0
0,52,70,0
0,42,68,48
0,54,80,0
0,40,97,0
0,52,69,0
0,64,118,0
0,42,67,0
0,52,67,0
0,36,97,12
0,38,111,0
0,42,67,0
0,54,82,0
0,56,81,0
0,75,82,0
0,40,99,0
0,52,67,0
0,68,95,0
0,80,95,0
0,68,121,0
0,62,79,0
0,52,67,0
0,36,93,12
0,42,68,0
0,62,82,0
0,40,100,0
0,52,71,0
0,69,96,0
0,81,93,0
0,69,120,0
0,42,68,0
0,62,79,0
0,52,68,0
0,36,115,48
0,42,68,0
0,51,83,0
0,54,80,0
0,45,101,0
0,57,68,0
0,61,98,0
0,57,97,0
0,52,97,0
0,57,68,0
0,42,71,20
0,54,82,0
0,45,100,0
0,57,71,0
0,68,118,0
0,42,69,0
0,57,69,0
0,36,97,12
0,38,112,0
0,42,68,0
0,49,115,0
0,54,82,0
0,56,80,0
0,45,98,0
0,57,67,0
0,69,121,0
0,62,81,0
0,57,68,0
0,42,69,12
0,62,80,0
0,45,101,0
0,57,70,0
0,68,120,0
0,42,67,0
0,62,80,0
0,57,68,0
0,36,114,12
0,42,68,0
0,54,80,0
0,56,79,0
0,45,100,0
0,57,68,0
0,69,121,0
0,75,79,0
0,57,69,0
0,42,71,12
0,54,79,0
0,45,98,0
0,57,68,0
0,64,120,0
0,42,70,0
0,57,69,0
0,36,96,48
0,38,111,0
0,42,67,0
0,54,80,0
0,56,80,0
0,75,79,0
0,45,101,0
0,57,69,0
0,64,120,0
0,62,83,0
0,57,70,0
0,42,70,12
