track,note,velocity,time
0,42,124,956
0,42,124,372
0,42,124,372
0,42,124,372
0,30,100,372
0,30,100,72
0,30,100,72
0,30,100,72
0,30,100,72
0,30,100,72
0,30,100,72
0,30,100,72
0,30,100,72
0,30,100,72
0,30,100,72
0,30,100,72
0,30,100,72
0,30,100,72
0,30,100,72
0,30,100,72
0,8,100,72
0,35,124,0
0,42,100,0
0,42,33,96
0,62,75,0
0,54,100,0
0,20,100,0
0,35,112,0
0,42,71,0
0,62,75,0
0,8,100,0
0,40,124,0
0,42,116,0
0,39,100,0
0,60,75,0
0,30,100,0
0,30,100,0
0,42,44,0
0,63,75,0
0,54,100,0
0,30,100,0
0,35,52,0
0,42,61,0
0,63,75,0
0,30,100,72
0,35,124,0
0,42,116,0
0,30,100,72
0,30,100,0
0,42,61,0
0,62,75,0
0,54,100,0
0,30,100,0
0,42,71,0
0,62,75,0
0,30,100,0
0,40,124,0
0,42,116,0
0,39,116,0
0,60,75,0
0,30,100,72
0,30,100,0
0,42,61,0
0,63,75,0
0,54,100,0
0,30,100,0
0,42,54,0
0,63,75,0
0,30,100,72
0,35,112,0
0,42,116,0
0,8,100,72
0,42,61,0
0,62,75,0
0,54,100,0
0,20,100,0
0,42,71,0
0,62,75,0
0,8,100,0
0,40,124,0
0,42,100,0
0,39,116,0
0,60,75,0
0,30,100,0
0,35,124,0
0,42,61,0
0,63,75,0
0,54,100,0
0,30,100,0
0,42,61,0
0,63,75,0
0,30,100,72
0,42,116,0
0,30,100,72
0,30,100,0
0,35,112,0
0,42,61,0
0,62,75,0
0,54,100,0
0,30,100,0
0,42,54,0
0,62,75,0
0,30,100,0
0,40,124,0
0,42,116,0
0,39,100,0
0,60,75,0
0,30,100,72
0,20,100,0
0,46,83,0
0,63,75,0
0,54,100,0
0,35,59,0
0,63,75,0
0,8,100,0
0,35,124,0
0,42,100,0
0,30,100,0
0,42,61,0
0,62,75,0
0,54,100,0
0,30,100,0
0,35,112,0
0,42,71,0
0,62,75,0
0,30,100,0
0,40,112,0
0,42,116,0
0,39,100,0
0,60,75,0
0,30,100,72
0,20,100,0
0,42,61,0
0,63,75,0
0,54,100,0
0,35,47,0
0,42,83,0
0,63,75,0
0,8,100,0
0,35,124,0
0,42,116,0
0,30,100,0
0,30,100,0
0,42,44,0
0,62,75,0
0,54,116,0
0,30,100,0
0,42,100,0
0,62,75,0
0,30,100,0
0,40,124,0
0,42,100,0
0,39,116,0
0,60,75,0
0,30,100,72
0,20,100,0
0,42,83,0
0,63,75,0
0,54,116,0
0,42,71,0
0,63,75,0
0,32,100,0
0,35,124,0
0,42,100,0
0,32,100,72
0,20,100,0
0,42,54,0
0,62,75,0
0,54,100,0
0,42,71,0
0,62,75,0
0,32,100,0
0,40,124,0
0,42,116,0
0,39,116,0
0,60,75,0
0,32,100,72
0,20,100,0
0,35,124,0
0,42,71,0
0,63,75,0
0,54,116,0
0,44,100,0
0,63,75,0
0,49,100,84
0,40,112,0
0,42,116,0
0,50,100,6
0,49,100,6
0,70,122,0
0,78,122,0
0,73,122,0
0,47,100,0
0,40,112,0
0,42,71,0
0,62,75,0
0,54,116,0
0,35,112,0
0,42,100,0
0,62,75,0
0,49,100,0
0,40,95,0
0,42,100,0
0,60,75,0
0,77,122,0
0,68,122,0
0,73,122,0
0,47,100,0
0,40,112,0
0,44,100,0
0,40,112,0
0,44,100,0
0,63,75,0
0,54,116,0
0,42,100,0
0,35,112,0
0,63,75,0
0,75,122,0
0,66,122,0
0,71,122,0
0,32,100,0
0,35,124,0
0,49,65,0
0,72,122,50
0,32,100,0
0,42,33,0
0,62,75,0
0,54,100,0
0,68,96,10
0,63,84,2
0,32,100,0
0,35,112,0
0,42,71,0
0,62,75,0
0,63,84,10
0,68,96,0
0,36,100,0
0,60,93,0
0,68,93,0
0,65,93,0
0,40,124,0
0,42,116,0
0,39,100,0
0,60,75,0
0,63,84,44
0,39,100,0
0,58,106,0
0,63,106,0
0,66,106,0
0,68,96,0
0,42,44,0
0,63,75,0
0,54,100,0
0,35,52,0
0,42,61,0
0,63,75,0
0,63,84,4
0,68,96,2
0,35,124,36
0,42,116,0
0,66,122,0
0,58,122,0
0,61,122,0
0,39,100,0
0,42,61,0
0,62,75,0
0,54,100,0
0,68,84,2
0,63,68,6
0,68,111,44
0,63,84,2
0,39,100,0
0,42,71,0
0,62,75,0
0,41,100,0
0,40,124,0
0,42,116,0
0,39,116,0
0,60,75,0
0,61,122,42
0,56,122,0
0,65,122,0
0,44,100,0
0,42,61,0
0,63,75,0
0,54,100,0
0,68,111,10
0,63,96,2
0,41,100,0
0,42,54,0
0,63,75,0
0,68,111,4
0,63,84,0
0,60,122,48
0,54,122,0
0,59,122,0
0,63,122,0
0,32,100,0
0,35,112,0
0,42,116,0
0,32,100,0
0,42,61,0
0,62,75,0
0,54,100,0
0,68,96,2
0,63,55,6
0,32,100,0
0,68,111,0
0,42,71,0
0,62,75,0
0,63,96,4
0,36,100,0
0,68,92,0
0,60,92,0
0,65,92,0
0,40,124,0
0,42,100,0
0,39,116,0
0,60,75,0
0,39,100,0
0,58,106,0
0,63,106,0
0,66,106,0
0,35,124,0
0,42,61,0
0,63,75,0
0,54,100,0
0,68,111,0
0,63,96,2
0,47,100,0
0,42,61,0
0,63,75,0
0,63,84,8
0,68,84,0
0,42,116,48
0,46,100,84
0,47,100,48
0,68,111,34
0,63,96,6
0,70,122,0
0,78,122,0
0,73,122,0
0,46,100,0
0,35,112,0
0,42,61,0
0,62,75,0
0,54,100,0
0,44,100,0
0,68,111,0
0,42,54,0
0,62,75,0
0,63,84,4
0,46,100,0
0,40,124,0
0,42,116,0
0,39,100,0
0,60,75,0
0,77,122,24
0,68,122,0
0,73,122,0
0,44,100,0
0,41,100,0
0,68,127,0
0,46,83,0
0,63,75,0
0,54,100,0
0,63,111,4
0,44,100,0
0,35,59,0
0,63,75,0
0,63,96,8
0,68,96,0
0,75,122,48
0,66,122,0
0,71,122,0
0,32,100,0
0,35,124,0
0,42,100,0
0,72,122,36
0,32,100,0
0,42,61,0
0,62,75,0
0,54,100,0
0,68,96,10
0,63,84,2
0,32,100,0
0,35,112,0
0,42,71,0
0,62,75,0
0,63,84,10
0,68,96,0
0,36,100,0
0,68,91,0
0,60,91,0
0,65,91,0
0,40,112,0
0,42,116,0
0,39,100,0
0,60,75,0
0,63,84,100
0,39,100,0
0,58,106,0
0,63,106,0
0,66,106,0
0,68,96,0
0,42,61,0
0,63,75,0
0,54,100,0
0,35,47,0
0,42,83,0
0,63,75,0
0,63,84,4
0,68,96,2
0,35,124,20
0,42,116,0
0,66,122,0
0,58,122,0
0,61,122,0
0,41,100,0
0,42,44,0
0,62,75,0
0,54,116,0
0,68,84,2
0,63,68,6
0,68,111,44
0,63,84,2
0,39,100,0
0,42,100,0
0,62,75,0
0,44,100,0
0,40,124,0
0,42,100,0
0,39,116,0
0,60,75,0
0,56,122,68
0,61,122,0
0,65,122,0
0,41,100,0
0,42,83,0
0,63,75,0
0,54,116,0
0,68,111,10
0,63,96,2
0,39,100,0
0,42,71,0
0,63,75,0
0,68,111,6
0,63,84,0
0,63,122,48
0,59,122,0
0,54,122,0
0,32,100,0
0,35,124,0
0,42,100,0
0,60,122,44
0,32,100,0
0,42,54,0
0,62,75,0
0,54,100,0
0,68,96,2
0,63,55,6
0,32,100,0
0,68,111,0
0,42,71,0
0,62,75,0
0,63,96,4
0,36,100,0
0,60,90,0
0,68,90,0
0,65,90,0
0,40,124,0
0,42,116,0
0,39,116,0
0,60,75,0
0,39,100,0
0,58,106,0
0,63,106,0
0,66,106,0
0,35,124,0
0,42,71,0
0,63,75,0
0,54,116,0
0,68,111,0
0,63,96,2
0,59,100,0
0,44,100,0
0,63,75,0
0,63,84,8
0,68,84,0
0,42,116,4
0,58,100,76
0,35,68,0
0,59,100,8
0,68,111,36
0,63,96,6
0,70,122,0
0,78,122,0
0,73,122,0
0,58,100,0
0,35,112,0
0,42,71,0
0,62,75,0
0,54,116,0
0,56,100,0
0,68,111,0
0,42,100,0
0,62,75,0
0,63,84,4
0,58,100,0
0,40,112,0
0,42,100,0
0,39,116,0
0,60,75,0
0,77,122,30
0,68,122,0
0,73,122,0
0,56,100,0
0,53,100,0
0,68,127,0
0,44,100,0
0,63,75,0
0,54,116,0
0,63,111,4
0,56,100,0
0,35,68,0
0,63,75,0
0,63,96,8
0,68,96,0
0,75,122,44
0,66,122,0
0,71,122,0
0,32,100,0
0,35,124,0
0,42,100,0
0,72,122,50
0,32,100,0
0,42,33,0
0,62,75,0
0,54,100,0
0,68,96,10
0,63,84,2
0,32,100,0
0,35,112,0
0,42,71,0
0,62,75,0
0,63,84,10
0,68,96,0
0,36,100,0
0,60,93,0
0,68,93,0
0,65,93,0
0,40,124,0
0,42,116,0
0,39,100,0
0,60,75,0
0,63,84,64
0,39,100,0
0,58,106,0
0,63,106,0
0,66,106,0
0,68,96,0
0,42,44,0
0,63,75,0
0,54,100,0
0,35,52,0
0,42,61,0
0,63,75,0
0,63,84,4
0,68,96,2
0,35,124,36
0,42,116,0
0,66,122,0
0,58,122,0
0,61,122,0
0,39,100,0
0,42,61,0
0,62,75,0
0,54,100,0
0,68,84,2
0,63,68,6
0,68,111,44
0,63,84,2
0,39,100,0
0,42,71,0
0,62,75,0
0,41,100,0
0,40,124,0
0,42,116,0
0,39,116,0
0,60,75,0
0,61,122,42
0,56,122,0
0,65,122,0
0,44,100,0
0,42,61,0
0,63,75,0
0,54,100,0
0,68,111,10
0,63,96,2
0,41,100,0
0,42,54,0
0,63,75,0
0,68,111,4
0,63,84,0
0,60,122,48
0,54,122,0
0,59,122,0
0,63,122,0
0,32,100,0
0,35,112,0
0,42,116,0
0,32,100,0
0,42,61,0
0,62,75,0
0,54,100,0
0,68,96,2
0,63,55,6
0,32,100,0
0,68,111,0
0,42,71,0
0,62,75,0
0,63,96,4
0,36,100,0
0,68,92,0
0,60,92,0
0,65,92,0
0,40,124,0
0,42,100,0
0,39,116,0
0,60,75,0
0,39,100,0
0,58,106,0
0,63,106,0
0,66,106,0
0,35,124,0
0,42,61,0
0,63,75,0
0,54,100,0
0,68,111,0
0,63,96,2
0,47,100,0
0,42,61,0
0,63,75,0
0,63,84,8
0,68,84,0
0,42,116,48
0,46,100,84
0,47,100,48
0,68,111,34
0,63,96,6
0,70,122,0
0,78,122,0
0,73,122,0
0,46,100,0
0,35,112,0
0,42,61,0
0,62,75,0
0,54,100,0
0,44,100,0
0,68,111,0
0,42,54,0
0,62,75,0
0,63,84,4
0,46,100,0
0,40,124,0
0,42,116,0
0,39,100,0
0,60,75,0
0,77,122,24
0,68,122,0
0,73,122,0
0,44,100,0
0,41,100,0
0,68,127,0
0,46,83,0
0,63,75,0
0,54,100,0
0,63,111,4
0,44,100,0
0,35,59,0
0,63,75,0
0,63,96,8
0,68,96,0
0,75,122,48
0,66,122,0
0,71,122,0
0,32,100,0
0,35,124,0
0,42,100,0
0,72,122,36
0,32,100,0
0,42,61,0
0,62,75,0
0,54,100,0
0,68,96,10
0,63,84,2
0,32,100,0
0,35,112,0
0,42,71,0
0,62,75,0
0,63,84,10
0,68,96,0
0,36,100,0
0,68,91,0
0,60,91,0
0,65,91,0
0,40,112,0
0,42,116,0
0,39,100,0
0,60,75,0
0,63,84,84
0,39,100,0
0,58,106,0
0,63,106,0
0,66,106,0
0,68,96,0
0,42,61,0
0,63,75,0
0,54,100,0
0,35,47,0
0,42,83,0
0,63,75,0
0,63,84,4
0,68,96,2
0,35,124,20
0,42,116,0
0,66,122,0
0,58,122,0
0,61,122,0
0,41,100,0
0,42,44,0
0,62,75,0
0,54,116,0
0,68,84,2
0,63,68,6
0,68,111,44
0,63,84,2
0,39,100,0
0,42,100,0
0,62,75,0
0,44,100,0
0,40,124,0
0,42,100,0
0,39,116,0
0,60,75,0
0,56,122,68
0,61,122,0
0,65,122,0
0,41,100,0
0,42,83,0
0,63,75,0
0,54,116,0
0,68,111,10
0,63,96,2
0,39,100,0
0,42,71,0
0,63,75,0
0,68,111,6
0,63,84,0
0,63,122,48
0,59,122,0
0,54,122,0
0,32,100,0
0,35,124,0
0,42,100,0
0,60,122,44
0,32,100,0
0,42,54,0
0,62,75,0
0,54,100,0
0,68,96,2
0,63,55,6
0,32,100,0
0,68,111,0
0,42,71,0
0,62,75,0
0,63,96,4
0,36,100,0
0,60,90,0
0,68,90,0
0,65,90,0
0,40,124,0
0,42,116,0
0,39,116,0
0,60,75,0
0,39,100,0
0,58,106,0
0,63,106,0
0,66,106,0
0,35,124,0
0,42,71,0
0,63,75,0
0,54,116,0
0,68,111,0
0,63,96,2
0,59,100,0
0,44,100,0
0,63,75,0
0,63,84,8
0,68,84,0
0,42,116,4
0,58,100,76
0,35,68,0
0,59,100,8
0,68,111,36
0,63,96,6
0,70,122,0
0,78,122,0
0,73,122,0
0,58,100,0
0,35,112,0
0,42,71,0
0,62,75,0
0,54,116,0
0,56,100,0
0,68,111,0
0,40,59,0
0,42,100,0
0,62,75,0
0,63,84,4
0,58,100,0
0,40,112,0
0,42,100,0
0,39,116,0
0,60,75,0
0,77,122,30
0,68,122,0
0,73,122,0
0,56,100,0
0,53,100,0
0,68,127,0
0,44,100,0
0,63,75,0
0,54,116,0
0,63,111,4
0,56,100,0
0,35,68,0
0,63,75,0
0,63,96,8
0,68,96,0
0,75,122,44
0,71,122,0
0,66,122,0
0,32,100,0
0,35,124,0
0,42,100,0
0,49,100,0
0,72,122,16
0,32,100,0
0,60,115,0
0,42,33,0
0,62,75,0
0,54,100,0
0,68,96,10
0,63,84,2
0,32,100,0
0,35,112,0
0,42,71,0
0,62,75,0
0,63,84,10
0,68,96,0
0,36,100,0
0,60,93,0
0,68,93,0
0,65,93,0
0,60,112,0
0,40,124,0
0,42,116,0
0,39,100,0
0,60,75,0
0,63,84,74
0,39,100,0
0,58,106,0
0,63,106,0
0,66,106,0
0,56,98,0
0,68,96,0
0,42,44,0
0,63,75,0
0,54,100,0
0,35,52,0
0,42,61,0
0,63,75,0
0,63,84,4
0,68,96,2
0,58,124,18
0,35,124,0
0,42,116,0
0,66,122,0
0,58,122,0
0,61,122,0
0,39,100,0
0,56,95,0
0,42,61,0
0,62,75,0
0,54,100,0
0,68,84,2
0,63,68,6
0,68,111,28
0,63,84,2
0,39,100,0
0,42,71,0
0,62,75,0
0,41,100,0
0,40,124,0
0,42,116,0
0,39,116,0
0,60,75,0
0,58,122,72
0,56,122,0
0,65,122,0
0,61,122,0
0,44,100,0
0,42,61,0
0,63,75,0
0,54,100,0
0,68,111,10
0,63,96,2
0,41,100,0
0,42,54,0
0,63,75,0
0,68,111,6
0,63,84,0
0,63,122,6
0,62,122,0
0,59,122,0
0,54,122,0
0,32,100,0
0,59,114,0
0,35,112,0
0,42,116,0
0,60,122,8
0,32,100,0
0,58,100,0
0,42,61,0
0,62,75,0
0,54,100,0
0,68,96,2
0,63,55,6
0,32,100,0
0,68,111,0
0,42,71,0
0,62,75,0
0,63,96,4
0,36,100,0
0,68,92,0
0,60,92,0
0,65,92,0
0,56,119,0
0,40,124,0
0,42,100,0
0,39,116,0
0,60,75,0
0,39,100,0
0,58,106,0
0,63,106,0
0,66,106,0
0,53,109,0
0,35,124,0
0,42,61,0
0,63,75,0
0,54,100,0
0,68,111,0
0,63,96,2
0,47,100,0
0,42,61,0
0,63,75,0
0,63,84,8
0,68,84,0
0,58,119,18
0,42,116,0
0,46,100,12
0,47,100,46
0,68,111,32
0,63,96,6
0,35,112,0
0,42,61,0
0,62,75,0
0,54,100,0
0,46,100,2
0,44,100,0
0,68,111,0
0,42,54,0
0,62,75,0
0,63,84,4
0,46,100,0
0,56,99,0
0,40,124,0
0,42,116,0
0,39,100,0
0,60,75,0
0,44,100,10
0,44,122,0
0,41,100,0
0,53,117,0
0,68,127,0
0,46,83,0
0,63,75,0
0,54,100,0
0,63,111,4
