track,note,velocity,time
1,34,95,2672
1,34,107,164
1,37,78,188
1,32,101,0
1,34,101,1940
1,34,110,140
1,37,77,196
1,32,104,12
1,37,107,1184
1,39,91,100
1,41,80,56
1,41,91,100
1,39,74,92
1,37,93,76
1,34,93,104
1,34,101,124
1,37,79,192
1,32,107,164
1,32,85,44
1,34,85,428
1,34,89,40
1,37,84,188
1,29,68,260
1,32,87,184
1,29,83,184
1,34,97,68
1,34,104,148
1,37,72,188
1,32,101,172
1,32,70,28
1,49,107,956
1,51,78,192
1,51,110,156
1,49,85,192
1,34,93,152
1,34,84,40
1,34,84,44
1,29,88,4
1,29,90,48
1,29,92,56
1,34,87,56
1,34,85,40
1,34,85,44
1,29,80,20
1,29,85,56
1,29,97,56
1,34,95,52
1,34,91,48
1,34,85,56
1,29,74,32
1,29,73,64
1,29,81,48
1,34,82,40
1,34,82,60
1,34,81,52
1,29,72,24
1,29,79,60
1,29,87,48
1,34,87,352
1,34,89,124
1,37,63,196
1,32,66,148
1,34,93,2028
1,34,99,144
1,37,85,184
1,32,93,0
1,32,81,52
1,32,101,1280
1,34,101,56
1,34,99,132
1,37,84,188
1,32,93,184
1,34,91,1928
1,34,97,140
1,37,85,192
1,32,97,4
1,34,113,76
1,29,106,76
1,34,116,1544
1,34,89,52
1,34,104,60
1,29,72,96
1,29,90,52
1,29,110,68
1,34,107,20
1,34,93,24
1,34,85,56
1,29,84,44
1,29,83,20
1,29,85,64
1,34,99,16
1,34,85,44
1,34,95,60
1,29,77,16
1,29,73,32
1,29,66,32
1,29,81,60
1,34,97,388
1,34,89,44
1,34,89,52
1,29,87,20
1,29,65,36
1,29,81,24
1,29,61,24
1,34,84,12332
1,34,84,228
1,32,73,4
1,34,78,196
1,32,93,1896
1,34,81,192
1,34,77,96
1,32,58,200
1,34,71,136
1,37,85,1248
1,39,67,192
1,41,77,12
1,37,77,196
1,34,81,88
1,34,78,160
1,34,60,176
1,34,70,44
1,34,58,164
1,34,82,52
1,34,77,132
1,34,57,128
1,34,84,52
1,34,56,156
1,34,71,96
1,34,68,116
1,34,78,316
1,34,39,116
1,34,64,124
1,34,87,15104
1,34,95,188
1,37,67,200
1,32,84,8
1,34,89,2060
1,34,82,168
1,37,74,200
1,32,89,52
1,34,95,144
1,34,95,20116
1,34,85,56
1,34,89,40
1,29,79,40
1,29,76,36
1,29,92,56
1,34,99,92
1,34,81,52
1,34,82,40
1,29,80,20
1,29,78,36
1,29,81,40
1,34,82,16
1,34,95,52
1,34,73,56
1,29,81,48
1,29,66,36
1,29,87,60
1,34,84,40
1,34,84,20
1,34,81,100
1,29,74,64
1,29,78,52
1,29,73,28
1,46,91,128
1,46,66,164
1,46,113,164
1,58,74,28
1,46,74,172
1,46,97,352
1,58,74,36
1,46,81,164
1,46,97,348
1,58,81,80
1,46,89,144
1,46,60,152
1,46,97,172
1,58,78,28
1,46,74,132
1,46,67,168
1,46,101,168
1,58,77,40
1,46,78,160
1,46,53,164
1,46,95,168
1,58,66,32
1,46,79,168
1,46,85,152
1,46,99,156
1,58,82,28
1,46,85,160
1,46,56,140
1,46,91,168
1,58,79,16
1,46,84,148
1,46,61,164
1,46,107,168
1,58,79,32
1,46,87,156
1,46,64,168
1,46,104,168
1,58,89,36
1,46,82,160
1,46,101,352
1,58,79,28
1,46,79,140
1,46,101,360
1,58,82,24
1,46,85,128
1,46,66,164
1,46,99,168
1,58,75,20
1,46,91,132
1,46,84,160
1,46,99,160
1,58,72,8
1,46,85,140
1,46,99,348
1,58,68,20
1,46,56,152
1,46,99,364
1,58,67,12
1,46,53,344
1,46,77,164
1,58,67,40
1,46,60,160
1,46,60,176
1,46,97,172
1,58,73,32
1,46,82,160
1,46,81,336
1,46,81,304
1,46,51,148
1,46,70,168
1,46,52,148
1,32,97,160
1,32,99,176
1,32,70,80
1,32,74,128
1,32,97,144
1,32,66,104
1,32,75,136
1,32,91,152
1,32,64,112
1,32,84,140
1,32,87,144
1,32,72,84
1,31,73,32
1,31,80,124
1,31,66,108
1,31,80,120
1,31,78,128
1,31,80,104
1,31,67,96
1,31,83,120
1,31,68,100
1,31,71,116
1,31,79,120
1,31,73,100
1,30,65,48
1,30,77,136
1,30,61,104
1,30,79,132
1,30,75,144
1,30,67,104
1,30,75,144
1,30,77,136
1,30,68,92
1,30,75,120
1,30,89,124
1,30,77,92
1,34,67,68
1,34,95,132
1,34,65,116
1,34,68,144
1,34,89,144
1,34,73,88
1,29,76,180
1,29,80,140
1,29,76,84
1,34,99,140
1,34,89,56
1,34,85,52
1,29,74,40
1,29,87,68
1,29,78,100
1,29,70,92
1,32,61,8
1,32,72,112
1,32,53,64
1,32,64,116
1,32,72,124
1,32,66,76
1,32,62,84
1,32,68,100
1,32,49,84
1,32,68,128
1,32,77,112
1,32,63,60
1,31,73,16
1,31,81,128
1,31,70,76
1,31,63,108
1,31,73,128
1,31,69,96
1,31,69,108
1,31,75,132
1,31,69,68
1,31,74,100
1,31,80,112
1,31,74,76
1,30,70,32
1,30,77,120
1,30,65,80
1,30,64,120
1,30,72,124
1,30,61,80
1,30,60,116
1,30,73,84
1,30,71,96
1,29,70,28
1,29,80,88
1,29,67,76
1,34,78,28
1,34,91,80
1,34,84,64
1,29,64,48
1,29,70,44
1,29,79,4
1,34,73,52
1,34,81,56
1,34,77,120
1,29,64,24
1,29,74,64
1,29,70,40
1,29,75,84
1,32,56,72
1,32,67,148
1,32,56,80
1,32,63,52
1,32,67,28
1,32,59,92
1,32,68,132
1,32,67,124
1,32,44,44
1,32,53,72
1,32,67,56
1,32,65,4
1,31,67,12
1,31,78,116
1,31,70,64
1,31,66,80
1,31,70,80
1,31,64,16
1,31,61,92
1,31,72,76
1,31,66,68
1,31,70,100
1,31,73,88
1,31,72,40
1,30,67,20
1,30,71,104
1,30,62,96
1,30,67,96
1,30,72,92
1,30,62,56
1,30,67,40
1,30,73,16
1,30,72,88
1,29,69,152
1,29,73,76
1,29,65,52
1,34,74,60
2,34,108,2652
2,34,109,216
2,37,102,0
2,32,110,20
2,32,111,1564
2,34,109,0
2,34,108,68
2,34,106,68
2,37,105,0
2,32,108,0
2,29,110,124
2,27,106,0
2,34,108,848
2,34,104,48
2,34,108,68
2,37,101,0
2,32,108,20
2,32,112,1724
2,34,104,0
2,34,104,52
2,34,103,60
2,37,104,0
2,32,108,8
2,29,107,16
2,29,106,416
2,32,108,0
2,34,108,196
2,34,107,12
2,34,105,12
2,29,102,60
2,29,103,12
2,29,107,12
2,34,108,104
2,34,105,4
2,34,105,12
2,29,104,4
2,29,104,4
2,29,105,4
2,34,107,96
2,34,104,20
2,34,105,12
2,29,103,12
2,29,103,20
2,29,104,4
2,34,109,84
2,34,104,8
2,34,103,8
2,29,105,0
2,29,102,8
2,29,104,12
2,29,105,4
2,32,108,192
2,34,111,4
2,34,105,8
2,34,106,8
2,37,104,0
2,32,105,0
2,34,107,1984
2,34,109,164
2,37,102,0
2,32,104,0
2,34,107,136
2,34,107,1384
2,34,108,176
2,37,101,0
2,32,106,0
2,34,107,2112
2,34,108,168
2,37,103,0
2,32,107,0
2,34,107,116
2,29,108,144
2,34,103,40
2,34,103,8
2,34,101,8
2,29,103,68
2,29,104,12
2,29,102,4
2,34,102,92
2,34,100,12
2,34,102,8
2,29,102,32
2,29,103,12
2,29,102,4
2,34,104,48
2,34,103,4
2,34,101,12
2,29,102,36
2,29,101,4
2,29,102,4
2,34,102,100
2,34,102,12
2,34,102,4
2,29,100,28
2,29,100,12
2,29,101,4
2,34,105,84
2,34,100,48
2,34,96,32
2,32,100,0
2,34,103,0
2,34,102,1020
2,34,103,40
2,32,102,104
2,34,101,0
2,32,98,1484
2,32,101,36
2,34,103,176
2,34,103,32
2,32,100,44
2,34,101,0
2,32,100,1936
2,34,103,0
2,34,103,116
2,32,99,0
2,34,103,0
2,49,108,780
2,49,111,148
2,49,110,64
2,34,107,1028
2,34,109,188
2,32,101,0
2,34,109,20
2,34,107,1872
2,34,105,192
2,32,101,0
2,34,105,0
2,32,107,1916
2,34,102,0
2,34,97,96
2,34,96,100
2,34,94,104
2,34,96,96
2,34,94,100
2,34,97,116
2,34,96,108
2,34,98,112
2,34,95,112
2,34,97,112
2,34,97,120
2,34,99,120
2,34,97,120
2,34,97,116
2,34,99,112
2,34,99,120
2,34,98,120
2,34,98,112
2,34,98,124
2,34,99,120
2,34,100,120
2,34,99,124
2,34,100,124
2,34,101,132
2,34,106,1820
2,34,104,16
2,34,104,8
2,29,104,52
2,29,103,4
2,29,102,4
2,34,104,120
2,34,103,16
2,34,103,20
2,29,101,32
2,29,102,4
2,29,102,8
2,34,105,48
2,34,104,4
2,34,101,16
2,29,101,12
2,29,102,12
2,29,100,12
2,34,102,76
2,34,103,12
2,34,103,4
2,29,104,20
2,29,104,4
2,29,102,12
2,34,108,188
2,34,110,208
2,37,101,0
2,32,109,16
2,32,110,1776
2,34,107,0
2,34,104,48
2,34,107,56
2,37,104,0
2,32,107,12
2,34,108,148
2,34,108,1504
2,34,111,212
2,37,103,0
2,32,108,0
2,29,107,8
2,34,108,1292
2,34,104,32
2,34,102,44
2,37,101,0
2,32,105,16
2,34,106,128
2,34,108,1652
2,34,108,140
2,37,103,0
2,32,105,12
2,34,104,2088
2,34,102,60
2,34,103,20
2,37,104,0
2,32,103,4
2,34,106,124
2,34,109,1672
2,34,109,152
2,37,103,0
2,32,107,12
2,32,110,1808
2,34,106,0
2,34,105,28
2,34,103,32
2,37,105,0
2,32,108,12
2,34,111,144
2,34,107,1448
2,34,103,16
2,34,104,8
2,29,100,16
2,29,103,12
2,29,104,4
2,34,105,112
2,34,104,12
2,34,103,4
2,29,102,4
2,29,102,16
2,29,103,8
2,34,103,20
2,34,104,4
2,34,100,4
2,29,102,12
2,29,103,4
2,29,102,8
2,34,103,12
2,34,101,4
2,34,102,12
2,29,102,4
2,29,100,8
2,29,103,8
2,34,100,288
2,37,96,428
2,32,99,80
2,32,97,1212
2,34,101,68
2,34,100,264
2,32,96,64
2,34,100,80
2,34,99,88
2,34,105,96
2,37,105,64
2,32,104,76
2,32,104,244
2,29,104,664
2,32,104,44
2,32,104,188
2,34,102,208
2,34,103,192
2,37,99,0
2,32,101,80
2,32,101,1412
2,32,102,100
2,34,98,176
2,34,98,88
2,34,99,68
2,37,97,52
2,32,101,56
2,34,102,212
2,29,109,1368
2,27,101,4
2,32,95,2776
2,32,101,100
2,32,97,48
2,32,97,60
2,32,101,76
2,32,94,48
2,32,96,84
2,32,103,104
2,32,96,60
2,32,94,76
2,32,107,88
2,32,101,44
2,31,99,16
2,31,103,104
2,31,98,80
2,31,98,104
2,31,106,104
2,31,96,92
2,31,98,112
2,31,105,112
2,31,99,76
2,31,99,72
2,31,106,108
2,31,103,68
2,30,100,0
2,30,100,64
2,30,98,72
2,30,98,104
2,30,104,112
2,30,97,68
2,30,98,112
2,30,104,116
2,30,98,56
2,30,99,72
2,30,102,92
2,30,101,64
2,34,100,24
2,34,102,92
2,34,96,96
2,34,102,128
2,34,107,116
2,34,105,84
2,29,104,0
2,29,101,112
2,29,108,116
2,29,109,72
2,29,109,84
2,34,103,48
2,34,105,12
2,34,106,4
2,29,105,56
2,29,103,20
2,29,106,12
2,29,106,8
2,32,98,8
2,32,103,36
2,32,97,52
2,32,97,44
2,32,104,48
2,32,93,100
2,32,96,64
2,32,106,52
2,32,99,72
2,32,100,44
2,32,103,56
2,32,103,76
2,31,102,36
2,31,101,68
2,31,98,84
2,31,99,84
2,31,104,64
2,31,97,80
2,31,98,92
2,31,103,68
2,31,99,76
2,31,97,84
2,31,103,92
2,31,100,84
2,30,100,0
2,30,101,60
2,30,99,76
2,30,98,80
2,30,102,64
2,30,95,60
2,30,98,76
2,30,103,64
2,30,102,76
2,29,104,20
2,29,102,44
2,29,102,72
2,34,101,32
2,34,105,12
2,34,106,8
2,29,103,44
2,29,102,16
2,29,104,8
2,29,100,4
2,34,105,16
2,34,108,4
2,34,106,12
2,29,100,4
2,29,100,48
2,29,104,48
2,29,105,4
2,32,98,116
2,32,96,32
2,32,96,80
2,32,92,48
2,32,100,44
2,32,95,88
2,32,96,72
2,32,102,52
2,32,91,52
2,32,95,64
2,32,102,60
2,32,97,8
2,31,97,8
2,31,103,100
2,31,96,104
2,31,95,92
2,31,103,72
2,31,92,28
2,31,99,4
2,31,103,60
2,31,95,64
2,31,96,84
2,31,103,68
2,31,100,44
2,30,95,0
2,30,100,0
2,30,94,88
2,30,96,104
2,30,102,84
2,30,93,68
2,30,97,44
2,30,103,20
2,30,100,68
2,29,101,0
2,29,102,68
2,29,102,80
2,34,127,56
3,58,109,51784
3,63,103,0
3,61,102,0
3,65,109,4
3,67,110,3112
3,68,102,3020
3,70,103,68
3,58,101,12
3,61,97,0
3,63,97,1512
3,65,105,1532
3,67,106,3044
3,68,102,3080
3,58,107,67468
3,56,106,0
3,62,111,4
3,63,105,4
3,65,108,8
3,58,105,4
3,58,105,40
3,65,108,24
3,61,111,4592
3,58,111,0
3,56,109,0
3,63,105,20
3,58,102,4
3,65,108,0
3,61,102,80
3,58,97,4
3,57,104,36
3,63,101,0
3,60,113,12
4,70,105,1648
4,73,98,76
4,73,117,108
4,73,117,208
4,70,113,72
4,68,97,192
4,70,107,20
4,68,95,192
4,70,111,24
4,70,110,160
4,73,102,196
4,73,116,408
4,73,104,24
4,73,119,188
4,70,110,88
4,68,93,196
4,70,106,24
4,68,92,192
4,70,111,24
4,70,113,96
4,68,107,376
4,73,100,4
4,73,104,80
4,73,107,76
4,70,97,64
4,73,107,72
4,73,105,72
4,73,111,188
4,70,107,68
4,70,110,84
4,68,99,188
4,70,110,20
4,70,104,64
4,73,110,180
4,73,107,164
4,73,113,84
4,70,94,192
4,73,106,68
4,73,106,112
4,70,92,192
4,73,102,72
4,70,91,192
4,70,113,76
4,70,111,180
4,68,94,192
4,70,111,24
4,70,113,172
4,82,114,204
4,73,101,11896
4,73,114,104
4,70,94,196
4,73,110,96
4,70,95,80
4,73,114,100
4,70,100,72
4,70,108,112
4,68,91,4
4,70,113,84
4,70,104,104
4,73,107,76
4,73,100,100
4,73,108,88
4,70,91,12
4,73,103,84
4,73,113,120
4,70,91,0
4,73,104,28
4,70,106,192
4,68,89,0
4,70,103,64
4,70,104,68
4,70,107,204
4,70,100,188
4,73,103,68
4,73,98,168
4,73,107,80
4,73,114,96
4,70,100,104
4,70,101,84
4,68,91,4
4,70,105,72
4,70,103,80
4,73,104,192
4,73,107,172
4,70,91,0
4,73,104,76
4,73,107,112
4,70,90,200
4,73,100,24
4,70,93,192
4,68,103,580
4,73,100,24
4,73,107,112
4,70,107,112
4,68,91,192
4,73,100,28
4,70,97,16
4,70,104,92
4,68,96,192
4,70,106,16
4,73,101,840
4,73,104,112
4,70,101,72
4,68,96,192
4,73,100,76
4,70,98,16
4,70,100,76
4,68,98,188
4,70,106,64
4,73,106,688
4,73,106,100
4,70,105,88
4,68,92,4
4,73,105,76
4,70,96,188
4,70,104,76
4,68,96,4
4,70,108,56
4,73,106,776
4,73,107,108
4,70,107,96
4,68,94,4
4,73,103,80
4,70,98,16
4,70,102,72
4,68,97,0
4,70,108,56
4,73,113,1252
4,70,92,16
4,73,101,80
4,70,97,64
4,70,100,84
4,68,91,192
4,70,101,0
4,73,100,192
4,73,105,64
4,73,106,164
4,72,98,20
4,70,97,8
4,70,102,68
4,73,97,64
4,73,111,92
4,70,91,8
4,73,106,64
4,73,101,160
4,70,93,4
4,73,100,72
4,70,97,20
4,70,101,84
4,68,90,192
4,70,104,64
4,70,100,72
4,73,100,60
4,70,110,68
4,73,108,448
4,73,110,80
4,73,111,112
4,70,98,28
4,70,103,88
4,70,105,120
4,68,101,108
4,73,100,16
4,73,101,168
4,70,91,0
4,73,104,80
4,73,100,108
4,70,90,0
4,73,97,72
4,70,95,20
4,70,102,88
4,68,90,192
4,70,103,72
4,70,99,80
4,73,102,68
4,70,104,180
4,73,97,188
4,73,101,72
4,70,96,192
4,73,100,68
