track,note,velocity,time
1,67,100,96
1,67,100,672
1,65,100,4
1,65,100,4
1,55,100,11716
1,62,100,4
1,62,100,4
1,60,100,4
1,62,100,4
1,60,100,4
1,62,100,4
1,60,100,4
1,60,100,4
1,58,100,4
1,58,100,4
1,56,100,4
1,55,100,4
1,53,100,4
1,53,100,4
1,67,100,292
1,65,100,4
1,63,100,4
1,62,100,4
1,60,100,4
1,60,100,196
1,60,100,4
1,62,100,4
1,63,100,4
1,65,100,4
1,62,100,4
1,60,100,4
1,62,100,4
1,72,100,964
1,67,68,0
1,67,100,4
1,63,68,0
1,63,100,4
1,67,68,0
1,62,100,4
1,65,68,0
1,63,100,4
1,67,68,0
1,63,100,4
1,67,68,0
1,67,100,4
1,65,100,4
1,65,100,4
1,63,100,4
1,62,100,4
1,60,100,4
1,60,100,4
1,55,100,196
1,62,100,4
1,62,100,4
1,60,100,4
1,62,100,4
1,60,100,4
1,62,100,4
1,60,100,100
1,60,100,4
1,63,100,4
1,67,100,4
1,65,100,4
1,65,100,4
1,63,100,4
1,62,100,4
1,60,100,4
1,46,100,864
1,58,100,0
1,53,100,0
1,48,100,64
1,60,100,0
1,55,100,0
1,48,100,128
1,60,100,0
1,56,100,0
1,48,100,128
1,60,100,0
1,56,100,0
1,60,100,96
1,56,100,0
1,48,100,0
1,55,100,2048
1,60,100,0
1,48,100,0
1,55,100,128
1,60,100,0
1,48,100,0
1,55,100,128
1,60,100,0
1,48,100,0
1,46,100,1472
1,58,100,0
1,53,100,0
1,48,100,64
1,60,100,0
1,55,100,0
1,48,100,128
1,60,100,0
1,56,100,0
1,48,100,128
1,60,100,0
1,56,100,0
1,60,100,128
1,56,100,0
1,48,100,0
1,58,100,1664
1,60,100,4
1,67,100,4
1,65,100,4
1,65,100,4
1,63,100,4
1,67,100,4
1,67,100,4
1,67,100,4
1,65,100,4
1,65,100,4
1,65,100,4
1,63,100,4
1,65,100,4
1,67,100,4
1,65,100,4
1,63,100,4
1,60,100,4
1,63,100,4
1,65,100,4
1,67,100,4
1,67,100,4
1,70,100,4
1,67,100,4
1,67,100,4
1,65,100,4
1,65,100,196
1,65,100,4
1,63,100,4
1,65,100,4
1,67,100,4
1,65,100,4
1,63,100,4
1,60,100,4
1,63,100,4
1,65,100,4
1,67,100,4
1,67,100,4
1,70,100,4
1,72,100,4
1,67,100,4
1,65,100,4
1,60,100,4
1,65,100,4
1,65,100,4
1,63,100,4
1,65,100,4
1,67,100,4
1,65,100,4
1,63,100,4
1,60,100,4
1,63,100,4
1,65,100,4
1,67,100,4
1,67,100,4
1,68,100,4
1,67,100,4
1,67,100,4
1,65,100,4
1,55,100,2692
1,62,100,4
1,62,100,4
1,60,100,4
1,62,100,4
1,60,100,4
1,62,100,4
1,60,100,4
1,60,100,4
1,58,100,4
1,58,100,4
1,56,100,4
1,55,100,4
1,53,100,4
1,53,100,4
1,62,75,196
1,67,100,0
1,62,75,4
1,65,100,0
1,67,75,4
1,63,100,0
1,65,75,4
1,62,100,0
1,63,75,4
1,60,100,0
1,60,100,4
1,60,100,4
1,60,100,4
1,62,100,4
1,63,100,4
1,65,100,4
1,62,100,4
1,60,100,4
1,62,100,4
1,67,75,964
1,72,100,0
1,63,75,4
1,67,100,0
1,67,75,4
1,63,100,0
1,65,75,4
1,62,100,0
1,67,75,4
1,63,100,0
1,67,75,4
1,63,100,0
1,65,100,4
1,67,100,4
1,65,100,4
1,65,100,4
1,63,100,4
1,62,100,4
1,60,100,4
1,60,100,4
1,65,75,100
1,62,100,0
1,65,75,4
1,62,100,0
1,65,75,4
1,62,100,0
1,67,75,4
1,63,100,0
1,65,75,4
1,62,100,0
1,63,75,4
1,60,100,0
1,63,75,4
1,60,100,0
1,63,75,4
1,67,100,0
1,67,75,4
1,72,100,0
1,63,75,4
1,67,100,0
1,62,75,4
1,65,100,0
1,60,75,4
1,63,100,0
1,60,75,4
1,63,100,0
1,63,75,4
1,67,100,0
1,62,75,4
1,65,100,0
1,60,75,4
1,63,100,0
1,60,75,4
1,65,100,0
1,60,75,4
1,63,100,0
1,58,75,4
1,62,100,0
1,60,75,4
1,63,100,0
1,63,75,4
1,60,100,0
1,67,100,4900
1,67,100,4
1,65,100,4
1,65,100,4
1,65,100,4
1,63,100,4
1,65,100,4
1,67,100,4
1,65,100,4
1,63,100,4
1,60,100,4
1,63,100,4
1,51,100,0
1,65,100,4
1,53,100,0
1,67,100,4
1,67,100,4
1,68,100,4
1,67,100,4
1,67,100,4
1,65,100,4
1,65,100,4
1,65,100,4
1,63,100,4
1,65,100,4
1,67,100,4
1,65,100,4
1,63,100,4
1,60,100,4
1,63,100,4
1,51,100,0
1,65,100,4
1,53,100,0
1,67,100,4
1,67,100,4
1,70,100,4
1,72,100,4
1,67,100,4
1,65,100,4
1,60,100,4
1,46,100,2500
1,53,100,0
1,41,100,0
1,48,100,64
1,55,100,0
1,43,100,0
1,48,100,128
1,56,100,0
1,44,100,0
1,48,100,128
1,56,100,0
1,44,100,0
1,56,100,128
1,48,100,0
1,44,100,0
1,55,100,2048
1,60,100,0
1,48,100,0
1,55,100,128
1,60,100,0
1,48,100,0
1,55,100,128
1,60,100,0
1,48,100,0
1,46,100,1472
1,53,100,0
1,41,100,0
1,48,100,64
1,55,100,0
1,43,100,0
1,48,100,128
1,56,100,0
1,44,100,0
1,48,100,128
1,56,100,0
1,44,100,0
1,56,100,128
1,48,100,0
1,44,100,0
1,59,100,2048
1,55,100,0
1,43,100,0
1,59,100,192
1,55,100,0
1,43,100,0
1,58,100,64
1,50,100,0
1,46,100,0
1,51,100,5504
1,63,100,0
1,53,100,128
1,65,100,0
1,51,100,5504
1,63,100,0
1,53,100,128
1,65,100,0
1,67,100,128
1,67,100,4
1,70,100,4
1,72,100,4
1,67,100,4
1,65,100,4
1,60,100,4
1,65,100,4
1,65,100,4
1,63,100,4
1,65,100,4
1,67,100,4
1,65,100,4
1,63,100,4
1,60,100,4
1,63,100,4
1,51,100,0
1,65,100,4
1,53,100,0
1,67,84,4
1,67,84,4
1,68,84,4
1,67,84,4
1,67,84,4
1,65,84,4
1,65,70,4
1,65,70,4
1,63,70,4
1,65,70,4
1,67,70,4
1,65,70,4
1,63,70,4
1,60,70,4
1,63,70,4
1,51,70,0
1,65,70,4
1,53,70,0
1,67,58,4
1,67,58,4
1,68,58,4
1,67,58,4
1,67,58,4
1,65,58,4
1,65,46,4
1,65,46,4
1,63,46,4
1,65,46,4
1,67,46,4
1,65,46,4
1,63,46,4
1,60,46,4
1,63,46,4
1,51,46,0
1,65,46,4
1,53,46,0
1,67,37,4
1,67,37,4
1,68,37,4
1,67,37,4
1,67,37,4
1,65,37,4
1,65,26,4
1,65,26,4
1,63,26,4
1,65,26,4
1,67,26,4
1,65,20,4
1,63,20,4
1,60,20,4
1,63,20,4
1,51,20,0
1,65,20,4
1,53,20,0
2,67,100,96
2,67,100,672
2,65,100,4
2,65,100,4
2,60,100,1536
2,67,100,128
2,62,100,64
2,63,100,196
2,65,100,256
2,72,100,128
2,67,100,64
2,65,100,964
2,72,100,128
2,67,100,64
2,68,100,196
2,74,100,256
2,72,100,128
2,75,100,64
2,75,100,4
2,74,100,64
2,72,100,64
2,67,100,64
2,63,100,64
2,62,100,64
2,60,100,64
2,48,100,192
2,56,100,4
2,44,100,0
2,53,100,4
2,41,100,0
2,60,64,4
2,48,100,0
2,56,100,4
2,44,100,0
2,60,100,4
2,48,100,0
2,58,100,4
2,46,100,0
2,61,100,4
2,49,100,0
2,65,100,4
2,53,100,0
2,60,64,4
2,48,100,0
2,56,100,4
2,44,100,0
2,53,100,4
2,41,100,0
2,60,100,1024
2,72,100,0
2,68,100,0
2,60,100,128
2,72,100,0
2,68,100,0
2,72,100,128
2,68,100,0
2,60,100,0
2,84,100,2048
2,72,100,0
2,79,100,128
2,67,100,0
2,77,100,128
2,65,100,0
2,75,100,32
2,63,100,0
2,75,100,32
2,63,100,0
2,70,100,4
2,58,100,0
2,72,100,4
2,60,100,0
2,66,100,4
2,54,100,0
2,63,100,4
2,51,100,0
2,63,100,292
2,51,100,0
2,63,100,128
2,51,100,0
2,63,100,128
2,51,100,0
2,67,100,32
2,55,100,0
2,66,100,0
2,54,100,0
2,63,100,4
2,51,100,0
2,67,100,4
2,54,100,0
2,66,100,4
2,54,100,0
2,51,100,4
2,63,100,0
2,67,100,4
2,55,100,0
2,67,100,4
2,67,100,4
2,65,100,4
2,65,100,4
2,65,100,4
2,63,100,4
2,65,100,4
2,67,100,4
2,65,100,4
2,63,100,4
2,60,100,4
2,63,100,4
2,65,100,4
2,67,100,4
2,67,100,4
2,70,100,4
2,67,100,4
2,67,100,4
2,65,100,4
2,65,100,196
2,65,100,4
2,63,100,4
2,65,100,4
2,67,100,4
2,65,100,4
2,63,100,4
2,60,100,4
2,63,100,4
2,65,100,4
2,67,100,4
2,67,100,4
2,70,100,4
2,72,100,4
2,67,100,4
2,65,100,4
2,60,100,4
2,65,100,4
2,65,100,4
2,63,100,4
2,65,100,4
2,67,100,4
2,65,100,4
2,63,100,4
2,60,100,4
2,63,100,4
2,65,100,4
2,67,100,4
2,67,100,4
2,68,100,4
2,67,100,4
2,67,100,4
2,65,100,4
2,79,100,4
2,67,100,0
2,79,100,4
2,67,100,0
2,79,100,4
2,67,100,0
2,60,64,4
2,48,100,0
2,56,100,4
2,44,100,0
2,53,100,4
2,41,100,0
2,60,64,4
2,48,100,0
2,56,100,4
2,44,100,0
2,60,100,4
2,48,100,0
2,58,100,4
2,46,100,0
2,61,100,4
2,49,100,0
2,65,100,4
2,53,100,0
2,60,64,4
2,48,100,0
2,56,100,4
2,44,100,0
2,53,100,4
2,41,100,0
2,67,100,7168
2,67,100,4
2,65,100,4
2,65,100,4
2,65,100,4
2,63,100,4
2,65,100,4
2,67,100,4
2,65,100,4
2,63,100,4
2,60,100,4
2,63,100,4
2,51,100,0
2,65,100,128
2,53,100,0
2,67,100,128
2,67,100,4
2,68,100,4
2,67,100,4
2,67,100,4
2,65,100,4
2,65,100,4
2,65,100,4
2,63,100,4
2,65,100,4
2,67,100,4
2,65,100,4
2,63,100,4
2,60,100,4
2,63,100,4
2,51,100,0
2,65,100,128
2,53,100,0
2,67,100,128
2,67,100,4
2,70,100,4
2,72,100,4
2,67,100,4
2,65,100,4
2,60,100,4
2,79,100,4
2,67,100,0
2,79,100,4
2,67,100,0
2,79,100,4
2,67,100,0
2,60,100,4
2,68,100,0
2,56,100,0
2,60,100,128
2,68,100,0
2,56,100,0
2,68,100,128
2,60,100,0
2,56,100,0
2,63,100,2048
2,51,100,0
2,72,100,0
2,63,100,128
2,51,100,0
2,67,100,0
2,63,100,128
2,51,100,0
2,65,100,0
2,67,100,32
2,55,100,0
2,63,100,0
2,79,100,288
2,67,100,0
2,77,100,4
2,65,100,0
2,79,100,4
2,67,100,0
2,75,100,4
2,63,100,0
2,70,100,4
2,58,100,0
2,72,100,4
2,60,100,0
2,60,100,4
2,68,100,0
2,56,100,0
2,60,100,128
2,68,100,0
2,56,100,0
2,60,100,128
2,56,100,0
2,68,100,0
2,72,100,4
2,68,100,0
2,67,100,1636
2,59,100,0
2,55,100,0
2,67,100,192
2,59,100,0
2,55,100,0
2,70,100,64
2,62,100,0
2,58,100,0
2,51,100,5504
2,63,100,0
2,53,100,128
2,65,100,0
2,51,100,5504
2,63,100,0
2,53,100,128
2,65,100,0
2,67,100,128
2,67,100,4
2,70,100,4
2,72,100,4
2,67,100,4
2,65,100,4
2,60,100,4
2,65,100,4
2,65,100,4
2,63,100,4
2,65,100,4
2,67,100,4
2,65,100,4
2,63,100,4
2,60,100,4
2,63,100,4
2,51,100,0
2,65,100,128
2,53,100,0
2,67,103,128
2,67,103,4
2,68,103,4
2,67,103,4
2,67,103,4
2,65,103,4
2,65,86,4
2,65,86,4
2,63,86,4
2,65,86,4
2,67,86,4
2,65,86,4
2,63,86,4
2,60,86,4
2,67,86,0
2,63,86,4
2,51,86,0
2,65,86,4
2,53,86,0
2,67,72,128
2,67,72,4
2,68,72,4
2,67,72,4
2,67,72,4
2,65,72,4
2,65,58,4
2,65,58,4
2,63,58,4
2,65,58,4
2,67,58,4
2,65,58,4
2,63,58,4
2,60,58,4
2,63,58,4
2,51,58,0
2,65,58,128
2,53,58,0
2,67,48,128
2,67,48,4
2,68,48,4
2,67,48,4
2,67,48,4
2,65,48,4
2,65,32,4
2,65,32,4
2,63,32,4
2,65,32,4
2,67,32,4
2,65,24,4
2,63,24,4
2,60,24,4
2,63,24,4
2,51,24,0
2,65,24,128
2,53,24,0
3,60,100,3072
3,72,100,0
3,67,100,384
3,79,100,0
3,62,100,192
3,74,100,0
3,63,100,196
3,75,100,0
3,65,100,4
3,77,100,0
3,72,100,384
3,67,100,192
3,79,100,0
3,65,100,964
3,77,100,0
3,72,100,384
3,67,100,192
3,79,100,0
3,68,100,196
3,74,100,4
3,72,100,384
3,75,100,192
3,75,100,196
3,74,100,4
3,72,100,4
3,67,100,4
3,63,100,4
3,62,100,4
3,67,100,58372
3,55,100,0
3,67,100,4
3,55,100,0
3,67,100,47620
3,55,100,0
3,67,100,4
3,55,100,0
4,51,96,112896
4,39,96,0
4,53,96,260
4,41,96,0
4,51,96,5636
4,39,96,0
4,53,96,260
4,41,96,0
4,60,96,25220
4,72,96,0
4,72,96,128
4,60,96,0
4,58,96,1088
4,70,96,0
4,72,96,96
4,60,96,0
4,75,96,64
4,63,96,0
4,70,96,64
4,58,96,0
4,72,96,64
4,60,96,0
4,70,96,64
4,58,96,0
4,70,96,4
4,58,96,0
4,72,96,192
4,60,96,0
4,60,96,3456
4,72,96,0
4,72,96,128
4,60,96,0
4,58,96,1088
4,70,96,0
4,72,96,96
4,60,96,0
4,75,96,64
4,63,96,0
4,70,96,64
4,58,96,0
4,72,96,64
4,60,96,0
4,70,96,64
4,58,96,0
4,70,96,4
4,58,96,0
4,72,96,192
4,60,96,0
4,51,96,2304
4,39,96,0
4,53,96,260
4,41,96,0
4,60,79,644
4,72,79,0
4,72,79,128
4,60,79,0
4,58,79,1088
4,70,79,0
4,72,79,96
4,60,79,0
4,75,79,64
4,63,79,0
4,70,79,64
4,58,79,0
4,72,79,64
4,60,79,0
4,70,79,64
4,58,79,0
4,70,79,4
4,58,79,0
4,72,79,192
4,60,79,0
4,51,64,2304
4,39,64,0
4,53,64,260
4,41,64,0
4,60,53,644
4,72,53,0
4,72,53,128
4,60,53,0
4,58,53,1088
4,70,53,0
4,72,53,96
4,60,53,0
4,75,53,64
4,63,53,0
4,70,53,64
4,58,53,0
4,72,53,64
4,60,53,0
4,70,53,64
4,58,53,0
4,70,53,4
4,58,53,0
4,72,53,192
4,60,53,0
4,51,44,2304
4,39,44,0
4,53,44,260
4,41,44,0
4,60,35,644
4,72,35,0
4,72,35,128
4,60,35,0
4,58,35,1088
4,70,35,0
4,72,35,96
4,60,35,0
4,75,35,64
4,63,35,0
4,70,35,64
4,58,35,0
4,72,35,64
4,60,35,0
4,70,35,64
4,58,35,0
4,70,35,4
4,58,35,0
4,72,35,192
4,60,35,0
4,51,20,2304
4,39,20,0
4,53,20,260
4,41,20,0
5,96,100,101376
5,91,100,580
5,94,100,4
5,96,100,4
5,94,100,4
5,91,100,1156
5,87,100,1156
5,87,100,4
5,89,100,4
5,91,100,4
5,96,100,4
5,91,100,580
5,94,100,4
5,96,100,4
5,94,100,4
5,91,100,1156
5,87,100,1156
5,87,100,4
5,89,100,4
5,91,100,4
5,96,100,4
5,91,100,580
5,94,100,4
5,96,100,4
5,94,100,4
5,91,100,1156
5,87,100,1156
5,87,100,4
5,89,100,4
5,91,100,4
5,96,100,4
5,91,100,580
5,94,100,4
5,96,100,4
5,94,100,4
5,96,100,16516
5,91,100,580
5,94,100,4
5,96,100,4
5,94,100,4
5,91,100,1156
5,87,100,1156
5,87,100,4
5,89,100,4
5,91,100,4
5,96,100,4
5,91,100,580
5,94,100,4
5,96,100,4
5,94,100,4
5,91,100,1156
5,87,100,1156
