track,note,velocity,time
4,34,97,3360
4,34,0,76
4,34,56,212
4,34,0,77
4,34,87,19
4,34,0,364
4,33,103,20
4,33,0,76
4,33,54,212
4,33,0,77
4,33,89,19
4,33,0,364
4,32,102,20
4,32,0,76
4,32,52,212
4,32,0,77
4,32,94,19
4,32,0,364
4,31,101,20
4,31,0,76
4,31,50,212
4,31,0,77
4,31,87,19
4,31,0,364
4,30,102,20
4,30,0,76
4,30,55,212
4,30,0,77
4,30,88,19
4,30,0,364
4,29,99,20
4,29,0,76
4,29,53,212
4,29,0,77
4,29,90,19
4,29,0,364
4,34,97,20
4,34,0,76
4,34,54,212
4,34,0,77
4,34,88,19
4,34,0,364
4,34,103,20
4,34,0,79
4,34,60,209
4,34,0,66
4,29,81,126
4,29,0,94
4,32,97,2
4,32,0,175
4,34,101,17
4,34,0,76
4,34,52,212
4,34,0,77
4,34,90,19
4,34,0,364
4,33,100,20
4,33,0,76
4,33,51,212
4,33,0,77
4,33,92,19
4,33,0,364
4,32,100,20
4,32,0,76
4,32,55,212
4,32,0,77
4,32,89,19
4,32,0,364
4,31,97,20
4,31,0,76
4,31,52,212
4,31,0,77
4,31,91,19
4,31,0,364
4,30,102,20
4,30,0,76
4,30,51,212
4,30,0,77
4,30,87,19
4,30,0,364
4,29,96,20
4,29,0,76
4,29,50,212
4,29,0,77
4,29,91,19
4,29,0,364
4,34,102,20
4,34,0,76
4,34,57,212
4,34,0,77
4,34,90,19
4,34,0,364
4,34,102,20
4,34,0,79
4,34,59,209
4,34,0,66
4,29,75,126
4,29,0,94
4,32,97,2
4,32,0,175
4,34,96,17
4,34,0,76
4,34,57,212
4,34,0,77
4,34,90,19
4,34,0,364
4,33,101,20
4,33,0,76
4,33,53,212
4,33,0,77
4,33,91,19
4,33,0,364
4,32,102,20
4,32,0,76
4,32,53,212
4,32,0,77
4,32,91,19
4,32,0,364
4,31,97,20
4,31,0,76
4,31,56,212
4,31,0,77
4,31,90,19
4,31,0,364
4,30,101,20
4,30,0,76
4,30,51,212
4,30,0,77
4,30,92,19
4,30,0,364
4,29,102,20
4,29,0,76
4,29,56,212
4,29,0,77
4,29,91,19
4,29,0,364
4,34,103,20
4,34,0,76
4,34,52,212
4,34,0,77
4,34,87,19
4,34,0,364
4,34,103,20
4,34,0,79
4,34,62,209
4,34,0,66
4,36,75,126
4,36,0,94
4,37,97,2
4,37,0,190
4,39,90,2
4,39,0,140
4,39,82,148
4,39,0,286
4,30,85,2
4,30,0,191
4,32,84,1
4,32,0,193
4,32,89,95
4,32,0,286
4,36,90,2
4,36,0,190
4,37,88,2
4,37,0,286
4,39,86,2
4,39,0,269
4,29,94,19
4,29,0,191
4,30,104,1
4,30,0,216
4,30,99,72
4,30,0,190
4,34,73,7
4,34,0,92
4,37,90,1
4,37,0,188
4,39,89,2
4,39,0,140
4,39,80,148
4,39,0,286
4,30,85,2
4,30,0,191
4,32,89,1
4,32,0,193
4,32,87,95
4,32,0,286
4,36,92,2
4,36,0,190
4,37,86,2
4,37,0,286
4,39,89,2
4,39,0,269
4,29,101,19
4,29,0,191
4,30,98,1
4,30,0,216
4,30,99,72
4,30,0,190
4,34,78,7
4,34,0,92
4,37,93,1
4,37,0,188
4,39,97,2
4,39,0,140
4,39,85,148
4,39,0,286
4,30,85,2
4,30,0,191
4,32,86,1
4,32,0,193
4,32,86,95
4,32,0,286
4,36,93,2
4,36,0,190
4,37,87,2
4,37,0,286
4,39,85,2
4,39,0,269
4,41,88,19
4,41,0,191
4,42,87,1
4,42,0,216
4,42,80,72
4,42,0,286
4,42,85,2
4,42,0,188
4,33,87,4
4,33,0,221
4,33,76,67
4,33,0,82
4,33,90,14
4,33,0,346
4,35,93,38
4,35,0,239
4,35,72,49
4,35,0,73
4,35,94,23
4,35,0,300
4,34,100,84
4,34,0,76
4,34,54,212
4,34,0,77
4,34,91,19
4,34,0,190
4,29,67,98
4,29,0,94
4,34,99,2
4,34,0,76
4,34,53,212
4,34,0,94
4,34,91,2
4,34,0,94
4,29,68,2
4,29,0,94
4,32,67,2
4,32,0,190
4,34,101,2
4,34,0,76
4,34,52,212
4,34,0,77
4,34,87,19
4,34,0,286
4,36,55,2
4,36,0,94
4,33,101,2
4,33,0,76
4,33,56,212
4,33,0,77
4,33,94,19
4,33,0,364
4,32,99,20
4,32,0,76
4,32,56,212
4,32,0,77
4,32,88,19
4,32,0,190
4,37,69,2
4,37,0,94
4,32,54,2
4,32,0,94
4,31,98,2
4,31,0,76
4,31,50,212
4,31,0,77
4,31,93,19
4,31,0,364
4,30,99,20
4,30,0,76
4,30,55,212
4,30,0,77
4,30,93,19
4,30,0,364
4,29,103,20
4,29,0,76
4,29,50,212
4,29,0,77
4,29,88,19
4,29,0,190
4,37,67,2
4,37,0,94
4,29,51,2
4,29,0,94
4,34,102,2
4,34,0,76
4,34,50,212
4,34,0,77
4,34,94,19
4,34,0,364
4,34,101,20
4,34,0,79
4,34,64,209
4,34,0,66
4,29,80,126
4,29,0,94
4,32,97,2
4,32,0,175
4,34,103,17
4,34,0,76
4,34,52,212
4,34,0,77
4,41,81,19
4,41,0,142
4,46,90,2
4,46,0,190
4,45,92,2
4,45,0,76
4,33,53,212
4,33,0,77
4,33,82,19
4,33,0,190
4,29,57,98
4,29,0,94
4,32,91,2
4,32,0,76
4,32,55,212
4,32,0,77
4,39,74,19
4,39,0,142
4,44,81,2
4,44,0,190
4,43,99,2
4,43,0,76
4,31,57,212
4,31,0,77
4,31,94,19
4,31,0,190
4,29,53,98
4,29,0,94
4,30,100,2
4,30,0,76
4,30,55,212
4,30,0,77
4,37,78,19
4,37,0,142
4,42,82,2
4,42,0,190
4,41,98,2
4,41,0,76
4,29,57,212
4,29,0,77
4,29,93,19
4,29,0,190
4,29,100,98
4,29,0,94
4,34,102,2
4,34,0,76
4,34,50,212
4,34,0,77
4,34,93,19
4,34,0,190
4,29,51,98
4,29,0,94
4,34,99,2
4,34,0,79
4,34,58,209
4,34,0,66
4,34,78,30
4,34,0,94
4,34,74,2
4,34,0,94
4,37,97,2
4,37,0,190
4,39,89,2
4,39,0,140
4,39,81,148
4,39,0,286
4,30,87,2
4,30,0,191
4,32,88,1
4,32,0,193
4,32,85,95
4,32,0,286
4,36,88,2
4,36,0,190
4,37,93,2
4,37,0,286
4,39,85,2
4,39,0,269
4,29,100,19
4,29,0,191
4,30,100,1
4,30,0,216
4,30,99,72
4,30,0,190
4,34,79,7
4,34,0,92
4,37,90,1
4,37,0,188
4,39,93,2
4,39,0,140
4,39,84,148
4,39,0,286
4,30,90,2
4,30,0,191
4,32,89,1
4,32,0,193
4,32,87,95
4,32,0,286
4,36,93,2
4,36,0,190
4,37,86,2
4,37,0,286
4,39,88,2
4,39,0,269
4,29,100,19
4,29,0,191
4,30,104,1
4,30,0,216
4,30,101,72
4,30,0,190
4,34,73,7
4,34,0,92
4,37,89,1
4,37,0,188
4,39,94,2
4,39,0,140
4,39,84,148
4,39,0,286
4,30,85,2
4,30,0,191
4,32,88,1
4,32,0,193
4,32,89,95
4,32,0,286
4,36,90,2
4,36,0,190
4,37,89,2
4,37,0,286
4,39,91,2
4,39,0,269
4,41,85,19
4,41,0,191
4,42,86,1
4,42,0,216
4,42,85,72
4,42,0,286
4,42,81,2
4,42,0,188
4,33,91,4
4,33,0,221
4,33,76,67
4,33,0,82
4,33,95,14
4,33,0,346
4,35,93,38
4,35,0,239
4,35,70,49
4,35,0,73
4,35,91,23
4,35,0,300
4,34,97,84
4,34,0,76
4,34,51,212
4,34,0,77
4,34,91,19
4,34,0,190
4,29,69,98
4,29,0,94
4,34,101,2
4,34,0,76
4,34,53,212
4,34,0,77
4,34,87,19
4,34,0,190
4,29,68,98
4,29,0,94
4,35,96,2
4,35,0,76
4,35,52,212
4,35,0,77
4,35,88,19
4,35,0,190
4,30,69,98
4,30,0,94
4,35,103,2
4,35,0,76
4,35,55,212
4,35,0,77
4,35,89,19
4,35,0,190
4,30,72,98
4,30,0,94
4,34,97,2
4,34,0,76
4,34,52,212
4,34,0,77
4,34,88,19
4,34,0,190
4,29,71,98
4,29,0,94
4,34,98,2
4,34,0,76
4,34,51,212
4,34,0,77
4,34,95,19
4,34,0,190
4,29,74,98
4,29,0,94
4,35,98,2
4,35,0,76
4,35,57,212
4,35,0,77
4,35,90,19
4,35,0,190
4,30,67,98
4,30,0,94
4,35,101,2
4,35,0,76
4,35,54,212
4,35,0,77
4,35,92,19
4,35,0,190
4,30,72,98
4,30,0,94
4,34,97,2
4,34,0,76
4,34,57,212
4,34,0,77
4,34,91,19
4,34,0,190
4,29,69,98
4,29,0,94
4,34,100,2
4,34,0,76
4,34,56,212
4,34,0,77
4,34,88,19
4,34,0,190
4,29,71,98
4,29,0,94
4,35,100,2
4,35,0,76
4,35,50,212
4,35,0,77
4,35,89,19
4,35,0,190
4,30,67,98
4,30,0,94
4,35,102,2
4,35,0,76
4,35,55,212
4,35,0,77
4,35,88,19
4,35,0,190
4,30,71,98
4,30,0,94
4,34,97,2
4,34,0,76
4,34,51,212
4,34,0,77
4,34,91,19
4,34,0,190
4,29,69,98
4,29,0,94
4,34,97,2
4,34,0,76
4,34,55,212
4,34,0,77
4,34,91,19
4,34,0,190
4,29,68,98
4,29,0,94
4,35,101,2
4,35,0,76
4,35,56,212
4,35,0,77
4,35,94,19
4,35,0,190
4,30,70,98
4,30,0,94
4,35,98,2
4,35,0,76
4,35,56,212
4,35,0,77
4,35,95,19
4,35,0,190
4,30,68,98
4,30,0,94
4,39,96,2
4,39,0,76
4,39,57,212
4,39,0,77
4,39,89,19
4,39,0,190
4,34,71,98
4,34,0,94
4,39,97,2
4,39,0,76
4,39,54,212
4,39,0,77
4,39,88,19
4,39,0,190
4,34,70,98
4,34,0,94
4,34,102,2
4,34,0,76
4,34,51,212
4,34,0,77
4,41,78,19
4,41,0,142
4,46,89,2
4,46,0,190
4,45,90,2
4,45,0,76
4,33,57,212
4,33,0,77
4,33,88,19
4,33,0,190
4,29,55,98
4,29,0,94
4,32,92,2
4,32,0,76
4,32,53,212
4,32,0,77
4,39,77,19
4,39,0,142
4,44,83,2
4,44,0,190
4,43,102,2
4,43,0,76
4,31,54,212
4,31,0,77
4,31,87,19
4,31,0,190
4,29,55,98
4,29,0,94
4,30,103,2
4,30,0,76
4,30,51,212
4,30,0,77
4,37,74,19
4,37,0,142
4,42,82,2
4,42,0,190
4,41,103,2
4,41,0,76
4,29,52,212
4,29,0,77
4,29,88,19
4,29,0,190
4,29,96,98
4,29,0,94
4,34,101,2
4,34,0,76
4,34,53,212
4,34,0,77
4,34,87,19
4,34,0,190
4,29,52,98
4,29,0,94
4,34,104,2
4,34,0,79
4,34,63,209
4,34,0,66
4,34,74,30
4,34,0,94
4,34,79,2
4,34,0,94
4,37,94,2
4,37,0,190
4,39,92,2
4,39,0,140
4,39,81,148
4,39,0,286
4,30,90,2
4,30,0,191
4,32,90,1
4,32,0,193
4,32,89,95
4,32,0,286
4,36,92,2
4,36,0,190
4,37,88,2
4,37,0,286
4,39,88,2
4,39,0,269
4,29,94,19
4,29,0,191
4,30,104,1
4,30,0,216
4,30,99,72
4,30,0,190
4,34,75,7
4,34,0,92
4,37,96,1
4,37,0,188
4,39,89,2
4,39,0,140
4,39,84,148
4,39,0,286
4,30,84,2
4,30,0,191
4,32,90,1
4,32,0,193
4,32,90,95
4,32,0,286
4,36,92,2
4,36,0,190
4,37,89,2
4,37,0,286
4,39,85,2
4,39,0,269
4,29,95,19
4,29,0,191
4,30,99,1
4,30,0,216
4,30,96,72
4,30,0,190
4,34,74,7
4,34,0,92
4,37,93,1
4,37,0,188
4,39,94,2
4,39,0,140
4,39,84,148
4,39,0,286
4,30,85,2
4,30,0,191
4,32,90,1
4,32,0,193
4,32,86,95
4,32,0,286
4,36,88,2
4,36,0,190
4,37,91,2
4,37,0,286
4,39,84,2
4,39,0,269
4,41,88,19
4,41,0,191
4,42,88,1
4,42,0,216
4,42,85,72
4,42,0,286
4,42,79,2
4,42,0,188
4,33,88,4
4,33,0,221
4,33,69,67
4,33,0,82
4,33,89,14
4,33,0,346
4,32,94,38
4,32,0,239
4,32,72,49
4,32,0,73
4,32,92,23
4,32,0,300
4,39,100,84
4,39,0,265
4,41,93,23
4,41,0,287
4,42,94,1
4,42,0,191
4,44,96,1
4,44,0,287
4,46,92,1
4,46,0,267
4,48,81,21
4,48,0,191
4,49,93,1
4,49,0,287
4,39,77,1
4,39,0,283
4,41,92,5
4,41,0,190
4,42,97,2
4,42,0,284
4,34,78,4
4,34,0,282
4,37,96,6
4,37,0,165
4,39,90,27
4,39,0,287
4,29,94,1
4,29,0,287
4,30,90,1
4,30,0,191
4,32,88,1
4,32,0,287
4,34,89,1
4,34,0,282
4,36,82,6
4,36,0,190
4,37,86,2
4,37,0,283
4,39,76,5
4,39,0,287
4,41,95,1
4,41,0,186
4,42,74,6
4,42,0,286
4,30,88,2
4,30,0,191
4,34,72,1
4,34,0,95
4,37,90,1
4,37,0,170
4,39,86,22
4,39,0,287
4,41,80,1
4,41,0,287
4,42,75,1
4,42,0,161
4,44,90,31
4,44,0,190
4,34,90,98
4,34,0,287
4,36,73,1
4,36,0,191
4,37,80,1
4,37,0,271
4,39,79,17
4,39,0,286
4,41,79,2
4,41,0,185
4,42,80,7
4,42,0,190
4,42,83,2
4,42,0,190
4,37,76,98
4,37,0,76
4,34,68,20
4,34,0,175
4,33,87,17
4,33,0,221
4,33,69,67
4,33,0,82
4,33,89,14
4,33,0,346
4,33,94,38
4,33,0,221
4,33,69,67
4,33,0,82
4,33,90,14
4,33,0,346
4,35,87,38
4,35,0,239
4,35,71,49
4,35,0,73
4,35,91,23
4,35,0,300
4,35,92,84
4,35,0,239
4,35,71,49
4,35,0,73
4,35,87,23
4,35,0,300
4,35,92,84
4,35,0,239
4,35,75,49
4,35,0,73
4,35,92,23
4,35,0,300
4,35,88,84
4,35,0,239
4,35,74,49
4,35,0,73
4,35,93,23
4,35,0,300
4,35,87,84
4,35,0,239
4,35,74,49
4,35,0,73
4,35,89,23
4,35,0,300
4,35,92,84
4,35,0,239
4,35,70,49
4,35,0,73
4,35,90,23
4,35,0,300
4,35,87,84
4,35,0,239
4,35,69,49
4,35,0,73
4,35,87,23
4,35,0,300
4,35,57,84
4,35,0,766
5,84,80,3596
5,84,0,575
5,82,71,1
5,82,0,95
5,77,74,1
5,77,0,286
5,73,86,2
5,73,0,190
5,75,75,2
5,75,0,191
5,77,74,1
5,77,0,191
5,84,73,1
5,84,0,574
5,82,79,2
5,82,0,95
5,85,70,1
5,85,0,740
5,77,63,124
5,77,0,1535
5,70,59,1
5,70,0,1265
5,84,54,6415
5,84,0,1151
5,82,59,1
5,82,0,374
5,84,59,10
5,84,0,1150
5,82,57,2
5,82,0,382
5,77,43,2
5,77,0,1535
5,70,31,1
5,70,0,1511
5,57,48,9241
5,61,57,0
5,64,54,0
5,69,68,0
5,61,0,130
5,57,0,0
5,64,0,5
5,69,0,12
5,73,75,66
5,73,0,127
5,59,55,257
5,63,57,0
5,66,59,0
5,71,67,0
5,63,0,86
5,59,0,4
5,66,0,0
5,71,0,21
5,75,69,167
5,75,0,73
5,84,75,8
5,84,0,575
5,82,73,1
5,82,0,95
5,77,71,1
5,77,0,286
5,73,85,2
5,73,0,190
5,75,76,2
5,75,0,191
5,77,74,1
5,77,0,191
5,70,36,1
5,82,38,0
5,70,0,113
5,82,0,1
5,70,44,7
5,77,39,0
5,77,0,124
5,70,0,8
5,70,51,64
5,73,51,0
5,70,0,147
5,73,0,6
5,69,54,481
5,75,54,0
5,75,0,182
5,69,0,13
5,68,50,7
5,77,63,0
5,77,0,125
5,68,0,0
5,67,61,531
5,73,52,0
5,67,0,107
5,73,0,11
5,66,57,545
5,70,59,0
5,73,58,0
5,73,0,218
5,70,0,17
5,66,0,1
5,65,60,433
5,69,56,0
5,75,56,0
5,75,0,115
