track,note,velocity,time
1,48,100,29568
1,60,100,0
1,48,100,4
1,60,100,0
1,48,100,4
1,60,100,0
1,48,100,4
1,60,100,0
1,47,100,4
1,59,100,0
1,47,100,4
1,59,100,0
1,48,100,388
1,60,100,0
1,48,100,4
1,60,100,0
1,48,100,4
1,60,100,0
1,48,100,4
1,60,100,0
1,48,100,4
1,60,100,0
1,48,100,4
1,60,100,0
1,48,100,4
1,60,100,0
1,48,100,4
1,60,100,0
1,47,100,4
1,59,100,0
1,47,100,4
1,59,100,0
1,48,100,196
1,60,100,0
1,48,100,4
1,60,100,0
1,48,100,4
1,60,100,0
1,48,100,4
1,60,100,0
1,48,100,4
1,60,100,0
1,48,100,4
1,60,100,0
1,48,100,4
1,60,100,0
1,48,100,4
1,60,100,0
1,45,100,4
1,57,100,0
1,47,100,4
1,59,100,0
1,48,100,4
1,60,100,0
1,48,100,3076
1,60,100,0
1,48,100,4
1,60,100,0
1,48,100,4
1,60,100,0
1,48,100,4
1,60,100,0
1,48,100,4
1,60,100,0
1,48,100,4
1,60,100,0
1,48,100,4
1,60,100,0
1,47,100,4
1,59,100,0
1,47,100,4
1,59,100,0
1,48,100,388
1,60,100,0
1,48,100,4
1,60,100,0
1,48,100,4
1,60,100,0
1,48,100,4
1,60,100,0
1,48,100,4
1,60,100,0
1,48,100,4
1,60,100,0
1,47,100,4
1,59,100,0
1,47,100,4
1,59,100,0
1,48,100,196
1,60,100,0
1,48,100,4
1,60,100,0
1,48,100,4
1,60,100,0
1,48,100,4
1,60,100,0
1,48,100,4
1,60,100,0
1,48,100,4
1,60,100,0
1,48,100,4
1,60,100,0
1,47,100,4
1,59,100,0
1,45,100,388
1,57,100,0
1,47,100,4
1,59,100,0
1,47,100,4
1,59,100,0
1,48,100,4
1,60,100,0
1,48,100,4
1,60,100,0
1,48,100,4
1,60,100,0
1,45,100,4
1,57,100,0
1,47,100,4
1,59,100,0
1,48,100,4
1,60,100,0
1,55,100,4
1,67,100,0
1,48,100,4
1,60,100,0
1,48,100,4
1,60,100,0
1,48,100,1348
1,60,100,0
1,47,100,4
1,59,100,0
1,48,100,4
1,60,100,0
1,48,100,4
1,60,100,0
1,55,100,1732
1,67,100,0
1,48,100,4
1,60,100,0
1,48,100,4
1,60,100,0
1,48,100,1348
1,60,100,0
1,47,100,4
1,59,100,0
1,48,100,4
1,60,100,0
1,48,100,4
1,60,100,0
1,55,100,1732
1,67,100,0
1,48,100,4
1,60,100,0
1,48,100,4
1,60,100,0
1,53,100,1348
1,48,100,0
1,65,100,0
1,60,100,0
1,53,100,4
1,65,100,0
1,52,100,4
1,64,100,0
1,52,100,4
1,64,100,0
1,50,100,4
1,62,100,0
1,48,100,4
1,60,100,0
1,48,100,7780
1,60,100,0
1,48,100,4
1,60,100,0
1,48,100,4
1,60,100,0
1,48,100,4
1,60,100,0
1,47,100,4
1,59,100,0
1,47,100,4
1,59,100,0
1,48,100,388
1,60,100,0
1,48,100,4
1,60,100,0
1,48,100,4
1,60,100,0
1,48,100,4
1,60,100,0
1,48,100,4
1,60,100,0
1,48,100,4
1,60,100,0
1,48,100,4
1,60,100,0
1,48,100,4
1,60,100,0
1,47,100,4
1,59,100,0
1,47,100,4
1,59,100,0
1,48,100,196
1,60,100,0
1,48,100,4
1,60,100,0
1,48,100,4
1,60,100,0
1,48,100,4
1,60,100,0
1,48,100,4
1,60,100,0
1,48,100,4
1,60,100,0
1,48,100,4
1,60,100,0
1,48,100,4
1,60,100,0
1,45,100,4
1,57,100,0
1,47,100,4
1,59,100,0
1,48,100,4
1,60,100,0
1,48,100,3076
1,60,100,0
1,48,100,4
1,60,100,0
1,48,100,4
1,60,100,0
1,48,100,4
1,60,100,0
1,48,100,4
1,60,100,0
1,48,100,4
1,60,100,0
1,48,100,4
1,60,100,0
1,47,100,4
1,59,100,0
1,47,100,4
1,59,100,0
1,48,100,388
1,60,100,0
1,48,100,4
1,60,100,0
1,48,100,4
1,60,100,0
1,48,100,4
1,60,100,0
1,48,100,4
1,60,100,0
1,48,100,4
1,60,100,0
1,47,100,4
1,59,100,0
1,47,100,4
1,59,100,0
1,48,100,196
1,60,100,0
1,48,100,4
1,60,100,0
1,48,100,4
1,60,100,0
1,48,100,4
1,60,100,0
1,48,100,4
1,60,100,0
1,48,100,4
1,60,100,0
1,48,100,4
1,60,100,0
1,47,100,4
1,59,100,0
1,45,100,388
1,57,100,0
1,47,100,4
1,59,100,0
1,47,100,4
1,59,100,0
1,48,100,4
1,60,100,0
1,48,100,4
1,60,100,0
1,48,100,4
1,60,100,0
1,45,100,4
1,57,100,0
1,47,100,4
1,59,100,0
1,48,100,4
1,60,100,0
1,55,100,4
1,67,100,0
1,48,100,4
1,60,100,0
1,48,100,4
1,60,100,0
1,48,100,1348
1,60,100,0
1,47,100,4
1,59,100,0
1,48,100,4
1,60,100,0
1,48,100,4
1,60,100,0
1,55,100,1732
1,67,100,0
1,48,100,4
1,60,100,0
1,48,100,4
1,60,100,0
1,48,100,1348
1,60,100,0
1,47,100,4
1,59,100,0
1,48,100,4
1,60,100,0
1,48,100,4
1,60,100,0
1,55,100,1732
1,67,100,0
1,48,100,4
1,62,100,0
1,60,100,0
1,74,100,0
1,48,100,4
1,60,100,0
1,53,100,1348
1,48,100,0
1,65,100,0
1,60,100,0
1,64,100,192
1,76,100,0
1,62,100,4
1,74,100,0
1,53,100,4
1,60,100,0
1,65,100,0
1,72,100,0
1,52,100,4
1,64,100,0
1,52,100,4
1,64,100,0
1,52,100,4
1,64,100,0
1,50,100,4
1,62,100,0
1,48,100,4
1,60,100,0
1,45,100,18532
1,57,100,0
1,47,100,4
1,59,100,0
1,48,100,4
1,60,100,0
1,55,100,4
1,67,100,0
1,48,100,4
1,60,100,0
1,48,100,4
1,60,100,0
1,53,100,1348
1,48,100,0
1,65,100,0
1,60,100,0
1,53,100,4
1,65,100,0
1,52,100,4
1,64,100,0
1,52,100,4
1,64,100,0
1,52,100,4
1,64,100,0
1,50,100,4
1,62,100,0
1,48,100,4
1,60,100,0
1,69,100,9892
1,81,100,0
1,76,100,4
1,88,100,0
1,86,100,4
1,74,100,0
1,84,100,4
1,72,100,0
1,71,100,4
1,83,100,0
1,69,100,4
1,81,100,0
1,67,100,4128
1,79,100,0
1,64,100,4
1,76,100,0
1,62,100,4
1,74,100,0
1,60,100,4
1,72,100,0
1,57,100,4
1,69,100,0
1,55,100,288
1,67,100,0
1,62,100,4
1,74,100,0
1,62,100,4
1,74,100,0
1,60,100,4
1,72,100,0
1,57,100,2112
1,69,100,0
1,81,100,4
1,69,100,0
1,69,100,4
1,57,100,0
1,69,100,4
1,57,100,0
1,81,100,1156
1,69,100,0
1,81,100,4
1,69,100,0
1,79,100,64
1,67,100,0
1,59,100,1344
1,47,100,0
1,60,100,4
1,48,100,0
1,64,100,4
1,52,100,0
1,67,100,4
1,55,100,0
1,69,100,4
1,57,100,0
1,72,100,4
1,60,100,0
1,74,100,4
1,62,100,0
1,72,100,4
1,60,100,0
1,69,100,4
1,57,100,0
1,48,100,4
1,60,100,0
1,52,100,0
1,48,100,4
1,60,100,0
1,52,100,0
1,48,100,4
1,60,100,0
1,52,100,0
1,48,100,4
1,60,100,0
1,52,100,0
1,47,100,4
1,59,100,0
1,50,100,0
1,47,100,4
1,59,100,0
1,50,100,0
1,48,100,388
1,60,100,0
1,52,100,0
1,48,100,4
1,60,100,0
1,52,100,0
1,48,100,4
1,60,100,0
1,52,100,0
1,48,100,4
1,60,100,0
1,52,100,0
1,48,100,4
1,60,100,0
1,52,100,0
1,48,100,4
1,60,100,0
1,52,100,0
1,48,100,4
1,60,100,0
1,52,100,0
1,48,100,4
1,60,100,0
1,52,100,0
1,47,100,4
1,59,100,0
1,50,100,0
1,47,100,4
1,59,100,0
1,50,100,0
1,48,100,196
1,60,100,0
1,52,100,0
1,48,100,4
1,60,100,0
1,52,100,0
1,48,100,4
1,60,100,0
1,52,100,0
1,48,100,4
1,60,100,0
1,52,100,0
1,48,100,4
1,60,100,0
1,52,100,0
1,48,100,4
1,60,100,0
1,52,100,0
1,48,100,4
1,60,100,0
1,52,100,0
1,48,100,4
1,60,100,0
1,52,100,0
1,45,100,4
1,57,100,0
1,48,100,0
1,47,100,4
1,59,100,0
1,50,100,0
1,48,100,4
1,60,100,0
1,52,100,0
1,55,100,192
1,67,100,0
1,57,100,4
1,69,100,0
1,57,100,64
1,69,100,0
1,55,100,64
1,67,100,0
1,57,100,64
1,69,100,0
1,55,100,128
1,67,100,0
1,57,100,64
1,69,100,0
1,57,100,64
1,69,100,0
1,55,100,64
1,67,100,0
1,57,100,64
1,69,100,0
1,45,100,64
1,57,100,0
1,48,100,640
1,60,100,0
1,52,100,0
1,60,100,4
1,48,100,0
1,52,100,0
1,48,100,4
1,60,100,0
1,52,100,0
1,48,100,4
1,60,100,0
1,52,100,0
1,48,100,4
1,60,100,0
1,52,100,0
1,48,100,4
1,60,100,0
1,52,100,0
1,48,100,4
1,60,100,0
1,52,100,0
1,47,100,4
1,59,100,0
1,50,100,0
1,47,100,32
1,59,100,0
1,50,100,0
1,48,100,640
1,60,100,0
1,52,100,0
1,48,100,4
1,60,100,0
1,52,100,0
1,48,100,4
1,60,100,0
1,52,100,0
1,48,100,4
1,60,100,0
1,52,100,0
1,48,100,4
1,60,100,0
1,52,100,0
1,48,100,4
1,60,100,0
1,52,100,0
1,47,100,4
1,59,100,0
1,50,100,0
1,47,100,32
1,59,100,0
1,50,100,0
1,48,100,448
1,60,100,0
1,52,100,0
1,48,100,4
1,60,100,0
1,52,100,0
1,48,100,4
1,60,100,0
1,52,100,0
1,48,100,4
1,60,100,0
1,52,100,0
1,48,100,4
1,60,100,0
1,52,100,0
1,48,100,4
1,60,100,0
1,52,100,0
1,48,100,4
1,60,100,0
1,52,100,0
1,47,100,4
1,59,100,0
1,50,100,0
1,45,100,256
1,57,100,0
1,48,100,0
1,47,100,4
1,59,100,0
1,50,100,0
1,59,100,4
1,47,100,0
1,50,100,0
1,60,100,64
1,48,100,0
1,52,100,0
1,60,100,4
1,48,100,0
1,52,100,0
1,60,100,4
1,52,100,0
1,48,100,0
1,69,100,64
1,57,100,0
1,67,100,4
1,55,100,0
1,69,100,4
1,57,100,0
1,57,100,4
1,69,100,0
1,48,100,576
1,60,100,0
1,52,100,0
1,48,100,4
1,60,100,0
1,52,100,0
1,48,100,4
1,60,100,0
1,52,100,0
1,48,100,4
1,60,100,0
1,52,100,0
1,47,100,4
1,59,100,0
1,50,100,0
1,47,100,4
1,59,100,0
1,50,100,0
1,48,100,388
1,60,100,0
1,52,100,0
1,48,100,4
1,60,100,0
1,52,100,0
1,48,100,4
1,60,100,0
1,52,100,0
1,48,100,4
1,60,100,0
1,52,100,0
1,48,100,4
1,60,100,0
1,52,100,0
1,48,100,4
1,60,100,0
1,52,100,0
1,48,100,4
1,60,100,0
1,52,100,0
1,48,100,4
1,60,100,0
1,52,100,0
1,47,100,4
1,59,100,0
1,50,100,0
1,47,100,4
1,59,100,0
1,50,100,0
1,48,100,196
1,60,100,0
1,52,100,0
1,48,100,4
1,60,100,0
1,52,100,0
1,48,100,4
1,60,100,0
1,52,100,0
1,48,100,4
1,60,100,0
1,52,100,0
1,48,100,4
1,60,100,0
1,52,100,0
1,48,100,4
1,60,100,0
1,52,100,0
1,48,100,4
1,60,100,0
1,52,100,0
1,48,100,4
1,60,100,0
1,52,100,0
1,45,100,4
1,57,100,0
1,48,100,0
1,47,100,4
1,59,100,0
1,50,100,0
1,48,100,4
1,60,100,0
1,52,100,0
1,76,100,0
1,64,100,0
1,74,100,4
1,62,100,0
1,72,100,4
1,60,100,0
1,69,100,4
1,57,100,0
1,76,100,4
1,64,100,0
1,74,100,4
1,62,100,0
1,72,100,4
1,60,100,0
1,69,100,4
1,57,100,0
1,67,100,4
1,55,100,0
1,72,100,4
1,60,100,0
1,48,100,196
1,60,100,0
1,52,100,0
1,60,100,4
1,48,100,0
1,52,100,0
1,48,100,4
1,60,100,0
1,52,100,0
1,48,100,4
1,60,100,0
1,52,100,0
1,48,100,4
1,60,100,0
1,52,100,0
1,48,100,4
1,60,100,0
1,52,100,0
1,48,100,4
1,60,100,0
1,52,100,0
1,47,100,4
1,59,100,0
1,50,100,0
1,47,100,32
1,59,100,0
1,50,100,0
1,48,100,640
1,60,100,0
1,52,100,0
1,48,100,4
1,60,100,0
1,52,100,0
1,48,100,4
1,60,100,0
1,52,100,0
1,48,100,4
1,60,100,0
1,52,100,0
1,48,100,4
1,60,100,0
1,52,100,0
1,48,100,4
1,60,100,0
1,52,100,0
1,47,100,4
1,59,100,0
1,50,100,0
1,47,100,32
1,59,100,0
1,50,100,0
1,48,100,448
1,60,100,0
1,52,100,0
1,48,100,4
1,60,100,0
1,52,100,0
1,48,100,4
1,60,100,0
1,52,100,0
1,48,100,4
1,60,100,0
1,52,100,0
1,48,100,4
1,60,100,0
1,52,100,0
1,48,100,4
1,60,100,0
1,52,100,0
1,48,100,4
1,60,100,0
1,52,100,0
1,47,100,4
1,59,100,0
1,50,100,0
1,45,100,256
1,57,100,0
1,48,100,0
1,47,100,4
1,59,100,0
1,50,100,0
1,59,100,4
1,47,100,0
1,50,100,0
1,60,100,64
1,48,100,0
1,52,100,0
1,60,100,4
1,48,100,0
1,52,100,0
1,60,100,4
1,52,100,0
1,48,100,0
1,48,100,580
1,60,100,0
1,52,100,0
1,48,100,4
1,60,100,0
1,52,100,0
1,48,100,4
1,60,100,0
1,52,100,0
1,48,100,4
1,60,100,0
1,52,100,0
1,47,100,4
1,59,100,0
1,50,100,0
1,47,100,4
1,59,100,0
1,50,100,0
1,48,100,388
1,60,100,0
1,52,100,0
1,48,100,4
1,60,100,0
1,52,100,0
1,48,100,4
1,60,100,0
1,52,100,0
1,48,100,4
1,60,100,0
1,52,100,0
1,48,100,4
1,60,100,0
1,52,100,0
1,48,100,4
1,60,100,0
1,52,100,0
1,48,100,4
1,60,100,0
1,52,100,0
1,48,100,4
1,60,100,0
1,52,100,0
1,47,100,4
1,59,100,0
1,50,100,0
1,47,100,4
1,59,100,0
1,50,100,0
1,48,100,196
1,60,100,0
1,52,100,0
1,48,100,4
1,60,100,0
1,52,100,0
1,48,100,4
1,60,100,0
1,52,100,0
1,48,100,4
1,60,100,0
1,52,100,0
1,48,100,4
1,60,100,0
1,52,100,0
1,48,100,4
1,60,100,0
1,52,100,0
1,48,100,4
1,60,100,0
1,52,100,0
1,48,100,4
1,60,100,0
1,52,100,0
1,45,81,4
1,57,81,0
1,48,81,0
1,47,81,4
1,59,81,0
1,50,81,0
1,48,81,4
1,60,81,0
1,52,81,0
1,64,81,0
1,52,81,0
1,62,81,4
1,50,81,0
1,60,81,4
1,48,81,0
1,57,81,4
1,45,81,0
1,64,81,4
1,52,81,0
1,62,81,4
1,50,81,0
1,60,81,4
1,48,81,0
1,57,81,4
1,45,81,0
1,55,81,4
1,43,81,0
1,60,81,4
1,48,81,0
2,69,88,19584
2,71,88,96
2,72,88,4
2,76,88,4
2,71,88,4
2,72,88,4
2,71,88,5760
2,72,88,4
2,76,88,4
2,79,88,4
2,71,88,4
2,71,88,9220
2,72,88,64
2,71,88,64
2,72,88,64
2,71,88,64
2,72,88,64
2,71,88,64
2,72,88,4
2,76,88,4
2,79,88,4
2,71,88,4
2,59,88,9604
2,60,88,4
2,64,88,4
2,67,88,4
2,71,88,4
2,72,88,4
2,76,88,4
2,79,88,4
2,83,88,4
2,84,88,4
2,88,88,4
2,91,88,4
2,84,68,1156
2,83,68,1152
2,79,68,4
2,72,68,4
2,84,68,1924
2,83,68,1152
2,79,68,4
2,84,68,2308
2,83,68,1152
2,72,68,4
2,71,68,4
2,67,88,4
2,60,88,4
2,59,88,4
2,55,88,4
2,81,88,384
2,74,88,4
2,74,88,4
2,74,88,4
2,74,88,388
2,74,88,4
2,86,88,4
2,86,88,4
2,79,88,4
2,79,88,4
2,79,88,4
2,83,88,196
