track,note,velocity,time
1,64,90,4052
1,59,93,16
1,60,89,52
1,57,100,56
1,64,113,5992
1,59,113,40
1,60,91,60
1,57,103,36
1,64,95,4
1,59,98,0
1,60,90,52
1,57,97,40
1,64,91,12
1,59,111,40
1,60,95,40
1,57,98,48
1,64,90,4
1,59,93,16
1,60,89,52
1,57,100,56
1,64,90,4
1,59,93,16
1,60,89,52
1,57,100,56
1,74,90,23044
1,79,90,24
1,64,90,176
1,59,93,48
1,60,89,52
1,57,100,56
1,64,90,6000
1,59,93,48
1,60,89,52
1,57,100,56
1,64,114,100
1,59,107,0
1,60,93,48
1,57,90,60
1,65,88,512
1,60,90,4
1,57,76,40
1,53,71,60
1,67,89,472
1,62,87,44
1,59,74,40
1,55,76,44
1,45,100,464
1,52,88,4
1,57,91,60
1,60,88,20
1,50,78,4
1,54,91,32
1,57,98,24
1,62,101,32
1,50,59,4
1,50,56,20
1,62,72,0
1,62,70,0
1,55,57,8
1,55,63,52
1,55,65,48
1,74,90,388
1,79,90,24
1,62,85,16
1,64,83,4
1,62,78,32
1,64,83,0
1,64,113,4
1,59,109,0
1,60,93,48
1,57,90,60
1,65,106,672
1,60,101,44
1,57,87,40
1,53,93,52
1,67,101,4
1,62,105,4
1,59,90,36
1,55,80,52
1,64,107,20
1,72,107,4
1,64,113,4
1,59,109,0
1,60,93,48
1,57,90,60
1,64,113,4
1,59,109,0
1,60,93,48
1,57,90,60
1,65,106,672
1,60,101,44
1,57,87,40
1,53,93,52
1,67,101,4
1,62,105,4
1,59,90,36
1,55,80,52
1,64,107,20
1,72,107,4
1,64,113,4
1,59,109,0
1,60,93,48
1,57,90,60
1,65,106,672
1,60,101,44
1,57,87,40
1,53,93,52
1,67,101,4
1,62,105,4
1,59,90,36
1,55,80,52
1,64,107,20
1,72,107,4
1,64,113,4
1,59,109,0
1,60,93,48
1,57,90,60
1,65,106,672
1,60,101,44
1,57,87,40
1,53,93,52
1,67,101,4
1,62,105,4
1,59,90,36
1,55,80,52
1,64,107,20
1,72,107,4
1,64,113,4
1,59,109,0
1,60,93,48
1,57,90,60
1,65,106,672
1,60,101,44
1,57,87,40
1,53,93,52
1,67,101,4
1,62,105,4
1,59,90,36
1,55,80,52
1,64,107,20
1,72,107,4
1,64,113,4
1,59,109,0
1,60,93,48
1,57,90,60
1,65,106,672
1,60,101,44
1,57,87,40
1,53,93,52
1,67,101,4
1,62,105,4
1,59,90,36
1,55,80,52
1,64,107,20
1,72,107,4
1,64,113,4
1,59,109,0
1,60,93,48
1,57,90,60
1,65,106,552
1,60,101,12
1,57,87,40
1,53,93,52
1,67,101,4
1,62,105,4
1,59,90,12
1,55,80,52
1,64,107,20
1,72,107,4
2,45,93,4188
2,33,93,0
2,45,70,60
2,33,75,0
2,45,77,48
2,33,82,0
2,55,83,56
2,43,88,0
2,55,78,60
2,43,83,0
2,55,77,52
2,43,82,0
2,57,80,56
2,45,85,0
2,57,86,56
2,45,91,0
2,55,81,632
2,43,86,0
2,55,76,56
2,43,81,0
2,55,74,56
2,43,79,0
2,57,82,60
2,45,87,0
2,57,79,60
2,45,84,0
2,41,99,52
2,29,89,0
2,41,72,60
2,29,77,0
2,41,79,48
2,29,84,0
2,55,89,56
2,43,94,0
2,55,81,64
2,43,86,0
2,55,81,56
2,43,86,0
2,57,80,52
2,45,85,0
2,57,85,56
2,45,90,0
2,55,80,628
2,43,85,0
2,55,79,56
2,43,84,0
2,55,72,56
2,43,77,0
2,57,79,56
2,45,84,0
2,57,76,56
2,45,81,0
2,43,97,56
2,31,90,0
2,43,71,56
2,31,76,0
2,43,80,56
2,31,85,0
2,53,86,56
2,41,91,0
2,53,80,56
2,41,85,0
2,53,79,56
2,41,84,0
2,55,80,56
2,43,85,0
2,55,85,56
2,43,90,0
2,53,86,640
2,41,91,0
2,53,81,52
2,41,86,0
2,53,78,52
2,41,83,0
2,55,82,56
2,43,87,0
2,55,82,56
2,43,87,0
2,45,96,56
2,33,91,0
2,45,71,64
2,33,76,0
2,45,77,56
2,33,82,0
2,55,84,56
2,43,89,0
2,55,79,56
2,43,84,0
2,55,77,52
2,43,82,0
2,57,78,60
2,45,83,0
2,57,83,56
2,45,88,0
2,55,81,632
2,43,86,0
2,55,80,56
2,43,85,0
2,55,75,52
2,43,80,0
2,57,76,52
2,45,81,0
2,57,82,56
2,45,87,0
2,45,96,60
2,33,89,0
2,45,75,60
2,33,89,0
2,45,77,48
2,33,82,0
2,55,83,56
2,43,88,0
2,55,78,60
2,43,83,0
2,55,77,52
2,43,82,0
2,57,80,56
2,45,85,0
2,57,86,56
2,45,91,0
2,55,81,632
2,43,86,0
2,55,76,56
2,43,81,0
2,55,74,56
2,43,79,0
2,57,82,60
2,45,87,0
2,57,79,60
2,45,84,0
2,41,98,52
2,29,92,0
2,41,72,60
2,29,77,0
2,41,79,48
2,29,84,0
2,55,89,56
2,43,94,0
2,55,81,64
2,43,86,0
2,55,81,56
2,43,86,0
2,57,80,52
2,45,85,0
2,57,85,56
2,45,90,0
2,55,80,628
2,43,85,0
2,55,79,56
2,43,84,0
2,55,72,56
2,43,77,0
2,57,79,56
2,45,84,0
2,57,76,56
2,45,81,0
2,43,99,56
2,31,92,0
2,43,71,56
2,31,76,0
2,43,80,56
2,31,85,0
2,53,86,56
2,41,91,0
2,53,80,56
2,41,85,0
2,53,79,56
2,41,84,0
2,55,80,56
2,43,85,0
2,55,85,56
2,43,90,0
2,53,86,640
2,41,91,0
2,53,81,52
2,41,86,0
2,53,78,52
2,41,83,0
2,55,82,56
2,43,87,0
2,55,82,56
2,43,87,0
2,45,96,56
2,33,93,0
2,45,71,64
2,33,76,0
2,45,77,56
2,33,82,0
2,55,84,56
2,43,89,0
2,55,79,56
2,43,84,0
2,55,77,52
2,43,82,0
2,57,78,60
2,45,83,0
2,57,83,56
2,45,88,0
2,55,81,632
2,43,86,0
2,55,80,56
2,43,85,0
2,55,75,52
2,43,80,0
2,57,76,52
2,45,81,0
2,57,82,56
2,45,87,0
2,45,93,60
2,33,93,0
2,45,70,60
2,33,75,0
2,45,77,48
2,33,82,0
2,55,83,56
2,43,88,0
2,55,78,60
2,43,83,0
2,55,77,52
2,43,82,0
2,57,80,56
2,45,85,0
2,57,86,56
2,45,91,0
2,55,81,632
2,43,86,0
2,55,76,56
2,43,81,0
2,55,74,56
2,43,79,0
2,57,82,60
2,45,87,0
2,57,79,60
2,45,84,0
2,41,99,52
2,29,89,0
2,41,72,60
2,29,77,0
2,41,79,48
2,29,84,0
2,55,89,56
2,43,94,0
2,55,81,64
2,43,86,0
2,55,81,56
2,43,86,0
2,57,80,52
2,45,85,0
2,57,85,56
2,45,90,0
2,55,80,628
2,43,85,0
2,55,79,56
2,43,84,0
2,55,72,56
2,43,77,0
2,57,79,56
2,45,84,0
2,57,76,56
2,45,81,0
2,43,97,56
2,31,90,0
2,43,71,56
2,31,76,0
2,43,80,56
2,31,85,0
2,53,86,56
2,41,91,0
2,53,80,56
2,41,85,0
2,53,79,56
2,41,84,0
2,55,80,56
2,43,85,0
2,55,85,56
2,43,90,0
2,53,86,640
2,41,91,0
2,53,81,52
2,41,86,0
2,53,78,52
2,41,83,0
2,55,82,56
2,43,87,0
2,55,82,56
2,43,87,0
2,45,96,56
2,33,91,0
2,45,71,64
2,33,76,0
2,45,77,56
2,33,82,0
2,55,84,56
2,43,89,0
2,55,79,56
2,43,84,0
2,55,77,52
2,43,82,0
2,57,78,60
2,45,83,0
2,57,83,56
2,45,88,0
2,55,81,632
2,43,86,0
2,55,80,56
2,43,85,0
2,55,75,52
2,43,80,0
2,57,76,52
2,45,81,0
2,57,82,56
2,45,87,0
2,45,96,60
2,33,89,0
2,45,75,60
2,33,89,0
2,45,77,48
2,33,82,0
2,55,83,56
2,43,88,0
2,55,78,60
2,43,83,0
2,55,77,52
2,43,82,0
2,57,80,56
2,45,85,0
2,57,86,56
2,45,91,0
2,55,81,632
2,43,86,0
2,55,76,56
2,43,81,0
2,55,74,56
2,43,79,0
2,57,82,60
2,45,87,0
2,57,79,60
2,45,84,0
2,41,98,52
2,29,92,0
2,41,72,60
2,29,77,0
2,41,79,48
2,29,84,0
2,55,89,56
2,43,94,0
2,55,81,64
2,43,86,0
2,55,81,56
2,43,86,0
2,57,80,52
2,45,85,0
2,57,85,56
2,45,90,0
2,55,80,628
2,43,85,0
2,55,79,56
2,43,84,0
2,55,72,56
2,43,77,0
2,57,79,56
2,45,84,0
2,57,76,56
2,45,81,0
2,43,99,56
2,31,92,0
2,43,71,56
2,31,76,0
2,43,80,56
2,31,85,0
2,53,86,56
2,41,91,0
2,53,80,56
2,41,85,0
2,53,79,56
2,41,84,0
2,55,80,56
2,43,85,0
2,55,85,56
2,43,90,0
2,53,86,640
2,41,91,0
2,53,81,52
2,41,86,0
2,53,78,52
2,41,83,0
2,55,82,56
2,43,87,0
2,55,82,56
2,43,87,0
2,45,96,56
2,33,93,0
2,45,71,64
2,33,76,0
2,45,77,56
2,33,82,0
2,55,84,56
2,43,89,0
2,55,79,56
2,43,84,0
2,55,77,52
2,43,82,0
2,57,78,60
2,45,83,0
2,57,83,56
2,45,88,0
2,55,81,632
2,43,86,0
2,55,80,56
2,43,85,0
2,55,75,52
2,43,80,0
2,57,76,52
2,45,81,0
2,57,82,56
2,45,87,0
2,41,107,64
2,41,88,84
2,41,95,112
2,41,97,72
2,41,93,116
2,41,90,84
2,41,95,104
2,41,98,80
2,41,93,100
2,41,97,80
2,41,97,100
2,41,97,88
2,41,94,104
2,41,98,76
2,41,97,100
2,41,100,100
2,36,109,100
2,36,94,100
2,36,101,104
2,36,91,84
2,36,91,92
2,36,91,100
2,36,93,100
2,36,92,92
2,36,97,96
2,36,97,92
2,36,93,104
2,36,97,92
2,36,92,100
2,36,96,104
2,36,96,108
2,36,90,96
2,41,108,92
2,41,97,96
2,41,93,104
2,41,107,108
2,41,96,96
2,41,96,112
2,41,97,104
2,41,100,100
2,41,90,104
2,41,95,96
2,41,97,100
2,41,92,92
2,41,97,96
2,41,96,108
2,41,103,100
2,41,92,104
2,36,112,84
2,36,100,100
2,36,100,108
2,36,94,108
2,36,97,96
2,36,92,100
2,36,97,108
2,36,90,96
2,36,92,104
2,36,97,96
2,36,103,108
2,36,93,100
2,36,96,104
2,36,90,100
2,36,90,96
2,36,85,100
2,41,101,68
2,41,102,108
2,41,104,100
2,41,102,116
2,41,102,96
2,41,100,100
2,41,97,104
2,41,97,104
2,41,94,108
2,41,97,108
2,41,97,112
2,41,95,108
2,41,100,104
2,41,97,96
2,41,98,108
2,41,97,112
2,36,111,72
2,36,94,96
2,36,105,88
2,36,97,100
2,36,97,112
2,36,95,92
2,36,90,100
2,36,92,100
2,36,90,96
2,36,88,92
2,36,94,84
2,36,93,96
2,36,92,92
2,36,97,88
2,36,97,100
2,36,93,96
2,38,93,64
2,38,105,108
2,38,100,100
2,38,97,104
2,38,96,100
2,38,97,100
2,38,96,96
2,38,100,84
2,38,91,88
2,38,97,72
2,38,97,92
2,38,97,88
2,38,97,88
2,38,91,92
2,38,92,92
2,38,91,84
2,43,111,88
2,43,97,108
2,43,103,112
2,43,98,108
2,43,101,100
2,43,98,100
2,43,109,100
2,43,111,108
2,43,112,80
2,45,93,1396
2,33,93,0
2,45,70,60
2,33,75,0
2,45,77,48
2,33,82,0
2,55,83,56
2,43,88,0
2,55,78,60
2,43,83,0
2,55,77,52
2,43,82,0
2,57,80,56
2,45,85,0
2,57,86,56
2,45,91,0
2,55,81,632
2,43,86,0
2,55,76,56
2,43,81,0
2,55,74,56
2,43,79,0
2,57,82,60
2,45,87,0
2,57,79,60
2,45,84,0
2,41,99,52
2,29,89,0
2,41,72,60
2,29,77,0
2,41,79,48
2,29,84,0
2,55,89,56
2,43,94,0
2,55,81,64
2,43,86,0
2,55,81,56
2,43,86,0
2,57,80,52
2,45,85,0
2,57,85,56
2,45,90,0
2,55,80,628
2,43,85,0
2,55,79,56
2,43,84,0
2,55,72,56
2,43,77,0
2,57,79,56
2,45,84,0
2,57,76,56
2,45,81,0
2,43,97,56
2,31,90,0
2,43,71,56
2,31,76,0
2,43,80,56
2,31,85,0
2,53,86,56
2,41,91,0
2,53,80,56
2,41,85,0
2,53,79,56
2,41,84,0
2,55,80,56
2,43,85,0
2,55,85,56
2,43,90,0
2,53,86,640
2,41,91,0
2,53,81,52
2,41,86,0
2,53,78,52
2,41,83,0
2,55,82,56
2,43,87,0
2,55,82,56
2,43,87,0
2,45,96,56
2,33,91,0
2,45,71,64
2,33,76,0
2,45,77,56
2,33,82,0
2,55,84,56
2,43,89,0
2,55,79,56
2,43,84,0
2,55,77,52
2,43,82,0
2,57,78,60
2,45,83,0
2,57,83,56
2,45,88,0
2,55,81,632
2,43,86,0
2,55,80,56
2,43,85,0
2,55,75,52
2,43,80,0
2,57,76,52
2,45,81,0
2,57,82,56
2,45,87,0
2,45,96,60
2,33,89,0
2,45,75,60
2,33,89,0
2,45,77,48
2,33,82,0
2,55,83,56
2,43,88,0
2,55,78,60
2,43,83,0
2,55,77,52
2,43,82,0
2,57,80,56
2,45,85,0
2,57,86,56
2,45,91,0
2,55,81,632
2,43,86,0
2,55,76,56
2,43,81,0
2,55,74,56
2,43,79,0
2,57,82,60
2,45,87,0
2,57,79,60
2,45,84,0
2,41,98,52
2,29,92,0
2,41,72,60
2,29,77,0
2,41,79,48
2,29,84,0
2,55,89,56
2,43,94,0
2,55,81,64
2,43,86,0
2,55,81,56
2,43,86,0
2,57,80,52
2,45,85,0
2,57,85,56
2,45,90,0
2,55,80,628
2,43,85,0
2,55,79,56
2,43,84,0
2,55,72,56
2,43,77,0
2,57,79,56
2,45,84,0
2,57,76,56
2,45,81,0
2,43,99,56
2,31,92,0
2,43,71,56
2,31,76,0
2,43,80,56
2,31,85,0
2,53,86,56
2,41,91,0
2,53,80,56
2,41,85,0
2,53,79,56
2,41,84,0
2,55,80,56
2,43,85,0
2,55,85,56
2,43,90,0
2,53,86,640
2,41,91,0
2,53,81,52
2,41,86,0
2,53,78,52
2,41,83,0
2,55,82,56
2,43,87,0
2,55,82,56
2,43,87,0
2,45,96,56
2,33,93,0
2,45,71,64
2,33,76,0
2,45,77,56
2,33,82,0
2,55,84,56
2,43,89,0
2,55,79,56
2,43,84,0
2,55,77,52
2,43,82,0
2,57,78,60
2,45,83,0
2,57,83,56
2,45,88,0
2,55,81,632
2,43,86,0
2,55,80,56
2,43,85,0
2,55,75,52
2,43,80,0
2,57,76,52
2,45,81,0
2,57,82,56
2,45,87,0
2,41,107,64
2,41,88,84
2,41,95,112
2,41,97,72
2,41,93,116
2,41,90,84
2,41,95,104
2,41,98,80
2,41,93,100
2,41,97,80
2,41,97,100
2,41,97,88
2,41,94,104
2,41,98,76
2,41,97,100
2,41,100,100
2,36,109,100
2,36,94,100
2,36,101,104
2,36,91,84
2,36,91,92
2,36,91,100
2,36,93,100
2,36,92,92
2,36,97,96
2,36,97,92
2,36,93,104
2,36,97,92
2,36,92,100
2,36,96,104
2,36,96,108
2,36,90,96
2,41,108,92
2,41,97,96
2,41,93,104
2,41,107,108
2,41,96,96
2,41,96,112
2,41,97,104
2,41,100,100
2,41,90,104
2,41,95,96
2,41,97,100
2,41,92,92
2,41,97,96
2,41,96,108
2,41,103,100
2,41,92,104
2,36,112,84
2,36,100,100
2,36,100,108
2,36,94,108
2,36,97,96
2,36,92,100
2,36,97,108
2,36,90,96
2,36,92,104
2,36,97,96
2,36,103,108
2,36,93,100
2,36,96,104
2,36,90,100
2,36,90,96
2,36,85,100
2,41,101,68
2,41,102,108
2,41,104,100
2,41,102,116
2,41,102,96
2,41,100,100
2,41,97,104
2,41,97,104
2,41,94,108
2,41,97,108
2,41,97,112
2,41,95,108
2,41,100,104
2,41,97,96
2,41,98,108
2,41,97,112
2,36,111,72
2,36,94,96
2,36,105,88
2,36,97,100
2,36,97,112
2,36,95,92
