track,note,velocity,time
5,42,127,960
5,42,0,45
5,42,127,436
5,42,0,30
5,42,127,29
5,42,0,30
5,42,127,390
5,42,0,30
5,42,127,30
5,42,0,30
5,42,127,30
5,42,0,30
5,42,127,330
5,42,0,30
5,42,127,30
5,42,0,30
5,42,127,30
5,42,0,30
5,42,127,30
5,42,0,30
5,54,127,60
5,54,0,30
5,53,127,0
5,53,0,30
5,51,127,0
5,51,0,30
5,49,127,0
5,49,0,30
5,47,127,0
5,47,0,30
5,46,127,0
5,46,0,30
5,49,127,0
5,49,0,30
5,42,127,0
5,46,127,90
5,42,0,3
5,49,127,86
5,46,0,1
5,49,0,29
5,44,127,62
5,47,127,89
5,44,0,1
5,47,0,59
5,49,127,0
5,49,0,30
5,42,127,30
5,46,127,90
5,42,0,3
5,49,127,86
5,46,0,1
5,49,0,29
5,44,127,62
5,47,127,89
5,44,0,1
5,47,0,59
5,49,127,0
5,49,0,30
5,42,127,30
5,46,127,90
5,42,0,3
5,49,127,86
5,46,0,1
5,49,0,29
5,44,127,62
5,47,127,89
5,44,0,1
5,47,0,59
5,49,127,0
5,49,0,30
5,42,127,30
5,46,127,90
5,42,0,3
5,49,127,86
5,46,0,1
5,49,0,29
5,44,127,62
5,47,127,89
5,44,0,1
5,47,0,59
5,49,127,0
5,49,0,30
5,42,127,30
5,46,127,90
5,42,0,3
5,49,127,86
5,46,0,1
5,49,0,29
5,44,127,62
5,47,127,89
5,44,0,1
5,47,0,59
5,49,127,0
5,49,0,30
5,42,127,30
5,46,127,90
5,42,0,3
5,49,127,86
5,46,0,1
5,49,0,29
5,44,127,62
5,47,127,89
5,44,0,1
5,47,0,59
5,49,127,0
5,49,0,30
5,42,127,30
5,46,127,90
5,42,0,3
5,49,127,86
5,46,0,1
5,49,0,29
5,44,127,62
5,47,127,89
5,44,0,1
5,47,0,59
5,49,127,0
5,49,0,30
5,42,127,30
5,46,127,90
5,42,0,3
5,49,127,86
5,46,0,1
5,49,0,29
5,44,127,62
5,47,127,89
5,44,0,1
5,47,0,59
5,49,127,0
5,49,0,30
5,42,127,30
5,42,0,45
5,42,127,436
5,42,0,30
5,42,127,29
5,42,0,30
5,42,127,390
5,42,0,30
5,42,127,30
5,42,0,30
5,42,127,30
5,42,0,30
5,42,127,330
5,42,0,30
5,42,127,30
5,42,0,30
5,42,127,30
5,42,0,30
5,42,127,30
5,42,0,30
5,54,127,60
5,54,0,30
5,53,127,0
5,53,0,30
5,51,127,0
5,51,0,30
5,49,127,0
5,49,0,30
5,47,127,0
5,47,0,30
5,46,127,0
5,46,0,30
5,44,127,0
5,44,0,30
5,42,127,0
5,46,127,90
5,42,0,3
5,49,127,86
5,46,0,1
5,49,0,29
5,44,127,62
5,47,127,89
5,44,0,1
5,47,0,59
5,49,127,0
5,49,0,30
5,42,127,30
5,46,127,90
5,42,0,3
5,49,127,86
5,46,0,1
5,49,0,29
5,44,127,62
5,47,127,89
5,44,0,1
5,47,0,59
5,49,127,0
5,49,0,30
5,42,127,30
5,46,127,90
5,42,0,3
5,49,127,86
5,46,0,1
5,49,0,29
5,44,127,62
5,47,127,89
5,44,0,1
5,47,0,59
5,49,127,0
5,49,0,30
5,42,127,30
5,46,127,90
5,42,0,3
5,49,127,86
5,46,0,1
5,49,0,29
5,44,127,62
5,47,127,89
5,44,0,1
5,47,0,59
5,49,127,0
5,49,0,30
5,42,127,30
5,46,127,90
5,42,0,3
5,49,127,86
5,46,0,1
5,49,0,29
5,44,127,62
5,47,127,89
5,44,0,1
5,47,0,59
5,49,127,0
5,49,0,30
5,42,127,30
5,46,127,90
5,42,0,3
5,49,127,86
5,46,0,1
5,49,0,29
5,44,127,62
5,47,127,89
5,44,0,1
5,47,0,59
5,49,127,0
5,49,0,30
5,42,127,30
5,46,127,90
5,42,0,3
5,49,127,86
5,46,0,1
5,49,0,29
5,44,127,62
5,47,127,89
5,44,0,1
5,47,0,59
5,49,127,0
5,49,0,30
5,42,127,30
5,46,127,90
5,42,0,3
5,49,127,86
5,46,0,1
5,49,0,29
5,44,127,62
5,47,127,89
5,44,0,1
5,47,0,59
5,49,127,0
5,49,0,30
5,47,127,1950
5,47,0,90
5,47,127,0
5,47,0,90
5,47,127,0
5,47,0,30
5,47,127,60
5,47,0,90
5,46,127,0
5,46,0,60
5,44,127,0
5,44,0,30
5,42,127,30
5,42,0,90
5,42,127,0
5,42,0,90
5,42,127,0
5,42,0,30
5,42,127,61
5,44,127,89
5,42,0,1
5,44,0,59
5,46,127,0
5,46,0,30
5,47,127,30
5,47,0,90
5,47,127,0
5,47,0,90
5,47,127,0
5,47,0,30
5,47,127,61
5,46,127,89
5,47,0,1
5,46,0,59
5,44,127,0
5,44,0,30
5,42,127,30
5,42,0,90
5,42,127,0
5,42,0,90
5,42,127,0
5,42,0,30
5,42,127,61
5,44,127,89
5,42,0,1
5,44,0,59
5,46,127,0
5,46,0,30
5,47,127,30
5,47,0,90
5,47,127,0
5,47,0,90
5,47,127,0
5,47,0,30
5,47,127,61
5,46,127,89
5,47,0,1
5,46,0,59
5,44,127,0
5,44,0,30
5,42,127,30
5,42,0,90
5,42,127,0
5,42,0,90
5,42,127,0
5,42,0,30
5,42,127,61
5,42,127,89
5,42,0,1
5,42,0,59
5,42,127,0
5,42,0,30
5,44,127,30
5,44,0,90
5,44,127,0
5,44,0,90
5,44,127,0
5,44,0,30
5,44,127,60
5,44,0,90
5,44,127,0
5,44,0,60
5,44,127,0
5,44,0,30
5,37,127,30
5,37,0,90
5,37,127,0
5,37,0,90
5,37,127,0
5,37,0,30
5,49,127,60
5,49,0,90
5,47,127,0
5,47,0,60
5,44,127,0
5,44,0,30
5,42,127,30
5,46,127,90
5,42,0,3
5,49,127,86
5,46,0,1
5,49,0,29
5,44,127,62
5,47,127,89
5,44,0,1
5,47,0,59
5,49,127,0
5,49,0,30
5,42,127,30
5,46,127,90
5,42,0,3
5,49,127,86
5,46,0,1
5,49,0,29
5,44,127,62
5,47,127,89
5,44,0,1
5,47,0,59
5,49,127,0
5,49,0,30
5,42,127,30
5,46,127,90
5,42,0,3
5,49,127,86
5,46,0,1
5,49,0,29
5,44,127,62
5,47,127,89
5,44,0,1
5,47,0,59
5,49,127,0
5,49,0,30
5,42,127,30
5,46,127,90
5,42,0,3
5,49,127,86
5,46,0,1
5,49,0,29
5,44,127,62
5,47,127,89
5,44,0,1
5,47,0,59
5,49,127,0
5,49,0,30
5,42,127,30
5,46,127,90
5,42,0,3
5,49,127,86
5,46,0,1
5,49,0,29
5,44,127,62
5,47,127,89
5,44,0,1
5,47,0,59
5,49,127,0
5,49,0,30
5,42,127,30
5,46,127,90
5,42,0,3
5,49,127,86
5,46,0,1
5,49,0,29
5,44,127,62
5,47,127,89
5,44,0,1
5,47,0,59
5,49,127,0
5,49,0,30
5,42,127,30
5,46,127,90
5,42,0,3
5,49,127,86
5,46,0,1
5,49,0,29
5,44,127,62
5,47,127,89
5,44,0,1
5,47,0,59
5,49,127,0
5,49,0,30
5,42,127,30
5,46,127,90
5,42,0,3
5,49,127,86
5,46,0,1
5,49,0,29
5,44,127,62
5,47,127,89
5,44,0,1
5,47,0,59
5,49,127,0
5,49,0,30
6,30,127,960
6,30,0,45
6,30,127,436
6,30,0,30
6,30,127,29
6,30,0,30
6,30,127,390
6,30,0,30
6,30,127,30
6,30,0,30
6,30,127,30
6,30,0,30
6,30,127,330
6,30,0,30
6,30,127,30
6,30,0,30
6,30,127,30
6,30,0,30
6,30,127,30
6,30,0,30
6,42,127,60
6,42,0,30
6,41,127,0
6,41,0,30
6,39,127,0
6,39,0,30
6,37,127,0
6,37,0,30
6,35,127,0
6,35,0,30
6,34,127,0
6,34,0,30
6,37,127,0
6,37,0,30
6,30,127,0
6,34,127,90
6,30,0,3
6,37,127,86
6,34,0,1
6,37,0,29
6,32,127,62
6,35,127,89
6,32,0,1
6,35,0,59
6,37,127,0
6,37,0,30
6,30,127,30
6,34,127,90
6,30,0,3
6,37,127,86
6,34,0,1
6,37,0,29
6,32,127,62
6,35,127,89
6,32,0,1
6,35,0,59
6,37,127,0
6,37,0,30
6,30,127,30
6,34,127,90
6,30,0,3
6,37,127,86
6,34,0,1
6,37,0,29
6,32,127,62
6,35,127,89
6,32,0,1
6,35,0,59
6,37,127,0
6,37,0,30
6,30,127,30
6,34,127,90
6,30,0,3
6,37,127,86
6,34,0,1
6,37,0,29
6,32,127,62
6,35,127,89
6,32,0,1
6,35,0,59
6,37,127,0
6,37,0,30
6,30,127,30
6,34,127,90
6,30,0,3
6,37,127,86
6,34,0,1
6,37,0,29
6,32,127,62
6,35,127,89
6,32,0,1
6,35,0,59
6,37,127,0
6,37,0,30
6,30,127,30
6,34,127,90
6,30,0,3
6,37,127,86
6,34,0,1
6,37,0,29
6,32,127,62
6,35,127,89
6,32,0,1
6,35,0,59
6,37,127,0
6,37,0,30
6,30,127,30
6,34,127,90
6,30,0,3
6,37,127,86
6,34,0,1
6,37,0,29
6,32,127,62
6,35,127,89
6,32,0,1
6,35,0,59
6,37,127,0
6,37,0,30
6,30,127,30
6,34,127,90
6,30,0,3
6,37,127,86
6,34,0,1
6,37,0,29
6,32,127,62
6,35,127,89
6,32,0,1
6,35,0,59
6,37,127,0
6,37,0,30
6,30,127,30
6,30,0,45
6,30,127,436
6,30,0,30
6,30,127,29
6,30,0,30
6,30,127,390
6,30,0,30
6,30,127,30
6,30,0,30
6,30,127,30
6,30,0,30
6,30,127,330
6,30,0,30
6,30,127,30
6,30,0,30
6,30,127,30
6,30,0,30
6,30,127,30
6,30,0,30
6,42,127,60
6,42,0,30
6,41,127,0
6,41,0,30
6,39,127,0
6,39,0,30
6,37,127,0
6,37,0,30
6,35,127,0
6,35,0,30
6,34,127,0
6,34,0,30
6,32,127,0
6,32,0,30
6,30,127,0
6,34,127,90
6,30,0,3
6,37,127,86
6,34,0,1
6,37,0,29
6,32,127,62
6,35,127,89
6,32,0,1
6,35,0,59
6,37,127,0
6,37,0,30
6,30,127,30
6,34,127,90
6,30,0,3
6,37,127,86
6,34,0,1
6,37,0,29
6,32,127,62
6,35,127,89
6,32,0,1
6,35,0,59
6,37,127,0
6,37,0,30
6,30,127,30
6,34,127,90
6,30,0,3
6,37,127,86
6,34,0,1
6,37,0,29
6,32,127,62
6,35,127,89
6,32,0,1
6,35,0,59
6,37,127,0
6,37,0,30
6,30,127,30
6,34,127,90
6,30,0,3
6,37,127,86
6,34,0,1
6,37,0,29
6,32,127,62
6,35,127,89
6,32,0,1
6,35,0,59
6,37,127,0
6,37,0,30
6,30,127,30
6,34,127,90
6,30,0,3
6,37,127,86
6,34,0,1
6,37,0,29
6,32,127,62
6,35,127,89
6,32,0,1
6,35,0,59
6,37,127,0
6,37,0,30
6,30,127,30
6,34,127,90
6,30,0,3
6,37,127,86
6,34,0,1
6,37,0,29
6,32,127,62
6,35,127,89
6,32,0,1
6,35,0,59
6,37,127,0
6,37,0,30
6,30,127,30
6,34,127,90
6,30,0,3
6,37,127,86
6,34,0,1
6,37,0,29
6,32,127,62
6,35,127,89
6,32,0,1
6,35,0,59
6,37,127,0
6,37,0,30
6,30,127,30
6,34,127,90
6,30,0,3
6,37,127,86
6,34,0,1
6,37,0,29
6,32,127,62
6,35,127,89
6,32,0,1
6,35,0,59
6,37,127,0
6,37,0,30
6,35,127,1950
6,35,0,90
6,35,127,0
6,35,0,90
6,35,127,0
6,35,0,30
6,35,127,60
6,35,0,90
6,34,127,0
6,34,0,60
6,32,127,0
6,32,0,30
6,30,127,30
6,30,0,90
6,30,127,0
6,30,0,90
6,30,127,0
6,30,0,30
6,30,127,61
6,32,127,89
6,30,0,1
6,32,0,59
6,34,127,0
6,34,0,30
6,35,127,30
6,35,0,90
6,35,127,0
6,35,0,90
6,35,127,0
6,35,0,30
6,35,127,61
6,34,127,89
6,35,0,1
6,34,0,59
6,32,127,0
6,32,0,30
6,30,127,30
6,30,0,90
6,30,127,0
6,30,0,90
6,30,127,0
6,30,0,30
6,30,127,61
6,32,127,89
6,30,0,1
6,32,0,59
6,34,127,0
6,34,0,30
6,35,127,30
6,35,0,90
6,35,127,0
6,35,0,90
6,35,127,0
6,35,0,30
6,35,127,61
6,34,127,89
6,35,0,1
6,34,0,59
6,32,127,0
6,32,0,30
6,30,127,30
6,30,0,90
6,30,127,0
6,30,0,90
6,30,127,0
6,30,0,30
6,30,127,61
6,30,127,89
6,30,0,1
6,30,0,59
6,30,127,0
6,30,0,30
6,32,127,30
6,32,0,90
6,32,127,0
6,32,0,90
6,32,127,0
6,32,0,30
6,32,127,60
6,32,0,90
6,32,127,0
6,32,0,60
6,32,127,0
6,32,0,30
6,25,127,30
6,25,0,90
6,25,127,0
6,25,0,90
6,25,127,0
6,25,0,30
6,37,127,60
6,37,0,90
6,35,127,0
6,35,0,60
6,32,127,0
6,32,0,30
6,30,127,30
6,34,127,90
6,30,0,3
6,37,127,86
6,34,0,1
6,37,0,29
6,32,127,62
6,35,127,89
6,32,0,1
6,35,0,59
6,37,127,0
6,37,0,30
6,30,127,30
6,34,127,90
6,30,0,3
6,37,127,86
6,34,0,1
6,37,0,29
6,32,127,62
6,35,127,89
6,32,0,1
6,35,0,59
6,37,127,0
6,37,0,30
6,30,127,30
6,34,127,90
6,30,0,3
6,37,127,86
6,34,0,1
6,37,0,29
6,32,127,62
6,35,127,89
6,32,0,1
6,35,0,59
6,37,127,0
6,37,0,30
6,30,127,30
6,34,127,90
6,30,0,3
6,37,127,86
6,34,0,1
6,37,0,29
6,32,127,62
6,35,127,89
6,32,0,1
6,35,0,59
6,37,127,0
6,37,0,30
6,30,127,30
6,34,127,90
6,30,0,3
6,37,127,86
6,34,0,1
6,37,0,29
6,32,127,62
6,35,127,89
6,32,0,1
6,35,0,59
6,37,127,0
6,37,0,30
6,30,127,30
6,34,127,90
6,30,0,3
6,37,127,86
6,34,0,1
6,37,0,29
6,32,127,62
6,35,127,89
6,32,0,1
6,35,0,59
6,37,127,0
6,37,0,30
6,30,127,30
6,34,127,90
6,30,0,3
6,37,127,86
6,34,0,1
6,37,0,29
6,32,127,62
6,35,127,89
6,32,0,1
6,35,0,59
6,37,127,0
6,37,0,30
6,30,127,30
6,34,127,90
6,30,0,3
6,37,127,86
6,34,0,1
6,37,0,29
6,32,127,62
6,35,127,89
6,32,0,1
6,35,0,59
6,37,127,0
6,37,0,30
7,73,127,8640
7,73,0,27
7,73,127,28
7,73,0,15
7,73,127,19
7,73,0,29
7,73,127,25
7,73,0,26
7,73,127,34
7,73,0,27
7,73,127,38
7,73,0,64
7,73,127,28
7,73,0,40
7,71,127,17
7,71,0,29
7,71,127,34
7,71,0,30
7,70,127,30
7,70,0,30
7,70,127,0
7,70,0,43
7,68,127,17
7,68,0,25
7,66,127,5
7,66,0,79
7,73,127,221
7,73,0,27
7,73,127,28
7,73,0,15
7,73,127,20
7,73,0,30
7,73,127,30
7,73,0,26
7,73,127,34
7,73,0,30
7,73,127,28
7,73,0,64
7,73,127,28
7,73,0,40
7,71,127,17
7,71,0,29
7,71,127,34
7,71,0,30
7,70,127,30
7,70,0,30
7,70,127,0
7,70,0,43
7,68,127,17
7,68,0,25
7,66,127,5
7,66,0,79
7,70,127,221
7,70,0,23
7,70,127,37
7,70,0,23
7,70,127,25
7,70,0,25
7,70,127,22
7,70,0,32
7,71,127,20
7,71,0,31
7,70,127,25
7,70,0,38
7,73,127,194
7,73,0,18
7,73,127,99
7,73,0,29
7,71,127,27
7,71,0,18
7,73,127,23
7,73,0,15
7,71,127,92
7,71,0,18
7,68,127,19
7,68,0,33
7,73,127,40
7,73,0,77
7,73,127,38
7,73,0,93
7,73,127,27
7,73,0,92
7,71,127,28
7,71,0,29
7,73,127,1
7,73,0,16
7,71,127,5
7,71,0,56
7,70,127,4
7,70,0,120
7,70,127,360
7,73,127,0
7,73,0,60
7,70,0,0
7,70,127,0
7,66,127,0
