track,note,velocity,time
1,75,95,39540
1,80,93,0
1,77,90,0
1,72,85,0
1,80,84,24
1,77,87,0
1,82,97,0
1,74,88,4
1,84,87,40
1,82,82,0
1,76,86,0
1,79,97,0
1,84,100,32
1,89,104,0
1,87,91,0
1,80,65,0
1,91,86,0
1,89,65,4
1,86,87,12
1,82,91,8
1,75,95,8
1,80,93,0
1,77,90,0
1,72,85,0
1,80,84,24
1,77,87,0
1,82,97,0
1,74,88,4
1,84,87,40
1,82,82,0
1,76,86,0
1,79,97,0
1,84,100,32
1,89,104,0
1,87,91,0
1,80,65,0
1,75,95,8
1,80,93,0
1,77,90,0
1,72,85,0
1,80,84,24
1,77,87,0
1,82,97,0
1,74,88,4
1,84,87,40
1,82,82,0
1,76,86,0
1,79,97,0
1,87,95,48
1,89,100,0
1,84,77,0
1,80,89,0
1,86,86,0
1,88,61,0
1,84,76,8
1,83,84,0
1,81,86,0
1,79,77,16
1,77,76,0
1,94,97,288
1,89,95,0
1,91,98,0
1,86,91,20
1,75,95,49100
1,80,93,0
1,77,90,0
1,72,85,0
1,80,84,24
1,77,87,0
1,82,97,0
1,74,88,4
1,84,87,40
1,82,82,0
1,76,86,0
1,79,97,0
1,84,100,32
1,89,104,0
1,87,91,0
1,80,65,0
1,91,86,0
1,89,65,4
1,86,87,12
1,82,91,8
1,75,95,8
1,80,93,0
1,77,90,0
1,72,85,0
1,80,84,24
1,77,87,0
1,82,97,0
1,74,88,4
1,84,87,40
1,82,82,0
1,76,86,0
1,79,97,0
1,84,100,32
1,89,104,0
1,87,91,0
1,80,65,0
1,75,95,8
1,80,93,0
1,77,90,0
1,72,85,0
1,80,84,24
1,77,87,0
1,82,97,0
1,74,88,4
1,84,87,40
1,82,82,0
1,76,86,0
1,79,97,0
1,87,95,48
1,89,100,0
1,84,77,0
1,80,89,0
1,86,86,0
1,88,61,0
1,84,76,8
1,83,84,0
1,81,86,0
1,79,77,16
1,77,76,0
1,86,97,288
1,82,98,0
1,79,95,0
1,77,91,20
1,85,107,12
1,80,119,0
1,77,92,0
1,82,89,64
1,77,85,0
1,80,91,4
1,74,80,8
1,85,104,32
1,80,107,0
1,77,95,0
1,82,93,68
1,80,93,0
1,77,84,0
1,74,87,20
1,82,99,32
1,79,102,0
1,84,97,0
1,76,86,8
1,87,100,12276
1,89,90,20
1,84,84,0
1,80,89,88
1,87,89,0
1,84,89,0
1,86,80,408
1,82,67,0
1,75,84,140
1,72,81,0
1,77,85,0
1,75,85,448
1,72,88,0
1,77,81,8
1,75,84,416
1,72,88,0
1,77,85,0
1,75,97,84
1,72,90,16
1,70,70,0
1,74,80,12
1,72,97,40
1,77,90,4
1,89,94,256
1,87,91,0
1,84,85,0
1,80,93,84
1,84,92,0
1,87,84,0
1,89,94,0
1,89,88,44
1,82,82,0
1,86,104,8
1,75,89,16
1,89,94,4
1,80,97,0
1,84,92,0
1,72,83,0
1,68,74,0
1,84,88,0
1,92,79,0
1,87,95,0
1,89,102,0
1,92,79,12
1,80,87,12
1,85,85,0
1,89,94,4
1,70,72,0
1,77,90,0
1,74,87,0
1,86,84,32
1,85,78,108
1,86,93,44
1,89,106,0
1,82,99,0
1,85,93,0
1,92,70,0
1,77,67,8
1,80,67,16
1,82,104,24
1,84,93,4
1,80,99,184
1,92,86,0
1,80,93,4
1,87,95,0
1,84,85,0
1,77,90,0
1,80,93,24
1,86,97,0
1,77,93,0
1,89,87,0
1,92,84,0
1,94,88,4
1,84,92,28
1,88,92,0
1,91,92,0
1,94,92,0
1,96,92,0
1,79,92,0
1,89,100,20
1,84,77,0
1,80,89,0
1,87,95,0
1,88,61,0
1,84,76,8
1,83,84,0
1,81,86,32
1,79,77,16
1,77,76,0
1,86,97,288
1,82,98,0
1,79,95,0
1,77,91,20
1,89,86,12
1,91,79,0
1,80,95,24576
1,72,83,0
1,75,91,0
1,82,93,80
1,74,80,0
1,77,77,4
1,84,80,8
1,79,90,12
1,76,75,0
1,84,100,8
1,89,108,12
1,87,97,0
1,89,104,48
1,84,100,4
1,87,113,4
1,89,112,8
1,84,104,4
1,87,113,0
1,89,114,8
1,84,104,8
1,87,119,0
1,84,106,16
1,89,127,0
1,87,123,0
1,88,57,12
1,86,97,4
1,83,69,16
1,81,90,16
1,79,95,8
1,77,69,28
1,80,113,16
1,75,91,12
1,72,86,0
1,82,110,36
1,74,102,0
1,77,95,0
1,84,102,0
1,79,112,0
1,76,90,0
1,60,76,104
1,62,92,8
1,64,94,16
1,65,84,8
1,67,78,8
1,69,92,8
1,71,95,12
1,72,97,0
1,74,97,0
1,76,91,8
1,77,86,8
1,79,90,12
1,81,64,16
1,87,110,20
1,84,94,0
1,89,114,0
1,84,98,16
1,89,110,0
1,87,107,0
1,84,95,20
1,87,99,0
1,89,112,0
1,87,95,52
1,84,108,4
1,89,114,0
1,89,102,56
1,86,102,0
1,82,95,8
1,80,104,0
1,75,99,0
1,72,88,0
1,82,113,12
1,77,87,4
1,74,94,12
1,84,90,16
1,79,100,4
1,76,86,0
1,87,93,24
1,89,106,12
1,84,100,0
1,80,116,0
1,82,68,44
1,86,79,0
1,80,104,20
1,75,99,0
1,72,88,0
1,82,113,12
1,77,87,4
1,74,94,12
1,84,90,16
1,79,100,4
1,76,86,0
1,87,93,24
1,89,106,12
1,84,100,0
1,80,116,0
1,82,68,44
1,86,79,0
1,80,104,20
1,75,99,0
1,72,88,0
1,82,113,12
1,77,87,4
1,74,94,12
1,84,90,16
1,79,100,4
1,76,86,0
1,87,93,24
1,89,106,12
1,84,100,0
1,80,116,0
1,82,68,44
1,86,79,0
1,80,104,20
1,75,99,0
1,72,88,0
1,82,113,12
1,77,87,4
1,74,94,12
1,84,90,16
1,79,100,4
1,76,86,0
1,87,93,24
1,89,106,12
1,84,100,0
1,80,116,0
1,82,68,44
1,86,79,0
1,80,104,20
1,75,99,0
1,72,88,0
1,82,113,12
1,77,87,4
1,74,94,12
1,84,90,16
1,79,100,4
1,76,86,0
1,87,93,24
1,89,106,12
1,84,100,0
1,80,116,0
1,82,68,44
1,86,79,0
1,80,104,20
1,75,99,0
1,72,88,0
1,82,113,12
1,77,87,4
1,74,94,12
1,84,90,16
1,79,100,4
1,76,86,0
1,87,93,24
1,89,106,12
1,84,100,0
1,80,116,0
1,82,68,44
1,86,79,0
1,80,104,20
1,75,99,0
1,72,88,0
1,82,113,12
1,77,87,4
1,74,94,12
1,84,90,16
1,79,100,4
1,76,86,0
1,87,93,24
1,89,106,12
1,84,100,0
1,80,116,0
1,82,68,44
1,86,79,0
1,80,104,20
1,75,99,0
1,72,88,0
1,82,113,12
1,77,87,4
1,74,94,12
1,84,90,16
1,79,100,4
1,76,86,0
1,87,93,24
1,89,106,12
1,84,100,0
1,80,116,0
1,82,68,44
1,86,79,0
1,80,89,8
1,84,92,0
1,72,93,0
1,77,100,0
2,29,106,2656
2,29,114,152
2,27,110,12
2,29,110,84
2,29,94,56
2,29,112,852
2,24,104,32
2,27,113,92
2,29,100,72
2,29,106,124
2,27,97,52
2,29,114,76
2,29,88,52
2,29,106,908
2,24,98,32
2,27,116,88
2,29,108,84
2,29,106,140
2,27,104,28
2,29,110,76
2,29,91,56
2,29,106,940
2,24,100,64
2,27,101,52
2,29,112,116
2,29,106,144
2,27,97,48
2,29,116,64
2,29,117,48
2,29,110,872
2,24,101,32
2,27,108,48
2,29,111,160
2,29,111,152
2,27,111,12
2,29,110,84
2,29,94,56
2,29,112,852
2,24,104,32
2,27,113,92
2,29,100,72
2,29,106,124
2,27,97,52
2,29,114,76
2,29,88,52
2,29,106,908
2,24,98,32
2,27,116,88
2,29,108,84
2,29,106,140
2,27,104,28
2,29,110,76
2,29,91,56
2,29,106,940
2,24,100,64
2,27,101,52
2,29,112,116
2,29,106,144
2,27,97,48
2,29,112,64
2,29,114,48
2,29,112,872
2,24,100,32
2,27,113,48
2,29,106,160
2,29,114,152
2,27,110,12
2,29,110,84
2,29,94,56
2,29,112,852
2,24,104,32
2,27,113,92
2,29,100,72
2,29,106,124
2,27,97,52
2,29,114,76
2,29,88,52
2,29,106,908
2,24,98,32
2,27,116,88
2,29,108,84
2,29,106,140
2,27,104,28
2,29,110,76
2,29,91,56
2,29,106,940
2,24,100,64
2,27,101,52
2,24,112,124
2,24,105,60
2,24,110,52
2,24,104,60
2,27,113,92
2,27,111,64
2,27,111,96
2,27,112,60
2,32,116,136
2,32,115,68
2,32,116,64
2,32,113,76
2,34,107,64
2,34,119,72
2,36,104,84
2,36,106,60
2,29,110,36
2,29,110,180
2,27,113,16
2,29,112,60
2,29,102,44
2,29,110,880
2,24,111,32
2,27,113,28
2,32,116,108
2,32,113,76
2,32,113,104
2,32,110,64
2,32,95,48
2,34,101,24
2,34,110,44
2,36,102,92
2,36,102,68
2,29,106,100
2,29,106,140
2,27,89,16
2,29,106,52
2,29,102,48
2,29,112,852
2,24,97,24
2,27,110,64
2,32,116,160
2,32,110,76
2,32,99,104
2,27,104,48
2,32,97,28
2,34,99,28
2,34,110,84
2,36,104,108
2,36,104,52
2,29,110,128
2,29,102,104
2,29,100,72
2,29,104,56
2,29,110,60
2,36,118,308
2,29,106,56
2,29,114,152
2,27,110,12
2,29,110,84
2,29,94,56
2,29,112,852
2,24,104,32
2,27,113,92
2,29,100,72
2,29,106,124
2,27,97,52
2,29,114,76
2,29,88,52
2,29,106,908
2,24,98,32
2,27,116,88
2,29,108,84
2,29,106,140
2,27,104,28
2,29,110,76
2,29,91,56
2,29,106,940
2,24,100,64
2,27,101,52
2,29,112,116
2,29,106,144
2,27,97,48
2,29,112,64
2,29,114,48
2,29,112,872
2,24,100,32
2,27,113,48
2,29,106,160
2,29,114,152
2,27,110,12
2,29,110,84
2,29,94,56
2,29,112,852
2,24,104,32
2,27,113,92
2,29,100,72
2,29,106,124
2,27,97,52
2,29,114,76
2,29,88,52
2,29,106,908
2,24,98,32
2,27,116,88
2,29,108,84
2,29,106,140
2,27,104,28
2,29,110,76
2,29,91,56
2,29,106,940
2,24,100,64
2,27,101,52
2,29,112,116
2,29,106,144
2,27,97,48
2,29,112,64
2,29,114,48
2,29,112,872
2,24,100,32
2,27,113,48
2,29,106,160
2,29,114,152
2,27,110,12
2,29,110,84
2,29,94,56
2,29,112,852
2,24,104,32
2,27,113,92
2,29,100,72
2,29,106,124
2,27,97,52
2,29,114,76
2,29,88,52
2,29,106,908
2,24,98,32
2,27,116,88
2,29,108,84
2,29,106,140
2,27,104,28
2,29,110,76
2,29,91,56
2,29,106,940
2,24,100,64
2,27,101,52
2,29,112,116
2,29,106,144
2,27,97,48
2,29,112,64
2,29,114,48
2,29,112,872
2,24,100,32
2,27,113,48
2,29,106,160
2,29,114,152
2,27,110,12
2,29,110,84
2,29,94,56
2,29,112,852
2,24,104,32
2,27,113,92
2,29,100,72
2,29,106,124
2,27,97,52
2,29,114,76
2,29,88,52
2,29,106,908
2,24,98,32
2,27,116,88
2,29,108,84
2,29,106,140
2,27,104,28
2,29,110,76
2,29,91,56
2,29,106,940
2,24,100,64
2,27,101,52
2,24,112,124
2,24,105,60
2,24,110,52
2,24,104,60
2,27,113,92
2,27,111,64
2,27,111,96
2,27,112,60
2,32,116,136
2,32,115,68
2,32,116,64
2,32,113,76
2,34,107,64
2,34,119,72
2,36,104,84
2,36,106,60
2,29,110,36
2,29,110,180
2,27,113,16
2,29,112,60
2,29,102,44
2,29,110,880
2,24,111,32
2,27,113,28
2,32,116,108
2,32,113,76
2,32,113,104
2,32,110,64
2,32,95,48
2,34,101,24
2,34,110,44
2,36,102,92
2,36,102,68
2,29,106,100
2,29,106,140
2,27,89,16
2,29,106,52
2,29,102,48
2,29,112,852
2,24,97,24
2,27,110,64
2,32,116,160
2,32,110,76
2,32,99,104
2,27,104,48
2,32,97,28
2,34,99,28
2,34,110,84
2,36,104,108
2,36,104,52
2,29,110,128
2,29,102,104
2,29,100,72
2,29,104,56
2,29,110,60
2,36,118,308
2,37,113,56
2,37,113,48
2,37,87,16
2,37,116,48
2,25,101,192
2,37,113,8
2,37,104,88
2,44,101,192
2,37,101,100
2,37,104,28
2,34,123,4
2,34,113,52
2,34,119,60
2,34,94,48
2,34,114,64
2,34,113,156
2,41,92,16
2,44,64,0
2,51,96,192
2,50,71,4
2,46,88,188
2,41,56,100
2,34,101,0
2,37,101,16
2,37,104,68
2,44,84,0
2,37,99,196
2,44,97,40
2,49,61,192
2,49,86,44
2,49,99,4
2,44,77,192
2,49,99,100
2,34,113,40
2,34,113,52
2,34,110,104
2,29,97,0
2,34,110,0
2,35,90,192
2,36,108,36
2,36,90,32
2,36,98,36
2,36,98,36
2,36,91,56
2,36,110,24
2,48,97,88
2,46,64,100
2,44,77,84
2,29,106,84
2,29,114,152
2,27,110,12
2,29,110,84
2,29,94,56
2,29,112,852
2,24,104,32
2,27,113,92
2,29,100,72
2,29,106,124
2,27,97,52
2,29,114,76
2,29,88,52
2,29,106,908
2,24,98,32
2,27,116,88
2,29,108,84
2,29,106,140
2,27,104,28
2,29,110,76
2,29,91,56
2,29,106,940
2,24,100,64
2,27,101,52
2,29,112,116
2,29,106,144
2,27,97,48
2,29,112,64
2,29,114,48
2,29,112,872
2,24,100,32
2,27,113,48
2,29,106,160
2,29,114,152
2,27,110,12
2,29,110,84
2,29,94,56
2,29,112,852
2,24,104,32
2,27,113,92
2,29,100,72
2,29,106,124
2,27,97,52
2,29,114,76
2,29,88,52
2,29,106,908
2,24,98,32
2,27,116,88
2,29,108,84
2,29,106,140
2,27,104,28
2,29,110,76
2,29,91,56
2,29,106,940
2,24,100,64
2,27,101,52
2,29,112,124
2,29,105,60
2,27,110,52
2,27,104,60
2,26,113,92
2,26,111,64
2,25,111,96
2,24,112,60
2,32,116,136
2,32,110,76
2,32,99,104
2,32,99,52
2,34,99,52
2,34,110,84
2,34,104,108
2,36,104,52
2,29,110,128
2,29,102,104
2,29,100,72
2,29,104,56
2,29,110,60
2,36,118,308
2,29,106,56
2,29,114,152
2,27,110,12
2,29,110,84
2,29,94,56
2,29,112,852
2,24,104,32
2,27,113,92
2,29,100,72
2,29,106,124
2,27,97,52
2,29,114,76
2,29,88,52
2,29,106,908
2,24,98,32
2,27,116,88
2,29,108,84
2,29,106,140
2,27,104,28
2,29,110,76
2,29,91,56
2,29,106,940
2,24,100,64
2,27,101,52
2,29,112,116
2,29,106,144
2,27,97,48
2,29,112,64
2,29,114,48
2,29,112,872
2,24,100,32
2,27,113,48
2,29,106,160
2,29,114,152
2,27,110,12
2,29,110,84
2,29,94,56
2,29,112,852
2,24,104,32
2,27,113,92
2,29,100,72
2,29,106,124
2,27,97,52
2,29,114,76
2,29,88,52
2,29,106,908
2,24,98,32
2,27,116,88
2,29,108,84
2,29,106,140
2,27,104,28
2,29,110,76
2,29,91,56
2,29,106,940
2,24,100,64
2,27,101,52
2,24,112,124
2,24,105,60
2,24,110,52
2,24,104,60
2,27,113,92
2,27,111,64
2,27,111,96
2,27,112,60
2,32,116,136
2,32,115,68
2,32,116,64
2,32,113,76
2,34,107,64
2,34,119,72
2,36,104,84
2,36,106,60
2,29,110,36
2,29,110,180
2,27,113,16
2,29,112,60
2,29,102,44
2,29,110,880
2,24,111,32
2,27,113,28
2,32,116,108
2,32,113,76
2,32,113,104
2,32,110,64
2,32,95,48
2,34,101,24
2,34,110,44
2,36,102,92
2,36,102,68
2,29,106,100
2,29,106,140
2,27,89,16
2,29,106,52
2,29,102,48
2,29,112,852
2,24,97,24
2,27,110,64
2,32,116,160
2,32,115,68
2,32,116,64
2,27,116,8
2,32,113,28
2,34,107,64
2,34,119,72
2,36,104,84
2,36,106,60
2,29,110,36
2,29,110,180
2,27,113,16
2,29,112,60
2,29,102,44
2,29,110,880
2,24,111,32
2,27,113,28
2,32,116,108
2,32,113,76
2,32,113,104
2,27,113,8
2,32,110,0
2,33,81,4
2,34,110,24
2,34,118,8
2,34,110,8
2,36,102,92
