track,note,velocity,time
1,50,111,2664
1,57,90,0
1,60,102,188
1,67,117,188
1,50,97,64
1,57,82,8
1,60,94,196
1,67,117,188
1,50,101,60
1,57,91,4
1,60,105,176
1,67,115,196
1,50,109,92
1,57,73,8
1,60,89,192
1,67,110,188
1,60,98,60
1,66,116,108
1,60,97,68
1,57,93,112
1,67,111,52
1,60,100,48
1,45,106,8
1,45,113,8
1,52,100,0
1,57,97,0
1,61,97,4
1,45,120,340
1,51,97,0
1,57,100,0
1,61,88,8
1,43,119,20
1,55,101,8
1,59,101,4
1,50,104,4
1,45,119,16
1,52,92,4
1,57,107,0
1,61,91,0
1,57,112,900
1,62,117,0
1,66,113,8
1,52,114,4
1,57,106,0
1,61,118,0
1,64,115,8
1,50,116,16
1,43,95,0
1,55,105,0
1,59,106,0
1,62,106,12
1,43,57,20
1,50,113,0
1,55,97,4
1,59,82,8
1,55,113,4
1,60,113,0
1,64,109,4
1,43,51,0
1,55,110,0
1,59,103,0
1,50,117,0
1,62,110,0
1,67,42,16
1,52,117,1892
1,57,105,0
1,61,104,0
1,45,119,0
1,45,109,4
1,51,90,4
1,57,83,4
1,61,89,0
1,43,91,20
1,50,106,4
1,55,107,0
1,59,97,0
1,45,93,4
1,57,100,4
1,61,107,4
1,52,107,0
1,57,113,912
1,62,117,4
1,66,116,4
1,52,107,12
1,57,109,0
1,61,117,0
1,64,114,12
1,69,26,4
1,50,118,16
1,43,59,4
1,55,113,0
1,59,117,4
1,62,115,4
1,67,57,0
1,50,104,24
1,43,43,0
1,55,100,0
1,59,103,8
1,62,88,8
1,55,107,64
1,60,113,4
1,64,117,0
1,50,102,8
1,55,107,4
1,59,103,4
1,62,81,4
1,45,111,16
1,52,115,0
1,57,108,0
1,61,114,4
1,69,86,8
1,64,107,8
1,52,115,12
1,45,113,0
1,57,107,4
1,61,113,4
1,43,111,68
1,50,113,4
1,55,104,0
1,59,98,8
1,62,93,0
1,45,113,28
1,52,103,0
1,57,101,4
1,61,102,4
1,64,91,4
1,57,110,908
1,62,115,0
1,66,117,0
1,57,107,216
1,61,115,4
1,64,104,12
1,43,100,12
1,50,115,0
1,55,109,4
1,59,113,4
1,62,87,4
1,43,90,204
1,50,101,4
1,59,107,8
1,55,97,0
1,62,88,4
1,55,110,36
1,60,111,0
1,64,106,0
1,50,101,8
1,55,97,0
1,43,82,0
1,59,75,8
1,52,110,16
1,45,104,0
1,57,111,0
1,61,111,0
1,69,43,8
1,64,104,4
1,45,116,200
1,52,102,0
1,57,97,4
1,61,93,4
1,50,104,16
1,55,104,8
1,59,104,0
1,62,106,0
1,67,42,4
1,52,109,8
1,57,104,0
1,61,113,4
1,64,107,4
1,57,109,192
1,62,113,4
1,66,111,4
1,52,100,4
1,45,108,176
1,52,113,4
1,57,110,4
1,61,113,4
1,64,84,4
1,43,40,20
1,50,113,0
1,55,103,4
1,59,107,4
1,62,77,4
1,43,80,544
1,50,100,0
1,55,91,0
1,59,83,8
1,62,26,8
1,55,111,64
1,50,61,4
1,60,115,0
1,64,115,0
1,43,105,8
1,50,107,4
1,55,108,0
1,59,96,8
1,50,118,320
1,57,113,4
1,60,116,0
1,66,115,0
1,69,63,4
1,66,108,28
1,60,117,0
1,57,103,4
1,50,105,28
1,57,97,0
1,50,104,16
1,57,99,4
1,50,104,8
1,57,101,4
1,50,111,16
1,57,109,4
1,60,114,0
1,66,113,0
1,69,26,8
1,66,101,0
1,60,100,8
1,57,84,4
1,50,88,8
1,57,92,0
1,50,85,12
1,57,98,8
1,50,90,4
1,56,88,0
1,50,117,16
1,57,109,0
1,60,112,4
1,66,116,0
1,69,101,4
1,69,47,4
1,66,93,8
1,60,97,8
1,50,81,28
1,57,71,0
1,50,90,24
1,57,91,4
1,50,92,24
1,57,94,0
1,50,117,16
1,57,110,0
1,60,115,4
1,66,116,4
1,69,56,8
1,66,110,0
1,60,109,0
1,57,95,8
1,75,76,4
1,50,91,24
1,57,97,0
1,50,92,24
1,57,86,0
1,50,109,4
1,57,104,0
1,55,115,12
1,48,120,0
1,64,117,8
1,58,116,4
1,67,36,0
1,64,119,8
1,58,113,8
1,55,88,4
1,48,100,16
1,55,103,0
1,48,75,12
1,55,98,4
1,48,98,8
1,55,90,8
1,48,114,12
1,55,115,0
1,64,117,8
1,58,116,0
1,67,33,8
1,64,119,4
1,58,114,4
1,48,82,16
1,55,94,4
1,48,73,12
1,55,90,4
1,48,82,8
1,55,95,12
1,48,115,8
1,55,111,0
1,64,117,8
1,58,117,0
1,67,71,8
1,64,114,0
1,58,106,8
1,48,66,16
1,55,87,8
1,48,64,12
1,55,98,4
1,55,86,16
1,48,91,0
1,48,113,12
1,55,111,0
1,58,117,0
1,64,118,4
1,67,106,4
1,58,115,0
1,64,114,4
1,55,102,0
1,48,104,16
1,55,100,8
1,48,103,16
1,55,102,0
1,48,26,16
1,55,50,4
1,45,113,8
1,52,100,0
1,57,97,0
1,61,97,4
1,45,120,340
1,51,97,0
1,57,100,0
1,61,88,8
1,43,119,20
1,55,101,8
1,59,101,4
1,50,104,4
1,45,119,16
1,52,92,4
1,57,107,0
1,61,91,0
1,57,112,900
1,62,117,0
1,66,113,8
1,52,114,4
1,57,106,0
1,61,118,0
1,64,115,8
1,50,116,16
1,43,95,0
1,55,105,0
1,59,106,0
1,62,106,12
1,43,57,20
1,50,113,0
1,55,97,4
1,59,82,8
1,55,113,4
1,60,113,0
1,64,109,4
1,43,51,0
1,55,110,0
1,59,103,0
1,50,117,0
1,62,110,0
1,67,42,16
1,52,117,1892
1,57,105,0
1,61,104,0
1,45,119,0
1,45,109,4
1,51,90,4
1,57,83,4
1,61,89,0
1,43,91,20
1,50,106,4
1,55,107,0
1,59,97,0
1,45,93,4
1,57,100,4
1,61,107,4
1,52,107,0
1,57,113,912
1,62,117,4
1,66,116,4
1,52,107,12
1,57,109,0
1,61,117,0
1,64,114,12
1,69,26,4
1,50,118,16
1,43,59,4
1,55,113,0
1,59,117,4
1,62,115,4
1,67,57,0
1,50,104,24
1,43,43,0
1,55,100,0
1,59,103,8
1,62,88,8
1,55,107,64
1,60,113,4
1,64,117,0
1,50,102,8
1,55,107,4
1,59,103,4
1,62,81,4
1,45,111,1880
1,52,115,0
1,57,108,0
1,61,114,4
1,69,86,8
1,64,107,8
1,52,115,12
1,45,113,0
1,57,107,4
1,61,113,4
1,43,111,68
1,50,113,4
1,55,104,0
1,59,98,8
1,62,93,0
1,45,113,28
1,52,103,0
1,57,101,4
1,61,102,4
1,64,91,4
1,57,110,908
1,62,115,0
1,66,117,0
1,57,107,216
1,61,115,4
1,64,104,12
1,43,100,12
1,50,115,0
1,55,109,4
1,59,113,4
1,62,87,4
1,43,90,204
1,50,101,4
1,59,107,8
1,55,97,0
1,62,88,4
1,55,110,36
1,60,111,0
1,64,106,0
1,50,101,8
1,55,97,0
1,43,82,0
1,59,75,8
1,52,110,16
1,45,104,0
1,57,111,0
1,61,111,0
1,69,43,8
1,64,104,4
1,45,116,200
1,52,102,0
1,57,97,4
1,61,93,4
1,50,104,16
1,55,104,8
1,59,104,0
1,62,106,0
1,67,42,4
1,52,109,8
1,57,104,0
1,61,113,4
1,64,107,4
1,57,109,192
1,62,113,4
1,66,111,4
1,52,100,4
1,45,108,176
1,52,113,4
1,57,110,4
1,61,113,4
1,64,84,4
1,43,40,20
1,50,113,0
1,55,103,4
1,59,107,4
1,62,77,4
1,43,80,544
1,50,100,0
1,55,91,0
1,59,83,8
1,62,26,8
1,55,111,64
1,50,61,4
1,60,115,0
1,64,115,0
1,43,105,8
1,50,107,4
1,55,108,0
1,59,96,8
1,50,94,84
1,43,94,4
1,50,99,16
1,43,99,4
1,50,108,8
1,43,108,4
1,50,119,28
1,43,119,0
1,50,118,16
1,57,113,4
1,60,116,0
1,66,115,0
1,69,63,4
1,66,108,28
1,60,117,0
1,57,103,4
1,50,105,28
1,57,97,0
1,50,104,16
1,57,99,4
1,50,104,8
1,57,101,4
1,50,111,16
1,57,109,4
1,60,114,0
1,66,113,0
1,69,26,8
1,66,101,0
1,60,100,8
1,57,84,4
1,50,88,8
1,57,92,0
1,50,85,12
1,57,98,8
1,50,90,4
1,56,88,0
1,50,117,16
1,57,109,0
1,60,112,4
1,66,116,0
1,69,101,4
1,69,47,4
1,66,93,8
1,60,97,8
1,50,81,28
1,57,71,0
1,50,90,24
1,57,91,4
1,50,92,24
1,57,94,0
1,50,117,16
1,57,110,0
1,60,115,4
1,66,116,4
1,69,56,8
1,66,110,0
1,60,109,0
1,57,95,8
1,75,76,4
1,50,91,24
1,57,97,0
1,50,92,24
1,57,86,0
1,50,109,4
1,57,104,0
1,55,115,12
1,48,120,0
1,64,117,8
1,58,116,4
1,67,36,0
1,64,119,8
1,58,113,8
1,55,88,4
1,48,100,16
1,55,103,0
1,48,75,12
1,55,98,4
1,48,98,8
1,55,90,8
1,48,114,12
1,55,115,0
1,64,117,8
1,58,116,0
1,67,33,8
1,64,119,4
1,58,114,4
1,48,82,16
1,55,94,4
1,48,73,12
1,55,90,4
1,48,82,8
1,55,95,12
1,48,115,8
1,55,111,0
1,64,117,8
1,58,117,0
1,67,71,8
1,64,114,0
1,58,106,8
1,48,66,16
1,55,87,8
1,48,64,12
1,55,98,4
1,55,86,16
1,48,91,0
1,48,113,12
1,55,111,0
1,58,117,0
1,64,118,4
1,67,106,4
1,58,115,0
1,64,114,4
1,55,102,0
1,48,104,16
1,55,100,8
1,48,103,16
1,55,102,0
1,48,26,16
1,55,50,4
1,50,111,8
1,57,90,0
1,60,102,188
1,67,117,188
1,50,97,64
1,57,82,8
1,60,94,196
1,67,117,188
1,50,101,60
1,57,91,4
1,60,105,176
1,67,115,196
1,50,109,92
1,57,73,8
1,60,89,192
1,67,110,188
1,60,98,60
1,66,116,108
1,60,97,68
1,57,93,112
1,67,111,52
1,60,100,48
1,45,106,8
1,45,113,8
1,52,100,0
1,57,97,0
1,61,97,4
1,45,120,340
1,51,97,0
1,57,100,0
1,61,88,8
1,43,119,20
1,55,101,8
1,59,101,4
1,50,104,4
1,45,119,16
1,52,92,4
1,57,107,0
1,61,91,0
1,57,112,900
1,62,117,0
1,66,113,8
1,52,114,4
1,57,106,0
1,61,118,0
1,64,115,8
1,50,116,16
1,43,95,0
1,55,105,0
1,59,106,0
1,62,106,12
1,43,57,20
1,50,113,0
1,55,97,4
1,59,82,8
1,55,113,4
1,60,113,0
1,64,109,4
1,43,51,0
1,55,110,0
1,59,103,0
1,50,117,0
1,62,110,0
1,67,42,16
1,52,117,1892
1,57,105,0
1,61,104,0
1,45,119,0
1,45,109,4
1,51,90,4
1,57,83,4
1,61,89,0
1,43,91,20
1,50,106,4
1,55,107,0
1,59,97,0
1,45,93,4
1,57,100,4
1,61,107,4
1,52,107,0
1,57,113,912
1,62,117,4
1,66,116,4
1,52,107,12
1,57,109,0
1,61,117,0
1,64,114,12
1,69,26,4
1,50,118,16
1,43,59,4
1,55,113,0
1,59,117,4
1,62,115,4
1,67,57,0
1,50,104,24
1,43,43,0
1,55,100,0
1,59,103,8
1,62,88,8
1,55,107,64
1,60,113,4
1,64,117,0
1,50,102,8
1,55,107,4
1,59,103,4
1,62,81,4
1,45,111,16
1,52,115,0
1,57,108,0
1,61,114,4
1,69,86,8
1,64,107,8
1,52,115,12
1,45,113,0
1,57,107,4
1,61,113,4
1,43,111,68
1,50,113,4
1,55,104,0
1,59,98,8
1,62,93,0
1,45,113,28
1,52,103,0
1,57,101,4
1,61,102,4
1,64,91,4
1,57,110,908
1,62,115,0
1,66,117,0
1,57,107,216
1,61,115,4
1,64,104,12
1,43,100,12
1,50,115,0
1,55,109,4
1,59,113,4
1,62,87,4
1,43,90,204
1,50,101,4
1,59,107,8
1,55,97,0
1,62,88,4
1,55,110,36
1,60,111,0
1,64,106,0
1,50,101,8
1,55,97,0
1,43,82,0
1,59,75,8
1,52,110,16
1,45,104,0
1,57,111,0
1,61,111,0
1,69,43,8
1,64,104,4
1,45,116,200
1,52,102,0
1,57,97,4
1,61,93,4
1,50,104,16
1,55,104,8
1,59,104,0
1,62,106,0
1,67,42,4
1,52,109,8
1,57,104,0
1,61,113,4
1,64,107,4
1,57,109,192
1,62,113,4
1,66,111,4
1,52,100,4
1,45,108,176
1,52,113,4
1,57,110,4
1,61,113,4
1,64,84,4
1,43,40,20
1,50,113,0
1,55,103,4
1,59,107,4
1,62,77,4
1,43,80,544
1,50,100,0
1,55,91,0
1,59,83,8
1,62,26,8
1,55,111,64
1,50,61,4
1,60,115,0
1,64,115,0
1,43,105,8
1,50,107,4
1,55,108,0
1,59,96,8
1,43,80,28
1,43,115,0
1,50,64,4
1,50,127,16
1,43,127,0
1,55,97,4
1,50,127,4
1,55,107,4
1,50,127,4
1,55,121,4
1,59,116,12
1,50,127,8
1,55,124,4
1,59,119,8
1,50,127,8
1,55,127,4
1,59,121,0
1,50,127,0
1,55,126,0
1,59,121,4
1,62,127,4
1,66,124,0
1,60,119,4
1,64,127,4
1,69,43,12
1,66,126,16
1,62,124,0
1,60,127,8
1,64,127,4
1,69,83,8
1,62,127,12
1,66,127,0
1,60,127,4
1,64,127,0
1,62,127,4
1,66,127,4
1,60,127,8
1,64,127,0
1,57,127,36
1,62,127,0
1,62,127,4
1,66,127,0
1,71,112,0
1,60,121,20
1,64,124,0
1,62,127,0
1,66,116,0
1,60,127,8
1,64,124,0
1,62,127,36
1,66,127,0
1,60,119,12
1,64,127,4
1,62,127,4
1,66,127,0
1,60,127,0
1,64,127,0
1,57,127,32
1,62,127,0
1,66,116,0
1,62,127,4
1,66,127,4
1,60,117,4
1,64,107,0
1,62,121,0
1,66,108,0
1,62,124,0
1,66,120,4
1,60,93,4
1,64,28,4
1,62,127,4
1,66,127,12
1,60,121,4
1,64,108,0
1,62,125,8
1,66,117,0
1,62,124,8
1,66,117,0
1,62,127,388
1,66,124,0
1,60,108,4
1,64,104,4
1,62,118,20
1,66,111,0
1,60,119,32
1,64,112,0
1,62,127,4
1,66,124,12
1,60,127,16
1,64,127,0
1,62,127,16
1,66,127,4
1,60,127,4
1,64,127,0
1,69,28,4
1,62,127,0
1,66,127,4
1,71,80,24
1,60,127,36
1,69,33,0
1,64,127,0
1,66,127,8
1,62,121,0
1,70,73,4
1,60,127,12
1,64,127,0
1,69,33,12
1,62,125,16
1,66,124,4
1,70,73,36
1,45,111,292
1,52,115,0
1,57,108,0
1,61,114,4
1,69,86,8
1,64,107,8
1,52,115,12
1,45,113,0
1,57,107,4
1,61,113,4
1,43,111,68
1,50,113,4
1,55,104,0
1,59,98,8
1,62,93,0
1,45,113,28
1,52,103,0
1,57,101,4
1,61,102,4
1,64,91,4
1,57,110,908
1,62,115,0
1,66,117,0
1,57,107,216
1,61,115,4
1,64,104,12
1,43,100,12
1,50,115,0
1,55,109,4
1,59,113,4
1,62,87,4
1,43,90,204
1,50,101,4
1,59,107,8
1,55,97,0
1,62,88,4
1,55,110,36
1,60,111,0
1,64,106,0
1,50,101,8
1,55,97,0
1,43,82,0
1,59,75,8
1,52,110,16
1,45,104,0
1,57,111,0
1,61,111,0
1,69,43,8
1,64,104,4
1,45,116,200
1,52,102,0
1,57,97,4
1,61,93,4
1,50,104,16
1,55,104,8
1,59,104,0
1,62,106,0
1,67,42,4
1,52,109,8
1,57,104,0
1,61,113,4
1,64,107,4
1,57,109,192
1,62,113,4
1,66,111,4
1,52,100,4
1,45,108,176
1,52,113,4
1,57,110,4
1,61,113,4
1,64,84,4
1,43,40,20
1,50,113,0
1,55,103,4
1,59,107,4
1,62,77,4
1,43,80,544
1,50,100,0
1,55,91,0
1,59,83,8
1,55,111,64
1,50,61,4
1,60,115,0
1,43,105,8
1,50,107,4
1,55,108,0
1,59,96,8
1,50,118,320
1,57,113,4
1,60,116,0
1,66,115,0
1,69,63,4
1,66,108,28
1,60,117,0
1,57,103,4
1,50,105,28
1,57,97,0
1,50,104,16
