track,note,velocity,time
1,68,100,12288
1,60,100,0
1,63,100,0
1,63,0,2300
1,60,0,0
1,68,0,0
1,67,100,4
1,63,100,0
1,60,100,0
1,60,0,1532
1,63,0,0
1,67,0,0
1,70,100,388
1,67,100,0
1,63,100,0
1,63,0,380
1,67,0,0
1,70,0,0
1,68,100,4
1,60,100,0
1,65,100,0
1,65,0,1532
1,60,0,0
1,68,0,0
1,68,100,4
1,63,100,0
1,60,100,0
1,60,0,1532
1,63,0,0
1,68,0,0
1,67,100,4
1,63,100,0
1,60,100,0
1,60,0,1532
1,63,0,0
1,67,0,0
1,60,100,24580
1,63,100,0
1,68,100,0
1,68,0,2300
1,63,0,0
1,60,0,0
1,67,100,4
1,65,100,0
1,60,100,0
1,60,0,1532
1,65,0,0
1,67,0,0
1,70,100,388
1,67,100,0
1,63,100,0
1,63,0,380
1,67,0,0
1,70,0,0
1,68,100,4
1,60,100,0
1,65,100,0
1,65,0,1532
1,60,0,0
1,68,0,0
1,68,100,4
1,63,100,0
1,60,100,0
1,60,0,1532
1,63,0,0
1,68,0,0
1,67,100,4
1,63,100,0
1,60,100,0
1,60,0,1532
1,63,0,0
1,67,0,0
1,68,100,18436
1,60,100,0
1,63,100,0
1,63,0,2300
1,60,0,0
1,68,0,0
1,67,100,4
1,63,100,0
1,60,100,0
1,60,0,1532
1,63,0,0
1,67,0,0
1,70,100,388
1,67,100,0
1,63,100,0
1,63,0,380
1,67,0,0
1,70,0,0
1,68,100,4
1,60,100,0
1,65,100,0
1,65,0,1532
1,60,0,0
1,68,0,0
1,68,100,4
1,63,100,0
1,60,100,0
1,60,0,1532
1,63,0,0
1,68,0,0
1,67,100,4
1,63,100,0
1,60,100,0
1,60,0,1532
1,63,0,0
1,67,0,0
1,68,100,36868
1,63,100,0
1,60,100,0
1,60,0,2300
1,63,0,0
1,68,0,0
1,67,100,4
1,63,100,0
1,60,100,0
1,60,0,764
1,63,0,0
1,67,0,0
1,67,100,4
1,63,100,0
1,60,100,0
1,60,0,1148
1,63,0,0
1,67,0,0
1,70,100,4
1,67,100,0
1,63,100,0
1,63,0,380
1,67,0,0
1,70,0,0
1,68,100,4
1,60,100,0
1,65,100,0
1,65,0,1532
1,60,0,0
1,68,0,0
1,68,100,4
1,63,100,0
1,60,100,0
1,60,0,1532
1,63,0,0
1,68,0,0
1,67,100,4
1,63,100,0
1,60,100,0
1,60,0,1532
1,63,0,0
1,67,0,0
1,68,100,36868
1,63,100,0
1,60,100,0
1,60,0,2300
1,63,0,0
1,68,0,0
1,67,100,4
1,63,100,0
1,60,100,0
1,60,0,764
1,63,0,0
1,67,0,0
1,67,100,4
1,63,100,0
1,60,100,0
1,60,0,1148
1,63,0,0
1,67,0,0
1,70,100,4
1,67,100,0
1,63,100,0
1,63,0,380
1,67,0,0
1,70,0,0
1,68,100,4
1,60,100,0
1,65,100,0
1,65,0,1532
1,60,0,0
1,68,0,0
1,68,100,4
1,63,100,0
1,60,100,0
1,60,0,1532
1,63,0,0
1,68,0,0
1,67,100,4
1,63,100,0
1,60,100,0
1,60,0,1532
1,63,0,0
1,67,0,0
2,63,100,14592
2,75,100,0
2,75,0,284
2,63,0,0
2,62,100,4
2,74,100,0
2,74,0,188
2,62,0,0
2,60,100,4
2,72,100,0
2,72,0,284
2,60,0,0
2,62,100,4
2,74,100,0
2,74,0,572
2,62,0,0
2,63,100,4
2,75,100,0
2,75,0,188
2,63,0,0
2,60,100,4
2,72,100,0
2,72,0,1532
2,60,0,0
2,48,100,196
2,60,100,0
2,51,100,120
2,63,100,0
2,60,0,20
2,48,0,0
2,53,100,52
2,65,100,0
2,51,0,68
2,63,0,0
2,54,100,52
2,66,100,0
2,53,0,20
2,65,0,0
2,54,0,120
2,66,0,0
2,53,100,4
2,65,100,0
2,51,100,72
2,63,100,0
2,65,0,48
2,53,0,0
2,54,100,1056
2,66,100,0
2,66,0,92
2,54,0,0
2,53,100,4
2,65,100,0
2,65,0,92
2,63,0,0
2,51,0,0
2,53,0,0
2,51,100,4
2,63,100,0
2,63,0,236
2,51,0,0
2,55,100,52
2,67,100,0
2,67,0,764
2,55,0,0
2,58,100,4
2,70,100,0
2,70,0,188
2,58,0,0
2,60,100,4
2,72,100,0
2,72,0,572
2,60,0,0
2,54,100,26908
2,66,100,0
2,53,100,96
2,65,100,0
2,66,0,44
2,54,0,0
2,53,0,76
2,65,0,0
2,63,100,48
2,51,100,0
2,53,100,96
2,65,100,0
2,51,0,92
2,63,0,0
2,53,0,672
2,65,0,0
2,54,100,28
2,66,100,0
2,66,0,120
2,54,0,0
2,51,100,48
2,63,100,0
2,63,100,1344
2,51,100,0
2,65,100,144
2,53,100,0
2,51,0,44
2,63,0,0
2,51,0,0
2,63,0,0
2,54,100,100
2,66,100,0
2,53,0,44
2,65,0,0
2,63,100,52
2,51,100,0
2,54,0,92
2,66,0,0
2,63,0,672
2,51,0,0
2,70,100,1540
2,58,100,0
2,58,0,188
2,70,0,0
2,67,100,4
2,55,100,0
2,55,0,380
2,67,0,0
2,67,100,4
2,55,100,0
2,55,0,188
2,67,0,0
2,65,100,4
2,53,100,0
2,63,100,96
2,51,100,0
2,53,0,92
2,65,0,0
2,60,100,52
2,48,100,0
2,63,0,44
2,51,0,0
2,63,100,100
2,51,100,0
2,60,0,44
2,48,0,0
2,63,0,340
2,51,0,0
2,63,100,20736
2,75,100,0
2,75,0,284
2,63,0,0
2,62,100,4
2,74,100,0
2,74,0,188
2,62,0,0
2,60,100,4
2,72,100,0
2,72,0,284
2,60,0,0
2,62,100,4
2,74,100,0
2,74,0,572
2,62,0,0
2,63,100,4
2,75,100,0
2,75,0,188
2,63,0,0
2,60,100,4
2,72,100,0
2,72,0,1532
2,60,0,0
2,48,100,196
2,60,100,0
2,51,100,120
2,63,100,0
2,60,0,20
2,48,0,0
2,53,100,52
2,65,100,0
2,51,0,68
2,63,0,0
2,54,100,52
2,66,100,0
2,53,0,20
2,65,0,0
2,54,0,120
2,66,0,0
2,53,100,4
2,65,100,0
2,51,100,72
2,63,100,0
2,65,0,48
2,53,0,0
2,54,100,1056
2,66,100,0
2,66,0,92
2,54,0,0
2,53,100,4
2,65,100,0
2,65,0,92
2,63,0,0
2,51,0,0
2,53,0,0
2,51,100,4
2,63,100,0
2,63,0,236
2,51,0,0
2,55,100,52
2,67,100,0
2,67,0,764
2,55,0,0
2,58,100,4
2,70,100,0
2,70,0,188
2,58,0,0
2,72,100,4
2,60,100,0
2,60,0,2108
2,72,0,0
2,51,100,1540
2,51,0,1532
2,53,100,4
2,53,0,1532
2,55,100,4
2,55,0,1532
2,57,100,4
2,57,0,1532
2,58,100,4
2,58,0,1532
2,60,100,4
2,60,0,512
2,70,100,448
2,58,100,0
2,58,0,92
2,70,0,0
2,72,100,4
2,60,100,0
2,60,0,92
2,72,0,0
2,75,100,4
2,63,100,0
2,63,0,92
2,75,0,0
2,74,100,4
2,62,100,0
2,62,0,92
2,74,0,0
2,72,100,4
2,60,100,0
2,60,0,92
2,72,0,0
2,70,100,4
2,58,100,0
2,58,0,92
2,70,0,0
2,72,100,4
2,60,100,0
2,60,0,1532
2,72,0,0
2,63,100,4
2,51,100,0
2,51,0,572
2,63,0,0
2,65,100,4
2,53,100,0
2,53,0,380
2,65,0,0
2,67,100,4
2,55,100,0
2,55,0,188
2,67,0,0
2,63,100,4
2,51,100,0
2,51,0,380
2,63,0,0
2,60,100,4
2,48,100,0
2,48,0,1532
2,60,0,0
2,55,100,964
2,67,100,0
2,67,0,188
2,55,0,0
2,70,100,4
2,58,100,0
2,58,0,188
2,70,0,0
2,60,100,4
2,72,100,0
2,72,0,2108
2,60,0,0
2,78,100,388
2,66,100,0
2,66,0,188
2,78,0,0
2,77,100,4
2,65,100,0
2,65,0,188
2,77,0,0
2,75,100,4
2,63,100,0
2,63,0,188
2,75,0,0
2,60,100,4
2,72,100,0
2,72,0,2108
2,60,0,0
2,75,100,16324
2,63,100,0
2,63,0,380
2,75,0,0
2,74,100,4
2,62,100,0
2,62,0,188
2,74,0,0
2,72,100,4
2,60,100,0
2,60,0,92
2,72,0,0
2,70,100,4
2,58,100,0
2,58,0,92
2,70,0,0
2,72,100,4
2,60,100,0
2,60,0,572
2,72,0,0
2,66,100,196
2,54,100,0
2,54,0,380
2,66,0,0
2,65,100,4
2,53,100,0
2,53,0,92
2,65,0,0
2,63,100,4
2,51,100,0
2,51,0,476
2,63,0,0
2,66,100,4
2,54,100,0
2,54,0,92
2,66,0,0
2,65,100,4
2,53,100,0
2,53,0,92
2,65,0,0
2,63,100,4
2,51,100,0
2,66,100,288
2,54,100,0
2,54,0,92
2,63,0,0
2,51,0,0
2,66,0,0
2,63,100,4
2,51,100,0
2,51,0,476
2,63,0,0
2,63,100,100
2,51,100,0
2,51,0,188
2,63,0,0
2,55,100,4
2,67,100,0
2,67,0,380
2,55,0,0
2,65,100,4
2,53,100,0
2,53,0,188
2,65,0,0
2,55,100,4
2,67,100,0
2,67,0,764
2,55,0,0
2,55,100,196
2,67,100,0
2,67,0,188
2,55,0,0
2,58,100,4
2,70,100,0
2,70,0,188
2,58,0,0
2,60,100,4
2,72,100,0
2,72,0,2112
2,60,0,0
2,51,100,1536
2,51,0,1532
2,53,100,4
2,53,0,1532
2,55,100,4
2,55,0,1532
2,57,100,4
2,57,0,1532
2,58,100,4
2,58,0,1532
2,60,100,4
2,60,0,512
2,70,100,448
2,58,100,0
2,58,0,92
2,70,0,0
2,72,100,4
2,60,100,0
2,60,0,92
2,72,0,0
2,75,100,4
2,63,100,0
2,63,0,92
2,75,0,0
2,74,100,4
2,62,100,0
2,62,0,92
2,74,0,0
2,72,100,4
2,60,100,0
2,60,0,92
2,72,0,0
2,70,100,4
2,58,100,0
2,58,0,92
2,70,0,0
2,72,100,4
2,60,100,0
2,60,0,1532
2,72,0,0
2,63,100,4
2,51,100,0
2,51,0,572
2,63,0,0
2,65,100,4
2,53,100,0
2,53,0,380
2,65,0,0
2,67,100,4
2,55,100,0
2,55,0,188
2,67,0,0
2,63,100,4
2,51,100,0
2,51,0,380
2,63,0,0
2,60,100,4
2,48,100,0
2,48,0,1532
2,60,0,0
2,55,100,964
2,67,100,0
2,67,0,188
2,55,0,0
2,70,100,4
2,58,100,0
2,58,0,188
2,70,0,0
2,60,100,4
2,72,100,0
2,72,0,2108
2,60,0,0
2,78,100,388
2,66,100,0
2,66,0,188
2,78,0,0
2,77,100,4
2,65,100,0
2,65,0,188
2,77,0,0
2,75,100,4
2,63,100,0
2,63,0,188
2,75,0,0
2,60,100,4
2,72,100,0
2,72,0,2108
2,60,0,0
2,75,100,16324
2,63,100,0
2,63,0,380
2,75,0,0
2,74,100,4
2,62,100,0
2,62,0,188
2,74,0,0
2,72,100,4
2,60,100,0
2,60,0,92
2,72,0,0
2,70,100,4
2,58,100,0
2,58,0,92
2,70,0,0
2,72,100,4
2,60,100,0
2,60,0,572
2,72,0,0
2,66,100,196
2,54,100,0
2,54,0,380
2,66,0,0
2,65,100,4
2,53,100,0
2,53,0,92
2,65,0,0
2,63,100,4
2,51,100,0
2,51,0,476
2,63,0,0
2,66,100,4
2,54,100,0
2,54,0,92
2,66,0,0
2,65,100,4
2,53,100,0
2,53,0,92
2,65,0,0
2,63,100,4
2,51,100,0
2,66,100,288
2,54,100,0
2,54,0,92
2,63,0,0
2,51,0,0
2,66,0,0
2,63,100,4
2,51,100,0
2,51,0,476
2,63,0,0
2,63,100,100
2,51,100,0
2,51,0,188
2,63,0,0
2,55,100,4
2,67,100,0
2,67,0,380
2,55,0,0
2,65,100,4
2,53,100,0
2,53,0,188
2,65,0,0
2,55,100,4
2,67,100,0
2,67,0,764
2,55,0,0
2,55,100,196
2,67,100,0
2,67,0,188
2,55,0,0
2,58,100,4
2,70,100,0
2,70,0,188
2,58,0,0
2,60,100,4
2,72,100,0
2,72,0,2112
2,60,0,0
2,66,100,4032
2,54,100,0
2,54,0,92
2,66,0,0
2,65,100,4
2,53,100,0
2,53,0,92
2,65,0,0
2,63,100,4
2,51,100,0
2,51,0,92
2,63,0,0
2,65,100,4
2,53,100,0
2,53,0,476
2,65,0,0
2,66,100,4
2,54,100,0
2,54,0,188
2,66,0,0
2,63,100,4
2,51,100,0
2,51,0,764
2,63,0,0
2,72,100,4228
2,60,100,0
2,55,100,336
2,67,100,0
2,60,0,44
2,72,0,0
2,55,0,1056
2,67,0,0
2,58,100,1828
2,46,100,0
2,46,0,188
2,58,0,0
2,60,100,4
2,48,100,0
2,48,0,188
2,60,0,0
2,63,100,4
2,51,100,0
2,51,0,1724
2,63,0,0
2,58,100,964
2,46,100,0
2,46,0,188
2,58,0,0
2,60,100,4
2,48,100,0
2,48,0,188
2,60,0,0
2,63,100,4
2,51,100,0
2,51,0,956
2,63,0,0
2,66,100,1348
2,54,100,0
2,54,0,92
2,66,0,0
2,65,100,4
2,53,100,0
2,70,100,288
2,58,100,0
2,58,0,92
2,65,0,0
2,53,0,0
2,70,0,0
2,72,100,4
2,60,100,0
2,60,0,92
2,72,0,0
2,75,100,4
2,63,100,0
2,63,0,92
2,75,0,0
2,74,100,4
2,62,100,0
2,62,0,92
2,74,0,0
2,72,100,4
2,60,100,0
2,60,0,92
2,72,0,0
2,70,100,4
2,58,100,0
2,58,0,92
2,70,0,0
2,72,100,4
2,60,100,0
2,60,0,1532
2,72,0,0
2,63,100,4
2,51,100,0
2,51,0,572
2,63,0,0
2,65,100,4
2,53,100,0
2,53,0,380
2,65,0,0
2,67,100,4
2,55,100,0
2,55,0,188
2,67,0,0
2,63,100,4
2,51,100,0
2,51,0,380
2,63,0,0
2,60,100,4
2,48,100,0
2,48,0,1532
2,60,0,0
2,55,100,964
2,67,100,0
2,67,0,188
2,55,0,0
2,70,100,4
2,58,100,0
2,58,0,188
2,70,0,0
2,60,100,4
2,72,100,0
2,72,0,2108
2,60,0,0
2,78,100,388
2,66,100,0
2,66,0,188
2,78,0,0
2,77,100,4
2,65,100,0
2,65,0,188
2,77,0,0
2,75,100,4
2,63,100,0
2,63,0,188
2,75,0,0
2,60,100,4
2,72,100,0
2,72,0,2108
2,60,0,0
2,55,100,580
2,67,100,0
2,67,0,188
2,55,0,0
2,70,100,4
2,58,100,0
2,58,0,188
2,70,0,0
2,60,100,4
2,72,100,0
2,72,0,2108
2,60,0,0
2,58,100,580
2,70,100,0
2,70,0,188
2,58,0,0
2,63,100,4
2,75,100,0
2,75,0,188
2,63,0,0
2,70,100,4
2,58,100,0
2,58,0,188
2,70,0,0
2,72,100,4
2,60,100,0
2,60,0,4988
2,72,0,0
2,78,81,388
2,66,81,0
2,66,0,188
2,78,0,0
2,77,81,4
2,65,81,0
2,65,0,188
2,77,0,0
2,75,81,4
2,63,81,0
2,63,0,188
2,75,0,0
2,60,81,4
2,72,81,0
2,72,0,5180
2,60,0,0
2,78,57,388
2,66,57,0
2,66,0,188
2,78,0,0
2,77,57,4
2,65,57,0
2,65,0,188
2,77,0,0
2,75,57,4
2,63,57,0
2,63,0,188
2,75,0,0
2,60,57,4
2,72,57,0
2,72,0,2108
2,60,0,0
2,67,42,580
2,79,42,0
2,79,0,188
2,67,0,0
2,82,42,4
2,70,42,0
2,70,0,188
2,82,0,0
2,72,42,4
2,84,42,0
2,84,0,2108
2,72,0,0
2,78,34,388
2,66,34,0
2,66,0,188
2,78,0,0
2,77,34,4
2,65,34,0
2,65,0,188
2,77,0,0
2,75,34,4
2,63,34,0
2,63,0,188
2,75,0,0
2,60,34,4
2,72,34,0
2,72,0,3260
2,60,0,0
3,67,81,33792
3,67,0,128
3,67,81,64
3,67,0,128
3,63,81,64
3,63,0,380
3,67,81,4
3,67,0,380
3,63,81,4
3,63,0,128
3,67,81,64
3,67,0,380
3,65,81,4
3,65,0,764
3,67,81,580
3,67,0,128
3,67,81,64
3,67,0,128
3,63,81,64
3,63,0,380
3,67,81,4
3,67,0,128
3,67,81,64
3,67,0,128
3,63,81,64
3,63,0,128
3,67,81,64
3,67,0,380
3,68,81,4
3,68,0,380
3,67,81,4
3,67,0,128
