track,note,velocity,time
3,70,86,113268
3,65,83,0
3,62,83,0
3,62,80,416
3,65,80,0
3,70,83,0
3,62,80,64
3,65,80,0
3,70,83,0
3,54,83,224
3,57,83,0
3,62,86,0
3,54,80,416
3,57,80,0
3,62,83,0
3,54,80,64
3,57,80,0
3,62,83,0
3,58,83,224
3,62,83,0
3,67,86,0
3,58,80,416
3,62,80,0
3,67,83,0
3,58,80,64
3,62,80,0
3,67,83,0
3,58,83,224
3,62,83,0
3,67,86,0
3,58,80,416
3,62,80,0
3,67,83,0
3,58,80,64
3,62,80,0
3,67,83,0
3,62,83,224
3,65,83,0
3,70,86,0
3,62,80,416
3,65,80,0
3,70,83,0
3,62,80,64
3,65,80,0
3,70,83,0
3,54,83,224
3,57,83,0
3,62,86,0
3,54,80,416
3,57,80,0
3,62,83,0
3,54,80,64
3,57,80,0
3,62,83,0
3,58,83,224
3,62,83,0
3,67,86,0
3,58,80,416
3,62,80,0
3,67,83,0
3,58,80,64
3,62,80,0
3,67,83,0
3,58,83,224
3,62,83,0
3,67,86,0
3,58,80,416
3,62,80,0
3,67,83,0
3,58,80,64
3,62,80,0
3,67,83,0
3,62,83,224
3,65,83,0
3,70,86,0
3,62,80,416
3,65,80,0
3,70,83,0
3,62,80,64
3,65,80,0
3,70,83,0
3,54,83,224
3,57,83,0
3,62,86,0
3,54,80,416
3,57,80,0
3,62,83,0
3,54,80,64
3,57,80,0
3,62,83,0
3,58,83,224
3,62,83,0
3,67,86,0
3,58,80,416
3,62,80,0
3,67,83,0
3,58,80,64
3,62,80,0
3,67,83,0
3,58,83,224
3,62,83,0
3,67,86,0
3,58,80,416
3,62,80,0
3,67,83,0
3,58,80,64
3,62,80,0
3,67,83,0
3,55,83,224
3,60,83,0
3,64,86,0
3,55,80,416
3,60,80,0
3,64,83,0
3,55,80,64
3,60,80,0
3,64,83,0
3,55,83,224
3,60,83,0
3,64,86,0
3,55,80,416
3,60,80,0
3,64,83,0
3,55,80,64
3,60,80,0
3,64,83,0
3,57,83,224
3,60,83,0
3,65,86,0
3,57,80,416
3,60,80,0
3,65,83,0
3,57,80,64
3,60,80,0
3,65,83,0
3,67,86,224
3,62,83,0
3,59,83,0
3,79,92,0
3,67,72,0
3,69,92,112
3,81,92,0
3,76,97,112
3,88,97,0
3,74,92,112
3,86,92,0
3,72,92,112
3,84,92,0
3,71,92,112
3,83,92,0
3,79,72,112
3,67,92,0
3,69,90,0
3,81,90,0
3,74,90,0
3,86,90,0
3,71,90,0
3,83,90,0
3,76,90,0
3,88,90,0
3,74,90,4
3,86,90,0
3,72,90,16
3,84,90,0
3,69,90,16
3,81,90,0
3,72,90,0
3,84,90,0
3,67,70,0
3,79,90,0
3,69,90,112
3,81,90,0
3,76,95,112
3,88,95,0
3,74,90,112
3,86,90,0
3,72,90,112
3,84,90,0
3,71,90,112
3,83,90,0
3,67,90,112
3,79,70,0
3,69,90,0
3,81,90,0
3,74,90,0
3,86,90,0
3,71,90,0
3,83,90,0
3,74,90,0
3,86,90,0
3,72,90,0
3,84,90,0
3,72,90,0
3,60,90,0
3,67,70,416
3,62,70,0
4,26,84,2656
4,26,84,192
4,26,84,16
4,31,84,784
4,31,84,192
4,33,84,800
4,33,84,192
4,33,84,16
4,31,84,400
4,29,84,224
4,29,84,192
4,29,84,16
4,29,84,784
4,29,84,192
4,29,84,16
4,31,84,784
4,31,84,192
4,27,84,800
4,27,84,64
4,26,84,64
4,24,84,48
4,26,84,1216
4,26,84,192
4,26,84,16
4,31,84,784
4,31,84,192
4,33,84,800
4,33,84,192
4,33,84,16
4,31,84,400
4,29,84,224
4,29,84,192
4,29,84,16
4,29,84,784
4,29,84,192
4,29,84,16
4,31,84,784
4,31,84,192
4,27,84,800
4,27,84,64
4,26,84,64
4,24,84,48
4,26,84,1216
4,26,84,192
4,26,84,16
4,31,84,784
4,31,84,192
4,31,84,16
4,33,84,784
4,33,84,192
4,33,84,16
4,31,84,16
4,29,84,224
4,29,84,192
4,29,84,16
4,29,84,784
4,29,84,192
4,29,84,16
4,29,84,16
4,31,84,112
4,31,84,192
4,27,84,800
4,27,84,64
4,26,84,64
4,24,84,48
4,24,84,192
4,24,84,496
4,29,84,4
4,29,84,416
4,32,84,192
4,32,84,64
4,36,84,272
4,36,84,64
4,29,84,1120
4,29,84,448
4,32,84,192
4,32,84,416
4,36,84,272
4,36,84,416
4,29,84,1120
4,29,84,448
4,32,84,192
4,32,84,416
4,36,84,272
4,31,84,32
4,33,84,32
4,33,84,416
4,29,84,4
4,29,84,416
4,31,84,208
4,31,84,416
4,39,84,208
4,39,84,240
4,38,84,16
4,36,84,224
4,26,84,160
4,26,84,192
4,26,84,16
4,31,84,784
4,31,84,192
4,33,84,800
4,33,84,192
4,33,84,16
4,31,84,400
4,29,84,224
4,29,84,192
4,29,84,16
4,29,84,784
4,29,84,192
4,29,84,16
4,31,84,784
4,31,84,192
4,27,84,800
4,27,84,64
4,26,84,64
4,24,84,48
4,26,84,1216
4,26,84,192
4,26,84,16
4,31,84,784
4,31,84,192
4,31,84,16
4,33,84,784
4,33,84,192
4,33,84,16
4,31,84,16
4,29,84,224
4,29,84,192
4,29,84,16
4,29,84,784
4,29,84,192
4,29,84,16
4,29,84,16
4,31,84,112
4,31,84,192
4,27,84,800
4,27,84,64
4,26,84,64
4,24,84,48
4,24,84,192
4,24,84,496
4,29,84,4
4,29,84,416
4,32,84,192
4,32,84,64
4,36,84,272
4,36,84,64
4,29,84,1120
4,29,84,448
4,32,84,192
4,32,84,416
4,36,84,272
4,36,84,416
4,29,84,1120
4,29,84,448
4,32,84,192
4,32,84,416
4,36,84,272
4,31,84,32
4,33,84,32
4,33,84,416
4,29,84,4
4,29,84,416
4,31,84,208
4,31,84,416
4,39,84,208
4,39,84,240
4,38,84,16
4,36,84,224
4,34,84,160
4,34,84,416
4,26,84,32
4,26,84,416
4,26,84,48
4,26,84,48
4,30,84,16
4,31,84,16
4,31,84,416
4,31,84,48
4,26,84,48
4,29,84,16
4,31,84,16
4,31,84,416
4,31,84,48
4,33,84,48
4,34,84,32
4,34,84,416
4,29,84,80
4,27,84,16
4,26,84,16
4,26,84,416
4,26,84,48
4,26,84,48
4,30,84,16
4,31,84,16
4,31,84,416
4,31,84,48
4,31,84,16
4,43,64,416
4,41,64,112
4,43,64,16
4,41,64,16
4,38,64,16
4,36,64,16
4,38,64,16
4,34,84,16
4,34,84,416
4,26,84,48
4,26,84,416
4,31,84,48
4,31,84,416
4,31,84,48
4,31,84,64
4,31,84,416
4,43,60,0
4,41,60,112
4,38,60,112
4,36,60,16
4,34,60,16
4,36,84,112
4,36,84,416
4,31,84,48
4,36,84,32
4,31,84,32
4,36,84,32
4,36,84,416
4,36,84,48
4,34,84,32
4,36,84,32
4,29,84,32
4,29,84,416
4,29,84,48
4,29,84,48
4,30,84,16
4,31,84,16
4,26,84,772
4,26,84,192
4,26,84,16
4,31,84,784
4,31,84,192
4,33,84,800
4,33,84,192
4,33,84,16
4,31,84,400
4,29,84,224
4,29,84,192
4,29,84,16
4,29,84,784
4,29,84,192
4,29,84,16
4,31,84,784
4,31,84,192
4,27,84,800
4,27,84,64
4,26,84,64
4,24,84,48
4,26,84,1216
4,26,84,192
4,26,84,16
4,31,84,784
4,31,84,192
4,33,84,800
4,33,84,192
4,33,84,16
4,31,84,400
4,29,84,224
4,29,84,192
4,29,84,16
4,29,84,784
4,29,84,192
4,29,84,16
4,31,84,784
4,31,84,192
4,27,84,800
4,27,84,64
4,26,84,64
4,24,84,48
4,24,84,256
4,24,84,160
4,24,84,16
4,28,84,16
4,26,84,16
4,26,84,192
4,26,84,16
4,31,84,784
4,31,84,192
4,33,84,800
4,33,84,192
4,33,84,16
4,31,84,400
4,29,84,224
4,29,84,192
4,29,84,16
4,29,84,784
4,29,84,192
4,29,84,16
4,31,84,784
4,31,84,192
4,27,84,800
4,27,84,64
4,26,84,64
4,24,84,48
4,24,84,16
4,26,84,16
4,26,84,192
4,26,84,16
4,31,84,784
4,31,84,192
4,33,84,800
4,33,84,192
4,33,84,16
4,31,84,400
4,29,84,224
4,29,84,192
4,29,84,16
4,29,84,784
4,29,84,192
4,29,84,16
4,31,84,784
4,31,84,192
4,27,84,800
4,27,84,64
4,26,84,64
4,24,84,48
4,26,84,1216
4,26,84,192
4,26,84,16
4,31,84,784
4,31,84,192
4,33,84,800
4,33,84,192
4,33,84,16
4,31,84,400
4,29,84,224
4,29,84,192
4,29,84,16
4,29,84,784
4,29,84,192
4,29,84,16
4,31,84,784
4,31,84,192
4,27,84,8
4,27,84,8
4,26,84,8
4,24,84,8
4,26,84,8
4,26,84,8
4,26,84,16
4,31,84,8
4,31,84,8
4,33,84,8
4,33,84,8
4,33,84,16
4,31,84,8
4,29,84,8
4,29,84,8
4,29,84,16
4,29,84,8
4,29,84,8
4,29,84,16
4,31,84,8
4,31,84,8
4,27,84,8
4,27,84,8
4,26,84,8
4,24,84,8
5,65,90,39128
5,69,90,0
5,72,90,0
5,68,98,16
5,72,98,0
5,75,98,0
5,67,98,16
5,72,98,0
5,76,98,0
5,72,98,16
5,76,98,0
5,79,98,0
5,67,98,16
5,72,98,0
5,76,98,0
5,65,98,16
5,69,98,0
5,72,98,0
5,68,98,16
5,72,98,0
5,75,98,0
5,67,98,16
5,72,98,0
5,76,98,0
5,65,98,16
5,69,98,0
5,72,98,0
5,69,98,16
5,72,98,0
5,77,98,0
5,68,98,16
5,72,98,0
5,75,98,0
5,72,98,16
5,75,98,0
5,79,98,0
5,68,98,0
5,72,98,16
5,76,98,0
5,79,98,0
5,72,98,32
5,77,98,0
5,81,98,0
5,71,98,16
5,74,98,0
5,79,98,0
5,72,98,16
5,75,98,0
5,79,98,0
5,67,88,16
5,72,88,0
5,76,88,0
5,65,90,25280
5,69,90,0
5,72,90,0
5,68,98,16
5,72,98,0
5,75,98,0
5,67,98,16
5,72,98,0
5,76,98,0
5,72,98,16
5,76,98,0
5,79,98,0
5,67,98,16
5,72,98,0
5,76,98,0
5,65,98,16
5,69,98,0
5,72,98,0
5,68,98,16
5,72,98,0
5,75,98,0
5,67,98,16
5,72,98,0
5,76,98,0
5,65,98,16
5,69,98,0
5,72,98,0
5,69,98,16
5,72,98,0
5,77,98,0
5,68,98,16
5,72,98,0
5,75,98,0
5,68,98,16
5,72,98,0
5,75,98,0
5,79,98,0
5,72,98,16
5,76,98,0
5,79,98,0
5,72,98,32
5,77,98,0
5,81,98,0
5,71,98,16
5,74,98,0
5,79,98,0
5,72,98,16
5,75,98,0
5,79,98,0
5,76,90,16
5,72,90,0
5,67,90,0
5,74,105,0
5,70,105,0
5,62,105,0
5,66,105,848
5,74,105,0
5,78,105,0
5,70,105,848
5,79,105,0
5,74,105,0
5,74,105,2384
5,70,105,0
5,62,105,0
5,66,105,848
5,74,105,0
5,78,105,0
5,70,105,848
5,79,105,0
5,74,105,0
5,74,105,2384
5,70,105,0
5,62,105,0
5,66,105,848
5,74,105,0
5,78,105,0
5,70,105,848
5,79,105,0
5,74,105,0
5,64,99,0
5,76,99,0
5,65,99,32
5,77,99,0
5,79,99,16
5,67,99,0
6,79,106,184
6,81,104,16
6,88,111,0
6,86,111,16
6,84,110,16
6,83,108,16
6,79,106,16
6,81,106,0
6,86,111,0
6,83,101,16
6,83,106,16
6,88,111,0
6,86,106,16
6,86,106,16
6,84,102,16
6,81,97,16
6,84,106,0
6,79,106,544
6,81,104,16
6,88,111,16
6,86,111,16
6,84,110,16
6,83,108,16
6,79,106,16
6,81,106,0
6,86,111,0
6,83,101,16
6,83,106,16
6,86,111,0
6,84,106,16
6,86,71,16
6,84,106,16
6,81,101,80
6,84,106,0
6,64,127,144
6,64,127,48
6,65,127,48
6,65,127,0
6,67,127,16
6,67,127,0
6,65,127,48
6,69,127,0
6,67,127,256
6,67,127,48
6,64,127,48
6,64,127,0
6,62,127,48
6,62,127,0
6,60,114,0
6,64,127,52
6,64,127,12
6,67,127,0
6,64,127,0
6,62,114,16
6,57,104,16
6,62,127,16
6,60,127,20
6,64,127,0
6,62,127,32
6,60,124,32
6,62,127,32
6,64,127,0
6,60,127,0
6,59,127,592
6,60,127,0
6,62,127,16
6,60,127,0
6,62,127,32
6,60,127,0
6,55,114,16
6,57,119,0
6,60,127,0
6,64,127,112
6,64,127,48
6,65,127,48
6,65,127,0
6,67,127,16
6,67,127,0
6,65,127,48
6,69,124,0
6,72,127,16
6,74,127,0
6,69,127,32
6,72,127,0
6,71,127,0
6,69,127,16
6,69,127,80
6,67,127,80
6,69,127,0
6,64,114,16
6,64,127,20
6,64,127,28
6,67,127,0
6,64,127,0
6,62,114,16
6,57,104,16
6,62,127,16
6,60,127,20
6,57,124,92
6,57,127,48
6,64,127,0
6,62,127,32
6,60,124,32
6,62,127,32
6,64,127,0
6,62,127,0
6,60,124,16
6,59,127,464
6,60,127,0
6,62,127,16
6,60,127,0
6,62,127,32
6,60,127,0
6,55,114,16
6,57,119,0
6,60,127,0
6,65,127,384
6,65,124,48
6,65,127,48
6,65,127,144
6,65,127,48
6,65,127,48
6,65,127,48
6,67,127,16
6,65,124,16
6,65,127,480
6,65,124,48
6,65,127,48
6,65,127,144
6,65,127,48
6,65,127,48
6,65,127,48
6,67,127,16
6,65,124,16
6,67,127,480
6,67,124,48
6,67,127,48
6,67,127,144
6,67,127,48
6,67,127,48
6,67,127,48
6,69,127,16
6,67,124,16
6,65,127,1312
6,65,124,48
6,65,127,48
6,65,127,144
6,65,127,48
6,65,127,48
6,65,127,48
6,67,127,16
6,65,124,16
6,65,127,480
6,65,124,48
6,65,127,48
6,65,127,144
6,65,127,48
6,65,127,48
6,65,127,48
6,67,127,16
6,65,124,16
6,67,127,480
6,67,124,48
6,67,127,48
6,67,127,144
6,67,127,48
6,67,127,48
6,67,127,48
6,69,127,16
6,67,124,16
6,65,127,1312
6,65,124,48
6,65,127,48
6,65,127,144
6,65,127,48
6,65,127,48
6,65,127,48
6,67,127,16
6,65,124,16
6,65,127,480
6,65,124,48
6,65,127,48
6,65,127,144
6,65,127,48
6,65,127,48
6,65,127,48
6,67,127,16
6,65,124,16
6,67,127,480
6,67,124,48
6,67,127,48
6,67,127,144
6,67,127,48
6,67,127,48
6,67,127,48
6,69,127,16
6,67,124,16
6,65,127,1312
6,65,124,48
6,65,127,48
6,65,127,144
6,65,127,48
6,65,127,48
6,65,127,48
6,67,127,16
6,65,124,16
6,67,127,480
6,67,124,48
6,67,127,48
6,67,127,144
6,67,127,48
6,67,127,48
6,67,127,48
6,69,127,16
6,67,124,16
6,67,127,480
6,67,124,48
6,67,127,48
6,67,127,144
6,67,127,48
6,67,127,48
6,67,127,48
6,69,127,16
6,67,124,16
6,64,127,112
6,64,127,48
6,65,127,48
6,65,127,0
6,67,127,16
6,67,127,0
6,65,127,48
6,69,127,0
6,67,127,256
6,67,127,48
6,64,127,48
6,64,127,0
6,62,127,48
6,62,127,0
6,60,114,0
6,64,127,52
6,64,127,12
6,67,127,0
6,64,127,0
6,62,114,16
6,57,104,16
6,62,127,16
6,60,127,20
6,64,127,0
6,62,127,32
6,60,124,32
6,62,127,32
6,64,127,0
6,62,127,0
6,60,119,16
6,59,127,432
6,60,127,0
6,62,127,16
6,60,127,0
6,62,127,32
6,60,127,0
6,55,114,16
6,57,119,0
6,60,127,0
6,64,127,112
6,64,127,48
6,65,127,48
6,65,127,0
6,67,127,16
6,67,127,0
6,65,127,48
6,69,124,0
6,72,127,16
6,74,127,0
6,69,127,32
6,72,127,0
6,71,127,0
6,69,127,16
6,69,127,80
6,67,127,80
6,67,127,0
6,65,114,16
6,64,127,20
6,64,127,28
6,67,127,0
6,64,127,0
6,62,114,16
6,57,104,16
6,62,127,16
6,60,127,20
6,57,124,92
6,57,127,48
6,64,127,0
6,62,127,32
6,60,124,32
6,62,127,32
6,64,127,0
6,62,127,0
6,60,124,16
6,59,127,464
6,60,127,0
6,62,127,16
