track,note,velocity,time
1,68,64,0
1,63,64,0
1,56,64,0
1,59,64,0
1,59,0,5750
1,68,0,0
1,63,0,0
1,56,0,0
1,63,64,10
1,68,64,0
1,56,64,0
1,56,0,3830
1,68,0,0
1,63,0,0
1,56,64,10
1,68,64,0
1,64,64,0
1,64,0,3830
1,68,0,0
1,56,0,0
1,65,64,10
1,58,64,0
1,62,64,0
1,62,0,3830
1,58,0,0
1,65,0,0
1,61,64,10
1,54,64,0
1,66,64,0
1,66,0,3830
1,54,0,0
1,61,0,0
1,63,64,10
1,68,64,0
1,56,64,0
1,56,0,3830
1,68,0,0
1,63,0,0
1,56,64,10
1,68,64,0
1,64,64,0
1,64,0,3830
1,68,0,0
1,56,0,0
1,65,64,10
1,58,64,0
1,62,64,0
1,58,0,3830
1,62,0,10
1,65,0,0
1,61,64,0
1,54,64,0
1,66,64,0
1,66,0,3720
1,54,0,0
1,61,0,0
1,71,64,34680
1,80,64,0
1,75,64,0
1,68,64,0
1,68,0,1910
1,71,0,0
1,80,0,0
1,75,0,0
1,71,64,10
1,80,64,0
1,76,64,0
1,76,0,1910
1,80,0,0
1,71,0,0
1,73,64,10
1,80,64,0
1,76,64,0
1,73,0,940
1,76,0,10
1,80,0,0
1,73,64,10
1,78,64,0
1,82,64,0
1,82,0,960
1,78,0,0
1,80,64,0
1,75,64,0
1,68,64,0
1,71,64,0
1,73,0,10
1,68,0,3820
1,80,0,0
1,75,0,0
1,71,0,0
1,71,64,10
1,80,64,0
1,75,64,0
1,68,64,0
1,68,0,1910
1,71,0,0
1,80,0,0
1,75,0,0
1,71,64,10
1,80,64,0
1,76,64,0
1,76,0,1910
1,80,0,0
1,71,0,0
1,73,64,10
1,76,64,0
1,80,64,0
1,80,0,950
1,76,0,0
1,73,0,0
1,73,64,10
1,82,64,0
1,78,64,0
1,78,0,950
1,82,0,0
1,73,0,10
1,80,64,0
1,75,64,0
1,68,64,0
1,71,64,0
1,68,0,1910
1,80,0,10
1,75,0,0
1,71,0,0
1,63,64,1920
1,68,64,0
1,56,64,0
1,56,0,3830
1,68,0,0
1,63,0,0
1,56,64,10
1,68,64,0
1,64,64,0
1,64,0,3830
1,68,0,10
1,56,0,0
1,65,64,0
1,58,64,0
1,62,64,0
1,62,0,3830
1,58,0,0
1,65,0,10
1,61,64,0
1,54,64,0
1,66,64,0
1,66,0,3720
1,54,0,0
1,61,0,0
1,71,64,3960
1,80,64,0
1,75,64,0
1,68,64,0
1,68,0,1910
1,71,0,0
1,80,0,0
1,75,0,0
1,71,64,10
1,80,64,0
1,76,64,0
1,76,0,1910
1,80,0,0
1,71,0,0
1,73,64,10
1,80,64,0
1,76,64,0
1,78,64,0
1,78,0,0
1,73,0,950
1,80,0,0
1,76,0,0
1,82,64,10
1,73,64,0
1,78,64,0
1,78,0,960
1,73,0,0
1,82,0,0
1,80,64,0
1,75,64,0
1,68,64,0
1,71,64,0
1,71,0,3710
1,80,0,10
1,75,0,0
1,68,0,0
1,71,64,120
1,80,64,0
1,75,64,0
1,68,64,0
1,68,0,1920
1,71,0,0
1,80,0,0
1,75,0,0
1,71,64,0
1,80,64,0
1,76,64,0
1,76,0,1910
1,80,0,0
1,71,0,0
1,80,64,10
1,73,64,0
1,76,64,0
1,76,0,950
1,73,0,0
1,80,0,0
1,82,64,10
1,73,64,0
1,78,64,0
1,78,0,960
1,82,0,0
1,80,64,0
1,75,64,0
1,68,64,0
1,71,64,0
1,73,0,10
1,80,0,3700
1,71,0,0
1,75,0,0
1,68,0,10
1,71,64,120
1,80,64,0
1,75,64,0
1,68,64,0
1,71,0,1910
1,80,0,10
1,75,0,0
1,68,0,0
1,71,64,0
1,80,64,0
1,76,64,0
1,76,0,1910
1,80,0,0
1,71,0,0
1,80,64,10
1,76,64,0
1,73,64,0
1,73,0,940
1,76,0,10
1,80,0,10
1,73,64,0
1,78,64,0
1,82,64,0
1,82,0,960
1,78,0,0
1,73,0,0
1,80,64,0
1,75,64,0
1,68,64,0
1,71,64,0
1,71,0,3710
1,80,0,10
1,75,0,0
1,68,0,0
1,71,64,120
1,80,64,0
1,75,64,0
1,68,64,0
1,80,0,1910
1,71,0,0
1,75,0,10
1,68,0,0
1,71,64,0
1,80,64,0
1,76,64,0
1,80,0,1900
1,76,0,10
1,71,0,0
1,73,64,10
1,80,64,0
1,76,64,0
1,76,0,950
1,80,0,0
1,73,0,0
1,82,64,10
1,78,64,0
1,73,64,0
1,73,0,840
1,78,0,0
1,82,0,0
1,56,64,120
1,68,64,0
1,71,64,0
1,71,0,710
1,68,0,0
1,70,64,10
1,73,64,0
1,73,0,710
1,70,0,0
1,71,64,10
1,75,64,0
1,75,0,950
1,71,0,0
1,71,64,10
1,75,64,0
1,75,0,700
1,71,0,10
1,70,64,10
1,73,64,0
1,73,0,710
1,70,0,0
1,71,64,10
1,68,64,0
1,68,0,710
1,71,0,0
1,73,64,10
1,73,0,710
1,75,64,10
1,71,64,0
1,71,0,960
1,75,0,0
1,71,64,0
1,75,64,0
1,75,0,710
1,71,0,10
1,73,64,0
1,70,64,0
1,70,0,590
1,73,0,0
1,68,64,130
1,71,64,0
1,71,0,960
1,68,0,0
1,70,64,0
1,73,64,0
1,73,0,950
1,70,0,0
1,71,64,10
1,75,64,0
1,75,0,940
1,71,0,20
1,70,64,0
1,73,64,0
1,73,0,940
1,70,0,10
1,68,64,10
1,71,64,0
1,71,0,950
1,68,0,0
1,70,64,10
1,73,64,0
1,73,0,950
1,70,0,0
1,71,64,10
1,75,64,0
1,75,0,950
1,71,0,0
1,70,64,10
1,73,64,0
1,73,0,950
1,70,0,10
1,71,64,0
1,68,64,0
1,68,0,950
1,71,0,0
1,70,64,10
1,73,64,0
1,73,0,960
1,70,0,0
1,75,64,0
1,71,64,0
1,71,0,950
1,75,0,10
1,70,64,0
1,73,64,0
1,73,0,830
1,70,0,0
1,68,64,130
1,71,64,0
1,71,0,720
1,68,0,0
1,70,64,0
1,73,64,0
1,73,0,710
1,70,0,0
1,71,64,10
1,75,64,0
1,75,0,950
1,71,0,0
1,71,64,10
1,75,64,0
1,75,0,720
1,71,0,0
1,70,64,0
1,73,64,0
1,70,0,590
1,73,0,10
1,71,64,120
1,68,64,0
1,68,0,960
1,71,0,0
1,70,64,0
1,73,64,0
1,73,0,950
1,70,0,0
1,75,64,10
1,71,64,0
1,75,0,950
1,71,0,10
1,73,64,0
1,70,64,0
1,70,0,950
1,73,0,0
1,71,64,10
1,68,64,0
1,68,0,950
1,71,0,10
1,70,64,0
1,73,64,0
1,73,0,950
1,70,0,0
1,71,64,10
1,75,64,0
1,75,0,950
1,71,0,0
1,70,64,10
1,73,64,0
1,73,0,960
1,70,0,0
1,71,64,0
1,68,64,0
1,68,0,960
1,71,0,0
1,70,64,0
1,73,64,0
1,73,0,950
1,70,0,0
1,71,64,10
1,75,64,0
1,75,0,950
1,71,0,0
1,70,64,10
1,73,64,0
1,73,0,950
1,70,0,10
1,68,64,0
1,71,64,0
1,71,0,950
1,68,0,0
1,70,64,10
1,73,64,0
1,73,0,950
1,70,0,0
1,71,64,10
1,75,64,0
1,75,0,950
1,71,0,0
1,73,64,10
1,70,64,0
1,70,0,950
1,73,0,0
1,71,64,10
1,68,64,0
1,68,0,950
1,71,0,0
1,70,64,10
1,73,64,0
1,73,0,950
1,70,0,0
1,75,64,10
1,71,64,0
1,71,0,950
1,75,0,0
1,73,64,10
1,70,64,0
1,70,0,820
1,73,0,10
1,68,64,130
1,71,64,0
1,70,64,0
1,70,0,0
1,71,0,710
1,68,0,0
1,70,64,10
1,73,64,0
1,73,0,710
1,70,0,10
1,71,64,0
1,75,64,0
1,75,0,950
1,71,0,0
1,71,64,10
1,75,64,0
1,75,0,720
1,71,0,0
1,70,64,0
1,73,64,0
1,73,0,720
1,70,0,0
1,68,64,0
1,71,64,0
1,71,0,720
1,68,0,0
1,69,64,0
1,72,64,0
1,57,64,0
1,56,0,240
1,69,0,460
1,72,0,0
1,57,0,0
1,70,64,20
1,73,64,0
1,58,64,0
1,58,0,950
1,73,0,0
1,70,0,10
1,71,64,0
1,74,64,0
1,59,64,0
1,59,0,700
1,74,0,10
1,71,0,0
1,75,64,10
1,72,64,0
1,60,64,0
1,60,0,590
1,72,0,0
1,75,0,0
1,68,64,130
1,73,64,0
1,61,64,0
1,61,0,3830
1,73,0,0
1,68,0,0
1,61,64,10
1,73,64,0
1,69,64,0
1,69,0,3830
1,73,0,0
1,61,0,0
1,67,64,10
1,70,64,0
1,75,64,0
1,75,0,3830
1,70,0,0
1,67,0,0
1,66,64,10
1,59,64,0
1,71,64,0
1,71,0,3720
1,59,0,0
1,66,0,0
1,68,64,120
1,73,64,0
1,61,64,0
1,61,0,3830
1,73,0,0
1,68,0,0
1,61,64,10
1,73,64,0
1,69,64,0
1,69,0,3830
1,73,0,0
1,61,0,0
1,67,64,10
1,70,64,0
1,75,64,0
1,75,0,3830
1,70,0,0
1,67,0,0
1,66,64,10
1,59,64,0
1,71,64,0
1,71,0,3720
1,59,0,0
1,66,0,0
2,32,110,5760
2,32,0,3830
2,28,110,10
2,28,0,3830
2,34,110,10
2,34,0,3830
2,30,110,10
2,30,0,3830
2,32,110,10
2,32,0,3830
2,28,110,10
2,28,0,3830
2,34,110,10
2,30,110,3840
2,34,0,50
2,30,0,3640
2,32,110,150
2,32,0,240
2,35,110,0
2,35,0,230
2,37,110,10
2,37,0,230
2,39,110,10
2,39,0,240
2,37,110,0
2,37,0,230
2,35,110,10
2,35,0,240
2,32,110,0
2,32,0,230
2,30,110,10
2,30,0,240
2,32,110,0
2,32,0,230
2,35,110,10
2,35,0,230
2,37,110,10
2,37,0,230
2,39,110,10
2,39,0,240
2,37,110,0
2,37,0,230
2,35,110,10
2,35,0,230
2,32,110,10
2,32,0,240
2,30,110,0
2,30,0,240
2,32,110,0
2,32,0,230
2,35,110,10
2,35,0,230
2,37,110,10
2,37,0,230
2,39,110,10
2,39,0,240
2,37,110,0
2,37,0,230
2,35,110,10
2,35,0,240
2,32,110,0
2,32,0,240
2,30,110,0
2,30,0,230
2,32,110,10
2,32,0,240
2,35,110,0
2,35,0,230
2,37,110,10
2,37,0,240
2,39,110,0
2,39,0,230
2,37,110,10
2,37,0,230
2,35,110,10
2,35,0,230
2,32,110,10
2,32,0,240
2,30,110,0
2,30,0,230
2,32,110,10
2,32,0,230
2,35,110,10
2,35,0,230
2,37,110,10
2,37,0,230
2,39,110,10
2,39,0,230
2,37,110,10
2,37,0,240
2,35,110,0
2,35,0,230
2,32,110,10
2,32,0,240
2,30,110,0
2,30,0,230
2,32,110,10
2,32,0,230
2,35,110,10
2,35,0,240
2,37,110,0
2,37,0,240
2,39,110,0
2,39,0,230
2,37,110,10
2,37,0,230
2,35,110,10
2,35,0,240
2,32,110,0
2,32,0,240
2,30,110,0
2,30,0,230
2,32,110,10
2,32,0,230
2,35,110,10
2,35,0,230
2,37,110,10
2,37,0,240
2,39,110,0
2,39,0,230
2,37,110,10
2,37,0,230
2,35,110,10
2,35,0,230
2,32,110,10
2,32,0,230
2,30,110,10
2,30,0,230
2,32,110,10
2,32,0,240
2,35,110,0
2,35,0,230
2,37,110,10
2,37,0,240
2,39,110,0
2,39,0,230
2,37,110,10
2,37,0,240
2,35,110,0
2,35,0,230
2,32,110,10
2,32,0,230
2,30,110,10
2,30,0,240
2,32,110,0
2,32,0,230
2,35,110,10
2,35,0,230
2,37,110,10
2,37,0,240
2,39,110,0
2,39,0,240
2,37,110,0
2,37,0,230
2,35,110,10
2,35,0,240
2,32,110,0
2,32,0,240
2,30,110,0
2,30,0,230
2,28,110,10
2,28,0,230
2,35,110,10
2,35,0,230
2,40,110,10
2,40,0,230
2,35,110,10
2,35,0,240
2,28,110,0
2,28,0,230
2,35,110,10
2,35,0,240
2,40,110,0
2,40,0,230
2,35,110,10
2,35,0,230
2,37,110,10
2,37,0,240
2,40,110,0
2,40,0,230
2,44,110,10
2,44,0,240
2,40,110,0
2,40,0,230
2,34,110,10
2,34,0,230
2,37,110,10
2,37,0,240
2,42,110,0
2,42,0,230
2,37,110,10
2,37,0,240
2,32,110,0
2,32,0,230
2,35,110,10
2,35,0,230
2,37,110,10
2,37,0,240
2,39,110,0
2,39,0,230
2,37,110,10
2,37,0,230
2,35,110,10
2,35,0,240
2,32,110,0
2,32,0,230
2,30,110,10
2,30,0,230
2,32,110,10
2,32,0,230
2,35,110,10
2,35,0,240
2,37,110,0
2,37,0,240
2,39,110,0
2,39,0,230
2,37,110,10
2,37,0,230
2,35,110,10
2,35,0,240
2,32,110,0
2,32,0,230
2,30,110,10
2,30,0,230
2,32,110,10
2,32,0,230
2,35,110,10
2,35,0,240
2,37,110,0
2,37,0,240
2,39,110,0
2,39,0,230
2,37,110,10
2,37,0,240
2,35,110,0
2,35,0,230
2,32,110,10
2,32,0,230
2,30,110,10
2,30,0,230
2,28,110,10
2,28,0,230
2,35,110,10
2,35,0,230
2,40,110,10
2,40,0,240
2,35,110,0
2,35,0,230
2,28,110,10
2,28,0,230
2,35,110,10
2,35,0,240
2,40,110,0
2,40,0,230
2,35,110,10
2,35,0,230
2,37,110,10
2,37,0,240
2,40,110,0
2,40,0,230
2,44,110,10
2,44,0,240
2,40,110,0
2,40,0,230
2,34,110,10
2,34,0,240
2,37,110,0
2,37,0,230
2,42,110,10
2,42,0,230
2,37,110,10
2,37,0,230
2,32,110,10
2,32,0,230
2,35,110,10
2,35,0,240
2,37,110,0
2,37,0,230
2,39,110,10
2,39,0,230
2,37,110,10
2,37,0,240
2,35,110,0
2,35,0,230
2,32,110,10
2,32,0,230
2,30,110,10
2,30,0,230
2,32,110,10
2,32,0,240
2,35,110,0
2,35,0,240
2,37,110,0
2,37,0,230
2,39,110,10
2,39,0,230
2,37,110,10
2,37,0,240
2,35,110,0
2,35,0,230
2,32,110,10
2,32,0,230
2,30,110,10
2,30,0,240
2,32,110,0
2,32,0,230
2,35,110,10
2,35,0,240
2,37,110,0
2,37,0,230
2,39,110,10
2,39,0,230
2,37,110,10
2,37,0,240
2,35,110,0
2,35,0,230
2,32,110,10
2,32,0,230
2,30,110,10
2,30,0,240
2,28,110,0
2,28,0,230
2,35,110,10
2,35,0,230
2,40,110,10
2,40,0,230
2,35,110,10
2,35,0,230
2,28,110,10
2,28,0,240
2,35,110,0
2,35,0,230
2,40,110,10
2,40,0,230
2,35,110,10
2,35,0,240
2,37,110,0
2,37,0,230
2,40,110,10
2,40,0,230
2,44,110,10
2,44,0,230
2,40,110,10
2,34,110,240
2,40,0,10
2,34,0,220
2,37,110,10
2,37,0,230
2,42,110,10
2,42,0,230
2,37,110,10
2,32,110,240
2,37,0,30
2,32,0,170
2,35,110,40
2,35,0,230
2,37,110,10
2,37,0,240
2,39,110,0
2,39,0,230
2,37,110,10
2,37,0,230
2,35,110,10
2,35,0,230
2,32,110,10
2,32,0,230
2,30,110,10
2,30,0,240
2,32,110,0
2,32,0,230
2,35,110,10
2,35,0,230
2,37,110,10
2,37,0,230
2,39,110,10
2,39,0,240
2,37,110,0
2,37,0,230
2,35,110,10
2,35,0,230
2,32,110,10
2,32,0,230
2,30,110,10
2,32,110,240
2,30,0,10
2,32,0,220
2,35,110,10
2,35,0,230
2,37,110,10
2,37,0,240
2,39,110,0
2,39,0,240
2,37,110,0
2,37,0,230
2,35,110,10
2,35,0,230
2,32,110,10
2,32,0,240
2,30,110,0
2,28,110,240
2,30,0,10
2,28,0,210
2,35,110,20
2,35,0,230
2,40,110,10
2,40,0,240
2,35,110,0
2,35,0,230
2,28,110,10
2,28,0,230
2,35,110,10
2,35,0,240
2,40,110,0
2,40,0,230
2,35,110,10
2,37,110,240
2,35,0,10
2,37,0,210
2,40,110,20
2,40,0,230
2,44,110,10
2,44,0,230
2,40,110,10
2,34,110,240
2,40,0,10
2,34,0,210
2,37,110,20
2,37,0,230
2,42,110,10
2,42,0,230
2,37,110,10
2,32,110,240
2,37,0,10
2,32,0,210
2,35,110,20
2,35,0,230
