track,note,velocity,time
1,61,84,4208
1,68,89,0
1,65,78,0
1,59,76,28
1,68,91,0
1,63,84,4
1,66,99,0
1,70,91,0
1,61,84,4
1,64,80,32
1,59,77,0
1,68,84,0
1,61,97,12
1,65,90,0
1,61,84,4
1,68,89,0
1,65,78,0
1,59,76,28
1,68,91,0
1,63,84,4
1,61,84,0
1,66,99,0
1,70,91,0
1,64,80,36
1,59,77,0
1,68,84,0
1,61,97,12
1,65,90,0
1,61,84,4
1,68,89,0
1,65,78,0
1,59,76,28
1,68,91,0
1,63,84,4
1,66,99,0
1,70,91,0
1,61,84,4
1,64,80,32
1,59,77,0
1,68,84,0
1,61,97,12
1,65,90,0
1,61,84,4
1,68,89,0
1,65,78,0
1,59,76,28
1,68,91,0
1,63,84,4
1,61,84,0
1,66,99,0
1,70,91,0
1,64,80,36
1,59,77,0
1,68,84,0
1,61,97,12
1,65,90,0
1,58,63,4
1,63,66,0
1,66,67,0
1,58,63,4
1,63,66,0
1,66,67,0
1,58,63,4
1,63,66,0
1,66,67,0
1,58,63,4
1,63,66,0
1,66,67,0
1,61,84,4
1,68,89,0
1,65,78,0
1,59,76,28
1,68,91,0
1,63,84,4
1,66,99,0
1,70,91,0
1,61,84,4
1,64,80,32
1,59,77,0
1,68,84,0
1,61,97,12
1,65,90,0
1,61,84,4
1,68,89,0
1,65,78,0
1,59,76,28
1,68,91,0
1,63,84,4
1,61,84,0
1,66,99,0
1,70,91,0
1,64,80,36
1,59,77,0
1,68,84,0
1,61,97,12
1,65,90,0
1,58,63,4
1,63,66,0
1,66,67,0
1,58,63,4
1,63,66,0
1,66,67,0
1,58,63,4
1,63,66,0
1,66,67,0
1,58,63,4
1,63,66,0
1,66,67,0
1,61,84,4
1,68,89,0
1,65,78,0
1,59,76,28
1,68,91,0
1,63,84,4
1,66,99,0
1,70,91,0
1,61,84,4
1,64,80,32
1,59,77,0
1,68,84,0
1,61,97,12
1,65,90,0
1,58,63,4
1,63,66,0
1,66,67,0
1,58,63,4
1,63,66,0
1,66,67,0
1,58,63,4
1,63,66,0
1,66,67,0
1,58,63,4
1,63,66,0
1,66,67,0
1,58,63,4
1,63,66,0
1,66,67,0
1,58,63,4
1,63,66,0
1,66,67,0
1,58,63,4
1,63,66,0
1,66,67,0
1,58,63,4
1,63,66,0
1,66,67,0
1,61,84,4
1,68,89,0
1,65,78,0
1,59,76,28
1,68,91,0
1,63,84,4
1,66,99,0
1,70,91,0
1,61,84,4
1,64,80,32
1,59,77,0
1,68,84,0
1,61,97,12
1,65,90,0
1,61,84,4
1,68,89,0
1,65,78,0
1,59,76,28
1,68,91,0
1,63,84,4
1,61,84,0
1,66,99,0
1,70,91,0
1,64,80,36
1,59,77,0
1,68,84,0
1,61,97,12
1,65,90,0
1,61,84,4
1,68,89,0
1,65,78,0
1,59,76,28
1,68,91,0
1,63,84,4
1,66,99,0
1,70,91,0
1,61,84,4
1,64,80,32
1,59,77,0
1,68,84,0
1,61,97,12
1,65,90,0
1,61,84,4
1,68,89,0
1,65,78,0
1,59,76,28
1,68,91,0
1,63,84,4
1,61,84,0
1,66,99,0
1,70,91,0
1,64,80,36
1,59,77,0
1,68,84,0
1,61,97,12
1,65,90,0
1,61,84,4
1,68,89,0
1,65,78,0
1,59,76,28
1,68,91,0
1,63,84,4
1,66,99,0
1,70,91,0
1,61,84,4
1,64,80,32
1,59,77,0
1,68,84,0
1,61,97,12
1,65,90,0
1,61,84,4
1,68,89,0
1,65,78,0
1,59,76,28
1,68,91,0
1,63,84,4
1,61,84,0
1,66,99,0
1,70,91,0
1,64,80,36
1,59,77,0
1,68,84,0
1,61,97,12
1,65,90,0
2,37,99,1116
2,37,87,76
2,37,87,24
2,49,95,24
2,37,95,28
2,37,93,28
2,37,93,64
2,37,89,20
2,37,95,28
2,49,93,20
2,37,99,172
2,37,87,76
2,37,87,24
2,49,95,24
2,37,95,28
2,37,93,28
2,37,93,56
2,37,89,28
2,37,95,20
2,49,93,28
2,37,99,172
2,37,87,76
2,37,87,24
2,49,95,24
2,37,95,28
2,37,93,20
2,37,93,68
2,37,89,24
2,37,95,20
2,49,93,28
2,37,99,172
2,37,87,76
2,37,87,24
2,49,95,24
2,37,95,28
2,37,93,20
2,37,93,68
2,37,89,24
2,37,95,20
2,49,93,28
2,37,99,172
2,37,87,76
2,37,87,24
2,49,95,24
2,37,95,28
2,37,93,20
2,37,93,68
2,37,89,24
2,37,95,20
2,49,93,28
2,37,99,172
2,37,87,76
2,37,87,24
2,49,95,24
2,37,95,28
2,37,93,20
2,37,93,68
2,37,89,24
2,37,95,20
2,49,93,28
2,37,99,172
2,37,87,76
2,37,87,24
2,49,95,24
2,37,95,28
2,37,93,20
2,37,93,68
2,37,89,24
2,37,95,20
2,49,93,28
2,37,99,172
2,37,87,76
2,37,87,20
2,49,95,28
2,37,95,28
2,37,93,20
2,37,93,68
2,37,89,24
2,37,95,20
2,49,93,28
2,37,99,172
2,37,87,76
2,37,87,24
2,49,95,24
2,37,95,28
2,37,93,20
2,37,93,68
2,37,89,24
2,37,95,20
2,49,93,28
2,37,99,172
2,37,87,76
2,37,87,24
2,49,95,24
2,37,95,28
2,37,93,20
2,37,93,68
2,37,89,24
2,37,95,20
2,49,93,28
2,37,99,172
2,37,87,76
2,37,87,24
2,49,95,24
2,37,95,28
2,37,93,20
2,37,93,68
2,37,89,24
2,37,95,20
2,49,93,28
2,37,99,172
2,37,87,76
2,37,87,24
2,49,95,24
2,37,95,28
2,37,93,20
2,37,93,68
2,37,89,24
2,37,95,20
2,49,93,28
2,37,99,172
2,37,87,76
2,37,87,24
2,49,95,24
2,37,95,28
2,37,93,20
2,37,93,68
2,37,89,24
2,37,95,20
2,49,93,28
2,37,99,172
2,37,87,76
2,37,87,24
2,49,95,24
2,37,95,28
2,37,93,20
2,37,93,68
2,37,89,24
2,37,95,20
2,49,93,28
2,37,99,172
2,37,87,76
2,37,87,24
2,49,95,24
2,37,95,28
2,37,93,20
2,37,93,68
2,37,89,24
2,37,95,20
2,49,93,28
2,37,99,172
2,37,87,76
2,37,87,20
2,49,95,28
2,37,95,28
2,37,93,20
2,37,93,68
2,37,89,24
2,37,95,20
2,49,93,28
2,37,99,172
2,37,87,76
2,37,87,24
2,49,95,24
2,37,95,28
2,37,93,20
2,37,93,68
2,37,89,24
2,37,95,20
2,49,93,28
2,37,99,172
2,37,87,76
2,37,87,24
2,49,95,24
2,37,95,28
2,37,93,20
2,37,93,68
2,37,89,24
2,37,95,20
2,49,93,28
2,39,99,172
2,39,87,76
2,39,87,24
2,51,95,24
2,39,95,32
2,39,93,20
2,39,93,64
2,39,89,24
2,39,95,24
2,51,93,24
2,39,99,172
2,39,87,76
2,39,87,24
2,51,95,24
2,39,95,32
2,39,93,20
2,39,93,64
2,39,89,24
2,39,95,24
2,51,93,24
2,39,99,172
2,39,87,76
2,39,87,24
2,51,95,24
2,39,95,32
2,39,93,20
2,39,93,64
2,39,89,24
2,39,95,24
2,51,93,24
2,39,99,172
2,39,87,76
2,39,87,24
2,51,95,24
2,39,95,32
2,39,93,20
2,39,93,64
2,39,89,24
2,39,95,24
2,51,93,24
2,39,99,172
2,39,87,76
2,39,87,24
2,51,95,24
2,39,95,32
2,39,93,20
2,39,93,64
2,39,89,24
2,39,95,24
2,51,93,24
2,39,99,172
2,39,87,76
2,39,87,24
2,51,95,24
2,39,95,32
2,39,93,20
2,39,93,64
2,39,89,24
2,39,95,24
2,51,93,24
2,39,99,172
2,39,87,76
2,39,87,24
2,51,95,24
2,39,95,32
2,39,93,20
2,39,93,64
2,39,89,24
2,39,95,24
2,51,93,24
2,39,99,172
2,39,87,76
2,39,87,24
2,51,95,24
2,39,95,32
2,39,93,20
2,39,93,64
2,39,89,24
2,39,95,24
2,51,93,24
2,37,99,172
2,37,87,76
2,37,87,24
2,49,95,24
2,37,95,28
2,37,93,20
2,37,93,68
2,37,89,24
2,37,95,20
2,49,93,28
2,37,99,172
2,37,87,76
2,37,87,24
2,49,95,24
2,37,95,28
2,37,93,20
2,37,93,68
2,37,89,24
2,37,95,20
2,49,93,28
2,37,99,172
2,37,87,76
2,37,87,24
2,49,95,24
2,37,95,28
2,37,93,20
2,37,93,68
2,37,89,24
2,37,95,20
2,49,93,28
2,37,99,172
2,37,87,76
2,37,87,24
2,49,95,24
2,37,95,28
2,37,93,20
2,37,93,68
2,37,89,24
2,37,95,20
2,49,93,28
2,37,99,172
2,37,87,76
2,37,87,24
2,49,95,24
2,37,95,28
2,37,93,20
2,37,93,68
2,37,89,24
2,37,95,20
2,49,93,28
2,37,99,172
2,37,87,76
2,37,87,20
2,49,95,28
2,37,95,28
2,37,93,20
2,37,93,68
2,37,89,24
2,37,95,20
2,49,93,28
2,37,99,172
2,37,87,76
2,37,87,24
2,49,95,24
2,37,95,28
2,37,93,20
2,37,93,68
2,37,89,24
2,37,95,20
2,49,93,28
2,37,99,172
2,37,87,76
2,37,87,24
2,49,95,24
2,37,95,28
2,37,93,20
2,37,93,68
2,37,89,24
2,37,95,20
2,49,93,28
2,39,99,172
2,39,87,76
2,39,87,24
2,51,95,24
2,39,95,32
2,39,93,20
2,39,93,64
2,39,89,24
2,39,95,24
2,51,93,24
2,39,99,172
2,39,87,76
2,39,87,24
2,51,95,24
2,39,95,32
2,39,93,20
2,39,93,64
2,39,89,24
2,39,95,24
2,51,93,24
2,39,99,172
2,39,87,76
2,39,87,24
2,51,95,24
2,39,95,32
2,39,93,20
2,39,93,64
2,39,89,24
2,39,95,24
2,51,93,24
2,39,99,172
2,39,87,76
2,39,87,24
2,51,95,24
2,39,95,32
2,39,93,20
2,39,93,64
2,39,89,24
2,39,95,24
2,51,93,24
2,39,99,172
2,39,87,76
2,39,87,24
2,51,95,24
2,39,95,32
2,39,93,20
2,39,93,64
2,39,89,24
2,39,95,24
2,51,93,24
2,39,99,172
2,39,87,76
2,39,87,24
2,51,95,24
2,39,95,32
2,39,93,20
2,39,93,64
2,39,89,24
2,39,95,24
2,51,93,24
2,39,99,172
2,39,87,76
2,39,87,24
2,51,95,24
2,39,95,32
2,39,93,20
2,39,93,64
2,39,89,24
2,39,95,24
2,51,93,24
2,39,99,172
2,39,87,76
2,39,87,24
2,51,95,24
2,39,95,32
2,39,93,20
2,39,93,64
2,39,89,24
2,39,95,24
2,51,93,24
2,37,99,172
2,37,87,76
2,37,87,24
2,49,95,24
2,37,95,28
2,37,93,20
2,37,93,68
2,37,89,24
2,37,95,20
2,49,93,28
2,37,99,172
2,37,87,76
2,37,87,24
2,49,95,24
2,37,95,28
2,37,93,20
2,37,93,68
2,37,89,24
2,37,95,20
2,49,93,28
2,37,99,172
2,37,87,76
2,37,87,24
2,49,95,24
2,37,95,28
2,37,93,20
2,37,93,68
2,37,89,24
2,37,95,20
2,49,93,28
2,37,99,172
2,37,87,76
2,37,87,24
2,49,95,24
2,37,95,28
2,37,93,20
2,37,93,68
2,37,89,24
2,37,95,20
2,49,93,28
2,39,99,172
2,39,87,76
2,39,87,24
2,51,95,24
2,39,95,32
2,39,93,20
2,39,93,64
2,39,89,24
2,39,95,24
2,51,93,24
2,39,99,172
2,39,87,76
2,39,87,24
2,51,95,24
2,39,95,32
2,39,93,20
2,39,93,64
2,39,89,24
2,39,95,24
2,51,93,24
2,39,99,172
2,39,87,76
2,39,87,24
2,51,95,24
2,39,95,32
2,39,93,20
2,39,93,64
2,39,89,24
2,39,95,24
2,51,93,24
2,39,99,172
2,39,87,76
2,39,87,24
2,51,95,24
2,39,95,32
2,39,93,20
2,39,93,64
2,39,89,24
2,39,95,24
2,51,93,24
2,39,99,172
2,39,87,76
2,39,87,24
2,51,95,24
2,39,95,32
2,39,93,20
2,39,93,64
2,39,89,24
2,39,95,24
2,51,93,24
2,39,99,172
2,39,87,76
2,39,87,24
2,51,95,24
2,39,95,32
2,39,93,20
2,39,93,64
2,39,89,24
2,39,95,24
2,51,93,24
2,39,99,172
2,39,87,76
2,39,87,24
2,51,95,24
2,39,95,32
2,39,93,20
2,39,93,64
2,39,89,24
2,39,95,24
2,51,93,24
2,39,99,172
2,39,87,76
2,39,87,24
2,51,95,24
2,39,95,32
2,39,93,20
2,39,93,64
2,39,89,24
2,39,95,24
2,51,93,24
2,39,99,172
2,39,87,76
2,39,87,24
2,51,95,24
2,39,95,32
2,39,93,20
2,39,93,64
2,39,89,24
2,39,95,24
2,51,93,24
2,39,99,172
2,39,87,76
2,39,87,24
2,51,95,24
2,39,95,32
2,39,93,20
2,39,93,64
2,39,89,24
2,39,95,24
2,51,93,24
2,39,99,172
2,39,87,76
2,39,87,24
2,51,95,24
2,39,95,32
2,39,93,20
2,39,93,64
2,39,89,24
2,39,95,24
2,51,93,24
2,39,99,172
2,39,87,76
2,39,87,24
2,51,95,24
2,39,95,32
2,39,93,20
2,39,93,64
2,39,89,24
2,39,95,24
2,51,93,24
2,39,99,172
2,39,87,76
2,39,87,24
2,51,95,24
2,39,95,32
2,39,93,20
2,39,93,64
2,39,89,24
2,39,95,24
2,51,93,24
2,39,99,172
2,39,87,76
2,39,87,24
2,51,95,24
2,39,95,32
2,39,93,20
2,39,93,64
2,39,89,24
2,39,95,24
2,51,93,24
2,39,99,172
2,39,87,76
2,39,87,24
2,51,95,24
2,39,95,32
2,39,93,20
2,39,93,64
2,39,89,24
2,39,95,24
2,51,93,24
2,39,99,172
2,39,87,76
2,39,87,24
2,51,95,24
2,39,95,32
2,39,93,20
2,39,93,64
2,39,89,24
2,39,95,24
2,51,93,24
2,37,99,172
2,37,87,76
2,37,87,24
2,49,95,24
2,37,95,28
2,37,93,20
2,37,93,68
2,37,89,24
2,37,95,20
2,49,93,28
2,37,99,172
2,37,87,76
2,37,87,24
2,49,95,24
2,37,95,28
2,37,93,20
2,37,93,68
2,37,89,24
2,37,95,20
2,49,93,28
2,37,99,172
2,37,87,76
2,37,87,24
2,49,95,24
2,37,95,28
2,37,93,20
2,37,93,68
2,37,89,24
2,37,95,20
2,49,93,28
2,37,99,172
2,37,87,76
2,37,87,24
2,49,95,24
2,37,95,28
2,37,93,20
2,37,93,68
2,37,89,24
2,37,95,20
2,49,93,28
2,37,99,172
2,37,87,76
2,37,87,24
2,49,95,24
2,37,95,28
2,37,93,20
2,37,93,68
2,37,89,24
2,37,95,20
2,49,93,28
2,37,99,172
2,37,87,76
2,37,87,20
2,49,95,28
2,37,95,28
2,37,93,20
2,37,93,68
2,37,89,24
2,37,95,20
2,49,93,28
2,37,99,172
2,37,87,76
2,37,87,24
2,49,95,24
2,37,95,28
2,37,93,20
2,37,93,68
2,37,89,24
2,37,95,20
2,49,93,28
2,37,99,172
2,37,87,76
2,37,87,24
2,49,95,24
2,37,95,28
2,37,93,20
2,37,93,68
2,37,89,24
2,37,95,20
2,49,93,28
2,37,99,172
2,37,87,76
2,37,87,24
2,49,95,24
2,37,95,28
2,37,93,20
2,37,93,68
2,37,89,24
2,37,95,20
2,49,93,28
2,37,99,172
2,37,87,76
2,37,87,20
2,49,95,28
2,37,95,28
2,37,93,20
2,37,93,68
2,37,89,24
2,37,95,20
2,49,93,28
2,37,99,172
2,37,87,76
2,37,87,24
2,49,95,24
2,37,95,28
2,37,93,20
2,37,93,68
2,37,89,24
2,37,95,20
2,49,93,28
2,37,99,172
2,37,87,76
2,37,87,24
2,49,95,24
2,37,95,28
2,37,93,20
2,37,93,68
2,37,89,24
2,37,95,20
2,49,93,28
2,37,99,172
2,37,87,76
2,37,87,24
2,49,95,24
2,37,95,28
2,37,93,20
2,37,93,68
2,37,89,24
2,37,95,20
2,49,93,28
2,37,99,172
2,37,87,76
2,37,87,20
2,49,95,28
2,37,95,28
2,37,93,20
2,37,93,68
2,37,89,24
2,37,95,20
2,49,93,28
2,37,99,172
2,37,87,76
2,37,87,24
2,49,95,24
2,37,95,28
2,37,93,20
2,37,93,68
2,37,89,24
2,37,95,20
2,49,93,28
